{
  "track_name": "03 - Third Circuit",
  "duration_sec": 83.602,
  "sample_rate": 44100,
  "note_count": 2007,
  "unique_pitches": 40,
  "pitch_range": 48,
  "avg_note_duration": 0.1633,
  "reconstruction_stats": {
    "notes_reconstructed": 2007,
    "keyon_events": 2007,
    "keyoff_events": 1495,
    "orphan_keyons": 3,
    "unique_pitches": 40,
    "pitch_range": 48,
    "avg_duration_sec": 0.1633
  },
  "metadata": {
    "source": "S\\Super Smash TV\\03 - Third Circuit.vgz"
  },
  "notes": [
    {
      "channel": 0,
      "note": 43,
      "start": 0.0022,
      "duration": 0.1981,
      "velocity": 118,
      "chip": "ym2612"
    },
    {
      "channel": 1,
      "note": 26,
      "start": 0.0044,
      "duration": 0.1981,
      "velocity": 118,
      "chip": "ym2612"
    },
    {
      "channel": 2,
      "note": 43,
      "start": 0.0065,
      "duration": 0.295,
      "velocity": 111,
      "chip": "ym2612"
    },
    {
      "channel": 0,
      "note": 43,
      "start": 0.2005,
      "duration": 0.0998,
      "velocity": 118,
      "chip": "ym2612"
    },
    {
      "channel": 1,
      "note": 55,
      "start": 0.2027,
      "duration": 0.0982,
      "velocity": 118,
      "chip": "ym2612"
    },
    {
      "channel": 0,
      "note": 50,
      "start": 0.3005,
      "duration": 0.1998,
      "velocity": 118,
      "chip": "ym2612"
    },
    {
      "channel": 1,
      "note": 53,
      "start": 0.3011,
      "duration": 0.101,
      "velocity": 127,
      "chip": "ym2612"
    },
    {
      "channel": 2,
      "note": 44,
      "start": 0.3016,
      "duration": 0.1025,
      "velocity": 127,
      "chip": "ym2612"
    },
    {
      "channel": 1,
      "note": 26,
      "start": 0.4022,
      "duration": 0.1003,
      "velocity": 118,
      "chip": "ym2612"
    },
    {
      "channel": 2,
      "note": 21,
      "start": 0.4044,
      "duration": 0.1982,
      "velocity": 111,
      "chip": "ym2612"
    },
    {
      "channel": 0,
      "note": 53,
      "start": 0.5005,
      "duration": 0.1999,
      "velocity": 118,
      "chip": "ym2612"
    },
    {
      "channel": 1,
      "note": 50,
      "start": 0.5027,
      "duration": 0.0978,
      "velocity": 118,
      "chip": "ym2612"
    },
    {
      "channel": 1,
      "note": 53,
      "start": 0.6006,
      "duration": 0.2014,
      "velocity": 127,
      "chip": "ym2612"
    },
    {
      "channel": 2,
      "note": 43,
      "start": 0.6028,
      "duration": 0.3982,
      "velocity": 111,
      "chip": "ym2612"
    },
    {
      "channel": 0,
      "note": 43,
      "start": 0.7005,
      "duration": 0.1998,
      "velocity": 118,
      "chip": "ym2612"
    },
    {
      "channel": 1,
      "note": 26,
      "start": 0.8022,
      "duration": 0.1982,
      "velocity": 118,
      "chip": "ym2612"
    },
    {
      "channel": 0,
      "note": 44,
      "start": 0.9005,
      "duration": 0.1999,
      "velocity": 118,
      "chip": "ym2612"
    },
    {
      "channel": 1,
      "note": 52,
      "start": 1.0006,
      "duration": 0.2019,
      "velocity": 127,
      "chip": "ym2612"
    },
    {
      "channel": 2,
      "note": 43,
      "start": 1.0012,
      "duration": 0.0998,
      "velocity": 111,
      "chip": "ym2612"
    },
    {
      "channel": 0,
      "note": 43,
      "start": 1.1005,
      "duration": 0.0999,
      "velocity": 118,
      "chip": "ym2612"
    },
    {
      "channel": 2,
      "note": 50,
      "start": 1.1012,
      "duration": 0.1035,
      "velocity": 127,
      "chip": "ym2612"
    },
    {
      "channel": 0,
      "note": 50,
      "start": 1.2005,
      "duration": 0.1999,
      "velocity": 118,
      "chip": "ym2612"
    },
    {
      "channel": 1,
      "note": 26,
      "start": 1.2027,
      "duration": 0.0994,
      "velocity": 118,
      "chip": "ym2612"
    },
    {
      "channel": 2,
      "note": 21,
      "start": 1.2048,
      "duration": 0.0994,
      "velocity": 111,
      "chip": "ym2612"
    },
    {
      "channel": 1,
      "note": 48,
      "start": 1.3022,
      "duration": 0.0987,
      "velocity": 118,
      "chip": "ym2612"
    },
    {
      "channel": 2,
      "note": 53,
      "start": 1.3044,
      "duration": 0.0971,
      "velocity": 111,
      "chip": "ym2612"
    },
    {
      "channel": 0,
      "note": 53,
      "start": 1.4005,
      "duration": 0.1999,
      "velocity": 118,
      "chip": "ym2612"
    },
    {
      "channel": 1,
      "note": 50,
      "start": 1.4011,
      "duration": 0.0993,
      "velocity": 118,
      "chip": "ym2612"
    },
    {
      "channel": 2,
      "note": 55,
      "start": 1.4016,
      "duration": 0.0997,
      "velocity": 111,
      "chip": "ym2612"
    },
    {
      "channel": 1,
      "note": 53,
      "start": 1.5006,
      "duration": 0.102,
      "velocity": 127,
      "chip": "ym2612"
    },
    {
      "channel": 2,
      "note": 54,
      "start": 1.5013,
      "duration": 0.0321,
      "velocity": 111,
      "chip": "ym2612"
    },
    {
      "channel": 2,
      "note": 53,
      "start": 1.5334,
      "duration": 0.0167,
      "velocity": 111,
      "chip": "ym2612"
    },
    {
      "channel": 2,
      "note": 52,
      "start": 1.5501,
      "duration": 0.0167,
      "velocity": 111,
      "chip": "ym2612"
    },
    {
      "channel": 2,
      "note": 51,
      "start": 1.5668,
      "duration": 0.0167,
      "velocity": 111,
      "chip": "ym2612"
    },
    {
      "channel": 2,
      "note": 50,
      "start": 1.5834,
      "duration": 0.0197,
      "velocity": 111,
      "chip": "ym2612"
    },
    {
      "channel": 0,
      "note": 43,
      "start": 1.6005,
      "duration": 0.1998,
      "velocity": 118,
      "chip": "ym2612"
    },
    {
      "channel": 1,
      "note": 26,
      "start": 1.6027,
      "duration": 0.1982,
      "velocity": 118,
      "chip": "ym2612"
    },
    {
      "channel": 2,
      "note": 43,
      "start": 1.6033,
      "duration": 0.2982,
      "velocity": 111,
      "chip": "ym2612"
    },
    {
      "channel": 0,
      "note": 43,
      "start": 1.8005,
      "duration": 0.0999,
      "velocity": 118,
      "chip": "ym2612"
    },
    {
      "channel": 1,
      "note": 55,
      "start": 1.801,
      "duration": 0.0999,
      "velocity": 118,
      "chip": "ym2612"
    },
    {
      "channel": 0,
      "note": 50,
      "start": 1.9005,
      "duration": 0.1999,
      "velocity": 118,
      "chip": "ym2612"
    },
    {
      "channel": 1,
      "note": 53,
      "start": 1.9011,
      "duration": 0.101,
      "velocity": 127,
      "chip": "ym2612"
    },
    {
      "channel": 2,
      "note": 44,
      "start": 1.9016,
      "duration": 0.1025,
      "velocity": 127,
      "chip": "ym2612"
    },
    {
      "channel": 1,
      "note": 26,
      "start": 2.0022,
      "duration": 0.1004,
      "velocity": 118,
      "chip": "ym2612"
    },
    {
      "channel": 2,
      "note": 21,
      "start": 2.0044,
      "duration": 0.1982,
      "velocity": 111,
      "chip": "ym2612"
    },
    {
      "channel": 0,
      "note": 53,
      "start": 2.1005,
      "duration": 0.1999,
      "velocity": 118,
      "chip": "ym2612"
    },
    {
      "channel": 1,
      "note": 50,
      "start": 2.1027,
      "duration": 0.0977,
      "velocity": 118,
      "chip": "ym2612"
    },
    {
      "channel": 1,
      "note": 53,
      "start": 2.2006,
      "duration": 0.2015,
      "velocity": 127,
      "chip": "ym2612"
    },
    {
      "channel": 2,
      "note": 43,
      "start": 2.2027,
      "duration": 0.3983,
      "velocity": 111,
      "chip": "ym2612"
    },
    {
      "channel": 0,
      "note": 43,
      "start": 2.3005,
      "duration": 0.1998,
      "velocity": 118,
      "chip": "ym2612"
    },
    {
      "channel": 1,
      "note": 26,
      "start": 2.4022,
      "duration": 0.1982,
      "velocity": 118,
      "chip": "ym2612"
    },
    {
      "channel": 0,
      "note": 44,
      "start": 2.5005,
      "duration": 0.1999,
      "velocity": 118,
      "chip": "ym2612"
    },
    {
      "channel": 1,
      "note": 52,
      "start": 2.6006,
      "duration": 0.2019,
      "velocity": 127,
      "chip": "ym2612"
    },
    {
      "channel": 2,
      "note": 43,
      "start": 2.6012,
      "duration": 0.0998,
      "velocity": 111,
      "chip": "ym2612"
    },
    {
      "channel": 0,
      "note": 43,
      "start": 2.7005,
      "duration": 0.0998,
      "velocity": 118,
      "chip": "ym2612"
    },
    {
      "channel": 2,
      "note": 50,
      "start": 2.7012,
      "duration": 0.1035,
      "velocity": 127,
      "chip": "ym2612"
    },
    {
      "channel": 0,
      "note": 50,
      "start": 2.8005,
      "duration": 0.1999,
      "velocity": 118,
      "chip": "ym2612"
    },
    {
      "channel": 1,
      "note": 26,
      "start": 2.8027,
      "duration": 0.0994,
      "velocity": 118,
      "chip": "ym2612"
    },
    {
      "channel": 2,
      "note": 21,
      "start": 2.8048,
      "duration": 0.0994,
      "velocity": 111,
      "chip": "ym2612"
    },
    {
      "channel": 1,
      "note": 48,
      "start": 2.9022,
      "duration": 0.0987,
      "velocity": 118,
      "chip": "ym2612"
    },
    {
      "channel": 2,
      "note": 53,
      "start": 2.9044,
      "duration": 0.0971,
      "velocity": 111,
      "chip": "ym2612"
    },
    {
      "channel": 0,
      "note": 53,
      "start": 3.0005,
      "duration": 0.1999,
      "velocity": 118,
      "chip": "ym2612"
    },
    {
      "channel": 1,
      "note": 50,
      "start": 3.0011,
      "duration": 0.0994,
      "velocity": 118,
      "chip": "ym2612"
    },
    {
      "channel": 2,
      "note": 55,
      "start": 3.0016,
      "duration": 0.0998,
      "velocity": 111,
      "chip": "ym2612"
    },
    {
      "channel": 1,
      "note": 53,
      "start": 3.1006,
      "duration": 0.102,
      "velocity": 127,
      "chip": "ym2612"
    },
    {
      "channel": 2,
      "note": 54,
      "start": 3.1014,
      "duration": 0.0321,
      "velocity": 111,
      "chip": "ym2612"
    },
    {
      "channel": 2,
      "note": 53,
      "start": 3.1334,
      "duration": 0.0167,
      "velocity": 111,
      "chip": "ym2612"
    },
    {
      "channel": 2,
      "note": 52,
      "start": 3.1501,
      "duration": 0.0167,
      "velocity": 111,
      "chip": "ym2612"
    },
    {
      "channel": 2,
      "note": 51,
      "start": 3.1668,
      "duration": 0.0167,
      "velocity": 111,
      "chip": "ym2612"
    },
    {
      "channel": 2,
      "note": 50,
      "start": 3.1834,
      "duration": 0.0197,
      "velocity": 111,
      "chip": "ym2612"
    },
    {
      "channel": 0,
      "note": 43,
      "start": 3.2005,
      "duration": 0.1998,
      "velocity": 118,
      "chip": "ym2612"
    },
    {
      "channel": 1,
      "note": 26,
      "start": 3.2027,
      "duration": 0.1982,
      "velocity": 118,
      "chip": "ym2612"
    },
    {
      "channel": 2,
      "note": 43,
      "start": 3.2033,
      "duration": 0.2982,
      "velocity": 111,
      "chip": "ym2612"
    },
    {
      "channel": 0,
      "note": 43,
      "start": 3.4005,
      "duration": 0.0998,
      "velocity": 118,
      "chip": "ym2612"
    },
    {
      "channel": 1,
      "note": 55,
      "start": 3.401,
      "duration": 0.0999,
      "velocity": 118,
      "chip": "ym2612"
    },
    {
      "channel": 0,
      "note": 50,
      "start": 3.5005,
      "duration": 0.1998,
      "velocity": 118,
      "chip": "ym2612"
    },
    {
      "channel": 1,
      "note": 53,
      "start": 3.5011,
      "duration": 0.101,
      "velocity": 127,
      "chip": "ym2612"
    },
    {
      "channel": 2,
      "note": 44,
      "start": 3.5016,
      "duration": 0.1025,
      "velocity": 127,
      "chip": "ym2612"
    },
    {
      "channel": 1,
      "note": 26,
      "start": 3.6022,
      "duration": 0.1002,
      "velocity": 118,
      "chip": "ym2612"
    },
    {
      "channel": 2,
      "note": 21,
      "start": 3.6044,
      "duration": 0.1982,
      "velocity": 111,
      "chip": "ym2612"
    },
    {
      "channel": 0,
      "note": 53,
      "start": 3.7005,
      "duration": 0.1999,
      "velocity": 118,
      "chip": "ym2612"
    },
    {
      "channel": 1,
      "note": 50,
      "start": 3.7027,
      "duration": 0.0978,
      "velocity": 118,
      "chip": "ym2612"
    },
    {
      "channel": 1,
      "note": 53,
      "start": 3.8006,
      "duration": 0.2014,
      "velocity": 127,
      "chip": "ym2612"
    },
    {
      "channel": 2,
      "note": 43,
      "start": 3.8028,
      "duration": 0.3977,
      "velocity": 111,
      "chip": "ym2612"
    },
    {
      "channel": 0,
      "note": 43,
      "start": 3.9005,
      "duration": 0.1998,
      "velocity": 118,
      "chip": "ym2612"
    },
    {
      "channel": 1,
      "note": 26,
      "start": 4.0022,
      "duration": 0.1003,
      "velocity": 118,
      "chip": "ym2612"
    },
    {
      "channel": 0,
      "note": 44,
      "start": 4.1005,
      "duration": 0.1999,
      "velocity": 118,
      "chip": "ym2612"
    },
    {
      "channel": 1,
      "note": 52,
      "start": 4.1027,
      "duration": 0.1982,
      "velocity": 118,
      "chip": "ym2612"
    },
    {
      "channel": 2,
      "note": 43,
      "start": 4.2007,
      "duration": 0.1008,
      "velocity": 111,
      "chip": "ym2612"
    },
    {
      "channel": 0,
      "note": 43,
      "start": 4.3005,
      "duration": 0.0999,
      "velocity": 118,
      "chip": "ym2612"
    },
    {
      "channel": 1,
      "note": 48,
      "start": 4.3011,
      "duration": 0.1015,
      "velocity": 127,
      "chip": "ym2612"
    },
    {
      "channel": 2,
      "note": 50,
      "start": 4.3016,
      "duration": 0.1031,
      "velocity": 127,
      "chip": "ym2612"
    },
    {
      "channel": 0,
      "note": 50,
      "start": 4.4005,
      "duration": 0.1999,
      "velocity": 118,
      "chip": "ym2612"
    },
    {
      "channel": 1,
      "note": 26,
      "start": 4.4027,
      "duration": 0.0994,
      "velocity": 118,
      "chip": "ym2612"
    },
    {
      "channel": 2,
      "note": 21,
      "start": 4.4049,
      "duration": 0.0993,
      "velocity": 111,
      "chip": "ym2612"
    },
    {
      "channel": 1,
      "note": 46,
      "start": 4.5022,
      "duration": 0.0987,
      "velocity": 118,
      "chip": "ym2612"
    },
    {
      "channel": 2,
      "note": 53,
      "start": 4.5044,
      "duration": 0.0971,
      "velocity": 111,
      "chip": "ym2612"
    },
    {
      "channel": 0,
      "note": 53,
      "start": 4.6005,
      "duration": 0.1999,
      "velocity": 118,
      "chip": "ym2612"
    },
    {
      "channel": 1,
      "note": 48,
      "start": 4.6011,
      "duration": 0.0993,
      "velocity": 118,
      "chip": "ym2612"
    },
    {
      "channel": 2,
      "note": 55,
      "start": 4.6016,
      "duration": 0.0997,
      "velocity": 111,
      "chip": "ym2612"
    },
    {
      "channel": 1,
      "note": 50,
      "start": 4.7006,
      "duration": 0.102,
      "velocity": 127,
      "chip": "ym2612"
    },
    {
      "channel": 2,
      "note": 54,
      "start": 4.7013,
      "duration": 0.0321,
      "velocity": 111,
      "chip": "ym2612"
    },
    {
      "channel": 2,
      "note": 53,
      "start": 4.7334,
      "duration": 0.0167,
      "velocity": 111,
      "chip": "ym2612"
    },
    {
      "channel": 2,
      "note": 52,
      "start": 4.7501,
      "duration": 0.0167,
      "velocity": 111,
      "chip": "ym2612"
    },
    {
      "channel": 2,
      "note": 51,
      "start": 4.7668,
      "duration": 0.0167,
      "velocity": 111,
      "chip": "ym2612"
    },
    {
      "channel": 2,
      "note": 50,
      "start": 4.7834,
      "duration": 0.0197,
      "velocity": 111,
      "chip": "ym2612"
    },
    {
      "channel": 0,
      "note": 43,
      "start": 4.8005,
      "duration": 0.1998,
      "velocity": 118,
      "chip": "ym2612"
    },
    {
      "channel": 1,
      "note": 26,
      "start": 4.8027,
      "duration": 0.1982,
      "velocity": 118,
      "chip": "ym2612"
    },
    {
      "channel": 2,
      "note": 43,
      "start": 4.8033,
      "duration": 0.2982,
      "velocity": 111,
      "chip": "ym2612"
    },
    {
      "channel": 0,
      "note": 43,
      "start": 5.0005,
      "duration": 0.0999,
      "velocity": 118,
      "chip": "ym2612"
    },
    {
      "channel": 1,
      "note": 55,
      "start": 5.001,
      "duration": 0.0999,
      "velocity": 118,
      "chip": "ym2612"
    },
    {
      "channel": 0,
      "note": 50,
      "start": 5.1005,
      "duration": 0.1999,
      "velocity": 118,
      "chip": "ym2612"
    },
    {
      "channel": 1,
      "note": 53,
      "start": 5.1011,
      "duration": 0.101,
      "velocity": 127,
      "chip": "ym2612"
    },
    {
      "channel": 2,
      "note": 44,
      "start": 5.1016,
      "duration": 0.1025,
      "velocity": 127,
      "chip": "ym2612"
    },
    {
      "channel": 1,
      "note": 26,
      "start": 5.2022,
      "duration": 0.1004,
      "velocity": 118,
      "chip": "ym2612"
    },
    {
      "channel": 2,
      "note": 21,
      "start": 5.2044,
      "duration": 0.1982,
      "velocity": 111,
      "chip": "ym2612"
    },
    {
      "channel": 0,
      "note": 53,
      "start": 5.3005,
      "duration": 0.1999,
      "velocity": 118,
      "chip": "ym2612"
    },
    {
      "channel": 1,
      "note": 50,
      "start": 5.3027,
      "duration": 0.0977,
      "velocity": 118,
      "chip": "ym2612"
    },
    {
      "channel": 1,
      "note": 53,
      "start": 5.4006,
      "duration": 0.2015,
      "velocity": 127,
      "chip": "ym2612"
    },
    {
      "channel": 2,
      "note": 43,
      "start": 5.4027,
      "duration": 0.3983,
      "velocity": 111,
      "chip": "ym2612"
    },
    {
      "channel": 0,
      "note": 43,
      "start": 5.5005,
      "duration": 0.1998,
      "velocity": 118,
      "chip": "ym2612"
    },
    {
      "channel": 1,
      "note": 26,
      "start": 5.6022,
      "duration": 0.1003,
      "velocity": 118,
      "chip": "ym2612"
    },
    {
      "channel": 0,
      "note": 44,
      "start": 5.7005,
      "duration": 0.1999,
      "velocity": 118,
      "chip": "ym2612"
    },
    {
      "channel": 1,
      "note": 46,
      "start": 5.7027,
      "duration": 0.0978,
      "velocity": 118,
      "chip": "ym2612"
    },
    {
      "channel": 1,
      "note": 48,
      "start": 5.8006,
      "duration": 0.1003,
      "velocity": 118,
      "chip": "ym2612"
    },
    {
      "channel": 2,
      "note": 43,
      "start": 5.8012,
      "duration": 0.1003,
      "velocity": 111,
      "chip": "ym2612"
    },
    {
      "channel": 0,
      "note": 43,
      "start": 5.9005,
      "duration": 0.0999,
      "velocity": 118,
      "chip": "ym2612"
    },
    {
      "channel": 1,
      "note": 50,
      "start": 5.9011,
      "duration": 0.1015,
      "velocity": 127,
      "chip": "ym2612"
    },
    {
      "channel": 2,
      "note": 50,
      "start": 5.9016,
      "duration": 0.1031,
      "velocity": 127,
      "chip": "ym2612"
    },
    {
      "channel": 0,
      "note": 31,
      "start": 6.0005,
      "duration": 0.1999,
      "velocity": 118,
      "chip": "ym2612"
    },
    {
      "channel": 1,
      "note": 26,
      "start": 6.0027,
      "duration": 0.0994,
      "velocity": 118,
      "chip": "ym2612"
    },
    {
      "channel": 2,
      "note": 21,
      "start": 6.0049,
      "duration": 0.0993,
      "velocity": 111,
      "chip": "ym2612"
    },
    {
      "channel": 1,
      "note": 58,
      "start": 6.1022,
      "duration": 0.0987,
      "velocity": 118,
      "chip": "ym2612"
    },
    {
      "channel": 2,
      "note": 53,
      "start": 6.1044,
      "duration": 0.0971,
      "velocity": 111,
      "chip": "ym2612"
    },
    {
      "channel": 0,
      "note": 53,
      "start": 6.2005,
      "duration": 0.2,
      "velocity": 118,
      "chip": "ym2612"
    },
    {
      "channel": 1,
      "note": 60,
      "start": 6.2011,
      "duration": 0.0994,
      "velocity": 118,
      "chip": "ym2612"
    },
    {
      "channel": 2,
      "note": 55,
      "start": 6.2016,
      "duration": 0.0998,
      "velocity": 111,
      "chip": "ym2612"
    },
    {
      "channel": 1,
      "note": 62,
      "start": 6.3007,
      "duration": 0.102,
      "velocity": 127,
      "chip": "ym2612"
    },
    {
      "channel": 2,
      "note": 54,
      "start": 6.3014,
      "duration": 0.0321,
      "velocity": 111,
      "chip": "ym2612"
    },
    {
      "channel": 2,
      "note": 53,
      "start": 6.3334,
      "duration": 0.0167,
      "velocity": 111,
      "chip": "ym2612"
    },
    {
      "channel": 2,
      "note": 52,
      "start": 6.3501,
      "duration": 0.0167,
      "velocity": 111,
      "chip": "ym2612"
    },
    {
      "channel": 2,
      "note": 51,
      "start": 6.3668,
      "duration": 0.0167,
      "velocity": 111,
      "chip": "ym2612"
    },
    {
      "channel": 2,
      "note": 50,
      "start": 6.3834,
      "duration": 0.0198,
      "velocity": 111,
      "chip": "ym2612"
    },
    {
      "channel": 0,
      "note": 43,
      "start": 6.4007,
      "duration": 0.1997,
      "velocity": 118,
      "chip": "ym2612"
    },
    {
      "channel": 1,
      "note": 26,
      "start": 6.4028,
      "duration": 0.1997,
      "velocity": 118,
      "chip": "ym2612"
    },
    {
      "channel": 2,
      "note": 43,
      "start": 6.4034,
      "duration": 0.2981,
      "velocity": 111,
      "chip": "ym2612"
    },
    {
      "channel": 3,
      "note": 55,
      "start": 6.4056,
      "duration": 2.397,
      "velocity": 123,
      "chip": "ym2612"
    },
    {
      "channel": 0,
      "note": 43,
      "start": 6.6005,
      "duration": 0.0999,
      "velocity": 118,
      "chip": "ym2612"
    },
    {
      "channel": 1,
      "note": 55,
      "start": 6.6027,
      "duration": 0.0983,
      "velocity": 118,
      "chip": "ym2612"
    },
    {
      "channel": 0,
      "note": 50,
      "start": 6.7006,
      "duration": 0.1998,
      "velocity": 118,
      "chip": "ym2612"
    },
    {
      "channel": 1,
      "note": 53,
      "start": 6.7012,
      "duration": 0.1009,
      "velocity": 127,
      "chip": "ym2612"
    },
    {
      "channel": 2,
      "note": 44,
      "start": 6.7017,
      "duration": 0.1025,
      "velocity": 127,
      "chip": "ym2612"
    },
    {
      "channel": 1,
      "note": 26,
      "start": 6.8022,
      "duration": 0.1004,
      "velocity": 118,
      "chip": "ym2612"
    },
    {
      "channel": 2,
      "note": 21,
      "start": 6.8044,
      "duration": 0.1982,
      "velocity": 111,
      "chip": "ym2612"
    },
    {
      "channel": 0,
      "note": 53,
      "start": 6.9005,
      "duration": 0.1999,
      "velocity": 118,
      "chip": "ym2612"
    },
    {
      "channel": 1,
      "note": 50,
      "start": 6.9027,
      "duration": 0.0978,
      "velocity": 118,
      "chip": "ym2612"
    },
    {
      "channel": 1,
      "note": 53,
      "start": 7.0006,
      "duration": 0.2015,
      "velocity": 127,
      "chip": "ym2612"
    },
    {
      "channel": 2,
      "note": 43,
      "start": 7.0028,
      "duration": 0.3982,
      "velocity": 111,
      "chip": "ym2612"
    },
    {
      "channel": 0,
      "note": 43,
      "start": 7.1005,
      "duration": 0.1998,
      "velocity": 118,
      "chip": "ym2612"
    },
    {
      "channel": 1,
      "note": 26,
      "start": 7.2022,
      "duration": 0.1982,
      "velocity": 118,
      "chip": "ym2612"
    },
    {
      "channel": 0,
      "note": 44,
      "start": 7.3005,
      "duration": 0.1999,
      "velocity": 118,
      "chip": "ym2612"
    },
    {
      "channel": 1,
      "note": 52,
      "start": 7.4006,
      "duration": 0.202,
      "velocity": 127,
      "chip": "ym2612"
    },
    {
      "channel": 2,
      "note": 43,
      "start": 7.4012,
      "duration": 0.0998,
      "velocity": 111,
      "chip": "ym2612"
    },
    {
      "channel": 0,
      "note": 43,
      "start": 7.5005,
      "duration": 0.0999,
      "velocity": 118,
      "chip": "ym2612"
    },
    {
      "channel": 2,
      "note": 50,
      "start": 7.5012,
      "duration": 0.1035,
      "velocity": 127,
      "chip": "ym2612"
    },
    {
      "channel": 0,
      "note": 50,
      "start": 7.6005,
      "duration": 0.1999,
      "velocity": 118,
      "chip": "ym2612"
    },
    {
      "channel": 1,
      "note": 26,
      "start": 7.6027,
      "duration": 0.0994,
      "velocity": 118,
      "chip": "ym2612"
    },
    {
      "channel": 2,
      "note": 21,
      "start": 7.6049,
      "duration": 0.0993,
      "velocity": 111,
      "chip": "ym2612"
    },
    {
      "channel": 1,
      "note": 48,
      "start": 7.7022,
      "duration": 0.0987,
      "velocity": 118,
      "chip": "ym2612"
    },
    {
      "channel": 2,
      "note": 53,
      "start": 7.7044,
      "duration": 0.0971,
      "velocity": 111,
      "chip": "ym2612"
    },
    {
      "channel": 0,
      "note": 53,
      "start": 7.8005,
      "duration": 0.1999,
      "velocity": 118,
      "chip": "ym2612"
    },
    {
      "channel": 1,
      "note": 50,
      "start": 7.8011,
      "duration": 0.0994,
      "velocity": 118,
      "chip": "ym2612"
    },
    {
      "channel": 2,
      "note": 55,
      "start": 7.8016,
      "duration": 0.0998,
      "velocity": 111,
      "chip": "ym2612"
    },
    {
      "channel": 1,
      "note": 53,
      "start": 7.9006,
      "duration": 0.102,
      "velocity": 127,
      "chip": "ym2612"
    },
    {
      "channel": 2,
      "note": 54,
      "start": 7.9014,
      "duration": 0.0321,
      "velocity": 111,
      "chip": "ym2612"
    },
    {
      "channel": 2,
      "note": 53,
      "start": 7.9334,
      "duration": 0.0167,
      "velocity": 111,
      "chip": "ym2612"
    },
    {
      "channel": 2,
      "note": 52,
      "start": 7.9501,
      "duration": 0.0167,
      "velocity": 111,
      "chip": "ym2612"
    },
    {
      "channel": 2,
      "note": 51,
      "start": 7.9668,
      "duration": 0.0167,
      "velocity": 111,
      "chip": "ym2612"
    },
    {
      "channel": 2,
      "note": 50,
      "start": 7.9834,
      "duration": 0.0197,
      "velocity": 111,
      "chip": "ym2612"
    },
    {
      "channel": 0,
      "note": 43,
      "start": 8.0005,
      "duration": 0.1998,
      "velocity": 118,
      "chip": "ym2612"
    },
    {
      "channel": 1,
      "note": 26,
      "start": 8.0027,
      "duration": 0.1982,
      "velocity": 118,
      "chip": "ym2612"
    },
    {
      "channel": 2,
      "note": 43,
      "start": 8.0033,
      "duration": 0.2982,
      "velocity": 111,
      "chip": "ym2612"
    },
    {
      "channel": 0,
      "note": 43,
      "start": 8.2005,
      "duration": 0.0999,
      "velocity": 118,
      "chip": "ym2612"
    },
    {
      "channel": 1,
      "note": 55,
      "start": 8.2011,
      "duration": 0.0998,
      "velocity": 118,
      "chip": "ym2612"
    },
    {
      "channel": 0,
      "note": 50,
      "start": 8.3005,
      "duration": 0.1998,
      "velocity": 118,
      "chip": "ym2612"
    },
    {
      "channel": 1,
      "note": 53,
      "start": 8.3011,
      "duration": 0.101,
      "velocity": 127,
      "chip": "ym2612"
    },
    {
      "channel": 2,
      "note": 44,
      "start": 8.3016,
      "duration": 0.1025,
      "velocity": 127,
      "chip": "ym2612"
    },
    {
      "channel": 1,
      "note": 26,
      "start": 8.4022,
      "duration": 0.1003,
      "velocity": 118,
      "chip": "ym2612"
    },
    {
      "channel": 2,
      "note": 21,
      "start": 8.4044,
      "duration": 0.1982,
      "velocity": 111,
      "chip": "ym2612"
    },
    {
      "channel": 0,
      "note": 53,
      "start": 8.5005,
      "duration": 0.1999,
      "velocity": 118,
      "chip": "ym2612"
    },
    {
      "channel": 1,
      "note": 50,
      "start": 8.5027,
      "duration": 0.0978,
      "velocity": 118,
      "chip": "ym2612"
    },
    {
      "channel": 1,
      "note": 53,
      "start": 8.6006,
      "duration": 0.2015,
      "velocity": 127,
      "chip": "ym2612"
    },
    {
      "channel": 2,
      "note": 43,
      "start": 8.6028,
      "duration": 0.3982,
      "velocity": 111,
      "chip": "ym2612"
    },
    {
      "channel": 0,
      "note": 43,
      "start": 8.7005,
      "duration": 0.1999,
      "velocity": 118,
      "chip": "ym2612"
    },
    {
      "channel": 1,
      "note": 26,
      "start": 8.8022,
      "duration": 0.1983,
      "velocity": 118,
      "chip": "ym2612"
    },
    {
      "channel": 3,
      "note": 55,
      "start": 8.8028,
      "duration": 0.0006,
      "velocity": 123,
      "chip": "ym2612"
    },
    {
      "channel": 3,
      "note": 55,
      "start": 8.8034,
      "duration": 0.0301,
      "velocity": 123,
      "chip": "ym2612"
    },
    {
      "channel": 3,
      "note": 56,
      "start": 8.8335,
      "duration": 0.0167,
      "velocity": 123,
      "chip": "ym2612"
    },
    {
      "channel": 3,
      "note": 57,
      "start": 8.8502,
      "duration": 0.0166,
      "velocity": 123,
      "chip": "ym2612"
    },
    {
      "channel": 3,
      "note": 58,
      "start": 8.8668,
      "duration": 0.0167,
      "velocity": 123,
      "chip": "ym2612"
    },
    {
      "channel": 3,
      "note": 58,
      "start": 8.8835,
      "duration": 0.0195,
      "velocity": 123,
      "chip": "ym2612"
    },
    {
      "channel": 0,
      "note": 44,
      "start": 8.9005,
      "duration": 0.1999,
      "velocity": 118,
      "chip": "ym2612"
    },
    {
      "channel": 3,
      "note": 59,
      "start": 8.903,
      "duration": 0.0305,
      "velocity": 123,
      "chip": "ym2612"
    },
    {
      "channel": 3,
      "note": 60,
      "start": 8.9335,
      "duration": 0.0167,
      "velocity": 123,
      "chip": "ym2612"
    },
    {
      "channel": 3,
      "note": 61,
      "start": 8.9502,
      "duration": 0.0167,
      "velocity": 123,
      "chip": "ym2612"
    },
    {
      "channel": 3,
      "note": 61,
      "start": 8.9669,
      "duration": 0.6368,
      "velocity": 123,
      "chip": "ym2612"
    },
    {
      "channel": 1,
      "note": 52,
      "start": 9.0006,
      "duration": 0.202,
      "velocity": 127,
      "chip": "ym2612"
    },
    {
      "channel": 2,
      "note": 43,
      "start": 9.0012,
      "duration": 0.0998,
      "velocity": 111,
      "chip": "ym2612"
    },
    {
      "channel": 0,
      "note": 43,
      "start": 9.1005,
      "duration": 0.0999,
      "velocity": 118,
      "chip": "ym2612"
    },
    {
      "channel": 2,
      "note": 50,
      "start": 9.1012,
      "duration": 0.1035,
      "velocity": 127,
      "chip": "ym2612"
    },
    {
      "channel": 0,
      "note": 50,
      "start": 9.2005,
      "duration": 0.1999,
      "velocity": 118,
      "chip": "ym2612"
    },
    {
      "channel": 1,
      "note": 26,
      "start": 9.2027,
      "duration": 0.0994,
      "velocity": 118,
      "chip": "ym2612"
    },
    {
      "channel": 2,
      "note": 21,
      "start": 9.2049,
      "duration": 0.0993,
      "velocity": 111,
      "chip": "ym2612"
    },
    {
      "channel": 1,
      "note": 48,
      "start": 9.3022,
      "duration": 0.0987,
      "velocity": 118,
      "chip": "ym2612"
    },
    {
      "channel": 2,
      "note": 53,
      "start": 9.3044,
      "duration": 0.0971,
      "velocity": 111,
      "chip": "ym2612"
    },
    {
      "channel": 0,
      "note": 53,
      "start": 9.4005,
      "duration": 0.1999,
      "velocity": 118,
      "chip": "ym2612"
    },
    {
      "channel": 1,
      "note": 50,
      "start": 9.4011,
      "duration": 0.0994,
      "velocity": 118,
      "chip": "ym2612"
    },
    {
      "channel": 2,
      "note": 55,
      "start": 9.4017,
      "duration": 0.0997,
      "velocity": 111,
      "chip": "ym2612"
    },
    {
      "channel": 1,
      "note": 53,
      "start": 9.5006,
      "duration": 0.102,
      "velocity": 127,
      "chip": "ym2612"
    },
    {
      "channel": 2,
      "note": 54,
      "start": 9.5014,
      "duration": 0.0321,
      "velocity": 111,
      "chip": "ym2612"
    },
    {
      "channel": 2,
      "note": 53,
      "start": 9.5334,
      "duration": 0.0167,
      "velocity": 111,
      "chip": "ym2612"
    },
    {
      "channel": 2,
      "note": 52,
      "start": 9.5501,
      "duration": 0.0167,
      "velocity": 111,
      "chip": "ym2612"
    },
    {
      "channel": 2,
      "note": 51,
      "start": 9.5668,
      "duration": 0.0167,
      "velocity": 111,
      "chip": "ym2612"
    },
    {
      "channel": 2,
      "note": 50,
      "start": 9.5834,
      "duration": 0.0197,
      "velocity": 111,
      "chip": "ym2612"
    },
    {
      "channel": 0,
      "note": 43,
      "start": 9.6006,
      "duration": 0.1998,
      "velocity": 118,
      "chip": "ym2612"
    },
    {
      "channel": 1,
      "note": 26,
      "start": 9.6028,
      "duration": 0.1981,
      "velocity": 118,
      "chip": "ym2612"
    },
    {
      "channel": 2,
      "note": 43,
      "start": 9.6033,
      "duration": 0.2982,
      "velocity": 111,
      "chip": "ym2612"
    },
    {
      "channel": 3,
      "note": 61,
      "start": 9.6038,
      "duration": 0.0006,
      "velocity": 123,
      "chip": "ym2612"
    },
    {
      "channel": 3,
      "note": 60,
      "start": 9.6044,
      "duration": 0.0291,
      "velocity": 123,
      "chip": "ym2612"
    },
    {
      "channel": 3,
      "note": 60,
      "start": 9.6335,
      "duration": 0.0167,
      "velocity": 123,
      "chip": "ym2612"
    },
    {
      "channel": 3,
      "note": 59,
      "start": 9.6502,
      "duration": 0.0167,
      "velocity": 123,
      "chip": "ym2612"
    },
    {
      "channel": 3,
      "note": 58,
      "start": 9.6669,
      "duration": 0.0167,
      "velocity": 123,
      "chip": "ym2612"
    },
    {
      "channel": 3,
      "note": 58,
      "start": 9.6835,
      "duration": 3.1203,
      "velocity": 123,
      "chip": "ym2612"
    },
    {
      "channel": 0,
      "note": 43,
      "start": 9.8005,
      "duration": 0.0999,
      "velocity": 118,
      "chip": "ym2612"
    },
    {
      "channel": 1,
      "note": 55,
      "start": 9.8011,
      "duration": 0.0998,
      "velocity": 118,
      "chip": "ym2612"
    },
    {
      "channel": 0,
      "note": 50,
      "start": 9.9005,
      "duration": 0.1998,
      "velocity": 118,
      "chip": "ym2612"
    },
    {
      "channel": 1,
      "note": 53,
      "start": 9.9011,
      "duration": 0.101,
      "velocity": 127,
      "chip": "ym2612"
    },
    {
      "channel": 2,
      "note": 44,
      "start": 9.9017,
      "duration": 0.1025,
      "velocity": 127,
      "chip": "ym2612"
    },
    {
      "channel": 1,
      "note": 26,
      "start": 10.0022,
      "duration": 0.1003,
      "velocity": 118,
      "chip": "ym2612"
    },
    {
      "channel": 2,
      "note": 21,
      "start": 10.0044,
      "duration": 0.1982,
      "velocity": 111,
      "chip": "ym2612"
    },
    {
      "channel": 0,
      "note": 53,
      "start": 10.1005,
      "duration": 0.1999,
      "velocity": 118,
      "chip": "ym2612"
    },
    {
      "channel": 1,
      "note": 50,
      "start": 10.1027,
      "duration": 0.0978,
      "velocity": 118,
      "chip": "ym2612"
    },
    {
      "channel": 1,
      "note": 53,
      "start": 10.2006,
      "duration": 0.2015,
      "velocity": 127,
      "chip": "ym2612"
    },
    {
      "channel": 2,
      "note": 43,
      "start": 10.2028,
      "duration": 0.3977,
      "velocity": 111,
      "chip": "ym2612"
    },
    {
      "channel": 0,
      "note": 43,
      "start": 10.3005,
      "duration": 0.1998,
      "velocity": 118,
      "chip": "ym2612"
    },
    {
      "channel": 1,
      "note": 26,
      "start": 10.4022,
      "duration": 0.1003,
      "velocity": 118,
      "chip": "ym2612"
    },
    {
      "channel": 0,
      "note": 44,
      "start": 10.5005,
      "duration": 0.1999,
      "velocity": 118,
      "chip": "ym2612"
    },
    {
      "channel": 1,
      "note": 52,
      "start": 10.5027,
      "duration": 0.1982,
      "velocity": 118,
      "chip": "ym2612"
    },
    {
      "channel": 2,
      "note": 43,
      "start": 10.6007,
      "duration": 0.1008,
      "velocity": 111,
      "chip": "ym2612"
    },
    {
      "channel": 0,
      "note": 43,
      "start": 10.7005,
      "duration": 0.0999,
      "velocity": 118,
      "chip": "ym2612"
    },
    {
      "channel": 1,
      "note": 48,
      "start": 10.7011,
      "duration": 0.1015,
      "velocity": 127,
      "chip": "ym2612"
    },
    {
      "channel": 2,
      "note": 50,
      "start": 10.7016,
      "duration": 0.1031,
      "velocity": 127,
      "chip": "ym2612"
    },
    {
      "channel": 0,
      "note": 50,
      "start": 10.8005,
      "duration": 0.1999,
      "velocity": 118,
      "chip": "ym2612"
    },
    {
      "channel": 1,
      "note": 26,
      "start": 10.8027,
      "duration": 0.0994,
      "velocity": 118,
      "chip": "ym2612"
    },
    {
      "channel": 2,
      "note": 21,
      "start": 10.8049,
      "duration": 0.0993,
      "velocity": 111,
      "chip": "ym2612"
    },
    {
      "channel": 1,
      "note": 46,
      "start": 10.9022,
      "duration": 0.0987,
      "velocity": 118,
      "chip": "ym2612"
    },
    {
      "channel": 2,
      "note": 53,
      "start": 10.9044,
      "duration": 0.0971,
      "velocity": 111,
      "chip": "ym2612"
    },
    {
      "channel": 0,
      "note": 53,
      "start": 11.0005,
      "duration": 0.1999,
      "velocity": 118,
      "chip": "ym2612"
    },
    {
      "channel": 1,
      "note": 48,
      "start": 11.0011,
      "duration": 0.0994,
      "velocity": 118,
      "chip": "ym2612"
    },
    {
      "channel": 2,
      "note": 55,
      "start": 11.0017,
      "duration": 0.0997,
      "velocity": 111,
      "chip": "ym2612"
    },
    {
      "channel": 1,
      "note": 50,
      "start": 11.1006,
      "duration": 0.102,
      "velocity": 127,
      "chip": "ym2612"
    },
    {
      "channel": 2,
      "note": 54,
      "start": 11.1014,
      "duration": 0.0321,
      "velocity": 111,
      "chip": "ym2612"
    },
    {
      "channel": 2,
      "note": 53,
      "start": 11.1334,
      "duration": 0.0167,
      "velocity": 111,
      "chip": "ym2612"
    },
    {
      "channel": 2,
      "note": 52,
      "start": 11.1501,
      "duration": 0.0167,
      "velocity": 111,
      "chip": "ym2612"
    },
    {
      "channel": 2,
      "note": 51,
      "start": 11.1668,
      "duration": 0.0167,
      "velocity": 111,
      "chip": "ym2612"
    },
    {
      "channel": 2,
      "note": 50,
      "start": 11.1834,
      "duration": 0.0197,
      "velocity": 111,
      "chip": "ym2612"
    },
    {
      "channel": 0,
      "note": 43,
      "start": 11.2005,
      "duration": 0.1998,
      "velocity": 118,
      "chip": "ym2612"
    },
    {
      "channel": 1,
      "note": 26,
      "start": 11.2027,
      "duration": 0.1982,
      "velocity": 118,
      "chip": "ym2612"
    },
    {
      "channel": 2,
      "note": 43,
      "start": 11.2033,
      "duration": 0.2982,
      "velocity": 111,
      "chip": "ym2612"
    },
    {
      "channel": 0,
      "note": 43,
      "start": 11.4005,
      "duration": 0.0999,
      "velocity": 118,
      "chip": "ym2612"
    },
    {
      "channel": 1,
      "note": 55,
      "start": 11.401,
      "duration": 0.0999,
      "velocity": 118,
      "chip": "ym2612"
    },
    {
      "channel": 0,
      "note": 50,
      "start": 11.5005,
      "duration": 0.1999,
      "velocity": 118,
      "chip": "ym2612"
    },
    {
      "channel": 1,
      "note": 53,
      "start": 11.5011,
      "duration": 0.101,
      "velocity": 127,
      "chip": "ym2612"
    },
    {
      "channel": 2,
      "note": 44,
      "start": 11.5016,
      "duration": 0.1025,
      "velocity": 127,
      "chip": "ym2612"
    },
    {
      "channel": 1,
      "note": 26,
      "start": 11.6022,
      "duration": 0.1004,
      "velocity": 118,
      "chip": "ym2612"
    },
    {
      "channel": 2,
      "note": 21,
      "start": 11.6044,
      "duration": 0.1982,
      "velocity": 111,
      "chip": "ym2612"
    },
    {
      "channel": 0,
      "note": 53,
      "start": 11.7005,
      "duration": 0.1999,
      "velocity": 118,
      "chip": "ym2612"
    },
    {
      "channel": 1,
      "note": 50,
      "start": 11.7027,
      "duration": 0.0978,
      "velocity": 118,
      "chip": "ym2612"
    },
    {
      "channel": 1,
      "note": 53,
      "start": 11.8006,
      "duration": 0.2014,
      "velocity": 127,
      "chip": "ym2612"
    },
    {
      "channel": 2,
      "note": 43,
      "start": 11.8028,
      "duration": 0.3982,
      "velocity": 111,
      "chip": "ym2612"
    },
    {
      "channel": 0,
      "note": 43,
      "start": 11.9005,
      "duration": 0.1998,
      "velocity": 118,
      "chip": "ym2612"
    },
    {
      "channel": 1,
      "note": 26,
      "start": 12.0022,
      "duration": 0.1003,
      "velocity": 118,
      "chip": "ym2612"
    },
    {
      "channel": 0,
      "note": 44,
      "start": 12.1005,
      "duration": 0.1999,
      "velocity": 118,
      "chip": "ym2612"
    },
    {
      "channel": 1,
      "note": 46,
      "start": 12.1027,
      "duration": 0.0978,
      "velocity": 118,
      "chip": "ym2612"
    },
    {
      "channel": 1,
      "note": 48,
      "start": 12.2006,
      "duration": 0.1003,
      "velocity": 118,
      "chip": "ym2612"
    },
    {
      "channel": 2,
      "note": 43,
      "start": 12.2012,
      "duration": 0.1003,
      "velocity": 111,
      "chip": "ym2612"
    },
    {
      "channel": 0,
      "note": 43,
      "start": 12.3005,
      "duration": 0.0999,
      "velocity": 118,
      "chip": "ym2612"
    },
    {
      "channel": 1,
      "note": 50,
      "start": 12.3011,
      "duration": 0.1015,
      "velocity": 127,
      "chip": "ym2612"
    },
    {
      "channel": 2,
      "note": 50,
      "start": 12.3016,
      "duration": 0.1031,
      "velocity": 127,
      "chip": "ym2612"
    },
    {
      "channel": 0,
      "note": 31,
      "start": 12.4005,
      "duration": 0.1999,
      "velocity": 118,
      "chip": "ym2612"
    },
    {
      "channel": 1,
      "note": 26,
      "start": 12.4027,
      "duration": 0.0994,
      "velocity": 118,
      "chip": "ym2612"
    },
    {
      "channel": 2,
      "note": 21,
      "start": 12.4049,
      "duration": 0.0993,
      "velocity": 111,
      "chip": "ym2612"
    },
    {
      "channel": 1,
      "note": 58,
      "start": 12.5022,
      "duration": 0.0987,
      "velocity": 118,
      "chip": "ym2612"
    },
    {
      "channel": 2,
      "note": 53,
      "start": 12.5044,
      "duration": 0.0971,
      "velocity": 111,
      "chip": "ym2612"
    },
    {
      "channel": 0,
      "note": 53,
      "start": 12.6005,
      "duration": 0.2,
      "velocity": 118,
      "chip": "ym2612"
    },
    {
      "channel": 1,
      "note": 60,
      "start": 12.6011,
      "duration": 0.0994,
      "velocity": 118,
      "chip": "ym2612"
    },
    {
      "channel": 2,
      "note": 55,
      "start": 12.6016,
      "duration": 0.0998,
      "velocity": 111,
      "chip": "ym2612"
    },
    {
      "channel": 1,
      "note": 62,
      "start": 12.7007,
      "duration": 0.102,
      "velocity": 127,
      "chip": "ym2612"
    },
    {
      "channel": 2,
      "note": 54,
      "start": 12.7014,
      "duration": 0.0321,
      "velocity": 111,
      "chip": "ym2612"
    },
    {
      "channel": 2,
      "note": 53,
      "start": 12.7334,
      "duration": 0.0167,
      "velocity": 111,
      "chip": "ym2612"
    },
    {
      "channel": 2,
      "note": 52,
      "start": 12.7501,
      "duration": 0.0167,
      "velocity": 111,
      "chip": "ym2612"
    },
    {
      "channel": 2,
      "note": 51,
      "start": 12.7668,
      "duration": 0.0167,
      "velocity": 111,
      "chip": "ym2612"
    },
    {
      "channel": 2,
      "note": 50,
      "start": 12.7834,
      "duration": 0.0198,
      "velocity": 111,
      "chip": "ym2612"
    },
    {
      "channel": 0,
      "note": 43,
      "start": 12.8007,
      "duration": 0.1996,
      "velocity": 118,
      "chip": "ym2612"
    },
    {
      "channel": 1,
      "note": 26,
      "start": 12.8028,
      "duration": 0.1997,
      "velocity": 118,
      "chip": "ym2612"
    },
    {
      "channel": 2,
      "note": 43,
      "start": 12.8034,
      "duration": 0.298,
      "velocity": 111,
      "chip": "ym2612"
    },
    {
      "channel": 3,
      "note": 58,
      "start": 12.804,
      "duration": 0.0006,
      "velocity": 123,
      "chip": "ym2612"
    },
    {
      "channel": 3,
      "note": 57,
      "start": 12.8046,
      "duration": 0.0289,
      "velocity": 123,
      "chip": "ym2612"
    },
    {
      "channel": 3,
      "note": 56,
      "start": 12.8335,
      "duration": 0.0167,
      "velocity": 123,
      "chip": "ym2612"
    },
    {
      "channel": 3,
      "note": 56,
      "start": 12.8502,
      "duration": 0.0166,
      "velocity": 123,
      "chip": "ym2612"
    },
    {
      "channel": 3,
      "note": 55,
      "start": 12.8668,
      "duration": 0.0167,
      "velocity": 123,
      "chip": "ym2612"
    },
    {
      "channel": 3,
      "note": 55,
      "start": 12.8835,
      "duration": 3.1201,
      "velocity": 123,
      "chip": "ym2612"
    },
    {
      "channel": 0,
      "note": 43,
      "start": 13.0005,
      "duration": 0.0999,
      "velocity": 118,
      "chip": "ym2612"
    },
    {
      "channel": 1,
      "note": 55,
      "start": 13.0027,
      "duration": 0.0982,
      "velocity": 118,
      "chip": "ym2612"
    },
    {
      "channel": 0,
      "note": 50,
      "start": 13.1005,
      "duration": 0.1999,
      "velocity": 118,
      "chip": "ym2612"
    },
    {
      "channel": 1,
      "note": 53,
      "start": 13.1011,
      "duration": 0.101,
      "velocity": 127,
      "chip": "ym2612"
    },
    {
      "channel": 2,
      "note": 44,
      "start": 13.1017,
      "duration": 0.1025,
      "velocity": 127,
      "chip": "ym2612"
    },
    {
      "channel": 1,
      "note": 26,
      "start": 13.2022,
      "duration": 0.1004,
      "velocity": 118,
      "chip": "ym2612"
    },
    {
      "channel": 2,
      "note": 21,
      "start": 13.2044,
      "duration": 0.1982,
      "velocity": 111,
      "chip": "ym2612"
    },
    {
      "channel": 0,
      "note": 53,
      "start": 13.3005,
      "duration": 0.1999,
      "velocity": 118,
      "chip": "ym2612"
    },
    {
      "channel": 1,
      "note": 50,
      "start": 13.3027,
      "duration": 0.0978,
      "velocity": 118,
      "chip": "ym2612"
    },
    {
      "channel": 1,
      "note": 53,
      "start": 13.4006,
      "duration": 0.2014,
      "velocity": 127,
      "chip": "ym2612"
    },
    {
      "channel": 2,
      "note": 43,
      "start": 13.4028,
      "duration": 0.3982,
      "velocity": 111,
      "chip": "ym2612"
    },
    {
      "channel": 0,
      "note": 43,
      "start": 13.5005,
      "duration": 0.1998,
      "velocity": 118,
      "chip": "ym2612"
    },
    {
      "channel": 1,
      "note": 26,
      "start": 13.6022,
      "duration": 0.1982,
      "velocity": 118,
      "chip": "ym2612"
    },
    {
      "channel": 0,
      "note": 44,
      "start": 13.7005,
      "duration": 0.1998,
      "velocity": 118,
      "chip": "ym2612"
    },
    {
      "channel": 1,
      "note": 52,
      "start": 13.8006,
      "duration": 0.202,
      "velocity": 127,
      "chip": "ym2612"
    },
    {
      "channel": 2,
      "note": 43,
      "start": 13.8012,
      "duration": 0.0998,
      "velocity": 111,
      "chip": "ym2612"
    },
    {
      "channel": 0,
      "note": 43,
      "start": 13.9005,
      "duration": 0.0999,
      "velocity": 118,
      "chip": "ym2612"
    },
    {
      "channel": 2,
      "note": 50,
      "start": 13.9012,
      "duration": 0.1035,
      "velocity": 127,
      "chip": "ym2612"
    },
    {
      "channel": 0,
      "note": 50,
      "start": 14.0005,
      "duration": 0.1999,
      "velocity": 118,
      "chip": "ym2612"
    },
    {
      "channel": 1,
      "note": 26,
      "start": 14.0027,
      "duration": 0.0994,
      "velocity": 118,
      "chip": "ym2612"
    },
    {
      "channel": 2,
      "note": 21,
      "start": 14.0049,
      "duration": 0.0993,
      "velocity": 111,
      "chip": "ym2612"
    },
    {
      "channel": 1,
      "note": 48,
      "start": 14.1022,
      "duration": 0.0987,
      "velocity": 118,
      "chip": "ym2612"
    },
    {
      "channel": 2,
      "note": 53,
      "start": 14.1044,
      "duration": 0.0971,
      "velocity": 111,
      "chip": "ym2612"
    },
    {
      "channel": 0,
      "note": 53,
      "start": 14.2005,
      "duration": 0.1998,
      "velocity": 118,
      "chip": "ym2612"
    },
    {
      "channel": 1,
      "note": 50,
      "start": 14.2011,
      "duration": 0.0993,
      "velocity": 118,
      "chip": "ym2612"
    },
    {
      "channel": 2,
      "note": 55,
      "start": 14.2016,
      "duration": 0.0998,
      "velocity": 111,
      "chip": "ym2612"
    },
    {
      "channel": 1,
      "note": 53,
      "start": 14.3006,
      "duration": 0.1019,
      "velocity": 127,
      "chip": "ym2612"
    },
    {
      "channel": 2,
      "note": 54,
      "start": 14.3014,
      "duration": 0.0321,
      "velocity": 111,
      "chip": "ym2612"
    },
    {
      "channel": 2,
      "note": 53,
      "start": 14.3334,
      "duration": 0.0167,
      "velocity": 111,
      "chip": "ym2612"
    },
    {
      "channel": 2,
      "note": 52,
      "start": 14.3501,
      "duration": 0.0167,
      "velocity": 111,
      "chip": "ym2612"
    },
    {
      "channel": 2,
      "note": 51,
      "start": 14.3668,
      "duration": 0.0167,
      "velocity": 111,
      "chip": "ym2612"
    },
    {
      "channel": 2,
      "note": 50,
      "start": 14.3834,
      "duration": 0.0197,
      "velocity": 111,
      "chip": "ym2612"
    },
    {
      "channel": 0,
      "note": 43,
      "start": 14.4005,
      "duration": 0.1998,
      "velocity": 118,
      "chip": "ym2612"
    },
    {
      "channel": 1,
      "note": 26,
      "start": 14.4027,
      "duration": 0.1982,
      "velocity": 118,
      "chip": "ym2612"
    },
    {
      "channel": 2,
      "note": 43,
      "start": 14.4033,
      "duration": 0.2982,
      "velocity": 111,
      "chip": "ym2612"
    },
    {
      "channel": 0,
      "note": 43,
      "start": 14.6005,
      "duration": 0.0999,
      "velocity": 118,
      "chip": "ym2612"
    },
    {
      "channel": 1,
      "note": 55,
      "start": 14.6011,
      "duration": 0.0998,
      "velocity": 118,
      "chip": "ym2612"
    },
    {
      "channel": 0,
      "note": 50,
      "start": 14.7005,
      "duration": 0.1998,
      "velocity": 118,
      "chip": "ym2612"
    },
    {
      "channel": 1,
      "note": 53,
      "start": 14.7011,
      "duration": 0.101,
      "velocity": 127,
      "chip": "ym2612"
    },
    {
      "channel": 2,
      "note": 44,
      "start": 14.7017,
      "duration": 0.1025,
      "velocity": 127,
      "chip": "ym2612"
    },
    {
      "channel": 1,
      "note": 26,
      "start": 14.8022,
      "duration": 0.1003,
      "velocity": 118,
      "chip": "ym2612"
    },
    {
      "channel": 2,
      "note": 21,
      "start": 14.8044,
      "duration": 0.1982,
      "velocity": 111,
      "chip": "ym2612"
    },
    {
      "channel": 0,
      "note": 53,
      "start": 14.9005,
      "duration": 0.1999,
      "velocity": 118,
      "chip": "ym2612"
    },
    {
      "channel": 1,
      "note": 50,
      "start": 14.9027,
      "duration": 0.0978,
      "velocity": 118,
      "chip": "ym2612"
    },
    {
      "channel": 1,
      "note": 53,
      "start": 15.0006,
      "duration": 0.2015,
      "velocity": 127,
      "chip": "ym2612"
    },
    {
      "channel": 2,
      "note": 43,
      "start": 15.0028,
      "duration": 0.3982,
      "velocity": 111,
      "chip": "ym2612"
    },
    {
      "channel": 0,
      "note": 43,
      "start": 15.1005,
      "duration": 0.1998,
      "velocity": 118,
      "chip": "ym2612"
    },
    {
      "channel": 1,
      "note": 26,
      "start": 15.2022,
      "duration": 0.1982,
      "velocity": 118,
      "chip": "ym2612"
    },
    {
      "channel": 0,
      "note": 44,
      "start": 15.3005,
      "duration": 0.1999,
      "velocity": 118,
      "chip": "ym2612"
    },
    {
      "channel": 1,
      "note": 52,
      "start": 15.4006,
      "duration": 0.202,
      "velocity": 127,
      "chip": "ym2612"
    },
    {
      "channel": 2,
      "note": 43,
      "start": 15.4012,
      "duration": 0.0998,
      "velocity": 111,
      "chip": "ym2612"
    },
    {
      "channel": 0,
      "note": 43,
      "start": 15.5005,
      "duration": 0.0999,
      "velocity": 118,
      "chip": "ym2612"
    },
    {
      "channel": 2,
      "note": 50,
      "start": 15.5012,
      "duration": 0.1035,
      "velocity": 127,
      "chip": "ym2612"
    },
    {
      "channel": 0,
      "note": 50,
      "start": 15.6005,
      "duration": 0.1999,
      "velocity": 118,
      "chip": "ym2612"
    },
    {
      "channel": 1,
      "note": 26,
      "start": 15.6027,
      "duration": 0.0994,
      "velocity": 118,
      "chip": "ym2612"
    },
    {
      "channel": 2,
      "note": 21,
      "start": 15.6049,
      "duration": 0.0993,
      "velocity": 111,
      "chip": "ym2612"
    },
    {
      "channel": 1,
      "note": 48,
      "start": 15.7022,
      "duration": 0.0987,
      "velocity": 118,
      "chip": "ym2612"
    },
    {
      "channel": 2,
      "note": 53,
      "start": 15.7044,
      "duration": 0.0971,
      "velocity": 111,
      "chip": "ym2612"
    },
    {
      "channel": 0,
      "note": 53,
      "start": 15.8005,
      "duration": 0.1999,
      "velocity": 118,
      "chip": "ym2612"
    },
    {
      "channel": 1,
      "note": 50,
      "start": 15.8011,
      "duration": 0.0994,
      "velocity": 118,
      "chip": "ym2612"
    },
    {
      "channel": 2,
      "note": 55,
      "start": 15.8017,
      "duration": 0.0997,
      "velocity": 111,
      "chip": "ym2612"
    },
    {
      "channel": 1,
      "note": 53,
      "start": 15.9006,
      "duration": 0.102,
      "velocity": 127,
      "chip": "ym2612"
    },
    {
      "channel": 2,
      "note": 54,
      "start": 15.9014,
      "duration": 0.0321,
      "velocity": 111,
      "chip": "ym2612"
    },
    {
      "channel": 2,
      "note": 53,
      "start": 15.9334,
      "duration": 0.0167,
      "velocity": 111,
      "chip": "ym2612"
    },
    {
      "channel": 2,
      "note": 52,
      "start": 15.9501,
      "duration": 0.0167,
      "velocity": 111,
      "chip": "ym2612"
    },
    {
      "channel": 2,
      "note": 51,
      "start": 15.9668,
      "duration": 0.0167,
      "velocity": 111,
      "chip": "ym2612"
    },
    {
      "channel": 2,
      "note": 50,
      "start": 15.9834,
      "duration": 0.0197,
      "velocity": 111,
      "chip": "ym2612"
    },
    {
      "channel": 0,
      "note": 43,
      "start": 16.0006,
      "duration": 0.1998,
      "velocity": 118,
      "chip": "ym2612"
    },
    {
      "channel": 1,
      "note": 26,
      "start": 16.0028,
      "duration": 0.1981,
      "velocity": 118,
      "chip": "ym2612"
    },
    {
      "channel": 2,
      "note": 43,
      "start": 16.0033,
      "duration": 0.2982,
      "velocity": 111,
      "chip": "ym2612"
    },
    {
      "channel": 3,
      "note": 55,
      "start": 16.0038,
      "duration": 0.0006,
      "velocity": 123,
      "chip": "ym2612"
    },
    {
      "channel": 3,
      "note": 55,
      "start": 16.0044,
      "duration": 0.0291,
      "velocity": 123,
      "chip": "ym2612"
    },
    {
      "channel": 3,
      "note": 54,
      "start": 16.0335,
      "duration": 0.0167,
      "velocity": 123,
      "chip": "ym2612"
    },
    {
      "channel": 3,
      "note": 54,
      "start": 16.0502,
      "duration": 0.0167,
      "velocity": 123,
      "chip": "ym2612"
    },
    {
      "channel": 3,
      "note": 53,
      "start": 16.0669,
      "duration": 0.0167,
      "velocity": 123,
      "chip": "ym2612"
    },
    {
      "channel": 3,
      "note": 52,
      "start": 16.0835,
      "duration": 0.019,
      "velocity": 123,
      "chip": "ym2612"
    },
    {
      "channel": 3,
      "note": 52,
      "start": 16.1026,
      "duration": 0.031,
      "velocity": 123,
      "chip": "ym2612"
    },
    {
      "channel": 3,
      "note": 51,
      "start": 16.1335,
      "duration": 0.0167,
      "velocity": 123,
      "chip": "ym2612"
    },
    {
      "channel": 3,
      "note": 51,
      "start": 16.1502,
      "duration": 0.0167,
      "velocity": 123,
      "chip": "ym2612"
    },
    {
      "channel": 3,
      "note": 50,
      "start": 16.1669,
      "duration": 0.0167,
      "velocity": 123,
      "chip": "ym2612"
    },
    {
      "channel": 3,
      "note": 49,
      "start": 16.1835,
      "duration": 0.0183,
      "velocity": 123,
      "chip": "ym2612"
    },
    {
      "channel": 0,
      "note": 43,
      "start": 16.2005,
      "duration": 0.0999,
      "velocity": 118,
      "chip": "ym2612"
    },
    {
      "channel": 1,
      "note": 55,
      "start": 16.201,
      "duration": 0.0999,
      "velocity": 118,
      "chip": "ym2612"
    },
    {
      "channel": 3,
      "note": 49,
      "start": 16.2018,
      "duration": 3.0021,
      "velocity": 123,
      "chip": "ym2612"
    },
    {
      "channel": 0,
      "note": 50,
      "start": 16.3005,
      "duration": 0.1998,
      "velocity": 118,
      "chip": "ym2612"
    },
    {
      "channel": 1,
      "note": 53,
      "start": 16.3011,
      "duration": 0.101,
      "velocity": 127,
      "chip": "ym2612"
    },
    {
      "channel": 2,
      "note": 44,
      "start": 16.3016,
      "duration": 0.1025,
      "velocity": 127,
      "chip": "ym2612"
    },
    {
      "channel": 1,
      "note": 26,
      "start": 16.4022,
      "duration": 0.1003,
      "velocity": 118,
      "chip": "ym2612"
    },
    {
      "channel": 2,
      "note": 21,
      "start": 16.4044,
      "duration": 0.1982,
      "velocity": 111,
      "chip": "ym2612"
    },
    {
      "channel": 0,
      "note": 53,
      "start": 16.5005,
      "duration": 0.1999,
      "velocity": 118,
      "chip": "ym2612"
    },
    {
      "channel": 1,
      "note": 50,
      "start": 16.5027,
      "duration": 0.0978,
      "velocity": 118,
      "chip": "ym2612"
    },
    {
      "channel": 1,
      "note": 53,
      "start": 16.6006,
      "duration": 0.2014,
      "velocity": 127,
      "chip": "ym2612"
    },
    {
      "channel": 2,
      "note": 43,
      "start": 16.6028,
      "duration": 0.3977,
      "velocity": 111,
      "chip": "ym2612"
    },
    {
      "channel": 0,
      "note": 43,
      "start": 16.7005,
      "duration": 0.1998,
      "velocity": 118,
      "chip": "ym2612"
    },
    {
      "channel": 1,
      "note": 26,
      "start": 16.8022,
      "duration": 0.1003,
      "velocity": 118,
      "chip": "ym2612"
    },
    {
      "channel": 0,
      "note": 44,
      "start": 16.9005,
      "duration": 0.1999,
      "velocity": 118,
      "chip": "ym2612"
    },
    {
      "channel": 1,
      "note": 52,
      "start": 16.9027,
      "duration": 0.1982,
      "velocity": 118,
      "chip": "ym2612"
    },
    {
      "channel": 2,
      "note": 43,
      "start": 17.0007,
      "duration": 0.1008,
      "velocity": 111,
      "chip": "ym2612"
    },
    {
      "channel": 0,
      "note": 43,
      "start": 17.1005,
      "duration": 0.0998,
      "velocity": 118,
      "chip": "ym2612"
    },
    {
      "channel": 1,
      "note": 48,
      "start": 17.1011,
      "duration": 0.1014,
      "velocity": 127,
      "chip": "ym2612"
    },
    {
      "channel": 2,
      "note": 50,
      "start": 17.1016,
      "duration": 0.1031,
      "velocity": 127,
      "chip": "ym2612"
    },
    {
      "channel": 0,
      "note": 50,
      "start": 17.2005,
      "duration": 0.1999,
      "velocity": 118,
      "chip": "ym2612"
    },
    {
      "channel": 1,
      "note": 26,
      "start": 17.2027,
      "duration": 0.0994,
      "velocity": 118,
      "chip": "ym2612"
    },
    {
      "channel": 2,
      "note": 21,
      "start": 17.2048,
      "duration": 0.0994,
      "velocity": 111,
      "chip": "ym2612"
    },
    {
      "channel": 1,
      "note": 46,
      "start": 17.3022,
      "duration": 0.0987,
      "velocity": 118,
      "chip": "ym2612"
    },
    {
      "channel": 2,
      "note": 53,
      "start": 17.3044,
      "duration": 0.0971,
      "velocity": 111,
      "chip": "ym2612"
    },
    {
      "channel": 0,
      "note": 53,
      "start": 17.4005,
      "duration": 0.1998,
      "velocity": 118,
      "chip": "ym2612"
    },
    {
      "channel": 1,
      "note": 48,
      "start": 17.4011,
      "duration": 0.0993,
      "velocity": 118,
      "chip": "ym2612"
    },
    {
      "channel": 2,
      "note": 55,
      "start": 17.4016,
      "duration": 0.0998,
      "velocity": 111,
      "chip": "ym2612"
    },
    {
      "channel": 1,
      "note": 50,
      "start": 17.5006,
      "duration": 0.1019,
      "velocity": 127,
      "chip": "ym2612"
    },
    {
      "channel": 2,
      "note": 54,
      "start": 17.5014,
      "duration": 0.0321,
      "velocity": 111,
      "chip": "ym2612"
    },
    {
      "channel": 2,
      "note": 53,
      "start": 17.5334,
      "duration": 0.0167,
      "velocity": 111,
      "chip": "ym2612"
    },
    {
      "channel": 2,
      "note": 52,
      "start": 17.5501,
      "duration": 0.0167,
      "velocity": 111,
      "chip": "ym2612"
    },
    {
      "channel": 2,
      "note": 51,
      "start": 17.5668,
      "duration": 0.0167,
      "velocity": 111,
      "chip": "ym2612"
    },
    {
      "channel": 2,
      "note": 50,
      "start": 17.5834,
      "duration": 0.0197,
      "velocity": 111,
      "chip": "ym2612"
    },
    {
      "channel": 0,
      "note": 43,
      "start": 17.6005,
      "duration": 0.1998,
      "velocity": 118,
      "chip": "ym2612"
    },
    {
      "channel": 1,
      "note": 26,
      "start": 17.6027,
      "duration": 0.1982,
      "velocity": 118,
      "chip": "ym2612"
    },
    {
      "channel": 2,
      "note": 43,
      "start": 17.6033,
      "duration": 0.2982,
      "velocity": 111,
      "chip": "ym2612"
    },
    {
      "channel": 0,
      "note": 43,
      "start": 17.8005,
      "duration": 0.0999,
      "velocity": 118,
      "chip": "ym2612"
    },
    {
      "channel": 1,
      "note": 55,
      "start": 17.801,
      "duration": 0.0999,
      "velocity": 118,
      "chip": "ym2612"
    },
    {
      "channel": 0,
      "note": 50,
      "start": 17.9005,
      "duration": 0.1999,
      "velocity": 118,
      "chip": "ym2612"
    },
    {
      "channel": 1,
      "note": 53,
      "start": 17.9011,
      "duration": 0.101,
      "velocity": 127,
      "chip": "ym2612"
    },
    {
      "channel": 2,
      "note": 44,
      "start": 17.9016,
      "duration": 0.1025,
      "velocity": 127,
      "chip": "ym2612"
    },
    {
      "channel": 1,
      "note": 26,
      "start": 18.0022,
      "duration": 0.1004,
      "velocity": 118,
      "chip": "ym2612"
    },
    {
      "channel": 2,
      "note": 21,
      "start": 18.0044,
      "duration": 0.1982,
      "velocity": 111,
      "chip": "ym2612"
    },
    {
      "channel": 0,
      "note": 53,
      "start": 18.1005,
      "duration": 0.1999,
      "velocity": 118,
      "chip": "ym2612"
    },
    {
      "channel": 1,
      "note": 50,
      "start": 18.1027,
      "duration": 0.0978,
      "velocity": 118,
      "chip": "ym2612"
    },
    {
      "channel": 1,
      "note": 53,
      "start": 18.2006,
      "duration": 0.2015,
      "velocity": 127,
      "chip": "ym2612"
    },
    {
      "channel": 2,
      "note": 43,
      "start": 18.2028,
      "duration": 0.3982,
      "velocity": 111,
      "chip": "ym2612"
    },
    {
      "channel": 0,
      "note": 43,
      "start": 18.3005,
      "duration": 0.1998,
      "velocity": 118,
      "chip": "ym2612"
    },
    {
      "channel": 1,
      "note": 26,
      "start": 18.4022,
      "duration": 0.1003,
      "velocity": 118,
      "chip": "ym2612"
    },
    {
      "channel": 0,
      "note": 44,
      "start": 18.5005,
      "duration": 0.1999,
      "velocity": 118,
      "chip": "ym2612"
    },
    {
      "channel": 1,
      "note": 46,
      "start": 18.5027,
      "duration": 0.0978,
      "velocity": 118,
      "chip": "ym2612"
    },
    {
      "channel": 1,
      "note": 48,
      "start": 18.6006,
      "duration": 0.1003,
      "velocity": 118,
      "chip": "ym2612"
    },
    {
      "channel": 2,
      "note": 43,
      "start": 18.6012,
      "duration": 0.1003,
      "velocity": 111,
      "chip": "ym2612"
    },
    {
      "channel": 0,
      "note": 43,
      "start": 18.7005,
      "duration": 0.0999,
      "velocity": 118,
      "chip": "ym2612"
    },
    {
      "channel": 1,
      "note": 50,
      "start": 18.7011,
      "duration": 0.1015,
      "velocity": 127,
      "chip": "ym2612"
    },
    {
      "channel": 2,
      "note": 50,
      "start": 18.7017,
      "duration": 0.103,
      "velocity": 127,
      "chip": "ym2612"
    },
    {
      "channel": 0,
      "note": 31,
      "start": 18.8005,
      "duration": 0.1999,
      "velocity": 118,
      "chip": "ym2612"
    },
    {
      "channel": 1,
      "note": 26,
      "start": 18.8027,
      "duration": 0.0994,
      "velocity": 118,
      "chip": "ym2612"
    },
    {
      "channel": 2,
      "note": 21,
      "start": 18.8049,
      "duration": 0.0993,
      "velocity": 111,
      "chip": "ym2612"
    },
    {
      "channel": 1,
      "note": 58,
      "start": 18.9022,
      "duration": 0.0987,
      "velocity": 118,
      "chip": "ym2612"
    },
    {
      "channel": 2,
      "note": 53,
      "start": 18.9044,
      "duration": 0.0971,
      "velocity": 111,
      "chip": "ym2612"
    },
    {
      "channel": 0,
      "note": 53,
      "start": 19.0005,
      "duration": 0.2,
      "velocity": 118,
      "chip": "ym2612"
    },
    {
      "channel": 1,
      "note": 60,
      "start": 19.0011,
      "duration": 0.0994,
      "velocity": 118,
      "chip": "ym2612"
    },
    {
      "channel": 2,
      "note": 55,
      "start": 19.0017,
      "duration": 0.0998,
      "velocity": 111,
      "chip": "ym2612"
    },
    {
      "channel": 1,
      "note": 62,
      "start": 19.1007,
      "duration": 0.102,
      "velocity": 127,
      "chip": "ym2612"
    },
    {
      "channel": 2,
      "note": 54,
      "start": 19.1014,
      "duration": 0.032,
      "velocity": 111,
      "chip": "ym2612"
    },
    {
      "channel": 2,
      "note": 53,
      "start": 19.1334,
      "duration": 0.0167,
      "velocity": 111,
      "chip": "ym2612"
    },
    {
      "channel": 2,
      "note": 52,
      "start": 19.1501,
      "duration": 0.0167,
      "velocity": 111,
      "chip": "ym2612"
    },
    {
      "channel": 2,
      "note": 51,
      "start": 19.1668,
      "duration": 0.0167,
      "velocity": 111,
      "chip": "ym2612"
    },
    {
      "channel": 2,
      "note": 50,
      "start": 19.1834,
      "duration": 0.0198,
      "velocity": 111,
      "chip": "ym2612"
    },
    {
      "channel": 0,
      "note": 43,
      "start": 19.2007,
      "duration": 0.1997,
      "velocity": 118,
      "chip": "ym2612"
    },
    {
      "channel": 1,
      "note": 26,
      "start": 19.2028,
      "duration": 0.1998,
      "velocity": 118,
      "chip": "ym2612"
    },
    {
      "channel": 2,
      "note": 43,
      "start": 19.2034,
      "duration": 0.298,
      "velocity": 111,
      "chip": "ym2612"
    },
    {
      "channel": 3,
      "note": 55,
      "start": 19.2041,
      "duration": 0.298,
      "velocity": 123,
      "chip": "ym2612"
    },
    {
      "channel": 0,
      "note": 43,
      "start": 19.4005,
      "duration": 0.0999,
      "velocity": 118,
      "chip": "ym2612"
    },
    {
      "channel": 1,
      "note": 55,
      "start": 19.4027,
      "duration": 0.0983,
      "velocity": 118,
      "chip": "ym2612"
    },
    {
      "channel": 0,
      "note": 50,
      "start": 19.5006,
      "duration": 0.1998,
      "velocity": 118,
      "chip": "ym2612"
    },
    {
      "channel": 1,
      "note": 53,
      "start": 19.5011,
      "duration": 0.101,
      "velocity": 127,
      "chip": "ym2612"
    },
    {
      "channel": 2,
      "note": 44,
      "start": 19.5017,
      "duration": 0.1025,
      "velocity": 127,
      "chip": "ym2612"
    },
    {
      "channel": 3,
      "note": 55,
      "start": 19.5022,
      "duration": 0.0006,
      "velocity": 123,
      "chip": "ym2612"
    },
    {
      "channel": 3,
      "note": 56,
      "start": 19.5028,
      "duration": 0.0307,
      "velocity": 123,
      "chip": "ym2612"
    },
    {
      "channel": 3,
      "note": 56,
      "start": 19.5335,
      "duration": 0.2696,
      "velocity": 123,
      "chip": "ym2612"
    },
    {
      "channel": 1,
      "note": 26,
      "start": 19.6022,
      "duration": 0.1003,
      "velocity": 118,
      "chip": "ym2612"
    },
    {
      "channel": 2,
      "note": 21,
      "start": 19.6044,
      "duration": 0.1981,
      "velocity": 111,
      "chip": "ym2612"
    },
    {
      "channel": 0,
      "note": 53,
      "start": 19.7005,
      "duration": 0.1999,
      "velocity": 118,
      "chip": "ym2612"
    },
    {
      "channel": 1,
      "note": 50,
      "start": 19.7027,
      "duration": 0.0978,
      "velocity": 118,
      "chip": "ym2612"
    },
    {
      "channel": 1,
      "note": 53,
      "start": 19.8007,
      "duration": 0.2013,
      "velocity": 127,
      "chip": "ym2612"
    },
    {
      "channel": 2,
      "note": 43,
      "start": 19.8028,
      "duration": 0.3983,
      "velocity": 111,
      "chip": "ym2612"
    },
    {
      "channel": 3,
      "note": 56,
      "start": 19.8033,
      "duration": 0.0006,
      "velocity": 123,
      "chip": "ym2612"
    },
    {
      "channel": 3,
      "note": 55,
      "start": 19.8039,
      "duration": 0.0296,
      "velocity": 123,
      "chip": "ym2612"
    },
    {
      "channel": 3,
      "note": 55,
      "start": 19.8335,
      "duration": 0.2692,
      "velocity": 123,
      "chip": "ym2612"
    },
    {
      "channel": 0,
      "note": 43,
      "start": 19.9006,
      "duration": 0.1998,
      "velocity": 118,
      "chip": "ym2612"
    },
    {
      "channel": 1,
      "note": 26,
      "start": 20.0022,
      "duration": 0.1983,
      "velocity": 118,
      "chip": "ym2612"
    },
    {
      "channel": 0,
      "note": 44,
      "start": 20.1005,
      "duration": 0.1999,
      "velocity": 118,
      "chip": "ym2612"
    },
    {
      "channel": 3,
      "note": 55,
      "start": 20.1029,
      "duration": 0.0006,
      "velocity": 123,
      "chip": "ym2612"
    },
    {
      "channel": 3,
      "note": 56,
      "start": 20.1034,
      "duration": 0.0301,
      "velocity": 123,
      "chip": "ym2612"
    },
    {
      "channel": 3,
      "note": 58,
      "start": 20.1335,
      "duration": 0.0166,
      "velocity": 123,
      "chip": "ym2612"
    },
    {
      "channel": 3,
      "note": 59,
      "start": 20.1502,
      "duration": 0.0167,
      "velocity": 123,
      "chip": "ym2612"
    },
    {
      "channel": 3,
      "note": 61,
      "start": 20.1668,
      "duration": 0.0167,
      "velocity": 123,
      "chip": "ym2612"
    },
    {
      "channel": 3,
      "note": 62,
      "start": 20.1835,
      "duration": 0.0184,
      "velocity": 123,
      "chip": "ym2612"
    },
    {
      "channel": 1,
      "note": 52,
      "start": 20.2007,
      "duration": 0.2019,
      "velocity": 127,
      "chip": "ym2612"
    },
    {
      "channel": 2,
      "note": 43,
      "start": 20.2012,
      "duration": 0.0998,
      "velocity": 111,
      "chip": "ym2612"
    },
    {
      "channel": 3,
      "note": 63,
      "start": 20.2019,
      "duration": 0.2034,
      "velocity": 123,
      "chip": "ym2612"
    },
    {
      "channel": 0,
      "note": 43,
      "start": 20.3005,
      "duration": 0.0999,
      "velocity": 118,
      "chip": "ym2612"
    },
    {
      "channel": 2,
      "note": 50,
      "start": 20.3012,
      "duration": 0.1036,
      "velocity": 127,
      "chip": "ym2612"
    },
    {
      "channel": 0,
      "note": 50,
      "start": 20.4006,
      "duration": 0.1998,
      "velocity": 118,
      "chip": "ym2612"
    },
    {
      "channel": 1,
      "note": 26,
      "start": 20.4028,
      "duration": 0.0993,
      "velocity": 118,
      "chip": "ym2612"
    },
    {
      "channel": 2,
      "note": 21,
      "start": 20.4049,
      "duration": 0.0994,
      "velocity": 111,
      "chip": "ym2612"
    },
    {
      "channel": 3,
      "note": 63,
      "start": 20.4054,
      "duration": 0.0006,
      "velocity": 123,
      "chip": "ym2612"
    },
    {
      "channel": 3,
      "note": 62,
      "start": 20.406,
      "duration": 0.0275,
      "velocity": 123,
      "chip": "ym2612"
    },
    {
      "channel": 3,
      "note": 61,
      "start": 20.4335,
      "duration": 0.1686,
      "velocity": 123,
      "chip": "ym2612"
    },
    {
      "channel": 1,
      "note": 48,
      "start": 20.5022,
      "duration": 0.0987,
      "velocity": 118,
      "chip": "ym2612"
    },
    {
      "channel": 2,
      "note": 53,
      "start": 20.5044,
      "duration": 0.0971,
      "velocity": 111,
      "chip": "ym2612"
    },
    {
      "channel": 0,
      "note": 53,
      "start": 20.6006,
      "duration": 0.1998,
      "velocity": 118,
      "chip": "ym2612"
    },
    {
      "channel": 1,
      "note": 50,
      "start": 20.6011,
      "duration": 0.0994,
      "velocity": 118,
      "chip": "ym2612"
    },
    {
      "channel": 2,
      "note": 55,
      "start": 20.6017,
      "duration": 0.0997,
      "velocity": 111,
      "chip": "ym2612"
    },
    {
      "channel": 3,
      "note": 61,
      "start": 20.6022,
      "duration": 0.0006,
      "velocity": 123,
      "chip": "ym2612"
    },
    {
      "channel": 3,
      "note": 60,
      "start": 20.6028,
      "duration": 0.0307,
      "velocity": 123,
      "chip": "ym2612"
    },
    {
      "channel": 3,
      "note": 58,
      "start": 20.6335,
      "duration": 0.0167,
      "velocity": 123,
      "chip": "ym2612"
    },
    {
      "channel": 3,
      "note": 56,
      "start": 20.6502,
      "duration": 0.0167,
      "velocity": 123,
      "chip": "ym2612"
    },
    {
      "channel": 3,
      "note": 56,
      "start": 20.6669,
      "duration": 0.1368,
      "velocity": 123,
      "chip": "ym2612"
    },
    {
      "channel": 1,
      "note": 53,
      "start": 20.7006,
      "duration": 0.102,
      "velocity": 127,
      "chip": "ym2612"
    },
    {
      "channel": 2,
      "note": 54,
      "start": 20.7014,
      "duration": 0.0321,
      "velocity": 111,
      "chip": "ym2612"
    },
    {
      "channel": 2,
      "note": 53,
      "start": 20.7334,
      "duration": 0.0167,
      "velocity": 111,
      "chip": "ym2612"
    },
    {
      "channel": 2,
      "note": 52,
      "start": 20.7501,
      "duration": 0.0167,
      "velocity": 111,
      "chip": "ym2612"
    },
    {
      "channel": 2,
      "note": 51,
      "start": 20.7668,
      "duration": 0.0167,
      "velocity": 111,
      "chip": "ym2612"
    },
    {
      "channel": 2,
      "note": 50,
      "start": 20.7834,
      "duration": 0.0197,
      "velocity": 111,
      "chip": "ym2612"
    },
    {
      "channel": 0,
      "note": 43,
      "start": 20.8006,
      "duration": 0.1998,
      "velocity": 118,
      "chip": "ym2612"
    },
    {
      "channel": 1,
      "note": 26,
      "start": 20.8028,
      "duration": 0.1981,
      "velocity": 118,
      "chip": "ym2612"
    },
    {
      "channel": 2,
      "note": 43,
      "start": 20.8033,
      "duration": 0.2983,
      "velocity": 111,
      "chip": "ym2612"
    },
    {
      "channel": 3,
      "note": 56,
      "start": 20.8038,
      "duration": 0.0006,
      "velocity": 123,
      "chip": "ym2612"
    },
    {
      "channel": 3,
      "note": 55,
      "start": 20.8045,
      "duration": 0.0291,
      "velocity": 123,
      "chip": "ym2612"
    },
    {
      "channel": 3,
      "note": 55,
      "start": 20.8335,
      "duration": 0.2685,
      "velocity": 123,
      "chip": "ym2612"
    },
    {
      "channel": 0,
      "note": 43,
      "start": 21.0005,
      "duration": 0.0999,
      "velocity": 118,
      "chip": "ym2612"
    },
    {
      "channel": 1,
      "note": 55,
      "start": 21.001,
      "duration": 0.0999,
      "velocity": 118,
      "chip": "ym2612"
    },
    {
      "channel": 0,
      "note": 50,
      "start": 21.1006,
      "duration": 0.1998,
      "velocity": 118,
      "chip": "ym2612"
    },
    {
      "channel": 1,
      "note": 53,
      "start": 21.1012,
      "duration": 0.1009,
      "velocity": 127,
      "chip": "ym2612"
    },
    {
      "channel": 2,
      "note": 44,
      "start": 21.1017,
      "duration": 0.1025,
      "velocity": 127,
      "chip": "ym2612"
    },
    {
      "channel": 3,
      "note": 55,
      "start": 21.1022,
      "duration": 0.0006,
      "velocity": 123,
      "chip": "ym2612"
    },
    {
      "channel": 3,
      "note": 56,
      "start": 21.1028,
      "duration": 0.0307,
      "velocity": 123,
      "chip": "ym2612"
    },
    {
      "channel": 3,
      "note": 56,
      "start": 21.1335,
      "duration": 0.2696,
      "velocity": 123,
      "chip": "ym2612"
    },
    {
      "channel": 1,
      "note": 26,
      "start": 21.2022,
      "duration": 0.1002,
      "velocity": 118,
      "chip": "ym2612"
    },
    {
      "channel": 2,
      "note": 21,
      "start": 21.2044,
      "duration": 0.1982,
      "velocity": 111,
      "chip": "ym2612"
    },
    {
      "channel": 0,
      "note": 53,
      "start": 21.3005,
      "duration": 0.1999,
      "velocity": 118,
      "chip": "ym2612"
    },
    {
      "channel": 1,
      "note": 50,
      "start": 21.3027,
      "duration": 0.0978,
      "velocity": 118,
      "chip": "ym2612"
    },
    {
      "channel": 1,
      "note": 53,
      "start": 21.4007,
      "duration": 0.2013,
      "velocity": 127,
      "chip": "ym2612"
    },
    {
      "channel": 2,
      "note": 43,
      "start": 21.4028,
      "duration": 0.3983,
      "velocity": 111,
      "chip": "ym2612"
    },
    {
      "channel": 3,
      "note": 56,
      "start": 21.4033,
      "duration": 0.0006,
      "velocity": 123,
      "chip": "ym2612"
    },
    {
      "channel": 3,
      "note": 55,
      "start": 21.4039,
      "duration": 0.0296,
      "velocity": 123,
      "chip": "ym2612"
    },
    {
      "channel": 3,
      "note": 55,
      "start": 21.4335,
      "duration": 0.2692,
      "velocity": 123,
      "chip": "ym2612"
    },
    {
      "channel": 0,
      "note": 43,
      "start": 21.5006,
      "duration": 0.1998,
      "velocity": 118,
      "chip": "ym2612"
    },
    {
      "channel": 1,
      "note": 26,
      "start": 21.6022,
      "duration": 0.1983,
      "velocity": 118,
      "chip": "ym2612"
    },
    {
      "channel": 0,
      "note": 44,
      "start": 21.7005,
      "duration": 0.1999,
      "velocity": 118,
      "chip": "ym2612"
    },
    {
      "channel": 3,
      "note": 55,
      "start": 21.7029,
      "duration": 0.0006,
      "velocity": 123,
      "chip": "ym2612"
    },
    {
      "channel": 3,
      "note": 54,
      "start": 21.7034,
      "duration": 0.03,
      "velocity": 123,
      "chip": "ym2612"
    },
    {
      "channel": 3,
      "note": 53,
      "start": 21.7335,
      "duration": 0.0167,
      "velocity": 123,
      "chip": "ym2612"
    },
    {
      "channel": 3,
      "note": 52,
      "start": 21.7502,
      "duration": 0.0167,
      "velocity": 123,
      "chip": "ym2612"
    },
    {
      "channel": 3,
      "note": 51,
      "start": 21.7669,
      "duration": 0.2384,
      "velocity": 123,
      "chip": "ym2612"
    },
    {
      "channel": 1,
      "note": 52,
      "start": 21.8007,
      "duration": 0.2019,
      "velocity": 127,
      "chip": "ym2612"
    },
    {
      "channel": 2,
      "note": 43,
      "start": 21.8012,
      "duration": 0.0998,
      "velocity": 111,
      "chip": "ym2612"
    },
    {
      "channel": 0,
      "note": 43,
      "start": 21.9005,
      "duration": 0.0999,
      "velocity": 118,
      "chip": "ym2612"
    },
    {
      "channel": 2,
      "note": 50,
      "start": 21.9012,
      "duration": 0.1036,
      "velocity": 127,
      "chip": "ym2612"
    },
    {
      "channel": 0,
      "note": 50,
      "start": 22.0006,
      "duration": 0.1998,
      "velocity": 118,
      "chip": "ym2612"
    },
    {
      "channel": 1,
      "note": 26,
      "start": 22.0028,
      "duration": 0.0993,
      "velocity": 118,
      "chip": "ym2612"
    },
    {
      "channel": 2,
      "note": 21,
      "start": 22.0049,
      "duration": 0.0994,
      "velocity": 111,
      "chip": "ym2612"
    },
    {
      "channel": 3,
      "note": 51,
      "start": 22.0054,
      "duration": 0.0006,
      "velocity": 123,
      "chip": "ym2612"
    },
    {
      "channel": 3,
      "note": 50,
      "start": 22.006,
      "duration": 0.0275,
      "velocity": 123,
      "chip": "ym2612"
    },
    {
      "channel": 3,
      "note": 49,
      "start": 22.0335,
      "duration": 0.1686,
      "velocity": 123,
      "chip": "ym2612"
    },
    {
      "channel": 1,
      "note": 48,
      "start": 22.1022,
      "duration": 0.0987,
      "velocity": 118,
      "chip": "ym2612"
    },
    {
      "channel": 2,
      "note": 53,
      "start": 22.1044,
      "duration": 0.0972,
      "velocity": 111,
      "chip": "ym2612"
    },
    {
      "channel": 0,
      "note": 53,
      "start": 22.2006,
      "duration": 0.1998,
      "velocity": 118,
      "chip": "ym2612"
    },
    {
      "channel": 1,
      "note": 50,
      "start": 22.2012,
      "duration": 0.0993,
      "velocity": 118,
      "chip": "ym2612"
    },
    {
      "channel": 2,
      "note": 55,
      "start": 22.2017,
      "duration": 0.0997,
      "velocity": 111,
      "chip": "ym2612"
    },
    {
      "channel": 3,
      "note": 49,
      "start": 22.2022,
      "duration": 0.0006,
      "velocity": 123,
      "chip": "ym2612"
    },
    {
      "channel": 3,
      "note": 48,
      "start": 22.2028,
      "duration": 0.0307,
      "velocity": 123,
      "chip": "ym2612"
    },
    {
      "channel": 3,
      "note": 46,
      "start": 22.2335,
      "duration": 0.0167,
      "velocity": 123,
      "chip": "ym2612"
    },
    {
      "channel": 3,
      "note": 44,
      "start": 22.2502,
      "duration": 0.0167,
      "velocity": 123,
      "chip": "ym2612"
    },
    {
      "channel": 3,
      "note": 44,
      "start": 22.2669,
      "duration": 0.1368,
      "velocity": 123,
      "chip": "ym2612"
    },
    {
      "channel": 1,
      "note": 53,
      "start": 22.3006,
      "duration": 0.102,
      "velocity": 127,
      "chip": "ym2612"
    },
    {
      "channel": 2,
      "note": 54,
      "start": 22.3014,
      "duration": 0.0321,
      "velocity": 111,
      "chip": "ym2612"
    },
    {
      "channel": 2,
      "note": 53,
      "start": 22.3334,
      "duration": 0.0167,
      "velocity": 111,
      "chip": "ym2612"
    },
    {
      "channel": 2,
      "note": 52,
      "start": 22.3501,
      "duration": 0.0167,
      "velocity": 111,
      "chip": "ym2612"
    },
    {
      "channel": 2,
      "note": 51,
      "start": 22.3668,
      "duration": 0.0167,
      "velocity": 111,
      "chip": "ym2612"
    },
    {
      "channel": 2,
      "note": 50,
      "start": 22.3834,
      "duration": 0.0197,
      "velocity": 111,
      "chip": "ym2612"
    },
    {
      "channel": 0,
      "note": 43,
      "start": 22.4006,
      "duration": 0.1998,
      "velocity": 118,
      "chip": "ym2612"
    },
    {
      "channel": 1,
      "note": 26,
      "start": 22.4028,
      "duration": 0.1981,
      "velocity": 118,
      "chip": "ym2612"
    },
    {
      "channel": 2,
      "note": 43,
      "start": 22.4033,
      "duration": 0.2983,
      "velocity": 111,
      "chip": "ym2612"
    },
    {
      "channel": 3,
      "note": 44,
      "start": 22.4038,
      "duration": 0.0006,
      "velocity": 123,
      "chip": "ym2612"
    },
    {
      "channel": 3,
      "note": 46,
      "start": 22.4044,
      "duration": 0.0291,
      "velocity": 123,
      "chip": "ym2612"
    },
    {
      "channel": 3,
      "note": 47,
      "start": 22.4335,
      "duration": 0.0167,
      "velocity": 123,
      "chip": "ym2612"
    },
    {
      "channel": 3,
      "note": 49,
      "start": 22.4502,
      "duration": 0.0167,
      "velocity": 123,
      "chip": "ym2612"
    },
    {
      "channel": 3,
      "note": 50,
      "start": 22.4668,
      "duration": 0.0167,
      "velocity": 123,
      "chip": "ym2612"
    },
    {
      "channel": 3,
      "note": 51,
      "start": 22.4835,
      "duration": 0.019,
      "velocity": 123,
      "chip": "ym2612"
    },
    {
      "channel": 3,
      "note": 52,
      "start": 22.5025,
      "duration": 0.031,
      "velocity": 123,
      "chip": "ym2612"
    },
    {
      "channel": 3,
      "note": 53,
      "start": 22.5335,
      "duration": 0.0167,
      "velocity": 123,
      "chip": "ym2612"
    },
    {
      "channel": 3,
      "note": 54,
      "start": 22.5502,
      "duration": 0.0167,
      "velocity": 123,
      "chip": "ym2612"
    },
    {
      "channel": 3,
      "note": 55,
      "start": 22.5669,
      "duration": 0.1352,
      "velocity": 123,
      "chip": "ym2612"
    },
    {
      "channel": 0,
      "note": 43,
      "start": 22.6005,
      "duration": 0.0999,
      "velocity": 118,
      "chip": "ym2612"
    },
    {
      "channel": 1,
      "note": 55,
      "start": 22.601,
      "duration": 0.0999,
      "velocity": 118,
      "chip": "ym2612"
    },
    {
      "channel": 0,
      "note": 50,
      "start": 22.7006,
      "duration": 0.1998,
      "velocity": 118,
      "chip": "ym2612"
    },
    {
      "channel": 1,
      "note": 53,
      "start": 22.7012,
      "duration": 0.1009,
      "velocity": 127,
      "chip": "ym2612"
    },
    {
      "channel": 2,
      "note": 44,
      "start": 22.7017,
      "duration": 0.1025,
      "velocity": 127,
      "chip": "ym2612"
    },
    {
      "channel": 3,
      "note": 55,
      "start": 22.7022,
      "duration": 0.0006,
      "velocity": 123,
      "chip": "ym2612"
    },
    {
      "channel": 3,
      "note": 56,
      "start": 22.7028,
      "duration": 0.0307,
      "velocity": 123,
      "chip": "ym2612"
    },
    {
      "channel": 3,
      "note": 56,
      "start": 22.7335,
      "duration": 0.2696,
      "velocity": 123,
      "chip": "ym2612"
    },
    {
      "channel": 1,
      "note": 26,
      "start": 22.8022,
      "duration": 0.1002,
      "velocity": 118,
      "chip": "ym2612"
    },
    {
      "channel": 2,
      "note": 21,
      "start": 22.8044,
      "duration": 0.1982,
      "velocity": 111,
      "chip": "ym2612"
    },
    {
      "channel": 0,
      "note": 53,
      "start": 22.9005,
      "duration": 0.1999,
      "velocity": 118,
      "chip": "ym2612"
    },
    {
      "channel": 1,
      "note": 50,
      "start": 22.9027,
      "duration": 0.0978,
      "velocity": 118,
      "chip": "ym2612"
    },
    {
      "channel": 1,
      "note": 53,
      "start": 23.0007,
      "duration": 0.2013,
      "velocity": 127,
      "chip": "ym2612"
    },
    {
      "channel": 2,
      "note": 43,
      "start": 23.0028,
      "duration": 0.3978,
      "velocity": 111,
      "chip": "ym2612"
    },
    {
      "channel": 3,
      "note": 56,
      "start": 23.0033,
      "duration": 0.0006,
      "velocity": 123,
      "chip": "ym2612"
    },
    {
      "channel": 3,
      "note": 55,
      "start": 23.0039,
      "duration": 0.0296,
      "velocity": 123,
      "chip": "ym2612"
    },
    {
      "channel": 3,
      "note": 55,
      "start": 23.0335,
      "duration": 0.2696,
      "velocity": 123,
      "chip": "ym2612"
    },
    {
      "channel": 0,
      "note": 43,
      "start": 23.1006,
      "duration": 0.1998,
      "velocity": 118,
      "chip": "ym2612"
    },
    {
      "channel": 1,
      "note": 26,
      "start": 23.2022,
      "duration": 0.1004,
      "velocity": 118,
      "chip": "ym2612"
    },
    {
      "channel": 0,
      "note": 44,
      "start": 23.3005,
      "duration": 0.1999,
      "velocity": 118,
      "chip": "ym2612"
    },
    {
      "channel": 1,
      "note": 52,
      "start": 23.3027,
      "duration": 0.1982,
      "velocity": 118,
      "chip": "ym2612"
    },
    {
      "channel": 3,
      "note": 55,
      "start": 23.3033,
      "duration": 0.0006,
      "velocity": 123,
      "chip": "ym2612"
    },
    {
      "channel": 3,
      "note": 56,
      "start": 23.3039,
      "duration": 0.0296,
      "velocity": 123,
      "chip": "ym2612"
    },
    {
      "channel": 3,
      "note": 58,
      "start": 23.3335,
      "duration": 0.0166,
      "velocity": 123,
      "chip": "ym2612"
    },
    {
      "channel": 3,
      "note": 59,
      "start": 23.3502,
      "duration": 0.0167,
      "velocity": 123,
      "chip": "ym2612"
    },
    {
      "channel": 3,
      "note": 61,
      "start": 23.3668,
      "duration": 0.0167,
      "velocity": 123,
      "chip": "ym2612"
    },
    {
      "channel": 3,
      "note": 62,
      "start": 23.3835,
      "duration": 0.0179,
      "velocity": 123,
      "chip": "ym2612"
    },
    {
      "channel": 2,
      "note": 43,
      "start": 23.4007,
      "duration": 0.1007,
      "velocity": 111,
      "chip": "ym2612"
    },
    {
      "channel": 3,
      "note": 63,
      "start": 23.4014,
      "duration": 0.2039,
      "velocity": 123,
      "chip": "ym2612"
    },
    {
      "channel": 0,
      "note": 43,
      "start": 23.5005,
      "duration": 0.0999,
      "velocity": 118,
      "chip": "ym2612"
    },
    {
      "channel": 1,
      "note": 48,
      "start": 23.5011,
      "duration": 0.1015,
      "velocity": 127,
      "chip": "ym2612"
    },
    {
      "channel": 2,
      "note": 50,
      "start": 23.5017,
      "duration": 0.103,
      "velocity": 127,
      "chip": "ym2612"
    },
    {
      "channel": 0,
      "note": 50,
      "start": 23.6006,
      "duration": 0.1998,
      "velocity": 118,
      "chip": "ym2612"
    },
    {
      "channel": 1,
      "note": 26,
      "start": 23.6027,
      "duration": 0.0994,
      "velocity": 118,
      "chip": "ym2612"
    },
    {
      "channel": 2,
      "note": 21,
      "start": 23.6049,
      "duration": 0.0994,
      "velocity": 111,
      "chip": "ym2612"
    },
    {
      "channel": 3,
      "note": 63,
      "start": 23.6054,
      "duration": 0.0006,
      "velocity": 123,
      "chip": "ym2612"
    },
    {
      "channel": 3,
      "note": 62,
      "start": 23.606,
      "duration": 0.0275,
      "velocity": 123,
      "chip": "ym2612"
    },
    {
      "channel": 3,
      "note": 61,
      "start": 23.6335,
      "duration": 0.1685,
      "velocity": 123,
      "chip": "ym2612"
    },
    {
      "channel": 1,
      "note": 46,
      "start": 23.7022,
      "duration": 0.0987,
      "velocity": 118,
      "chip": "ym2612"
    },
    {
      "channel": 2,
      "note": 53,
      "start": 23.7044,
      "duration": 0.0971,
      "velocity": 111,
      "chip": "ym2612"
    },
    {
      "channel": 0,
      "note": 53,
      "start": 23.8006,
      "duration": 0.1998,
      "velocity": 118,
      "chip": "ym2612"
    },
    {
      "channel": 1,
      "note": 48,
      "start": 23.8011,
      "duration": 0.0994,
      "velocity": 118,
      "chip": "ym2612"
    },
    {
      "channel": 2,
      "note": 55,
      "start": 23.8017,
      "duration": 0.0997,
      "velocity": 111,
      "chip": "ym2612"
    },
    {
      "channel": 3,
      "note": 61,
      "start": 23.8022,
      "duration": 0.0006,
      "velocity": 123,
      "chip": "ym2612"
    },
    {
      "channel": 3,
      "note": 60,
      "start": 23.8028,
      "duration": 0.0307,
      "velocity": 123,
      "chip": "ym2612"
    },
    {
      "channel": 3,
      "note": 58,
      "start": 23.8335,
      "duration": 0.0167,
      "velocity": 123,
      "chip": "ym2612"
    },
    {
      "channel": 3,
      "note": 56,
      "start": 23.8502,
      "duration": 0.0167,
      "velocity": 123,
      "chip": "ym2612"
    },
    {
      "channel": 3,
      "note": 56,
      "start": 23.8669,
      "duration": 0.1368,
      "velocity": 123,
      "chip": "ym2612"
    },
    {
      "channel": 1,
      "note": 50,
      "start": 23.9007,
      "duration": 0.1019,
      "velocity": 127,
      "chip": "ym2612"
    },
    {
      "channel": 2,
      "note": 54,
      "start": 23.9014,
      "duration": 0.0321,
      "velocity": 111,
      "chip": "ym2612"
    },
    {
      "channel": 2,
      "note": 53,
      "start": 23.9334,
      "duration": 0.0167,
      "velocity": 111,
      "chip": "ym2612"
    },
    {
      "channel": 2,
      "note": 52,
      "start": 23.9501,
      "duration": 0.0167,
      "velocity": 111,
      "chip": "ym2612"
    },
    {
      "channel": 2,
      "note": 51,
      "start": 23.9668,
      "duration": 0.0167,
      "velocity": 111,
      "chip": "ym2612"
    },
    {
      "channel": 2,
      "note": 50,
      "start": 23.9834,
      "duration": 0.0197,
      "velocity": 111,
      "chip": "ym2612"
    },
    {
      "channel": 0,
      "note": 43,
      "start": 24.0006,
      "duration": 0.1998,
      "velocity": 118,
      "chip": "ym2612"
    },
    {
      "channel": 1,
      "note": 26,
      "start": 24.0028,
      "duration": 0.1981,
      "velocity": 118,
      "chip": "ym2612"
    },
    {
      "channel": 2,
      "note": 43,
      "start": 24.0033,
      "duration": 0.2983,
      "velocity": 111,
      "chip": "ym2612"
    },
    {
      "channel": 3,
      "note": 56,
      "start": 24.0038,
      "duration": 0.0006,
      "velocity": 123,
      "chip": "ym2612"
    },
    {
      "channel": 3,
      "note": 55,
      "start": 24.0045,
      "duration": 0.0291,
      "velocity": 123,
      "chip": "ym2612"
    },
    {
      "channel": 3,
      "note": 55,
      "start": 24.0335,
      "duration": 0.2685,
      "velocity": 123,
      "chip": "ym2612"
    },
    {
      "channel": 0,
      "note": 43,
      "start": 24.2005,
      "duration": 0.0999,
      "velocity": 118,
      "chip": "ym2612"
    },
    {
      "channel": 1,
      "note": 55,
      "start": 24.201,
      "duration": 0.0999,
      "velocity": 118,
      "chip": "ym2612"
    },
    {
      "channel": 0,
      "note": 50,
      "start": 24.3006,
      "duration": 0.1998,
      "velocity": 118,
      "chip": "ym2612"
    },
    {
      "channel": 1,
      "note": 53,
      "start": 24.3012,
      "duration": 0.1009,
      "velocity": 127,
      "chip": "ym2612"
    },
    {
      "channel": 2,
      "note": 44,
      "start": 24.3017,
      "duration": 0.1025,
      "velocity": 127,
      "chip": "ym2612"
    },
    {
      "channel": 3,
      "note": 55,
      "start": 24.3022,
      "duration": 0.0006,
      "velocity": 123,
      "chip": "ym2612"
    },
    {
      "channel": 3,
      "note": 56,
      "start": 24.3028,
      "duration": 0.0307,
      "velocity": 123,
      "chip": "ym2612"
    },
    {
      "channel": 3,
      "note": 56,
      "start": 24.3335,
      "duration": 0.2696,
      "velocity": 123,
      "chip": "ym2612"
    },
    {
      "channel": 1,
      "note": 26,
      "start": 24.4022,
      "duration": 0.1002,
      "velocity": 118,
      "chip": "ym2612"
    },
    {
      "channel": 2,
      "note": 21,
      "start": 24.4044,
      "duration": 0.1982,
      "velocity": 111,
      "chip": "ym2612"
    },
    {
      "channel": 0,
      "note": 53,
      "start": 24.5005,
      "duration": 0.1999,
      "velocity": 118,
      "chip": "ym2612"
    },
    {
      "channel": 1,
      "note": 50,
      "start": 24.5027,
      "duration": 0.0978,
      "velocity": 118,
      "chip": "ym2612"
    },
    {
      "channel": 1,
      "note": 53,
      "start": 24.6007,
      "duration": 0.2014,
      "velocity": 127,
      "chip": "ym2612"
    },
    {
      "channel": 2,
      "note": 43,
      "start": 24.6028,
      "duration": 0.3983,
      "velocity": 111,
      "chip": "ym2612"
    },
    {
      "channel": 3,
      "note": 56,
      "start": 24.6033,
      "duration": 0.0006,
      "velocity": 123,
      "chip": "ym2612"
    },
    {
      "channel": 3,
      "note": 55,
      "start": 24.6039,
      "duration": 0.0296,
      "velocity": 123,
      "chip": "ym2612"
    },
    {
      "channel": 3,
      "note": 55,
      "start": 24.6335,
      "duration": 0.2696,
      "velocity": 123,
      "chip": "ym2612"
    },
    {
      "channel": 0,
      "note": 43,
      "start": 24.7006,
      "duration": 0.1998,
      "velocity": 118,
      "chip": "ym2612"
    },
    {
      "channel": 1,
      "note": 26,
      "start": 24.8022,
      "duration": 0.1003,
      "velocity": 118,
      "chip": "ym2612"
    },
    {
      "channel": 0,
      "note": 44,
      "start": 24.9005,
      "duration": 0.1999,
      "velocity": 118,
      "chip": "ym2612"
    },
    {
      "channel": 1,
      "note": 46,
      "start": 24.9027,
      "duration": 0.0978,
      "velocity": 118,
      "chip": "ym2612"
    },
    {
      "channel": 3,
      "note": 55,
      "start": 24.9033,
      "duration": 0.0006,
      "velocity": 123,
      "chip": "ym2612"
    },
    {
      "channel": 3,
      "note": 54,
      "start": 24.9039,
      "duration": 0.0296,
      "velocity": 123,
      "chip": "ym2612"
    },
    {
      "channel": 3,
      "note": 53,
      "start": 24.9335,
      "duration": 0.0167,
      "velocity": 123,
      "chip": "ym2612"
    },
    {
      "channel": 3,
      "note": 52,
      "start": 24.9502,
      "duration": 0.0167,
      "velocity": 123,
      "chip": "ym2612"
    },
    {
      "channel": 3,
      "note": 51,
      "start": 24.9669,
      "duration": 0.2384,
      "velocity": 123,
      "chip": "ym2612"
    },
    {
      "channel": 1,
      "note": 48,
      "start": 25.0007,
      "duration": 0.1002,
      "velocity": 118,
      "chip": "ym2612"
    },
    {
      "channel": 2,
      "note": 43,
      "start": 25.0012,
      "duration": 0.1003,
      "velocity": 111,
      "chip": "ym2612"
    },
    {
      "channel": 0,
      "note": 43,
      "start": 25.1005,
      "duration": 0.0999,
      "velocity": 118,
      "chip": "ym2612"
    },
    {
      "channel": 1,
      "note": 50,
      "start": 25.1011,
      "duration": 0.1015,
      "velocity": 127,
      "chip": "ym2612"
    },
    {
      "channel": 2,
      "note": 50,
      "start": 25.1016,
      "duration": 0.1031,
      "velocity": 127,
      "chip": "ym2612"
    },
    {
      "channel": 0,
      "note": 31,
      "start": 25.2006,
      "duration": 0.1998,
      "velocity": 118,
      "chip": "ym2612"
    },
    {
      "channel": 1,
      "note": 26,
      "start": 25.2028,
      "duration": 0.0994,
      "velocity": 118,
      "chip": "ym2612"
    },
    {
      "channel": 2,
      "note": 21,
      "start": 25.2049,
      "duration": 0.0994,
      "velocity": 111,
      "chip": "ym2612"
    },
    {
      "channel": 3,
      "note": 51,
      "start": 25.2054,
      "duration": 0.0006,
      "velocity": 123,
      "chip": "ym2612"
    },
    {
      "channel": 3,
      "note": 50,
      "start": 25.206,
      "duration": 0.0275,
      "velocity": 123,
      "chip": "ym2612"
    },
    {
      "channel": 3,
      "note": 49,
      "start": 25.2335,
      "duration": 0.1686,
      "velocity": 123,
      "chip": "ym2612"
    },
    {
      "channel": 1,
      "note": 58,
      "start": 25.3022,
      "duration": 0.0987,
      "velocity": 118,
      "chip": "ym2612"
    },
    {
      "channel": 2,
      "note": 53,
      "start": 25.3044,
      "duration": 0.0971,
      "velocity": 111,
      "chip": "ym2612"
    },
    {
      "channel": 0,
      "note": 53,
      "start": 25.4006,
      "duration": 0.1999,
      "velocity": 118,
      "chip": "ym2612"
    },
    {
      "channel": 1,
      "note": 60,
      "start": 25.4012,
      "duration": 0.0994,
      "velocity": 118,
      "chip": "ym2612"
    },
    {
      "channel": 2,
      "note": 55,
      "start": 25.4017,
      "duration": 0.0998,
      "velocity": 111,
      "chip": "ym2612"
    },
    {
      "channel": 3,
      "note": 49,
      "start": 25.4022,
      "duration": 0.0006,
      "velocity": 123,
      "chip": "ym2612"
    },
    {
      "channel": 3,
      "note": 48,
      "start": 25.4028,
      "duration": 0.0307,
      "velocity": 123,
      "chip": "ym2612"
    },
    {
      "channel": 3,
      "note": 46,
      "start": 25.4335,
      "duration": 0.0167,
      "velocity": 123,
      "chip": "ym2612"
    },
    {
      "channel": 3,
      "note": 44,
      "start": 25.4502,
      "duration": 0.0167,
      "velocity": 123,
      "chip": "ym2612"
    },
    {
      "channel": 3,
      "note": 44,
      "start": 25.4669,
      "duration": 0.1374,
      "velocity": 123,
      "chip": "ym2612"
    },
    {
      "channel": 1,
      "note": 62,
      "start": 25.5007,
      "duration": 0.102,
      "velocity": 127,
      "chip": "ym2612"
    },
    {
      "channel": 2,
      "note": 54,
      "start": 25.5014,
      "duration": 0.032,
      "velocity": 111,
      "chip": "ym2612"
    },
    {
      "channel": 2,
      "note": 53,
      "start": 25.5334,
      "duration": 0.0167,
      "velocity": 111,
      "chip": "ym2612"
    },
    {
      "channel": 2,
      "note": 52,
      "start": 25.5501,
      "duration": 0.0167,
      "velocity": 111,
      "chip": "ym2612"
    },
    {
      "channel": 2,
      "note": 51,
      "start": 25.5668,
      "duration": 0.0167,
      "velocity": 111,
      "chip": "ym2612"
    },
    {
      "channel": 2,
      "note": 50,
      "start": 25.5834,
      "duration": 0.0198,
      "velocity": 111,
      "chip": "ym2612"
    },
    {
      "channel": 0,
      "note": 46,
      "start": 25.6007,
      "duration": 0.1996,
      "velocity": 118,
      "chip": "ym2612"
    },
    {
      "channel": 1,
      "note": 29,
      "start": 25.6028,
      "duration": 0.1997,
      "velocity": 118,
      "chip": "ym2612"
    },
    {
      "channel": 2,
      "note": 46,
      "start": 25.6034,
      "duration": 0.298,
      "velocity": 111,
      "chip": "ym2612"
    },
    {
      "channel": 3,
      "note": 46,
      "start": 25.6043,
      "duration": 0.0292,
      "velocity": 123,
      "chip": "ym2612"
    },
    {
      "channel": 3,
      "note": 47,
      "start": 25.6335,
      "duration": 0.0167,
      "velocity": 123,
      "chip": "ym2612"
    },
    {
      "channel": 3,
      "note": 49,
      "start": 25.6502,
      "duration": 0.0167,
      "velocity": 123,
      "chip": "ym2612"
    },
    {
      "channel": 3,
      "note": 50,
      "start": 25.6668,
      "duration": 0.0167,
      "velocity": 123,
      "chip": "ym2612"
    },
    {
      "channel": 3,
      "note": 51,
      "start": 25.6835,
      "duration": 0.0205,
      "velocity": 123,
      "chip": "ym2612"
    },
    {
      "channel": 3,
      "note": 52,
      "start": 25.704,
      "duration": 0.0295,
      "velocity": 123,
      "chip": "ym2612"
    },
    {
      "channel": 3,
      "note": 53,
      "start": 25.7335,
      "duration": 0.0167,
      "velocity": 123,
      "chip": "ym2612"
    },
    {
      "channel": 3,
      "note": 54,
      "start": 25.7502,
      "duration": 0.0167,
      "velocity": 123,
      "chip": "ym2612"
    },
    {
      "channel": 3,
      "note": 55,
      "start": 25.7668,
      "duration": 0.0167,
      "velocity": 123,
      "chip": "ym2612"
    },
    {
      "channel": 3,
      "note": 57,
      "start": 25.7835,
      "duration": 0.0199,
      "velocity": 123,
      "chip": "ym2612"
    },
    {
      "channel": 0,
      "note": 46,
      "start": 25.8005,
      "duration": 0.0999,
      "velocity": 118,
      "chip": "ym2612"
    },
    {
      "channel": 1,
      "note": 58,
      "start": 25.8027,
      "duration": 0.0982,
      "velocity": 118,
      "chip": "ym2612"
    },
    {
      "channel": 3,
      "note": 58,
      "start": 25.8034,
      "duration": 6.2005,
      "velocity": 123,
      "chip": "ym2612"
    },
    {
      "channel": 0,
      "note": 53,
      "start": 25.9005,
      "duration": 0.1998,
      "velocity": 118,
      "chip": "ym2612"
    },
    {
      "channel": 1,
      "note": 56,
      "start": 25.9011,
      "duration": 0.101,
      "velocity": 127,
      "chip": "ym2612"
    },
    {
      "channel": 2,
      "note": 47,
      "start": 25.9017,
      "duration": 0.1025,
      "velocity": 127,
      "chip": "ym2612"
    },
    {
      "channel": 1,
      "note": 29,
      "start": 26.0022,
      "duration": 0.1003,
      "velocity": 118,
      "chip": "ym2612"
    },
    {
      "channel": 2,
      "note": 24,
      "start": 26.0044,
      "duration": 0.1982,
      "velocity": 111,
      "chip": "ym2612"
    },
    {
      "channel": 0,
      "note": 56,
      "start": 26.1005,
      "duration": 0.1999,
      "velocity": 118,
      "chip": "ym2612"
    },
    {
      "channel": 1,
      "note": 53,
      "start": 26.1027,
      "duration": 0.0978,
      "velocity": 118,
      "chip": "ym2612"
    },
    {
      "channel": 1,
      "note": 56,
      "start": 26.2006,
      "duration": 0.2015,
      "velocity": 127,
      "chip": "ym2612"
    },
    {
      "channel": 2,
      "note": 46,
      "start": 26.2028,
      "duration": 0.3982,
      "velocity": 111,
      "chip": "ym2612"
    },
    {
      "channel": 0,
      "note": 46,
      "start": 26.3005,
      "duration": 0.1998,
      "velocity": 118,
      "chip": "ym2612"
    },
    {
      "channel": 1,
      "note": 29,
      "start": 26.4022,
      "duration": 0.1982,
      "velocity": 118,
      "chip": "ym2612"
    },
    {
      "channel": 0,
      "note": 47,
      "start": 26.5005,
      "duration": 0.1999,
      "velocity": 118,
      "chip": "ym2612"
    },
    {
      "channel": 1,
      "note": 55,
      "start": 26.6006,
      "duration": 0.202,
      "velocity": 127,
      "chip": "ym2612"
    },
    {
      "channel": 2,
      "note": 46,
      "start": 26.6012,
      "duration": 0.0998,
      "velocity": 111,
      "chip": "ym2612"
    },
    {
      "channel": 0,
      "note": 46,
      "start": 26.7005,
      "duration": 0.0999,
      "velocity": 118,
      "chip": "ym2612"
    },
    {
      "channel": 2,
      "note": 53,
      "start": 26.7012,
      "duration": 0.1036,
      "velocity": 127,
      "chip": "ym2612"
    },
    {
      "channel": 0,
      "note": 53,
      "start": 26.8006,
      "duration": 0.1998,
      "velocity": 118,
      "chip": "ym2612"
    },
    {
      "channel": 1,
      "note": 29,
      "start": 26.8028,
      "duration": 0.0993,
      "velocity": 118,
      "chip": "ym2612"
    },
    {
      "channel": 2,
      "note": 24,
      "start": 26.8049,
      "duration": 0.0994,
      "velocity": 111,
      "chip": "ym2612"
    },
    {
      "channel": 1,
      "note": 51,
      "start": 26.9022,
      "duration": 0.0987,
      "velocity": 118,
      "chip": "ym2612"
    },
    {
      "channel": 2,
      "note": 56,
      "start": 26.9044,
      "duration": 0.0971,
      "velocity": 111,
      "chip": "ym2612"
    },
    {
      "channel": 0,
      "note": 56,
      "start": 27.0005,
      "duration": 0.1999,
      "velocity": 118,
      "chip": "ym2612"
    },
    {
      "channel": 1,
      "note": 53,
      "start": 27.0011,
      "duration": 0.0993,
      "velocity": 118,
      "chip": "ym2612"
    },
    {
      "channel": 2,
      "note": 58,
      "start": 27.0016,
      "duration": 0.0997,
      "velocity": 111,
      "chip": "ym2612"
    },
    {
      "channel": 1,
      "note": 56,
      "start": 27.1006,
      "duration": 0.102,
      "velocity": 127,
      "chip": "ym2612"
    },
    {
      "channel": 2,
      "note": 57,
      "start": 27.1013,
      "duration": 0.0321,
      "velocity": 111,
      "chip": "ym2612"
    },
    {
      "channel": 2,
      "note": 55,
      "start": 27.1334,
      "duration": 0.0167,
      "velocity": 111,
      "chip": "ym2612"
    },
    {
      "channel": 2,
      "note": 55,
      "start": 27.1501,
      "duration": 0.0167,
      "velocity": 111,
      "chip": "ym2612"
    },
    {
      "channel": 2,
      "note": 54,
      "start": 27.1668,
      "duration": 0.0167,
      "velocity": 111,
      "chip": "ym2612"
    },
    {
      "channel": 2,
      "note": 53,
      "start": 27.1834,
      "duration": 0.0197,
      "velocity": 111,
      "chip": "ym2612"
    },
    {
      "channel": 0,
      "note": 46,
      "start": 27.2005,
      "duration": 0.1998,
      "velocity": 118,
      "chip": "ym2612"
    },
    {
      "channel": 1,
      "note": 29,
      "start": 27.2027,
      "duration": 0.1982,
      "velocity": 118,
      "chip": "ym2612"
    },
    {
      "channel": 2,
      "note": 46,
      "start": 27.2033,
      "duration": 0.2982,
      "velocity": 111,
      "chip": "ym2612"
    },
    {
      "channel": 0,
      "note": 46,
      "start": 27.4005,
      "duration": 0.0999,
      "velocity": 118,
      "chip": "ym2612"
    },
    {
      "channel": 1,
      "note": 58,
      "start": 27.401,
      "duration": 0.0999,
      "velocity": 118,
      "chip": "ym2612"
    },
    {
      "channel": 0,
      "note": 53,
      "start": 27.5005,
      "duration": 0.1999,
      "velocity": 118,
      "chip": "ym2612"
    },
    {
      "channel": 1,
      "note": 56,
      "start": 27.5011,
      "duration": 0.101,
      "velocity": 127,
      "chip": "ym2612"
    },
    {
      "channel": 2,
      "note": 47,
      "start": 27.5016,
      "duration": 0.1025,
      "velocity": 127,
      "chip": "ym2612"
    },
    {
      "channel": 1,
      "note": 29,
      "start": 27.6022,
      "duration": 0.1004,
      "velocity": 118,
      "chip": "ym2612"
    },
    {
      "channel": 2,
      "note": 24,
      "start": 27.6044,
      "duration": 0.1982,
      "velocity": 111,
      "chip": "ym2612"
    },
    {
      "channel": 0,
      "note": 56,
      "start": 27.7005,
      "duration": 0.1999,
      "velocity": 118,
      "chip": "ym2612"
    },
    {
      "channel": 1,
      "note": 53,
      "start": 27.7027,
      "duration": 0.0977,
      "velocity": 118,
      "chip": "ym2612"
    },
    {
      "channel": 1,
      "note": 56,
      "start": 27.8006,
      "duration": 0.2015,
      "velocity": 127,
      "chip": "ym2612"
    },
    {
      "channel": 2,
      "note": 46,
      "start": 27.8027,
      "duration": 0.3983,
      "velocity": 111,
      "chip": "ym2612"
    },
    {
      "channel": 0,
      "note": 46,
      "start": 27.9005,
      "duration": 0.1998,
      "velocity": 118,
      "chip": "ym2612"
    },
    {
      "channel": 1,
      "note": 29,
      "start": 28.0022,
      "duration": 0.1982,
      "velocity": 118,
      "chip": "ym2612"
    },
    {
      "channel": 0,
      "note": 47,
      "start": 28.1005,
      "duration": 0.1999,
      "velocity": 118,
      "chip": "ym2612"
    },
    {
      "channel": 1,
      "note": 55,
      "start": 28.2006,
      "duration": 0.2019,
      "velocity": 127,
      "chip": "ym2612"
    },
    {
      "channel": 2,
      "note": 46,
      "start": 28.2012,
      "duration": 0.0998,
      "velocity": 111,
      "chip": "ym2612"
    },
    {
      "channel": 0,
      "note": 46,
      "start": 28.3005,
      "duration": 0.0998,
      "velocity": 118,
      "chip": "ym2612"
    },
    {
      "channel": 2,
      "note": 53,
      "start": 28.3012,
      "duration": 0.1035,
      "velocity": 127,
      "chip": "ym2612"
    },
    {
      "channel": 0,
      "note": 53,
      "start": 28.4005,
      "duration": 0.1999,
      "velocity": 118,
      "chip": "ym2612"
    },
    {
      "channel": 1,
      "note": 29,
      "start": 28.4027,
      "duration": 0.0994,
      "velocity": 118,
      "chip": "ym2612"
    },
    {
      "channel": 2,
      "note": 24,
      "start": 28.4048,
      "duration": 0.0994,
      "velocity": 111,
      "chip": "ym2612"
    },
    {
      "channel": 1,
      "note": 51,
      "start": 28.5022,
      "duration": 0.0987,
      "velocity": 118,
      "chip": "ym2612"
    },
    {
      "channel": 2,
      "note": 56,
      "start": 28.5044,
      "duration": 0.0971,
      "velocity": 111,
      "chip": "ym2612"
    },
    {
      "channel": 0,
      "note": 56,
      "start": 28.6005,
      "duration": 0.1999,
      "velocity": 118,
      "chip": "ym2612"
    },
    {
      "channel": 1,
      "note": 53,
      "start": 28.6011,
      "duration": 0.0993,
      "velocity": 118,
      "chip": "ym2612"
    },
    {
      "channel": 2,
      "note": 58,
      "start": 28.6016,
      "duration": 0.0997,
      "velocity": 111,
      "chip": "ym2612"
    },
    {
      "channel": 1,
      "note": 56,
      "start": 28.7006,
      "duration": 0.102,
      "velocity": 127,
      "chip": "ym2612"
    },
    {
      "channel": 2,
      "note": 57,
      "start": 28.7013,
      "duration": 0.0321,
      "velocity": 111,
      "chip": "ym2612"
    },
    {
      "channel": 2,
      "note": 55,
      "start": 28.7334,
      "duration": 0.0167,
      "velocity": 111,
      "chip": "ym2612"
    },
    {
      "channel": 2,
      "note": 55,
      "start": 28.7501,
      "duration": 0.0167,
      "velocity": 111,
      "chip": "ym2612"
    },
    {
      "channel": 2,
      "note": 54,
      "start": 28.7668,
      "duration": 0.0167,
      "velocity": 111,
      "chip": "ym2612"
    },
    {
      "channel": 2,
      "note": 53,
      "start": 28.7834,
      "duration": 0.0197,
      "velocity": 111,
      "chip": "ym2612"
    },
    {
      "channel": 0,
      "note": 46,
      "start": 28.8005,
      "duration": 0.1998,
      "velocity": 118,
      "chip": "ym2612"
    },
    {
      "channel": 1,
      "note": 29,
      "start": 28.8027,
      "duration": 0.1982,
      "velocity": 118,
      "chip": "ym2612"
    },
    {
      "channel": 2,
      "note": 46,
      "start": 28.8033,
      "duration": 0.2982,
      "velocity": 111,
      "chip": "ym2612"
    },
    {
      "channel": 0,
      "note": 46,
      "start": 29.0005,
      "duration": 0.0999,
      "velocity": 118,
      "chip": "ym2612"
    },
    {
      "channel": 1,
      "note": 58,
      "start": 29.001,
      "duration": 0.0999,
      "velocity": 118,
      "chip": "ym2612"
    },
    {
      "channel": 0,
      "note": 53,
      "start": 29.1005,
      "duration": 0.1998,
      "velocity": 118,
      "chip": "ym2612"
    },
    {
      "channel": 1,
      "note": 56,
      "start": 29.1011,
      "duration": 0.101,
      "velocity": 127,
      "chip": "ym2612"
    },
    {
      "channel": 2,
      "note": 47,
      "start": 29.1016,
      "duration": 0.1025,
      "velocity": 127,
      "chip": "ym2612"
    },
    {
      "channel": 1,
      "note": 29,
      "start": 29.2022,
      "duration": 0.1002,
      "velocity": 118,
      "chip": "ym2612"
    },
    {
      "channel": 2,
      "note": 24,
      "start": 29.2044,
      "duration": 0.1982,
      "velocity": 111,
      "chip": "ym2612"
    },
    {
      "channel": 0,
      "note": 56,
      "start": 29.3005,
      "duration": 0.1999,
      "velocity": 118,
      "chip": "ym2612"
    },
    {
      "channel": 1,
      "note": 53,
      "start": 29.3027,
      "duration": 0.0978,
      "velocity": 118,
      "chip": "ym2612"
    },
    {
      "channel": 1,
      "note": 56,
      "start": 29.4006,
      "duration": 0.2014,
      "velocity": 127,
      "chip": "ym2612"
    },
    {
      "channel": 2,
      "note": 46,
      "start": 29.4028,
      "duration": 0.3977,
      "velocity": 111,
      "chip": "ym2612"
    },
    {
      "channel": 0,
      "note": 46,
      "start": 29.5005,
      "duration": 0.1998,
      "velocity": 118,
      "chip": "ym2612"
    },
    {
      "channel": 1,
      "note": 29,
      "start": 29.6022,
      "duration": 0.1003,
      "velocity": 118,
      "chip": "ym2612"
    },
    {
      "channel": 0,
      "note": 47,
      "start": 29.7005,
      "duration": 0.1999,
      "velocity": 118,
      "chip": "ym2612"
    },
    {
      "channel": 1,
      "note": 55,
      "start": 29.7027,
      "duration": 0.1982,
      "velocity": 118,
      "chip": "ym2612"
    },
    {
      "channel": 2,
      "note": 46,
      "start": 29.8007,
      "duration": 0.1008,
      "velocity": 111,
      "chip": "ym2612"
    },
    {
      "channel": 0,
      "note": 46,
      "start": 29.9005,
      "duration": 0.0999,
      "velocity": 118,
      "chip": "ym2612"
    },
    {
      "channel": 1,
      "note": 51,
      "start": 29.9011,
      "duration": 0.1015,
      "velocity": 127,
      "chip": "ym2612"
    },
    {
      "channel": 2,
      "note": 53,
      "start": 29.9016,
      "duration": 0.1031,
      "velocity": 127,
      "chip": "ym2612"
    },
    {
      "channel": 0,
      "note": 53,
      "start": 30.0005,
      "duration": 0.1999,
      "velocity": 118,
      "chip": "ym2612"
    },
    {
      "channel": 1,
      "note": 29,
      "start": 30.0027,
      "duration": 0.0994,
      "velocity": 118,
      "chip": "ym2612"
    },
    {
      "channel": 2,
      "note": 24,
      "start": 30.0049,
      "duration": 0.0993,
      "velocity": 111,
      "chip": "ym2612"
    },
    {
      "channel": 1,
      "note": 49,
      "start": 30.1022,
      "duration": 0.0987,
      "velocity": 118,
      "chip": "ym2612"
    },
    {
      "channel": 2,
      "note": 56,
      "start": 30.1044,
      "duration": 0.0971,
      "velocity": 111,
      "chip": "ym2612"
    },
    {
      "channel": 0,
      "note": 56,
      "start": 30.2005,
      "duration": 0.1999,
      "velocity": 118,
      "chip": "ym2612"
    },
    {
      "channel": 1,
      "note": 51,
      "start": 30.2011,
      "duration": 0.0993,
      "velocity": 118,
      "chip": "ym2612"
    },
    {
      "channel": 2,
      "note": 58,
      "start": 30.2016,
      "duration": 0.0997,
      "velocity": 111,
      "chip": "ym2612"
    },
    {
      "channel": 1,
      "note": 53,
      "start": 30.3006,
      "duration": 0.102,
      "velocity": 127,
      "chip": "ym2612"
    },
    {
      "channel": 2,
      "note": 57,
      "start": 30.3013,
      "duration": 0.0321,
      "velocity": 111,
      "chip": "ym2612"
    },
    {
      "channel": 2,
      "note": 55,
      "start": 30.3334,
      "duration": 0.0167,
      "velocity": 111,
      "chip": "ym2612"
    },
    {
      "channel": 2,
      "note": 55,
      "start": 30.3501,
      "duration": 0.0167,
      "velocity": 111,
      "chip": "ym2612"
    },
    {
      "channel": 2,
      "note": 54,
      "start": 30.3668,
      "duration": 0.0167,
      "velocity": 111,
      "chip": "ym2612"
    },
    {
      "channel": 2,
      "note": 53,
      "start": 30.3834,
      "duration": 0.0197,
      "velocity": 111,
      "chip": "ym2612"
    },
    {
      "channel": 0,
      "note": 46,
      "start": 30.4005,
      "duration": 0.1998,
      "velocity": 118,
      "chip": "ym2612"
    },
    {
      "channel": 1,
      "note": 29,
      "start": 30.4027,
      "duration": 0.1982,
      "velocity": 118,
      "chip": "ym2612"
    },
    {
      "channel": 2,
      "note": 46,
      "start": 30.4033,
      "duration": 0.2982,
      "velocity": 111,
      "chip": "ym2612"
    },
    {
      "channel": 0,
      "note": 46,
      "start": 30.6005,
      "duration": 0.0999,
      "velocity": 118,
      "chip": "ym2612"
    },
    {
      "channel": 1,
      "note": 58,
      "start": 30.601,
      "duration": 0.0999,
      "velocity": 118,
      "chip": "ym2612"
    },
    {
      "channel": 0,
      "note": 53,
      "start": 30.7005,
      "duration": 0.1998,
      "velocity": 118,
      "chip": "ym2612"
    },
    {
      "channel": 1,
      "note": 56,
      "start": 30.7011,
      "duration": 0.101,
      "velocity": 127,
      "chip": "ym2612"
    },
    {
      "channel": 2,
      "note": 47,
      "start": 30.7016,
      "duration": 0.1025,
      "velocity": 127,
      "chip": "ym2612"
    },
    {
      "channel": 1,
      "note": 29,
      "start": 30.8022,
      "duration": 0.1003,
      "velocity": 118,
      "chip": "ym2612"
    },
    {
      "channel": 2,
      "note": 24,
      "start": 30.8044,
      "duration": 0.1982,
      "velocity": 111,
      "chip": "ym2612"
    },
    {
      "channel": 0,
      "note": 56,
      "start": 30.9005,
      "duration": 0.1999,
      "velocity": 118,
      "chip": "ym2612"
    },
    {
      "channel": 1,
      "note": 53,
      "start": 30.9027,
      "duration": 0.0978,
      "velocity": 118,
      "chip": "ym2612"
    },
    {
      "channel": 1,
      "note": 56,
      "start": 31.0006,
      "duration": 0.2015,
      "velocity": 127,
      "chip": "ym2612"
    },
    {
      "channel": 2,
      "note": 46,
      "start": 31.0028,
      "duration": 0.3982,
      "velocity": 111,
      "chip": "ym2612"
    },
    {
      "channel": 0,
      "note": 46,
      "start": 31.1005,
      "duration": 0.1998,
      "velocity": 118,
      "chip": "ym2612"
    },
    {
      "channel": 1,
      "note": 29,
      "start": 31.2022,
      "duration": 0.1003,
      "velocity": 118,
      "chip": "ym2612"
    },
    {
      "channel": 0,
      "note": 47,
      "start": 31.3005,
      "duration": 0.1999,
      "velocity": 118,
      "chip": "ym2612"
    },
    {
      "channel": 1,
      "note": 49,
      "start": 31.3027,
      "duration": 0.0978,
      "velocity": 118,
      "chip": "ym2612"
    },
    {
      "channel": 1,
      "note": 51,
      "start": 31.4006,
      "duration": 0.1003,
      "velocity": 118,
      "chip": "ym2612"
    },
    {
      "channel": 2,
      "note": 46,
      "start": 31.4012,
      "duration": 0.1003,
      "velocity": 111,
      "chip": "ym2612"
    },
    {
      "channel": 0,
      "note": 46,
      "start": 31.5005,
      "duration": 0.0999,
      "velocity": 118,
      "chip": "ym2612"
    },
    {
      "channel": 1,
      "note": 53,
      "start": 31.5011,
      "duration": 0.1015,
      "velocity": 127,
      "chip": "ym2612"
    },
    {
      "channel": 2,
      "note": 53,
      "start": 31.5017,
      "duration": 0.103,
      "velocity": 127,
      "chip": "ym2612"
    },
    {
      "channel": 0,
      "note": 53,
      "start": 31.6005,
      "duration": 0.1999,
      "velocity": 118,
      "chip": "ym2612"
    },
    {
      "channel": 1,
      "note": 29,
      "start": 31.6027,
      "duration": 0.0994,
      "velocity": 118,
      "chip": "ym2612"
    },
    {
      "channel": 2,
      "note": 24,
      "start": 31.6049,
      "duration": 0.0993,
      "velocity": 111,
      "chip": "ym2612"
    },
    {
      "channel": 1,
      "note": 61,
      "start": 31.7022,
      "duration": 0.0987,
      "velocity": 118,
      "chip": "ym2612"
    },
    {
      "channel": 2,
      "note": 56,
      "start": 31.7044,
      "duration": 0.0971,
      "velocity": 111,
      "chip": "ym2612"
    },
    {
      "channel": 0,
      "note": 56,
      "start": 31.8005,
      "duration": 0.2,
      "velocity": 118,
      "chip": "ym2612"
    },
    {
      "channel": 1,
      "note": 63,
      "start": 31.8011,
      "duration": 0.0994,
      "velocity": 118,
      "chip": "ym2612"
    },
    {
      "channel": 2,
      "note": 58,
      "start": 31.8016,
      "duration": 0.0998,
      "velocity": 111,
      "chip": "ym2612"
    },
    {
      "channel": 1,
      "note": 65,
      "start": 31.9007,
      "duration": 0.102,
      "velocity": 127,
      "chip": "ym2612"
    },
    {
      "channel": 2,
      "note": 57,
      "start": 31.9014,
      "duration": 0.0321,
      "velocity": 111,
      "chip": "ym2612"
    },
    {
      "channel": 2,
      "note": 55,
      "start": 31.9334,
      "duration": 0.0167,
      "velocity": 111,
      "chip": "ym2612"
    },
    {
      "channel": 2,
      "note": 55,
      "start": 31.9501,
      "duration": 0.0167,
      "velocity": 111,
      "chip": "ym2612"
    },
    {
      "channel": 2,
      "note": 54,
      "start": 31.9668,
      "duration": 0.0167,
      "velocity": 111,
      "chip": "ym2612"
    },
    {
      "channel": 2,
      "note": 53,
      "start": 31.9834,
      "duration": 0.0199,
      "velocity": 111,
      "chip": "ym2612"
    },
    {
      "channel": 0,
      "note": 46,
      "start": 32.0007,
      "duration": 0.1996,
      "velocity": 118,
      "chip": "ym2612"
    },
    {
      "channel": 1,
      "note": 29,
      "start": 32.0029,
      "duration": 0.1996,
      "velocity": 118,
      "chip": "ym2612"
    },
    {
      "channel": 2,
      "note": 46,
      "start": 32.0034,
      "duration": 0.298,
      "velocity": 111,
      "chip": "ym2612"
    },
    {
      "channel": 3,
      "note": 65,
      "start": 32.0041,
      "duration": 0.9975,
      "velocity": 123,
      "chip": "ym2612"
    },
    {
      "channel": 0,
      "note": 46,
      "start": 32.2005,
      "duration": 0.0999,
      "velocity": 118,
      "chip": "ym2612"
    },
    {
      "channel": 1,
      "note": 58,
      "start": 32.2027,
      "duration": 0.0982,
      "velocity": 118,
      "chip": "ym2612"
    },
    {
      "channel": 0,
      "note": 53,
      "start": 32.3005,
      "duration": 0.1998,
      "velocity": 118,
      "chip": "ym2612"
    },
    {
      "channel": 1,
      "note": 56,
      "start": 32.3011,
      "duration": 0.101,
      "velocity": 127,
      "chip": "ym2612"
    },
    {
      "channel": 2,
      "note": 47,
      "start": 32.3017,
      "duration": 0.1025,
      "velocity": 127,
      "chip": "ym2612"
    },
    {
      "channel": 1,
      "note": 29,
      "start": 32.4022,
      "duration": 0.1003,
      "velocity": 118,
      "chip": "ym2612"
    },
    {
      "channel": 2,
      "note": 24,
      "start": 32.4044,
      "duration": 0.1982,
      "velocity": 111,
      "chip": "ym2612"
    },
    {
      "channel": 0,
      "note": 56,
      "start": 32.5005,
      "duration": 0.1999,
      "velocity": 118,
      "chip": "ym2612"
    },
    {
      "channel": 1,
      "note": 53,
      "start": 32.5027,
      "duration": 0.0978,
      "velocity": 118,
      "chip": "ym2612"
    },
    {
      "channel": 1,
      "note": 56,
      "start": 32.6006,
      "duration": 0.2015,
      "velocity": 127,
      "chip": "ym2612"
    },
    {
      "channel": 2,
      "note": 46,
      "start": 32.6028,
      "duration": 0.3983,
      "velocity": 111,
      "chip": "ym2612"
    },
    {
      "channel": 0,
      "note": 46,
      "start": 32.7005,
      "duration": 0.1998,
      "velocity": 118,
      "chip": "ym2612"
    },
    {
      "channel": 1,
      "note": 29,
      "start": 32.8022,
      "duration": 0.1983,
      "velocity": 118,
      "chip": "ym2612"
    },
    {
      "channel": 0,
      "note": 47,
      "start": 32.9005,
      "duration": 0.1999,
      "velocity": 118,
      "chip": "ym2612"
    },
    {
      "channel": 1,
      "note": 55,
      "start": 33.0007,
      "duration": 0.2019,
      "velocity": 127,
      "chip": "ym2612"
    },
    {
      "channel": 2,
      "note": 46,
      "start": 33.0012,
      "duration": 0.0999,
      "velocity": 111,
      "chip": "ym2612"
    },
    {
      "channel": 3,
      "note": 58,
      "start": 33.0017,
      "duration": 0.2035,
      "velocity": 123,
      "chip": "ym2612"
    },
    {
      "channel": 0,
      "note": 46,
      "start": 33.1006,
      "duration": 0.0998,
      "velocity": 118,
      "chip": "ym2612"
    },
    {
      "channel": 2,
      "note": 53,
      "start": 33.1012,
      "duration": 0.1036,
      "velocity": 127,
      "chip": "ym2612"
    },
    {
      "channel": 0,
      "note": 53,
      "start": 33.2006,
      "duration": 0.1998,
      "velocity": 118,
      "chip": "ym2612"
    },
    {
      "channel": 1,
      "note": 29,
      "start": 33.2028,
      "duration": 0.0993,
      "velocity": 118,
      "chip": "ym2612"
    },
    {
      "channel": 2,
      "note": 24,
      "start": 33.2049,
      "duration": 0.0994,
      "velocity": 111,
      "chip": "ym2612"
    },
    {
      "channel": 3,
      "note": 65,
      "start": 33.2054,
      "duration": 0.1966,
      "velocity": 123,
      "chip": "ym2612"
    },
    {
      "channel": 1,
      "note": 51,
      "start": 33.3022,
      "duration": 0.0987,
      "velocity": 118,
      "chip": "ym2612"
    },
    {
      "channel": 2,
      "note": 56,
      "start": 33.3044,
      "duration": 0.0971,
      "velocity": 111,
      "chip": "ym2612"
    },
    {
      "channel": 0,
      "note": 56,
      "start": 33.4006,
      "duration": 0.1998,
      "velocity": 118,
      "chip": "ym2612"
    },
    {
      "channel": 1,
      "note": 53,
      "start": 33.4011,
      "duration": 0.0994,
      "velocity": 118,
      "chip": "ym2612"
    },
    {
      "channel": 2,
      "note": 58,
      "start": 33.4017,
      "duration": 0.0997,
      "velocity": 111,
      "chip": "ym2612"
    },
    {
      "channel": 3,
      "note": 64,
      "start": 33.4022,
      "duration": 0.3993,
      "velocity": 123,
      "chip": "ym2612"
    },
    {
      "channel": 1,
      "note": 56,
      "start": 33.5007,
      "duration": 0.1018,
      "velocity": 127,
      "chip": "ym2612"
    },
    {
      "channel": 2,
      "note": 57,
      "start": 33.5014,
      "duration": 0.0321,
      "velocity": 111,
      "chip": "ym2612"
    },
    {
      "channel": 2,
      "note": 55,
      "start": 33.5334,
      "duration": 0.0167,
      "velocity": 111,
      "chip": "ym2612"
    },
    {
      "channel": 2,
      "note": 55,
      "start": 33.5501,
      "duration": 0.0167,
      "velocity": 111,
      "chip": "ym2612"
    },
    {
      "channel": 2,
      "note": 54,
      "start": 33.5668,
      "duration": 0.0167,
      "velocity": 111,
      "chip": "ym2612"
    },
    {
      "channel": 2,
      "note": 53,
      "start": 33.5834,
      "duration": 0.0197,
      "velocity": 111,
      "chip": "ym2612"
    },
    {
      "channel": 0,
      "note": 46,
      "start": 33.6005,
      "duration": 0.1998,
      "velocity": 118,
      "chip": "ym2612"
    },
    {
      "channel": 1,
      "note": 29,
      "start": 33.6027,
      "duration": 0.1982,
      "velocity": 118,
      "chip": "ym2612"
    },
    {
      "channel": 2,
      "note": 46,
      "start": 33.6033,
      "duration": 0.2982,
      "velocity": 111,
      "chip": "ym2612"
    },
    {
      "channel": 0,
      "note": 46,
      "start": 33.8005,
      "duration": 0.0999,
      "velocity": 118,
      "chip": "ym2612"
    },
    {
      "channel": 1,
      "note": 58,
      "start": 33.8011,
      "duration": 0.0999,
      "velocity": 118,
      "chip": "ym2612"
    },
    {
      "channel": 3,
      "note": 60,
      "start": 33.8017,
      "duration": 1.4019,
      "velocity": 123,
      "chip": "ym2612"
    },
    {
      "channel": 0,
      "note": 53,
      "start": 33.9006,
      "duration": 0.1998,
      "velocity": 118,
      "chip": "ym2612"
    },
    {
      "channel": 1,
      "note": 56,
      "start": 33.9011,
      "duration": 0.101,
      "velocity": 127,
      "chip": "ym2612"
    },
    {
      "channel": 2,
      "note": 47,
      "start": 33.9017,
      "duration": 0.1025,
      "velocity": 127,
      "chip": "ym2612"
    },
    {
      "channel": 1,
      "note": 29,
      "start": 34.0022,
      "duration": 0.1003,
      "velocity": 118,
      "chip": "ym2612"
    },
    {
      "channel": 2,
      "note": 24,
      "start": 34.0044,
      "duration": 0.1982,
      "velocity": 111,
      "chip": "ym2612"
    },
    {
      "channel": 0,
      "note": 56,
      "start": 34.1005,
      "duration": 0.1999,
      "velocity": 118,
      "chip": "ym2612"
    },
    {
      "channel": 1,
      "note": 53,
      "start": 34.1027,
      "duration": 0.0978,
      "velocity": 118,
      "chip": "ym2612"
    },
    {
      "channel": 1,
      "note": 56,
      "start": 34.2006,
      "duration": 0.2014,
      "velocity": 127,
      "chip": "ym2612"
    },
    {
      "channel": 2,
      "note": 46,
      "start": 34.2028,
      "duration": 0.3982,
      "velocity": 111,
      "chip": "ym2612"
    },
    {
      "channel": 0,
      "note": 46,
      "start": 34.3005,
      "duration": 0.1998,
      "velocity": 118,
      "chip": "ym2612"
    },
    {
      "channel": 1,
      "note": 29,
      "start": 34.4022,
      "duration": 0.1982,
      "velocity": 118,
      "chip": "ym2612"
    },
    {
      "channel": 0,
      "note": 47,
      "start": 34.5005,
      "duration": 0.1999,
      "velocity": 118,
      "chip": "ym2612"
    },
    {
      "channel": 1,
      "note": 55,
      "start": 34.6006,
      "duration": 0.2019,
      "velocity": 127,
      "chip": "ym2612"
    },
    {
      "channel": 2,
      "note": 46,
      "start": 34.6012,
      "duration": 0.0998,
      "velocity": 111,
      "chip": "ym2612"
    },
    {
      "channel": 0,
      "note": 46,
      "start": 34.7005,
      "duration": 0.0999,
      "velocity": 118,
      "chip": "ym2612"
    },
    {
      "channel": 2,
      "note": 53,
      "start": 34.7012,
      "duration": 0.1035,
      "velocity": 127,
      "chip": "ym2612"
    },
    {
      "channel": 0,
      "note": 53,
      "start": 34.8005,
      "duration": 0.1999,
      "velocity": 118,
      "chip": "ym2612"
    },
    {
      "channel": 1,
      "note": 29,
      "start": 34.8027,
      "duration": 0.0994,
      "velocity": 118,
      "chip": "ym2612"
    },
    {
      "channel": 2,
      "note": 24,
      "start": 34.8048,
      "duration": 0.0994,
      "velocity": 111,
      "chip": "ym2612"
    },
    {
      "channel": 1,
      "note": 51,
      "start": 34.9022,
      "duration": 0.0987,
      "velocity": 118,
      "chip": "ym2612"
    },
    {
      "channel": 2,
      "note": 56,
      "start": 34.9044,
      "duration": 0.0971,
      "velocity": 111,
      "chip": "ym2612"
    },
    {
      "channel": 0,
      "note": 56,
      "start": 35.0005,
      "duration": 0.1999,
      "velocity": 118,
      "chip": "ym2612"
    },
    {
      "channel": 1,
      "note": 53,
      "start": 35.0011,
      "duration": 0.0993,
      "velocity": 118,
      "chip": "ym2612"
    },
    {
      "channel": 2,
      "note": 58,
      "start": 35.0016,
      "duration": 0.0997,
      "velocity": 111,
      "chip": "ym2612"
    },
    {
      "channel": 1,
      "note": 56,
      "start": 35.1006,
      "duration": 0.102,
      "velocity": 127,
      "chip": "ym2612"
    },
    {
      "channel": 2,
      "note": 57,
      "start": 35.1013,
      "duration": 0.0321,
      "velocity": 111,
      "chip": "ym2612"
    },
    {
      "channel": 2,
      "note": 55,
      "start": 35.1334,
      "duration": 0.0167,
      "velocity": 111,
      "chip": "ym2612"
    },
    {
      "channel": 2,
      "note": 55,
      "start": 35.1501,
      "duration": 0.0167,
      "velocity": 111,
      "chip": "ym2612"
    },
    {
      "channel": 2,
      "note": 54,
      "start": 35.1668,
      "duration": 0.0167,
      "velocity": 111,
      "chip": "ym2612"
    },
    {
      "channel": 2,
      "note": 53,
      "start": 35.1834,
      "duration": 0.0197,
      "velocity": 111,
      "chip": "ym2612"
    },
    {
      "channel": 0,
      "note": 46,
      "start": 35.2006,
      "duration": 0.1998,
      "velocity": 118,
      "chip": "ym2612"
    },
    {
      "channel": 1,
      "note": 29,
      "start": 35.2028,
      "duration": 0.1981,
      "velocity": 118,
      "chip": "ym2612"
    },
    {
      "channel": 2,
      "note": 46,
      "start": 35.2033,
      "duration": 0.2982,
      "velocity": 111,
      "chip": "ym2612"
    },
    {
      "channel": 3,
      "note": 53,
      "start": 35.2038,
      "duration": 3.2031,
      "velocity": 94,
      "chip": "ym2612"
    },
    {
      "channel": 0,
      "note": 46,
      "start": 35.4005,
      "duration": 0.0999,
      "velocity": 118,
      "chip": "ym2612"
    },
    {
      "channel": 1,
      "note": 58,
      "start": 35.401,
      "duration": 0.0999,
      "velocity": 118,
      "chip": "ym2612"
    },
    {
      "channel": 0,
      "note": 53,
      "start": 35.5005,
      "duration": 0.1998,
      "velocity": 118,
      "chip": "ym2612"
    },
    {
      "channel": 1,
      "note": 56,
      "start": 35.5011,
      "duration": 0.101,
      "velocity": 127,
      "chip": "ym2612"
    },
    {
      "channel": 2,
      "note": 47,
      "start": 35.5016,
      "duration": 0.1025,
      "velocity": 127,
      "chip": "ym2612"
    },
    {
      "channel": 1,
      "note": 29,
      "start": 35.6022,
      "duration": 0.1003,
      "velocity": 118,
      "chip": "ym2612"
    },
    {
      "channel": 2,
      "note": 24,
      "start": 35.6044,
      "duration": 0.1982,
      "velocity": 111,
      "chip": "ym2612"
    },
    {
      "channel": 0,
      "note": 56,
      "start": 35.7005,
      "duration": 0.1999,
      "velocity": 118,
      "chip": "ym2612"
    },
    {
      "channel": 1,
      "note": 53,
      "start": 35.7027,
      "duration": 0.0978,
      "velocity": 118,
      "chip": "ym2612"
    },
    {
      "channel": 1,
      "note": 56,
      "start": 35.8006,
      "duration": 0.2015,
      "velocity": 127,
      "chip": "ym2612"
    },
    {
      "channel": 2,
      "note": 46,
      "start": 35.8028,
      "duration": 0.3977,
      "velocity": 111,
      "chip": "ym2612"
    },
    {
      "channel": 0,
      "note": 46,
      "start": 35.9005,
      "duration": 0.1998,
      "velocity": 118,
      "chip": "ym2612"
    },
    {
      "channel": 1,
      "note": 29,
      "start": 36.0022,
      "duration": 0.1003,
      "velocity": 118,
      "chip": "ym2612"
    },
    {
      "channel": 0,
      "note": 47,
      "start": 36.1005,
      "duration": 0.1999,
      "velocity": 118,
      "chip": "ym2612"
    },
    {
      "channel": 1,
      "note": 55,
      "start": 36.1027,
      "duration": 0.1982,
      "velocity": 118,
      "chip": "ym2612"
    },
    {
      "channel": 2,
      "note": 46,
      "start": 36.2007,
      "duration": 0.1008,
      "velocity": 111,
      "chip": "ym2612"
    },
    {
      "channel": 0,
      "note": 46,
      "start": 36.3005,
      "duration": 0.0999,
      "velocity": 118,
      "chip": "ym2612"
    },
    {
      "channel": 1,
      "note": 51,
      "start": 36.3011,
      "duration": 0.1015,
      "velocity": 127,
      "chip": "ym2612"
    },
    {
      "channel": 2,
      "note": 53,
      "start": 36.3016,
      "duration": 0.1031,
      "velocity": 127,
      "chip": "ym2612"
    },
    {
      "channel": 0,
      "note": 53,
      "start": 36.4005,
      "duration": 0.1999,
      "velocity": 118,
      "chip": "ym2612"
    },
    {
      "channel": 1,
      "note": 29,
      "start": 36.4027,
      "duration": 0.0994,
      "velocity": 118,
      "chip": "ym2612"
    },
    {
      "channel": 2,
      "note": 24,
      "start": 36.4049,
      "duration": 0.0993,
      "velocity": 111,
      "chip": "ym2612"
    },
    {
      "channel": 1,
      "note": 49,
      "start": 36.5022,
      "duration": 0.0987,
      "velocity": 118,
      "chip": "ym2612"
    },
    {
      "channel": 2,
      "note": 56,
      "start": 36.5044,
      "duration": 0.0971,
      "velocity": 111,
      "chip": "ym2612"
    },
    {
      "channel": 0,
      "note": 56,
      "start": 36.6005,
      "duration": 0.1999,
      "velocity": 118,
      "chip": "ym2612"
    },
    {
      "channel": 1,
      "note": 51,
      "start": 36.6011,
      "duration": 0.0994,
      "velocity": 118,
      "chip": "ym2612"
    },
    {
      "channel": 2,
      "note": 58,
      "start": 36.6016,
      "duration": 0.0998,
      "velocity": 111,
      "chip": "ym2612"
    },
    {
      "channel": 1,
      "note": 53,
      "start": 36.7006,
      "duration": 0.102,
      "velocity": 127,
      "chip": "ym2612"
    },
    {
      "channel": 2,
      "note": 57,
      "start": 36.7014,
      "duration": 0.0321,
      "velocity": 111,
      "chip": "ym2612"
    },
    {
      "channel": 2,
      "note": 55,
      "start": 36.7334,
      "duration": 0.0167,
      "velocity": 111,
      "chip": "ym2612"
    },
    {
      "channel": 2,
      "note": 55,
      "start": 36.7501,
      "duration": 0.0167,
      "velocity": 111,
      "chip": "ym2612"
    },
    {
      "channel": 2,
      "note": 54,
      "start": 36.7668,
      "duration": 0.0167,
      "velocity": 111,
      "chip": "ym2612"
    },
    {
      "channel": 2,
      "note": 53,
      "start": 36.7834,
      "duration": 0.0197,
      "velocity": 111,
      "chip": "ym2612"
    },
    {
      "channel": 0,
      "note": 46,
      "start": 36.8005,
      "duration": 0.1998,
      "velocity": 118,
      "chip": "ym2612"
    },
    {
      "channel": 1,
      "note": 29,
      "start": 36.8027,
      "duration": 0.1982,
      "velocity": 118,
      "chip": "ym2612"
    },
    {
      "channel": 2,
      "note": 46,
      "start": 36.8033,
      "duration": 0.2982,
      "velocity": 111,
      "chip": "ym2612"
    },
    {
      "channel": 0,
      "note": 46,
      "start": 37.0005,
      "duration": 0.0998,
      "velocity": 118,
      "chip": "ym2612"
    },
    {
      "channel": 1,
      "note": 58,
      "start": 37.0011,
      "duration": 0.0998,
      "velocity": 118,
      "chip": "ym2612"
    },
    {
      "channel": 0,
      "note": 53,
      "start": 37.1005,
      "duration": 0.1998,
      "velocity": 118,
      "chip": "ym2612"
    },
    {
      "channel": 1,
      "note": 56,
      "start": 37.1011,
      "duration": 0.101,
      "velocity": 127,
      "chip": "ym2612"
    },
    {
      "channel": 2,
      "note": 47,
      "start": 37.1016,
      "duration": 0.1025,
      "velocity": 127,
      "chip": "ym2612"
    },
    {
      "channel": 1,
      "note": 29,
      "start": 37.2022,
      "duration": 0.1003,
      "velocity": 118,
      "chip": "ym2612"
    },
    {
      "channel": 2,
      "note": 24,
      "start": 37.2044,
      "duration": 0.1982,
      "velocity": 111,
      "chip": "ym2612"
    },
    {
      "channel": 0,
      "note": 56,
      "start": 37.3005,
      "duration": 0.1999,
      "velocity": 118,
      "chip": "ym2612"
    },
    {
      "channel": 1,
      "note": 53,
      "start": 37.3027,
      "duration": 0.0978,
      "velocity": 118,
      "chip": "ym2612"
    },
    {
      "channel": 1,
      "note": 56,
      "start": 37.4006,
      "duration": 0.2014,
      "velocity": 127,
      "chip": "ym2612"
    },
    {
      "channel": 2,
      "note": 46,
      "start": 37.4028,
      "duration": 0.3982,
      "velocity": 111,
      "chip": "ym2612"
    },
    {
      "channel": 0,
      "note": 46,
      "start": 37.5005,
      "duration": 0.1998,
      "velocity": 118,
      "chip": "ym2612"
    },
    {
      "channel": 1,
      "note": 29,
      "start": 37.6022,
      "duration": 0.1003,
      "velocity": 118,
      "chip": "ym2612"
    },
    {
      "channel": 0,
      "note": 47,
      "start": 37.7005,
      "duration": 0.1999,
      "velocity": 118,
      "chip": "ym2612"
    },
    {
      "channel": 1,
      "note": 49,
      "start": 37.7027,
      "duration": 0.0978,
      "velocity": 118,
      "chip": "ym2612"
    },
    {
      "channel": 1,
      "note": 51,
      "start": 37.8006,
      "duration": 0.1003,
      "velocity": 118,
      "chip": "ym2612"
    },
    {
      "channel": 2,
      "note": 46,
      "start": 37.8012,
      "duration": 0.1003,
      "velocity": 111,
      "chip": "ym2612"
    },
    {
      "channel": 0,
      "note": 46,
      "start": 37.9005,
      "duration": 0.0999,
      "velocity": 118,
      "chip": "ym2612"
    },
    {
      "channel": 1,
      "note": 53,
      "start": 37.9011,
      "duration": 0.1015,
      "velocity": 127,
      "chip": "ym2612"
    },
    {
      "channel": 2,
      "note": 53,
      "start": 37.9016,
      "duration": 0.1031,
      "velocity": 127,
      "chip": "ym2612"
    },
    {
      "channel": 0,
      "note": 53,
      "start": 38.0005,
      "duration": 0.1999,
      "velocity": 118,
      "chip": "ym2612"
    },
    {
      "channel": 1,
      "note": 29,
      "start": 38.0027,
      "duration": 0.0994,
      "velocity": 118,
      "chip": "ym2612"
    },
    {
      "channel": 2,
      "note": 24,
      "start": 38.0049,
      "duration": 0.0993,
      "velocity": 111,
      "chip": "ym2612"
    },
    {
      "channel": 1,
      "note": 61,
      "start": 38.1022,
      "duration": 0.0987,
      "velocity": 118,
      "chip": "ym2612"
    },
    {
      "channel": 2,
      "note": 56,
      "start": 38.1044,
      "duration": 0.0971,
      "velocity": 111,
      "chip": "ym2612"
    },
    {
      "channel": 0,
      "note": 56,
      "start": 38.2005,
      "duration": 0.2,
      "velocity": 118,
      "chip": "ym2612"
    },
    {
      "channel": 1,
      "note": 63,
      "start": 38.2011,
      "duration": 0.0994,
      "velocity": 118,
      "chip": "ym2612"
    },
    {
      "channel": 2,
      "note": 58,
      "start": 38.2016,
      "duration": 0.1014,
      "velocity": 111,
      "chip": "ym2612"
    },
    {
      "channel": 1,
      "note": 65,
      "start": 38.3007,
      "duration": 0.102,
      "velocity": 127,
      "chip": "ym2612"
    },
    {
      "channel": 2,
      "note": 57,
      "start": 38.303,
      "duration": 0.0304,
      "velocity": 111,
      "chip": "ym2612"
    },
    {
      "channel": 2,
      "note": 55,
      "start": 38.3334,
      "duration": 0.0167,
      "velocity": 111,
      "chip": "ym2612"
    },
    {
      "channel": 2,
      "note": 55,
      "start": 38.3501,
      "duration": 0.0167,
      "velocity": 111,
      "chip": "ym2612"
    },
    {
      "channel": 2,
      "note": 54,
      "start": 38.3668,
      "duration": 0.0167,
      "velocity": 111,
      "chip": "ym2612"
    },
    {
      "channel": 2,
      "note": 53,
      "start": 38.3834,
      "duration": 0.0214,
      "velocity": 94,
      "chip": "ym2612"
    },
    {
      "channel": 0,
      "note": 46,
      "start": 38.4007,
      "duration": 0.1997,
      "velocity": 118,
      "chip": "ym2612"
    },
    {
      "channel": 1,
      "note": 29,
      "start": 38.4028,
      "duration": 0.1997,
      "velocity": 118,
      "chip": "ym2612"
    },
    {
      "channel": 2,
      "note": 61,
      "start": 38.405,
      "duration": 1.397,
      "velocity": 94,
      "chip": "ym2612"
    },
    {
      "channel": 3,
      "note": 65,
      "start": 38.4071,
      "duration": 1.3951,
      "velocity": 94,
      "chip": "ym2612"
    },
    {
      "channel": 0,
      "note": 46,
      "start": 38.6005,
      "duration": 0.0998,
      "velocity": 118,
      "chip": "ym2612"
    },
    {
      "channel": 1,
      "note": 58,
      "start": 38.6027,
      "duration": 0.0982,
      "velocity": 118,
      "chip": "ym2612"
    },
    {
      "channel": 0,
      "note": 53,
      "start": 38.7005,
      "duration": 0.1998,
      "velocity": 118,
      "chip": "ym2612"
    },
    {
      "channel": 1,
      "note": 56,
      "start": 38.7011,
      "duration": 0.1009,
      "velocity": 127,
      "chip": "ym2612"
    },
    {
      "channel": 1,
      "note": 29,
      "start": 38.8022,
      "duration": 0.1003,
      "velocity": 118,
      "chip": "ym2612"
    },
    {
      "channel": 0,
      "note": 56,
      "start": 38.9005,
      "duration": 0.1998,
      "velocity": 118,
      "chip": "ym2612"
    },
    {
      "channel": 1,
      "note": 53,
      "start": 38.9027,
      "duration": 0.0977,
      "velocity": 118,
      "chip": "ym2612"
    },
    {
      "channel": 1,
      "note": 56,
      "start": 39.0006,
      "duration": 0.2014,
      "velocity": 127,
      "chip": "ym2612"
    },
    {
      "channel": 0,
      "note": 46,
      "start": 39.1005,
      "duration": 0.1998,
      "velocity": 118,
      "chip": "ym2612"
    },
    {
      "channel": 1,
      "note": 29,
      "start": 39.2022,
      "duration": 0.1982,
      "velocity": 118,
      "chip": "ym2612"
    },
    {
      "channel": 0,
      "note": 47,
      "start": 39.3005,
      "duration": 0.1998,
      "velocity": 118,
      "chip": "ym2612"
    },
    {
      "channel": 1,
      "note": 55,
      "start": 39.4006,
      "duration": 0.2019,
      "velocity": 127,
      "chip": "ym2612"
    },
    {
      "channel": 0,
      "note": 46,
      "start": 39.5005,
      "duration": 0.0998,
      "velocity": 118,
      "chip": "ym2612"
    },
    {
      "channel": 0,
      "note": 53,
      "start": 39.6005,
      "duration": 0.1999,
      "velocity": 118,
      "chip": "ym2612"
    },
    {
      "channel": 1,
      "note": 29,
      "start": 39.6027,
      "duration": 0.0993,
      "velocity": 118,
      "chip": "ym2612"
    },
    {
      "channel": 1,
      "note": 51,
      "start": 39.7022,
      "duration": 0.0988,
      "velocity": 118,
      "chip": "ym2612"
    },
    {
      "channel": 0,
      "note": 56,
      "start": 39.8006,
      "duration": 0.1998,
      "velocity": 118,
      "chip": "ym2612"
    },
    {
      "channel": 1,
      "note": 53,
      "start": 39.8012,
      "duration": 0.0993,
      "velocity": 118,
      "chip": "ym2612"
    },
    {
      "channel": 2,
      "note": 60,
      "start": 39.802,
      "duration": 0.0314,
      "velocity": 94,
      "chip": "ym2612"
    },
    {
      "channel": 3,
      "note": 64,
      "start": 39.8022,
      "duration": 0.0315,
      "velocity": 94,
      "chip": "ym2612"
    },
    {
      "channel": 2,
      "note": 58,
      "start": 39.8334,
      "duration": 0.0167,
      "velocity": 94,
      "chip": "ym2612"
    },
    {
      "channel": 3,
      "note": 63,
      "start": 39.8337,
      "duration": 0.0167,
      "velocity": 94,
      "chip": "ym2612"
    },
    {
      "channel": 2,
      "note": 57,
      "start": 39.8501,
      "duration": 0.0167,
      "velocity": 94,
      "chip": "ym2612"
    },
    {
      "channel": 3,
      "note": 62,
      "start": 39.8504,
      "duration": 0.0167,
      "velocity": 94,
      "chip": "ym2612"
    },
    {
      "channel": 2,
      "note": 56,
      "start": 39.8668,
      "duration": 0.0167,
      "velocity": 94,
      "chip": "ym2612"
    },
    {
      "channel": 3,
      "note": 61,
      "start": 39.8671,
      "duration": 0.0167,
      "velocity": 94,
      "chip": "ym2612"
    },
    {
      "channel": 2,
      "note": 55,
      "start": 39.8834,
      "duration": 0.018,
      "velocity": 94,
      "chip": "ym2612"
    },
    {
      "channel": 3,
      "note": 60,
      "start": 39.8837,
      "duration": 0.018,
      "velocity": 94,
      "chip": "ym2612"
    },
    {
      "channel": 1,
      "note": 56,
      "start": 39.9007,
      "duration": 0.1019,
      "velocity": 127,
      "chip": "ym2612"
    },
    {
      "channel": 2,
      "note": 56,
      "start": 39.9014,
      "duration": 0.032,
      "velocity": 94,
      "chip": "ym2612"
    },
    {
      "channel": 3,
      "note": 61,
      "start": 39.9017,
      "duration": 0.032,
      "velocity": 94,
      "chip": "ym2612"
    },
    {
      "channel": 2,
      "note": 57,
      "start": 39.9334,
      "duration": 0.0167,
      "velocity": 94,
      "chip": "ym2612"
    },
    {
      "channel": 3,
      "note": 62,
      "start": 39.9337,
      "duration": 0.0167,
      "velocity": 94,
      "chip": "ym2612"
    },
    {
      "channel": 2,
      "note": 58,
      "start": 39.9501,
      "duration": 0.0167,
      "velocity": 94,
      "chip": "ym2612"
    },
    {
      "channel": 3,
      "note": 63,
      "start": 39.9504,
      "duration": 0.0167,
      "velocity": 94,
      "chip": "ym2612"
    },
    {
      "channel": 2,
      "note": 60,
      "start": 39.9668,
      "duration": 0.0167,
      "velocity": 94,
      "chip": "ym2612"
    },
    {
      "channel": 3,
      "note": 64,
      "start": 39.9671,
      "duration": 0.0167,
      "velocity": 94,
      "chip": "ym2612"
    },
    {
      "channel": 2,
      "note": 61,
      "start": 39.9834,
      "duration": 0.0197,
      "velocity": 94,
      "chip": "ym2612"
    },
    {
      "channel": 3,
      "note": 65,
      "start": 39.9837,
      "duration": 0.0199,
      "velocity": 94,
      "chip": "ym2612"
    },
    {
      "channel": 0,
      "note": 46,
      "start": 40.0006,
      "duration": 0.1998,
      "velocity": 118,
      "chip": "ym2612"
    },
    {
      "channel": 1,
      "note": 29,
      "start": 40.0027,
      "duration": 0.1982,
      "velocity": 118,
      "chip": "ym2612"
    },
    {
      "channel": 2,
      "note": 64,
      "start": 40.0033,
      "duration": 1.3987,
      "velocity": 94,
      "chip": "ym2612"
    },
    {
      "channel": 3,
      "note": 60,
      "start": 40.0038,
      "duration": 1.3984,
      "velocity": 94,
      "chip": "ym2612"
    },
    {
      "channel": 0,
      "note": 46,
      "start": 40.2005,
      "duration": 0.0998,
      "velocity": 118,
      "chip": "ym2612"
    },
    {
      "channel": 1,
      "note": 58,
      "start": 40.2011,
      "duration": 0.0998,
      "velocity": 118,
      "chip": "ym2612"
    },
    {
      "channel": 0,
      "note": 53,
      "start": 40.3005,
      "duration": 0.1998,
      "velocity": 118,
      "chip": "ym2612"
    },
    {
      "channel": 1,
      "note": 56,
      "start": 40.301,
      "duration": 0.101,
      "velocity": 127,
      "chip": "ym2612"
    },
    {
      "channel": 1,
      "note": 29,
      "start": 40.4022,
      "duration": 0.1003,
      "velocity": 118,
      "chip": "ym2612"
    },
    {
      "channel": 0,
      "note": 56,
      "start": 40.5005,
      "duration": 0.1998,
      "velocity": 118,
      "chip": "ym2612"
    },
    {
      "channel": 1,
      "note": 53,
      "start": 40.5027,
      "duration": 0.0977,
      "velocity": 118,
      "chip": "ym2612"
    },
    {
      "channel": 1,
      "note": 56,
      "start": 40.6006,
      "duration": 0.2014,
      "velocity": 127,
      "chip": "ym2612"
    },
    {
      "channel": 0,
      "note": 46,
      "start": 40.7005,
      "duration": 0.1998,
      "velocity": 118,
      "chip": "ym2612"
    },
    {
      "channel": 1,
      "note": 29,
      "start": 40.8022,
      "duration": 0.1982,
      "velocity": 118,
      "chip": "ym2612"
    },
    {
      "channel": 0,
      "note": 47,
      "start": 40.9005,
      "duration": 0.1998,
      "velocity": 118,
      "chip": "ym2612"
    },
    {
      "channel": 1,
      "note": 55,
      "start": 41.0006,
      "duration": 0.2019,
      "velocity": 127,
      "chip": "ym2612"
    },
    {
      "channel": 0,
      "note": 46,
      "start": 41.1005,
      "duration": 0.0998,
      "velocity": 118,
      "chip": "ym2612"
    },
    {
      "channel": 0,
      "note": 53,
      "start": 41.2005,
      "duration": 0.1999,
      "velocity": 118,
      "chip": "ym2612"
    },
    {
      "channel": 1,
      "note": 29,
      "start": 41.2027,
      "duration": 0.0993,
      "velocity": 118,
      "chip": "ym2612"
    },
    {
      "channel": 1,
      "note": 51,
      "start": 41.3022,
      "duration": 0.0988,
      "velocity": 118,
      "chip": "ym2612"
    },
    {
      "channel": 0,
      "note": 56,
      "start": 41.4006,
      "duration": 0.1998,
      "velocity": 118,
      "chip": "ym2612"
    },
    {
      "channel": 1,
      "note": 53,
      "start": 41.4012,
      "duration": 0.0993,
      "velocity": 118,
      "chip": "ym2612"
    },
    {
      "channel": 2,
      "note": 63,
      "start": 41.402,
      "duration": 0.0314,
      "velocity": 94,
      "chip": "ym2612"
    },
    {
      "channel": 3,
      "note": 59,
      "start": 41.4022,
      "duration": 0.0315,
      "velocity": 94,
      "chip": "ym2612"
    },
    {
      "channel": 2,
      "note": 62,
      "start": 41.4334,
      "duration": 0.0167,
      "velocity": 94,
      "chip": "ym2612"
    },
    {
      "channel": 3,
      "note": 57,
      "start": 41.4337,
      "duration": 0.0167,
      "velocity": 94,
      "chip": "ym2612"
    },
    {
      "channel": 2,
      "note": 61,
      "start": 41.4501,
      "duration": 0.0167,
      "velocity": 94,
      "chip": "ym2612"
    },
    {
      "channel": 3,
      "note": 56,
      "start": 41.4504,
      "duration": 0.0167,
      "velocity": 94,
      "chip": "ym2612"
    },
    {
      "channel": 2,
      "note": 60,
      "start": 41.4668,
      "duration": 0.0167,
      "velocity": 94,
      "chip": "ym2612"
    },
    {
      "channel": 3,
      "note": 55,
      "start": 41.4671,
      "duration": 0.0167,
      "velocity": 94,
      "chip": "ym2612"
    },
    {
      "channel": 2,
      "note": 58,
      "start": 41.4834,
      "duration": 0.018,
      "velocity": 94,
      "chip": "ym2612"
    },
    {
      "channel": 3,
      "note": 54,
      "start": 41.4837,
      "duration": 0.018,
      "velocity": 94,
      "chip": "ym2612"
    },
    {
      "channel": 1,
      "note": 56,
      "start": 41.5007,
      "duration": 0.1019,
      "velocity": 127,
      "chip": "ym2612"
    },
    {
      "channel": 2,
      "note": 60,
      "start": 41.5014,
      "duration": 0.032,
      "velocity": 94,
      "chip": "ym2612"
    },
    {
      "channel": 3,
      "note": 55,
      "start": 41.5017,
      "duration": 0.032,
      "velocity": 94,
      "chip": "ym2612"
    },
    {
      "channel": 2,
      "note": 61,
      "start": 41.5334,
      "duration": 0.0167,
      "velocity": 94,
      "chip": "ym2612"
    },
    {
      "channel": 3,
      "note": 56,
      "start": 41.5337,
      "duration": 0.0167,
      "velocity": 94,
      "chip": "ym2612"
    },
    {
      "channel": 2,
      "note": 62,
      "start": 41.5501,
      "duration": 0.0167,
      "velocity": 94,
      "chip": "ym2612"
    },
    {
      "channel": 3,
      "note": 57,
      "start": 41.5504,
      "duration": 0.0167,
      "velocity": 94,
      "chip": "ym2612"
    },
    {
      "channel": 2,
      "note": 63,
      "start": 41.5668,
      "duration": 0.0167,
      "velocity": 94,
      "chip": "ym2612"
    },
    {
      "channel": 3,
      "note": 59,
      "start": 41.5671,
      "duration": 0.0167,
      "velocity": 94,
      "chip": "ym2612"
    },
    {
      "channel": 2,
      "note": 64,
      "start": 41.5834,
      "duration": 0.0197,
      "velocity": 94,
      "chip": "ym2612"
    },
    {
      "channel": 3,
      "note": 60,
      "start": 41.5837,
      "duration": 0.0199,
      "velocity": 94,
      "chip": "ym2612"
    },
    {
      "channel": 0,
      "note": 46,
      "start": 41.6006,
      "duration": 0.1998,
      "velocity": 118,
      "chip": "ym2612"
    },
    {
      "channel": 1,
      "note": 29,
      "start": 41.6027,
      "duration": 0.1982,
      "velocity": 118,
      "chip": "ym2612"
    },
    {
      "channel": 2,
      "note": 69,
      "start": 41.6033,
      "duration": 3.2015,
      "velocity": 111,
      "chip": "ym2612"
    },
    {
      "channel": 3,
      "note": 65,
      "start": 41.6038,
      "duration": 3.2031,
      "velocity": 123,
      "chip": "ym2612"
    },
    {
      "channel": 0,
      "note": 46,
      "start": 41.8005,
      "duration": 0.0998,
      "velocity": 118,
      "chip": "ym2612"
    },
    {
      "channel": 1,
      "note": 58,
      "start": 41.8011,
      "duration": 0.0998,
      "velocity": 118,
      "chip": "ym2612"
    },
    {
      "channel": 0,
      "note": 53,
      "start": 41.9005,
      "duration": 0.1998,
      "velocity": 118,
      "chip": "ym2612"
    },
    {
      "channel": 1,
      "note": 56,
      "start": 41.901,
      "duration": 0.101,
      "velocity": 127,
      "chip": "ym2612"
    },
    {
      "channel": 1,
      "note": 29,
      "start": 42.0022,
      "duration": 0.1003,
      "velocity": 118,
      "chip": "ym2612"
    },
    {
      "channel": 0,
      "note": 56,
      "start": 42.1005,
      "duration": 0.1998,
      "velocity": 118,
      "chip": "ym2612"
    },
    {
      "channel": 1,
      "note": 53,
      "start": 42.1027,
      "duration": 0.0977,
      "velocity": 118,
      "chip": "ym2612"
    },
    {
      "channel": 1,
      "note": 56,
      "start": 42.2006,
      "duration": 0.2014,
      "velocity": 127,
      "chip": "ym2612"
    },
    {
      "channel": 0,
      "note": 46,
      "start": 42.3005,
      "duration": 0.1998,
      "velocity": 118,
      "chip": "ym2612"
    },
    {
      "channel": 1,
      "note": 29,
      "start": 42.4022,
      "duration": 0.1003,
      "velocity": 118,
      "chip": "ym2612"
    },
    {
      "channel": 0,
      "note": 47,
      "start": 42.5005,
      "duration": 0.1998,
      "velocity": 118,
      "chip": "ym2612"
    },
    {
      "channel": 1,
      "note": 55,
      "start": 42.5027,
      "duration": 0.1982,
      "velocity": 118,
      "chip": "ym2612"
    },
    {
      "channel": 0,
      "note": 46,
      "start": 42.7005,
      "duration": 0.0998,
      "velocity": 118,
      "chip": "ym2612"
    },
    {
      "channel": 1,
      "note": 51,
      "start": 42.7011,
      "duration": 0.1014,
      "velocity": 127,
      "chip": "ym2612"
    },
    {
      "channel": 0,
      "note": 53,
      "start": 42.8005,
      "duration": 0.1998,
      "velocity": 118,
      "chip": "ym2612"
    },
    {
      "channel": 1,
      "note": 29,
      "start": 42.8027,
      "duration": 0.0994,
      "velocity": 118,
      "chip": "ym2612"
    },
    {
      "channel": 1,
      "note": 49,
      "start": 42.9022,
      "duration": 0.0987,
      "velocity": 118,
      "chip": "ym2612"
    },
    {
      "channel": 0,
      "note": 56,
      "start": 43.0005,
      "duration": 0.1998,
      "velocity": 118,
      "chip": "ym2612"
    },
    {
      "channel": 1,
      "note": 51,
      "start": 43.0011,
      "duration": 0.0993,
      "velocity": 118,
      "chip": "ym2612"
    },
    {
      "channel": 1,
      "note": 53,
      "start": 43.1006,
      "duration": 0.1019,
      "velocity": 127,
      "chip": "ym2612"
    },
    {
      "channel": 0,
      "note": 46,
      "start": 43.2005,
      "duration": 0.1998,
      "velocity": 118,
      "chip": "ym2612"
    },
    {
      "channel": 1,
      "note": 29,
      "start": 43.2027,
      "duration": 0.1982,
      "velocity": 118,
      "chip": "ym2612"
    },
    {
      "channel": 0,
      "note": 46,
      "start": 43.4005,
      "duration": 0.0998,
      "velocity": 118,
      "chip": "ym2612"
    },
    {
      "channel": 1,
      "note": 58,
      "start": 43.401,
      "duration": 0.0999,
      "velocity": 118,
      "chip": "ym2612"
    },
    {
      "channel": 0,
      "note": 53,
      "start": 43.5005,
      "duration": 0.1998,
      "velocity": 118,
      "chip": "ym2612"
    },
    {
      "channel": 1,
      "note": 56,
      "start": 43.501,
      "duration": 0.101,
      "velocity": 127,
      "chip": "ym2612"
    },
    {
      "channel": 1,
      "note": 29,
      "start": 43.6022,
      "duration": 0.1003,
      "velocity": 118,
      "chip": "ym2612"
    },
    {
      "channel": 0,
      "note": 56,
      "start": 43.7005,
      "duration": 0.1998,
      "velocity": 118,
      "chip": "ym2612"
    },
    {
      "channel": 1,
      "note": 53,
      "start": 43.7027,
      "duration": 0.0977,
      "velocity": 118,
      "chip": "ym2612"
    },
    {
      "channel": 1,
      "note": 56,
      "start": 43.8006,
      "duration": 0.2014,
      "velocity": 127,
      "chip": "ym2612"
    },
    {
      "channel": 0,
      "note": 46,
      "start": 43.9005,
      "duration": 0.1998,
      "velocity": 118,
      "chip": "ym2612"
    },
    {
      "channel": 1,
      "note": 29,
      "start": 44.0022,
      "duration": 0.1003,
      "velocity": 118,
      "chip": "ym2612"
    },
    {
      "channel": 0,
      "note": 47,
      "start": 44.1005,
      "duration": 0.1998,
      "velocity": 118,
      "chip": "ym2612"
    },
    {
      "channel": 1,
      "note": 49,
      "start": 44.1027,
      "duration": 0.0977,
      "velocity": 118,
      "chip": "ym2612"
    },
    {
      "channel": 1,
      "note": 51,
      "start": 44.2006,
      "duration": 0.1003,
      "velocity": 118,
      "chip": "ym2612"
    },
    {
      "channel": 0,
      "note": 46,
      "start": 44.3005,
      "duration": 0.0998,
      "velocity": 118,
      "chip": "ym2612"
    },
    {
      "channel": 1,
      "note": 53,
      "start": 44.301,
      "duration": 0.1015,
      "velocity": 127,
      "chip": "ym2612"
    },
    {
      "channel": 0,
      "note": 53,
      "start": 44.4005,
      "duration": 0.1998,
      "velocity": 118,
      "chip": "ym2612"
    },
    {
      "channel": 1,
      "note": 29,
      "start": 44.4027,
      "duration": 0.0994,
      "velocity": 118,
      "chip": "ym2612"
    },
    {
      "channel": 1,
      "note": 61,
      "start": 44.5022,
      "duration": 0.0987,
      "velocity": 118,
      "chip": "ym2612"
    },
    {
      "channel": 0,
      "note": 56,
      "start": 44.6005,
      "duration": 0.2,
      "velocity": 118,
      "chip": "ym2612"
    },
    {
      "channel": 1,
      "note": 63,
      "start": 44.6011,
      "duration": 0.0994,
      "velocity": 118,
      "chip": "ym2612"
    },
    {
      "channel": 1,
      "note": 65,
      "start": 44.7007,
      "duration": 0.102,
      "velocity": 127,
      "chip": "ym2612"
    },
    {
      "channel": 0,
      "note": 43,
      "start": 44.8007,
      "duration": 0.1997,
      "velocity": 118,
      "chip": "ym2612"
    },
    {
      "channel": 1,
      "note": 26,
      "start": 44.8028,
      "duration": 0.1997,
      "velocity": 118,
      "chip": "ym2612"
    },
    {
      "channel": 2,
      "note": 43,
      "start": 44.805,
      "duration": 0.2965,
      "velocity": 111,
      "chip": "ym2612"
    },
    {
      "channel": 3,
      "note": 55,
      "start": 44.8071,
      "duration": 2.3955,
      "velocity": 123,
      "chip": "ym2612"
    },
    {
      "channel": 0,
      "note": 43,
      "start": 45.0005,
      "duration": 0.0999,
      "velocity": 118,
      "chip": "ym2612"
    },
    {
      "channel": 1,
      "note": 55,
      "start": 45.0027,
      "duration": 0.0983,
      "velocity": 118,
      "chip": "ym2612"
    },
    {
      "channel": 0,
      "note": 50,
      "start": 45.1006,
      "duration": 0.1998,
      "velocity": 118,
      "chip": "ym2612"
    },
    {
      "channel": 1,
      "note": 53,
      "start": 45.1011,
      "duration": 0.101,
      "velocity": 127,
      "chip": "ym2612"
    },
    {
      "channel": 2,
      "note": 44,
      "start": 45.1017,
      "duration": 0.1025,
      "velocity": 127,
      "chip": "ym2612"
    },
    {
      "channel": 1,
      "note": 26,
      "start": 45.2022,
      "duration": 0.1003,
      "velocity": 118,
      "chip": "ym2612"
    },
    {
      "channel": 2,
      "note": 21,
      "start": 45.2044,
      "duration": 0.1982,
      "velocity": 111,
      "chip": "ym2612"
    },
    {
      "channel": 0,
      "note": 53,
      "start": 45.3005,
      "duration": 0.1999,
      "velocity": 118,
      "chip": "ym2612"
    },
    {
      "channel": 1,
      "note": 50,
      "start": 45.3027,
      "duration": 0.0977,
      "velocity": 118,
      "chip": "ym2612"
    },
    {
      "channel": 1,
      "note": 53,
      "start": 45.4006,
      "duration": 0.2015,
      "velocity": 127,
      "chip": "ym2612"
    },
    {
      "channel": 2,
      "note": 43,
      "start": 45.4027,
      "duration": 0.3983,
      "velocity": 111,
      "chip": "ym2612"
    },
    {
      "channel": 0,
      "note": 43,
      "start": 45.5005,
      "duration": 0.1998,
      "velocity": 118,
      "chip": "ym2612"
    },
    {
      "channel": 1,
      "note": 26,
      "start": 45.6022,
      "duration": 0.1982,
      "velocity": 118,
      "chip": "ym2612"
    },
    {
      "channel": 0,
      "note": 44,
      "start": 45.7005,
      "duration": 0.1999,
      "velocity": 118,
      "chip": "ym2612"
    },
    {
      "channel": 1,
      "note": 52,
      "start": 45.8006,
      "duration": 0.202,
      "velocity": 127,
      "chip": "ym2612"
    },
    {
      "channel": 2,
      "note": 43,
      "start": 45.8012,
      "duration": 0.0998,
      "velocity": 111,
      "chip": "ym2612"
    },
    {
      "channel": 0,
      "note": 43,
      "start": 45.9005,
      "duration": 0.0999,
      "velocity": 118,
      "chip": "ym2612"
    },
    {
      "channel": 2,
      "note": 50,
      "start": 45.9012,
      "duration": 0.1035,
      "velocity": 127,
      "chip": "ym2612"
    },
    {
      "channel": 0,
      "note": 50,
      "start": 46.0005,
      "duration": 0.1999,
      "velocity": 118,
      "chip": "ym2612"
    },
    {
      "channel": 1,
      "note": 26,
      "start": 46.0027,
      "duration": 0.0994,
      "velocity": 118,
      "chip": "ym2612"
    },
    {
      "channel": 2,
      "note": 21,
      "start": 46.0049,
      "duration": 0.0993,
      "velocity": 111,
      "chip": "ym2612"
    },
    {
      "channel": 1,
      "note": 48,
      "start": 46.1022,
      "duration": 0.0987,
      "velocity": 118,
      "chip": "ym2612"
    },
    {
      "channel": 2,
      "note": 53,
      "start": 46.1044,
      "duration": 0.0971,
      "velocity": 111,
      "chip": "ym2612"
    },
    {
      "channel": 0,
      "note": 53,
      "start": 46.2005,
      "duration": 0.1999,
      "velocity": 118,
      "chip": "ym2612"
    },
    {
      "channel": 1,
      "note": 50,
      "start": 46.2011,
      "duration": 0.0994,
      "velocity": 118,
      "chip": "ym2612"
    },
    {
      "channel": 2,
      "note": 55,
      "start": 46.2017,
      "duration": 0.0997,
      "velocity": 111,
      "chip": "ym2612"
    },
    {
      "channel": 1,
      "note": 53,
      "start": 46.3006,
      "duration": 0.102,
      "velocity": 127,
      "chip": "ym2612"
    },
    {
      "channel": 2,
      "note": 54,
      "start": 46.3014,
      "duration": 0.0321,
      "velocity": 111,
      "chip": "ym2612"
    },
    {
      "channel": 2,
      "note": 53,
      "start": 46.3334,
      "duration": 0.0167,
      "velocity": 111,
      "chip": "ym2612"
    },
    {
      "channel": 2,
      "note": 52,
      "start": 46.3501,
      "duration": 0.0167,
      "velocity": 111,
      "chip": "ym2612"
    },
    {
      "channel": 2,
      "note": 51,
      "start": 46.3668,
      "duration": 0.0167,
      "velocity": 111,
      "chip": "ym2612"
    },
    {
      "channel": 2,
      "note": 50,
      "start": 46.3834,
      "duration": 0.0197,
      "velocity": 111,
      "chip": "ym2612"
    },
    {
      "channel": 0,
      "note": 43,
      "start": 46.4005,
      "duration": 0.1998,
      "velocity": 118,
      "chip": "ym2612"
    },
    {
      "channel": 1,
      "note": 26,
      "start": 46.4027,
      "duration": 0.1982,
      "velocity": 118,
      "chip": "ym2612"
    },
    {
      "channel": 2,
      "note": 43,
      "start": 46.4033,
      "duration": 0.2982,
      "velocity": 111,
      "chip": "ym2612"
    },
    {
      "channel": 0,
      "note": 43,
      "start": 46.6005,
      "duration": 0.0999,
      "velocity": 118,
      "chip": "ym2612"
    },
    {
      "channel": 1,
      "note": 55,
      "start": 46.601,
      "duration": 0.0999,
      "velocity": 118,
      "chip": "ym2612"
    },
    {
      "channel": 0,
      "note": 50,
      "start": 46.7005,
      "duration": 0.1999,
      "velocity": 118,
      "chip": "ym2612"
    },
    {
      "channel": 1,
      "note": 53,
      "start": 46.7011,
      "duration": 0.101,
      "velocity": 127,
      "chip": "ym2612"
    },
    {
      "channel": 2,
      "note": 44,
      "start": 46.7016,
      "duration": 0.1025,
      "velocity": 127,
      "chip": "ym2612"
    },
    {
      "channel": 1,
      "note": 26,
      "start": 46.8022,
      "duration": 0.1004,
      "velocity": 118,
      "chip": "ym2612"
    },
    {
      "channel": 2,
      "note": 21,
      "start": 46.8044,
      "duration": 0.1982,
      "velocity": 111,
      "chip": "ym2612"
    },
    {
      "channel": 0,
      "note": 53,
      "start": 46.9005,
      "duration": 0.1999,
      "velocity": 118,
      "chip": "ym2612"
    },
    {
      "channel": 1,
      "note": 50,
      "start": 46.9027,
      "duration": 0.0978,
      "velocity": 118,
      "chip": "ym2612"
    },
    {
      "channel": 1,
      "note": 53,
      "start": 47.0006,
      "duration": 0.2015,
      "velocity": 127,
      "chip": "ym2612"
    },
    {
      "channel": 2,
      "note": 43,
      "start": 47.0028,
      "duration": 0.3982,
      "velocity": 111,
      "chip": "ym2612"
    },
    {
      "channel": 0,
      "note": 43,
      "start": 47.1005,
      "duration": 0.1999,
      "velocity": 118,
      "chip": "ym2612"
    },
    {
      "channel": 1,
      "note": 26,
      "start": 47.2022,
      "duration": 0.1983,
      "velocity": 118,
      "chip": "ym2612"
    },
    {
      "channel": 3,
      "note": 55,
      "start": 47.2028,
      "duration": 0.0006,
      "velocity": 123,
      "chip": "ym2612"
    },
    {
      "channel": 3,
      "note": 55,
      "start": 47.2034,
      "duration": 0.0301,
      "velocity": 123,
      "chip": "ym2612"
    },
    {
      "channel": 3,
      "note": 56,
      "start": 47.2335,
      "duration": 0.0167,
      "velocity": 123,
      "chip": "ym2612"
    },
    {
      "channel": 3,
      "note": 57,
      "start": 47.2502,
      "duration": 0.0166,
      "velocity": 123,
      "chip": "ym2612"
    },
    {
      "channel": 3,
      "note": 58,
      "start": 47.2668,
      "duration": 0.0167,
      "velocity": 123,
      "chip": "ym2612"
    },
    {
      "channel": 3,
      "note": 58,
      "start": 47.2835,
      "duration": 0.0195,
      "velocity": 123,
      "chip": "ym2612"
    },
    {
      "channel": 0,
      "note": 44,
      "start": 47.3005,
      "duration": 0.1999,
      "velocity": 118,
      "chip": "ym2612"
    },
    {
      "channel": 3,
      "note": 59,
      "start": 47.303,
      "duration": 0.0305,
      "velocity": 123,
      "chip": "ym2612"
    },
    {
      "channel": 3,
      "note": 60,
      "start": 47.3335,
      "duration": 0.0167,
      "velocity": 123,
      "chip": "ym2612"
    },
    {
      "channel": 3,
      "note": 61,
      "start": 47.3502,
      "duration": 0.0167,
      "velocity": 123,
      "chip": "ym2612"
    },
    {
      "channel": 3,
      "note": 61,
      "start": 47.3669,
      "duration": 0.6368,
      "velocity": 123,
      "chip": "ym2612"
    },
    {
      "channel": 1,
      "note": 52,
      "start": 47.4006,
      "duration": 0.2019,
      "velocity": 127,
      "chip": "ym2612"
    },
    {
      "channel": 2,
      "note": 43,
      "start": 47.4012,
      "duration": 0.0998,
      "velocity": 111,
      "chip": "ym2612"
    },
    {
      "channel": 0,
      "note": 43,
      "start": 47.5005,
      "duration": 0.0998,
      "velocity": 118,
      "chip": "ym2612"
    },
    {
      "channel": 2,
      "note": 50,
      "start": 47.5012,
      "duration": 0.1035,
      "velocity": 127,
      "chip": "ym2612"
    },
    {
      "channel": 0,
      "note": 50,
      "start": 47.6005,
      "duration": 0.1999,
      "velocity": 118,
      "chip": "ym2612"
    },
    {
      "channel": 1,
      "note": 26,
      "start": 47.6027,
      "duration": 0.0994,
      "velocity": 118,
      "chip": "ym2612"
    },
    {
      "channel": 2,
      "note": 21,
      "start": 47.6048,
      "duration": 0.0994,
      "velocity": 111,
      "chip": "ym2612"
    },
    {
      "channel": 1,
      "note": 48,
      "start": 47.7022,
      "duration": 0.0987,
      "velocity": 118,
      "chip": "ym2612"
    },
    {
      "channel": 2,
      "note": 53,
      "start": 47.7044,
      "duration": 0.0971,
      "velocity": 111,
      "chip": "ym2612"
    },
    {
      "channel": 0,
      "note": 53,
      "start": 47.8005,
      "duration": 0.1999,
      "velocity": 118,
      "chip": "ym2612"
    },
    {
      "channel": 1,
      "note": 50,
      "start": 47.8011,
      "duration": 0.0994,
      "velocity": 118,
      "chip": "ym2612"
    },
    {
      "channel": 2,
      "note": 55,
      "start": 47.8017,
      "duration": 0.0997,
      "velocity": 111,
      "chip": "ym2612"
    },
    {
      "channel": 1,
      "note": 53,
      "start": 47.9006,
      "duration": 0.102,
      "velocity": 127,
      "chip": "ym2612"
    },
    {
      "channel": 2,
      "note": 54,
      "start": 47.9014,
      "duration": 0.0321,
      "velocity": 111,
      "chip": "ym2612"
    },
    {
      "channel": 2,
      "note": 53,
      "start": 47.9334,
      "duration": 0.0167,
      "velocity": 111,
      "chip": "ym2612"
    },
    {
      "channel": 2,
      "note": 52,
      "start": 47.9501,
      "duration": 0.0167,
      "velocity": 111,
      "chip": "ym2612"
    },
    {
      "channel": 2,
      "note": 51,
      "start": 47.9668,
      "duration": 0.0167,
      "velocity": 111,
      "chip": "ym2612"
    },
    {
      "channel": 2,
      "note": 50,
      "start": 47.9834,
      "duration": 0.0197,
      "velocity": 111,
      "chip": "ym2612"
    },
    {
      "channel": 0,
      "note": 43,
      "start": 48.0006,
      "duration": 0.1998,
      "velocity": 118,
      "chip": "ym2612"
    },
    {
      "channel": 1,
      "note": 26,
      "start": 48.0028,
      "duration": 0.1981,
      "velocity": 118,
      "chip": "ym2612"
    },
    {
      "channel": 2,
      "note": 43,
      "start": 48.0033,
      "duration": 0.2982,
      "velocity": 111,
      "chip": "ym2612"
    },
    {
      "channel": 3,
      "note": 61,
      "start": 48.0038,
      "duration": 0.0006,
      "velocity": 123,
      "chip": "ym2612"
    },
    {
      "channel": 3,
      "note": 60,
      "start": 48.0044,
      "duration": 0.0291,
      "velocity": 123,
      "chip": "ym2612"
    },
    {
      "channel": 3,
      "note": 60,
      "start": 48.0335,
      "duration": 0.0167,
      "velocity": 123,
      "chip": "ym2612"
    },
    {
      "channel": 3,
      "note": 59,
      "start": 48.0502,
      "duration": 0.0167,
      "velocity": 123,
      "chip": "ym2612"
    },
    {
      "channel": 3,
      "note": 58,
      "start": 48.0669,
      "duration": 0.0166,
      "velocity": 123,
      "chip": "ym2612"
    },
    {
      "channel": 3,
      "note": 58,
      "start": 48.0835,
      "duration": 3.1203,
      "velocity": 123,
      "chip": "ym2612"
    },
    {
      "channel": 0,
      "note": 43,
      "start": 48.2005,
      "duration": 0.0999,
      "velocity": 118,
      "chip": "ym2612"
    },
    {
      "channel": 1,
      "note": 55,
      "start": 48.2011,
      "duration": 0.0998,
      "velocity": 118,
      "chip": "ym2612"
    },
    {
      "channel": 0,
      "note": 50,
      "start": 48.3005,
      "duration": 0.1999,
      "velocity": 118,
      "chip": "ym2612"
    },
    {
      "channel": 1,
      "note": 53,
      "start": 48.3011,
      "duration": 0.101,
      "velocity": 127,
      "chip": "ym2612"
    },
    {
      "channel": 2,
      "note": 44,
      "start": 48.3016,
      "duration": 0.1025,
      "velocity": 127,
      "chip": "ym2612"
    },
    {
      "channel": 1,
      "note": 26,
      "start": 48.4022,
      "duration": 0.1004,
      "velocity": 118,
      "chip": "ym2612"
    },
    {
      "channel": 2,
      "note": 21,
      "start": 48.4044,
      "duration": 0.1982,
      "velocity": 111,
      "chip": "ym2612"
    },
    {
      "channel": 0,
      "note": 53,
      "start": 48.5005,
      "duration": 0.1999,
      "velocity": 118,
      "chip": "ym2612"
    },
    {
      "channel": 1,
      "note": 50,
      "start": 48.5027,
      "duration": 0.0977,
      "velocity": 118,
      "chip": "ym2612"
    },
    {
      "channel": 1,
      "note": 53,
      "start": 48.6006,
      "duration": 0.2014,
      "velocity": 127,
      "chip": "ym2612"
    },
    {
      "channel": 2,
      "note": 43,
      "start": 48.6027,
      "duration": 0.3978,
      "velocity": 111,
      "chip": "ym2612"
    },
    {
      "channel": 0,
      "note": 43,
      "start": 48.7005,
      "duration": 0.1998,
      "velocity": 118,
      "chip": "ym2612"
    },
    {
      "channel": 1,
      "note": 26,
      "start": 48.8022,
      "duration": 0.1003,
      "velocity": 118,
      "chip": "ym2612"
    },
    {
      "channel": 0,
      "note": 44,
      "start": 48.9005,
      "duration": 0.1999,
      "velocity": 118,
      "chip": "ym2612"
    },
    {
      "channel": 1,
      "note": 52,
      "start": 48.9027,
      "duration": 0.1982,
      "velocity": 118,
      "chip": "ym2612"
    },
    {
      "channel": 2,
      "note": 43,
      "start": 49.0007,
      "duration": 0.1008,
      "velocity": 111,
      "chip": "ym2612"
    },
    {
      "channel": 0,
      "note": 43,
      "start": 49.1005,
      "duration": 0.0999,
      "velocity": 118,
      "chip": "ym2612"
    },
    {
      "channel": 1,
      "note": 48,
      "start": 49.1011,
      "duration": 0.1015,
      "velocity": 127,
      "chip": "ym2612"
    },
    {
      "channel": 2,
      "note": 50,
      "start": 49.1017,
      "duration": 0.103,
      "velocity": 127,
      "chip": "ym2612"
    },
    {
      "channel": 0,
      "note": 50,
      "start": 49.2005,
      "duration": 0.1999,
      "velocity": 118,
      "chip": "ym2612"
    },
    {
      "channel": 1,
      "note": 26,
      "start": 49.2027,
      "duration": 0.0994,
      "velocity": 118,
      "chip": "ym2612"
    },
    {
      "channel": 2,
      "note": 21,
      "start": 49.2049,
      "duration": 0.0993,
      "velocity": 111,
      "chip": "ym2612"
    },
    {
      "channel": 1,
      "note": 46,
      "start": 49.3022,
      "duration": 0.0987,
      "velocity": 118,
      "chip": "ym2612"
    },
    {
      "channel": 2,
      "note": 53,
      "start": 49.3044,
      "duration": 0.0971,
      "velocity": 111,
      "chip": "ym2612"
    },
    {
      "channel": 0,
      "note": 53,
      "start": 49.4005,
      "duration": 0.1998,
      "velocity": 118,
      "chip": "ym2612"
    },
    {
      "channel": 1,
      "note": 48,
      "start": 49.4011,
      "duration": 0.0993,
      "velocity": 118,
      "chip": "ym2612"
    },
    {
      "channel": 2,
      "note": 55,
      "start": 49.4016,
      "duration": 0.0998,
      "velocity": 111,
      "chip": "ym2612"
    },
    {
      "channel": 1,
      "note": 50,
      "start": 49.5006,
      "duration": 0.1019,
      "velocity": 127,
      "chip": "ym2612"
    },
    {
      "channel": 2,
      "note": 54,
      "start": 49.5014,
      "duration": 0.0321,
      "velocity": 111,
      "chip": "ym2612"
    },
    {
      "channel": 2,
      "note": 53,
      "start": 49.5334,
      "duration": 0.0167,
      "velocity": 111,
      "chip": "ym2612"
    },
    {
      "channel": 2,
      "note": 52,
      "start": 49.5501,
      "duration": 0.0167,
      "velocity": 111,
      "chip": "ym2612"
    },
    {
      "channel": 2,
      "note": 51,
      "start": 49.5668,
      "duration": 0.0167,
      "velocity": 111,
      "chip": "ym2612"
    },
    {
      "channel": 2,
      "note": 50,
      "start": 49.5834,
      "duration": 0.0197,
      "velocity": 111,
      "chip": "ym2612"
    },
    {
      "channel": 0,
      "note": 43,
      "start": 49.6005,
      "duration": 0.1998,
      "velocity": 118,
      "chip": "ym2612"
    },
    {
      "channel": 1,
      "note": 26,
      "start": 49.6027,
      "duration": 0.1982,
      "velocity": 118,
      "chip": "ym2612"
    },
    {
      "channel": 2,
      "note": 43,
      "start": 49.6033,
      "duration": 0.2982,
      "velocity": 111,
      "chip": "ym2612"
    },
    {
      "channel": 0,
      "note": 43,
      "start": 49.8005,
      "duration": 0.0999,
      "velocity": 118,
      "chip": "ym2612"
    },
    {
      "channel": 1,
      "note": 55,
      "start": 49.801,
      "duration": 0.0999,
      "velocity": 118,
      "chip": "ym2612"
    },
    {
      "channel": 0,
      "note": 50,
      "start": 49.9005,
      "duration": 0.1999,
      "velocity": 118,
      "chip": "ym2612"
    },
    {
      "channel": 1,
      "note": 53,
      "start": 49.9011,
      "duration": 0.101,
      "velocity": 127,
      "chip": "ym2612"
    },
    {
      "channel": 2,
      "note": 44,
      "start": 49.9017,
      "duration": 0.1025,
      "velocity": 127,
      "chip": "ym2612"
    },
    {
      "channel": 1,
      "note": 26,
      "start": 50.0022,
      "duration": 0.1004,
      "velocity": 118,
      "chip": "ym2612"
    },
    {
      "channel": 2,
      "note": 21,
      "start": 50.0044,
      "duration": 0.1982,
      "velocity": 111,
      "chip": "ym2612"
    },
    {
      "channel": 0,
      "note": 53,
      "start": 50.1005,
      "duration": 0.1999,
      "velocity": 118,
      "chip": "ym2612"
    },
    {
      "channel": 1,
      "note": 50,
      "start": 50.1027,
      "duration": 0.0978,
      "velocity": 118,
      "chip": "ym2612"
    },
    {
      "channel": 1,
      "note": 53,
      "start": 50.2006,
      "duration": 0.2014,
      "velocity": 127,
      "chip": "ym2612"
    },
    {
      "channel": 2,
      "note": 43,
      "start": 50.2028,
      "duration": 0.3982,
      "velocity": 111,
      "chip": "ym2612"
    },
    {
      "channel": 0,
      "note": 43,
      "start": 50.3005,
      "duration": 0.1998,
      "velocity": 118,
      "chip": "ym2612"
    },
    {
      "channel": 1,
      "note": 26,
      "start": 50.4022,
      "duration": 0.1003,
      "velocity": 118,
      "chip": "ym2612"
    },
    {
      "channel": 0,
      "note": 44,
      "start": 50.5005,
      "duration": 0.1999,
      "velocity": 118,
      "chip": "ym2612"
    },
    {
      "channel": 1,
      "note": 46,
      "start": 50.5027,
      "duration": 0.0978,
      "velocity": 118,
      "chip": "ym2612"
    },
    {
      "channel": 1,
      "note": 48,
      "start": 50.6006,
      "duration": 0.1003,
      "velocity": 118,
      "chip": "ym2612"
    },
    {
      "channel": 2,
      "note": 43,
      "start": 50.6012,
      "duration": 0.1003,
      "velocity": 111,
      "chip": "ym2612"
    },
    {
      "channel": 0,
      "note": 43,
      "start": 50.7005,
      "duration": 0.0999,
      "velocity": 118,
      "chip": "ym2612"
    },
    {
      "channel": 1,
      "note": 50,
      "start": 50.7011,
      "duration": 0.1015,
      "velocity": 127,
      "chip": "ym2612"
    },
    {
      "channel": 2,
      "note": 50,
      "start": 50.7017,
      "duration": 0.103,
      "velocity": 127,
      "chip": "ym2612"
    },
    {
      "channel": 0,
      "note": 31,
      "start": 50.8005,
      "duration": 0.1999,
      "velocity": 118,
      "chip": "ym2612"
    },
    {
      "channel": 1,
      "note": 26,
      "start": 50.8027,
      "duration": 0.0994,
      "velocity": 118,
      "chip": "ym2612"
    },
    {
      "channel": 2,
      "note": 21,
      "start": 50.8049,
      "duration": 0.0993,
      "velocity": 111,
      "chip": "ym2612"
    },
    {
      "channel": 1,
      "note": 58,
      "start": 50.9022,
      "duration": 0.0987,
      "velocity": 118,
      "chip": "ym2612"
    },
    {
      "channel": 2,
      "note": 53,
      "start": 50.9044,
      "duration": 0.0971,
      "velocity": 111,
      "chip": "ym2612"
    },
    {
      "channel": 0,
      "note": 53,
      "start": 51.0005,
      "duration": 0.2,
      "velocity": 118,
      "chip": "ym2612"
    },
    {
      "channel": 1,
      "note": 60,
      "start": 51.0011,
      "duration": 0.0994,
      "velocity": 118,
      "chip": "ym2612"
    },
    {
      "channel": 2,
      "note": 55,
      "start": 51.0017,
      "duration": 0.0997,
      "velocity": 111,
      "chip": "ym2612"
    },
    {
      "channel": 1,
      "note": 62,
      "start": 51.1007,
      "duration": 0.102,
      "velocity": 127,
      "chip": "ym2612"
    },
    {
      "channel": 2,
      "note": 54,
      "start": 51.1014,
      "duration": 0.0321,
      "velocity": 111,
      "chip": "ym2612"
    },
    {
      "channel": 2,
      "note": 53,
      "start": 51.1334,
      "duration": 0.0167,
      "velocity": 111,
      "chip": "ym2612"
    },
    {
      "channel": 2,
      "note": 52,
      "start": 51.1501,
      "duration": 0.0167,
      "velocity": 111,
      "chip": "ym2612"
    },
    {
      "channel": 2,
      "note": 51,
      "start": 51.1668,
      "duration": 0.0167,
      "velocity": 111,
      "chip": "ym2612"
    },
    {
      "channel": 2,
      "note": 50,
      "start": 51.1834,
      "duration": 0.0199,
      "velocity": 111,
      "chip": "ym2612"
    },
    {
      "channel": 0,
      "note": 43,
      "start": 51.2007,
      "duration": 0.1996,
      "velocity": 118,
      "chip": "ym2612"
    },
    {
      "channel": 1,
      "note": 26,
      "start": 51.2029,
      "duration": 0.1996,
      "velocity": 118,
      "chip": "ym2612"
    },
    {
      "channel": 2,
      "note": 43,
      "start": 51.2034,
      "duration": 0.298,
      "velocity": 111,
      "chip": "ym2612"
    },
    {
      "channel": 3,
      "note": 58,
      "start": 51.204,
      "duration": 0.0006,
      "velocity": 123,
      "chip": "ym2612"
    },
    {
      "channel": 3,
      "note": 57,
      "start": 51.2046,
      "duration": 0.0289,
      "velocity": 123,
      "chip": "ym2612"
    },
    {
      "channel": 3,
      "note": 56,
      "start": 51.2335,
      "duration": 0.0167,
      "velocity": 123,
      "chip": "ym2612"
    },
    {
      "channel": 3,
      "note": 56,
      "start": 51.2502,
      "duration": 0.0167,
      "velocity": 123,
      "chip": "ym2612"
    },
    {
      "channel": 3,
      "note": 55,
      "start": 51.2668,
      "duration": 0.0167,
      "velocity": 123,
      "chip": "ym2612"
    },
    {
      "channel": 3,
      "note": 55,
      "start": 51.2835,
      "duration": 3.1202,
      "velocity": 123,
      "chip": "ym2612"
    },
    {
      "channel": 0,
      "note": 43,
      "start": 51.4005,
      "duration": 0.0999,
      "velocity": 118,
      "chip": "ym2612"
    },
    {
      "channel": 1,
      "note": 55,
      "start": 51.4026,
      "duration": 0.0983,
      "velocity": 118,
      "chip": "ym2612"
    },
    {
      "channel": 0,
      "note": 50,
      "start": 51.5005,
      "duration": 0.1999,
      "velocity": 118,
      "chip": "ym2612"
    },
    {
      "channel": 1,
      "note": 53,
      "start": 51.5011,
      "duration": 0.101,
      "velocity": 127,
      "chip": "ym2612"
    },
    {
      "channel": 2,
      "note": 44,
      "start": 51.5016,
      "duration": 0.1025,
      "velocity": 127,
      "chip": "ym2612"
    },
    {
      "channel": 1,
      "note": 26,
      "start": 51.6022,
      "duration": 0.1004,
      "velocity": 118,
      "chip": "ym2612"
    },
    {
      "channel": 2,
      "note": 21,
      "start": 51.6044,
      "duration": 0.1982,
      "velocity": 111,
      "chip": "ym2612"
    },
    {
      "channel": 0,
      "note": 53,
      "start": 51.7005,
      "duration": 0.1999,
      "velocity": 118,
      "chip": "ym2612"
    },
    {
      "channel": 1,
      "note": 50,
      "start": 51.7027,
      "duration": 0.0978,
      "velocity": 118,
      "chip": "ym2612"
    },
    {
      "channel": 1,
      "note": 53,
      "start": 51.8006,
      "duration": 0.2015,
      "velocity": 127,
      "chip": "ym2612"
    },
    {
      "channel": 2,
      "note": 43,
      "start": 51.8028,
      "duration": 0.3982,
      "velocity": 111,
      "chip": "ym2612"
    },
    {
      "channel": 0,
      "note": 43,
      "start": 51.9005,
      "duration": 0.1998,
      "velocity": 118,
      "chip": "ym2612"
    },
    {
      "channel": 1,
      "note": 26,
      "start": 52.0022,
      "duration": 0.1982,
      "velocity": 118,
      "chip": "ym2612"
    },
    {
      "channel": 0,
      "note": 44,
      "start": 52.1005,
      "duration": 0.1999,
      "velocity": 118,
      "chip": "ym2612"
    },
    {
      "channel": 1,
      "note": 52,
      "start": 52.2006,
      "duration": 0.202,
      "velocity": 127,
      "chip": "ym2612"
    },
    {
      "channel": 2,
      "note": 43,
      "start": 52.2012,
      "duration": 0.0998,
      "velocity": 111,
      "chip": "ym2612"
    },
    {
      "channel": 0,
      "note": 43,
      "start": 52.3005,
      "duration": 0.0999,
      "velocity": 118,
      "chip": "ym2612"
    },
    {
      "channel": 2,
      "note": 50,
      "start": 52.3012,
      "duration": 0.1035,
      "velocity": 127,
      "chip": "ym2612"
    },
    {
      "channel": 0,
      "note": 50,
      "start": 52.4005,
      "duration": 0.1999,
      "velocity": 118,
      "chip": "ym2612"
    },
    {
      "channel": 1,
      "note": 26,
      "start": 52.4027,
      "duration": 0.0994,
      "velocity": 118,
      "chip": "ym2612"
    },
    {
      "channel": 2,
      "note": 21,
      "start": 52.4049,
      "duration": 0.0993,
      "velocity": 111,
      "chip": "ym2612"
    },
    {
      "channel": 1,
      "note": 48,
      "start": 52.5022,
      "duration": 0.0987,
      "velocity": 118,
      "chip": "ym2612"
    },
    {
      "channel": 2,
      "note": 53,
      "start": 52.5044,
      "duration": 0.0971,
      "velocity": 111,
      "chip": "ym2612"
    },
    {
      "channel": 0,
      "note": 53,
      "start": 52.6005,
      "duration": 0.1999,
      "velocity": 118,
      "chip": "ym2612"
    },
    {
      "channel": 1,
      "note": 50,
      "start": 52.6011,
      "duration": 0.0994,
      "velocity": 118,
      "chip": "ym2612"
    },
    {
      "channel": 2,
      "note": 55,
      "start": 52.6017,
      "duration": 0.0997,
      "velocity": 111,
      "chip": "ym2612"
    },
    {
      "channel": 1,
      "note": 53,
      "start": 52.7006,
      "duration": 0.102,
      "velocity": 127,
      "chip": "ym2612"
    },
    {
      "channel": 2,
      "note": 54,
      "start": 52.7014,
      "duration": 0.0321,
      "velocity": 111,
      "chip": "ym2612"
    },
    {
      "channel": 2,
      "note": 53,
      "start": 52.7334,
      "duration": 0.0167,
      "velocity": 111,
      "chip": "ym2612"
    },
    {
      "channel": 2,
      "note": 52,
      "start": 52.7501,
      "duration": 0.0167,
      "velocity": 111,
      "chip": "ym2612"
    },
    {
      "channel": 2,
      "note": 51,
      "start": 52.7668,
      "duration": 0.0167,
      "velocity": 111,
      "chip": "ym2612"
    },
    {
      "channel": 2,
      "note": 50,
      "start": 52.7834,
      "duration": 0.0197,
      "velocity": 111,
      "chip": "ym2612"
    },
    {
      "channel": 0,
      "note": 43,
      "start": 52.8005,
      "duration": 0.1998,
      "velocity": 118,
      "chip": "ym2612"
    },
    {
      "channel": 1,
      "note": 26,
      "start": 52.8027,
      "duration": 0.1982,
      "velocity": 118,
      "chip": "ym2612"
    },
    {
      "channel": 2,
      "note": 43,
      "start": 52.8033,
      "duration": 0.2982,
      "velocity": 111,
      "chip": "ym2612"
    },
    {
      "channel": 0,
      "note": 43,
      "start": 53.0005,
      "duration": 0.0999,
      "velocity": 118,
      "chip": "ym2612"
    },
    {
      "channel": 1,
      "note": 55,
      "start": 53.001,
      "duration": 0.0999,
      "velocity": 118,
      "chip": "ym2612"
    },
    {
      "channel": 0,
      "note": 50,
      "start": 53.1005,
      "duration": 0.1999,
      "velocity": 118,
      "chip": "ym2612"
    },
    {
      "channel": 1,
      "note": 53,
      "start": 53.1011,
      "duration": 0.101,
      "velocity": 127,
      "chip": "ym2612"
    },
    {
      "channel": 2,
      "note": 44,
      "start": 53.1016,
      "duration": 0.1025,
      "velocity": 127,
      "chip": "ym2612"
    },
    {
      "channel": 1,
      "note": 26,
      "start": 53.2022,
      "duration": 0.1004,
      "velocity": 118,
      "chip": "ym2612"
    },
    {
      "channel": 2,
      "note": 21,
      "start": 53.2044,
      "duration": 0.1982,
      "velocity": 111,
      "chip": "ym2612"
    },
    {
      "channel": 0,
      "note": 53,
      "start": 53.3005,
      "duration": 0.1999,
      "velocity": 118,
      "chip": "ym2612"
    },
    {
      "channel": 1,
      "note": 50,
      "start": 53.3027,
      "duration": 0.0977,
      "velocity": 118,
      "chip": "ym2612"
    },
    {
      "channel": 1,
      "note": 53,
      "start": 53.4006,
      "duration": 0.2014,
      "velocity": 127,
      "chip": "ym2612"
    },
    {
      "channel": 2,
      "note": 43,
      "start": 53.4027,
      "duration": 0.3983,
      "velocity": 111,
      "chip": "ym2612"
    },
    {
      "channel": 0,
      "note": 43,
      "start": 53.5005,
      "duration": 0.1998,
      "velocity": 118,
      "chip": "ym2612"
    },
    {
      "channel": 1,
      "note": 26,
      "start": 53.6022,
      "duration": 0.1982,
      "velocity": 118,
      "chip": "ym2612"
    },
    {
      "channel": 0,
      "note": 44,
      "start": 53.7005,
      "duration": 0.1999,
      "velocity": 118,
      "chip": "ym2612"
    },
    {
      "channel": 1,
      "note": 52,
      "start": 53.8006,
      "duration": 0.202,
      "velocity": 127,
      "chip": "ym2612"
    },
    {
      "channel": 2,
      "note": 43,
      "start": 53.8012,
      "duration": 0.0998,
      "velocity": 111,
      "chip": "ym2612"
    },
    {
      "channel": 0,
      "note": 43,
      "start": 53.9005,
      "duration": 0.0999,
      "velocity": 118,
      "chip": "ym2612"
    },
    {
      "channel": 2,
      "note": 50,
      "start": 53.9012,
      "duration": 0.1035,
      "velocity": 127,
      "chip": "ym2612"
    },
    {
      "channel": 0,
      "note": 50,
      "start": 54.0005,
      "duration": 0.1999,
      "velocity": 118,
      "chip": "ym2612"
    },
    {
      "channel": 1,
      "note": 26,
      "start": 54.0027,
      "duration": 0.0994,
      "velocity": 118,
      "chip": "ym2612"
    },
    {
      "channel": 2,
      "note": 21,
      "start": 54.0049,
      "duration": 0.0993,
      "velocity": 111,
      "chip": "ym2612"
    },
    {
      "channel": 1,
      "note": 48,
      "start": 54.1022,
      "duration": 0.0987,
      "velocity": 118,
      "chip": "ym2612"
    },
    {
      "channel": 2,
      "note": 53,
      "start": 54.1044,
      "duration": 0.0971,
      "velocity": 111,
      "chip": "ym2612"
    },
    {
      "channel": 0,
      "note": 53,
      "start": 54.2005,
      "duration": 0.1999,
      "velocity": 118,
      "chip": "ym2612"
    },
    {
      "channel": 1,
      "note": 50,
      "start": 54.2011,
      "duration": 0.0993,
      "velocity": 118,
      "chip": "ym2612"
    },
    {
      "channel": 2,
      "note": 55,
      "start": 54.2016,
      "duration": 0.0998,
      "velocity": 111,
      "chip": "ym2612"
    },
    {
      "channel": 1,
      "note": 53,
      "start": 54.3006,
      "duration": 0.102,
      "velocity": 127,
      "chip": "ym2612"
    },
    {
      "channel": 2,
      "note": 54,
      "start": 54.3014,
      "duration": 0.0321,
      "velocity": 111,
      "chip": "ym2612"
    },
    {
      "channel": 2,
      "note": 53,
      "start": 54.3334,
      "duration": 0.0167,
      "velocity": 111,
      "chip": "ym2612"
    },
    {
      "channel": 2,
      "note": 52,
      "start": 54.3501,
      "duration": 0.0167,
      "velocity": 111,
      "chip": "ym2612"
    },
    {
      "channel": 2,
      "note": 51,
      "start": 54.3668,
      "duration": 0.0167,
      "velocity": 111,
      "chip": "ym2612"
    },
    {
      "channel": 2,
      "note": 50,
      "start": 54.3834,
      "duration": 0.0197,
      "velocity": 111,
      "chip": "ym2612"
    },
    {
      "channel": 0,
      "note": 43,
      "start": 54.4006,
      "duration": 0.1998,
      "velocity": 118,
      "chip": "ym2612"
    },
    {
      "channel": 1,
      "note": 26,
      "start": 54.4028,
      "duration": 0.1981,
      "velocity": 118,
      "chip": "ym2612"
    },
    {
      "channel": 2,
      "note": 43,
      "start": 54.4033,
      "duration": 0.2981,
      "velocity": 111,
      "chip": "ym2612"
    },
    {
      "channel": 3,
      "note": 55,
      "start": 54.4038,
      "duration": 0.0006,
      "velocity": 123,
      "chip": "ym2612"
    },
    {
      "channel": 3,
      "note": 55,
      "start": 54.4045,
      "duration": 0.0291,
      "velocity": 123,
      "chip": "ym2612"
    },
    {
      "channel": 3,
      "note": 54,
      "start": 54.4335,
      "duration": 0.0167,
      "velocity": 123,
      "chip": "ym2612"
    },
    {
      "channel": 3,
      "note": 54,
      "start": 54.4502,
      "duration": 0.0166,
      "velocity": 123,
      "chip": "ym2612"
    },
    {
      "channel": 3,
      "note": 53,
      "start": 54.4668,
      "duration": 0.0167,
      "velocity": 123,
      "chip": "ym2612"
    },
    {
      "channel": 3,
      "note": 52,
      "start": 54.4835,
      "duration": 0.019,
      "velocity": 123,
      "chip": "ym2612"
    },
    {
      "channel": 3,
      "note": 52,
      "start": 54.5025,
      "duration": 0.031,
      "velocity": 123,
      "chip": "ym2612"
    },
    {
      "channel": 3,
      "note": 51,
      "start": 54.5335,
      "duration": 0.0167,
      "velocity": 123,
      "chip": "ym2612"
    },
    {
      "channel": 3,
      "note": 51,
      "start": 54.5502,
      "duration": 0.0167,
      "velocity": 123,
      "chip": "ym2612"
    },
    {
      "channel": 3,
      "note": 50,
      "start": 54.5668,
      "duration": 0.0167,
      "velocity": 123,
      "chip": "ym2612"
    },
    {
      "channel": 3,
      "note": 49,
      "start": 54.5835,
      "duration": 0.0183,
      "velocity": 123,
      "chip": "ym2612"
    },
    {
      "channel": 0,
      "note": 43,
      "start": 54.6005,
      "duration": 0.0999,
      "velocity": 118,
      "chip": "ym2612"
    },
    {
      "channel": 1,
      "note": 55,
      "start": 54.6011,
      "duration": 0.0998,
      "velocity": 118,
      "chip": "ym2612"
    },
    {
      "channel": 3,
      "note": 49,
      "start": 54.6018,
      "duration": 3.0021,
      "velocity": 123,
      "chip": "ym2612"
    },
    {
      "channel": 0,
      "note": 50,
      "start": 54.7005,
      "duration": 0.1999,
      "velocity": 118,
      "chip": "ym2612"
    },
    {
      "channel": 1,
      "note": 53,
      "start": 54.7011,
      "duration": 0.101,
      "velocity": 127,
      "chip": "ym2612"
    },
    {
      "channel": 2,
      "note": 44,
      "start": 54.7016,
      "duration": 0.1025,
      "velocity": 127,
      "chip": "ym2612"
    },
    {
      "channel": 1,
      "note": 26,
      "start": 54.8022,
      "duration": 0.1004,
      "velocity": 118,
      "chip": "ym2612"
    },
    {
      "channel": 2,
      "note": 21,
      "start": 54.8044,
      "duration": 0.1982,
      "velocity": 111,
      "chip": "ym2612"
    },
    {
      "channel": 0,
      "note": 53,
      "start": 54.9005,
      "duration": 0.1999,
      "velocity": 118,
      "chip": "ym2612"
    },
    {
      "channel": 1,
      "note": 50,
      "start": 54.9027,
      "duration": 0.0978,
      "velocity": 118,
      "chip": "ym2612"
    },
    {
      "channel": 1,
      "note": 53,
      "start": 55.0006,
      "duration": 0.2014,
      "velocity": 127,
      "chip": "ym2612"
    },
    {
      "channel": 2,
      "note": 43,
      "start": 55.0028,
      "duration": 0.3978,
      "velocity": 111,
      "chip": "ym2612"
    },
    {
      "channel": 0,
      "note": 43,
      "start": 55.1005,
      "duration": 0.1998,
      "velocity": 118,
      "chip": "ym2612"
    },
    {
      "channel": 1,
      "note": 26,
      "start": 55.2022,
      "duration": 0.1003,
      "velocity": 118,
      "chip": "ym2612"
    },
    {
      "channel": 0,
      "note": 44,
      "start": 55.3005,
      "duration": 0.1998,
      "velocity": 118,
      "chip": "ym2612"
    },
    {
      "channel": 1,
      "note": 52,
      "start": 55.3027,
      "duration": 0.1982,
      "velocity": 118,
      "chip": "ym2612"
    },
    {
      "channel": 2,
      "note": 43,
      "start": 55.4007,
      "duration": 0.1008,
      "velocity": 111,
      "chip": "ym2612"
    },
    {
      "channel": 0,
      "note": 43,
      "start": 55.5005,
      "duration": 0.0999,
      "velocity": 118,
      "chip": "ym2612"
    },
    {
      "channel": 1,
      "note": 48,
      "start": 55.5011,
      "duration": 0.1015,
      "velocity": 127,
      "chip": "ym2612"
    },
    {
      "channel": 2,
      "note": 50,
      "start": 55.5016,
      "duration": 0.1031,
      "velocity": 127,
      "chip": "ym2612"
    },
    {
      "channel": 0,
      "note": 50,
      "start": 55.6005,
      "duration": 0.1999,
      "velocity": 118,
      "chip": "ym2612"
    },
    {
      "channel": 1,
      "note": 26,
      "start": 55.6027,
      "duration": 0.0994,
      "velocity": 118,
      "chip": "ym2612"
    },
    {
      "channel": 2,
      "note": 21,
      "start": 55.6049,
      "duration": 0.0993,
      "velocity": 111,
      "chip": "ym2612"
    },
    {
      "channel": 1,
      "note": 46,
      "start": 55.7022,
      "duration": 0.0987,
      "velocity": 118,
      "chip": "ym2612"
    },
    {
      "channel": 2,
      "note": 53,
      "start": 55.7044,
      "duration": 0.0971,
      "velocity": 111,
      "chip": "ym2612"
    },
    {
      "channel": 0,
      "note": 53,
      "start": 55.8005,
      "duration": 0.1998,
      "velocity": 118,
      "chip": "ym2612"
    },
    {
      "channel": 1,
      "note": 48,
      "start": 55.8011,
      "duration": 0.0993,
      "velocity": 118,
      "chip": "ym2612"
    },
    {
      "channel": 2,
      "note": 55,
      "start": 55.8016,
      "duration": 0.0998,
      "velocity": 111,
      "chip": "ym2612"
    },
    {
      "channel": 1,
      "note": 50,
      "start": 55.9006,
      "duration": 0.1019,
      "velocity": 127,
      "chip": "ym2612"
    },
    {
      "channel": 2,
      "note": 54,
      "start": 55.9014,
      "duration": 0.0321,
      "velocity": 111,
      "chip": "ym2612"
    },
    {
      "channel": 2,
      "note": 53,
      "start": 55.9334,
      "duration": 0.0167,
      "velocity": 111,
      "chip": "ym2612"
    },
    {
      "channel": 2,
      "note": 52,
      "start": 55.9501,
      "duration": 0.0167,
      "velocity": 111,
      "chip": "ym2612"
    },
    {
      "channel": 2,
      "note": 51,
      "start": 55.9668,
      "duration": 0.0167,
      "velocity": 111,
      "chip": "ym2612"
    },
    {
      "channel": 2,
      "note": 50,
      "start": 55.9834,
      "duration": 0.0197,
      "velocity": 111,
      "chip": "ym2612"
    },
    {
      "channel": 0,
      "note": 43,
      "start": 56.0005,
      "duration": 0.1998,
      "velocity": 118,
      "chip": "ym2612"
    },
    {
      "channel": 1,
      "note": 26,
      "start": 56.0027,
      "duration": 0.1982,
      "velocity": 118,
      "chip": "ym2612"
    },
    {
      "channel": 2,
      "note": 43,
      "start": 56.0033,
      "duration": 0.2982,
      "velocity": 111,
      "chip": "ym2612"
    },
    {
      "channel": 0,
      "note": 43,
      "start": 56.2005,
      "duration": 0.0999,
      "velocity": 118,
      "chip": "ym2612"
    },
    {
      "channel": 1,
      "note": 55,
      "start": 56.2011,
      "duration": 0.0998,
      "velocity": 118,
      "chip": "ym2612"
    },
    {
      "channel": 0,
      "note": 50,
      "start": 56.3005,
      "duration": 0.1998,
      "velocity": 118,
      "chip": "ym2612"
    },
    {
      "channel": 1,
      "note": 53,
      "start": 56.3011,
      "duration": 0.101,
      "velocity": 127,
      "chip": "ym2612"
    },
    {
      "channel": 2,
      "note": 44,
      "start": 56.3017,
      "duration": 0.1025,
      "velocity": 127,
      "chip": "ym2612"
    },
    {
      "channel": 1,
      "note": 26,
      "start": 56.4022,
      "duration": 0.1003,
      "velocity": 118,
      "chip": "ym2612"
    },
    {
      "channel": 2,
      "note": 21,
      "start": 56.4044,
      "duration": 0.1982,
      "velocity": 111,
      "chip": "ym2612"
    },
    {
      "channel": 0,
      "note": 53,
      "start": 56.5005,
      "duration": 0.1999,
      "velocity": 118,
      "chip": "ym2612"
    },
    {
      "channel": 1,
      "note": 50,
      "start": 56.5027,
      "duration": 0.0978,
      "velocity": 118,
      "chip": "ym2612"
    },
    {
      "channel": 1,
      "note": 53,
      "start": 56.6006,
      "duration": 0.2015,
      "velocity": 127,
      "chip": "ym2612"
    },
    {
      "channel": 2,
      "note": 43,
      "start": 56.6028,
      "duration": 0.3982,
      "velocity": 111,
      "chip": "ym2612"
    },
    {
      "channel": 0,
      "note": 43,
      "start": 56.7005,
      "duration": 0.1998,
      "velocity": 118,
      "chip": "ym2612"
    },
    {
      "channel": 1,
      "note": 26,
      "start": 56.8022,
      "duration": 0.1003,
      "velocity": 118,
      "chip": "ym2612"
    },
    {
      "channel": 0,
      "note": 44,
      "start": 56.9005,
      "duration": 0.1999,
      "velocity": 118,
      "chip": "ym2612"
    },
    {
      "channel": 1,
      "note": 46,
      "start": 56.9027,
      "duration": 0.0978,
      "velocity": 118,
      "chip": "ym2612"
    },
    {
      "channel": 1,
      "note": 48,
      "start": 57.0006,
      "duration": 0.1003,
      "velocity": 118,
      "chip": "ym2612"
    },
    {
      "channel": 2,
      "note": 43,
      "start": 57.0012,
      "duration": 0.1003,
      "velocity": 111,
      "chip": "ym2612"
    },
    {
      "channel": 0,
      "note": 43,
      "start": 57.1005,
      "duration": 0.0999,
      "velocity": 118,
      "chip": "ym2612"
    },
    {
      "channel": 1,
      "note": 50,
      "start": 57.1011,
      "duration": 0.1015,
      "velocity": 127,
      "chip": "ym2612"
    },
    {
      "channel": 2,
      "note": 50,
      "start": 57.1016,
      "duration": 0.1031,
      "velocity": 127,
      "chip": "ym2612"
    },
    {
      "channel": 0,
      "note": 31,
      "start": 57.2005,
      "duration": 0.1999,
      "velocity": 118,
      "chip": "ym2612"
    },
    {
      "channel": 1,
      "note": 26,
      "start": 57.2027,
      "duration": 0.0994,
      "velocity": 118,
      "chip": "ym2612"
    },
    {
      "channel": 2,
      "note": 21,
      "start": 57.2049,
      "duration": 0.0993,
      "velocity": 111,
      "chip": "ym2612"
    },
    {
      "channel": 1,
      "note": 58,
      "start": 57.3022,
      "duration": 0.0987,
      "velocity": 118,
      "chip": "ym2612"
    },
    {
      "channel": 2,
      "note": 53,
      "start": 57.3044,
      "duration": 0.0971,
      "velocity": 111,
      "chip": "ym2612"
    },
    {
      "channel": 0,
      "note": 53,
      "start": 57.4005,
      "duration": 0.2,
      "velocity": 118,
      "chip": "ym2612"
    },
    {
      "channel": 1,
      "note": 60,
      "start": 57.4011,
      "duration": 0.0994,
      "velocity": 118,
      "chip": "ym2612"
    },
    {
      "channel": 2,
      "note": 55,
      "start": 57.4017,
      "duration": 0.0998,
      "velocity": 111,
      "chip": "ym2612"
    },
    {
      "channel": 1,
      "note": 62,
      "start": 57.5007,
      "duration": 0.102,
      "velocity": 127,
      "chip": "ym2612"
    },
    {
      "channel": 2,
      "note": 54,
      "start": 57.5014,
      "duration": 0.032,
      "velocity": 111,
      "chip": "ym2612"
    },
    {
      "channel": 2,
      "note": 53,
      "start": 57.5334,
      "duration": 0.0167,
      "velocity": 111,
      "chip": "ym2612"
    },
    {
      "channel": 2,
      "note": 52,
      "start": 57.5501,
      "duration": 0.0167,
      "velocity": 111,
      "chip": "ym2612"
    },
    {
      "channel": 2,
      "note": 51,
      "start": 57.5668,
      "duration": 0.0167,
      "velocity": 111,
      "chip": "ym2612"
    },
    {
      "channel": 2,
      "note": 50,
      "start": 57.5834,
      "duration": 0.0198,
      "velocity": 111,
      "chip": "ym2612"
    },
    {
      "channel": 0,
      "note": 43,
      "start": 57.6007,
      "duration": 0.1997,
      "velocity": 118,
      "chip": "ym2612"
    },
    {
      "channel": 1,
      "note": 26,
      "start": 57.6028,
      "duration": 0.1997,
      "velocity": 118,
      "chip": "ym2612"
    },
    {
      "channel": 2,
      "note": 43,
      "start": 57.6034,
      "duration": 0.2981,
      "velocity": 111,
      "chip": "ym2612"
    },
    {
      "channel": 3,
      "note": 55,
      "start": 57.6041,
      "duration": 2.3985,
      "velocity": 123,
      "chip": "ym2612"
    },
    {
      "channel": 0,
      "note": 43,
      "start": 57.8005,
      "duration": 0.0999,
      "velocity": 118,
      "chip": "ym2612"
    },
    {
      "channel": 1,
      "note": 55,
      "start": 57.8027,
      "duration": 0.0983,
      "velocity": 118,
      "chip": "ym2612"
    },
    {
      "channel": 0,
      "note": 50,
      "start": 57.9006,
      "duration": 0.1998,
      "velocity": 118,
      "chip": "ym2612"
    },
    {
      "channel": 1,
      "note": 53,
      "start": 57.9012,
      "duration": 0.1009,
      "velocity": 127,
      "chip": "ym2612"
    },
    {
      "channel": 2,
      "note": 44,
      "start": 57.9017,
      "duration": 0.1025,
      "velocity": 127,
      "chip": "ym2612"
    },
    {
      "channel": 1,
      "note": 26,
      "start": 58.0022,
      "duration": 0.1004,
      "velocity": 118,
      "chip": "ym2612"
    },
    {
      "channel": 2,
      "note": 21,
      "start": 58.0044,
      "duration": 0.1982,
      "velocity": 111,
      "chip": "ym2612"
    },
    {
      "channel": 0,
      "note": 53,
      "start": 58.1005,
      "duration": 0.1999,
      "velocity": 118,
      "chip": "ym2612"
    },
    {
      "channel": 1,
      "note": 50,
      "start": 58.1027,
      "duration": 0.0978,
      "velocity": 118,
      "chip": "ym2612"
    },
    {
      "channel": 1,
      "note": 53,
      "start": 58.2006,
      "duration": 0.2015,
      "velocity": 127,
      "chip": "ym2612"
    },
    {
      "channel": 2,
      "note": 43,
      "start": 58.2028,
      "duration": 0.3982,
      "velocity": 111,
      "chip": "ym2612"
    },
    {
      "channel": 0,
      "note": 43,
      "start": 58.3005,
      "duration": 0.1998,
      "velocity": 118,
      "chip": "ym2612"
    },
    {
      "channel": 1,
      "note": 26,
      "start": 58.4022,
      "duration": 0.1982,
      "velocity": 118,
      "chip": "ym2612"
    },
    {
      "channel": 0,
      "note": 44,
      "start": 58.5005,
      "duration": 0.1999,
      "velocity": 118,
      "chip": "ym2612"
    },
    {
      "channel": 1,
      "note": 52,
      "start": 58.6006,
      "duration": 0.202,
      "velocity": 127,
      "chip": "ym2612"
    },
    {
      "channel": 2,
      "note": 43,
      "start": 58.6012,
      "duration": 0.0998,
      "velocity": 111,
      "chip": "ym2612"
    },
    {
      "channel": 0,
      "note": 43,
      "start": 58.7005,
      "duration": 0.0999,
      "velocity": 118,
      "chip": "ym2612"
    },
    {
      "channel": 2,
      "note": 50,
      "start": 58.7012,
      "duration": 0.1035,
      "velocity": 127,
      "chip": "ym2612"
    },
    {
      "channel": 0,
      "note": 50,
      "start": 58.8005,
      "duration": 0.1999,
      "velocity": 118,
      "chip": "ym2612"
    },
    {
      "channel": 1,
      "note": 26,
      "start": 58.8027,
      "duration": 0.0994,
      "velocity": 118,
      "chip": "ym2612"
    },
    {
      "channel": 2,
      "note": 21,
      "start": 58.8049,
      "duration": 0.0993,
      "velocity": 111,
      "chip": "ym2612"
    },
    {
      "channel": 1,
      "note": 48,
      "start": 58.9022,
      "duration": 0.0987,
      "velocity": 118,
      "chip": "ym2612"
    },
    {
      "channel": 2,
      "note": 53,
      "start": 58.9044,
      "duration": 0.0971,
      "velocity": 111,
      "chip": "ym2612"
    },
    {
      "channel": 0,
      "note": 53,
      "start": 59.0005,
      "duration": 0.1999,
      "velocity": 118,
      "chip": "ym2612"
    },
    {
      "channel": 1,
      "note": 50,
      "start": 59.0011,
      "duration": 0.0994,
      "velocity": 118,
      "chip": "ym2612"
    },
    {
      "channel": 2,
      "note": 55,
      "start": 59.0016,
      "duration": 0.0998,
      "velocity": 111,
      "chip": "ym2612"
    },
    {
      "channel": 1,
      "note": 53,
      "start": 59.1006,
      "duration": 0.102,
      "velocity": 127,
      "chip": "ym2612"
    },
    {
      "channel": 2,
      "note": 54,
      "start": 59.1014,
      "duration": 0.0321,
      "velocity": 111,
      "chip": "ym2612"
    },
    {
      "channel": 2,
      "note": 53,
      "start": 59.1334,
      "duration": 0.0167,
      "velocity": 111,
      "chip": "ym2612"
    },
    {
      "channel": 2,
      "note": 52,
      "start": 59.1501,
      "duration": 0.0167,
      "velocity": 111,
      "chip": "ym2612"
    },
    {
      "channel": 2,
      "note": 51,
      "start": 59.1668,
      "duration": 0.0167,
      "velocity": 111,
      "chip": "ym2612"
    },
    {
      "channel": 2,
      "note": 50,
      "start": 59.1834,
      "duration": 0.0197,
      "velocity": 111,
      "chip": "ym2612"
    },
    {
      "channel": 0,
      "note": 43,
      "start": 59.2005,
      "duration": 0.1998,
      "velocity": 118,
      "chip": "ym2612"
    },
    {
      "channel": 1,
      "note": 26,
      "start": 59.2027,
      "duration": 0.1982,
      "velocity": 118,
      "chip": "ym2612"
    },
    {
      "channel": 2,
      "note": 43,
      "start": 59.2033,
      "duration": 0.2982,
      "velocity": 111,
      "chip": "ym2612"
    },
    {
      "channel": 0,
      "note": 43,
      "start": 59.4005,
      "duration": 0.0999,
      "velocity": 118,
      "chip": "ym2612"
    },
    {
      "channel": 1,
      "note": 55,
      "start": 59.4011,
      "duration": 0.0998,
      "velocity": 118,
      "chip": "ym2612"
    },
    {
      "channel": 0,
      "note": 50,
      "start": 59.5005,
      "duration": 0.1998,
      "velocity": 118,
      "chip": "ym2612"
    },
    {
      "channel": 1,
      "note": 53,
      "start": 59.5011,
      "duration": 0.101,
      "velocity": 127,
      "chip": "ym2612"
    },
    {
      "channel": 2,
      "note": 44,
      "start": 59.5016,
      "duration": 0.1025,
      "velocity": 127,
      "chip": "ym2612"
    },
    {
      "channel": 1,
      "note": 26,
      "start": 59.6022,
      "duration": 0.1003,
      "velocity": 118,
      "chip": "ym2612"
    },
    {
      "channel": 2,
      "note": 21,
      "start": 59.6044,
      "duration": 0.1982,
      "velocity": 111,
      "chip": "ym2612"
    },
    {
      "channel": 0,
      "note": 53,
      "start": 59.7005,
      "duration": 0.1999,
      "velocity": 118,
      "chip": "ym2612"
    },
    {
      "channel": 1,
      "note": 50,
      "start": 59.7027,
      "duration": 0.0978,
      "velocity": 118,
      "chip": "ym2612"
    },
    {
      "channel": 1,
      "note": 53,
      "start": 59.8006,
      "duration": 0.2015,
      "velocity": 127,
      "chip": "ym2612"
    },
    {
      "channel": 2,
      "note": 43,
      "start": 59.8028,
      "duration": 0.3982,
      "velocity": 111,
      "chip": "ym2612"
    },
    {
      "channel": 0,
      "note": 43,
      "start": 59.9005,
      "duration": 0.1999,
      "velocity": 118,
      "chip": "ym2612"
    },
    {
      "channel": 1,
      "note": 26,
      "start": 60.0022,
      "duration": 0.1983,
      "velocity": 118,
      "chip": "ym2612"
    },
    {
      "channel": 3,
      "note": 55,
      "start": 60.0028,
      "duration": 0.0006,
      "velocity": 123,
      "chip": "ym2612"
    },
    {
      "channel": 3,
      "note": 55,
      "start": 60.0034,
      "duration": 0.0301,
      "velocity": 123,
      "chip": "ym2612"
    },
    {
      "channel": 3,
      "note": 56,
      "start": 60.0335,
      "duration": 0.0167,
      "velocity": 123,
      "chip": "ym2612"
    },
    {
      "channel": 3,
      "note": 57,
      "start": 60.0502,
      "duration": 0.0166,
      "velocity": 123,
      "chip": "ym2612"
    },
    {
      "channel": 3,
      "note": 58,
      "start": 60.0668,
      "duration": 0.0167,
      "velocity": 123,
      "chip": "ym2612"
    },
    {
      "channel": 3,
      "note": 58,
      "start": 60.0835,
      "duration": 0.0195,
      "velocity": 123,
      "chip": "ym2612"
    },
    {
      "channel": 0,
      "note": 44,
      "start": 60.1005,
      "duration": 0.1999,
      "velocity": 118,
      "chip": "ym2612"
    },
    {
      "channel": 3,
      "note": 59,
      "start": 60.103,
      "duration": 0.0305,
      "velocity": 123,
      "chip": "ym2612"
    },
    {
      "channel": 3,
      "note": 60,
      "start": 60.1335,
      "duration": 0.0167,
      "velocity": 123,
      "chip": "ym2612"
    },
    {
      "channel": 3,
      "note": 61,
      "start": 60.1502,
      "duration": 0.0167,
      "velocity": 123,
      "chip": "ym2612"
    },
    {
      "channel": 3,
      "note": 61,
      "start": 60.1669,
      "duration": 0.6368,
      "velocity": 123,
      "chip": "ym2612"
    },
    {
      "channel": 1,
      "note": 52,
      "start": 60.2006,
      "duration": 0.202,
      "velocity": 127,
      "chip": "ym2612"
    },
    {
      "channel": 2,
      "note": 43,
      "start": 60.2012,
      "duration": 0.0998,
      "velocity": 111,
      "chip": "ym2612"
    },
    {
      "channel": 0,
      "note": 43,
      "start": 60.3005,
      "duration": 0.0999,
      "velocity": 118,
      "chip": "ym2612"
    },
    {
      "channel": 2,
      "note": 50,
      "start": 60.3012,
      "duration": 0.1035,
      "velocity": 127,
      "chip": "ym2612"
    },
    {
      "channel": 0,
      "note": 50,
      "start": 60.4005,
      "duration": 0.1999,
      "velocity": 118,
      "chip": "ym2612"
    },
    {
      "channel": 1,
      "note": 26,
      "start": 60.4027,
      "duration": 0.0994,
      "velocity": 118,
      "chip": "ym2612"
    },
    {
      "channel": 2,
      "note": 21,
      "start": 60.4049,
      "duration": 0.0993,
      "velocity": 111,
      "chip": "ym2612"
    },
    {
      "channel": 1,
      "note": 48,
      "start": 60.5022,
      "duration": 0.0987,
      "velocity": 118,
      "chip": "ym2612"
    },
    {
      "channel": 2,
      "note": 53,
      "start": 60.5044,
      "duration": 0.0971,
      "velocity": 111,
      "chip": "ym2612"
    },
    {
      "channel": 0,
      "note": 53,
      "start": 60.6005,
      "duration": 0.1999,
      "velocity": 118,
      "chip": "ym2612"
    },
    {
      "channel": 1,
      "note": 50,
      "start": 60.6011,
      "duration": 0.0994,
      "velocity": 118,
      "chip": "ym2612"
    },
    {
      "channel": 2,
      "note": 55,
      "start": 60.6017,
      "duration": 0.0997,
      "velocity": 111,
      "chip": "ym2612"
    },
    {
      "channel": 1,
      "note": 53,
      "start": 60.7006,
      "duration": 0.102,
      "velocity": 127,
      "chip": "ym2612"
    },
    {
      "channel": 2,
      "note": 54,
      "start": 60.7014,
      "duration": 0.0321,
      "velocity": 111,
      "chip": "ym2612"
    },
    {
      "channel": 2,
      "note": 53,
      "start": 60.7334,
      "duration": 0.0167,
      "velocity": 111,
      "chip": "ym2612"
    },
    {
      "channel": 2,
      "note": 52,
      "start": 60.7501,
      "duration": 0.0167,
      "velocity": 111,
      "chip": "ym2612"
    },
    {
      "channel": 2,
      "note": 51,
      "start": 60.7668,
      "duration": 0.0167,
      "velocity": 111,
      "chip": "ym2612"
    },
    {
      "channel": 2,
      "note": 50,
      "start": 60.7834,
      "duration": 0.0197,
      "velocity": 111,
      "chip": "ym2612"
    },
    {
      "channel": 0,
      "note": 43,
      "start": 60.8006,
      "duration": 0.1998,
      "velocity": 118,
      "chip": "ym2612"
    },
    {
      "channel": 1,
      "note": 26,
      "start": 60.8028,
      "duration": 0.1981,
      "velocity": 118,
      "chip": "ym2612"
    },
    {
      "channel": 2,
      "note": 43,
      "start": 60.8033,
      "duration": 0.2982,
      "velocity": 111,
      "chip": "ym2612"
    },
    {
      "channel": 3,
      "note": 61,
      "start": 60.8038,
      "duration": 0.0006,
      "velocity": 123,
      "chip": "ym2612"
    },
    {
      "channel": 3,
      "note": 60,
      "start": 60.8044,
      "duration": 0.0291,
      "velocity": 123,
      "chip": "ym2612"
    },
    {
      "channel": 3,
      "note": 60,
      "start": 60.8335,
      "duration": 0.0167,
      "velocity": 123,
      "chip": "ym2612"
    },
    {
      "channel": 3,
      "note": 59,
      "start": 60.8502,
      "duration": 0.0167,
      "velocity": 123,
      "chip": "ym2612"
    },
    {
      "channel": 3,
      "note": 58,
      "start": 60.8669,
      "duration": 0.0167,
      "velocity": 123,
      "chip": "ym2612"
    },
    {
      "channel": 3,
      "note": 58,
      "start": 60.8835,
      "duration": 3.1203,
      "velocity": 123,
      "chip": "ym2612"
    },
    {
      "channel": 0,
      "note": 43,
      "start": 61.0005,
      "duration": 0.0999,
      "velocity": 118,
      "chip": "ym2612"
    },
    {
      "channel": 1,
      "note": 55,
      "start": 61.0011,
      "duration": 0.0998,
      "velocity": 118,
      "chip": "ym2612"
    },
    {
      "channel": 0,
      "note": 50,
      "start": 61.1005,
      "duration": 0.1998,
      "velocity": 118,
      "chip": "ym2612"
    },
    {
      "channel": 1,
      "note": 53,
      "start": 61.1011,
      "duration": 0.101,
      "velocity": 127,
      "chip": "ym2612"
    },
    {
      "channel": 2,
      "note": 44,
      "start": 61.1017,
      "duration": 0.1025,
      "velocity": 127,
      "chip": "ym2612"
    },
    {
      "channel": 1,
      "note": 26,
      "start": 61.2022,
      "duration": 0.1003,
      "velocity": 118,
      "chip": "ym2612"
    },
    {
      "channel": 2,
      "note": 21,
      "start": 61.2044,
      "duration": 0.1982,
      "velocity": 111,
      "chip": "ym2612"
    },
    {
      "channel": 0,
      "note": 53,
      "start": 61.3005,
      "duration": 0.1999,
      "velocity": 118,
      "chip": "ym2612"
    },
    {
      "channel": 1,
      "note": 50,
      "start": 61.3027,
      "duration": 0.0978,
      "velocity": 118,
      "chip": "ym2612"
    },
    {
      "channel": 1,
      "note": 53,
      "start": 61.4006,
      "duration": 0.2015,
      "velocity": 127,
      "chip": "ym2612"
    },
    {
      "channel": 2,
      "note": 43,
      "start": 61.4028,
      "duration": 0.3977,
      "velocity": 111,
      "chip": "ym2612"
    },
    {
      "channel": 0,
      "note": 43,
      "start": 61.5005,
      "duration": 0.1998,
      "velocity": 118,
      "chip": "ym2612"
    },
    {
      "channel": 1,
      "note": 26,
      "start": 61.6022,
      "duration": 0.1003,
      "velocity": 118,
      "chip": "ym2612"
    },
    {
      "channel": 0,
      "note": 44,
      "start": 61.7005,
      "duration": 0.1999,
      "velocity": 118,
      "chip": "ym2612"
    },
    {
      "channel": 1,
      "note": 52,
      "start": 61.7027,
      "duration": 0.1982,
      "velocity": 118,
      "chip": "ym2612"
    },
    {
      "channel": 2,
      "note": 43,
      "start": 61.8007,
      "duration": 0.1008,
      "velocity": 111,
      "chip": "ym2612"
    },
    {
      "channel": 0,
      "note": 43,
      "start": 61.9005,
      "duration": 0.0999,
      "velocity": 118,
      "chip": "ym2612"
    },
    {
      "channel": 1,
      "note": 48,
      "start": 61.9011,
      "duration": 0.1015,
      "velocity": 127,
      "chip": "ym2612"
    },
    {
      "channel": 2,
      "note": 50,
      "start": 61.9016,
      "duration": 0.1031,
      "velocity": 127,
      "chip": "ym2612"
    },
    {
      "channel": 0,
      "note": 50,
      "start": 62.0005,
      "duration": 0.1999,
      "velocity": 118,
      "chip": "ym2612"
    },
    {
      "channel": 1,
      "note": 26,
      "start": 62.0027,
      "duration": 0.0994,
      "velocity": 118,
      "chip": "ym2612"
    },
    {
      "channel": 2,
      "note": 21,
      "start": 62.0049,
      "duration": 0.0993,
      "velocity": 111,
      "chip": "ym2612"
    },
    {
      "channel": 1,
      "note": 46,
      "start": 62.1022,
      "duration": 0.0987,
      "velocity": 118,
      "chip": "ym2612"
    },
    {
      "channel": 2,
      "note": 53,
      "start": 62.1044,
      "duration": 0.0971,
      "velocity": 111,
      "chip": "ym2612"
    },
    {
      "channel": 0,
      "note": 53,
      "start": 62.2005,
      "duration": 0.1999,
      "velocity": 118,
      "chip": "ym2612"
    },
    {
      "channel": 1,
      "note": 48,
      "start": 62.2011,
      "duration": 0.0994,
      "velocity": 118,
      "chip": "ym2612"
    },
    {
      "channel": 2,
      "note": 55,
      "start": 62.2017,
      "duration": 0.0997,
      "velocity": 111,
      "chip": "ym2612"
    },
    {
      "channel": 1,
      "note": 50,
      "start": 62.3006,
      "duration": 0.102,
      "velocity": 127,
      "chip": "ym2612"
    },
    {
      "channel": 2,
      "note": 54,
      "start": 62.3014,
      "duration": 0.0321,
      "velocity": 111,
      "chip": "ym2612"
    },
    {
      "channel": 2,
      "note": 53,
      "start": 62.3334,
      "duration": 0.0167,
      "velocity": 111,
      "chip": "ym2612"
    },
    {
      "channel": 2,
      "note": 52,
      "start": 62.3501,
      "duration": 0.0167,
      "velocity": 111,
      "chip": "ym2612"
    },
    {
      "channel": 2,
      "note": 51,
      "start": 62.3668,
      "duration": 0.0167,
      "velocity": 111,
      "chip": "ym2612"
    },
    {
      "channel": 2,
      "note": 50,
      "start": 62.3834,
      "duration": 0.0197,
      "velocity": 111,
      "chip": "ym2612"
    },
    {
      "channel": 0,
      "note": 43,
      "start": 62.4005,
      "duration": 0.1998,
      "velocity": 118,
      "chip": "ym2612"
    },
    {
      "channel": 1,
      "note": 26,
      "start": 62.4027,
      "duration": 0.1982,
      "velocity": 118,
      "chip": "ym2612"
    },
    {
      "channel": 2,
      "note": 43,
      "start": 62.4033,
      "duration": 0.2982,
      "velocity": 111,
      "chip": "ym2612"
    },
    {
      "channel": 0,
      "note": 43,
      "start": 62.6005,
      "duration": 0.0999,
      "velocity": 118,
      "chip": "ym2612"
    },
    {
      "channel": 1,
      "note": 55,
      "start": 62.601,
      "duration": 0.0999,
      "velocity": 118,
      "chip": "ym2612"
    },
    {
      "channel": 0,
      "note": 50,
      "start": 62.7005,
      "duration": 0.1999,
      "velocity": 118,
      "chip": "ym2612"
    },
    {
      "channel": 1,
      "note": 53,
      "start": 62.7011,
      "duration": 0.101,
      "velocity": 127,
      "chip": "ym2612"
    },
    {
      "channel": 2,
      "note": 44,
      "start": 62.7016,
      "duration": 0.1025,
      "velocity": 127,
      "chip": "ym2612"
    },
    {
      "channel": 1,
      "note": 26,
      "start": 62.8022,
      "duration": 0.1004,
      "velocity": 118,
      "chip": "ym2612"
    },
    {
      "channel": 2,
      "note": 21,
      "start": 62.8044,
      "duration": 0.1982,
      "velocity": 111,
      "chip": "ym2612"
    },
    {
      "channel": 0,
      "note": 53,
      "start": 62.9005,
      "duration": 0.1999,
      "velocity": 118,
      "chip": "ym2612"
    },
    {
      "channel": 1,
      "note": 50,
      "start": 62.9027,
      "duration": 0.0978,
      "velocity": 118,
      "chip": "ym2612"
    },
    {
      "channel": 1,
      "note": 53,
      "start": 63.0006,
      "duration": 0.2014,
      "velocity": 127,
      "chip": "ym2612"
    },
    {
      "channel": 2,
      "note": 43,
      "start": 63.0028,
      "duration": 0.3982,
      "velocity": 111,
      "chip": "ym2612"
    },
    {
      "channel": 0,
      "note": 43,
      "start": 63.1005,
      "duration": 0.1998,
      "velocity": 118,
      "chip": "ym2612"
    },
    {
      "channel": 1,
      "note": 26,
      "start": 63.2022,
      "duration": 0.1003,
      "velocity": 118,
      "chip": "ym2612"
    },
    {
      "channel": 0,
      "note": 44,
      "start": 63.3005,
      "duration": 0.1999,
      "velocity": 118,
      "chip": "ym2612"
    },
    {
      "channel": 1,
      "note": 46,
      "start": 63.3027,
      "duration": 0.0978,
      "velocity": 118,
      "chip": "ym2612"
    },
    {
      "channel": 1,
      "note": 48,
      "start": 63.4006,
      "duration": 0.1003,
      "velocity": 118,
      "chip": "ym2612"
    },
    {
      "channel": 2,
      "note": 43,
      "start": 63.4012,
      "duration": 0.1003,
      "velocity": 111,
      "chip": "ym2612"
    },
    {
      "channel": 0,
      "note": 43,
      "start": 63.5005,
      "duration": 0.0999,
      "velocity": 118,
      "chip": "ym2612"
    },
    {
      "channel": 1,
      "note": 50,
      "start": 63.5011,
      "duration": 0.1015,
      "velocity": 127,
      "chip": "ym2612"
    },
    {
      "channel": 2,
      "note": 50,
      "start": 63.5016,
      "duration": 0.1031,
      "velocity": 127,
      "chip": "ym2612"
    },
    {
      "channel": 0,
      "note": 31,
      "start": 63.6005,
      "duration": 0.1999,
      "velocity": 118,
      "chip": "ym2612"
    },
    {
      "channel": 1,
      "note": 26,
      "start": 63.6027,
      "duration": 0.0994,
      "velocity": 118,
      "chip": "ym2612"
    },
    {
      "channel": 2,
      "note": 21,
      "start": 63.6049,
      "duration": 0.0993,
      "velocity": 111,
      "chip": "ym2612"
    },
    {
      "channel": 1,
      "note": 58,
      "start": 63.7022,
      "duration": 0.0987,
      "velocity": 118,
      "chip": "ym2612"
    },
    {
      "channel": 2,
      "note": 53,
      "start": 63.7044,
      "duration": 0.0971,
      "velocity": 111,
      "chip": "ym2612"
    },
    {
      "channel": 0,
      "note": 53,
      "start": 63.8005,
      "duration": 0.2,
      "velocity": 118,
      "chip": "ym2612"
    },
    {
      "channel": 1,
      "note": 60,
      "start": 63.8011,
      "duration": 0.0994,
      "velocity": 118,
      "chip": "ym2612"
    },
    {
      "channel": 2,
      "note": 55,
      "start": 63.8016,
      "duration": 0.0998,
      "velocity": 111,
      "chip": "ym2612"
    },
    {
      "channel": 1,
      "note": 62,
      "start": 63.9007,
      "duration": 0.102,
      "velocity": 127,
      "chip": "ym2612"
    },
    {
      "channel": 2,
      "note": 54,
      "start": 63.9014,
      "duration": 0.0321,
      "velocity": 111,
      "chip": "ym2612"
    },
    {
      "channel": 2,
      "note": 53,
      "start": 63.9334,
      "duration": 0.0167,
      "velocity": 111,
      "chip": "ym2612"
    },
    {
      "channel": 2,
      "note": 52,
      "start": 63.9501,
      "duration": 0.0167,
      "velocity": 111,
      "chip": "ym2612"
    },
    {
      "channel": 2,
      "note": 51,
      "start": 63.9668,
      "duration": 0.0167,
      "velocity": 111,
      "chip": "ym2612"
    },
    {
      "channel": 2,
      "note": 50,
      "start": 63.9834,
      "duration": 0.0198,
      "velocity": 111,
      "chip": "ym2612"
    },
    {
      "channel": 0,
      "note": 43,
      "start": 64.0007,
      "duration": 0.1996,
      "velocity": 118,
      "chip": "ym2612"
    },
    {
      "channel": 1,
      "note": 26,
      "start": 64.0028,
      "duration": 0.1997,
      "velocity": 118,
      "chip": "ym2612"
    },
    {
      "channel": 2,
      "note": 43,
      "start": 64.0034,
      "duration": 0.298,
      "velocity": 111,
      "chip": "ym2612"
    },
    {
      "channel": 3,
      "note": 58,
      "start": 64.004,
      "duration": 0.0006,
      "velocity": 123,
      "chip": "ym2612"
    },
    {
      "channel": 3,
      "note": 57,
      "start": 64.0046,
      "duration": 0.0289,
      "velocity": 123,
      "chip": "ym2612"
    },
    {
      "channel": 3,
      "note": 56,
      "start": 64.0335,
      "duration": 0.0167,
      "velocity": 123,
      "chip": "ym2612"
    },
    {
      "channel": 3,
      "note": 56,
      "start": 64.0502,
      "duration": 0.0166,
      "velocity": 123,
      "chip": "ym2612"
    },
    {
      "channel": 3,
      "note": 55,
      "start": 64.0668,
      "duration": 0.0167,
      "velocity": 123,
      "chip": "ym2612"
    },
    {
      "channel": 3,
      "note": 55,
      "start": 64.0835,
      "duration": 3.1201,
      "velocity": 123,
      "chip": "ym2612"
    },
    {
      "channel": 0,
      "note": 43,
      "start": 64.2005,
      "duration": 0.0999,
      "velocity": 118,
      "chip": "ym2612"
    },
    {
      "channel": 1,
      "note": 55,
      "start": 64.2027,
      "duration": 0.0982,
      "velocity": 118,
      "chip": "ym2612"
    },
    {
      "channel": 0,
      "note": 50,
      "start": 64.3005,
      "duration": 0.1999,
      "velocity": 118,
      "chip": "ym2612"
    },
    {
      "channel": 1,
      "note": 53,
      "start": 64.3011,
      "duration": 0.101,
      "velocity": 127,
      "chip": "ym2612"
    },
    {
      "channel": 2,
      "note": 44,
      "start": 64.3017,
      "duration": 0.1025,
      "velocity": 127,
      "chip": "ym2612"
    },
    {
      "channel": 1,
      "note": 26,
      "start": 64.4022,
      "duration": 0.1004,
      "velocity": 118,
      "chip": "ym2612"
    },
    {
      "channel": 2,
      "note": 21,
      "start": 64.4044,
      "duration": 0.1982,
      "velocity": 111,
      "chip": "ym2612"
    },
    {
      "channel": 0,
      "note": 53,
      "start": 64.5005,
      "duration": 0.1999,
      "velocity": 118,
      "chip": "ym2612"
    },
    {
      "channel": 1,
      "note": 50,
      "start": 64.5027,
      "duration": 0.0978,
      "velocity": 118,
      "chip": "ym2612"
    },
    {
      "channel": 1,
      "note": 53,
      "start": 64.6006,
      "duration": 0.2014,
      "velocity": 127,
      "chip": "ym2612"
    },
    {
      "channel": 2,
      "note": 43,
      "start": 64.6028,
      "duration": 0.3982,
      "velocity": 111,
      "chip": "ym2612"
    },
    {
      "channel": 0,
      "note": 43,
      "start": 64.7005,
      "duration": 0.1998,
      "velocity": 118,
      "chip": "ym2612"
    },
    {
      "channel": 1,
      "note": 26,
      "start": 64.8022,
      "duration": 0.1982,
      "velocity": 118,
      "chip": "ym2612"
    },
    {
      "channel": 0,
      "note": 44,
      "start": 64.9005,
      "duration": 0.1998,
      "velocity": 118,
      "chip": "ym2612"
    },
    {
      "channel": 1,
      "note": 52,
      "start": 65.0006,
      "duration": 0.202,
      "velocity": 127,
      "chip": "ym2612"
    },
    {
      "channel": 2,
      "note": 43,
      "start": 65.0012,
      "duration": 0.0998,
      "velocity": 111,
      "chip": "ym2612"
    },
    {
      "channel": 0,
      "note": 43,
      "start": 65.1005,
      "duration": 0.0999,
      "velocity": 118,
      "chip": "ym2612"
    },
    {
      "channel": 2,
      "note": 50,
      "start": 65.1012,
      "duration": 0.1035,
      "velocity": 127,
      "chip": "ym2612"
    },
    {
      "channel": 0,
      "note": 50,
      "start": 65.2005,
      "duration": 0.1999,
      "velocity": 118,
      "chip": "ym2612"
    },
    {
      "channel": 1,
      "note": 26,
      "start": 65.2027,
      "duration": 0.0994,
      "velocity": 118,
      "chip": "ym2612"
    },
    {
      "channel": 2,
      "note": 21,
      "start": 65.2049,
      "duration": 0.0993,
      "velocity": 111,
      "chip": "ym2612"
    },
    {
      "channel": 1,
      "note": 48,
      "start": 65.3022,
      "duration": 0.0987,
      "velocity": 118,
      "chip": "ym2612"
    },
    {
      "channel": 2,
      "note": 53,
      "start": 65.3044,
      "duration": 0.0971,
      "velocity": 111,
      "chip": "ym2612"
    },
    {
      "channel": 0,
      "note": 53,
      "start": 65.4005,
      "duration": 0.1998,
      "velocity": 118,
      "chip": "ym2612"
    },
    {
      "channel": 1,
      "note": 50,
      "start": 65.4011,
      "duration": 0.0993,
      "velocity": 118,
      "chip": "ym2612"
    },
    {
      "channel": 2,
      "note": 55,
      "start": 65.4016,
      "duration": 0.0998,
      "velocity": 111,
      "chip": "ym2612"
    },
    {
      "channel": 1,
      "note": 53,
      "start": 65.5006,
      "duration": 0.1019,
      "velocity": 127,
      "chip": "ym2612"
    },
    {
      "channel": 2,
      "note": 54,
      "start": 65.5014,
      "duration": 0.0321,
      "velocity": 111,
      "chip": "ym2612"
    },
    {
      "channel": 2,
      "note": 53,
      "start": 65.5334,
      "duration": 0.0167,
      "velocity": 111,
      "chip": "ym2612"
    },
    {
      "channel": 2,
      "note": 52,
      "start": 65.5501,
      "duration": 0.0167,
      "velocity": 111,
      "chip": "ym2612"
    },
    {
      "channel": 2,
      "note": 51,
      "start": 65.5668,
      "duration": 0.0167,
      "velocity": 111,
      "chip": "ym2612"
    },
    {
      "channel": 2,
      "note": 50,
      "start": 65.5834,
      "duration": 0.0197,
      "velocity": 111,
      "chip": "ym2612"
    },
    {
      "channel": 0,
      "note": 43,
      "start": 65.6005,
      "duration": 0.1998,
      "velocity": 118,
      "chip": "ym2612"
    },
    {
      "channel": 1,
      "note": 26,
      "start": 65.6027,
      "duration": 0.1982,
      "velocity": 118,
      "chip": "ym2612"
    },
    {
      "channel": 2,
      "note": 43,
      "start": 65.6033,
      "duration": 0.2982,
      "velocity": 111,
      "chip": "ym2612"
    },
    {
      "channel": 0,
      "note": 43,
      "start": 65.8005,
      "duration": 0.0999,
      "velocity": 118,
      "chip": "ym2612"
    },
    {
      "channel": 1,
      "note": 55,
      "start": 65.8011,
      "duration": 0.0998,
      "velocity": 118,
      "chip": "ym2612"
    },
    {
      "channel": 0,
      "note": 50,
      "start": 65.9005,
      "duration": 0.1998,
      "velocity": 118,
      "chip": "ym2612"
    },
    {
      "channel": 1,
      "note": 53,
      "start": 65.9011,
      "duration": 0.101,
      "velocity": 127,
      "chip": "ym2612"
    },
    {
      "channel": 2,
      "note": 44,
      "start": 65.9017,
      "duration": 0.1025,
      "velocity": 127,
      "chip": "ym2612"
    },
    {
      "channel": 1,
      "note": 26,
      "start": 66.0022,
      "duration": 0.1003,
      "velocity": 118,
      "chip": "ym2612"
    },
    {
      "channel": 2,
      "note": 21,
      "start": 66.0044,
      "duration": 0.1982,
      "velocity": 111,
      "chip": "ym2612"
    },
    {
      "channel": 0,
      "note": 53,
      "start": 66.1005,
      "duration": 0.1999,
      "velocity": 118,
      "chip": "ym2612"
    },
    {
      "channel": 1,
      "note": 50,
      "start": 66.1027,
      "duration": 0.0978,
      "velocity": 118,
      "chip": "ym2612"
    },
    {
      "channel": 1,
      "note": 53,
      "start": 66.2006,
      "duration": 0.2015,
      "velocity": 127,
      "chip": "ym2612"
    },
    {
      "channel": 2,
      "note": 43,
      "start": 66.2028,
      "duration": 0.3982,
      "velocity": 111,
      "chip": "ym2612"
    },
    {
      "channel": 0,
      "note": 43,
      "start": 66.3005,
      "duration": 0.1998,
      "velocity": 118,
      "chip": "ym2612"
    },
    {
      "channel": 1,
      "note": 26,
      "start": 66.4022,
      "duration": 0.1982,
      "velocity": 118,
      "chip": "ym2612"
    },
    {
      "channel": 0,
      "note": 44,
      "start": 66.5005,
      "duration": 0.1999,
      "velocity": 118,
      "chip": "ym2612"
    },
    {
      "channel": 1,
      "note": 52,
      "start": 66.6006,
      "duration": 0.202,
      "velocity": 127,
      "chip": "ym2612"
    },
    {
      "channel": 2,
      "note": 43,
      "start": 66.6012,
      "duration": 0.0998,
      "velocity": 111,
      "chip": "ym2612"
    },
    {
      "channel": 0,
      "note": 43,
      "start": 66.7005,
      "duration": 0.0999,
      "velocity": 118,
      "chip": "ym2612"
    },
    {
      "channel": 2,
      "note": 50,
      "start": 66.7012,
      "duration": 0.1035,
      "velocity": 127,
      "chip": "ym2612"
    },
    {
      "channel": 0,
      "note": 50,
      "start": 66.8005,
      "duration": 0.1999,
      "velocity": 118,
      "chip": "ym2612"
    },
    {
      "channel": 1,
      "note": 26,
      "start": 66.8027,
      "duration": 0.0994,
      "velocity": 118,
      "chip": "ym2612"
    },
    {
      "channel": 2,
      "note": 21,
      "start": 66.8049,
      "duration": 0.0993,
      "velocity": 111,
      "chip": "ym2612"
    },
    {
      "channel": 1,
      "note": 48,
      "start": 66.9022,
      "duration": 0.0987,
      "velocity": 118,
      "chip": "ym2612"
    },
    {
      "channel": 2,
      "note": 53,
      "start": 66.9044,
      "duration": 0.0971,
      "velocity": 111,
      "chip": "ym2612"
    },
    {
      "channel": 0,
      "note": 53,
      "start": 67.0005,
      "duration": 0.1999,
      "velocity": 118,
      "chip": "ym2612"
    },
    {
      "channel": 1,
      "note": 50,
      "start": 67.0011,
      "duration": 0.0994,
      "velocity": 118,
      "chip": "ym2612"
    },
    {
      "channel": 2,
      "note": 55,
      "start": 67.0017,
      "duration": 0.0997,
      "velocity": 111,
      "chip": "ym2612"
    },
    {
      "channel": 1,
      "note": 53,
      "start": 67.1006,
      "duration": 0.102,
      "velocity": 127,
      "chip": "ym2612"
    },
    {
      "channel": 2,
      "note": 54,
      "start": 67.1014,
      "duration": 0.0321,
      "velocity": 111,
      "chip": "ym2612"
    },
    {
      "channel": 2,
      "note": 53,
      "start": 67.1334,
      "duration": 0.0167,
      "velocity": 111,
      "chip": "ym2612"
    },
    {
      "channel": 2,
      "note": 52,
      "start": 67.1501,
      "duration": 0.0167,
      "velocity": 111,
      "chip": "ym2612"
    },
    {
      "channel": 2,
      "note": 51,
      "start": 67.1668,
      "duration": 0.0167,
      "velocity": 111,
      "chip": "ym2612"
    },
    {
      "channel": 2,
      "note": 50,
      "start": 67.1834,
      "duration": 0.0197,
      "velocity": 111,
      "chip": "ym2612"
    },
    {
      "channel": 0,
      "note": 43,
      "start": 67.2006,
      "duration": 0.1998,
      "velocity": 118,
      "chip": "ym2612"
    },
    {
      "channel": 1,
      "note": 26,
      "start": 67.2028,
      "duration": 0.1981,
      "velocity": 118,
      "chip": "ym2612"
    },
    {
      "channel": 2,
      "note": 43,
      "start": 67.2033,
      "duration": 0.2982,
      "velocity": 111,
      "chip": "ym2612"
    },
    {
      "channel": 3,
      "note": 55,
      "start": 67.2038,
      "duration": 0.0006,
      "velocity": 123,
      "chip": "ym2612"
    },
    {
      "channel": 3,
      "note": 55,
      "start": 67.2044,
      "duration": 0.0291,
      "velocity": 123,
      "chip": "ym2612"
    },
    {
      "channel": 3,
      "note": 54,
      "start": 67.2335,
      "duration": 0.0167,
      "velocity": 123,
      "chip": "ym2612"
    },
    {
      "channel": 3,
      "note": 54,
      "start": 67.2502,
      "duration": 0.0167,
      "velocity": 123,
      "chip": "ym2612"
    },
    {
      "channel": 3,
      "note": 53,
      "start": 67.2669,
      "duration": 0.0167,
      "velocity": 123,
      "chip": "ym2612"
    },
    {
      "channel": 3,
      "note": 52,
      "start": 67.2835,
      "duration": 0.019,
      "velocity": 123,
      "chip": "ym2612"
    },
    {
      "channel": 3,
      "note": 52,
      "start": 67.3026,
      "duration": 0.031,
      "velocity": 123,
      "chip": "ym2612"
    },
    {
      "channel": 3,
      "note": 51,
      "start": 67.3335,
      "duration": 0.0167,
      "velocity": 123,
      "chip": "ym2612"
    },
    {
      "channel": 3,
      "note": 51,
      "start": 67.3502,
      "duration": 0.0167,
      "velocity": 123,
      "chip": "ym2612"
    },
    {
      "channel": 3,
      "note": 50,
      "start": 67.3669,
      "duration": 0.0167,
      "velocity": 123,
      "chip": "ym2612"
    },
    {
      "channel": 3,
      "note": 49,
      "start": 67.3835,
      "duration": 0.0183,
      "velocity": 123,
      "chip": "ym2612"
    },
    {
      "channel": 0,
      "note": 43,
      "start": 67.4005,
      "duration": 0.0999,
      "velocity": 118,
      "chip": "ym2612"
    },
    {
      "channel": 1,
      "note": 55,
      "start": 67.401,
      "duration": 0.0999,
      "velocity": 118,
      "chip": "ym2612"
    },
    {
      "channel": 3,
      "note": 49,
      "start": 67.4018,
      "duration": 3.0052,
      "velocity": 94,
      "chip": "ym2612"
    },
    {
      "channel": 0,
      "note": 50,
      "start": 67.5005,
      "duration": 0.1998,
      "velocity": 118,
      "chip": "ym2612"
    },
    {
      "channel": 1,
      "note": 53,
      "start": 67.5011,
      "duration": 0.101,
      "velocity": 127,
      "chip": "ym2612"
    },
    {
      "channel": 2,
      "note": 44,
      "start": 67.5016,
      "duration": 0.1025,
      "velocity": 127,
      "chip": "ym2612"
    },
    {
      "channel": 1,
      "note": 26,
      "start": 67.6022,
      "duration": 0.1003,
      "velocity": 118,
      "chip": "ym2612"
    },
    {
      "channel": 2,
      "note": 21,
      "start": 67.6044,
      "duration": 0.1982,
      "velocity": 111,
      "chip": "ym2612"
    },
    {
      "channel": 0,
      "note": 53,
      "start": 67.7005,
      "duration": 0.1999,
      "velocity": 118,
      "chip": "ym2612"
    },
    {
      "channel": 1,
      "note": 50,
      "start": 67.7027,
      "duration": 0.0978,
      "velocity": 118,
      "chip": "ym2612"
    },
    {
      "channel": 1,
      "note": 53,
      "start": 67.8006,
      "duration": 0.2014,
      "velocity": 127,
      "chip": "ym2612"
    },
    {
      "channel": 2,
      "note": 43,
      "start": 67.8028,
      "duration": 0.3977,
      "velocity": 111,
      "chip": "ym2612"
    },
    {
      "channel": 0,
      "note": 43,
      "start": 67.9005,
      "duration": 0.1998,
      "velocity": 118,
      "chip": "ym2612"
    },
    {
      "channel": 1,
      "note": 26,
      "start": 68.0022,
      "duration": 0.1003,
      "velocity": 118,
      "chip": "ym2612"
    },
    {
      "channel": 0,
      "note": 44,
      "start": 68.1005,
      "duration": 0.1999,
      "velocity": 118,
      "chip": "ym2612"
    },
    {
      "channel": 1,
      "note": 52,
      "start": 68.1027,
      "duration": 0.1982,
      "velocity": 118,
      "chip": "ym2612"
    },
    {
      "channel": 2,
      "note": 43,
      "start": 68.2007,
      "duration": 0.1008,
      "velocity": 111,
      "chip": "ym2612"
    },
    {
      "channel": 0,
      "note": 43,
      "start": 68.3005,
      "duration": 0.0998,
      "velocity": 118,
      "chip": "ym2612"
    },
    {
      "channel": 1,
      "note": 48,
      "start": 68.3011,
      "duration": 0.1014,
      "velocity": 127,
      "chip": "ym2612"
    },
    {
      "channel": 2,
      "note": 50,
      "start": 68.3016,
      "duration": 0.1031,
      "velocity": 127,
      "chip": "ym2612"
    },
    {
      "channel": 0,
      "note": 50,
      "start": 68.4005,
      "duration": 0.1999,
      "velocity": 118,
      "chip": "ym2612"
    },
    {
      "channel": 1,
      "note": 26,
      "start": 68.4027,
      "duration": 0.0994,
      "velocity": 118,
      "chip": "ym2612"
    },
    {
      "channel": 2,
      "note": 21,
      "start": 68.4048,
      "duration": 0.0994,
      "velocity": 111,
      "chip": "ym2612"
    },
    {
      "channel": 1,
      "note": 46,
      "start": 68.5022,
      "duration": 0.0987,
      "velocity": 118,
      "chip": "ym2612"
    },
    {
      "channel": 2,
      "note": 53,
      "start": 68.5044,
      "duration": 0.0971,
      "velocity": 111,
      "chip": "ym2612"
    },
    {
      "channel": 0,
      "note": 53,
      "start": 68.6005,
      "duration": 0.1998,
      "velocity": 118,
      "chip": "ym2612"
    },
    {
      "channel": 1,
      "note": 48,
      "start": 68.6011,
      "duration": 0.0993,
      "velocity": 118,
      "chip": "ym2612"
    },
    {
      "channel": 2,
      "note": 55,
      "start": 68.6016,
      "duration": 0.0998,
      "velocity": 111,
      "chip": "ym2612"
    },
    {
      "channel": 1,
      "note": 50,
      "start": 68.7006,
      "duration": 0.1019,
      "velocity": 127,
      "chip": "ym2612"
    },
    {
      "channel": 2,
      "note": 54,
      "start": 68.7014,
      "duration": 0.0321,
      "velocity": 111,
      "chip": "ym2612"
    },
    {
      "channel": 2,
      "note": 53,
      "start": 68.7334,
      "duration": 0.0167,
      "velocity": 111,
      "chip": "ym2612"
    },
    {
      "channel": 2,
      "note": 52,
      "start": 68.7501,
      "duration": 0.0167,
      "velocity": 111,
      "chip": "ym2612"
    },
    {
      "channel": 2,
      "note": 51,
      "start": 68.7668,
      "duration": 0.0167,
      "velocity": 111,
      "chip": "ym2612"
    },
    {
      "channel": 2,
      "note": 50,
      "start": 68.7834,
      "duration": 0.0197,
      "velocity": 111,
      "chip": "ym2612"
    },
    {
      "channel": 0,
      "note": 43,
      "start": 68.8005,
      "duration": 0.1998,
      "velocity": 118,
      "chip": "ym2612"
    },
    {
      "channel": 1,
      "note": 26,
      "start": 68.8027,
      "duration": 0.1982,
      "velocity": 118,
      "chip": "ym2612"
    },
    {
      "channel": 2,
      "note": 43,
      "start": 68.8033,
      "duration": 0.2982,
      "velocity": 111,
      "chip": "ym2612"
    },
    {
      "channel": 0,
      "note": 43,
      "start": 69.0005,
      "duration": 0.0999,
      "velocity": 118,
      "chip": "ym2612"
    },
    {
      "channel": 1,
      "note": 55,
      "start": 69.001,
      "duration": 0.0999,
      "velocity": 118,
      "chip": "ym2612"
    },
    {
      "channel": 0,
      "note": 50,
      "start": 69.1005,
      "duration": 0.1999,
      "velocity": 118,
      "chip": "ym2612"
    },
    {
      "channel": 1,
      "note": 53,
      "start": 69.1011,
      "duration": 0.101,
      "velocity": 127,
      "chip": "ym2612"
    },
    {
      "channel": 2,
      "note": 44,
      "start": 69.1016,
      "duration": 0.1025,
      "velocity": 127,
      "chip": "ym2612"
    },
    {
      "channel": 1,
      "note": 26,
      "start": 69.2022,
      "duration": 0.1004,
      "velocity": 118,
      "chip": "ym2612"
    },
    {
      "channel": 2,
      "note": 21,
      "start": 69.2044,
      "duration": 0.1982,
      "velocity": 111,
      "chip": "ym2612"
    },
    {
      "channel": 0,
      "note": 53,
      "start": 69.3005,
      "duration": 0.1999,
      "velocity": 118,
      "chip": "ym2612"
    },
    {
      "channel": 1,
      "note": 50,
      "start": 69.3027,
      "duration": 0.0978,
      "velocity": 118,
      "chip": "ym2612"
    },
    {
      "channel": 1,
      "note": 53,
      "start": 69.4006,
      "duration": 0.2015,
      "velocity": 127,
      "chip": "ym2612"
    },
    {
      "channel": 2,
      "note": 43,
      "start": 69.4028,
      "duration": 0.3982,
      "velocity": 111,
      "chip": "ym2612"
    },
    {
      "channel": 0,
      "note": 43,
      "start": 69.5005,
      "duration": 0.1998,
      "velocity": 118,
      "chip": "ym2612"
    },
    {
      "channel": 1,
      "note": 26,
      "start": 69.6022,
      "duration": 0.1003,
      "velocity": 118,
      "chip": "ym2612"
    },
    {
      "channel": 0,
      "note": 44,
      "start": 69.7005,
      "duration": 0.1999,
      "velocity": 118,
      "chip": "ym2612"
    },
    {
      "channel": 1,
      "note": 46,
      "start": 69.7027,
      "duration": 0.0978,
      "velocity": 118,
      "chip": "ym2612"
    },
    {
      "channel": 1,
      "note": 48,
      "start": 69.8006,
      "duration": 0.1003,
      "velocity": 118,
      "chip": "ym2612"
    },
    {
      "channel": 2,
      "note": 43,
      "start": 69.8012,
      "duration": 0.1003,
      "velocity": 111,
      "chip": "ym2612"
    },
    {
      "channel": 0,
      "note": 43,
      "start": 69.9005,
      "duration": 0.0999,
      "velocity": 118,
      "chip": "ym2612"
    },
    {
      "channel": 1,
      "note": 50,
      "start": 69.9011,
      "duration": 0.1015,
      "velocity": 127,
      "chip": "ym2612"
    },
    {
      "channel": 2,
      "note": 50,
      "start": 69.9017,
      "duration": 0.103,
      "velocity": 127,
      "chip": "ym2612"
    },
    {
      "channel": 0,
      "note": 31,
      "start": 70.0005,
      "duration": 0.1999,
      "velocity": 118,
      "chip": "ym2612"
    },
    {
      "channel": 1,
      "note": 26,
      "start": 70.0027,
      "duration": 0.0994,
      "velocity": 118,
      "chip": "ym2612"
    },
    {
      "channel": 2,
      "note": 21,
      "start": 70.0049,
      "duration": 0.0993,
      "velocity": 111,
      "chip": "ym2612"
    },
    {
      "channel": 1,
      "note": 58,
      "start": 70.1022,
      "duration": 0.0987,
      "velocity": 118,
      "chip": "ym2612"
    },
    {
      "channel": 2,
      "note": 53,
      "start": 70.1044,
      "duration": 0.0971,
      "velocity": 111,
      "chip": "ym2612"
    },
    {
      "channel": 0,
      "note": 53,
      "start": 70.2005,
      "duration": 0.2015,
      "velocity": 94,
      "chip": "ym2612"
    },
    {
      "channel": 1,
      "note": 60,
      "start": 70.2011,
      "duration": 0.0994,
      "velocity": 118,
      "chip": "ym2612"
    },
    {
      "channel": 2,
      "note": 55,
      "start": 70.2017,
      "duration": 0.0998,
      "velocity": 111,
      "chip": "ym2612"
    },
    {
      "channel": 1,
      "note": 62,
      "start": 70.3007,
      "duration": 0.1036,
      "velocity": 94,
      "chip": "ym2612"
    },
    {
      "channel": 2,
      "note": 54,
      "start": 70.3014,
      "duration": 0.032,
      "velocity": 111,
      "chip": "ym2612"
    },
    {
      "channel": 2,
      "note": 53,
      "start": 70.3334,
      "duration": 0.0167,
      "velocity": 111,
      "chip": "ym2612"
    },
    {
      "channel": 2,
      "note": 52,
      "start": 70.3501,
      "duration": 0.0167,
      "velocity": 111,
      "chip": "ym2612"
    },
    {
      "channel": 2,
      "note": 51,
      "start": 70.3668,
      "duration": 0.0167,
      "velocity": 111,
      "chip": "ym2612"
    },
    {
      "channel": 2,
      "note": 50,
      "start": 70.3834,
      "duration": 0.0214,
      "velocity": 111,
      "chip": "ym2612"
    },
    {
      "channel": 0,
      "note": 60,
      "start": 70.4022,
      "duration": 1.5982,
      "velocity": 94,
      "chip": "ym2612"
    },
    {
      "channel": 1,
      "note": 62,
      "start": 70.4044,
      "duration": 1.5966,
      "velocity": 94,
      "chip": "ym2612"
    },
    {
      "channel": 2,
      "note": 43,
      "start": 70.4051,
      "duration": 0.2954,
      "velocity": 111,
      "chip": "ym2612"
    },
    {
      "channel": 3,
      "note": 65,
      "start": 70.4071,
      "duration": 1.5949,
      "velocity": 94,
      "chip": "ym2612"
    },
    {
      "channel": 2,
      "note": 44,
      "start": 70.7006,
      "duration": 0.1014,
      "velocity": 1,
      "chip": "ym2612"
    },
    {
      "channel": 2,
      "note": 21,
      "start": 70.8022,
      "duration": 0.1999,
      "velocity": 111,
      "chip": "ym2612"
    },
    {
      "channel": 2,
      "note": 43,
      "start": 71.0022,
      "duration": 0.3983,
      "velocity": 111,
      "chip": "ym2612"
    },
    {
      "channel": 2,
      "note": 43,
      "start": 71.4006,
      "duration": 0.0998,
      "velocity": 111,
      "chip": "ym2612"
    },
    {
      "channel": 2,
      "note": 50,
      "start": 71.5006,
      "duration": 0.1014,
      "velocity": 1,
      "chip": "ym2612"
    },
    {
      "channel": 2,
      "note": 21,
      "start": 71.6022,
      "duration": 0.0998,
      "velocity": 111,
      "chip": "ym2612"
    },
    {
      "channel": 2,
      "note": 53,
      "start": 71.7022,
      "duration": 0.0983,
      "velocity": 111,
      "chip": "ym2612"
    },
    {
      "channel": 2,
      "note": 55,
      "start": 71.8006,
      "duration": 0.1002,
      "velocity": 111,
      "chip": "ym2612"
    },
    {
      "channel": 2,
      "note": 54,
      "start": 71.9008,
      "duration": 0.0326,
      "velocity": 111,
      "chip": "ym2612"
    },
    {
      "channel": 2,
      "note": 53,
      "start": 71.9334,
      "duration": 0.0167,
      "velocity": 111,
      "chip": "ym2612"
    },
    {
      "channel": 2,
      "note": 52,
      "start": 71.9501,
      "duration": 0.0167,
      "velocity": 111,
      "chip": "ym2612"
    },
    {
      "channel": 2,
      "note": 51,
      "start": 71.9668,
      "duration": 0.0167,
      "velocity": 111,
      "chip": "ym2612"
    },
    {
      "channel": 2,
      "note": 50,
      "start": 71.9834,
      "duration": 0.0181,
      "velocity": 111,
      "chip": "ym2612"
    },
    {
      "channel": 0,
      "note": 63,
      "start": 72.0006,
      "duration": 1.5998,
      "velocity": 94,
      "chip": "ym2612"
    },
    {
      "channel": 1,
      "note": 65,
      "start": 72.0012,
      "duration": 1.5998,
      "velocity": 94,
      "chip": "ym2612"
    },
    {
      "channel": 2,
      "note": 46,
      "start": 72.0017,
      "duration": 0.2988,
      "velocity": 111,
      "chip": "ym2612"
    },
    {
      "channel": 3,
      "note": 58,
      "start": 72.0022,
      "duration": 1.5998,
      "velocity": 94,
      "chip": "ym2612"
    },
    {
      "channel": 2,
      "note": 47,
      "start": 72.3006,
      "duration": 0.1014,
      "velocity": 1,
      "chip": "ym2612"
    },
    {
      "channel": 2,
      "note": 21,
      "start": 72.4022,
      "duration": 0.1999,
      "velocity": 111,
      "chip": "ym2612"
    },
    {
      "channel": 2,
      "note": 46,
      "start": 72.6022,
      "duration": 0.3982,
      "velocity": 111,
      "chip": "ym2612"
    },
    {
      "channel": 2,
      "note": 46,
      "start": 73.0006,
      "duration": 0.0999,
      "velocity": 111,
      "chip": "ym2612"
    },
    {
      "channel": 2,
      "note": 53,
      "start": 73.1006,
      "duration": 0.1014,
      "velocity": 1,
      "chip": "ym2612"
    },
    {
      "channel": 2,
      "note": 21,
      "start": 73.2022,
      "duration": 0.0998,
      "velocity": 111,
      "chip": "ym2612"
    },
    {
      "channel": 2,
      "note": 56,
      "start": 73.3022,
      "duration": 0.0983,
      "velocity": 111,
      "chip": "ym2612"
    },
    {
      "channel": 2,
      "note": 58,
      "start": 73.4006,
      "duration": 0.1002,
      "velocity": 111,
      "chip": "ym2612"
    },
    {
      "channel": 2,
      "note": 57,
      "start": 73.5008,
      "duration": 0.0326,
      "velocity": 111,
      "chip": "ym2612"
    },
    {
      "channel": 2,
      "note": 55,
      "start": 73.5334,
      "duration": 0.0167,
      "velocity": 111,
      "chip": "ym2612"
    },
    {
      "channel": 2,
      "note": 55,
      "start": 73.5501,
      "duration": 0.0167,
      "velocity": 111,
      "chip": "ym2612"
    },
    {
      "channel": 2,
      "note": 54,
      "start": 73.5668,
      "duration": 0.0167,
      "velocity": 111,
      "chip": "ym2612"
    },
    {
      "channel": 2,
      "note": 53,
      "start": 73.5834,
      "duration": 0.018,
      "velocity": 111,
      "chip": "ym2612"
    },
    {
      "channel": 0,
      "note": 65,
      "start": 73.6006,
      "duration": 1.6015,
      "velocity": 114,
      "chip": "ym2612"
    },
    {
      "channel": 1,
      "note": 67,
      "start": 73.6011,
      "duration": 1.603,
      "velocity": 114,
      "chip": "ym2612"
    },
    {
      "channel": 2,
      "note": 48,
      "start": 73.6017,
      "duration": 0.2988,
      "velocity": 111,
      "chip": "ym2612"
    },
    {
      "channel": 3,
      "note": 60,
      "start": 73.6022,
      "duration": 1.6046,
      "velocity": 114,
      "chip": "ym2612"
    },
    {
      "channel": 2,
      "note": 49,
      "start": 73.9006,
      "duration": 0.1014,
      "velocity": 1,
      "chip": "ym2612"
    },
    {
      "channel": 2,
      "note": 21,
      "start": 74.0022,
      "duration": 0.1998,
      "velocity": 111,
      "chip": "ym2612"
    },
    {
      "channel": 2,
      "note": 48,
      "start": 74.2022,
      "duration": 0.3982,
      "velocity": 111,
      "chip": "ym2612"
    },
    {
      "channel": 2,
      "note": 48,
      "start": 74.6006,
      "duration": 0.0999,
      "velocity": 111,
      "chip": "ym2612"
    },
    {
      "channel": 2,
      "note": 55,
      "start": 74.7006,
      "duration": 0.1014,
      "velocity": 1,
      "chip": "ym2612"
    },
    {
      "channel": 2,
      "note": 21,
      "start": 74.8022,
      "duration": 0.0998,
      "velocity": 111,
      "chip": "ym2612"
    },
    {
      "channel": 2,
      "note": 58,
      "start": 74.9022,
      "duration": 0.0983,
      "velocity": 111,
      "chip": "ym2612"
    },
    {
      "channel": 2,
      "note": 60,
      "start": 75.0006,
      "duration": 0.1002,
      "velocity": 111,
      "chip": "ym2612"
    },
    {
      "channel": 2,
      "note": 59,
      "start": 75.1008,
      "duration": 0.0326,
      "velocity": 111,
      "chip": "ym2612"
    },
    {
      "channel": 2,
      "note": 57,
      "start": 75.1334,
      "duration": 0.0167,
      "velocity": 111,
      "chip": "ym2612"
    },
    {
      "channel": 2,
      "note": 56,
      "start": 75.1501,
      "duration": 0.0167,
      "velocity": 111,
      "chip": "ym2612"
    },
    {
      "channel": 2,
      "note": 55,
      "start": 75.1668,
      "duration": 0.0167,
      "velocity": 111,
      "chip": "ym2612"
    },
    {
      "channel": 2,
      "note": 54,
      "start": 75.1834,
      "duration": 0.0213,
      "velocity": 111,
      "chip": "ym2612"
    },
    {
      "channel": 0,
      "note": 60,
      "start": 75.2022,
      "duration": 0.0982,
      "velocity": 114,
      "chip": "ym2612"
    },
    {
      "channel": 1,
      "note": 65,
      "start": 75.2044,
      "duration": 0.0966,
      "velocity": 114,
      "chip": "ym2612"
    },
    {
      "channel": 2,
      "note": 53,
      "start": 75.2049,
      "duration": 0.0966,
      "velocity": 111,
      "chip": "ym2612"
    },
    {
      "channel": 3,
      "note": 67,
      "start": 75.207,
      "duration": 0.095,
      "velocity": 114,
      "chip": "ym2612"
    },
    {
      "channel": 0,
      "note": 60,
      "start": 75.3006,
      "duration": 0.0998,
      "velocity": 114,
      "chip": "ym2612"
    },
    {
      "channel": 1,
      "note": 65,
      "start": 75.3011,
      "duration": 0.0999,
      "velocity": 114,
      "chip": "ym2612"
    },
    {
      "channel": 2,
      "note": 53,
      "start": 75.3017,
      "duration": 0.0999,
      "velocity": 111,
      "chip": "ym2612"
    },
    {
      "channel": 3,
      "note": 67,
      "start": 75.3022,
      "duration": 0.0998,
      "velocity": 114,
      "chip": "ym2612"
    },
    {
      "channel": 0,
      "note": 60,
      "start": 75.4006,
      "duration": 0.0998,
      "velocity": 114,
      "chip": "ym2612"
    },
    {
      "channel": 1,
      "note": 65,
      "start": 75.4012,
      "duration": 0.0998,
      "velocity": 114,
      "chip": "ym2612"
    },
    {
      "channel": 2,
      "note": 53,
      "start": 75.4017,
      "duration": 0.0999,
      "velocity": 111,
      "chip": "ym2612"
    },
    {
      "channel": 3,
      "note": 67,
      "start": 75.4022,
      "duration": 0.0998,
      "velocity": 114,
      "chip": "ym2612"
    },
    {
      "channel": 0,
      "note": 60,
      "start": 75.5006,
      "duration": 0.2014,
      "velocity": 114,
      "chip": "ym2612"
    },
    {
      "channel": 1,
      "note": 65,
      "start": 75.5012,
      "duration": 0.203,
      "velocity": 114,
      "chip": "ym2612"
    },
    {
      "channel": 2,
      "note": 53,
      "start": 75.5017,
      "duration": 0.2046,
      "velocity": 111,
      "chip": "ym2612"
    },
    {
      "channel": 3,
      "note": 67,
      "start": 75.5022,
      "duration": 0.2062,
      "velocity": 114,
      "chip": "ym2612"
    },
    {
      "channel": 0,
      "note": 60,
      "start": 75.7022,
      "duration": 0.1999,
      "velocity": 114,
      "chip": "ym2612"
    },
    {
      "channel": 1,
      "note": 65,
      "start": 75.7044,
      "duration": 0.1998,
      "velocity": 114,
      "chip": "ym2612"
    },
    {
      "channel": 2,
      "note": 53,
      "start": 75.7064,
      "duration": 0.1999,
      "velocity": 111,
      "chip": "ym2612"
    },
    {
      "channel": 3,
      "note": 67,
      "start": 75.7086,
      "duration": 0.1998,
      "velocity": 114,
      "chip": "ym2612"
    },
    {
      "channel": 0,
      "note": 58,
      "start": 75.9022,
      "duration": 0.0982,
      "velocity": 114,
      "chip": "ym2612"
    },
    {
      "channel": 1,
      "note": 63,
      "start": 75.9044,
      "duration": 0.0966,
      "velocity": 114,
      "chip": "ym2612"
    },
    {
      "channel": 2,
      "note": 51,
      "start": 75.9064,
      "duration": 0.0951,
      "velocity": 111,
      "chip": "ym2612"
    },
    {
      "channel": 3,
      "note": 65,
      "start": 75.9086,
      "duration": 0.0934,
      "velocity": 114,
      "chip": "ym2612"
    },
    {
      "channel": 0,
      "note": 60,
      "start": 76.0006,
      "duration": 0.4025,
      "velocity": 114,
      "chip": "ym2612"
    },
    {
      "channel": 1,
      "note": 65,
      "start": 76.0012,
      "duration": 0.4022,
      "velocity": 114,
      "chip": "ym2612"
    },
    {
      "channel": 2,
      "note": 53,
      "start": 76.0017,
      "duration": 0.402,
      "velocity": 111,
      "chip": "ym2612"
    },
    {
      "channel": 3,
      "note": 67,
      "start": 76.0022,
      "duration": 0.4002,
      "velocity": 127,
      "chip": "ym2612"
    },
    {
      "channel": 3,
      "note": 21,
      "start": 76.4026,
      "duration": 0.098,
      "velocity": 127,
      "chip": "ym2612"
    },
    {
      "channel": 0,
      "note": 59,
      "start": 76.4031,
      "duration": 0.0303,
      "velocity": 114,
      "chip": "ym2612"
    },
    {
      "channel": 1,
      "note": 64,
      "start": 76.4033,
      "duration": 0.0303,
      "velocity": 114,
      "chip": "ym2612"
    },
    {
      "channel": 2,
      "note": 52,
      "start": 76.4037,
      "duration": 0.0303,
      "velocity": 111,
      "chip": "ym2612"
    },
    {
      "channel": 0,
      "note": 57,
      "start": 76.4334,
      "duration": 0.0167,
      "velocity": 114,
      "chip": "ym2612"
    },
    {
      "channel": 1,
      "note": 63,
      "start": 76.4336,
      "duration": 0.0167,
      "velocity": 114,
      "chip": "ym2612"
    },
    {
      "channel": 2,
      "note": 51,
      "start": 76.4339,
      "duration": 0.0167,
      "velocity": 111,
      "chip": "ym2612"
    },
    {
      "channel": 0,
      "note": 56,
      "start": 76.45,
      "duration": 0.0167,
      "velocity": 114,
      "chip": "ym2612"
    },
    {
      "channel": 1,
      "note": 62,
      "start": 76.4503,
      "duration": 0.0167,
      "velocity": 114,
      "chip": "ym2612"
    },
    {
      "channel": 2,
      "note": 50,
      "start": 76.4506,
      "duration": 0.0167,
      "velocity": 111,
      "chip": "ym2612"
    },
    {
      "channel": 0,
      "note": 55,
      "start": 76.4667,
      "duration": 0.0167,
      "velocity": 114,
      "chip": "ym2612"
    },
    {
      "channel": 1,
      "note": 61,
      "start": 76.4669,
      "duration": 0.0167,
      "velocity": 114,
      "chip": "ym2612"
    },
    {
      "channel": 2,
      "note": 49,
      "start": 76.4673,
      "duration": 0.0166,
      "velocity": 111,
      "chip": "ym2612"
    },
    {
      "channel": 0,
      "note": 54,
      "start": 76.4834,
      "duration": 0.0178,
      "velocity": 114,
      "chip": "ym2612"
    },
    {
      "channel": 1,
      "note": 60,
      "start": 76.4836,
      "duration": 0.0179,
      "velocity": 114,
      "chip": "ym2612"
    },
    {
      "channel": 2,
      "note": 48,
      "start": 76.4839,
      "duration": 0.0179,
      "velocity": 111,
      "chip": "ym2612"
    },
    {
      "channel": 3,
      "note": 21,
      "start": 76.5008,
      "duration": 0.0997,
      "velocity": 127,
      "chip": "ym2612"
    },
    {
      "channel": 0,
      "note": 53,
      "start": 76.5012,
      "duration": 0.0322,
      "velocity": 114,
      "chip": "ym2612"
    },
    {
      "channel": 1,
      "note": 58,
      "start": 76.5015,
      "duration": 0.0321,
      "velocity": 114,
      "chip": "ym2612"
    },
    {
      "channel": 2,
      "note": 46,
      "start": 76.5017,
      "duration": 0.0322,
      "velocity": 111,
      "chip": "ym2612"
    },
    {
      "channel": 0,
      "note": 52,
      "start": 76.5334,
      "duration": 0.0167,
      "velocity": 114,
      "chip": "ym2612"
    },
    {
      "channel": 1,
      "note": 57,
      "start": 76.5336,
      "duration": 0.0167,
      "velocity": 114,
      "chip": "ym2612"
    },
    {
      "channel": 2,
      "note": 45,
      "start": 76.5339,
      "duration": 0.0167,
      "velocity": 111,
      "chip": "ym2612"
    },
    {
      "channel": 0,
      "note": 51,
      "start": 76.55,
      "duration": 0.0167,
      "velocity": 114,
      "chip": "ym2612"
    },
    {
      "channel": 1,
      "note": 56,
      "start": 76.5503,
      "duration": 0.0167,
      "velocity": 114,
      "chip": "ym2612"
    },
    {
      "channel": 2,
      "note": 44,
      "start": 76.5506,
      "duration": 0.0166,
      "velocity": 111,
      "chip": "ym2612"
    },
    {
      "channel": 0,
      "note": 50,
      "start": 76.5667,
      "duration": 0.0167,
      "velocity": 114,
      "chip": "ym2612"
    },
    {
      "channel": 1,
      "note": 55,
      "start": 76.5669,
      "duration": 0.0167,
      "velocity": 114,
      "chip": "ym2612"
    },
    {
      "channel": 2,
      "note": 43,
      "start": 76.5672,
      "duration": 0.0167,
      "velocity": 111,
      "chip": "ym2612"
    },
    {
      "channel": 0,
      "note": 49,
      "start": 76.5834,
      "duration": 0.0178,
      "velocity": 114,
      "chip": "ym2612"
    },
    {
      "channel": 1,
      "note": 54,
      "start": 76.5836,
      "duration": 0.0178,
      "velocity": 114,
      "chip": "ym2612"
    },
    {
      "channel": 2,
      "note": 42,
      "start": 76.5839,
      "duration": 0.0178,
      "velocity": 111,
      "chip": "ym2612"
    },
    {
      "channel": 3,
      "note": 21,
      "start": 76.6007,
      "duration": 0.0999,
      "velocity": 127,
      "chip": "ym2612"
    },
    {
      "channel": 0,
      "note": 48,
      "start": 76.6011,
      "duration": 0.0322,
      "velocity": 114,
      "chip": "ym2612"
    },
    {
      "channel": 1,
      "note": 53,
      "start": 76.6014,
      "duration": 0.0322,
      "velocity": 114,
      "chip": "ym2612"
    },
    {
      "channel": 2,
      "note": 41,
      "start": 76.6017,
      "duration": 0.0322,
      "velocity": 111,
      "chip": "ym2612"
    },
    {
      "channel": 0,
      "note": 47,
      "start": 76.6334,
      "duration": 0.0167,
      "velocity": 114,
      "chip": "ym2612"
    },
    {
      "channel": 1,
      "note": 52,
      "start": 76.6336,
      "duration": 0.0167,
      "velocity": 114,
      "chip": "ym2612"
    },
    {
      "channel": 2,
      "note": 40,
      "start": 76.6339,
      "duration": 0.0167,
      "velocity": 111,
      "chip": "ym2612"
    },
    {
      "channel": 0,
      "note": 45,
      "start": 76.65,
      "duration": 0.0167,
      "velocity": 114,
      "chip": "ym2612"
    },
    {
      "channel": 1,
      "note": 51,
      "start": 76.6503,
      "duration": 0.0167,
      "velocity": 114,
      "chip": "ym2612"
    },
    {
      "channel": 2,
      "note": 39,
      "start": 76.6506,
      "duration": 0.0167,
      "velocity": 111,
      "chip": "ym2612"
    },
    {
      "channel": 0,
      "note": 44,
      "start": 76.6667,
      "duration": 0.0167,
      "velocity": 114,
      "chip": "ym2612"
    },
    {
      "channel": 1,
      "note": 50,
      "start": 76.6669,
      "duration": 0.0167,
      "velocity": 114,
      "chip": "ym2612"
    },
    {
      "channel": 2,
      "note": 38,
      "start": 76.6673,
      "duration": 0.0167,
      "velocity": 111,
      "chip": "ym2612"
    },
    {
      "channel": 0,
      "note": 43,
      "start": 76.6834,
      "duration": 0.0178,
      "velocity": 114,
      "chip": "ym2612"
    },
    {
      "channel": 1,
      "note": 49,
      "start": 76.6836,
      "duration": 0.0178,
      "velocity": 114,
      "chip": "ym2612"
    },
    {
      "channel": 2,
      "note": 37,
      "start": 76.6839,
      "duration": 0.0178,
      "velocity": 111,
      "chip": "ym2612"
    },
    {
      "channel": 3,
      "note": 21,
      "start": 76.7007,
      "duration": 0.1062,
      "velocity": 1,
      "chip": "ym2612"
    },
    {
      "channel": 0,
      "note": 42,
      "start": 76.7011,
      "duration": 0.0322,
      "velocity": 114,
      "chip": "ym2612"
    },
    {
      "channel": 1,
      "note": 48,
      "start": 76.7014,
      "duration": 0.0322,
      "velocity": 114,
      "chip": "ym2612"
    },
    {
      "channel": 2,
      "note": 36,
      "start": 76.7017,
      "duration": 0.0322,
      "velocity": 111,
      "chip": "ym2612"
    },
    {
      "channel": 0,
      "note": 41,
      "start": 76.7334,
      "duration": 0.0167,
      "velocity": 114,
      "chip": "ym2612"
    },
    {
      "channel": 1,
      "note": 46,
      "start": 76.7336,
      "duration": 0.0167,
      "velocity": 114,
      "chip": "ym2612"
    },
    {
      "channel": 2,
      "note": 34,
      "start": 76.7339,
      "duration": 0.0167,
      "velocity": 111,
      "chip": "ym2612"
    },
    {
      "channel": 0,
      "note": 40,
      "start": 76.75,
      "duration": 0.0167,
      "velocity": 114,
      "chip": "ym2612"
    },
    {
      "channel": 1,
      "note": 45,
      "start": 76.7503,
      "duration": 0.0167,
      "velocity": 114,
      "chip": "ym2612"
    },
    {
      "channel": 2,
      "note": 33,
      "start": 76.7506,
      "duration": 0.0167,
      "velocity": 111,
      "chip": "ym2612"
    },
    {
      "channel": 0,
      "note": 39,
      "start": 76.7667,
      "duration": 0.0167,
      "velocity": 114,
      "chip": "ym2612"
    },
    {
      "channel": 1,
      "note": 44,
      "start": 76.7669,
      "duration": 0.0167,
      "velocity": 114,
      "chip": "ym2612"
    },
    {
      "channel": 2,
      "note": 32,
      "start": 76.7673,
      "duration": 0.0166,
      "velocity": 111,
      "chip": "ym2612"
    },
    {
      "channel": 0,
      "note": 38,
      "start": 76.7834,
      "duration": 0.0187,
      "velocity": 127,
      "chip": "ym2612"
    },
    {
      "channel": 1,
      "note": 43,
      "start": 76.7836,
      "duration": 0.0206,
      "velocity": 1,
      "chip": "ym2612"
    },
    {
      "channel": 2,
      "note": 31,
      "start": 76.7839,
      "duration": 0.021,
      "velocity": 111,
      "chip": "ym2612"
    },
    {
      "channel": 0,
      "note": 26,
      "start": 76.8022,
      "duration": 0.3981,
      "velocity": 127,
      "chip": "ym2612"
    },
    {
      "channel": 1,
      "note": 31,
      "start": 76.8044,
      "duration": 6.3999,
      "velocity": 127,
      "chip": "ym2612"
    },
    {
      "channel": 2,
      "note": 43,
      "start": 76.8051,
      "duration": 0.2954,
      "velocity": 111,
      "chip": "ym2612"
    },
    {
      "channel": 3,
      "note": 31,
      "start": 76.8071,
      "duration": 6.795,
      "velocity": 1,
      "chip": "ym2612"
    },
    {
      "channel": 2,
      "note": 44,
      "start": 77.1006,
      "duration": 0.102,
      "velocity": 127,
      "chip": "ym2612"
    },
    {
      "channel": 0,
      "note": 26,
      "start": 77.2005,
      "duration": 0.3998,
      "velocity": 127,
      "chip": "ym2612"
    },
    {
      "channel": 2,
      "note": 21,
      "start": 77.2027,
      "duration": 0.1993,
      "velocity": 111,
      "chip": "ym2612"
    },
    {
      "channel": 2,
      "note": 43,
      "start": 77.4022,
      "duration": 0.3982,
      "velocity": 111,
      "chip": "ym2612"
    },
    {
      "channel": 0,
      "note": 26,
      "start": 77.6005,
      "duration": 0.3999,
      "velocity": 127,
      "chip": "ym2612"
    },
    {
      "channel": 2,
      "note": 43,
      "start": 77.8006,
      "duration": 0.0999,
      "velocity": 111,
      "chip": "ym2612"
    },
    {
      "channel": 2,
      "note": 50,
      "start": 77.9006,
      "duration": 0.102,
      "velocity": 127,
      "chip": "ym2612"
    },
    {
      "channel": 0,
      "note": 26,
      "start": 78.0005,
      "duration": 0.3998,
      "velocity": 127,
      "chip": "ym2612"
    },
    {
      "channel": 2,
      "note": 21,
      "start": 78.0027,
      "duration": 0.0994,
      "velocity": 111,
      "chip": "ym2612"
    },
    {
      "channel": 2,
      "note": 53,
      "start": 78.1022,
      "duration": 0.0982,
      "velocity": 111,
      "chip": "ym2612"
    },
    {
      "channel": 2,
      "note": 55,
      "start": 78.2006,
      "duration": 0.1002,
      "velocity": 111,
      "chip": "ym2612"
    },
    {
      "channel": 2,
      "note": 54,
      "start": 78.3008,
      "duration": 0.0326,
      "velocity": 111,
      "chip": "ym2612"
    },
    {
      "channel": 2,
      "note": 53,
      "start": 78.3334,
      "duration": 0.0167,
      "velocity": 111,
      "chip": "ym2612"
    },
    {
      "channel": 2,
      "note": 52,
      "start": 78.3501,
      "duration": 0.0167,
      "velocity": 111,
      "chip": "ym2612"
    },
    {
      "channel": 2,
      "note": 51,
      "start": 78.3668,
      "duration": 0.0167,
      "velocity": 111,
      "chip": "ym2612"
    },
    {
      "channel": 2,
      "note": 50,
      "start": 78.3834,
      "duration": 0.0176,
      "velocity": 111,
      "chip": "ym2612"
    },
    {
      "channel": 0,
      "note": 26,
      "start": 78.4005,
      "duration": 0.3998,
      "velocity": 127,
      "chip": "ym2612"
    },
    {
      "channel": 2,
      "note": 43,
      "start": 78.4011,
      "duration": 0.2994,
      "velocity": 111,
      "chip": "ym2612"
    },
    {
      "channel": 2,
      "note": 44,
      "start": 78.7006,
      "duration": 0.1019,
      "velocity": 127,
      "chip": "ym2612"
    },
    {
      "channel": 0,
      "note": 26,
      "start": 78.8005,
      "duration": 0.3998,
      "velocity": 127,
      "chip": "ym2612"
    },
    {
      "channel": 2,
      "note": 21,
      "start": 78.8027,
      "duration": 0.1993,
      "velocity": 111,
      "chip": "ym2612"
    },
    {
      "channel": 2,
      "note": 43,
      "start": 79.0022,
      "duration": 0.3982,
      "velocity": 111,
      "chip": "ym2612"
    },
    {
      "channel": 0,
      "note": 26,
      "start": 79.2005,
      "duration": 0.3999,
      "velocity": 127,
      "chip": "ym2612"
    },
    {
      "channel": 2,
      "note": 43,
      "start": 79.4006,
      "duration": 0.0999,
      "velocity": 111,
      "chip": "ym2612"
    },
    {
      "channel": 2,
      "note": 50,
      "start": 79.5006,
      "duration": 0.1019,
      "velocity": 127,
      "chip": "ym2612"
    },
    {
      "channel": 0,
      "note": 26,
      "start": 79.6005,
      "duration": 0.3998,
      "velocity": 127,
      "chip": "ym2612"
    },
    {
      "channel": 2,
      "note": 21,
      "start": 79.6027,
      "duration": 0.0994,
      "velocity": 111,
      "chip": "ym2612"
    },
    {
      "channel": 2,
      "note": 53,
      "start": 79.7022,
      "duration": 0.0982,
      "velocity": 111,
      "chip": "ym2612"
    },
    {
      "channel": 2,
      "note": 55,
      "start": 79.8006,
      "duration": 0.1002,
      "velocity": 111,
      "chip": "ym2612"
    },
    {
      "channel": 2,
      "note": 54,
      "start": 79.9008,
      "duration": 0.0326,
      "velocity": 111,
      "chip": "ym2612"
    },
    {
      "channel": 2,
      "note": 53,
      "start": 79.9334,
      "duration": 0.0167,
      "velocity": 111,
      "chip": "ym2612"
    },
    {
      "channel": 2,
      "note": 52,
      "start": 79.9501,
      "duration": 0.0167,
      "velocity": 111,
      "chip": "ym2612"
    },
    {
      "channel": 2,
      "note": 51,
      "start": 79.9668,
      "duration": 0.0167,
      "velocity": 111,
      "chip": "ym2612"
    },
    {
      "channel": 2,
      "note": 50,
      "start": 79.9834,
      "duration": 0.0176,
      "velocity": 111,
      "chip": "ym2612"
    },
    {
      "channel": 0,
      "note": 26,
      "start": 80.0005,
      "duration": 0.3998,
      "velocity": 127,
      "chip": "ym2612"
    },
    {
      "channel": 2,
      "note": 43,
      "start": 80.0011,
      "duration": 0.2994,
      "velocity": 111,
      "chip": "ym2612"
    },
    {
      "channel": 2,
      "note": 44,
      "start": 80.3006,
      "duration": 0.102,
      "velocity": 127,
      "chip": "ym2612"
    },
    {
      "channel": 0,
      "note": 26,
      "start": 80.4005,
      "duration": 0.3998,
      "velocity": 127,
      "chip": "ym2612"
    },
    {
      "channel": 2,
      "note": 21,
      "start": 80.4027,
      "duration": 0.1993,
      "velocity": 111,
      "chip": "ym2612"
    },
    {
      "channel": 2,
      "note": 43,
      "start": 80.6022,
      "duration": 0.3982,
      "velocity": 111,
      "chip": "ym2612"
    },
    {
      "channel": 0,
      "note": 26,
      "start": 80.8005,
      "duration": 0.3999,
      "velocity": 127,
      "chip": "ym2612"
    },
    {
      "channel": 2,
      "note": 43,
      "start": 81.0006,
      "duration": 0.0998,
      "velocity": 111,
      "chip": "ym2612"
    },
    {
      "channel": 2,
      "note": 50,
      "start": 81.1006,
      "duration": 0.1019,
      "velocity": 127,
      "chip": "ym2612"
    },
    {
      "channel": 0,
      "note": 26,
      "start": 81.2005,
      "duration": 0.3998,
      "velocity": 127,
      "chip": "ym2612"
    },
    {
      "channel": 2,
      "note": 21,
      "start": 81.2027,
      "duration": 0.0994,
      "velocity": 111,
      "chip": "ym2612"
    },
    {
      "channel": 2,
      "note": 53,
      "start": 81.3022,
      "duration": 0.0983,
      "velocity": 111,
      "chip": "ym2612"
    },
    {
      "channel": 2,
      "note": 55,
      "start": 81.4006,
      "duration": 0.1002,
      "velocity": 111,
      "chip": "ym2612"
    },
    {
      "channel": 2,
      "note": 54,
      "start": 81.5008,
      "duration": 0.0326,
      "velocity": 111,
      "chip": "ym2612"
    },
    {
      "channel": 2,
      "note": 53,
      "start": 81.5334,
      "duration": 0.0167,
      "velocity": 111,
      "chip": "ym2612"
    },
    {
      "channel": 2,
      "note": 52,
      "start": 81.5501,
      "duration": 0.0167,
      "velocity": 111,
      "chip": "ym2612"
    },
    {
      "channel": 2,
      "note": 51,
      "start": 81.5668,
      "duration": 0.0167,
      "velocity": 111,
      "chip": "ym2612"
    },
    {
      "channel": 2,
      "note": 50,
      "start": 81.5834,
      "duration": 0.0176,
      "velocity": 111,
      "chip": "ym2612"
    },
    {
      "channel": 0,
      "note": 26,
      "start": 81.6005,
      "duration": 0.3998,
      "velocity": 127,
      "chip": "ym2612"
    },
    {
      "channel": 2,
      "note": 43,
      "start": 81.6011,
      "duration": 0.2994,
      "velocity": 111,
      "chip": "ym2612"
    },
    {
      "channel": 2,
      "note": 44,
      "start": 81.9006,
      "duration": 0.1019,
      "velocity": 127,
      "chip": "ym2612"
    },
    {
      "channel": 0,
      "note": 26,
      "start": 82.0005,
      "duration": 0.3998,
      "velocity": 127,
      "chip": "ym2612"
    },
    {
      "channel": 2,
      "note": 21,
      "start": 82.0027,
      "duration": 0.1993,
      "velocity": 111,
      "chip": "ym2612"
    },
    {
      "channel": 2,
      "note": 43,
      "start": 82.2022,
      "duration": 0.3983,
      "velocity": 111,
      "chip": "ym2612"
    },
    {
      "channel": 0,
      "note": 26,
      "start": 82.4005,
      "duration": 0.3999,
      "velocity": 127,
      "chip": "ym2612"
    },
    {
      "channel": 2,
      "note": 43,
      "start": 82.6006,
      "duration": 0.0998,
      "velocity": 111,
      "chip": "ym2612"
    },
    {
      "channel": 2,
      "note": 50,
      "start": 82.7006,
      "duration": 0.102,
      "velocity": 127,
      "chip": "ym2612"
    },
    {
      "channel": 0,
      "note": 26,
      "start": 82.8005,
      "duration": 0.4016,
      "velocity": 118,
      "chip": "ym2612"
    },
    {
      "channel": 2,
      "note": 21,
      "start": 82.8027,
      "duration": 0.0994,
      "velocity": 111,
      "chip": "ym2612"
    },
    {
      "channel": 2,
      "note": 53,
      "start": 82.9022,
      "duration": 0.0982,
      "velocity": 111,
      "chip": "ym2612"
    },
    {
      "channel": 2,
      "note": 55,
      "start": 83.0006,
      "duration": 0.1003,
      "velocity": 111,
      "chip": "ym2612"
    },
    {
      "channel": 2,
      "note": 54,
      "start": 83.1009,
      "duration": 0.0325,
      "velocity": 111,
      "chip": "ym2612"
    },
    {
      "channel": 2,
      "note": 53,
      "start": 83.1334,
      "duration": 0.0167,
      "velocity": 111,
      "chip": "ym2612"
    },
    {
      "channel": 2,
      "note": 52,
      "start": 83.1501,
      "duration": 0.0167,
      "velocity": 111,
      "chip": "ym2612"
    },
    {
      "channel": 2,
      "note": 51,
      "start": 83.1668,
      "duration": 0.0167,
      "velocity": 111,
      "chip": "ym2612"
    },
    {
      "channel": 2,
      "note": 50,
      "start": 83.1834,
      "duration": 0.0215,
      "velocity": 111,
      "chip": "ym2612"
    },
    {
      "channel": 0,
      "note": 43,
      "start": 83.2023,
      "duration": 0.198,
      "velocity": 118,
      "chip": "ym2612"
    },
    {
      "channel": 1,
      "note": 26,
      "start": 83.2045,
      "duration": 0.198,
      "velocity": 118,
      "chip": "ym2612"
    },
    {
      "channel": 2,
      "note": 43,
      "start": 83.2051,
      "duration": 0.2964,
      "velocity": 111,
      "chip": "ym2612"
    },
    {
      "channel": 0,
      "note": 43,
      "start": 83.4005,
      "duration": 0.0999,
      "velocity": 118,
      "chip": "ym2612"
    },
    {
      "channel": 1,
      "note": 55,
      "start": 83.4027,
      "duration": 0.0982,
      "velocity": 118,
      "chip": "ym2612"
    },
    {
      "channel": 0,
      "note": 50,
      "start": 83.5005,
      "duration": 0.1016,
      "velocity": 118,
      "chip": "ym2612"
    },
    {
      "channel": 1,
      "note": 53,
      "start": 83.5011,
      "duration": 0.101,
      "velocity": 127,
      "chip": "ym2612"
    },
    {
      "channel": 2,
      "note": 44,
      "start": 83.5017,
      "duration": 0.1005,
      "velocity": 111,
      "chip": "ym2612"
    }
  ]
}