{
  "track_name": "03 - Gargoyle",
  "duration_sec": 47.368,
  "sample_rate": 44100,
  "note_count": 1535,
  "unique_pitches": 37,
  "pitch_range": 84,
  "avg_note_duration": 0.1296,
  "reconstruction_stats": {
    "notes_reconstructed": 1535,
    "keyon_events": 1535,
    "keyoff_events": 1534,
    "orphan_keyons": 1,
    "unique_pitches": 37,
    "pitch_range": 84,
    "avg_duration_sec": 0.1296
  },
  "metadata": {
    "source": "T\\Thunder Force III\\03 - Gargoyle.vgz"
  },
  "notes": [
    {
      "channel": 0,
      "note": 41,
      "start": 0.0,
      "duration": 0.0,
      "velocity": 99,
      "chip": "ym2612"
    },
    {
      "channel": 0,
      "note": 53,
      "start": 0.0,
      "duration": 0.0,
      "velocity": 99,
      "chip": "ym2612"
    },
    {
      "channel": 1,
      "note": 72,
      "start": 0.0,
      "duration": 0.0,
      "velocity": 108,
      "chip": "ym2612"
    },
    {
      "channel": 2,
      "note": 57,
      "start": 0.0,
      "duration": 0.0,
      "velocity": 127,
      "chip": "ym2612"
    },
    {
      "channel": 3,
      "note": 65,
      "start": 0.0,
      "duration": 0.0,
      "velocity": 108,
      "chip": "ym2612"
    },
    {
      "channel": 4,
      "note": 68,
      "start": 0.0,
      "duration": 0.0,
      "velocity": 108,
      "chip": "ym2612"
    },
    {
      "channel": 5,
      "note": 53,
      "start": 0.0,
      "duration": 0.0,
      "velocity": 127,
      "chip": "ym2612"
    },
    {
      "channel": 5,
      "note": 53,
      "start": 0.0,
      "duration": 0.0,
      "velocity": 127,
      "chip": "ym2612"
    },
    {
      "channel": 0,
      "note": 57,
      "start": 0.0001,
      "duration": 0.1923,
      "velocity": 94,
      "chip": "ym2612"
    },
    {
      "channel": 1,
      "note": 57,
      "start": 0.0018,
      "duration": 0.4183,
      "velocity": 121,
      "chip": "ym2612"
    },
    {
      "channel": 2,
      "note": 54,
      "start": 0.004,
      "duration": 0.0181,
      "velocity": 127,
      "chip": "ym2612"
    },
    {
      "channel": 3,
      "note": 21,
      "start": 0.0057,
      "duration": 7.2412,
      "velocity": 97,
      "chip": "ym2612"
    },
    {
      "channel": 4,
      "note": 57,
      "start": 0.0074,
      "duration": 0.414,
      "velocity": 117,
      "chip": "ym2612"
    },
    {
      "channel": 5,
      "note": 21,
      "start": 0.0091,
      "duration": 7.3139,
      "velocity": 97,
      "chip": "ym2612"
    },
    {
      "channel": 2,
      "note": 42,
      "start": 0.1186,
      "duration": 0.0177,
      "velocity": 127,
      "chip": "ym2612"
    },
    {
      "channel": 0,
      "note": 69,
      "start": 0.2317,
      "duration": 0.1882,
      "velocity": 94,
      "chip": "ym2612"
    },
    {
      "channel": 2,
      "note": 42,
      "start": 0.2339,
      "duration": 0.0162,
      "velocity": 127,
      "chip": "ym2612"
    },
    {
      "channel": 2,
      "note": 42,
      "start": 0.3461,
      "duration": 0.0176,
      "velocity": 127,
      "chip": "ym2612"
    },
    {
      "channel": 0,
      "note": 57,
      "start": 0.4592,
      "duration": 0.0744,
      "velocity": 94,
      "chip": "ym2612"
    },
    {
      "channel": 1,
      "note": 60,
      "start": 0.4609,
      "duration": 0.1866,
      "velocity": 121,
      "chip": "ym2612"
    },
    {
      "channel": 2,
      "note": 66,
      "start": 0.4629,
      "duration": 0.0146,
      "velocity": 127,
      "chip": "ym2612"
    },
    {
      "channel": 4,
      "note": 60,
      "start": 0.4651,
      "duration": 0.1837,
      "velocity": 117,
      "chip": "ym2612"
    },
    {
      "channel": 0,
      "note": 69,
      "start": 0.573,
      "duration": 0.1882,
      "velocity": 94,
      "chip": "ym2612"
    },
    {
      "channel": 2,
      "note": 42,
      "start": 0.5752,
      "duration": 0.0161,
      "velocity": 127,
      "chip": "ym2612"
    },
    {
      "channel": 1,
      "note": 57,
      "start": 0.6869,
      "duration": 0.0745,
      "velocity": 121,
      "chip": "ym2612"
    },
    {
      "channel": 2,
      "note": 42,
      "start": 0.6889,
      "duration": 0.0162,
      "velocity": 127,
      "chip": "ym2612"
    },
    {
      "channel": 4,
      "note": 57,
      "start": 0.6911,
      "duration": 0.0716,
      "velocity": 117,
      "chip": "ym2612"
    },
    {
      "channel": 0,
      "note": 57,
      "start": 0.8005,
      "duration": 0.0745,
      "velocity": 94,
      "chip": "ym2612"
    },
    {
      "channel": 1,
      "note": 62,
      "start": 0.8022,
      "duration": 0.1866,
      "velocity": 121,
      "chip": "ym2612"
    },
    {
      "channel": 2,
      "note": 42,
      "start": 0.8043,
      "duration": 0.0146,
      "velocity": 127,
      "chip": "ym2612"
    },
    {
      "channel": 4,
      "note": 62,
      "start": 0.8064,
      "duration": 0.1837,
      "velocity": 117,
      "chip": "ym2612"
    },
    {
      "channel": 0,
      "note": 57,
      "start": 0.9143,
      "duration": 0.1882,
      "velocity": 94,
      "chip": "ym2612"
    },
    {
      "channel": 2,
      "note": 54,
      "start": 0.9166,
      "duration": 0.016,
      "velocity": 127,
      "chip": "ym2612"
    },
    {
      "channel": 1,
      "note": 57,
      "start": 1.0282,
      "duration": 0.0745,
      "velocity": 121,
      "chip": "ym2612"
    },
    {
      "channel": 2,
      "note": 42,
      "start": 1.0302,
      "duration": 0.0162,
      "velocity": 127,
      "chip": "ym2612"
    },
    {
      "channel": 4,
      "note": 57,
      "start": 1.0324,
      "duration": 0.0716,
      "velocity": 117,
      "chip": "ym2612"
    },
    {
      "channel": 0,
      "note": 69,
      "start": 1.1419,
      "duration": 0.1881,
      "velocity": 94,
      "chip": "ym2612"
    },
    {
      "channel": 1,
      "note": 64,
      "start": 1.1435,
      "duration": 0.4143,
      "velocity": 121,
      "chip": "ym2612"
    },
    {
      "channel": 2,
      "note": 42,
      "start": 1.1456,
      "duration": 0.0146,
      "velocity": 127,
      "chip": "ym2612"
    },
    {
      "channel": 4,
      "note": 64,
      "start": 1.1477,
      "duration": 0.4113,
      "velocity": 117,
      "chip": "ym2612"
    },
    {
      "channel": 2,
      "note": 42,
      "start": 1.2562,
      "duration": 0.0177,
      "velocity": 127,
      "chip": "ym2612"
    },
    {
      "channel": 0,
      "note": 57,
      "start": 1.3693,
      "duration": 0.1882,
      "velocity": 94,
      "chip": "ym2612"
    },
    {
      "channel": 2,
      "note": 66,
      "start": 1.3715,
      "duration": 0.0161,
      "velocity": 127,
      "chip": "ym2612"
    },
    {
      "channel": 2,
      "note": 42,
      "start": 1.4837,
      "duration": 0.0177,
      "velocity": 127,
      "chip": "ym2612"
    },
    {
      "channel": 0,
      "note": 57,
      "start": 1.5968,
      "duration": 0.1882,
      "velocity": 94,
      "chip": "ym2612"
    },
    {
      "channel": 1,
      "note": 57,
      "start": 1.5985,
      "duration": 0.1868,
      "velocity": 121,
      "chip": "ym2612"
    },
    {
      "channel": 2,
      "note": 42,
      "start": 1.6005,
      "duration": 0.0147,
      "velocity": 127,
      "chip": "ym2612"
    },
    {
      "channel": 4,
      "note": 57,
      "start": 1.6027,
      "duration": 0.1839,
      "velocity": 117,
      "chip": "ym2612"
    },
    {
      "channel": 2,
      "note": 42,
      "start": 1.7113,
      "duration": 0.0177,
      "velocity": 127,
      "chip": "ym2612"
    },
    {
      "channel": 0,
      "note": 57,
      "start": 1.8244,
      "duration": 0.1882,
      "velocity": 94,
      "chip": "ym2612"
    },
    {
      "channel": 1,
      "note": 57,
      "start": 1.826,
      "duration": 0.4143,
      "velocity": 121,
      "chip": "ym2612"
    },
    {
      "channel": 2,
      "note": 54,
      "start": 1.8282,
      "duration": 0.0145,
      "velocity": 127,
      "chip": "ym2612"
    },
    {
      "channel": 4,
      "note": 57,
      "start": 1.8318,
      "duration": 0.4098,
      "velocity": 117,
      "chip": "ym2612"
    },
    {
      "channel": 2,
      "note": 42,
      "start": 1.9388,
      "duration": 0.0177,
      "velocity": 127,
      "chip": "ym2612"
    },
    {
      "channel": 0,
      "note": 69,
      "start": 2.0519,
      "duration": 0.1882,
      "velocity": 94,
      "chip": "ym2612"
    },
    {
      "channel": 2,
      "note": 42,
      "start": 2.0541,
      "duration": 0.0162,
      "velocity": 127,
      "chip": "ym2612"
    },
    {
      "channel": 2,
      "note": 42,
      "start": 2.1663,
      "duration": 0.0177,
      "velocity": 127,
      "chip": "ym2612"
    },
    {
      "channel": 0,
      "note": 57,
      "start": 2.2795,
      "duration": 0.0744,
      "velocity": 94,
      "chip": "ym2612"
    },
    {
      "channel": 1,
      "note": 60,
      "start": 2.2811,
      "duration": 0.1867,
      "velocity": 121,
      "chip": "ym2612"
    },
    {
      "channel": 2,
      "note": 66,
      "start": 2.2831,
      "duration": 0.0146,
      "velocity": 127,
      "chip": "ym2612"
    },
    {
      "channel": 4,
      "note": 60,
      "start": 2.2853,
      "duration": 0.1838,
      "velocity": 117,
      "chip": "ym2612"
    },
    {
      "channel": 0,
      "note": 69,
      "start": 2.3933,
      "duration": 0.188,
      "velocity": 94,
      "chip": "ym2612"
    },
    {
      "channel": 2,
      "note": 42,
      "start": 2.3954,
      "duration": 0.016,
      "velocity": 127,
      "chip": "ym2612"
    },
    {
      "channel": 1,
      "note": 57,
      "start": 2.5071,
      "duration": 0.0745,
      "velocity": 121,
      "chip": "ym2612"
    },
    {
      "channel": 2,
      "note": 42,
      "start": 2.5091,
      "duration": 0.0161,
      "velocity": 127,
      "chip": "ym2612"
    },
    {
      "channel": 4,
      "note": 57,
      "start": 2.5113,
      "duration": 0.0716,
      "velocity": 117,
      "chip": "ym2612"
    },
    {
      "channel": 0,
      "note": 57,
      "start": 2.6207,
      "duration": 0.0744,
      "velocity": 94,
      "chip": "ym2612"
    },
    {
      "channel": 1,
      "note": 62,
      "start": 2.6223,
      "duration": 0.1867,
      "velocity": 121,
      "chip": "ym2612"
    },
    {
      "channel": 2,
      "note": 42,
      "start": 2.6244,
      "duration": 0.0146,
      "velocity": 127,
      "chip": "ym2612"
    },
    {
      "channel": 4,
      "note": 62,
      "start": 2.6265,
      "duration": 0.1838,
      "velocity": 117,
      "chip": "ym2612"
    },
    {
      "channel": 0,
      "note": 57,
      "start": 2.7345,
      "duration": 0.1882,
      "velocity": 94,
      "chip": "ym2612"
    },
    {
      "channel": 2,
      "note": 54,
      "start": 2.7368,
      "duration": 0.016,
      "velocity": 127,
      "chip": "ym2612"
    },
    {
      "channel": 1,
      "note": 57,
      "start": 2.8484,
      "duration": 0.0745,
      "velocity": 121,
      "chip": "ym2612"
    },
    {
      "channel": 2,
      "note": 42,
      "start": 2.8504,
      "duration": 0.0161,
      "velocity": 127,
      "chip": "ym2612"
    },
    {
      "channel": 4,
      "note": 57,
      "start": 2.8526,
      "duration": 0.0715,
      "velocity": 117,
      "chip": "ym2612"
    },
    {
      "channel": 0,
      "note": 69,
      "start": 2.962,
      "duration": 0.1882,
      "velocity": 94,
      "chip": "ym2612"
    },
    {
      "channel": 1,
      "note": 64,
      "start": 2.9636,
      "duration": 0.1868,
      "velocity": 121,
      "chip": "ym2612"
    },
    {
      "channel": 2,
      "note": 42,
      "start": 2.9656,
      "duration": 0.0147,
      "velocity": 127,
      "chip": "ym2612"
    },
    {
      "channel": 4,
      "note": 64,
      "start": 2.9678,
      "duration": 0.1839,
      "velocity": 117,
      "chip": "ym2612"
    },
    {
      "channel": 2,
      "note": 42,
      "start": 3.0763,
      "duration": 0.0177,
      "velocity": 127,
      "chip": "ym2612"
    },
    {
      "channel": 0,
      "note": 55,
      "start": 3.1895,
      "duration": 0.1882,
      "velocity": 94,
      "chip": "ym2612"
    },
    {
      "channel": 1,
      "note": 55,
      "start": 3.1911,
      "duration": 0.4143,
      "velocity": 121,
      "chip": "ym2612"
    },
    {
      "channel": 2,
      "note": 66,
      "start": 3.1932,
      "duration": 0.0147,
      "velocity": 127,
      "chip": "ym2612"
    },
    {
      "channel": 4,
      "note": 55,
      "start": 3.1953,
      "duration": 0.4114,
      "velocity": 117,
      "chip": "ym2612"
    },
    {
      "channel": 2,
      "note": 42,
      "start": 3.3039,
      "duration": 0.0176,
      "velocity": 127,
      "chip": "ym2612"
    },
    {
      "channel": 0,
      "note": 67,
      "start": 3.4171,
      "duration": 0.1882,
      "velocity": 94,
      "chip": "ym2612"
    },
    {
      "channel": 2,
      "note": 42,
      "start": 3.4192,
      "duration": 0.0161,
      "velocity": 127,
      "chip": "ym2612"
    },
    {
      "channel": 2,
      "note": 42,
      "start": 3.5314,
      "duration": 0.0177,
      "velocity": 127,
      "chip": "ym2612"
    },
    {
      "channel": 0,
      "note": 57,
      "start": 3.6449,
      "duration": 0.1878,
      "velocity": 94,
      "chip": "ym2612"
    },
    {
      "channel": 1,
      "note": 57,
      "start": 3.6469,
      "duration": 0.4136,
      "velocity": 121,
      "chip": "ym2612"
    },
    {
      "channel": 2,
      "note": 54,
      "start": 3.6495,
      "duration": 0.0134,
      "velocity": 127,
      "chip": "ym2612"
    },
    {
      "channel": 4,
      "note": 57,
      "start": 3.6534,
      "duration": 0.4083,
      "velocity": 117,
      "chip": "ym2612"
    },
    {
      "channel": 2,
      "note": 42,
      "start": 3.7589,
      "duration": 0.0177,
      "velocity": 127,
      "chip": "ym2612"
    },
    {
      "channel": 0,
      "note": 69,
      "start": 3.872,
      "duration": 0.1883,
      "velocity": 94,
      "chip": "ym2612"
    },
    {
      "channel": 2,
      "note": 42,
      "start": 3.8742,
      "duration": 0.0161,
      "velocity": 127,
      "chip": "ym2612"
    },
    {
      "channel": 2,
      "note": 42,
      "start": 3.9865,
      "duration": 0.0176,
      "velocity": 127,
      "chip": "ym2612"
    },
    {
      "channel": 0,
      "note": 57,
      "start": 4.0996,
      "duration": 0.0744,
      "velocity": 94,
      "chip": "ym2612"
    },
    {
      "channel": 1,
      "note": 60,
      "start": 4.1012,
      "duration": 0.1867,
      "velocity": 121,
      "chip": "ym2612"
    },
    {
      "channel": 2,
      "note": 66,
      "start": 4.1033,
      "duration": 0.0146,
      "velocity": 127,
      "chip": "ym2612"
    },
    {
      "channel": 4,
      "note": 60,
      "start": 4.1055,
      "duration": 0.1837,
      "velocity": 117,
      "chip": "ym2612"
    },
    {
      "channel": 0,
      "note": 69,
      "start": 4.2134,
      "duration": 0.1882,
      "velocity": 94,
      "chip": "ym2612"
    },
    {
      "channel": 2,
      "note": 42,
      "start": 4.2155,
      "duration": 0.0161,
      "velocity": 127,
      "chip": "ym2612"
    },
    {
      "channel": 1,
      "note": 57,
      "start": 4.3272,
      "duration": 0.0745,
      "velocity": 121,
      "chip": "ym2612"
    },
    {
      "channel": 2,
      "note": 42,
      "start": 4.3293,
      "duration": 0.0162,
      "velocity": 127,
      "chip": "ym2612"
    },
    {
      "channel": 4,
      "note": 57,
      "start": 4.3314,
      "duration": 0.0716,
      "velocity": 117,
      "chip": "ym2612"
    },
    {
      "channel": 0,
      "note": 57,
      "start": 4.4409,
      "duration": 0.0744,
      "velocity": 94,
      "chip": "ym2612"
    },
    {
      "channel": 1,
      "note": 62,
      "start": 4.4425,
      "duration": 0.1867,
      "velocity": 121,
      "chip": "ym2612"
    },
    {
      "channel": 2,
      "note": 42,
      "start": 4.4445,
      "duration": 0.0146,
      "velocity": 127,
      "chip": "ym2612"
    },
    {
      "channel": 4,
      "note": 62,
      "start": 4.4467,
      "duration": 0.1838,
      "velocity": 117,
      "chip": "ym2612"
    },
    {
      "channel": 0,
      "note": 57,
      "start": 4.5546,
      "duration": 0.1882,
      "velocity": 94,
      "chip": "ym2612"
    },
    {
      "channel": 2,
      "note": 54,
      "start": 4.5569,
      "duration": 0.016,
      "velocity": 127,
      "chip": "ym2612"
    },
    {
      "channel": 1,
      "note": 57,
      "start": 4.6685,
      "duration": 0.0746,
      "velocity": 121,
      "chip": "ym2612"
    },
    {
      "channel": 2,
      "note": 42,
      "start": 4.6706,
      "duration": 0.0161,
      "velocity": 127,
      "chip": "ym2612"
    },
    {
      "channel": 4,
      "note": 57,
      "start": 4.6728,
      "duration": 0.0716,
      "velocity": 117,
      "chip": "ym2612"
    },
    {
      "channel": 0,
      "note": 69,
      "start": 4.7821,
      "duration": 0.1882,
      "velocity": 94,
      "chip": "ym2612"
    },
    {
      "channel": 1,
      "note": 64,
      "start": 4.7838,
      "duration": 0.4143,
      "velocity": 121,
      "chip": "ym2612"
    },
    {
      "channel": 2,
      "note": 42,
      "start": 4.7859,
      "duration": 0.0146,
      "velocity": 127,
      "chip": "ym2612"
    },
    {
      "channel": 4,
      "note": 64,
      "start": 4.788,
      "duration": 0.4113,
      "velocity": 117,
      "chip": "ym2612"
    },
    {
      "channel": 2,
      "note": 42,
      "start": 4.8966,
      "duration": 0.0176,
      "velocity": 127,
      "chip": "ym2612"
    },
    {
      "channel": 0,
      "note": 57,
      "start": 5.0097,
      "duration": 0.1882,
      "velocity": 94,
      "chip": "ym2612"
    },
    {
      "channel": 2,
      "note": 66,
      "start": 5.0118,
      "duration": 0.0162,
      "velocity": 127,
      "chip": "ym2612"
    },
    {
      "channel": 2,
      "note": 42,
      "start": 5.1241,
      "duration": 0.0177,
      "velocity": 127,
      "chip": "ym2612"
    },
    {
      "channel": 0,
      "note": 57,
      "start": 5.2372,
      "duration": 0.1882,
      "velocity": 94,
      "chip": "ym2612"
    },
    {
      "channel": 1,
      "note": 57,
      "start": 5.2388,
      "duration": 0.1868,
      "velocity": 121,
      "chip": "ym2612"
    },
    {
      "channel": 2,
      "note": 42,
      "start": 5.2408,
      "duration": 0.0147,
      "velocity": 127,
      "chip": "ym2612"
    },
    {
      "channel": 4,
      "note": 57,
      "start": 5.243,
      "duration": 0.1839,
      "velocity": 117,
      "chip": "ym2612"
    },
    {
      "channel": 2,
      "note": 42,
      "start": 5.3516,
      "duration": 0.0177,
      "velocity": 127,
      "chip": "ym2612"
    },
    {
      "channel": 0,
      "note": 57,
      "start": 5.4647,
      "duration": 0.1882,
      "velocity": 94,
      "chip": "ym2612"
    },
    {
      "channel": 1,
      "note": 57,
      "start": 5.4664,
      "duration": 0.4143,
      "velocity": 121,
      "chip": "ym2612"
    },
    {
      "channel": 2,
      "note": 54,
      "start": 5.4686,
      "duration": 0.0144,
      "velocity": 127,
      "chip": "ym2612"
    },
    {
      "channel": 4,
      "note": 57,
      "start": 5.4723,
      "duration": 0.4096,
      "velocity": 117,
      "chip": "ym2612"
    },
    {
      "channel": 2,
      "note": 42,
      "start": 5.5791,
      "duration": 0.0176,
      "velocity": 127,
      "chip": "ym2612"
    },
    {
      "channel": 0,
      "note": 69,
      "start": 5.6922,
      "duration": 0.1882,
      "velocity": 94,
      "chip": "ym2612"
    },
    {
      "channel": 2,
      "note": 42,
      "start": 5.6944,
      "duration": 0.0162,
      "velocity": 127,
      "chip": "ym2612"
    },
    {
      "channel": 2,
      "note": 42,
      "start": 5.8066,
      "duration": 0.0177,
      "velocity": 127,
      "chip": "ym2612"
    },
    {
      "channel": 0,
      "note": 57,
      "start": 5.9199,
      "duration": 0.0744,
      "velocity": 94,
      "chip": "ym2612"
    },
    {
      "channel": 1,
      "note": 60,
      "start": 5.9215,
      "duration": 0.1866,
      "velocity": 121,
      "chip": "ym2612"
    },
    {
      "channel": 2,
      "note": 66,
      "start": 5.9236,
      "duration": 0.0146,
      "velocity": 127,
      "chip": "ym2612"
    },
    {
      "channel": 4,
      "note": 60,
      "start": 5.9257,
      "duration": 0.1837,
      "velocity": 117,
      "chip": "ym2612"
    },
    {
      "channel": 0,
      "note": 69,
      "start": 6.0335,
      "duration": 0.1882,
      "velocity": 94,
      "chip": "ym2612"
    },
    {
      "channel": 2,
      "note": 42,
      "start": 6.0358,
      "duration": 0.0161,
      "velocity": 127,
      "chip": "ym2612"
    },
    {
      "channel": 1,
      "note": 57,
      "start": 6.1475,
      "duration": 0.0744,
      "velocity": 121,
      "chip": "ym2612"
    },
    {
      "channel": 2,
      "note": 42,
      "start": 6.1496,
      "duration": 0.016,
      "velocity": 127,
      "chip": "ym2612"
    },
    {
      "channel": 4,
      "note": 57,
      "start": 6.1517,
      "duration": 0.0715,
      "velocity": 117,
      "chip": "ym2612"
    },
    {
      "channel": 0,
      "note": 57,
      "start": 6.2611,
      "duration": 0.0745,
      "velocity": 94,
      "chip": "ym2612"
    },
    {
      "channel": 1,
      "note": 62,
      "start": 6.2627,
      "duration": 0.0731,
      "velocity": 121,
      "chip": "ym2612"
    },
    {
      "channel": 2,
      "note": 42,
      "start": 6.2647,
      "duration": 0.0146,
      "velocity": 127,
      "chip": "ym2612"
    },
    {
      "channel": 4,
      "note": 62,
      "start": 6.2669,
      "duration": 0.0702,
      "velocity": 117,
      "chip": "ym2612"
    },
    {
      "channel": 0,
      "note": 69,
      "start": 6.3748,
      "duration": 0.1882,
      "velocity": 94,
      "chip": "ym2612"
    },
    {
      "channel": 1,
      "note": 69,
      "start": 6.3765,
      "duration": 0.1868,
      "velocity": 121,
      "chip": "ym2612"
    },
    {
      "channel": 2,
      "note": 54,
      "start": 6.3786,
      "duration": 0.0144,
      "velocity": 127,
      "chip": "ym2612"
    },
    {
      "channel": 4,
      "note": 69,
      "start": 6.3808,
      "duration": 0.1837,
      "velocity": 117,
      "chip": "ym2612"
    },
    {
      "channel": 2,
      "note": 66,
      "start": 6.4894,
      "duration": 0.0175,
      "velocity": 127,
      "chip": "ym2612"
    },
    {
      "channel": 0,
      "note": 67,
      "start": 6.6024,
      "duration": 0.1882,
      "velocity": 94,
      "chip": "ym2612"
    },
    {
      "channel": 1,
      "note": 67,
      "start": 6.6039,
      "duration": 0.1868,
      "velocity": 121,
      "chip": "ym2612"
    },
    {
      "channel": 2,
      "note": 66,
      "start": 6.6062,
      "duration": 0.0144,
      "velocity": 127,
      "chip": "ym2612"
    },
    {
      "channel": 4,
      "note": 67,
      "start": 6.6083,
      "duration": 0.1837,
      "velocity": 117,
      "chip": "ym2612"
    },
    {
      "channel": 2,
      "note": 66,
      "start": 6.7169,
      "duration": 0.0175,
      "velocity": 127,
      "chip": "ym2612"
    },
    {
      "channel": 0,
      "note": 64,
      "start": 6.8298,
      "duration": 0.1882,
      "velocity": 94,
      "chip": "ym2612"
    },
    {
      "channel": 1,
      "note": 64,
      "start": 6.8314,
      "duration": 0.1868,
      "velocity": 121,
      "chip": "ym2612"
    },
    {
      "channel": 2,
      "note": 66,
      "start": 6.8337,
      "duration": 0.0145,
      "velocity": 127,
      "chip": "ym2612"
    },
    {
      "channel": 4,
      "note": 64,
      "start": 6.8359,
      "duration": 0.1837,
      "velocity": 117,
      "chip": "ym2612"
    },
    {
      "channel": 2,
      "note": 66,
      "start": 6.9444,
      "duration": 0.0175,
      "velocity": 127,
      "chip": "ym2612"
    },
    {
      "channel": 0,
      "note": 62,
      "start": 7.0574,
      "duration": 0.1882,
      "velocity": 94,
      "chip": "ym2612"
    },
    {
      "channel": 1,
      "note": 62,
      "start": 7.059,
      "duration": 0.1868,
      "velocity": 121,
      "chip": "ym2612"
    },
    {
      "channel": 2,
      "note": 66,
      "start": 7.0611,
      "duration": 0.0146,
      "velocity": 127,
      "chip": "ym2612"
    },
    {
      "channel": 4,
      "note": 62,
      "start": 7.0633,
      "duration": 0.1838,
      "velocity": 117,
      "chip": "ym2612"
    },
    {
      "channel": 2,
      "note": 66,
      "start": 7.172,
      "duration": 0.0175,
      "velocity": 127,
      "chip": "ym2612"
    },
    {
      "channel": 0,
      "note": 57,
      "start": 7.2855,
      "duration": 0.0928,
      "velocity": 94,
      "chip": "ym2612"
    },
    {
      "channel": 1,
      "note": 57,
      "start": 7.2875,
      "duration": 0.8873,
      "velocity": 121,
      "chip": "ym2612"
    },
    {
      "channel": 2,
      "note": 54,
      "start": 7.2902,
      "duration": 0.0319,
      "velocity": 127,
      "chip": "ym2612"
    },
    {
      "channel": 3,
      "note": 57,
      "start": 7.2961,
      "duration": 0.083,
      "velocity": 112,
      "chip": "ym2612"
    },
    {
      "channel": 4,
      "note": 57,
      "start": 7.2981,
      "duration": 0.8777,
      "velocity": 117,
      "chip": "ym2612"
    },
    {
      "channel": 5,
      "note": 57,
      "start": 7.3662,
      "duration": 0.0702,
      "velocity": 112,
      "chip": "ym2612"
    },
    {
      "channel": 0,
      "note": 69,
      "start": 7.4176,
      "duration": 0.0744,
      "velocity": 94,
      "chip": "ym2612"
    },
    {
      "channel": 2,
      "note": 42,
      "start": 7.4198,
      "duration": 0.0162,
      "velocity": 127,
      "chip": "ym2612"
    },
    {
      "channel": 3,
      "note": 57,
      "start": 7.4215,
      "duration": 0.0715,
      "velocity": 112,
      "chip": "ym2612"
    },
    {
      "channel": 5,
      "note": 57,
      "start": 7.4755,
      "duration": 0.0747,
      "velocity": 112,
      "chip": "ym2612"
    },
    {
      "channel": 0,
      "note": 57,
      "start": 7.5315,
      "duration": 0.0743,
      "velocity": 94,
      "chip": "ym2612"
    },
    {
      "channel": 2,
      "note": 66,
      "start": 7.5337,
      "duration": 0.016,
      "velocity": 127,
      "chip": "ym2612"
    },
    {
      "channel": 3,
      "note": 64,
      "start": 7.5353,
      "duration": 0.0714,
      "velocity": 112,
      "chip": "ym2612"
    },
    {
      "channel": 5,
      "note": 64,
      "start": 7.5893,
      "duration": 0.0746,
      "velocity": 112,
      "chip": "ym2612"
    },
    {
      "channel": 0,
      "note": 69,
      "start": 7.6451,
      "duration": 0.0745,
      "velocity": 94,
      "chip": "ym2612"
    },
    {
      "channel": 2,
      "note": 42,
      "start": 7.6473,
      "duration": 0.0161,
      "velocity": 127,
      "chip": "ym2612"
    },
    {
      "channel": 3,
      "note": 64,
      "start": 7.6489,
      "duration": 0.0715,
      "velocity": 112,
      "chip": "ym2612"
    },
    {
      "channel": 5,
      "note": 64,
      "start": 7.7031,
      "duration": 0.0746,
      "velocity": 112,
      "chip": "ym2612"
    },
    {
      "channel": 0,
      "note": 57,
      "start": 7.759,
      "duration": 0.0743,
      "velocity": 94,
      "chip": "ym2612"
    },
    {
      "channel": 2,
      "note": 54,
      "start": 7.7613,
      "duration": 0.0158,
      "velocity": 127,
      "chip": "ym2612"
    },
    {
      "channel": 3,
      "note": 62,
      "start": 7.763,
      "duration": 0.0712,
      "velocity": 112,
      "chip": "ym2612"
    },
    {
      "channel": 5,
      "note": 62,
      "start": 7.8168,
      "duration": 0.0746,
      "velocity": 112,
      "chip": "ym2612"
    },
    {
      "channel": 0,
      "note": 69,
      "start": 7.8727,
      "duration": 0.0744,
      "velocity": 94,
      "chip": "ym2612"
    },
    {
      "channel": 2,
      "note": 42,
      "start": 7.8748,
      "duration": 0.0162,
      "velocity": 127,
      "chip": "ym2612"
    },
    {
      "channel": 3,
      "note": 62,
      "start": 7.8764,
      "duration": 0.0716,
      "velocity": 112,
      "chip": "ym2612"
    },
    {
      "channel": 5,
      "note": 62,
      "start": 7.9305,
      "duration": 0.0746,
      "velocity": 112,
      "chip": "ym2612"
    },
    {
      "channel": 0,
      "note": 57,
      "start": 7.9866,
      "duration": 0.0742,
      "velocity": 94,
      "chip": "ym2612"
    },
    {
      "channel": 2,
      "note": 66,
      "start": 7.9888,
      "duration": 0.016,
      "velocity": 127,
      "chip": "ym2612"
    },
    {
      "channel": 3,
      "note": 60,
      "start": 7.9904,
      "duration": 0.0713,
      "velocity": 112,
      "chip": "ym2612"
    },
    {
      "channel": 5,
      "note": 60,
      "start": 8.0444,
      "duration": 0.0746,
      "velocity": 112,
      "chip": "ym2612"
    },
    {
      "channel": 0,
      "note": 69,
      "start": 8.1001,
      "duration": 0.0745,
      "velocity": 94,
      "chip": "ym2612"
    },
    {
      "channel": 2,
      "note": 42,
      "start": 8.1024,
      "duration": 0.0161,
      "velocity": 127,
      "chip": "ym2612"
    },
    {
      "channel": 3,
      "note": 60,
      "start": 8.104,
      "duration": 0.0716,
      "velocity": 112,
      "chip": "ym2612"
    },
    {
      "channel": 5,
      "note": 60,
      "start": 8.1581,
      "duration": 0.0746,
      "velocity": 112,
      "chip": "ym2612"
    },
    {
      "channel": 0,
      "note": 55,
      "start": 8.2143,
      "duration": 0.0741,
      "velocity": 94,
      "chip": "ym2612"
    },
    {
      "channel": 1,
      "note": 55,
      "start": 8.2159,
      "duration": 0.8691,
      "velocity": 121,
      "chip": "ym2612"
    },
    {
      "channel": 2,
      "note": 54,
      "start": 8.218,
      "duration": 0.0143,
      "velocity": 127,
      "chip": "ym2612"
    },
    {
      "channel": 3,
      "note": 59,
      "start": 8.2197,
      "duration": 0.0695,
      "velocity": 112,
      "chip": "ym2612"
    },
    {
      "channel": 4,
      "note": 55,
      "start": 8.2213,
      "duration": 0.8646,
      "velocity": 117,
      "chip": "ym2612"
    },
    {
      "channel": 5,
      "note": 59,
      "start": 8.2718,
      "duration": 0.0746,
      "velocity": 112,
      "chip": "ym2612"
    },
    {
      "channel": 0,
      "note": 67,
      "start": 8.3277,
      "duration": 0.0745,
      "velocity": 94,
      "chip": "ym2612"
    },
    {
      "channel": 2,
      "note": 42,
      "start": 8.3298,
      "duration": 0.0162,
      "velocity": 127,
      "chip": "ym2612"
    },
    {
      "channel": 3,
      "note": 59,
      "start": 8.3315,
      "duration": 0.0716,
      "velocity": 112,
      "chip": "ym2612"
    },
    {
      "channel": 5,
      "note": 59,
      "start": 8.3857,
      "duration": 0.0745,
      "velocity": 112,
      "chip": "ym2612"
    },
    {
      "channel": 0,
      "note": 55,
      "start": 8.442,
      "duration": 0.0739,
      "velocity": 94,
      "chip": "ym2612"
    },
    {
      "channel": 2,
      "note": 66,
      "start": 8.4441,
      "duration": 0.0157,
      "velocity": 127,
      "chip": "ym2612"
    },
    {
      "channel": 3,
      "note": 55,
      "start": 8.4458,
      "duration": 0.071,
      "velocity": 112,
      "chip": "ym2612"
    },
    {
      "channel": 5,
      "note": 55,
      "start": 8.4994,
      "duration": 0.0746,
      "velocity": 112,
      "chip": "ym2612"
    },
    {
      "channel": 0,
      "note": 67,
      "start": 8.5552,
      "duration": 0.0744,
      "velocity": 94,
      "chip": "ym2612"
    },
    {
      "channel": 2,
      "note": 42,
      "start": 8.5573,
      "duration": 0.0162,
      "velocity": 127,
      "chip": "ym2612"
    },
    {
      "channel": 3,
      "note": 55,
      "start": 8.559,
      "duration": 0.0716,
      "velocity": 112,
      "chip": "ym2612"
    },
    {
      "channel": 5,
      "note": 55,
      "start": 8.6131,
      "duration": 0.0746,
      "velocity": 112,
      "chip": "ym2612"
    },
    {
      "channel": 0,
      "note": 55,
      "start": 8.6692,
      "duration": 0.0743,
      "velocity": 94,
      "chip": "ym2612"
    },
    {
      "channel": 2,
      "note": 54,
      "start": 8.6715,
      "duration": 0.0158,
      "velocity": 127,
      "chip": "ym2612"
    },
    {
      "channel": 3,
      "note": 59,
      "start": 8.6732,
      "duration": 0.0711,
      "velocity": 112,
      "chip": "ym2612"
    },
    {
      "channel": 5,
      "note": 59,
      "start": 8.7268,
      "duration": 0.0746,
      "velocity": 112,
      "chip": "ym2612"
    },
    {
      "channel": 0,
      "note": 67,
      "start": 8.7828,
      "duration": 0.0744,
      "velocity": 94,
      "chip": "ym2612"
    },
    {
      "channel": 2,
      "note": 42,
      "start": 8.7849,
      "duration": 0.0161,
      "velocity": 127,
      "chip": "ym2612"
    },
    {
      "channel": 3,
      "note": 59,
      "start": 8.7866,
      "duration": 0.0715,
      "velocity": 112,
      "chip": "ym2612"
    },
    {
      "channel": 5,
      "note": 59,
      "start": 8.8407,
      "duration": 0.0746,
      "velocity": 112,
      "chip": "ym2612"
    },
    {
      "channel": 0,
      "note": 55,
      "start": 8.8966,
      "duration": 0.0743,
      "velocity": 94,
      "chip": "ym2612"
    },
    {
      "channel": 2,
      "note": 66,
      "start": 8.8988,
      "duration": 0.016,
      "velocity": 127,
      "chip": "ym2612"
    },
    {
      "channel": 3,
      "note": 62,
      "start": 8.9005,
      "duration": 0.0714,
      "velocity": 112,
      "chip": "ym2612"
    },
    {
      "channel": 5,
      "note": 62,
      "start": 8.9545,
      "duration": 0.0746,
      "velocity": 112,
      "chip": "ym2612"
    },
    {
      "channel": 0,
      "note": 67,
      "start": 9.0102,
      "duration": 0.0745,
      "velocity": 94,
      "chip": "ym2612"
    },
    {
      "channel": 2,
      "note": 42,
      "start": 9.0124,
      "duration": 0.0161,
      "velocity": 127,
      "chip": "ym2612"
    },
    {
      "channel": 3,
      "note": 62,
      "start": 9.0141,
      "duration": 0.0716,
      "velocity": 112,
      "chip": "ym2612"
    },
    {
      "channel": 5,
      "note": 62,
      "start": 9.0683,
      "duration": 0.0745,
      "velocity": 112,
      "chip": "ym2612"
    },
    {
      "channel": 0,
      "note": 53,
      "start": 9.1243,
      "duration": 0.0742,
      "velocity": 94,
      "chip": "ym2612"
    },
    {
      "channel": 1,
      "note": 53,
      "start": 9.1259,
      "duration": 0.8691,
      "velocity": 121,
      "chip": "ym2612"
    },
    {
      "channel": 2,
      "note": 54,
      "start": 9.1281,
      "duration": 0.0142,
      "velocity": 127,
      "chip": "ym2612"
    },
    {
      "channel": 3,
      "note": 57,
      "start": 9.1299,
      "duration": 0.0694,
      "velocity": 112,
      "chip": "ym2612"
    },
    {
      "channel": 4,
      "note": 53,
      "start": 9.1315,
      "duration": 0.8644,
      "velocity": 117,
      "chip": "ym2612"
    },
    {
      "channel": 5,
      "note": 57,
      "start": 9.1821,
      "duration": 0.0745,
      "velocity": 112,
      "chip": "ym2612"
    },
    {
      "channel": 0,
      "note": 65,
      "start": 9.2378,
      "duration": 0.0744,
      "velocity": 94,
      "chip": "ym2612"
    },
    {
      "channel": 2,
      "note": 42,
      "start": 9.2399,
      "duration": 0.0162,
      "velocity": 127,
      "chip": "ym2612"
    },
    {
      "channel": 3,
      "note": 57,
      "start": 9.2415,
      "duration": 0.0716,
      "velocity": 112,
      "chip": "ym2612"
    },
    {
      "channel": 5,
      "note": 57,
      "start": 9.2957,
      "duration": 0.0746,
      "velocity": 112,
      "chip": "ym2612"
    },
    {
      "channel": 0,
      "note": 53,
      "start": 9.3517,
      "duration": 0.0743,
      "velocity": 94,
      "chip": "ym2612"
    },
    {
      "channel": 2,
      "note": 66,
      "start": 9.3539,
      "duration": 0.016,
      "velocity": 127,
      "chip": "ym2612"
    },
    {
      "channel": 3,
      "note": 64,
      "start": 9.3556,
      "duration": 0.0713,
      "velocity": 112,
      "chip": "ym2612"
    },
    {
      "channel": 5,
      "note": 64,
      "start": 9.4095,
      "duration": 0.0745,
      "velocity": 112,
      "chip": "ym2612"
    },
    {
      "channel": 0,
      "note": 65,
      "start": 9.4653,
      "duration": 0.0745,
      "velocity": 94,
      "chip": "ym2612"
    },
    {
      "channel": 2,
      "note": 42,
      "start": 9.4674,
      "duration": 0.0162,
      "velocity": 127,
      "chip": "ym2612"
    },
    {
      "channel": 3,
      "note": 64,
      "start": 9.4692,
      "duration": 0.0714,
      "velocity": 112,
      "chip": "ym2612"
    },
    {
      "channel": 5,
      "note": 64,
      "start": 9.5232,
      "duration": 0.0747,
      "velocity": 112,
      "chip": "ym2612"
    },
    {
      "channel": 0,
      "note": 53,
      "start": 9.5792,
      "duration": 0.0743,
      "velocity": 94,
      "chip": "ym2612"
    },
    {
      "channel": 2,
      "note": 54,
      "start": 9.5815,
      "duration": 0.0159,
      "velocity": 127,
      "chip": "ym2612"
    },
    {
      "channel": 3,
      "note": 62,
      "start": 9.5832,
      "duration": 0.0712,
      "velocity": 112,
      "chip": "ym2612"
    },
    {
      "channel": 5,
      "note": 62,
      "start": 9.637,
      "duration": 0.0746,
      "velocity": 112,
      "chip": "ym2612"
    },
    {
      "channel": 0,
      "note": 65,
      "start": 9.6928,
      "duration": 0.0744,
      "velocity": 94,
      "chip": "ym2612"
    },
    {
      "channel": 2,
      "note": 42,
      "start": 9.6949,
      "duration": 0.0162,
      "velocity": 127,
      "chip": "ym2612"
    },
    {
      "channel": 3,
      "note": 62,
      "start": 9.6966,
      "duration": 0.0716,
      "velocity": 112,
      "chip": "ym2612"
    },
    {
      "channel": 5,
      "note": 62,
      "start": 9.7507,
      "duration": 0.0746,
      "velocity": 112,
      "chip": "ym2612"
    },
    {
      "channel": 0,
      "note": 53,
      "start": 9.8068,
      "duration": 0.0743,
      "velocity": 94,
      "chip": "ym2612"
    },
    {
      "channel": 2,
      "note": 66,
      "start": 9.8089,
      "duration": 0.016,
      "velocity": 127,
      "chip": "ym2612"
    },
    {
      "channel": 3,
      "note": 60,
      "start": 9.8106,
      "duration": 0.0713,
      "velocity": 112,
      "chip": "ym2612"
    },
    {
      "channel": 5,
      "note": 60,
      "start": 9.8645,
      "duration": 0.0746,
      "velocity": 112,
      "chip": "ym2612"
    },
    {
      "channel": 0,
      "note": 65,
      "start": 9.9204,
      "duration": 0.0744,
      "velocity": 94,
      "chip": "ym2612"
    },
    {
      "channel": 2,
      "note": 42,
      "start": 9.9225,
      "duration": 0.0161,
      "velocity": 127,
      "chip": "ym2612"
    },
    {
      "channel": 3,
      "note": 60,
      "start": 9.9242,
      "duration": 0.0716,
      "velocity": 112,
      "chip": "ym2612"
    },
    {
      "channel": 5,
      "note": 60,
      "start": 9.9783,
      "duration": 0.0747,
      "velocity": 112,
      "chip": "ym2612"
    },
    {
      "channel": 0,
      "note": 52,
      "start": 10.0344,
      "duration": 0.0742,
      "velocity": 94,
      "chip": "ym2612"
    },
    {
      "channel": 1,
      "note": 52,
      "start": 10.0361,
      "duration": 0.869,
      "velocity": 121,
      "chip": "ym2612"
    },
    {
      "channel": 2,
      "note": 54,
      "start": 10.0383,
      "duration": 0.0142,
      "velocity": 127,
      "chip": "ym2612"
    },
    {
      "channel": 3,
      "note": 59,
      "start": 10.0399,
      "duration": 0.0695,
      "velocity": 112,
      "chip": "ym2612"
    },
    {
      "channel": 4,
      "note": 52,
      "start": 10.0415,
      "duration": 0.8646,
      "velocity": 117,
      "chip": "ym2612"
    },
    {
      "channel": 5,
      "note": 59,
      "start": 10.092,
      "duration": 0.0747,
      "velocity": 112,
      "chip": "ym2612"
    },
    {
      "channel": 0,
      "note": 64,
      "start": 10.1478,
      "duration": 0.0745,
      "velocity": 94,
      "chip": "ym2612"
    },
    {
      "channel": 2,
      "note": 42,
      "start": 10.15,
      "duration": 0.0161,
      "velocity": 127,
      "chip": "ym2612"
    },
    {
      "channel": 3,
      "note": 59,
      "start": 10.1517,
      "duration": 0.0715,
      "velocity": 112,
      "chip": "ym2612"
    },
    {
      "channel": 5,
      "note": 59,
      "start": 10.2058,
      "duration": 0.0746,
      "velocity": 112,
      "chip": "ym2612"
    },
    {
      "channel": 0,
      "note": 52,
      "start": 10.2618,
      "duration": 0.0743,
      "velocity": 94,
      "chip": "ym2612"
    },
    {
      "channel": 2,
      "note": 66,
      "start": 10.2639,
      "duration": 0.016,
      "velocity": 127,
      "chip": "ym2612"
    },
    {
      "channel": 3,
      "note": 55,
      "start": 10.2656,
      "duration": 0.0714,
      "velocity": 112,
      "chip": "ym2612"
    },
    {
      "channel": 5,
      "note": 55,
      "start": 10.3196,
      "duration": 0.0745,
      "velocity": 112,
      "chip": "ym2612"
    },
    {
      "channel": 0,
      "note": 64,
      "start": 10.3754,
      "duration": 0.0746,
      "velocity": 94,
      "chip": "ym2612"
    },
    {
      "channel": 2,
      "note": 42,
      "start": 10.3776,
      "duration": 0.0162,
      "velocity": 127,
      "chip": "ym2612"
    },
    {
      "channel": 3,
      "note": 55,
      "start": 10.3792,
      "duration": 0.0716,
      "velocity": 112,
      "chip": "ym2612"
    },
    {
      "channel": 5,
      "note": 55,
      "start": 10.4333,
      "duration": 0.0746,
      "velocity": 112,
      "chip": "ym2612"
    },
    {
      "channel": 0,
      "note": 52,
      "start": 10.4893,
      "duration": 0.0743,
      "velocity": 94,
      "chip": "ym2612"
    },
    {
      "channel": 2,
      "note": 54,
      "start": 10.4916,
      "duration": 0.0159,
      "velocity": 127,
      "chip": "ym2612"
    },
    {
      "channel": 3,
      "note": 59,
      "start": 10.4933,
      "duration": 0.0712,
      "velocity": 112,
      "chip": "ym2612"
    },
    {
      "channel": 5,
      "note": 59,
      "start": 10.5471,
      "duration": 0.0746,
      "velocity": 112,
      "chip": "ym2612"
    },
    {
      "channel": 0,
      "note": 64,
      "start": 10.6029,
      "duration": 0.0744,
      "velocity": 94,
      "chip": "ym2612"
    },
    {
      "channel": 2,
      "note": 42,
      "start": 10.6051,
      "duration": 0.0161,
      "velocity": 127,
      "chip": "ym2612"
    },
    {
      "channel": 3,
      "note": 59,
      "start": 10.6068,
      "duration": 0.0715,
      "velocity": 112,
      "chip": "ym2612"
    },
    {
      "channel": 5,
      "note": 59,
      "start": 10.6608,
      "duration": 0.0747,
      "velocity": 112,
      "chip": "ym2612"
    },
    {
      "channel": 0,
      "note": 52,
      "start": 10.7169,
      "duration": 0.0743,
      "velocity": 94,
      "chip": "ym2612"
    },
    {
      "channel": 2,
      "note": 66,
      "start": 10.719,
      "duration": 0.016,
      "velocity": 127,
      "chip": "ym2612"
    },
    {
      "channel": 3,
      "note": 62,
      "start": 10.7207,
      "duration": 0.0713,
      "velocity": 112,
      "chip": "ym2612"
    },
    {
      "channel": 5,
      "note": 62,
      "start": 10.7746,
      "duration": 0.0746,
      "velocity": 112,
      "chip": "ym2612"
    },
    {
      "channel": 0,
      "note": 64,
      "start": 10.8304,
      "duration": 0.0745,
      "velocity": 94,
      "chip": "ym2612"
    },
    {
      "channel": 2,
      "note": 42,
      "start": 10.8326,
      "duration": 0.0161,
      "velocity": 127,
      "chip": "ym2612"
    },
    {
      "channel": 3,
      "note": 62,
      "start": 10.8342,
      "duration": 0.0716,
      "velocity": 112,
      "chip": "ym2612"
    },
    {
      "channel": 5,
      "note": 62,
      "start": 10.8883,
      "duration": 0.0746,
      "velocity": 112,
      "chip": "ym2612"
    },
    {
      "channel": 0,
      "note": 57,
      "start": 10.9447,
      "duration": 0.0739,
      "velocity": 94,
      "chip": "ym2612"
    },
    {
      "channel": 1,
      "note": 57,
      "start": 10.9467,
      "duration": 0.8684,
      "velocity": 121,
      "chip": "ym2612"
    },
    {
      "channel": 2,
      "note": 54,
      "start": 10.9493,
      "duration": 0.0132,
      "velocity": 127,
      "chip": "ym2612"
    },
    {
      "channel": 3,
      "note": 57,
      "start": 10.9547,
      "duration": 0.0648,
      "velocity": 112,
      "chip": "ym2612"
    },
    {
      "channel": 4,
      "note": 57,
      "start": 10.9566,
      "duration": 0.8595,
      "velocity": 117,
      "chip": "ym2612"
    },
    {
      "channel": 5,
      "note": 57,
      "start": 11.0059,
      "duration": 0.0708,
      "velocity": 112,
      "chip": "ym2612"
    },
    {
      "channel": 0,
      "note": 69,
      "start": 11.058,
      "duration": 0.0744,
      "velocity": 94,
      "chip": "ym2612"
    },
    {
      "channel": 2,
      "note": 42,
      "start": 11.0601,
      "duration": 0.0161,
      "velocity": 127,
      "chip": "ym2612"
    },
    {
      "channel": 3,
      "note": 57,
      "start": 11.0618,
      "duration": 0.0715,
      "velocity": 112,
      "chip": "ym2612"
    },
    {
      "channel": 5,
      "note": 57,
      "start": 11.1159,
      "duration": 0.0746,
      "velocity": 112,
      "chip": "ym2612"
    },
    {
      "channel": 0,
      "note": 57,
      "start": 11.1719,
      "duration": 0.0743,
      "velocity": 94,
      "chip": "ym2612"
    },
    {
      "channel": 2,
      "note": 66,
      "start": 11.174,
      "duration": 0.016,
      "velocity": 127,
      "chip": "ym2612"
    },
    {
      "channel": 3,
      "note": 64,
      "start": 11.1756,
      "duration": 0.0714,
      "velocity": 112,
      "chip": "ym2612"
    },
    {
      "channel": 5,
      "note": 64,
      "start": 11.2297,
      "duration": 0.0746,
      "velocity": 112,
      "chip": "ym2612"
    },
    {
      "channel": 0,
      "note": 69,
      "start": 11.2855,
      "duration": 0.0744,
      "velocity": 94,
      "chip": "ym2612"
    },
    {
      "channel": 2,
      "note": 42,
      "start": 11.2877,
      "duration": 0.0162,
      "velocity": 127,
      "chip": "ym2612"
    },
    {
      "channel": 3,
      "note": 64,
      "start": 11.2893,
      "duration": 0.0715,
      "velocity": 112,
      "chip": "ym2612"
    },
    {
      "channel": 5,
      "note": 64,
      "start": 11.3434,
      "duration": 0.0746,
      "velocity": 112,
      "chip": "ym2612"
    },
    {
      "channel": 0,
      "note": 57,
      "start": 11.3994,
      "duration": 0.0743,
      "velocity": 94,
      "chip": "ym2612"
    },
    {
      "channel": 2,
      "note": 54,
      "start": 11.4017,
      "duration": 0.0159,
      "velocity": 127,
      "chip": "ym2612"
    },
    {
      "channel": 3,
      "note": 62,
      "start": 11.4034,
      "duration": 0.0711,
      "velocity": 112,
      "chip": "ym2612"
    },
    {
      "channel": 5,
      "note": 62,
      "start": 11.4571,
      "duration": 0.0746,
      "velocity": 112,
      "chip": "ym2612"
    },
    {
      "channel": 0,
      "note": 69,
      "start": 11.513,
      "duration": 0.0745,
      "velocity": 94,
      "chip": "ym2612"
    },
    {
      "channel": 2,
      "note": 42,
      "start": 11.5151,
      "duration": 0.0162,
      "velocity": 127,
      "chip": "ym2612"
    },
    {
      "channel": 3,
      "note": 62,
      "start": 11.5168,
      "duration": 0.0715,
      "velocity": 112,
      "chip": "ym2612"
    },
    {
      "channel": 5,
      "note": 62,
      "start": 11.5709,
      "duration": 0.0746,
      "velocity": 112,
      "chip": "ym2612"
    },
    {
      "channel": 0,
      "note": 57,
      "start": 11.6269,
      "duration": 0.0743,
      "velocity": 94,
      "chip": "ym2612"
    },
    {
      "channel": 2,
      "note": 66,
      "start": 11.6291,
      "duration": 0.016,
      "velocity": 127,
      "chip": "ym2612"
    },
    {
      "channel": 3,
      "note": 60,
      "start": 11.6307,
      "duration": 0.0714,
      "velocity": 112,
      "chip": "ym2612"
    },
    {
      "channel": 5,
      "note": 60,
      "start": 11.6847,
      "duration": 0.0746,
      "velocity": 112,
      "chip": "ym2612"
    },
    {
      "channel": 0,
      "note": 69,
      "start": 11.7405,
      "duration": 0.0744,
      "velocity": 94,
      "chip": "ym2612"
    },
    {
      "channel": 2,
      "note": 42,
      "start": 11.7426,
      "duration": 0.0162,
      "velocity": 127,
      "chip": "ym2612"
    },
    {
      "channel": 3,
      "note": 60,
      "start": 11.7443,
      "duration": 0.0716,
      "velocity": 112,
      "chip": "ym2612"
    },
    {
      "channel": 5,
      "note": 60,
      "start": 11.7984,
      "duration": 0.0746,
      "velocity": 112,
      "chip": "ym2612"
    },
    {
      "channel": 0,
      "note": 55,
      "start": 11.8546,
      "duration": 0.0741,
      "velocity": 94,
      "chip": "ym2612"
    },
    {
      "channel": 1,
      "note": 55,
      "start": 11.8562,
      "duration": 0.8691,
      "velocity": 121,
      "chip": "ym2612"
    },
    {
      "channel": 2,
      "note": 54,
      "start": 11.8583,
      "duration": 0.0142,
      "velocity": 127,
      "chip": "ym2612"
    },
    {
      "channel": 3,
      "note": 59,
      "start": 11.86,
      "duration": 0.0696,
      "velocity": 112,
      "chip": "ym2612"
    },
    {
      "channel": 4,
      "note": 55,
      "start": 11.8616,
      "duration": 0.8646,
      "velocity": 117,
      "chip": "ym2612"
    },
    {
      "channel": 5,
      "note": 59,
      "start": 11.9122,
      "duration": 0.0746,
      "velocity": 112,
      "chip": "ym2612"
    },
    {
      "channel": 0,
      "note": 67,
      "start": 11.9681,
      "duration": 0.0744,
      "velocity": 94,
      "chip": "ym2612"
    },
    {
      "channel": 2,
      "note": 42,
      "start": 11.9702,
      "duration": 0.0161,
      "velocity": 127,
      "chip": "ym2612"
    },
    {
      "channel": 3,
      "note": 59,
      "start": 11.9719,
      "duration": 0.0715,
      "velocity": 112,
      "chip": "ym2612"
    },
    {
      "channel": 5,
      "note": 59,
      "start": 12.026,
      "duration": 0.0746,
      "velocity": 112,
      "chip": "ym2612"
    },
    {
      "channel": 0,
      "note": 55,
      "start": 12.082,
      "duration": 0.0743,
      "velocity": 94,
      "chip": "ym2612"
    },
    {
      "channel": 2,
      "note": 66,
      "start": 12.0841,
      "duration": 0.016,
      "velocity": 127,
      "chip": "ym2612"
    },
    {
      "channel": 3,
      "note": 55,
      "start": 12.0858,
      "duration": 0.0713,
      "velocity": 112,
      "chip": "ym2612"
    },
    {
      "channel": 5,
      "note": 55,
      "start": 12.1397,
      "duration": 0.0746,
      "velocity": 112,
      "chip": "ym2612"
    },
    {
      "channel": 0,
      "note": 67,
      "start": 12.1956,
      "duration": 0.0745,
      "velocity": 94,
      "chip": "ym2612"
    },
    {
      "channel": 2,
      "note": 42,
      "start": 12.1977,
      "duration": 0.0161,
      "velocity": 127,
      "chip": "ym2612"
    },
    {
      "channel": 3,
      "note": 55,
      "start": 12.1994,
      "duration": 0.0715,
      "velocity": 112,
      "chip": "ym2612"
    },
    {
      "channel": 5,
      "note": 55,
      "start": 12.2535,
      "duration": 0.0746,
      "velocity": 112,
      "chip": "ym2612"
    },
    {
      "channel": 0,
      "note": 55,
      "start": 12.3095,
      "duration": 0.0743,
      "velocity": 94,
      "chip": "ym2612"
    },
    {
      "channel": 2,
      "note": 54,
      "start": 12.3118,
      "duration": 0.0159,
      "velocity": 127,
      "chip": "ym2612"
    },
    {
      "channel": 3,
      "note": 59,
      "start": 12.3134,
      "duration": 0.0712,
      "velocity": 112,
      "chip": "ym2612"
    },
    {
      "channel": 5,
      "note": 59,
      "start": 12.3673,
      "duration": 0.0746,
      "velocity": 112,
      "chip": "ym2612"
    },
    {
      "channel": 0,
      "note": 67,
      "start": 12.4231,
      "duration": 0.0744,
      "velocity": 94,
      "chip": "ym2612"
    },
    {
      "channel": 2,
      "note": 42,
      "start": 12.4252,
      "duration": 0.0162,
      "velocity": 127,
      "chip": "ym2612"
    },
    {
      "channel": 3,
      "note": 59,
      "start": 12.4268,
      "duration": 0.0716,
      "velocity": 112,
      "chip": "ym2612"
    },
    {
      "channel": 5,
      "note": 59,
      "start": 12.481,
      "duration": 0.0746,
      "velocity": 112,
      "chip": "ym2612"
    },
    {
      "channel": 0,
      "note": 55,
      "start": 12.5371,
      "duration": 0.0742,
      "velocity": 94,
      "chip": "ym2612"
    },
    {
      "channel": 2,
      "note": 66,
      "start": 12.5392,
      "duration": 0.016,
      "velocity": 127,
      "chip": "ym2612"
    },
    {
      "channel": 3,
      "note": 62,
      "start": 12.5409,
      "duration": 0.0713,
      "velocity": 112,
      "chip": "ym2612"
    },
    {
      "channel": 5,
      "note": 62,
      "start": 12.5948,
      "duration": 0.0746,
      "velocity": 112,
      "chip": "ym2612"
    },
    {
      "channel": 0,
      "note": 67,
      "start": 12.6507,
      "duration": 0.0744,
      "velocity": 94,
      "chip": "ym2612"
    },
    {
      "channel": 2,
      "note": 42,
      "start": 12.6528,
      "duration": 0.0162,
      "velocity": 127,
      "chip": "ym2612"
    },
    {
      "channel": 3,
      "note": 62,
      "start": 12.6545,
      "duration": 0.0716,
      "velocity": 112,
      "chip": "ym2612"
    },
    {
      "channel": 5,
      "note": 62,
      "start": 12.7085,
      "duration": 0.0746,
      "velocity": 112,
      "chip": "ym2612"
    },
    {
      "channel": 0,
      "note": 53,
      "start": 12.7647,
      "duration": 0.0741,
      "velocity": 94,
      "chip": "ym2612"
    },
    {
      "channel": 1,
      "note": 53,
      "start": 12.7663,
      "duration": 0.869,
      "velocity": 121,
      "chip": "ym2612"
    },
    {
      "channel": 2,
      "note": 54,
      "start": 12.7685,
      "duration": 0.0142,
      "velocity": 127,
      "chip": "ym2612"
    },
    {
      "channel": 3,
      "note": 57,
      "start": 12.7703,
      "duration": 0.0694,
      "velocity": 112,
      "chip": "ym2612"
    },
    {
      "channel": 4,
      "note": 53,
      "start": 12.772,
      "duration": 0.8644,
      "velocity": 117,
      "chip": "ym2612"
    },
    {
      "channel": 5,
      "note": 57,
      "start": 12.8225,
      "duration": 0.0744,
      "velocity": 112,
      "chip": "ym2612"
    },
    {
      "channel": 0,
      "note": 65,
      "start": 12.8781,
      "duration": 0.0745,
      "velocity": 94,
      "chip": "ym2612"
    },
    {
      "channel": 2,
      "note": 42,
      "start": 12.8803,
      "duration": 0.0161,
      "velocity": 127,
      "chip": "ym2612"
    },
    {
      "channel": 3,
      "note": 57,
      "start": 12.882,
      "duration": 0.0715,
      "velocity": 112,
      "chip": "ym2612"
    },
    {
      "channel": 5,
      "note": 57,
      "start": 12.9361,
      "duration": 0.0746,
      "velocity": 112,
      "chip": "ym2612"
    },
    {
      "channel": 0,
      "note": 53,
      "start": 12.9921,
      "duration": 0.0743,
      "velocity": 94,
      "chip": "ym2612"
    },
    {
      "channel": 2,
      "note": 66,
      "start": 12.9942,
      "duration": 0.016,
      "velocity": 127,
      "chip": "ym2612"
    },
    {
      "channel": 3,
      "note": 64,
      "start": 12.9959,
      "duration": 0.0715,
      "velocity": 112,
      "chip": "ym2612"
    },
    {
      "channel": 5,
      "note": 64,
      "start": 13.0498,
      "duration": 0.0746,
      "velocity": 112,
      "chip": "ym2612"
    },
    {
      "channel": 0,
      "note": 65,
      "start": 13.1057,
      "duration": 0.0744,
      "velocity": 94,
      "chip": "ym2612"
    },
    {
      "channel": 2,
      "note": 42,
      "start": 13.1078,
      "duration": 0.0162,
      "velocity": 127,
      "chip": "ym2612"
    },
    {
      "channel": 3,
      "note": 64,
      "start": 13.1094,
      "duration": 0.0716,
      "velocity": 112,
      "chip": "ym2612"
    },
    {
      "channel": 5,
      "note": 64,
      "start": 13.1636,
      "duration": 0.0746,
      "velocity": 112,
      "chip": "ym2612"
    },
    {
      "channel": 0,
      "note": 53,
      "start": 13.2196,
      "duration": 0.0742,
      "velocity": 94,
      "chip": "ym2612"
    },
    {
      "channel": 2,
      "note": 54,
      "start": 13.222,
      "duration": 0.0158,
      "velocity": 127,
      "chip": "ym2612"
    },
    {
      "channel": 3,
      "note": 62,
      "start": 13.2236,
      "duration": 0.0711,
      "velocity": 112,
      "chip": "ym2612"
    },
    {
      "channel": 5,
      "note": 62,
      "start": 13.2774,
      "duration": 0.0746,
      "velocity": 112,
      "chip": "ym2612"
    },
    {
      "channel": 0,
      "note": 65,
      "start": 13.3332,
      "duration": 0.0745,
      "velocity": 94,
      "chip": "ym2612"
    },
    {
      "channel": 2,
      "note": 42,
      "start": 13.3353,
      "duration": 0.0162,
      "velocity": 127,
      "chip": "ym2612"
    },
    {
      "channel": 3,
      "note": 62,
      "start": 13.337,
      "duration": 0.0715,
      "velocity": 112,
      "chip": "ym2612"
    },
    {
      "channel": 5,
      "note": 62,
      "start": 13.391,
      "duration": 0.0746,
      "velocity": 112,
      "chip": "ym2612"
    },
    {
      "channel": 0,
      "note": 53,
      "start": 13.4471,
      "duration": 0.0743,
      "velocity": 94,
      "chip": "ym2612"
    },
    {
      "channel": 2,
      "note": 66,
      "start": 13.4493,
      "duration": 0.016,
      "velocity": 127,
      "chip": "ym2612"
    },
    {
      "channel": 3,
      "note": 60,
      "start": 13.4509,
      "duration": 0.0714,
      "velocity": 112,
      "chip": "ym2612"
    },
    {
      "channel": 5,
      "note": 60,
      "start": 13.5049,
      "duration": 0.0746,
      "velocity": 112,
      "chip": "ym2612"
    },
    {
      "channel": 0,
      "note": 65,
      "start": 13.5607,
      "duration": 0.0744,
      "velocity": 94,
      "chip": "ym2612"
    },
    {
      "channel": 2,
      "note": 42,
      "start": 13.5629,
      "duration": 0.0162,
      "velocity": 127,
      "chip": "ym2612"
    },
    {
      "channel": 3,
      "note": 60,
      "start": 13.5645,
      "duration": 0.0716,
      "velocity": 112,
      "chip": "ym2612"
    },
    {
      "channel": 5,
      "note": 60,
      "start": 13.6186,
      "duration": 0.0746,
      "velocity": 112,
      "chip": "ym2612"
    },
    {
      "channel": 0,
      "note": 52,
      "start": 13.6748,
      "duration": 0.0742,
      "velocity": 94,
      "chip": "ym2612"
    },
    {
      "channel": 1,
      "note": 52,
      "start": 13.6763,
      "duration": 0.8691,
      "velocity": 121,
      "chip": "ym2612"
    },
    {
      "channel": 2,
      "note": 54,
      "start": 13.6786,
      "duration": 0.0142,
      "velocity": 127,
      "chip": "ym2612"
    },
    {
      "channel": 3,
      "note": 59,
      "start": 13.6802,
      "duration": 0.0695,
      "velocity": 112,
      "chip": "ym2612"
    },
    {
      "channel": 4,
      "note": 52,
      "start": 13.6818,
      "duration": 0.8646,
      "velocity": 117,
      "chip": "ym2612"
    },
    {
      "channel": 5,
      "note": 59,
      "start": 13.7324,
      "duration": 0.0746,
      "velocity": 112,
      "chip": "ym2612"
    },
    {
      "channel": 0,
      "note": 64,
      "start": 13.7883,
      "duration": 0.0744,
      "velocity": 94,
      "chip": "ym2612"
    },
    {
      "channel": 2,
      "note": 42,
      "start": 13.7903,
      "duration": 0.0162,
      "velocity": 127,
      "chip": "ym2612"
    },
    {
      "channel": 3,
      "note": 59,
      "start": 13.792,
      "duration": 0.0716,
      "velocity": 112,
      "chip": "ym2612"
    },
    {
      "channel": 5,
      "note": 59,
      "start": 13.8461,
      "duration": 0.0746,
      "velocity": 112,
      "chip": "ym2612"
    },
    {
      "channel": 0,
      "note": 52,
      "start": 13.9022,
      "duration": 0.0743,
      "velocity": 94,
      "chip": "ym2612"
    },
    {
      "channel": 2,
      "note": 66,
      "start": 13.9043,
      "duration": 0.016,
      "velocity": 127,
      "chip": "ym2612"
    },
    {
      "channel": 3,
      "note": 55,
      "start": 13.906,
      "duration": 0.0713,
      "velocity": 112,
      "chip": "ym2612"
    },
    {
      "channel": 5,
      "note": 55,
      "start": 13.9599,
      "duration": 0.0746,
      "velocity": 112,
      "chip": "ym2612"
    },
    {
      "channel": 0,
      "note": 64,
      "start": 14.0157,
      "duration": 0.0745,
      "velocity": 94,
      "chip": "ym2612"
    },
    {
      "channel": 2,
      "note": 42,
      "start": 14.0179,
      "duration": 0.0161,
      "velocity": 127,
      "chip": "ym2612"
    },
    {
      "channel": 3,
      "note": 55,
      "start": 14.0196,
      "duration": 0.0714,
      "velocity": 112,
      "chip": "ym2612"
    },
    {
      "channel": 5,
      "note": 55,
      "start": 14.0736,
      "duration": 0.0746,
      "velocity": 112,
      "chip": "ym2612"
    },
    {
      "channel": 0,
      "note": 52,
      "start": 14.1297,
      "duration": 0.0743,
      "velocity": 94,
      "chip": "ym2612"
    },
    {
      "channel": 2,
      "note": 54,
      "start": 14.132,
      "duration": 0.0158,
      "velocity": 127,
      "chip": "ym2612"
    },
    {
      "channel": 3,
      "note": 59,
      "start": 14.1337,
      "duration": 0.0711,
      "velocity": 112,
      "chip": "ym2612"
    },
    {
      "channel": 5,
      "note": 59,
      "start": 14.1875,
      "duration": 0.0746,
      "velocity": 112,
      "chip": "ym2612"
    },
    {
      "channel": 0,
      "note": 64,
      "start": 14.2433,
      "duration": 0.0744,
      "velocity": 94,
      "chip": "ym2612"
    },
    {
      "channel": 2,
      "note": 42,
      "start": 14.2454,
      "duration": 0.0162,
      "velocity": 127,
      "chip": "ym2612"
    },
    {
      "channel": 3,
      "note": 59,
      "start": 14.247,
      "duration": 0.0716,
      "velocity": 112,
      "chip": "ym2612"
    },
    {
      "channel": 5,
      "note": 59,
      "start": 14.3012,
      "duration": 0.0746,
      "velocity": 112,
      "chip": "ym2612"
    },
    {
      "channel": 0,
      "note": 52,
      "start": 14.3572,
      "duration": 0.0743,
      "velocity": 94,
      "chip": "ym2612"
    },
    {
      "channel": 2,
      "note": 66,
      "start": 14.3594,
      "duration": 0.016,
      "velocity": 127,
      "chip": "ym2612"
    },
    {
      "channel": 3,
      "note": 62,
      "start": 14.361,
      "duration": 0.0713,
      "velocity": 112,
      "chip": "ym2612"
    },
    {
      "channel": 5,
      "note": 62,
      "start": 14.415,
      "duration": 0.0746,
      "velocity": 112,
      "chip": "ym2612"
    },
    {
      "channel": 0,
      "note": 64,
      "start": 14.4708,
      "duration": 0.0744,
      "velocity": 94,
      "chip": "ym2612"
    },
    {
      "channel": 2,
      "note": 42,
      "start": 14.4729,
      "duration": 0.0162,
      "velocity": 127,
      "chip": "ym2612"
    },
    {
      "channel": 3,
      "note": 62,
      "start": 14.4746,
      "duration": 0.0716,
      "velocity": 112,
      "chip": "ym2612"
    },
    {
      "channel": 5,
      "note": 62,
      "start": 14.5287,
      "duration": 0.0746,
      "velocity": 112,
      "chip": "ym2612"
    },
    {
      "channel": 0,
      "note": 50,
      "start": 14.5852,
      "duration": 0.0738,
      "velocity": 94,
      "chip": "ym2612"
    },
    {
      "channel": 1,
      "note": 50,
      "start": 14.5872,
      "duration": 1.7789,
      "velocity": 121,
      "chip": "ym2612"
    },
    {
      "channel": 2,
      "note": 54,
      "start": 14.5898,
      "duration": 0.0131,
      "velocity": 127,
      "chip": "ym2612"
    },
    {
      "channel": 3,
      "note": 74,
      "start": 14.5951,
      "duration": 0.0647,
      "velocity": 97,
      "chip": "ym2612"
    },
    {
      "channel": 4,
      "note": 50,
      "start": 14.597,
      "duration": 1.77,
      "velocity": 117,
      "chip": "ym2612"
    },
    {
      "channel": 5,
      "note": 74,
      "start": 14.6462,
      "duration": 0.0709,
      "velocity": 97,
      "chip": "ym2612"
    },
    {
      "channel": 0,
      "note": 62,
      "start": 14.6983,
      "duration": 0.0745,
      "velocity": 94,
      "chip": "ym2612"
    },
    {
      "channel": 2,
      "note": 42,
      "start": 14.7005,
      "duration": 0.0162,
      "velocity": 127,
      "chip": "ym2612"
    },
    {
      "channel": 3,
      "note": 77,
      "start": 14.7022,
      "duration": 0.0714,
      "velocity": 97,
      "chip": "ym2612"
    },
    {
      "channel": 5,
      "note": 77,
      "start": 14.7562,
      "duration": 0.0746,
      "velocity": 97,
      "chip": "ym2612"
    },
    {
      "channel": 0,
      "note": 50,
      "start": 14.8122,
      "duration": 0.0743,
      "velocity": 94,
      "chip": "ym2612"
    },
    {
      "channel": 2,
      "note": 66,
      "start": 14.8144,
      "duration": 0.016,
      "velocity": 127,
      "chip": "ym2612"
    },
    {
      "channel": 3,
      "note": 81,
      "start": 14.816,
      "duration": 0.0714,
      "velocity": 97,
      "chip": "ym2612"
    },
    {
      "channel": 5,
      "note": 81,
      "start": 14.87,
      "duration": 0.0746,
      "velocity": 97,
      "chip": "ym2612"
    },
    {
      "channel": 0,
      "note": 62,
      "start": 14.9258,
      "duration": 0.0744,
      "velocity": 94,
      "chip": "ym2612"
    },
    {
      "channel": 2,
      "note": 42,
      "start": 14.9279,
      "duration": 0.0162,
      "velocity": 127,
      "chip": "ym2612"
    },
    {
      "channel": 3,
      "note": 74,
      "start": 14.9298,
      "duration": 0.0714,
      "velocity": 97,
      "chip": "ym2612"
    },
    {
      "channel": 5,
      "note": 74,
      "start": 14.9839,
      "duration": 0.0744,
      "velocity": 97,
      "chip": "ym2612"
    },
    {
      "channel": 0,
      "note": 50,
      "start": 15.0398,
      "duration": 0.0742,
      "velocity": 94,
      "chip": "ym2612"
    },
    {
      "channel": 2,
      "note": 54,
      "start": 15.0421,
      "duration": 0.0158,
      "velocity": 127,
      "chip": "ym2612"
    },
    {
      "channel": 3,
      "note": 77,
      "start": 15.0437,
      "duration": 0.0712,
      "velocity": 97,
      "chip": "ym2612"
    },
    {
      "channel": 5,
      "note": 77,
      "start": 15.0975,
      "duration": 0.0746,
      "velocity": 97,
      "chip": "ym2612"
    },
    {
      "channel": 0,
      "note": 62,
      "start": 15.1534,
      "duration": 0.0744,
      "velocity": 94,
      "chip": "ym2612"
    },
    {
      "channel": 2,
      "note": 42,
      "start": 15.1556,
      "duration": 0.0161,
      "velocity": 127,
      "chip": "ym2612"
    },
    {
      "channel": 3,
      "note": 81,
      "start": 15.1572,
      "duration": 0.0714,
      "velocity": 97,
      "chip": "ym2612"
    },
    {
      "channel": 5,
      "note": 81,
      "start": 15.2113,
      "duration": 0.0746,
      "velocity": 97,
      "chip": "ym2612"
    },
    {
      "channel": 0,
      "note": 50,
      "start": 15.2673,
      "duration": 0.0743,
      "velocity": 94,
      "chip": "ym2612"
    },
    {
      "channel": 2,
      "note": 66,
      "start": 15.2695,
      "duration": 0.016,
      "velocity": 127,
      "chip": "ym2612"
    },
    {
      "channel": 3,
      "note": 74,
      "start": 15.2713,
      "duration": 0.0711,
      "velocity": 97,
      "chip": "ym2612"
    },
    {
      "channel": 5,
      "note": 74,
      "start": 15.3252,
      "duration": 0.0744,
      "velocity": 97,
      "chip": "ym2612"
    },
    {
      "channel": 0,
      "note": 62,
      "start": 15.3809,
      "duration": 0.0744,
      "velocity": 94,
      "chip": "ym2612"
    },
    {
      "channel": 2,
      "note": 42,
      "start": 15.383,
      "duration": 0.0161,
      "velocity": 127,
      "chip": "ym2612"
    },
    {
      "channel": 3,
      "note": 77,
      "start": 15.3847,
      "duration": 0.0715,
      "velocity": 97,
      "chip": "ym2612"
    },
    {
      "channel": 5,
      "note": 77,
      "start": 15.4388,
      "duration": 0.0746,
      "velocity": 97,
      "chip": "ym2612"
    },
    {
      "channel": 0,
      "note": 50,
      "start": 15.4948,
      "duration": 0.0743,
      "velocity": 94,
      "chip": "ym2612"
    },
    {
      "channel": 2,
      "note": 54,
      "start": 15.4971,
      "duration": 0.0159,
      "velocity": 127,
      "chip": "ym2612"
    },
    {
      "channel": 3,
      "note": 81,
      "start": 15.4987,
      "duration": 0.0712,
      "velocity": 97,
      "chip": "ym2612"
    },
    {
      "channel": 5,
      "note": 81,
      "start": 15.5526,
      "duration": 0.0745,
      "velocity": 97,
      "chip": "ym2612"
    },
    {
      "channel": 0,
      "note": 62,
      "start": 15.6084,
      "duration": 0.0744,
      "velocity": 94,
      "chip": "ym2612"
    },
    {
      "channel": 2,
      "note": 42,
      "start": 15.6105,
      "duration": 0.0162,
      "velocity": 127,
      "chip": "ym2612"
    },
    {
      "channel": 3,
      "note": 74,
      "start": 15.6124,
      "duration": 0.0714,
      "velocity": 97,
      "chip": "ym2612"
    },
    {
      "channel": 5,
      "note": 74,
      "start": 15.6665,
      "duration": 0.0744,
      "velocity": 97,
      "chip": "ym2612"
    },
    {
      "channel": 0,
      "note": 50,
      "start": 15.7223,
      "duration": 0.0742,
      "velocity": 94,
      "chip": "ym2612"
    },
    {
      "channel": 2,
      "note": 66,
      "start": 15.7244,
      "duration": 0.016,
      "velocity": 127,
      "chip": "ym2612"
    },
    {
      "channel": 3,
      "note": 77,
      "start": 15.7262,
      "duration": 0.0713,
      "velocity": 97,
      "chip": "ym2612"
    },
    {
      "channel": 5,
      "note": 77,
      "start": 15.7801,
      "duration": 0.0746,
      "velocity": 97,
      "chip": "ym2612"
    },
    {
      "channel": 0,
      "note": 62,
      "start": 15.836,
      "duration": 0.0744,
      "velocity": 94,
      "chip": "ym2612"
    },
    {
      "channel": 2,
      "note": 42,
      "start": 15.8381,
      "duration": 0.0161,
      "velocity": 127,
      "chip": "ym2612"
    },
    {
      "channel": 3,
      "note": 81,
      "start": 15.8398,
      "duration": 0.0714,
      "velocity": 97,
      "chip": "ym2612"
    },
    {
      "channel": 5,
      "note": 81,
      "start": 15.8938,
      "duration": 0.0746,
      "velocity": 97,
      "chip": "ym2612"
    },
    {
      "channel": 0,
      "note": 50,
      "start": 15.9498,
      "duration": 0.0743,
      "velocity": 94,
      "chip": "ym2612"
    },
    {
      "channel": 2,
      "note": 54,
      "start": 15.9522,
      "duration": 0.0158,
      "velocity": 127,
      "chip": "ym2612"
    },
    {
      "channel": 3,
      "note": 74,
      "start": 15.954,
      "duration": 0.071,
      "velocity": 97,
      "chip": "ym2612"
    },
    {
      "channel": 5,
      "note": 74,
      "start": 16.0078,
      "duration": 0.0744,
      "velocity": 97,
      "chip": "ym2612"
    },
    {
      "channel": 0,
      "note": 62,
      "start": 16.0634,
      "duration": 0.0744,
      "velocity": 94,
      "chip": "ym2612"
    },
    {
      "channel": 2,
      "note": 42,
      "start": 16.0655,
      "duration": 0.0162,
      "velocity": 127,
      "chip": "ym2612"
    },
    {
      "channel": 3,
      "note": 77,
      "start": 16.0673,
      "duration": 0.0715,
      "velocity": 97,
      "chip": "ym2612"
    },
    {
      "channel": 5,
      "note": 77,
      "start": 16.1215,
      "duration": 0.0745,
      "velocity": 97,
      "chip": "ym2612"
    },
    {
      "channel": 0,
      "note": 50,
      "start": 16.1774,
      "duration": 0.0743,
      "velocity": 94,
      "chip": "ym2612"
    },
    {
      "channel": 2,
      "note": 66,
      "start": 16.1795,
      "duration": 0.016,
      "velocity": 127,
      "chip": "ym2612"
    },
    {
      "channel": 3,
      "note": 81,
      "start": 16.1812,
      "duration": 0.0714,
      "velocity": 97,
      "chip": "ym2612"
    },
    {
      "channel": 5,
      "note": 81,
      "start": 16.2351,
      "duration": 0.0746,
      "velocity": 97,
      "chip": "ym2612"
    },
    {
      "channel": 0,
      "note": 62,
      "start": 16.2909,
      "duration": 0.0749,
      "velocity": 94,
      "chip": "ym2612"
    },
    {
      "channel": 2,
      "note": 42,
      "start": 16.2931,
      "duration": 0.0161,
      "velocity": 127,
      "chip": "ym2612"
    },
    {
      "channel": 3,
      "note": 86,
      "start": 16.2949,
      "duration": 0.072,
      "velocity": 97,
      "chip": "ym2612"
    },
    {
      "channel": 5,
      "note": 86,
      "start": 16.349,
      "duration": 0.0745,
      "velocity": 97,
      "chip": "ym2612"
    },
    {
      "channel": 0,
      "note": 52,
      "start": 16.405,
      "duration": 0.0741,
      "velocity": 94,
      "chip": "ym2612"
    },
    {
      "channel": 1,
      "note": 52,
      "start": 16.4066,
      "duration": 1.7792,
      "velocity": 121,
      "chip": "ym2612"
    },
    {
      "channel": 2,
      "note": 54,
      "start": 16.4088,
      "duration": 0.0142,
      "velocity": 127,
      "chip": "ym2612"
    },
    {
      "channel": 3,
      "note": 74,
      "start": 16.4106,
      "duration": 0.0694,
      "velocity": 97,
      "chip": "ym2612"
    },
    {
      "channel": 4,
      "note": 52,
      "start": 16.4122,
      "duration": 1.7746,
      "velocity": 117,
      "chip": "ym2612"
    },
    {
      "channel": 5,
      "note": 74,
      "start": 16.4628,
      "duration": 0.0744,
      "velocity": 97,
      "chip": "ym2612"
    },
    {
      "channel": 0,
      "note": 64,
      "start": 16.5185,
      "duration": 0.0745,
      "velocity": 94,
      "chip": "ym2612"
    },
    {
      "channel": 2,
      "note": 42,
      "start": 16.5207,
      "duration": 0.0161,
      "velocity": 127,
      "chip": "ym2612"
    },
    {
      "channel": 3,
      "note": 80,
      "start": 16.5223,
      "duration": 0.0715,
      "velocity": 97,
      "chip": "ym2612"
    },
    {
      "channel": 5,
      "note": 80,
      "start": 16.5764,
      "duration": 0.0746,
      "velocity": 97,
      "chip": "ym2612"
    },
    {
      "channel": 0,
      "note": 52,
      "start": 16.6324,
      "duration": 0.0743,
      "velocity": 94,
      "chip": "ym2612"
    },
    {
      "channel": 2,
      "note": 66,
      "start": 16.6346,
      "duration": 0.016,
      "velocity": 127,
      "chip": "ym2612"
    },
    {
      "channel": 3,
      "note": 83,
      "start": 16.6363,
      "duration": 0.0713,
      "velocity": 97,
      "chip": "ym2612"
    },
    {
      "channel": 5,
      "note": 83,
      "start": 16.6902,
      "duration": 0.0745,
      "velocity": 97,
      "chip": "ym2612"
    },
    {
      "channel": 0,
      "note": 64,
      "start": 16.746,
      "duration": 0.0745,
      "velocity": 94,
      "chip": "ym2612"
    },
    {
      "channel": 2,
      "note": 42,
      "start": 16.7482,
      "duration": 0.0162,
      "velocity": 127,
      "chip": "ym2612"
    },
    {
      "channel": 3,
      "note": 74,
      "start": 16.75,
      "duration": 0.0713,
      "velocity": 97,
      "chip": "ym2612"
    },
    {
      "channel": 5,
      "note": 74,
      "start": 16.8041,
      "duration": 0.0744,
      "velocity": 97,
      "chip": "ym2612"
    },
    {
      "channel": 0,
      "note": 52,
      "start": 16.8599,
      "duration": 0.0743,
      "velocity": 94,
      "chip": "ym2612"
    },
    {
      "channel": 2,
      "note": 54,
      "start": 16.8622,
      "duration": 0.0159,
      "velocity": 127,
      "chip": "ym2612"
    },
    {
      "channel": 3,
      "note": 80,
      "start": 16.8639,
      "duration": 0.0712,
      "velocity": 97,
      "chip": "ym2612"
    },
    {
      "channel": 5,
      "note": 80,
      "start": 16.9177,
      "duration": 0.0746,
      "velocity": 97,
      "chip": "ym2612"
    },
    {
      "channel": 0,
      "note": 64,
      "start": 16.9736,
      "duration": 0.0744,
      "velocity": 94,
      "chip": "ym2612"
    },
    {
      "channel": 2,
      "note": 42,
      "start": 16.9756,
      "duration": 0.0162,
      "velocity": 127,
      "chip": "ym2612"
    },
    {
      "channel": 3,
      "note": 83,
      "start": 16.9774,
      "duration": 0.0715,
      "velocity": 97,
      "chip": "ym2612"
    },
    {
      "channel": 5,
      "note": 83,
      "start": 17.0314,
      "duration": 0.0746,
      "velocity": 97,
      "chip": "ym2612"
    },
    {
      "channel": 0,
      "note": 52,
      "start": 17.0875,
      "duration": 0.0742,
      "velocity": 94,
      "chip": "ym2612"
    },
    {
      "channel": 2,
      "note": 66,
      "start": 17.0896,
      "duration": 0.016,
      "velocity": 127,
      "chip": "ym2612"
    },
    {
      "channel": 3,
      "note": 74,
      "start": 17.0914,
      "duration": 0.0712,
      "velocity": 97,
      "chip": "ym2612"
    },
    {
      "channel": 5,
      "note": 74,
      "start": 17.1454,
      "duration": 0.0745,
      "velocity": 97,
      "chip": "ym2612"
    },
    {
      "channel": 0,
      "note": 64,
      "start": 17.201,
      "duration": 0.0745,
      "velocity": 94,
      "chip": "ym2612"
    },
    {
      "channel": 2,
      "note": 42,
      "start": 17.2033,
      "duration": 0.0161,
      "velocity": 127,
      "chip": "ym2612"
    },
    {
      "channel": 3,
      "note": 80,
      "start": 17.2049,
      "duration": 0.0714,
      "velocity": 97,
      "chip": "ym2612"
    },
    {
      "channel": 5,
      "note": 80,
      "start": 17.259,
      "duration": 0.0746,
      "velocity": 97,
      "chip": "ym2612"
    },
    {
      "channel": 0,
      "note": 52,
      "start": 17.315,
      "duration": 0.0743,
      "velocity": 94,
      "chip": "ym2612"
    },
    {
      "channel": 2,
      "note": 54,
      "start": 17.3173,
      "duration": 0.0158,
      "velocity": 127,
      "chip": "ym2612"
    },
    {
      "channel": 3,
      "note": 83,
      "start": 17.319,
      "duration": 0.0711,
      "velocity": 97,
      "chip": "ym2612"
    },
    {
      "channel": 5,
      "note": 83,
      "start": 17.3727,
      "duration": 0.0746,
      "velocity": 97,
      "chip": "ym2612"
    },
    {
      "channel": 0,
      "note": 64,
      "start": 17.4286,
      "duration": 0.0744,
      "velocity": 94,
      "chip": "ym2612"
    },
    {
      "channel": 2,
      "note": 42,
      "start": 17.4307,
      "duration": 0.0162,
      "velocity": 127,
      "chip": "ym2612"
    },
    {
      "channel": 3,
      "note": 74,
      "start": 17.4325,
      "duration": 0.0714,
      "velocity": 97,
      "chip": "ym2612"
    },
    {
      "channel": 5,
      "note": 74,
      "start": 17.4867,
      "duration": 0.0744,
      "velocity": 97,
      "chip": "ym2612"
    },
    {
      "channel": 0,
      "note": 52,
      "start": 17.5425,
      "duration": 0.0743,
      "velocity": 94,
      "chip": "ym2612"
    },
    {
      "channel": 2,
      "note": 66,
      "start": 17.5446,
      "duration": 0.016,
      "velocity": 127,
      "chip": "ym2612"
    },
    {
      "channel": 3,
      "note": 80,
      "start": 17.5463,
      "duration": 0.0713,
      "velocity": 97,
      "chip": "ym2612"
    },
    {
      "channel": 5,
      "note": 80,
      "start": 17.6003,
      "duration": 0.0746,
      "velocity": 97,
      "chip": "ym2612"
    },
    {
      "channel": 0,
      "note": 64,
      "start": 17.6561,
      "duration": 0.0744,
      "velocity": 94,
      "chip": "ym2612"
    },
    {
      "channel": 2,
      "note": 42,
      "start": 17.6582,
      "duration": 0.0162,
      "velocity": 127,
      "chip": "ym2612"
    },
    {
      "channel": 3,
      "note": 83,
      "start": 17.6599,
      "duration": 0.0715,
      "velocity": 97,
      "chip": "ym2612"
    },
    {
      "channel": 5,
      "note": 83,
      "start": 17.714,
      "duration": 0.0746,
      "velocity": 97,
      "chip": "ym2612"
    },
    {
      "channel": 0,
      "note": 52,
      "start": 17.77,
      "duration": 0.0742,
      "velocity": 94,
      "chip": "ym2612"
    },
    {
      "channel": 2,
      "note": 66,
      "start": 17.7725,
      "duration": 0.0156,
      "velocity": 127,
      "chip": "ym2612"
    },
    {
      "channel": 3,
      "note": 74,
      "start": 17.7744,
      "duration": 0.0708,
      "velocity": 97,
      "chip": "ym2612"
    },
    {
      "channel": 5,
      "note": 74,
      "start": 17.8279,
      "duration": 0.0745,
      "velocity": 97,
      "chip": "ym2612"
    },
    {
      "channel": 0,
      "note": 64,
      "start": 17.8836,
      "duration": 0.0745,
      "velocity": 94,
      "chip": "ym2612"
    },
    {
      "channel": 2,
      "note": 42,
      "start": 17.8858,
      "duration": 0.0161,
      "velocity": 127,
      "chip": "ym2612"
    },
    {
      "channel": 3,
      "note": 80,
      "start": 17.8875,
      "duration": 0.0714,
      "velocity": 97,
      "chip": "ym2612"
    },
    {
      "channel": 5,
      "note": 80,
      "start": 17.9415,
      "duration": 0.0746,
      "velocity": 97,
      "chip": "ym2612"
    },
    {
      "channel": 0,
      "note": 52,
      "start": 17.9975,
      "duration": 0.0743,
      "velocity": 94,
      "chip": "ym2612"
    },
    {
      "channel": 2,
      "note": 66,
      "start": 17.9998,
      "duration": 0.0159,
      "velocity": 127,
      "chip": "ym2612"
    },
    {
      "channel": 3,
      "note": 83,
      "start": 18.0015,
      "duration": 0.0712,
      "velocity": 97,
      "chip": "ym2612"
    },
    {
      "channel": 5,
      "note": 83,
      "start": 18.0553,
      "duration": 0.0746,
      "velocity": 97,
      "chip": "ym2612"
    },
    {
      "channel": 0,
      "note": 64,
      "start": 18.1111,
      "duration": 0.0745,
      "velocity": 94,
      "chip": "ym2612"
    },
    {
      "channel": 2,
      "note": 42,
      "start": 18.1132,
      "duration": 0.0162,
      "velocity": 127,
      "chip": "ym2612"
    },
    {
      "channel": 3,
      "note": 88,
      "start": 18.1151,
      "duration": 0.0715,
      "velocity": 97,
      "chip": "ym2612"
    },
    {
      "channel": 5,
      "note": 88,
      "start": 18.1693,
      "duration": 0.0744,
      "velocity": 97,
      "chip": "ym2612"
    },
    {
      "channel": 0,
      "note": 57,
      "start": 18.2255,
      "duration": 0.0739,
      "velocity": 94,
      "chip": "ym2612"
    },
    {
      "channel": 1,
      "note": 57,
      "start": 18.2274,
      "duration": 0.8685,
      "velocity": 121,
      "chip": "ym2612"
    },
    {
      "channel": 2,
      "note": 54,
      "start": 18.23,
      "duration": 0.0132,
      "velocity": 127,
      "chip": "ym2612"
    },
    {
      "channel": 3,
      "note": 57,
      "start": 18.2353,
      "duration": 0.0649,
      "velocity": 112,
      "chip": "ym2612"
    },
    {
      "channel": 4,
      "note": 57,
      "start": 18.2372,
      "duration": 0.8597,
      "velocity": 117,
      "chip": "ym2612"
    },
    {
      "channel": 5,
      "note": 57,
      "start": 18.2865,
      "duration": 0.0709,
      "velocity": 112,
      "chip": "ym2612"
    },
    {
      "channel": 0,
      "note": 69,
      "start": 18.3386,
      "duration": 0.0745,
      "velocity": 94,
      "chip": "ym2612"
    },
    {
      "channel": 2,
      "note": 42,
      "start": 18.3408,
      "duration": 0.0161,
      "velocity": 127,
      "chip": "ym2612"
    },
    {
      "channel": 3,
      "note": 57,
      "start": 18.3424,
      "duration": 0.0715,
      "velocity": 112,
      "chip": "ym2612"
    },
    {
      "channel": 5,
      "note": 57,
      "start": 18.3966,
      "duration": 0.0746,
      "velocity": 112,
      "chip": "ym2612"
    },
    {
      "channel": 0,
      "note": 57,
      "start": 18.453,
      "duration": 0.0739,
      "velocity": 94,
      "chip": "ym2612"
    },
    {
      "channel": 2,
      "note": 66,
      "start": 18.4551,
      "duration": 0.0156,
      "velocity": 127,
      "chip": "ym2612"
    },
    {
      "channel": 3,
      "note": 64,
      "start": 18.4568,
      "duration": 0.071,
      "velocity": 112,
      "chip": "ym2612"
    },
    {
      "channel": 5,
      "note": 64,
      "start": 18.5103,
      "duration": 0.0746,
      "velocity": 112,
      "chip": "ym2612"
    },
    {
      "channel": 0,
      "note": 69,
      "start": 18.5662,
      "duration": 0.0744,
      "velocity": 94,
      "chip": "ym2612"
    },
    {
      "channel": 2,
      "note": 42,
      "start": 18.5684,
      "duration": 0.0161,
      "velocity": 127,
      "chip": "ym2612"
    },
    {
      "channel": 3,
      "note": 64,
      "start": 18.5701,
      "duration": 0.0714,
      "velocity": 112,
      "chip": "ym2612"
    },
    {
      "channel": 5,
      "note": 64,
      "start": 18.6241,
      "duration": 0.0746,
      "velocity": 112,
      "chip": "ym2612"
    },
    {
      "channel": 0,
      "note": 57,
      "start": 18.6801,
      "duration": 0.0743,
      "velocity": 94,
      "chip": "ym2612"
    },
    {
      "channel": 2,
      "note": 54,
      "start": 18.6824,
      "duration": 0.0159,
      "velocity": 127,
      "chip": "ym2612"
    },
    {
      "channel": 3,
      "note": 62,
      "start": 18.684,
      "duration": 0.0712,
      "velocity": 112,
      "chip": "ym2612"
    },
    {
      "channel": 5,
      "note": 62,
      "start": 18.7379,
      "duration": 0.0746,
      "velocity": 112,
      "chip": "ym2612"
    },
    {
      "channel": 0,
      "note": 69,
      "start": 18.7937,
      "duration": 0.0744,
      "velocity": 94,
      "chip": "ym2612"
    },
    {
      "channel": 2,
      "note": 42,
      "start": 18.7958,
      "duration": 0.0162,
      "velocity": 127,
      "chip": "ym2612"
    },
    {
      "channel": 3,
      "note": 62,
      "start": 18.7975,
      "duration": 0.0716,
      "velocity": 112,
      "chip": "ym2612"
    },
    {
      "channel": 5,
      "note": 62,
      "start": 18.8516,
      "duration": 0.0746,
      "velocity": 112,
      "chip": "ym2612"
    },
    {
      "channel": 0,
      "note": 57,
      "start": 18.9076,
      "duration": 0.0742,
      "velocity": 94,
      "chip": "ym2612"
    },
    {
      "channel": 2,
      "note": 66,
      "start": 18.9098,
      "duration": 0.016,
      "velocity": 127,
      "chip": "ym2612"
    },
    {
      "channel": 3,
      "note": 60,
      "start": 18.9114,
      "duration": 0.0714,
      "velocity": 112,
      "chip": "ym2612"
    },
    {
      "channel": 5,
      "note": 60,
      "start": 18.9654,
      "duration": 0.0746,
      "velocity": 112,
      "chip": "ym2612"
    },
    {
      "channel": 0,
      "note": 69,
      "start": 19.0212,
      "duration": 0.0745,
      "velocity": 94,
      "chip": "ym2612"
    },
    {
      "channel": 2,
      "note": 42,
      "start": 19.0234,
      "duration": 0.0162,
      "velocity": 127,
      "chip": "ym2612"
    },
    {
      "channel": 3,
      "note": 60,
      "start": 19.025,
      "duration": 0.0716,
      "velocity": 112,
      "chip": "ym2612"
    },
    {
      "channel": 5,
      "note": 60,
      "start": 19.0791,
      "duration": 0.0746,
      "velocity": 112,
      "chip": "ym2612"
    },
    {
      "channel": 0,
      "note": 55,
      "start": 19.1353,
      "duration": 0.0742,
      "velocity": 94,
      "chip": "ym2612"
    },
    {
      "channel": 1,
      "note": 55,
      "start": 19.1369,
      "duration": 0.8691,
      "velocity": 121,
      "chip": "ym2612"
    },
    {
      "channel": 2,
      "note": 54,
      "start": 19.1391,
      "duration": 0.0141,
      "velocity": 127,
      "chip": "ym2612"
    },
    {
      "channel": 3,
      "note": 59,
      "start": 19.1408,
      "duration": 0.0695,
      "velocity": 112,
      "chip": "ym2612"
    },
    {
      "channel": 4,
      "note": 55,
      "start": 19.1424,
      "duration": 0.8646,
      "velocity": 117,
      "chip": "ym2612"
    },
    {
      "channel": 5,
      "note": 59,
      "start": 19.1929,
      "duration": 0.0747,
      "velocity": 112,
      "chip": "ym2612"
    },
    {
      "channel": 0,
      "note": 67,
      "start": 19.2487,
      "duration": 0.0744,
      "velocity": 94,
      "chip": "ym2612"
    },
    {
      "channel": 2,
      "note": 42,
      "start": 19.2509,
      "duration": 0.0162,
      "velocity": 127,
      "chip": "ym2612"
    },
    {
      "channel": 3,
      "note": 59,
      "start": 19.2526,
      "duration": 0.0714,
      "velocity": 112,
      "chip": "ym2612"
    },
    {
      "channel": 5,
      "note": 59,
      "start": 19.3066,
      "duration": 0.0746,
      "velocity": 112,
      "chip": "ym2612"
    },
    {
      "channel": 0,
      "note": 55,
      "start": 19.3627,
      "duration": 0.0743,
      "velocity": 94,
      "chip": "ym2612"
    },
    {
      "channel": 2,
      "note": 66,
      "start": 19.3648,
      "duration": 0.016,
      "velocity": 127,
      "chip": "ym2612"
    },
    {
      "channel": 3,
      "note": 55,
      "start": 19.3665,
      "duration": 0.0714,
      "velocity": 112,
      "chip": "ym2612"
    },
    {
      "channel": 5,
      "note": 55,
      "start": 19.4205,
      "duration": 0.0745,
      "velocity": 112,
      "chip": "ym2612"
    },
    {
      "channel": 0,
      "note": 67,
      "start": 19.4763,
      "duration": 0.0744,
      "velocity": 94,
      "chip": "ym2612"
    },
    {
      "channel": 2,
      "note": 42,
      "start": 19.4784,
      "duration": 0.0161,
      "velocity": 127,
      "chip": "ym2612"
    },
    {
      "channel": 3,
      "note": 55,
      "start": 19.48,
      "duration": 0.0715,
      "velocity": 112,
      "chip": "ym2612"
    },
    {
      "channel": 5,
      "note": 55,
      "start": 19.5342,
      "duration": 0.0746,
      "velocity": 112,
      "chip": "ym2612"
    },
    {
      "channel": 0,
      "note": 55,
      "start": 19.5902,
      "duration": 0.0744,
      "velocity": 94,
      "chip": "ym2612"
    },
    {
      "channel": 2,
      "note": 54,
      "start": 19.5925,
      "duration": 0.0159,
      "velocity": 127,
      "chip": "ym2612"
    },
    {
      "channel": 3,
      "note": 59,
      "start": 19.5941,
      "duration": 0.0712,
      "velocity": 112,
      "chip": "ym2612"
    },
    {
      "channel": 5,
      "note": 59,
      "start": 19.6479,
      "duration": 0.0746,
      "velocity": 112,
      "chip": "ym2612"
    },
    {
      "channel": 0,
      "note": 67,
      "start": 19.7038,
      "duration": 0.0745,
      "velocity": 94,
      "chip": "ym2612"
    },
    {
      "channel": 2,
      "note": 42,
      "start": 19.7059,
      "duration": 0.0162,
      "velocity": 127,
      "chip": "ym2612"
    },
    {
      "channel": 3,
      "note": 59,
      "start": 19.7076,
      "duration": 0.0715,
      "velocity": 112,
      "chip": "ym2612"
    },
    {
      "channel": 5,
      "note": 59,
      "start": 19.7617,
      "duration": 0.0747,
      "velocity": 112,
      "chip": "ym2612"
    },
    {
      "channel": 0,
      "note": 55,
      "start": 19.8177,
      "duration": 0.0743,
      "velocity": 94,
      "chip": "ym2612"
    },
    {
      "channel": 2,
      "note": 66,
      "start": 19.8199,
      "duration": 0.016,
      "velocity": 127,
      "chip": "ym2612"
    },
    {
      "channel": 3,
      "note": 62,
      "start": 19.8215,
      "duration": 0.0713,
      "velocity": 112,
      "chip": "ym2612"
    },
    {
      "channel": 5,
      "note": 62,
      "start": 19.8755,
      "duration": 0.0746,
      "velocity": 112,
      "chip": "ym2612"
    },
    {
      "channel": 0,
      "note": 67,
      "start": 19.9313,
      "duration": 0.0745,
      "velocity": 94,
      "chip": "ym2612"
    },
    {
      "channel": 2,
      "note": 42,
      "start": 19.9334,
      "duration": 0.0162,
      "velocity": 127,
      "chip": "ym2612"
    },
    {
      "channel": 3,
      "note": 62,
      "start": 19.9351,
      "duration": 0.0717,
      "velocity": 112,
      "chip": "ym2612"
    },
    {
      "channel": 5,
      "note": 62,
      "start": 19.9892,
      "duration": 0.0746,
      "velocity": 112,
      "chip": "ym2612"
    },
    {
      "channel": 0,
      "note": 53,
      "start": 20.0454,
      "duration": 0.0742,
      "velocity": 94,
      "chip": "ym2612"
    },
    {
      "channel": 1,
      "note": 53,
      "start": 20.047,
      "duration": 0.8691,
      "velocity": 121,
      "chip": "ym2612"
    },
    {
      "channel": 2,
      "note": 54,
      "start": 20.0491,
      "duration": 0.0143,
      "velocity": 127,
      "chip": "ym2612"
    },
    {
      "channel": 3,
      "note": 57,
      "start": 20.051,
      "duration": 0.0695,
      "velocity": 112,
      "chip": "ym2612"
    },
    {
      "channel": 4,
      "note": 53,
      "start": 20.0526,
      "duration": 0.8644,
      "velocity": 117,
      "chip": "ym2612"
    },
    {
      "channel": 5,
      "note": 57,
      "start": 20.1032,
      "duration": 0.0744,
      "velocity": 112,
      "chip": "ym2612"
    },
    {
      "channel": 0,
      "note": 65,
      "start": 20.1588,
      "duration": 0.0744,
      "velocity": 94,
      "chip": "ym2612"
    },
    {
      "channel": 2,
      "note": 42,
      "start": 20.161,
      "duration": 0.0162,
      "velocity": 127,
      "chip": "ym2612"
    },
    {
      "channel": 3,
      "note": 57,
      "start": 20.1626,
      "duration": 0.0716,
      "velocity": 112,
      "chip": "ym2612"
    },
    {
      "channel": 5,
      "note": 57,
      "start": 20.2167,
      "duration": 0.0746,
      "velocity": 112,
      "chip": "ym2612"
    },
    {
      "channel": 0,
      "note": 53,
      "start": 20.2727,
      "duration": 0.0743,
      "velocity": 94,
      "chip": "ym2612"
    },
    {
      "channel": 2,
      "note": 66,
      "start": 20.2749,
      "duration": 0.016,
      "velocity": 127,
      "chip": "ym2612"
    },
    {
      "channel": 3,
      "note": 64,
      "start": 20.2765,
      "duration": 0.0714,
      "velocity": 112,
      "chip": "ym2612"
    },
    {
      "channel": 5,
      "note": 64,
      "start": 20.3305,
      "duration": 0.0746,
      "velocity": 112,
      "chip": "ym2612"
    },
    {
      "channel": 0,
      "note": 65,
      "start": 20.3864,
      "duration": 0.0744,
      "velocity": 94,
      "chip": "ym2612"
    },
    {
      "channel": 2,
      "note": 42,
      "start": 20.3886,
      "duration": 0.0161,
      "velocity": 127,
      "chip": "ym2612"
    },
    {
      "channel": 3,
      "note": 64,
      "start": 20.3902,
      "duration": 0.0714,
      "velocity": 112,
      "chip": "ym2612"
    },
    {
      "channel": 5,
      "note": 64,
      "start": 20.4442,
      "duration": 0.0747,
      "velocity": 112,
      "chip": "ym2612"
    },
    {
      "channel": 0,
      "note": 53,
      "start": 20.5003,
      "duration": 0.0743,
      "velocity": 94,
      "chip": "ym2612"
    },
    {
      "channel": 2,
      "note": 54,
      "start": 20.5026,
      "duration": 0.0158,
      "velocity": 127,
      "chip": "ym2612"
    },
    {
      "channel": 3,
      "note": 62,
      "start": 20.5043,
      "duration": 0.0712,
      "velocity": 112,
      "chip": "ym2612"
    },
    {
      "channel": 5,
      "note": 62,
      "start": 20.558,
      "duration": 0.0746,
      "velocity": 112,
      "chip": "ym2612"
    },
    {
      "channel": 0,
      "note": 65,
      "start": 20.6139,
      "duration": 0.0744,
      "velocity": 94,
      "chip": "ym2612"
    },
    {
      "channel": 2,
      "note": 42,
      "start": 20.616,
      "duration": 0.0162,
      "velocity": 127,
      "chip": "ym2612"
    },
    {
      "channel": 3,
      "note": 62,
      "start": 20.6176,
      "duration": 0.0716,
      "velocity": 112,
      "chip": "ym2612"
    },
    {
      "channel": 5,
      "note": 62,
      "start": 20.6718,
      "duration": 0.0746,
      "velocity": 112,
      "chip": "ym2612"
    },
    {
      "channel": 0,
      "note": 53,
      "start": 20.7278,
      "duration": 0.0743,
      "velocity": 94,
      "chip": "ym2612"
    },
    {
      "channel": 2,
      "note": 66,
      "start": 20.7299,
      "duration": 0.016,
      "velocity": 127,
      "chip": "ym2612"
    },
    {
      "channel": 3,
      "note": 60,
      "start": 20.7316,
      "duration": 0.0714,
      "velocity": 112,
      "chip": "ym2612"
    },
    {
      "channel": 5,
      "note": 60,
      "start": 20.7857,
      "duration": 0.0744,
      "velocity": 112,
      "chip": "ym2612"
    },
    {
      "channel": 0,
      "note": 65,
      "start": 20.8414,
      "duration": 0.0744,
      "velocity": 94,
      "chip": "ym2612"
    },
    {
      "channel": 2,
      "note": 42,
      "start": 20.8435,
      "duration": 0.0162,
      "velocity": 127,
      "chip": "ym2612"
    },
    {
      "channel": 3,
      "note": 60,
      "start": 20.8452,
      "duration": 0.0716,
      "velocity": 112,
      "chip": "ym2612"
    },
    {
      "channel": 5,
      "note": 60,
      "start": 20.8993,
      "duration": 0.0746,
      "velocity": 112,
      "chip": "ym2612"
    },
    {
      "channel": 0,
      "note": 52,
      "start": 20.9555,
      "duration": 0.0741,
      "velocity": 94,
      "chip": "ym2612"
    },
    {
      "channel": 1,
      "note": 52,
      "start": 20.9571,
      "duration": 0.8691,
      "velocity": 121,
      "chip": "ym2612"
    },
    {
      "channel": 2,
      "note": 54,
      "start": 20.9592,
      "duration": 0.0143,
      "velocity": 127,
      "chip": "ym2612"
    },
    {
      "channel": 3,
      "note": 59,
      "start": 20.9609,
      "duration": 0.0696,
      "velocity": 112,
      "chip": "ym2612"
    },
    {
      "channel": 4,
      "note": 52,
      "start": 20.9625,
      "duration": 0.8646,
      "velocity": 117,
      "chip": "ym2612"
    },
    {
      "channel": 5,
      "note": 59,
      "start": 21.0131,
      "duration": 0.0746,
      "velocity": 112,
      "chip": "ym2612"
    },
    {
      "channel": 0,
      "note": 64,
      "start": 21.069,
      "duration": 0.0744,
      "velocity": 94,
      "chip": "ym2612"
    },
    {
      "channel": 2,
      "note": 42,
      "start": 21.0711,
      "duration": 0.0162,
      "velocity": 127,
      "chip": "ym2612"
    },
    {
      "channel": 3,
      "note": 59,
      "start": 21.0727,
      "duration": 0.0715,
      "velocity": 112,
      "chip": "ym2612"
    },
    {
      "channel": 5,
      "note": 59,
      "start": 21.1268,
      "duration": 0.0746,
      "velocity": 112,
      "chip": "ym2612"
    },
    {
      "channel": 0,
      "note": 52,
      "start": 21.1828,
      "duration": 0.0743,
      "velocity": 94,
      "chip": "ym2612"
    },
    {
      "channel": 2,
      "note": 66,
      "start": 21.1849,
      "duration": 0.016,
      "velocity": 127,
      "chip": "ym2612"
    },
    {
      "channel": 3,
      "note": 55,
      "start": 21.1866,
      "duration": 0.0714,
      "velocity": 112,
      "chip": "ym2612"
    },
    {
      "channel": 5,
      "note": 55,
      "start": 21.2406,
      "duration": 0.0746,
      "velocity": 112,
      "chip": "ym2612"
    },
    {
      "channel": 0,
      "note": 64,
      "start": 21.2964,
      "duration": 0.0744,
      "velocity": 94,
      "chip": "ym2612"
    },
    {
      "channel": 2,
      "note": 42,
      "start": 21.2985,
      "duration": 0.0162,
      "velocity": 127,
      "chip": "ym2612"
    },
    {
      "channel": 3,
      "note": 55,
      "start": 21.3002,
      "duration": 0.0715,
      "velocity": 112,
      "chip": "ym2612"
    },
    {
      "channel": 5,
      "note": 55,
      "start": 21.3544,
      "duration": 0.0746,
      "velocity": 112,
      "chip": "ym2612"
    },
    {
      "channel": 0,
      "note": 52,
      "start": 21.4104,
      "duration": 0.0742,
      "velocity": 94,
      "chip": "ym2612"
    },
    {
      "channel": 2,
      "note": 54,
      "start": 21.4127,
      "duration": 0.0158,
      "velocity": 127,
      "chip": "ym2612"
    },
    {
      "channel": 3,
      "note": 59,
      "start": 21.4143,
      "duration": 0.0712,
      "velocity": 112,
      "chip": "ym2612"
    },
    {
      "channel": 5,
      "note": 59,
      "start": 21.4681,
      "duration": 0.0746,
      "velocity": 112,
      "chip": "ym2612"
    },
    {
      "channel": 0,
      "note": 64,
      "start": 21.5239,
      "duration": 0.0745,
      "velocity": 94,
      "chip": "ym2612"
    },
    {
      "channel": 2,
      "note": 42,
      "start": 21.5261,
      "duration": 0.0161,
      "velocity": 127,
      "chip": "ym2612"
    },
    {
      "channel": 3,
      "note": 59,
      "start": 21.5278,
      "duration": 0.0715,
      "velocity": 112,
      "chip": "ym2612"
    },
    {
      "channel": 5,
      "note": 59,
      "start": 21.5818,
      "duration": 0.0747,
      "velocity": 112,
      "chip": "ym2612"
    },
    {
      "channel": 0,
      "note": 52,
      "start": 21.6379,
      "duration": 0.0743,
      "velocity": 94,
      "chip": "ym2612"
    },
    {
      "channel": 2,
      "note": 66,
      "start": 21.64,
      "duration": 0.016,
      "velocity": 127,
      "chip": "ym2612"
    },
    {
      "channel": 3,
      "note": 62,
      "start": 21.6417,
      "duration": 0.0714,
      "velocity": 112,
      "chip": "ym2612"
    },
    {
      "channel": 5,
      "note": 62,
      "start": 21.6956,
      "duration": 0.0746,
      "velocity": 112,
      "chip": "ym2612"
    },
    {
      "channel": 0,
      "note": 64,
      "start": 21.7515,
      "duration": 0.0744,
      "velocity": 94,
      "chip": "ym2612"
    },
    {
      "channel": 2,
      "note": 42,
      "start": 21.7536,
      "duration": 0.0162,
      "velocity": 127,
      "chip": "ym2612"
    },
    {
      "channel": 3,
      "note": 62,
      "start": 21.7553,
      "duration": 0.0716,
      "velocity": 112,
      "chip": "ym2612"
    },
    {
      "channel": 5,
      "note": 62,
      "start": 21.8094,
      "duration": 0.0746,
      "velocity": 112,
      "chip": "ym2612"
    },
    {
      "channel": 0,
      "note": 57,
      "start": 21.8658,
      "duration": 0.0739,
      "velocity": 94,
      "chip": "ym2612"
    },
    {
      "channel": 1,
      "note": 57,
      "start": 21.8677,
      "duration": 0.8685,
      "velocity": 121,
      "chip": "ym2612"
    },
    {
      "channel": 2,
      "note": 54,
      "start": 21.8704,
      "duration": 0.0132,
      "velocity": 127,
      "chip": "ym2612"
    },
    {
      "channel": 3,
      "note": 57,
      "start": 21.8757,
      "duration": 0.0648,
      "velocity": 112,
      "chip": "ym2612"
    },
    {
      "channel": 4,
      "note": 57,
      "start": 21.8776,
      "duration": 0.8595,
      "velocity": 117,
      "chip": "ym2612"
    },
    {
      "channel": 5,
      "note": 57,
      "start": 21.9268,
      "duration": 0.0709,
      "velocity": 112,
      "chip": "ym2612"
    },
    {
      "channel": 0,
      "note": 69,
      "start": 21.979,
      "duration": 0.0744,
      "velocity": 94,
      "chip": "ym2612"
    },
    {
      "channel": 2,
      "note": 42,
      "start": 21.9811,
      "duration": 0.0162,
      "velocity": 127,
      "chip": "ym2612"
    },
    {
      "channel": 3,
      "note": 57,
      "start": 21.9828,
      "duration": 0.0715,
      "velocity": 112,
      "chip": "ym2612"
    },
    {
      "channel": 5,
      "note": 57,
      "start": 22.037,
      "duration": 0.0746,
      "velocity": 112,
      "chip": "ym2612"
    },
    {
      "channel": 0,
      "note": 57,
      "start": 22.0929,
      "duration": 0.0743,
      "velocity": 94,
      "chip": "ym2612"
    },
    {
      "channel": 2,
      "note": 66,
      "start": 22.0951,
      "duration": 0.016,
      "velocity": 127,
      "chip": "ym2612"
    },
    {
      "channel": 3,
      "note": 64,
      "start": 22.0967,
      "duration": 0.0714,
      "velocity": 112,
      "chip": "ym2612"
    },
    {
      "channel": 5,
      "note": 64,
      "start": 22.1507,
      "duration": 0.0746,
      "velocity": 112,
      "chip": "ym2612"
    },
    {
      "channel": 0,
      "note": 69,
      "start": 22.2065,
      "duration": 0.0745,
      "velocity": 94,
      "chip": "ym2612"
    },
    {
      "channel": 2,
      "note": 42,
      "start": 22.2087,
      "duration": 0.0162,
      "velocity": 127,
      "chip": "ym2612"
    },
    {
      "channel": 3,
      "note": 64,
      "start": 22.2103,
      "duration": 0.0715,
      "velocity": 112,
      "chip": "ym2612"
    },
    {
      "channel": 5,
      "note": 64,
      "start": 22.2644,
      "duration": 0.0746,
      "velocity": 112,
      "chip": "ym2612"
    },
    {
      "channel": 0,
      "note": 57,
      "start": 22.3205,
      "duration": 0.0742,
      "velocity": 94,
      "chip": "ym2612"
    },
    {
      "channel": 2,
      "note": 54,
      "start": 22.3228,
      "duration": 0.0158,
      "velocity": 127,
      "chip": "ym2612"
    },
    {
      "channel": 3,
      "note": 62,
      "start": 22.3244,
      "duration": 0.0712,
      "velocity": 112,
      "chip": "ym2612"
    },
    {
      "channel": 5,
      "note": 62,
      "start": 22.3782,
      "duration": 0.0746,
      "velocity": 112,
      "chip": "ym2612"
    },
    {
      "channel": 0,
      "note": 69,
      "start": 22.434,
      "duration": 0.0745,
      "velocity": 94,
      "chip": "ym2612"
    },
    {
      "channel": 2,
      "note": 42,
      "start": 22.4362,
      "duration": 0.0161,
      "velocity": 127,
      "chip": "ym2612"
    },
    {
      "channel": 3,
      "note": 62,
      "start": 22.4379,
      "duration": 0.0715,
      "velocity": 112,
      "chip": "ym2612"
    },
    {
      "channel": 5,
      "note": 62,
      "start": 22.4919,
      "duration": 0.0748,
      "velocity": 112,
      "chip": "ym2612"
    },
    {
      "channel": 0,
      "note": 57,
      "start": 22.548,
      "duration": 0.0743,
      "velocity": 94,
      "chip": "ym2612"
    },
    {
      "channel": 2,
      "note": 66,
      "start": 22.5501,
      "duration": 0.016,
      "velocity": 127,
      "chip": "ym2612"
    },
    {
      "channel": 3,
      "note": 60,
      "start": 22.5517,
      "duration": 0.0714,
      "velocity": 112,
      "chip": "ym2612"
    },
    {
      "channel": 5,
      "note": 60,
      "start": 22.6057,
      "duration": 0.0746,
      "velocity": 112,
      "chip": "ym2612"
    },
    {
      "channel": 0,
      "note": 69,
      "start": 22.6615,
      "duration": 0.0745,
      "velocity": 94,
      "chip": "ym2612"
    },
    {
      "channel": 2,
      "note": 42,
      "start": 22.6637,
      "duration": 0.0161,
      "velocity": 127,
      "chip": "ym2612"
    },
    {
      "channel": 3,
      "note": 60,
      "start": 22.6654,
      "duration": 0.0716,
      "velocity": 112,
      "chip": "ym2612"
    },
    {
      "channel": 5,
      "note": 60,
      "start": 22.7195,
      "duration": 0.0745,
      "velocity": 112,
      "chip": "ym2612"
    },
    {
      "channel": 0,
      "note": 55,
      "start": 22.7756,
      "duration": 0.0741,
      "velocity": 94,
      "chip": "ym2612"
    },
    {
      "channel": 1,
      "note": 55,
      "start": 22.7772,
      "duration": 0.8691,
      "velocity": 121,
      "chip": "ym2612"
    },
    {
      "channel": 2,
      "note": 54,
      "start": 22.7794,
      "duration": 0.0142,
      "velocity": 127,
      "chip": "ym2612"
    },
    {
      "channel": 3,
      "note": 59,
      "start": 22.7811,
      "duration": 0.0696,
      "velocity": 112,
      "chip": "ym2612"
    },
    {
      "channel": 4,
      "note": 55,
      "start": 22.7827,
      "duration": 0.8646,
      "velocity": 117,
      "chip": "ym2612"
    },
    {
      "channel": 5,
      "note": 59,
      "start": 22.8332,
      "duration": 0.0746,
      "velocity": 112,
      "chip": "ym2612"
    },
    {
      "channel": 0,
      "note": 67,
      "start": 22.8891,
      "duration": 0.0745,
      "velocity": 94,
      "chip": "ym2612"
    },
    {
      "channel": 2,
      "note": 42,
      "start": 22.8912,
      "duration": 0.0162,
      "velocity": 127,
      "chip": "ym2612"
    },
    {
      "channel": 3,
      "note": 59,
      "start": 22.8929,
      "duration": 0.0715,
      "velocity": 112,
      "chip": "ym2612"
    },
    {
      "channel": 5,
      "note": 59,
      "start": 22.947,
      "duration": 0.0747,
      "velocity": 112,
      "chip": "ym2612"
    },
    {
      "channel": 0,
      "note": 55,
      "start": 23.0031,
      "duration": 0.0742,
      "velocity": 94,
      "chip": "ym2612"
    },
    {
      "channel": 2,
      "note": 66,
      "start": 23.0052,
      "duration": 0.016,
      "velocity": 127,
      "chip": "ym2612"
    },
    {
      "channel": 3,
      "note": 55,
      "start": 23.0068,
      "duration": 0.0714,
      "velocity": 112,
      "chip": "ym2612"
    },
    {
      "channel": 5,
      "note": 55,
      "start": 23.0608,
      "duration": 0.0746,
      "velocity": 112,
      "chip": "ym2612"
    },
    {
      "channel": 0,
      "note": 67,
      "start": 23.1166,
      "duration": 0.0744,
      "velocity": 94,
      "chip": "ym2612"
    },
    {
      "channel": 2,
      "note": 42,
      "start": 23.1188,
      "duration": 0.0161,
      "velocity": 127,
      "chip": "ym2612"
    },
    {
      "channel": 3,
      "note": 55,
      "start": 23.1205,
      "duration": 0.0714,
      "velocity": 112,
      "chip": "ym2612"
    },
    {
      "channel": 5,
      "note": 55,
      "start": 23.1745,
      "duration": 0.0746,
      "velocity": 112,
      "chip": "ym2612"
    },
    {
      "channel": 0,
      "note": 55,
      "start": 23.2305,
      "duration": 0.0742,
      "velocity": 94,
      "chip": "ym2612"
    },
    {
      "channel": 2,
      "note": 54,
      "start": 23.2328,
      "duration": 0.0159,
      "velocity": 127,
      "chip": "ym2612"
    },
    {
      "channel": 3,
      "note": 59,
      "start": 23.2345,
      "duration": 0.0712,
      "velocity": 112,
      "chip": "ym2612"
    },
    {
      "channel": 5,
      "note": 59,
      "start": 23.2883,
      "duration": 0.0746,
      "velocity": 112,
      "chip": "ym2612"
    },
    {
      "channel": 0,
      "note": 67,
      "start": 23.3441,
      "duration": 0.0745,
      "velocity": 94,
      "chip": "ym2612"
    },
    {
      "channel": 2,
      "note": 42,
      "start": 23.3463,
      "duration": 0.0162,
      "velocity": 127,
      "chip": "ym2612"
    },
    {
      "channel": 3,
      "note": 59,
      "start": 23.3479,
      "duration": 0.0716,
      "velocity": 112,
      "chip": "ym2612"
    },
    {
      "channel": 5,
      "note": 59,
      "start": 23.4022,
      "duration": 0.0745,
      "velocity": 112,
      "chip": "ym2612"
    },
    {
      "channel": 0,
      "note": 55,
      "start": 23.458,
      "duration": 0.0743,
      "velocity": 94,
      "chip": "ym2612"
    },
    {
      "channel": 2,
      "note": 66,
      "start": 23.4602,
      "duration": 0.016,
      "velocity": 127,
      "chip": "ym2612"
    },
    {
      "channel": 3,
      "note": 62,
      "start": 23.4618,
      "duration": 0.0715,
      "velocity": 112,
      "chip": "ym2612"
    },
    {
      "channel": 5,
      "note": 62,
      "start": 23.5158,
      "duration": 0.0746,
      "velocity": 112,
      "chip": "ym2612"
    },
    {
      "channel": 0,
      "note": 67,
      "start": 23.5716,
      "duration": 0.0745,
      "velocity": 94,
      "chip": "ym2612"
    },
    {
      "channel": 2,
      "note": 42,
      "start": 23.5738,
      "duration": 0.0161,
      "velocity": 127,
      "chip": "ym2612"
    },
    {
      "channel": 3,
      "note": 62,
      "start": 23.5755,
      "duration": 0.0716,
      "velocity": 112,
      "chip": "ym2612"
    },
    {
      "channel": 5,
      "note": 62,
      "start": 23.6295,
      "duration": 0.0746,
      "velocity": 112,
      "chip": "ym2612"
    },
    {
      "channel": 0,
      "note": 53,
      "start": 23.6857,
      "duration": 0.0742,
      "velocity": 94,
      "chip": "ym2612"
    },
    {
      "channel": 1,
      "note": 53,
      "start": 23.6873,
      "duration": 0.869,
      "velocity": 121,
      "chip": "ym2612"
    },
    {
      "channel": 2,
      "note": 54,
      "start": 23.6895,
      "duration": 0.0142,
      "velocity": 127,
      "chip": "ym2612"
    },
    {
      "channel": 3,
      "note": 57,
      "start": 23.6914,
      "duration": 0.0693,
      "velocity": 112,
      "chip": "ym2612"
    },
    {
      "channel": 4,
      "note": 53,
      "start": 23.6929,
      "duration": 0.8644,
      "velocity": 117,
      "chip": "ym2612"
    },
    {
      "channel": 5,
      "note": 57,
      "start": 23.7435,
      "duration": 0.0745,
      "velocity": 112,
      "chip": "ym2612"
    },
    {
      "channel": 0,
      "note": 65,
      "start": 23.7992,
      "duration": 0.0744,
      "velocity": 94,
      "chip": "ym2612"
    },
    {
      "channel": 2,
      "note": 42,
      "start": 23.8013,
      "duration": 0.0162,
      "velocity": 127,
      "chip": "ym2612"
    },
    {
      "channel": 3,
      "note": 57,
      "start": 23.803,
      "duration": 0.0715,
      "velocity": 112,
      "chip": "ym2612"
    },
    {
      "channel": 5,
      "note": 57,
      "start": 23.8571,
      "duration": 0.0746,
      "velocity": 112,
      "chip": "ym2612"
    },
    {
      "channel": 0,
      "note": 53,
      "start": 23.9131,
      "duration": 0.0743,
      "velocity": 94,
      "chip": "ym2612"
    },
    {
      "channel": 2,
      "note": 66,
      "start": 23.9152,
      "duration": 0.016,
      "velocity": 127,
      "chip": "ym2612"
    },
    {
      "channel": 3,
      "note": 64,
      "start": 23.9169,
      "duration": 0.0714,
      "velocity": 112,
      "chip": "ym2612"
    },
    {
      "channel": 5,
      "note": 64,
      "start": 23.9709,
      "duration": 0.0746,
      "velocity": 112,
      "chip": "ym2612"
    },
    {
      "channel": 0,
      "note": 65,
      "start": 24.0267,
      "duration": 0.0744,
      "velocity": 94,
      "chip": "ym2612"
    },
    {
      "channel": 2,
      "note": 42,
      "start": 24.0288,
      "duration": 0.0162,
      "velocity": 127,
      "chip": "ym2612"
    },
    {
      "channel": 3,
      "note": 64,
      "start": 24.0305,
      "duration": 0.0715,
      "velocity": 112,
      "chip": "ym2612"
    },
    {
      "channel": 5,
      "note": 64,
      "start": 24.0847,
      "duration": 0.0745,
      "velocity": 112,
      "chip": "ym2612"
    },
    {
      "channel": 0,
      "note": 53,
      "start": 24.1406,
      "duration": 0.0743,
      "velocity": 94,
      "chip": "ym2612"
    },
    {
      "channel": 2,
      "note": 54,
      "start": 24.1429,
      "duration": 0.0159,
      "velocity": 127,
      "chip": "ym2612"
    },
    {
      "channel": 3,
      "note": 62,
      "start": 24.1445,
      "duration": 0.0712,
      "velocity": 112,
      "chip": "ym2612"
    },
    {
      "channel": 5,
      "note": 62,
      "start": 24.1984,
      "duration": 0.0746,
      "velocity": 112,
      "chip": "ym2612"
    },
    {
      "channel": 0,
      "note": 65,
      "start": 24.2542,
      "duration": 0.0744,
      "velocity": 94,
      "chip": "ym2612"
    },
    {
      "channel": 2,
      "note": 42,
      "start": 24.2564,
      "duration": 0.0162,
      "velocity": 127,
      "chip": "ym2612"
    },
    {
      "channel": 3,
      "note": 62,
      "start": 24.258,
      "duration": 0.0715,
      "velocity": 112,
      "chip": "ym2612"
    },
    {
      "channel": 5,
      "note": 62,
      "start": 24.3121,
      "duration": 0.0747,
      "velocity": 112,
      "chip": "ym2612"
    },
    {
      "channel": 0,
      "note": 53,
      "start": 24.3681,
      "duration": 0.0743,
      "velocity": 94,
      "chip": "ym2612"
    },
    {
      "channel": 2,
      "note": 66,
      "start": 24.3704,
      "duration": 0.016,
      "velocity": 127,
      "chip": "ym2612"
    },
    {
      "channel": 3,
      "note": 60,
      "start": 24.372,
      "duration": 0.0712,
      "velocity": 112,
      "chip": "ym2612"
    },
    {
      "channel": 5,
      "note": 60,
      "start": 24.4259,
      "duration": 0.0746,
      "velocity": 112,
      "chip": "ym2612"
    },
    {
      "channel": 0,
      "note": 65,
      "start": 24.4817,
      "duration": 0.0744,
      "velocity": 94,
      "chip": "ym2612"
    },
    {
      "channel": 2,
      "note": 42,
      "start": 24.4839,
      "duration": 0.0162,
      "velocity": 127,
      "chip": "ym2612"
    },
    {
      "channel": 3,
      "note": 60,
      "start": 24.4856,
      "duration": 0.0716,
      "velocity": 112,
      "chip": "ym2612"
    },
    {
      "channel": 5,
      "note": 60,
      "start": 24.5396,
      "duration": 0.0746,
      "velocity": 112,
      "chip": "ym2612"
    },
    {
      "channel": 0,
      "note": 52,
      "start": 24.5958,
      "duration": 0.0741,
      "velocity": 94,
      "chip": "ym2612"
    },
    {
      "channel": 1,
      "note": 52,
      "start": 24.5974,
      "duration": 0.8691,
      "velocity": 121,
      "chip": "ym2612"
    },
    {
      "channel": 2,
      "note": 54,
      "start": 24.5996,
      "duration": 0.0142,
      "velocity": 127,
      "chip": "ym2612"
    },
    {
      "channel": 3,
      "note": 59,
      "start": 24.6012,
      "duration": 0.0696,
      "velocity": 112,
      "chip": "ym2612"
    },
    {
      "channel": 4,
      "note": 52,
      "start": 24.6029,
      "duration": 0.8646,
      "velocity": 117,
      "chip": "ym2612"
    },
    {
      "channel": 5,
      "note": 59,
      "start": 24.6534,
      "duration": 0.0746,
      "velocity": 112,
      "chip": "ym2612"
    },
    {
      "channel": 0,
      "note": 64,
      "start": 24.7092,
      "duration": 0.0745,
      "velocity": 94,
      "chip": "ym2612"
    },
    {
      "channel": 2,
      "note": 42,
      "start": 24.7114,
      "duration": 0.0161,
      "velocity": 127,
      "chip": "ym2612"
    },
    {
      "channel": 3,
      "note": 59,
      "start": 24.7131,
      "duration": 0.0715,
      "velocity": 112,
      "chip": "ym2612"
    },
    {
      "channel": 5,
      "note": 59,
      "start": 24.7672,
      "duration": 0.0746,
      "velocity": 112,
      "chip": "ym2612"
    },
    {
      "channel": 0,
      "note": 52,
      "start": 24.8232,
      "duration": 0.0743,
      "velocity": 94,
      "chip": "ym2612"
    },
    {
      "channel": 2,
      "note": 66,
      "start": 24.8253,
      "duration": 0.016,
      "velocity": 127,
      "chip": "ym2612"
    },
    {
      "channel": 3,
      "note": 55,
      "start": 24.827,
      "duration": 0.0714,
      "velocity": 112,
      "chip": "ym2612"
    },
    {
      "channel": 5,
      "note": 55,
      "start": 24.8809,
      "duration": 0.0746,
      "velocity": 112,
      "chip": "ym2612"
    },
    {
      "channel": 0,
      "note": 64,
      "start": 24.9368,
      "duration": 0.0744,
      "velocity": 94,
      "chip": "ym2612"
    },
    {
      "channel": 2,
      "note": 42,
      "start": 24.9389,
      "duration": 0.0162,
      "velocity": 127,
      "chip": "ym2612"
    },
    {
      "channel": 3,
      "note": 55,
      "start": 24.9406,
      "duration": 0.0715,
      "velocity": 112,
      "chip": "ym2612"
    },
    {
      "channel": 5,
      "note": 55,
      "start": 24.9947,
      "duration": 0.0747,
      "velocity": 112,
      "chip": "ym2612"
    },
    {
      "channel": 0,
      "note": 52,
      "start": 25.0507,
      "duration": 0.0743,
      "velocity": 94,
      "chip": "ym2612"
    },
    {
      "channel": 2,
      "note": 54,
      "start": 25.0531,
      "duration": 0.0159,
      "velocity": 127,
      "chip": "ym2612"
    },
    {
      "channel": 3,
      "note": 59,
      "start": 25.0547,
      "duration": 0.0711,
      "velocity": 112,
      "chip": "ym2612"
    },
    {
      "channel": 5,
      "note": 59,
      "start": 25.1085,
      "duration": 0.0746,
      "velocity": 112,
      "chip": "ym2612"
    },
    {
      "channel": 0,
      "note": 64,
      "start": 25.1643,
      "duration": 0.0744,
      "velocity": 94,
      "chip": "ym2612"
    },
    {
      "channel": 2,
      "note": 42,
      "start": 25.1664,
      "duration": 0.0162,
      "velocity": 127,
      "chip": "ym2612"
    },
    {
      "channel": 3,
      "note": 59,
      "start": 25.1681,
      "duration": 0.0716,
      "velocity": 112,
      "chip": "ym2612"
    },
    {
      "channel": 5,
      "note": 59,
      "start": 25.2222,
      "duration": 0.0746,
      "velocity": 112,
      "chip": "ym2612"
    },
    {
      "channel": 0,
      "note": 52,
      "start": 25.2783,
      "duration": 0.0742,
      "velocity": 94,
      "chip": "ym2612"
    },
    {
      "channel": 2,
      "note": 66,
      "start": 25.2804,
      "duration": 0.016,
      "velocity": 127,
      "chip": "ym2612"
    },
    {
      "channel": 3,
      "note": 62,
      "start": 25.282,
      "duration": 0.0714,
      "velocity": 112,
      "chip": "ym2612"
    },
    {
      "channel": 5,
      "note": 62,
      "start": 25.3361,
      "duration": 0.0745,
      "velocity": 112,
      "chip": "ym2612"
    },
    {
      "channel": 0,
      "note": 64,
      "start": 25.3918,
      "duration": 0.0745,
      "velocity": 94,
      "chip": "ym2612"
    },
    {
      "channel": 2,
      "note": 42,
      "start": 25.394,
      "duration": 0.0162,
      "velocity": 127,
      "chip": "ym2612"
    },
    {
      "channel": 3,
      "note": 62,
      "start": 25.3956,
      "duration": 0.0716,
      "velocity": 112,
      "chip": "ym2612"
    },
    {
      "channel": 5,
      "note": 62,
      "start": 25.4497,
      "duration": 0.0747,
      "velocity": 112,
      "chip": "ym2612"
    },
    {
      "channel": 0,
      "note": 50,
      "start": 25.5062,
      "duration": 0.0739,
      "velocity": 94,
      "chip": "ym2612"
    },
    {
      "channel": 1,
      "note": 50,
      "start": 25.5081,
      "duration": 0.8684,
      "velocity": 121,
      "chip": "ym2612"
    },
    {
      "channel": 2,
      "note": 54,
      "start": 25.5107,
      "duration": 0.0132,
      "velocity": 127,
      "chip": "ym2612"
    },
    {
      "channel": 3,
      "note": 74,
      "start": 25.516,
      "duration": 0.0649,
      "velocity": 97,
      "chip": "ym2612"
    },
    {
      "channel": 4,
      "note": 50,
      "start": 25.518,
      "duration": 0.8595,
      "velocity": 117,
      "chip": "ym2612"
    },
    {
      "channel": 5,
      "note": 74,
      "start": 25.5672,
      "duration": 0.0709,
      "velocity": 97,
      "chip": "ym2612"
    },
    {
      "channel": 0,
      "note": 62,
      "start": 25.6193,
      "duration": 0.0744,
      "velocity": 94,
      "chip": "ym2612"
    },
    {
      "channel": 2,
      "note": 42,
      "start": 25.6215,
      "duration": 0.0161,
      "velocity": 127,
      "chip": "ym2612"
    },
    {
      "channel": 3,
      "note": 77,
      "start": 25.6232,
      "duration": 0.0715,
      "velocity": 97,
      "chip": "ym2612"
    },
    {
      "channel": 5,
      "note": 77,
      "start": 25.6773,
      "duration": 0.0747,
      "velocity": 97,
      "chip": "ym2612"
    },
    {
      "channel": 0,
      "note": 50,
      "start": 25.7333,
      "duration": 0.0743,
      "velocity": 94,
      "chip": "ym2612"
    },
    {
      "channel": 2,
      "note": 66,
      "start": 25.7354,
      "duration": 0.0162,
      "velocity": 127,
      "chip": "ym2612"
    },
    {
      "channel": 3,
      "note": 81,
      "start": 25.7371,
      "duration": 0.0713,
      "velocity": 97,
      "chip": "ym2612"
    },
    {
      "channel": 5,
      "note": 81,
      "start": 25.791,
      "duration": 0.0746,
      "velocity": 97,
      "chip": "ym2612"
    },
    {
      "channel": 0,
      "note": 62,
      "start": 25.8469,
      "duration": 0.0744,
      "velocity": 94,
      "chip": "ym2612"
    },
    {
      "channel": 2,
      "note": 42,
      "start": 25.849,
      "duration": 0.0161,
      "velocity": 127,
      "chip": "ym2612"
    },
    {
      "channel": 3,
      "note": 74,
      "start": 25.8508,
      "duration": 0.0713,
      "velocity": 97,
      "chip": "ym2612"
    },
    {
      "channel": 5,
      "note": 74,
      "start": 25.905,
      "duration": 0.0744,
      "velocity": 97,
      "chip": "ym2612"
    },
    {
      "channel": 0,
      "note": 50,
      "start": 25.9612,
      "duration": 0.0739,
      "velocity": 94,
      "chip": "ym2612"
    },
    {
      "channel": 2,
      "note": 54,
      "start": 25.9635,
      "duration": 0.0155,
      "velocity": 127,
      "chip": "ym2612"
    },
    {
      "channel": 3,
      "note": 77,
      "start": 25.9651,
      "duration": 0.0709,
      "velocity": 97,
      "chip": "ym2612"
    },
    {
      "channel": 5,
      "note": 77,
      "start": 26.0185,
      "duration": 0.0746,
      "velocity": 97,
      "chip": "ym2612"
    },
    {
      "channel": 0,
      "note": 62,
      "start": 26.0744,
      "duration": 0.0745,
      "velocity": 94,
      "chip": "ym2612"
    },
    {
      "channel": 2,
      "note": 42,
      "start": 26.0765,
      "duration": 0.0162,
      "velocity": 127,
      "chip": "ym2612"
    },
    {
      "channel": 3,
      "note": 81,
      "start": 26.0782,
      "duration": 0.0715,
      "velocity": 97,
      "chip": "ym2612"
    },
    {
      "channel": 5,
      "note": 81,
      "start": 26.1323,
      "duration": 0.0746,
      "velocity": 97,
      "chip": "ym2612"
    },
    {
      "channel": 0,
      "note": 50,
      "start": 26.1883,
      "duration": 0.0743,
      "velocity": 94,
      "chip": "ym2612"
    },
    {
      "channel": 2,
      "note": 66,
      "start": 26.1905,
      "duration": 0.016,
      "velocity": 127,
      "chip": "ym2612"
    },
    {
      "channel": 3,
      "note": 86,
      "start": 26.1922,
      "duration": 0.0712,
      "velocity": 97,
      "chip": "ym2612"
    },
    {
      "channel": 5,
      "note": 86,
      "start": 26.2462,
      "duration": 0.0745,
      "velocity": 97,
      "chip": "ym2612"
    },
    {
      "channel": 0,
      "note": 62,
      "start": 26.3019,
      "duration": 0.0744,
      "velocity": 94,
      "chip": "ym2612"
    },
    {
      "channel": 2,
      "note": 42,
      "start": 26.3041,
      "duration": 0.0162,
      "velocity": 127,
      "chip": "ym2612"
    },
    {
      "channel": 3,
      "note": 89,
      "start": 26.3058,
      "duration": 0.0715,
      "velocity": 97,
      "chip": "ym2612"
    },
    {
      "channel": 5,
      "note": 89,
      "start": 26.3599,
      "duration": 0.0746,
      "velocity": 97,
      "chip": "ym2612"
    },
    {
      "channel": 0,
      "note": 52,
      "start": 26.416,
      "duration": 0.0742,
      "velocity": 94,
      "chip": "ym2612"
    },
    {
      "channel": 1,
      "note": 52,
      "start": 26.4176,
      "duration": 0.8691,
      "velocity": 121,
      "chip": "ym2612"
    },
    {
      "channel": 2,
      "note": 54,
      "start": 26.4198,
      "duration": 0.0142,
      "velocity": 127,
      "chip": "ym2612"
    },
    {
      "channel": 3,
      "note": 74,
      "start": 26.4216,
      "duration": 0.0693,
      "velocity": 97,
      "chip": "ym2612"
    },
    {
      "channel": 4,
      "note": 52,
      "start": 26.4232,
      "duration": 0.8644,
      "velocity": 117,
      "chip": "ym2612"
    },
    {
      "channel": 5,
      "note": 74,
      "start": 26.4738,
      "duration": 0.0744,
      "velocity": 97,
      "chip": "ym2612"
    },
    {
      "channel": 0,
      "note": 64,
      "start": 26.5295,
      "duration": 0.0744,
      "velocity": 94,
      "chip": "ym2612"
    },
    {
      "channel": 2,
      "note": 42,
      "start": 26.5316,
      "duration": 0.0162,
      "velocity": 127,
      "chip": "ym2612"
    },
    {
      "channel": 3,
      "note": 80,
      "start": 26.5333,
      "duration": 0.0714,
      "velocity": 97,
      "chip": "ym2612"
    },
    {
      "channel": 5,
      "note": 80,
      "start": 26.5874,
      "duration": 0.0745,
      "velocity": 97,
      "chip": "ym2612"
    },
    {
      "channel": 0,
      "note": 52,
      "start": 26.6433,
      "duration": 0.0743,
      "velocity": 94,
      "chip": "ym2612"
    },
    {
      "channel": 2,
      "note": 66,
      "start": 26.6455,
      "duration": 0.016,
      "velocity": 127,
      "chip": "ym2612"
    },
    {
      "channel": 3,
      "note": 83,
      "start": 26.6471,
      "duration": 0.0714,
      "velocity": 97,
      "chip": "ym2612"
    },
    {
      "channel": 5,
      "note": 83,
      "start": 26.7012,
      "duration": 0.0746,
      "velocity": 97,
      "chip": "ym2612"
    },
    {
      "channel": 0,
      "note": 64,
      "start": 26.7569,
      "duration": 0.0745,
      "velocity": 94,
      "chip": "ym2612"
    },
    {
      "channel": 2,
      "note": 42,
      "start": 26.7591,
      "duration": 0.0161,
      "velocity": 127,
      "chip": "ym2612"
    },
    {
      "channel": 3,
      "note": 74,
      "start": 26.761,
      "duration": 0.0713,
      "velocity": 97,
      "chip": "ym2612"
    },
    {
      "channel": 5,
      "note": 74,
      "start": 26.815,
      "duration": 0.0744,
      "velocity": 97,
      "chip": "ym2612"
    },
    {
      "channel": 0,
      "note": 52,
      "start": 26.8709,
      "duration": 0.0743,
      "velocity": 94,
      "chip": "ym2612"
    },
    {
      "channel": 2,
      "note": 54,
      "start": 26.8732,
      "duration": 0.0158,
      "velocity": 127,
      "chip": "ym2612"
    },
    {
      "channel": 3,
      "note": 80,
      "start": 26.8748,
      "duration": 0.0712,
      "velocity": 97,
      "chip": "ym2612"
    },
    {
      "channel": 5,
      "note": 80,
      "start": 26.9286,
      "duration": 0.0747,
      "velocity": 97,
      "chip": "ym2612"
    },
    {
      "channel": 0,
      "note": 64,
      "start": 26.9845,
      "duration": 0.0744,
      "velocity": 94,
      "chip": "ym2612"
    },
    {
      "channel": 2,
      "note": 42,
      "start": 26.9866,
      "duration": 0.0162,
      "velocity": 127,
      "chip": "ym2612"
    },
    {
      "channel": 3,
      "note": 83,
      "start": 26.9883,
      "duration": 0.0715,
      "velocity": 97,
      "chip": "ym2612"
    },
    {
      "channel": 5,
      "note": 83,
      "start": 27.0424,
      "duration": 0.0746,
      "velocity": 97,
      "chip": "ym2612"
    },
    {
      "channel": 0,
      "note": 52,
      "start": 27.0984,
      "duration": 0.0743,
      "velocity": 94,
      "chip": "ym2612"
    },
    {
      "channel": 2,
      "note": 66,
      "start": 27.1005,
      "duration": 0.016,
      "velocity": 127,
      "chip": "ym2612"
    },
    {
      "channel": 3,
      "note": 88,
      "start": 27.1024,
      "duration": 0.0711,
      "velocity": 97,
      "chip": "ym2612"
    },
    {
      "channel": 5,
      "note": 88,
      "start": 27.1563,
      "duration": 0.0744,
      "velocity": 97,
      "chip": "ym2612"
    },
    {
      "channel": 0,
      "note": 64,
      "start": 27.212,
      "duration": 0.0745,
      "velocity": 94,
      "chip": "ym2612"
    },
    {
      "channel": 2,
      "note": 42,
      "start": 27.2141,
      "duration": 0.0162,
      "velocity": 127,
      "chip": "ym2612"
    },
    {
      "channel": 3,
      "note": 92,
      "start": 27.2159,
      "duration": 0.0716,
      "velocity": 97,
      "chip": "ym2612"
    },
    {
      "channel": 5,
      "note": 92,
      "start": 27.27,
      "duration": 0.0745,
      "velocity": 97,
      "chip": "ym2612"
    },
    {
      "channel": 0,
      "note": 45,
      "start": 27.3261,
      "duration": 0.0741,
      "velocity": 94,
      "chip": "ym2612"
    },
    {
      "channel": 1,
      "note": 45,
      "start": 27.3277,
      "duration": 1.7791,
      "velocity": 121,
      "chip": "ym2612"
    },
    {
      "channel": 2,
      "note": 54,
      "start": 27.3299,
      "duration": 0.0141,
      "velocity": 127,
      "chip": "ym2612"
    },
    {
      "channel": 3,
      "note": 93,
      "start": 27.3317,
      "duration": 0.0693,
      "velocity": 97,
      "chip": "ym2612"
    },
    {
      "channel": 4,
      "note": 45,
      "start": 27.3334,
      "duration": 1.7744,
      "velocity": 117,
      "chip": "ym2612"
    },
    {
      "channel": 5,
      "note": 93,
      "start": 27.3839,
      "duration": 0.0744,
      "velocity": 97,
      "chip": "ym2612"
    },
    {
      "channel": 0,
      "note": 57,
      "start": 27.4395,
      "duration": 0.0744,
      "velocity": 94,
      "chip": "ym2612"
    },
    {
      "channel": 2,
      "note": 42,
      "start": 27.4417,
      "duration": 0.0162,
      "velocity": 127,
      "chip": "ym2612"
    },
    {
      "channel": 3,
      "note": 96,
      "start": 27.4433,
      "duration": 0.0715,
      "velocity": 97,
      "chip": "ym2612"
    },
    {
      "channel": 5,
      "note": 96,
      "start": 27.4975,
      "duration": 0.0746,
      "velocity": 97,
      "chip": "ym2612"
    },
    {
      "channel": 0,
      "note": 45,
      "start": 27.5534,
      "duration": 0.0743,
      "velocity": 94,
      "chip": "ym2612"
    },
    {
      "channel": 2,
      "note": 66,
      "start": 27.5556,
      "duration": 0.016,
      "velocity": 127,
      "chip": "ym2612"
    },
    {
      "channel": 3,
      "note": 100,
      "start": 27.5573,
      "duration": 0.0714,
      "velocity": 97,
      "chip": "ym2612"
    },
    {
      "channel": 5,
      "note": 100,
      "start": 27.6112,
      "duration": 0.0746,
      "velocity": 97,
      "chip": "ym2612"
    },
    {
      "channel": 0,
      "note": 57,
      "start": 27.6671,
      "duration": 0.0744,
      "velocity": 94,
      "chip": "ym2612"
    },
    {
      "channel": 2,
      "note": 42,
      "start": 27.6692,
      "duration": 0.0161,
      "velocity": 127,
      "chip": "ym2612"
    },
    {
      "channel": 3,
      "note": 93,
      "start": 27.6711,
      "duration": 0.0713,
      "velocity": 97,
      "chip": "ym2612"
    },
    {
      "channel": 5,
      "note": 93,
      "start": 27.7251,
      "duration": 0.0744,
      "velocity": 97,
      "chip": "ym2612"
    },
    {
      "channel": 0,
      "note": 45,
      "start": 27.7809,
      "duration": 0.0743,
      "velocity": 94,
      "chip": "ym2612"
    },
    {
      "channel": 2,
      "note": 54,
      "start": 27.7833,
      "duration": 0.0158,
      "velocity": 127,
      "chip": "ym2612"
    },
    {
      "channel": 3,
      "note": 96,
      "start": 27.7849,
      "duration": 0.0712,
      "velocity": 97,
      "chip": "ym2612"
    },
    {
      "channel": 5,
      "note": 96,
      "start": 27.8388,
      "duration": 0.0746,
      "velocity": 97,
      "chip": "ym2612"
    },
    {
      "channel": 0,
      "note": 57,
      "start": 27.8945,
      "duration": 0.0745,
      "velocity": 94,
      "chip": "ym2612"
    },
    {
      "channel": 2,
      "note": 42,
      "start": 27.8967,
      "duration": 0.0161,
      "velocity": 127,
      "chip": "ym2612"
    },
    {
      "channel": 3,
      "note": 100,
      "start": 27.8984,
      "duration": 0.0715,
      "velocity": 97,
      "chip": "ym2612"
    },
    {
      "channel": 5,
      "note": 100,
      "start": 27.9526,
      "duration": 0.0746,
      "velocity": 97,
      "chip": "ym2612"
    },
    {
      "channel": 0,
      "note": 45,
      "start": 28.0085,
      "duration": 0.0743,
      "velocity": 94,
      "chip": "ym2612"
    },
    {
      "channel": 2,
      "note": 66,
      "start": 28.0106,
      "duration": 0.016,
      "velocity": 127,
      "chip": "ym2612"
    },
    {
      "channel": 3,
      "note": 93,
      "start": 28.0125,
      "duration": 0.0712,
      "velocity": 97,
      "chip": "ym2612"
    },
    {
      "channel": 5,
      "note": 93,
      "start": 28.0664,
      "duration": 0.0744,
      "velocity": 97,
      "chip": "ym2612"
    },
    {
      "channel": 0,
      "note": 57,
      "start": 28.1221,
      "duration": 0.0744,
      "velocity": 94,
      "chip": "ym2612"
    },
    {
      "channel": 2,
      "note": 42,
      "start": 28.1242,
      "duration": 0.0162,
      "velocity": 127,
      "chip": "ym2612"
    },
    {
      "channel": 3,
      "note": 96,
      "start": 28.1259,
      "duration": 0.0715,
      "velocity": 97,
      "chip": "ym2612"
    },
    {
      "channel": 5,
      "note": 96,
      "start": 28.18,
      "duration": 0.0746,
      "velocity": 97,
      "chip": "ym2612"
    },
    {
      "channel": 0,
      "note": 45,
      "start": 28.236,
      "duration": 0.0743,
      "velocity": 94,
      "chip": "ym2612"
    },
    {
      "channel": 2,
      "note": 69,
      "start": 28.2386,
      "duration": 0.0156,
      "velocity": 127,
      "chip": "ym2612"
    },
    {
      "channel": 3,
      "note": 100,
      "start": 28.2403,
      "duration": 0.0724,
      "velocity": 97,
      "chip": "ym2612"
    },
    {
      "channel": 5,
      "note": 100,
      "start": 28.2938,
      "duration": 0.0744,
      "velocity": 97,
      "chip": "ym2612"
    },
    {
      "channel": 2,
      "note": 69,
      "start": 28.3125,
      "duration": 0.0176,
      "velocity": 127,
      "chip": "ym2612"
    },
    {
      "channel": 0,
      "note": 57,
      "start": 28.3496,
      "duration": 0.0744,
      "velocity": 94,
      "chip": "ym2612"
    },
    {
      "channel": 3,
      "note": 93,
      "start": 28.3522,
      "duration": 0.0728,
      "velocity": 97,
      "chip": "ym2612"
    },
    {
      "channel": 2,
      "note": 69,
      "start": 28.3882,
      "duration": 0.0177,
      "velocity": 127,
      "chip": "ym2612"
    },
    {
      "channel": 5,
      "note": 93,
      "start": 28.4079,
      "duration": 0.0742,
      "velocity": 97,
      "chip": "ym2612"
    },
    {
      "channel": 0,
      "note": 45,
      "start": 28.4636,
      "duration": 0.0742,
      "velocity": 94,
      "chip": "ym2612"
    },
    {
      "channel": 2,
      "note": 68,
      "start": 28.466,
      "duration": 0.0157,
      "velocity": 127,
      "chip": "ym2612"
    },
    {
      "channel": 3,
      "note": 96,
      "start": 28.4676,
      "duration": 0.071,
      "velocity": 97,
      "chip": "ym2612"
    },
    {
      "channel": 5,
      "note": 96,
      "start": 28.5214,
      "duration": 0.0745,
      "velocity": 97,
      "chip": "ym2612"
    },
    {
      "channel": 0,
      "note": 57,
      "start": 28.5771,
      "duration": 0.0745,
      "velocity": 94,
      "chip": "ym2612"
    },
    {
      "channel": 2,
      "note": 68,
      "start": 28.5793,
      "duration": 0.0162,
      "velocity": 127,
      "chip": "ym2612"
    },
    {
      "channel": 3,
      "note": 100,
      "start": 28.581,
      "duration": 0.0715,
      "velocity": 97,
      "chip": "ym2612"
    },
    {
      "channel": 5,
      "note": 100,
      "start": 28.6351,
      "duration": 0.0746,
      "velocity": 97,
      "chip": "ym2612"
    },
    {
      "channel": 0,
      "note": 45,
      "start": 28.691,
      "duration": 0.0743,
      "velocity": 94,
      "chip": "ym2612"
    },
    {
      "channel": 2,
      "note": 66,
      "start": 28.6935,
      "duration": 0.0158,
      "velocity": 127,
      "chip": "ym2612"
    },
    {
      "channel": 3,
      "note": 93,
      "start": 28.6953,
      "duration": 0.0724,
      "velocity": 97,
      "chip": "ym2612"
    },
    {
      "channel": 5,
      "note": 93,
      "start": 28.749,
      "duration": 0.0742,
      "velocity": 97,
      "chip": "ym2612"
    },
    {
      "channel": 2,
      "note": 66,
      "start": 28.7675,
      "duration": 0.0176,
      "velocity": 127,
      "chip": "ym2612"
    },
    {
      "channel": 0,
      "note": 57,
      "start": 28.8046,
      "duration": 0.0749,
      "velocity": 94,
      "chip": "ym2612"
    },
    {
      "channel": 3,
      "note": 96,
      "start": 28.807,
      "duration": 0.0734,
      "velocity": 97,
      "chip": "ym2612"
    },
    {
      "channel": 2,
      "note": 66,
      "start": 28.8432,
      "duration": 0.0177,
      "velocity": 127,
      "chip": "ym2612"
    },
    {
      "channel": 5,
      "note": 96,
      "start": 28.8628,
      "duration": 0.0744,
      "velocity": 97,
      "chip": "ym2612"
    },
    {
      "channel": 0,
      "note": 45,
      "start": 28.9185,
      "duration": 0.0744,
      "velocity": 94,
      "chip": "ym2612"
    },
    {
      "channel": 2,
      "note": 64,
      "start": 28.921,
      "duration": 0.0157,
      "velocity": 127,
      "chip": "ym2612"
    },
    {
      "channel": 3,
      "note": 100,
      "start": 28.9227,
      "duration": 0.071,
      "velocity": 97,
      "chip": "ym2612"
    },
    {
      "channel": 5,
      "note": 100,
      "start": 28.9763,
      "duration": 0.0744,
      "velocity": 97,
      "chip": "ym2612"
    },
    {
      "channel": 0,
      "note": 57,
      "start": 29.0322,
      "duration": 0.0744,
      "velocity": 94,
      "chip": "ym2612"
    },
    {
      "channel": 3,
      "note": 105,
      "start": 29.0346,
      "duration": 0.0729,
      "velocity": 97,
      "chip": "ym2612"
    },
    {
      "channel": 5,
      "note": 105,
      "start": 29.0903,
      "duration": 0.0744,
      "velocity": 97,
      "chip": "ym2612"
    },
    {
      "channel": 0,
      "note": 55,
      "start": 29.1464,
      "duration": 0.074,
      "velocity": 94,
      "chip": "ym2612"
    },
    {
      "channel": 1,
      "note": 55,
      "start": 29.1483,
      "duration": 1.7787,
      "velocity": 121,
      "chip": "ym2612"
    },
    {
      "channel": 2,
      "note": 54,
      "start": 29.1509,
      "duration": 0.0134,
      "velocity": 127,
      "chip": "ym2612"
    },
    {
      "channel": 3,
      "note": 74,
      "start": 29.156,
      "duration": 0.2927,
      "velocity": 97,
      "chip": "ym2612"
    },
    {
      "channel": 4,
      "note": 55,
      "start": 29.1579,
      "duration": 1.77,
      "velocity": 117,
      "chip": "ym2612"
    },
    {
      "channel": 5,
      "note": 74,
      "start": 29.2073,
      "duration": 0.2987,
      "velocity": 97,
      "chip": "ym2612"
    },
    {
      "channel": 0,
      "note": 55,
      "start": 29.2597,
      "duration": 0.0745,
      "velocity": 94,
      "chip": "ym2612"
    },
    {
      "channel": 2,
      "note": 42,
      "start": 29.2618,
      "duration": 0.0162,
      "velocity": 127,
      "chip": "ym2612"
    },
    {
      "channel": 0,
      "note": 62,
      "start": 29.3735,
      "duration": 0.0744,
      "velocity": 94,
      "chip": "ym2612"
    },
    {
      "channel": 2,
      "note": 66,
      "start": 29.3756,
      "duration": 0.0162,
      "velocity": 127,
      "chip": "ym2612"
    },
    {
      "channel": 0,
      "note": 55,
      "start": 29.4872,
      "duration": 0.0744,
      "velocity": 94,
      "chip": "ym2612"
    },
    {
      "channel": 2,
      "note": 42,
      "start": 29.4893,
      "duration": 0.0163,
      "velocity": 127,
      "chip": "ym2612"
    },
    {
      "channel": 3,
      "note": 76,
      "start": 29.491,
      "duration": 0.299,
      "velocity": 97,
      "chip": "ym2612"
    },
    {
      "channel": 5,
      "note": 76,
      "start": 29.5451,
      "duration": 0.3022,
      "velocity": 97,
      "chip": "ym2612"
    },
    {
      "channel": 0,
      "note": 60,
      "start": 29.601,
      "duration": 0.0745,
      "velocity": 94,
      "chip": "ym2612"
    },
    {
      "channel": 2,
      "note": 54,
      "start": 29.6033,
      "duration": 0.016,
      "velocity": 127,
      "chip": "ym2612"
    },
    {
      "channel": 0,
      "note": 55,
      "start": 29.7147,
      "duration": 0.0745,
      "velocity": 94,
      "chip": "ym2612"
    },
    {
      "channel": 2,
      "note": 42,
      "start": 29.7169,
      "duration": 0.0162,
      "velocity": 127,
      "chip": "ym2612"
    },
    {
      "channel": 0,
      "note": 59,
      "start": 29.8285,
      "duration": 0.0744,
      "velocity": 94,
      "chip": "ym2612"
    },
    {
      "channel": 2,
      "note": 66,
      "start": 29.8307,
      "duration": 0.0161,
      "velocity": 127,
      "chip": "ym2612"
    },
    {
      "channel": 3,
      "note": 77,
      "start": 29.8323,
      "duration": 0.1852,
      "velocity": 97,
      "chip": "ym2612"
    },
    {
      "channel": 5,
      "note": 77,
      "start": 29.8865,
      "duration": 0.1882,
      "velocity": 97,
      "chip": "ym2612"
    },
    {
      "channel": 0,
      "note": 55,
      "start": 29.9422,
      "duration": 0.0745,
      "velocity": 94,
      "chip": "ym2612"
    },
    {
      "channel": 2,
      "note": 42,
      "start": 29.9444,
      "duration": 0.0162,
      "velocity": 127,
      "chip": "ym2612"
    },
    {
      "channel": 0,
      "note": 57,
      "start": 30.0561,
      "duration": 0.0744,
      "velocity": 94,
      "chip": "ym2612"
    },
    {
      "channel": 2,
      "note": 54,
      "start": 30.0583,
      "duration": 0.016,
      "velocity": 127,
      "chip": "ym2612"
    },
    {
      "channel": 3,
      "note": 79,
      "start": 30.06,
      "duration": 0.2988,
      "velocity": 97,
      "chip": "ym2612"
    },
    {
      "channel": 5,
      "note": 79,
      "start": 30.1139,
      "duration": 0.3021,
      "velocity": 97,
      "chip": "ym2612"
    },
    {
      "channel": 0,
      "note": 55,
      "start": 30.1698,
      "duration": 0.0744,
      "velocity": 94,
      "chip": "ym2612"
    },
    {
      "channel": 2,
      "note": 42,
      "start": 30.172,
      "duration": 0.0162,
      "velocity": 127,
      "chip": "ym2612"
    },
    {
      "channel": 0,
      "note": 59,
      "start": 30.2835,
      "duration": 0.0744,
      "velocity": 94,
      "chip": "ym2612"
    },
    {
      "channel": 2,
      "note": 66,
      "start": 30.2858,
      "duration": 0.0161,
      "velocity": 127,
      "chip": "ym2612"
    },
    {
      "channel": 0,
      "note": 55,
      "start": 30.3973,
      "duration": 0.0745,
      "velocity": 94,
      "chip": "ym2612"
    },
    {
      "channel": 2,
      "note": 42,
      "start": 30.3994,
      "duration": 0.0162,
      "velocity": 127,
      "chip": "ym2612"
    },
    {
      "channel": 3,
      "note": 77,
      "start": 30.4011,
      "duration": 0.299,
      "velocity": 97,
      "chip": "ym2612"
    },
    {
      "channel": 5,
      "note": 77,
      "start": 30.4552,
      "duration": 0.3021,
      "velocity": 97,
      "chip": "ym2612"
    },
    {
      "channel": 0,
      "note": 62,
      "start": 30.5111,
      "duration": 0.0745,
      "velocity": 94,
      "chip": "ym2612"
    },
    {
      "channel": 2,
      "note": 66,
      "start": 30.5134,
      "duration": 0.016,
      "velocity": 127,
      "chip": "ym2612"
    },
    {
      "channel": 0,
      "note": 55,
      "start": 30.6248,
      "duration": 0.0744,
      "velocity": 94,
      "chip": "ym2612"
    },
    {
      "channel": 2,
      "note": 66,
      "start": 30.627,
      "duration": 0.0162,
      "velocity": 127,
      "chip": "ym2612"
    },
    {
      "channel": 0,
      "note": 67,
      "start": 30.7386,
      "duration": 0.0745,
      "velocity": 94,
      "chip": "ym2612"
    },
    {
      "channel": 2,
      "note": 66,
      "start": 30.7407,
      "duration": 0.0162,
      "velocity": 127,
      "chip": "ym2612"
    },
    {
      "channel": 3,
      "note": 74,
      "start": 30.7424,
      "duration": 0.1853,
      "velocity": 97,
      "chip": "ym2612"
    },
    {
      "channel": 5,
      "note": 74,
      "start": 30.7965,
      "duration": 0.1884,
      "velocity": 97,
      "chip": "ym2612"
    },
    {
      "channel": 0,
      "note": 55,
      "start": 30.8524,
      "duration": 0.0744,
      "velocity": 94,
      "chip": "ym2612"
    },
    {
      "channel": 2,
      "note": 66,
      "start": 30.8545,
      "duration": 0.0161,
      "velocity": 127,
      "chip": "ym2612"
    },
    {
      "channel": 0,
      "note": 57,
      "start": 30.9661,
      "duration": 0.0744,
      "velocity": 94,
      "chip": "ym2612"
    },
    {
      "channel": 1,
      "note": 57,
      "start": 30.9677,
      "duration": 1.7795,
      "velocity": 121,
      "chip": "ym2612"
    },
    {
      "channel": 2,
      "note": 54,
      "start": 30.9701,
      "duration": 0.0143,
      "velocity": 127,
      "chip": "ym2612"
    },
    {
      "channel": 3,
      "note": 76,
      "start": 30.9718,
      "duration": 0.2972,
      "velocity": 97,
      "chip": "ym2612"
    },
    {
      "channel": 4,
      "note": 57,
      "start": 30.9734,
      "duration": 1.7747,
      "velocity": 117,
      "chip": "ym2612"
    },
    {
      "channel": 5,
      "note": 76,
      "start": 31.0241,
      "duration": 0.3021,
      "velocity": 97,
      "chip": "ym2612"
    },
    {
      "channel": 0,
      "note": 57,
      "start": 31.0798,
      "duration": 0.0745,
      "velocity": 94,
      "chip": "ym2612"
    },
    {
      "channel": 2,
      "note": 42,
      "start": 31.082,
      "duration": 0.0161,
      "velocity": 127,
      "chip": "ym2612"
    },
    {
      "channel": 0,
      "note": 64,
      "start": 31.1937,
      "duration": 0.0744,
      "velocity": 94,
      "chip": "ym2612"
    },
    {
      "channel": 2,
      "note": 66,
      "start": 31.1958,
      "duration": 0.0162,
      "velocity": 127,
      "chip": "ym2612"
    },
    {
      "channel": 0,
      "note": 57,
      "start": 31.3074,
      "duration": 0.0744,
      "velocity": 94,
      "chip": "ym2612"
    },
    {
      "channel": 2,
      "note": 42,
      "start": 31.3095,
      "duration": 0.0162,
      "velocity": 127,
      "chip": "ym2612"
    },
    {
      "channel": 3,
      "note": 77,
      "start": 31.3111,
      "duration": 0.299,
      "velocity": 97,
      "chip": "ym2612"
    },
    {
      "channel": 5,
      "note": 77,
      "start": 31.3653,
      "duration": 0.3022,
      "velocity": 97,
      "chip": "ym2612"
    },
    {
      "channel": 0,
      "note": 62,
      "start": 31.4211,
      "duration": 0.0745,
      "velocity": 94,
      "chip": "ym2612"
    },
    {
      "channel": 2,
      "note": 54,
      "start": 31.4235,
      "duration": 0.016,
      "velocity": 127,
      "chip": "ym2612"
    },
    {
      "channel": 0,
      "note": 57,
      "start": 31.5349,
      "duration": 0.0745,
      "velocity": 94,
      "chip": "ym2612"
    },
    {
      "channel": 2,
      "note": 42,
      "start": 31.5371,
      "duration": 0.0161,
      "velocity": 127,
      "chip": "ym2612"
    },
    {
      "channel": 0,
      "note": 60,
      "start": 31.6487,
      "duration": 0.0744,
      "velocity": 94,
      "chip": "ym2612"
    },
    {
      "channel": 2,
      "note": 66,
      "start": 31.6508,
      "duration": 0.0162,
      "velocity": 127,
      "chip": "ym2612"
    },
    {
      "channel": 3,
      "note": 79,
      "start": 31.6525,
      "duration": 0.1852,
      "velocity": 97,
      "chip": "ym2612"
    },
    {
      "channel": 5,
      "note": 79,
      "start": 31.7066,
      "duration": 0.1883,
      "velocity": 97,
      "chip": "ym2612"
    },
    {
      "channel": 0,
      "note": 57,
      "start": 31.7624,
      "duration": 0.0745,
      "velocity": 94,
      "chip": "ym2612"
    },
    {
      "channel": 2,
      "note": 42,
      "start": 31.7646,
      "duration": 0.0162,
      "velocity": 127,
      "chip": "ym2612"
    },
    {
      "channel": 0,
      "note": 59,
      "start": 31.8762,
      "duration": 0.0745,
      "velocity": 94,
      "chip": "ym2612"
    },
    {
      "channel": 2,
      "note": 54,
      "start": 31.8785,
      "duration": 0.016,
      "velocity": 127,
      "chip": "ym2612"
    },
    {
      "channel": 3,
      "note": 81,
      "start": 31.8802,
      "duration": 0.2989,
      "velocity": 97,
      "chip": "ym2612"
    },
    {
      "channel": 5,
      "note": 81,
      "start": 31.9341,
      "duration": 0.3022,
      "velocity": 97,
      "chip": "ym2612"
    },
    {
      "channel": 0,
      "note": 57,
      "start": 31.99,
      "duration": 0.0744,
      "velocity": 94,
      "chip": "ym2612"
    },
    {
      "channel": 2,
      "note": 42,
      "start": 31.9921,
      "duration": 0.0161,
      "velocity": 127,
      "chip": "ym2612"
    },
    {
      "channel": 0,
      "note": 60,
      "start": 32.1038,
      "duration": 0.0744,
      "velocity": 94,
      "chip": "ym2612"
    },
    {
      "channel": 2,
      "note": 66,
      "start": 32.1059,
      "duration": 0.0161,
      "velocity": 127,
      "chip": "ym2612"
    },
    {
      "channel": 0,
      "note": 57,
      "start": 32.2174,
      "duration": 0.0745,
      "velocity": 94,
      "chip": "ym2612"
    },
    {
      "channel": 2,
      "note": 42,
      "start": 32.2197,
      "duration": 0.0162,
      "velocity": 127,
      "chip": "ym2612"
    },
    {
      "channel": 3,
      "note": 79,
      "start": 32.2213,
      "duration": 0.299,
      "velocity": 97,
      "chip": "ym2612"
    },
    {
      "channel": 5,
      "note": 79,
      "start": 32.2754,
      "duration": 0.3021,
      "velocity": 97,
      "chip": "ym2612"
    },
    {
      "channel": 0,
      "note": 64,
      "start": 32.3312,
      "duration": 0.0744,
      "velocity": 94,
      "chip": "ym2612"
    },
    {
      "channel": 2,
      "note": 66,
      "start": 32.3335,
      "duration": 0.016,
      "velocity": 127,
      "chip": "ym2612"
    },
    {
      "channel": 0,
      "note": 57,
      "start": 32.445,
      "duration": 0.0744,
      "velocity": 94,
      "chip": "ym2612"
    },
    {
      "channel": 2,
      "note": 66,
      "start": 32.4471,
      "duration": 0.0162,
      "velocity": 127,
      "chip": "ym2612"
    },
    {
      "channel": 0,
      "note": 69,
      "start": 32.5588,
      "duration": 0.0745,
      "velocity": 94,
      "chip": "ym2612"
    },
    {
      "channel": 2,
      "note": 66,
      "start": 32.561,
      "duration": 0.0161,
      "velocity": 127,
      "chip": "ym2612"
    },
    {
      "channel": 3,
      "note": 76,
      "start": 32.5626,
      "duration": 0.1853,
      "velocity": 97,
      "chip": "ym2612"
    },
    {
      "channel": 5,
      "note": 76,
      "start": 32.6167,
      "duration": 0.1883,
      "velocity": 97,
      "chip": "ym2612"
    },
    {
      "channel": 0,
      "note": 57,
      "start": 32.6725,
      "duration": 0.0744,
      "velocity": 94,
      "chip": "ym2612"
    },
    {
      "channel": 2,
      "note": 66,
      "start": 32.6747,
      "duration": 0.0162,
      "velocity": 127,
      "chip": "ym2612"
    },
    {
      "channel": 0,
      "note": 59,
      "start": 32.7863,
      "duration": 0.0744,
      "velocity": 94,
      "chip": "ym2612"
    },
    {
      "channel": 1,
      "note": 59,
      "start": 32.7879,
      "duration": 1.7794,
      "velocity": 121,
      "chip": "ym2612"
    },
    {
      "channel": 2,
      "note": 54,
      "start": 32.7903,
      "duration": 0.0143,
      "velocity": 127,
      "chip": "ym2612"
    },
    {
      "channel": 3,
      "note": 77,
      "start": 32.7922,
      "duration": 0.2969,
      "velocity": 97,
      "chip": "ym2612"
    },
    {
      "channel": 4,
      "note": 59,
      "start": 32.7938,
      "duration": 1.7745,
      "velocity": 117,
      "chip": "ym2612"
    },
    {
      "channel": 5,
      "note": 77,
      "start": 32.8445,
      "duration": 0.3018,
      "velocity": 97,
      "chip": "ym2612"
    },
    {
      "channel": 0,
      "note": 59,
      "start": 32.9,
      "duration": 0.0745,
      "velocity": 94,
      "chip": "ym2612"
    },
    {
      "channel": 2,
      "note": 42,
      "start": 32.9022,
      "duration": 0.0161,
      "velocity": 127,
      "chip": "ym2612"
    },
    {
      "channel": 0,
      "note": 65,
      "start": 33.0138,
      "duration": 0.0744,
      "velocity": 94,
      "chip": "ym2612"
    },
    {
      "channel": 2,
      "note": 66,
      "start": 33.0159,
      "duration": 0.0162,
      "velocity": 127,
      "chip": "ym2612"
    },
    {
      "channel": 0,
      "note": 59,
      "start": 33.1276,
      "duration": 0.0745,
      "velocity": 94,
      "chip": "ym2612"
    },
    {
      "channel": 2,
      "note": 42,
      "start": 33.1297,
      "duration": 0.0161,
      "velocity": 127,
      "chip": "ym2612"
    },
    {
      "channel": 3,
      "note": 79,
      "start": 33.1314,
      "duration": 0.299,
      "velocity": 97,
      "chip": "ym2612"
    },
    {
      "channel": 5,
      "note": 79,
      "start": 33.1856,
      "duration": 0.302,
      "velocity": 97,
      "chip": "ym2612"
    },
    {
      "channel": 0,
      "note": 64,
      "start": 33.2413,
      "duration": 0.0745,
      "velocity": 94,
      "chip": "ym2612"
    },
    {
      "channel": 2,
      "note": 54,
      "start": 33.2437,
      "duration": 0.016,
      "velocity": 127,
      "chip": "ym2612"
    },
    {
      "channel": 0,
      "note": 59,
      "start": 33.3551,
      "duration": 0.0744,
      "velocity": 94,
      "chip": "ym2612"
    },
    {
      "channel": 2,
      "note": 42,
      "start": 33.3572,
      "duration": 0.0162,
      "velocity": 127,
      "chip": "ym2612"
    },
    {
      "channel": 0,
      "note": 62,
      "start": 33.4689,
      "duration": 0.0744,
      "velocity": 94,
      "chip": "ym2612"
    },
    {
      "channel": 2,
      "note": 66,
      "start": 33.4711,
      "duration": 0.0161,
      "velocity": 127,
      "chip": "ym2612"
    },
    {
      "channel": 3,
      "note": 81,
      "start": 33.4728,
      "duration": 0.1851,
      "velocity": 97,
      "chip": "ym2612"
    },
    {
      "channel": 5,
      "note": 81,
      "start": 33.5268,
      "duration": 0.1883,
      "velocity": 97,
      "chip": "ym2612"
    },
    {
      "channel": 0,
      "note": 59,
      "start": 33.5826,
      "duration": 0.0745,
      "velocity": 94,
      "chip": "ym2612"
    },
    {
      "channel": 2,
      "note": 42,
      "start": 33.5847,
      "duration": 0.0162,
      "velocity": 127,
      "chip": "ym2612"
    },
    {
      "channel": 0,
      "note": 60,
      "start": 33.6964,
      "duration": 0.0744,
      "velocity": 94,
      "chip": "ym2612"
    },
    {
      "channel": 2,
      "note": 54,
      "start": 33.6987,
      "duration": 0.016,
      "velocity": 127,
      "chip": "ym2612"
    },
    {
      "channel": 3,
      "note": 83,
      "start": 33.7004,
      "duration": 0.2988,
      "velocity": 97,
      "chip": "ym2612"
    },
    {
      "channel": 5,
      "note": 83,
      "start": 33.7543,
      "duration": 0.302,
      "velocity": 97,
      "chip": "ym2612"
    },
    {
      "channel": 0,
      "note": 59,
      "start": 33.8101,
      "duration": 0.0744,
      "velocity": 94,
      "chip": "ym2612"
    },
    {
      "channel": 2,
      "note": 42,
      "start": 33.8123,
      "duration": 0.0162,
      "velocity": 127,
      "chip": "ym2612"
    },
    {
      "channel": 0,
      "note": 62,
      "start": 33.9239,
      "duration": 0.0745,
      "velocity": 94,
      "chip": "ym2612"
    },
    {
      "channel": 2,
      "note": 66,
      "start": 33.926,
      "duration": 0.0161,
      "velocity": 127,
      "chip": "ym2612"
    },
    {
      "channel": 0,
      "note": 59,
      "start": 34.0377,
      "duration": 0.0744,
      "velocity": 94,
      "chip": "ym2612"
    },
    {
      "channel": 2,
      "note": 42,
      "start": 34.0398,
      "duration": 0.0161,
      "velocity": 127,
      "chip": "ym2612"
    },
    {
      "channel": 3,
      "note": 84,
      "start": 34.0415,
      "duration": 0.299,
      "velocity": 97,
      "chip": "ym2612"
    },
    {
      "channel": 5,
      "note": 84,
      "start": 34.0956,
      "duration": 0.3022,
      "velocity": 97,
      "chip": "ym2612"
    },
    {
      "channel": 0,
      "note": 65,
      "start": 34.1514,
      "duration": 0.0744,
      "velocity": 94,
      "chip": "ym2612"
    },
    {
      "channel": 2,
      "note": 66,
      "start": 34.1538,
      "duration": 0.016,
      "velocity": 127,
      "chip": "ym2612"
    },
    {
      "channel": 0,
      "note": 59,
      "start": 34.2651,
      "duration": 0.0745,
      "velocity": 94,
      "chip": "ym2612"
    },
    {
      "channel": 2,
      "note": 66,
      "start": 34.2673,
      "duration": 0.0161,
      "velocity": 127,
      "chip": "ym2612"
    },
    {
      "channel": 0,
      "note": 71,
      "start": 34.379,
      "duration": 0.0744,
      "velocity": 94,
      "chip": "ym2612"
    },
    {
      "channel": 2,
      "note": 66,
      "start": 34.3811,
      "duration": 0.0162,
      "velocity": 127,
      "chip": "ym2612"
    },
    {
      "channel": 3,
      "note": 83,
      "start": 34.3828,
      "duration": 0.1854,
      "velocity": 97,
      "chip": "ym2612"
    },
    {
      "channel": 5,
      "note": 83,
      "start": 34.4369,
      "duration": 0.1883,
      "velocity": 97,
      "chip": "ym2612"
    },
    {
      "channel": 0,
      "note": 59,
      "start": 34.4927,
      "duration": 0.0745,
      "velocity": 94,
      "chip": "ym2612"
    },
    {
      "channel": 2,
      "note": 66,
      "start": 34.4949,
      "duration": 0.0162,
      "velocity": 127,
      "chip": "ym2612"
    },
    {
      "channel": 0,
      "note": 60,
      "start": 34.6064,
      "duration": 0.0745,
      "velocity": 94,
      "chip": "ym2612"
    },
    {
      "channel": 1,
      "note": 60,
      "start": 34.6081,
      "duration": 0.8693,
      "velocity": 121,
      "chip": "ym2612"
    },
    {
      "channel": 2,
      "note": 54,
      "start": 34.6105,
      "duration": 0.0143,
      "velocity": 127,
      "chip": "ym2612"
    },
    {
      "channel": 3,
      "note": 84,
      "start": 34.6121,
      "duration": 0.8661,
      "velocity": 97,
      "chip": "ym2612"
    },
    {
      "channel": 4,
      "note": 60,
      "start": 34.6137,
      "duration": 0.8646,
      "velocity": 117,
      "chip": "ym2612"
    },
    {
      "channel": 5,
      "note": 84,
      "start": 34.6644,
      "duration": 0.8709,
      "velocity": 97,
      "chip": "ym2612"
    },
    {
      "channel": 0,
      "note": 60,
      "start": 34.7204,
      "duration": 0.0743,
      "velocity": 94,
      "chip": "ym2612"
    },
    {
      "channel": 2,
      "note": 42,
      "start": 34.7225,
      "duration": 0.016,
      "velocity": 127,
      "chip": "ym2612"
    },
    {
      "channel": 0,
      "note": 67,
      "start": 34.834,
      "duration": 0.0744,
      "velocity": 94,
      "chip": "ym2612"
    },
    {
      "channel": 2,
      "note": 66,
      "start": 34.8361,
      "duration": 0.0162,
      "velocity": 127,
      "chip": "ym2612"
    },
    {
      "channel": 0,
      "note": 60,
      "start": 34.9477,
      "duration": 0.0745,
      "velocity": 94,
      "chip": "ym2612"
    },
    {
      "channel": 2,
      "note": 42,
      "start": 34.9499,
      "duration": 0.0161,
      "velocity": 127,
      "chip": "ym2612"
    },
    {
      "channel": 0,
      "note": 65,
      "start": 35.0615,
      "duration": 0.0746,
      "velocity": 94,
      "chip": "ym2612"
    },
    {
      "channel": 2,
      "note": 54,
      "start": 35.0638,
      "duration": 0.016,
      "velocity": 127,
      "chip": "ym2612"
    },
    {
      "channel": 0,
      "note": 60,
      "start": 35.1753,
      "duration": 0.0745,
      "velocity": 94,
      "chip": "ym2612"
    },
    {
      "channel": 2,
      "note": 42,
      "start": 35.1774,
      "duration": 0.0162,
      "velocity": 127,
      "chip": "ym2612"
    },
    {
      "channel": 0,
      "note": 64,
      "start": 35.289,
      "duration": 0.0745,
      "velocity": 94,
      "chip": "ym2612"
    },
    {
      "channel": 2,
      "note": 66,
      "start": 35.2912,
      "duration": 0.0161,
      "velocity": 127,
      "chip": "ym2612"
    },
    {
      "channel": 0,
      "note": 60,
      "start": 35.4028,
      "duration": 0.0744,
      "velocity": 94,
      "chip": "ym2612"
    },
    {
      "channel": 2,
      "note": 42,
      "start": 35.405,
      "duration": 0.0161,
      "velocity": 127,
      "chip": "ym2612"
    },
    {
      "channel": 0,
      "note": 62,
      "start": 35.5166,
      "duration": 0.0744,
      "velocity": 94,
      "chip": "ym2612"
    },
    {
      "channel": 1,
      "note": 62,
      "start": 35.5181,
      "duration": 0.8694,
      "velocity": 121,
      "chip": "ym2612"
    },
    {
      "channel": 2,
      "note": 69,
      "start": 35.5207,
      "duration": 0.0141,
      "velocity": 127,
      "chip": "ym2612"
    },
    {
      "channel": 3,
      "note": 86,
      "start": 35.5224,
      "duration": 0.8659,
      "velocity": 97,
      "chip": "ym2612"
    },
    {
      "channel": 4,
      "note": 62,
      "start": 35.524,
      "duration": 0.8645,
      "velocity": 117,
      "chip": "ym2612"
    },
    {
      "channel": 5,
      "note": 86,
      "start": 35.5745,
      "duration": 0.7949,
      "velocity": 97,
      "chip": "ym2612"
    },
    {
      "channel": 0,
      "note": 62,
      "start": 35.6303,
      "duration": 0.0745,
      "velocity": 94,
      "chip": "ym2612"
    },
    {
      "channel": 2,
      "note": 69,
      "start": 35.6327,
      "duration": 0.016,
      "velocity": 127,
      "chip": "ym2612"
    },
    {
      "channel": 0,
      "note": 69,
      "start": 35.7441,
      "duration": 0.0744,
      "velocity": 94,
      "chip": "ym2612"
    },
    {
      "channel": 2,
      "note": 69,
      "start": 35.7464,
      "duration": 0.016,
      "velocity": 127,
      "chip": "ym2612"
    },
    {
      "channel": 0,
      "note": 62,
      "start": 35.8578,
      "duration": 0.0744,
      "velocity": 94,
      "chip": "ym2612"
    },
    {
      "channel": 2,
      "note": 69,
      "start": 35.8601,
      "duration": 0.016,
      "velocity": 127,
      "chip": "ym2612"
    },
    {
      "channel": 0,
      "note": 67,
      "start": 35.972,
      "duration": 0.074,
      "velocity": 94,
      "chip": "ym2612"
    },
    {
      "channel": 2,
      "note": 66,
      "start": 35.9747,
      "duration": 0.0152,
      "velocity": 127,
      "chip": "ym2612"
    },
    {
      "channel": 0,
      "note": 62,
      "start": 36.0854,
      "duration": 0.0744,
      "velocity": 94,
      "chip": "ym2612"
    },
    {
      "channel": 2,
      "note": 66,
      "start": 36.0877,
      "duration": 0.0159,
      "velocity": 127,
      "chip": "ym2612"
    },
    {
      "channel": 0,
      "note": 65,
      "start": 36.1991,
      "duration": 0.0744,
      "velocity": 94,
      "chip": "ym2612"
    },
    {
      "channel": 2,
      "note": 66,
      "start": 36.2014,
      "duration": 0.016,
      "velocity": 127,
      "chip": "ym2612"
    },
    {
      "channel": 0,
      "note": 62,
      "start": 36.3129,
      "duration": 0.0745,
      "velocity": 94,
      "chip": "ym2612"
    },
    {
      "channel": 2,
      "note": 66,
      "start": 36.3152,
      "duration": 0.016,
      "velocity": 127,
      "chip": "ym2612"
    },
    {
      "channel": 0,
      "note": 57,
      "start": 36.4269,
      "duration": 0.0931,
      "velocity": 94,
      "chip": "ym2612"
    },
    {
      "channel": 1,
      "note": 57,
      "start": 36.4288,
      "duration": 0.8878,
      "velocity": 121,
      "chip": "ym2612"
    },
    {
      "channel": 2,
      "note": 54,
      "start": 36.4317,
      "duration": 0.0322,
      "velocity": 127,
      "chip": "ym2612"
    },
    {
      "channel": 3,
      "note": 69,
      "start": 36.437,
      "duration": 0.0839,
      "velocity": 105,
      "chip": "ym2612"
    },
    {
      "channel": 4,
      "note": 57,
      "start": 36.4389,
      "duration": 0.8788,
      "velocity": 117,
      "chip": "ym2612"
    },
    {
      "channel": 5,
      "note": 72,
      "start": 36.4443,
      "duration": 0.077,
      "velocity": 105,
      "chip": "ym2612"
    },
    {
      "channel": 0,
      "note": 57,
      "start": 36.5594,
      "duration": 0.0744,
      "velocity": 94,
      "chip": "ym2612"
    },
    {
      "channel": 2,
      "note": 42,
      "start": 36.5615,
      "duration": 0.0162,
      "velocity": 127,
      "chip": "ym2612"
    },
    {
      "channel": 3,
      "note": 72,
      "start": 36.5631,
      "duration": 0.0716,
      "velocity": 105,
      "chip": "ym2612"
    },
    {
      "channel": 5,
      "note": 76,
      "start": 36.5649,
      "duration": 0.0701,
      "velocity": 105,
      "chip": "ym2612"
    },
    {
      "channel": 0,
      "note": 69,
      "start": 36.6731,
      "duration": 0.0745,
      "velocity": 94,
      "chip": "ym2612"
    },
    {
      "channel": 2,
      "note": 66,
      "start": 36.6753,
      "duration": 0.0162,
      "velocity": 127,
      "chip": "ym2612"
    },
    {
      "channel": 3,
      "note": 76,
      "start": 36.6769,
      "duration": 0.0715,
      "velocity": 105,
      "chip": "ym2612"
    },
    {
      "channel": 5,
      "note": 81,
      "start": 36.6787,
      "duration": 0.07,
      "velocity": 105,
      "chip": "ym2612"
    },
    {
      "channel": 0,
      "note": 57,
      "start": 36.7871,
      "duration": 0.0742,
      "velocity": 94,
      "chip": "ym2612"
    },
    {
      "channel": 2,
      "note": 42,
      "start": 36.7893,
      "duration": 0.0159,
      "velocity": 127,
      "chip": "ym2612"
    },
    {
      "channel": 3,
      "note": 69,
      "start": 36.791,
      "duration": 0.0711,
      "velocity": 105,
      "chip": "ym2612"
    },
    {
      "channel": 5,
      "note": 72,
      "start": 36.793,
      "duration": 0.0695,
      "velocity": 105,
      "chip": "ym2612"
    },
    {
      "channel": 0,
      "note": 57,
      "start": 36.9008,
      "duration": 0.0743,
      "velocity": 94,
      "chip": "ym2612"
    },
    {
      "channel": 2,
      "note": 54,
      "start": 36.9031,
      "duration": 0.0159,
      "velocity": 127,
      "chip": "ym2612"
    },
    {
      "channel": 3,
      "note": 72,
      "start": 36.9048,
      "duration": 0.0712,
      "velocity": 105,
      "chip": "ym2612"
    },
    {
      "channel": 5,
      "note": 76,
      "start": 36.9066,
      "duration": 0.0697,
      "velocity": 105,
      "chip": "ym2612"
    },
    {
      "channel": 0,
      "note": 57,
      "start": 37.0145,
      "duration": 0.0744,
      "velocity": 94,
      "chip": "ym2612"
    },
    {
      "channel": 2,
      "note": 42,
      "start": 37.0167,
      "duration": 0.016,
      "velocity": 127,
      "chip": "ym2612"
    },
    {
      "channel": 3,
      "note": 76,
      "start": 37.0183,
      "duration": 0.0714,
      "velocity": 105,
      "chip": "ym2612"
    },
    {
      "channel": 5,
      "note": 81,
      "start": 37.0202,
      "duration": 0.0698,
      "velocity": 105,
      "chip": "ym2612"
    },
    {
      "channel": 0,
      "note": 57,
      "start": 37.1283,
      "duration": 0.0743,
      "velocity": 94,
      "chip": "ym2612"
    },
    {
      "channel": 2,
      "note": 66,
      "start": 37.1304,
      "duration": 0.016,
      "velocity": 127,
      "chip": "ym2612"
    },
    {
      "channel": 3,
      "note": 69,
      "start": 37.1322,
      "duration": 0.0712,
      "velocity": 105,
      "chip": "ym2612"
    },
    {
      "channel": 5,
      "note": 72,
      "start": 37.1341,
      "duration": 0.0697,
      "velocity": 105,
      "chip": "ym2612"
    },
    {
      "channel": 0,
      "note": 57,
      "start": 37.2421,
      "duration": 0.0743,
      "velocity": 94,
      "chip": "ym2612"
    },
    {
      "channel": 2,
      "note": 42,
      "start": 37.2442,
      "duration": 0.016,
      "velocity": 127,
      "chip": "ym2612"
    },
    {
      "channel": 3,
      "note": 72,
      "start": 37.2459,
      "duration": 0.0715,
      "velocity": 105,
      "chip": "ym2612"
    },
    {
      "channel": 5,
      "note": 76,
      "start": 37.2477,
      "duration": 0.0702,
      "velocity": 105,
      "chip": "ym2612"
    },
    {
      "channel": 0,
      "note": 57,
      "start": 37.3559,
      "duration": 0.0742,
      "velocity": 94,
      "chip": "ym2612"
    },
    {
      "channel": 1,
      "note": 55,
      "start": 37.3575,
      "duration": 0.8692,
      "velocity": 121,
      "chip": "ym2612"
    },
    {
      "channel": 2,
      "note": 54,
      "start": 37.3596,
      "duration": 0.0144,
      "velocity": 127,
      "chip": "ym2612"
    },
    {
      "channel": 3,
      "note": 67,
      "start": 37.3615,
      "duration": 0.0695,
      "velocity": 105,
      "chip": "ym2612"
    },
    {
      "channel": 4,
      "note": 55,
      "start": 37.3631,
      "duration": 0.8646,
      "velocity": 117,
      "chip": "ym2612"
    },
    {
      "channel": 5,
      "note": 71,
      "start": 37.3649,
      "duration": 0.0664,
      "velocity": 105,
      "chip": "ym2612"
    },
    {
      "channel": 0,
      "note": 57,
      "start": 37.4697,
      "duration": 0.0742,
      "velocity": 94,
      "chip": "ym2612"
    },
    {
      "channel": 2,
      "note": 42,
      "start": 37.4718,
      "duration": 0.016,
      "velocity": 127,
      "chip": "ym2612"
    },
    {
      "channel": 3,
      "note": 71,
      "start": 37.4734,
      "duration": 0.0713,
      "velocity": 105,
      "chip": "ym2612"
    },
    {
      "channel": 5,
      "note": 74,
      "start": 37.4752,
      "duration": 0.0699,
      "velocity": 105,
      "chip": "ym2612"
    },
    {
      "channel": 0,
      "note": 67,
      "start": 37.5834,
      "duration": 0.0743,
      "velocity": 94,
      "chip": "ym2612"
    },
    {
      "channel": 2,
      "note": 66,
      "start": 37.5855,
      "duration": 0.016,
      "velocity": 127,
      "chip": "ym2612"
    },
    {
      "channel": 3,
      "note": 74,
      "start": 37.5872,
      "duration": 0.0714,
      "velocity": 105,
      "chip": "ym2612"
    },
    {
      "channel": 5,
      "note": 79,
      "start": 37.5889,
      "duration": 0.0699,
      "velocity": 105,
      "chip": "ym2612"
    },
    {
      "channel": 0,
      "note": 57,
      "start": 37.6971,
      "duration": 0.0742,
      "velocity": 94,
      "chip": "ym2612"
    },
    {
      "channel": 2,
      "note": 42,
      "start": 37.6993,
      "duration": 0.016,
      "velocity": 127,
      "chip": "ym2612"
    },
    {
      "channel": 3,
      "note": 67,
      "start": 37.7011,
      "duration": 0.0712,
      "velocity": 105,
      "chip": "ym2612"
    },
    {
      "channel": 5,
      "note": 71,
      "start": 37.7031,
      "duration": 0.0695,
      "velocity": 105,
      "chip": "ym2612"
    },
    {
      "channel": 0,
      "note": 57,
      "start": 37.8109,
      "duration": 0.0743,
      "velocity": 94,
      "chip": "ym2612"
    },
    {
      "channel": 2,
      "note": 54,
      "start": 37.8132,
      "duration": 0.0159,
      "velocity": 127,
      "chip": "ym2612"
    },
    {
      "channel": 3,
      "note": 71,
      "start": 37.8148,
      "duration": 0.0712,
      "velocity": 105,
      "chip": "ym2612"
    },
    {
      "channel": 5,
      "note": 74,
      "start": 37.8166,
      "duration": 0.0698,
      "velocity": 105,
      "chip": "ym2612"
    },
    {
      "channel": 0,
      "note": 57,
      "start": 37.9246,
      "duration": 0.0743,
      "velocity": 94,
      "chip": "ym2612"
    },
    {
      "channel": 2,
      "note": 42,
      "start": 37.9268,
      "duration": 0.016,
      "velocity": 127,
      "chip": "ym2612"
    },
    {
      "channel": 3,
      "note": 74,
      "start": 37.9285,
      "duration": 0.0713,
      "velocity": 105,
      "chip": "ym2612"
    },
    {
      "channel": 5,
      "note": 79,
      "start": 37.9302,
      "duration": 0.0699,
      "velocity": 105,
      "chip": "ym2612"
    },
    {
      "channel": 0,
      "note": 57,
      "start": 38.0384,
      "duration": 0.0742,
      "velocity": 94,
      "chip": "ym2612"
    },
    {
      "channel": 2,
      "note": 66,
      "start": 38.0405,
      "duration": 0.016,
      "velocity": 127,
      "chip": "ym2612"
    },
    {
      "channel": 3,
      "note": 67,
      "start": 38.0423,
      "duration": 0.0712,
      "velocity": 105,
      "chip": "ym2612"
    },
    {
      "channel": 5,
      "note": 71,
      "start": 38.0442,
      "duration": 0.0697,
      "velocity": 105,
      "chip": "ym2612"
    },
    {
      "channel": 0,
      "note": 57,
      "start": 38.1522,
      "duration": 0.0742,
      "velocity": 94,
      "chip": "ym2612"
    },
    {
      "channel": 2,
      "note": 42,
      "start": 38.1543,
      "duration": 0.016,
      "velocity": 127,
      "chip": "ym2612"
    },
    {
      "channel": 3,
      "note": 71,
      "start": 38.156,
      "duration": 0.0715,
      "velocity": 105,
      "chip": "ym2612"
    },
    {
      "channel": 5,
      "note": 74,
      "start": 38.1578,
      "duration": 0.07,
      "velocity": 105,
      "chip": "ym2612"
    },
    {
      "channel": 0,
      "note": 57,
      "start": 38.2659,
      "duration": 0.0743,
      "velocity": 94,
      "chip": "ym2612"
    },
    {
      "channel": 1,
      "note": 53,
      "start": 38.2675,
      "duration": 0.8692,
      "velocity": 121,
      "chip": "ym2612"
    },
    {
      "channel": 2,
      "note": 54,
      "start": 38.2698,
      "duration": 0.0142,
      "velocity": 127,
      "chip": "ym2612"
    },
    {
      "channel": 3,
      "note": 65,
      "start": 38.2716,
      "duration": 0.0695,
      "velocity": 105,
      "chip": "ym2612"
    },
    {
      "channel": 4,
      "note": 53,
      "start": 38.2732,
      "duration": 0.8646,
      "velocity": 117,
      "chip": "ym2612"
    },
    {
      "channel": 5,
      "note": 69,
      "start": 38.275,
      "duration": 0.0664,
      "velocity": 105,
      "chip": "ym2612"
    },
    {
      "channel": 0,
      "note": 57,
      "start": 38.3797,
      "duration": 0.0742,
      "velocity": 94,
      "chip": "ym2612"
    },
    {
      "channel": 2,
      "note": 42,
      "start": 38.3818,
      "duration": 0.016,
      "velocity": 127,
      "chip": "ym2612"
    },
    {
      "channel": 3,
      "note": 69,
      "start": 38.3835,
      "duration": 0.0714,
      "velocity": 105,
      "chip": "ym2612"
    },
    {
      "channel": 5,
      "note": 72,
      "start": 38.3853,
      "duration": 0.0699,
      "velocity": 105,
      "chip": "ym2612"
    },
    {
      "channel": 0,
      "note": 65,
      "start": 38.4934,
      "duration": 0.0744,
      "velocity": 94,
      "chip": "ym2612"
    },
    {
      "channel": 2,
      "note": 66,
      "start": 38.4956,
      "duration": 0.016,
      "velocity": 127,
      "chip": "ym2612"
    },
    {
      "channel": 3,
      "note": 72,
      "start": 38.4972,
      "duration": 0.0714,
      "velocity": 105,
      "chip": "ym2612"
    },
    {
      "channel": 5,
      "note": 77,
      "start": 38.499,
      "duration": 0.07,
      "velocity": 105,
      "chip": "ym2612"
    },
    {
      "channel": 0,
      "note": 57,
      "start": 38.6072,
      "duration": 0.0743,
      "velocity": 94,
      "chip": "ym2612"
    },
    {
      "channel": 2,
      "note": 42,
      "start": 38.6094,
      "duration": 0.016,
      "velocity": 127,
      "chip": "ym2612"
    },
    {
      "channel": 3,
      "note": 65,
      "start": 38.6112,
      "duration": 0.0711,
      "velocity": 105,
      "chip": "ym2612"
    },
    {
      "channel": 5,
      "note": 69,
      "start": 38.6131,
      "duration": 0.0695,
      "velocity": 105,
      "chip": "ym2612"
    },
    {
      "channel": 0,
      "note": 57,
      "start": 38.7209,
      "duration": 0.0743,
      "velocity": 94,
      "chip": "ym2612"
    },
    {
      "channel": 2,
      "note": 54,
      "start": 38.7233,
      "duration": 0.0158,
      "velocity": 127,
      "chip": "ym2612"
    },
    {
      "channel": 3,
      "note": 69,
      "start": 38.7249,
      "duration": 0.0712,
      "velocity": 105,
      "chip": "ym2612"
    },
    {
      "channel": 5,
      "note": 72,
      "start": 38.7267,
      "duration": 0.0698,
      "velocity": 105,
      "chip": "ym2612"
    },
    {
      "channel": 0,
      "note": 57,
      "start": 38.8348,
      "duration": 0.0742,
      "velocity": 94,
      "chip": "ym2612"
    },
    {
      "channel": 2,
      "note": 42,
      "start": 38.837,
      "duration": 0.016,
      "velocity": 127,
      "chip": "ym2612"
    },
    {
      "channel": 3,
      "note": 72,
      "start": 38.8386,
      "duration": 0.0712,
      "velocity": 105,
      "chip": "ym2612"
    },
    {
      "channel": 5,
      "note": 77,
      "start": 38.8404,
      "duration": 0.0698,
      "velocity": 105,
      "chip": "ym2612"
    },
    {
      "channel": 0,
      "note": 57,
      "start": 38.9485,
      "duration": 0.0743,
      "velocity": 94,
      "chip": "ym2612"
    },
    {
      "channel": 2,
      "note": 66,
      "start": 38.9507,
      "duration": 0.016,
      "velocity": 127,
      "chip": "ym2612"
    },
    {
      "channel": 3,
      "note": 65,
      "start": 38.9525,
      "duration": 0.0712,
      "velocity": 105,
      "chip": "ym2612"
    },
    {
      "channel": 5,
      "note": 69,
      "start": 38.9543,
      "duration": 0.0697,
      "velocity": 105,
      "chip": "ym2612"
    },
    {
      "channel": 0,
      "note": 57,
      "start": 39.0622,
      "duration": 0.0743,
      "velocity": 94,
      "chip": "ym2612"
    },
    {
      "channel": 2,
      "note": 42,
      "start": 39.0644,
      "duration": 0.016,
      "velocity": 127,
      "chip": "ym2612"
    },
    {
      "channel": 3,
      "note": 69,
      "start": 39.066,
      "duration": 0.0715,
      "velocity": 105,
      "chip": "ym2612"
    },
    {
      "channel": 5,
      "note": 72,
      "start": 39.0678,
      "duration": 0.0701,
      "velocity": 105,
      "chip": "ym2612"
    },
    {
      "channel": 0,
      "note": 57,
      "start": 39.176,
      "duration": 0.0743,
      "velocity": 94,
      "chip": "ym2612"
    },
    {
      "channel": 1,
      "note": 52,
      "start": 39.1776,
      "duration": 0.8692,
      "velocity": 121,
      "chip": "ym2612"
    },
    {
      "channel": 2,
      "note": 54,
      "start": 39.1798,
      "duration": 0.0144,
      "velocity": 127,
      "chip": "ym2612"
    },
    {
      "channel": 3,
      "note": 64,
      "start": 39.1816,
      "duration": 0.0695,
      "velocity": 105,
      "chip": "ym2612"
    },
    {
      "channel": 4,
      "note": 52,
      "start": 39.1832,
      "duration": 0.8646,
      "velocity": 117,
      "chip": "ym2612"
    },
    {
      "channel": 5,
      "note": 68,
      "start": 39.1851,
      "duration": 0.0664,
      "velocity": 105,
      "chip": "ym2612"
    },
    {
      "channel": 0,
      "note": 57,
      "start": 39.2898,
      "duration": 0.0743,
      "velocity": 94,
      "chip": "ym2612"
    },
    {
      "channel": 2,
      "note": 42,
      "start": 39.2919,
      "duration": 0.016,
      "velocity": 127,
      "chip": "ym2612"
    },
    {
      "channel": 3,
      "note": 68,
      "start": 39.2936,
      "duration": 0.0713,
      "velocity": 105,
      "chip": "ym2612"
    },
    {
      "channel": 5,
      "note": 71,
      "start": 39.2953,
      "duration": 0.0699,
      "velocity": 105,
      "chip": "ym2612"
    },
    {
      "channel": 0,
      "note": 64,
      "start": 39.4035,
      "duration": 0.0743,
      "velocity": 94,
      "chip": "ym2612"
    },
    {
      "channel": 2,
      "note": 66,
      "start": 39.4057,
      "duration": 0.016,
      "velocity": 127,
      "chip": "ym2612"
    },
    {
      "channel": 3,
      "note": 71,
      "start": 39.4073,
      "duration": 0.0714,
      "velocity": 105,
      "chip": "ym2612"
    },
    {
      "channel": 5,
      "note": 76,
      "start": 39.4091,
      "duration": 0.0699,
      "velocity": 105,
      "chip": "ym2612"
    },
    {
      "channel": 0,
      "note": 57,
      "start": 39.5173,
      "duration": 0.0742,
      "velocity": 94,
      "chip": "ym2612"
    },
    {
      "channel": 2,
      "note": 42,
      "start": 39.5195,
      "duration": 0.016,
      "velocity": 127,
      "chip": "ym2612"
    },
    {
      "channel": 3,
      "note": 64,
      "start": 39.5213,
      "duration": 0.0711,
      "velocity": 105,
      "chip": "ym2612"
    },
    {
      "channel": 5,
      "note": 68,
      "start": 39.5232,
      "duration": 0.0695,
      "velocity": 105,
      "chip": "ym2612"
    },
    {
      "channel": 0,
      "note": 57,
      "start": 39.6311,
      "duration": 0.0743,
      "velocity": 94,
      "chip": "ym2612"
    },
    {
      "channel": 2,
      "note": 54,
      "start": 39.6333,
      "duration": 0.0159,
      "velocity": 127,
      "chip": "ym2612"
    },
    {
      "channel": 3,
      "note": 68,
      "start": 39.6349,
      "duration": 0.0712,
      "velocity": 105,
      "chip": "ym2612"
    },
    {
      "channel": 5,
      "note": 71,
      "start": 39.6368,
      "duration": 0.0698,
      "velocity": 105,
      "chip": "ym2612"
    },
    {
      "channel": 0,
      "note": 57,
      "start": 39.7448,
      "duration": 0.0743,
      "velocity": 94,
      "chip": "ym2612"
    },
    {
      "channel": 2,
      "note": 66,
      "start": 39.747,
      "duration": 0.016,
      "velocity": 127,
      "chip": "ym2612"
    },
    {
      "channel": 3,
      "note": 71,
      "start": 39.7486,
      "duration": 0.0714,
      "velocity": 105,
      "chip": "ym2612"
    },
    {
      "channel": 5,
      "note": 76,
      "start": 39.7504,
      "duration": 0.0699,
      "velocity": 105,
      "chip": "ym2612"
    },
    {
      "channel": 0,
      "note": 57,
      "start": 39.8586,
      "duration": 0.0743,
      "velocity": 94,
      "chip": "ym2612"
    },
    {
      "channel": 2,
      "note": 54,
      "start": 39.8608,
      "duration": 0.016,
      "velocity": 127,
      "chip": "ym2612"
    },
    {
      "channel": 3,
      "note": 64,
      "start": 39.8625,
      "duration": 0.0712,
      "velocity": 105,
      "chip": "ym2612"
    },
    {
      "channel": 5,
      "note": 68,
      "start": 39.8644,
      "duration": 0.0697,
      "velocity": 105,
      "chip": "ym2612"
    },
    {
      "channel": 0,
      "note": 57,
      "start": 39.9723,
      "duration": 0.0743,
      "velocity": 94,
      "chip": "ym2612"
    },
    {
      "channel": 2,
      "note": 66,
      "start": 39.9745,
      "duration": 0.016,
      "velocity": 127,
      "chip": "ym2612"
    },
    {
      "channel": 3,
      "note": 68,
      "start": 39.9762,
      "duration": 0.0714,
      "velocity": 105,
      "chip": "ym2612"
    },
    {
      "channel": 5,
      "note": 71,
      "start": 39.9779,
      "duration": 0.0701,
      "velocity": 105,
      "chip": "ym2612"
    },
    {
      "channel": 0,
      "note": 57,
      "start": 40.0864,
      "duration": 0.074,
      "velocity": 94,
      "chip": "ym2612"
    },
    {
      "channel": 1,
      "note": 57,
      "start": 40.0883,
      "duration": 0.8686,
      "velocity": 121,
      "chip": "ym2612"
    },
    {
      "channel": 2,
      "note": 54,
      "start": 40.0909,
      "duration": 0.0134,
      "velocity": 127,
      "chip": "ym2612"
    },
    {
      "channel": 3,
      "note": 69,
      "start": 40.0925,
      "duration": 0.0688,
      "velocity": 105,
      "chip": "ym2612"
    },
    {
      "channel": 4,
      "note": 57,
      "start": 40.0944,
      "duration": 0.8635,
      "velocity": 117,
      "chip": "ym2612"
    },
    {
      "channel": 5,
      "note": 72,
      "start": 40.0961,
      "duration": 0.0655,
      "velocity": 105,
      "chip": "ym2612"
    },
    {
      "channel": 0,
      "note": 57,
      "start": 40.1997,
      "duration": 0.0745,
      "velocity": 94,
      "chip": "ym2612"
    },
    {
      "channel": 2,
      "note": 42,
      "start": 40.2019,
      "duration": 0.0161,
      "velocity": 127,
      "chip": "ym2612"
    },
    {
      "channel": 3,
      "note": 72,
      "start": 40.2036,
      "duration": 0.0714,
      "velocity": 105,
      "chip": "ym2612"
    },
    {
      "channel": 5,
      "note": 76,
      "start": 40.2054,
      "duration": 0.07,
      "velocity": 105,
      "chip": "ym2612"
    },
    {
      "channel": 0,
      "note": 69,
      "start": 40.3134,
      "duration": 0.0745,
      "velocity": 94,
      "chip": "ym2612"
    },
    {
      "channel": 2,
      "note": 66,
      "start": 40.3156,
      "duration": 0.0161,
      "velocity": 127,
      "chip": "ym2612"
    },
    {
      "channel": 3,
      "note": 76,
      "start": 40.3173,
      "duration": 0.0715,
      "velocity": 105,
      "chip": "ym2612"
    },
    {
      "channel": 5,
      "note": 81,
      "start": 40.319,
      "duration": 0.0701,
      "velocity": 105,
      "chip": "ym2612"
    },
    {
      "channel": 0,
      "note": 57,
      "start": 40.4274,
      "duration": 0.0742,
      "velocity": 94,
      "chip": "ym2612"
    },
    {
      "channel": 2,
      "note": 42,
      "start": 40.4295,
      "duration": 0.016,
      "velocity": 127,
      "chip": "ym2612"
    },
    {
      "channel": 3,
      "note": 81,
      "start": 40.4312,
      "duration": 0.0713,
      "velocity": 105,
      "chip": "ym2612"
    },
    {
      "channel": 5,
      "note": 84,
      "start": 40.433,
      "duration": 0.0699,
      "velocity": 105,
      "chip": "ym2612"
    },
    {
      "channel": 0,
      "note": 57,
      "start": 40.5411,
      "duration": 0.0743,
      "velocity": 94,
      "chip": "ym2612"
    },
    {
      "channel": 2,
      "note": 54,
      "start": 40.5435,
      "duration": 0.0158,
      "velocity": 127,
      "chip": "ym2612"
    },
    {
      "channel": 3,
      "note": 84,
      "start": 40.5451,
      "duration": 0.0712,
      "velocity": 105,
      "chip": "ym2612"
    },
    {
      "channel": 5,
      "note": 88,
      "start": 40.5469,
      "duration": 0.0697,
      "velocity": 105,
      "chip": "ym2612"
    },
    {
      "channel": 0,
      "note": 57,
      "start": 40.6549,
      "duration": 0.0743,
      "velocity": 94,
      "chip": "ym2612"
    },
    {
      "channel": 2,
      "note": 42,
      "start": 40.657,
      "duration": 0.016,
      "velocity": 127,
      "chip": "ym2612"
    },
    {
      "channel": 3,
      "note": 81,
      "start": 40.6587,
      "duration": 0.0714,
      "velocity": 105,
      "chip": "ym2612"
    },
    {
      "channel": 5,
      "note": 84,
      "start": 40.6605,
      "duration": 0.0699,
      "velocity": 105,
      "chip": "ym2612"
    },
    {
      "channel": 0,
      "note": 57,
      "start": 40.7687,
      "duration": 0.0742,
      "velocity": 94,
      "chip": "ym2612"
    },
    {
      "channel": 2,
      "note": 66,
      "start": 40.7709,
      "duration": 0.016,
      "velocity": 127,
      "chip": "ym2612"
    },
    {
      "channel": 3,
      "note": 76,
      "start": 40.7725,
      "duration": 0.0713,
      "velocity": 105,
      "chip": "ym2612"
    },
    {
      "channel": 5,
      "note": 81,
      "start": 40.7743,
      "duration": 0.0698,
      "velocity": 105,
      "chip": "ym2612"
    },
    {
      "channel": 0,
      "note": 57,
      "start": 40.8824,
      "duration": 0.0742,
      "velocity": 94,
      "chip": "ym2612"
    },
    {
      "channel": 2,
      "note": 42,
      "start": 40.8846,
      "duration": 0.016,
      "velocity": 127,
      "chip": "ym2612"
    },
    {
      "channel": 3,
      "note": 72,
      "start": 40.8863,
      "duration": 0.0714,
      "velocity": 105,
      "chip": "ym2612"
    },
    {
      "channel": 5,
      "note": 76,
      "start": 40.888,
      "duration": 0.07,
      "velocity": 105,
      "chip": "ym2612"
    },
    {
      "channel": 0,
      "note": 57,
      "start": 40.9962,
      "duration": 0.0743,
      "velocity": 94,
      "chip": "ym2612"
    },
    {
      "channel": 1,
      "note": 55,
      "start": 40.9978,
      "duration": 0.8692,
      "velocity": 121,
      "chip": "ym2612"
    },
    {
      "channel": 2,
      "note": 54,
      "start": 41.0,
      "duration": 0.0144,
      "velocity": 127,
      "chip": "ym2612"
    },
    {
      "channel": 3,
      "note": 67,
      "start": 41.0016,
      "duration": 0.0697,
      "velocity": 105,
      "chip": "ym2612"
    },
    {
      "channel": 4,
      "note": 55,
      "start": 41.0033,
      "duration": 0.8647,
      "velocity": 117,
      "chip": "ym2612"
    },
    {
      "channel": 5,
      "note": 71,
      "start": 41.0049,
      "duration": 0.0667,
      "velocity": 105,
      "chip": "ym2612"
    },
    {
      "channel": 0,
      "note": 57,
      "start": 41.1099,
      "duration": 0.0743,
      "velocity": 94,
      "chip": "ym2612"
    },
    {
      "channel": 2,
      "note": 42,
      "start": 41.1121,
      "duration": 0.016,
      "velocity": 127,
      "chip": "ym2612"
    },
    {
      "channel": 3,
      "note": 71,
      "start": 41.1137,
      "duration": 0.0714,
      "velocity": 105,
      "chip": "ym2612"
    },
    {
      "channel": 5,
      "note": 74,
      "start": 41.1155,
      "duration": 0.0699,
      "velocity": 105,
      "chip": "ym2612"
    },
    {
      "channel": 0,
      "note": 67,
      "start": 41.2237,
      "duration": 0.0743,
      "velocity": 94,
      "chip": "ym2612"
    },
    {
      "channel": 2,
      "note": 66,
      "start": 41.2258,
      "duration": 0.0161,
      "velocity": 127,
      "chip": "ym2612"
    },
    {
      "channel": 3,
      "note": 74,
      "start": 41.2274,
      "duration": 0.0714,
      "velocity": 105,
      "chip": "ym2612"
    },
    {
      "channel": 5,
      "note": 79,
      "start": 41.2292,
      "duration": 0.07,
      "velocity": 105,
      "chip": "ym2612"
    },
    {
      "channel": 0,
      "note": 57,
      "start": 41.3375,
      "duration": 0.0742,
      "velocity": 94,
      "chip": "ym2612"
    },
    {
      "channel": 2,
      "note": 42,
      "start": 41.3396,
      "duration": 0.016,
      "velocity": 127,
      "chip": "ym2612"
    },
    {
      "channel": 3,
      "note": 79,
      "start": 41.3413,
      "duration": 0.0713,
      "velocity": 105,
      "chip": "ym2612"
    },
    {
      "channel": 5,
      "note": 83,
      "start": 41.3431,
      "duration": 0.0698,
      "velocity": 105,
      "chip": "ym2612"
    },
    {
      "channel": 0,
      "note": 57,
      "start": 41.4512,
      "duration": 0.0743,
      "velocity": 94,
      "chip": "ym2612"
    },
    {
      "channel": 2,
      "note": 54,
      "start": 41.4536,
      "duration": 0.0158,
      "velocity": 127,
      "chip": "ym2612"
    },
    {
      "channel": 3,
      "note": 83,
      "start": 41.4552,
      "duration": 0.0712,
      "velocity": 105,
      "chip": "ym2612"
    },
    {
      "channel": 5,
      "note": 86,
      "start": 41.457,
      "duration": 0.0697,
      "velocity": 105,
      "chip": "ym2612"
    },
    {
      "channel": 0,
      "note": 57,
      "start": 41.565,
      "duration": 0.0743,
      "velocity": 94,
      "chip": "ym2612"
    },
    {
      "channel": 2,
      "note": 42,
      "start": 41.5671,
      "duration": 0.016,
      "velocity": 127,
      "chip": "ym2612"
    },
    {
      "channel": 3,
      "note": 79,
      "start": 41.5688,
      "duration": 0.0713,
      "velocity": 105,
      "chip": "ym2612"
    },
    {
      "channel": 5,
      "note": 83,
      "start": 41.5706,
      "duration": 0.0699,
      "velocity": 105,
      "chip": "ym2612"
    },
    {
      "channel": 0,
      "note": 57,
      "start": 41.6788,
      "duration": 0.0743,
      "velocity": 94,
      "chip": "ym2612"
    },
    {
      "channel": 2,
      "note": 66,
      "start": 41.6809,
      "duration": 0.016,
      "velocity": 127,
      "chip": "ym2612"
    },
    {
      "channel": 3,
      "note": 74,
      "start": 41.6825,
      "duration": 0.0714,
      "velocity": 105,
      "chip": "ym2612"
    },
    {
      "channel": 5,
      "note": 79,
      "start": 41.6843,
      "duration": 0.0699,
      "velocity": 105,
      "chip": "ym2612"
    },
    {
      "channel": 0,
      "note": 57,
      "start": 41.7925,
      "duration": 0.0743,
      "velocity": 94,
      "chip": "ym2612"
    },
    {
      "channel": 2,
      "note": 42,
      "start": 41.7947,
      "duration": 0.016,
      "velocity": 127,
      "chip": "ym2612"
    },
    {
      "channel": 3,
      "note": 71,
      "start": 41.7963,
      "duration": 0.0714,
      "velocity": 105,
      "chip": "ym2612"
    },
    {
      "channel": 5,
      "note": 74,
      "start": 41.7981,
      "duration": 0.07,
      "velocity": 105,
      "chip": "ym2612"
    },
    {
      "channel": 0,
      "note": 57,
      "start": 41.9062,
      "duration": 0.0743,
      "velocity": 94,
      "chip": "ym2612"
    },
    {
      "channel": 1,
      "note": 53,
      "start": 41.9078,
      "duration": 0.8693,
      "velocity": 121,
      "chip": "ym2612"
    },
    {
      "channel": 2,
      "note": 54,
      "start": 41.9101,
      "duration": 0.0144,
      "velocity": 127,
      "chip": "ym2612"
    },
    {
      "channel": 3,
      "note": 65,
      "start": 41.9117,
      "duration": 0.0697,
      "velocity": 105,
      "chip": "ym2612"
    },
    {
      "channel": 4,
      "note": 53,
      "start": 41.9133,
      "duration": 0.8648,
      "velocity": 117,
      "chip": "ym2612"
    },
    {
      "channel": 5,
      "note": 69,
      "start": 41.915,
      "duration": 0.0668,
      "velocity": 105,
      "chip": "ym2612"
    },
    {
      "channel": 0,
      "note": 57,
      "start": 42.02,
      "duration": 0.0742,
      "velocity": 94,
      "chip": "ym2612"
    },
    {
      "channel": 2,
      "note": 42,
      "start": 42.0222,
      "duration": 0.016,
      "velocity": 127,
      "chip": "ym2612"
    },
    {
      "channel": 3,
      "note": 69,
      "start": 42.0239,
      "duration": 0.0713,
      "velocity": 105,
      "chip": "ym2612"
    },
    {
      "channel": 5,
      "note": 72,
      "start": 42.0256,
      "duration": 0.0698,
      "velocity": 105,
      "chip": "ym2612"
    },
    {
      "channel": 0,
      "note": 65,
      "start": 42.1337,
      "duration": 0.0744,
      "velocity": 94,
      "chip": "ym2612"
    },
    {
      "channel": 2,
      "note": 66,
      "start": 42.136,
      "duration": 0.016,
      "velocity": 127,
      "chip": "ym2612"
    },
    {
      "channel": 3,
      "note": 72,
      "start": 42.1376,
      "duration": 0.0714,
      "velocity": 105,
      "chip": "ym2612"
    },
    {
      "channel": 5,
      "note": 77,
      "start": 42.1393,
      "duration": 0.07,
      "velocity": 105,
      "chip": "ym2612"
    },
    {
      "channel": 0,
      "note": 57,
      "start": 42.2476,
      "duration": 0.0742,
      "velocity": 94,
      "chip": "ym2612"
    },
    {
      "channel": 2,
      "note": 42,
      "start": 42.2497,
      "duration": 0.016,
      "velocity": 127,
      "chip": "ym2612"
    },
    {
      "channel": 3,
      "note": 77,
      "start": 42.2513,
      "duration": 0.0714,
      "velocity": 105,
      "chip": "ym2612"
    },
    {
      "channel": 5,
      "note": 81,
      "start": 42.2532,
      "duration": 0.0698,
      "velocity": 105,
      "chip": "ym2612"
    },
    {
      "channel": 0,
      "note": 57,
      "start": 42.3613,
      "duration": 0.0744,
      "velocity": 94,
      "chip": "ym2612"
    },
    {
      "channel": 2,
      "note": 54,
      "start": 42.3636,
      "duration": 0.0158,
      "velocity": 127,
      "chip": "ym2612"
    },
    {
      "channel": 3,
      "note": 81,
      "start": 42.3653,
      "duration": 0.0712,
      "velocity": 105,
      "chip": "ym2612"
    },
    {
      "channel": 5,
      "note": 84,
      "start": 42.3671,
      "duration": 0.0698,
      "velocity": 105,
      "chip": "ym2612"
    },
    {
      "channel": 0,
      "note": 57,
      "start": 42.4751,
      "duration": 0.0743,
      "velocity": 94,
      "chip": "ym2612"
    },
    {
      "channel": 2,
      "note": 42,
      "start": 42.4772,
      "duration": 0.016,
      "velocity": 127,
      "chip": "ym2612"
    },
    {
      "channel": 3,
      "note": 77,
      "start": 42.4789,
      "duration": 0.0713,
      "velocity": 105,
      "chip": "ym2612"
    },
    {
      "channel": 5,
      "note": 81,
      "start": 42.4807,
      "duration": 0.0699,
      "velocity": 105,
      "chip": "ym2612"
    },
    {
      "channel": 0,
      "note": 57,
      "start": 42.5888,
      "duration": 0.0743,
      "velocity": 94,
      "chip": "ym2612"
    },
    {
      "channel": 2,
      "note": 66,
      "start": 42.591,
      "duration": 0.016,
      "velocity": 127,
      "chip": "ym2612"
    },
    {
      "channel": 3,
      "note": 72,
      "start": 42.5926,
      "duration": 0.0714,
      "velocity": 105,
      "chip": "ym2612"
    },
    {
      "channel": 5,
      "note": 77,
      "start": 42.5944,
      "duration": 0.0699,
      "velocity": 105,
      "chip": "ym2612"
    },
    {
      "channel": 0,
      "note": 57,
      "start": 42.7026,
      "duration": 0.0742,
      "velocity": 94,
      "chip": "ym2612"
    },
    {
      "channel": 2,
      "note": 42,
      "start": 42.7048,
      "duration": 0.016,
      "velocity": 127,
      "chip": "ym2612"
    },
    {
      "channel": 3,
      "note": 69,
      "start": 42.7064,
      "duration": 0.0714,
      "velocity": 105,
      "chip": "ym2612"
    },
    {
      "channel": 5,
      "note": 72,
      "start": 42.7082,
      "duration": 0.07,
      "velocity": 105,
      "chip": "ym2612"
    },
    {
      "channel": 0,
      "note": 57,
      "start": 42.8164,
      "duration": 0.0743,
      "velocity": 94,
      "chip": "ym2612"
    },
    {
      "channel": 1,
      "note": 52,
      "start": 42.818,
      "duration": 0.8692,
      "velocity": 121,
      "chip": "ym2612"
    },
    {
      "channel": 2,
      "note": 54,
      "start": 42.8202,
      "duration": 0.0142,
      "velocity": 127,
      "chip": "ym2612"
    },
    {
      "channel": 3,
      "note": 64,
      "start": 42.8219,
      "duration": 0.0696,
      "velocity": 105,
      "chip": "ym2612"
    },
    {
      "channel": 4,
      "note": 52,
      "start": 42.8235,
      "duration": 0.8647,
      "velocity": 117,
      "chip": "ym2612"
    },
    {
      "channel": 5,
      "note": 68,
      "start": 42.8251,
      "duration": 0.0667,
      "velocity": 105,
      "chip": "ym2612"
    },
    {
      "channel": 0,
      "note": 57,
      "start": 42.9301,
      "duration": 0.0743,
      "velocity": 94,
      "chip": "ym2612"
    },
    {
      "channel": 2,
      "note": 42,
      "start": 42.9323,
      "duration": 0.016,
      "velocity": 127,
      "chip": "ym2612"
    },
    {
      "channel": 3,
      "note": 68,
      "start": 42.9339,
      "duration": 0.0714,
      "velocity": 105,
      "chip": "ym2612"
    },
    {
      "channel": 5,
      "note": 71,
      "start": 42.9357,
      "duration": 0.0699,
      "velocity": 105,
      "chip": "ym2612"
    },
    {
      "channel": 0,
      "note": 64,
      "start": 43.0438,
      "duration": 0.0744,
      "velocity": 94,
      "chip": "ym2612"
    },
    {
      "channel": 2,
      "note": 66,
      "start": 43.046,
      "duration": 0.016,
      "velocity": 127,
      "chip": "ym2612"
    },
    {
      "channel": 3,
      "note": 71,
      "start": 43.0477,
      "duration": 0.0714,
      "velocity": 105,
      "chip": "ym2612"
    },
    {
      "channel": 5,
      "note": 74,
      "start": 43.0494,
      "duration": 0.07,
      "velocity": 105,
      "chip": "ym2612"
    },
    {
      "channel": 0,
      "note": 57,
      "start": 43.1576,
      "duration": 0.0743,
      "velocity": 94,
      "chip": "ym2612"
    },
    {
      "channel": 2,
      "note": 42,
      "start": 43.1598,
      "duration": 0.016,
      "velocity": 127,
      "chip": "ym2612"
    },
    {
      "channel": 3,
      "note": 74,
      "start": 43.1615,
      "duration": 0.0713,
      "velocity": 105,
      "chip": "ym2612"
    },
    {
      "channel": 5,
      "note": 76,
      "start": 43.1632,
      "duration": 0.0698,
      "velocity": 105,
      "chip": "ym2612"
    },
    {
      "channel": 0,
      "note": 57,
      "start": 43.2718,
      "duration": 0.0739,
      "velocity": 94,
      "chip": "ym2612"
    },
    {
      "channel": 2,
      "note": 54,
      "start": 43.2741,
      "duration": 0.0154,
      "velocity": 127,
      "chip": "ym2612"
    },
    {
      "channel": 3,
      "note": 76,
      "start": 43.2758,
      "duration": 0.0708,
      "velocity": 105,
      "chip": "ym2612"
    },
    {
      "channel": 5,
      "note": 80,
      "start": 43.2776,
      "duration": 0.0693,
      "velocity": 105,
      "chip": "ym2612"
    },
    {
      "channel": 0,
      "note": 57,
      "start": 43.3852,
      "duration": 0.0742,
      "velocity": 94,
      "chip": "ym2612"
    },
    {
      "channel": 2,
      "note": 66,
      "start": 43.3873,
      "duration": 0.016,
      "velocity": 127,
      "chip": "ym2612"
    },
    {
      "channel": 3,
      "note": 80,
      "start": 43.389,
      "duration": 0.0713,
      "velocity": 105,
      "chip": "ym2612"
    },
    {
      "channel": 5,
      "note": 83,
      "start": 43.3908,
      "duration": 0.0698,
      "velocity": 105,
      "chip": "ym2612"
    },
    {
      "channel": 0,
      "note": 57,
      "start": 43.4989,
      "duration": 0.0743,
      "velocity": 94,
      "chip": "ym2612"
    },
    {
      "channel": 2,
      "note": 54,
      "start": 43.5011,
      "duration": 0.0161,
      "velocity": 127,
      "chip": "ym2612"
    },
    {
      "channel": 3,
      "note": 83,
      "start": 43.5028,
      "duration": 0.0712,
      "velocity": 105,
      "chip": "ym2612"
    },
    {
      "channel": 5,
      "note": 88,
      "start": 43.5045,
      "duration": 0.0698,
      "velocity": 105,
      "chip": "ym2612"
    },
    {
      "channel": 0,
      "note": 57,
      "start": 43.6127,
      "duration": 0.0743,
      "velocity": 94,
      "chip": "ym2612"
    },
    {
      "channel": 2,
      "note": 66,
      "start": 43.6148,
      "duration": 0.016,
      "velocity": 127,
      "chip": "ym2612"
    },
    {
      "channel": 3,
      "note": 86,
      "start": 43.6165,
      "duration": 0.0715,
      "velocity": 105,
      "chip": "ym2612"
    },
    {
      "channel": 5,
      "note": 92,
      "start": 43.6183,
      "duration": 0.0701,
      "velocity": 105,
      "chip": "ym2612"
    },
    {
      "channel": 0,
      "note": 57,
      "start": 43.7268,
      "duration": 0.0739,
      "velocity": 94,
      "chip": "ym2612"
    },
    {
      "channel": 1,
      "note": 57,
      "start": 43.7288,
      "duration": 0.8685,
      "velocity": 121,
      "chip": "ym2612"
    },
    {
      "channel": 2,
      "note": 54,
      "start": 43.7312,
      "duration": 0.0134,
      "velocity": 127,
      "chip": "ym2612"
    },
    {
      "channel": 3,
      "note": 69,
      "start": 43.7331,
      "duration": 0.0685,
      "velocity": 105,
      "chip": "ym2612"
    },
    {
      "channel": 4,
      "note": 57,
      "start": 43.735,
      "duration": 0.8632,
      "velocity": 117,
      "chip": "ym2612"
    },
    {
      "channel": 5,
      "note": 72,
      "start": 43.7369,
      "duration": 0.065,
      "velocity": 105,
      "chip": "ym2612"
    },
    {
      "channel": 0,
      "note": 57,
      "start": 43.84,
      "duration": 0.0745,
      "velocity": 94,
      "chip": "ym2612"
    },
    {
      "channel": 2,
      "note": 42,
      "start": 43.8422,
      "duration": 0.0162,
      "velocity": 127,
      "chip": "ym2612"
    },
    {
      "channel": 3,
      "note": 72,
      "start": 43.8438,
      "duration": 0.0715,
      "velocity": 105,
      "chip": "ym2612"
    },
    {
      "channel": 5,
      "note": 76,
      "start": 43.8456,
      "duration": 0.07,
      "velocity": 105,
      "chip": "ym2612"
    },
    {
      "channel": 0,
      "note": 69,
      "start": 43.9538,
      "duration": 0.0744,
      "velocity": 94,
      "chip": "ym2612"
    },
    {
      "channel": 2,
      "note": 66,
      "start": 43.9559,
      "duration": 0.0162,
      "velocity": 127,
      "chip": "ym2612"
    },
    {
      "channel": 3,
      "note": 76,
      "start": 43.9576,
      "duration": 0.0715,
      "velocity": 105,
      "chip": "ym2612"
    },
    {
      "channel": 5,
      "note": 81,
      "start": 43.9594,
      "duration": 0.0701,
      "velocity": 105,
      "chip": "ym2612"
    },
    {
      "channel": 0,
      "note": 57,
      "start": 44.0677,
      "duration": 0.0744,
      "velocity": 94,
      "chip": "ym2612"
    },
    {
      "channel": 2,
      "note": 42,
      "start": 44.0699,
      "duration": 0.016,
      "velocity": 127,
      "chip": "ym2612"
    },
    {
      "channel": 3,
      "note": 69,
      "start": 44.0718,
      "duration": 0.0711,
      "velocity": 105,
      "chip": "ym2612"
    },
    {
      "channel": 5,
      "note": 72,
      "start": 44.0737,
      "duration": 0.0695,
      "velocity": 105,
      "chip": "ym2612"
    },
    {
      "channel": 0,
      "note": 57,
      "start": 44.1815,
      "duration": 0.0743,
      "velocity": 94,
      "chip": "ym2612"
    },
    {
      "channel": 2,
      "note": 54,
      "start": 44.1838,
      "duration": 0.0159,
      "velocity": 127,
      "chip": "ym2612"
    },
    {
      "channel": 3,
      "note": 72,
      "start": 44.1855,
      "duration": 0.0711,
      "velocity": 105,
      "chip": "ym2612"
    },
    {
      "channel": 5,
      "note": 76,
      "start": 44.1872,
      "duration": 0.0697,
      "velocity": 105,
      "chip": "ym2612"
    },
    {
      "channel": 0,
      "note": 57,
      "start": 44.2952,
      "duration": 0.0743,
      "velocity": 94,
      "chip": "ym2612"
    },
    {
      "channel": 2,
      "note": 42,
      "start": 44.2974,
      "duration": 0.016,
      "velocity": 127,
      "chip": "ym2612"
    },
    {
      "channel": 3,
      "note": 76,
      "start": 44.299,
      "duration": 0.0713,
      "velocity": 105,
      "chip": "ym2612"
    },
    {
      "channel": 5,
      "note": 81,
      "start": 44.3008,
      "duration": 0.0698,
      "velocity": 105,
      "chip": "ym2612"
    },
    {
      "channel": 0,
      "note": 57,
      "start": 44.409,
      "duration": 0.0743,
      "velocity": 94,
      "chip": "ym2612"
    },
    {
      "channel": 2,
      "note": 66,
      "start": 44.4111,
      "duration": 0.016,
      "velocity": 127,
      "chip": "ym2612"
    },
    {
      "channel": 3,
      "note": 69,
      "start": 44.4129,
      "duration": 0.0712,
      "velocity": 105,
      "chip": "ym2612"
    },
    {
      "channel": 5,
      "note": 72,
      "start": 44.4149,
      "duration": 0.0696,
      "velocity": 105,
      "chip": "ym2612"
    },
    {
      "channel": 0,
      "note": 57,
      "start": 44.5228,
      "duration": 0.0743,
      "velocity": 94,
      "chip": "ym2612"
    },
    {
      "channel": 2,
      "note": 42,
      "start": 44.5249,
      "duration": 0.016,
      "velocity": 127,
      "chip": "ym2612"
    },
    {
      "channel": 3,
      "note": 72,
      "start": 44.5266,
      "duration": 0.0715,
      "velocity": 105,
      "chip": "ym2612"
    },
    {
      "channel": 5,
      "note": 76,
      "start": 44.5284,
      "duration": 0.07,
      "velocity": 105,
      "chip": "ym2612"
    },
    {
      "channel": 0,
      "note": 57,
      "start": 44.6366,
      "duration": 0.0742,
      "velocity": 94,
      "chip": "ym2612"
    },
    {
      "channel": 1,
      "note": 60,
      "start": 44.6383,
      "duration": 0.869,
      "velocity": 121,
      "chip": "ym2612"
    },
    {
      "channel": 2,
      "note": 54,
      "start": 44.6405,
      "duration": 0.0142,
      "velocity": 127,
      "chip": "ym2612"
    },
    {
      "channel": 3,
      "note": 76,
      "start": 44.6421,
      "duration": 0.0695,
      "velocity": 105,
      "chip": "ym2612"
    },
    {
      "channel": 4,
      "note": 60,
      "start": 44.6437,
      "duration": 0.8646,
      "velocity": 117,
      "chip": "ym2612"
    },
    {
      "channel": 5,
      "note": 81,
      "start": 44.6454,
      "duration": 0.0666,
      "velocity": 105,
      "chip": "ym2612"
    },
    {
      "channel": 0,
      "note": 57,
      "start": 44.7501,
      "duration": 0.0744,
      "velocity": 94,
      "chip": "ym2612"
    },
    {
      "channel": 2,
      "note": 42,
      "start": 44.7523,
      "duration": 0.0161,
      "velocity": 127,
      "chip": "ym2612"
    },
    {
      "channel": 3,
      "note": 69,
      "start": 44.7541,
      "duration": 0.0713,
      "velocity": 105,
      "chip": "ym2612"
    },
    {
      "channel": 5,
      "note": 72,
      "start": 44.7561,
      "duration": 0.0697,
      "velocity": 105,
      "chip": "ym2612"
    },
    {
      "channel": 0,
      "note": 69,
      "start": 44.8639,
      "duration": 0.0745,
      "velocity": 94,
      "chip": "ym2612"
    },
    {
      "channel": 2,
      "note": 66,
      "start": 44.866,
      "duration": 0.0162,
      "velocity": 127,
      "chip": "ym2612"
    },
    {
      "channel": 3,
      "note": 72,
      "start": 44.8677,
      "duration": 0.0715,
      "velocity": 105,
      "chip": "ym2612"
    },
    {
      "channel": 5,
      "note": 76,
      "start": 44.8695,
      "duration": 0.07,
      "velocity": 105,
      "chip": "ym2612"
    },
    {
      "channel": 0,
      "note": 57,
      "start": 44.9778,
      "duration": 0.0744,
      "velocity": 94,
      "chip": "ym2612"
    },
    {
      "channel": 2,
      "note": 42,
      "start": 44.98,
      "duration": 0.016,
      "velocity": 127,
      "chip": "ym2612"
    },
    {
      "channel": 3,
      "note": 76,
      "start": 44.9816,
      "duration": 0.0714,
      "velocity": 105,
      "chip": "ym2612"
    },
    {
      "channel": 5,
      "note": 81,
      "start": 44.9834,
      "duration": 0.0699,
      "velocity": 105,
      "chip": "ym2612"
    },
    {
      "channel": 0,
      "note": 57,
      "start": 45.0915,
      "duration": 0.0743,
      "velocity": 94,
      "chip": "ym2612"
    },
    {
      "channel": 2,
      "note": 54,
      "start": 45.0939,
      "duration": 0.0159,
      "velocity": 127,
      "chip": "ym2612"
    },
    {
      "channel": 3,
      "note": 69,
      "start": 45.0957,
      "duration": 0.071,
      "velocity": 105,
      "chip": "ym2612"
    },
    {
      "channel": 5,
      "note": 72,
      "start": 45.0976,
      "duration": 0.0695,
      "velocity": 105,
      "chip": "ym2612"
    },
    {
      "channel": 0,
      "note": 57,
      "start": 45.2054,
      "duration": 0.0742,
      "velocity": 94,
      "chip": "ym2612"
    },
    {
      "channel": 2,
      "note": 42,
      "start": 45.2075,
      "duration": 0.016,
      "velocity": 127,
      "chip": "ym2612"
    },
    {
      "channel": 3,
      "note": 72,
      "start": 45.2091,
      "duration": 0.0714,
      "velocity": 105,
      "chip": "ym2612"
    },
    {
      "channel": 5,
      "note": 76,
      "start": 45.2109,
      "duration": 0.0699,
      "velocity": 105,
      "chip": "ym2612"
    },
    {
      "channel": 0,
      "note": 57,
      "start": 45.3191,
      "duration": 0.0743,
      "velocity": 94,
      "chip": "ym2612"
    },
    {
      "channel": 2,
      "note": 66,
      "start": 45.3213,
      "duration": 0.016,
      "velocity": 127,
      "chip": "ym2612"
    },
    {
      "channel": 3,
      "note": 76,
      "start": 45.3229,
      "duration": 0.0713,
      "velocity": 105,
      "chip": "ym2612"
    },
    {
      "channel": 5,
      "note": 81,
      "start": 45.3247,
      "duration": 0.0698,
      "velocity": 105,
      "chip": "ym2612"
    },
    {
      "channel": 0,
      "note": 57,
      "start": 45.4328,
      "duration": 0.0743,
      "velocity": 94,
      "chip": "ym2612"
    },
    {
      "channel": 2,
      "note": 42,
      "start": 45.4351,
      "duration": 0.0159,
      "velocity": 127,
      "chip": "ym2612"
    },
    {
      "channel": 3,
      "note": 79,
      "start": 45.4369,
      "duration": 0.0712,
      "velocity": 105,
      "chip": "ym2612"
    },
    {
      "channel": 5,
      "note": 84,
      "start": 45.4388,
      "duration": 0.0697,
      "velocity": 105,
      "chip": "ym2612"
    },
    {
      "channel": 0,
      "note": 57,
      "start": 45.5467,
      "duration": 0.0742,
      "velocity": 94,
      "chip": "ym2612"
    },
    {
      "channel": 1,
      "note": 57,
      "start": 45.5483,
      "duration": 0.8691,
      "velocity": 121,
      "chip": "ym2612"
    },
    {
      "channel": 2,
      "note": 66,
      "start": 45.5507,
      "duration": 0.0141,
      "velocity": 127,
      "chip": "ym2612"
    },
    {
      "channel": 3,
      "note": 81,
      "start": 45.5524,
      "duration": 1.7758,
      "velocity": 105,
      "chip": "ym2612"
    },
    {
      "channel": 4,
      "note": 57,
      "start": 45.554,
      "duration": 0.8643,
      "velocity": 117,
      "chip": "ym2612"
    },
    {
      "channel": 5,
      "note": 84,
      "start": 45.5557,
      "duration": 1.8122,
      "velocity": 105,
      "chip": "ym2612"
    },
    {
      "channel": 0,
      "note": 57,
      "start": 45.6602,
      "duration": 0.0744,
      "velocity": 94,
      "chip": "ym2612"
    },
    {
      "channel": 2,
      "note": 66,
      "start": 45.6625,
      "duration": 0.016,
      "velocity": 127,
      "chip": "ym2612"
    },
    {
      "channel": 0,
      "note": 69,
      "start": 45.7744,
      "duration": 0.074,
      "velocity": 94,
      "chip": "ym2612"
    },
    {
      "channel": 2,
      "note": 66,
      "start": 45.7767,
      "duration": 0.0156,
      "velocity": 127,
      "chip": "ym2612"
    },
    {
      "channel": 0,
      "note": 57,
      "start": 45.8879,
      "duration": 0.0743,
      "velocity": 94,
      "chip": "ym2612"
    },
    {
      "channel": 2,
      "note": 66,
      "start": 45.8902,
      "duration": 0.0158,
      "velocity": 127,
      "chip": "ym2612"
    },
    {
      "channel": 0,
      "note": 57,
      "start": 46.0017,
      "duration": 0.0743,
      "velocity": 94,
      "chip": "ym2612"
    },
    {
      "channel": 2,
      "note": 66,
      "start": 46.004,
      "duration": 0.0158,
      "velocity": 127,
      "chip": "ym2612"
    },
    {
      "channel": 0,
      "note": 57,
      "start": 46.1154,
      "duration": 0.0743,
      "velocity": 94,
      "chip": "ym2612"
    },
    {
      "channel": 2,
      "note": 66,
      "start": 46.1178,
      "duration": 0.0158,
      "velocity": 127,
      "chip": "ym2612"
    },
    {
      "channel": 0,
      "note": 57,
      "start": 46.2291,
      "duration": 0.0743,
      "velocity": 94,
      "chip": "ym2612"
    },
    {
      "channel": 2,
      "note": 66,
      "start": 46.2315,
      "duration": 0.0159,
      "velocity": 127,
      "chip": "ym2612"
    },
    {
      "channel": 0,
      "note": 57,
      "start": 46.3429,
      "duration": 0.0743,
      "velocity": 94,
      "chip": "ym2612"
    },
    {
      "channel": 2,
      "note": 66,
      "start": 46.3453,
      "duration": 0.0158,
      "velocity": 127,
      "chip": "ym2612"
    },
    {
      "channel": 0,
      "note": 57,
      "start": 46.4568,
      "duration": 0.0742,
      "velocity": 94,
      "chip": "ym2612"
    },
    {
      "channel": 1,
      "note": 55,
      "start": 46.4584,
      "duration": 0.8691,
      "velocity": 121,
      "chip": "ym2612"
    },
    {
      "channel": 2,
      "note": 69,
      "start": 46.4608,
      "duration": 0.0141,
      "velocity": 127,
      "chip": "ym2612"
    },
    {
      "channel": 4,
      "note": 55,
      "start": 46.4641,
      "duration": 0.8644,
      "velocity": 117,
      "chip": "ym2612"
    },
    {
      "channel": 0,
      "note": 57,
      "start": 46.5704,
      "duration": 0.0744,
      "velocity": 94,
      "chip": "ym2612"
    },
    {
      "channel": 2,
      "note": 69,
      "start": 46.5725,
      "duration": 0.0161,
      "velocity": 127,
      "chip": "ym2612"
    },
    {
      "channel": 0,
      "note": 69,
      "start": 46.684,
      "duration": 0.0745,
      "velocity": 94,
      "chip": "ym2612"
    },
    {
      "channel": 2,
      "note": 68,
      "start": 46.6865,
      "duration": 0.0159,
      "velocity": 127,
      "chip": "ym2612"
    },
    {
      "channel": 0,
      "note": 67,
      "start": 46.7978,
      "duration": 0.0744,
      "velocity": 94,
      "chip": "ym2612"
    },
    {
      "channel": 2,
      "note": 68,
      "start": 46.8,
      "duration": 0.0161,
      "velocity": 127,
      "chip": "ym2612"
    },
    {
      "channel": 0,
      "note": 65,
      "start": 46.9116,
      "duration": 0.0744,
      "velocity": 94,
      "chip": "ym2612"
    },
    {
      "channel": 2,
      "note": 66,
      "start": 46.914,
      "duration": 0.0159,
      "velocity": 127,
      "chip": "ym2612"
    },
    {
      "channel": 0,
      "note": 64,
      "start": 47.0253,
      "duration": 0.0745,
      "velocity": 94,
      "chip": "ym2612"
    },
    {
      "channel": 2,
      "note": 66,
      "start": 47.0275,
      "duration": 0.0162,
      "velocity": 127,
      "chip": "ym2612"
    },
    {
      "channel": 0,
      "note": 62,
      "start": 47.1391,
      "duration": 0.0744,
      "velocity": 94,
      "chip": "ym2612"
    },
    {
      "channel": 2,
      "note": 64,
      "start": 47.1415,
      "duration": 0.0159,
      "velocity": 127,
      "chip": "ym2612"
    },
    {
      "channel": 0,
      "note": 60,
      "start": 47.2529,
      "duration": 0.0744,
      "velocity": 94,
      "chip": "ym2612"
    },
    {
      "channel": 2,
      "note": 64,
      "start": 47.2551,
      "duration": 0.0161,
      "velocity": 127,
      "chip": "ym2612"
    }
  ]
}