{
  "track_name": "03 - Mission 3",
  "duration_sec": 67.511,
  "sample_rate": 44100,
  "note_count": 4037,
  "unique_pitches": 95,
  "pitch_range": 96,
  "avg_note_duration": 0.0813,
  "reconstruction_stats": {
    "notes_reconstructed": 4037,
    "keyon_events": 4037,
    "keyoff_events": 1348,
    "orphan_keyons": 5,
    "unique_pitches": 95,
    "pitch_range": 96,
    "avg_duration_sec": 0.0813
  },
  "metadata": {
    "source": "T\\T2 - The Arcade Game\\03 - Mission 3.vgz"
  },
  "notes": [
    {
      "channel": 3,
      "note": 67,
      "start": 0.0,
      "duration": 0.1127,
      "velocity": 107,
      "chip": "ym2612"
    },
    {
      "channel": 3,
      "note": 67,
      "start": 0.1129,
      "duration": 0.0831,
      "velocity": 107,
      "chip": "ym2612"
    },
    {
      "channel": 3,
      "note": 67,
      "start": 0.1961,
      "duration": 0.0832,
      "velocity": 107,
      "chip": "ym2612"
    },
    {
      "channel": 3,
      "note": 67,
      "start": 0.2795,
      "duration": 0.1301,
      "velocity": 107,
      "chip": "ym2612"
    },
    {
      "channel": 3,
      "note": 67,
      "start": 0.4098,
      "duration": 0.1151,
      "velocity": 107,
      "chip": "ym2612"
    },
    {
      "channel": 3,
      "note": 67,
      "start": 0.5251,
      "duration": 0.0831,
      "velocity": 107,
      "chip": "ym2612"
    },
    {
      "channel": 3,
      "note": 67,
      "start": 0.6085,
      "duration": 0.0832,
      "velocity": 107,
      "chip": "ym2612"
    },
    {
      "channel": 3,
      "note": 67,
      "start": 0.6918,
      "duration": 0.1156,
      "velocity": 107,
      "chip": "ym2612"
    },
    {
      "channel": 0,
      "note": 38,
      "start": 0.8054,
      "duration": 0.1276,
      "velocity": 112,
      "chip": "ym2612"
    },
    {
      "channel": 3,
      "note": 67,
      "start": 0.8076,
      "duration": 0.1276,
      "velocity": 107,
      "chip": "ym2612"
    },
    {
      "channel": 0,
      "note": 41,
      "start": 0.9332,
      "duration": 0.126,
      "velocity": 112,
      "chip": "ym2612"
    },
    {
      "channel": 3,
      "note": 67,
      "start": 0.9354,
      "duration": 0.0625,
      "velocity": 107,
      "chip": "ym2612"
    },
    {
      "channel": 3,
      "note": 67,
      "start": 0.9981,
      "duration": 0.0633,
      "velocity": 107,
      "chip": "ym2612"
    },
    {
      "channel": 0,
      "note": 38,
      "start": 1.0594,
      "duration": 0.1133,
      "velocity": 112,
      "chip": "ym2612"
    },
    {
      "channel": 3,
      "note": 67,
      "start": 1.0616,
      "duration": 0.1133,
      "velocity": 107,
      "chip": "ym2612"
    },
    {
      "channel": 0,
      "note": 48,
      "start": 1.1728,
      "duration": 0.1315,
      "velocity": 112,
      "chip": "ym2612"
    },
    {
      "channel": 3,
      "note": 67,
      "start": 1.1751,
      "duration": 0.1314,
      "velocity": 107,
      "chip": "ym2612"
    },
    {
      "channel": 0,
      "note": 47,
      "start": 1.3044,
      "duration": 0.1498,
      "velocity": 112,
      "chip": "ym2612"
    },
    {
      "channel": 3,
      "note": 67,
      "start": 1.3066,
      "duration": 0.0827,
      "velocity": 107,
      "chip": "ym2612"
    },
    {
      "channel": 3,
      "note": 67,
      "start": 1.3895,
      "duration": 0.0671,
      "velocity": 107,
      "chip": "ym2612"
    },
    {
      "channel": 0,
      "note": 41,
      "start": 1.4544,
      "duration": 0.1312,
      "velocity": 121,
      "chip": "ym2612"
    },
    {
      "channel": 3,
      "note": 67,
      "start": 1.4567,
      "duration": 0.1353,
      "velocity": 107,
      "chip": "ym2612"
    },
    {
      "channel": 0,
      "note": 55,
      "start": 1.5858,
      "duration": 2.4068,
      "velocity": 121,
      "chip": "ym2612"
    },
    {
      "channel": 1,
      "note": 43,
      "start": 1.588,
      "duration": 2.4052,
      "velocity": 112,
      "chip": "ym2612"
    },
    {
      "channel": 2,
      "note": 55,
      "start": 1.5901,
      "duration": 2.4053,
      "velocity": 109,
      "chip": "ym2612"
    },
    {
      "channel": 3,
      "note": 67,
      "start": 1.5922,
      "duration": 0.1236,
      "velocity": 107,
      "chip": "ym2612"
    },
    {
      "channel": 3,
      "note": 67,
      "start": 1.716,
      "duration": 0.0665,
      "velocity": 107,
      "chip": "ym2612"
    },
    {
      "channel": 3,
      "note": 67,
      "start": 1.7827,
      "duration": 0.0832,
      "velocity": 107,
      "chip": "ym2612"
    },
    {
      "channel": 3,
      "note": 67,
      "start": 1.866,
      "duration": 0.129,
      "velocity": 107,
      "chip": "ym2612"
    },
    {
      "channel": 3,
      "note": 67,
      "start": 1.9952,
      "duration": 0.1152,
      "velocity": 107,
      "chip": "ym2612"
    },
    {
      "channel": 3,
      "note": 67,
      "start": 2.1106,
      "duration": 0.0831,
      "velocity": 107,
      "chip": "ym2612"
    },
    {
      "channel": 3,
      "note": 67,
      "start": 2.1939,
      "duration": 0.0831,
      "velocity": 107,
      "chip": "ym2612"
    },
    {
      "channel": 3,
      "note": 67,
      "start": 2.2773,
      "duration": 0.1309,
      "velocity": 107,
      "chip": "ym2612"
    },
    {
      "channel": 3,
      "note": 67,
      "start": 2.4084,
      "duration": 0.1126,
      "velocity": 107,
      "chip": "ym2612"
    },
    {
      "channel": 3,
      "note": 67,
      "start": 2.5212,
      "duration": 0.0631,
      "velocity": 107,
      "chip": "ym2612"
    },
    {
      "channel": 3,
      "note": 67,
      "start": 2.5844,
      "duration": 0.063,
      "velocity": 107,
      "chip": "ym2612"
    },
    {
      "channel": 3,
      "note": 67,
      "start": 2.6477,
      "duration": 0.1131,
      "velocity": 107,
      "chip": "ym2612"
    },
    {
      "channel": 3,
      "note": 67,
      "start": 2.761,
      "duration": 0.1313,
      "velocity": 107,
      "chip": "ym2612"
    },
    {
      "channel": 3,
      "note": 67,
      "start": 2.8925,
      "duration": 0.0831,
      "velocity": 107,
      "chip": "ym2612"
    },
    {
      "channel": 3,
      "note": 67,
      "start": 2.9758,
      "duration": 0.0832,
      "velocity": 107,
      "chip": "ym2612"
    },
    {
      "channel": 3,
      "note": 67,
      "start": 3.0592,
      "duration": 0.1127,
      "velocity": 107,
      "chip": "ym2612"
    },
    {
      "channel": 3,
      "note": 67,
      "start": 3.1722,
      "duration": 0.1297,
      "velocity": 107,
      "chip": "ym2612"
    },
    {
      "channel": 3,
      "note": 67,
      "start": 3.3021,
      "duration": 0.0831,
      "velocity": 107,
      "chip": "ym2612"
    },
    {
      "channel": 3,
      "note": 67,
      "start": 3.3854,
      "duration": 0.0665,
      "velocity": 107,
      "chip": "ym2612"
    },
    {
      "channel": 3,
      "note": 67,
      "start": 3.4521,
      "duration": 0.1296,
      "velocity": 107,
      "chip": "ym2612"
    },
    {
      "channel": 3,
      "note": 67,
      "start": 3.5819,
      "duration": 0.1329,
      "velocity": 107,
      "chip": "ym2612"
    },
    {
      "channel": 3,
      "note": 67,
      "start": 3.7149,
      "duration": 0.0665,
      "velocity": 107,
      "chip": "ym2612"
    },
    {
      "channel": 3,
      "note": 67,
      "start": 3.7816,
      "duration": 0.0832,
      "velocity": 107,
      "chip": "ym2612"
    },
    {
      "channel": 3,
      "note": 67,
      "start": 3.8649,
      "duration": 0.1325,
      "velocity": 107,
      "chip": "ym2612"
    },
    {
      "channel": 0,
      "note": 63,
      "start": 3.9928,
      "duration": 0.1138,
      "velocity": 121,
      "chip": "ym2612"
    },
    {
      "channel": 1,
      "note": 51,
      "start": 3.9933,
      "duration": 0.1139,
      "velocity": 112,
      "chip": "ym2612"
    },
    {
      "channel": 2,
      "note": 74,
      "start": 3.9956,
      "duration": 0.0029,
      "velocity": 109,
      "chip": "ym2612"
    },
    {
      "channel": 3,
      "note": 67,
      "start": 3.9976,
      "duration": 0.1122,
      "velocity": 107,
      "chip": "ym2612"
    },
    {
      "channel": 2,
      "note": 73,
      "start": 3.9985,
      "duration": 0.0076,
      "velocity": 109,
      "chip": "ym2612"
    },
    {
      "channel": 2,
      "note": 72,
      "start": 4.0061,
      "duration": 0.0124,
      "velocity": 109,
      "chip": "ym2612"
    },
    {
      "channel": 2,
      "note": 70,
      "start": 4.0185,
      "duration": 0.0124,
      "velocity": 109,
      "chip": "ym2612"
    },
    {
      "channel": 2,
      "note": 69,
      "start": 4.0309,
      "duration": 0.0378,
      "velocity": 109,
      "chip": "ym2612"
    },
    {
      "channel": 2,
      "note": 68,
      "start": 4.0686,
      "duration": 0.0126,
      "velocity": 109,
      "chip": "ym2612"
    },
    {
      "channel": 2,
      "note": 67,
      "start": 4.0812,
      "duration": 0.0123,
      "velocity": 109,
      "chip": "ym2612"
    },
    {
      "channel": 2,
      "note": 66,
      "start": 4.0935,
      "duration": 0.0143,
      "velocity": 109,
      "chip": "ym2612"
    },
    {
      "channel": 0,
      "note": 62,
      "start": 4.1068,
      "duration": 0.127,
      "velocity": 121,
      "chip": "ym2612"
    },
    {
      "channel": 1,
      "note": 50,
      "start": 4.1073,
      "duration": 0.1271,
      "velocity": 112,
      "chip": "ym2612"
    },
    {
      "channel": 2,
      "note": 74,
      "start": 4.1079,
      "duration": 0.003,
      "velocity": 109,
      "chip": "ym2612"
    },
    {
      "channel": 3,
      "note": 67,
      "start": 4.1101,
      "duration": 0.0622,
      "velocity": 107,
      "chip": "ym2612"
    },
    {
      "channel": 2,
      "note": 73,
      "start": 4.1109,
      "duration": 0.0213,
      "velocity": 109,
      "chip": "ym2612"
    },
    {
      "channel": 2,
      "note": 72,
      "start": 4.1322,
      "duration": 0.0124,
      "velocity": 109,
      "chip": "ym2612"
    },
    {
      "channel": 2,
      "note": 70,
      "start": 4.1446,
      "duration": 0.0125,
      "velocity": 109,
      "chip": "ym2612"
    },
    {
      "channel": 2,
      "note": 69,
      "start": 4.1571,
      "duration": 0.0131,
      "velocity": 109,
      "chip": "ym2612"
    },
    {
      "channel": 2,
      "note": 74,
      "start": 4.1704,
      "duration": 0.0029,
      "velocity": 109,
      "chip": "ym2612"
    },
    {
      "channel": 3,
      "note": 67,
      "start": 4.1725,
      "duration": 0.0646,
      "velocity": 107,
      "chip": "ym2612"
    },
    {
      "channel": 2,
      "note": 73,
      "start": 4.1733,
      "duration": 0.0098,
      "velocity": 109,
      "chip": "ym2612"
    },
    {
      "channel": 2,
      "note": 72,
      "start": 4.183,
      "duration": 0.025,
      "velocity": 109,
      "chip": "ym2612"
    },
    {
      "channel": 2,
      "note": 70,
      "start": 4.208,
      "duration": 0.0124,
      "velocity": 109,
      "chip": "ym2612"
    },
    {
      "channel": 2,
      "note": 69,
      "start": 4.2204,
      "duration": 0.0146,
      "velocity": 109,
      "chip": "ym2612"
    },
    {
      "channel": 0,
      "note": 58,
      "start": 4.234,
      "duration": 0.1288,
      "velocity": 121,
      "chip": "ym2612"
    },
    {
      "channel": 1,
      "note": 46,
      "start": 4.2346,
      "duration": 0.1288,
      "velocity": 112,
      "chip": "ym2612"
    },
    {
      "channel": 2,
      "note": 74,
      "start": 4.2351,
      "duration": 0.003,
      "velocity": 109,
      "chip": "ym2612"
    },
    {
      "channel": 3,
      "note": 67,
      "start": 4.2373,
      "duration": 0.1288,
      "velocity": 107,
      "chip": "ym2612"
    },
    {
      "channel": 2,
      "note": 73,
      "start": 4.2381,
      "duration": 0.0088,
      "velocity": 109,
      "chip": "ym2612"
    },
    {
      "channel": 2,
      "note": 72,
      "start": 4.2469,
      "duration": 0.0125,
      "velocity": 109,
      "chip": "ym2612"
    },
    {
      "channel": 2,
      "note": 70,
      "start": 4.2595,
      "duration": 0.0248,
      "velocity": 109,
      "chip": "ym2612"
    },
    {
      "channel": 2,
      "note": 69,
      "start": 4.2842,
      "duration": 0.0248,
      "velocity": 109,
      "chip": "ym2612"
    },
    {
      "channel": 2,
      "note": 68,
      "start": 4.309,
      "duration": 0.0125,
      "velocity": 109,
      "chip": "ym2612"
    },
    {
      "channel": 2,
      "note": 67,
      "start": 4.3215,
      "duration": 0.0124,
      "velocity": 109,
      "chip": "ym2612"
    },
    {
      "channel": 2,
      "note": 66,
      "start": 4.3339,
      "duration": 0.03,
      "velocity": 109,
      "chip": "ym2612"
    },
    {
      "channel": 0,
      "note": 63,
      "start": 4.363,
      "duration": 0.1145,
      "velocity": 121,
      "chip": "ym2612"
    },
    {
      "channel": 1,
      "note": 51,
      "start": 4.3635,
      "duration": 0.1145,
      "velocity": 112,
      "chip": "ym2612"
    },
    {
      "channel": 2,
      "note": 69,
      "start": 4.3641,
      "duration": 0.003,
      "velocity": 109,
      "chip": "ym2612"
    },
    {
      "channel": 3,
      "note": 67,
      "start": 4.3663,
      "duration": 0.1145,
      "velocity": 107,
      "chip": "ym2612"
    },
    {
      "channel": 2,
      "note": 68,
      "start": 4.3671,
      "duration": 0.0087,
      "velocity": 109,
      "chip": "ym2612"
    },
    {
      "channel": 2,
      "note": 67,
      "start": 4.3758,
      "duration": 0.0125,
      "velocity": 109,
      "chip": "ym2612"
    },
    {
      "channel": 2,
      "note": 66,
      "start": 4.3883,
      "duration": 0.0123,
      "velocity": 109,
      "chip": "ym2612"
    },
    {
      "channel": 2,
      "note": 65,
      "start": 4.4006,
      "duration": 0.0375,
      "velocity": 109,
      "chip": "ym2612"
    },
    {
      "channel": 2,
      "note": 64,
      "start": 4.4381,
      "duration": 0.0124,
      "velocity": 109,
      "chip": "ym2612"
    },
    {
      "channel": 2,
      "note": 63,
      "start": 4.4506,
      "duration": 0.0124,
      "velocity": 109,
      "chip": "ym2612"
    },
    {
      "channel": 2,
      "note": 62,
      "start": 4.463,
      "duration": 0.0156,
      "velocity": 109,
      "chip": "ym2612"
    },
    {
      "channel": 0,
      "note": 62,
      "start": 4.4777,
      "duration": 0.1316,
      "velocity": 121,
      "chip": "ym2612"
    },
    {
      "channel": 1,
      "note": 50,
      "start": 4.4782,
      "duration": 0.1316,
      "velocity": 112,
      "chip": "ym2612"
    },
    {
      "channel": 2,
      "note": 69,
      "start": 4.4788,
      "duration": 0.0029,
      "velocity": 109,
      "chip": "ym2612"
    },
    {
      "channel": 3,
      "note": 67,
      "start": 4.4809,
      "duration": 0.0624,
      "velocity": 107,
      "chip": "ym2612"
    },
    {
      "channel": 2,
      "note": 68,
      "start": 4.4817,
      "duration": 0.009,
      "velocity": 109,
      "chip": "ym2612"
    },
    {
      "channel": 2,
      "note": 67,
      "start": 4.4907,
      "duration": 0.0248,
      "velocity": 109,
      "chip": "ym2612"
    },
    {
      "channel": 2,
      "note": 66,
      "start": 4.5155,
      "duration": 0.0126,
      "velocity": 109,
      "chip": "ym2612"
    },
    {
      "channel": 2,
      "note": 65,
      "start": 4.528,
      "duration": 0.0132,
      "velocity": 109,
      "chip": "ym2612"
    },
    {
      "channel": 2,
      "note": 69,
      "start": 4.5414,
      "duration": 0.0027,
      "velocity": 109,
      "chip": "ym2612"
    },
    {
      "channel": 3,
      "note": 67,
      "start": 4.5436,
      "duration": 0.069,
      "velocity": 107,
      "chip": "ym2612"
    },
    {
      "channel": 2,
      "note": 68,
      "start": 4.5441,
      "duration": 0.0098,
      "velocity": 109,
      "chip": "ym2612"
    },
    {
      "channel": 2,
      "note": 67,
      "start": 4.5539,
      "duration": 0.0124,
      "velocity": 109,
      "chip": "ym2612"
    },
    {
      "channel": 2,
      "note": 66,
      "start": 4.5663,
      "duration": 0.0259,
      "velocity": 109,
      "chip": "ym2612"
    },
    {
      "channel": 2,
      "note": 65,
      "start": 4.5922,
      "duration": 0.0182,
      "velocity": 109,
      "chip": "ym2612"
    },
    {
      "channel": 0,
      "note": 56,
      "start": 4.6094,
      "duration": 0.1143,
      "velocity": 121,
      "chip": "ym2612"
    },
    {
      "channel": 1,
      "note": 44,
      "start": 4.61,
      "duration": 0.1143,
      "velocity": 112,
      "chip": "ym2612"
    },
    {
      "channel": 2,
      "note": 69,
      "start": 4.6106,
      "duration": 0.003,
      "velocity": 109,
      "chip": "ym2612"
    },
    {
      "channel": 3,
      "note": 67,
      "start": 4.6127,
      "duration": 0.1158,
      "velocity": 107,
      "chip": "ym2612"
    },
    {
      "channel": 2,
      "note": 68,
      "start": 4.6136,
      "duration": 0.0087,
      "velocity": 109,
      "chip": "ym2612"
    },
    {
      "channel": 2,
      "note": 67,
      "start": 4.6223,
      "duration": 0.0125,
      "velocity": 109,
      "chip": "ym2612"
    },
    {
      "channel": 2,
      "note": 66,
      "start": 4.6348,
      "duration": 0.0123,
      "velocity": 109,
      "chip": "ym2612"
    },
    {
      "channel": 2,
      "note": 65,
      "start": 4.6471,
      "duration": 0.0256,
      "velocity": 109,
      "chip": "ym2612"
    },
    {
      "channel": 2,
      "note": 64,
      "start": 4.6727,
      "duration": 0.0119,
      "velocity": 109,
      "chip": "ym2612"
    },
    {
      "channel": 2,
      "note": 63,
      "start": 4.6846,
      "duration": 0.0124,
      "velocity": 109,
      "chip": "ym2612"
    },
    {
      "channel": 2,
      "note": 62,
      "start": 4.6969,
      "duration": 0.0124,
      "velocity": 109,
      "chip": "ym2612"
    },
    {
      "channel": 2,
      "note": 61,
      "start": 4.7093,
      "duration": 0.0171,
      "velocity": 121,
      "chip": "ym2612"
    },
    {
      "channel": 0,
      "note": 55,
      "start": 4.7238,
      "duration": 2.4168,
      "velocity": 121,
      "chip": "ym2612"
    },
    {
      "channel": 1,
      "note": 43,
      "start": 4.7245,
      "duration": 2.4167,
      "velocity": 112,
      "chip": "ym2612"
    },
    {
      "channel": 2,
      "note": 55,
      "start": 4.7266,
      "duration": 2.5472,
      "velocity": 124,
      "chip": "ym2612"
    },
    {
      "channel": 3,
      "note": 67,
      "start": 4.7287,
      "duration": 0.1268,
      "velocity": 107,
      "chip": "ym2612"
    },
    {
      "channel": 3,
      "note": 67,
      "start": 4.8557,
      "duration": 0.0831,
      "velocity": 107,
      "chip": "ym2612"
    },
    {
      "channel": 3,
      "note": 67,
      "start": 4.939,
      "duration": 0.0832,
      "velocity": 107,
      "chip": "ym2612"
    },
    {
      "channel": 3,
      "note": 67,
      "start": 5.0224,
      "duration": 0.1129,
      "velocity": 107,
      "chip": "ym2612"
    },
    {
      "channel": 3,
      "note": 67,
      "start": 5.1355,
      "duration": 0.1309,
      "velocity": 107,
      "chip": "ym2612"
    },
    {
      "channel": 4,
      "note": 74,
      "start": 5.1377,
      "duration": 0.0008,
      "velocity": 109,
      "chip": "ym2612"
    },
    {
      "channel": 4,
      "note": 73,
      "start": 5.1385,
      "duration": 0.0083,
      "velocity": 109,
      "chip": "ym2612"
    },
    {
      "channel": 4,
      "note": 72,
      "start": 5.1469,
      "duration": 0.0248,
      "velocity": 109,
      "chip": "ym2612"
    },
    {
      "channel": 4,
      "note": 70,
      "start": 5.1717,
      "duration": 0.0124,
      "velocity": 109,
      "chip": "ym2612"
    },
    {
      "channel": 4,
      "note": 69,
      "start": 5.184,
      "duration": 0.025,
      "velocity": 109,
      "chip": "ym2612"
    },
    {
      "channel": 4,
      "note": 68,
      "start": 5.209,
      "duration": 0.0122,
      "velocity": 109,
      "chip": "ym2612"
    },
    {
      "channel": 4,
      "note": 67,
      "start": 5.2212,
      "duration": 0.0266,
      "velocity": 109,
      "chip": "ym2612"
    },
    {
      "channel": 4,
      "note": 66,
      "start": 5.2478,
      "duration": 0.0192,
      "velocity": 109,
      "chip": "ym2612"
    },
    {
      "channel": 3,
      "note": 67,
      "start": 5.2666,
      "duration": 0.0831,
      "velocity": 107,
      "chip": "ym2612"
    },
    {
      "channel": 4,
      "note": 69,
      "start": 5.2672,
      "duration": 0.0006,
      "velocity": 109,
      "chip": "ym2612"
    },
    {
      "channel": 4,
      "note": 68,
      "start": 5.2677,
      "duration": 0.0134,
      "velocity": 109,
      "chip": "ym2612"
    },
    {
      "channel": 4,
      "note": 67,
      "start": 5.2812,
      "duration": 0.0167,
      "velocity": 109,
      "chip": "ym2612"
    },
    {
      "channel": 4,
      "note": 66,
      "start": 5.2978,
      "duration": 0.0167,
      "velocity": 109,
      "chip": "ym2612"
    },
    {
      "channel": 4,
      "note": 65,
      "start": 5.3145,
      "duration": 0.0361,
      "velocity": 109,
      "chip": "ym2612"
    },
    {
      "channel": 3,
      "note": 67,
      "start": 5.3499,
      "duration": 0.0665,
      "velocity": 107,
      "chip": "ym2612"
    },
    {
      "channel": 4,
      "note": 64,
      "start": 5.3506,
      "duration": 0.0139,
      "velocity": 109,
      "chip": "ym2612"
    },
    {
      "channel": 4,
      "note": 63,
      "start": 5.3645,
      "duration": 0.0167,
      "velocity": 109,
      "chip": "ym2612"
    },
    {
      "channel": 4,
      "note": 62,
      "start": 5.3812,
      "duration": 0.0167,
      "velocity": 109,
      "chip": "ym2612"
    },
    {
      "channel": 4,
      "note": 61,
      "start": 5.3978,
      "duration": 0.0192,
      "velocity": 109,
      "chip": "ym2612"
    },
    {
      "channel": 3,
      "note": 67,
      "start": 5.4167,
      "duration": 0.1307,
      "velocity": 107,
      "chip": "ym2612"
    },
    {
      "channel": 4,
      "note": 69,
      "start": 5.4172,
      "duration": 0.0008,
      "velocity": 109,
      "chip": "ym2612"
    },
    {
      "channel": 4,
      "note": 68,
      "start": 5.418,
      "duration": 0.0224,
      "velocity": 109,
      "chip": "ym2612"
    },
    {
      "channel": 4,
      "note": 67,
      "start": 5.4404,
      "duration": 0.0127,
      "velocity": 109,
      "chip": "ym2612"
    },
    {
      "channel": 4,
      "note": 66,
      "start": 5.4532,
      "duration": 0.0128,
      "velocity": 109,
      "chip": "ym2612"
    },
    {
      "channel": 4,
      "note": 65,
      "start": 5.466,
      "duration": 0.0251,
      "velocity": 109,
      "chip": "ym2612"
    },
    {
      "channel": 4,
      "note": 64,
      "start": 5.4911,
      "duration": 0.0253,
      "velocity": 109,
      "chip": "ym2612"
    },
    {
      "channel": 4,
      "note": 63,
      "start": 5.5163,
      "duration": 0.0125,
      "velocity": 109,
      "chip": "ym2612"
    },
    {
      "channel": 4,
      "note": 62,
      "start": 5.5289,
      "duration": 0.0191,
      "velocity": 109,
      "chip": "ym2612"
    },
    {
      "channel": 3,
      "note": 67,
      "start": 5.5476,
      "duration": 0.1294,
      "velocity": 107,
      "chip": "ym2612"
    },
    {
      "channel": 4,
      "note": 74,
      "start": 5.5482,
      "duration": 0.0008,
      "velocity": 109,
      "chip": "ym2612"
    },
    {
      "channel": 4,
      "note": 73,
      "start": 5.549,
      "duration": 0.0096,
      "velocity": 109,
      "chip": "ym2612"
    },
    {
      "channel": 4,
      "note": 72,
      "start": 5.5586,
      "duration": 0.0122,
      "velocity": 109,
      "chip": "ym2612"
    },
    {
      "channel": 4,
      "note": 70,
      "start": 5.5708,
      "duration": 0.0251,
      "velocity": 109,
      "chip": "ym2612"
    },
    {
      "channel": 4,
      "note": 69,
      "start": 5.5959,
      "duration": 0.0251,
      "velocity": 109,
      "chip": "ym2612"
    },
    {
      "channel": 4,
      "note": 68,
      "start": 5.6211,
      "duration": 0.0127,
      "velocity": 109,
      "chip": "ym2612"
    },
    {
      "channel": 4,
      "note": 67,
      "start": 5.6338,
      "duration": 0.0125,
      "velocity": 109,
      "chip": "ym2612"
    },
    {
      "channel": 4,
      "note": 66,
      "start": 5.6463,
      "duration": 0.0313,
      "velocity": 109,
      "chip": "ym2612"
    },
    {
      "channel": 3,
      "note": 67,
      "start": 5.6772,
      "duration": 0.0515,
      "velocity": 107,
      "chip": "ym2612"
    },
    {
      "channel": 4,
      "note": 69,
      "start": 5.6778,
      "duration": 0.0008,
      "velocity": 109,
      "chip": "ym2612"
    },
    {
      "channel": 4,
      "note": 68,
      "start": 5.6786,
      "duration": 0.0101,
      "velocity": 109,
      "chip": "ym2612"
    },
    {
      "channel": 4,
      "note": 67,
      "start": 5.6887,
      "duration": 0.0127,
      "velocity": 109,
      "chip": "ym2612"
    },
    {
      "channel": 4,
      "note": 66,
      "start": 5.7014,
      "duration": 0.0124,
      "velocity": 109,
      "chip": "ym2612"
    },
    {
      "channel": 4,
      "note": 65,
      "start": 5.7139,
      "duration": 0.0159,
      "velocity": 109,
      "chip": "ym2612"
    },
    {
      "channel": 3,
      "note": 67,
      "start": 5.7289,
      "duration": 0.0626,
      "velocity": 107,
      "chip": "ym2612"
    },
    {
      "channel": 4,
      "note": 64,
      "start": 5.7298,
      "duration": 0.0227,
      "velocity": 109,
      "chip": "ym2612"
    },
    {
      "channel": 4,
      "note": 63,
      "start": 5.7524,
      "duration": 0.0124,
      "velocity": 109,
      "chip": "ym2612"
    },
    {
      "channel": 4,
      "note": 62,
      "start": 5.7649,
      "duration": 0.0122,
      "velocity": 109,
      "chip": "ym2612"
    },
    {
      "channel": 4,
      "note": 61,
      "start": 5.7771,
      "duration": 0.0151,
      "velocity": 109,
      "chip": "ym2612"
    },
    {
      "channel": 3,
      "note": 67,
      "start": 5.7917,
      "duration": 0.1294,
      "velocity": 107,
      "chip": "ym2612"
    },
    {
      "channel": 4,
      "note": 69,
      "start": 5.7923,
      "duration": 0.0008,
      "velocity": 109,
      "chip": "ym2612"
    },
    {
      "channel": 4,
      "note": 68,
      "start": 5.7931,
      "duration": 0.0098,
      "velocity": 109,
      "chip": "ym2612"
    },
    {
      "channel": 4,
      "note": 67,
      "start": 5.8029,
      "duration": 0.0253,
      "velocity": 109,
      "chip": "ym2612"
    },
    {
      "channel": 4,
      "note": 66,
      "start": 5.8282,
      "duration": 0.0126,
      "velocity": 109,
      "chip": "ym2612"
    },
    {
      "channel": 4,
      "note": 65,
      "start": 5.8408,
      "duration": 0.0247,
      "velocity": 109,
      "chip": "ym2612"
    },
    {
      "channel": 4,
      "note": 64,
      "start": 5.8655,
      "duration": 0.0123,
      "velocity": 109,
      "chip": "ym2612"
    },
    {
      "channel": 4,
      "note": 63,
      "start": 5.8778,
      "duration": 0.0253,
      "velocity": 109,
      "chip": "ym2612"
    },
    {
      "channel": 4,
      "note": 62,
      "start": 5.9031,
      "duration": 0.0191,
      "velocity": 109,
      "chip": "ym2612"
    },
    {
      "channel": 3,
      "note": 67,
      "start": 5.9212,
      "duration": 0.116,
      "velocity": 107,
      "chip": "ym2612"
    },
    {
      "channel": 4,
      "note": 61,
      "start": 5.9222,
      "duration": 0.0103,
      "velocity": 109,
      "chip": "ym2612"
    },
    {
      "channel": 4,
      "note": 60,
      "start": 5.9325,
      "duration": 0.0124,
      "velocity": 109,
      "chip": "ym2612"
    },
    {
      "channel": 4,
      "note": 58,
      "start": 5.9449,
      "duration": 0.0127,
      "velocity": 109,
      "chip": "ym2612"
    },
    {
      "channel": 4,
      "note": 57,
      "start": 5.9577,
      "duration": 0.0379,
      "velocity": 109,
      "chip": "ym2612"
    },
    {
      "channel": 4,
      "note": 56,
      "start": 5.9956,
      "duration": 0.0129,
      "velocity": 109,
      "chip": "ym2612"
    },
    {
      "channel": 4,
      "note": 55,
      "start": 6.0084,
      "duration": 0.0124,
      "velocity": 109,
      "chip": "ym2612"
    },
    {
      "channel": 4,
      "note": 54,
      "start": 6.0209,
      "duration": 0.0171,
      "velocity": 109,
      "chip": "ym2612"
    },
    {
      "channel": 3,
      "note": 67,
      "start": 6.0374,
      "duration": 0.0831,
      "velocity": 107,
      "chip": "ym2612"
    },
    {
      "channel": 4,
      "note": 53,
      "start": 6.038,
      "duration": 0.0307,
      "velocity": 109,
      "chip": "ym2612"
    },
    {
      "channel": 4,
      "note": 52,
      "start": 6.0686,
      "duration": 0.0167,
      "velocity": 109,
      "chip": "ym2612"
    },
    {
      "channel": 4,
      "note": 51,
      "start": 6.0853,
      "duration": 0.0167,
      "velocity": 109,
      "chip": "ym2612"
    },
    {
      "channel": 4,
      "note": 50,
      "start": 6.102,
      "duration": 0.0193,
      "velocity": 109,
      "chip": "ym2612"
    },
    {
      "channel": 3,
      "note": 67,
      "start": 6.1207,
      "duration": 0.0831,
      "velocity": 107,
      "chip": "ym2612"
    },
    {
      "channel": 4,
      "note": 49,
      "start": 6.1213,
      "duration": 0.014,
      "velocity": 109,
      "chip": "ym2612"
    },
    {
      "channel": 4,
      "note": 48,
      "start": 6.1353,
      "duration": 0.0333,
      "velocity": 109,
      "chip": "ym2612"
    },
    {
      "channel": 4,
      "note": 46,
      "start": 6.1686,
      "duration": 0.0167,
      "velocity": 109,
      "chip": "ym2612"
    },
    {
      "channel": 4,
      "note": 45,
      "start": 6.1853,
      "duration": 0.0197,
      "velocity": 109,
      "chip": "ym2612"
    },
    {
      "channel": 3,
      "note": 67,
      "start": 6.2041,
      "duration": 0.1301,
      "velocity": 107,
      "chip": "ym2612"
    },
    {
      "channel": 4,
      "note": 44,
      "start": 6.205,
      "duration": 0.0103,
      "velocity": 109,
      "chip": "ym2612"
    },
    {
      "channel": 4,
      "note": 43,
      "start": 6.2153,
      "duration": 0.0124,
      "velocity": 109,
      "chip": "ym2612"
    },
    {
      "channel": 4,
      "note": 42,
      "start": 6.2277,
      "duration": 0.0252,
      "velocity": 109,
      "chip": "ym2612"
    },
    {
      "channel": 4,
      "note": 41,
      "start": 6.2529,
      "duration": 0.0248,
      "velocity": 109,
      "chip": "ym2612"
    },
    {
      "channel": 4,
      "note": 40,
      "start": 6.2778,
      "duration": 0.0127,
      "velocity": 109,
      "chip": "ym2612"
    },
    {
      "channel": 4,
      "note": 39,
      "start": 6.2905,
      "duration": 0.0124,
      "velocity": 109,
      "chip": "ym2612"
    },
    {
      "channel": 4,
      "note": 38,
      "start": 6.3028,
      "duration": 0.0325,
      "velocity": 109,
      "chip": "ym2612"
    },
    {
      "channel": 3,
      "note": 67,
      "start": 6.3344,
      "duration": 0.1141,
      "velocity": 107,
      "chip": "ym2612"
    },
    {
      "channel": 4,
      "note": 37,
      "start": 6.3353,
      "duration": 0.0103,
      "velocity": 109,
      "chip": "ym2612"
    },
    {
      "channel": 4,
      "note": 36,
      "start": 6.3456,
      "duration": 0.0124,
      "velocity": 109,
      "chip": "ym2612"
    },
    {
      "channel": 4,
      "note": 34,
      "start": 6.358,
      "duration": 0.0124,
      "velocity": 109,
      "chip": "ym2612"
    },
    {
      "channel": 4,
      "note": 33,
      "start": 6.3705,
      "duration": 0.038,
      "velocity": 109,
      "chip": "ym2612"
    },
    {
      "channel": 4,
      "note": 32,
      "start": 6.4085,
      "duration": 0.0129,
      "velocity": 109,
      "chip": "ym2612"
    },
    {
      "channel": 4,
      "note": 31,
      "start": 6.4214,
      "duration": 0.0125,
      "velocity": 109,
      "chip": "ym2612"
    },
    {
      "channel": 4,
      "note": 30,
      "start": 6.434,
      "duration": 0.0153,
      "velocity": 109,
      "chip": "ym2612"
    },
    {
      "channel": 3,
      "note": 67,
      "start": 6.4487,
      "duration": 0.083,
      "velocity": 107,
      "chip": "ym2612"
    },
    {
      "channel": 4,
      "note": 29,
      "start": 6.4493,
      "duration": 0.0139,
      "velocity": 109,
      "chip": "ym2612"
    },
    {
      "channel": 4,
      "note": 28,
      "start": 6.4632,
      "duration": 0.0333,
      "velocity": 109,
      "chip": "ym2612"
    },
    {
      "channel": 4,
      "note": 27,
      "start": 6.4965,
      "duration": 0.0167,
      "velocity": 109,
      "chip": "ym2612"
    },
    {
      "channel": 4,
      "note": 26,
      "start": 6.5132,
      "duration": 0.0193,
      "velocity": 109,
      "chip": "ym2612"
    },
    {
      "channel": 3,
      "note": 67,
      "start": 6.5319,
      "duration": 0.0831,
      "velocity": 107,
      "chip": "ym2612"
    },
    {
      "channel": 4,
      "note": 25,
      "start": 6.5325,
      "duration": 0.014,
      "velocity": 109,
      "chip": "ym2612"
    },
    {
      "channel": 4,
      "note": 24,
      "start": 6.5465,
      "duration": 0.0167,
      "velocity": 109,
      "chip": "ym2612"
    },
    {
      "channel": 4,
      "note": 23,
      "start": 6.5632,
      "duration": 0.0333,
      "velocity": 109,
      "chip": "ym2612"
    },
    {
      "channel": 4,
      "note": 21,
      "start": 6.5965,
      "duration": 0.0197,
      "velocity": 109,
      "chip": "ym2612"
    },
    {
      "channel": 3,
      "note": 67,
      "start": 6.6153,
      "duration": 0.1139,
      "velocity": 107,
      "chip": "ym2612"
    },
    {
      "channel": 4,
      "note": 116,
      "start": 6.6161,
      "duration": 0.0103,
      "velocity": 109,
      "chip": "ym2612"
    },
    {
      "channel": 4,
      "note": 115,
      "start": 6.6264,
      "duration": 0.0124,
      "velocity": 109,
      "chip": "ym2612"
    },
    {
      "channel": 4,
      "note": 114,
      "start": 6.6389,
      "duration": 0.0127,
      "velocity": 109,
      "chip": "ym2612"
    },
    {
      "channel": 4,
      "note": 113,
      "start": 6.6516,
      "duration": 0.0379,
      "velocity": 109,
      "chip": "ym2612"
    },
    {
      "channel": 4,
      "note": 112,
      "start": 6.6895,
      "duration": 0.0125,
      "velocity": 109,
      "chip": "ym2612"
    },
    {
      "channel": 4,
      "note": 111,
      "start": 6.7021,
      "duration": 0.0123,
      "velocity": 109,
      "chip": "ym2612"
    },
    {
      "channel": 4,
      "note": 110,
      "start": 6.7144,
      "duration": 0.0159,
      "velocity": 109,
      "chip": "ym2612"
    },
    {
      "channel": 3,
      "note": 67,
      "start": 6.7294,
      "duration": 0.1322,
      "velocity": 107,
      "chip": "ym2612"
    },
    {
      "channel": 4,
      "note": 109,
      "start": 6.7302,
      "duration": 0.0225,
      "velocity": 109,
      "chip": "ym2612"
    },
    {
      "channel": 4,
      "note": 108,
      "start": 6.7527,
      "duration": 0.0123,
      "velocity": 109,
      "chip": "ym2612"
    },
    {
      "channel": 4,
      "note": 107,
      "start": 6.765,
      "duration": 0.0127,
      "velocity": 109,
      "chip": "ym2612"
    },
    {
      "channel": 4,
      "note": 105,
      "start": 6.7776,
      "duration": 0.0254,
      "velocity": 109,
      "chip": "ym2612"
    },
    {
      "channel": 4,
      "note": 104,
      "start": 6.803,
      "duration": 0.0253,
      "velocity": 109,
      "chip": "ym2612"
    },
    {
      "channel": 4,
      "note": 103,
      "start": 6.8283,
      "duration": 0.0147,
      "velocity": 109,
      "chip": "ym2612"
    },
    {
      "channel": 4,
      "note": 102,
      "start": 6.8429,
      "duration": 0.0193,
      "velocity": 109,
      "chip": "ym2612"
    },
    {
      "channel": 3,
      "note": 67,
      "start": 6.8617,
      "duration": 0.0831,
      "velocity": 107,
      "chip": "ym2612"
    },
    {
      "channel": 4,
      "note": 101,
      "start": 6.8623,
      "duration": 0.014,
      "velocity": 109,
      "chip": "ym2612"
    },
    {
      "channel": 4,
      "note": 100,
      "start": 6.8763,
      "duration": 0.0167,
      "velocity": 109,
      "chip": "ym2612"
    },
    {
      "channel": 4,
      "note": 99,
      "start": 6.8929,
      "duration": 0.0333,
      "velocity": 109,
      "chip": "ym2612"
    },
    {
      "channel": 4,
      "note": 98,
      "start": 6.9263,
      "duration": 0.0193,
      "velocity": 109,
      "chip": "ym2612"
    },
    {
      "channel": 3,
      "note": 67,
      "start": 6.9451,
      "duration": 0.0832,
      "velocity": 107,
      "chip": "ym2612"
    },
    {
      "channel": 4,
      "note": 97,
      "start": 6.9456,
      "duration": 0.014,
      "velocity": 109,
      "chip": "ym2612"
    },
    {
      "channel": 4,
      "note": 96,
      "start": 6.9596,
      "duration": 0.0167,
      "velocity": 109,
      "chip": "ym2612"
    },
    {
      "channel": 4,
      "note": 95,
      "start": 6.9763,
      "duration": 0.0167,
      "velocity": 109,
      "chip": "ym2612"
    },
    {
      "channel": 4,
      "note": 93,
      "start": 6.9929,
      "duration": 0.0364,
      "velocity": 109,
      "chip": "ym2612"
    },
    {
      "channel": 3,
      "note": 67,
      "start": 7.0285,
      "duration": 0.1149,
      "velocity": 107,
      "chip": "ym2612"
    },
    {
      "channel": 4,
      "note": 92,
      "start": 7.0293,
      "duration": 0.01,
      "velocity": 109,
      "chip": "ym2612"
    },
    {
      "channel": 4,
      "note": 91,
      "start": 7.0393,
      "duration": 0.0124,
      "velocity": 109,
      "chip": "ym2612"
    },
    {
      "channel": 4,
      "note": 90,
      "start": 7.0518,
      "duration": 0.0124,
      "velocity": 109,
      "chip": "ym2612"
    },
    {
      "channel": 4,
      "note": 89,
      "start": 7.0642,
      "duration": 0.0379,
      "velocity": 109,
      "chip": "ym2612"
    },
    {
      "channel": 4,
      "note": 88,
      "start": 7.1021,
      "duration": 0.0127,
      "velocity": 109,
      "chip": "ym2612"
    },
    {
      "channel": 4,
      "note": 87,
      "start": 7.1147,
      "duration": 0.0126,
      "velocity": 109,
      "chip": "ym2612"
    },
    {
      "channel": 4,
      "note": 86,
      "start": 7.1273,
      "duration": 0.0171,
      "velocity": 109,
      "chip": "ym2612"
    },
    {
      "channel": 0,
      "note": 63,
      "start": 7.1408,
      "duration": 0.1302,
      "velocity": 121,
      "chip": "ym2612"
    },
    {
      "channel": 1,
      "note": 51,
      "start": 7.1414,
      "duration": 0.1303,
      "velocity": 112,
      "chip": "ym2612"
    },
    {
      "channel": 3,
      "note": 67,
      "start": 7.1436,
      "duration": 0.1323,
      "velocity": 107,
      "chip": "ym2612"
    },
    {
      "channel": 4,
      "note": 85,
      "start": 7.1444,
      "duration": 0.0098,
      "velocity": 109,
      "chip": "ym2612"
    },
    {
      "channel": 4,
      "note": 84,
      "start": 7.1542,
      "duration": 0.0248,
      "velocity": 109,
      "chip": "ym2612"
    },
    {
      "channel": 4,
      "note": 83,
      "start": 7.1791,
      "duration": 0.0127,
      "velocity": 109,
      "chip": "ym2612"
    },
    {
      "channel": 4,
      "note": 81,
      "start": 7.1917,
      "duration": 0.0249,
      "velocity": 109,
      "chip": "ym2612"
    },
    {
      "channel": 4,
      "note": 80,
      "start": 7.2167,
      "duration": 0.0125,
      "velocity": 109,
      "chip": "ym2612"
    },
    {
      "channel": 4,
      "note": 79,
      "start": 7.2292,
      "duration": 0.0251,
      "velocity": 109,
      "chip": "ym2612"
    },
    {
      "channel": 4,
      "note": 78,
      "start": 7.2543,
      "duration": 0.0223,
      "velocity": 109,
      "chip": "ym2612"
    },
    {
      "channel": 0,
      "note": 62,
      "start": 7.2713,
      "duration": 0.1158,
      "velocity": 121,
      "chip": "ym2612"
    },
    {
      "channel": 1,
      "note": 50,
      "start": 7.2718,
      "duration": 0.1159,
      "velocity": 112,
      "chip": "ym2612"
    },
    {
      "channel": 2,
      "note": 53,
      "start": 7.2739,
      "duration": 0.1142,
      "velocity": 124,
      "chip": "ym2612"
    },
    {
      "channel": 3,
      "note": 67,
      "start": 7.276,
      "duration": 0.0617,
      "velocity": 107,
      "chip": "ym2612"
    },
    {
      "channel": 4,
      "note": 74,
      "start": 7.2767,
      "duration": 0.0009,
      "velocity": 109,
      "chip": "ym2612"
    },
    {
      "channel": 4,
      "note": 73,
      "start": 7.2776,
      "duration": 0.0076,
      "velocity": 109,
      "chip": "ym2612"
    },
    {
      "channel": 4,
      "note": 72,
      "start": 7.2852,
      "duration": 0.0128,
      "velocity": 109,
      "chip": "ym2612"
    },
    {
      "channel": 4,
      "note": 70,
      "start": 7.298,
      "duration": 0.0124,
      "velocity": 109,
      "chip": "ym2612"
    },
    {
      "channel": 4,
      "note": 69,
      "start": 7.3104,
      "duration": 0.0284,
      "velocity": 109,
      "chip": "ym2612"
    },
    {
      "channel": 3,
      "note": 67,
      "start": 7.3378,
      "duration": 0.0524,
      "velocity": 107,
      "chip": "ym2612"
    },
    {
      "channel": 4,
      "note": 68,
      "start": 7.3388,
      "duration": 0.0099,
      "velocity": 109,
      "chip": "ym2612"
    },
    {
      "channel": 4,
      "note": 67,
      "start": 7.3487,
      "duration": 0.0128,
      "velocity": 109,
      "chip": "ym2612"
    },
    {
      "channel": 4,
      "note": 66,
      "start": 7.3615,
      "duration": 0.0124,
      "velocity": 109,
      "chip": "ym2612"
    },
    {
      "channel": 4,
      "note": 65,
      "start": 7.3739,
      "duration": 0.0169,
      "velocity": 109,
      "chip": "ym2612"
    },
    {
      "channel": 0,
      "note": 58,
      "start": 7.3872,
      "duration": 0.1295,
      "velocity": 121,
      "chip": "ym2612"
    },
    {
      "channel": 1,
      "note": 46,
      "start": 7.3877,
      "duration": 0.1295,
      "velocity": 112,
      "chip": "ym2612"
    },
    {
      "channel": 2,
      "note": 50,
      "start": 7.3883,
      "duration": 0.1295,
      "velocity": 124,
      "chip": "ym2612"
    },
    {
      "channel": 3,
      "note": 67,
      "start": 7.3905,
      "duration": 0.1295,
      "velocity": 107,
      "chip": "ym2612"
    },
    {
      "channel": 4,
      "note": 74,
      "start": 7.391,
      "duration": 0.0008,
      "velocity": 109,
      "chip": "ym2612"
    },
    {
      "channel": 4,
      "note": 73,
      "start": 7.3919,
      "duration": 0.0212,
      "velocity": 109,
      "chip": "ym2612"
    },
    {
      "channel": 4,
      "note": 72,
      "start": 7.4131,
      "duration": 0.0124,
      "velocity": 109,
      "chip": "ym2612"
    },
    {
      "channel": 4,
      "note": 70,
      "start": 7.4255,
      "duration": 0.0124,
      "velocity": 109,
      "chip": "ym2612"
    },
    {
      "channel": 4,
      "note": 69,
      "start": 7.4379,
      "duration": 0.025,
      "velocity": 109,
      "chip": "ym2612"
    },
    {
      "channel": 4,
      "note": 68,
      "start": 7.4628,
      "duration": 0.0251,
      "velocity": 109,
      "chip": "ym2612"
    },
    {
      "channel": 4,
      "note": 67,
      "start": 7.4879,
      "duration": 0.0128,
      "velocity": 109,
      "chip": "ym2612"
    },
    {
      "channel": 4,
      "note": 66,
      "start": 7.5007,
      "duration": 0.0199,
      "velocity": 109,
      "chip": "ym2612"
    },
    {
      "channel": 0,
      "note": 63,
      "start": 7.5169,
      "duration": 0.1323,
      "velocity": 121,
      "chip": "ym2612"
    },
    {
      "channel": 1,
      "note": 51,
      "start": 7.5174,
      "duration": 0.1322,
      "velocity": 112,
      "chip": "ym2612"
    },
    {
      "channel": 2,
      "note": 56,
      "start": 7.518,
      "duration": 0.1322,
      "velocity": 124,
      "chip": "ym2612"
    },
    {
      "channel": 3,
      "note": 67,
      "start": 7.5201,
      "duration": 0.1323,
      "velocity": 107,
      "chip": "ym2612"
    },
    {
      "channel": 4,
      "note": 69,
      "start": 7.5207,
      "duration": 0.0008,
      "velocity": 109,
      "chip": "ym2612"
    },
    {
      "channel": 4,
      "note": 68,
      "start": 7.5216,
      "duration": 0.0085,
      "velocity": 109,
      "chip": "ym2612"
    },
    {
      "channel": 4,
      "note": 67,
      "start": 7.5301,
      "duration": 0.0123,
      "velocity": 109,
      "chip": "ym2612"
    },
    {
      "channel": 4,
      "note": 66,
      "start": 7.5424,
      "duration": 0.0253,
      "velocity": 109,
      "chip": "ym2612"
    },
    {
      "channel": 4,
      "note": 65,
      "start": 7.5678,
      "duration": 0.0133,
      "velocity": 109,
      "chip": "ym2612"
    },
    {
      "channel": 4,
      "note": 69,
      "start": 7.5812,
      "duration": 0.0006,
      "velocity": 109,
      "chip": "ym2612"
    },
    {
      "channel": 4,
      "note": 68,
      "start": 7.5818,
      "duration": 0.0119,
      "velocity": 109,
      "chip": "ym2612"
    },
    {
      "channel": 4,
      "note": 67,
      "start": 7.5937,
      "duration": 0.0125,
      "velocity": 109,
      "chip": "ym2612"
    },
    {
      "channel": 4,
      "note": 66,
      "start": 7.6062,
      "duration": 0.0125,
      "velocity": 109,
      "chip": "ym2612"
    },
    {
      "channel": 4,
      "note": 65,
      "start": 7.6188,
      "duration": 0.0342,
      "velocity": 109,
      "chip": "ym2612"
    },
    {
      "channel": 0,
      "note": 62,
      "start": 7.6493,
      "duration": 0.1155,
      "velocity": 121,
      "chip": "ym2612"
    },
    {
      "channel": 1,
      "note": 50,
      "start": 7.6499,
      "duration": 0.1155,
      "velocity": 112,
      "chip": "ym2612"
    },
    {
      "channel": 2,
      "note": 55,
      "start": 7.6504,
      "duration": 0.1155,
      "velocity": 124,
      "chip": "ym2612"
    },
    {
      "channel": 3,
      "note": 67,
      "start": 7.6525,
      "duration": 0.0502,
      "velocity": 107,
      "chip": "ym2612"
    },
    {
      "channel": 4,
      "note": 69,
      "start": 7.6532,
      "duration": 0.0008,
      "velocity": 109,
      "chip": "ym2612"
    },
    {
      "channel": 4,
      "note": 68,
      "start": 7.654,
      "duration": 0.0085,
      "velocity": 109,
      "chip": "ym2612"
    },
    {
      "channel": 4,
      "note": 67,
      "start": 7.6625,
      "duration": 0.0127,
      "velocity": 109,
      "chip": "ym2612"
    },
    {
      "channel": 4,
      "note": 66,
      "start": 7.6752,
      "duration": 0.0127,
      "velocity": 109,
      "chip": "ym2612"
    },
    {
      "channel": 4,
      "note": 65,
      "start": 7.6879,
      "duration": 0.0156,
      "velocity": 109,
      "chip": "ym2612"
    },
    {
      "channel": 3,
      "note": 67,
      "start": 7.7028,
      "duration": 0.0652,
      "velocity": 107,
      "chip": "ym2612"
    },
    {
      "channel": 4,
      "note": 64,
      "start": 7.7035,
      "duration": 0.0227,
      "velocity": 109,
      "chip": "ym2612"
    },
    {
      "channel": 4,
      "note": 63,
      "start": 7.7262,
      "duration": 0.0123,
      "velocity": 109,
      "chip": "ym2612"
    },
    {
      "channel": 4,
      "note": 62,
      "start": 7.7385,
      "duration": 0.0127,
      "velocity": 109,
      "chip": "ym2612"
    },
    {
      "channel": 4,
      "note": 61,
      "start": 7.7512,
      "duration": 0.0174,
      "velocity": 109,
      "chip": "ym2612"
    },
    {
      "channel": 0,
      "note": 56,
      "start": 7.7649,
      "duration": 0.1319,
      "velocity": 121,
      "chip": "ym2612"
    },
    {
      "channel": 1,
      "note": 44,
      "start": 7.7655,
      "duration": 0.1319,
      "velocity": 112,
      "chip": "ym2612"
    },
    {
      "channel": 2,
      "note": 49,
      "start": 7.7661,
      "duration": 0.132,
      "velocity": 124,
      "chip": "ym2612"
    },
    {
      "channel": 3,
      "note": 67,
      "start": 7.7682,
      "duration": 0.132,
      "velocity": 107,
      "chip": "ym2612"
    },
    {
      "channel": 4,
      "note": 69,
      "start": 7.7688,
      "duration": 0.5399,
      "velocity": 109,
      "chip": "ym2612"
    },
    {
      "channel": 0,
      "note": 55,
      "start": 7.897,
      "duration": 2.413,
      "velocity": 121,
      "chip": "ym2612"
    },
    {
      "channel": 1,
      "note": 43,
      "start": 7.8976,
      "duration": 2.4128,
      "velocity": 112,
      "chip": "ym2612"
    },
    {
      "channel": 2,
      "note": 55,
      "start": 7.8983,
      "duration": 3.1486,
      "velocity": 124,
      "chip": "ym2612"
    },
    {
      "channel": 3,
      "note": 67,
      "start": 7.9003,
      "duration": 0.1118,
      "velocity": 107,
      "chip": "ym2612"
    },
    {
      "channel": 3,
      "note": 67,
      "start": 8.0124,
      "duration": 0.0829,
      "velocity": 107,
      "chip": "ym2612"
    },
    {
      "channel": 3,
      "note": 67,
      "start": 8.0955,
      "duration": 0.0831,
      "velocity": 107,
      "chip": "ym2612"
    },
    {
      "channel": 3,
      "note": 67,
      "start": 8.1789,
      "duration": 0.1292,
      "velocity": 107,
      "chip": "ym2612"
    },
    {
      "channel": 3,
      "note": 67,
      "start": 8.3083,
      "duration": 0.1159,
      "velocity": 107,
      "chip": "ym2612"
    },
    {
      "channel": 4,
      "note": 74,
      "start": 8.3089,
      "duration": 0.0008,
      "velocity": 109,
      "chip": "ym2612"
    },
    {
      "channel": 4,
      "note": 73,
      "start": 8.3097,
      "duration": 0.0098,
      "velocity": 109,
      "chip": "ym2612"
    },
    {
      "channel": 4,
      "note": 72,
      "start": 8.3195,
      "duration": 0.0124,
      "velocity": 109,
      "chip": "ym2612"
    },
    {
      "channel": 4,
      "note": 70,
      "start": 8.3319,
      "duration": 0.0128,
      "velocity": 109,
      "chip": "ym2612"
    },
    {
      "channel": 4,
      "note": 69,
      "start": 8.3446,
      "duration": 0.0379,
      "velocity": 109,
      "chip": "ym2612"
    },
    {
      "channel": 4,
      "note": 68,
      "start": 8.3825,
      "duration": 0.0127,
      "velocity": 109,
      "chip": "ym2612"
    },
    {
      "channel": 4,
      "note": 67,
      "start": 8.3953,
      "duration": 0.0127,
      "velocity": 109,
      "chip": "ym2612"
    },
    {
      "channel": 4,
      "note": 66,
      "start": 8.408,
      "duration": 0.0168,
      "velocity": 109,
      "chip": "ym2612"
    },
    {
      "channel": 3,
      "note": 67,
      "start": 8.4244,
      "duration": 0.0831,
      "velocity": 107,
      "chip": "ym2612"
    },
    {
      "channel": 4,
      "note": 69,
      "start": 8.425,
      "duration": 0.0006,
      "velocity": 109,
      "chip": "ym2612"
    },
    {
      "channel": 4,
      "note": 68,
      "start": 8.4255,
      "duration": 0.0134,
      "velocity": 109,
      "chip": "ym2612"
    },
    {
      "channel": 4,
      "note": 67,
      "start": 8.439,
      "duration": 0.0333,
      "velocity": 109,
      "chip": "ym2612"
    },
    {
      "channel": 4,
      "note": 66,
      "start": 8.4723,
      "duration": 0.0167,
      "velocity": 109,
      "chip": "ym2612"
    },
    {
      "channel": 4,
      "note": 65,
      "start": 8.489,
      "duration": 0.0194,
      "velocity": 109,
      "chip": "ym2612"
    },
    {
      "channel": 3,
      "note": 67,
      "start": 8.5077,
      "duration": 0.0832,
      "velocity": 107,
      "chip": "ym2612"
    },
    {
      "channel": 4,
      "note": 64,
      "start": 8.5084,
      "duration": 0.0139,
      "velocity": 109,
      "chip": "ym2612"
    },
    {
      "channel": 4,
      "note": 63,
      "start": 8.5223,
      "duration": 0.0167,
      "velocity": 109,
      "chip": "ym2612"
    },
    {
      "channel": 4,
      "note": 62,
      "start": 8.539,
      "duration": 0.0333,
      "velocity": 109,
      "chip": "ym2612"
    },
    {
      "channel": 4,
      "note": 61,
      "start": 8.5723,
      "duration": 0.0192,
      "velocity": 109,
      "chip": "ym2612"
    },
    {
      "channel": 3,
      "note": 67,
      "start": 8.5911,
      "duration": 0.1157,
      "velocity": 107,
      "chip": "ym2612"
    },
    {
      "channel": 4,
      "note": 69,
      "start": 8.5917,
      "duration": 0.0008,
      "velocity": 109,
      "chip": "ym2612"
    },
    {
      "channel": 4,
      "note": 68,
      "start": 8.5925,
      "duration": 0.0098,
      "velocity": 109,
      "chip": "ym2612"
    },
    {
      "channel": 4,
      "note": 67,
      "start": 8.6023,
      "duration": 0.0122,
      "velocity": 109,
      "chip": "ym2612"
    },
    {
      "channel": 4,
      "note": 66,
      "start": 8.6145,
      "duration": 0.0124,
      "velocity": 109,
      "chip": "ym2612"
    },
    {
      "channel": 4,
      "note": 65,
      "start": 8.627,
      "duration": 0.0376,
      "velocity": 109,
      "chip": "ym2612"
    },
    {
      "channel": 4,
      "note": 64,
      "start": 8.6646,
      "duration": 0.0127,
      "velocity": 109,
      "chip": "ym2612"
    },
    {
      "channel": 4,
      "note": 63,
      "start": 8.6774,
      "duration": 0.0128,
      "velocity": 109,
      "chip": "ym2612"
    },
    {
      "channel": 4,
      "note": 62,
      "start": 8.6902,
      "duration": 0.0172,
      "velocity": 109,
      "chip": "ym2612"
    },
    {
      "channel": 3,
      "note": 67,
      "start": 8.707,
      "duration": 0.1283,
      "velocity": 107,
      "chip": "ym2612"
    },
    {
      "channel": 4,
      "note": 74,
      "start": 8.7076,
      "duration": 0.0008,
      "velocity": 109,
      "chip": "ym2612"
    },
    {
      "channel": 4,
      "note": 73,
      "start": 8.7084,
      "duration": 0.0211,
      "velocity": 109,
      "chip": "ym2612"
    },
    {
      "channel": 4,
      "note": 72,
      "start": 8.7295,
      "duration": 0.0123,
      "velocity": 109,
      "chip": "ym2612"
    },
    {
      "channel": 4,
      "note": 70,
      "start": 8.7419,
      "duration": 0.0127,
      "velocity": 109,
      "chip": "ym2612"
    },
    {
      "channel": 4,
      "note": 69,
      "start": 8.7545,
      "duration": 0.0247,
      "velocity": 109,
      "chip": "ym2612"
    },
    {
      "channel": 4,
      "note": 68,
      "start": 8.7792,
      "duration": 0.0251,
      "velocity": 109,
      "chip": "ym2612"
    },
    {
      "channel": 4,
      "note": 67,
      "start": 8.8044,
      "duration": 0.0129,
      "velocity": 109,
      "chip": "ym2612"
    },
    {
      "channel": 4,
      "note": 66,
      "start": 8.8173,
      "duration": 0.0186,
      "velocity": 109,
      "chip": "ym2612"
    },
    {
      "channel": 3,
      "note": 67,
      "start": 8.8356,
      "duration": 0.063,
      "velocity": 107,
      "chip": "ym2612"
    },
    {
      "channel": 4,
      "note": 69,
      "start": 8.8361,
      "duration": 0.0008,
      "velocity": 109,
      "chip": "ym2612"
    },
    {
      "channel": 4,
      "note": 68,
      "start": 8.8369,
      "duration": 0.0098,
      "velocity": 109,
      "chip": "ym2612"
    },
    {
      "channel": 4,
      "note": 67,
      "start": 8.8468,
      "duration": 0.0122,
      "velocity": 109,
      "chip": "ym2612"
    },
    {
      "channel": 4,
      "note": 66,
      "start": 8.859,
      "duration": 0.025,
      "velocity": 109,
      "chip": "ym2612"
    },
    {
      "channel": 4,
      "note": 65,
      "start": 8.8839,
      "duration": 0.0157,
      "velocity": 109,
      "chip": "ym2612"
    },
    {
      "channel": 3,
      "note": 67,
      "start": 8.8988,
      "duration": 0.0629,
      "velocity": 107,
      "chip": "ym2612"
    },
    {
      "channel": 4,
      "note": 64,
      "start": 8.8997,
      "duration": 0.01,
      "velocity": 109,
      "chip": "ym2612"
    },
    {
      "channel": 4,
      "note": 63,
      "start": 8.9097,
      "duration": 0.0124,
      "velocity": 109,
      "chip": "ym2612"
    },
    {
      "channel": 4,
      "note": 62,
      "start": 8.9221,
      "duration": 0.0124,
      "velocity": 109,
      "chip": "ym2612"
    },
    {
      "channel": 4,
      "note": 61,
      "start": 8.9345,
      "duration": 0.0277,
      "velocity": 109,
      "chip": "ym2612"
    },
    {
      "channel": 3,
      "note": 67,
      "start": 8.9618,
      "duration": 0.1138,
      "velocity": 107,
      "chip": "ym2612"
    },
    {
      "channel": 4,
      "note": 69,
      "start": 8.9625,
      "duration": 0.0008,
      "velocity": 109,
      "chip": "ym2612"
    },
    {
      "channel": 4,
      "note": 68,
      "start": 8.9633,
      "duration": 0.01,
      "velocity": 109,
      "chip": "ym2612"
    },
    {
      "channel": 4,
      "note": 67,
      "start": 8.9732,
      "duration": 0.0124,
      "velocity": 109,
      "chip": "ym2612"
    },
    {
      "channel": 4,
      "note": 66,
      "start": 8.9857,
      "duration": 0.0125,
      "velocity": 109,
      "chip": "ym2612"
    },
    {
      "channel": 4,
      "note": 65,
      "start": 8.9982,
      "duration": 0.0378,
      "velocity": 109,
      "chip": "ym2612"
    },
    {
      "channel": 4,
      "note": 64,
      "start": 9.036,
      "duration": 0.0127,
      "velocity": 109,
      "chip": "ym2612"
    },
    {
      "channel": 4,
      "note": 63,
      "start": 9.0487,
      "duration": 0.0122,
      "velocity": 109,
      "chip": "ym2612"
    },
    {
      "channel": 4,
      "note": 62,
      "start": 9.0609,
      "duration": 0.0159,
      "velocity": 109,
      "chip": "ym2612"
    },
    {
      "channel": 3,
      "note": 67,
      "start": 9.0759,
      "duration": 0.1322,
      "velocity": 107,
      "chip": "ym2612"
    },
    {
      "channel": 4,
      "note": 61,
      "start": 9.0768,
      "duration": 0.0098,
      "velocity": 109,
      "chip": "ym2612"
    },
    {
      "channel": 4,
      "note": 60,
      "start": 9.0866,
      "duration": 0.0253,
      "velocity": 109,
      "chip": "ym2612"
    },
    {
      "channel": 4,
      "note": 58,
      "start": 9.1119,
      "duration": 0.0127,
      "velocity": 109,
      "chip": "ym2612"
    },
    {
      "channel": 4,
      "note": 57,
      "start": 9.1245,
      "duration": 0.0254,
      "velocity": 109,
      "chip": "ym2612"
    },
    {
      "channel": 4,
      "note": 56,
      "start": 9.1499,
      "duration": 0.0127,
      "velocity": 109,
      "chip": "ym2612"
    },
    {
      "channel": 4,
      "note": 55,
      "start": 9.1626,
      "duration": 0.027,
      "velocity": 109,
      "chip": "ym2612"
    },
    {
      "channel": 4,
      "note": 54,
      "start": 9.1895,
      "duration": 0.0193,
      "velocity": 109,
      "chip": "ym2612"
    },
    {
      "channel": 3,
      "note": 67,
      "start": 9.2083,
      "duration": 0.0831,
      "velocity": 107,
      "chip": "ym2612"
    },
    {
      "channel": 4,
      "note": 53,
      "start": 9.2089,
      "duration": 0.014,
      "velocity": 109,
      "chip": "ym2612"
    },
    {
      "channel": 4,
      "note": 52,
      "start": 9.2229,
      "duration": 0.0167,
      "velocity": 109,
      "chip": "ym2612"
    },
    {
      "channel": 4,
      "note": 51,
      "start": 9.2395,
      "duration": 0.0167,
      "velocity": 109,
      "chip": "ym2612"
    },
    {
      "channel": 4,
      "note": 50,
      "start": 9.2562,
      "duration": 0.036,
      "velocity": 109,
      "chip": "ym2612"
    },
    {
      "channel": 3,
      "note": 67,
      "start": 9.2916,
      "duration": 0.0665,
      "velocity": 107,
      "chip": "ym2612"
    },
    {
      "channel": 4,
      "note": 49,
      "start": 9.2922,
      "duration": 0.014,
      "velocity": 109,
      "chip": "ym2612"
    },
    {
      "channel": 4,
      "note": 48,
      "start": 9.3062,
      "duration": 0.0167,
      "velocity": 109,
      "chip": "ym2612"
    },
    {
      "channel": 4,
      "note": 46,
      "start": 9.3229,
      "duration": 0.0167,
      "velocity": 109,
      "chip": "ym2612"
    },
    {
      "channel": 4,
      "note": 45,
      "start": 9.3395,
      "duration": 0.0197,
      "velocity": 109,
      "chip": "ym2612"
    },
    {
      "channel": 3,
      "note": 67,
      "start": 9.3583,
      "duration": 0.1299,
      "velocity": 107,
      "chip": "ym2612"
    },
    {
      "channel": 4,
      "note": 44,
      "start": 9.3592,
      "duration": 0.0229,
      "velocity": 109,
      "chip": "ym2612"
    },
    {
      "channel": 4,
      "note": 43,
      "start": 9.3821,
      "duration": 0.0127,
      "velocity": 109,
      "chip": "ym2612"
    },
    {
      "channel": 4,
      "note": 42,
      "start": 9.3948,
      "duration": 0.0122,
      "velocity": 109,
      "chip": "ym2612"
    },
    {
      "channel": 4,
      "note": 41,
      "start": 9.407,
      "duration": 0.0251,
      "velocity": 109,
      "chip": "ym2612"
    },
    {
      "channel": 4,
      "note": 40,
      "start": 9.4321,
      "duration": 0.0249,
      "velocity": 109,
      "chip": "ym2612"
    },
    {
      "channel": 4,
      "note": 39,
      "start": 9.457,
      "duration": 0.0126,
      "velocity": 109,
      "chip": "ym2612"
    },
    {
      "channel": 4,
      "note": 38,
      "start": 9.4695,
      "duration": 0.0197,
      "velocity": 109,
      "chip": "ym2612"
    },
    {
      "channel": 3,
      "note": 67,
      "start": 9.4883,
      "duration": 0.1303,
      "velocity": 107,
      "chip": "ym2612"
    },
    {
      "channel": 4,
      "note": 37,
      "start": 9.4893,
      "duration": 0.0103,
      "velocity": 109,
      "chip": "ym2612"
    },
    {
      "channel": 4,
      "note": 36,
      "start": 9.4996,
      "duration": 0.0124,
      "velocity": 109,
      "chip": "ym2612"
    },
    {
      "channel": 4,
      "note": 34,
      "start": 9.512,
      "duration": 0.0254,
      "velocity": 109,
      "chip": "ym2612"
    },
    {
      "channel": 4,
      "note": 33,
      "start": 9.5374,
      "duration": 0.0251,
      "velocity": 109,
      "chip": "ym2612"
    },
    {
      "channel": 4,
      "note": 32,
      "start": 9.5626,
      "duration": 0.0125,
      "velocity": 109,
      "chip": "ym2612"
    },
    {
      "channel": 4,
      "note": 31,
      "start": 9.5751,
      "duration": 0.0123,
      "velocity": 109,
      "chip": "ym2612"
    },
    {
      "channel": 4,
      "note": 30,
      "start": 9.5875,
      "duration": 0.0319,
      "velocity": 109,
      "chip": "ym2612"
    },
    {
      "channel": 3,
      "note": 67,
      "start": 9.6188,
      "duration": 0.0665,
      "velocity": 107,
      "chip": "ym2612"
    },
    {
      "channel": 4,
      "note": 29,
      "start": 9.6194,
      "duration": 0.014,
      "velocity": 109,
      "chip": "ym2612"
    },
    {
      "channel": 4,
      "note": 28,
      "start": 9.6334,
      "duration": 0.0167,
      "velocity": 109,
      "chip": "ym2612"
    },
    {
      "channel": 4,
      "note": 27,
      "start": 9.65,
      "duration": 0.0167,
      "velocity": 109,
      "chip": "ym2612"
    },
    {
      "channel": 4,
      "note": 26,
      "start": 9.6667,
      "duration": 0.0193,
      "velocity": 109,
      "chip": "ym2612"
    },
    {
      "channel": 3,
      "note": 67,
      "start": 9.6855,
      "duration": 0.0831,
      "velocity": 107,
      "chip": "ym2612"
    },
    {
      "channel": 4,
      "note": 25,
      "start": 9.686,
      "duration": 0.0307,
      "velocity": 109,
      "chip": "ym2612"
    },
    {
      "channel": 4,
      "note": 24,
      "start": 9.7167,
      "duration": 0.0167,
      "velocity": 109,
      "chip": "ym2612"
    },
    {
      "channel": 4,
      "note": 23,
      "start": 9.7334,
      "duration": 0.0167,
      "velocity": 109,
      "chip": "ym2612"
    },
    {
      "channel": 4,
      "note": 21,
      "start": 9.75,
      "duration": 0.0197,
      "velocity": 109,
      "chip": "ym2612"
    },
    {
      "channel": 3,
      "note": 67,
      "start": 9.7688,
      "duration": 0.13,
      "velocity": 107,
      "chip": "ym2612"
    },
    {
      "channel": 4,
      "note": 116,
      "start": 9.7697,
      "duration": 0.0103,
      "velocity": 109,
      "chip": "ym2612"
    },
    {
      "channel": 4,
      "note": 115,
      "start": 9.78,
      "duration": 0.0253,
      "velocity": 109,
      "chip": "ym2612"
    },
    {
      "channel": 4,
      "note": 114,
      "start": 9.8053,
      "duration": 0.0123,
      "velocity": 109,
      "chip": "ym2612"
    },
    {
      "channel": 4,
      "note": 113,
      "start": 9.8176,
      "duration": 0.0247,
      "velocity": 109,
      "chip": "ym2612"
    },
    {
      "channel": 4,
      "note": 112,
      "start": 9.8423,
      "duration": 0.0127,
      "velocity": 109,
      "chip": "ym2612"
    },
    {
      "channel": 4,
      "note": 111,
      "start": 9.855,
      "duration": 0.0255,
      "velocity": 109,
      "chip": "ym2612"
    },
    {
      "channel": 4,
      "note": 110,
      "start": 9.8805,
      "duration": 0.0194,
      "velocity": 109,
      "chip": "ym2612"
    },
    {
      "channel": 3,
      "note": 67,
      "start": 9.8989,
      "duration": 0.1154,
      "velocity": 107,
      "chip": "ym2612"
    },
    {
      "channel": 4,
      "note": 109,
      "start": 9.8999,
      "duration": 0.0103,
      "velocity": 109,
      "chip": "ym2612"
    },
    {
      "channel": 4,
      "note": 108,
      "start": 9.9102,
      "duration": 0.0124,
      "velocity": 109,
      "chip": "ym2612"
    },
    {
      "channel": 4,
      "note": 107,
      "start": 9.9226,
      "duration": 0.0124,
      "velocity": 109,
      "chip": "ym2612"
    },
    {
      "channel": 4,
      "note": 105,
      "start": 9.9351,
      "duration": 0.0376,
      "velocity": 109,
      "chip": "ym2612"
    },
    {
      "channel": 4,
      "note": 104,
      "start": 9.9727,
      "duration": 0.0129,
      "velocity": 109,
      "chip": "ym2612"
    },
    {
      "channel": 4,
      "note": 103,
      "start": 9.9855,
      "duration": 0.0125,
      "velocity": 109,
      "chip": "ym2612"
    },
    {
      "channel": 4,
      "note": 102,
      "start": 9.9981,
      "duration": 0.0171,
      "velocity": 109,
      "chip": "ym2612"
    },
    {
      "channel": 3,
      "note": 67,
      "start": 10.0146,
      "duration": 0.0831,
      "velocity": 107,
      "chip": "ym2612"
    },
    {
      "channel": 4,
      "note": 101,
      "start": 10.0151,
      "duration": 0.0307,
      "velocity": 109,
      "chip": "ym2612"
    },
    {
      "channel": 4,
      "note": 100,
      "start": 10.0458,
      "duration": 0.0167,
      "velocity": 109,
      "chip": "ym2612"
    },
    {
      "channel": 4,
      "note": 99,
      "start": 10.0624,
      "duration": 0.0167,
      "velocity": 109,
      "chip": "ym2612"
    },
    {
      "channel": 4,
      "note": 98,
      "start": 10.0791,
      "duration": 0.0193,
      "velocity": 109,
      "chip": "ym2612"
    },
    {
      "channel": 3,
      "note": 67,
      "start": 10.0979,
      "duration": 0.0831,
      "velocity": 107,
      "chip": "ym2612"
    },
    {
      "channel": 4,
      "note": 97,
      "start": 10.0985,
      "duration": 0.014,
      "velocity": 109,
      "chip": "ym2612"
    },
    {
      "channel": 4,
      "note": 96,
      "start": 10.1124,
      "duration": 0.0333,
      "velocity": 109,
      "chip": "ym2612"
    },
    {
      "channel": 4,
      "note": 95,
      "start": 10.1458,
      "duration": 0.0167,
      "velocity": 109,
      "chip": "ym2612"
    },
    {
      "channel": 4,
      "note": 93,
      "start": 10.1624,
      "duration": 0.0197,
      "velocity": 109,
      "chip": "ym2612"
    },
    {
      "channel": 3,
      "note": 67,
      "start": 10.1812,
      "duration": 0.1315,
      "velocity": 107,
      "chip": "ym2612"
    },
    {
      "channel": 4,
      "note": 92,
      "start": 10.1821,
      "duration": 0.0103,
      "velocity": 109,
      "chip": "ym2612"
    },
    {
      "channel": 4,
      "note": 91,
      "start": 10.1924,
      "duration": 0.0127,
      "velocity": 109,
      "chip": "ym2612"
    },
    {
      "channel": 4,
      "note": 90,
      "start": 10.2051,
      "duration": 0.0253,
      "velocity": 109,
      "chip": "ym2612"
    },
    {
      "channel": 4,
      "note": 89,
      "start": 10.2304,
      "duration": 0.025,
      "velocity": 109,
      "chip": "ym2612"
    },
    {
      "channel": 4,
      "note": 88,
      "start": 10.2554,
      "duration": 0.0123,
      "velocity": 109,
      "chip": "ym2612"
    },
    {
      "channel": 4,
      "note": 87,
      "start": 10.2677,
      "duration": 0.0127,
      "velocity": 109,
      "chip": "ym2612"
    },
    {
      "channel": 4,
      "note": 86,
      "start": 10.2804,
      "duration": 0.0333,
      "velocity": 109,
      "chip": "ym2612"
    },
    {
      "channel": 0,
      "note": 63,
      "start": 10.3101,
      "duration": 0.1135,
      "velocity": 121,
      "chip": "ym2612"
    },
    {
      "channel": 1,
      "note": 51,
      "start": 10.3106,
      "duration": 0.1135,
      "velocity": 112,
      "chip": "ym2612"
    },
    {
      "channel": 3,
      "note": 67,
      "start": 10.3129,
      "duration": 0.1134,
      "velocity": 107,
      "chip": "ym2612"
    },
    {
      "channel": 4,
      "note": 85,
      "start": 10.3138,
      "duration": 0.0094,
      "velocity": 109,
      "chip": "ym2612"
    },
    {
      "channel": 4,
      "note": 84,
      "start": 10.3232,
      "duration": 0.0127,
      "velocity": 109,
      "chip": "ym2612"
    },
    {
      "channel": 4,
      "note": 83,
      "start": 10.3359,
      "duration": 0.0124,
      "velocity": 109,
      "chip": "ym2612"
    },
    {
      "channel": 4,
      "note": 81,
      "start": 10.3483,
      "duration": 0.0376,
      "velocity": 109,
      "chip": "ym2612"
    },
    {
      "channel": 4,
      "note": 80,
      "start": 10.386,
      "duration": 0.0122,
      "velocity": 109,
      "chip": "ym2612"
    },
    {
      "channel": 4,
      "note": 79,
      "start": 10.3981,
      "duration": 0.0125,
      "velocity": 109,
      "chip": "ym2612"
    },
    {
      "channel": 4,
      "note": 78,
      "start": 10.4106,
      "duration": 0.0163,
      "velocity": 109,
      "chip": "ym2612"
    },
    {
      "channel": 0,
      "note": 62,
      "start": 10.4238,
      "duration": 0.1271,
      "velocity": 121,
      "chip": "ym2612"
    },
    {
      "channel": 1,
      "note": 50,
      "start": 10.4243,
      "duration": 0.1272,
      "velocity": 112,
      "chip": "ym2612"
    },
    {
      "channel": 3,
      "note": 67,
      "start": 10.4265,
      "duration": 0.0626,
      "velocity": 107,
      "chip": "ym2612"
    },
    {
      "channel": 4,
      "note": 74,
      "start": 10.4271,
      "duration": 0.0008,
      "velocity": 109,
      "chip": "ym2612"
    },
    {
      "channel": 4,
      "note": 73,
      "start": 10.428,
      "duration": 0.0093,
      "velocity": 109,
      "chip": "ym2612"
    },
    {
      "channel": 4,
      "note": 72,
      "start": 10.4372,
      "duration": 0.0247,
      "velocity": 109,
      "chip": "ym2612"
    },
    {
      "channel": 4,
      "note": 70,
      "start": 10.4619,
      "duration": 0.0125,
      "velocity": 109,
      "chip": "ym2612"
    },
    {
      "channel": 4,
      "note": 69,
      "start": 10.4744,
      "duration": 0.0158,
      "velocity": 109,
      "chip": "ym2612"
    },
    {
      "channel": 3,
      "note": 67,
      "start": 10.4893,
      "duration": 0.0643,
      "velocity": 107,
      "chip": "ym2612"
    },
    {
      "channel": 4,
      "note": 68,
      "start": 10.4902,
      "duration": 0.0103,
      "velocity": 109,
      "chip": "ym2612"
    },
    {
      "channel": 4,
      "note": 67,
      "start": 10.5005,
      "duration": 0.0127,
      "velocity": 109,
      "chip": "ym2612"
    },
    {
      "channel": 4,
      "note": 66,
      "start": 10.5132,
      "duration": 0.025,
      "velocity": 109,
      "chip": "ym2612"
    },
    {
      "channel": 4,
      "note": 65,
      "start": 10.5382,
      "duration": 0.016,
      "velocity": 109,
      "chip": "ym2612"
    },
    {
      "channel": 0,
      "note": 58,
      "start": 10.5511,
      "duration": 0.1145,
      "velocity": 121,
      "chip": "ym2612"
    },
    {
      "channel": 1,
      "note": 46,
      "start": 10.5516,
      "duration": 0.1146,
      "velocity": 112,
      "chip": "ym2612"
    },
    {
      "channel": 3,
      "note": 67,
      "start": 10.5538,
      "duration": 0.1145,
      "velocity": 107,
      "chip": "ym2612"
    },
    {
      "channel": 4,
      "note": 74,
      "start": 10.5544,
      "duration": 0.0008,
      "velocity": 109,
      "chip": "ym2612"
    },
    {
      "channel": 4,
      "note": 73,
      "start": 10.5552,
      "duration": 0.0093,
      "velocity": 109,
      "chip": "ym2612"
    },
    {
      "channel": 4,
      "note": 72,
      "start": 10.5645,
      "duration": 0.0127,
      "velocity": 109,
      "chip": "ym2612"
    },
    {
      "channel": 4,
      "note": 70,
      "start": 10.5772,
      "duration": 0.0124,
      "velocity": 109,
      "chip": "ym2612"
    },
    {
      "channel": 4,
      "note": 69,
      "start": 10.5896,
      "duration": 0.038,
      "velocity": 109,
      "chip": "ym2612"
    },
    {
      "channel": 4,
      "note": 68,
      "start": 10.6276,
      "duration": 0.0127,
      "velocity": 109,
      "chip": "ym2612"
    },
    {
      "channel": 4,
      "note": 67,
      "start": 10.6403,
      "duration": 0.0124,
      "velocity": 109,
      "chip": "ym2612"
    },
    {
      "channel": 4,
      "note": 66,
      "start": 10.6527,
      "duration": 0.0161,
      "velocity": 109,
      "chip": "ym2612"
    },
    {
      "channel": 0,
      "note": 63,
      "start": 10.6658,
      "duration": 0.1325,
      "velocity": 121,
      "chip": "ym2612"
    },
    {
      "channel": 1,
      "note": 51,
      "start": 10.6663,
      "duration": 0.1325,
      "velocity": 112,
      "chip": "ym2612"
    },
    {
      "channel": 3,
      "note": 67,
      "start": 10.6685,
      "duration": 0.1325,
      "velocity": 107,
      "chip": "ym2612"
    },
    {
      "channel": 4,
      "note": 69,
      "start": 10.6691,
      "duration": 0.0008,
      "velocity": 109,
      "chip": "ym2612"
    },
    {
      "channel": 4,
      "note": 68,
      "start": 10.6699,
      "duration": 0.0218,
      "velocity": 109,
      "chip": "ym2612"
    },
    {
      "channel": 4,
      "note": 67,
      "start": 10.6917,
      "duration": 0.0128,
      "velocity": 109,
      "chip": "ym2612"
    },
    {
      "channel": 4,
      "note": 66,
      "start": 10.7046,
      "duration": 0.0125,
      "velocity": 109,
      "chip": "ym2612"
    },
    {
      "channel": 4,
      "note": 65,
      "start": 10.7171,
      "duration": 0.0131,
      "velocity": 109,
      "chip": "ym2612"
    },
    {
      "channel": 4,
      "note": 69,
      "start": 10.7304,
      "duration": 0.0005,
      "velocity": 109,
      "chip": "ym2612"
    },
    {
      "channel": 4,
      "note": 68,
      "start": 10.7309,
      "duration": 0.0117,
      "velocity": 109,
      "chip": "ym2612"
    },
    {
      "channel": 4,
      "note": 67,
      "start": 10.7426,
      "duration": 0.0248,
      "velocity": 109,
      "chip": "ym2612"
    },
    {
      "channel": 4,
      "note": 66,
      "start": 10.7674,
      "duration": 0.0139,
      "velocity": 109,
      "chip": "ym2612"
    },
    {
      "channel": 4,
      "note": 65,
      "start": 10.7813,
      "duration": 0.0203,
      "velocity": 109,
      "chip": "ym2612"
    },
    {
      "channel": 0,
      "note": 62,
      "start": 10.7984,
      "duration": 0.1311,
      "velocity": 121,
      "chip": "ym2612"
    },
    {
      "channel": 1,
      "note": 50,
      "start": 10.799,
      "duration": 0.1311,
      "velocity": 112,
      "chip": "ym2612"
    },
    {
      "channel": 3,
      "note": 67,
      "start": 10.8012,
      "duration": 0.0621,
      "velocity": 107,
      "chip": "ym2612"
    },
    {
      "channel": 4,
      "note": 69,
      "start": 10.8017,
      "duration": 0.0009,
      "velocity": 109,
      "chip": "ym2612"
    },
    {
      "channel": 4,
      "note": 68,
      "start": 10.8026,
      "duration": 0.009,
      "velocity": 109,
      "chip": "ym2612"
    },
    {
      "channel": 4,
      "note": 67,
      "start": 10.8116,
      "duration": 0.0122,
      "velocity": 109,
      "chip": "ym2612"
    },
    {
      "channel": 4,
      "note": 66,
      "start": 10.8238,
      "duration": 0.0247,
      "velocity": 109,
      "chip": "ym2612"
    },
    {
      "channel": 4,
      "note": 65,
      "start": 10.8485,
      "duration": 0.0155,
      "velocity": 109,
      "chip": "ym2612"
    },
    {
      "channel": 3,
      "note": 67,
      "start": 10.8634,
      "duration": 0.0688,
      "velocity": 107,
      "chip": "ym2612"
    },
    {
      "channel": 4,
      "note": 64,
      "start": 10.864,
      "duration": 0.01,
      "velocity": 109,
      "chip": "ym2612"
    },
    {
      "channel": 4,
      "note": 63,
      "start": 10.8741,
      "duration": 0.0125,
      "velocity": 109,
      "chip": "ym2612"
    },
    {
      "channel": 4,
      "note": 62,
      "start": 10.8865,
      "duration": 0.0127,
      "velocity": 109,
      "chip": "ym2612"
    },
    {
      "channel": 4,
      "note": 61,
      "start": 10.8992,
      "duration": 0.0337,
      "velocity": 109,
      "chip": "ym2612"
    },
    {
      "channel": 0,
      "note": 56,
      "start": 10.9297,
      "duration": 0.1144,
      "velocity": 121,
      "chip": "ym2612"
    },
    {
      "channel": 1,
      "note": 44,
      "start": 10.9302,
      "duration": 0.1145,
      "velocity": 112,
      "chip": "ym2612"
    },
    {
      "channel": 3,
      "note": 67,
      "start": 10.9324,
      "duration": 0.1166,
      "velocity": 107,
      "chip": "ym2612"
    },
    {
      "channel": 4,
      "note": 69,
      "start": 10.933,
      "duration": 0.5231,
      "velocity": 109,
      "chip": "ym2612"
    },
    {
      "channel": 0,
      "note": 56,
      "start": 11.0443,
      "duration": 2.4136,
      "velocity": 121,
      "chip": "ym2612"
    },
    {
      "channel": 1,
      "note": 44,
      "start": 11.0449,
      "duration": 0.1292,
      "velocity": 112,
      "chip": "ym2612"
    },
    {
      "channel": 2,
      "note": 56,
      "start": 11.047,
      "duration": 1.5905,
      "velocity": 124,
      "chip": "ym2612"
    },
    {
      "channel": 3,
      "note": 67,
      "start": 11.0492,
      "duration": 0.127,
      "velocity": 107,
      "chip": "ym2612"
    },
    {
      "channel": 1,
      "note": 47,
      "start": 11.1742,
      "duration": 0.1499,
      "velocity": 112,
      "chip": "ym2612"
    },
    {
      "channel": 3,
      "note": 67,
      "start": 11.1764,
      "duration": 0.0826,
      "velocity": 107,
      "chip": "ym2612"
    },
    {
      "channel": 3,
      "note": 67,
      "start": 11.2592,
      "duration": 0.0671,
      "velocity": 107,
      "chip": "ym2612"
    },
    {
      "channel": 1,
      "note": 44,
      "start": 11.3242,
      "duration": 0.129,
      "velocity": 112,
      "chip": "ym2612"
    },
    {
      "channel": 3,
      "note": 67,
      "start": 11.3265,
      "duration": 0.1289,
      "velocity": 107,
      "chip": "ym2612"
    },
    {
      "channel": 1,
      "note": 50,
      "start": 11.4534,
      "duration": 0.132,
      "velocity": 112,
      "chip": "ym2612"
    },
    {
      "channel": 3,
      "note": 67,
      "start": 11.4556,
      "duration": 0.132,
      "velocity": 107,
      "chip": "ym2612"
    },
    {
      "channel": 4,
      "note": 74,
      "start": 11.4562,
      "duration": 0.0009,
      "velocity": 109,
      "chip": "ym2612"
    },
    {
      "channel": 4,
      "note": 73,
      "start": 11.4571,
      "duration": 0.0092,
      "velocity": 109,
      "chip": "ym2612"
    },
    {
      "channel": 4,
      "note": 72,
      "start": 11.4663,
      "duration": 0.0123,
      "velocity": 109,
      "chip": "ym2612"
    },
    {
      "channel": 4,
      "note": 70,
      "start": 11.4786,
      "duration": 0.0247,
      "velocity": 109,
      "chip": "ym2612"
    },
    {
      "channel": 4,
      "note": 69,
      "start": 11.5034,
      "duration": 0.0252,
      "velocity": 109,
      "chip": "ym2612"
    },
    {
      "channel": 4,
      "note": 68,
      "start": 11.5286,
      "duration": 0.0127,
      "velocity": 109,
      "chip": "ym2612"
    },
    {
      "channel": 4,
      "note": 67,
      "start": 11.5413,
      "duration": 0.0128,
      "velocity": 109,
      "chip": "ym2612"
    },
    {
      "channel": 4,
      "note": 66,
      "start": 11.5541,
      "duration": 0.034,
      "velocity": 109,
      "chip": "ym2612"
    },
    {
      "channel": 1,
      "note": 51,
      "start": 11.5855,
      "duration": 0.1499,
      "velocity": 112,
      "chip": "ym2612"
    },
    {
      "channel": 3,
      "note": 67,
      "start": 11.5878,
      "duration": 0.066,
      "velocity": 107,
      "chip": "ym2612"
    },
    {
      "channel": 4,
      "note": 69,
      "start": 11.5883,
      "duration": 0.0005,
      "velocity": 109,
      "chip": "ym2612"
    },
    {
      "channel": 4,
      "note": 68,
      "start": 11.5888,
      "duration": 0.0129,
      "velocity": 109,
      "chip": "ym2612"
    },
    {
      "channel": 4,
      "note": 67,
      "start": 11.6017,
      "duration": 0.0167,
      "velocity": 109,
      "chip": "ym2612"
    },
    {
      "channel": 4,
      "note": 66,
      "start": 11.6184,
      "duration": 0.0167,
      "velocity": 109,
      "chip": "ym2612"
    },
    {
      "channel": 4,
      "note": 65,
      "start": 11.6351,
      "duration": 0.0194,
      "velocity": 109,
      "chip": "ym2612"
    },
    {
      "channel": 3,
      "note": 67,
      "start": 11.6539,
      "duration": 0.0837,
      "velocity": 107,
      "chip": "ym2612"
    },
    {
      "channel": 4,
      "note": 64,
      "start": 11.6545,
      "duration": 0.0306,
      "velocity": 109,
      "chip": "ym2612"
    },
    {
      "channel": 4,
      "note": 63,
      "start": 11.6851,
      "duration": 0.0167,
      "velocity": 109,
      "chip": "ym2612"
    },
    {
      "channel": 4,
      "note": 62,
      "start": 11.7017,
      "duration": 0.0167,
      "velocity": 109,
      "chip": "ym2612"
    },
    {
      "channel": 4,
      "note": 61,
      "start": 11.7184,
      "duration": 0.0197,
      "velocity": 109,
      "chip": "ym2612"
    },
    {
      "channel": 1,
      "note": 47,
      "start": 11.7355,
      "duration": 0.1307,
      "velocity": 112,
      "chip": "ym2612"
    },
    {
      "channel": 3,
      "note": 67,
      "start": 11.7378,
      "duration": 0.1322,
      "velocity": 107,
      "chip": "ym2612"
    },
    {
      "channel": 4,
      "note": 69,
      "start": 11.7383,
      "duration": 0.0008,
      "velocity": 109,
      "chip": "ym2612"
    },
    {
      "channel": 4,
      "note": 68,
      "start": 11.7392,
      "duration": 0.0097,
      "velocity": 109,
      "chip": "ym2612"
    },
    {
      "channel": 4,
      "note": 67,
      "start": 11.7488,
      "duration": 0.0251,
      "velocity": 109,
      "chip": "ym2612"
    },
    {
      "channel": 4,
      "note": 66,
      "start": 11.7739,
      "duration": 0.0124,
      "velocity": 109,
      "chip": "ym2612"
    },
    {
      "channel": 4,
      "note": 65,
      "start": 11.7863,
      "duration": 0.0254,
      "velocity": 109,
      "chip": "ym2612"
    },
    {
      "channel": 4,
      "note": 64,
      "start": 11.8117,
      "duration": 0.0127,
      "velocity": 109,
      "chip": "ym2612"
    },
    {
      "channel": 4,
      "note": 63,
      "start": 11.8244,
      "duration": 0.0254,
      "velocity": 109,
      "chip": "ym2612"
    },
    {
      "channel": 4,
      "note": 62,
      "start": 11.8497,
      "duration": 0.0209,
      "velocity": 109,
      "chip": "ym2612"
    },
    {
      "channel": 1,
      "note": 44,
      "start": 11.8664,
      "duration": 0.1139,
      "velocity": 112,
      "chip": "ym2612"
    },
    {
      "channel": 3,
      "note": 67,
      "start": 11.8702,
      "duration": 0.1124,
      "velocity": 107,
      "chip": "ym2612"
    },
    {
      "channel": 4,
      "note": 74,
      "start": 11.8708,
      "duration": 0.0009,
      "velocity": 109,
      "chip": "ym2612"
    },
    {
      "channel": 4,
      "note": 73,
      "start": 11.8717,
      "duration": 0.0084,
      "velocity": 109,
      "chip": "ym2612"
    },
    {
      "channel": 4,
      "note": 72,
      "start": 11.8801,
      "duration": 0.0128,
      "velocity": 109,
      "chip": "ym2612"
    },
    {
      "channel": 4,
      "note": 70,
      "start": 11.8929,
      "duration": 0.0126,
      "velocity": 109,
      "chip": "ym2612"
    },
    {
      "channel": 4,
      "note": 69,
      "start": 11.9055,
      "duration": 0.0371,
      "velocity": 109,
      "chip": "ym2612"
    },
    {
      "channel": 4,
      "note": 68,
      "start": 11.9426,
      "duration": 0.0124,
      "velocity": 109,
      "chip": "ym2612"
    },
    {
      "channel": 4,
      "note": 67,
      "start": 11.955,
      "duration": 0.0122,
      "velocity": 109,
      "chip": "ym2612"
    },
    {
      "channel": 4,
      "note": 66,
      "start": 11.9672,
      "duration": 0.0159,
      "velocity": 109,
      "chip": "ym2612"
    },
    {
      "channel": 1,
      "note": 47,
      "start": 11.9806,
      "duration": 0.1277,
      "velocity": 112,
      "chip": "ym2612"
    },
    {
      "channel": 3,
      "note": 67,
      "start": 11.9828,
      "duration": 0.0633,
      "velocity": 107,
      "chip": "ym2612"
    },
    {
      "channel": 4,
      "note": 69,
      "start": 11.9834,
      "duration": 0.0008,
      "velocity": 109,
      "chip": "ym2612"
    },
    {
      "channel": 4,
      "note": 68,
      "start": 11.9842,
      "duration": 0.022,
      "velocity": 109,
      "chip": "ym2612"
    },
    {
      "channel": 4,
      "note": 67,
      "start": 12.0062,
      "duration": 0.0122,
      "velocity": 109,
      "chip": "ym2612"
    },
    {
      "channel": 4,
      "note": 66,
      "start": 12.0184,
      "duration": 0.0127,
      "velocity": 109,
      "chip": "ym2612"
    },
    {
      "channel": 4,
      "note": 65,
      "start": 12.0312,
      "duration": 0.0161,
      "velocity": 109,
      "chip": "ym2612"
    },
    {
      "channel": 3,
      "note": 67,
      "start": 12.0463,
      "duration": 0.0641,
      "velocity": 107,
      "chip": "ym2612"
    },
    {
      "channel": 4,
      "note": 64,
      "start": 12.0472,
      "duration": 0.0098,
      "velocity": 109,
      "chip": "ym2612"
    },
    {
      "channel": 4,
      "note": 63,
      "start": 12.057,
      "duration": 0.0251,
      "velocity": 109,
      "chip": "ym2612"
    },
    {
      "channel": 4,
      "note": 62,
      "start": 12.0821,
      "duration": 0.0128,
      "velocity": 109,
      "chip": "ym2612"
    },
    {
      "channel": 4,
      "note": 61,
      "start": 12.0949,
      "duration": 0.0161,
      "velocity": 109,
      "chip": "ym2612"
    },
    {
      "channel": 1,
      "note": 44,
      "start": 12.1084,
      "duration": 0.1298,
      "velocity": 112,
      "chip": "ym2612"
    },
    {
      "channel": 3,
      "note": 67,
      "start": 12.1106,
      "duration": 0.1298,
      "velocity": 107,
      "chip": "ym2612"
    },
    {
      "channel": 4,
      "note": 69,
      "start": 12.1112,
      "duration": 0.0008,
      "velocity": 109,
      "chip": "ym2612"
    },
    {
      "channel": 4,
      "note": 68,
      "start": 12.112,
      "duration": 0.0097,
      "velocity": 109,
      "chip": "ym2612"
    },
    {
      "channel": 4,
      "note": 67,
      "start": 12.1217,
      "duration": 0.0128,
      "velocity": 109,
      "chip": "ym2612"
    },
    {
      "channel": 4,
      "note": 66,
      "start": 12.1345,
      "duration": 0.0248,
      "velocity": 109,
      "chip": "ym2612"
    },
    {
      "channel": 4,
      "note": 65,
      "start": 12.1594,
      "duration": 0.0249,
      "velocity": 109,
      "chip": "ym2612"
    },
    {
      "channel": 4,
      "note": 64,
      "start": 12.1842,
      "duration": 0.0125,
      "velocity": 109,
      "chip": "ym2612"
    },
    {
      "channel": 4,
      "note": 63,
      "start": 12.1968,
      "duration": 0.0125,
      "velocity": 109,
      "chip": "ym2612"
    },
    {
      "channel": 4,
      "note": 62,
      "start": 12.2093,
      "duration": 0.0322,
      "velocity": 109,
      "chip": "ym2612"
    },
    {
      "channel": 1,
      "note": 54,
      "start": 12.2384,
      "duration": 0.116,
      "velocity": 112,
      "chip": "ym2612"
    },
    {
      "channel": 3,
      "note": 67,
      "start": 12.2405,
      "duration": 0.116,
      "velocity": 107,
      "chip": "ym2612"
    },
    {
      "channel": 4,
      "note": 61,
      "start": 12.2415,
      "duration": 0.01,
      "velocity": 109,
      "chip": "ym2612"
    },
    {
      "channel": 4,
      "note": 60,
      "start": 12.2514,
      "duration": 0.0127,
      "velocity": 109,
      "chip": "ym2612"
    },
    {
      "channel": 4,
      "note": 58,
      "start": 12.2641,
      "duration": 0.0126,
      "velocity": 109,
      "chip": "ym2612"
    },
    {
      "channel": 4,
      "note": 57,
      "start": 12.2767,
      "duration": 0.0376,
      "velocity": 109,
      "chip": "ym2612"
    },
    {
      "channel": 4,
      "note": 56,
      "start": 12.3142,
      "duration": 0.0128,
      "velocity": 109,
      "chip": "ym2612"
    },
    {
      "channel": 4,
      "note": 55,
      "start": 12.3271,
      "duration": 0.0127,
      "velocity": 109,
      "chip": "ym2612"
    },
    {
      "channel": 4,
      "note": 54,
      "start": 12.3398,
      "duration": 0.0176,
      "velocity": 109,
      "chip": "ym2612"
    },
    {
      "channel": 1,
      "note": 53,
      "start": 12.3546,
      "duration": 0.1665,
      "velocity": 112,
      "chip": "ym2612"
    },
    {
      "channel": 3,
      "note": 67,
      "start": 12.3567,
      "duration": 0.0826,
      "velocity": 107,
      "chip": "ym2612"
    },
    {
      "channel": 4,
      "note": 53,
      "start": 12.3573,
      "duration": 0.0134,
      "velocity": 109,
      "chip": "ym2612"
    },
    {
      "channel": 4,
      "note": 52,
      "start": 12.3708,
      "duration": 0.0333,
      "velocity": 109,
      "chip": "ym2612"
    },
    {
      "channel": 4,
      "note": 51,
      "start": 12.4041,
      "duration": 0.0167,
      "velocity": 109,
      "chip": "ym2612"
    },
    {
      "channel": 4,
      "note": 50,
      "start": 12.4208,
      "duration": 0.0194,
      "velocity": 109,
      "chip": "ym2612"
    },
    {
      "channel": 3,
      "note": 67,
      "start": 12.4395,
      "duration": 0.0837,
      "velocity": 107,
      "chip": "ym2612"
    },
    {
      "channel": 4,
      "note": 49,
      "start": 12.4402,
      "duration": 0.0139,
      "velocity": 109,
      "chip": "ym2612"
    },
    {
      "channel": 4,
      "note": 48,
      "start": 12.4541,
      "duration": 0.0167,
      "velocity": 109,
      "chip": "ym2612"
    },
    {
      "channel": 4,
      "note": 46,
      "start": 12.4708,
      "duration": 0.0333,
      "velocity": 109,
      "chip": "ym2612"
    },
    {
      "channel": 4,
      "note": 45,
      "start": 12.5041,
      "duration": 0.0202,
      "velocity": 109,
      "chip": "ym2612"
    },
    {
      "channel": 1,
      "note": 47,
      "start": 12.5212,
      "duration": 0.1142,
      "velocity": 112,
      "chip": "ym2612"
    },
    {
      "channel": 3,
      "note": 67,
      "start": 12.5234,
      "duration": 0.1163,
      "velocity": 107,
      "chip": "ym2612"
    },
    {
      "channel": 4,
      "note": 44,
      "start": 12.5243,
      "duration": 0.0098,
      "velocity": 109,
      "chip": "ym2612"
    },
    {
      "channel": 4,
      "note": 43,
      "start": 12.5341,
      "duration": 0.0124,
      "velocity": 109,
      "chip": "ym2612"
    },
    {
      "channel": 4,
      "note": 42,
      "start": 12.5465,
      "duration": 0.0124,
      "velocity": 109,
      "chip": "ym2612"
    },
    {
      "channel": 4,
      "note": 41,
      "start": 12.559,
      "duration": 0.0379,
      "velocity": 109,
      "chip": "ym2612"
    },
    {
      "channel": 4,
      "note": 40,
      "start": 12.5968,
      "duration": 0.0127,
      "velocity": 109,
      "chip": "ym2612"
    },
    {
      "channel": 4,
      "note": 39,
      "start": 12.6095,
      "duration": 0.0126,
      "velocity": 109,
      "chip": "ym2612"
    },
    {
      "channel": 4,
      "note": 38,
      "start": 12.6221,
      "duration": 0.0186,
      "velocity": 109,
      "chip": "ym2612"
    },
    {
      "channel": 1,
      "note": 44,
      "start": 12.6356,
      "duration": 0.1297,
      "velocity": 112,
      "chip": "ym2612"
    },
    {
      "channel": 2,
      "note": 61,
      "start": 12.6377,
      "duration": 1.5772,
      "velocity": 124,
      "chip": "ym2612"
    },
    {
      "channel": 3,
      "note": 67,
      "start": 12.6399,
      "duration": 0.1276,
      "velocity": 107,
      "chip": "ym2612"
    },
    {
      "channel": 4,
      "note": 37,
      "start": 12.6407,
      "duration": 0.0204,
      "velocity": 109,
      "chip": "ym2612"
    },
    {
      "channel": 4,
      "note": 36,
      "start": 12.6611,
      "duration": 0.0122,
      "velocity": 109,
      "chip": "ym2612"
    },
    {
      "channel": 4,
      "note": 34,
      "start": 12.6733,
      "duration": 0.0125,
      "velocity": 109,
      "chip": "ym2612"
    },
    {
      "channel": 4,
      "note": 33,
      "start": 12.6858,
      "duration": 0.0254,
      "velocity": 109,
      "chip": "ym2612"
    },
    {
      "channel": 4,
      "note": 32,
      "start": 12.7112,
      "duration": 0.0251,
      "velocity": 109,
      "chip": "ym2612"
    },
    {
      "channel": 4,
      "note": 31,
      "start": 12.7364,
      "duration": 0.0126,
      "velocity": 109,
      "chip": "ym2612"
    },
    {
      "channel": 4,
      "note": 30,
      "start": 12.749,
      "duration": 0.0193,
      "velocity": 109,
      "chip": "ym2612"
    },
    {
      "channel": 1,
      "note": 47,
      "start": 12.7654,
      "duration": 0.1666,
      "velocity": 112,
      "chip": "ym2612"
    },
    {
      "channel": 3,
      "note": 67,
      "start": 12.7677,
      "duration": 0.0826,
      "velocity": 107,
      "chip": "ym2612"
    },
    {
      "channel": 4,
      "note": 29,
      "start": 12.7683,
      "duration": 0.0135,
      "velocity": 109,
      "chip": "ym2612"
    },
    {
      "channel": 4,
      "note": 28,
      "start": 12.7817,
      "duration": 0.0167,
      "velocity": 109,
      "chip": "ym2612"
    },
    {
      "channel": 4,
      "note": 27,
      "start": 12.7984,
      "duration": 0.0333,
      "velocity": 109,
      "chip": "ym2612"
    },
    {
      "channel": 4,
      "note": 26,
      "start": 12.8317,
      "duration": 0.0194,
      "velocity": 109,
      "chip": "ym2612"
    },
    {
      "channel": 3,
      "note": 67,
      "start": 12.8505,
      "duration": 0.0837,
      "velocity": 107,
      "chip": "ym2612"
    },
    {
      "channel": 4,
      "note": 25,
      "start": 12.8511,
      "duration": 0.0139,
      "velocity": 109,
      "chip": "ym2612"
    },
    {
      "channel": 4,
      "note": 24,
      "start": 12.8651,
      "duration": 0.0167,
      "velocity": 109,
      "chip": "ym2612"
    },
    {
      "channel": 4,
      "note": 23,
      "start": 12.8817,
      "duration": 0.0167,
      "velocity": 109,
      "chip": "ym2612"
    },
    {
      "channel": 4,
      "note": 21,
      "start": 12.8984,
      "duration": 0.0369,
      "velocity": 109,
      "chip": "ym2612"
    },
    {
      "channel": 1,
      "note": 44,
      "start": 12.9322,
      "duration": 0.1145,
      "velocity": 112,
      "chip": "ym2612"
    },
    {
      "channel": 3,
      "note": 67,
      "start": 12.9344,
      "duration": 0.1145,
      "velocity": 107,
      "chip": "ym2612"
    },
    {
      "channel": 4,
      "note": 116,
      "start": 12.9353,
      "duration": 0.01,
      "velocity": 109,
      "chip": "ym2612"
    },
    {
      "channel": 4,
      "note": 115,
      "start": 12.9453,
      "duration": 0.0125,
      "velocity": 109,
      "chip": "ym2612"
    },
    {
      "channel": 4,
      "note": 114,
      "start": 12.9578,
      "duration": 0.0125,
      "velocity": 109,
      "chip": "ym2612"
    },
    {
      "channel": 4,
      "note": 113,
      "start": 12.9703,
      "duration": 0.0377,
      "velocity": 109,
      "chip": "ym2612"
    },
    {
      "channel": 4,
      "note": 112,
      "start": 13.008,
      "duration": 0.0128,
      "velocity": 109,
      "chip": "ym2612"
    },
    {
      "channel": 4,
      "note": 111,
      "start": 13.0208,
      "duration": 0.0127,
      "velocity": 109,
      "chip": "ym2612"
    },
    {
      "channel": 4,
      "note": 110,
      "start": 13.0335,
      "duration": 0.0165,
      "velocity": 109,
      "chip": "ym2612"
    },
    {
      "channel": 1,
      "note": 50,
      "start": 13.0469,
      "duration": 0.132,
      "velocity": 112,
      "chip": "ym2612"
    },
    {
      "channel": 3,
      "note": 67,
      "start": 13.0491,
      "duration": 0.1319,
      "velocity": 107,
      "chip": "ym2612"
    },
    {
      "channel": 4,
      "note": 109,
      "start": 13.05,
      "duration": 0.0097,
      "velocity": 109,
      "chip": "ym2612"
    },
    {
      "channel": 4,
      "note": 108,
      "start": 13.0597,
      "duration": 0.0249,
      "velocity": 109,
      "chip": "ym2612"
    },
    {
      "channel": 4,
      "note": 107,
      "start": 13.0846,
      "duration": 0.0124,
      "velocity": 109,
      "chip": "ym2612"
    },
    {
      "channel": 4,
      "note": 105,
      "start": 13.0971,
      "duration": 0.025,
      "velocity": 109,
      "chip": "ym2612"
    },
    {
      "channel": 4,
      "note": 104,
      "start": 13.1221,
      "duration": 0.0128,
      "velocity": 109,
      "chip": "ym2612"
    },
    {
      "channel": 4,
      "note": 103,
      "start": 13.1349,
      "duration": 0.0271,
      "velocity": 109,
      "chip": "ym2612"
    },
    {
      "channel": 4,
      "note": 102,
      "start": 13.162,
      "duration": 0.0199,
      "velocity": 109,
      "chip": "ym2612"
    },
    {
      "channel": 1,
      "note": 51,
      "start": 13.179,
      "duration": 0.1499,
      "velocity": 112,
      "chip": "ym2612"
    },
    {
      "channel": 3,
      "note": 67,
      "start": 13.1812,
      "duration": 0.0827,
      "velocity": 107,
      "chip": "ym2612"
    },
    {
      "channel": 4,
      "note": 101,
      "start": 13.1818,
      "duration": 0.0135,
      "velocity": 109,
      "chip": "ym2612"
    },
    {
      "channel": 4,
      "note": 100,
      "start": 13.1953,
      "duration": 0.0167,
      "velocity": 109,
      "chip": "ym2612"
    },
    {
      "channel": 4,
      "note": 99,
      "start": 13.212,
      "duration": 0.0167,
      "velocity": 109,
      "chip": "ym2612"
    },
    {
      "channel": 4,
      "note": 98,
      "start": 13.2286,
      "duration": 0.0361,
      "velocity": 109,
      "chip": "ym2612"
    },
    {
      "channel": 3,
      "note": 67,
      "start": 13.2641,
      "duration": 0.0671,
      "velocity": 107,
      "chip": "ym2612"
    },
    {
      "channel": 4,
      "note": 97,
      "start": 13.2647,
      "duration": 0.0139,
      "velocity": 109,
      "chip": "ym2612"
    },
    {
      "channel": 4,
      "note": 96,
      "start": 13.2786,
      "duration": 0.0167,
      "velocity": 109,
      "chip": "ym2612"
    },
    {
      "channel": 4,
      "note": 95,
      "start": 13.2953,
      "duration": 0.0167,
      "velocity": 109,
      "chip": "ym2612"
    },
    {
      "channel": 4,
      "note": 93,
      "start": 13.312,
      "duration": 0.0202,
      "velocity": 109,
      "chip": "ym2612"
    },
    {
      "channel": 1,
      "note": 43,
      "start": 13.3291,
      "duration": 0.1294,
      "velocity": 112,
      "chip": "ym2612"
    },
    {
      "channel": 3,
      "note": 67,
      "start": 13.3312,
      "duration": 0.131,
      "velocity": 107,
      "chip": "ym2612"
    },
    {
      "channel": 4,
      "note": 92,
      "start": 13.3322,
      "duration": 0.0222,
      "velocity": 109,
      "chip": "ym2612"
    },
    {
      "channel": 4,
      "note": 91,
      "start": 13.3543,
      "duration": 0.0124,
      "velocity": 109,
      "chip": "ym2612"
    },
    {
      "channel": 4,
      "note": 90,
      "start": 13.3668,
      "duration": 0.0122,
      "velocity": 109,
      "chip": "ym2612"
    },
    {
      "channel": 4,
      "note": 89,
      "start": 13.3789,
      "duration": 0.0252,
      "velocity": 109,
      "chip": "ym2612"
    },
    {
      "channel": 4,
      "note": 88,
      "start": 13.4042,
      "duration": 0.0247,
      "velocity": 109,
      "chip": "ym2612"
    },
    {
      "channel": 4,
      "note": 87,
      "start": 13.4289,
      "duration": 0.0123,
      "velocity": 109,
      "chip": "ym2612"
    },
    {
      "channel": 4,
      "note": 86,
      "start": 13.4411,
      "duration": 0.0222,
      "velocity": 109,
      "chip": "ym2612"
    },
    {
      "channel": 0,
      "note": 64,
      "start": 13.4581,
      "duration": 0.1292,
      "velocity": 121,
      "chip": "ym2612"
    },
    {
      "channel": 1,
      "note": 52,
      "start": 13.4586,
      "duration": 0.1292,
      "velocity": 112,
      "chip": "ym2612"
    },
    {
      "channel": 3,
      "note": 67,
      "start": 13.4624,
      "duration": 0.1276,
      "velocity": 107,
      "chip": "ym2612"
    },
    {
      "channel": 4,
      "note": 85,
      "start": 13.4633,
      "duration": 0.008,
      "velocity": 109,
      "chip": "ym2612"
    },
    {
      "channel": 4,
      "note": 84,
      "start": 13.4713,
      "duration": 0.0124,
      "velocity": 109,
      "chip": "ym2612"
    },
    {
      "channel": 4,
      "note": 83,
      "start": 13.4837,
      "duration": 0.0248,
      "velocity": 109,
      "chip": "ym2612"
    },
    {
      "channel": 4,
      "note": 81,
      "start": 13.5085,
      "duration": 0.0251,
      "velocity": 109,
      "chip": "ym2612"
    },
    {
      "channel": 4,
      "note": 80,
      "start": 13.5337,
      "duration": 0.0127,
      "velocity": 109,
      "chip": "ym2612"
    },
    {
      "channel": 4,
      "note": 79,
      "start": 13.5464,
      "duration": 0.0126,
      "velocity": 109,
      "chip": "ym2612"
    },
    {
      "channel": 4,
      "note": 78,
      "start": 13.559,
      "duration": 0.0317,
      "velocity": 109,
      "chip": "ym2612"
    },
    {
      "channel": 0,
      "note": 63,
      "start": 13.5875,
      "duration": 0.1149,
      "velocity": 121,
      "chip": "ym2612"
    },
    {
      "channel": 1,
      "note": 51,
      "start": 13.588,
      "duration": 0.1149,
      "velocity": 112,
      "chip": "ym2612"
    },
    {
      "channel": 3,
      "note": 67,
      "start": 13.5902,
      "duration": 0.0501,
      "velocity": 107,
      "chip": "ym2612"
    },
    {
      "channel": 4,
      "note": 74,
      "start": 13.5908,
      "duration": 0.0009,
      "velocity": 109,
      "chip": "ym2612"
    },
    {
      "channel": 4,
      "note": 73,
      "start": 13.5917,
      "duration": 0.0089,
      "velocity": 109,
      "chip": "ym2612"
    },
    {
      "channel": 4,
      "note": 72,
      "start": 13.6007,
      "duration": 0.0123,
      "velocity": 109,
      "chip": "ym2612"
    },
    {
      "channel": 4,
      "note": 70,
      "start": 13.613,
      "duration": 0.0127,
      "velocity": 109,
      "chip": "ym2612"
    },
    {
      "channel": 4,
      "note": 69,
      "start": 13.6257,
      "duration": 0.0157,
      "velocity": 109,
      "chip": "ym2612"
    },
    {
      "channel": 3,
      "note": 67,
      "start": 13.6405,
      "duration": 0.0646,
      "velocity": 107,
      "chip": "ym2612"
    },
    {
      "channel": 4,
      "note": 68,
      "start": 13.6414,
      "duration": 0.0228,
      "velocity": 109,
      "chip": "ym2612"
    },
    {
      "channel": 4,
      "note": 67,
      "start": 13.6642,
      "duration": 0.0124,
      "velocity": 109,
      "chip": "ym2612"
    },
    {
      "channel": 4,
      "note": 66,
      "start": 13.6766,
      "duration": 0.0124,
      "velocity": 109,
      "chip": "ym2612"
    },
    {
      "channel": 4,
      "note": 65,
      "start": 13.689,
      "duration": 0.0166,
      "velocity": 109,
      "chip": "ym2612"
    },
    {
      "channel": 0,
      "note": 59,
      "start": 13.7025,
      "duration": 0.1305,
      "velocity": 121,
      "chip": "ym2612"
    },
    {
      "channel": 1,
      "note": 47,
      "start": 13.7031,
      "duration": 0.1305,
      "velocity": 112,
      "chip": "ym2612"
    },
    {
      "channel": 3,
      "note": 67,
      "start": 13.7053,
      "duration": 0.1304,
      "velocity": 107,
      "chip": "ym2612"
    },
    {
      "channel": 4,
      "note": 74,
      "start": 13.7059,
      "duration": 0.0008,
      "velocity": 109,
      "chip": "ym2612"
    },
    {
      "channel": 4,
      "note": 73,
      "start": 13.7067,
      "duration": 0.0089,
      "velocity": 109,
      "chip": "ym2612"
    },
    {
      "channel": 4,
      "note": 72,
      "start": 13.7156,
      "duration": 0.0253,
      "velocity": 109,
      "chip": "ym2612"
    },
    {
      "channel": 4,
      "note": 70,
      "start": 13.741,
      "duration": 0.0127,
      "velocity": 109,
      "chip": "ym2612"
    },
    {
      "channel": 4,
      "note": 69,
      "start": 13.7537,
      "duration": 0.0253,
      "velocity": 109,
      "chip": "ym2612"
    },
    {
      "channel": 4,
      "note": 68,
      "start": 13.779,
      "duration": 0.0124,
      "velocity": 109,
      "chip": "ym2612"
    },
    {
      "channel": 4,
      "note": 67,
      "start": 13.7915,
      "duration": 0.0255,
      "velocity": 109,
      "chip": "ym2612"
    },
    {
      "channel": 4,
      "note": 66,
      "start": 13.8169,
      "duration": 0.0194,
      "velocity": 109,
      "chip": "ym2612"
    },
    {
      "channel": 0,
      "note": 64,
      "start": 13.8332,
      "duration": 0.1149,
      "velocity": 121,
      "chip": "ym2612"
    },
    {
      "channel": 1,
      "note": 52,
      "start": 13.8337,
      "duration": 0.1149,
      "velocity": 112,
      "chip": "ym2612"
    },
    {
      "channel": 3,
      "note": 67,
      "start": 13.8359,
      "duration": 0.1148,
      "velocity": 107,
      "chip": "ym2612"
    },
    {
      "channel": 4,
      "note": 69,
      "start": 13.8365,
      "duration": 0.0009,
      "velocity": 109,
      "chip": "ym2612"
    },
    {
      "channel": 4,
      "note": 68,
      "start": 13.8373,
      "duration": 0.009,
      "velocity": 109,
      "chip": "ym2612"
    },
    {
      "channel": 4,
      "note": 67,
      "start": 13.8463,
      "duration": 0.0122,
      "velocity": 109,
      "chip": "ym2612"
    },
    {
      "channel": 4,
      "note": 66,
      "start": 13.8585,
      "duration": 0.0125,
      "velocity": 109,
      "chip": "ym2612"
    },
    {
      "channel": 4,
      "note": 65,
      "start": 13.871,
      "duration": 0.0256,
      "velocity": 109,
      "chip": "ym2612"
    },
    {
      "channel": 4,
      "note": 69,
      "start": 13.8968,
      "duration": 0.0006,
      "velocity": 109,
      "chip": "ym2612"
    },
    {
      "channel": 4,
      "note": 68,
      "start": 13.8973,
      "duration": 0.0117,
      "velocity": 109,
      "chip": "ym2612"
    },
    {
      "channel": 4,
      "note": 67,
      "start": 13.909,
      "duration": 0.0125,
      "velocity": 109,
      "chip": "ym2612"
    },
    {
      "channel": 4,
      "note": 66,
      "start": 13.9215,
      "duration": 0.0125,
      "velocity": 109,
      "chip": "ym2612"
    },
    {
      "channel": 4,
      "note": 65,
      "start": 13.934,
      "duration": 0.0173,
      "velocity": 109,
      "chip": "ym2612"
    },
    {
      "channel": 0,
      "note": 63,
      "start": 13.9482,
      "duration": 0.1324,
      "velocity": 121,
      "chip": "ym2612"
    },
    {
      "channel": 1,
      "note": 51,
      "start": 13.9487,
      "duration": 0.1325,
      "velocity": 112,
      "chip": "ym2612"
    },
    {
      "channel": 3,
      "note": 67,
      "start": 13.9509,
      "duration": 0.0629,
      "velocity": 107,
      "chip": "ym2612"
    },
    {
      "channel": 4,
      "note": 69,
      "start": 13.9515,
      "duration": 0.0008,
      "velocity": 109,
      "chip": "ym2612"
    },
    {
      "channel": 4,
      "note": 68,
      "start": 13.9523,
      "duration": 0.0218,
      "velocity": 109,
      "chip": "ym2612"
    },
    {
      "channel": 4,
      "note": 67,
      "start": 13.9741,
      "duration": 0.0125,
      "velocity": 109,
      "chip": "ym2612"
    },
    {
      "channel": 4,
      "note": 66,
      "start": 13.9866,
      "duration": 0.0127,
      "velocity": 109,
      "chip": "ym2612"
    },
    {
      "channel": 4,
      "note": 65,
      "start": 13.9993,
      "duration": 0.0154,
      "velocity": 109,
      "chip": "ym2612"
    },
    {
      "channel": 3,
      "note": 67,
      "start": 14.014,
      "duration": 0.0693,
      "velocity": 107,
      "chip": "ym2612"
    },
    {
      "channel": 4,
      "note": 64,
      "start": 14.0147,
      "duration": 0.0105,
      "velocity": 109,
      "chip": "ym2612"
    },
    {
      "channel": 4,
      "note": 63,
      "start": 14.0252,
      "duration": 0.0249,
      "velocity": 109,
      "chip": "ym2612"
    },
    {
      "channel": 4,
      "note": 62,
      "start": 14.0501,
      "duration": 0.0136,
      "velocity": 109,
      "chip": "ym2612"
    },
    {
      "channel": 4,
      "note": 61,
      "start": 14.0637,
      "duration": 0.0203,
      "velocity": 109,
      "chip": "ym2612"
    },
    {
      "channel": 0,
      "note": 57,
      "start": 14.0808,
      "duration": 0.1313,
      "velocity": 121,
      "chip": "ym2612"
    },
    {
      "channel": 1,
      "note": 45,
      "start": 14.0814,
      "duration": 0.1313,
      "velocity": 112,
      "chip": "ym2612"
    },
    {
      "channel": 3,
      "note": 67,
      "start": 14.0836,
      "duration": 0.1334,
      "velocity": 107,
      "chip": "ym2612"
    },
    {
      "channel": 4,
      "note": 69,
      "start": 14.0841,
      "duration": 0.5241,
      "velocity": 109,
      "chip": "ym2612"
    },
    {
      "channel": 0,
      "note": 56,
      "start": 14.2123,
      "duration": 2.4036,
      "velocity": 121,
      "chip": "ym2612"
    },
    {
      "channel": 1,
      "note": 44,
      "start": 14.2129,
      "duration": 0.1132,
      "velocity": 112,
      "chip": "ym2612"
    },
    {
      "channel": 2,
      "note": 63,
      "start": 14.2151,
      "duration": 1.5944,
      "velocity": 124,
      "chip": "ym2612"
    },
    {
      "channel": 3,
      "note": 67,
      "start": 14.2172,
      "duration": 0.1111,
      "velocity": 107,
      "chip": "ym2612"
    },
    {
      "channel": 1,
      "note": 47,
      "start": 14.3263,
      "duration": 0.1661,
      "velocity": 112,
      "chip": "ym2612"
    },
    {
      "channel": 3,
      "note": 67,
      "start": 14.3285,
      "duration": 0.0822,
      "velocity": 107,
      "chip": "ym2612"
    },
    {
      "channel": 3,
      "note": 67,
      "start": 14.4109,
      "duration": 0.0837,
      "velocity": 107,
      "chip": "ym2612"
    },
    {
      "channel": 1,
      "note": 44,
      "start": 14.4926,
      "duration": 0.1128,
      "velocity": 112,
      "chip": "ym2612"
    },
    {
      "channel": 3,
      "note": 67,
      "start": 14.4947,
      "duration": 0.1128,
      "velocity": 107,
      "chip": "ym2612"
    },
    {
      "channel": 1,
      "note": 50,
      "start": 14.6055,
      "duration": 0.1314,
      "velocity": 112,
      "chip": "ym2612"
    },
    {
      "channel": 3,
      "note": 67,
      "start": 14.6078,
      "duration": 0.1314,
      "velocity": 107,
      "chip": "ym2612"
    },
    {
      "channel": 4,
      "note": 74,
      "start": 14.6084,
      "duration": 0.0008,
      "velocity": 109,
      "chip": "ym2612"
    },
    {
      "channel": 4,
      "note": 73,
      "start": 14.6092,
      "duration": 0.0217,
      "velocity": 109,
      "chip": "ym2612"
    },
    {
      "channel": 4,
      "note": 72,
      "start": 14.6309,
      "duration": 0.0122,
      "velocity": 109,
      "chip": "ym2612"
    },
    {
      "channel": 4,
      "note": 70,
      "start": 14.6431,
      "duration": 0.0127,
      "velocity": 109,
      "chip": "ym2612"
    },
    {
      "channel": 4,
      "note": 69,
      "start": 14.6558,
      "duration": 0.0248,
      "velocity": 109,
      "chip": "ym2612"
    },
    {
      "channel": 4,
      "note": 68,
      "start": 14.6806,
      "duration": 0.0253,
      "velocity": 109,
      "chip": "ym2612"
    },
    {
      "channel": 4,
      "note": 67,
      "start": 14.7059,
      "duration": 0.0141,
      "velocity": 109,
      "chip": "ym2612"
    },
    {
      "channel": 4,
      "note": 66,
      "start": 14.72,
      "duration": 0.0197,
      "velocity": 109,
      "chip": "ym2612"
    },
    {
      "channel": 1,
      "note": 51,
      "start": 14.7371,
      "duration": 0.1665,
      "velocity": 112,
      "chip": "ym2612"
    },
    {
      "channel": 3,
      "note": 67,
      "start": 14.7394,
      "duration": 0.0826,
      "velocity": 107,
      "chip": "ym2612"
    },
    {
      "channel": 4,
      "note": 69,
      "start": 14.7399,
      "duration": 0.0005,
      "velocity": 109,
      "chip": "ym2612"
    },
    {
      "channel": 4,
      "note": 68,
      "start": 14.7405,
      "duration": 0.0129,
      "velocity": 109,
      "chip": "ym2612"
    },
    {
      "channel": 4,
      "note": 67,
      "start": 14.7534,
      "duration": 0.0167,
      "velocity": 109,
      "chip": "ym2612"
    },
    {
      "channel": 4,
      "note": 66,
      "start": 14.77,
      "duration": 0.0333,
      "velocity": 109,
      "chip": "ym2612"
    },
    {
      "channel": 4,
      "note": 65,
      "start": 14.8034,
      "duration": 0.0194,
      "velocity": 109,
      "chip": "ym2612"
    },
    {
      "channel": 3,
      "note": 67,
      "start": 14.8222,
      "duration": 0.0837,
      "velocity": 107,
      "chip": "ym2612"
    },
    {
      "channel": 4,
      "note": 64,
      "start": 14.8228,
      "duration": 0.0139,
      "velocity": 109,
      "chip": "ym2612"
    },
    {
      "channel": 4,
      "note": 63,
      "start": 14.8367,
      "duration": 0.0167,
      "velocity": 109,
      "chip": "ym2612"
    },
    {
      "channel": 4,
      "note": 62,
      "start": 14.8534,
      "duration": 0.0167,
      "velocity": 109,
      "chip": "ym2612"
    },
    {
      "channel": 4,
      "note": 61,
      "start": 14.87,
      "duration": 0.0364,
      "velocity": 109,
      "chip": "ym2612"
    },
    {
      "channel": 1,
      "note": 47,
      "start": 14.9038,
      "duration": 0.1153,
      "velocity": 112,
      "chip": "ym2612"
    },
    {
      "channel": 3,
      "note": 67,
      "start": 14.906,
      "duration": 0.1169,
      "velocity": 107,
      "chip": "ym2612"
    },
    {
      "channel": 4,
      "note": 69,
      "start": 14.9066,
      "duration": 0.0008,
      "velocity": 109,
      "chip": "ym2612"
    },
    {
      "channel": 4,
      "note": 68,
      "start": 14.9074,
      "duration": 0.0097,
      "velocity": 109,
      "chip": "ym2612"
    },
    {
      "channel": 4,
      "note": 67,
      "start": 14.9171,
      "duration": 0.0128,
      "velocity": 109,
      "chip": "ym2612"
    },
    {
      "channel": 4,
      "note": 66,
      "start": 14.9299,
      "duration": 0.0125,
      "velocity": 109,
      "chip": "ym2612"
    },
    {
      "channel": 4,
      "note": 65,
      "start": 14.9424,
      "duration": 0.038,
      "velocity": 109,
      "chip": "ym2612"
    },
    {
      "channel": 4,
      "note": 64,
      "start": 14.9805,
      "duration": 0.0127,
      "velocity": 109,
      "chip": "ym2612"
    },
    {
      "channel": 4,
      "note": 63,
      "start": 14.9932,
      "duration": 0.0127,
      "velocity": 109,
      "chip": "ym2612"
    },
    {
      "channel": 4,
      "note": 62,
      "start": 15.0059,
      "duration": 0.0175,
      "velocity": 109,
      "chip": "ym2612"
    },
    {
      "channel": 1,
      "note": 44,
      "start": 15.0193,
      "duration": 0.1301,
      "velocity": 112,
      "chip": "ym2612"
    },
    {
      "channel": 3,
      "note": 67,
      "start": 15.0231,
      "duration": 0.1285,
      "velocity": 107,
      "chip": "ym2612"
    },
    {
      "channel": 4,
      "note": 74,
      "start": 15.0237,
      "duration": 0.0008,
      "velocity": 109,
      "chip": "ym2612"
    },
    {
      "channel": 4,
      "note": 73,
      "start": 15.0245,
      "duration": 0.0083,
      "velocity": 109,
      "chip": "ym2612"
    },
    {
      "channel": 4,
      "note": 72,
      "start": 15.0328,
      "duration": 0.0253,
      "velocity": 109,
      "chip": "ym2612"
    },
    {
      "channel": 4,
      "note": 70,
      "start": 15.0581,
      "duration": 0.0125,
      "velocity": 109,
      "chip": "ym2612"
    },
    {
      "channel": 4,
      "note": 69,
      "start": 15.0707,
      "duration": 0.0248,
      "velocity": 109,
      "chip": "ym2612"
    },
    {
      "channel": 4,
      "note": 68,
      "start": 15.0955,
      "duration": 0.0128,
      "velocity": 109,
      "chip": "ym2612"
    },
    {
      "channel": 4,
      "note": 67,
      "start": 15.1083,
      "duration": 0.0249,
      "velocity": 109,
      "chip": "ym2612"
    },
    {
      "channel": 4,
      "note": 66,
      "start": 15.1332,
      "duration": 0.019,
      "velocity": 109,
      "chip": "ym2612"
    },
    {
      "channel": 1,
      "note": 47,
      "start": 15.1496,
      "duration": 0.1152,
      "velocity": 112,
      "chip": "ym2612"
    },
    {
      "channel": 3,
      "note": 67,
      "start": 15.1518,
      "duration": 0.0633,
      "velocity": 107,
      "chip": "ym2612"
    },
    {
      "channel": 4,
      "note": 69,
      "start": 15.1523,
      "duration": 0.0009,
      "velocity": 109,
      "chip": "ym2612"
    },
    {
      "channel": 4,
      "note": 68,
      "start": 15.1532,
      "duration": 0.0093,
      "velocity": 109,
      "chip": "ym2612"
    },
    {
      "channel": 4,
      "note": 67,
      "start": 15.1625,
      "duration": 0.0124,
      "velocity": 109,
      "chip": "ym2612"
    },
    {
      "channel": 4,
      "note": 66,
      "start": 15.1749,
      "duration": 0.0128,
      "velocity": 109,
      "chip": "ym2612"
    },
    {
      "channel": 4,
      "note": 65,
      "start": 15.1877,
      "duration": 0.0285,
      "velocity": 109,
      "chip": "ym2612"
    },
    {
      "channel": 3,
      "note": 67,
      "start": 15.2153,
      "duration": 0.0517,
      "velocity": 107,
      "chip": "ym2612"
    },
    {
      "channel": 4,
      "note": 64,
      "start": 15.2162,
      "duration": 0.0102,
      "velocity": 109,
      "chip": "ym2612"
    },
    {
      "channel": 4,
      "note": 63,
      "start": 15.2264,
      "duration": 0.0125,
      "velocity": 109,
      "chip": "ym2612"
    },
    {
      "channel": 4,
      "note": 62,
      "start": 15.239,
      "duration": 0.0127,
      "velocity": 109,
      "chip": "ym2612"
    },
    {
      "channel": 4,
      "note": 61,
      "start": 15.2516,
      "duration": 0.0159,
      "velocity": 109,
      "chip": "ym2612"
    },
    {
      "channel": 1,
      "note": 44,
      "start": 15.265,
      "duration": 0.1298,
      "velocity": 112,
      "chip": "ym2612"
    },
    {
      "channel": 3,
      "note": 67,
      "start": 15.2672,
      "duration": 0.1298,
      "velocity": 107,
      "chip": "ym2612"
    },
    {
      "channel": 4,
      "note": 69,
      "start": 15.2678,
      "duration": 0.0008,
      "velocity": 109,
      "chip": "ym2612"
    },
    {
      "channel": 4,
      "note": 68,
      "start": 15.2686,
      "duration": 0.0222,
      "velocity": 109,
      "chip": "ym2612"
    },
    {
      "channel": 4,
      "note": 67,
      "start": 15.2908,
      "duration": 0.0124,
      "velocity": 109,
      "chip": "ym2612"
    },
    {
      "channel": 4,
      "note": 66,
      "start": 15.3033,
      "duration": 0.0124,
      "velocity": 109,
      "chip": "ym2612"
    },
    {
      "channel": 4,
      "note": 65,
      "start": 15.3157,
      "duration": 0.0249,
      "velocity": 109,
      "chip": "ym2612"
    },
    {
      "channel": 4,
      "note": 64,
      "start": 15.3406,
      "duration": 0.0252,
      "velocity": 109,
      "chip": "ym2612"
    },
    {
      "channel": 4,
      "note": 63,
      "start": 15.3658,
      "duration": 0.0127,
      "velocity": 109,
      "chip": "ym2612"
    },
    {
      "channel": 4,
      "note": 62,
      "start": 15.3785,
      "duration": 0.0195,
      "velocity": 109,
      "chip": "ym2612"
    },
    {
      "channel": 1,
      "note": 54,
      "start": 15.395,
      "duration": 0.1322,
      "velocity": 112,
      "chip": "ym2612"
    },
    {
      "channel": 3,
      "note": 67,
      "start": 15.3972,
      "duration": 0.1322,
      "velocity": 107,
      "chip": "ym2612"
    },
    {
      "channel": 4,
      "note": 61,
      "start": 15.3981,
      "duration": 0.0097,
      "velocity": 109,
      "chip": "ym2612"
    },
    {
      "channel": 4,
      "note": 60,
      "start": 15.4078,
      "duration": 0.0125,
      "velocity": 109,
      "chip": "ym2612"
    },
    {
      "channel": 4,
      "note": 58,
      "start": 15.4203,
      "duration": 0.0251,
      "velocity": 109,
      "chip": "ym2612"
    },
    {
      "channel": 4,
      "note": 57,
      "start": 15.4455,
      "duration": 0.0251,
      "velocity": 109,
      "chip": "ym2612"
    },
    {
      "channel": 4,
      "note": 56,
      "start": 15.4706,
      "duration": 0.0127,
      "velocity": 109,
      "chip": "ym2612"
    },
    {
      "channel": 4,
      "note": 55,
      "start": 15.4833,
      "duration": 0.0126,
      "velocity": 109,
      "chip": "ym2612"
    },
    {
      "channel": 4,
      "note": 54,
      "start": 15.4959,
      "duration": 0.0343,
      "velocity": 109,
      "chip": "ym2612"
    },
    {
      "channel": 1,
      "note": 53,
      "start": 15.5274,
      "duration": 0.1498,
      "velocity": 112,
      "chip": "ym2612"
    },
    {
      "channel": 3,
      "note": 67,
      "start": 15.5296,
      "duration": 0.066,
      "velocity": 107,
      "chip": "ym2612"
    },
    {
      "channel": 4,
      "note": 53,
      "start": 15.5302,
      "duration": 0.0134,
      "velocity": 109,
      "chip": "ym2612"
    },
    {
      "channel": 4,
      "note": 52,
      "start": 15.5436,
      "duration": 0.0167,
      "velocity": 109,
      "chip": "ym2612"
    },
    {
      "channel": 4,
      "note": 51,
      "start": 15.5603,
      "duration": 0.0167,
      "velocity": 109,
      "chip": "ym2612"
    },
    {
      "channel": 4,
      "note": 50,
      "start": 15.577,
      "duration": 0.0194,
      "velocity": 109,
      "chip": "ym2612"
    },
    {
      "channel": 3,
      "note": 67,
      "start": 15.5957,
      "duration": 0.0837,
      "velocity": 107,
      "chip": "ym2612"
    },
    {
      "channel": 4,
      "note": 49,
      "start": 15.5964,
      "duration": 0.0306,
      "velocity": 109,
      "chip": "ym2612"
    },
    {
      "channel": 4,
      "note": 48,
      "start": 15.627,
      "duration": 0.0167,
      "velocity": 109,
      "chip": "ym2612"
    },
    {
      "channel": 4,
      "note": 46,
      "start": 15.6436,
      "duration": 0.0167,
      "velocity": 109,
      "chip": "ym2612"
    },
    {
      "channel": 4,
      "note": 45,
      "start": 15.6603,
      "duration": 0.0202,
      "velocity": 109,
      "chip": "ym2612"
    },
    {
      "channel": 1,
      "note": 47,
      "start": 15.6774,
      "duration": 0.1298,
      "velocity": 112,
      "chip": "ym2612"
    },
    {
      "channel": 3,
      "note": 67,
      "start": 15.6796,
      "duration": 0.1319,
      "velocity": 107,
      "chip": "ym2612"
    },
    {
      "channel": 4,
      "note": 44,
      "start": 15.6805,
      "duration": 0.0099,
      "velocity": 109,
      "chip": "ym2612"
    },
    {
      "channel": 4,
      "note": 43,
      "start": 15.6904,
      "duration": 0.025,
      "velocity": 109,
      "chip": "ym2612"
    },
    {
      "channel": 4,
      "note": 42,
      "start": 15.7154,
      "duration": 0.0124,
      "velocity": 109,
      "chip": "ym2612"
    },
    {
      "channel": 4,
      "note": 41,
      "start": 15.7278,
      "duration": 0.0248,
      "velocity": 109,
      "chip": "ym2612"
    },
    {
      "channel": 4,
      "note": 40,
      "start": 15.7527,
      "duration": 0.0128,
      "velocity": 109,
      "chip": "ym2612"
    },
    {
      "channel": 4,
      "note": 39,
      "start": 15.7654,
      "duration": 0.025,
      "velocity": 109,
      "chip": "ym2612"
    },
    {
      "channel": 4,
      "note": 38,
      "start": 15.7904,
      "duration": 0.0222,
      "velocity": 109,
      "chip": "ym2612"
    },
    {
      "channel": 1,
      "note": 44,
      "start": 15.8074,
      "duration": 0.1143,
      "velocity": 112,
      "chip": "ym2612"
    },
    {
      "channel": 2,
      "note": 64,
      "start": 15.8095,
      "duration": 1.5626,
      "velocity": 124,
      "chip": "ym2612"
    },
    {
      "channel": 3,
      "note": 67,
      "start": 15.8117,
      "duration": 0.1122,
      "velocity": 107,
      "chip": "ym2612"
    },
    {
      "channel": 4,
      "note": 37,
      "start": 15.8126,
      "duration": 0.008,
      "velocity": 109,
      "chip": "ym2612"
    },
    {
      "channel": 4,
      "note": 36,
      "start": 15.8206,
      "duration": 0.0124,
      "velocity": 109,
      "chip": "ym2612"
    },
    {
      "channel": 4,
      "note": 34,
      "start": 15.833,
      "duration": 0.0126,
      "velocity": 109,
      "chip": "ym2612"
    },
    {
      "channel": 4,
      "note": 33,
      "start": 15.8456,
      "duration": 0.038,
      "velocity": 109,
      "chip": "ym2612"
    },
    {
      "channel": 4,
      "note": 32,
      "start": 15.8837,
      "duration": 0.0127,
      "velocity": 109,
      "chip": "ym2612"
    },
    {
      "channel": 4,
      "note": 31,
      "start": 15.8963,
      "duration": 0.0126,
      "velocity": 109,
      "chip": "ym2612"
    },
    {
      "channel": 4,
      "note": 30,
      "start": 15.9089,
      "duration": 0.0158,
      "velocity": 109,
      "chip": "ym2612"
    },
    {
      "channel": 1,
      "note": 47,
      "start": 15.922,
      "duration": 0.1658,
      "velocity": 112,
      "chip": "ym2612"
    },
    {
      "channel": 3,
      "note": 67,
      "start": 15.9241,
      "duration": 0.0819,
      "velocity": 107,
      "chip": "ym2612"
    },
    {
      "channel": 4,
      "note": 29,
      "start": 15.9247,
      "duration": 0.0294,
      "velocity": 109,
      "chip": "ym2612"
    },
    {
      "channel": 4,
      "note": 28,
      "start": 15.9541,
      "duration": 0.0167,
      "velocity": 109,
      "chip": "ym2612"
    },
    {
      "channel": 4,
      "note": 27,
      "start": 15.9708,
      "duration": 0.0167,
      "velocity": 109,
      "chip": "ym2612"
    },
    {
      "channel": 4,
      "note": 26,
      "start": 15.9875,
      "duration": 0.0194,
      "velocity": 109,
      "chip": "ym2612"
    },
    {
      "channel": 3,
      "note": 67,
      "start": 16.0062,
      "duration": 0.0837,
      "velocity": 107,
      "chip": "ym2612"
    },
    {
      "channel": 4,
      "note": 25,
      "start": 16.0069,
      "duration": 0.0139,
      "velocity": 109,
      "chip": "ym2612"
    },
    {
      "channel": 4,
      "note": 24,
      "start": 16.0208,
      "duration": 0.0333,
      "velocity": 109,
      "chip": "ym2612"
    },
    {
      "channel": 4,
      "note": 23,
      "start": 16.0541,
      "duration": 0.0167,
      "velocity": 109,
      "chip": "ym2612"
    },
    {
      "channel": 4,
      "note": 21,
      "start": 16.0708,
      "duration": 0.0202,
      "velocity": 109,
      "chip": "ym2612"
    },
    {
      "channel": 1,
      "note": 44,
      "start": 16.0879,
      "duration": 0.1303,
      "velocity": 112,
      "chip": "ym2612"
    },
    {
      "channel": 3,
      "note": 67,
      "start": 16.0901,
      "duration": 0.1304,
      "velocity": 107,
      "chip": "ym2612"
    },
    {
      "channel": 4,
      "note": 116,
      "start": 16.091,
      "duration": 0.0101,
      "velocity": 109,
      "chip": "ym2612"
    },
    {
      "channel": 4,
      "note": 115,
      "start": 16.1011,
      "duration": 0.0124,
      "velocity": 109,
      "chip": "ym2612"
    },
    {
      "channel": 4,
      "note": 114,
      "start": 16.1135,
      "duration": 0.0253,
      "velocity": 109,
      "chip": "ym2612"
    },
    {
      "channel": 4,
      "note": 113,
      "start": 16.1388,
      "duration": 0.0252,
      "velocity": 109,
      "chip": "ym2612"
    },
    {
      "channel": 4,
      "note": 112,
      "start": 16.164,
      "duration": 0.0126,
      "velocity": 109,
      "chip": "ym2612"
    },
    {
      "channel": 4,
      "note": 111,
      "start": 16.1766,
      "duration": 0.0126,
      "velocity": 109,
      "chip": "ym2612"
    },
    {
      "channel": 4,
      "note": 110,
      "start": 16.1893,
      "duration": 0.0323,
      "velocity": 109,
      "chip": "ym2612"
    },
    {
      "channel": 1,
      "note": 50,
      "start": 16.2184,
      "duration": 0.1161,
      "velocity": 112,
      "chip": "ym2612"
    },
    {
      "channel": 3,
      "note": 67,
      "start": 16.2207,
      "duration": 0.116,
      "velocity": 107,
      "chip": "ym2612"
    },
    {
      "channel": 4,
      "note": 109,
      "start": 16.2215,
      "duration": 0.01,
      "velocity": 109,
      "chip": "ym2612"
    },
    {
      "channel": 4,
      "note": 108,
      "start": 16.2316,
      "duration": 0.0125,
      "velocity": 109,
      "chip": "ym2612"
    },
    {
      "channel": 4,
      "note": 107,
      "start": 16.2441,
      "duration": 0.0127,
      "velocity": 109,
      "chip": "ym2612"
    },
    {
      "channel": 4,
      "note": 105,
      "start": 16.2567,
      "duration": 0.0377,
      "velocity": 109,
      "chip": "ym2612"
    },
    {
      "channel": 4,
      "note": 104,
      "start": 16.2944,
      "duration": 0.0128,
      "velocity": 109,
      "chip": "ym2612"
    },
    {
      "channel": 4,
      "note": 103,
      "start": 16.3072,
      "duration": 0.0127,
      "velocity": 109,
      "chip": "ym2612"
    },
    {
      "channel": 4,
      "note": 102,
      "start": 16.3199,
      "duration": 0.0176,
      "velocity": 109,
      "chip": "ym2612"
    },
    {
      "channel": 1,
      "note": 51,
      "start": 16.3347,
      "duration": 0.1665,
      "velocity": 112,
      "chip": "ym2612"
    },
    {
      "channel": 3,
      "note": 67,
      "start": 16.3369,
      "duration": 0.0826,
      "velocity": 107,
      "chip": "ym2612"
    },
    {
      "channel": 4,
      "note": 101,
      "start": 16.3375,
      "duration": 0.0134,
      "velocity": 109,
      "chip": "ym2612"
    },
    {
      "channel": 4,
      "note": 100,
      "start": 16.3509,
      "duration": 0.0333,
      "velocity": 109,
      "chip": "ym2612"
    },
    {
      "channel": 4,
      "note": 99,
      "start": 16.3843,
      "duration": 0.0167,
      "velocity": 109,
      "chip": "ym2612"
    },
    {
      "channel": 4,
      "note": 98,
      "start": 16.4009,
      "duration": 0.0194,
      "velocity": 109,
      "chip": "ym2612"
    },
    {
      "channel": 3,
      "note": 67,
      "start": 16.4197,
      "duration": 0.0837,
      "velocity": 107,
      "chip": "ym2612"
    },
    {
      "channel": 4,
      "note": 97,
      "start": 16.4203,
      "duration": 0.0139,
      "velocity": 109,
      "chip": "ym2612"
    },
    {
      "channel": 4,
      "note": 96,
      "start": 16.4343,
      "duration": 0.0167,
      "velocity": 109,
      "chip": "ym2612"
    },
    {
      "channel": 4,
      "note": 95,
      "start": 16.4509,
      "duration": 0.0333,
      "velocity": 109,
      "chip": "ym2612"
    },
    {
      "channel": 4,
      "note": 93,
      "start": 16.4843,
      "duration": 0.0202,
      "velocity": 109,
      "chip": "ym2612"
    },
    {
      "channel": 1,
      "note": 43,
      "start": 16.5014,
      "duration": 0.115,
      "velocity": 112,
      "chip": "ym2612"
    },
    {
      "channel": 3,
      "note": 67,
      "start": 16.5036,
      "duration": 0.1166,
      "velocity": 107,
      "chip": "ym2612"
    },
    {
      "channel": 4,
      "note": 92,
      "start": 16.5045,
      "duration": 0.01,
      "velocity": 109,
      "chip": "ym2612"
    },
    {
      "channel": 4,
      "note": 91,
      "start": 16.5145,
      "duration": 0.0125,
      "velocity": 109,
      "chip": "ym2612"
    },
    {
      "channel": 4,
      "note": 90,
      "start": 16.527,
      "duration": 0.0125,
      "velocity": 109,
      "chip": "ym2612"
    },
    {
      "channel": 4,
      "note": 89,
      "start": 16.5395,
      "duration": 0.0376,
      "velocity": 109,
      "chip": "ym2612"
    },
    {
      "channel": 4,
      "note": 88,
      "start": 16.5771,
      "duration": 0.0128,
      "velocity": 109,
      "chip": "ym2612"
    },
    {
      "channel": 4,
      "note": 87,
      "start": 16.59,
      "duration": 0.0127,
      "velocity": 109,
      "chip": "ym2612"
    },
    {
      "channel": 4,
      "note": 86,
      "start": 16.6027,
      "duration": 0.0186,
      "velocity": 109,
      "chip": "ym2612"
    },
    {
      "channel": 0,
      "note": 64,
      "start": 16.616,
      "duration": 0.1297,
      "velocity": 121,
      "chip": "ym2612"
    },
    {
      "channel": 1,
      "note": 52,
      "start": 16.6166,
      "duration": 0.1297,
      "velocity": 112,
      "chip": "ym2612"
    },
    {
      "channel": 3,
      "note": 67,
      "start": 16.6204,
      "duration": 0.1281,
      "velocity": 107,
      "chip": "ym2612"
    },
    {
      "channel": 4,
      "note": 85,
      "start": 16.6212,
      "duration": 0.0204,
      "velocity": 109,
      "chip": "ym2612"
    },
    {
      "channel": 4,
      "note": 84,
      "start": 16.6416,
      "duration": 0.0122,
      "velocity": 109,
      "chip": "ym2612"
    },
    {
      "channel": 4,
      "note": 83,
      "start": 16.6538,
      "duration": 0.0125,
      "velocity": 109,
      "chip": "ym2612"
    },
    {
      "channel": 4,
      "note": 81,
      "start": 16.6663,
      "duration": 0.0255,
      "velocity": 109,
      "chip": "ym2612"
    },
    {
      "channel": 4,
      "note": 80,
      "start": 16.6918,
      "duration": 0.0251,
      "velocity": 109,
      "chip": "ym2612"
    },
    {
      "channel": 4,
      "note": 79,
      "start": 16.7169,
      "duration": 0.0126,
      "velocity": 109,
      "chip": "ym2612"
    },
    {
      "channel": 4,
      "note": 78,
      "start": 16.7295,
      "duration": 0.0196,
      "velocity": 109,
      "chip": "ym2612"
    },
    {
      "channel": 0,
      "note": 63,
      "start": 16.7459,
      "duration": 0.1277,
      "velocity": 121,
      "chip": "ym2612"
    },
    {
      "channel": 1,
      "note": 51,
      "start": 16.7465,
      "duration": 0.1277,
      "velocity": 112,
      "chip": "ym2612"
    },
    {
      "channel": 3,
      "note": 67,
      "start": 16.7486,
      "duration": 0.0629,
      "velocity": 107,
      "chip": "ym2612"
    },
    {
      "channel": 4,
      "note": 74,
      "start": 16.7493,
      "duration": 0.0009,
      "velocity": 109,
      "chip": "ym2612"
    },
    {
      "channel": 4,
      "note": 73,
      "start": 16.7502,
      "duration": 0.0089,
      "velocity": 109,
      "chip": "ym2612"
    },
    {
      "channel": 4,
      "note": 72,
      "start": 16.7591,
      "duration": 0.0123,
      "velocity": 109,
      "chip": "ym2612"
    },
    {
      "channel": 4,
      "note": 70,
      "start": 16.7714,
      "duration": 0.0253,
      "velocity": 109,
      "chip": "ym2612"
    },
    {
      "channel": 4,
      "note": 69,
      "start": 16.7967,
      "duration": 0.0159,
      "velocity": 109,
      "chip": "ym2612"
    },
    {
      "channel": 3,
      "note": 67,
      "start": 16.8116,
      "duration": 0.0647,
      "velocity": 107,
      "chip": "ym2612"
    },
    {
      "channel": 4,
      "note": 68,
      "start": 16.8126,
      "duration": 0.0099,
      "velocity": 109,
      "chip": "ym2612"
    },
    {
      "channel": 4,
      "note": 67,
      "start": 16.8225,
      "duration": 0.0128,
      "velocity": 109,
      "chip": "ym2612"
    },
    {
      "channel": 4,
      "note": 66,
      "start": 16.8353,
      "duration": 0.0124,
      "velocity": 109,
      "chip": "ym2612"
    },
    {
      "channel": 4,
      "note": 65,
      "start": 16.8478,
      "duration": 0.0292,
      "velocity": 109,
      "chip": "ym2612"
    },
    {
      "channel": 0,
      "note": 59,
      "start": 16.8738,
      "duration": 0.1127,
      "velocity": 121,
      "chip": "ym2612"
    },
    {
      "channel": 1,
      "note": 47,
      "start": 16.8743,
      "duration": 0.1127,
      "velocity": 112,
      "chip": "ym2612"
    },
    {
      "channel": 3,
      "note": 67,
      "start": 16.8765,
      "duration": 0.1127,
      "velocity": 107,
      "chip": "ym2612"
    },
    {
      "channel": 4,
      "note": 74,
      "start": 16.8771,
      "duration": 0.0008,
      "velocity": 109,
      "chip": "ym2612"
    },
    {
      "channel": 4,
      "note": 73,
      "start": 16.878,
      "duration": 0.0087,
      "velocity": 109,
      "chip": "ym2612"
    },
    {
      "channel": 4,
      "note": 72,
      "start": 16.8866,
      "duration": 0.0125,
      "velocity": 109,
      "chip": "ym2612"
    },
    {
      "channel": 4,
      "note": 70,
      "start": 16.8991,
      "duration": 0.0122,
      "velocity": 109,
      "chip": "ym2612"
    },
    {
      "channel": 4,
      "note": 69,
      "start": 16.9113,
      "duration": 0.0374,
      "velocity": 109,
      "chip": "ym2612"
    },
    {
      "channel": 4,
      "note": 68,
      "start": 16.9487,
      "duration": 0.0124,
      "velocity": 109,
      "chip": "ym2612"
    },
    {
      "channel": 4,
      "note": 67,
      "start": 16.9611,
      "duration": 0.0125,
      "velocity": 109,
      "chip": "ym2612"
    },
    {
      "channel": 4,
      "note": 66,
      "start": 16.9736,
      "duration": 0.0162,
      "velocity": 109,
      "chip": "ym2612"
    },
    {
      "channel": 0,
      "note": 64,
      "start": 16.9866,
      "duration": 0.1335,
      "velocity": 121,
      "chip": "ym2612"
    },
    {
      "channel": 1,
      "note": 52,
      "start": 16.9872,
      "duration": 0.1335,
      "velocity": 112,
      "chip": "ym2612"
    },
    {
      "channel": 3,
      "note": 67,
      "start": 16.9894,
      "duration": 0.1335,
      "velocity": 107,
      "chip": "ym2612"
    },
    {
      "channel": 4,
      "note": 69,
      "start": 16.99,
      "duration": 0.0008,
      "velocity": 109,
      "chip": "ym2612"
    },
    {
      "channel": 4,
      "note": 68,
      "start": 16.9908,
      "duration": 0.0093,
      "velocity": 109,
      "chip": "ym2612"
    },
    {
      "channel": 4,
      "note": 67,
      "start": 17.0002,
      "duration": 0.0253,
      "velocity": 109,
      "chip": "ym2612"
    },
    {
      "channel": 4,
      "note": 66,
      "start": 17.0255,
      "duration": 0.0127,
      "velocity": 109,
      "chip": "ym2612"
    },
    {
      "channel": 4,
      "note": 65,
      "start": 17.0382,
      "duration": 0.0133,
      "velocity": 109,
      "chip": "ym2612"
    },
    {
      "channel": 4,
      "note": 69,
      "start": 17.0517,
      "duration": 0.0005,
      "velocity": 109,
      "chip": "ym2612"
    },
    {
      "channel": 4,
      "note": 68,
      "start": 17.0522,
      "duration": 0.0118,
      "velocity": 109,
      "chip": "ym2612"
    },
    {
      "channel": 4,
      "note": 67,
      "start": 17.064,
      "duration": 0.0127,
      "velocity": 109,
      "chip": "ym2612"
    },
    {
      "channel": 4,
      "note": 66,
      "start": 17.0767,
      "duration": 0.0265,
      "velocity": 109,
      "chip": "ym2612"
    },
    {
      "channel": 4,
      "note": 65,
      "start": 17.1032,
      "duration": 0.0203,
      "velocity": 109,
      "chip": "ym2612"
    },
    {
      "channel": 0,
      "note": 63,
      "start": 17.1203,
      "duration": 0.115,
      "velocity": 121,
      "chip": "ym2612"
    },
    {
      "channel": 1,
      "note": 51,
      "start": 17.1209,
      "duration": 0.115,
      "velocity": 112,
      "chip": "ym2612"
    },
    {
      "channel": 3,
      "note": 67,
      "start": 17.1231,
      "duration": 0.0623,
      "velocity": 107,
      "chip": "ym2612"
    },
    {
      "channel": 4,
      "note": 69,
      "start": 17.1237,
      "duration": 0.0009,
      "velocity": 109,
      "chip": "ym2612"
    },
    {
      "channel": 4,
      "note": 68,
      "start": 17.1245,
      "duration": 0.0093,
      "velocity": 109,
      "chip": "ym2612"
    },
    {
      "channel": 4,
      "note": 67,
      "start": 17.1338,
      "duration": 0.0125,
      "velocity": 109,
      "chip": "ym2612"
    },
    {
      "channel": 4,
      "note": 66,
      "start": 17.1463,
      "duration": 0.0122,
      "velocity": 109,
      "chip": "ym2612"
    },
    {
      "channel": 4,
      "note": 65,
      "start": 17.1585,
      "duration": 0.0277,
      "velocity": 109,
      "chip": "ym2612"
    },
    {
      "channel": 3,
      "note": 67,
      "start": 17.1856,
      "duration": 0.0525,
      "velocity": 107,
      "chip": "ym2612"
    },
    {
      "channel": 4,
      "note": 64,
      "start": 17.1862,
      "duration": 0.0106,
      "velocity": 109,
      "chip": "ym2612"
    },
    {
      "channel": 4,
      "note": 63,
      "start": 17.1968,
      "duration": 0.0125,
      "velocity": 109,
      "chip": "ym2612"
    },
    {
      "channel": 4,
      "note": 62,
      "start": 17.2093,
      "duration": 0.0125,
      "velocity": 109,
      "chip": "ym2612"
    },
    {
      "channel": 4,
      "note": 61,
      "start": 17.2217,
      "duration": 0.017,
      "velocity": 109,
      "chip": "ym2612"
    },
    {
      "channel": 0,
      "note": 57,
      "start": 17.2355,
      "duration": 0.1339,
      "velocity": 103,
      "chip": "ym2612"
    },
    {
      "channel": 1,
      "note": 45,
      "start": 17.2361,
      "duration": 0.1339,
      "velocity": 112,
      "chip": "ym2612"
    },
    {
      "channel": 3,
      "note": 67,
      "start": 17.2383,
      "duration": 0.136,
      "velocity": 107,
      "chip": "ym2612"
    },
    {
      "channel": 4,
      "note": 69,
      "start": 17.2388,
      "duration": 0.541,
      "velocity": 109,
      "chip": "ym2612"
    },
    {
      "channel": 0,
      "note": 61,
      "start": 17.3695,
      "duration": 1.061,
      "velocity": 103,
      "chip": "ym2612"
    },
    {
      "channel": 1,
      "note": 37,
      "start": 17.3702,
      "duration": 0.1278,
      "velocity": 112,
      "chip": "ym2612"
    },
    {
      "channel": 2,
      "note": 66,
      "start": 17.3724,
      "duration": 3.1465,
      "velocity": 124,
      "chip": "ym2612"
    },
    {
      "channel": 3,
      "note": 67,
      "start": 17.3744,
      "duration": 0.1257,
      "velocity": 107,
      "chip": "ym2612"
    },
    {
      "channel": 1,
      "note": 49,
      "start": 17.4982,
      "duration": 0.1498,
      "velocity": 112,
      "chip": "ym2612"
    },
    {
      "channel": 3,
      "note": 67,
      "start": 17.5003,
      "duration": 0.066,
      "velocity": 107,
      "chip": "ym2612"
    },
    {
      "channel": 3,
      "note": 67,
      "start": 17.5665,
      "duration": 0.0837,
      "velocity": 107,
      "chip": "ym2612"
    },
    {
      "channel": 1,
      "note": 37,
      "start": 17.6482,
      "duration": 0.1289,
      "velocity": 112,
      "chip": "ym2612"
    },
    {
      "channel": 3,
      "note": 67,
      "start": 17.6504,
      "duration": 0.1288,
      "velocity": 107,
      "chip": "ym2612"
    },
    {
      "channel": 1,
      "note": 47,
      "start": 17.7772,
      "duration": 0.1153,
      "velocity": 112,
      "chip": "ym2612"
    },
    {
      "channel": 3,
      "note": 67,
      "start": 17.7794,
      "duration": 0.1153,
      "velocity": 107,
      "chip": "ym2612"
    },
    {
      "channel": 4,
      "note": 74,
      "start": 17.7801,
      "duration": 0.0008,
      "velocity": 109,
      "chip": "ym2612"
    },
    {
      "channel": 4,
      "note": 73,
      "start": 17.7809,
      "duration": 0.0096,
      "velocity": 109,
      "chip": "ym2612"
    },
    {
      "channel": 4,
      "note": 72,
      "start": 17.7905,
      "duration": 0.0128,
      "velocity": 109,
      "chip": "ym2612"
    },
    {
      "channel": 4,
      "note": 70,
      "start": 17.8033,
      "duration": 0.0125,
      "velocity": 109,
      "chip": "ym2612"
    },
    {
      "channel": 4,
      "note": 69,
      "start": 17.8158,
      "duration": 0.0373,
      "velocity": 109,
      "chip": "ym2612"
    },
    {
      "channel": 4,
      "note": 68,
      "start": 17.8531,
      "duration": 0.0124,
      "velocity": 109,
      "chip": "ym2612"
    },
    {
      "channel": 4,
      "note": 67,
      "start": 17.8655,
      "duration": 0.0125,
      "velocity": 109,
      "chip": "ym2612"
    },
    {
      "channel": 4,
      "note": 66,
      "start": 17.878,
      "duration": 0.0173,
      "velocity": 109,
      "chip": "ym2612"
    },
    {
      "channel": 1,
      "note": 49,
      "start": 17.8927,
      "duration": 0.1665,
      "velocity": 112,
      "chip": "ym2612"
    },
    {
      "channel": 3,
      "note": 67,
      "start": 17.8949,
      "duration": 0.0826,
      "velocity": 107,
      "chip": "ym2612"
    },
    {
      "channel": 4,
      "note": 69,
      "start": 17.8955,
      "duration": 0.0005,
      "velocity": 109,
      "chip": "ym2612"
    },
    {
      "channel": 4,
      "note": 68,
      "start": 17.896,
      "duration": 0.0296,
      "velocity": 109,
      "chip": "ym2612"
    },
    {
      "channel": 4,
      "note": 67,
      "start": 17.9256,
      "duration": 0.0167,
      "velocity": 109,
      "chip": "ym2612"
    },
    {
      "channel": 4,
      "note": 66,
      "start": 17.9422,
      "duration": 0.0167,
      "velocity": 109,
      "chip": "ym2612"
    },
    {
      "channel": 4,
      "note": 65,
      "start": 17.9589,
      "duration": 0.0194,
      "velocity": 109,
      "chip": "ym2612"
    },
    {
      "channel": 3,
      "note": 67,
      "start": 17.9777,
      "duration": 0.0837,
      "velocity": 107,
      "chip": "ym2612"
    },
    {
      "channel": 4,
      "note": 64,
      "start": 17.9783,
      "duration": 0.0139,
      "velocity": 109,
      "chip": "ym2612"
    },
    {
      "channel": 4,
      "note": 63,
      "start": 17.9922,
      "duration": 0.0333,
      "velocity": 109,
      "chip": "ym2612"
    },
    {
      "channel": 4,
      "note": 62,
      "start": 18.0256,
      "duration": 0.0167,
      "velocity": 109,
      "chip": "ym2612"
    },
    {
      "channel": 4,
      "note": 61,
      "start": 18.0422,
      "duration": 0.0198,
      "velocity": 109,
      "chip": "ym2612"
    },
    {
      "channel": 1,
      "note": 52,
      "start": 18.0594,
      "duration": 0.1298,
      "velocity": 112,
      "chip": "ym2612"
    },
    {
      "channel": 3,
      "note": 67,
      "start": 18.0616,
      "duration": 0.1298,
      "velocity": 107,
      "chip": "ym2612"
    },
    {
      "channel": 4,
      "note": 69,
      "start": 18.0621,
      "duration": 0.0009,
      "velocity": 109,
      "chip": "ym2612"
    },
    {
      "channel": 4,
      "note": 68,
      "start": 18.063,
      "duration": 0.0093,
      "velocity": 109,
      "chip": "ym2612"
    },
    {
      "channel": 4,
      "note": 67,
      "start": 18.0723,
      "duration": 0.0124,
      "velocity": 109,
      "chip": "ym2612"
    },
    {
      "channel": 4,
      "note": 66,
      "start": 18.0848,
      "duration": 0.0253,
      "velocity": 109,
      "chip": "ym2612"
    },
    {
      "channel": 4,
      "note": 65,
      "start": 18.1101,
      "duration": 0.0249,
      "velocity": 109,
      "chip": "ym2612"
    },
    {
      "channel": 4,
      "note": 64,
      "start": 18.135,
      "duration": 0.0123,
      "velocity": 109,
      "chip": "ym2612"
    },
    {
      "channel": 4,
      "note": 63,
      "start": 18.1473,
      "duration": 0.0127,
      "velocity": 109,
      "chip": "ym2612"
    },
    {
      "channel": 4,
      "note": 62,
      "start": 18.1599,
      "duration": 0.032,
      "velocity": 109,
      "chip": "ym2612"
    },
    {
      "channel": 1,
      "note": 37,
      "start": 18.1894,
      "duration": 0.1145,
      "velocity": 112,
      "chip": "ym2612"
    },
    {
      "channel": 3,
      "note": 67,
      "start": 18.1916,
      "duration": 0.1146,
      "velocity": 107,
      "chip": "ym2612"
    },
    {
      "channel": 4,
      "note": 74,
      "start": 18.1922,
      "duration": 0.0008,
      "velocity": 109,
      "chip": "ym2612"
    },
    {
      "channel": 4,
      "note": 73,
      "start": 18.193,
      "duration": 0.0098,
      "velocity": 109,
      "chip": "ym2612"
    },
    {
      "channel": 4,
      "note": 72,
      "start": 18.2028,
      "duration": 0.0125,
      "velocity": 109,
      "chip": "ym2612"
    },
    {
      "channel": 4,
      "note": 70,
      "start": 18.2153,
      "duration": 0.0125,
      "velocity": 109,
      "chip": "ym2612"
    },
    {
      "channel": 4,
      "note": 69,
      "start": 18.2278,
      "duration": 0.0379,
      "velocity": 109,
      "chip": "ym2612"
    },
    {
      "channel": 4,
      "note": 68,
      "start": 18.2657,
      "duration": 0.0125,
      "velocity": 109,
      "chip": "ym2612"
    },
    {
      "channel": 4,
      "note": 67,
      "start": 18.2782,
      "duration": 0.0126,
      "velocity": 109,
      "chip": "ym2612"
    },
    {
      "channel": 4,
      "note": 66,
      "start": 18.2908,
      "duration": 0.0159,
      "velocity": 109,
      "chip": "ym2612"
    },
    {
      "channel": 1,
      "note": 49,
      "start": 18.3041,
      "duration": 0.1271,
      "velocity": 112,
      "chip": "ym2612"
    },
    {
      "channel": 3,
      "note": 67,
      "start": 18.3063,
      "duration": 0.063,
      "velocity": 107,
      "chip": "ym2612"
    },
    {
      "channel": 4,
      "note": 69,
      "start": 18.3069,
      "duration": 0.0008,
      "velocity": 109,
      "chip": "ym2612"
    },
    {
      "channel": 4,
      "note": 68,
      "start": 18.3077,
      "duration": 0.0094,
      "velocity": 109,
      "chip": "ym2612"
    },
    {
      "channel": 4,
      "note": 67,
      "start": 18.3171,
      "duration": 0.0249,
      "velocity": 109,
      "chip": "ym2612"
    },
    {
      "channel": 4,
      "note": 66,
      "start": 18.342,
      "duration": 0.0127,
      "velocity": 109,
      "chip": "ym2612"
    },
    {
      "channel": 4,
      "note": 65,
      "start": 18.3547,
      "duration": 0.0156,
      "velocity": 109,
      "chip": "ym2612"
    },
    {
      "channel": 3,
      "note": 67,
      "start": 18.3695,
      "duration": 0.0639,
      "velocity": 107,
      "chip": "ym2612"
    },
    {
      "channel": 4,
      "note": 64,
      "start": 18.3703,
      "duration": 0.0102,
      "velocity": 109,
      "chip": "ym2612"
    },
    {
      "channel": 4,
      "note": 63,
      "start": 18.3806,
      "duration": 0.0127,
      "velocity": 109,
      "chip": "ym2612"
    },
    {
      "channel": 4,
      "note": 62,
      "start": 18.3933,
      "duration": 0.0245,
      "velocity": 109,
      "chip": "ym2612"
    },
    {
      "channel": 4,
      "note": 61,
      "start": 18.4178,
      "duration": 0.0161,
      "velocity": 109,
      "chip": "ym2612"
    },
    {
      "channel": 0,
      "note": 68,
      "start": 18.4308,
      "duration": 0.0639,
      "velocity": 103,
      "chip": "ym2612"
    },
    {
      "channel": 1,
      "note": 37,
      "start": 18.4313,
      "duration": 0.1145,
      "velocity": 112,
      "chip": "ym2612"
    },
    {
      "channel": 3,
      "note": 67,
      "start": 18.4335,
      "duration": 0.1144,
      "velocity": 107,
      "chip": "ym2612"
    },
    {
      "channel": 4,
      "note": 69,
      "start": 18.4341,
      "duration": 0.0008,
      "velocity": 109,
      "chip": "ym2612"
    },
    {
      "channel": 4,
      "note": 68,
      "start": 18.4349,
      "duration": 0.0093,
      "velocity": 109,
      "chip": "ym2612"
    },
    {
      "channel": 4,
      "note": 67,
      "start": 18.4442,
      "duration": 0.0127,
      "velocity": 109,
      "chip": "ym2612"
    },
    {
      "channel": 4,
      "note": 66,
      "start": 18.4569,
      "duration": 0.0124,
      "velocity": 109,
      "chip": "ym2612"
    },
    {
      "channel": 4,
      "note": 65,
      "start": 18.4693,
      "duration": 0.0263,
      "velocity": 109,
      "chip": "ym2612"
    },
    {
      "channel": 0,
      "note": 66,
      "start": 18.4948,
      "duration": 0.0504,
      "velocity": 103,
      "chip": "ym2612"
    },
    {
      "channel": 4,
      "note": 64,
      "start": 18.4956,
      "duration": 0.0116,
      "velocity": 109,
      "chip": "ym2612"
    },
    {
      "channel": 4,
      "note": 63,
      "start": 18.5072,
      "duration": 0.0125,
      "velocity": 109,
      "chip": "ym2612"
    },
    {
      "channel": 4,
      "note": 62,
      "start": 18.5197,
      "duration": 0.0127,
      "velocity": 109,
      "chip": "ym2612"
    },
    {
      "channel": 4,
      "note": 61,
      "start": 18.5324,
      "duration": 0.0167,
      "velocity": 109,
      "chip": "ym2612"
    },
    {
      "channel": 0,
      "note": 68,
      "start": 18.5454,
      "duration": 0.1318,
      "velocity": 103,
      "chip": "ym2612"
    },
    {
      "channel": 1,
      "note": 47,
      "start": 18.5459,
      "duration": 0.1318,
      "velocity": 112,
      "chip": "ym2612"
    },
    {
      "channel": 3,
      "note": 67,
      "start": 18.5481,
      "duration": 0.1317,
      "velocity": 107,
      "chip": "ym2612"
    },
    {
      "channel": 4,
      "note": 60,
      "start": 18.549,
      "duration": 0.0219,
      "velocity": 109,
      "chip": "ym2612"
    },
    {
      "channel": 4,
      "note": 58,
      "start": 18.5709,
      "duration": 0.0124,
      "velocity": 109,
      "chip": "ym2612"
    },
    {
      "channel": 4,
      "note": 57,
      "start": 18.5834,
      "duration": 0.0124,
      "velocity": 109,
      "chip": "ym2612"
    },
    {
      "channel": 4,
      "note": 56,
      "start": 18.5958,
      "duration": 0.025,
      "velocity": 109,
      "chip": "ym2612"
    },
    {
      "channel": 4,
      "note": 55,
      "start": 18.6208,
      "duration": 0.0251,
      "velocity": 109,
      "chip": "ym2612"
    },
    {
      "channel": 4,
      "note": 54,
      "start": 18.6459,
      "duration": 0.0144,
      "velocity": 109,
      "chip": "ym2612"
    },
    {
      "channel": 4,
      "note": 53,
      "start": 18.6603,
      "duration": 0.0204,
      "velocity": 109,
      "chip": "ym2612"
    },
    {
      "channel": 0,
      "note": 71,
      "start": 18.6773,
      "duration": 0.1666,
      "velocity": 103,
      "chip": "ym2612"
    },
    {
      "channel": 1,
      "note": 44,
      "start": 18.6779,
      "duration": 0.1666,
      "velocity": 112,
      "chip": "ym2612"
    },
    {
      "channel": 3,
      "note": 67,
      "start": 18.6801,
      "duration": 0.0822,
      "velocity": 107,
      "chip": "ym2612"
    },
    {
      "channel": 4,
      "note": 52,
      "start": 18.6807,
      "duration": 0.0129,
      "velocity": 109,
      "chip": "ym2612"
    },
    {
      "channel": 4,
      "note": 51,
      "start": 18.6936,
      "duration": 0.0167,
      "velocity": 109,
      "chip": "ym2612"
    },
    {
      "channel": 4,
      "note": 50,
      "start": 18.7103,
      "duration": 0.0333,
      "velocity": 109,
      "chip": "ym2612"
    },
    {
      "channel": 4,
      "note": 49,
      "start": 18.7436,
      "duration": 0.0194,
      "velocity": 109,
      "chip": "ym2612"
    },
    {
      "channel": 3,
      "note": 67,
      "start": 18.7625,
      "duration": 0.0841,
      "velocity": 107,
      "chip": "ym2612"
    },
    {
      "channel": 4,
      "note": 48,
      "start": 18.763,
      "duration": 0.0139,
      "velocity": 109,
      "chip": "ym2612"
    },
    {
      "channel": 4,
      "note": 46,
      "start": 18.777,
      "duration": 0.0167,
      "velocity": 109,
      "chip": "ym2612"
    },
    {
      "channel": 4,
      "note": 45,
      "start": 18.7936,
      "duration": 0.0167,
      "velocity": 109,
      "chip": "ym2612"
    },
    {
      "channel": 4,
      "note": 44,
      "start": 18.8103,
      "duration": 0.0374,
      "velocity": 109,
      "chip": "ym2612"
    },
    {
      "channel": 0,
      "note": 76,
      "start": 18.8441,
      "duration": 0.1141,
      "velocity": 103,
      "chip": "ym2612"
    },
    {
      "channel": 1,
      "note": 54,
      "start": 18.8446,
      "duration": 0.1142,
      "velocity": 112,
      "chip": "ym2612"
    },
    {
      "channel": 3,
      "note": 67,
      "start": 18.8468,
      "duration": 0.1141,
      "velocity": 107,
      "chip": "ym2612"
    },
    {
      "channel": 4,
      "note": 43,
      "start": 18.8477,
      "duration": 0.0094,
      "velocity": 109,
      "chip": "ym2612"
    },
    {
      "channel": 4,
      "note": 42,
      "start": 18.8571,
      "duration": 0.0127,
      "velocity": 109,
      "chip": "ym2612"
    },
    {
      "channel": 4,
      "note": 41,
      "start": 18.8698,
      "duration": 0.0127,
      "velocity": 109,
      "chip": "ym2612"
    },
    {
      "channel": 4,
      "note": 40,
      "start": 18.8825,
      "duration": 0.0381,
      "velocity": 109,
      "chip": "ym2612"
    },
    {
      "channel": 4,
      "note": 39,
      "start": 18.9207,
      "duration": 0.0122,
      "velocity": 109,
      "chip": "ym2612"
    },
    {
      "channel": 4,
      "note": 38,
      "start": 18.9329,
      "duration": 0.0125,
      "velocity": 109,
      "chip": "ym2612"
    },
    {
      "channel": 4,
      "note": 37,
      "start": 18.9454,
      "duration": 0.0169,
      "velocity": 109,
      "chip": "ym2612"
    },
    {
      "channel": 0,
      "note": 66,
      "start": 18.9584,
      "duration": 0.0035,
      "velocity": 103,
      "chip": "ym2612"
    },
    {
      "channel": 1,
      "note": 37,
      "start": 18.959,
      "duration": 0.1299,
      "velocity": 112,
      "chip": "ym2612"
    },
    {
      "channel": 3,
      "note": 67,
      "start": 18.9612,
      "duration": 0.1298,
      "velocity": 107,
      "chip": "ym2612"
    },
    {
      "channel": 0,
      "note": 66,
      "start": 18.9619,
      "duration": 0.0097,
      "velocity": 103,
      "chip": "ym2612"
    },
    {
      "channel": 4,
      "note": 36,
      "start": 18.9623,
      "duration": 0.0097,
      "velocity": 109,
      "chip": "ym2612"
    },
    {
      "channel": 0,
      "note": 66,
      "start": 18.9716,
      "duration": 0.025,
      "velocity": 103,
      "chip": "ym2612"
    },
    {
      "channel": 4,
      "note": 34,
      "start": 18.972,
      "duration": 0.0251,
      "velocity": 109,
      "chip": "ym2612"
    },
    {
      "channel": 0,
      "note": 66,
      "start": 18.9966,
      "duration": 0.0126,
      "velocity": 103,
      "chip": "ym2612"
    },
    {
      "channel": 4,
      "note": 33,
      "start": 18.997,
      "duration": 0.0126,
      "velocity": 109,
      "chip": "ym2612"
    },
    {
      "channel": 0,
      "note": 67,
      "start": 19.0092,
      "duration": 0.0253,
      "velocity": 103,
      "chip": "ym2612"
    },
    {
      "channel": 4,
      "note": 32,
      "start": 19.0096,
      "duration": 0.0253,
      "velocity": 109,
      "chip": "ym2612"
    },
    {
      "channel": 0,
      "note": 67,
      "start": 19.0345,
      "duration": 0.0124,
      "velocity": 103,
      "chip": "ym2612"
    },
    {
      "channel": 4,
      "note": 31,
      "start": 19.0349,
      "duration": 0.0124,
      "velocity": 109,
      "chip": "ym2612"
    },
    {
      "channel": 0,
      "note": 67,
      "start": 19.0469,
      "duration": 0.0254,
      "velocity": 103,
      "chip": "ym2612"
    },
    {
      "channel": 4,
      "note": 30,
      "start": 19.0473,
      "duration": 0.0254,
      "velocity": 109,
      "chip": "ym2612"
    },
    {
      "channel": 0,
      "note": 67,
      "start": 19.0723,
      "duration": 0.0193,
      "velocity": 103,
      "chip": "ym2612"
    },
    {
      "channel": 4,
      "note": 29,
      "start": 19.0728,
      "duration": 0.0193,
      "velocity": 109,
      "chip": "ym2612"
    },
    {
      "channel": 1,
      "note": 49,
      "start": 19.089,
      "duration": 0.1499,
      "velocity": 112,
      "chip": "ym2612"
    },
    {
      "channel": 3,
      "note": 67,
      "start": 19.0912,
      "duration": 0.0827,
      "velocity": 107,
      "chip": "ym2612"
    },
    {
      "channel": 0,
      "note": 67,
      "start": 19.0916,
      "duration": 0.0134,
      "velocity": 103,
      "chip": "ym2612"
    },
    {
      "channel": 4,
      "note": 28,
      "start": 19.092,
      "duration": 0.0135,
      "velocity": 109,
      "chip": "ym2612"
    },
    {
      "channel": 0,
      "note": 67,
      "start": 19.1051,
      "duration": 0.0167,
      "velocity": 103,
      "chip": "ym2612"
    },
    {
      "channel": 4,
      "note": 27,
      "start": 19.1055,
      "duration": 0.0167,
      "velocity": 109,
      "chip": "ym2612"
    },
    {
      "channel": 0,
      "note": 67,
      "start": 19.1217,
      "duration": 0.0167,
      "velocity": 103,
      "chip": "ym2612"
    },
    {
      "channel": 4,
      "note": 26,
      "start": 19.1222,
      "duration": 0.0167,
      "velocity": 109,
      "chip": "ym2612"
    },
    {
      "channel": 0,
      "note": 67,
      "start": 19.1384,
      "duration": 0.0361,
      "velocity": 103,
      "chip": "ym2612"
    },
    {
      "channel": 4,
      "note": 25,
      "start": 19.1388,
      "duration": 0.036,
      "velocity": 109,
      "chip": "ym2612"
    },
    {
      "channel": 3,
      "note": 67,
      "start": 19.174,
      "duration": 0.0672,
      "velocity": 107,
      "chip": "ym2612"
    },
    {
      "channel": 0,
      "note": 67,
      "start": 19.1745,
      "duration": 0.0139,
      "velocity": 103,
      "chip": "ym2612"
    },
    {
      "channel": 4,
      "note": 24,
      "start": 19.1748,
      "duration": 0.014,
      "velocity": 109,
      "chip": "ym2612"
    },
    {
      "channel": 0,
      "note": 68,
      "start": 19.1884,
      "duration": 0.0167,
      "velocity": 103,
      "chip": "ym2612"
    },
    {
      "channel": 4,
      "note": 23,
      "start": 19.1888,
      "duration": 0.0167,
      "velocity": 109,
      "chip": "ym2612"
    },
    {
      "channel": 0,
      "note": 68,
      "start": 19.2051,
      "duration": 0.0167,
      "velocity": 103,
      "chip": "ym2612"
    },
    {
      "channel": 4,
      "note": 21,
      "start": 19.2055,
      "duration": 0.0167,
      "velocity": 109,
      "chip": "ym2612"
    },
    {
      "channel": 0,
      "note": 68,
      "start": 19.2217,
      "duration": 1.2959,
      "velocity": 103,
      "chip": "ym2612"
    },
    {
      "channel": 4,
      "note": 116,
      "start": 19.2222,
      "duration": 0.0201,
      "velocity": 109,
      "chip": "ym2612"
    },
    {
      "channel": 1,
      "note": 37,
      "start": 19.2392,
      "duration": 0.1289,
      "velocity": 112,
      "chip": "ym2612"
    },
    {
      "channel": 3,
      "note": 67,
      "start": 19.2414,
      "duration": 0.1289,
      "velocity": 107,
      "chip": "ym2612"
    },
    {
      "channel": 4,
      "note": 115,
      "start": 19.2423,
      "duration": 0.0218,
      "velocity": 109,
      "chip": "ym2612"
    },
    {
      "channel": 4,
      "note": 114,
      "start": 19.2641,
      "duration": 0.0122,
      "velocity": 109,
      "chip": "ym2612"
    },
    {
      "channel": 4,
      "note": 113,
      "start": 19.2763,
      "duration": 0.0127,
      "velocity": 109,
      "chip": "ym2612"
    },
    {
      "channel": 4,
      "note": 112,
      "start": 19.289,
      "duration": 0.0247,
      "velocity": 109,
      "chip": "ym2612"
    },
    {
      "channel": 4,
      "note": 111,
      "start": 19.3138,
      "duration": 0.025,
      "velocity": 109,
      "chip": "ym2612"
    },
    {
      "channel": 4,
      "note": 110,
      "start": 19.3388,
      "duration": 0.0129,
      "velocity": 109,
      "chip": "ym2612"
    },
    {
      "channel": 4,
      "note": 109,
      "start": 19.3517,
      "duration": 0.0196,
      "velocity": 109,
      "chip": "ym2612"
    },
    {
      "channel": 1,
      "note": 47,
      "start": 19.3683,
      "duration": 0.1338,
      "velocity": 112,
      "chip": "ym2612"
    },
    {
      "channel": 3,
      "note": 67,
      "start": 19.3705,
      "duration": 0.1338,
      "velocity": 107,
      "chip": "ym2612"
    },
    {
      "channel": 4,
      "note": 108,
      "start": 19.3714,
      "duration": 0.01,
      "velocity": 109,
      "chip": "ym2612"
    },
    {
      "channel": 4,
      "note": 107,
      "start": 19.3814,
      "duration": 0.0125,
      "velocity": 109,
      "chip": "ym2612"
    },
    {
      "channel": 4,
      "note": 105,
      "start": 19.3939,
      "duration": 0.0249,
      "velocity": 109,
      "chip": "ym2612"
    },
    {
      "channel": 4,
      "note": 104,
      "start": 19.4188,
      "duration": 0.025,
      "velocity": 109,
      "chip": "ym2612"
    },
    {
      "channel": 4,
      "note": 103,
      "start": 19.4438,
      "duration": 0.0127,
      "velocity": 109,
      "chip": "ym2612"
    },
    {
      "channel": 4,
      "note": 102,
      "start": 19.4565,
      "duration": 0.0127,
      "velocity": 109,
      "chip": "ym2612"
    },
    {
      "channel": 4,
      "note": 101,
      "start": 19.4692,
      "duration": 0.0359,
      "velocity": 109,
      "chip": "ym2612"
    },
    {
      "channel": 1,
      "note": 49,
      "start": 19.5023,
      "duration": 0.1482,
      "velocity": 112,
      "chip": "ym2612"
    },
    {
      "channel": 3,
      "note": 67,
      "start": 19.5044,
      "duration": 0.0644,
      "velocity": 107,
      "chip": "ym2612"
    },
    {
      "channel": 4,
      "note": 100,
      "start": 19.5051,
      "duration": 0.0118,
      "velocity": 109,
      "chip": "ym2612"
    },
    {
      "channel": 4,
      "note": 99,
      "start": 19.5169,
      "duration": 0.0167,
      "velocity": 109,
      "chip": "ym2612"
    },
    {
      "channel": 4,
      "note": 98,
      "start": 19.5336,
      "duration": 0.0167,
      "velocity": 109,
      "chip": "ym2612"
    },
    {
      "channel": 4,
      "note": 97,
      "start": 19.5502,
      "duration": 0.0194,
      "velocity": 109,
      "chip": "ym2612"
    },
    {
      "channel": 3,
      "note": 67,
      "start": 19.5691,
      "duration": 0.0837,
      "velocity": 107,
      "chip": "ym2612"
    },
    {
      "channel": 4,
      "note": 96,
      "start": 19.5696,
      "duration": 0.0306,
      "velocity": 109,
      "chip": "ym2612"
    },
    {
      "channel": 4,
      "note": 95,
      "start": 19.6002,
      "duration": 0.0167,
      "velocity": 109,
      "chip": "ym2612"
    },
    {
      "channel": 4,
      "note": 93,
      "start": 19.6169,
      "duration": 0.0167,
      "velocity": 109,
      "chip": "ym2612"
    },
    {
      "channel": 4,
      "note": 92,
      "start": 19.6336,
      "duration": 0.0202,
      "velocity": 109,
      "chip": "ym2612"
    },
    {
      "channel": 1,
      "note": 52,
      "start": 19.6507,
      "duration": 0.13,
      "velocity": 112,
      "chip": "ym2612"
    },
    {
      "channel": 3,
      "note": 67,
      "start": 19.6528,
      "duration": 0.13,
      "velocity": 107,
      "chip": "ym2612"
    },
    {
      "channel": 4,
      "note": 91,
      "start": 19.6538,
      "duration": 0.01,
      "velocity": 109,
      "chip": "ym2612"
    },
    {
      "channel": 4,
      "note": 90,
      "start": 19.6637,
      "duration": 0.0251,
      "velocity": 109,
      "chip": "ym2612"
    },
    {
      "channel": 4,
      "note": 89,
      "start": 19.6889,
      "duration": 0.0123,
      "velocity": 109,
      "chip": "ym2612"
    },
    {
      "channel": 4,
      "note": 88,
      "start": 19.7012,
      "duration": 0.0252,
      "velocity": 109,
      "chip": "ym2612"
    },
    {
      "channel": 4,
      "note": 87,
      "start": 19.7264,
      "duration": 0.0127,
      "velocity": 109,
      "chip": "ym2612"
    },
    {
      "channel": 4,
      "note": 86,
      "start": 19.7391,
      "duration": 0.0248,
      "velocity": 109,
      "chip": "ym2612"
    },
    {
      "channel": 4,
      "note": 85,
      "start": 19.7639,
      "duration": 0.02,
      "velocity": 109,
      "chip": "ym2612"
    },
    {
      "channel": 1,
      "note": 37,
      "start": 19.7808,
      "duration": 0.1138,
      "velocity": 112,
      "chip": "ym2612"
    },
    {
      "channel": 3,
      "note": 67,
      "start": 19.783,
      "duration": 0.1138,
      "velocity": 107,
      "chip": "ym2612"
    },
    {
      "channel": 4,
      "note": 84,
      "start": 19.7839,
      "duration": 0.0097,
      "velocity": 109,
      "chip": "ym2612"
    },
    {
      "channel": 4,
      "note": 83,
      "start": 19.7935,
      "duration": 0.0124,
      "velocity": 109,
      "chip": "ym2612"
    },
    {
      "channel": 4,
      "note": 81,
      "start": 19.806,
      "duration": 0.0124,
      "velocity": 109,
      "chip": "ym2612"
    },
    {
      "channel": 4,
      "note": 80,
      "start": 19.8184,
      "duration": 0.0376,
      "velocity": 109,
      "chip": "ym2612"
    },
    {
      "channel": 4,
      "note": 79,
      "start": 19.856,
      "duration": 0.0127,
      "velocity": 109,
      "chip": "ym2612"
    },
    {
      "channel": 4,
      "note": 78,
      "start": 19.8687,
      "duration": 0.0126,
      "velocity": 109,
      "chip": "ym2612"
    },
    {
      "channel": 4,
      "note": 77,
      "start": 19.8813,
      "duration": 0.0161,
      "velocity": 109,
      "chip": "ym2612"
    },
    {
      "channel": 1,
      "note": 49,
      "start": 19.8948,
      "duration": 0.1277,
      "velocity": 112,
      "chip": "ym2612"
    },
    {
      "channel": 3,
      "note": 67,
      "start": 19.8969,
      "duration": 0.0635,
      "velocity": 107,
      "chip": "ym2612"
    },
    {
      "channel": 4,
      "note": 74,
      "start": 19.8976,
      "duration": 0.0009,
      "velocity": 109,
      "chip": "ym2612"
    },
    {
      "channel": 4,
      "note": 73,
      "start": 19.8985,
      "duration": 0.0221,
      "velocity": 109,
      "chip": "ym2612"
    },
    {
      "channel": 4,
      "note": 72,
      "start": 19.9206,
      "duration": 0.0127,
      "velocity": 109,
      "chip": "ym2612"
    },
    {
      "channel": 4,
      "note": 70,
      "start": 19.9333,
      "duration": 0.0124,
      "velocity": 109,
      "chip": "ym2612"
    },
    {
      "channel": 4,
      "note": 69,
      "start": 19.9458,
      "duration": 0.0157,
      "velocity": 109,
      "chip": "ym2612"
    },
    {
      "channel": 3,
      "note": 67,
      "start": 19.9606,
      "duration": 0.064,
      "velocity": 107,
      "chip": "ym2612"
    },
    {
      "channel": 4,
      "note": 68,
      "start": 19.9615,
      "duration": 0.0103,
      "velocity": 109,
      "chip": "ym2612"
    },
    {
      "channel": 4,
      "note": 67,
      "start": 19.9718,
      "duration": 0.0248,
      "velocity": 109,
      "chip": "ym2612"
    },
    {
      "channel": 4,
      "note": 66,
      "start": 19.9966,
      "duration": 0.0124,
      "velocity": 109,
      "chip": "ym2612"
    },
    {
      "channel": 4,
      "note": 65,
      "start": 20.009,
      "duration": 0.0162,
      "velocity": 109,
      "chip": "ym2612"
    },
    {
      "channel": 1,
      "note": 37,
      "start": 20.0227,
      "duration": 0.1303,
      "velocity": 112,
      "chip": "ym2612"
    },
    {
      "channel": 3,
      "note": 67,
      "start": 20.0248,
      "duration": 0.1303,
      "velocity": 107,
      "chip": "ym2612"
    },
    {
      "channel": 4,
      "note": 74,
      "start": 20.0254,
      "duration": 0.0009,
      "velocity": 109,
      "chip": "ym2612"
    },
    {
      "channel": 4,
      "note": 73,
      "start": 20.0263,
      "duration": 0.0093,
      "velocity": 109,
      "chip": "ym2612"
    },
    {
      "channel": 4,
      "note": 72,
      "start": 20.0356,
      "duration": 0.0124,
      "velocity": 109,
      "chip": "ym2612"
    },
    {
      "channel": 4,
      "note": 70,
      "start": 20.048,
      "duration": 0.0253,
      "velocity": 109,
      "chip": "ym2612"
    },
    {
      "channel": 4,
      "note": 69,
      "start": 20.0733,
      "duration": 0.0254,
      "velocity": 109,
      "chip": "ym2612"
    },
    {
      "channel": 4,
      "note": 68,
      "start": 20.0986,
      "duration": 0.0127,
      "velocity": 109,
      "chip": "ym2612"
    },
    {
      "channel": 4,
      "note": 67,
      "start": 20.1113,
      "duration": 0.0127,
      "velocity": 109,
      "chip": "ym2612"
    },
    {
      "channel": 4,
      "note": 66,
      "start": 20.124,
      "duration": 0.0317,
      "velocity": 109,
      "chip": "ym2612"
    },
    {
      "channel": 1,
      "note": 47,
      "start": 20.1531,
      "duration": 0.1155,
      "velocity": 112,
      "chip": "ym2612"
    },
    {
      "channel": 3,
      "note": 67,
      "start": 20.1553,
      "duration": 0.1155,
      "velocity": 107,
      "chip": "ym2612"
    },
    {
      "channel": 4,
      "note": 69,
      "start": 20.1559,
      "duration": 0.0008,
      "velocity": 109,
      "chip": "ym2612"
    },
    {
      "channel": 4,
      "note": 68,
      "start": 20.1567,
      "duration": 0.0097,
      "velocity": 109,
      "chip": "ym2612"
    },
    {
      "channel": 4,
      "note": 67,
      "start": 20.1664,
      "duration": 0.0128,
      "velocity": 109,
      "chip": "ym2612"
    },
    {
      "channel": 4,
      "note": 66,
      "start": 20.1792,
      "duration": 0.0125,
      "velocity": 109,
      "chip": "ym2612"
    },
    {
      "channel": 4,
      "note": 65,
      "start": 20.1917,
      "duration": 0.013,
      "velocity": 109,
      "chip": "ym2612"
    },
    {
      "channel": 4,
      "note": 69,
      "start": 20.2049,
      "duration": 0.0005,
      "velocity": 109,
      "chip": "ym2612"
    },
    {
      "channel": 4,
      "note": 68,
      "start": 20.2054,
      "duration": 0.0238,
      "velocity": 109,
      "chip": "ym2612"
    },
    {
      "channel": 4,
      "note": 67,
      "start": 20.2292,
      "duration": 0.0124,
      "velocity": 109,
      "chip": "ym2612"
    },
    {
      "channel": 4,
      "note": 66,
      "start": 20.2416,
      "duration": 0.0127,
      "velocity": 109,
      "chip": "ym2612"
    },
    {
      "channel": 4,
      "note": 65,
      "start": 20.2544,
      "duration": 0.017,
      "velocity": 109,
      "chip": "ym2612"
    },
    {
      "channel": 1,
      "note": 49,
      "start": 20.2688,
      "duration": 0.1316,
      "velocity": 112,
      "chip": "ym2612"
    },
    {
      "channel": 3,
      "note": 67,
      "start": 20.271,
      "duration": 0.0631,
      "velocity": 107,
      "chip": "ym2612"
    },
    {
      "channel": 4,
      "note": 69,
      "start": 20.2716,
      "duration": 0.0008,
      "velocity": 109,
      "chip": "ym2612"
    },
    {
      "channel": 4,
      "note": 68,
      "start": 20.2724,
      "duration": 0.0097,
      "velocity": 109,
      "chip": "ym2612"
    },
    {
      "channel": 4,
      "note": 67,
      "start": 20.2821,
      "duration": 0.0248,
      "velocity": 109,
      "chip": "ym2612"
    },
    {
      "channel": 4,
      "note": 66,
      "start": 20.3069,
      "duration": 0.0127,
      "velocity": 109,
      "chip": "ym2612"
    },
    {
      "channel": 4,
      "note": 65,
      "start": 20.3196,
      "duration": 0.0153,
      "velocity": 109,
      "chip": "ym2612"
    },
    {
      "channel": 3,
      "note": 67,
      "start": 20.3342,
      "duration": 0.0683,
      "velocity": 107,
      "chip": "ym2612"
    },
    {
      "channel": 4,
      "note": 64,
      "start": 20.3348,
      "duration": 0.0103,
      "velocity": 109,
      "chip": "ym2612"
    },
    {
      "channel": 4,
      "note": 63,
      "start": 20.3451,
      "duration": 0.0125,
      "velocity": 109,
      "chip": "ym2612"
    },
    {
      "channel": 4,
      "note": 62,
      "start": 20.3576,
      "duration": 0.0257,
      "velocity": 109,
      "chip": "ym2612"
    },
    {
      "channel": 4,
      "note": 61,
      "start": 20.3834,
      "duration": 0.0197,
      "velocity": 109,
      "chip": "ym2612"
    },
    {
      "channel": 1,
      "note": 54,
      "start": 20.4005,
      "duration": 0.1178,
      "velocity": 112,
      "chip": "ym2612"
    },
    {
      "channel": 3,
      "note": 67,
      "start": 20.4027,
      "duration": 0.1183,
      "velocity": 107,
      "chip": "ym2612"
    },
    {
      "channel": 4,
      "note": 69,
      "start": 20.4033,
      "duration": 0.5246,
      "velocity": 109,
      "chip": "ym2612"
    },
    {
      "channel": 0,
      "note": 73,
      "start": 20.5178,
      "duration": 0.5397,
      "velocity": 103,
      "chip": "ym2612"
    },
    {
      "channel": 1,
      "note": 37,
      "start": 20.5184,
      "duration": 0.1269,
      "velocity": 112,
      "chip": "ym2612"
    },
    {
      "channel": 2,
      "note": 66,
      "start": 20.519,
      "duration": 3.1662,
      "velocity": 124,
      "chip": "ym2612"
    },
    {
      "channel": 3,
      "note": 67,
      "start": 20.5212,
      "duration": 0.1262,
      "velocity": 107,
      "chip": "ym2612"
    },
    {
      "channel": 1,
      "note": 49,
      "start": 20.6454,
      "duration": 0.1666,
      "velocity": 112,
      "chip": "ym2612"
    },
    {
      "channel": 3,
      "note": 67,
      "start": 20.6476,
      "duration": 0.0827,
      "velocity": 107,
      "chip": "ym2612"
    },
    {
      "channel": 3,
      "note": 67,
      "start": 20.7305,
      "duration": 0.0837,
      "velocity": 107,
      "chip": "ym2612"
    },
    {
      "channel": 1,
      "note": 37,
      "start": 20.8121,
      "duration": 0.1129,
      "velocity": 112,
      "chip": "ym2612"
    },
    {
      "channel": 3,
      "note": 67,
      "start": 20.8143,
      "duration": 0.1129,
      "velocity": 107,
      "chip": "ym2612"
    },
    {
      "channel": 1,
      "note": 47,
      "start": 20.9252,
      "duration": 0.1329,
      "velocity": 112,
      "chip": "ym2612"
    },
    {
      "channel": 3,
      "note": 67,
      "start": 20.9274,
      "duration": 0.1328,
      "velocity": 107,
      "chip": "ym2612"
    },
    {
      "channel": 4,
      "note": 74,
      "start": 20.928,
      "duration": 0.0008,
      "velocity": 109,
      "chip": "ym2612"
    },
    {
      "channel": 4,
      "note": 73,
      "start": 20.9289,
      "duration": 0.0093,
      "velocity": 109,
      "chip": "ym2612"
    },
    {
      "channel": 4,
      "note": 72,
      "start": 20.9382,
      "duration": 0.0249,
      "velocity": 109,
      "chip": "ym2612"
    },
    {
      "channel": 4,
      "note": 70,
      "start": 20.9631,
      "duration": 0.0128,
      "velocity": 109,
      "chip": "ym2612"
    },
    {
      "channel": 4,
      "note": 69,
      "start": 20.9759,
      "duration": 0.0249,
      "velocity": 109,
      "chip": "ym2612"
    },
    {
      "channel": 4,
      "note": 68,
      "start": 21.0008,
      "duration": 0.0127,
      "velocity": 109,
      "chip": "ym2612"
    },
    {
      "channel": 4,
      "note": 67,
      "start": 21.0135,
      "duration": 0.0271,
      "velocity": 109,
      "chip": "ym2612"
    },
    {
      "channel": 4,
      "note": 66,
      "start": 21.0406,
      "duration": 0.0202,
      "velocity": 109,
      "chip": "ym2612"
    },
    {
      "channel": 0,
      "note": 71,
      "start": 21.0577,
      "duration": 0.0832,
      "velocity": 103,
      "chip": "ym2612"
    },
    {
      "channel": 1,
      "note": 49,
      "start": 21.0582,
      "duration": 0.1499,
      "velocity": 112,
      "chip": "ym2612"
    },
    {
      "channel": 3,
      "note": 67,
      "start": 21.0605,
      "duration": 0.0826,
      "velocity": 107,
      "chip": "ym2612"
    },
    {
      "channel": 4,
      "note": 69,
      "start": 21.061,
      "duration": 0.0006,
      "velocity": 109,
      "chip": "ym2612"
    },
    {
      "channel": 4,
      "note": 68,
      "start": 21.0616,
      "duration": 0.0123,
      "velocity": 109,
      "chip": "ym2612"
    },
    {
      "channel": 4,
      "note": 67,
      "start": 21.0739,
      "duration": 0.0167,
      "velocity": 109,
      "chip": "ym2612"
    },
    {
      "channel": 4,
      "note": 66,
      "start": 21.0906,
      "duration": 0.0167,
      "velocity": 109,
      "chip": "ym2612"
    },
    {
      "channel": 4,
      "note": 65,
      "start": 21.1073,
      "duration": 0.0366,
      "velocity": 109,
      "chip": "ym2612"
    },
    {
      "channel": 0,
      "note": 73,
      "start": 21.141,
      "duration": 0.0666,
      "velocity": 103,
      "chip": "ym2612"
    },
    {
      "channel": 3,
      "note": 67,
      "start": 21.1433,
      "duration": 0.067,
      "velocity": 107,
      "chip": "ym2612"
    },
    {
      "channel": 4,
      "note": 64,
      "start": 21.1438,
      "duration": 0.0134,
      "velocity": 109,
      "chip": "ym2612"
    },
    {
      "channel": 4,
      "note": 63,
      "start": 21.1573,
      "duration": 0.0167,
      "velocity": 109,
      "chip": "ym2612"
    },
    {
      "channel": 4,
      "note": 62,
      "start": 21.1739,
      "duration": 0.0167,
      "velocity": 109,
      "chip": "ym2612"
    },
    {
      "channel": 4,
      "note": 61,
      "start": 21.1906,
      "duration": 0.0203,
      "velocity": 109,
      "chip": "ym2612"
    },
    {
      "channel": 0,
      "note": 76,
      "start": 21.2077,
      "duration": 0.1299,
      "velocity": 103,
      "chip": "ym2612"
    },
    {
      "channel": 1,
      "note": 52,
      "start": 21.2083,
      "duration": 0.1299,
      "velocity": 112,
      "chip": "ym2612"
    },
    {
      "channel": 3,
      "note": 67,
      "start": 21.2105,
      "duration": 0.1299,
      "velocity": 107,
      "chip": "ym2612"
    },
    {
      "channel": 4,
      "note": 69,
      "start": 21.211,
      "duration": 0.0009,
      "velocity": 109,
      "chip": "ym2612"
    },
    {
      "channel": 4,
      "note": 68,
      "start": 21.2119,
      "duration": 0.0216,
      "velocity": 109,
      "chip": "ym2612"
    },
    {
      "channel": 4,
      "note": 67,
      "start": 21.2335,
      "duration": 0.0122,
      "velocity": 109,
      "chip": "ym2612"
    },
    {
      "channel": 4,
      "note": 66,
      "start": 21.2457,
      "duration": 0.0127,
      "velocity": 109,
      "chip": "ym2612"
    },
    {
      "channel": 4,
      "note": 65,
      "start": 21.2585,
      "duration": 0.0249,
      "velocity": 109,
      "chip": "ym2612"
    },
    {
      "channel": 4,
      "note": 64,
      "start": 21.2834,
      "duration": 0.0249,
      "velocity": 109,
      "chip": "ym2612"
    },
    {
      "channel": 4,
      "note": 63,
      "start": 21.3082,
      "duration": 0.0128,
      "velocity": 109,
      "chip": "ym2612"
    },
    {
      "channel": 4,
      "note": 62,
      "start": 21.3211,
      "duration": 0.0199,
      "velocity": 109,
      "chip": "ym2612"
    },
    {
      "channel": 0,
      "note": 78,
      "start": 21.3378,
      "duration": 0.1287,
      "velocity": 103,
      "chip": "ym2612"
    },
    {
      "channel": 1,
      "note": 37,
      "start": 21.3383,
      "duration": 0.1287,
      "velocity": 112,
      "chip": "ym2612"
    },
    {
      "channel": 3,
      "note": 67,
      "start": 21.3405,
      "duration": 0.1286,
      "velocity": 107,
      "chip": "ym2612"
    },
    {
      "channel": 4,
      "note": 74,
      "start": 21.3411,
      "duration": 0.0009,
      "velocity": 109,
      "chip": "ym2612"
    },
    {
      "channel": 4,
      "note": 73,
      "start": 21.342,
      "duration": 0.0088,
      "velocity": 109,
      "chip": "ym2612"
    },
    {
      "channel": 4,
      "note": 72,
      "start": 21.3508,
      "duration": 0.0125,
      "velocity": 109,
      "chip": "ym2612"
    },
    {
      "channel": 4,
      "note": 70,
      "start": 21.3633,
      "duration": 0.0249,
      "velocity": 109,
      "chip": "ym2612"
    },
    {
      "channel": 4,
      "note": 69,
      "start": 21.3882,
      "duration": 0.025,
      "velocity": 109,
      "chip": "ym2612"
    },
    {
      "channel": 4,
      "note": 68,
      "start": 21.4132,
      "duration": 0.0124,
      "velocity": 109,
      "chip": "ym2612"
    },
    {
      "channel": 4,
      "note": 67,
      "start": 21.4256,
      "duration": 0.0122,
      "velocity": 109,
      "chip": "ym2612"
    },
    {
      "channel": 4,
      "note": 66,
      "start": 21.4378,
      "duration": 0.032,
      "velocity": 109,
      "chip": "ym2612"
    },
    {
      "channel": 0,
      "note": 76,
      "start": 21.4666,
      "duration": 0.1142,
      "velocity": 103,
      "chip": "ym2612"
    },
    {
      "channel": 1,
      "note": 49,
      "start": 21.4672,
      "duration": 0.1142,
      "velocity": 112,
      "chip": "ym2612"
    },
    {
      "channel": 3,
      "note": 67,
      "start": 21.4694,
      "duration": 0.0498,
      "velocity": 107,
      "chip": "ym2612"
    },
    {
      "channel": 4,
      "note": 69,
      "start": 21.4699,
      "duration": 0.0009,
      "velocity": 109,
      "chip": "ym2612"
    },
    {
      "channel": 4,
      "note": 68,
      "start": 21.4708,
      "duration": 0.009,
      "velocity": 109,
      "chip": "ym2612"
    },
    {
      "channel": 4,
      "note": 67,
      "start": 21.4798,
      "duration": 0.0122,
      "velocity": 109,
      "chip": "ym2612"
    },
    {
      "channel": 4,
      "note": 66,
      "start": 21.492,
      "duration": 0.0125,
      "velocity": 109,
      "chip": "ym2612"
    },
    {
      "channel": 4,
      "note": 65,
      "start": 21.5045,
      "duration": 0.0158,
      "velocity": 109,
      "chip": "ym2612"
    },
    {
      "channel": 3,
      "note": 67,
      "start": 21.5194,
      "duration": 0.0642,
      "velocity": 107,
      "chip": "ym2612"
    },
    {
      "channel": 4,
      "note": 64,
      "start": 21.5203,
      "duration": 0.0223,
      "velocity": 109,
      "chip": "ym2612"
    },
    {
      "channel": 4,
      "note": 63,
      "start": 21.5426,
      "duration": 0.0127,
      "velocity": 109,
      "chip": "ym2612"
    },
    {
      "channel": 4,
      "note": 62,
      "start": 21.5554,
      "duration": 0.0128,
      "velocity": 109,
      "chip": "ym2612"
    },
    {
      "channel": 4,
      "note": 61,
      "start": 21.5681,
      "duration": 0.016,
      "velocity": 109,
      "chip": "ym2612"
    },
    {
      "channel": 0,
      "note": 78,
      "start": 21.581,
      "duration": 0.1303,
      "velocity": 103,
      "chip": "ym2612"
    },
    {
      "channel": 1,
      "note": 37,
      "start": 21.5816,
      "duration": 0.1302,
      "velocity": 112,
      "chip": "ym2612"
    },
    {
      "channel": 3,
      "note": 67,
      "start": 21.5838,
      "duration": 0.1302,
      "velocity": 107,
      "chip": "ym2612"
    },
    {
      "channel": 4,
      "note": 69,
      "start": 21.5844,
      "duration": 0.0008,
      "velocity": 109,
      "chip": "ym2612"
    },
    {
      "channel": 4,
      "note": 68,
      "start": 21.5852,
      "duration": 0.0093,
      "velocity": 109,
      "chip": "ym2612"
    },
    {
      "channel": 4,
      "note": 67,
      "start": 21.5945,
      "duration": 0.0249,
      "velocity": 109,
      "chip": "ym2612"
    },
    {
      "channel": 4,
      "note": 66,
      "start": 21.6194,
      "duration": 0.0125,
      "velocity": 109,
      "chip": "ym2612"
    },
    {
      "channel": 4,
      "note": 65,
      "start": 21.6319,
      "duration": 0.025,
      "velocity": 109,
      "chip": "ym2612"
    },
    {
      "channel": 4,
      "note": 64,
      "start": 21.6569,
      "duration": 0.0127,
      "velocity": 109,
      "chip": "ym2612"
    },
    {
      "channel": 4,
      "note": 63,
      "start": 21.6697,
      "duration": 0.0255,
      "velocity": 109,
      "chip": "ym2612"
    },
    {
      "channel": 4,
      "note": 62,
      "start": 21.6951,
      "duration": 0.02,
      "velocity": 109,
      "chip": "ym2612"
    },
    {
      "channel": 0,
      "note": 80,
      "start": 21.7114,
      "duration": 0.0637,
      "velocity": 103,
      "chip": "ym2612"
    },
    {
      "channel": 1,
      "note": 47,
      "start": 21.712,
      "duration": 0.1149,
      "velocity": 112,
      "chip": "ym2612"
    },
    {
      "channel": 3,
      "note": 67,
      "start": 21.7142,
      "duration": 0.1148,
      "velocity": 107,
      "chip": "ym2612"
    },
    {
      "channel": 4,
      "note": 61,
      "start": 21.7151,
      "duration": 0.0094,
      "velocity": 109,
      "chip": "ym2612"
    },
    {
      "channel": 4,
      "note": 60,
      "start": 21.7245,
      "duration": 0.0127,
      "velocity": 109,
      "chip": "ym2612"
    },
    {
      "channel": 4,
      "note": 58,
      "start": 21.7372,
      "duration": 0.0127,
      "velocity": 109,
      "chip": "ym2612"
    },
    {
      "channel": 4,
      "note": 57,
      "start": 21.7499,
      "duration": 0.0262,
      "velocity": 109,
      "chip": "ym2612"
    },
    {
      "channel": 0,
      "note": 83,
      "start": 21.7753,
      "duration": 0.051,
      "velocity": 103,
      "chip": "ym2612"
    },
    {
      "channel": 4,
      "note": 56,
      "start": 21.7761,
      "duration": 0.0111,
      "velocity": 109,
      "chip": "ym2612"
    },
    {
      "channel": 4,
      "note": 55,
      "start": 21.7872,
      "duration": 0.0124,
      "velocity": 109,
      "chip": "ym2612"
    },
    {
      "channel": 4,
      "note": 54,
      "start": 21.7997,
      "duration": 0.0127,
      "velocity": 109,
      "chip": "ym2612"
    },
    {
      "channel": 4,
      "note": 53,
      "start": 21.8123,
      "duration": 0.0175,
      "velocity": 109,
      "chip": "ym2612"
    },
    {
      "channel": 0,
      "note": 80,
      "start": 21.8265,
      "duration": 0.0832,
      "velocity": 103,
      "chip": "ym2612"
    },
    {
      "channel": 1,
      "note": 44,
      "start": 21.827,
      "duration": 0.1666,
      "velocity": 112,
      "chip": "ym2612"
    },
    {
      "channel": 3,
      "note": 67,
      "start": 21.8292,
      "duration": 0.0827,
      "velocity": 107,
      "chip": "ym2612"
    },
    {
      "channel": 4,
      "note": 52,
      "start": 21.8298,
      "duration": 0.0296,
      "velocity": 109,
      "chip": "ym2612"
    },
    {
      "channel": 4,
      "note": 51,
      "start": 21.8594,
      "duration": 0.0167,
      "velocity": 109,
      "chip": "ym2612"
    },
    {
      "channel": 4,
      "note": 50,
      "start": 21.8761,
      "duration": 0.0167,
      "velocity": 109,
      "chip": "ym2612"
    },
    {
      "channel": 4,
      "note": 49,
      "start": 21.8927,
      "duration": 0.0199,
      "velocity": 109,
      "chip": "ym2612"
    },
    {
      "channel": 0,
      "note": 83,
      "start": 21.9098,
      "duration": 0.0832,
      "velocity": 103,
      "chip": "ym2612"
    },
    {
      "channel": 3,
      "note": 67,
      "start": 21.912,
      "duration": 0.0837,
      "velocity": 107,
      "chip": "ym2612"
    },
    {
      "channel": 4,
      "note": 48,
      "start": 21.9127,
      "duration": 0.0134,
      "velocity": 109,
      "chip": "ym2612"
    },
    {
      "channel": 4,
      "note": 46,
      "start": 21.9261,
      "duration": 0.0333,
      "velocity": 109,
      "chip": "ym2612"
    },
    {
      "channel": 4,
      "note": 45,
      "start": 21.9594,
      "duration": 0.0167,
      "velocity": 109,
      "chip": "ym2612"
    },
    {
      "channel": 4,
      "note": 44,
      "start": 21.9761,
      "duration": 0.0207,
      "velocity": 109,
      "chip": "ym2612"
    },
    {
      "channel": 0,
      "note": 80,
      "start": 21.9932,
      "duration": 0.0632,
      "velocity": 103,
      "chip": "ym2612"
    },
    {
      "channel": 1,
      "note": 54,
      "start": 21.9937,
      "duration": 0.1293,
      "velocity": 112,
      "chip": "ym2612"
    },
    {
      "channel": 3,
      "note": 67,
      "start": 21.9959,
      "duration": 0.1292,
      "velocity": 107,
      "chip": "ym2612"
    },
    {
      "channel": 4,
      "note": 43,
      "start": 21.9968,
      "duration": 0.0095,
      "velocity": 109,
      "chip": "ym2612"
    },
    {
      "channel": 4,
      "note": 42,
      "start": 22.0063,
      "duration": 0.0127,
      "velocity": 109,
      "chip": "ym2612"
    },
    {
      "channel": 4,
      "note": 41,
      "start": 22.019,
      "duration": 0.0248,
      "velocity": 109,
      "chip": "ym2612"
    },
    {
      "channel": 4,
      "note": 40,
      "start": 22.0438,
      "duration": 0.0136,
      "velocity": 109,
      "chip": "ym2612"
    },
    {
      "channel": 0,
      "note": 83,
      "start": 22.0566,
      "duration": 0.0658,
      "velocity": 103,
      "chip": "ym2612"
    },
    {
      "channel": 4,
      "note": 39,
      "start": 22.0574,
      "duration": 0.0112,
      "velocity": 109,
      "chip": "ym2612"
    },
    {
      "channel": 4,
      "note": 38,
      "start": 22.0686,
      "duration": 0.0127,
      "velocity": 109,
      "chip": "ym2612"
    },
    {
      "channel": 4,
      "note": 37,
      "start": 22.0813,
      "duration": 0.0123,
      "velocity": 109,
      "chip": "ym2612"
    },
    {
      "channel": 4,
      "note": 36,
      "start": 22.0935,
      "duration": 0.0327,
      "velocity": 109,
      "chip": "ym2612"
    },
    {
      "channel": 0,
      "note": 80,
      "start": 22.1226,
      "duration": 0.0512,
      "velocity": 103,
      "chip": "ym2612"
    },
    {
      "channel": 1,
      "note": 37,
      "start": 22.1231,
      "duration": 0.1134,
      "velocity": 112,
      "chip": "ym2612"
    },
    {
      "channel": 3,
      "note": 67,
      "start": 22.1254,
      "duration": 0.1134,
      "velocity": 107,
      "chip": "ym2612"
    },
    {
      "channel": 4,
      "note": 34,
      "start": 22.1263,
      "duration": 0.0095,
      "velocity": 109,
      "chip": "ym2612"
    },
    {
      "channel": 4,
      "note": 33,
      "start": 22.1357,
      "duration": 0.0127,
      "velocity": 109,
      "chip": "ym2612"
    },
    {
      "channel": 4,
      "note": 32,
      "start": 22.1484,
      "duration": 0.0125,
      "velocity": 109,
      "chip": "ym2612"
    },
    {
      "channel": 4,
      "note": 31,
      "start": 22.161,
      "duration": 0.0139,
      "velocity": 109,
      "chip": "ym2612"
    },
    {
      "channel": 0,
      "note": 83,
      "start": 22.1741,
      "duration": 0.062,
      "velocity": 103,
      "chip": "ym2612"
    },
    {
      "channel": 4,
      "note": 30,
      "start": 22.1748,
      "duration": 0.024,
      "velocity": 109,
      "chip": "ym2612"
    },
    {
      "channel": 4,
      "note": 29,
      "start": 22.1988,
      "duration": 0.0124,
      "velocity": 109,
      "chip": "ym2612"
    },
    {
      "channel": 4,
      "note": 28,
      "start": 22.2113,
      "duration": 0.0122,
      "velocity": 109,
      "chip": "ym2612"
    },
    {
      "channel": 4,
      "note": 27,
      "start": 22.2234,
      "duration": 0.0161,
      "velocity": 109,
      "chip": "ym2612"
    },
    {
      "channel": 0,
      "note": 85,
      "start": 22.2362,
      "duration": 0.0824,
      "velocity": 103,
      "chip": "ym2612"
    },
    {
      "channel": 1,
      "note": 49,
      "start": 22.2367,
      "duration": 0.1659,
      "velocity": 112,
      "chip": "ym2612"
    },
    {
      "channel": 3,
      "note": 67,
      "start": 22.2389,
      "duration": 0.082,
      "velocity": 107,
      "chip": "ym2612"
    },
    {
      "channel": 4,
      "note": 26,
      "start": 22.2395,
      "duration": 0.0122,
      "velocity": 109,
      "chip": "ym2612"
    },
    {
      "channel": 4,
      "note": 25,
      "start": 22.2517,
      "duration": 0.0333,
      "velocity": 109,
      "chip": "ym2612"
    },
    {
      "channel": 4,
      "note": 24,
      "start": 22.2851,
      "duration": 0.0167,
      "velocity": 109,
      "chip": "ym2612"
    },
    {
      "channel": 4,
      "note": 23,
      "start": 22.3017,
      "duration": 0.0199,
      "velocity": 109,
      "chip": "ym2612"
    },
    {
      "channel": 0,
      "note": 83,
      "start": 22.3188,
      "duration": 0.0832,
      "velocity": 103,
      "chip": "ym2612"
    },
    {
      "channel": 3,
      "note": 67,
      "start": 22.321,
      "duration": 0.0837,
      "velocity": 107,
      "chip": "ym2612"
    },
    {
      "channel": 4,
      "note": 21,
      "start": 22.3216,
      "duration": 0.0134,
      "velocity": 109,
      "chip": "ym2612"
    },
    {
      "channel": 4,
      "note": 116,
      "start": 22.3351,
      "duration": 0.0167,
      "velocity": 109,
      "chip": "ym2612"
    },
    {
      "channel": 4,
      "note": 115,
      "start": 22.3517,
      "duration": 0.0333,
      "velocity": 109,
      "chip": "ym2612"
    },
    {
      "channel": 4,
      "note": 114,
      "start": 22.3851,
      "duration": 0.0207,
      "velocity": 109,
      "chip": "ym2612"
    },
    {
      "channel": 0,
      "note": 85,
      "start": 22.4022,
      "duration": 0.0634,
      "velocity": 103,
      "chip": "ym2612"
    },
    {
      "channel": 1,
      "note": 37,
      "start": 22.4027,
      "duration": 0.1137,
      "velocity": 112,
      "chip": "ym2612"
    },
    {
      "channel": 3,
      "note": 67,
      "start": 22.4049,
      "duration": 0.1136,
      "velocity": 107,
      "chip": "ym2612"
    },
    {
      "channel": 4,
      "note": 113,
      "start": 22.4058,
      "duration": 0.0095,
      "velocity": 109,
      "chip": "ym2612"
    },
    {
      "channel": 4,
      "note": 112,
      "start": 22.4153,
      "duration": 0.0127,
      "velocity": 109,
      "chip": "ym2612"
    },
    {
      "channel": 4,
      "note": 111,
      "start": 22.428,
      "duration": 0.0124,
      "velocity": 109,
      "chip": "ym2612"
    },
    {
      "channel": 4,
      "note": 110,
      "start": 22.4404,
      "duration": 0.0261,
      "velocity": 109,
      "chip": "ym2612"
    },
    {
      "channel": 0,
      "note": 83,
      "start": 22.4657,
      "duration": 0.0501,
      "velocity": 103,
      "chip": "ym2612"
    },
    {
      "channel": 4,
      "note": 109,
      "start": 22.4665,
      "duration": 0.0113,
      "velocity": 109,
      "chip": "ym2612"
    },
    {
      "channel": 4,
      "note": 108,
      "start": 22.4778,
      "duration": 0.0123,
      "velocity": 109,
      "chip": "ym2612"
    },
    {
      "channel": 4,
      "note": 107,
      "start": 22.4901,
      "duration": 0.0127,
      "velocity": 109,
      "chip": "ym2612"
    },
    {
      "channel": 4,
      "note": 105,
      "start": 22.5027,
      "duration": 0.0169,
      "velocity": 109,
      "chip": "ym2612"
    },
    {
      "channel": 0,
      "note": 85,
      "start": 22.516,
      "duration": 0.0635,
      "velocity": 103,
      "chip": "ym2612"
    },
    {
      "channel": 1,
      "note": 47,
      "start": 22.5165,
      "duration": 0.1321,
      "velocity": 112,
      "chip": "ym2612"
    },
    {
      "channel": 3,
      "note": 67,
      "start": 22.5188,
      "duration": 0.132,
      "velocity": 107,
      "chip": "ym2612"
    },
    {
      "channel": 4,
      "note": 104,
      "start": 22.5196,
      "duration": 0.022,
      "velocity": 109,
      "chip": "ym2612"
    },
    {
      "channel": 4,
      "note": 103,
      "start": 22.5416,
      "duration": 0.0124,
      "velocity": 109,
      "chip": "ym2612"
    },
    {
      "channel": 4,
      "note": 102,
      "start": 22.554,
      "duration": 0.0127,
      "velocity": 109,
      "chip": "ym2612"
    },
    {
      "channel": 4,
      "note": 101,
      "start": 22.5668,
      "duration": 0.0137,
      "velocity": 109,
      "chip": "ym2612"
    },
    {
      "channel": 0,
      "note": 83,
      "start": 22.5797,
      "duration": 0.0684,
      "velocity": 103,
      "chip": "ym2612"
    },
    {
      "channel": 4,
      "note": 100,
      "start": 22.5804,
      "duration": 0.0115,
      "velocity": 109,
      "chip": "ym2612"
    },
    {
      "channel": 4,
      "note": 99,
      "start": 22.592,
      "duration": 0.0252,
      "velocity": 109,
      "chip": "ym2612"
    },
    {
      "channel": 4,
      "note": 98,
      "start": 22.6171,
      "duration": 0.014,
      "velocity": 109,
      "chip": "ym2612"
    },
    {
      "channel": 4,
      "note": 97,
      "start": 22.6312,
      "duration": 0.0204,
      "velocity": 109,
      "chip": "ym2612"
    },
    {
      "channel": 0,
      "note": 85,
      "start": 22.6482,
      "duration": 0.0832,
      "velocity": 103,
      "chip": "ym2612"
    },
    {
      "channel": 1,
      "note": 49,
      "start": 22.6488,
      "duration": 0.1665,
      "velocity": 112,
      "chip": "ym2612"
    },
    {
      "channel": 3,
      "note": 67,
      "start": 22.651,
      "duration": 0.0827,
      "velocity": 107,
      "chip": "ym2612"
    },
    {
      "channel": 4,
      "note": 96,
      "start": 22.6516,
      "duration": 0.0129,
      "velocity": 109,
      "chip": "ym2612"
    },
    {
      "channel": 4,
      "note": 95,
      "start": 22.6645,
      "duration": 0.0167,
      "velocity": 109,
      "chip": "ym2612"
    },
    {
      "channel": 4,
      "note": 93,
      "start": 22.6812,
      "duration": 0.0333,
      "velocity": 109,
      "chip": "ym2612"
    },
    {
      "channel": 4,
      "note": 92,
      "start": 22.7145,
      "duration": 0.0199,
      "velocity": 109,
      "chip": "ym2612"
    },
    {
      "channel": 0,
      "note": 83,
      "start": 22.7316,
      "duration": 0.0832,
      "velocity": 103,
      "chip": "ym2612"
    },
    {
      "channel": 3,
      "note": 67,
      "start": 22.7338,
      "duration": 0.0837,
      "velocity": 107,
      "chip": "ym2612"
    },
    {
      "channel": 4,
      "note": 91,
      "start": 22.7344,
      "duration": 0.0134,
      "velocity": 109,
      "chip": "ym2612"
    },
    {
      "channel": 4,
      "note": 90,
      "start": 22.7478,
      "duration": 0.0167,
      "velocity": 109,
      "chip": "ym2612"
    },
    {
      "channel": 4,
      "note": 89,
      "start": 22.7645,
      "duration": 0.0167,
      "velocity": 109,
      "chip": "ym2612"
    },
    {
      "channel": 4,
      "note": 88,
      "start": 22.7812,
      "duration": 0.0374,
      "velocity": 109,
      "chip": "ym2612"
    },
    {
      "channel": 0,
      "note": 85,
      "start": 22.8149,
      "duration": 0.0515,
      "velocity": 103,
      "chip": "ym2612"
    },
    {
      "channel": 1,
      "note": 52,
      "start": 22.8155,
      "duration": 0.1143,
      "velocity": 112,
      "chip": "ym2612"
    },
    {
      "channel": 3,
      "note": 67,
      "start": 22.8177,
      "duration": 0.1142,
      "velocity": 107,
      "chip": "ym2612"
    },
    {
      "channel": 4,
      "note": 87,
      "start": 22.8186,
      "duration": 0.0094,
      "velocity": 109,
      "chip": "ym2612"
    },
    {
      "channel": 4,
      "note": 86,
      "start": 22.828,
      "duration": 0.0127,
      "velocity": 109,
      "chip": "ym2612"
    },
    {
      "channel": 4,
      "note": 85,
      "start": 22.8407,
      "duration": 0.0127,
      "velocity": 109,
      "chip": "ym2612"
    },
    {
      "channel": 4,
      "note": 84,
      "start": 22.8534,
      "duration": 0.0139,
      "velocity": 109,
      "chip": "ym2612"
    },
    {
      "channel": 0,
      "note": 83,
      "start": 22.8665,
      "duration": 0.0627,
      "velocity": 103,
      "chip": "ym2612"
    },
    {
      "channel": 4,
      "note": 83,
      "start": 22.8673,
      "duration": 0.024,
      "velocity": 109,
      "chip": "ym2612"
    },
    {
      "channel": 4,
      "note": 81,
      "start": 22.8913,
      "duration": 0.0124,
      "velocity": 109,
      "chip": "ym2612"
    },
    {
      "channel": 4,
      "note": 80,
      "start": 22.9038,
      "duration": 0.0124,
      "velocity": 109,
      "chip": "ym2612"
    },
    {
      "channel": 4,
      "note": 79,
      "start": 22.9162,
      "duration": 0.0169,
      "velocity": 109,
      "chip": "ym2612"
    },
    {
      "channel": 0,
      "note": 85,
      "start": 22.9294,
      "duration": 0.5602,
      "velocity": 103,
      "chip": "ym2612"
    },
    {
      "channel": 1,
      "note": 37,
      "start": 22.9299,
      "duration": 0.1289,
      "velocity": 112,
      "chip": "ym2612"
    },
    {
      "channel": 3,
      "note": 67,
      "start": 22.9322,
      "duration": 0.1289,
      "velocity": 107,
      "chip": "ym2612"
    },
    {
      "channel": 4,
      "note": 78,
      "start": 22.933,
      "duration": 0.0095,
      "velocity": 109,
      "chip": "ym2612"
    },
    {
      "channel": 4,
      "note": 77,
      "start": 22.9425,
      "duration": 0.0249,
      "velocity": 109,
      "chip": "ym2612"
    },
    {
      "channel": 4,
      "note": 76,
      "start": 22.9674,
      "duration": 0.0124,
      "velocity": 109,
      "chip": "ym2612"
    },
    {
      "channel": 4,
      "note": 75,
      "start": 22.9798,
      "duration": 0.0249,
      "velocity": 109,
      "chip": "ym2612"
    },
    {
      "channel": 4,
      "note": 74,
      "start": 23.0047,
      "duration": 0.0125,
      "velocity": 109,
      "chip": "ym2612"
    },
    {
      "channel": 4,
      "note": 73,
      "start": 23.0172,
      "duration": 0.0251,
      "velocity": 109,
      "chip": "ym2612"
    },
    {
      "channel": 4,
      "note": 72,
      "start": 23.0423,
      "duration": 0.0194,
      "velocity": 109,
      "chip": "ym2612"
    },
    {
      "channel": 1,
      "note": 49,
      "start": 23.059,
      "duration": 0.1144,
      "velocity": 112,
      "chip": "ym2612"
    },
    {
      "channel": 3,
      "note": 67,
      "start": 23.0612,
      "duration": 0.0645,
      "velocity": 107,
      "chip": "ym2612"
    },
    {
      "channel": 4,
      "note": 74,
      "start": 23.0618,
      "duration": 0.0009,
      "velocity": 109,
      "chip": "ym2612"
    },
    {
      "channel": 4,
      "note": 73,
      "start": 23.0627,
      "duration": 0.0092,
      "velocity": 109,
      "chip": "ym2612"
    },
    {
      "channel": 4,
      "note": 72,
      "start": 23.072,
      "duration": 0.0123,
      "velocity": 109,
      "chip": "ym2612"
    },
    {
      "channel": 4,
      "note": 70,
      "start": 23.0843,
      "duration": 0.0127,
      "velocity": 109,
      "chip": "ym2612"
    },
    {
      "channel": 4,
      "note": 69,
      "start": 23.0969,
      "duration": 0.0298,
      "velocity": 109,
      "chip": "ym2612"
    },
    {
      "channel": 3,
      "note": 67,
      "start": 23.1259,
      "duration": 0.0498,
      "velocity": 107,
      "chip": "ym2612"
    },
    {
      "channel": 4,
      "note": 68,
      "start": 23.1268,
      "duration": 0.0087,
      "velocity": 109,
      "chip": "ym2612"
    },
    {
      "channel": 4,
      "note": 67,
      "start": 23.1355,
      "duration": 0.0126,
      "velocity": 109,
      "chip": "ym2612"
    },
    {
      "channel": 4,
      "note": 66,
      "start": 23.1481,
      "duration": 0.0125,
      "velocity": 109,
      "chip": "ym2612"
    },
    {
      "channel": 4,
      "note": 65,
      "start": 23.1606,
      "duration": 0.0157,
      "velocity": 109,
      "chip": "ym2612"
    },
    {
      "channel": 1,
      "note": 37,
      "start": 23.1737,
      "duration": 0.1297,
      "velocity": 112,
      "chip": "ym2612"
    },
    {
      "channel": 3,
      "note": 67,
      "start": 23.1759,
      "duration": 0.1296,
      "velocity": 107,
      "chip": "ym2612"
    },
    {
      "channel": 4,
      "note": 74,
      "start": 23.1765,
      "duration": 0.0008,
      "velocity": 109,
      "chip": "ym2612"
    },
    {
      "channel": 4,
      "note": 73,
      "start": 23.1773,
      "duration": 0.0217,
      "velocity": 109,
      "chip": "ym2612"
    },
    {
      "channel": 4,
      "note": 72,
      "start": 23.199,
      "duration": 0.0127,
      "velocity": 109,
      "chip": "ym2612"
    },
    {
      "channel": 4,
      "note": 70,
      "start": 23.2117,
      "duration": 0.0128,
      "velocity": 109,
      "chip": "ym2612"
    },
    {
      "channel": 4,
      "note": 69,
      "start": 23.2244,
      "duration": 0.0248,
      "velocity": 109,
      "chip": "ym2612"
    },
    {
      "channel": 4,
      "note": 68,
      "start": 23.2492,
      "duration": 0.0253,
      "velocity": 109,
      "chip": "ym2612"
    },
    {
      "channel": 4,
      "note": 67,
      "start": 23.2745,
      "duration": 0.0126,
      "velocity": 109,
      "chip": "ym2612"
    },
    {
      "channel": 4,
      "note": 66,
      "start": 23.2871,
      "duration": 0.019,
      "velocity": 109,
      "chip": "ym2612"
    },
    {
      "channel": 1,
      "note": 47,
      "start": 23.3035,
      "duration": 0.1333,
      "velocity": 112,
      "chip": "ym2612"
    },
    {
      "channel": 3,
      "note": 67,
      "start": 23.3057,
      "duration": 0.1333,
      "velocity": 107,
      "chip": "ym2612"
    },
    {
      "channel": 4,
      "note": 69,
      "start": 23.3063,
      "duration": 0.0008,
      "velocity": 109,
      "chip": "ym2612"
    },
    {
      "channel": 4,
      "note": 68,
      "start": 23.3071,
      "duration": 0.0097,
      "velocity": 109,
      "chip": "ym2612"
    },
    {
      "channel": 4,
      "note": 67,
      "start": 23.3168,
      "duration": 0.0128,
      "velocity": 109,
      "chip": "ym2612"
    },
    {
      "channel": 4,
      "note": 66,
      "start": 23.3297,
      "duration": 0.0248,
      "velocity": 109,
      "chip": "ym2612"
    },
    {
      "channel": 4,
      "note": 65,
      "start": 23.3545,
      "duration": 0.0131,
      "velocity": 109,
      "chip": "ym2612"
    },
    {
      "channel": 4,
      "note": 69,
      "start": 23.3678,
      "duration": 0.0006,
      "velocity": 109,
      "chip": "ym2612"
    },
    {
      "channel": 4,
      "note": 68,
      "start": 23.3683,
      "duration": 0.0112,
      "velocity": 109,
      "chip": "ym2612"
    },
    {
      "channel": 4,
      "note": 67,
      "start": 23.3795,
      "duration": 0.0123,
      "velocity": 109,
      "chip": "ym2612"
    },
    {
      "channel": 4,
      "note": 66,
      "start": 23.3918,
      "duration": 0.0124,
      "velocity": 109,
      "chip": "ym2612"
    },
    {
      "channel": 4,
      "note": 65,
      "start": 23.4043,
      "duration": 0.0353,
      "velocity": 109,
      "chip": "ym2612"
    },
    {
      "channel": 1,
      "note": 49,
      "start": 23.4369,
      "duration": 0.1137,
      "velocity": 112,
      "chip": "ym2612"
    },
    {
      "channel": 3,
      "note": 67,
      "start": 23.4392,
      "duration": 0.0498,
      "velocity": 107,
      "chip": "ym2612"
    },
    {
      "channel": 4,
      "note": 69,
      "start": 23.4398,
      "duration": 0.0008,
      "velocity": 109,
      "chip": "ym2612"
    },
    {
      "channel": 4,
      "note": 68,
      "start": 23.4406,
      "duration": 0.0084,
      "velocity": 109,
      "chip": "ym2612"
    },
    {
      "channel": 4,
      "note": 67,
      "start": 23.449,
      "duration": 0.0127,
      "velocity": 109,
      "chip": "ym2612"
    },
    {
      "channel": 4,
      "note": 66,
      "start": 23.4617,
      "duration": 0.0126,
      "velocity": 109,
      "chip": "ym2612"
    },
    {
      "channel": 4,
      "note": 65,
      "start": 23.4743,
      "duration": 0.0157,
      "velocity": 109,
      "chip": "ym2612"
    },
    {
      "channel": 3,
      "note": 67,
      "start": 23.4892,
      "duration": 0.0637,
      "velocity": 107,
      "chip": "ym2612"
    },
    {
      "channel": 0,
      "note": 84,
      "start": 23.4896,
      "duration": 0.0227,
      "velocity": 103,
      "chip": "ym2612"
    },
    {
      "channel": 4,
      "note": 64,
      "start": 23.49,
      "duration": 0.0228,
      "velocity": 109,
      "chip": "ym2612"
    },
    {
      "channel": 0,
      "note": 84,
      "start": 23.5124,
      "duration": 0.0125,
      "velocity": 103,
      "chip": "ym2612"
    },
    {
      "channel": 4,
      "note": 63,
      "start": 23.5128,
      "duration": 0.0125,
      "velocity": 109,
      "chip": "ym2612"
    },
    {
      "channel": 0,
      "note": 83,
      "start": 23.5249,
      "duration": 0.0124,
      "velocity": 103,
      "chip": "ym2612"
    },
    {
      "channel": 4,
      "note": 62,
      "start": 23.5254,
      "duration": 0.0124,
      "velocity": 109,
      "chip": "ym2612"
    },
    {
      "channel": 0,
      "note": 82,
      "start": 23.5373,
      "duration": 0.0169,
      "velocity": 103,
      "chip": "ym2612"
    },
    {
      "channel": 4,
      "note": 61,
      "start": 23.5378,
      "duration": 0.0156,
      "velocity": 109,
      "chip": "ym2612"
    },
    {
      "channel": 1,
      "note": 54,
      "start": 23.5508,
      "duration": 0.1339,
      "velocity": 93,
      "chip": "ym2612"
    },
    {
      "channel": 3,
      "note": 67,
      "start": 23.5529,
      "duration": 0.1344,
      "velocity": 107,
      "chip": "ym2612"
    },
    {
      "channel": 4,
      "note": 69,
      "start": 23.5536,
      "duration": 0.5419,
      "velocity": 109,
      "chip": "ym2612"
    },
    {
      "channel": 0,
      "note": 81,
      "start": 23.5542,
      "duration": 0.0092,
      "velocity": 103,
      "chip": "ym2612"
    },
    {
      "channel": 0,
      "note": 80,
      "start": 23.5634,
      "duration": 0.0251,
      "velocity": 103,
      "chip": "ym2612"
    },
    {
      "channel": 0,
      "note": 80,
      "start": 23.5885,
      "duration": 0.0126,
      "velocity": 103,
      "chip": "ym2612"
    },
    {
      "channel": 0,
      "note": 79,
      "start": 23.6011,
      "duration": 0.0133,
      "velocity": 103,
      "chip": "ym2612"
    },
    {
      "channel": 0,
      "note": 79,
      "start": 23.6144,
      "duration": 0.012,
      "velocity": 103,
      "chip": "ym2612"
    },
    {
      "channel": 0,
      "note": 78,
      "start": 23.6263,
      "duration": 0.0125,
      "velocity": 103,
      "chip": "ym2612"
    },
    {
      "channel": 0,
      "note": 78,
      "start": 23.6389,
      "duration": 0.0264,
      "velocity": 103,
      "chip": "ym2612"
    },
    {
      "channel": 0,
      "note": 77,
      "start": 23.6653,
      "duration": 0.0172,
      "velocity": 103,
      "chip": "ym2612"
    },
    {
      "channel": 0,
      "note": 75,
      "start": 23.6827,
      "duration": 0.1133,
      "velocity": 103,
      "chip": "ym2612"
    },
    {
      "channel": 1,
      "note": 39,
      "start": 23.6848,
      "duration": 0.2781,
      "velocity": 93,
      "chip": "ym2612"
    },
    {
      "channel": 2,
      "note": 51,
      "start": 23.6855,
      "duration": 0.5257,
      "velocity": 124,
      "chip": "ym2612"
    },
    {
      "channel": 3,
      "note": 67,
      "start": 23.6876,
      "duration": 0.1107,
      "velocity": 107,
      "chip": "ym2612"
    },
    {
      "channel": 0,
      "note": 70,
      "start": 23.7963,
      "duration": 0.1661,
      "velocity": 103,
      "chip": "ym2612"
    },
    {
      "channel": 3,
      "note": 67,
      "start": 23.7985,
      "duration": 0.0822,
      "velocity": 107,
      "chip": "ym2612"
    },
    {
      "channel": 3,
      "note": 67,
      "start": 23.8809,
      "duration": 0.0842,
      "velocity": 107,
      "chip": "ym2612"
    },
    {
      "channel": 0,
      "note": 75,
      "start": 23.9626,
      "duration": 0.1294,
      "velocity": 103,
      "chip": "ym2612"
    },
    {
      "channel": 1,
      "note": 51,
      "start": 23.9631,
      "duration": 0.1295,
      "velocity": 93,
      "chip": "ym2612"
    },
    {
      "channel": 3,
      "note": 67,
      "start": 23.9653,
      "duration": 0.1294,
      "velocity": 107,
      "chip": "ym2612"
    },
    {
      "channel": 0,
      "note": 80,
      "start": 24.0922,
      "duration": 0.1149,
      "velocity": 103,
      "chip": "ym2612"
    },
    {
      "channel": 1,
      "note": 49,
      "start": 24.0928,
      "duration": 0.1149,
      "velocity": 93,
      "chip": "ym2612"
    },
    {
      "channel": 3,
      "note": 67,
      "start": 24.0949,
      "duration": 0.115,
      "velocity": 107,
      "chip": "ym2612"
    },
    {
      "channel": 4,
      "note": 74,
      "start": 24.0956,
      "duration": 0.0009,
      "velocity": 109,
      "chip": "ym2612"
    },
    {
      "channel": 4,
      "note": 73,
      "start": 24.0965,
      "duration": 0.0089,
      "velocity": 109,
      "chip": "ym2612"
    },
    {
      "channel": 4,
      "note": 72,
      "start": 24.1054,
      "duration": 0.0123,
      "velocity": 109,
      "chip": "ym2612"
    },
    {
      "channel": 4,
      "note": 70,
      "start": 24.1177,
      "duration": 0.0127,
      "velocity": 109,
      "chip": "ym2612"
    },
    {
      "channel": 4,
      "note": 69,
      "start": 24.1304,
      "duration": 0.0375,
      "velocity": 109,
      "chip": "ym2612"
    },
    {
      "channel": 4,
      "note": 68,
      "start": 24.1679,
      "duration": 0.0124,
      "velocity": 109,
      "chip": "ym2612"
    },
    {
      "channel": 4,
      "note": 67,
      "start": 24.1803,
      "duration": 0.0124,
      "velocity": 109,
      "chip": "ym2612"
    },
    {
      "channel": 4,
      "note": 66,
      "start": 24.1928,
      "duration": 0.0178,
      "velocity": 109,
      "chip": "ym2612"
    },
    {
      "channel": 0,
      "note": 82,
      "start": 24.2073,
      "duration": 0.1665,
      "velocity": 103,
      "chip": "ym2612"
    },
    {
      "channel": 1,
      "note": 46,
      "start": 24.2078,
      "duration": 0.1666,
      "velocity": 93,
      "chip": "ym2612"
    },
    {
      "channel": 3,
      "note": 67,
      "start": 24.2102,
      "duration": 0.0821,
      "velocity": 107,
      "chip": "ym2612"
    },
    {
      "channel": 4,
      "note": 69,
      "start": 24.2107,
      "duration": 0.0008,
      "velocity": 109,
      "chip": "ym2612"
    },
    {
      "channel": 2,
      "note": 51,
      "start": 24.2112,
      "duration": 0.0123,
      "velocity": 124,
      "chip": "ym2612"
    },
    {
      "channel": 4,
      "note": 68,
      "start": 24.2115,
      "duration": 0.0123,
      "velocity": 109,
      "chip": "ym2612"
    },
    {
      "channel": 2,
      "note": 51,
      "start": 24.2234,
      "duration": 0.0333,
      "velocity": 124,
      "chip": "ym2612"
    },
    {
      "channel": 4,
      "note": 67,
      "start": 24.2238,
      "duration": 0.0333,
      "velocity": 109,
      "chip": "ym2612"
    },
    {
      "channel": 2,
      "note": 51,
      "start": 24.2567,
      "duration": 0.0167,
      "velocity": 124,
      "chip": "ym2612"
    },
    {
      "channel": 4,
      "note": 66,
      "start": 24.2571,
      "duration": 0.0167,
      "velocity": 109,
      "chip": "ym2612"
    },
    {
      "channel": 2,
      "note": 50,
      "start": 24.2734,
      "duration": 0.0195,
      "velocity": 124,
      "chip": "ym2612"
    },
    {
      "channel": 4,
      "note": 65,
      "start": 24.2738,
      "duration": 0.0195,
      "velocity": 109,
      "chip": "ym2612"
    },
    {
      "channel": 3,
      "note": 67,
      "start": 24.2924,
      "duration": 0.0841,
      "velocity": 107,
      "chip": "ym2612"
    },
    {
      "channel": 2,
      "note": 50,
      "start": 24.2929,
      "duration": 0.0139,
      "velocity": 124,
      "chip": "ym2612"
    },
    {
      "channel": 4,
      "note": 64,
      "start": 24.2932,
      "duration": 0.0139,
      "velocity": 109,
      "chip": "ym2612"
    },
    {
      "channel": 2,
      "note": 50,
      "start": 24.3068,
      "duration": 0.0167,
      "velocity": 124,
      "chip": "ym2612"
    },
    {
      "channel": 4,
      "note": 63,
      "start": 24.3071,
      "duration": 0.0167,
      "velocity": 109,
      "chip": "ym2612"
    },
    {
      "channel": 2,
      "note": 50,
      "start": 24.3234,
      "duration": 0.0333,
      "velocity": 124,
      "chip": "ym2612"
    },
    {
      "channel": 4,
      "note": 62,
      "start": 24.3238,
      "duration": 0.0333,
      "velocity": 109,
      "chip": "ym2612"
    },
    {
      "channel": 2,
      "note": 50,
      "start": 24.3567,
      "duration": 0.0213,
      "velocity": 124,
      "chip": "ym2612"
    },
    {
      "channel": 4,
      "note": 61,
      "start": 24.3571,
      "duration": 0.02,
      "velocity": 109,
      "chip": "ym2612"
    },
    {
      "channel": 0,
      "note": 85,
      "start": 24.374,
      "duration": 0.0629,
      "velocity": 103,
      "chip": "ym2612"
    },
    {
      "channel": 1,
      "note": 49,
      "start": 24.3745,
      "duration": 0.113,
      "velocity": 93,
      "chip": "ym2612"
    },
    {
      "channel": 3,
      "note": 67,
      "start": 24.3767,
      "duration": 0.1134,
      "velocity": 107,
      "chip": "ym2612"
    },
    {
      "channel": 4,
      "note": 69,
      "start": 24.3773,
      "duration": 0.0011,
      "velocity": 109,
      "chip": "ym2612"
    },
    {
      "channel": 2,
      "note": 50,
      "start": 24.378,
      "duration": 0.009,
      "velocity": 124,
      "chip": "ym2612"
    },
    {
      "channel": 4,
      "note": 68,
      "start": 24.3784,
      "duration": 0.009,
      "velocity": 109,
      "chip": "ym2612"
    },
    {
      "channel": 2,
      "note": 49,
      "start": 24.3871,
      "duration": 0.0124,
      "velocity": 124,
      "chip": "ym2612"
    },
    {
      "channel": 4,
      "note": 67,
      "start": 24.3874,
      "duration": 0.0124,
      "velocity": 109,
      "chip": "ym2612"
    },
    {
      "channel": 2,
      "note": 49,
      "start": 24.3995,
      "duration": 0.0122,
      "velocity": 124,
      "chip": "ym2612"
    },
    {
      "channel": 4,
      "note": 66,
      "start": 24.3998,
      "duration": 0.0122,
      "velocity": 109,
      "chip": "ym2612"
    },
    {
      "channel": 2,
      "note": 49,
      "start": 24.4117,
      "duration": 0.026,
      "velocity": 124,
      "chip": "ym2612"
    },
    {
      "channel": 4,
      "note": 65,
      "start": 24.412,
      "duration": 0.026,
      "velocity": 109,
      "chip": "ym2612"
    },
    {
      "channel": 0,
      "note": 87,
      "start": 24.437,
      "duration": 0.0499,
      "velocity": 103,
      "chip": "ym2612"
    },
    {
      "channel": 2,
      "note": 49,
      "start": 24.4377,
      "duration": 0.0115,
      "velocity": 124,
      "chip": "ym2612"
    },
    {
      "channel": 4,
      "note": 64,
      "start": 24.438,
      "duration": 0.0115,
      "velocity": 109,
      "chip": "ym2612"
    },
    {
      "channel": 2,
      "note": 49,
      "start": 24.4492,
      "duration": 0.0123,
      "velocity": 124,
      "chip": "ym2612"
    },
    {
      "channel": 4,
      "note": 63,
      "start": 24.4495,
      "duration": 0.0123,
      "velocity": 109,
      "chip": "ym2612"
    },
    {
      "channel": 2,
      "note": 49,
      "start": 24.4615,
      "duration": 0.0125,
      "velocity": 124,
      "chip": "ym2612"
    },
    {
      "channel": 4,
      "note": 62,
      "start": 24.4618,
      "duration": 0.0125,
      "velocity": 109,
      "chip": "ym2612"
    },
    {
      "channel": 2,
      "note": 48,
      "start": 24.474,
      "duration": 0.0141,
      "velocity": 124,
      "chip": "ym2612"
    },
    {
      "channel": 4,
      "note": 61,
      "start": 24.4743,
      "duration": 0.0164,
      "velocity": 109,
      "chip": "ym2612"
    },
    {
      "channel": 0,
      "note": 85,
      "start": 24.4871,
      "duration": 0.064,
      "velocity": 103,
      "chip": "ym2612"
    },
    {
      "channel": 1,
      "note": 37,
      "start": 24.4877,
      "duration": 0.2574,
      "velocity": 93,
      "chip": "ym2612"
    },
    {
      "channel": 2,
      "note": 49,
      "start": 24.4882,
      "duration": 0.7849,
      "velocity": 124,
      "chip": "ym2612"
    },
    {
      "channel": 3,
      "note": 67,
      "start": 24.4904,
      "duration": 0.1288,
      "velocity": 107,
      "chip": "ym2612"
    },
    {
      "channel": 4,
      "note": 74,
      "start": 24.4909,
      "duration": 0.0008,
      "velocity": 109,
      "chip": "ym2612"
    },
    {
      "channel": 4,
      "note": 73,
      "start": 24.4918,
      "duration": 0.021,
      "velocity": 109,
      "chip": "ym2612"
    },
    {
      "channel": 4,
      "note": 72,
      "start": 24.5128,
      "duration": 0.0127,
      "velocity": 109,
      "chip": "ym2612"
    },
    {
      "channel": 4,
      "note": 70,
      "start": 24.5255,
      "duration": 0.0127,
      "velocity": 109,
      "chip": "ym2612"
    },
    {
      "channel": 4,
      "note": 69,
      "start": 24.5382,
      "duration": 0.0139,
      "velocity": 109,
      "chip": "ym2612"
    },
    {
      "channel": 0,
      "note": 87,
      "start": 24.5513,
      "duration": 0.0656,
      "velocity": 103,
      "chip": "ym2612"
    },
    {
      "channel": 4,
      "note": 68,
      "start": 24.552,
      "duration": 0.0113,
      "velocity": 109,
      "chip": "ym2612"
    },
    {
      "channel": 4,
      "note": 67,
      "start": 24.5633,
      "duration": 0.0251,
      "velocity": 109,
      "chip": "ym2612"
    },
    {
      "channel": 4,
      "note": 66,
      "start": 24.5884,
      "duration": 0.0124,
      "velocity": 109,
      "chip": "ym2612"
    },
    {
      "channel": 4,
      "note": 65,
      "start": 24.6008,
      "duration": 0.0189,
      "velocity": 109,
      "chip": "ym2612"
    },
    {
      "channel": 0,
      "note": 85,
      "start": 24.6171,
      "duration": 0.0636,
      "velocity": 103,
      "chip": "ym2612"
    },
    {
      "channel": 3,
      "note": 67,
      "start": 24.6193,
      "duration": 0.0636,
      "velocity": 107,
      "chip": "ym2612"
    },
    {
      "channel": 4,
      "note": 69,
      "start": 24.6199,
      "duration": 0.0008,
      "velocity": 109,
      "chip": "ym2612"
    },
    {
      "channel": 4,
      "note": 68,
      "start": 24.6207,
      "duration": 0.0097,
      "velocity": 109,
      "chip": "ym2612"
    },
    {
      "channel": 4,
      "note": 67,
      "start": 24.6305,
      "duration": 0.0124,
      "velocity": 109,
      "chip": "ym2612"
    },
    {
      "channel": 4,
      "note": 66,
      "start": 24.6429,
      "duration": 0.0246,
      "velocity": 109,
      "chip": "ym2612"
    },
    {
      "channel": 4,
      "note": 65,
      "start": 24.6675,
      "duration": 0.0165,
      "velocity": 109,
      "chip": "ym2612"
    },
    {
      "channel": 0,
      "note": 87,
      "start": 24.6809,
      "duration": 0.0637,
      "velocity": 103,
      "chip": "ym2612"
    },
    {
      "channel": 3,
      "note": 67,
      "start": 24.6831,
      "duration": 0.0643,
      "velocity": 107,
      "chip": "ym2612"
    },
    {
      "channel": 4,
      "note": 64,
      "start": 24.684,
      "duration": 0.0096,
      "velocity": 109,
      "chip": "ym2612"
    },
    {
      "channel": 4,
      "note": 63,
      "start": 24.6936,
      "duration": 0.0122,
      "velocity": 109,
      "chip": "ym2612"
    },
    {
      "channel": 4,
      "note": 62,
      "start": 24.7058,
      "duration": 0.0127,
      "velocity": 109,
      "chip": "ym2612"
    },
    {
      "channel": 4,
      "note": 61,
      "start": 24.7185,
      "duration": 0.0294,
      "velocity": 109,
      "chip": "ym2612"
    },
    {
      "channel": 0,
      "note": 85,
      "start": 24.7447,
      "duration": 0.0507,
      "velocity": 103,
      "chip": "ym2612"
    },
    {
      "channel": 1,
      "note": 49,
      "start": 24.7453,
      "duration": 0.1132,
      "velocity": 93,
      "chip": "ym2612"
    },
    {
      "channel": 3,
      "note": 67,
      "start": 24.7475,
      "duration": 0.1147,
      "velocity": 107,
      "chip": "ym2612"
    },
    {
      "channel": 4,
      "note": 69,
      "start": 24.7481,
      "duration": 0.0008,
      "velocity": 109,
      "chip": "ym2612"
    },
    {
      "channel": 4,
      "note": 68,
      "start": 24.7489,
      "duration": 0.0093,
      "velocity": 109,
      "chip": "ym2612"
    },
    {
      "channel": 4,
      "note": 67,
      "start": 24.7583,
      "duration": 0.0124,
      "velocity": 109,
      "chip": "ym2612"
    },
    {
      "channel": 4,
      "note": 66,
      "start": 24.7707,
      "duration": 0.0123,
      "velocity": 109,
      "chip": "ym2612"
    },
    {
      "channel": 4,
      "note": 65,
      "start": 24.783,
      "duration": 0.0134,
      "velocity": 109,
      "chip": "ym2612"
    },
    {
      "channel": 0,
      "note": 87,
      "start": 24.7956,
      "duration": 0.886,
      "velocity": 103,
      "chip": "ym2612"
    },
    {
      "channel": 4,
      "note": 64,
      "start": 24.7964,
      "duration": 0.0239,
      "velocity": 109,
      "chip": "ym2612"
    },
    {
      "channel": 4,
      "note": 63,
      "start": 24.8203,
      "duration": 0.0125,
      "velocity": 109,
      "chip": "ym2612"
    },
    {
      "channel": 4,
      "note": 62,
      "start": 24.8328,
      "duration": 0.0127,
      "velocity": 109,
      "chip": "ym2612"
    },
    {
      "channel": 4,
      "note": 61,
      "start": 24.8455,
      "duration": 0.0178,
      "velocity": 109,
      "chip": "ym2612"
    },
    {
      "channel": 1,
      "note": 47,
      "start": 24.8586,
      "duration": 0.1321,
      "velocity": 93,
      "chip": "ym2612"
    },
    {
      "channel": 3,
      "note": 67,
      "start": 24.8624,
      "duration": 0.1304,
      "velocity": 107,
      "chip": "ym2612"
    },
    {
      "channel": 4,
      "note": 60,
      "start": 24.8633,
      "duration": 0.0088,
      "velocity": 109,
      "chip": "ym2612"
    },
    {
      "channel": 4,
      "note": 58,
      "start": 24.872,
      "duration": 0.0253,
      "velocity": 109,
      "chip": "ym2612"
    },
    {
      "channel": 4,
      "note": 57,
      "start": 24.8973,
      "duration": 0.0128,
      "velocity": 109,
      "chip": "ym2612"
    },
    {
      "channel": 4,
      "note": 56,
      "start": 24.9101,
      "duration": 0.0247,
      "velocity": 109,
      "chip": "ym2612"
    },
    {
      "channel": 4,
      "note": 55,
      "start": 24.9348,
      "duration": 0.0122,
      "velocity": 109,
      "chip": "ym2612"
    },
    {
      "channel": 4,
      "note": 54,
      "start": 24.947,
      "duration": 0.0268,
      "velocity": 109,
      "chip": "ym2612"
    },
    {
      "channel": 4,
      "note": 53,
      "start": 24.9737,
      "duration": 0.0199,
      "velocity": 109,
      "chip": "ym2612"
    },
    {
      "channel": 1,
      "note": 49,
      "start": 24.9908,
      "duration": 0.1499,
      "velocity": 93,
      "chip": "ym2612"
    },
    {
      "channel": 3,
      "note": 67,
      "start": 24.993,
      "duration": 0.0843,
      "velocity": 107,
      "chip": "ym2612"
    },
    {
      "channel": 4,
      "note": 52,
      "start": 24.9936,
      "duration": 0.0135,
      "velocity": 109,
      "chip": "ym2612"
    },
    {
      "channel": 4,
      "note": 51,
      "start": 25.0071,
      "duration": 0.0167,
      "velocity": 109,
      "chip": "ym2612"
    },
    {
      "channel": 4,
      "note": 50,
      "start": 25.0237,
      "duration": 0.0167,
      "velocity": 109,
      "chip": "ym2612"
    },
    {
      "channel": 4,
      "note": 49,
      "start": 25.0404,
      "duration": 0.0377,
      "velocity": 109,
      "chip": "ym2612"
    },
    {
      "channel": 3,
      "note": 67,
      "start": 25.0774,
      "duration": 0.0655,
      "velocity": 107,
      "chip": "ym2612"
    },
    {
      "channel": 4,
      "note": 48,
      "start": 25.0781,
      "duration": 0.0123,
      "velocity": 109,
      "chip": "ym2612"
    },
    {
      "channel": 4,
      "note": 46,
      "start": 25.0904,
      "duration": 0.0167,
      "velocity": 109,
      "chip": "ym2612"
    },
    {
      "channel": 4,
      "note": 45,
      "start": 25.1071,
      "duration": 0.0167,
      "velocity": 109,
      "chip": "ym2612"
    },
    {
      "channel": 4,
      "note": 44,
      "start": 25.1237,
      "duration": 0.0202,
      "velocity": 109,
      "chip": "ym2612"
    },
    {
      "channel": 1,
      "note": 52,
      "start": 25.1409,
      "duration": 0.13,
      "velocity": 93,
      "chip": "ym2612"
    },
    {
      "channel": 3,
      "note": 67,
      "start": 25.1431,
      "duration": 0.1321,
      "velocity": 107,
      "chip": "ym2612"
    },
    {
      "channel": 4,
      "note": 43,
      "start": 25.144,
      "duration": 0.0222,
      "velocity": 109,
      "chip": "ym2612"
    },
    {
      "channel": 4,
      "note": 42,
      "start": 25.1662,
      "duration": 0.0127,
      "velocity": 109,
      "chip": "ym2612"
    },
    {
      "channel": 4,
      "note": 41,
      "start": 25.1789,
      "duration": 0.0124,
      "velocity": 109,
      "chip": "ym2612"
    },
    {
      "channel": 4,
      "note": 40,
      "start": 25.1913,
      "duration": 0.0251,
      "velocity": 109,
      "chip": "ym2612"
    },
    {
      "channel": 4,
      "note": 39,
      "start": 25.2165,
      "duration": 0.025,
      "velocity": 109,
      "chip": "ym2612"
    },
    {
      "channel": 4,
      "note": 38,
      "start": 25.2415,
      "duration": 0.0125,
      "velocity": 109,
      "chip": "ym2612"
    },
    {
      "channel": 4,
      "note": 37,
      "start": 25.2541,
      "duration": 0.0222,
      "velocity": 109,
      "chip": "ym2612"
    },
    {
      "channel": 1,
      "note": 39,
      "start": 25.2711,
      "duration": 0.2797,
      "velocity": 93,
      "chip": "ym2612"
    },
    {
      "channel": 2,
      "note": 51,
      "start": 25.2732,
      "duration": 0.5259,
      "velocity": 124,
      "chip": "ym2612"
    },
    {
      "channel": 3,
      "note": 67,
      "start": 25.2754,
      "duration": 0.127,
      "velocity": 107,
      "chip": "ym2612"
    },
    {
      "channel": 4,
      "note": 36,
      "start": 25.2763,
      "duration": 0.008,
      "velocity": 109,
      "chip": "ym2612"
    },
    {
      "channel": 4,
      "note": 34,
      "start": 25.2843,
      "duration": 0.0124,
      "velocity": 109,
      "chip": "ym2612"
    },
    {
      "channel": 4,
      "note": 33,
      "start": 25.2967,
      "duration": 0.0248,
      "velocity": 109,
      "chip": "ym2612"
    },
    {
      "channel": 4,
      "note": 32,
      "start": 25.3215,
      "duration": 0.0252,
      "velocity": 109,
      "chip": "ym2612"
    },
    {
      "channel": 4,
      "note": 31,
      "start": 25.3467,
      "duration": 0.0127,
      "velocity": 109,
      "chip": "ym2612"
    },
    {
      "channel": 4,
      "note": 30,
      "start": 25.3594,
      "duration": 0.0126,
      "velocity": 109,
      "chip": "ym2612"
    },
    {
      "channel": 4,
      "note": 29,
      "start": 25.372,
      "duration": 0.0312,
      "velocity": 109,
      "chip": "ym2612"
    },
    {
      "channel": 3,
      "note": 67,
      "start": 25.4026,
      "duration": 0.0665,
      "velocity": 107,
      "chip": "ym2612"
    },
    {
      "channel": 4,
      "note": 28,
      "start": 25.4032,
      "duration": 0.014,
      "velocity": 109,
      "chip": "ym2612"
    },
    {
      "channel": 4,
      "note": 27,
      "start": 25.4171,
      "duration": 0.0167,
      "velocity": 109,
      "chip": "ym2612"
    },
    {
      "channel": 4,
      "note": 26,
      "start": 25.4338,
      "duration": 0.0167,
      "velocity": 109,
      "chip": "ym2612"
    },
    {
      "channel": 4,
      "note": 25,
      "start": 25.4505,
      "duration": 0.0193,
      "velocity": 109,
      "chip": "ym2612"
    },
    {
      "channel": 3,
      "note": 67,
      "start": 25.4693,
      "duration": 0.0837,
      "velocity": 107,
      "chip": "ym2612"
    },
    {
      "channel": 4,
      "note": 24,
      "start": 25.4698,
      "duration": 0.0307,
      "velocity": 109,
      "chip": "ym2612"
    },
    {
      "channel": 4,
      "note": 23,
      "start": 25.5005,
      "duration": 0.0167,
      "velocity": 109,
      "chip": "ym2612"
    },
    {
      "channel": 4,
      "note": 21,
      "start": 25.5171,
      "duration": 0.0167,
      "velocity": 109,
      "chip": "ym2612"
    },
    {
      "channel": 4,
      "note": 116,
      "start": 25.5338,
      "duration": 0.0202,
      "velocity": 109,
      "chip": "ym2612"
    },
    {
      "channel": 1,
      "note": 51,
      "start": 25.5509,
      "duration": 0.1312,
      "velocity": 93,
      "chip": "ym2612"
    },
    {
      "channel": 3,
      "note": 67,
      "start": 25.5531,
      "duration": 0.1312,
      "velocity": 107,
      "chip": "ym2612"
    },
    {
      "channel": 4,
      "note": 115,
      "start": 25.554,
      "duration": 0.01,
      "velocity": 109,
      "chip": "ym2612"
    },
    {
      "channel": 4,
      "note": 114,
      "start": 25.564,
      "duration": 0.0246,
      "velocity": 109,
      "chip": "ym2612"
    },
    {
      "channel": 4,
      "note": 113,
      "start": 25.5886,
      "duration": 0.0123,
      "velocity": 109,
      "chip": "ym2612"
    },
    {
      "channel": 4,
      "note": 112,
      "start": 25.6009,
      "duration": 0.0252,
      "velocity": 109,
      "chip": "ym2612"
    },
    {
      "channel": 4,
      "note": 111,
      "start": 25.6261,
      "duration": 0.0126,
      "velocity": 109,
      "chip": "ym2612"
    },
    {
      "channel": 4,
      "note": 110,
      "start": 25.6387,
      "duration": 0.0248,
      "velocity": 109,
      "chip": "ym2612"
    },
    {
      "channel": 4,
      "note": 109,
      "start": 25.6635,
      "duration": 0.0218,
      "velocity": 109,
      "chip": "ym2612"
    },
    {
      "channel": 0,
      "note": 92,
      "start": 25.6817,
      "duration": 0.1138,
      "velocity": 103,
      "chip": "ym2612"
    },
    {
      "channel": 1,
      "note": 49,
      "start": 25.6823,
      "duration": 0.1138,
      "velocity": 93,
      "chip": "ym2612"
    },
    {
      "channel": 3,
      "note": 67,
      "start": 25.6845,
      "duration": 0.1139,
      "velocity": 107,
      "chip": "ym2612"
    },
    {
      "channel": 4,
      "note": 108,
      "start": 25.6854,
      "duration": 0.008,
      "velocity": 109,
      "chip": "ym2612"
    },
    {
      "channel": 4,
      "note": 107,
      "start": 25.6934,
      "duration": 0.0124,
      "velocity": 109,
      "chip": "ym2612"
    },
    {
      "channel": 4,
      "note": 105,
      "start": 25.7058,
      "duration": 0.0126,
      "velocity": 109,
      "chip": "ym2612"
    },
    {
      "channel": 4,
      "note": 104,
      "start": 25.7184,
      "duration": 0.0376,
      "velocity": 109,
      "chip": "ym2612"
    },
    {
      "channel": 4,
      "note": 103,
      "start": 25.7561,
      "duration": 0.0127,
      "velocity": 109,
      "chip": "ym2612"
    },
    {
      "channel": 4,
      "note": 102,
      "start": 25.7688,
      "duration": 0.0126,
      "velocity": 109,
      "chip": "ym2612"
    },
    {
      "channel": 4,
      "note": 101,
      "start": 25.7813,
      "duration": 0.018,
      "velocity": 109,
      "chip": "ym2612"
    },
    {
      "channel": 0,
      "note": 91,
      "start": 25.7957,
      "duration": 0.1665,
      "velocity": 103,
      "chip": "ym2612"
    },
    {
      "channel": 1,
      "note": 46,
      "start": 25.7962,
      "duration": 0.1666,
      "velocity": 93,
      "chip": "ym2612"
    },
    {
      "channel": 3,
      "note": 67,
      "start": 25.7985,
      "duration": 0.082,
      "velocity": 107,
      "chip": "ym2612"
    },
    {
      "channel": 2,
      "note": 51,
      "start": 25.7991,
      "duration": 0.0294,
      "velocity": 124,
      "chip": "ym2612"
    },
    {
      "channel": 4,
      "note": 100,
      "start": 25.7994,
      "duration": 0.0295,
      "velocity": 109,
      "chip": "ym2612"
    },
    {
      "channel": 2,
      "note": 51,
      "start": 25.8285,
      "duration": 0.0167,
      "velocity": 124,
      "chip": "ym2612"
    },
    {
      "channel": 4,
      "note": 99,
      "start": 25.8288,
      "duration": 0.0167,
      "velocity": 109,
      "chip": "ym2612"
    },
    {
      "channel": 2,
      "note": 51,
      "start": 25.8452,
      "duration": 0.0167,
      "velocity": 124,
      "chip": "ym2612"
    },
    {
      "channel": 4,
      "note": 98,
      "start": 25.8455,
      "duration": 0.0167,
      "velocity": 109,
      "chip": "ym2612"
    },
    {
      "channel": 2,
      "note": 52,
      "start": 25.8618,
      "duration": 0.0194,
      "velocity": 124,
      "chip": "ym2612"
    },
    {
      "channel": 4,
      "note": 97,
      "start": 25.8622,
      "duration": 0.0194,
      "velocity": 109,
      "chip": "ym2612"
    },
    {
      "channel": 3,
      "note": 67,
      "start": 25.8807,
      "duration": 0.0841,
      "velocity": 107,
      "chip": "ym2612"
    },
    {
      "channel": 2,
      "note": 52,
      "start": 25.8812,
      "duration": 0.0139,
      "velocity": 124,
      "chip": "ym2612"
    },
    {
      "channel": 4,
      "note": 96,
      "start": 25.8816,
      "duration": 0.0139,
      "velocity": 109,
      "chip": "ym2612"
    },
    {
      "channel": 2,
      "note": 52,
      "start": 25.8952,
      "duration": 0.0333,
      "velocity": 124,
      "chip": "ym2612"
    },
    {
      "channel": 4,
      "note": 95,
      "start": 25.8955,
      "duration": 0.0333,
      "velocity": 109,
      "chip": "ym2612"
    },
    {
      "channel": 2,
      "note": 52,
      "start": 25.9285,
      "duration": 0.0167,
      "velocity": 124,
      "chip": "ym2612"
    },
    {
      "channel": 4,
      "note": 93,
      "start": 25.9288,
      "duration": 0.0167,
      "velocity": 109,
      "chip": "ym2612"
    },
    {
      "channel": 2,
      "note": 52,
      "start": 25.9452,
      "duration": 0.0207,
      "velocity": 124,
      "chip": "ym2612"
    },
    {
      "channel": 4,
      "note": 92,
      "start": 25.9455,
      "duration": 0.0207,
      "velocity": 109,
      "chip": "ym2612"
    },
    {
      "channel": 0,
      "note": 85,
      "start": 25.9624,
      "duration": 0.0635,
      "velocity": 103,
      "chip": "ym2612"
    },
    {
      "channel": 1,
      "note": 49,
      "start": 25.9629,
      "duration": 0.129,
      "velocity": 93,
      "chip": "ym2612"
    },
    {
      "channel": 3,
      "note": 67,
      "start": 25.9651,
      "duration": 0.1294,
      "velocity": 107,
      "chip": "ym2612"
    },
    {
      "channel": 2,
      "note": 52,
      "start": 25.9659,
      "duration": 0.0092,
      "velocity": 124,
      "chip": "ym2612"
    },
    {
      "channel": 4,
      "note": 91,
      "start": 25.9662,
      "duration": 0.0092,
      "velocity": 109,
      "chip": "ym2612"
    },
    {
      "channel": 2,
      "note": 52,
      "start": 25.9751,
      "duration": 0.0123,
      "velocity": 124,
      "chip": "ym2612"
    },
    {
      "channel": 4,
      "note": 90,
      "start": 25.9755,
      "duration": 0.0123,
      "velocity": 109,
      "chip": "ym2612"
    },
    {
      "channel": 2,
      "note": 53,
      "start": 25.9874,
      "duration": 0.0252,
      "velocity": 124,
      "chip": "ym2612"
    },
    {
      "channel": 4,
      "note": 89,
      "start": 25.9878,
      "duration": 0.0252,
      "velocity": 109,
      "chip": "ym2612"
    },
    {
      "channel": 2,
      "note": 53,
      "start": 26.0126,
      "duration": 0.0136,
      "velocity": 124,
      "chip": "ym2612"
    },
    {
      "channel": 4,
      "note": 88,
      "start": 26.013,
      "duration": 0.0136,
      "velocity": 109,
      "chip": "ym2612"
    },
    {
      "channel": 0,
      "note": 86,
      "start": 26.0259,
      "duration": 0.0119,
      "velocity": 103,
      "chip": "ym2612"
    },
    {
      "channel": 2,
      "note": 53,
      "start": 26.0262,
      "duration": 0.0119,
      "velocity": 124,
      "chip": "ym2612"
    },
    {
      "channel": 4,
      "note": 87,
      "start": 26.0265,
      "duration": 0.0119,
      "velocity": 109,
      "chip": "ym2612"
    },
    {
      "channel": 0,
      "note": 86,
      "start": 26.0378,
      "duration": 0.0125,
      "velocity": 103,
      "chip": "ym2612"
    },
    {
      "channel": 2,
      "note": 53,
      "start": 26.0381,
      "duration": 0.0125,
      "velocity": 124,
      "chip": "ym2612"
    },
    {
      "channel": 4,
      "note": 86,
      "start": 26.0384,
      "duration": 0.0125,
      "velocity": 109,
      "chip": "ym2612"
    },
    {
      "channel": 0,
      "note": 86,
      "start": 26.0503,
      "duration": 0.0125,
      "velocity": 103,
      "chip": "ym2612"
    },
    {
      "channel": 2,
      "note": 53,
      "start": 26.0506,
      "duration": 0.0125,
      "velocity": 124,
      "chip": "ym2612"
    },
    {
      "channel": 4,
      "note": 85,
      "start": 26.0509,
      "duration": 0.0125,
      "velocity": 109,
      "chip": "ym2612"
    },
    {
      "channel": 0,
      "note": 87,
      "start": 26.0628,
      "duration": 0.0284,
      "velocity": 103,
      "chip": "ym2612"
    },
    {
      "channel": 2,
      "note": 53,
      "start": 26.0632,
      "duration": 0.0293,
      "velocity": 124,
      "chip": "ym2612"
    },
    {
      "channel": 4,
      "note": 84,
      "start": 26.0635,
      "duration": 0.0321,
      "velocity": 109,
      "chip": "ym2612"
    },
    {
      "channel": 0,
      "note": 87,
      "start": 26.0915,
      "duration": 0.3624,
      "velocity": 103,
      "chip": "ym2612"
    },
    {
      "channel": 1,
      "note": 37,
      "start": 26.092,
      "duration": 0.1142,
      "velocity": 93,
      "chip": "ym2612"
    },
    {
      "channel": 2,
      "note": 52,
      "start": 26.0925,
      "duration": 0.7373,
      "velocity": 124,
      "chip": "ym2612"
    },
    {
      "channel": 3,
      "note": 67,
      "start": 26.0947,
      "duration": 0.1137,
      "velocity": 107,
      "chip": "ym2612"
    },
    {
      "channel": 4,
      "note": 83,
      "start": 26.0956,
      "duration": 0.0087,
      "velocity": 109,
      "chip": "ym2612"
    },
    {
      "channel": 4,
      "note": 81,
      "start": 26.1042,
      "duration": 0.0127,
      "velocity": 109,
      "chip": "ym2612"
    },
    {
      "channel": 4,
      "note": 80,
      "start": 26.1169,
      "duration": 0.0128,
      "velocity": 109,
      "chip": "ym2612"
    },
    {
      "channel": 4,
      "note": 79,
      "start": 26.1297,
      "duration": 0.0379,
      "velocity": 109,
      "chip": "ym2612"
    },
    {
      "channel": 4,
      "note": 78,
      "start": 26.1676,
      "duration": 0.0128,
      "velocity": 109,
      "chip": "ym2612"
    },
    {
      "channel": 4,
      "note": 77,
      "start": 26.1804,
      "duration": 0.0128,
      "velocity": 109,
      "chip": "ym2612"
    },
    {
      "channel": 4,
      "note": 76,
      "start": 26.1932,
      "duration": 0.0159,
      "velocity": 109,
      "chip": "ym2612"
    },
    {
      "channel": 1,
      "note": 49,
      "start": 26.2063,
      "duration": 0.128,
      "velocity": 93,
      "chip": "ym2612"
    },
    {
      "channel": 3,
      "note": 67,
      "start": 26.2086,
      "duration": 0.0633,
      "velocity": 107,
      "chip": "ym2612"
    },
    {
      "channel": 4,
      "note": 74,
      "start": 26.2092,
      "duration": 0.0008,
      "velocity": 109,
      "chip": "ym2612"
    },
    {
      "channel": 4,
      "note": 73,
      "start": 26.21,
      "duration": 0.0096,
      "velocity": 109,
      "chip": "ym2612"
    },
    {
      "channel": 4,
      "note": 72,
      "start": 26.2196,
      "duration": 0.0247,
      "velocity": 109,
      "chip": "ym2612"
    },
    {
      "channel": 4,
      "note": 70,
      "start": 26.2443,
      "duration": 0.0127,
      "velocity": 109,
      "chip": "ym2612"
    },
    {
      "channel": 4,
      "note": 69,
      "start": 26.257,
      "duration": 0.016,
      "velocity": 109,
      "chip": "ym2612"
    },
    {
      "channel": 3,
      "note": 67,
      "start": 26.2721,
      "duration": 0.0645,
      "velocity": 107,
      "chip": "ym2612"
    },
    {
      "channel": 4,
      "note": 68,
      "start": 26.273,
      "duration": 0.0103,
      "velocity": 109,
      "chip": "ym2612"
    },
    {
      "channel": 4,
      "note": 67,
      "start": 26.2833,
      "duration": 0.0127,
      "velocity": 109,
      "chip": "ym2612"
    },
    {
      "channel": 4,
      "note": 66,
      "start": 26.296,
      "duration": 0.0249,
      "velocity": 109,
      "chip": "ym2612"
    },
    {
      "channel": 4,
      "note": 65,
      "start": 26.3209,
      "duration": 0.0163,
      "velocity": 109,
      "chip": "ym2612"
    },
    {
      "channel": 1,
      "note": 47,
      "start": 26.3346,
      "duration": 0.1141,
      "velocity": 93,
      "chip": "ym2612"
    },
    {
      "channel": 3,
      "note": 67,
      "start": 26.3367,
      "duration": 0.1157,
      "velocity": 107,
      "chip": "ym2612"
    },
    {
      "channel": 4,
      "note": 74,
      "start": 26.3373,
      "duration": 0.0009,
      "velocity": 109,
      "chip": "ym2612"
    },
    {
      "channel": 4,
      "note": 73,
      "start": 26.3382,
      "duration": 0.0093,
      "velocity": 109,
      "chip": "ym2612"
    },
    {
      "channel": 4,
      "note": 72,
      "start": 26.3475,
      "duration": 0.0128,
      "velocity": 109,
      "chip": "ym2612"
    },
    {
      "channel": 4,
      "note": 70,
      "start": 26.3603,
      "duration": 0.0124,
      "velocity": 109,
      "chip": "ym2612"
    },
    {
      "channel": 4,
      "note": 69,
      "start": 26.3727,
      "duration": 0.0376,
      "velocity": 109,
      "chip": "ym2612"
    },
    {
      "channel": 4,
      "note": 68,
      "start": 26.4104,
      "duration": 0.0125,
      "velocity": 109,
      "chip": "ym2612"
    },
    {
      "channel": 4,
      "note": 67,
      "start": 26.4229,
      "duration": 0.0125,
      "velocity": 109,
      "chip": "ym2612"
    },
    {
      "channel": 4,
      "note": 66,
      "start": 26.4353,
      "duration": 0.0177,
      "velocity": 109,
      "chip": "ym2612"
    },
    {
      "channel": 1,
      "note": 42,
      "start": 26.4488,
      "duration": 0.1314,
      "velocity": 93,
      "chip": "ym2612"
    },
    {
      "channel": 3,
      "note": 67,
      "start": 26.4526,
      "duration": 0.1298,
      "velocity": 107,
      "chip": "ym2612"
    },
    {
      "channel": 4,
      "note": 69,
      "start": 26.4532,
      "duration": 0.0011,
      "velocity": 109,
      "chip": "ym2612"
    },
    {
      "channel": 0,
      "note": 87,
      "start": 26.4539,
      "duration": 0.0205,
      "velocity": 103,
      "chip": "ym2612"
    },
    {
      "channel": 4,
      "note": 68,
      "start": 26.4543,
      "duration": 0.0206,
      "velocity": 109,
      "chip": "ym2612"
    },
    {
      "channel": 0,
      "note": 87,
      "start": 26.4744,
      "duration": 0.0124,
      "velocity": 103,
      "chip": "ym2612"
    },
    {
      "channel": 4,
      "note": 67,
      "start": 26.4749,
      "duration": 0.0124,
      "velocity": 109,
      "chip": "ym2612"
    },
    {
      "channel": 0,
      "note": 87,
      "start": 26.4869,
      "duration": 0.0124,
      "velocity": 103,
      "chip": "ym2612"
    },
    {
      "channel": 4,
      "note": 66,
      "start": 26.4873,
      "duration": 0.0124,
      "velocity": 109,
      "chip": "ym2612"
    },
    {
      "channel": 0,
      "note": 86,
      "start": 26.4993,
      "duration": 0.0139,
      "velocity": 103,
      "chip": "ym2612"
    },
    {
      "channel": 4,
      "note": 65,
      "start": 26.4998,
      "duration": 0.0129,
      "velocity": 109,
      "chip": "ym2612"
    },
    {
      "channel": 4,
      "note": 69,
      "start": 26.5128,
      "duration": 0.0008,
      "velocity": 109,
      "chip": "ym2612"
    },
    {
      "channel": 0,
      "note": 86,
      "start": 26.5132,
      "duration": 0.0113,
      "velocity": 103,
      "chip": "ym2612"
    },
    {
      "channel": 4,
      "note": 68,
      "start": 26.5136,
      "duration": 0.0114,
      "velocity": 109,
      "chip": "ym2612"
    },
    {
      "channel": 0,
      "note": 86,
      "start": 26.5245,
      "duration": 0.0252,
      "velocity": 103,
      "chip": "ym2612"
    },
    {
      "channel": 4,
      "note": 67,
      "start": 26.525,
      "duration": 0.0252,
      "velocity": 109,
      "chip": "ym2612"
    },
    {
      "channel": 0,
      "note": 86,
      "start": 26.5498,
      "duration": 0.0133,
      "velocity": 103,
      "chip": "ym2612"
    },
    {
      "channel": 4,
      "note": 66,
      "start": 26.5502,
      "duration": 0.0133,
      "velocity": 109,
      "chip": "ym2612"
    },
    {
      "channel": 0,
      "note": 86,
      "start": 26.5631,
      "duration": 0.0208,
      "velocity": 103,
      "chip": "ym2612"
    },
    {
      "channel": 4,
      "note": 65,
      "start": 26.5635,
      "duration": 0.0195,
      "velocity": 109,
      "chip": "ym2612"
    },
    {
      "channel": 1,
      "note": 44,
      "start": 26.5804,
      "duration": 0.1314,
      "velocity": 93,
      "chip": "ym2612"
    },
    {
      "channel": 3,
      "note": 67,
      "start": 26.5826,
      "duration": 0.0636,
      "velocity": 107,
      "chip": "ym2612"
    },
    {
      "channel": 4,
      "note": 69,
      "start": 26.5832,
      "duration": 0.0012,
      "velocity": 109,
      "chip": "ym2612"
    },
    {
      "channel": 0,
      "note": 86,
      "start": 26.5839,
      "duration": 0.0095,
      "velocity": 103,
      "chip": "ym2612"
    },
    {
      "channel": 4,
      "note": 68,
      "start": 26.5843,
      "duration": 0.0095,
      "velocity": 109,
      "chip": "ym2612"
    },
    {
      "channel": 0,
      "note": 85,
      "start": 26.5933,
      "duration": 0.0127,
      "velocity": 103,
      "chip": "ym2612"
    },
    {
      "channel": 4,
      "note": 67,
      "start": 26.5938,
      "duration": 0.0126,
      "velocity": 109,
      "chip": "ym2612"
    },
    {
      "channel": 0,
      "note": 85,
      "start": 26.606,
      "duration": 0.0253,
      "velocity": 103,
      "chip": "ym2612"
    },
    {
      "channel": 4,
      "note": 66,
      "start": 26.6063,
      "duration": 0.0253,
      "velocity": 109,
      "chip": "ym2612"
    },
    {
      "channel": 0,
      "note": 85,
      "start": 26.6312,
      "duration": 0.0155,
      "velocity": 103,
      "chip": "ym2612"
    },
    {
      "channel": 4,
      "note": 65,
      "start": 26.6317,
      "duration": 0.0155,
      "velocity": 109,
      "chip": "ym2612"
    },
    {
      "channel": 3,
      "note": 67,
      "start": 26.6463,
      "duration": 0.0677,
      "velocity": 107,
      "chip": "ym2612"
    },
    {
      "channel": 0,
      "note": 85,
      "start": 26.6467,
      "duration": 0.0104,
      "velocity": 103,
      "chip": "ym2612"
    },
    {
      "channel": 4,
      "note": 64,
      "start": 26.6472,
      "duration": 0.0103,
      "velocity": 109,
      "chip": "ym2612"
    },
    {
      "channel": 0,
      "note": 85,
      "start": 26.6571,
      "duration": 0.0125,
      "velocity": 103,
      "chip": "ym2612"
    },
    {
      "channel": 4,
      "note": 63,
      "start": 26.6575,
      "duration": 0.0125,
      "velocity": 109,
      "chip": "ym2612"
    },
    {
      "channel": 0,
      "note": 85,
      "start": 26.6696,
      "duration": 0.0124,
      "velocity": 103,
      "chip": "ym2612"
    },
    {
      "channel": 4,
      "note": 62,
      "start": 26.67,
      "duration": 0.0124,
      "velocity": 109,
      "chip": "ym2612"
    },
    {
      "channel": 0,
      "note": 84,
      "start": 26.682,
      "duration": 0.0335,
      "velocity": 103,
      "chip": "ym2612"
    },
    {
      "channel": 4,
      "note": 61,
      "start": 26.6824,
      "duration": 0.0322,
      "velocity": 109,
      "chip": "ym2612"
    },
    {
      "channel": 1,
      "note": 47,
      "start": 26.712,
      "duration": 0.1157,
      "velocity": 93,
      "chip": "ym2612"
    },
    {
      "channel": 3,
      "note": 67,
      "start": 26.7142,
      "duration": 0.1177,
      "velocity": 107,
      "chip": "ym2612"
    },
    {
      "channel": 4,
      "note": 69,
      "start": 26.7148,
      "duration": 0.5256,
      "velocity": 109,
      "chip": "ym2612"
    },
    {
      "channel": 0,
      "note": 84,
      "start": 26.7155,
      "duration": 0.0096,
      "velocity": 103,
      "chip": "ym2612"
    },
    {
      "channel": 0,
      "note": 84,
      "start": 26.7251,
      "duration": 0.0123,
      "velocity": 103,
      "chip": "ym2612"
    },
    {
      "channel": 0,
      "note": 84,
      "start": 26.7374,
      "duration": 0.0125,
      "velocity": 103,
      "chip": "ym2612"
    },
    {
      "channel": 0,
      "note": 84,
      "start": 26.7499,
      "duration": 0.0135,
      "velocity": 103,
      "chip": "ym2612"
    },
    {
      "channel": 0,
      "note": 84,
      "start": 26.7634,
      "duration": 0.0241,
      "velocity": 103,
      "chip": "ym2612"
    },
    {
      "channel": 0,
      "note": 83,
      "start": 26.7874,
      "duration": 0.0125,
      "velocity": 103,
      "chip": "ym2612"
    },
    {
      "channel": 0,
      "note": 83,
      "start": 26.7999,
      "duration": 0.0125,
      "velocity": 103,
      "chip": "ym2612"
    },
    {
      "channel": 0,
      "note": 83,
      "start": 26.8124,
      "duration": 0.0146,
      "velocity": 103,
      "chip": "ym2612"
    },
    {
      "channel": 0,
      "note": 75,
      "start": 26.8273,
      "duration": 0.1297,
      "velocity": 103,
      "chip": "ym2612"
    },
    {
      "channel": 1,
      "note": 39,
      "start": 26.8278,
      "duration": 0.2797,
      "velocity": 93,
      "chip": "ym2612"
    },
    {
      "channel": 2,
      "note": 51,
      "start": 26.83,
      "duration": 0.5428,
      "velocity": 124,
      "chip": "ym2612"
    },
    {
      "channel": 3,
      "note": 67,
      "start": 26.8322,
      "duration": 0.1271,
      "velocity": 107,
      "chip": "ym2612"
    },
    {
      "channel": 0,
      "note": 70,
      "start": 26.9572,
      "duration": 0.1499,
      "velocity": 103,
      "chip": "ym2612"
    },
    {
      "channel": 3,
      "note": 67,
      "start": 26.9594,
      "duration": 0.0826,
      "velocity": 107,
      "chip": "ym2612"
    },
    {
      "channel": 3,
      "note": 67,
      "start": 27.0422,
      "duration": 0.0676,
      "velocity": 107,
      "chip": "ym2612"
    },
    {
      "channel": 0,
      "note": 75,
      "start": 27.1072,
      "duration": 0.1298,
      "velocity": 103,
      "chip": "ym2612"
    },
    {
      "channel": 1,
      "note": 51,
      "start": 27.1077,
      "duration": 0.1298,
      "velocity": 93,
      "chip": "ym2612"
    },
    {
      "channel": 3,
      "note": 67,
      "start": 27.11,
      "duration": 0.1297,
      "velocity": 107,
      "chip": "ym2612"
    },
    {
      "channel": 0,
      "note": 80,
      "start": 27.2371,
      "duration": 0.1316,
      "velocity": 103,
      "chip": "ym2612"
    },
    {
      "channel": 1,
      "note": 49,
      "start": 27.2377,
      "duration": 0.1316,
      "velocity": 93,
      "chip": "ym2612"
    },
    {
      "channel": 3,
      "note": 67,
      "start": 27.2399,
      "duration": 0.1317,
      "velocity": 107,
      "chip": "ym2612"
    },
    {
      "channel": 4,
      "note": 74,
      "start": 27.2405,
      "duration": 0.0009,
      "velocity": 109,
      "chip": "ym2612"
    },
    {
      "channel": 4,
      "note": 73,
      "start": 27.2414,
      "duration": 0.0089,
      "velocity": 109,
      "chip": "ym2612"
    },
    {
      "channel": 4,
      "note": 72,
      "start": 27.2503,
      "duration": 0.0123,
      "velocity": 109,
      "chip": "ym2612"
    },
    {
      "channel": 4,
      "note": 70,
      "start": 27.2627,
      "duration": 0.025,
      "velocity": 109,
      "chip": "ym2612"
    },
    {
      "channel": 4,
      "note": 69,
      "start": 27.2877,
      "duration": 0.0249,
      "velocity": 109,
      "chip": "ym2612"
    },
    {
      "channel": 4,
      "note": 68,
      "start": 27.3126,
      "duration": 0.0127,
      "velocity": 109,
      "chip": "ym2612"
    },
    {
      "channel": 4,
      "note": 67,
      "start": 27.3253,
      "duration": 0.0124,
      "velocity": 109,
      "chip": "ym2612"
    },
    {
      "channel": 4,
      "note": 66,
      "start": 27.3377,
      "duration": 0.0344,
      "velocity": 109,
      "chip": "ym2612"
    },
    {
      "channel": 0,
      "note": 82,
      "start": 27.3689,
      "duration": 0.1498,
      "velocity": 103,
      "chip": "ym2612"
    },
    {
      "channel": 1,
      "note": 46,
      "start": 27.3695,
      "duration": 0.1498,
      "velocity": 93,
      "chip": "ym2612"
    },
    {
      "channel": 3,
      "note": 67,
      "start": 27.3717,
      "duration": 0.0654,
      "velocity": 107,
      "chip": "ym2612"
    },
    {
      "channel": 4,
      "note": 69,
      "start": 27.3723,
      "duration": 0.0008,
      "velocity": 109,
      "chip": "ym2612"
    },
    {
      "channel": 2,
      "note": 51,
      "start": 27.3728,
      "duration": 0.0122,
      "velocity": 124,
      "chip": "ym2612"
    },
    {
      "channel": 4,
      "note": 68,
      "start": 27.3731,
      "duration": 0.0123,
      "velocity": 109,
      "chip": "ym2612"
    },
    {
      "channel": 2,
      "note": 51,
      "start": 27.385,
      "duration": 0.0167,
      "velocity": 124,
      "chip": "ym2612"
    },
    {
      "channel": 4,
      "note": 67,
      "start": 27.3854,
      "duration": 0.0167,
      "velocity": 109,
      "chip": "ym2612"
    },
    {
      "channel": 2,
      "note": 51,
      "start": 27.4017,
      "duration": 0.0167,
      "velocity": 124,
      "chip": "ym2612"
    },
    {
      "channel": 4,
      "note": 66,
      "start": 27.402,
      "duration": 0.0167,
      "velocity": 109,
      "chip": "ym2612"
    },
    {
      "channel": 2,
      "note": 50,
      "start": 27.4184,
      "duration": 0.0195,
      "velocity": 124,
      "chip": "ym2612"
    },
    {
      "channel": 4,
      "note": 65,
      "start": 27.4187,
      "duration": 0.0195,
      "velocity": 109,
      "chip": "ym2612"
    },
    {
      "channel": 3,
      "note": 67,
      "start": 27.4373,
      "duration": 0.0841,
      "velocity": 107,
      "chip": "ym2612"
    },
    {
      "channel": 2,
      "note": 50,
      "start": 27.4378,
      "duration": 0.0305,
      "velocity": 124,
      "chip": "ym2612"
    },
    {
      "channel": 4,
      "note": 64,
      "start": 27.4382,
      "duration": 0.0305,
      "velocity": 109,
      "chip": "ym2612"
    },
    {
      "channel": 2,
      "note": 50,
      "start": 27.4683,
      "duration": 0.0167,
      "velocity": 124,
      "chip": "ym2612"
    },
    {
      "channel": 4,
      "note": 63,
      "start": 27.4687,
      "duration": 0.0167,
      "velocity": 109,
      "chip": "ym2612"
    },
    {
      "channel": 2,
      "note": 50,
      "start": 27.485,
      "duration": 0.0167,
      "velocity": 124,
      "chip": "ym2612"
    },
    {
      "channel": 4,
      "note": 62,
      "start": 27.4854,
      "duration": 0.0167,
      "velocity": 109,
      "chip": "ym2612"
    },
    {
      "channel": 2,
      "note": 50,
      "start": 27.5017,
      "duration": 0.0212,
      "velocity": 124,
      "chip": "ym2612"
    },
    {
      "channel": 4,
      "note": 61,
      "start": 27.502,
      "duration": 0.02,
      "velocity": 109,
      "chip": "ym2612"
    },
    {
      "channel": 0,
      "note": 85,
      "start": 27.5189,
      "duration": 0.0634,
      "velocity": 103,
      "chip": "ym2612"
    },
    {
      "channel": 1,
      "note": 49,
      "start": 27.5195,
      "duration": 0.1292,
      "velocity": 93,
      "chip": "ym2612"
    },
    {
      "channel": 3,
      "note": 67,
      "start": 27.5216,
      "duration": 0.1296,
      "velocity": 107,
      "chip": "ym2612"
    },
    {
      "channel": 4,
      "note": 69,
      "start": 27.5222,
      "duration": 0.0011,
      "velocity": 109,
      "chip": "ym2612"
    },
    {
      "channel": 2,
      "note": 50,
      "start": 27.5229,
      "duration": 0.009,
      "velocity": 124,
      "chip": "ym2612"
    },
    {
      "channel": 4,
      "note": 68,
      "start": 27.5233,
      "duration": 0.009,
      "velocity": 109,
      "chip": "ym2612"
    },
    {
      "channel": 2,
      "note": 49,
      "start": 27.532,
      "duration": 0.0249,
      "velocity": 124,
      "chip": "ym2612"
    },
    {
      "channel": 4,
      "note": 67,
      "start": 27.5323,
      "duration": 0.0249,
      "velocity": 109,
      "chip": "ym2612"
    },
    {
      "channel": 2,
      "note": 49,
      "start": 27.5568,
      "duration": 0.0128,
      "velocity": 124,
      "chip": "ym2612"
    },
    {
      "channel": 4,
      "note": 66,
      "start": 27.5572,
      "duration": 0.0128,
      "velocity": 109,
      "chip": "ym2612"
    },
    {
      "channel": 2,
      "note": 49,
      "start": 27.5697,
      "duration": 0.0135,
      "velocity": 124,
      "chip": "ym2612"
    },
    {
      "channel": 4,
      "note": 65,
      "start": 27.57,
      "duration": 0.0135,
      "velocity": 109,
      "chip": "ym2612"
    },
    {
      "channel": 0,
      "note": 87,
      "start": 27.5825,
      "duration": 0.0655,
      "velocity": 103,
      "chip": "ym2612"
    },
    {
      "channel": 2,
      "note": 49,
      "start": 27.5832,
      "duration": 0.0115,
      "velocity": 124,
      "chip": "ym2612"
    },
    {
      "channel": 4,
      "note": 64,
      "start": 27.5835,
      "duration": 0.0115,
      "velocity": 109,
      "chip": "ym2612"
    },
    {
      "channel": 2,
      "note": 49,
      "start": 27.5947,
      "duration": 0.0123,
      "velocity": 124,
      "chip": "ym2612"
    },
    {
      "channel": 4,
      "note": 63,
      "start": 27.595,
      "duration": 0.0123,
      "velocity": 109,
      "chip": "ym2612"
    },
    {
      "channel": 2,
      "note": 49,
      "start": 27.607,
      "duration": 0.025,
      "velocity": 124,
      "chip": "ym2612"
    },
    {
      "channel": 4,
      "note": 62,
      "start": 27.6073,
      "duration": 0.025,
      "velocity": 109,
      "chip": "ym2612"
    },
    {
      "channel": 2,
      "note": 48,
      "start": 27.632,
      "duration": 0.0171,
      "velocity": 124,
      "chip": "ym2612"
    },
    {
      "channel": 4,
      "note": 61,
      "start": 27.6323,
      "duration": 0.0195,
      "velocity": 109,
      "chip": "ym2612"
    },
    {
      "channel": 0,
      "note": 85,
      "start": 27.6482,
      "duration": 0.0639,
      "velocity": 103,
      "chip": "ym2612"
    },
    {
      "channel": 1,
      "note": 37,
      "start": 27.6487,
      "duration": 0.2425,
      "velocity": 93,
      "chip": "ym2612"
    },
    {
      "channel": 2,
      "note": 49,
      "start": 27.6493,
      "duration": 0.7698,
      "velocity": 124,
      "chip": "ym2612"
    },
    {
      "channel": 3,
      "note": 67,
      "start": 27.6514,
      "duration": 0.1137,
      "velocity": 107,
      "chip": "ym2612"
    },
    {
      "channel": 4,
      "note": 74,
      "start": 27.652,
      "duration": 0.0008,
      "velocity": 109,
      "chip": "ym2612"
    },
    {
      "channel": 4,
      "note": 73,
      "start": 27.6529,
      "duration": 0.0085,
      "velocity": 109,
      "chip": "ym2612"
    },
    {
      "channel": 4,
      "note": 72,
      "start": 27.6614,
      "duration": 0.0127,
      "velocity": 109,
      "chip": "ym2612"
    },
    {
      "channel": 4,
      "note": 70,
      "start": 27.6741,
      "duration": 0.0127,
      "velocity": 109,
      "chip": "ym2612"
    },
    {
      "channel": 4,
      "note": 69,
      "start": 27.6868,
      "duration": 0.0263,
      "velocity": 109,
      "chip": "ym2612"
    },
    {
      "channel": 0,
      "note": 87,
      "start": 27.7123,
      "duration": 0.0506,
      "velocity": 103,
      "chip": "ym2612"
    },
    {
      "channel": 4,
      "note": 68,
      "start": 27.7131,
      "duration": 0.0116,
      "velocity": 109,
      "chip": "ym2612"
    },
    {
      "channel": 4,
      "note": 67,
      "start": 27.7247,
      "duration": 0.0124,
      "velocity": 109,
      "chip": "ym2612"
    },
    {
      "channel": 4,
      "note": 66,
      "start": 27.7371,
      "duration": 0.0125,
      "velocity": 109,
      "chip": "ym2612"
    },
    {
      "channel": 4,
      "note": 65,
      "start": 27.7496,
      "duration": 0.0161,
      "velocity": 109,
      "chip": "ym2612"
    },
    {
      "channel": 0,
      "note": 85,
      "start": 27.7631,
      "duration": 0.0638,
      "velocity": 103,
      "chip": "ym2612"
    },
    {
      "channel": 3,
      "note": 67,
      "start": 27.7653,
      "duration": 0.0638,
      "velocity": 107,
      "chip": "ym2612"
    },
    {
      "channel": 4,
      "note": 69,
      "start": 27.7659,
      "duration": 0.0009,
      "velocity": 109,
      "chip": "ym2612"
    },
    {
      "channel": 4,
      "note": 68,
      "start": 27.7668,
      "duration": 0.0218,
      "velocity": 109,
      "chip": "ym2612"
    },
    {
      "channel": 4,
      "note": 67,
      "start": 27.7886,
      "duration": 0.0127,
      "velocity": 109,
      "chip": "ym2612"
    },
    {
      "channel": 4,
      "note": 66,
      "start": 27.8013,
      "duration": 0.0126,
      "velocity": 109,
      "chip": "ym2612"
    },
    {
      "channel": 4,
      "note": 65,
      "start": 27.8139,
      "duration": 0.0163,
      "velocity": 109,
      "chip": "ym2612"
    },
    {
      "channel": 0,
      "note": 87,
      "start": 27.827,
      "duration": 0.0637,
      "velocity": 103,
      "chip": "ym2612"
    },
    {
      "channel": 3,
      "note": 67,
      "start": 27.8293,
      "duration": 0.0641,
      "velocity": 107,
      "chip": "ym2612"
    },
    {
      "channel": 4,
      "note": 64,
      "start": 27.8302,
      "duration": 0.01,
      "velocity": 109,
      "chip": "ym2612"
    },
    {
      "channel": 4,
      "note": 63,
      "start": 27.8402,
      "duration": 0.0251,
      "velocity": 109,
      "chip": "ym2612"
    },
    {
      "channel": 4,
      "note": 62,
      "start": 27.8653,
      "duration": 0.0124,
      "velocity": 109,
      "chip": "ym2612"
    },
    {
      "channel": 4,
      "note": 61,
      "start": 27.8777,
      "duration": 0.0163,
      "velocity": 109,
      "chip": "ym2612"
    },
    {
      "channel": 0,
      "note": 85,
      "start": 27.8908,
      "duration": 0.0629,
      "velocity": 103,
      "chip": "ym2612"
    },
    {
      "channel": 1,
      "note": 49,
      "start": 27.8914,
      "duration": 0.1284,
      "velocity": 93,
      "chip": "ym2612"
    },
    {
      "channel": 3,
      "note": 67,
      "start": 27.8936,
      "duration": 0.13,
      "velocity": 107,
      "chip": "ym2612"
    },
    {
      "channel": 4,
      "note": 69,
      "start": 27.8941,
      "duration": 0.0009,
      "velocity": 109,
      "chip": "ym2612"
    },
    {
      "channel": 4,
      "note": 68,
      "start": 27.895,
      "duration": 0.009,
      "velocity": 109,
      "chip": "ym2612"
    },
    {
      "channel": 4,
      "note": 67,
      "start": 27.904,
      "duration": 0.0122,
      "velocity": 109,
      "chip": "ym2612"
    },
    {
      "channel": 4,
      "note": 66,
      "start": 27.9162,
      "duration": 0.025,
      "velocity": 109,
      "chip": "ym2612"
    },
    {
      "channel": 4,
      "note": 65,
      "start": 27.9412,
      "duration": 0.0136,
      "velocity": 109,
      "chip": "ym2612"
    },
    {
      "channel": 0,
      "note": 87,
      "start": 27.954,
      "duration": 0.8754,
      "velocity": 103,
      "chip": "ym2612"
    },
    {
      "channel": 4,
      "note": 64,
      "start": 27.9547,
      "duration": 0.0115,
      "velocity": 109,
      "chip": "ym2612"
    },
    {
      "channel": 4,
      "note": 63,
      "start": 27.9663,
      "duration": 0.0123,
      "velocity": 109,
      "chip": "ym2612"
    },
    {
      "channel": 4,
      "note": 62,
      "start": 27.9786,
      "duration": 0.0127,
      "velocity": 109,
      "chip": "ym2612"
    },
    {
      "channel": 4,
      "note": 61,
      "start": 27.9913,
      "duration": 0.0333,
      "velocity": 109,
      "chip": "ym2612"
    },
    {
      "channel": 1,
      "note": 47,
      "start": 28.02,
      "duration": 0.1157,
      "velocity": 93,
      "chip": "ym2612"
    },
    {
      "channel": 3,
      "note": 67,
      "start": 28.0237,
      "duration": 0.1141,
      "velocity": 107,
      "chip": "ym2612"
    },
    {
      "channel": 4,
      "note": 60,
      "start": 28.0246,
      "duration": 0.0083,
      "velocity": 109,
      "chip": "ym2612"
    },
    {
      "channel": 4,
      "note": 58,
      "start": 28.033,
      "duration": 0.0126,
      "velocity": 109,
      "chip": "ym2612"
    },
    {
      "channel": 4,
      "note": 57,
      "start": 28.0456,
      "duration": 0.0127,
      "velocity": 109,
      "chip": "ym2612"
    },
    {
      "channel": 4,
      "note": 56,
      "start": 28.0583,
      "duration": 0.0379,
      "velocity": 109,
      "chip": "ym2612"
    },
    {
      "channel": 4,
      "note": 55,
      "start": 28.0963,
      "duration": 0.0126,
      "velocity": 109,
      "chip": "ym2612"
    },
    {
      "channel": 4,
      "note": 54,
      "start": 28.1088,
      "duration": 0.0126,
      "velocity": 109,
      "chip": "ym2612"
    },
    {
      "channel": 4,
      "note": 53,
      "start": 28.1214,
      "duration": 0.0171,
      "velocity": 109,
      "chip": "ym2612"
    },
    {
      "channel": 1,
      "note": 49,
      "start": 28.1358,
      "duration": 0.1666,
      "velocity": 93,
      "chip": "ym2612"
    },
    {
      "channel": 3,
      "note": 67,
      "start": 28.138,
      "duration": 0.0843,
      "velocity": 107,
      "chip": "ym2612"
    },
    {
      "channel": 4,
      "note": 52,
      "start": 28.1386,
      "duration": 0.0135,
      "velocity": 109,
      "chip": "ym2612"
    },
    {
      "channel": 4,
      "note": 51,
      "start": 28.152,
      "duration": 0.0333,
      "velocity": 109,
      "chip": "ym2612"
    },
    {
      "channel": 4,
      "note": 50,
      "start": 28.1854,
      "duration": 0.0167,
      "velocity": 109,
      "chip": "ym2612"
    },
    {
      "channel": 4,
      "note": 49,
      "start": 28.202,
      "duration": 0.021,
      "velocity": 109,
      "chip": "ym2612"
    },
    {
      "channel": 3,
      "note": 67,
      "start": 28.2224,
      "duration": 0.0821,
      "velocity": 107,
      "chip": "ym2612"
    },
    {
      "channel": 4,
      "note": 48,
      "start": 28.223,
      "duration": 0.0123,
      "velocity": 109,
      "chip": "ym2612"
    },
    {
      "channel": 4,
      "note": 46,
      "start": 28.2354,
      "duration": 0.0167,
      "velocity": 109,
      "chip": "ym2612"
    },
    {
      "channel": 4,
      "note": 45,
      "start": 28.252,
      "duration": 0.0333,
      "velocity": 109,
      "chip": "ym2612"
    },
    {
      "channel": 4,
      "note": 44,
      "start": 28.2854,
      "duration": 0.0202,
      "velocity": 109,
      "chip": "ym2612"
    },
    {
      "channel": 1,
      "note": 52,
      "start": 28.3026,
      "duration": 0.1145,
      "velocity": 93,
      "chip": "ym2612"
    },
    {
      "channel": 3,
      "note": 67,
      "start": 28.3047,
      "duration": 0.1166,
      "velocity": 107,
      "chip": "ym2612"
    },
    {
      "channel": 4,
      "note": 43,
      "start": 28.3056,
      "duration": 0.0096,
      "velocity": 109,
      "chip": "ym2612"
    },
    {
      "channel": 4,
      "note": 42,
      "start": 28.3152,
      "duration": 0.0122,
      "velocity": 109,
      "chip": "ym2612"
    },
    {
      "channel": 4,
      "note": 41,
      "start": 28.3274,
      "duration": 0.0127,
      "velocity": 109,
      "chip": "ym2612"
    },
    {
      "channel": 4,
      "note": 40,
      "start": 28.3402,
      "duration": 0.038,
      "velocity": 109,
      "chip": "ym2612"
    },
    {
      "channel": 4,
      "note": 39,
      "start": 28.3782,
      "duration": 0.0127,
      "velocity": 109,
      "chip": "ym2612"
    },
    {
      "channel": 4,
      "note": 38,
      "start": 28.3909,
      "duration": 0.0127,
      "velocity": 109,
      "chip": "ym2612"
    },
    {
      "channel": 4,
      "note": 37,
      "start": 28.4037,
      "duration": 0.0187,
      "velocity": 109,
      "chip": "ym2612"
    },
    {
      "channel": 1,
      "note": 39,
      "start": 28.4172,
      "duration": 0.2966,
      "velocity": 93,
      "chip": "ym2612"
    },
    {
      "channel": 2,
      "note": 51,
      "start": 28.4193,
      "duration": 0.5444,
      "velocity": 124,
      "chip": "ym2612"
    },
    {
      "channel": 3,
      "note": 67,
      "start": 28.4215,
      "duration": 0.1273,
      "velocity": 107,
      "chip": "ym2612"
    },
    {
      "channel": 4,
      "note": 36,
      "start": 28.4224,
      "duration": 0.0207,
      "velocity": 109,
      "chip": "ym2612"
    },
    {
      "channel": 4,
      "note": 34,
      "start": 28.4431,
      "duration": 0.0125,
      "velocity": 109,
      "chip": "ym2612"
    },
    {
      "channel": 4,
      "note": 33,
      "start": 28.4555,
      "duration": 0.0127,
      "velocity": 109,
      "chip": "ym2612"
    },
    {
      "channel": 4,
      "note": 32,
      "start": 28.4682,
      "duration": 0.0251,
      "velocity": 109,
      "chip": "ym2612"
    },
    {
      "channel": 4,
      "note": 31,
      "start": 28.4933,
      "duration": 0.0249,
      "velocity": 109,
      "chip": "ym2612"
    },
    {
      "channel": 4,
      "note": 30,
      "start": 28.5183,
      "duration": 0.0126,
      "velocity": 109,
      "chip": "ym2612"
    },
    {
      "channel": 4,
      "note": 29,
      "start": 28.5309,
      "duration": 0.0187,
      "velocity": 109,
      "chip": "ym2612"
    },
    {
      "channel": 3,
      "note": 67,
      "start": 28.549,
      "duration": 0.0831,
      "velocity": 107,
      "chip": "ym2612"
    },
    {
      "channel": 4,
      "note": 28,
      "start": 28.5495,
      "duration": 0.014,
      "velocity": 109,
      "chip": "ym2612"
    },
    {
      "channel": 4,
      "note": 27,
      "start": 28.5635,
      "duration": 0.0167,
      "velocity": 109,
      "chip": "ym2612"
    },
    {
      "channel": 4,
      "note": 26,
      "start": 28.5802,
      "duration": 0.0333,
      "velocity": 109,
      "chip": "ym2612"
    },
    {
      "channel": 4,
      "note": 25,
      "start": 28.6135,
      "duration": 0.0193,
      "velocity": 109,
      "chip": "ym2612"
    },
    {
      "channel": 3,
      "note": 67,
      "start": 28.6323,
      "duration": 0.0837,
      "velocity": 107,
      "chip": "ym2612"
    },
    {
      "channel": 4,
      "note": 24,
      "start": 28.6329,
      "duration": 0.014,
      "velocity": 109,
      "chip": "ym2612"
    },
    {
      "channel": 4,
      "note": 23,
      "start": 28.6469,
      "duration": 0.0167,
      "velocity": 109,
      "chip": "ym2612"
    },
    {
      "channel": 4,
      "note": 21,
      "start": 28.6635,
      "duration": 0.0167,
      "velocity": 109,
      "chip": "ym2612"
    },
    {
      "channel": 4,
      "note": 116,
      "start": 28.6802,
      "duration": 0.0369,
      "velocity": 109,
      "chip": "ym2612"
    },
    {
      "channel": 1,
      "note": 51,
      "start": 28.714,
      "duration": 0.116,
      "velocity": 93,
      "chip": "ym2612"
    },
    {
      "channel": 3,
      "note": 67,
      "start": 28.7162,
      "duration": 0.1159,
      "velocity": 107,
      "chip": "ym2612"
    },
    {
      "channel": 4,
      "note": 115,
      "start": 28.7171,
      "duration": 0.01,
      "velocity": 109,
      "chip": "ym2612"
    },
    {
      "channel": 4,
      "note": 114,
      "start": 28.7271,
      "duration": 0.0125,
      "velocity": 109,
      "chip": "ym2612"
    },
    {
      "channel": 4,
      "note": 113,
      "start": 28.7396,
      "duration": 0.0127,
      "velocity": 109,
      "chip": "ym2612"
    },
    {
      "channel": 4,
      "note": 112,
      "start": 28.7523,
      "duration": 0.0376,
      "velocity": 109,
      "chip": "ym2612"
    },
    {
      "channel": 4,
      "note": 111,
      "start": 28.7898,
      "duration": 0.0127,
      "velocity": 109,
      "chip": "ym2612"
    },
    {
      "channel": 4,
      "note": 110,
      "start": 28.8025,
      "duration": 0.0127,
      "velocity": 109,
      "chip": "ym2612"
    },
    {
      "channel": 4,
      "note": 109,
      "start": 28.8152,
      "duration": 0.018,
      "velocity": 109,
      "chip": "ym2612"
    },
    {
      "channel": 0,
      "note": 92,
      "start": 28.8296,
      "duration": 0.1306,
      "velocity": 103,
      "chip": "ym2612"
    },
    {
      "channel": 1,
      "note": 49,
      "start": 28.8302,
      "duration": 0.1306,
      "velocity": 93,
      "chip": "ym2612"
    },
    {
      "channel": 3,
      "note": 67,
      "start": 28.8323,
      "duration": 0.1307,
      "velocity": 107,
      "chip": "ym2612"
    },
    {
      "channel": 4,
      "note": 108,
      "start": 28.8332,
      "duration": 0.0085,
      "velocity": 109,
      "chip": "ym2612"
    },
    {
      "channel": 4,
      "note": 107,
      "start": 28.8417,
      "duration": 0.0253,
      "velocity": 109,
      "chip": "ym2612"
    },
    {
      "channel": 4,
      "note": 105,
      "start": 28.867,
      "duration": 0.0125,
      "velocity": 109,
      "chip": "ym2612"
    },
    {
      "channel": 4,
      "note": 104,
      "start": 28.8795,
      "duration": 0.0249,
      "velocity": 109,
      "chip": "ym2612"
    },
    {
      "channel": 4,
      "note": 103,
      "start": 28.9045,
      "duration": 0.0127,
      "velocity": 109,
      "chip": "ym2612"
    },
    {
      "channel": 4,
      "note": 102,
      "start": 28.9171,
      "duration": 0.0261,
      "velocity": 109,
      "chip": "ym2612"
    },
    {
      "channel": 4,
      "note": 101,
      "start": 28.9433,
      "duration": 0.0207,
      "velocity": 109,
      "chip": "ym2612"
    },
    {
      "channel": 0,
      "note": 91,
      "start": 28.9604,
      "duration": 0.1498,
      "velocity": 103,
      "chip": "ym2612"
    },
    {
      "channel": 1,
      "note": 46,
      "start": 28.9609,
      "duration": 0.1499,
      "velocity": 93,
      "chip": "ym2612"
    },
    {
      "channel": 3,
      "note": 67,
      "start": 28.9632,
      "duration": 0.0821,
      "velocity": 107,
      "chip": "ym2612"
    },
    {
      "channel": 2,
      "note": 51,
      "start": 28.9637,
      "duration": 0.0128,
      "velocity": 124,
      "chip": "ym2612"
    },
    {
      "channel": 4,
      "note": 100,
      "start": 28.964,
      "duration": 0.0129,
      "velocity": 109,
      "chip": "ym2612"
    },
    {
      "channel": 2,
      "note": 51,
      "start": 28.9765,
      "duration": 0.0167,
      "velocity": 124,
      "chip": "ym2612"
    },
    {
      "channel": 4,
      "note": 99,
      "start": 28.9769,
      "duration": 0.0167,
      "velocity": 109,
      "chip": "ym2612"
    },
    {
      "channel": 2,
      "note": 51,
      "start": 28.9932,
      "duration": 0.0167,
      "velocity": 124,
      "chip": "ym2612"
    },
    {
      "channel": 4,
      "note": 98,
      "start": 28.9936,
      "duration": 0.0167,
      "velocity": 109,
      "chip": "ym2612"
    },
    {
      "channel": 2,
      "note": 52,
      "start": 29.0099,
      "duration": 0.0361,
      "velocity": 124,
      "chip": "ym2612"
    },
    {
      "channel": 4,
      "note": 97,
      "start": 29.0102,
      "duration": 0.0361,
      "velocity": 109,
      "chip": "ym2612"
    },
    {
      "channel": 3,
      "note": 67,
      "start": 29.0455,
      "duration": 0.0675,
      "velocity": 107,
      "chip": "ym2612"
    },
    {
      "channel": 2,
      "note": 52,
      "start": 29.046,
      "duration": 0.0139,
      "velocity": 124,
      "chip": "ym2612"
    },
    {
      "channel": 4,
      "note": 96,
      "start": 29.0463,
      "duration": 0.0139,
      "velocity": 109,
      "chip": "ym2612"
    },
    {
      "channel": 2,
      "note": 52,
      "start": 29.0599,
      "duration": 0.0167,
      "velocity": 124,
      "chip": "ym2612"
    },
    {
      "channel": 4,
      "note": 95,
      "start": 29.0602,
      "duration": 0.0167,
      "velocity": 109,
      "chip": "ym2612"
    },
    {
      "channel": 2,
      "note": 52,
      "start": 29.0766,
      "duration": 0.0167,
      "velocity": 124,
      "chip": "ym2612"
    },
    {
      "channel": 4,
      "note": 93,
      "start": 29.0769,
      "duration": 0.0167,
      "velocity": 109,
      "chip": "ym2612"
    },
    {
      "channel": 2,
      "note": 52,
      "start": 29.0932,
      "duration": 0.0207,
      "velocity": 124,
      "chip": "ym2612"
    },
    {
      "channel": 4,
      "note": 92,
      "start": 29.0936,
      "duration": 0.0207,
      "velocity": 109,
      "chip": "ym2612"
    },
    {
      "channel": 0,
      "note": 85,
      "start": 29.1104,
      "duration": 0.0639,
      "velocity": 103,
      "chip": "ym2612"
    },
    {
      "channel": 1,
      "note": 49,
      "start": 29.1109,
      "duration": 0.1293,
      "velocity": 93,
      "chip": "ym2612"
    },
    {
      "channel": 3,
      "note": 67,
      "start": 29.1132,
      "duration": 0.1298,
      "velocity": 107,
      "chip": "ym2612"
    },
    {
      "channel": 2,
      "note": 52,
      "start": 29.114,
      "duration": 0.0221,
      "velocity": 124,
      "chip": "ym2612"
    },
    {
      "channel": 4,
      "note": 91,
      "start": 29.1143,
      "duration": 0.0221,
      "velocity": 109,
      "chip": "ym2612"
    },
    {
      "channel": 2,
      "note": 52,
      "start": 29.1361,
      "duration": 0.0124,
      "velocity": 124,
      "chip": "ym2612"
    },
    {
      "channel": 4,
      "note": 90,
      "start": 29.1364,
      "duration": 0.0124,
      "velocity": 109,
      "chip": "ym2612"
    },
    {
      "channel": 2,
      "note": 53,
      "start": 29.1485,
      "duration": 0.0125,
      "velocity": 124,
      "chip": "ym2612"
    },
    {
      "channel": 4,
      "note": 89,
      "start": 29.1488,
      "duration": 0.0125,
      "velocity": 109,
      "chip": "ym2612"
    },
    {
      "channel": 2,
      "note": 53,
      "start": 29.161,
      "duration": 0.0137,
      "velocity": 124,
      "chip": "ym2612"
    },
    {
      "channel": 4,
      "note": 88,
      "start": 29.1613,
      "duration": 0.0137,
      "velocity": 109,
      "chip": "ym2612"
    },
    {
      "channel": 0,
      "note": 86,
      "start": 29.1744,
      "duration": 0.0119,
      "velocity": 103,
      "chip": "ym2612"
    },
    {
      "channel": 2,
      "note": 53,
      "start": 29.1747,
      "duration": 0.0119,
      "velocity": 124,
      "chip": "ym2612"
    },
    {
      "channel": 4,
      "note": 87,
      "start": 29.175,
      "duration": 0.0119,
      "velocity": 109,
      "chip": "ym2612"
    },
    {
      "channel": 0,
      "note": 86,
      "start": 29.1862,
      "duration": 0.0249,
      "velocity": 103,
      "chip": "ym2612"
    },
    {
      "channel": 2,
      "note": 53,
      "start": 29.1865,
      "duration": 0.0249,
      "velocity": 124,
      "chip": "ym2612"
    },
    {
      "channel": 4,
      "note": 86,
      "start": 29.1868,
      "duration": 0.0249,
      "velocity": 109,
      "chip": "ym2612"
    },
    {
      "channel": 0,
      "note": 86,
      "start": 29.2111,
      "duration": 0.0125,
      "velocity": 103,
      "chip": "ym2612"
    },
    {
      "channel": 2,
      "note": 53,
      "start": 29.2115,
      "duration": 0.0124,
      "velocity": 124,
      "chip": "ym2612"
    },
    {
      "channel": 4,
      "note": 85,
      "start": 29.2118,
      "duration": 0.0125,
      "velocity": 109,
      "chip": "ym2612"
    },
    {
      "channel": 0,
      "note": 87,
      "start": 29.2236,
      "duration": 0.0161,
      "velocity": 103,
      "chip": "ym2612"
    },
    {
      "channel": 2,
      "note": 53,
      "start": 29.2239,
      "duration": 0.0169,
      "velocity": 124,
      "chip": "ym2612"
    },
    {
      "channel": 4,
      "note": 84,
      "start": 29.2243,
      "duration": 0.0197,
      "velocity": 109,
      "chip": "ym2612"
    },
    {
      "channel": 0,
      "note": 87,
      "start": 29.2399,
      "duration": 0.3799,
      "velocity": 103,
      "chip": "ym2612"
    },
    {
      "channel": 1,
      "note": 37,
      "start": 29.2404,
      "duration": 0.1296,
      "velocity": 93,
      "chip": "ym2612"
    },
    {
      "channel": 2,
      "note": 52,
      "start": 29.2409,
      "duration": 0.7569,
      "velocity": 124,
      "chip": "ym2612"
    },
    {
      "channel": 3,
      "note": 67,
      "start": 29.2431,
      "duration": 0.1291,
      "velocity": 107,
      "chip": "ym2612"
    },
    {
      "channel": 4,
      "note": 83,
      "start": 29.244,
      "duration": 0.0087,
      "velocity": 109,
      "chip": "ym2612"
    },
    {
      "channel": 4,
      "note": 81,
      "start": 29.2527,
      "duration": 0.0127,
      "velocity": 109,
      "chip": "ym2612"
    },
    {
      "channel": 4,
      "note": 80,
      "start": 29.2653,
      "duration": 0.0251,
      "velocity": 109,
      "chip": "ym2612"
    },
    {
      "channel": 4,
      "note": 79,
      "start": 29.2904,
      "duration": 0.0252,
      "velocity": 109,
      "chip": "ym2612"
    },
    {
      "channel": 4,
      "note": 78,
      "start": 29.3156,
      "duration": 0.0128,
      "velocity": 109,
      "chip": "ym2612"
    },
    {
      "channel": 4,
      "note": 77,
      "start": 29.3284,
      "duration": 0.0128,
      "velocity": 109,
      "chip": "ym2612"
    },
    {
      "channel": 4,
      "note": 76,
      "start": 29.3412,
      "duration": 0.0318,
      "velocity": 109,
      "chip": "ym2612"
    },
    {
      "channel": 1,
      "note": 49,
      "start": 29.3702,
      "duration": 0.1144,
      "velocity": 93,
      "chip": "ym2612"
    },
    {
      "channel": 3,
      "note": 67,
      "start": 29.3724,
      "duration": 0.0502,
      "velocity": 107,
      "chip": "ym2612"
    },
    {
      "channel": 4,
      "note": 74,
      "start": 29.373,
      "duration": 0.0009,
      "velocity": 109,
      "chip": "ym2612"
    },
    {
      "channel": 4,
      "note": 73,
      "start": 29.3739,
      "duration": 0.0092,
      "velocity": 109,
      "chip": "ym2612"
    },
    {
      "channel": 4,
      "note": 72,
      "start": 29.3832,
      "duration": 0.0123,
      "velocity": 109,
      "chip": "ym2612"
    },
    {
      "channel": 4,
      "note": 70,
      "start": 29.3955,
      "duration": 0.0125,
      "velocity": 109,
      "chip": "ym2612"
    },
    {
      "channel": 4,
      "note": 69,
      "start": 29.408,
      "duration": 0.0157,
      "velocity": 109,
      "chip": "ym2612"
    },
    {
      "channel": 3,
      "note": 67,
      "start": 29.4227,
      "duration": 0.0641,
      "velocity": 107,
      "chip": "ym2612"
    },
    {
      "channel": 4,
      "note": 68,
      "start": 29.4237,
      "duration": 0.0225,
      "velocity": 109,
      "chip": "ym2612"
    },
    {
      "channel": 4,
      "note": 67,
      "start": 29.4461,
      "duration": 0.0124,
      "velocity": 109,
      "chip": "ym2612"
    },
    {
      "channel": 4,
      "note": 66,
      "start": 29.4586,
      "duration": 0.0127,
      "velocity": 109,
      "chip": "ym2612"
    },
    {
      "channel": 4,
      "note": 65,
      "start": 29.4713,
      "duration": 0.0161,
      "velocity": 109,
      "chip": "ym2612"
    },
    {
      "channel": 1,
      "note": 47,
      "start": 29.4848,
      "duration": 0.1298,
      "velocity": 93,
      "chip": "ym2612"
    },
    {
      "channel": 3,
      "note": 67,
      "start": 29.487,
      "duration": 0.1313,
      "velocity": 107,
      "chip": "ym2612"
    },
    {
      "channel": 4,
      "note": 74,
      "start": 29.4876,
      "duration": 0.0008,
      "velocity": 109,
      "chip": "ym2612"
    },
    {
      "channel": 4,
      "note": 73,
      "start": 29.4884,
      "duration": 0.0095,
      "velocity": 109,
      "chip": "ym2612"
    },
    {
      "channel": 4,
      "note": 72,
      "start": 29.4979,
      "duration": 0.025,
      "velocity": 109,
      "chip": "ym2612"
    },
    {
      "channel": 4,
      "note": 70,
      "start": 29.5229,
      "duration": 0.0123,
      "velocity": 109,
      "chip": "ym2612"
    },
    {
      "channel": 4,
      "note": 69,
      "start": 29.5352,
      "duration": 0.0253,
      "velocity": 109,
      "chip": "ym2612"
    },
    {
      "channel": 4,
      "note": 68,
      "start": 29.5605,
      "duration": 0.0127,
      "velocity": 109,
      "chip": "ym2612"
    },
    {
      "channel": 4,
      "note": 67,
      "start": 29.5732,
      "duration": 0.0249,
      "velocity": 109,
      "chip": "ym2612"
    },
    {
      "channel": 4,
      "note": 66,
      "start": 29.5981,
      "duration": 0.0208,
      "velocity": 109,
      "chip": "ym2612"
    },
    {
      "channel": 1,
      "note": 42,
      "start": 29.6147,
      "duration": 0.1145,
      "velocity": 93,
      "chip": "ym2612"
    },
    {
      "channel": 3,
      "note": 67,
      "start": 29.6185,
      "duration": 0.1129,
      "velocity": 107,
      "chip": "ym2612"
    },
    {
      "channel": 4,
      "note": 69,
      "start": 29.6191,
      "duration": 0.0011,
      "velocity": 109,
      "chip": "ym2612"
    },
    {
      "channel": 0,
      "note": 87,
      "start": 29.6198,
      "duration": 0.0082,
      "velocity": 103,
      "chip": "ym2612"
    },
    {
      "channel": 4,
      "note": 68,
      "start": 29.6202,
      "duration": 0.0082,
      "velocity": 109,
      "chip": "ym2612"
    },
    {
      "channel": 0,
      "note": 87,
      "start": 29.628,
      "duration": 0.0126,
      "velocity": 103,
      "chip": "ym2612"
    },
    {
      "channel": 4,
      "note": 67,
      "start": 29.6284,
      "duration": 0.0126,
      "velocity": 109,
      "chip": "ym2612"
    },
    {
      "channel": 0,
      "note": 87,
      "start": 29.6406,
      "duration": 0.0125,
      "velocity": 103,
      "chip": "ym2612"
    },
    {
      "channel": 4,
      "note": 66,
      "start": 29.641,
      "duration": 0.0125,
      "velocity": 109,
      "chip": "ym2612"
    },
    {
      "channel": 0,
      "note": 86,
      "start": 29.6531,
      "duration": 0.0262,
      "velocity": 103,
      "chip": "ym2612"
    },
    {
      "channel": 4,
      "note": 65,
      "start": 29.6535,
      "duration": 0.0252,
      "velocity": 109,
      "chip": "ym2612"
    },
    {
      "channel": 4,
      "note": 69,
      "start": 29.6789,
      "duration": 0.0008,
      "velocity": 109,
      "chip": "ym2612"
    },
    {
      "channel": 0,
      "note": 86,
      "start": 29.6793,
      "duration": 0.0115,
      "velocity": 103,
      "chip": "ym2612"
    },
    {
      "channel": 4,
      "note": 68,
      "start": 29.6797,
      "duration": 0.0115,
      "velocity": 109,
      "chip": "ym2612"
    },
    {
      "channel": 0,
      "note": 86,
      "start": 29.6908,
      "duration": 0.0126,
      "velocity": 103,
      "chip": "ym2612"
    },
    {
      "channel": 4,
      "note": 67,
      "start": 29.6912,
      "duration": 0.0126,
      "velocity": 109,
      "chip": "ym2612"
    },
    {
      "channel": 0,
      "note": 86,
      "start": 29.7034,
      "duration": 0.0125,
      "velocity": 103,
      "chip": "ym2612"
    },
    {
      "channel": 4,
      "note": 66,
      "start": 29.7038,
      "duration": 0.0125,
      "velocity": 109,
      "chip": "ym2612"
    },
    {
      "channel": 0,
      "note": 86,
      "start": 29.7159,
      "duration": 0.017,
      "velocity": 103,
      "chip": "ym2612"
    },
    {
      "channel": 4,
      "note": 65,
      "start": 29.7163,
      "duration": 0.0158,
      "velocity": 109,
      "chip": "ym2612"
    },
    {
      "channel": 1,
      "note": 44,
      "start": 29.7295,
      "duration": 0.1322,
      "velocity": 93,
      "chip": "ym2612"
    },
    {
      "channel": 3,
      "note": 67,
      "start": 29.7316,
      "duration": 0.0639,
      "velocity": 107,
      "chip": "ym2612"
    },
    {
      "channel": 4,
      "note": 69,
      "start": 29.7322,
      "duration": 0.0012,
      "velocity": 109,
      "chip": "ym2612"
    },
    {
      "channel": 0,
      "note": 86,
      "start": 29.7329,
      "duration": 0.0222,
      "velocity": 103,
      "chip": "ym2612"
    },
    {
      "channel": 4,
      "note": 68,
      "start": 29.7333,
      "duration": 0.0222,
      "velocity": 109,
      "chip": "ym2612"
    },
    {
      "channel": 0,
      "note": 85,
      "start": 29.7551,
      "duration": 0.0127,
      "velocity": 103,
      "chip": "ym2612"
    },
    {
      "channel": 4,
      "note": 67,
      "start": 29.7556,
      "duration": 0.0127,
      "velocity": 109,
      "chip": "ym2612"
    },
    {
      "channel": 0,
      "note": 85,
      "start": 29.7678,
      "duration": 0.0127,
      "velocity": 103,
      "chip": "ym2612"
    },
    {
      "channel": 4,
      "note": 66,
      "start": 29.7682,
      "duration": 0.0127,
      "velocity": 109,
      "chip": "ym2612"
    },
    {
      "channel": 0,
      "note": 85,
      "start": 29.7805,
      "duration": 0.0155,
      "velocity": 103,
      "chip": "ym2612"
    },
    {
      "channel": 4,
      "note": 65,
      "start": 29.781,
      "duration": 0.0155,
      "velocity": 109,
      "chip": "ym2612"
    },
    {
      "channel": 3,
      "note": 67,
      "start": 29.7956,
      "duration": 0.0682,
      "velocity": 107,
      "chip": "ym2612"
    },
    {
      "channel": 0,
      "note": 85,
      "start": 29.796,
      "duration": 0.0103,
      "velocity": 103,
      "chip": "ym2612"
    },
    {
      "channel": 4,
      "note": 64,
      "start": 29.7964,
      "duration": 0.0104,
      "velocity": 109,
      "chip": "ym2612"
    },
    {
      "channel": 0,
      "note": 85,
      "start": 29.8063,
      "duration": 0.0249,
      "velocity": 103,
      "chip": "ym2612"
    },
    {
      "channel": 4,
      "note": 63,
      "start": 29.8068,
      "duration": 0.0249,
      "velocity": 109,
      "chip": "ym2612"
    },
    {
      "channel": 0,
      "note": 85,
      "start": 29.8313,
      "duration": 0.0132,
      "velocity": 103,
      "chip": "ym2612"
    },
    {
      "channel": 4,
      "note": 62,
      "start": 29.8317,
      "duration": 0.0133,
      "velocity": 109,
      "chip": "ym2612"
    },
    {
      "channel": 0,
      "note": 84,
      "start": 29.8445,
      "duration": 0.0208,
      "velocity": 103,
      "chip": "ym2612"
    },
    {
      "channel": 4,
      "note": 61,
      "start": 29.8449,
      "duration": 0.0195,
      "velocity": 109,
      "chip": "ym2612"
    },
    {
      "channel": 1,
      "note": 47,
      "start": 29.8618,
      "duration": 0.1339,
      "velocity": 93,
      "chip": "ym2612"
    },
    {
      "channel": 3,
      "note": 67,
      "start": 29.864,
      "duration": 0.1359,
      "velocity": 107,
      "chip": "ym2612"
    },
    {
      "channel": 4,
      "note": 69,
      "start": 29.8646,
      "duration": 0.248,
      "velocity": 80,
      "chip": "ym2612"
    },
    {
      "channel": 0,
      "note": 84,
      "start": 29.8653,
      "duration": 0.0097,
      "velocity": 103,
      "chip": "ym2612"
    },
    {
      "channel": 0,
      "note": 84,
      "start": 29.8749,
      "duration": 0.0126,
      "velocity": 103,
      "chip": "ym2612"
    },
    {
      "channel": 0,
      "note": 84,
      "start": 29.8875,
      "duration": 0.025,
      "velocity": 103,
      "chip": "ym2612"
    },
    {
      "channel": 0,
      "note": 84,
      "start": 29.9125,
      "duration": 0.0134,
      "velocity": 103,
      "chip": "ym2612"
    },
    {
      "channel": 0,
      "note": 84,
      "start": 29.9259,
      "duration": 0.0118,
      "velocity": 103,
      "chip": "ym2612"
    },
    {
      "channel": 0,
      "note": 83,
      "start": 29.9377,
      "duration": 0.0123,
      "velocity": 103,
      "chip": "ym2612"
    },
    {
      "channel": 0,
      "note": 83,
      "start": 29.9499,
      "duration": 0.0123,
      "velocity": 103,
      "chip": "ym2612"
    },
    {
      "channel": 0,
      "note": 83,
      "start": 29.9623,
      "duration": 0.0328,
      "velocity": 80,
      "chip": "ym2612"
    },
    {
      "channel": 0,
      "note": 77,
      "start": 29.9952,
      "duration": 0.1129,
      "velocity": 80,
      "chip": "ym2612"
    },
    {
      "channel": 1,
      "note": 41,
      "start": 29.9959,
      "duration": 0.2788,
      "velocity": 93,
      "chip": "ym2612"
    },
    {
      "channel": 2,
      "note": 53,
      "start": 29.998,
      "duration": 2.3932,
      "velocity": 124,
      "chip": "ym2612"
    },
    {
      "channel": 3,
      "note": 67,
      "start": 30.0001,
      "duration": 0.1103,
      "velocity": 107,
      "chip": "ym2612"
    },
    {
      "channel": 0,
      "note": 72,
      "start": 30.1084,
      "duration": 0.1657,
      "velocity": 80,
      "chip": "ym2612"
    },
    {
      "channel": 3,
      "note": 67,
      "start": 30.1106,
      "duration": 0.0818,
      "velocity": 107,
      "chip": "ym2612"
    },
    {
      "channel": 4,
      "note": 77,
      "start": 30.1128,
      "duration": 0.1646,
      "velocity": 80,
      "chip": "ym2612"
    },
    {
      "channel": 3,
      "note": 67,
      "start": 30.1926,
      "duration": 0.0841,
      "velocity": 107,
      "chip": "ym2612"
    },
    {
      "channel": 0,
      "note": 77,
      "start": 30.2742,
      "duration": 0.1129,
      "velocity": 80,
      "chip": "ym2612"
    },
    {
      "channel": 1,
      "note": 41,
      "start": 30.2748,
      "duration": 0.1128,
      "velocity": 93,
      "chip": "ym2612"
    },
    {
      "channel": 3,
      "note": 67,
      "start": 30.277,
      "duration": 0.1128,
      "velocity": 107,
      "chip": "ym2612"
    },
    {
      "channel": 4,
      "note": 72,
      "start": 30.2776,
      "duration": 0.1128,
      "velocity": 80,
      "chip": "ym2612"
    },
    {
      "channel": 0,
      "note": 82,
      "start": 30.3873,
      "duration": 0.1317,
      "velocity": 80,
      "chip": "ym2612"
    },
    {
      "channel": 1,
      "note": 53,
      "start": 30.3878,
      "duration": 0.1317,
      "velocity": 93,
      "chip": "ym2612"
    },
    {
      "channel": 3,
      "note": 67,
      "start": 30.39,
      "duration": 0.1317,
      "velocity": 107,
      "chip": "ym2612"
    },
    {
      "channel": 4,
      "note": 77,
      "start": 30.3906,
      "duration": 0.1317,
      "velocity": 80,
      "chip": "ym2612"
    },
    {
      "channel": 0,
      "note": 84,
      "start": 30.5191,
      "duration": 0.1665,
      "velocity": 80,
      "chip": "ym2612"
    },
    {
      "channel": 1,
      "note": 51,
      "start": 30.5196,
      "duration": 0.1666,
      "velocity": 93,
      "chip": "ym2612"
    },
    {
      "channel": 3,
      "note": 67,
      "start": 30.5219,
      "duration": 0.0821,
      "velocity": 107,
      "chip": "ym2612"
    },
    {
      "channel": 4,
      "note": 82,
      "start": 30.5224,
      "duration": 0.1665,
      "velocity": 80,
      "chip": "ym2612"
    },
    {
      "channel": 3,
      "note": 67,
      "start": 30.6042,
      "duration": 0.0841,
      "velocity": 107,
      "chip": "ym2612"
    },
    {
      "channel": 0,
      "note": 87,
      "start": 30.6858,
      "duration": 0.0507,
      "velocity": 80,
      "chip": "ym2612"
    },
    {
      "channel": 1,
      "note": 53,
      "start": 30.6863,
      "duration": 0.1133,
      "velocity": 93,
      "chip": "ym2612"
    },
    {
      "channel": 3,
      "note": 67,
      "start": 30.6885,
      "duration": 0.1148,
      "velocity": 107,
      "chip": "ym2612"
    },
    {
      "channel": 4,
      "note": 84,
      "start": 30.6891,
      "duration": 0.1149,
      "velocity": 80,
      "chip": "ym2612"
    },
    {
      "channel": 0,
      "note": 89,
      "start": 30.7367,
      "duration": 0.0624,
      "velocity": 80,
      "chip": "ym2612"
    },
    {
      "channel": 0,
      "note": 87,
      "start": 30.7992,
      "duration": 0.0637,
      "velocity": 80,
      "chip": "ym2612"
    },
    {
      "channel": 1,
      "note": 39,
      "start": 30.7998,
      "duration": 0.245,
      "velocity": 93,
      "chip": "ym2612"
    },
    {
      "channel": 3,
      "note": 67,
      "start": 30.8036,
      "duration": 0.1277,
      "velocity": 107,
      "chip": "ym2612"
    },
    {
      "channel": 4,
      "note": 87,
      "start": 30.8041,
      "duration": 0.0595,
      "velocity": 80,
      "chip": "ym2612"
    },
    {
      "channel": 0,
      "note": 89,
      "start": 30.8631,
      "duration": 0.0659,
      "velocity": 80,
      "chip": "ym2612"
    },
    {
      "channel": 4,
      "note": 89,
      "start": 30.8638,
      "duration": 0.068,
      "velocity": 80,
      "chip": "ym2612"
    },
    {
      "channel": 0,
      "note": 87,
      "start": 30.9292,
      "duration": 0.0642,
      "velocity": 80,
      "chip": "ym2612"
    },
    {
      "channel": 3,
      "note": 67,
      "start": 30.9314,
      "duration": 0.0642,
      "velocity": 107,
      "chip": "ym2612"
    },
    {
      "channel": 4,
      "note": 87,
      "start": 30.932,
      "duration": 0.0642,
      "velocity": 80,
      "chip": "ym2612"
    },
    {
      "channel": 0,
      "note": 89,
      "start": 30.9935,
      "duration": 0.0507,
      "velocity": 80,
      "chip": "ym2612"
    },
    {
      "channel": 3,
      "note": 67,
      "start": 30.9958,
      "duration": 0.0512,
      "velocity": 107,
      "chip": "ym2612"
    },
    {
      "channel": 4,
      "note": 89,
      "start": 30.9963,
      "duration": 0.0512,
      "velocity": 80,
      "chip": "ym2612"
    },
    {
      "channel": 0,
      "note": 87,
      "start": 31.0444,
      "duration": 0.0631,
      "velocity": 80,
      "chip": "ym2612"
    },
    {
      "channel": 1,
      "note": 39,
      "start": 31.0449,
      "duration": 0.1285,
      "velocity": 93,
      "chip": "ym2612"
    },
    {
      "channel": 3,
      "note": 67,
      "start": 31.0471,
      "duration": 0.1286,
      "velocity": 107,
      "chip": "ym2612"
    },
    {
      "channel": 4,
      "note": 87,
      "start": 31.0477,
      "duration": 0.0605,
      "velocity": 80,
      "chip": "ym2612"
    },
    {
      "channel": 0,
      "note": 89,
      "start": 31.1077,
      "duration": 0.8893,
      "velocity": 80,
      "chip": "ym2612"
    },
    {
      "channel": 4,
      "note": 89,
      "start": 31.1084,
      "duration": 0.0678,
      "velocity": 80,
      "chip": "ym2612"
    },
    {
      "channel": 1,
      "note": 51,
      "start": 31.1737,
      "duration": 0.1317,
      "velocity": 93,
      "chip": "ym2612"
    },
    {
      "channel": 3,
      "note": 67,
      "start": 31.1759,
      "duration": 0.1317,
      "velocity": 107,
      "chip": "ym2612"
    },
    {
      "channel": 4,
      "note": 87,
      "start": 31.1764,
      "duration": 0.0611,
      "velocity": 80,
      "chip": "ym2612"
    },
    {
      "channel": 4,
      "note": 89,
      "start": 31.2376,
      "duration": 0.8759,
      "velocity": 80,
      "chip": "ym2612"
    },
    {
      "channel": 1,
      "note": 49,
      "start": 31.3056,
      "duration": 0.1499,
      "velocity": 93,
      "chip": "ym2612"
    },
    {
      "channel": 3,
      "note": 67,
      "start": 31.3078,
      "duration": 0.0676,
      "velocity": 107,
      "chip": "ym2612"
    },
    {
      "channel": 3,
      "note": 67,
      "start": 31.3755,
      "duration": 0.0821,
      "velocity": 107,
      "chip": "ym2612"
    },
    {
      "channel": 1,
      "note": 46,
      "start": 31.4556,
      "duration": 0.1306,
      "velocity": 93,
      "chip": "ym2612"
    },
    {
      "channel": 3,
      "note": 67,
      "start": 31.4578,
      "duration": 0.1307,
      "velocity": 107,
      "chip": "ym2612"
    },
    {
      "channel": 1,
      "note": 41,
      "start": 31.5864,
      "duration": 0.2795,
      "velocity": 93,
      "chip": "ym2612"
    },
    {
      "channel": 3,
      "note": 67,
      "start": 31.5886,
      "duration": 0.1123,
      "velocity": 107,
      "chip": "ym2612"
    },
    {
      "channel": 3,
      "note": 67,
      "start": 31.7011,
      "duration": 0.0831,
      "velocity": 107,
      "chip": "ym2612"
    },
    {
      "channel": 3,
      "note": 67,
      "start": 31.7844,
      "duration": 0.0837,
      "velocity": 107,
      "chip": "ym2612"
    },
    {
      "channel": 1,
      "note": 41,
      "start": 31.8661,
      "duration": 0.1314,
      "velocity": 93,
      "chip": "ym2612"
    },
    {
      "channel": 3,
      "note": 67,
      "start": 31.8683,
      "duration": 0.1315,
      "velocity": 107,
      "chip": "ym2612"
    },
    {
      "channel": 0,
      "note": 94,
      "start": 31.9971,
      "duration": 0.1131,
      "velocity": 80,
      "chip": "ym2612"
    },
    {
      "channel": 1,
      "note": 53,
      "start": 31.9977,
      "duration": 0.113,
      "velocity": 93,
      "chip": "ym2612"
    },
    {
      "channel": 3,
      "note": 67,
      "start": 31.9999,
      "duration": 0.113,
      "velocity": 107,
      "chip": "ym2612"
    },
    {
      "channel": 0,
      "note": 93,
      "start": 32.1103,
      "duration": 0.1666,
      "velocity": 80,
      "chip": "ym2612"
    },
    {
      "channel": 1,
      "note": 51,
      "start": 32.1109,
      "duration": 0.1666,
      "velocity": 93,
      "chip": "ym2612"
    },
    {
      "channel": 3,
      "note": 67,
      "start": 32.1132,
      "duration": 0.0821,
      "velocity": 107,
      "chip": "ym2612"
    },
    {
      "channel": 4,
      "note": 94,
      "start": 32.1137,
      "duration": 0.1665,
      "velocity": 80,
      "chip": "ym2612"
    },
    {
      "channel": 3,
      "note": 67,
      "start": 32.1955,
      "duration": 0.0841,
      "velocity": 107,
      "chip": "ym2612"
    },
    {
      "channel": 0,
      "note": 87,
      "start": 32.2771,
      "duration": 0.0636,
      "velocity": 80,
      "chip": "ym2612"
    },
    {
      "channel": 1,
      "note": 53,
      "start": 32.2776,
      "duration": 0.113,
      "velocity": 93,
      "chip": "ym2612"
    },
    {
      "channel": 3,
      "note": 67,
      "start": 32.2798,
      "duration": 0.1135,
      "velocity": 107,
      "chip": "ym2612"
    },
    {
      "channel": 4,
      "note": 93,
      "start": 32.2804,
      "duration": 0.1135,
      "velocity": 80,
      "chip": "ym2612"
    },
    {
      "channel": 0,
      "note": 87,
      "start": 32.3407,
      "duration": 0.0117,
      "velocity": 80,
      "chip": "ym2612"
    },
    {
      "channel": 0,
      "note": 88,
      "start": 32.3524,
      "duration": 0.0123,
      "velocity": 80,
      "chip": "ym2612"
    },
    {
      "channel": 0,
      "note": 88,
      "start": 32.3648,
      "duration": 0.0124,
      "velocity": 80,
      "chip": "ym2612"
    },
    {
      "channel": 0,
      "note": 89,
      "start": 32.3772,
      "duration": 0.0129,
      "velocity": 80,
      "chip": "ym2612"
    },
    {
      "channel": 0,
      "note": 89,
      "start": 32.3903,
      "duration": 0.3745,
      "velocity": 80,
      "chip": "ym2612"
    },
    {
      "channel": 1,
      "note": 42,
      "start": 32.3909,
      "duration": 0.2575,
      "velocity": 93,
      "chip": "ym2612"
    },
    {
      "channel": 2,
      "note": 54,
      "start": 32.3914,
      "duration": 0.7518,
      "velocity": 124,
      "chip": "ym2612"
    },
    {
      "channel": 3,
      "note": 67,
      "start": 32.3935,
      "duration": 0.1288,
      "velocity": 107,
      "chip": "ym2612"
    },
    {
      "channel": 4,
      "note": 87,
      "start": 32.3941,
      "duration": 0.0603,
      "velocity": 80,
      "chip": "ym2612"
    },
    {
      "channel": 4,
      "note": 87,
      "start": 32.4544,
      "duration": 0.0118,
      "velocity": 80,
      "chip": "ym2612"
    },
    {
      "channel": 4,
      "note": 88,
      "start": 32.4663,
      "duration": 0.0253,
      "velocity": 80,
      "chip": "ym2612"
    },
    {
      "channel": 4,
      "note": 88,
      "start": 32.4916,
      "duration": 0.0128,
      "velocity": 80,
      "chip": "ym2612"
    },
    {
      "channel": 4,
      "note": 89,
      "start": 32.5043,
      "duration": 0.0186,
      "velocity": 80,
      "chip": "ym2612"
    },
    {
      "channel": 3,
      "note": 67,
      "start": 32.5225,
      "duration": 0.0639,
      "velocity": 107,
      "chip": "ym2612"
    },
    {
      "channel": 4,
      "note": 89,
      "start": 32.5231,
      "duration": 0.3742,
      "velocity": 80,
      "chip": "ym2612"
    },
    {
      "channel": 3,
      "note": 67,
      "start": 32.5867,
      "duration": 0.0639,
      "velocity": 107,
      "chip": "ym2612"
    },
    {
      "channel": 1,
      "note": 42,
      "start": 32.6485,
      "duration": 0.1132,
      "velocity": 93,
      "chip": "ym2612"
    },
    {
      "channel": 3,
      "note": 67,
      "start": 32.6507,
      "duration": 0.1132,
      "velocity": 107,
      "chip": "ym2612"
    },
    {
      "channel": 1,
      "note": 54,
      "start": 32.7619,
      "duration": 0.1319,
      "velocity": 93,
      "chip": "ym2612"
    },
    {
      "channel": 3,
      "note": 67,
      "start": 32.7641,
      "duration": 0.1319,
      "velocity": 107,
      "chip": "ym2612"
    },
    {
      "channel": 0,
      "note": 89,
      "start": 32.7648,
      "duration": 0.0096,
      "velocity": 80,
      "chip": "ym2612"
    },
    {
      "channel": 0,
      "note": 89,
      "start": 32.7744,
      "duration": 0.025,
      "velocity": 80,
      "chip": "ym2612"
    },
    {
      "channel": 0,
      "note": 89,
      "start": 32.7994,
      "duration": 0.0126,
      "velocity": 80,
      "chip": "ym2612"
    },
    {
      "channel": 0,
      "note": 88,
      "start": 32.812,
      "duration": 0.0252,
      "velocity": 80,
      "chip": "ym2612"
    },
    {
      "channel": 0,
      "note": 88,
      "start": 32.8372,
      "duration": 0.0125,
      "velocity": 80,
      "chip": "ym2612"
    },
    {
      "channel": 0,
      "note": 88,
      "start": 32.8497,
      "duration": 0.0269,
      "velocity": 80,
      "chip": "ym2612"
    },
    {
      "channel": 0,
      "note": 88,
      "start": 32.8766,
      "duration": 0.0204,
      "velocity": 80,
      "chip": "ym2612"
    },
    {
      "channel": 1,
      "note": 52,
      "start": 32.8939,
      "duration": 0.1144,
      "velocity": 93,
      "chip": "ym2612"
    },
    {
      "channel": 3,
      "note": 67,
      "start": 32.8961,
      "duration": 0.0629,
      "velocity": 107,
      "chip": "ym2612"
    },
    {
      "channel": 0,
      "note": 88,
      "start": 32.897,
      "duration": 0.0098,
      "velocity": 80,
      "chip": "ym2612"
    },
    {
      "channel": 4,
      "note": 89,
      "start": 32.8973,
      "duration": 0.0099,
      "velocity": 80,
      "chip": "ym2612"
    },
    {
      "channel": 0,
      "note": 88,
      "start": 32.9068,
      "duration": 0.0124,
      "velocity": 80,
      "chip": "ym2612"
    },
    {
      "channel": 4,
      "note": 89,
      "start": 32.9073,
      "duration": 0.0124,
      "velocity": 80,
      "chip": "ym2612"
    },
    {
      "channel": 0,
      "note": 88,
      "start": 32.9192,
      "duration": 0.0124,
      "velocity": 80,
      "chip": "ym2612"
    },
    {
      "channel": 4,
      "note": 89,
      "start": 32.9197,
      "duration": 0.0124,
      "velocity": 80,
      "chip": "ym2612"
    },
    {
      "channel": 0,
      "note": 87,
      "start": 32.9317,
      "duration": 0.0279,
      "velocity": 80,
      "chip": "ym2612"
    },
    {
      "channel": 4,
      "note": 88,
      "start": 32.9321,
      "duration": 0.0279,
      "velocity": 80,
      "chip": "ym2612"
    },
    {
      "channel": 3,
      "note": 67,
      "start": 32.9592,
      "duration": 0.0512,
      "velocity": 107,
      "chip": "ym2612"
    },
    {
      "channel": 0,
      "note": 87,
      "start": 32.9596,
      "duration": 0.0104,
      "velocity": 80,
      "chip": "ym2612"
    },
    {
      "channel": 4,
      "note": 88,
      "start": 32.9601,
      "duration": 0.0103,
      "velocity": 80,
      "chip": "ym2612"
    },
    {
      "channel": 0,
      "note": 87,
      "start": 32.97,
      "duration": 0.0125,
      "velocity": 80,
      "chip": "ym2612"
    },
    {
      "channel": 4,
      "note": 88,
      "start": 32.9704,
      "duration": 0.0125,
      "velocity": 80,
      "chip": "ym2612"
    },
    {
      "channel": 0,
      "note": 87,
      "start": 32.9825,
      "duration": 0.0124,
      "velocity": 80,
      "chip": "ym2612"
    },
    {
      "channel": 4,
      "note": 88,
      "start": 32.9829,
      "duration": 0.0124,
      "velocity": 80,
      "chip": "ym2612"
    },
    {
      "channel": 0,
      "note": 87,
      "start": 32.9949,
      "duration": 0.0165,
      "velocity": 80,
      "chip": "ym2612"
    },
    {
      "channel": 4,
      "note": 88,
      "start": 32.9953,
      "duration": 0.0165,
      "velocity": 80,
      "chip": "ym2612"
    },
    {
      "channel": 1,
      "note": 49,
      "start": 33.0085,
      "duration": 0.1325,
      "velocity": 93,
      "chip": "ym2612"
    },
    {
      "channel": 3,
      "note": 67,
      "start": 33.0106,
      "duration": 0.1346,
      "velocity": 107,
      "chip": "ym2612"
    },
    {
      "channel": 0,
      "note": 87,
      "start": 33.0114,
      "duration": 0.0222,
      "velocity": 80,
      "chip": "ym2612"
    },
    {
      "channel": 4,
      "note": 88,
      "start": 33.0118,
      "duration": 0.0223,
      "velocity": 80,
      "chip": "ym2612"
    },
    {
      "channel": 0,
      "note": 87,
      "start": 33.0336,
      "duration": 0.0124,
      "velocity": 80,
      "chip": "ym2612"
    },
    {
      "channel": 4,
      "note": 88,
      "start": 33.0341,
      "duration": 0.0124,
      "velocity": 80,
      "chip": "ym2612"
    },
    {
      "channel": 0,
      "note": 86,
      "start": 33.0461,
      "duration": 0.0127,
      "velocity": 80,
      "chip": "ym2612"
    },
    {
      "channel": 4,
      "note": 87,
      "start": 33.0465,
      "duration": 0.0126,
      "velocity": 80,
      "chip": "ym2612"
    },
    {
      "channel": 0,
      "note": 86,
      "start": 33.0587,
      "duration": 0.0134,
      "velocity": 80,
      "chip": "ym2612"
    },
    {
      "channel": 4,
      "note": 87,
      "start": 33.0591,
      "duration": 0.0135,
      "velocity": 80,
      "chip": "ym2612"
    },
    {
      "channel": 0,
      "note": 86,
      "start": 33.0721,
      "duration": 0.012,
      "velocity": 80,
      "chip": "ym2612"
    },
    {
      "channel": 4,
      "note": 87,
      "start": 33.0726,
      "duration": 0.012,
      "velocity": 80,
      "chip": "ym2612"
    },
    {
      "channel": 0,
      "note": 86,
      "start": 33.0841,
      "duration": 0.0253,
      "velocity": 80,
      "chip": "ym2612"
    },
    {
      "channel": 4,
      "note": 87,
      "start": 33.0846,
      "duration": 0.0252,
      "velocity": 80,
      "chip": "ym2612"
    },
    {
      "channel": 0,
      "note": 86,
      "start": 33.1094,
      "duration": 0.0137,
      "velocity": 80,
      "chip": "ym2612"
    },
    {
      "channel": 4,
      "note": 87,
      "start": 33.1098,
      "duration": 0.0138,
      "velocity": 80,
      "chip": "ym2612"
    },
    {
      "channel": 0,
      "note": 86,
      "start": 33.1232,
      "duration": 0.0172,
      "velocity": 80,
      "chip": "ym2612"
    },
    {
      "channel": 4,
      "note": 87,
      "start": 33.1236,
      "duration": 0.0227,
      "velocity": 80,
      "chip": "ym2612"
    },
    {
      "channel": 0,
      "note": 77,
      "start": 33.1405,
      "duration": 0.1304,
      "velocity": 80,
      "chip": "ym2612"
    },
    {
      "channel": 1,
      "note": 41,
      "start": 33.1412,
      "duration": 0.2804,
      "velocity": 93,
      "chip": "ym2612"
    },
    {
      "channel": 2,
      "note": 65,
      "start": 33.1433,
      "duration": 0.8203,
      "velocity": 124,
      "chip": "ym2612"
    },
    {
      "channel": 3,
      "note": 67,
      "start": 33.1454,
      "duration": 0.1278,
      "velocity": 107,
      "chip": "ym2612"
    },
    {
      "channel": 4,
      "note": 87,
      "start": 33.1463,
      "duration": 0.0078,
      "velocity": 80,
      "chip": "ym2612"
    },
    {
      "channel": 4,
      "note": 86,
      "start": 33.1541,
      "duration": 0.0127,
      "velocity": 80,
      "chip": "ym2612"
    },
    {
      "channel": 4,
      "note": 86,
      "start": 33.1669,
      "duration": 0.0253,
      "velocity": 80,
      "chip": "ym2612"
    },
    {
      "channel": 4,
      "note": 86,
      "start": 33.1921,
      "duration": 0.0251,
      "velocity": 80,
      "chip": "ym2612"
    },
    {
      "channel": 4,
      "note": 86,
      "start": 33.2172,
      "duration": 0.0123,
      "velocity": 80,
      "chip": "ym2612"
    },
    {
      "channel": 4,
      "note": 86,
      "start": 33.2296,
      "duration": 0.0127,
      "velocity": 80,
      "chip": "ym2612"
    },
    {
      "channel": 4,
      "note": 86,
      "start": 33.2423,
      "duration": 0.0315,
      "velocity": 80,
      "chip": "ym2612"
    },
    {
      "channel": 0,
      "note": 72,
      "start": 33.2711,
      "duration": 0.1499,
      "velocity": 80,
      "chip": "ym2612"
    },
    {
      "channel": 3,
      "note": 67,
      "start": 33.2733,
      "duration": 0.066,
      "velocity": 107,
      "chip": "ym2612"
    },
    {
      "channel": 4,
      "note": 77,
      "start": 33.2739,
      "duration": 0.1503,
      "velocity": 80,
      "chip": "ym2612"
    },
    {
      "channel": 3,
      "note": 67,
      "start": 33.3395,
      "duration": 0.0841,
      "velocity": 107,
      "chip": "ym2612"
    },
    {
      "channel": 0,
      "note": 77,
      "start": 33.4212,
      "duration": 0.1296,
      "velocity": 80,
      "chip": "ym2612"
    },
    {
      "channel": 1,
      "note": 41,
      "start": 33.4217,
      "duration": 0.1296,
      "velocity": 93,
      "chip": "ym2612"
    },
    {
      "channel": 3,
      "note": 67,
      "start": 33.4239,
      "duration": 0.1296,
      "velocity": 107,
      "chip": "ym2612"
    },
    {
      "channel": 4,
      "note": 72,
      "start": 33.4245,
      "duration": 0.1296,
      "velocity": 80,
      "chip": "ym2612"
    },
    {
      "channel": 0,
      "note": 82,
      "start": 33.551,
      "duration": 0.115,
      "velocity": 80,
      "chip": "ym2612"
    },
    {
      "channel": 1,
      "note": 53,
      "start": 33.5515,
      "duration": 0.1149,
      "velocity": 93,
      "chip": "ym2612"
    },
    {
      "channel": 3,
      "note": 67,
      "start": 33.5537,
      "duration": 0.1149,
      "velocity": 107,
      "chip": "ym2612"
    },
    {
      "channel": 4,
      "note": 77,
      "start": 33.5543,
      "duration": 0.1149,
      "velocity": 80,
      "chip": "ym2612"
    },
    {
      "channel": 0,
      "note": 84,
      "start": 33.6661,
      "duration": 0.1666,
      "velocity": 80,
      "chip": "ym2612"
    },
    {
      "channel": 1,
      "note": 51,
      "start": 33.6666,
      "duration": 0.1666,
      "velocity": 93,
      "chip": "ym2612"
    },
    {
      "channel": 3,
      "note": 67,
      "start": 33.6689,
      "duration": 0.0821,
      "velocity": 107,
      "chip": "ym2612"
    },
    {
      "channel": 4,
      "note": 82,
      "start": 33.6694,
      "duration": 0.1665,
      "velocity": 80,
      "chip": "ym2612"
    },
    {
      "channel": 3,
      "note": 67,
      "start": 33.7512,
      "duration": 0.0841,
      "velocity": 107,
      "chip": "ym2612"
    },
    {
      "channel": 0,
      "note": 87,
      "start": 33.8328,
      "duration": 0.0635,
      "velocity": 80,
      "chip": "ym2612"
    },
    {
      "channel": 1,
      "note": 53,
      "start": 33.8334,
      "duration": 0.1298,
      "velocity": 93,
      "chip": "ym2612"
    },
    {
      "channel": 3,
      "note": 67,
      "start": 33.8355,
      "duration": 0.1303,
      "velocity": 107,
      "chip": "ym2612"
    },
    {
      "channel": 4,
      "note": 84,
      "start": 33.8361,
      "duration": 0.1302,
      "velocity": 80,
      "chip": "ym2612"
    },
    {
      "channel": 0,
      "note": 89,
      "start": 33.8965,
      "duration": 0.0661,
      "velocity": 80,
      "chip": "ym2612"
    },
    {
      "channel": 0,
      "note": 87,
      "start": 33.9627,
      "duration": 0.0506,
      "velocity": 80,
      "chip": "ym2612"
    },
    {
      "channel": 1,
      "note": 39,
      "start": 33.9633,
      "duration": 0.2398,
      "velocity": 93,
      "chip": "ym2612"
    },
    {
      "channel": 2,
      "note": 63,
      "start": 33.9639,
      "duration": 0.7648,
      "velocity": 124,
      "chip": "ym2612"
    },
    {
      "channel": 3,
      "note": 67,
      "start": 33.966,
      "duration": 0.1126,
      "velocity": 107,
      "chip": "ym2612"
    },
    {
      "channel": 4,
      "note": 87,
      "start": 33.9665,
      "duration": 0.0476,
      "velocity": 80,
      "chip": "ym2612"
    },
    {
      "channel": 0,
      "note": 89,
      "start": 34.0135,
      "duration": 0.0628,
      "velocity": 80,
      "chip": "ym2612"
    },
    {
      "channel": 4,
      "note": 89,
      "start": 34.0143,
      "duration": 0.0649,
      "velocity": 80,
      "chip": "ym2612"
    },
    {
      "channel": 0,
      "note": 87,
      "start": 34.0765,
      "duration": 0.063,
      "velocity": 80,
      "chip": "ym2612"
    },
    {
      "channel": 3,
      "note": 67,
      "start": 34.0788,
      "duration": 0.063,
      "velocity": 107,
      "chip": "ym2612"
    },
    {
      "channel": 4,
      "note": 87,
      "start": 34.0793,
      "duration": 0.063,
      "velocity": 80,
      "chip": "ym2612"
    },
    {
      "channel": 0,
      "note": 89,
      "start": 34.1397,
      "duration": 0.0629,
      "velocity": 80,
      "chip": "ym2612"
    },
    {
      "channel": 3,
      "note": 67,
      "start": 34.1419,
      "duration": 0.0634,
      "velocity": 107,
      "chip": "ym2612"
    },
    {
      "channel": 4,
      "note": 89,
      "start": 34.1425,
      "duration": 0.0634,
      "velocity": 80,
      "chip": "ym2612"
    },
    {
      "channel": 0,
      "note": 87,
      "start": 34.2027,
      "duration": 0.0626,
      "velocity": 80,
      "chip": "ym2612"
    },
    {
      "channel": 1,
      "note": 39,
      "start": 34.2033,
      "duration": 0.1126,
      "velocity": 93,
      "chip": "ym2612"
    },
    {
      "channel": 3,
      "note": 67,
      "start": 34.2055,
      "duration": 0.1126,
      "velocity": 107,
      "chip": "ym2612"
    },
    {
      "channel": 4,
      "note": 87,
      "start": 34.2061,
      "duration": 0.06,
      "velocity": 80,
      "chip": "ym2612"
    },
    {
      "channel": 0,
      "note": 89,
      "start": 34.2655,
      "duration": 0.8746,
      "velocity": 80,
      "chip": "ym2612"
    },
    {
      "channel": 4,
      "note": 89,
      "start": 34.2663,
      "duration": 0.0524,
      "velocity": 80,
      "chip": "ym2612"
    },
    {
      "channel": 1,
      "note": 51,
      "start": 34.3161,
      "duration": 0.1316,
      "velocity": 93,
      "chip": "ym2612"
    },
    {
      "channel": 3,
      "note": 67,
      "start": 34.3183,
      "duration": 0.1316,
      "velocity": 107,
      "chip": "ym2612"
    },
    {
      "channel": 4,
      "note": 87,
      "start": 34.3188,
      "duration": 0.0604,
      "velocity": 80,
      "chip": "ym2612"
    },
    {
      "channel": 4,
      "note": 89,
      "start": 34.3794,
      "duration": 0.8944,
      "velocity": 80,
      "chip": "ym2612"
    },
    {
      "channel": 1,
      "note": 49,
      "start": 34.4478,
      "duration": 0.1665,
      "velocity": 93,
      "chip": "ym2612"
    },
    {
      "channel": 3,
      "note": 67,
      "start": 34.45,
      "duration": 0.0842,
      "velocity": 107,
      "chip": "ym2612"
    },
    {
      "channel": 3,
      "note": 67,
      "start": 34.5344,
      "duration": 0.0821,
      "velocity": 107,
      "chip": "ym2612"
    },
    {
      "channel": 1,
      "note": 46,
      "start": 34.6145,
      "duration": 0.1136,
      "velocity": 93,
      "chip": "ym2612"
    },
    {
      "channel": 3,
      "note": 67,
      "start": 34.6167,
      "duration": 0.1141,
      "velocity": 107,
      "chip": "ym2612"
    },
    {
      "channel": 1,
      "note": 41,
      "start": 34.7283,
      "duration": 0.2805,
      "velocity": 93,
      "chip": "ym2612"
    },
    {
      "channel": 2,
      "note": 65,
      "start": 34.7288,
      "duration": 0.8233,
      "velocity": 124,
      "chip": "ym2612"
    },
    {
      "channel": 3,
      "note": 67,
      "start": 34.731,
      "duration": 0.1295,
      "velocity": 107,
      "chip": "ym2612"
    },
    {
      "channel": 3,
      "note": 67,
      "start": 34.8607,
      "duration": 0.0831,
      "velocity": 107,
      "chip": "ym2612"
    },
    {
      "channel": 3,
      "note": 67,
      "start": 34.944,
      "duration": 0.0671,
      "velocity": 107,
      "chip": "ym2612"
    },
    {
      "channel": 1,
      "note": 41,
      "start": 35.009,
      "duration": 0.1317,
      "velocity": 93,
      "chip": "ym2612"
    },
    {
      "channel": 3,
      "note": 67,
      "start": 35.0112,
      "duration": 0.1317,
      "velocity": 107,
      "chip": "ym2612"
    },
    {
      "channel": 0,
      "note": 94,
      "start": 35.1403,
      "duration": 0.1301,
      "velocity": 80,
      "chip": "ym2612"
    },
    {
      "channel": 1,
      "note": 53,
      "start": 35.1409,
      "duration": 0.1302,
      "velocity": 93,
      "chip": "ym2612"
    },
    {
      "channel": 3,
      "note": 67,
      "start": 35.1431,
      "duration": 0.1301,
      "velocity": 107,
      "chip": "ym2612"
    },
    {
      "channel": 0,
      "note": 93,
      "start": 35.2706,
      "duration": 0.1498,
      "velocity": 80,
      "chip": "ym2612"
    },
    {
      "channel": 1,
      "note": 51,
      "start": 35.2711,
      "duration": 0.1499,
      "velocity": 93,
      "chip": "ym2612"
    },
    {
      "channel": 3,
      "note": 67,
      "start": 35.2734,
      "duration": 0.0654,
      "velocity": 107,
      "chip": "ym2612"
    },
    {
      "channel": 4,
      "note": 94,
      "start": 35.2739,
      "duration": 0.1498,
      "velocity": 80,
      "chip": "ym2612"
    },
    {
      "channel": 3,
      "note": 67,
      "start": 35.339,
      "duration": 0.0841,
      "velocity": 107,
      "chip": "ym2612"
    },
    {
      "channel": 0,
      "note": 87,
      "start": 35.4206,
      "duration": 0.0644,
      "velocity": 80,
      "chip": "ym2612"
    },
    {
      "channel": 1,
      "note": 53,
      "start": 35.4212,
      "duration": 0.1303,
      "velocity": 93,
      "chip": "ym2612"
    },
    {
      "channel": 3,
      "note": 67,
      "start": 35.4234,
      "duration": 0.1308,
      "velocity": 107,
      "chip": "ym2612"
    },
    {
      "channel": 4,
      "note": 93,
      "start": 35.4239,
      "duration": 0.1308,
      "velocity": 80,
      "chip": "ym2612"
    },
    {
      "channel": 0,
      "note": 87,
      "start": 35.485,
      "duration": 0.0117,
      "velocity": 80,
      "chip": "ym2612"
    },
    {
      "channel": 0,
      "note": 88,
      "start": 35.4967,
      "duration": 0.0124,
      "velocity": 80,
      "chip": "ym2612"
    },
    {
      "channel": 0,
      "note": 88,
      "start": 35.5092,
      "duration": 0.0251,
      "velocity": 80,
      "chip": "ym2612"
    },
    {
      "channel": 0,
      "note": 89,
      "start": 35.5343,
      "duration": 0.0167,
      "velocity": 80,
      "chip": "ym2612"
    },
    {
      "channel": 0,
      "note": 89,
      "start": 35.5511,
      "duration": 0.3744,
      "velocity": 80,
      "chip": "ym2612"
    },
    {
      "channel": 1,
      "note": 42,
      "start": 35.5517,
      "duration": 0.2413,
      "velocity": 93,
      "chip": "ym2612"
    },
    {
      "channel": 2,
      "note": 66,
      "start": 35.5523,
      "duration": 3.9065,
      "velocity": 124,
      "chip": "ym2612"
    },
    {
      "channel": 3,
      "note": 67,
      "start": 35.5544,
      "duration": 0.1134,
      "velocity": 107,
      "chip": "ym2612"
    },
    {
      "channel": 4,
      "note": 87,
      "start": 35.5549,
      "duration": 0.0607,
      "velocity": 80,
      "chip": "ym2612"
    },
    {
      "channel": 4,
      "note": 87,
      "start": 35.6157,
      "duration": 0.012,
      "velocity": 80,
      "chip": "ym2612"
    },
    {
      "channel": 4,
      "note": 88,
      "start": 35.6276,
      "duration": 0.0128,
      "velocity": 80,
      "chip": "ym2612"
    },
    {
      "channel": 4,
      "note": 88,
      "start": 35.6404,
      "duration": 0.0125,
      "velocity": 80,
      "chip": "ym2612"
    },
    {
      "channel": 4,
      "note": 89,
      "start": 35.6529,
      "duration": 0.0154,
      "velocity": 80,
      "chip": "ym2612"
    },
    {
      "channel": 3,
      "note": 67,
      "start": 35.6679,
      "duration": 0.0634,
      "velocity": 107,
      "chip": "ym2612"
    },
    {
      "channel": 4,
      "note": 89,
      "start": 35.6685,
      "duration": 0.3722,
      "velocity": 80,
      "chip": "ym2612"
    },
    {
      "channel": 3,
      "note": 67,
      "start": 35.7316,
      "duration": 0.0637,
      "velocity": 107,
      "chip": "ym2612"
    },
    {
      "channel": 1,
      "note": 42,
      "start": 35.7932,
      "duration": 0.1292,
      "velocity": 93,
      "chip": "ym2612"
    },
    {
      "channel": 3,
      "note": 67,
      "start": 35.7954,
      "duration": 0.1292,
      "velocity": 107,
      "chip": "ym2612"
    },
    {
      "channel": 1,
      "note": 54,
      "start": 35.9226,
      "duration": 0.1146,
      "velocity": 93,
      "chip": "ym2612"
    },
    {
      "channel": 3,
      "note": 67,
      "start": 35.9248,
      "duration": 0.1145,
      "velocity": 107,
      "chip": "ym2612"
    },
    {
      "channel": 0,
      "note": 89,
      "start": 35.9255,
      "duration": 0.0096,
      "velocity": 80,
      "chip": "ym2612"
    },
    {
      "channel": 0,
      "note": 89,
      "start": 35.9351,
      "duration": 0.0123,
      "velocity": 80,
      "chip": "ym2612"
    },
    {
      "channel": 0,
      "note": 89,
      "start": 35.9475,
      "duration": 0.0124,
      "velocity": 80,
      "chip": "ym2612"
    },
    {
      "channel": 0,
      "note": 88,
      "start": 35.9599,
      "duration": 0.0379,
      "velocity": 80,
      "chip": "ym2612"
    },
    {
      "channel": 0,
      "note": 88,
      "start": 35.9978,
      "duration": 0.0123,
      "velocity": 80,
      "chip": "ym2612"
    },
    {
      "channel": 0,
      "note": 88,
      "start": 36.0101,
      "duration": 0.0122,
      "velocity": 80,
      "chip": "ym2612"
    },
    {
      "channel": 0,
      "note": 88,
      "start": 36.0223,
      "duration": 0.018,
      "velocity": 80,
      "chip": "ym2612"
    },
    {
      "channel": 1,
      "note": 52,
      "start": 36.0373,
      "duration": 0.132,
      "velocity": 93,
      "chip": "ym2612"
    },
    {
      "channel": 3,
      "note": 67,
      "start": 36.0395,
      "duration": 0.0634,
      "velocity": 107,
      "chip": "ym2612"
    },
    {
      "channel": 0,
      "note": 88,
      "start": 36.0403,
      "duration": 0.0099,
      "velocity": 80,
      "chip": "ym2612"
    },
    {
      "channel": 4,
      "note": 89,
      "start": 36.0407,
      "duration": 0.01,
      "velocity": 80,
      "chip": "ym2612"
    },
    {
      "channel": 0,
      "note": 88,
      "start": 36.0502,
      "duration": 0.025,
      "velocity": 80,
      "chip": "ym2612"
    },
    {
      "channel": 4,
      "note": 89,
      "start": 36.0507,
      "duration": 0.025,
      "velocity": 80,
      "chip": "ym2612"
    },
    {
      "channel": 0,
      "note": 88,
      "start": 36.0753,
      "duration": 0.0128,
      "velocity": 80,
      "chip": "ym2612"
    },
    {
      "channel": 4,
      "note": 89,
      "start": 36.0756,
      "duration": 0.0129,
      "velocity": 80,
      "chip": "ym2612"
    },
    {
      "channel": 0,
      "note": 87,
      "start": 36.0881,
      "duration": 0.0154,
      "velocity": 80,
      "chip": "ym2612"
    },
    {
      "channel": 4,
      "note": 88,
      "start": 36.0885,
      "duration": 0.0154,
      "velocity": 80,
      "chip": "ym2612"
    },
    {
      "channel": 3,
      "note": 67,
      "start": 36.1031,
      "duration": 0.0684,
      "velocity": 107,
      "chip": "ym2612"
    },
    {
      "channel": 0,
      "note": 87,
      "start": 36.1035,
      "duration": 0.0106,
      "velocity": 80,
      "chip": "ym2612"
    },
    {
      "channel": 4,
      "note": 88,
      "start": 36.1039,
      "duration": 0.0105,
      "velocity": 80,
      "chip": "ym2612"
    },
    {
      "channel": 0,
      "note": 87,
      "start": 36.1141,
      "duration": 0.0124,
      "velocity": 80,
      "chip": "ym2612"
    },
    {
      "channel": 4,
      "note": 88,
      "start": 36.1144,
      "duration": 0.0124,
      "velocity": 80,
      "chip": "ym2612"
    },
    {
      "channel": 0,
      "note": 87,
      "start": 36.1265,
      "duration": 0.0256,
      "velocity": 80,
      "chip": "ym2612"
    },
    {
      "channel": 4,
      "note": 88,
      "start": 36.1269,
      "duration": 0.0257,
      "velocity": 80,
      "chip": "ym2612"
    },
    {
      "channel": 0,
      "note": 87,
      "start": 36.1522,
      "duration": 0.0202,
      "velocity": 80,
      "chip": "ym2612"
    },
    {
      "channel": 4,
      "note": 88,
      "start": 36.1526,
      "duration": 0.0202,
      "velocity": 80,
      "chip": "ym2612"
    },
    {
      "channel": 1,
      "note": 49,
      "start": 36.1695,
      "duration": 0.1194,
      "velocity": 112,
      "chip": "ym2612"
    },
    {
      "channel": 3,
      "note": 67,
      "start": 36.1717,
      "duration": 0.1193,
      "velocity": 107,
      "chip": "ym2612"
    },
    {
      "channel": 0,
      "note": 87,
      "start": 36.1724,
      "duration": 0.0101,
      "velocity": 80,
      "chip": "ym2612"
    },
    {
      "channel": 4,
      "note": 88,
      "start": 36.1728,
      "duration": 0.0101,
      "velocity": 80,
      "chip": "ym2612"
    },
    {
      "channel": 0,
      "note": 87,
      "start": 36.1825,
      "duration": 0.0127,
      "velocity": 80,
      "chip": "ym2612"
    },
    {
      "channel": 4,
      "note": 88,
      "start": 36.183,
      "duration": 0.0126,
      "velocity": 80,
      "chip": "ym2612"
    },
    {
      "channel": 0,
      "note": 86,
      "start": 36.1952,
      "duration": 0.0127,
      "velocity": 80,
      "chip": "ym2612"
    },
    {
      "channel": 4,
      "note": 87,
      "start": 36.1956,
      "duration": 0.0127,
      "velocity": 80,
      "chip": "ym2612"
    },
    {
      "channel": 0,
      "note": 86,
      "start": 36.2078,
      "duration": 0.026,
      "velocity": 80,
      "chip": "ym2612"
    },
    {
      "channel": 4,
      "note": 87,
      "start": 36.2083,
      "duration": 0.0259,
      "velocity": 80,
      "chip": "ym2612"
    },
    {
      "channel": 0,
      "note": 86,
      "start": 36.2338,
      "duration": 0.012,
      "velocity": 80,
      "chip": "ym2612"
    },
    {
      "channel": 4,
      "note": 87,
      "start": 36.2342,
      "duration": 0.012,
      "velocity": 80,
      "chip": "ym2612"
    },
    {
      "channel": 0,
      "note": 86,
      "start": 36.2458,
      "duration": 0.0127,
      "velocity": 80,
      "chip": "ym2612"
    },
    {
      "channel": 4,
      "note": 87,
      "start": 36.2462,
      "duration": 0.0127,
      "velocity": 80,
      "chip": "ym2612"
    },
    {
      "channel": 0,
      "note": 86,
      "start": 36.2585,
      "duration": 0.0126,
      "velocity": 80,
      "chip": "ym2612"
    },
    {
      "channel": 4,
      "note": 87,
      "start": 36.2589,
      "duration": 0.0126,
      "velocity": 80,
      "chip": "ym2612"
    },
    {
      "channel": 0,
      "note": 86,
      "start": 36.2711,
      "duration": 0.0156,
      "velocity": 103,
      "chip": "ym2612"
    },
    {
      "channel": 4,
      "note": 87,
      "start": 36.2715,
      "duration": 0.0205,
      "velocity": 80,
      "chip": "ym2612"
    },
    {
      "channel": 0,
      "note": 61,
      "start": 36.2869,
      "duration": 1.0656,
      "velocity": 103,
      "chip": "ym2612"
    },
    {
      "channel": 1,
      "note": 37,
      "start": 36.289,
      "duration": 0.1259,
      "velocity": 112,
      "chip": "ym2612"
    },
    {
      "channel": 3,
      "note": 67,
      "start": 36.2912,
      "duration": 0.1258,
      "velocity": 107,
      "chip": "ym2612"
    },
    {
      "channel": 4,
      "note": 87,
      "start": 36.2921,
      "duration": 0.0197,
      "velocity": 80,
      "chip": "ym2612"
    },
    {
      "channel": 4,
      "note": 86,
      "start": 36.3118,
      "duration": 0.0127,
      "velocity": 80,
      "chip": "ym2612"
    },
    {
      "channel": 4,
      "note": 86,
      "start": 36.3245,
      "duration": 0.0122,
      "velocity": 80,
      "chip": "ym2612"
    },
    {
      "channel": 4,
      "note": 86,
      "start": 36.3367,
      "duration": 0.0247,
      "velocity": 80,
      "chip": "ym2612"
    },
    {
      "channel": 4,
      "note": 86,
      "start": 36.3613,
      "duration": 0.025,
      "velocity": 80,
      "chip": "ym2612"
    },
    {
      "channel": 4,
      "note": 86,
      "start": 36.3863,
      "duration": 0.0125,
      "velocity": 80,
      "chip": "ym2612"
    },
    {
      "channel": 4,
      "note": 86,
      "start": 36.3989,
      "duration": 0.019,
      "velocity": 80,
      "chip": "ym2612"
    },
    {
      "channel": 1,
      "note": 49,
      "start": 36.4151,
      "duration": 0.1665,
      "velocity": 112,
      "chip": "ym2612"
    },
    {
      "channel": 3,
      "note": 67,
      "start": 36.4172,
      "duration": 0.0826,
      "velocity": 107,
      "chip": "ym2612"
    },
    {
      "channel": 4,
      "note": 85,
      "start": 36.4178,
      "duration": 0.0134,
      "velocity": 80,
      "chip": "ym2612"
    },
    {
      "channel": 4,
      "note": 85,
      "start": 36.4313,
      "duration": 0.0167,
      "velocity": 80,
      "chip": "ym2612"
    },
    {
      "channel": 4,
      "note": 85,
      "start": 36.4479,
      "duration": 0.0333,
      "velocity": 80,
      "chip": "ym2612"
    },
    {
      "channel": 4,
      "note": 85,
      "start": 36.4813,
      "duration": 0.0194,
      "velocity": 80,
      "chip": "ym2612"
    },
    {
      "channel": 3,
      "note": 67,
      "start": 36.5,
      "duration": 0.0837,
      "velocity": 107,
      "chip": "ym2612"
    },
    {
      "channel": 4,
      "note": 85,
      "start": 36.5007,
      "duration": 0.0139,
      "velocity": 80,
      "chip": "ym2612"
    },
    {
      "channel": 4,
      "note": 85,
      "start": 36.5146,
      "duration": 0.0167,
      "velocity": 80,
      "chip": "ym2612"
    },
    {
      "channel": 4,
      "note": 84,
      "start": 36.5313,
      "duration": 0.0167,
      "velocity": 80,
      "chip": "ym2612"
    },
    {
      "channel": 4,
      "note": 84,
      "start": 36.5479,
      "duration": 0.0369,
      "velocity": 80,
      "chip": "ym2612"
    },
    {
      "channel": 1,
      "note": 37,
      "start": 36.5817,
      "duration": 0.1139,
      "velocity": 112,
      "chip": "ym2612"
    },
    {
      "channel": 3,
      "note": 67,
      "start": 36.5839,
      "duration": 0.1138,
      "velocity": 107,
      "chip": "ym2612"
    },
    {
      "channel": 4,
      "note": 84,
      "start": 36.5848,
      "duration": 0.0097,
      "velocity": 80,
      "chip": "ym2612"
    },
    {
      "channel": 4,
      "note": 84,
      "start": 36.5946,
      "duration": 0.0125,
      "velocity": 80,
      "chip": "ym2612"
    },
    {
      "channel": 4,
      "note": 84,
      "start": 36.6071,
      "duration": 0.0127,
      "velocity": 80,
      "chip": "ym2612"
    },
    {
      "channel": 4,
      "note": 84,
      "start": 36.6198,
      "duration": 0.0376,
      "velocity": 80,
      "chip": "ym2612"
    },
    {
      "channel": 4,
      "note": 83,
      "start": 36.6573,
      "duration": 0.0126,
      "velocity": 80,
      "chip": "ym2612"
    },
    {
      "channel": 4,
      "note": 83,
      "start": 36.6699,
      "duration": 0.0127,
      "velocity": 80,
      "chip": "ym2612"
    },
    {
      "channel": 4,
      "note": 83,
      "start": 36.6826,
      "duration": 0.0174,
      "velocity": 109,
      "chip": "ym2612"
    },
    {
      "channel": 1,
      "note": 47,
      "start": 36.6958,
      "duration": 0.1315,
      "velocity": 112,
      "chip": "ym2612"
    },
    {
      "channel": 3,
      "note": 67,
      "start": 36.6979,
      "duration": 0.1315,
      "velocity": 107,
      "chip": "ym2612"
    },
    {
      "channel": 4,
      "note": 74,
      "start": 36.7001,
      "duration": 0.0009,
      "velocity": 109,
      "chip": "ym2612"
    },
    {
      "channel": 4,
      "note": 73,
      "start": 36.701,
      "duration": 0.0084,
      "velocity": 109,
      "chip": "ym2612"
    },
    {
      "channel": 4,
      "note": 72,
      "start": 36.7094,
      "duration": 0.025,
      "velocity": 109,
      "chip": "ym2612"
    },
    {
      "channel": 4,
      "note": 70,
      "start": 36.7344,
      "duration": 0.0123,
      "velocity": 109,
      "chip": "ym2612"
    },
    {
      "channel": 4,
      "note": 69,
      "start": 36.7468,
      "duration": 0.0246,
      "velocity": 109,
      "chip": "ym2612"
    },
    {
      "channel": 4,
      "note": 68,
      "start": 36.7713,
      "duration": 0.0124,
      "velocity": 109,
      "chip": "ym2612"
    },
    {
      "channel": 4,
      "note": 67,
      "start": 36.7838,
      "duration": 0.0265,
      "velocity": 109,
      "chip": "ym2612"
    },
    {
      "channel": 4,
      "note": 66,
      "start": 36.8103,
      "duration": 0.0197,
      "velocity": 109,
      "chip": "ym2612"
    },
    {
      "channel": 1,
      "note": 49,
      "start": 36.8274,
      "duration": 0.1499,
      "velocity": 112,
      "chip": "ym2612"
    },
    {
      "channel": 3,
      "note": 67,
      "start": 36.8296,
      "duration": 0.0827,
      "velocity": 107,
      "chip": "ym2612"
    },
    {
      "channel": 4,
      "note": 69,
      "start": 36.8302,
      "duration": 0.0006,
      "velocity": 109,
      "chip": "ym2612"
    },
    {
      "channel": 4,
      "note": 68,
      "start": 36.8307,
      "duration": 0.0129,
      "velocity": 109,
      "chip": "ym2612"
    },
    {
      "channel": 4,
      "note": 67,
      "start": 36.8436,
      "duration": 0.0167,
      "velocity": 109,
      "chip": "ym2612"
    },
    {
      "channel": 4,
      "note": 66,
      "start": 36.8603,
      "duration": 0.0167,
      "velocity": 109,
      "chip": "ym2612"
    },
    {
      "channel": 4,
      "note": 65,
      "start": 36.877,
      "duration": 0.0361,
      "velocity": 109,
      "chip": "ym2612"
    },
    {
      "channel": 3,
      "note": 67,
      "start": 36.9125,
      "duration": 0.067,
      "velocity": 107,
      "chip": "ym2612"
    },
    {
      "channel": 4,
      "note": 64,
      "start": 36.913,
      "duration": 0.0139,
      "velocity": 109,
      "chip": "ym2612"
    },
    {
      "channel": 4,
      "note": 63,
      "start": 36.927,
      "duration": 0.0167,
      "velocity": 109,
      "chip": "ym2612"
    },
    {
      "channel": 4,
      "note": 62,
      "start": 36.9436,
      "duration": 0.0167,
      "velocity": 109,
      "chip": "ym2612"
    },
    {
      "channel": 4,
      "note": 61,
      "start": 36.9603,
      "duration": 0.0198,
      "velocity": 109,
      "chip": "ym2612"
    },
    {
      "channel": 1,
      "note": 52,
      "start": 36.9775,
      "duration": 0.13,
      "velocity": 112,
      "chip": "ym2612"
    },
    {
      "channel": 3,
      "note": 67,
      "start": 36.9796,
      "duration": 0.13,
      "velocity": 107,
      "chip": "ym2612"
    },
    {
      "channel": 4,
      "note": 69,
      "start": 36.9802,
      "duration": 0.0009,
      "velocity": 109,
      "chip": "ym2612"
    },
    {
      "channel": 4,
      "note": 68,
      "start": 36.9811,
      "duration": 0.0221,
      "velocity": 109,
      "chip": "ym2612"
    },
    {
      "channel": 4,
      "note": 67,
      "start": 37.0032,
      "duration": 0.0126,
      "velocity": 109,
      "chip": "ym2612"
    },
    {
      "channel": 4,
      "note": 66,
      "start": 37.0158,
      "duration": 0.0126,
      "velocity": 109,
      "chip": "ym2612"
    },
    {
      "channel": 4,
      "note": 65,
      "start": 37.0283,
      "duration": 0.0247,
      "velocity": 109,
      "chip": "ym2612"
    },
    {
      "channel": 4,
      "note": 64,
      "start": 37.0531,
      "duration": 0.0252,
      "velocity": 109,
      "chip": "ym2612"
    },
    {
      "channel": 4,
      "note": 63,
      "start": 37.0782,
      "duration": 0.0128,
      "velocity": 109,
      "chip": "ym2612"
    },
    {
      "channel": 4,
      "note": 62,
      "start": 37.091,
      "duration": 0.0193,
      "velocity": 109,
      "chip": "ym2612"
    },
    {
      "channel": 1,
      "note": 37,
      "start": 37.1076,
      "duration": 0.1301,
      "velocity": 112,
      "chip": "ym2612"
    },
    {
      "channel": 3,
      "note": 67,
      "start": 37.1099,
      "duration": 0.13,
      "velocity": 107,
      "chip": "ym2612"
    },
    {
      "channel": 4,
      "note": 74,
      "start": 37.1104,
      "duration": 0.0008,
      "velocity": 109,
      "chip": "ym2612"
    },
    {
      "channel": 4,
      "note": 73,
      "start": 37.1113,
      "duration": 0.0098,
      "velocity": 109,
      "chip": "ym2612"
    },
    {
      "channel": 4,
      "note": 72,
      "start": 37.1211,
      "duration": 0.0124,
      "velocity": 109,
      "chip": "ym2612"
    },
    {
      "channel": 4,
      "note": 70,
      "start": 37.1335,
      "duration": 0.0253,
      "velocity": 109,
      "chip": "ym2612"
    },
    {
      "channel": 4,
      "note": 69,
      "start": 37.1588,
      "duration": 0.0249,
      "velocity": 109,
      "chip": "ym2612"
    },
    {
      "channel": 4,
      "note": 68,
      "start": 37.1837,
      "duration": 0.0125,
      "velocity": 109,
      "chip": "ym2612"
    },
    {
      "channel": 4,
      "note": 67,
      "start": 37.1962,
      "duration": 0.0126,
      "velocity": 109,
      "chip": "ym2612"
    },
    {
      "channel": 4,
      "note": 66,
      "start": 37.2088,
      "duration": 0.0317,
      "velocity": 109,
      "chip": "ym2612"
    },
    {
      "channel": 1,
      "note": 49,
      "start": 37.2379,
      "duration": 0.1152,
      "velocity": 112,
      "chip": "ym2612"
    },
    {
      "channel": 3,
      "note": 67,
      "start": 37.2401,
      "duration": 0.0508,
      "velocity": 107,
      "chip": "ym2612"
    },
    {
      "channel": 4,
      "note": 69,
      "start": 37.2407,
      "duration": 0.0008,
      "velocity": 109,
      "chip": "ym2612"
    },
    {
      "channel": 4,
      "note": 68,
      "start": 37.2415,
      "duration": 0.0097,
      "velocity": 109,
      "chip": "ym2612"
    },
    {
      "channel": 4,
      "note": 67,
      "start": 37.2512,
      "duration": 0.0124,
      "velocity": 109,
      "chip": "ym2612"
    },
    {
      "channel": 4,
      "note": 66,
      "start": 37.2637,
      "duration": 0.0125,
      "velocity": 109,
      "chip": "ym2612"
    },
    {
      "channel": 4,
      "note": 65,
      "start": 37.2762,
      "duration": 0.0158,
      "velocity": 109,
      "chip": "ym2612"
    },
    {
      "channel": 3,
      "note": 67,
      "start": 37.2911,
      "duration": 0.0642,
      "velocity": 107,
      "chip": "ym2612"
    },
    {
      "channel": 4,
      "note": 64,
      "start": 37.292,
      "duration": 0.0227,
      "velocity": 109,
      "chip": "ym2612"
    },
    {
      "channel": 4,
      "note": 63,
      "start": 37.3146,
      "duration": 0.0124,
      "velocity": 109,
      "chip": "ym2612"
    },
    {
      "channel": 4,
      "note": 62,
      "start": 37.3271,
      "duration": 0.0127,
      "velocity": 109,
      "chip": "ym2612"
    },
    {
      "channel": 4,
      "note": 61,
      "start": 37.3398,
      "duration": 0.0161,
      "velocity": 109,
      "chip": "ym2612"
    },
    {
      "channel": 0,
      "note": 68,
      "start": 37.3527,
      "duration": 0.0635,
      "velocity": 103,
      "chip": "ym2612"
    },
    {
      "channel": 1,
      "note": 37,
      "start": 37.3532,
      "duration": 0.1295,
      "velocity": 112,
      "chip": "ym2612"
    },
    {
      "channel": 3,
      "note": 67,
      "start": 37.3554,
      "duration": 0.1295,
      "velocity": 107,
      "chip": "ym2612"
    },
    {
      "channel": 4,
      "note": 69,
      "start": 37.356,
      "duration": 0.0008,
      "velocity": 109,
      "chip": "ym2612"
    },
    {
      "channel": 4,
      "note": 68,
      "start": 37.3568,
      "duration": 0.0093,
      "velocity": 109,
      "chip": "ym2612"
    },
    {
      "channel": 4,
      "note": 67,
      "start": 37.3661,
      "duration": 0.025,
      "velocity": 109,
      "chip": "ym2612"
    },
    {
      "channel": 4,
      "note": 66,
      "start": 37.3911,
      "duration": 0.0125,
      "velocity": 109,
      "chip": "ym2612"
    },
    {
      "channel": 4,
      "note": 65,
      "start": 37.4037,
      "duration": 0.0135,
      "velocity": 109,
      "chip": "ym2612"
    },
    {
      "channel": 0,
      "note": 66,
      "start": 37.4164,
      "duration": 0.0658,
      "velocity": 103,
      "chip": "ym2612"
    },
    {
      "channel": 4,
      "note": 64,
      "start": 37.4172,
      "duration": 0.0116,
      "velocity": 109,
      "chip": "ym2612"
    },
    {
      "channel": 4,
      "note": 63,
      "start": 37.4288,
      "duration": 0.0125,
      "velocity": 109,
      "chip": "ym2612"
    },
    {
      "channel": 4,
      "note": 62,
      "start": 37.4413,
      "duration": 0.0252,
      "velocity": 109,
      "chip": "ym2612"
    },
    {
      "channel": 4,
      "note": 61,
      "start": 37.4665,
      "duration": 0.0195,
      "velocity": 109,
      "chip": "ym2612"
    },
    {
      "channel": 0,
      "note": 68,
      "start": 37.4823,
      "duration": 0.1153,
      "velocity": 103,
      "chip": "ym2612"
    },
    {
      "channel": 1,
      "note": 47,
      "start": 37.4829,
      "duration": 0.1153,
      "velocity": 112,
      "chip": "ym2612"
    },
    {
      "channel": 3,
      "note": 67,
      "start": 37.4851,
      "duration": 0.1152,
      "velocity": 107,
      "chip": "ym2612"
    },
    {
      "channel": 4,
      "note": 60,
      "start": 37.486,
      "duration": 0.0094,
      "velocity": 109,
      "chip": "ym2612"
    },
    {
      "channel": 4,
      "note": 58,
      "start": 37.4954,
      "duration": 0.0127,
      "velocity": 109,
      "chip": "ym2612"
    },
    {
      "channel": 4,
      "note": 57,
      "start": 37.5081,
      "duration": 0.0124,
      "velocity": 109,
      "chip": "ym2612"
    },
    {
      "channel": 4,
      "note": 56,
      "start": 37.5206,
      "duration": 0.0379,
      "velocity": 109,
      "chip": "ym2612"
    },
    {
      "channel": 4,
      "note": 55,
      "start": 37.5584,
      "duration": 0.0123,
      "velocity": 109,
      "chip": "ym2612"
    },
    {
      "channel": 4,
      "note": 54,
      "start": 37.5707,
      "duration": 0.0125,
      "velocity": 109,
      "chip": "ym2612"
    },
    {
      "channel": 4,
      "note": 53,
      "start": 37.5832,
      "duration": 0.0179,
      "velocity": 109,
      "chip": "ym2612"
    },
    {
      "channel": 0,
      "note": 71,
      "start": 37.5978,
      "duration": 0.1666,
      "velocity": 103,
      "chip": "ym2612"
    },
    {
      "channel": 1,
      "note": 44,
      "start": 37.5983,
      "duration": 0.1666,
      "velocity": 112,
      "chip": "ym2612"
    },
    {
      "channel": 3,
      "note": 67,
      "start": 37.6005,
      "duration": 0.0822,
      "velocity": 107,
      "chip": "ym2612"
    },
    {
      "channel": 4,
      "note": 52,
      "start": 37.6011,
      "duration": 0.0296,
      "velocity": 109,
      "chip": "ym2612"
    },
    {
      "channel": 4,
      "note": 51,
      "start": 37.6307,
      "duration": 0.0167,
      "velocity": 109,
      "chip": "ym2612"
    },
    {
      "channel": 4,
      "note": 50,
      "start": 37.6474,
      "duration": 0.0167,
      "velocity": 109,
      "chip": "ym2612"
    },
    {
      "channel": 4,
      "note": 49,
      "start": 37.664,
      "duration": 0.0194,
      "velocity": 109,
      "chip": "ym2612"
    },
    {
      "channel": 3,
      "note": 67,
      "start": 37.6829,
      "duration": 0.0841,
      "velocity": 107,
      "chip": "ym2612"
    },
    {
      "channel": 4,
      "note": 48,
      "start": 37.6834,
      "duration": 0.0139,
      "velocity": 109,
      "chip": "ym2612"
    },
    {
      "channel": 4,
      "note": 46,
      "start": 37.6974,
      "duration": 0.0333,
      "velocity": 109,
      "chip": "ym2612"
    },
    {
      "channel": 4,
      "note": 45,
      "start": 37.7307,
      "duration": 0.0167,
      "velocity": 109,
      "chip": "ym2612"
    },
    {
      "channel": 4,
      "note": 44,
      "start": 37.7474,
      "duration": 0.0207,
      "velocity": 109,
      "chip": "ym2612"
    },
    {
      "channel": 0,
      "note": 76,
      "start": 37.7645,
      "duration": 0.1299,
      "velocity": 103,
      "chip": "ym2612"
    },
    {
      "channel": 1,
      "note": 54,
      "start": 37.765,
      "duration": 0.13,
      "velocity": 112,
      "chip": "ym2612"
    },
    {
      "channel": 3,
      "note": 67,
      "start": 37.7672,
      "duration": 0.1299,
      "velocity": 107,
      "chip": "ym2612"
    },
    {
      "channel": 4,
      "note": 43,
      "start": 37.7681,
      "duration": 0.0095,
      "velocity": 109,
      "chip": "ym2612"
    },
    {
      "channel": 4,
      "note": 42,
      "start": 37.7776,
      "duration": 0.0127,
      "velocity": 109,
      "chip": "ym2612"
    },
    {
      "channel": 4,
      "note": 41,
      "start": 37.7903,
      "duration": 0.0249,
      "velocity": 109,
      "chip": "ym2612"
    },
    {
      "channel": 4,
      "note": 40,
      "start": 37.8152,
      "duration": 0.0253,
      "velocity": 109,
      "chip": "ym2612"
    },
    {
      "channel": 4,
      "note": 39,
      "start": 37.8405,
      "duration": 0.0123,
      "velocity": 109,
      "chip": "ym2612"
    },
    {
      "channel": 4,
      "note": 38,
      "start": 37.8528,
      "duration": 0.0125,
      "velocity": 109,
      "chip": "ym2612"
    },
    {
      "channel": 4,
      "note": 37,
      "start": 37.8653,
      "duration": 0.0331,
      "velocity": 109,
      "chip": "ym2612"
    },
    {
      "channel": 0,
      "note": 66,
      "start": 37.8946,
      "duration": 0.0035,
      "velocity": 103,
      "chip": "ym2612"
    },
    {
      "channel": 1,
      "note": 37,
      "start": 37.8951,
      "duration": 0.1138,
      "velocity": 112,
      "chip": "ym2612"
    },
    {
      "channel": 3,
      "note": 67,
      "start": 37.8973,
      "duration": 0.1138,
      "velocity": 107,
      "chip": "ym2612"
    },
    {
      "channel": 0,
      "note": 66,
      "start": 37.898,
      "duration": 0.0097,
      "velocity": 103,
      "chip": "ym2612"
    },
    {
      "channel": 4,
      "note": 36,
      "start": 37.8984,
      "duration": 0.0097,
      "velocity": 109,
      "chip": "ym2612"
    },
    {
      "channel": 0,
      "note": 66,
      "start": 37.9077,
      "duration": 0.0126,
      "velocity": 103,
      "chip": "ym2612"
    },
    {
      "channel": 4,
      "note": 34,
      "start": 37.9081,
      "duration": 0.0126,
      "velocity": 109,
      "chip": "ym2612"
    },
    {
      "channel": 0,
      "note": 66,
      "start": 37.9204,
      "duration": 0.0124,
      "velocity": 103,
      "chip": "ym2612"
    },
    {
      "channel": 4,
      "note": 33,
      "start": 37.9207,
      "duration": 0.0124,
      "velocity": 109,
      "chip": "ym2612"
    },
    {
      "channel": 0,
      "note": 67,
      "start": 37.9328,
      "duration": 0.0378,
      "velocity": 103,
      "chip": "ym2612"
    },
    {
      "channel": 4,
      "note": 32,
      "start": 37.9332,
      "duration": 0.0378,
      "velocity": 109,
      "chip": "ym2612"
    },
    {
      "channel": 0,
      "note": 67,
      "start": 37.9706,
      "duration": 0.0128,
      "velocity": 103,
      "chip": "ym2612"
    },
    {
      "channel": 4,
      "note": 31,
      "start": 37.971,
      "duration": 0.0127,
      "velocity": 109,
      "chip": "ym2612"
    },
    {
      "channel": 0,
      "note": 67,
      "start": 37.9833,
      "duration": 0.0125,
      "velocity": 103,
      "chip": "ym2612"
    },
    {
      "channel": 4,
      "note": 30,
      "start": 37.9837,
      "duration": 0.0125,
      "velocity": 109,
      "chip": "ym2612"
    },
    {
      "channel": 0,
      "note": 67,
      "start": 37.9958,
      "duration": 0.0159,
      "velocity": 103,
      "chip": "ym2612"
    },
    {
      "channel": 4,
      "note": 29,
      "start": 37.9963,
      "duration": 0.0159,
      "velocity": 109,
      "chip": "ym2612"
    },
    {
      "channel": 1,
      "note": 49,
      "start": 38.0091,
      "duration": 0.1658,
      "velocity": 112,
      "chip": "ym2612"
    },
    {
      "channel": 3,
      "note": 67,
      "start": 38.0113,
      "duration": 0.0819,
      "velocity": 107,
      "chip": "ym2612"
    },
    {
      "channel": 0,
      "note": 67,
      "start": 38.0117,
      "duration": 0.0126,
      "velocity": 103,
      "chip": "ym2612"
    },
    {
      "channel": 4,
      "note": 28,
      "start": 38.0121,
      "duration": 0.0127,
      "velocity": 109,
      "chip": "ym2612"
    },
    {
      "channel": 0,
      "note": 67,
      "start": 38.0243,
      "duration": 0.0333,
      "velocity": 103,
      "chip": "ym2612"
    },
    {
      "channel": 4,
      "note": 27,
      "start": 38.0248,
      "duration": 0.0333,
      "velocity": 109,
      "chip": "ym2612"
    },
    {
      "channel": 0,
      "note": 67,
      "start": 38.0577,
      "duration": 0.0167,
      "velocity": 103,
      "chip": "ym2612"
    },
    {
      "channel": 4,
      "note": 26,
      "start": 38.0581,
      "duration": 0.0167,
      "velocity": 109,
      "chip": "ym2612"
    },
    {
      "channel": 0,
      "note": 67,
      "start": 38.0743,
      "duration": 0.0194,
      "velocity": 103,
      "chip": "ym2612"
    },
    {
      "channel": 4,
      "note": 25,
      "start": 38.0748,
      "duration": 0.0193,
      "velocity": 109,
      "chip": "ym2612"
    },
    {
      "channel": 3,
      "note": 67,
      "start": 38.0933,
      "duration": 0.0838,
      "velocity": 107,
      "chip": "ym2612"
    },
    {
      "channel": 0,
      "note": 67,
      "start": 38.0937,
      "duration": 0.0139,
      "velocity": 103,
      "chip": "ym2612"
    },
    {
      "channel": 4,
      "note": 24,
      "start": 38.0941,
      "duration": 0.014,
      "velocity": 109,
      "chip": "ym2612"
    },
    {
      "channel": 0,
      "note": 68,
      "start": 38.1077,
      "duration": 0.0167,
      "velocity": 103,
      "chip": "ym2612"
    },
    {
      "channel": 4,
      "note": 23,
      "start": 38.1081,
      "duration": 0.0167,
      "velocity": 109,
      "chip": "ym2612"
    },
    {
      "channel": 0,
      "note": 68,
      "start": 38.1243,
      "duration": 0.0333,
      "velocity": 103,
      "chip": "ym2612"
    },
    {
      "channel": 4,
      "note": 21,
      "start": 38.1248,
      "duration": 0.0333,
      "velocity": 109,
      "chip": "ym2612"
    },
    {
      "channel": 0,
      "note": 68,
      "start": 38.1577,
      "duration": 1.2998,
      "velocity": 103,
      "chip": "ym2612"
    },
    {
      "channel": 4,
      "note": 116,
      "start": 38.1581,
      "duration": 0.0201,
      "velocity": 109,
      "chip": "ym2612"
    },
    {
      "channel": 1,
      "note": 37,
      "start": 38.1751,
      "duration": 0.112,
      "velocity": 112,
      "chip": "ym2612"
    },
    {
      "channel": 3,
      "note": 67,
      "start": 38.1773,
      "duration": 0.112,
      "velocity": 107,
      "chip": "ym2612"
    },
    {
      "channel": 4,
      "note": 115,
      "start": 38.1782,
      "duration": 0.0098,
      "velocity": 109,
      "chip": "ym2612"
    },
    {
      "channel": 4,
      "note": 114,
      "start": 38.188,
      "duration": 0.0123,
      "velocity": 109,
      "chip": "ym2612"
    },
    {
      "channel": 4,
      "note": 113,
      "start": 38.2003,
      "duration": 0.0122,
      "velocity": 109,
      "chip": "ym2612"
    },
    {
      "channel": 4,
      "note": 112,
      "start": 38.2125,
      "duration": 0.0369,
      "velocity": 109,
      "chip": "ym2612"
    },
    {
      "channel": 4,
      "note": 111,
      "start": 38.2494,
      "duration": 0.0124,
      "velocity": 109,
      "chip": "ym2612"
    },
    {
      "channel": 4,
      "note": 110,
      "start": 38.2618,
      "duration": 0.0122,
      "velocity": 109,
      "chip": "ym2612"
    },
    {
      "channel": 4,
      "note": 109,
      "start": 38.274,
      "duration": 0.0164,
      "velocity": 109,
      "chip": "ym2612"
    },
    {
      "channel": 1,
      "note": 47,
      "start": 38.2873,
      "duration": 0.1339,
      "velocity": 112,
      "chip": "ym2612"
    },
    {
      "channel": 3,
      "note": 67,
      "start": 38.2895,
      "duration": 0.1339,
      "velocity": 107,
      "chip": "ym2612"
    },
    {
      "channel": 4,
      "note": 108,
      "start": 38.2904,
      "duration": 0.0222,
      "velocity": 109,
      "chip": "ym2612"
    },
    {
      "channel": 4,
      "note": 107,
      "start": 38.3126,
      "duration": 0.0127,
      "velocity": 109,
      "chip": "ym2612"
    },
    {
      "channel": 4,
      "note": 105,
      "start": 38.3253,
      "duration": 0.0128,
      "velocity": 109,
      "chip": "ym2612"
    },
    {
      "channel": 4,
      "note": 104,
      "start": 38.3381,
      "duration": 0.0253,
      "velocity": 109,
      "chip": "ym2612"
    },
    {
      "channel": 4,
      "note": 103,
      "start": 38.3634,
      "duration": 0.0248,
      "velocity": 109,
      "chip": "ym2612"
    },
    {
      "channel": 4,
      "note": 102,
      "start": 38.3882,
      "duration": 0.0144,
      "velocity": 109,
      "chip": "ym2612"
    },
    {
      "channel": 4,
      "note": 101,
      "start": 38.4027,
      "duration": 0.0215,
      "velocity": 109,
      "chip": "ym2612"
    },
    {
      "channel": 1,
      "note": 49,
      "start": 38.4214,
      "duration": 0.1649,
      "velocity": 112,
      "chip": "ym2612"
    },
    {
      "channel": 3,
      "note": 67,
      "start": 38.4235,
      "duration": 0.0811,
      "velocity": 107,
      "chip": "ym2612"
    },
    {
      "channel": 4,
      "note": 100,
      "start": 38.4242,
      "duration": 0.0118,
      "velocity": 109,
      "chip": "ym2612"
    },
    {
      "channel": 4,
      "note": 99,
      "start": 38.436,
      "duration": 0.0167,
      "velocity": 109,
      "chip": "ym2612"
    },
    {
      "channel": 4,
      "note": 98,
      "start": 38.4527,
      "duration": 0.0333,
      "velocity": 109,
      "chip": "ym2612"
    },
    {
      "channel": 4,
      "note": 97,
      "start": 38.486,
      "duration": 0.0194,
      "velocity": 109,
      "chip": "ym2612"
    },
    {
      "channel": 3,
      "note": 67,
      "start": 38.5049,
      "duration": 0.0837,
      "velocity": 107,
      "chip": "ym2612"
    },
    {
      "channel": 4,
      "note": 96,
      "start": 38.5054,
      "duration": 0.0139,
      "velocity": 109,
      "chip": "ym2612"
    },
    {
      "channel": 4,
      "note": 95,
      "start": 38.5193,
      "duration": 0.0167,
      "velocity": 109,
      "chip": "ym2612"
    },
    {
      "channel": 4,
      "note": 93,
      "start": 38.536,
      "duration": 0.0167,
      "velocity": 109,
      "chip": "ym2612"
    },
    {
      "channel": 4,
      "note": 92,
      "start": 38.5527,
      "duration": 0.0369,
      "velocity": 109,
      "chip": "ym2612"
    },
    {
      "channel": 1,
      "note": 52,
      "start": 38.5865,
      "duration": 0.1145,
      "velocity": 112,
      "chip": "ym2612"
    },
    {
      "channel": 3,
      "note": 67,
      "start": 38.5887,
      "duration": 0.1144,
      "velocity": 107,
      "chip": "ym2612"
    },
    {
      "channel": 4,
      "note": 91,
      "start": 38.5896,
      "duration": 0.01,
      "velocity": 109,
      "chip": "ym2612"
    },
    {
      "channel": 4,
      "note": 90,
      "start": 38.5996,
      "duration": 0.0125,
      "velocity": 109,
      "chip": "ym2612"
    },
    {
      "channel": 4,
      "note": 89,
      "start": 38.6121,
      "duration": 0.0127,
      "velocity": 109,
      "chip": "ym2612"
    },
    {
      "channel": 4,
      "note": 88,
      "start": 38.6248,
      "duration": 0.0376,
      "velocity": 109,
      "chip": "ym2612"
    },
    {
      "channel": 4,
      "note": 87,
      "start": 38.6623,
      "duration": 0.0127,
      "velocity": 109,
      "chip": "ym2612"
    },
    {
      "channel": 4,
      "note": 86,
      "start": 38.675,
      "duration": 0.0127,
      "velocity": 109,
      "chip": "ym2612"
    },
    {
      "channel": 4,
      "note": 85,
      "start": 38.6877,
      "duration": 0.0165,
      "velocity": 109,
      "chip": "ym2612"
    },
    {
      "channel": 1,
      "note": 37,
      "start": 38.7012,
      "duration": 0.1302,
      "velocity": 112,
      "chip": "ym2612"
    },
    {
      "channel": 3,
      "note": 67,
      "start": 38.7033,
      "duration": 0.1302,
      "velocity": 107,
      "chip": "ym2612"
    },
    {
      "channel": 4,
      "note": 84,
      "start": 38.7042,
      "duration": 0.0096,
      "velocity": 109,
      "chip": "ym2612"
    },
    {
      "channel": 4,
      "note": 83,
      "start": 38.7138,
      "duration": 0.0251,
      "velocity": 109,
      "chip": "ym2612"
    },
    {
      "channel": 4,
      "note": 81,
      "start": 38.739,
      "duration": 0.0128,
      "velocity": 109,
      "chip": "ym2612"
    },
    {
      "channel": 4,
      "note": 80,
      "start": 38.7518,
      "duration": 0.0249,
      "velocity": 109,
      "chip": "ym2612"
    },
    {
      "channel": 4,
      "note": 79,
      "start": 38.7767,
      "duration": 0.0125,
      "velocity": 109,
      "chip": "ym2612"
    },
    {
      "channel": 4,
      "note": 78,
      "start": 38.7892,
      "duration": 0.0254,
      "velocity": 109,
      "chip": "ym2612"
    },
    {
      "channel": 4,
      "note": 77,
      "start": 38.8146,
      "duration": 0.0195,
      "velocity": 109,
      "chip": "ym2612"
    },
    {
      "channel": 1,
      "note": 49,
      "start": 38.8315,
      "duration": 0.115,
      "velocity": 112,
      "chip": "ym2612"
    },
    {
      "channel": 3,
      "note": 67,
      "start": 38.8337,
      "duration": 0.0626,
      "velocity": 107,
      "chip": "ym2612"
    },
    {
      "channel": 4,
      "note": 74,
      "start": 38.8344,
      "duration": 0.0008,
      "velocity": 109,
      "chip": "ym2612"
    },
    {
      "channel": 4,
      "note": 73,
      "start": 38.8352,
      "duration": 0.0096,
      "velocity": 109,
      "chip": "ym2612"
    },
    {
      "channel": 4,
      "note": 72,
      "start": 38.8448,
      "duration": 0.0123,
      "velocity": 109,
      "chip": "ym2612"
    },
    {
      "channel": 4,
      "note": 70,
      "start": 38.8571,
      "duration": 0.0122,
      "velocity": 109,
      "chip": "ym2612"
    },
    {
      "channel": 4,
      "note": 69,
      "start": 38.8693,
      "duration": 0.0282,
      "velocity": 109,
      "chip": "ym2612"
    },
    {
      "channel": 3,
      "note": 67,
      "start": 38.8965,
      "duration": 0.0522,
      "velocity": 107,
      "chip": "ym2612"
    },
    {
      "channel": 4,
      "note": 68,
      "start": 38.8974,
      "duration": 0.0103,
      "velocity": 109,
      "chip": "ym2612"
    },
    {
      "channel": 4,
      "note": 67,
      "start": 38.9077,
      "duration": 0.0127,
      "velocity": 109,
      "chip": "ym2612"
    },
    {
      "channel": 4,
      "note": 66,
      "start": 38.9205,
      "duration": 0.0127,
      "velocity": 109,
      "chip": "ym2612"
    },
    {
      "channel": 4,
      "note": 65,
      "start": 38.9332,
      "duration": 0.0161,
      "velocity": 109,
      "chip": "ym2612"
    },
    {
      "channel": 1,
      "note": 37,
      "start": 38.9467,
      "duration": 0.1302,
      "velocity": 112,
      "chip": "ym2612"
    },
    {
      "channel": 3,
      "note": 67,
      "start": 38.9489,
      "duration": 0.1301,
      "velocity": 107,
      "chip": "ym2612"
    },
    {
      "channel": 4,
      "note": 74,
      "start": 38.9495,
      "duration": 0.0008,
      "velocity": 109,
      "chip": "ym2612"
    },
    {
      "channel": 4,
      "note": 73,
      "start": 38.9503,
      "duration": 0.0221,
      "velocity": 109,
      "chip": "ym2612"
    },
    {
      "channel": 4,
      "note": 72,
      "start": 38.9724,
      "duration": 0.0124,
      "velocity": 109,
      "chip": "ym2612"
    },
    {
      "channel": 4,
      "note": 70,
      "start": 38.9848,
      "duration": 0.0124,
      "velocity": 109,
      "chip": "ym2612"
    },
    {
      "channel": 4,
      "note": 69,
      "start": 38.9972,
      "duration": 0.0254,
      "velocity": 109,
      "chip": "ym2612"
    },
    {
      "channel": 4,
      "note": 68,
      "start": 39.0226,
      "duration": 0.0252,
      "velocity": 109,
      "chip": "ym2612"
    },
    {
      "channel": 4,
      "note": 67,
      "start": 39.0478,
      "duration": 0.0127,
      "velocity": 109,
      "chip": "ym2612"
    },
    {
      "channel": 4,
      "note": 66,
      "start": 39.0605,
      "duration": 0.0191,
      "velocity": 109,
      "chip": "ym2612"
    },
    {
      "channel": 1,
      "note": 47,
      "start": 39.077,
      "duration": 0.1317,
      "velocity": 112,
      "chip": "ym2612"
    },
    {
      "channel": 3,
      "note": 67,
      "start": 39.0792,
      "duration": 0.1316,
      "velocity": 107,
      "chip": "ym2612"
    },
    {
      "channel": 4,
      "note": 69,
      "start": 39.0798,
      "duration": 0.0008,
      "velocity": 109,
      "chip": "ym2612"
    },
    {
      "channel": 4,
      "note": 68,
      "start": 39.0806,
      "duration": 0.0097,
      "velocity": 109,
      "chip": "ym2612"
    },
    {
      "channel": 4,
      "note": 67,
      "start": 39.0902,
      "duration": 0.0128,
      "velocity": 109,
      "chip": "ym2612"
    },
    {
      "channel": 4,
      "note": 66,
      "start": 39.1031,
      "duration": 0.0248,
      "velocity": 109,
      "chip": "ym2612"
    },
    {
      "channel": 4,
      "note": 65,
      "start": 39.1279,
      "duration": 0.0131,
      "velocity": 109,
      "chip": "ym2612"
    },
    {
      "channel": 4,
      "note": 69,
      "start": 39.1412,
      "duration": 0.0006,
      "velocity": 109,
      "chip": "ym2612"
    },
    {
      "channel": 4,
      "note": 68,
      "start": 39.1417,
      "duration": 0.0112,
      "velocity": 109,
      "chip": "ym2612"
    },
    {
      "channel": 4,
      "note": 67,
      "start": 39.1529,
      "duration": 0.0123,
      "velocity": 109,
      "chip": "ym2612"
    },
    {
      "channel": 4,
      "note": 66,
      "start": 39.1652,
      "duration": 0.0124,
      "velocity": 109,
      "chip": "ym2612"
    },
    {
      "channel": 4,
      "note": 65,
      "start": 39.1777,
      "duration": 0.0337,
      "velocity": 109,
      "chip": "ym2612"
    },
    {
      "channel": 1,
      "note": 49,
      "start": 39.2088,
      "duration": 0.1156,
      "velocity": 112,
      "chip": "ym2612"
    },
    {
      "channel": 3,
      "note": 67,
      "start": 39.211,
      "duration": 0.0507,
      "velocity": 107,
      "chip": "ym2612"
    },
    {
      "channel": 4,
      "note": 69,
      "start": 39.2115,
      "duration": 0.0008,
      "velocity": 109,
      "chip": "ym2612"
    },
    {
      "channel": 4,
      "note": 68,
      "start": 39.2124,
      "duration": 0.0097,
      "velocity": 109,
      "chip": "ym2612"
    },
    {
      "channel": 4,
      "note": 67,
      "start": 39.2221,
      "duration": 0.0124,
      "velocity": 109,
      "chip": "ym2612"
    },
    {
      "channel": 4,
      "note": 66,
      "start": 39.2346,
      "duration": 0.0125,
      "velocity": 109,
      "chip": "ym2612"
    },
    {
      "channel": 4,
      "note": 65,
      "start": 39.2471,
      "duration": 0.0155,
      "velocity": 109,
      "chip": "ym2612"
    },
    {
      "channel": 3,
      "note": 67,
      "start": 39.2619,
      "duration": 0.0646,
      "velocity": 107,
      "chip": "ym2612"
    },
    {
      "channel": 4,
      "note": 64,
      "start": 39.2625,
      "duration": 0.023,
      "velocity": 109,
      "chip": "ym2612"
    },
    {
      "channel": 4,
      "note": 63,
      "start": 39.2855,
      "duration": 0.0125,
      "velocity": 109,
      "chip": "ym2612"
    },
    {
      "channel": 4,
      "note": 62,
      "start": 39.298,
      "duration": 0.0125,
      "velocity": 109,
      "chip": "ym2612"
    },
    {
      "channel": 4,
      "note": 61,
      "start": 39.3105,
      "duration": 0.0165,
      "velocity": 109,
      "chip": "ym2612"
    },
    {
      "channel": 1,
      "note": 54,
      "start": 39.3244,
      "duration": 0.1337,
      "velocity": 112,
      "chip": "ym2612"
    },
    {
      "channel": 3,
      "note": 67,
      "start": 39.3267,
      "duration": 0.1342,
      "velocity": 107,
      "chip": "ym2612"
    },
    {
      "channel": 4,
      "note": 69,
      "start": 39.3272,
      "duration": 0.5407,
      "velocity": 109,
      "chip": "ym2612"
    },
    {
      "channel": 0,
      "note": 73,
      "start": 39.4577,
      "duration": 0.5233,
      "velocity": 103,
      "chip": "ym2612"
    },
    {
      "channel": 1,
      "note": 37,
      "start": 39.4583,
      "duration": 0.1112,
      "velocity": 112,
      "chip": "ym2612"
    },
    {
      "channel": 2,
      "note": 66,
      "start": 39.4589,
      "duration": 3.1411,
      "velocity": 124,
      "chip": "ym2612"
    },
    {
      "channel": 3,
      "note": 67,
      "start": 39.4611,
      "duration": 0.1106,
      "velocity": 107,
      "chip": "ym2612"
    },
    {
      "channel": 1,
      "note": 49,
      "start": 39.5696,
      "duration": 0.166,
      "velocity": 112,
      "chip": "ym2612"
    },
    {
      "channel": 3,
      "note": 67,
      "start": 39.5719,
      "duration": 0.0822,
      "velocity": 107,
      "chip": "ym2612"
    },
    {
      "channel": 3,
      "note": 67,
      "start": 39.6542,
      "duration": 0.0837,
      "velocity": 107,
      "chip": "ym2612"
    },
    {
      "channel": 1,
      "note": 37,
      "start": 39.7359,
      "duration": 0.1292,
      "velocity": 112,
      "chip": "ym2612"
    },
    {
      "channel": 3,
      "note": 67,
      "start": 39.738,
      "duration": 0.1292,
      "velocity": 107,
      "chip": "ym2612"
    },
    {
      "channel": 1,
      "note": 47,
      "start": 39.8652,
      "duration": 0.1163,
      "velocity": 112,
      "chip": "ym2612"
    },
    {
      "channel": 3,
      "note": 67,
      "start": 39.8674,
      "duration": 0.1163,
      "velocity": 107,
      "chip": "ym2612"
    },
    {
      "channel": 4,
      "note": 74,
      "start": 39.868,
      "duration": 0.0009,
      "velocity": 109,
      "chip": "ym2612"
    },
    {
      "channel": 4,
      "note": 73,
      "start": 39.8689,
      "duration": 0.0092,
      "velocity": 109,
      "chip": "ym2612"
    },
    {
      "channel": 4,
      "note": 72,
      "start": 39.8781,
      "duration": 0.0123,
      "velocity": 109,
      "chip": "ym2612"
    },
    {
      "channel": 4,
      "note": 70,
      "start": 39.8905,
      "duration": 0.0127,
      "velocity": 109,
      "chip": "ym2612"
    },
    {
      "channel": 4,
      "note": 69,
      "start": 39.9031,
      "duration": 0.0377,
      "velocity": 109,
      "chip": "ym2612"
    },
    {
      "channel": 4,
      "note": 68,
      "start": 39.9409,
      "duration": 0.0127,
      "velocity": 109,
      "chip": "ym2612"
    },
    {
      "channel": 4,
      "note": 67,
      "start": 39.9536,
      "duration": 0.0128,
      "velocity": 109,
      "chip": "ym2612"
    },
    {
      "channel": 4,
      "note": 66,
      "start": 39.9664,
      "duration": 0.0179,
      "velocity": 109,
      "chip": "ym2612"
    },
    {
      "channel": 0,
      "note": 71,
      "start": 39.9812,
      "duration": 0.0832,
      "velocity": 103,
      "chip": "ym2612"
    },
    {
      "channel": 1,
      "note": 49,
      "start": 39.9817,
      "duration": 0.1666,
      "velocity": 112,
      "chip": "ym2612"
    },
    {
      "channel": 3,
      "note": 67,
      "start": 39.9839,
      "duration": 0.0826,
      "velocity": 107,
      "chip": "ym2612"
    },
    {
      "channel": 4,
      "note": 69,
      "start": 39.9845,
      "duration": 0.0006,
      "velocity": 109,
      "chip": "ym2612"
    },
    {
      "channel": 4,
      "note": 68,
      "start": 39.9851,
      "duration": 0.0123,
      "velocity": 109,
      "chip": "ym2612"
    },
    {
      "channel": 4,
      "note": 67,
      "start": 39.9974,
      "duration": 0.0333,
      "velocity": 109,
      "chip": "ym2612"
    },
    {
      "channel": 4,
      "note": 66,
      "start": 40.0307,
      "duration": 0.0167,
      "velocity": 109,
      "chip": "ym2612"
    },
    {
      "channel": 4,
      "note": 65,
      "start": 40.0474,
      "duration": 0.02,
      "velocity": 109,
      "chip": "ym2612"
    },
    {
      "channel": 0,
      "note": 73,
      "start": 40.0645,
      "duration": 0.0832,
      "velocity": 103,
      "chip": "ym2612"
    },
    {
      "channel": 3,
      "note": 67,
      "start": 40.0667,
      "duration": 0.0837,
      "velocity": 107,
      "chip": "ym2612"
    },
    {
      "channel": 4,
      "note": 64,
      "start": 40.0674,
      "duration": 0.0134,
      "velocity": 109,
      "chip": "ym2612"
    },
    {
      "channel": 4,
      "note": 63,
      "start": 40.0807,
      "duration": 0.0167,
      "velocity": 109,
      "chip": "ym2612"
    },
    {
      "channel": 4,
      "note": 62,
      "start": 40.0974,
      "duration": 0.0333,
      "velocity": 109,
      "chip": "ym2612"
    },
    {
      "channel": 4,
      "note": 61,
      "start": 40.1307,
      "duration": 0.0203,
      "velocity": 109,
      "chip": "ym2612"
    },
    {
      "channel": 0,
      "note": 76,
      "start": 40.1478,
      "duration": 0.1127,
      "velocity": 103,
      "chip": "ym2612"
    },
    {
      "channel": 1,
      "note": 52,
      "start": 40.1484,
      "duration": 0.1127,
      "velocity": 112,
      "chip": "ym2612"
    },
    {
      "channel": 3,
      "note": 67,
      "start": 40.1506,
      "duration": 0.1127,
      "velocity": 107,
      "chip": "ym2612"
    },
    {
      "channel": 4,
      "note": 69,
      "start": 40.1512,
      "duration": 0.0009,
      "velocity": 109,
      "chip": "ym2612"
    },
    {
      "channel": 4,
      "note": 68,
      "start": 40.152,
      "duration": 0.0093,
      "velocity": 109,
      "chip": "ym2612"
    },
    {
      "channel": 4,
      "note": 67,
      "start": 40.1613,
      "duration": 0.0125,
      "velocity": 109,
      "chip": "ym2612"
    },
    {
      "channel": 4,
      "note": 66,
      "start": 40.1738,
      "duration": 0.0122,
      "velocity": 109,
      "chip": "ym2612"
    },
    {
      "channel": 4,
      "note": 65,
      "start": 40.186,
      "duration": 0.0371,
      "velocity": 109,
      "chip": "ym2612"
    },
    {
      "channel": 4,
      "note": 64,
      "start": 40.2231,
      "duration": 0.0124,
      "velocity": 109,
      "chip": "ym2612"
    },
    {
      "channel": 4,
      "note": 63,
      "start": 40.2356,
      "duration": 0.0122,
      "velocity": 109,
      "chip": "ym2612"
    },
    {
      "channel": 4,
      "note": 62,
      "start": 40.2477,
      "duration": 0.0161,
      "velocity": 109,
      "chip": "ym2612"
    },
    {
      "channel": 0,
      "note": 78,
      "start": 40.2608,
      "duration": 0.1305,
      "velocity": 103,
      "chip": "ym2612"
    },
    {
      "channel": 1,
      "note": 37,
      "start": 40.2613,
      "duration": 0.1306,
      "velocity": 112,
      "chip": "ym2612"
    },
    {
      "channel": 3,
      "note": 67,
      "start": 40.2635,
      "duration": 0.1305,
      "velocity": 107,
      "chip": "ym2612"
    },
    {
      "channel": 4,
      "note": 74,
      "start": 40.2641,
      "duration": 0.0008,
      "velocity": 109,
      "chip": "ym2612"
    },
    {
      "channel": 4,
      "note": 73,
      "start": 40.2649,
      "duration": 0.022,
      "velocity": 109,
      "chip": "ym2612"
    },
    {
      "channel": 4,
      "note": 72,
      "start": 40.2868,
      "duration": 0.0124,
      "velocity": 109,
      "chip": "ym2612"
    },
    {
      "channel": 4,
      "note": 70,
      "start": 40.2993,
      "duration": 0.0125,
      "velocity": 109,
      "chip": "ym2612"
    },
    {
      "channel": 4,
      "note": 69,
      "start": 40.3118,
      "duration": 0.0251,
      "velocity": 109,
      "chip": "ym2612"
    },
    {
      "channel": 4,
      "note": 68,
      "start": 40.337,
      "duration": 0.0251,
      "velocity": 109,
      "chip": "ym2612"
    },
    {
      "channel": 4,
      "note": 67,
      "start": 40.362,
      "duration": 0.0128,
      "velocity": 109,
      "chip": "ym2612"
    },
    {
      "channel": 4,
      "note": 66,
      "start": 40.3749,
      "duration": 0.0198,
      "velocity": 109,
      "chip": "ym2612"
    },
    {
      "channel": 0,
      "note": 76,
      "start": 40.3915,
      "duration": 0.1265,
      "velocity": 103,
      "chip": "ym2612"
    },
    {
      "channel": 1,
      "note": 49,
      "start": 40.392,
      "duration": 0.1265,
      "velocity": 112,
      "chip": "ym2612"
    },
    {
      "channel": 3,
      "note": 67,
      "start": 40.3942,
      "duration": 0.0622,
      "velocity": 107,
      "chip": "ym2612"
    },
    {
      "channel": 4,
      "note": 69,
      "start": 40.3948,
      "duration": 0.0009,
      "velocity": 109,
      "chip": "ym2612"
    },
    {
      "channel": 4,
      "note": 68,
      "start": 40.3957,
      "duration": 0.009,
      "velocity": 109,
      "chip": "ym2612"
    },
    {
      "channel": 4,
      "note": 67,
      "start": 40.4046,
      "duration": 0.0122,
      "velocity": 109,
      "chip": "ym2612"
    },
    {
      "channel": 4,
      "note": 66,
      "start": 40.4168,
      "duration": 0.0247,
      "velocity": 109,
      "chip": "ym2612"
    },
    {
      "channel": 4,
      "note": 65,
      "start": 40.4415,
      "duration": 0.0159,
      "velocity": 109,
      "chip": "ym2612"
    },
    {
      "channel": 3,
      "note": 67,
      "start": 40.4565,
      "duration": 0.0642,
      "velocity": 107,
      "chip": "ym2612"
    },
    {
      "channel": 4,
      "note": 64,
      "start": 40.4575,
      "duration": 0.01,
      "velocity": 109,
      "chip": "ym2612"
    },
    {
      "channel": 4,
      "note": 63,
      "start": 40.4674,
      "duration": 0.0125,
      "velocity": 109,
      "chip": "ym2612"
    },
    {
      "channel": 4,
      "note": 62,
      "start": 40.48,
      "duration": 0.0125,
      "velocity": 109,
      "chip": "ym2612"
    },
    {
      "channel": 4,
      "note": 61,
      "start": 40.4925,
      "duration": 0.0289,
      "velocity": 109,
      "chip": "ym2612"
    },
    {
      "channel": 0,
      "note": 78,
      "start": 40.5182,
      "duration": 0.1135,
      "velocity": 103,
      "chip": "ym2612"
    },
    {
      "channel": 1,
      "note": 37,
      "start": 40.5188,
      "duration": 0.1135,
      "velocity": 112,
      "chip": "ym2612"
    },
    {
      "channel": 3,
      "note": 67,
      "start": 40.5209,
      "duration": 0.1135,
      "velocity": 107,
      "chip": "ym2612"
    },
    {
      "channel": 4,
      "note": 69,
      "start": 40.5215,
      "duration": 0.0009,
      "velocity": 109,
      "chip": "ym2612"
    },
    {
      "channel": 4,
      "note": 68,
      "start": 40.5224,
      "duration": 0.0093,
      "velocity": 109,
      "chip": "ym2612"
    },
    {
      "channel": 4,
      "note": 67,
      "start": 40.5317,
      "duration": 0.0125,
      "velocity": 109,
      "chip": "ym2612"
    },
    {
      "channel": 4,
      "note": 66,
      "start": 40.5442,
      "duration": 0.0125,
      "velocity": 109,
      "chip": "ym2612"
    },
    {
      "channel": 4,
      "note": 65,
      "start": 40.5566,
      "duration": 0.0378,
      "velocity": 109,
      "chip": "ym2612"
    },
    {
      "channel": 4,
      "note": 64,
      "start": 40.5944,
      "duration": 0.0124,
      "velocity": 109,
      "chip": "ym2612"
    },
    {
      "channel": 4,
      "note": 63,
      "start": 40.6068,
      "duration": 0.0122,
      "velocity": 109,
      "chip": "ym2612"
    },
    {
      "channel": 4,
      "note": 62,
      "start": 40.619,
      "duration": 0.0165,
      "velocity": 109,
      "chip": "ym2612"
    },
    {
      "channel": 0,
      "note": 80,
      "start": 40.6319,
      "duration": 0.0632,
      "velocity": 103,
      "chip": "ym2612"
    },
    {
      "channel": 1,
      "note": 47,
      "start": 40.6324,
      "duration": 0.1311,
      "velocity": 112,
      "chip": "ym2612"
    },
    {
      "channel": 3,
      "note": 67,
      "start": 40.6346,
      "duration": 0.131,
      "velocity": 107,
      "chip": "ym2612"
    },
    {
      "channel": 4,
      "note": 61,
      "start": 40.6355,
      "duration": 0.0095,
      "velocity": 109,
      "chip": "ym2612"
    },
    {
      "channel": 4,
      "note": 60,
      "start": 40.6449,
      "duration": 0.0249,
      "velocity": 109,
      "chip": "ym2612"
    },
    {
      "channel": 4,
      "note": 58,
      "start": 40.6698,
      "duration": 0.0124,
      "velocity": 109,
      "chip": "ym2612"
    },
    {
      "channel": 4,
      "note": 57,
      "start": 40.6823,
      "duration": 0.0137,
      "velocity": 109,
      "chip": "ym2612"
    },
    {
      "channel": 0,
      "note": 83,
      "start": 40.6952,
      "duration": 0.0678,
      "velocity": 103,
      "chip": "ym2612"
    },
    {
      "channel": 4,
      "note": 56,
      "start": 40.696,
      "duration": 0.0112,
      "velocity": 109,
      "chip": "ym2612"
    },
    {
      "channel": 4,
      "note": 55,
      "start": 40.7072,
      "duration": 0.0123,
      "velocity": 109,
      "chip": "ym2612"
    },
    {
      "channel": 4,
      "note": 54,
      "start": 40.7195,
      "duration": 0.0265,
      "velocity": 109,
      "chip": "ym2612"
    },
    {
      "channel": 4,
      "note": 53,
      "start": 40.7461,
      "duration": 0.0204,
      "velocity": 109,
      "chip": "ym2612"
    },
    {
      "channel": 0,
      "note": 80,
      "start": 40.7631,
      "duration": 0.0832,
      "velocity": 103,
      "chip": "ym2612"
    },
    {
      "channel": 1,
      "note": 44,
      "start": 40.7637,
      "duration": 0.1499,
      "velocity": 112,
      "chip": "ym2612"
    },
    {
      "channel": 3,
      "note": 67,
      "start": 40.7659,
      "duration": 0.0827,
      "velocity": 107,
      "chip": "ym2612"
    },
    {
      "channel": 4,
      "note": 52,
      "start": 40.7665,
      "duration": 0.0129,
      "velocity": 109,
      "chip": "ym2612"
    },
    {
      "channel": 4,
      "note": 51,
      "start": 40.7794,
      "duration": 0.0167,
      "velocity": 109,
      "chip": "ym2612"
    },
    {
      "channel": 4,
      "note": 50,
      "start": 40.7961,
      "duration": 0.0167,
      "velocity": 109,
      "chip": "ym2612"
    },
    {
      "channel": 4,
      "note": 49,
      "start": 40.8127,
      "duration": 0.0366,
      "velocity": 109,
      "chip": "ym2612"
    },
    {
      "channel": 0,
      "note": 83,
      "start": 40.8464,
      "duration": 0.0666,
      "velocity": 103,
      "chip": "ym2612"
    },
    {
      "channel": 3,
      "note": 67,
      "start": 40.8487,
      "duration": 0.067,
      "velocity": 107,
      "chip": "ym2612"
    },
    {
      "channel": 4,
      "note": 48,
      "start": 40.8493,
      "duration": 0.0134,
      "velocity": 109,
      "chip": "ym2612"
    },
    {
      "channel": 4,
      "note": 46,
      "start": 40.8627,
      "duration": 0.0167,
      "velocity": 109,
      "chip": "ym2612"
    },
    {
      "channel": 4,
      "note": 45,
      "start": 40.8794,
      "duration": 0.0167,
      "velocity": 109,
      "chip": "ym2612"
    },
    {
      "channel": 4,
      "note": 44,
      "start": 40.8961,
      "duration": 0.0207,
      "velocity": 109,
      "chip": "ym2612"
    },
    {
      "channel": 0,
      "note": 80,
      "start": 40.9132,
      "duration": 0.0632,
      "velocity": 103,
      "chip": "ym2612"
    },
    {
      "channel": 1,
      "note": 54,
      "start": 40.9137,
      "duration": 0.1296,
      "velocity": 112,
      "chip": "ym2612"
    },
    {
      "channel": 3,
      "note": 67,
      "start": 40.9159,
      "duration": 0.1296,
      "velocity": 107,
      "chip": "ym2612"
    },
    {
      "channel": 4,
      "note": 43,
      "start": 40.9168,
      "duration": 0.0219,
      "velocity": 109,
      "chip": "ym2612"
    },
    {
      "channel": 4,
      "note": 42,
      "start": 40.9387,
      "duration": 0.0124,
      "velocity": 109,
      "chip": "ym2612"
    },
    {
      "channel": 4,
      "note": 41,
      "start": 40.9512,
      "duration": 0.0124,
      "velocity": 109,
      "chip": "ym2612"
    },
    {
      "channel": 4,
      "note": 40,
      "start": 40.9636,
      "duration": 0.0137,
      "velocity": 109,
      "chip": "ym2612"
    },
    {
      "channel": 0,
      "note": 83,
      "start": 40.9765,
      "duration": 0.0663,
      "velocity": 103,
      "chip": "ym2612"
    },
    {
      "channel": 4,
      "note": 39,
      "start": 40.9773,
      "duration": 0.0113,
      "velocity": 109,
      "chip": "ym2612"
    },
    {
      "channel": 4,
      "note": 38,
      "start": 40.9886,
      "duration": 0.0252,
      "velocity": 109,
      "chip": "ym2612"
    },
    {
      "channel": 4,
      "note": 37,
      "start": 41.0138,
      "duration": 0.0127,
      "velocity": 109,
      "chip": "ym2612"
    },
    {
      "channel": 4,
      "note": 36,
      "start": 41.0265,
      "duration": 0.0201,
      "velocity": 109,
      "chip": "ym2612"
    },
    {
      "channel": 0,
      "note": 80,
      "start": 41.0429,
      "duration": 0.0634,
      "velocity": 103,
      "chip": "ym2612"
    },
    {
      "channel": 1,
      "note": 37,
      "start": 41.0435,
      "duration": 0.1295,
      "velocity": 112,
      "chip": "ym2612"
    },
    {
      "channel": 3,
      "note": 67,
      "start": 41.0457,
      "duration": 0.1294,
      "velocity": 107,
      "chip": "ym2612"
    },
    {
      "channel": 4,
      "note": 34,
      "start": 41.0466,
      "duration": 0.0094,
      "velocity": 109,
      "chip": "ym2612"
    },
    {
      "channel": 4,
      "note": 33,
      "start": 41.056,
      "duration": 0.0127,
      "velocity": 109,
      "chip": "ym2612"
    },
    {
      "channel": 4,
      "note": 32,
      "start": 41.0687,
      "duration": 0.0249,
      "velocity": 109,
      "chip": "ym2612"
    },
    {
      "channel": 4,
      "note": 31,
      "start": 41.0936,
      "duration": 0.0137,
      "velocity": 109,
      "chip": "ym2612"
    },
    {
      "channel": 0,
      "note": 83,
      "start": 41.1065,
      "duration": 0.0659,
      "velocity": 103,
      "chip": "ym2612"
    },
    {
      "channel": 4,
      "note": 30,
      "start": 41.1073,
      "duration": 0.0113,
      "velocity": 109,
      "chip": "ym2612"
    },
    {
      "channel": 4,
      "note": 29,
      "start": 41.1186,
      "duration": 0.0123,
      "velocity": 109,
      "chip": "ym2612"
    },
    {
      "channel": 4,
      "note": 28,
      "start": 41.1309,
      "duration": 0.0127,
      "velocity": 109,
      "chip": "ym2612"
    },
    {
      "channel": 4,
      "note": 27,
      "start": 41.1435,
      "duration": 0.0324,
      "velocity": 109,
      "chip": "ym2612"
    },
    {
      "channel": 0,
      "note": 85,
      "start": 41.1726,
      "duration": 0.0665,
      "velocity": 103,
      "chip": "ym2612"
    },
    {
      "channel": 1,
      "note": 49,
      "start": 41.1731,
      "duration": 0.1498,
      "velocity": 112,
      "chip": "ym2612"
    },
    {
      "channel": 3,
      "note": 67,
      "start": 41.1753,
      "duration": 0.066,
      "velocity": 107,
      "chip": "ym2612"
    },
    {
      "channel": 4,
      "note": 26,
      "start": 41.1759,
      "duration": 0.0129,
      "velocity": 109,
      "chip": "ym2612"
    },
    {
      "channel": 4,
      "note": 25,
      "start": 41.1888,
      "duration": 0.0167,
      "velocity": 109,
      "chip": "ym2612"
    },
    {
      "channel": 4,
      "note": 24,
      "start": 41.2055,
      "duration": 0.0167,
      "velocity": 109,
      "chip": "ym2612"
    },
    {
      "channel": 4,
      "note": 23,
      "start": 41.2222,
      "duration": 0.0199,
      "velocity": 109,
      "chip": "ym2612"
    },
    {
      "channel": 0,
      "note": 83,
      "start": 41.2392,
      "duration": 0.0832,
      "velocity": 103,
      "chip": "ym2612"
    },
    {
      "channel": 3,
      "note": 67,
      "start": 41.2415,
      "duration": 0.0837,
      "velocity": 107,
      "chip": "ym2612"
    },
    {
      "channel": 4,
      "note": 21,
      "start": 41.2421,
      "duration": 0.0301,
      "velocity": 109,
      "chip": "ym2612"
    },
    {
      "channel": 4,
      "note": 116,
      "start": 41.2722,
      "duration": 0.0167,
      "velocity": 109,
      "chip": "ym2612"
    },
    {
      "channel": 4,
      "note": 115,
      "start": 41.2888,
      "duration": 0.0167,
      "velocity": 109,
      "chip": "ym2612"
    },
    {
      "channel": 4,
      "note": 114,
      "start": 41.3055,
      "duration": 0.0207,
      "velocity": 109,
      "chip": "ym2612"
    },
    {
      "channel": 0,
      "note": 85,
      "start": 41.3226,
      "duration": 0.063,
      "velocity": 103,
      "chip": "ym2612"
    },
    {
      "channel": 1,
      "note": 37,
      "start": 41.3231,
      "duration": 0.1287,
      "velocity": 112,
      "chip": "ym2612"
    },
    {
      "channel": 3,
      "note": 67,
      "start": 41.3254,
      "duration": 0.1287,
      "velocity": 107,
      "chip": "ym2612"
    },
    {
      "channel": 4,
      "note": 113,
      "start": 41.3263,
      "duration": 0.0094,
      "velocity": 109,
      "chip": "ym2612"
    },
    {
      "channel": 4,
      "note": 112,
      "start": 41.3356,
      "duration": 0.0248,
      "velocity": 109,
      "chip": "ym2612"
    },
    {
      "channel": 4,
      "note": 111,
      "start": 41.3604,
      "duration": 0.0124,
      "velocity": 109,
      "chip": "ym2612"
    },
    {
      "channel": 4,
      "note": 110,
      "start": 41.3729,
      "duration": 0.0137,
      "velocity": 109,
      "chip": "ym2612"
    },
    {
      "channel": 0,
      "note": 83,
      "start": 41.3858,
      "duration": 0.0656,
      "velocity": 103,
      "chip": "ym2612"
    },
    {
      "channel": 4,
      "note": 109,
      "start": 41.3866,
      "duration": 0.0113,
      "velocity": 109,
      "chip": "ym2612"
    },
    {
      "channel": 4,
      "note": 108,
      "start": 41.3978,
      "duration": 0.0123,
      "velocity": 109,
      "chip": "ym2612"
    },
    {
      "channel": 4,
      "note": 107,
      "start": 41.4101,
      "duration": 0.0254,
      "velocity": 109,
      "chip": "ym2612"
    },
    {
      "channel": 4,
      "note": 105,
      "start": 41.4355,
      "duration": 0.0197,
      "velocity": 109,
      "chip": "ym2612"
    },
    {
      "channel": 0,
      "note": 85,
      "start": 41.4515,
      "duration": 0.0635,
      "velocity": 103,
      "chip": "ym2612"
    },
    {
      "channel": 1,
      "note": 47,
      "start": 41.452,
      "duration": 0.1145,
      "velocity": 112,
      "chip": "ym2612"
    },
    {
      "channel": 3,
      "note": 67,
      "start": 41.4543,
      "duration": 0.1144,
      "velocity": 107,
      "chip": "ym2612"
    },
    {
      "channel": 4,
      "note": 104,
      "start": 41.4551,
      "duration": 0.0095,
      "velocity": 109,
      "chip": "ym2612"
    },
    {
      "channel": 4,
      "note": 103,
      "start": 41.4646,
      "duration": 0.0127,
      "velocity": 109,
      "chip": "ym2612"
    },
    {
      "channel": 4,
      "note": 102,
      "start": 41.4773,
      "duration": 0.0127,
      "velocity": 109,
      "chip": "ym2612"
    },
    {
      "channel": 4,
      "note": 101,
      "start": 41.49,
      "duration": 0.0258,
      "velocity": 109,
      "chip": "ym2612"
    },
    {
      "channel": 0,
      "note": 83,
      "start": 41.5151,
      "duration": 0.0509,
      "velocity": 103,
      "chip": "ym2612"
    },
    {
      "channel": 4,
      "note": 100,
      "start": 41.5159,
      "duration": 0.0115,
      "velocity": 109,
      "chip": "ym2612"
    },
    {
      "channel": 4,
      "note": 99,
      "start": 41.5274,
      "duration": 0.0124,
      "velocity": 109,
      "chip": "ym2612"
    },
    {
      "channel": 4,
      "note": 98,
      "start": 41.5398,
      "duration": 0.0124,
      "velocity": 109,
      "chip": "ym2612"
    },
    {
      "channel": 4,
      "note": 97,
      "start": 41.5522,
      "duration": 0.0173,
      "velocity": 109,
      "chip": "ym2612"
    },
    {
      "channel": 0,
      "note": 85,
      "start": 41.5661,
      "duration": 0.0832,
      "velocity": 103,
      "chip": "ym2612"
    },
    {
      "channel": 1,
      "note": 49,
      "start": 41.5667,
      "duration": 0.1666,
      "velocity": 112,
      "chip": "ym2612"
    },
    {
      "channel": 3,
      "note": 67,
      "start": 41.5689,
      "duration": 0.0827,
      "velocity": 107,
      "chip": "ym2612"
    },
    {
      "channel": 4,
      "note": 96,
      "start": 41.5695,
      "duration": 0.0296,
      "velocity": 109,
      "chip": "ym2612"
    },
    {
      "channel": 4,
      "note": 95,
      "start": 41.5991,
      "duration": 0.0167,
      "velocity": 109,
      "chip": "ym2612"
    },
    {
      "channel": 4,
      "note": 93,
      "start": 41.6158,
      "duration": 0.0167,
      "velocity": 109,
      "chip": "ym2612"
    },
    {
      "channel": 4,
      "note": 92,
      "start": 41.6324,
      "duration": 0.0199,
      "velocity": 109,
      "chip": "ym2612"
    },
    {
      "channel": 0,
      "note": 83,
      "start": 41.6495,
      "duration": 0.0832,
      "velocity": 103,
      "chip": "ym2612"
    },
    {
      "channel": 3,
      "note": 67,
      "start": 41.6517,
      "duration": 0.0837,
      "velocity": 107,
      "chip": "ym2612"
    },
    {
      "channel": 4,
      "note": 91,
      "start": 41.6523,
      "duration": 0.0134,
      "velocity": 109,
      "chip": "ym2612"
    },
    {
      "channel": 4,
      "note": 90,
      "start": 41.6658,
      "duration": 0.0333,
      "velocity": 109,
      "chip": "ym2612"
    },
    {
      "channel": 4,
      "note": 89,
      "start": 41.6991,
      "duration": 0.0167,
      "velocity": 109,
      "chip": "ym2612"
    },
    {
      "channel": 4,
      "note": 88,
      "start": 41.7158,
      "duration": 0.0207,
      "velocity": 109,
      "chip": "ym2612"
    },
    {
      "channel": 0,
      "note": 85,
      "start": 41.7329,
      "duration": 0.0635,
      "velocity": 103,
      "chip": "ym2612"
    },
    {
      "channel": 1,
      "note": 52,
      "start": 41.7334,
      "duration": 0.1296,
      "velocity": 112,
      "chip": "ym2612"
    },
    {
      "channel": 3,
      "note": 67,
      "start": 41.7356,
      "duration": 0.1296,
      "velocity": 107,
      "chip": "ym2612"
    },
    {
      "channel": 4,
      "note": 87,
      "start": 41.7365,
      "duration": 0.0095,
      "velocity": 109,
      "chip": "ym2612"
    },
    {
      "channel": 4,
      "note": 86,
      "start": 41.746,
      "duration": 0.0127,
      "velocity": 109,
      "chip": "ym2612"
    },
    {
      "channel": 4,
      "note": 85,
      "start": 41.7587,
      "duration": 0.025,
      "velocity": 109,
      "chip": "ym2612"
    },
    {
      "channel": 4,
      "note": 84,
      "start": 41.7837,
      "duration": 0.0137,
      "velocity": 109,
      "chip": "ym2612"
    },
    {
      "channel": 0,
      "note": 83,
      "start": 41.7966,
      "duration": 0.0659,
      "velocity": 103,
      "chip": "ym2612"
    },
    {
      "channel": 4,
      "note": 83,
      "start": 41.7974,
      "duration": 0.0113,
      "velocity": 109,
      "chip": "ym2612"
    },
    {
      "channel": 4,
      "note": 81,
      "start": 41.8087,
      "duration": 0.0123,
      "velocity": 109,
      "chip": "ym2612"
    },
    {
      "channel": 4,
      "note": 80,
      "start": 41.8209,
      "duration": 0.0127,
      "velocity": 109,
      "chip": "ym2612"
    },
    {
      "channel": 4,
      "note": 79,
      "start": 41.8336,
      "duration": 0.0327,
      "velocity": 109,
      "chip": "ym2612"
    },
    {
      "channel": 0,
      "note": 85,
      "start": 41.8626,
      "duration": 0.5545,
      "velocity": 103,
      "chip": "ym2612"
    },
    {
      "channel": 1,
      "note": 37,
      "start": 41.8632,
      "duration": 0.1136,
      "velocity": 112,
      "chip": "ym2612"
    },
    {
      "channel": 3,
      "note": 67,
      "start": 41.8654,
      "duration": 0.1135,
      "velocity": 107,
      "chip": "ym2612"
    },
    {
      "channel": 4,
      "note": 78,
      "start": 41.8663,
      "duration": 0.0094,
      "velocity": 109,
      "chip": "ym2612"
    },
    {
      "channel": 4,
      "note": 77,
      "start": 41.8757,
      "duration": 0.0127,
      "velocity": 109,
      "chip": "ym2612"
    },
    {
      "channel": 4,
      "note": 76,
      "start": 41.8884,
      "duration": 0.0127,
      "velocity": 109,
      "chip": "ym2612"
    },
    {
      "channel": 4,
      "note": 75,
      "start": 41.9012,
      "duration": 0.0378,
      "velocity": 109,
      "chip": "ym2612"
    },
    {
      "channel": 4,
      "note": 74,
      "start": 41.939,
      "duration": 0.0127,
      "velocity": 109,
      "chip": "ym2612"
    },
    {
      "channel": 4,
      "note": 73,
      "start": 41.9517,
      "duration": 0.0122,
      "velocity": 109,
      "chip": "ym2612"
    },
    {
      "channel": 4,
      "note": 72,
      "start": 41.9638,
      "duration": 0.0158,
      "velocity": 109,
      "chip": "ym2612"
    },
    {
      "channel": 1,
      "note": 49,
      "start": 41.977,
      "duration": 0.1278,
      "velocity": 112,
      "chip": "ym2612"
    },
    {
      "channel": 3,
      "note": 67,
      "start": 41.9791,
      "duration": 0.0652,
      "velocity": 107,
      "chip": "ym2612"
    },
    {
      "channel": 4,
      "note": 74,
      "start": 41.9798,
      "duration": 0.0009,
      "velocity": 109,
      "chip": "ym2612"
    },
    {
      "channel": 4,
      "note": 73,
      "start": 41.9806,
      "duration": 0.0092,
      "velocity": 109,
      "chip": "ym2612"
    },
    {
      "channel": 4,
      "note": 72,
      "start": 41.9899,
      "duration": 0.0253,
      "velocity": 109,
      "chip": "ym2612"
    },
    {
      "channel": 4,
      "note": 70,
      "start": 42.0152,
      "duration": 0.0127,
      "velocity": 109,
      "chip": "ym2612"
    },
    {
      "channel": 4,
      "note": 69,
      "start": 42.0279,
      "duration": 0.0175,
      "velocity": 109,
      "chip": "ym2612"
    },
    {
      "channel": 3,
      "note": 67,
      "start": 42.0445,
      "duration": 0.0625,
      "velocity": 107,
      "chip": "ym2612"
    },
    {
      "channel": 4,
      "note": 68,
      "start": 42.0454,
      "duration": 0.0087,
      "velocity": 109,
      "chip": "ym2612"
    },
    {
      "channel": 4,
      "note": 67,
      "start": 42.0541,
      "duration": 0.0126,
      "velocity": 109,
      "chip": "ym2612"
    },
    {
      "channel": 4,
      "note": 66,
      "start": 42.0667,
      "duration": 0.0251,
      "velocity": 109,
      "chip": "ym2612"
    },
    {
      "channel": 4,
      "note": 65,
      "start": 42.0918,
      "duration": 0.0157,
      "velocity": 109,
      "chip": "ym2612"
    },
    {
      "channel": 1,
      "note": 37,
      "start": 42.105,
      "duration": 0.1136,
      "velocity": 112,
      "chip": "ym2612"
    },
    {
      "channel": 3,
      "note": 67,
      "start": 42.1072,
      "duration": 0.1135,
      "velocity": 107,
      "chip": "ym2612"
    },
    {
      "channel": 4,
      "note": 74,
      "start": 42.1078,
      "duration": 0.0008,
      "velocity": 109,
      "chip": "ym2612"
    },
    {
      "channel": 4,
      "note": 73,
      "start": 42.1086,
      "duration": 0.0093,
      "velocity": 109,
      "chip": "ym2612"
    },
    {
      "channel": 4,
      "note": 72,
      "start": 42.1179,
      "duration": 0.0125,
      "velocity": 109,
      "chip": "ym2612"
    },
    {
      "channel": 4,
      "note": 70,
      "start": 42.1303,
      "duration": 0.0127,
      "velocity": 109,
      "chip": "ym2612"
    },
    {
      "channel": 4,
      "note": 69,
      "start": 42.143,
      "duration": 0.0374,
      "velocity": 109,
      "chip": "ym2612"
    },
    {
      "channel": 4,
      "note": 68,
      "start": 42.1804,
      "duration": 0.0125,
      "velocity": 109,
      "chip": "ym2612"
    },
    {
      "channel": 4,
      "note": 67,
      "start": 42.1929,
      "duration": 0.0125,
      "velocity": 109,
      "chip": "ym2612"
    },
    {
      "channel": 4,
      "note": 66,
      "start": 42.2053,
      "duration": 0.0159,
      "velocity": 109,
      "chip": "ym2612"
    },
    {
      "channel": 1,
      "note": 47,
      "start": 42.2187,
      "duration": 0.1336,
      "velocity": 112,
      "chip": "ym2612"
    },
    {
      "channel": 3,
      "note": 67,
      "start": 42.2209,
      "duration": 0.1336,
      "velocity": 107,
      "chip": "ym2612"
    },
    {
      "channel": 4,
      "note": 69,
      "start": 42.2215,
      "duration": 0.0008,
      "velocity": 109,
      "chip": "ym2612"
    },
    {
      "channel": 4,
      "note": 68,
      "start": 42.2223,
      "duration": 0.0222,
      "velocity": 109,
      "chip": "ym2612"
    },
    {
      "channel": 4,
      "note": 67,
      "start": 42.2445,
      "duration": 0.0126,
      "velocity": 109,
      "chip": "ym2612"
    },
    {
      "channel": 4,
      "note": 66,
      "start": 42.2571,
      "duration": 0.0126,
      "velocity": 109,
      "chip": "ym2612"
    },
    {
      "channel": 4,
      "note": 65,
      "start": 42.2697,
      "duration": 0.0131,
      "velocity": 109,
      "chip": "ym2612"
    },
    {
      "channel": 4,
      "note": 69,
      "start": 42.283,
      "duration": 0.0005,
      "velocity": 109,
      "chip": "ym2612"
    },
    {
      "channel": 4,
      "note": 68,
      "start": 42.2835,
      "duration": 0.0118,
      "velocity": 109,
      "chip": "ym2612"
    },
    {
      "channel": 4,
      "note": 67,
      "start": 42.2953,
      "duration": 0.0245,
      "velocity": 109,
      "chip": "ym2612"
    },
    {
      "channel": 4,
      "note": 66,
      "start": 42.3198,
      "duration": 0.0139,
      "velocity": 109,
      "chip": "ym2612"
    },
    {
      "channel": 4,
      "note": 65,
      "start": 42.3337,
      "duration": 0.0213,
      "velocity": 109,
      "chip": "ym2612"
    },
    {
      "channel": 1,
      "note": 49,
      "start": 42.3524,
      "duration": 0.13,
      "velocity": 112,
      "chip": "ym2612"
    },
    {
      "channel": 3,
      "note": 67,
      "start": 42.3546,
      "duration": 0.0619,
      "velocity": 107,
      "chip": "ym2612"
    },
    {
      "channel": 4,
      "note": 69,
      "start": 42.3552,
      "duration": 0.0008,
      "velocity": 109,
      "chip": "ym2612"
    },
    {
      "channel": 4,
      "note": 68,
      "start": 42.356,
      "duration": 0.0085,
      "velocity": 109,
      "chip": "ym2612"
    },
    {
      "channel": 4,
      "note": 67,
      "start": 42.3645,
      "duration": 0.0127,
      "velocity": 109,
      "chip": "ym2612"
    },
    {
      "channel": 4,
      "note": 66,
      "start": 42.3772,
      "duration": 0.0247,
      "velocity": 109,
      "chip": "ym2612"
    },
    {
      "channel": 4,
      "note": 65,
      "start": 42.4019,
      "duration": 0.0156,
      "velocity": 109,
      "chip": "ym2612"
    },
    {
      "channel": 3,
      "note": 67,
      "start": 42.4166,
      "duration": 0.068,
      "velocity": 107,
      "chip": "ym2612"
    },
    {
      "channel": 0,
      "note": 84,
      "start": 42.4171,
      "duration": 0.0102,
      "velocity": 103,
      "chip": "ym2612"
    },
    {
      "channel": 4,
      "note": 64,
      "start": 42.4175,
      "duration": 0.0102,
      "velocity": 109,
      "chip": "ym2612"
    },
    {
      "channel": 0,
      "note": 84,
      "start": 42.4273,
      "duration": 0.0124,
      "velocity": 103,
      "chip": "ym2612"
    },
    {
      "channel": 4,
      "note": 63,
      "start": 42.4277,
      "duration": 0.0124,
      "velocity": 109,
      "chip": "ym2612"
    },
    {
      "channel": 0,
      "note": 83,
      "start": 42.4397,
      "duration": 0.0127,
      "velocity": 103,
      "chip": "ym2612"
    },
    {
      "channel": 4,
      "note": 62,
      "start": 42.4402,
      "duration": 0.0126,
      "velocity": 109,
      "chip": "ym2612"
    },
    {
      "channel": 0,
      "note": 82,
      "start": 42.4524,
      "duration": 0.0336,
      "velocity": 103,
      "chip": "ym2612"
    },
    {
      "channel": 4,
      "note": 61,
      "start": 42.4528,
      "duration": 0.0324,
      "velocity": 109,
      "chip": "ym2612"
    },
    {
      "channel": 1,
      "note": 54,
      "start": 42.4826,
      "duration": 0.1168,
      "velocity": 93,
      "chip": "ym2612"
    },
    {
      "channel": 3,
      "note": 67,
      "start": 42.4847,
      "duration": 0.1174,
      "velocity": 107,
      "chip": "ym2612"
    },
    {
      "channel": 4,
      "note": 69,
      "start": 42.4854,
      "duration": 0.5251,
      "velocity": 109,
      "chip": "ym2612"
    },
    {
      "channel": 0,
      "note": 81,
      "start": 42.486,
      "duration": 0.0092,
      "velocity": 103,
      "chip": "ym2612"
    },
    {
      "channel": 0,
      "note": 80,
      "start": 42.4952,
      "duration": 0.0124,
      "velocity": 103,
      "chip": "ym2612"
    },
    {
      "channel": 0,
      "note": 80,
      "start": 42.5076,
      "duration": 0.0124,
      "velocity": 103,
      "chip": "ym2612"
    },
    {
      "channel": 0,
      "note": 79,
      "start": 42.52,
      "duration": 0.0136,
      "velocity": 103,
      "chip": "ym2612"
    },
    {
      "channel": 0,
      "note": 79,
      "start": 42.5336,
      "duration": 0.0241,
      "velocity": 103,
      "chip": "ym2612"
    },
    {
      "channel": 0,
      "note": 78,
      "start": 42.5577,
      "duration": 0.0125,
      "velocity": 103,
      "chip": "ym2612"
    },
    {
      "channel": 0,
      "note": 78,
      "start": 42.5702,
      "duration": 0.0126,
      "velocity": 103,
      "chip": "ym2612"
    },
    {
      "channel": 0,
      "note": 77,
      "start": 42.5828,
      "duration": 0.0145,
      "velocity": 103,
      "chip": "ym2612"
    },
    {
      "channel": 0,
      "note": 75,
      "start": 42.5975,
      "duration": 0.1299,
      "velocity": 103,
      "chip": "ym2612"
    },
    {
      "channel": 1,
      "note": 39,
      "start": 42.5996,
      "duration": 0.2784,
      "velocity": 93,
      "chip": "ym2612"
    },
    {
      "channel": 2,
      "note": 51,
      "start": 42.6002,
      "duration": 0.543,
      "velocity": 124,
      "chip": "ym2612"
    },
    {
      "channel": 3,
      "note": 67,
      "start": 42.6023,
      "duration": 0.1273,
      "velocity": 107,
      "chip": "ym2612"
    },
    {
      "channel": 0,
      "note": 70,
      "start": 42.7276,
      "duration": 0.1499,
      "velocity": 103,
      "chip": "ym2612"
    },
    {
      "channel": 3,
      "note": 67,
      "start": 42.7298,
      "duration": 0.0826,
      "velocity": 107,
      "chip": "ym2612"
    },
    {
      "channel": 3,
      "note": 67,
      "start": 42.8127,
      "duration": 0.0676,
      "velocity": 107,
      "chip": "ym2612"
    },
    {
      "channel": 0,
      "note": 75,
      "start": 42.8776,
      "duration": 0.1295,
      "velocity": 103,
      "chip": "ym2612"
    },
    {
      "channel": 1,
      "note": 51,
      "start": 42.8782,
      "duration": 0.1295,
      "velocity": 93,
      "chip": "ym2612"
    },
    {
      "channel": 3,
      "note": 67,
      "start": 42.8804,
      "duration": 0.1294,
      "velocity": 107,
      "chip": "ym2612"
    },
    {
      "channel": 0,
      "note": 80,
      "start": 43.0072,
      "duration": 0.132,
      "velocity": 103,
      "chip": "ym2612"
    },
    {
      "channel": 1,
      "note": 49,
      "start": 43.0078,
      "duration": 0.132,
      "velocity": 93,
      "chip": "ym2612"
    },
    {
      "channel": 3,
      "note": 67,
      "start": 43.01,
      "duration": 0.1321,
      "velocity": 107,
      "chip": "ym2612"
    },
    {
      "channel": 4,
      "note": 74,
      "start": 43.0106,
      "duration": 0.0009,
      "velocity": 109,
      "chip": "ym2612"
    },
    {
      "channel": 4,
      "note": 73,
      "start": 43.0115,
      "duration": 0.0089,
      "velocity": 109,
      "chip": "ym2612"
    },
    {
      "channel": 4,
      "note": 72,
      "start": 43.0204,
      "duration": 0.0123,
      "velocity": 109,
      "chip": "ym2612"
    },
    {
      "channel": 4,
      "note": 70,
      "start": 43.0328,
      "duration": 0.0253,
      "velocity": 109,
      "chip": "ym2612"
    },
    {
      "channel": 4,
      "note": 69,
      "start": 43.0581,
      "duration": 0.0249,
      "velocity": 109,
      "chip": "ym2612"
    },
    {
      "channel": 4,
      "note": 68,
      "start": 43.083,
      "duration": 0.0127,
      "velocity": 109,
      "chip": "ym2612"
    },
    {
      "channel": 4,
      "note": 67,
      "start": 43.0957,
      "duration": 0.0124,
      "velocity": 109,
      "chip": "ym2612"
    },
    {
      "channel": 4,
      "note": 66,
      "start": 43.1081,
      "duration": 0.0345,
      "velocity": 109,
      "chip": "ym2612"
    },
    {
      "channel": 0,
      "note": 82,
      "start": 43.1394,
      "duration": 0.1498,
      "velocity": 103,
      "chip": "ym2612"
    },
    {
      "channel": 1,
      "note": 46,
      "start": 43.14,
      "duration": 0.1498,
      "velocity": 93,
      "chip": "ym2612"
    },
    {
      "channel": 3,
      "note": 67,
      "start": 43.1422,
      "duration": 0.0654,
      "velocity": 107,
      "chip": "ym2612"
    },
    {
      "channel": 4,
      "note": 69,
      "start": 43.1428,
      "duration": 0.0008,
      "velocity": 109,
      "chip": "ym2612"
    },
    {
      "channel": 2,
      "note": 51,
      "start": 43.1433,
      "duration": 0.0122,
      "velocity": 124,
      "chip": "ym2612"
    },
    {
      "channel": 4,
      "note": 68,
      "start": 43.1436,
      "duration": 0.0123,
      "velocity": 109,
      "chip": "ym2612"
    },
    {
      "channel": 2,
      "note": 51,
      "start": 43.1555,
      "duration": 0.0167,
      "velocity": 124,
      "chip": "ym2612"
    },
    {
      "channel": 4,
      "note": 67,
      "start": 43.1559,
      "duration": 0.0167,
      "velocity": 109,
      "chip": "ym2612"
    },
    {
      "channel": 2,
      "note": 51,
      "start": 43.1722,
      "duration": 0.0167,
      "velocity": 124,
      "chip": "ym2612"
    },
    {
      "channel": 4,
      "note": 66,
      "start": 43.1725,
      "duration": 0.0167,
      "velocity": 109,
      "chip": "ym2612"
    },
    {
      "channel": 2,
      "note": 50,
      "start": 43.1889,
      "duration": 0.0195,
      "velocity": 124,
      "chip": "ym2612"
    },
    {
      "channel": 4,
      "note": 65,
      "start": 43.1892,
      "duration": 0.0195,
      "velocity": 109,
      "chip": "ym2612"
    },
    {
      "channel": 3,
      "note": 67,
      "start": 43.2078,
      "duration": 0.0841,
      "velocity": 107,
      "chip": "ym2612"
    },
    {
      "channel": 2,
      "note": 50,
      "start": 43.2083,
      "duration": 0.0305,
      "velocity": 124,
      "chip": "ym2612"
    },
    {
      "channel": 4,
      "note": 64,
      "start": 43.2087,
      "duration": 0.0305,
      "velocity": 109,
      "chip": "ym2612"
    },
    {
      "channel": 2,
      "note": 50,
      "start": 43.2389,
      "duration": 0.0167,
      "velocity": 124,
      "chip": "ym2612"
    },
    {
      "channel": 4,
      "note": 63,
      "start": 43.2392,
      "duration": 0.0167,
      "velocity": 109,
      "chip": "ym2612"
    },
    {
      "channel": 2,
      "note": 50,
      "start": 43.2555,
      "duration": 0.0167,
      "velocity": 124,
      "chip": "ym2612"
    },
    {
      "channel": 4,
      "note": 62,
      "start": 43.2559,
      "duration": 0.0167,
      "velocity": 109,
      "chip": "ym2612"
    },
    {
      "channel": 2,
      "note": 50,
      "start": 43.2722,
      "duration": 0.0212,
      "velocity": 124,
      "chip": "ym2612"
    },
    {
      "channel": 4,
      "note": 61,
      "start": 43.2725,
      "duration": 0.02,
      "velocity": 109,
      "chip": "ym2612"
    },
    {
      "channel": 0,
      "note": 85,
      "start": 43.2894,
      "duration": 0.0639,
      "velocity": 103,
      "chip": "ym2612"
    },
    {
      "channel": 1,
      "note": 49,
      "start": 43.2899,
      "duration": 0.1299,
      "velocity": 93,
      "chip": "ym2612"
    },
    {
      "channel": 3,
      "note": 67,
      "start": 43.2921,
      "duration": 0.1303,
      "velocity": 107,
      "chip": "ym2612"
    },
    {
      "channel": 4,
      "note": 69,
      "start": 43.2927,
      "duration": 0.0011,
      "velocity": 109,
      "chip": "ym2612"
    },
    {
      "channel": 2,
      "note": 50,
      "start": 43.2934,
      "duration": 0.0092,
      "velocity": 124,
      "chip": "ym2612"
    },
    {
      "channel": 4,
      "note": 68,
      "start": 43.2938,
      "duration": 0.0092,
      "velocity": 109,
      "chip": "ym2612"
    },
    {
      "channel": 2,
      "note": 49,
      "start": 43.3026,
      "duration": 0.0249,
      "velocity": 124,
      "chip": "ym2612"
    },
    {
      "channel": 4,
      "note": 67,
      "start": 43.3029,
      "duration": 0.0249,
      "velocity": 109,
      "chip": "ym2612"
    },
    {
      "channel": 2,
      "note": 49,
      "start": 43.3275,
      "duration": 0.0127,
      "velocity": 124,
      "chip": "ym2612"
    },
    {
      "channel": 4,
      "note": 66,
      "start": 43.3278,
      "duration": 0.0127,
      "velocity": 109,
      "chip": "ym2612"
    },
    {
      "channel": 2,
      "note": 49,
      "start": 43.3402,
      "duration": 0.0139,
      "velocity": 124,
      "chip": "ym2612"
    },
    {
      "channel": 4,
      "note": 65,
      "start": 43.3406,
      "duration": 0.0139,
      "velocity": 109,
      "chip": "ym2612"
    },
    {
      "channel": 0,
      "note": 87,
      "start": 43.3535,
      "duration": 0.0658,
      "velocity": 103,
      "chip": "ym2612"
    },
    {
      "channel": 2,
      "note": 49,
      "start": 43.3541,
      "duration": 0.0116,
      "velocity": 124,
      "chip": "ym2612"
    },
    {
      "channel": 4,
      "note": 64,
      "start": 43.3545,
      "duration": 0.0115,
      "velocity": 109,
      "chip": "ym2612"
    },
    {
      "channel": 2,
      "note": 49,
      "start": 43.3657,
      "duration": 0.0124,
      "velocity": 124,
      "chip": "ym2612"
    },
    {
      "channel": 4,
      "note": 63,
      "start": 43.366,
      "duration": 0.0124,
      "velocity": 109,
      "chip": "ym2612"
    },
    {
      "channel": 2,
      "note": 49,
      "start": 43.3781,
      "duration": 0.0252,
      "velocity": 124,
      "chip": "ym2612"
    },
    {
      "channel": 4,
      "note": 62,
      "start": 43.3785,
      "duration": 0.0252,
      "velocity": 109,
      "chip": "ym2612"
    },
    {
      "channel": 2,
      "note": 48,
      "start": 43.4033,
      "duration": 0.0171,
      "velocity": 124,
      "chip": "ym2612"
    },
    {
      "channel": 4,
      "note": 61,
      "start": 43.4037,
      "duration": 0.0195,
      "velocity": 109,
      "chip": "ym2612"
    },
    {
      "channel": 0,
      "note": 85,
      "start": 43.4194,
      "duration": 0.0638,
      "velocity": 103,
      "chip": "ym2612"
    },
    {
      "channel": 1,
      "note": 37,
      "start": 43.42,
      "duration": 0.2429,
      "velocity": 93,
      "chip": "ym2612"
    },
    {
      "channel": 2,
      "note": 49,
      "start": 43.4205,
      "duration": 0.77,
      "velocity": 124,
      "chip": "ym2612"
    },
    {
      "channel": 3,
      "note": 67,
      "start": 43.4227,
      "duration": 0.1138,
      "velocity": 107,
      "chip": "ym2612"
    },
    {
      "channel": 4,
      "note": 74,
      "start": 43.4232,
      "duration": 0.0009,
      "velocity": 109,
      "chip": "ym2612"
    },
    {
      "channel": 4,
      "note": 73,
      "start": 43.4241,
      "duration": 0.0089,
      "velocity": 109,
      "chip": "ym2612"
    },
    {
      "channel": 4,
      "note": 72,
      "start": 43.4331,
      "duration": 0.0124,
      "velocity": 109,
      "chip": "ym2612"
    },
    {
      "channel": 4,
      "note": 70,
      "start": 43.4455,
      "duration": 0.0123,
      "velocity": 109,
      "chip": "ym2612"
    },
    {
      "channel": 4,
      "note": 69,
      "start": 43.4578,
      "duration": 0.0263,
      "velocity": 109,
      "chip": "ym2612"
    },
    {
      "channel": 0,
      "note": 87,
      "start": 43.4833,
      "duration": 0.0509,
      "velocity": 103,
      "chip": "ym2612"
    },
    {
      "channel": 4,
      "note": 68,
      "start": 43.4841,
      "duration": 0.0119,
      "velocity": 109,
      "chip": "ym2612"
    },
    {
      "channel": 4,
      "note": 67,
      "start": 43.4961,
      "duration": 0.0125,
      "velocity": 109,
      "chip": "ym2612"
    },
    {
      "channel": 4,
      "note": 66,
      "start": 43.5085,
      "duration": 0.0127,
      "velocity": 109,
      "chip": "ym2612"
    },
    {
      "channel": 4,
      "note": 65,
      "start": 43.5212,
      "duration": 0.0159,
      "velocity": 109,
      "chip": "ym2612"
    },
    {
      "channel": 0,
      "note": 85,
      "start": 43.5344,
      "duration": 0.0639,
      "velocity": 103,
      "chip": "ym2612"
    },
    {
      "channel": 3,
      "note": 67,
      "start": 43.5366,
      "duration": 0.0639,
      "velocity": 107,
      "chip": "ym2612"
    },
    {
      "channel": 4,
      "note": 69,
      "start": 43.5372,
      "duration": 0.0009,
      "velocity": 109,
      "chip": "ym2612"
    },
    {
      "channel": 4,
      "note": 68,
      "start": 43.5381,
      "duration": 0.0221,
      "velocity": 109,
      "chip": "ym2612"
    },
    {
      "channel": 4,
      "note": 67,
      "start": 43.5602,
      "duration": 0.0127,
      "velocity": 109,
      "chip": "ym2612"
    },
    {
      "channel": 4,
      "note": 66,
      "start": 43.5729,
      "duration": 0.0126,
      "velocity": 109,
      "chip": "ym2612"
    },
    {
      "channel": 4,
      "note": 65,
      "start": 43.5854,
      "duration": 0.0161,
      "velocity": 109,
      "chip": "ym2612"
    },
    {
      "channel": 0,
      "note": 87,
      "start": 43.5985,
      "duration": 0.0639,
      "velocity": 103,
      "chip": "ym2612"
    },
    {
      "channel": 3,
      "note": 67,
      "start": 43.6007,
      "duration": 0.0644,
      "velocity": 107,
      "chip": "ym2612"
    },
    {
      "channel": 4,
      "note": 64,
      "start": 43.6016,
      "duration": 0.0096,
      "velocity": 109,
      "chip": "ym2612"
    },
    {
      "channel": 4,
      "note": 63,
      "start": 43.6112,
      "duration": 0.0251,
      "velocity": 109,
      "chip": "ym2612"
    },
    {
      "channel": 4,
      "note": 62,
      "start": 43.6364,
      "duration": 0.0128,
      "velocity": 109,
      "chip": "ym2612"
    },
    {
      "channel": 4,
      "note": 61,
      "start": 43.6492,
      "duration": 0.0166,
      "velocity": 109,
      "chip": "ym2612"
    },
    {
      "channel": 0,
      "note": 85,
      "start": 43.6625,
      "duration": 0.064,
      "velocity": 103,
      "chip": "ym2612"
    },
    {
      "channel": 1,
      "note": 49,
      "start": 43.6631,
      "duration": 0.1292,
      "velocity": 93,
      "chip": "ym2612"
    },
    {
      "channel": 3,
      "note": 67,
      "start": 43.6653,
      "duration": 0.1307,
      "velocity": 107,
      "chip": "ym2612"
    },
    {
      "channel": 4,
      "note": 69,
      "start": 43.6659,
      "duration": 0.0008,
      "velocity": 109,
      "chip": "ym2612"
    },
    {
      "channel": 4,
      "note": 68,
      "start": 43.6667,
      "duration": 0.0093,
      "velocity": 109,
      "chip": "ym2612"
    },
    {
      "channel": 4,
      "note": 67,
      "start": 43.6761,
      "duration": 0.0124,
      "velocity": 109,
      "chip": "ym2612"
    },
    {
      "channel": 4,
      "note": 66,
      "start": 43.6885,
      "duration": 0.0253,
      "velocity": 109,
      "chip": "ym2612"
    },
    {
      "channel": 4,
      "note": 65,
      "start": 43.7138,
      "duration": 0.0137,
      "velocity": 109,
      "chip": "ym2612"
    },
    {
      "channel": 0,
      "note": 87,
      "start": 43.7268,
      "duration": 0.8731,
      "velocity": 103,
      "chip": "ym2612"
    },
    {
      "channel": 4,
      "note": 64,
      "start": 43.7275,
      "duration": 0.0116,
      "velocity": 109,
      "chip": "ym2612"
    },
    {
      "channel": 4,
      "note": 63,
      "start": 43.7391,
      "duration": 0.0125,
      "velocity": 109,
      "chip": "ym2612"
    },
    {
      "channel": 4,
      "note": 62,
      "start": 43.7516,
      "duration": 0.0127,
      "velocity": 109,
      "chip": "ym2612"
    },
    {
      "channel": 4,
      "note": 61,
      "start": 43.7643,
      "duration": 0.0329,
      "velocity": 109,
      "chip": "ym2612"
    },
    {
      "channel": 1,
      "note": 47,
      "start": 43.7925,
      "duration": 0.115,
      "velocity": 93,
      "chip": "ym2612"
    },
    {
      "channel": 3,
      "note": 67,
      "start": 43.7963,
      "duration": 0.1134,
      "velocity": 107,
      "chip": "ym2612"
    },
    {
      "channel": 4,
      "note": 60,
      "start": 43.7972,
      "duration": 0.0085,
      "velocity": 109,
      "chip": "ym2612"
    },
    {
      "channel": 4,
      "note": 58,
      "start": 43.8057,
      "duration": 0.0123,
      "velocity": 109,
      "chip": "ym2612"
    },
    {
      "channel": 4,
      "note": 57,
      "start": 43.818,
      "duration": 0.0127,
      "velocity": 109,
      "chip": "ym2612"
    },
    {
      "channel": 4,
      "note": 56,
      "start": 43.8307,
      "duration": 0.0373,
      "velocity": 109,
      "chip": "ym2612"
    },
    {
      "channel": 4,
      "note": 55,
      "start": 43.868,
      "duration": 0.0127,
      "velocity": 109,
      "chip": "ym2612"
    },
    {
      "channel": 4,
      "note": 54,
      "start": 43.8807,
      "duration": 0.0124,
      "velocity": 109,
      "chip": "ym2612"
    },
    {
      "channel": 4,
      "note": 53,
      "start": 43.8932,
      "duration": 0.0173,
      "velocity": 109,
      "chip": "ym2612"
    },
    {
      "channel": 1,
      "note": 49,
      "start": 43.9077,
      "duration": 0.1665,
      "velocity": 93,
      "chip": "ym2612"
    },
    {
      "channel": 3,
      "note": 67,
      "start": 43.9098,
      "duration": 0.0843,
      "velocity": 107,
      "chip": "ym2612"
    },
    {
      "channel": 4,
      "note": 52,
      "start": 43.9105,
      "duration": 0.0134,
      "velocity": 109,
      "chip": "ym2612"
    },
    {
      "channel": 4,
      "note": 51,
      "start": 43.9239,
      "duration": 0.0333,
      "velocity": 109,
      "chip": "ym2612"
    },
    {
      "channel": 4,
      "note": 50,
      "start": 43.9572,
      "duration": 0.0167,
      "velocity": 109,
      "chip": "ym2612"
    },
    {
      "channel": 4,
      "note": 49,
      "start": 43.9739,
      "duration": 0.021,
      "velocity": 109,
      "chip": "ym2612"
    },
    {
      "channel": 3,
      "note": 67,
      "start": 43.9943,
      "duration": 0.0821,
      "velocity": 107,
      "chip": "ym2612"
    },
    {
      "channel": 4,
      "note": 48,
      "start": 43.9949,
      "duration": 0.0123,
      "velocity": 109,
      "chip": "ym2612"
    },
    {
      "channel": 4,
      "note": 46,
      "start": 44.0072,
      "duration": 0.0167,
      "velocity": 109,
      "chip": "ym2612"
    },
    {
      "channel": 4,
      "note": 45,
      "start": 44.0239,
      "duration": 0.0333,
      "velocity": 109,
      "chip": "ym2612"
    },
    {
      "channel": 4,
      "note": 44,
      "start": 44.0572,
      "duration": 0.0202,
      "velocity": 109,
      "chip": "ym2612"
    },
    {
      "channel": 1,
      "note": 52,
      "start": 44.0744,
      "duration": 0.1139,
      "velocity": 93,
      "chip": "ym2612"
    },
    {
      "channel": 3,
      "note": 67,
      "start": 44.0766,
      "duration": 0.116,
      "velocity": 107,
      "chip": "ym2612"
    },
    {
      "channel": 4,
      "note": 43,
      "start": 44.0775,
      "duration": 0.0096,
      "velocity": 109,
      "chip": "ym2612"
    },
    {
      "channel": 4,
      "note": 42,
      "start": 44.0871,
      "duration": 0.0122,
      "velocity": 109,
      "chip": "ym2612"
    },
    {
      "channel": 4,
      "note": 41,
      "start": 44.0993,
      "duration": 0.0127,
      "velocity": 109,
      "chip": "ym2612"
    },
    {
      "channel": 4,
      "note": 40,
      "start": 44.112,
      "duration": 0.0378,
      "velocity": 109,
      "chip": "ym2612"
    },
    {
      "channel": 4,
      "note": 39,
      "start": 44.1499,
      "duration": 0.0125,
      "velocity": 109,
      "chip": "ym2612"
    },
    {
      "channel": 4,
      "note": 38,
      "start": 44.1624,
      "duration": 0.0127,
      "velocity": 109,
      "chip": "ym2612"
    },
    {
      "channel": 4,
      "note": 37,
      "start": 44.1751,
      "duration": 0.0186,
      "velocity": 109,
      "chip": "ym2612"
    },
    {
      "channel": 1,
      "note": 39,
      "start": 44.1885,
      "duration": 0.2961,
      "velocity": 93,
      "chip": "ym2612"
    },
    {
      "channel": 2,
      "note": 51,
      "start": 44.1906,
      "duration": 0.5433,
      "velocity": 124,
      "chip": "ym2612"
    },
    {
      "channel": 3,
      "note": 67,
      "start": 44.1928,
      "duration": 0.1267,
      "velocity": 107,
      "chip": "ym2612"
    },
    {
      "channel": 4,
      "note": 36,
      "start": 44.1937,
      "duration": 0.0204,
      "velocity": 109,
      "chip": "ym2612"
    },
    {
      "channel": 4,
      "note": 34,
      "start": 44.2141,
      "duration": 0.0122,
      "velocity": 109,
      "chip": "ym2612"
    },
    {
      "channel": 4,
      "note": 33,
      "start": 44.2263,
      "duration": 0.0125,
      "velocity": 109,
      "chip": "ym2612"
    },
    {
      "channel": 4,
      "note": 32,
      "start": 44.2388,
      "duration": 0.0252,
      "velocity": 109,
      "chip": "ym2612"
    },
    {
      "channel": 4,
      "note": 31,
      "start": 44.2639,
      "duration": 0.0251,
      "velocity": 109,
      "chip": "ym2612"
    },
    {
      "channel": 4,
      "note": 30,
      "start": 44.289,
      "duration": 0.0126,
      "velocity": 109,
      "chip": "ym2612"
    },
    {
      "channel": 4,
      "note": 29,
      "start": 44.3016,
      "duration": 0.0187,
      "velocity": 109,
      "chip": "ym2612"
    },
    {
      "channel": 3,
      "note": 67,
      "start": 44.3197,
      "duration": 0.0831,
      "velocity": 107,
      "chip": "ym2612"
    },
    {
      "channel": 4,
      "note": 28,
      "start": 44.3203,
      "duration": 0.014,
      "velocity": 109,
      "chip": "ym2612"
    },
    {
      "channel": 4,
      "note": 27,
      "start": 44.3343,
      "duration": 0.0167,
      "velocity": 109,
      "chip": "ym2612"
    },
    {
      "channel": 4,
      "note": 26,
      "start": 44.351,
      "duration": 0.0333,
      "velocity": 109,
      "chip": "ym2612"
    },
    {
      "channel": 4,
      "note": 25,
      "start": 44.3843,
      "duration": 0.0193,
      "velocity": 109,
      "chip": "ym2612"
    },
    {
      "channel": 3,
      "note": 67,
      "start": 44.4031,
      "duration": 0.0837,
      "velocity": 107,
      "chip": "ym2612"
    },
    {
      "channel": 4,
      "note": 24,
      "start": 44.4036,
      "duration": 0.014,
      "velocity": 109,
      "chip": "ym2612"
    },
    {
      "channel": 4,
      "note": 23,
      "start": 44.4176,
      "duration": 0.0167,
      "velocity": 109,
      "chip": "ym2612"
    },
    {
      "channel": 4,
      "note": 21,
      "start": 44.4343,
      "duration": 0.0167,
      "velocity": 109,
      "chip": "ym2612"
    },
    {
      "channel": 4,
      "note": 116,
      "start": 44.451,
      "duration": 0.0369,
      "velocity": 109,
      "chip": "ym2612"
    },
    {
      "channel": 1,
      "note": 51,
      "start": 44.4847,
      "duration": 0.1157,
      "velocity": 93,
      "chip": "ym2612"
    },
    {
      "channel": 3,
      "note": 67,
      "start": 44.487,
      "duration": 0.1156,
      "velocity": 107,
      "chip": "ym2612"
    },
    {
      "channel": 4,
      "note": 115,
      "start": 44.4878,
      "duration": 0.0097,
      "velocity": 109,
      "chip": "ym2612"
    },
    {
      "channel": 4,
      "note": 114,
      "start": 44.4976,
      "duration": 0.0125,
      "velocity": 109,
      "chip": "ym2612"
    },
    {
      "channel": 4,
      "note": 113,
      "start": 44.5101,
      "duration": 0.0127,
      "velocity": 109,
      "chip": "ym2612"
    },
    {
      "channel": 4,
      "note": 112,
      "start": 44.5228,
      "duration": 0.0376,
      "velocity": 109,
      "chip": "ym2612"
    },
    {
      "channel": 4,
      "note": 111,
      "start": 44.5603,
      "duration": 0.0127,
      "velocity": 109,
      "chip": "ym2612"
    },
    {
      "channel": 4,
      "note": 110,
      "start": 44.573,
      "duration": 0.0127,
      "velocity": 109,
      "chip": "ym2612"
    },
    {
      "channel": 4,
      "note": 109,
      "start": 44.5857,
      "duration": 0.018,
      "velocity": 109,
      "chip": "ym2612"
    },
    {
      "channel": 0,
      "note": 92,
      "start": 44.6001,
      "duration": 0.1304,
      "velocity": 103,
      "chip": "ym2612"
    },
    {
      "channel": 1,
      "note": 49,
      "start": 44.6006,
      "duration": 0.1304,
      "velocity": 93,
      "chip": "ym2612"
    },
    {
      "channel": 3,
      "note": 67,
      "start": 44.6028,
      "duration": 0.1305,
      "velocity": 107,
      "chip": "ym2612"
    },
    {
      "channel": 4,
      "note": 108,
      "start": 44.6037,
      "duration": 0.0085,
      "velocity": 109,
      "chip": "ym2612"
    },
    {
      "channel": 4,
      "note": 107,
      "start": 44.6122,
      "duration": 0.025,
      "velocity": 109,
      "chip": "ym2612"
    },
    {
      "channel": 4,
      "note": 105,
      "start": 44.6372,
      "duration": 0.0122,
      "velocity": 109,
      "chip": "ym2612"
    },
    {
      "channel": 4,
      "note": 104,
      "start": 44.6494,
      "duration": 0.0252,
      "velocity": 109,
      "chip": "ym2612"
    },
    {
      "channel": 4,
      "note": 103,
      "start": 44.6746,
      "duration": 0.0125,
      "velocity": 109,
      "chip": "ym2612"
    },
    {
      "channel": 4,
      "note": 102,
      "start": 44.6871,
      "duration": 0.0264,
      "velocity": 109,
      "chip": "ym2612"
    },
    {
      "channel": 4,
      "note": 101,
      "start": 44.7135,
      "duration": 0.0208,
      "velocity": 109,
      "chip": "ym2612"
    },
    {
      "channel": 0,
      "note": 91,
      "start": 44.7306,
      "duration": 0.1498,
      "velocity": 103,
      "chip": "ym2612"
    },
    {
      "channel": 1,
      "note": 46,
      "start": 44.7311,
      "duration": 0.1499,
      "velocity": 93,
      "chip": "ym2612"
    },
    {
      "channel": 3,
      "note": 67,
      "start": 44.7334,
      "duration": 0.0821,
      "velocity": 107,
      "chip": "ym2612"
    },
    {
      "channel": 2,
      "note": 51,
      "start": 44.7339,
      "duration": 0.0128,
      "velocity": 124,
      "chip": "ym2612"
    },
    {
      "channel": 4,
      "note": 100,
      "start": 44.7343,
      "duration": 0.0128,
      "velocity": 109,
      "chip": "ym2612"
    },
    {
      "channel": 2,
      "note": 51,
      "start": 44.7467,
      "duration": 0.0167,
      "velocity": 124,
      "chip": "ym2612"
    },
    {
      "channel": 4,
      "note": 99,
      "start": 44.7471,
      "duration": 0.0167,
      "velocity": 109,
      "chip": "ym2612"
    },
    {
      "channel": 2,
      "note": 51,
      "start": 44.7634,
      "duration": 0.0167,
      "velocity": 124,
      "chip": "ym2612"
    },
    {
      "channel": 4,
      "note": 98,
      "start": 44.7638,
      "duration": 0.0167,
      "velocity": 109,
      "chip": "ym2612"
    },
    {
      "channel": 2,
      "note": 52,
      "start": 44.7801,
      "duration": 0.0361,
      "velocity": 124,
      "chip": "ym2612"
    },
    {
      "channel": 4,
      "note": 97,
      "start": 44.7804,
      "duration": 0.0361,
      "velocity": 109,
      "chip": "ym2612"
    },
    {
      "channel": 3,
      "note": 67,
      "start": 44.8157,
      "duration": 0.0675,
      "velocity": 107,
      "chip": "ym2612"
    },
    {
      "channel": 2,
      "note": 52,
      "start": 44.8162,
      "duration": 0.0139,
      "velocity": 124,
      "chip": "ym2612"
    },
    {
      "channel": 4,
      "note": 96,
      "start": 44.8166,
      "duration": 0.0139,
      "velocity": 109,
      "chip": "ym2612"
    },
    {
      "channel": 2,
      "note": 52,
      "start": 44.8301,
      "duration": 0.0167,
      "velocity": 124,
      "chip": "ym2612"
    },
    {
      "channel": 4,
      "note": 95,
      "start": 44.8304,
      "duration": 0.0167,
      "velocity": 109,
      "chip": "ym2612"
    },
    {
      "channel": 2,
      "note": 52,
      "start": 44.8468,
      "duration": 0.0167,
      "velocity": 124,
      "chip": "ym2612"
    },
    {
      "channel": 4,
      "note": 93,
      "start": 44.8471,
      "duration": 0.0167,
      "velocity": 109,
      "chip": "ym2612"
    },
    {
      "channel": 2,
      "note": 52,
      "start": 44.8634,
      "duration": 0.0207,
      "velocity": 124,
      "chip": "ym2612"
    },
    {
      "channel": 4,
      "note": 92,
      "start": 44.8638,
      "duration": 0.0207,
      "velocity": 109,
      "chip": "ym2612"
    },
    {
      "channel": 0,
      "note": 85,
      "start": 44.8806,
      "duration": 0.0638,
      "velocity": 103,
      "chip": "ym2612"
    },
    {
      "channel": 1,
      "note": 49,
      "start": 44.8811,
      "duration": 0.1295,
      "velocity": 93,
      "chip": "ym2612"
    },
    {
      "channel": 3,
      "note": 67,
      "start": 44.8834,
      "duration": 0.1299,
      "velocity": 107,
      "chip": "ym2612"
    },
    {
      "channel": 2,
      "note": 52,
      "start": 44.8842,
      "duration": 0.0219,
      "velocity": 124,
      "chip": "ym2612"
    },
    {
      "channel": 4,
      "note": 91,
      "start": 44.8845,
      "duration": 0.022,
      "velocity": 109,
      "chip": "ym2612"
    },
    {
      "channel": 2,
      "note": 52,
      "start": 44.9061,
      "duration": 0.0124,
      "velocity": 124,
      "chip": "ym2612"
    },
    {
      "channel": 4,
      "note": 90,
      "start": 44.9064,
      "duration": 0.0124,
      "velocity": 109,
      "chip": "ym2612"
    },
    {
      "channel": 2,
      "note": 53,
      "start": 44.9185,
      "duration": 0.0124,
      "velocity": 124,
      "chip": "ym2612"
    },
    {
      "channel": 4,
      "note": 89,
      "start": 44.9189,
      "duration": 0.0125,
      "velocity": 109,
      "chip": "ym2612"
    },
    {
      "channel": 2,
      "note": 53,
      "start": 44.931,
      "duration": 0.0137,
      "velocity": 124,
      "chip": "ym2612"
    },
    {
      "channel": 4,
      "note": 88,
      "start": 44.9314,
      "duration": 0.0137,
      "velocity": 109,
      "chip": "ym2612"
    },
    {
      "channel": 0,
      "note": 86,
      "start": 44.9444,
      "duration": 0.0122,
      "velocity": 103,
      "chip": "ym2612"
    },
    {
      "channel": 2,
      "note": 53,
      "start": 44.9447,
      "duration": 0.0122,
      "velocity": 124,
      "chip": "ym2612"
    },
    {
      "channel": 4,
      "note": 87,
      "start": 44.945,
      "duration": 0.0122,
      "velocity": 109,
      "chip": "ym2612"
    },
    {
      "channel": 0,
      "note": 86,
      "start": 44.9566,
      "duration": 0.0249,
      "velocity": 103,
      "chip": "ym2612"
    },
    {
      "channel": 2,
      "note": 53,
      "start": 44.9569,
      "duration": 0.0249,
      "velocity": 124,
      "chip": "ym2612"
    },
    {
      "channel": 4,
      "note": 86,
      "start": 44.9572,
      "duration": 0.0249,
      "velocity": 109,
      "chip": "ym2612"
    },
    {
      "channel": 0,
      "note": 86,
      "start": 44.9815,
      "duration": 0.0124,
      "velocity": 103,
      "chip": "ym2612"
    },
    {
      "channel": 2,
      "note": 53,
      "start": 44.9818,
      "duration": 0.0124,
      "velocity": 124,
      "chip": "ym2612"
    },
    {
      "channel": 4,
      "note": 85,
      "start": 44.9821,
      "duration": 0.0124,
      "velocity": 109,
      "chip": "ym2612"
    },
    {
      "channel": 0,
      "note": 87,
      "start": 44.9939,
      "duration": 0.0161,
      "velocity": 103,
      "chip": "ym2612"
    },
    {
      "channel": 2,
      "note": 53,
      "start": 44.9942,
      "duration": 0.0169,
      "velocity": 124,
      "chip": "ym2612"
    },
    {
      "channel": 4,
      "note": 84,
      "start": 44.9946,
      "duration": 0.0198,
      "velocity": 109,
      "chip": "ym2612"
    },
    {
      "channel": 0,
      "note": 87,
      "start": 45.0102,
      "duration": 0.3808,
      "velocity": 103,
      "chip": "ym2612"
    },
    {
      "channel": 1,
      "note": 37,
      "start": 45.0108,
      "duration": 0.1295,
      "velocity": 93,
      "chip": "ym2612"
    },
    {
      "channel": 2,
      "note": 52,
      "start": 45.0113,
      "duration": 0.7571,
      "velocity": 124,
      "chip": "ym2612"
    },
    {
      "channel": 3,
      "note": 67,
      "start": 45.0134,
      "duration": 0.129,
      "velocity": 107,
      "chip": "ym2612"
    },
    {
      "channel": 4,
      "note": 83,
      "start": 45.0143,
      "duration": 0.0087,
      "velocity": 109,
      "chip": "ym2612"
    },
    {
      "channel": 4,
      "note": 81,
      "start": 45.023,
      "duration": 0.0127,
      "velocity": 109,
      "chip": "ym2612"
    },
    {
      "channel": 4,
      "note": 80,
      "start": 45.0356,
      "duration": 0.0251,
      "velocity": 109,
      "chip": "ym2612"
    },
    {
      "channel": 4,
      "note": 79,
      "start": 45.0607,
      "duration": 0.0252,
      "velocity": 109,
      "chip": "ym2612"
    },
    {
      "channel": 4,
      "note": 78,
      "start": 45.0859,
      "duration": 0.0128,
      "velocity": 109,
      "chip": "ym2612"
    },
    {
      "channel": 4,
      "note": 77,
      "start": 45.0987,
      "duration": 0.0128,
      "velocity": 109,
      "chip": "ym2612"
    },
    {
      "channel": 4,
      "note": 76,
      "start": 45.1115,
      "duration": 0.0317,
      "velocity": 109,
      "chip": "ym2612"
    },
    {
      "channel": 1,
      "note": 49,
      "start": 45.1405,
      "duration": 0.1147,
      "velocity": 93,
      "chip": "ym2612"
    },
    {
      "channel": 3,
      "note": 67,
      "start": 45.1427,
      "duration": 0.0505,
      "velocity": 107,
      "chip": "ym2612"
    },
    {
      "channel": 4,
      "note": 74,
      "start": 45.1433,
      "duration": 0.0009,
      "velocity": 109,
      "chip": "ym2612"
    },
    {
      "channel": 4,
      "note": 73,
      "start": 45.1442,
      "duration": 0.0092,
      "velocity": 109,
      "chip": "ym2612"
    },
    {
      "channel": 4,
      "note": 72,
      "start": 45.1534,
      "duration": 0.0123,
      "velocity": 109,
      "chip": "ym2612"
    },
    {
      "channel": 4,
      "note": 70,
      "start": 45.1657,
      "duration": 0.0127,
      "velocity": 109,
      "chip": "ym2612"
    },
    {
      "channel": 4,
      "note": 69,
      "start": 45.1784,
      "duration": 0.0158,
      "velocity": 109,
      "chip": "ym2612"
    },
    {
      "channel": 3,
      "note": 67,
      "start": 45.1933,
      "duration": 0.0641,
      "velocity": 107,
      "chip": "ym2612"
    },
    {
      "channel": 4,
      "note": 68,
      "start": 45.1942,
      "duration": 0.0225,
      "velocity": 109,
      "chip": "ym2612"
    },
    {
      "channel": 4,
      "note": 67,
      "start": 45.2167,
      "duration": 0.0124,
      "velocity": 109,
      "chip": "ym2612"
    },
    {
      "channel": 4,
      "note": 66,
      "start": 45.2291,
      "duration": 0.0127,
      "velocity": 109,
      "chip": "ym2612"
    },
    {
      "channel": 4,
      "note": 65,
      "start": 45.2419,
      "duration": 0.0161,
      "velocity": 109,
      "chip": "ym2612"
    },
    {
      "channel": 1,
      "note": 47,
      "start": 45.2554,
      "duration": 0.1304,
      "velocity": 93,
      "chip": "ym2612"
    },
    {
      "channel": 3,
      "note": 67,
      "start": 45.2576,
      "duration": 0.132,
      "velocity": 107,
      "chip": "ym2612"
    },
    {
      "channel": 4,
      "note": 74,
      "start": 45.2581,
      "duration": 0.0008,
      "velocity": 109,
      "chip": "ym2612"
    },
    {
      "channel": 4,
      "note": 73,
      "start": 45.259,
      "duration": 0.0098,
      "velocity": 109,
      "chip": "ym2612"
    },
    {
      "channel": 4,
      "note": 72,
      "start": 45.2688,
      "duration": 0.0248,
      "velocity": 109,
      "chip": "ym2612"
    },
    {
      "channel": 4,
      "note": 70,
      "start": 45.2936,
      "duration": 0.0127,
      "velocity": 109,
      "chip": "ym2612"
    },
    {
      "channel": 4,
      "note": 69,
      "start": 45.3063,
      "duration": 0.0251,
      "velocity": 109,
      "chip": "ym2612"
    },
    {
      "channel": 4,
      "note": 68,
      "start": 45.3313,
      "duration": 0.0125,
      "velocity": 109,
      "chip": "ym2612"
    },
    {
      "channel": 4,
      "note": 67,
      "start": 45.3438,
      "duration": 0.0255,
      "velocity": 109,
      "chip": "ym2612"
    },
    {
      "channel": 4,
      "note": 66,
      "start": 45.3693,
      "duration": 0.0209,
      "velocity": 109,
      "chip": "ym2612"
    },
    {
      "channel": 1,
      "note": 42,
      "start": 45.386,
      "duration": 0.1157,
      "velocity": 93,
      "chip": "ym2612"
    },
    {
      "channel": 3,
      "note": 67,
      "start": 45.3897,
      "duration": 0.1141,
      "velocity": 107,
      "chip": "ym2612"
    },
    {
      "channel": 4,
      "note": 69,
      "start": 45.3903,
      "duration": 0.0012,
      "velocity": 109,
      "chip": "ym2612"
    },
    {
      "channel": 0,
      "note": 87,
      "start": 45.391,
      "duration": 0.0082,
      "velocity": 103,
      "chip": "ym2612"
    },
    {
      "channel": 4,
      "note": 68,
      "start": 45.3915,
      "duration": 0.0082,
      "velocity": 109,
      "chip": "ym2612"
    },
    {
      "channel": 0,
      "note": 87,
      "start": 45.3992,
      "duration": 0.0127,
      "velocity": 103,
      "chip": "ym2612"
    },
    {
      "channel": 4,
      "note": 67,
      "start": 45.3997,
      "duration": 0.0127,
      "velocity": 109,
      "chip": "ym2612"
    },
    {
      "channel": 0,
      "note": 87,
      "start": 45.412,
      "duration": 0.0125,
      "velocity": 103,
      "chip": "ym2612"
    },
    {
      "channel": 4,
      "note": 66,
      "start": 45.4124,
      "duration": 0.0125,
      "velocity": 109,
      "chip": "ym2612"
    },
    {
      "channel": 0,
      "note": 86,
      "start": 45.4244,
      "duration": 0.0267,
      "velocity": 103,
      "chip": "ym2612"
    },
    {
      "channel": 4,
      "note": 65,
      "start": 45.4249,
      "duration": 0.0257,
      "velocity": 109,
      "chip": "ym2612"
    },
    {
      "channel": 4,
      "note": 69,
      "start": 45.4508,
      "duration": 0.0007,
      "velocity": 109,
      "chip": "ym2612"
    },
    {
      "channel": 0,
      "note": 86,
      "start": 45.4511,
      "duration": 0.0117,
      "velocity": 103,
      "chip": "ym2612"
    },
    {
      "channel": 4,
      "note": 68,
      "start": 45.4515,
      "duration": 0.0116,
      "velocity": 109,
      "chip": "ym2612"
    },
    {
      "channel": 0,
      "note": 86,
      "start": 45.4628,
      "duration": 0.0127,
      "velocity": 103,
      "chip": "ym2612"
    },
    {
      "channel": 4,
      "note": 67,
      "start": 45.4632,
      "duration": 0.0127,
      "velocity": 109,
      "chip": "ym2612"
    },
    {
      "channel": 0,
      "note": 86,
      "start": 45.4755,
      "duration": 0.0126,
      "velocity": 103,
      "chip": "ym2612"
    },
    {
      "channel": 4,
      "note": 66,
      "start": 45.4759,
      "duration": 0.0126,
      "velocity": 109,
      "chip": "ym2612"
    },
    {
      "channel": 0,
      "note": 86,
      "start": 45.4881,
      "duration": 0.0172,
      "velocity": 103,
      "chip": "ym2612"
    },
    {
      "channel": 4,
      "note": 65,
      "start": 45.4885,
      "duration": 0.0159,
      "velocity": 109,
      "chip": "ym2612"
    },
    {
      "channel": 1,
      "note": 44,
      "start": 45.5018,
      "duration": 0.1322,
      "velocity": 93,
      "chip": "ym2612"
    },
    {
      "channel": 3,
      "note": 67,
      "start": 45.504,
      "duration": 0.0634,
      "velocity": 107,
      "chip": "ym2612"
    },
    {
      "channel": 4,
      "note": 69,
      "start": 45.5046,
      "duration": 0.0011,
      "velocity": 109,
      "chip": "ym2612"
    },
    {
      "channel": 0,
      "note": 86,
      "start": 45.5053,
      "duration": 0.0223,
      "velocity": 103,
      "chip": "ym2612"
    },
    {
      "channel": 4,
      "note": 68,
      "start": 45.5057,
      "duration": 0.0223,
      "velocity": 109,
      "chip": "ym2612"
    },
    {
      "channel": 0,
      "note": 85,
      "start": 45.5276,
      "duration": 0.0124,
      "velocity": 103,
      "chip": "ym2612"
    },
    {
      "channel": 4,
      "note": 67,
      "start": 45.528,
      "duration": 0.0124,
      "velocity": 109,
      "chip": "ym2612"
    },
    {
      "channel": 0,
      "note": 85,
      "start": 45.54,
      "duration": 0.0126,
      "velocity": 103,
      "chip": "ym2612"
    },
    {
      "channel": 4,
      "note": 66,
      "start": 45.5404,
      "duration": 0.0126,
      "velocity": 109,
      "chip": "ym2612"
    },
    {
      "channel": 0,
      "note": 85,
      "start": 45.5526,
      "duration": 0.0154,
      "velocity": 103,
      "chip": "ym2612"
    },
    {
      "channel": 4,
      "note": 65,
      "start": 45.553,
      "duration": 0.0154,
      "velocity": 109,
      "chip": "ym2612"
    },
    {
      "channel": 3,
      "note": 67,
      "start": 45.5676,
      "duration": 0.0686,
      "velocity": 107,
      "chip": "ym2612"
    },
    {
      "channel": 0,
      "note": 85,
      "start": 45.568,
      "duration": 0.0105,
      "velocity": 103,
      "chip": "ym2612"
    },
    {
      "channel": 4,
      "note": 64,
      "start": 45.5684,
      "duration": 0.0105,
      "velocity": 109,
      "chip": "ym2612"
    },
    {
      "channel": 0,
      "note": 85,
      "start": 45.5785,
      "duration": 0.0251,
      "velocity": 103,
      "chip": "ym2612"
    },
    {
      "channel": 4,
      "note": 63,
      "start": 45.579,
      "duration": 0.0251,
      "velocity": 109,
      "chip": "ym2612"
    },
    {
      "channel": 0,
      "note": 85,
      "start": 45.6036,
      "duration": 0.0133,
      "velocity": 103,
      "chip": "ym2612"
    },
    {
      "channel": 4,
      "note": 62,
      "start": 45.6041,
      "duration": 0.0133,
      "velocity": 109,
      "chip": "ym2612"
    },
    {
      "channel": 0,
      "note": 84,
      "start": 45.6169,
      "duration": 0.0208,
      "velocity": 103,
      "chip": "ym2612"
    },
    {
      "channel": 4,
      "note": 61,
      "start": 45.6173,
      "duration": 0.0195,
      "velocity": 109,
      "chip": "ym2612"
    },
    {
      "channel": 1,
      "note": 47,
      "start": 45.6342,
      "duration": 0.1321,
      "velocity": 93,
      "chip": "ym2612"
    },
    {
      "channel": 3,
      "note": 67,
      "start": 45.6364,
      "duration": 0.1341,
      "velocity": 107,
      "chip": "ym2612"
    },
    {
      "channel": 4,
      "note": 69,
      "start": 45.637,
      "duration": 0.5247,
      "velocity": 109,
      "chip": "ym2612"
    },
    {
      "channel": 0,
      "note": 84,
      "start": 45.6377,
      "duration": 0.0096,
      "velocity": 103,
      "chip": "ym2612"
    },
    {
      "channel": 0,
      "note": 84,
      "start": 45.6473,
      "duration": 0.0123,
      "velocity": 103,
      "chip": "ym2612"
    },
    {
      "channel": 0,
      "note": 84,
      "start": 45.6596,
      "duration": 0.0249,
      "velocity": 103,
      "chip": "ym2612"
    },
    {
      "channel": 0,
      "note": 84,
      "start": 45.6845,
      "duration": 0.0135,
      "velocity": 103,
      "chip": "ym2612"
    },
    {
      "channel": 0,
      "note": 84,
      "start": 45.698,
      "duration": 0.0117,
      "velocity": 103,
      "chip": "ym2612"
    },
    {
      "channel": 0,
      "note": 83,
      "start": 45.7097,
      "duration": 0.0122,
      "velocity": 103,
      "chip": "ym2612"
    },
    {
      "channel": 0,
      "note": 83,
      "start": 45.7219,
      "duration": 0.0124,
      "velocity": 103,
      "chip": "ym2612"
    },
    {
      "channel": 0,
      "note": 83,
      "start": 45.7343,
      "duration": 0.0313,
      "velocity": 103,
      "chip": "ym2612"
    },
    {
      "channel": 0,
      "note": 75,
      "start": 45.7658,
      "duration": 0.1129,
      "velocity": 103,
      "chip": "ym2612"
    },
    {
      "channel": 1,
      "note": 39,
      "start": 45.7664,
      "duration": 0.279,
      "velocity": 93,
      "chip": "ym2612"
    },
    {
      "channel": 2,
      "note": 51,
      "start": 45.7685,
      "duration": 0.5261,
      "velocity": 124,
      "chip": "ym2612"
    },
    {
      "channel": 3,
      "note": 67,
      "start": 45.7707,
      "duration": 0.1103,
      "velocity": 107,
      "chip": "ym2612"
    },
    {
      "channel": 0,
      "note": 70,
      "start": 45.8789,
      "duration": 0.1659,
      "velocity": 103,
      "chip": "ym2612"
    },
    {
      "channel": 3,
      "note": 67,
      "start": 45.8811,
      "duration": 0.082,
      "velocity": 107,
      "chip": "ym2612"
    },
    {
      "channel": 3,
      "note": 67,
      "start": 45.9633,
      "duration": 0.0842,
      "velocity": 107,
      "chip": "ym2612"
    },
    {
      "channel": 0,
      "note": 75,
      "start": 46.045,
      "duration": 0.1133,
      "velocity": 103,
      "chip": "ym2612"
    },
    {
      "channel": 1,
      "note": 51,
      "start": 46.0455,
      "duration": 0.1134,
      "velocity": 93,
      "chip": "ym2612"
    },
    {
      "channel": 3,
      "note": 67,
      "start": 46.0477,
      "duration": 0.1133,
      "velocity": 107,
      "chip": "ym2612"
    },
    {
      "channel": 0,
      "note": 80,
      "start": 46.1585,
      "duration": 0.1322,
      "velocity": 103,
      "chip": "ym2612"
    },
    {
      "channel": 1,
      "note": 49,
      "start": 46.159,
      "duration": 0.1322,
      "velocity": 93,
      "chip": "ym2612"
    },
    {
      "channel": 3,
      "note": 67,
      "start": 46.1612,
      "duration": 0.1323,
      "velocity": 107,
      "chip": "ym2612"
    },
    {
      "channel": 4,
      "note": 74,
      "start": 46.1618,
      "duration": 0.0009,
      "velocity": 109,
      "chip": "ym2612"
    },
    {
      "channel": 4,
      "note": 73,
      "start": 46.1627,
      "duration": 0.0215,
      "velocity": 109,
      "chip": "ym2612"
    },
    {
      "channel": 4,
      "note": 72,
      "start": 46.1842,
      "duration": 0.0127,
      "velocity": 109,
      "chip": "ym2612"
    },
    {
      "channel": 4,
      "note": 70,
      "start": 46.1969,
      "duration": 0.0125,
      "velocity": 109,
      "chip": "ym2612"
    },
    {
      "channel": 4,
      "note": 69,
      "start": 46.2095,
      "duration": 0.0249,
      "velocity": 109,
      "chip": "ym2612"
    },
    {
      "channel": 4,
      "note": 68,
      "start": 46.2343,
      "duration": 0.025,
      "velocity": 109,
      "chip": "ym2612"
    },
    {
      "channel": 4,
      "note": 67,
      "start": 46.2593,
      "duration": 0.0143,
      "velocity": 109,
      "chip": "ym2612"
    },
    {
      "channel": 4,
      "note": 66,
      "start": 46.2737,
      "duration": 0.0204,
      "velocity": 109,
      "chip": "ym2612"
    },
    {
      "channel": 0,
      "note": 82,
      "start": 46.2908,
      "duration": 0.1665,
      "velocity": 103,
      "chip": "ym2612"
    },
    {
      "channel": 1,
      "note": 46,
      "start": 46.2914,
      "duration": 0.1665,
      "velocity": 93,
      "chip": "ym2612"
    },
    {
      "channel": 3,
      "note": 67,
      "start": 46.2937,
      "duration": 0.0821,
      "velocity": 107,
      "chip": "ym2612"
    },
    {
      "channel": 4,
      "note": 69,
      "start": 46.2942,
      "duration": 0.0008,
      "velocity": 109,
      "chip": "ym2612"
    },
    {
      "channel": 2,
      "note": 51,
      "start": 46.2947,
      "duration": 0.0122,
      "velocity": 124,
      "chip": "ym2612"
    },
    {
      "channel": 4,
      "note": 68,
      "start": 46.295,
      "duration": 0.0123,
      "velocity": 109,
      "chip": "ym2612"
    },
    {
      "channel": 2,
      "note": 51,
      "start": 46.3069,
      "duration": 0.0167,
      "velocity": 124,
      "chip": "ym2612"
    },
    {
      "channel": 4,
      "note": 67,
      "start": 46.3073,
      "duration": 0.0167,
      "velocity": 109,
      "chip": "ym2612"
    },
    {
      "channel": 2,
      "note": 51,
      "start": 46.3236,
      "duration": 0.0333,
      "velocity": 124,
      "chip": "ym2612"
    },
    {
      "channel": 4,
      "note": 66,
      "start": 46.3239,
      "duration": 0.0333,
      "velocity": 109,
      "chip": "ym2612"
    },
    {
      "channel": 2,
      "note": 50,
      "start": 46.3569,
      "duration": 0.0195,
      "velocity": 124,
      "chip": "ym2612"
    },
    {
      "channel": 4,
      "note": 65,
      "start": 46.3573,
      "duration": 0.0195,
      "velocity": 109,
      "chip": "ym2612"
    },
    {
      "channel": 3,
      "note": 67,
      "start": 46.3759,
      "duration": 0.0841,
      "velocity": 107,
      "chip": "ym2612"
    },
    {
      "channel": 2,
      "note": 50,
      "start": 46.3764,
      "duration": 0.0138,
      "velocity": 124,
      "chip": "ym2612"
    },
    {
      "channel": 4,
      "note": 64,
      "start": 46.3767,
      "duration": 0.0139,
      "velocity": 109,
      "chip": "ym2612"
    },
    {
      "channel": 2,
      "note": 50,
      "start": 46.3902,
      "duration": 0.0167,
      "velocity": 124,
      "chip": "ym2612"
    },
    {
      "channel": 4,
      "note": 63,
      "start": 46.3906,
      "duration": 0.0167,
      "velocity": 109,
      "chip": "ym2612"
    },
    {
      "channel": 2,
      "note": 50,
      "start": 46.4069,
      "duration": 0.0167,
      "velocity": 124,
      "chip": "ym2612"
    },
    {
      "channel": 4,
      "note": 62,
      "start": 46.4073,
      "duration": 0.0167,
      "velocity": 109,
      "chip": "ym2612"
    },
    {
      "channel": 2,
      "note": 50,
      "start": 46.4236,
      "duration": 0.0379,
      "velocity": 124,
      "chip": "ym2612"
    },
    {
      "channel": 4,
      "note": 61,
      "start": 46.4239,
      "duration": 0.0367,
      "velocity": 109,
      "chip": "ym2612"
    },
    {
      "channel": 0,
      "note": 85,
      "start": 46.4575,
      "duration": 0.0503,
      "velocity": 103,
      "chip": "ym2612"
    },
    {
      "channel": 1,
      "note": 49,
      "start": 46.458,
      "duration": 0.1132,
      "velocity": 93,
      "chip": "ym2612"
    },
    {
      "channel": 3,
      "note": 67,
      "start": 46.4602,
      "duration": 0.1137,
      "velocity": 107,
      "chip": "ym2612"
    },
    {
      "channel": 4,
      "note": 69,
      "start": 46.4608,
      "duration": 0.0011,
      "velocity": 109,
      "chip": "ym2612"
    },
    {
      "channel": 2,
      "note": 50,
      "start": 46.4615,
      "duration": 0.009,
      "velocity": 124,
      "chip": "ym2612"
    },
    {
      "channel": 4,
      "note": 68,
      "start": 46.4619,
      "duration": 0.009,
      "velocity": 109,
      "chip": "ym2612"
    },
    {
      "channel": 2,
      "note": 49,
      "start": 46.4705,
      "duration": 0.0124,
      "velocity": 124,
      "chip": "ym2612"
    },
    {
      "channel": 4,
      "note": 67,
      "start": 46.4709,
      "duration": 0.0124,
      "velocity": 109,
      "chip": "ym2612"
    },
    {
      "channel": 2,
      "note": 49,
      "start": 46.483,
      "duration": 0.0122,
      "velocity": 124,
      "chip": "ym2612"
    },
    {
      "channel": 4,
      "note": 66,
      "start": 46.4833,
      "duration": 0.0122,
      "velocity": 109,
      "chip": "ym2612"
    },
    {
      "channel": 2,
      "note": 49,
      "start": 46.4952,
      "duration": 0.0134,
      "velocity": 124,
      "chip": "ym2612"
    },
    {
      "channel": 4,
      "note": 65,
      "start": 46.4955,
      "duration": 0.0134,
      "velocity": 109,
      "chip": "ym2612"
    },
    {
      "channel": 0,
      "note": 87,
      "start": 46.5079,
      "duration": 0.0628,
      "velocity": 103,
      "chip": "ym2612"
    },
    {
      "channel": 2,
      "note": 49,
      "start": 46.5086,
      "duration": 0.0243,
      "velocity": 124,
      "chip": "ym2612"
    },
    {
      "channel": 4,
      "note": 64,
      "start": 46.5089,
      "duration": 0.0244,
      "velocity": 109,
      "chip": "ym2612"
    },
    {
      "channel": 2,
      "note": 49,
      "start": 46.5329,
      "duration": 0.0123,
      "velocity": 124,
      "chip": "ym2612"
    },
    {
      "channel": 4,
      "note": 63,
      "start": 46.5333,
      "duration": 0.0123,
      "velocity": 109,
      "chip": "ym2612"
    },
    {
      "channel": 2,
      "note": 49,
      "start": 46.5452,
      "duration": 0.0125,
      "velocity": 124,
      "chip": "ym2612"
    },
    {
      "channel": 4,
      "note": 62,
      "start": 46.5456,
      "duration": 0.0125,
      "velocity": 109,
      "chip": "ym2612"
    },
    {
      "channel": 2,
      "note": 48,
      "start": 46.5577,
      "duration": 0.0141,
      "velocity": 124,
      "chip": "ym2612"
    },
    {
      "channel": 4,
      "note": 61,
      "start": 46.5581,
      "duration": 0.0164,
      "velocity": 109,
      "chip": "ym2612"
    },
    {
      "channel": 0,
      "note": 85,
      "start": 46.5709,
      "duration": 0.0632,
      "velocity": 103,
      "chip": "ym2612"
    },
    {
      "channel": 1,
      "note": 37,
      "start": 46.5715,
      "duration": 0.2449,
      "velocity": 93,
      "chip": "ym2612"
    },
    {
      "channel": 2,
      "note": 49,
      "start": 46.572,
      "duration": 0.7889,
      "velocity": 124,
      "chip": "ym2612"
    },
    {
      "channel": 3,
      "note": 67,
      "start": 46.5741,
      "duration": 0.1282,
      "velocity": 107,
      "chip": "ym2612"
    },
    {
      "channel": 4,
      "note": 74,
      "start": 46.5747,
      "duration": 0.0008,
      "velocity": 109,
      "chip": "ym2612"
    },
    {
      "channel": 4,
      "note": 73,
      "start": 46.5755,
      "duration": 0.0083,
      "velocity": 109,
      "chip": "ym2612"
    },
    {
      "channel": 4,
      "note": 72,
      "start": 46.5839,
      "duration": 0.0248,
      "velocity": 109,
      "chip": "ym2612"
    },
    {
      "channel": 4,
      "note": 70,
      "start": 46.6087,
      "duration": 0.0124,
      "velocity": 109,
      "chip": "ym2612"
    },
    {
      "channel": 4,
      "note": 69,
      "start": 46.6211,
      "duration": 0.014,
      "velocity": 109,
      "chip": "ym2612"
    },
    {
      "channel": 0,
      "note": 87,
      "start": 46.6342,
      "duration": 0.0659,
      "velocity": 103,
      "chip": "ym2612"
    },
    {
      "channel": 4,
      "note": 68,
      "start": 46.6351,
      "duration": 0.0119,
      "velocity": 109,
      "chip": "ym2612"
    },
    {
      "channel": 4,
      "note": 67,
      "start": 46.647,
      "duration": 0.0124,
      "velocity": 109,
      "chip": "ym2612"
    },
    {
      "channel": 4,
      "note": 66,
      "start": 46.6594,
      "duration": 0.0246,
      "velocity": 109,
      "chip": "ym2612"
    },
    {
      "channel": 4,
      "note": 65,
      "start": 46.684,
      "duration": 0.0189,
      "velocity": 109,
      "chip": "ym2612"
    },
    {
      "channel": 0,
      "note": 85,
      "start": 46.7003,
      "duration": 0.0642,
      "velocity": 103,
      "chip": "ym2612"
    },
    {
      "channel": 3,
      "note": 67,
      "start": 46.7025,
      "duration": 0.0642,
      "velocity": 107,
      "chip": "ym2612"
    },
    {
      "channel": 4,
      "note": 69,
      "start": 46.7031,
      "duration": 0.0008,
      "velocity": 109,
      "chip": "ym2612"
    },
    {
      "channel": 4,
      "note": 68,
      "start": 46.7039,
      "duration": 0.0097,
      "velocity": 109,
      "chip": "ym2612"
    },
    {
      "channel": 4,
      "note": 67,
      "start": 46.7136,
      "duration": 0.0128,
      "velocity": 109,
      "chip": "ym2612"
    },
    {
      "channel": 4,
      "note": 66,
      "start": 46.7264,
      "duration": 0.0125,
      "velocity": 109,
      "chip": "ym2612"
    },
    {
      "channel": 4,
      "note": 65,
      "start": 46.739,
      "duration": 0.0289,
      "velocity": 109,
      "chip": "ym2612"
    },
    {
      "channel": 0,
      "note": 87,
      "start": 46.7647,
      "duration": 0.0511,
      "velocity": 103,
      "chip": "ym2612"
    },
    {
      "channel": 3,
      "note": 67,
      "start": 46.767,
      "duration": 0.0516,
      "velocity": 107,
      "chip": "ym2612"
    },
    {
      "channel": 4,
      "note": 64,
      "start": 46.7678,
      "duration": 0.01,
      "velocity": 109,
      "chip": "ym2612"
    },
    {
      "channel": 4,
      "note": 63,
      "start": 46.7778,
      "duration": 0.0125,
      "velocity": 109,
      "chip": "ym2612"
    },
    {
      "channel": 4,
      "note": 62,
      "start": 46.7903,
      "duration": 0.0125,
      "velocity": 109,
      "chip": "ym2612"
    },
    {
      "channel": 4,
      "note": 61,
      "start": 46.8029,
      "duration": 0.0163,
      "velocity": 109,
      "chip": "ym2612"
    },
    {
      "channel": 0,
      "note": 85,
      "start": 46.816,
      "duration": 0.064,
      "velocity": 103,
      "chip": "ym2612"
    },
    {
      "channel": 1,
      "note": 49,
      "start": 46.8165,
      "duration": 0.1294,
      "velocity": 93,
      "chip": "ym2612"
    },
    {
      "channel": 3,
      "note": 67,
      "start": 46.8187,
      "duration": 0.131,
      "velocity": 107,
      "chip": "ym2612"
    },
    {
      "channel": 4,
      "note": 69,
      "start": 46.8193,
      "duration": 0.0008,
      "velocity": 109,
      "chip": "ym2612"
    },
    {
      "channel": 4,
      "note": 68,
      "start": 46.8201,
      "duration": 0.0218,
      "velocity": 109,
      "chip": "ym2612"
    },
    {
      "channel": 4,
      "note": 67,
      "start": 46.842,
      "duration": 0.0128,
      "velocity": 109,
      "chip": "ym2612"
    },
    {
      "channel": 4,
      "note": 66,
      "start": 46.8548,
      "duration": 0.0125,
      "velocity": 109,
      "chip": "ym2612"
    },
    {
      "channel": 4,
      "note": 65,
      "start": 46.8673,
      "duration": 0.0136,
      "velocity": 109,
      "chip": "ym2612"
    },
    {
      "channel": 0,
      "note": 87,
      "start": 46.8802,
      "duration": 0.8904,
      "velocity": 103,
      "chip": "ym2612"
    },
    {
      "channel": 4,
      "note": 64,
      "start": 46.881,
      "duration": 0.0117,
      "velocity": 109,
      "chip": "ym2612"
    },
    {
      "channel": 4,
      "note": 63,
      "start": 46.8926,
      "duration": 0.0251,
      "velocity": 109,
      "chip": "ym2612"
    },
    {
      "channel": 4,
      "note": 62,
      "start": 46.9177,
      "duration": 0.0125,
      "velocity": 109,
      "chip": "ym2612"
    },
    {
      "channel": 4,
      "note": 61,
      "start": 46.9302,
      "duration": 0.0206,
      "velocity": 109,
      "chip": "ym2612"
    },
    {
      "channel": 1,
      "note": 47,
      "start": 46.9461,
      "duration": 0.132,
      "velocity": 93,
      "chip": "ym2612"
    },
    {
      "channel": 3,
      "note": 67,
      "start": 46.9499,
      "duration": 0.1304,
      "velocity": 107,
      "chip": "ym2612"
    },
    {
      "channel": 4,
      "note": 60,
      "start": 46.9508,
      "duration": 0.0083,
      "velocity": 109,
      "chip": "ym2612"
    },
    {
      "channel": 4,
      "note": 58,
      "start": 46.9591,
      "duration": 0.0126,
      "velocity": 109,
      "chip": "ym2612"
    },
    {
      "channel": 4,
      "note": 57,
      "start": 46.9717,
      "duration": 0.025,
      "velocity": 109,
      "chip": "ym2612"
    },
    {
      "channel": 4,
      "note": 56,
      "start": 46.9967,
      "duration": 0.0253,
      "velocity": 109,
      "chip": "ym2612"
    },
    {
      "channel": 4,
      "note": 55,
      "start": 47.022,
      "duration": 0.0126,
      "velocity": 109,
      "chip": "ym2612"
    },
    {
      "channel": 4,
      "note": 54,
      "start": 47.0346,
      "duration": 0.0126,
      "velocity": 109,
      "chip": "ym2612"
    },
    {
      "channel": 4,
      "note": 53,
      "start": 47.0472,
      "duration": 0.0339,
      "velocity": 109,
      "chip": "ym2612"
    },
    {
      "channel": 1,
      "note": 49,
      "start": 47.0783,
      "duration": 0.1499,
      "velocity": 93,
      "chip": "ym2612"
    },
    {
      "channel": 3,
      "note": 67,
      "start": 47.0804,
      "duration": 0.0676,
      "velocity": 107,
      "chip": "ym2612"
    },
    {
      "channel": 4,
      "note": 52,
      "start": 47.081,
      "duration": 0.0134,
      "velocity": 109,
      "chip": "ym2612"
    },
    {
      "channel": 4,
      "note": 51,
      "start": 47.0945,
      "duration": 0.0167,
      "velocity": 109,
      "chip": "ym2612"
    },
    {
      "channel": 4,
      "note": 50,
      "start": 47.1111,
      "duration": 0.0167,
      "velocity": 109,
      "chip": "ym2612"
    },
    {
      "channel": 4,
      "note": 49,
      "start": 47.1278,
      "duration": 0.021,
      "velocity": 109,
      "chip": "ym2612"
    },
    {
      "channel": 3,
      "note": 67,
      "start": 47.1482,
      "duration": 0.0821,
      "velocity": 107,
      "chip": "ym2612"
    },
    {
      "channel": 4,
      "note": 48,
      "start": 47.1488,
      "duration": 0.029,
      "velocity": 109,
      "chip": "ym2612"
    },
    {
      "channel": 4,
      "note": 46,
      "start": 47.1778,
      "duration": 0.0167,
      "velocity": 109,
      "chip": "ym2612"
    },
    {
      "channel": 4,
      "note": 45,
      "start": 47.1945,
      "duration": 0.0167,
      "velocity": 109,
      "chip": "ym2612"
    },
    {
      "channel": 4,
      "note": 44,
      "start": 47.2111,
      "duration": 0.0202,
      "velocity": 109,
      "chip": "ym2612"
    },
    {
      "channel": 1,
      "note": 52,
      "start": 47.2283,
      "duration": 0.1304,
      "velocity": 93,
      "chip": "ym2612"
    },
    {
      "channel": 3,
      "note": 67,
      "start": 47.2305,
      "duration": 0.1325,
      "velocity": 107,
      "chip": "ym2612"
    },
    {
      "channel": 4,
      "note": 43,
      "start": 47.2314,
      "duration": 0.0096,
      "velocity": 109,
      "chip": "ym2612"
    },
    {
      "channel": 4,
      "note": 42,
      "start": 47.241,
      "duration": 0.0251,
      "velocity": 109,
      "chip": "ym2612"
    },
    {
      "channel": 4,
      "note": 41,
      "start": 47.2661,
      "duration": 0.0128,
      "velocity": 109,
      "chip": "ym2612"
    },
    {
      "channel": 4,
      "note": 40,
      "start": 47.2789,
      "duration": 0.0251,
      "velocity": 109,
      "chip": "ym2612"
    },
    {
      "channel": 4,
      "note": 39,
      "start": 47.304,
      "duration": 0.0125,
      "velocity": 109,
      "chip": "ym2612"
    },
    {
      "channel": 4,
      "note": 38,
      "start": 47.3166,
      "duration": 0.0254,
      "velocity": 109,
      "chip": "ym2612"
    },
    {
      "channel": 4,
      "note": 37,
      "start": 47.342,
      "duration": 0.0221,
      "velocity": 109,
      "chip": "ym2612"
    },
    {
      "channel": 1,
      "note": 39,
      "start": 47.3588,
      "duration": 0.2802,
      "velocity": 93,
      "chip": "ym2612"
    },
    {
      "channel": 2,
      "note": 51,
      "start": 47.361,
      "duration": 0.5267,
      "velocity": 124,
      "chip": "ym2612"
    },
    {
      "channel": 3,
      "note": 67,
      "start": 47.3632,
      "duration": 0.1116,
      "velocity": 107,
      "chip": "ym2612"
    },
    {
      "channel": 4,
      "note": 36,
      "start": 47.3641,
      "duration": 0.008,
      "velocity": 109,
      "chip": "ym2612"
    },
    {
      "channel": 4,
      "note": 34,
      "start": 47.3721,
      "duration": 0.0124,
      "velocity": 109,
      "chip": "ym2612"
    },
    {
      "channel": 4,
      "note": 33,
      "start": 47.3845,
      "duration": 0.0126,
      "velocity": 109,
      "chip": "ym2612"
    },
    {
      "channel": 4,
      "note": 32,
      "start": 47.3971,
      "duration": 0.0379,
      "velocity": 109,
      "chip": "ym2612"
    },
    {
      "channel": 4,
      "note": 31,
      "start": 47.435,
      "duration": 0.0127,
      "velocity": 109,
      "chip": "ym2612"
    },
    {
      "channel": 4,
      "note": 30,
      "start": 47.4477,
      "duration": 0.0126,
      "velocity": 109,
      "chip": "ym2612"
    },
    {
      "channel": 4,
      "note": 29,
      "start": 47.4603,
      "duration": 0.0153,
      "velocity": 109,
      "chip": "ym2612"
    },
    {
      "channel": 3,
      "note": 67,
      "start": 47.475,
      "duration": 0.0824,
      "velocity": 107,
      "chip": "ym2612"
    },
    {
      "channel": 4,
      "note": 28,
      "start": 47.4756,
      "duration": 0.0298,
      "velocity": 109,
      "chip": "ym2612"
    },
    {
      "channel": 4,
      "note": 27,
      "start": 47.5054,
      "duration": 0.0167,
      "velocity": 109,
      "chip": "ym2612"
    },
    {
      "channel": 4,
      "note": 26,
      "start": 47.5221,
      "duration": 0.0167,
      "velocity": 109,
      "chip": "ym2612"
    },
    {
      "channel": 4,
      "note": 25,
      "start": 47.5388,
      "duration": 0.0193,
      "velocity": 109,
      "chip": "ym2612"
    },
    {
      "channel": 3,
      "note": 67,
      "start": 47.5575,
      "duration": 0.0837,
      "velocity": 107,
      "chip": "ym2612"
    },
    {
      "channel": 4,
      "note": 24,
      "start": 47.5581,
      "duration": 0.014,
      "velocity": 109,
      "chip": "ym2612"
    },
    {
      "channel": 4,
      "note": 23,
      "start": 47.5721,
      "duration": 0.0333,
      "velocity": 109,
      "chip": "ym2612"
    },
    {
      "channel": 4,
      "note": 21,
      "start": 47.6054,
      "duration": 0.0167,
      "velocity": 109,
      "chip": "ym2612"
    },
    {
      "channel": 4,
      "note": 116,
      "start": 47.6221,
      "duration": 0.0202,
      "velocity": 109,
      "chip": "ym2612"
    },
    {
      "channel": 1,
      "note": 51,
      "start": 47.6392,
      "duration": 0.132,
      "velocity": 93,
      "chip": "ym2612"
    },
    {
      "channel": 3,
      "note": 67,
      "start": 47.6414,
      "duration": 0.132,
      "velocity": 107,
      "chip": "ym2612"
    },
    {
      "channel": 4,
      "note": 115,
      "start": 47.6423,
      "duration": 0.01,
      "velocity": 109,
      "chip": "ym2612"
    },
    {
      "channel": 4,
      "note": 114,
      "start": 47.6523,
      "duration": 0.0127,
      "velocity": 109,
      "chip": "ym2612"
    },
    {
      "channel": 4,
      "note": 113,
      "start": 47.6649,
      "duration": 0.0245,
      "velocity": 109,
      "chip": "ym2612"
    },
    {
      "channel": 4,
      "note": 112,
      "start": 47.6895,
      "duration": 0.0252,
      "velocity": 109,
      "chip": "ym2612"
    },
    {
      "channel": 4,
      "note": 111,
      "start": 47.7147,
      "duration": 0.0127,
      "velocity": 109,
      "chip": "ym2612"
    },
    {
      "channel": 4,
      "note": 110,
      "start": 47.7274,
      "duration": 0.0126,
      "velocity": 109,
      "chip": "ym2612"
    },
    {
      "channel": 4,
      "note": 109,
      "start": 47.74,
      "duration": 0.0344,
      "velocity": 109,
      "chip": "ym2612"
    },
    {
      "channel": 0,
      "note": 92,
      "start": 47.7708,
      "duration": 0.1135,
      "velocity": 103,
      "chip": "ym2612"
    },
    {
      "channel": 1,
      "note": 49,
      "start": 47.7713,
      "duration": 0.1134,
      "velocity": 93,
      "chip": "ym2612"
    },
    {
      "channel": 3,
      "note": 67,
      "start": 47.7735,
      "duration": 0.1135,
      "velocity": 107,
      "chip": "ym2612"
    },
    {
      "channel": 4,
      "note": 108,
      "start": 47.7744,
      "duration": 0.008,
      "velocity": 109,
      "chip": "ym2612"
    },
    {
      "channel": 4,
      "note": 107,
      "start": 47.7824,
      "duration": 0.0124,
      "velocity": 109,
      "chip": "ym2612"
    },
    {
      "channel": 4,
      "note": 105,
      "start": 47.7948,
      "duration": 0.0126,
      "velocity": 109,
      "chip": "ym2612"
    },
    {
      "channel": 4,
      "note": 104,
      "start": 47.8075,
      "duration": 0.0374,
      "velocity": 109,
      "chip": "ym2612"
    },
    {
      "channel": 4,
      "note": 103,
      "start": 47.8449,
      "duration": 0.0127,
      "velocity": 109,
      "chip": "ym2612"
    },
    {
      "channel": 4,
      "note": 102,
      "start": 47.8576,
      "duration": 0.0126,
      "velocity": 109,
      "chip": "ym2612"
    },
    {
      "channel": 4,
      "note": 101,
      "start": 47.8702,
      "duration": 0.0179,
      "velocity": 109,
      "chip": "ym2612"
    },
    {
      "channel": 0,
      "note": 91,
      "start": 47.8844,
      "duration": 0.1666,
      "velocity": 103,
      "chip": "ym2612"
    },
    {
      "channel": 1,
      "note": 46,
      "start": 47.8849,
      "duration": 0.1665,
      "velocity": 93,
      "chip": "ym2612"
    },
    {
      "channel": 3,
      "note": 67,
      "start": 47.8872,
      "duration": 0.0821,
      "velocity": 107,
      "chip": "ym2612"
    },
    {
      "channel": 2,
      "note": 51,
      "start": 47.8877,
      "duration": 0.0128,
      "velocity": 124,
      "chip": "ym2612"
    },
    {
      "channel": 4,
      "note": 100,
      "start": 47.888,
      "duration": 0.0129,
      "velocity": 109,
      "chip": "ym2612"
    },
    {
      "channel": 2,
      "note": 51,
      "start": 47.9005,
      "duration": 0.0334,
      "velocity": 124,
      "chip": "ym2612"
    },
    {
      "channel": 4,
      "note": 99,
      "start": 47.9009,
      "duration": 0.0333,
      "velocity": 109,
      "chip": "ym2612"
    },
    {
      "channel": 2,
      "note": 51,
      "start": 47.9339,
      "duration": 0.0166,
      "velocity": 124,
      "chip": "ym2612"
    },
    {
      "channel": 4,
      "note": 98,
      "start": 47.9342,
      "duration": 0.0167,
      "velocity": 109,
      "chip": "ym2612"
    },
    {
      "channel": 2,
      "note": 52,
      "start": 47.9505,
      "duration": 0.0195,
      "velocity": 124,
      "chip": "ym2612"
    },
    {
      "channel": 4,
      "note": 97,
      "start": 47.9509,
      "duration": 0.0194,
      "velocity": 109,
      "chip": "ym2612"
    },
    {
      "channel": 3,
      "note": 67,
      "start": 47.9695,
      "duration": 0.0841,
      "velocity": 107,
      "chip": "ym2612"
    },
    {
      "channel": 2,
      "note": 52,
      "start": 47.97,
      "duration": 0.0139,
      "velocity": 124,
      "chip": "ym2612"
    },
    {
      "channel": 4,
      "note": 96,
      "start": 47.9703,
      "duration": 0.0139,
      "velocity": 109,
      "chip": "ym2612"
    },
    {
      "channel": 2,
      "note": 52,
      "start": 47.9839,
      "duration": 0.0167,
      "velocity": 124,
      "chip": "ym2612"
    },
    {
      "channel": 4,
      "note": 95,
      "start": 47.9842,
      "duration": 0.0167,
      "velocity": 109,
      "chip": "ym2612"
    },
    {
      "channel": 2,
      "note": 52,
      "start": 48.0006,
      "duration": 0.0333,
      "velocity": 124,
      "chip": "ym2612"
    },
    {
      "channel": 4,
      "note": 93,
      "start": 48.0009,
      "duration": 0.0333,
      "velocity": 109,
      "chip": "ym2612"
    },
    {
      "channel": 2,
      "note": 52,
      "start": 48.0339,
      "duration": 0.0207,
      "velocity": 124,
      "chip": "ym2612"
    },
    {
      "channel": 4,
      "note": 92,
      "start": 48.0342,
      "duration": 0.0207,
      "velocity": 109,
      "chip": "ym2612"
    },
    {
      "channel": 0,
      "note": 85,
      "start": 48.051,
      "duration": 0.0639,
      "velocity": 103,
      "chip": "ym2612"
    },
    {
      "channel": 1,
      "note": 49,
      "start": 48.0516,
      "duration": 0.1137,
      "velocity": 93,
      "chip": "ym2612"
    },
    {
      "channel": 3,
      "note": 67,
      "start": 48.0538,
      "duration": 0.1142,
      "velocity": 107,
      "chip": "ym2612"
    },
    {
      "channel": 2,
      "note": 52,
      "start": 48.0546,
      "duration": 0.0095,
      "velocity": 124,
      "chip": "ym2612"
    },
    {
      "channel": 4,
      "note": 91,
      "start": 48.055,
      "duration": 0.0095,
      "velocity": 109,
      "chip": "ym2612"
    },
    {
      "channel": 2,
      "note": 52,
      "start": 48.0641,
      "duration": 0.0124,
      "velocity": 124,
      "chip": "ym2612"
    },
    {
      "channel": 4,
      "note": 90,
      "start": 48.0644,
      "duration": 0.0125,
      "velocity": 109,
      "chip": "ym2612"
    },
    {
      "channel": 2,
      "note": 53,
      "start": 48.0765,
      "duration": 0.0126,
      "velocity": 124,
      "chip": "ym2612"
    },
    {
      "channel": 4,
      "note": 89,
      "start": 48.0769,
      "duration": 0.0125,
      "velocity": 109,
      "chip": "ym2612"
    },
    {
      "channel": 2,
      "note": 53,
      "start": 48.0891,
      "duration": 0.0261,
      "velocity": 124,
      "chip": "ym2612"
    },
    {
      "channel": 4,
      "note": 88,
      "start": 48.0894,
      "duration": 0.0261,
      "velocity": 109,
      "chip": "ym2612"
    },
    {
      "channel": 0,
      "note": 86,
      "start": 48.1149,
      "duration": 0.0119,
      "velocity": 103,
      "chip": "ym2612"
    },
    {
      "channel": 2,
      "note": 53,
      "start": 48.1152,
      "duration": 0.0119,
      "velocity": 124,
      "chip": "ym2612"
    },
    {
      "channel": 4,
      "note": 87,
      "start": 48.1155,
      "duration": 0.0119,
      "velocity": 109,
      "chip": "ym2612"
    },
    {
      "channel": 0,
      "note": 86,
      "start": 48.1268,
      "duration": 0.0125,
      "velocity": 103,
      "chip": "ym2612"
    },
    {
      "channel": 2,
      "note": 53,
      "start": 48.1271,
      "duration": 0.0125,
      "velocity": 124,
      "chip": "ym2612"
    },
    {
      "channel": 4,
      "note": 86,
      "start": 48.1274,
      "duration": 0.0125,
      "velocity": 109,
      "chip": "ym2612"
    },
    {
      "channel": 0,
      "note": 86,
      "start": 48.1393,
      "duration": 0.0125,
      "velocity": 103,
      "chip": "ym2612"
    },
    {
      "channel": 2,
      "note": 53,
      "start": 48.1396,
      "duration": 0.0125,
      "velocity": 124,
      "chip": "ym2612"
    },
    {
      "channel": 4,
      "note": 85,
      "start": 48.1399,
      "duration": 0.0125,
      "velocity": 109,
      "chip": "ym2612"
    },
    {
      "channel": 0,
      "note": 87,
      "start": 48.1518,
      "duration": 0.0129,
      "velocity": 103,
      "chip": "ym2612"
    },
    {
      "channel": 2,
      "note": 53,
      "start": 48.1522,
      "duration": 0.0137,
      "velocity": 124,
      "chip": "ym2612"
    },
    {
      "channel": 4,
      "note": 84,
      "start": 48.1525,
      "duration": 0.0166,
      "velocity": 109,
      "chip": "ym2612"
    },
    {
      "channel": 0,
      "note": 87,
      "start": 48.165,
      "duration": 0.3761,
      "velocity": 103,
      "chip": "ym2612"
    },
    {
      "channel": 1,
      "note": 37,
      "start": 48.1655,
      "duration": 0.1292,
      "velocity": 93,
      "chip": "ym2612"
    },
    {
      "channel": 2,
      "note": 52,
      "start": 48.166,
      "duration": 0.7522,
      "velocity": 124,
      "chip": "ym2612"
    },
    {
      "channel": 3,
      "note": 67,
      "start": 48.1682,
      "duration": 0.1286,
      "velocity": 107,
      "chip": "ym2612"
    },
    {
      "channel": 4,
      "note": 83,
      "start": 48.1691,
      "duration": 0.0212,
      "velocity": 109,
      "chip": "ym2612"
    },
    {
      "channel": 4,
      "note": 81,
      "start": 48.1903,
      "duration": 0.0127,
      "velocity": 109,
      "chip": "ym2612"
    },
    {
      "channel": 4,
      "note": 80,
      "start": 48.203,
      "duration": 0.0125,
      "velocity": 109,
      "chip": "ym2612"
    },
    {
      "channel": 4,
      "note": 79,
      "start": 48.2155,
      "duration": 0.0252,
      "velocity": 109,
      "chip": "ym2612"
    },
    {
      "channel": 4,
      "note": 78,
      "start": 48.2407,
      "duration": 0.0249,
      "velocity": 109,
      "chip": "ym2612"
    },
    {
      "channel": 4,
      "note": 77,
      "start": 48.2656,
      "duration": 0.0126,
      "velocity": 109,
      "chip": "ym2612"
    },
    {
      "channel": 4,
      "note": 76,
      "start": 48.2782,
      "duration": 0.0192,
      "velocity": 109,
      "chip": "ym2612"
    },
    {
      "channel": 1,
      "note": 49,
      "start": 48.2948,
      "duration": 0.1269,
      "velocity": 93,
      "chip": "ym2612"
    },
    {
      "channel": 3,
      "note": 67,
      "start": 48.297,
      "duration": 0.0628,
      "velocity": 107,
      "chip": "ym2612"
    },
    {
      "channel": 4,
      "note": 74,
      "start": 48.2976,
      "duration": 0.0008,
      "velocity": 109,
      "chip": "ym2612"
    },
    {
      "channel": 4,
      "note": 73,
      "start": 48.2985,
      "duration": 0.0096,
      "velocity": 109,
      "chip": "ym2612"
    },
    {
      "channel": 4,
      "note": 72,
      "start": 48.308,
      "duration": 0.0123,
      "velocity": 109,
      "chip": "ym2612"
    },
    {
      "channel": 4,
      "note": 70,
      "start": 48.3203,
      "duration": 0.0247,
      "velocity": 109,
      "chip": "ym2612"
    },
    {
      "channel": 4,
      "note": 69,
      "start": 48.345,
      "duration": 0.0159,
      "velocity": 109,
      "chip": "ym2612"
    },
    {
      "channel": 3,
      "note": 67,
      "start": 48.3599,
      "duration": 0.0639,
      "velocity": 107,
      "chip": "ym2612"
    },
    {
      "channel": 4,
      "note": 68,
      "start": 48.3609,
      "duration": 0.0099,
      "velocity": 109,
      "chip": "ym2612"
    },
    {
      "channel": 4,
      "note": 67,
      "start": 48.3708,
      "duration": 0.0127,
      "velocity": 109,
      "chip": "ym2612"
    },
    {
      "channel": 4,
      "note": 66,
      "start": 48.3836,
      "duration": 0.0125,
      "velocity": 109,
      "chip": "ym2612"
    },
    {
      "channel": 4,
      "note": 65,
      "start": 48.3961,
      "duration": 0.0284,
      "velocity": 109,
      "chip": "ym2612"
    },
    {
      "channel": 1,
      "note": 47,
      "start": 48.4218,
      "duration": 0.114,
      "velocity": 93,
      "chip": "ym2612"
    },
    {
      "channel": 3,
      "note": 67,
      "start": 48.4241,
      "duration": 0.1155,
      "velocity": 107,
      "chip": "ym2612"
    },
    {
      "channel": 4,
      "note": 74,
      "start": 48.4246,
      "duration": 0.0008,
      "velocity": 109,
      "chip": "ym2612"
    },
    {
      "channel": 4,
      "note": 73,
      "start": 48.4255,
      "duration": 0.0093,
      "velocity": 109,
      "chip": "ym2612"
    },
    {
      "channel": 4,
      "note": 72,
      "start": 48.4347,
      "duration": 0.0125,
      "velocity": 109,
      "chip": "ym2612"
    },
    {
      "channel": 4,
      "note": 70,
      "start": 48.4472,
      "duration": 0.0127,
      "velocity": 109,
      "chip": "ym2612"
    },
    {
      "channel": 4,
      "note": 69,
      "start": 48.4599,
      "duration": 0.0378,
      "velocity": 109,
      "chip": "ym2612"
    },
    {
      "channel": 4,
      "note": 68,
      "start": 48.4976,
      "duration": 0.0124,
      "velocity": 109,
      "chip": "ym2612"
    },
    {
      "channel": 4,
      "note": 67,
      "start": 48.51,
      "duration": 0.0125,
      "velocity": 109,
      "chip": "ym2612"
    },
    {
      "channel": 4,
      "note": 66,
      "start": 48.5225,
      "duration": 0.0177,
      "velocity": 109,
      "chip": "ym2612"
    },
    {
      "channel": 1,
      "note": 42,
      "start": 48.536,
      "duration": 0.1312,
      "velocity": 93,
      "chip": "ym2612"
    },
    {
      "channel": 3,
      "note": 67,
      "start": 48.5398,
      "duration": 0.1297,
      "velocity": 107,
      "chip": "ym2612"
    },
    {
      "channel": 4,
      "note": 69,
      "start": 48.5404,
      "duration": 0.0011,
      "velocity": 109,
      "chip": "ym2612"
    },
    {
      "channel": 0,
      "note": 87,
      "start": 48.5411,
      "duration": 0.0082,
      "velocity": 103,
      "chip": "ym2612"
    },
    {
      "channel": 4,
      "note": 68,
      "start": 48.5415,
      "duration": 0.0082,
      "velocity": 109,
      "chip": "ym2612"
    },
    {
      "channel": 0,
      "note": 87,
      "start": 48.5493,
      "duration": 0.0248,
      "velocity": 103,
      "chip": "ym2612"
    },
    {
      "channel": 4,
      "note": 67,
      "start": 48.5497,
      "duration": 0.0249,
      "velocity": 109,
      "chip": "ym2612"
    },
    {
      "channel": 0,
      "note": 87,
      "start": 48.5741,
      "duration": 0.0126,
      "velocity": 103,
      "chip": "ym2612"
    },
    {
      "channel": 4,
      "note": 66,
      "start": 48.5746,
      "duration": 0.0126,
      "velocity": 109,
      "chip": "ym2612"
    },
    {
      "channel": 0,
      "note": 86,
      "start": 48.5867,
      "duration": 0.0139,
      "velocity": 103,
      "chip": "ym2612"
    },
    {
      "channel": 4,
      "note": 65,
      "start": 48.5872,
      "duration": 0.0129,
      "velocity": 109,
      "chip": "ym2612"
    },
    {
      "channel": 4,
      "note": 69,
      "start": 48.6002,
      "duration": 0.0008,
      "velocity": 109,
      "chip": "ym2612"
    },
    {
      "channel": 0,
      "note": 86,
      "start": 48.6006,
      "duration": 0.0115,
      "velocity": 103,
      "chip": "ym2612"
    },
    {
      "channel": 4,
      "note": 68,
      "start": 48.601,
      "duration": 0.0116,
      "velocity": 109,
      "chip": "ym2612"
    },
    {
      "channel": 0,
      "note": 86,
      "start": 48.6121,
      "duration": 0.0126,
      "velocity": 103,
      "chip": "ym2612"
    },
    {
      "channel": 4,
      "note": 67,
      "start": 48.6126,
      "duration": 0.0125,
      "velocity": 109,
      "chip": "ym2612"
    },
    {
      "channel": 0,
      "note": 86,
      "start": 48.6247,
      "duration": 0.0254,
      "velocity": 103,
      "chip": "ym2612"
    },
    {
      "channel": 4,
      "note": 66,
      "start": 48.6251,
      "duration": 0.0254,
      "velocity": 109,
      "chip": "ym2612"
    },
    {
      "channel": 0,
      "note": 86,
      "start": 48.6501,
      "duration": 0.0208,
      "velocity": 103,
      "chip": "ym2612"
    },
    {
      "channel": 4,
      "note": 65,
      "start": 48.6506,
      "duration": 0.0195,
      "velocity": 109,
      "chip": "ym2612"
    },
    {
      "channel": 1,
      "note": 44,
      "start": 48.6674,
      "duration": 0.1159,
      "velocity": 93,
      "chip": "ym2612"
    },
    {
      "channel": 3,
      "note": 67,
      "start": 48.6696,
      "duration": 0.0637,
      "velocity": 107,
      "chip": "ym2612"
    },
    {
      "channel": 4,
      "note": 69,
      "start": 48.6702,
      "duration": 0.0011,
      "velocity": 109,
      "chip": "ym2612"
    },
    {
      "channel": 0,
      "note": 86,
      "start": 48.6709,
      "duration": 0.0097,
      "velocity": 103,
      "chip": "ym2612"
    },
    {
      "channel": 4,
      "note": 68,
      "start": 48.6713,
      "duration": 0.0097,
      "velocity": 109,
      "chip": "ym2612"
    },
    {
      "channel": 0,
      "note": 85,
      "start": 48.6806,
      "duration": 0.0125,
      "velocity": 103,
      "chip": "ym2612"
    },
    {
      "channel": 4,
      "note": 67,
      "start": 48.681,
      "duration": 0.0125,
      "velocity": 109,
      "chip": "ym2612"
    },
    {
      "channel": 0,
      "note": 85,
      "start": 48.6931,
      "duration": 0.0127,
      "velocity": 103,
      "chip": "ym2612"
    },
    {
      "channel": 4,
      "note": 66,
      "start": 48.6935,
      "duration": 0.0127,
      "velocity": 109,
      "chip": "ym2612"
    },
    {
      "channel": 0,
      "note": 85,
      "start": 48.7059,
      "duration": 0.0281,
      "velocity": 103,
      "chip": "ym2612"
    },
    {
      "channel": 4,
      "note": 65,
      "start": 48.7063,
      "duration": 0.0281,
      "velocity": 109,
      "chip": "ym2612"
    },
    {
      "channel": 3,
      "note": 67,
      "start": 48.7336,
      "duration": 0.0519,
      "velocity": 107,
      "chip": "ym2612"
    },
    {
      "channel": 0,
      "note": 85,
      "start": 48.734,
      "duration": 0.0105,
      "velocity": 103,
      "chip": "ym2612"
    },
    {
      "channel": 4,
      "note": 64,
      "start": 48.7344,
      "duration": 0.0105,
      "velocity": 109,
      "chip": "ym2612"
    },
    {
      "channel": 0,
      "note": 85,
      "start": 48.7444,
      "duration": 0.0127,
      "velocity": 103,
      "chip": "ym2612"
    },
    {
      "channel": 4,
      "note": 63,
      "start": 48.7449,
      "duration": 0.0126,
      "velocity": 109,
      "chip": "ym2612"
    },
    {
      "channel": 0,
      "note": 85,
      "start": 48.7571,
      "duration": 0.0125,
      "velocity": 103,
      "chip": "ym2612"
    },
    {
      "channel": 4,
      "note": 62,
      "start": 48.7575,
      "duration": 0.0125,
      "velocity": 109,
      "chip": "ym2612"
    },
    {
      "channel": 0,
      "note": 84,
      "start": 48.7696,
      "duration": 0.0173,
      "velocity": 103,
      "chip": "ym2612"
    },
    {
      "channel": 4,
      "note": 61,
      "start": 48.77,
      "duration": 0.016,
      "velocity": 109,
      "chip": "ym2612"
    },
    {
      "channel": 1,
      "note": 47,
      "start": 48.7834,
      "duration": 0.1327,
      "velocity": 93,
      "chip": "ym2612"
    },
    {
      "channel": 3,
      "note": 67,
      "start": 48.7856,
      "duration": 0.1347,
      "velocity": 107,
      "chip": "ym2612"
    },
    {
      "channel": 4,
      "note": 69,
      "start": 48.7862,
      "duration": 0.1363,
      "velocity": 124,
      "chip": "ym2612"
    },
    {
      "channel": 0,
      "note": 84,
      "start": 48.7869,
      "duration": 0.0222,
      "velocity": 103,
      "chip": "ym2612"
    },
    {
      "channel": 0,
      "note": 84,
      "start": 48.8091,
      "duration": 0.0125,
      "velocity": 103,
      "chip": "ym2612"
    },
    {
      "channel": 0,
      "note": 84,
      "start": 48.8216,
      "duration": 0.0125,
      "velocity": 103,
      "chip": "ym2612"
    },
    {
      "channel": 0,
      "note": 84,
      "start": 48.8341,
      "duration": 0.0135,
      "velocity": 103,
      "chip": "ym2612"
    },
    {
      "channel": 0,
      "note": 84,
      "start": 48.8476,
      "duration": 0.0117,
      "velocity": 103,
      "chip": "ym2612"
    },
    {
      "channel": 0,
      "note": 83,
      "start": 48.8593,
      "duration": 0.0253,
      "velocity": 103,
      "chip": "ym2612"
    },
    {
      "channel": 0,
      "note": 83,
      "start": 48.8847,
      "duration": 0.0141,
      "velocity": 103,
      "chip": "ym2612"
    },
    {
      "channel": 0,
      "note": 83,
      "start": 48.8988,
      "duration": 0.0246,
      "velocity": 103,
      "chip": "ym2612"
    },
    {
      "channel": 1,
      "note": 41,
      "start": 48.9163,
      "duration": 0.28,
      "velocity": 93,
      "chip": "ym2612"
    },
    {
      "channel": 2,
      "note": 65,
      "start": 48.9184,
      "duration": 0.8207,
      "velocity": 124,
      "chip": "ym2612"
    },
    {
      "channel": 3,
      "note": 67,
      "start": 48.9206,
      "duration": 0.1273,
      "velocity": 107,
      "chip": "ym2612"
    },
    {
      "channel": 4,
      "note": 48,
      "start": 48.9227,
      "duration": 0.8191,
      "velocity": 124,
      "chip": "ym2612"
    },
    {
      "channel": 0,
      "note": 83,
      "start": 48.9234,
      "duration": 0.0066,
      "velocity": 103,
      "chip": "ym2612"
    },
    {
      "channel": 0,
      "note": 83,
      "start": 48.93,
      "duration": 0.0124,
      "velocity": 103,
      "chip": "ym2612"
    },
    {
      "channel": 0,
      "note": 82,
      "start": 48.9423,
      "duration": 0.0251,
      "velocity": 103,
      "chip": "ym2612"
    },
    {
      "channel": 0,
      "note": 82,
      "start": 48.9675,
      "duration": 0.0252,
      "velocity": 103,
      "chip": "ym2612"
    },
    {
      "channel": 0,
      "note": 82,
      "start": 48.9927,
      "duration": 0.0124,
      "velocity": 103,
      "chip": "ym2612"
    },
    {
      "channel": 0,
      "note": 82,
      "start": 49.0051,
      "duration": 0.0125,
      "velocity": 103,
      "chip": "ym2612"
    },
    {
      "channel": 0,
      "note": 82,
      "start": 49.0176,
      "duration": 0.0309,
      "velocity": 103,
      "chip": "ym2612"
    },
    {
      "channel": 3,
      "note": 67,
      "start": 49.0481,
      "duration": 0.0665,
      "velocity": 107,
      "chip": "ym2612"
    },
    {
      "channel": 0,
      "note": 81,
      "start": 49.0485,
      "duration": 0.014,
      "velocity": 103,
      "chip": "ym2612"
    },
    {
      "channel": 0,
      "note": 81,
      "start": 49.0625,
      "duration": 0.0167,
      "velocity": 103,
      "chip": "ym2612"
    },
    {
      "channel": 0,
      "note": 81,
      "start": 49.0792,
      "duration": 0.0167,
      "velocity": 103,
      "chip": "ym2612"
    },
    {
      "channel": 0,
      "note": 81,
      "start": 49.0958,
      "duration": 0.0193,
      "velocity": 103,
      "chip": "ym2612"
    },
    {
      "channel": 3,
      "note": 67,
      "start": 49.1148,
      "duration": 0.0837,
      "velocity": 107,
      "chip": "ym2612"
    },
    {
      "channel": 0,
      "note": 81,
      "start": 49.1152,
      "duration": 0.0307,
      "velocity": 103,
      "chip": "ym2612"
    },
    {
      "channel": 0,
      "note": 80,
      "start": 49.1458,
      "duration": 0.0167,
      "velocity": 103,
      "chip": "ym2612"
    },
    {
      "channel": 0,
      "note": 80,
      "start": 49.1625,
      "duration": 0.0167,
      "velocity": 103,
      "chip": "ym2612"
    },
    {
      "channel": 0,
      "note": 80,
      "start": 49.1792,
      "duration": 0.0202,
      "velocity": 103,
      "chip": "ym2612"
    },
    {
      "channel": 1,
      "note": 41,
      "start": 49.1965,
      "duration": 0.1292,
      "velocity": 93,
      "chip": "ym2612"
    },
    {
      "channel": 3,
      "note": 67,
      "start": 49.1986,
      "duration": 0.1292,
      "velocity": 107,
      "chip": "ym2612"
    },
    {
      "channel": 0,
      "note": 80,
      "start": 49.1994,
      "duration": 0.0097,
      "velocity": 103,
      "chip": "ym2612"
    },
    {
      "channel": 0,
      "note": 80,
      "start": 49.2091,
      "duration": 0.0247,
      "velocity": 103,
      "chip": "ym2612"
    },
    {
      "channel": 0,
      "note": 80,
      "start": 49.2338,
      "duration": 0.0125,
      "velocity": 103,
      "chip": "ym2612"
    },
    {
      "channel": 0,
      "note": 79,
      "start": 49.2463,
      "duration": 0.0253,
      "velocity": 103,
      "chip": "ym2612"
    },
    {
      "channel": 0,
      "note": 79,
      "start": 49.2716,
      "duration": 0.0125,
      "velocity": 103,
      "chip": "ym2612"
    },
    {
      "channel": 0,
      "note": 79,
      "start": 49.2841,
      "duration": 0.0249,
      "velocity": 103,
      "chip": "ym2612"
    },
    {
      "channel": 0,
      "note": 79,
      "start": 49.309,
      "duration": 0.0197,
      "velocity": 103,
      "chip": "ym2612"
    },
    {
      "channel": 1,
      "note": 53,
      "start": 49.3258,
      "duration": 0.1156,
      "velocity": 93,
      "chip": "ym2612"
    },
    {
      "channel": 3,
      "note": 67,
      "start": 49.328,
      "duration": 0.1155,
      "velocity": 107,
      "chip": "ym2612"
    },
    {
      "channel": 0,
      "note": 79,
      "start": 49.3287,
      "duration": 0.01,
      "velocity": 103,
      "chip": "ym2612"
    },
    {
      "channel": 0,
      "note": 79,
      "start": 49.3387,
      "duration": 0.0127,
      "velocity": 103,
      "chip": "ym2612"
    },
    {
      "channel": 0,
      "note": 79,
      "start": 49.3513,
      "duration": 0.0125,
      "velocity": 103,
      "chip": "ym2612"
    },
    {
      "channel": 0,
      "note": 79,
      "start": 49.3638,
      "duration": 0.0377,
      "velocity": 103,
      "chip": "ym2612"
    },
    {
      "channel": 0,
      "note": 79,
      "start": 49.4015,
      "duration": 0.0127,
      "velocity": 103,
      "chip": "ym2612"
    },
    {
      "channel": 0,
      "note": 78,
      "start": 49.4141,
      "duration": 0.0125,
      "velocity": 103,
      "chip": "ym2612"
    },
    {
      "channel": 0,
      "note": 78,
      "start": 49.4266,
      "duration": 0.0175,
      "velocity": 103,
      "chip": "ym2612"
    },
    {
      "channel": 1,
      "note": 51,
      "start": 49.4415,
      "duration": 0.1665,
      "velocity": 93,
      "chip": "ym2612"
    },
    {
      "channel": 3,
      "note": 67,
      "start": 49.4437,
      "duration": 0.0826,
      "velocity": 107,
      "chip": "ym2612"
    },
    {
      "channel": 0,
      "note": 78,
      "start": 49.4441,
      "duration": 0.0301,
      "velocity": 103,
      "chip": "ym2612"
    },
    {
      "channel": 0,
      "note": 78,
      "start": 49.4742,
      "duration": 0.0167,
      "velocity": 103,
      "chip": "ym2612"
    },
    {
      "channel": 0,
      "note": 78,
      "start": 49.4909,
      "duration": 0.0167,
      "velocity": 103,
      "chip": "ym2612"
    },
    {
      "channel": 0,
      "note": 78,
      "start": 49.5076,
      "duration": 0.0194,
      "velocity": 103,
      "chip": "ym2612"
    },
    {
      "channel": 3,
      "note": 67,
      "start": 49.5265,
      "duration": 0.0837,
      "velocity": 107,
      "chip": "ym2612"
    },
    {
      "channel": 0,
      "note": 78,
      "start": 49.527,
      "duration": 0.0139,
      "velocity": 103,
      "chip": "ym2612"
    },
    {
      "channel": 0,
      "note": 78,
      "start": 49.5409,
      "duration": 0.0333,
      "velocity": 103,
      "chip": "ym2612"
    },
    {
      "channel": 0,
      "note": 77,
      "start": 49.5742,
      "duration": 0.0167,
      "velocity": 103,
      "chip": "ym2612"
    },
    {
      "channel": 0,
      "note": 77,
      "start": 49.5909,
      "duration": 0.0202,
      "velocity": 103,
      "chip": "ym2612"
    },
    {
      "channel": 1,
      "note": 53,
      "start": 49.6082,
      "duration": 0.1303,
      "velocity": 93,
      "chip": "ym2612"
    },
    {
      "channel": 3,
      "note": 67,
      "start": 49.6104,
      "duration": 0.1308,
      "velocity": 107,
      "chip": "ym2612"
    },
    {
      "channel": 0,
      "note": 77,
      "start": 49.6111,
      "duration": 0.0097,
      "velocity": 103,
      "chip": "ym2612"
    },
    {
      "channel": 0,
      "note": 77,
      "start": 49.6208,
      "duration": 0.0123,
      "velocity": 103,
      "chip": "ym2612"
    },
    {
      "channel": 0,
      "note": 77,
      "start": 49.6332,
      "duration": 0.025,
      "velocity": 103,
      "chip": "ym2612"
    },
    {
      "channel": 0,
      "note": 77,
      "start": 49.6582,
      "duration": 0.0253,
      "velocity": 103,
      "chip": "ym2612"
    },
    {
      "channel": 0,
      "note": 77,
      "start": 49.6835,
      "duration": 0.0125,
      "velocity": 103,
      "chip": "ym2612"
    },
    {
      "channel": 0,
      "note": 76,
      "start": 49.6961,
      "duration": 0.0126,
      "velocity": 103,
      "chip": "ym2612"
    },
    {
      "channel": 0,
      "note": 76,
      "start": 49.7087,
      "duration": 0.034,
      "velocity": 103,
      "chip": "ym2612"
    },
    {
      "channel": 1,
      "note": 39,
      "start": 49.7387,
      "duration": 0.2408,
      "velocity": 93,
      "chip": "ym2612"
    },
    {
      "channel": 2,
      "note": 63,
      "start": 49.7393,
      "duration": 0.7697,
      "velocity": 124,
      "chip": "ym2612"
    },
    {
      "channel": 3,
      "note": 67,
      "start": 49.7414,
      "duration": 0.1126,
      "velocity": 107,
      "chip": "ym2612"
    },
    {
      "channel": 4,
      "note": 46,
      "start": 49.742,
      "duration": 0.7712,
      "velocity": 109,
      "chip": "ym2612"
    },
    {
      "channel": 0,
      "note": 76,
      "start": 49.7427,
      "duration": 0.0091,
      "velocity": 103,
      "chip": "ym2612"
    },
    {
      "channel": 0,
      "note": 76,
      "start": 49.7517,
      "duration": 0.0126,
      "velocity": 103,
      "chip": "ym2612"
    },
    {
      "channel": 0,
      "note": 76,
      "start": 49.7644,
      "duration": 0.0125,
      "velocity": 103,
      "chip": "ym2612"
    },
    {
      "channel": 0,
      "note": 76,
      "start": 49.7768,
      "duration": 0.0373,
      "velocity": 103,
      "chip": "ym2612"
    },
    {
      "channel": 0,
      "note": 76,
      "start": 49.8141,
      "duration": 0.0125,
      "velocity": 103,
      "chip": "ym2612"
    },
    {
      "channel": 0,
      "note": 75,
      "start": 49.8266,
      "duration": 0.0127,
      "velocity": 103,
      "chip": "ym2612"
    },
    {
      "channel": 0,
      "note": 75,
      "start": 49.8393,
      "duration": 0.0156,
      "velocity": 103,
      "chip": "ym2612"
    },
    {
      "channel": 3,
      "note": 67,
      "start": 49.8542,
      "duration": 0.0636,
      "velocity": 107,
      "chip": "ym2612"
    },
    {
      "channel": 0,
      "note": 75,
      "start": 49.8549,
      "duration": 0.0102,
      "velocity": 103,
      "chip": "ym2612"
    },
    {
      "channel": 0,
      "note": 75,
      "start": 49.8651,
      "duration": 0.025,
      "velocity": 103,
      "chip": "ym2612"
    },
    {
      "channel": 0,
      "note": 75,
      "start": 49.8901,
      "duration": 0.0125,
      "velocity": 103,
      "chip": "ym2612"
    },
    {
      "channel": 0,
      "note": 75,
      "start": 49.9026,
      "duration": 0.0161,
      "velocity": 103,
      "chip": "ym2612"
    },
    {
      "channel": 3,
      "note": 67,
      "start": 49.918,
      "duration": 0.0637,
      "velocity": 107,
      "chip": "ym2612"
    },
    {
      "channel": 0,
      "note": 75,
      "start": 49.9188,
      "duration": 0.0104,
      "velocity": 103,
      "chip": "ym2612"
    },
    {
      "channel": 0,
      "note": 74,
      "start": 49.9291,
      "duration": 0.0125,
      "velocity": 103,
      "chip": "ym2612"
    },
    {
      "channel": 0,
      "note": 74,
      "start": 49.9416,
      "duration": 0.0248,
      "velocity": 103,
      "chip": "ym2612"
    },
    {
      "channel": 0,
      "note": 74,
      "start": 49.9664,
      "duration": 0.0162,
      "velocity": 103,
      "chip": "ym2612"
    },
    {
      "channel": 1,
      "note": 39,
      "start": 49.9797,
      "duration": 0.1137,
      "velocity": 93,
      "chip": "ym2612"
    },
    {
      "channel": 3,
      "note": 67,
      "start": 49.9819,
      "duration": 0.1136,
      "velocity": 107,
      "chip": "ym2612"
    },
    {
      "channel": 0,
      "note": 74,
      "start": 49.9826,
      "duration": 0.0099,
      "velocity": 103,
      "chip": "ym2612"
    },
    {
      "channel": 0,
      "note": 74,
      "start": 49.9924,
      "duration": 0.0126,
      "velocity": 103,
      "chip": "ym2612"
    },
    {
      "channel": 0,
      "note": 74,
      "start": 50.005,
      "duration": 0.0127,
      "velocity": 103,
      "chip": "ym2612"
    },
    {
      "channel": 0,
      "note": 73,
      "start": 50.0177,
      "duration": 0.0376,
      "velocity": 103,
      "chip": "ym2612"
    },
    {
      "channel": 0,
      "note": 73,
      "start": 50.0553,
      "duration": 0.0127,
      "velocity": 103,
      "chip": "ym2612"
    },
    {
      "channel": 0,
      "note": 73,
      "start": 50.068,
      "duration": 0.0126,
      "velocity": 103,
      "chip": "ym2612"
    },
    {
      "channel": 0,
      "note": 73,
      "start": 50.0806,
      "duration": 0.0159,
      "velocity": 103,
      "chip": "ym2612"
    },
    {
      "channel": 1,
      "note": 51,
      "start": 50.0935,
      "duration": 0.132,
      "velocity": 93,
      "chip": "ym2612"
    },
    {
      "channel": 3,
      "note": 67,
      "start": 50.0957,
      "duration": 0.132,
      "velocity": 107,
      "chip": "ym2612"
    },
    {
      "channel": 0,
      "note": 73,
      "start": 50.0965,
      "duration": 0.0223,
      "velocity": 103,
      "chip": "ym2612"
    },
    {
      "channel": 0,
      "note": 73,
      "start": 50.1188,
      "duration": 0.0125,
      "velocity": 103,
      "chip": "ym2612"
    },
    {
      "channel": 0,
      "note": 72,
      "start": 50.1313,
      "duration": 0.0126,
      "velocity": 103,
      "chip": "ym2612"
    },
    {
      "channel": 0,
      "note": 72,
      "start": 50.1439,
      "duration": 0.0248,
      "velocity": 103,
      "chip": "ym2612"
    },
    {
      "channel": 0,
      "note": 72,
      "start": 50.1687,
      "duration": 0.0252,
      "velocity": 103,
      "chip": "ym2612"
    },
    {
      "channel": 0,
      "note": 72,
      "start": 50.1939,
      "duration": 0.0144,
      "velocity": 103,
      "chip": "ym2612"
    },
    {
      "channel": 0,
      "note": 72,
      "start": 50.2084,
      "duration": 0.0198,
      "velocity": 103,
      "chip": "ym2612"
    },
    {
      "channel": 1,
      "note": 49,
      "start": 50.2256,
      "duration": 0.1666,
      "velocity": 93,
      "chip": "ym2612"
    },
    {
      "channel": 3,
      "note": 67,
      "start": 50.2278,
      "duration": 0.0826,
      "velocity": 107,
      "chip": "ym2612"
    },
    {
      "channel": 0,
      "note": 72,
      "start": 50.2282,
      "duration": 0.0135,
      "velocity": 103,
      "chip": "ym2612"
    },
    {
      "channel": 0,
      "note": 71,
      "start": 50.2417,
      "duration": 0.0167,
      "velocity": 103,
      "chip": "ym2612"
    },
    {
      "channel": 0,
      "note": 71,
      "start": 50.2584,
      "duration": 0.0333,
      "velocity": 103,
      "chip": "ym2612"
    },
    {
      "channel": 0,
      "note": 71,
      "start": 50.2917,
      "duration": 0.0194,
      "velocity": 103,
      "chip": "ym2612"
    },
    {
      "channel": 3,
      "note": 67,
      "start": 50.3107,
      "duration": 0.0837,
      "velocity": 107,
      "chip": "ym2612"
    },
    {
      "channel": 0,
      "note": 71,
      "start": 50.3111,
      "duration": 0.0139,
      "velocity": 103,
      "chip": "ym2612"
    },
    {
      "channel": 0,
      "note": 71,
      "start": 50.325,
      "duration": 0.0167,
      "velocity": 103,
      "chip": "ym2612"
    },
    {
      "channel": 0,
      "note": 70,
      "start": 50.3417,
      "duration": 0.0167,
      "velocity": 103,
      "chip": "ym2612"
    },
    {
      "channel": 0,
      "note": 70,
      "start": 50.3584,
      "duration": 0.0369,
      "velocity": 103,
      "chip": "ym2612"
    },
    {
      "channel": 1,
      "note": 46,
      "start": 50.3923,
      "duration": 0.116,
      "velocity": 93,
      "chip": "ym2612"
    },
    {
      "channel": 3,
      "note": 67,
      "start": 50.3946,
      "duration": 0.1165,
      "velocity": 107,
      "chip": "ym2612"
    },
    {
      "channel": 0,
      "note": 70,
      "start": 50.3953,
      "duration": 0.01,
      "velocity": 103,
      "chip": "ym2612"
    },
    {
      "channel": 0,
      "note": 70,
      "start": 50.4052,
      "duration": 0.0125,
      "velocity": 103,
      "chip": "ym2612"
    },
    {
      "channel": 0,
      "note": 70,
      "start": 50.4177,
      "duration": 0.0124,
      "velocity": 103,
      "chip": "ym2612"
    },
    {
      "channel": 0,
      "note": 69,
      "start": 50.4301,
      "duration": 0.0377,
      "velocity": 103,
      "chip": "ym2612"
    },
    {
      "channel": 0,
      "note": 69,
      "start": 50.4678,
      "duration": 0.0125,
      "velocity": 103,
      "chip": "ym2612"
    },
    {
      "channel": 0,
      "note": 69,
      "start": 50.4804,
      "duration": 0.0124,
      "velocity": 103,
      "chip": "ym2612"
    },
    {
      "channel": 0,
      "note": 69,
      "start": 50.4928,
      "duration": 0.015,
      "velocity": 121,
      "chip": "ym2612"
    },
    {
      "channel": 0,
      "note": 41,
      "start": 50.508,
      "duration": 1.1921,
      "velocity": 121,
      "chip": "ym2612"
    },
    {
      "channel": 1,
      "note": 41,
      "start": 50.5085,
      "duration": 0.2777,
      "velocity": 93,
      "chip": "ym2612"
    },
    {
      "channel": 2,
      "note": 65,
      "start": 50.5091,
      "duration": 0.821,
      "velocity": 124,
      "chip": "ym2612"
    },
    {
      "channel": 3,
      "note": 67,
      "start": 50.5112,
      "duration": 0.1267,
      "velocity": 107,
      "chip": "ym2612"
    },
    {
      "channel": 4,
      "note": 74,
      "start": 50.5134,
      "duration": 0.0008,
      "velocity": 109,
      "chip": "ym2612"
    },
    {
      "channel": 4,
      "note": 73,
      "start": 50.5142,
      "duration": 0.0061,
      "velocity": 109,
      "chip": "ym2612"
    },
    {
      "channel": 4,
      "note": 72,
      "start": 50.5203,
      "duration": 0.0251,
      "velocity": 109,
      "chip": "ym2612"
    },
    {
      "channel": 4,
      "note": 70,
      "start": 50.5454,
      "duration": 0.0124,
      "velocity": 109,
      "chip": "ym2612"
    },
    {
      "channel": 4,
      "note": 69,
      "start": 50.5578,
      "duration": 0.0249,
      "velocity": 109,
      "chip": "ym2612"
    },
    {
      "channel": 4,
      "note": 68,
      "start": 50.5827,
      "duration": 0.0127,
      "velocity": 109,
      "chip": "ym2612"
    },
    {
      "channel": 4,
      "note": 67,
      "start": 50.5953,
      "duration": 0.0253,
      "velocity": 109,
      "chip": "ym2612"
    },
    {
      "channel": 4,
      "note": 66,
      "start": 50.6206,
      "duration": 0.0179,
      "velocity": 109,
      "chip": "ym2612"
    },
    {
      "channel": 3,
      "note": 67,
      "start": 50.638,
      "duration": 0.0832,
      "velocity": 107,
      "chip": "ym2612"
    },
    {
      "channel": 4,
      "note": 74,
      "start": 50.6387,
      "duration": 0.0005,
      "velocity": 109,
      "chip": "ym2612"
    },
    {
      "channel": 4,
      "note": 73,
      "start": 50.6392,
      "duration": 0.0134,
      "velocity": 109,
      "chip": "ym2612"
    },
    {
      "channel": 4,
      "note": 72,
      "start": 50.6526,
      "duration": 0.0167,
      "velocity": 109,
      "chip": "ym2612"
    },
    {
      "channel": 4,
      "note": 70,
      "start": 50.6693,
      "duration": 0.0167,
      "velocity": 109,
      "chip": "ym2612"
    },
    {
      "channel": 4,
      "note": 69,
      "start": 50.6859,
      "duration": 0.0359,
      "velocity": 109,
      "chip": "ym2612"
    },
    {
      "channel": 3,
      "note": 67,
      "start": 50.7214,
      "duration": 0.0671,
      "velocity": 107,
      "chip": "ym2612"
    },
    {
      "channel": 4,
      "note": 74,
      "start": 50.722,
      "duration": 0.0005,
      "velocity": 109,
      "chip": "ym2612"
    },
    {
      "channel": 4,
      "note": 73,
      "start": 50.7225,
      "duration": 0.0134,
      "velocity": 109,
      "chip": "ym2612"
    },
    {
      "channel": 4,
      "note": 72,
      "start": 50.7359,
      "duration": 0.0167,
      "velocity": 109,
      "chip": "ym2612"
    },
    {
      "channel": 4,
      "note": 70,
      "start": 50.7526,
      "duration": 0.0167,
      "velocity": 109,
      "chip": "ym2612"
    },
    {
      "channel": 4,
      "note": 69,
      "start": 50.7693,
      "duration": 0.0198,
      "velocity": 109,
      "chip": "ym2612"
    },
    {
      "channel": 1,
      "note": 41,
      "start": 50.7865,
      "duration": 0.13,
      "velocity": 93,
      "chip": "ym2612"
    },
    {
      "channel": 3,
      "note": 67,
      "start": 50.7886,
      "duration": 0.13,
      "velocity": 107,
      "chip": "ym2612"
    },
    {
      "channel": 4,
      "note": 74,
      "start": 50.7892,
      "duration": 0.0009,
      "velocity": 109,
      "chip": "ym2612"
    },
    {
      "channel": 4,
      "note": 73,
      "start": 50.7901,
      "duration": 0.0222,
      "velocity": 109,
      "chip": "ym2612"
    },
    {
      "channel": 4,
      "note": 72,
      "start": 50.8123,
      "duration": 0.0126,
      "velocity": 109,
      "chip": "ym2612"
    },
    {
      "channel": 4,
      "note": 70,
      "start": 50.8249,
      "duration": 0.0126,
      "velocity": 109,
      "chip": "ym2612"
    },
    {
      "channel": 4,
      "note": 69,
      "start": 50.8375,
      "duration": 0.0247,
      "velocity": 109,
      "chip": "ym2612"
    },
    {
      "channel": 4,
      "note": 68,
      "start": 50.8622,
      "duration": 0.0252,
      "velocity": 109,
      "chip": "ym2612"
    },
    {
      "channel": 4,
      "note": 67,
      "start": 50.8874,
      "duration": 0.0127,
      "velocity": 109,
      "chip": "ym2612"
    },
    {
      "channel": 4,
      "note": 66,
      "start": 50.9001,
      "duration": 0.019,
      "velocity": 109,
      "chip": "ym2612"
    },
    {
      "channel": 1,
      "note": 53,
      "start": 50.9166,
      "duration": 0.1322,
      "velocity": 93,
      "chip": "ym2612"
    },
    {
      "channel": 3,
      "note": 67,
      "start": 50.9188,
      "duration": 0.1322,
      "velocity": 107,
      "chip": "ym2612"
    },
    {
      "channel": 4,
      "note": 71,
      "start": 50.9193,
      "duration": 0.0008,
      "velocity": 109,
      "chip": "ym2612"
    },
    {
      "channel": 4,
      "note": 70,
      "start": 50.9202,
      "duration": 0.0095,
      "velocity": 109,
      "chip": "ym2612"
    },
    {
      "channel": 4,
      "note": 68,
      "start": 50.9297,
      "duration": 0.0125,
      "velocity": 109,
      "chip": "ym2612"
    },
    {
      "channel": 4,
      "note": 67,
      "start": 50.9422,
      "duration": 0.0251,
      "velocity": 109,
      "chip": "ym2612"
    },
    {
      "channel": 4,
      "note": 66,
      "start": 50.9673,
      "duration": 0.025,
      "velocity": 109,
      "chip": "ym2612"
    },
    {
      "channel": 4,
      "note": 66,
      "start": 50.9922,
      "duration": 0.0126,
      "velocity": 109,
      "chip": "ym2612"
    },
    {
      "channel": 4,
      "note": 65,
      "start": 51.0049,
      "duration": 0.0126,
      "velocity": 109,
      "chip": "ym2612"
    },
    {
      "channel": 4,
      "note": 64,
      "start": 51.0175,
      "duration": 0.034,
      "velocity": 109,
      "chip": "ym2612"
    },
    {
      "channel": 1,
      "note": 51,
      "start": 51.0489,
      "duration": 0.1499,
      "velocity": 93,
      "chip": "ym2612"
    },
    {
      "channel": 3,
      "note": 67,
      "start": 51.051,
      "duration": 0.066,
      "velocity": 107,
      "chip": "ym2612"
    },
    {
      "channel": 4,
      "note": 71,
      "start": 51.0517,
      "duration": 0.0005,
      "velocity": 109,
      "chip": "ym2612"
    },
    {
      "channel": 4,
      "note": 70,
      "start": 51.0522,
      "duration": 0.0129,
      "velocity": 109,
      "chip": "ym2612"
    },
    {
      "channel": 4,
      "note": 68,
      "start": 51.0651,
      "duration": 0.0167,
      "velocity": 109,
      "chip": "ym2612"
    },
    {
      "channel": 4,
      "note": 67,
      "start": 51.0818,
      "duration": 0.0167,
      "velocity": 109,
      "chip": "ym2612"
    },
    {
      "channel": 4,
      "note": 66,
      "start": 51.0984,
      "duration": 0.0192,
      "velocity": 109,
      "chip": "ym2612"
    },
    {
      "channel": 3,
      "note": 67,
      "start": 51.1173,
      "duration": 0.0837,
      "velocity": 107,
      "chip": "ym2612"
    },
    {
      "channel": 4,
      "note": 71,
      "start": 51.1178,
      "duration": 0.0005,
      "velocity": 109,
      "chip": "ym2612"
    },
    {
      "channel": 4,
      "note": 70,
      "start": 51.1183,
      "duration": 0.0301,
      "velocity": 109,
      "chip": "ym2612"
    },
    {
      "channel": 4,
      "note": 68,
      "start": 51.1484,
      "duration": 0.0167,
      "velocity": 109,
      "chip": "ym2612"
    },
    {
      "channel": 4,
      "note": 67,
      "start": 51.1651,
      "duration": 0.0167,
      "velocity": 109,
      "chip": "ym2612"
    },
    {
      "channel": 4,
      "note": 66,
      "start": 51.1818,
      "duration": 0.0197,
      "velocity": 109,
      "chip": "ym2612"
    },
    {
      "channel": 1,
      "note": 53,
      "start": 51.1989,
      "duration": 0.1306,
      "velocity": 93,
      "chip": "ym2612"
    },
    {
      "channel": 3,
      "note": 67,
      "start": 51.2011,
      "duration": 0.1311,
      "velocity": 107,
      "chip": "ym2612"
    },
    {
      "channel": 4,
      "note": 71,
      "start": 51.2017,
      "duration": 0.0008,
      "velocity": 109,
      "chip": "ym2612"
    },
    {
      "channel": 4,
      "note": 70,
      "start": 51.2025,
      "duration": 0.0095,
      "velocity": 109,
      "chip": "ym2612"
    },
    {
      "channel": 4,
      "note": 68,
      "start": 51.212,
      "duration": 0.025,
      "velocity": 109,
      "chip": "ym2612"
    },
    {
      "channel": 4,
      "note": 67,
      "start": 51.237,
      "duration": 0.0127,
      "velocity": 109,
      "chip": "ym2612"
    },
    {
      "channel": 4,
      "note": 66,
      "start": 51.2497,
      "duration": 0.025,
      "velocity": 109,
      "chip": "ym2612"
    },
    {
      "channel": 4,
      "note": 66,
      "start": 51.2746,
      "duration": 0.0126,
      "velocity": 109,
      "chip": "ym2612"
    },
    {
      "channel": 4,
      "note": 65,
      "start": 51.2873,
      "duration": 0.0255,
      "velocity": 109,
      "chip": "ym2612"
    },
    {
      "channel": 4,
      "note": 64,
      "start": 51.3128,
      "duration": 0.0201,
      "velocity": 109,
      "chip": "ym2612"
    },
    {
      "channel": 1,
      "note": 42,
      "start": 51.3297,
      "duration": 0.3725,
      "velocity": 112,
      "chip": "ym2612"
    },
    {
      "channel": 2,
      "note": 66,
      "start": 51.3303,
      "duration": 0.7344,
      "velocity": 121,
      "chip": "ym2612"
    },
    {
      "channel": 3,
      "note": 67,
      "start": 51.3324,
      "duration": 0.1116,
      "velocity": 107,
      "chip": "ym2612"
    },
    {
      "channel": 4,
      "note": 74,
      "start": 51.333,
      "duration": 0.0009,
      "velocity": 109,
      "chip": "ym2612"
    },
    {
      "channel": 4,
      "note": 73,
      "start": 51.3339,
      "duration": 0.0088,
      "velocity": 109,
      "chip": "ym2612"
    },
    {
      "channel": 4,
      "note": 72,
      "start": 51.3427,
      "duration": 0.0122,
      "velocity": 109,
      "chip": "ym2612"
    },
    {
      "channel": 4,
      "note": 70,
      "start": 51.3549,
      "duration": 0.0125,
      "velocity": 109,
      "chip": "ym2612"
    },
    {
      "channel": 4,
      "note": 69,
      "start": 51.3673,
      "duration": 0.0374,
      "velocity": 109,
      "chip": "ym2612"
    },
    {
      "channel": 4,
      "note": 68,
      "start": 51.4048,
      "duration": 0.0124,
      "velocity": 109,
      "chip": "ym2612"
    },
    {
      "channel": 4,
      "note": 67,
      "start": 51.4172,
      "duration": 0.0124,
      "velocity": 109,
      "chip": "ym2612"
    },
    {
      "channel": 4,
      "note": 66,
      "start": 51.4296,
      "duration": 0.015,
      "velocity": 109,
      "chip": "ym2612"
    },
    {
      "channel": 3,
      "note": 67,
      "start": 51.4442,
      "duration": 0.0639,
      "velocity": 107,
      "chip": "ym2612"
    },
    {
      "channel": 4,
      "note": 71,
      "start": 51.4448,
      "duration": 0.0008,
      "velocity": 109,
      "chip": "ym2612"
    },
    {
      "channel": 4,
      "note": 70,
      "start": 51.4456,
      "duration": 0.0227,
      "velocity": 109,
      "chip": "ym2612"
    },
    {
      "channel": 4,
      "note": 68,
      "start": 51.4683,
      "duration": 0.0124,
      "velocity": 109,
      "chip": "ym2612"
    },
    {
      "channel": 4,
      "note": 67,
      "start": 51.4807,
      "duration": 0.0124,
      "velocity": 109,
      "chip": "ym2612"
    },
    {
      "channel": 4,
      "note": 66,
      "start": 51.4931,
      "duration": 0.0161,
      "velocity": 109,
      "chip": "ym2612"
    },
    {
      "channel": 3,
      "note": 67,
      "start": 51.5083,
      "duration": 0.0634,
      "velocity": 107,
      "chip": "ym2612"
    },
    {
      "channel": 4,
      "note": 66,
      "start": 51.5092,
      "duration": 0.0102,
      "velocity": 109,
      "chip": "ym2612"
    },
    {
      "channel": 4,
      "note": 65,
      "start": 51.5195,
      "duration": 0.0249,
      "velocity": 109,
      "chip": "ym2612"
    },
    {
      "channel": 4,
      "note": 64,
      "start": 51.5444,
      "duration": 0.0124,
      "velocity": 109,
      "chip": "ym2612"
    },
    {
      "channel": 4,
      "note": 63,
      "start": 51.5569,
      "duration": 0.0154,
      "velocity": 109,
      "chip": "ym2612"
    },
    {
      "channel": 3,
      "note": 67,
      "start": 51.5719,
      "duration": 0.1325,
      "velocity": 107,
      "chip": "ym2612"
    },
    {
      "channel": 4,
      "note": 67,
      "start": 51.5725,
      "duration": 0.0008,
      "velocity": 109,
      "chip": "ym2612"
    },
    {
      "channel": 4,
      "note": 66,
      "start": 51.5733,
      "duration": 0.0096,
      "velocity": 109,
      "chip": "ym2612"
    },
    {
      "channel": 4,
      "note": 65,
      "start": 51.5829,
      "duration": 0.0122,
      "velocity": 109,
      "chip": "ym2612"
    },
    {
      "channel": 4,
      "note": 64,
      "start": 51.5951,
      "duration": 0.0251,
      "velocity": 109,
      "chip": "ym2612"
    },
    {
      "channel": 4,
      "note": 63,
      "start": 51.6202,
      "duration": 0.0253,
      "velocity": 109,
      "chip": "ym2612"
    },
    {
      "channel": 4,
      "note": 62,
      "start": 51.6456,
      "duration": 0.0127,
      "velocity": 109,
      "chip": "ym2612"
    },
    {
      "channel": 4,
      "note": 61,
      "start": 51.6583,
      "duration": 0.0127,
      "velocity": 109,
      "chip": "ym2612"
    },
    {
      "channel": 4,
      "note": 60,
      "start": 51.671,
      "duration": 0.0339,
      "velocity": 109,
      "chip": "ym2612"
    },
    {
      "channel": 0,
      "note": 53,
      "start": 51.7003,
      "duration": 0.1152,
      "velocity": 121,
      "chip": "ym2612"
    },
    {
      "channel": 1,
      "note": 41,
      "start": 51.7024,
      "duration": 0.1137,
      "velocity": 112,
      "chip": "ym2612"
    },
    {
      "channel": 3,
      "note": 67,
      "start": 51.7046,
      "duration": 0.1136,
      "velocity": 107,
      "chip": "ym2612"
    },
    {
      "channel": 4,
      "note": 74,
      "start": 51.7052,
      "duration": 0.0008,
      "velocity": 109,
      "chip": "ym2612"
    },
    {
      "channel": 4,
      "note": 73,
      "start": 51.706,
      "duration": 0.0077,
      "velocity": 109,
      "chip": "ym2612"
    },
    {
      "channel": 4,
      "note": 72,
      "start": 51.7137,
      "duration": 0.0127,
      "velocity": 109,
      "chip": "ym2612"
    },
    {
      "channel": 4,
      "note": 70,
      "start": 51.7263,
      "duration": 0.0127,
      "velocity": 109,
      "chip": "ym2612"
    },
    {
      "channel": 4,
      "note": 69,
      "start": 51.7391,
      "duration": 0.0378,
      "velocity": 109,
      "chip": "ym2612"
    },
    {
      "channel": 4,
      "note": 68,
      "start": 51.7769,
      "duration": 0.0123,
      "velocity": 109,
      "chip": "ym2612"
    },
    {
      "channel": 4,
      "note": 67,
      "start": 51.7892,
      "duration": 0.0125,
      "velocity": 109,
      "chip": "ym2612"
    },
    {
      "channel": 4,
      "note": 66,
      "start": 51.8017,
      "duration": 0.0172,
      "velocity": 109,
      "chip": "ym2612"
    },
    {
      "channel": 0,
      "note": 50,
      "start": 51.8157,
      "duration": 0.1315,
      "velocity": 121,
      "chip": "ym2612"
    },
    {
      "channel": 1,
      "note": 38,
      "start": 51.8163,
      "duration": 0.1315,
      "velocity": 112,
      "chip": "ym2612"
    },
    {
      "channel": 3,
      "note": 67,
      "start": 51.8184,
      "duration": 0.0625,
      "velocity": 107,
      "chip": "ym2612"
    },
    {
      "channel": 4,
      "note": 71,
      "start": 51.819,
      "duration": 0.0009,
      "velocity": 109,
      "chip": "ym2612"
    },
    {
      "channel": 4,
      "note": 70,
      "start": 51.8199,
      "duration": 0.0088,
      "velocity": 109,
      "chip": "ym2612"
    },
    {
      "channel": 4,
      "note": 68,
      "start": 51.8287,
      "duration": 0.0251,
      "velocity": 109,
      "chip": "ym2612"
    },
    {
      "channel": 4,
      "note": 67,
      "start": 51.8538,
      "duration": 0.0124,
      "velocity": 109,
      "chip": "ym2612"
    },
    {
      "channel": 4,
      "note": 66,
      "start": 51.8662,
      "duration": 0.0155,
      "velocity": 109,
      "chip": "ym2612"
    },
    {
      "channel": 3,
      "note": 67,
      "start": 51.8811,
      "duration": 0.0688,
      "velocity": 107,
      "chip": "ym2612"
    },
    {
      "channel": 4,
      "note": 66,
      "start": 51.8817,
      "duration": 0.0101,
      "velocity": 109,
      "chip": "ym2612"
    },
    {
      "channel": 4,
      "note": 65,
      "start": 51.8918,
      "duration": 0.0125,
      "velocity": 109,
      "chip": "ym2612"
    },
    {
      "channel": 4,
      "note": 64,
      "start": 51.9043,
      "duration": 0.026,
      "velocity": 109,
      "chip": "ym2612"
    },
    {
      "channel": 4,
      "note": 63,
      "start": 51.9303,
      "duration": 0.0203,
      "velocity": 109,
      "chip": "ym2612"
    },
    {
      "channel": 0,
      "note": 53,
      "start": 51.9474,
      "duration": 0.1146,
      "velocity": 121,
      "chip": "ym2612"
    },
    {
      "channel": 1,
      "note": 41,
      "start": 51.948,
      "duration": 0.1146,
      "velocity": 112,
      "chip": "ym2612"
    },
    {
      "channel": 3,
      "note": 67,
      "start": 51.9502,
      "duration": 0.1166,
      "velocity": 107,
      "chip": "ym2612"
    },
    {
      "channel": 4,
      "note": 67,
      "start": 51.9507,
      "duration": 0.0009,
      "velocity": 109,
      "chip": "ym2612"
    },
    {
      "channel": 4,
      "note": 66,
      "start": 51.9516,
      "duration": 0.0088,
      "velocity": 109,
      "chip": "ym2612"
    },
    {
      "channel": 4,
      "note": 65,
      "start": 51.9604,
      "duration": 0.0122,
      "velocity": 109,
      "chip": "ym2612"
    },
    {
      "channel": 4,
      "note": 64,
      "start": 51.9726,
      "duration": 0.0125,
      "velocity": 109,
      "chip": "ym2612"
    },
    {
      "channel": 4,
      "note": 63,
      "start": 51.9851,
      "duration": 0.0259,
      "velocity": 109,
      "chip": "ym2612"
    },
    {
      "channel": 4,
      "note": 62,
      "start": 52.011,
      "duration": 0.0118,
      "velocity": 109,
      "chip": "ym2612"
    },
    {
      "channel": 4,
      "note": 61,
      "start": 52.0228,
      "duration": 0.0124,
      "velocity": 109,
      "chip": "ym2612"
    },
    {
      "channel": 4,
      "note": 60,
      "start": 52.0353,
      "duration": 0.0124,
      "velocity": 109,
      "chip": "ym2612"
    },
    {
      "channel": 4,
      "note": 59,
      "start": 52.0477,
      "duration": 0.0202,
      "velocity": 109,
      "chip": "ym2612"
    },
    {
      "channel": 0,
      "note": 55,
      "start": 52.0622,
      "duration": 2.4183,
      "velocity": 121,
      "chip": "ym2612"
    },
    {
      "channel": 1,
      "note": 43,
      "start": 52.0627,
      "duration": 2.4183,
      "velocity": 112,
      "chip": "ym2612"
    },
    {
      "channel": 2,
      "note": 55,
      "start": 52.0649,
      "duration": 2.4183,
      "velocity": 109,
      "chip": "ym2612"
    },
    {
      "channel": 3,
      "note": 67,
      "start": 52.067,
      "duration": 0.1267,
      "velocity": 107,
      "chip": "ym2612"
    },
    {
      "channel": 4,
      "note": 57,
      "start": 52.0679,
      "duration": 0.0207,
      "velocity": 109,
      "chip": "ym2612"
    },
    {
      "channel": 4,
      "note": 56,
      "start": 52.0886,
      "duration": 0.0127,
      "velocity": 109,
      "chip": "ym2612"
    },
    {
      "channel": 4,
      "note": 55,
      "start": 52.1013,
      "duration": 0.0122,
      "velocity": 109,
      "chip": "ym2612"
    },
    {
      "channel": 4,
      "note": 54,
      "start": 52.1135,
      "duration": 0.0144,
      "velocity": 109,
      "chip": "ym2612"
    },
    {
      "channel": 4,
      "note": 53,
      "start": 52.1279,
      "duration": 0.0105,
      "velocity": 109,
      "chip": "ym2612"
    },
    {
      "channel": 4,
      "note": 52,
      "start": 52.1384,
      "duration": 0.0252,
      "velocity": 109,
      "chip": "ym2612"
    },
    {
      "channel": 4,
      "note": 51,
      "start": 52.1636,
      "duration": 0.0128,
      "velocity": 109,
      "chip": "ym2612"
    },
    {
      "channel": 4,
      "note": 50,
      "start": 52.1765,
      "duration": 0.018,
      "velocity": 109,
      "chip": "ym2612"
    },
    {
      "channel": 3,
      "note": 67,
      "start": 52.1939,
      "duration": 0.0831,
      "velocity": 107,
      "chip": "ym2612"
    },
    {
      "channel": 4,
      "note": 49,
      "start": 52.1944,
      "duration": 0.0139,
      "velocity": 109,
      "chip": "ym2612"
    },
    {
      "channel": 4,
      "note": 48,
      "start": 52.2084,
      "duration": 0.0167,
      "velocity": 109,
      "chip": "ym2612"
    },
    {
      "channel": 4,
      "note": 47,
      "start": 52.225,
      "duration": 0.0333,
      "velocity": 109,
      "chip": "ym2612"
    },
    {
      "channel": 4,
      "note": 45,
      "start": 52.2584,
      "duration": 0.0193,
      "velocity": 109,
      "chip": "ym2612"
    },
    {
      "channel": 3,
      "note": 67,
      "start": 52.2771,
      "duration": 0.0832,
      "velocity": 107,
      "chip": "ym2612"
    },
    {
      "channel": 4,
      "note": 44,
      "start": 52.2777,
      "duration": 0.014,
      "velocity": 109,
      "chip": "ym2612"
    },
    {
      "channel": 4,
      "note": 43,
      "start": 52.2917,
      "duration": 0.0167,
      "velocity": 109,
      "chip": "ym2612"
    },
    {
      "channel": 4,
      "note": 42,
      "start": 52.3084,
      "duration": 0.0167,
      "velocity": 109,
      "chip": "ym2612"
    },
    {
      "channel": 4,
      "note": 41,
      "start": 52.325,
      "duration": 0.0364,
      "velocity": 109,
      "chip": "ym2612"
    },
    {
      "channel": 3,
      "note": 67,
      "start": 52.3605,
      "duration": 0.1135,
      "velocity": 107,
      "chip": "ym2612"
    },
    {
      "channel": 4,
      "note": 40,
      "start": 52.3614,
      "duration": 0.0098,
      "velocity": 109,
      "chip": "ym2612"
    },
    {
      "channel": 4,
      "note": 39,
      "start": 52.3713,
      "duration": 0.0124,
      "velocity": 109,
      "chip": "ym2612"
    },
    {
      "channel": 4,
      "note": 38,
      "start": 52.3837,
      "duration": 0.0124,
      "velocity": 109,
      "chip": "ym2612"
    },
    {
      "channel": 4,
      "note": 37,
      "start": 52.3961,
      "duration": 0.0379,
      "velocity": 109,
      "chip": "ym2612"
    },
    {
      "channel": 4,
      "note": 36,
      "start": 52.434,
      "duration": 0.0127,
      "velocity": 109,
      "chip": "ym2612"
    },
    {
      "channel": 4,
      "note": 35,
      "start": 52.4467,
      "duration": 0.0126,
      "velocity": 109,
      "chip": "ym2612"
    },
    {
      "channel": 4,
      "note": 33,
      "start": 52.4593,
      "duration": 0.0158,
      "velocity": 109,
      "chip": "ym2612"
    },
    {
      "channel": 3,
      "note": 67,
      "start": 52.4741,
      "duration": 0.1321,
      "velocity": 107,
      "chip": "ym2612"
    },
    {
      "channel": 4,
      "note": 32,
      "start": 52.4751,
      "duration": 0.01,
      "velocity": 109,
      "chip": "ym2612"
    },
    {
      "channel": 4,
      "note": 31,
      "start": 52.4851,
      "duration": 0.0249,
      "velocity": 109,
      "chip": "ym2612"
    },
    {
      "channel": 4,
      "note": 30,
      "start": 52.51,
      "duration": 0.0126,
      "velocity": 109,
      "chip": "ym2612"
    },
    {
      "channel": 4,
      "note": 29,
      "start": 52.5226,
      "duration": 0.0253,
      "velocity": 109,
      "chip": "ym2612"
    },
    {
      "channel": 4,
      "note": 28,
      "start": 52.5479,
      "duration": 0.0125,
      "velocity": 109,
      "chip": "ym2612"
    },
    {
      "channel": 4,
      "note": 27,
      "start": 52.5604,
      "duration": 0.0273,
      "velocity": 109,
      "chip": "ym2612"
    },
    {
      "channel": 4,
      "note": 26,
      "start": 52.5877,
      "duration": 0.0193,
      "velocity": 109,
      "chip": "ym2612"
    },
    {
      "channel": 3,
      "note": 67,
      "start": 52.6065,
      "duration": 0.0831,
      "velocity": 107,
      "chip": "ym2612"
    },
    {
      "channel": 4,
      "note": 25,
      "start": 52.607,
      "duration": 0.014,
      "velocity": 109,
      "chip": "ym2612"
    },
    {
      "channel": 4,
      "note": 24,
      "start": 52.621,
      "duration": 0.0167,
      "velocity": 109,
      "chip": "ym2612"
    },
    {
      "channel": 4,
      "note": 23,
      "start": 52.6377,
      "duration": 0.0167,
      "velocity": 109,
      "chip": "ym2612"
    },
    {
      "channel": 4,
      "note": 21,
      "start": 52.6544,
      "duration": 0.036,
      "velocity": 109,
      "chip": "ym2612"
    },
    {
      "channel": 3,
      "note": 67,
      "start": 52.6898,
      "duration": 0.0665,
      "velocity": 107,
      "chip": "ym2612"
    },
    {
      "channel": 4,
      "note": 116,
      "start": 52.6904,
      "duration": 0.014,
      "velocity": 109,
      "chip": "ym2612"
    },
    {
      "channel": 4,
      "note": 115,
      "start": 52.7044,
      "duration": 0.0167,
      "velocity": 109,
      "chip": "ym2612"
    },
    {
      "channel": 4,
      "note": 114,
      "start": 52.721,
      "duration": 0.0167,
      "velocity": 109,
      "chip": "ym2612"
    },
    {
      "channel": 4,
      "note": 113,
      "start": 52.7377,
      "duration": 0.0197,
      "velocity": 109,
      "chip": "ym2612"
    },
    {
      "channel": 3,
      "note": 67,
      "start": 52.7565,
      "duration": 0.1302,
      "velocity": 107,
      "chip": "ym2612"
    },
    {
      "channel": 4,
      "note": 112,
      "start": 52.7573,
      "duration": 0.0232,
      "velocity": 109,
      "chip": "ym2612"
    },
    {
      "channel": 4,
      "note": 111,
      "start": 52.7805,
      "duration": 0.0126,
      "velocity": 109,
      "chip": "ym2612"
    },
    {
      "channel": 4,
      "note": 110,
      "start": 52.7932,
      "duration": 0.0123,
      "velocity": 109,
      "chip": "ym2612"
    },
    {
      "channel": 4,
      "note": 109,
      "start": 52.8055,
      "duration": 0.0251,
      "velocity": 109,
      "chip": "ym2612"
    },
    {
      "channel": 4,
      "note": 108,
      "start": 52.8306,
      "duration": 0.0249,
      "velocity": 109,
      "chip": "ym2612"
    },
    {
      "channel": 4,
      "note": 107,
      "start": 52.8555,
      "duration": 0.0126,
      "velocity": 109,
      "chip": "ym2612"
    },
    {
      "channel": 4,
      "note": 105,
      "start": 52.868,
      "duration": 0.0197,
      "velocity": 109,
      "chip": "ym2612"
    },
    {
      "channel": 3,
      "note": 67,
      "start": 52.8868,
      "duration": 0.1294,
      "velocity": 107,
      "chip": "ym2612"
    },
    {
      "channel": 4,
      "note": 104,
      "start": 52.8878,
      "duration": 0.01,
      "velocity": 109,
      "chip": "ym2612"
    },
    {
      "channel": 4,
      "note": 103,
      "start": 52.8977,
      "duration": 0.0123,
      "velocity": 109,
      "chip": "ym2612"
    },
    {
      "channel": 4,
      "note": 102,
      "start": 52.91,
      "duration": 0.0254,
      "velocity": 109,
      "chip": "ym2612"
    },
    {
      "channel": 4,
      "note": 101,
      "start": 52.9355,
      "duration": 0.0253,
      "velocity": 109,
      "chip": "ym2612"
    },
    {
      "channel": 4,
      "note": 100,
      "start": 52.9607,
      "duration": 0.0124,
      "velocity": 109,
      "chip": "ym2612"
    },
    {
      "channel": 4,
      "note": 99,
      "start": 52.9732,
      "duration": 0.0123,
      "velocity": 109,
      "chip": "ym2612"
    },
    {
      "channel": 4,
      "note": 98,
      "start": 52.9855,
      "duration": 0.0318,
      "velocity": 109,
      "chip": "ym2612"
    },
    {
      "channel": 3,
      "note": 67,
      "start": 53.0163,
      "duration": 0.051,
      "velocity": 107,
      "chip": "ym2612"
    },
    {
      "channel": 4,
      "note": 97,
      "start": 53.0173,
      "duration": 0.0102,
      "velocity": 109,
      "chip": "ym2612"
    },
    {
      "channel": 4,
      "note": 96,
      "start": 53.0275,
      "duration": 0.0123,
      "velocity": 109,
      "chip": "ym2612"
    },
    {
      "channel": 4,
      "note": 95,
      "start": 53.0398,
      "duration": 0.0124,
      "velocity": 109,
      "chip": "ym2612"
    },
    {
      "channel": 4,
      "note": 93,
      "start": 53.0523,
      "duration": 0.0162,
      "velocity": 109,
      "chip": "ym2612"
    },
    {
      "channel": 3,
      "note": 67,
      "start": 53.0675,
      "duration": 0.0645,
      "velocity": 107,
      "chip": "ym2612"
    },
    {
      "channel": 4,
      "note": 92,
      "start": 53.0685,
      "duration": 0.023,
      "velocity": 109,
      "chip": "ym2612"
    },
    {
      "channel": 4,
      "note": 91,
      "start": 53.0915,
      "duration": 0.0127,
      "velocity": 109,
      "chip": "ym2612"
    },
    {
      "channel": 4,
      "note": 90,
      "start": 53.1042,
      "duration": 0.0127,
      "velocity": 109,
      "chip": "ym2612"
    },
    {
      "channel": 4,
      "note": 89,
      "start": 53.117,
      "duration": 0.0161,
      "velocity": 109,
      "chip": "ym2612"
    },
    {
      "channel": 3,
      "note": 67,
      "start": 53.1322,
      "duration": 0.1294,
      "velocity": 107,
      "chip": "ym2612"
    },
    {
      "channel": 4,
      "note": 88,
      "start": 53.1331,
      "duration": 0.0103,
      "velocity": 109,
      "chip": "ym2612"
    },
    {
      "channel": 4,
      "note": 87,
      "start": 53.1434,
      "duration": 0.0252,
      "velocity": 109,
      "chip": "ym2612"
    },
    {
      "channel": 4,
      "note": 86,
      "start": 53.1686,
      "duration": 0.0123,
      "velocity": 109,
      "chip": "ym2612"
    },
    {
      "channel": 4,
      "note": 85,
      "start": 53.181,
      "duration": 0.0246,
      "velocity": 109,
      "chip": "ym2612"
    },
    {
      "channel": 4,
      "note": 84,
      "start": 53.2056,
      "duration": 0.0127,
      "velocity": 109,
      "chip": "ym2612"
    },
    {
      "channel": 4,
      "note": 83,
      "start": 53.2183,
      "duration": 0.025,
      "velocity": 109,
      "chip": "ym2612"
    },
    {
      "channel": 4,
      "note": 81,
      "start": 53.2433,
      "duration": 0.0194,
      "velocity": 109,
      "chip": "ym2612"
    },
    {
      "channel": 3,
      "note": 67,
      "start": 53.2618,
      "duration": 0.1154,
      "velocity": 107,
      "chip": "ym2612"
    },
    {
      "channel": 4,
      "note": 80,
      "start": 53.2627,
      "duration": 0.0103,
      "velocity": 109,
      "chip": "ym2612"
    },
    {
      "channel": 4,
      "note": 79,
      "start": 53.273,
      "duration": 0.0123,
      "velocity": 109,
      "chip": "ym2612"
    },
    {
      "channel": 4,
      "note": 78,
      "start": 53.2854,
      "duration": 0.0127,
      "velocity": 109,
      "chip": "ym2612"
    },
    {
      "channel": 4,
      "note": 77,
      "start": 53.2981,
      "duration": 0.0379,
      "velocity": 109,
      "chip": "ym2612"
    },
    {
      "channel": 4,
      "note": 76,
      "start": 53.336,
      "duration": 0.0125,
      "velocity": 109,
      "chip": "ym2612"
    },
    {
      "channel": 4,
      "note": 75,
      "start": 53.3485,
      "duration": 0.0123,
      "velocity": 109,
      "chip": "ym2612"
    },
    {
      "channel": 4,
      "note": 74,
      "start": 53.3609,
      "duration": 0.0171,
      "velocity": 109,
      "chip": "ym2612"
    },
    {
      "channel": 3,
      "note": 67,
      "start": 53.3773,
      "duration": 0.0831,
      "velocity": 107,
      "chip": "ym2612"
    },
    {
      "channel": 4,
      "note": 73,
      "start": 53.3779,
      "duration": 0.0307,
      "velocity": 109,
      "chip": "ym2612"
    },
    {
      "channel": 4,
      "note": 72,
      "start": 53.4086,
      "duration": 0.0167,
      "velocity": 109,
      "chip": "ym2612"
    },
    {
      "channel": 4,
      "note": 71,
      "start": 53.4252,
      "duration": 0.0167,
      "velocity": 109,
      "chip": "ym2612"
    },
    {
      "channel": 4,
      "note": 69,
      "start": 53.4419,
      "duration": 0.0193,
      "velocity": 109,
      "chip": "ym2612"
    },
    {
      "channel": 3,
      "note": 67,
      "start": 53.4607,
      "duration": 0.0831,
      "velocity": 107,
      "chip": "ym2612"
    },
    {
      "channel": 4,
      "note": 68,
      "start": 53.4612,
      "duration": 0.014,
      "velocity": 109,
      "chip": "ym2612"
    },
    {
      "channel": 4,
      "note": 67,
      "start": 53.4752,
      "duration": 0.0333,
      "velocity": 109,
      "chip": "ym2612"
    },
    {
      "channel": 4,
      "note": 66,
      "start": 53.5086,
      "duration": 0.0167,
      "velocity": 109,
      "chip": "ym2612"
    },
    {
      "channel": 4,
      "note": 65,
      "start": 53.5252,
      "duration": 0.0197,
      "velocity": 109,
      "chip": "ym2612"
    },
    {
      "channel": 3,
      "note": 67,
      "start": 53.544,
      "duration": 0.1303,
      "velocity": 107,
      "chip": "ym2612"
    },
    {
      "channel": 4,
      "note": 64,
      "start": 53.5449,
      "duration": 0.0103,
      "velocity": 109,
      "chip": "ym2612"
    },
    {
      "channel": 4,
      "note": 63,
      "start": 53.5552,
      "duration": 0.0127,
      "velocity": 109,
      "chip": "ym2612"
    },
    {
      "channel": 4,
      "note": 62,
      "start": 53.5679,
      "duration": 0.0248,
      "velocity": 109,
      "chip": "ym2612"
    },
    {
      "channel": 4,
      "note": 61,
      "start": 53.5927,
      "duration": 0.0251,
      "velocity": 109,
      "chip": "ym2612"
    },
    {
      "channel": 4,
      "note": 60,
      "start": 53.6178,
      "duration": 0.0127,
      "velocity": 109,
      "chip": "ym2612"
    },
    {
      "channel": 4,
      "note": 59,
      "start": 53.6305,
      "duration": 0.0124,
      "velocity": 109,
      "chip": "ym2612"
    },
    {
      "channel": 4,
      "note": 57,
      "start": 53.6429,
      "duration": 0.0325,
      "velocity": 109,
      "chip": "ym2612"
    },
    {
      "channel": 3,
      "note": 67,
      "start": 53.6745,
      "duration": 0.1133,
      "velocity": 107,
      "chip": "ym2612"
    },
    {
      "channel": 4,
      "note": 56,
      "start": 53.6754,
      "duration": 0.01,
      "velocity": 109,
      "chip": "ym2612"
    },
    {
      "channel": 4,
      "note": 55,
      "start": 53.6854,
      "duration": 0.0123,
      "velocity": 109,
      "chip": "ym2612"
    },
    {
      "channel": 4,
      "note": 54,
      "start": 53.6977,
      "duration": 0.0124,
      "velocity": 109,
      "chip": "ym2612"
    },
    {
      "channel": 4,
      "note": 53,
      "start": 53.7101,
      "duration": 0.038,
      "velocity": 109,
      "chip": "ym2612"
    },
    {
      "channel": 4,
      "note": 52,
      "start": 53.7482,
      "duration": 0.0125,
      "velocity": 109,
      "chip": "ym2612"
    },
    {
      "channel": 4,
      "note": 51,
      "start": 53.7607,
      "duration": 0.0123,
      "velocity": 109,
      "chip": "ym2612"
    },
    {
      "channel": 4,
      "note": 50,
      "start": 53.7731,
      "duration": 0.0155,
      "velocity": 109,
      "chip": "ym2612"
    },
    {
      "channel": 3,
      "note": 67,
      "start": 53.788,
      "duration": 0.083,
      "velocity": 107,
      "chip": "ym2612"
    },
    {
      "channel": 4,
      "note": 49,
      "start": 53.7885,
      "duration": 0.0139,
      "velocity": 109,
      "chip": "ym2612"
    },
    {
      "channel": 4,
      "note": 48,
      "start": 53.8024,
      "duration": 0.0333,
      "velocity": 109,
      "chip": "ym2612"
    },
    {
      "channel": 4,
      "note": 47,
      "start": 53.8358,
      "duration": 0.0167,
      "velocity": 109,
      "chip": "ym2612"
    },
    {
      "channel": 4,
      "note": 45,
      "start": 53.8524,
      "duration": 0.0193,
      "velocity": 109,
      "chip": "ym2612"
    },
    {
      "channel": 3,
      "note": 67,
      "start": 53.8712,
      "duration": 0.0831,
      "velocity": 107,
      "chip": "ym2612"
    },
    {
      "channel": 4,
      "note": 44,
      "start": 53.8718,
      "duration": 0.014,
      "velocity": 109,
      "chip": "ym2612"
    },
    {
      "channel": 4,
      "note": 43,
      "start": 53.8858,
      "duration": 0.0167,
      "velocity": 109,
      "chip": "ym2612"
    },
    {
      "channel": 4,
      "note": 42,
      "start": 53.9024,
      "duration": 0.0333,
      "velocity": 109,
      "chip": "ym2612"
    },
    {
      "channel": 4,
      "note": 41,
      "start": 53.9358,
      "duration": 0.0197,
      "velocity": 109,
      "chip": "ym2612"
    },
    {
      "channel": 3,
      "note": 67,
      "start": 53.9546,
      "duration": 0.1141,
      "velocity": 107,
      "chip": "ym2612"
    },
    {
      "channel": 4,
      "note": 40,
      "start": 53.9554,
      "duration": 0.0103,
      "velocity": 109,
      "chip": "ym2612"
    },
    {
      "channel": 4,
      "note": 39,
      "start": 53.9657,
      "duration": 0.0127,
      "velocity": 109,
      "chip": "ym2612"
    },
    {
      "channel": 4,
      "note": 38,
      "start": 53.9785,
      "duration": 0.0124,
      "velocity": 109,
      "chip": "ym2612"
    },
    {
      "channel": 4,
      "note": 37,
      "start": 53.9909,
      "duration": 0.0379,
      "velocity": 109,
      "chip": "ym2612"
    },
    {
      "channel": 4,
      "note": 36,
      "start": 54.0288,
      "duration": 0.0127,
      "velocity": 109,
      "chip": "ym2612"
    },
    {
      "channel": 4,
      "note": 35,
      "start": 54.0415,
      "duration": 0.0124,
      "velocity": 109,
      "chip": "ym2612"
    },
    {
      "channel": 4,
      "note": 33,
      "start": 54.0539,
      "duration": 0.0159,
      "velocity": 109,
      "chip": "ym2612"
    },
    {
      "channel": 3,
      "note": 67,
      "start": 54.0688,
      "duration": 0.1328,
      "velocity": 107,
      "chip": "ym2612"
    },
    {
      "channel": 4,
      "note": 32,
      "start": 54.0697,
      "duration": 0.023,
      "velocity": 109,
      "chip": "ym2612"
    },
    {
      "channel": 4,
      "note": 31,
      "start": 54.0928,
      "duration": 0.0127,
      "velocity": 109,
      "chip": "ym2612"
    },
    {
      "channel": 4,
      "note": 30,
      "start": 54.1055,
      "duration": 0.0127,
      "velocity": 109,
      "chip": "ym2612"
    },
    {
      "channel": 4,
      "note": 29,
      "start": 54.1183,
      "duration": 0.0251,
      "velocity": 109,
      "chip": "ym2612"
    },
    {
      "channel": 4,
      "note": 28,
      "start": 54.1434,
      "duration": 0.0252,
      "velocity": 109,
      "chip": "ym2612"
    },
    {
      "channel": 4,
      "note": 28,
      "start": 54.1686,
      "duration": 0.0144,
      "velocity": 109,
      "chip": "ym2612"
    },
    {
      "channel": 4,
      "note": 26,
      "start": 54.183,
      "duration": 0.0193,
      "velocity": 109,
      "chip": "ym2612"
    },
    {
      "channel": 3,
      "note": 67,
      "start": 54.2017,
      "duration": 0.0831,
      "velocity": 107,
      "chip": "ym2612"
    },
    {
      "channel": 4,
      "note": 25,
      "start": 54.2023,
      "duration": 0.014,
      "velocity": 109,
      "chip": "ym2612"
    },
    {
      "channel": 4,
      "note": 24,
      "start": 54.2163,
      "duration": 0.0167,
      "velocity": 109,
      "chip": "ym2612"
    },
    {
      "channel": 4,
      "note": 23,
      "start": 54.233,
      "duration": 0.0333,
      "velocity": 109,
      "chip": "ym2612"
    },
    {
      "channel": 4,
      "note": 21,
      "start": 54.2663,
      "duration": 0.0193,
      "velocity": 109,
      "chip": "ym2612"
    },
    {
      "channel": 3,
      "note": 67,
      "start": 54.2851,
      "duration": 0.0832,
      "velocity": 107,
      "chip": "ym2612"
    },
    {
      "channel": 4,
      "note": 20,
      "start": 54.2856,
      "duration": 0.014,
      "velocity": 109,
      "chip": "ym2612"
    },
    {
      "channel": 4,
      "note": 115,
      "start": 54.2996,
      "duration": 0.0167,
      "velocity": 109,
      "chip": "ym2612"
    },
    {
      "channel": 4,
      "note": 114,
      "start": 54.3163,
      "duration": 0.0167,
      "velocity": 109,
      "chip": "ym2612"
    },
    {
      "channel": 4,
      "note": 113,
      "start": 54.333,
      "duration": 0.0364,
      "velocity": 109,
      "chip": "ym2612"
    },
    {
      "channel": 3,
      "note": 67,
      "start": 54.3685,
      "duration": 0.1168,
      "velocity": 107,
      "chip": "ym2612"
    },
    {
      "channel": 4,
      "note": 113,
      "start": 54.3694,
      "duration": 0.0098,
      "velocity": 109,
      "chip": "ym2612"
    },
    {
      "channel": 4,
      "note": 112,
      "start": 54.3792,
      "duration": 0.0124,
      "velocity": 109,
      "chip": "ym2612"
    },
    {
      "channel": 4,
      "note": 110,
      "start": 54.3916,
      "duration": 0.0124,
      "velocity": 109,
      "chip": "ym2612"
    },
    {
      "channel": 4,
      "note": 109,
      "start": 54.4041,
      "duration": 0.0379,
      "velocity": 109,
      "chip": "ym2612"
    },
    {
      "channel": 4,
      "note": 108,
      "start": 54.4419,
      "duration": 0.0127,
      "velocity": 109,
      "chip": "ym2612"
    },
    {
      "channel": 4,
      "note": 107,
      "start": 54.4546,
      "duration": 0.0126,
      "velocity": 109,
      "chip": "ym2612"
    },
    {
      "channel": 4,
      "note": 105,
      "start": 54.4672,
      "duration": 0.0195,
      "velocity": 109,
      "chip": "ym2612"
    },
    {
      "channel": 0,
      "note": 63,
      "start": 54.4807,
      "duration": 0.1292,
      "velocity": 121,
      "chip": "ym2612"
    },
    {
      "channel": 1,
      "note": 51,
      "start": 54.4812,
      "duration": 0.1292,
      "velocity": 112,
      "chip": "ym2612"
    },
    {
      "channel": 2,
      "note": 74,
      "start": 54.4834,
      "duration": 0.0029,
      "velocity": 109,
      "chip": "ym2612"
    },
    {
      "channel": 3,
      "note": 67,
      "start": 54.4855,
      "duration": 0.1277,
      "velocity": 107,
      "chip": "ym2612"
    },
    {
      "channel": 2,
      "note": 73,
      "start": 54.4863,
      "duration": 0.008,
      "velocity": 109,
      "chip": "ym2612"
    },
    {
      "channel": 4,
      "note": 104,
      "start": 54.4867,
      "duration": 0.008,
      "velocity": 109,
      "chip": "ym2612"
    },
    {
      "channel": 2,
      "note": 72,
      "start": 54.4943,
      "duration": 0.025,
      "velocity": 109,
      "chip": "ym2612"
    },
    {
      "channel": 4,
      "note": 103,
      "start": 54.4947,
      "duration": 0.025,
      "velocity": 109,
      "chip": "ym2612"
    },
    {
      "channel": 2,
      "note": 70,
      "start": 54.5193,
      "duration": 0.0123,
      "velocity": 109,
      "chip": "ym2612"
    },
    {
      "channel": 4,
      "note": 102,
      "start": 54.5196,
      "duration": 0.0123,
      "velocity": 109,
      "chip": "ym2612"
    },
    {
      "channel": 2,
      "note": 69,
      "start": 54.5316,
      "duration": 0.0249,
      "velocity": 109,
      "chip": "ym2612"
    },
    {
      "channel": 4,
      "note": 101,
      "start": 54.5319,
      "duration": 0.0249,
      "velocity": 109,
      "chip": "ym2612"
    },
    {
      "channel": 2,
      "note": 68,
      "start": 54.5564,
      "duration": 0.0124,
      "velocity": 109,
      "chip": "ym2612"
    },
    {
      "channel": 4,
      "note": 101,
      "start": 54.5568,
      "duration": 0.0125,
      "velocity": 109,
      "chip": "ym2612"
    },
    {
      "channel": 2,
      "note": 67,
      "start": 54.5688,
      "duration": 0.0251,
      "velocity": 109,
      "chip": "ym2612"
    },
    {
      "channel": 4,
      "note": 100,
      "start": 54.5692,
      "duration": 0.025,
      "velocity": 109,
      "chip": "ym2612"
    },
    {
      "channel": 2,
      "note": 66,
      "start": 54.5939,
      "duration": 0.0171,
      "velocity": 109,
      "chip": "ym2612"
    },
    {
      "channel": 4,
      "note": 98,
      "start": 54.5943,
      "duration": 0.0203,
      "velocity": 109,
      "chip": "ym2612"
    },
    {
      "channel": 0,
      "note": 62,
      "start": 54.6101,
      "duration": 0.1143,
      "velocity": 121,
      "chip": "ym2612"
    },
    {
      "channel": 1,
      "note": 50,
      "start": 54.6107,
      "duration": 0.1143,
      "velocity": 112,
      "chip": "ym2612"
    },
    {
      "channel": 2,
      "note": 74,
      "start": 54.6112,
      "duration": 0.0029,
      "velocity": 109,
      "chip": "ym2612"
    },
    {
      "channel": 3,
      "note": 67,
      "start": 54.6134,
      "duration": 0.0627,
      "velocity": 107,
      "chip": "ym2612"
    },
    {
      "channel": 2,
      "note": 73,
      "start": 54.6141,
      "duration": 0.0091,
      "velocity": 109,
      "chip": "ym2612"
    },
    {
      "channel": 4,
      "note": 97,
      "start": 54.6145,
      "duration": 0.0091,
      "velocity": 109,
      "chip": "ym2612"
    },
    {
      "channel": 2,
      "note": 72,
      "start": 54.6233,
      "duration": 0.0124,
      "velocity": 109,
      "chip": "ym2612"
    },
    {
      "channel": 4,
      "note": 96,
      "start": 54.6236,
      "duration": 0.0124,
      "velocity": 109,
      "chip": "ym2612"
    },
    {
      "channel": 2,
      "note": 70,
      "start": 54.6356,
      "duration": 0.0125,
      "velocity": 109,
      "chip": "ym2612"
    },
    {
      "channel": 4,
      "note": 95,
      "start": 54.636,
      "duration": 0.0125,
      "velocity": 109,
      "chip": "ym2612"
    },
    {
      "channel": 2,
      "note": 69,
      "start": 54.6482,
      "duration": 0.0258,
      "velocity": 109,
      "chip": "ym2612"
    },
    {
      "channel": 4,
      "note": 94,
      "start": 54.6485,
      "duration": 0.029,
      "velocity": 109,
      "chip": "ym2612"
    },
    {
      "channel": 2,
      "note": 74,
      "start": 54.6741,
      "duration": 0.0029,
      "velocity": 109,
      "chip": "ym2612"
    },
    {
      "channel": 3,
      "note": 67,
      "start": 54.6763,
      "duration": 0.0514,
      "velocity": 107,
      "chip": "ym2612"
    },
    {
      "channel": 2,
      "note": 73,
      "start": 54.6771,
      "duration": 0.0098,
      "velocity": 109,
      "chip": "ym2612"
    },
    {
      "channel": 4,
      "note": 92,
      "start": 54.6775,
      "duration": 0.0098,
      "velocity": 109,
      "chip": "ym2612"
    },
    {
      "channel": 2,
      "note": 72,
      "start": 54.6869,
      "duration": 0.0124,
      "velocity": 109,
      "chip": "ym2612"
    },
    {
      "channel": 4,
      "note": 91,
      "start": 54.6873,
      "duration": 0.0124,
      "velocity": 109,
      "chip": "ym2612"
    },
    {
      "channel": 2,
      "note": 70,
      "start": 54.6993,
      "duration": 0.0122,
      "velocity": 109,
      "chip": "ym2612"
    },
    {
      "channel": 4,
      "note": 90,
      "start": 54.6997,
      "duration": 0.0122,
      "velocity": 109,
      "chip": "ym2612"
    },
    {
      "channel": 2,
      "note": 69,
      "start": 54.7115,
      "duration": 0.014,
      "velocity": 109,
      "chip": "ym2612"
    },
    {
      "channel": 4,
      "note": 89,
      "start": 54.7119,
      "duration": 0.0171,
      "velocity": 109,
      "chip": "ym2612"
    },
    {
      "channel": 0,
      "note": 58,
      "start": 54.7246,
      "duration": 0.1295,
      "velocity": 121,
      "chip": "ym2612"
    },
    {
      "channel": 1,
      "note": 46,
      "start": 54.7251,
      "duration": 0.1295,
      "velocity": 112,
      "chip": "ym2612"
    },
    {
      "channel": 2,
      "note": 74,
      "start": 54.7257,
      "duration": 0.0029,
      "velocity": 109,
      "chip": "ym2612"
    },
    {
      "channel": 3,
      "note": 67,
      "start": 54.7279,
      "duration": 0.1295,
      "velocity": 107,
      "chip": "ym2612"
    },
    {
      "channel": 2,
      "note": 73,
      "start": 54.7286,
      "duration": 0.0217,
      "velocity": 109,
      "chip": "ym2612"
    },
    {
      "channel": 4,
      "note": 89,
      "start": 54.729,
      "duration": 0.0216,
      "velocity": 109,
      "chip": "ym2612"
    },
    {
      "channel": 2,
      "note": 72,
      "start": 54.7503,
      "duration": 0.0124,
      "velocity": 109,
      "chip": "ym2612"
    },
    {
      "channel": 4,
      "note": 88,
      "start": 54.7506,
      "duration": 0.0125,
      "velocity": 109,
      "chip": "ym2612"
    },
    {
      "channel": 2,
      "note": 70,
      "start": 54.7627,
      "duration": 0.0126,
      "velocity": 109,
      "chip": "ym2612"
    },
    {
      "channel": 4,
      "note": 87,
      "start": 54.7631,
      "duration": 0.0125,
      "velocity": 109,
      "chip": "ym2612"
    },
    {
      "channel": 2,
      "note": 69,
      "start": 54.7753,
      "duration": 0.025,
      "velocity": 109,
      "chip": "ym2612"
    },
    {
      "channel": 4,
      "note": 85,
      "start": 54.7756,
      "duration": 0.025,
      "velocity": 109,
      "chip": "ym2612"
    },
    {
      "channel": 2,
      "note": 68,
      "start": 54.8003,
      "duration": 0.0253,
      "velocity": 109,
      "chip": "ym2612"
    },
    {
      "channel": 4,
      "note": 84,
      "start": 54.8006,
      "duration": 0.0253,
      "velocity": 109,
      "chip": "ym2612"
    },
    {
      "channel": 2,
      "note": 67,
      "start": 54.8256,
      "duration": 0.0128,
      "velocity": 109,
      "chip": "ym2612"
    },
    {
      "channel": 4,
      "note": 83,
      "start": 54.8259,
      "duration": 0.0128,
      "velocity": 109,
      "chip": "ym2612"
    },
    {
      "channel": 2,
      "note": 66,
      "start": 54.8383,
      "duration": 0.0169,
      "velocity": 109,
      "chip": "ym2612"
    },
    {
      "channel": 4,
      "note": 82,
      "start": 54.8387,
      "duration": 0.02,
      "velocity": 109,
      "chip": "ym2612"
    },
    {
      "channel": 0,
      "note": 63,
      "start": 54.8542,
      "duration": 0.1315,
      "velocity": 121,
      "chip": "ym2612"
    },
    {
      "channel": 1,
      "note": 51,
      "start": 54.8548,
      "duration": 0.1315,
      "velocity": 112,
      "chip": "ym2612"
    },
    {
      "channel": 2,
      "note": 69,
      "start": 54.8554,
      "duration": 0.0029,
      "velocity": 109,
      "chip": "ym2612"
    },
    {
      "channel": 3,
      "note": 67,
      "start": 54.8575,
      "duration": 0.1316,
      "velocity": 107,
      "chip": "ym2612"
    },
    {
      "channel": 2,
      "note": 68,
      "start": 54.8583,
      "duration": 0.009,
      "velocity": 109,
      "chip": "ym2612"
    },
    {
      "channel": 4,
      "note": 80,
      "start": 54.8586,
      "duration": 0.009,
      "velocity": 109,
      "chip": "ym2612"
    },
    {
      "channel": 2,
      "note": 67,
      "start": 54.8673,
      "duration": 0.0124,
      "velocity": 109,
      "chip": "ym2612"
    },
    {
      "channel": 4,
      "note": 79,
      "start": 54.8677,
      "duration": 0.0124,
      "velocity": 109,
      "chip": "ym2612"
    },
    {
      "channel": 2,
      "note": 66,
      "start": 54.8797,
      "duration": 0.025,
      "velocity": 109,
      "chip": "ym2612"
    },
    {
      "channel": 4,
      "note": 78,
      "start": 54.8801,
      "duration": 0.025,
      "velocity": 109,
      "chip": "ym2612"
    },
    {
      "channel": 2,
      "note": 65,
      "start": 54.9047,
      "duration": 0.0254,
      "velocity": 109,
      "chip": "ym2612"
    },
    {
      "channel": 4,
      "note": 78,
      "start": 54.9051,
      "duration": 0.0254,
      "velocity": 109,
      "chip": "ym2612"
    },
    {
      "channel": 2,
      "note": 64,
      "start": 54.9301,
      "duration": 0.0125,
      "velocity": 109,
      "chip": "ym2612"
    },
    {
      "channel": 4,
      "note": 77,
      "start": 54.9305,
      "duration": 0.0125,
      "velocity": 109,
      "chip": "ym2612"
    },
    {
      "channel": 2,
      "note": 63,
      "start": 54.9426,
      "duration": 0.0126,
      "velocity": 109,
      "chip": "ym2612"
    },
    {
      "channel": 4,
      "note": 76,
      "start": 54.9429,
      "duration": 0.0126,
      "velocity": 109,
      "chip": "ym2612"
    },
    {
      "channel": 2,
      "note": 62,
      "start": 54.9552,
      "duration": 0.0317,
      "velocity": 109,
      "chip": "ym2612"
    },
    {
      "channel": 4,
      "note": 75,
      "start": 54.9555,
      "duration": 0.0349,
      "velocity": 109,
      "chip": "ym2612"
    },
    {
      "channel": 0,
      "note": 62,
      "start": 54.986,
      "duration": 0.1147,
      "velocity": 121,
      "chip": "ym2612"
    },
    {
      "channel": 1,
      "note": 50,
      "start": 54.9865,
      "duration": 0.1147,
      "velocity": 112,
      "chip": "ym2612"
    },
    {
      "channel": 2,
      "note": 69,
      "start": 54.9871,
      "duration": 0.003,
      "velocity": 109,
      "chip": "ym2612"
    },
    {
      "channel": 3,
      "note": 67,
      "start": 54.9893,
      "duration": 0.05,
      "velocity": 107,
      "chip": "ym2612"
    },
    {
      "channel": 2,
      "note": 68,
      "start": 54.9901,
      "duration": 0.009,
      "velocity": 109,
      "chip": "ym2612"
    },
    {
      "channel": 4,
      "note": 73,
      "start": 54.9904,
      "duration": 0.0091,
      "velocity": 109,
      "chip": "ym2612"
    },
    {
      "channel": 2,
      "note": 67,
      "start": 54.9991,
      "duration": 0.0124,
      "velocity": 109,
      "chip": "ym2612"
    },
    {
      "channel": 4,
      "note": 72,
      "start": 54.9995,
      "duration": 0.0124,
      "velocity": 109,
      "chip": "ym2612"
    },
    {
      "channel": 2,
      "note": 66,
      "start": 55.0115,
      "duration": 0.0125,
      "velocity": 109,
      "chip": "ym2612"
    },
    {
      "channel": 4,
      "note": 71,
      "start": 55.0118,
      "duration": 0.0125,
      "velocity": 109,
      "chip": "ym2612"
    },
    {
      "channel": 2,
      "note": 65,
      "start": 55.024,
      "duration": 0.0131,
      "velocity": 109,
      "chip": "ym2612"
    },
    {
      "channel": 4,
      "note": 70,
      "start": 55.0244,
      "duration": 0.0159,
      "velocity": 109,
      "chip": "ym2612"
    },
    {
      "channel": 2,
      "note": 69,
      "start": 55.0373,
      "duration": 0.0026,
      "velocity": 109,
      "chip": "ym2612"
    },
    {
      "channel": 3,
      "note": 67,
      "start": 55.0394,
      "duration": 0.0646,
      "velocity": 107,
      "chip": "ym2612"
    },
    {
      "channel": 2,
      "note": 68,
      "start": 55.0399,
      "duration": 0.0225,
      "velocity": 109,
      "chip": "ym2612"
    },
    {
      "channel": 4,
      "note": 68,
      "start": 55.0402,
      "duration": 0.0226,
      "velocity": 109,
      "chip": "ym2612"
    },
    {
      "channel": 2,
      "note": 67,
      "start": 55.0624,
      "duration": 0.0126,
      "velocity": 109,
      "chip": "ym2612"
    },
    {
      "channel": 4,
      "note": 67,
      "start": 55.0628,
      "duration": 0.0126,
      "velocity": 109,
      "chip": "ym2612"
    },
    {
      "channel": 2,
      "note": 66,
      "start": 55.075,
      "duration": 0.0123,
      "velocity": 109,
      "chip": "ym2612"
    },
    {
      "channel": 4,
      "note": 66,
      "start": 55.0754,
      "duration": 0.0124,
      "velocity": 109,
      "chip": "ym2612"
    },
    {
      "channel": 2,
      "note": 65,
      "start": 55.0873,
      "duration": 0.0145,
      "velocity": 109,
      "chip": "ym2612"
    },
    {
      "channel": 4,
      "note": 66,
      "start": 55.0877,
      "duration": 0.0176,
      "velocity": 109,
      "chip": "ym2612"
    },
    {
      "channel": 0,
      "note": 56,
      "start": 55.1009,
      "duration": 0.1319,
      "velocity": 121,
      "chip": "ym2612"
    },
    {
      "channel": 1,
      "note": 44,
      "start": 55.1015,
      "duration": 0.132,
      "velocity": 112,
      "chip": "ym2612"
    },
    {
      "channel": 2,
      "note": 69,
      "start": 55.102,
      "duration": 0.003,
      "velocity": 109,
      "chip": "ym2612"
    },
    {
      "channel": 3,
      "note": 67,
      "start": 55.1042,
      "duration": 0.1334,
      "velocity": 107,
      "chip": "ym2612"
    },
    {
      "channel": 2,
      "note": 68,
      "start": 55.105,
      "duration": 0.009,
      "velocity": 109,
      "chip": "ym2612"
    },
    {
      "channel": 4,
      "note": 65,
      "start": 55.1053,
      "duration": 0.0091,
      "velocity": 109,
      "chip": "ym2612"
    },
    {
      "channel": 2,
      "note": 67,
      "start": 55.1141,
      "duration": 0.0248,
      "velocity": 109,
      "chip": "ym2612"
    },
    {
      "channel": 4,
      "note": 64,
      "start": 55.1144,
      "duration": 0.0248,
      "velocity": 109,
      "chip": "ym2612"
    },
    {
      "channel": 2,
      "note": 66,
      "start": 55.1388,
      "duration": 0.0126,
      "velocity": 109,
      "chip": "ym2612"
    },
    {
      "channel": 4,
      "note": 63,
      "start": 55.1392,
      "duration": 0.0125,
      "velocity": 109,
      "chip": "ym2612"
    },
    {
      "channel": 2,
      "note": 65,
      "start": 55.1514,
      "duration": 0.0136,
      "velocity": 109,
      "chip": "ym2612"
    },
    {
      "channel": 4,
      "note": 61,
      "start": 55.1517,
      "duration": 0.0135,
      "velocity": 109,
      "chip": "ym2612"
    },
    {
      "channel": 2,
      "note": 64,
      "start": 55.165,
      "duration": 0.012,
      "velocity": 109,
      "chip": "ym2612"
    },
    {
      "channel": 4,
      "note": 60,
      "start": 55.1653,
      "duration": 0.0121,
      "velocity": 109,
      "chip": "ym2612"
    },
    {
      "channel": 2,
      "note": 63,
      "start": 55.177,
      "duration": 0.0125,
      "velocity": 109,
      "chip": "ym2612"
    },
    {
      "channel": 4,
      "note": 59,
      "start": 55.1773,
      "duration": 0.0125,
      "velocity": 109,
      "chip": "ym2612"
    },
    {
      "channel": 2,
      "note": 62,
      "start": 55.1895,
      "duration": 0.0262,
      "velocity": 109,
      "chip": "ym2612"
    },
    {
      "channel": 4,
      "note": 58,
      "start": 55.1899,
      "duration": 0.0262,
      "velocity": 109,
      "chip": "ym2612"
    },
    {
      "channel": 2,
      "note": 61,
      "start": 55.2157,
      "duration": 0.0199,
      "velocity": 121,
      "chip": "ym2612"
    },
    {
      "channel": 4,
      "note": 56,
      "start": 55.216,
      "duration": 0.0227,
      "velocity": 109,
      "chip": "ym2612"
    },
    {
      "channel": 0,
      "note": 55,
      "start": 55.233,
      "duration": 12.2777,
      "velocity": 121,
      "chip": "ym2612"
    },
    {
      "channel": 1,
      "note": 43,
      "start": 55.2336,
      "duration": 12.2772,
      "velocity": 112,
      "chip": "ym2612"
    },
    {
      "channel": 2,
      "note": 55,
      "start": 55.2357,
      "duration": 12.275,
      "velocity": 121,
      "chip": "ym2612"
    },
    {
      "channel": 3,
      "note": 67,
      "start": 55.2378,
      "duration": 0.1127,
      "velocity": 107,
      "chip": "ym2612"
    },
    {
      "channel": 4,
      "note": 55,
      "start": 55.2387,
      "duration": 0.0078,
      "velocity": 109,
      "chip": "ym2612"
    },
    {
      "channel": 4,
      "note": 54,
      "start": 55.2465,
      "duration": 0.0124,
      "velocity": 109,
      "chip": "ym2612"
    },
    {
      "channel": 4,
      "note": 54,
      "start": 55.259,
      "duration": 0.0127,
      "velocity": 109,
      "chip": "ym2612"
    },
    {
      "channel": 4,
      "note": 53,
      "start": 55.2717,
      "duration": 0.0275,
      "velocity": 109,
      "chip": "ym2612"
    },
    {
      "channel": 4,
      "note": 52,
      "start": 55.2992,
      "duration": 0.0111,
      "velocity": 109,
      "chip": "ym2612"
    },
    {
      "channel": 4,
      "note": 51,
      "start": 55.3103,
      "duration": 0.0128,
      "velocity": 109,
      "chip": "ym2612"
    },
    {
      "channel": 4,
      "note": 49,
      "start": 55.3231,
      "duration": 0.0128,
      "velocity": 109,
      "chip": "ym2612"
    },
    {
      "channel": 4,
      "note": 48,
      "start": 55.3359,
      "duration": 0.0155,
      "velocity": 109,
      "chip": "ym2612"
    },
    {
      "channel": 3,
      "note": 67,
      "start": 55.3507,
      "duration": 0.0816,
      "velocity": 107,
      "chip": "ym2612"
    },
    {
      "channel": 4,
      "note": 47,
      "start": 55.3514,
      "duration": 0.0291,
      "velocity": 109,
      "chip": "ym2612"
    },
    {
      "channel": 4,
      "note": 46,
      "start": 55.3805,
      "duration": 0.0167,
      "velocity": 109,
      "chip": "ym2612"
    },
    {
      "channel": 4,
      "note": 44,
      "start": 55.3971,
      "duration": 0.0167,
      "velocity": 109,
      "chip": "ym2612"
    },
    {
      "channel": 4,
      "note": 43,
      "start": 55.4138,
      "duration": 0.0193,
      "velocity": 109,
      "chip": "ym2612"
    },
    {
      "channel": 3,
      "note": 67,
      "start": 55.4326,
      "duration": 12.0782,
      "velocity": 107,
      "chip": "ym2612"
    },
    {
      "channel": 4,
      "note": 42,
      "start": 55.4331,
      "duration": 0.014,
      "velocity": 109,
      "chip": "ym2612"
    },
    {
      "channel": 4,
      "note": 42,
      "start": 55.4471,
      "duration": 0.0333,
      "velocity": 109,
      "chip": "ym2612"
    },
    {
      "channel": 4,
      "note": 41,
      "start": 55.4805,
      "duration": 0.0167,
      "velocity": 109,
      "chip": "ym2612"
    },
    {
      "channel": 4,
      "note": 40,
      "start": 55.4971,
      "duration": 12.0136,
      "velocity": 109,
      "chip": "ym2612"
    }
  ]
}