{
  "track_name": "03 - Escape Hero",
  "duration_sec": 62.599,
  "sample_rate": 44100,
  "note_count": 1289,
  "unique_pitches": 52,
  "pitch_range": 62,
  "avg_note_duration": 0.0277,
  "reconstruction_stats": {
    "notes_reconstructed": 1289,
    "keyon_events": 1289,
    "keyoff_events": 1163,
    "orphan_keyons": 0,
    "unique_pitches": 52,
    "pitch_range": 62,
    "avg_duration_sec": 0.0277
  },
  "metadata": {
    "source": "D\\Dynamite Headdy\\03 - Escape Hero.vgz"
  },
  "notes": [
    {
      "channel": 0,
      "note": 73,
      "start": 0.0,
      "duration": 0.0318,
      "velocity": 107,
      "chip": "ym2612"
    },
    {
      "channel": 0,
      "note": 75,
      "start": 0.032,
      "duration": 0.0331,
      "velocity": 107,
      "chip": "ym2612"
    },
    {
      "channel": 0,
      "note": 76,
      "start": 0.0654,
      "duration": 0.0331,
      "velocity": 107,
      "chip": "ym2612"
    },
    {
      "channel": 0,
      "note": 78,
      "start": 0.0987,
      "duration": 0.0331,
      "velocity": 107,
      "chip": "ym2612"
    },
    {
      "channel": 0,
      "note": 80,
      "start": 0.132,
      "duration": 0.0331,
      "velocity": 107,
      "chip": "ym2612"
    },
    {
      "channel": 0,
      "note": 82,
      "start": 0.1654,
      "duration": 0.0331,
      "velocity": 107,
      "chip": "ym2612"
    },
    {
      "channel": 0,
      "note": 83,
      "start": 0.1987,
      "duration": 0.0331,
      "velocity": 107,
      "chip": "ym2612"
    },
    {
      "channel": 1,
      "note": 61,
      "start": 0.199,
      "duration": 0.0332,
      "velocity": 93,
      "chip": "ym2612"
    },
    {
      "channel": 0,
      "note": 85,
      "start": 0.232,
      "duration": 0.0331,
      "velocity": 107,
      "chip": "ym2612"
    },
    {
      "channel": 1,
      "note": 63,
      "start": 0.2323,
      "duration": 0.0332,
      "velocity": 93,
      "chip": "ym2612"
    },
    {
      "channel": 0,
      "note": 87,
      "start": 0.2654,
      "duration": 0.0331,
      "velocity": 107,
      "chip": "ym2612"
    },
    {
      "channel": 1,
      "note": 64,
      "start": 0.2656,
      "duration": 0.0332,
      "velocity": 93,
      "chip": "ym2612"
    },
    {
      "channel": 0,
      "note": 88,
      "start": 0.2987,
      "duration": 0.0331,
      "velocity": 107,
      "chip": "ym2612"
    },
    {
      "channel": 1,
      "note": 66,
      "start": 0.299,
      "duration": 0.0332,
      "velocity": 93,
      "chip": "ym2612"
    },
    {
      "channel": 0,
      "note": 90,
      "start": 0.332,
      "duration": 0.0331,
      "velocity": 107,
      "chip": "ym2612"
    },
    {
      "channel": 1,
      "note": 68,
      "start": 0.3323,
      "duration": 0.0332,
      "velocity": 93,
      "chip": "ym2612"
    },
    {
      "channel": 0,
      "note": 92,
      "start": 0.3654,
      "duration": 0.0331,
      "velocity": 107,
      "chip": "ym2612"
    },
    {
      "channel": 1,
      "note": 70,
      "start": 0.3656,
      "duration": 0.0332,
      "velocity": 93,
      "chip": "ym2612"
    },
    {
      "channel": 0,
      "note": 94,
      "start": 0.3987,
      "duration": 0.0331,
      "velocity": 107,
      "chip": "ym2612"
    },
    {
      "channel": 1,
      "note": 71,
      "start": 0.399,
      "duration": 0.0332,
      "velocity": 93,
      "chip": "ym2612"
    },
    {
      "channel": 0,
      "note": 95,
      "start": 0.432,
      "duration": 0.0331,
      "velocity": 107,
      "chip": "ym2612"
    },
    {
      "channel": 1,
      "note": 73,
      "start": 0.4323,
      "duration": 0.0332,
      "velocity": 93,
      "chip": "ym2612"
    },
    {
      "channel": 0,
      "note": 97,
      "start": 0.4654,
      "duration": 0.0331,
      "velocity": 107,
      "chip": "ym2612"
    },
    {
      "channel": 1,
      "note": 75,
      "start": 0.4656,
      "duration": 0.0332,
      "velocity": 93,
      "chip": "ym2612"
    },
    {
      "channel": 0,
      "note": 99,
      "start": 0.4987,
      "duration": 0.0331,
      "velocity": 107,
      "chip": "ym2612"
    },
    {
      "channel": 1,
      "note": 76,
      "start": 0.499,
      "duration": 0.0332,
      "velocity": 93,
      "chip": "ym2612"
    },
    {
      "channel": 2,
      "note": 73,
      "start": 0.4993,
      "duration": 0.0331,
      "velocity": 120,
      "chip": "ym2612"
    },
    {
      "channel": 0,
      "note": 100,
      "start": 0.532,
      "duration": 0.0331,
      "velocity": 107,
      "chip": "ym2612"
    },
    {
      "channel": 1,
      "note": 78,
      "start": 0.5323,
      "duration": 0.0332,
      "velocity": 93,
      "chip": "ym2612"
    },
    {
      "channel": 2,
      "note": 75,
      "start": 0.5326,
      "duration": 0.0331,
      "velocity": 120,
      "chip": "ym2612"
    },
    {
      "channel": 0,
      "note": 102,
      "start": 0.5654,
      "duration": 0.0331,
      "velocity": 107,
      "chip": "ym2612"
    },
    {
      "channel": 1,
      "note": 80,
      "start": 0.5656,
      "duration": 0.0332,
      "velocity": 93,
      "chip": "ym2612"
    },
    {
      "channel": 2,
      "note": 76,
      "start": 0.5659,
      "duration": 0.0331,
      "velocity": 120,
      "chip": "ym2612"
    },
    {
      "channel": 0,
      "note": 104,
      "start": 0.5987,
      "duration": 0.0331,
      "velocity": 107,
      "chip": "ym2612"
    },
    {
      "channel": 1,
      "note": 82,
      "start": 0.599,
      "duration": 0.0332,
      "velocity": 93,
      "chip": "ym2612"
    },
    {
      "channel": 2,
      "note": 78,
      "start": 0.5993,
      "duration": 0.0331,
      "velocity": 120,
      "chip": "ym2612"
    },
    {
      "channel": 0,
      "note": 106,
      "start": 0.632,
      "duration": 0.0331,
      "velocity": 107,
      "chip": "ym2612"
    },
    {
      "channel": 1,
      "note": 83,
      "start": 0.6323,
      "duration": 0.0332,
      "velocity": 93,
      "chip": "ym2612"
    },
    {
      "channel": 2,
      "note": 80,
      "start": 0.6326,
      "duration": 0.0331,
      "velocity": 120,
      "chip": "ym2612"
    },
    {
      "channel": 0,
      "note": 107,
      "start": 0.6654,
      "duration": 0.0331,
      "velocity": 107,
      "chip": "ym2612"
    },
    {
      "channel": 1,
      "note": 85,
      "start": 0.6656,
      "duration": 0.0332,
      "velocity": 93,
      "chip": "ym2612"
    },
    {
      "channel": 2,
      "note": 82,
      "start": 0.6659,
      "duration": 0.0331,
      "velocity": 120,
      "chip": "ym2612"
    },
    {
      "channel": 0,
      "note": 109,
      "start": 0.6987,
      "duration": 0.0331,
      "velocity": 107,
      "chip": "ym2612"
    },
    {
      "channel": 1,
      "note": 87,
      "start": 0.699,
      "duration": 0.0332,
      "velocity": 93,
      "chip": "ym2612"
    },
    {
      "channel": 2,
      "note": 83,
      "start": 0.6993,
      "duration": 0.0331,
      "velocity": 120,
      "chip": "ym2612"
    },
    {
      "channel": 0,
      "note": 111,
      "start": 0.732,
      "duration": 0.0331,
      "velocity": 107,
      "chip": "ym2612"
    },
    {
      "channel": 1,
      "note": 88,
      "start": 0.7323,
      "duration": 0.0332,
      "velocity": 93,
      "chip": "ym2612"
    },
    {
      "channel": 2,
      "note": 85,
      "start": 0.7326,
      "duration": 0.0331,
      "velocity": 120,
      "chip": "ym2612"
    },
    {
      "channel": 0,
      "note": 112,
      "start": 0.7654,
      "duration": 0.0333,
      "velocity": 107,
      "chip": "ym2612"
    },
    {
      "channel": 1,
      "note": 90,
      "start": 0.7656,
      "duration": 0.0332,
      "velocity": 93,
      "chip": "ym2612"
    },
    {
      "channel": 2,
      "note": 87,
      "start": 0.7659,
      "duration": 0.0332,
      "velocity": 120,
      "chip": "ym2612"
    },
    {
      "channel": 1,
      "note": 92,
      "start": 0.7991,
      "duration": 0.0008,
      "velocity": 93,
      "chip": "ym2612"
    },
    {
      "channel": 2,
      "note": 88,
      "start": 0.7993,
      "duration": 0.0007,
      "velocity": 120,
      "chip": "ym2612"
    },
    {
      "channel": 1,
      "note": 94,
      "start": 0.8,
      "duration": 0.0003,
      "velocity": 93,
      "chip": "ym2612"
    },
    {
      "channel": 2,
      "note": 90,
      "start": 0.8002,
      "duration": 0.0002,
      "velocity": 120,
      "chip": "ym2612"
    },
    {
      "channel": 1,
      "note": 95,
      "start": 0.8004,
      "duration": 0.0002,
      "velocity": 93,
      "chip": "ym2612"
    },
    {
      "channel": 2,
      "note": 92,
      "start": 0.8005,
      "duration": 0.0004,
      "velocity": 120,
      "chip": "ym2612"
    },
    {
      "channel": 1,
      "note": 97,
      "start": 0.8009,
      "duration": 0.0011,
      "velocity": 93,
      "chip": "ym2612"
    },
    {
      "channel": 2,
      "note": 94,
      "start": 0.8012,
      "duration": 0.0009,
      "velocity": 120,
      "chip": "ym2612"
    },
    {
      "channel": 1,
      "note": 99,
      "start": 0.8021,
      "duration": 0.0002,
      "velocity": 93,
      "chip": "ym2612"
    },
    {
      "channel": 2,
      "note": 95,
      "start": 0.8023,
      "duration": 0.0002,
      "velocity": 120,
      "chip": "ym2612"
    },
    {
      "channel": 1,
      "note": 100,
      "start": 0.8024,
      "duration": 0.0003,
      "velocity": 93,
      "chip": "ym2612"
    },
    {
      "channel": 2,
      "note": 97,
      "start": 0.8026,
      "duration": 0.0001,
      "velocity": 120,
      "chip": "ym2612"
    },
    {
      "channel": 2,
      "note": 99,
      "start": 0.8028,
      "duration": 0.0001,
      "velocity": 120,
      "chip": "ym2612"
    },
    {
      "channel": 2,
      "note": 100,
      "start": 0.803,
      "duration": 0.0001,
      "velocity": 120,
      "chip": "ym2612"
    },
    {
      "channel": 2,
      "note": 102,
      "start": 0.8032,
      "duration": 0.0001,
      "velocity": 120,
      "chip": "ym2612"
    },
    {
      "channel": 2,
      "note": 104,
      "start": 0.8034,
      "duration": 0.0001,
      "velocity": 120,
      "chip": "ym2612"
    },
    {
      "channel": 2,
      "note": 106,
      "start": 0.8036,
      "duration": 0.0001,
      "velocity": 120,
      "chip": "ym2612"
    },
    {
      "channel": 2,
      "note": 107,
      "start": 0.8038,
      "duration": 0.0001,
      "velocity": 120,
      "chip": "ym2612"
    },
    {
      "channel": 2,
      "note": 109,
      "start": 0.8041,
      "duration": 0.0009,
      "velocity": 120,
      "chip": "ym2612"
    },
    {
      "channel": 2,
      "note": 111,
      "start": 0.8052,
      "duration": 0.0,
      "velocity": 120,
      "chip": "ym2612"
    },
    {
      "channel": 2,
      "note": 112,
      "start": 0.8053,
      "duration": 0.0,
      "velocity": 120,
      "chip": "ym2612"
    },
    {
      "channel": 0,
      "note": 59,
      "start": 1.2815,
      "duration": 0.0013,
      "velocity": 95,
      "chip": "ym2612"
    },
    {
      "channel": 0,
      "note": 59,
      "start": 1.2841,
      "duration": 0.0025,
      "velocity": 95,
      "chip": "ym2612"
    },
    {
      "channel": 3,
      "note": 59,
      "start": 1.2883,
      "duration": 0.0008,
      "velocity": 95,
      "chip": "ym2612"
    },
    {
      "channel": 0,
      "note": 56,
      "start": 1.2897,
      "duration": 0.0457,
      "velocity": 95,
      "chip": "ym2612"
    },
    {
      "channel": 3,
      "note": 59,
      "start": 1.2902,
      "duration": 0.0452,
      "velocity": 95,
      "chip": "ym2612"
    },
    {
      "channel": 3,
      "note": 56,
      "start": 1.3709,
      "duration": 0.0008,
      "velocity": 95,
      "chip": "ym2612"
    },
    {
      "channel": 0,
      "note": 66,
      "start": 1.3719,
      "duration": 0.0026,
      "velocity": 95,
      "chip": "ym2612"
    },
    {
      "channel": 0,
      "note": 65,
      "start": 1.3785,
      "duration": 0.0016,
      "velocity": 95,
      "chip": "ym2612"
    },
    {
      "channel": 3,
      "note": 66,
      "start": 1.3788,
      "duration": 0.0013,
      "velocity": 95,
      "chip": "ym2612"
    },
    {
      "channel": 3,
      "note": 65,
      "start": 1.3821,
      "duration": 0.0016,
      "velocity": 95,
      "chip": "ym2612"
    },
    {
      "channel": 0,
      "note": 59,
      "start": 1.3927,
      "duration": 0.0012,
      "velocity": 95,
      "chip": "ym2612"
    },
    {
      "channel": 0,
      "note": 59,
      "start": 1.3962,
      "duration": 0.0018,
      "velocity": 95,
      "chip": "ym2612"
    },
    {
      "channel": 3,
      "note": 59,
      "start": 1.3989,
      "duration": 0.0024,
      "velocity": 95,
      "chip": "ym2612"
    },
    {
      "channel": 0,
      "note": 56,
      "start": 1.4018,
      "duration": 0.0014,
      "velocity": 95,
      "chip": "ym2612"
    },
    {
      "channel": 3,
      "note": 59,
      "start": 1.4021,
      "duration": 0.0012,
      "velocity": 95,
      "chip": "ym2612"
    },
    {
      "channel": 3,
      "note": 56,
      "start": 1.4071,
      "duration": 0.0007,
      "velocity": 95,
      "chip": "ym2612"
    },
    {
      "channel": 0,
      "note": 66,
      "start": 1.4082,
      "duration": 0.0025,
      "velocity": 95,
      "chip": "ym2612"
    },
    {
      "channel": 0,
      "note": 65,
      "start": 1.4147,
      "duration": 0.0013,
      "velocity": 95,
      "chip": "ym2612"
    },
    {
      "channel": 3,
      "note": 66,
      "start": 1.415,
      "duration": 0.0011,
      "velocity": 95,
      "chip": "ym2612"
    },
    {
      "channel": 3,
      "note": 65,
      "start": 1.4213,
      "duration": 0.0018,
      "velocity": 95,
      "chip": "ym2612"
    },
    {
      "channel": 0,
      "note": 63,
      "start": 1.4235,
      "duration": 0.0006,
      "velocity": 95,
      "chip": "ym2612"
    },
    {
      "channel": 3,
      "note": 63,
      "start": 1.4267,
      "duration": 0.0004,
      "velocity": 95,
      "chip": "ym2612"
    },
    {
      "channel": 0,
      "note": 56,
      "start": 1.4274,
      "duration": 0.0021,
      "velocity": 95,
      "chip": "ym2612"
    },
    {
      "channel": 0,
      "note": 59,
      "start": 1.4358,
      "duration": 0.0019,
      "velocity": 95,
      "chip": "ym2612"
    },
    {
      "channel": 3,
      "note": 56,
      "start": 1.4364,
      "duration": 0.0013,
      "velocity": 95,
      "chip": "ym2612"
    },
    {
      "channel": 0,
      "note": 59,
      "start": 1.4385,
      "duration": 0.0026,
      "velocity": 95,
      "chip": "ym2612"
    },
    {
      "channel": 3,
      "note": 59,
      "start": 1.443,
      "duration": 0.0009,
      "velocity": 95,
      "chip": "ym2612"
    },
    {
      "channel": 0,
      "note": 56,
      "start": 1.4445,
      "duration": 0.0456,
      "velocity": 95,
      "chip": "ym2612"
    },
    {
      "channel": 3,
      "note": 59,
      "start": 1.4451,
      "duration": 0.0451,
      "velocity": 95,
      "chip": "ym2612"
    },
    {
      "channel": 3,
      "note": 56,
      "start": 1.5258,
      "duration": 0.0005,
      "velocity": 95,
      "chip": "ym2612"
    },
    {
      "channel": 0,
      "note": 66,
      "start": 1.5268,
      "duration": 0.0026,
      "velocity": 95,
      "chip": "ym2612"
    },
    {
      "channel": 0,
      "note": 65,
      "start": 1.5331,
      "duration": 0.0018,
      "velocity": 95,
      "chip": "ym2612"
    },
    {
      "channel": 3,
      "note": 66,
      "start": 1.5335,
      "duration": 0.0015,
      "velocity": 95,
      "chip": "ym2612"
    },
    {
      "channel": 3,
      "note": 65,
      "start": 1.5369,
      "duration": 0.0016,
      "velocity": 95,
      "chip": "ym2612"
    },
    {
      "channel": 0,
      "note": 59,
      "start": 1.5475,
      "duration": 0.0015,
      "velocity": 95,
      "chip": "ym2612"
    },
    {
      "channel": 0,
      "note": 59,
      "start": 1.5514,
      "duration": 0.0018,
      "velocity": 95,
      "chip": "ym2612"
    },
    {
      "channel": 3,
      "note": 59,
      "start": 1.5541,
      "duration": 0.0024,
      "velocity": 95,
      "chip": "ym2612"
    },
    {
      "channel": 0,
      "note": 56,
      "start": 1.5569,
      "duration": 0.0014,
      "velocity": 95,
      "chip": "ym2612"
    },
    {
      "channel": 3,
      "note": 59,
      "start": 1.5572,
      "duration": 0.0012,
      "velocity": 95,
      "chip": "ym2612"
    },
    {
      "channel": 3,
      "note": 56,
      "start": 1.5623,
      "duration": 0.0007,
      "velocity": 95,
      "chip": "ym2612"
    },
    {
      "channel": 0,
      "note": 66,
      "start": 1.5634,
      "duration": 0.0022,
      "velocity": 95,
      "chip": "ym2612"
    },
    {
      "channel": 0,
      "note": 65,
      "start": 1.5694,
      "duration": 0.001,
      "velocity": 95,
      "chip": "ym2612"
    },
    {
      "channel": 3,
      "note": 66,
      "start": 1.5696,
      "duration": 0.0009,
      "velocity": 95,
      "chip": "ym2612"
    },
    {
      "channel": 3,
      "note": 65,
      "start": 1.5756,
      "duration": 0.0019,
      "velocity": 95,
      "chip": "ym2612"
    },
    {
      "channel": 0,
      "note": 63,
      "start": 1.5778,
      "duration": 0.0008,
      "velocity": 95,
      "chip": "ym2612"
    },
    {
      "channel": 1,
      "note": 75,
      "start": 1.58,
      "duration": 0.0022,
      "velocity": 120,
      "chip": "ym2612"
    },
    {
      "channel": 1,
      "note": 75,
      "start": 1.5824,
      "duration": 0.0029,
      "velocity": 120,
      "chip": "ym2612"
    },
    {
      "channel": 3,
      "note": 63,
      "start": 1.5833,
      "duration": 0.003,
      "velocity": 95,
      "chip": "ym2612"
    },
    {
      "channel": 1,
      "note": 75,
      "start": 1.5855,
      "duration": 0.0027,
      "velocity": 120,
      "chip": "ym2612"
    },
    {
      "channel": 0,
      "note": 56,
      "start": 1.5878,
      "duration": 0.003,
      "velocity": 95,
      "chip": "ym2612"
    },
    {
      "channel": 1,
      "note": 75,
      "start": 1.5884,
      "duration": 0.0028,
      "velocity": 120,
      "chip": "ym2612"
    },
    {
      "channel": 2,
      "note": 92,
      "start": 1.5887,
      "duration": 0.0028,
      "velocity": 111,
      "chip": "ym2612"
    },
    {
      "channel": 1,
      "note": 75,
      "start": 1.5915,
      "duration": 0.0027,
      "velocity": 120,
      "chip": "ym2612"
    },
    {
      "channel": 2,
      "note": 94,
      "start": 1.5917,
      "duration": 0.0027,
      "velocity": 111,
      "chip": "ym2612"
    },
    {
      "channel": 1,
      "note": 75,
      "start": 1.5944,
      "duration": 0.004,
      "velocity": 94,
      "chip": "ym2612"
    },
    {
      "channel": 2,
      "note": 95,
      "start": 1.5948,
      "duration": 0.0038,
      "velocity": 111,
      "chip": "ym2612"
    },
    {
      "channel": 0,
      "note": 59,
      "start": 1.5973,
      "duration": 0.0031,
      "velocity": 95,
      "chip": "ym2612"
    },
    {
      "channel": 1,
      "note": 73,
      "start": 1.5985,
      "duration": 0.0027,
      "velocity": 94,
      "chip": "ym2612"
    },
    {
      "channel": 2,
      "note": 97,
      "start": 1.5987,
      "duration": 0.3753,
      "velocity": 111,
      "chip": "ym2612"
    },
    {
      "channel": 3,
      "note": 56,
      "start": 1.5989,
      "duration": 0.0017,
      "velocity": 95,
      "chip": "ym2612"
    },
    {
      "channel": 0,
      "note": 59,
      "start": 1.6011,
      "duration": 0.0012,
      "velocity": 95,
      "chip": "ym2612"
    },
    {
      "channel": 1,
      "note": 61,
      "start": 1.6012,
      "duration": 0.4576,
      "velocity": 94,
      "chip": "ym2612"
    },
    {
      "channel": 3,
      "note": 59,
      "start": 1.6039,
      "duration": 0.0139,
      "velocity": 95,
      "chip": "ym2612"
    },
    {
      "channel": 0,
      "note": 56,
      "start": 1.6513,
      "duration": 0.0662,
      "velocity": 95,
      "chip": "ym2612"
    },
    {
      "channel": 3,
      "note": 59,
      "start": 1.6521,
      "duration": 0.0658,
      "velocity": 95,
      "chip": "ym2612"
    },
    {
      "channel": 4,
      "note": 92,
      "start": 1.6538,
      "duration": 0.0642,
      "velocity": 111,
      "chip": "ym2612"
    },
    {
      "channel": 4,
      "note": 94,
      "start": 1.7182,
      "duration": 0.0343,
      "velocity": 111,
      "chip": "ym2612"
    },
    {
      "channel": 4,
      "note": 95,
      "start": 1.7527,
      "duration": 0.0014,
      "velocity": 111,
      "chip": "ym2612"
    },
    {
      "channel": 3,
      "note": 56,
      "start": 1.7541,
      "duration": 0.0013,
      "velocity": 95,
      "chip": "ym2612"
    },
    {
      "channel": 4,
      "note": 97,
      "start": 1.7542,
      "duration": 0.3384,
      "velocity": 111,
      "chip": "ym2612"
    },
    {
      "channel": 0,
      "note": 66,
      "start": 1.7736,
      "duration": 0.0664,
      "velocity": 95,
      "chip": "ym2612"
    },
    {
      "channel": 0,
      "note": 65,
      "start": 1.9738,
      "duration": 0.0031,
      "velocity": 95,
      "chip": "ym2612"
    },
    {
      "channel": 2,
      "note": 95,
      "start": 1.9743,
      "duration": 0.0869,
      "velocity": 111,
      "chip": "ym2612"
    },
    {
      "channel": 3,
      "note": 66,
      "start": 1.9746,
      "duration": 0.0026,
      "velocity": 95,
      "chip": "ym2612"
    },
    {
      "channel": 1,
      "note": 61,
      "start": 2.0593,
      "duration": 0.0018,
      "velocity": 94,
      "chip": "ym2612"
    },
    {
      "channel": 3,
      "note": 65,
      "start": 2.0595,
      "duration": 0.0013,
      "velocity": 95,
      "chip": "ym2612"
    },
    {
      "channel": 2,
      "note": 94,
      "start": 2.0612,
      "duration": 0.0511,
      "velocity": 111,
      "chip": "ym2612"
    },
    {
      "channel": 1,
      "note": 61,
      "start": 2.0925,
      "duration": 0.0197,
      "velocity": 94,
      "chip": "ym2612"
    },
    {
      "channel": 4,
      "note": 95,
      "start": 2.0927,
      "duration": 0.2221,
      "velocity": 111,
      "chip": "ym2612"
    },
    {
      "channel": 2,
      "note": 95,
      "start": 2.1126,
      "duration": 0.2018,
      "velocity": 111,
      "chip": "ym2612"
    },
    {
      "channel": 0,
      "note": 59,
      "start": 2.3125,
      "duration": 0.0035,
      "velocity": 95,
      "chip": "ym2612"
    },
    {
      "channel": 1,
      "note": 61,
      "start": 2.3143,
      "duration": 0.0026,
      "velocity": 94,
      "chip": "ym2612"
    },
    {
      "channel": 2,
      "note": 92,
      "start": 2.3146,
      "duration": 0.4452,
      "velocity": 111,
      "chip": "ym2612"
    },
    {
      "channel": 4,
      "note": 94,
      "start": 2.3151,
      "duration": 0.1222,
      "velocity": 111,
      "chip": "ym2612"
    },
    {
      "channel": 0,
      "note": 59,
      "start": 2.3168,
      "duration": 0.0016,
      "velocity": 95,
      "chip": "ym2612"
    },
    {
      "channel": 1,
      "note": 61,
      "start": 2.317,
      "duration": 0.019,
      "velocity": 94,
      "chip": "ym2612"
    },
    {
      "channel": 1,
      "note": 73,
      "start": 2.3362,
      "duration": 0.2001,
      "velocity": 94,
      "chip": "ym2612"
    },
    {
      "channel": 3,
      "note": 59,
      "start": 2.3366,
      "duration": 0.0663,
      "velocity": 95,
      "chip": "ym2612"
    },
    {
      "channel": 0,
      "note": 56,
      "start": 2.4363,
      "duration": 0.0662,
      "velocity": 95,
      "chip": "ym2612"
    },
    {
      "channel": 3,
      "note": 59,
      "start": 2.4372,
      "duration": 0.0658,
      "velocity": 95,
      "chip": "ym2612"
    },
    {
      "channel": 4,
      "note": 95,
      "start": 2.4375,
      "duration": 0.1026,
      "velocity": 111,
      "chip": "ym2612"
    },
    {
      "channel": 1,
      "note": 61,
      "start": 2.5365,
      "duration": 0.0032,
      "velocity": 94,
      "chip": "ym2612"
    },
    {
      "channel": 3,
      "note": 56,
      "start": 2.5401,
      "duration": 0.001,
      "velocity": 95,
      "chip": "ym2612"
    },
    {
      "channel": 4,
      "note": 92,
      "start": 2.5402,
      "duration": 0.3386,
      "velocity": 111,
      "chip": "ym2612"
    },
    {
      "channel": 0,
      "note": 66,
      "start": 2.5594,
      "duration": 0.0664,
      "velocity": 95,
      "chip": "ym2612"
    },
    {
      "channel": 0,
      "note": 65,
      "start": 2.7596,
      "duration": 0.003,
      "velocity": 95,
      "chip": "ym2612"
    },
    {
      "channel": 2,
      "note": 90,
      "start": 2.76,
      "duration": 0.0871,
      "velocity": 111,
      "chip": "ym2612"
    },
    {
      "channel": 3,
      "note": 66,
      "start": 2.7604,
      "duration": 0.0023,
      "velocity": 95,
      "chip": "ym2612"
    },
    {
      "channel": 1,
      "note": 61,
      "start": 2.845,
      "duration": 0.002,
      "velocity": 94,
      "chip": "ym2612"
    },
    {
      "channel": 3,
      "note": 65,
      "start": 2.8452,
      "duration": 0.0013,
      "velocity": 95,
      "chip": "ym2612"
    },
    {
      "channel": 0,
      "note": 63,
      "start": 2.847,
      "duration": 0.0014,
      "velocity": 95,
      "chip": "ym2612"
    },
    {
      "channel": 2,
      "note": 89,
      "start": 2.8472,
      "duration": 0.0516,
      "velocity": 111,
      "chip": "ym2612"
    },
    {
      "channel": 1,
      "note": 61,
      "start": 2.8786,
      "duration": 0.0201,
      "velocity": 94,
      "chip": "ym2612"
    },
    {
      "channel": 3,
      "note": 63,
      "start": 2.8787,
      "duration": 0.0014,
      "velocity": 95,
      "chip": "ym2612"
    },
    {
      "channel": 4,
      "note": 90,
      "start": 2.879,
      "duration": 0.2231,
      "velocity": 111,
      "chip": "ym2612"
    },
    {
      "channel": 0,
      "note": 56,
      "start": 2.8986,
      "duration": 0.0664,
      "velocity": 95,
      "chip": "ym2612"
    },
    {
      "channel": 2,
      "note": 90,
      "start": 2.8991,
      "duration": 0.2026,
      "velocity": 111,
      "chip": "ym2612"
    },
    {
      "channel": 0,
      "note": 59,
      "start": 3.1001,
      "duration": 0.0039,
      "velocity": 95,
      "chip": "ym2612"
    },
    {
      "channel": 1,
      "note": 61,
      "start": 3.1017,
      "duration": 0.0032,
      "velocity": 94,
      "chip": "ym2612"
    },
    {
      "channel": 2,
      "note": 85,
      "start": 3.1019,
      "duration": 0.445,
      "velocity": 111,
      "chip": "ym2612"
    },
    {
      "channel": 3,
      "note": 56,
      "start": 3.102,
      "duration": 0.0021,
      "velocity": 95,
      "chip": "ym2612"
    },
    {
      "channel": 4,
      "note": 89,
      "start": 3.1023,
      "duration": 0.1221,
      "velocity": 111,
      "chip": "ym2612"
    },
    {
      "channel": 0,
      "note": 59,
      "start": 3.1048,
      "duration": 0.0015,
      "velocity": 95,
      "chip": "ym2612"
    },
    {
      "channel": 1,
      "note": 61,
      "start": 3.105,
      "duration": 0.0182,
      "velocity": 94,
      "chip": "ym2612"
    },
    {
      "channel": 1,
      "note": 73,
      "start": 3.1234,
      "duration": 0.2001,
      "velocity": 94,
      "chip": "ym2612"
    },
    {
      "channel": 3,
      "note": 59,
      "start": 3.1252,
      "duration": 0.065,
      "velocity": 95,
      "chip": "ym2612"
    },
    {
      "channel": 0,
      "note": 56,
      "start": 3.2235,
      "duration": 0.0662,
      "velocity": 95,
      "chip": "ym2612"
    },
    {
      "channel": 3,
      "note": 59,
      "start": 3.2244,
      "duration": 0.0658,
      "velocity": 95,
      "chip": "ym2612"
    },
    {
      "channel": 4,
      "note": 90,
      "start": 3.2247,
      "duration": 0.1026,
      "velocity": 111,
      "chip": "ym2612"
    },
    {
      "channel": 1,
      "note": 61,
      "start": 3.3237,
      "duration": 0.0032,
      "velocity": 94,
      "chip": "ym2612"
    },
    {
      "channel": 3,
      "note": 56,
      "start": 3.3273,
      "duration": 0.001,
      "velocity": 95,
      "chip": "ym2612"
    },
    {
      "channel": 4,
      "note": 85,
      "start": 3.3274,
      "duration": 0.3384,
      "velocity": 111,
      "chip": "ym2612"
    },
    {
      "channel": 0,
      "note": 66,
      "start": 3.3466,
      "duration": 0.0664,
      "velocity": 95,
      "chip": "ym2612"
    },
    {
      "channel": 0,
      "note": 65,
      "start": 3.5468,
      "duration": 0.003,
      "velocity": 95,
      "chip": "ym2612"
    },
    {
      "channel": 2,
      "note": 83,
      "start": 3.5472,
      "duration": 0.0871,
      "velocity": 111,
      "chip": "ym2612"
    },
    {
      "channel": 3,
      "note": 66,
      "start": 3.5475,
      "duration": 0.0024,
      "velocity": 95,
      "chip": "ym2612"
    },
    {
      "channel": 1,
      "note": 61,
      "start": 3.6323,
      "duration": 0.0019,
      "velocity": 94,
      "chip": "ym2612"
    },
    {
      "channel": 3,
      "note": 65,
      "start": 3.6324,
      "duration": 0.0014,
      "velocity": 95,
      "chip": "ym2612"
    },
    {
      "channel": 2,
      "note": 89,
      "start": 3.6343,
      "duration": 0.0512,
      "velocity": 111,
      "chip": "ym2612"
    },
    {
      "channel": 1,
      "note": 61,
      "start": 3.6656,
      "duration": 0.0197,
      "velocity": 94,
      "chip": "ym2612"
    },
    {
      "channel": 4,
      "note": 83,
      "start": 3.6659,
      "duration": 0.2222,
      "velocity": 111,
      "chip": "ym2612"
    },
    {
      "channel": 2,
      "note": 82,
      "start": 3.6857,
      "duration": 0.2019,
      "velocity": 111,
      "chip": "ym2612"
    },
    {
      "channel": 0,
      "note": 59,
      "start": 3.8857,
      "duration": 0.0038,
      "velocity": 95,
      "chip": "ym2612"
    },
    {
      "channel": 1,
      "note": 59,
      "start": 3.8874,
      "duration": 0.0022,
      "velocity": 107,
      "chip": "ym2612"
    },
    {
      "channel": 2,
      "note": 80,
      "start": 3.8879,
      "duration": 0.5293,
      "velocity": 111,
      "chip": "ym2612"
    },
    {
      "channel": 4,
      "note": 89,
      "start": 3.8883,
      "duration": 0.124,
      "velocity": 111,
      "chip": "ym2612"
    },
    {
      "channel": 1,
      "note": 60,
      "start": 3.8896,
      "duration": 0.0016,
      "velocity": 107,
      "chip": "ym2612"
    },
    {
      "channel": 0,
      "note": 59,
      "start": 3.8903,
      "duration": 0.0017,
      "velocity": 95,
      "chip": "ym2612"
    },
    {
      "channel": 1,
      "note": 61,
      "start": 3.8912,
      "duration": 0.12,
      "velocity": 94,
      "chip": "ym2612"
    },
    {
      "channel": 3,
      "note": 59,
      "start": 3.9101,
      "duration": 0.0664,
      "velocity": 95,
      "chip": "ym2612"
    },
    {
      "channel": 0,
      "note": 56,
      "start": 4.0099,
      "duration": 0.0662,
      "velocity": 95,
      "chip": "ym2612"
    },
    {
      "channel": 1,
      "note": 61,
      "start": 4.0115,
      "duration": 0.0983,
      "velocity": 94,
      "chip": "ym2612"
    },
    {
      "channel": 3,
      "note": 59,
      "start": 4.0122,
      "duration": 0.0644,
      "velocity": 95,
      "chip": "ym2612"
    },
    {
      "channel": 4,
      "note": 82,
      "start": 4.0125,
      "duration": 0.1007,
      "velocity": 111,
      "chip": "ym2612"
    },
    {
      "channel": 3,
      "note": 56,
      "start": 4.1132,
      "duration": 0.0011,
      "velocity": 95,
      "chip": "ym2612"
    },
    {
      "channel": 4,
      "note": 80,
      "start": 4.1134,
      "duration": 0.3384,
      "velocity": 111,
      "chip": "ym2612"
    },
    {
      "channel": 0,
      "note": 66,
      "start": 4.1329,
      "duration": 0.0664,
      "velocity": 95,
      "chip": "ym2612"
    },
    {
      "channel": 1,
      "note": 61,
      "start": 4.1332,
      "duration": 0.1009,
      "velocity": 94,
      "chip": "ym2612"
    },
    {
      "channel": 0,
      "note": 65,
      "start": 4.3331,
      "duration": 0.0031,
      "velocity": 95,
      "chip": "ym2612"
    },
    {
      "channel": 1,
      "note": 61,
      "start": 4.3334,
      "duration": 0.0041,
      "velocity": 94,
      "chip": "ym2612"
    },
    {
      "channel": 3,
      "note": 66,
      "start": 4.3339,
      "duration": 0.0025,
      "velocity": 95,
      "chip": "ym2612"
    },
    {
      "channel": 1,
      "note": 61,
      "start": 4.3377,
      "duration": 0.0791,
      "velocity": 94,
      "chip": "ym2612"
    },
    {
      "channel": 1,
      "note": 73,
      "start": 4.4171,
      "duration": 0.0313,
      "velocity": 94,
      "chip": "ym2612"
    },
    {
      "channel": 3,
      "note": 65,
      "start": 4.4176,
      "duration": 0.0016,
      "velocity": 95,
      "chip": "ym2612"
    },
    {
      "channel": 0,
      "note": 63,
      "start": 4.4197,
      "duration": 0.001,
      "velocity": 95,
      "chip": "ym2612"
    },
    {
      "channel": 1,
      "note": 61,
      "start": 4.4486,
      "duration": 0.003,
      "velocity": 94,
      "chip": "ym2612"
    },
    {
      "channel": 1,
      "note": 58,
      "start": 4.4516,
      "duration": 0.0199,
      "velocity": 94,
      "chip": "ym2612"
    },
    {
      "channel": 3,
      "note": 63,
      "start": 4.4518,
      "duration": 0.001,
      "velocity": 95,
      "chip": "ym2612"
    },
    {
      "channel": 0,
      "note": 56,
      "start": 4.4715,
      "duration": 0.0664,
      "velocity": 95,
      "chip": "ym2612"
    },
    {
      "channel": 1,
      "note": 59,
      "start": 4.4718,
      "duration": 0.0996,
      "velocity": 94,
      "chip": "ym2612"
    },
    {
      "channel": 2,
      "note": 92,
      "start": 4.4721,
      "duration": 0.066,
      "velocity": 111,
      "chip": "ym2612"
    },
    {
      "channel": 2,
      "note": 94,
      "start": 4.5384,
      "duration": 0.0663,
      "velocity": 111,
      "chip": "ym2612"
    },
    {
      "channel": 1,
      "note": 60,
      "start": 4.5717,
      "duration": 0.103,
      "velocity": 94,
      "chip": "ym2612"
    },
    {
      "channel": 2,
      "note": 95,
      "start": 4.605,
      "duration": 0.0698,
      "velocity": 111,
      "chip": "ym2612"
    },
    {
      "channel": 0,
      "note": 59,
      "start": 4.673,
      "duration": 0.0035,
      "velocity": 95,
      "chip": "ym2612"
    },
    {
      "channel": 1,
      "note": 73,
      "start": 4.6748,
      "duration": 0.0023,
      "velocity": 94,
      "chip": "ym2612"
    },
    {
      "channel": 2,
      "note": 97,
      "start": 4.675,
      "duration": 0.4446,
      "velocity": 111,
      "chip": "ym2612"
    },
    {
      "channel": 3,
      "note": 56,
      "start": 4.6751,
      "duration": 0.0016,
      "velocity": 95,
      "chip": "ym2612"
    },
    {
      "channel": 0,
      "note": 59,
      "start": 4.677,
      "duration": 0.0013,
      "velocity": 95,
      "chip": "ym2612"
    },
    {
      "channel": 1,
      "note": 61,
      "start": 4.6773,
      "duration": 0.5271,
      "velocity": 94,
      "chip": "ym2612"
    },
    {
      "channel": 3,
      "note": 59,
      "start": 4.6973,
      "duration": 0.0651,
      "velocity": 95,
      "chip": "ym2612"
    },
    {
      "channel": 0,
      "note": 56,
      "start": 4.7958,
      "duration": 0.0662,
      "velocity": 95,
      "chip": "ym2612"
    },
    {
      "channel": 3,
      "note": 59,
      "start": 4.7966,
      "duration": 0.0658,
      "velocity": 95,
      "chip": "ym2612"
    },
    {
      "channel": 4,
      "note": 92,
      "start": 4.7969,
      "duration": 0.0656,
      "velocity": 111,
      "chip": "ym2612"
    },
    {
      "channel": 4,
      "note": 94,
      "start": 4.8628,
      "duration": 0.0353,
      "velocity": 111,
      "chip": "ym2612"
    },
    {
      "channel": 4,
      "note": 95,
      "start": 4.8982,
      "duration": 0.0014,
      "velocity": 111,
      "chip": "ym2612"
    },
    {
      "channel": 3,
      "note": 56,
      "start": 4.8996,
      "duration": 0.0013,
      "velocity": 95,
      "chip": "ym2612"
    },
    {
      "channel": 4,
      "note": 97,
      "start": 4.8997,
      "duration": 0.3385,
      "velocity": 111,
      "chip": "ym2612"
    },
    {
      "channel": 0,
      "note": 66,
      "start": 4.9191,
      "duration": 0.0664,
      "velocity": 95,
      "chip": "ym2612"
    },
    {
      "channel": 0,
      "note": 65,
      "start": 5.1193,
      "duration": 0.0031,
      "velocity": 95,
      "chip": "ym2612"
    },
    {
      "channel": 2,
      "note": 95,
      "start": 5.1198,
      "duration": 0.0869,
      "velocity": 111,
      "chip": "ym2612"
    },
    {
      "channel": 3,
      "note": 66,
      "start": 5.1201,
      "duration": 0.0025,
      "velocity": 95,
      "chip": "ym2612"
    },
    {
      "channel": 1,
      "note": 61,
      "start": 5.2047,
      "duration": 0.0019,
      "velocity": 94,
      "chip": "ym2612"
    },
    {
      "channel": 3,
      "note": 65,
      "start": 5.2049,
      "duration": 0.0014,
      "velocity": 95,
      "chip": "ym2612"
    },
    {
      "channel": 2,
      "note": 94,
      "start": 5.2068,
      "duration": 0.0512,
      "velocity": 111,
      "chip": "ym2612"
    },
    {
      "channel": 1,
      "note": 61,
      "start": 5.2381,
      "duration": 0.0197,
      "velocity": 94,
      "chip": "ym2612"
    },
    {
      "channel": 4,
      "note": 95,
      "start": 5.2383,
      "duration": 0.2222,
      "velocity": 111,
      "chip": "ym2612"
    },
    {
      "channel": 2,
      "note": 95,
      "start": 5.2582,
      "duration": 0.2019,
      "velocity": 111,
      "chip": "ym2612"
    },
    {
      "channel": 0,
      "note": 59,
      "start": 5.4582,
      "duration": 0.0036,
      "velocity": 95,
      "chip": "ym2612"
    },
    {
      "channel": 1,
      "note": 61,
      "start": 5.46,
      "duration": 0.0027,
      "velocity": 94,
      "chip": "ym2612"
    },
    {
      "channel": 2,
      "note": 92,
      "start": 5.4604,
      "duration": 0.4452,
      "velocity": 111,
      "chip": "ym2612"
    },
    {
      "channel": 4,
      "note": 94,
      "start": 5.4607,
      "duration": 0.1223,
      "velocity": 111,
      "chip": "ym2612"
    },
    {
      "channel": 0,
      "note": 59,
      "start": 5.4626,
      "duration": 0.0016,
      "velocity": 95,
      "chip": "ym2612"
    },
    {
      "channel": 1,
      "note": 61,
      "start": 5.4628,
      "duration": 0.019,
      "velocity": 94,
      "chip": "ym2612"
    },
    {
      "channel": 1,
      "note": 73,
      "start": 5.482,
      "duration": 0.2001,
      "velocity": 94,
      "chip": "ym2612"
    },
    {
      "channel": 3,
      "note": 59,
      "start": 5.4824,
      "duration": 0.0663,
      "velocity": 95,
      "chip": "ym2612"
    },
    {
      "channel": 0,
      "note": 56,
      "start": 5.5821,
      "duration": 0.0662,
      "velocity": 95,
      "chip": "ym2612"
    },
    {
      "channel": 3,
      "note": 59,
      "start": 5.5829,
      "duration": 0.0658,
      "velocity": 95,
      "chip": "ym2612"
    },
    {
      "channel": 4,
      "note": 95,
      "start": 5.5833,
      "duration": 0.1026,
      "velocity": 111,
      "chip": "ym2612"
    },
    {
      "channel": 1,
      "note": 61,
      "start": 5.6823,
      "duration": 0.0032,
      "velocity": 94,
      "chip": "ym2612"
    },
    {
      "channel": 3,
      "note": 56,
      "start": 5.6859,
      "duration": 0.001,
      "velocity": 95,
      "chip": "ym2612"
    },
    {
      "channel": 4,
      "note": 92,
      "start": 5.686,
      "duration": 0.3386,
      "velocity": 111,
      "chip": "ym2612"
    },
    {
      "channel": 0,
      "note": 66,
      "start": 5.7052,
      "duration": 0.0664,
      "velocity": 95,
      "chip": "ym2612"
    },
    {
      "channel": 0,
      "note": 65,
      "start": 5.9054,
      "duration": 0.003,
      "velocity": 95,
      "chip": "ym2612"
    },
    {
      "channel": 2,
      "note": 90,
      "start": 5.9058,
      "duration": 0.0871,
      "velocity": 111,
      "chip": "ym2612"
    },
    {
      "channel": 3,
      "note": 66,
      "start": 5.9061,
      "duration": 0.0023,
      "velocity": 95,
      "chip": "ym2612"
    },
    {
      "channel": 1,
      "note": 61,
      "start": 5.9908,
      "duration": 0.002,
      "velocity": 94,
      "chip": "ym2612"
    },
    {
      "channel": 3,
      "note": 65,
      "start": 5.991,
      "duration": 0.0013,
      "velocity": 95,
      "chip": "ym2612"
    },
    {
      "channel": 0,
      "note": 63,
      "start": 5.9928,
      "duration": 0.0014,
      "velocity": 95,
      "chip": "ym2612"
    },
    {
      "channel": 2,
      "note": 89,
      "start": 5.993,
      "duration": 0.0516,
      "velocity": 111,
      "chip": "ym2612"
    },
    {
      "channel": 1,
      "note": 61,
      "start": 6.0244,
      "duration": 0.0201,
      "velocity": 94,
      "chip": "ym2612"
    },
    {
      "channel": 3,
      "note": 63,
      "start": 6.0245,
      "duration": 0.0014,
      "velocity": 95,
      "chip": "ym2612"
    },
    {
      "channel": 4,
      "note": 90,
      "start": 6.0248,
      "duration": 0.2231,
      "velocity": 111,
      "chip": "ym2612"
    },
    {
      "channel": 0,
      "note": 56,
      "start": 6.0444,
      "duration": 0.0664,
      "velocity": 95,
      "chip": "ym2612"
    },
    {
      "channel": 2,
      "note": 90,
      "start": 6.0449,
      "duration": 0.2027,
      "velocity": 111,
      "chip": "ym2612"
    },
    {
      "channel": 0,
      "note": 59,
      "start": 6.2459,
      "duration": 0.0036,
      "velocity": 95,
      "chip": "ym2612"
    },
    {
      "channel": 1,
      "note": 61,
      "start": 6.2476,
      "duration": 0.003,
      "velocity": 94,
      "chip": "ym2612"
    },
    {
      "channel": 2,
      "note": 85,
      "start": 6.2477,
      "duration": 0.4448,
      "velocity": 111,
      "chip": "ym2612"
    },
    {
      "channel": 3,
      "note": 56,
      "start": 6.2479,
      "duration": 0.0019,
      "velocity": 95,
      "chip": "ym2612"
    },
    {
      "channel": 4,
      "note": 89,
      "start": 6.2479,
      "duration": 0.1221,
      "velocity": 111,
      "chip": "ym2612"
    },
    {
      "channel": 0,
      "note": 59,
      "start": 6.2505,
      "duration": 0.0015,
      "velocity": 95,
      "chip": "ym2612"
    },
    {
      "channel": 1,
      "note": 61,
      "start": 6.2506,
      "duration": 0.0182,
      "velocity": 94,
      "chip": "ym2612"
    },
    {
      "channel": 1,
      "note": 73,
      "start": 6.269,
      "duration": 0.2001,
      "velocity": 94,
      "chip": "ym2612"
    },
    {
      "channel": 3,
      "note": 59,
      "start": 6.2708,
      "duration": 0.065,
      "velocity": 95,
      "chip": "ym2612"
    },
    {
      "channel": 0,
      "note": 56,
      "start": 6.3692,
      "duration": 0.0662,
      "velocity": 95,
      "chip": "ym2612"
    },
    {
      "channel": 3,
      "note": 59,
      "start": 6.37,
      "duration": 0.0658,
      "velocity": 95,
      "chip": "ym2612"
    },
    {
      "channel": 4,
      "note": 90,
      "start": 6.3703,
      "duration": 0.1026,
      "velocity": 111,
      "chip": "ym2612"
    },
    {
      "channel": 1,
      "note": 61,
      "start": 6.4694,
      "duration": 0.0032,
      "velocity": 94,
      "chip": "ym2612"
    },
    {
      "channel": 3,
      "note": 56,
      "start": 6.4729,
      "duration": 0.001,
      "velocity": 95,
      "chip": "ym2612"
    },
    {
      "channel": 4,
      "note": 85,
      "start": 6.473,
      "duration": 0.3382,
      "velocity": 111,
      "chip": "ym2612"
    },
    {
      "channel": 0,
      "note": 66,
      "start": 6.4922,
      "duration": 0.0664,
      "velocity": 95,
      "chip": "ym2612"
    },
    {
      "channel": 0,
      "note": 65,
      "start": 6.6924,
      "duration": 0.003,
      "velocity": 95,
      "chip": "ym2612"
    },
    {
      "channel": 2,
      "note": 83,
      "start": 6.6928,
      "duration": 0.087,
      "velocity": 111,
      "chip": "ym2612"
    },
    {
      "channel": 3,
      "note": 66,
      "start": 6.6931,
      "duration": 0.0024,
      "velocity": 95,
      "chip": "ym2612"
    },
    {
      "channel": 1,
      "note": 61,
      "start": 6.7779,
      "duration": 0.0018,
      "velocity": 94,
      "chip": "ym2612"
    },
    {
      "channel": 3,
      "note": 65,
      "start": 6.7781,
      "duration": 0.0013,
      "velocity": 95,
      "chip": "ym2612"
    },
    {
      "channel": 2,
      "note": 90,
      "start": 6.7798,
      "duration": 0.0511,
      "velocity": 111,
      "chip": "ym2612"
    },
    {
      "channel": 1,
      "note": 61,
      "start": 6.8111,
      "duration": 0.0197,
      "velocity": 94,
      "chip": "ym2612"
    },
    {
      "channel": 4,
      "note": 83,
      "start": 6.8113,
      "duration": 0.2221,
      "velocity": 111,
      "chip": "ym2612"
    },
    {
      "channel": 2,
      "note": 82,
      "start": 6.8312,
      "duration": 0.2019,
      "velocity": 111,
      "chip": "ym2612"
    },
    {
      "channel": 0,
      "note": 59,
      "start": 7.0312,
      "duration": 0.0037,
      "velocity": 95,
      "chip": "ym2612"
    },
    {
      "channel": 1,
      "note": 59,
      "start": 7.0331,
      "duration": 0.002,
      "velocity": 107,
      "chip": "ym2612"
    },
    {
      "channel": 2,
      "note": 80,
      "start": 7.0334,
      "duration": 0.446,
      "velocity": 111,
      "chip": "ym2612"
    },
    {
      "channel": 4,
      "note": 90,
      "start": 7.0337,
      "duration": 0.124,
      "velocity": 111,
      "chip": "ym2612"
    },
    {
      "channel": 1,
      "note": 60,
      "start": 7.0351,
      "duration": 0.0016,
      "velocity": 107,
      "chip": "ym2612"
    },
    {
      "channel": 0,
      "note": 59,
      "start": 7.0358,
      "duration": 0.0017,
      "velocity": 95,
      "chip": "ym2612"
    },
    {
      "channel": 1,
      "note": 61,
      "start": 7.0367,
      "duration": 0.12,
      "velocity": 94,
      "chip": "ym2612"
    },
    {
      "channel": 3,
      "note": 59,
      "start": 7.0556,
      "duration": 0.0664,
      "velocity": 95,
      "chip": "ym2612"
    },
    {
      "channel": 0,
      "note": 56,
      "start": 7.1554,
      "duration": 0.0662,
      "velocity": 95,
      "chip": "ym2612"
    },
    {
      "channel": 1,
      "note": 61,
      "start": 7.157,
      "duration": 0.0983,
      "velocity": 94,
      "chip": "ym2612"
    },
    {
      "channel": 3,
      "note": 59,
      "start": 7.1577,
      "duration": 0.0644,
      "velocity": 95,
      "chip": "ym2612"
    },
    {
      "channel": 4,
      "note": 82,
      "start": 7.158,
      "duration": 0.1007,
      "velocity": 111,
      "chip": "ym2612"
    },
    {
      "channel": 3,
      "note": 56,
      "start": 7.2586,
      "duration": 0.0013,
      "velocity": 95,
      "chip": "ym2612"
    },
    {
      "channel": 4,
      "note": 80,
      "start": 7.2588,
      "duration": 0.236,
      "velocity": 111,
      "chip": "ym2612"
    },
    {
      "channel": 0,
      "note": 66,
      "start": 7.2785,
      "duration": 0.0664,
      "velocity": 95,
      "chip": "ym2612"
    },
    {
      "channel": 1,
      "note": 61,
      "start": 7.2789,
      "duration": 0.1009,
      "velocity": 94,
      "chip": "ym2612"
    },
    {
      "channel": 0,
      "note": 65,
      "start": 7.4787,
      "duration": 0.0034,
      "velocity": 95,
      "chip": "ym2612"
    },
    {
      "channel": 1,
      "note": 61,
      "start": 7.479,
      "duration": 0.0036,
      "velocity": 94,
      "chip": "ym2612"
    },
    {
      "channel": 2,
      "note": 80,
      "start": 7.4794,
      "duration": 0.0179,
      "velocity": 111,
      "chip": "ym2612"
    },
    {
      "channel": 3,
      "note": 66,
      "start": 7.4798,
      "duration": 0.0026,
      "velocity": 95,
      "chip": "ym2612"
    },
    {
      "channel": 1,
      "note": 61,
      "start": 7.4829,
      "duration": 0.0034,
      "velocity": 94,
      "chip": "ym2612"
    },
    {
      "channel": 1,
      "note": 73,
      "start": 7.4866,
      "duration": 0.0046,
      "velocity": 94,
      "chip": "ym2612"
    },
    {
      "channel": 3,
      "note": 65,
      "start": 7.4871,
      "duration": 0.0017,
      "velocity": 95,
      "chip": "ym2612"
    },
    {
      "channel": 0,
      "note": 63,
      "start": 7.4893,
      "duration": 0.0014,
      "velocity": 95,
      "chip": "ym2612"
    },
    {
      "channel": 1,
      "note": 61,
      "start": 7.4914,
      "duration": 0.0026,
      "velocity": 94,
      "chip": "ym2612"
    },
    {
      "channel": 1,
      "note": 60,
      "start": 7.4943,
      "duration": 0.0027,
      "velocity": 94,
      "chip": "ym2612"
    },
    {
      "channel": 3,
      "note": 63,
      "start": 7.4948,
      "duration": 0.0012,
      "velocity": 95,
      "chip": "ym2612"
    },
    {
      "channel": 0,
      "note": 56,
      "start": 7.4969,
      "duration": 0.0016,
      "velocity": 95,
      "chip": "ym2612"
    },
    {
      "channel": 1,
      "note": 59,
      "start": 7.4973,
      "duration": 0.0022,
      "velocity": 94,
      "chip": "ym2612"
    },
    {
      "channel": 1,
      "note": 58,
      "start": 7.4998,
      "duration": 0.0042,
      "velocity": 107,
      "chip": "ym2612"
    },
    {
      "channel": 0,
      "note": 85,
      "start": 7.503,
      "duration": 0.0031,
      "velocity": 101,
      "chip": "ym2612"
    },
    {
      "channel": 1,
      "note": 57,
      "start": 7.504,
      "duration": 0.0229,
      "velocity": 107,
      "chip": "ym2612"
    },
    {
      "channel": 2,
      "note": 78,
      "start": 7.5052,
      "duration": 0.001,
      "velocity": 101,
      "chip": "ym2612"
    },
    {
      "channel": 3,
      "note": 56,
      "start": 7.5052,
      "duration": 0.0012,
      "velocity": 95,
      "chip": "ym2612"
    },
    {
      "channel": 3,
      "note": 85,
      "start": 7.5078,
      "duration": 0.0019,
      "velocity": 101,
      "chip": "ym2612"
    },
    {
      "channel": 4,
      "note": 78,
      "start": 7.5089,
      "duration": 0.0008,
      "velocity": 101,
      "chip": "ym2612"
    },
    {
      "channel": 0,
      "note": 73,
      "start": 7.527,
      "duration": 0.0015,
      "velocity": 100,
      "chip": "ym2612"
    },
    {
      "channel": 1,
      "note": 69,
      "start": 7.527,
      "duration": 0.0072,
      "velocity": 107,
      "chip": "ym2612"
    },
    {
      "channel": 2,
      "note": 66,
      "start": 7.5281,
      "duration": 0.0005,
      "velocity": 100,
      "chip": "ym2612"
    },
    {
      "channel": 3,
      "note": 73,
      "start": 7.53,
      "duration": 0.0015,
      "velocity": 100,
      "chip": "ym2612"
    },
    {
      "channel": 4,
      "note": 66,
      "start": 7.5311,
      "duration": 0.0004,
      "velocity": 100,
      "chip": "ym2612"
    },
    {
      "channel": 0,
      "note": 82,
      "start": 7.5341,
      "duration": 0.0026,
      "velocity": 101,
      "chip": "ym2612"
    },
    {
      "channel": 1,
      "note": 66,
      "start": 7.5345,
      "duration": 0.0856,
      "velocity": 94,
      "chip": "ym2612"
    },
    {
      "channel": 2,
      "note": 75,
      "start": 7.536,
      "duration": 0.0008,
      "velocity": 101,
      "chip": "ym2612"
    },
    {
      "channel": 3,
      "note": 82,
      "start": 7.539,
      "duration": 0.0286,
      "velocity": 101,
      "chip": "ym2612"
    },
    {
      "channel": 4,
      "note": 75,
      "start": 7.5402,
      "duration": 0.0275,
      "velocity": 101,
      "chip": "ym2612"
    },
    {
      "channel": 0,
      "note": 70,
      "start": 7.6191,
      "duration": 0.0029,
      "velocity": 100,
      "chip": "ym2612"
    },
    {
      "channel": 1,
      "note": 57,
      "start": 7.6202,
      "duration": 0.0021,
      "velocity": 94,
      "chip": "ym2612"
    },
    {
      "channel": 2,
      "note": 63,
      "start": 7.6214,
      "duration": 0.0007,
      "velocity": 100,
      "chip": "ym2612"
    },
    {
      "channel": 1,
      "note": 69,
      "start": 7.6225,
      "duration": 0.0056,
      "velocity": 107,
      "chip": "ym2612"
    },
    {
      "channel": 3,
      "note": 70,
      "start": 7.6236,
      "duration": 0.0013,
      "velocity": 100,
      "chip": "ym2612"
    },
    {
      "channel": 4,
      "note": 63,
      "start": 7.6247,
      "duration": 0.0003,
      "velocity": 100,
      "chip": "ym2612"
    },
    {
      "channel": 0,
      "note": 83,
      "start": 7.6271,
      "duration": 0.0029,
      "velocity": 101,
      "chip": "ym2612"
    },
    {
      "channel": 1,
      "note": 68,
      "start": 7.6282,
      "duration": 0.0287,
      "velocity": 107,
      "chip": "ym2612"
    },
    {
      "channel": 2,
      "note": 76,
      "start": 7.6294,
      "duration": 0.0007,
      "velocity": 101,
      "chip": "ym2612"
    },
    {
      "channel": 3,
      "note": 83,
      "start": 7.6316,
      "duration": 0.0019,
      "velocity": 101,
      "chip": "ym2612"
    },
    {
      "channel": 4,
      "note": 76,
      "start": 7.6327,
      "duration": 0.0008,
      "velocity": 101,
      "chip": "ym2612"
    },
    {
      "channel": 0,
      "note": 71,
      "start": 7.6511,
      "duration": 0.0017,
      "velocity": 100,
      "chip": "ym2612"
    },
    {
      "channel": 2,
      "note": 64,
      "start": 7.6523,
      "duration": 0.0006,
      "velocity": 100,
      "chip": "ym2612"
    },
    {
      "channel": 3,
      "note": 71,
      "start": 7.6544,
      "duration": 0.004,
      "velocity": 100,
      "chip": "ym2612"
    },
    {
      "channel": 4,
      "note": 64,
      "start": 7.6554,
      "duration": 0.003,
      "velocity": 100,
      "chip": "ym2612"
    },
    {
      "channel": 0,
      "note": 80,
      "start": 7.6568,
      "duration": 0.0022,
      "velocity": 101,
      "chip": "ym2612"
    },
    {
      "channel": 1,
      "note": 65,
      "start": 7.657,
      "duration": 0.057,
      "velocity": 107,
      "chip": "ym2612"
    },
    {
      "channel": 2,
      "note": 73,
      "start": 7.6584,
      "duration": 0.0007,
      "velocity": 101,
      "chip": "ym2612"
    },
    {
      "channel": 0,
      "note": 68,
      "start": 7.6614,
      "duration": 0.0022,
      "velocity": 100,
      "chip": "ym2612"
    },
    {
      "channel": 2,
      "note": 61,
      "start": 7.6631,
      "duration": 0.0005,
      "velocity": 100,
      "chip": "ym2612"
    },
    {
      "channel": 3,
      "note": 80,
      "start": 7.6648,
      "duration": 0.0018,
      "velocity": 101,
      "chip": "ym2612"
    },
    {
      "channel": 4,
      "note": 73,
      "start": 7.666,
      "duration": 0.0007,
      "velocity": 101,
      "chip": "ym2612"
    },
    {
      "channel": 3,
      "note": 68,
      "start": 7.669,
      "duration": 0.012,
      "velocity": 100,
      "chip": "ym2612"
    },
    {
      "channel": 4,
      "note": 61,
      "start": 7.6702,
      "duration": 0.0108,
      "velocity": 100,
      "chip": "ym2612"
    },
    {
      "channel": 0,
      "note": 79,
      "start": 7.7496,
      "duration": 0.0017,
      "velocity": 98,
      "chip": "ym2612"
    },
    {
      "channel": 1,
      "note": 65,
      "start": 7.7497,
      "duration": 0.0017,
      "velocity": 107,
      "chip": "ym2612"
    },
    {
      "channel": 2,
      "note": 72,
      "start": 7.7509,
      "duration": 0.0006,
      "velocity": 104,
      "chip": "ym2612"
    },
    {
      "channel": 0,
      "note": 80,
      "start": 7.7514,
      "duration": 0.0005,
      "velocity": 98,
      "chip": "ym2612"
    },
    {
      "channel": 1,
      "note": 66,
      "start": 7.7514,
      "duration": 0.0302,
      "velocity": 94,
      "chip": "ym2612"
    },
    {
      "channel": 2,
      "note": 73,
      "start": 7.7515,
      "duration": 0.0004,
      "velocity": 104,
      "chip": "ym2612"
    },
    {
      "channel": 0,
      "note": 81,
      "start": 7.7518,
      "duration": 0.2425,
      "velocity": 101,
      "chip": "ym2612"
    },
    {
      "channel": 2,
      "note": 74,
      "start": 7.7521,
      "duration": 0.2445,
      "velocity": 101,
      "chip": "ym2612"
    },
    {
      "channel": 3,
      "note": 79,
      "start": 7.7538,
      "duration": 0.0016,
      "velocity": 98,
      "chip": "ym2612"
    },
    {
      "channel": 4,
      "note": 72,
      "start": 7.7549,
      "duration": 0.0007,
      "velocity": 104,
      "chip": "ym2612"
    },
    {
      "channel": 3,
      "note": 80,
      "start": 7.7555,
      "duration": 0.0008,
      "velocity": 98,
      "chip": "ym2612"
    },
    {
      "channel": 4,
      "note": 73,
      "start": 7.7556,
      "duration": 0.0008,
      "velocity": 104,
      "chip": "ym2612"
    },
    {
      "channel": 3,
      "note": 81,
      "start": 7.7564,
      "duration": 0.2429,
      "velocity": 101,
      "chip": "ym2612"
    },
    {
      "channel": 4,
      "note": 74,
      "start": 7.7566,
      "duration": 0.2438,
      "velocity": 101,
      "chip": "ym2612"
    },
    {
      "channel": 1,
      "note": 66,
      "start": 7.7819,
      "duration": 0.0051,
      "velocity": 107,
      "chip": "ym2612"
    },
    {
      "channel": 1,
      "note": 62,
      "start": 7.787,
      "duration": 0.0835,
      "velocity": 94,
      "chip": "ym2612"
    },
    {
      "channel": 1,
      "note": 62,
      "start": 7.8707,
      "duration": 0.0054,
      "velocity": 107,
      "chip": "ym2612"
    },
    {
      "channel": 1,
      "note": 64,
      "start": 7.8763,
      "duration": 0.0224,
      "velocity": 94,
      "chip": "ym2612"
    },
    {
      "channel": 1,
      "note": 64,
      "start": 7.8988,
      "duration": 0.0037,
      "velocity": 107,
      "chip": "ym2612"
    },
    {
      "channel": 1,
      "note": 57,
      "start": 7.9027,
      "duration": 0.086,
      "velocity": 94,
      "chip": "ym2612"
    },
    {
      "channel": 1,
      "note": 57,
      "start": 7.9889,
      "duration": 0.0016,
      "velocity": 94,
      "chip": "ym2612"
    },
    {
      "channel": 1,
      "note": 69,
      "start": 7.9906,
      "duration": 0.0049,
      "velocity": 107,
      "chip": "ym2612"
    },
    {
      "channel": 0,
      "note": 85,
      "start": 7.9945,
      "duration": 0.0032,
      "velocity": 101,
      "chip": "ym2612"
    },
    {
      "channel": 1,
      "note": 57,
      "start": 7.9956,
      "duration": 0.0229,
      "velocity": 107,
      "chip": "ym2612"
    },
    {
      "channel": 2,
      "note": 78,
      "start": 7.9967,
      "duration": 0.001,
      "velocity": 101,
      "chip": "ym2612"
    },
    {
      "channel": 3,
      "note": 85,
      "start": 7.9995,
      "duration": 0.0016,
      "velocity": 101,
      "chip": "ym2612"
    },
    {
      "channel": 4,
      "note": 78,
      "start": 8.0006,
      "duration": 0.0005,
      "velocity": 101,
      "chip": "ym2612"
    },
    {
      "channel": 0,
      "note": 73,
      "start": 8.0185,
      "duration": 0.0015,
      "velocity": 100,
      "chip": "ym2612"
    },
    {
      "channel": 1,
      "note": 69,
      "start": 8.0185,
      "duration": 0.0054,
      "velocity": 107,
      "chip": "ym2612"
    },
    {
      "channel": 2,
      "note": 66,
      "start": 8.0197,
      "duration": 0.0004,
      "velocity": 100,
      "chip": "ym2612"
    },
    {
      "channel": 3,
      "note": 73,
      "start": 8.0212,
      "duration": 0.001,
      "velocity": 100,
      "chip": "ym2612"
    },
    {
      "channel": 4,
      "note": 66,
      "start": 8.022,
      "duration": 0.0001,
      "velocity": 100,
      "chip": "ym2612"
    },
    {
      "channel": 0,
      "note": 82,
      "start": 8.0239,
      "duration": 0.0019,
      "velocity": 101,
      "chip": "ym2612"
    },
    {
      "channel": 1,
      "note": 66,
      "start": 8.0241,
      "duration": 0.0854,
      "velocity": 94,
      "chip": "ym2612"
    },
    {
      "channel": 2,
      "note": 75,
      "start": 8.0254,
      "duration": 0.0005,
      "velocity": 101,
      "chip": "ym2612"
    },
    {
      "channel": 3,
      "note": 82,
      "start": 8.0282,
      "duration": 0.0286,
      "velocity": 101,
      "chip": "ym2612"
    },
    {
      "channel": 4,
      "note": 75,
      "start": 8.0294,
      "duration": 0.0274,
      "velocity": 101,
      "chip": "ym2612"
    },
    {
      "channel": 0,
      "note": 70,
      "start": 8.1084,
      "duration": 0.0027,
      "velocity": 100,
      "chip": "ym2612"
    },
    {
      "channel": 1,
      "note": 57,
      "start": 8.1096,
      "duration": 0.0016,
      "velocity": 94,
      "chip": "ym2612"
    },
    {
      "channel": 2,
      "note": 63,
      "start": 8.1108,
      "duration": 0.0003,
      "velocity": 100,
      "chip": "ym2612"
    },
    {
      "channel": 1,
      "note": 69,
      "start": 8.1113,
      "duration": 0.0059,
      "velocity": 107,
      "chip": "ym2612"
    },
    {
      "channel": 3,
      "note": 70,
      "start": 8.1124,
      "duration": 0.0014,
      "velocity": 100,
      "chip": "ym2612"
    },
    {
      "channel": 4,
      "note": 63,
      "start": 8.1136,
      "duration": 0.0002,
      "velocity": 100,
      "chip": "ym2612"
    },
    {
      "channel": 0,
      "note": 83,
      "start": 8.1158,
      "duration": 0.0033,
      "velocity": 101,
      "chip": "ym2612"
    },
    {
      "channel": 1,
      "note": 68,
      "start": 8.1173,
      "duration": 0.0292,
      "velocity": 107,
      "chip": "ym2612"
    },
    {
      "channel": 2,
      "note": 76,
      "start": 8.1185,
      "duration": 0.0008,
      "velocity": 101,
      "chip": "ym2612"
    },
    {
      "channel": 3,
      "note": 83,
      "start": 8.1209,
      "duration": 0.0018,
      "velocity": 101,
      "chip": "ym2612"
    },
    {
      "channel": 4,
      "note": 76,
      "start": 8.1221,
      "duration": 0.0007,
      "velocity": 101,
      "chip": "ym2612"
    },
    {
      "channel": 0,
      "note": 71,
      "start": 8.1405,
      "duration": 0.0017,
      "velocity": 100,
      "chip": "ym2612"
    },
    {
      "channel": 2,
      "note": 64,
      "start": 8.1417,
      "duration": 0.0006,
      "velocity": 100,
      "chip": "ym2612"
    },
    {
      "channel": 3,
      "note": 71,
      "start": 8.1439,
      "duration": 0.004,
      "velocity": 100,
      "chip": "ym2612"
    },
    {
      "channel": 4,
      "note": 64,
      "start": 8.1449,
      "duration": 0.003,
      "velocity": 100,
      "chip": "ym2612"
    },
    {
      "channel": 0,
      "note": 80,
      "start": 8.1463,
      "duration": 0.0022,
      "velocity": 101,
      "chip": "ym2612"
    },
    {
      "channel": 1,
      "note": 65,
      "start": 8.1465,
      "duration": 0.0569,
      "velocity": 107,
      "chip": "ym2612"
    },
    {
      "channel": 2,
      "note": 73,
      "start": 8.1479,
      "duration": 0.0007,
      "velocity": 101,
      "chip": "ym2612"
    },
    {
      "channel": 0,
      "note": 68,
      "start": 8.1508,
      "duration": 0.0022,
      "velocity": 100,
      "chip": "ym2612"
    },
    {
      "channel": 2,
      "note": 61,
      "start": 8.1526,
      "duration": 0.0005,
      "velocity": 100,
      "chip": "ym2612"
    },
    {
      "channel": 3,
      "note": 80,
      "start": 8.1543,
      "duration": 0.002,
      "velocity": 101,
      "chip": "ym2612"
    },
    {
      "channel": 4,
      "note": 73,
      "start": 8.1555,
      "duration": 0.0008,
      "velocity": 101,
      "chip": "ym2612"
    },
    {
      "channel": 3,
      "note": 68,
      "start": 8.1586,
      "duration": 0.0118,
      "velocity": 100,
      "chip": "ym2612"
    },
    {
      "channel": 4,
      "note": 61,
      "start": 8.1596,
      "duration": 0.0109,
      "velocity": 100,
      "chip": "ym2612"
    },
    {
      "channel": 0,
      "note": 79,
      "start": 8.239,
      "duration": 0.0017,
      "velocity": 98,
      "chip": "ym2612"
    },
    {
      "channel": 1,
      "note": 65,
      "start": 8.2392,
      "duration": 0.0018,
      "velocity": 107,
      "chip": "ym2612"
    },
    {
      "channel": 2,
      "note": 72,
      "start": 8.2403,
      "duration": 0.0009,
      "velocity": 104,
      "chip": "ym2612"
    },
    {
      "channel": 0,
      "note": 80,
      "start": 8.2409,
      "duration": 0.0008,
      "velocity": 98,
      "chip": "ym2612"
    },
    {
      "channel": 1,
      "note": 66,
      "start": 8.2412,
      "duration": 0.0302,
      "velocity": 94,
      "chip": "ym2612"
    },
    {
      "channel": 2,
      "note": 73,
      "start": 8.2414,
      "duration": 0.0005,
      "velocity": 104,
      "chip": "ym2612"
    },
    {
      "channel": 0,
      "note": 81,
      "start": 8.2418,
      "duration": 0.1671,
      "velocity": 101,
      "chip": "ym2612"
    },
    {
      "channel": 2,
      "note": 74,
      "start": 8.242,
      "duration": 0.1693,
      "velocity": 101,
      "chip": "ym2612"
    },
    {
      "channel": 3,
      "note": 79,
      "start": 8.2437,
      "duration": 0.0014,
      "velocity": 98,
      "chip": "ym2612"
    },
    {
      "channel": 4,
      "note": 72,
      "start": 8.2447,
      "duration": 0.0005,
      "velocity": 104,
      "chip": "ym2612"
    },
    {
      "channel": 3,
      "note": 80,
      "start": 8.2452,
      "duration": 0.0005,
      "velocity": 98,
      "chip": "ym2612"
    },
    {
      "channel": 4,
      "note": 73,
      "start": 8.2453,
      "duration": 0.0007,
      "velocity": 104,
      "chip": "ym2612"
    },
    {
      "channel": 3,
      "note": 81,
      "start": 8.2459,
      "duration": 0.168,
      "velocity": 101,
      "chip": "ym2612"
    },
    {
      "channel": 4,
      "note": 74,
      "start": 8.246,
      "duration": 0.169,
      "velocity": 101,
      "chip": "ym2612"
    },
    {
      "channel": 1,
      "note": 66,
      "start": 8.2716,
      "duration": 0.0053,
      "velocity": 107,
      "chip": "ym2612"
    },
    {
      "channel": 1,
      "note": 62,
      "start": 8.277,
      "duration": 0.0838,
      "velocity": 94,
      "chip": "ym2612"
    },
    {
      "channel": 1,
      "note": 62,
      "start": 8.361,
      "duration": 0.0054,
      "velocity": 107,
      "chip": "ym2612"
    },
    {
      "channel": 1,
      "note": 64,
      "start": 8.3666,
      "duration": 0.0229,
      "velocity": 94,
      "chip": "ym2612"
    },
    {
      "channel": 1,
      "note": 64,
      "start": 8.3896,
      "duration": 0.0041,
      "velocity": 107,
      "chip": "ym2612"
    },
    {
      "channel": 1,
      "note": 57,
      "start": 8.3938,
      "duration": 0.0098,
      "velocity": 94,
      "chip": "ym2612"
    },
    {
      "channel": 1,
      "note": 57,
      "start": 8.4036,
      "duration": 0.002,
      "velocity": 94,
      "chip": "ym2612"
    },
    {
      "channel": 1,
      "note": 69,
      "start": 8.4057,
      "duration": 0.0043,
      "velocity": 107,
      "chip": "ym2612"
    },
    {
      "channel": 0,
      "note": 88,
      "start": 8.409,
      "duration": 0.0032,
      "velocity": 101,
      "chip": "ym2612"
    },
    {
      "channel": 1,
      "note": 60,
      "start": 8.4102,
      "duration": 0.0232,
      "velocity": 107,
      "chip": "ym2612"
    },
    {
      "channel": 2,
      "note": 81,
      "start": 8.4113,
      "duration": 0.0009,
      "velocity": 101,
      "chip": "ym2612"
    },
    {
      "channel": 3,
      "note": 88,
      "start": 8.414,
      "duration": 0.0017,
      "velocity": 101,
      "chip": "ym2612"
    },
    {
      "channel": 4,
      "note": 81,
      "start": 8.4152,
      "duration": 0.0005,
      "velocity": 101,
      "chip": "ym2612"
    },
    {
      "channel": 0,
      "note": 76,
      "start": 8.4333,
      "duration": 0.0015,
      "velocity": 100,
      "chip": "ym2612"
    },
    {
      "channel": 1,
      "note": 72,
      "start": 8.4333,
      "duration": 0.0054,
      "velocity": 107,
      "chip": "ym2612"
    },
    {
      "channel": 2,
      "note": 69,
      "start": 8.4345,
      "duration": 0.0004,
      "velocity": 100,
      "chip": "ym2612"
    },
    {
      "channel": 3,
      "note": 76,
      "start": 8.4359,
      "duration": 0.001,
      "velocity": 100,
      "chip": "ym2612"
    },
    {
      "channel": 4,
      "note": 69,
      "start": 8.4368,
      "duration": 0.0001,
      "velocity": 100,
      "chip": "ym2612"
    },
    {
      "channel": 0,
      "note": 85,
      "start": 8.4387,
      "duration": 0.0019,
      "velocity": 101,
      "chip": "ym2612"
    },
    {
      "channel": 1,
      "note": 69,
      "start": 8.4389,
      "duration": 0.0853,
      "velocity": 94,
      "chip": "ym2612"
    },
    {
      "channel": 2,
      "note": 78,
      "start": 8.4402,
      "duration": 0.0005,
      "velocity": 101,
      "chip": "ym2612"
    },
    {
      "channel": 3,
      "note": 85,
      "start": 8.4429,
      "duration": 0.0286,
      "velocity": 101,
      "chip": "ym2612"
    },
    {
      "channel": 4,
      "note": 78,
      "start": 8.4442,
      "duration": 0.0274,
      "velocity": 101,
      "chip": "ym2612"
    },
    {
      "channel": 0,
      "note": 73,
      "start": 8.5232,
      "duration": 0.0027,
      "velocity": 100,
      "chip": "ym2612"
    },
    {
      "channel": 1,
      "note": 60,
      "start": 8.5243,
      "duration": 0.0017,
      "velocity": 94,
      "chip": "ym2612"
    },
    {
      "channel": 2,
      "note": 66,
      "start": 8.5256,
      "duration": 0.0004,
      "velocity": 100,
      "chip": "ym2612"
    },
    {
      "channel": 1,
      "note": 72,
      "start": 8.5261,
      "duration": 0.0057,
      "velocity": 107,
      "chip": "ym2612"
    },
    {
      "channel": 3,
      "note": 73,
      "start": 8.5272,
      "duration": 0.0014,
      "velocity": 100,
      "chip": "ym2612"
    },
    {
      "channel": 4,
      "note": 66,
      "start": 8.5284,
      "duration": 0.0002,
      "velocity": 100,
      "chip": "ym2612"
    },
    {
      "channel": 0,
      "note": 86,
      "start": 8.5305,
      "duration": 0.0034,
      "velocity": 101,
      "chip": "ym2612"
    },
    {
      "channel": 1,
      "note": 71,
      "start": 8.5319,
      "duration": 0.0291,
      "velocity": 107,
      "chip": "ym2612"
    },
    {
      "channel": 2,
      "note": 79,
      "start": 8.5332,
      "duration": 0.0008,
      "velocity": 101,
      "chip": "ym2612"
    },
    {
      "channel": 3,
      "note": 86,
      "start": 8.5354,
      "duration": 0.0021,
      "velocity": 101,
      "chip": "ym2612"
    },
    {
      "channel": 4,
      "note": 79,
      "start": 8.5366,
      "duration": 0.001,
      "velocity": 101,
      "chip": "ym2612"
    },
    {
      "channel": 0,
      "note": 74,
      "start": 8.5553,
      "duration": 0.0017,
      "velocity": 100,
      "chip": "ym2612"
    },
    {
      "channel": 2,
      "note": 67,
      "start": 8.5564,
      "duration": 0.0006,
      "velocity": 100,
      "chip": "ym2612"
    },
    {
      "channel": 3,
      "note": 74,
      "start": 8.5585,
      "duration": 0.004,
      "velocity": 100,
      "chip": "ym2612"
    },
    {
      "channel": 4,
      "note": 67,
      "start": 8.5596,
      "duration": 0.003,
      "velocity": 100,
      "chip": "ym2612"
    },
    {
      "channel": 0,
      "note": 83,
      "start": 8.561,
      "duration": 0.0022,
      "velocity": 101,
      "chip": "ym2612"
    },
    {
      "channel": 1,
      "note": 68,
      "start": 8.5612,
      "duration": 0.057,
      "velocity": 107,
      "chip": "ym2612"
    },
    {
      "channel": 2,
      "note": 76,
      "start": 8.5625,
      "duration": 0.0007,
      "velocity": 101,
      "chip": "ym2612"
    },
    {
      "channel": 0,
      "note": 71,
      "start": 8.5655,
      "duration": 0.0022,
      "velocity": 100,
      "chip": "ym2612"
    },
    {
      "channel": 2,
      "note": 64,
      "start": 8.5672,
      "duration": 0.0005,
      "velocity": 100,
      "chip": "ym2612"
    },
    {
      "channel": 3,
      "note": 83,
      "start": 8.5689,
      "duration": 0.0018,
      "velocity": 101,
      "chip": "ym2612"
    },
    {
      "channel": 4,
      "note": 76,
      "start": 8.5701,
      "duration": 0.0007,
      "velocity": 101,
      "chip": "ym2612"
    },
    {
      "channel": 3,
      "note": 71,
      "start": 8.5731,
      "duration": 0.012,
      "velocity": 100,
      "chip": "ym2612"
    },
    {
      "channel": 4,
      "note": 64,
      "start": 8.5743,
      "duration": 0.0108,
      "velocity": 100,
      "chip": "ym2612"
    },
    {
      "channel": 0,
      "note": 82,
      "start": 8.6537,
      "duration": 0.0017,
      "velocity": 98,
      "chip": "ym2612"
    },
    {
      "channel": 1,
      "note": 68,
      "start": 8.6539,
      "duration": 0.0017,
      "velocity": 107,
      "chip": "ym2612"
    },
    {
      "channel": 2,
      "note": 75,
      "start": 8.655,
      "duration": 0.0006,
      "velocity": 104,
      "chip": "ym2612"
    },
    {
      "channel": 0,
      "note": 83,
      "start": 8.6555,
      "duration": 0.0005,
      "velocity": 98,
      "chip": "ym2612"
    },
    {
      "channel": 1,
      "note": 69,
      "start": 8.6556,
      "duration": 0.0301,
      "velocity": 94,
      "chip": "ym2612"
    },
    {
      "channel": 2,
      "note": 76,
      "start": 8.6557,
      "duration": 0.0004,
      "velocity": 104,
      "chip": "ym2612"
    },
    {
      "channel": 0,
      "note": 84,
      "start": 8.656,
      "duration": 0.1669,
      "velocity": 101,
      "chip": "ym2612"
    },
    {
      "channel": 2,
      "note": 77,
      "start": 8.6562,
      "duration": 0.1689,
      "velocity": 101,
      "chip": "ym2612"
    },
    {
      "channel": 3,
      "note": 82,
      "start": 8.658,
      "duration": 0.0016,
      "velocity": 98,
      "chip": "ym2612"
    },
    {
      "channel": 4,
      "note": 75,
      "start": 8.659,
      "duration": 0.0007,
      "velocity": 104,
      "chip": "ym2612"
    },
    {
      "channel": 3,
      "note": 83,
      "start": 8.6596,
      "duration": 0.0008,
      "velocity": 98,
      "chip": "ym2612"
    },
    {
      "channel": 4,
      "note": 76,
      "start": 8.6598,
      "duration": 0.0008,
      "velocity": 104,
      "chip": "ym2612"
    },
    {
      "channel": 3,
      "note": 84,
      "start": 8.6605,
      "duration": 0.1673,
      "velocity": 101,
      "chip": "ym2612"
    },
    {
      "channel": 4,
      "note": 77,
      "start": 8.6607,
      "duration": 0.1683,
      "velocity": 101,
      "chip": "ym2612"
    },
    {
      "channel": 1,
      "note": 69,
      "start": 8.6859,
      "duration": 0.0049,
      "velocity": 107,
      "chip": "ym2612"
    },
    {
      "channel": 1,
      "note": 65,
      "start": 8.691,
      "duration": 0.0835,
      "velocity": 94,
      "chip": "ym2612"
    },
    {
      "channel": 1,
      "note": 65,
      "start": 8.7747,
      "duration": 0.0052,
      "velocity": 107,
      "chip": "ym2612"
    },
    {
      "channel": 1,
      "note": 67,
      "start": 8.7801,
      "duration": 0.0225,
      "velocity": 94,
      "chip": "ym2612"
    },
    {
      "channel": 1,
      "note": 67,
      "start": 8.8028,
      "duration": 0.0037,
      "velocity": 107,
      "chip": "ym2612"
    },
    {
      "channel": 1,
      "note": 60,
      "start": 8.8067,
      "duration": 0.0111,
      "velocity": 94,
      "chip": "ym2612"
    },
    {
      "channel": 1,
      "note": 60,
      "start": 8.8179,
      "duration": 0.0017,
      "velocity": 94,
      "chip": "ym2612"
    },
    {
      "channel": 1,
      "note": 72,
      "start": 8.8197,
      "duration": 0.0043,
      "velocity": 107,
      "chip": "ym2612"
    },
    {
      "channel": 0,
      "note": 88,
      "start": 8.823,
      "duration": 0.0032,
      "velocity": 101,
      "chip": "ym2612"
    },
    {
      "channel": 1,
      "note": 60,
      "start": 8.824,
      "duration": 0.0232,
      "velocity": 107,
      "chip": "ym2612"
    },
    {
      "channel": 2,
      "note": 81,
      "start": 8.8252,
      "duration": 0.0009,
      "velocity": 101,
      "chip": "ym2612"
    },
    {
      "channel": 3,
      "note": 88,
      "start": 8.8279,
      "duration": 0.0017,
      "velocity": 101,
      "chip": "ym2612"
    },
    {
      "channel": 4,
      "note": 81,
      "start": 8.829,
      "duration": 0.0006,
      "velocity": 101,
      "chip": "ym2612"
    },
    {
      "channel": 0,
      "note": 76,
      "start": 8.8472,
      "duration": 0.0015,
      "velocity": 100,
      "chip": "ym2612"
    },
    {
      "channel": 1,
      "note": 72,
      "start": 8.8472,
      "duration": 0.0054,
      "velocity": 107,
      "chip": "ym2612"
    },
    {
      "channel": 2,
      "note": 69,
      "start": 8.8484,
      "duration": 0.0004,
      "velocity": 100,
      "chip": "ym2612"
    },
    {
      "channel": 3,
      "note": 76,
      "start": 8.8498,
      "duration": 0.001,
      "velocity": 100,
      "chip": "ym2612"
    },
    {
      "channel": 4,
      "note": 69,
      "start": 8.8507,
      "duration": 0.0001,
      "velocity": 100,
      "chip": "ym2612"
    },
    {
      "channel": 0,
      "note": 85,
      "start": 8.8526,
      "duration": 0.0019,
      "velocity": 101,
      "chip": "ym2612"
    },
    {
      "channel": 1,
      "note": 69,
      "start": 8.8528,
      "duration": 0.0854,
      "velocity": 94,
      "chip": "ym2612"
    },
    {
      "channel": 2,
      "note": 78,
      "start": 8.8541,
      "duration": 0.0005,
      "velocity": 101,
      "chip": "ym2612"
    },
    {
      "channel": 3,
      "note": 85,
      "start": 8.8568,
      "duration": 0.0286,
      "velocity": 101,
      "chip": "ym2612"
    },
    {
      "channel": 4,
      "note": 78,
      "start": 8.8581,
      "duration": 0.0274,
      "velocity": 101,
      "chip": "ym2612"
    },
    {
      "channel": 0,
      "note": 73,
      "start": 8.9371,
      "duration": 0.0027,
      "velocity": 100,
      "chip": "ym2612"
    },
    {
      "channel": 1,
      "note": 60,
      "start": 8.9383,
      "duration": 0.0016,
      "velocity": 94,
      "chip": "ym2612"
    },
    {
      "channel": 2,
      "note": 66,
      "start": 8.9395,
      "duration": 0.0003,
      "velocity": 100,
      "chip": "ym2612"
    },
    {
      "channel": 1,
      "note": 72,
      "start": 8.94,
      "duration": 0.0059,
      "velocity": 107,
      "chip": "ym2612"
    },
    {
      "channel": 3,
      "note": 73,
      "start": 8.9411,
      "duration": 0.0014,
      "velocity": 100,
      "chip": "ym2612"
    },
    {
      "channel": 4,
      "note": 66,
      "start": 8.9423,
      "duration": 0.0002,
      "velocity": 100,
      "chip": "ym2612"
    },
    {
      "channel": 0,
      "note": 86,
      "start": 8.9445,
      "duration": 0.0033,
      "velocity": 101,
      "chip": "ym2612"
    },
    {
      "channel": 1,
      "note": 71,
      "start": 8.9459,
      "duration": 0.0292,
      "velocity": 107,
      "chip": "ym2612"
    },
    {
      "channel": 2,
      "note": 79,
      "start": 8.9472,
      "duration": 0.0008,
      "velocity": 101,
      "chip": "ym2612"
    },
    {
      "channel": 3,
      "note": 86,
      "start": 8.9495,
      "duration": 0.0018,
      "velocity": 101,
      "chip": "ym2612"
    },
    {
      "channel": 4,
      "note": 79,
      "start": 8.9508,
      "duration": 0.0007,
      "velocity": 101,
      "chip": "ym2612"
    },
    {
      "channel": 0,
      "note": 74,
      "start": 8.9692,
      "duration": 0.0017,
      "velocity": 100,
      "chip": "ym2612"
    },
    {
      "channel": 2,
      "note": 67,
      "start": 8.9703,
      "duration": 0.0006,
      "velocity": 100,
      "chip": "ym2612"
    },
    {
      "channel": 3,
      "note": 74,
      "start": 8.9726,
      "duration": 0.004,
      "velocity": 100,
      "chip": "ym2612"
    },
    {
      "channel": 4,
      "note": 67,
      "start": 8.9736,
      "duration": 0.003,
      "velocity": 100,
      "chip": "ym2612"
    },
    {
      "channel": 0,
      "note": 83,
      "start": 8.975,
      "duration": 0.0022,
      "velocity": 101,
      "chip": "ym2612"
    },
    {
      "channel": 1,
      "note": 68,
      "start": 8.9752,
      "duration": 0.0569,
      "velocity": 107,
      "chip": "ym2612"
    },
    {
      "channel": 2,
      "note": 76,
      "start": 8.9766,
      "duration": 0.0007,
      "velocity": 101,
      "chip": "ym2612"
    },
    {
      "channel": 0,
      "note": 71,
      "start": 8.9795,
      "duration": 0.0022,
      "velocity": 100,
      "chip": "ym2612"
    },
    {
      "channel": 2,
      "note": 64,
      "start": 8.9812,
      "duration": 0.0005,
      "velocity": 100,
      "chip": "ym2612"
    },
    {
      "channel": 3,
      "note": 83,
      "start": 8.9829,
      "duration": 0.002,
      "velocity": 101,
      "chip": "ym2612"
    },
    {
      "channel": 4,
      "note": 76,
      "start": 8.9841,
      "duration": 0.0008,
      "velocity": 101,
      "chip": "ym2612"
    },
    {
      "channel": 3,
      "note": 71,
      "start": 8.9873,
      "duration": 0.0118,
      "velocity": 100,
      "chip": "ym2612"
    },
    {
      "channel": 4,
      "note": 64,
      "start": 8.9883,
      "duration": 0.0109,
      "velocity": 100,
      "chip": "ym2612"
    },
    {
      "channel": 0,
      "note": 82,
      "start": 9.0677,
      "duration": 0.0017,
      "velocity": 98,
      "chip": "ym2612"
    },
    {
      "channel": 1,
      "note": 68,
      "start": 9.0679,
      "duration": 0.0018,
      "velocity": 107,
      "chip": "ym2612"
    },
    {
      "channel": 2,
      "note": 75,
      "start": 9.069,
      "duration": 0.0009,
      "velocity": 104,
      "chip": "ym2612"
    },
    {
      "channel": 0,
      "note": 83,
      "start": 9.0696,
      "duration": 0.0008,
      "velocity": 98,
      "chip": "ym2612"
    },
    {
      "channel": 1,
      "note": 69,
      "start": 9.0699,
      "duration": 0.0305,
      "velocity": 94,
      "chip": "ym2612"
    },
    {
      "channel": 2,
      "note": 76,
      "start": 9.07,
      "duration": 0.0005,
      "velocity": 104,
      "chip": "ym2612"
    },
    {
      "channel": 0,
      "note": 84,
      "start": 9.0705,
      "duration": 0.1863,
      "velocity": 107,
      "chip": "ym2612"
    },
    {
      "channel": 2,
      "note": 77,
      "start": 9.0706,
      "duration": 0.1887,
      "velocity": 107,
      "chip": "ym2612"
    },
    {
      "channel": 3,
      "note": 82,
      "start": 9.0724,
      "duration": 0.0014,
      "velocity": 98,
      "chip": "ym2612"
    },
    {
      "channel": 4,
      "note": 75,
      "start": 9.0734,
      "duration": 0.0005,
      "velocity": 104,
      "chip": "ym2612"
    },
    {
      "channel": 3,
      "note": 83,
      "start": 9.0739,
      "duration": 0.0005,
      "velocity": 98,
      "chip": "ym2612"
    },
    {
      "channel": 4,
      "note": 76,
      "start": 9.0739,
      "duration": 0.0007,
      "velocity": 104,
      "chip": "ym2612"
    },
    {
      "channel": 3,
      "note": 84,
      "start": 9.0745,
      "duration": 0.186,
      "velocity": 107,
      "chip": "ym2612"
    },
    {
      "channel": 4,
      "note": 77,
      "start": 9.0747,
      "duration": 0.1862,
      "velocity": 104,
      "chip": "ym2612"
    },
    {
      "channel": 1,
      "note": 69,
      "start": 9.1006,
      "duration": 0.0054,
      "velocity": 107,
      "chip": "ym2612"
    },
    {
      "channel": 1,
      "note": 65,
      "start": 9.1061,
      "duration": 0.0837,
      "velocity": 94,
      "chip": "ym2612"
    },
    {
      "channel": 1,
      "note": 65,
      "start": 9.19,
      "duration": 0.0056,
      "velocity": 107,
      "chip": "ym2612"
    },
    {
      "channel": 1,
      "note": 67,
      "start": 9.1957,
      "duration": 0.0072,
      "velocity": 94,
      "chip": "ym2612"
    },
    {
      "channel": 1,
      "note": 67,
      "start": 9.2033,
      "duration": 0.0045,
      "velocity": 107,
      "chip": "ym2612"
    },
    {
      "channel": 1,
      "note": 60,
      "start": 9.2078,
      "duration": 0.0403,
      "velocity": 94,
      "chip": "ym2612"
    },
    {
      "channel": 1,
      "note": 60,
      "start": 9.2485,
      "duration": 0.0033,
      "velocity": 94,
      "chip": "ym2612"
    },
    {
      "channel": 1,
      "note": 72,
      "start": 9.252,
      "duration": 0.0062,
      "velocity": 110,
      "chip": "ym2612"
    },
    {
      "channel": 0,
      "note": 93,
      "start": 9.257,
      "duration": 0.011,
      "velocity": 50,
      "chip": "ym2612"
    },
    {
      "channel": 1,
      "note": 69,
      "start": 9.2583,
      "duration": 0.0038,
      "velocity": 110,
      "chip": "ym2612"
    },
    {
      "channel": 2,
      "note": 105,
      "start": 9.2595,
      "duration": 0.0028,
      "velocity": 107,
      "chip": "ym2612"
    },
    {
      "channel": 3,
      "note": 76,
      "start": 9.2607,
      "duration": 0.1815,
      "velocity": 107,
      "chip": "ym2612"
    },
    {
      "channel": 2,
      "note": 93,
      "start": 9.2626,
      "duration": 0.0055,
      "velocity": 107,
      "chip": "ym2612"
    },
    {
      "channel": 0,
      "note": 81,
      "start": 9.2681,
      "duration": 0.1738,
      "velocity": 50,
      "chip": "ym2612"
    },
    {
      "channel": 1,
      "note": 67,
      "start": 9.2681,
      "duration": 0.0783,
      "velocity": 110,
      "chip": "ym2612"
    },
    {
      "channel": 2,
      "note": 105,
      "start": 9.2683,
      "duration": 0.0782,
      "velocity": 107,
      "chip": "ym2612"
    },
    {
      "channel": 2,
      "note": 93,
      "start": 9.3468,
      "duration": 0.0793,
      "velocity": 107,
      "chip": "ym2612"
    },
    {
      "channel": 1,
      "note": 69,
      "start": 9.4261,
      "duration": 0.0044,
      "velocity": 110,
      "chip": "ym2612"
    },
    {
      "channel": 2,
      "note": 105,
      "start": 9.4265,
      "duration": 0.0042,
      "velocity": 107,
      "chip": "ym2612"
    },
    {
      "channel": 4,
      "note": 93,
      "start": 9.4282,
      "duration": 0.0083,
      "velocity": 50,
      "chip": "ym2612"
    },
    {
      "channel": 2,
      "note": 93,
      "start": 9.431,
      "duration": 0.0029,
      "velocity": 107,
      "chip": "ym2612"
    },
    {
      "channel": 1,
      "note": 57,
      "start": 9.4339,
      "duration": 0.0042,
      "velocity": 110,
      "chip": "ym2612"
    },
    {
      "channel": 2,
      "note": 105,
      "start": 9.4343,
      "duration": 0.0041,
      "velocity": 107,
      "chip": "ym2612"
    },
    {
      "channel": 4,
      "note": 81,
      "start": 9.4365,
      "duration": 0.1844,
      "velocity": 100,
      "chip": "ym2612"
    },
    {
      "channel": 1,
      "note": 69,
      "start": 9.4383,
      "duration": 0.0036,
      "velocity": 110,
      "chip": "ym2612"
    },
    {
      "channel": 2,
      "note": 93,
      "start": 9.4387,
      "duration": 0.0033,
      "velocity": 107,
      "chip": "ym2612"
    },
    {
      "channel": 0,
      "note": 81,
      "start": 9.4418,
      "duration": 0.0198,
      "velocity": 50,
      "chip": "ym2612"
    },
    {
      "channel": 2,
      "note": 105,
      "start": 9.442,
      "duration": 0.02,
      "velocity": 107,
      "chip": "ym2612"
    },
    {
      "channel": 3,
      "note": 76,
      "start": 9.4423,
      "duration": 0.0202,
      "velocity": 107,
      "chip": "ym2612"
    },
    {
      "channel": 0,
      "note": 81,
      "start": 9.4617,
      "duration": 0.004,
      "velocity": 50,
      "chip": "ym2612"
    },
    {
      "channel": 1,
      "note": 69,
      "start": 9.462,
      "duration": 0.0038,
      "velocity": 110,
      "chip": "ym2612"
    },
    {
      "channel": 2,
      "note": 93,
      "start": 9.4624,
      "duration": 0.0036,
      "velocity": 107,
      "chip": "ym2612"
    },
    {
      "channel": 3,
      "note": 76,
      "start": 9.4628,
      "duration": 0.004,
      "velocity": 107,
      "chip": "ym2612"
    },
    {
      "channel": 0,
      "note": 81,
      "start": 9.4657,
      "duration": 0.0037,
      "velocity": 50,
      "chip": "ym2612"
    },
    {
      "channel": 2,
      "note": 105,
      "start": 9.4663,
      "duration": 0.0034,
      "velocity": 107,
      "chip": "ym2612"
    },
    {
      "channel": 3,
      "note": 76,
      "start": 9.467,
      "duration": 0.0032,
      "velocity": 107,
      "chip": "ym2612"
    },
    {
      "channel": 0,
      "note": 81,
      "start": 9.4694,
      "duration": 0.0798,
      "velocity": 50,
      "chip": "ym2612"
    },
    {
      "channel": 1,
      "note": 67,
      "start": 9.4697,
      "duration": 0.0795,
      "velocity": 110,
      "chip": "ym2612"
    },
    {
      "channel": 2,
      "note": 93,
      "start": 9.47,
      "duration": 0.0795,
      "velocity": 107,
      "chip": "ym2612"
    },
    {
      "channel": 3,
      "note": 76,
      "start": 9.4704,
      "duration": 0.0798,
      "velocity": 107,
      "chip": "ym2612"
    },
    {
      "channel": 0,
      "note": 81,
      "start": 9.5492,
      "duration": 0.0032,
      "velocity": 50,
      "chip": "ym2612"
    },
    {
      "channel": 1,
      "note": 69,
      "start": 9.5495,
      "duration": 0.0024,
      "velocity": 110,
      "chip": "ym2612"
    },
    {
      "channel": 2,
      "note": 105,
      "start": 9.5499,
      "duration": 0.0025,
      "velocity": 107,
      "chip": "ym2612"
    },
    {
      "channel": 3,
      "note": 76,
      "start": 9.5503,
      "duration": 0.0022,
      "velocity": 107,
      "chip": "ym2612"
    },
    {
      "channel": 0,
      "note": 81,
      "start": 9.5523,
      "duration": 0.0021,
      "velocity": 50,
      "chip": "ym2612"
    },
    {
      "channel": 2,
      "note": 93,
      "start": 9.5524,
      "duration": 0.0024,
      "velocity": 107,
      "chip": "ym2612"
    },
    {
      "channel": 3,
      "note": 76,
      "start": 9.5526,
      "duration": 0.0031,
      "velocity": 107,
      "chip": "ym2612"
    },
    {
      "channel": 0,
      "note": 81,
      "start": 9.5545,
      "duration": 0.0036,
      "velocity": 50,
      "chip": "ym2612"
    },
    {
      "channel": 1,
      "note": 57,
      "start": 9.5548,
      "duration": 0.0033,
      "velocity": 110,
      "chip": "ym2612"
    },
    {
      "channel": 2,
      "note": 105,
      "start": 9.5552,
      "duration": 0.0033,
      "velocity": 107,
      "chip": "ym2612"
    },
    {
      "channel": 3,
      "note": 76,
      "start": 9.5557,
      "duration": 0.0032,
      "velocity": 107,
      "chip": "ym2612"
    },
    {
      "channel": 0,
      "note": 81,
      "start": 9.558,
      "duration": 0.0069,
      "velocity": 100,
      "chip": "ym2612"
    },
    {
      "channel": 1,
      "note": 57,
      "start": 9.5583,
      "duration": 0.008,
      "velocity": 110,
      "chip": "ym2612"
    },
    {
      "channel": 2,
      "note": 93,
      "start": 9.5587,
      "duration": 0.0078,
      "velocity": 107,
      "chip": "ym2612"
    },
    {
      "channel": 3,
      "note": 76,
      "start": 9.5591,
      "duration": 0.0086,
      "velocity": 96,
      "chip": "ym2612"
    },
    {
      "channel": 0,
      "note": 81,
      "start": 9.5652,
      "duration": 0.0254,
      "velocity": 100,
      "chip": "ym2612"
    },
    {
      "channel": 1,
      "note": 69,
      "start": 9.5664,
      "duration": 0.0032,
      "velocity": 110,
      "chip": "ym2612"
    },
    {
      "channel": 2,
      "note": 105,
      "start": 9.5666,
      "duration": 0.0031,
      "velocity": 107,
      "chip": "ym2612"
    },
    {
      "channel": 3,
      "note": 78,
      "start": 9.5679,
      "duration": 0.0222,
      "velocity": 96,
      "chip": "ym2612"
    },
    {
      "channel": 2,
      "note": 93,
      "start": 9.5699,
      "duration": 0.0176,
      "velocity": 107,
      "chip": "ym2612"
    },
    {
      "channel": 1,
      "note": 67,
      "start": 9.5874,
      "duration": 0.0024,
      "velocity": 110,
      "chip": "ym2612"
    },
    {
      "channel": 2,
      "note": 105,
      "start": 9.5878,
      "duration": 0.0021,
      "velocity": 107,
      "chip": "ym2612"
    },
    {
      "channel": 2,
      "note": 93,
      "start": 9.5901,
      "duration": 0.0285,
      "velocity": 107,
      "chip": "ym2612"
    },
    {
      "channel": 1,
      "note": 69,
      "start": 9.6185,
      "duration": 0.0035,
      "velocity": 110,
      "chip": "ym2612"
    },
    {
      "channel": 2,
      "note": 105,
      "start": 9.6189,
      "duration": 0.0032,
      "velocity": 107,
      "chip": "ym2612"
    },
    {
      "channel": 3,
      "note": 78,
      "start": 9.6193,
      "duration": 0.0077,
      "velocity": 96,
      "chip": "ym2612"
    },
    {
      "channel": 4,
      "note": 81,
      "start": 9.6209,
      "duration": 0.007,
      "velocity": 100,
      "chip": "ym2612"
    },
    {
      "channel": 2,
      "note": 93,
      "start": 9.6222,
      "duration": 0.0018,
      "velocity": 107,
      "chip": "ym2612"
    },
    {
      "channel": 1,
      "note": 57,
      "start": 9.624,
      "duration": 0.0024,
      "velocity": 110,
      "chip": "ym2612"
    },
    {
      "channel": 2,
      "note": 105,
      "start": 9.6244,
      "duration": 0.0023,
      "velocity": 107,
      "chip": "ym2612"
    },
    {
      "channel": 1,
      "note": 69,
      "start": 9.6266,
      "duration": 0.0029,
      "velocity": 110,
      "chip": "ym2612"
    },
    {
      "channel": 2,
      "note": 93,
      "start": 9.627,
      "duration": 0.0026,
      "velocity": 107,
      "chip": "ym2612"
    },
    {
      "channel": 0,
      "note": 88,
      "start": 9.6295,
      "duration": 0.0198,
      "velocity": 101,
      "chip": "ym2612"
    },
    {
      "channel": 2,
      "note": 105,
      "start": 9.6298,
      "duration": 0.0201,
      "velocity": 107,
      "chip": "ym2612"
    },
    {
      "channel": 3,
      "note": 78,
      "start": 9.6308,
      "duration": 0.0249,
      "velocity": 96,
      "chip": "ym2612"
    },
    {
      "channel": 0,
      "note": 79,
      "start": 9.6495,
      "duration": 0.0032,
      "velocity": 101,
      "chip": "ym2612"
    },
    {
      "channel": 1,
      "note": 69,
      "start": 9.6498,
      "duration": 0.0032,
      "velocity": 110,
      "chip": "ym2612"
    },
    {
      "channel": 2,
      "note": 93,
      "start": 9.6502,
      "duration": 0.003,
      "velocity": 107,
      "chip": "ym2612"
    },
    {
      "channel": 0,
      "note": 82,
      "start": 9.653,
      "duration": 0.0017,
      "velocity": 101,
      "chip": "ym2612"
    },
    {
      "channel": 2,
      "note": 105,
      "start": 9.6535,
      "duration": 0.002,
      "velocity": 107,
      "chip": "ym2612"
    },
    {
      "channel": 0,
      "note": 85,
      "start": 9.6549,
      "duration": 0.0012,
      "velocity": 101,
      "chip": "ym2612"
    },
    {
      "channel": 1,
      "note": 67,
      "start": 9.6555,
      "duration": 0.0197,
      "velocity": 110,
      "chip": "ym2612"
    },
    {
      "channel": 2,
      "note": 93,
      "start": 9.6556,
      "duration": 0.0198,
      "velocity": 107,
      "chip": "ym2612"
    },
    {
      "channel": 0,
      "note": 88,
      "start": 9.6561,
      "duration": 0.0186,
      "velocity": 101,
      "chip": "ym2612"
    },
    {
      "channel": 0,
      "note": 91,
      "start": 9.675,
      "duration": 0.0039,
      "velocity": 101,
      "chip": "ym2612"
    },
    {
      "channel": 1,
      "note": 69,
      "start": 9.6753,
      "duration": 0.0033,
      "velocity": 110,
      "chip": "ym2612"
    },
    {
      "channel": 2,
      "note": 105,
      "start": 9.6757,
      "duration": 0.0032,
      "velocity": 107,
      "chip": "ym2612"
    },
    {
      "channel": 3,
      "note": 78,
      "start": 9.6763,
      "duration": 0.0084,
      "velocity": 96,
      "chip": "ym2612"
    },
    {
      "channel": 4,
      "note": 88,
      "start": 9.6776,
      "duration": 0.0016,
      "velocity": 101,
      "chip": "ym2612"
    },
    {
      "channel": 2,
      "note": 93,
      "start": 9.679,
      "duration": 0.0028,
      "velocity": 107,
      "chip": "ym2612"
    },
    {
      "channel": 4,
      "note": 79,
      "start": 9.6794,
      "duration": 0.003,
      "velocity": 101,
      "chip": "ym2612"
    },
    {
      "channel": 1,
      "note": 57,
      "start": 9.6818,
      "duration": 0.0026,
      "velocity": 110,
      "chip": "ym2612"
    },
    {
      "channel": 2,
      "note": 105,
      "start": 9.6822,
      "duration": 0.0024,
      "velocity": 107,
      "chip": "ym2612"
    },
    {
      "channel": 4,
      "note": 82,
      "start": 9.6826,
      "duration": 0.0012,
      "velocity": 101,
      "chip": "ym2612"
    },
    {
      "channel": 4,
      "note": 85,
      "start": 9.6841,
      "duration": 0.001,
      "velocity": 101,
      "chip": "ym2612"
    },
    {
      "channel": 1,
      "note": 57,
      "start": 9.6845,
      "duration": 0.0319,
      "velocity": 110,
      "chip": "ym2612"
    },
    {
      "channel": 2,
      "note": 93,
      "start": 9.6847,
      "duration": 0.0318,
      "velocity": 107,
      "chip": "ym2612"
    },
    {
      "channel": 4,
      "note": 88,
      "start": 9.6852,
      "duration": 0.0326,
      "velocity": 101,
      "chip": "ym2612"
    },
    {
      "channel": 0,
      "note": 91,
      "start": 9.7151,
      "duration": 0.0096,
      "velocity": 50,
      "chip": "ym2612"
    },
    {
      "channel": 1,
      "note": 69,
      "start": 9.7164,
      "duration": 0.0032,
      "velocity": 110,
      "chip": "ym2612"
    },
    {
      "channel": 2,
      "note": 105,
      "start": 9.7166,
      "duration": 0.0032,
      "velocity": 107,
      "chip": "ym2612"
    },
    {
      "channel": 3,
      "note": 76,
      "start": 9.7178,
      "duration": 0.1815,
      "velocity": 107,
      "chip": "ym2612"
    },
    {
      "channel": 4,
      "note": 91,
      "start": 9.718,
      "duration": 0.0023,
      "velocity": 101,
      "chip": "ym2612"
    },
    {
      "channel": 2,
      "note": 93,
      "start": 9.7201,
      "duration": 0.0049,
      "velocity": 107,
      "chip": "ym2612"
    },
    {
      "channel": 0,
      "note": 79,
      "start": 9.7247,
      "duration": 0.1742,
      "velocity": 50,
      "chip": "ym2612"
    },
    {
      "channel": 1,
      "note": 67,
      "start": 9.7249,
      "duration": 0.0782,
      "velocity": 110,
      "chip": "ym2612"
    },
    {
      "channel": 2,
      "note": 105,
      "start": 9.7251,
      "duration": 0.0782,
      "velocity": 107,
      "chip": "ym2612"
    },
    {
      "channel": 2,
      "note": 93,
      "start": 9.8036,
      "duration": 0.0793,
      "velocity": 107,
      "chip": "ym2612"
    },
    {
      "channel": 1,
      "note": 69,
      "start": 9.8828,
      "duration": 0.0048,
      "velocity": 110,
      "chip": "ym2612"
    },
    {
      "channel": 2,
      "note": 105,
      "start": 9.8832,
      "duration": 0.0046,
      "velocity": 107,
      "chip": "ym2612"
    },
    {
      "channel": 4,
      "note": 91,
      "start": 9.8849,
      "duration": 0.0087,
      "velocity": 50,
      "chip": "ym2612"
    },
    {
      "channel": 2,
      "note": 93,
      "start": 9.8881,
      "duration": 0.0028,
      "velocity": 107,
      "chip": "ym2612"
    },
    {
      "channel": 1,
      "note": 57,
      "start": 9.8909,
      "duration": 0.0042,
      "velocity": 110,
      "chip": "ym2612"
    },
    {
      "channel": 2,
      "note": 105,
      "start": 9.8913,
      "duration": 0.0041,
      "velocity": 107,
      "chip": "ym2612"
    },
    {
      "channel": 4,
      "note": 79,
      "start": 9.8935,
      "duration": 0.1851,
      "velocity": 100,
      "chip": "ym2612"
    },
    {
      "channel": 1,
      "note": 69,
      "start": 9.8953,
      "duration": 0.0036,
      "velocity": 110,
      "chip": "ym2612"
    },
    {
      "channel": 2,
      "note": 93,
      "start": 9.8957,
      "duration": 0.0033,
      "velocity": 107,
      "chip": "ym2612"
    },
    {
      "channel": 0,
      "note": 79,
      "start": 9.8988,
      "duration": 0.0198,
      "velocity": 50,
      "chip": "ym2612"
    },
    {
      "channel": 2,
      "note": 105,
      "start": 9.899,
      "duration": 0.02,
      "velocity": 107,
      "chip": "ym2612"
    },
    {
      "channel": 3,
      "note": 76,
      "start": 9.8993,
      "duration": 0.0202,
      "velocity": 107,
      "chip": "ym2612"
    },
    {
      "channel": 0,
      "note": 79,
      "start": 9.9187,
      "duration": 0.004,
      "velocity": 50,
      "chip": "ym2612"
    },
    {
      "channel": 1,
      "note": 69,
      "start": 9.919,
      "duration": 0.0038,
      "velocity": 110,
      "chip": "ym2612"
    },
    {
      "channel": 2,
      "note": 93,
      "start": 9.9194,
      "duration": 0.0036,
      "velocity": 107,
      "chip": "ym2612"
    },
    {
      "channel": 3,
      "note": 76,
      "start": 9.9198,
      "duration": 0.004,
      "velocity": 107,
      "chip": "ym2612"
    },
    {
      "channel": 0,
      "note": 79,
      "start": 9.9227,
      "duration": 0.0037,
      "velocity": 50,
      "chip": "ym2612"
    },
    {
      "channel": 2,
      "note": 105,
      "start": 9.9233,
      "duration": 0.0034,
      "velocity": 107,
      "chip": "ym2612"
    },
    {
      "channel": 3,
      "note": 76,
      "start": 9.924,
      "duration": 0.0032,
      "velocity": 107,
      "chip": "ym2612"
    },
    {
      "channel": 0,
      "note": 79,
      "start": 9.9264,
      "duration": 0.0798,
      "velocity": 50,
      "chip": "ym2612"
    },
    {
      "channel": 1,
      "note": 67,
      "start": 9.9267,
      "duration": 0.0795,
      "velocity": 110,
      "chip": "ym2612"
    },
    {
      "channel": 2,
      "note": 93,
      "start": 9.9271,
      "duration": 0.0795,
      "velocity": 107,
      "chip": "ym2612"
    },
    {
      "channel": 3,
      "note": 76,
      "start": 9.9274,
      "duration": 0.0798,
      "velocity": 107,
      "chip": "ym2612"
    },
    {
      "channel": 0,
      "note": 79,
      "start": 10.0062,
      "duration": 0.0032,
      "velocity": 50,
      "chip": "ym2612"
    },
    {
      "channel": 1,
      "note": 69,
      "start": 10.0065,
      "duration": 0.0024,
      "velocity": 110,
      "chip": "ym2612"
    },
    {
      "channel": 2,
      "note": 105,
      "start": 10.0069,
      "duration": 0.0025,
      "velocity": 107,
      "chip": "ym2612"
    },
    {
      "channel": 3,
      "note": 76,
      "start": 10.0073,
      "duration": 0.0022,
      "velocity": 107,
      "chip": "ym2612"
    },
    {
      "channel": 0,
      "note": 79,
      "start": 10.0093,
      "duration": 0.0021,
      "velocity": 50,
      "chip": "ym2612"
    },
    {
      "channel": 2,
      "note": 93,
      "start": 10.0094,
      "duration": 0.0024,
      "velocity": 107,
      "chip": "ym2612"
    },
    {
      "channel": 3,
      "note": 76,
      "start": 10.0096,
      "duration": 0.0031,
      "velocity": 107,
      "chip": "ym2612"
    },
    {
      "channel": 0,
      "note": 79,
      "start": 10.0115,
      "duration": 0.0036,
      "velocity": 50,
      "chip": "ym2612"
    },
    {
      "channel": 1,
      "note": 57,
      "start": 10.0118,
      "duration": 0.0033,
      "velocity": 110,
      "chip": "ym2612"
    },
    {
      "channel": 2,
      "note": 105,
      "start": 10.0122,
      "duration": 0.0033,
      "velocity": 107,
      "chip": "ym2612"
    },
    {
      "channel": 3,
      "note": 76,
      "start": 10.0127,
      "duration": 0.0032,
      "velocity": 107,
      "chip": "ym2612"
    },
    {
      "channel": 0,
      "note": 79,
      "start": 10.0151,
      "duration": 0.007,
      "velocity": 100,
      "chip": "ym2612"
    },
    {
      "channel": 1,
      "note": 57,
      "start": 10.0153,
      "duration": 0.0079,
      "velocity": 110,
      "chip": "ym2612"
    },
    {
      "channel": 2,
      "note": 93,
      "start": 10.0157,
      "duration": 0.0077,
      "velocity": 107,
      "chip": "ym2612"
    },
    {
      "channel": 3,
      "note": 76,
      "start": 10.0161,
      "duration": 0.0087,
      "velocity": 96,
      "chip": "ym2612"
    },
    {
      "channel": 0,
      "note": 81,
      "start": 10.0223,
      "duration": 0.0266,
      "velocity": 101,
      "chip": "ym2612"
    },
    {
      "channel": 1,
      "note": 69,
      "start": 10.0234,
      "duration": 0.0033,
      "velocity": 110,
      "chip": "ym2612"
    },
    {
      "channel": 2,
      "note": 105,
      "start": 10.0236,
      "duration": 0.0031,
      "velocity": 107,
      "chip": "ym2612"
    },
    {
      "channel": 3,
      "note": 78,
      "start": 10.0249,
      "duration": 0.0223,
      "velocity": 96,
      "chip": "ym2612"
    },
    {
      "channel": 2,
      "note": 93,
      "start": 10.0268,
      "duration": 0.0177,
      "velocity": 107,
      "chip": "ym2612"
    },
    {
      "channel": 1,
      "note": 67,
      "start": 10.0445,
      "duration": 0.0024,
      "velocity": 110,
      "chip": "ym2612"
    },
    {
      "channel": 2,
      "note": 105,
      "start": 10.0449,
      "duration": 0.0021,
      "velocity": 107,
      "chip": "ym2612"
    },
    {
      "channel": 2,
      "note": 93,
      "start": 10.0471,
      "duration": 0.0295,
      "velocity": 107,
      "chip": "ym2612"
    },
    {
      "channel": 0,
      "note": 91,
      "start": 10.049,
      "duration": 0.0271,
      "velocity": 101,
      "chip": "ym2612"
    },
    {
      "channel": 0,
      "note": 88,
      "start": 10.0764,
      "duration": 0.0032,
      "velocity": 101,
      "chip": "ym2612"
    },
    {
      "channel": 1,
      "note": 69,
      "start": 10.0766,
      "duration": 0.0038,
      "velocity": 110,
      "chip": "ym2612"
    },
    {
      "channel": 2,
      "note": 105,
      "start": 10.077,
      "duration": 0.0034,
      "velocity": 107,
      "chip": "ym2612"
    },
    {
      "channel": 3,
      "note": 78,
      "start": 10.0775,
      "duration": 0.0084,
      "velocity": 96,
      "chip": "ym2612"
    },
    {
      "channel": 4,
      "note": 81,
      "start": 10.0787,
      "duration": 0.0092,
      "velocity": 101,
      "chip": "ym2612"
    },
    {
      "channel": 0,
      "note": 85,
      "start": 10.0797,
      "duration": 0.0015,
      "velocity": 101,
      "chip": "ym2612"
    },
    {
      "channel": 2,
      "note": 93,
      "start": 10.0807,
      "duration": 0.0022,
      "velocity": 107,
      "chip": "ym2612"
    },
    {
      "channel": 0,
      "note": 81,
      "start": 10.0814,
      "duration": 0.0298,
      "velocity": 101,
      "chip": "ym2612"
    },
    {
      "channel": 1,
      "note": 57,
      "start": 10.0827,
      "duration": 0.0025,
      "velocity": 110,
      "chip": "ym2612"
    },
    {
      "channel": 2,
      "note": 105,
      "start": 10.0831,
      "duration": 0.0024,
      "velocity": 107,
      "chip": "ym2612"
    },
    {
      "channel": 1,
      "note": 69,
      "start": 10.0855,
      "duration": 0.0033,
      "velocity": 110,
      "chip": "ym2612"
    },
    {
      "channel": 2,
      "note": 93,
      "start": 10.0859,
      "duration": 0.0029,
      "velocity": 107,
      "chip": "ym2612"
    },
    {
      "channel": 4,
      "note": 91,
      "start": 10.088,
      "duration": 0.002,
      "velocity": 101,
      "chip": "ym2612"
    },
    {
      "channel": 2,
      "note": 105,
      "start": 10.0889,
      "duration": 0.0198,
      "velocity": 107,
      "chip": "ym2612"
    },
    {
      "channel": 3,
      "note": 78,
      "start": 10.09,
      "duration": 0.0251,
      "velocity": 96,
      "chip": "ym2612"
    },
    {
      "channel": 4,
      "note": 88,
      "start": 10.0901,
      "duration": 0.0014,
      "velocity": 101,
      "chip": "ym2612"
    },
    {
      "channel": 4,
      "note": 85,
      "start": 10.0916,
      "duration": 0.0198,
      "velocity": 101,
      "chip": "ym2612"
    },
    {
      "channel": 1,
      "note": 69,
      "start": 10.1087,
      "duration": 0.0038,
      "velocity": 110,
      "chip": "ym2612"
    },
    {
      "channel": 2,
      "note": 93,
      "start": 10.1091,
      "duration": 0.0035,
      "velocity": 107,
      "chip": "ym2612"
    },
    {
      "channel": 0,
      "note": 81,
      "start": 10.1112,
      "duration": 0.0315,
      "velocity": 101,
      "chip": "ym2612"
    },
    {
      "channel": 4,
      "note": 81,
      "start": 10.1115,
      "duration": 0.0267,
      "velocity": 101,
      "chip": "ym2612"
    },
    {
      "channel": 2,
      "note": 105,
      "start": 10.1129,
      "duration": 0.002,
      "velocity": 107,
      "chip": "ym2612"
    },
    {
      "channel": 1,
      "note": 67,
      "start": 10.1149,
      "duration": 0.0192,
      "velocity": 110,
      "chip": "ym2612"
    },
    {
      "channel": 2,
      "note": 93,
      "start": 10.1151,
      "duration": 0.0193,
      "velocity": 107,
      "chip": "ym2612"
    },
    {
      "channel": 1,
      "note": 69,
      "start": 10.1343,
      "duration": 0.0026,
      "velocity": 110,
      "chip": "ym2612"
    },
    {
      "channel": 2,
      "note": 105,
      "start": 10.1347,
      "duration": 0.0025,
      "velocity": 107,
      "chip": "ym2612"
    },
    {
      "channel": 3,
      "note": 78,
      "start": 10.1354,
      "duration": 0.0081,
      "velocity": 96,
      "chip": "ym2612"
    },
    {
      "channel": 2,
      "note": 93,
      "start": 10.1375,
      "duration": 0.0034,
      "velocity": 107,
      "chip": "ym2612"
    },
    {
      "channel": 4,
      "note": 81,
      "start": 10.1382,
      "duration": 0.0906,
      "velocity": 101,
      "chip": "ym2612"
    },
    {
      "channel": 1,
      "note": 57,
      "start": 10.1408,
      "duration": 0.0023,
      "velocity": 110,
      "chip": "ym2612"
    },
    {
      "channel": 2,
      "note": 105,
      "start": 10.1412,
      "duration": 0.002,
      "velocity": 107,
      "chip": "ym2612"
    },
    {
      "channel": 0,
      "note": 81,
      "start": 10.1427,
      "duration": 0.0309,
      "velocity": 107,
      "chip": "ym2612"
    },
    {
      "channel": 1,
      "note": 57,
      "start": 10.1432,
      "duration": 0.032,
      "velocity": 110,
      "chip": "ym2612"
    },
    {
      "channel": 2,
      "note": 93,
      "start": 10.1434,
      "duration": 0.0319,
      "velocity": 107,
      "chip": "ym2612"
    },
    {
      "channel": 0,
      "note": 90,
      "start": 10.1738,
      "duration": 0.0095,
      "velocity": 50,
      "chip": "ym2612"
    },
    {
      "channel": 1,
      "note": 69,
      "start": 10.1752,
      "duration": 0.0032,
      "velocity": 110,
      "chip": "ym2612"
    },
    {
      "channel": 2,
      "note": 105,
      "start": 10.1755,
      "duration": 0.003,
      "velocity": 107,
      "chip": "ym2612"
    },
    {
      "channel": 3,
      "note": 76,
      "start": 10.1766,
      "duration": 0.1813,
      "velocity": 107,
      "chip": "ym2612"
    },
    {
      "channel": 2,
      "note": 93,
      "start": 10.1788,
      "duration": 0.0046,
      "velocity": 107,
      "chip": "ym2612"
    },
    {
      "channel": 0,
      "note": 78,
      "start": 10.1834,
      "duration": 0.1741,
      "velocity": 50,
      "chip": "ym2612"
    },
    {
      "channel": 1,
      "note": 67,
      "start": 10.1834,
      "duration": 0.0784,
      "velocity": 110,
      "chip": "ym2612"
    },
    {
      "channel": 2,
      "note": 105,
      "start": 10.1836,
      "duration": 0.0783,
      "velocity": 107,
      "chip": "ym2612"
    },
    {
      "channel": 4,
      "note": 81,
      "start": 10.2288,
      "duration": 0.1146,
      "velocity": 107,
      "chip": "ym2612"
    },
    {
      "channel": 2,
      "note": 93,
      "start": 10.2622,
      "duration": 0.0793,
      "velocity": 107,
      "chip": "ym2612"
    },
    {
      "channel": 1,
      "note": 69,
      "start": 10.3415,
      "duration": 0.0048,
      "velocity": 110,
      "chip": "ym2612"
    },
    {
      "channel": 2,
      "note": 105,
      "start": 10.3419,
      "duration": 0.0046,
      "velocity": 107,
      "chip": "ym2612"
    },
    {
      "channel": 4,
      "note": 90,
      "start": 10.3435,
      "duration": 0.0087,
      "velocity": 50,
      "chip": "ym2612"
    },
    {
      "channel": 2,
      "note": 93,
      "start": 10.3468,
      "duration": 0.0028,
      "velocity": 107,
      "chip": "ym2612"
    },
    {
      "channel": 1,
      "note": 57,
      "start": 10.3495,
      "duration": 0.0042,
      "velocity": 110,
      "chip": "ym2612"
    },
    {
      "channel": 2,
      "note": 105,
      "start": 10.3499,
      "duration": 0.0041,
      "velocity": 107,
      "chip": "ym2612"
    },
    {
      "channel": 4,
      "note": 78,
      "start": 10.3522,
      "duration": 0.1847,
      "velocity": 100,
      "chip": "ym2612"
    },
    {
      "channel": 1,
      "note": 69,
      "start": 10.3539,
      "duration": 0.0036,
      "velocity": 110,
      "chip": "ym2612"
    },
    {
      "channel": 2,
      "note": 93,
      "start": 10.3543,
      "duration": 0.0033,
      "velocity": 107,
      "chip": "ym2612"
    },
    {
      "channel": 0,
      "note": 78,
      "start": 10.3575,
      "duration": 0.0198,
      "velocity": 50,
      "chip": "ym2612"
    },
    {
      "channel": 2,
      "note": 105,
      "start": 10.3577,
      "duration": 0.02,
      "velocity": 107,
      "chip": "ym2612"
    },
    {
      "channel": 3,
      "note": 76,
      "start": 10.3579,
      "duration": 0.0206,
      "velocity": 107,
      "chip": "ym2612"
    },
    {
      "channel": 0,
      "note": 78,
      "start": 10.3773,
      "duration": 0.0039,
      "velocity": 50,
      "chip": "ym2612"
    },
    {
      "channel": 1,
      "note": 69,
      "start": 10.3776,
      "duration": 0.0037,
      "velocity": 110,
      "chip": "ym2612"
    },
    {
      "channel": 2,
      "note": 93,
      "start": 10.378,
      "duration": 0.0034,
      "velocity": 107,
      "chip": "ym2612"
    },
    {
      "channel": 3,
      "note": 76,
      "start": 10.3785,
      "duration": 0.0039,
      "velocity": 107,
      "chip": "ym2612"
    },
    {
      "channel": 0,
      "note": 78,
      "start": 10.3812,
      "duration": 0.0038,
      "velocity": 50,
      "chip": "ym2612"
    },
    {
      "channel": 2,
      "note": 105,
      "start": 10.3818,
      "duration": 0.0036,
      "velocity": 107,
      "chip": "ym2612"
    },
    {
      "channel": 3,
      "note": 76,
      "start": 10.3825,
      "duration": 0.0036,
      "velocity": 107,
      "chip": "ym2612"
    },
    {
      "channel": 0,
      "note": 78,
      "start": 10.385,
      "duration": 0.0797,
      "velocity": 50,
      "chip": "ym2612"
    },
    {
      "channel": 1,
      "note": 67,
      "start": 10.3853,
      "duration": 0.0794,
      "velocity": 110,
      "chip": "ym2612"
    },
    {
      "channel": 2,
      "note": 93,
      "start": 10.3857,
      "duration": 0.0793,
      "velocity": 107,
      "chip": "ym2612"
    },
    {
      "channel": 3,
      "note": 76,
      "start": 10.3861,
      "duration": 0.0796,
      "velocity": 107,
      "chip": "ym2612"
    },
    {
      "channel": 0,
      "note": 78,
      "start": 10.4647,
      "duration": 0.0031,
      "velocity": 50,
      "chip": "ym2612"
    },
    {
      "channel": 1,
      "note": 69,
      "start": 10.465,
      "duration": 0.0024,
      "velocity": 110,
      "chip": "ym2612"
    },
    {
      "channel": 2,
      "note": 105,
      "start": 10.4654,
      "duration": 0.0024,
      "velocity": 107,
      "chip": "ym2612"
    },
    {
      "channel": 3,
      "note": 76,
      "start": 10.4658,
      "duration": 0.0023,
      "velocity": 107,
      "chip": "ym2612"
    },
    {
      "channel": 0,
      "note": 78,
      "start": 10.4677,
      "duration": 0.0027,
      "velocity": 50,
      "chip": "ym2612"
    },
    {
      "channel": 2,
      "note": 93,
      "start": 10.468,
      "duration": 0.0028,
      "velocity": 107,
      "chip": "ym2612"
    },
    {
      "channel": 3,
      "note": 76,
      "start": 10.4681,
      "duration": 0.0034,
      "velocity": 107,
      "chip": "ym2612"
    },
    {
      "channel": 0,
      "note": 78,
      "start": 10.4704,
      "duration": 0.0037,
      "velocity": 50,
      "chip": "ym2612"
    },
    {
      "channel": 1,
      "note": 57,
      "start": 10.4707,
      "duration": 0.0035,
      "velocity": 110,
      "chip": "ym2612"
    },
    {
      "channel": 2,
      "note": 105,
      "start": 10.4711,
      "duration": 0.0034,
      "velocity": 107,
      "chip": "ym2612"
    },
    {
      "channel": 3,
      "note": 76,
      "start": 10.4717,
      "duration": 0.0036,
      "velocity": 107,
      "chip": "ym2612"
    },
    {
      "channel": 0,
      "note": 78,
      "start": 10.4741,
      "duration": 0.0068,
      "velocity": 100,
      "chip": "ym2612"
    },
    {
      "channel": 1,
      "note": 57,
      "start": 10.4745,
      "duration": 0.0077,
      "velocity": 110,
      "chip": "ym2612"
    },
    {
      "channel": 2,
      "note": 93,
      "start": 10.4749,
      "duration": 0.0075,
      "velocity": 107,
      "chip": "ym2612"
    },
    {
      "channel": 3,
      "note": 76,
      "start": 10.4752,
      "duration": 0.0085,
      "velocity": 96,
      "chip": "ym2612"
    },
    {
      "channel": 0,
      "note": 81,
      "start": 10.4812,
      "duration": 0.0254,
      "velocity": 100,
      "chip": "ym2612"
    },
    {
      "channel": 1,
      "note": 69,
      "start": 10.4823,
      "duration": 0.0032,
      "velocity": 110,
      "chip": "ym2612"
    },
    {
      "channel": 2,
      "note": 105,
      "start": 10.4825,
      "duration": 0.003,
      "velocity": 107,
      "chip": "ym2612"
    },
    {
      "channel": 3,
      "note": 78,
      "start": 10.4839,
      "duration": 0.0223,
      "velocity": 96,
      "chip": "ym2612"
    },
    {
      "channel": 2,
      "note": 93,
      "start": 10.4858,
      "duration": 0.0176,
      "velocity": 107,
      "chip": "ym2612"
    },
    {
      "channel": 1,
      "note": 67,
      "start": 10.5034,
      "duration": 0.0024,
      "velocity": 110,
      "chip": "ym2612"
    },
    {
      "channel": 2,
      "note": 105,
      "start": 10.5038,
      "duration": 0.0021,
      "velocity": 107,
      "chip": "ym2612"
    },
    {
      "channel": 2,
      "note": 93,
      "start": 10.5061,
      "duration": 0.0285,
      "velocity": 107,
      "chip": "ym2612"
    },
    {
      "channel": 1,
      "note": 69,
      "start": 10.5345,
      "duration": 0.0035,
      "velocity": 110,
      "chip": "ym2612"
    },
    {
      "channel": 2,
      "note": 105,
      "start": 10.5349,
      "duration": 0.0031,
      "velocity": 107,
      "chip": "ym2612"
    },
    {
      "channel": 3,
      "note": 78,
      "start": 10.5353,
      "duration": 0.0094,
      "velocity": 96,
      "chip": "ym2612"
    },
    {
      "channel": 4,
      "note": 81,
      "start": 10.5369,
      "duration": 0.0098,
      "velocity": 100,
      "chip": "ym2612"
    },
    {
      "channel": 2,
      "note": 93,
      "start": 10.538,
      "duration": 0.004,
      "velocity": 107,
      "chip": "ym2612"
    },
    {
      "channel": 0,
      "note": 73,
      "start": 10.5417,
      "duration": 0.0022,
      "velocity": 101,
      "chip": "ym2612"
    },
    {
      "channel": 1,
      "note": 57,
      "start": 10.542,
      "duration": 0.0022,
      "velocity": 110,
      "chip": "ym2612"
    },
    {
      "channel": 2,
      "note": 105,
      "start": 10.5422,
      "duration": 0.0022,
      "velocity": 107,
      "chip": "ym2612"
    },
    {
      "channel": 0,
      "note": 74,
      "start": 10.544,
      "duration": 0.0031,
      "velocity": 101,
      "chip": "ym2612"
    },
    {
      "channel": 1,
      "note": 69,
      "start": 10.5443,
      "duration": 0.003,
      "velocity": 110,
      "chip": "ym2612"
    },
    {
      "channel": 2,
      "note": 93,
      "start": 10.5447,
      "duration": 0.0027,
      "velocity": 107,
      "chip": "ym2612"
    },
    {
      "channel": 0,
      "note": 76,
      "start": 10.5473,
      "duration": 0.0202,
      "velocity": 101,
      "chip": "ym2612"
    },
    {
      "channel": 2,
      "note": 105,
      "start": 10.5476,
      "duration": 0.0205,
      "velocity": 107,
      "chip": "ym2612"
    },
    {
      "channel": 3,
      "note": 78,
      "start": 10.5488,
      "duration": 0.0272,
      "velocity": 96,
      "chip": "ym2612"
    },
    {
      "channel": 0,
      "note": 78,
      "start": 10.5678,
      "duration": 0.0032,
      "velocity": 101,
      "chip": "ym2612"
    },
    {
      "channel": 1,
      "note": 69,
      "start": 10.5681,
      "duration": 0.0032,
      "velocity": 110,
      "chip": "ym2612"
    },
    {
      "channel": 2,
      "note": 93,
      "start": 10.5685,
      "duration": 0.003,
      "velocity": 107,
      "chip": "ym2612"
    },
    {
      "channel": 0,
      "note": 79,
      "start": 10.5712,
      "duration": 0.0043,
      "velocity": 101,
      "chip": "ym2612"
    },
    {
      "channel": 2,
      "note": 105,
      "start": 10.5717,
      "duration": 0.0042,
      "velocity": 107,
      "chip": "ym2612"
    },
    {
      "channel": 4,
      "note": 73,
      "start": 10.5737,
      "duration": 0.0024,
      "velocity": 101,
      "chip": "ym2612"
    },
    {
      "channel": 0,
      "note": 81,
      "start": 10.5757,
      "duration": 0.0187,
      "velocity": 101,
      "chip": "ym2612"
    },
    {
      "channel": 1,
      "note": 67,
      "start": 10.5759,
      "duration": 0.019,
      "velocity": 110,
      "chip": "ym2612"
    },
    {
      "channel": 2,
      "note": 93,
      "start": 10.576,
      "duration": 0.0191,
      "velocity": 107,
      "chip": "ym2612"
    },
    {
      "channel": 4,
      "note": 74,
      "start": 10.5763,
      "duration": 0.0197,
      "velocity": 101,
      "chip": "ym2612"
    },
    {
      "channel": 0,
      "note": 85,
      "start": 10.5947,
      "duration": 0.002,
      "velocity": 101,
      "chip": "ym2612"
    },
    {
      "channel": 1,
      "note": 69,
      "start": 10.595,
      "duration": 0.002,
      "velocity": 110,
      "chip": "ym2612"
    },
    {
      "channel": 2,
      "note": 105,
      "start": 10.5954,
      "duration": 0.0017,
      "velocity": 107,
      "chip": "ym2612"
    },
    {
      "channel": 3,
      "note": 78,
      "start": 10.596,
      "duration": 0.0059,
      "velocity": 96,
      "chip": "ym2612"
    },
    {
      "channel": 4,
      "note": 76,
      "start": 10.5961,
      "duration": 0.0014,
      "velocity": 101,
      "chip": "ym2612"
    },
    {
      "channel": 2,
      "note": 93,
      "start": 10.5973,
      "duration": 0.0018,
      "velocity": 107,
      "chip": "ym2612"
    },
    {
      "channel": 4,
      "note": 78,
      "start": 10.5977,
      "duration": 0.002,
      "velocity": 101,
      "chip": "ym2612"
    },
    {
      "channel": 1,
      "note": 57,
      "start": 10.5991,
      "duration": 0.0024,
      "velocity": 110,
      "chip": "ym2612"
    },
    {
      "channel": 2,
      "note": 105,
      "start": 10.5994,
      "duration": 0.0022,
      "velocity": 107,
      "chip": "ym2612"
    },
    {
      "channel": 4,
      "note": 79,
      "start": 10.5999,
      "duration": 0.0021,
      "velocity": 101,
      "chip": "ym2612"
    },
    {
      "channel": 1,
      "note": 57,
      "start": 10.6016,
      "duration": 0.0321,
      "velocity": 110,
      "chip": "ym2612"
    },
    {
      "channel": 2,
      "note": 93,
      "start": 10.6019,
      "duration": 0.032,
      "velocity": 107,
      "chip": "ym2612"
    },
    {
      "channel": 4,
      "note": 81,
      "start": 10.6021,
      "duration": 0.0331,
      "velocity": 101,
      "chip": "ym2612"
    },
    {
      "channel": 0,
      "note": 89,
      "start": 10.6324,
      "duration": 0.0092,
      "velocity": 50,
      "chip": "ym2612"
    },
    {
      "channel": 1,
      "note": 69,
      "start": 10.6339,
      "duration": 0.0027,
      "velocity": 110,
      "chip": "ym2612"
    },
    {
      "channel": 2,
      "note": 105,
      "start": 10.634,
      "duration": 0.0027,
      "velocity": 107,
      "chip": "ym2612"
    },
    {
      "channel": 3,
      "note": 76,
      "start": 10.6352,
      "duration": 0.181,
      "velocity": 107,
      "chip": "ym2612"
    },
    {
      "channel": 4,
      "note": 85,
      "start": 10.6353,
      "duration": 0.001,
      "velocity": 101,
      "chip": "ym2612"
    },
    {
      "channel": 2,
      "note": 93,
      "start": 10.637,
      "duration": 0.0049,
      "velocity": 107,
      "chip": "ym2612"
    },
    {
      "channel": 0,
      "note": 77,
      "start": 10.6416,
      "duration": 0.1741,
      "velocity": 50,
      "chip": "ym2612"
    },
    {
      "channel": 1,
      "note": 67,
      "start": 10.6419,
      "duration": 0.0781,
      "velocity": 110,
      "chip": "ym2612"
    },
    {
      "channel": 2,
      "note": 105,
      "start": 10.6419,
      "duration": 0.0782,
      "velocity": 107,
      "chip": "ym2612"
    },
    {
      "channel": 2,
      "note": 93,
      "start": 10.7204,
      "duration": 0.0793,
      "velocity": 107,
      "chip": "ym2612"
    },
    {
      "channel": 1,
      "note": 69,
      "start": 10.7997,
      "duration": 0.0049,
      "velocity": 110,
      "chip": "ym2612"
    },
    {
      "channel": 2,
      "note": 105,
      "start": 10.8001,
      "duration": 0.0047,
      "velocity": 107,
      "chip": "ym2612"
    },
    {
      "channel": 4,
      "note": 89,
      "start": 10.8017,
      "duration": 0.0088,
      "velocity": 50,
      "chip": "ym2612"
    },
    {
      "channel": 2,
      "note": 93,
      "start": 10.8051,
      "duration": 0.0028,
      "velocity": 107,
      "chip": "ym2612"
    },
    {
      "channel": 1,
      "note": 57,
      "start": 10.8078,
      "duration": 0.0042,
      "velocity": 110,
      "chip": "ym2612"
    },
    {
      "channel": 2,
      "note": 105,
      "start": 10.8082,
      "duration": 0.0041,
      "velocity": 107,
      "chip": "ym2612"
    },
    {
      "channel": 4,
      "note": 77,
      "start": 10.8105,
      "duration": 0.1854,
      "velocity": 100,
      "chip": "ym2612"
    },
    {
      "channel": 1,
      "note": 69,
      "start": 10.8122,
      "duration": 0.0036,
      "velocity": 110,
      "chip": "ym2612"
    },
    {
      "channel": 2,
      "note": 93,
      "start": 10.8126,
      "duration": 0.0033,
      "velocity": 107,
      "chip": "ym2612"
    },
    {
      "channel": 0,
      "note": 77,
      "start": 10.8158,
      "duration": 0.0198,
      "velocity": 50,
      "chip": "ym2612"
    },
    {
      "channel": 2,
      "note": 105,
      "start": 10.816,
      "duration": 0.02,
      "velocity": 107,
      "chip": "ym2612"
    },
    {
      "channel": 3,
      "note": 76,
      "start": 10.8162,
      "duration": 0.0206,
      "velocity": 107,
      "chip": "ym2612"
    },
    {
      "channel": 0,
      "note": 77,
      "start": 10.8356,
      "duration": 0.0039,
      "velocity": 50,
      "chip": "ym2612"
    },
    {
      "channel": 1,
      "note": 69,
      "start": 10.8359,
      "duration": 0.0037,
      "velocity": 110,
      "chip": "ym2612"
    },
    {
      "channel": 2,
      "note": 93,
      "start": 10.8363,
      "duration": 0.0034,
      "velocity": 107,
      "chip": "ym2612"
    },
    {
      "channel": 3,
      "note": 76,
      "start": 10.8368,
      "duration": 0.0039,
      "velocity": 107,
      "chip": "ym2612"
    },
    {
      "channel": 0,
      "note": 77,
      "start": 10.8395,
      "duration": 0.0038,
      "velocity": 50,
      "chip": "ym2612"
    },
    {
      "channel": 2,
      "note": 105,
      "start": 10.8401,
      "duration": 0.0036,
      "velocity": 107,
      "chip": "ym2612"
    },
    {
      "channel": 3,
      "note": 76,
      "start": 10.8408,
      "duration": 0.0036,
      "velocity": 107,
      "chip": "ym2612"
    },
    {
      "channel": 0,
      "note": 77,
      "start": 10.8433,
      "duration": 0.0797,
      "velocity": 50,
      "chip": "ym2612"
    },
    {
      "channel": 1,
      "note": 67,
      "start": 10.8436,
      "duration": 0.0794,
      "velocity": 110,
      "chip": "ym2612"
    },
    {
      "channel": 2,
      "note": 93,
      "start": 10.844,
      "duration": 0.0793,
      "velocity": 107,
      "chip": "ym2612"
    },
    {
      "channel": 3,
      "note": 76,
      "start": 10.8444,
      "duration": 0.0796,
      "velocity": 107,
      "chip": "ym2612"
    },
    {
      "channel": 0,
      "note": 77,
      "start": 10.923,
      "duration": 0.0031,
      "velocity": 50,
      "chip": "ym2612"
    },
    {
      "channel": 1,
      "note": 69,
      "start": 10.9233,
      "duration": 0.0024,
      "velocity": 110,
      "chip": "ym2612"
    },
    {
      "channel": 2,
      "note": 105,
      "start": 10.9237,
      "duration": 0.0024,
      "velocity": 107,
      "chip": "ym2612"
    },
    {
      "channel": 3,
      "note": 76,
      "start": 10.9241,
      "duration": 0.0023,
      "velocity": 107,
      "chip": "ym2612"
    },
    {
      "channel": 0,
      "note": 77,
      "start": 10.926,
      "duration": 0.0027,
      "velocity": 50,
      "chip": "ym2612"
    },
    {
      "channel": 2,
      "note": 93,
      "start": 10.9263,
      "duration": 0.0028,
      "velocity": 107,
      "chip": "ym2612"
    },
    {
      "channel": 3,
      "note": 76,
      "start": 10.9264,
      "duration": 0.0034,
      "velocity": 107,
      "chip": "ym2612"
    },
    {
      "channel": 0,
      "note": 77,
      "start": 10.9287,
      "duration": 0.0037,
      "velocity": 50,
      "chip": "ym2612"
    },
    {
      "channel": 1,
      "note": 57,
      "start": 10.929,
      "duration": 0.0035,
      "velocity": 110,
      "chip": "ym2612"
    },
    {
      "channel": 2,
      "note": 105,
      "start": 10.9294,
      "duration": 0.0034,
      "velocity": 107,
      "chip": "ym2612"
    },
    {
      "channel": 3,
      "note": 76,
      "start": 10.93,
      "duration": 0.0036,
      "velocity": 107,
      "chip": "ym2612"
    },
    {
      "channel": 0,
      "note": 77,
      "start": 10.9324,
      "duration": 0.0068,
      "velocity": 100,
      "chip": "ym2612"
    },
    {
      "channel": 1,
      "note": 57,
      "start": 10.9328,
      "duration": 0.0068,
      "velocity": 110,
      "chip": "ym2612"
    },
    {
      "channel": 2,
      "note": 93,
      "start": 10.9332,
      "duration": 0.0066,
      "velocity": 107,
      "chip": "ym2612"
    },
    {
      "channel": 3,
      "note": 76,
      "start": 10.9335,
      "duration": 0.0076,
      "velocity": 96,
      "chip": "ym2612"
    },
    {
      "channel": 0,
      "note": 81,
      "start": 10.9395,
      "duration": 0.0251,
      "velocity": 100,
      "chip": "ym2612"
    },
    {
      "channel": 1,
      "note": 69,
      "start": 10.9397,
      "duration": 0.0034,
      "velocity": 110,
      "chip": "ym2612"
    },
    {
      "channel": 2,
      "note": 105,
      "start": 10.9399,
      "duration": 0.0033,
      "velocity": 107,
      "chip": "ym2612"
    },
    {
      "channel": 3,
      "note": 78,
      "start": 10.9413,
      "duration": 0.0229,
      "velocity": 96,
      "chip": "ym2612"
    },
    {
      "channel": 2,
      "note": 93,
      "start": 10.9433,
      "duration": 0.0183,
      "velocity": 107,
      "chip": "ym2612"
    },
    {
      "channel": 1,
      "note": 67,
      "start": 10.9615,
      "duration": 0.0024,
      "velocity": 110,
      "chip": "ym2612"
    },
    {
      "channel": 2,
      "note": 105,
      "start": 10.9619,
      "duration": 0.0021,
      "velocity": 107,
      "chip": "ym2612"
    },
    {
      "channel": 2,
      "note": 93,
      "start": 10.9641,
      "duration": 0.0303,
      "velocity": 107,
      "chip": "ym2612"
    },
    {
      "channel": 0,
      "note": 67,
      "start": 10.9944,
      "duration": 0.0029,
      "velocity": 101,
      "chip": "ym2612"
    },
    {
      "channel": 1,
      "note": 69,
      "start": 10.9945,
      "duration": 0.003,
      "velocity": 110,
      "chip": "ym2612"
    },
    {
      "channel": 2,
      "note": 105,
      "start": 10.9946,
      "duration": 0.003,
      "velocity": 107,
      "chip": "ym2612"
    },
    {
      "channel": 3,
      "note": 78,
      "start": 10.9947,
      "duration": 0.0085,
      "velocity": 96,
      "chip": "ym2612"
    },
    {
      "channel": 4,
      "note": 81,
      "start": 10.996,
      "duration": 0.0081,
      "velocity": 100,
      "chip": "ym2612"
    },
    {
      "channel": 0,
      "note": 71,
      "start": 10.9975,
      "duration": 0.0019,
      "velocity": 101,
      "chip": "ym2612"
    },
    {
      "channel": 2,
      "note": 93,
      "start": 10.9977,
      "duration": 0.0023,
      "velocity": 107,
      "chip": "ym2612"
    },
    {
      "channel": 0,
      "note": 74,
      "start": 10.9997,
      "duration": 0.0026,
      "velocity": 101,
      "chip": "ym2612"
    },
    {
      "channel": 1,
      "note": 57,
      "start": 11.0,
      "duration": 0.0025,
      "velocity": 110,
      "chip": "ym2612"
    },
    {
      "channel": 2,
      "note": 105,
      "start": 11.0003,
      "duration": 0.0024,
      "velocity": 107,
      "chip": "ym2612"
    },
    {
      "channel": 0,
      "note": 79,
      "start": 11.0024,
      "duration": 0.0032,
      "velocity": 101,
      "chip": "ym2612"
    },
    {
      "channel": 1,
      "note": 69,
      "start": 11.0027,
      "duration": 0.0035,
      "velocity": 110,
      "chip": "ym2612"
    },
    {
      "channel": 2,
      "note": 93,
      "start": 11.0031,
      "duration": 0.0034,
      "velocity": 107,
      "chip": "ym2612"
    },
    {
      "channel": 0,
      "note": 71,
      "start": 11.0059,
      "duration": 0.0053,
      "velocity": 101,
      "chip": "ym2612"
    },
    {
      "channel": 1,
      "note": 67,
      "start": 11.0064,
      "duration": 0.0051,
      "velocity": 110,
      "chip": "ym2612"
    },
    {
      "channel": 2,
      "note": 105,
      "start": 11.0069,
      "duration": 0.0049,
      "velocity": 107,
      "chip": "ym2612"
    },
    {
      "channel": 3,
      "note": 78,
      "start": 11.0082,
      "duration": 0.0114,
      "velocity": 96,
      "chip": "ym2612"
    },
    {
      "channel": 4,
      "note": 67,
      "start": 11.0095,
      "duration": 0.0028,
      "velocity": 101,
      "chip": "ym2612"
    },
    {
      "channel": 0,
      "note": 76,
      "start": 11.0114,
      "duration": 0.0025,
      "velocity": 101,
      "chip": "ym2612"
    },
    {
      "channel": 1,
      "note": 69,
      "start": 11.0117,
      "duration": 0.0025,
      "velocity": 110,
      "chip": "ym2612"
    },
    {
      "channel": 2,
      "note": 93,
      "start": 11.0121,
      "duration": 0.0025,
      "velocity": 107,
      "chip": "ym2612"
    },
    {
      "channel": 4,
      "note": 71,
      "start": 11.0125,
      "duration": 0.0026,
      "velocity": 101,
      "chip": "ym2612"
    },
    {
      "channel": 0,
      "note": 79,
      "start": 11.0142,
      "duration": 0.0043,
      "velocity": 101,
      "chip": "ym2612"
    },
    {
      "channel": 1,
      "note": 71,
      "start": 11.0146,
      "duration": 0.0043,
      "velocity": 110,
      "chip": "ym2612"
    },
    {
      "channel": 2,
      "note": 105,
      "start": 11.0149,
      "duration": 0.0042,
      "velocity": 107,
      "chip": "ym2612"
    },
    {
      "channel": 4,
      "note": 74,
      "start": 11.0155,
      "duration": 0.0043,
      "velocity": 101,
      "chip": "ym2612"
    },
    {
      "channel": 0,
      "note": 85,
      "start": 11.0188,
      "duration": 0.0024,
      "velocity": 101,
      "chip": "ym2612"
    },
    {
      "channel": 1,
      "note": 72,
      "start": 11.0191,
      "duration": 0.0024,
      "velocity": 110,
      "chip": "ym2612"
    },
    {
      "channel": 2,
      "note": 93,
      "start": 11.0195,
      "duration": 0.0024,
      "velocity": 107,
      "chip": "ym2612"
    },
    {
      "channel": 4,
      "note": 79,
      "start": 11.0199,
      "duration": 0.0028,
      "velocity": 101,
      "chip": "ym2612"
    },
    {
      "channel": 0,
      "note": 76,
      "start": 11.0215,
      "duration": 0.0028,
      "velocity": 101,
      "chip": "ym2612"
    },
    {
      "channel": 1,
      "note": 74,
      "start": 11.0218,
      "duration": 0.0026,
      "velocity": 110,
      "chip": "ym2612"
    },
    {
      "channel": 2,
      "note": 105,
      "start": 11.0222,
      "duration": 0.0025,
      "velocity": 107,
      "chip": "ym2612"
    },
    {
      "channel": 3,
      "note": 78,
      "start": 11.0227,
      "duration": 0.0098,
      "velocity": 96,
      "chip": "ym2612"
    },
    {
      "channel": 4,
      "note": 71,
      "start": 11.0228,
      "duration": 0.0025,
      "velocity": 101,
      "chip": "ym2612"
    },
    {
      "channel": 0,
      "note": 81,
      "start": 11.0244,
      "duration": 0.0041,
      "velocity": 101,
      "chip": "ym2612"
    },
    {
      "channel": 1,
      "note": 72,
      "start": 11.0247,
      "duration": 0.0042,
      "velocity": 110,
      "chip": "ym2612"
    },
    {
      "channel": 2,
      "note": 93,
      "start": 11.025,
      "duration": 0.0041,
      "velocity": 107,
      "chip": "ym2612"
    },
    {
      "channel": 4,
      "note": 76,
      "start": 11.0256,
      "duration": 0.0041,
      "velocity": 101,
      "chip": "ym2612"
    },
    {
      "channel": 0,
      "note": 84,
      "start": 11.0288,
      "duration": 0.0028,
      "velocity": 101,
      "chip": "ym2612"
    },
    {
      "channel": 1,
      "note": 71,
      "start": 11.0291,
      "duration": 0.0026,
      "velocity": 110,
      "chip": "ym2612"
    },
    {
      "channel": 2,
      "note": 105,
      "start": 11.0295,
      "duration": 0.0026,
      "velocity": 107,
      "chip": "ym2612"
    },
    {
      "channel": 4,
      "note": 79,
      "start": 11.0301,
      "duration": 0.0026,
      "velocity": 101,
      "chip": "ym2612"
    },
    {
      "channel": 0,
      "note": 90,
      "start": 11.0317,
      "duration": 0.0045,
      "velocity": 107,
      "chip": "ym2612"
    },
    {
      "channel": 1,
      "note": 70,
      "start": 11.032,
      "duration": 0.0048,
      "velocity": 110,
      "chip": "ym2612"
    },
    {
      "channel": 2,
      "note": 93,
      "start": 11.0324,
      "duration": 0.0047,
      "velocity": 107,
      "chip": "ym2612"
    },
    {
      "channel": 4,
      "note": 85,
      "start": 11.033,
      "duration": 0.0056,
      "velocity": 101,
      "chip": "ym2612"
    },
    {
      "channel": 0,
      "note": 95,
      "start": 11.0364,
      "duration": 0.0107,
      "velocity": 50,
      "chip": "ym2612"
    },
    {
      "channel": 1,
      "note": 71,
      "start": 11.0371,
      "duration": 0.0043,
      "velocity": 110,
      "chip": "ym2612"
    },
    {
      "channel": 2,
      "note": 107,
      "start": 11.0372,
      "duration": 0.0043,
      "velocity": 107,
      "chip": "ym2612"
    },
    {
      "channel": 3,
      "note": 78,
      "start": 11.0385,
      "duration": 0.0328,
      "velocity": 107,
      "chip": "ym2612"
    },
    {
      "channel": 4,
      "note": 76,
      "start": 11.0387,
      "duration": 0.0034,
      "velocity": 101,
      "chip": "ym2612"
    },
    {
      "channel": 2,
      "note": 95,
      "start": 11.0418,
      "duration": 0.0057,
      "velocity": 107,
      "chip": "ym2612"
    },
    {
      "channel": 4,
      "note": 81,
      "start": 11.0423,
      "duration": 0.0057,
      "velocity": 101,
      "chip": "ym2612"
    },
    {
      "channel": 0,
      "note": 83,
      "start": 11.0471,
      "duration": 0.0232,
      "velocity": 50,
      "chip": "ym2612"
    },
    {
      "channel": 1,
      "note": 69,
      "start": 11.0475,
      "duration": 0.004,
      "velocity": 110,
      "chip": "ym2612"
    },
    {
      "channel": 2,
      "note": 107,
      "start": 11.0478,
      "duration": 0.0037,
      "velocity": 107,
      "chip": "ym2612"
    },
    {
      "channel": 4,
      "note": 84,
      "start": 11.0482,
      "duration": 0.0038,
      "velocity": 101,
      "chip": "ym2612"
    },
    {
      "channel": 2,
      "note": 95,
      "start": 11.0518,
      "duration": 0.0037,
      "velocity": 107,
      "chip": "ym2612"
    },
    {
      "channel": 4,
      "note": 90,
      "start": 11.0522,
      "duration": 0.0053,
      "velocity": 107,
      "chip": "ym2612"
    },
    {
      "channel": 1,
      "note": 71,
      "start": 11.0555,
      "duration": 0.0039,
      "velocity": 110,
      "chip": "ym2612"
    },
    {
      "channel": 2,
      "note": 107,
      "start": 11.0558,
      "duration": 0.0036,
      "velocity": 107,
      "chip": "ym2612"
    },
    {
      "channel": 4,
      "note": 95,
      "start": 11.0575,
      "duration": 0.0062,
      "velocity": 50,
      "chip": "ym2612"
    },
    {
      "channel": 2,
      "note": 95,
      "start": 11.0596,
      "duration": 0.0021,
      "velocity": 107,
      "chip": "ym2612"
    },
    {
      "channel": 1,
      "note": 59,
      "start": 11.0616,
      "duration": 0.0038,
      "velocity": 110,
      "chip": "ym2612"
    },
    {
      "channel": 2,
      "note": 107,
      "start": 11.062,
      "duration": 0.0037,
      "velocity": 107,
      "chip": "ym2612"
    },
    {
      "channel": 4,
      "note": 83,
      "start": 11.0638,
      "duration": 0.0603,
      "velocity": 91,
      "chip": "ym2612"
    },
    {
      "channel": 1,
      "note": 71,
      "start": 11.0656,
      "duration": 0.0049,
      "velocity": 110,
      "chip": "ym2612"
    },
    {
      "channel": 2,
      "note": 95,
      "start": 11.066,
      "duration": 0.0047,
      "velocity": 107,
      "chip": "ym2612"
    },
    {
      "channel": 0,
      "note": 83,
      "start": 11.0704,
      "duration": 0.0037,
      "velocity": 50,
      "chip": "ym2612"
    },
    {
      "channel": 2,
      "note": 107,
      "start": 11.071,
      "duration": 0.0035,
      "velocity": 107,
      "chip": "ym2612"
    },
    {
      "channel": 3,
      "note": 78,
      "start": 11.0713,
      "duration": 0.0038,
      "velocity": 107,
      "chip": "ym2612"
    },
    {
      "channel": 0,
      "note": 83,
      "start": 11.0741,
      "duration": 0.0041,
      "velocity": 50,
      "chip": "ym2612"
    },
    {
      "channel": 1,
      "note": 71,
      "start": 11.0744,
      "duration": 0.0039,
      "velocity": 110,
      "chip": "ym2612"
    },
    {
      "channel": 2,
      "note": 95,
      "start": 11.0748,
      "duration": 0.0036,
      "velocity": 107,
      "chip": "ym2612"
    },
    {
      "channel": 3,
      "note": 78,
      "start": 11.0751,
      "duration": 0.0042,
      "velocity": 107,
      "chip": "ym2612"
    },
    {
      "channel": 0,
      "note": 83,
      "start": 11.0782,
      "duration": 0.0041,
      "velocity": 50,
      "chip": "ym2612"
    },
    {
      "channel": 2,
      "note": 107,
      "start": 11.0788,
      "duration": 0.004,
      "velocity": 107,
      "chip": "ym2612"
    },
    {
      "channel": 3,
      "note": 78,
      "start": 11.0794,
      "duration": 0.0041,
      "velocity": 107,
      "chip": "ym2612"
    },
    {
      "channel": 0,
      "note": 83,
      "start": 11.0823,
      "duration": 0.005,
      "velocity": 50,
      "chip": "ym2612"
    },
    {
      "channel": 1,
      "note": 69,
      "start": 11.0827,
      "duration": 0.0047,
      "velocity": 110,
      "chip": "ym2612"
    },
    {
      "channel": 2,
      "note": 95,
      "start": 11.083,
      "duration": 0.0047,
      "velocity": 107,
      "chip": "ym2612"
    },
    {
      "channel": 3,
      "note": 78,
      "start": 11.0835,
      "duration": 0.0051,
      "velocity": 107,
      "chip": "ym2612"
    },
    {
      "channel": 0,
      "note": 83,
      "start": 11.0873,
      "duration": 0.0034,
      "velocity": 50,
      "chip": "ym2612"
    },
    {
      "channel": 1,
      "note": 71,
      "start": 11.0876,
      "duration": 0.0026,
      "velocity": 110,
      "chip": "ym2612"
    },
    {
      "channel": 2,
      "note": 107,
      "start": 11.088,
      "duration": 0.0028,
      "velocity": 107,
      "chip": "ym2612"
    },
    {
      "channel": 3,
      "note": 78,
      "start": 11.0887,
      "duration": 0.0023,
      "velocity": 107,
      "chip": "ym2612"
    },
    {
      "channel": 0,
      "note": 83,
      "start": 11.0907,
      "duration": 0.0022,
      "velocity": 50,
      "chip": "ym2612"
    },
    {
      "channel": 2,
      "note": 95,
      "start": 11.0909,
      "duration": 0.0024,
      "velocity": 107,
      "chip": "ym2612"
    },
    {
      "channel": 3,
      "note": 78,
      "start": 11.091,
      "duration": 0.0032,
      "velocity": 107,
      "chip": "ym2612"
    },
    {
      "channel": 0,
      "note": 83,
      "start": 11.0929,
      "duration": 0.0047,
      "velocity": 50,
      "chip": "ym2612"
    },
    {
      "channel": 1,
      "note": 59,
      "start": 11.0932,
      "duration": 0.0045,
      "velocity": 110,
      "chip": "ym2612"
    },
    {
      "channel": 2,
      "note": 107,
      "start": 11.0936,
      "duration": 0.0044,
      "velocity": 107,
      "chip": "ym2612"
    },
    {
      "channel": 3,
      "note": 78,
      "start": 11.0944,
      "duration": 0.0042,
      "velocity": 107,
      "chip": "ym2612"
    },
    {
      "channel": 0,
      "note": 83,
      "start": 11.0977,
      "duration": 0.0066,
      "velocity": 91,
      "chip": "ym2612"
    },
    {
      "channel": 1,
      "note": 59,
      "start": 11.098,
      "duration": 0.0066,
      "velocity": 110,
      "chip": "ym2612"
    },
    {
      "channel": 2,
      "note": 95,
      "start": 11.0983,
      "duration": 0.0064,
      "velocity": 107,
      "chip": "ym2612"
    },
    {
      "channel": 3,
      "note": 78,
      "start": 11.0987,
      "duration": 0.0075,
      "velocity": 91,
      "chip": "ym2612"
    },
    {
      "channel": 0,
      "note": 83,
      "start": 11.1045,
      "duration": 0.0151,
      "velocity": 91,
      "chip": "ym2612"
    },
    {
      "channel": 1,
      "note": 71,
      "start": 11.1047,
      "duration": 0.0043,
      "velocity": 110,
      "chip": "ym2612"
    },
    {
      "channel": 2,
      "note": 107,
      "start": 11.1049,
      "duration": 0.0042,
      "velocity": 107,
      "chip": "ym2612"
    },
    {
      "channel": 3,
      "note": 80,
      "start": 11.1062,
      "duration": 0.0135,
      "velocity": 91,
      "chip": "ym2612"
    },
    {
      "channel": 2,
      "note": 95,
      "start": 11.1094,
      "duration": 0.0039,
      "velocity": 107,
      "chip": "ym2612"
    },
    {
      "channel": 1,
      "note": 69,
      "start": 11.1132,
      "duration": 0.004,
      "velocity": 110,
      "chip": "ym2612"
    },
    {
      "channel": 2,
      "note": 107,
      "start": 11.1136,
      "duration": 0.0037,
      "velocity": 107,
      "chip": "ym2612"
    },
    {
      "channel": 2,
      "note": 95,
      "start": 11.1177,
      "duration": 0.0041,
      "velocity": 107,
      "chip": "ym2612"
    },
    {
      "channel": 1,
      "note": 71,
      "start": 11.1217,
      "duration": 0.004,
      "velocity": 110,
      "chip": "ym2612"
    },
    {
      "channel": 2,
      "note": 107,
      "start": 11.1221,
      "duration": 0.0037,
      "velocity": 107,
      "chip": "ym2612"
    },
    {
      "channel": 3,
      "note": 80,
      "start": 11.1227,
      "duration": 0.0088,
      "velocity": 91,
      "chip": "ym2612"
    },
    {
      "channel": 4,
      "note": 83,
      "start": 11.1242,
      "duration": 0.0073,
      "velocity": 91,
      "chip": "ym2612"
    },
    {
      "channel": 2,
      "note": 95,
      "start": 11.126,
      "duration": 0.0016,
      "velocity": 107,
      "chip": "ym2612"
    },
    {
      "channel": 1,
      "note": 59,
      "start": 11.1275,
      "duration": 0.0024,
      "velocity": 110,
      "chip": "ym2612"
    },
    {
      "channel": 2,
      "note": 107,
      "start": 11.1279,
      "duration": 0.0022,
      "velocity": 107,
      "chip": "ym2612"
    },
    {
      "channel": 1,
      "note": 71,
      "start": 11.1301,
      "duration": 0.0019,
      "velocity": 110,
      "chip": "ym2612"
    },
    {
      "channel": 2,
      "note": 95,
      "start": 11.1305,
      "duration": 0.0016,
      "velocity": 107,
      "chip": "ym2612"
    },
    {
      "channel": 0,
      "note": 83,
      "start": 11.1319,
      "duration": 0.039,
      "velocity": 91,
      "chip": "ym2612"
    },
    {
      "channel": 2,
      "note": 107,
      "start": 11.1322,
      "duration": 0.02,
      "velocity": 107,
      "chip": "ym2612"
    },
    {
      "channel": 3,
      "note": 80,
      "start": 11.1325,
      "duration": 0.0388,
      "velocity": 91,
      "chip": "ym2612"
    },
    {
      "channel": 1,
      "note": 71,
      "start": 11.1522,
      "duration": 0.003,
      "velocity": 110,
      "chip": "ym2612"
    },
    {
      "channel": 2,
      "note": 95,
      "start": 11.1526,
      "duration": 0.0027,
      "velocity": 107,
      "chip": "ym2612"
    },
    {
      "channel": 2,
      "note": 107,
      "start": 11.1556,
      "duration": 0.0032,
      "velocity": 107,
      "chip": "ym2612"
    },
    {
      "channel": 1,
      "note": 69,
      "start": 11.1587,
      "duration": 0.0791,
      "velocity": 110,
      "chip": "ym2612"
    },
    {
      "channel": 2,
      "note": 95,
      "start": 11.1591,
      "duration": 0.079,
      "velocity": 107,
      "chip": "ym2612"
    },
    {
      "channel": 1,
      "note": 71,
      "start": 11.238,
      "duration": 0.0024,
      "velocity": 110,
      "chip": "ym2612"
    },
    {
      "channel": 2,
      "note": 107,
      "start": 11.2384,
      "duration": 0.0021,
      "velocity": 107,
      "chip": "ym2612"
    },
    {
      "channel": 3,
      "note": 80,
      "start": 11.2391,
      "duration": 0.0068,
      "velocity": 91,
      "chip": "ym2612"
    },
    {
      "channel": 4,
      "note": 83,
      "start": 11.2393,
      "duration": 0.0065,
      "velocity": 91,
      "chip": "ym2612"
    },
    {
      "channel": 2,
      "note": 95,
      "start": 11.2407,
      "duration": 0.002,
      "velocity": 107,
      "chip": "ym2612"
    },
    {
      "channel": 1,
      "note": 59,
      "start": 11.2427,
      "duration": 0.0023,
      "velocity": 110,
      "chip": "ym2612"
    },
    {
      "channel": 2,
      "note": 107,
      "start": 11.243,
      "duration": 0.002,
      "velocity": 107,
      "chip": "ym2612"
    },
    {
      "channel": 1,
      "note": 59,
      "start": 11.2451,
      "duration": 0.0305,
      "velocity": 110,
      "chip": "ym2612"
    },
    {
      "channel": 2,
      "note": 95,
      "start": 11.2453,
      "duration": 0.0307,
      "velocity": 107,
      "chip": "ym2612"
    },
    {
      "channel": 0,
      "note": 93,
      "start": 11.2755,
      "duration": 0.0084,
      "velocity": 50,
      "chip": "ym2612"
    },
    {
      "channel": 1,
      "note": 71,
      "start": 11.2759,
      "duration": 0.0027,
      "velocity": 110,
      "chip": "ym2612"
    },
    {
      "channel": 2,
      "note": 107,
      "start": 11.2762,
      "duration": 0.0025,
      "velocity": 107,
      "chip": "ym2612"
    },
    {
      "channel": 3,
      "note": 78,
      "start": 11.2774,
      "duration": 0.0286,
      "velocity": 107,
      "chip": "ym2612"
    },
    {
      "channel": 2,
      "note": 95,
      "start": 11.279,
      "duration": 0.0054,
      "velocity": 107,
      "chip": "ym2612"
    },
    {
      "channel": 0,
      "note": 81,
      "start": 11.2839,
      "duration": 0.0211,
      "velocity": 50,
      "chip": "ym2612"
    },
    {
      "channel": 1,
      "note": 69,
      "start": 11.2843,
      "duration": 0.0025,
      "velocity": 110,
      "chip": "ym2612"
    },
    {
      "channel": 2,
      "note": 107,
      "start": 11.2847,
      "duration": 0.002,
      "velocity": 107,
      "chip": "ym2612"
    },
    {
      "channel": 2,
      "note": 95,
      "start": 11.2869,
      "duration": 0.003,
      "velocity": 107,
      "chip": "ym2612"
    },
    {
      "channel": 1,
      "note": 71,
      "start": 11.2898,
      "duration": 0.0038,
      "velocity": 110,
      "chip": "ym2612"
    },
    {
      "channel": 2,
      "note": 107,
      "start": 11.2902,
      "duration": 0.0034,
      "velocity": 107,
      "chip": "ym2612"
    },
    {
      "channel": 4,
      "note": 93,
      "start": 11.2918,
      "duration": 0.0063,
      "velocity": 50,
      "chip": "ym2612"
    },
    {
      "channel": 2,
      "note": 95,
      "start": 11.2938,
      "duration": 0.0022,
      "velocity": 107,
      "chip": "ym2612"
    },
    {
      "channel": 1,
      "note": 59,
      "start": 11.2959,
      "duration": 0.004,
      "velocity": 110,
      "chip": "ym2612"
    },
    {
      "channel": 2,
      "note": 107,
      "start": 11.2963,
      "duration": 0.004,
      "velocity": 107,
      "chip": "ym2612"
    },
    {
      "channel": 4,
      "note": 81,
      "start": 11.2981,
      "duration": 0.0604,
      "velocity": 91,
      "chip": "ym2612"
    },
    {
      "channel": 1,
      "note": 71,
      "start": 11.3002,
      "duration": 0.0049,
      "velocity": 110,
      "chip": "ym2612"
    },
    {
      "channel": 2,
      "note": 95,
      "start": 11.3005,
      "duration": 0.0047,
      "velocity": 107,
      "chip": "ym2612"
    },
    {
      "channel": 0,
      "note": 81,
      "start": 11.305,
      "duration": 0.0041,
      "velocity": 50,
      "chip": "ym2612"
    },
    {
      "channel": 2,
      "note": 107,
      "start": 11.3056,
      "duration": 0.004,
      "velocity": 107,
      "chip": "ym2612"
    },
    {
      "channel": 3,
      "note": 78,
      "start": 11.306,
      "duration": 0.0042,
      "velocity": 107,
      "chip": "ym2612"
    },
    {
      "channel": 0,
      "note": 81,
      "start": 11.3091,
      "duration": 0.0041,
      "velocity": 50,
      "chip": "ym2612"
    },
    {
      "channel": 1,
      "note": 71,
      "start": 11.3095,
      "duration": 0.0038,
      "velocity": 110,
      "chip": "ym2612"
    },
    {
      "channel": 2,
      "note": 95,
      "start": 11.3098,
      "duration": 0.0036,
      "velocity": 107,
      "chip": "ym2612"
    },
    {
      "channel": 3,
      "note": 78,
      "start": 11.3102,
      "duration": 0.0042,
      "velocity": 107,
      "chip": "ym2612"
    },
    {
      "channel": 0,
      "note": 81,
      "start": 11.3132,
      "duration": 0.0039,
      "velocity": 50,
      "chip": "ym2612"
    },
    {
      "channel": 2,
      "note": 107,
      "start": 11.3138,
      "duration": 0.0037,
      "velocity": 107,
      "chip": "ym2612"
    },
    {
      "channel": 3,
      "note": 78,
      "start": 11.3145,
      "duration": 0.0036,
      "velocity": 107,
      "chip": "ym2612"
    },
    {
      "channel": 0,
      "note": 81,
      "start": 11.3171,
      "duration": 0.0046,
      "velocity": 50,
      "chip": "ym2612"
    },
    {
      "channel": 1,
      "note": 69,
      "start": 11.3173,
      "duration": 0.0044,
      "velocity": 110,
      "chip": "ym2612"
    },
    {
      "channel": 2,
      "note": 95,
      "start": 11.3177,
      "duration": 0.0044,
      "velocity": 107,
      "chip": "ym2612"
    },
    {
      "channel": 3,
      "note": 78,
      "start": 11.318,
      "duration": 0.0049,
      "velocity": 107,
      "chip": "ym2612"
    },
    {
      "channel": 0,
      "note": 81,
      "start": 11.3217,
      "duration": 0.0034,
      "velocity": 50,
      "chip": "ym2612"
    },
    {
      "channel": 1,
      "note": 71,
      "start": 11.322,
      "duration": 0.0026,
      "velocity": 110,
      "chip": "ym2612"
    },
    {
      "channel": 2,
      "note": 107,
      "start": 11.3224,
      "duration": 0.0027,
      "velocity": 107,
      "chip": "ym2612"
    },
    {
      "channel": 3,
      "note": 78,
      "start": 11.3231,
      "duration": 0.0022,
      "velocity": 107,
      "chip": "ym2612"
    },
    {
      "channel": 0,
      "note": 81,
      "start": 11.3251,
      "duration": 0.0024,
      "velocity": 50,
      "chip": "ym2612"
    },
    {
      "channel": 2,
      "note": 95,
      "start": 11.3252,
      "duration": 0.0026,
      "velocity": 107,
      "chip": "ym2612"
    },
    {
      "channel": 3,
      "note": 78,
      "start": 11.3253,
      "duration": 0.0035,
      "velocity": 107,
      "chip": "ym2612"
    },
    {
      "channel": 0,
      "note": 81,
      "start": 11.3274,
      "duration": 0.0045,
      "velocity": 50,
      "chip": "ym2612"
    },
    {
      "channel": 1,
      "note": 59,
      "start": 11.3278,
      "duration": 0.0043,
      "velocity": 110,
      "chip": "ym2612"
    },
    {
      "channel": 2,
      "note": 107,
      "start": 11.3281,
      "duration": 0.0042,
      "velocity": 107,
      "chip": "ym2612"
    },
    {
      "channel": 3,
      "note": 78,
      "start": 11.3291,
      "duration": 0.0039,
      "velocity": 107,
      "chip": "ym2612"
    },
    {
      "channel": 0,
      "note": 81,
      "start": 11.332,
      "duration": 0.0065,
      "velocity": 91,
      "chip": "ym2612"
    },
    {
      "channel": 1,
      "note": 59,
      "start": 11.3323,
      "duration": 0.0065,
      "velocity": 110,
      "chip": "ym2612"
    },
    {
      "channel": 2,
      "note": 95,
      "start": 11.3327,
      "duration": 0.0064,
      "velocity": 107,
      "chip": "ym2612"
    },
    {
      "channel": 3,
      "note": 78,
      "start": 11.333,
      "duration": 0.0075,
      "velocity": 91,
      "chip": "ym2612"
    },
    {
      "channel": 0,
      "note": 83,
      "start": 11.3388,
      "duration": 0.0153,
      "velocity": 91,
      "chip": "ym2612"
    },
    {
      "channel": 1,
      "note": 71,
      "start": 11.339,
      "duration": 0.004,
      "velocity": 110,
      "chip": "ym2612"
    },
    {
      "channel": 2,
      "note": 107,
      "start": 11.3392,
      "duration": 0.0039,
      "velocity": 107,
      "chip": "ym2612"
    },
    {
      "channel": 3,
      "note": 80,
      "start": 11.3406,
      "duration": 0.0137,
      "velocity": 91,
      "chip": "ym2612"
    },
    {
      "channel": 2,
      "note": 95,
      "start": 11.3435,
      "duration": 0.004,
      "velocity": 107,
      "chip": "ym2612"
    },
    {
      "channel": 1,
      "note": 69,
      "start": 11.3474,
      "duration": 0.0042,
      "velocity": 110,
      "chip": "ym2612"
    },
    {
      "channel": 2,
      "note": 107,
      "start": 11.3478,
      "duration": 0.004,
      "velocity": 107,
      "chip": "ym2612"
    },
    {
      "channel": 2,
      "note": 95,
      "start": 11.3521,
      "duration": 0.0041,
      "velocity": 107,
      "chip": "ym2612"
    },
    {
      "channel": 1,
      "note": 71,
      "start": 11.3561,
      "duration": 0.0039,
      "velocity": 110,
      "chip": "ym2612"
    },
    {
      "channel": 2,
      "note": 107,
      "start": 11.3565,
      "duration": 0.0035,
      "velocity": 107,
      "chip": "ym2612"
    },
    {
      "channel": 3,
      "note": 80,
      "start": 11.3571,
      "duration": 0.0089,
      "velocity": 91,
      "chip": "ym2612"
    },
    {
      "channel": 4,
      "note": 83,
      "start": 11.3585,
      "duration": 0.0075,
      "velocity": 91,
      "chip": "ym2612"
    },
    {
      "channel": 2,
      "note": 95,
      "start": 11.3602,
      "duration": 0.0018,
      "velocity": 107,
      "chip": "ym2612"
    },
    {
      "channel": 1,
      "note": 59,
      "start": 11.3619,
      "duration": 0.0023,
      "velocity": 110,
      "chip": "ym2612"
    },
    {
      "channel": 2,
      "note": 107,
      "start": 11.3623,
      "duration": 0.0023,
      "velocity": 107,
      "chip": "ym2612"
    },
    {
      "channel": 1,
      "note": 71,
      "start": 11.3645,
      "duration": 0.0021,
      "velocity": 110,
      "chip": "ym2612"
    },
    {
      "channel": 2,
      "note": 95,
      "start": 11.3648,
      "duration": 0.0018,
      "velocity": 107,
      "chip": "ym2612"
    },
    {
      "channel": 0,
      "note": 83,
      "start": 11.3665,
      "duration": 0.0388,
      "velocity": 91,
      "chip": "ym2612"
    },
    {
      "channel": 2,
      "note": 107,
      "start": 11.3669,
      "duration": 0.0198,
      "velocity": 107,
      "chip": "ym2612"
    },
    {
      "channel": 3,
      "note": 80,
      "start": 11.3671,
      "duration": 0.0386,
      "velocity": 91,
      "chip": "ym2612"
    },
    {
      "channel": 1,
      "note": 71,
      "start": 11.3866,
      "duration": 0.003,
      "velocity": 110,
      "chip": "ym2612"
    },
    {
      "channel": 2,
      "note": 95,
      "start": 11.387,
      "duration": 0.0028,
      "velocity": 107,
      "chip": "ym2612"
    },
    {
      "channel": 2,
      "note": 107,
      "start": 11.3901,
      "duration": 0.003,
      "velocity": 107,
      "chip": "ym2612"
    },
    {
      "channel": 1,
      "note": 69,
      "start": 11.393,
      "duration": 0.0792,
      "velocity": 110,
      "chip": "ym2612"
    },
    {
      "channel": 2,
      "note": 95,
      "start": 11.3934,
      "duration": 0.0791,
      "velocity": 107,
      "chip": "ym2612"
    },
    {
      "channel": 1,
      "note": 71,
      "start": 11.4724,
      "duration": 0.0024,
      "velocity": 110,
      "chip": "ym2612"
    },
    {
      "channel": 2,
      "note": 107,
      "start": 11.4728,
      "duration": 0.0023,
      "velocity": 107,
      "chip": "ym2612"
    },
    {
      "channel": 3,
      "note": 80,
      "start": 11.4735,
      "duration": 0.0069,
      "velocity": 91,
      "chip": "ym2612"
    },
    {
      "channel": 4,
      "note": 83,
      "start": 11.4737,
      "duration": 0.0067,
      "velocity": 91,
      "chip": "ym2612"
    },
    {
      "channel": 2,
      "note": 95,
      "start": 11.4754,
      "duration": 0.0018,
      "velocity": 107,
      "chip": "ym2612"
    },
    {
      "channel": 1,
      "note": 59,
      "start": 11.4771,
      "duration": 0.0023,
      "velocity": 110,
      "chip": "ym2612"
    },
    {
      "channel": 2,
      "note": 107,
      "start": 11.4775,
      "duration": 0.002,
      "velocity": 107,
      "chip": "ym2612"
    },
    {
      "channel": 1,
      "note": 59,
      "start": 11.4795,
      "duration": 0.0307,
      "velocity": 110,
      "chip": "ym2612"
    },
    {
      "channel": 2,
      "note": 95,
      "start": 11.4797,
      "duration": 0.0308,
      "velocity": 107,
      "chip": "ym2612"
    },
    {
      "channel": 0,
      "note": 92,
      "start": 11.5101,
      "duration": 0.008,
      "velocity": 50,
      "chip": "ym2612"
    },
    {
      "channel": 1,
      "note": 71,
      "start": 11.5104,
      "duration": 0.0028,
      "velocity": 110,
      "chip": "ym2612"
    },
    {
      "channel": 2,
      "note": 107,
      "start": 11.5107,
      "duration": 0.0026,
      "velocity": 107,
      "chip": "ym2612"
    },
    {
      "channel": 3,
      "note": 78,
      "start": 11.512,
      "duration": 0.0281,
      "velocity": 107,
      "chip": "ym2612"
    },
    {
      "channel": 2,
      "note": 95,
      "start": 11.5136,
      "duration": 0.0048,
      "velocity": 107,
      "chip": "ym2612"
    },
    {
      "channel": 0,
      "note": 80,
      "start": 11.5181,
      "duration": 0.0211,
      "velocity": 50,
      "chip": "ym2612"
    },
    {
      "channel": 1,
      "note": 69,
      "start": 11.5184,
      "duration": 0.0027,
      "velocity": 110,
      "chip": "ym2612"
    },
    {
      "channel": 2,
      "note": 107,
      "start": 11.5188,
      "duration": 0.0023,
      "velocity": 107,
      "chip": "ym2612"
    },
    {
      "channel": 2,
      "note": 95,
      "start": 11.5213,
      "duration": 0.0031,
      "velocity": 107,
      "chip": "ym2612"
    },
    {
      "channel": 1,
      "note": 71,
      "start": 11.5243,
      "duration": 0.0036,
      "velocity": 110,
      "chip": "ym2612"
    },
    {
      "channel": 2,
      "note": 107,
      "start": 11.5247,
      "duration": 0.0032,
      "velocity": 107,
      "chip": "ym2612"
    },
    {
      "channel": 4,
      "note": 92,
      "start": 11.5264,
      "duration": 0.0058,
      "velocity": 50,
      "chip": "ym2612"
    },
    {
      "channel": 2,
      "note": 95,
      "start": 11.528,
      "duration": 0.0022,
      "velocity": 107,
      "chip": "ym2612"
    },
    {
      "channel": 1,
      "note": 59,
      "start": 11.5302,
      "duration": 0.0039,
      "velocity": 110,
      "chip": "ym2612"
    },
    {
      "channel": 2,
      "note": 107,
      "start": 11.5306,
      "duration": 0.0038,
      "velocity": 107,
      "chip": "ym2612"
    },
    {
      "channel": 4,
      "note": 80,
      "start": 11.5322,
      "duration": 0.0605,
      "velocity": 91,
      "chip": "ym2612"
    },
    {
      "channel": 1,
      "note": 71,
      "start": 11.5343,
      "duration": 0.0049,
      "velocity": 110,
      "chip": "ym2612"
    },
    {
      "channel": 2,
      "note": 95,
      "start": 11.5347,
      "duration": 0.0047,
      "velocity": 107,
      "chip": "ym2612"
    },
    {
      "channel": 0,
      "note": 80,
      "start": 11.5392,
      "duration": 0.0036,
      "velocity": 50,
      "chip": "ym2612"
    },
    {
      "channel": 2,
      "note": 107,
      "start": 11.5397,
      "duration": 0.0034,
      "velocity": 107,
      "chip": "ym2612"
    },
    {
      "channel": 3,
      "note": 78,
      "start": 11.5401,
      "duration": 0.0037,
      "velocity": 107,
      "chip": "ym2612"
    },
    {
      "channel": 0,
      "note": 80,
      "start": 11.5428,
      "duration": 0.0042,
      "velocity": 50,
      "chip": "ym2612"
    },
    {
      "channel": 1,
      "note": 71,
      "start": 11.543,
      "duration": 0.004,
      "velocity": 110,
      "chip": "ym2612"
    },
    {
      "channel": 2,
      "note": 95,
      "start": 11.5434,
      "duration": 0.0039,
      "velocity": 107,
      "chip": "ym2612"
    },
    {
      "channel": 3,
      "note": 78,
      "start": 11.5438,
      "duration": 0.0044,
      "velocity": 107,
      "chip": "ym2612"
    },
    {
      "channel": 0,
      "note": 80,
      "start": 11.547,
      "duration": 0.004,
      "velocity": 50,
      "chip": "ym2612"
    },
    {
      "channel": 2,
      "note": 107,
      "start": 11.5475,
      "duration": 0.0039,
      "velocity": 107,
      "chip": "ym2612"
    },
    {
      "channel": 3,
      "note": 78,
      "start": 11.5483,
      "duration": 0.0039,
      "velocity": 107,
      "chip": "ym2612"
    },
    {
      "channel": 0,
      "note": 80,
      "start": 11.551,
      "duration": 0.0049,
      "velocity": 50,
      "chip": "ym2612"
    },
    {
      "channel": 1,
      "note": 69,
      "start": 11.5513,
      "duration": 0.0047,
      "velocity": 110,
      "chip": "ym2612"
    },
    {
      "channel": 2,
      "note": 95,
      "start": 11.5517,
      "duration": 0.0046,
      "velocity": 107,
      "chip": "ym2612"
    },
    {
      "channel": 3,
      "note": 78,
      "start": 11.5521,
      "duration": 0.005,
      "velocity": 107,
      "chip": "ym2612"
    },
    {
      "channel": 0,
      "note": 80,
      "start": 11.5559,
      "duration": 0.0032,
      "velocity": 50,
      "chip": "ym2612"
    },
    {
      "channel": 1,
      "note": 71,
      "start": 11.5562,
      "duration": 0.0024,
      "velocity": 110,
      "chip": "ym2612"
    },
    {
      "channel": 2,
      "note": 107,
      "start": 11.5566,
      "duration": 0.0025,
      "velocity": 107,
      "chip": "ym2612"
    },
    {
      "channel": 3,
      "note": 78,
      "start": 11.5572,
      "duration": 0.0021,
      "velocity": 107,
      "chip": "ym2612"
    },
    {
      "channel": 0,
      "note": 80,
      "start": 11.5591,
      "duration": 0.0022,
      "velocity": 50,
      "chip": "ym2612"
    },
    {
      "channel": 2,
      "note": 95,
      "start": 11.5592,
      "duration": 0.0025,
      "velocity": 107,
      "chip": "ym2612"
    },
    {
      "channel": 3,
      "note": 78,
      "start": 11.5593,
      "duration": 0.0032,
      "velocity": 107,
      "chip": "ym2612"
    },
    {
      "channel": 0,
      "note": 80,
      "start": 11.5613,
      "duration": 0.0047,
      "velocity": 50,
      "chip": "ym2612"
    },
    {
      "channel": 1,
      "note": 59,
      "start": 11.5616,
      "duration": 0.0045,
      "velocity": 110,
      "chip": "ym2612"
    },
    {
      "channel": 2,
      "note": 107,
      "start": 11.562,
      "duration": 0.0044,
      "velocity": 107,
      "chip": "ym2612"
    },
    {
      "channel": 3,
      "note": 78,
      "start": 11.5628,
      "duration": 0.0042,
      "velocity": 107,
      "chip": "ym2612"
    },
    {
      "channel": 0,
      "note": 80,
      "start": 11.566,
      "duration": 0.0066,
      "velocity": 91,
      "chip": "ym2612"
    },
    {
      "channel": 1,
      "note": 59,
      "start": 11.5663,
      "duration": 0.0066,
      "velocity": 110,
      "chip": "ym2612"
    },
    {
      "channel": 2,
      "note": 95,
      "start": 11.5667,
      "duration": 0.0064,
      "velocity": 107,
      "chip": "ym2612"
    },
    {
      "channel": 3,
      "note": 78,
      "start": 11.567,
      "duration": 0.0075,
      "velocity": 91,
      "chip": "ym2612"
    },
    {
      "channel": 0,
      "note": 83,
      "start": 11.5728,
      "duration": 0.0155,
      "velocity": 91,
      "chip": "ym2612"
    },
    {
      "channel": 1,
      "note": 71,
      "start": 11.5731,
      "duration": 0.0041,
      "velocity": 110,
      "chip": "ym2612"
    },
    {
      "channel": 2,
      "note": 107,
      "start": 11.5733,
      "duration": 0.0041,
      "velocity": 107,
      "chip": "ym2612"
    },
    {
      "channel": 3,
      "note": 80,
      "start": 11.5746,
      "duration": 0.0139,
      "velocity": 91,
      "chip": "ym2612"
    },
    {
      "channel": 2,
      "note": 95,
      "start": 11.5777,
      "duration": 0.004,
      "velocity": 107,
      "chip": "ym2612"
    },
    {
      "channel": 1,
      "note": 69,
      "start": 11.5816,
      "duration": 0.0042,
      "velocity": 110,
      "chip": "ym2612"
    },
    {
      "channel": 2,
      "note": 107,
      "start": 11.582,
      "duration": 0.004,
      "velocity": 107,
      "chip": "ym2612"
    },
    {
      "channel": 2,
      "note": 95,
      "start": 11.5863,
      "duration": 0.0041,
      "velocity": 107,
      "chip": "ym2612"
    },
    {
      "channel": 1,
      "note": 71,
      "start": 11.5904,
      "duration": 0.0039,
      "velocity": 110,
      "chip": "ym2612"
    },
    {
      "channel": 2,
      "note": 107,
      "start": 11.5907,
      "duration": 0.0035,
      "velocity": 107,
      "chip": "ym2612"
    },
    {
      "channel": 3,
      "note": 80,
      "start": 11.5914,
      "duration": 0.009,
      "velocity": 91,
      "chip": "ym2612"
    },
    {
      "channel": 4,
      "note": 83,
      "start": 11.5928,
      "duration": 0.0076,
      "velocity": 91,
      "chip": "ym2612"
    },
    {
      "channel": 2,
      "note": 95,
      "start": 11.5945,
      "duration": 0.0017,
      "velocity": 107,
      "chip": "ym2612"
    },
    {
      "channel": 1,
      "note": 59,
      "start": 11.5961,
      "duration": 0.0025,
      "velocity": 110,
      "chip": "ym2612"
    },
    {
      "channel": 2,
      "note": 107,
      "start": 11.5965,
      "duration": 0.0025,
      "velocity": 107,
      "chip": "ym2612"
    },
    {
      "channel": 1,
      "note": 71,
      "start": 11.5989,
      "duration": 0.0022,
      "velocity": 110,
      "chip": "ym2612"
    },
    {
      "channel": 2,
      "note": 95,
      "start": 11.5993,
      "duration": 0.0019,
      "velocity": 107,
      "chip": "ym2612"
    },
    {
      "channel": 0,
      "note": 83,
      "start": 11.6011,
      "duration": 0.0392,
      "velocity": 91,
      "chip": "ym2612"
    },
    {
      "channel": 2,
      "note": 107,
      "start": 11.6014,
      "duration": 0.0199,
      "velocity": 107,
      "chip": "ym2612"
    },
    {
      "channel": 3,
      "note": 80,
      "start": 11.6016,
      "duration": 0.039,
      "velocity": 91,
      "chip": "ym2612"
    },
    {
      "channel": 1,
      "note": 71,
      "start": 11.6213,
      "duration": 0.0031,
      "velocity": 110,
      "chip": "ym2612"
    },
    {
      "channel": 2,
      "note": 95,
      "start": 11.6217,
      "duration": 0.0028,
      "velocity": 107,
      "chip": "ym2612"
    },
    {
      "channel": 2,
      "note": 107,
      "start": 11.6248,
      "duration": 0.0033,
      "velocity": 107,
      "chip": "ym2612"
    },
    {
      "channel": 1,
      "note": 69,
      "start": 11.628,
      "duration": 0.0791,
      "velocity": 110,
      "chip": "ym2612"
    },
    {
      "channel": 2,
      "note": 95,
      "start": 11.6283,
      "duration": 0.079,
      "velocity": 107,
      "chip": "ym2612"
    },
    {
      "channel": 1,
      "note": 71,
      "start": 11.7073,
      "duration": 0.0027,
      "velocity": 110,
      "chip": "ym2612"
    },
    {
      "channel": 2,
      "note": 107,
      "start": 11.7077,
      "duration": 0.0023,
      "velocity": 107,
      "chip": "ym2612"
    },
    {
      "channel": 3,
      "note": 80,
      "start": 11.7084,
      "duration": 0.0071,
      "velocity": 91,
      "chip": "ym2612"
    },
    {
      "channel": 4,
      "note": 83,
      "start": 11.7086,
      "duration": 0.007,
      "velocity": 91,
      "chip": "ym2612"
    },
    {
      "channel": 2,
      "note": 95,
      "start": 11.7102,
      "duration": 0.0019,
      "velocity": 107,
      "chip": "ym2612"
    },
    {
      "channel": 1,
      "note": 59,
      "start": 11.7121,
      "duration": 0.0025,
      "velocity": 110,
      "chip": "ym2612"
    },
    {
      "channel": 2,
      "note": 107,
      "start": 11.7124,
      "duration": 0.0022,
      "velocity": 107,
      "chip": "ym2612"
    },
    {
      "channel": 1,
      "note": 59,
      "start": 11.7146,
      "duration": 0.0308,
      "velocity": 110,
      "chip": "ym2612"
    },
    {
      "channel": 2,
      "note": 95,
      "start": 11.7149,
      "duration": 0.0309,
      "velocity": 107,
      "chip": "ym2612"
    },
    {
      "channel": 0,
      "note": 91,
      "start": 11.7453,
      "duration": 0.0089,
      "velocity": 50,
      "chip": "ym2612"
    },
    {
      "channel": 1,
      "note": 71,
      "start": 11.7457,
      "duration": 0.0031,
      "velocity": 110,
      "chip": "ym2612"
    },
    {
      "channel": 2,
      "note": 107,
      "start": 11.7461,
      "duration": 0.0029,
      "velocity": 107,
      "chip": "ym2612"
    },
    {
      "channel": 3,
      "note": 78,
      "start": 11.7473,
      "duration": 0.0291,
      "velocity": 107,
      "chip": "ym2612"
    },
    {
      "channel": 2,
      "note": 95,
      "start": 11.7493,
      "duration": 0.0054,
      "velocity": 107,
      "chip": "ym2612"
    },
    {
      "channel": 0,
      "note": 79,
      "start": 11.7543,
      "duration": 0.0212,
      "velocity": 50,
      "chip": "ym2612"
    },
    {
      "channel": 1,
      "note": 69,
      "start": 11.7546,
      "duration": 0.0027,
      "velocity": 110,
      "chip": "ym2612"
    },
    {
      "channel": 2,
      "note": 107,
      "start": 11.755,
      "duration": 0.0022,
      "velocity": 107,
      "chip": "ym2612"
    },
    {
      "channel": 2,
      "note": 95,
      "start": 11.7574,
      "duration": 0.0029,
      "velocity": 107,
      "chip": "ym2612"
    },
    {
      "channel": 1,
      "note": 71,
      "start": 11.7602,
      "duration": 0.0038,
      "velocity": 110,
      "chip": "ym2612"
    },
    {
      "channel": 2,
      "note": 107,
      "start": 11.7606,
      "duration": 0.0034,
      "velocity": 107,
      "chip": "ym2612"
    },
    {
      "channel": 4,
      "note": 91,
      "start": 11.7622,
      "duration": 0.0063,
      "velocity": 50,
      "chip": "ym2612"
    },
    {
      "channel": 2,
      "note": 95,
      "start": 11.7642,
      "duration": 0.0022,
      "velocity": 107,
      "chip": "ym2612"
    },
    {
      "channel": 1,
      "note": 59,
      "start": 11.7663,
      "duration": 0.004,
      "velocity": 110,
      "chip": "ym2612"
    },
    {
      "channel": 2,
      "note": 107,
      "start": 11.7667,
      "duration": 0.0039,
      "velocity": 107,
      "chip": "ym2612"
    },
    {
      "channel": 4,
      "note": 79,
      "start": 11.7685,
      "duration": 0.0615,
      "velocity": 100,
      "chip": "ym2612"
    },
    {
      "channel": 1,
      "note": 71,
      "start": 11.7705,
      "duration": 0.005,
      "velocity": 110,
      "chip": "ym2612"
    },
    {
      "channel": 2,
      "note": 95,
      "start": 11.7709,
      "duration": 0.0048,
      "velocity": 107,
      "chip": "ym2612"
    },
    {
      "channel": 0,
      "note": 79,
      "start": 11.7754,
      "duration": 0.0038,
      "velocity": 50,
      "chip": "ym2612"
    },
    {
      "channel": 2,
      "note": 107,
      "start": 11.776,
      "duration": 0.0036,
      "velocity": 107,
      "chip": "ym2612"
    },
    {
      "channel": 3,
      "note": 78,
      "start": 11.7764,
      "duration": 0.0039,
      "velocity": 107,
      "chip": "ym2612"
    },
    {
      "channel": 0,
      "note": 79,
      "start": 11.7793,
      "duration": 0.0042,
      "velocity": 50,
      "chip": "ym2612"
    },
    {
      "channel": 1,
      "note": 71,
      "start": 11.7796,
      "duration": 0.0039,
      "velocity": 110,
      "chip": "ym2612"
    },
    {
      "channel": 2,
      "note": 95,
      "start": 11.78,
      "duration": 0.0037,
      "velocity": 107,
      "chip": "ym2612"
    },
    {
      "channel": 3,
      "note": 78,
      "start": 11.7803,
      "duration": 0.0043,
      "velocity": 107,
      "chip": "ym2612"
    },
    {
      "channel": 0,
      "note": 79,
      "start": 11.7834,
      "duration": 0.0042,
      "velocity": 50,
      "chip": "ym2612"
    },
    {
      "channel": 2,
      "note": 107,
      "start": 11.784,
      "duration": 0.004,
      "velocity": 107,
      "chip": "ym2612"
    },
    {
      "channel": 3,
      "note": 78,
      "start": 11.7846,
      "duration": 0.0041,
      "velocity": 107,
      "chip": "ym2612"
    },
    {
      "channel": 0,
      "note": 79,
      "start": 11.7876,
      "duration": 0.0055,
      "velocity": 50,
      "chip": "ym2612"
    },
    {
      "channel": 1,
      "note": 69,
      "start": 11.7879,
      "duration": 0.0053,
      "velocity": 110,
      "chip": "ym2612"
    },
    {
      "channel": 2,
      "note": 95,
      "start": 11.7883,
      "duration": 0.0052,
      "velocity": 107,
      "chip": "ym2612"
    },
    {
      "channel": 3,
      "note": 78,
      "start": 11.7888,
      "duration": 0.0056,
      "velocity": 107,
      "chip": "ym2612"
    },
    {
      "channel": 0,
      "note": 79,
      "start": 11.7932,
      "duration": 0.0037,
      "velocity": 50,
      "chip": "ym2612"
    },
    {
      "channel": 1,
      "note": 71,
      "start": 11.7935,
      "duration": 0.0028,
      "velocity": 110,
      "chip": "ym2612"
    },
    {
      "channel": 2,
      "note": 107,
      "start": 11.7939,
      "duration": 0.003,
      "velocity": 107,
      "chip": "ym2612"
    },
    {
      "channel": 3,
      "note": 78,
      "start": 11.7945,
      "duration": 0.0028,
      "velocity": 107,
      "chip": "ym2612"
    },
    {
      "channel": 0,
      "note": 79,
      "start": 11.7968,
      "duration": 0.0024,
      "velocity": 50,
      "chip": "ym2612"
    },
    {
      "channel": 2,
      "note": 95,
      "start": 11.7971,
      "duration": 0.0025,
      "velocity": 107,
      "chip": "ym2612"
    },
    {
      "channel": 3,
      "note": 78,
      "start": 11.7973,
      "duration": 0.0032,
      "velocity": 107,
      "chip": "ym2612"
    },
    {
      "channel": 0,
      "note": 79,
      "start": 11.7992,
      "duration": 0.0058,
      "velocity": 50,
      "chip": "ym2612"
    },
    {
      "channel": 1,
      "note": 59,
      "start": 11.7995,
      "duration": 0.0056,
      "velocity": 110,
      "chip": "ym2612"
    },
    {
      "channel": 2,
      "note": 107,
      "start": 11.7999,
      "duration": 0.0055,
      "velocity": 107,
      "chip": "ym2612"
    },
    {
      "channel": 3,
      "note": 78,
      "start": 11.8007,
      "duration": 0.0052,
      "velocity": 107,
      "chip": "ym2612"
    },
    {
      "channel": 0,
      "note": 79,
      "start": 11.805,
      "duration": 0.0075,
      "velocity": 100,
      "chip": "ym2612"
    },
    {
      "channel": 1,
      "note": 59,
      "start": 11.8053,
      "duration": 0.0082,
      "velocity": 92,
      "chip": "ym2612"
    },
    {
      "channel": 2,
      "note": 95,
      "start": 11.8056,
      "duration": 0.0089,
      "velocity": 102,
      "chip": "ym2612"
    },
    {
      "channel": 3,
      "note": 78,
      "start": 11.8059,
      "duration": 0.0101,
      "velocity": 101,
      "chip": "ym2612"
    },
    {
      "channel": 0,
      "note": 72,
      "start": 11.8126,
      "duration": 0.005,
      "velocity": 100,
      "chip": "ym2612"
    },
    {
      "channel": 1,
      "note": 50,
      "start": 11.8136,
      "duration": 0.0043,
      "velocity": 92,
      "chip": "ym2612"
    },
    {
      "channel": 2,
      "note": 95,
      "start": 11.8147,
      "duration": 0.0032,
      "velocity": 102,
      "chip": "ym2612"
    },
    {
      "channel": 3,
      "note": 78,
      "start": 11.8161,
      "duration": 0.002,
      "velocity": 101,
      "chip": "ym2612"
    },
    {
      "channel": 0,
      "note": 93,
      "start": 11.8178,
      "duration": 0.0097,
      "velocity": 100,
      "chip": "ym2612"
    },
    {
      "channel": 1,
      "note": 62,
      "start": 11.8179,
      "duration": 0.008,
      "velocity": 92,
      "chip": "ym2612"
    },
    {
      "channel": 2,
      "note": 70,
      "start": 11.818,
      "duration": 0.0102,
      "velocity": 102,
      "chip": "ym2612"
    },
    {
      "channel": 3,
      "note": 76,
      "start": 11.8181,
      "duration": 0.0105,
      "velocity": 101,
      "chip": "ym2612"
    },
    {
      "channel": 0,
      "note": 92,
      "start": 11.8278,
      "duration": 0.0114,
      "velocity": 100,
      "chip": "ym2612"
    },
    {
      "channel": 1,
      "note": 61,
      "start": 11.8281,
      "duration": 0.011,
      "velocity": 92,
      "chip": "ym2612"
    },
    {
      "channel": 2,
      "note": 69,
      "start": 11.8285,
      "duration": 0.0109,
      "velocity": 102,
      "chip": "ym2612"
    },
    {
      "channel": 3,
      "note": 75,
      "start": 11.8289,
      "duration": 0.0106,
      "velocity": 101,
      "chip": "ym2612"
    },
    {
      "channel": 4,
      "note": 72,
      "start": 11.8302,
      "duration": 0.0024,
      "velocity": 100,
      "chip": "ym2612"
    },
    {
      "channel": 4,
      "note": 93,
      "start": 11.8328,
      "duration": 0.007,
      "velocity": 100,
      "chip": "ym2612"
    },
    {
      "channel": 4,
      "note": 92,
      "start": 11.84,
      "duration": 0.0054,
      "velocity": 100,
      "chip": "ym2612"
    },
    {
      "channel": 0,
      "note": 95,
      "start": 11.8574,
      "duration": 0.1352,
      "velocity": 100,
      "chip": "ym2612"
    },
    {
      "channel": 1,
      "note": 60,
      "start": 11.8577,
      "duration": 0.0179,
      "velocity": 92,
      "chip": "ym2612"
    },
    {
      "channel": 2,
      "note": 72,
      "start": 11.8581,
      "duration": 0.135,
      "velocity": 102,
      "chip": "ym2612"
    },
    {
      "channel": 3,
      "note": 78,
      "start": 11.8585,
      "duration": 0.135,
      "velocity": 101,
      "chip": "ym2612"
    },
    {
      "channel": 4,
      "note": 95,
      "start": 11.8663,
      "duration": 0.3687,
      "velocity": 100,
      "chip": "ym2612"
    },
    {
      "channel": 1,
      "note": 60,
      "start": 11.8756,
      "duration": 0.3953,
      "velocity": 92,
      "chip": "ym2612"
    },
    {
      "channel": 0,
      "note": 95,
      "start": 11.9926,
      "duration": 0.2779,
      "velocity": 95,
      "chip": "ym2612"
    },
    {
      "channel": 2,
      "note": 72,
      "start": 11.9931,
      "duration": 0.278,
      "velocity": 102,
      "chip": "ym2612"
    },
    {
      "channel": 3,
      "note": 78,
      "start": 11.9934,
      "duration": 0.2778,
      "velocity": 101,
      "chip": "ym2612"
    },
    {
      "channel": 4,
      "note": 95,
      "start": 12.235,
      "duration": 0.0368,
      "velocity": 100,
      "chip": "ym2612"
    },
    {
      "channel": 0,
      "note": 59,
      "start": 12.2708,
      "duration": 0.002,
      "velocity": 95,
      "chip": "ym2612"
    },
    {
      "channel": 0,
      "note": 59,
      "start": 12.2734,
      "duration": 0.0024,
      "velocity": 95,
      "chip": "ym2612"
    },
    {
      "channel": 3,
      "note": 59,
      "start": 12.279,
      "duration": 0.0009,
      "velocity": 95,
      "chip": "ym2612"
    },
    {
      "channel": 0,
      "note": 56,
      "start": 12.2805,
      "duration": 0.0457,
      "velocity": 95,
      "chip": "ym2612"
    },
    {
      "channel": 3,
      "note": 59,
      "start": 12.2811,
      "duration": 0.0452,
      "velocity": 95,
      "chip": "ym2612"
    },
    {
      "channel": 3,
      "note": 56,
      "start": 12.3616,
      "duration": 0.0007,
      "velocity": 95,
      "chip": "ym2612"
    }
  ]
}