{
  "track_name": "03 - Lord Zedd",
  "duration_sec": 104.578,
  "sample_rate": 44100,
  "note_count": 467,
  "unique_pitches": 49,
  "pitch_range": 65,
  "avg_note_duration": 1.0237,
  "reconstruction_stats": {
    "notes_reconstructed": 467,
    "keyon_events": 467,
    "keyoff_events": 442,
    "orphan_keyons": 5,
    "unique_pitches": 49,
    "pitch_range": 65,
    "avg_duration_sec": 1.0237
  },
  "metadata": {
    "source": "M\\Mighty Morphin Power Rangers - The Movie\\03 - Lord Zedd.vgz"
  },
  "notes": [
    {
      "channel": 0,
      "note": 65,
      "start": 0.0002,
      "duration": 0.3206,
      "velocity": 97,
      "chip": "ym2612"
    },
    {
      "channel": 1,
      "note": 65,
      "start": 0.002,
      "duration": 0.3192,
      "velocity": 114,
      "chip": "ym2612"
    },
    {
      "channel": 2,
      "note": 58,
      "start": 0.0027,
      "duration": 0.6421,
      "velocity": 112,
      "chip": "ym2612"
    },
    {
      "channel": 3,
      "note": 70,
      "start": 0.0038,
      "duration": 0.6411,
      "velocity": 107,
      "chip": "ym2612"
    },
    {
      "channel": 4,
      "note": 53,
      "start": 0.0048,
      "duration": 0.6403,
      "velocity": 102,
      "chip": "ym2612"
    },
    {
      "channel": 0,
      "note": 68,
      "start": 0.3211,
      "duration": 0.3231,
      "velocity": 97,
      "chip": "ym2612"
    },
    {
      "channel": 1,
      "note": 68,
      "start": 0.3214,
      "duration": 0.3231,
      "velocity": 114,
      "chip": "ym2612"
    },
    {
      "channel": 0,
      "note": 67,
      "start": 0.6444,
      "duration": 0.3059,
      "velocity": 97,
      "chip": "ym2612"
    },
    {
      "channel": 1,
      "note": 67,
      "start": 0.6447,
      "duration": 0.3059,
      "velocity": 114,
      "chip": "ym2612"
    },
    {
      "channel": 2,
      "note": 58,
      "start": 0.6448,
      "duration": 0.627,
      "velocity": 112,
      "chip": "ym2612"
    },
    {
      "channel": 4,
      "note": 53,
      "start": 0.6451,
      "duration": 0.6272,
      "velocity": 102,
      "chip": "ym2612"
    },
    {
      "channel": 0,
      "note": 66,
      "start": 0.9505,
      "duration": 0.3207,
      "velocity": 97,
      "chip": "ym2612"
    },
    {
      "channel": 1,
      "note": 66,
      "start": 0.9507,
      "duration": 0.3209,
      "velocity": 114,
      "chip": "ym2612"
    },
    {
      "channel": 0,
      "note": 65,
      "start": 1.2715,
      "duration": 0.3227,
      "velocity": 97,
      "chip": "ym2612"
    },
    {
      "channel": 1,
      "note": 65,
      "start": 1.2717,
      "duration": 0.3229,
      "velocity": 114,
      "chip": "ym2612"
    },
    {
      "channel": 2,
      "note": 58,
      "start": 1.2719,
      "duration": 0.6296,
      "velocity": 112,
      "chip": "ym2612"
    },
    {
      "channel": 3,
      "note": 70,
      "start": 1.2721,
      "duration": 0.6295,
      "velocity": 107,
      "chip": "ym2612"
    },
    {
      "channel": 4,
      "note": 53,
      "start": 1.2722,
      "duration": 0.6295,
      "velocity": 102,
      "chip": "ym2612"
    },
    {
      "channel": 0,
      "note": 68,
      "start": 1.5945,
      "duration": 0.3064,
      "velocity": 97,
      "chip": "ym2612"
    },
    {
      "channel": 1,
      "note": 68,
      "start": 1.5947,
      "duration": 0.3065,
      "velocity": 114,
      "chip": "ym2612"
    },
    {
      "channel": 0,
      "note": 67,
      "start": 1.9012,
      "duration": 0.32,
      "velocity": 97,
      "chip": "ym2612"
    },
    {
      "channel": 1,
      "note": 67,
      "start": 1.9013,
      "duration": 0.3202,
      "velocity": 114,
      "chip": "ym2612"
    },
    {
      "channel": 2,
      "note": 58,
      "start": 1.9015,
      "duration": 0.6434,
      "velocity": 112,
      "chip": "ym2612"
    },
    {
      "channel": 4,
      "note": 53,
      "start": 1.9017,
      "duration": 0.6442,
      "velocity": 102,
      "chip": "ym2612"
    },
    {
      "channel": 0,
      "note": 66,
      "start": 2.2215,
      "duration": 0.3223,
      "velocity": 97,
      "chip": "ym2612"
    },
    {
      "channel": 1,
      "note": 66,
      "start": 2.2217,
      "duration": 0.3222,
      "velocity": 114,
      "chip": "ym2612"
    },
    {
      "channel": 1,
      "note": 58,
      "start": 2.5442,
      "duration": 0.2702,
      "velocity": 114,
      "chip": "ym2612"
    },
    {
      "channel": 2,
      "note": 58,
      "start": 2.5449,
      "duration": 0.2697,
      "velocity": 112,
      "chip": "ym2612"
    },
    {
      "channel": 3,
      "note": 46,
      "start": 2.5459,
      "duration": 0.269,
      "velocity": 102,
      "chip": "ym2612"
    },
    {
      "channel": 4,
      "note": 53,
      "start": 2.5461,
      "duration": 0.6195,
      "velocity": 102,
      "chip": "ym2612"
    },
    {
      "channel": 1,
      "note": 61,
      "start": 2.8146,
      "duration": 0.0318,
      "velocity": 114,
      "chip": "ym2612"
    },
    {
      "channel": 2,
      "note": 61,
      "start": 2.8148,
      "duration": 0.0319,
      "velocity": 112,
      "chip": "ym2612"
    },
    {
      "channel": 3,
      "note": 49,
      "start": 2.815,
      "duration": 0.0319,
      "velocity": 102,
      "chip": "ym2612"
    },
    {
      "channel": 1,
      "note": 64,
      "start": 2.8467,
      "duration": 0.2852,
      "velocity": 114,
      "chip": "ym2612"
    },
    {
      "channel": 2,
      "note": 64,
      "start": 2.8469,
      "duration": 0.2852,
      "velocity": 112,
      "chip": "ym2612"
    },
    {
      "channel": 3,
      "note": 52,
      "start": 2.8471,
      "duration": 0.2852,
      "velocity": 102,
      "chip": "ym2612"
    },
    {
      "channel": 1,
      "note": 63,
      "start": 3.1321,
      "duration": 0.0242,
      "velocity": 114,
      "chip": "ym2612"
    },
    {
      "channel": 2,
      "note": 63,
      "start": 3.1323,
      "duration": 0.0243,
      "velocity": 112,
      "chip": "ym2612"
    },
    {
      "channel": 3,
      "note": 51,
      "start": 3.1325,
      "duration": 0.0243,
      "velocity": 102,
      "chip": "ym2612"
    },
    {
      "channel": 1,
      "note": 58,
      "start": 3.1565,
      "duration": 0.0084,
      "velocity": 114,
      "chip": "ym2612"
    },
    {
      "channel": 2,
      "note": 58,
      "start": 3.1567,
      "duration": 0.0085,
      "velocity": 112,
      "chip": "ym2612"
    },
    {
      "channel": 3,
      "note": 46,
      "start": 3.1568,
      "duration": 0.0085,
      "velocity": 102,
      "chip": "ym2612"
    },
    {
      "channel": 1,
      "note": 59,
      "start": 3.1651,
      "duration": 0.285,
      "velocity": 114,
      "chip": "ym2612"
    },
    {
      "channel": 2,
      "note": 59,
      "start": 3.1654,
      "duration": 0.285,
      "velocity": 112,
      "chip": "ym2612"
    },
    {
      "channel": 3,
      "note": 47,
      "start": 3.1655,
      "duration": 0.2851,
      "velocity": 102,
      "chip": "ym2612"
    },
    {
      "channel": 4,
      "note": 53,
      "start": 3.1657,
      "duration": 0.6354,
      "velocity": 102,
      "chip": "ym2612"
    },
    {
      "channel": 1,
      "note": 61,
      "start": 3.4503,
      "duration": 0.0349,
      "velocity": 114,
      "chip": "ym2612"
    },
    {
      "channel": 2,
      "note": 61,
      "start": 3.4505,
      "duration": 0.0349,
      "velocity": 112,
      "chip": "ym2612"
    },
    {
      "channel": 3,
      "note": 49,
      "start": 3.4507,
      "duration": 0.0349,
      "velocity": 102,
      "chip": "ym2612"
    },
    {
      "channel": 1,
      "note": 58,
      "start": 3.4853,
      "duration": 0.315,
      "velocity": 114,
      "chip": "ym2612"
    },
    {
      "channel": 2,
      "note": 58,
      "start": 3.4855,
      "duration": 0.315,
      "velocity": 112,
      "chip": "ym2612"
    },
    {
      "channel": 3,
      "note": 46,
      "start": 3.4857,
      "duration": 0.3149,
      "velocity": 102,
      "chip": "ym2612"
    },
    {
      "channel": 1,
      "note": 65,
      "start": 3.8005,
      "duration": 0.2842,
      "velocity": 114,
      "chip": "ym2612"
    },
    {
      "channel": 2,
      "note": 65,
      "start": 3.8006,
      "duration": 0.2843,
      "velocity": 112,
      "chip": "ym2612"
    },
    {
      "channel": 3,
      "note": 53,
      "start": 3.8009,
      "duration": 0.2843,
      "velocity": 102,
      "chip": "ym2612"
    },
    {
      "channel": 4,
      "note": 53,
      "start": 3.8011,
      "duration": 0.6249,
      "velocity": 102,
      "chip": "ym2612"
    },
    {
      "channel": 1,
      "note": 68,
      "start": 4.0849,
      "duration": 0.0367,
      "velocity": 114,
      "chip": "ym2612"
    },
    {
      "channel": 2,
      "note": 68,
      "start": 4.0851,
      "duration": 0.0368,
      "velocity": 112,
      "chip": "ym2612"
    },
    {
      "channel": 3,
      "note": 56,
      "start": 4.0853,
      "duration": 0.0368,
      "velocity": 102,
      "chip": "ym2612"
    },
    {
      "channel": 1,
      "note": 71,
      "start": 4.1218,
      "duration": 0.2687,
      "velocity": 114,
      "chip": "ym2612"
    },
    {
      "channel": 2,
      "note": 71,
      "start": 4.122,
      "duration": 0.2687,
      "velocity": 112,
      "chip": "ym2612"
    },
    {
      "channel": 3,
      "note": 59,
      "start": 4.1223,
      "duration": 0.2687,
      "velocity": 102,
      "chip": "ym2612"
    },
    {
      "channel": 1,
      "note": 70,
      "start": 4.3907,
      "duration": 0.026,
      "velocity": 114,
      "chip": "ym2612"
    },
    {
      "channel": 2,
      "note": 70,
      "start": 4.3909,
      "duration": 0.0261,
      "velocity": 112,
      "chip": "ym2612"
    },
    {
      "channel": 3,
      "note": 58,
      "start": 4.3911,
      "duration": 0.0261,
      "velocity": 102,
      "chip": "ym2612"
    },
    {
      "channel": 1,
      "note": 65,
      "start": 4.4169,
      "duration": 0.0084,
      "velocity": 114,
      "chip": "ym2612"
    },
    {
      "channel": 2,
      "note": 65,
      "start": 4.4171,
      "duration": 0.0083,
      "velocity": 112,
      "chip": "ym2612"
    },
    {
      "channel": 3,
      "note": 53,
      "start": 4.4173,
      "duration": 0.0084,
      "velocity": 102,
      "chip": "ym2612"
    },
    {
      "channel": 1,
      "note": 66,
      "start": 4.4254,
      "duration": 0.2859,
      "velocity": 114,
      "chip": "ym2612"
    },
    {
      "channel": 2,
      "note": 66,
      "start": 4.4256,
      "duration": 0.2859,
      "velocity": 112,
      "chip": "ym2612"
    },
    {
      "channel": 3,
      "note": 54,
      "start": 4.4259,
      "duration": 0.2859,
      "velocity": 102,
      "chip": "ym2612"
    },
    {
      "channel": 4,
      "note": 53,
      "start": 4.426,
      "duration": 0.637,
      "velocity": 102,
      "chip": "ym2612"
    },
    {
      "channel": 1,
      "note": 68,
      "start": 4.7115,
      "duration": 0.0346,
      "velocity": 114,
      "chip": "ym2612"
    },
    {
      "channel": 2,
      "note": 68,
      "start": 4.7117,
      "duration": 0.0346,
      "velocity": 112,
      "chip": "ym2612"
    },
    {
      "channel": 3,
      "note": 56,
      "start": 4.712,
      "duration": 0.0346,
      "velocity": 102,
      "chip": "ym2612"
    },
    {
      "channel": 1,
      "note": 65,
      "start": 4.7463,
      "duration": 0.3156,
      "velocity": 114,
      "chip": "ym2612"
    },
    {
      "channel": 2,
      "note": 65,
      "start": 4.7465,
      "duration": 0.3162,
      "velocity": 102,
      "chip": "ym2612"
    },
    {
      "channel": 3,
      "note": 53,
      "start": 4.7468,
      "duration": 0.3162,
      "velocity": 102,
      "chip": "ym2612"
    },
    {
      "channel": 0,
      "note": 48,
      "start": 5.0618,
      "duration": 1.964,
      "velocity": 114,
      "chip": "ym2612"
    },
    {
      "channel": 1,
      "note": 36,
      "start": 5.062,
      "duration": 1.964,
      "velocity": 114,
      "chip": "ym2612"
    },
    {
      "channel": 2,
      "note": 72,
      "start": 5.0629,
      "duration": 0.3296,
      "velocity": 102,
      "chip": "ym2612"
    },
    {
      "channel": 4,
      "note": 72,
      "start": 5.0632,
      "duration": 0.3297,
      "velocity": 102,
      "chip": "ym2612"
    },
    {
      "channel": 2,
      "note": 75,
      "start": 5.3928,
      "duration": 0.5498,
      "velocity": 102,
      "chip": "ym2612"
    },
    {
      "channel": 4,
      "note": 75,
      "start": 5.3932,
      "duration": 0.5498,
      "velocity": 102,
      "chip": "ym2612"
    },
    {
      "channel": 2,
      "note": 78,
      "start": 5.9428,
      "duration": 0.5498,
      "velocity": 102,
      "chip": "ym2612"
    },
    {
      "channel": 4,
      "note": 78,
      "start": 5.9432,
      "duration": 0.5498,
      "velocity": 102,
      "chip": "ym2612"
    },
    {
      "channel": 2,
      "note": 77,
      "start": 6.4928,
      "duration": 0.3998,
      "velocity": 102,
      "chip": "ym2612"
    },
    {
      "channel": 4,
      "note": 77,
      "start": 6.4932,
      "duration": 0.3998,
      "velocity": 102,
      "chip": "ym2612"
    },
    {
      "channel": 2,
      "note": 72,
      "start": 6.8928,
      "duration": 0.1333,
      "velocity": 102,
      "chip": "ym2612"
    },
    {
      "channel": 4,
      "note": 72,
      "start": 6.8932,
      "duration": 0.1334,
      "velocity": 102,
      "chip": "ym2612"
    },
    {
      "channel": 0,
      "note": 48,
      "start": 7.0258,
      "duration": 2.1838,
      "velocity": 97,
      "chip": "ym2612"
    },
    {
      "channel": 1,
      "note": 36,
      "start": 7.026,
      "duration": 2.1839,
      "velocity": 114,
      "chip": "ym2612"
    },
    {
      "channel": 2,
      "note": 73,
      "start": 7.0263,
      "duration": 0.5495,
      "velocity": 102,
      "chip": "ym2612"
    },
    {
      "channel": 4,
      "note": 73,
      "start": 7.0267,
      "duration": 0.5495,
      "velocity": 102,
      "chip": "ym2612"
    },
    {
      "channel": 2,
      "note": 75,
      "start": 7.5761,
      "duration": 0.5498,
      "velocity": 102,
      "chip": "ym2612"
    },
    {
      "channel": 4,
      "note": 75,
      "start": 7.5765,
      "duration": 0.5498,
      "velocity": 102,
      "chip": "ym2612"
    },
    {
      "channel": 2,
      "note": 72,
      "start": 8.1261,
      "duration": 1.0841,
      "velocity": 102,
      "chip": "ym2612"
    },
    {
      "channel": 4,
      "note": 72,
      "start": 8.1265,
      "duration": 1.085,
      "velocity": 102,
      "chip": "ym2612"
    },
    {
      "channel": 0,
      "note": 59,
      "start": 9.2098,
      "duration": 2.1824,
      "velocity": 97,
      "chip": "ym2612"
    },
    {
      "channel": 1,
      "note": 71,
      "start": 9.2101,
      "duration": 0.549,
      "velocity": 114,
      "chip": "ym2612"
    },
    {
      "channel": 2,
      "note": 71,
      "start": 9.2104,
      "duration": 0.549,
      "velocity": 102,
      "chip": "ym2612"
    },
    {
      "channel": 3,
      "note": 47,
      "start": 9.2114,
      "duration": 2.1817,
      "velocity": 97,
      "chip": "ym2612"
    },
    {
      "channel": 4,
      "note": 59,
      "start": 9.2117,
      "duration": 2.1819,
      "velocity": 102,
      "chip": "ym2612"
    },
    {
      "channel": 1,
      "note": 72,
      "start": 9.7593,
      "duration": 0.5331,
      "velocity": 114,
      "chip": "ym2612"
    },
    {
      "channel": 2,
      "note": 72,
      "start": 9.7596,
      "duration": 0.5331,
      "velocity": 102,
      "chip": "ym2612"
    },
    {
      "channel": 1,
      "note": 74,
      "start": 10.2926,
      "duration": 0.5498,
      "velocity": 114,
      "chip": "ym2612"
    },
    {
      "channel": 2,
      "note": 74,
      "start": 10.2929,
      "duration": 0.5498,
      "velocity": 102,
      "chip": "ym2612"
    },
    {
      "channel": 1,
      "note": 72,
      "start": 10.8426,
      "duration": 0.55,
      "velocity": 114,
      "chip": "ym2612"
    },
    {
      "channel": 2,
      "note": 72,
      "start": 10.8429,
      "duration": 0.5499,
      "velocity": 102,
      "chip": "ym2612"
    },
    {
      "channel": 0,
      "note": 64,
      "start": 11.3925,
      "duration": 2.1831,
      "velocity": 97,
      "chip": "ym2612"
    },
    {
      "channel": 1,
      "note": 71,
      "start": 11.3928,
      "duration": 0.5496,
      "velocity": 114,
      "chip": "ym2612"
    },
    {
      "channel": 2,
      "note": 71,
      "start": 11.3931,
      "duration": 0.5496,
      "velocity": 102,
      "chip": "ym2612"
    },
    {
      "channel": 3,
      "note": 52,
      "start": 11.3934,
      "duration": 2.1831,
      "velocity": 97,
      "chip": "ym2612"
    },
    {
      "channel": 4,
      "note": 59,
      "start": 11.3936,
      "duration": 2.1833,
      "velocity": 102,
      "chip": "ym2612"
    },
    {
      "channel": 1,
      "note": 72,
      "start": 11.9426,
      "duration": 0.5331,
      "velocity": 114,
      "chip": "ym2612"
    },
    {
      "channel": 2,
      "note": 72,
      "start": 11.9429,
      "duration": 0.5331,
      "velocity": 102,
      "chip": "ym2612"
    },
    {
      "channel": 1,
      "note": 74,
      "start": 12.4759,
      "duration": 0.5498,
      "velocity": 114,
      "chip": "ym2612"
    },
    {
      "channel": 2,
      "note": 74,
      "start": 12.4762,
      "duration": 0.5498,
      "velocity": 102,
      "chip": "ym2612"
    },
    {
      "channel": 1,
      "note": 72,
      "start": 13.0259,
      "duration": 0.55,
      "velocity": 114,
      "chip": "ym2612"
    },
    {
      "channel": 2,
      "note": 72,
      "start": 13.0262,
      "duration": 0.5499,
      "velocity": 102,
      "chip": "ym2612"
    },
    {
      "channel": 0,
      "note": 63,
      "start": 13.5759,
      "duration": 2.1664,
      "velocity": 97,
      "chip": "ym2612"
    },
    {
      "channel": 1,
      "note": 83,
      "start": 13.5761,
      "duration": 0.5329,
      "velocity": 114,
      "chip": "ym2612"
    },
    {
      "channel": 2,
      "note": 71,
      "start": 13.5764,
      "duration": 0.5329,
      "velocity": 102,
      "chip": "ym2612"
    },
    {
      "channel": 3,
      "note": 51,
      "start": 13.5767,
      "duration": 2.1664,
      "velocity": 97,
      "chip": "ym2612"
    },
    {
      "channel": 4,
      "note": 59,
      "start": 13.5769,
      "duration": 2.1667,
      "velocity": 102,
      "chip": "ym2612"
    },
    {
      "channel": 1,
      "note": 84,
      "start": 14.1093,
      "duration": 0.5498,
      "velocity": 114,
      "chip": "ym2612"
    },
    {
      "channel": 2,
      "note": 72,
      "start": 14.1096,
      "duration": 0.5498,
      "velocity": 102,
      "chip": "ym2612"
    },
    {
      "channel": 1,
      "note": 86,
      "start": 14.6593,
      "duration": 0.5498,
      "velocity": 114,
      "chip": "ym2612"
    },
    {
      "channel": 2,
      "note": 74,
      "start": 14.6596,
      "duration": 0.5498,
      "velocity": 102,
      "chip": "ym2612"
    },
    {
      "channel": 1,
      "note": 84,
      "start": 15.2093,
      "duration": 0.5333,
      "velocity": 114,
      "chip": "ym2612"
    },
    {
      "channel": 2,
      "note": 72,
      "start": 15.2096,
      "duration": 0.5333,
      "velocity": 102,
      "chip": "ym2612"
    },
    {
      "channel": 0,
      "note": 68,
      "start": 15.7425,
      "duration": 1.0998,
      "velocity": 97,
      "chip": "ym2612"
    },
    {
      "channel": 1,
      "note": 83,
      "start": 15.7428,
      "duration": 1.0998,
      "velocity": 114,
      "chip": "ym2612"
    },
    {
      "channel": 2,
      "note": 71,
      "start": 15.7431,
      "duration": 1.0998,
      "velocity": 102,
      "chip": "ym2612"
    },
    {
      "channel": 3,
      "note": 56,
      "start": 15.7434,
      "duration": 1.0997,
      "velocity": 97,
      "chip": "ym2612"
    },
    {
      "channel": 4,
      "note": 59,
      "start": 15.7437,
      "duration": 1.0997,
      "velocity": 102,
      "chip": "ym2612"
    },
    {
      "channel": 0,
      "note": 67,
      "start": 16.8424,
      "duration": 1.0832,
      "velocity": 97,
      "chip": "ym2612"
    },
    {
      "channel": 1,
      "note": 82,
      "start": 16.8428,
      "duration": 1.083,
      "velocity": 114,
      "chip": "ym2612"
    },
    {
      "channel": 2,
      "note": 70,
      "start": 16.843,
      "duration": 1.083,
      "velocity": 102,
      "chip": "ym2612"
    },
    {
      "channel": 3,
      "note": 55,
      "start": 16.8434,
      "duration": 1.0827,
      "velocity": 97,
      "chip": "ym2612"
    },
    {
      "channel": 4,
      "note": 58,
      "start": 16.8437,
      "duration": 1.0833,
      "velocity": 107,
      "chip": "ym2612"
    },
    {
      "channel": 1,
      "note": 41,
      "start": 17.9259,
      "duration": 0.6275,
      "velocity": 114,
      "chip": "ym2612"
    },
    {
      "channel": 3,
      "note": 65,
      "start": 17.9262,
      "duration": 0.2832,
      "velocity": 97,
      "chip": "ym2612"
    },
    {
      "channel": 4,
      "note": 77,
      "start": 17.9271,
      "duration": 0.6268,
      "velocity": 107,
      "chip": "ym2612"
    },
    {
      "channel": 3,
      "note": 68,
      "start": 18.2096,
      "duration": 0.026,
      "velocity": 97,
      "chip": "ym2612"
    },
    {
      "channel": 3,
      "note": 71,
      "start": 18.2357,
      "duration": 0.2832,
      "velocity": 97,
      "chip": "ym2612"
    },
    {
      "channel": 3,
      "note": 70,
      "start": 18.5191,
      "duration": 0.0261,
      "velocity": 97,
      "chip": "ym2612"
    },
    {
      "channel": 3,
      "note": 65,
      "start": 18.5454,
      "duration": 0.0083,
      "velocity": 97,
      "chip": "ym2612"
    },
    {
      "channel": 0,
      "note": 66,
      "start": 18.5533,
      "duration": 0.2668,
      "velocity": 97,
      "chip": "ym2612"
    },
    {
      "channel": 1,
      "note": 41,
      "start": 18.5536,
      "duration": 0.616,
      "velocity": 114,
      "chip": "ym2612"
    },
    {
      "channel": 3,
      "note": 66,
      "start": 18.5539,
      "duration": 0.2667,
      "velocity": 97,
      "chip": "ym2612"
    },
    {
      "channel": 4,
      "note": 77,
      "start": 18.5541,
      "duration": 0.6175,
      "velocity": 102,
      "chip": "ym2612"
    },
    {
      "channel": 0,
      "note": 68,
      "start": 18.8204,
      "duration": 0.0289,
      "velocity": 97,
      "chip": "ym2612"
    },
    {
      "channel": 3,
      "note": 68,
      "start": 18.8207,
      "duration": 0.029,
      "velocity": 97,
      "chip": "ym2612"
    },
    {
      "channel": 0,
      "note": 65,
      "start": 18.8495,
      "duration": 0.3198,
      "velocity": 97,
      "chip": "ym2612"
    },
    {
      "channel": 3,
      "note": 65,
      "start": 18.8498,
      "duration": 0.3207,
      "velocity": 107,
      "chip": "ym2612"
    },
    {
      "channel": 1,
      "note": 72,
      "start": 19.1697,
      "duration": 0.2824,
      "velocity": 114,
      "chip": "ym2612"
    },
    {
      "channel": 3,
      "note": 72,
      "start": 19.1707,
      "duration": 1.3966,
      "velocity": 107,
      "chip": "ym2612"
    },
    {
      "channel": 1,
      "note": 75,
      "start": 19.4523,
      "duration": 0.5498,
      "velocity": 114,
      "chip": "ym2612"
    },
    {
      "channel": 1,
      "note": 78,
      "start": 20.0023,
      "duration": 0.5332,
      "velocity": 114,
      "chip": "ym2612"
    },
    {
      "channel": 1,
      "note": 77,
      "start": 20.5357,
      "duration": 0.023,
      "velocity": 114,
      "chip": "ym2612"
    },
    {
      "channel": 1,
      "note": 72,
      "start": 20.5588,
      "duration": 0.0082,
      "velocity": 114,
      "chip": "ym2612"
    },
    {
      "channel": 0,
      "note": 73,
      "start": 20.567,
      "duration": 0.2835,
      "velocity": 97,
      "chip": "ym2612"
    },
    {
      "channel": 1,
      "note": 73,
      "start": 20.5672,
      "duration": 0.2835,
      "velocity": 114,
      "chip": "ym2612"
    },
    {
      "channel": 3,
      "note": 72,
      "start": 20.5674,
      "duration": 1.4041,
      "velocity": 101,
      "chip": "ym2612"
    },
    {
      "channel": 4,
      "note": 61,
      "start": 20.5677,
      "duration": 0.2834,
      "velocity": 102,
      "chip": "ym2612"
    },
    {
      "channel": 0,
      "note": 75,
      "start": 20.8506,
      "duration": 0.5498,
      "velocity": 97,
      "chip": "ym2612"
    },
    {
      "channel": 1,
      "note": 75,
      "start": 20.851,
      "duration": 0.5498,
      "velocity": 114,
      "chip": "ym2612"
    },
    {
      "channel": 4,
      "note": 63,
      "start": 20.8513,
      "duration": 0.5498,
      "velocity": 102,
      "chip": "ym2612"
    },
    {
      "channel": 0,
      "note": 72,
      "start": 21.4006,
      "duration": 0.5695,
      "velocity": 97,
      "chip": "ym2612"
    },
    {
      "channel": 1,
      "note": 72,
      "start": 21.401,
      "duration": 0.5696,
      "velocity": 114,
      "chip": "ym2612"
    },
    {
      "channel": 4,
      "note": 60,
      "start": 21.4013,
      "duration": 0.5705,
      "velocity": 102,
      "chip": "ym2612"
    },
    {
      "channel": 2,
      "note": 84,
      "start": 21.9342,
      "duration": 0.0363,
      "velocity": 102,
      "chip": "ym2612"
    },
    {
      "channel": 0,
      "note": 41,
      "start": 21.9705,
      "duration": 0.6354,
      "velocity": 97,
      "chip": "ym2612"
    },
    {
      "channel": 2,
      "note": 89,
      "start": 21.9707,
      "duration": 0.2846,
      "velocity": 102,
      "chip": "ym2612"
    },
    {
      "channel": 3,
      "note": 65,
      "start": 21.9717,
      "duration": 0.1002,
      "velocity": 101,
      "chip": "ym2612"
    },
    {
      "channel": 3,
      "note": 65,
      "start": 22.0721,
      "duration": 0.1834,
      "velocity": 101,
      "chip": "ym2612"
    },
    {
      "channel": 1,
      "note": 96,
      "start": 22.2553,
      "duration": 0.0328,
      "velocity": 114,
      "chip": "ym2612"
    },
    {
      "channel": 2,
      "note": 92,
      "start": 22.2554,
      "duration": 0.0328,
      "velocity": 102,
      "chip": "ym2612"
    },
    {
      "channel": 3,
      "note": 72,
      "start": 22.2557,
      "duration": 0.0095,
      "velocity": 101,
      "chip": "ym2612"
    },
    {
      "channel": 3,
      "note": 65,
      "start": 22.2654,
      "duration": 0.0112,
      "velocity": 101,
      "chip": "ym2612"
    },
    {
      "channel": 3,
      "note": 72,
      "start": 22.2767,
      "duration": 0.0118,
      "velocity": 101,
      "chip": "ym2612"
    },
    {
      "channel": 1,
      "note": 101,
      "start": 22.2882,
      "duration": 0.2843,
      "velocity": 114,
      "chip": "ym2612"
    },
    {
      "channel": 2,
      "note": 95,
      "start": 22.2884,
      "duration": 0.2843,
      "velocity": 102,
      "chip": "ym2612"
    },
    {
      "channel": 3,
      "note": 77,
      "start": 22.2887,
      "duration": 0.2842,
      "velocity": 101,
      "chip": "ym2612"
    },
    {
      "channel": 1,
      "note": 96,
      "start": 22.5727,
      "duration": 0.0336,
      "velocity": 114,
      "chip": "ym2612"
    },
    {
      "channel": 2,
      "note": 94,
      "start": 22.5728,
      "duration": 0.0241,
      "velocity": 102,
      "chip": "ym2612"
    },
    {
      "channel": 3,
      "note": 72,
      "start": 22.5731,
      "duration": 0.0334,
      "velocity": 101,
      "chip": "ym2612"
    },
    {
      "channel": 2,
      "note": 89,
      "start": 22.5971,
      "duration": 0.0091,
      "velocity": 102,
      "chip": "ym2612"
    },
    {
      "channel": 0,
      "note": 41,
      "start": 22.6061,
      "duration": 0.6205,
      "velocity": 97,
      "chip": "ym2612"
    },
    {
      "channel": 2,
      "note": 90,
      "start": 22.6065,
      "duration": 0.2667,
      "velocity": 102,
      "chip": "ym2612"
    },
    {
      "channel": 3,
      "note": 65,
      "start": 22.6067,
      "duration": 0.0831,
      "velocity": 101,
      "chip": "ym2612"
    },
    {
      "channel": 3,
      "note": 65,
      "start": 22.69,
      "duration": 0.1834,
      "velocity": 101,
      "chip": "ym2612"
    },
    {
      "channel": 1,
      "note": 96,
      "start": 22.8731,
      "duration": 0.0361,
      "velocity": 114,
      "chip": "ym2612"
    },
    {
      "channel": 2,
      "note": 92,
      "start": 22.8733,
      "duration": 0.0361,
      "velocity": 102,
      "chip": "ym2612"
    },
    {
      "channel": 3,
      "note": 72,
      "start": 22.8735,
      "duration": 0.0113,
      "velocity": 101,
      "chip": "ym2612"
    },
    {
      "channel": 3,
      "note": 65,
      "start": 22.885,
      "duration": 0.0119,
      "velocity": 101,
      "chip": "ym2612"
    },
    {
      "channel": 3,
      "note": 72,
      "start": 22.897,
      "duration": 0.0126,
      "velocity": 101,
      "chip": "ym2612"
    },
    {
      "channel": 1,
      "note": 99,
      "start": 22.9094,
      "duration": 0.2844,
      "velocity": 114,
      "chip": "ym2612"
    },
    {
      "channel": 2,
      "note": 89,
      "start": 22.9096,
      "duration": 0.3183,
      "velocity": 114,
      "chip": "ym2612"
    },
    {
      "channel": 3,
      "note": 75,
      "start": 22.9098,
      "duration": 0.2843,
      "velocity": 101,
      "chip": "ym2612"
    },
    {
      "channel": 1,
      "note": 96,
      "start": 23.1939,
      "duration": 0.033,
      "velocity": 114,
      "chip": "ym2612"
    },
    {
      "channel": 3,
      "note": 72,
      "start": 23.1942,
      "duration": 0.0347,
      "velocity": 114,
      "chip": "ym2612"
    },
    {
      "channel": 0,
      "note": 85,
      "start": 23.2268,
      "duration": 0.3481,
      "velocity": 97,
      "chip": "ym2612"
    },
    {
      "channel": 1,
      "note": 88,
      "start": 23.2271,
      "duration": 0.3481,
      "velocity": 114,
      "chip": "ym2612"
    },
    {
      "channel": 2,
      "note": 52,
      "start": 23.228,
      "duration": 0.8974,
      "velocity": 114,
      "chip": "ym2612"
    },
    {
      "channel": 3,
      "note": 64,
      "start": 23.229,
      "duration": 0.8968,
      "velocity": 114,
      "chip": "ym2612"
    },
    {
      "channel": 0,
      "note": 87,
      "start": 23.5751,
      "duration": 0.5498,
      "velocity": 97,
      "chip": "ym2612"
    },
    {
      "channel": 1,
      "note": 90,
      "start": 23.5754,
      "duration": 0.5498,
      "velocity": 114,
      "chip": "ym2612"
    },
    {
      "channel": 0,
      "note": 84,
      "start": 24.1251,
      "duration": 1.0832,
      "velocity": 97,
      "chip": "ym2612"
    },
    {
      "channel": 1,
      "note": 87,
      "start": 24.1254,
      "duration": 1.0832,
      "velocity": 114,
      "chip": "ym2612"
    },
    {
      "channel": 2,
      "note": 51,
      "start": 24.1257,
      "duration": 1.0832,
      "velocity": 114,
      "chip": "ym2612"
    },
    {
      "channel": 3,
      "note": 63,
      "start": 24.126,
      "duration": 1.0831,
      "velocity": 114,
      "chip": "ym2612"
    },
    {
      "channel": 0,
      "note": 83,
      "start": 25.2085,
      "duration": 0.5498,
      "velocity": 97,
      "chip": "ym2612"
    },
    {
      "channel": 1,
      "note": 86,
      "start": 25.2088,
      "duration": 0.5498,
      "velocity": 114,
      "chip": "ym2612"
    },
    {
      "channel": 2,
      "note": 50,
      "start": 25.2091,
      "duration": 1.0831,
      "velocity": 114,
      "chip": "ym2612"
    },
    {
      "channel": 3,
      "note": 62,
      "start": 25.2094,
      "duration": 1.0831,
      "velocity": 114,
      "chip": "ym2612"
    },
    {
      "channel": 0,
      "note": 85,
      "start": 25.7584,
      "duration": 0.5332,
      "velocity": 97,
      "chip": "ym2612"
    },
    {
      "channel": 1,
      "note": 88,
      "start": 25.7588,
      "duration": 0.5331,
      "velocity": 114,
      "chip": "ym2612"
    },
    {
      "channel": 0,
      "note": 82,
      "start": 26.2918,
      "duration": 1.0998,
      "velocity": 97,
      "chip": "ym2612"
    },
    {
      "channel": 1,
      "note": 85,
      "start": 26.2921,
      "duration": 1.0998,
      "velocity": 114,
      "chip": "ym2612"
    },
    {
      "channel": 2,
      "note": 49,
      "start": 26.2923,
      "duration": 1.0998,
      "velocity": 114,
      "chip": "ym2612"
    },
    {
      "channel": 3,
      "note": 61,
      "start": 26.2927,
      "duration": 1.0998,
      "velocity": 114,
      "chip": "ym2612"
    },
    {
      "channel": 0,
      "note": 81,
      "start": 27.3918,
      "duration": 2.1831,
      "velocity": 97,
      "chip": "ym2612"
    },
    {
      "channel": 1,
      "note": 84,
      "start": 27.3921,
      "duration": 2.1832,
      "velocity": 114,
      "chip": "ym2612"
    },
    {
      "channel": 2,
      "note": 48,
      "start": 27.3924,
      "duration": 2.1831,
      "velocity": 114,
      "chip": "ym2612"
    },
    {
      "channel": 3,
      "note": 60,
      "start": 27.3927,
      "duration": 2.1831,
      "velocity": 114,
      "chip": "ym2612"
    },
    {
      "channel": 0,
      "note": 80,
      "start": 29.5752,
      "duration": 2.1672,
      "velocity": 97,
      "chip": "ym2612"
    },
    {
      "channel": 1,
      "note": 83,
      "start": 29.5754,
      "duration": 2.1686,
      "velocity": 114,
      "chip": "ym2612"
    },
    {
      "channel": 2,
      "note": 47,
      "start": 29.5757,
      "duration": 2.1692,
      "velocity": 112,
      "chip": "ym2612"
    },
    {
      "channel": 3,
      "note": 59,
      "start": 29.576,
      "duration": 2.1699,
      "velocity": 107,
      "chip": "ym2612"
    },
    {
      "channel": 0,
      "note": 65,
      "start": 31.7425,
      "duration": 0.3216,
      "velocity": 97,
      "chip": "ym2612"
    },
    {
      "channel": 1,
      "note": 65,
      "start": 31.7441,
      "duration": 0.3203,
      "velocity": 114,
      "chip": "ym2612"
    },
    {
      "channel": 2,
      "note": 58,
      "start": 31.7451,
      "duration": 0.6259,
      "velocity": 112,
      "chip": "ym2612"
    },
    {
      "channel": 3,
      "note": 70,
      "start": 31.7461,
      "duration": 0.6249,
      "velocity": 107,
      "chip": "ym2612"
    },
    {
      "channel": 4,
      "note": 65,
      "start": 31.747,
      "duration": 0.3178,
      "velocity": 97,
      "chip": "ym2612"
    },
    {
      "channel": 0,
      "note": 68,
      "start": 32.0643,
      "duration": 0.306,
      "velocity": 97,
      "chip": "ym2612"
    },
    {
      "channel": 1,
      "note": 68,
      "start": 32.0646,
      "duration": 0.3061,
      "velocity": 114,
      "chip": "ym2612"
    },
    {
      "channel": 4,
      "note": 68,
      "start": 32.065,
      "duration": 0.3061,
      "velocity": 97,
      "chip": "ym2612"
    },
    {
      "channel": 0,
      "note": 67,
      "start": 32.3706,
      "duration": 0.3196,
      "velocity": 97,
      "chip": "ym2612"
    },
    {
      "channel": 1,
      "note": 67,
      "start": 32.3708,
      "duration": 0.3198,
      "velocity": 114,
      "chip": "ym2612"
    },
    {
      "channel": 2,
      "note": 58,
      "start": 32.371,
      "duration": 0.6418,
      "velocity": 112,
      "chip": "ym2612"
    },
    {
      "channel": 4,
      "note": 67,
      "start": 32.3713,
      "duration": 0.3195,
      "velocity": 97,
      "chip": "ym2612"
    },
    {
      "channel": 0,
      "note": 66,
      "start": 32.6905,
      "duration": 0.3217,
      "velocity": 97,
      "chip": "ym2612"
    },
    {
      "channel": 1,
      "note": 66,
      "start": 32.6907,
      "duration": 0.3218,
      "velocity": 114,
      "chip": "ym2612"
    },
    {
      "channel": 4,
      "note": 66,
      "start": 32.691,
      "duration": 0.3221,
      "velocity": 97,
      "chip": "ym2612"
    },
    {
      "channel": 0,
      "note": 65,
      "start": 33.0123,
      "duration": 0.3055,
      "velocity": 97,
      "chip": "ym2612"
    },
    {
      "channel": 1,
      "note": 65,
      "start": 33.0126,
      "duration": 0.3056,
      "velocity": 114,
      "chip": "ym2612"
    },
    {
      "channel": 2,
      "note": 58,
      "start": 33.0128,
      "duration": 0.6276,
      "velocity": 112,
      "chip": "ym2612"
    },
    {
      "channel": 3,
      "note": 70,
      "start": 33.013,
      "duration": 0.6275,
      "velocity": 107,
      "chip": "ym2612"
    },
    {
      "channel": 4,
      "note": 65,
      "start": 33.0132,
      "duration": 0.3053,
      "velocity": 97,
      "chip": "ym2612"
    },
    {
      "channel": 0,
      "note": 68,
      "start": 33.3181,
      "duration": 0.3216,
      "velocity": 97,
      "chip": "ym2612"
    },
    {
      "channel": 1,
      "note": 68,
      "start": 33.3183,
      "duration": 0.3218,
      "velocity": 114,
      "chip": "ym2612"
    },
    {
      "channel": 4,
      "note": 68,
      "start": 33.3186,
      "duration": 0.3219,
      "velocity": 97,
      "chip": "ym2612"
    },
    {
      "channel": 0,
      "note": 67,
      "start": 33.64,
      "duration": 0.3206,
      "velocity": 97,
      "chip": "ym2612"
    },
    {
      "channel": 1,
      "note": 67,
      "start": 33.6403,
      "duration": 0.3206,
      "velocity": 114,
      "chip": "ym2612"
    },
    {
      "channel": 2,
      "note": 58,
      "start": 33.6404,
      "duration": 0.6263,
      "velocity": 112,
      "chip": "ym2612"
    },
    {
      "channel": 4,
      "note": 67,
      "start": 33.6407,
      "duration": 0.3205,
      "velocity": 97,
      "chip": "ym2612"
    },
    {
      "channel": 0,
      "note": 66,
      "start": 33.9608,
      "duration": 0.3048,
      "velocity": 97,
      "chip": "ym2612"
    },
    {
      "channel": 1,
      "note": 66,
      "start": 33.961,
      "duration": 0.3048,
      "velocity": 114,
      "chip": "ym2612"
    },
    {
      "channel": 4,
      "note": 66,
      "start": 33.9614,
      "duration": 0.3065,
      "velocity": 97,
      "chip": "ym2612"
    },
    {
      "channel": 1,
      "note": 58,
      "start": 34.266,
      "duration": 0.2846,
      "velocity": 114,
      "chip": "ym2612"
    },
    {
      "channel": 2,
      "note": 58,
      "start": 34.2668,
      "duration": 0.284,
      "velocity": 112,
      "chip": "ym2612"
    },
    {
      "channel": 3,
      "note": 46,
      "start": 34.2678,
      "duration": 0.2833,
      "velocity": 102,
      "chip": "ym2612"
    },
    {
      "channel": 1,
      "note": 61,
      "start": 34.5508,
      "duration": 0.0305,
      "velocity": 114,
      "chip": "ym2612"
    },
    {
      "channel": 2,
      "note": 61,
      "start": 34.551,
      "duration": 0.0305,
      "velocity": 112,
      "chip": "ym2612"
    },
    {
      "channel": 3,
      "note": 49,
      "start": 34.5512,
      "duration": 0.0305,
      "velocity": 102,
      "chip": "ym2612"
    },
    {
      "channel": 1,
      "note": 64,
      "start": 34.5814,
      "duration": 0.2841,
      "velocity": 114,
      "chip": "ym2612"
    },
    {
      "channel": 2,
      "note": 64,
      "start": 34.5816,
      "duration": 0.2841,
      "velocity": 112,
      "chip": "ym2612"
    },
    {
      "channel": 3,
      "note": 52,
      "start": 34.5818,
      "duration": 0.2842,
      "velocity": 102,
      "chip": "ym2612"
    },
    {
      "channel": 1,
      "note": 63,
      "start": 34.8657,
      "duration": 0.0263,
      "velocity": 114,
      "chip": "ym2612"
    },
    {
      "channel": 2,
      "note": 63,
      "start": 34.8659,
      "duration": 0.0264,
      "velocity": 112,
      "chip": "ym2612"
    },
    {
      "channel": 3,
      "note": 51,
      "start": 34.8661,
      "duration": 0.0264,
      "velocity": 102,
      "chip": "ym2612"
    },
    {
      "channel": 1,
      "note": 58,
      "start": 34.8923,
      "duration": 0.0087,
      "velocity": 114,
      "chip": "ym2612"
    },
    {
      "channel": 2,
      "note": 58,
      "start": 34.8925,
      "duration": 0.0087,
      "velocity": 112,
      "chip": "ym2612"
    },
    {
      "channel": 3,
      "note": 46,
      "start": 34.8927,
      "duration": 0.0086,
      "velocity": 102,
      "chip": "ym2612"
    },
    {
      "channel": 1,
      "note": 59,
      "start": 34.9011,
      "duration": 0.2835,
      "velocity": 114,
      "chip": "ym2612"
    },
    {
      "channel": 2,
      "note": 59,
      "start": 34.9013,
      "duration": 0.2836,
      "velocity": 112,
      "chip": "ym2612"
    },
    {
      "channel": 3,
      "note": 47,
      "start": 34.9015,
      "duration": 0.2836,
      "velocity": 102,
      "chip": "ym2612"
    },
    {
      "channel": 1,
      "note": 61,
      "start": 35.1848,
      "duration": 0.0284,
      "velocity": 114,
      "chip": "ym2612"
    },
    {
      "channel": 2,
      "note": 61,
      "start": 35.1851,
      "duration": 0.0285,
      "velocity": 112,
      "chip": "ym2612"
    },
    {
      "channel": 3,
      "note": 49,
      "start": 35.1853,
      "duration": 0.0285,
      "velocity": 102,
      "chip": "ym2612"
    },
    {
      "channel": 1,
      "note": 58,
      "start": 35.2135,
      "duration": 0.319,
      "velocity": 114,
      "chip": "ym2612"
    },
    {
      "channel": 2,
      "note": 58,
      "start": 35.2137,
      "duration": 0.319,
      "velocity": 112,
      "chip": "ym2612"
    },
    {
      "channel": 3,
      "note": 46,
      "start": 35.214,
      "duration": 0.319,
      "velocity": 102,
      "chip": "ym2612"
    },
    {
      "channel": 1,
      "note": 65,
      "start": 35.5327,
      "duration": 0.2661,
      "velocity": 114,
      "chip": "ym2612"
    },
    {
      "channel": 2,
      "note": 65,
      "start": 35.5329,
      "duration": 0.2661,
      "velocity": 112,
      "chip": "ym2612"
    },
    {
      "channel": 3,
      "note": 53,
      "start": 35.533,
      "duration": 0.2662,
      "velocity": 102,
      "chip": "ym2612"
    },
    {
      "channel": 1,
      "note": 68,
      "start": 35.799,
      "duration": 0.0281,
      "velocity": 114,
      "chip": "ym2612"
    },
    {
      "channel": 2,
      "note": 68,
      "start": 35.7992,
      "duration": 0.0282,
      "velocity": 112,
      "chip": "ym2612"
    },
    {
      "channel": 3,
      "note": 56,
      "start": 35.7994,
      "duration": 0.0281,
      "velocity": 102,
      "chip": "ym2612"
    },
    {
      "channel": 1,
      "note": 71,
      "start": 35.8273,
      "duration": 0.2851,
      "velocity": 114,
      "chip": "ym2612"
    },
    {
      "channel": 2,
      "note": 71,
      "start": 35.8275,
      "duration": 0.2851,
      "velocity": 112,
      "chip": "ym2612"
    },
    {
      "channel": 3,
      "note": 59,
      "start": 35.8277,
      "duration": 0.2852,
      "velocity": 102,
      "chip": "ym2612"
    },
    {
      "channel": 1,
      "note": 70,
      "start": 36.1126,
      "duration": 0.0251,
      "velocity": 114,
      "chip": "ym2612"
    },
    {
      "channel": 2,
      "note": 70,
      "start": 36.1128,
      "duration": 0.0251,
      "velocity": 112,
      "chip": "ym2612"
    },
    {
      "channel": 3,
      "note": 58,
      "start": 36.113,
      "duration": 0.0251,
      "velocity": 102,
      "chip": "ym2612"
    },
    {
      "channel": 1,
      "note": 65,
      "start": 36.1378,
      "duration": 0.0079,
      "velocity": 114,
      "chip": "ym2612"
    },
    {
      "channel": 2,
      "note": 65,
      "start": 36.138,
      "duration": 0.0079,
      "velocity": 112,
      "chip": "ym2612"
    },
    {
      "channel": 3,
      "note": 53,
      "start": 36.1382,
      "duration": 0.008,
      "velocity": 102,
      "chip": "ym2612"
    },
    {
      "channel": 1,
      "note": 66,
      "start": 36.1459,
      "duration": 0.284,
      "velocity": 114,
      "chip": "ym2612"
    },
    {
      "channel": 2,
      "note": 66,
      "start": 36.1461,
      "duration": 0.284,
      "velocity": 112,
      "chip": "ym2612"
    },
    {
      "channel": 3,
      "note": 54,
      "start": 36.1463,
      "duration": 0.284,
      "velocity": 102,
      "chip": "ym2612"
    },
    {
      "channel": 1,
      "note": 68,
      "start": 36.43,
      "duration": 0.0279,
      "velocity": 114,
      "chip": "ym2612"
    },
    {
      "channel": 2,
      "note": 68,
      "start": 36.4303,
      "duration": 0.0279,
      "velocity": 112,
      "chip": "ym2612"
    },
    {
      "channel": 3,
      "note": 56,
      "start": 36.4305,
      "duration": 0.0279,
      "velocity": 102,
      "chip": "ym2612"
    },
    {
      "channel": 1,
      "note": 65,
      "start": 36.4581,
      "duration": 0.3025,
      "velocity": 114,
      "chip": "ym2612"
    },
    {
      "channel": 2,
      "note": 65,
      "start": 36.4584,
      "duration": 0.3032,
      "velocity": 102,
      "chip": "ym2612"
    },
    {
      "channel": 3,
      "note": 53,
      "start": 36.4586,
      "duration": 0.3031,
      "velocity": 102,
      "chip": "ym2612"
    },
    {
      "channel": 0,
      "note": 48,
      "start": 36.7606,
      "duration": 1.9803,
      "velocity": 114,
      "chip": "ym2612"
    },
    {
      "channel": 1,
      "note": 36,
      "start": 36.7608,
      "duration": 1.9803,
      "velocity": 114,
      "chip": "ym2612"
    },
    {
      "channel": 2,
      "note": 72,
      "start": 36.7617,
      "duration": 0.3459,
      "velocity": 102,
      "chip": "ym2612"
    },
    {
      "channel": 4,
      "note": 48,
      "start": 36.7626,
      "duration": 1.9792,
      "velocity": 114,
      "chip": "ym2612"
    },
    {
      "channel": 2,
      "note": 75,
      "start": 37.1079,
      "duration": 0.5331,
      "velocity": 102,
      "chip": "ym2612"
    },
    {
      "channel": 2,
      "note": 78,
      "start": 37.6412,
      "duration": 0.5498,
      "velocity": 102,
      "chip": "ym2612"
    },
    {
      "channel": 2,
      "note": 77,
      "start": 38.1912,
      "duration": 0.4164,
      "velocity": 102,
      "chip": "ym2612"
    },
    {
      "channel": 2,
      "note": 72,
      "start": 38.6079,
      "duration": 0.1333,
      "velocity": 102,
      "chip": "ym2612"
    },
    {
      "channel": 0,
      "note": 48,
      "start": 38.7409,
      "duration": 2.1671,
      "velocity": 97,
      "chip": "ym2612"
    },
    {
      "channel": 1,
      "note": 36,
      "start": 38.7411,
      "duration": 2.1672,
      "velocity": 114,
      "chip": "ym2612"
    },
    {
      "channel": 2,
      "note": 73,
      "start": 38.7414,
      "duration": 0.5329,
      "velocity": 102,
      "chip": "ym2612"
    },
    {
      "channel": 4,
      "note": 48,
      "start": 38.7418,
      "duration": 2.1689,
      "velocity": 97,
      "chip": "ym2612"
    },
    {
      "channel": 2,
      "note": 75,
      "start": 39.2746,
      "duration": 0.5498,
      "velocity": 102,
      "chip": "ym2612"
    },
    {
      "channel": 2,
      "note": 72,
      "start": 39.8246,
      "duration": 1.0841,
      "velocity": 102,
      "chip": "ym2612"
    },
    {
      "channel": 0,
      "note": 59,
      "start": 40.9083,
      "duration": 2.1824,
      "velocity": 97,
      "chip": "ym2612"
    },
    {
      "channel": 1,
      "note": 71,
      "start": 40.9085,
      "duration": 0.549,
      "velocity": 114,
      "chip": "ym2612"
    },
    {
      "channel": 2,
      "note": 71,
      "start": 40.9088,
      "duration": 0.549,
      "velocity": 102,
      "chip": "ym2612"
    },
    {
      "channel": 3,
      "note": 47,
      "start": 40.9099,
      "duration": 2.1817,
      "velocity": 97,
      "chip": "ym2612"
    },
    {
      "channel": 4,
      "note": 59,
      "start": 40.911,
      "duration": 2.1809,
      "velocity": 97,
      "chip": "ym2612"
    },
    {
      "channel": 1,
      "note": 72,
      "start": 41.4577,
      "duration": 0.5498,
      "velocity": 114,
      "chip": "ym2612"
    },
    {
      "channel": 2,
      "note": 72,
      "start": 41.458,
      "duration": 0.5498,
      "velocity": 102,
      "chip": "ym2612"
    },
    {
      "channel": 1,
      "note": 74,
      "start": 42.0077,
      "duration": 0.5498,
      "velocity": 114,
      "chip": "ym2612"
    },
    {
      "channel": 2,
      "note": 74,
      "start": 42.008,
      "duration": 0.5498,
      "velocity": 102,
      "chip": "ym2612"
    },
    {
      "channel": 1,
      "note": 72,
      "start": 42.5577,
      "duration": 0.5333,
      "velocity": 114,
      "chip": "ym2612"
    },
    {
      "channel": 2,
      "note": 72,
      "start": 42.558,
      "duration": 0.5333,
      "velocity": 102,
      "chip": "ym2612"
    },
    {
      "channel": 0,
      "note": 64,
      "start": 43.091,
      "duration": 2.1831,
      "velocity": 97,
      "chip": "ym2612"
    },
    {
      "channel": 1,
      "note": 71,
      "start": 43.0912,
      "duration": 0.5496,
      "velocity": 114,
      "chip": "ym2612"
    },
    {
      "channel": 2,
      "note": 71,
      "start": 43.0915,
      "duration": 0.5496,
      "velocity": 102,
      "chip": "ym2612"
    },
    {
      "channel": 3,
      "note": 52,
      "start": 43.0918,
      "duration": 2.1831,
      "velocity": 97,
      "chip": "ym2612"
    },
    {
      "channel": 4,
      "note": 64,
      "start": 43.0921,
      "duration": 2.1831,
      "velocity": 97,
      "chip": "ym2612"
    },
    {
      "channel": 1,
      "note": 72,
      "start": 43.641,
      "duration": 0.5498,
      "velocity": 114,
      "chip": "ym2612"
    },
    {
      "channel": 2,
      "note": 72,
      "start": 43.6414,
      "duration": 0.5498,
      "velocity": 102,
      "chip": "ym2612"
    },
    {
      "channel": 1,
      "note": 74,
      "start": 44.191,
      "duration": 0.5331,
      "velocity": 114,
      "chip": "ym2612"
    },
    {
      "channel": 2,
      "note": 74,
      "start": 44.1914,
      "duration": 0.5331,
      "velocity": 102,
      "chip": "ym2612"
    },
    {
      "channel": 1,
      "note": 72,
      "start": 44.7244,
      "duration": 0.55,
      "velocity": 114,
      "chip": "ym2612"
    },
    {
      "channel": 2,
      "note": 72,
      "start": 44.7247,
      "duration": 0.5499,
      "velocity": 102,
      "chip": "ym2612"
    },
    {
      "channel": 0,
      "note": 63,
      "start": 45.2743,
      "duration": 2.1831,
      "velocity": 97,
      "chip": "ym2612"
    },
    {
      "channel": 1,
      "note": 83,
      "start": 45.2746,
      "duration": 0.5496,
      "velocity": 114,
      "chip": "ym2612"
    },
    {
      "channel": 2,
      "note": 71,
      "start": 45.2749,
      "duration": 0.5496,
      "velocity": 102,
      "chip": "ym2612"
    },
    {
      "channel": 3,
      "note": 51,
      "start": 45.2752,
      "duration": 2.1831,
      "velocity": 97,
      "chip": "ym2612"
    },
    {
      "channel": 4,
      "note": 63,
      "start": 45.2755,
      "duration": 2.1831,
      "velocity": 97,
      "chip": "ym2612"
    },
    {
      "channel": 1,
      "note": 84,
      "start": 45.8244,
      "duration": 0.5331,
      "velocity": 114,
      "chip": "ym2612"
    },
    {
      "channel": 2,
      "note": 72,
      "start": 45.8247,
      "duration": 0.5331,
      "velocity": 102,
      "chip": "ym2612"
    },
    {
      "channel": 1,
      "note": 86,
      "start": 46.3577,
      "duration": 0.5498,
      "velocity": 114,
      "chip": "ym2612"
    },
    {
      "channel": 2,
      "note": 74,
      "start": 46.358,
      "duration": 0.5498,
      "velocity": 102,
      "chip": "ym2612"
    },
    {
      "channel": 1,
      "note": 84,
      "start": 46.9077,
      "duration": 0.55,
      "velocity": 114,
      "chip": "ym2612"
    },
    {
      "channel": 2,
      "note": 72,
      "start": 46.908,
      "duration": 0.5499,
      "velocity": 102,
      "chip": "ym2612"
    },
    {
      "channel": 0,
      "note": 68,
      "start": 47.4576,
      "duration": 1.0831,
      "velocity": 97,
      "chip": "ym2612"
    },
    {
      "channel": 1,
      "note": 83,
      "start": 47.4579,
      "duration": 1.0831,
      "velocity": 114,
      "chip": "ym2612"
    },
    {
      "channel": 2,
      "note": 71,
      "start": 47.4582,
      "duration": 1.0831,
      "velocity": 102,
      "chip": "ym2612"
    },
    {
      "channel": 3,
      "note": 56,
      "start": 47.4585,
      "duration": 1.083,
      "velocity": 97,
      "chip": "ym2612"
    },
    {
      "channel": 4,
      "note": 68,
      "start": 47.4588,
      "duration": 1.083,
      "velocity": 97,
      "chip": "ym2612"
    },
    {
      "channel": 0,
      "note": 67,
      "start": 48.5409,
      "duration": 1.0832,
      "velocity": 97,
      "chip": "ym2612"
    },
    {
      "channel": 1,
      "note": 82,
      "start": 48.5412,
      "duration": 1.083,
      "velocity": 114,
      "chip": "ym2612"
    },
    {
      "channel": 2,
      "note": 70,
      "start": 48.5415,
      "duration": 1.083,
      "velocity": 102,
      "chip": "ym2612"
    },
    {
      "channel": 3,
      "note": 55,
      "start": 48.5418,
      "duration": 1.0827,
      "velocity": 97,
      "chip": "ym2612"
    },
    {
      "channel": 4,
      "note": 67,
      "start": 48.5421,
      "duration": 1.0827,
      "velocity": 97,
      "chip": "ym2612"
    },
    {
      "channel": 1,
      "note": 41,
      "start": 49.6244,
      "duration": 0.6111,
      "velocity": 114,
      "chip": "ym2612"
    },
    {
      "channel": 3,
      "note": 65,
      "start": 49.6247,
      "duration": 0.2833,
      "velocity": 97,
      "chip": "ym2612"
    },
    {
      "channel": 3,
      "note": 68,
      "start": 49.9082,
      "duration": 0.0276,
      "velocity": 97,
      "chip": "ym2612"
    },
    {
      "channel": 3,
      "note": 71,
      "start": 49.9359,
      "duration": 0.2659,
      "velocity": 97,
      "chip": "ym2612"
    },
    {
      "channel": 3,
      "note": 70,
      "start": 50.2019,
      "duration": 0.0253,
      "velocity": 97,
      "chip": "ym2612"
    },
    {
      "channel": 3,
      "note": 65,
      "start": 50.2274,
      "duration": 0.0083,
      "velocity": 97,
      "chip": "ym2612"
    },
    {
      "channel": 0,
      "note": 66,
      "start": 50.2354,
      "duration": 0.2864,
      "velocity": 97,
      "chip": "ym2612"
    },
    {
      "channel": 1,
      "note": 41,
      "start": 50.2356,
      "duration": 0.6404,
      "velocity": 114,
      "chip": "ym2612"
    },
    {
      "channel": 3,
      "note": 66,
      "start": 50.2359,
      "duration": 0.2864,
      "velocity": 97,
      "chip": "ym2612"
    },
    {
      "channel": 4,
      "note": 66,
      "start": 50.2361,
      "duration": 0.2864,
      "velocity": 97,
      "chip": "ym2612"
    },
    {
      "channel": 0,
      "note": 68,
      "start": 50.5221,
      "duration": 0.0349,
      "velocity": 97,
      "chip": "ym2612"
    },
    {
      "channel": 3,
      "note": 68,
      "start": 50.5225,
      "duration": 0.0351,
      "velocity": 97,
      "chip": "ym2612"
    },
    {
      "channel": 4,
      "note": 68,
      "start": 50.5227,
      "duration": 0.0351,
      "velocity": 97,
      "chip": "ym2612"
    },
    {
      "channel": 0,
      "note": 65,
      "start": 50.5573,
      "duration": 0.3185,
      "velocity": 97,
      "chip": "ym2612"
    },
    {
      "channel": 3,
      "note": 65,
      "start": 50.5577,
      "duration": 0.3193,
      "velocity": 107,
      "chip": "ym2612"
    },
    {
      "channel": 4,
      "note": 65,
      "start": 50.558,
      "duration": 0.3193,
      "velocity": 97,
      "chip": "ym2612"
    },
    {
      "channel": 1,
      "note": 72,
      "start": 50.8762,
      "duration": 0.266,
      "velocity": 114,
      "chip": "ym2612"
    },
    {
      "channel": 3,
      "note": 72,
      "start": 50.8772,
      "duration": 1.3968,
      "velocity": 107,
      "chip": "ym2612"
    },
    {
      "channel": 1,
      "note": 75,
      "start": 51.1423,
      "duration": 0.5498,
      "velocity": 114,
      "chip": "ym2612"
    },
    {
      "channel": 1,
      "note": 78,
      "start": 51.6923,
      "duration": 0.5498,
      "velocity": 114,
      "chip": "ym2612"
    },
    {
      "channel": 1,
      "note": 77,
      "start": 52.2424,
      "duration": 0.0242,
      "velocity": 114,
      "chip": "ym2612"
    },
    {
      "channel": 1,
      "note": 72,
      "start": 52.2668,
      "duration": 0.0069,
      "velocity": 114,
      "chip": "ym2612"
    },
    {
      "channel": 0,
      "note": 73,
      "start": 52.2737,
      "duration": 0.2673,
      "velocity": 97,
      "chip": "ym2612"
    },
    {
      "channel": 1,
      "note": 73,
      "start": 52.2739,
      "duration": 0.2674,
      "velocity": 114,
      "chip": "ym2612"
    },
    {
      "channel": 3,
      "note": 72,
      "start": 52.2741,
      "duration": 1.4008,
      "velocity": 101,
      "chip": "ym2612"
    },
    {
      "channel": 4,
      "note": 73,
      "start": 52.2744,
      "duration": 0.2673,
      "velocity": 97,
      "chip": "ym2612"
    },
    {
      "channel": 0,
      "note": 75,
      "start": 52.5412,
      "duration": 0.5498,
      "velocity": 97,
      "chip": "ym2612"
    },
    {
      "channel": 1,
      "note": 75,
      "start": 52.5416,
      "duration": 0.5498,
      "velocity": 114,
      "chip": "ym2612"
    },
    {
      "channel": 4,
      "note": 75,
      "start": 52.542,
      "duration": 0.5498,
      "velocity": 97,
      "chip": "ym2612"
    },
    {
      "channel": 0,
      "note": 72,
      "start": 53.0912,
      "duration": 0.5823,
      "velocity": 97,
      "chip": "ym2612"
    },
    {
      "channel": 1,
      "note": 72,
      "start": 53.0916,
      "duration": 0.5824,
      "velocity": 114,
      "chip": "ym2612"
    },
    {
      "channel": 4,
      "note": 72,
      "start": 53.092,
      "duration": 0.5832,
      "velocity": 97,
      "chip": "ym2612"
    },
    {
      "channel": 2,
      "note": 84,
      "start": 53.6415,
      "duration": 0.0325,
      "velocity": 102,
      "chip": "ym2612"
    },
    {
      "channel": 0,
      "note": 41,
      "start": 53.6739,
      "duration": 0.6231,
      "velocity": 97,
      "chip": "ym2612"
    },
    {
      "channel": 2,
      "note": 89,
      "start": 53.6741,
      "duration": 0.2845,
      "velocity": 102,
      "chip": "ym2612"
    },
    {
      "channel": 3,
      "note": 65,
      "start": 53.6751,
      "duration": 0.1,
      "velocity": 101,
      "chip": "ym2612"
    },
    {
      "channel": 4,
      "note": 41,
      "start": 53.6754,
      "duration": 0.6224,
      "velocity": 97,
      "chip": "ym2612"
    },
    {
      "channel": 3,
      "note": 65,
      "start": 53.7754,
      "duration": 0.1834,
      "velocity": 101,
      "chip": "ym2612"
    },
    {
      "channel": 1,
      "note": 96,
      "start": 53.9585,
      "duration": 0.0345,
      "velocity": 114,
      "chip": "ym2612"
    },
    {
      "channel": 2,
      "note": 92,
      "start": 53.9587,
      "duration": 0.0346,
      "velocity": 102,
      "chip": "ym2612"
    },
    {
      "channel": 3,
      "note": 72,
      "start": 53.959,
      "duration": 0.0116,
      "velocity": 101,
      "chip": "ym2612"
    },
    {
      "channel": 3,
      "note": 65,
      "start": 53.9707,
      "duration": 0.0112,
      "velocity": 101,
      "chip": "ym2612"
    },
    {
      "channel": 3,
      "note": 72,
      "start": 53.9821,
      "duration": 0.0115,
      "velocity": 101,
      "chip": "ym2612"
    },
    {
      "channel": 1,
      "note": 101,
      "start": 53.9932,
      "duration": 0.2684,
      "velocity": 114,
      "chip": "ym2612"
    },
    {
      "channel": 2,
      "note": 95,
      "start": 53.9934,
      "duration": 0.2684,
      "velocity": 102,
      "chip": "ym2612"
    },
    {
      "channel": 3,
      "note": 77,
      "start": 53.9937,
      "duration": 0.2684,
      "velocity": 101,
      "chip": "ym2612"
    },
    {
      "channel": 1,
      "note": 96,
      "start": 54.2618,
      "duration": 0.0355,
      "velocity": 114,
      "chip": "ym2612"
    },
    {
      "channel": 2,
      "note": 94,
      "start": 54.262,
      "duration": 0.0273,
      "velocity": 102,
      "chip": "ym2612"
    },
    {
      "channel": 3,
      "note": 72,
      "start": 54.2622,
      "duration": 0.0354,
      "velocity": 101,
      "chip": "ym2612"
    },
    {
      "channel": 2,
      "note": 89,
      "start": 54.2894,
      "duration": 0.008,
      "velocity": 102,
      "chip": "ym2612"
    },
    {
      "channel": 0,
      "note": 41,
      "start": 54.2972,
      "duration": 0.6405,
      "velocity": 97,
      "chip": "ym2612"
    },
    {
      "channel": 2,
      "note": 90,
      "start": 54.2975,
      "duration": 0.2849,
      "velocity": 102,
      "chip": "ym2612"
    },
    {
      "channel": 3,
      "note": 65,
      "start": 54.2977,
      "duration": 0.1013,
      "velocity": 101,
      "chip": "ym2612"
    },
    {
      "channel": 4,
      "note": 41,
      "start": 54.298,
      "duration": 0.6421,
      "velocity": 97,
      "chip": "ym2612"
    },
    {
      "channel": 3,
      "note": 65,
      "start": 54.3993,
      "duration": 0.1834,
      "velocity": 101,
      "chip": "ym2612"
    },
    {
      "channel": 1,
      "note": 96,
      "start": 54.5824,
      "duration": 0.0334,
      "velocity": 114,
      "chip": "ym2612"
    },
    {
      "channel": 2,
      "note": 92,
      "start": 54.5826,
      "duration": 0.0335,
      "velocity": 102,
      "chip": "ym2612"
    },
    {
      "channel": 3,
      "note": 72,
      "start": 54.5828,
      "duration": 0.0116,
      "velocity": 101,
      "chip": "ym2612"
    },
    {
      "channel": 3,
      "note": 65,
      "start": 54.5946,
      "duration": 0.0094,
      "velocity": 101,
      "chip": "ym2612"
    },
    {
      "channel": 3,
      "note": 72,
      "start": 54.6042,
      "duration": 0.0121,
      "velocity": 101,
      "chip": "ym2612"
    },
    {
      "channel": 1,
      "note": 99,
      "start": 54.616,
      "duration": 0.2842,
      "velocity": 114,
      "chip": "ym2612"
    },
    {
      "channel": 2,
      "note": 89,
      "start": 54.6162,
      "duration": 0.3226,
      "velocity": 114,
      "chip": "ym2612"
    },
    {
      "channel": 3,
      "note": 75,
      "start": 54.6164,
      "duration": 0.2841,
      "velocity": 101,
      "chip": "ym2612"
    },
    {
      "channel": 1,
      "note": 96,
      "start": 54.9003,
      "duration": 0.0376,
      "velocity": 114,
      "chip": "ym2612"
    },
    {
      "channel": 3,
      "note": 72,
      "start": 54.9007,
      "duration": 0.0391,
      "velocity": 114,
      "chip": "ym2612"
    },
    {
      "channel": 0,
      "note": 85,
      "start": 54.9378,
      "duration": 0.33,
      "velocity": 97,
      "chip": "ym2612"
    },
    {
      "channel": 1,
      "note": 88,
      "start": 54.938,
      "duration": 0.3301,
      "velocity": 114,
      "chip": "ym2612"
    },
    {
      "channel": 2,
      "note": 52,
      "start": 54.939,
      "duration": 0.8794,
      "velocity": 114,
      "chip": "ym2612"
    },
    {
      "channel": 3,
      "note": 64,
      "start": 54.94,
      "duration": 0.8788,
      "velocity": 114,
      "chip": "ym2612"
    },
    {
      "channel": 4,
      "note": 85,
      "start": 54.9402,
      "duration": 0.3286,
      "velocity": 97,
      "chip": "ym2612"
    },
    {
      "channel": 0,
      "note": 87,
      "start": 55.268,
      "duration": 0.5498,
      "velocity": 97,
      "chip": "ym2612"
    },
    {
      "channel": 1,
      "note": 90,
      "start": 55.2684,
      "duration": 0.5498,
      "velocity": 114,
      "chip": "ym2612"
    },
    {
      "channel": 4,
      "note": 87,
      "start": 55.269,
      "duration": 0.55,
      "velocity": 97,
      "chip": "ym2612"
    },
    {
      "channel": 0,
      "note": 84,
      "start": 55.818,
      "duration": 1.0832,
      "velocity": 97,
      "chip": "ym2612"
    },
    {
      "channel": 1,
      "note": 87,
      "start": 55.8184,
      "duration": 1.0832,
      "velocity": 114,
      "chip": "ym2612"
    },
    {
      "channel": 2,
      "note": 51,
      "start": 55.8186,
      "duration": 1.0832,
      "velocity": 114,
      "chip": "ym2612"
    },
    {
      "channel": 3,
      "note": 63,
      "start": 55.819,
      "duration": 1.0831,
      "velocity": 114,
      "chip": "ym2612"
    },
    {
      "channel": 4,
      "note": 84,
      "start": 55.8193,
      "duration": 1.0831,
      "velocity": 97,
      "chip": "ym2612"
    },
    {
      "channel": 0,
      "note": 83,
      "start": 56.9015,
      "duration": 0.5498,
      "velocity": 97,
      "chip": "ym2612"
    },
    {
      "channel": 1,
      "note": 86,
      "start": 56.9017,
      "duration": 0.5498,
      "velocity": 114,
      "chip": "ym2612"
    },
    {
      "channel": 2,
      "note": 50,
      "start": 56.902,
      "duration": 1.0998,
      "velocity": 114,
      "chip": "ym2612"
    },
    {
      "channel": 3,
      "note": 62,
      "start": 56.9023,
      "duration": 1.0998,
      "velocity": 114,
      "chip": "ym2612"
    },
    {
      "channel": 4,
      "note": 83,
      "start": 56.9026,
      "duration": 0.5495,
      "velocity": 97,
      "chip": "ym2612"
    },
    {
      "channel": 0,
      "note": 85,
      "start": 57.4514,
      "duration": 0.5498,
      "velocity": 97,
      "chip": "ym2612"
    },
    {
      "channel": 1,
      "note": 88,
      "start": 57.4517,
      "duration": 0.5498,
      "velocity": 114,
      "chip": "ym2612"
    },
    {
      "channel": 4,
      "note": 85,
      "start": 57.4523,
      "duration": 0.55,
      "velocity": 97,
      "chip": "ym2612"
    },
    {
      "channel": 0,
      "note": 82,
      "start": 58.0014,
      "duration": 1.0832,
      "velocity": 97,
      "chip": "ym2612"
    },
    {
      "channel": 1,
      "note": 85,
      "start": 58.0017,
      "duration": 1.0832,
      "velocity": 114,
      "chip": "ym2612"
    },
    {
      "channel": 2,
      "note": 49,
      "start": 58.002,
      "duration": 1.0832,
      "velocity": 114,
      "chip": "ym2612"
    },
    {
      "channel": 3,
      "note": 61,
      "start": 58.0023,
      "duration": 1.0831,
      "velocity": 114,
      "chip": "ym2612"
    },
    {
      "channel": 4,
      "note": 82,
      "start": 58.0026,
      "duration": 1.0831,
      "velocity": 97,
      "chip": "ym2612"
    },
    {
      "channel": 0,
      "note": 81,
      "start": 59.0848,
      "duration": 2.1831,
      "velocity": 97,
      "chip": "ym2612"
    },
    {
      "channel": 1,
      "note": 84,
      "start": 59.085,
      "duration": 2.1832,
      "velocity": 114,
      "chip": "ym2612"
    },
    {
      "channel": 2,
      "note": 48,
      "start": 59.0854,
      "duration": 2.1831,
      "velocity": 114,
      "chip": "ym2612"
    },
    {
      "channel": 3,
      "note": 60,
      "start": 59.0857,
      "duration": 2.1831,
      "velocity": 114,
      "chip": "ym2612"
    },
    {
      "channel": 4,
      "note": 81,
      "start": 59.086,
      "duration": 2.183,
      "velocity": 97,
      "chip": "ym2612"
    },
    {
      "channel": 0,
      "note": 80,
      "start": 61.2681,
      "duration": 43.3099,
      "velocity": 97,
      "chip": "ym2612"
    },
    {
      "channel": 1,
      "note": 83,
      "start": 61.2684,
      "duration": 43.3097,
      "velocity": 114,
      "chip": "ym2612"
    },
    {
      "channel": 2,
      "note": 47,
      "start": 61.2687,
      "duration": 43.3094,
      "velocity": 114,
      "chip": "ym2612"
    },
    {
      "channel": 3,
      "note": 59,
      "start": 61.269,
      "duration": 43.3091,
      "velocity": 114,
      "chip": "ym2612"
    },
    {
      "channel": 4,
      "note": 80,
      "start": 61.2693,
      "duration": 43.3088,
      "velocity": 97,
      "chip": "ym2612"
    }
  ]
}