{
  "track_name": "03 - Indigestion Performance (Solo)",
  "duration_sec": 26.475,
  "sample_rate": 44100,
  "note_count": 61,
  "unique_pitches": 12,
  "pitch_range": 17,
  "avg_note_duration": 0.2982,
  "reconstruction_stats": {
    "notes_reconstructed": 61,
    "keyon_events": 61,
    "keyoff_events": 61,
    "orphan_keyons": 0,
    "unique_pitches": 12,
    "pitch_range": 17,
    "avg_duration_sec": 0.2982
  },
  "metadata": {
    "source": "T\\Tempo\\03 - Indigestion Performance (Solo).vgz"
  },
  "notes": [
    {
      "channel": 1,
      "note": 54,
      "start": 0.6722,
      "duration": 0.5136,
      "velocity": 101,
      "chip": "ym2612"
    },
    {
      "channel": 1,
      "note": 54,
      "start": 1.9522,
      "duration": 0.2667,
      "velocity": 101,
      "chip": "ym2612"
    },
    {
      "channel": 1,
      "note": 54,
      "start": 2.3522,
      "duration": 0.3838,
      "velocity": 101,
      "chip": "ym2612"
    },
    {
      "channel": 1,
      "note": 59,
      "start": 2.7364,
      "duration": 0.5158,
      "velocity": 101,
      "chip": "ym2612"
    },
    {
      "channel": 1,
      "note": 59,
      "start": 4.0191,
      "duration": 0.2662,
      "velocity": 101,
      "chip": "ym2612"
    },
    {
      "channel": 1,
      "note": 59,
      "start": 4.4191,
      "duration": 0.3835,
      "velocity": 101,
      "chip": "ym2612"
    },
    {
      "channel": 1,
      "note": 54,
      "start": 4.8031,
      "duration": 0.5162,
      "velocity": 101,
      "chip": "ym2612"
    },
    {
      "channel": 1,
      "note": 54,
      "start": 6.1025,
      "duration": 0.2497,
      "velocity": 101,
      "chip": "ym2612"
    },
    {
      "channel": 1,
      "note": 54,
      "start": 6.4857,
      "duration": 0.3835,
      "velocity": 101,
      "chip": "ym2612"
    },
    {
      "channel": 1,
      "note": 57,
      "start": 6.8697,
      "duration": 0.3822,
      "velocity": 101,
      "chip": "ym2612"
    },
    {
      "channel": 1,
      "note": 64,
      "start": 7.3861,
      "duration": 0.2663,
      "velocity": 101,
      "chip": "ym2612"
    },
    {
      "channel": 1,
      "note": 57,
      "start": 7.7695,
      "duration": 0.1328,
      "velocity": 101,
      "chip": "ym2612"
    },
    {
      "channel": 1,
      "note": 52,
      "start": 8.1694,
      "duration": 0.1161,
      "velocity": 101,
      "chip": "ym2612"
    },
    {
      "channel": 1,
      "note": 52,
      "start": 8.4197,
      "duration": 0.5189,
      "velocity": 101,
      "chip": "ym2612"
    },
    {
      "channel": 1,
      "note": 54,
      "start": 8.939,
      "duration": 0.5136,
      "velocity": 101,
      "chip": "ym2612"
    },
    {
      "channel": 1,
      "note": 54,
      "start": 10.2355,
      "duration": 0.25,
      "velocity": 101,
      "chip": "ym2612"
    },
    {
      "channel": 1,
      "note": 54,
      "start": 10.6188,
      "duration": 0.3838,
      "velocity": 101,
      "chip": "ym2612"
    },
    {
      "channel": 1,
      "note": 59,
      "start": 11.0031,
      "duration": 0.5157,
      "velocity": 101,
      "chip": "ym2612"
    },
    {
      "channel": 1,
      "note": 59,
      "start": 12.3024,
      "duration": 0.2495,
      "velocity": 101,
      "chip": "ym2612"
    },
    {
      "channel": 1,
      "note": 59,
      "start": 12.6857,
      "duration": 0.4002,
      "velocity": 101,
      "chip": "ym2612"
    },
    {
      "channel": 1,
      "note": 54,
      "start": 13.0865,
      "duration": 0.5161,
      "velocity": 101,
      "chip": "ym2612"
    },
    {
      "channel": 1,
      "note": 54,
      "start": 14.369,
      "duration": 0.2665,
      "velocity": 101,
      "chip": "ym2612"
    },
    {
      "channel": 1,
      "note": 54,
      "start": 14.7524,
      "duration": 0.4002,
      "velocity": 101,
      "chip": "ym2612"
    },
    {
      "channel": 1,
      "note": 57,
      "start": 15.1531,
      "duration": 0.3821,
      "velocity": 101,
      "chip": "ym2612"
    },
    {
      "channel": 1,
      "note": 64,
      "start": 15.6694,
      "duration": 0.2497,
      "velocity": 101,
      "chip": "ym2612"
    },
    {
      "channel": 1,
      "note": 57,
      "start": 16.0527,
      "duration": 0.1328,
      "velocity": 101,
      "chip": "ym2612"
    },
    {
      "channel": 1,
      "note": 52,
      "start": 16.4361,
      "duration": 0.1327,
      "velocity": 101,
      "chip": "ym2612"
    },
    {
      "channel": 1,
      "note": 52,
      "start": 16.7029,
      "duration": 0.5207,
      "velocity": 101,
      "chip": "ym2612"
    },
    {
      "channel": 1,
      "note": 54,
      "start": 17.224,
      "duration": 0.3779,
      "velocity": 101,
      "chip": "ym2612"
    },
    {
      "channel": 1,
      "note": 58,
      "start": 17.7365,
      "duration": 0.2495,
      "velocity": 101,
      "chip": "ym2612"
    },
    {
      "channel": 1,
      "note": 54,
      "start": 17.9865,
      "duration": 0.1328,
      "velocity": 101,
      "chip": "ym2612"
    },
    {
      "channel": 1,
      "note": 59,
      "start": 18.1197,
      "duration": 0.2659,
      "velocity": 101,
      "chip": "ym2612"
    },
    {
      "channel": 1,
      "note": 54,
      "start": 18.3861,
      "duration": 0.1166,
      "velocity": 101,
      "chip": "ym2612"
    },
    {
      "channel": 1,
      "note": 61,
      "start": 18.503,
      "duration": 0.2667,
      "velocity": 101,
      "chip": "ym2612"
    },
    {
      "channel": 1,
      "note": 64,
      "start": 18.7703,
      "duration": 0.2488,
      "velocity": 101,
      "chip": "ym2612"
    },
    {
      "channel": 1,
      "note": 66,
      "start": 19.0196,
      "duration": 0.2668,
      "velocity": 101,
      "chip": "ym2612"
    },
    {
      "channel": 1,
      "note": 59,
      "start": 19.2869,
      "duration": 0.5161,
      "velocity": 101,
      "chip": "ym2612"
    },
    {
      "channel": 1,
      "note": 64,
      "start": 20.0528,
      "duration": 0.133,
      "velocity": 101,
      "chip": "ym2612"
    },
    {
      "channel": 1,
      "note": 63,
      "start": 20.1863,
      "duration": 0.2664,
      "velocity": 101,
      "chip": "ym2612"
    },
    {
      "channel": 1,
      "note": 59,
      "start": 20.4532,
      "duration": 0.3822,
      "velocity": 101,
      "chip": "ym2612"
    },
    {
      "channel": 1,
      "note": 54,
      "start": 20.8359,
      "duration": 0.2498,
      "velocity": 101,
      "chip": "ym2612"
    },
    {
      "channel": 1,
      "note": 52,
      "start": 21.0862,
      "duration": 0.2672,
      "velocity": 101,
      "chip": "ym2612"
    },
    {
      "channel": 1,
      "note": 54,
      "start": 21.3538,
      "duration": 0.2655,
      "velocity": 101,
      "chip": "ym2612"
    },
    {
      "channel": 1,
      "note": 54,
      "start": 21.6198,
      "duration": 0.1162,
      "velocity": 101,
      "chip": "ym2612"
    },
    {
      "channel": 1,
      "note": 54,
      "start": 21.7364,
      "duration": 0.1332,
      "velocity": 101,
      "chip": "ym2612"
    },
    {
      "channel": 1,
      "note": 58,
      "start": 21.8701,
      "duration": 0.2653,
      "velocity": 101,
      "chip": "ym2612"
    },
    {
      "channel": 1,
      "note": 54,
      "start": 22.1359,
      "duration": 0.1165,
      "velocity": 101,
      "chip": "ym2612"
    },
    {
      "channel": 1,
      "note": 59,
      "start": 22.2528,
      "duration": 0.2658,
      "velocity": 101,
      "chip": "ym2612"
    },
    {
      "channel": 1,
      "note": 54,
      "start": 22.5191,
      "duration": 0.1328,
      "velocity": 101,
      "chip": "ym2612"
    },
    {
      "channel": 1,
      "note": 61,
      "start": 22.6524,
      "duration": 0.2505,
      "velocity": 101,
      "chip": "ym2612"
    },
    {
      "channel": 1,
      "note": 64,
      "start": 22.9034,
      "duration": 0.2656,
      "velocity": 101,
      "chip": "ym2612"
    },
    {
      "channel": 1,
      "note": 66,
      "start": 23.1695,
      "duration": 0.2509,
      "velocity": 101,
      "chip": "ym2612"
    },
    {
      "channel": 1,
      "note": 57,
      "start": 23.4209,
      "duration": 0.3817,
      "velocity": 101,
      "chip": "ym2612"
    },
    {
      "channel": 1,
      "note": 67,
      "start": 23.8031,
      "duration": 0.1324,
      "velocity": 101,
      "chip": "ym2612"
    },
    {
      "channel": 1,
      "note": 57,
      "start": 23.9361,
      "duration": 0.1332,
      "velocity": 101,
      "chip": "ym2612"
    },
    {
      "channel": 1,
      "note": 66,
      "start": 24.0698,
      "duration": 0.2489,
      "velocity": 101,
      "chip": "ym2612"
    },
    {
      "channel": 1,
      "note": 64,
      "start": 24.3191,
      "duration": 0.2668,
      "velocity": 101,
      "chip": "ym2612"
    },
    {
      "channel": 1,
      "note": 50,
      "start": 24.5865,
      "duration": 0.1327,
      "velocity": 101,
      "chip": "ym2612"
    },
    {
      "channel": 1,
      "note": 51,
      "start": 24.7197,
      "duration": 0.2499,
      "velocity": 101,
      "chip": "ym2612"
    },
    {
      "channel": 1,
      "note": 52,
      "start": 24.9701,
      "duration": 0.5219,
      "velocity": 101,
      "chip": "ym2612"
    },
    {
      "channel": 1,
      "note": 54,
      "start": 25.4925,
      "duration": 0.5101,
      "velocity": 101,
      "chip": "ym2612"
    }
  ]
}