{
  "track_name": "03 - Lewanda's Love",
  "duration_sec": 74.473,
  "sample_rate": 44100,
  "note_count": 1411,
  "unique_pitches": 55,
  "pitch_range": 59,
  "avg_note_duration": 0.1393,
  "reconstruction_stats": {
    "notes_reconstructed": 1411,
    "keyon_events": 1411,
    "keyoff_events": 1411,
    "orphan_keyons": 0,
    "unique_pitches": 55,
    "pitch_range": 59,
    "avg_duration_sec": 0.1393
  },
  "metadata": {
    "source": "T\\ToeJam & Earl in Panic on Funkotron\\03 - Lewanda's Love.vgz"
  },
  "notes": [
    {
      "channel": 1,
      "note": 52,
      "start": 0.0,
      "duration": 0.0561,
      "velocity": 111,
      "chip": "ym2612"
    },
    {
      "channel": 2,
      "note": 82,
      "start": 0.0,
      "duration": 0.0,
      "velocity": 85,
      "chip": "ym2612"
    },
    {
      "channel": 3,
      "note": 60,
      "start": 0.0,
      "duration": 0.0,
      "velocity": 1,
      "chip": "ym2612"
    },
    {
      "channel": 5,
      "note": 52,
      "start": 0.0,
      "duration": 0.0,
      "velocity": 1,
      "chip": "ym2612"
    },
    {
      "channel": 5,
      "note": 45,
      "start": 0.0047,
      "duration": 0.0682,
      "velocity": 122,
      "chip": "ym2612"
    },
    {
      "channel": 0,
      "note": 76,
      "start": 0.0244,
      "duration": 0.0316,
      "velocity": 87,
      "chip": "ym2612"
    },
    {
      "channel": 1,
      "note": 54,
      "start": 0.0598,
      "duration": 0.4962,
      "velocity": 111,
      "chip": "ym2612"
    },
    {
      "channel": 0,
      "note": 78,
      "start": 0.0632,
      "duration": 0.3761,
      "velocity": 87,
      "chip": "ym2612"
    },
    {
      "channel": 5,
      "note": 45,
      "start": 0.1761,
      "duration": 0.08,
      "velocity": 122,
      "chip": "ym2612"
    },
    {
      "channel": 2,
      "note": 82,
      "start": 0.179,
      "duration": 0.0439,
      "velocity": 85,
      "chip": "ym2612"
    },
    {
      "channel": 5,
      "note": 45,
      "start": 0.2762,
      "duration": 0.0968,
      "velocity": 122,
      "chip": "ym2612"
    },
    {
      "channel": 2,
      "note": 82,
      "start": 0.279,
      "duration": 0.1106,
      "velocity": 85,
      "chip": "ym2612"
    },
    {
      "channel": 1,
      "note": 52,
      "start": 0.5594,
      "duration": 0.1132,
      "velocity": 111,
      "chip": "ym2612"
    },
    {
      "channel": 3,
      "note": 49,
      "start": 0.5627,
      "duration": 0.26,
      "velocity": 125,
      "chip": "ym2612"
    },
    {
      "channel": 0,
      "note": 76,
      "start": 0.5662,
      "duration": 0.1398,
      "velocity": 87,
      "chip": "ym2612"
    },
    {
      "channel": 1,
      "note": 49,
      "start": 0.8424,
      "duration": 0.1469,
      "velocity": 111,
      "chip": "ym2612"
    },
    {
      "channel": 5,
      "note": 45,
      "start": 0.8452,
      "duration": 0.0943,
      "velocity": 122,
      "chip": "ym2612"
    },
    {
      "channel": 2,
      "note": 82,
      "start": 0.8483,
      "duration": 0.1247,
      "velocity": 85,
      "chip": "ym2612"
    },
    {
      "channel": 0,
      "note": 73,
      "start": 0.8511,
      "duration": 0.1216,
      "velocity": 87,
      "chip": "ym2612"
    },
    {
      "channel": 5,
      "note": 45,
      "start": 1.0432,
      "duration": 0.0464,
      "velocity": 122,
      "chip": "ym2612"
    },
    {
      "channel": 1,
      "note": 47,
      "start": 1.1426,
      "duration": 0.2801,
      "velocity": 111,
      "chip": "ym2612"
    },
    {
      "channel": 5,
      "note": 45,
      "start": 1.1455,
      "duration": 0.094,
      "velocity": 122,
      "chip": "ym2612"
    },
    {
      "channel": 0,
      "note": 71,
      "start": 1.1488,
      "duration": 0.2572,
      "velocity": 87,
      "chip": "ym2612"
    },
    {
      "channel": 5,
      "note": 45,
      "start": 1.3271,
      "duration": 0.0958,
      "velocity": 122,
      "chip": "ym2612"
    },
    {
      "channel": 1,
      "note": 45,
      "start": 1.4261,
      "duration": 0.1466,
      "velocity": 111,
      "chip": "ym2612"
    },
    {
      "channel": 0,
      "note": 69,
      "start": 1.4295,
      "duration": 0.1099,
      "velocity": 87,
      "chip": "ym2612"
    },
    {
      "channel": 2,
      "note": 81,
      "start": 1.4324,
      "duration": 0.2737,
      "velocity": 104,
      "chip": "ym2612"
    },
    {
      "channel": 3,
      "note": 49,
      "start": 1.7095,
      "duration": 0.3632,
      "velocity": 125,
      "chip": "ym2612"
    },
    {
      "channel": 2,
      "note": 82,
      "start": 2.0095,
      "duration": 0.13,
      "velocity": 85,
      "chip": "ym2612"
    },
    {
      "channel": 5,
      "note": 45,
      "start": 2.2926,
      "duration": 0.0969,
      "velocity": 122,
      "chip": "ym2612"
    },
    {
      "channel": 1,
      "note": 52,
      "start": 2.476,
      "duration": 0.08,
      "velocity": 111,
      "chip": "ym2612"
    },
    {
      "channel": 5,
      "note": 45,
      "start": 2.4789,
      "duration": 0.0773,
      "velocity": 122,
      "chip": "ym2612"
    },
    {
      "channel": 2,
      "note": 82,
      "start": 2.4818,
      "duration": 0.041,
      "velocity": 85,
      "chip": "ym2612"
    },
    {
      "channel": 0,
      "note": 76,
      "start": 2.4848,
      "duration": 0.088,
      "velocity": 87,
      "chip": "ym2612"
    },
    {
      "channel": 1,
      "note": 54,
      "start": 2.5594,
      "duration": 0.33,
      "velocity": 111,
      "chip": "ym2612"
    },
    {
      "channel": 4,
      "note": 78,
      "start": 2.5645,
      "duration": 0.2917,
      "velocity": 87,
      "chip": "ym2612"
    },
    {
      "channel": 5,
      "note": 45,
      "start": 2.5764,
      "duration": 0.0965,
      "velocity": 122,
      "chip": "ym2612"
    },
    {
      "channel": 2,
      "note": 82,
      "start": 2.5793,
      "duration": 0.1103,
      "velocity": 85,
      "chip": "ym2612"
    },
    {
      "channel": 5,
      "note": 45,
      "start": 2.7765,
      "duration": 0.0798,
      "velocity": 122,
      "chip": "ym2612"
    },
    {
      "channel": 3,
      "note": 52,
      "start": 2.8598,
      "duration": 0.1464,
      "velocity": 111,
      "chip": "ym2612"
    },
    {
      "channel": 0,
      "note": 49,
      "start": 2.8633,
      "duration": 0.2594,
      "velocity": 125,
      "chip": "ym2612"
    },
    {
      "channel": 4,
      "note": 76,
      "start": 2.8669,
      "duration": 0.0893,
      "velocity": 87,
      "chip": "ym2612"
    },
    {
      "channel": 2,
      "note": 82,
      "start": 3.0596,
      "duration": 0.0634,
      "velocity": 85,
      "chip": "ym2612"
    },
    {
      "channel": 1,
      "note": 49,
      "start": 3.1593,
      "duration": 0.0801,
      "velocity": 111,
      "chip": "ym2612"
    },
    {
      "channel": 5,
      "note": 45,
      "start": 3.162,
      "duration": 0.0776,
      "velocity": 122,
      "chip": "ym2612"
    },
    {
      "channel": 2,
      "note": 82,
      "start": 3.1649,
      "duration": 0.0748,
      "velocity": 85,
      "chip": "ym2612"
    },
    {
      "channel": 4,
      "note": 73,
      "start": 3.168,
      "duration": 0.1048,
      "velocity": 87,
      "chip": "ym2612"
    },
    {
      "channel": 5,
      "note": 45,
      "start": 3.3428,
      "duration": 0.0634,
      "velocity": 122,
      "chip": "ym2612"
    },
    {
      "channel": 1,
      "note": 47,
      "start": 3.4429,
      "duration": 0.3131,
      "velocity": 111,
      "chip": "ym2612"
    },
    {
      "channel": 5,
      "note": 45,
      "start": 3.4459,
      "duration": 0.0936,
      "velocity": 122,
      "chip": "ym2612"
    },
    {
      "channel": 4,
      "note": 71,
      "start": 3.4493,
      "duration": 0.2567,
      "velocity": 87,
      "chip": "ym2612"
    },
    {
      "channel": 5,
      "note": 45,
      "start": 3.626,
      "duration": 0.0969,
      "velocity": 122,
      "chip": "ym2612"
    },
    {
      "channel": 2,
      "note": 82,
      "start": 3.6293,
      "duration": 0.0269,
      "velocity": 85,
      "chip": "ym2612"
    },
    {
      "channel": 3,
      "note": 45,
      "start": 3.7265,
      "duration": 0.2129,
      "velocity": 111,
      "chip": "ym2612"
    },
    {
      "channel": 4,
      "note": 69,
      "start": 3.73,
      "duration": 0.2094,
      "velocity": 87,
      "chip": "ym2612"
    },
    {
      "channel": 2,
      "note": 81,
      "start": 3.7325,
      "duration": 0.2737,
      "velocity": 104,
      "chip": "ym2612"
    },
    {
      "channel": 1,
      "note": 54,
      "start": 4.0106,
      "duration": 0.3624,
      "velocity": 111,
      "chip": "ym2612"
    },
    {
      "channel": 0,
      "note": 49,
      "start": 4.0135,
      "duration": 0.326,
      "velocity": 125,
      "chip": "ym2612"
    },
    {
      "channel": 4,
      "note": 66,
      "start": 4.0184,
      "duration": 0.3548,
      "velocity": 87,
      "chip": "ym2612"
    },
    {
      "channel": 5,
      "note": 45,
      "start": 4.3095,
      "duration": 0.0802,
      "velocity": 122,
      "chip": "ym2612"
    },
    {
      "channel": 2,
      "note": 82,
      "start": 4.3124,
      "duration": 0.1106,
      "velocity": 85,
      "chip": "ym2612"
    },
    {
      "channel": 1,
      "note": 51,
      "start": 4.5929,
      "duration": 0.0966,
      "velocity": 111,
      "chip": "ym2612"
    },
    {
      "channel": 5,
      "note": 45,
      "start": 4.5958,
      "duration": 0.0941,
      "velocity": 122,
      "chip": "ym2612"
    },
    {
      "channel": 4,
      "note": 75,
      "start": 4.5993,
      "duration": 0.0904,
      "velocity": 87,
      "chip": "ym2612"
    },
    {
      "channel": 3,
      "note": 54,
      "start": 4.6596,
      "duration": 0.5298,
      "velocity": 111,
      "chip": "ym2612"
    },
    {
      "channel": 0,
      "note": 78,
      "start": 4.6645,
      "duration": 0.4249,
      "velocity": 87,
      "chip": "ym2612"
    },
    {
      "channel": 5,
      "note": 45,
      "start": 4.7766,
      "duration": 0.0796,
      "velocity": 122,
      "chip": "ym2612"
    },
    {
      "channel": 2,
      "note": 82,
      "start": 4.7795,
      "duration": 0.0268,
      "velocity": 85,
      "chip": "ym2612"
    },
    {
      "channel": 5,
      "note": 45,
      "start": 4.8762,
      "duration": 0.0967,
      "velocity": 122,
      "chip": "ym2612"
    },
    {
      "channel": 2,
      "note": 82,
      "start": 4.8792,
      "duration": 0.1105,
      "velocity": 85,
      "chip": "ym2612"
    },
    {
      "channel": 5,
      "note": 45,
      "start": 5.076,
      "duration": 0.0802,
      "velocity": 122,
      "chip": "ym2612"
    },
    {
      "channel": 1,
      "note": 52,
      "start": 5.1599,
      "duration": 0.0962,
      "velocity": 111,
      "chip": "ym2612"
    },
    {
      "channel": 4,
      "note": 49,
      "start": 5.163,
      "duration": 0.2098,
      "velocity": 125,
      "chip": "ym2612"
    },
    {
      "channel": 0,
      "note": 76,
      "start": 5.1661,
      "duration": 0.1232,
      "velocity": 87,
      "chip": "ym2612"
    },
    {
      "channel": 1,
      "note": 49,
      "start": 5.4589,
      "duration": 0.0803,
      "velocity": 111,
      "chip": "ym2612"
    },
    {
      "channel": 5,
      "note": 45,
      "start": 5.4617,
      "duration": 0.0778,
      "velocity": 122,
      "chip": "ym2612"
    },
    {
      "channel": 2,
      "note": 82,
      "start": 5.4645,
      "duration": 0.1085,
      "velocity": 85,
      "chip": "ym2612"
    },
    {
      "channel": 0,
      "note": 73,
      "start": 5.4676,
      "duration": 0.1217,
      "velocity": 87,
      "chip": "ym2612"
    },
    {
      "channel": 5,
      "note": 45,
      "start": 5.6428,
      "duration": 0.0633,
      "velocity": 122,
      "chip": "ym2612"
    },
    {
      "channel": 1,
      "note": 47,
      "start": 5.7424,
      "duration": 0.097,
      "velocity": 111,
      "chip": "ym2612"
    },
    {
      "channel": 5,
      "note": 45,
      "start": 5.7454,
      "duration": 0.0943,
      "velocity": 122,
      "chip": "ym2612"
    },
    {
      "channel": 0,
      "note": 71,
      "start": 5.7486,
      "duration": 0.0573,
      "velocity": 87,
      "chip": "ym2612"
    },
    {
      "channel": 3,
      "note": 48,
      "start": 5.8093,
      "duration": 0.0801,
      "velocity": 111,
      "chip": "ym2612"
    },
    {
      "channel": 0,
      "note": 72,
      "start": 5.8124,
      "duration": 0.0936,
      "velocity": 87,
      "chip": "ym2612"
    },
    {
      "channel": 1,
      "note": 47,
      "start": 5.8927,
      "duration": 0.1134,
      "velocity": 111,
      "chip": "ym2612"
    },
    {
      "channel": 4,
      "note": 71,
      "start": 5.8963,
      "duration": 0.0765,
      "velocity": 87,
      "chip": "ym2612"
    },
    {
      "channel": 5,
      "note": 45,
      "start": 5.9263,
      "duration": 0.0966,
      "velocity": 122,
      "chip": "ym2612"
    },
    {
      "channel": 2,
      "note": 82,
      "start": 5.9296,
      "duration": 0.0767,
      "velocity": 85,
      "chip": "ym2612"
    },
    {
      "channel": 1,
      "note": 45,
      "start": 6.0261,
      "duration": 0.1466,
      "velocity": 111,
      "chip": "ym2612"
    },
    {
      "channel": 0,
      "note": 69,
      "start": 6.0295,
      "duration": 0.1599,
      "velocity": 87,
      "chip": "ym2612"
    },
    {
      "channel": 2,
      "note": 81,
      "start": 6.0321,
      "duration": 0.2574,
      "velocity": 104,
      "chip": "ym2612"
    },
    {
      "channel": 3,
      "note": 49,
      "start": 6.3098,
      "duration": 0.2463,
      "velocity": 125,
      "chip": "ym2612"
    },
    {
      "channel": 2,
      "note": 82,
      "start": 6.3124,
      "duration": 0.0438,
      "velocity": 85,
      "chip": "ym2612"
    },
    {
      "channel": 2,
      "note": 82,
      "start": 6.4094,
      "duration": 0.0636,
      "velocity": 85,
      "chip": "ym2612"
    },
    {
      "channel": 2,
      "note": 82,
      "start": 6.5094,
      "duration": 0.0983,
      "velocity": 85,
      "chip": "ym2612"
    },
    {
      "channel": 2,
      "note": 82,
      "start": 6.6096,
      "duration": 0.0632,
      "velocity": 85,
      "chip": "ym2612"
    },
    {
      "channel": 5,
      "note": 45,
      "start": 6.7927,
      "duration": 0.0968,
      "velocity": 122,
      "chip": "ym2612"
    },
    {
      "channel": 2,
      "note": 82,
      "start": 7.0762,
      "duration": 0.0466,
      "velocity": 85,
      "chip": "ym2612"
    },
    {
      "channel": 1,
      "note": 64,
      "start": 7.1767,
      "duration": 0.4793,
      "velocity": 111,
      "chip": "ym2612"
    },
    {
      "channel": 5,
      "note": 45,
      "start": 7.1809,
      "duration": 0.0919,
      "velocity": 122,
      "chip": "ym2612"
    },
    {
      "channel": 2,
      "note": 82,
      "start": 7.1841,
      "duration": 0.0888,
      "velocity": 85,
      "chip": "ym2612"
    },
    {
      "channel": 0,
      "note": 83,
      "start": 7.1871,
      "duration": 0.3023,
      "velocity": 87,
      "chip": "ym2612"
    },
    {
      "channel": 5,
      "note": 45,
      "start": 7.376,
      "duration": 0.0802,
      "velocity": 122,
      "chip": "ym2612"
    },
    {
      "channel": 3,
      "note": 49,
      "start": 7.4609,
      "duration": 0.2118,
      "velocity": 125,
      "chip": "ym2612"
    },
    {
      "channel": 5,
      "note": 45,
      "start": 7.6593,
      "duration": 0.097,
      "velocity": 122,
      "chip": "ym2612"
    },
    {
      "channel": 1,
      "note": 61,
      "start": 7.7596,
      "duration": 0.0631,
      "velocity": 111,
      "chip": "ym2612"
    },
    {
      "channel": 2,
      "note": 82,
      "start": 7.7626,
      "duration": 0.0604,
      "velocity": 85,
      "chip": "ym2612"
    },
    {
      "channel": 0,
      "note": 81,
      "start": 7.7655,
      "duration": 0.1571,
      "velocity": 87,
      "chip": "ym2612"
    },
    {
      "channel": 5,
      "note": 45,
      "start": 7.9428,
      "duration": 0.08,
      "velocity": 122,
      "chip": "ym2612"
    },
    {
      "channel": 1,
      "note": 59,
      "start": 8.0428,
      "duration": 0.2633,
      "velocity": 111,
      "chip": "ym2612"
    },
    {
      "channel": 5,
      "note": 45,
      "start": 8.0458,
      "duration": 0.0938,
      "velocity": 122,
      "chip": "ym2612"
    },
    {
      "channel": 0,
      "note": 78,
      "start": 8.049,
      "duration": 0.2237,
      "velocity": 87,
      "chip": "ym2612"
    },
    {
      "channel": 2,
      "note": 82,
      "start": 8.2262,
      "duration": 0.03,
      "velocity": 85,
      "chip": "ym2612"
    },
    {
      "channel": 1,
      "note": 57,
      "start": 8.3261,
      "duration": 0.1966,
      "velocity": 111,
      "chip": "ym2612"
    },
    {
      "channel": 5,
      "note": 45,
      "start": 8.3293,
      "duration": 0.0935,
      "velocity": 122,
      "chip": "ym2612"
    },
    {
      "channel": 0,
      "note": 76,
      "start": 8.3325,
      "duration": 0.2068,
      "velocity": 87,
      "chip": "ym2612"
    },
    {
      "channel": 2,
      "note": 81,
      "start": 8.3356,
      "duration": 0.2539,
      "velocity": 104,
      "chip": "ym2612"
    },
    {
      "channel": 1,
      "note": 54,
      "start": 8.6098,
      "duration": 0.3129,
      "velocity": 111,
      "chip": "ym2612"
    },
    {
      "channel": 3,
      "note": 49,
      "start": 8.6127,
      "duration": 0.26,
      "velocity": 125,
      "chip": "ym2612"
    },
    {
      "channel": 0,
      "note": 73,
      "start": 8.6156,
      "duration": 0.2071,
      "velocity": 87,
      "chip": "ym2612"
    },
    {
      "channel": 2,
      "note": 82,
      "start": 8.8094,
      "duration": 0.0136,
      "velocity": 85,
      "chip": "ym2612"
    },
    {
      "channel": 2,
      "note": 82,
      "start": 8.9095,
      "duration": 0.1134,
      "velocity": 85,
      "chip": "ym2612"
    },
    {
      "channel": 1,
      "note": 54,
      "start": 9.1943,
      "duration": 0.1119,
      "velocity": 111,
      "chip": "ym2612"
    },
    {
      "channel": 5,
      "note": 45,
      "start": 9.1971,
      "duration": 0.0924,
      "velocity": 122,
      "chip": "ym2612"
    },
    {
      "channel": 0,
      "note": 76,
      "start": 9.2008,
      "duration": 0.0552,
      "velocity": 87,
      "chip": "ym2612"
    },
    {
      "channel": 0,
      "note": 78,
      "start": 9.2601,
      "duration": 0.3793,
      "velocity": 87,
      "chip": "ym2612"
    },
    {
      "channel": 5,
      "note": 45,
      "start": 9.3761,
      "duration": 0.0801,
      "velocity": 122,
      "chip": "ym2612"
    },
    {
      "channel": 2,
      "note": 82,
      "start": 9.379,
      "duration": 0.0441,
      "velocity": 85,
      "chip": "ym2612"
    },
    {
      "channel": 4,
      "note": 81,
      "start": 9.3827,
      "duration": 0.0403,
      "velocity": 83,
      "chip": "ym2612"
    },
    {
      "channel": 3,
      "note": 76,
      "start": 9.3856,
      "duration": 0.0373,
      "velocity": 83,
      "chip": "ym2612"
    },
    {
      "channel": 1,
      "note": 78,
      "start": 9.3883,
      "duration": 0.0344,
      "velocity": 83,
      "chip": "ym2612"
    },
    {
      "channel": 1,
      "note": 54,
      "start": 9.476,
      "duration": 0.2133,
      "velocity": 111,
      "chip": "ym2612"
    },
    {
      "channel": 5,
      "note": 45,
      "start": 9.479,
      "duration": 0.0942,
      "velocity": 122,
      "chip": "ym2612"
    },
    {
      "channel": 2,
      "note": 82,
      "start": 9.4822,
      "duration": 0.1075,
      "velocity": 85,
      "chip": "ym2612"
    },
    {
      "channel": 3,
      "note": 78,
      "start": 9.4856,
      "duration": 0.0872,
      "velocity": 83,
      "chip": "ym2612"
    },
    {
      "channel": 4,
      "note": 76,
      "start": 9.4882,
      "duration": 0.0848,
      "velocity": 83,
      "chip": "ym2612"
    },
    {
      "channel": 1,
      "note": 57,
      "start": 9.7757,
      "duration": 0.1304,
      "velocity": 111,
      "chip": "ym2612"
    },
    {
      "channel": 3,
      "note": 49,
      "start": 9.7787,
      "duration": 0.244,
      "velocity": 125,
      "chip": "ym2612"
    },
    {
      "channel": 2,
      "note": 81,
      "start": 9.7832,
      "duration": 0.1234,
      "velocity": 83,
      "chip": "ym2612"
    },
    {
      "channel": 4,
      "note": 78,
      "start": 9.7858,
      "duration": 0.1205,
      "velocity": 83,
      "chip": "ym2612"
    },
    {
      "channel": 5,
      "note": 76,
      "start": 9.7886,
      "duration": 0.1178,
      "velocity": 83,
      "chip": "ym2612"
    },
    {
      "channel": 0,
      "note": 76,
      "start": 9.792,
      "duration": 0.1141,
      "velocity": 87,
      "chip": "ym2612"
    },
    {
      "channel": 1,
      "note": 57,
      "start": 10.0594,
      "duration": 0.2634,
      "velocity": 111,
      "chip": "ym2612"
    },
    {
      "channel": 0,
      "note": 45,
      "start": 10.0623,
      "duration": 0.0937,
      "velocity": 122,
      "chip": "ym2612"
    },
    {
      "channel": 4,
      "note": 80,
      "start": 10.0661,
      "duration": 0.1233,
      "velocity": 83,
      "chip": "ym2612"
    },
    {
      "channel": 5,
      "note": 78,
      "start": 10.0686,
      "duration": 0.121,
      "velocity": 83,
      "chip": "ym2612"
    },
    {
      "channel": 2,
      "note": 76,
      "start": 10.0713,
      "duration": 0.1184,
      "velocity": 83,
      "chip": "ym2612"
    },
    {
      "channel": 3,
      "note": 73,
      "start": 10.0744,
      "duration": 0.0983,
      "velocity": 87,
      "chip": "ym2612"
    },
    {
      "channel": 0,
      "note": 45,
      "start": 10.2426,
      "duration": 0.0801,
      "velocity": 122,
      "chip": "ym2612"
    },
    {
      "channel": 1,
      "note": 54,
      "start": 10.3424,
      "duration": 0.1136,
      "velocity": 111,
      "chip": "ym2612"
    },
    {
      "channel": 0,
      "note": 45,
      "start": 10.3456,
      "duration": 0.0938,
      "velocity": 122,
      "chip": "ym2612"
    },
    {
      "channel": 3,
      "note": 71,
      "start": 10.3489,
      "duration": 0.2571,
      "velocity": 87,
      "chip": "ym2612"
    },
    {
      "channel": 0,
      "note": 45,
      "start": 10.5424,
      "duration": 0.0802,
      "velocity": 122,
      "chip": "ym2612"
    },
    {
      "channel": 4,
      "note": 81,
      "start": 10.5468,
      "duration": 0.0261,
      "velocity": 83,
      "chip": "ym2612"
    },
    {
      "channel": 5,
      "note": 76,
      "start": 10.5494,
      "duration": 0.0236,
      "velocity": 83,
      "chip": "ym2612"
    },
    {
      "channel": 2,
      "note": 78,
      "start": 10.5521,
      "duration": 0.021,
      "velocity": 83,
      "chip": "ym2612"
    },
    {
      "channel": 1,
      "note": 54,
      "start": 10.626,
      "duration": 0.1634,
      "velocity": 111,
      "chip": "ym2612"
    },
    {
      "channel": 4,
      "note": 78,
      "start": 10.63,
      "duration": 0.0929,
      "velocity": 83,
      "chip": "ym2612"
    },
    {
      "channel": 5,
      "note": 76,
      "start": 10.6326,
      "duration": 0.0905,
      "velocity": 83,
      "chip": "ym2612"
    },
    {
      "channel": 3,
      "note": 69,
      "start": 10.6354,
      "duration": 0.1041,
      "velocity": 87,
      "chip": "ym2612"
    },
    {
      "channel": 2,
      "note": 49,
      "start": 10.9263,
      "duration": 0.3467,
      "velocity": 125,
      "chip": "ym2612"
    },
    {
      "channel": 0,
      "note": 81,
      "start": 10.9299,
      "duration": 0.1595,
      "velocity": 83,
      "chip": "ym2612"
    },
    {
      "channel": 4,
      "note": 78,
      "start": 10.9325,
      "duration": 0.1571,
      "velocity": 83,
      "chip": "ym2612"
    },
    {
      "channel": 5,
      "note": 76,
      "start": 10.9353,
      "duration": 0.1209,
      "velocity": 83,
      "chip": "ym2612"
    },
    {
      "channel": 1,
      "note": 52,
      "start": 11.1093,
      "duration": 0.38,
      "velocity": 111,
      "chip": "ym2612"
    },
    {
      "channel": 0,
      "note": 83,
      "start": 11.2103,
      "duration": 0.1291,
      "velocity": 83,
      "chip": "ym2612"
    },
    {
      "channel": 4,
      "note": 78,
      "start": 11.2127,
      "duration": 0.1269,
      "velocity": 83,
      "chip": "ym2612"
    },
    {
      "channel": 5,
      "note": 76,
      "start": 11.2155,
      "duration": 0.1074,
      "velocity": 83,
      "chip": "ym2612"
    },
    {
      "channel": 1,
      "note": 54,
      "start": 11.4927,
      "duration": 0.1134,
      "velocity": 111,
      "chip": "ym2612"
    },
    {
      "channel": 3,
      "note": 45,
      "start": 11.4956,
      "duration": 0.0939,
      "velocity": 122,
      "chip": "ym2612"
    },
    {
      "channel": 3,
      "note": 45,
      "start": 11.6927,
      "duration": 0.0633,
      "velocity": 122,
      "chip": "ym2612"
    },
    {
      "channel": 2,
      "note": 78,
      "start": 11.6971,
      "duration": 0.026,
      "velocity": 83,
      "chip": "ym2612"
    },
    {
      "channel": 5,
      "note": 76,
      "start": 11.6996,
      "duration": 0.0234,
      "velocity": 83,
      "chip": "ym2612"
    },
    {
      "channel": 0,
      "note": 81,
      "start": 11.7024,
      "duration": 0.0203,
      "velocity": 83,
      "chip": "ym2612"
    },
    {
      "channel": 4,
      "note": 76,
      "start": 11.7055,
      "duration": 0.0506,
      "velocity": 87,
      "chip": "ym2612"
    },
    {
      "channel": 4,
      "note": 78,
      "start": 11.7615,
      "duration": 0.278,
      "velocity": 87,
      "chip": "ym2612"
    },
    {
      "channel": 1,
      "note": 54,
      "start": 11.776,
      "duration": 0.2468,
      "velocity": 111,
      "chip": "ym2612"
    },
    {
      "channel": 3,
      "note": 45,
      "start": 11.7788,
      "duration": 0.0942,
      "velocity": 122,
      "chip": "ym2612"
    },
    {
      "channel": 0,
      "note": 78,
      "start": 11.7824,
      "duration": 0.1569,
      "velocity": 83,
      "chip": "ym2612"
    },
    {
      "channel": 5,
      "note": 76,
      "start": 11.785,
      "duration": 0.1546,
      "velocity": 83,
      "chip": "ym2612"
    },
    {
      "channel": 3,
      "note": 45,
      "start": 11.976,
      "duration": 0.0969,
      "velocity": 122,
      "chip": "ym2612"
    },
    {
      "channel": 1,
      "note": 57,
      "start": 12.076,
      "duration": 0.0801,
      "velocity": 111,
      "chip": "ym2612"
    },
    {
      "channel": 2,
      "note": 49,
      "start": 12.0796,
      "duration": 0.2434,
      "velocity": 125,
      "chip": "ym2612"
    },
    {
      "channel": 0,
      "note": 81,
      "start": 12.083,
      "duration": 0.123,
      "velocity": 83,
      "chip": "ym2612"
    },
    {
      "channel": 5,
      "note": 78,
      "start": 12.0856,
      "duration": 0.1207,
      "velocity": 83,
      "chip": "ym2612"
    },
    {
      "channel": 4,
      "note": 76,
      "start": 12.0888,
      "duration": 0.1174,
      "velocity": 83,
      "chip": "ym2612"
    },
    {
      "channel": 3,
      "note": 76,
      "start": 12.0924,
      "duration": 0.0638,
      "velocity": 87,
      "chip": "ym2612"
    },
    {
      "channel": 1,
      "note": 57,
      "start": 12.3597,
      "duration": 0.163,
      "velocity": 111,
      "chip": "ym2612"
    },
    {
      "channel": 3,
      "note": 45,
      "start": 12.3626,
      "duration": 0.0936,
      "velocity": 122,
      "chip": "ym2612"
    },
    {
      "channel": 0,
      "note": 81,
      "start": 12.366,
      "duration": 0.1068,
      "velocity": 83,
      "chip": "ym2612"
    },
    {
      "channel": 4,
      "note": 78,
      "start": 12.3684,
      "duration": 0.1046,
      "velocity": 83,
      "chip": "ym2612"
    },
    {
      "channel": 5,
      "note": 76,
      "start": 12.3714,
      "duration": 0.0849,
      "velocity": 83,
      "chip": "ym2612"
    },
    {
      "channel": 2,
      "note": 73,
      "start": 12.3747,
      "duration": 0.0985,
      "velocity": 87,
      "chip": "ym2612"
    },
    {
      "channel": 3,
      "note": 45,
      "start": 12.6424,
      "duration": 0.0971,
      "velocity": 122,
      "chip": "ym2612"
    },
    {
      "channel": 5,
      "note": 78,
      "start": 12.6467,
      "duration": 0.0931,
      "velocity": 83,
      "chip": "ym2612"
    },
    {
      "channel": 0,
      "note": 76,
      "start": 12.6494,
      "duration": 0.09,
      "velocity": 83,
      "chip": "ym2612"
    },
    {
      "channel": 2,
      "note": 71,
      "start": 12.6524,
      "duration": 0.2538,
      "velocity": 87,
      "chip": "ym2612"
    },
    {
      "channel": 1,
      "note": 51,
      "start": 12.8426,
      "duration": 0.28,
      "velocity": 111,
      "chip": "ym2612"
    },
    {
      "channel": 3,
      "note": 45,
      "start": 12.9262,
      "duration": 0.0966,
      "velocity": 122,
      "chip": "ym2612"
    },
    {
      "channel": 0,
      "note": 81,
      "start": 12.9299,
      "duration": 0.1594,
      "velocity": 83,
      "chip": "ym2612"
    },
    {
      "channel": 5,
      "note": 76,
      "start": 12.9323,
      "duration": 0.1573,
      "velocity": 83,
      "chip": "ym2612"
    },
    {
      "channel": 4,
      "note": 78,
      "start": 12.9351,
      "duration": 0.1544,
      "velocity": 83,
      "chip": "ym2612"
    },
    {
      "channel": 2,
      "note": 69,
      "start": 12.938,
      "duration": 0.2014,
      "velocity": 87,
      "chip": "ym2612"
    },
    {
      "channel": 1,
      "note": 52,
      "start": 13.2259,
      "duration": 0.1803,
      "velocity": 111,
      "chip": "ym2612"
    },
    {
      "channel": 3,
      "note": 49,
      "start": 13.229,
      "duration": 0.3273,
      "velocity": 125,
      "chip": "ym2612"
    },
    {
      "channel": 0,
      "note": 81,
      "start": 13.2339,
      "duration": 0.439,
      "velocity": 103,
      "chip": "ym2612"
    },
    {
      "channel": 4,
      "note": 78,
      "start": 13.2368,
      "duration": 0.4029,
      "velocity": 103,
      "chip": "ym2612"
    },
    {
      "channel": 5,
      "note": 75,
      "start": 13.2402,
      "duration": 0.383,
      "velocity": 103,
      "chip": "ym2612"
    },
    {
      "channel": 2,
      "note": 66,
      "start": 13.245,
      "duration": 0.3284,
      "velocity": 87,
      "chip": "ym2612"
    },
    {
      "channel": 1,
      "note": 53,
      "start": 13.5094,
      "duration": 0.0011,
      "velocity": 111,
      "chip": "ym2612"
    },
    {
      "channel": 1,
      "note": 45,
      "start": 13.5124,
      "duration": 0.0607,
      "velocity": 122,
      "chip": "ym2612"
    },
    {
      "channel": 3,
      "note": 54,
      "start": 13.7931,
      "duration": 0.1131,
      "velocity": 111,
      "chip": "ym2612"
    },
    {
      "channel": 1,
      "note": 45,
      "start": 13.7958,
      "duration": 0.0938,
      "velocity": 122,
      "chip": "ym2612"
    },
    {
      "channel": 2,
      "note": 75,
      "start": 13.7995,
      "duration": 0.057,
      "velocity": 87,
      "chip": "ym2612"
    },
    {
      "channel": 2,
      "note": 78,
      "start": 13.8619,
      "duration": 0.4278,
      "velocity": 87,
      "chip": "ym2612"
    },
    {
      "channel": 1,
      "note": 45,
      "start": 13.9927,
      "duration": 0.0634,
      "velocity": 122,
      "chip": "ym2612"
    },
    {
      "channel": 5,
      "note": 81,
      "start": 13.9968,
      "duration": 0.0429,
      "velocity": 83,
      "chip": "ym2612"
    },
    {
      "channel": 4,
      "note": 78,
      "start": 13.9995,
      "duration": 0.0402,
      "velocity": 83,
      "chip": "ym2612"
    },
    {
      "channel": 0,
      "note": 76,
      "start": 14.0022,
      "duration": 0.0372,
      "velocity": 83,
      "chip": "ym2612"
    },
    {
      "channel": 3,
      "note": 54,
      "start": 14.076,
      "duration": 0.297,
      "velocity": 111,
      "chip": "ym2612"
    },
    {
      "channel": 1,
      "note": 45,
      "start": 14.0787,
      "duration": 0.0942,
      "velocity": 122,
      "chip": "ym2612"
    },
    {
      "channel": 0,
      "note": 78,
      "start": 14.0822,
      "duration": 0.1905,
      "velocity": 83,
      "chip": "ym2612"
    },
    {
      "channel": 4,
      "note": 76,
      "start": 14.0847,
      "duration": 0.1882,
      "velocity": 83,
      "chip": "ym2612"
    },
    {
      "channel": 1,
      "note": 45,
      "start": 14.276,
      "duration": 0.0968,
      "velocity": 122,
      "chip": "ym2612"
    },
    {
      "channel": 3,
      "note": 57,
      "start": 14.3766,
      "duration": 0.1296,
      "velocity": 111,
      "chip": "ym2612"
    },
    {
      "channel": 5,
      "note": 49,
      "start": 14.3797,
      "duration": 0.2097,
      "velocity": 125,
      "chip": "ym2612"
    },
    {
      "channel": 0,
      "note": 76,
      "start": 14.3836,
      "duration": 0.1557,
      "velocity": 83,
      "chip": "ym2612"
    },
    {
      "channel": 4,
      "note": 78,
      "start": 14.3863,
      "duration": 0.12,
      "velocity": 83,
      "chip": "ym2612"
    },
    {
      "channel": 2,
      "note": 81,
      "start": 14.3891,
      "duration": 0.1173,
      "velocity": 83,
      "chip": "ym2612"
    },
    {
      "channel": 1,
      "note": 76,
      "start": 14.3923,
      "duration": 0.0972,
      "velocity": 87,
      "chip": "ym2612"
    },
    {
      "channel": 3,
      "note": 57,
      "start": 14.6592,
      "duration": 0.1468,
      "velocity": 111,
      "chip": "ym2612"
    },
    {
      "channel": 1,
      "note": 45,
      "start": 14.6624,
      "duration": 0.0937,
      "velocity": 122,
      "chip": "ym2612"
    },
    {
      "channel": 0,
      "note": 78,
      "start": 14.6661,
      "duration": 0.0899,
      "velocity": 83,
      "chip": "ym2612"
    },
    {
      "channel": 4,
      "note": 81,
      "start": 14.6685,
      "duration": 0.0878,
      "velocity": 83,
      "chip": "ym2612"
    },
    {
      "channel": 2,
      "note": 76,
      "start": 14.6713,
      "duration": 0.0852,
      "velocity": 83,
      "chip": "ym2612"
    },
    {
      "channel": 5,
      "note": 73,
      "start": 14.6746,
      "duration": 0.1316,
      "velocity": 87,
      "chip": "ym2612"
    },
    {
      "channel": 1,
      "note": 45,
      "start": 14.9426,
      "duration": 0.0968,
      "velocity": 122,
      "chip": "ym2612"
    },
    {
      "channel": 5,
      "note": 71,
      "start": 14.946,
      "duration": 0.0603,
      "velocity": 87,
      "chip": "ym2612"
    },
    {
      "channel": 5,
      "note": 72,
      "start": 15.0101,
      "duration": 0.0795,
      "velocity": 87,
      "chip": "ym2612"
    },
    {
      "channel": 5,
      "note": 71,
      "start": 15.0936,
      "duration": 0.0961,
      "velocity": 87,
      "chip": "ym2612"
    },
    {
      "channel": 3,
      "note": 47,
      "start": 15.1427,
      "duration": 0.0634,
      "velocity": 111,
      "chip": "ym2612"
    },
    {
      "channel": 1,
      "note": 45,
      "start": 15.1453,
      "duration": 0.0773,
      "velocity": 122,
      "chip": "ym2612"
    },
    {
      "channel": 0,
      "note": 81,
      "start": 15.1495,
      "duration": 0.0398,
      "velocity": 83,
      "chip": "ym2612"
    },
    {
      "channel": 4,
      "note": 78,
      "start": 15.152,
      "duration": 0.0375,
      "velocity": 83,
      "chip": "ym2612"
    },
    {
      "channel": 2,
      "note": 76,
      "start": 15.1548,
      "duration": 0.035,
      "velocity": 83,
      "chip": "ym2612"
    },
    {
      "channel": 3,
      "note": 47,
      "start": 15.226,
      "duration": 0.1634,
      "velocity": 111,
      "chip": "ym2612"
    },
    {
      "channel": 0,
      "note": 78,
      "start": 15.2296,
      "duration": 0.193,
      "velocity": 83,
      "chip": "ym2612"
    },
    {
      "channel": 4,
      "note": 76,
      "start": 15.2322,
      "duration": 0.1906,
      "velocity": 83,
      "chip": "ym2612"
    },
    {
      "channel": 5,
      "note": 69,
      "start": 15.2353,
      "duration": 0.1543,
      "velocity": 87,
      "chip": "ym2612"
    },
    {
      "channel": 3,
      "note": 51,
      "start": 15.5259,
      "duration": 0.2136,
      "velocity": 111,
      "chip": "ym2612"
    },
    {
      "channel": 2,
      "note": 49,
      "start": 15.529,
      "duration": 0.2272,
      "velocity": 125,
      "chip": "ym2612"
    },
    {
      "channel": 1,
      "note": 81,
      "start": 15.5331,
      "duration": 0.1729,
      "velocity": 83,
      "chip": "ym2612"
    },
    {
      "channel": 5,
      "note": 78,
      "start": 15.5358,
      "duration": 0.1538,
      "velocity": 83,
      "chip": "ym2612"
    },
    {
      "channel": 0,
      "note": 76,
      "start": 15.5386,
      "duration": 0.1508,
      "velocity": 83,
      "chip": "ym2612"
    },
    {
      "channel": 3,
      "note": 52,
      "start": 15.8091,
      "duration": 0.1803,
      "velocity": 111,
      "chip": "ym2612"
    },
    {
      "channel": 0,
      "note": 78,
      "start": 15.8129,
      "duration": 0.1431,
      "velocity": 83,
      "chip": "ym2612"
    },
    {
      "channel": 1,
      "note": 83,
      "start": 15.8156,
      "duration": 0.1405,
      "velocity": 83,
      "chip": "ym2612"
    },
    {
      "channel": 5,
      "note": 76,
      "start": 15.8182,
      "duration": 0.1381,
      "velocity": 83,
      "chip": "ym2612"
    },
    {
      "channel": 4,
      "note": 45,
      "start": 15.9929,
      "duration": 0.0966,
      "velocity": 122,
      "chip": "ym2612"
    },
    {
      "channel": 3,
      "note": 54,
      "start": 16.0926,
      "duration": 0.1136,
      "velocity": 111,
      "chip": "ym2612"
    },
    {
      "channel": 0,
      "note": 57,
      "start": 16.2936,
      "duration": 0.0457,
      "velocity": 83,
      "chip": "ym2612"
    },
    {
      "channel": 1,
      "note": 54,
      "start": 16.2959,
      "duration": 0.0435,
      "velocity": 83,
      "chip": "ym2612"
    },
    {
      "channel": 5,
      "note": 52,
      "start": 16.2985,
      "duration": 0.0412,
      "velocity": 83,
      "chip": "ym2612"
    },
    {
      "channel": 3,
      "note": 54,
      "start": 16.3762,
      "duration": 0.2467,
      "velocity": 111,
      "chip": "ym2612"
    },
    {
      "channel": 4,
      "note": 45,
      "start": 16.379,
      "duration": 0.094,
      "velocity": 122,
      "chip": "ym2612"
    },
    {
      "channel": 0,
      "note": 81,
      "start": 16.3828,
      "duration": 0.0399,
      "velocity": 83,
      "chip": "ym2612"
    },
    {
      "channel": 1,
      "note": 78,
      "start": 16.3851,
      "duration": 0.0378,
      "velocity": 83,
      "chip": "ym2612"
    },
    {
      "channel": 5,
      "note": 76,
      "start": 16.3877,
      "duration": 0.0354,
      "velocity": 83,
      "chip": "ym2612"
    },
    {
      "channel": 2,
      "note": 76,
      "start": 16.3909,
      "duration": 0.5487,
      "velocity": 87,
      "chip": "ym2612"
    },
    {
      "channel": 0,
      "note": 78,
      "start": 16.4773,
      "duration": 0.1454,
      "velocity": 83,
      "chip": "ym2612"
    },
    {
      "channel": 1,
      "note": 76,
      "start": 16.4798,
      "duration": 0.143,
      "velocity": 83,
      "chip": "ym2612"
    },
    {
      "channel": 4,
      "note": 45,
      "start": 16.576,
      "duration": 0.0968,
      "velocity": 122,
      "chip": "ym2612"
    },
    {
      "channel": 3,
      "note": 57,
      "start": 16.6759,
      "duration": 0.0469,
      "velocity": 111,
      "chip": "ym2612"
    },
    {
      "channel": 5,
      "note": 49,
      "start": 16.679,
      "duration": 0.2104,
      "velocity": 125,
      "chip": "ym2612"
    },
    {
      "channel": 0,
      "note": 69,
      "start": 16.6828,
      "duration": 0.1065,
      "velocity": 83,
      "chip": "ym2612"
    },
    {
      "channel": 1,
      "note": 78,
      "start": 16.6854,
      "duration": 0.1041,
      "velocity": 83,
      "chip": "ym2612"
    },
    {
      "channel": 4,
      "note": 76,
      "start": 16.688,
      "duration": 0.1016,
      "velocity": 83,
      "chip": "ym2612"
    },
    {
      "channel": 3,
      "note": 45,
      "start": 16.8592,
      "duration": 0.0969,
      "velocity": 122,
      "chip": "ym2612"
    },
    {
      "channel": 0,
      "note": 57,
      "start": 16.9595,
      "duration": 0.1464,
      "velocity": 111,
      "chip": "ym2612"
    },
    {
      "channel": 1,
      "note": 78,
      "start": 16.9626,
      "duration": 0.1435,
      "velocity": 83,
      "chip": "ym2612"
    },
    {
      "channel": 4,
      "note": 76,
      "start": 16.9652,
      "duration": 0.1411,
      "velocity": 83,
      "chip": "ym2612"
    },
    {
      "channel": 2,
      "note": 73,
      "start": 16.9682,
      "duration": 0.1048,
      "velocity": 87,
      "chip": "ym2612"
    },
    {
      "channel": 3,
      "note": 45,
      "start": 17.1427,
      "duration": 0.08,
      "velocity": 122,
      "chip": "ym2612"
    },
    {
      "channel": 0,
      "note": 59,
      "start": 17.2423,
      "duration": 0.1137,
      "velocity": 111,
      "chip": "ym2612"
    },
    {
      "channel": 3,
      "note": 45,
      "start": 17.2456,
      "duration": 0.094,
      "velocity": 122,
      "chip": "ym2612"
    },
    {
      "channel": 5,
      "note": 69,
      "start": 17.249,
      "duration": 0.1074,
      "velocity": 83,
      "chip": "ym2612"
    },
    {
      "channel": 2,
      "note": 66,
      "start": 17.2522,
      "duration": 0.0877,
      "velocity": 83,
      "chip": "ym2612"
    },
    {
      "channel": 1,
      "note": 76,
      "start": 17.2549,
      "duration": 0.0846,
      "velocity": 83,
      "chip": "ym2612"
    },
    {
      "channel": 4,
      "note": 71,
      "start": 17.2583,
      "duration": 0.2478,
      "velocity": 87,
      "chip": "ym2612"
    },
    {
      "channel": 1,
      "note": 57,
      "start": 17.4437,
      "duration": 0.0123,
      "velocity": 83,
      "chip": "ym2612"
    },
    {
      "channel": 5,
      "note": 54,
      "start": 17.4462,
      "duration": 0.01,
      "velocity": 83,
      "chip": "ym2612"
    },
    {
      "channel": 2,
      "note": 52,
      "start": 17.4489,
      "duration": 0.0075,
      "velocity": 83,
      "chip": "ym2612"
    },
    {
      "channel": 0,
      "note": 52,
      "start": 17.526,
      "duration": 0.0968,
      "velocity": 111,
      "chip": "ym2612"
    },
    {
      "channel": 3,
      "note": 45,
      "start": 17.5286,
      "duration": 0.0943,
      "velocity": 122,
      "chip": "ym2612"
    },
    {
      "channel": 1,
      "note": 66,
      "start": 17.5327,
      "duration": 0.1234,
      "velocity": 83,
      "chip": "ym2612"
    },
    {
      "channel": 5,
      "note": 76,
      "start": 17.5353,
      "duration": 0.1209,
      "velocity": 83,
      "chip": "ym2612"
    },
    {
      "channel": 4,
      "note": 69,
      "start": 17.5381,
      "duration": 0.1347,
      "velocity": 87,
      "chip": "ym2612"
    },
    {
      "channel": 0,
      "note": 54,
      "start": 17.7259,
      "duration": 0.0135,
      "velocity": 111,
      "chip": "ym2612"
    },
    {
      "channel": 1,
      "note": 54,
      "start": 17.7297,
      "duration": 0.0098,
      "velocity": 83,
      "chip": "ym2612"
    },
    {
      "channel": 5,
      "note": 52,
      "start": 17.7323,
      "duration": 0.0074,
      "velocity": 83,
      "chip": "ym2612"
    },
    {
      "channel": 0,
      "note": 51,
      "start": 17.8259,
      "duration": 0.1802,
      "velocity": 111,
      "chip": "ym2612"
    },
    {
      "channel": 2,
      "note": 49,
      "start": 17.8292,
      "duration": 0.0605,
      "velocity": 125,
      "chip": "ym2612"
    },
    {
      "channel": 1,
      "note": 57,
      "start": 17.8322,
      "duration": 0.0406,
      "velocity": 83,
      "chip": "ym2612"
    },
    {
      "channel": 5,
      "note": 54,
      "start": 17.8346,
      "duration": 0.0383,
      "velocity": 83,
      "chip": "ym2612"
    },
    {
      "channel": 3,
      "note": 51,
      "start": 17.8378,
      "duration": 0.0054,
      "velocity": 83,
      "chip": "ym2612"
    },
    {
      "channel": 4,
      "note": 66,
      "start": 17.8408,
      "duration": 0.1487,
      "velocity": 87,
      "chip": "ym2612"
    },
    {
      "channel": 1,
      "note": 81,
      "start": 17.9105,
      "duration": 0.0455,
      "velocity": 83,
      "chip": "ym2612"
    },
    {
      "channel": 3,
      "note": 78,
      "start": 17.9129,
      "duration": 0.0432,
      "velocity": 83,
      "chip": "ym2612"
    },
    {
      "channel": 5,
      "note": 75,
      "start": 17.9157,
      "duration": 0.0239,
      "velocity": 83,
      "chip": "ym2612"
    },
    {
      "channel": 1,
      "note": 57,
      "start": 18.0108,
      "duration": 0.0785,
      "velocity": 83,
      "chip": "ym2612"
    },
    {
      "channel": 3,
      "note": 54,
      "start": 18.0133,
      "duration": 0.0427,
      "velocity": 83,
      "chip": "ym2612"
    },
    {
      "channel": 5,
      "note": 51,
      "start": 18.0159,
      "duration": 0.0403,
      "velocity": 83,
      "chip": "ym2612"
    },
    {
      "channel": 0,
      "note": 49,
      "start": 18.1094,
      "duration": 0.1466,
      "velocity": 111,
      "chip": "ym2612"
    },
    {
      "channel": 2,
      "note": 73,
      "start": 18.1143,
      "duration": 0.2754,
      "velocity": 103,
      "chip": "ym2612"
    },
    {
      "channel": 4,
      "note": 78,
      "start": 18.1173,
      "duration": 0.2557,
      "velocity": 103,
      "chip": "ym2612"
    },
    {
      "channel": 3,
      "note": 75,
      "start": 18.1208,
      "duration": 0.252,
      "velocity": 103,
      "chip": "ym2612"
    },
    {
      "channel": 5,
      "note": 49,
      "start": 18.3098,
      "duration": 0.0634,
      "velocity": 125,
      "chip": "ym2612"
    },
    {
      "channel": 0,
      "note": 56,
      "start": 18.3944,
      "duration": 0.1118,
      "velocity": 111,
      "chip": "ym2612"
    },
    {
      "channel": 1,
      "note": 45,
      "start": 18.3973,
      "duration": 0.0923,
      "velocity": 122,
      "chip": "ym2612"
    },
    {
      "channel": 3,
      "note": 78,
      "start": 18.4044,
      "duration": 0.0686,
      "velocity": 87,
      "chip": "ym2612"
    },
    {
      "channel": 3,
      "note": 80,
      "start": 18.4771,
      "duration": 0.379,
      "velocity": 87,
      "chip": "ym2612"
    },
    {
      "channel": 1,
      "note": 45,
      "start": 18.5927,
      "duration": 0.0635,
      "velocity": 122,
      "chip": "ym2612"
    },
    {
      "channel": 4,
      "note": 66,
      "start": 18.5959,
      "duration": 0.0437,
      "velocity": 83,
      "chip": "ym2612"
    },
    {
      "channel": 5,
      "note": 83,
      "start": 18.5994,
      "duration": 0.0405,
      "velocity": 83,
      "chip": "ym2612"
    },
    {
      "channel": 2,
      "note": 78,
      "start": 18.602,
      "duration": 0.038,
      "velocity": 83,
      "chip": "ym2612"
    },
    {
      "channel": 0,
      "note": 80,
      "start": 18.6047,
      "duration": 0.0347,
      "velocity": 83,
      "chip": "ym2612"
    },
    {
      "channel": 0,
      "note": 56,
      "start": 18.6928,
      "duration": 0.1965,
      "velocity": 111,
      "chip": "ym2612"
    },
    {
      "channel": 1,
      "note": 45,
      "start": 18.6956,
      "duration": 0.0771,
      "velocity": 122,
      "chip": "ym2612"
    },
    {
      "channel": 4,
      "note": 66,
      "start": 18.6987,
      "duration": 0.1074,
      "velocity": 83,
      "chip": "ym2612"
    },
    {
      "channel": 5,
      "note": 80,
      "start": 18.7025,
      "duration": 0.0705,
      "velocity": 83,
      "chip": "ym2612"
    },
    {
      "channel": 2,
      "note": 78,
      "start": 18.7053,
      "duration": 0.0678,
      "velocity": 83,
      "chip": "ym2612"
    },
    {
      "channel": 0,
      "note": 59,
      "start": 18.9757,
      "duration": 0.1303,
      "velocity": 111,
      "chip": "ym2612"
    },
    {
      "channel": 1,
      "note": 49,
      "start": 18.9794,
      "duration": 0.2599,
      "velocity": 125,
      "chip": "ym2612"
    },
    {
      "channel": 4,
      "note": 66,
      "start": 18.9821,
      "duration": 0.1573,
      "velocity": 83,
      "chip": "ym2612"
    },
    {
      "channel": 3,
      "note": 78,
      "start": 18.9851,
      "duration": 0.1211,
      "velocity": 87,
      "chip": "ym2612"
    },
    {
      "channel": 0,
      "note": 59,
      "start": 19.2594,
      "duration": 0.2632,
      "velocity": 111,
      "chip": "ym2612"
    },
    {
      "channel": 5,
      "note": 45,
      "start": 19.2624,
      "duration": 0.0939,
      "velocity": 122,
      "chip": "ym2612"
    },
    {
      "channel": 4,
      "note": 63,
      "start": 19.2653,
      "duration": 0.1908,
      "velocity": 83,
      "chip": "ym2612"
    },
    {
      "channel": 3,
      "note": 75,
      "start": 19.2682,
      "duration": 0.1046,
      "velocity": 87,
      "chip": "ym2612"
    },
    {
      "channel": 5,
      "note": 45,
      "start": 19.46,
      "duration": 0.063,
      "velocity": 122,
      "chip": "ym2612"
    },
    {
      "channel": 0,
      "note": 56,
      "start": 19.5424,
      "duration": 0.1137,
      "velocity": 111,
      "chip": "ym2612"
    },
    {
      "channel": 5,
      "note": 45,
      "start": 19.5453,
      "duration": 0.0944,
      "velocity": 122,
      "chip": "ym2612"
    },
    {
      "channel": 4,
      "note": 54,
      "start": 19.5482,
      "duration": 0.158,
      "velocity": 83,
      "chip": "ym2612"
    },
    {
      "channel": 3,
      "note": 73,
      "start": 19.5517,
      "duration": 0.2544,
      "velocity": 87,
      "chip": "ym2612"
    },
    {
      "channel": 5,
      "note": 45,
      "start": 19.7426,
      "duration": 0.0969,
      "velocity": 122,
      "chip": "ym2612"
    },
    {
      "channel": 2,
      "note": 83,
      "start": 19.7466,
      "duration": 0.0432,
      "velocity": 83,
      "chip": "ym2612"
    },
    {
      "channel": 1,
      "note": 78,
      "start": 19.7492,
      "duration": 0.0403,
      "velocity": 83,
      "chip": "ym2612"
    },
    {
      "channel": 0,
      "note": 80,
      "start": 19.7519,
      "duration": 0.0374,
      "velocity": 83,
      "chip": "ym2612"
    },
    {
      "channel": 4,
      "note": 56,
      "start": 19.8429,
      "duration": 0.1631,
      "velocity": 111,
      "chip": "ym2612"
    },
    {
      "channel": 0,
      "note": 63,
      "start": 19.8467,
      "duration": 0.1093,
      "velocity": 83,
      "chip": "ym2612"
    },
    {
      "channel": 1,
      "note": 80,
      "start": 19.8504,
      "duration": 0.0724,
      "velocity": 83,
      "chip": "ym2612"
    },
    {
      "channel": 2,
      "note": 78,
      "start": 19.8531,
      "duration": 0.07,
      "velocity": 83,
      "chip": "ym2612"
    },
    {
      "channel": 3,
      "note": 71,
      "start": 19.8564,
      "duration": 0.0998,
      "velocity": 87,
      "chip": "ym2612"
    },
    {
      "channel": 0,
      "note": 56,
      "start": 20.0262,
      "duration": 0.063,
      "velocity": 83,
      "chip": "ym2612"
    },
    {
      "channel": 5,
      "note": 49,
      "start": 20.1263,
      "duration": 0.3466,
      "velocity": 125,
      "chip": "ym2612"
    },
    {
      "channel": 0,
      "note": 59,
      "start": 20.129,
      "duration": 0.1269,
      "velocity": 83,
      "chip": "ym2612"
    },
    {
      "channel": 4,
      "note": 54,
      "start": 20.3093,
      "duration": 0.3802,
      "velocity": 111,
      "chip": "ym2612"
    },
    {
      "channel": 0,
      "note": 60,
      "start": 20.3124,
      "duration": 0.077,
      "velocity": 83,
      "chip": "ym2612"
    },
    {
      "channel": 0,
      "note": 51,
      "start": 20.4096,
      "duration": 0.263,
      "velocity": 83,
      "chip": "ym2612"
    },
    {
      "channel": 4,
      "note": 56,
      "start": 20.6928,
      "duration": 0.1299,
      "velocity": 111,
      "chip": "ym2612"
    },
    {
      "channel": 1,
      "note": 45,
      "start": 20.6957,
      "duration": 0.0938,
      "velocity": 122,
      "chip": "ym2612"
    },
    {
      "channel": 0,
      "note": 54,
      "start": 20.6985,
      "duration": 0.2084,
      "velocity": 83,
      "chip": "ym2612"
    },
    {
      "channel": 1,
      "note": 45,
      "start": 20.8926,
      "duration": 0.0634,
      "velocity": 122,
      "chip": "ym2612"
    },
    {
      "channel": 2,
      "note": 80,
      "start": 20.8966,
      "duration": 0.0431,
      "velocity": 83,
      "chip": "ym2612"
    },
    {
      "channel": 3,
      "note": 78,
      "start": 20.8992,
      "duration": 0.0402,
      "velocity": 83,
      "chip": "ym2612"
    },
    {
      "channel": 5,
      "note": 83,
      "start": 20.9023,
      "duration": 0.0373,
      "velocity": 83,
      "chip": "ym2612"
    },
    {
      "channel": 4,
      "note": 78,
      "start": 20.9054,
      "duration": 0.0508,
      "velocity": 87,
      "chip": "ym2612"
    },
    {
      "channel": 4,
      "note": 80,
      "start": 20.9615,
      "duration": 0.278,
      "velocity": 87,
      "chip": "ym2612"
    },
    {
      "channel": 0,
      "note": 56,
      "start": 20.9929,
      "duration": 0.2299,
      "velocity": 111,
      "chip": "ym2612"
    },
    {
      "channel": 1,
      "note": 45,
      "start": 20.9956,
      "duration": 0.0773,
      "velocity": 122,
      "chip": "ym2612"
    },
    {
      "channel": 3,
      "note": 56,
      "start": 20.9991,
      "duration": 0.1738,
      "velocity": 83,
      "chip": "ym2612"
    },
    {
      "channel": 5,
      "note": 80,
      "start": 21.0026,
      "duration": 0.1538,
      "velocity": 83,
      "chip": "ym2612"
    },
    {
      "channel": 2,
      "note": 78,
      "start": 21.0053,
      "duration": 0.1511,
      "velocity": 83,
      "chip": "ym2612"
    },
    {
      "channel": 1,
      "note": 45,
      "start": 21.1764,
      "duration": 0.0963,
      "velocity": 122,
      "chip": "ym2612"
    },
    {
      "channel": 0,
      "note": 59,
      "start": 21.2759,
      "duration": 0.0969,
      "velocity": 111,
      "chip": "ym2612"
    },
    {
      "channel": 5,
      "note": 49,
      "start": 21.279,
      "duration": 0.2607,
      "velocity": 125,
      "chip": "ym2612"
    },
    {
      "channel": 3,
      "note": 59,
      "start": 21.2817,
      "duration": 0.1578,
      "velocity": 83,
      "chip": "ym2612"
    },
    {
      "channel": 4,
      "note": 78,
      "start": 21.2849,
      "duration": 0.0881,
      "velocity": 87,
      "chip": "ym2612"
    },
    {
      "channel": 0,
      "note": 59,
      "start": 21.5596,
      "duration": 0.1631,
      "velocity": 111,
      "chip": "ym2612"
    },
    {
      "channel": 1,
      "note": 45,
      "start": 21.5622,
      "duration": 0.0938,
      "velocity": 122,
      "chip": "ym2612"
    },
    {
      "channel": 3,
      "note": 60,
      "start": 21.5651,
      "duration": 0.1078,
      "velocity": 83,
      "chip": "ym2612"
    },
    {
      "channel": 4,
      "note": 75,
      "start": 21.5681,
      "duration": 0.1049,
      "velocity": 87,
      "chip": "ym2612"
    },
    {
      "channel": 1,
      "note": 45,
      "start": 21.8423,
      "duration": 0.0972,
      "velocity": 122,
      "chip": "ym2612"
    },
    {
      "channel": 3,
      "note": 61,
      "start": 21.8453,
      "duration": 0.1441,
      "velocity": 83,
      "chip": "ym2612"
    },
    {
      "channel": 2,
      "note": 80,
      "start": 21.8489,
      "duration": 0.091,
      "velocity": 83,
      "chip": "ym2612"
    },
    {
      "channel": 5,
      "note": 78,
      "start": 21.852,
      "duration": 0.0877,
      "velocity": 83,
      "chip": "ym2612"
    },
    {
      "channel": 4,
      "note": 73,
      "start": 21.8554,
      "duration": 0.2508,
      "velocity": 87,
      "chip": "ym2612"
    },
    {
      "channel": 0,
      "note": 53,
      "start": 22.0426,
      "duration": 0.1128,
      "velocity": 111,
      "chip": "ym2612"
    },
    {
      "channel": 3,
      "note": 58,
      "start": 22.0458,
      "duration": 0.0603,
      "velocity": 83,
      "chip": "ym2612"
    },
    {
      "channel": 1,
      "note": 45,
      "start": 22.1424,
      "duration": 0.0803,
      "velocity": 122,
      "chip": "ym2612"
    },
    {
      "channel": 3,
      "note": 62,
      "start": 22.1454,
      "duration": 0.1606,
      "velocity": 83,
      "chip": "ym2612"
    },
    {
      "channel": 5,
      "note": 83,
      "start": 22.1489,
      "duration": 0.1574,
      "velocity": 83,
      "chip": "ym2612"
    },
    {
      "channel": 2,
      "note": 78,
      "start": 22.1515,
      "duration": 0.155,
      "velocity": 83,
      "chip": "ym2612"
    },
    {
      "channel": 4,
      "note": 80,
      "start": 22.1542,
      "duration": 0.152,
      "velocity": 83,
      "chip": "ym2612"
    },
    {
      "channel": 0,
      "note": 71,
      "start": 22.1573,
      "duration": 0.1987,
      "velocity": 87,
      "chip": "ym2612"
    },
    {
      "channel": 3,
      "note": 60,
      "start": 22.3267,
      "duration": 0.0628,
      "velocity": 83,
      "chip": "ym2612"
    },
    {
      "channel": 1,
      "note": 54,
      "start": 22.4262,
      "duration": 0.0191,
      "velocity": 111,
      "chip": "ym2612"
    },
    {
      "channel": 4,
      "note": 49,
      "start": 22.4293,
      "duration": 0.2846,
      "velocity": 125,
      "chip": "ym2612"
    },
    {
      "channel": 3,
      "note": 63,
      "start": 22.4322,
      "duration": 0.1576,
      "velocity": 83,
      "chip": "ym2612"
    },
    {
      "channel": 5,
      "note": 83,
      "start": 22.4365,
      "duration": 0.4366,
      "velocity": 103,
      "chip": "ym2612"
    },
    {
      "channel": 2,
      "note": 80,
      "start": 22.4396,
      "duration": 0.4169,
      "velocity": 103,
      "chip": "ym2612"
    },
    {
      "channel": 0,
      "note": 77,
      "start": 22.4428,
      "duration": 0.3802,
      "velocity": 103,
      "chip": "ym2612"
    },
    {
      "channel": 1,
      "note": 68,
      "start": 22.4472,
      "duration": 0.3258,
      "velocity": 87,
      "chip": "ym2612"
    },
    {
      "channel": 3,
      "note": 64,
      "start": 22.6099,
      "duration": 0.0798,
      "velocity": 83,
      "chip": "ym2612"
    },
    {
      "channel": 3,
      "note": 55,
      "start": 22.7096,
      "duration": 0.0011,
      "velocity": 111,
      "chip": "ym2612"
    },
    {
      "channel": 3,
      "note": 45,
      "start": 22.7126,
      "duration": 0.0606,
      "velocity": 122,
      "chip": "ym2612"
    },
    {
      "channel": 4,
      "note": 65,
      "start": 22.7158,
      "duration": 0.1572,
      "velocity": 83,
      "chip": "ym2612"
    },
    {
      "channel": 4,
      "note": 68,
      "start": 22.91,
      "duration": 0.0798,
      "velocity": 83,
      "chip": "ym2612"
    },
    {
      "channel": 1,
      "note": 56,
      "start": 22.9932,
      "duration": 0.1296,
      "velocity": 111,
      "chip": "ym2612"
    },
    {
      "channel": 3,
      "note": 45,
      "start": 22.996,
      "duration": 0.0937,
      "velocity": 122,
      "chip": "ym2612"
    },
    {
      "channel": 0,
      "note": 77,
      "start": 23.0,
      "duration": 0.0728,
      "velocity": 87,
      "chip": "ym2612"
    },
    {
      "channel": 0,
      "note": 80,
      "start": 23.0783,
      "duration": 0.4279,
      "velocity": 87,
      "chip": "ym2612"
    },
    {
      "channel": 3,
      "note": 45,
      "start": 23.1928,
      "duration": 0.0634,
      "velocity": 122,
      "chip": "ym2612"
    },
    {
      "channel": 4,
      "note": 68,
      "start": 23.1957,
      "duration": 0.0439,
      "velocity": 83,
      "chip": "ym2612"
    },
    {
      "channel": 1,
      "note": 56,
      "start": 23.2925,
      "duration": 0.2803,
      "velocity": 111,
      "chip": "ym2612"
    },
    {
      "channel": 3,
      "note": 45,
      "start": 23.2957,
      "duration": 0.0772,
      "velocity": 122,
      "chip": "ym2612"
    },
    {
      "channel": 3,
      "note": 45,
      "start": 23.4759,
      "duration": 0.0971,
      "velocity": 122,
      "chip": "ym2612"
    },
    {
      "channel": 4,
      "note": 63,
      "start": 23.4793,
      "duration": 0.027,
      "velocity": 83,
      "chip": "ym2612"
    },
    {
      "channel": 1,
      "note": 59,
      "start": 23.5766,
      "duration": 0.0161,
      "velocity": 111,
      "chip": "ym2612"
    },
    {
      "channel": 2,
      "note": 49,
      "start": 23.5797,
      "duration": 0.016,
      "velocity": 125,
      "chip": "ym2612"
    },
    {
      "channel": 4,
      "note": 66,
      "start": 23.5826,
      "duration": 0.157,
      "velocity": 83,
      "chip": "ym2612"
    },
    {
      "channel": 5,
      "note": 71,
      "start": 23.5853,
      "duration": 0.1544,
      "velocity": 83,
      "chip": "ym2612"
    },
    {
      "channel": 0,
      "note": 78,
      "start": 23.5888,
      "duration": 0.1506,
      "velocity": 83,
      "chip": "ym2612"
    },
    {
      "channel": 3,
      "note": 80,
      "start": 23.592,
      "duration": 0.131,
      "velocity": 83,
      "chip": "ym2612"
    },
    {
      "channel": 1,
      "note": 83,
      "start": 23.5946,
      "duration": 0.1283,
      "velocity": 83,
      "chip": "ym2612"
    },
    {
      "channel": 2,
      "note": 78,
      "start": 23.5978,
      "duration": 0.0919,
      "velocity": 87,
      "chip": "ym2612"
    },
    {
      "channel": 4,
      "note": 67,
      "start": 23.7434,
      "duration": 0.1127,
      "velocity": 83,
      "chip": "ym2612"
    },
    {
      "channel": 5,
      "note": 72,
      "start": 23.746,
      "duration": 0.1102,
      "velocity": 83,
      "chip": "ym2612"
    },
    {
      "channel": 2,
      "note": 59,
      "start": 23.8596,
      "duration": 0.0156,
      "velocity": 111,
      "chip": "ym2612"
    },
    {
      "channel": 1,
      "note": 45,
      "start": 23.8624,
      "duration": 0.0938,
      "velocity": 122,
      "chip": "ym2612"
    },
    {
      "channel": 4,
      "note": 65,
      "start": 23.8655,
      "duration": 0.1906,
      "velocity": 83,
      "chip": "ym2612"
    },
    {
      "channel": 5,
      "note": 71,
      "start": 23.8685,
      "duration": 0.1877,
      "velocity": 83,
      "chip": "ym2612"
    },
    {
      "channel": 0,
      "note": 80,
      "start": 23.872,
      "duration": 0.0841,
      "velocity": 83,
      "chip": "ym2612"
    },
    {
      "channel": 3,
      "note": 83,
      "start": 23.8744,
      "duration": 0.082,
      "velocity": 83,
      "chip": "ym2612"
    },
    {
      "channel": 2,
      "note": 78,
      "start": 23.8771,
      "duration": 0.0795,
      "velocity": 83,
      "chip": "ym2612"
    },
    {
      "channel": 4,
      "note": 66,
      "start": 24.06,
      "duration": 0.0629,
      "velocity": 83,
      "chip": "ym2612"
    },
    {
      "channel": 5,
      "note": 72,
      "start": 24.0626,
      "duration": 0.0604,
      "velocity": 83,
      "chip": "ym2612"
    },
    {
      "channel": 1,
      "note": 45,
      "start": 24.1424,
      "duration": 0.097,
      "velocity": 122,
      "chip": "ym2612"
    },
    {
      "channel": 4,
      "note": 71,
      "start": 24.1456,
      "duration": 0.1605,
      "velocity": 83,
      "chip": "ym2612"
    },
    {
      "channel": 0,
      "note": 73,
      "start": 24.1488,
      "duration": 0.074,
      "velocity": 87,
      "chip": "ym2612"
    },
    {
      "channel": 0,
      "note": 74,
      "start": 24.2265,
      "duration": 0.0629,
      "velocity": 87,
      "chip": "ym2612"
    },
    {
      "channel": 0,
      "note": 73,
      "start": 24.2937,
      "duration": 0.0956,
      "velocity": 87,
      "chip": "ym2612"
    },
    {
      "channel": 3,
      "note": 49,
      "start": 24.3429,
      "duration": 0.0632,
      "velocity": 111,
      "chip": "ym2612"
    },
    {
      "channel": 1,
      "note": 45,
      "start": 24.3455,
      "duration": 0.0938,
      "velocity": 122,
      "chip": "ym2612"
    },
    {
      "channel": 4,
      "note": 68,
      "start": 24.3485,
      "duration": 0.0577,
      "velocity": 83,
      "chip": "ym2612"
    },
    {
      "channel": 3,
      "note": 49,
      "start": 24.4428,
      "duration": 0.1635,
      "velocity": 111,
      "chip": "ym2612"
    },
    {
      "channel": 4,
      "note": 66,
      "start": 24.4459,
      "duration": 0.1268,
      "velocity": 83,
      "chip": "ym2612"
    },
    {
      "channel": 0,
      "note": 71,
      "start": 24.4489,
      "duration": 0.1572,
      "velocity": 87,
      "chip": "ym2612"
    },
    {
      "channel": 3,
      "note": 53,
      "start": 24.7258,
      "duration": 0.2136,
      "velocity": 111,
      "chip": "ym2612"
    },
    {
      "channel": 2,
      "note": 49,
      "start": 24.729,
      "duration": 0.2272,
      "velocity": 125,
      "chip": "ym2612"
    },
    {
      "channel": 4,
      "note": 63,
      "start": 24.7321,
      "duration": 0.2074,
      "velocity": 83,
      "chip": "ym2612"
    },
    {
      "channel": 5,
      "note": 83,
      "start": 24.7361,
      "duration": 0.17,
      "velocity": 83,
      "chip": "ym2612"
    },
    {
      "channel": 1,
      "note": 80,
      "start": 24.7389,
      "duration": 0.1506,
      "velocity": 83,
      "chip": "ym2612"
    },
    {
      "channel": 0,
      "note": 78,
      "start": 24.7416,
      "duration": 0.1478,
      "velocity": 83,
      "chip": "ym2612"
    },
    {
      "channel": 3,
      "note": 54,
      "start": 25.0092,
      "duration": 0.1968,
      "velocity": 111,
      "chip": "ym2612"
    },
    {
      "channel": 4,
      "note": 66,
      "start": 25.0124,
      "duration": 0.1105,
      "velocity": 83,
      "chip": "ym2612"
    },
    {
      "channel": 0,
      "note": 80,
      "start": 25.0157,
      "duration": 0.1403,
      "velocity": 83,
      "chip": "ym2612"
    },
    {
      "channel": 1,
      "note": 85,
      "start": 25.018,
      "duration": 0.138,
      "velocity": 83,
      "chip": "ym2612"
    },
    {
      "channel": 5,
      "note": 78,
      "start": 25.0206,
      "duration": 0.1357,
      "velocity": 83,
      "chip": "ym2612"
    },
    {
      "channel": 2,
      "note": 45,
      "start": 25.2095,
      "duration": 0.08,
      "velocity": 122,
      "chip": "ym2612"
    },
    {
      "channel": 3,
      "note": 56,
      "start": 25.2926,
      "duration": 0.1301,
      "velocity": 111,
      "chip": "ym2612"
    },
    {
      "channel": 4,
      "note": 56,
      "start": 25.493,
      "duration": 0.0131,
      "velocity": 83,
      "chip": "ym2612"
    },
    {
      "channel": 0,
      "note": 59,
      "start": 25.4966,
      "duration": 0.0427,
      "velocity": 83,
      "chip": "ym2612"
    },
    {
      "channel": 1,
      "note": 56,
      "start": 25.4989,
      "duration": 0.0405,
      "velocity": 83,
      "chip": "ym2612"
    },
    {
      "channel": 5,
      "note": 54,
      "start": 25.5015,
      "duration": 0.0382,
      "velocity": 83,
      "chip": "ym2612"
    },
    {
      "channel": 3,
      "note": 56,
      "start": 25.5929,
      "duration": 0.0151,
      "velocity": 111,
      "chip": "ym2612"
    },
    {
      "channel": 2,
      "note": 45,
      "start": 25.5958,
      "duration": 0.0771,
      "velocity": 122,
      "chip": "ym2612"
    },
    {
      "channel": 4,
      "note": 62,
      "start": 25.5988,
      "duration": 0.0575,
      "velocity": 83,
      "chip": "ym2612"
    },
    {
      "channel": 0,
      "note": 83,
      "start": 25.6019,
      "duration": 0.0375,
      "velocity": 83,
      "chip": "ym2612"
    },
    {
      "channel": 1,
      "note": 80,
      "start": 25.6042,
      "duration": 0.0352,
      "velocity": 83,
      "chip": "ym2612"
    },
    {
      "channel": 5,
      "note": 78,
      "start": 25.6069,
      "duration": 0.0328,
      "velocity": 83,
      "chip": "ym2612"
    },
    {
      "channel": 3,
      "note": 78,
      "start": 25.61,
      "duration": 0.5294,
      "velocity": 87,
      "chip": "ym2612"
    },
    {
      "channel": 4,
      "note": 61,
      "start": 25.6763,
      "duration": 0.0798,
      "velocity": 83,
      "chip": "ym2612"
    },
    {
      "channel": 0,
      "note": 80,
      "start": 25.68,
      "duration": 0.1426,
      "velocity": 83,
      "chip": "ym2612"
    },
    {
      "channel": 1,
      "note": 78,
      "start": 25.6825,
      "duration": 0.1402,
      "velocity": 83,
      "chip": "ym2612"
    },
    {
      "channel": 2,
      "note": 45,
      "start": 25.7761,
      "duration": 0.0968,
      "velocity": 122,
      "chip": "ym2612"
    },
    {
      "channel": 4,
      "note": 59,
      "start": 25.7788,
      "duration": 0.0773,
      "velocity": 83,
      "chip": "ym2612"
    },
    {
      "channel": 5,
      "note": 59,
      "start": 25.8762,
      "duration": 0.0468,
      "velocity": 111,
      "chip": "ym2612"
    },
    {
      "channel": 0,
      "note": 49,
      "start": 25.8793,
      "duration": 0.2101,
      "velocity": 125,
      "chip": "ym2612"
    },
    {
      "channel": 4,
      "note": 56,
      "start": 25.8822,
      "duration": 0.2239,
      "velocity": 83,
      "chip": "ym2612"
    },
    {
      "channel": 2,
      "note": 45,
      "start": 26.0596,
      "duration": 0.0966,
      "velocity": 122,
      "chip": "ym2612"
    },
    {
      "channel": 5,
      "note": 59,
      "start": 26.1594,
      "duration": 0.1467,
      "velocity": 111,
      "chip": "ym2612"
    },
    {
      "channel": 4,
      "note": 59,
      "start": 26.1629,
      "duration": 0.1932,
      "velocity": 83,
      "chip": "ym2612"
    },
    {
      "channel": 3,
      "note": 75,
      "start": 26.1658,
      "duration": 0.1071,
      "velocity": 87,
      "chip": "ym2612"
    },
    {
      "channel": 2,
      "note": 45,
      "start": 26.3596,
      "duration": 0.0633,
      "velocity": 122,
      "chip": "ym2612"
    },
    {
      "channel": 5,
      "note": 61,
      "start": 26.4426,
      "duration": 0.0157,
      "velocity": 111,
      "chip": "ym2612"
    },
    {
      "channel": 2,
      "note": 45,
      "start": 26.4456,
      "duration": 0.0942,
      "velocity": 122,
      "chip": "ym2612"
    },
    {
      "channel": 4,
      "note": 54,
      "start": 26.4488,
      "duration": 0.1406,
      "velocity": 83,
      "chip": "ym2612"
    },
    {
      "channel": 1,
      "note": 71,
      "start": 26.4517,
      "duration": 0.1209,
      "velocity": 83,
      "chip": "ym2612"
    },
    {
      "channel": 0,
      "note": 68,
      "start": 26.4544,
      "duration": 0.085,
      "velocity": 83,
      "chip": "ym2612"
    },
    {
      "channel": 3,
      "note": 78,
      "start": 26.4571,
      "duration": 0.0824,
      "velocity": 83,
      "chip": "ym2612"
    },
    {
      "channel": 5,
      "note": 73,
      "start": 26.4602,
      "duration": 0.246,
      "velocity": 87,
      "chip": "ym2612"
    },
    {
      "channel": 4,
      "note": 55,
      "start": 26.643,
      "duration": 0.063,
      "velocity": 83,
      "chip": "ym2612"
    },
    {
      "channel": 0,
      "note": 59,
      "start": 26.6466,
      "duration": 0.0093,
      "velocity": 83,
      "chip": "ym2612"
    },
    {
      "channel": 1,
      "note": 56,
      "start": 26.6489,
      "duration": 0.0071,
      "velocity": 83,
      "chip": "ym2612"
    },
    {
      "channel": 3,
      "note": 54,
      "start": 26.6515,
      "duration": 0.0047,
      "velocity": 83,
      "chip": "ym2612"
    },
    {
      "channel": 2,
      "note": 54,
      "start": 26.7429,
      "duration": 0.0968,
      "velocity": 111,
      "chip": "ym2612"
    },
    {
      "channel": 0,
      "note": 45,
      "start": 26.7458,
      "duration": 0.0936,
      "velocity": 122,
      "chip": "ym2612"
    },
    {
      "channel": 4,
      "note": 56,
      "start": 26.7489,
      "duration": 0.1571,
      "velocity": 83,
      "chip": "ym2612"
    },
    {
      "channel": 1,
      "note": 68,
      "start": 26.7522,
      "duration": 0.1038,
      "velocity": 83,
      "chip": "ym2612"
    },
    {
      "channel": 3,
      "note": 78,
      "start": 26.7548,
      "duration": 0.1014,
      "velocity": 83,
      "chip": "ym2612"
    },
    {
      "channel": 5,
      "note": 71,
      "start": 26.7578,
      "duration": 0.1149,
      "velocity": 87,
      "chip": "ym2612"
    },
    {
      "channel": 2,
      "note": 56,
      "start": 26.9262,
      "duration": 0.0302,
      "velocity": 111,
      "chip": "ym2612"
    },
    {
      "channel": 4,
      "note": 51,
      "start": 26.9294,
      "duration": 0.0767,
      "velocity": 83,
      "chip": "ym2612"
    },
    {
      "channel": 1,
      "note": 56,
      "start": 26.9331,
      "duration": 0.0229,
      "velocity": 83,
      "chip": "ym2612"
    },
    {
      "channel": 3,
      "note": 54,
      "start": 26.9356,
      "duration": 0.0205,
      "velocity": 83,
      "chip": "ym2612"
    },
    {
      "channel": 2,
      "note": 53,
      "start": 27.0262,
      "duration": 0.0154,
      "velocity": 111,
      "chip": "ym2612"
    },
    {
      "channel": 0,
      "note": 49,
      "start": 27.0295,
      "duration": 0.0599,
      "velocity": 125,
      "chip": "ym2612"
    },
    {
      "channel": 4,
      "note": 52,
      "start": 27.0323,
      "duration": 0.1406,
      "velocity": 83,
      "chip": "ym2612"
    },
    {
      "channel": 1,
      "note": 59,
      "start": 27.0352,
      "duration": 0.0375,
      "velocity": 83,
      "chip": "ym2612"
    },
    {
      "channel": 3,
      "note": 56,
      "start": 27.0376,
      "duration": 0.0353,
      "velocity": 83,
      "chip": "ym2612"
    },
    {
      "channel": 5,
      "note": 53,
      "start": 27.0405,
      "duration": 0.0057,
      "velocity": 83,
      "chip": "ym2612"
    },
    {
      "channel": 2,
      "note": 68,
      "start": 27.0435,
      "duration": 0.1461,
      "velocity": 87,
      "chip": "ym2612"
    },
    {
      "channel": 1,
      "note": 83,
      "start": 27.1276,
      "duration": 0.045,
      "velocity": 83,
      "chip": "ym2612"
    },
    {
      "channel": 3,
      "note": 80,
      "start": 27.13,
      "duration": 0.0427,
      "velocity": 83,
      "chip": "ym2612"
    },
    {
      "channel": 5,
      "note": 77,
      "start": 27.1327,
      "duration": 0.0069,
      "velocity": 83,
      "chip": "ym2612"
    },
    {
      "channel": 4,
      "note": 53,
      "start": 27.2268,
      "duration": 0.0293,
      "velocity": 83,
      "chip": "ym2612"
    },
    {
      "channel": 1,
      "note": 59,
      "start": 27.2302,
      "duration": 0.0592,
      "velocity": 83,
      "chip": "ym2612"
    },
    {
      "channel": 3,
      "note": 56,
      "start": 27.233,
      "duration": 0.023,
      "velocity": 83,
      "chip": "ym2612"
    },
    {
      "channel": 5,
      "note": 53,
      "start": 27.2356,
      "duration": 0.0207,
      "velocity": 83,
      "chip": "ym2612"
    },
    {
      "channel": 0,
      "note": 51,
      "start": 27.3098,
      "duration": 0.1463,
      "velocity": 111,
      "chip": "ym2612"
    },
    {
      "channel": 4,
      "note": 49,
      "start": 27.313,
      "duration": 0.1433,
      "velocity": 83,
      "chip": "ym2612"
    },
    {
      "channel": 2,
      "note": 75,
      "start": 27.3178,
      "duration": 0.2885,
      "velocity": 103,
      "chip": "ym2612"
    },
    {
      "channel": 3,
      "note": 80,
      "start": 27.3207,
      "duration": 0.2521,
      "velocity": 103,
      "chip": "ym2612"
    },
    {
      "channel": 5,
      "note": 77,
      "start": 27.3239,
      "duration": 0.2492,
      "velocity": 103,
      "chip": "ym2612"
    },
    {
      "channel": 1,
      "note": 49,
      "start": 27.5101,
      "duration": 0.0626,
      "velocity": 125,
      "chip": "ym2612"
    },
    {
      "channel": 4,
      "note": 47,
      "start": 27.513,
      "duration": 0.06,
      "velocity": 83,
      "chip": "ym2612"
    },
    {
      "channel": 0,
      "note": 52,
      "start": 27.6117,
      "duration": 0.0611,
      "velocity": 111,
      "chip": "ym2612"
    },
    {
      "channel": 1,
      "note": 45,
      "start": 27.6145,
      "duration": 0.0751,
      "velocity": 122,
      "chip": "ym2612"
    },
    {
      "channel": 3,
      "note": 88,
      "start": 27.6191,
      "duration": 0.0706,
      "velocity": 87,
      "chip": "ym2612"
    },
    {
      "channel": 0,
      "note": 54,
      "start": 27.6766,
      "duration": 0.1261,
      "velocity": 111,
      "chip": "ym2612"
    },
    {
      "channel": 3,
      "note": 90,
      "start": 27.6939,
      "duration": 0.4623,
      "velocity": 87,
      "chip": "ym2612"
    },
    {
      "channel": 1,
      "note": 45,
      "start": 27.7928,
      "duration": 0.0634,
      "velocity": 122,
      "chip": "ym2612"
    },
    {
      "channel": 4,
      "note": 76,
      "start": 27.7958,
      "duration": 0.0438,
      "velocity": 83,
      "chip": "ym2612"
    },
    {
      "channel": 5,
      "note": 81,
      "start": 27.7993,
      "duration": 0.0405,
      "velocity": 83,
      "chip": "ym2612"
    },
    {
      "channel": 2,
      "note": 76,
      "start": 27.8019,
      "duration": 0.038,
      "velocity": 83,
      "chip": "ym2612"
    },
    {
      "channel": 0,
      "note": 78,
      "start": 27.8046,
      "duration": 0.0348,
      "velocity": 83,
      "chip": "ym2612"
    },
    {
      "channel": 1,
      "note": 45,
      "start": 27.8932,
      "duration": 0.0963,
      "velocity": 122,
      "chip": "ym2612"
    },
    {
      "channel": 4,
      "note": 76,
      "start": 27.8962,
      "duration": 0.11,
      "velocity": 83,
      "chip": "ym2612"
    },
    {
      "channel": 0,
      "note": 78,
      "start": 27.8998,
      "duration": 0.0895,
      "velocity": 83,
      "chip": "ym2612"
    },
    {
      "channel": 5,
      "note": 76,
      "start": 27.9024,
      "duration": 0.0873,
      "velocity": 83,
      "chip": "ym2612"
    },
    {
      "channel": 2,
      "note": 52,
      "start": 28.1762,
      "duration": 0.1134,
      "velocity": 111,
      "chip": "ym2612"
    },
    {
      "channel": 0,
      "note": 49,
      "start": 28.1795,
      "duration": 0.2598,
      "velocity": 125,
      "chip": "ym2612"
    },
    {
      "channel": 4,
      "note": 81,
      "start": 28.1842,
      "duration": 0.1385,
      "velocity": 83,
      "chip": "ym2612"
    },
    {
      "channel": 1,
      "note": 78,
      "start": 28.1868,
      "duration": 0.1358,
      "velocity": 83,
      "chip": "ym2612"
    },
    {
      "channel": 5,
      "note": 76,
      "start": 28.1897,
      "duration": 0.1333,
      "velocity": 83,
      "chip": "ym2612"
    },
    {
      "channel": 3,
      "note": 88,
      "start": 28.1927,
      "duration": 0.1468,
      "velocity": 87,
      "chip": "ym2612"
    },
    {
      "channel": 2,
      "note": 49,
      "start": 28.4593,
      "duration": 0.1472,
      "velocity": 111,
      "chip": "ym2612"
    },
    {
      "channel": 1,
      "note": 45,
      "start": 28.4622,
      "duration": 0.094,
      "velocity": 122,
      "chip": "ym2612"
    },
    {
      "channel": 4,
      "note": 80,
      "start": 28.4657,
      "duration": 0.1406,
      "velocity": 83,
      "chip": "ym2612"
    },
    {
      "channel": 5,
      "note": 78,
      "start": 28.4681,
      "duration": 0.1382,
      "velocity": 83,
      "chip": "ym2612"
    },
    {
      "channel": 3,
      "note": 76,
      "start": 28.4712,
      "duration": 0.1349,
      "velocity": 83,
      "chip": "ym2612"
    },
    {
      "channel": 0,
      "note": 85,
      "start": 28.4744,
      "duration": 0.0984,
      "velocity": 87,
      "chip": "ym2612"
    },
    {
      "channel": 1,
      "note": 45,
      "start": 28.6593,
      "duration": 0.0634,
      "velocity": 122,
      "chip": "ym2612"
    },
    {
      "channel": 2,
      "note": 47,
      "start": 28.7595,
      "duration": 0.2802,
      "velocity": 111,
      "chip": "ym2612"
    },
    {
      "channel": 1,
      "note": 45,
      "start": 28.7623,
      "duration": 0.0772,
      "velocity": 122,
      "chip": "ym2612"
    },
    {
      "channel": 0,
      "note": 88,
      "start": 28.7655,
      "duration": 0.0738,
      "velocity": 87,
      "chip": "ym2612"
    },
    {
      "channel": 1,
      "note": 45,
      "start": 28.9435,
      "duration": 0.0959,
      "velocity": 122,
      "chip": "ym2612"
    },
    {
      "channel": 3,
      "note": 81,
      "start": 28.9475,
      "duration": 0.0418,
      "velocity": 83,
      "chip": "ym2612"
    },
    {
      "channel": 4,
      "note": 76,
      "start": 28.9501,
      "duration": 0.0394,
      "velocity": 83,
      "chip": "ym2612"
    },
    {
      "channel": 5,
      "note": 78,
      "start": 28.9529,
      "duration": 0.0368,
      "velocity": 83,
      "chip": "ym2612"
    },
    {
      "channel": 0,
      "note": 90,
      "start": 28.9554,
      "duration": 0.084,
      "velocity": 87,
      "chip": "ym2612"
    },
    {
      "channel": 2,
      "note": 45,
      "start": 29.0432,
      "duration": 0.1298,
      "velocity": 111,
      "chip": "ym2612"
    },
    {
      "channel": 3,
      "note": 78,
      "start": 29.0474,
      "duration": 0.092,
      "velocity": 83,
      "chip": "ym2612"
    },
    {
      "channel": 4,
      "note": 76,
      "start": 29.05,
      "duration": 0.0896,
      "velocity": 83,
      "chip": "ym2612"
    },
    {
      "channel": 0,
      "note": 93,
      "start": 29.1433,
      "duration": 0.0794,
      "velocity": 87,
      "chip": "ym2612"
    },
    {
      "channel": 5,
      "note": 49,
      "start": 29.3263,
      "duration": 0.3632,
      "velocity": 125,
      "chip": "ym2612"
    },
    {
      "channel": 1,
      "note": 81,
      "start": 29.3299,
      "duration": 0.1595,
      "velocity": 83,
      "chip": "ym2612"
    },
    {
      "channel": 3,
      "note": 78,
      "start": 29.3324,
      "duration": 0.1571,
      "velocity": 83,
      "chip": "ym2612"
    },
    {
      "channel": 4,
      "note": 76,
      "start": 29.3353,
      "duration": 0.1375,
      "velocity": 83,
      "chip": "ym2612"
    },
    {
      "channel": 0,
      "note": 95,
      "start": 29.3386,
      "duration": 0.134,
      "velocity": 87,
      "chip": "ym2612"
    },
    {
      "channel": 1,
      "note": 83,
      "start": 29.6104,
      "duration": 0.1456,
      "velocity": 83,
      "chip": "ym2612"
    },
    {
      "channel": 3,
      "note": 78,
      "start": 29.6127,
      "duration": 0.1434,
      "velocity": 83,
      "chip": "ym2612"
    },
    {
      "channel": 4,
      "note": 76,
      "start": 29.6155,
      "duration": 0.124,
      "velocity": 83,
      "chip": "ym2612"
    },
    {
      "channel": 2,
      "note": 45,
      "start": 29.9094,
      "duration": 0.0802,
      "velocity": 122,
      "chip": "ym2612"
    },
    {
      "channel": 0,
      "note": 88,
      "start": 29.9128,
      "duration": 0.4431,
      "velocity": 87,
      "chip": "ym2612"
    },
    {
      "channel": 5,
      "note": 95,
      "start": 29.9154,
      "duration": 0.441,
      "velocity": 87,
      "chip": "ym2612"
    },
    {
      "channel": 4,
      "note": 52,
      "start": 30.0928,
      "duration": 0.0103,
      "velocity": 111,
      "chip": "ym2612"
    },
    {
      "channel": 2,
      "note": 45,
      "start": 30.0959,
      "duration": 0.0604,
      "velocity": 122,
      "chip": "ym2612"
    },
    {
      "channel": 1,
      "note": 78,
      "start": 30.0998,
      "duration": 0.0396,
      "velocity": 83,
      "chip": "ym2612"
    },
    {
      "channel": 3,
      "note": 76,
      "start": 30.1024,
      "duration": 0.0371,
      "velocity": 83,
      "chip": "ym2612"
    },
    {
      "channel": 4,
      "note": 81,
      "start": 30.1052,
      "duration": 0.0344,
      "velocity": 83,
      "chip": "ym2612"
    },
    {
      "channel": 1,
      "note": 54,
      "start": 30.1596,
      "duration": 0.3301,
      "velocity": 111,
      "chip": "ym2612"
    },
    {
      "channel": 2,
      "note": 45,
      "start": 30.1932,
      "duration": 0.0964,
      "velocity": 122,
      "chip": "ym2612"
    },
    {
      "channel": 3,
      "note": 78,
      "start": 30.1973,
      "duration": 0.1588,
      "velocity": 83,
      "chip": "ym2612"
    },
    {
      "channel": 4,
      "note": 76,
      "start": 30.1999,
      "duration": 0.1564,
      "velocity": 83,
      "chip": "ym2612"
    },
    {
      "channel": 0,
      "note": 93,
      "start": 30.3603,
      "duration": 0.1124,
      "velocity": 87,
      "chip": "ym2612"
    },
    {
      "channel": 2,
      "note": 45,
      "start": 30.3761,
      "duration": 0.0969,
      "velocity": 122,
      "chip": "ym2612"
    },
    {
      "channel": 3,
      "note": 52,
      "start": 30.4764,
      "duration": 0.1465,
      "velocity": 111,
      "chip": "ym2612"
    },
    {
      "channel": 4,
      "note": 49,
      "start": 30.4795,
      "duration": 0.26,
      "velocity": 125,
      "chip": "ym2612"
    },
    {
      "channel": 5,
      "note": 81,
      "start": 30.483,
      "duration": 0.1401,
      "velocity": 83,
      "chip": "ym2612"
    },
    {
      "channel": 0,
      "note": 78,
      "start": 30.4855,
      "duration": 0.1372,
      "velocity": 83,
      "chip": "ym2612"
    },
    {
      "channel": 2,
      "note": 76,
      "start": 30.4883,
      "duration": 0.135,
      "velocity": 83,
      "chip": "ym2612"
    },
    {
      "channel": 1,
      "note": 90,
      "start": 30.4916,
      "duration": 0.1312,
      "velocity": 87,
      "chip": "ym2612"
    },
    {
      "channel": 1,
      "note": 95,
      "start": 30.6766,
      "duration": 0.0627,
      "velocity": 87,
      "chip": "ym2612"
    },
    {
      "channel": 3,
      "note": 49,
      "start": 30.7592,
      "duration": 0.0971,
      "velocity": 111,
      "chip": "ym2612"
    },
    {
      "channel": 0,
      "note": 45,
      "start": 30.762,
      "duration": 0.094,
      "velocity": 122,
      "chip": "ym2612"
    },
    {
      "channel": 5,
      "note": 81,
      "start": 30.7661,
      "duration": 0.1235,
      "velocity": 83,
      "chip": "ym2612"
    },
    {
      "channel": 2,
      "note": 78,
      "start": 30.7687,
      "duration": 0.121,
      "velocity": 83,
      "chip": "ym2612"
    },
    {
      "channel": 1,
      "note": 76,
      "start": 30.7717,
      "duration": 0.0845,
      "velocity": 83,
      "chip": "ym2612"
    },
    {
      "channel": 4,
      "note": 93,
      "start": 30.775,
      "duration": 0.1145,
      "velocity": 87,
      "chip": "ym2612"
    },
    {
      "channel": 4,
      "note": 90,
      "start": 30.9271,
      "duration": 0.0957,
      "velocity": 87,
      "chip": "ym2612"
    },
    {
      "channel": 3,
      "note": 47,
      "start": 31.0598,
      "duration": 0.2966,
      "velocity": 111,
      "chip": "ym2612"
    },
    {
      "channel": 0,
      "note": 45,
      "start": 31.0622,
      "duration": 0.0771,
      "velocity": 122,
      "chip": "ym2612"
    },
    {
      "channel": 1,
      "note": 78,
      "start": 31.0661,
      "duration": 0.0733,
      "velocity": 83,
      "chip": "ym2612"
    },
    {
      "channel": 5,
      "note": 76,
      "start": 31.0688,
      "duration": 0.0709,
      "velocity": 83,
      "chip": "ym2612"
    },
    {
      "channel": 4,
      "note": 88,
      "start": 31.0715,
      "duration": 0.0681,
      "velocity": 87,
      "chip": "ym2612"
    },
    {
      "channel": 4,
      "note": 93,
      "start": 31.2266,
      "duration": 0.0796,
      "velocity": 87,
      "chip": "ym2612"
    },
    {
      "channel": 2,
      "note": 45,
      "start": 31.3433,
      "duration": 0.2129,
      "velocity": 111,
      "chip": "ym2612"
    },
    {
      "channel": 0,
      "note": 45,
      "start": 31.3459,
      "duration": 0.0935,
      "velocity": 122,
      "chip": "ym2612"
    },
    {
      "channel": 1,
      "note": 81,
      "start": 31.35,
      "duration": 0.1561,
      "velocity": 83,
      "chip": "ym2612"
    },
    {
      "channel": 5,
      "note": 76,
      "start": 31.3524,
      "duration": 0.1539,
      "velocity": 83,
      "chip": "ym2612"
    },
    {
      "channel": 4,
      "note": 78,
      "start": 31.3552,
      "duration": 0.151,
      "velocity": 83,
      "chip": "ym2612"
    },
    {
      "channel": 3,
      "note": 90,
      "start": 31.3583,
      "duration": 0.131,
      "velocity": 87,
      "chip": "ym2612"
    },
    {
      "channel": 3,
      "note": 88,
      "start": 31.5103,
      "duration": 0.0957,
      "velocity": 87,
      "chip": "ym2612"
    },
    {
      "channel": 2,
      "note": 54,
      "start": 31.6276,
      "duration": 0.2838,
      "velocity": 111,
      "chip": "ym2612"
    },
    {
      "channel": 0,
      "note": 49,
      "start": 31.6307,
      "duration": 0.3255,
      "velocity": 125,
      "chip": "ym2612"
    },
    {
      "channel": 1,
      "note": 75,
      "start": 31.6353,
      "duration": 0.4043,
      "velocity": 103,
      "chip": "ym2612"
    },
    {
      "channel": 4,
      "note": 78,
      "start": 31.6382,
      "duration": 0.4182,
      "velocity": 103,
      "chip": "ym2612"
    },
    {
      "channel": 5,
      "note": 81,
      "start": 31.642,
      "duration": 0.4311,
      "velocity": 103,
      "chip": "ym2612"
    },
    {
      "channel": 3,
      "note": 85,
      "start": 31.6449,
      "duration": 0.0948,
      "velocity": 87,
      "chip": "ym2612"
    },
    {
      "channel": 3,
      "note": 90,
      "start": 31.794,
      "duration": 0.0956,
      "velocity": 87,
      "chip": "ym2612"
    },
    {
      "channel": 3,
      "note": 45,
      "start": 31.9097,
      "duration": 0.0801,
      "velocity": 122,
      "chip": "ym2612"
    },
    {
      "channel": 2,
      "note": 88,
      "start": 31.9133,
      "duration": 0.1599,
      "velocity": 87,
      "chip": "ym2612"
    },
    {
      "channel": 2,
      "note": 83,
      "start": 32.1105,
      "duration": 0.3459,
      "velocity": 87,
      "chip": "ym2612"
    },
    {
      "channel": 0,
      "note": 87,
      "start": 32.1132,
      "duration": 0.3427,
      "velocity": 87,
      "chip": "ym2612"
    },
    {
      "channel": 3,
      "note": 51,
      "start": 32.21,
      "duration": 0.0796,
      "velocity": 111,
      "chip": "ym2612"
    },
    {
      "channel": 1,
      "note": 45,
      "start": 32.2129,
      "duration": 0.0765,
      "velocity": 122,
      "chip": "ym2612"
    },
    {
      "channel": 4,
      "note": 54,
      "start": 32.2766,
      "duration": 0.1239,
      "velocity": 111,
      "chip": "ym2612"
    },
    {
      "channel": 1,
      "note": 45,
      "start": 32.393,
      "duration": 0.063,
      "velocity": 122,
      "chip": "ym2612"
    },
    {
      "channel": 5,
      "note": 81,
      "start": 32.3968,
      "duration": 0.0429,
      "velocity": 83,
      "chip": "ym2612"
    },
    {
      "channel": 3,
      "note": 78,
      "start": 32.3993,
      "duration": 0.04,
      "velocity": 83,
      "chip": "ym2612"
    },
    {
      "channel": 4,
      "note": 76,
      "start": 32.4024,
      "duration": 0.0371,
      "velocity": 83,
      "chip": "ym2612"
    },
    {
      "channel": 1,
      "note": 45,
      "start": 32.4926,
      "duration": 0.0968,
      "velocity": 122,
      "chip": "ym2612"
    },
    {
      "channel": 3,
      "note": 78,
      "start": 32.4961,
      "duration": 0.1765,
      "velocity": 83,
      "chip": "ym2612"
    },
    {
      "channel": 4,
      "note": 76,
      "start": 32.4987,
      "duration": 0.1741,
      "velocity": 83,
      "chip": "ym2612"
    },
    {
      "channel": 0,
      "note": 84,
      "start": 32.5017,
      "duration": 0.0544,
      "velocity": 87,
      "chip": "ym2612"
    },
    {
      "channel": 2,
      "note": 88,
      "start": 32.5044,
      "duration": 0.0521,
      "velocity": 87,
      "chip": "ym2612"
    },
    {
      "channel": 1,
      "note": 45,
      "start": 32.676,
      "duration": 0.0967,
      "velocity": 122,
      "chip": "ym2612"
    },
    {
      "channel": 5,
      "note": 52,
      "start": 32.7767,
      "duration": 0.0164,
      "velocity": 111,
      "chip": "ym2612"
    },
    {
      "channel": 0,
      "note": 49,
      "start": 32.7798,
      "duration": 0.2095,
      "velocity": 125,
      "chip": "ym2612"
    },
    {
      "channel": 2,
      "note": 76,
      "start": 32.7834,
      "duration": 0.1563,
      "velocity": 83,
      "chip": "ym2612"
    },
    {
      "channel": 3,
      "note": 78,
      "start": 32.7861,
      "duration": 0.1367,
      "velocity": 83,
      "chip": "ym2612"
    },
    {
      "channel": 4,
      "note": 81,
      "start": 32.7889,
      "duration": 0.1341,
      "velocity": 83,
      "chip": "ym2612"
    },
    {
      "channel": 1,
      "note": 83,
      "start": 32.7923,
      "duration": 0.147,
      "velocity": 87,
      "chip": "ym2612"
    },
    {
      "channel": 5,
      "note": 87,
      "start": 32.7951,
      "duration": 0.1445,
      "velocity": 87,
      "chip": "ym2612"
    },
    {
      "channel": 3,
      "note": 49,
      "start": 33.0593,
      "duration": 0.0165,
      "velocity": 111,
      "chip": "ym2612"
    },
    {
      "channel": 4,
      "note": 45,
      "start": 33.0622,
      "duration": 0.0942,
      "velocity": 122,
      "chip": "ym2612"
    },
    {
      "channel": 2,
      "note": 78,
      "start": 33.0665,
      "duration": 0.0902,
      "velocity": 83,
      "chip": "ym2612"
    },
    {
      "channel": 1,
      "note": 81,
      "start": 33.069,
      "duration": 0.0871,
      "velocity": 83,
      "chip": "ym2612"
    },
    {
      "channel": 5,
      "note": 76,
      "start": 33.0719,
      "duration": 0.0846,
      "velocity": 83,
      "chip": "ym2612"
    },
    {
      "channel": 0,
      "note": 84,
      "start": 33.0749,
      "duration": 0.0811,
      "velocity": 87,
      "chip": "ym2612"
    },
    {
      "channel": 3,
      "note": 88,
      "start": 33.0776,
      "duration": 0.0786,
      "velocity": 87,
      "chip": "ym2612"
    },
    {
      "channel": 0,
      "note": 47,
      "start": 33.3593,
      "duration": 0.0801,
      "velocity": 111,
      "chip": "ym2612"
    },
    {
      "channel": 4,
      "note": 45,
      "start": 33.362,
      "duration": 0.0776,
      "velocity": 122,
      "chip": "ym2612"
    },
    {
      "channel": 3,
      "note": 87,
      "start": 33.3654,
      "duration": 0.1573,
      "velocity": 87,
      "chip": "ym2612"
    },
    {
      "channel": 1,
      "note": 48,
      "start": 33.4262,
      "duration": 0.0631,
      "velocity": 111,
      "chip": "ym2612"
    },
    {
      "channel": 0,
      "note": 47,
      "start": 33.4926,
      "duration": 0.13,
      "velocity": 111,
      "chip": "ym2612"
    },
    {
      "channel": 4,
      "note": 45,
      "start": 33.5426,
      "duration": 0.0968,
      "velocity": 122,
      "chip": "ym2612"
    },
    {
      "channel": 5,
      "note": 81,
      "start": 33.5464,
      "duration": 0.0432,
      "velocity": 83,
      "chip": "ym2612"
    },
    {
      "channel": 2,
      "note": 78,
      "start": 33.5494,
      "duration": 0.0404,
      "velocity": 83,
      "chip": "ym2612"
    },
    {
      "channel": 1,
      "note": 76,
      "start": 33.5521,
      "duration": 0.0373,
      "velocity": 83,
      "chip": "ym2612"
    },
    {
      "channel": 3,
      "note": 88,
      "start": 33.5552,
      "duration": 0.0676,
      "velocity": 87,
      "chip": "ym2612"
    },
    {
      "channel": 0,
      "note": 45,
      "start": 33.6426,
      "duration": 0.1467,
      "velocity": 111,
      "chip": "ym2612"
    },
    {
      "channel": 1,
      "note": 78,
      "start": 33.6461,
      "duration": 0.1765,
      "velocity": 83,
      "chip": "ym2612"
    },
    {
      "channel": 5,
      "note": 76,
      "start": 33.6488,
      "duration": 0.1741,
      "velocity": 83,
      "chip": "ym2612"
    },
    {
      "channel": 3,
      "note": 87,
      "start": 33.6522,
      "duration": 0.1539,
      "velocity": 87,
      "chip": "ym2612"
    },
    {
      "channel": 3,
      "note": 85,
      "start": 33.8268,
      "duration": 0.0959,
      "velocity": 87,
      "chip": "ym2612"
    },
    {
      "channel": 2,
      "note": 49,
      "start": 33.9265,
      "duration": 0.2464,
      "velocity": 125,
      "chip": "ym2612"
    },
    {
      "channel": 4,
      "note": 76,
      "start": 33.9302,
      "duration": 0.1593,
      "velocity": 83,
      "chip": "ym2612"
    },
    {
      "channel": 0,
      "note": 81,
      "start": 33.9328,
      "duration": 0.1898,
      "velocity": 83,
      "chip": "ym2612"
    },
    {
      "channel": 1,
      "note": 78,
      "start": 33.9361,
      "duration": 0.1532,
      "velocity": 83,
      "chip": "ym2612"
    },
    {
      "channel": 3,
      "note": 88,
      "start": 33.939,
      "duration": 0.1338,
      "velocity": 87,
      "chip": "ym2612"
    },
    {
      "channel": 5,
      "note": 84,
      "start": 33.9417,
      "duration": 0.1313,
      "velocity": 87,
      "chip": "ym2612"
    },
    {
      "channel": 3,
      "note": 87,
      "start": 34.0935,
      "duration": 0.0959,
      "velocity": 87,
      "chip": "ym2612"
    },
    {
      "channel": 5,
      "note": 83,
      "start": 34.0961,
      "duration": 0.0934,
      "velocity": 87,
      "chip": "ym2612"
    },
    {
      "channel": 0,
      "note": 76,
      "start": 34.2102,
      "duration": 0.1458,
      "velocity": 83,
      "chip": "ym2612"
    },
    {
      "channel": 1,
      "note": 83,
      "start": 34.2126,
      "duration": 0.1436,
      "velocity": 83,
      "chip": "ym2612"
    },
    {
      "channel": 4,
      "note": 78,
      "start": 34.2152,
      "duration": 0.1412,
      "velocity": 83,
      "chip": "ym2612"
    },
    {
      "channel": 3,
      "note": 85,
      "start": 34.2183,
      "duration": 0.1379,
      "velocity": 87,
      "chip": "ym2612"
    },
    {
      "channel": 5,
      "note": 81,
      "start": 34.221,
      "duration": 0.1356,
      "velocity": 87,
      "chip": "ym2612"
    },
    {
      "channel": 2,
      "note": 45,
      "start": 34.4094,
      "duration": 0.0968,
      "velocity": 122,
      "chip": "ym2612"
    },
    {
      "channel": 3,
      "note": 83,
      "start": 34.512,
      "duration": 0.1274,
      "velocity": 87,
      "chip": "ym2612"
    },
    {
      "channel": 0,
      "note": 57,
      "start": 34.6939,
      "duration": 0.0454,
      "velocity": 83,
      "chip": "ym2612"
    },
    {
      "channel": 1,
      "note": 54,
      "start": 34.6962,
      "duration": 0.0432,
      "velocity": 83,
      "chip": "ym2612"
    },
    {
      "channel": 4,
      "note": 52,
      "start": 34.6988,
      "duration": 0.0408,
      "velocity": 83,
      "chip": "ym2612"
    },
    {
      "channel": 5,
      "note": 64,
      "start": 34.7935,
      "duration": 0.4793,
      "velocity": 111,
      "chip": "ym2612"
    },
    {
      "channel": 2,
      "note": 45,
      "start": 34.7982,
      "duration": 0.0916,
      "velocity": 122,
      "chip": "ym2612"
    },
    {
      "channel": 0,
      "note": 81,
      "start": 34.8016,
      "duration": 0.0377,
      "velocity": 83,
      "chip": "ym2612"
    },
    {
      "channel": 1,
      "note": 78,
      "start": 34.804,
      "duration": 0.0355,
      "velocity": 83,
      "chip": "ym2612"
    },
    {
      "channel": 4,
      "note": 76,
      "start": 34.8066,
      "duration": 0.033,
      "velocity": 83,
      "chip": "ym2612"
    },
    {
      "channel": 3,
      "note": 81,
      "start": 34.8094,
      "duration": 0.0802,
      "velocity": 87,
      "chip": "ym2612"
    },
    {
      "channel": 0,
      "note": 76,
      "start": 34.8949,
      "duration": 0.1277,
      "velocity": 83,
      "chip": "ym2612"
    },
    {
      "channel": 1,
      "note": 78,
      "start": 34.8973,
      "duration": 0.1254,
      "velocity": 83,
      "chip": "ym2612"
    },
    {
      "channel": 2,
      "note": 45,
      "start": 34.9762,
      "duration": 0.0967,
      "velocity": 122,
      "chip": "ym2612"
    },
    {
      "channel": 4,
      "note": 49,
      "start": 35.078,
      "duration": 0.2114,
      "velocity": 125,
      "chip": "ym2612"
    },
    {
      "channel": 3,
      "note": 76,
      "start": 35.0819,
      "duration": 0.1078,
      "velocity": 83,
      "chip": "ym2612"
    },
    {
      "channel": 0,
      "note": 78,
      "start": 35.0844,
      "duration": 0.1049,
      "velocity": 83,
      "chip": "ym2612"
    },
    {
      "channel": 1,
      "note": 69,
      "start": 35.0871,
      "duration": 0.1024,
      "velocity": 83,
      "chip": "ym2612"
    },
    {
      "channel": 2,
      "note": 83,
      "start": 35.0905,
      "duration": 0.1324,
      "velocity": 87,
      "chip": "ym2612"
    },
    {
      "channel": 0,
      "note": 45,
      "start": 35.276,
      "duration": 0.0967,
      "velocity": 122,
      "chip": "ym2612"
    },
    {
      "channel": 2,
      "note": 83,
      "start": 35.2801,
      "duration": 0.0594,
      "velocity": 87,
      "chip": "ym2612"
    },
    {
      "channel": 5,
      "note": 61,
      "start": 35.3763,
      "duration": 0.0632,
      "velocity": 111,
      "chip": "ym2612"
    },
    {
      "channel": 1,
      "note": 76,
      "start": 35.3794,
      "duration": 0.1265,
      "velocity": 83,
      "chip": "ym2612"
    },
    {
      "channel": 3,
      "note": 78,
      "start": 35.382,
      "duration": 0.1241,
      "velocity": 83,
      "chip": "ym2612"
    },
    {
      "channel": 2,
      "note": 81,
      "start": 35.3852,
      "duration": 0.1543,
      "velocity": 87,
      "chip": "ym2612"
    },
    {
      "channel": 0,
      "note": 45,
      "start": 35.5593,
      "duration": 0.0633,
      "velocity": 122,
      "chip": "ym2612"
    },
    {
      "channel": 2,
      "note": 78,
      "start": 35.5629,
      "duration": 0.06,
      "velocity": 87,
      "chip": "ym2612"
    },
    {
      "channel": 5,
      "note": 59,
      "start": 35.6596,
      "duration": 0.2632,
      "velocity": 111,
      "chip": "ym2612"
    },
    {
      "channel": 0,
      "note": 45,
      "start": 35.6623,
      "duration": 0.0938,
      "velocity": 122,
      "chip": "ym2612"
    },
    {
      "channel": 4,
      "note": 76,
      "start": 35.6658,
      "duration": 0.0906,
      "velocity": 83,
      "chip": "ym2612"
    },
    {
      "channel": 1,
      "note": 66,
      "start": 35.6684,
      "duration": 0.0878,
      "velocity": 83,
      "chip": "ym2612"
    },
    {
      "channel": 3,
      "note": 69,
      "start": 35.6713,
      "duration": 0.1015,
      "velocity": 83,
      "chip": "ym2612"
    },
    {
      "channel": 2,
      "note": 83,
      "start": 35.6743,
      "duration": 0.1485,
      "velocity": 87,
      "chip": "ym2612"
    },
    {
      "channel": 1,
      "note": 57,
      "start": 35.844,
      "duration": 0.0286,
      "velocity": 83,
      "chip": "ym2612"
    },
    {
      "channel": 3,
      "note": 54,
      "start": 35.8464,
      "duration": 0.0264,
      "velocity": 83,
      "chip": "ym2612"
    },
    {
      "channel": 4,
      "note": 52,
      "start": 35.8489,
      "duration": 0.024,
      "velocity": 83,
      "chip": "ym2612"
    },
    {
      "channel": 2,
      "note": 81,
      "start": 35.8519,
      "duration": 0.0711,
      "velocity": 87,
      "chip": "ym2612"
    },
    {
      "channel": 5,
      "note": 57,
      "start": 35.9429,
      "duration": 0.1966,
      "velocity": 111,
      "chip": "ym2612"
    },
    {
      "channel": 0,
      "note": 45,
      "start": 35.9454,
      "duration": 0.0939,
      "velocity": 122,
      "chip": "ym2612"
    },
    {
      "channel": 1,
      "note": 76,
      "start": 35.9491,
      "duration": 0.1069,
      "velocity": 83,
      "chip": "ym2612"
    },
    {
      "channel": 3,
      "note": 66,
      "start": 35.9516,
      "duration": 0.1046,
      "velocity": 83,
      "chip": "ym2612"
    },
    {
      "channel": 2,
      "note": 78,
      "start": 35.9547,
      "duration": 0.1018,
      "velocity": 87,
      "chip": "ym2612"
    },
    {
      "channel": 1,
      "note": 54,
      "start": 36.1441,
      "duration": 0.0118,
      "velocity": 83,
      "chip": "ym2612"
    },
    {
      "channel": 3,
      "note": 52,
      "start": 36.1466,
      "duration": 0.0094,
      "velocity": 83,
      "chip": "ym2612"
    },
    {
      "channel": 2,
      "note": 76,
      "start": 36.15,
      "duration": 0.4898,
      "velocity": 87,
      "chip": "ym2612"
    },
    {
      "channel": 5,
      "note": 54,
      "start": 36.2266,
      "duration": 0.3134,
      "velocity": 111,
      "chip": "ym2612"
    },
    {
      "channel": 4,
      "note": 49,
      "start": 36.2299,
      "duration": 0.0763,
      "velocity": 125,
      "chip": "ym2612"
    },
    {
      "channel": 1,
      "note": 51,
      "start": 36.2327,
      "duration": 0.0234,
      "velocity": 83,
      "chip": "ym2612"
    },
    {
      "channel": 3,
      "note": 54,
      "start": 36.2353,
      "duration": 0.0377,
      "velocity": 83,
      "chip": "ym2612"
    },
    {
      "channel": 0,
      "note": 57,
      "start": 36.2379,
      "duration": 0.0348,
      "velocity": 83,
      "chip": "ym2612"
    },
    {
      "channel": 4,
      "note": 49,
      "start": 36.3263,
      "duration": 0.0134,
      "velocity": 125,
      "chip": "ym2612"
    },
    {
      "channel": 0,
      "note": 75,
      "start": 36.3302,
      "duration": 0.0093,
      "velocity": 83,
      "chip": "ym2612"
    },
    {
      "channel": 1,
      "note": 78,
      "start": 36.3327,
      "duration": 0.04,
      "velocity": 83,
      "chip": "ym2612"
    },
    {
      "channel": 3,
      "note": 81,
      "start": 36.3351,
      "duration": 0.0377,
      "velocity": 83,
      "chip": "ym2612"
    },
    {
      "channel": 4,
      "note": 49,
      "start": 36.426,
      "duration": 0.0134,
      "velocity": 125,
      "chip": "ym2612"
    },
    {
      "channel": 0,
      "note": 51,
      "start": 36.4293,
      "duration": 0.0433,
      "velocity": 83,
      "chip": "ym2612"
    },
    {
      "channel": 1,
      "note": 54,
      "start": 36.4316,
      "duration": 0.0412,
      "velocity": 83,
      "chip": "ym2612"
    },
    {
      "channel": 3,
      "note": 57,
      "start": 36.4342,
      "duration": 0.0551,
      "velocity": 83,
      "chip": "ym2612"
    },
    {
      "channel": 4,
      "note": 49,
      "start": 36.5263,
      "duration": 0.1132,
      "velocity": 125,
      "chip": "ym2612"
    },
    {
      "channel": 0,
      "note": 75,
      "start": 36.5309,
      "duration": 0.2418,
      "velocity": 103,
      "chip": "ym2612"
    },
    {
      "channel": 1,
      "note": 78,
      "start": 36.5336,
      "duration": 0.2392,
      "velocity": 103,
      "chip": "ym2612"
    },
    {
      "channel": 3,
      "note": 73,
      "start": 36.5369,
      "duration": 0.2693,
      "velocity": 103,
      "chip": "ym2612"
    },
    {
      "channel": 4,
      "note": 49,
      "start": 36.7098,
      "duration": 0.0632,
      "velocity": 125,
      "chip": "ym2612"
    },
    {
      "channel": 5,
      "note": 52,
      "start": 36.8098,
      "duration": 0.1132,
      "velocity": 111,
      "chip": "ym2612"
    },
    {
      "channel": 2,
      "note": 45,
      "start": 36.8127,
      "duration": 0.0937,
      "velocity": 122,
      "chip": "ym2612"
    },
    {
      "channel": 0,
      "note": 40,
      "start": 36.8161,
      "duration": 5.1566,
      "velocity": 125,
      "chip": "ym2612"
    },
    {
      "channel": 2,
      "note": 45,
      "start": 36.9933,
      "duration": 0.0014,
      "velocity": 122,
      "chip": "ym2612"
    },
    {
      "channel": 2,
      "note": 82,
      "start": 36.9966,
      "duration": 0.0429,
      "velocity": 85,
      "chip": "ym2612"
    },
    {
      "channel": 1,
      "note": 64,
      "start": 37.0005,
      "duration": 0.0724,
      "velocity": 98,
      "chip": "ym2612"
    },
    {
      "channel": 5,
      "note": 52,
      "start": 37.0929,
      "duration": 0.2133,
      "velocity": 111,
      "chip": "ym2612"
    },
    {
      "channel": 4,
      "note": 45,
      "start": 37.0959,
      "duration": 0.0935,
      "velocity": 122,
      "chip": "ym2612"
    },
    {
      "channel": 2,
      "note": 82,
      "start": 37.0988,
      "duration": 0.1076,
      "velocity": 85,
      "chip": "ym2612"
    },
    {
      "channel": 5,
      "note": 55,
      "start": 37.376,
      "duration": 0.1468,
      "velocity": 111,
      "chip": "ym2612"
    },
    {
      "channel": 3,
      "note": 49,
      "start": 37.3793,
      "duration": 0.2433,
      "velocity": 125,
      "chip": "ym2612"
    },
    {
      "channel": 1,
      "note": 67,
      "start": 37.5768,
      "duration": 0.0626,
      "velocity": 98,
      "chip": "ym2612"
    },
    {
      "channel": 5,
      "note": 55,
      "start": 37.6761,
      "duration": 0.2468,
      "velocity": 111,
      "chip": "ym2612"
    },
    {
      "channel": 4,
      "note": 45,
      "start": 37.6788,
      "duration": 0.0773,
      "velocity": 122,
      "chip": "ym2612"
    },
    {
      "channel": 2,
      "note": 82,
      "start": 37.6816,
      "duration": 0.108,
      "velocity": 85,
      "chip": "ym2612"
    },
    {
      "channel": 4,
      "note": 45,
      "start": 37.8594,
      "duration": 0.0634,
      "velocity": 122,
      "chip": "ym2612"
    },
    {
      "channel": 5,
      "note": 52,
      "start": 37.9594,
      "duration": 0.1135,
      "velocity": 111,
      "chip": "ym2612"
    },
    {
      "channel": 4,
      "note": 45,
      "start": 37.9622,
      "duration": 0.0939,
      "velocity": 122,
      "chip": "ym2612"
    },
    {
      "channel": 4,
      "note": 45,
      "start": 38.1426,
      "duration": 0.0969,
      "velocity": 122,
      "chip": "ym2612"
    },
    {
      "channel": 5,
      "note": 52,
      "start": 38.243,
      "duration": 0.1631,
      "velocity": 111,
      "chip": "ym2612"
    },
    {
      "channel": 3,
      "note": 91,
      "start": 38.2468,
      "duration": 0.1426,
      "velocity": 111,
      "chip": "ym2612"
    },
    {
      "channel": 1,
      "note": 86,
      "start": 38.2498,
      "duration": 0.1396,
      "velocity": 111,
      "chip": "ym2612"
    },
    {
      "channel": 2,
      "note": 81,
      "start": 38.2537,
      "duration": 0.3026,
      "velocity": 104,
      "chip": "ym2612"
    },
    {
      "channel": 4,
      "note": 49,
      "start": 38.5267,
      "duration": 0.2628,
      "velocity": 125,
      "chip": "ym2612"
    },
    {
      "channel": 5,
      "note": 50,
      "start": 38.7266,
      "duration": 0.3798,
      "velocity": 111,
      "chip": "ym2612"
    },
    {
      "channel": 1,
      "note": 90,
      "start": 38.7313,
      "duration": 0.3747,
      "velocity": 111,
      "chip": "ym2612"
    },
    {
      "channel": 3,
      "note": 94,
      "start": 38.7339,
      "duration": 0.3723,
      "velocity": 111,
      "chip": "ym2612"
    },
    {
      "channel": 2,
      "note": 85,
      "start": 38.7374,
      "duration": 0.0872,
      "velocity": 111,
      "chip": "ym2612"
    },
    {
      "channel": 2,
      "note": 82,
      "start": 38.8265,
      "duration": 0.1299,
      "velocity": 85,
      "chip": "ym2612"
    },
    {
      "channel": 5,
      "note": 52,
      "start": 39.1099,
      "duration": 0.1132,
      "velocity": 111,
      "chip": "ym2612"
    },
    {
      "channel": 4,
      "note": 45,
      "start": 39.1131,
      "duration": 0.0932,
      "velocity": 122,
      "chip": "ym2612"
    },
    {
      "channel": 4,
      "note": 45,
      "start": 39.2929,
      "duration": 0.0801,
      "velocity": 122,
      "chip": "ym2612"
    },
    {
      "channel": 2,
      "note": 82,
      "start": 39.2958,
      "duration": 0.0439,
      "velocity": 85,
      "chip": "ym2612"
    },
    {
      "channel": 1,
      "note": 64,
      "start": 39.2991,
      "duration": 0.0737,
      "velocity": 98,
      "chip": "ym2612"
    },
    {
      "channel": 5,
      "note": 52,
      "start": 39.3928,
      "duration": 0.2467,
      "velocity": 111,
      "chip": "ym2612"
    },
    {
      "channel": 4,
      "note": 45,
      "start": 39.3956,
      "duration": 0.0938,
      "velocity": 122,
      "chip": "ym2612"
    },
    {
      "channel": 2,
      "note": 82,
      "start": 39.3989,
      "duration": 0.1075,
      "velocity": 85,
      "chip": "ym2612"
    },
    {
      "channel": 4,
      "note": 45,
      "start": 39.5927,
      "duration": 0.0801,
      "velocity": 122,
      "chip": "ym2612"
    },
    {
      "channel": 5,
      "note": 55,
      "start": 39.6762,
      "duration": 0.0968,
      "velocity": 111,
      "chip": "ym2612"
    },
    {
      "channel": 3,
      "note": 49,
      "start": 39.6793,
      "duration": 0.1934,
      "velocity": 125,
      "chip": "ym2612"
    },
    {
      "channel": 2,
      "note": 82,
      "start": 39.8763,
      "duration": 0.0633,
      "velocity": 85,
      "chip": "ym2612"
    },
    {
      "channel": 1,
      "note": 67,
      "start": 39.8796,
      "duration": 0.1099,
      "velocity": 98,
      "chip": "ym2612"
    },
    {
      "channel": 5,
      "note": 55,
      "start": 39.9762,
      "duration": 0.1633,
      "velocity": 111,
      "chip": "ym2612"
    },
    {
      "channel": 4,
      "note": 45,
      "start": 39.979,
      "duration": 0.0773,
      "velocity": 122,
      "chip": "ym2612"
    },
    {
      "channel": 2,
      "note": 82,
      "start": 39.9818,
      "duration": 0.0746,
      "velocity": 85,
      "chip": "ym2612"
    },
    {
      "channel": 4,
      "note": 45,
      "start": 40.1594,
      "duration": 0.0634,
      "velocity": 122,
      "chip": "ym2612"
    },
    {
      "channel": 4,
      "note": 45,
      "start": 40.2598,
      "duration": 0.0964,
      "velocity": 122,
      "chip": "ym2612"
    },
    {
      "channel": 5,
      "note": 49,
      "start": 40.4429,
      "duration": 0.2965,
      "velocity": 111,
      "chip": "ym2612"
    },
    {
      "channel": 4,
      "note": 45,
      "start": 40.4457,
      "duration": 0.0937,
      "velocity": 122,
      "chip": "ym2612"
    },
    {
      "channel": 2,
      "note": 82,
      "start": 40.4485,
      "duration": 0.0243,
      "velocity": 85,
      "chip": "ym2612"
    },
    {
      "channel": 2,
      "note": 81,
      "start": 40.5443,
      "duration": 0.2618,
      "velocity": 104,
      "chip": "ym2612"
    },
    {
      "channel": 5,
      "note": 50,
      "start": 40.8266,
      "duration": 0.1962,
      "velocity": 111,
      "chip": "ym2612"
    },
    {
      "channel": 3,
      "note": 49,
      "start": 40.8295,
      "duration": 0.2099,
      "velocity": 125,
      "chip": "ym2612"
    },
    {
      "channel": 4,
      "note": 45,
      "start": 41.0262,
      "duration": 0.0632,
      "velocity": 122,
      "chip": "ym2612"
    },
    {
      "channel": 1,
      "note": 99,
      "start": 41.0298,
      "duration": 0.3096,
      "velocity": 111,
      "chip": "ym2612"
    },
    {
      "channel": 2,
      "note": 94,
      "start": 41.0327,
      "duration": 0.3071,
      "velocity": 111,
      "chip": "ym2612"
    },
    {
      "channel": 5,
      "note": 89,
      "start": 41.0356,
      "duration": 0.3041,
      "velocity": 111,
      "chip": "ym2612"
    },
    {
      "channel": 3,
      "note": 51,
      "start": 41.1261,
      "duration": 0.1634,
      "velocity": 111,
      "chip": "ym2612"
    },
    {
      "channel": 3,
      "note": 52,
      "start": 41.4094,
      "duration": 0.1136,
      "velocity": 111,
      "chip": "ym2612"
    },
    {
      "channel": 4,
      "note": 45,
      "start": 41.4124,
      "duration": 0.0939,
      "velocity": 122,
      "chip": "ym2612"
    },
    {
      "channel": 1,
      "note": 40,
      "start": 41.4167,
      "duration": 4.4229,
      "velocity": 125,
      "chip": "ym2612"
    },
    {
      "channel": 4,
      "note": 45,
      "start": 41.5928,
      "duration": 0.08,
      "velocity": 122,
      "chip": "ym2612"
    },
    {
      "channel": 2,
      "note": 82,
      "start": 41.5955,
      "duration": 0.0274,
      "velocity": 85,
      "chip": "ym2612"
    },
    {
      "channel": 5,
      "note": 64,
      "start": 41.5989,
      "duration": 0.074,
      "velocity": 98,
      "chip": "ym2612"
    },
    {
      "channel": 3,
      "note": 52,
      "start": 41.6927,
      "duration": 0.2802,
      "velocity": 111,
      "chip": "ym2612"
    },
    {
      "channel": 4,
      "note": 45,
      "start": 41.6956,
      "duration": 0.094,
      "velocity": 122,
      "chip": "ym2612"
    },
    {
      "channel": 2,
      "note": 82,
      "start": 41.6984,
      "duration": 0.1079,
      "velocity": 85,
      "chip": "ym2612"
    },
    {
      "channel": 4,
      "note": 45,
      "start": 41.8929,
      "duration": 0.0801,
      "velocity": 122,
      "chip": "ym2612"
    },
    {
      "channel": 3,
      "note": 55,
      "start": 41.9762,
      "duration": 0.1465,
      "velocity": 111,
      "chip": "ym2612"
    },
    {
      "channel": 5,
      "note": 49,
      "start": 41.9792,
      "duration": 0.2102,
      "velocity": 125,
      "chip": "ym2612"
    },
    {
      "channel": 2,
      "note": 67,
      "start": 42.1777,
      "duration": 0.1022,
      "velocity": 98,
      "chip": "ym2612"
    },
    {
      "channel": 3,
      "note": 55,
      "start": 42.276,
      "duration": 0.1302,
      "velocity": 111,
      "chip": "ym2612"
    },
    {
      "channel": 4,
      "note": 45,
      "start": 42.2787,
      "duration": 0.0775,
      "velocity": 122,
      "chip": "ym2612"
    },
    {
      "channel": 2,
      "note": 82,
      "start": 42.2818,
      "duration": 0.1077,
      "velocity": 85,
      "chip": "ym2612"
    },
    {
      "channel": 4,
      "note": 45,
      "start": 42.4594,
      "duration": 0.0466,
      "velocity": 122,
      "chip": "ym2612"
    },
    {
      "channel": 4,
      "note": 45,
      "start": 42.5594,
      "duration": 0.0968,
      "velocity": 122,
      "chip": "ym2612"
    },
    {
      "channel": 3,
      "note": 45,
      "start": 42.7428,
      "duration": 0.0799,
      "velocity": 111,
      "chip": "ym2612"
    },
    {
      "channel": 4,
      "note": 45,
      "start": 42.7455,
      "duration": 0.0939,
      "velocity": 122,
      "chip": "ym2612"
    },
    {
      "channel": 2,
      "note": 82,
      "start": 42.7484,
      "duration": 0.0746,
      "velocity": 85,
      "chip": "ym2612"
    },
    {
      "channel": 3,
      "note": 45,
      "start": 42.8432,
      "duration": 0.1628,
      "velocity": 111,
      "chip": "ym2612"
    },
    {
      "channel": 0,
      "note": 86,
      "start": 42.847,
      "duration": 0.1423,
      "velocity": 111,
      "chip": "ym2612"
    },
    {
      "channel": 5,
      "note": 95,
      "start": 42.8503,
      "duration": 0.1392,
      "velocity": 111,
      "chip": "ym2612"
    },
    {
      "channel": 2,
      "note": 81,
      "start": 42.8546,
      "duration": 0.2683,
      "velocity": 104,
      "chip": "ym2612"
    },
    {
      "channel": 3,
      "note": 49,
      "start": 43.126,
      "duration": 0.2134,
      "velocity": 111,
      "chip": "ym2612"
    },
    {
      "channel": 4,
      "note": 49,
      "start": 43.1292,
      "duration": 0.2436,
      "velocity": 125,
      "chip": "ym2612"
    },
    {
      "channel": 0,
      "note": 85,
      "start": 43.3267,
      "duration": 0.3628,
      "velocity": 111,
      "chip": "ym2612"
    },
    {
      "channel": 5,
      "note": 94,
      "start": 43.3295,
      "duration": 0.3603,
      "velocity": 111,
      "chip": "ym2612"
    },
    {
      "channel": 3,
      "note": 50,
      "start": 43.4259,
      "duration": 0.1802,
      "velocity": 111,
      "chip": "ym2612"
    },
    {
      "channel": 2,
      "note": 82,
      "start": 43.4288,
      "duration": 0.0609,
      "velocity": 85,
      "chip": "ym2612"
    },
    {
      "channel": 4,
      "note": 45,
      "start": 43.6097,
      "duration": 0.08,
      "velocity": 122,
      "chip": "ym2612"
    },
    {
      "channel": 3,
      "note": 52,
      "start": 43.7094,
      "duration": 0.1136,
      "velocity": 111,
      "chip": "ym2612"
    },
    {
      "channel": 2,
      "note": 82,
      "start": 43.9117,
      "duration": 0.028,
      "velocity": 85,
      "chip": "ym2612"
    },
    {
      "channel": 0,
      "note": 64,
      "start": 43.9151,
      "duration": 0.0576,
      "velocity": 98,
      "chip": "ym2612"
    },
    {
      "channel": 3,
      "note": 52,
      "start": 43.9927,
      "duration": 0.2467,
      "velocity": 111,
      "chip": "ym2612"
    },
    {
      "channel": 4,
      "note": 45,
      "start": 43.996,
      "duration": 0.0937,
      "velocity": 122,
      "chip": "ym2612"
    },
    {
      "channel": 2,
      "note": 82,
      "start": 43.999,
      "duration": 0.0908,
      "velocity": 85,
      "chip": "ym2612"
    },
    {
      "channel": 4,
      "note": 45,
      "start": 44.1926,
      "duration": 0.0968,
      "velocity": 122,
      "chip": "ym2612"
    },
    {
      "channel": 3,
      "note": 55,
      "start": 44.2928,
      "duration": 0.0301,
      "velocity": 111,
      "chip": "ym2612"
    },
    {
      "channel": 5,
      "note": 49,
      "start": 44.2959,
      "duration": 0.1936,
      "velocity": 125,
      "chip": "ym2612"
    },
    {
      "channel": 4,
      "note": 45,
      "start": 44.4757,
      "duration": 0.0971,
      "velocity": 122,
      "chip": "ym2612"
    },
    {
      "channel": 0,
      "note": 67,
      "start": 44.4792,
      "duration": 0.1101,
      "velocity": 98,
      "chip": "ym2612"
    },
    {
      "channel": 3,
      "note": 55,
      "start": 44.5761,
      "duration": 0.1299,
      "velocity": 111,
      "chip": "ym2612"
    },
    {
      "channel": 2,
      "note": 82,
      "start": 44.5792,
      "duration": 0.0604,
      "velocity": 85,
      "chip": "ym2612"
    },
    {
      "channel": 4,
      "note": 45,
      "start": 44.7595,
      "duration": 0.0466,
      "velocity": 122,
      "chip": "ym2612"
    },
    {
      "channel": 3,
      "note": 57,
      "start": 44.8596,
      "duration": 0.1132,
      "velocity": 111,
      "chip": "ym2612"
    },
    {
      "channel": 4,
      "note": 45,
      "start": 44.8625,
      "duration": 0.0937,
      "velocity": 122,
      "chip": "ym2612"
    },
    {
      "channel": 2,
      "note": 82,
      "start": 45.0598,
      "duration": 0.0131,
      "velocity": 85,
      "chip": "ym2612"
    },
    {
      "channel": 3,
      "note": 50,
      "start": 45.1428,
      "duration": 0.0967,
      "velocity": 111,
      "chip": "ym2612"
    },
    {
      "channel": 4,
      "note": 45,
      "start": 45.1456,
      "duration": 0.0941,
      "velocity": 122,
      "chip": "ym2612"
    },
    {
      "channel": 5,
      "note": 73,
      "start": 45.1491,
      "duration": 0.0907,
      "velocity": 109,
      "chip": "ym2612"
    },
    {
      "channel": 0,
      "note": 81,
      "start": 45.1527,
      "duration": 0.0866,
      "velocity": 111,
      "chip": "ym2612"
    },
    {
      "channel": 2,
      "note": 64,
      "start": 45.1561,
      "duration": 0.1335,
      "velocity": 98,
      "chip": "ym2612"
    },
    {
      "channel": 5,
      "note": 69,
      "start": 45.244,
      "duration": 0.0956,
      "velocity": 109,
      "chip": "ym2612"
    },
    {
      "channel": 0,
      "note": 77,
      "start": 45.2466,
      "duration": 0.0927,
      "velocity": 111,
      "chip": "ym2612"
    },
    {
      "channel": 3,
      "note": 52,
      "start": 45.3429,
      "duration": 0.0131,
      "velocity": 111,
      "chip": "ym2612"
    },
    {
      "channel": 5,
      "note": 65,
      "start": 45.3462,
      "duration": 0.0934,
      "velocity": 109,
      "chip": "ym2612"
    },
    {
      "channel": 0,
      "note": 73,
      "start": 45.3489,
      "duration": 0.0905,
      "velocity": 111,
      "chip": "ym2612"
    },
    {
      "channel": 3,
      "note": 49,
      "start": 45.4429,
      "duration": 0.1681,
      "velocity": 111,
      "chip": "ym2612"
    },
    {
      "channel": 4,
      "note": 49,
      "start": 45.4461,
      "duration": 0.2434,
      "velocity": 125,
      "chip": "ym2612"
    },
    {
      "channel": 5,
      "note": 72,
      "start": 45.449,
      "duration": 0.074,
      "velocity": 109,
      "chip": "ym2612"
    },
    {
      "channel": 0,
      "note": 80,
      "start": 45.4517,
      "duration": 0.071,
      "velocity": 111,
      "chip": "ym2612"
    },
    {
      "channel": 2,
      "note": 62,
      "start": 45.4549,
      "duration": 0.0683,
      "velocity": 98,
      "chip": "ym2612"
    },
    {
      "channel": 5,
      "note": 68,
      "start": 45.527,
      "duration": 0.0959,
      "velocity": 109,
      "chip": "ym2612"
    },
    {
      "channel": 0,
      "note": 76,
      "start": 45.5299,
      "duration": 0.0927,
      "velocity": 111,
      "chip": "ym2612"
    },
    {
      "channel": 2,
      "note": 64,
      "start": 45.61,
      "duration": 0.0797,
      "velocity": 109,
      "chip": "ym2612"
    },
    {
      "channel": 3,
      "note": 72,
      "start": 45.6131,
      "duration": 0.0763,
      "velocity": 111,
      "chip": "ym2612"
    },
    {
      "channel": 0,
      "note": 59,
      "start": 45.6283,
      "duration": 0.0444,
      "velocity": 98,
      "chip": "ym2612"
    },
    {
      "channel": 5,
      "note": 47,
      "start": 45.7262,
      "duration": 0.13,
      "velocity": 111,
      "chip": "ym2612"
    },
    {
      "channel": 2,
      "note": 71,
      "start": 45.7297,
      "duration": 0.0934,
      "velocity": 109,
      "chip": "ym2612"
    },
    {
      "channel": 3,
      "note": 79,
      "start": 45.7326,
      "duration": 0.0903,
      "velocity": 111,
      "chip": "ym2612"
    },
    {
      "channel": 0,
      "note": 58,
      "start": 45.7357,
      "duration": 0.1037,
      "velocity": 98,
      "chip": "ym2612"
    },
    {
      "channel": 2,
      "note": 67,
      "start": 45.8269,
      "duration": 0.0795,
      "velocity": 109,
      "chip": "ym2612"
    },
    {
      "channel": 3,
      "note": 75,
      "start": 45.8297,
      "duration": 0.0764,
      "velocity": 111,
      "chip": "ym2612"
    },
    {
      "channel": 2,
      "note": 63,
      "start": 45.9102,
      "duration": 0.0961,
      "velocity": 109,
      "chip": "ym2612"
    },
    {
      "channel": 3,
      "note": 71,
      "start": 45.9131,
      "duration": 0.0929,
      "velocity": 111,
      "chip": "ym2612"
    },
    {
      "channel": 5,
      "note": 54,
      "start": 46.0096,
      "duration": 0.1134,
      "velocity": 111,
      "chip": "ym2612"
    },
    {
      "channel": 4,
      "note": 45,
      "start": 46.0124,
      "duration": 0.0938,
      "velocity": 122,
      "chip": "ym2612"
    },
    {
      "channel": 4,
      "note": 45,
      "start": 46.2098,
      "duration": 0.063,
      "velocity": 122,
      "chip": "ym2612"
    },
    {
      "channel": 2,
      "note": 57,
      "start": 46.2132,
      "duration": 0.0265,
      "velocity": 109,
      "chip": "ym2612"
    },
    {
      "channel": 0,
      "note": 54,
      "start": 46.2161,
      "duration": 0.0233,
      "velocity": 109,
      "chip": "ym2612"
    },
    {
      "channel": 1,
      "note": 52,
      "start": 46.2194,
      "duration": 0.02,
      "velocity": 109,
      "chip": "ym2612"
    },
    {
      "channel": 5,
      "note": 54,
      "start": 46.2928,
      "duration": 0.2134,
      "velocity": 111,
      "chip": "ym2612"
    },
    {
      "channel": 4,
      "note": 45,
      "start": 46.2956,
      "duration": 0.0939,
      "velocity": 122,
      "chip": "ym2612"
    },
    {
      "channel": 0,
      "note": 81,
      "start": 46.2987,
      "duration": 0.0407,
      "velocity": 109,
      "chip": "ym2612"
    },
    {
      "channel": 1,
      "note": 78,
      "start": 46.3013,
      "duration": 0.0382,
      "velocity": 109,
      "chip": "ym2612"
    },
    {
      "channel": 2,
      "note": 76,
      "start": 46.3043,
      "duration": 0.0356,
      "velocity": 109,
      "chip": "ym2612"
    },
    {
      "channel": 0,
      "note": 78,
      "start": 46.3935,
      "duration": 0.0959,
      "velocity": 109,
      "chip": "ym2612"
    },
    {
      "channel": 1,
      "note": 76,
      "start": 46.3962,
      "duration": 0.0932,
      "velocity": 109,
      "chip": "ym2612"
    },
    {
      "channel": 5,
      "note": 57,
      "start": 46.5931,
      "duration": 0.1298,
      "velocity": 111,
      "chip": "ym2612"
    },
    {
      "channel": 3,
      "note": 49,
      "start": 46.5961,
      "duration": 0.2434,
      "velocity": 125,
      "chip": "ym2612"
    },
    {
      "channel": 0,
      "note": 81,
      "start": 46.5991,
      "duration": 0.1069,
      "velocity": 109,
      "chip": "ym2612"
    },
    {
      "channel": 1,
      "note": 78,
      "start": 46.6017,
      "duration": 0.1044,
      "velocity": 109,
      "chip": "ym2612"
    },
    {
      "channel": 2,
      "note": 76,
      "start": 46.6051,
      "duration": 0.1013,
      "velocity": 109,
      "chip": "ym2612"
    },
    {
      "channel": 0,
      "note": 69,
      "start": 46.7765,
      "duration": 0.0628,
      "velocity": 109,
      "chip": "ym2612"
    },
    {
      "channel": 1,
      "note": 66,
      "start": 46.7793,
      "duration": 0.0434,
      "velocity": 109,
      "chip": "ym2612"
    },
    {
      "channel": 2,
      "note": 64,
      "start": 46.7823,
      "duration": 0.0408,
      "velocity": 109,
      "chip": "ym2612"
    },
    {
      "channel": 5,
      "note": 57,
      "start": 46.8761,
      "duration": 0.2636,
      "velocity": 111,
      "chip": "ym2612"
    },
    {
      "channel": 4,
      "note": 45,
      "start": 46.8788,
      "duration": 0.094,
      "velocity": 122,
      "chip": "ym2612"
    },
    {
      "channel": 0,
      "note": 78,
      "start": 46.882,
      "duration": 0.124,
      "velocity": 109,
      "chip": "ym2612"
    },
    {
      "channel": 1,
      "note": 76,
      "start": 46.8848,
      "duration": 0.1214,
      "velocity": 109,
      "chip": "ym2612"
    },
    {
      "channel": 4,
      "note": 45,
      "start": 47.0594,
      "duration": 0.0801,
      "velocity": 122,
      "chip": "ym2612"
    },
    {
      "channel": 5,
      "note": 54,
      "start": 47.1594,
      "duration": 0.1136,
      "velocity": 111,
      "chip": "ym2612"
    },
    {
      "channel": 4,
      "note": 45,
      "start": 47.1622,
      "duration": 0.094,
      "velocity": 122,
      "chip": "ym2612"
    },
    {
      "channel": 0,
      "note": 83,
      "start": 47.1659,
      "duration": 0.1069,
      "velocity": 109,
      "chip": "ym2612"
    },
    {
      "channel": 1,
      "note": 80,
      "start": 47.1686,
      "duration": 0.0875,
      "velocity": 109,
      "chip": "ym2612"
    },
    {
      "channel": 2,
      "note": 75,
      "start": 47.1716,
      "duration": 0.0849,
      "velocity": 109,
      "chip": "ym2612"
    },
    {
      "channel": 4,
      "note": 45,
      "start": 47.3595,
      "duration": 0.0299,
      "velocity": 122,
      "chip": "ym2612"
    },
    {
      "channel": 0,
      "note": 57,
      "start": 47.3627,
      "duration": 0.01,
      "velocity": 109,
      "chip": "ym2612"
    },
    {
      "channel": 1,
      "note": 54,
      "start": 47.3653,
      "duration": 0.0075,
      "velocity": 109,
      "chip": "ym2612"
    },
    {
      "channel": 2,
      "note": 52,
      "start": 47.3683,
      "duration": 0.0048,
      "velocity": 109,
      "chip": "ym2612"
    },
    {
      "channel": 5,
      "note": 54,
      "start": 47.4429,
      "duration": 0.1632,
      "velocity": 111,
      "chip": "ym2612"
    },
    {
      "channel": 0,
      "note": 84,
      "start": 47.4463,
      "duration": 0.1264,
      "velocity": 109,
      "chip": "ym2612"
    },
    {
      "channel": 1,
      "note": 81,
      "start": 47.4488,
      "duration": 0.124,
      "velocity": 109,
      "chip": "ym2612"
    },
    {
      "channel": 2,
      "note": 76,
      "start": 47.4522,
      "duration": 0.1209,
      "velocity": 109,
      "chip": "ym2612"
    },
    {
      "channel": 0,
      "note": 54,
      "start": 47.6432,
      "duration": 0.0128,
      "velocity": 109,
      "chip": "ym2612"
    },
    {
      "channel": 1,
      "note": 52,
      "start": 47.6459,
      "duration": 0.0102,
      "velocity": 109,
      "chip": "ym2612"
    },
    {
      "channel": 3,
      "note": 49,
      "start": 47.7429,
      "duration": 0.3467,
      "velocity": 125,
      "chip": "ym2612"
    },
    {
      "channel": 0,
      "note": 75,
      "start": 47.7459,
      "duration": 0.0269,
      "velocity": 109,
      "chip": "ym2612"
    },
    {
      "channel": 1,
      "note": 81,
      "start": 47.7484,
      "duration": 0.0245,
      "velocity": 109,
      "chip": "ym2612"
    },
    {
      "channel": 2,
      "note": 78,
      "start": 47.7514,
      "duration": 0.0217,
      "velocity": 109,
      "chip": "ym2612"
    },
    {
      "channel": 0,
      "note": 63,
      "start": 47.8266,
      "duration": 0.0461,
      "velocity": 109,
      "chip": "ym2612"
    },
    {
      "channel": 1,
      "note": 69,
      "start": 47.8292,
      "duration": 0.0436,
      "velocity": 109,
      "chip": "ym2612"
    },
    {
      "channel": 2,
      "note": 66,
      "start": 47.8325,
      "duration": 0.0406,
      "velocity": 109,
      "chip": "ym2612"
    },
    {
      "channel": 5,
      "note": 52,
      "start": 47.9263,
      "duration": 0.38,
      "velocity": 111,
      "chip": "ym2612"
    },
    {
      "channel": 0,
      "note": 75,
      "start": 47.9295,
      "duration": 0.0432,
      "velocity": 109,
      "chip": "ym2612"
    },
    {
      "channel": 1,
      "note": 81,
      "start": 47.9322,
      "duration": 0.0571,
      "velocity": 109,
      "chip": "ym2612"
    },
    {
      "channel": 2,
      "note": 78,
      "start": 47.9353,
      "duration": 0.0377,
      "velocity": 109,
      "chip": "ym2612"
    },
    {
      "channel": 0,
      "note": 75,
      "start": 48.0276,
      "duration": 0.2618,
      "velocity": 109,
      "chip": "ym2612"
    },
    {
      "channel": 1,
      "note": 71,
      "start": 48.0302,
      "duration": 0.2593,
      "velocity": 109,
      "chip": "ym2612"
    },
    {
      "channel": 2,
      "note": 78,
      "start": 48.0339,
      "duration": 0.2226,
      "velocity": 109,
      "chip": "ym2612"
    },
    {
      "channel": 5,
      "note": 54,
      "start": 48.3098,
      "duration": 0.1132,
      "velocity": 111,
      "chip": "ym2612"
    },
    {
      "channel": 4,
      "note": 45,
      "start": 48.313,
      "duration": 0.0933,
      "velocity": 122,
      "chip": "ym2612"
    },
    {
      "channel": 3,
      "note": 54,
      "start": 48.3169,
      "duration": 0.0561,
      "velocity": 83,
      "chip": "ym2612"
    },
    {
      "channel": 4,
      "note": 45,
      "start": 48.5096,
      "duration": 0.0634,
      "velocity": 122,
      "chip": "ym2612"
    },
    {
      "channel": 3,
      "note": 54,
      "start": 48.5127,
      "duration": 0.0602,
      "velocity": 83,
      "chip": "ym2612"
    },
    {
      "channel": 5,
      "note": 54,
      "start": 48.5932,
      "duration": 0.2462,
      "velocity": 111,
      "chip": "ym2612"
    },
    {
      "channel": 4,
      "note": 45,
      "start": 48.5961,
      "duration": 0.0934,
      "velocity": 122,
      "chip": "ym2612"
    },
    {
      "channel": 3,
      "note": 54,
      "start": 48.5994,
      "duration": 0.19,
      "velocity": 83,
      "chip": "ym2612"
    },
    {
      "channel": 4,
      "note": 45,
      "start": 48.7928,
      "duration": 0.0633,
      "velocity": 122,
      "chip": "ym2612"
    },
    {
      "channel": 5,
      "note": 57,
      "start": 48.8928,
      "duration": 0.0802,
      "velocity": 111,
      "chip": "ym2612"
    },
    {
      "channel": 2,
      "note": 49,
      "start": 48.8963,
      "duration": 0.2433,
      "velocity": 125,
      "chip": "ym2612"
    },
    {
      "channel": 3,
      "note": 57,
      "start": 48.8992,
      "duration": 0.1069,
      "velocity": 83,
      "chip": "ym2612"
    },
    {
      "channel": 5,
      "note": 57,
      "start": 49.1762,
      "duration": 0.1632,
      "velocity": 111,
      "chip": "ym2612"
    },
    {
      "channel": 4,
      "note": 45,
      "start": 49.1791,
      "duration": 0.0938,
      "velocity": 122,
      "chip": "ym2612"
    },
    {
      "channel": 3,
      "note": 57,
      "start": 49.1823,
      "duration": 0.2072,
      "velocity": 83,
      "chip": "ym2612"
    },
    {
      "channel": 4,
      "note": 45,
      "start": 49.4593,
      "duration": 0.0969,
      "velocity": 122,
      "chip": "ym2612"
    },
    {
      "channel": 3,
      "note": 59,
      "start": 49.4625,
      "duration": 0.0936,
      "velocity": 83,
      "chip": "ym2612"
    },
    {
      "channel": 5,
      "note": 51,
      "start": 49.6596,
      "duration": 0.2799,
      "velocity": 111,
      "chip": "ym2612"
    },
    {
      "channel": 4,
      "note": 45,
      "start": 49.6628,
      "duration": 0.06,
      "velocity": 122,
      "chip": "ym2612"
    },
    {
      "channel": 3,
      "note": 51,
      "start": 49.6664,
      "duration": 0.323,
      "velocity": 83,
      "chip": "ym2612"
    },
    {
      "channel": 2,
      "note": 81,
      "start": 49.7442,
      "duration": 0.2455,
      "velocity": 104,
      "chip": "ym2612"
    },
    {
      "channel": 5,
      "note": 52,
      "start": 50.0431,
      "duration": 0.1798,
      "velocity": 111,
      "chip": "ym2612"
    },
    {
      "channel": 0,
      "note": 49,
      "start": 50.0462,
      "duration": 0.3266,
      "velocity": 125,
      "chip": "ym2612"
    },
    {
      "channel": 1,
      "note": 81,
      "start": 50.0526,
      "duration": 0.4368,
      "velocity": 103,
      "chip": "ym2612"
    },
    {
      "channel": 4,
      "note": 78,
      "start": 50.0556,
      "duration": 0.4173,
      "velocity": 103,
      "chip": "ym2612"
    },
    {
      "channel": 3,
      "note": 75,
      "start": 50.0588,
      "duration": 0.3807,
      "velocity": 103,
      "chip": "ym2612"
    },
    {
      "channel": 2,
      "note": 52,
      "start": 50.0618,
      "duration": 0.2113,
      "velocity": 83,
      "chip": "ym2612"
    },
    {
      "channel": 5,
      "note": 45,
      "start": 50.2262,
      "duration": 0.0801,
      "velocity": 122,
      "chip": "ym2612"
    },
    {
      "channel": 2,
      "note": 53,
      "start": 50.3262,
      "duration": 0.1635,
      "velocity": 111,
      "chip": "ym2612"
    },
    {
      "channel": 5,
      "note": 53,
      "start": 50.3297,
      "duration": 0.2266,
      "velocity": 83,
      "chip": "ym2612"
    },
    {
      "channel": 2,
      "note": 54,
      "start": 50.6099,
      "duration": 0.1131,
      "velocity": 111,
      "chip": "ym2612"
    },
    {
      "channel": 0,
      "note": 45,
      "start": 50.6129,
      "duration": 0.0931,
      "velocity": 122,
      "chip": "ym2612"
    },
    {
      "channel": 0,
      "note": 45,
      "start": 50.8093,
      "duration": 0.0634,
      "velocity": 122,
      "chip": "ym2612"
    },
    {
      "channel": 3,
      "note": 57,
      "start": 50.8127,
      "duration": 0.0434,
      "velocity": 109,
      "chip": "ym2612"
    },
    {
      "channel": 4,
      "note": 54,
      "start": 50.8156,
      "duration": 0.0407,
      "velocity": 109,
      "chip": "ym2612"
    },
    {
      "channel": 1,
      "note": 52,
      "start": 50.8186,
      "duration": 0.0374,
      "velocity": 109,
      "chip": "ym2612"
    },
    {
      "channel": 2,
      "note": 54,
      "start": 50.8932,
      "duration": 0.2966,
      "velocity": 111,
      "chip": "ym2612"
    },
    {
      "channel": 0,
      "note": 45,
      "start": 50.8958,
      "duration": 0.0936,
      "velocity": 122,
      "chip": "ym2612"
    },
    {
      "channel": 1,
      "note": 64,
      "start": 50.8989,
      "duration": 0.0405,
      "velocity": 109,
      "chip": "ym2612"
    },
    {
      "channel": 3,
      "note": 66,
      "start": 50.9015,
      "duration": 0.038,
      "velocity": 109,
      "chip": "ym2612"
    },
    {
      "channel": 4,
      "note": 69,
      "start": 50.9044,
      "duration": 0.0353,
      "velocity": 109,
      "chip": "ym2612"
    },
    {
      "channel": 1,
      "note": 64,
      "start": 50.9935,
      "duration": 0.0959,
      "velocity": 109,
      "chip": "ym2612"
    },
    {
      "channel": 3,
      "note": 66,
      "start": 50.9967,
      "duration": 0.0928,
      "velocity": 109,
      "chip": "ym2612"
    },
    {
      "channel": 0,
      "note": 45,
      "start": 51.0926,
      "duration": 0.0968,
      "velocity": 122,
      "chip": "ym2612"
    },
    {
      "channel": 2,
      "note": 57,
      "start": 51.1931,
      "duration": 0.1298,
      "velocity": 111,
      "chip": "ym2612"
    },
    {
      "channel": 5,
      "note": 49,
      "start": 51.1963,
      "duration": 0.2099,
      "velocity": 125,
      "chip": "ym2612"
    },
    {
      "channel": 1,
      "note": 64,
      "start": 51.1993,
      "duration": 0.1067,
      "velocity": 109,
      "chip": "ym2612"
    },
    {
      "channel": 3,
      "note": 66,
      "start": 51.202,
      "duration": 0.1041,
      "velocity": 109,
      "chip": "ym2612"
    },
    {
      "channel": 4,
      "note": 69,
      "start": 51.2049,
      "duration": 0.1015,
      "velocity": 109,
      "chip": "ym2612"
    },
    {
      "channel": 1,
      "note": 69,
      "start": 51.3766,
      "duration": 0.0795,
      "velocity": 109,
      "chip": "ym2612"
    },
    {
      "channel": 3,
      "note": 66,
      "start": 51.3793,
      "duration": 0.0434,
      "velocity": 109,
      "chip": "ym2612"
    },
    {
      "channel": 4,
      "note": 64,
      "start": 51.3822,
      "duration": 0.0407,
      "velocity": 109,
      "chip": "ym2612"
    },
    {
      "channel": 2,
      "note": 57,
      "start": 51.4761,
      "duration": 0.1469,
      "velocity": 111,
      "chip": "ym2612"
    },
    {
      "channel": 0,
      "note": 45,
      "start": 51.479,
      "duration": 0.0937,
      "velocity": 122,
      "chip": "ym2612"
    },
    {
      "channel": 1,
      "note": 64,
      "start": 51.4827,
      "duration": 0.14,
      "velocity": 109,
      "chip": "ym2612"
    },
    {
      "channel": 3,
      "note": 66,
      "start": 51.4854,
      "duration": 0.1373,
      "velocity": 109,
      "chip": "ym2612"
    },
    {
      "channel": 0,
      "note": 45,
      "start": 51.6593,
      "duration": 0.0467,
      "velocity": 122,
      "chip": "ym2612"
    },
    {
      "channel": 0,
      "note": 45,
      "start": 51.7592,
      "duration": 0.0969,
      "velocity": 122,
      "chip": "ym2612"
    },
    {
      "channel": 1,
      "note": 63,
      "start": 51.7624,
      "duration": 0.0938,
      "velocity": 109,
      "chip": "ym2612"
    },
    {
      "channel": 3,
      "note": 68,
      "start": 51.7651,
      "duration": 0.0913,
      "velocity": 109,
      "chip": "ym2612"
    },
    {
      "channel": 4,
      "note": 71,
      "start": 51.7681,
      "duration": 0.1047,
      "velocity": 109,
      "chip": "ym2612"
    },
    {
      "channel": 2,
      "note": 47,
      "start": 51.9596,
      "duration": 0.0633,
      "velocity": 111,
      "chip": "ym2612"
    },
    {
      "channel": 0,
      "note": 45,
      "start": 51.9622,
      "duration": 0.0771,
      "velocity": 122,
      "chip": "ym2612"
    },
    {
      "channel": 1,
      "note": 57,
      "start": 51.9655,
      "duration": 0.0078,
      "velocity": 109,
      "chip": "ym2612"
    },
    {
      "channel": 3,
      "note": 54,
      "start": 51.9681,
      "duration": 0.0053,
      "velocity": 109,
      "chip": "ym2612"
    },
    {
      "channel": 4,
      "note": 52,
      "start": 51.9713,
      "duration": 0.0022,
      "velocity": 109,
      "chip": "ym2612"
    },
    {
      "channel": 2,
      "note": 47,
      "start": 52.043,
      "duration": 0.1799,
      "velocity": 111,
      "chip": "ym2612"
    },
    {
      "channel": 1,
      "note": 64,
      "start": 52.0464,
      "duration": 0.1263,
      "velocity": 109,
      "chip": "ym2612"
    },
    {
      "channel": 3,
      "note": 69,
      "start": 52.0491,
      "duration": 0.1238,
      "velocity": 109,
      "chip": "ym2612"
    },
    {
      "channel": 4,
      "note": 72,
      "start": 52.0519,
      "duration": 0.1211,
      "velocity": 109,
      "chip": "ym2612"
    },
    {
      "channel": 1,
      "note": 54,
      "start": 52.2432,
      "duration": 0.0128,
      "velocity": 109,
      "chip": "ym2612"
    },
    {
      "channel": 3,
      "note": 52,
      "start": 52.246,
      "duration": 0.0101,
      "velocity": 109,
      "chip": "ym2612"
    },
    {
      "channel": 2,
      "note": 51,
      "start": 52.3429,
      "duration": 0.2134,
      "velocity": 111,
      "chip": "ym2612"
    },
    {
      "channel": 5,
      "note": 49,
      "start": 52.3459,
      "duration": 0.2271,
      "velocity": 125,
      "chip": "ym2612"
    },
    {
      "channel": 1,
      "note": 69,
      "start": 52.349,
      "duration": 0.0404,
      "velocity": 109,
      "chip": "ym2612"
    },
    {
      "channel": 3,
      "note": 66,
      "start": 52.3516,
      "duration": 0.0379,
      "velocity": 109,
      "chip": "ym2612"
    },
    {
      "channel": 4,
      "note": 63,
      "start": 52.355,
      "duration": 0.003,
      "velocity": 109,
      "chip": "ym2612"
    },
    {
      "channel": 1,
      "note": 57,
      "start": 52.4435,
      "duration": 0.0291,
      "velocity": 109,
      "chip": "ym2612"
    },
    {
      "channel": 3,
      "note": 66,
      "start": 52.4461,
      "duration": 0.0266,
      "velocity": 109,
      "chip": "ym2612"
    },
    {
      "channel": 4,
      "note": 63,
      "start": 52.4491,
      "duration": 0.0071,
      "velocity": 109,
      "chip": "ym2612"
    },
    {
      "channel": 1,
      "note": 69,
      "start": 52.5266,
      "duration": 0.0794,
      "velocity": 109,
      "chip": "ym2612"
    },
    {
      "channel": 3,
      "note": 66,
      "start": 52.5295,
      "duration": 0.0432,
      "velocity": 109,
      "chip": "ym2612"
    },
    {
      "channel": 4,
      "note": 63,
      "start": 52.5327,
      "duration": 0.0401,
      "velocity": 109,
      "chip": "ym2612"
    },
    {
      "channel": 2,
      "note": 52,
      "start": 52.6262,
      "duration": 0.1968,
      "velocity": 111,
      "chip": "ym2612"
    },
    {
      "channel": 1,
      "note": 71,
      "start": 52.6307,
      "duration": 0.2587,
      "velocity": 109,
      "chip": "ym2612"
    },
    {
      "channel": 3,
      "note": 66,
      "start": 52.6335,
      "duration": 0.2227,
      "velocity": 109,
      "chip": "ym2612"
    },
    {
      "channel": 4,
      "note": 63,
      "start": 52.6367,
      "duration": 0.2529,
      "velocity": 109,
      "chip": "ym2612"
    },
    {
      "channel": 0,
      "note": 45,
      "start": 52.8259,
      "duration": 0.0801,
      "velocity": 122,
      "chip": "ym2612"
    },
    {
      "channel": 2,
      "note": 54,
      "start": 52.91,
      "duration": 0.113,
      "velocity": 111,
      "chip": "ym2612"
    },
    {
      "channel": 5,
      "note": 42,
      "start": 52.9136,
      "duration": 0.0762,
      "velocity": 83,
      "chip": "ym2612"
    },
    {
      "channel": 5,
      "note": 54,
      "start": 53.11,
      "duration": 0.0629,
      "velocity": 83,
      "chip": "ym2612"
    },
    {
      "channel": 2,
      "note": 54,
      "start": 53.2097,
      "duration": 0.2298,
      "velocity": 111,
      "chip": "ym2612"
    },
    {
      "channel": 0,
      "note": 45,
      "start": 53.2122,
      "duration": 0.0771,
      "velocity": 122,
      "chip": "ym2612"
    },
    {
      "channel": 5,
      "note": 42,
      "start": 53.2156,
      "duration": 0.1738,
      "velocity": 83,
      "chip": "ym2612"
    },
    {
      "channel": 0,
      "note": 45,
      "start": 53.3929,
      "duration": 0.0631,
      "velocity": 122,
      "chip": "ym2612"
    },
    {
      "channel": 2,
      "note": 57,
      "start": 53.4929,
      "duration": 0.0468,
      "velocity": 111,
      "chip": "ym2612"
    },
    {
      "channel": 3,
      "note": 49,
      "start": 53.4962,
      "duration": 0.2099,
      "velocity": 125,
      "chip": "ym2612"
    },
    {
      "channel": 5,
      "note": 45,
      "start": 53.4996,
      "duration": 0.1067,
      "velocity": 83,
      "chip": "ym2612"
    },
    {
      "channel": 0,
      "note": 45,
      "start": 53.6756,
      "duration": 0.0804,
      "velocity": 122,
      "chip": "ym2612"
    },
    {
      "channel": 2,
      "note": 57,
      "start": 53.7761,
      "duration": 0.1468,
      "velocity": 111,
      "chip": "ym2612"
    },
    {
      "channel": 5,
      "note": 45,
      "start": 53.7794,
      "duration": 0.2268,
      "velocity": 83,
      "chip": "ym2612"
    },
    {
      "channel": 0,
      "note": 45,
      "start": 53.9759,
      "duration": 0.0635,
      "velocity": 122,
      "chip": "ym2612"
    },
    {
      "channel": 2,
      "note": 47,
      "start": 54.0597,
      "duration": 0.0299,
      "velocity": 111,
      "chip": "ym2612"
    },
    {
      "channel": 0,
      "note": 45,
      "start": 54.0624,
      "duration": 0.0936,
      "velocity": 122,
      "chip": "ym2612"
    },
    {
      "channel": 5,
      "note": 47,
      "start": 54.0658,
      "duration": 0.1569,
      "velocity": 83,
      "chip": "ym2612"
    },
    {
      "channel": 2,
      "note": 51,
      "start": 54.2597,
      "duration": 0.3468,
      "velocity": 111,
      "chip": "ym2612"
    },
    {
      "channel": 3,
      "note": 49,
      "start": 54.2628,
      "duration": 0.3434,
      "velocity": 125,
      "chip": "ym2612"
    },
    {
      "channel": 5,
      "note": 51,
      "start": 54.266,
      "duration": 0.2235,
      "velocity": 83,
      "chip": "ym2612"
    },
    {
      "channel": 0,
      "note": 45,
      "start": 54.3593,
      "duration": 0.03,
      "velocity": 122,
      "chip": "ym2612"
    },
    {
      "channel": 0,
      "note": 45,
      "start": 54.4426,
      "duration": 0.08,
      "velocity": 122,
      "chip": "ym2612"
    },
    {
      "channel": 0,
      "note": 45,
      "start": 54.5425,
      "duration": 0.0635,
      "velocity": 122,
      "chip": "ym2612"
    },
    {
      "channel": 2,
      "note": 45,
      "start": 54.6435,
      "duration": 0.0129,
      "velocity": 111,
      "chip": "ym2612"
    },
    {
      "channel": 5,
      "note": 45,
      "start": 54.647,
      "duration": 0.1092,
      "velocity": 83,
      "chip": "ym2612"
    },
    {
      "channel": 2,
      "note": 50,
      "start": 54.8263,
      "duration": 0.3635,
      "velocity": 111,
      "chip": "ym2612"
    },
    {
      "channel": 3,
      "note": 49,
      "start": 54.8298,
      "duration": 0.3097,
      "velocity": 125,
      "chip": "ym2612"
    },
    {
      "channel": 5,
      "note": 50,
      "start": 54.833,
      "duration": 0.3567,
      "velocity": 83,
      "chip": "ym2612"
    },
    {
      "channel": 1,
      "note": 49,
      "start": 54.9263,
      "duration": 0.1464,
      "velocity": 111,
      "chip": "ym2612"
    },
    {
      "channel": 0,
      "note": 45,
      "start": 54.9294,
      "duration": 0.0433,
      "velocity": 122,
      "chip": "ym2612"
    },
    {
      "channel": 0,
      "note": 45,
      "start": 55.0257,
      "duration": 0.0469,
      "velocity": 122,
      "chip": "ym2612"
    },
    {
      "channel": 0,
      "note": 45,
      "start": 55.1257,
      "duration": 0.0636,
      "velocity": 122,
      "chip": "ym2612"
    },
    {
      "channel": 1,
      "note": 48,
      "start": 55.2119,
      "duration": 0.0775,
      "velocity": 111,
      "chip": "ym2612"
    },
    {
      "channel": 0,
      "note": 45,
      "start": 55.2146,
      "duration": 0.0914,
      "velocity": 122,
      "chip": "ym2612"
    },
    {
      "channel": 4,
      "note": 84,
      "start": 55.2199,
      "duration": 0.0363,
      "velocity": 117,
      "chip": "ym2612"
    },
    {
      "channel": 1,
      "note": 50,
      "start": 55.2928,
      "duration": 0.1273,
      "velocity": 111,
      "chip": "ym2612"
    },
    {
      "channel": 4,
      "note": 86,
      "start": 55.2968,
      "duration": 0.426,
      "velocity": 117,
      "chip": "ym2612"
    },
    {
      "channel": 0,
      "note": 45,
      "start": 55.4093,
      "duration": 0.0633,
      "velocity": 122,
      "chip": "ym2612"
    },
    {
      "channel": 3,
      "note": 72,
      "start": 55.4128,
      "duration": 0.0434,
      "velocity": 109,
      "chip": "ym2612"
    },
    {
      "channel": 5,
      "note": 77,
      "start": 55.4167,
      "duration": 0.0397,
      "velocity": 83,
      "chip": "ym2612"
    },
    {
      "channel": 2,
      "note": 72,
      "start": 55.4193,
      "duration": 0.0372,
      "velocity": 83,
      "chip": "ym2612"
    },
    {
      "channel": 1,
      "note": 74,
      "start": 55.4221,
      "duration": 0.034,
      "velocity": 83,
      "chip": "ym2612"
    },
    {
      "channel": 0,
      "note": 45,
      "start": 55.5093,
      "duration": 0.0802,
      "velocity": 122,
      "chip": "ym2612"
    },
    {
      "channel": 3,
      "note": 72,
      "start": 55.5129,
      "duration": 0.1098,
      "velocity": 109,
      "chip": "ym2612"
    },
    {
      "channel": 1,
      "note": 74,
      "start": 55.5162,
      "duration": 0.0734,
      "velocity": 83,
      "chip": "ym2612"
    },
    {
      "channel": 5,
      "note": 72,
      "start": 55.5192,
      "duration": 0.0706,
      "velocity": 83,
      "chip": "ym2612"
    },
    {
      "channel": 2,
      "note": 48,
      "start": 55.7929,
      "duration": 0.1134,
      "velocity": 111,
      "chip": "ym2612"
    },
    {
      "channel": 0,
      "note": 49,
      "start": 55.7963,
      "duration": 0.2598,
      "velocity": 125,
      "chip": "ym2612"
    },
    {
      "channel": 3,
      "note": 77,
      "start": 55.8006,
      "duration": 0.1223,
      "velocity": 83,
      "chip": "ym2612"
    },
    {
      "channel": 1,
      "note": 74,
      "start": 55.8031,
      "duration": 0.1195,
      "velocity": 83,
      "chip": "ym2612"
    },
    {
      "channel": 5,
      "note": 72,
      "start": 55.8059,
      "duration": 0.1172,
      "velocity": 83,
      "chip": "ym2612"
    },
    {
      "channel": 4,
      "note": 84,
      "start": 55.8091,
      "duration": 0.1139,
      "velocity": 117,
      "chip": "ym2612"
    },
    {
      "channel": 2,
      "note": 45,
      "start": 56.076,
      "duration": 0.1472,
      "velocity": 111,
      "chip": "ym2612"
    },
    {
      "channel": 1,
      "note": 45,
      "start": 56.0788,
      "duration": 0.0939,
      "velocity": 122,
      "chip": "ym2612"
    },
    {
      "channel": 3,
      "note": 76,
      "start": 56.0826,
      "duration": 0.1402,
      "velocity": 83,
      "chip": "ym2612"
    },
    {
      "channel": 5,
      "note": 74,
      "start": 56.0851,
      "duration": 0.1379,
      "velocity": 83,
      "chip": "ym2612"
    },
    {
      "channel": 4,
      "note": 72,
      "start": 56.0878,
      "duration": 0.1351,
      "velocity": 83,
      "chip": "ym2612"
    },
    {
      "channel": 0,
      "note": 81,
      "start": 56.0909,
      "duration": 0.1317,
      "velocity": 117,
      "chip": "ym2612"
    },
    {
      "channel": 1,
      "note": 45,
      "start": 56.2763,
      "duration": 0.063,
      "velocity": 122,
      "chip": "ym2612"
    },
    {
      "channel": 2,
      "note": 43,
      "start": 56.3596,
      "duration": 0.2133,
      "velocity": 111,
      "chip": "ym2612"
    },
    {
      "channel": 1,
      "note": 45,
      "start": 56.3624,
      "duration": 0.0938,
      "velocity": 122,
      "chip": "ym2612"
    },
    {
      "channel": 0,
      "note": 83,
      "start": 56.3657,
      "duration": 0.157,
      "velocity": 117,
      "chip": "ym2612"
    },
    {
      "channel": 3,
      "note": 79,
      "start": 56.3685,
      "duration": 0.1544,
      "velocity": 117,
      "chip": "ym2612"
    },
    {
      "channel": 1,
      "note": 45,
      "start": 56.5598,
      "duration": 0.0964,
      "velocity": 122,
      "chip": "ym2612"
    },
    {
      "channel": 4,
      "note": 77,
      "start": 56.5637,
      "duration": 0.0426,
      "velocity": 83,
      "chip": "ym2612"
    },
    {
      "channel": 5,
      "note": 72,
      "start": 56.5663,
      "duration": 0.0401,
      "velocity": 83,
      "chip": "ym2612"
    },
    {
      "channel": 0,
      "note": 74,
      "start": 56.569,
      "duration": 0.037,
      "velocity": 83,
      "chip": "ym2612"
    },
    {
      "channel": 3,
      "note": 84,
      "start": 56.572,
      "duration": 0.1008,
      "velocity": 117,
      "chip": "ym2612"
    },
    {
      "channel": 2,
      "note": 80,
      "start": 56.5749,
      "duration": 0.0982,
      "velocity": 117,
      "chip": "ym2612"
    },
    {
      "channel": 0,
      "note": 41,
      "start": 56.6597,
      "duration": 0.1297,
      "velocity": 111,
      "chip": "ym2612"
    },
    {
      "channel": 4,
      "note": 74,
      "start": 56.6636,
      "duration": 0.076,
      "velocity": 83,
      "chip": "ym2612"
    },
    {
      "channel": 5,
      "note": 72,
      "start": 56.6666,
      "duration": 0.0732,
      "velocity": 83,
      "chip": "ym2612"
    },
    {
      "channel": 3,
      "note": 83,
      "start": 56.7442,
      "duration": 0.1451,
      "velocity": 117,
      "chip": "ym2612"
    },
    {
      "channel": 2,
      "note": 79,
      "start": 56.747,
      "duration": 0.1426,
      "velocity": 117,
      "chip": "ym2612"
    },
    {
      "channel": 1,
      "note": 49,
      "start": 56.9431,
      "duration": 0.3463,
      "velocity": 125,
      "chip": "ym2612"
    },
    {
      "channel": 4,
      "note": 77,
      "start": 56.9466,
      "duration": 0.1595,
      "velocity": 83,
      "chip": "ym2612"
    },
    {
      "channel": 5,
      "note": 74,
      "start": 56.9491,
      "duration": 0.1572,
      "velocity": 83,
      "chip": "ym2612"
    },
    {
      "channel": 0,
      "note": 72,
      "start": 56.952,
      "duration": 0.1373,
      "velocity": 83,
      "chip": "ym2612"
    },
    {
      "channel": 3,
      "note": 81,
      "start": 56.9552,
      "duration": 0.1508,
      "velocity": 117,
      "chip": "ym2612"
    },
    {
      "channel": 2,
      "note": 77,
      "start": 56.958,
      "duration": 0.1484,
      "velocity": 117,
      "chip": "ym2612"
    },
    {
      "channel": 3,
      "note": 83,
      "start": 57.1268,
      "duration": 0.1293,
      "velocity": 117,
      "chip": "ym2612"
    },
    {
      "channel": 2,
      "note": 79,
      "start": 57.1296,
      "duration": 0.1267,
      "velocity": 117,
      "chip": "ym2612"
    },
    {
      "channel": 0,
      "note": 79,
      "start": 57.227,
      "duration": 0.1456,
      "velocity": 83,
      "chip": "ym2612"
    },
    {
      "channel": 4,
      "note": 74,
      "start": 57.2294,
      "duration": 0.1434,
      "velocity": 83,
      "chip": "ym2612"
    },
    {
      "channel": 5,
      "note": 72,
      "start": 57.2322,
      "duration": 0.1075,
      "velocity": 83,
      "chip": "ym2612"
    },
    {
      "channel": 3,
      "note": 81,
      "start": 57.3272,
      "duration": 0.1123,
      "velocity": 117,
      "chip": "ym2612"
    },
    {
      "channel": 2,
      "note": 77,
      "start": 57.33,
      "duration": 0.1097,
      "velocity": 117,
      "chip": "ym2612"
    },
    {
      "channel": 1,
      "note": 45,
      "start": 57.5093,
      "duration": 0.0969,
      "velocity": 122,
      "chip": "ym2612"
    },
    {
      "channel": 3,
      "note": 77,
      "start": 57.5139,
      "duration": 0.9256,
      "velocity": 117,
      "chip": "ym2612"
    },
    {
      "channel": 2,
      "note": 74,
      "start": 57.5167,
      "duration": 0.923,
      "velocity": 117,
      "chip": "ym2612"
    },
    {
      "channel": 5,
      "note": 48,
      "start": 57.7096,
      "duration": 0.0101,
      "velocity": 111,
      "chip": "ym2612"
    },
    {
      "channel": 1,
      "note": 45,
      "start": 57.7124,
      "duration": 0.0604,
      "velocity": 122,
      "chip": "ym2612"
    },
    {
      "channel": 0,
      "note": 74,
      "start": 57.7163,
      "duration": 0.0398,
      "velocity": 83,
      "chip": "ym2612"
    },
    {
      "channel": 4,
      "note": 72,
      "start": 57.7188,
      "duration": 0.0375,
      "velocity": 83,
      "chip": "ym2612"
    },
    {
      "channel": 5,
      "note": 77,
      "start": 57.7217,
      "duration": 0.0349,
      "velocity": 83,
      "chip": "ym2612"
    },
    {
      "channel": 0,
      "note": 50,
      "start": 57.7764,
      "duration": 0.3242,
      "velocity": 111,
      "chip": "ym2612"
    },
    {
      "channel": 1,
      "note": 45,
      "start": 57.8094,
      "duration": 0.08,
      "velocity": 122,
      "chip": "ym2612"
    },
    {
      "channel": 4,
      "note": 74,
      "start": 57.8136,
      "duration": 0.1593,
      "velocity": 83,
      "chip": "ym2612"
    },
    {
      "channel": 5,
      "note": 72,
      "start": 57.8162,
      "duration": 0.1569,
      "velocity": 83,
      "chip": "ym2612"
    },
    {
      "channel": 1,
      "note": 45,
      "start": 57.993,
      "duration": 0.0964,
      "velocity": 122,
      "chip": "ym2612"
    },
    {
      "channel": 4,
      "note": 48,
      "start": 58.0934,
      "duration": 0.0102,
      "velocity": 111,
      "chip": "ym2612"
    },
    {
      "channel": 5,
      "note": 49,
      "start": 58.0965,
      "duration": 0.2596,
      "velocity": 125,
      "chip": "ym2612"
    },
    {
      "channel": 1,
      "note": 77,
      "start": 58.1,
      "duration": 0.1395,
      "velocity": 83,
      "chip": "ym2612"
    },
    {
      "channel": 0,
      "note": 74,
      "start": 58.1024,
      "duration": 0.1369,
      "velocity": 83,
      "chip": "ym2612"
    },
    {
      "channel": 4,
      "note": 72,
      "start": 58.1056,
      "duration": 0.134,
      "velocity": 83,
      "chip": "ym2612"
    },
    {
      "channel": 0,
      "note": 45,
      "start": 58.376,
      "duration": 0.0101,
      "velocity": 111,
      "chip": "ym2612"
    },
    {
      "channel": 1,
      "note": 45,
      "start": 58.3789,
      "duration": 0.0939,
      "velocity": 122,
      "chip": "ym2612"
    },
    {
      "channel": 4,
      "note": 77,
      "start": 58.3825,
      "duration": 0.1071,
      "velocity": 83,
      "chip": "ym2612"
    },
    {
      "channel": 5,
      "note": 74,
      "start": 58.385,
      "duration": 0.1047,
      "velocity": 83,
      "chip": "ym2612"
    },
    {
      "channel": 0,
      "note": 72,
      "start": 58.388,
      "duration": 0.0847,
      "velocity": 83,
      "chip": "ym2612"
    },
    {
      "channel": 3,
      "note": 43,
      "start": 58.6595,
      "duration": 0.3135,
      "velocity": 111,
      "chip": "ym2612"
    },
    {
      "channel": 1,
      "note": 45,
      "start": 58.6619,
      "duration": 0.0942,
      "velocity": 122,
      "chip": "ym2612"
    },
    {
      "channel": 2,
      "note": 74,
      "start": 58.6659,
      "duration": 0.0906,
      "velocity": 83,
      "chip": "ym2612"
    },
    {
      "channel": 0,
      "note": 72,
      "start": 58.6686,
      "duration": 0.0874,
      "velocity": 83,
      "chip": "ym2612"
    },
    {
      "channel": 4,
      "note": 69,
      "start": 58.6717,
      "duration": 0.1678,
      "velocity": 117,
      "chip": "ym2612"
    },
    {
      "channel": 4,
      "note": 71,
      "start": 58.8601,
      "duration": 0.0627,
      "velocity": 117,
      "chip": "ym2612"
    },
    {
      "channel": 5,
      "note": 41,
      "start": 58.9596,
      "duration": 0.2134,
      "velocity": 111,
      "chip": "ym2612"
    },
    {
      "channel": 1,
      "note": 45,
      "start": 58.9622,
      "duration": 0.0772,
      "velocity": 122,
      "chip": "ym2612"
    },
    {
      "channel": 0,
      "note": 77,
      "start": 58.9662,
      "duration": 0.1565,
      "velocity": 83,
      "chip": "ym2612"
    },
    {
      "channel": 2,
      "note": 72,
      "start": 58.9687,
      "duration": 0.1543,
      "velocity": 83,
      "chip": "ym2612"
    },
    {
      "channel": 4,
      "note": 74,
      "start": 58.9715,
      "duration": 0.1514,
      "velocity": 83,
      "chip": "ym2612"
    },
    {
      "channel": 3,
      "note": 74,
      "start": 58.975,
      "duration": 0.0645,
      "velocity": 117,
      "chip": "ym2612"
    },
    {
      "channel": 3,
      "note": 76,
      "start": 59.1434,
      "duration": 0.0793,
      "velocity": 117,
      "chip": "ym2612"
    },
    {
      "channel": 5,
      "note": 50,
      "start": 59.244,
      "duration": 0.284,
      "velocity": 111,
      "chip": "ym2612"
    },
    {
      "channel": 1,
      "note": 49,
      "start": 59.2472,
      "duration": 0.3256,
      "velocity": 125,
      "chip": "ym2612"
    },
    {
      "channel": 0,
      "note": 77,
      "start": 59.2521,
      "duration": 0.4374,
      "velocity": 103,
      "chip": "ym2612"
    },
    {
      "channel": 4,
      "note": 74,
      "start": 59.255,
      "duration": 0.4181,
      "velocity": 103,
      "chip": "ym2612"
    },
    {
      "channel": 2,
      "note": 71,
      "start": 59.2583,
      "duration": 0.3816,
      "velocity": 103,
      "chip": "ym2612"
    },
    {
      "channel": 3,
      "note": 76,
      "start": 59.2612,
      "duration": 0.2118,
      "velocity": 117,
      "chip": "ym2612"
    },
    {
      "channel": 3,
      "note": 45,
      "start": 59.5263,
      "duration": 0.0802,
      "velocity": 122,
      "chip": "ym2612"
    },
    {
      "channel": 5,
      "note": 74,
      "start": 59.53,
      "duration": 0.1098,
      "velocity": 117,
      "chip": "ym2612"
    },
    {
      "channel": 5,
      "note": 79,
      "start": 59.7271,
      "duration": 0.297,
      "velocity": 117,
      "chip": "ym2612"
    },
    {
      "channel": 1,
      "note": 47,
      "start": 59.8103,
      "duration": 0.0958,
      "velocity": 111,
      "chip": "ym2612"
    },
    {
      "channel": 3,
      "note": 45,
      "start": 59.8132,
      "duration": 0.0931,
      "velocity": 122,
      "chip": "ym2612"
    },
    {
      "channel": 2,
      "note": 50,
      "start": 59.8932,
      "duration": 0.5147,
      "velocity": 111,
      "chip": "ym2612"
    },
    {
      "channel": 3,
      "note": 45,
      "start": 60.0094,
      "duration": 0.0633,
      "velocity": 122,
      "chip": "ym2612"
    },
    {
      "channel": 4,
      "note": 77,
      "start": 60.0134,
      "duration": 0.0428,
      "velocity": 83,
      "chip": "ym2612"
    },
    {
      "channel": 0,
      "note": 74,
      "start": 60.0161,
      "duration": 0.0399,
      "velocity": 83,
      "chip": "ym2612"
    },
    {
      "channel": 1,
      "note": 72,
      "start": 60.0188,
      "duration": 0.0373,
      "velocity": 83,
      "chip": "ym2612"
    },
    {
      "channel": 3,
      "note": 45,
      "start": 60.1098,
      "duration": 0.0797,
      "velocity": 122,
      "chip": "ym2612"
    },
    {
      "channel": 0,
      "note": 74,
      "start": 60.1132,
      "duration": 0.1761,
      "velocity": 83,
      "chip": "ym2612"
    },
    {
      "channel": 1,
      "note": 72,
      "start": 60.1157,
      "duration": 0.1737,
      "velocity": 83,
      "chip": "ym2612"
    },
    {
      "channel": 3,
      "note": 45,
      "start": 60.2927,
      "duration": 0.0967,
      "velocity": 122,
      "chip": "ym2612"
    },
    {
      "channel": 5,
      "note": 48,
      "start": 60.3929,
      "duration": 0.0966,
      "velocity": 111,
      "chip": "ym2612"
    },
    {
      "channel": 4,
      "note": 49,
      "start": 60.3961,
      "duration": 0.21,
      "velocity": 125,
      "chip": "ym2612"
    },
    {
      "channel": 0,
      "note": 72,
      "start": 60.3996,
      "duration": 0.1563,
      "velocity": 83,
      "chip": "ym2612"
    },
    {
      "channel": 1,
      "note": 74,
      "start": 60.4023,
      "duration": 0.137,
      "velocity": 83,
      "chip": "ym2612"
    },
    {
      "channel": 3,
      "note": 77,
      "start": 60.405,
      "duration": 0.1345,
      "velocity": 83,
      "chip": "ym2612"
    },
    {
      "channel": 5,
      "note": 45,
      "start": 60.6758,
      "duration": 0.0974,
      "velocity": 111,
      "chip": "ym2612"
    },
    {
      "channel": 2,
      "note": 45,
      "start": 60.6787,
      "duration": 0.0946,
      "velocity": 122,
      "chip": "ym2612"
    },
    {
      "channel": 0,
      "note": 74,
      "start": 60.6828,
      "duration": 0.0899,
      "velocity": 83,
      "chip": "ym2612"
    },
    {
      "channel": 1,
      "note": 77,
      "start": 60.6851,
      "duration": 0.0877,
      "velocity": 83,
      "chip": "ym2612"
    },
    {
      "channel": 3,
      "note": 72,
      "start": 60.6876,
      "duration": 0.0854,
      "velocity": 83,
      "chip": "ym2612"
    },
    {
      "channel": 4,
      "note": 79,
      "start": 60.927,
      "duration": 0.0125,
      "velocity": 117,
      "chip": "ym2612"
    },
    {
      "channel": 5,
      "note": 43,
      "start": 60.976,
      "duration": 0.0803,
      "velocity": 111,
      "chip": "ym2612"
    },
    {
      "channel": 2,
      "note": 45,
      "start": 60.9788,
      "duration": 0.0775,
      "velocity": 122,
      "chip": "ym2612"
    },
    {
      "channel": 4,
      "note": 80,
      "start": 60.9821,
      "duration": 0.0074,
      "velocity": 117,
      "chip": "ym2612"
    },
    {
      "channel": 4,
      "note": 81,
      "start": 61.0106,
      "duration": 0.1288,
      "velocity": 117,
      "chip": "ym2612"
    },
    {
      "channel": 0,
      "note": 44,
      "start": 61.0428,
      "duration": 0.0631,
      "velocity": 111,
      "chip": "ym2612"
    },
    {
      "channel": 0,
      "note": 43,
      "start": 61.1093,
      "duration": 0.1134,
      "velocity": 111,
      "chip": "ym2612"
    },
    {
      "channel": 2,
      "note": 45,
      "start": 61.1594,
      "duration": 0.0968,
      "velocity": 122,
      "chip": "ym2612"
    },
    {
      "channel": 1,
      "note": 77,
      "start": 61.1634,
      "duration": 0.0426,
      "velocity": 83,
      "chip": "ym2612"
    },
    {
      "channel": 3,
      "note": 74,
      "start": 61.166,
      "duration": 0.0401,
      "velocity": 83,
      "chip": "ym2612"
    },
    {
      "channel": 5,
      "note": 72,
      "start": 61.1687,
      "duration": 0.0376,
      "velocity": 83,
      "chip": "ym2612"
    },
    {
      "channel": 4,
      "note": 84,
      "start": 61.1718,
      "duration": 0.101,
      "velocity": 117,
      "chip": "ym2612"
    },
    {
      "channel": 0,
      "note": 41,
      "start": 61.2596,
      "duration": 0.1297,
      "velocity": 111,
      "chip": "ym2612"
    },
    {
      "channel": 1,
      "note": 74,
      "start": 61.2632,
      "duration": 0.1761,
      "velocity": 83,
      "chip": "ym2612"
    },
    {
      "channel": 3,
      "note": 72,
      "start": 61.2657,
      "duration": 0.1738,
      "velocity": 83,
      "chip": "ym2612"
    },
    {
      "channel": 4,
      "note": 86,
      "start": 61.3601,
      "duration": 0.0626,
      "velocity": 117,
      "chip": "ym2612"
    },
    {
      "channel": 5,
      "note": 49,
      "start": 61.543,
      "duration": 0.2298,
      "velocity": 125,
      "chip": "ym2612"
    },
    {
      "channel": 2,
      "note": 77,
      "start": 61.5468,
      "duration": 0.1927,
      "velocity": 83,
      "chip": "ym2612"
    },
    {
      "channel": 0,
      "note": 74,
      "start": 61.5495,
      "duration": 0.1565,
      "velocity": 83,
      "chip": "ym2612"
    },
    {
      "channel": 4,
      "note": 72,
      "start": 61.5522,
      "duration": 0.154,
      "velocity": 83,
      "chip": "ym2612"
    },
    {
      "channel": 1,
      "note": 89,
      "start": 61.5552,
      "duration": 0.101,
      "velocity": 117,
      "chip": "ym2612"
    },
    {
      "channel": 1,
      "note": 91,
      "start": 61.7433,
      "duration": 0.0627,
      "velocity": 117,
      "chip": "ym2612"
    },
    {
      "channel": 0,
      "note": 74,
      "start": 61.8273,
      "duration": 0.1453,
      "velocity": 83,
      "chip": "ym2612"
    },
    {
      "channel": 4,
      "note": 79,
      "start": 61.8298,
      "duration": 0.143,
      "velocity": 83,
      "chip": "ym2612"
    },
    {
      "channel": 2,
      "note": 72,
      "start": 61.8325,
      "duration": 0.1405,
      "velocity": 83,
      "chip": "ym2612"
    },
    {
      "channel": 1,
      "note": 91,
      "start": 61.9269,
      "duration": 0.0957,
      "velocity": 117,
      "chip": "ym2612"
    },
    {
      "channel": 3,
      "note": 45,
      "start": 62.0261,
      "duration": 0.0966,
      "velocity": 122,
      "chip": "ym2612"
    },
    {
      "channel": 1,
      "note": 91,
      "start": 62.1287,
      "duration": 0.1106,
      "velocity": 117,
      "chip": "ym2612"
    },
    {
      "channel": 0,
      "note": 53,
      "start": 62.3102,
      "duration": 0.0458,
      "velocity": 83,
      "chip": "ym2612"
    },
    {
      "channel": 4,
      "note": 50,
      "start": 62.3126,
      "duration": 0.0437,
      "velocity": 83,
      "chip": "ym2612"
    },
    {
      "channel": 2,
      "note": 48,
      "start": 62.3157,
      "duration": 0.0407,
      "velocity": 83,
      "chip": "ym2612"
    },
    {
      "channel": 1,
      "note": 92,
      "start": 62.3194,
      "duration": 0.1533,
      "velocity": 117,
      "chip": "ym2612"
    },
    {
      "channel": 5,
      "note": 60,
      "start": 62.4106,
      "duration": 0.4789,
      "velocity": 111,
      "chip": "ym2612"
    },
    {
      "channel": 3,
      "note": 45,
      "start": 62.4143,
      "duration": 0.0918,
      "velocity": 122,
      "chip": "ym2612"
    },
    {
      "channel": 0,
      "note": 77,
      "start": 62.4178,
      "duration": 0.0382,
      "velocity": 83,
      "chip": "ym2612"
    },
    {
      "channel": 4,
      "note": 74,
      "start": 62.4202,
      "duration": 0.0361,
      "velocity": 83,
      "chip": "ym2612"
    },
    {
      "channel": 2,
      "note": 72,
      "start": 62.423,
      "duration": 0.0334,
      "velocity": 83,
      "chip": "ym2612"
    },
    {
      "channel": 0,
      "note": 74,
      "start": 62.511,
      "duration": 0.1283,
      "velocity": 83,
      "chip": "ym2612"
    },
    {
      "channel": 4,
      "note": 72,
      "start": 62.514,
      "duration": 0.1256,
      "velocity": 83,
      "chip": "ym2612"
    },
    {
      "channel": 1,
      "note": 89,
      "start": 62.5169,
      "duration": 0.1225,
      "velocity": 117,
      "chip": "ym2612"
    },
    {
      "channel": 3,
      "note": 45,
      "start": 62.5925,
      "duration": 0.0968,
      "velocity": 122,
      "chip": "ym2612"
    },
    {
      "channel": 2,
      "note": 49,
      "start": 62.6947,
      "duration": 0.2116,
      "velocity": 125,
      "chip": "ym2612"
    },
    {
      "channel": 0,
      "note": 65,
      "start": 62.6985,
      "duration": 0.1075,
      "velocity": 83,
      "chip": "ym2612"
    },
    {
      "channel": 1,
      "note": 74,
      "start": 62.7011,
      "duration": 0.1051,
      "velocity": 83,
      "chip": "ym2612"
    },
    {
      "channel": 4,
      "note": 72,
      "start": 62.7038,
      "duration": 0.1026,
      "velocity": 83,
      "chip": "ym2612"
    },
    {
      "channel": 3,
      "note": 86,
      "start": 62.707,
      "duration": 0.149,
      "velocity": 117,
      "chip": "ym2612"
    },
    {
      "channel": 0,
      "note": 45,
      "start": 62.8931,
      "duration": 0.0796,
      "velocity": 122,
      "chip": "ym2612"
    },
    {
      "channel": 3,
      "note": 91,
      "start": 62.8964,
      "duration": 0.1765,
      "velocity": 117,
      "chip": "ym2612"
    },
    {
      "channel": 5,
      "note": 57,
      "start": 62.9763,
      "duration": 0.08,
      "velocity": 111,
      "chip": "ym2612"
    },
    {
      "channel": 1,
      "note": 72,
      "start": 62.9794,
      "duration": 0.1433,
      "velocity": 83,
      "chip": "ym2612"
    },
    {
      "channel": 4,
      "note": 74,
      "start": 62.982,
      "duration": 0.1409,
      "velocity": 83,
      "chip": "ym2612"
    },
    {
      "channel": 3,
      "note": 89,
      "start": 63.0769,
      "duration": 0.1458,
      "velocity": 117,
      "chip": "ym2612"
    },
    {
      "channel": 0,
      "note": 45,
      "start": 63.1759,
      "duration": 0.0634,
      "velocity": 122,
      "chip": "ym2612"
    },
    {
      "channel": 5,
      "note": 55,
      "start": 63.2762,
      "duration": 0.2468,
      "velocity": 111,
      "chip": "ym2612"
    },
    {
      "channel": 0,
      "note": 45,
      "start": 63.2788,
      "duration": 0.0772,
      "velocity": 122,
      "chip": "ym2612"
    },
    {
      "channel": 2,
      "note": 72,
      "start": 63.2824,
      "duration": 0.0741,
      "velocity": 83,
      "chip": "ym2612"
    },
    {
      "channel": 1,
      "note": 62,
      "start": 63.2849,
      "duration": 0.0712,
      "velocity": 83,
      "chip": "ym2612"
    },
    {
      "channel": 4,
      "note": 65,
      "start": 63.2878,
      "duration": 0.1018,
      "velocity": 83,
      "chip": "ym2612"
    },
    {
      "channel": 3,
      "note": 86,
      "start": 63.2909,
      "duration": 0.7653,
      "velocity": 117,
      "chip": "ym2612"
    },
    {
      "channel": 1,
      "note": 53,
      "start": 63.4605,
      "duration": 0.029,
      "velocity": 83,
      "chip": "ym2612"
    },
    {
      "channel": 4,
      "note": 50,
      "start": 63.4629,
      "duration": 0.0268,
      "velocity": 83,
      "chip": "ym2612"
    },
    {
      "channel": 2,
      "note": 48,
      "start": 63.4659,
      "duration": 0.0239,
      "velocity": 83,
      "chip": "ym2612"
    },
    {
      "channel": 5,
      "note": 53,
      "start": 63.5597,
      "duration": 0.1798,
      "velocity": 111,
      "chip": "ym2612"
    },
    {
      "channel": 0,
      "note": 45,
      "start": 63.5622,
      "duration": 0.0939,
      "velocity": 122,
      "chip": "ym2612"
    },
    {
      "channel": 1,
      "note": 72,
      "start": 63.5659,
      "duration": 0.107,
      "velocity": 83,
      "chip": "ym2612"
    },
    {
      "channel": 4,
      "note": 62,
      "start": 63.5685,
      "duration": 0.1046,
      "velocity": 83,
      "chip": "ym2612"
    },
    {
      "channel": 1,
      "note": 50,
      "start": 63.7438,
      "duration": 0.0289,
      "velocity": 83,
      "chip": "ym2612"
    },
    {
      "channel": 4,
      "note": 48,
      "start": 63.7467,
      "duration": 0.0262,
      "velocity": 83,
      "chip": "ym2612"
    },
    {
      "channel": 5,
      "note": 50,
      "start": 63.8429,
      "duration": 0.3135,
      "velocity": 111,
      "chip": "ym2612"
    },
    {
      "channel": 2,
      "note": 49,
      "start": 63.8466,
      "duration": 0.0433,
      "velocity": 125,
      "chip": "ym2612"
    },
    {
      "channel": 1,
      "note": 50,
      "start": 63.8496,
      "duration": 0.04,
      "velocity": 83,
      "chip": "ym2612"
    },
    {
      "channel": 4,
      "note": 47,
      "start": 63.8522,
      "duration": 0.0207,
      "velocity": 83,
      "chip": "ym2612"
    },
    {
      "channel": 0,
      "note": 53,
      "start": 63.8551,
      "duration": 0.0344,
      "velocity": 83,
      "chip": "ym2612"
    },
    {
      "channel": 2,
      "note": 49,
      "start": 63.9432,
      "duration": 0.0467,
      "velocity": 125,
      "chip": "ym2612"
    },
    {
      "channel": 0,
      "note": 71,
      "start": 63.9465,
      "duration": 0.0097,
      "velocity": 83,
      "chip": "ym2612"
    },
    {
      "channel": 1,
      "note": 74,
      "start": 63.9494,
      "duration": 0.0401,
      "velocity": 83,
      "chip": "ym2612"
    },
    {
      "channel": 4,
      "note": 77,
      "start": 63.9519,
      "duration": 0.0377,
      "velocity": 83,
      "chip": "ym2612"
    },
    {
      "channel": 2,
      "note": 49,
      "start": 64.043,
      "duration": 0.0301,
      "velocity": 125,
      "chip": "ym2612"
    },
    {
      "channel": 0,
      "note": 53,
      "start": 64.0464,
      "duration": 0.0596,
      "velocity": 83,
      "chip": "ym2612"
    },
    {
      "channel": 1,
      "note": 50,
      "start": 64.0489,
      "duration": 0.0239,
      "velocity": 83,
      "chip": "ym2612"
    },
    {
      "channel": 4,
      "note": 47,
      "start": 64.0514,
      "duration": 0.0215,
      "velocity": 83,
      "chip": "ym2612"
    },
    {
      "channel": 2,
      "note": 49,
      "start": 64.1262,
      "duration": 0.0468,
      "velocity": 125,
      "chip": "ym2612"
    },
    {
      "channel": 3,
      "note": 69,
      "start": 64.1307,
      "duration": 0.2922,
      "velocity": 103,
      "chip": "ym2612"
    },
    {
      "channel": 1,
      "note": 74,
      "start": 64.1339,
      "duration": 0.2556,
      "velocity": 103,
      "chip": "ym2612"
    },
    {
      "channel": 4,
      "note": 71,
      "start": 64.137,
      "duration": 0.2527,
      "velocity": 103,
      "chip": "ym2612"
    },
    {
      "channel": 2,
      "note": 49,
      "start": 64.2265,
      "duration": 0.0464,
      "velocity": 125,
      "chip": "ym2612"
    },
    {
      "channel": 2,
      "note": 49,
      "start": 64.3266,
      "duration": 0.0633,
      "velocity": 125,
      "chip": "ym2612"
    },
    {
      "channel": 5,
      "note": 52,
      "start": 64.4264,
      "duration": 0.1132,
      "velocity": 111,
      "chip": "ym2612"
    },
    {
      "channel": 0,
      "note": 45,
      "start": 64.4293,
      "duration": 0.0769,
      "velocity": 122,
      "chip": "ym2612"
    },
    {
      "channel": 1,
      "note": 40,
      "start": 64.4337,
      "duration": 4.5892,
      "velocity": 125,
      "chip": "ym2612"
    },
    {
      "channel": 0,
      "note": 45,
      "start": 64.6093,
      "duration": 0.0468,
      "velocity": 122,
      "chip": "ym2612"
    },
    {
      "channel": 2,
      "note": 82,
      "start": 64.6122,
      "duration": 0.0442,
      "velocity": 85,
      "chip": "ym2612"
    },
    {
      "channel": 4,
      "note": 64,
      "start": 64.6157,
      "duration": 0.0571,
      "velocity": 98,
      "chip": "ym2612"
    },
    {
      "channel": 5,
      "note": 52,
      "start": 64.7096,
      "duration": 0.2133,
      "velocity": 111,
      "chip": "ym2612"
    },
    {
      "channel": 0,
      "note": 45,
      "start": 64.7127,
      "duration": 0.0934,
      "velocity": 122,
      "chip": "ym2612"
    },
    {
      "channel": 2,
      "note": 82,
      "start": 64.7155,
      "duration": 0.1075,
      "velocity": 85,
      "chip": "ym2612"
    },
    {
      "channel": 5,
      "note": 55,
      "start": 64.9927,
      "duration": 0.1468,
      "velocity": 111,
      "chip": "ym2612"
    },
    {
      "channel": 3,
      "note": 49,
      "start": 64.996,
      "duration": 0.26,
      "velocity": 125,
      "chip": "ym2612"
    },
    {
      "channel": 4,
      "note": 67,
      "start": 65.1937,
      "duration": 0.0625,
      "velocity": 98,
      "chip": "ym2612"
    },
    {
      "channel": 5,
      "note": 55,
      "start": 65.2761,
      "duration": 0.2635,
      "velocity": 111,
      "chip": "ym2612"
    },
    {
      "channel": 0,
      "note": 45,
      "start": 65.2786,
      "duration": 0.0941,
      "velocity": 122,
      "chip": "ym2612"
    },
    {
      "channel": 2,
      "note": 82,
      "start": 65.2814,
      "duration": 0.1248,
      "velocity": 85,
      "chip": "ym2612"
    },
    {
      "channel": 0,
      "note": 45,
      "start": 65.4759,
      "duration": 0.0634,
      "velocity": 122,
      "chip": "ym2612"
    },
    {
      "channel": 5,
      "note": 52,
      "start": 65.5764,
      "duration": 0.1131,
      "velocity": 111,
      "chip": "ym2612"
    },
    {
      "channel": 0,
      "note": 45,
      "start": 65.5791,
      "duration": 0.077,
      "velocity": 122,
      "chip": "ym2612"
    },
    {
      "channel": 0,
      "note": 45,
      "start": 65.7593,
      "duration": 0.0634,
      "velocity": 122,
      "chip": "ym2612"
    },
    {
      "channel": 5,
      "note": 52,
      "start": 65.8596,
      "duration": 0.1633,
      "velocity": 111,
      "chip": "ym2612"
    },
    {
      "channel": 3,
      "note": 91,
      "start": 65.8633,
      "duration": 0.1427,
      "velocity": 111,
      "chip": "ym2612"
    },
    {
      "channel": 4,
      "note": 86,
      "start": 65.8661,
      "duration": 0.1401,
      "velocity": 111,
      "chip": "ym2612"
    },
    {
      "channel": 2,
      "note": 95,
      "start": 65.8691,
      "duration": 0.1373,
      "velocity": 111,
      "chip": "ym2612"
    },
    {
      "channel": 0,
      "note": 49,
      "start": 66.1429,
      "duration": 0.3633,
      "velocity": 125,
      "chip": "ym2612"
    },
    {
      "channel": 5,
      "note": 50,
      "start": 66.3428,
      "duration": 0.3802,
      "velocity": 111,
      "chip": "ym2612"
    },
    {
      "channel": 3,
      "note": 90,
      "start": 66.348,
      "duration": 0.3748,
      "velocity": 111,
      "chip": "ym2612"
    },
    {
      "channel": 4,
      "note": 94,
      "start": 66.3506,
      "duration": 0.3723,
      "velocity": 111,
      "chip": "ym2612"
    },
    {
      "channel": 2,
      "note": 85,
      "start": 66.3537,
      "duration": 0.0709,
      "velocity": 111,
      "chip": "ym2612"
    },
    {
      "channel": 2,
      "note": 82,
      "start": 66.4264,
      "duration": 0.1467,
      "velocity": 85,
      "chip": "ym2612"
    },
    {
      "channel": 5,
      "note": 52,
      "start": 66.7266,
      "duration": 0.1131,
      "velocity": 111,
      "chip": "ym2612"
    },
    {
      "channel": 0,
      "note": 45,
      "start": 66.7295,
      "duration": 0.0765,
      "velocity": 122,
      "chip": "ym2612"
    },
    {
      "channel": 0,
      "note": 45,
      "start": 66.9098,
      "duration": 0.063,
      "velocity": 122,
      "chip": "ym2612"
    },
    {
      "channel": 2,
      "note": 82,
      "start": 66.913,
      "duration": 0.0433,
      "velocity": 85,
      "chip": "ym2612"
    },
    {
      "channel": 3,
      "note": 64,
      "start": 66.9167,
      "duration": 0.0563,
      "velocity": 98,
      "chip": "ym2612"
    },
    {
      "channel": 5,
      "note": 52,
      "start": 67.0094,
      "duration": 0.2301,
      "velocity": 111,
      "chip": "ym2612"
    },
    {
      "channel": 0,
      "note": 45,
      "start": 67.012,
      "duration": 0.094,
      "velocity": 122,
      "chip": "ym2612"
    },
    {
      "channel": 2,
      "note": 82,
      "start": 67.015,
      "duration": 0.108,
      "velocity": 85,
      "chip": "ym2612"
    },
    {
      "channel": 0,
      "note": 45,
      "start": 67.1924,
      "duration": 0.0968,
      "velocity": 122,
      "chip": "ym2612"
    },
    {
      "channel": 5,
      "note": 55,
      "start": 67.2928,
      "duration": 0.0968,
      "velocity": 111,
      "chip": "ym2612"
    },
    {
      "channel": 4,
      "note": 49,
      "start": 67.2963,
      "duration": 0.2598,
      "velocity": 125,
      "chip": "ym2612"
    },
    {
      "channel": 2,
      "note": 82,
      "start": 67.4929,
      "duration": 0.0634,
      "velocity": 85,
      "chip": "ym2612"
    },
    {
      "channel": 3,
      "note": 67,
      "start": 67.4963,
      "duration": 0.1098,
      "velocity": 98,
      "chip": "ym2612"
    },
    {
      "channel": 5,
      "note": 55,
      "start": 67.5767,
      "duration": 0.1795,
      "velocity": 111,
      "chip": "ym2612"
    },
    {
      "channel": 0,
      "note": 45,
      "start": 67.5792,
      "duration": 0.0935,
      "velocity": 122,
      "chip": "ym2612"
    },
    {
      "channel": 2,
      "note": 82,
      "start": 67.5821,
      "duration": 0.091,
      "velocity": 85,
      "chip": "ym2612"
    },
    {
      "channel": 0,
      "note": 45,
      "start": 67.7759,
      "duration": 0.0634,
      "velocity": 122,
      "chip": "ym2612"
    },
    {
      "channel": 0,
      "note": 45,
      "start": 67.8759,
      "duration": 0.0801,
      "velocity": 122,
      "chip": "ym2612"
    },
    {
      "channel": 5,
      "note": 49,
      "start": 68.0596,
      "duration": 0.28,
      "velocity": 111,
      "chip": "ym2612"
    },
    {
      "channel": 0,
      "note": 45,
      "start": 68.0626,
      "duration": 0.0767,
      "velocity": 122,
      "chip": "ym2612"
    },
    {
      "channel": 2,
      "note": 82,
      "start": 68.0655,
      "duration": 0.024,
      "velocity": 85,
      "chip": "ym2612"
    },
    {
      "channel": 2,
      "note": 81,
      "start": 68.161,
      "duration": 0.2618,
      "velocity": 104,
      "chip": "ym2612"
    },
    {
      "channel": 5,
      "note": 50,
      "start": 68.4429,
      "duration": 0.1966,
      "velocity": 111,
      "chip": "ym2612"
    },
    {
      "channel": 4,
      "note": 49,
      "start": 68.4459,
      "duration": 0.3271,
      "velocity": 125,
      "chip": "ym2612"
    },
    {
      "channel": 0,
      "note": 45,
      "start": 68.6427,
      "duration": 0.0466,
      "velocity": 122,
      "chip": "ym2612"
    },
    {
      "channel": 3,
      "note": 99,
      "start": 68.6464,
      "duration": 0.2931,
      "velocity": 111,
      "chip": "ym2612"
    },
    {
      "channel": 2,
      "note": 94,
      "start": 68.6492,
      "duration": 0.2907,
      "velocity": 111,
      "chip": "ym2612"
    },
    {
      "channel": 5,
      "note": 89,
      "start": 68.6522,
      "duration": 0.2875,
      "velocity": 111,
      "chip": "ym2612"
    },
    {
      "channel": 0,
      "note": 51,
      "start": 68.7262,
      "duration": 0.18,
      "velocity": 111,
      "chip": "ym2612"
    },
    {
      "channel": 0,
      "note": 52,
      "start": 69.0261,
      "duration": 0.1132,
      "velocity": 111,
      "chip": "ym2612"
    },
    {
      "channel": 4,
      "note": 45,
      "start": 69.0291,
      "duration": 0.0772,
      "velocity": 122,
      "chip": "ym2612"
    },
    {
      "channel": 1,
      "note": 40,
      "start": 69.0328,
      "duration": 4.0566,
      "velocity": 125,
      "chip": "ym2612"
    },
    {
      "channel": 4,
      "note": 45,
      "start": 69.2094,
      "duration": 0.0801,
      "velocity": 122,
      "chip": "ym2612"
    },
    {
      "channel": 2,
      "note": 82,
      "start": 69.2122,
      "duration": 0.0274,
      "velocity": 85,
      "chip": "ym2612"
    },
    {
      "channel": 3,
      "note": 64,
      "start": 69.2156,
      "duration": 0.0738,
      "velocity": 98,
      "chip": "ym2612"
    },
    {
      "channel": 0,
      "note": 52,
      "start": 69.3093,
      "duration": 0.2801,
      "velocity": 111,
      "chip": "ym2612"
    },
    {
      "channel": 4,
      "note": 45,
      "start": 69.3121,
      "duration": 0.0941,
      "velocity": 122,
      "chip": "ym2612"
    },
    {
      "channel": 2,
      "note": 82,
      "start": 69.3154,
      "duration": 0.1076,
      "velocity": 85,
      "chip": "ym2612"
    },
    {
      "channel": 4,
      "note": 45,
      "start": 69.5093,
      "duration": 0.0803,
      "velocity": 122,
      "chip": "ym2612"
    },
    {
      "channel": 0,
      "note": 55,
      "start": 69.5927,
      "duration": 0.1467,
      "velocity": 111,
      "chip": "ym2612"
    },
    {
      "channel": 5,
      "note": 49,
      "start": 69.5958,
      "duration": 0.2103,
      "velocity": 125,
      "chip": "ym2612"
    },
    {
      "channel": 3,
      "note": 67,
      "start": 69.7939,
      "duration": 0.1123,
      "velocity": 98,
      "chip": "ym2612"
    },
    {
      "channel": 0,
      "note": 55,
      "start": 69.8929,
      "duration": 0.1297,
      "velocity": 111,
      "chip": "ym2612"
    },
    {
      "channel": 4,
      "note": 45,
      "start": 69.8959,
      "duration": 0.0769,
      "velocity": 122,
      "chip": "ym2612"
    },
    {
      "channel": 2,
      "note": 82,
      "start": 69.8987,
      "duration": 0.1076,
      "velocity": 85,
      "chip": "ym2612"
    },
    {
      "channel": 4,
      "note": 45,
      "start": 70.0762,
      "duration": 0.0632,
      "velocity": 122,
      "chip": "ym2612"
    },
    {
      "channel": 4,
      "note": 45,
      "start": 70.176,
      "duration": 0.0968,
      "velocity": 122,
      "chip": "ym2612"
    },
    {
      "channel": 0,
      "note": 45,
      "start": 70.3594,
      "duration": 0.08,
      "velocity": 111,
      "chip": "ym2612"
    },
    {
      "channel": 4,
      "note": 45,
      "start": 70.3621,
      "duration": 0.094,
      "velocity": 122,
      "chip": "ym2612"
    },
    {
      "channel": 2,
      "note": 82,
      "start": 70.365,
      "duration": 0.0747,
      "velocity": 85,
      "chip": "ym2612"
    },
    {
      "channel": 0,
      "note": 45,
      "start": 70.4594,
      "duration": 0.1632,
      "velocity": 111,
      "chip": "ym2612"
    },
    {
      "channel": 5,
      "note": 86,
      "start": 70.4636,
      "duration": 0.1426,
      "velocity": 111,
      "chip": "ym2612"
    },
    {
      "channel": 3,
      "note": 95,
      "start": 70.4666,
      "duration": 0.1395,
      "velocity": 111,
      "chip": "ym2612"
    },
    {
      "channel": 2,
      "note": 81,
      "start": 70.4707,
      "duration": 0.2688,
      "velocity": 104,
      "chip": "ym2612"
    },
    {
      "channel": 0,
      "note": 49,
      "start": 70.7426,
      "duration": 0.2134,
      "velocity": 111,
      "chip": "ym2612"
    },
    {
      "channel": 4,
      "note": 49,
      "start": 70.7458,
      "duration": 0.2438,
      "velocity": 125,
      "chip": "ym2612"
    },
    {
      "channel": 3,
      "note": 85,
      "start": 70.9435,
      "duration": 0.3461,
      "velocity": 111,
      "chip": "ym2612"
    },
    {
      "channel": 5,
      "note": 94,
      "start": 70.9463,
      "duration": 0.3435,
      "velocity": 111,
      "chip": "ym2612"
    },
    {
      "channel": 0,
      "note": 50,
      "start": 71.0426,
      "duration": 0.1801,
      "velocity": 111,
      "chip": "ym2612"
    },
    {
      "channel": 2,
      "note": 82,
      "start": 71.0454,
      "duration": 0.061,
      "velocity": 85,
      "chip": "ym2612"
    },
    {
      "channel": 4,
      "note": 45,
      "start": 71.2263,
      "duration": 0.0633,
      "velocity": 122,
      "chip": "ym2612"
    },
    {
      "channel": 0,
      "note": 52,
      "start": 71.3259,
      "duration": 0.1135,
      "velocity": 111,
      "chip": "ym2612"
    },
    {
      "channel": 2,
      "note": 82,
      "start": 71.5096,
      "duration": 0.0466,
      "velocity": 85,
      "chip": "ym2612"
    },
    {
      "channel": 3,
      "note": 64,
      "start": 71.5131,
      "duration": 0.0765,
      "velocity": 98,
      "chip": "ym2612"
    },
    {
      "channel": 0,
      "note": 52,
      "start": 71.6093,
      "duration": 0.23,
      "velocity": 111,
      "chip": "ym2612"
    },
    {
      "channel": 4,
      "note": 45,
      "start": 71.6122,
      "duration": 0.0941,
      "velocity": 122,
      "chip": "ym2612"
    },
    {
      "channel": 2,
      "note": 82,
      "start": 71.615,
      "duration": 0.0915,
      "velocity": 85,
      "chip": "ym2612"
    },
    {
      "channel": 4,
      "note": 45,
      "start": 71.8099,
      "duration": 0.0629,
      "velocity": 122,
      "chip": "ym2612"
    },
    {
      "channel": 0,
      "note": 55,
      "start": 71.8928,
      "duration": 0.0465,
      "velocity": 111,
      "chip": "ym2612"
    },
    {
      "channel": 5,
      "note": 49,
      "start": 71.8959,
      "duration": 0.2102,
      "velocity": 125,
      "chip": "ym2612"
    },
    {
      "channel": 4,
      "note": 45,
      "start": 72.0924,
      "duration": 0.0636,
      "velocity": 122,
      "chip": "ym2612"
    },
    {
      "channel": 3,
      "note": 67,
      "start": 72.0965,
      "duration": 0.1097,
      "velocity": 98,
      "chip": "ym2612"
    },
    {
      "channel": 0,
      "note": 55,
      "start": 72.1925,
      "duration": 0.1301,
      "velocity": 111,
      "chip": "ym2612"
    },
    {
      "channel": 2,
      "note": 82,
      "start": 72.1959,
      "duration": 0.0604,
      "velocity": 85,
      "chip": "ym2612"
    },
    {
      "channel": 4,
      "note": 45,
      "start": 72.3759,
      "duration": 0.0635,
      "velocity": 122,
      "chip": "ym2612"
    },
    {
      "channel": 0,
      "note": 57,
      "start": 72.4759,
      "duration": 0.1136,
      "velocity": 111,
      "chip": "ym2612"
    },
    {
      "channel": 4,
      "note": 45,
      "start": 72.4787,
      "duration": 0.0941,
      "velocity": 122,
      "chip": "ym2612"
    },
    {
      "channel": 2,
      "note": 82,
      "start": 72.6595,
      "duration": 0.03,
      "velocity": 85,
      "chip": "ym2612"
    },
    {
      "channel": 0,
      "note": 50,
      "start": 72.7594,
      "duration": 0.0966,
      "velocity": 111,
      "chip": "ym2612"
    },
    {
      "channel": 4,
      "note": 45,
      "start": 72.7621,
      "duration": 0.0941,
      "velocity": 122,
      "chip": "ym2612"
    },
    {
      "channel": 2,
      "note": 73,
      "start": 72.7672,
      "duration": 0.0893,
      "velocity": 109,
      "chip": "ym2612"
    },
    {
      "channel": 5,
      "note": 81,
      "start": 72.7704,
      "duration": 0.0859,
      "velocity": 111,
      "chip": "ym2612"
    },
    {
      "channel": 3,
      "note": 64,
      "start": 72.7736,
      "duration": 0.1325,
      "velocity": 98,
      "chip": "ym2612"
    },
    {
      "channel": 2,
      "note": 69,
      "start": 72.8603,
      "duration": 0.0961,
      "velocity": 109,
      "chip": "ym2612"
    },
    {
      "channel": 5,
      "note": 77,
      "start": 72.8632,
      "duration": 0.0931,
      "velocity": 111,
      "chip": "ym2612"
    },
    {
      "channel": 0,
      "note": 52,
      "start": 72.9596,
      "duration": 0.013,
      "velocity": 111,
      "chip": "ym2612"
    },
    {
      "channel": 2,
      "note": 65,
      "start": 72.9629,
      "duration": 0.0767,
      "velocity": 109,
      "chip": "ym2612"
    },
    {
      "channel": 5,
      "note": 73,
      "start": 72.9658,
      "duration": 0.0737,
      "velocity": 111,
      "chip": "ym2612"
    },
    {
      "channel": 0,
      "note": 49,
      "start": 73.0428,
      "duration": 0.1965,
      "velocity": 111,
      "chip": "ym2612"
    },
    {
      "channel": 4,
      "note": 49,
      "start": 73.0461,
      "duration": 0.2602,
      "velocity": 125,
      "chip": "ym2612"
    },
    {
      "channel": 2,
      "note": 72,
      "start": 73.0494,
      "duration": 0.0905,
      "velocity": 109,
      "chip": "ym2612"
    },
    {
      "channel": 5,
      "note": 80,
      "start": 73.0522,
      "duration": 0.0875,
      "velocity": 111,
      "chip": "ym2612"
    },
    {
      "channel": 3,
      "note": 62,
      "start": 73.0554,
      "duration": 0.0841,
      "velocity": 98,
      "chip": "ym2612"
    },
    {
      "channel": 2,
      "note": 68,
      "start": 73.1439,
      "duration": 0.0959,
      "velocity": 109,
      "chip": "ym2612"
    },
    {
      "channel": 5,
      "note": 76,
      "start": 73.1469,
      "duration": 0.0927,
      "velocity": 111,
      "chip": "ym2612"
    },
    {
      "channel": 1,
      "note": 64,
      "start": 73.21,
      "duration": 0.0961,
      "velocity": 109,
      "chip": "ym2612"
    },
    {
      "channel": 3,
      "note": 72,
      "start": 73.2131,
      "duration": 0.0931,
      "velocity": 111,
      "chip": "ym2612"
    },
    {
      "channel": 2,
      "note": 82,
      "start": 73.2449,
      "duration": 0.0113,
      "velocity": 85,
      "chip": "ym2612"
    },
    {
      "channel": 0,
      "note": 59,
      "start": 73.2482,
      "duration": 0.041,
      "velocity": 98,
      "chip": "ym2612"
    },
    {
      "channel": 5,
      "note": 47,
      "start": 73.3433,
      "duration": 0.1296,
      "velocity": 111,
      "chip": "ym2612"
    },
    {
      "channel": 1,
      "note": 71,
      "start": 73.3465,
      "duration": 0.0763,
      "velocity": 109,
      "chip": "ym2612"
    },
    {
      "channel": 3,
      "note": 79,
      "start": 73.3495,
      "duration": 0.0735,
      "velocity": 111,
      "chip": "ym2612"
    },
    {
      "channel": 0,
      "note": 58,
      "start": 73.3524,
      "duration": 0.1036,
      "velocity": 98,
      "chip": "ym2612"
    },
    {
      "channel": 2,
      "note": 81,
      "start": 73.3561,
      "duration": 0.2167,
      "velocity": 104,
      "chip": "ym2612"
    },
    {
      "channel": 1,
      "note": 67,
      "start": 73.4267,
      "duration": 0.096,
      "velocity": 109,
      "chip": "ym2612"
    },
    {
      "channel": 3,
      "note": 75,
      "start": 73.4295,
      "duration": 0.0934,
      "velocity": 111,
      "chip": "ym2612"
    },
    {
      "channel": 1,
      "note": 63,
      "start": 73.5267,
      "duration": 0.0959,
      "velocity": 109,
      "chip": "ym2612"
    },
    {
      "channel": 3,
      "note": 71,
      "start": 73.5296,
      "duration": 0.0932,
      "velocity": 111,
      "chip": "ym2612"
    },
    {
      "channel": 5,
      "note": 52,
      "start": 73.6363,
      "duration": 0.0533,
      "velocity": 111,
      "chip": "ym2612"
    },
    {
      "channel": 0,
      "note": 45,
      "start": 73.6412,
      "duration": 0.0815,
      "velocity": 122,
      "chip": "ym2612"
    },
    {
      "channel": 1,
      "note": 76,
      "start": 73.6608,
      "duration": 0.0285,
      "velocity": 87,
      "chip": "ym2612"
    },
    {
      "channel": 5,
      "note": 54,
      "start": 73.6933,
      "duration": 0.4961,
      "velocity": 111,
      "chip": "ym2612"
    },
    {
      "channel": 1,
      "note": 78,
      "start": 73.6968,
      "duration": 0.3758,
      "velocity": 87,
      "chip": "ym2612"
    },
    {
      "channel": 0,
      "note": 45,
      "start": 73.8093,
      "duration": 0.0801,
      "velocity": 122,
      "chip": "ym2612"
    },
    {
      "channel": 2,
      "note": 82,
      "start": 73.8121,
      "duration": 0.0441,
      "velocity": 85,
      "chip": "ym2612"
    },
    {
      "channel": 0,
      "note": 45,
      "start": 73.9092,
      "duration": 0.0969,
      "velocity": 122,
      "chip": "ym2612"
    },
    {
      "channel": 2,
      "note": 82,
      "start": 73.9121,
      "duration": 0.1107,
      "velocity": 85,
      "chip": "ym2612"
    },
    {
      "channel": 5,
      "note": 52,
      "start": 74.1929,
      "duration": 0.13,
      "velocity": 111,
      "chip": "ym2612"
    },
    {
      "channel": 4,
      "note": 49,
      "start": 74.1961,
      "duration": 0.26,
      "velocity": 125,
      "chip": "ym2612"
    },
    {
      "channel": 1,
      "note": 76,
      "start": 74.1996,
      "duration": 0.1397,
      "velocity": 87,
      "chip": "ym2612"
    }
  ]
}