{
  "track_name": "03 - Pentawa I",
  "duration_sec": 52.651,
  "sample_rate": 44100,
  "note_count": 655,
  "unique_pitches": 44,
  "pitch_range": 52,
  "avg_note_duration": 0.3934,
  "reconstruction_stats": {
    "notes_reconstructed": 655,
    "keyon_events": 655,
    "keyoff_events": 649,
    "orphan_keyons": 6,
    "unique_pitches": 44,
    "pitch_range": 52,
    "avg_duration_sec": 0.3934
  },
  "metadata": {
    "source": "S\\Sorcerian (Genesis)\\03 - Pentawa I.vgz"
  },
  "notes": [
    {
      "channel": 0,
      "note": 69,
      "start": 0.0,
      "duration": 1.4788,
      "velocity": 106,
      "chip": "ym2612"
    },
    {
      "channel": 1,
      "note": 59,
      "start": 0.0032,
      "duration": 0.2574,
      "velocity": 94,
      "chip": "ym2612"
    },
    {
      "channel": 3,
      "note": 54,
      "start": 0.0066,
      "duration": 1.4735,
      "velocity": 94,
      "chip": "ym2612"
    },
    {
      "channel": 4,
      "note": 50,
      "start": 0.0114,
      "duration": 1.4695,
      "velocity": 94,
      "chip": "ym2612"
    },
    {
      "channel": 5,
      "note": 47,
      "start": 0.0147,
      "duration": 1.4668,
      "velocity": 94,
      "chip": "ym2612"
    },
    {
      "channel": 2,
      "note": 68,
      "start": 0.0156,
      "duration": 0.2405,
      "velocity": 127,
      "chip": "ym2612"
    },
    {
      "channel": 1,
      "note": 59,
      "start": 0.2611,
      "duration": 0.1251,
      "velocity": 94,
      "chip": "ym2612"
    },
    {
      "channel": 2,
      "note": 68,
      "start": 0.263,
      "duration": 0.1201,
      "velocity": 127,
      "chip": "ym2612"
    },
    {
      "channel": 1,
      "note": 61,
      "start": 0.3868,
      "duration": 0.1398,
      "velocity": 94,
      "chip": "ym2612"
    },
    {
      "channel": 2,
      "note": 75,
      "start": 0.3887,
      "duration": 0.2662,
      "velocity": 120,
      "chip": "ym2612"
    },
    {
      "channel": 1,
      "note": 62,
      "start": 0.7999,
      "duration": 0.1393,
      "velocity": 94,
      "chip": "ym2612"
    },
    {
      "channel": 2,
      "note": 68,
      "start": 0.8018,
      "duration": 0.2639,
      "velocity": 127,
      "chip": "ym2612"
    },
    {
      "channel": 2,
      "note": 68,
      "start": 1.0709,
      "duration": 0.1382,
      "velocity": 127,
      "chip": "ym2612"
    },
    {
      "channel": 1,
      "note": 64,
      "start": 1.2129,
      "duration": 0.1232,
      "velocity": 94,
      "chip": "ym2612"
    },
    {
      "channel": 2,
      "note": 75,
      "start": 1.2148,
      "duration": 0.2674,
      "velocity": 120,
      "chip": "ym2612"
    },
    {
      "channel": 0,
      "note": 69,
      "start": 1.4792,
      "duration": 0.9549,
      "velocity": 106,
      "chip": "ym2612"
    },
    {
      "channel": 1,
      "note": 59,
      "start": 1.4799,
      "duration": 0.4159,
      "velocity": 94,
      "chip": "ym2612"
    },
    {
      "channel": 3,
      "note": 54,
      "start": 1.4806,
      "duration": 0.9549,
      "velocity": 94,
      "chip": "ym2612"
    },
    {
      "channel": 4,
      "note": 50,
      "start": 1.4813,
      "duration": 0.9548,
      "velocity": 94,
      "chip": "ym2612"
    },
    {
      "channel": 5,
      "note": 47,
      "start": 1.482,
      "duration": 0.9546,
      "velocity": 94,
      "chip": "ym2612"
    },
    {
      "channel": 2,
      "note": 68,
      "start": 1.6124,
      "duration": 0.2801,
      "velocity": 127,
      "chip": "ym2612"
    },
    {
      "channel": 1,
      "note": 59,
      "start": 1.8962,
      "duration": 0.1252,
      "velocity": 94,
      "chip": "ym2612"
    },
    {
      "channel": 2,
      "note": 68,
      "start": 1.8981,
      "duration": 0.1202,
      "velocity": 127,
      "chip": "ym2612"
    },
    {
      "channel": 1,
      "note": 61,
      "start": 2.022,
      "duration": 0.1395,
      "velocity": 94,
      "chip": "ym2612"
    },
    {
      "channel": 2,
      "note": 75,
      "start": 2.0239,
      "duration": 0.2662,
      "velocity": 120,
      "chip": "ym2612"
    },
    {
      "channel": 0,
      "note": 69,
      "start": 2.4346,
      "duration": 0.1246,
      "velocity": 106,
      "chip": "ym2612"
    },
    {
      "channel": 1,
      "note": 62,
      "start": 2.4353,
      "duration": 0.1247,
      "velocity": 94,
      "chip": "ym2612"
    },
    {
      "channel": 3,
      "note": 54,
      "start": 2.4359,
      "duration": 0.2689,
      "velocity": 94,
      "chip": "ym2612"
    },
    {
      "channel": 4,
      "note": 50,
      "start": 2.4365,
      "duration": 0.2689,
      "velocity": 94,
      "chip": "ym2612"
    },
    {
      "channel": 5,
      "note": 47,
      "start": 2.4371,
      "duration": 0.2689,
      "velocity": 94,
      "chip": "ym2612"
    },
    {
      "channel": 2,
      "note": 68,
      "start": 2.438,
      "duration": 0.263,
      "velocity": 127,
      "chip": "ym2612"
    },
    {
      "channel": 0,
      "note": 71,
      "start": 2.5598,
      "duration": 0.1439,
      "velocity": 106,
      "chip": "ym2612"
    },
    {
      "channel": 0,
      "note": 69,
      "start": 2.7043,
      "duration": 0.1423,
      "velocity": 106,
      "chip": "ym2612"
    },
    {
      "channel": 3,
      "note": 54,
      "start": 2.7053,
      "duration": 0.1428,
      "velocity": 94,
      "chip": "ym2612"
    },
    {
      "channel": 4,
      "note": 50,
      "start": 2.7059,
      "duration": 0.1426,
      "velocity": 94,
      "chip": "ym2612"
    },
    {
      "channel": 5,
      "note": 47,
      "start": 2.7064,
      "duration": 0.1423,
      "velocity": 94,
      "chip": "ym2612"
    },
    {
      "channel": 2,
      "note": 68,
      "start": 2.7073,
      "duration": 0.1364,
      "velocity": 127,
      "chip": "ym2612"
    },
    {
      "channel": 0,
      "note": 71,
      "start": 2.8472,
      "duration": 0.2666,
      "velocity": 106,
      "chip": "ym2612"
    },
    {
      "channel": 1,
      "note": 64,
      "start": 2.848,
      "duration": 0.1232,
      "velocity": 94,
      "chip": "ym2612"
    },
    {
      "channel": 2,
      "note": 75,
      "start": 2.8498,
      "duration": 0.268,
      "velocity": 120,
      "chip": "ym2612"
    },
    {
      "channel": 0,
      "note": 69,
      "start": 3.1144,
      "duration": 0.809,
      "velocity": 106,
      "chip": "ym2612"
    },
    {
      "channel": 1,
      "note": 59,
      "start": 3.1151,
      "duration": 0.3987,
      "velocity": 94,
      "chip": "ym2612"
    },
    {
      "channel": 3,
      "note": 54,
      "start": 3.116,
      "duration": 1.6347,
      "velocity": 94,
      "chip": "ym2612"
    },
    {
      "channel": 4,
      "note": 50,
      "start": 3.1168,
      "duration": 1.6346,
      "velocity": 94,
      "chip": "ym2612"
    },
    {
      "channel": 5,
      "note": 47,
      "start": 3.1176,
      "duration": 1.6345,
      "velocity": 94,
      "chip": "ym2612"
    },
    {
      "channel": 2,
      "note": 68,
      "start": 3.2476,
      "duration": 0.263,
      "velocity": 127,
      "chip": "ym2612"
    },
    {
      "channel": 1,
      "note": 59,
      "start": 3.5142,
      "duration": 0.1424,
      "velocity": 94,
      "chip": "ym2612"
    },
    {
      "channel": 2,
      "note": 68,
      "start": 3.5161,
      "duration": 0.1373,
      "velocity": 127,
      "chip": "ym2612"
    },
    {
      "channel": 1,
      "note": 61,
      "start": 3.6572,
      "duration": 0.1395,
      "velocity": 94,
      "chip": "ym2612"
    },
    {
      "channel": 2,
      "note": 75,
      "start": 3.6605,
      "duration": 0.2665,
      "velocity": 120,
      "chip": "ym2612"
    },
    {
      "channel": 0,
      "note": 71,
      "start": 3.9254,
      "duration": 0.0614,
      "velocity": 106,
      "chip": "ym2612"
    },
    {
      "channel": 0,
      "note": 72,
      "start": 3.9874,
      "duration": 0.082,
      "velocity": 106,
      "chip": "ym2612"
    },
    {
      "channel": 0,
      "note": 73,
      "start": 4.07,
      "duration": 0.2689,
      "velocity": 106,
      "chip": "ym2612"
    },
    {
      "channel": 1,
      "note": 62,
      "start": 4.0707,
      "duration": 0.1229,
      "velocity": 94,
      "chip": "ym2612"
    },
    {
      "channel": 2,
      "note": 68,
      "start": 4.0726,
      "duration": 0.2635,
      "velocity": 127,
      "chip": "ym2612"
    },
    {
      "channel": 0,
      "note": 69,
      "start": 4.3395,
      "duration": 0.4095,
      "velocity": 106,
      "chip": "ym2612"
    },
    {
      "channel": 2,
      "note": 68,
      "start": 4.343,
      "duration": 0.1201,
      "velocity": 127,
      "chip": "ym2612"
    },
    {
      "channel": 1,
      "note": 64,
      "start": 4.4668,
      "duration": 0.1395,
      "velocity": 94,
      "chip": "ym2612"
    },
    {
      "channel": 2,
      "note": 75,
      "start": 4.4688,
      "duration": 0.284,
      "velocity": 120,
      "chip": "ym2612"
    },
    {
      "channel": 0,
      "note": 71,
      "start": 4.7496,
      "duration": 0.3989,
      "velocity": 106,
      "chip": "ym2612"
    },
    {
      "channel": 1,
      "note": 59,
      "start": 4.7504,
      "duration": 0.399,
      "velocity": 94,
      "chip": "ym2612"
    },
    {
      "channel": 3,
      "note": 54,
      "start": 4.7511,
      "duration": 0.9547,
      "velocity": 94,
      "chip": "ym2612"
    },
    {
      "channel": 4,
      "note": 50,
      "start": 4.7518,
      "duration": 0.9545,
      "velocity": 94,
      "chip": "ym2612"
    },
    {
      "channel": 5,
      "note": 47,
      "start": 4.7526,
      "duration": 0.9544,
      "velocity": 94,
      "chip": "ym2612"
    },
    {
      "channel": 2,
      "note": 68,
      "start": 4.8814,
      "duration": 0.2643,
      "velocity": 127,
      "chip": "ym2612"
    },
    {
      "channel": 0,
      "note": 68,
      "start": 5.1491,
      "duration": 0.4102,
      "velocity": 106,
      "chip": "ym2612"
    },
    {
      "channel": 1,
      "note": 59,
      "start": 5.1498,
      "duration": 0.1433,
      "velocity": 94,
      "chip": "ym2612"
    },
    {
      "channel": 2,
      "note": 68,
      "start": 5.1517,
      "duration": 0.1369,
      "velocity": 127,
      "chip": "ym2612"
    },
    {
      "channel": 1,
      "note": 61,
      "start": 5.2937,
      "duration": 0.1223,
      "velocity": 94,
      "chip": "ym2612"
    },
    {
      "channel": 2,
      "note": 75,
      "start": 5.2957,
      "duration": 0.2658,
      "velocity": 120,
      "chip": "ym2612"
    },
    {
      "channel": 0,
      "note": 69,
      "start": 5.5599,
      "duration": 0.1444,
      "velocity": 106,
      "chip": "ym2612"
    },
    {
      "channel": 0,
      "note": 66,
      "start": 5.7049,
      "duration": 0.2704,
      "velocity": 106,
      "chip": "ym2612"
    },
    {
      "channel": 1,
      "note": 62,
      "start": 5.7057,
      "duration": 0.1231,
      "velocity": 94,
      "chip": "ym2612"
    },
    {
      "channel": 3,
      "note": 54,
      "start": 5.7062,
      "duration": 0.27,
      "velocity": 94,
      "chip": "ym2612"
    },
    {
      "channel": 4,
      "note": 50,
      "start": 5.7068,
      "duration": 0.27,
      "velocity": 94,
      "chip": "ym2612"
    },
    {
      "channel": 5,
      "note": 47,
      "start": 5.7087,
      "duration": 0.2687,
      "velocity": 94,
      "chip": "ym2612"
    },
    {
      "channel": 2,
      "note": 68,
      "start": 5.7096,
      "duration": 0.2616,
      "velocity": 127,
      "chip": "ym2612"
    },
    {
      "channel": 0,
      "note": 66,
      "start": 5.9758,
      "duration": 0.1253,
      "velocity": 106,
      "chip": "ym2612"
    },
    {
      "channel": 3,
      "note": 54,
      "start": 5.9766,
      "duration": 0.1258,
      "velocity": 94,
      "chip": "ym2612"
    },
    {
      "channel": 4,
      "note": 50,
      "start": 5.9772,
      "duration": 0.1255,
      "velocity": 94,
      "chip": "ym2612"
    },
    {
      "channel": 5,
      "note": 47,
      "start": 5.9779,
      "duration": 0.1252,
      "velocity": 94,
      "chip": "ym2612"
    },
    {
      "channel": 2,
      "note": 68,
      "start": 5.9787,
      "duration": 0.1195,
      "velocity": 127,
      "chip": "ym2612"
    },
    {
      "channel": 0,
      "note": 66,
      "start": 6.1015,
      "duration": 0.2694,
      "velocity": 106,
      "chip": "ym2612"
    },
    {
      "channel": 1,
      "note": 64,
      "start": 6.1022,
      "duration": 0.1407,
      "velocity": 94,
      "chip": "ym2612"
    },
    {
      "channel": 2,
      "note": 75,
      "start": 6.1041,
      "duration": 0.2641,
      "velocity": 120,
      "chip": "ym2612"
    },
    {
      "channel": 0,
      "note": 64,
      "start": 6.3715,
      "duration": 0.9521,
      "velocity": 106,
      "chip": "ym2612"
    },
    {
      "channel": 1,
      "note": 52,
      "start": 6.3723,
      "duration": 0.4118,
      "velocity": 94,
      "chip": "ym2612"
    },
    {
      "channel": 3,
      "note": 52,
      "start": 6.3731,
      "duration": 1.632,
      "velocity": 94,
      "chip": "ym2612"
    },
    {
      "channel": 4,
      "note": 50,
      "start": 6.3739,
      "duration": 1.6319,
      "velocity": 94,
      "chip": "ym2612"
    },
    {
      "channel": 5,
      "note": 47,
      "start": 6.3761,
      "duration": 1.6306,
      "velocity": 94,
      "chip": "ym2612"
    },
    {
      "channel": 2,
      "note": 68,
      "start": 6.3769,
      "duration": 0.3741,
      "velocity": 127,
      "chip": "ym2612"
    },
    {
      "channel": 1,
      "note": 52,
      "start": 6.7845,
      "duration": 0.1438,
      "velocity": 94,
      "chip": "ym2612"
    },
    {
      "channel": 2,
      "note": 68,
      "start": 6.7864,
      "duration": 0.1374,
      "velocity": 127,
      "chip": "ym2612"
    },
    {
      "channel": 1,
      "note": 54,
      "start": 6.9289,
      "duration": 0.1222,
      "velocity": 94,
      "chip": "ym2612"
    },
    {
      "channel": 2,
      "note": 75,
      "start": 6.9308,
      "duration": 0.2648,
      "velocity": 120,
      "chip": "ym2612"
    },
    {
      "channel": 0,
      "note": 59,
      "start": 7.3256,
      "duration": 0.2849,
      "velocity": 106,
      "chip": "ym2612"
    },
    {
      "channel": 1,
      "note": 55,
      "start": 7.3263,
      "duration": 0.1377,
      "velocity": 94,
      "chip": "ym2612"
    },
    {
      "channel": 2,
      "note": 68,
      "start": 7.3282,
      "duration": 0.2782,
      "velocity": 127,
      "chip": "ym2612"
    },
    {
      "channel": 0,
      "note": 61,
      "start": 7.6111,
      "duration": 0.1251,
      "velocity": 106,
      "chip": "ym2612"
    },
    {
      "channel": 2,
      "note": 68,
      "start": 7.6134,
      "duration": 0.1201,
      "velocity": 127,
      "chip": "ym2612"
    },
    {
      "channel": 0,
      "note": 64,
      "start": 7.7368,
      "duration": 0.2666,
      "velocity": 106,
      "chip": "ym2612"
    },
    {
      "channel": 1,
      "note": 57,
      "start": 7.7376,
      "duration": 0.139,
      "velocity": 94,
      "chip": "ym2612"
    },
    {
      "channel": 2,
      "note": 75,
      "start": 7.7395,
      "duration": 0.2678,
      "velocity": 120,
      "chip": "ym2612"
    },
    {
      "channel": 0,
      "note": 69,
      "start": 8.004,
      "duration": 0.1452,
      "velocity": 106,
      "chip": "ym2612"
    },
    {
      "channel": 1,
      "note": 52,
      "start": 8.0048,
      "duration": 0.4149,
      "velocity": 94,
      "chip": "ym2612"
    },
    {
      "channel": 3,
      "note": 52,
      "start": 8.0055,
      "duration": 0.9562,
      "velocity": 94,
      "chip": "ym2612"
    },
    {
      "channel": 4,
      "note": 50,
      "start": 8.0063,
      "duration": 0.956,
      "velocity": 94,
      "chip": "ym2612"
    },
    {
      "channel": 5,
      "note": 47,
      "start": 8.0071,
      "duration": 0.9558,
      "velocity": 94,
      "chip": "ym2612"
    },
    {
      "channel": 2,
      "note": 68,
      "start": 8.1517,
      "duration": 0.2643,
      "velocity": 127,
      "chip": "ym2612"
    },
    {
      "channel": 0,
      "note": 67,
      "start": 8.4194,
      "duration": 0.1425,
      "velocity": 106,
      "chip": "ym2612"
    },
    {
      "channel": 1,
      "note": 52,
      "start": 8.4201,
      "duration": 0.1422,
      "velocity": 94,
      "chip": "ym2612"
    },
    {
      "channel": 2,
      "note": 68,
      "start": 8.422,
      "duration": 0.1371,
      "velocity": 127,
      "chip": "ym2612"
    },
    {
      "channel": 1,
      "note": 54,
      "start": 8.5629,
      "duration": 0.1232,
      "velocity": 94,
      "chip": "ym2612"
    },
    {
      "channel": 2,
      "note": 75,
      "start": 8.5648,
      "duration": 0.2663,
      "velocity": 120,
      "chip": "ym2612"
    },
    {
      "channel": 0,
      "note": 66,
      "start": 8.8296,
      "duration": 0.1307,
      "velocity": 106,
      "chip": "ym2612"
    },
    {
      "channel": 0,
      "note": 64,
      "start": 8.9609,
      "duration": 0.2677,
      "velocity": 106,
      "chip": "ym2612"
    },
    {
      "channel": 1,
      "note": 55,
      "start": 8.9616,
      "duration": 0.1375,
      "velocity": 94,
      "chip": "ym2612"
    },
    {
      "channel": 3,
      "note": 52,
      "start": 8.9622,
      "duration": 0.2675,
      "velocity": 94,
      "chip": "ym2612"
    },
    {
      "channel": 4,
      "note": 50,
      "start": 8.9628,
      "duration": 0.2675,
      "velocity": 94,
      "chip": "ym2612"
    },
    {
      "channel": 5,
      "note": 47,
      "start": 8.9634,
      "duration": 0.2675,
      "velocity": 94,
      "chip": "ym2612"
    },
    {
      "channel": 2,
      "note": 68,
      "start": 8.9642,
      "duration": 0.2616,
      "velocity": 127,
      "chip": "ym2612"
    },
    {
      "channel": 0,
      "note": 67,
      "start": 9.2293,
      "duration": 0.4094,
      "velocity": 106,
      "chip": "ym2612"
    },
    {
      "channel": 3,
      "note": 52,
      "start": 9.2302,
      "duration": 0.1423,
      "velocity": 94,
      "chip": "ym2612"
    },
    {
      "channel": 4,
      "note": 50,
      "start": 9.2307,
      "duration": 0.142,
      "velocity": 94,
      "chip": "ym2612"
    },
    {
      "channel": 5,
      "note": 47,
      "start": 9.2313,
      "duration": 0.1418,
      "velocity": 94,
      "chip": "ym2612"
    },
    {
      "channel": 2,
      "note": 68,
      "start": 9.2322,
      "duration": 0.1363,
      "velocity": 127,
      "chip": "ym2612"
    },
    {
      "channel": 1,
      "note": 57,
      "start": 9.3723,
      "duration": 0.1396,
      "velocity": 94,
      "chip": "ym2612"
    },
    {
      "channel": 2,
      "note": 75,
      "start": 9.3754,
      "duration": 0.2686,
      "velocity": 120,
      "chip": "ym2612"
    },
    {
      "channel": 0,
      "note": 76,
      "start": 9.6392,
      "duration": 0.9562,
      "velocity": 106,
      "chip": "ym2612"
    },
    {
      "channel": 1,
      "note": 52,
      "start": 9.64,
      "duration": 0.4145,
      "velocity": 94,
      "chip": "ym2612"
    },
    {
      "channel": 3,
      "note": 52,
      "start": 9.6421,
      "duration": 1.6346,
      "velocity": 94,
      "chip": "ym2612"
    },
    {
      "channel": 4,
      "note": 50,
      "start": 9.6429,
      "duration": 1.6346,
      "velocity": 94,
      "chip": "ym2612"
    },
    {
      "channel": 5,
      "note": 47,
      "start": 9.6438,
      "duration": 1.6346,
      "velocity": 94,
      "chip": "ym2612"
    },
    {
      "channel": 2,
      "note": 68,
      "start": 9.7869,
      "duration": 0.2643,
      "velocity": 127,
      "chip": "ym2612"
    },
    {
      "channel": 1,
      "note": 52,
      "start": 10.0549,
      "duration": 0.1265,
      "velocity": 94,
      "chip": "ym2612"
    },
    {
      "channel": 2,
      "note": 68,
      "start": 10.0569,
      "duration": 0.1214,
      "velocity": 127,
      "chip": "ym2612"
    },
    {
      "channel": 1,
      "note": 54,
      "start": 10.182,
      "duration": 0.1395,
      "velocity": 94,
      "chip": "ym2612"
    },
    {
      "channel": 2,
      "note": 75,
      "start": 10.1839,
      "duration": 0.282,
      "velocity": 120,
      "chip": "ym2612"
    },
    {
      "channel": 0,
      "note": 76,
      "start": 10.5959,
      "duration": 0.2677,
      "velocity": 106,
      "chip": "ym2612"
    },
    {
      "channel": 1,
      "note": 55,
      "start": 10.5966,
      "duration": 0.1377,
      "velocity": 94,
      "chip": "ym2612"
    },
    {
      "channel": 2,
      "note": 68,
      "start": 10.5985,
      "duration": 0.2623,
      "velocity": 127,
      "chip": "ym2612"
    },
    {
      "channel": 1,
      "note": 64,
      "start": 10.7349,
      "duration": 0.1295,
      "velocity": 94,
      "chip": "ym2612"
    },
    {
      "channel": 0,
      "note": 71,
      "start": 10.8642,
      "duration": 0.1422,
      "velocity": 106,
      "chip": "ym2612"
    },
    {
      "channel": 1,
      "note": 57,
      "start": 10.8649,
      "duration": 0.1423,
      "velocity": 94,
      "chip": "ym2612"
    },
    {
      "channel": 2,
      "note": 68,
      "start": 10.8668,
      "duration": 0.1368,
      "velocity": 127,
      "chip": "ym2612"
    },
    {
      "channel": 0,
      "note": 73,
      "start": 11.0071,
      "duration": 0.2667,
      "velocity": 106,
      "chip": "ym2612"
    },
    {
      "channel": 1,
      "note": 66,
      "start": 11.0092,
      "duration": 0.122,
      "velocity": 94,
      "chip": "ym2612"
    },
    {
      "channel": 2,
      "note": 75,
      "start": 11.0111,
      "duration": 0.2681,
      "velocity": 120,
      "chip": "ym2612"
    },
    {
      "channel": 0,
      "note": 74,
      "start": 11.2757,
      "duration": 0.4135,
      "velocity": 106,
      "chip": "ym2612"
    },
    {
      "channel": 1,
      "note": 52,
      "start": 11.2765,
      "duration": 0.4135,
      "velocity": 94,
      "chip": "ym2612"
    },
    {
      "channel": 3,
      "note": 59,
      "start": 11.2773,
      "duration": 0.1429,
      "velocity": 94,
      "chip": "ym2612"
    },
    {
      "channel": 4,
      "note": 55,
      "start": 11.2781,
      "duration": 0.1424,
      "velocity": 94,
      "chip": "ym2612"
    },
    {
      "channel": 5,
      "note": 52,
      "start": 11.2789,
      "duration": 0.1419,
      "velocity": 94,
      "chip": "ym2612"
    },
    {
      "channel": 2,
      "note": 68,
      "start": 11.4219,
      "duration": 0.2645,
      "velocity": 127,
      "chip": "ym2612"
    },
    {
      "channel": 0,
      "note": 73,
      "start": 11.6898,
      "duration": 0.1264,
      "velocity": 106,
      "chip": "ym2612"
    },
    {
      "channel": 1,
      "note": 54,
      "start": 11.6905,
      "duration": 0.126,
      "velocity": 94,
      "chip": "ym2612"
    },
    {
      "channel": 3,
      "note": 57,
      "start": 11.6926,
      "duration": 0.1242,
      "velocity": 94,
      "chip": "ym2612"
    },
    {
      "channel": 4,
      "note": 54,
      "start": 11.6934,
      "duration": 0.1238,
      "velocity": 94,
      "chip": "ym2612"
    },
    {
      "channel": 5,
      "note": 52,
      "start": 11.6941,
      "duration": 0.1234,
      "velocity": 94,
      "chip": "ym2612"
    },
    {
      "channel": 2,
      "note": 68,
      "start": 11.695,
      "duration": 0.1184,
      "velocity": 127,
      "chip": "ym2612"
    },
    {
      "channel": 2,
      "note": 75,
      "start": 11.8185,
      "duration": 0.2688,
      "velocity": 120,
      "chip": "ym2612"
    },
    {
      "channel": 0,
      "note": 71,
      "start": 12.0843,
      "duration": 0.1449,
      "velocity": 106,
      "chip": "ym2612"
    },
    {
      "channel": 1,
      "note": 55,
      "start": 12.085,
      "duration": 0.1445,
      "velocity": 94,
      "chip": "ym2612"
    },
    {
      "channel": 3,
      "note": 55,
      "start": 12.0857,
      "duration": 0.144,
      "velocity": 94,
      "chip": "ym2612"
    },
    {
      "channel": 4,
      "note": 54,
      "start": 12.0864,
      "duration": 0.1437,
      "velocity": 94,
      "chip": "ym2612"
    },
    {
      "channel": 5,
      "note": 52,
      "start": 12.0871,
      "duration": 0.1433,
      "velocity": 94,
      "chip": "ym2612"
    },
    {
      "channel": 2,
      "note": 68,
      "start": 12.2314,
      "duration": 0.3788,
      "velocity": 127,
      "chip": "ym2612"
    },
    {
      "channel": 0,
      "note": 71,
      "start": 12.4968,
      "duration": 0.542,
      "velocity": 106,
      "chip": "ym2612"
    },
    {
      "channel": 1,
      "note": 57,
      "start": 12.4976,
      "duration": 0.5459,
      "velocity": 94,
      "chip": "ym2612"
    },
    {
      "channel": 3,
      "note": 55,
      "start": 12.4983,
      "duration": 0.5461,
      "velocity": 94,
      "chip": "ym2612"
    },
    {
      "channel": 4,
      "note": 54,
      "start": 12.499,
      "duration": 0.5461,
      "velocity": 94,
      "chip": "ym2612"
    },
    {
      "channel": 5,
      "note": 52,
      "start": 12.4998,
      "duration": 0.5462,
      "velocity": 94,
      "chip": "ym2612"
    },
    {
      "channel": 2,
      "note": 68,
      "start": 12.6457,
      "duration": 0.1202,
      "velocity": 127,
      "chip": "ym2612"
    },
    {
      "channel": 2,
      "note": 68,
      "start": 12.7712,
      "duration": 0.138,
      "velocity": 127,
      "chip": "ym2612"
    },
    {
      "channel": 2,
      "note": 68,
      "start": 12.9144,
      "duration": 0.1216,
      "velocity": 127,
      "chip": "ym2612"
    },
    {
      "channel": 0,
      "note": 69,
      "start": 13.0395,
      "duration": 1.5046,
      "velocity": 106,
      "chip": "ym2612"
    },
    {
      "channel": 1,
      "note": 59,
      "start": 13.0441,
      "duration": 0.282,
      "velocity": 94,
      "chip": "ym2612"
    },
    {
      "channel": 3,
      "note": 54,
      "start": 13.0449,
      "duration": 1.5006,
      "velocity": 94,
      "chip": "ym2612"
    },
    {
      "channel": 4,
      "note": 50,
      "start": 13.0457,
      "duration": 1.5005,
      "velocity": 94,
      "chip": "ym2612"
    },
    {
      "channel": 5,
      "note": 47,
      "start": 13.0466,
      "duration": 1.5003,
      "velocity": 94,
      "chip": "ym2612"
    },
    {
      "channel": 2,
      "note": 68,
      "start": 13.0474,
      "duration": 0.2742,
      "velocity": 127,
      "chip": "ym2612"
    },
    {
      "channel": 1,
      "note": 59,
      "start": 13.3265,
      "duration": 0.1252,
      "velocity": 94,
      "chip": "ym2612"
    },
    {
      "channel": 2,
      "note": 68,
      "start": 13.3284,
      "duration": 0.1201,
      "velocity": 127,
      "chip": "ym2612"
    },
    {
      "channel": 1,
      "note": 61,
      "start": 13.4523,
      "duration": 0.1406,
      "velocity": 94,
      "chip": "ym2612"
    },
    {
      "channel": 2,
      "note": 75,
      "start": 13.4542,
      "duration": 0.2662,
      "velocity": 120,
      "chip": "ym2612"
    },
    {
      "channel": 1,
      "note": 62,
      "start": 13.8653,
      "duration": 0.1234,
      "velocity": 94,
      "chip": "ym2612"
    },
    {
      "channel": 2,
      "note": 68,
      "start": 13.8672,
      "duration": 0.2639,
      "velocity": 127,
      "chip": "ym2612"
    },
    {
      "channel": 2,
      "note": 68,
      "start": 14.1363,
      "duration": 0.139,
      "velocity": 127,
      "chip": "ym2612"
    },
    {
      "channel": 1,
      "note": 64,
      "start": 14.2791,
      "duration": 0.1224,
      "velocity": 94,
      "chip": "ym2612"
    },
    {
      "channel": 2,
      "note": 75,
      "start": 14.281,
      "duration": 0.2665,
      "velocity": 120,
      "chip": "ym2612"
    },
    {
      "channel": 0,
      "note": 69,
      "start": 14.5445,
      "duration": 0.9549,
      "velocity": 106,
      "chip": "ym2612"
    },
    {
      "channel": 1,
      "note": 59,
      "start": 14.5452,
      "duration": 0.4001,
      "velocity": 94,
      "chip": "ym2612"
    },
    {
      "channel": 3,
      "note": 54,
      "start": 14.5459,
      "duration": 0.9549,
      "velocity": 94,
      "chip": "ym2612"
    },
    {
      "channel": 4,
      "note": 50,
      "start": 14.5466,
      "duration": 0.9548,
      "velocity": 94,
      "chip": "ym2612"
    },
    {
      "channel": 5,
      "note": 47,
      "start": 14.5473,
      "duration": 0.9547,
      "velocity": 94,
      "chip": "ym2612"
    },
    {
      "channel": 2,
      "note": 68,
      "start": 14.6778,
      "duration": 0.2643,
      "velocity": 127,
      "chip": "ym2612"
    },
    {
      "channel": 1,
      "note": 59,
      "start": 14.9458,
      "duration": 0.1411,
      "velocity": 94,
      "chip": "ym2612"
    },
    {
      "channel": 2,
      "note": 68,
      "start": 14.9477,
      "duration": 0.136,
      "velocity": 127,
      "chip": "ym2612"
    },
    {
      "channel": 1,
      "note": 61,
      "start": 15.0875,
      "duration": 0.1395,
      "velocity": 94,
      "chip": "ym2612"
    },
    {
      "channel": 2,
      "note": 75,
      "start": 15.0894,
      "duration": 0.2662,
      "velocity": 120,
      "chip": "ym2612"
    },
    {
      "channel": 0,
      "note": 69,
      "start": 15.4999,
      "duration": 0.1235,
      "velocity": 106,
      "chip": "ym2612"
    },
    {
      "channel": 1,
      "note": 62,
      "start": 15.5007,
      "duration": 0.1249,
      "velocity": 94,
      "chip": "ym2612"
    },
    {
      "channel": 3,
      "note": 54,
      "start": 15.5013,
      "duration": 0.2689,
      "velocity": 94,
      "chip": "ym2612"
    },
    {
      "channel": 4,
      "note": 50,
      "start": 15.5018,
      "duration": 0.2689,
      "velocity": 94,
      "chip": "ym2612"
    },
    {
      "channel": 5,
      "note": 47,
      "start": 15.5025,
      "duration": 0.2689,
      "velocity": 94,
      "chip": "ym2612"
    },
    {
      "channel": 2,
      "note": 68,
      "start": 15.5033,
      "duration": 0.263,
      "velocity": 127,
      "chip": "ym2612"
    },
    {
      "channel": 0,
      "note": 71,
      "start": 15.6254,
      "duration": 0.1437,
      "velocity": 106,
      "chip": "ym2612"
    },
    {
      "channel": 0,
      "note": 69,
      "start": 15.7697,
      "duration": 0.1264,
      "velocity": 106,
      "chip": "ym2612"
    },
    {
      "channel": 3,
      "note": 54,
      "start": 15.7706,
      "duration": 0.127,
      "velocity": 94,
      "chip": "ym2612"
    },
    {
      "channel": 4,
      "note": 50,
      "start": 15.7712,
      "duration": 0.1268,
      "velocity": 94,
      "chip": "ym2612"
    },
    {
      "channel": 5,
      "note": 47,
      "start": 15.7718,
      "duration": 0.1265,
      "velocity": 94,
      "chip": "ym2612"
    },
    {
      "channel": 2,
      "note": 68,
      "start": 15.7727,
      "duration": 0.1207,
      "velocity": 127,
      "chip": "ym2612"
    },
    {
      "channel": 0,
      "note": 71,
      "start": 15.8968,
      "duration": 0.2825,
      "velocity": 106,
      "chip": "ym2612"
    },
    {
      "channel": 1,
      "note": 64,
      "start": 15.8975,
      "duration": 0.1391,
      "velocity": 94,
      "chip": "ym2612"
    },
    {
      "channel": 2,
      "note": 75,
      "start": 15.8993,
      "duration": 0.284,
      "velocity": 120,
      "chip": "ym2612"
    },
    {
      "channel": 0,
      "note": 69,
      "start": 16.1798,
      "duration": 0.809,
      "velocity": 106,
      "chip": "ym2612"
    },
    {
      "channel": 1,
      "note": 59,
      "start": 16.1806,
      "duration": 0.3988,
      "velocity": 94,
      "chip": "ym2612"
    },
    {
      "channel": 3,
      "note": 54,
      "start": 16.1814,
      "duration": 1.6188,
      "velocity": 94,
      "chip": "ym2612"
    },
    {
      "channel": 4,
      "note": 50,
      "start": 16.1822,
      "duration": 1.6187,
      "velocity": 94,
      "chip": "ym2612"
    },
    {
      "channel": 5,
      "note": 47,
      "start": 16.1831,
      "duration": 1.6186,
      "velocity": 94,
      "chip": "ym2612"
    },
    {
      "channel": 2,
      "note": 68,
      "start": 16.313,
      "duration": 0.2632,
      "velocity": 127,
      "chip": "ym2612"
    },
    {
      "channel": 1,
      "note": 59,
      "start": 16.5798,
      "duration": 0.1422,
      "velocity": 94,
      "chip": "ym2612"
    },
    {
      "channel": 2,
      "note": 68,
      "start": 16.5817,
      "duration": 0.1371,
      "velocity": 127,
      "chip": "ym2612"
    },
    {
      "channel": 1,
      "note": 61,
      "start": 16.7227,
      "duration": 0.1236,
      "velocity": 94,
      "chip": "ym2612"
    },
    {
      "channel": 2,
      "note": 75,
      "start": 16.7259,
      "duration": 0.2665,
      "velocity": 120,
      "chip": "ym2612"
    },
    {
      "channel": 0,
      "note": 71,
      "start": 16.9895,
      "duration": 0.0629,
      "velocity": 106,
      "chip": "ym2612"
    },
    {
      "channel": 0,
      "note": 72,
      "start": 17.0529,
      "duration": 0.0818,
      "velocity": 106,
      "chip": "ym2612"
    },
    {
      "channel": 0,
      "note": 73,
      "start": 17.1354,
      "duration": 0.2689,
      "velocity": 106,
      "chip": "ym2612"
    },
    {
      "channel": 1,
      "note": 62,
      "start": 17.1361,
      "duration": 0.1235,
      "velocity": 94,
      "chip": "ym2612"
    },
    {
      "channel": 2,
      "note": 68,
      "start": 17.138,
      "duration": 0.2635,
      "velocity": 127,
      "chip": "ym2612"
    },
    {
      "channel": 0,
      "note": 69,
      "start": 17.4049,
      "duration": 0.3937,
      "velocity": 106,
      "chip": "ym2612"
    },
    {
      "channel": 2,
      "note": 68,
      "start": 17.4071,
      "duration": 0.1213,
      "velocity": 127,
      "chip": "ym2612"
    },
    {
      "channel": 1,
      "note": 64,
      "start": 17.5322,
      "duration": 0.1396,
      "velocity": 94,
      "chip": "ym2612"
    },
    {
      "channel": 2,
      "note": 75,
      "start": 17.5341,
      "duration": 0.2682,
      "velocity": 120,
      "chip": "ym2612"
    },
    {
      "channel": 0,
      "note": 71,
      "start": 17.7992,
      "duration": 0.4148,
      "velocity": 106,
      "chip": "ym2612"
    },
    {
      "channel": 1,
      "note": 59,
      "start": 17.7999,
      "duration": 0.4148,
      "velocity": 94,
      "chip": "ym2612"
    },
    {
      "channel": 3,
      "note": 54,
      "start": 17.8006,
      "duration": 0.9548,
      "velocity": 94,
      "chip": "ym2612"
    },
    {
      "channel": 4,
      "note": 50,
      "start": 17.8014,
      "duration": 0.9546,
      "velocity": 94,
      "chip": "ym2612"
    },
    {
      "channel": 5,
      "note": 47,
      "start": 17.8022,
      "duration": 0.9544,
      "velocity": 94,
      "chip": "ym2612"
    },
    {
      "channel": 2,
      "note": 68,
      "start": 17.948,
      "duration": 0.263,
      "velocity": 127,
      "chip": "ym2612"
    },
    {
      "channel": 0,
      "note": 68,
      "start": 18.2145,
      "duration": 0.4109,
      "velocity": 106,
      "chip": "ym2612"
    },
    {
      "channel": 1,
      "note": 59,
      "start": 18.2151,
      "duration": 0.142,
      "velocity": 94,
      "chip": "ym2612"
    },
    {
      "channel": 2,
      "note": 68,
      "start": 18.2171,
      "duration": 0.1368,
      "velocity": 127,
      "chip": "ym2612"
    },
    {
      "channel": 1,
      "note": 61,
      "start": 18.3591,
      "duration": 0.1223,
      "velocity": 94,
      "chip": "ym2612"
    },
    {
      "channel": 2,
      "note": 75,
      "start": 18.361,
      "duration": 0.2666,
      "velocity": 120,
      "chip": "ym2612"
    },
    {
      "channel": 0,
      "note": 69,
      "start": 18.626,
      "duration": 0.1279,
      "velocity": 106,
      "chip": "ym2612"
    },
    {
      "channel": 0,
      "note": 66,
      "start": 18.7545,
      "duration": 0.285,
      "velocity": 106,
      "chip": "ym2612"
    },
    {
      "channel": 1,
      "note": 62,
      "start": 18.7552,
      "duration": 0.1389,
      "velocity": 94,
      "chip": "ym2612"
    },
    {
      "channel": 3,
      "note": 54,
      "start": 18.7559,
      "duration": 0.2845,
      "velocity": 94,
      "chip": "ym2612"
    },
    {
      "channel": 4,
      "note": 50,
      "start": 18.7564,
      "duration": 0.2859,
      "velocity": 94,
      "chip": "ym2612"
    },
    {
      "channel": 5,
      "note": 47,
      "start": 18.757,
      "duration": 0.2859,
      "velocity": 94,
      "chip": "ym2612"
    },
    {
      "channel": 2,
      "note": 68,
      "start": 18.7593,
      "duration": 0.2774,
      "velocity": 127,
      "chip": "ym2612"
    },
    {
      "channel": 0,
      "note": 66,
      "start": 19.04,
      "duration": 0.1265,
      "velocity": 106,
      "chip": "ym2612"
    },
    {
      "channel": 3,
      "note": 54,
      "start": 19.0422,
      "duration": 0.1256,
      "velocity": 94,
      "chip": "ym2612"
    },
    {
      "channel": 4,
      "note": 50,
      "start": 19.0427,
      "duration": 0.1253,
      "velocity": 94,
      "chip": "ym2612"
    },
    {
      "channel": 5,
      "note": 47,
      "start": 19.0433,
      "duration": 0.1251,
      "velocity": 94,
      "chip": "ym2612"
    },
    {
      "channel": 2,
      "note": 68,
      "start": 19.0442,
      "duration": 0.1194,
      "velocity": 127,
      "chip": "ym2612"
    },
    {
      "channel": 0,
      "note": 66,
      "start": 19.1668,
      "duration": 0.2695,
      "velocity": 106,
      "chip": "ym2612"
    },
    {
      "channel": 1,
      "note": 64,
      "start": 19.1676,
      "duration": 0.1393,
      "velocity": 94,
      "chip": "ym2612"
    },
    {
      "channel": 2,
      "note": 75,
      "start": 19.1694,
      "duration": 0.2642,
      "velocity": 120,
      "chip": "ym2612"
    },
    {
      "channel": 0,
      "note": 64,
      "start": 19.437,
      "duration": 0.952,
      "velocity": 106,
      "chip": "ym2612"
    },
    {
      "channel": 1,
      "note": 52,
      "start": 19.4377,
      "duration": 0.4117,
      "velocity": 94,
      "chip": "ym2612"
    },
    {
      "channel": 3,
      "note": 52,
      "start": 19.4385,
      "duration": 1.632,
      "velocity": 94,
      "chip": "ym2612"
    },
    {
      "channel": 4,
      "note": 50,
      "start": 19.4394,
      "duration": 1.632,
      "velocity": 94,
      "chip": "ym2612"
    },
    {
      "channel": 5,
      "note": 47,
      "start": 19.4402,
      "duration": 1.6319,
      "velocity": 94,
      "chip": "ym2612"
    },
    {
      "channel": 2,
      "note": 68,
      "start": 19.4424,
      "duration": 0.374,
      "velocity": 127,
      "chip": "ym2612"
    },
    {
      "channel": 1,
      "note": 52,
      "start": 19.8499,
      "duration": 0.1438,
      "velocity": 94,
      "chip": "ym2612"
    },
    {
      "channel": 2,
      "note": 68,
      "start": 19.8518,
      "duration": 0.1374,
      "velocity": 127,
      "chip": "ym2612"
    },
    {
      "channel": 1,
      "note": 54,
      "start": 19.9943,
      "duration": 0.1223,
      "velocity": 94,
      "chip": "ym2612"
    },
    {
      "channel": 2,
      "note": 75,
      "start": 19.9962,
      "duration": 0.2649,
      "velocity": 120,
      "chip": "ym2612"
    },
    {
      "channel": 0,
      "note": 59,
      "start": 20.3896,
      "duration": 0.2705,
      "velocity": 106,
      "chip": "ym2612"
    },
    {
      "channel": 1,
      "note": 55,
      "start": 20.3903,
      "duration": 0.139,
      "velocity": 94,
      "chip": "ym2612"
    },
    {
      "channel": 2,
      "note": 68,
      "start": 20.3936,
      "duration": 0.2624,
      "velocity": 127,
      "chip": "ym2612"
    },
    {
      "channel": 0,
      "note": 61,
      "start": 20.6607,
      "duration": 0.1408,
      "velocity": 106,
      "chip": "ym2612"
    },
    {
      "channel": 2,
      "note": 68,
      "start": 20.663,
      "duration": 0.1358,
      "velocity": 127,
      "chip": "ym2612"
    },
    {
      "channel": 0,
      "note": 64,
      "start": 20.8022,
      "duration": 0.2666,
      "velocity": 106,
      "chip": "ym2612"
    },
    {
      "channel": 1,
      "note": 57,
      "start": 20.8029,
      "duration": 0.14,
      "velocity": 94,
      "chip": "ym2612"
    },
    {
      "channel": 2,
      "note": 75,
      "start": 20.8049,
      "duration": 0.2678,
      "velocity": 120,
      "chip": "ym2612"
    },
    {
      "channel": 0,
      "note": 69,
      "start": 21.0695,
      "duration": 0.1452,
      "velocity": 106,
      "chip": "ym2612"
    },
    {
      "channel": 1,
      "note": 52,
      "start": 21.0702,
      "duration": 0.4149,
      "velocity": 94,
      "chip": "ym2612"
    },
    {
      "channel": 3,
      "note": 52,
      "start": 21.071,
      "duration": 0.9562,
      "velocity": 94,
      "chip": "ym2612"
    },
    {
      "channel": 4,
      "note": 50,
      "start": 21.0717,
      "duration": 0.956,
      "velocity": 94,
      "chip": "ym2612"
    },
    {
      "channel": 5,
      "note": 47,
      "start": 21.0725,
      "duration": 0.9558,
      "velocity": 94,
      "chip": "ym2612"
    },
    {
      "channel": 2,
      "note": 68,
      "start": 21.2172,
      "duration": 0.2643,
      "velocity": 127,
      "chip": "ym2612"
    },
    {
      "channel": 0,
      "note": 67,
      "start": 21.4849,
      "duration": 0.1271,
      "velocity": 106,
      "chip": "ym2612"
    },
    {
      "channel": 1,
      "note": 52,
      "start": 21.4856,
      "duration": 0.1267,
      "velocity": 94,
      "chip": "ym2612"
    },
    {
      "channel": 2,
      "note": 68,
      "start": 21.4875,
      "duration": 0.1216,
      "velocity": 127,
      "chip": "ym2612"
    },
    {
      "channel": 1,
      "note": 54,
      "start": 21.6129,
      "duration": 0.1386,
      "velocity": 94,
      "chip": "ym2612"
    },
    {
      "channel": 2,
      "note": 75,
      "start": 21.6148,
      "duration": 0.2818,
      "velocity": 120,
      "chip": "ym2612"
    },
    {
      "channel": 0,
      "note": 66,
      "start": 21.895,
      "duration": 0.1307,
      "velocity": 106,
      "chip": "ym2612"
    },
    {
      "channel": 0,
      "note": 64,
      "start": 22.0263,
      "duration": 0.269,
      "velocity": 106,
      "chip": "ym2612"
    },
    {
      "channel": 1,
      "note": 55,
      "start": 22.027,
      "duration": 0.1376,
      "velocity": 94,
      "chip": "ym2612"
    },
    {
      "channel": 3,
      "note": 52,
      "start": 22.0276,
      "duration": 0.2688,
      "velocity": 94,
      "chip": "ym2612"
    },
    {
      "channel": 4,
      "note": 50,
      "start": 22.0282,
      "duration": 0.2688,
      "velocity": 94,
      "chip": "ym2612"
    },
    {
      "channel": 5,
      "note": 47,
      "start": 22.0288,
      "duration": 0.2688,
      "velocity": 94,
      "chip": "ym2612"
    },
    {
      "channel": 2,
      "note": 68,
      "start": 22.0296,
      "duration": 0.2629,
      "velocity": 127,
      "chip": "ym2612"
    },
    {
      "channel": 0,
      "note": 67,
      "start": 22.2959,
      "duration": 0.4081,
      "velocity": 106,
      "chip": "ym2612"
    },
    {
      "channel": 3,
      "note": 52,
      "start": 22.2968,
      "duration": 0.1411,
      "velocity": 94,
      "chip": "ym2612"
    },
    {
      "channel": 4,
      "note": 50,
      "start": 22.2974,
      "duration": 0.1408,
      "velocity": 94,
      "chip": "ym2612"
    },
    {
      "channel": 5,
      "note": 47,
      "start": 22.298,
      "duration": 0.1406,
      "velocity": 94,
      "chip": "ym2612"
    },
    {
      "channel": 2,
      "note": 68,
      "start": 22.2988,
      "duration": 0.1352,
      "velocity": 127,
      "chip": "ym2612"
    },
    {
      "channel": 1,
      "note": 57,
      "start": 22.4378,
      "duration": 0.1236,
      "velocity": 94,
      "chip": "ym2612"
    },
    {
      "channel": 2,
      "note": 75,
      "start": 22.4396,
      "duration": 0.2698,
      "velocity": 120,
      "chip": "ym2612"
    },
    {
      "channel": 0,
      "note": 76,
      "start": 22.7046,
      "duration": 0.9563,
      "velocity": 106,
      "chip": "ym2612"
    },
    {
      "channel": 1,
      "note": 52,
      "start": 22.7054,
      "duration": 0.4146,
      "velocity": 94,
      "chip": "ym2612"
    },
    {
      "channel": 3,
      "note": 52,
      "start": 22.7062,
      "duration": 1.6359,
      "velocity": 94,
      "chip": "ym2612"
    },
    {
      "channel": 4,
      "note": 50,
      "start": 22.707,
      "duration": 1.6359,
      "velocity": 94,
      "chip": "ym2612"
    },
    {
      "channel": 5,
      "note": 47,
      "start": 22.7092,
      "duration": 1.6345,
      "velocity": 94,
      "chip": "ym2612"
    },
    {
      "channel": 2,
      "note": 68,
      "start": 22.8524,
      "duration": 0.2643,
      "velocity": 127,
      "chip": "ym2612"
    },
    {
      "channel": 1,
      "note": 52,
      "start": 23.1204,
      "duration": 0.1265,
      "velocity": 94,
      "chip": "ym2612"
    },
    {
      "channel": 2,
      "note": 68,
      "start": 23.1223,
      "duration": 0.1214,
      "velocity": 127,
      "chip": "ym2612"
    },
    {
      "channel": 1,
      "note": 54,
      "start": 23.2474,
      "duration": 0.1395,
      "velocity": 94,
      "chip": "ym2612"
    },
    {
      "channel": 2,
      "note": 75,
      "start": 23.2493,
      "duration": 0.2662,
      "velocity": 120,
      "chip": "ym2612"
    },
    {
      "channel": 0,
      "note": 76,
      "start": 23.6614,
      "duration": 0.2677,
      "velocity": 106,
      "chip": "ym2612"
    },
    {
      "channel": 1,
      "note": 55,
      "start": 23.6621,
      "duration": 0.1375,
      "velocity": 94,
      "chip": "ym2612"
    },
    {
      "channel": 2,
      "note": 68,
      "start": 23.664,
      "duration": 0.2623,
      "velocity": 127,
      "chip": "ym2612"
    },
    {
      "channel": 1,
      "note": 64,
      "start": 23.8002,
      "duration": 0.1296,
      "velocity": 94,
      "chip": "ym2612"
    },
    {
      "channel": 0,
      "note": 71,
      "start": 23.9296,
      "duration": 0.1423,
      "velocity": 106,
      "chip": "ym2612"
    },
    {
      "channel": 1,
      "note": 57,
      "start": 23.9304,
      "duration": 0.1422,
      "velocity": 94,
      "chip": "ym2612"
    },
    {
      "channel": 2,
      "note": 68,
      "start": 23.9323,
      "duration": 0.1368,
      "velocity": 127,
      "chip": "ym2612"
    },
    {
      "channel": 0,
      "note": 73,
      "start": 24.0725,
      "duration": 0.2667,
      "velocity": 106,
      "chip": "ym2612"
    },
    {
      "channel": 1,
      "note": 66,
      "start": 24.0733,
      "duration": 0.1235,
      "velocity": 94,
      "chip": "ym2612"
    },
    {
      "channel": 2,
      "note": 75,
      "start": 24.0765,
      "duration": 0.268,
      "velocity": 120,
      "chip": "ym2612"
    },
    {
      "channel": 0,
      "note": 74,
      "start": 24.3398,
      "duration": 0.4149,
      "velocity": 106,
      "chip": "ym2612"
    },
    {
      "channel": 1,
      "note": 52,
      "start": 24.3405,
      "duration": 0.4149,
      "velocity": 94,
      "chip": "ym2612"
    },
    {
      "channel": 3,
      "note": 59,
      "start": 24.3427,
      "duration": 0.1271,
      "velocity": 94,
      "chip": "ym2612"
    },
    {
      "channel": 4,
      "note": 55,
      "start": 24.3435,
      "duration": 0.1266,
      "velocity": 94,
      "chip": "ym2612"
    },
    {
      "channel": 5,
      "note": 52,
      "start": 24.3443,
      "duration": 0.1261,
      "velocity": 94,
      "chip": "ym2612"
    },
    {
      "channel": 2,
      "note": 68,
      "start": 24.4714,
      "duration": 0.2805,
      "velocity": 127,
      "chip": "ym2612"
    },
    {
      "channel": 0,
      "note": 73,
      "start": 24.7554,
      "duration": 0.1262,
      "velocity": 106,
      "chip": "ym2612"
    },
    {
      "channel": 1,
      "note": 54,
      "start": 24.756,
      "duration": 0.1258,
      "velocity": 94,
      "chip": "ym2612"
    },
    {
      "channel": 3,
      "note": 57,
      "start": 24.7568,
      "duration": 0.1254,
      "velocity": 94,
      "chip": "ym2612"
    },
    {
      "channel": 4,
      "note": 54,
      "start": 24.7589,
      "duration": 0.1236,
      "velocity": 94,
      "chip": "ym2612"
    },
    {
      "channel": 5,
      "note": 52,
      "start": 24.7596,
      "duration": 0.1232,
      "velocity": 94,
      "chip": "ym2612"
    },
    {
      "channel": 2,
      "note": 68,
      "start": 24.7605,
      "duration": 0.1183,
      "velocity": 127,
      "chip": "ym2612"
    },
    {
      "channel": 2,
      "note": 75,
      "start": 24.8838,
      "duration": 0.2687,
      "velocity": 120,
      "chip": "ym2612"
    },
    {
      "channel": 0,
      "note": 71,
      "start": 25.1494,
      "duration": 0.1464,
      "velocity": 106,
      "chip": "ym2612"
    },
    {
      "channel": 1,
      "note": 55,
      "start": 25.1501,
      "duration": 0.1461,
      "velocity": 94,
      "chip": "ym2612"
    },
    {
      "channel": 3,
      "note": 55,
      "start": 25.1509,
      "duration": 0.1456,
      "velocity": 94,
      "chip": "ym2612"
    },
    {
      "channel": 4,
      "note": 54,
      "start": 25.1516,
      "duration": 0.1452,
      "velocity": 94,
      "chip": "ym2612"
    },
    {
      "channel": 5,
      "note": 52,
      "start": 25.1524,
      "duration": 0.1448,
      "velocity": 94,
      "chip": "ym2612"
    },
    {
      "channel": 2,
      "note": 68,
      "start": 25.2982,
      "duration": 0.3618,
      "velocity": 127,
      "chip": "ym2612"
    },
    {
      "channel": 0,
      "note": 71,
      "start": 25.5623,
      "duration": 0.5422,
      "velocity": 94,
      "chip": "ym2612"
    },
    {
      "channel": 1,
      "note": 57,
      "start": 25.563,
      "duration": 0.5461,
      "velocity": 95,
      "chip": "ym2612"
    },
    {
      "channel": 3,
      "note": 55,
      "start": 25.5637,
      "duration": 0.5492,
      "velocity": 100,
      "chip": "ym2612"
    },
    {
      "channel": 4,
      "note": 54,
      "start": 25.5644,
      "duration": 0.5523,
      "velocity": 100,
      "chip": "ym2612"
    },
    {
      "channel": 5,
      "note": 52,
      "start": 25.5652,
      "duration": 0.555,
      "velocity": 95,
      "chip": "ym2612"
    },
    {
      "channel": 2,
      "note": 68,
      "start": 25.7109,
      "duration": 0.1208,
      "velocity": 127,
      "chip": "ym2612"
    },
    {
      "channel": 2,
      "note": 68,
      "start": 25.837,
      "duration": 0.1385,
      "velocity": 127,
      "chip": "ym2612"
    },
    {
      "channel": 2,
      "note": 68,
      "start": 25.9808,
      "duration": 0.3616,
      "velocity": 127,
      "chip": "ym2612"
    },
    {
      "channel": 0,
      "note": 52,
      "start": 26.1051,
      "duration": 0.8217,
      "velocity": 94,
      "chip": "ym2612"
    },
    {
      "channel": 1,
      "note": 50,
      "start": 26.1097,
      "duration": 1.6272,
      "velocity": 95,
      "chip": "ym2612"
    },
    {
      "channel": 3,
      "note": 71,
      "start": 26.1135,
      "duration": 1.624,
      "velocity": 100,
      "chip": "ym2612"
    },
    {
      "channel": 4,
      "note": 65,
      "start": 26.1174,
      "duration": 1.6207,
      "velocity": 100,
      "chip": "ym2612"
    },
    {
      "channel": 5,
      "note": 57,
      "start": 26.1208,
      "duration": 1.6179,
      "velocity": 95,
      "chip": "ym2612"
    },
    {
      "channel": 0,
      "note": 52,
      "start": 26.9272,
      "duration": 0.2694,
      "velocity": 94,
      "chip": "ym2612"
    },
    {
      "channel": 0,
      "note": 47,
      "start": 27.1972,
      "duration": 0.1265,
      "velocity": 94,
      "chip": "ym2612"
    },
    {
      "channel": 0,
      "note": 49,
      "start": 27.3256,
      "duration": 0.2837,
      "velocity": 94,
      "chip": "ym2612"
    },
    {
      "channel": 0,
      "note": 50,
      "start": 27.6099,
      "duration": 0.3964,
      "velocity": 94,
      "chip": "ym2612"
    },
    {
      "channel": 1,
      "note": 50,
      "start": 27.7373,
      "duration": 1.0951,
      "velocity": 95,
      "chip": "ym2612"
    },
    {
      "channel": 3,
      "note": 71,
      "start": 27.738,
      "duration": 1.0951,
      "velocity": 100,
      "chip": "ym2612"
    },
    {
      "channel": 4,
      "note": 65,
      "start": 27.7385,
      "duration": 1.0952,
      "velocity": 100,
      "chip": "ym2612"
    },
    {
      "channel": 5,
      "note": 57,
      "start": 27.7391,
      "duration": 1.0952,
      "velocity": 95,
      "chip": "ym2612"
    },
    {
      "channel": 0,
      "note": 52,
      "start": 28.0069,
      "duration": 0.4122,
      "velocity": 94,
      "chip": "ym2612"
    },
    {
      "channel": 0,
      "note": 47,
      "start": 28.4197,
      "duration": 0.4122,
      "velocity": 94,
      "chip": "ym2612"
    },
    {
      "channel": 0,
      "note": 49,
      "start": 28.8324,
      "duration": 0.5394,
      "velocity": 94,
      "chip": "ym2612"
    },
    {
      "channel": 1,
      "note": 50,
      "start": 28.8329,
      "duration": 0.5395,
      "velocity": 95,
      "chip": "ym2612"
    },
    {
      "channel": 3,
      "note": 71,
      "start": 28.8335,
      "duration": 0.5398,
      "velocity": 100,
      "chip": "ym2612"
    },
    {
      "channel": 4,
      "note": 65,
      "start": 28.8341,
      "duration": 0.5412,
      "velocity": 100,
      "chip": "ym2612"
    },
    {
      "channel": 5,
      "note": 57,
      "start": 28.8347,
      "duration": 0.5414,
      "velocity": 95,
      "chip": "ym2612"
    },
    {
      "channel": 0,
      "note": 52,
      "start": 29.3723,
      "duration": 0.8089,
      "velocity": 94,
      "chip": "ym2612"
    },
    {
      "channel": 1,
      "note": 49,
      "start": 29.3731,
      "duration": 1.6359,
      "velocity": 95,
      "chip": "ym2612"
    },
    {
      "channel": 3,
      "note": 71,
      "start": 29.3739,
      "duration": 1.6356,
      "velocity": 100,
      "chip": "ym2612"
    },
    {
      "channel": 4,
      "note": 64,
      "start": 29.376,
      "duration": 1.6341,
      "velocity": 100,
      "chip": "ym2612"
    },
    {
      "channel": 5,
      "note": 56,
      "start": 29.3767,
      "duration": 1.634,
      "velocity": 95,
      "chip": "ym2612"
    },
    {
      "channel": 0,
      "note": 52,
      "start": 30.1817,
      "duration": 0.2853,
      "velocity": 94,
      "chip": "ym2612"
    },
    {
      "channel": 0,
      "note": 54,
      "start": 30.4676,
      "duration": 0.2693,
      "velocity": 94,
      "chip": "ym2612"
    },
    {
      "channel": 0,
      "note": 56,
      "start": 30.7374,
      "duration": 0.2059,
      "velocity": 94,
      "chip": "ym2612"
    },
    {
      "channel": 0,
      "note": 58,
      "start": 30.9438,
      "duration": 0.063,
      "velocity": 94,
      "chip": "ym2612"
    },
    {
      "channel": 0,
      "note": 59,
      "start": 31.0088,
      "duration": 0.4107,
      "velocity": 94,
      "chip": "ym2612"
    },
    {
      "channel": 1,
      "note": 49,
      "start": 31.0094,
      "duration": 1.0776,
      "velocity": 95,
      "chip": "ym2612"
    },
    {
      "channel": 3,
      "note": 71,
      "start": 31.01,
      "duration": 1.0776,
      "velocity": 100,
      "chip": "ym2612"
    },
    {
      "channel": 4,
      "note": 64,
      "start": 31.0106,
      "duration": 1.0776,
      "velocity": 100,
      "chip": "ym2612"
    },
    {
      "channel": 5,
      "note": 56,
      "start": 31.0112,
      "duration": 1.0775,
      "velocity": 95,
      "chip": "ym2612"
    },
    {
      "channel": 0,
      "note": 56,
      "start": 31.42,
      "duration": 0.2694,
      "velocity": 94,
      "chip": "ym2612"
    },
    {
      "channel": 0,
      "note": 54,
      "start": 31.69,
      "duration": 0.1264,
      "velocity": 94,
      "chip": "ym2612"
    },
    {
      "channel": 0,
      "note": 56,
      "start": 32.0868,
      "duration": 0.4122,
      "velocity": 94,
      "chip": "ym2612"
    },
    {
      "channel": 1,
      "note": 49,
      "start": 32.0874,
      "duration": 0.5562,
      "velocity": 95,
      "chip": "ym2612"
    },
    {
      "channel": 3,
      "note": 71,
      "start": 32.088,
      "duration": 0.5565,
      "velocity": 100,
      "chip": "ym2612"
    },
    {
      "channel": 4,
      "note": 64,
      "start": 32.0886,
      "duration": 0.5567,
      "velocity": 100,
      "chip": "ym2612"
    },
    {
      "channel": 5,
      "note": 56,
      "start": 32.0892,
      "duration": 0.5595,
      "velocity": 95,
      "chip": "ym2612"
    },
    {
      "channel": 0,
      "note": 54,
      "start": 32.4996,
      "duration": 0.0629,
      "velocity": 94,
      "chip": "ym2612"
    },
    {
      "channel": 0,
      "note": 53,
      "start": 32.563,
      "duration": 0.0798,
      "velocity": 94,
      "chip": "ym2612"
    },
    {
      "channel": 0,
      "note": 52,
      "start": 32.6434,
      "duration": 0.8081,
      "velocity": 94,
      "chip": "ym2612"
    },
    {
      "channel": 1,
      "note": 50,
      "start": 32.6442,
      "duration": 1.6334,
      "velocity": 95,
      "chip": "ym2612"
    },
    {
      "channel": 3,
      "note": 71,
      "start": 32.645,
      "duration": 1.6332,
      "velocity": 100,
      "chip": "ym2612"
    },
    {
      "channel": 4,
      "note": 65,
      "start": 32.6459,
      "duration": 1.6329,
      "velocity": 100,
      "chip": "ym2612"
    },
    {
      "channel": 5,
      "note": 57,
      "start": 32.6493,
      "duration": 1.6301,
      "velocity": 95,
      "chip": "ym2612"
    },
    {
      "channel": 0,
      "note": 52,
      "start": 33.452,
      "duration": 0.2694,
      "velocity": 94,
      "chip": "ym2612"
    },
    {
      "channel": 0,
      "note": 47,
      "start": 33.722,
      "duration": 0.1424,
      "velocity": 94,
      "chip": "ym2612"
    },
    {
      "channel": 0,
      "note": 49,
      "start": 33.8649,
      "duration": 0.2693,
      "velocity": 94,
      "chip": "ym2612"
    },
    {
      "channel": 0,
      "note": 50,
      "start": 34.1347,
      "duration": 0.4122,
      "velocity": 94,
      "chip": "ym2612"
    },
    {
      "channel": 1,
      "note": 50,
      "start": 34.278,
      "duration": 1.0792,
      "velocity": 95,
      "chip": "ym2612"
    },
    {
      "channel": 3,
      "note": 71,
      "start": 34.2787,
      "duration": 1.0805,
      "velocity": 100,
      "chip": "ym2612"
    },
    {
      "channel": 4,
      "note": 65,
      "start": 34.2793,
      "duration": 1.0805,
      "velocity": 100,
      "chip": "ym2612"
    },
    {
      "channel": 5,
      "note": 57,
      "start": 34.2798,
      "duration": 1.0806,
      "velocity": 95,
      "chip": "ym2612"
    },
    {
      "channel": 0,
      "note": 52,
      "start": 34.5475,
      "duration": 0.3963,
      "velocity": 94,
      "chip": "ym2612"
    },
    {
      "channel": 0,
      "note": 47,
      "start": 34.9443,
      "duration": 0.4122,
      "velocity": 94,
      "chip": "ym2612"
    },
    {
      "channel": 0,
      "note": 49,
      "start": 35.3571,
      "duration": 0.5394,
      "velocity": 94,
      "chip": "ym2612"
    },
    {
      "channel": 1,
      "note": 50,
      "start": 35.3591,
      "duration": 0.5382,
      "velocity": 95,
      "chip": "ym2612"
    },
    {
      "channel": 3,
      "note": 71,
      "start": 35.3597,
      "duration": 0.5385,
      "velocity": 100,
      "chip": "ym2612"
    },
    {
      "channel": 4,
      "note": 65,
      "start": 35.3602,
      "duration": 0.5387,
      "velocity": 100,
      "chip": "ym2612"
    },
    {
      "channel": 5,
      "note": 57,
      "start": 35.3609,
      "duration": 0.5388,
      "velocity": 95,
      "chip": "ym2612"
    },
    {
      "channel": 0,
      "note": 52,
      "start": 35.8972,
      "duration": 0.8247,
      "velocity": 94,
      "chip": "ym2612"
    },
    {
      "channel": 1,
      "note": 49,
      "start": 35.8979,
      "duration": 1.6346,
      "velocity": 95,
      "chip": "ym2612"
    },
    {
      "channel": 3,
      "note": 71,
      "start": 35.8988,
      "duration": 1.6343,
      "velocity": 100,
      "chip": "ym2612"
    },
    {
      "channel": 4,
      "note": 64,
      "start": 35.8995,
      "duration": 1.6342,
      "velocity": 100,
      "chip": "ym2612"
    },
    {
      "channel": 5,
      "note": 56,
      "start": 35.9002,
      "duration": 1.634,
      "velocity": 95,
      "chip": "ym2612"
    },
    {
      "channel": 0,
      "note": 52,
      "start": 36.7223,
      "duration": 0.2702,
      "velocity": 94,
      "chip": "ym2612"
    },
    {
      "channel": 0,
      "note": 54,
      "start": 36.9931,
      "duration": 0.2685,
      "velocity": 94,
      "chip": "ym2612"
    },
    {
      "channel": 0,
      "note": 56,
      "start": 37.2622,
      "duration": 0.2058,
      "velocity": 94,
      "chip": "ym2612"
    },
    {
      "channel": 0,
      "note": 58,
      "start": 37.4686,
      "duration": 0.0631,
      "velocity": 94,
      "chip": "ym2612"
    },
    {
      "channel": 0,
      "note": 59,
      "start": 37.5323,
      "duration": 0.4123,
      "velocity": 94,
      "chip": "ym2612"
    },
    {
      "channel": 1,
      "note": 49,
      "start": 37.5329,
      "duration": 1.0971,
      "velocity": 95,
      "chip": "ym2612"
    },
    {
      "channel": 3,
      "note": 71,
      "start": 37.5335,
      "duration": 1.0971,
      "velocity": 100,
      "chip": "ym2612"
    },
    {
      "channel": 4,
      "note": 64,
      "start": 37.5341,
      "duration": 1.0971,
      "velocity": 100,
      "chip": "ym2612"
    },
    {
      "channel": 5,
      "note": 56,
      "start": 37.5347,
      "duration": 1.0971,
      "velocity": 95,
      "chip": "ym2612"
    },
    {
      "channel": 0,
      "note": 56,
      "start": 37.9452,
      "duration": 0.2691,
      "velocity": 94,
      "chip": "ym2612"
    },
    {
      "channel": 0,
      "note": 61,
      "start": 38.2148,
      "duration": 0.9547,
      "velocity": 94,
      "chip": "ym2612"
    },
    {
      "channel": 2,
      "note": 68,
      "start": 38.4893,
      "duration": 0.1377,
      "velocity": 127,
      "chip": "ym2612"
    },
    {
      "channel": 1,
      "note": 49,
      "start": 38.6305,
      "duration": 0.5423,
      "velocity": 94,
      "chip": "ym2612"
    },
    {
      "channel": 3,
      "note": 71,
      "start": 38.631,
      "duration": 0.5469,
      "velocity": 94,
      "chip": "ym2612"
    },
    {
      "channel": 4,
      "note": 64,
      "start": 38.6317,
      "duration": 0.5501,
      "velocity": 94,
      "chip": "ym2612"
    },
    {
      "channel": 5,
      "note": 56,
      "start": 38.6322,
      "duration": 0.553,
      "velocity": 104,
      "chip": "ym2612"
    },
    {
      "channel": 2,
      "note": 68,
      "start": 38.6331,
      "duration": 0.1207,
      "velocity": 127,
      "chip": "ym2612"
    },
    {
      "channel": 2,
      "note": 68,
      "start": 38.7604,
      "duration": 0.1363,
      "velocity": 127,
      "chip": "ym2612"
    },
    {
      "channel": 2,
      "note": 68,
      "start": 38.902,
      "duration": 0.1375,
      "velocity": 127,
      "chip": "ym2612"
    },
    {
      "channel": 2,
      "note": 68,
      "start": 39.0461,
      "duration": 0.1206,
      "velocity": 127,
      "chip": "ym2612"
    },
    {
      "channel": 0,
      "note": 56,
      "start": 39.1701,
      "duration": 1.6349,
      "velocity": 94,
      "chip": "ym2612"
    },
    {
      "channel": 1,
      "note": 54,
      "start": 39.1734,
      "duration": 0.2662,
      "velocity": 94,
      "chip": "ym2612"
    },
    {
      "channel": 3,
      "note": 52,
      "start": 39.1785,
      "duration": 0.8181,
      "velocity": 94,
      "chip": "ym2612"
    },
    {
      "channel": 4,
      "note": 49,
      "start": 39.1823,
      "duration": 0.8146,
      "velocity": 94,
      "chip": "ym2612"
    },
    {
      "channel": 2,
      "note": 68,
      "start": 39.1863,
      "duration": 0.2502,
      "velocity": 127,
      "chip": "ym2612"
    },
    {
      "channel": 1,
      "note": 54,
      "start": 39.4401,
      "duration": 0.1424,
      "velocity": 94,
      "chip": "ym2612"
    },
    {
      "channel": 2,
      "note": 68,
      "start": 39.443,
      "duration": 0.1364,
      "velocity": 127,
      "chip": "ym2612"
    },
    {
      "channel": 1,
      "note": 56,
      "start": 39.5831,
      "duration": 0.1237,
      "velocity": 94,
      "chip": "ym2612"
    },
    {
      "channel": 2,
      "note": 75,
      "start": 39.5848,
      "duration": 0.2661,
      "velocity": 120,
      "chip": "ym2612"
    },
    {
      "channel": 1,
      "note": 57,
      "start": 39.9965,
      "duration": 0.1231,
      "velocity": 94,
      "chip": "ym2612"
    },
    {
      "channel": 2,
      "note": 68,
      "start": 39.9981,
      "duration": 0.2639,
      "velocity": 127,
      "chip": "ym2612"
    },
    {
      "channel": 2,
      "note": 68,
      "start": 40.2665,
      "duration": 0.1226,
      "velocity": 127,
      "chip": "ym2612"
    },
    {
      "channel": 1,
      "note": 59,
      "start": 40.3941,
      "duration": 0.1381,
      "velocity": 94,
      "chip": "ym2612"
    },
    {
      "channel": 5,
      "note": 61,
      "start": 40.3952,
      "duration": 0.0742,
      "velocity": 104,
      "chip": "ym2612"
    },
    {
      "channel": 2,
      "note": 75,
      "start": 40.396,
      "duration": 0.2655,
      "velocity": 120,
      "chip": "ym2612"
    },
    {
      "channel": 5,
      "note": 64,
      "start": 40.47,
      "duration": 0.0627,
      "velocity": 104,
      "chip": "ym2612"
    },
    {
      "channel": 5,
      "note": 66,
      "start": 40.5334,
      "duration": 0.0626,
      "velocity": 104,
      "chip": "ym2612"
    },
    {
      "channel": 5,
      "note": 68,
      "start": 40.5966,
      "duration": 0.0639,
      "velocity": 104,
      "chip": "ym2612"
    },
    {
      "channel": 1,
      "note": 54,
      "start": 40.6602,
      "duration": 0.4163,
      "velocity": 94,
      "chip": "ym2612"
    },
    {
      "channel": 5,
      "note": 73,
      "start": 40.6612,
      "duration": 0.078,
      "velocity": 104,
      "chip": "ym2612"
    },
    {
      "channel": 5,
      "note": 75,
      "start": 40.7398,
      "duration": 0.0688,
      "velocity": 104,
      "chip": "ym2612"
    },
    {
      "channel": 0,
      "note": 56,
      "start": 40.8054,
      "duration": 0.2704,
      "velocity": 94,
      "chip": "ym2612"
    },
    {
      "channel": 3,
      "note": 52,
      "start": 40.8065,
      "duration": 0.2708,
      "velocity": 94,
      "chip": "ym2612"
    },
    {
      "channel": 4,
      "note": 49,
      "start": 40.8072,
      "duration": 0.2708,
      "velocity": 94,
      "chip": "ym2612"
    },
    {
      "channel": 5,
      "note": 80,
      "start": 40.8093,
      "duration": 1.3599,
      "velocity": 104,
      "chip": "ym2612"
    },
    {
      "channel": 2,
      "note": 68,
      "start": 40.8102,
      "duration": 0.2615,
      "velocity": 127,
      "chip": "ym2612"
    },
    {
      "channel": 0,
      "note": 57,
      "start": 41.0763,
      "duration": 0.2661,
      "velocity": 94,
      "chip": "ym2612"
    },
    {
      "channel": 1,
      "note": 54,
      "start": 41.077,
      "duration": 0.1406,
      "velocity": 94,
      "chip": "ym2612"
    },
    {
      "channel": 3,
      "note": 52,
      "start": 41.0777,
      "duration": 0.2658,
      "velocity": 94,
      "chip": "ym2612"
    },
    {
      "channel": 4,
      "note": 49,
      "start": 41.0784,
      "duration": 0.2656,
      "velocity": 94,
      "chip": "ym2612"
    },
    {
      "channel": 2,
      "note": 68,
      "start": 41.0798,
      "duration": 0.1347,
      "velocity": 127,
      "chip": "ym2612"
    },
    {
      "channel": 1,
      "note": 56,
      "start": 41.2182,
      "duration": 0.125,
      "velocity": 94,
      "chip": "ym2612"
    },
    {
      "channel": 2,
      "note": 75,
      "start": 41.2203,
      "duration": 0.2662,
      "velocity": 120,
      "chip": "ym2612"
    },
    {
      "channel": 0,
      "note": 59,
      "start": 41.343,
      "duration": 0.2715,
      "velocity": 94,
      "chip": "ym2612"
    },
    {
      "channel": 3,
      "note": 52,
      "start": 41.3439,
      "duration": 0.272,
      "velocity": 94,
      "chip": "ym2612"
    },
    {
      "channel": 4,
      "note": 49,
      "start": 41.3445,
      "duration": 0.2721,
      "velocity": 94,
      "chip": "ym2612"
    },
    {
      "channel": 0,
      "note": 61,
      "start": 41.6151,
      "duration": 0.2849,
      "velocity": 94,
      "chip": "ym2612"
    },
    {
      "channel": 1,
      "note": 57,
      "start": 41.6158,
      "duration": 0.1389,
      "velocity": 94,
      "chip": "ym2612"
    },
    {
      "channel": 3,
      "note": 52,
      "start": 41.6164,
      "duration": 0.2846,
      "velocity": 94,
      "chip": "ym2612"
    },
    {
      "channel": 4,
      "note": 49,
      "start": 41.6171,
      "duration": 0.2845,
      "velocity": 94,
      "chip": "ym2612"
    },
    {
      "channel": 2,
      "note": 68,
      "start": 41.6183,
      "duration": 0.2789,
      "velocity": 127,
      "chip": "ym2612"
    },
    {
      "channel": 0,
      "note": 59,
      "start": 41.9006,
      "duration": 0.2665,
      "velocity": 94,
      "chip": "ym2612"
    },
    {
      "channel": 3,
      "note": 52,
      "start": 41.9015,
      "duration": 0.2667,
      "velocity": 94,
      "chip": "ym2612"
    },
    {
      "channel": 4,
      "note": 49,
      "start": 41.902,
      "duration": 0.2667,
      "velocity": 94,
      "chip": "ym2612"
    },
    {
      "channel": 2,
      "note": 68,
      "start": 41.9034,
      "duration": 0.1222,
      "velocity": 127,
      "chip": "ym2612"
    },
    {
      "channel": 1,
      "note": 59,
      "start": 42.0293,
      "duration": 0.1385,
      "velocity": 94,
      "chip": "ym2612"
    },
    {
      "channel": 2,
      "note": 75,
      "start": 42.0314,
      "duration": 0.2655,
      "velocity": 120,
      "chip": "ym2612"
    },
    {
      "channel": 0,
      "note": 57,
      "start": 42.1676,
      "duration": 0.2724,
      "velocity": 94,
      "chip": "ym2612"
    },
    {
      "channel": 3,
      "note": 52,
      "start": 42.1686,
      "duration": 0.2739,
      "velocity": 94,
      "chip": "ym2612"
    },
    {
      "channel": 4,
      "note": 49,
      "start": 42.1691,
      "duration": 0.2739,
      "velocity": 94,
      "chip": "ym2612"
    },
    {
      "channel": 5,
      "note": 73,
      "start": 42.17,
      "duration": 0.126,
      "velocity": 104,
      "chip": "ym2612"
    },
    {
      "channel": 1,
      "note": 54,
      "start": 42.2951,
      "duration": 0.4162,
      "velocity": 94,
      "chip": "ym2612"
    },
    {
      "channel": 5,
      "note": 76,
      "start": 42.2966,
      "duration": 1.7827,
      "velocity": 104,
      "chip": "ym2612"
    },
    {
      "channel": 0,
      "note": 56,
      "start": 42.4406,
      "duration": 0.5362,
      "velocity": 94,
      "chip": "ym2612"
    },
    {
      "channel": 3,
      "note": 52,
      "start": 42.4429,
      "duration": 0.535,
      "velocity": 94,
      "chip": "ym2612"
    },
    {
      "channel": 4,
      "note": 49,
      "start": 42.4434,
      "duration": 0.535,
      "velocity": 94,
      "chip": "ym2612"
    },
    {
      "channel": 2,
      "note": 68,
      "start": 42.4448,
      "duration": 0.262,
      "velocity": 127,
      "chip": "ym2612"
    },
    {
      "channel": 1,
      "note": 54,
      "start": 42.7118,
      "duration": 0.1411,
      "velocity": 94,
      "chip": "ym2612"
    },
    {
      "channel": 2,
      "note": 68,
      "start": 42.7138,
      "duration": 0.1359,
      "velocity": 127,
      "chip": "ym2612"
    },
    {
      "channel": 1,
      "note": 56,
      "start": 42.8534,
      "duration": 0.1241,
      "velocity": 94,
      "chip": "ym2612"
    },
    {
      "channel": 2,
      "note": 75,
      "start": 42.8555,
      "duration": 0.2669,
      "velocity": 120,
      "chip": "ym2612"
    },
    {
      "channel": 0,
      "note": 57,
      "start": 42.9773,
      "duration": 0.1424,
      "velocity": 94,
      "chip": "ym2612"
    },
    {
      "channel": 3,
      "note": 52,
      "start": 42.9783,
      "duration": 0.1424,
      "velocity": 94,
      "chip": "ym2612"
    },
    {
      "channel": 4,
      "note": 49,
      "start": 42.9789,
      "duration": 0.1425,
      "velocity": 94,
      "chip": "ym2612"
    },
    {
      "channel": 0,
      "note": 54,
      "start": 43.1203,
      "duration": 0.1294,
      "velocity": 94,
      "chip": "ym2612"
    },
    {
      "channel": 3,
      "note": 52,
      "start": 43.1212,
      "duration": 0.13,
      "velocity": 94,
      "chip": "ym2612"
    },
    {
      "channel": 4,
      "note": 49,
      "start": 43.1218,
      "duration": 0.1299,
      "velocity": 94,
      "chip": "ym2612"
    },
    {
      "channel": 0,
      "note": 56,
      "start": 43.2502,
      "duration": 0.6791,
      "velocity": 94,
      "chip": "ym2612"
    },
    {
      "channel": 1,
      "note": 57,
      "start": 43.251,
      "duration": 0.1388,
      "velocity": 94,
      "chip": "ym2612"
    },
    {
      "channel": 3,
      "note": 52,
      "start": 43.2516,
      "duration": 0.4116,
      "velocity": 94,
      "chip": "ym2612"
    },
    {
      "channel": 4,
      "note": 49,
      "start": 43.2522,
      "duration": 0.4114,
      "velocity": 94,
      "chip": "ym2612"
    },
    {
      "channel": 2,
      "note": 68,
      "start": 43.2535,
      "duration": 0.263,
      "velocity": 127,
      "chip": "ym2612"
    },
    {
      "channel": 2,
      "note": 68,
      "start": 43.5218,
      "duration": 0.1375,
      "velocity": 127,
      "chip": "ym2612"
    },
    {
      "channel": 1,
      "note": 59,
      "start": 43.6631,
      "duration": 0.1396,
      "velocity": 94,
      "chip": "ym2612"
    },
    {
      "channel": 2,
      "note": 75,
      "start": 43.6651,
      "duration": 0.2664,
      "velocity": 120,
      "chip": "ym2612"
    },
    {
      "channel": 0,
      "note": 54,
      "start": 43.9299,
      "duration": 0.0629,
      "velocity": 94,
      "chip": "ym2612"
    },
    {
      "channel": 1,
      "note": 54,
      "start": 43.9307,
      "duration": 0.415,
      "velocity": 94,
      "chip": "ym2612"
    },
    {
      "channel": 0,
      "note": 53,
      "start": 43.9934,
      "duration": 0.0832,
      "velocity": 94,
      "chip": "ym2612"
    },
    {
      "channel": 0,
      "note": 52,
      "start": 44.0772,
      "duration": 0.8076,
      "velocity": 94,
      "chip": "ym2612"
    },
    {
      "channel": 3,
      "note": 52,
      "start": 44.0783,
      "duration": 0.3945,
      "velocity": 94,
      "chip": "ym2612"
    },
    {
      "channel": 4,
      "note": 49,
      "start": 44.0791,
      "duration": 0.394,
      "velocity": 94,
      "chip": "ym2612"
    },
    {
      "channel": 5,
      "note": 76,
      "start": 44.0798,
      "duration": 0.8079,
      "velocity": 104,
      "chip": "ym2612"
    },
    {
      "channel": 2,
      "note": 68,
      "start": 44.0807,
      "duration": 0.2618,
      "velocity": 127,
      "chip": "ym2612"
    },
    {
      "channel": 1,
      "note": 54,
      "start": 44.3461,
      "duration": 0.1259,
      "velocity": 94,
      "chip": "ym2612"
    },
    {
      "channel": 2,
      "note": 68,
      "start": 44.3481,
      "duration": 0.1209,
      "velocity": 127,
      "chip": "ym2612"
    },
    {
      "channel": 1,
      "note": 56,
      "start": 44.4727,
      "duration": 0.1396,
      "velocity": 94,
      "chip": "ym2612"
    },
    {
      "channel": 2,
      "note": 75,
      "start": 44.4759,
      "duration": 0.2803,
      "velocity": 120,
      "chip": "ym2612"
    },
    {
      "channel": 0,
      "note": 49,
      "start": 44.8854,
      "duration": 0.1408,
      "velocity": 94,
      "chip": "ym2612"
    },
    {
      "channel": 1,
      "note": 57,
      "start": 44.8861,
      "duration": 0.1408,
      "velocity": 94,
      "chip": "ym2612"
    },
    {
      "channel": 3,
      "note": 44,
      "start": 44.8868,
      "duration": 0.1404,
      "velocity": 94,
      "chip": "ym2612"
    },
    {
      "channel": 4,
      "note": 40,
      "start": 44.8876,
      "duration": 0.1404,
      "velocity": 94,
      "chip": "ym2612"
    },
    {
      "channel": 2,
      "note": 68,
      "start": 44.8887,
      "duration": 0.2629,
      "velocity": 127,
      "chip": "ym2612"
    },
    {
      "channel": 0,
      "note": 51,
      "start": 45.0268,
      "duration": 0.1276,
      "velocity": 94,
      "chip": "ym2612"
    },
    {
      "channel": 3,
      "note": 45,
      "start": 45.0278,
      "duration": 0.1277,
      "velocity": 94,
      "chip": "ym2612"
    },
    {
      "channel": 4,
      "note": 41,
      "start": 45.0285,
      "duration": 0.1276,
      "velocity": 94,
      "chip": "ym2612"
    },
    {
      "channel": 0,
      "note": 52,
      "start": 45.155,
      "duration": 0.1424,
      "velocity": 94,
      "chip": "ym2612"
    },
    {
      "channel": 3,
      "note": 46,
      "start": 45.156,
      "duration": 0.1428,
      "velocity": 94,
      "chip": "ym2612"
    },
    {
      "channel": 4,
      "note": 42,
      "start": 45.1567,
      "duration": 0.1427,
      "velocity": 94,
      "chip": "ym2612"
    },
    {
      "channel": 2,
      "note": 68,
      "start": 45.159,
      "duration": 0.1354,
      "velocity": 127,
      "chip": "ym2612"
    },
    {
      "channel": 0,
      "note": 54,
      "start": 45.2979,
      "duration": 0.1237,
      "velocity": 94,
      "chip": "ym2612"
    },
    {
      "channel": 1,
      "note": 59,
      "start": 45.2986,
      "duration": 0.1237,
      "velocity": 94,
      "chip": "ym2612"
    },
    {
      "channel": 3,
      "note": 47,
      "start": 45.2994,
      "duration": 0.1232,
      "velocity": 94,
      "chip": "ym2612"
    },
    {
      "channel": 4,
      "note": 43,
      "start": 45.3001,
      "duration": 0.1232,
      "velocity": 94,
      "chip": "ym2612"
    },
    {
      "channel": 2,
      "note": 75,
      "start": 45.301,
      "duration": 0.2666,
      "velocity": 120,
      "chip": "ym2612"
    },
    {
      "channel": 0,
      "note": 55,
      "start": 45.4221,
      "duration": 0.1424,
      "velocity": 94,
      "chip": "ym2612"
    },
    {
      "channel": 3,
      "note": 48,
      "start": 45.4232,
      "duration": 0.1429,
      "velocity": 94,
      "chip": "ym2612"
    },
    {
      "channel": 4,
      "note": 44,
      "start": 45.4239,
      "duration": 0.1429,
      "velocity": 94,
      "chip": "ym2612"
    },
    {
      "channel": 0,
      "note": 56,
      "start": 45.5651,
      "duration": 1.7646,
      "velocity": 94,
      "chip": "ym2612"
    },
    {
      "channel": 1,
      "note": 54,
      "start": 45.5658,
      "duration": 0.4146,
      "velocity": 94,
      "chip": "ym2612"
    },
    {
      "channel": 3,
      "note": 49,
      "start": 45.5666,
      "duration": 0.9544,
      "velocity": 94,
      "chip": "ym2612"
    },
    {
      "channel": 4,
      "note": 45,
      "start": 45.5673,
      "duration": 0.954,
      "velocity": 94,
      "chip": "ym2612"
    },
    {
      "channel": 2,
      "note": 68,
      "start": 45.7141,
      "duration": 0.263,
      "velocity": 127,
      "chip": "ym2612"
    },
    {
      "channel": 1,
      "note": 54,
      "start": 45.9808,
      "duration": 0.1265,
      "velocity": 94,
      "chip": "ym2612"
    },
    {
      "channel": 2,
      "note": 68,
      "start": 45.9825,
      "duration": 0.1216,
      "velocity": 127,
      "chip": "ym2612"
    },
    {
      "channel": 1,
      "note": 56,
      "start": 46.1092,
      "duration": 0.1382,
      "velocity": 94,
      "chip": "ym2612"
    },
    {
      "channel": 2,
      "note": 75,
      "start": 46.1109,
      "duration": 0.2661,
      "velocity": 120,
      "chip": "ym2612"
    },
    {
      "channel": 1,
      "note": 57,
      "start": 46.5209,
      "duration": 0.1393,
      "velocity": 94,
      "chip": "ym2612"
    },
    {
      "channel": 5,
      "note": 80,
      "start": 46.5223,
      "duration": 0.1383,
      "velocity": 104,
      "chip": "ym2612"
    },
    {
      "channel": 2,
      "note": 68,
      "start": 46.5232,
      "duration": 0.2635,
      "velocity": 127,
      "chip": "ym2612"
    },
    {
      "channel": 5,
      "note": 81,
      "start": 46.6613,
      "duration": 0.1291,
      "velocity": 104,
      "chip": "ym2612"
    },
    {
      "channel": 5,
      "note": 83,
      "start": 46.7925,
      "duration": 0.1412,
      "velocity": 104,
      "chip": "ym2612"
    },
    {
      "channel": 2,
      "note": 68,
      "start": 46.7933,
      "duration": 0.1363,
      "velocity": 127,
      "chip": "ym2612"
    },
    {
      "channel": 1,
      "note": 59,
      "start": 46.9334,
      "duration": 0.1237,
      "velocity": 94,
      "chip": "ym2612"
    },
    {
      "channel": 5,
      "note": 92,
      "start": 46.9344,
      "duration": 0.1245,
      "velocity": 104,
      "chip": "ym2612"
    },
    {
      "channel": 2,
      "note": 75,
      "start": 46.9352,
      "duration": 0.2666,
      "velocity": 120,
      "chip": "ym2612"
    },
    {
      "channel": 5,
      "note": 91,
      "start": 47.0596,
      "duration": 0.1414,
      "velocity": 104,
      "chip": "ym2612"
    },
    {
      "channel": 1,
      "note": 54,
      "start": 47.2006,
      "duration": 0.4153,
      "velocity": 94,
      "chip": "ym2612"
    },
    {
      "channel": 5,
      "note": 90,
      "start": 47.2017,
      "duration": 1.2267,
      "velocity": 104,
      "chip": "ym2612"
    },
    {
      "channel": 0,
      "note": 56,
      "start": 47.3302,
      "duration": 0.2849,
      "velocity": 94,
      "chip": "ym2612"
    },
    {
      "channel": 3,
      "note": 52,
      "start": 47.3312,
      "duration": 0.2854,
      "velocity": 94,
      "chip": "ym2612"
    },
    {
      "channel": 4,
      "note": 49,
      "start": 47.332,
      "duration": 0.2853,
      "velocity": 94,
      "chip": "ym2612"
    },
    {
      "channel": 2,
      "note": 68,
      "start": 47.3332,
      "duration": 0.2791,
      "velocity": 127,
      "chip": "ym2612"
    },
    {
      "channel": 0,
      "note": 57,
      "start": 47.6156,
      "duration": 0.2665,
      "velocity": 94,
      "chip": "ym2612"
    },
    {
      "channel": 1,
      "note": 54,
      "start": 47.6163,
      "duration": 0.1273,
      "velocity": 94,
      "chip": "ym2612"
    },
    {
      "channel": 3,
      "note": 52,
      "start": 47.6171,
      "duration": 0.2662,
      "velocity": 94,
      "chip": "ym2612"
    },
    {
      "channel": 4,
      "note": 49,
      "start": 47.6178,
      "duration": 0.2661,
      "velocity": 94,
      "chip": "ym2612"
    },
    {
      "channel": 2,
      "note": 68,
      "start": 47.6191,
      "duration": 0.1202,
      "velocity": 127,
      "chip": "ym2612"
    },
    {
      "channel": 1,
      "note": 56,
      "start": 47.7443,
      "duration": 0.1387,
      "velocity": 94,
      "chip": "ym2612"
    },
    {
      "channel": 2,
      "note": 75,
      "start": 47.7464,
      "duration": 0.2648,
      "velocity": 120,
      "chip": "ym2612"
    },
    {
      "channel": 0,
      "note": 59,
      "start": 47.8828,
      "duration": 0.2724,
      "velocity": 94,
      "chip": "ym2612"
    },
    {
      "channel": 3,
      "note": 52,
      "start": 47.8837,
      "duration": 0.2729,
      "velocity": 94,
      "chip": "ym2612"
    },
    {
      "channel": 4,
      "note": 49,
      "start": 47.8843,
      "duration": 0.273,
      "velocity": 94,
      "chip": "ym2612"
    },
    {
      "channel": 0,
      "note": 61,
      "start": 48.1558,
      "duration": 0.2704,
      "velocity": 94,
      "chip": "ym2612"
    },
    {
      "channel": 1,
      "note": 57,
      "start": 48.1565,
      "duration": 0.123,
      "velocity": 94,
      "chip": "ym2612"
    },
    {
      "channel": 3,
      "note": 52,
      "start": 48.1571,
      "duration": 0.2701,
      "velocity": 94,
      "chip": "ym2612"
    },
    {
      "channel": 4,
      "note": 49,
      "start": 48.1591,
      "duration": 0.2687,
      "velocity": 94,
      "chip": "ym2612"
    },
    {
      "channel": 2,
      "note": 68,
      "start": 48.1604,
      "duration": 0.2616,
      "velocity": 127,
      "chip": "ym2612"
    },
    {
      "channel": 0,
      "note": 59,
      "start": 48.4267,
      "duration": 0.2659,
      "velocity": 94,
      "chip": "ym2612"
    },
    {
      "channel": 3,
      "note": 52,
      "start": 48.4277,
      "duration": 0.266,
      "velocity": 94,
      "chip": "ym2612"
    },
    {
      "channel": 4,
      "note": 49,
      "start": 48.4282,
      "duration": 0.266,
      "velocity": 94,
      "chip": "ym2612"
    },
    {
      "channel": 2,
      "note": 68,
      "start": 48.4295,
      "duration": 0.1354,
      "velocity": 127,
      "chip": "ym2612"
    },
    {
      "channel": 1,
      "note": 59,
      "start": 48.5686,
      "duration": 0.1247,
      "velocity": 94,
      "chip": "ym2612"
    },
    {
      "channel": 2,
      "note": 75,
      "start": 48.5702,
      "duration": 0.2669,
      "velocity": 120,
      "chip": "ym2612"
    },
    {
      "channel": 0,
      "note": 57,
      "start": 48.6931,
      "duration": 0.2719,
      "velocity": 94,
      "chip": "ym2612"
    },
    {
      "channel": 3,
      "note": 52,
      "start": 48.6941,
      "duration": 0.272,
      "velocity": 94,
      "chip": "ym2612"
    },
    {
      "channel": 4,
      "note": 49,
      "start": 48.6946,
      "duration": 0.272,
      "velocity": 94,
      "chip": "ym2612"
    },
    {
      "channel": 5,
      "note": 88,
      "start": 48.6955,
      "duration": 0.2718,
      "velocity": 104,
      "chip": "ym2612"
    },
    {
      "channel": 1,
      "note": 54,
      "start": 48.8358,
      "duration": 0.399,
      "velocity": 94,
      "chip": "ym2612"
    },
    {
      "channel": 0,
      "note": 56,
      "start": 48.9656,
      "duration": 0.5519,
      "velocity": 94,
      "chip": "ym2612"
    },
    {
      "channel": 3,
      "note": 52,
      "start": 48.9665,
      "duration": 0.552,
      "velocity": 94,
      "chip": "ym2612"
    },
    {
      "channel": 4,
      "note": 49,
      "start": 48.9671,
      "duration": 0.552,
      "velocity": 94,
      "chip": "ym2612"
    },
    {
      "channel": 5,
      "note": 87,
      "start": 48.968,
      "duration": 0.138,
      "velocity": 104,
      "chip": "ym2612"
    },
    {
      "channel": 2,
      "note": 68,
      "start": 48.9688,
      "duration": 0.2627,
      "velocity": 127,
      "chip": "ym2612"
    },
    {
      "channel": 1,
      "note": 54,
      "start": 49.2352,
      "duration": 0.1437,
      "velocity": 94,
      "chip": "ym2612"
    },
    {
      "channel": 5,
      "note": 88,
      "start": 49.2368,
      "duration": 0.283,
      "velocity": 104,
      "chip": "ym2612"
    },
    {
      "channel": 2,
      "note": 68,
      "start": 49.2376,
      "duration": 0.1382,
      "velocity": 127,
      "chip": "ym2612"
    },
    {
      "channel": 1,
      "note": 56,
      "start": 49.3795,
      "duration": 0.1388,
      "velocity": 94,
      "chip": "ym2612"
    },
    {
      "channel": 2,
      "note": 75,
      "start": 49.3815,
      "duration": 0.2656,
      "velocity": 120,
      "chip": "ym2612"
    },
    {
      "channel": 0,
      "note": 57,
      "start": 49.5181,
      "duration": 0.1265,
      "velocity": 94,
      "chip": "ym2612"
    },
    {
      "channel": 3,
      "note": 52,
      "start": 49.519,
      "duration": 0.1265,
      "velocity": 94,
      "chip": "ym2612"
    },
    {
      "channel": 4,
      "note": 49,
      "start": 49.5196,
      "duration": 0.1266,
      "velocity": 94,
      "chip": "ym2612"
    },
    {
      "channel": 5,
      "note": 87,
      "start": 49.5204,
      "duration": 0.1263,
      "velocity": 104,
      "chip": "ym2612"
    },
    {
      "channel": 0,
      "note": 54,
      "start": 49.6451,
      "duration": 0.1452,
      "velocity": 94,
      "chip": "ym2612"
    },
    {
      "channel": 3,
      "note": 52,
      "start": 49.646,
      "duration": 0.1472,
      "velocity": 94,
      "chip": "ym2612"
    },
    {
      "channel": 4,
      "note": 49,
      "start": 49.6466,
      "duration": 0.1471,
      "velocity": 94,
      "chip": "ym2612"
    },
    {
      "channel": 0,
      "note": 56,
      "start": 49.7923,
      "duration": 0.6778,
      "velocity": 94,
      "chip": "ym2612"
    },
    {
      "channel": 1,
      "note": 57,
      "start": 49.793,
      "duration": 0.1216,
      "velocity": 94,
      "chip": "ym2612"
    },
    {
      "channel": 3,
      "note": 52,
      "start": 49.7936,
      "duration": 0.3944,
      "velocity": 94,
      "chip": "ym2612"
    },
    {
      "channel": 4,
      "note": 49,
      "start": 49.7942,
      "duration": 0.3941,
      "velocity": 94,
      "chip": "ym2612"
    },
    {
      "channel": 5,
      "note": 88,
      "start": 49.795,
      "duration": 0.2679,
      "velocity": 104,
      "chip": "ym2612"
    },
    {
      "channel": 2,
      "note": 68,
      "start": 49.7959,
      "duration": 0.2629,
      "velocity": 127,
      "chip": "ym2612"
    },
    {
      "channel": 5,
      "note": 87,
      "start": 50.0637,
      "duration": 0.1249,
      "velocity": 104,
      "chip": "ym2612"
    },
    {
      "channel": 2,
      "note": 68,
      "start": 50.0645,
      "duration": 0.1196,
      "velocity": 127,
      "chip": "ym2612"
    },
    {
      "channel": 1,
      "note": 59,
      "start": 50.1878,
      "duration": 0.1395,
      "velocity": 94,
      "chip": "ym2612"
    },
    {
      "channel": 2,
      "note": 75,
      "start": 50.1896,
      "duration": 0.2825,
      "velocity": 120,
      "chip": "ym2612"
    },
    {
      "channel": 5,
      "note": 90,
      "start": 50.3285,
      "duration": 1.7637,
      "velocity": 104,
      "chip": "ym2612"
    },
    {
      "channel": 0,
      "note": 54,
      "start": 50.4706,
      "duration": 0.0628,
      "velocity": 94,
      "chip": "ym2612"
    },
    {
      "channel": 1,
      "note": 54,
      "start": 50.4713,
      "duration": 0.3987,
      "velocity": 94,
      "chip": "ym2612"
    },
    {
      "channel": 0,
      "note": 53,
      "start": 50.534,
      "duration": 0.066,
      "velocity": 94,
      "chip": "ym2612"
    },
    {
      "channel": 0,
      "note": 52,
      "start": 50.6006,
      "duration": 1.6375,
      "velocity": 106,
      "chip": "ym2612"
    },
    {
      "channel": 3,
      "note": 52,
      "start": 50.6018,
      "duration": 0.8261,
      "velocity": 94,
      "chip": "ym2612"
    },
    {
      "channel": 4,
      "note": 49,
      "start": 50.6026,
      "duration": 0.8256,
      "velocity": 94,
      "chip": "ym2612"
    },
    {
      "channel": 2,
      "note": 68,
      "start": 50.6039,
      "duration": 0.2629,
      "velocity": 127,
      "chip": "ym2612"
    },
    {
      "channel": 1,
      "note": 54,
      "start": 50.8705,
      "duration": 0.1423,
      "velocity": 94,
      "chip": "ym2612"
    },
    {
      "channel": 2,
      "note": 68,
      "start": 50.8724,
      "duration": 0.1372,
      "velocity": 127,
      "chip": "ym2612"
    },
    {
      "channel": 1,
      "note": 56,
      "start": 51.0134,
      "duration": 0.1236,
      "velocity": 94,
      "chip": "ym2612"
    },
    {
      "channel": 2,
      "note": 75,
      "start": 51.0155,
      "duration": 0.2661,
      "velocity": 120,
      "chip": "ym2612"
    },
    {
      "channel": 1,
      "note": 57,
      "start": 51.4278,
      "duration": 0.122,
      "velocity": 94,
      "chip": "ym2612"
    },
    {
      "channel": 2,
      "note": 68,
      "start": 51.4297,
      "duration": 0.2631,
      "velocity": 127,
      "chip": "ym2612"
    },
    {
      "channel": 2,
      "note": 68,
      "start": 51.6976,
      "duration": 0.1217,
      "velocity": 127,
      "chip": "ym2612"
    },
    {
      "channel": 1,
      "note": 59,
      "start": 51.823,
      "duration": 0.1395,
      "velocity": 94,
      "chip": "ym2612"
    },
    {
      "channel": 2,
      "note": 75,
      "start": 51.8259,
      "duration": 0.2673,
      "velocity": 120,
      "chip": "ym2612"
    },
    {
      "channel": 1,
      "note": 54,
      "start": 52.0902,
      "duration": 0.1524,
      "velocity": 94,
      "chip": "ym2612"
    },
    {
      "channel": 5,
      "note": 89,
      "start": 52.093,
      "duration": 0.0447,
      "velocity": 104,
      "chip": "ym2612"
    },
    {
      "channel": 5,
      "note": 88,
      "start": 52.1384,
      "duration": 0.031,
      "velocity": 104,
      "chip": "ym2612"
    },
    {
      "channel": 5,
      "note": 87,
      "start": 52.1701,
      "duration": 0.031,
      "velocity": 104,
      "chip": "ym2612"
    },
    {
      "channel": 5,
      "note": 86,
      "start": 52.2018,
      "duration": 0.0463,
      "velocity": 94,
      "chip": "ym2612"
    },
    {
      "channel": 0,
      "note": 69,
      "start": 52.2387,
      "duration": 0.412,
      "velocity": 106,
      "chip": "ym2612"
    },
    {
      "channel": 1,
      "note": 59,
      "start": 52.2433,
      "duration": 0.2618,
      "velocity": 94,
      "chip": "ym2612"
    },
    {
      "channel": 3,
      "note": 54,
      "start": 52.244,
      "duration": 0.4066,
      "velocity": 94,
      "chip": "ym2612"
    },
    {
      "channel": 4,
      "note": 50,
      "start": 52.2449,
      "duration": 0.4058,
      "velocity": 94,
      "chip": "ym2612"
    },
    {
      "channel": 5,
      "note": 47,
      "start": 52.2487,
      "duration": 0.402,
      "velocity": 94,
      "chip": "ym2612"
    },
    {
      "channel": 2,
      "note": 68,
      "start": 52.2495,
      "duration": 0.2523,
      "velocity": 127,
      "chip": "ym2612"
    },
    {
      "channel": 1,
      "note": 59,
      "start": 52.5055,
      "duration": 0.1425,
      "velocity": 94,
      "chip": "ym2612"
    },
    {
      "channel": 2,
      "note": 68,
      "start": 52.5087,
      "duration": 0.1361,
      "velocity": 127,
      "chip": "ym2612"
    },
    {
      "channel": 1,
      "note": 61,
      "start": 52.6485,
      "duration": 0.0021,
      "velocity": 94,
      "chip": "ym2612"
    },
    {
      "channel": 2,
      "note": 75,
      "start": 52.6505,
      "duration": 0.0002,
      "velocity": 120,
      "chip": "ym2612"
    }
  ]
}