{
  "track_name": "03 - Woods Area",
  "duration_sec": 90.427,
  "sample_rate": 44100,
  "note_count": 1407,
  "unique_pitches": 26,
  "pitch_range": 44,
  "avg_note_duration": 0.0942,
  "reconstruction_stats": {
    "notes_reconstructed": 1407,
    "keyon_events": 1407,
    "keyoff_events": 1406,
    "orphan_keyons": 1,
    "unique_pitches": 26,
    "pitch_range": 44,
    "avg_duration_sec": 0.0942
  },
  "metadata": {
    "source": "K\\Kid Chameleon\\03 - Woods Area.vgz"
  },
  "notes": [
    {
      "channel": 0,
      "note": 42,
      "start": 0.0,
      "duration": 0.1226,
      "velocity": 116,
      "chip": "ym2612"
    },
    {
      "channel": 1,
      "note": 54,
      "start": 0.0132,
      "duration": 0.1927,
      "velocity": 127,
      "chip": "ym2612"
    },
    {
      "channel": 1,
      "note": 49,
      "start": 0.2254,
      "duration": 0.2139,
      "velocity": 127,
      "chip": "ym2612"
    },
    {
      "channel": 1,
      "note": 52,
      "start": 0.461,
      "duration": 0.2116,
      "velocity": 127,
      "chip": "ym2612"
    },
    {
      "channel": 1,
      "note": 53,
      "start": 0.6933,
      "duration": 0.2127,
      "velocity": 127,
      "chip": "ym2612"
    },
    {
      "channel": 1,
      "note": 54,
      "start": 0.9267,
      "duration": 0.2127,
      "velocity": 127,
      "chip": "ym2612"
    },
    {
      "channel": 0,
      "note": 42,
      "start": 1.1596,
      "duration": 0.1298,
      "velocity": 116,
      "chip": "ym2612"
    },
    {
      "channel": 1,
      "note": 61,
      "start": 1.1618,
      "duration": 0.2109,
      "velocity": 127,
      "chip": "ym2612"
    },
    {
      "channel": 1,
      "note": 64,
      "start": 1.3941,
      "duration": 0.2119,
      "velocity": 127,
      "chip": "ym2612"
    },
    {
      "channel": 1,
      "note": 65,
      "start": 1.6266,
      "duration": 0.2127,
      "velocity": 127,
      "chip": "ym2612"
    },
    {
      "channel": 0,
      "note": 42,
      "start": 1.8762,
      "duration": 0.1298,
      "velocity": 116,
      "chip": "ym2612"
    },
    {
      "channel": 1,
      "note": 66,
      "start": 1.8785,
      "duration": 0.1942,
      "velocity": 127,
      "chip": "ym2612"
    },
    {
      "channel": 1,
      "note": 61,
      "start": 2.1099,
      "duration": 0.2127,
      "velocity": 127,
      "chip": "ym2612"
    },
    {
      "channel": 1,
      "note": 64,
      "start": 2.3444,
      "duration": 0.2117,
      "velocity": 127,
      "chip": "ym2612"
    },
    {
      "channel": 1,
      "note": 65,
      "start": 2.5771,
      "duration": 0.2122,
      "velocity": 127,
      "chip": "ym2612"
    },
    {
      "channel": 1,
      "note": 66,
      "start": 2.8103,
      "duration": 0.2123,
      "velocity": 127,
      "chip": "ym2612"
    },
    {
      "channel": 0,
      "note": 42,
      "start": 3.0433,
      "duration": 0.1293,
      "velocity": 116,
      "chip": "ym2612"
    },
    {
      "channel": 1,
      "note": 61,
      "start": 3.0455,
      "duration": 0.2104,
      "velocity": 127,
      "chip": "ym2612"
    },
    {
      "channel": 1,
      "note": 59,
      "start": 3.2777,
      "duration": 0.2116,
      "velocity": 127,
      "chip": "ym2612"
    },
    {
      "channel": 0,
      "note": 42,
      "start": 3.5101,
      "duration": 0.1293,
      "velocity": 116,
      "chip": "ym2612"
    },
    {
      "channel": 1,
      "note": 57,
      "start": 3.5123,
      "duration": 0.2104,
      "velocity": 127,
      "chip": "ym2612"
    },
    {
      "channel": 3,
      "note": 66,
      "start": 3.7436,
      "duration": 0.0461,
      "velocity": 119,
      "chip": "ym2612"
    },
    {
      "channel": 0,
      "note": 42,
      "start": 3.7457,
      "duration": 0.1269,
      "velocity": 116,
      "chip": "ym2612"
    },
    {
      "channel": 1,
      "note": 54,
      "start": 3.7479,
      "duration": 0.208,
      "velocity": 127,
      "chip": "ym2612"
    },
    {
      "channel": 3,
      "note": 66,
      "start": 3.86,
      "duration": 0.046,
      "velocity": 119,
      "chip": "ym2612"
    },
    {
      "channel": 1,
      "note": 49,
      "start": 3.9769,
      "duration": 0.2124,
      "velocity": 127,
      "chip": "ym2612"
    },
    {
      "channel": 3,
      "note": 66,
      "start": 4.0933,
      "duration": 0.0461,
      "velocity": 119,
      "chip": "ym2612"
    },
    {
      "channel": 3,
      "note": 78,
      "start": 4.2098,
      "duration": 0.0464,
      "velocity": 119,
      "chip": "ym2612"
    },
    {
      "channel": 1,
      "note": 52,
      "start": 4.2129,
      "duration": 0.2097,
      "velocity": 127,
      "chip": "ym2612"
    },
    {
      "channel": 3,
      "note": 78,
      "start": 4.3267,
      "duration": 0.0463,
      "velocity": 119,
      "chip": "ym2612"
    },
    {
      "channel": 1,
      "note": 53,
      "start": 4.4604,
      "duration": 0.1956,
      "velocity": 127,
      "chip": "ym2612"
    },
    {
      "channel": 3,
      "note": 66,
      "start": 4.5768,
      "duration": 0.0294,
      "velocity": 119,
      "chip": "ym2612"
    },
    {
      "channel": 3,
      "note": 76,
      "start": 4.6932,
      "duration": 0.0296,
      "velocity": 119,
      "chip": "ym2612"
    },
    {
      "channel": 1,
      "note": 54,
      "start": 4.6956,
      "duration": 0.2104,
      "velocity": 127,
      "chip": "ym2612"
    },
    {
      "channel": 3,
      "note": 76,
      "start": 4.81,
      "duration": 0.0295,
      "velocity": 119,
      "chip": "ym2612"
    },
    {
      "channel": 0,
      "note": 42,
      "start": 4.9267,
      "duration": 0.1293,
      "velocity": 116,
      "chip": "ym2612"
    },
    {
      "channel": 1,
      "note": 61,
      "start": 4.9294,
      "duration": 0.2099,
      "velocity": 127,
      "chip": "ym2612"
    },
    {
      "channel": 3,
      "note": 66,
      "start": 5.0433,
      "duration": 0.0294,
      "velocity": 119,
      "chip": "ym2612"
    },
    {
      "channel": 3,
      "note": 73,
      "start": 5.1598,
      "duration": 0.0297,
      "velocity": 119,
      "chip": "ym2612"
    },
    {
      "channel": 1,
      "note": 64,
      "start": 5.1633,
      "duration": 0.2095,
      "velocity": 127,
      "chip": "ym2612"
    },
    {
      "channel": 3,
      "note": 73,
      "start": 5.2766,
      "duration": 0.0298,
      "velocity": 119,
      "chip": "ym2612"
    },
    {
      "channel": 3,
      "note": 71,
      "start": 5.3933,
      "duration": 0.0295,
      "velocity": 119,
      "chip": "ym2612"
    },
    {
      "channel": 1,
      "note": 65,
      "start": 5.3957,
      "duration": 0.2102,
      "velocity": 127,
      "chip": "ym2612"
    },
    {
      "channel": 3,
      "note": 66,
      "start": 5.6271,
      "duration": 0.0172,
      "velocity": 119,
      "chip": "ym2612"
    },
    {
      "channel": 0,
      "note": 42,
      "start": 5.6292,
      "duration": 0.0589,
      "velocity": 116,
      "chip": "ym2612"
    },
    {
      "channel": 1,
      "note": 66,
      "start": 5.6314,
      "duration": 0.0908,
      "velocity": 127,
      "chip": "ym2612"
    },
    {
      "channel": 1,
      "note": 61,
      "start": 5.7318,
      "duration": 0.0935,
      "velocity": 127,
      "chip": "ym2612"
    },
    {
      "channel": 1,
      "note": 64,
      "start": 5.8355,
      "duration": 0.0894,
      "velocity": 127,
      "chip": "ym2612"
    },
    {
      "channel": 1,
      "note": 65,
      "start": 5.9348,
      "duration": 0.0902,
      "velocity": 127,
      "chip": "ym2612"
    },
    {
      "channel": 0,
      "note": 42,
      "start": 6.0347,
      "duration": 0.0617,
      "velocity": 116,
      "chip": "ym2612"
    },
    {
      "channel": 1,
      "note": 66,
      "start": 6.0366,
      "duration": 0.0882,
      "velocity": 127,
      "chip": "ym2612"
    },
    {
      "channel": 3,
      "note": 76,
      "start": 6.0855,
      "duration": 0.0185,
      "velocity": 119,
      "chip": "ym2612"
    },
    {
      "channel": 0,
      "note": 42,
      "start": 6.135,
      "duration": 0.0637,
      "velocity": 116,
      "chip": "ym2612"
    },
    {
      "channel": 1,
      "note": 61,
      "start": 6.1369,
      "duration": 0.0903,
      "velocity": 127,
      "chip": "ym2612"
    },
    {
      "channel": 3,
      "note": 66,
      "start": 6.1936,
      "duration": 0.0124,
      "velocity": 119,
      "chip": "ym2612"
    },
    {
      "channel": 3,
      "note": 73,
      "start": 6.2437,
      "duration": 0.0143,
      "velocity": 119,
      "chip": "ym2612"
    },
    {
      "channel": 1,
      "note": 59,
      "start": 6.2474,
      "duration": 0.0821,
      "velocity": 127,
      "chip": "ym2612"
    },
    {
      "channel": 3,
      "note": 73,
      "start": 6.2954,
      "duration": 0.0135,
      "velocity": 119,
      "chip": "ym2612"
    },
    {
      "channel": 3,
      "note": 71,
      "start": 6.3464,
      "duration": 0.0122,
      "velocity": 119,
      "chip": "ym2612"
    },
    {
      "channel": 1,
      "note": 57,
      "start": 6.3487,
      "duration": 0.089,
      "velocity": 127,
      "chip": "ym2612"
    },
    {
      "channel": 3,
      "note": 69,
      "start": 6.3962,
      "duration": 0.0125,
      "velocity": 119,
      "chip": "ym2612"
    },
    {
      "channel": 3,
      "note": 42,
      "start": 6.4501,
      "duration": 0.0193,
      "velocity": 92,
      "chip": "ym2612"
    },
    {
      "channel": 0,
      "note": 42,
      "start": 6.4553,
      "duration": 0.1139,
      "velocity": 116,
      "chip": "ym2612"
    },
    {
      "channel": 1,
      "note": 54,
      "start": 6.4577,
      "duration": 0.1949,
      "velocity": 127,
      "chip": "ym2612"
    },
    {
      "channel": 4,
      "note": 52,
      "start": 6.6733,
      "duration": 0.0128,
      "velocity": 79,
      "chip": "ym2612"
    },
    {
      "channel": 1,
      "note": 49,
      "start": 6.6759,
      "duration": 0.21,
      "velocity": 127,
      "chip": "ym2612"
    },
    {
      "channel": 4,
      "note": 49,
      "start": 6.7899,
      "duration": 0.0795,
      "velocity": 79,
      "chip": "ym2612"
    },
    {
      "channel": 3,
      "note": 42,
      "start": 6.7921,
      "duration": 0.0272,
      "velocity": 92,
      "chip": "ym2612"
    },
    {
      "channel": 4,
      "note": 54,
      "start": 6.9065,
      "duration": 0.0798,
      "velocity": 79,
      "chip": "ym2612"
    },
    {
      "channel": 3,
      "note": 54,
      "start": 6.9085,
      "duration": 0.0278,
      "velocity": 92,
      "chip": "ym2612"
    },
    {
      "channel": 1,
      "note": 52,
      "start": 6.9117,
      "duration": 0.2076,
      "velocity": 127,
      "chip": "ym2612"
    },
    {
      "channel": 3,
      "note": 54,
      "start": 7.0233,
      "duration": 0.0294,
      "velocity": 92,
      "chip": "ym2612"
    },
    {
      "channel": 4,
      "note": 54,
      "start": 7.1412,
      "duration": 0.0949,
      "velocity": 79,
      "chip": "ym2612"
    },
    {
      "channel": 2,
      "note": 74,
      "start": 7.1439,
      "duration": 0.0259,
      "velocity": 112,
      "chip": "ym2612"
    },
    {
      "channel": 1,
      "note": 53,
      "start": 7.1458,
      "duration": 0.2067,
      "velocity": 127,
      "chip": "ym2612"
    },
    {
      "channel": 3,
      "note": 42,
      "start": 7.2566,
      "duration": 0.0294,
      "velocity": 92,
      "chip": "ym2612"
    },
    {
      "channel": 2,
      "note": 74,
      "start": 7.2592,
      "duration": 0.0272,
      "velocity": 112,
      "chip": "ym2612"
    },
    {
      "channel": 4,
      "note": 52,
      "start": 7.3732,
      "duration": 0.1128,
      "velocity": 79,
      "chip": "ym2612"
    },
    {
      "channel": 3,
      "note": 52,
      "start": 7.3751,
      "duration": 0.0276,
      "velocity": 92,
      "chip": "ym2612"
    },
    {
      "channel": 1,
      "note": 54,
      "start": 7.3776,
      "duration": 0.2083,
      "velocity": 127,
      "chip": "ym2612"
    },
    {
      "channel": 3,
      "note": 52,
      "start": 7.49,
      "duration": 0.0294,
      "velocity": 92,
      "chip": "ym2612"
    },
    {
      "channel": 4,
      "note": 52,
      "start": 7.6077,
      "duration": 0.095,
      "velocity": 79,
      "chip": "ym2612"
    },
    {
      "channel": 0,
      "note": 42,
      "start": 7.6105,
      "duration": 0.1254,
      "velocity": 116,
      "chip": "ym2612"
    },
    {
      "channel": 2,
      "note": 81,
      "start": 7.6127,
      "duration": 0.0403,
      "velocity": 27,
      "chip": "ym2612"
    },
    {
      "channel": 1,
      "note": 61,
      "start": 7.6147,
      "duration": 0.2046,
      "velocity": 127,
      "chip": "ym2612"
    },
    {
      "channel": 3,
      "note": 42,
      "start": 7.7232,
      "duration": 0.0461,
      "velocity": 92,
      "chip": "ym2612"
    },
    {
      "channel": 4,
      "note": 49,
      "start": 7.8404,
      "duration": 0.1627,
      "velocity": 79,
      "chip": "ym2612"
    },
    {
      "channel": 3,
      "note": 49,
      "start": 7.8423,
      "duration": 0.044,
      "velocity": 92,
      "chip": "ym2612"
    },
    {
      "channel": 1,
      "note": 64,
      "start": 7.8455,
      "duration": 0.2071,
      "velocity": 127,
      "chip": "ym2612"
    },
    {
      "channel": 3,
      "note": 49,
      "start": 7.9566,
      "duration": 0.0461,
      "velocity": 92,
      "chip": "ym2612"
    },
    {
      "channel": 4,
      "note": 47,
      "start": 8.0732,
      "duration": 0.1461,
      "velocity": 79,
      "chip": "ym2612"
    },
    {
      "channel": 3,
      "note": 47,
      "start": 8.0753,
      "duration": 0.0443,
      "velocity": 92,
      "chip": "ym2612"
    },
    {
      "channel": 2,
      "note": 81,
      "start": 8.0777,
      "duration": 0.0587,
      "velocity": 27,
      "chip": "ym2612"
    },
    {
      "channel": 1,
      "note": 65,
      "start": 8.0797,
      "duration": 0.2062,
      "velocity": 127,
      "chip": "ym2612"
    },
    {
      "channel": 3,
      "note": 45,
      "start": 8.1898,
      "duration": 0.0461,
      "velocity": 92,
      "chip": "ym2612"
    },
    {
      "channel": 2,
      "note": 81,
      "start": 8.1922,
      "duration": 0.0608,
      "velocity": 27,
      "chip": "ym2612"
    },
    {
      "channel": 4,
      "note": 49,
      "start": 8.3076,
      "duration": 0.1454,
      "velocity": 79,
      "chip": "ym2612"
    },
    {
      "channel": 3,
      "note": 42,
      "start": 8.3103,
      "duration": 0.0424,
      "velocity": 92,
      "chip": "ym2612"
    },
    {
      "channel": 0,
      "note": 42,
      "start": 8.3124,
      "duration": 0.1402,
      "velocity": 116,
      "chip": "ym2612"
    },
    {
      "channel": 1,
      "note": 66,
      "start": 8.3146,
      "duration": 0.2047,
      "velocity": 127,
      "chip": "ym2612"
    },
    {
      "channel": 4,
      "note": 52,
      "start": 8.5566,
      "duration": 0.0627,
      "velocity": 79,
      "chip": "ym2612"
    },
    {
      "channel": 2,
      "note": 74,
      "start": 8.5592,
      "duration": 0.0272,
      "velocity": 112,
      "chip": "ym2612"
    },
    {
      "channel": 1,
      "note": 61,
      "start": 8.5611,
      "duration": 0.1915,
      "velocity": 127,
      "chip": "ym2612"
    },
    {
      "channel": 4,
      "note": 49,
      "start": 8.6731,
      "duration": 0.0632,
      "velocity": 79,
      "chip": "ym2612"
    },
    {
      "channel": 3,
      "note": 42,
      "start": 8.6752,
      "duration": 0.0274,
      "velocity": 92,
      "chip": "ym2612"
    },
    {
      "channel": 2,
      "note": 74,
      "start": 8.6776,
      "duration": 0.0254,
      "velocity": 112,
      "chip": "ym2612"
    },
    {
      "channel": 4,
      "note": 54,
      "start": 8.79,
      "duration": 0.0962,
      "velocity": 79,
      "chip": "ym2612"
    },
    {
      "channel": 3,
      "note": 54,
      "start": 8.792,
      "duration": 0.0276,
      "velocity": 92,
      "chip": "ym2612"
    },
    {
      "channel": 2,
      "note": 81,
      "start": 8.7953,
      "duration": 0.0912,
      "velocity": 27,
      "chip": "ym2612"
    },
    {
      "channel": 1,
      "note": 64,
      "start": 8.7973,
      "duration": 0.2053,
      "velocity": 127,
      "chip": "ym2612"
    },
    {
      "channel": 3,
      "note": 54,
      "start": 8.9067,
      "duration": 0.0294,
      "velocity": 92,
      "chip": "ym2612"
    },
    {
      "channel": 4,
      "note": 54,
      "start": 9.0245,
      "duration": 0.1118,
      "velocity": 79,
      "chip": "ym2612"
    },
    {
      "channel": 2,
      "note": 74,
      "start": 9.0271,
      "duration": 0.0426,
      "velocity": 112,
      "chip": "ym2612"
    },
    {
      "channel": 1,
      "note": 65,
      "start": 9.0291,
      "duration": 0.2068,
      "velocity": 127,
      "chip": "ym2612"
    },
    {
      "channel": 3,
      "note": 42,
      "start": 9.14,
      "duration": 0.0293,
      "velocity": 92,
      "chip": "ym2612"
    },
    {
      "channel": 2,
      "note": 74,
      "start": 9.1424,
      "duration": 0.0439,
      "velocity": 112,
      "chip": "ym2612"
    },
    {
      "channel": 4,
      "note": 52,
      "start": 9.2563,
      "duration": 0.1133,
      "velocity": 79,
      "chip": "ym2612"
    },
    {
      "channel": 3,
      "note": 52,
      "start": 9.2584,
      "duration": 0.0276,
      "velocity": 92,
      "chip": "ym2612"
    },
    {
      "channel": 1,
      "note": 66,
      "start": 9.2608,
      "duration": 0.2085,
      "velocity": 127,
      "chip": "ym2612"
    },
    {
      "channel": 3,
      "note": 52,
      "start": 9.3734,
      "duration": 0.0292,
      "velocity": 92,
      "chip": "ym2612"
    },
    {
      "channel": 4,
      "note": 49,
      "start": 9.4898,
      "duration": 0.1298,
      "velocity": 79,
      "chip": "ym2612"
    },
    {
      "channel": 0,
      "note": 42,
      "start": 9.4921,
      "duration": 0.1272,
      "velocity": 116,
      "chip": "ym2612"
    },
    {
      "channel": 2,
      "note": 74,
      "start": 9.4944,
      "duration": 0.0253,
      "velocity": 112,
      "chip": "ym2612"
    },
    {
      "channel": 1,
      "note": 61,
      "start": 9.4965,
      "duration": 0.4394,
      "velocity": 127,
      "chip": "ym2612"
    },
    {
      "channel": 3,
      "note": 40,
      "start": 9.6066,
      "duration": 0.0293,
      "velocity": 92,
      "chip": "ym2612"
    },
    {
      "channel": 2,
      "note": 74,
      "start": 9.609,
      "duration": 0.0274,
      "velocity": 112,
      "chip": "ym2612"
    },
    {
      "channel": 4,
      "note": 57,
      "start": 9.7232,
      "duration": 0.0964,
      "velocity": 79,
      "chip": "ym2612"
    },
    {
      "channel": 3,
      "note": 49,
      "start": 9.7251,
      "duration": 0.0278,
      "velocity": 92,
      "chip": "ym2612"
    },
    {
      "channel": 2,
      "note": 81,
      "start": 9.7284,
      "duration": 0.058,
      "velocity": 27,
      "chip": "ym2612"
    },
    {
      "channel": 5,
      "note": 54,
      "start": 9.7307,
      "duration": 0.2056,
      "velocity": 127,
      "chip": "ym2612"
    },
    {
      "channel": 3,
      "note": 49,
      "start": 9.8398,
      "duration": 0.0298,
      "velocity": 92,
      "chip": "ym2612"
    },
    {
      "channel": 2,
      "note": 81,
      "start": 9.8421,
      "duration": 0.0777,
      "velocity": 27,
      "chip": "ym2612"
    },
    {
      "channel": 4,
      "note": 57,
      "start": 9.9584,
      "duration": 0.1112,
      "velocity": 79,
      "chip": "ym2612"
    },
    {
      "channel": 3,
      "note": 47,
      "start": 9.9603,
      "duration": 0.0258,
      "velocity": 92,
      "chip": "ym2612"
    },
    {
      "channel": 2,
      "note": 81,
      "start": 9.9633,
      "duration": 0.0732,
      "velocity": 27,
      "chip": "ym2612"
    },
    {
      "channel": 1,
      "note": 53,
      "start": 9.9653,
      "duration": 0.2039,
      "velocity": 127,
      "chip": "ym2612"
    },
    {
      "channel": 3,
      "note": 45,
      "start": 10.0732,
      "duration": 0.0462,
      "velocity": 92,
      "chip": "ym2612"
    },
    {
      "channel": 3,
      "note": 42,
      "start": 10.19,
      "duration": 0.0461,
      "velocity": 92,
      "chip": "ym2612"
    },
    {
      "channel": 0,
      "note": 42,
      "start": 10.1928,
      "duration": 0.1264,
      "velocity": 116,
      "chip": "ym2612"
    },
    {
      "channel": 1,
      "note": 54,
      "start": 10.1951,
      "duration": 0.2075,
      "velocity": 127,
      "chip": "ym2612"
    },
    {
      "channel": 4,
      "note": 52,
      "start": 10.4233,
      "duration": 0.0627,
      "velocity": 79,
      "chip": "ym2612"
    },
    {
      "channel": 3,
      "note": 42,
      "start": 10.4255,
      "duration": 0.044,
      "velocity": 92,
      "chip": "ym2612"
    },
    {
      "channel": 0,
      "note": 42,
      "start": 10.4276,
      "duration": 0.1417,
      "velocity": 116,
      "chip": "ym2612"
    },
    {
      "channel": 2,
      "note": 74,
      "start": 10.4304,
      "duration": 0.056,
      "velocity": 112,
      "chip": "ym2612"
    },
    {
      "channel": 1,
      "note": 49,
      "start": 10.4323,
      "duration": 0.2036,
      "velocity": 127,
      "chip": "ym2612"
    },
    {
      "channel": 4,
      "note": 49,
      "start": 10.5399,
      "duration": 0.0795,
      "velocity": 79,
      "chip": "ym2612"
    },
    {
      "channel": 3,
      "note": 42,
      "start": 10.5419,
      "duration": 0.0441,
      "velocity": 92,
      "chip": "ym2612"
    },
    {
      "channel": 2,
      "note": 74,
      "start": 10.5443,
      "duration": 0.0587,
      "velocity": 112,
      "chip": "ym2612"
    },
    {
      "channel": 4,
      "note": 54,
      "start": 10.6565,
      "duration": 0.0798,
      "velocity": 79,
      "chip": "ym2612"
    },
    {
      "channel": 3,
      "note": 54,
      "start": 10.6585,
      "duration": 0.0444,
      "velocity": 92,
      "chip": "ym2612"
    },
    {
      "channel": 1,
      "note": 52,
      "start": 10.6617,
      "duration": 0.2076,
      "velocity": 127,
      "chip": "ym2612"
    },
    {
      "channel": 3,
      "note": 54,
      "start": 10.7734,
      "duration": 0.0461,
      "velocity": 92,
      "chip": "ym2612"
    },
    {
      "channel": 4,
      "note": 54,
      "start": 10.8912,
      "duration": 0.1286,
      "velocity": 79,
      "chip": "ym2612"
    },
    {
      "channel": 2,
      "note": 74,
      "start": 10.8937,
      "duration": 0.0594,
      "velocity": 112,
      "chip": "ym2612"
    },
    {
      "channel": 1,
      "note": 53,
      "start": 10.8961,
      "duration": 0.2065,
      "velocity": 127,
      "chip": "ym2612"
    },
    {
      "channel": 3,
      "note": 42,
      "start": 11.0235,
      "duration": 0.0291,
      "velocity": 92,
      "chip": "ym2612"
    },
    {
      "channel": 2,
      "note": 74,
      "start": 11.0259,
      "duration": 0.0438,
      "velocity": 112,
      "chip": "ym2612"
    },
    {
      "channel": 4,
      "note": 52,
      "start": 11.1399,
      "duration": 0.0795,
      "velocity": 79,
      "chip": "ym2612"
    },
    {
      "channel": 3,
      "note": 52,
      "start": 11.1419,
      "duration": 0.0274,
      "velocity": 92,
      "chip": "ym2612"
    },
    {
      "channel": 1,
      "note": 54,
      "start": 11.1443,
      "duration": 0.1917,
      "velocity": 127,
      "chip": "ym2612"
    },
    {
      "channel": 3,
      "note": 52,
      "start": 11.2566,
      "duration": 0.0294,
      "velocity": 92,
      "chip": "ym2612"
    },
    {
      "channel": 4,
      "note": 52,
      "start": 11.3743,
      "duration": 0.095,
      "velocity": 79,
      "chip": "ym2612"
    },
    {
      "channel": 0,
      "note": 42,
      "start": 11.3766,
      "duration": 0.126,
      "velocity": 116,
      "chip": "ym2612"
    },
    {
      "channel": 2,
      "note": 74,
      "start": 11.3789,
      "duration": 0.024,
      "velocity": 112,
      "chip": "ym2612"
    },
    {
      "channel": 1,
      "note": 61,
      "start": 11.3808,
      "duration": 0.2051,
      "velocity": 127,
      "chip": "ym2612"
    },
    {
      "channel": 3,
      "note": 42,
      "start": 11.4898,
      "duration": 0.0295,
      "velocity": 92,
      "chip": "ym2612"
    },
    {
      "channel": 2,
      "note": 74,
      "start": 11.4923,
      "duration": 0.0275,
      "velocity": 112,
      "chip": "ym2612"
    },
    {
      "channel": 3,
      "note": 49,
      "start": 11.6069,
      "duration": 0.0294,
      "velocity": 92,
      "chip": "ym2612"
    },
    {
      "channel": 2,
      "note": 81,
      "start": 11.6104,
      "duration": 0.0427,
      "velocity": 27,
      "chip": "ym2612"
    },
    {
      "channel": 1,
      "note": 64,
      "start": 11.6124,
      "duration": 0.2069,
      "velocity": 127,
      "chip": "ym2612"
    },
    {
      "channel": 3,
      "note": 49,
      "start": 11.7232,
      "duration": 0.0295,
      "velocity": 92,
      "chip": "ym2612"
    },
    {
      "channel": 2,
      "note": 81,
      "start": 11.726,
      "duration": 0.0604,
      "velocity": 27,
      "chip": "ym2612"
    },
    {
      "channel": 4,
      "note": 47,
      "start": 11.8399,
      "duration": 0.113,
      "velocity": 79,
      "chip": "ym2612"
    },
    {
      "channel": 3,
      "note": 47,
      "start": 11.8419,
      "duration": 0.0275,
      "velocity": 92,
      "chip": "ym2612"
    },
    {
      "channel": 2,
      "note": 81,
      "start": 11.8442,
      "duration": 0.0422,
      "velocity": 27,
      "chip": "ym2612"
    },
    {
      "channel": 1,
      "note": 65,
      "start": 11.8462,
      "duration": 0.2063,
      "velocity": 127,
      "chip": "ym2612"
    },
    {
      "channel": 3,
      "note": 45,
      "start": 11.9566,
      "duration": 0.0294,
      "velocity": 92,
      "chip": "ym2612"
    },
    {
      "channel": 2,
      "note": 81,
      "start": 11.9589,
      "duration": 0.0441,
      "velocity": 27,
      "chip": "ym2612"
    },
    {
      "channel": 3,
      "note": 40,
      "start": 12.0732,
      "duration": 0.0295,
      "velocity": 92,
      "chip": "ym2612"
    },
    {
      "channel": 0,
      "note": 42,
      "start": 12.0754,
      "duration": 0.1272,
      "velocity": 116,
      "chip": "ym2612"
    },
    {
      "channel": 1,
      "note": 66,
      "start": 12.0776,
      "duration": 0.2083,
      "velocity": 127,
      "chip": "ym2612"
    },
    {
      "channel": 4,
      "note": 52,
      "start": 12.3078,
      "duration": 0.0615,
      "velocity": 79,
      "chip": "ym2612"
    },
    {
      "channel": 3,
      "note": 42,
      "start": 12.3098,
      "duration": 0.0263,
      "velocity": 92,
      "chip": "ym2612"
    },
    {
      "channel": 0,
      "note": 42,
      "start": 12.3118,
      "duration": 0.1241,
      "velocity": 116,
      "chip": "ym2612"
    },
    {
      "channel": 2,
      "note": 74,
      "start": 12.3141,
      "duration": 0.0556,
      "velocity": 112,
      "chip": "ym2612"
    },
    {
      "channel": 1,
      "note": 61,
      "start": 12.3161,
      "duration": 0.2032,
      "velocity": 127,
      "chip": "ym2612"
    },
    {
      "channel": 4,
      "note": 49,
      "start": 12.4233,
      "duration": 0.0795,
      "velocity": 79,
      "chip": "ym2612"
    },
    {
      "channel": 2,
      "note": 74,
      "start": 12.4259,
      "duration": 0.0271,
      "velocity": 112,
      "chip": "ym2612"
    },
    {
      "channel": 4,
      "note": 54,
      "start": 12.5404,
      "duration": 0.0293,
      "velocity": 79,
      "chip": "ym2612"
    },
    {
      "channel": 3,
      "note": 42,
      "start": 12.5424,
      "duration": 0.0268,
      "velocity": 92,
      "chip": "ym2612"
    },
    {
      "channel": 0,
      "note": 42,
      "start": 12.5446,
      "duration": 0.1246,
      "velocity": 116,
      "chip": "ym2612"
    },
    {
      "channel": 1,
      "note": 64,
      "start": 12.5468,
      "duration": 0.2058,
      "velocity": 127,
      "chip": "ym2612"
    },
    {
      "channel": 4,
      "note": 54,
      "start": 12.6566,
      "duration": 0.0964,
      "velocity": 79,
      "chip": "ym2612"
    },
    {
      "channel": 3,
      "note": 54,
      "start": 12.6587,
      "duration": 0.0439,
      "velocity": 92,
      "chip": "ym2612"
    },
    {
      "channel": 4,
      "note": 52,
      "start": 12.7743,
      "duration": 0.0951,
      "velocity": 79,
      "chip": "ym2612"
    },
    {
      "channel": 2,
      "note": 74,
      "start": 12.7768,
      "duration": 0.0429,
      "velocity": 112,
      "chip": "ym2612"
    },
    {
      "channel": 1,
      "note": 65,
      "start": 12.7787,
      "duration": 0.2073,
      "velocity": 127,
      "chip": "ym2612"
    },
    {
      "channel": 3,
      "note": 42,
      "start": 12.8899,
      "duration": 0.0461,
      "velocity": 92,
      "chip": "ym2612"
    },
    {
      "channel": 2,
      "note": 74,
      "start": 12.8923,
      "duration": 0.0441,
      "velocity": 112,
      "chip": "ym2612"
    },
    {
      "channel": 4,
      "note": 49,
      "start": 13.0078,
      "duration": 0.0784,
      "velocity": 79,
      "chip": "ym2612"
    },
    {
      "channel": 3,
      "note": 52,
      "start": 13.0098,
      "duration": 0.0243,
      "velocity": 92,
      "chip": "ym2612"
    },
    {
      "channel": 0,
      "note": 42,
      "start": 13.0119,
      "duration": 0.0667,
      "velocity": 116,
      "chip": "ym2612"
    },
    {
      "channel": 2,
      "note": 81,
      "start": 13.0142,
      "duration": 0.0349,
      "velocity": 27,
      "chip": "ym2612"
    },
    {
      "channel": 1,
      "note": 61,
      "start": 13.0163,
      "duration": 0.0919,
      "velocity": 127,
      "chip": "ym2612"
    },
    {
      "channel": 3,
      "note": 52,
      "start": 13.0652,
      "duration": 0.0208,
      "velocity": 92,
      "chip": "ym2612"
    },
    {
      "channel": 4,
      "note": 47,
      "start": 13.1187,
      "duration": 0.062,
      "velocity": 79,
      "chip": "ym2612"
    },
    {
      "channel": 0,
      "note": 42,
      "start": 13.1208,
      "duration": 0.0597,
      "velocity": 116,
      "chip": "ym2612"
    },
    {
      "channel": 2,
      "note": 49,
      "start": 13.1251,
      "duration": 0.0274,
      "velocity": 119,
      "chip": "ym2612"
    },
    {
      "channel": 1,
      "note": 59,
      "start": 13.1283,
      "duration": 0.0943,
      "velocity": 127,
      "chip": "ym2612"
    },
    {
      "channel": 3,
      "note": 42,
      "start": 13.1694,
      "duration": 0.0185,
      "velocity": 92,
      "chip": "ym2612"
    },
    {
      "channel": 2,
      "note": 74,
      "start": 13.1715,
      "duration": 0.0168,
      "velocity": 112,
      "chip": "ym2612"
    },
    {
      "channel": 4,
      "note": 45,
      "start": 13.2434,
      "duration": 0.0711,
      "velocity": 79,
      "chip": "ym2612"
    },
    {
      "channel": 3,
      "note": 49,
      "start": 13.2454,
      "duration": 0.0236,
      "velocity": 92,
      "chip": "ym2612"
    },
    {
      "channel": 2,
      "note": 81,
      "start": 13.2478,
      "duration": 0.0289,
      "velocity": 27,
      "chip": "ym2612"
    },
    {
      "channel": 1,
      "note": 57,
      "start": 13.2499,
      "duration": 0.0913,
      "velocity": 127,
      "chip": "ym2612"
    },
    {
      "channel": 3,
      "note": 49,
      "start": 13.3078,
      "duration": 0.0121,
      "velocity": 92,
      "chip": "ym2612"
    },
    {
      "channel": 2,
      "note": 81,
      "start": 13.31,
      "duration": 0.0172,
      "velocity": 27,
      "chip": "ym2612"
    },
    {
      "channel": 3,
      "note": 47,
      "start": 13.3578,
      "duration": 0.0143,
      "velocity": 92,
      "chip": "ym2612"
    },
    {
      "channel": 0,
      "note": 49,
      "start": 13.36,
      "duration": 0.0254,
      "velocity": 119,
      "chip": "ym2612"
    },
    {
      "channel": 2,
      "note": 74,
      "start": 13.3627,
      "duration": 0.0095,
      "velocity": 112,
      "chip": "ym2612"
    },
    {
      "channel": 1,
      "note": 50,
      "start": 13.3654,
      "duration": 0.0407,
      "velocity": 127,
      "chip": "ym2612"
    },
    {
      "channel": 3,
      "note": 45,
      "start": 13.4083,
      "duration": 0.0132,
      "velocity": 92,
      "chip": "ym2612"
    },
    {
      "channel": 2,
      "note": 74,
      "start": 13.4111,
      "duration": 0.0106,
      "velocity": 112,
      "chip": "ym2612"
    },
    {
      "channel": 3,
      "note": 40,
      "start": 13.4805,
      "duration": 0.0178,
      "velocity": 92,
      "chip": "ym2612"
    },
    {
      "channel": 2,
      "note": 74,
      "start": 13.483,
      "duration": 0.0233,
      "velocity": 112,
      "chip": "ym2612"
    },
    {
      "channel": 1,
      "note": 42,
      "start": 13.4863,
      "duration": 0.0471,
      "velocity": 92,
      "chip": "ym2612"
    },
    {
      "channel": 1,
      "note": 42,
      "start": 13.5856,
      "duration": 0.0121,
      "velocity": 92,
      "chip": "ym2612"
    },
    {
      "channel": 1,
      "note": 49,
      "start": 13.6624,
      "duration": 0.0453,
      "velocity": 92,
      "chip": "ym2612"
    },
    {
      "channel": 0,
      "note": 49,
      "start": 13.7789,
      "duration": 0.0288,
      "velocity": 119,
      "chip": "ym2612"
    },
    {
      "channel": 2,
      "note": 74,
      "start": 14.0127,
      "duration": 0.0159,
      "velocity": 112,
      "chip": "ym2612"
    },
    {
      "channel": 1,
      "note": 49,
      "start": 14.0149,
      "duration": 0.0415,
      "velocity": 92,
      "chip": "ym2612"
    },
    {
      "channel": 2,
      "note": 74,
      "start": 14.0678,
      "duration": 0.0119,
      "velocity": 112,
      "chip": "ym2612"
    },
    {
      "channel": 1,
      "note": 42,
      "start": 14.0695,
      "duration": 0.0026,
      "velocity": 92,
      "chip": "ym2612"
    },
    {
      "channel": 1,
      "note": 47,
      "start": 14.1186,
      "duration": 0.0547,
      "velocity": 92,
      "chip": "ym2612"
    },
    {
      "channel": 2,
      "note": 74,
      "start": 14.311,
      "duration": 0.0294,
      "velocity": 112,
      "chip": "ym2612"
    },
    {
      "channel": 1,
      "note": 47,
      "start": 14.3132,
      "duration": 0.1102,
      "velocity": 92,
      "chip": "ym2612"
    },
    {
      "channel": 2,
      "note": 74,
      "start": 14.4277,
      "duration": 0.0461,
      "velocity": 112,
      "chip": "ym2612"
    },
    {
      "channel": 1,
      "note": 45,
      "start": 14.5447,
      "duration": 0.1791,
      "velocity": 92,
      "chip": "ym2612"
    },
    {
      "channel": 2,
      "note": 81,
      "start": 14.6481,
      "duration": 0.0594,
      "velocity": 27,
      "chip": "ym2612"
    },
    {
      "channel": 1,
      "note": 42,
      "start": 14.8784,
      "duration": 0.0426,
      "velocity": 92,
      "chip": "ym2612"
    },
    {
      "channel": 2,
      "note": 74,
      "start": 14.9809,
      "duration": 0.0196,
      "velocity": 112,
      "chip": "ym2612"
    },
    {
      "channel": 1,
      "note": 42,
      "start": 14.9828,
      "duration": 0.0242,
      "velocity": 92,
      "chip": "ym2612"
    },
    {
      "channel": 2,
      "note": 74,
      "start": 15.0739,
      "duration": 0.0459,
      "velocity": 112,
      "chip": "ym2612"
    },
    {
      "channel": 1,
      "note": 49,
      "start": 15.0762,
      "duration": 0.0765,
      "velocity": 92,
      "chip": "ym2612"
    },
    {
      "channel": 0,
      "note": 52,
      "start": 15.19,
      "duration": 0.0294,
      "velocity": 119,
      "chip": "ym2612"
    },
    {
      "channel": 1,
      "note": 49,
      "start": 15.3071,
      "duration": 0.0957,
      "velocity": 92,
      "chip": "ym2612"
    },
    {
      "channel": 1,
      "note": 49,
      "start": 15.4746,
      "duration": 0.0254,
      "velocity": 92,
      "chip": "ym2612"
    },
    {
      "channel": 1,
      "note": 47,
      "start": 15.5254,
      "duration": 0.0245,
      "velocity": 92,
      "chip": "ym2612"
    },
    {
      "channel": 1,
      "note": 49,
      "start": 15.5743,
      "duration": 0.0468,
      "velocity": 92,
      "chip": "ym2612"
    },
    {
      "channel": 1,
      "note": 52,
      "start": 15.8694,
      "duration": 0.2583,
      "velocity": 92,
      "chip": "ym2612"
    },
    {
      "channel": 1,
      "note": 42,
      "start": 16.15,
      "duration": 0.0431,
      "velocity": 92,
      "chip": "ym2612"
    },
    {
      "channel": 3,
      "note": 54,
      "start": 16.2037,
      "duration": 0.0039,
      "velocity": 92,
      "chip": "ym2612"
    },
    {
      "channel": 3,
      "note": 54,
      "start": 16.2521,
      "duration": 0.0048,
      "velocity": 92,
      "chip": "ym2612"
    },
    {
      "channel": 3,
      "note": 54,
      "start": 16.3291,
      "duration": 0.0129,
      "velocity": 92,
      "chip": "ym2612"
    },
    {
      "channel": 1,
      "note": 49,
      "start": 16.3317,
      "duration": 0.0936,
      "velocity": 92,
      "chip": "ym2612"
    },
    {
      "channel": 3,
      "note": 66,
      "start": 16.4462,
      "duration": 0.0124,
      "velocity": 92,
      "chip": "ym2612"
    },
    {
      "channel": 0,
      "note": 49,
      "start": 16.4483,
      "duration": 0.0436,
      "velocity": 119,
      "chip": "ym2612"
    },
    {
      "channel": 3,
      "note": 66,
      "start": 16.5626,
      "duration": 0.0293,
      "velocity": 92,
      "chip": "ym2612"
    },
    {
      "channel": 1,
      "note": 49,
      "start": 16.5652,
      "duration": 0.11,
      "velocity": 92,
      "chip": "ym2612"
    },
    {
      "channel": 3,
      "note": 54,
      "start": 16.731,
      "duration": 0.0122,
      "velocity": 92,
      "chip": "ym2612"
    },
    {
      "channel": 1,
      "note": 49,
      "start": 16.7335,
      "duration": 0.0383,
      "velocity": 92,
      "chip": "ym2612"
    },
    {
      "channel": 3,
      "note": 64,
      "start": 16.7885,
      "duration": 0.0045,
      "velocity": 92,
      "chip": "ym2612"
    },
    {
      "channel": 1,
      "note": 47,
      "start": 16.7904,
      "duration": 0.0456,
      "velocity": 92,
      "chip": "ym2612"
    },
    {
      "channel": 3,
      "note": 64,
      "start": 16.8733,
      "duration": 0.0128,
      "velocity": 92,
      "chip": "ym2612"
    },
    {
      "channel": 1,
      "note": 45,
      "start": 16.8757,
      "duration": 0.0769,
      "velocity": 92,
      "chip": "ym2612"
    },
    {
      "channel": 2,
      "note": 74,
      "start": 16.9904,
      "duration": 0.0461,
      "velocity": 112,
      "chip": "ym2612"
    },
    {
      "channel": 1,
      "note": 42,
      "start": 16.9926,
      "duration": 0.0434,
      "velocity": 92,
      "chip": "ym2612"
    },
    {
      "channel": 3,
      "note": 54,
      "start": 17.1066,
      "duration": 0.0127,
      "velocity": 92,
      "chip": "ym2612"
    },
    {
      "channel": 2,
      "note": 74,
      "start": 17.1091,
      "duration": 0.0439,
      "velocity": 112,
      "chip": "ym2612"
    },
    {
      "channel": 3,
      "note": 61,
      "start": 17.2232,
      "duration": 0.0097,
      "velocity": 92,
      "chip": "ym2612"
    },
    {
      "channel": 1,
      "note": 45,
      "start": 17.2259,
      "duration": 0.2251,
      "velocity": 92,
      "chip": "ym2612"
    },
    {
      "channel": 3,
      "note": 61,
      "start": 17.2782,
      "duration": 0.0044,
      "velocity": 92,
      "chip": "ym2612"
    },
    {
      "channel": 2,
      "note": 81,
      "start": 17.3265,
      "duration": 0.0414,
      "velocity": 27,
      "chip": "ym2612"
    },
    {
      "channel": 3,
      "note": 54,
      "start": 17.4384,
      "duration": 0.0128,
      "velocity": 92,
      "chip": "ym2612"
    },
    {
      "channel": 3,
      "note": 59,
      "start": 17.5549,
      "duration": 0.0094,
      "velocity": 92,
      "chip": "ym2612"
    },
    {
      "channel": 1,
      "note": 42,
      "start": 17.5576,
      "duration": 0.0413,
      "velocity": 92,
      "chip": "ym2612"
    },
    {
      "channel": 3,
      "note": 59,
      "start": 17.61,
      "duration": 0.004,
      "velocity": 92,
      "chip": "ym2612"
    },
    {
      "channel": 2,
      "note": 74,
      "start": 17.6594,
      "duration": 0.019,
      "velocity": 112,
      "chip": "ym2612"
    },
    {
      "channel": 3,
      "note": 54,
      "start": 17.7357,
      "duration": 0.0128,
      "velocity": 92,
      "chip": "ym2612"
    },
    {
      "channel": 2,
      "note": 74,
      "start": 17.7381,
      "duration": 0.0607,
      "velocity": 112,
      "chip": "ym2612"
    },
    {
      "channel": 1,
      "note": 42,
      "start": 17.7403,
      "duration": 0.0581,
      "velocity": 92,
      "chip": "ym2612"
    },
    {
      "channel": 3,
      "note": 57,
      "start": 17.8522,
      "duration": 0.0129,
      "velocity": 92,
      "chip": "ym2612"
    },
    {
      "channel": 0,
      "note": 52,
      "start": 17.8543,
      "duration": 0.0274,
      "velocity": 119,
      "chip": "ym2612"
    },
    {
      "channel": 1,
      "note": 49,
      "start": 17.8568,
      "duration": 0.0917,
      "velocity": 92,
      "chip": "ym2612"
    },
    {
      "channel": 3,
      "note": 57,
      "start": 17.969,
      "duration": 0.0127,
      "velocity": 92,
      "chip": "ym2612"
    },
    {
      "channel": 1,
      "note": 49,
      "start": 18.086,
      "duration": 0.0437,
      "velocity": 92,
      "chip": "ym2612"
    },
    {
      "channel": 3,
      "note": 54,
      "start": 18.1402,
      "duration": 0.0045,
      "velocity": 92,
      "chip": "ym2612"
    },
    {
      "channel": 3,
      "note": 59,
      "start": 18.1898,
      "duration": 0.0072,
      "velocity": 92,
      "chip": "ym2612"
    },
    {
      "channel": 1,
      "note": 47,
      "start": 18.1929,
      "duration": 0.0221,
      "velocity": 92,
      "chip": "ym2612"
    },
    {
      "channel": 3,
      "note": 59,
      "start": 18.2387,
      "duration": 0.0055,
      "velocity": 92,
      "chip": "ym2612"
    },
    {
      "channel": 1,
      "note": 49,
      "start": 18.2408,
      "duration": 0.033,
      "velocity": 92,
      "chip": "ym2612"
    },
    {
      "channel": 2,
      "note": 74,
      "start": 18.291,
      "duration": 0.0268,
      "velocity": 112,
      "chip": "ym2612"
    },
    {
      "channel": 1,
      "note": 52,
      "start": 18.2928,
      "duration": 0.0671,
      "velocity": 92,
      "chip": "ym2612"
    },
    {
      "channel": 3,
      "note": 54,
      "start": 18.3639,
      "duration": 0.0293,
      "velocity": 92,
      "chip": "ym2612"
    },
    {
      "channel": 2,
      "note": 74,
      "start": 18.3664,
      "duration": 0.0606,
      "velocity": 112,
      "chip": "ym2612"
    },
    {
      "channel": 3,
      "note": 61,
      "start": 18.4804,
      "duration": 0.0181,
      "velocity": 92,
      "chip": "ym2612"
    },
    {
      "channel": 2,
      "note": 81,
      "start": 18.4828,
      "duration": 0.0376,
      "velocity": 27,
      "chip": "ym2612"
    },
    {
      "channel": 1,
      "note": 49,
      "start": 18.4851,
      "duration": 0.0351,
      "velocity": 92,
      "chip": "ym2612"
    },
    {
      "channel": 3,
      "note": 61,
      "start": 18.5385,
      "duration": 0.0114,
      "velocity": 92,
      "chip": "ym2612"
    },
    {
      "channel": 1,
      "note": 52,
      "start": 18.541,
      "duration": 0.0232,
      "velocity": 92,
      "chip": "ym2612"
    },
    {
      "channel": 2,
      "note": 81,
      "start": 18.5988,
      "duration": 0.0232,
      "velocity": 27,
      "chip": "ym2612"
    },
    {
      "channel": 1,
      "note": 54,
      "start": 18.6012,
      "duration": 0.0644,
      "velocity": 92,
      "chip": "ym2612"
    },
    {
      "channel": 3,
      "note": 54,
      "start": 18.6535,
      "duration": 0.0059,
      "velocity": 92,
      "chip": "ym2612"
    },
    {
      "channel": 2,
      "note": 81,
      "start": 18.6556,
      "duration": 0.0173,
      "velocity": 27,
      "chip": "ym2612"
    },
    {
      "channel": 4,
      "note": 49,
      "start": 18.7032,
      "duration": 0.0716,
      "velocity": 79,
      "chip": "ym2612"
    },
    {
      "channel": 3,
      "note": 54,
      "start": 18.705,
      "duration": 0.009,
      "velocity": 92,
      "chip": "ym2612"
    },
    {
      "channel": 1,
      "note": 42,
      "start": 18.7082,
      "duration": 0.0457,
      "velocity": 92,
      "chip": "ym2612"
    },
    {
      "channel": 4,
      "note": 54,
      "start": 18.8073,
      "duration": 0.0269,
      "velocity": 79,
      "chip": "ym2612"
    },
    {
      "channel": 3,
      "note": 54,
      "start": 18.8091,
      "duration": 0.0043,
      "velocity": 92,
      "chip": "ym2612"
    },
    {
      "channel": 2,
      "note": 74,
      "start": 18.811,
      "duration": 0.0152,
      "velocity": 112,
      "chip": "ym2612"
    },
    {
      "channel": 4,
      "note": 47,
      "start": 18.8796,
      "duration": 0.0961,
      "velocity": 79,
      "chip": "ym2612"
    },
    {
      "channel": 2,
      "note": 74,
      "start": 18.8821,
      "duration": 0.0439,
      "velocity": 112,
      "chip": "ym2612"
    },
    {
      "channel": 1,
      "note": 42,
      "start": 18.8843,
      "duration": 0.0413,
      "velocity": 92,
      "chip": "ym2612"
    },
    {
      "channel": 4,
      "note": 52,
      "start": 18.9962,
      "duration": 0.0461,
      "velocity": 79,
      "chip": "ym2612"
    },
    {
      "channel": 3,
      "note": 66,
      "start": 18.9983,
      "duration": 0.0106,
      "velocity": 92,
      "chip": "ym2612"
    },
    {
      "channel": 0,
      "note": 49,
      "start": 19.0004,
      "duration": 0.0251,
      "velocity": 119,
      "chip": "ym2612"
    },
    {
      "channel": 1,
      "note": 49,
      "start": 19.0029,
      "duration": 0.0894,
      "velocity": 92,
      "chip": "ym2612"
    },
    {
      "channel": 4,
      "note": 49,
      "start": 19.1146,
      "duration": 0.0777,
      "velocity": 79,
      "chip": "ym2612"
    },
    {
      "channel": 3,
      "note": 66,
      "start": 19.1167,
      "duration": 0.0088,
      "velocity": 92,
      "chip": "ym2612"
    },
    {
      "channel": 4,
      "note": 57,
      "start": 19.2296,
      "duration": 0.0429,
      "velocity": 79,
      "chip": "ym2612"
    },
    {
      "channel": 4,
      "note": 49,
      "start": 19.2824,
      "duration": 0.0341,
      "velocity": 79,
      "chip": "ym2612"
    },
    {
      "channel": 3,
      "note": 54,
      "start": 19.2841,
      "duration": 0.0045,
      "velocity": 92,
      "chip": "ym2612"
    },
    {
      "channel": 1,
      "note": 49,
      "start": 19.2862,
      "duration": 0.0385,
      "velocity": 92,
      "chip": "ym2612"
    },
    {
      "channel": 4,
      "note": 54,
      "start": 19.3341,
      "duration": 0.0387,
      "velocity": 79,
      "chip": "ym2612"
    },
    {
      "channel": 3,
      "note": 64,
      "start": 19.3367,
      "duration": 0.0035,
      "velocity": 92,
      "chip": "ym2612"
    },
    {
      "channel": 1,
      "note": 47,
      "start": 19.3392,
      "duration": 0.0334,
      "velocity": 92,
      "chip": "ym2612"
    },
    {
      "channel": 4,
      "note": 52,
      "start": 19.411,
      "duration": 0.0949,
      "velocity": 79,
      "chip": "ym2612"
    },
    {
      "channel": 3,
      "note": 64,
      "start": 19.4132,
      "duration": 0.0093,
      "velocity": 92,
      "chip": "ym2612"
    },
    {
      "channel": 1,
      "note": 45,
      "start": 19.4158,
      "duration": 0.1067,
      "velocity": 92,
      "chip": "ym2612"
    },
    {
      "channel": 4,
      "note": 59,
      "start": 19.5276,
      "duration": 0.095,
      "velocity": 79,
      "chip": "ym2612"
    },
    {
      "channel": 2,
      "note": 74,
      "start": 19.5306,
      "duration": 0.059,
      "velocity": 112,
      "chip": "ym2612"
    },
    {
      "channel": 1,
      "note": 47,
      "start": 19.5327,
      "duration": 0.1064,
      "velocity": 92,
      "chip": "ym2612"
    },
    {
      "channel": 4,
      "note": 49,
      "start": 19.6444,
      "duration": 0.0781,
      "velocity": 79,
      "chip": "ym2612"
    },
    {
      "channel": 3,
      "note": 54,
      "start": 19.6466,
      "duration": 0.0093,
      "velocity": 92,
      "chip": "ym2612"
    },
    {
      "channel": 2,
      "note": 74,
      "start": 19.649,
      "duration": 0.0573,
      "velocity": 112,
      "chip": "ym2612"
    },
    {
      "channel": 4,
      "note": 54,
      "start": 19.7613,
      "duration": 0.0382,
      "velocity": 79,
      "chip": "ym2612"
    },
    {
      "channel": 3,
      "note": 61,
      "start": 19.7634,
      "duration": 0.0079,
      "velocity": 92,
      "chip": "ym2612"
    },
    {
      "channel": 1,
      "note": 45,
      "start": 19.7661,
      "duration": 0.2555,
      "velocity": 92,
      "chip": "ym2612"
    },
    {
      "channel": 4,
      "note": 49,
      "start": 19.8173,
      "duration": 0.0253,
      "velocity": 79,
      "chip": "ym2612"
    },
    {
      "channel": 3,
      "note": 61,
      "start": 19.8193,
      "duration": 0.002,
      "velocity": 92,
      "chip": "ym2612"
    },
    {
      "channel": 4,
      "note": 57,
      "start": 19.8671,
      "duration": 0.088,
      "velocity": 79,
      "chip": "ym2612"
    },
    {
      "channel": 2,
      "note": 81,
      "start": 19.8691,
      "duration": 0.0529,
      "velocity": 27,
      "chip": "ym2612"
    },
    {
      "channel": 4,
      "note": 52,
      "start": 19.9766,
      "duration": 0.095,
      "velocity": 79,
      "chip": "ym2612"
    },
    {
      "channel": 3,
      "note": 54,
      "start": 19.9788,
      "duration": 0.0095,
      "velocity": 92,
      "chip": "ym2612"
    },
    {
      "channel": 2,
      "note": 81,
      "start": 19.9817,
      "duration": 0.0569,
      "velocity": 27,
      "chip": "ym2612"
    },
    {
      "channel": 4,
      "note": 45,
      "start": 20.0933,
      "duration": 0.0459,
      "velocity": 79,
      "chip": "ym2612"
    },
    {
      "channel": 3,
      "note": 59,
      "start": 20.0952,
      "duration": 0.0147,
      "velocity": 92,
      "chip": "ym2612"
    },
    {
      "channel": 1,
      "note": 42,
      "start": 20.098,
      "duration": 0.0338,
      "velocity": 92,
      "chip": "ym2612"
    },
    {
      "channel": 3,
      "note": 59,
      "start": 20.1485,
      "duration": 0.0121,
      "velocity": 92,
      "chip": "ym2612"
    },
    {
      "channel": 4,
      "note": 54,
      "start": 20.1994,
      "duration": 0.0537,
      "velocity": 79,
      "chip": "ym2612"
    },
    {
      "channel": 2,
      "note": 74,
      "start": 20.2015,
      "duration": 0.0238,
      "velocity": 112,
      "chip": "ym2612"
    },
    {
      "channel": 4,
      "note": 49,
      "start": 20.2736,
      "duration": 0.0795,
      "velocity": 79,
      "chip": "ym2612"
    },
    {
      "channel": 3,
      "note": 54,
      "start": 20.2758,
      "duration": 0.0273,
      "velocity": 92,
      "chip": "ym2612"
    },
    {
      "channel": 2,
      "note": 74,
      "start": 20.2783,
      "duration": 0.0418,
      "velocity": 112,
      "chip": "ym2612"
    },
    {
      "channel": 1,
      "note": 42,
      "start": 20.2805,
      "duration": 0.0559,
      "velocity": 92,
      "chip": "ym2612"
    },
    {
      "channel": 4,
      "note": 52,
      "start": 20.4086,
      "duration": 0.0613,
      "velocity": 79,
      "chip": "ym2612"
    },
    {
      "channel": 3,
      "note": 57,
      "start": 20.4105,
      "duration": 0.0092,
      "velocity": 92,
      "chip": "ym2612"
    },
    {
      "channel": 0,
      "note": 52,
      "start": 20.4128,
      "duration": 0.0235,
      "velocity": 119,
      "chip": "ym2612"
    },
    {
      "channel": 1,
      "note": 49,
      "start": 20.4157,
      "duration": 0.0706,
      "velocity": 92,
      "chip": "ym2612"
    },
    {
      "channel": 4,
      "note": 47,
      "start": 20.5237,
      "duration": 0.0461,
      "velocity": 79,
      "chip": "ym2612"
    },
    {
      "channel": 3,
      "note": 57,
      "start": 20.5258,
      "duration": 0.0106,
      "velocity": 92,
      "chip": "ym2612"
    },
    {
      "channel": 4,
      "note": 57,
      "start": 20.6402,
      "duration": 0.037,
      "velocity": 79,
      "chip": "ym2612"
    },
    {
      "channel": 4,
      "note": 52,
      "start": 20.6951,
      "duration": 0.0465,
      "velocity": 79,
      "chip": "ym2612"
    },
    {
      "channel": 3,
      "note": 54,
      "start": 20.6969,
      "duration": 0.0047,
      "velocity": 92,
      "chip": "ym2612"
    },
    {
      "channel": 1,
      "note": 49,
      "start": 20.7004,
      "duration": 0.0342,
      "velocity": 92,
      "chip": "ym2612"
    },
    {
      "channel": 4,
      "note": 54,
      "start": 20.7448,
      "duration": 0.0271,
      "velocity": 79,
      "chip": "ym2612"
    },
    {
      "channel": 3,
      "note": 59,
      "start": 20.7479,
      "duration": 0.0072,
      "velocity": 92,
      "chip": "ym2612"
    },
    {
      "channel": 1,
      "note": 47,
      "start": 20.7513,
      "duration": 0.0347,
      "velocity": 92,
      "chip": "ym2612"
    },
    {
      "channel": 4,
      "note": 49,
      "start": 20.7974,
      "duration": 0.0267,
      "velocity": 79,
      "chip": "ym2612"
    },
    {
      "channel": 3,
      "note": 59,
      "start": 20.7993,
      "duration": 0.0047,
      "velocity": 92,
      "chip": "ym2612"
    },
    {
      "channel": 1,
      "note": 45,
      "start": 20.8017,
      "duration": 0.0223,
      "velocity": 92,
      "chip": "ym2612"
    },
    {
      "channel": 4,
      "note": 59,
      "start": 20.8473,
      "duration": 0.0634,
      "velocity": 79,
      "chip": "ym2612"
    },
    {
      "channel": 2,
      "note": 74,
      "start": 20.8495,
      "duration": 0.0175,
      "velocity": 112,
      "chip": "ym2612"
    },
    {
      "channel": 1,
      "note": 42,
      "start": 20.8531,
      "duration": 0.0575,
      "velocity": 92,
      "chip": "ym2612"
    },
    {
      "channel": 4,
      "note": 52,
      "start": 20.9164,
      "duration": 0.0943,
      "velocity": 79,
      "chip": "ym2612"
    },
    {
      "channel": 3,
      "note": 54,
      "start": 20.9185,
      "duration": 0.0087,
      "velocity": 92,
      "chip": "ym2612"
    },
    {
      "channel": 2,
      "note": 74,
      "start": 20.9211,
      "duration": 0.023,
      "velocity": 112,
      "chip": "ym2612"
    },
    {
      "channel": 4,
      "note": 57,
      "start": 21.0325,
      "duration": 0.0403,
      "velocity": 79,
      "chip": "ym2612"
    },
    {
      "channel": 3,
      "note": 61,
      "start": 21.0344,
      "duration": 0.01,
      "velocity": 92,
      "chip": "ym2612"
    },
    {
      "channel": 1,
      "note": 40,
      "start": 21.0393,
      "duration": 0.2697,
      "velocity": 92,
      "chip": "ym2612"
    },
    {
      "channel": 4,
      "note": 49,
      "start": 21.0898,
      "duration": 0.0191,
      "velocity": 79,
      "chip": "ym2612"
    },
    {
      "channel": 3,
      "note": 61,
      "start": 21.0925,
      "duration": 0.0018,
      "velocity": 92,
      "chip": "ym2612"
    },
    {
      "channel": 4,
      "note": 54,
      "start": 21.1407,
      "duration": 0.0688,
      "velocity": 79,
      "chip": "ym2612"
    },
    {
      "channel": 2,
      "note": 81,
      "start": 21.1428,
      "duration": 0.0502,
      "velocity": 27,
      "chip": "ym2612"
    },
    {
      "channel": 4,
      "note": 52,
      "start": 21.2476,
      "duration": 0.0949,
      "velocity": 79,
      "chip": "ym2612"
    },
    {
      "channel": 2,
      "note": 81,
      "start": 21.2502,
      "duration": 0.0593,
      "velocity": 27,
      "chip": "ym2612"
    },
    {
      "channel": 4,
      "note": 47,
      "start": 21.3647,
      "duration": 0.0522,
      "velocity": 79,
      "chip": "ym2612"
    },
    {
      "channel": 3,
      "note": 54,
      "start": 21.3667,
      "duration": 0.0076,
      "velocity": 92,
      "chip": "ym2612"
    },
    {
      "channel": 1,
      "note": 42,
      "start": 21.3694,
      "duration": 0.0616,
      "velocity": 92,
      "chip": "ym2612"
    },
    {
      "channel": 4,
      "note": 54,
      "start": 21.4678,
      "duration": 0.0548,
      "velocity": 79,
      "chip": "ym2612"
    },
    {
      "channel": 2,
      "note": 74,
      "start": 21.4701,
      "duration": 0.0241,
      "velocity": 112,
      "chip": "ym2612"
    },
    {
      "channel": 4,
      "note": 49,
      "start": 21.5429,
      "duration": 0.0963,
      "velocity": 79,
      "chip": "ym2612"
    },
    {
      "channel": 3,
      "note": 54,
      "start": 21.5451,
      "duration": 0.0108,
      "velocity": 92,
      "chip": "ym2612"
    },
    {
      "channel": 2,
      "note": 74,
      "start": 21.5475,
      "duration": 0.0588,
      "velocity": 112,
      "chip": "ym2612"
    },
    {
      "channel": 1,
      "note": 42,
      "start": 21.5498,
      "duration": 0.0728,
      "velocity": 92,
      "chip": "ym2612"
    },
    {
      "channel": 4,
      "note": 52,
      "start": 21.661,
      "duration": 0.0783,
      "velocity": 79,
      "chip": "ym2612"
    },
    {
      "channel": 3,
      "note": 66,
      "start": 21.663,
      "duration": 0.0095,
      "velocity": 92,
      "chip": "ym2612"
    },
    {
      "channel": 0,
      "note": 49,
      "start": 21.6667,
      "duration": 0.0391,
      "velocity": 119,
      "chip": "ym2612"
    },
    {
      "channel": 1,
      "note": 49,
      "start": 21.6691,
      "duration": 0.1034,
      "velocity": 92,
      "chip": "ym2612"
    },
    {
      "channel": 4,
      "note": 57,
      "start": 21.7765,
      "duration": 0.1127,
      "velocity": 79,
      "chip": "ym2612"
    },
    {
      "channel": 3,
      "note": 66,
      "start": 21.7787,
      "duration": 0.0104,
      "velocity": 92,
      "chip": "ym2612"
    },
    {
      "channel": 4,
      "note": 52,
      "start": 21.8932,
      "duration": 0.0365,
      "velocity": 79,
      "chip": "ym2612"
    },
    {
      "channel": 4,
      "note": 49,
      "start": 21.9482,
      "duration": 0.047,
      "velocity": 79,
      "chip": "ym2612"
    },
    {
      "channel": 3,
      "note": 54,
      "start": 21.95,
      "duration": 0.0094,
      "velocity": 92,
      "chip": "ym2612"
    },
    {
      "channel": 1,
      "note": 49,
      "start": 21.9536,
      "duration": 0.0414,
      "velocity": 92,
      "chip": "ym2612"
    },
    {
      "channel": 4,
      "note": 54,
      "start": 21.9982,
      "duration": 0.04,
      "velocity": 79,
      "chip": "ym2612"
    },
    {
      "channel": 3,
      "note": 64,
      "start": 22.0009,
      "duration": 0.0099,
      "velocity": 92,
      "chip": "ym2612"
    },
    {
      "channel": 1,
      "note": 47,
      "start": 22.0036,
      "duration": 0.0343,
      "velocity": 92,
      "chip": "ym2612"
    },
    {
      "channel": 4,
      "note": 52,
      "start": 22.0769,
      "duration": 0.1425,
      "velocity": 79,
      "chip": "ym2612"
    },
    {
      "channel": 3,
      "note": 64,
      "start": 22.0791,
      "duration": 0.0256,
      "velocity": 92,
      "chip": "ym2612"
    },
    {
      "channel": 1,
      "note": 45,
      "start": 22.0815,
      "duration": 0.073,
      "velocity": 92,
      "chip": "ym2612"
    },
    {
      "channel": 2,
      "note": 59,
      "start": 22.21,
      "duration": 0.0521,
      "velocity": 79,
      "chip": "ym2612"
    },
    {
      "channel": 1,
      "note": 42,
      "start": 22.2131,
      "duration": 0.0276,
      "velocity": 92,
      "chip": "ym2612"
    },
    {
      "channel": 4,
      "note": 49,
      "start": 22.2662,
      "duration": 0.0262,
      "velocity": 79,
      "chip": "ym2612"
    },
    {
      "channel": 3,
      "note": 54,
      "start": 22.268,
      "duration": 0.0038,
      "velocity": 92,
      "chip": "ym2612"
    },
    {
      "channel": 2,
      "note": 74,
      "start": 22.2701,
      "duration": 0.0153,
      "velocity": 112,
      "chip": "ym2612"
    },
    {
      "channel": 4,
      "note": 57,
      "start": 22.3162,
      "duration": 0.0339,
      "velocity": 79,
      "chip": "ym2612"
    },
    {
      "channel": 3,
      "note": 61,
      "start": 22.3181,
      "duration": 0.0106,
      "velocity": 92,
      "chip": "ym2612"
    },
    {
      "channel": 0,
      "note": 42,
      "start": 22.3216,
      "duration": 0.007,
      "velocity": 116,
      "chip": "ym2612"
    },
    {
      "channel": 1,
      "note": 45,
      "start": 22.3235,
      "duration": 0.2091,
      "velocity": 92,
      "chip": "ym2612"
    },
    {
      "channel": 4,
      "note": 47,
      "start": 22.368,
      "duration": 0.026,
      "velocity": 79,
      "chip": "ym2612"
    },
    {
      "channel": 3,
      "note": 61,
      "start": 22.3707,
      "duration": 0.0022,
      "velocity": 92,
      "chip": "ym2612"
    },
    {
      "channel": 4,
      "note": 54,
      "start": 22.4203,
      "duration": 0.096,
      "velocity": 79,
      "chip": "ym2612"
    },
    {
      "channel": 2,
      "note": 81,
      "start": 22.4224,
      "duration": 0.0107,
      "velocity": 27,
      "chip": "ym2612"
    },
    {
      "channel": 4,
      "note": 52,
      "start": 22.5212,
      "duration": 0.1115,
      "velocity": 79,
      "chip": "ym2612"
    },
    {
      "channel": 3,
      "note": 54,
      "start": 22.5234,
      "duration": 0.0095,
      "velocity": 92,
      "chip": "ym2612"
    },
    {
      "channel": 4,
      "note": 45,
      "start": 22.6379,
      "duration": 0.0949,
      "velocity": 79,
      "chip": "ym2612"
    },
    {
      "channel": 3,
      "note": 59,
      "start": 22.6399,
      "duration": 0.0098,
      "velocity": 92,
      "chip": "ym2612"
    },
    {
      "channel": 0,
      "note": 42,
      "start": 22.6422,
      "duration": 0.1237,
      "velocity": 116,
      "chip": "ym2612"
    },
    {
      "channel": 1,
      "note": 42,
      "start": 22.6452,
      "duration": 0.0708,
      "velocity": 92,
      "chip": "ym2612"
    },
    {
      "channel": 3,
      "note": 59,
      "start": 22.7533,
      "duration": 0.0128,
      "velocity": 92,
      "chip": "ym2612"
    },
    {
      "channel": 4,
      "note": 54,
      "start": 22.8699,
      "duration": 0.0463,
      "velocity": 79,
      "chip": "ym2612"
    },
    {
      "channel": 2,
      "note": 74,
      "start": 22.8726,
      "duration": 0.0158,
      "velocity": 112,
      "chip": "ym2612"
    },
    {
      "channel": 1,
      "note": 42,
      "start": 22.8747,
      "duration": 0.0491,
      "velocity": 92,
      "chip": "ym2612"
    },
    {
      "channel": 4,
      "note": 49,
      "start": 22.9259,
      "duration": 0.0347,
      "velocity": 79,
      "chip": "ym2612"
    },
    {
      "channel": 3,
      "note": 54,
      "start": 22.9287,
      "duration": 0.0059,
      "velocity": 92,
      "chip": "ym2612"
    },
    {
      "channel": 2,
      "note": 74,
      "start": 22.9309,
      "duration": 0.0156,
      "velocity": 112,
      "chip": "ym2612"
    },
    {
      "channel": 4,
      "note": 52,
      "start": 22.9781,
      "duration": 0.0342,
      "velocity": 79,
      "chip": "ym2612"
    },
    {
      "channel": 3,
      "note": 57,
      "start": 22.9797,
      "duration": 0.0081,
      "velocity": 92,
      "chip": "ym2612"
    },
    {
      "channel": 1,
      "note": 40,
      "start": 22.9832,
      "duration": 0.0364,
      "velocity": 92,
      "chip": "ym2612"
    },
    {
      "channel": 4,
      "note": 47,
      "start": 23.0292,
      "duration": 0.0338,
      "velocity": 79,
      "chip": "ym2612"
    },
    {
      "channel": 3,
      "note": 57,
      "start": 23.0315,
      "duration": 0.0031,
      "velocity": 92,
      "chip": "ym2612"
    },
    {
      "channel": 4,
      "note": 57,
      "start": 23.0789,
      "duration": 0.0342,
      "velocity": 79,
      "chip": "ym2612"
    },
    {
      "channel": 1,
      "note": 40,
      "start": 23.081,
      "duration": 0.0393,
      "velocity": 92,
      "chip": "ym2612"
    },
    {
      "channel": 4,
      "note": 52,
      "start": 23.1312,
      "duration": 0.0468,
      "velocity": 79,
      "chip": "ym2612"
    },
    {
      "channel": 3,
      "note": 54,
      "start": 23.1341,
      "duration": 0.0045,
      "velocity": 92,
      "chip": "ym2612"
    },
    {
      "channel": 4,
      "note": 54,
      "start": 23.1811,
      "duration": 0.0337,
      "velocity": 79,
      "chip": "ym2612"
    },
    {
      "channel": 3,
      "note": 59,
      "start": 23.183,
      "duration": 0.0066,
      "velocity": 92,
      "chip": "ym2612"
    },
    {
      "channel": 0,
      "note": 42,
      "start": 23.186,
      "duration": 0.0526,
      "velocity": 116,
      "chip": "ym2612"
    },
    {
      "channel": 1,
      "note": 38,
      "start": 23.1885,
      "duration": 0.0403,
      "velocity": 92,
      "chip": "ym2612"
    },
    {
      "channel": 4,
      "note": 49,
      "start": 23.2317,
      "duration": 0.0737,
      "velocity": 79,
      "chip": "ym2612"
    },
    {
      "channel": 3,
      "note": 59,
      "start": 23.2346,
      "duration": 0.0041,
      "velocity": 92,
      "chip": "ym2612"
    },
    {
      "channel": 4,
      "note": 59,
      "start": 23.3438,
      "duration": 0.1118,
      "velocity": 79,
      "chip": "ym2612"
    },
    {
      "channel": 0,
      "note": 42,
      "start": 23.346,
      "duration": 0.1249,
      "velocity": 116,
      "chip": "ym2612"
    },
    {
      "channel": 1,
      "note": 38,
      "start": 23.3483,
      "duration": 0.107,
      "velocity": 92,
      "chip": "ym2612"
    },
    {
      "channel": 4,
      "note": 52,
      "start": 23.4605,
      "duration": 0.0528,
      "velocity": 79,
      "chip": "ym2612"
    },
    {
      "channel": 3,
      "note": 54,
      "start": 23.4626,
      "duration": 0.0085,
      "velocity": 92,
      "chip": "ym2612"
    },
    {
      "channel": 2,
      "note": 74,
      "start": 23.465,
      "duration": 0.0266,
      "velocity": 112,
      "chip": "ym2612"
    },
    {
      "channel": 4,
      "note": 57,
      "start": 23.5175,
      "duration": 0.0405,
      "velocity": 79,
      "chip": "ym2612"
    },
    {
      "channel": 3,
      "note": 61,
      "start": 23.5192,
      "duration": 0.0106,
      "velocity": 92,
      "chip": "ym2612"
    },
    {
      "channel": 1,
      "note": 37,
      "start": 23.5216,
      "duration": 0.0358,
      "velocity": 92,
      "chip": "ym2612"
    },
    {
      "channel": 4,
      "note": 49,
      "start": 23.569,
      "duration": 0.0411,
      "velocity": 79,
      "chip": "ym2612"
    },
    {
      "channel": 3,
      "note": 61,
      "start": 23.5709,
      "duration": 0.0108,
      "velocity": 92,
      "chip": "ym2612"
    },
    {
      "channel": 4,
      "note": 54,
      "start": 23.6208,
      "duration": 0.047,
      "velocity": 79,
      "chip": "ym2612"
    },
    {
      "channel": 3,
      "note": 59,
      "start": 23.6226,
      "duration": 0.0101,
      "velocity": 92,
      "chip": "ym2612"
    },
    {
      "channel": 1,
      "note": 37,
      "start": 23.6266,
      "duration": 0.0341,
      "velocity": 92,
      "chip": "ym2612"
    },
    {
      "channel": 4,
      "note": 52,
      "start": 23.672,
      "duration": 0.0312,
      "velocity": 79,
      "chip": "ym2612"
    },
    {
      "channel": 0,
      "note": 42,
      "start": 23.73,
      "duration": 0.1219,
      "velocity": 116,
      "chip": "ym2612"
    },
    {
      "channel": 1,
      "note": 54,
      "start": 23.7396,
      "duration": 0.179,
      "velocity": 127,
      "chip": "ym2612"
    },
    {
      "channel": 2,
      "note": 69,
      "start": 23.7515,
      "duration": 0.2008,
      "velocity": 84,
      "chip": "ym2612"
    },
    {
      "channel": 1,
      "note": 49,
      "start": 23.9564,
      "duration": 0.2122,
      "velocity": 127,
      "chip": "ym2612"
    },
    {
      "channel": 2,
      "note": 66,
      "start": 23.9589,
      "duration": 0.2768,
      "velocity": 84,
      "chip": "ym2612"
    },
    {
      "channel": 1,
      "note": 52,
      "start": 24.1907,
      "duration": 0.2113,
      "velocity": 127,
      "chip": "ym2612"
    },
    {
      "channel": 3,
      "note": 73,
      "start": 24.193,
      "duration": 0.2591,
      "velocity": 84,
      "chip": "ym2612"
    },
    {
      "channel": 1,
      "note": 53,
      "start": 24.423,
      "duration": 0.2123,
      "velocity": 127,
      "chip": "ym2612"
    },
    {
      "channel": 2,
      "note": 69,
      "start": 24.4254,
      "duration": 0.2104,
      "velocity": 84,
      "chip": "ym2612"
    },
    {
      "channel": 1,
      "note": 54,
      "start": 24.6563,
      "duration": 0.2123,
      "velocity": 127,
      "chip": "ym2612"
    },
    {
      "channel": 3,
      "note": 66,
      "start": 24.6584,
      "duration": 0.2603,
      "velocity": 84,
      "chip": "ym2612"
    },
    {
      "channel": 0,
      "note": 42,
      "start": 24.8894,
      "duration": 0.1291,
      "velocity": 116,
      "chip": "ym2612"
    },
    {
      "channel": 1,
      "note": 61,
      "start": 24.8916,
      "duration": 0.2103,
      "velocity": 127,
      "chip": "ym2612"
    },
    {
      "channel": 2,
      "note": 71,
      "start": 24.894,
      "duration": 0.2418,
      "velocity": 84,
      "chip": "ym2612"
    },
    {
      "channel": 1,
      "note": 64,
      "start": 25.1237,
      "duration": 0.2116,
      "velocity": 127,
      "chip": "ym2612"
    },
    {
      "channel": 3,
      "note": 68,
      "start": 25.1258,
      "duration": 0.2263,
      "velocity": 84,
      "chip": "ym2612"
    },
    {
      "channel": 1,
      "note": 65,
      "start": 25.3565,
      "duration": 0.2122,
      "velocity": 127,
      "chip": "ym2612"
    },
    {
      "channel": 3,
      "note": 64,
      "start": 25.3585,
      "duration": 0.2268,
      "velocity": 84,
      "chip": "ym2612"
    },
    {
      "channel": 0,
      "note": 42,
      "start": 25.5895,
      "duration": 0.1291,
      "velocity": 116,
      "chip": "ym2612"
    },
    {
      "channel": 1,
      "note": 66,
      "start": 25.5917,
      "duration": 0.2102,
      "velocity": 127,
      "chip": "ym2612"
    },
    {
      "channel": 3,
      "note": 69,
      "start": 25.5937,
      "duration": 0.225,
      "velocity": 84,
      "chip": "ym2612"
    },
    {
      "channel": 1,
      "note": 61,
      "start": 25.823,
      "duration": 0.2123,
      "velocity": 127,
      "chip": "ym2612"
    },
    {
      "channel": 3,
      "note": 66,
      "start": 25.8251,
      "duration": 0.2602,
      "velocity": 84,
      "chip": "ym2612"
    },
    {
      "channel": 1,
      "note": 64,
      "start": 26.057,
      "duration": 0.2117,
      "velocity": 127,
      "chip": "ym2612"
    },
    {
      "channel": 2,
      "note": 62,
      "start": 26.0594,
      "duration": 0.2763,
      "velocity": 84,
      "chip": "ym2612"
    },
    {
      "channel": 1,
      "note": 65,
      "start": 26.3064,
      "duration": 0.1955,
      "velocity": 127,
      "chip": "ym2612"
    },
    {
      "channel": 3,
      "note": 69,
      "start": 26.3084,
      "duration": 0.2602,
      "velocity": 84,
      "chip": "ym2612"
    },
    {
      "channel": 1,
      "note": 66,
      "start": 26.5396,
      "duration": 0.2123,
      "velocity": 127,
      "chip": "ym2612"
    },
    {
      "channel": 2,
      "note": 68,
      "start": 26.542,
      "duration": 0.2436,
      "velocity": 84,
      "chip": "ym2612"
    },
    {
      "channel": 0,
      "note": 42,
      "start": 26.7727,
      "duration": 0.1291,
      "velocity": 116,
      "chip": "ym2612"
    },
    {
      "channel": 1,
      "note": 61,
      "start": 26.7749,
      "duration": 0.2104,
      "velocity": 127,
      "chip": "ym2612"
    },
    {
      "channel": 3,
      "note": 64,
      "start": 26.7771,
      "duration": 0.2249,
      "velocity": 84,
      "chip": "ym2612"
    },
    {
      "channel": 1,
      "note": 59,
      "start": 27.0071,
      "duration": 0.2115,
      "velocity": 127,
      "chip": "ym2612"
    },
    {
      "channel": 3,
      "note": 61,
      "start": 27.0093,
      "duration": 0.2597,
      "velocity": 84,
      "chip": "ym2612"
    },
    {
      "channel": 0,
      "note": 42,
      "start": 27.2395,
      "duration": 0.1292,
      "velocity": 116,
      "chip": "ym2612"
    },
    {
      "channel": 1,
      "note": 57,
      "start": 27.2417,
      "duration": 0.2103,
      "velocity": 127,
      "chip": "ym2612"
    },
    {
      "channel": 2,
      "note": 64,
      "start": 27.2445,
      "duration": 0.2079,
      "velocity": 84,
      "chip": "ym2612"
    },
    {
      "channel": 4,
      "note": 66,
      "start": 27.4729,
      "duration": 0.0294,
      "velocity": 119,
      "chip": "ym2612"
    },
    {
      "channel": 0,
      "note": 42,
      "start": 27.475,
      "duration": 0.1269,
      "velocity": 116,
      "chip": "ym2612"
    },
    {
      "channel": 1,
      "note": 54,
      "start": 27.4772,
      "duration": 0.2081,
      "velocity": 127,
      "chip": "ym2612"
    },
    {
      "channel": 3,
      "note": 66,
      "start": 27.4794,
      "duration": 0.2227,
      "velocity": 84,
      "chip": "ym2612"
    },
    {
      "channel": 4,
      "note": 66,
      "start": 27.5893,
      "duration": 0.0294,
      "velocity": 119,
      "chip": "ym2612"
    },
    {
      "channel": 1,
      "note": 49,
      "start": 27.7064,
      "duration": 0.2123,
      "velocity": 127,
      "chip": "ym2612"
    },
    {
      "channel": 3,
      "note": 61,
      "start": 27.7085,
      "duration": 0.2104,
      "velocity": 84,
      "chip": "ym2612"
    },
    {
      "channel": 4,
      "note": 66,
      "start": 27.8227,
      "duration": 0.0294,
      "velocity": 119,
      "chip": "ym2612"
    },
    {
      "channel": 4,
      "note": 78,
      "start": 27.9391,
      "duration": 0.0466,
      "velocity": 119,
      "chip": "ym2612"
    },
    {
      "channel": 1,
      "note": 52,
      "start": 27.9423,
      "duration": 0.2097,
      "velocity": 127,
      "chip": "ym2612"
    },
    {
      "channel": 3,
      "note": 73,
      "start": 27.9445,
      "duration": 0.241,
      "velocity": 84,
      "chip": "ym2612"
    },
    {
      "channel": 4,
      "note": 78,
      "start": 28.0561,
      "duration": 0.0463,
      "velocity": 119,
      "chip": "ym2612"
    },
    {
      "channel": 1,
      "note": 53,
      "start": 28.173,
      "duration": 0.2123,
      "velocity": 127,
      "chip": "ym2612"
    },
    {
      "channel": 2,
      "note": 69,
      "start": 28.1754,
      "duration": 0.227,
      "velocity": 84,
      "chip": "ym2612"
    },
    {
      "channel": 4,
      "note": 66,
      "start": 28.2893,
      "duration": 0.0461,
      "velocity": 119,
      "chip": "ym2612"
    },
    {
      "channel": 4,
      "note": 76,
      "start": 28.4059,
      "duration": 0.0461,
      "velocity": 119,
      "chip": "ym2612"
    },
    {
      "channel": 1,
      "note": 54,
      "start": 28.4083,
      "duration": 0.2102,
      "velocity": 127,
      "chip": "ym2612"
    },
    {
      "channel": 3,
      "note": 66,
      "start": 28.4105,
      "duration": 0.2083,
      "velocity": 84,
      "chip": "ym2612"
    },
    {
      "channel": 4,
      "note": 76,
      "start": 28.5227,
      "duration": 0.0461,
      "velocity": 119,
      "chip": "ym2612"
    },
    {
      "channel": 0,
      "note": 42,
      "start": 28.6393,
      "duration": 0.1459,
      "velocity": 116,
      "chip": "ym2612"
    },
    {
      "channel": 1,
      "note": 61,
      "start": 28.6415,
      "duration": 0.2104,
      "velocity": 127,
      "chip": "ym2612"
    },
    {
      "channel": 3,
      "note": 71,
      "start": 28.6437,
      "duration": 0.2417,
      "velocity": 84,
      "chip": "ym2612"
    },
    {
      "channel": 4,
      "note": 66,
      "start": 28.7727,
      "duration": 0.0295,
      "velocity": 119,
      "chip": "ym2612"
    },
    {
      "channel": 4,
      "note": 73,
      "start": 28.8893,
      "duration": 0.0298,
      "velocity": 119,
      "chip": "ym2612"
    },
    {
      "channel": 1,
      "note": 64,
      "start": 28.8927,
      "duration": 0.1926,
      "velocity": 127,
      "chip": "ym2612"
    },
    {
      "channel": 3,
      "note": 68,
      "start": 28.8947,
      "duration": 0.224,
      "velocity": 84,
      "chip": "ym2612"
    },
    {
      "channel": 4,
      "note": 73,
      "start": 29.0059,
      "duration": 0.0298,
      "velocity": 119,
      "chip": "ym2612"
    },
    {
      "channel": 4,
      "note": 71,
      "start": 29.1228,
      "duration": 0.0296,
      "velocity": 119,
      "chip": "ym2612"
    },
    {
      "channel": 1,
      "note": 65,
      "start": 29.1252,
      "duration": 0.2101,
      "velocity": 127,
      "chip": "ym2612"
    },
    {
      "channel": 3,
      "note": 64,
      "start": 29.1273,
      "duration": 0.2081,
      "velocity": 84,
      "chip": "ym2612"
    },
    {
      "channel": 4,
      "note": 66,
      "start": 29.356,
      "duration": 0.0183,
      "velocity": 119,
      "chip": "ym2612"
    },
    {
      "channel": 0,
      "note": 42,
      "start": 29.3581,
      "duration": 0.0585,
      "velocity": 116,
      "chip": "ym2612"
    },
    {
      "channel": 1,
      "note": 66,
      "start": 29.3603,
      "duration": 0.0913,
      "velocity": 127,
      "chip": "ym2612"
    },
    {
      "channel": 3,
      "note": 69,
      "start": 29.3625,
      "duration": 0.0964,
      "velocity": 84,
      "chip": "ym2612"
    },
    {
      "channel": 1,
      "note": 61,
      "start": 29.4613,
      "duration": 0.0909,
      "velocity": 127,
      "chip": "ym2612"
    },
    {
      "channel": 3,
      "note": 66,
      "start": 29.4631,
      "duration": 0.1075,
      "velocity": 84,
      "chip": "ym2612"
    },
    {
      "channel": 1,
      "note": 64,
      "start": 29.5632,
      "duration": 0.0915,
      "velocity": 127,
      "chip": "ym2612"
    },
    {
      "channel": 2,
      "note": 62,
      "start": 29.565,
      "duration": 0.1138,
      "velocity": 84,
      "chip": "ym2612"
    },
    {
      "channel": 1,
      "note": 65,
      "start": 29.6658,
      "duration": 0.0907,
      "velocity": 127,
      "chip": "ym2612"
    },
    {
      "channel": 3,
      "note": 69,
      "start": 29.6676,
      "duration": 0.1073,
      "velocity": 84,
      "chip": "ym2612"
    },
    {
      "channel": 0,
      "note": 42,
      "start": 29.7659,
      "duration": 0.0546,
      "velocity": 116,
      "chip": "ym2612"
    },
    {
      "channel": 1,
      "note": 66,
      "start": 29.7679,
      "duration": 0.0886,
      "velocity": 127,
      "chip": "ym2612"
    },
    {
      "channel": 2,
      "note": 68,
      "start": 29.7698,
      "duration": 0.0944,
      "velocity": 84,
      "chip": "ym2612"
    },
    {
      "channel": 4,
      "note": 76,
      "start": 29.8158,
      "duration": 0.0196,
      "velocity": 119,
      "chip": "ym2612"
    },
    {
      "channel": 0,
      "note": 42,
      "start": 29.8673,
      "duration": 0.055,
      "velocity": 116,
      "chip": "ym2612"
    },
    {
      "channel": 1,
      "note": 61,
      "start": 29.8693,
      "duration": 0.088,
      "velocity": 127,
      "chip": "ym2612"
    },
    {
      "channel": 3,
      "note": 64,
      "start": 29.8711,
      "duration": 0.0932,
      "velocity": 84,
      "chip": "ym2612"
    },
    {
      "channel": 4,
      "note": 66,
      "start": 29.9176,
      "duration": 0.0188,
      "velocity": 119,
      "chip": "ym2612"
    },
    {
      "channel": 4,
      "note": 73,
      "start": 29.9676,
      "duration": 0.0194,
      "velocity": 119,
      "chip": "ym2612"
    },
    {
      "channel": 1,
      "note": 59,
      "start": 29.9701,
      "duration": 0.0899,
      "velocity": 127,
      "chip": "ym2612"
    },
    {
      "channel": 3,
      "note": 61,
      "start": 29.9723,
      "duration": 0.1126,
      "velocity": 84,
      "chip": "ym2612"
    },
    {
      "channel": 4,
      "note": 73,
      "start": 30.0178,
      "duration": 0.02,
      "velocity": 119,
      "chip": "ym2612"
    },
    {
      "channel": 4,
      "note": 71,
      "start": 30.0704,
      "duration": 0.0223,
      "velocity": 119,
      "chip": "ym2612"
    },
    {
      "channel": 2,
      "note": 49,
      "start": 30.0727,
      "duration": 0.0842,
      "velocity": 90,
      "chip": "ym2612"
    },
    {
      "channel": 1,
      "note": 57,
      "start": 30.0746,
      "duration": 0.089,
      "velocity": 127,
      "chip": "ym2612"
    },
    {
      "channel": 4,
      "note": 69,
      "start": 30.1238,
      "duration": 0.0192,
      "velocity": 119,
      "chip": "ym2612"
    },
    {
      "channel": 4,
      "note": 42,
      "start": 30.176,
      "duration": 0.0327,
      "velocity": 92,
      "chip": "ym2612"
    },
    {
      "channel": 2,
      "note": 54,
      "start": 30.1783,
      "duration": 3.514,
      "velocity": 90,
      "chip": "ym2612"
    },
    {
      "channel": 0,
      "note": 42,
      "start": 30.1801,
      "duration": 0.1284,
      "velocity": 116,
      "chip": "ym2612"
    },
    {
      "channel": 1,
      "note": 54,
      "start": 30.1839,
      "duration": 0.1913,
      "velocity": 127,
      "chip": "ym2612"
    },
    {
      "channel": 3,
      "note": 52,
      "start": 30.4128,
      "duration": 0.0125,
      "velocity": 79,
      "chip": "ym2612"
    },
    {
      "channel": 1,
      "note": 49,
      "start": 30.4154,
      "duration": 0.1932,
      "velocity": 127,
      "chip": "ym2612"
    },
    {
      "channel": 3,
      "note": 49,
      "start": 30.5291,
      "duration": 0.0629,
      "velocity": 79,
      "chip": "ym2612"
    },
    {
      "channel": 4,
      "note": 42,
      "start": 30.5313,
      "duration": 0.0273,
      "velocity": 92,
      "chip": "ym2612"
    },
    {
      "channel": 3,
      "note": 54,
      "start": 30.6458,
      "duration": 0.0631,
      "velocity": 79,
      "chip": "ym2612"
    },
    {
      "channel": 4,
      "note": 54,
      "start": 30.6478,
      "duration": 0.0278,
      "velocity": 92,
      "chip": "ym2612"
    },
    {
      "channel": 1,
      "note": 52,
      "start": 30.651,
      "duration": 0.2076,
      "velocity": 127,
      "chip": "ym2612"
    },
    {
      "channel": 4,
      "note": 54,
      "start": 30.7627,
      "duration": 0.0295,
      "velocity": 92,
      "chip": "ym2612"
    },
    {
      "channel": 3,
      "note": 54,
      "start": 30.8805,
      "duration": 0.0952,
      "velocity": 79,
      "chip": "ym2612"
    },
    {
      "channel": 1,
      "note": 53,
      "start": 30.8837,
      "duration": 0.2083,
      "velocity": 127,
      "chip": "ym2612"
    },
    {
      "channel": 4,
      "note": 42,
      "start": 30.9961,
      "duration": 0.0293,
      "velocity": 92,
      "chip": "ym2612"
    },
    {
      "channel": 3,
      "note": 52,
      "start": 31.1125,
      "duration": 0.1129,
      "velocity": 79,
      "chip": "ym2612"
    },
    {
      "channel": 4,
      "note": 52,
      "start": 31.1145,
      "duration": 0.0276,
      "velocity": 92,
      "chip": "ym2612"
    },
    {
      "channel": 1,
      "note": 54,
      "start": 31.117,
      "duration": 0.2083,
      "velocity": 127,
      "chip": "ym2612"
    },
    {
      "channel": 4,
      "note": 52,
      "start": 31.2294,
      "duration": 0.0293,
      "velocity": 92,
      "chip": "ym2612"
    },
    {
      "channel": 3,
      "note": 52,
      "start": 31.3471,
      "duration": 0.0949,
      "velocity": 79,
      "chip": "ym2612"
    },
    {
      "channel": 0,
      "note": 42,
      "start": 31.3493,
      "duration": 0.1259,
      "velocity": 116,
      "chip": "ym2612"
    },
    {
      "channel": 1,
      "note": 61,
      "start": 31.3522,
      "duration": 0.2064,
      "velocity": 127,
      "chip": "ym2612"
    },
    {
      "channel": 4,
      "note": 42,
      "start": 31.4626,
      "duration": 0.0294,
      "velocity": 92,
      "chip": "ym2612"
    },
    {
      "channel": 3,
      "note": 49,
      "start": 31.5791,
      "duration": 0.1462,
      "velocity": 79,
      "chip": "ym2612"
    },
    {
      "channel": 4,
      "note": 49,
      "start": 31.5812,
      "duration": 0.0278,
      "velocity": 92,
      "chip": "ym2612"
    },
    {
      "channel": 1,
      "note": 64,
      "start": 31.5844,
      "duration": 0.2076,
      "velocity": 127,
      "chip": "ym2612"
    },
    {
      "channel": 4,
      "note": 49,
      "start": 31.6959,
      "duration": 0.0298,
      "velocity": 92,
      "chip": "ym2612"
    },
    {
      "channel": 3,
      "note": 47,
      "start": 31.813,
      "duration": 0.129,
      "velocity": 79,
      "chip": "ym2612"
    },
    {
      "channel": 4,
      "note": 47,
      "start": 31.8151,
      "duration": 0.0272,
      "velocity": 92,
      "chip": "ym2612"
    },
    {
      "channel": 1,
      "note": 65,
      "start": 31.8181,
      "duration": 0.2071,
      "velocity": 127,
      "chip": "ym2612"
    },
    {
      "channel": 4,
      "note": 45,
      "start": 31.9293,
      "duration": 0.0463,
      "velocity": 92,
      "chip": "ym2612"
    },
    {
      "channel": 3,
      "note": 49,
      "start": 32.047,
      "duration": 0.1284,
      "velocity": 79,
      "chip": "ym2612"
    },
    {
      "channel": 4,
      "note": 42,
      "start": 32.0491,
      "duration": 0.0431,
      "velocity": 92,
      "chip": "ym2612"
    },
    {
      "channel": 0,
      "note": 42,
      "start": 32.0513,
      "duration": 0.1239,
      "velocity": 116,
      "chip": "ym2612"
    },
    {
      "channel": 1,
      "note": 66,
      "start": 32.0535,
      "duration": 0.205,
      "velocity": 127,
      "chip": "ym2612"
    },
    {
      "channel": 3,
      "note": 52,
      "start": 32.2793,
      "duration": 0.0793,
      "velocity": 79,
      "chip": "ym2612"
    },
    {
      "channel": 1,
      "note": 61,
      "start": 32.2823,
      "duration": 0.2097,
      "velocity": 127,
      "chip": "ym2612"
    },
    {
      "channel": 3,
      "note": 49,
      "start": 32.3957,
      "duration": 0.0795,
      "velocity": 79,
      "chip": "ym2612"
    },
    {
      "channel": 4,
      "note": 42,
      "start": 32.3979,
      "duration": 0.0443,
      "velocity": 92,
      "chip": "ym2612"
    },
    {
      "channel": 3,
      "note": 54,
      "start": 32.5126,
      "duration": 0.0961,
      "velocity": 79,
      "chip": "ym2612"
    },
    {
      "channel": 4,
      "note": 54,
      "start": 32.5146,
      "duration": 0.0443,
      "velocity": 92,
      "chip": "ym2612"
    },
    {
      "channel": 1,
      "note": 64,
      "start": 32.5185,
      "duration": 0.2069,
      "velocity": 127,
      "chip": "ym2612"
    },
    {
      "channel": 4,
      "note": 54,
      "start": 32.6298,
      "duration": 0.0457,
      "velocity": 92,
      "chip": "ym2612"
    },
    {
      "channel": 3,
      "note": 54,
      "start": 32.7471,
      "duration": 0.1286,
      "velocity": 79,
      "chip": "ym2612"
    },
    {
      "channel": 1,
      "note": 65,
      "start": 32.7503,
      "duration": 0.2083,
      "velocity": 127,
      "chip": "ym2612"
    },
    {
      "channel": 4,
      "note": 42,
      "start": 32.8795,
      "duration": 0.0291,
      "velocity": 92,
      "chip": "ym2612"
    },
    {
      "channel": 3,
      "note": 52,
      "start": 32.9957,
      "duration": 0.1129,
      "velocity": 79,
      "chip": "ym2612"
    },
    {
      "channel": 4,
      "note": 52,
      "start": 32.9977,
      "duration": 0.0276,
      "velocity": 92,
      "chip": "ym2612"
    },
    {
      "channel": 1,
      "note": 66,
      "start": 33.0001,
      "duration": 0.1917,
      "velocity": 127,
      "chip": "ym2612"
    },
    {
      "channel": 4,
      "note": 52,
      "start": 33.1127,
      "duration": 0.0293,
      "velocity": 92,
      "chip": "ym2612"
    },
    {
      "channel": 3,
      "note": 49,
      "start": 33.2291,
      "duration": 0.1298,
      "velocity": 79,
      "chip": "ym2612"
    },
    {
      "channel": 0,
      "note": 42,
      "start": 33.2314,
      "duration": 0.1272,
      "velocity": 116,
      "chip": "ym2612"
    },
    {
      "channel": 1,
      "note": 61,
      "start": 33.2344,
      "duration": 0.4409,
      "velocity": 127,
      "chip": "ym2612"
    },
    {
      "channel": 4,
      "note": 40,
      "start": 33.346,
      "duration": 0.0294,
      "velocity": 92,
      "chip": "ym2612"
    },
    {
      "channel": 3,
      "note": 57,
      "start": 33.4624,
      "duration": 0.0963,
      "velocity": 79,
      "chip": "ym2612"
    },
    {
      "channel": 4,
      "note": 49,
      "start": 33.4644,
      "duration": 0.0279,
      "velocity": 92,
      "chip": "ym2612"
    },
    {
      "channel": 5,
      "note": 54,
      "start": 33.4686,
      "duration": 0.2071,
      "velocity": 127,
      "chip": "ym2612"
    },
    {
      "channel": 4,
      "note": 49,
      "start": 33.5792,
      "duration": 0.0298,
      "velocity": 92,
      "chip": "ym2612"
    },
    {
      "channel": 3,
      "note": 57,
      "start": 33.6972,
      "duration": 0.1115,
      "velocity": 79,
      "chip": "ym2612"
    },
    {
      "channel": 4,
      "note": 47,
      "start": 33.6993,
      "duration": 0.0263,
      "velocity": 92,
      "chip": "ym2612"
    },
    {
      "channel": 2,
      "note": 49,
      "start": 33.7018,
      "duration": 0.2072,
      "velocity": 90,
      "chip": "ym2612"
    },
    {
      "channel": 1,
      "note": 53,
      "start": 33.7047,
      "duration": 0.2038,
      "velocity": 127,
      "chip": "ym2612"
    },
    {
      "channel": 4,
      "note": 45,
      "start": 33.8126,
      "duration": 0.0293,
      "velocity": 92,
      "chip": "ym2612"
    },
    {
      "channel": 4,
      "note": 42,
      "start": 33.9293,
      "duration": 0.0296,
      "velocity": 92,
      "chip": "ym2612"
    },
    {
      "channel": 2,
      "note": 42,
      "start": 33.9321,
      "duration": 3.1088,
      "velocity": 90,
      "chip": "ym2612"
    },
    {
      "channel": 0,
      "note": 42,
      "start": 33.9346,
      "duration": 0.1239,
      "velocity": 116,
      "chip": "ym2612"
    },
    {
      "channel": 1,
      "note": 54,
      "start": 33.9368,
      "duration": 0.2051,
      "velocity": 127,
      "chip": "ym2612"
    },
    {
      "channel": 3,
      "note": 52,
      "start": 34.1631,
      "duration": 0.0622,
      "velocity": 79,
      "chip": "ym2612"
    },
    {
      "channel": 4,
      "note": 42,
      "start": 34.1654,
      "duration": 0.0266,
      "velocity": 92,
      "chip": "ym2612"
    },
    {
      "channel": 0,
      "note": 42,
      "start": 34.1674,
      "duration": 0.1244,
      "velocity": 116,
      "chip": "ym2612"
    },
    {
      "channel": 1,
      "note": 49,
      "start": 34.1703,
      "duration": 0.2049,
      "velocity": 127,
      "chip": "ym2612"
    },
    {
      "channel": 3,
      "note": 49,
      "start": 34.2791,
      "duration": 0.0795,
      "velocity": 79,
      "chip": "ym2612"
    },
    {
      "channel": 4,
      "note": 42,
      "start": 34.2812,
      "duration": 0.0276,
      "velocity": 92,
      "chip": "ym2612"
    },
    {
      "channel": 3,
      "note": 54,
      "start": 34.3958,
      "duration": 0.0796,
      "velocity": 79,
      "chip": "ym2612"
    },
    {
      "channel": 4,
      "note": 54,
      "start": 34.3978,
      "duration": 0.0278,
      "velocity": 92,
      "chip": "ym2612"
    },
    {
      "channel": 1,
      "note": 52,
      "start": 34.401,
      "duration": 0.2076,
      "velocity": 127,
      "chip": "ym2612"
    },
    {
      "channel": 4,
      "note": 54,
      "start": 34.5127,
      "duration": 0.0462,
      "velocity": 92,
      "chip": "ym2612"
    },
    {
      "channel": 3,
      "note": 54,
      "start": 34.6304,
      "duration": 0.1117,
      "velocity": 79,
      "chip": "ym2612"
    },
    {
      "channel": 1,
      "note": 53,
      "start": 34.6334,
      "duration": 0.2085,
      "velocity": 127,
      "chip": "ym2612"
    },
    {
      "channel": 4,
      "note": 42,
      "start": 34.7461,
      "duration": 0.0459,
      "velocity": 92,
      "chip": "ym2612"
    },
    {
      "channel": 3,
      "note": 52,
      "start": 34.8625,
      "duration": 0.0961,
      "velocity": 79,
      "chip": "ym2612"
    },
    {
      "channel": 4,
      "note": 52,
      "start": 34.8645,
      "duration": 0.0442,
      "velocity": 92,
      "chip": "ym2612"
    },
    {
      "channel": 1,
      "note": 54,
      "start": 34.8669,
      "duration": 0.2083,
      "velocity": 127,
      "chip": "ym2612"
    },
    {
      "channel": 4,
      "note": 52,
      "start": 34.9793,
      "duration": 0.046,
      "velocity": 92,
      "chip": "ym2612"
    },
    {
      "channel": 3,
      "note": 52,
      "start": 35.0969,
      "duration": 0.095,
      "velocity": 79,
      "chip": "ym2612"
    },
    {
      "channel": 0,
      "note": 42,
      "start": 35.0991,
      "duration": 0.1427,
      "velocity": 116,
      "chip": "ym2612"
    },
    {
      "channel": 1,
      "note": 61,
      "start": 35.1025,
      "duration": 0.206,
      "velocity": 127,
      "chip": "ym2612"
    },
    {
      "channel": 4,
      "note": 42,
      "start": 35.2126,
      "duration": 0.0461,
      "velocity": 92,
      "chip": "ym2612"
    },
    {
      "channel": 4,
      "note": 49,
      "start": 35.3291,
      "duration": 0.0464,
      "velocity": 92,
      "chip": "ym2612"
    },
    {
      "channel": 1,
      "note": 64,
      "start": 35.3332,
      "duration": 0.2088,
      "velocity": 127,
      "chip": "ym2612"
    },
    {
      "channel": 4,
      "note": 49,
      "start": 35.4625,
      "duration": 0.0298,
      "velocity": 92,
      "chip": "ym2612"
    },
    {
      "channel": 3,
      "note": 47,
      "start": 35.5792,
      "duration": 0.113,
      "velocity": 79,
      "chip": "ym2612"
    },
    {
      "channel": 4,
      "note": 47,
      "start": 35.5812,
      "duration": 0.0277,
      "velocity": 92,
      "chip": "ym2612"
    },
    {
      "channel": 1,
      "note": 65,
      "start": 35.5842,
      "duration": 0.2077,
      "velocity": 127,
      "chip": "ym2612"
    },
    {
      "channel": 4,
      "note": 45,
      "start": 35.6959,
      "duration": 0.0293,
      "velocity": 92,
      "chip": "ym2612"
    },
    {
      "channel": 4,
      "note": 40,
      "start": 35.8131,
      "duration": 0.0292,
      "velocity": 92,
      "chip": "ym2612"
    },
    {
      "channel": 0,
      "note": 42,
      "start": 35.8152,
      "duration": 0.1266,
      "velocity": 116,
      "chip": "ym2612"
    },
    {
      "channel": 1,
      "note": 66,
      "start": 35.818,
      "duration": 0.2073,
      "velocity": 127,
      "chip": "ym2612"
    },
    {
      "channel": 3,
      "note": 52,
      "start": 36.0471,
      "duration": 0.0449,
      "velocity": 79,
      "chip": "ym2612"
    },
    {
      "channel": 4,
      "note": 42,
      "start": 36.0491,
      "duration": 0.0263,
      "velocity": 92,
      "chip": "ym2612"
    },
    {
      "channel": 0,
      "note": 42,
      "start": 36.0512,
      "duration": 0.124,
      "velocity": 116,
      "chip": "ym2612"
    },
    {
      "channel": 1,
      "note": 61,
      "start": 36.0539,
      "duration": 0.2046,
      "velocity": 127,
      "chip": "ym2612"
    },
    {
      "channel": 3,
      "note": 49,
      "start": 36.1625,
      "duration": 0.0795,
      "velocity": 79,
      "chip": "ym2612"
    },
    {
      "channel": 3,
      "note": 54,
      "start": 36.2791,
      "duration": 0.0295,
      "velocity": 79,
      "chip": "ym2612"
    },
    {
      "channel": 4,
      "note": 42,
      "start": 36.2813,
      "duration": 0.0277,
      "velocity": 92,
      "chip": "ym2612"
    },
    {
      "channel": 0,
      "note": 42,
      "start": 36.2835,
      "duration": 0.1251,
      "velocity": 116,
      "chip": "ym2612"
    },
    {
      "channel": 1,
      "note": 64,
      "start": 36.2857,
      "duration": 0.2062,
      "velocity": 127,
      "chip": "ym2612"
    },
    {
      "channel": 3,
      "note": 54,
      "start": 36.3963,
      "duration": 0.0959,
      "velocity": 79,
      "chip": "ym2612"
    },
    {
      "channel": 4,
      "note": 54,
      "start": 36.3985,
      "duration": 0.0271,
      "velocity": 92,
      "chip": "ym2612"
    },
    {
      "channel": 3,
      "note": 52,
      "start": 36.5136,
      "duration": 0.095,
      "velocity": 79,
      "chip": "ym2612"
    },
    {
      "channel": 1,
      "note": 65,
      "start": 36.5166,
      "duration": 0.2087,
      "velocity": 127,
      "chip": "ym2612"
    },
    {
      "channel": 4,
      "note": 42,
      "start": 36.6293,
      "duration": 0.0293,
      "velocity": 92,
      "chip": "ym2612"
    },
    {
      "channel": 3,
      "note": 49,
      "start": 36.7471,
      "duration": 0.0687,
      "velocity": 79,
      "chip": "ym2612"
    },
    {
      "channel": 4,
      "note": 52,
      "start": 36.7491,
      "duration": 0.0159,
      "velocity": 92,
      "chip": "ym2612"
    },
    {
      "channel": 0,
      "note": 42,
      "start": 36.7513,
      "duration": 0.0572,
      "velocity": 116,
      "chip": "ym2612"
    },
    {
      "channel": 1,
      "note": 61,
      "start": 36.7546,
      "duration": 0.0892,
      "velocity": 127,
      "chip": "ym2612"
    },
    {
      "channel": 4,
      "note": 52,
      "start": 36.8033,
      "duration": 0.0127,
      "velocity": 92,
      "chip": "ym2612"
    },
    {
      "channel": 3,
      "note": 47,
      "start": 36.8544,
      "duration": 0.0551,
      "velocity": 79,
      "chip": "ym2612"
    },
    {
      "channel": 0,
      "note": 42,
      "start": 36.8565,
      "duration": 0.0529,
      "velocity": 116,
      "chip": "ym2612"
    },
    {
      "channel": 4,
      "note": 49,
      "start": 36.8604,
      "duration": 0.0274,
      "velocity": 119,
      "chip": "ym2612"
    },
    {
      "channel": 1,
      "note": 59,
      "start": 36.8636,
      "duration": 0.0949,
      "velocity": 127,
      "chip": "ym2612"
    },
    {
      "channel": 4,
      "note": 42,
      "start": 36.9058,
      "duration": 0.0182,
      "velocity": 92,
      "chip": "ym2612"
    },
    {
      "channel": 3,
      "note": 45,
      "start": 36.9793,
      "duration": 0.0614,
      "velocity": 79,
      "chip": "ym2612"
    },
    {
      "channel": 4,
      "note": 49,
      "start": 36.9813,
      "duration": 0.024,
      "velocity": 92,
      "chip": "ym2612"
    },
    {
      "channel": 1,
      "note": 57,
      "start": 36.9843,
      "duration": 0.0905,
      "velocity": 127,
      "chip": "ym2612"
    },
    {
      "channel": 4,
      "note": 49,
      "start": 37.0351,
      "duration": 0.0194,
      "velocity": 92,
      "chip": "ym2612"
    },
    {
      "channel": 4,
      "note": 47,
      "start": 37.0838,
      "duration": 0.0197,
      "velocity": 92,
      "chip": "ym2612"
    },
    {
      "channel": 0,
      "note": 49,
      "start": 37.0872,
      "duration": 0.0298,
      "velocity": 119,
      "chip": "ym2612"
    },
    {
      "channel": 2,
      "note": 74,
      "start": 37.0891,
      "duration": 0.0145,
      "velocity": 112,
      "chip": "ym2612"
    },
    {
      "channel": 1,
      "note": 50,
      "start": 37.0913,
      "duration": 0.04,
      "velocity": 127,
      "chip": "ym2612"
    },
    {
      "channel": 4,
      "note": 45,
      "start": 37.1334,
      "duration": 0.0202,
      "velocity": 92,
      "chip": "ym2612"
    },
    {
      "channel": 2,
      "note": 74,
      "start": 37.1363,
      "duration": 0.0176,
      "velocity": 112,
      "chip": "ym2612"
    },
    {
      "channel": 4,
      "note": 40,
      "start": 37.2068,
      "duration": 0.0259,
      "velocity": 92,
      "chip": "ym2612"
    },
    {
      "channel": 2,
      "note": 74,
      "start": 37.2094,
      "duration": 0.0297,
      "velocity": 112,
      "chip": "ym2612"
    },
    {
      "channel": 1,
      "note": 42,
      "start": 37.2126,
      "duration": 0.0474,
      "velocity": 92,
      "chip": "ym2612"
    },
    {
      "channel": 1,
      "note": 42,
      "start": 37.319,
      "duration": 0.0115,
      "velocity": 92,
      "chip": "ym2612"
    },
    {
      "channel": 1,
      "note": 49,
      "start": 37.4047,
      "duration": 0.0454,
      "velocity": 92,
      "chip": "ym2612"
    },
    {
      "channel": 0,
      "note": 49,
      "start": 37.5212,
      "duration": 0.0288,
      "velocity": 119,
      "chip": "ym2612"
    },
    {
      "channel": 2,
      "note": 74,
      "start": 37.7545,
      "duration": 0.0168,
      "velocity": 112,
      "chip": "ym2612"
    },
    {
      "channel": 1,
      "note": 49,
      "start": 37.7567,
      "duration": 0.0415,
      "velocity": 92,
      "chip": "ym2612"
    },
    {
      "channel": 2,
      "note": 74,
      "start": 37.8086,
      "duration": 0.0114,
      "velocity": 112,
      "chip": "ym2612"
    },
    {
      "channel": 1,
      "note": 42,
      "start": 37.8104,
      "duration": 0.0032,
      "velocity": 92,
      "chip": "ym2612"
    },
    {
      "channel": 1,
      "note": 47,
      "start": 37.8575,
      "duration": 0.0556,
      "velocity": 92,
      "chip": "ym2612"
    },
    {
      "channel": 2,
      "note": 74,
      "start": 38.0507,
      "duration": 0.0292,
      "velocity": 112,
      "chip": "ym2612"
    },
    {
      "channel": 1,
      "note": 47,
      "start": 38.0528,
      "duration": 0.1103,
      "velocity": 92,
      "chip": "ym2612"
    },
    {
      "channel": 2,
      "note": 74,
      "start": 38.168,
      "duration": 0.0288,
      "velocity": 112,
      "chip": "ym2612"
    },
    {
      "channel": 1,
      "note": 45,
      "start": 38.2849,
      "duration": 0.1794,
      "velocity": 92,
      "chip": "ym2612"
    },
    {
      "channel": 2,
      "note": 81,
      "start": 38.3886,
      "duration": 0.0594,
      "velocity": 27,
      "chip": "ym2612"
    },
    {
      "channel": 1,
      "note": 42,
      "start": 38.6189,
      "duration": 0.0433,
      "velocity": 92,
      "chip": "ym2612"
    },
    {
      "channel": 2,
      "note": 74,
      "start": 38.7238,
      "duration": 0.0188,
      "velocity": 112,
      "chip": "ym2612"
    },
    {
      "channel": 1,
      "note": 42,
      "start": 38.7257,
      "duration": 0.0237,
      "velocity": 92,
      "chip": "ym2612"
    },
    {
      "channel": 2,
      "note": 74,
      "start": 38.8001,
      "duration": 0.0625,
      "velocity": 112,
      "chip": "ym2612"
    },
    {
      "channel": 1,
      "note": 49,
      "start": 38.8024,
      "duration": 0.0931,
      "velocity": 92,
      "chip": "ym2612"
    },
    {
      "channel": 0,
      "note": 52,
      "start": 38.9161,
      "duration": 0.046,
      "velocity": 119,
      "chip": "ym2612"
    },
    {
      "channel": 1,
      "note": 49,
      "start": 39.0332,
      "duration": 0.0957,
      "velocity": 92,
      "chip": "ym2612"
    },
    {
      "channel": 1,
      "note": 49,
      "start": 39.2019,
      "duration": 0.0341,
      "velocity": 92,
      "chip": "ym2612"
    },
    {
      "channel": 1,
      "note": 47,
      "start": 39.2593,
      "duration": 0.0269,
      "velocity": 92,
      "chip": "ym2612"
    },
    {
      "channel": 1,
      "note": 49,
      "start": 39.3105,
      "duration": 0.0469,
      "velocity": 92,
      "chip": "ym2612"
    },
    {
      "channel": 1,
      "note": 52,
      "start": 39.6043,
      "duration": 0.2596,
      "velocity": 92,
      "chip": "ym2612"
    },
    {
      "channel": 1,
      "note": 42,
      "start": 39.8862,
      "duration": 0.0419,
      "velocity": 92,
      "chip": "ym2612"
    },
    {
      "channel": 4,
      "note": 54,
      "start": 39.9382,
      "duration": 0.0041,
      "velocity": 92,
      "chip": "ym2612"
    },
    {
      "channel": 4,
      "note": 54,
      "start": 39.9858,
      "duration": 0.0051,
      "velocity": 92,
      "chip": "ym2612"
    },
    {
      "channel": 4,
      "note": 54,
      "start": 40.0623,
      "duration": 0.0129,
      "velocity": 92,
      "chip": "ym2612"
    },
    {
      "channel": 1,
      "note": 49,
      "start": 40.0649,
      "duration": 0.0934,
      "velocity": 92,
      "chip": "ym2612"
    },
    {
      "channel": 4,
      "note": 66,
      "start": 40.1789,
      "duration": 0.0129,
      "velocity": 92,
      "chip": "ym2612"
    },
    {
      "channel": 0,
      "note": 49,
      "start": 40.181,
      "duration": 0.0273,
      "velocity": 119,
      "chip": "ym2612"
    },
    {
      "channel": 4,
      "note": 66,
      "start": 40.2959,
      "duration": 0.0126,
      "velocity": 92,
      "chip": "ym2612"
    },
    {
      "channel": 1,
      "note": 49,
      "start": 40.2984,
      "duration": 0.11,
      "velocity": 92,
      "chip": "ym2612"
    },
    {
      "channel": 4,
      "note": 54,
      "start": 40.4646,
      "duration": 0.0054,
      "velocity": 92,
      "chip": "ym2612"
    },
    {
      "channel": 1,
      "note": 49,
      "start": 40.4666,
      "duration": 0.0384,
      "velocity": 92,
      "chip": "ym2612"
    },
    {
      "channel": 4,
      "note": 64,
      "start": 40.516,
      "duration": 0.0049,
      "velocity": 92,
      "chip": "ym2612"
    },
    {
      "channel": 1,
      "note": 47,
      "start": 40.5181,
      "duration": 0.0535,
      "velocity": 92,
      "chip": "ym2612"
    },
    {
      "channel": 4,
      "note": 64,
      "start": 40.5923,
      "duration": 0.0127,
      "velocity": 92,
      "chip": "ym2612"
    },
    {
      "channel": 1,
      "note": 45,
      "start": 40.5947,
      "duration": 0.0935,
      "velocity": 92,
      "chip": "ym2612"
    },
    {
      "channel": 2,
      "note": 74,
      "start": 40.7091,
      "duration": 0.0629,
      "velocity": 112,
      "chip": "ym2612"
    },
    {
      "channel": 1,
      "note": 42,
      "start": 40.7119,
      "duration": 0.0597,
      "velocity": 92,
      "chip": "ym2612"
    },
    {
      "channel": 4,
      "note": 54,
      "start": 40.8256,
      "duration": 0.0293,
      "velocity": 92,
      "chip": "ym2612"
    },
    {
      "channel": 2,
      "note": 74,
      "start": 40.828,
      "duration": 0.0606,
      "velocity": 112,
      "chip": "ym2612"
    },
    {
      "channel": 4,
      "note": 61,
      "start": 40.9421,
      "duration": 0.0168,
      "velocity": 92,
      "chip": "ym2612"
    },
    {
      "channel": 1,
      "note": 45,
      "start": 40.9449,
      "duration": 0.242,
      "velocity": 92,
      "chip": "ym2612"
    },
    {
      "channel": 4,
      "note": 61,
      "start": 40.9974,
      "duration": 0.0109,
      "velocity": 92,
      "chip": "ym2612"
    },
    {
      "channel": 2,
      "note": 81,
      "start": 41.0578,
      "duration": 0.0461,
      "velocity": 27,
      "chip": "ym2612"
    },
    {
      "channel": 4,
      "note": 54,
      "start": 41.1742,
      "duration": 0.013,
      "velocity": 92,
      "chip": "ym2612"
    },
    {
      "channel": 4,
      "note": 59,
      "start": 41.2907,
      "duration": 0.0091,
      "velocity": 92,
      "chip": "ym2612"
    },
    {
      "channel": 1,
      "note": 42,
      "start": 41.2935,
      "duration": 0.0353,
      "velocity": 92,
      "chip": "ym2612"
    },
    {
      "channel": 4,
      "note": 59,
      "start": 41.3457,
      "duration": 0.0044,
      "velocity": 92,
      "chip": "ym2612"
    },
    {
      "channel": 2,
      "note": 74,
      "start": 41.3936,
      "duration": 0.02,
      "velocity": 112,
      "chip": "ym2612"
    },
    {
      "channel": 4,
      "note": 54,
      "start": 41.4714,
      "duration": 0.0128,
      "velocity": 92,
      "chip": "ym2612"
    },
    {
      "channel": 2,
      "note": 74,
      "start": 41.4738,
      "duration": 0.044,
      "velocity": 112,
      "chip": "ym2612"
    },
    {
      "channel": 1,
      "note": 42,
      "start": 41.4761,
      "duration": 0.0413,
      "velocity": 92,
      "chip": "ym2612"
    },
    {
      "channel": 4,
      "note": 57,
      "start": 41.588,
      "duration": 0.0129,
      "velocity": 92,
      "chip": "ym2612"
    },
    {
      "channel": 0,
      "note": 52,
      "start": 41.5901,
      "duration": 0.0273,
      "velocity": 119,
      "chip": "ym2612"
    },
    {
      "channel": 1,
      "note": 49,
      "start": 41.5925,
      "duration": 0.0915,
      "velocity": 92,
      "chip": "ym2612"
    },
    {
      "channel": 4,
      "note": 57,
      "start": 41.7048,
      "duration": 0.0126,
      "velocity": 92,
      "chip": "ym2612"
    },
    {
      "channel": 1,
      "note": 49,
      "start": 41.8217,
      "duration": 0.0429,
      "velocity": 92,
      "chip": "ym2612"
    },
    {
      "channel": 4,
      "note": 54,
      "start": 41.8744,
      "duration": 0.0046,
      "velocity": 92,
      "chip": "ym2612"
    },
    {
      "channel": 4,
      "note": 59,
      "start": 41.923,
      "duration": 0.0072,
      "velocity": 92,
      "chip": "ym2612"
    },
    {
      "channel": 1,
      "note": 47,
      "start": 41.9262,
      "duration": 0.023,
      "velocity": 92,
      "chip": "ym2612"
    },
    {
      "channel": 4,
      "note": 59,
      "start": 41.9724,
      "duration": 0.0054,
      "velocity": 92,
      "chip": "ym2612"
    },
    {
      "channel": 1,
      "note": 49,
      "start": 41.9744,
      "duration": 0.0328,
      "velocity": 92,
      "chip": "ym2612"
    },
    {
      "channel": 2,
      "note": 74,
      "start": 42.0245,
      "duration": 0.0256,
      "velocity": 112,
      "chip": "ym2612"
    },
    {
      "channel": 1,
      "note": 52,
      "start": 42.0264,
      "duration": 0.0659,
      "velocity": 92,
      "chip": "ym2612"
    },
    {
      "channel": 4,
      "note": 54,
      "start": 42.0964,
      "duration": 0.0127,
      "velocity": 92,
      "chip": "ym2612"
    },
    {
      "channel": 2,
      "note": 74,
      "start": 42.0988,
      "duration": 0.0605,
      "velocity": 112,
      "chip": "ym2612"
    },
    {
      "channel": 4,
      "note": 61,
      "start": 42.2128,
      "duration": 0.011,
      "velocity": 92,
      "chip": "ym2612"
    },
    {
      "channel": 2,
      "note": 81,
      "start": 42.2153,
      "duration": 0.0366,
      "velocity": 27,
      "chip": "ym2612"
    },
    {
      "channel": 1,
      "note": 49,
      "start": 42.2176,
      "duration": 0.0341,
      "velocity": 92,
      "chip": "ym2612"
    },
    {
      "channel": 4,
      "note": 61,
      "start": 42.2686,
      "duration": 0.0053,
      "velocity": 92,
      "chip": "ym2612"
    },
    {
      "channel": 1,
      "note": 52,
      "start": 42.2716,
      "duration": 0.0229,
      "velocity": 92,
      "chip": "ym2612"
    },
    {
      "channel": 2,
      "note": 81,
      "start": 42.32,
      "duration": 0.0249,
      "velocity": 27,
      "chip": "ym2612"
    },
    {
      "channel": 1,
      "note": 54,
      "start": 42.322,
      "duration": 0.0668,
      "velocity": 92,
      "chip": "ym2612"
    },
    {
      "channel": 4,
      "note": 54,
      "start": 42.3686,
      "duration": 0.0054,
      "velocity": 92,
      "chip": "ym2612"
    },
    {
      "channel": 2,
      "note": 81,
      "start": 42.3713,
      "duration": 0.0252,
      "velocity": 27,
      "chip": "ym2612"
    },
    {
      "channel": 3,
      "note": 49,
      "start": 42.4203,
      "duration": 0.0761,
      "velocity": 79,
      "chip": "ym2612"
    },
    {
      "channel": 4,
      "note": 54,
      "start": 42.4223,
      "duration": 0.0104,
      "velocity": 92,
      "chip": "ym2612"
    },
    {
      "channel": 1,
      "note": 42,
      "start": 42.4263,
      "duration": 0.0422,
      "velocity": 92,
      "chip": "ym2612"
    },
    {
      "channel": 3,
      "note": 54,
      "start": 42.5202,
      "duration": 0.0346,
      "velocity": 79,
      "chip": "ym2612"
    },
    {
      "channel": 4,
      "note": 54,
      "start": 42.5233,
      "duration": 0.0098,
      "velocity": 92,
      "chip": "ym2612"
    },
    {
      "channel": 2,
      "note": 74,
      "start": 42.5259,
      "duration": 0.0219,
      "velocity": 112,
      "chip": "ym2612"
    },
    {
      "channel": 3,
      "note": 47,
      "start": 42.5887,
      "duration": 0.0962,
      "velocity": 79,
      "chip": "ym2612"
    },
    {
      "channel": 2,
      "note": 74,
      "start": 42.5912,
      "duration": 0.0608,
      "velocity": 112,
      "chip": "ym2612"
    },
    {
      "channel": 1,
      "note": 42,
      "start": 42.5934,
      "duration": 0.0581,
      "velocity": 92,
      "chip": "ym2612"
    },
    {
      "channel": 3,
      "note": 52,
      "start": 42.7221,
      "duration": 0.0462,
      "velocity": 79,
      "chip": "ym2612"
    },
    {
      "channel": 4,
      "note": 66,
      "start": 42.7243,
      "duration": 0.0109,
      "velocity": 92,
      "chip": "ym2612"
    },
    {
      "channel": 0,
      "note": 49,
      "start": 42.7264,
      "duration": 0.0251,
      "velocity": 119,
      "chip": "ym2612"
    },
    {
      "channel": 1,
      "note": 49,
      "start": 42.7289,
      "duration": 0.0727,
      "velocity": 92,
      "chip": "ym2612"
    },
    {
      "channel": 3,
      "note": 49,
      "start": 42.8405,
      "duration": 0.0611,
      "velocity": 79,
      "chip": "ym2612"
    },
    {
      "channel": 4,
      "note": 66,
      "start": 42.8427,
      "duration": 0.0089,
      "velocity": 92,
      "chip": "ym2612"
    },
    {
      "channel": 3,
      "note": 57,
      "start": 42.9554,
      "duration": 0.0371,
      "velocity": 79,
      "chip": "ym2612"
    },
    {
      "channel": 3,
      "note": 49,
      "start": 43.0095,
      "duration": 0.0277,
      "velocity": 79,
      "chip": "ym2612"
    },
    {
      "channel": 4,
      "note": 54,
      "start": 43.0113,
      "duration": 0.0046,
      "velocity": 92,
      "chip": "ym2612"
    },
    {
      "channel": 1,
      "note": 49,
      "start": 43.0134,
      "duration": 0.0381,
      "velocity": 92,
      "chip": "ym2612"
    },
    {
      "channel": 3,
      "note": 54,
      "start": 43.06,
      "duration": 0.0262,
      "velocity": 79,
      "chip": "ym2612"
    },
    {
      "channel": 4,
      "note": 64,
      "start": 43.0626,
      "duration": 0.0037,
      "velocity": 92,
      "chip": "ym2612"
    },
    {
      "channel": 1,
      "note": 47,
      "start": 43.0649,
      "duration": 0.0209,
      "velocity": 92,
      "chip": "ym2612"
    },
    {
      "channel": 3,
      "note": 52,
      "start": 43.1374,
      "duration": 0.0949,
      "velocity": 79,
      "chip": "ym2612"
    },
    {
      "channel": 4,
      "note": 64,
      "start": 43.1397,
      "duration": 0.0096,
      "velocity": 92,
      "chip": "ym2612"
    },
    {
      "channel": 1,
      "note": 45,
      "start": 43.1422,
      "duration": 0.1067,
      "velocity": 92,
      "chip": "ym2612"
    },
    {
      "channel": 3,
      "note": 59,
      "start": 43.254,
      "duration": 0.095,
      "velocity": 79,
      "chip": "ym2612"
    },
    {
      "channel": 2,
      "note": 74,
      "start": 43.2564,
      "duration": 0.0428,
      "velocity": 112,
      "chip": "ym2612"
    },
    {
      "channel": 1,
      "note": 47,
      "start": 43.2585,
      "duration": 0.1071,
      "velocity": 92,
      "chip": "ym2612"
    },
    {
      "channel": 3,
      "note": 49,
      "start": 43.3708,
      "duration": 0.0781,
      "velocity": 79,
      "chip": "ym2612"
    },
    {
      "channel": 4,
      "note": 54,
      "start": 43.373,
      "duration": 0.0093,
      "velocity": 92,
      "chip": "ym2612"
    },
    {
      "channel": 2,
      "note": 74,
      "start": 43.3754,
      "duration": 0.0406,
      "velocity": 112,
      "chip": "ym2612"
    },
    {
      "channel": 3,
      "note": 54,
      "start": 43.4877,
      "duration": 0.0376,
      "velocity": 79,
      "chip": "ym2612"
    },
    {
      "channel": 4,
      "note": 61,
      "start": 43.4898,
      "duration": 0.0082,
      "velocity": 92,
      "chip": "ym2612"
    },
    {
      "channel": 1,
      "note": 45,
      "start": 43.4926,
      "duration": 0.2393,
      "velocity": 92,
      "chip": "ym2612"
    },
    {
      "channel": 3,
      "note": 49,
      "start": 43.5433,
      "duration": 0.0186,
      "velocity": 79,
      "chip": "ym2612"
    },
    {
      "channel": 4,
      "note": 61,
      "start": 43.5453,
      "duration": 0.0026,
      "velocity": 92,
      "chip": "ym2612"
    },
    {
      "channel": 3,
      "note": 57,
      "start": 43.5943,
      "duration": 0.0876,
      "velocity": 79,
      "chip": "ym2612"
    },
    {
      "channel": 2,
      "note": 81,
      "start": 43.5964,
      "duration": 0.0526,
      "velocity": 27,
      "chip": "ym2612"
    },
    {
      "channel": 3,
      "note": 52,
      "start": 43.7035,
      "duration": 0.095,
      "velocity": 79,
      "chip": "ym2612"
    },
    {
      "channel": 4,
      "note": 54,
      "start": 43.7057,
      "duration": 0.0099,
      "velocity": 92,
      "chip": "ym2612"
    },
    {
      "channel": 2,
      "note": 81,
      "start": 43.7082,
      "duration": 0.0572,
      "velocity": 27,
      "chip": "ym2612"
    },
    {
      "channel": 3,
      "note": 45,
      "start": 43.8201,
      "duration": 0.0457,
      "velocity": 79,
      "chip": "ym2612"
    },
    {
      "channel": 4,
      "note": 59,
      "start": 43.8222,
      "duration": 0.0079,
      "velocity": 92,
      "chip": "ym2612"
    },
    {
      "channel": 1,
      "note": 42,
      "start": 43.825,
      "duration": 0.0339,
      "velocity": 92,
      "chip": "ym2612"
    },
    {
      "channel": 4,
      "note": 59,
      "start": 43.875,
      "duration": 0.0051,
      "velocity": 92,
      "chip": "ym2612"
    },
    {
      "channel": 3,
      "note": 54,
      "start": 43.9246,
      "duration": 0.0546,
      "velocity": 79,
      "chip": "ym2612"
    },
    {
      "channel": 2,
      "note": 74,
      "start": 43.9267,
      "duration": 0.0246,
      "velocity": 112,
      "chip": "ym2612"
    },
    {
      "channel": 3,
      "note": 49,
      "start": 43.9998,
      "duration": 0.0795,
      "velocity": 79,
      "chip": "ym2612"
    },
    {
      "channel": 4,
      "note": 54,
      "start": 44.002,
      "duration": 0.0107,
      "velocity": 92,
      "chip": "ym2612"
    },
    {
      "channel": 2,
      "note": 74,
      "start": 44.005,
      "duration": 0.0413,
      "velocity": 112,
      "chip": "ym2612"
    },
    {
      "channel": 1,
      "note": 42,
      "start": 44.0073,
      "duration": 0.0553,
      "velocity": 92,
      "chip": "ym2612"
    },
    {
      "channel": 3,
      "note": 52,
      "start": 44.1181,
      "duration": 0.0779,
      "velocity": 79,
      "chip": "ym2612"
    },
    {
      "channel": 4,
      "note": 57,
      "start": 44.1201,
      "duration": 0.0092,
      "velocity": 92,
      "chip": "ym2612"
    },
    {
      "channel": 0,
      "note": 52,
      "start": 44.1223,
      "duration": 0.0402,
      "velocity": 119,
      "chip": "ym2612"
    },
    {
      "channel": 1,
      "note": 49,
      "start": 44.1248,
      "duration": 0.0877,
      "velocity": 92,
      "chip": "ym2612"
    },
    {
      "channel": 3,
      "note": 47,
      "start": 44.2331,
      "duration": 0.0629,
      "velocity": 79,
      "chip": "ym2612"
    },
    {
      "channel": 4,
      "note": 57,
      "start": 44.2353,
      "duration": 0.0107,
      "velocity": 92,
      "chip": "ym2612"
    },
    {
      "channel": 3,
      "note": 57,
      "start": 44.3498,
      "duration": 0.043,
      "velocity": 79,
      "chip": "ym2612"
    },
    {
      "channel": 3,
      "note": 52,
      "start": 44.4031,
      "duration": 0.0471,
      "velocity": 79,
      "chip": "ym2612"
    },
    {
      "channel": 4,
      "note": 54,
      "start": 44.4049,
      "duration": 0.0093,
      "velocity": 92,
      "chip": "ym2612"
    },
    {
      "channel": 1,
      "note": 49,
      "start": 44.4083,
      "duration": 0.0342,
      "velocity": 92,
      "chip": "ym2612"
    },
    {
      "channel": 3,
      "note": 54,
      "start": 44.453,
      "duration": 0.0345,
      "velocity": 79,
      "chip": "ym2612"
    },
    {
      "channel": 4,
      "note": 59,
      "start": 44.4547,
      "duration": 0.0119,
      "velocity": 92,
      "chip": "ym2612"
    },
    {
      "channel": 1,
      "note": 47,
      "start": 44.4576,
      "duration": 0.0372,
      "velocity": 92,
      "chip": "ym2612"
    },
    {
      "channel": 3,
      "note": 49,
      "start": 44.5054,
      "duration": 0.0329,
      "velocity": 79,
      "chip": "ym2612"
    },
    {
      "channel": 4,
      "note": 59,
      "start": 44.5075,
      "duration": 0.009,
      "velocity": 92,
      "chip": "ym2612"
    },
    {
      "channel": 1,
      "note": 45,
      "start": 44.5108,
      "duration": 0.0274,
      "velocity": 92,
      "chip": "ym2612"
    },
    {
      "channel": 3,
      "note": 59,
      "start": 44.5632,
      "duration": 0.0718,
      "velocity": 79,
      "chip": "ym2612"
    },
    {
      "channel": 2,
      "note": 74,
      "start": 44.5654,
      "duration": 0.0161,
      "velocity": 112,
      "chip": "ym2612"
    },
    {
      "channel": 1,
      "note": 42,
      "start": 44.5675,
      "duration": 0.0672,
      "velocity": 92,
      "chip": "ym2612"
    },
    {
      "channel": 3,
      "note": 52,
      "start": 44.6404,
      "duration": 0.0776,
      "velocity": 79,
      "chip": "ym2612"
    },
    {
      "channel": 4,
      "note": 54,
      "start": 44.6427,
      "duration": 0.0086,
      "velocity": 92,
      "chip": "ym2612"
    },
    {
      "channel": 2,
      "note": 74,
      "start": 44.6452,
      "duration": 0.0229,
      "velocity": 112,
      "chip": "ym2612"
    },
    {
      "channel": 3,
      "note": 57,
      "start": 44.7564,
      "duration": 0.0329,
      "velocity": 79,
      "chip": "ym2612"
    },
    {
      "channel": 4,
      "note": 61,
      "start": 44.7589,
      "duration": 0.0097,
      "velocity": 92,
      "chip": "ym2612"
    },
    {
      "channel": 1,
      "note": 40,
      "start": 44.7638,
      "duration": 0.2525,
      "velocity": 92,
      "chip": "ym2612"
    },
    {
      "channel": 3,
      "note": 49,
      "start": 44.8141,
      "duration": 0.0192,
      "velocity": 79,
      "chip": "ym2612"
    },
    {
      "channel": 4,
      "note": 61,
      "start": 44.8168,
      "duration": 0.0021,
      "velocity": 92,
      "chip": "ym2612"
    },
    {
      "channel": 3,
      "note": 54,
      "start": 44.8661,
      "duration": 0.0507,
      "velocity": 79,
      "chip": "ym2612"
    },
    {
      "channel": 2,
      "note": 81,
      "start": 44.8681,
      "duration": 0.032,
      "velocity": 27,
      "chip": "ym2612"
    },
    {
      "channel": 3,
      "note": 52,
      "start": 44.9716,
      "duration": 0.0949,
      "velocity": 79,
      "chip": "ym2612"
    },
    {
      "channel": 2,
      "note": 81,
      "start": 44.9746,
      "duration": 0.0422,
      "velocity": 27,
      "chip": "ym2612"
    },
    {
      "channel": 3,
      "note": 47,
      "start": 45.0887,
      "duration": 0.0519,
      "velocity": 79,
      "chip": "ym2612"
    },
    {
      "channel": 4,
      "note": 54,
      "start": 45.0907,
      "duration": 0.0076,
      "velocity": 92,
      "chip": "ym2612"
    },
    {
      "channel": 1,
      "note": 42,
      "start": 45.0934,
      "duration": 0.0613,
      "velocity": 92,
      "chip": "ym2612"
    },
    {
      "channel": 3,
      "note": 54,
      "start": 45.193,
      "duration": 0.0545,
      "velocity": 79,
      "chip": "ym2612"
    },
    {
      "channel": 2,
      "note": 74,
      "start": 45.1953,
      "duration": 0.0176,
      "velocity": 112,
      "chip": "ym2612"
    },
    {
      "channel": 3,
      "note": 49,
      "start": 45.2679,
      "duration": 0.0962,
      "velocity": 79,
      "chip": "ym2612"
    },
    {
      "channel": 4,
      "note": 54,
      "start": 45.2701,
      "duration": 0.0108,
      "velocity": 92,
      "chip": "ym2612"
    },
    {
      "channel": 2,
      "note": 74,
      "start": 45.2725,
      "duration": 0.042,
      "velocity": 112,
      "chip": "ym2612"
    },
    {
      "channel": 1,
      "note": 42,
      "start": 45.2747,
      "duration": 0.0728,
      "velocity": 92,
      "chip": "ym2612"
    },
    {
      "channel": 3,
      "note": 52,
      "start": 45.3859,
      "duration": 0.0782,
      "velocity": 79,
      "chip": "ym2612"
    },
    {
      "channel": 4,
      "note": 66,
      "start": 45.3879,
      "duration": 0.0096,
      "velocity": 92,
      "chip": "ym2612"
    },
    {
      "channel": 0,
      "note": 49,
      "start": 45.3916,
      "duration": 0.0224,
      "velocity": 119,
      "chip": "ym2612"
    },
    {
      "channel": 1,
      "note": 49,
      "start": 45.3941,
      "duration": 0.1034,
      "velocity": 92,
      "chip": "ym2612"
    },
    {
      "channel": 3,
      "note": 57,
      "start": 45.5014,
      "duration": 0.1127,
      "velocity": 79,
      "chip": "ym2612"
    },
    {
      "channel": 4,
      "note": 66,
      "start": 45.5037,
      "duration": 0.0105,
      "velocity": 92,
      "chip": "ym2612"
    },
    {
      "channel": 3,
      "note": 52,
      "start": 45.6181,
      "duration": 0.0364,
      "velocity": 79,
      "chip": "ym2612"
    },
    {
      "channel": 3,
      "note": 49,
      "start": 45.673,
      "duration": 0.0453,
      "velocity": 79,
      "chip": "ym2612"
    },
    {
      "channel": 4,
      "note": 54,
      "start": 45.6749,
      "duration": 0.0045,
      "velocity": 92,
      "chip": "ym2612"
    },
    {
      "channel": 1,
      "note": 49,
      "start": 45.6783,
      "duration": 0.04,
      "velocity": 92,
      "chip": "ym2612"
    },
    {
      "channel": 3,
      "note": 54,
      "start": 45.7215,
      "duration": 0.0377,
      "velocity": 79,
      "chip": "ym2612"
    },
    {
      "channel": 4,
      "note": 64,
      "start": 45.7234,
      "duration": 0.0052,
      "velocity": 92,
      "chip": "ym2612"
    },
    {
      "channel": 1,
      "note": 47,
      "start": 45.7268,
      "duration": 0.0323,
      "velocity": 92,
      "chip": "ym2612"
    },
    {
      "channel": 3,
      "note": 52,
      "start": 45.7981,
      "duration": 0.1258,
      "velocity": 79,
      "chip": "ym2612"
    },
    {
      "channel": 4,
      "note": 64,
      "start": 45.8003,
      "duration": 0.0092,
      "velocity": 92,
      "chip": "ym2612"
    },
    {
      "channel": 1,
      "note": 45,
      "start": 45.8028,
      "duration": 0.0731,
      "velocity": 92,
      "chip": "ym2612"
    },
    {
      "channel": 2,
      "note": 59,
      "start": 45.9146,
      "duration": 0.0534,
      "velocity": 79,
      "chip": "ym2612"
    },
    {
      "channel": 1,
      "note": 42,
      "start": 45.9177,
      "duration": 0.0356,
      "velocity": 92,
      "chip": "ym2612"
    },
    {
      "channel": 3,
      "note": 49,
      "start": 45.9718,
      "duration": 0.0334,
      "velocity": 79,
      "chip": "ym2612"
    },
    {
      "channel": 4,
      "note": 54,
      "start": 45.9739,
      "duration": 0.004,
      "velocity": 92,
      "chip": "ym2612"
    },
    {
      "channel": 2,
      "note": 74,
      "start": 45.9759,
      "duration": 0.0224,
      "velocity": 112,
      "chip": "ym2612"
    },
    {
      "channel": 3,
      "note": 57,
      "start": 46.0238,
      "duration": 0.0426,
      "velocity": 79,
      "chip": "ym2612"
    },
    {
      "channel": 4,
      "note": 61,
      "start": 46.0256,
      "duration": 0.0121,
      "velocity": 92,
      "chip": "ym2612"
    },
    {
      "channel": 0,
      "note": 42,
      "start": 46.0295,
      "duration": 0.0078,
      "velocity": 116,
      "chip": "ym2612"
    },
    {
      "channel": 1,
      "note": 45,
      "start": 46.0316,
      "duration": 0.225,
      "velocity": 92,
      "chip": "ym2612"
    },
    {
      "channel": 3,
      "note": 47,
      "start": 46.0758,
      "duration": 0.0336,
      "velocity": 79,
      "chip": "ym2612"
    },
    {
      "channel": 4,
      "note": 61,
      "start": 46.0786,
      "duration": 0.009,
      "velocity": 92,
      "chip": "ym2612"
    },
    {
      "channel": 3,
      "note": 54,
      "start": 46.1271,
      "duration": 0.1128,
      "velocity": 79,
      "chip": "ym2612"
    },
    {
      "channel": 2,
      "note": 81,
      "start": 46.1293,
      "duration": 0.0277,
      "velocity": 27,
      "chip": "ym2612"
    },
    {
      "channel": 3,
      "note": 52,
      "start": 46.2454,
      "duration": 0.1111,
      "velocity": 79,
      "chip": "ym2612"
    },
    {
      "channel": 4,
      "note": 54,
      "start": 46.2476,
      "duration": 0.0093,
      "velocity": 92,
      "chip": "ym2612"
    },
    {
      "channel": 3,
      "note": 45,
      "start": 46.3617,
      "duration": 0.0782,
      "velocity": 79,
      "chip": "ym2612"
    },
    {
      "channel": 4,
      "note": 59,
      "start": 46.3638,
      "duration": 0.0097,
      "velocity": 92,
      "chip": "ym2612"
    },
    {
      "channel": 0,
      "note": 42,
      "start": 46.3661,
      "duration": 0.1237,
      "velocity": 116,
      "chip": "ym2612"
    },
    {
      "channel": 1,
      "note": 42,
      "start": 46.3686,
      "duration": 0.0546,
      "velocity": 92,
      "chip": "ym2612"
    },
    {
      "channel": 4,
      "note": 59,
      "start": 46.4772,
      "duration": 0.013,
      "velocity": 92,
      "chip": "ym2612"
    },
    {
      "channel": 3,
      "note": 54,
      "start": 46.5938,
      "duration": 0.0463,
      "velocity": 79,
      "chip": "ym2612"
    },
    {
      "channel": 2,
      "note": 74,
      "start": 46.5964,
      "duration": 0.0159,
      "velocity": 112,
      "chip": "ym2612"
    },
    {
      "channel": 1,
      "note": 42,
      "start": 46.5985,
      "duration": 0.049,
      "velocity": 92,
      "chip": "ym2612"
    },
    {
      "channel": 3,
      "note": 49,
      "start": 46.6498,
      "duration": 0.0286,
      "velocity": 79,
      "chip": "ym2612"
    },
    {
      "channel": 4,
      "note": 54,
      "start": 46.6526,
      "duration": 0.0068,
      "velocity": 92,
      "chip": "ym2612"
    },
    {
      "channel": 2,
      "note": 74,
      "start": 46.6547,
      "duration": 0.0164,
      "velocity": 112,
      "chip": "ym2612"
    },
    {
      "channel": 3,
      "note": 52,
      "start": 46.7013,
      "duration": 0.0287,
      "velocity": 79,
      "chip": "ym2612"
    },
    {
      "channel": 4,
      "note": 57,
      "start": 46.703,
      "duration": 0.01,
      "velocity": 92,
      "chip": "ym2612"
    },
    {
      "channel": 1,
      "note": 40,
      "start": 46.708,
      "duration": 0.0364,
      "velocity": 92,
      "chip": "ym2612"
    },
    {
      "channel": 3,
      "note": 47,
      "start": 46.7551,
      "duration": 0.0261,
      "velocity": 79,
      "chip": "ym2612"
    },
    {
      "channel": 4,
      "note": 57,
      "start": 46.7569,
      "duration": 0.003,
      "velocity": 92,
      "chip": "ym2612"
    },
    {
      "channel": 3,
      "note": 57,
      "start": 46.8036,
      "duration": 0.0342,
      "velocity": 79,
      "chip": "ym2612"
    },
    {
      "channel": 1,
      "note": 40,
      "start": 46.8057,
      "duration": 0.0388,
      "velocity": 92,
      "chip": "ym2612"
    },
    {
      "channel": 3,
      "note": 52,
      "start": 46.856,
      "duration": 0.0461,
      "velocity": 79,
      "chip": "ym2612"
    },
    {
      "channel": 4,
      "note": 54,
      "start": 46.858,
      "duration": 0.0042,
      "velocity": 92,
      "chip": "ym2612"
    },
    {
      "channel": 3,
      "note": 54,
      "start": 46.9057,
      "duration": 0.0339,
      "velocity": 79,
      "chip": "ym2612"
    },
    {
      "channel": 4,
      "note": 59,
      "start": 46.9084,
      "duration": 0.0061,
      "velocity": 92,
      "chip": "ym2612"
    },
    {
      "channel": 0,
      "note": 42,
      "start": 46.9108,
      "duration": 0.0521,
      "velocity": 116,
      "chip": "ym2612"
    },
    {
      "channel": 1,
      "note": 38,
      "start": 46.9133,
      "duration": 0.0401,
      "velocity": 92,
      "chip": "ym2612"
    },
    {
      "channel": 3,
      "note": 49,
      "start": 46.9565,
      "duration": 0.0732,
      "velocity": 79,
      "chip": "ym2612"
    },
    {
      "channel": 4,
      "note": 59,
      "start": 46.9598,
      "duration": 0.0035,
      "velocity": 92,
      "chip": "ym2612"
    },
    {
      "channel": 3,
      "note": 59,
      "start": 47.0681,
      "duration": 0.1116,
      "velocity": 79,
      "chip": "ym2612"
    },
    {
      "channel": 0,
      "note": 42,
      "start": 47.0704,
      "duration": 0.1241,
      "velocity": 116,
      "chip": "ym2612"
    },
    {
      "channel": 1,
      "note": 38,
      "start": 47.0726,
      "duration": 0.107,
      "velocity": 92,
      "chip": "ym2612"
    },
    {
      "channel": 3,
      "note": 52,
      "start": 47.1848,
      "duration": 0.0523,
      "velocity": 79,
      "chip": "ym2612"
    },
    {
      "channel": 4,
      "note": 54,
      "start": 47.1869,
      "duration": 0.0077,
      "velocity": 92,
      "chip": "ym2612"
    },
    {
      "channel": 2,
      "note": 74,
      "start": 47.1893,
      "duration": 0.0267,
      "velocity": 112,
      "chip": "ym2612"
    },
    {
      "channel": 3,
      "note": 57,
      "start": 47.2413,
      "duration": 0.0399,
      "velocity": 79,
      "chip": "ym2612"
    },
    {
      "channel": 4,
      "note": 61,
      "start": 47.2431,
      "duration": 0.0068,
      "velocity": 92,
      "chip": "ym2612"
    },
    {
      "channel": 1,
      "note": 37,
      "start": 47.2454,
      "duration": 0.0356,
      "velocity": 92,
      "chip": "ym2612"
    },
    {
      "channel": 3,
      "note": 49,
      "start": 47.2922,
      "duration": 0.0405,
      "velocity": 79,
      "chip": "ym2612"
    },
    {
      "channel": 4,
      "note": 61,
      "start": 47.2939,
      "duration": 0.0067,
      "velocity": 92,
      "chip": "ym2612"
    },
    {
      "channel": 3,
      "note": 54,
      "start": 47.3443,
      "duration": 0.0485,
      "velocity": 79,
      "chip": "ym2612"
    },
    {
      "channel": 4,
      "note": 59,
      "start": 47.3463,
      "duration": 0.0087,
      "velocity": 92,
      "chip": "ym2612"
    },
    {
      "channel": 1,
      "note": 37,
      "start": 47.3498,
      "duration": 0.036,
      "velocity": 92,
      "chip": "ym2612"
    },
    {
      "channel": 3,
      "note": 52,
      "start": 47.3973,
      "duration": 0.0307,
      "velocity": 79,
      "chip": "ym2612"
    },
    {
      "channel": 0,
      "note": 42,
      "start": 47.4505,
      "duration": 0.1192,
      "velocity": 116,
      "chip": "ym2612"
    },
    {
      "channel": 1,
      "note": 54,
      "start": 47.4591,
      "duration": 0.1772,
      "velocity": 127,
      "chip": "ym2612"
    },
    {
      "channel": 1,
      "note": 49,
      "start": 47.6573,
      "duration": 0.2124,
      "velocity": 127,
      "chip": "ym2612"
    },
    {
      "channel": 1,
      "note": 52,
      "start": 47.8918,
      "duration": 0.2113,
      "velocity": 127,
      "chip": "ym2612"
    },
    {
      "channel": 1,
      "note": 53,
      "start": 48.1408,
      "duration": 0.1956,
      "velocity": 127,
      "chip": "ym2612"
    },
    {
      "channel": 1,
      "note": 54,
      "start": 48.3741,
      "duration": 0.2123,
      "velocity": 127,
      "chip": "ym2612"
    },
    {
      "channel": 0,
      "note": 42,
      "start": 48.6071,
      "duration": 0.1293,
      "velocity": 116,
      "chip": "ym2612"
    },
    {
      "channel": 1,
      "note": 61,
      "start": 48.6093,
      "duration": 0.2104,
      "velocity": 127,
      "chip": "ym2612"
    },
    {
      "channel": 1,
      "note": 64,
      "start": 48.8415,
      "duration": 0.2116,
      "velocity": 127,
      "chip": "ym2612"
    },
    {
      "channel": 1,
      "note": 65,
      "start": 49.0741,
      "duration": 0.2122,
      "velocity": 127,
      "chip": "ym2612"
    },
    {
      "channel": 0,
      "note": 42,
      "start": 49.3071,
      "duration": 0.1292,
      "velocity": 116,
      "chip": "ym2612"
    },
    {
      "channel": 1,
      "note": 66,
      "start": 49.3093,
      "duration": 0.2104,
      "velocity": 127,
      "chip": "ym2612"
    },
    {
      "channel": 1,
      "note": 61,
      "start": 49.5407,
      "duration": 0.2123,
      "velocity": 127,
      "chip": "ym2612"
    },
    {
      "channel": 1,
      "note": 64,
      "start": 49.7748,
      "duration": 0.2117,
      "velocity": 127,
      "chip": "ym2612"
    },
    {
      "channel": 1,
      "note": 65,
      "start": 50.0074,
      "duration": 0.2123,
      "velocity": 127,
      "chip": "ym2612"
    },
    {
      "channel": 1,
      "note": 66,
      "start": 50.2407,
      "duration": 0.2123,
      "velocity": 127,
      "chip": "ym2612"
    },
    {
      "channel": 0,
      "note": 42,
      "start": 50.4738,
      "duration": 0.146,
      "velocity": 116,
      "chip": "ym2612"
    },
    {
      "channel": 1,
      "note": 61,
      "start": 50.476,
      "duration": 0.2104,
      "velocity": 127,
      "chip": "ym2612"
    },
    {
      "channel": 1,
      "note": 59,
      "start": 50.7248,
      "duration": 0.195,
      "velocity": 127,
      "chip": "ym2612"
    },
    {
      "channel": 0,
      "note": 42,
      "start": 50.9572,
      "duration": 0.1292,
      "velocity": 116,
      "chip": "ym2612"
    },
    {
      "channel": 1,
      "note": 57,
      "start": 50.9594,
      "duration": 0.2103,
      "velocity": 127,
      "chip": "ym2612"
    },
    {
      "channel": 4,
      "note": 66,
      "start": 51.1906,
      "duration": 0.0292,
      "velocity": 119,
      "chip": "ym2612"
    },
    {
      "channel": 0,
      "note": 42,
      "start": 51.1927,
      "duration": 0.127,
      "velocity": 116,
      "chip": "ym2612"
    },
    {
      "channel": 1,
      "note": 54,
      "start": 51.1949,
      "duration": 0.2081,
      "velocity": 127,
      "chip": "ym2612"
    },
    {
      "channel": 4,
      "note": 66,
      "start": 51.3071,
      "duration": 0.0294,
      "velocity": 119,
      "chip": "ym2612"
    },
    {
      "channel": 1,
      "note": 49,
      "start": 51.424,
      "duration": 0.2123,
      "velocity": 127,
      "chip": "ym2612"
    },
    {
      "channel": 4,
      "note": 66,
      "start": 51.5404,
      "duration": 0.0295,
      "velocity": 119,
      "chip": "ym2612"
    },
    {
      "channel": 4,
      "note": 78,
      "start": 51.6569,
      "duration": 0.0298,
      "velocity": 119,
      "chip": "ym2612"
    },
    {
      "channel": 1,
      "note": 52,
      "start": 51.6601,
      "duration": 0.2097,
      "velocity": 127,
      "chip": "ym2612"
    },
    {
      "channel": 4,
      "note": 78,
      "start": 51.7738,
      "duration": 0.0296,
      "velocity": 119,
      "chip": "ym2612"
    },
    {
      "channel": 1,
      "note": 53,
      "start": 51.8907,
      "duration": 0.2123,
      "velocity": 127,
      "chip": "ym2612"
    },
    {
      "channel": 4,
      "note": 66,
      "start": 52.0072,
      "duration": 0.0293,
      "velocity": 119,
      "chip": "ym2612"
    },
    {
      "channel": 4,
      "note": 76,
      "start": 52.1236,
      "duration": 0.0296,
      "velocity": 119,
      "chip": "ym2612"
    },
    {
      "channel": 1,
      "note": 54,
      "start": 52.126,
      "duration": 0.2104,
      "velocity": 127,
      "chip": "ym2612"
    },
    {
      "channel": 4,
      "note": 76,
      "start": 52.2404,
      "duration": 0.0461,
      "velocity": 119,
      "chip": "ym2612"
    },
    {
      "channel": 0,
      "note": 42,
      "start": 52.3571,
      "duration": 0.1293,
      "velocity": 116,
      "chip": "ym2612"
    },
    {
      "channel": 1,
      "note": 61,
      "start": 52.3593,
      "duration": 0.2104,
      "velocity": 127,
      "chip": "ym2612"
    },
    {
      "channel": 4,
      "note": 66,
      "start": 52.4738,
      "duration": 0.0461,
      "velocity": 119,
      "chip": "ym2612"
    },
    {
      "channel": 4,
      "note": 73,
      "start": 52.5903,
      "duration": 0.0464,
      "velocity": 119,
      "chip": "ym2612"
    },
    {
      "channel": 1,
      "note": 64,
      "start": 52.5938,
      "duration": 0.2093,
      "velocity": 127,
      "chip": "ym2612"
    },
    {
      "channel": 4,
      "note": 73,
      "start": 52.707,
      "duration": 0.0465,
      "velocity": 119,
      "chip": "ym2612"
    },
    {
      "channel": 4,
      "note": 71,
      "start": 52.8238,
      "duration": 0.0461,
      "velocity": 119,
      "chip": "ym2612"
    },
    {
      "channel": 1,
      "note": 65,
      "start": 52.8262,
      "duration": 0.2101,
      "velocity": 127,
      "chip": "ym2612"
    },
    {
      "channel": 4,
      "note": 66,
      "start": 53.0571,
      "duration": 0.0244,
      "velocity": 119,
      "chip": "ym2612"
    },
    {
      "channel": 0,
      "note": 42,
      "start": 53.0593,
      "duration": 0.063,
      "velocity": 116,
      "chip": "ym2612"
    },
    {
      "channel": 1,
      "note": 66,
      "start": 53.0614,
      "duration": 0.0888,
      "velocity": 127,
      "chip": "ym2612"
    },
    {
      "channel": 1,
      "note": 61,
      "start": 53.1677,
      "duration": 0.0838,
      "velocity": 127,
      "chip": "ym2612"
    },
    {
      "channel": 1,
      "note": 64,
      "start": 53.2698,
      "duration": 0.0875,
      "velocity": 127,
      "chip": "ym2612"
    },
    {
      "channel": 1,
      "note": 65,
      "start": 53.3668,
      "duration": 0.0922,
      "velocity": 127,
      "chip": "ym2612"
    },
    {
      "channel": 0,
      "note": 42,
      "start": 53.469,
      "duration": 0.0537,
      "velocity": 116,
      "chip": "ym2612"
    },
    {
      "channel": 1,
      "note": 66,
      "start": 53.471,
      "duration": 0.0856,
      "velocity": 127,
      "chip": "ym2612"
    },
    {
      "channel": 4,
      "note": 76,
      "start": 53.5181,
      "duration": 0.012,
      "velocity": 119,
      "chip": "ym2612"
    },
    {
      "channel": 0,
      "note": 42,
      "start": 53.5671,
      "duration": 0.0555,
      "velocity": 116,
      "chip": "ym2612"
    },
    {
      "channel": 1,
      "note": 61,
      "start": 53.569,
      "duration": 0.0884,
      "velocity": 127,
      "chip": "ym2612"
    },
    {
      "channel": 4,
      "note": 66,
      "start": 53.6168,
      "duration": 0.0122,
      "velocity": 119,
      "chip": "ym2612"
    },
    {
      "channel": 4,
      "note": 73,
      "start": 53.6666,
      "duration": 0.0135,
      "velocity": 119,
      "chip": "ym2612"
    },
    {
      "channel": 1,
      "note": 59,
      "start": 53.67,
      "duration": 0.0876,
      "velocity": 127,
      "chip": "ym2612"
    },
    {
      "channel": 4,
      "note": 73,
      "start": 53.7172,
      "duration": 0.0131,
      "velocity": 119,
      "chip": "ym2612"
    },
    {
      "channel": 4,
      "note": 71,
      "start": 53.7678,
      "duration": 0.0134,
      "velocity": 119,
      "chip": "ym2612"
    },
    {
      "channel": 3,
      "note": 49,
      "start": 53.7697,
      "duration": 0.081,
      "velocity": 90,
      "chip": "ym2612"
    },
    {
      "channel": 1,
      "note": 57,
      "start": 53.7716,
      "duration": 0.0871,
      "velocity": 127,
      "chip": "ym2612"
    },
    {
      "channel": 4,
      "note": 69,
      "start": 53.8183,
      "duration": 0.0183,
      "velocity": 119,
      "chip": "ym2612"
    },
    {
      "channel": 4,
      "note": 42,
      "start": 53.8695,
      "duration": 0.0318,
      "velocity": 92,
      "chip": "ym2612"
    },
    {
      "channel": 3,
      "note": 54,
      "start": 53.8717,
      "duration": 3.5129,
      "velocity": 90,
      "chip": "ym2612"
    },
    {
      "channel": 0,
      "note": 42,
      "start": 53.874,
      "duration": 0.1104,
      "velocity": 116,
      "chip": "ym2612"
    },
    {
      "channel": 1,
      "note": 54,
      "start": 53.8759,
      "duration": 0.192,
      "velocity": 127,
      "chip": "ym2612"
    },
    {
      "channel": 2,
      "note": 52,
      "start": 54.0888,
      "duration": 0.0128,
      "velocity": 79,
      "chip": "ym2612"
    },
    {
      "channel": 1,
      "note": 49,
      "start": 54.0913,
      "duration": 0.2098,
      "velocity": 127,
      "chip": "ym2612"
    },
    {
      "channel": 2,
      "note": 49,
      "start": 54.2052,
      "duration": 0.0796,
      "velocity": 79,
      "chip": "ym2612"
    },
    {
      "channel": 4,
      "note": 42,
      "start": 54.2075,
      "duration": 0.044,
      "velocity": 92,
      "chip": "ym2612"
    },
    {
      "channel": 2,
      "note": 54,
      "start": 54.3219,
      "duration": 0.0797,
      "velocity": 79,
      "chip": "ym2612"
    },
    {
      "channel": 4,
      "note": 54,
      "start": 54.3239,
      "duration": 0.0442,
      "velocity": 92,
      "chip": "ym2612"
    },
    {
      "channel": 1,
      "note": 52,
      "start": 54.3271,
      "duration": 0.2074,
      "velocity": 127,
      "chip": "ym2612"
    },
    {
      "channel": 4,
      "note": 54,
      "start": 54.4386,
      "duration": 0.0462,
      "velocity": 92,
      "chip": "ym2612"
    },
    {
      "channel": 2,
      "note": 54,
      "start": 54.5566,
      "duration": 0.095,
      "velocity": 79,
      "chip": "ym2612"
    },
    {
      "channel": 1,
      "note": 53,
      "start": 54.5598,
      "duration": 0.2081,
      "velocity": 127,
      "chip": "ym2612"
    },
    {
      "channel": 4,
      "note": 42,
      "start": 54.6886,
      "duration": 0.0293,
      "velocity": 92,
      "chip": "ym2612"
    },
    {
      "channel": 2,
      "note": 74,
      "start": 54.6911,
      "duration": 0.0272,
      "velocity": 112,
      "chip": "ym2612"
    },
    {
      "channel": 5,
      "note": 52,
      "start": 54.8052,
      "duration": 0.1129,
      "velocity": 79,
      "chip": "ym2612"
    },
    {
      "channel": 4,
      "note": 52,
      "start": 54.8073,
      "duration": 0.0274,
      "velocity": 92,
      "chip": "ym2612"
    },
    {
      "channel": 1,
      "note": 54,
      "start": 54.8097,
      "duration": 0.2081,
      "velocity": 127,
      "chip": "ym2612"
    },
    {
      "channel": 4,
      "note": 52,
      "start": 54.9219,
      "duration": 0.0296,
      "velocity": 92,
      "chip": "ym2612"
    },
    {
      "channel": 5,
      "note": 52,
      "start": 55.0397,
      "duration": 0.0951,
      "velocity": 79,
      "chip": "ym2612"
    },
    {
      "channel": 0,
      "note": 42,
      "start": 55.0419,
      "duration": 0.1258,
      "velocity": 116,
      "chip": "ym2612"
    },
    {
      "channel": 2,
      "note": 81,
      "start": 55.0442,
      "duration": 0.024,
      "velocity": 27,
      "chip": "ym2612"
    },
    {
      "channel": 1,
      "note": 61,
      "start": 55.0463,
      "duration": 0.2048,
      "velocity": 127,
      "chip": "ym2612"
    },
    {
      "channel": 4,
      "note": 42,
      "start": 55.1552,
      "duration": 0.0294,
      "velocity": 92,
      "chip": "ym2612"
    },
    {
      "channel": 5,
      "note": 49,
      "start": 55.2718,
      "duration": 0.1466,
      "velocity": 79,
      "chip": "ym2612"
    },
    {
      "channel": 4,
      "note": 49,
      "start": 55.2738,
      "duration": 0.0277,
      "velocity": 92,
      "chip": "ym2612"
    },
    {
      "channel": 1,
      "note": 64,
      "start": 55.277,
      "duration": 0.2075,
      "velocity": 127,
      "chip": "ym2612"
    },
    {
      "channel": 4,
      "note": 49,
      "start": 55.3884,
      "duration": 0.0298,
      "velocity": 92,
      "chip": "ym2612"
    },
    {
      "channel": 5,
      "note": 47,
      "start": 55.5057,
      "duration": 0.1293,
      "velocity": 79,
      "chip": "ym2612"
    },
    {
      "channel": 4,
      "note": 47,
      "start": 55.5078,
      "duration": 0.027,
      "velocity": 92,
      "chip": "ym2612"
    },
    {
      "channel": 2,
      "note": 81,
      "start": 55.5102,
      "duration": 0.0413,
      "velocity": 27,
      "chip": "ym2612"
    },
    {
      "channel": 1,
      "note": 65,
      "start": 55.5122,
      "duration": 0.2055,
      "velocity": 127,
      "chip": "ym2612"
    },
    {
      "channel": 4,
      "note": 45,
      "start": 55.6218,
      "duration": 0.0297,
      "velocity": 92,
      "chip": "ym2612"
    },
    {
      "channel": 2,
      "note": 81,
      "start": 55.6241,
      "duration": 0.0441,
      "velocity": 27,
      "chip": "ym2612"
    },
    {
      "channel": 5,
      "note": 49,
      "start": 55.7395,
      "duration": 0.1287,
      "velocity": 79,
      "chip": "ym2612"
    },
    {
      "channel": 4,
      "note": 42,
      "start": 55.7417,
      "duration": 0.0264,
      "velocity": 92,
      "chip": "ym2612"
    },
    {
      "channel": 0,
      "note": 42,
      "start": 55.7439,
      "duration": 0.1239,
      "velocity": 116,
      "chip": "ym2612"
    },
    {
      "channel": 1,
      "note": 66,
      "start": 55.7461,
      "duration": 0.2051,
      "velocity": 127,
      "chip": "ym2612"
    },
    {
      "channel": 5,
      "note": 52,
      "start": 55.972,
      "duration": 0.0796,
      "velocity": 79,
      "chip": "ym2612"
    },
    {
      "channel": 2,
      "note": 74,
      "start": 55.9744,
      "duration": 0.027,
      "velocity": 112,
      "chip": "ym2612"
    },
    {
      "channel": 1,
      "note": 61,
      "start": 55.9764,
      "duration": 0.2081,
      "velocity": 127,
      "chip": "ym2612"
    },
    {
      "channel": 5,
      "note": 49,
      "start": 56.0884,
      "duration": 0.0798,
      "velocity": 79,
      "chip": "ym2612"
    },
    {
      "channel": 4,
      "note": 42,
      "start": 56.0905,
      "duration": 0.0274,
      "velocity": 92,
      "chip": "ym2612"
    },
    {
      "channel": 2,
      "note": 74,
      "start": 56.0929,
      "duration": 0.0253,
      "velocity": 112,
      "chip": "ym2612"
    },
    {
      "channel": 5,
      "note": 54,
      "start": 56.2053,
      "duration": 0.0962,
      "velocity": 79,
      "chip": "ym2612"
    },
    {
      "channel": 4,
      "note": 54,
      "start": 56.2073,
      "duration": 0.0276,
      "velocity": 92,
      "chip": "ym2612"
    },
    {
      "channel": 2,
      "note": 81,
      "start": 56.2106,
      "duration": 0.0911,
      "velocity": 27,
      "chip": "ym2612"
    },
    {
      "channel": 1,
      "note": 64,
      "start": 56.2126,
      "duration": 0.2052,
      "velocity": 127,
      "chip": "ym2612"
    },
    {
      "channel": 4,
      "note": 54,
      "start": 56.3223,
      "duration": 0.0459,
      "velocity": 92,
      "chip": "ym2612"
    },
    {
      "channel": 5,
      "note": 54,
      "start": 56.4398,
      "duration": 0.1117,
      "velocity": 79,
      "chip": "ym2612"
    },
    {
      "channel": 2,
      "note": 74,
      "start": 56.4424,
      "duration": 0.0592,
      "velocity": 112,
      "chip": "ym2612"
    },
    {
      "channel": 1,
      "note": 65,
      "start": 56.4444,
      "duration": 0.2067,
      "velocity": 127,
      "chip": "ym2612"
    },
    {
      "channel": 4,
      "note": 42,
      "start": 56.5553,
      "duration": 0.0459,
      "velocity": 92,
      "chip": "ym2612"
    },
    {
      "channel": 2,
      "note": 74,
      "start": 56.5577,
      "duration": 0.0605,
      "velocity": 112,
      "chip": "ym2612"
    },
    {
      "channel": 5,
      "note": 52,
      "start": 56.6716,
      "duration": 0.1132,
      "velocity": 79,
      "chip": "ym2612"
    },
    {
      "channel": 4,
      "note": 52,
      "start": 56.6737,
      "duration": 0.0443,
      "velocity": 92,
      "chip": "ym2612"
    },
    {
      "channel": 1,
      "note": 66,
      "start": 56.6761,
      "duration": 0.2083,
      "velocity": 127,
      "chip": "ym2612"
    },
    {
      "channel": 4,
      "note": 52,
      "start": 56.7886,
      "duration": 0.0462,
      "velocity": 92,
      "chip": "ym2612"
    },
    {
      "channel": 5,
      "note": 49,
      "start": 56.9052,
      "duration": 0.1464,
      "velocity": 79,
      "chip": "ym2612"
    },
    {
      "channel": 0,
      "note": 42,
      "start": 56.9074,
      "duration": 0.1437,
      "velocity": 116,
      "chip": "ym2612"
    },
    {
      "channel": 2,
      "note": 74,
      "start": 56.9097,
      "duration": 0.0419,
      "velocity": 112,
      "chip": "ym2612"
    },
    {
      "channel": 1,
      "note": 61,
      "start": 56.9118,
      "duration": 0.4398,
      "velocity": 127,
      "chip": "ym2612"
    },
    {
      "channel": 4,
      "note": 40,
      "start": 57.0218,
      "duration": 0.0463,
      "velocity": 92,
      "chip": "ym2612"
    },
    {
      "channel": 2,
      "note": 74,
      "start": 57.0243,
      "duration": 0.044,
      "velocity": 112,
      "chip": "ym2612"
    },
    {
      "channel": 5,
      "note": 57,
      "start": 57.1551,
      "duration": 0.0798,
      "velocity": 79,
      "chip": "ym2612"
    },
    {
      "channel": 4,
      "note": 49,
      "start": 57.1571,
      "duration": 0.0277,
      "velocity": 92,
      "chip": "ym2612"
    },
    {
      "channel": 2,
      "note": 81,
      "start": 57.1603,
      "duration": 0.0414,
      "velocity": 27,
      "chip": "ym2612"
    },
    {
      "channel": 0,
      "note": 54,
      "start": 57.1627,
      "duration": 0.1884,
      "velocity": 127,
      "chip": "ym2612"
    },
    {
      "channel": 4,
      "note": 49,
      "start": 57.2718,
      "duration": 0.0298,
      "velocity": 92,
      "chip": "ym2612"
    },
    {
      "channel": 2,
      "note": 81,
      "start": 57.2741,
      "duration": 0.0608,
      "velocity": 27,
      "chip": "ym2612"
    },
    {
      "channel": 5,
      "note": 57,
      "start": 57.3899,
      "duration": 0.1117,
      "velocity": 79,
      "chip": "ym2612"
    },
    {
      "channel": 4,
      "note": 47,
      "start": 57.3919,
      "duration": 0.0263,
      "velocity": 92,
      "chip": "ym2612"
    },
    {
      "channel": 3,
      "note": 49,
      "start": 57.3942,
      "duration": 0.2073,
      "velocity": 90,
      "chip": "ym2612"
    },
    {
      "channel": 2,
      "note": 81,
      "start": 57.3966,
      "duration": 0.055,
      "velocity": 27,
      "chip": "ym2612"
    },
    {
      "channel": 0,
      "note": 53,
      "start": 57.3985,
      "duration": 0.2025,
      "velocity": 127,
      "chip": "ym2612"
    },
    {
      "channel": 4,
      "note": 45,
      "start": 57.5052,
      "duration": 0.0293,
      "velocity": 92,
      "chip": "ym2612"
    },
    {
      "channel": 4,
      "note": 42,
      "start": 57.6218,
      "duration": 0.0295,
      "velocity": 92,
      "chip": "ym2612"
    },
    {
      "channel": 3,
      "note": 42,
      "start": 57.6244,
      "duration": 3.1109,
      "velocity": 90,
      "chip": "ym2612"
    },
    {
      "channel": 1,
      "note": 42,
      "start": 57.6272,
      "duration": 0.1239,
      "velocity": 116,
      "chip": "ym2612"
    },
    {
      "channel": 0,
      "note": 54,
      "start": 57.6294,
      "duration": 0.205,
      "velocity": 127,
      "chip": "ym2612"
    },
    {
      "channel": 5,
      "note": 52,
      "start": 57.8557,
      "duration": 0.0456,
      "velocity": 79,
      "chip": "ym2612"
    },
    {
      "channel": 4,
      "note": 42,
      "start": 57.858,
      "duration": 0.0267,
      "velocity": 92,
      "chip": "ym2612"
    },
    {
      "channel": 1,
      "note": 42,
      "start": 57.8601,
      "duration": 0.1244,
      "velocity": 116,
      "chip": "ym2612"
    },
    {
      "channel": 2,
      "note": 74,
      "start": 57.8625,
      "duration": 0.0391,
      "velocity": 112,
      "chip": "ym2612"
    },
    {
      "channel": 0,
      "note": 49,
      "start": 57.8644,
      "duration": 0.2034,
      "velocity": 127,
      "chip": "ym2612"
    },
    {
      "channel": 5,
      "note": 49,
      "start": 57.9718,
      "duration": 0.0796,
      "velocity": 79,
      "chip": "ym2612"
    },
    {
      "channel": 4,
      "note": 42,
      "start": 57.9739,
      "duration": 0.0273,
      "velocity": 92,
      "chip": "ym2612"
    },
    {
      "channel": 2,
      "note": 74,
      "start": 57.9763,
      "duration": 0.0419,
      "velocity": 112,
      "chip": "ym2612"
    },
    {
      "channel": 5,
      "note": 54,
      "start": 58.0885,
      "duration": 0.0798,
      "velocity": 79,
      "chip": "ym2612"
    },
    {
      "channel": 4,
      "note": 54,
      "start": 58.0905,
      "duration": 0.0277,
      "velocity": 92,
      "chip": "ym2612"
    },
    {
      "channel": 0,
      "note": 52,
      "start": 58.0937,
      "duration": 0.2075,
      "velocity": 127,
      "chip": "ym2612"
    },
    {
      "channel": 4,
      "note": 54,
      "start": 58.2052,
      "duration": 0.0294,
      "velocity": 92,
      "chip": "ym2612"
    },
    {
      "channel": 5,
      "note": 54,
      "start": 58.3231,
      "duration": 0.1118,
      "velocity": 79,
      "chip": "ym2612"
    },
    {
      "channel": 2,
      "note": 74,
      "start": 58.3256,
      "duration": 0.0427,
      "velocity": 112,
      "chip": "ym2612"
    },
    {
      "channel": 0,
      "note": 53,
      "start": 58.3275,
      "duration": 0.2069,
      "velocity": 127,
      "chip": "ym2612"
    },
    {
      "channel": 4,
      "note": 42,
      "start": 58.4386,
      "duration": 0.0295,
      "velocity": 92,
      "chip": "ym2612"
    },
    {
      "channel": 2,
      "note": 74,
      "start": 58.441,
      "duration": 0.0606,
      "velocity": 112,
      "chip": "ym2612"
    },
    {
      "channel": 5,
      "note": 52,
      "start": 58.5552,
      "duration": 0.0963,
      "velocity": 79,
      "chip": "ym2612"
    },
    {
      "channel": 4,
      "note": 52,
      "start": 58.5572,
      "duration": 0.0273,
      "velocity": 92,
      "chip": "ym2612"
    },
    {
      "channel": 0,
      "note": 54,
      "start": 58.5595,
      "duration": 0.2082,
      "velocity": 127,
      "chip": "ym2612"
    },
    {
      "channel": 4,
      "note": 52,
      "start": 58.6718,
      "duration": 0.0296,
      "velocity": 92,
      "chip": "ym2612"
    },
    {
      "channel": 5,
      "note": 52,
      "start": 58.7896,
      "duration": 0.0952,
      "velocity": 79,
      "chip": "ym2612"
    },
    {
      "channel": 1,
      "note": 42,
      "start": 58.7919,
      "duration": 0.1259,
      "velocity": 116,
      "chip": "ym2612"
    },
    {
      "channel": 2,
      "note": 74,
      "start": 58.7947,
      "duration": 0.0235,
      "velocity": 112,
      "chip": "ym2612"
    },
    {
      "channel": 0,
      "note": 61,
      "start": 58.7966,
      "duration": 0.2045,
      "velocity": 127,
      "chip": "ym2612"
    },
    {
      "channel": 4,
      "note": 42,
      "start": 58.9052,
      "duration": 0.046,
      "velocity": 92,
      "chip": "ym2612"
    },
    {
      "channel": 2,
      "note": 74,
      "start": 58.9076,
      "duration": 0.044,
      "velocity": 112,
      "chip": "ym2612"
    },
    {
      "channel": 4,
      "note": 49,
      "start": 59.0217,
      "duration": 0.0465,
      "velocity": 92,
      "chip": "ym2612"
    },
    {
      "channel": 2,
      "note": 81,
      "start": 59.0252,
      "duration": 0.0597,
      "velocity": 27,
      "chip": "ym2612"
    },
    {
      "channel": 0,
      "note": 64,
      "start": 59.0272,
      "duration": 0.2073,
      "velocity": 127,
      "chip": "ym2612"
    },
    {
      "channel": 4,
      "note": 49,
      "start": 59.1384,
      "duration": 0.0465,
      "velocity": 92,
      "chip": "ym2612"
    },
    {
      "channel": 2,
      "note": 81,
      "start": 59.1407,
      "duration": 0.0776,
      "velocity": 27,
      "chip": "ym2612"
    },
    {
      "channel": 5,
      "note": 47,
      "start": 59.2552,
      "duration": 0.113,
      "velocity": 79,
      "chip": "ym2612"
    },
    {
      "channel": 4,
      "note": 47,
      "start": 59.2572,
      "duration": 0.0443,
      "velocity": 92,
      "chip": "ym2612"
    },
    {
      "channel": 2,
      "note": 81,
      "start": 59.2595,
      "duration": 0.0588,
      "velocity": 27,
      "chip": "ym2612"
    },
    {
      "channel": 0,
      "note": 65,
      "start": 59.2615,
      "duration": 0.2063,
      "velocity": 127,
      "chip": "ym2612"
    },
    {
      "channel": 4,
      "note": 45,
      "start": 59.3719,
      "duration": 0.0459,
      "velocity": 92,
      "chip": "ym2612"
    },
    {
      "channel": 2,
      "note": 81,
      "start": 59.3742,
      "duration": 0.0607,
      "velocity": 27,
      "chip": "ym2612"
    },
    {
      "channel": 4,
      "note": 40,
      "start": 59.489,
      "duration": 0.0456,
      "velocity": 92,
      "chip": "ym2612"
    },
    {
      "channel": 1,
      "note": 42,
      "start": 59.4912,
      "duration": 0.1433,
      "velocity": 116,
      "chip": "ym2612"
    },
    {
      "channel": 0,
      "note": 66,
      "start": 59.4939,
      "duration": 0.2072,
      "velocity": 127,
      "chip": "ym2612"
    },
    {
      "channel": 5,
      "note": 52,
      "start": 59.7397,
      "duration": 0.0449,
      "velocity": 79,
      "chip": "ym2612"
    },
    {
      "channel": 4,
      "note": 42,
      "start": 59.7418,
      "duration": 0.0263,
      "velocity": 92,
      "chip": "ym2612"
    },
    {
      "channel": 1,
      "note": 42,
      "start": 59.7439,
      "duration": 0.124,
      "velocity": 116,
      "chip": "ym2612"
    },
    {
      "channel": 2,
      "note": 74,
      "start": 59.7462,
      "duration": 0.0388,
      "velocity": 112,
      "chip": "ym2612"
    },
    {
      "channel": 0,
      "note": 61,
      "start": 59.7481,
      "duration": 0.1863,
      "velocity": 127,
      "chip": "ym2612"
    },
    {
      "channel": 5,
      "note": 49,
      "start": 59.8552,
      "duration": 0.0627,
      "velocity": 79,
      "chip": "ym2612"
    },
    {
      "channel": 2,
      "note": 74,
      "start": 59.8578,
      "duration": 0.027,
      "velocity": 112,
      "chip": "ym2612"
    },
    {
      "channel": 5,
      "note": 54,
      "start": 59.9719,
      "duration": 0.0297,
      "velocity": 79,
      "chip": "ym2612"
    },
    {
      "channel": 4,
      "note": 42,
      "start": 59.9741,
      "duration": 0.0272,
      "velocity": 92,
      "chip": "ym2612"
    },
    {
      "channel": 1,
      "note": 42,
      "start": 59.9763,
      "duration": 0.1248,
      "velocity": 116,
      "chip": "ym2612"
    },
    {
      "channel": 0,
      "note": 64,
      "start": 59.9785,
      "duration": 0.206,
      "velocity": 127,
      "chip": "ym2612"
    },
    {
      "channel": 5,
      "note": 54,
      "start": 60.089,
      "duration": 0.0959,
      "velocity": 79,
      "chip": "ym2612"
    },
    {
      "channel": 4,
      "note": 54,
      "start": 60.0911,
      "duration": 0.0268,
      "velocity": 92,
      "chip": "ym2612"
    },
    {
      "channel": 5,
      "note": 52,
      "start": 60.2063,
      "duration": 0.0952,
      "velocity": 79,
      "chip": "ym2612"
    },
    {
      "channel": 2,
      "note": 74,
      "start": 60.2087,
      "duration": 0.0261,
      "velocity": 112,
      "chip": "ym2612"
    },
    {
      "channel": 0,
      "note": 65,
      "start": 60.2106,
      "duration": 0.2071,
      "velocity": 127,
      "chip": "ym2612"
    },
    {
      "channel": 4,
      "note": 42,
      "start": 60.3218,
      "duration": 0.0293,
      "velocity": 92,
      "chip": "ym2612"
    },
    {
      "channel": 2,
      "note": 74,
      "start": 60.3243,
      "duration": 0.0273,
      "velocity": 112,
      "chip": "ym2612"
    },
    {
      "channel": 5,
      "note": 49,
      "start": 60.4397,
      "duration": 0.0099,
      "velocity": 79,
      "chip": "ym2612"
    },
    {
      "channel": 4,
      "note": 52,
      "start": 60.4417,
      "duration": 0.0173,
      "velocity": 92,
      "chip": "ym2612"
    },
    {
      "channel": 1,
      "note": 42,
      "start": 60.444,
      "duration": 0.0588,
      "velocity": 116,
      "chip": "ym2612"
    },
    {
      "channel": 2,
      "note": 81,
      "start": 60.4467,
      "duration": 0.0268,
      "velocity": 27,
      "chip": "ym2612"
    },
    {
      "channel": 0,
      "note": 61,
      "start": 60.4487,
      "duration": 0.0891,
      "velocity": 127,
      "chip": "ym2612"
    },
    {
      "channel": 4,
      "note": 52,
      "start": 60.4964,
      "duration": 0.0138,
      "velocity": 92,
      "chip": "ym2612"
    },
    {
      "channel": 2,
      "note": 47,
      "start": 60.5488,
      "duration": 0.0555,
      "velocity": 79,
      "chip": "ym2612"
    },
    {
      "channel": 1,
      "note": 42,
      "start": 60.5508,
      "duration": 0.0531,
      "velocity": 116,
      "chip": "ym2612"
    },
    {
      "channel": 4,
      "note": 49,
      "start": 60.5551,
      "duration": 0.0282,
      "velocity": 119,
      "chip": "ym2612"
    },
    {
      "channel": 0,
      "note": 59,
      "start": 60.5581,
      "duration": 0.0945,
      "velocity": 127,
      "chip": "ym2612"
    },
    {
      "channel": 4,
      "note": 42,
      "start": 60.6006,
      "duration": 0.0109,
      "velocity": 92,
      "chip": "ym2612"
    },
    {
      "channel": 2,
      "note": 45,
      "start": 60.6736,
      "duration": 0.0618,
      "velocity": 79,
      "chip": "ym2612"
    },
    {
      "channel": 4,
      "note": 49,
      "start": 60.6757,
      "duration": 0.016,
      "velocity": 92,
      "chip": "ym2612"
    },
    {
      "channel": 0,
      "note": 57,
      "start": 60.6787,
      "duration": 0.0918,
      "velocity": 127,
      "chip": "ym2612"
    },
    {
      "channel": 4,
      "note": 49,
      "start": 60.7294,
      "duration": 0.0122,
      "velocity": 92,
      "chip": "ym2612"
    },
    {
      "channel": 4,
      "note": 47,
      "start": 60.7793,
      "duration": 0.0139,
      "velocity": 92,
      "chip": "ym2612"
    },
    {
      "channel": 1,
      "note": 49,
      "start": 60.7827,
      "duration": 0.0318,
      "velocity": 119,
      "chip": "ym2612"
    },
    {
      "channel": 2,
      "note": 74,
      "start": 60.7846,
      "duration": 0.0089,
      "velocity": 112,
      "chip": "ym2612"
    },
    {
      "channel": 0,
      "note": 50,
      "start": 60.7876,
      "duration": 0.0412,
      "velocity": 127,
      "chip": "ym2612"
    },
    {
      "channel": 4,
      "note": 45,
      "start": 60.831,
      "duration": 0.0129,
      "velocity": 92,
      "chip": "ym2612"
    },
    {
      "channel": 2,
      "note": 74,
      "start": 60.8339,
      "duration": 0.0101,
      "velocity": 112,
      "chip": "ym2612"
    },
    {
      "channel": 4,
      "note": 40,
      "start": 60.9028,
      "duration": 0.0261,
      "velocity": 92,
      "chip": "ym2612"
    },
    {
      "channel": 2,
      "note": 74,
      "start": 60.9053,
      "duration": 0.0295,
      "velocity": 112,
      "chip": "ym2612"
    },
    {
      "channel": 0,
      "note": 42,
      "start": 60.9085,
      "duration": 0.0477,
      "velocity": 92,
      "chip": "ym2612"
    },
    {
      "channel": 0,
      "note": 42,
      "start": 61.0086,
      "duration": 0.0189,
      "velocity": 92,
      "chip": "ym2612"
    },
    {
      "channel": 0,
      "note": 49,
      "start": 61.0854,
      "duration": 0.062,
      "velocity": 92,
      "chip": "ym2612"
    },
    {
      "channel": 1,
      "note": 49,
      "start": 61.2021,
      "duration": 0.0455,
      "velocity": 119,
      "chip": "ym2612"
    },
    {
      "channel": 2,
      "note": 74,
      "start": 61.4354,
      "duration": 0.0228,
      "velocity": 112,
      "chip": "ym2612"
    },
    {
      "channel": 0,
      "note": 49,
      "start": 61.4376,
      "duration": 0.042,
      "velocity": 92,
      "chip": "ym2612"
    },
    {
      "channel": 2,
      "note": 74,
      "start": 61.49,
      "duration": 0.0193,
      "velocity": 112,
      "chip": "ym2612"
    },
    {
      "channel": 0,
      "note": 42,
      "start": 61.4918,
      "duration": 0.0097,
      "velocity": 92,
      "chip": "ym2612"
    },
    {
      "channel": 0,
      "note": 47,
      "start": 61.5468,
      "duration": 0.048,
      "velocity": 92,
      "chip": "ym2612"
    },
    {
      "channel": 2,
      "note": 74,
      "start": 61.7492,
      "duration": 0.0295,
      "velocity": 112,
      "chip": "ym2612"
    },
    {
      "channel": 0,
      "note": 47,
      "start": 61.7512,
      "duration": 0.1103,
      "velocity": 92,
      "chip": "ym2612"
    },
    {
      "channel": 2,
      "note": 74,
      "start": 61.8664,
      "duration": 0.0288,
      "velocity": 112,
      "chip": "ym2612"
    },
    {
      "channel": 0,
      "note": 45,
      "start": 61.9833,
      "duration": 0.1615,
      "velocity": 92,
      "chip": "ym2612"
    },
    {
      "channel": 2,
      "note": 81,
      "start": 62.086,
      "duration": 0.0426,
      "velocity": 27,
      "chip": "ym2612"
    },
    {
      "channel": 0,
      "note": 42,
      "start": 62.3162,
      "duration": 0.0435,
      "velocity": 92,
      "chip": "ym2612"
    },
    {
      "channel": 2,
      "note": 74,
      "start": 62.421,
      "duration": 0.0113,
      "velocity": 112,
      "chip": "ym2612"
    },
    {
      "channel": 0,
      "note": 42,
      "start": 62.4229,
      "duration": 0.0229,
      "velocity": 92,
      "chip": "ym2612"
    },
    {
      "channel": 2,
      "note": 74,
      "start": 62.4965,
      "duration": 0.0625,
      "velocity": 112,
      "chip": "ym2612"
    },
    {
      "channel": 0,
      "note": 49,
      "start": 62.4987,
      "duration": 0.0931,
      "velocity": 92,
      "chip": "ym2612"
    },
    {
      "channel": 1,
      "note": 52,
      "start": 62.6126,
      "duration": 0.0293,
      "velocity": 119,
      "chip": "ym2612"
    },
    {
      "channel": 0,
      "note": 49,
      "start": 62.7296,
      "duration": 0.0956,
      "velocity": 92,
      "chip": "ym2612"
    },
    {
      "channel": 0,
      "note": 49,
      "start": 62.8984,
      "duration": 0.034,
      "velocity": 92,
      "chip": "ym2612"
    },
    {
      "channel": 0,
      "note": 47,
      "start": 62.949,
      "duration": 0.0331,
      "velocity": 92,
      "chip": "ym2612"
    },
    {
      "channel": 0,
      "note": 49,
      "start": 63.0003,
      "duration": 0.0465,
      "velocity": 92,
      "chip": "ym2612"
    },
    {
      "channel": 0,
      "note": 52,
      "start": 63.2951,
      "duration": 0.2595,
      "velocity": 92,
      "chip": "ym2612"
    },
    {
      "channel": 0,
      "note": 42,
      "start": 63.5936,
      "duration": 0.0363,
      "velocity": 92,
      "chip": "ym2612"
    },
    {
      "channel": 4,
      "note": 54,
      "start": 63.647,
      "duration": 0.0043,
      "velocity": 92,
      "chip": "ym2612"
    },
    {
      "channel": 4,
      "note": 54,
      "start": 63.6961,
      "duration": 0.0052,
      "velocity": 92,
      "chip": "ym2612"
    },
    {
      "channel": 4,
      "note": 54,
      "start": 63.7728,
      "duration": 0.0129,
      "velocity": 92,
      "chip": "ym2612"
    },
    {
      "channel": 0,
      "note": 49,
      "start": 63.7753,
      "duration": 0.0936,
      "velocity": 92,
      "chip": "ym2612"
    },
    {
      "channel": 4,
      "note": 66,
      "start": 63.8895,
      "duration": 0.0129,
      "velocity": 92,
      "chip": "ym2612"
    },
    {
      "channel": 1,
      "note": 49,
      "start": 63.8916,
      "duration": 0.0273,
      "velocity": 119,
      "chip": "ym2612"
    },
    {
      "channel": 4,
      "note": 66,
      "start": 64.0063,
      "duration": 0.0127,
      "velocity": 92,
      "chip": "ym2612"
    },
    {
      "channel": 0,
      "note": 49,
      "start": 64.0088,
      "duration": 0.1101,
      "velocity": 92,
      "chip": "ym2612"
    },
    {
      "channel": 4,
      "note": 54,
      "start": 64.1741,
      "duration": 0.0057,
      "velocity": 92,
      "chip": "ym2612"
    },
    {
      "channel": 0,
      "note": 49,
      "start": 64.1764,
      "duration": 0.0385,
      "velocity": 92,
      "chip": "ym2612"
    },
    {
      "channel": 4,
      "note": 64,
      "start": 64.2258,
      "duration": 0.0044,
      "velocity": 92,
      "chip": "ym2612"
    },
    {
      "channel": 0,
      "note": 47,
      "start": 64.2278,
      "duration": 0.0525,
      "velocity": 92,
      "chip": "ym2612"
    },
    {
      "channel": 4,
      "note": 64,
      "start": 64.301,
      "duration": 0.0127,
      "velocity": 92,
      "chip": "ym2612"
    },
    {
      "channel": 0,
      "note": 45,
      "start": 64.3034,
      "duration": 0.0935,
      "velocity": 92,
      "chip": "ym2612"
    },
    {
      "channel": 2,
      "note": 74,
      "start": 64.418,
      "duration": 0.0628,
      "velocity": 112,
      "chip": "ym2612"
    },
    {
      "channel": 0,
      "note": 42,
      "start": 64.4207,
      "duration": 0.0597,
      "velocity": 92,
      "chip": "ym2612"
    },
    {
      "channel": 4,
      "note": 54,
      "start": 64.5343,
      "duration": 0.0127,
      "velocity": 92,
      "chip": "ym2612"
    },
    {
      "channel": 2,
      "note": 74,
      "start": 64.5368,
      "duration": 0.0605,
      "velocity": 112,
      "chip": "ym2612"
    },
    {
      "channel": 4,
      "note": 61,
      "start": 64.6509,
      "duration": 0.0097,
      "velocity": 92,
      "chip": "ym2612"
    },
    {
      "channel": 0,
      "note": 45,
      "start": 64.6535,
      "duration": 0.2268,
      "velocity": 92,
      "chip": "ym2612"
    },
    {
      "channel": 4,
      "note": 61,
      "start": 64.7071,
      "duration": 0.004,
      "velocity": 92,
      "chip": "ym2612"
    },
    {
      "channel": 2,
      "note": 81,
      "start": 64.7555,
      "duration": 0.0585,
      "velocity": 27,
      "chip": "ym2612"
    },
    {
      "channel": 4,
      "note": 54,
      "start": 64.8677,
      "duration": 0.013,
      "velocity": 92,
      "chip": "ym2612"
    },
    {
      "channel": 4,
      "note": 59,
      "start": 64.9842,
      "duration": 0.0169,
      "velocity": 92,
      "chip": "ym2612"
    },
    {
      "channel": 0,
      "note": 42,
      "start": 64.9869,
      "duration": 0.0427,
      "velocity": 92,
      "chip": "ym2612"
    },
    {
      "channel": 4,
      "note": 59,
      "start": 65.04,
      "duration": 0.0114,
      "velocity": 92,
      "chip": "ym2612"
    },
    {
      "channel": 2,
      "note": 74,
      "start": 65.0887,
      "duration": 0.0259,
      "velocity": 112,
      "chip": "ym2612"
    },
    {
      "channel": 4,
      "note": 54,
      "start": 65.1654,
      "duration": 0.0294,
      "velocity": 92,
      "chip": "ym2612"
    },
    {
      "channel": 2,
      "note": 74,
      "start": 65.1678,
      "duration": 0.0607,
      "velocity": 112,
      "chip": "ym2612"
    },
    {
      "channel": 0,
      "note": 42,
      "start": 65.17,
      "duration": 0.058,
      "velocity": 92,
      "chip": "ym2612"
    },
    {
      "channel": 4,
      "note": 57,
      "start": 65.2985,
      "duration": 0.0129,
      "velocity": 92,
      "chip": "ym2612"
    },
    {
      "channel": 1,
      "note": 52,
      "start": 65.3007,
      "duration": 0.0273,
      "velocity": 119,
      "chip": "ym2612"
    },
    {
      "channel": 0,
      "note": 49,
      "start": 65.303,
      "duration": 0.0749,
      "velocity": 92,
      "chip": "ym2612"
    },
    {
      "channel": 4,
      "note": 57,
      "start": 65.4154,
      "duration": 0.0126,
      "velocity": 92,
      "chip": "ym2612"
    },
    {
      "channel": 0,
      "note": 49,
      "start": 65.5323,
      "duration": 0.0433,
      "velocity": 92,
      "chip": "ym2612"
    },
    {
      "channel": 4,
      "note": 54,
      "start": 65.585,
      "duration": 0.0046,
      "velocity": 92,
      "chip": "ym2612"
    },
    {
      "channel": 4,
      "note": 59,
      "start": 65.6339,
      "duration": 0.0073,
      "velocity": 92,
      "chip": "ym2612"
    },
    {
      "channel": 0,
      "note": 47,
      "start": 65.6371,
      "duration": 0.0162,
      "velocity": 92,
      "chip": "ym2612"
    },
    {
      "channel": 4,
      "note": 59,
      "start": 65.683,
      "duration": 0.0058,
      "velocity": 92,
      "chip": "ym2612"
    },
    {
      "channel": 0,
      "note": 49,
      "start": 65.6851,
      "duration": 0.0248,
      "velocity": 92,
      "chip": "ym2612"
    },
    {
      "channel": 2,
      "note": 74,
      "start": 65.7357,
      "duration": 0.0185,
      "velocity": 112,
      "chip": "ym2612"
    },
    {
      "channel": 0,
      "note": 52,
      "start": 65.7376,
      "duration": 0.0662,
      "velocity": 92,
      "chip": "ym2612"
    },
    {
      "channel": 4,
      "note": 54,
      "start": 65.808,
      "duration": 0.0126,
      "velocity": 92,
      "chip": "ym2612"
    },
    {
      "channel": 2,
      "note": 74,
      "start": 65.8104,
      "duration": 0.0439,
      "velocity": 112,
      "chip": "ym2612"
    },
    {
      "channel": 4,
      "note": 61,
      "start": 65.9245,
      "duration": 0.0109,
      "velocity": 92,
      "chip": "ym2612"
    },
    {
      "channel": 2,
      "note": 81,
      "start": 65.927,
      "duration": 0.0371,
      "velocity": 27,
      "chip": "ym2612"
    },
    {
      "channel": 0,
      "note": 49,
      "start": 65.9292,
      "duration": 0.0344,
      "velocity": 92,
      "chip": "ym2612"
    },
    {
      "channel": 4,
      "note": 61,
      "start": 65.9804,
      "duration": 0.0059,
      "velocity": 92,
      "chip": "ym2612"
    },
    {
      "channel": 0,
      "note": 52,
      "start": 65.9834,
      "duration": 0.0169,
      "velocity": 92,
      "chip": "ym2612"
    },
    {
      "channel": 2,
      "note": 81,
      "start": 66.0322,
      "duration": 0.0261,
      "velocity": 27,
      "chip": "ym2612"
    },
    {
      "channel": 0,
      "note": 54,
      "start": 66.0341,
      "duration": 0.0602,
      "velocity": 92,
      "chip": "ym2612"
    },
    {
      "channel": 4,
      "note": 54,
      "start": 66.0812,
      "duration": 0.005,
      "velocity": 92,
      "chip": "ym2612"
    },
    {
      "channel": 2,
      "note": 81,
      "start": 66.084,
      "duration": 0.0236,
      "velocity": 27,
      "chip": "ym2612"
    },
    {
      "channel": 3,
      "note": 49,
      "start": 66.1324,
      "duration": 0.0751,
      "velocity": 79,
      "chip": "ym2612"
    },
    {
      "channel": 4,
      "note": 54,
      "start": 66.1342,
      "duration": 0.008,
      "velocity": 92,
      "chip": "ym2612"
    },
    {
      "channel": 0,
      "note": 42,
      "start": 66.1382,
      "duration": 0.041,
      "velocity": 92,
      "chip": "ym2612"
    },
    {
      "channel": 3,
      "note": 54,
      "start": 66.2323,
      "duration": 0.0335,
      "velocity": 79,
      "chip": "ym2612"
    },
    {
      "channel": 4,
      "note": 54,
      "start": 66.2352,
      "duration": 0.0045,
      "velocity": 92,
      "chip": "ym2612"
    },
    {
      "channel": 2,
      "note": 74,
      "start": 66.238,
      "duration": 0.0206,
      "velocity": 112,
      "chip": "ym2612"
    },
    {
      "channel": 3,
      "note": 47,
      "start": 66.2992,
      "duration": 0.0961,
      "velocity": 79,
      "chip": "ym2612"
    },
    {
      "channel": 2,
      "note": 74,
      "start": 66.3017,
      "duration": 0.0607,
      "velocity": 112,
      "chip": "ym2612"
    },
    {
      "channel": 0,
      "note": 42,
      "start": 66.3038,
      "duration": 0.0581,
      "velocity": 92,
      "chip": "ym2612"
    },
    {
      "channel": 3,
      "note": 52,
      "start": 66.4158,
      "duration": 0.0629,
      "velocity": 79,
      "chip": "ym2612"
    },
    {
      "channel": 4,
      "note": 66,
      "start": 66.418,
      "duration": 0.0107,
      "velocity": 92,
      "chip": "ym2612"
    },
    {
      "channel": 1,
      "note": 49,
      "start": 66.4201,
      "duration": 0.0419,
      "velocity": 119,
      "chip": "ym2612"
    },
    {
      "channel": 0,
      "note": 49,
      "start": 66.4225,
      "duration": 0.0894,
      "velocity": 92,
      "chip": "ym2612"
    },
    {
      "channel": 3,
      "note": 49,
      "start": 66.5342,
      "duration": 0.0777,
      "velocity": 79,
      "chip": "ym2612"
    },
    {
      "channel": 4,
      "note": 66,
      "start": 66.5364,
      "duration": 0.0089,
      "velocity": 92,
      "chip": "ym2612"
    },
    {
      "channel": 3,
      "note": 57,
      "start": 66.6492,
      "duration": 0.0438,
      "velocity": 79,
      "chip": "ym2612"
    },
    {
      "channel": 3,
      "note": 49,
      "start": 66.7027,
      "duration": 0.035,
      "velocity": 79,
      "chip": "ym2612"
    },
    {
      "channel": 4,
      "note": 54,
      "start": 66.7046,
      "duration": 0.0117,
      "velocity": 92,
      "chip": "ym2612"
    },
    {
      "channel": 0,
      "note": 49,
      "start": 66.7068,
      "duration": 0.0387,
      "velocity": 92,
      "chip": "ym2612"
    },
    {
      "channel": 3,
      "note": 54,
      "start": 66.7544,
      "duration": 0.04,
      "velocity": 79,
      "chip": "ym2612"
    },
    {
      "channel": 4,
      "note": 64,
      "start": 66.757,
      "duration": 0.0097,
      "velocity": 92,
      "chip": "ym2612"
    },
    {
      "channel": 0,
      "note": 47,
      "start": 66.7592,
      "duration": 0.0351,
      "velocity": 92,
      "chip": "ym2612"
    },
    {
      "channel": 3,
      "note": 52,
      "start": 66.8495,
      "duration": 0.0783,
      "velocity": 79,
      "chip": "ym2612"
    },
    {
      "channel": 4,
      "note": 64,
      "start": 66.8517,
      "duration": 0.0095,
      "velocity": 92,
      "chip": "ym2612"
    },
    {
      "channel": 0,
      "note": 45,
      "start": 66.8543,
      "duration": 0.1067,
      "velocity": 92,
      "chip": "ym2612"
    },
    {
      "channel": 3,
      "note": 59,
      "start": 66.9661,
      "duration": 0.0784,
      "velocity": 79,
      "chip": "ym2612"
    },
    {
      "channel": 2,
      "note": 74,
      "start": 66.9686,
      "duration": 0.0428,
      "velocity": 112,
      "chip": "ym2612"
    },
    {
      "channel": 0,
      "note": 47,
      "start": 66.9707,
      "duration": 0.107,
      "velocity": 92,
      "chip": "ym2612"
    },
    {
      "channel": 3,
      "note": 49,
      "start": 67.0829,
      "duration": 0.0615,
      "velocity": 79,
      "chip": "ym2612"
    },
    {
      "channel": 4,
      "note": 54,
      "start": 67.0852,
      "duration": 0.0093,
      "velocity": 92,
      "chip": "ym2612"
    },
    {
      "channel": 2,
      "note": 74,
      "start": 67.0875,
      "duration": 0.0406,
      "velocity": 112,
      "chip": "ym2612"
    },
    {
      "channel": 3,
      "note": 54,
      "start": 67.1999,
      "duration": 0.0313,
      "velocity": 79,
      "chip": "ym2612"
    },
    {
      "channel": 4,
      "note": 61,
      "start": 67.2019,
      "duration": 0.0083,
      "velocity": 92,
      "chip": "ym2612"
    },
    {
      "channel": 0,
      "note": 45,
      "start": 67.2046,
      "duration": 0.2404,
      "velocity": 92,
      "chip": "ym2612"
    },
    {
      "channel": 3,
      "note": 49,
      "start": 67.2566,
      "duration": 0.0189,
      "velocity": 79,
      "chip": "ym2612"
    },
    {
      "channel": 4,
      "note": 61,
      "start": 67.2585,
      "duration": 0.0025,
      "velocity": 92,
      "chip": "ym2612"
    },
    {
      "channel": 3,
      "note": 57,
      "start": 67.3075,
      "duration": 0.0877,
      "velocity": 79,
      "chip": "ym2612"
    },
    {
      "channel": 2,
      "note": 81,
      "start": 67.3095,
      "duration": 0.036,
      "velocity": 27,
      "chip": "ym2612"
    },
    {
      "channel": 3,
      "note": 52,
      "start": 67.4168,
      "duration": 0.095,
      "velocity": 79,
      "chip": "ym2612"
    },
    {
      "channel": 4,
      "note": 54,
      "start": 67.419,
      "duration": 0.0097,
      "velocity": 92,
      "chip": "ym2612"
    },
    {
      "channel": 2,
      "note": 81,
      "start": 67.4215,
      "duration": 0.0405,
      "velocity": 27,
      "chip": "ym2612"
    },
    {
      "channel": 3,
      "note": 45,
      "start": 67.5334,
      "duration": 0.0445,
      "velocity": 79,
      "chip": "ym2612"
    },
    {
      "channel": 4,
      "note": 59,
      "start": 67.5354,
      "duration": 0.0081,
      "velocity": 92,
      "chip": "ym2612"
    },
    {
      "channel": 0,
      "note": 42,
      "start": 67.5381,
      "duration": 0.0326,
      "velocity": 92,
      "chip": "ym2612"
    },
    {
      "channel": 4,
      "note": 59,
      "start": 67.5873,
      "duration": 0.0049,
      "velocity": 92,
      "chip": "ym2612"
    },
    {
      "channel": 3,
      "note": 54,
      "start": 67.6373,
      "duration": 0.054,
      "velocity": 79,
      "chip": "ym2612"
    },
    {
      "channel": 2,
      "note": 74,
      "start": 67.6395,
      "duration": 0.0186,
      "velocity": 112,
      "chip": "ym2612"
    },
    {
      "channel": 3,
      "note": 49,
      "start": 67.7118,
      "duration": 0.0795,
      "velocity": 79,
      "chip": "ym2612"
    },
    {
      "channel": 4,
      "note": 54,
      "start": 67.714,
      "duration": 0.0107,
      "velocity": 92,
      "chip": "ym2612"
    },
    {
      "channel": 2,
      "note": 74,
      "start": 67.717,
      "duration": 0.0247,
      "velocity": 112,
      "chip": "ym2612"
    },
    {
      "channel": 0,
      "note": 42,
      "start": 67.7193,
      "duration": 0.0387,
      "velocity": 92,
      "chip": "ym2612"
    },
    {
      "channel": 3,
      "note": 52,
      "start": 67.8301,
      "duration": 0.0779,
      "velocity": 79,
      "chip": "ym2612"
    },
    {
      "channel": 4,
      "note": 57,
      "start": 67.8322,
      "duration": 0.0093,
      "velocity": 92,
      "chip": "ym2612"
    },
    {
      "channel": 1,
      "note": 52,
      "start": 67.8344,
      "duration": 0.0235,
      "velocity": 119,
      "chip": "ym2612"
    },
    {
      "channel": 0,
      "note": 49,
      "start": 67.8369,
      "duration": 0.0877,
      "velocity": 92,
      "chip": "ym2612"
    },
    {
      "channel": 3,
      "note": 47,
      "start": 67.9452,
      "duration": 0.0628,
      "velocity": 79,
      "chip": "ym2612"
    },
    {
      "channel": 4,
      "note": 57,
      "start": 67.9474,
      "duration": 0.0106,
      "velocity": 92,
      "chip": "ym2612"
    },
    {
      "channel": 3,
      "note": 57,
      "start": 68.0619,
      "duration": 0.0433,
      "velocity": 79,
      "chip": "ym2612"
    },
    {
      "channel": 3,
      "note": 52,
      "start": 68.1163,
      "duration": 0.0463,
      "velocity": 79,
      "chip": "ym2612"
    },
    {
      "channel": 4,
      "note": 54,
      "start": 68.1183,
      "duration": 0.0044,
      "velocity": 92,
      "chip": "ym2612"
    },
    {
      "channel": 0,
      "note": 49,
      "start": 68.1217,
      "duration": 0.0337,
      "velocity": 92,
      "chip": "ym2612"
    },
    {
      "channel": 3,
      "note": 54,
      "start": 68.1659,
      "duration": 0.0351,
      "velocity": 79,
      "chip": "ym2612"
    },
    {
      "channel": 4,
      "note": 59,
      "start": 68.1677,
      "duration": 0.008,
      "velocity": 92,
      "chip": "ym2612"
    },
    {
      "channel": 0,
      "note": 47,
      "start": 68.171,
      "duration": 0.0368,
      "velocity": 92,
      "chip": "ym2612"
    },
    {
      "channel": 3,
      "note": 49,
      "start": 68.2183,
      "duration": 0.0316,
      "velocity": 79,
      "chip": "ym2612"
    },
    {
      "channel": 4,
      "note": 59,
      "start": 68.2202,
      "duration": 0.0049,
      "velocity": 92,
      "chip": "ym2612"
    },
    {
      "channel": 0,
      "note": 45,
      "start": 68.224,
      "duration": 0.0258,
      "velocity": 92,
      "chip": "ym2612"
    },
    {
      "channel": 3,
      "note": 59,
      "start": 68.2677,
      "duration": 0.0632,
      "velocity": 79,
      "chip": "ym2612"
    },
    {
      "channel": 2,
      "note": 74,
      "start": 68.2708,
      "duration": 0.0229,
      "velocity": 112,
      "chip": "ym2612"
    },
    {
      "channel": 0,
      "note": 42,
      "start": 68.2733,
      "duration": 0.0574,
      "velocity": 92,
      "chip": "ym2612"
    },
    {
      "channel": 3,
      "note": 52,
      "start": 68.3366,
      "duration": 0.0942,
      "velocity": 79,
      "chip": "ym2612"
    },
    {
      "channel": 4,
      "note": 54,
      "start": 68.3388,
      "duration": 0.0253,
      "velocity": 92,
      "chip": "ym2612"
    },
    {
      "channel": 2,
      "note": 74,
      "start": 68.3414,
      "duration": 0.0396,
      "velocity": 112,
      "chip": "ym2612"
    },
    {
      "channel": 3,
      "note": 57,
      "start": 68.4526,
      "duration": 0.0402,
      "velocity": 79,
      "chip": "ym2612"
    },
    {
      "channel": 4,
      "note": 61,
      "start": 68.4551,
      "duration": 0.0165,
      "velocity": 92,
      "chip": "ym2612"
    },
    {
      "channel": 0,
      "note": 40,
      "start": 68.4599,
      "duration": 0.2689,
      "velocity": 92,
      "chip": "ym2612"
    },
    {
      "channel": 3,
      "note": 49,
      "start": 68.5102,
      "duration": 0.026,
      "velocity": 79,
      "chip": "ym2612"
    },
    {
      "channel": 4,
      "note": 61,
      "start": 68.513,
      "duration": 0.0089,
      "velocity": 92,
      "chip": "ym2612"
    },
    {
      "channel": 3,
      "note": 54,
      "start": 68.5612,
      "duration": 0.0678,
      "velocity": 79,
      "chip": "ym2612"
    },
    {
      "channel": 2,
      "note": 81,
      "start": 68.5634,
      "duration": 0.0494,
      "velocity": 27,
      "chip": "ym2612"
    },
    {
      "channel": 3,
      "note": 52,
      "start": 68.6842,
      "duration": 0.078,
      "velocity": 79,
      "chip": "ym2612"
    },
    {
      "channel": 2,
      "note": 81,
      "start": 68.6873,
      "duration": 0.042,
      "velocity": 27,
      "chip": "ym2612"
    },
    {
      "channel": 3,
      "note": 47,
      "start": 68.8012,
      "duration": 0.0524,
      "velocity": 79,
      "chip": "ym2612"
    },
    {
      "channel": 4,
      "note": 54,
      "start": 68.8033,
      "duration": 0.0076,
      "velocity": 92,
      "chip": "ym2612"
    },
    {
      "channel": 0,
      "note": 42,
      "start": 68.8059,
      "duration": 0.062,
      "velocity": 92,
      "chip": "ym2612"
    },
    {
      "channel": 3,
      "note": 54,
      "start": 68.9061,
      "duration": 0.0544,
      "velocity": 79,
      "chip": "ym2612"
    },
    {
      "channel": 2,
      "note": 74,
      "start": 68.9085,
      "duration": 0.0174,
      "velocity": 112,
      "chip": "ym2612"
    },
    {
      "channel": 3,
      "note": 49,
      "start": 68.9809,
      "duration": 0.0963,
      "velocity": 79,
      "chip": "ym2612"
    },
    {
      "channel": 4,
      "note": 54,
      "start": 68.9831,
      "duration": 0.0108,
      "velocity": 92,
      "chip": "ym2612"
    },
    {
      "channel": 2,
      "note": 74,
      "start": 68.9855,
      "duration": 0.0421,
      "velocity": 112,
      "chip": "ym2612"
    },
    {
      "channel": 0,
      "note": 42,
      "start": 68.9877,
      "duration": 0.0562,
      "velocity": 92,
      "chip": "ym2612"
    },
    {
      "channel": 3,
      "note": 52,
      "start": 69.099,
      "duration": 0.0616,
      "velocity": 79,
      "chip": "ym2612"
    },
    {
      "channel": 4,
      "note": 66,
      "start": 69.101,
      "duration": 0.0097,
      "velocity": 92,
      "chip": "ym2612"
    },
    {
      "channel": 1,
      "note": 49,
      "start": 69.1048,
      "duration": 0.0224,
      "velocity": 119,
      "chip": "ym2612"
    },
    {
      "channel": 0,
      "note": 49,
      "start": 69.1071,
      "duration": 0.1034,
      "velocity": 92,
      "chip": "ym2612"
    },
    {
      "channel": 3,
      "note": 57,
      "start": 69.2145,
      "duration": 0.1127,
      "velocity": 79,
      "chip": "ym2612"
    },
    {
      "channel": 4,
      "note": 66,
      "start": 69.2167,
      "duration": 0.0105,
      "velocity": 92,
      "chip": "ym2612"
    },
    {
      "channel": 3,
      "note": 52,
      "start": 69.3311,
      "duration": 0.0368,
      "velocity": 79,
      "chip": "ym2612"
    },
    {
      "channel": 3,
      "note": 49,
      "start": 69.3861,
      "duration": 0.0478,
      "velocity": 79,
      "chip": "ym2612"
    },
    {
      "channel": 4,
      "note": 54,
      "start": 69.3878,
      "duration": 0.0054,
      "velocity": 92,
      "chip": "ym2612"
    },
    {
      "channel": 0,
      "note": 49,
      "start": 69.3919,
      "duration": 0.0419,
      "velocity": 92,
      "chip": "ym2612"
    },
    {
      "channel": 3,
      "note": 54,
      "start": 69.4371,
      "duration": 0.0386,
      "velocity": 79,
      "chip": "ym2612"
    },
    {
      "channel": 4,
      "note": 64,
      "start": 69.439,
      "duration": 0.0049,
      "velocity": 92,
      "chip": "ym2612"
    },
    {
      "channel": 0,
      "note": 47,
      "start": 69.4424,
      "duration": 0.0331,
      "velocity": 92,
      "chip": "ym2612"
    },
    {
      "channel": 3,
      "note": 52,
      "start": 69.5145,
      "duration": 0.1253,
      "velocity": 79,
      "chip": "ym2612"
    },
    {
      "channel": 4,
      "note": 64,
      "start": 69.5168,
      "duration": 0.0089,
      "velocity": 92,
      "chip": "ym2612"
    },
    {
      "channel": 0,
      "note": 45,
      "start": 69.5191,
      "duration": 0.0731,
      "velocity": 92,
      "chip": "ym2612"
    },
    {
      "channel": 2,
      "note": 59,
      "start": 69.631,
      "duration": 0.0528,
      "velocity": 79,
      "chip": "ym2612"
    },
    {
      "channel": 0,
      "note": 42,
      "start": 69.6341,
      "duration": 0.0342,
      "velocity": 92,
      "chip": "ym2612"
    },
    {
      "channel": 3,
      "note": 49,
      "start": 69.6876,
      "duration": 0.0324,
      "velocity": 79,
      "chip": "ym2612"
    },
    {
      "channel": 4,
      "note": 54,
      "start": 69.6893,
      "duration": 0.0038,
      "velocity": 92,
      "chip": "ym2612"
    },
    {
      "channel": 2,
      "note": 74,
      "start": 69.6914,
      "duration": 0.0219,
      "velocity": 112,
      "chip": "ym2612"
    },
    {
      "channel": 3,
      "note": 57,
      "start": 69.738,
      "duration": 0.0424,
      "velocity": 79,
      "chip": "ym2612"
    },
    {
      "channel": 4,
      "note": 61,
      "start": 69.7399,
      "duration": 0.011,
      "velocity": 92,
      "chip": "ym2612"
    },
    {
      "channel": 1,
      "note": 42,
      "start": 69.7436,
      "duration": 0.0071,
      "velocity": 116,
      "chip": "ym2612"
    },
    {
      "channel": 0,
      "note": 45,
      "start": 69.7455,
      "duration": 0.2088,
      "velocity": 92,
      "chip": "ym2612"
    },
    {
      "channel": 3,
      "note": 47,
      "start": 69.7892,
      "duration": 0.0337,
      "velocity": 79,
      "chip": "ym2612"
    },
    {
      "channel": 4,
      "note": 61,
      "start": 69.792,
      "duration": 0.0019,
      "velocity": 92,
      "chip": "ym2612"
    },
    {
      "channel": 3,
      "note": 54,
      "start": 69.8414,
      "duration": 0.0965,
      "velocity": 79,
      "chip": "ym2612"
    },
    {
      "channel": 2,
      "note": 81,
      "start": 69.8437,
      "duration": 0.0278,
      "velocity": 27,
      "chip": "ym2612"
    },
    {
      "channel": 3,
      "note": 52,
      "start": 69.9434,
      "duration": 0.1111,
      "velocity": 79,
      "chip": "ym2612"
    },
    {
      "channel": 4,
      "note": 54,
      "start": 69.9455,
      "duration": 0.0092,
      "velocity": 92,
      "chip": "ym2612"
    },
    {
      "channel": 3,
      "note": 45,
      "start": 70.0596,
      "duration": 0.0948,
      "velocity": 79,
      "chip": "ym2612"
    },
    {
      "channel": 4,
      "note": 59,
      "start": 70.0617,
      "duration": 0.0095,
      "velocity": 92,
      "chip": "ym2612"
    },
    {
      "channel": 1,
      "note": 42,
      "start": 70.0641,
      "duration": 0.1403,
      "velocity": 116,
      "chip": "ym2612"
    },
    {
      "channel": 0,
      "note": 42,
      "start": 70.0665,
      "duration": 0.0711,
      "velocity": 92,
      "chip": "ym2612"
    },
    {
      "channel": 4,
      "note": 59,
      "start": 70.1751,
      "duration": 0.0297,
      "velocity": 92,
      "chip": "ym2612"
    },
    {
      "channel": 3,
      "note": 54,
      "start": 70.2916,
      "duration": 0.0478,
      "velocity": 79,
      "chip": "ym2612"
    },
    {
      "channel": 2,
      "note": 74,
      "start": 70.2942,
      "duration": 0.0229,
      "velocity": 112,
      "chip": "ym2612"
    },
    {
      "channel": 0,
      "note": 42,
      "start": 70.2963,
      "duration": 0.05,
      "velocity": 92,
      "chip": "ym2612"
    },
    {
      "channel": 3,
      "note": 49,
      "start": 70.3486,
      "duration": 0.0348,
      "velocity": 79,
      "chip": "ym2612"
    },
    {
      "channel": 4,
      "note": 54,
      "start": 70.3513,
      "duration": 0.0109,
      "velocity": 92,
      "chip": "ym2612"
    },
    {
      "channel": 2,
      "note": 74,
      "start": 70.3535,
      "duration": 0.024,
      "velocity": 112,
      "chip": "ym2612"
    },
    {
      "channel": 3,
      "note": 52,
      "start": 70.4006,
      "duration": 0.0359,
      "velocity": 79,
      "chip": "ym2612"
    },
    {
      "channel": 4,
      "note": 57,
      "start": 70.4024,
      "duration": 0.0123,
      "velocity": 92,
      "chip": "ym2612"
    },
    {
      "channel": 0,
      "note": 40,
      "start": 70.4073,
      "duration": 0.0358,
      "velocity": 92,
      "chip": "ym2612"
    },
    {
      "channel": 3,
      "note": 47,
      "start": 70.4588,
      "duration": 0.028,
      "velocity": 79,
      "chip": "ym2612"
    },
    {
      "channel": 4,
      "note": 57,
      "start": 70.4606,
      "duration": 0.0041,
      "velocity": 92,
      "chip": "ym2612"
    },
    {
      "channel": 3,
      "note": 57,
      "start": 70.5092,
      "duration": 0.0288,
      "velocity": 79,
      "chip": "ym2612"
    },
    {
      "channel": 0,
      "note": 40,
      "start": 70.512,
      "duration": 0.0329,
      "velocity": 92,
      "chip": "ym2612"
    },
    {
      "channel": 3,
      "note": 52,
      "start": 70.5634,
      "duration": 0.0482,
      "velocity": 79,
      "chip": "ym2612"
    },
    {
      "channel": 4,
      "note": 54,
      "start": 70.5652,
      "duration": 0.0065,
      "velocity": 92,
      "chip": "ym2612"
    },
    {
      "channel": 3,
      "note": 54,
      "start": 70.6149,
      "duration": 0.026,
      "velocity": 79,
      "chip": "ym2612"
    },
    {
      "channel": 4,
      "note": 59,
      "start": 70.6168,
      "duration": 0.0066,
      "velocity": 92,
      "chip": "ym2612"
    },
    {
      "channel": 1,
      "note": 42,
      "start": 70.6199,
      "duration": 0.0512,
      "velocity": 116,
      "chip": "ym2612"
    },
    {
      "channel": 0,
      "note": 38,
      "start": 70.6222,
      "duration": 0.0393,
      "velocity": 92,
      "chip": "ym2612"
    },
    {
      "channel": 3,
      "note": 49,
      "start": 70.6645,
      "duration": 0.0566,
      "velocity": 79,
      "chip": "ym2612"
    },
    {
      "channel": 4,
      "note": 59,
      "start": 70.668,
      "duration": 0.0035,
      "velocity": 92,
      "chip": "ym2612"
    },
    {
      "channel": 3,
      "note": 59,
      "start": 70.7762,
      "duration": 0.1119,
      "velocity": 79,
      "chip": "ym2612"
    },
    {
      "channel": 1,
      "note": 42,
      "start": 70.7785,
      "duration": 0.1241,
      "velocity": 116,
      "chip": "ym2612"
    },
    {
      "channel": 0,
      "note": 38,
      "start": 70.7807,
      "duration": 0.107,
      "velocity": 92,
      "chip": "ym2612"
    },
    {
      "channel": 3,
      "note": 52,
      "start": 70.8929,
      "duration": 0.0514,
      "velocity": 79,
      "chip": "ym2612"
    },
    {
      "channel": 4,
      "note": 54,
      "start": 70.8951,
      "duration": 0.0076,
      "velocity": 92,
      "chip": "ym2612"
    },
    {
      "channel": 2,
      "note": 74,
      "start": 70.8975,
      "duration": 0.02,
      "velocity": 112,
      "chip": "ym2612"
    },
    {
      "channel": 3,
      "note": 57,
      "start": 70.9483,
      "duration": 0.0408,
      "velocity": 79,
      "chip": "ym2612"
    },
    {
      "channel": 4,
      "note": 61,
      "start": 70.95,
      "duration": 0.0067,
      "velocity": 92,
      "chip": "ym2612"
    },
    {
      "channel": 0,
      "note": 37,
      "start": 70.9525,
      "duration": 0.0362,
      "velocity": 92,
      "chip": "ym2612"
    },
    {
      "channel": 3,
      "note": 49,
      "start": 70.9999,
      "duration": 0.0407,
      "velocity": 79,
      "chip": "ym2612"
    },
    {
      "channel": 4,
      "note": 61,
      "start": 71.0017,
      "duration": 0.0061,
      "velocity": 92,
      "chip": "ym2612"
    },
    {
      "channel": 3,
      "note": 54,
      "start": 71.0515,
      "duration": 0.0488,
      "velocity": 79,
      "chip": "ym2612"
    },
    {
      "channel": 4,
      "note": 59,
      "start": 71.0534,
      "duration": 0.0089,
      "velocity": 92,
      "chip": "ym2612"
    },
    {
      "channel": 0,
      "note": 37,
      "start": 71.0571,
      "duration": 0.0356,
      "velocity": 92,
      "chip": "ym2612"
    },
    {
      "channel": 3,
      "note": 52,
      "start": 71.1044,
      "duration": 0.0305,
      "velocity": 79,
      "chip": "ym2612"
    },
    {
      "channel": 1,
      "note": 42,
      "start": 71.1579,
      "duration": 0.0921,
      "velocity": 116,
      "chip": "ym2612"
    },
    {
      "channel": 0,
      "note": 54,
      "start": 71.1652,
      "duration": 0.168,
      "velocity": 127,
      "chip": "ym2612"
    },
    {
      "channel": 2,
      "note": 69,
      "start": 71.1768,
      "duration": 0.1736,
      "velocity": 84,
      "chip": "ym2612"
    },
    {
      "channel": 0,
      "note": 49,
      "start": 71.3544,
      "duration": 19.0727,
      "velocity": 127,
      "chip": "ym2612"
    }
  ]
}