{
  "track_name": "03 - A Girl's Wish",
  "duration_sec": 83.191,
  "sample_rate": 44100,
  "note_count": 2063,
  "unique_pitches": 47,
  "pitch_range": 50,
  "avg_note_duration": 0.1552,
  "reconstruction_stats": {
    "notes_reconstructed": 2063,
    "keyon_events": 2063,
    "keyoff_events": 2058,
    "orphan_keyons": 5,
    "unique_pitches": 47,
    "pitch_range": 50,
    "avg_duration_sec": 0.1552
  },
  "metadata": {
    "source": "D\\Dyna Brothers 2\\03 - A Girl's Wish.vgm"
  },
  "notes": [
    {
      "channel": 0,
      "note": 78,
      "start": 0.0,
      "duration": 0.0,
      "velocity": 99,
      "chip": "ym2612"
    },
    {
      "channel": 0,
      "note": 77,
      "start": 0.0,
      "duration": 0.0,
      "velocity": 1,
      "chip": "ym2612"
    },
    {
      "channel": 1,
      "note": 78,
      "start": 0.0,
      "duration": 0.0,
      "velocity": 99,
      "chip": "ym2612"
    },
    {
      "channel": 1,
      "note": 77,
      "start": 0.0,
      "duration": 0.0,
      "velocity": 1,
      "chip": "ym2612"
    },
    {
      "channel": 2,
      "note": 66,
      "start": 0.0,
      "duration": 0.0,
      "velocity": 97,
      "chip": "ym2612"
    },
    {
      "channel": 2,
      "note": 80,
      "start": 0.0,
      "duration": 0.0,
      "velocity": 1,
      "chip": "ym2612"
    },
    {
      "channel": 3,
      "note": 63,
      "start": 0.0,
      "duration": 0.0,
      "velocity": 97,
      "chip": "ym2612"
    },
    {
      "channel": 3,
      "note": 77,
      "start": 0.0,
      "duration": 0.0,
      "velocity": 1,
      "chip": "ym2612"
    },
    {
      "channel": 4,
      "note": 51,
      "start": 0.0,
      "duration": 0.0,
      "velocity": 97,
      "chip": "ym2612"
    },
    {
      "channel": 4,
      "note": 49,
      "start": 0.0,
      "duration": 0.0,
      "velocity": 1,
      "chip": "ym2612"
    },
    {
      "channel": 5,
      "note": 48,
      "start": 0.0,
      "duration": 0.0,
      "velocity": 127,
      "chip": "ym2612"
    },
    {
      "channel": 5,
      "note": 56,
      "start": 0.0,
      "duration": 0.0,
      "velocity": 117,
      "chip": "ym2612"
    },
    {
      "channel": 5,
      "note": 57,
      "start": 0.0,
      "duration": 0.0,
      "velocity": 1,
      "chip": "ym2612"
    },
    {
      "channel": 5,
      "note": 56,
      "start": 0.0,
      "duration": 0.3145,
      "velocity": 117,
      "chip": "ym2612"
    },
    {
      "channel": 5,
      "note": 56,
      "start": 0.3207,
      "duration": 0.1105,
      "velocity": 117,
      "chip": "ym2612"
    },
    {
      "channel": 5,
      "note": 48,
      "start": 0.4374,
      "duration": 0.2272,
      "velocity": 127,
      "chip": "ym2612"
    },
    {
      "channel": 5,
      "note": 56,
      "start": 0.6707,
      "duration": 0.1105,
      "velocity": 117,
      "chip": "ym2612"
    },
    {
      "channel": 5,
      "note": 51,
      "start": 0.7874,
      "duration": 0.0937,
      "velocity": 122,
      "chip": "ym2612"
    },
    {
      "channel": 5,
      "note": 56,
      "start": 0.8872,
      "duration": 0.1107,
      "velocity": 117,
      "chip": "ym2612"
    },
    {
      "channel": 5,
      "note": 56,
      "start": 1.004,
      "duration": 0.1105,
      "velocity": 122,
      "chip": "ym2612"
    },
    {
      "channel": 5,
      "note": 56,
      "start": 1.1207,
      "duration": 0.1105,
      "velocity": 122,
      "chip": "ym2612"
    },
    {
      "channel": 5,
      "note": 51,
      "start": 1.2374,
      "duration": 0.1104,
      "velocity": 122,
      "chip": "ym2612"
    },
    {
      "channel": 5,
      "note": 51,
      "start": 1.3539,
      "duration": 0.1107,
      "velocity": 122,
      "chip": "ym2612"
    },
    {
      "channel": 5,
      "note": 44,
      "start": 1.4707,
      "duration": 0.1105,
      "velocity": 122,
      "chip": "ym2612"
    },
    {
      "channel": 0,
      "note": 83,
      "start": 1.5845,
      "duration": 0.0801,
      "velocity": 97,
      "chip": "ym2612"
    },
    {
      "channel": 5,
      "note": 48,
      "start": 1.5883,
      "duration": 0.0096,
      "velocity": 127,
      "chip": "ym2612"
    },
    {
      "channel": 5,
      "note": 48,
      "start": 1.6044,
      "duration": 0.1936,
      "velocity": 127,
      "chip": "ym2612"
    },
    {
      "channel": 0,
      "note": 84,
      "start": 1.6818,
      "duration": 0.0828,
      "velocity": 97,
      "chip": "ym2612"
    },
    {
      "channel": 1,
      "note": 83,
      "start": 1.749,
      "duration": 0.0828,
      "velocity": 97,
      "chip": "ym2612"
    },
    {
      "channel": 0,
      "note": 85,
      "start": 1.8015,
      "duration": 0.2796,
      "velocity": 97,
      "chip": "ym2612"
    },
    {
      "channel": 5,
      "note": 56,
      "start": 1.8063,
      "duration": 0.1083,
      "velocity": 117,
      "chip": "ym2612"
    },
    {
      "channel": 1,
      "note": 84,
      "start": 1.8658,
      "duration": 0.0824,
      "velocity": 97,
      "chip": "ym2612"
    },
    {
      "channel": 5,
      "note": 57,
      "start": 1.9214,
      "duration": 0.2263,
      "velocity": 115,
      "chip": "ym2612"
    },
    {
      "channel": 1,
      "note": 85,
      "start": 1.9827,
      "duration": 0.2848,
      "velocity": 97,
      "chip": "ym2612"
    },
    {
      "channel": 0,
      "note": 83,
      "start": 2.151,
      "duration": 0.2803,
      "velocity": 97,
      "chip": "ym2612"
    },
    {
      "channel": 5,
      "note": 57,
      "start": 2.1551,
      "duration": 0.1095,
      "velocity": 115,
      "chip": "ym2612"
    },
    {
      "channel": 5,
      "note": 56,
      "start": 2.2712,
      "duration": 0.2099,
      "velocity": 117,
      "chip": "ym2612"
    },
    {
      "channel": 1,
      "note": 83,
      "start": 2.3158,
      "duration": 0.2851,
      "velocity": 97,
      "chip": "ym2612"
    },
    {
      "channel": 0,
      "note": 81,
      "start": 2.4844,
      "duration": 0.1802,
      "velocity": 97,
      "chip": "ym2612"
    },
    {
      "channel": 5,
      "note": 57,
      "start": 2.4885,
      "duration": 0.1094,
      "velocity": 115,
      "chip": "ym2612"
    },
    {
      "channel": 5,
      "note": 57,
      "start": 2.6045,
      "duration": 0.11,
      "velocity": 115,
      "chip": "ym2612"
    },
    {
      "channel": 1,
      "note": 81,
      "start": 2.6656,
      "duration": 0.1828,
      "velocity": 97,
      "chip": "ym2612"
    },
    {
      "channel": 0,
      "note": 81,
      "start": 2.7178,
      "duration": 0.0801,
      "velocity": 97,
      "chip": "ym2612"
    },
    {
      "channel": 5,
      "note": 56,
      "start": 2.7219,
      "duration": 0.1093,
      "velocity": 117,
      "chip": "ym2612"
    },
    {
      "channel": 0,
      "note": 88,
      "start": 2.8344,
      "duration": 0.0802,
      "velocity": 97,
      "chip": "ym2612"
    },
    {
      "channel": 5,
      "note": 57,
      "start": 2.8385,
      "duration": 0.226,
      "velocity": 115,
      "chip": "ym2612"
    },
    {
      "channel": 1,
      "note": 81,
      "start": 2.8823,
      "duration": 0.0828,
      "velocity": 97,
      "chip": "ym2612"
    },
    {
      "channel": 1,
      "note": 88,
      "start": 2.9991,
      "duration": 0.0824,
      "velocity": 97,
      "chip": "ym2612"
    },
    {
      "channel": 0,
      "note": 87,
      "start": 3.0678,
      "duration": 0.2799,
      "velocity": 97,
      "chip": "ym2612"
    },
    {
      "channel": 5,
      "note": 57,
      "start": 3.0719,
      "duration": 0.1093,
      "velocity": 115,
      "chip": "ym2612"
    },
    {
      "channel": 5,
      "note": 56,
      "start": 3.1881,
      "duration": 0.2097,
      "velocity": 117,
      "chip": "ym2612"
    },
    {
      "channel": 1,
      "note": 87,
      "start": 3.2325,
      "duration": 0.285,
      "velocity": 97,
      "chip": "ym2612"
    },
    {
      "channel": 0,
      "note": 85,
      "start": 3.4012,
      "duration": 0.1801,
      "velocity": 97,
      "chip": "ym2612"
    },
    {
      "channel": 5,
      "note": 57,
      "start": 3.4053,
      "duration": 0.1092,
      "velocity": 115,
      "chip": "ym2612"
    },
    {
      "channel": 5,
      "note": 57,
      "start": 3.5212,
      "duration": 0.1104,
      "velocity": 115,
      "chip": "ym2612"
    },
    {
      "channel": 1,
      "note": 85,
      "start": 3.5822,
      "duration": 0.1828,
      "velocity": 97,
      "chip": "ym2612"
    },
    {
      "channel": 0,
      "note": 87,
      "start": 3.6348,
      "duration": 0.1797,
      "velocity": 97,
      "chip": "ym2612"
    },
    {
      "channel": 5,
      "note": 56,
      "start": 3.6397,
      "duration": 0.1081,
      "velocity": 117,
      "chip": "ym2612"
    },
    {
      "channel": 5,
      "note": 57,
      "start": 3.7547,
      "duration": 0.2265,
      "velocity": 115,
      "chip": "ym2612"
    },
    {
      "channel": 1,
      "note": 87,
      "start": 3.7991,
      "duration": 0.1851,
      "velocity": 97,
      "chip": "ym2612"
    },
    {
      "channel": 0,
      "note": 85,
      "start": 3.8653,
      "duration": 0.1826,
      "velocity": 97,
      "chip": "ym2612"
    },
    {
      "channel": 5,
      "note": 57,
      "start": 3.9878,
      "duration": 0.0933,
      "velocity": 115,
      "chip": "ym2612"
    },
    {
      "channel": 1,
      "note": 85,
      "start": 4.0325,
      "duration": 0.1824,
      "velocity": 97,
      "chip": "ym2612"
    },
    {
      "channel": 0,
      "note": 83,
      "start": 4.0844,
      "duration": 0.0802,
      "velocity": 97,
      "chip": "ym2612"
    },
    {
      "channel": 5,
      "note": 56,
      "start": 4.0884,
      "duration": 0.2261,
      "velocity": 117,
      "chip": "ym2612"
    },
    {
      "channel": 0,
      "note": 81,
      "start": 4.1986,
      "duration": 0.0824,
      "velocity": 97,
      "chip": "ym2612"
    },
    {
      "channel": 1,
      "note": 83,
      "start": 4.2658,
      "duration": 0.0824,
      "velocity": 97,
      "chip": "ym2612"
    },
    {
      "channel": 5,
      "note": 57,
      "start": 4.3214,
      "duration": 0.1098,
      "velocity": 115,
      "chip": "ym2612"
    },
    {
      "channel": 1,
      "note": 81,
      "start": 4.3825,
      "duration": 0.0826,
      "velocity": 97,
      "chip": "ym2612"
    },
    {
      "channel": 0,
      "note": 80,
      "start": 4.4345,
      "duration": 0.5659,
      "velocity": 97,
      "chip": "ym2612"
    },
    {
      "channel": 5,
      "note": 57,
      "start": 4.4385,
      "duration": 0.1092,
      "velocity": 115,
      "chip": "ym2612"
    },
    {
      "channel": 5,
      "note": 56,
      "start": 4.5546,
      "duration": 0.1099,
      "velocity": 117,
      "chip": "ym2612"
    },
    {
      "channel": 1,
      "note": 80,
      "start": 4.5992,
      "duration": 0.566,
      "velocity": 97,
      "chip": "ym2612"
    },
    {
      "channel": 5,
      "note": 57,
      "start": 4.6715,
      "duration": 0.2096,
      "velocity": 115,
      "chip": "ym2612"
    },
    {
      "channel": 5,
      "note": 57,
      "start": 4.888,
      "duration": 0.1099,
      "velocity": 115,
      "chip": "ym2612"
    },
    {
      "channel": 5,
      "note": 56,
      "start": 5.0045,
      "duration": 0.2267,
      "velocity": 117,
      "chip": "ym2612"
    },
    {
      "channel": 0,
      "note": 80,
      "start": 5.1154,
      "duration": 0.0826,
      "velocity": 97,
      "chip": "ym2612"
    },
    {
      "channel": 0,
      "note": 81,
      "start": 5.2344,
      "duration": 0.0802,
      "velocity": 97,
      "chip": "ym2612"
    },
    {
      "channel": 5,
      "note": 57,
      "start": 5.2385,
      "duration": 0.1093,
      "velocity": 115,
      "chip": "ym2612"
    },
    {
      "channel": 1,
      "note": 80,
      "start": 5.2823,
      "duration": 0.0828,
      "velocity": 97,
      "chip": "ym2612"
    },
    {
      "channel": 0,
      "note": 82,
      "start": 5.3509,
      "duration": 0.0805,
      "velocity": 97,
      "chip": "ym2612"
    },
    {
      "channel": 5,
      "note": 57,
      "start": 5.355,
      "duration": 0.1098,
      "velocity": 115,
      "chip": "ym2612"
    },
    {
      "channel": 1,
      "note": 81,
      "start": 5.3991,
      "duration": 0.0824,
      "velocity": 97,
      "chip": "ym2612"
    },
    {
      "channel": 0,
      "note": 83,
      "start": 5.4681,
      "duration": 0.0797,
      "velocity": 97,
      "chip": "ym2612"
    },
    {
      "channel": 5,
      "note": 56,
      "start": 5.4726,
      "duration": 0.1086,
      "velocity": 117,
      "chip": "ym2612"
    },
    {
      "channel": 1,
      "note": 82,
      "start": 5.5158,
      "duration": 0.0826,
      "velocity": 97,
      "chip": "ym2612"
    },
    {
      "channel": 0,
      "note": 85,
      "start": 5.5845,
      "duration": 0.1801,
      "velocity": 97,
      "chip": "ym2612"
    },
    {
      "channel": 5,
      "note": 57,
      "start": 5.5886,
      "duration": 0.2093,
      "velocity": 115,
      "chip": "ym2612"
    },
    {
      "channel": 1,
      "note": 83,
      "start": 5.6324,
      "duration": 0.0826,
      "velocity": 97,
      "chip": "ym2612"
    },
    {
      "channel": 1,
      "note": 85,
      "start": 5.7491,
      "duration": 0.1826,
      "velocity": 97,
      "chip": "ym2612"
    },
    {
      "channel": 0,
      "note": 81,
      "start": 5.8012,
      "duration": 0.0799,
      "velocity": 97,
      "chip": "ym2612"
    },
    {
      "channel": 5,
      "note": 57,
      "start": 5.8052,
      "duration": 0.1093,
      "velocity": 115,
      "chip": "ym2612"
    },
    {
      "channel": 5,
      "note": 56,
      "start": 5.9215,
      "duration": 0.2263,
      "velocity": 117,
      "chip": "ym2612"
    },
    {
      "channel": 1,
      "note": 81,
      "start": 5.9825,
      "duration": 0.0825,
      "velocity": 97,
      "chip": "ym2612"
    },
    {
      "channel": 0,
      "note": 81,
      "start": 6.032,
      "duration": 0.0826,
      "velocity": 97,
      "chip": "ym2612"
    },
    {
      "channel": 0,
      "note": 88,
      "start": 6.151,
      "duration": 0.0804,
      "velocity": 97,
      "chip": "ym2612"
    },
    {
      "channel": 5,
      "note": 57,
      "start": 6.155,
      "duration": 0.1095,
      "velocity": 115,
      "chip": "ym2612"
    },
    {
      "channel": 1,
      "note": 81,
      "start": 6.1991,
      "duration": 0.0824,
      "velocity": 97,
      "chip": "ym2612"
    },
    {
      "channel": 5,
      "note": 57,
      "start": 6.2714,
      "duration": 0.1098,
      "velocity": 115,
      "chip": "ym2612"
    },
    {
      "channel": 1,
      "note": 88,
      "start": 6.3158,
      "duration": 0.0826,
      "velocity": 97,
      "chip": "ym2612"
    },
    {
      "channel": 0,
      "note": 90,
      "start": 6.3844,
      "duration": 0.0802,
      "velocity": 97,
      "chip": "ym2612"
    },
    {
      "channel": 5,
      "note": 56,
      "start": 6.3885,
      "duration": 0.0926,
      "velocity": 117,
      "chip": "ym2612"
    },
    {
      "channel": 5,
      "note": 57,
      "start": 6.4879,
      "duration": 0.2266,
      "velocity": 115,
      "chip": "ym2612"
    },
    {
      "channel": 1,
      "note": 90,
      "start": 6.5489,
      "duration": 0.0829,
      "velocity": 97,
      "chip": "ym2612"
    },
    {
      "channel": 0,
      "note": 90,
      "start": 6.5986,
      "duration": 0.0824,
      "velocity": 97,
      "chip": "ym2612"
    },
    {
      "channel": 5,
      "note": 57,
      "start": 6.7214,
      "duration": 0.1098,
      "velocity": 115,
      "chip": "ym2612"
    },
    {
      "channel": 1,
      "note": 90,
      "start": 6.7825,
      "duration": 0.0826,
      "velocity": 97,
      "chip": "ym2612"
    },
    {
      "channel": 0,
      "note": 90,
      "start": 6.8344,
      "duration": 0.0802,
      "velocity": 97,
      "chip": "ym2612"
    },
    {
      "channel": 5,
      "note": 56,
      "start": 6.8385,
      "duration": 0.2261,
      "velocity": 117,
      "chip": "ym2612"
    },
    {
      "channel": 0,
      "note": 88,
      "start": 6.9486,
      "duration": 0.1827,
      "velocity": 97,
      "chip": "ym2612"
    },
    {
      "channel": 1,
      "note": 90,
      "start": 6.9991,
      "duration": 0.0824,
      "velocity": 97,
      "chip": "ym2612"
    },
    {
      "channel": 5,
      "note": 57,
      "start": 7.0714,
      "duration": 0.1098,
      "velocity": 115,
      "chip": "ym2612"
    },
    {
      "channel": 1,
      "note": 88,
      "start": 7.1159,
      "duration": 0.1826,
      "velocity": 97,
      "chip": "ym2612"
    },
    {
      "channel": 0,
      "note": 88,
      "start": 7.1845,
      "duration": 0.0801,
      "velocity": 97,
      "chip": "ym2612"
    },
    {
      "channel": 5,
      "note": 57,
      "start": 7.1885,
      "duration": 0.0927,
      "velocity": 115,
      "chip": "ym2612"
    },
    {
      "channel": 0,
      "note": 87,
      "start": 7.2845,
      "duration": 0.1801,
      "velocity": 97,
      "chip": "ym2612"
    },
    {
      "channel": 2,
      "note": 75,
      "start": 7.2864,
      "duration": 0.0791,
      "velocity": 97,
      "chip": "ym2612"
    },
    {
      "channel": 5,
      "note": 56,
      "start": 7.2902,
      "duration": 0.1077,
      "velocity": 117,
      "chip": "ym2612"
    },
    {
      "channel": 1,
      "note": 88,
      "start": 7.349,
      "duration": 0.0828,
      "velocity": 97,
      "chip": "ym2612"
    },
    {
      "channel": 2,
      "note": 85,
      "start": 7.4021,
      "duration": 0.0798,
      "velocity": 97,
      "chip": "ym2612"
    },
    {
      "channel": 5,
      "note": 57,
      "start": 7.4056,
      "duration": 0.2256,
      "velocity": 115,
      "chip": "ym2612"
    },
    {
      "channel": 3,
      "note": 75,
      "start": 7.4506,
      "duration": 0.082,
      "velocity": 97,
      "chip": "ym2612"
    },
    {
      "channel": 1,
      "note": 87,
      "start": 7.4656,
      "duration": 0.1828,
      "velocity": 97,
      "chip": "ym2612"
    },
    {
      "channel": 0,
      "note": 75,
      "start": 7.5153,
      "duration": 0.1828,
      "velocity": 97,
      "chip": "ym2612"
    },
    {
      "channel": 2,
      "note": 87,
      "start": 7.5166,
      "duration": 0.0822,
      "velocity": 97,
      "chip": "ym2612"
    },
    {
      "channel": 3,
      "note": 85,
      "start": 7.5499,
      "duration": 0.0856,
      "velocity": 97,
      "chip": "ym2612"
    },
    {
      "channel": 2,
      "note": 88,
      "start": 7.6354,
      "duration": 0.0801,
      "velocity": 97,
      "chip": "ym2612"
    },
    {
      "channel": 5,
      "note": 57,
      "start": 7.639,
      "duration": 0.1088,
      "velocity": 115,
      "chip": "ym2612"
    },
    {
      "channel": 3,
      "note": 87,
      "start": 7.6666,
      "duration": 0.0854,
      "velocity": 97,
      "chip": "ym2612"
    },
    {
      "channel": 1,
      "note": 75,
      "start": 7.6823,
      "duration": 0.1832,
      "velocity": 97,
      "chip": "ym2612"
    },
    {
      "channel": 0,
      "note": 76,
      "start": 7.7511,
      "duration": 0.0803,
      "velocity": 97,
      "chip": "ym2612"
    },
    {
      "channel": 5,
      "note": 56,
      "start": 7.7555,
      "duration": 0.2257,
      "velocity": 117,
      "chip": "ym2612"
    },
    {
      "channel": 3,
      "note": 88,
      "start": 7.7833,
      "duration": 0.0837,
      "velocity": 97,
      "chip": "ym2612"
    },
    {
      "channel": 0,
      "note": 78,
      "start": 7.8653,
      "duration": 0.0824,
      "velocity": 97,
      "chip": "ym2612"
    },
    {
      "channel": 2,
      "note": 85,
      "start": 7.8668,
      "duration": 0.0816,
      "velocity": 97,
      "chip": "ym2612"
    },
    {
      "channel": 1,
      "note": 76,
      "start": 7.9158,
      "duration": 0.0826,
      "velocity": 97,
      "chip": "ym2612"
    },
    {
      "channel": 0,
      "note": 80,
      "start": 7.9844,
      "duration": 0.0802,
      "velocity": 97,
      "chip": "ym2612"
    },
    {
      "channel": 2,
      "note": 87,
      "start": 7.9857,
      "duration": 0.0794,
      "velocity": 97,
      "chip": "ym2612"
    },
    {
      "channel": 5,
      "note": 57,
      "start": 7.9896,
      "duration": 0.0915,
      "velocity": 115,
      "chip": "ym2612"
    },
    {
      "channel": 3,
      "note": 85,
      "start": 8.017,
      "duration": 0.0824,
      "velocity": 97,
      "chip": "ym2612"
    },
    {
      "channel": 1,
      "note": 78,
      "start": 8.0324,
      "duration": 0.0826,
      "velocity": 97,
      "chip": "ym2612"
    },
    {
      "channel": 0,
      "note": 81,
      "start": 8.0844,
      "duration": 0.2803,
      "velocity": 97,
      "chip": "ym2612"
    },
    {
      "channel": 2,
      "note": 88,
      "start": 8.0857,
      "duration": 0.0798,
      "velocity": 97,
      "chip": "ym2612"
    },
    {
      "channel": 5,
      "note": 57,
      "start": 8.0895,
      "duration": 0.1083,
      "velocity": 115,
      "chip": "ym2612"
    },
    {
      "channel": 3,
      "note": 87,
      "start": 8.1333,
      "duration": 0.0824,
      "velocity": 97,
      "chip": "ym2612"
    },
    {
      "channel": 1,
      "note": 80,
      "start": 8.1489,
      "duration": 0.0829,
      "velocity": 97,
      "chip": "ym2612"
    },
    {
      "channel": 5,
      "note": 48,
      "start": 8.2055,
      "duration": 0.109,
      "velocity": 127,
      "chip": "ym2612"
    },
    {
      "channel": 3,
      "note": 88,
      "start": 8.25,
      "duration": 0.0826,
      "velocity": 97,
      "chip": "ym2612"
    },
    {
      "channel": 1,
      "note": 81,
      "start": 8.2658,
      "duration": 0.2849,
      "velocity": 97,
      "chip": "ym2612"
    },
    {
      "channel": 2,
      "note": 85,
      "start": 8.3192,
      "duration": 0.0797,
      "velocity": 97,
      "chip": "ym2612"
    },
    {
      "channel": 5,
      "note": 48,
      "start": 8.3231,
      "duration": 0.2247,
      "velocity": 127,
      "chip": "ym2612"
    },
    {
      "channel": 0,
      "note": 80,
      "start": 8.432,
      "duration": 0.5684,
      "velocity": 97,
      "chip": "ym2612"
    },
    {
      "channel": 2,
      "note": 87,
      "start": 8.4334,
      "duration": 0.082,
      "velocity": 97,
      "chip": "ym2612"
    },
    {
      "channel": 3,
      "note": 85,
      "start": 8.4671,
      "duration": 0.0846,
      "velocity": 97,
      "chip": "ym2612"
    },
    {
      "channel": 2,
      "note": 88,
      "start": 8.5516,
      "duration": 0.0807,
      "velocity": 97,
      "chip": "ym2612"
    },
    {
      "channel": 5,
      "note": 48,
      "start": 8.5552,
      "duration": 0.1093,
      "velocity": 127,
      "chip": "ym2612"
    },
    {
      "channel": 3,
      "note": 87,
      "start": 8.5833,
      "duration": 0.0851,
      "velocity": 97,
      "chip": "ym2612"
    },
    {
      "channel": 1,
      "note": 80,
      "start": 8.5992,
      "duration": 0.566,
      "velocity": 97,
      "chip": "ym2612"
    },
    {
      "channel": 5,
      "note": 48,
      "start": 8.6719,
      "duration": 0.2092,
      "velocity": 127,
      "chip": "ym2612"
    },
    {
      "channel": 3,
      "note": 88,
      "start": 8.7,
      "duration": 0.0835,
      "velocity": 97,
      "chip": "ym2612"
    },
    {
      "channel": 2,
      "note": 85,
      "start": 8.7834,
      "duration": 0.0822,
      "velocity": 97,
      "chip": "ym2612"
    },
    {
      "channel": 2,
      "note": 87,
      "start": 8.8852,
      "duration": 0.0803,
      "velocity": 97,
      "chip": "ym2612"
    },
    {
      "channel": 4,
      "note": 47,
      "start": 8.8866,
      "duration": 0.0795,
      "velocity": 97,
      "chip": "ym2612"
    },
    {
      "channel": 5,
      "note": 57,
      "start": 8.8899,
      "duration": 0.1079,
      "velocity": 115,
      "chip": "ym2612"
    },
    {
      "channel": 3,
      "note": 85,
      "start": 8.9339,
      "duration": 0.0819,
      "velocity": 97,
      "chip": "ym2612"
    },
    {
      "channel": 2,
      "note": 88,
      "start": 9.0017,
      "duration": 0.0803,
      "velocity": 97,
      "chip": "ym2612"
    },
    {
      "channel": 4,
      "note": 47,
      "start": 9.003,
      "duration": 0.0796,
      "velocity": 97,
      "chip": "ym2612"
    },
    {
      "channel": 5,
      "note": 57,
      "start": 9.0063,
      "duration": 0.1082,
      "velocity": 115,
      "chip": "ym2612"
    },
    {
      "channel": 3,
      "note": 87,
      "start": 9.05,
      "duration": 0.0826,
      "velocity": 97,
      "chip": "ym2612"
    },
    {
      "channel": 0,
      "note": 85,
      "start": 9.118,
      "duration": 0.2799,
      "velocity": 97,
      "chip": "ym2612"
    },
    {
      "channel": 2,
      "note": 76,
      "start": 9.1202,
      "duration": 0.0786,
      "velocity": 97,
      "chip": "ym2612"
    },
    {
      "channel": 4,
      "note": 49,
      "start": 9.1217,
      "duration": 0.1781,
      "velocity": 97,
      "chip": "ym2612"
    },
    {
      "channel": 5,
      "note": 56,
      "start": 9.125,
      "duration": 0.1062,
      "velocity": 117,
      "chip": "ym2612"
    },
    {
      "channel": 3,
      "note": 88,
      "start": 9.1498,
      "duration": 0.0858,
      "velocity": 97,
      "chip": "ym2612"
    },
    {
      "channel": 2,
      "note": 85,
      "start": 9.2355,
      "duration": 0.08,
      "velocity": 97,
      "chip": "ym2612"
    },
    {
      "channel": 5,
      "note": 57,
      "start": 9.2394,
      "duration": 0.2251,
      "velocity": 115,
      "chip": "ym2612"
    },
    {
      "channel": 3,
      "note": 76,
      "start": 9.2676,
      "duration": 0.0819,
      "velocity": 97,
      "chip": "ym2612"
    },
    {
      "channel": 1,
      "note": 85,
      "start": 9.2826,
      "duration": 0.2826,
      "velocity": 97,
      "chip": "ym2612"
    },
    {
      "channel": 2,
      "note": 87,
      "start": 9.3494,
      "duration": 0.0829,
      "velocity": 97,
      "chip": "ym2612"
    },
    {
      "channel": 4,
      "note": 49,
      "start": 9.3504,
      "duration": 0.1827,
      "velocity": 97,
      "chip": "ym2612"
    },
    {
      "channel": 3,
      "note": 85,
      "start": 9.3834,
      "duration": 0.0857,
      "velocity": 97,
      "chip": "ym2612"
    },
    {
      "channel": 0,
      "note": 83,
      "start": 9.4678,
      "duration": 0.28,
      "velocity": 97,
      "chip": "ym2612"
    },
    {
      "channel": 2,
      "note": 88,
      "start": 9.4691,
      "duration": 0.0796,
      "velocity": 97,
      "chip": "ym2612"
    },
    {
      "channel": 5,
      "note": 57,
      "start": 9.473,
      "duration": 0.1082,
      "velocity": 115,
      "chip": "ym2612"
    },
    {
      "channel": 3,
      "note": 87,
      "start": 9.5,
      "duration": 0.0851,
      "velocity": 97,
      "chip": "ym2612"
    },
    {
      "channel": 4,
      "note": 49,
      "start": 9.5859,
      "duration": 0.1802,
      "velocity": 97,
      "chip": "ym2612"
    },
    {
      "channel": 5,
      "note": 48,
      "start": 9.5893,
      "duration": 0.2086,
      "velocity": 127,
      "chip": "ym2612"
    },
    {
      "channel": 3,
      "note": 88,
      "start": 9.6165,
      "duration": 0.0829,
      "velocity": 97,
      "chip": "ym2612"
    },
    {
      "channel": 1,
      "note": 83,
      "start": 9.6325,
      "duration": 0.2851,
      "velocity": 97,
      "chip": "ym2612"
    },
    {
      "channel": 2,
      "note": 85,
      "start": 9.6832,
      "duration": 0.0823,
      "velocity": 97,
      "chip": "ym2612"
    },
    {
      "channel": 0,
      "note": 81,
      "start": 9.8012,
      "duration": 0.1801,
      "velocity": 97,
      "chip": "ym2612"
    },
    {
      "channel": 2,
      "note": 87,
      "start": 9.8025,
      "duration": 0.0795,
      "velocity": 97,
      "chip": "ym2612"
    },
    {
      "channel": 4,
      "note": 52,
      "start": 9.8039,
      "duration": 0.0786,
      "velocity": 97,
      "chip": "ym2612"
    },
    {
      "channel": 5,
      "note": 57,
      "start": 9.8073,
      "duration": 0.1072,
      "velocity": 115,
      "chip": "ym2612"
    },
    {
      "channel": 3,
      "note": 85,
      "start": 9.8505,
      "duration": 0.0821,
      "velocity": 97,
      "chip": "ym2612"
    },
    {
      "channel": 2,
      "note": 88,
      "start": 9.9184,
      "duration": 0.0805,
      "velocity": 97,
      "chip": "ym2612"
    },
    {
      "channel": 4,
      "note": 57,
      "start": 9.9197,
      "duration": 0.0797,
      "velocity": 97,
      "chip": "ym2612"
    },
    {
      "channel": 5,
      "note": 57,
      "start": 9.923,
      "duration": 0.1082,
      "velocity": 115,
      "chip": "ym2612"
    },
    {
      "channel": 3,
      "note": 87,
      "start": 9.9498,
      "duration": 0.0857,
      "velocity": 97,
      "chip": "ym2612"
    },
    {
      "channel": 1,
      "note": 81,
      "start": 9.9822,
      "duration": 0.1828,
      "velocity": 97,
      "chip": "ym2612"
    },
    {
      "channel": 0,
      "note": 81,
      "start": 10.0345,
      "duration": 0.0801,
      "velocity": 97,
      "chip": "ym2612"
    },
    {
      "channel": 5,
      "note": 56,
      "start": 10.0393,
      "duration": 0.1084,
      "velocity": 117,
      "chip": "ym2612"
    },
    {
      "channel": 3,
      "note": 88,
      "start": 10.0666,
      "duration": 0.0863,
      "velocity": 97,
      "chip": "ym2612"
    },
    {
      "channel": 0,
      "note": 88,
      "start": 10.151,
      "duration": 0.0804,
      "velocity": 97,
      "chip": "ym2612"
    },
    {
      "channel": 2,
      "note": 85,
      "start": 10.1528,
      "duration": 0.0791,
      "velocity": 97,
      "chip": "ym2612"
    },
    {
      "channel": 4,
      "note": 57,
      "start": 10.1538,
      "duration": 0.0788,
      "velocity": 97,
      "chip": "ym2612"
    },
    {
      "channel": 5,
      "note": 57,
      "start": 10.1572,
      "duration": 0.224,
      "velocity": 115,
      "chip": "ym2612"
    },
    {
      "channel": 1,
      "note": 81,
      "start": 10.1991,
      "duration": 0.0824,
      "velocity": 97,
      "chip": "ym2612"
    },
    {
      "channel": 2,
      "note": 87,
      "start": 10.2662,
      "duration": 0.0824,
      "velocity": 97,
      "chip": "ym2612"
    },
    {
      "channel": 3,
      "note": 85,
      "start": 10.3005,
      "duration": 0.0855,
      "velocity": 97,
      "chip": "ym2612"
    },
    {
      "channel": 1,
      "note": 88,
      "start": 10.3158,
      "duration": 0.0826,
      "velocity": 97,
      "chip": "ym2612"
    },
    {
      "channel": 0,
      "note": 87,
      "start": 10.3845,
      "duration": 0.2801,
      "velocity": 97,
      "chip": "ym2612"
    },
    {
      "channel": 2,
      "note": 88,
      "start": 10.3858,
      "duration": 0.0797,
      "velocity": 97,
      "chip": "ym2612"
    },
    {
      "channel": 4,
      "note": 57,
      "start": 10.3868,
      "duration": 0.0793,
      "velocity": 97,
      "chip": "ym2612"
    },
    {
      "channel": 5,
      "note": 57,
      "start": 10.3902,
      "duration": 0.0909,
      "velocity": 115,
      "chip": "ym2612"
    },
    {
      "channel": 3,
      "note": 87,
      "start": 10.4165,
      "duration": 0.083,
      "velocity": 97,
      "chip": "ym2612"
    },
    {
      "channel": 4,
      "note": 57,
      "start": 10.4861,
      "duration": 0.18,
      "velocity": 97,
      "chip": "ym2612"
    },
    {
      "channel": 5,
      "note": 56,
      "start": 10.4895,
      "duration": 0.2251,
      "velocity": 117,
      "chip": "ym2612"
    },
    {
      "channel": 3,
      "note": 88,
      "start": 10.5333,
      "duration": 0.0825,
      "velocity": 97,
      "chip": "ym2612"
    },
    {
      "channel": 1,
      "note": 87,
      "start": 10.5491,
      "duration": 0.2851,
      "velocity": 97,
      "chip": "ym2612"
    },
    {
      "channel": 2,
      "note": 85,
      "start": 10.6,
      "duration": 0.0819,
      "velocity": 97,
      "chip": "ym2612"
    },
    {
      "channel": 0,
      "note": 85,
      "start": 10.7178,
      "duration": 0.1802,
      "velocity": 97,
      "chip": "ym2612"
    },
    {
      "channel": 2,
      "note": 87,
      "start": 10.7192,
      "duration": 0.0796,
      "velocity": 97,
      "chip": "ym2612"
    },
    {
      "channel": 4,
      "note": 57,
      "start": 10.7205,
      "duration": 0.179,
      "velocity": 97,
      "chip": "ym2612"
    },
    {
      "channel": 5,
      "note": 57,
      "start": 10.7239,
      "duration": 0.1073,
      "velocity": 115,
      "chip": "ym2612"
    },
    {
      "channel": 3,
      "note": 85,
      "start": 10.7503,
      "duration": 0.0849,
      "velocity": 97,
      "chip": "ym2612"
    },
    {
      "channel": 2,
      "note": 88,
      "start": 10.835,
      "duration": 0.0805,
      "velocity": 97,
      "chip": "ym2612"
    },
    {
      "channel": 5,
      "note": 57,
      "start": 10.839,
      "duration": 0.1088,
      "velocity": 115,
      "chip": "ym2612"
    },
    {
      "channel": 3,
      "note": 87,
      "start": 10.8667,
      "duration": 0.0856,
      "velocity": 97,
      "chip": "ym2612"
    },
    {
      "channel": 1,
      "note": 85,
      "start": 10.8824,
      "duration": 0.1851,
      "velocity": 97,
      "chip": "ym2612"
    },
    {
      "channel": 0,
      "note": 87,
      "start": 10.9511,
      "duration": 0.1802,
      "velocity": 97,
      "chip": "ym2612"
    },
    {
      "channel": 4,
      "note": 59,
      "start": 10.9532,
      "duration": 0.1789,
      "velocity": 97,
      "chip": "ym2612"
    },
    {
      "channel": 5,
      "note": 56,
      "start": 10.9565,
      "duration": 0.1081,
      "velocity": 117,
      "chip": "ym2612"
    },
    {
      "channel": 3,
      "note": 88,
      "start": 10.9829,
      "duration": 0.0848,
      "velocity": 97,
      "chip": "ym2612"
    },
    {
      "channel": 5,
      "note": 57,
      "start": 11.0715,
      "duration": 0.2095,
      "velocity": 115,
      "chip": "ym2612"
    },
    {
      "channel": 1,
      "note": 87,
      "start": 11.1158,
      "duration": 0.1827,
      "velocity": 97,
      "chip": "ym2612"
    },
    {
      "channel": 0,
      "note": 85,
      "start": 11.182,
      "duration": 0.1826,
      "velocity": 97,
      "chip": "ym2612"
    },
    {
      "channel": 4,
      "note": 59,
      "start": 11.1834,
      "duration": 0.1819,
      "velocity": 97,
      "chip": "ym2612"
    },
    {
      "channel": 5,
      "note": 57,
      "start": 11.2884,
      "duration": 0.1095,
      "velocity": 115,
      "chip": "ym2612"
    },
    {
      "channel": 1,
      "note": 85,
      "start": 11.349,
      "duration": 0.1828,
      "velocity": 97,
      "chip": "ym2612"
    },
    {
      "channel": 0,
      "note": 83,
      "start": 11.4012,
      "duration": 0.0799,
      "velocity": 97,
      "chip": "ym2612"
    },
    {
      "channel": 4,
      "note": 59,
      "start": 11.4027,
      "duration": 0.1801,
      "velocity": 97,
      "chip": "ym2612"
    },
    {
      "channel": 5,
      "note": 56,
      "start": 11.406,
      "duration": 0.2252,
      "velocity": 117,
      "chip": "ym2612"
    },
    {
      "channel": 0,
      "note": 81,
      "start": 11.5153,
      "duration": 0.0826,
      "velocity": 97,
      "chip": "ym2612"
    },
    {
      "channel": 1,
      "note": 83,
      "start": 11.5825,
      "duration": 0.0826,
      "velocity": 97,
      "chip": "ym2612"
    },
    {
      "channel": 4,
      "note": 59,
      "start": 11.6356,
      "duration": 0.08,
      "velocity": 97,
      "chip": "ym2612"
    },
    {
      "channel": 5,
      "note": 57,
      "start": 11.6389,
      "duration": 0.1088,
      "velocity": 115,
      "chip": "ym2612"
    },
    {
      "channel": 1,
      "note": 81,
      "start": 11.6822,
      "duration": 0.0828,
      "velocity": 97,
      "chip": "ym2612"
    },
    {
      "channel": 0,
      "note": 80,
      "start": 11.7511,
      "duration": 0.566,
      "velocity": 97,
      "chip": "ym2612"
    },
    {
      "channel": 4,
      "note": 52,
      "start": 11.7524,
      "duration": 0.08,
      "velocity": 97,
      "chip": "ym2612"
    },
    {
      "channel": 5,
      "note": 57,
      "start": 11.7558,
      "duration": 0.1087,
      "velocity": 115,
      "chip": "ym2612"
    },
    {
      "channel": 5,
      "note": 56,
      "start": 11.8718,
      "duration": 0.1094,
      "velocity": 117,
      "chip": "ym2612"
    },
    {
      "channel": 1,
      "note": 80,
      "start": 11.9159,
      "duration": 0.5656,
      "velocity": 97,
      "chip": "ym2612"
    },
    {
      "channel": 4,
      "note": 52,
      "start": 11.9855,
      "duration": 0.0802,
      "velocity": 97,
      "chip": "ym2612"
    },
    {
      "channel": 5,
      "note": 57,
      "start": 11.9888,
      "duration": 0.209,
      "velocity": 115,
      "chip": "ym2612"
    },
    {
      "channel": 4,
      "note": 52,
      "start": 12.2021,
      "duration": 0.0801,
      "velocity": 97,
      "chip": "ym2612"
    },
    {
      "channel": 5,
      "note": 57,
      "start": 12.2055,
      "duration": 0.109,
      "velocity": 115,
      "chip": "ym2612"
    },
    {
      "channel": 4,
      "note": 52,
      "start": 12.3186,
      "duration": 0.1805,
      "velocity": 97,
      "chip": "ym2612"
    },
    {
      "channel": 5,
      "note": 56,
      "start": 12.322,
      "duration": 0.2258,
      "velocity": 117,
      "chip": "ym2612"
    },
    {
      "channel": 0,
      "note": 80,
      "start": 12.432,
      "duration": 0.0826,
      "velocity": 97,
      "chip": "ym2612"
    },
    {
      "channel": 0,
      "note": 81,
      "start": 12.551,
      "duration": 0.0804,
      "velocity": 97,
      "chip": "ym2612"
    },
    {
      "channel": 4,
      "note": 52,
      "start": 12.5524,
      "duration": 0.1799,
      "velocity": 97,
      "chip": "ym2612"
    },
    {
      "channel": 5,
      "note": 57,
      "start": 12.5558,
      "duration": 0.1088,
      "velocity": 115,
      "chip": "ym2612"
    },
    {
      "channel": 1,
      "note": 80,
      "start": 12.5991,
      "duration": 0.0824,
      "velocity": 97,
      "chip": "ym2612"
    },
    {
      "channel": 0,
      "note": 82,
      "start": 12.6678,
      "duration": 0.08,
      "velocity": 97,
      "chip": "ym2612"
    },
    {
      "channel": 5,
      "note": 57,
      "start": 12.6722,
      "duration": 0.1093,
      "velocity": 115,
      "chip": "ym2612"
    },
    {
      "channel": 1,
      "note": 81,
      "start": 12.7158,
      "duration": 0.0826,
      "velocity": 97,
      "chip": "ym2612"
    },
    {
      "channel": 0,
      "note": 83,
      "start": 12.7848,
      "duration": 0.0798,
      "velocity": 97,
      "chip": "ym2612"
    },
    {
      "channel": 4,
      "note": 45,
      "start": 12.7864,
      "duration": 0.1792,
      "velocity": 97,
      "chip": "ym2612"
    },
    {
      "channel": 5,
      "note": 56,
      "start": 12.7897,
      "duration": 0.0914,
      "velocity": 117,
      "chip": "ym2612"
    },
    {
      "channel": 1,
      "note": 82,
      "start": 12.8324,
      "duration": 0.0826,
      "velocity": 97,
      "chip": "ym2612"
    },
    {
      "channel": 0,
      "note": 85,
      "start": 12.8844,
      "duration": 0.1802,
      "velocity": 97,
      "chip": "ym2612"
    },
    {
      "channel": 5,
      "note": 57,
      "start": 12.8888,
      "duration": 0.2258,
      "velocity": 115,
      "chip": "ym2612"
    },
    {
      "channel": 1,
      "note": 83,
      "start": 12.9489,
      "duration": 0.0829,
      "velocity": 97,
      "chip": "ym2612"
    },
    {
      "channel": 4,
      "note": 57,
      "start": 12.9997,
      "duration": 0.1827,
      "velocity": 97,
      "chip": "ym2612"
    },
    {
      "channel": 1,
      "note": 85,
      "start": 13.0656,
      "duration": 0.1828,
      "velocity": 97,
      "chip": "ym2612"
    },
    {
      "channel": 0,
      "note": 81,
      "start": 13.1178,
      "duration": 0.0801,
      "velocity": 97,
      "chip": "ym2612"
    },
    {
      "channel": 5,
      "note": 57,
      "start": 13.1222,
      "duration": 0.109,
      "velocity": 115,
      "chip": "ym2612"
    },
    {
      "channel": 4,
      "note": 45,
      "start": 13.2355,
      "duration": 0.18,
      "velocity": 97,
      "chip": "ym2612"
    },
    {
      "channel": 5,
      "note": 56,
      "start": 13.2388,
      "duration": 0.2257,
      "velocity": 117,
      "chip": "ym2612"
    },
    {
      "channel": 1,
      "note": 81,
      "start": 13.2823,
      "duration": 0.0828,
      "velocity": 97,
      "chip": "ym2612"
    },
    {
      "channel": 0,
      "note": 81,
      "start": 13.3485,
      "duration": 0.0829,
      "velocity": 97,
      "chip": "ym2612"
    },
    {
      "channel": 0,
      "note": 88,
      "start": 13.4678,
      "duration": 0.08,
      "velocity": 97,
      "chip": "ym2612"
    },
    {
      "channel": 4,
      "note": 57,
      "start": 13.4694,
      "duration": 0.0791,
      "velocity": 97,
      "chip": "ym2612"
    },
    {
      "channel": 5,
      "note": 57,
      "start": 13.4727,
      "duration": 0.1085,
      "velocity": 115,
      "chip": "ym2612"
    },
    {
      "channel": 1,
      "note": 81,
      "start": 13.5158,
      "duration": 0.0826,
      "velocity": 97,
      "chip": "ym2612"
    },
    {
      "channel": 4,
      "note": 47,
      "start": 13.5855,
      "duration": 0.0802,
      "velocity": 97,
      "chip": "ym2612"
    },
    {
      "channel": 5,
      "note": 57,
      "start": 13.5888,
      "duration": 0.0922,
      "velocity": 115,
      "chip": "ym2612"
    },
    {
      "channel": 1,
      "note": 88,
      "start": 13.6324,
      "duration": 0.0826,
      "velocity": 97,
      "chip": "ym2612"
    },
    {
      "channel": 0,
      "note": 90,
      "start": 13.6843,
      "duration": 0.0803,
      "velocity": 97,
      "chip": "ym2612"
    },
    {
      "channel": 5,
      "note": 56,
      "start": 13.6887,
      "duration": 0.1092,
      "velocity": 117,
      "chip": "ym2612"
    },
    {
      "channel": 4,
      "note": 59,
      "start": 13.8022,
      "duration": 0.1802,
      "velocity": 97,
      "chip": "ym2612"
    },
    {
      "channel": 5,
      "note": 57,
      "start": 13.8056,
      "duration": 0.2256,
      "velocity": 115,
      "chip": "ym2612"
    },
    {
      "channel": 1,
      "note": 90,
      "start": 13.8658,
      "duration": 0.0824,
      "velocity": 97,
      "chip": "ym2612"
    },
    {
      "channel": 0,
      "note": 90,
      "start": 13.9153,
      "duration": 0.0826,
      "velocity": 97,
      "chip": "ym2612"
    },
    {
      "channel": 4,
      "note": 47,
      "start": 14.0355,
      "duration": 0.0802,
      "velocity": 97,
      "chip": "ym2612"
    },
    {
      "channel": 5,
      "note": 57,
      "start": 14.0389,
      "duration": 0.1088,
      "velocity": 115,
      "chip": "ym2612"
    },
    {
      "channel": 1,
      "note": 90,
      "start": 14.0822,
      "duration": 0.0828,
      "velocity": 97,
      "chip": "ym2612"
    },
    {
      "channel": 0,
      "note": 90,
      "start": 14.151,
      "duration": 0.0804,
      "velocity": 97,
      "chip": "ym2612"
    },
    {
      "channel": 4,
      "note": 59,
      "start": 14.1525,
      "duration": 0.1798,
      "velocity": 97,
      "chip": "ym2612"
    },
    {
      "channel": 5,
      "note": 56,
      "start": 14.1558,
      "duration": 0.2254,
      "velocity": 117,
      "chip": "ym2612"
    },
    {
      "channel": 0,
      "note": 76,
      "start": 14.2653,
      "duration": 0.0824,
      "velocity": 97,
      "chip": "ym2612"
    },
    {
      "channel": 1,
      "note": 90,
      "start": 14.3158,
      "duration": 0.0826,
      "velocity": 97,
      "chip": "ym2612"
    },
    {
      "channel": 0,
      "note": 78,
      "start": 14.3844,
      "duration": 0.0802,
      "velocity": 97,
      "chip": "ym2612"
    },
    {
      "channel": 4,
      "note": 47,
      "start": 14.3859,
      "duration": 0.1795,
      "velocity": 97,
      "chip": "ym2612"
    },
    {
      "channel": 5,
      "note": 57,
      "start": 14.3892,
      "duration": 0.0919,
      "velocity": 115,
      "chip": "ym2612"
    },
    {
      "channel": 1,
      "note": 76,
      "start": 14.4324,
      "duration": 0.0826,
      "velocity": 97,
      "chip": "ym2612"
    },
    {
      "channel": 0,
      "note": 80,
      "start": 14.4843,
      "duration": 0.0803,
      "velocity": 97,
      "chip": "ym2612"
    },
    {
      "channel": 5,
      "note": 57,
      "start": 14.4887,
      "duration": 0.1094,
      "velocity": 115,
      "chip": "ym2612"
    },
    {
      "channel": 1,
      "note": 78,
      "start": 14.5489,
      "duration": 0.0829,
      "velocity": 97,
      "chip": "ym2612"
    },
    {
      "channel": 0,
      "note": 81,
      "start": 14.6013,
      "duration": 0.0798,
      "velocity": 97,
      "chip": "ym2612"
    },
    {
      "channel": 2,
      "note": 75,
      "start": 14.6032,
      "duration": 0.0786,
      "velocity": 97,
      "chip": "ym2612"
    },
    {
      "channel": 4,
      "note": 47,
      "start": 14.6044,
      "duration": 0.1791,
      "velocity": 97,
      "chip": "ym2612"
    },
    {
      "channel": 5,
      "note": 56,
      "start": 14.6077,
      "duration": 0.1069,
      "velocity": 117,
      "chip": "ym2612"
    },
    {
      "channel": 1,
      "note": 80,
      "start": 14.6658,
      "duration": 0.0824,
      "velocity": 97,
      "chip": "ym2612"
    },
    {
      "channel": 0,
      "note": 83,
      "start": 14.7178,
      "duration": 0.0802,
      "velocity": 97,
      "chip": "ym2612"
    },
    {
      "channel": 2,
      "note": 85,
      "start": 14.7192,
      "duration": 0.0793,
      "velocity": 97,
      "chip": "ym2612"
    },
    {
      "channel": 5,
      "note": 57,
      "start": 14.7231,
      "duration": 0.2247,
      "velocity": 115,
      "chip": "ym2612"
    },
    {
      "channel": 3,
      "note": 75,
      "start": 14.7501,
      "duration": 0.0833,
      "velocity": 97,
      "chip": "ym2612"
    },
    {
      "channel": 1,
      "note": 81,
      "start": 14.7824,
      "duration": 0.0826,
      "velocity": 97,
      "chip": "ym2612"
    },
    {
      "channel": 0,
      "note": 85,
      "start": 14.832,
      "duration": 0.0826,
      "velocity": 97,
      "chip": "ym2612"
    },
    {
      "channel": 2,
      "note": 87,
      "start": 14.8332,
      "duration": 0.0819,
      "velocity": 97,
      "chip": "ym2612"
    },
    {
      "channel": 4,
      "note": 59,
      "start": 14.8343,
      "duration": 0.1819,
      "velocity": 97,
      "chip": "ym2612"
    },
    {
      "channel": 3,
      "note": 85,
      "start": 14.8665,
      "duration": 0.0859,
      "velocity": 97,
      "chip": "ym2612"
    },
    {
      "channel": 1,
      "note": 83,
      "start": 14.8822,
      "duration": 0.0828,
      "velocity": 97,
      "chip": "ym2612"
    },
    {
      "channel": 0,
      "note": 87,
      "start": 14.951,
      "duration": 0.0804,
      "velocity": 97,
      "chip": "ym2612"
    },
    {
      "channel": 2,
      "note": 88,
      "start": 14.9523,
      "duration": 0.0797,
      "velocity": 97,
      "chip": "ym2612"
    },
    {
      "channel": 5,
      "note": 57,
      "start": 14.9562,
      "duration": 0.1083,
      "velocity": 115,
      "chip": "ym2612"
    },
    {
      "channel": 3,
      "note": 87,
      "start": 14.9833,
      "duration": 0.0851,
      "velocity": 97,
      "chip": "ym2612"
    },
    {
      "channel": 1,
      "note": 85,
      "start": 14.9991,
      "duration": 0.0824,
      "velocity": 97,
      "chip": "ym2612"
    },
    {
      "channel": 4,
      "note": 47,
      "start": 15.0693,
      "duration": 0.1805,
      "velocity": 97,
      "chip": "ym2612"
    },
    {
      "channel": 5,
      "note": 48,
      "start": 15.0726,
      "duration": 0.2085,
      "velocity": 127,
      "chip": "ym2612"
    },
    {
      "channel": 3,
      "note": 88,
      "start": 15.1,
      "duration": 0.084,
      "velocity": 97,
      "chip": "ym2612"
    },
    {
      "channel": 1,
      "note": 87,
      "start": 15.1158,
      "duration": 0.0826,
      "velocity": 97,
      "chip": "ym2612"
    },
    {
      "channel": 0,
      "note": 87,
      "start": 15.182,
      "duration": 0.1826,
      "velocity": 97,
      "chip": "ym2612"
    },
    {
      "channel": 2,
      "note": 85,
      "start": 15.1839,
      "duration": 0.0816,
      "velocity": 97,
      "chip": "ym2612"
    },
    {
      "channel": 2,
      "note": 87,
      "start": 15.2851,
      "duration": 0.08,
      "velocity": 97,
      "chip": "ym2612"
    },
    {
      "channel": 4,
      "note": 59,
      "start": 15.2865,
      "duration": 0.1799,
      "velocity": 97,
      "chip": "ym2612"
    },
    {
      "channel": 5,
      "note": 57,
      "start": 15.2899,
      "duration": 0.108,
      "velocity": 115,
      "chip": "ym2612"
    },
    {
      "channel": 3,
      "note": 85,
      "start": 15.3338,
      "duration": 0.082,
      "velocity": 97,
      "chip": "ym2612"
    },
    {
      "channel": 1,
      "note": 87,
      "start": 15.349,
      "duration": 0.1827,
      "velocity": 97,
      "chip": "ym2612"
    },
    {
      "channel": 0,
      "note": 88,
      "start": 15.4013,
      "duration": 0.5634,
      "velocity": 97,
      "chip": "ym2612"
    },
    {
      "channel": 2,
      "note": 88,
      "start": 15.4026,
      "duration": 0.0794,
      "velocity": 97,
      "chip": "ym2612"
    },
    {
      "channel": 5,
      "note": 57,
      "start": 15.4068,
      "duration": 0.1077,
      "velocity": 115,
      "chip": "ym2612"
    },
    {
      "channel": 3,
      "note": 87,
      "start": 15.45,
      "duration": 0.0823,
      "velocity": 97,
      "chip": "ym2612"
    },
    {
      "channel": 4,
      "note": 61,
      "start": 15.5197,
      "duration": 0.08,
      "velocity": 97,
      "chip": "ym2612"
    },
    {
      "channel": 5,
      "note": 56,
      "start": 15.523,
      "duration": 0.1082,
      "velocity": 117,
      "chip": "ym2612"
    },
    {
      "channel": 3,
      "note": 88,
      "start": 15.5498,
      "duration": 0.0862,
      "velocity": 97,
      "chip": "ym2612"
    },
    {
      "channel": 1,
      "note": 88,
      "start": 15.5826,
      "duration": 0.5656,
      "velocity": 97,
      "chip": "ym2612"
    },
    {
      "channel": 2,
      "note": 85,
      "start": 15.6359,
      "duration": 0.0796,
      "velocity": 97,
      "chip": "ym2612"
    },
    {
      "channel": 4,
      "note": 61,
      "start": 15.6368,
      "duration": 0.0793,
      "velocity": 97,
      "chip": "ym2612"
    },
    {
      "channel": 5,
      "note": 56,
      "start": 15.6402,
      "duration": 0.2244,
      "velocity": 122,
      "chip": "ym2612"
    },
    {
      "channel": 2,
      "note": 87,
      "start": 15.7494,
      "duration": 0.0829,
      "velocity": 97,
      "chip": "ym2612"
    },
    {
      "channel": 4,
      "note": 61,
      "start": 15.7507,
      "duration": 0.1823,
      "velocity": 97,
      "chip": "ym2612"
    },
    {
      "channel": 3,
      "note": 85,
      "start": 15.7838,
      "duration": 0.085,
      "velocity": 97,
      "chip": "ym2612"
    },
    {
      "channel": 2,
      "note": 88,
      "start": 15.8687,
      "duration": 0.08,
      "velocity": 97,
      "chip": "ym2612"
    },
    {
      "channel": 5,
      "note": 51,
      "start": 15.8726,
      "duration": 0.1086,
      "velocity": 122,
      "chip": "ym2612"
    },
    {
      "channel": 3,
      "note": 87,
      "start": 15.9,
      "duration": 0.085,
      "velocity": 97,
      "chip": "ym2612"
    },
    {
      "channel": 4,
      "note": 49,
      "start": 15.9859,
      "duration": 0.1799,
      "velocity": 97,
      "chip": "ym2612"
    },
    {
      "channel": 5,
      "note": 48,
      "start": 15.9893,
      "duration": 0.2086,
      "velocity": 127,
      "chip": "ym2612"
    },
    {
      "channel": 3,
      "note": 88,
      "start": 16.0165,
      "duration": 0.0829,
      "velocity": 97,
      "chip": "ym2612"
    },
    {
      "channel": 0,
      "note": 88,
      "start": 16.0819,
      "duration": 0.0827,
      "velocity": 97,
      "chip": "ym2612"
    },
    {
      "channel": 2,
      "note": 85,
      "start": 16.0838,
      "duration": 0.0815,
      "velocity": 97,
      "chip": "ym2612"
    },
    {
      "channel": 0,
      "note": 87,
      "start": 16.2011,
      "duration": 0.08,
      "velocity": 97,
      "chip": "ym2612"
    },
    {
      "channel": 2,
      "note": 87,
      "start": 16.2024,
      "duration": 0.0793,
      "velocity": 97,
      "chip": "ym2612"
    },
    {
      "channel": 4,
      "note": 49,
      "start": 16.2037,
      "duration": 0.1798,
      "velocity": 97,
      "chip": "ym2612"
    },
    {
      "channel": 5,
      "note": 44,
      "start": 16.207,
      "duration": 0.2243,
      "velocity": 122,
      "chip": "ym2612"
    },
    {
      "channel": 3,
      "note": 85,
      "start": 16.2505,
      "duration": 0.0821,
      "velocity": 97,
      "chip": "ym2612"
    },
    {
      "channel": 1,
      "note": 88,
      "start": 16.2658,
      "duration": 0.0824,
      "velocity": 97,
      "chip": "ym2612"
    },
    {
      "channel": 0,
      "note": 86,
      "start": 16.3153,
      "duration": 0.0826,
      "velocity": 97,
      "chip": "ym2612"
    },
    {
      "channel": 2,
      "note": 88,
      "start": 16.3166,
      "duration": 0.0819,
      "velocity": 97,
      "chip": "ym2612"
    },
    {
      "channel": 3,
      "note": 87,
      "start": 16.3495,
      "duration": 0.0878,
      "velocity": 97,
      "chip": "ym2612"
    },
    {
      "channel": 1,
      "note": 87,
      "start": 16.3824,
      "duration": 0.0826,
      "velocity": 97,
      "chip": "ym2612"
    },
    {
      "channel": 0,
      "note": 85,
      "start": 16.435,
      "duration": 0.2796,
      "velocity": 97,
      "chip": "ym2612"
    },
    {
      "channel": 2,
      "note": 76,
      "start": 16.4371,
      "duration": 0.0784,
      "velocity": 97,
      "chip": "ym2612"
    },
    {
      "channel": 4,
      "note": 49,
      "start": 16.4384,
      "duration": 0.1778,
      "velocity": 97,
      "chip": "ym2612"
    },
    {
      "channel": 5,
      "note": 56,
      "start": 16.4417,
      "duration": 0.2228,
      "velocity": 117,
      "chip": "ym2612"
    },
    {
      "channel": 3,
      "note": 88,
      "start": 16.4663,
      "duration": 0.0833,
      "velocity": 97,
      "chip": "ym2612"
    },
    {
      "channel": 1,
      "note": 86,
      "start": 16.4822,
      "duration": 0.0828,
      "velocity": 97,
      "chip": "ym2612"
    },
    {
      "channel": 2,
      "note": 85,
      "start": 16.5495,
      "duration": 0.0828,
      "velocity": 97,
      "chip": "ym2612"
    },
    {
      "channel": 3,
      "note": 76,
      "start": 16.5842,
      "duration": 0.0847,
      "velocity": 97,
      "chip": "ym2612"
    },
    {
      "channel": 1,
      "note": 85,
      "start": 16.5995,
      "duration": 0.2846,
      "velocity": 97,
      "chip": "ym2612"
    },
    {
      "channel": 2,
      "note": 87,
      "start": 16.6687,
      "duration": 0.08,
      "velocity": 97,
      "chip": "ym2612"
    },
    {
      "channel": 4,
      "note": 49,
      "start": 16.6697,
      "duration": 0.18,
      "velocity": 97,
      "chip": "ym2612"
    },
    {
      "channel": 5,
      "note": 57,
      "start": 16.673,
      "duration": 0.0582,
      "velocity": 115,
      "chip": "ym2612"
    },
    {
      "channel": 3,
      "note": 85,
      "start": 16.7001,
      "duration": 0.0833,
      "velocity": 97,
      "chip": "ym2612"
    },
    {
      "channel": 5,
      "note": 57,
      "start": 16.7391,
      "duration": 0.0753,
      "velocity": 115,
      "chip": "ym2612"
    },
    {
      "channel": 0,
      "note": 83,
      "start": 16.782,
      "duration": 0.2826,
      "velocity": 97,
      "chip": "ym2612"
    },
    {
      "channel": 2,
      "note": 88,
      "start": 16.7833,
      "duration": 0.0822,
      "velocity": 97,
      "chip": "ym2612"
    },
    {
      "channel": 3,
      "note": 87,
      "start": 16.8189,
      "duration": 0.0805,
      "velocity": 97,
      "chip": "ym2612"
    },
    {
      "channel": 5,
      "note": 57,
      "start": 16.8227,
      "duration": 0.0584,
      "velocity": 115,
      "chip": "ym2612"
    },
    {
      "channel": 4,
      "note": 49,
      "start": 16.8857,
      "duration": 0.1804,
      "velocity": 97,
      "chip": "ym2612"
    },
    {
      "channel": 5,
      "note": 48,
      "start": 16.8892,
      "duration": 0.2254,
      "velocity": 127,
      "chip": "ym2612"
    },
    {
      "channel": 3,
      "note": 88,
      "start": 16.9333,
      "duration": 0.0825,
      "velocity": 97,
      "chip": "ym2612"
    },
    {
      "channel": 1,
      "note": 83,
      "start": 16.949,
      "duration": 0.2852,
      "velocity": 97,
      "chip": "ym2612"
    },
    {
      "channel": 2,
      "note": 85,
      "start": 17.0,
      "duration": 0.0819,
      "velocity": 97,
      "chip": "ym2612"
    },
    {
      "channel": 0,
      "note": 81,
      "start": 17.1178,
      "duration": 0.1802,
      "velocity": 97,
      "chip": "ym2612"
    },
    {
      "channel": 2,
      "note": 87,
      "start": 17.1192,
      "duration": 0.0796,
      "velocity": 97,
      "chip": "ym2612"
    },
    {
      "channel": 4,
      "note": 52,
      "start": 17.1206,
      "duration": 0.0788,
      "velocity": 97,
      "chip": "ym2612"
    },
    {
      "channel": 5,
      "note": 57,
      "start": 17.124,
      "duration": 0.1072,
      "velocity": 115,
      "chip": "ym2612"
    },
    {
      "channel": 3,
      "note": 85,
      "start": 17.1503,
      "duration": 0.0849,
      "velocity": 97,
      "chip": "ym2612"
    },
    {
      "channel": 2,
      "note": 88,
      "start": 17.235,
      "duration": 0.0805,
      "velocity": 97,
      "chip": "ym2612"
    },
    {
      "channel": 4,
      "note": 57,
      "start": 17.2361,
      "duration": 0.08,
      "velocity": 97,
      "chip": "ym2612"
    },
    {
      "channel": 5,
      "note": 57,
      "start": 17.2394,
      "duration": 0.1083,
      "velocity": 115,
      "chip": "ym2612"
    },
    {
      "channel": 3,
      "note": 87,
      "start": 17.2667,
      "duration": 0.0854,
      "velocity": 97,
      "chip": "ym2612"
    },
    {
      "channel": 1,
      "note": 81,
      "start": 17.2824,
      "duration": 0.1856,
      "velocity": 97,
      "chip": "ym2612"
    },
    {
      "channel": 0,
      "note": 81,
      "start": 17.3511,
      "duration": 0.0803,
      "velocity": 97,
      "chip": "ym2612"
    },
    {
      "channel": 5,
      "note": 56,
      "start": 17.3559,
      "duration": 0.1086,
      "velocity": 117,
      "chip": "ym2612"
    },
    {
      "channel": 3,
      "note": 88,
      "start": 17.3833,
      "duration": 0.0861,
      "velocity": 97,
      "chip": "ym2612"
    },
    {
      "channel": 0,
      "note": 88,
      "start": 17.4678,
      "duration": 0.08,
      "velocity": 97,
      "chip": "ym2612"
    },
    {
      "channel": 2,
      "note": 85,
      "start": 17.4693,
      "duration": 0.0791,
      "velocity": 97,
      "chip": "ym2612"
    },
    {
      "channel": 4,
      "note": 57,
      "start": 17.4702,
      "duration": 0.0788,
      "velocity": 97,
      "chip": "ym2612"
    },
    {
      "channel": 5,
      "note": 56,
      "start": 17.4736,
      "duration": 0.1076,
      "velocity": 117,
      "chip": "ym2612"
    },
    {
      "channel": 1,
      "note": 81,
      "start": 17.5158,
      "duration": 0.0826,
      "velocity": 97,
      "chip": "ym2612"
    },
    {
      "channel": 2,
      "note": 87,
      "start": 17.5853,
      "duration": 0.0802,
      "velocity": 97,
      "chip": "ym2612"
    },
    {
      "channel": 5,
      "note": 57,
      "start": 17.5895,
      "duration": 0.0915,
      "velocity": 115,
      "chip": "ym2612"
    },
    {
      "channel": 3,
      "note": 85,
      "start": 17.617,
      "duration": 0.0824,
      "velocity": 97,
      "chip": "ym2612"
    },
    {
      "channel": 1,
      "note": 88,
      "start": 17.6324,
      "duration": 0.0826,
      "velocity": 97,
      "chip": "ym2612"
    },
    {
      "channel": 0,
      "note": 87,
      "start": 17.6844,
      "duration": 0.2803,
      "velocity": 97,
      "chip": "ym2612"
    },
    {
      "channel": 2,
      "note": 88,
      "start": 17.6857,
      "duration": 0.0798,
      "velocity": 97,
      "chip": "ym2612"
    },
    {
      "channel": 4,
      "note": 57,
      "start": 17.6869,
      "duration": 0.0791,
      "velocity": 97,
      "chip": "ym2612"
    },
    {
      "channel": 5,
      "note": 56,
      "start": 17.6903,
      "duration": 0.1076,
      "velocity": 117,
      "chip": "ym2612"
    },
    {
      "channel": 3,
      "note": 87,
      "start": 17.7333,
      "duration": 0.0825,
      "velocity": 97,
      "chip": "ym2612"
    },
    {
      "channel": 4,
      "note": 57,
      "start": 17.803,
      "duration": 0.1801,
      "velocity": 97,
      "chip": "ym2612"
    },
    {
      "channel": 5,
      "note": 48,
      "start": 17.8063,
      "duration": 0.2249,
      "velocity": 127,
      "chip": "ym2612"
    },
    {
      "channel": 3,
      "note": 88,
      "start": 17.85,
      "duration": 0.0826,
      "velocity": 97,
      "chip": "ym2612"
    },
    {
      "channel": 1,
      "note": 87,
      "start": 17.8659,
      "duration": 0.2848,
      "velocity": 97,
      "chip": "ym2612"
    },
    {
      "channel": 2,
      "note": 85,
      "start": 17.9168,
      "duration": 0.0821,
      "velocity": 97,
      "chip": "ym2612"
    },
    {
      "channel": 0,
      "note": 85,
      "start": 18.0345,
      "duration": 0.1799,
      "velocity": 97,
      "chip": "ym2612"
    },
    {
      "channel": 2,
      "note": 87,
      "start": 18.0359,
      "duration": 0.0796,
      "velocity": 97,
      "chip": "ym2612"
    },
    {
      "channel": 4,
      "note": 57,
      "start": 18.0372,
      "duration": 0.1787,
      "velocity": 97,
      "chip": "ym2612"
    },
    {
      "channel": 5,
      "note": 57,
      "start": 18.0406,
      "duration": 0.1072,
      "velocity": 115,
      "chip": "ym2612"
    },
    {
      "channel": 3,
      "note": 85,
      "start": 18.0671,
      "duration": 0.0846,
      "velocity": 97,
      "chip": "ym2612"
    },
    {
      "channel": 2,
      "note": 88,
      "start": 18.1516,
      "duration": 0.0807,
      "velocity": 97,
      "chip": "ym2612"
    },
    {
      "channel": 5,
      "note": 57,
      "start": 18.1555,
      "duration": 0.109,
      "velocity": 115,
      "chip": "ym2612"
    },
    {
      "channel": 3,
      "note": 87,
      "start": 18.1834,
      "duration": 0.0857,
      "velocity": 97,
      "chip": "ym2612"
    },
    {
      "channel": 1,
      "note": 85,
      "start": 18.1992,
      "duration": 0.1825,
      "velocity": 97,
      "chip": "ym2612"
    },
    {
      "channel": 0,
      "note": 87,
      "start": 18.2678,
      "duration": 0.1802,
      "velocity": 97,
      "chip": "ym2612"
    },
    {
      "channel": 4,
      "note": 59,
      "start": 18.2699,
      "duration": 0.1788,
      "velocity": 97,
      "chip": "ym2612"
    },
    {
      "channel": 5,
      "note": 56,
      "start": 18.2733,
      "duration": 0.2078,
      "velocity": 117,
      "chip": "ym2612"
    },
    {
      "channel": 3,
      "note": 88,
      "start": 18.2996,
      "duration": 0.0824,
      "velocity": 97,
      "chip": "ym2612"
    },
    {
      "channel": 1,
      "note": 87,
      "start": 18.4325,
      "duration": 0.1824,
      "velocity": 97,
      "chip": "ym2612"
    },
    {
      "channel": 0,
      "note": 85,
      "start": 18.4843,
      "duration": 0.1803,
      "velocity": 97,
      "chip": "ym2612"
    },
    {
      "channel": 4,
      "note": 59,
      "start": 18.4857,
      "duration": 0.18,
      "velocity": 97,
      "chip": "ym2612"
    },
    {
      "channel": 5,
      "note": 57,
      "start": 18.4891,
      "duration": 0.0754,
      "velocity": 115,
      "chip": "ym2612"
    },
    {
      "channel": 5,
      "note": 57,
      "start": 18.5718,
      "duration": 0.0761,
      "velocity": 115,
      "chip": "ym2612"
    },
    {
      "channel": 5,
      "note": 57,
      "start": 18.6552,
      "duration": 0.0593,
      "velocity": 115,
      "chip": "ym2612"
    },
    {
      "channel": 1,
      "note": 85,
      "start": 18.6655,
      "duration": 0.1829,
      "velocity": 97,
      "chip": "ym2612"
    },
    {
      "channel": 0,
      "note": 83,
      "start": 18.7178,
      "duration": 0.0801,
      "velocity": 97,
      "chip": "ym2612"
    },
    {
      "channel": 4,
      "note": 59,
      "start": 18.7193,
      "duration": 0.1798,
      "velocity": 97,
      "chip": "ym2612"
    },
    {
      "channel": 5,
      "note": 48,
      "start": 18.7227,
      "duration": 0.2251,
      "velocity": 127,
      "chip": "ym2612"
    },
    {
      "channel": 0,
      "note": 81,
      "start": 18.832,
      "duration": 0.0826,
      "velocity": 97,
      "chip": "ym2612"
    },
    {
      "channel": 1,
      "note": 83,
      "start": 18.8824,
      "duration": 0.0827,
      "velocity": 97,
      "chip": "ym2612"
    },
    {
      "channel": 4,
      "note": 59,
      "start": 18.9521,
      "duration": 0.0803,
      "velocity": 97,
      "chip": "ym2612"
    },
    {
      "channel": 5,
      "note": 57,
      "start": 18.9554,
      "duration": 0.1091,
      "velocity": 115,
      "chip": "ym2612"
    },
    {
      "channel": 1,
      "note": 81,
      "start": 18.9991,
      "duration": 0.0824,
      "velocity": 97,
      "chip": "ym2612"
    },
    {
      "channel": 0,
      "note": 80,
      "start": 19.0678,
      "duration": 0.5659,
      "velocity": 97,
      "chip": "ym2612"
    },
    {
      "channel": 4,
      "note": 52,
      "start": 19.0693,
      "duration": 0.0796,
      "velocity": 97,
      "chip": "ym2612"
    },
    {
      "channel": 5,
      "note": 56,
      "start": 19.0726,
      "duration": 0.1086,
      "velocity": 117,
      "chip": "ym2612"
    },
    {
      "channel": 5,
      "note": 57,
      "start": 19.1885,
      "duration": 0.0926,
      "velocity": 115,
      "chip": "ym2612"
    },
    {
      "channel": 1,
      "note": 80,
      "start": 19.2325,
      "duration": 0.5659,
      "velocity": 97,
      "chip": "ym2612"
    },
    {
      "channel": 4,
      "note": 52,
      "start": 19.2853,
      "duration": 0.0805,
      "velocity": 97,
      "chip": "ym2612"
    },
    {
      "channel": 5,
      "note": 56,
      "start": 19.2887,
      "duration": 0.1092,
      "velocity": 117,
      "chip": "ym2612"
    },
    {
      "channel": 5,
      "note": 57,
      "start": 19.4052,
      "duration": 0.1093,
      "velocity": 115,
      "chip": "ym2612"
    },
    {
      "channel": 4,
      "note": 52,
      "start": 19.5188,
      "duration": 0.0802,
      "velocity": 97,
      "chip": "ym2612"
    },
    {
      "channel": 5,
      "note": 56,
      "start": 19.5222,
      "duration": 0.109,
      "velocity": 117,
      "chip": "ym2612"
    },
    {
      "channel": 4,
      "note": 52,
      "start": 19.6353,
      "duration": 0.1802,
      "velocity": 97,
      "chip": "ym2612"
    },
    {
      "channel": 5,
      "note": 48,
      "start": 19.6387,
      "duration": 0.2259,
      "velocity": 127,
      "chip": "ym2612"
    },
    {
      "channel": 0,
      "note": 80,
      "start": 19.7486,
      "duration": 0.0828,
      "velocity": 97,
      "chip": "ym2612"
    },
    {
      "channel": 0,
      "note": 81,
      "start": 19.8678,
      "duration": 0.08,
      "velocity": 97,
      "chip": "ym2612"
    },
    {
      "channel": 4,
      "note": 52,
      "start": 19.8692,
      "duration": 0.1798,
      "velocity": 97,
      "chip": "ym2612"
    },
    {
      "channel": 5,
      "note": 57,
      "start": 19.8726,
      "duration": 0.1086,
      "velocity": 115,
      "chip": "ym2612"
    },
    {
      "channel": 1,
      "note": 80,
      "start": 19.9158,
      "duration": 0.0826,
      "velocity": 97,
      "chip": "ym2612"
    },
    {
      "channel": 0,
      "note": 82,
      "start": 19.9844,
      "duration": 0.0802,
      "velocity": 97,
      "chip": "ym2612"
    },
    {
      "channel": 5,
      "note": 57,
      "start": 19.9888,
      "duration": 0.0922,
      "velocity": 115,
      "chip": "ym2612"
    },
    {
      "channel": 1,
      "note": 81,
      "start": 20.0324,
      "duration": 0.0826,
      "velocity": 97,
      "chip": "ym2612"
    },
    {
      "channel": 0,
      "note": 83,
      "start": 20.0843,
      "duration": 0.0803,
      "velocity": 97,
      "chip": "ym2612"
    },
    {
      "channel": 4,
      "note": 45,
      "start": 20.086,
      "duration": 0.1801,
      "velocity": 97,
      "chip": "ym2612"
    },
    {
      "channel": 5,
      "note": 56,
      "start": 20.0893,
      "duration": 0.2252,
      "velocity": 117,
      "chip": "ym2612"
    },
    {
      "channel": 1,
      "note": 82,
      "start": 20.1489,
      "duration": 0.0829,
      "velocity": 97,
      "chip": "ym2612"
    },
    {
      "channel": 0,
      "note": 85,
      "start": 20.1988,
      "duration": 0.1825,
      "velocity": 97,
      "chip": "ym2612"
    },
    {
      "channel": 1,
      "note": 83,
      "start": 20.2658,
      "duration": 0.0824,
      "velocity": 97,
      "chip": "ym2612"
    },
    {
      "channel": 4,
      "note": 57,
      "start": 20.3188,
      "duration": 0.1803,
      "velocity": 97,
      "chip": "ym2612"
    },
    {
      "channel": 5,
      "note": 57,
      "start": 20.3222,
      "duration": 0.0757,
      "velocity": 115,
      "chip": "ym2612"
    },
    {
      "channel": 1,
      "note": 85,
      "start": 20.3822,
      "duration": 0.1828,
      "velocity": 97,
      "chip": "ym2612"
    },
    {
      "channel": 5,
      "note": 57,
      "start": 20.4051,
      "duration": 0.0595,
      "velocity": 115,
      "chip": "ym2612"
    },
    {
      "channel": 0,
      "note": 81,
      "start": 20.432,
      "duration": 0.0826,
      "velocity": 97,
      "chip": "ym2612"
    },
    {
      "channel": 5,
      "note": 57,
      "start": 20.4717,
      "duration": 0.076,
      "velocity": 115,
      "chip": "ym2612"
    },
    {
      "channel": 4,
      "note": 45,
      "start": 20.552,
      "duration": 0.1803,
      "velocity": 97,
      "chip": "ym2612"
    },
    {
      "channel": 5,
      "note": 48,
      "start": 20.5554,
      "duration": 0.2258,
      "velocity": 127,
      "chip": "ym2612"
    },
    {
      "channel": 1,
      "note": 81,
      "start": 20.5991,
      "duration": 0.0824,
      "velocity": 97,
      "chip": "ym2612"
    },
    {
      "channel": 0,
      "note": 81,
      "start": 20.6653,
      "duration": 0.0824,
      "velocity": 97,
      "chip": "ym2612"
    },
    {
      "channel": 0,
      "note": 88,
      "start": 20.7844,
      "duration": 0.0802,
      "velocity": 97,
      "chip": "ym2612"
    },
    {
      "channel": 4,
      "note": 57,
      "start": 20.7861,
      "duration": 0.0793,
      "velocity": 97,
      "chip": "ym2612"
    },
    {
      "channel": 5,
      "note": 57,
      "start": 20.7893,
      "duration": 0.0917,
      "velocity": 115,
      "chip": "ym2612"
    },
    {
      "channel": 1,
      "note": 81,
      "start": 20.8324,
      "duration": 0.0826,
      "velocity": 97,
      "chip": "ym2612"
    },
    {
      "channel": 4,
      "note": 47,
      "start": 20.8853,
      "duration": 0.0804,
      "velocity": 97,
      "chip": "ym2612"
    },
    {
      "channel": 5,
      "note": 57,
      "start": 20.8887,
      "duration": 0.1092,
      "velocity": 115,
      "chip": "ym2612"
    },
    {
      "channel": 1,
      "note": 88,
      "start": 20.9489,
      "duration": 0.0829,
      "velocity": 97,
      "chip": "ym2612"
    },
    {
      "channel": 0,
      "note": 90,
      "start": 21.0011,
      "duration": 0.08,
      "velocity": 97,
      "chip": "ym2612"
    },
    {
      "channel": 5,
      "note": 56,
      "start": 21.0055,
      "duration": 0.109,
      "velocity": 117,
      "chip": "ym2612"
    },
    {
      "channel": 4,
      "note": 59,
      "start": 21.1189,
      "duration": 0.1802,
      "velocity": 97,
      "chip": "ym2612"
    },
    {
      "channel": 5,
      "note": 57,
      "start": 21.1222,
      "duration": 0.109,
      "velocity": 115,
      "chip": "ym2612"
    },
    {
      "channel": 1,
      "note": 90,
      "start": 21.1825,
      "duration": 0.0826,
      "velocity": 97,
      "chip": "ym2612"
    },
    {
      "channel": 0,
      "note": 90,
      "start": 21.2344,
      "duration": 0.0802,
      "velocity": 97,
      "chip": "ym2612"
    },
    {
      "channel": 5,
      "note": 57,
      "start": 21.2388,
      "duration": 0.1089,
      "velocity": 115,
      "chip": "ym2612"
    },
    {
      "channel": 4,
      "note": 47,
      "start": 21.3521,
      "duration": 0.0803,
      "velocity": 97,
      "chip": "ym2612"
    },
    {
      "channel": 5,
      "note": 56,
      "start": 21.3554,
      "duration": 0.1092,
      "velocity": 117,
      "chip": "ym2612"
    },
    {
      "channel": 1,
      "note": 90,
      "start": 21.3991,
      "duration": 0.0824,
      "velocity": 97,
      "chip": "ym2612"
    },
    {
      "channel": 0,
      "note": 90,
      "start": 21.4678,
      "duration": 0.08,
      "velocity": 97,
      "chip": "ym2612"
    },
    {
      "channel": 4,
      "note": 59,
      "start": 21.4693,
      "duration": 0.1796,
      "velocity": 97,
      "chip": "ym2612"
    },
    {
      "channel": 5,
      "note": 48,
      "start": 21.4727,
      "duration": 0.2084,
      "velocity": 127,
      "chip": "ym2612"
    },
    {
      "channel": 0,
      "note": 88,
      "start": 21.5821,
      "duration": 0.1825,
      "velocity": 97,
      "chip": "ym2612"
    },
    {
      "channel": 1,
      "note": 90,
      "start": 21.6324,
      "duration": 0.0826,
      "velocity": 97,
      "chip": "ym2612"
    },
    {
      "channel": 4,
      "note": 47,
      "start": 21.6854,
      "duration": 0.1803,
      "velocity": 97,
      "chip": "ym2612"
    },
    {
      "channel": 5,
      "note": 56,
      "start": 21.6887,
      "duration": 0.226,
      "velocity": 117,
      "chip": "ym2612"
    },
    {
      "channel": 1,
      "note": 88,
      "start": 21.7491,
      "duration": 0.1826,
      "velocity": 97,
      "chip": "ym2612"
    },
    {
      "channel": 0,
      "note": 88,
      "start": 21.7988,
      "duration": 0.0823,
      "velocity": 97,
      "chip": "ym2612"
    },
    {
      "channel": 0,
      "note": 87,
      "start": 21.918,
      "duration": 0.1801,
      "velocity": 97,
      "chip": "ym2612"
    },
    {
      "channel": 2,
      "note": 75,
      "start": 21.9199,
      "duration": 0.0789,
      "velocity": 97,
      "chip": "ym2612"
    },
    {
      "channel": 4,
      "note": 47,
      "start": 21.9211,
      "duration": 0.1784,
      "velocity": 97,
      "chip": "ym2612"
    },
    {
      "channel": 5,
      "note": 56,
      "start": 21.9244,
      "duration": 0.2234,
      "velocity": 117,
      "chip": "ym2612"
    },
    {
      "channel": 1,
      "note": 88,
      "start": 21.9825,
      "duration": 0.0826,
      "velocity": 97,
      "chip": "ym2612"
    },
    {
      "channel": 2,
      "note": 85,
      "start": 22.033,
      "duration": 0.0825,
      "velocity": 97,
      "chip": "ym2612"
    },
    {
      "channel": 3,
      "note": 75,
      "start": 22.067,
      "duration": 0.0854,
      "velocity": 97,
      "chip": "ym2612"
    },
    {
      "channel": 1,
      "note": 87,
      "start": 22.0824,
      "duration": 0.1826,
      "velocity": 97,
      "chip": "ym2612"
    },
    {
      "channel": 0,
      "note": 75,
      "start": 22.1509,
      "duration": 0.1803,
      "velocity": 97,
      "chip": "ym2612"
    },
    {
      "channel": 2,
      "note": 87,
      "start": 22.1523,
      "duration": 0.08,
      "velocity": 97,
      "chip": "ym2612"
    },
    {
      "channel": 4,
      "note": 59,
      "start": 22.1532,
      "duration": 0.1795,
      "velocity": 97,
      "chip": "ym2612"
    },
    {
      "channel": 5,
      "note": 57,
      "start": 22.1566,
      "duration": 0.0578,
      "velocity": 115,
      "chip": "ym2612"
    },
    {
      "channel": 3,
      "note": 85,
      "start": 22.1834,
      "duration": 0.0826,
      "velocity": 97,
      "chip": "ym2612"
    },
    {
      "channel": 5,
      "note": 57,
      "start": 22.2223,
      "duration": 0.0756,
      "velocity": 115,
      "chip": "ym2612"
    },
    {
      "channel": 2,
      "note": 88,
      "start": 22.2659,
      "duration": 0.0827,
      "velocity": 97,
      "chip": "ym2612"
    },
    {
      "channel": 3,
      "note": 87,
      "start": 22.3024,
      "duration": 0.0831,
      "velocity": 97,
      "chip": "ym2612"
    },
    {
      "channel": 5,
      "note": 57,
      "start": 22.3062,
      "duration": 0.075,
      "velocity": 115,
      "chip": "ym2612"
    },
    {
      "channel": 1,
      "note": 75,
      "start": 22.3158,
      "duration": 0.1827,
      "velocity": 97,
      "chip": "ym2612"
    },
    {
      "channel": 0,
      "note": 76,
      "start": 22.3845,
      "duration": 0.0801,
      "velocity": 97,
      "chip": "ym2612"
    },
    {
      "channel": 4,
      "note": 47,
      "start": 22.3864,
      "duration": 0.1794,
      "velocity": 97,
      "chip": "ym2612"
    },
    {
      "channel": 5,
      "note": 48,
      "start": 22.3897,
      "duration": 0.2081,
      "velocity": 127,
      "chip": "ym2612"
    },
    {
      "channel": 3,
      "note": 88,
      "start": 22.4165,
      "duration": 0.0826,
      "velocity": 97,
      "chip": "ym2612"
    },
    {
      "channel": 0,
      "note": 78,
      "start": 22.4818,
      "duration": 0.0828,
      "velocity": 97,
      "chip": "ym2612"
    },
    {
      "channel": 2,
      "note": 85,
      "start": 22.4836,
      "duration": 0.0815,
      "velocity": 97,
      "chip": "ym2612"
    },
    {
      "channel": 1,
      "note": 76,
      "start": 22.549,
      "duration": 0.0829,
      "velocity": 97,
      "chip": "ym2612"
    },
    {
      "channel": 0,
      "note": 80,
      "start": 22.6011,
      "duration": 0.08,
      "velocity": 97,
      "chip": "ym2612"
    },
    {
      "channel": 2,
      "note": 87,
      "start": 22.6024,
      "duration": 0.0793,
      "velocity": 97,
      "chip": "ym2612"
    },
    {
      "channel": 4,
      "note": 59,
      "start": 22.6038,
      "duration": 0.0785,
      "velocity": 97,
      "chip": "ym2612"
    },
    {
      "channel": 5,
      "note": 57,
      "start": 22.6072,
      "duration": 0.1074,
      "velocity": 115,
      "chip": "ym2612"
    },
    {
      "channel": 3,
      "note": 85,
      "start": 22.6505,
      "duration": 0.0821,
      "velocity": 97,
      "chip": "ym2612"
    },
    {
      "channel": 1,
      "note": 78,
      "start": 22.6658,
      "duration": 0.0824,
      "velocity": 97,
      "chip": "ym2612"
    },
    {
      "channel": 0,
      "note": 81,
      "start": 22.7178,
      "duration": 0.2801,
      "velocity": 97,
      "chip": "ym2612"
    },
    {
      "channel": 2,
      "note": 88,
      "start": 22.7191,
      "duration": 0.0797,
      "velocity": 97,
      "chip": "ym2612"
    },
    {
      "channel": 4,
      "note": 61,
      "start": 22.7205,
      "duration": 0.1794,
      "velocity": 97,
      "chip": "ym2612"
    },
    {
      "channel": 5,
      "note": 57,
      "start": 22.7238,
      "duration": 0.1074,
      "velocity": 115,
      "chip": "ym2612"
    },
    {
      "channel": 3,
      "note": 87,
      "start": 22.7495,
      "duration": 0.0856,
      "velocity": 97,
      "chip": "ym2612"
    },
    {
      "channel": 1,
      "note": 80,
      "start": 22.7824,
      "duration": 0.0826,
      "velocity": 97,
      "chip": "ym2612"
    },
    {
      "channel": 5,
      "note": 56,
      "start": 22.8389,
      "duration": 0.1088,
      "velocity": 117,
      "chip": "ym2612"
    },
    {
      "channel": 3,
      "note": 88,
      "start": 22.8663,
      "duration": 0.0862,
      "velocity": 97,
      "chip": "ym2612"
    },
    {
      "channel": 1,
      "note": 81,
      "start": 22.8824,
      "duration": 0.2828,
      "velocity": 97,
      "chip": "ym2612"
    },
    {
      "channel": 2,
      "note": 85,
      "start": 22.9524,
      "duration": 0.0799,
      "velocity": 97,
      "chip": "ym2612"
    },
    {
      "channel": 4,
      "note": 59,
      "start": 22.9535,
      "duration": 0.0794,
      "velocity": 97,
      "chip": "ym2612"
    },
    {
      "channel": 5,
      "note": 56,
      "start": 22.9568,
      "duration": 0.2244,
      "velocity": 117,
      "chip": "ym2612"
    },
    {
      "channel": 0,
      "note": 80,
      "start": 23.0654,
      "duration": 0.5684,
      "velocity": 97,
      "chip": "ym2612"
    },
    {
      "channel": 2,
      "note": 87,
      "start": 23.0667,
      "duration": 0.0819,
      "velocity": 97,
      "chip": "ym2612"
    },
    {
      "channel": 4,
      "note": 56,
      "start": 23.068,
      "duration": 0.1817,
      "velocity": 97,
      "chip": "ym2612"
    },
    {
      "channel": 3,
      "note": 85,
      "start": 23.1005,
      "duration": 0.085,
      "velocity": 97,
      "chip": "ym2612"
    },
    {
      "channel": 2,
      "note": 88,
      "start": 23.1854,
      "duration": 0.0801,
      "velocity": 97,
      "chip": "ym2612"
    },
    {
      "channel": 5,
      "note": 56,
      "start": 23.1893,
      "duration": 0.0918,
      "velocity": 117,
      "chip": "ym2612"
    },
    {
      "channel": 3,
      "note": 87,
      "start": 23.2165,
      "duration": 0.083,
      "velocity": 97,
      "chip": "ym2612"
    },
    {
      "channel": 1,
      "note": 80,
      "start": 23.2325,
      "duration": 0.5659,
      "velocity": 97,
      "chip": "ym2612"
    },
    {
      "channel": 4,
      "note": 52,
      "start": 23.2861,
      "duration": 0.0804,
      "velocity": 97,
      "chip": "ym2612"
    },
    {
      "channel": 5,
      "note": 48,
      "start": 23.2895,
      "duration": 0.1084,
      "velocity": 127,
      "chip": "ym2612"
    },
    {
      "channel": 3,
      "note": 88,
      "start": 23.3333,
      "duration": 0.0824,
      "velocity": 97,
      "chip": "ym2612"
    },
    {
      "channel": 2,
      "note": 85,
      "start": 23.4025,
      "duration": 0.0795,
      "velocity": 97,
      "chip": "ym2612"
    },
    {
      "channel": 4,
      "note": 51,
      "start": 23.4038,
      "duration": 0.0788,
      "velocity": 97,
      "chip": "ym2612"
    },
    {
      "channel": 5,
      "note": 48,
      "start": 23.4072,
      "duration": 0.1073,
      "velocity": 127,
      "chip": "ym2612"
    },
    {
      "channel": 2,
      "note": 87,
      "start": 23.5187,
      "duration": 0.0802,
      "velocity": 97,
      "chip": "ym2612"
    },
    {
      "channel": 4,
      "note": 49,
      "start": 23.5201,
      "duration": 0.1798,
      "velocity": 97,
      "chip": "ym2612"
    },
    {
      "channel": 5,
      "note": 48,
      "start": 23.5234,
      "duration": 0.1078,
      "velocity": 127,
      "chip": "ym2612"
    },
    {
      "channel": 3,
      "note": 85,
      "start": 23.5503,
      "duration": 0.0849,
      "velocity": 97,
      "chip": "ym2612"
    },
    {
      "channel": 2,
      "note": 88,
      "start": 23.635,
      "duration": 0.0805,
      "velocity": 97,
      "chip": "ym2612"
    },
    {
      "channel": 5,
      "note": 48,
      "start": 23.639,
      "duration": 0.1088,
      "velocity": 127,
      "chip": "ym2612"
    },
    {
      "channel": 3,
      "note": 87,
      "start": 23.6667,
      "duration": 0.0868,
      "velocity": 97,
      "chip": "ym2612"
    },
    {
      "channel": 0,
      "note": 85,
      "start": 23.7513,
      "duration": 0.28,
      "velocity": 97,
      "chip": "ym2612"
    },
    {
      "channel": 2,
      "note": 76,
      "start": 23.7534,
      "duration": 0.0789,
      "velocity": 97,
      "chip": "ym2612"
    },
    {
      "channel": 4,
      "note": 49,
      "start": 23.7547,
      "duration": 0.1784,
      "velocity": 97,
      "chip": "ym2612"
    },
    {
      "channel": 5,
      "note": 56,
      "start": 23.758,
      "duration": 0.2232,
      "velocity": 117,
      "chip": "ym2612"
    },
    {
      "channel": 3,
      "note": 88,
      "start": 23.7833,
      "duration": 0.0832,
      "velocity": 97,
      "chip": "ym2612"
    },
    {
      "channel": 2,
      "note": 85,
      "start": 23.8663,
      "duration": 0.0823,
      "velocity": 97,
      "chip": "ym2612"
    },
    {
      "channel": 3,
      "note": 76,
      "start": 23.9008,
      "duration": 0.0847,
      "velocity": 97,
      "chip": "ym2612"
    },
    {
      "channel": 1,
      "note": 85,
      "start": 23.9161,
      "duration": 0.2848,
      "velocity": 97,
      "chip": "ym2612"
    },
    {
      "channel": 2,
      "note": 87,
      "start": 23.9854,
      "duration": 0.0802,
      "velocity": 97,
      "chip": "ym2612"
    },
    {
      "channel": 4,
      "note": 49,
      "start": 23.9864,
      "duration": 0.1797,
      "velocity": 97,
      "chip": "ym2612"
    },
    {
      "channel": 5,
      "note": 57,
      "start": 23.9897,
      "duration": 0.0582,
      "velocity": 115,
      "chip": "ym2612"
    },
    {
      "channel": 3,
      "note": 85,
      "start": 24.0166,
      "duration": 0.0828,
      "velocity": 97,
      "chip": "ym2612"
    },
    {
      "channel": 5,
      "note": 57,
      "start": 24.0558,
      "duration": 0.0754,
      "velocity": 115,
      "chip": "ym2612"
    },
    {
      "channel": 0,
      "note": 83,
      "start": 24.0818,
      "duration": 0.2829,
      "velocity": 97,
      "chip": "ym2612"
    },
    {
      "channel": 2,
      "note": 88,
      "start": 24.0832,
      "duration": 0.0823,
      "velocity": 97,
      "chip": "ym2612"
    },
    {
      "channel": 3,
      "note": 87,
      "start": 24.1357,
      "duration": 0.08,
      "velocity": 97,
      "chip": "ym2612"
    },
    {
      "channel": 5,
      "note": 57,
      "start": 24.1395,
      "duration": 0.0583,
      "velocity": 115,
      "chip": "ym2612"
    },
    {
      "channel": 4,
      "note": 49,
      "start": 24.2026,
      "duration": 0.1805,
      "velocity": 97,
      "chip": "ym2612"
    },
    {
      "channel": 5,
      "note": 48,
      "start": 24.206,
      "duration": 0.2252,
      "velocity": 127,
      "chip": "ym2612"
    },
    {
      "channel": 3,
      "note": 88,
      "start": 24.25,
      "duration": 0.0826,
      "velocity": 97,
      "chip": "ym2612"
    },
    {
      "channel": 1,
      "note": 83,
      "start": 24.2658,
      "duration": 0.2849,
      "velocity": 97,
      "chip": "ym2612"
    },
    {
      "channel": 2,
      "note": 85,
      "start": 24.3168,
      "duration": 0.0821,
      "velocity": 97,
      "chip": "ym2612"
    },
    {
      "channel": 0,
      "note": 81,
      "start": 24.4345,
      "duration": 0.1799,
      "velocity": 97,
      "chip": "ym2612"
    },
    {
      "channel": 2,
      "note": 87,
      "start": 24.4359,
      "duration": 0.0796,
      "velocity": 97,
      "chip": "ym2612"
    },
    {
      "channel": 4,
      "note": 52,
      "start": 24.4373,
      "duration": 0.0788,
      "velocity": 97,
      "chip": "ym2612"
    },
    {
      "channel": 5,
      "note": 57,
      "start": 24.4406,
      "duration": 0.1071,
      "velocity": 115,
      "chip": "ym2612"
    },
    {
      "channel": 3,
      "note": 85,
      "start": 24.4671,
      "duration": 0.0846,
      "velocity": 97,
      "chip": "ym2612"
    },
    {
      "channel": 2,
      "note": 88,
      "start": 24.5516,
      "duration": 0.0807,
      "velocity": 97,
      "chip": "ym2612"
    },
    {
      "channel": 4,
      "note": 57,
      "start": 24.5526,
      "duration": 0.0803,
      "velocity": 97,
      "chip": "ym2612"
    },
    {
      "channel": 5,
      "note": 57,
      "start": 24.5559,
      "duration": 0.1086,
      "velocity": 115,
      "chip": "ym2612"
    },
    {
      "channel": 3,
      "note": 87,
      "start": 24.5834,
      "duration": 0.0855,
      "velocity": 97,
      "chip": "ym2612"
    },
    {
      "channel": 1,
      "note": 81,
      "start": 24.5992,
      "duration": 0.1854,
      "velocity": 97,
      "chip": "ym2612"
    },
    {
      "channel": 0,
      "note": 81,
      "start": 24.6678,
      "duration": 0.0799,
      "velocity": 97,
      "chip": "ym2612"
    },
    {
      "channel": 5,
      "note": 56,
      "start": 24.6727,
      "duration": 0.1085,
      "velocity": 117,
      "chip": "ym2612"
    },
    {
      "channel": 3,
      "note": 88,
      "start": 24.7,
      "duration": 0.0861,
      "velocity": 97,
      "chip": "ym2612"
    },
    {
      "channel": 0,
      "note": 88,
      "start": 24.7844,
      "duration": 0.0802,
      "velocity": 97,
      "chip": "ym2612"
    },
    {
      "channel": 2,
      "note": 85,
      "start": 24.7859,
      "duration": 0.0793,
      "velocity": 97,
      "chip": "ym2612"
    },
    {
      "channel": 4,
      "note": 57,
      "start": 24.7869,
      "duration": 0.0789,
      "velocity": 97,
      "chip": "ym2612"
    },
    {
      "channel": 5,
      "note": 56,
      "start": 24.7902,
      "duration": 0.0908,
      "velocity": 117,
      "chip": "ym2612"
    },
    {
      "channel": 1,
      "note": 81,
      "start": 24.8325,
      "duration": 0.0826,
      "velocity": 97,
      "chip": "ym2612"
    },
    {
      "channel": 2,
      "note": 87,
      "start": 24.8851,
      "duration": 0.0804,
      "velocity": 97,
      "chip": "ym2612"
    },
    {
      "channel": 5,
      "note": 57,
      "start": 24.8894,
      "duration": 0.1085,
      "velocity": 115,
      "chip": "ym2612"
    },
    {
      "channel": 3,
      "note": 85,
      "start": 24.9338,
      "duration": 0.082,
      "velocity": 97,
      "chip": "ym2612"
    },
    {
      "channel": 1,
      "note": 88,
      "start": 24.9489,
      "duration": 0.0829,
      "velocity": 97,
      "chip": "ym2612"
    },
    {
      "channel": 0,
      "note": 87,
      "start": 25.0012,
      "duration": 0.2799,
      "velocity": 97,
      "chip": "ym2612"
    },
    {
      "channel": 2,
      "note": 88,
      "start": 25.0024,
      "duration": 0.0795,
      "velocity": 97,
      "chip": "ym2612"
    },
    {
      "channel": 4,
      "note": 57,
      "start": 25.0037,
      "duration": 0.0788,
      "velocity": 97,
      "chip": "ym2612"
    },
    {
      "channel": 5,
      "note": 56,
      "start": 25.0071,
      "duration": 0.1074,
      "velocity": 117,
      "chip": "ym2612"
    },
    {
      "channel": 3,
      "note": 87,
      "start": 25.05,
      "duration": 0.0827,
      "velocity": 97,
      "chip": "ym2612"
    },
    {
      "channel": 4,
      "note": 57,
      "start": 25.1196,
      "duration": 0.1802,
      "velocity": 97,
      "chip": "ym2612"
    },
    {
      "channel": 5,
      "note": 48,
      "start": 25.123,
      "duration": 0.2248,
      "velocity": 127,
      "chip": "ym2612"
    },
    {
      "channel": 3,
      "note": 88,
      "start": 25.1498,
      "duration": 0.0838,
      "velocity": 97,
      "chip": "ym2612"
    },
    {
      "channel": 1,
      "note": 87,
      "start": 25.1825,
      "duration": 0.285,
      "velocity": 97,
      "chip": "ym2612"
    },
    {
      "channel": 2,
      "note": 85,
      "start": 25.2334,
      "duration": 0.0821,
      "velocity": 97,
      "chip": "ym2612"
    },
    {
      "channel": 0,
      "note": 85,
      "start": 25.3511,
      "duration": 0.1802,
      "velocity": 97,
      "chip": "ym2612"
    },
    {
      "channel": 2,
      "note": 87,
      "start": 25.3524,
      "duration": 0.0799,
      "velocity": 97,
      "chip": "ym2612"
    },
    {
      "channel": 4,
      "note": 57,
      "start": 25.3537,
      "duration": 0.1791,
      "velocity": 97,
      "chip": "ym2612"
    },
    {
      "channel": 5,
      "note": 57,
      "start": 25.357,
      "duration": 0.1075,
      "velocity": 115,
      "chip": "ym2612"
    },
    {
      "channel": 3,
      "note": 85,
      "start": 25.3838,
      "duration": 0.0847,
      "velocity": 97,
      "chip": "ym2612"
    },
    {
      "channel": 2,
      "note": 88,
      "start": 25.4684,
      "duration": 0.0803,
      "velocity": 97,
      "chip": "ym2612"
    },
    {
      "channel": 5,
      "note": 57,
      "start": 25.4723,
      "duration": 0.1089,
      "velocity": 115,
      "chip": "ym2612"
    },
    {
      "channel": 3,
      "note": 87,
      "start": 25.5,
      "duration": 0.0857,
      "velocity": 97,
      "chip": "ym2612"
    },
    {
      "channel": 1,
      "note": 85,
      "start": 25.5159,
      "duration": 0.1826,
      "velocity": 97,
      "chip": "ym2612"
    },
    {
      "channel": 0,
      "note": 87,
      "start": 25.5844,
      "duration": 0.1802,
      "velocity": 97,
      "chip": "ym2612"
    },
    {
      "channel": 4,
      "note": 59,
      "start": 25.5866,
      "duration": 0.1788,
      "velocity": 97,
      "chip": "ym2612"
    },
    {
      "channel": 5,
      "note": 56,
      "start": 25.5899,
      "duration": 0.2079,
      "velocity": 117,
      "chip": "ym2612"
    },
    {
      "channel": 3,
      "note": 88,
      "start": 25.6161,
      "duration": 0.0827,
      "velocity": 97,
      "chip": "ym2612"
    },
    {
      "channel": 1,
      "note": 87,
      "start": 25.749,
      "duration": 0.1828,
      "velocity": 97,
      "chip": "ym2612"
    },
    {
      "channel": 0,
      "note": 85,
      "start": 25.8011,
      "duration": 0.1802,
      "velocity": 97,
      "chip": "ym2612"
    },
    {
      "channel": 4,
      "note": 59,
      "start": 25.8025,
      "duration": 0.1799,
      "velocity": 97,
      "chip": "ym2612"
    },
    {
      "channel": 5,
      "note": 57,
      "start": 25.8059,
      "duration": 0.0752,
      "velocity": 115,
      "chip": "ym2612"
    },
    {
      "channel": 5,
      "note": 57,
      "start": 25.8883,
      "duration": 0.0595,
      "velocity": 115,
      "chip": "ym2612"
    },
    {
      "channel": 5,
      "note": 57,
      "start": 25.9549,
      "duration": 0.0763,
      "velocity": 115,
      "chip": "ym2612"
    },
    {
      "channel": 1,
      "note": 85,
      "start": 25.9822,
      "duration": 0.1829,
      "velocity": 97,
      "chip": "ym2612"
    },
    {
      "channel": 0,
      "note": 83,
      "start": 26.0345,
      "duration": 0.0801,
      "velocity": 97,
      "chip": "ym2612"
    },
    {
      "channel": 4,
      "note": 59,
      "start": 26.036,
      "duration": 0.1795,
      "velocity": 97,
      "chip": "ym2612"
    },
    {
      "channel": 5,
      "note": 48,
      "start": 26.0393,
      "duration": 0.2252,
      "velocity": 127,
      "chip": "ym2612"
    },
    {
      "channel": 0,
      "note": 81,
      "start": 26.1485,
      "duration": 0.0829,
      "velocity": 97,
      "chip": "ym2612"
    },
    {
      "channel": 1,
      "note": 83,
      "start": 26.1991,
      "duration": 0.0824,
      "velocity": 97,
      "chip": "ym2612"
    },
    {
      "channel": 4,
      "note": 59,
      "start": 26.2689,
      "duration": 0.0798,
      "velocity": 97,
      "chip": "ym2612"
    },
    {
      "channel": 5,
      "note": 57,
      "start": 26.2722,
      "duration": 0.109,
      "velocity": 115,
      "chip": "ym2612"
    },
    {
      "channel": 1,
      "note": 81,
      "start": 26.3158,
      "duration": 0.0826,
      "velocity": 97,
      "chip": "ym2612"
    },
    {
      "channel": 0,
      "note": 80,
      "start": 26.3845,
      "duration": 0.5657,
      "velocity": 97,
      "chip": "ym2612"
    },
    {
      "channel": 4,
      "note": 52,
      "start": 26.3859,
      "duration": 0.0797,
      "velocity": 97,
      "chip": "ym2612"
    },
    {
      "channel": 5,
      "note": 56,
      "start": 26.3893,
      "duration": 0.0918,
      "velocity": 117,
      "chip": "ym2612"
    },
    {
      "channel": 5,
      "note": 57,
      "start": 26.4883,
      "duration": 0.1096,
      "velocity": 115,
      "chip": "ym2612"
    },
    {
      "channel": 1,
      "note": 80,
      "start": 26.549,
      "duration": 0.566,
      "velocity": 97,
      "chip": "ym2612"
    },
    {
      "channel": 4,
      "note": 52,
      "start": 26.6021,
      "duration": 0.0801,
      "velocity": 97,
      "chip": "ym2612"
    },
    {
      "channel": 5,
      "note": 56,
      "start": 26.6054,
      "duration": 0.1091,
      "velocity": 117,
      "chip": "ym2612"
    },
    {
      "channel": 5,
      "note": 57,
      "start": 26.7219,
      "duration": 0.1093,
      "velocity": 115,
      "chip": "ym2612"
    },
    {
      "channel": 4,
      "note": 52,
      "start": 26.8355,
      "duration": 0.0802,
      "velocity": 97,
      "chip": "ym2612"
    },
    {
      "channel": 5,
      "note": 56,
      "start": 26.8388,
      "duration": 0.1089,
      "velocity": 117,
      "chip": "ym2612"
    },
    {
      "channel": 4,
      "note": 52,
      "start": 26.9518,
      "duration": 0.1805,
      "velocity": 97,
      "chip": "ym2612"
    },
    {
      "channel": 5,
      "note": 48,
      "start": 26.9552,
      "duration": 0.226,
      "velocity": 127,
      "chip": "ym2612"
    },
    {
      "channel": 0,
      "note": 80,
      "start": 27.0654,
      "duration": 0.0824,
      "velocity": 97,
      "chip": "ym2612"
    },
    {
      "channel": 0,
      "note": 81,
      "start": 27.1844,
      "duration": 0.0802,
      "velocity": 97,
      "chip": "ym2612"
    },
    {
      "channel": 4,
      "note": 52,
      "start": 27.1859,
      "duration": 0.1795,
      "velocity": 97,
      "chip": "ym2612"
    },
    {
      "channel": 5,
      "note": 57,
      "start": 27.1892,
      "duration": 0.0919,
      "velocity": 115,
      "chip": "ym2612"
    },
    {
      "channel": 1,
      "note": 80,
      "start": 27.2325,
      "duration": 0.0826,
      "velocity": 97,
      "chip": "ym2612"
    },
    {
      "channel": 0,
      "note": 82,
      "start": 27.2843,
      "duration": 0.0803,
      "velocity": 97,
      "chip": "ym2612"
    },
    {
      "channel": 5,
      "note": 57,
      "start": 27.2887,
      "duration": 0.1092,
      "velocity": 115,
      "chip": "ym2612"
    },
    {
      "channel": 1,
      "note": 81,
      "start": 27.3489,
      "duration": 0.0829,
      "velocity": 97,
      "chip": "ym2612"
    },
    {
      "channel": 0,
      "note": 83,
      "start": 27.4011,
      "duration": 0.08,
      "velocity": 97,
      "chip": "ym2612"
    },
    {
      "channel": 4,
      "note": 45,
      "start": 27.4028,
      "duration": 0.18,
      "velocity": 97,
      "chip": "ym2612"
    },
    {
      "channel": 5,
      "note": 56,
      "start": 27.4061,
      "duration": 0.2251,
      "velocity": 117,
      "chip": "ym2612"
    },
    {
      "channel": 1,
      "note": 82,
      "start": 27.4658,
      "duration": 0.0824,
      "velocity": 97,
      "chip": "ym2612"
    },
    {
      "channel": 0,
      "note": 85,
      "start": 27.5154,
      "duration": 0.1826,
      "velocity": 97,
      "chip": "ym2612"
    },
    {
      "channel": 1,
      "note": 83,
      "start": 27.5824,
      "duration": 0.0826,
      "velocity": 97,
      "chip": "ym2612"
    },
    {
      "channel": 4,
      "note": 57,
      "start": 27.6355,
      "duration": 0.18,
      "velocity": 97,
      "chip": "ym2612"
    },
    {
      "channel": 5,
      "note": 57,
      "start": 27.6388,
      "duration": 0.0757,
      "velocity": 115,
      "chip": "ym2612"
    },
    {
      "channel": 1,
      "note": 85,
      "start": 27.6824,
      "duration": 0.1851,
      "velocity": 97,
      "chip": "ym2612"
    },
    {
      "channel": 5,
      "note": 57,
      "start": 27.7217,
      "duration": 0.0595,
      "velocity": 115,
      "chip": "ym2612"
    },
    {
      "channel": 0,
      "note": 81,
      "start": 27.7486,
      "duration": 0.0828,
      "velocity": 97,
      "chip": "ym2612"
    },
    {
      "channel": 5,
      "note": 57,
      "start": 27.7885,
      "duration": 0.0761,
      "velocity": 115,
      "chip": "ym2612"
    },
    {
      "channel": 4,
      "note": 45,
      "start": 27.8685,
      "duration": 0.1805,
      "velocity": 97,
      "chip": "ym2612"
    },
    {
      "channel": 5,
      "note": 48,
      "start": 27.8719,
      "duration": 0.2092,
      "velocity": 127,
      "chip": "ym2612"
    },
    {
      "channel": 1,
      "note": 81,
      "start": 27.9158,
      "duration": 0.0826,
      "velocity": 97,
      "chip": "ym2612"
    },
    {
      "channel": 0,
      "note": 81,
      "start": 27.982,
      "duration": 0.0826,
      "velocity": 97,
      "chip": "ym2612"
    },
    {
      "channel": 0,
      "note": 88,
      "start": 28.0843,
      "duration": 0.0803,
      "velocity": 97,
      "chip": "ym2612"
    },
    {
      "channel": 4,
      "note": 57,
      "start": 28.0859,
      "duration": 0.0795,
      "velocity": 97,
      "chip": "ym2612"
    },
    {
      "channel": 5,
      "note": 57,
      "start": 28.0892,
      "duration": 0.1087,
      "velocity": 115,
      "chip": "ym2612"
    },
    {
      "channel": 1,
      "note": 81,
      "start": 28.1489,
      "duration": 0.0829,
      "velocity": 97,
      "chip": "ym2612"
    },
    {
      "channel": 4,
      "note": 47,
      "start": 28.2021,
      "duration": 0.08,
      "velocity": 97,
      "chip": "ym2612"
    },
    {
      "channel": 5,
      "note": 57,
      "start": 28.2055,
      "duration": 0.109,
      "velocity": 115,
      "chip": "ym2612"
    },
    {
      "channel": 1,
      "note": 88,
      "start": 28.2658,
      "duration": 0.0824,
      "velocity": 97,
      "chip": "ym2612"
    },
    {
      "channel": 0,
      "note": 90,
      "start": 28.3178,
      "duration": 0.0802,
      "velocity": 97,
      "chip": "ym2612"
    },
    {
      "channel": 2,
      "note": 75,
      "start": 28.3192,
      "duration": 0.0793,
      "velocity": 97,
      "chip": "ym2612"
    },
    {
      "channel": 5,
      "note": 56,
      "start": 28.3231,
      "duration": 0.1081,
      "velocity": 117,
      "chip": "ym2612"
    },
    {
      "channel": 2,
      "note": 85,
      "start": 28.4354,
      "duration": 0.0801,
      "velocity": 97,
      "chip": "ym2612"
    },
    {
      "channel": 4,
      "note": 59,
      "start": 28.4364,
      "duration": 0.1798,
      "velocity": 97,
      "chip": "ym2612"
    },
    {
      "channel": 5,
      "note": 57,
      "start": 28.4398,
      "duration": 0.108,
      "velocity": 115,
      "chip": "ym2612"
    },
    {
      "channel": 3,
      "note": 75,
      "start": 28.4668,
      "duration": 0.0856,
      "velocity": 97,
      "chip": "ym2612"
    },
    {
      "channel": 1,
      "note": 90,
      "start": 28.4822,
      "duration": 0.0828,
      "velocity": 97,
      "chip": "ym2612"
    },
    {
      "channel": 0,
      "note": 90,
      "start": 28.5509,
      "duration": 0.0805,
      "velocity": 97,
      "chip": "ym2612"
    },
    {
      "channel": 2,
      "note": 87,
      "start": 28.5523,
      "duration": 0.0797,
      "velocity": 97,
      "chip": "ym2612"
    },
    {
      "channel": 5,
      "note": 57,
      "start": 28.5562,
      "duration": 0.1083,
      "velocity": 115,
      "chip": "ym2612"
    },
    {
      "channel": 3,
      "note": 85,
      "start": 28.5834,
      "duration": 0.0854,
      "velocity": 97,
      "chip": "ym2612"
    },
    {
      "channel": 2,
      "note": 88,
      "start": 28.6687,
      "duration": 0.08,
      "velocity": 97,
      "chip": "ym2612"
    },
    {
      "channel": 4,
      "note": 47,
      "start": 28.6698,
      "duration": 0.0795,
      "velocity": 97,
      "chip": "ym2612"
    },
    {
      "channel": 5,
      "note": 56,
      "start": 28.6731,
      "duration": 0.1081,
      "velocity": 117,
      "chip": "ym2612"
    },
    {
      "channel": 3,
      "note": 87,
      "start": 28.7,
      "duration": 0.0855,
      "velocity": 97,
      "chip": "ym2612"
    },
    {
      "channel": 1,
      "note": 90,
      "start": 28.7158,
      "duration": 0.0826,
      "velocity": 97,
      "chip": "ym2612"
    },
    {
      "channel": 0,
      "note": 90,
      "start": 28.7844,
      "duration": 0.0802,
      "velocity": 97,
      "chip": "ym2612"
    },
    {
      "channel": 4,
      "note": 59,
      "start": 28.7864,
      "duration": 0.1797,
      "velocity": 97,
      "chip": "ym2612"
    },
    {
      "channel": 5,
      "note": 48,
      "start": 28.7898,
      "duration": 0.2081,
      "velocity": 127,
      "chip": "ym2612"
    },
    {
      "channel": 3,
      "note": 88,
      "start": 28.8165,
      "duration": 0.0829,
      "velocity": 97,
      "chip": "ym2612"
    },
    {
      "channel": 0,
      "note": 88,
      "start": 28.8819,
      "duration": 0.1827,
      "velocity": 97,
      "chip": "ym2612"
    },
    {
      "channel": 2,
      "note": 85,
      "start": 28.8837,
      "duration": 0.0818,
      "velocity": 97,
      "chip": "ym2612"
    },
    {
      "channel": 1,
      "note": 90,
      "start": 28.9489,
      "duration": 0.0829,
      "velocity": 97,
      "chip": "ym2612"
    },
    {
      "channel": 2,
      "note": 87,
      "start": 29.002,
      "duration": 0.08,
      "velocity": 97,
      "chip": "ym2612"
    },
    {
      "channel": 4,
      "note": 47,
      "start": 29.0033,
      "duration": 0.1798,
      "velocity": 97,
      "chip": "ym2612"
    },
    {
      "channel": 5,
      "note": 56,
      "start": 29.0066,
      "duration": 0.2247,
      "velocity": 117,
      "chip": "ym2612"
    },
    {
      "channel": 3,
      "note": 85,
      "start": 29.0505,
      "duration": 0.0821,
      "velocity": 97,
      "chip": "ym2612"
    },
    {
      "channel": 1,
      "note": 88,
      "start": 29.0656,
      "duration": 0.1828,
      "velocity": 97,
      "chip": "ym2612"
    },
    {
      "channel": 0,
      "note": 88,
      "start": 29.1154,
      "duration": 0.0825,
      "velocity": 97,
      "chip": "ym2612"
    },
    {
      "channel": 2,
      "note": 88,
      "start": 29.1167,
      "duration": 0.0819,
      "velocity": 97,
      "chip": "ym2612"
    },
    {
      "channel": 3,
      "note": 87,
      "start": 29.1498,
      "duration": 0.0861,
      "velocity": 97,
      "chip": "ym2612"
    },
    {
      "channel": 0,
      "note": 87,
      "start": 29.2348,
      "duration": 0.7631,
      "velocity": 97,
      "chip": "ym2612"
    },
    {
      "channel": 4,
      "note": 47,
      "start": 29.2369,
      "duration": 0.1793,
      "velocity": 97,
      "chip": "ym2612"
    },
    {
      "channel": 5,
      "note": 56,
      "start": 29.2402,
      "duration": 0.4408,
      "velocity": 117,
      "chip": "ym2612"
    },
    {
      "channel": 3,
      "note": 88,
      "start": 29.2666,
      "duration": 0.0833,
      "velocity": 97,
      "chip": "ym2612"
    },
    {
      "channel": 1,
      "note": 88,
      "start": 29.2824,
      "duration": 0.0827,
      "velocity": 97,
      "chip": "ym2612"
    },
    {
      "channel": 2,
      "note": 85,
      "start": 29.3498,
      "duration": 0.0824,
      "velocity": 97,
      "chip": "ym2612"
    },
    {
      "channel": 1,
      "note": 87,
      "start": 29.3994,
      "duration": 0.7656,
      "velocity": 97,
      "chip": "ym2612"
    },
    {
      "channel": 2,
      "note": 87,
      "start": 29.4663,
      "duration": 0.0824,
      "velocity": 97,
      "chip": "ym2612"
    },
    {
      "channel": 4,
      "note": 59,
      "start": 29.4676,
      "duration": 0.0816,
      "velocity": 97,
      "chip": "ym2612"
    },
    {
      "channel": 3,
      "note": 85,
      "start": 29.5005,
      "duration": 0.0825,
      "velocity": 97,
      "chip": "ym2612"
    },
    {
      "channel": 2,
      "note": 88,
      "start": 29.5829,
      "duration": 0.0827,
      "velocity": 97,
      "chip": "ym2612"
    },
    {
      "channel": 4,
      "note": 59,
      "start": 29.5839,
      "duration": 0.0822,
      "velocity": 97,
      "chip": "ym2612"
    },
    {
      "channel": 3,
      "note": 87,
      "start": 29.6165,
      "duration": 0.083,
      "velocity": 97,
      "chip": "ym2612"
    },
    {
      "channel": 5,
      "note": 56,
      "start": 29.689,
      "duration": 0.4588,
      "velocity": 117,
      "chip": "ym2612"
    },
    {
      "channel": 3,
      "note": 88,
      "start": 29.7334,
      "duration": 0.0824,
      "velocity": 97,
      "chip": "ym2612"
    },
    {
      "channel": 2,
      "note": 85,
      "start": 29.8001,
      "duration": 0.0819,
      "velocity": 97,
      "chip": "ym2612"
    },
    {
      "channel": 2,
      "note": 87,
      "start": 29.9162,
      "duration": 0.0824,
      "velocity": 97,
      "chip": "ym2612"
    },
    {
      "channel": 4,
      "note": 59,
      "start": 29.9175,
      "duration": 0.0816,
      "velocity": 97,
      "chip": "ym2612"
    },
    {
      "channel": 3,
      "note": 85,
      "start": 29.9503,
      "duration": 0.0828,
      "velocity": 97,
      "chip": "ym2612"
    },
    {
      "channel": 2,
      "note": 88,
      "start": 30.0329,
      "duration": 0.0826,
      "velocity": 97,
      "chip": "ym2612"
    },
    {
      "channel": 4,
      "note": 59,
      "start": 30.0339,
      "duration": 0.0822,
      "velocity": 97,
      "chip": "ym2612"
    },
    {
      "channel": 3,
      "note": 87,
      "start": 30.0666,
      "duration": 0.085,
      "velocity": 97,
      "chip": "ym2612"
    },
    {
      "channel": 4,
      "note": 47,
      "start": 30.1524,
      "duration": 0.0807,
      "velocity": 97,
      "chip": "ym2612"
    },
    {
      "channel": 5,
      "note": 48,
      "start": 30.1558,
      "duration": 0.0254,
      "velocity": 127,
      "chip": "ym2612"
    },
    {
      "channel": 3,
      "note": 88,
      "start": 30.1858,
      "duration": 0.081,
      "velocity": 97,
      "chip": "ym2612"
    },
    {
      "channel": 5,
      "note": 48,
      "start": 30.1897,
      "duration": 0.4082,
      "velocity": 127,
      "chip": "ym2612"
    },
    {
      "channel": 2,
      "note": 85,
      "start": 30.2667,
      "duration": 0.082,
      "velocity": 97,
      "chip": "ym2612"
    },
    {
      "channel": 4,
      "note": 59,
      "start": 30.2678,
      "duration": 0.182,
      "velocity": 97,
      "chip": "ym2612"
    },
    {
      "channel": 2,
      "note": 87,
      "start": 30.3829,
      "duration": 0.0826,
      "velocity": 97,
      "chip": "ym2612"
    },
    {
      "channel": 3,
      "note": 85,
      "start": 30.417,
      "duration": 0.0823,
      "velocity": 97,
      "chip": "ym2612"
    },
    {
      "channel": 2,
      "note": 88,
      "start": 30.4827,
      "duration": 0.0827,
      "velocity": 97,
      "chip": "ym2612"
    },
    {
      "channel": 4,
      "note": 59,
      "start": 30.4841,
      "duration": 0.082,
      "velocity": 97,
      "chip": "ym2612"
    },
    {
      "channel": 3,
      "note": 87,
      "start": 30.5333,
      "duration": 0.0825,
      "velocity": 97,
      "chip": "ym2612"
    },
    {
      "channel": 5,
      "note": 48,
      "start": 30.6058,
      "duration": 0.042,
      "velocity": 127,
      "chip": "ym2612"
    },
    {
      "channel": 3,
      "note": 88,
      "start": 30.6524,
      "duration": 0.0802,
      "velocity": 97,
      "chip": "ym2612"
    },
    {
      "channel": 5,
      "note": 48,
      "start": 30.6563,
      "duration": 0.1749,
      "velocity": 127,
      "chip": "ym2612"
    },
    {
      "channel": 0,
      "note": 73,
      "start": 30.7182,
      "duration": 0.0798,
      "velocity": 107,
      "chip": "ym2612"
    },
    {
      "channel": 2,
      "note": 85,
      "start": 30.72,
      "duration": 0.0785,
      "velocity": 97,
      "chip": "ym2612"
    },
    {
      "channel": 0,
      "note": 71,
      "start": 30.8344,
      "duration": 0.0802,
      "velocity": 107,
      "chip": "ym2612"
    },
    {
      "channel": 2,
      "note": 87,
      "start": 30.8357,
      "duration": 0.0794,
      "velocity": 97,
      "chip": "ym2612"
    },
    {
      "channel": 4,
      "note": 47,
      "start": 30.837,
      "duration": 0.0788,
      "velocity": 97,
      "chip": "ym2612"
    },
    {
      "channel": 5,
      "note": 48,
      "start": 30.8404,
      "duration": 0.1073,
      "velocity": 127,
      "chip": "ym2612"
    },
    {
      "channel": 3,
      "note": 85,
      "start": 30.8671,
      "duration": 0.0853,
      "velocity": 97,
      "chip": "ym2612"
    },
    {
      "channel": 1,
      "note": 73,
      "start": 30.8851,
      "duration": 0.08,
      "velocity": 107,
      "chip": "ym2612"
    },
    {
      "channel": 0,
      "note": 73,
      "start": 30.9509,
      "duration": 0.0805,
      "velocity": 107,
      "chip": "ym2612"
    },
    {
      "channel": 2,
      "note": 88,
      "start": 30.9523,
      "duration": 0.0797,
      "velocity": 97,
      "chip": "ym2612"
    },
    {
      "channel": 4,
      "note": 49,
      "start": 30.9532,
      "duration": 0.0793,
      "velocity": 97,
      "chip": "ym2612"
    },
    {
      "channel": 5,
      "note": 48,
      "start": 30.9566,
      "duration": 0.1083,
      "velocity": 127,
      "chip": "ym2612"
    },
    {
      "channel": 3,
      "note": 87,
      "start": 30.9833,
      "duration": 0.0861,
      "velocity": 97,
      "chip": "ym2612"
    },
    {
      "channel": 1,
      "note": 71,
      "start": 30.9991,
      "duration": 0.0824,
      "velocity": 107,
      "chip": "ym2612"
    },
    {
      "channel": 0,
      "note": 74,
      "start": 31.0682,
      "duration": 0.1798,
      "velocity": 107,
      "chip": "ym2612"
    },
    {
      "channel": 4,
      "note": 50,
      "start": 31.0706,
      "duration": 0.0785,
      "velocity": 97,
      "chip": "ym2612"
    },
    {
      "channel": 5,
      "note": 56,
      "start": 31.0739,
      "duration": 0.1073,
      "velocity": 117,
      "chip": "ym2612"
    },
    {
      "channel": 3,
      "note": 88,
      "start": 31.0996,
      "duration": 0.0851,
      "velocity": 97,
      "chip": "ym2612"
    },
    {
      "channel": 1,
      "note": 73,
      "start": 31.1158,
      "duration": 0.0826,
      "velocity": 107,
      "chip": "ym2612"
    },
    {
      "channel": 4,
      "note": 62,
      "start": 31.1855,
      "duration": 0.0802,
      "velocity": 97,
      "chip": "ym2612"
    },
    {
      "channel": 5,
      "note": 57,
      "start": 31.1889,
      "duration": 0.0922,
      "velocity": 115,
      "chip": "ym2612"
    },
    {
      "channel": 1,
      "note": 74,
      "start": 31.2325,
      "duration": 0.1823,
      "velocity": 107,
      "chip": "ym2612"
    },
    {
      "channel": 0,
      "note": 72,
      "start": 31.2843,
      "duration": 0.1803,
      "velocity": 107,
      "chip": "ym2612"
    },
    {
      "channel": 4,
      "note": 62,
      "start": 31.2857,
      "duration": 0.08,
      "velocity": 97,
      "chip": "ym2612"
    },
    {
      "channel": 5,
      "note": 57,
      "start": 31.2891,
      "duration": 0.1088,
      "velocity": 115,
      "chip": "ym2612"
    },
    {
      "channel": 4,
      "note": 50,
      "start": 31.4022,
      "duration": 0.08,
      "velocity": 97,
      "chip": "ym2612"
    },
    {
      "channel": 5,
      "note": 56,
      "start": 31.4056,
      "duration": 0.109,
      "velocity": 117,
      "chip": "ym2612"
    },
    {
      "channel": 1,
      "note": 72,
      "start": 31.4654,
      "duration": 0.1829,
      "velocity": 107,
      "chip": "ym2612"
    },
    {
      "channel": 0,
      "note": 70,
      "start": 31.5178,
      "duration": 0.0801,
      "velocity": 107,
      "chip": "ym2612"
    },
    {
      "channel": 5,
      "note": 48,
      "start": 31.5223,
      "duration": 0.2254,
      "velocity": 127,
      "chip": "ym2612"
    },
    {
      "channel": 0,
      "note": 69,
      "start": 31.632,
      "duration": 0.0826,
      "velocity": 107,
      "chip": "ym2612"
    },
    {
      "channel": 4,
      "note": 50,
      "start": 31.6336,
      "duration": 0.1819,
      "velocity": 97,
      "chip": "ym2612"
    },
    {
      "channel": 1,
      "note": 70,
      "start": 31.6823,
      "duration": 0.0828,
      "velocity": 107,
      "chip": "ym2612"
    },
    {
      "channel": 5,
      "note": 57,
      "start": 31.7549,
      "duration": 0.1096,
      "velocity": 115,
      "chip": "ym2612"
    },
    {
      "channel": 1,
      "note": 69,
      "start": 31.7991,
      "duration": 0.0824,
      "velocity": 107,
      "chip": "ym2612"
    },
    {
      "channel": 0,
      "note": 69,
      "start": 31.8678,
      "duration": 0.1801,
      "velocity": 107,
      "chip": "ym2612"
    },
    {
      "channel": 4,
      "note": 50,
      "start": 31.8693,
      "duration": 0.0795,
      "velocity": 97,
      "chip": "ym2612"
    },
    {
      "channel": 5,
      "note": 56,
      "start": 31.8727,
      "duration": 0.1085,
      "velocity": 117,
      "chip": "ym2612"
    },
    {
      "channel": 5,
      "note": 57,
      "start": 31.9885,
      "duration": 0.0926,
      "velocity": 115,
      "chip": "ym2612"
    },
    {
      "channel": 1,
      "note": 69,
      "start": 32.0325,
      "duration": 0.1823,
      "velocity": 107,
      "chip": "ym2612"
    },
    {
      "channel": 0,
      "note": 74,
      "start": 32.0843,
      "duration": 0.1803,
      "velocity": 107,
      "chip": "ym2612"
    },
    {
      "channel": 4,
      "note": 62,
      "start": 32.0857,
      "duration": 0.08,
      "velocity": 97,
      "chip": "ym2612"
    },
    {
      "channel": 5,
      "note": 56,
      "start": 32.0891,
      "duration": 0.1088,
      "velocity": 117,
      "chip": "ym2612"
    },
    {
      "channel": 5,
      "note": 57,
      "start": 32.2051,
      "duration": 0.1094,
      "velocity": 115,
      "chip": "ym2612"
    },
    {
      "channel": 1,
      "note": 74,
      "start": 32.2654,
      "duration": 0.1829,
      "velocity": 107,
      "chip": "ym2612"
    },
    {
      "channel": 0,
      "note": 76,
      "start": 32.3178,
      "duration": 0.0801,
      "velocity": 107,
      "chip": "ym2612"
    },
    {
      "channel": 4,
      "note": 50,
      "start": 32.3193,
      "duration": 0.0795,
      "velocity": 97,
      "chip": "ym2612"
    },
    {
      "channel": 5,
      "note": 56,
      "start": 32.3226,
      "duration": 0.1086,
      "velocity": 117,
      "chip": "ym2612"
    },
    {
      "channel": 0,
      "note": 77,
      "start": 32.4345,
      "duration": 0.1799,
      "velocity": 107,
      "chip": "ym2612"
    },
    {
      "channel": 4,
      "note": 62,
      "start": 32.4361,
      "duration": 0.1791,
      "velocity": 97,
      "chip": "ym2612"
    },
    {
      "channel": 5,
      "note": 48,
      "start": 32.4395,
      "duration": 0.2251,
      "velocity": 127,
      "chip": "ym2612"
    },
    {
      "channel": 1,
      "note": 76,
      "start": 32.4823,
      "duration": 0.0828,
      "velocity": 107,
      "chip": "ym2612"
    },
    {
      "channel": 1,
      "note": 77,
      "start": 32.5992,
      "duration": 0.1854,
      "velocity": 107,
      "chip": "ym2612"
    },
    {
      "channel": 0,
      "note": 76,
      "start": 32.6678,
      "duration": 0.0799,
      "velocity": 107,
      "chip": "ym2612"
    },
    {
      "channel": 4,
      "note": 62,
      "start": 32.6693,
      "duration": 0.1797,
      "velocity": 97,
      "chip": "ym2612"
    },
    {
      "channel": 5,
      "note": 57,
      "start": 32.6726,
      "duration": 0.1086,
      "velocity": 115,
      "chip": "ym2612"
    },
    {
      "channel": 0,
      "note": 77,
      "start": 32.7844,
      "duration": 0.0802,
      "velocity": 107,
      "chip": "ym2612"
    },
    {
      "channel": 5,
      "note": 57,
      "start": 32.7885,
      "duration": 0.0926,
      "velocity": 115,
      "chip": "ym2612"
    },
    {
      "channel": 1,
      "note": 76,
      "start": 32.8325,
      "duration": 0.0826,
      "velocity": 107,
      "chip": "ym2612"
    },
    {
      "channel": 0,
      "note": 79,
      "start": 32.8844,
      "duration": 0.1802,
      "velocity": 107,
      "chip": "ym2612"
    },
    {
      "channel": 4,
      "note": 48,
      "start": 32.8864,
      "duration": 0.0793,
      "velocity": 97,
      "chip": "ym2612"
    },
    {
      "channel": 5,
      "note": 56,
      "start": 32.8897,
      "duration": 0.1081,
      "velocity": 117,
      "chip": "ym2612"
    },
    {
      "channel": 1,
      "note": 77,
      "start": 32.9489,
      "duration": 0.0829,
      "velocity": 107,
      "chip": "ym2612"
    },
    {
      "channel": 4,
      "note": 60,
      "start": 33.0021,
      "duration": 0.08,
      "velocity": 97,
      "chip": "ym2612"
    },
    {
      "channel": 5,
      "note": 57,
      "start": 33.0055,
      "duration": 0.109,
      "velocity": 115,
      "chip": "ym2612"
    },
    {
      "channel": 1,
      "note": 79,
      "start": 33.0656,
      "duration": 0.1828,
      "velocity": 107,
      "chip": "ym2612"
    },
    {
      "channel": 0,
      "note": 77,
      "start": 33.1177,
      "duration": 0.1803,
      "velocity": 107,
      "chip": "ym2612"
    },
    {
      "channel": 4,
      "note": 60,
      "start": 33.1192,
      "duration": 0.0798,
      "velocity": 97,
      "chip": "ym2612"
    },
    {
      "channel": 5,
      "note": 57,
      "start": 33.1226,
      "duration": 0.1086,
      "velocity": 115,
      "chip": "ym2612"
    },
    {
      "channel": 4,
      "note": 48,
      "start": 33.2355,
      "duration": 0.0802,
      "velocity": 97,
      "chip": "ym2612"
    },
    {
      "channel": 5,
      "note": 57,
      "start": 33.2389,
      "duration": 0.1088,
      "velocity": 115,
      "chip": "ym2612"
    },
    {
      "channel": 1,
      "note": 77,
      "start": 33.2823,
      "duration": 0.1832,
      "velocity": 107,
      "chip": "ym2612"
    },
    {
      "channel": 0,
      "note": 76,
      "start": 33.3511,
      "duration": 0.0803,
      "velocity": 107,
      "chip": "ym2612"
    },
    {
      "channel": 5,
      "note": 48,
      "start": 33.3555,
      "duration": 0.2257,
      "velocity": 127,
      "chip": "ym2612"
    },
    {
      "channel": 0,
      "note": 74,
      "start": 33.4653,
      "duration": 0.0824,
      "velocity": 107,
      "chip": "ym2612"
    },
    {
      "channel": 4,
      "note": 48,
      "start": 33.4665,
      "duration": 0.1825,
      "velocity": 97,
      "chip": "ym2612"
    },
    {
      "channel": 1,
      "note": 76,
      "start": 33.5158,
      "duration": 0.0826,
      "velocity": 107,
      "chip": "ym2612"
    },
    {
      "channel": 5,
      "note": 56,
      "start": 33.5885,
      "duration": 0.0926,
      "velocity": 117,
      "chip": "ym2612"
    },
    {
      "channel": 1,
      "note": 74,
      "start": 33.6324,
      "duration": 0.0826,
      "velocity": 107,
      "chip": "ym2612"
    },
    {
      "channel": 0,
      "note": 72,
      "start": 33.6844,
      "duration": 0.6634,
      "velocity": 107,
      "chip": "ym2612"
    },
    {
      "channel": 4,
      "note": 48,
      "start": 33.6859,
      "duration": 0.0798,
      "velocity": 97,
      "chip": "ym2612"
    },
    {
      "channel": 5,
      "note": 56,
      "start": 33.6892,
      "duration": 0.1086,
      "velocity": 117,
      "chip": "ym2612"
    },
    {
      "channel": 5,
      "note": 57,
      "start": 33.8051,
      "duration": 0.076,
      "velocity": 115,
      "chip": "ym2612"
    },
    {
      "channel": 1,
      "note": 72,
      "start": 33.8658,
      "duration": 0.6659,
      "velocity": 107,
      "chip": "ym2612"
    },
    {
      "channel": 5,
      "note": 57,
      "start": 33.8883,
      "duration": 0.0595,
      "velocity": 115,
      "chip": "ym2612"
    },
    {
      "channel": 4,
      "note": 60,
      "start": 33.9164,
      "duration": 0.0826,
      "velocity": 97,
      "chip": "ym2612"
    },
    {
      "channel": 5,
      "note": 57,
      "start": 33.9549,
      "duration": 0.0763,
      "velocity": 115,
      "chip": "ym2612"
    },
    {
      "channel": 5,
      "note": 57,
      "start": 34.0385,
      "duration": 0.1092,
      "velocity": 115,
      "chip": "ym2612"
    },
    {
      "channel": 4,
      "note": 48,
      "start": 34.152,
      "duration": 0.0805,
      "velocity": 97,
      "chip": "ym2612"
    },
    {
      "channel": 5,
      "note": 56,
      "start": 34.1553,
      "duration": 0.1092,
      "velocity": 117,
      "chip": "ym2612"
    },
    {
      "channel": 4,
      "note": 60,
      "start": 34.2689,
      "duration": 0.1801,
      "velocity": 97,
      "chip": "ym2612"
    },
    {
      "channel": 5,
      "note": 48,
      "start": 34.2723,
      "duration": 0.2088,
      "velocity": 127,
      "chip": "ym2612"
    },
    {
      "channel": 0,
      "note": 67,
      "start": 34.4844,
      "duration": 0.0802,
      "velocity": 107,
      "chip": "ym2612"
    },
    {
      "channel": 4,
      "note": 60,
      "start": 34.4859,
      "duration": 0.0795,
      "velocity": 97,
      "chip": "ym2612"
    },
    {
      "channel": 5,
      "note": 56,
      "start": 34.4892,
      "duration": 0.1086,
      "velocity": 117,
      "chip": "ym2612"
    },
    {
      "channel": 0,
      "note": 69,
      "start": 34.6011,
      "duration": 0.08,
      "velocity": 107,
      "chip": "ym2612"
    },
    {
      "channel": 4,
      "note": 58,
      "start": 34.6025,
      "duration": 0.0793,
      "velocity": 97,
      "chip": "ym2612"
    },
    {
      "channel": 5,
      "note": 57,
      "start": 34.6059,
      "duration": 0.1089,
      "velocity": 115,
      "chip": "ym2612"
    },
    {
      "channel": 1,
      "note": 67,
      "start": 34.6658,
      "duration": 0.0824,
      "velocity": 107,
      "chip": "ym2612"
    },
    {
      "channel": 0,
      "note": 70,
      "start": 34.718,
      "duration": 0.08,
      "velocity": 107,
      "chip": "ym2612"
    },
    {
      "channel": 4,
      "note": 57,
      "start": 34.7201,
      "duration": 0.0786,
      "velocity": 97,
      "chip": "ym2612"
    },
    {
      "channel": 5,
      "note": 56,
      "start": 34.7234,
      "duration": 0.1078,
      "velocity": 117,
      "chip": "ym2612"
    },
    {
      "channel": 1,
      "note": 69,
      "start": 34.7824,
      "duration": 0.0826,
      "velocity": 107,
      "chip": "ym2612"
    },
    {
      "channel": 0,
      "note": 69,
      "start": 34.8344,
      "duration": 0.0802,
      "velocity": 107,
      "chip": "ym2612"
    },
    {
      "channel": 4,
      "note": 69,
      "start": 34.8359,
      "duration": 0.0795,
      "velocity": 97,
      "chip": "ym2612"
    },
    {
      "channel": 5,
      "note": 57,
      "start": 34.8392,
      "duration": 0.1085,
      "velocity": 115,
      "chip": "ym2612"
    },
    {
      "channel": 1,
      "note": 70,
      "start": 34.8822,
      "duration": 0.0828,
      "velocity": 107,
      "chip": "ym2612"
    },
    {
      "channel": 0,
      "note": 70,
      "start": 34.9509,
      "duration": 0.0805,
      "velocity": 107,
      "chip": "ym2612"
    },
    {
      "channel": 4,
      "note": 69,
      "start": 34.9524,
      "duration": 0.0798,
      "velocity": 97,
      "chip": "ym2612"
    },
    {
      "channel": 5,
      "note": 57,
      "start": 34.9558,
      "duration": 0.1088,
      "velocity": 115,
      "chip": "ym2612"
    },
    {
      "channel": 1,
      "note": 69,
      "start": 34.9991,
      "duration": 0.0824,
      "velocity": 107,
      "chip": "ym2612"
    },
    {
      "channel": 0,
      "note": 72,
      "start": 35.0678,
      "duration": 0.08,
      "velocity": 107,
      "chip": "ym2612"
    },
    {
      "channel": 4,
      "note": 57,
      "start": 35.0692,
      "duration": 0.0793,
      "velocity": 97,
      "chip": "ym2612"
    },
    {
      "channel": 5,
      "note": 56,
      "start": 35.0726,
      "duration": 0.1086,
      "velocity": 117,
      "chip": "ym2612"
    },
    {
      "channel": 1,
      "note": 70,
      "start": 35.1158,
      "duration": 0.0826,
      "velocity": 107,
      "chip": "ym2612"
    },
    {
      "channel": 5,
      "note": 48,
      "start": 35.1885,
      "duration": 0.2094,
      "velocity": 127,
      "chip": "ym2612"
    },
    {
      "channel": 1,
      "note": 72,
      "start": 35.2324,
      "duration": 0.0826,
      "velocity": 107,
      "chip": "ym2612"
    },
    {
      "channel": 0,
      "note": 70,
      "start": 35.2818,
      "duration": 0.0828,
      "velocity": 107,
      "chip": "ym2612"
    },
    {
      "channel": 4,
      "note": 57,
      "start": 35.2833,
      "duration": 0.1828,
      "velocity": 97,
      "chip": "ym2612"
    },
    {
      "channel": 0,
      "note": 69,
      "start": 35.4011,
      "duration": 0.08,
      "velocity": 107,
      "chip": "ym2612"
    },
    {
      "channel": 5,
      "note": 57,
      "start": 35.4055,
      "duration": 0.109,
      "velocity": 115,
      "chip": "ym2612"
    },
    {
      "channel": 1,
      "note": 70,
      "start": 35.4658,
      "duration": 0.0824,
      "velocity": 107,
      "chip": "ym2612"
    },
    {
      "channel": 0,
      "note": 72,
      "start": 35.5177,
      "duration": 0.0802,
      "velocity": 107,
      "chip": "ym2612"
    },
    {
      "channel": 4,
      "note": 57,
      "start": 35.5193,
      "duration": 0.0795,
      "velocity": 97,
      "chip": "ym2612"
    },
    {
      "channel": 5,
      "note": 56,
      "start": 35.5226,
      "duration": 0.1086,
      "velocity": 117,
      "chip": "ym2612"
    },
    {
      "channel": 1,
      "note": 69,
      "start": 35.5824,
      "duration": 0.0826,
      "velocity": 107,
      "chip": "ym2612"
    },
    {
      "channel": 0,
      "note": 76,
      "start": 35.6345,
      "duration": 0.1799,
      "velocity": 107,
      "chip": "ym2612"
    },
    {
      "channel": 5,
      "note": 57,
      "start": 35.6389,
      "duration": 0.1088,
      "velocity": 115,
      "chip": "ym2612"
    },
    {
      "channel": 1,
      "note": 72,
      "start": 35.6822,
      "duration": 0.0828,
      "velocity": 107,
      "chip": "ym2612"
    },
    {
      "channel": 4,
      "note": 57,
      "start": 35.752,
      "duration": 0.0804,
      "velocity": 97,
      "chip": "ym2612"
    },
    {
      "channel": 5,
      "note": 56,
      "start": 35.7553,
      "duration": 0.1092,
      "velocity": 117,
      "chip": "ym2612"
    },
    {
      "channel": 1,
      "note": 76,
      "start": 35.7992,
      "duration": 0.185,
      "velocity": 107,
      "chip": "ym2612"
    },
    {
      "channel": 0,
      "note": 77,
      "start": 35.8677,
      "duration": 0.1802,
      "velocity": 107,
      "chip": "ym2612"
    },
    {
      "channel": 5,
      "note": 57,
      "start": 35.8722,
      "duration": 0.109,
      "velocity": 115,
      "chip": "ym2612"
    },
    {
      "channel": 4,
      "note": 57,
      "start": 35.9852,
      "duration": 0.0805,
      "velocity": 97,
      "chip": "ym2612"
    },
    {
      "channel": 5,
      "note": 56,
      "start": 35.9885,
      "duration": 0.0926,
      "velocity": 117,
      "chip": "ym2612"
    },
    {
      "channel": 1,
      "note": 77,
      "start": 36.0325,
      "duration": 0.1824,
      "velocity": 107,
      "chip": "ym2612"
    },
    {
      "channel": 0,
      "note": 79,
      "start": 36.0843,
      "duration": 0.1803,
      "velocity": 107,
      "chip": "ym2612"
    },
    {
      "channel": 4,
      "note": 69,
      "start": 36.0859,
      "duration": 0.1799,
      "velocity": 97,
      "chip": "ym2612"
    },
    {
      "channel": 5,
      "note": 48,
      "start": 36.0892,
      "duration": 0.2253,
      "velocity": 127,
      "chip": "ym2612"
    },
    {
      "channel": 1,
      "note": 79,
      "start": 36.2654,
      "duration": 0.1829,
      "velocity": 107,
      "chip": "ym2612"
    },
    {
      "channel": 0,
      "note": 72,
      "start": 36.3178,
      "duration": 0.0801,
      "velocity": 107,
      "chip": "ym2612"
    },
    {
      "channel": 4,
      "note": 57,
      "start": 36.3194,
      "duration": 0.0793,
      "velocity": 97,
      "chip": "ym2612"
    },
    {
      "channel": 5,
      "note": 57,
      "start": 36.3227,
      "duration": 0.1085,
      "velocity": 115,
      "chip": "ym2612"
    },
    {
      "channel": 0,
      "note": 74,
      "start": 36.4345,
      "duration": 1.4826,
      "velocity": 107,
      "chip": "ym2612"
    },
    {
      "channel": 4,
      "note": 58,
      "start": 36.4361,
      "duration": 0.2321,
      "velocity": 97,
      "chip": "ym2612"
    },
    {
      "channel": 5,
      "note": 56,
      "start": 36.4394,
      "duration": 0.1083,
      "velocity": 117,
      "chip": "ym2612"
    },
    {
      "channel": 1,
      "note": 72,
      "start": 36.4823,
      "duration": 0.0828,
      "velocity": 107,
      "chip": "ym2612"
    },
    {
      "channel": 5,
      "note": 57,
      "start": 36.5563,
      "duration": 0.1082,
      "velocity": 115,
      "chip": "ym2612"
    },
    {
      "channel": 1,
      "note": 74,
      "start": 36.5992,
      "duration": 1.4824,
      "velocity": 107,
      "chip": "ym2612"
    },
    {
      "channel": 4,
      "note": 70,
      "start": 36.6689,
      "duration": 0.08,
      "velocity": 97,
      "chip": "ym2612"
    },
    {
      "channel": 5,
      "note": 57,
      "start": 36.6722,
      "duration": 0.109,
      "velocity": 115,
      "chip": "ym2612"
    },
    {
      "channel": 4,
      "note": 70,
      "start": 36.7855,
      "duration": 0.0803,
      "velocity": 97,
      "chip": "ym2612"
    },
    {
      "channel": 5,
      "note": 57,
      "start": 36.7888,
      "duration": 0.0922,
      "velocity": 115,
      "chip": "ym2612"
    },
    {
      "channel": 4,
      "note": 58,
      "start": 36.8854,
      "duration": 0.0803,
      "velocity": 97,
      "chip": "ym2612"
    },
    {
      "channel": 5,
      "note": 56,
      "start": 36.8887,
      "duration": 0.1092,
      "velocity": 117,
      "chip": "ym2612"
    },
    {
      "channel": 5,
      "note": 48,
      "start": 37.0052,
      "duration": 0.226,
      "velocity": 127,
      "chip": "ym2612"
    },
    {
      "channel": 4,
      "note": 46,
      "start": 37.1165,
      "duration": 0.1827,
      "velocity": 97,
      "chip": "ym2612"
    },
    {
      "channel": 5,
      "note": 56,
      "start": 37.2385,
      "duration": 0.1092,
      "velocity": 117,
      "chip": "ym2612"
    },
    {
      "channel": 4,
      "note": 48,
      "start": 37.3517,
      "duration": 0.0808,
      "velocity": 97,
      "chip": "ym2612"
    },
    {
      "channel": 5,
      "note": 56,
      "start": 37.3551,
      "duration": 0.1095,
      "velocity": 117,
      "chip": "ym2612"
    },
    {
      "channel": 5,
      "note": 57,
      "start": 37.4718,
      "duration": 0.0594,
      "velocity": 115,
      "chip": "ym2612"
    },
    {
      "channel": 5,
      "note": 57,
      "start": 37.5385,
      "duration": 0.076,
      "velocity": 115,
      "chip": "ym2612"
    },
    {
      "channel": 4,
      "note": 60,
      "start": 37.5831,
      "duration": 0.0826,
      "velocity": 97,
      "chip": "ym2612"
    },
    {
      "channel": 5,
      "note": 57,
      "start": 37.6217,
      "duration": 0.0594,
      "velocity": 115,
      "chip": "ym2612"
    },
    {
      "channel": 5,
      "note": 57,
      "start": 37.6883,
      "duration": 0.1095,
      "velocity": 115,
      "chip": "ym2612"
    },
    {
      "channel": 4,
      "note": 48,
      "start": 37.8021,
      "duration": 0.08,
      "velocity": 97,
      "chip": "ym2612"
    },
    {
      "channel": 5,
      "note": 56,
      "start": 37.8054,
      "duration": 0.1091,
      "velocity": 117,
      "chip": "ym2612"
    },
    {
      "channel": 0,
      "note": 74,
      "start": 37.9178,
      "duration": 0.0801,
      "velocity": 107,
      "chip": "ym2612"
    },
    {
      "channel": 4,
      "note": 60,
      "start": 37.9194,
      "duration": 0.1797,
      "velocity": 97,
      "chip": "ym2612"
    },
    {
      "channel": 5,
      "note": 48,
      "start": 37.9228,
      "duration": 0.1084,
      "velocity": 127,
      "chip": "ym2612"
    },
    {
      "channel": 0,
      "note": 76,
      "start": 38.0344,
      "duration": 0.0802,
      "velocity": 107,
      "chip": "ym2612"
    },
    {
      "channel": 5,
      "note": 48,
      "start": 38.0388,
      "duration": 0.2257,
      "velocity": 127,
      "chip": "ym2612"
    },
    {
      "channel": 1,
      "note": 74,
      "start": 38.0823,
      "duration": 0.0828,
      "velocity": 107,
      "chip": "ym2612"
    },
    {
      "channel": 0,
      "note": 77,
      "start": 38.1485,
      "duration": 0.0829,
      "velocity": 107,
      "chip": "ym2612"
    },
    {
      "channel": 4,
      "note": 60,
      "start": 38.1499,
      "duration": 0.1824,
      "velocity": 97,
      "chip": "ym2612"
    },
    {
      "channel": 1,
      "note": 76,
      "start": 38.1991,
      "duration": 0.0824,
      "velocity": 107,
      "chip": "ym2612"
    },
    {
      "channel": 0,
      "note": 72,
      "start": 38.2678,
      "duration": 0.08,
      "velocity": 107,
      "chip": "ym2612"
    },
    {
      "channel": 5,
      "note": 44,
      "start": 38.2722,
      "duration": 0.1093,
      "velocity": 122,
      "chip": "ym2612"
    },
    {
      "channel": 1,
      "note": 77,
      "start": 38.3158,
      "duration": 0.0838,
      "velocity": 107,
      "chip": "ym2612"
    },
    {
      "channel": 0,
      "note": 74,
      "start": 38.3848,
      "duration": 0.1798,
      "velocity": 107,
      "chip": "ym2612"
    },
    {
      "channel": 2,
      "note": 74,
      "start": 38.3884,
      "duration": 0.3602,
      "velocity": 97,
      "chip": "ym2612"
    },
    {
      "channel": 3,
      "note": 69,
      "start": 38.3916,
      "duration": 0.3571,
      "velocity": 97,
      "chip": "ym2612"
    },
    {
      "channel": 4,
      "note": 50,
      "start": 38.3927,
      "duration": 0.0737,
      "velocity": 97,
      "chip": "ym2612"
    },
    {
      "channel": 5,
      "note": 56,
      "start": 38.396,
      "duration": 0.0851,
      "velocity": 117,
      "chip": "ym2612"
    },
    {
      "channel": 1,
      "note": 72,
      "start": 38.4324,
      "duration": 0.0826,
      "velocity": 107,
      "chip": "ym2612"
    },
    {
      "channel": 4,
      "note": 62,
      "start": 38.4861,
      "duration": 0.08,
      "velocity": 97,
      "chip": "ym2612"
    },
    {
      "channel": 5,
      "note": 57,
      "start": 38.4894,
      "duration": 0.1085,
      "velocity": 115,
      "chip": "ym2612"
    },
    {
      "channel": 1,
      "note": 74,
      "start": 38.549,
      "duration": 0.1827,
      "velocity": 107,
      "chip": "ym2612"
    },
    {
      "channel": 0,
      "note": 72,
      "start": 38.6011,
      "duration": 0.1802,
      "velocity": 107,
      "chip": "ym2612"
    },
    {
      "channel": 4,
      "note": 62,
      "start": 38.6032,
      "duration": 0.0798,
      "velocity": 97,
      "chip": "ym2612"
    },
    {
      "channel": 5,
      "note": 57,
      "start": 38.6066,
      "duration": 0.1079,
      "velocity": 115,
      "chip": "ym2612"
    },
    {
      "channel": 4,
      "note": 50,
      "start": 38.7196,
      "duration": 0.0801,
      "velocity": 97,
      "chip": "ym2612"
    },
    {
      "channel": 5,
      "note": 56,
      "start": 38.7229,
      "duration": 0.1083,
      "velocity": 117,
      "chip": "ym2612"
    },
    {
      "channel": 1,
      "note": 72,
      "start": 38.7821,
      "duration": 0.1829,
      "velocity": 107,
      "chip": "ym2612"
    },
    {
      "channel": 0,
      "note": 70,
      "start": 38.8345,
      "duration": 0.0801,
      "velocity": 107,
      "chip": "ym2612"
    },
    {
      "channel": 2,
      "note": 77,
      "start": 38.8358,
      "duration": 0.3627,
      "velocity": 97,
      "chip": "ym2612"
    },
    {
      "channel": 3,
      "note": 74,
      "start": 38.8366,
      "duration": 0.3621,
      "velocity": 97,
      "chip": "ym2612"
    },
    {
      "channel": 5,
      "note": 48,
      "start": 38.8404,
      "duration": 0.2241,
      "velocity": 127,
      "chip": "ym2612"
    },
    {
      "channel": 0,
      "note": 69,
      "start": 38.9485,
      "duration": 0.0829,
      "velocity": 107,
      "chip": "ym2612"
    },
    {
      "channel": 4,
      "note": 50,
      "start": 38.9508,
      "duration": 0.1824,
      "velocity": 97,
      "chip": "ym2612"
    },
    {
      "channel": 1,
      "note": 70,
      "start": 38.9991,
      "duration": 0.0824,
      "velocity": 107,
      "chip": "ym2612"
    },
    {
      "channel": 5,
      "note": 57,
      "start": 39.0726,
      "duration": 0.1086,
      "velocity": 115,
      "chip": "ym2612"
    },
    {
      "channel": 1,
      "note": 69,
      "start": 39.1158,
      "duration": 0.0826,
      "velocity": 107,
      "chip": "ym2612"
    },
    {
      "channel": 0,
      "note": 69,
      "start": 39.1845,
      "duration": 0.1801,
      "velocity": 107,
      "chip": "ym2612"
    },
    {
      "channel": 4,
      "note": 50,
      "start": 39.1867,
      "duration": 0.0796,
      "velocity": 97,
      "chip": "ym2612"
    },
    {
      "channel": 5,
      "note": 56,
      "start": 39.19,
      "duration": 0.091,
      "velocity": 117,
      "chip": "ym2612"
    },
    {
      "channel": 2,
      "note": 69,
      "start": 39.2851,
      "duration": 0.3637,
      "velocity": 97,
      "chip": "ym2612"
    },
    {
      "channel": 3,
      "note": 65,
      "start": 39.286,
      "duration": 0.363,
      "velocity": 97,
      "chip": "ym2612"
    },
    {
      "channel": 5,
      "note": 57,
      "start": 39.2898,
      "duration": 0.1081,
      "velocity": 115,
      "chip": "ym2612"
    },
    {
      "channel": 1,
      "note": 69,
      "start": 39.349,
      "duration": 0.1827,
      "velocity": 107,
      "chip": "ym2612"
    },
    {
      "channel": 0,
      "note": 74,
      "start": 39.4011,
      "duration": 0.1802,
      "velocity": 107,
      "chip": "ym2612"
    },
    {
      "channel": 4,
      "note": 62,
      "start": 39.4033,
      "duration": 0.0796,
      "velocity": 97,
      "chip": "ym2612"
    },
    {
      "channel": 5,
      "note": 56,
      "start": 39.4066,
      "duration": 0.1079,
      "velocity": 117,
      "chip": "ym2612"
    },
    {
      "channel": 5,
      "note": 57,
      "start": 39.5226,
      "duration": 0.1086,
      "velocity": 115,
      "chip": "ym2612"
    },
    {
      "channel": 1,
      "note": 74,
      "start": 39.5821,
      "duration": 0.1829,
      "velocity": 107,
      "chip": "ym2612"
    },
    {
      "channel": 0,
      "note": 76,
      "start": 39.6345,
      "duration": 0.0801,
      "velocity": 107,
      "chip": "ym2612"
    },
    {
      "channel": 4,
      "note": 50,
      "start": 39.6367,
      "duration": 0.0794,
      "velocity": 97,
      "chip": "ym2612"
    },
    {
      "channel": 5,
      "note": 56,
      "start": 39.64,
      "duration": 0.1078,
      "velocity": 117,
      "chip": "ym2612"
    },
    {
      "channel": 0,
      "note": 77,
      "start": 39.7511,
      "duration": 0.1802,
      "velocity": 107,
      "chip": "ym2612"
    },
    {
      "channel": 2,
      "note": 77,
      "start": 39.7524,
      "duration": 0.3631,
      "velocity": 97,
      "chip": "ym2612"
    },
    {
      "channel": 3,
      "note": 74,
      "start": 39.7532,
      "duration": 0.3624,
      "velocity": 97,
      "chip": "ym2612"
    },
    {
      "channel": 4,
      "note": 62,
      "start": 39.7541,
      "duration": 0.1786,
      "velocity": 97,
      "chip": "ym2612"
    },
    {
      "channel": 5,
      "note": 48,
      "start": 39.7576,
      "duration": 0.2237,
      "velocity": 127,
      "chip": "ym2612"
    },
    {
      "channel": 1,
      "note": 76,
      "start": 39.7991,
      "duration": 0.0824,
      "velocity": 107,
      "chip": "ym2612"
    },
    {
      "channel": 1,
      "note": 77,
      "start": 39.9159,
      "duration": 0.1826,
      "velocity": 107,
      "chip": "ym2612"
    },
    {
      "channel": 0,
      "note": 76,
      "start": 39.9845,
      "duration": 0.0801,
      "velocity": 107,
      "chip": "ym2612"
    },
    {
      "channel": 4,
      "note": 62,
      "start": 39.9867,
      "duration": 0.1793,
      "velocity": 97,
      "chip": "ym2612"
    },
    {
      "channel": 5,
      "note": 57,
      "start": 39.9901,
      "duration": 0.091,
      "velocity": 115,
      "chip": "ym2612"
    },
    {
      "channel": 0,
      "note": 77,
      "start": 40.0843,
      "duration": 0.0803,
      "velocity": 107,
      "chip": "ym2612"
    },
    {
      "channel": 5,
      "note": 57,
      "start": 40.0895,
      "duration": 0.1084,
      "velocity": 115,
      "chip": "ym2612"
    },
    {
      "channel": 1,
      "note": 76,
      "start": 40.149,
      "duration": 0.0829,
      "velocity": 107,
      "chip": "ym2612"
    },
    {
      "channel": 0,
      "note": 79,
      "start": 40.2012,
      "duration": 0.1801,
      "velocity": 107,
      "chip": "ym2612"
    },
    {
      "channel": 2,
      "note": 79,
      "start": 40.2024,
      "duration": 0.3627,
      "velocity": 97,
      "chip": "ym2612"
    },
    {
      "channel": 3,
      "note": 76,
      "start": 40.2033,
      "duration": 0.3621,
      "velocity": 97,
      "chip": "ym2612"
    },
    {
      "channel": 4,
      "note": 48,
      "start": 40.2042,
      "duration": 0.0787,
      "velocity": 97,
      "chip": "ym2612"
    },
    {
      "channel": 5,
      "note": 56,
      "start": 40.2076,
      "duration": 0.107,
      "velocity": 117,
      "chip": "ym2612"
    },
    {
      "channel": 1,
      "note": 77,
      "start": 40.2658,
      "duration": 0.0824,
      "velocity": 107,
      "chip": "ym2612"
    },
    {
      "channel": 4,
      "note": 60,
      "start": 40.3196,
      "duration": 0.0802,
      "velocity": 97,
      "chip": "ym2612"
    },
    {
      "channel": 5,
      "note": 57,
      "start": 40.3229,
      "duration": 0.1083,
      "velocity": 115,
      "chip": "ym2612"
    },
    {
      "channel": 1,
      "note": 79,
      "start": 40.3822,
      "duration": 0.1828,
      "velocity": 107,
      "chip": "ym2612"
    },
    {
      "channel": 0,
      "note": 77,
      "start": 40.4344,
      "duration": 0.18,
      "velocity": 107,
      "chip": "ym2612"
    },
    {
      "channel": 4,
      "note": 60,
      "start": 40.4367,
      "duration": 0.0797,
      "velocity": 97,
      "chip": "ym2612"
    },
    {
      "channel": 5,
      "note": 57,
      "start": 40.44,
      "duration": 0.1077,
      "velocity": 115,
      "chip": "ym2612"
    },
    {
      "channel": 4,
      "note": 48,
      "start": 40.5528,
      "duration": 0.0804,
      "velocity": 97,
      "chip": "ym2612"
    },
    {
      "channel": 5,
      "note": 57,
      "start": 40.5561,
      "duration": 0.1084,
      "velocity": 115,
      "chip": "ym2612"
    },
    {
      "channel": 1,
      "note": 77,
      "start": 40.5991,
      "duration": 0.183,
      "velocity": 107,
      "chip": "ym2612"
    },
    {
      "channel": 0,
      "note": 76,
      "start": 40.6678,
      "duration": 0.0799,
      "velocity": 107,
      "chip": "ym2612"
    },
    {
      "channel": 2,
      "note": 77,
      "start": 40.6691,
      "duration": 0.3629,
      "velocity": 97,
      "chip": "ym2612"
    },
    {
      "channel": 3,
      "note": 74,
      "start": 40.67,
      "duration": 0.3622,
      "velocity": 97,
      "chip": "ym2612"
    },
    {
      "channel": 5,
      "note": 48,
      "start": 40.6738,
      "duration": 0.2073,
      "velocity": 127,
      "chip": "ym2612"
    },
    {
      "channel": 0,
      "note": 74,
      "start": 40.782,
      "duration": 0.0826,
      "velocity": 107,
      "chip": "ym2612"
    },
    {
      "channel": 4,
      "note": 48,
      "start": 40.7839,
      "duration": 0.1826,
      "velocity": 97,
      "chip": "ym2612"
    },
    {
      "channel": 1,
      "note": 76,
      "start": 40.8325,
      "duration": 0.0826,
      "velocity": 107,
      "chip": "ym2612"
    },
    {
      "channel": 5,
      "note": 56,
      "start": 40.889,
      "duration": 0.1089,
      "velocity": 117,
      "chip": "ym2612"
    },
    {
      "channel": 1,
      "note": 74,
      "start": 40.9489,
      "duration": 0.0829,
      "velocity": 107,
      "chip": "ym2612"
    },
    {
      "channel": 0,
      "note": 72,
      "start": 41.0012,
      "duration": 0.6634,
      "velocity": 107,
      "chip": "ym2612"
    },
    {
      "channel": 4,
      "note": 48,
      "start": 41.0034,
      "duration": 0.0795,
      "velocity": 97,
      "chip": "ym2612"
    },
    {
      "channel": 5,
      "note": 56,
      "start": 41.0068,
      "duration": 0.1078,
      "velocity": 117,
      "chip": "ym2612"
    },
    {
      "channel": 2,
      "note": 76,
      "start": 41.1186,
      "duration": 0.3634,
      "velocity": 97,
      "chip": "ym2612"
    },
    {
      "channel": 3,
      "note": 72,
      "start": 41.1195,
      "duration": 0.3627,
      "velocity": 97,
      "chip": "ym2612"
    },
    {
      "channel": 5,
      "note": 57,
      "start": 41.1233,
      "duration": 0.0746,
      "velocity": 115,
      "chip": "ym2612"
    },
    {
      "channel": 1,
      "note": 72,
      "start": 41.1825,
      "duration": 0.6659,
      "velocity": 107,
      "chip": "ym2612"
    },
    {
      "channel": 5,
      "note": 57,
      "start": 41.2058,
      "duration": 0.0587,
      "velocity": 115,
      "chip": "ym2612"
    },
    {
      "channel": 4,
      "note": 60,
      "start": 41.2338,
      "duration": 0.0826,
      "velocity": 97,
      "chip": "ym2612"
    },
    {
      "channel": 5,
      "note": 57,
      "start": 41.2725,
      "duration": 0.0753,
      "velocity": 115,
      "chip": "ym2612"
    },
    {
      "channel": 5,
      "note": 57,
      "start": 41.3558,
      "duration": 0.1087,
      "velocity": 115,
      "chip": "ym2612"
    },
    {
      "channel": 4,
      "note": 48,
      "start": 41.4695,
      "duration": 0.08,
      "velocity": 97,
      "chip": "ym2612"
    },
    {
      "channel": 5,
      "note": 56,
      "start": 41.4729,
      "duration": 0.1083,
      "velocity": 117,
      "chip": "ym2612"
    },
    {
      "channel": 2,
      "note": 72,
      "start": 41.5854,
      "duration": 0.3633,
      "velocity": 97,
      "chip": "ym2612"
    },
    {
      "channel": 3,
      "note": 67,
      "start": 41.5862,
      "duration": 0.3626,
      "velocity": 97,
      "chip": "ym2612"
    },
    {
      "channel": 4,
      "note": 60,
      "start": 41.5871,
      "duration": 0.1793,
      "velocity": 97,
      "chip": "ym2612"
    },
    {
      "channel": 5,
      "note": 48,
      "start": 41.5905,
      "duration": 0.2074,
      "velocity": 127,
      "chip": "ym2612"
    },
    {
      "channel": 0,
      "note": 67,
      "start": 41.8012,
      "duration": 0.0799,
      "velocity": 107,
      "chip": "ym2612"
    },
    {
      "channel": 4,
      "note": 60,
      "start": 41.8034,
      "duration": 0.0793,
      "velocity": 97,
      "chip": "ym2612"
    },
    {
      "channel": 5,
      "note": 56,
      "start": 41.8067,
      "duration": 0.1078,
      "velocity": 117,
      "chip": "ym2612"
    },
    {
      "channel": 0,
      "note": 69,
      "start": 41.9177,
      "duration": 0.0802,
      "velocity": 107,
      "chip": "ym2612"
    },
    {
      "channel": 4,
      "note": 58,
      "start": 41.92,
      "duration": 0.0795,
      "velocity": 97,
      "chip": "ym2612"
    },
    {
      "channel": 5,
      "note": 57,
      "start": 41.9233,
      "duration": 0.1082,
      "velocity": 115,
      "chip": "ym2612"
    },
    {
      "channel": 1,
      "note": 67,
      "start": 41.9825,
      "duration": 0.0826,
      "velocity": 107,
      "chip": "ym2612"
    },
    {
      "channel": 0,
      "note": 70,
      "start": 42.0346,
      "duration": 0.08,
      "velocity": 107,
      "chip": "ym2612"
    },
    {
      "channel": 2,
      "note": 69,
      "start": 42.0359,
      "duration": 0.3626,
      "velocity": 97,
      "chip": "ym2612"
    },
    {
      "channel": 3,
      "note": 64,
      "start": 42.0368,
      "duration": 0.3619,
      "velocity": 97,
      "chip": "ym2612"
    },
    {
      "channel": 4,
      "note": 57,
      "start": 42.0378,
      "duration": 0.0783,
      "velocity": 97,
      "chip": "ym2612"
    },
    {
      "channel": 5,
      "note": 56,
      "start": 42.0411,
      "duration": 0.1066,
      "velocity": 117,
      "chip": "ym2612"
    },
    {
      "channel": 1,
      "note": 69,
      "start": 42.0822,
      "duration": 0.0828,
      "velocity": 107,
      "chip": "ym2612"
    },
    {
      "channel": 0,
      "note": 69,
      "start": 42.1509,
      "duration": 0.0805,
      "velocity": 107,
      "chip": "ym2612"
    },
    {
      "channel": 4,
      "note": 69,
      "start": 42.1532,
      "duration": 0.0797,
      "velocity": 97,
      "chip": "ym2612"
    },
    {
      "channel": 5,
      "note": 57,
      "start": 42.1565,
      "duration": 0.108,
      "velocity": 115,
      "chip": "ym2612"
    },
    {
      "channel": 1,
      "note": 70,
      "start": 42.1991,
      "duration": 0.0824,
      "velocity": 107,
      "chip": "ym2612"
    },
    {
      "channel": 0,
      "note": 70,
      "start": 42.2677,
      "duration": 0.08,
      "velocity": 107,
      "chip": "ym2612"
    },
    {
      "channel": 4,
      "note": 69,
      "start": 42.27,
      "duration": 0.0793,
      "velocity": 97,
      "chip": "ym2612"
    },
    {
      "channel": 5,
      "note": 57,
      "start": 42.2734,
      "duration": 0.1078,
      "velocity": 115,
      "chip": "ym2612"
    },
    {
      "channel": 1,
      "note": 69,
      "start": 42.3158,
      "duration": 0.0826,
      "velocity": 107,
      "chip": "ym2612"
    },
    {
      "channel": 0,
      "note": 72,
      "start": 42.3844,
      "duration": 0.0802,
      "velocity": 107,
      "chip": "ym2612"
    },
    {
      "channel": 4,
      "note": 57,
      "start": 42.3866,
      "duration": 0.0795,
      "velocity": 97,
      "chip": "ym2612"
    },
    {
      "channel": 5,
      "note": 56,
      "start": 42.3899,
      "duration": 0.0912,
      "velocity": 117,
      "chip": "ym2612"
    },
    {
      "channel": 1,
      "note": 70,
      "start": 42.4324,
      "duration": 0.0826,
      "velocity": 107,
      "chip": "ym2612"
    },
    {
      "channel": 2,
      "note": 72,
      "start": 42.4851,
      "duration": 0.3637,
      "velocity": 97,
      "chip": "ym2612"
    },
    {
      "channel": 3,
      "note": 69,
      "start": 42.486,
      "duration": 0.363,
      "velocity": 97,
      "chip": "ym2612"
    },
    {
      "channel": 5,
      "note": 48,
      "start": 42.4898,
      "duration": 0.2247,
      "velocity": 127,
      "chip": "ym2612"
    },
    {
      "channel": 1,
      "note": 72,
      "start": 42.5489,
      "duration": 0.0829,
      "velocity": 107,
      "chip": "ym2612"
    },
    {
      "channel": 0,
      "note": 70,
      "start": 42.5986,
      "duration": 0.0824,
      "velocity": 107,
      "chip": "ym2612"
    },
    {
      "channel": 4,
      "note": 57,
      "start": 42.6009,
      "duration": 0.1827,
      "velocity": 97,
      "chip": "ym2612"
    },
    {
      "channel": 0,
      "note": 69,
      "start": 42.7178,
      "duration": 0.0802,
      "velocity": 107,
      "chip": "ym2612"
    },
    {
      "channel": 5,
      "note": 57,
      "start": 42.723,
      "duration": 0.1082,
      "velocity": 115,
      "chip": "ym2612"
    },
    {
      "channel": 1,
      "note": 70,
      "start": 42.7824,
      "duration": 0.0826,
      "velocity": 107,
      "chip": "ym2612"
    },
    {
      "channel": 0,
      "note": 72,
      "start": 42.8344,
      "duration": 0.0802,
      "velocity": 107,
      "chip": "ym2612"
    },
    {
      "channel": 4,
      "note": 57,
      "start": 42.8367,
      "duration": 0.0794,
      "velocity": 97,
      "chip": "ym2612"
    },
    {
      "channel": 5,
      "note": 56,
      "start": 42.84,
      "duration": 0.1078,
      "velocity": 117,
      "chip": "ym2612"
    },
    {
      "channel": 1,
      "note": 69,
      "start": 42.8822,
      "duration": 0.0828,
      "velocity": 107,
      "chip": "ym2612"
    },
    {
      "channel": 0,
      "note": 76,
      "start": 42.9511,
      "duration": 0.1802,
      "velocity": 107,
      "chip": "ym2612"
    },
    {
      "channel": 2,
      "note": 76,
      "start": 42.9523,
      "duration": 0.3632,
      "velocity": 97,
      "chip": "ym2612"
    },
    {
      "channel": 3,
      "note": 72,
      "start": 42.9532,
      "duration": 0.3625,
      "velocity": 97,
      "chip": "ym2612"
    },
    {
      "channel": 5,
      "note": 57,
      "start": 42.957,
      "duration": 0.1076,
      "velocity": 115,
      "chip": "ym2612"
    },
    {
      "channel": 1,
      "note": 72,
      "start": 42.9991,
      "duration": 0.0824,
      "velocity": 107,
      "chip": "ym2612"
    },
    {
      "channel": 4,
      "note": 57,
      "start": 43.0696,
      "duration": 0.08,
      "velocity": 97,
      "chip": "ym2612"
    },
    {
      "channel": 5,
      "note": 56,
      "start": 43.0729,
      "duration": 0.1083,
      "velocity": 117,
      "chip": "ym2612"
    },
    {
      "channel": 1,
      "note": 76,
      "start": 43.1159,
      "duration": 0.1826,
      "velocity": 107,
      "chip": "ym2612"
    },
    {
      "channel": 0,
      "note": 77,
      "start": 43.1844,
      "duration": 0.1802,
      "velocity": 107,
      "chip": "ym2612"
    },
    {
      "channel": 5,
      "note": 57,
      "start": 43.1897,
      "duration": 0.0914,
      "velocity": 115,
      "chip": "ym2612"
    },
    {
      "channel": 4,
      "note": 57,
      "start": 43.2861,
      "duration": 0.08,
      "velocity": 97,
      "chip": "ym2612"
    },
    {
      "channel": 5,
      "note": 56,
      "start": 43.2895,
      "duration": 0.1084,
      "velocity": 117,
      "chip": "ym2612"
    },
    {
      "channel": 1,
      "note": 77,
      "start": 43.349,
      "duration": 0.1828,
      "velocity": 107,
      "chip": "ym2612"
    },
    {
      "channel": 0,
      "note": 79,
      "start": 43.4012,
      "duration": 0.0799,
      "velocity": 107,
      "chip": "ym2612"
    },
    {
      "channel": 2,
      "note": 72,
      "start": 43.4025,
      "duration": 0.2798,
      "velocity": 97,
      "chip": "ym2612"
    },
    {
      "channel": 3,
      "note": 69,
      "start": 43.4035,
      "duration": 0.2791,
      "velocity": 97,
      "chip": "ym2612"
    },
    {
      "channel": 4,
      "note": 69,
      "start": 43.4044,
      "duration": 0.1791,
      "velocity": 97,
      "chip": "ym2612"
    },
    {
      "channel": 5,
      "note": 48,
      "start": 43.4078,
      "duration": 0.2234,
      "velocity": 127,
      "chip": "ym2612"
    },
    {
      "channel": 0,
      "note": 81,
      "start": 43.5153,
      "duration": 0.0826,
      "velocity": 107,
      "chip": "ym2612"
    },
    {
      "channel": 1,
      "note": 79,
      "start": 43.5825,
      "duration": 0.0826,
      "velocity": 107,
      "chip": "ym2612"
    },
    {
      "channel": 0,
      "note": 82,
      "start": 43.6344,
      "duration": 0.0802,
      "velocity": 107,
      "chip": "ym2612"
    },
    {
      "channel": 4,
      "note": 57,
      "start": 43.6368,
      "duration": 0.0793,
      "velocity": 97,
      "chip": "ym2612"
    },
    {
      "channel": 5,
      "note": 57,
      "start": 43.6401,
      "duration": 0.1076,
      "velocity": 115,
      "chip": "ym2612"
    },
    {
      "channel": 1,
      "note": 81,
      "start": 43.6822,
      "duration": 0.0828,
      "velocity": 107,
      "chip": "ym2612"
    },
    {
      "channel": 0,
      "note": 81,
      "start": 43.7511,
      "duration": 0.7967,
      "velocity": 107,
      "chip": "ym2612"
    },
    {
      "channel": 2,
      "note": 74,
      "start": 43.7524,
      "duration": 0.2298,
      "velocity": 97,
      "chip": "ym2612"
    },
    {
      "channel": 3,
      "note": 70,
      "start": 43.7534,
      "duration": 0.2297,
      "velocity": 97,
      "chip": "ym2612"
    },
    {
      "channel": 4,
      "note": 58,
      "start": 43.7542,
      "duration": 0.079,
      "velocity": 97,
      "chip": "ym2612"
    },
    {
      "channel": 5,
      "note": 48,
      "start": 43.7576,
      "duration": 0.4431,
      "velocity": 127,
      "chip": "ym2612"
    },
    {
      "channel": 1,
      "note": 82,
      "start": 43.7991,
      "duration": 0.0824,
      "velocity": 107,
      "chip": "ym2612"
    },
    {
      "channel": 1,
      "note": 81,
      "start": 43.9159,
      "duration": 0.7988,
      "velocity": 107,
      "chip": "ym2612"
    },
    {
      "channel": 2,
      "note": 72,
      "start": 43.9829,
      "duration": 0.0826,
      "velocity": 97,
      "chip": "ym2612"
    },
    {
      "channel": 3,
      "note": 70,
      "start": 43.9838,
      "duration": 0.0819,
      "velocity": 97,
      "chip": "ym2612"
    },
    {
      "channel": 2,
      "note": 74,
      "start": 44.0827,
      "duration": 0.0827,
      "velocity": 97,
      "chip": "ym2612"
    },
    {
      "channel": 3,
      "note": 70,
      "start": 44.0836,
      "duration": 0.0821,
      "velocity": 97,
      "chip": "ym2612"
    },
    {
      "channel": 2,
      "note": 74,
      "start": 44.1995,
      "duration": 0.0825,
      "velocity": 97,
      "chip": "ym2612"
    },
    {
      "channel": 3,
      "note": 70,
      "start": 44.2004,
      "duration": 0.0818,
      "velocity": 97,
      "chip": "ym2612"
    },
    {
      "channel": 2,
      "note": 74,
      "start": 44.4325,
      "duration": 0.0829,
      "velocity": 97,
      "chip": "ym2612"
    },
    {
      "channel": 3,
      "note": 70,
      "start": 44.4334,
      "duration": 0.0822,
      "velocity": 97,
      "chip": "ym2612"
    },
    {
      "channel": 2,
      "note": 74,
      "start": 44.6659,
      "duration": 0.0821,
      "velocity": 97,
      "chip": "ym2612"
    },
    {
      "channel": 3,
      "note": 70,
      "start": 44.6667,
      "duration": 0.0814,
      "velocity": 97,
      "chip": "ym2612"
    },
    {
      "channel": 5,
      "note": 56,
      "start": 44.888,
      "duration": 0.2266,
      "velocity": 117,
      "chip": "ym2612"
    },
    {
      "channel": 0,
      "note": 69,
      "start": 44.9987,
      "duration": 0.1826,
      "velocity": 92,
      "chip": "ym2612"
    },
    {
      "channel": 5,
      "note": 56,
      "start": 45.1219,
      "duration": 0.1093,
      "velocity": 117,
      "chip": "ym2612"
    },
    {
      "channel": 1,
      "note": 69,
      "start": 45.1822,
      "duration": 0.1828,
      "velocity": 92,
      "chip": "ym2612"
    },
    {
      "channel": 0,
      "note": 70,
      "start": 45.2344,
      "duration": 0.18,
      "velocity": 92,
      "chip": "ym2612"
    },
    {
      "channel": 5,
      "note": 48,
      "start": 45.2392,
      "duration": 0.0419,
      "velocity": 127,
      "chip": "ym2612"
    },
    {
      "channel": 5,
      "note": 48,
      "start": 45.2887,
      "duration": 0.0591,
      "velocity": 127,
      "chip": "ym2612"
    },
    {
      "channel": 5,
      "note": 48,
      "start": 45.3554,
      "duration": 0.1091,
      "velocity": 127,
      "chip": "ym2612"
    },
    {
      "channel": 1,
      "note": 70,
      "start": 45.3991,
      "duration": 0.1851,
      "velocity": 92,
      "chip": "ym2612"
    },
    {
      "channel": 0,
      "note": 72,
      "start": 45.4677,
      "duration": 0.1802,
      "velocity": 92,
      "chip": "ym2612"
    },
    {
      "channel": 5,
      "note": 48,
      "start": 45.4726,
      "duration": 0.1086,
      "velocity": 127,
      "chip": "ym2612"
    },
    {
      "channel": 5,
      "note": 48,
      "start": 45.5883,
      "duration": 0.0931,
      "velocity": 127,
      "chip": "ym2612"
    },
    {
      "channel": 1,
      "note": 72,
      "start": 45.6325,
      "duration": 0.1824,
      "velocity": 92,
      "chip": "ym2612"
    },
    {
      "channel": 0,
      "note": 74,
      "start": 45.6847,
      "duration": 0.3632,
      "velocity": 92,
      "chip": "ym2612"
    },
    {
      "channel": 2,
      "note": 74,
      "start": 45.6881,
      "duration": 3.6637,
      "velocity": 93,
      "chip": "ym2612"
    },
    {
      "channel": 3,
      "note": 70,
      "start": 45.6911,
      "duration": 3.6615,
      "velocity": 93,
      "chip": "ym2612"
    },
    {
      "channel": 4,
      "note": 46,
      "start": 45.6922,
      "duration": 0.1747,
      "velocity": 97,
      "chip": "ym2612"
    },
    {
      "channel": 5,
      "note": 56,
      "start": 45.6955,
      "duration": 0.1023,
      "velocity": 117,
      "chip": "ym2612"
    },
    {
      "channel": 5,
      "note": 57,
      "start": 45.8059,
      "duration": 0.1086,
      "velocity": 115,
      "chip": "ym2612"
    },
    {
      "channel": 1,
      "note": 74,
      "start": 45.8658,
      "duration": 0.366,
      "velocity": 92,
      "chip": "ym2612"
    },
    {
      "channel": 4,
      "note": 58,
      "start": 45.9198,
      "duration": 0.08,
      "velocity": 97,
      "chip": "ym2612"
    },
    {
      "channel": 5,
      "note": 57,
      "start": 45.9231,
      "duration": 0.1081,
      "velocity": 115,
      "chip": "ym2612"
    },
    {
      "channel": 5,
      "note": 56,
      "start": 46.0392,
      "duration": 0.1086,
      "velocity": 117,
      "chip": "ym2612"
    },
    {
      "channel": 0,
      "note": 72,
      "start": 46.1509,
      "duration": 0.3637,
      "velocity": 92,
      "chip": "ym2612"
    },
    {
      "channel": 4,
      "note": 58,
      "start": 46.1532,
      "duration": 0.0797,
      "velocity": 97,
      "chip": "ym2612"
    },
    {
      "channel": 5,
      "note": 48,
      "start": 46.1565,
      "duration": 0.2247,
      "velocity": 127,
      "chip": "ym2612"
    },
    {
      "channel": 1,
      "note": 72,
      "start": 46.3158,
      "duration": 0.3657,
      "velocity": 92,
      "chip": "ym2612"
    },
    {
      "channel": 4,
      "note": 58,
      "start": 46.3864,
      "duration": 0.08,
      "velocity": 97,
      "chip": "ym2612"
    },
    {
      "channel": 5,
      "note": 56,
      "start": 46.3897,
      "duration": 0.2082,
      "velocity": 117,
      "chip": "ym2612"
    },
    {
      "channel": 4,
      "note": 46,
      "start": 46.4837,
      "duration": 0.1827,
      "velocity": 97,
      "chip": "ym2612"
    },
    {
      "channel": 0,
      "note": 70,
      "start": 46.6012,
      "duration": 0.2799,
      "velocity": 92,
      "chip": "ym2612"
    },
    {
      "channel": 5,
      "note": 57,
      "start": 46.6063,
      "duration": 0.1082,
      "velocity": 115,
      "chip": "ym2612"
    },
    {
      "channel": 4,
      "note": 58,
      "start": 46.7197,
      "duration": 0.08,
      "velocity": 97,
      "chip": "ym2612"
    },
    {
      "channel": 5,
      "note": 57,
      "start": 46.7231,
      "duration": 0.1081,
      "velocity": 115,
      "chip": "ym2612"
    },
    {
      "channel": 1,
      "note": 70,
      "start": 46.7825,
      "duration": 0.2851,
      "velocity": 92,
      "chip": "ym2612"
    },
    {
      "channel": 5,
      "note": 56,
      "start": 46.8392,
      "duration": 0.2254,
      "velocity": 117,
      "chip": "ym2612"
    },
    {
      "channel": 0,
      "note": 82,
      "start": 46.9485,
      "duration": 0.2828,
      "velocity": 92,
      "chip": "ym2612"
    },
    {
      "channel": 4,
      "note": 58,
      "start": 46.9507,
      "duration": 0.0824,
      "velocity": 97,
      "chip": "ym2612"
    },
    {
      "channel": 4,
      "note": 58,
      "start": 47.0693,
      "duration": 0.0803,
      "velocity": 97,
      "chip": "ym2612"
    },
    {
      "channel": 5,
      "note": 48,
      "start": 47.0726,
      "duration": 0.2085,
      "velocity": 127,
      "chip": "ym2612"
    },
    {
      "channel": 1,
      "note": 82,
      "start": 47.1158,
      "duration": 0.2851,
      "velocity": 92,
      "chip": "ym2612"
    },
    {
      "channel": 4,
      "note": 58,
      "start": 47.1839,
      "duration": 0.0826,
      "velocity": 97,
      "chip": "ym2612"
    },
    {
      "channel": 0,
      "note": 77,
      "start": 47.2844,
      "duration": 0.1802,
      "velocity": 92,
      "chip": "ym2612"
    },
    {
      "channel": 4,
      "note": 46,
      "start": 47.2867,
      "duration": 0.1799,
      "velocity": 97,
      "chip": "ym2612"
    },
    {
      "channel": 5,
      "note": 57,
      "start": 47.29,
      "duration": 0.1078,
      "velocity": 115,
      "chip": "ym2612"
    },
    {
      "channel": 5,
      "note": 57,
      "start": 47.4056,
      "duration": 0.1092,
      "velocity": 115,
      "chip": "ym2612"
    },
    {
      "channel": 1,
      "note": 77,
      "start": 47.4656,
      "duration": 0.1828,
      "velocity": 92,
      "chip": "ym2612"
    },
    {
      "channel": 0,
      "note": 79,
      "start": 47.518,
      "duration": 0.1801,
      "velocity": 92,
      "chip": "ym2612"
    },
    {
      "channel": 4,
      "note": 55,
      "start": 47.521,
      "duration": 0.0787,
      "velocity": 97,
      "chip": "ym2612"
    },
    {
      "channel": 5,
      "note": 56,
      "start": 47.5244,
      "duration": 0.1068,
      "velocity": 117,
      "chip": "ym2612"
    },
    {
      "channel": 5,
      "note": 57,
      "start": 47.6392,
      "duration": 0.1085,
      "velocity": 115,
      "chip": "ym2612"
    },
    {
      "channel": 1,
      "note": 79,
      "start": 47.6823,
      "duration": 0.1852,
      "velocity": 92,
      "chip": "ym2612"
    },
    {
      "channel": 0,
      "note": 77,
      "start": 47.7509,
      "duration": 0.1803,
      "velocity": 92,
      "chip": "ym2612"
    },
    {
      "channel": 4,
      "note": 55,
      "start": 47.7532,
      "duration": 0.08,
      "velocity": 97,
      "chip": "ym2612"
    },
    {
      "channel": 5,
      "note": 57,
      "start": 47.7565,
      "duration": 0.1081,
      "velocity": 115,
      "chip": "ym2612"
    },
    {
      "channel": 5,
      "note": 56,
      "start": 47.8722,
      "duration": 0.109,
      "velocity": 117,
      "chip": "ym2612"
    },
    {
      "channel": 1,
      "note": 77,
      "start": 47.9158,
      "duration": 0.1827,
      "velocity": 92,
      "chip": "ym2612"
    },
    {
      "channel": 0,
      "note": 76,
      "start": 47.9844,
      "duration": 0.1802,
      "velocity": 92,
      "chip": "ym2612"
    },
    {
      "channel": 4,
      "note": 55,
      "start": 47.9867,
      "duration": 0.0797,
      "velocity": 97,
      "chip": "ym2612"
    },
    {
      "channel": 5,
      "note": 48,
      "start": 47.99,
      "duration": 0.2078,
      "velocity": 127,
      "chip": "ym2612"
    },
    {
      "channel": 1,
      "note": 76,
      "start": 48.149,
      "duration": 0.1828,
      "velocity": 92,
      "chip": "ym2612"
    },
    {
      "channel": 0,
      "note": 69,
      "start": 48.2012,
      "duration": 0.0799,
      "velocity": 92,
      "chip": "ym2612"
    },
    {
      "channel": 4,
      "note": 55,
      "start": 48.2034,
      "duration": 0.0793,
      "velocity": 97,
      "chip": "ym2612"
    },
    {
      "channel": 5,
      "note": 56,
      "start": 48.2067,
      "duration": 0.2245,
      "velocity": 117,
      "chip": "ym2612"
    },
    {
      "channel": 0,
      "note": 70,
      "start": 48.3154,
      "duration": 0.5682,
      "velocity": 92,
      "chip": "ym2612"
    },
    {
      "channel": 4,
      "note": 55,
      "start": 48.3178,
      "duration": 0.1821,
      "velocity": 97,
      "chip": "ym2612"
    },
    {
      "channel": 1,
      "note": 69,
      "start": 48.3825,
      "duration": 0.0826,
      "velocity": 92,
      "chip": "ym2612"
    },
    {
      "channel": 5,
      "note": 56,
      "start": 48.4392,
      "duration": 0.1086,
      "velocity": 117,
      "chip": "ym2612"
    },
    {
      "channel": 1,
      "note": 70,
      "start": 48.4824,
      "duration": 0.566,
      "velocity": 92,
      "chip": "ym2612"
    },
    {
      "channel": 4,
      "note": 50,
      "start": 48.5528,
      "duration": 0.0803,
      "velocity": 97,
      "chip": "ym2612"
    },
    {
      "channel": 5,
      "note": 57,
      "start": 48.5562,
      "duration": 0.0417,
      "velocity": 115,
      "chip": "ym2612"
    },
    {
      "channel": 5,
      "note": 57,
      "start": 48.6058,
      "duration": 0.0587,
      "velocity": 115,
      "chip": "ym2612"
    },
    {
      "channel": 5,
      "note": 57,
      "start": 48.6725,
      "duration": 0.1087,
      "velocity": 115,
      "chip": "ym2612"
    },
    {
      "channel": 4,
      "note": 55,
      "start": 48.7864,
      "duration": 0.08,
      "velocity": 97,
      "chip": "ym2612"
    },
    {
      "channel": 5,
      "note": 57,
      "start": 48.7897,
      "duration": 0.0914,
      "velocity": 115,
      "chip": "ym2612"
    },
    {
      "channel": 4,
      "note": 55,
      "start": 48.8858,
      "duration": 0.0806,
      "velocity": 97,
      "chip": "ym2612"
    },
    {
      "channel": 5,
      "note": 48,
      "start": 48.8892,
      "duration": 0.2254,
      "velocity": 127,
      "chip": "ym2612"
    },
    {
      "channel": 0,
      "note": 70,
      "start": 48.9987,
      "duration": 0.0824,
      "velocity": 92,
      "chip": "ym2612"
    },
    {
      "channel": 4,
      "note": 55,
      "start": 49.0009,
      "duration": 0.0817,
      "velocity": 97,
      "chip": "ym2612"
    },
    {
      "channel": 0,
      "note": 69,
      "start": 49.1177,
      "duration": 0.0802,
      "velocity": 92,
      "chip": "ym2612"
    },
    {
      "channel": 4,
      "note": 55,
      "start": 49.1201,
      "duration": 0.1797,
      "velocity": 97,
      "chip": "ym2612"
    },
    {
      "channel": 5,
      "note": 56,
      "start": 49.1234,
      "duration": 0.2245,
      "velocity": 117,
      "chip": "ym2612"
    },
    {
      "channel": 1,
      "note": 70,
      "start": 49.1825,
      "duration": 0.0826,
      "velocity": 92,
      "chip": "ym2612"
    },
    {
      "channel": 0,
      "note": 70,
      "start": 49.232,
      "duration": 0.0826,
      "velocity": 92,
      "chip": "ym2612"
    },
    {
      "channel": 1,
      "note": 69,
      "start": 49.2822,
      "duration": 0.0828,
      "velocity": 92,
      "chip": "ym2612"
    },
    {
      "channel": 0,
      "note": 72,
      "start": 49.3512,
      "duration": 0.18,
      "velocity": 92,
      "chip": "ym2612"
    },
    {
      "channel": 2,
      "note": 75,
      "start": 49.3525,
      "duration": 0.9155,
      "velocity": 93,
      "chip": "ym2612"
    },
    {
      "channel": 3,
      "note": 72,
      "start": 49.3534,
      "duration": 0.9154,
      "velocity": 93,
      "chip": "ym2612"
    },
    {
      "channel": 4,
      "note": 48,
      "start": 49.3544,
      "duration": 0.0788,
      "velocity": 97,
      "chip": "ym2612"
    },
    {
      "channel": 5,
      "note": 56,
      "start": 49.3577,
      "duration": 0.1069,
      "velocity": 117,
      "chip": "ym2612"
    },
    {
      "channel": 1,
      "note": 70,
      "start": 49.3991,
      "duration": 0.0824,
      "velocity": 92,
      "chip": "ym2612"
    },
    {
      "channel": 5,
      "note": 57,
      "start": 49.4725,
      "duration": 0.1087,
      "velocity": 115,
      "chip": "ym2612"
    },
    {
      "channel": 1,
      "note": 72,
      "start": 49.5159,
      "duration": 0.1826,
      "velocity": 92,
      "chip": "ym2612"
    },
    {
      "channel": 0,
      "note": 74,
      "start": 49.5844,
      "duration": 0.1802,
      "velocity": 92,
      "chip": "ym2612"
    },
    {
      "channel": 4,
      "note": 60,
      "start": 49.5867,
      "duration": 0.1793,
      "velocity": 97,
      "chip": "ym2612"
    },
    {
      "channel": 5,
      "note": 57,
      "start": 49.5901,
      "duration": 0.091,
      "velocity": 115,
      "chip": "ym2612"
    },
    {
      "channel": 5,
      "note": 56,
      "start": 49.6891,
      "duration": 0.1088,
      "velocity": 117,
      "chip": "ym2612"
    },
    {
      "channel": 1,
      "note": 74,
      "start": 49.749,
      "duration": 0.1828,
      "velocity": 92,
      "chip": "ym2612"
    },
    {
      "channel": 0,
      "note": 75,
      "start": 49.8011,
      "duration": 0.1802,
      "velocity": 92,
      "chip": "ym2612"
    },
    {
      "channel": 4,
      "note": 48,
      "start": 49.8034,
      "duration": 0.0795,
      "velocity": 97,
      "chip": "ym2612"
    },
    {
      "channel": 5,
      "note": 48,
      "start": 49.8067,
      "duration": 0.2245,
      "velocity": 127,
      "chip": "ym2612"
    },
    {
      "channel": 1,
      "note": 75,
      "start": 49.9821,
      "duration": 0.1829,
      "velocity": 92,
      "chip": "ym2612"
    },
    {
      "channel": 0,
      "note": 72,
      "start": 50.0345,
      "duration": 0.0801,
      "velocity": 92,
      "chip": "ym2612"
    },
    {
      "channel": 4,
      "note": 48,
      "start": 50.0367,
      "duration": 0.0795,
      "velocity": 97,
      "chip": "ym2612"
    },
    {
      "channel": 5,
      "note": 56,
      "start": 50.04,
      "duration": 0.2246,
      "velocity": 117,
      "chip": "ym2612"
    },
    {
      "channel": 0,
      "note": 74,
      "start": 50.1486,
      "duration": 0.1827,
      "velocity": 92,
      "chip": "ym2612"
    },
    {
      "channel": 4,
      "note": 50,
      "start": 50.1509,
      "duration": 0.1819,
      "velocity": 97,
      "chip": "ym2612"
    },
    {
      "channel": 1,
      "note": 72,
      "start": 50.1991,
      "duration": 0.0824,
      "velocity": 92,
      "chip": "ym2612"
    },
    {
      "channel": 2,
      "note": 77,
      "start": 50.2687,
      "duration": 0.9166,
      "velocity": 93,
      "chip": "ym2612"
    },
    {
      "channel": 3,
      "note": 74,
      "start": 50.2695,
      "duration": 0.9166,
      "velocity": 93,
      "chip": "ym2612"
    },
    {
      "channel": 5,
      "note": 57,
      "start": 50.2733,
      "duration": 0.1079,
      "velocity": 115,
      "chip": "ym2612"
    },
    {
      "channel": 1,
      "note": 74,
      "start": 50.3159,
      "duration": 0.1826,
      "velocity": 92,
      "chip": "ym2612"
    },
    {
      "channel": 0,
      "note": 75,
      "start": 50.3845,
      "duration": 0.0801,
      "velocity": 92,
      "chip": "ym2612"
    },
    {
      "channel": 4,
      "note": 50,
      "start": 50.3867,
      "duration": 0.0793,
      "velocity": 97,
      "chip": "ym2612"
    },
    {
      "channel": 5,
      "note": 57,
      "start": 50.3901,
      "duration": 0.091,
      "velocity": 115,
      "chip": "ym2612"
    },
    {
      "channel": 0,
      "note": 77,
      "start": 50.4844,
      "duration": 0.1802,
      "velocity": 92,
      "chip": "ym2612"
    },
    {
      "channel": 5,
      "note": 56,
      "start": 50.4895,
      "duration": 0.225,
      "velocity": 117,
      "chip": "ym2612"
    },
    {
      "channel": 1,
      "note": 75,
      "start": 50.549,
      "duration": 0.0829,
      "velocity": 92,
      "chip": "ym2612"
    },
    {
      "channel": 4,
      "note": 50,
      "start": 50.6004,
      "duration": 0.0824,
      "velocity": 97,
      "chip": "ym2612"
    },
    {
      "channel": 1,
      "note": 77,
      "start": 50.6656,
      "duration": 0.1828,
      "velocity": 92,
      "chip": "ym2612"
    },
    {
      "channel": 0,
      "note": 79,
      "start": 50.7177,
      "duration": 0.1803,
      "velocity": 92,
      "chip": "ym2612"
    },
    {
      "channel": 4,
      "note": 62,
      "start": 50.72,
      "duration": 0.1796,
      "velocity": 97,
      "chip": "ym2612"
    },
    {
      "channel": 5,
      "note": 48,
      "start": 50.7234,
      "duration": 0.2244,
      "velocity": 127,
      "chip": "ym2612"
    },
    {
      "channel": 1,
      "note": 79,
      "start": 50.8823,
      "duration": 0.1852,
      "velocity": 92,
      "chip": "ym2612"
    },
    {
      "channel": 0,
      "note": 81,
      "start": 50.951,
      "duration": 0.1803,
      "velocity": 92,
      "chip": "ym2612"
    },
    {
      "channel": 4,
      "note": 50,
      "start": 50.9531,
      "duration": 0.1797,
      "velocity": 97,
      "chip": "ym2612"
    },
    {
      "channel": 5,
      "note": 57,
      "start": 50.9565,
      "duration": 0.1081,
      "velocity": 115,
      "chip": "ym2612"
    },
    {
      "channel": 5,
      "note": 57,
      "start": 51.0722,
      "duration": 0.1092,
      "velocity": 115,
      "chip": "ym2612"
    },
    {
      "channel": 1,
      "note": 81,
      "start": 51.1158,
      "duration": 0.1827,
      "velocity": 92,
      "chip": "ym2612"
    },
    {
      "channel": 0,
      "note": 84,
      "start": 51.1847,
      "duration": 0.1799,
      "velocity": 92,
      "chip": "ym2612"
    },
    {
      "channel": 2,
      "note": 84,
      "start": 51.186,
      "duration": 0.4491,
      "velocity": 93,
      "chip": "ym2612"
    },
    {
      "channel": 3,
      "note": 81,
      "start": 51.1868,
      "duration": 0.4492,
      "velocity": 93,
      "chip": "ym2612"
    },
    {
      "channel": 4,
      "note": 53,
      "start": 51.1877,
      "duration": 0.0787,
      "velocity": 97,
      "chip": "ym2612"
    },
    {
      "channel": 5,
      "note": 56,
      "start": 51.1911,
      "duration": 0.09,
      "velocity": 117,
      "chip": "ym2612"
    },
    {
      "channel": 5,
      "note": 57,
      "start": 51.289,
      "duration": 0.1088,
      "velocity": 115,
      "chip": "ym2612"
    },
    {
      "channel": 1,
      "note": 84,
      "start": 51.349,
      "duration": 0.1828,
      "velocity": 92,
      "chip": "ym2612"
    },
    {
      "channel": 0,
      "note": 82,
      "start": 51.4011,
      "duration": 0.1802,
      "velocity": 92,
      "chip": "ym2612"
    },
    {
      "channel": 4,
      "note": 65,
      "start": 51.4033,
      "duration": 0.0797,
      "velocity": 97,
      "chip": "ym2612"
    },
    {
      "channel": 5,
      "note": 57,
      "start": 51.4066,
      "duration": 0.1079,
      "velocity": 115,
      "chip": "ym2612"
    },
    {
      "channel": 4,
      "note": 65,
      "start": 51.5196,
      "duration": 0.0801,
      "velocity": 97,
      "chip": "ym2612"
    },
    {
      "channel": 5,
      "note": 56,
      "start": 51.5229,
      "duration": 0.1083,
      "velocity": 117,
      "chip": "ym2612"
    },
    {
      "channel": 1,
      "note": 82,
      "start": 51.5822,
      "duration": 0.1829,
      "velocity": 92,
      "chip": "ym2612"
    },
    {
      "channel": 0,
      "note": 81,
      "start": 51.6345,
      "duration": 0.0801,
      "velocity": 92,
      "chip": "ym2612"
    },
    {
      "channel": 2,
      "note": 82,
      "start": 51.6358,
      "duration": 0.1134,
      "velocity": 93,
      "chip": "ym2612"
    },
    {
      "channel": 4,
      "note": 53,
      "start": 51.6369,
      "duration": 0.0788,
      "velocity": 97,
      "chip": "ym2612"
    },
    {
      "channel": 5,
      "note": 48,
      "start": 51.6404,
      "duration": 0.2242,
      "velocity": 127,
      "chip": "ym2612"
    },
    {
      "channel": 0,
      "note": 79,
      "start": 51.7485,
      "duration": 0.0829,
      "velocity": 92,
      "chip": "ym2612"
    },
    {
      "channel": 2,
      "note": 81,
      "start": 51.7498,
      "duration": 0.2328,
      "velocity": 93,
      "chip": "ym2612"
    },
    {
      "channel": 4,
      "note": 65,
      "start": 51.7508,
      "duration": 0.0817,
      "velocity": 97,
      "chip": "ym2612"
    },
    {
      "channel": 1,
      "note": 81,
      "start": 51.7991,
      "duration": 0.0824,
      "velocity": 92,
      "chip": "ym2612"
    },
    {
      "channel": 0,
      "note": 77,
      "start": 51.8677,
      "duration": 0.08,
      "velocity": 92,
      "chip": "ym2612"
    },
    {
      "channel": 5,
      "note": 56,
      "start": 51.8729,
      "duration": 0.2082,
      "velocity": 117,
      "chip": "ym2612"
    },
    {
      "channel": 1,
      "note": 79,
      "start": 51.9158,
      "duration": 0.0826,
      "velocity": 92,
      "chip": "ym2612"
    },
    {
      "channel": 0,
      "note": 81,
      "start": 51.9821,
      "duration": 0.5681,
      "velocity": 92,
      "chip": "ym2612"
    },
    {
      "channel": 2,
      "note": 88,
      "start": 51.9834,
      "duration": 0.5675,
      "velocity": 93,
      "chip": "ym2612"
    },
    {
      "channel": 3,
      "note": 84,
      "start": 51.9842,
      "duration": 0.5675,
      "velocity": 93,
      "chip": "ym2612"
    },
    {
      "channel": 4,
      "note": 52,
      "start": 51.985,
      "duration": 0.0814,
      "velocity": 97,
      "chip": "ym2612"
    },
    {
      "channel": 1,
      "note": 77,
      "start": 52.0324,
      "duration": 0.0826,
      "velocity": 92,
      "chip": "ym2612"
    },
    {
      "channel": 5,
      "note": 56,
      "start": 52.089,
      "duration": 0.1088,
      "velocity": 117,
      "chip": "ym2612"
    },
    {
      "channel": 1,
      "note": 81,
      "start": 52.149,
      "duration": 0.566,
      "velocity": 92,
      "chip": "ym2612"
    },
    {
      "channel": 4,
      "note": 52,
      "start": 52.2028,
      "duration": 0.0802,
      "velocity": 97,
      "chip": "ym2612"
    },
    {
      "channel": 5,
      "note": 57,
      "start": 52.2061,
      "duration": 0.0584,
      "velocity": 115,
      "chip": "ym2612"
    },
    {
      "channel": 5,
      "note": 57,
      "start": 52.2724,
      "duration": 0.0421,
      "velocity": 115,
      "chip": "ym2612"
    },
    {
      "channel": 5,
      "note": 57,
      "start": 52.3226,
      "duration": 0.1086,
      "velocity": 115,
      "chip": "ym2612"
    },
    {
      "channel": 4,
      "note": 64,
      "start": 52.4362,
      "duration": 0.0802,
      "velocity": 97,
      "chip": "ym2612"
    },
    {
      "channel": 5,
      "note": 57,
      "start": 52.4396,
      "duration": 0.1081,
      "velocity": 115,
      "chip": "ym2612"
    },
    {
      "channel": 2,
      "note": 84,
      "start": 52.5516,
      "duration": 0.4505,
      "velocity": 93,
      "chip": "ym2612"
    },
    {
      "channel": 3,
      "note": 81,
      "start": 52.5524,
      "duration": 0.4504,
      "velocity": 93,
      "chip": "ym2612"
    },
    {
      "channel": 4,
      "note": 64,
      "start": 52.5534,
      "duration": 0.1798,
      "velocity": 97,
      "chip": "ym2612"
    },
    {
      "channel": 5,
      "note": 48,
      "start": 52.5567,
      "duration": 0.2245,
      "velocity": 127,
      "chip": "ym2612"
    },
    {
      "channel": 0,
      "note": 69,
      "start": 52.6654,
      "duration": 0.0824,
      "velocity": 92,
      "chip": "ym2612"
    },
    {
      "channel": 0,
      "note": 70,
      "start": 52.7844,
      "duration": 0.0802,
      "velocity": 92,
      "chip": "ym2612"
    },
    {
      "channel": 4,
      "note": 52,
      "start": 52.7867,
      "duration": 0.1794,
      "velocity": 97,
      "chip": "ym2612"
    },
    {
      "channel": 5,
      "note": 48,
      "start": 52.79,
      "duration": 0.091,
      "velocity": 127,
      "chip": "ym2612"
    },
    {
      "channel": 1,
      "note": 69,
      "start": 52.8325,
      "duration": 0.0826,
      "velocity": 92,
      "chip": "ym2612"
    },
    {
      "channel": 0,
      "note": 72,
      "start": 52.8843,
      "duration": 0.0803,
      "velocity": 92,
      "chip": "ym2612"
    },
    {
      "channel": 5,
      "note": 48,
      "start": 52.8895,
      "duration": 0.1087,
      "velocity": 127,
      "chip": "ym2612"
    },
    {
      "channel": 1,
      "note": 70,
      "start": 52.9489,
      "duration": 0.0829,
      "velocity": 92,
      "chip": "ym2612"
    },
    {
      "channel": 0,
      "note": 74,
      "start": 53.0014,
      "duration": 0.3632,
      "velocity": 92,
      "chip": "ym2612"
    },
    {
      "channel": 2,
      "note": 82,
      "start": 53.0027,
      "duration": 0.4656,
      "velocity": 93,
      "chip": "ym2612"
    },
    {
      "channel": 3,
      "note": 77,
      "start": 53.0035,
      "duration": 0.4656,
      "velocity": 93,
      "chip": "ym2612"
    },
    {
      "channel": 4,
      "note": 46,
      "start": 53.0046,
      "duration": 0.179,
      "velocity": 97,
      "chip": "ym2612"
    },
    {
      "channel": 5,
      "note": 56,
      "start": 53.0079,
      "duration": 0.1067,
      "velocity": 117,
      "chip": "ym2612"
    },
    {
      "channel": 1,
      "note": 72,
      "start": 53.0658,
      "duration": 0.0824,
      "velocity": 92,
      "chip": "ym2612"
    },
    {
      "channel": 5,
      "note": 57,
      "start": 53.1226,
      "duration": 0.1086,
      "velocity": 115,
      "chip": "ym2612"
    },
    {
      "channel": 1,
      "note": 74,
      "start": 53.1825,
      "duration": 0.3657,
      "velocity": 92,
      "chip": "ym2612"
    },
    {
      "channel": 4,
      "note": 58,
      "start": 53.2364,
      "duration": 0.08,
      "velocity": 97,
      "chip": "ym2612"
    },
    {
      "channel": 5,
      "note": 57,
      "start": 53.2398,
      "duration": 0.108,
      "velocity": 115,
      "chip": "ym2612"
    },
    {
      "channel": 5,
      "note": 56,
      "start": 53.3557,
      "duration": 0.1088,
      "velocity": 117,
      "chip": "ym2612"
    },
    {
      "channel": 0,
      "note": 72,
      "start": 53.4678,
      "duration": 0.3636,
      "velocity": 92,
      "chip": "ym2612"
    },
    {
      "channel": 2,
      "note": 77,
      "start": 53.4691,
      "duration": 0.4493,
      "velocity": 93,
      "chip": "ym2612"
    },
    {
      "channel": 3,
      "note": 74,
      "start": 53.4699,
      "duration": 0.4494,
      "velocity": 93,
      "chip": "ym2612"
    },
    {
      "channel": 4,
      "note": 58,
      "start": 53.4707,
      "duration": 0.0785,
      "velocity": 97,
      "chip": "ym2612"
    },
    {
      "channel": 5,
      "note": 48,
      "start": 53.4741,
      "duration": 0.207,
      "velocity": 127,
      "chip": "ym2612"
    },
    {
      "channel": 1,
      "note": 72,
      "start": 53.6325,
      "duration": 0.3659,
      "velocity": 92,
      "chip": "ym2612"
    },
    {
      "channel": 4,
      "note": 58,
      "start": 53.6861,
      "duration": 0.0805,
      "velocity": 97,
      "chip": "ym2612"
    },
    {
      "channel": 5,
      "note": 56,
      "start": 53.6893,
      "duration": 0.2252,
      "velocity": 117,
      "chip": "ym2612"
    },
    {
      "channel": 4,
      "note": 46,
      "start": 53.8005,
      "duration": 0.1825,
      "velocity": 97,
      "chip": "ym2612"
    },
    {
      "channel": 0,
      "note": 70,
      "start": 53.9178,
      "duration": 0.2801,
      "velocity": 92,
      "chip": "ym2612"
    },
    {
      "channel": 2,
      "note": 74,
      "start": 53.9191,
      "duration": 0.4655,
      "velocity": 93,
      "chip": "ym2612"
    },
    {
      "channel": 3,
      "note": 70,
      "start": 53.92,
      "duration": 0.4655,
      "velocity": 93,
      "chip": "ym2612"
    },
    {
      "channel": 5,
      "note": 57,
      "start": 53.9238,
      "duration": 0.1074,
      "velocity": 115,
      "chip": "ym2612"
    },
    {
      "channel": 4,
      "note": 58,
      "start": 54.0363,
      "duration": 0.0801,
      "velocity": 97,
      "chip": "ym2612"
    },
    {
      "channel": 5,
      "note": 57,
      "start": 54.0397,
      "duration": 0.1081,
      "velocity": 115,
      "chip": "ym2612"
    },
    {
      "channel": 1,
      "note": 70,
      "start": 54.0824,
      "duration": 0.2828,
      "velocity": 92,
      "chip": "ym2612"
    },
    {
      "channel": 5,
      "note": 56,
      "start": 54.1558,
      "duration": 0.2254,
      "velocity": 117,
      "chip": "ym2612"
    },
    {
      "channel": 0,
      "note": 82,
      "start": 54.2653,
      "duration": 0.2824,
      "velocity": 92,
      "chip": "ym2612"
    },
    {
      "channel": 4,
      "note": 58,
      "start": 54.2675,
      "duration": 0.0822,
      "velocity": 97,
      "chip": "ym2612"
    },
    {
      "channel": 2,
      "note": 86,
      "start": 54.3854,
      "duration": 0.4499,
      "velocity": 93,
      "chip": "ym2612"
    },
    {
      "channel": 3,
      "note": 82,
      "start": 54.3862,
      "duration": 0.4499,
      "velocity": 93,
      "chip": "ym2612"
    },
    {
      "channel": 4,
      "note": 58,
      "start": 54.387,
      "duration": 0.0794,
      "velocity": 97,
      "chip": "ym2612"
    },
    {
      "channel": 5,
      "note": 48,
      "start": 54.3904,
      "duration": 0.2075,
      "velocity": 127,
      "chip": "ym2612"
    },
    {
      "channel": 1,
      "note": 82,
      "start": 54.4325,
      "duration": 0.2851,
      "velocity": 92,
      "chip": "ym2612"
    },
    {
      "channel": 4,
      "note": 58,
      "start": 54.4836,
      "duration": 0.0828,
      "velocity": 97,
      "chip": "ym2612"
    },
    {
      "channel": 0,
      "note": 77,
      "start": 54.6012,
      "duration": 0.1801,
      "velocity": 92,
      "chip": "ym2612"
    },
    {
      "channel": 4,
      "note": 46,
      "start": 54.6035,
      "duration": 0.1798,
      "velocity": 97,
      "chip": "ym2612"
    },
    {
      "channel": 5,
      "note": 57,
      "start": 54.6068,
      "duration": 0.1077,
      "velocity": 115,
      "chip": "ym2612"
    },
    {
      "channel": 5,
      "note": 57,
      "start": 54.7222,
      "duration": 0.1092,
      "velocity": 115,
      "chip": "ym2612"
    },
    {
      "channel": 1,
      "note": 77,
      "start": 54.7822,
      "duration": 0.1828,
      "velocity": 92,
      "chip": "ym2612"
    },
    {
      "channel": 0,
      "note": 79,
      "start": 54.8346,
      "duration": 0.1798,
      "velocity": 92,
      "chip": "ym2612"
    },
    {
      "channel": 2,
      "note": 91,
      "start": 54.836,
      "duration": 0.9151,
      "velocity": 93,
      "chip": "ym2612"
    },
    {
      "channel": 3,
      "note": 86,
      "start": 54.8368,
      "duration": 0.9152,
      "velocity": 93,
      "chip": "ym2612"
    },
    {
      "channel": 4,
      "note": 55,
      "start": 54.8377,
      "duration": 0.0787,
      "velocity": 97,
      "chip": "ym2612"
    },
    {
      "channel": 5,
      "note": 56,
      "start": 54.8411,
      "duration": 0.1067,
      "velocity": 117,
      "chip": "ym2612"
    },
    {
      "channel": 5,
      "note": 57,
      "start": 54.9558,
      "duration": 0.1088,
      "velocity": 115,
      "chip": "ym2612"
    },
    {
      "channel": 1,
      "note": 79,
      "start": 54.9991,
      "duration": 0.1851,
      "velocity": 92,
      "chip": "ym2612"
    },
    {
      "channel": 0,
      "note": 77,
      "start": 55.0677,
      "duration": 0.1802,
      "velocity": 92,
      "chip": "ym2612"
    },
    {
      "channel": 4,
      "note": 55,
      "start": 55.07,
      "duration": 0.0795,
      "velocity": 97,
      "chip": "ym2612"
    },
    {
      "channel": 5,
      "note": 57,
      "start": 55.0734,
      "duration": 0.1078,
      "velocity": 115,
      "chip": "ym2612"
    },
    {
      "channel": 5,
      "note": 56,
      "start": 55.1888,
      "duration": 0.0922,
      "velocity": 117,
      "chip": "ym2612"
    },
    {
      "channel": 1,
      "note": 77,
      "start": 55.2325,
      "duration": 0.1824,
      "velocity": 92,
      "chip": "ym2612"
    },
    {
      "channel": 0,
      "note": 76,
      "start": 55.2843,
      "duration": 0.1803,
      "velocity": 92,
      "chip": "ym2612"
    },
    {
      "channel": 4,
      "note": 55,
      "start": 55.2865,
      "duration": 0.0799,
      "velocity": 97,
      "chip": "ym2612"
    },
    {
      "channel": 5,
      "note": 48,
      "start": 55.2899,
      "duration": 0.2247,
      "velocity": 127,
      "chip": "ym2612"
    },
    {
      "channel": 1,
      "note": 76,
      "start": 55.4654,
      "duration": 0.1829,
      "velocity": 92,
      "chip": "ym2612"
    },
    {
      "channel": 0,
      "note": 81,
      "start": 55.5178,
      "duration": 0.0801,
      "velocity": 92,
      "chip": "ym2612"
    },
    {
      "channel": 4,
      "note": 55,
      "start": 55.52,
      "duration": 0.0795,
      "velocity": 97,
      "chip": "ym2612"
    },
    {
      "channel": 5,
      "note": 56,
      "start": 55.5233,
      "duration": 0.2244,
      "velocity": 117,
      "chip": "ym2612"
    },
    {
      "channel": 0,
      "note": 82,
      "start": 55.6321,
      "duration": 0.5683,
      "velocity": 92,
      "chip": "ym2612"
    },
    {
      "channel": 4,
      "note": 55,
      "start": 55.6344,
      "duration": 0.1818,
      "velocity": 97,
      "chip": "ym2612"
    },
    {
      "channel": 1,
      "note": 81,
      "start": 55.6823,
      "duration": 0.0828,
      "velocity": 92,
      "chip": "ym2612"
    },
    {
      "channel": 2,
      "note": 94,
      "start": 55.7519,
      "duration": 0.4491,
      "velocity": 93,
      "chip": "ym2612"
    },
    {
      "channel": 3,
      "note": 91,
      "start": 55.7527,
      "duration": 0.4491,
      "velocity": 93,
      "chip": "ym2612"
    },
    {
      "channel": 5,
      "note": 56,
      "start": 55.7565,
      "duration": 0.108,
      "velocity": 117,
      "chip": "ym2612"
    },
    {
      "channel": 1,
      "note": 82,
      "start": 55.7992,
      "duration": 0.566,
      "velocity": 92,
      "chip": "ym2612"
    },
    {
      "channel": 4,
      "note": 50,
      "start": 55.8696,
      "duration": 0.0799,
      "velocity": 97,
      "chip": "ym2612"
    },
    {
      "channel": 5,
      "note": 57,
      "start": 55.873,
      "duration": 0.0415,
      "velocity": 115,
      "chip": "ym2612"
    },
    {
      "channel": 5,
      "note": 57,
      "start": 55.9226,
      "duration": 0.0586,
      "velocity": 115,
      "chip": "ym2612"
    },
    {
      "channel": 5,
      "note": 57,
      "start": 55.9893,
      "duration": 0.0918,
      "velocity": 115,
      "chip": "ym2612"
    },
    {
      "channel": 4,
      "note": 55,
      "start": 56.0861,
      "duration": 0.0804,
      "velocity": 97,
      "chip": "ym2612"
    },
    {
      "channel": 5,
      "note": 57,
      "start": 56.0894,
      "duration": 0.1085,
      "velocity": 115,
      "chip": "ym2612"
    },
    {
      "channel": 2,
      "note": 86,
      "start": 56.2017,
      "duration": 0.467,
      "velocity": 93,
      "chip": "ym2612"
    },
    {
      "channel": 3,
      "note": 82,
      "start": 56.2025,
      "duration": 0.467,
      "velocity": 93,
      "chip": "ym2612"
    },
    {
      "channel": 4,
      "note": 55,
      "start": 56.2034,
      "duration": 0.0796,
      "velocity": 97,
      "chip": "ym2612"
    },
    {
      "channel": 5,
      "note": 48,
      "start": 56.2068,
      "duration": 0.2244,
      "velocity": 127,
      "chip": "ym2612"
    },
    {
      "channel": 0,
      "note": 82,
      "start": 56.3154,
      "duration": 0.0825,
      "velocity": 92,
      "chip": "ym2612"
    },
    {
      "channel": 4,
      "note": 55,
      "start": 56.3176,
      "duration": 0.0819,
      "velocity": 97,
      "chip": "ym2612"
    },
    {
      "channel": 0,
      "note": 81,
      "start": 56.4344,
      "duration": 0.0802,
      "velocity": 92,
      "chip": "ym2612"
    },
    {
      "channel": 4,
      "note": 55,
      "start": 56.4367,
      "duration": 0.1795,
      "velocity": 97,
      "chip": "ym2612"
    },
    {
      "channel": 5,
      "note": 56,
      "start": 56.4401,
      "duration": 0.2247,
      "velocity": 117,
      "chip": "ym2612"
    },
    {
      "channel": 1,
      "note": 82,
      "start": 56.4824,
      "duration": 0.0827,
      "velocity": 92,
      "chip": "ym2612"
    },
    {
      "channel": 0,
      "note": 79,
      "start": 56.5485,
      "duration": 0.0829,
      "velocity": 92,
      "chip": "ym2612"
    },
    {
      "channel": 1,
      "note": 81,
      "start": 56.5991,
      "duration": 0.0824,
      "velocity": 92,
      "chip": "ym2612"
    },
    {
      "channel": 0,
      "note": 84,
      "start": 56.6681,
      "duration": 0.2797,
      "velocity": 92,
      "chip": "ym2612"
    },
    {
      "channel": 2,
      "note": 91,
      "start": 56.6694,
      "duration": 0.9157,
      "velocity": 93,
      "chip": "ym2612"
    },
    {
      "channel": 3,
      "note": 87,
      "start": 56.6702,
      "duration": 0.9157,
      "velocity": 93,
      "chip": "ym2612"
    },
    {
      "channel": 4,
      "note": 48,
      "start": 56.6712,
      "duration": 0.0783,
      "velocity": 97,
      "chip": "ym2612"
    },
    {
      "channel": 5,
      "note": 56,
      "start": 56.6746,
      "duration": 0.1066,
      "velocity": 117,
      "chip": "ym2612"
    },
    {
      "channel": 1,
      "note": 79,
      "start": 56.7158,
      "duration": 0.0826,
      "velocity": 92,
      "chip": "ym2612"
    },
    {
      "channel": 5,
      "note": 57,
      "start": 56.7892,
      "duration": 0.0919,
      "velocity": 115,
      "chip": "ym2612"
    },
    {
      "channel": 1,
      "note": 84,
      "start": 56.8325,
      "duration": 0.285,
      "velocity": 92,
      "chip": "ym2612"
    },
    {
      "channel": 4,
      "note": 60,
      "start": 56.8861,
      "duration": 0.1804,
      "velocity": 97,
      "chip": "ym2612"
    },
    {
      "channel": 5,
      "note": 57,
      "start": 56.8895,
      "duration": 0.1084,
      "velocity": 115,
      "chip": "ym2612"
    },
    {
      "channel": 0,
      "note": 82,
      "start": 57.0011,
      "duration": 0.28,
      "velocity": 92,
      "chip": "ym2612"
    },
    {
      "channel": 5,
      "note": 56,
      "start": 57.0063,
      "duration": 0.1082,
      "velocity": 117,
      "chip": "ym2612"
    },
    {
      "channel": 4,
      "note": 48,
      "start": 57.1193,
      "duration": 0.0804,
      "velocity": 97,
      "chip": "ym2612"
    },
    {
      "channel": 5,
      "note": 48,
      "start": 57.1227,
      "duration": 0.2251,
      "velocity": 127,
      "chip": "ym2612"
    },
    {
      "channel": 1,
      "note": 82,
      "start": 57.1824,
      "duration": 0.2826,
      "velocity": 92,
      "chip": "ym2612"
    },
    {
      "channel": 0,
      "note": 81,
      "start": 57.3511,
      "duration": 0.1802,
      "velocity": 92,
      "chip": "ym2612"
    },
    {
      "channel": 4,
      "note": 48,
      "start": 57.3533,
      "duration": 0.08,
      "velocity": 97,
      "chip": "ym2612"
    },
    {
      "channel": 5,
      "note": 56,
      "start": 57.3566,
      "duration": 0.2246,
      "velocity": 117,
      "chip": "ym2612"
    },
    {
      "channel": 4,
      "note": 48,
      "start": 57.4669,
      "duration": 0.1828,
      "velocity": 97,
      "chip": "ym2612"
    },
    {
      "channel": 1,
      "note": 81,
      "start": 57.5159,
      "duration": 0.1826,
      "velocity": 92,
      "chip": "ym2612"
    },
    {
      "channel": 0,
      "note": 87,
      "start": 57.5845,
      "duration": 0.2801,
      "velocity": 92,
      "chip": "ym2612"
    },
    {
      "channel": 2,
      "note": 84,
      "start": 57.5858,
      "duration": 0.4485,
      "velocity": 93,
      "chip": "ym2612"
    },
    {
      "channel": 3,
      "note": 79,
      "start": 57.5867,
      "duration": 0.4485,
      "velocity": 93,
      "chip": "ym2612"
    },
    {
      "channel": 5,
      "note": 57,
      "start": 57.5905,
      "duration": 0.0906,
      "velocity": 115,
      "chip": "ym2612"
    },
    {
      "channel": 4,
      "note": 48,
      "start": 57.6862,
      "duration": 0.0802,
      "velocity": 97,
      "chip": "ym2612"
    },
    {
      "channel": 5,
      "note": 57,
      "start": 57.6895,
      "duration": 0.1083,
      "velocity": 115,
      "chip": "ym2612"
    },
    {
      "channel": 1,
      "note": 87,
      "start": 57.7491,
      "duration": 0.2851,
      "velocity": 92,
      "chip": "ym2612"
    },
    {
      "channel": 5,
      "note": 56,
      "start": 57.8058,
      "duration": 0.2254,
      "velocity": 117,
      "chip": "ym2612"
    },
    {
      "channel": 0,
      "note": 89,
      "start": 57.9153,
      "duration": 0.2826,
      "velocity": 92,
      "chip": "ym2612"
    },
    {
      "channel": 4,
      "note": 60,
      "start": 57.9175,
      "duration": 0.0822,
      "velocity": 97,
      "chip": "ym2612"
    },
    {
      "channel": 2,
      "note": 87,
      "start": 58.035,
      "duration": 0.4506,
      "velocity": 93,
      "chip": "ym2612"
    },
    {
      "channel": 3,
      "note": 84,
      "start": 58.0359,
      "duration": 0.4506,
      "velocity": 93,
      "chip": "ym2612"
    },
    {
      "channel": 4,
      "note": 60,
      "start": 58.0368,
      "duration": 0.1794,
      "velocity": 97,
      "chip": "ym2612"
    },
    {
      "channel": 5,
      "note": 48,
      "start": 58.0402,
      "duration": 0.2244,
      "velocity": 127,
      "chip": "ym2612"
    },
    {
      "channel": 1,
      "note": 89,
      "start": 58.0823,
      "duration": 0.2829,
      "velocity": 92,
      "chip": "ym2612"
    },
    {
      "channel": 0,
      "note": 87,
      "start": 58.2678,
      "duration": 0.1801,
      "velocity": 92,
      "chip": "ym2612"
    },
    {
      "channel": 4,
      "note": 48,
      "start": 58.2701,
      "duration": 0.1793,
      "velocity": 97,
      "chip": "ym2612"
    },
    {
      "channel": 5,
      "note": 57,
      "start": 58.2734,
      "duration": 0.1078,
      "velocity": 115,
      "chip": "ym2612"
    },
    {
      "channel": 5,
      "note": 57,
      "start": 58.3892,
      "duration": 0.0921,
      "velocity": 115,
      "chip": "ym2612"
    },
    {
      "channel": 1,
      "note": 87,
      "start": 58.4325,
      "duration": 0.1823,
      "velocity": 92,
      "chip": "ym2612"
    },
    {
      "channel": 0,
      "note": 86,
      "start": 58.485,
      "duration": 1.1796,
      "velocity": 92,
      "chip": "ym2612"
    },
    {
      "channel": 2,
      "note": 89,
      "start": 58.4864,
      "duration": 1.8346,
      "velocity": 97,
      "chip": "ym2612"
    },
    {
      "channel": 3,
      "note": 86,
      "start": 58.4872,
      "duration": 1.8347,
      "velocity": 93,
      "chip": "ym2612"
    },
    {
      "channel": 4,
      "note": 50,
      "start": 58.4881,
      "duration": 0.0783,
      "velocity": 97,
      "chip": "ym2612"
    },
    {
      "channel": 5,
      "note": 56,
      "start": 58.4915,
      "duration": 0.1064,
      "velocity": 117,
      "chip": "ym2612"
    },
    {
      "channel": 5,
      "note": 57,
      "start": 58.6059,
      "duration": 0.1086,
      "velocity": 115,
      "chip": "ym2612"
    },
    {
      "channel": 1,
      "note": 86,
      "start": 58.6664,
      "duration": 1.182,
      "velocity": 92,
      "chip": "ym2612"
    },
    {
      "channel": 4,
      "note": 62,
      "start": 58.7197,
      "duration": 0.08,
      "velocity": 97,
      "chip": "ym2612"
    },
    {
      "channel": 5,
      "note": 57,
      "start": 58.723,
      "duration": 0.1082,
      "velocity": 115,
      "chip": "ym2612"
    },
    {
      "channel": 4,
      "note": 62,
      "start": 58.8362,
      "duration": 0.0803,
      "velocity": 97,
      "chip": "ym2612"
    },
    {
      "channel": 5,
      "note": 56,
      "start": 58.8395,
      "duration": 0.1082,
      "velocity": 117,
      "chip": "ym2612"
    },
    {
      "channel": 4,
      "note": 50,
      "start": 58.9528,
      "duration": 0.0804,
      "velocity": 97,
      "chip": "ym2612"
    },
    {
      "channel": 5,
      "note": 48,
      "start": 58.9561,
      "duration": 0.2251,
      "velocity": 127,
      "chip": "ym2612"
    },
    {
      "channel": 4,
      "note": 62,
      "start": 59.0671,
      "duration": 0.0824,
      "velocity": 97,
      "chip": "ym2612"
    },
    {
      "channel": 5,
      "note": 56,
      "start": 59.1893,
      "duration": 0.0917,
      "velocity": 117,
      "chip": "ym2612"
    },
    {
      "channel": 4,
      "note": 50,
      "start": 59.2861,
      "duration": 0.0804,
      "velocity": 97,
      "chip": "ym2612"
    },
    {
      "channel": 5,
      "note": 57,
      "start": 59.2894,
      "duration": 0.1085,
      "velocity": 115,
      "chip": "ym2612"
    },
    {
      "channel": 5,
      "note": 56,
      "start": 59.4059,
      "duration": 0.1086,
      "velocity": 117,
      "chip": "ym2612"
    },
    {
      "channel": 4,
      "note": 50,
      "start": 59.5197,
      "duration": 0.08,
      "velocity": 97,
      "chip": "ym2612"
    },
    {
      "channel": 5,
      "note": 48,
      "start": 59.5231,
      "duration": 0.1081,
      "velocity": 127,
      "chip": "ym2612"
    },
    {
      "channel": 5,
      "note": 48,
      "start": 59.6392,
      "duration": 0.1085,
      "velocity": 127,
      "chip": "ym2612"
    },
    {
      "channel": 4,
      "note": 62,
      "start": 59.7527,
      "duration": 0.0805,
      "velocity": 97,
      "chip": "ym2612"
    },
    {
      "channel": 5,
      "note": 48,
      "start": 59.7561,
      "duration": 0.1085,
      "velocity": 127,
      "chip": "ym2612"
    },
    {
      "channel": 4,
      "note": 62,
      "start": 59.8696,
      "duration": 0.1802,
      "velocity": 97,
      "chip": "ym2612"
    },
    {
      "channel": 5,
      "note": 48,
      "start": 59.8731,
      "duration": 0.208,
      "velocity": 127,
      "chip": "ym2612"
    },
    {
      "channel": 0,
      "note": 82,
      "start": 59.9841,
      "duration": 0.683,
      "velocity": 93,
      "chip": "ym2612"
    },
    {
      "channel": 4,
      "note": 50,
      "start": 60.0866,
      "duration": 0.0798,
      "velocity": 97,
      "chip": "ym2612"
    },
    {
      "channel": 5,
      "note": 48,
      "start": 60.09,
      "duration": 0.1079,
      "velocity": 127,
      "chip": "ym2612"
    },
    {
      "channel": 1,
      "note": 82,
      "start": 60.1511,
      "duration": 0.6807,
      "velocity": 93,
      "chip": "ym2612"
    },
    {
      "channel": 5,
      "note": 48,
      "start": 60.2063,
      "duration": 0.1082,
      "velocity": 127,
      "chip": "ym2612"
    },
    {
      "channel": 2,
      "note": 76,
      "start": 60.3217,
      "duration": 0.0771,
      "velocity": 97,
      "chip": "ym2612"
    },
    {
      "channel": 4,
      "note": 49,
      "start": 60.3231,
      "duration": 0.1767,
      "velocity": 97,
      "chip": "ym2612"
    },
    {
      "channel": 5,
      "note": 56,
      "start": 60.3265,
      "duration": 0.1047,
      "velocity": 117,
      "chip": "ym2612"
    },
    {
      "channel": 2,
      "note": 85,
      "start": 60.4355,
      "duration": 0.0801,
      "velocity": 97,
      "chip": "ym2612"
    },
    {
      "channel": 5,
      "note": 57,
      "start": 60.4393,
      "duration": 0.1084,
      "velocity": 115,
      "chip": "ym2612"
    },
    {
      "channel": 3,
      "note": 76,
      "start": 60.4696,
      "duration": 0.0824,
      "velocity": 97,
      "chip": "ym2612"
    },
    {
      "channel": 2,
      "note": 87,
      "start": 60.5519,
      "duration": 0.0804,
      "velocity": 97,
      "chip": "ym2612"
    },
    {
      "channel": 4,
      "note": 49,
      "start": 60.5528,
      "duration": 0.1802,
      "velocity": 97,
      "chip": "ym2612"
    },
    {
      "channel": 5,
      "note": 56,
      "start": 60.5562,
      "duration": 0.1083,
      "velocity": 117,
      "chip": "ym2612"
    },
    {
      "channel": 3,
      "note": 85,
      "start": 60.5835,
      "duration": 0.0857,
      "velocity": 97,
      "chip": "ym2612"
    },
    {
      "channel": 0,
      "note": 83,
      "start": 60.6678,
      "duration": 0.28,
      "velocity": 93,
      "chip": "ym2612"
    },
    {
      "channel": 2,
      "note": 88,
      "start": 60.6691,
      "duration": 0.0796,
      "velocity": 97,
      "chip": "ym2612"
    },
    {
      "channel": 5,
      "note": 57,
      "start": 60.673,
      "duration": 0.1082,
      "velocity": 115,
      "chip": "ym2612"
    },
    {
      "channel": 3,
      "note": 87,
      "start": 60.7,
      "duration": 0.0851,
      "velocity": 97,
      "chip": "ym2612"
    },
    {
      "channel": 4,
      "note": 49,
      "start": 60.7859,
      "duration": 0.1802,
      "velocity": 97,
      "chip": "ym2612"
    },
    {
      "channel": 5,
      "note": 48,
      "start": 60.7893,
      "duration": 0.2086,
      "velocity": 127,
      "chip": "ym2612"
    },
    {
      "channel": 3,
      "note": 88,
      "start": 60.8165,
      "duration": 0.0829,
      "velocity": 97,
      "chip": "ym2612"
    },
    {
      "channel": 1,
      "note": 83,
      "start": 60.8325,
      "duration": 0.2851,
      "velocity": 93,
      "chip": "ym2612"
    },
    {
      "channel": 2,
      "note": 85,
      "start": 60.8832,
      "duration": 0.0823,
      "velocity": 97,
      "chip": "ym2612"
    },
    {
      "channel": 0,
      "note": 81,
      "start": 61.0012,
      "duration": 0.1801,
      "velocity": 93,
      "chip": "ym2612"
    },
    {
      "channel": 2,
      "note": 87,
      "start": 61.0025,
      "duration": 0.0795,
      "velocity": 97,
      "chip": "ym2612"
    },
    {
      "channel": 4,
      "note": 52,
      "start": 61.0039,
      "duration": 0.0786,
      "velocity": 97,
      "chip": "ym2612"
    },
    {
      "channel": 5,
      "note": 57,
      "start": 61.0073,
      "duration": 0.1072,
      "velocity": 115,
      "chip": "ym2612"
    },
    {
      "channel": 3,
      "note": 85,
      "start": 61.0505,
      "duration": 0.0821,
      "velocity": 97,
      "chip": "ym2612"
    },
    {
      "channel": 2,
      "note": 88,
      "start": 61.1184,
      "duration": 0.0805,
      "velocity": 97,
      "chip": "ym2612"
    },
    {
      "channel": 4,
      "note": 57,
      "start": 61.1197,
      "duration": 0.0797,
      "velocity": 97,
      "chip": "ym2612"
    },
    {
      "channel": 5,
      "note": 57,
      "start": 61.123,
      "duration": 0.1082,
      "velocity": 115,
      "chip": "ym2612"
    },
    {
      "channel": 3,
      "note": 87,
      "start": 61.1498,
      "duration": 0.0857,
      "velocity": 97,
      "chip": "ym2612"
    },
    {
      "channel": 1,
      "note": 81,
      "start": 61.1822,
      "duration": 0.1828,
      "velocity": 93,
      "chip": "ym2612"
    },
    {
      "channel": 0,
      "note": 81,
      "start": 61.2345,
      "duration": 0.0801,
      "velocity": 93,
      "chip": "ym2612"
    },
    {
      "channel": 5,
      "note": 56,
      "start": 61.2393,
      "duration": 0.1084,
      "velocity": 117,
      "chip": "ym2612"
    },
    {
      "channel": 3,
      "note": 88,
      "start": 61.2666,
      "duration": 0.0863,
      "velocity": 97,
      "chip": "ym2612"
    },
    {
      "channel": 0,
      "note": 88,
      "start": 61.351,
      "duration": 0.0804,
      "velocity": 93,
      "chip": "ym2612"
    },
    {
      "channel": 2,
      "note": 85,
      "start": 61.3528,
      "duration": 0.0791,
      "velocity": 97,
      "chip": "ym2612"
    },
    {
      "channel": 4,
      "note": 57,
      "start": 61.3538,
      "duration": 0.0788,
      "velocity": 97,
      "chip": "ym2612"
    },
    {
      "channel": 5,
      "note": 57,
      "start": 61.3572,
      "duration": 0.224,
      "velocity": 115,
      "chip": "ym2612"
    },
    {
      "channel": 1,
      "note": 81,
      "start": 61.3991,
      "duration": 0.0824,
      "velocity": 93,
      "chip": "ym2612"
    },
    {
      "channel": 2,
      "note": 87,
      "start": 61.4662,
      "duration": 0.0824,
      "velocity": 97,
      "chip": "ym2612"
    },
    {
      "channel": 3,
      "note": 85,
      "start": 61.5005,
      "duration": 0.0855,
      "velocity": 97,
      "chip": "ym2612"
    },
    {
      "channel": 1,
      "note": 88,
      "start": 61.5158,
      "duration": 0.0826,
      "velocity": 93,
      "chip": "ym2612"
    },
    {
      "channel": 0,
      "note": 87,
      "start": 61.5845,
      "duration": 0.2801,
      "velocity": 93,
      "chip": "ym2612"
    },
    {
      "channel": 2,
      "note": 88,
      "start": 61.5858,
      "duration": 0.0797,
      "velocity": 97,
      "chip": "ym2612"
    },
    {
      "channel": 4,
      "note": 57,
      "start": 61.5868,
      "duration": 0.0793,
      "velocity": 97,
      "chip": "ym2612"
    },
    {
      "channel": 5,
      "note": 57,
      "start": 61.5902,
      "duration": 0.0909,
      "velocity": 115,
      "chip": "ym2612"
    },
    {
      "channel": 3,
      "note": 87,
      "start": 61.6165,
      "duration": 0.083,
      "velocity": 97,
      "chip": "ym2612"
    },
    {
      "channel": 4,
      "note": 57,
      "start": 61.6861,
      "duration": 0.18,
      "velocity": 97,
      "chip": "ym2612"
    },
    {
      "channel": 5,
      "note": 48,
      "start": 61.6895,
      "duration": 0.2251,
      "velocity": 127,
      "chip": "ym2612"
    },
    {
      "channel": 3,
      "note": 88,
      "start": 61.7333,
      "duration": 0.0825,
      "velocity": 97,
      "chip": "ym2612"
    },
    {
      "channel": 1,
      "note": 87,
      "start": 61.7491,
      "duration": 0.2851,
      "velocity": 93,
      "chip": "ym2612"
    },
    {
      "channel": 2,
      "note": 85,
      "start": 61.8,
      "duration": 0.0819,
      "velocity": 97,
      "chip": "ym2612"
    },
    {
      "channel": 0,
      "note": 85,
      "start": 61.9178,
      "duration": 0.1802,
      "velocity": 93,
      "chip": "ym2612"
    },
    {
      "channel": 2,
      "note": 87,
      "start": 61.9192,
      "duration": 0.0796,
      "velocity": 97,
      "chip": "ym2612"
    },
    {
      "channel": 4,
      "note": 57,
      "start": 61.9205,
      "duration": 0.179,
      "velocity": 97,
      "chip": "ym2612"
    },
    {
      "channel": 5,
      "note": 57,
      "start": 61.9239,
      "duration": 0.1073,
      "velocity": 115,
      "chip": "ym2612"
    },
    {
      "channel": 3,
      "note": 85,
      "start": 61.9503,
      "duration": 0.0849,
      "velocity": 97,
      "chip": "ym2612"
    },
    {
      "channel": 2,
      "note": 88,
      "start": 62.035,
      "duration": 0.0805,
      "velocity": 97,
      "chip": "ym2612"
    },
    {
      "channel": 5,
      "note": 57,
      "start": 62.039,
      "duration": 0.1088,
      "velocity": 115,
      "chip": "ym2612"
    },
    {
      "channel": 3,
      "note": 87,
      "start": 62.0667,
      "duration": 0.0856,
      "velocity": 97,
      "chip": "ym2612"
    },
    {
      "channel": 1,
      "note": 85,
      "start": 62.0824,
      "duration": 0.1851,
      "velocity": 93,
      "chip": "ym2612"
    },
    {
      "channel": 0,
      "note": 87,
      "start": 62.1511,
      "duration": 0.1802,
      "velocity": 93,
      "chip": "ym2612"
    },
    {
      "channel": 4,
      "note": 59,
      "start": 62.1532,
      "duration": 0.1789,
      "velocity": 97,
      "chip": "ym2612"
    },
    {
      "channel": 5,
      "note": 56,
      "start": 62.1565,
      "duration": 0.1081,
      "velocity": 117,
      "chip": "ym2612"
    },
    {
      "channel": 3,
      "note": 88,
      "start": 62.1829,
      "duration": 0.0848,
      "velocity": 97,
      "chip": "ym2612"
    },
    {
      "channel": 5,
      "note": 57,
      "start": 62.2715,
      "duration": 0.2095,
      "velocity": 115,
      "chip": "ym2612"
    },
    {
      "channel": 1,
      "note": 87,
      "start": 62.3158,
      "duration": 0.1827,
      "velocity": 93,
      "chip": "ym2612"
    },
    {
      "channel": 0,
      "note": 85,
      "start": 62.382,
      "duration": 0.1826,
      "velocity": 93,
      "chip": "ym2612"
    },
    {
      "channel": 4,
      "note": 59,
      "start": 62.3834,
      "duration": 0.1819,
      "velocity": 97,
      "chip": "ym2612"
    },
    {
      "channel": 5,
      "note": 57,
      "start": 62.4884,
      "duration": 0.1095,
      "velocity": 115,
      "chip": "ym2612"
    },
    {
      "channel": 1,
      "note": 85,
      "start": 62.549,
      "duration": 0.1828,
      "velocity": 93,
      "chip": "ym2612"
    },
    {
      "channel": 0,
      "note": 83,
      "start": 62.6012,
      "duration": 0.0799,
      "velocity": 93,
      "chip": "ym2612"
    },
    {
      "channel": 4,
      "note": 59,
      "start": 62.6027,
      "duration": 0.1801,
      "velocity": 97,
      "chip": "ym2612"
    },
    {
      "channel": 5,
      "note": 48,
      "start": 62.606,
      "duration": 0.2252,
      "velocity": 127,
      "chip": "ym2612"
    },
    {
      "channel": 0,
      "note": 81,
      "start": 62.7153,
      "duration": 0.0826,
      "velocity": 93,
      "chip": "ym2612"
    },
    {
      "channel": 1,
      "note": 83,
      "start": 62.7825,
      "duration": 0.0826,
      "velocity": 93,
      "chip": "ym2612"
    },
    {
      "channel": 4,
      "note": 59,
      "start": 62.8356,
      "duration": 0.08,
      "velocity": 97,
      "chip": "ym2612"
    },
    {
      "channel": 5,
      "note": 57,
      "start": 62.8389,
      "duration": 0.1088,
      "velocity": 115,
      "chip": "ym2612"
    },
    {
      "channel": 1,
      "note": 81,
      "start": 62.8822,
      "duration": 0.0828,
      "velocity": 93,
      "chip": "ym2612"
    },
    {
      "channel": 0,
      "note": 80,
      "start": 62.9511,
      "duration": 0.566,
      "velocity": 93,
      "chip": "ym2612"
    },
    {
      "channel": 4,
      "note": 52,
      "start": 62.9524,
      "duration": 0.08,
      "velocity": 97,
      "chip": "ym2612"
    },
    {
      "channel": 5,
      "note": 57,
      "start": 62.9558,
      "duration": 0.1087,
      "velocity": 115,
      "chip": "ym2612"
    },
    {
      "channel": 5,
      "note": 56,
      "start": 63.0718,
      "duration": 0.1094,
      "velocity": 117,
      "chip": "ym2612"
    },
    {
      "channel": 1,
      "note": 80,
      "start": 63.1159,
      "duration": 0.5656,
      "velocity": 93,
      "chip": "ym2612"
    },
    {
      "channel": 4,
      "note": 52,
      "start": 63.1855,
      "duration": 0.0802,
      "velocity": 97,
      "chip": "ym2612"
    },
    {
      "channel": 5,
      "note": 57,
      "start": 63.1888,
      "duration": 0.209,
      "velocity": 115,
      "chip": "ym2612"
    },
    {
      "channel": 4,
      "note": 52,
      "start": 63.4021,
      "duration": 0.0801,
      "velocity": 97,
      "chip": "ym2612"
    },
    {
      "channel": 5,
      "note": 57,
      "start": 63.4055,
      "duration": 0.109,
      "velocity": 115,
      "chip": "ym2612"
    },
    {
      "channel": 4,
      "note": 52,
      "start": 63.5186,
      "duration": 0.1805,
      "velocity": 97,
      "chip": "ym2612"
    },
    {
      "channel": 5,
      "note": 48,
      "start": 63.522,
      "duration": 0.2258,
      "velocity": 127,
      "chip": "ym2612"
    },
    {
      "channel": 0,
      "note": 80,
      "start": 63.632,
      "duration": 0.0826,
      "velocity": 93,
      "chip": "ym2612"
    },
    {
      "channel": 0,
      "note": 81,
      "start": 63.751,
      "duration": 0.0804,
      "velocity": 93,
      "chip": "ym2612"
    },
    {
      "channel": 4,
      "note": 52,
      "start": 63.7524,
      "duration": 0.1799,
      "velocity": 97,
      "chip": "ym2612"
    },
    {
      "channel": 5,
      "note": 57,
      "start": 63.7558,
      "duration": 0.1088,
      "velocity": 115,
      "chip": "ym2612"
    },
    {
      "channel": 1,
      "note": 80,
      "start": 63.7991,
      "duration": 0.0824,
      "velocity": 93,
      "chip": "ym2612"
    },
    {
      "channel": 0,
      "note": 82,
      "start": 63.8678,
      "duration": 0.08,
      "velocity": 93,
      "chip": "ym2612"
    },
    {
      "channel": 5,
      "note": 57,
      "start": 63.8722,
      "duration": 0.1092,
      "velocity": 115,
      "chip": "ym2612"
    },
    {
      "channel": 1,
      "note": 81,
      "start": 63.9158,
      "duration": 0.0826,
      "velocity": 93,
      "chip": "ym2612"
    },
    {
      "channel": 0,
      "note": 83,
      "start": 63.9846,
      "duration": 0.08,
      "velocity": 93,
      "chip": "ym2612"
    },
    {
      "channel": 4,
      "note": 45,
      "start": 63.9862,
      "duration": 0.1794,
      "velocity": 97,
      "chip": "ym2612"
    },
    {
      "channel": 5,
      "note": 56,
      "start": 63.9895,
      "duration": 0.0915,
      "velocity": 117,
      "chip": "ym2612"
    },
    {
      "channel": 1,
      "note": 82,
      "start": 64.0324,
      "duration": 0.0826,
      "velocity": 93,
      "chip": "ym2612"
    },
    {
      "channel": 0,
      "note": 85,
      "start": 64.0844,
      "duration": 0.1802,
      "velocity": 93,
      "chip": "ym2612"
    },
    {
      "channel": 5,
      "note": 57,
      "start": 64.0888,
      "duration": 0.2258,
      "velocity": 115,
      "chip": "ym2612"
    },
    {
      "channel": 1,
      "note": 83,
      "start": 64.1489,
      "duration": 0.0829,
      "velocity": 93,
      "chip": "ym2612"
    },
    {
      "channel": 4,
      "note": 57,
      "start": 64.1997,
      "duration": 0.1827,
      "velocity": 97,
      "chip": "ym2612"
    },
    {
      "channel": 1,
      "note": 85,
      "start": 64.2656,
      "duration": 0.1828,
      "velocity": 93,
      "chip": "ym2612"
    },
    {
      "channel": 0,
      "note": 81,
      "start": 64.3178,
      "duration": 0.0801,
      "velocity": 93,
      "chip": "ym2612"
    },
    {
      "channel": 5,
      "note": 57,
      "start": 64.3222,
      "duration": 0.109,
      "velocity": 115,
      "chip": "ym2612"
    },
    {
      "channel": 4,
      "note": 45,
      "start": 64.4355,
      "duration": 0.18,
      "velocity": 97,
      "chip": "ym2612"
    },
    {
      "channel": 5,
      "note": 48,
      "start": 64.4389,
      "duration": 0.2256,
      "velocity": 127,
      "chip": "ym2612"
    },
    {
      "channel": 1,
      "note": 81,
      "start": 64.4823,
      "duration": 0.0828,
      "velocity": 93,
      "chip": "ym2612"
    },
    {
      "channel": 0,
      "note": 81,
      "start": 64.5485,
      "duration": 0.0829,
      "velocity": 93,
      "chip": "ym2612"
    },
    {
      "channel": 0,
      "note": 88,
      "start": 64.6678,
      "duration": 0.08,
      "velocity": 93,
      "chip": "ym2612"
    },
    {
      "channel": 4,
      "note": 57,
      "start": 64.6694,
      "duration": 0.0791,
      "velocity": 97,
      "chip": "ym2612"
    },
    {
      "channel": 5,
      "note": 57,
      "start": 64.6727,
      "duration": 0.1085,
      "velocity": 115,
      "chip": "ym2612"
    },
    {
      "channel": 1,
      "note": 81,
      "start": 64.7158,
      "duration": 0.0826,
      "velocity": 93,
      "chip": "ym2612"
    },
    {
      "channel": 4,
      "note": 47,
      "start": 64.7855,
      "duration": 0.0802,
      "velocity": 97,
      "chip": "ym2612"
    },
    {
      "channel": 5,
      "note": 57,
      "start": 64.7888,
      "duration": 0.0922,
      "velocity": 115,
      "chip": "ym2612"
    },
    {
      "channel": 1,
      "note": 88,
      "start": 64.8324,
      "duration": 0.0826,
      "velocity": 93,
      "chip": "ym2612"
    },
    {
      "channel": 0,
      "note": 90,
      "start": 64.8843,
      "duration": 0.0803,
      "velocity": 93,
      "chip": "ym2612"
    },
    {
      "channel": 5,
      "note": 56,
      "start": 64.8887,
      "duration": 0.1092,
      "velocity": 117,
      "chip": "ym2612"
    },
    {
      "channel": 4,
      "note": 59,
      "start": 65.0022,
      "duration": 0.1802,
      "velocity": 97,
      "chip": "ym2612"
    },
    {
      "channel": 5,
      "note": 57,
      "start": 65.0056,
      "duration": 0.2256,
      "velocity": 115,
      "chip": "ym2612"
    },
    {
      "channel": 1,
      "note": 90,
      "start": 65.0658,
      "duration": 0.0824,
      "velocity": 93,
      "chip": "ym2612"
    },
    {
      "channel": 0,
      "note": 90,
      "start": 65.1153,
      "duration": 0.0826,
      "velocity": 93,
      "chip": "ym2612"
    },
    {
      "channel": 4,
      "note": 47,
      "start": 65.2355,
      "duration": 0.0802,
      "velocity": 97,
      "chip": "ym2612"
    },
    {
      "channel": 5,
      "note": 57,
      "start": 65.2389,
      "duration": 0.1088,
      "velocity": 115,
      "chip": "ym2612"
    },
    {
      "channel": 1,
      "note": 90,
      "start": 65.2822,
      "duration": 0.0828,
      "velocity": 93,
      "chip": "ym2612"
    },
    {
      "channel": 0,
      "note": 90,
      "start": 65.351,
      "duration": 0.0804,
      "velocity": 93,
      "chip": "ym2612"
    },
    {
      "channel": 4,
      "note": 59,
      "start": 65.3525,
      "duration": 0.1798,
      "velocity": 97,
      "chip": "ym2612"
    },
    {
      "channel": 5,
      "note": 48,
      "start": 65.3559,
      "duration": 0.2253,
      "velocity": 127,
      "chip": "ym2612"
    },
    {
      "channel": 0,
      "note": 76,
      "start": 65.4653,
      "duration": 0.0824,
      "velocity": 93,
      "chip": "ym2612"
    },
    {
      "channel": 1,
      "note": 90,
      "start": 65.5158,
      "duration": 0.0826,
      "velocity": 93,
      "chip": "ym2612"
    },
    {
      "channel": 0,
      "note": 78,
      "start": 65.5844,
      "duration": 0.0802,
      "velocity": 93,
      "chip": "ym2612"
    },
    {
      "channel": 4,
      "note": 47,
      "start": 65.5859,
      "duration": 0.1795,
      "velocity": 97,
      "chip": "ym2612"
    },
    {
      "channel": 5,
      "note": 57,
      "start": 65.5892,
      "duration": 0.0919,
      "velocity": 115,
      "chip": "ym2612"
    },
    {
      "channel": 1,
      "note": 76,
      "start": 65.6324,
      "duration": 0.0826,
      "velocity": 93,
      "chip": "ym2612"
    },
    {
      "channel": 0,
      "note": 80,
      "start": 65.6843,
      "duration": 0.0803,
      "velocity": 93,
      "chip": "ym2612"
    },
    {
      "channel": 5,
      "note": 57,
      "start": 65.6887,
      "duration": 0.1093,
      "velocity": 115,
      "chip": "ym2612"
    },
    {
      "channel": 1,
      "note": 78,
      "start": 65.7489,
      "duration": 0.0829,
      "velocity": 93,
      "chip": "ym2612"
    },
    {
      "channel": 0,
      "note": 81,
      "start": 65.8012,
      "duration": 0.0798,
      "velocity": 93,
      "chip": "ym2612"
    },
    {
      "channel": 2,
      "note": 75,
      "start": 65.8031,
      "duration": 0.0786,
      "velocity": 97,
      "chip": "ym2612"
    },
    {
      "channel": 4,
      "note": 47,
      "start": 65.8043,
      "duration": 0.1791,
      "velocity": 97,
      "chip": "ym2612"
    },
    {
      "channel": 5,
      "note": 56,
      "start": 65.8076,
      "duration": 0.1069,
      "velocity": 117,
      "chip": "ym2612"
    },
    {
      "channel": 1,
      "note": 80,
      "start": 65.8658,
      "duration": 0.0824,
      "velocity": 93,
      "chip": "ym2612"
    },
    {
      "channel": 0,
      "note": 83,
      "start": 65.9178,
      "duration": 0.0802,
      "velocity": 93,
      "chip": "ym2612"
    },
    {
      "channel": 2,
      "note": 85,
      "start": 65.9192,
      "duration": 0.0793,
      "velocity": 97,
      "chip": "ym2612"
    },
    {
      "channel": 5,
      "note": 57,
      "start": 65.9231,
      "duration": 0.2247,
      "velocity": 115,
      "chip": "ym2612"
    },
    {
      "channel": 3,
      "note": 75,
      "start": 65.9501,
      "duration": 0.0833,
      "velocity": 97,
      "chip": "ym2612"
    },
    {
      "channel": 1,
      "note": 81,
      "start": 65.9824,
      "duration": 0.0826,
      "velocity": 93,
      "chip": "ym2612"
    },
    {
      "channel": 0,
      "note": 85,
      "start": 66.032,
      "duration": 0.0826,
      "velocity": 93,
      "chip": "ym2612"
    },
    {
      "channel": 2,
      "note": 87,
      "start": 66.0332,
      "duration": 0.0819,
      "velocity": 97,
      "chip": "ym2612"
    },
    {
      "channel": 4,
      "note": 59,
      "start": 66.0343,
      "duration": 0.1819,
      "velocity": 97,
      "chip": "ym2612"
    },
    {
      "channel": 3,
      "note": 85,
      "start": 66.0665,
      "duration": 0.0859,
      "velocity": 97,
      "chip": "ym2612"
    },
    {
      "channel": 1,
      "note": 83,
      "start": 66.0822,
      "duration": 0.0828,
      "velocity": 93,
      "chip": "ym2612"
    },
    {
      "channel": 0,
      "note": 87,
      "start": 66.151,
      "duration": 0.0804,
      "velocity": 93,
      "chip": "ym2612"
    },
    {
      "channel": 2,
      "note": 88,
      "start": 66.1523,
      "duration": 0.0797,
      "velocity": 97,
      "chip": "ym2612"
    },
    {
      "channel": 5,
      "note": 57,
      "start": 66.1562,
      "duration": 0.1083,
      "velocity": 115,
      "chip": "ym2612"
    },
    {
      "channel": 3,
      "note": 87,
      "start": 66.1833,
      "duration": 0.0851,
      "velocity": 97,
      "chip": "ym2612"
    },
    {
      "channel": 1,
      "note": 85,
      "start": 66.1991,
      "duration": 0.0824,
      "velocity": 93,
      "chip": "ym2612"
    },
    {
      "channel": 4,
      "note": 47,
      "start": 66.2693,
      "duration": 0.1805,
      "velocity": 97,
      "chip": "ym2612"
    },
    {
      "channel": 5,
      "note": 48,
      "start": 66.2726,
      "duration": 0.2085,
      "velocity": 127,
      "chip": "ym2612"
    },
    {
      "channel": 3,
      "note": 88,
      "start": 66.3,
      "duration": 0.084,
      "velocity": 97,
      "chip": "ym2612"
    },
    {
      "channel": 1,
      "note": 87,
      "start": 66.3158,
      "duration": 0.0826,
      "velocity": 93,
      "chip": "ym2612"
    },
    {
      "channel": 0,
      "note": 87,
      "start": 66.382,
      "duration": 0.1826,
      "velocity": 93,
      "chip": "ym2612"
    },
    {
      "channel": 2,
      "note": 85,
      "start": 66.3839,
      "duration": 0.0816,
      "velocity": 97,
      "chip": "ym2612"
    },
    {
      "channel": 2,
      "note": 87,
      "start": 66.4851,
      "duration": 0.08,
      "velocity": 97,
      "chip": "ym2612"
    },
    {
      "channel": 4,
      "note": 59,
      "start": 66.4865,
      "duration": 0.1799,
      "velocity": 97,
      "chip": "ym2612"
    },
    {
      "channel": 5,
      "note": 57,
      "start": 66.4899,
      "duration": 0.108,
      "velocity": 115,
      "chip": "ym2612"
    },
    {
      "channel": 3,
      "note": 85,
      "start": 66.5338,
      "duration": 0.082,
      "velocity": 97,
      "chip": "ym2612"
    },
    {
      "channel": 1,
      "note": 87,
      "start": 66.549,
      "duration": 0.1827,
      "velocity": 93,
      "chip": "ym2612"
    },
    {
      "channel": 0,
      "note": 88,
      "start": 66.6013,
      "duration": 0.5634,
      "velocity": 93,
      "chip": "ym2612"
    },
    {
      "channel": 2,
      "note": 88,
      "start": 66.6026,
      "duration": 0.0794,
      "velocity": 97,
      "chip": "ym2612"
    },
    {
      "channel": 5,
      "note": 57,
      "start": 66.6068,
      "duration": 0.1077,
      "velocity": 115,
      "chip": "ym2612"
    },
    {
      "channel": 3,
      "note": 87,
      "start": 66.65,
      "duration": 0.0823,
      "velocity": 97,
      "chip": "ym2612"
    },
    {
      "channel": 4,
      "note": 61,
      "start": 66.7197,
      "duration": 0.08,
      "velocity": 97,
      "chip": "ym2612"
    },
    {
      "channel": 5,
      "note": 56,
      "start": 66.723,
      "duration": 0.1082,
      "velocity": 117,
      "chip": "ym2612"
    },
    {
      "channel": 3,
      "note": 88,
      "start": 66.7498,
      "duration": 0.0862,
      "velocity": 97,
      "chip": "ym2612"
    },
    {
      "channel": 1,
      "note": 88,
      "start": 66.7826,
      "duration": 0.5656,
      "velocity": 93,
      "chip": "ym2612"
    },
    {
      "channel": 2,
      "note": 85,
      "start": 66.8359,
      "duration": 0.0796,
      "velocity": 97,
      "chip": "ym2612"
    },
    {
      "channel": 4,
      "note": 61,
      "start": 66.8368,
      "duration": 0.0793,
      "velocity": 97,
      "chip": "ym2612"
    },
    {
      "channel": 5,
      "note": 56,
      "start": 66.8402,
      "duration": 0.2244,
      "velocity": 122,
      "chip": "ym2612"
    },
    {
      "channel": 2,
      "note": 87,
      "start": 66.9494,
      "duration": 0.0829,
      "velocity": 97,
      "chip": "ym2612"
    },
    {
      "channel": 4,
      "note": 61,
      "start": 66.9507,
      "duration": 0.1823,
      "velocity": 97,
      "chip": "ym2612"
    },
    {
      "channel": 3,
      "note": 85,
      "start": 66.9838,
      "duration": 0.085,
      "velocity": 97,
      "chip": "ym2612"
    },
    {
      "channel": 2,
      "note": 88,
      "start": 67.0687,
      "duration": 0.08,
      "velocity": 97,
      "chip": "ym2612"
    },
    {
      "channel": 5,
      "note": 51,
      "start": 67.0726,
      "duration": 0.1086,
      "velocity": 122,
      "chip": "ym2612"
    },
    {
      "channel": 3,
      "note": 87,
      "start": 67.1,
      "duration": 0.085,
      "velocity": 97,
      "chip": "ym2612"
    },
    {
      "channel": 4,
      "note": 49,
      "start": 67.1859,
      "duration": 0.1799,
      "velocity": 97,
      "chip": "ym2612"
    },
    {
      "channel": 5,
      "note": 48,
      "start": 67.1893,
      "duration": 0.2086,
      "velocity": 127,
      "chip": "ym2612"
    },
    {
      "channel": 3,
      "note": 88,
      "start": 67.2165,
      "duration": 0.0829,
      "velocity": 97,
      "chip": "ym2612"
    },
    {
      "channel": 0,
      "note": 88,
      "start": 67.2819,
      "duration": 0.0827,
      "velocity": 93,
      "chip": "ym2612"
    },
    {
      "channel": 2,
      "note": 85,
      "start": 67.2838,
      "duration": 0.0815,
      "velocity": 97,
      "chip": "ym2612"
    },
    {
      "channel": 0,
      "note": 87,
      "start": 67.4011,
      "duration": 0.08,
      "velocity": 93,
      "chip": "ym2612"
    },
    {
      "channel": 2,
      "note": 87,
      "start": 67.4024,
      "duration": 0.0793,
      "velocity": 97,
      "chip": "ym2612"
    },
    {
      "channel": 4,
      "note": 49,
      "start": 67.4037,
      "duration": 0.1798,
      "velocity": 97,
      "chip": "ym2612"
    },
    {
      "channel": 5,
      "note": 44,
      "start": 67.407,
      "duration": 0.2244,
      "velocity": 122,
      "chip": "ym2612"
    },
    {
      "channel": 3,
      "note": 85,
      "start": 67.4505,
      "duration": 0.0821,
      "velocity": 97,
      "chip": "ym2612"
    },
    {
      "channel": 1,
      "note": 88,
      "start": 67.4658,
      "duration": 0.0824,
      "velocity": 93,
      "chip": "ym2612"
    },
    {
      "channel": 0,
      "note": 86,
      "start": 67.5153,
      "duration": 0.0826,
      "velocity": 93,
      "chip": "ym2612"
    },
    {
      "channel": 2,
      "note": 88,
      "start": 67.5166,
      "duration": 0.0819,
      "velocity": 97,
      "chip": "ym2612"
    },
    {
      "channel": 3,
      "note": 87,
      "start": 67.5495,
      "duration": 0.0877,
      "velocity": 97,
      "chip": "ym2612"
    },
    {
      "channel": 1,
      "note": 87,
      "start": 67.5824,
      "duration": 0.0826,
      "velocity": 93,
      "chip": "ym2612"
    },
    {
      "channel": 0,
      "note": 85,
      "start": 67.6349,
      "duration": 0.2797,
      "velocity": 93,
      "chip": "ym2612"
    },
    {
      "channel": 2,
      "note": 76,
      "start": 67.6371,
      "duration": 0.0784,
      "velocity": 97,
      "chip": "ym2612"
    },
    {
      "channel": 4,
      "note": 49,
      "start": 67.6383,
      "duration": 0.1778,
      "velocity": 97,
      "chip": "ym2612"
    },
    {
      "channel": 5,
      "note": 56,
      "start": 67.6416,
      "duration": 0.2229,
      "velocity": 117,
      "chip": "ym2612"
    },
    {
      "channel": 3,
      "note": 88,
      "start": 67.6663,
      "duration": 0.0833,
      "velocity": 97,
      "chip": "ym2612"
    },
    {
      "channel": 1,
      "note": 86,
      "start": 67.6822,
      "duration": 0.0828,
      "velocity": 93,
      "chip": "ym2612"
    },
    {
      "channel": 2,
      "note": 85,
      "start": 67.7495,
      "duration": 0.0828,
      "velocity": 97,
      "chip": "ym2612"
    },
    {
      "channel": 3,
      "note": 76,
      "start": 67.7842,
      "duration": 0.0847,
      "velocity": 97,
      "chip": "ym2612"
    },
    {
      "channel": 1,
      "note": 85,
      "start": 67.7993,
      "duration": 0.2847,
      "velocity": 93,
      "chip": "ym2612"
    },
    {
      "channel": 2,
      "note": 87,
      "start": 67.8687,
      "duration": 0.08,
      "velocity": 97,
      "chip": "ym2612"
    },
    {
      "channel": 4,
      "note": 49,
      "start": 67.8697,
      "duration": 0.18,
      "velocity": 97,
      "chip": "ym2612"
    },
    {
      "channel": 5,
      "note": 57,
      "start": 67.873,
      "duration": 0.0582,
      "velocity": 115,
      "chip": "ym2612"
    },
    {
      "channel": 3,
      "note": 85,
      "start": 67.9001,
      "duration": 0.0833,
      "velocity": 97,
      "chip": "ym2612"
    },
    {
      "channel": 5,
      "note": 57,
      "start": 67.9391,
      "duration": 0.0753,
      "velocity": 115,
      "chip": "ym2612"
    },
    {
      "channel": 0,
      "note": 83,
      "start": 67.982,
      "duration": 0.2826,
      "velocity": 93,
      "chip": "ym2612"
    },
    {
      "channel": 2,
      "note": 88,
      "start": 67.9833,
      "duration": 0.0822,
      "velocity": 97,
      "chip": "ym2612"
    },
    {
      "channel": 3,
      "note": 87,
      "start": 68.0189,
      "duration": 0.0805,
      "velocity": 97,
      "chip": "ym2612"
    },
    {
      "channel": 5,
      "note": 57,
      "start": 68.0227,
      "duration": 0.0584,
      "velocity": 115,
      "chip": "ym2612"
    },
    {
      "channel": 4,
      "note": 49,
      "start": 68.0857,
      "duration": 0.1804,
      "velocity": 97,
      "chip": "ym2612"
    },
    {
      "channel": 5,
      "note": 48,
      "start": 68.0892,
      "duration": 0.2254,
      "velocity": 127,
      "chip": "ym2612"
    },
    {
      "channel": 3,
      "note": 88,
      "start": 68.1333,
      "duration": 0.0825,
      "velocity": 97,
      "chip": "ym2612"
    },
    {
      "channel": 1,
      "note": 83,
      "start": 68.149,
      "duration": 0.2852,
      "velocity": 93,
      "chip": "ym2612"
    },
    {
      "channel": 2,
      "note": 85,
      "start": 68.2,
      "duration": 0.0819,
      "velocity": 97,
      "chip": "ym2612"
    },
    {
      "channel": 0,
      "note": 81,
      "start": 68.3178,
      "duration": 0.1802,
      "velocity": 93,
      "chip": "ym2612"
    },
    {
      "channel": 2,
      "note": 87,
      "start": 68.3192,
      "duration": 0.0796,
      "velocity": 97,
      "chip": "ym2612"
    },
    {
      "channel": 4,
      "note": 52,
      "start": 68.3206,
      "duration": 0.0788,
      "velocity": 97,
      "chip": "ym2612"
    },
    {
      "channel": 5,
      "note": 57,
      "start": 68.324,
      "duration": 0.1072,
      "velocity": 115,
      "chip": "ym2612"
    },
    {
      "channel": 3,
      "note": 85,
      "start": 68.3503,
      "duration": 0.0849,
      "velocity": 97,
      "chip": "ym2612"
    },
    {
      "channel": 2,
      "note": 88,
      "start": 68.435,
      "duration": 0.0805,
      "velocity": 97,
      "chip": "ym2612"
    },
    {
      "channel": 4,
      "note": 57,
      "start": 68.4361,
      "duration": 0.08,
      "velocity": 97,
      "chip": "ym2612"
    },
    {
      "channel": 5,
      "note": 57,
      "start": 68.4394,
      "duration": 0.1083,
      "velocity": 115,
      "chip": "ym2612"
    },
    {
      "channel": 3,
      "note": 87,
      "start": 68.4667,
      "duration": 0.0854,
      "velocity": 97,
      "chip": "ym2612"
    },
    {
      "channel": 1,
      "note": 81,
      "start": 68.4824,
      "duration": 0.1856,
      "velocity": 93,
      "chip": "ym2612"
    },
    {
      "channel": 0,
      "note": 81,
      "start": 68.5511,
      "duration": 0.0803,
      "velocity": 93,
      "chip": "ym2612"
    },
    {
      "channel": 5,
      "note": 56,
      "start": 68.5559,
      "duration": 0.1086,
      "velocity": 117,
      "chip": "ym2612"
    },
    {
      "channel": 3,
      "note": 88,
      "start": 68.5833,
      "duration": 0.0861,
      "velocity": 97,
      "chip": "ym2612"
    },
    {
      "channel": 0,
      "note": 88,
      "start": 68.6678,
      "duration": 0.08,
      "velocity": 93,
      "chip": "ym2612"
    },
    {
      "channel": 2,
      "note": 85,
      "start": 68.6693,
      "duration": 0.0791,
      "velocity": 97,
      "chip": "ym2612"
    },
    {
      "channel": 4,
      "note": 57,
      "start": 68.6702,
      "duration": 0.0788,
      "velocity": 97,
      "chip": "ym2612"
    },
    {
      "channel": 5,
      "note": 56,
      "start": 68.6736,
      "duration": 0.1076,
      "velocity": 117,
      "chip": "ym2612"
    },
    {
      "channel": 1,
      "note": 81,
      "start": 68.7158,
      "duration": 0.0826,
      "velocity": 93,
      "chip": "ym2612"
    },
    {
      "channel": 2,
      "note": 87,
      "start": 68.7853,
      "duration": 0.0802,
      "velocity": 97,
      "chip": "ym2612"
    },
    {
      "channel": 5,
      "note": 57,
      "start": 68.7895,
      "duration": 0.0915,
      "velocity": 115,
      "chip": "ym2612"
    },
    {
      "channel": 3,
      "note": 85,
      "start": 68.817,
      "duration": 0.0824,
      "velocity": 97,
      "chip": "ym2612"
    },
    {
      "channel": 1,
      "note": 88,
      "start": 68.8324,
      "duration": 0.0826,
      "velocity": 93,
      "chip": "ym2612"
    },
    {
      "channel": 0,
      "note": 87,
      "start": 68.8844,
      "duration": 0.2803,
      "velocity": 93,
      "chip": "ym2612"
    },
    {
      "channel": 2,
      "note": 88,
      "start": 68.8857,
      "duration": 0.0798,
      "velocity": 97,
      "chip": "ym2612"
    },
    {
      "channel": 4,
      "note": 57,
      "start": 68.8869,
      "duration": 0.0791,
      "velocity": 97,
      "chip": "ym2612"
    },
    {
      "channel": 5,
      "note": 56,
      "start": 68.8903,
      "duration": 0.1076,
      "velocity": 117,
      "chip": "ym2612"
    },
    {
      "channel": 3,
      "note": 87,
      "start": 68.9333,
      "duration": 0.0825,
      "velocity": 97,
      "chip": "ym2612"
    },
    {
      "channel": 4,
      "note": 57,
      "start": 69.003,
      "duration": 0.1801,
      "velocity": 97,
      "chip": "ym2612"
    },
    {
      "channel": 5,
      "note": 48,
      "start": 69.0063,
      "duration": 0.2249,
      "velocity": 127,
      "chip": "ym2612"
    },
    {
      "channel": 3,
      "note": 88,
      "start": 69.05,
      "duration": 0.0826,
      "velocity": 97,
      "chip": "ym2612"
    },
    {
      "channel": 1,
      "note": 87,
      "start": 69.0659,
      "duration": 0.2848,
      "velocity": 93,
      "chip": "ym2612"
    },
    {
      "channel": 2,
      "note": 85,
      "start": 69.1168,
      "duration": 0.0821,
      "velocity": 97,
      "chip": "ym2612"
    },
    {
      "channel": 0,
      "note": 85,
      "start": 69.2345,
      "duration": 0.1799,
      "velocity": 93,
      "chip": "ym2612"
    },
    {
      "channel": 2,
      "note": 87,
      "start": 69.2359,
      "duration": 0.0796,
      "velocity": 97,
      "chip": "ym2612"
    },
    {
      "channel": 4,
      "note": 57,
      "start": 69.2372,
      "duration": 0.1787,
      "velocity": 97,
      "chip": "ym2612"
    },
    {
      "channel": 5,
      "note": 57,
      "start": 69.2406,
      "duration": 0.1072,
      "velocity": 115,
      "chip": "ym2612"
    },
    {
      "channel": 3,
      "note": 85,
      "start": 69.2671,
      "duration": 0.0846,
      "velocity": 97,
      "chip": "ym2612"
    },
    {
      "channel": 2,
      "note": 88,
      "start": 69.3516,
      "duration": 0.0807,
      "velocity": 97,
      "chip": "ym2612"
    },
    {
      "channel": 5,
      "note": 57,
      "start": 69.3555,
      "duration": 0.109,
      "velocity": 115,
      "chip": "ym2612"
    },
    {
      "channel": 3,
      "note": 87,
      "start": 69.3834,
      "duration": 0.0857,
      "velocity": 97,
      "chip": "ym2612"
    },
    {
      "channel": 1,
      "note": 85,
      "start": 69.3992,
      "duration": 0.1825,
      "velocity": 93,
      "chip": "ym2612"
    },
    {
      "channel": 0,
      "note": 87,
      "start": 69.4678,
      "duration": 0.1802,
      "velocity": 93,
      "chip": "ym2612"
    },
    {
      "channel": 4,
      "note": 59,
      "start": 69.4699,
      "duration": 0.1788,
      "velocity": 97,
      "chip": "ym2612"
    },
    {
      "channel": 5,
      "note": 56,
      "start": 69.4733,
      "duration": 0.2078,
      "velocity": 117,
      "chip": "ym2612"
    },
    {
      "channel": 3,
      "note": 88,
      "start": 69.4996,
      "duration": 0.0824,
      "velocity": 97,
      "chip": "ym2612"
    },
    {
      "channel": 1,
      "note": 87,
      "start": 69.6325,
      "duration": 0.1824,
      "velocity": 93,
      "chip": "ym2612"
    },
    {
      "channel": 0,
      "note": 85,
      "start": 69.6843,
      "duration": 0.1803,
      "velocity": 93,
      "chip": "ym2612"
    },
    {
      "channel": 4,
      "note": 59,
      "start": 69.6857,
      "duration": 0.18,
      "velocity": 97,
      "chip": "ym2612"
    },
    {
      "channel": 5,
      "note": 57,
      "start": 69.6891,
      "duration": 0.0754,
      "velocity": 115,
      "chip": "ym2612"
    },
    {
      "channel": 5,
      "note": 57,
      "start": 69.7718,
      "duration": 0.0761,
      "velocity": 115,
      "chip": "ym2612"
    },
    {
      "channel": 5,
      "note": 57,
      "start": 69.8552,
      "duration": 0.0593,
      "velocity": 115,
      "chip": "ym2612"
    },
    {
      "channel": 1,
      "note": 85,
      "start": 69.8655,
      "duration": 0.1829,
      "velocity": 93,
      "chip": "ym2612"
    },
    {
      "channel": 0,
      "note": 83,
      "start": 69.9178,
      "duration": 0.0801,
      "velocity": 93,
      "chip": "ym2612"
    },
    {
      "channel": 4,
      "note": 59,
      "start": 69.9193,
      "duration": 0.1798,
      "velocity": 97,
      "chip": "ym2612"
    },
    {
      "channel": 5,
      "note": 48,
      "start": 69.9227,
      "duration": 0.2251,
      "velocity": 127,
      "chip": "ym2612"
    },
    {
      "channel": 0,
      "note": 81,
      "start": 70.032,
      "duration": 0.0826,
      "velocity": 93,
      "chip": "ym2612"
    },
    {
      "channel": 1,
      "note": 83,
      "start": 70.0824,
      "duration": 0.0827,
      "velocity": 93,
      "chip": "ym2612"
    },
    {
      "channel": 4,
      "note": 59,
      "start": 70.1521,
      "duration": 0.0803,
      "velocity": 97,
      "chip": "ym2612"
    },
    {
      "channel": 5,
      "note": 57,
      "start": 70.1554,
      "duration": 0.1091,
      "velocity": 115,
      "chip": "ym2612"
    },
    {
      "channel": 1,
      "note": 81,
      "start": 70.1991,
      "duration": 0.0824,
      "velocity": 93,
      "chip": "ym2612"
    },
    {
      "channel": 0,
      "note": 80,
      "start": 70.2678,
      "duration": 0.5659,
      "velocity": 93,
      "chip": "ym2612"
    },
    {
      "channel": 4,
      "note": 52,
      "start": 70.2693,
      "duration": 0.0796,
      "velocity": 97,
      "chip": "ym2612"
    },
    {
      "channel": 5,
      "note": 56,
      "start": 70.2726,
      "duration": 0.1086,
      "velocity": 117,
      "chip": "ym2612"
    },
    {
      "channel": 5,
      "note": 57,
      "start": 70.3885,
      "duration": 0.0926,
      "velocity": 115,
      "chip": "ym2612"
    },
    {
      "channel": 1,
      "note": 80,
      "start": 70.4325,
      "duration": 0.5659,
      "velocity": 93,
      "chip": "ym2612"
    },
    {
      "channel": 4,
      "note": 52,
      "start": 70.4853,
      "duration": 0.0805,
      "velocity": 97,
      "chip": "ym2612"
    },
    {
      "channel": 5,
      "note": 56,
      "start": 70.4887,
      "duration": 0.1092,
      "velocity": 117,
      "chip": "ym2612"
    },
    {
      "channel": 5,
      "note": 57,
      "start": 70.6052,
      "duration": 0.1093,
      "velocity": 115,
      "chip": "ym2612"
    },
    {
      "channel": 4,
      "note": 52,
      "start": 70.7188,
      "duration": 0.0802,
      "velocity": 97,
      "chip": "ym2612"
    },
    {
      "channel": 5,
      "note": 56,
      "start": 70.7222,
      "duration": 0.109,
      "velocity": 117,
      "chip": "ym2612"
    },
    {
      "channel": 4,
      "note": 52,
      "start": 70.8353,
      "duration": 0.1802,
      "velocity": 97,
      "chip": "ym2612"
    },
    {
      "channel": 5,
      "note": 48,
      "start": 70.8387,
      "duration": 0.2259,
      "velocity": 127,
      "chip": "ym2612"
    },
    {
      "channel": 0,
      "note": 80,
      "start": 70.9486,
      "duration": 0.0828,
      "velocity": 93,
      "chip": "ym2612"
    },
    {
      "channel": 0,
      "note": 81,
      "start": 71.0678,
      "duration": 0.08,
      "velocity": 93,
      "chip": "ym2612"
    },
    {
      "channel": 4,
      "note": 52,
      "start": 71.0692,
      "duration": 0.1798,
      "velocity": 97,
      "chip": "ym2612"
    },
    {
      "channel": 5,
      "note": 57,
      "start": 71.0726,
      "duration": 0.1086,
      "velocity": 115,
      "chip": "ym2612"
    },
    {
      "channel": 1,
      "note": 80,
      "start": 71.1158,
      "duration": 0.0826,
      "velocity": 93,
      "chip": "ym2612"
    },
    {
      "channel": 0,
      "note": 82,
      "start": 71.1844,
      "duration": 0.0802,
      "velocity": 93,
      "chip": "ym2612"
    },
    {
      "channel": 5,
      "note": 57,
      "start": 71.1888,
      "duration": 0.0922,
      "velocity": 115,
      "chip": "ym2612"
    },
    {
      "channel": 1,
      "note": 81,
      "start": 71.2324,
      "duration": 0.0826,
      "velocity": 93,
      "chip": "ym2612"
    },
    {
      "channel": 0,
      "note": 83,
      "start": 71.2843,
      "duration": 0.0803,
      "velocity": 93,
      "chip": "ym2612"
    },
    {
      "channel": 4,
      "note": 45,
      "start": 71.286,
      "duration": 0.1801,
      "velocity": 97,
      "chip": "ym2612"
    },
    {
      "channel": 5,
      "note": 56,
      "start": 71.2893,
      "duration": 0.2252,
      "velocity": 117,
      "chip": "ym2612"
    },
    {
      "channel": 1,
      "note": 82,
      "start": 71.3489,
      "duration": 0.0829,
      "velocity": 93,
      "chip": "ym2612"
    },
    {
      "channel": 0,
      "note": 85,
      "start": 71.3988,
      "duration": 0.1825,
      "velocity": 93,
      "chip": "ym2612"
    },
    {
      "channel": 1,
      "note": 83,
      "start": 71.4658,
      "duration": 0.0824,
      "velocity": 93,
      "chip": "ym2612"
    },
    {
      "channel": 4,
      "note": 57,
      "start": 71.5188,
      "duration": 0.1803,
      "velocity": 97,
      "chip": "ym2612"
    },
    {
      "channel": 5,
      "note": 57,
      "start": 71.5222,
      "duration": 0.0757,
      "velocity": 115,
      "chip": "ym2612"
    },
    {
      "channel": 1,
      "note": 85,
      "start": 71.5822,
      "duration": 0.1828,
      "velocity": 93,
      "chip": "ym2612"
    },
    {
      "channel": 5,
      "note": 57,
      "start": 71.6051,
      "duration": 0.0595,
      "velocity": 115,
      "chip": "ym2612"
    },
    {
      "channel": 0,
      "note": 81,
      "start": 71.632,
      "duration": 0.0826,
      "velocity": 93,
      "chip": "ym2612"
    },
    {
      "channel": 5,
      "note": 57,
      "start": 71.6717,
      "duration": 0.076,
      "velocity": 115,
      "chip": "ym2612"
    },
    {
      "channel": 4,
      "note": 45,
      "start": 71.752,
      "duration": 0.1803,
      "velocity": 97,
      "chip": "ym2612"
    },
    {
      "channel": 5,
      "note": 48,
      "start": 71.7554,
      "duration": 0.2258,
      "velocity": 127,
      "chip": "ym2612"
    },
    {
      "channel": 1,
      "note": 81,
      "start": 71.7991,
      "duration": 0.0824,
      "velocity": 93,
      "chip": "ym2612"
    },
    {
      "channel": 0,
      "note": 81,
      "start": 71.8653,
      "duration": 0.0824,
      "velocity": 93,
      "chip": "ym2612"
    },
    {
      "channel": 0,
      "note": 88,
      "start": 71.9844,
      "duration": 0.0802,
      "velocity": 93,
      "chip": "ym2612"
    },
    {
      "channel": 4,
      "note": 57,
      "start": 71.9861,
      "duration": 0.0793,
      "velocity": 97,
      "chip": "ym2612"
    },
    {
      "channel": 5,
      "note": 57,
      "start": 71.9893,
      "duration": 0.0917,
      "velocity": 115,
      "chip": "ym2612"
    },
    {
      "channel": 1,
      "note": 81,
      "start": 72.0324,
      "duration": 0.0826,
      "velocity": 93,
      "chip": "ym2612"
    },
    {
      "channel": 4,
      "note": 47,
      "start": 72.0853,
      "duration": 0.0804,
      "velocity": 97,
      "chip": "ym2612"
    },
    {
      "channel": 5,
      "note": 57,
      "start": 72.0887,
      "duration": 0.1092,
      "velocity": 115,
      "chip": "ym2612"
    },
    {
      "channel": 1,
      "note": 88,
      "start": 72.1489,
      "duration": 0.0829,
      "velocity": 93,
      "chip": "ym2612"
    },
    {
      "channel": 0,
      "note": 90,
      "start": 72.2011,
      "duration": 0.08,
      "velocity": 93,
      "chip": "ym2612"
    },
    {
      "channel": 5,
      "note": 56,
      "start": 72.2055,
      "duration": 0.109,
      "velocity": 117,
      "chip": "ym2612"
    },
    {
      "channel": 4,
      "note": 59,
      "start": 72.3189,
      "duration": 0.1802,
      "velocity": 97,
      "chip": "ym2612"
    },
    {
      "channel": 5,
      "note": 57,
      "start": 72.3222,
      "duration": 0.109,
      "velocity": 115,
      "chip": "ym2612"
    },
    {
      "channel": 1,
      "note": 90,
      "start": 72.3825,
      "duration": 0.0826,
      "velocity": 93,
      "chip": "ym2612"
    },
    {
      "channel": 0,
      "note": 90,
      "start": 72.4344,
      "duration": 0.0802,
      "velocity": 93,
      "chip": "ym2612"
    },
    {
      "channel": 5,
      "note": 57,
      "start": 72.4388,
      "duration": 0.1089,
      "velocity": 115,
      "chip": "ym2612"
    },
    {
      "channel": 4,
      "note": 47,
      "start": 72.5521,
      "duration": 0.0803,
      "velocity": 97,
      "chip": "ym2612"
    },
    {
      "channel": 5,
      "note": 56,
      "start": 72.5554,
      "duration": 0.1092,
      "velocity": 117,
      "chip": "ym2612"
    },
    {
      "channel": 1,
      "note": 90,
      "start": 72.5991,
      "duration": 0.0824,
      "velocity": 93,
      "chip": "ym2612"
    },
    {
      "channel": 0,
      "note": 90,
      "start": 72.6678,
      "duration": 0.08,
      "velocity": 93,
      "chip": "ym2612"
    },
    {
      "channel": 4,
      "note": 59,
      "start": 72.6693,
      "duration": 0.1796,
      "velocity": 97,
      "chip": "ym2612"
    },
    {
      "channel": 5,
      "note": 48,
      "start": 72.6727,
      "duration": 0.2084,
      "velocity": 127,
      "chip": "ym2612"
    },
    {
      "channel": 0,
      "note": 88,
      "start": 72.7821,
      "duration": 0.1825,
      "velocity": 93,
      "chip": "ym2612"
    },
    {
      "channel": 1,
      "note": 90,
      "start": 72.8324,
      "duration": 0.0826,
      "velocity": 93,
      "chip": "ym2612"
    },
    {
      "channel": 4,
      "note": 47,
      "start": 72.8854,
      "duration": 0.1803,
      "velocity": 97,
      "chip": "ym2612"
    },
    {
      "channel": 5,
      "note": 56,
      "start": 72.8887,
      "duration": 0.226,
      "velocity": 117,
      "chip": "ym2612"
    },
    {
      "channel": 1,
      "note": 88,
      "start": 72.9491,
      "duration": 0.1826,
      "velocity": 93,
      "chip": "ym2612"
    },
    {
      "channel": 0,
      "note": 88,
      "start": 72.9988,
      "duration": 0.0823,
      "velocity": 93,
      "chip": "ym2612"
    },
    {
      "channel": 0,
      "note": 87,
      "start": 73.118,
      "duration": 0.1801,
      "velocity": 93,
      "chip": "ym2612"
    },
    {
      "channel": 2,
      "note": 75,
      "start": 73.1199,
      "duration": 0.0789,
      "velocity": 97,
      "chip": "ym2612"
    },
    {
      "channel": 4,
      "note": 47,
      "start": 73.1211,
      "duration": 0.1784,
      "velocity": 97,
      "chip": "ym2612"
    },
    {
      "channel": 5,
      "note": 56,
      "start": 73.1244,
      "duration": 0.2234,
      "velocity": 117,
      "chip": "ym2612"
    },
    {
      "channel": 1,
      "note": 88,
      "start": 73.1825,
      "duration": 0.0826,
      "velocity": 93,
      "chip": "ym2612"
    },
    {
      "channel": 2,
      "note": 85,
      "start": 73.233,
      "duration": 0.0825,
      "velocity": 97,
      "chip": "ym2612"
    },
    {
      "channel": 3,
      "note": 75,
      "start": 73.267,
      "duration": 0.0854,
      "velocity": 97,
      "chip": "ym2612"
    },
    {
      "channel": 1,
      "note": 87,
      "start": 73.2824,
      "duration": 0.1826,
      "velocity": 93,
      "chip": "ym2612"
    },
    {
      "channel": 0,
      "note": 75,
      "start": 73.3509,
      "duration": 0.1803,
      "velocity": 93,
      "chip": "ym2612"
    },
    {
      "channel": 2,
      "note": 87,
      "start": 73.3523,
      "duration": 0.08,
      "velocity": 97,
      "chip": "ym2612"
    },
    {
      "channel": 4,
      "note": 59,
      "start": 73.3532,
      "duration": 0.1795,
      "velocity": 97,
      "chip": "ym2612"
    },
    {
      "channel": 5,
      "note": 57,
      "start": 73.3566,
      "duration": 0.0578,
      "velocity": 115,
      "chip": "ym2612"
    },
    {
      "channel": 3,
      "note": 85,
      "start": 73.3834,
      "duration": 0.0826,
      "velocity": 97,
      "chip": "ym2612"
    },
    {
      "channel": 5,
      "note": 57,
      "start": 73.4223,
      "duration": 0.0756,
      "velocity": 115,
      "chip": "ym2612"
    },
    {
      "channel": 2,
      "note": 88,
      "start": 73.4659,
      "duration": 0.0827,
      "velocity": 97,
      "chip": "ym2612"
    },
    {
      "channel": 3,
      "note": 87,
      "start": 73.5024,
      "duration": 0.0831,
      "velocity": 97,
      "chip": "ym2612"
    },
    {
      "channel": 5,
      "note": 57,
      "start": 73.5062,
      "duration": 0.075,
      "velocity": 115,
      "chip": "ym2612"
    },
    {
      "channel": 1,
      "note": 75,
      "start": 73.5158,
      "duration": 0.1827,
      "velocity": 93,
      "chip": "ym2612"
    },
    {
      "channel": 0,
      "note": 78,
      "start": 73.5845,
      "duration": 0.0801,
      "velocity": 93,
      "chip": "ym2612"
    },
    {
      "channel": 4,
      "note": 47,
      "start": 73.5864,
      "duration": 0.1794,
      "velocity": 97,
      "chip": "ym2612"
    },
    {
      "channel": 5,
      "note": 48,
      "start": 73.5897,
      "duration": 0.2081,
      "velocity": 127,
      "chip": "ym2612"
    },
    {
      "channel": 3,
      "note": 88,
      "start": 73.6165,
      "duration": 0.0826,
      "velocity": 97,
      "chip": "ym2612"
    },
    {
      "channel": 0,
      "note": 83,
      "start": 73.6818,
      "duration": 0.0828,
      "velocity": 93,
      "chip": "ym2612"
    },
    {
      "channel": 2,
      "note": 85,
      "start": 73.6836,
      "duration": 0.0815,
      "velocity": 97,
      "chip": "ym2612"
    },
    {
      "channel": 1,
      "note": 78,
      "start": 73.749,
      "duration": 0.0829,
      "velocity": 93,
      "chip": "ym2612"
    },
    {
      "channel": 0,
      "note": 87,
      "start": 73.8011,
      "duration": 0.08,
      "velocity": 93,
      "chip": "ym2612"
    },
    {
      "channel": 2,
      "note": 87,
      "start": 73.8024,
      "duration": 0.0793,
      "velocity": 97,
      "chip": "ym2612"
    },
    {
      "channel": 4,
      "note": 59,
      "start": 73.8038,
      "duration": 0.0785,
      "velocity": 97,
      "chip": "ym2612"
    },
    {
      "channel": 5,
      "note": 57,
      "start": 73.8072,
      "duration": 0.1074,
      "velocity": 115,
      "chip": "ym2612"
    },
    {
      "channel": 3,
      "note": 85,
      "start": 73.8505,
      "duration": 0.0821,
      "velocity": 97,
      "chip": "ym2612"
    },
    {
      "channel": 1,
      "note": 83,
      "start": 73.8658,
      "duration": 0.0824,
      "velocity": 93,
      "chip": "ym2612"
    },
    {
      "channel": 0,
      "note": 88,
      "start": 73.918,
      "duration": 0.7631,
      "velocity": 93,
      "chip": "ym2612"
    },
    {
      "channel": 2,
      "note": 88,
      "start": 73.9193,
      "duration": 0.0796,
      "velocity": 97,
      "chip": "ym2612"
    },
    {
      "channel": 4,
      "note": 61,
      "start": 73.9206,
      "duration": 0.1793,
      "velocity": 97,
      "chip": "ym2612"
    },
    {
      "channel": 5,
      "note": 57,
      "start": 73.924,
      "duration": 0.1072,
      "velocity": 115,
      "chip": "ym2612"
    },
    {
      "channel": 3,
      "note": 87,
      "start": 73.9495,
      "duration": 0.0856,
      "velocity": 97,
      "chip": "ym2612"
    },
    {
      "channel": 1,
      "note": 87,
      "start": 73.9824,
      "duration": 0.0826,
      "velocity": 93,
      "chip": "ym2612"
    },
    {
      "channel": 5,
      "note": 56,
      "start": 74.0389,
      "duration": 0.1088,
      "velocity": 117,
      "chip": "ym2612"
    },
    {
      "channel": 3,
      "note": 88,
      "start": 74.0663,
      "duration": 0.0862,
      "velocity": 97,
      "chip": "ym2612"
    },
    {
      "channel": 1,
      "note": 88,
      "start": 74.0825,
      "duration": 0.7659,
      "velocity": 93,
      "chip": "ym2612"
    },
    {
      "channel": 2,
      "note": 85,
      "start": 74.1524,
      "duration": 0.0799,
      "velocity": 97,
      "chip": "ym2612"
    },
    {
      "channel": 4,
      "note": 59,
      "start": 74.1535,
      "duration": 0.0794,
      "velocity": 97,
      "chip": "ym2612"
    },
    {
      "channel": 5,
      "note": 56,
      "start": 74.1568,
      "duration": 0.2244,
      "velocity": 117,
      "chip": "ym2612"
    },
    {
      "channel": 2,
      "note": 87,
      "start": 74.2662,
      "duration": 0.0825,
      "velocity": 97,
      "chip": "ym2612"
    },
    {
      "channel": 4,
      "note": 56,
      "start": 74.2675,
      "duration": 0.1823,
      "velocity": 97,
      "chip": "ym2612"
    },
    {
      "channel": 3,
      "note": 85,
      "start": 74.3005,
      "duration": 0.0851,
      "velocity": 97,
      "chip": "ym2612"
    },
    {
      "channel": 2,
      "note": 88,
      "start": 74.3854,
      "duration": 0.0801,
      "velocity": 97,
      "chip": "ym2612"
    },
    {
      "channel": 5,
      "note": 56,
      "start": 74.3893,
      "duration": 0.0917,
      "velocity": 117,
      "chip": "ym2612"
    },
    {
      "channel": 3,
      "note": 87,
      "start": 74.4165,
      "duration": 0.0829,
      "velocity": 97,
      "chip": "ym2612"
    },
    {
      "channel": 4,
      "note": 52,
      "start": 74.4862,
      "duration": 0.0803,
      "velocity": 97,
      "chip": "ym2612"
    },
    {
      "channel": 5,
      "note": 48,
      "start": 74.4895,
      "duration": 0.1083,
      "velocity": 127,
      "chip": "ym2612"
    },
    {
      "channel": 3,
      "note": 88,
      "start": 74.5333,
      "duration": 0.0825,
      "velocity": 97,
      "chip": "ym2612"
    },
    {
      "channel": 2,
      "note": 85,
      "start": 74.6025,
      "duration": 0.0792,
      "velocity": 97,
      "chip": "ym2612"
    },
    {
      "channel": 4,
      "note": 51,
      "start": 74.6037,
      "duration": 0.0786,
      "velocity": 97,
      "chip": "ym2612"
    },
    {
      "channel": 5,
      "note": 48,
      "start": 74.6072,
      "duration": 0.1074,
      "velocity": 127,
      "chip": "ym2612"
    },
    {
      "channel": 2,
      "note": 87,
      "start": 74.7187,
      "duration": 0.0801,
      "velocity": 97,
      "chip": "ym2612"
    },
    {
      "channel": 4,
      "note": 49,
      "start": 74.7201,
      "duration": 0.1798,
      "velocity": 97,
      "chip": "ym2612"
    },
    {
      "channel": 5,
      "note": 48,
      "start": 74.7235,
      "duration": 0.1077,
      "velocity": 127,
      "chip": "ym2612"
    },
    {
      "channel": 3,
      "note": 85,
      "start": 74.7503,
      "duration": 0.0852,
      "velocity": 97,
      "chip": "ym2612"
    },
    {
      "channel": 2,
      "note": 88,
      "start": 74.8354,
      "duration": 0.0801,
      "velocity": 97,
      "chip": "ym2612"
    },
    {
      "channel": 5,
      "note": 48,
      "start": 74.8393,
      "duration": 0.1084,
      "velocity": 127,
      "chip": "ym2612"
    },
    {
      "channel": 3,
      "note": 87,
      "start": 74.8667,
      "duration": 0.0875,
      "velocity": 97,
      "chip": "ym2612"
    },
    {
      "channel": 5,
      "note": 56,
      "start": 74.9579,
      "duration": 0.2233,
      "velocity": 117,
      "chip": "ym2612"
    },
    {
      "channel": 3,
      "note": 88,
      "start": 74.9826,
      "duration": 0.0826,
      "velocity": 97,
      "chip": "ym2612"
    },
    {
      "channel": 2,
      "note": 85,
      "start": 75.1847,
      "duration": 0.5643,
      "velocity": 97,
      "chip": "ym2612"
    },
    {
      "channel": 3,
      "note": 76,
      "start": 75.1856,
      "duration": 0.5635,
      "velocity": 97,
      "chip": "ym2612"
    },
    {
      "channel": 5,
      "note": 44,
      "start": 75.189,
      "duration": 0.4442,
      "velocity": 122,
      "chip": "ym2612"
    },
    {
      "channel": 0,
      "note": 73,
      "start": 75.5182,
      "duration": 0.0798,
      "velocity": 107,
      "chip": "ym2612"
    },
    {
      "channel": 0,
      "note": 71,
      "start": 75.632,
      "duration": 0.0826,
      "velocity": 107,
      "chip": "ym2612"
    },
    {
      "channel": 1,
      "note": 73,
      "start": 75.6851,
      "duration": 0.08,
      "velocity": 107,
      "chip": "ym2612"
    },
    {
      "channel": 0,
      "note": 73,
      "start": 75.7485,
      "duration": 0.0829,
      "velocity": 107,
      "chip": "ym2612"
    },
    {
      "channel": 1,
      "note": 71,
      "start": 75.7991,
      "duration": 0.0824,
      "velocity": 107,
      "chip": "ym2612"
    },
    {
      "channel": 0,
      "note": 74,
      "start": 75.8682,
      "duration": 0.1798,
      "velocity": 107,
      "chip": "ym2612"
    },
    {
      "channel": 2,
      "note": 81,
      "start": 75.8695,
      "duration": 1.1794,
      "velocity": 97,
      "chip": "ym2612"
    },
    {
      "channel": 3,
      "note": 77,
      "start": 75.8705,
      "duration": 1.5789,
      "velocity": 97,
      "chip": "ym2612"
    },
    {
      "channel": 4,
      "note": 50,
      "start": 75.8716,
      "duration": 0.0779,
      "velocity": 97,
      "chip": "ym2612"
    },
    {
      "channel": 5,
      "note": 56,
      "start": 75.8749,
      "duration": 0.1063,
      "velocity": 117,
      "chip": "ym2612"
    },
    {
      "channel": 1,
      "note": 73,
      "start": 75.9158,
      "duration": 0.0826,
      "velocity": 107,
      "chip": "ym2612"
    },
    {
      "channel": 4,
      "note": 62,
      "start": 75.9862,
      "duration": 0.0802,
      "velocity": 97,
      "chip": "ym2612"
    },
    {
      "channel": 5,
      "note": 57,
      "start": 75.9896,
      "duration": 0.0915,
      "velocity": 115,
      "chip": "ym2612"
    },
    {
      "channel": 1,
      "note": 74,
      "start": 76.0325,
      "duration": 0.1823,
      "velocity": 107,
      "chip": "ym2612"
    },
    {
      "channel": 0,
      "note": 72,
      "start": 76.0843,
      "duration": 0.1803,
      "velocity": 107,
      "chip": "ym2612"
    },
    {
      "channel": 4,
      "note": 62,
      "start": 76.0864,
      "duration": 0.0801,
      "velocity": 97,
      "chip": "ym2612"
    },
    {
      "channel": 5,
      "note": 57,
      "start": 76.0898,
      "duration": 0.1081,
      "velocity": 115,
      "chip": "ym2612"
    },
    {
      "channel": 4,
      "note": 50,
      "start": 76.203,
      "duration": 0.0799,
      "velocity": 97,
      "chip": "ym2612"
    },
    {
      "channel": 5,
      "note": 56,
      "start": 76.2063,
      "duration": 0.1083,
      "velocity": 117,
      "chip": "ym2612"
    },
    {
      "channel": 1,
      "note": 72,
      "start": 76.2654,
      "duration": 0.1829,
      "velocity": 107,
      "chip": "ym2612"
    },
    {
      "channel": 0,
      "note": 70,
      "start": 76.3178,
      "duration": 0.0801,
      "velocity": 107,
      "chip": "ym2612"
    },
    {
      "channel": 5,
      "note": 48,
      "start": 76.323,
      "duration": 0.2248,
      "velocity": 127,
      "chip": "ym2612"
    },
    {
      "channel": 0,
      "note": 69,
      "start": 76.432,
      "duration": 0.0826,
      "velocity": 107,
      "chip": "ym2612"
    },
    {
      "channel": 4,
      "note": 50,
      "start": 76.4344,
      "duration": 0.1818,
      "velocity": 97,
      "chip": "ym2612"
    },
    {
      "channel": 1,
      "note": 70,
      "start": 76.4823,
      "duration": 0.0828,
      "velocity": 107,
      "chip": "ym2612"
    },
    {
      "channel": 5,
      "note": 57,
      "start": 76.5557,
      "duration": 0.1088,
      "velocity": 115,
      "chip": "ym2612"
    },
    {
      "channel": 1,
      "note": 69,
      "start": 76.5991,
      "duration": 0.0824,
      "velocity": 107,
      "chip": "ym2612"
    },
    {
      "channel": 0,
      "note": 69,
      "start": 76.6678,
      "duration": 0.1801,
      "velocity": 107,
      "chip": "ym2612"
    },
    {
      "channel": 4,
      "note": 50,
      "start": 76.6701,
      "duration": 0.0795,
      "velocity": 97,
      "chip": "ym2612"
    },
    {
      "channel": 5,
      "note": 56,
      "start": 76.6734,
      "duration": 0.1078,
      "velocity": 117,
      "chip": "ym2612"
    },
    {
      "channel": 5,
      "note": 57,
      "start": 76.7892,
      "duration": 0.0919,
      "velocity": 115,
      "chip": "ym2612"
    },
    {
      "channel": 1,
      "note": 69,
      "start": 76.8325,
      "duration": 0.1823,
      "velocity": 107,
      "chip": "ym2612"
    },
    {
      "channel": 0,
      "note": 74,
      "start": 76.8843,
      "duration": 0.1803,
      "velocity": 107,
      "chip": "ym2612"
    },
    {
      "channel": 4,
      "note": 62,
      "start": 76.8864,
      "duration": 0.0801,
      "velocity": 97,
      "chip": "ym2612"
    },
    {
      "channel": 5,
      "note": 56,
      "start": 76.8898,
      "duration": 0.1081,
      "velocity": 117,
      "chip": "ym2612"
    },
    {
      "channel": 5,
      "note": 57,
      "start": 77.0059,
      "duration": 0.1086,
      "velocity": 115,
      "chip": "ym2612"
    },
    {
      "channel": 1,
      "note": 74,
      "start": 77.0654,
      "duration": 0.1829,
      "velocity": 107,
      "chip": "ym2612"
    },
    {
      "channel": 0,
      "note": 76,
      "start": 77.1178,
      "duration": 0.0801,
      "velocity": 107,
      "chip": "ym2612"
    },
    {
      "channel": 4,
      "note": 50,
      "start": 77.1201,
      "duration": 0.0794,
      "velocity": 97,
      "chip": "ym2612"
    },
    {
      "channel": 5,
      "note": 56,
      "start": 77.1234,
      "duration": 0.1078,
      "velocity": 117,
      "chip": "ym2612"
    },
    {
      "channel": 0,
      "note": 77,
      "start": 77.2345,
      "duration": 0.1799,
      "velocity": 107,
      "chip": "ym2612"
    },
    {
      "channel": 4,
      "note": 62,
      "start": 77.2369,
      "duration": 0.1791,
      "velocity": 97,
      "chip": "ym2612"
    },
    {
      "channel": 5,
      "note": 48,
      "start": 77.2402,
      "duration": 0.2243,
      "velocity": 127,
      "chip": "ym2612"
    },
    {
      "channel": 1,
      "note": 76,
      "start": 77.2823,
      "duration": 0.0828,
      "velocity": 107,
      "chip": "ym2612"
    },
    {
      "channel": 1,
      "note": 77,
      "start": 77.3992,
      "duration": 0.1854,
      "velocity": 107,
      "chip": "ym2612"
    },
    {
      "channel": 0,
      "note": 76,
      "start": 77.4678,
      "duration": 0.0799,
      "velocity": 107,
      "chip": "ym2612"
    },
    {
      "channel": 2,
      "note": 81,
      "start": 77.4692,
      "duration": 0.1796,
      "velocity": 97,
      "chip": "ym2612"
    },
    {
      "channel": 4,
      "note": 62,
      "start": 77.4705,
      "duration": 0.1789,
      "velocity": 97,
      "chip": "ym2612"
    },
    {
      "channel": 5,
      "note": 57,
      "start": 77.4738,
      "duration": 0.1074,
      "velocity": 115,
      "chip": "ym2612"
    },
    {
      "channel": 0,
      "note": 77,
      "start": 77.5844,
      "duration": 0.0802,
      "velocity": 107,
      "chip": "ym2612"
    },
    {
      "channel": 5,
      "note": 57,
      "start": 77.5893,
      "duration": 0.0918,
      "velocity": 115,
      "chip": "ym2612"
    },
    {
      "channel": 1,
      "note": 76,
      "start": 77.6325,
      "duration": 0.0826,
      "velocity": 107,
      "chip": "ym2612"
    },
    {
      "channel": 0,
      "note": 79,
      "start": 77.6844,
      "duration": 0.1802,
      "velocity": 107,
      "chip": "ym2612"
    },
    {
      "channel": 2,
      "note": 79,
      "start": 77.6857,
      "duration": 1.1798,
      "velocity": 97,
      "chip": "ym2612"
    },
    {
      "channel": 3,
      "note": 76,
      "start": 77.6866,
      "duration": 1.5795,
      "velocity": 97,
      "chip": "ym2612"
    },
    {
      "channel": 4,
      "note": 48,
      "start": 77.6875,
      "duration": 0.0789,
      "velocity": 97,
      "chip": "ym2612"
    },
    {
      "channel": 5,
      "note": 56,
      "start": 77.6908,
      "duration": 0.1071,
      "velocity": 117,
      "chip": "ym2612"
    },
    {
      "channel": 1,
      "note": 77,
      "start": 77.7489,
      "duration": 0.0829,
      "velocity": 107,
      "chip": "ym2612"
    },
    {
      "channel": 4,
      "note": 60,
      "start": 77.8029,
      "duration": 0.08,
      "velocity": 97,
      "chip": "ym2612"
    },
    {
      "channel": 5,
      "note": 57,
      "start": 77.8063,
      "duration": 0.1083,
      "velocity": 115,
      "chip": "ym2612"
    },
    {
      "channel": 1,
      "note": 79,
      "start": 77.8656,
      "duration": 0.1828,
      "velocity": 107,
      "chip": "ym2612"
    },
    {
      "channel": 0,
      "note": 77,
      "start": 77.9177,
      "duration": 0.1803,
      "velocity": 107,
      "chip": "ym2612"
    },
    {
      "channel": 4,
      "note": 60,
      "start": 77.92,
      "duration": 0.0797,
      "velocity": 97,
      "chip": "ym2612"
    },
    {
      "channel": 5,
      "note": 57,
      "start": 77.9234,
      "duration": 0.1078,
      "velocity": 115,
      "chip": "ym2612"
    },
    {
      "channel": 4,
      "note": 48,
      "start": 78.0362,
      "duration": 0.0803,
      "velocity": 97,
      "chip": "ym2612"
    },
    {
      "channel": 5,
      "note": 57,
      "start": 78.0396,
      "duration": 0.1081,
      "velocity": 115,
      "chip": "ym2612"
    },
    {
      "channel": 1,
      "note": 77,
      "start": 78.0823,
      "duration": 0.1832,
      "velocity": 107,
      "chip": "ym2612"
    },
    {
      "channel": 0,
      "note": 76,
      "start": 78.1511,
      "duration": 0.0803,
      "velocity": 107,
      "chip": "ym2612"
    },
    {
      "channel": 5,
      "note": 48,
      "start": 78.1562,
      "duration": 0.225,
      "velocity": 127,
      "chip": "ym2612"
    },
    {
      "channel": 0,
      "note": 74,
      "start": 78.2653,
      "duration": 0.0824,
      "velocity": 107,
      "chip": "ym2612"
    },
    {
      "channel": 4,
      "note": 48,
      "start": 78.2673,
      "duration": 0.1826,
      "velocity": 97,
      "chip": "ym2612"
    },
    {
      "channel": 1,
      "note": 76,
      "start": 78.3158,
      "duration": 0.0826,
      "velocity": 107,
      "chip": "ym2612"
    },
    {
      "channel": 5,
      "note": 56,
      "start": 78.3893,
      "duration": 0.0918,
      "velocity": 117,
      "chip": "ym2612"
    },
    {
      "channel": 1,
      "note": 74,
      "start": 78.4324,
      "duration": 0.0826,
      "velocity": 107,
      "chip": "ym2612"
    },
    {
      "channel": 0,
      "note": 72,
      "start": 78.4844,
      "duration": 0.6634,
      "velocity": 107,
      "chip": "ym2612"
    },
    {
      "channel": 4,
      "note": 48,
      "start": 78.4866,
      "duration": 0.0798,
      "velocity": 97,
      "chip": "ym2612"
    },
    {
      "channel": 5,
      "note": 56,
      "start": 78.49,
      "duration": 0.1079,
      "velocity": 117,
      "chip": "ym2612"
    },
    {
      "channel": 5,
      "note": 57,
      "start": 78.6058,
      "duration": 0.0753,
      "velocity": 115,
      "chip": "ym2612"
    },
    {
      "channel": 1,
      "note": 72,
      "start": 78.6658,
      "duration": 0.6659,
      "velocity": 107,
      "chip": "ym2612"
    },
    {
      "channel": 5,
      "note": 57,
      "start": 78.689,
      "duration": 0.0587,
      "velocity": 115,
      "chip": "ym2612"
    },
    {
      "channel": 4,
      "note": 60,
      "start": 78.7172,
      "duration": 0.0825,
      "velocity": 97,
      "chip": "ym2612"
    },
    {
      "channel": 5,
      "note": 57,
      "start": 78.7557,
      "duration": 0.0755,
      "velocity": 115,
      "chip": "ym2612"
    },
    {
      "channel": 5,
      "note": 57,
      "start": 78.8392,
      "duration": 0.1085,
      "velocity": 115,
      "chip": "ym2612"
    },
    {
      "channel": 4,
      "note": 48,
      "start": 78.9527,
      "duration": 0.0805,
      "velocity": 97,
      "chip": "ym2612"
    },
    {
      "channel": 5,
      "note": 56,
      "start": 78.9561,
      "duration": 0.1085,
      "velocity": 117,
      "chip": "ym2612"
    },
    {
      "channel": 2,
      "note": 77,
      "start": 79.0688,
      "duration": 0.3635,
      "velocity": 97,
      "chip": "ym2612"
    },
    {
      "channel": 4,
      "note": 60,
      "start": 79.0701,
      "duration": 0.1797,
      "velocity": 97,
      "chip": "ym2612"
    },
    {
      "channel": 5,
      "note": 48,
      "start": 79.0735,
      "duration": 0.2076,
      "velocity": 127,
      "chip": "ym2612"
    },
    {
      "channel": 0,
      "note": 67,
      "start": 79.2844,
      "duration": 0.0802,
      "velocity": 107,
      "chip": "ym2612"
    },
    {
      "channel": 4,
      "note": 60,
      "start": 79.2866,
      "duration": 0.0795,
      "velocity": 97,
      "chip": "ym2612"
    },
    {
      "channel": 5,
      "note": 56,
      "start": 79.29,
      "duration": 0.1079,
      "velocity": 117,
      "chip": "ym2612"
    },
    {
      "channel": 0,
      "note": 69,
      "start": 79.4011,
      "duration": 0.08,
      "velocity": 107,
      "chip": "ym2612"
    },
    {
      "channel": 4,
      "note": 58,
      "start": 79.4033,
      "duration": 0.0793,
      "velocity": 97,
      "chip": "ym2612"
    },
    {
      "channel": 5,
      "note": 57,
      "start": 79.4066,
      "duration": 0.1082,
      "velocity": 115,
      "chip": "ym2612"
    },
    {
      "channel": 1,
      "note": 67,
      "start": 79.4658,
      "duration": 0.0824,
      "velocity": 107,
      "chip": "ym2612"
    },
    {
      "channel": 0,
      "note": 70,
      "start": 79.518,
      "duration": 0.08,
      "velocity": 107,
      "chip": "ym2612"
    },
    {
      "channel": 2,
      "note": 76,
      "start": 79.5194,
      "duration": 1.5794,
      "velocity": 97,
      "chip": "ym2612"
    },
    {
      "channel": 3,
      "note": 72,
      "start": 79.5202,
      "duration": 1.5788,
      "velocity": 97,
      "chip": "ym2612"
    },
    {
      "channel": 4,
      "note": 57,
      "start": 79.5212,
      "duration": 0.0782,
      "velocity": 97,
      "chip": "ym2612"
    },
    {
      "channel": 5,
      "note": 56,
      "start": 79.5245,
      "duration": 0.1067,
      "velocity": 117,
      "chip": "ym2612"
    },
    {
      "channel": 1,
      "note": 69,
      "start": 79.5824,
      "duration": 0.0826,
      "velocity": 107,
      "chip": "ym2612"
    },
    {
      "channel": 0,
      "note": 69,
      "start": 79.6344,
      "duration": 0.0802,
      "velocity": 107,
      "chip": "ym2612"
    },
    {
      "channel": 4,
      "note": 69,
      "start": 79.6366,
      "duration": 0.0795,
      "velocity": 97,
      "chip": "ym2612"
    },
    {
      "channel": 5,
      "note": 57,
      "start": 79.64,
      "duration": 0.1078,
      "velocity": 115,
      "chip": "ym2612"
    },
    {
      "channel": 1,
      "note": 70,
      "start": 79.6822,
      "duration": 0.0828,
      "velocity": 107,
      "chip": "ym2612"
    },
    {
      "channel": 0,
      "note": 70,
      "start": 79.7509,
      "duration": 0.0805,
      "velocity": 107,
      "chip": "ym2612"
    },
    {
      "channel": 4,
      "note": 69,
      "start": 79.7532,
      "duration": 0.0796,
      "velocity": 97,
      "chip": "ym2612"
    },
    {
      "channel": 5,
      "note": 57,
      "start": 79.7566,
      "duration": 0.1079,
      "velocity": 115,
      "chip": "ym2612"
    },
    {
      "channel": 1,
      "note": 69,
      "start": 79.7991,
      "duration": 0.0824,
      "velocity": 107,
      "chip": "ym2612"
    },
    {
      "channel": 0,
      "note": 72,
      "start": 79.8678,
      "duration": 0.08,
      "velocity": 107,
      "chip": "ym2612"
    },
    {
      "channel": 4,
      "note": 57,
      "start": 79.8699,
      "duration": 0.0795,
      "velocity": 97,
      "chip": "ym2612"
    },
    {
      "channel": 5,
      "note": 56,
      "start": 79.8733,
      "duration": 0.1079,
      "velocity": 117,
      "chip": "ym2612"
    },
    {
      "channel": 1,
      "note": 70,
      "start": 79.9158,
      "duration": 0.0826,
      "velocity": 107,
      "chip": "ym2612"
    },
    {
      "channel": 5,
      "note": 48,
      "start": 79.9892,
      "duration": 0.2086,
      "velocity": 127,
      "chip": "ym2612"
    },
    {
      "channel": 1,
      "note": 72,
      "start": 80.0324,
      "duration": 0.0826,
      "velocity": 107,
      "chip": "ym2612"
    },
    {
      "channel": 0,
      "note": 70,
      "start": 80.0818,
      "duration": 0.0828,
      "velocity": 107,
      "chip": "ym2612"
    },
    {
      "channel": 4,
      "note": 57,
      "start": 80.0841,
      "duration": 0.1827,
      "velocity": 97,
      "chip": "ym2612"
    },
    {
      "channel": 0,
      "note": 69,
      "start": 80.2011,
      "duration": 0.08,
      "velocity": 107,
      "chip": "ym2612"
    },
    {
      "channel": 5,
      "note": 57,
      "start": 80.2062,
      "duration": 0.1083,
      "velocity": 115,
      "chip": "ym2612"
    },
    {
      "channel": 1,
      "note": 70,
      "start": 80.2658,
      "duration": 0.0824,
      "velocity": 107,
      "chip": "ym2612"
    },
    {
      "channel": 0,
      "note": 72,
      "start": 80.3177,
      "duration": 0.0802,
      "velocity": 107,
      "chip": "ym2612"
    },
    {
      "channel": 4,
      "note": 57,
      "start": 80.32,
      "duration": 0.0794,
      "velocity": 97,
      "chip": "ym2612"
    },
    {
      "channel": 5,
      "note": 56,
      "start": 80.3234,
      "duration": 0.1078,
      "velocity": 117,
      "chip": "ym2612"
    },
    {
      "channel": 1,
      "note": 69,
      "start": 80.3824,
      "duration": 0.0826,
      "velocity": 107,
      "chip": "ym2612"
    },
    {
      "channel": 0,
      "note": 76,
      "start": 80.4345,
      "duration": 0.1799,
      "velocity": 107,
      "chip": "ym2612"
    },
    {
      "channel": 5,
      "note": 57,
      "start": 80.4397,
      "duration": 0.1081,
      "velocity": 115,
      "chip": "ym2612"
    },
    {
      "channel": 1,
      "note": 72,
      "start": 80.4822,
      "duration": 0.0828,
      "velocity": 107,
      "chip": "ym2612"
    },
    {
      "channel": 4,
      "note": 57,
      "start": 80.5528,
      "duration": 0.0803,
      "velocity": 97,
      "chip": "ym2612"
    },
    {
      "channel": 5,
      "note": 56,
      "start": 80.5561,
      "duration": 0.1084,
      "velocity": 117,
      "chip": "ym2612"
    },
    {
      "channel": 1,
      "note": 76,
      "start": 80.5992,
      "duration": 0.185,
      "velocity": 107,
      "chip": "ym2612"
    },
    {
      "channel": 0,
      "note": 77,
      "start": 80.6677,
      "duration": 0.1802,
      "velocity": 107,
      "chip": "ym2612"
    },
    {
      "channel": 5,
      "note": 57,
      "start": 80.6729,
      "duration": 0.1083,
      "velocity": 115,
      "chip": "ym2612"
    },
    {
      "channel": 4,
      "note": 57,
      "start": 80.7859,
      "duration": 0.0805,
      "velocity": 97,
      "chip": "ym2612"
    },
    {
      "channel": 5,
      "note": 56,
      "start": 80.7893,
      "duration": 0.0918,
      "velocity": 117,
      "chip": "ym2612"
    },
    {
      "channel": 1,
      "note": 77,
      "start": 80.8325,
      "duration": 0.1824,
      "velocity": 107,
      "chip": "ym2612"
    },
    {
      "channel": 0,
      "note": 79,
      "start": 80.8843,
      "duration": 0.1803,
      "velocity": 107,
      "chip": "ym2612"
    },
    {
      "channel": 4,
      "note": 69,
      "start": 80.8867,
      "duration": 0.1798,
      "velocity": 97,
      "chip": "ym2612"
    },
    {
      "channel": 5,
      "note": 48,
      "start": 80.89,
      "duration": 0.2245,
      "velocity": 127,
      "chip": "ym2612"
    },
    {
      "channel": 1,
      "note": 79,
      "start": 81.0654,
      "duration": 0.1829,
      "velocity": 107,
      "chip": "ym2612"
    },
    {
      "channel": 0,
      "note": 72,
      "start": 81.1178,
      "duration": 0.0801,
      "velocity": 107,
      "chip": "ym2612"
    },
    {
      "channel": 4,
      "note": 57,
      "start": 81.1201,
      "duration": 0.0794,
      "velocity": 97,
      "chip": "ym2612"
    },
    {
      "channel": 5,
      "note": 57,
      "start": 81.1234,
      "duration": 0.1078,
      "velocity": 115,
      "chip": "ym2612"
    },
    {
      "channel": 0,
      "note": 74,
      "start": 81.2345,
      "duration": 1.4826,
      "velocity": 107,
      "chip": "ym2612"
    },
    {
      "channel": 4,
      "note": 58,
      "start": 81.2369,
      "duration": 0.232,
      "velocity": 97,
      "chip": "ym2612"
    },
    {
      "channel": 5,
      "note": 56,
      "start": 81.2402,
      "duration": 0.1075,
      "velocity": 117,
      "chip": "ym2612"
    },
    {
      "channel": 1,
      "note": 72,
      "start": 81.2823,
      "duration": 0.0828,
      "velocity": 107,
      "chip": "ym2612"
    },
    {
      "channel": 2,
      "note": 77,
      "start": 81.3524,
      "duration": 0.7631,
      "velocity": 97,
      "chip": "ym2612"
    },
    {
      "channel": 3,
      "note": 74,
      "start": 81.3533,
      "duration": 0.7623,
      "velocity": 97,
      "chip": "ym2612"
    },
    {
      "channel": 5,
      "note": 57,
      "start": 81.3576,
      "duration": 0.107,
      "velocity": 115,
      "chip": "ym2612"
    },
    {
      "channel": 1,
      "note": 74,
      "start": 81.3992,
      "duration": 1.4824,
      "velocity": 107,
      "chip": "ym2612"
    },
    {
      "channel": 4,
      "note": 70,
      "start": 81.4696,
      "duration": 0.08,
      "velocity": 97,
      "chip": "ym2612"
    },
    {
      "channel": 5,
      "note": 57,
      "start": 81.4729,
      "duration": 0.1083,
      "velocity": 115,
      "chip": "ym2612"
    },
    {
      "channel": 4,
      "note": 70,
      "start": 81.5863,
      "duration": 0.0802,
      "velocity": 97,
      "chip": "ym2612"
    },
    {
      "channel": 5,
      "note": 57,
      "start": 81.5897,
      "duration": 0.0914,
      "velocity": 115,
      "chip": "ym2612"
    },
    {
      "channel": 4,
      "note": 58,
      "start": 81.6861,
      "duration": 0.0804,
      "velocity": 97,
      "chip": "ym2612"
    },
    {
      "channel": 5,
      "note": 56,
      "start": 81.6894,
      "duration": 0.1085,
      "velocity": 117,
      "chip": "ym2612"
    },
    {
      "channel": 5,
      "note": 48,
      "start": 81.806,
      "duration": 0.2252,
      "velocity": 127,
      "chip": "ym2612"
    },
    {
      "channel": 4,
      "note": 46,
      "start": 81.9173,
      "duration": 0.1826,
      "velocity": 97,
      "chip": "ym2612"
    },
    {
      "channel": 5,
      "note": 56,
      "start": 82.0392,
      "duration": 0.1085,
      "velocity": 117,
      "chip": "ym2612"
    },
    {
      "channel": 4,
      "note": 48,
      "start": 82.1524,
      "duration": 0.0808,
      "velocity": 97,
      "chip": "ym2612"
    },
    {
      "channel": 5,
      "note": 56,
      "start": 82.1558,
      "duration": 0.1088,
      "velocity": 117,
      "chip": "ym2612"
    },
    {
      "channel": 2,
      "note": 79,
      "start": 82.2688,
      "duration": 0.1801,
      "velocity": 97,
      "chip": "ym2612"
    },
    {
      "channel": 3,
      "note": 76,
      "start": 82.2696,
      "duration": 0.7629,
      "velocity": 97,
      "chip": "ym2612"
    },
    {
      "channel": 5,
      "note": 57,
      "start": 82.2733,
      "duration": 0.0579,
      "velocity": 115,
      "chip": "ym2612"
    },
    {
      "channel": 5,
      "note": 57,
      "start": 82.3392,
      "duration": 0.0753,
      "velocity": 115,
      "chip": "ym2612"
    },
    {
      "channel": 4,
      "note": 60,
      "start": 82.3838,
      "duration": 0.0826,
      "velocity": 97,
      "chip": "ym2612"
    },
    {
      "channel": 5,
      "note": 57,
      "start": 82.4224,
      "duration": 0.0587,
      "velocity": 115,
      "chip": "ym2612"
    },
    {
      "channel": 2,
      "note": 72,
      "start": 82.4852,
      "duration": 0.1803,
      "velocity": 97,
      "chip": "ym2612"
    },
    {
      "channel": 5,
      "note": 57,
      "start": 82.4894,
      "duration": 0.1085,
      "velocity": 115,
      "chip": "ym2612"
    },
    {
      "channel": 4,
      "note": 48,
      "start": 82.6028,
      "duration": 0.0801,
      "velocity": 97,
      "chip": "ym2612"
    },
    {
      "channel": 5,
      "note": 56,
      "start": 82.6062,
      "duration": 0.1083,
      "velocity": 117,
      "chip": "ym2612"
    },
    {
      "channel": 0,
      "note": 74,
      "start": 82.7178,
      "duration": 0.0801,
      "velocity": 107,
      "chip": "ym2612"
    },
    {
      "channel": 2,
      "note": 76,
      "start": 82.7191,
      "duration": 0.1798,
      "velocity": 97,
      "chip": "ym2612"
    },
    {
      "channel": 4,
      "note": 60,
      "start": 82.7205,
      "duration": 0.1791,
      "velocity": 97,
      "chip": "ym2612"
    },
    {
      "channel": 5,
      "note": 48,
      "start": 82.7239,
      "duration": 0.1073,
      "velocity": 127,
      "chip": "ym2612"
    },
    {
      "channel": 0,
      "note": 76,
      "start": 82.8344,
      "duration": 0.0802,
      "velocity": 107,
      "chip": "ym2612"
    },
    {
      "channel": 5,
      "note": 48,
      "start": 82.8397,
      "duration": 0.2249,
      "velocity": 127,
      "chip": "ym2612"
    },
    {
      "channel": 1,
      "note": 74,
      "start": 82.8823,
      "duration": 0.0828,
      "velocity": 107,
      "chip": "ym2612"
    },
    {
      "channel": 0,
      "note": 77,
      "start": 82.9485,
      "duration": 0.0829,
      "velocity": 107,
      "chip": "ym2612"
    },
    {
      "channel": 2,
      "note": 84,
      "start": 82.9497,
      "duration": 0.1824,
      "velocity": 97,
      "chip": "ym2612"
    },
    {
      "channel": 4,
      "note": 60,
      "start": 82.951,
      "duration": 0.1817,
      "velocity": 97,
      "chip": "ym2612"
    },
    {
      "channel": 1,
      "note": 76,
      "start": 82.9991,
      "duration": 0.0824,
      "velocity": 107,
      "chip": "ym2612"
    },
    {
      "channel": 0,
      "note": 72,
      "start": 83.0678,
      "duration": 0.08,
      "velocity": 107,
      "chip": "ym2612"
    },
    {
      "channel": 5,
      "note": 44,
      "start": 83.0729,
      "duration": 0.1085,
      "velocity": 122,
      "chip": "ym2612"
    },
    {
      "channel": 1,
      "note": 77,
      "start": 83.1158,
      "duration": 0.0756,
      "velocity": 107,
      "chip": "ym2612"
    },
    {
      "channel": 0,
      "note": 74,
      "start": 83.1848,
      "duration": 0.0066,
      "velocity": 107,
      "chip": "ym2612"
    },
    {
      "channel": 2,
      "note": 74,
      "start": 83.1861,
      "duration": 0.0052,
      "velocity": 97,
      "chip": "ym2612"
    },
    {
      "channel": 3,
      "note": 69,
      "start": 83.1871,
      "duration": 0.0043,
      "velocity": 97,
      "chip": "ym2612"
    },
    {
      "channel": 4,
      "note": 50,
      "start": 83.1881,
      "duration": 0.0033,
      "velocity": 97,
      "chip": "ym2612"
    }
  ]
}