{
  "track_name": "03 - Boss 1 (Mission 1-2-4)",
  "duration_sec": 92.302,
  "sample_rate": 44100,
  "note_count": 1373,
  "unique_pitches": 40,
  "pitch_range": 46,
  "avg_note_duration": 0.0915,
  "reconstruction_stats": {
    "notes_reconstructed": 1373,
    "keyon_events": 1373,
    "keyoff_events": 1372,
    "orphan_keyons": 1,
    "unique_pitches": 40,
    "pitch_range": 46,
    "avg_duration_sec": 0.0915
  },
  "metadata": {
    "source": "S\\Sol-Deace\\03 - Boss 1 (Mission 1-2-4).vgz"
  },
  "notes": [
    {
      "channel": 3,
      "note": 55,
      "start": 0.2111,
      "duration": 0.0124,
      "velocity": 88,
      "chip": "ym2612"
    },
    {
      "channel": 3,
      "note": 55,
      "start": 0.228,
      "duration": 0.0117,
      "velocity": 88,
      "chip": "ym2612"
    },
    {
      "channel": 3,
      "note": 55,
      "start": 0.2428,
      "duration": 0.0118,
      "velocity": 88,
      "chip": "ym2612"
    },
    {
      "channel": 3,
      "note": 55,
      "start": 0.2578,
      "duration": 0.0113,
      "velocity": 88,
      "chip": "ym2612"
    },
    {
      "channel": 3,
      "note": 55,
      "start": 0.2722,
      "duration": 0.0124,
      "velocity": 88,
      "chip": "ym2612"
    },
    {
      "channel": 3,
      "note": 55,
      "start": 0.2911,
      "duration": 0.0125,
      "velocity": 88,
      "chip": "ym2612"
    },
    {
      "channel": 3,
      "note": 55,
      "start": 0.3076,
      "duration": 0.0125,
      "velocity": 88,
      "chip": "ym2612"
    },
    {
      "channel": 3,
      "note": 55,
      "start": 0.3266,
      "duration": 0.0125,
      "velocity": 88,
      "chip": "ym2612"
    },
    {
      "channel": 3,
      "note": 55,
      "start": 0.343,
      "duration": 0.0131,
      "velocity": 88,
      "chip": "ym2612"
    },
    {
      "channel": 3,
      "note": 55,
      "start": 0.3628,
      "duration": 0.0132,
      "velocity": 88,
      "chip": "ym2612"
    },
    {
      "channel": 3,
      "note": 55,
      "start": 0.3793,
      "duration": 0.0132,
      "velocity": 88,
      "chip": "ym2612"
    },
    {
      "channel": 3,
      "note": 55,
      "start": 0.3991,
      "duration": 0.0132,
      "velocity": 88,
      "chip": "ym2612"
    },
    {
      "channel": 1,
      "note": 84,
      "start": 0.4171,
      "duration": 0.0287,
      "velocity": 102,
      "chip": "ym2612"
    },
    {
      "channel": 3,
      "note": 55,
      "start": 0.4181,
      "duration": 0.0118,
      "velocity": 88,
      "chip": "ym2612"
    },
    {
      "channel": 3,
      "note": 55,
      "start": 0.4341,
      "duration": 0.0119,
      "velocity": 88,
      "chip": "ym2612"
    },
    {
      "channel": 1,
      "note": 87,
      "start": 0.4485,
      "duration": 0.0305,
      "velocity": 102,
      "chip": "ym2612"
    },
    {
      "channel": 3,
      "note": 55,
      "start": 0.4495,
      "duration": 0.0117,
      "velocity": 88,
      "chip": "ym2612"
    },
    {
      "channel": 3,
      "note": 55,
      "start": 0.4675,
      "duration": 0.0117,
      "velocity": 88,
      "chip": "ym2612"
    },
    {
      "channel": 1,
      "note": 86,
      "start": 0.4834,
      "duration": 0.1434,
      "velocity": 102,
      "chip": "ym2612"
    },
    {
      "channel": 2,
      "note": 72,
      "start": 0.4862,
      "duration": 0.0236,
      "velocity": 100,
      "chip": "ym2612"
    },
    {
      "channel": 3,
      "note": 53,
      "start": 0.4872,
      "duration": 0.019,
      "velocity": 88,
      "chip": "ym2612"
    },
    {
      "channel": 4,
      "note": 74,
      "start": 0.49,
      "duration": 0.0199,
      "velocity": 100,
      "chip": "ym2612"
    },
    {
      "channel": 2,
      "note": 72,
      "start": 0.5252,
      "duration": 0.0173,
      "velocity": 100,
      "chip": "ym2612"
    },
    {
      "channel": 3,
      "note": 55,
      "start": 0.5257,
      "duration": 0.0135,
      "velocity": 88,
      "chip": "ym2612"
    },
    {
      "channel": 4,
      "note": 74,
      "start": 0.5262,
      "duration": 0.0166,
      "velocity": 100,
      "chip": "ym2612"
    },
    {
      "channel": 3,
      "note": 55,
      "start": 0.5609,
      "duration": 0.0129,
      "velocity": 88,
      "chip": "ym2612"
    },
    {
      "channel": 2,
      "note": 72,
      "start": 0.5776,
      "duration": 0.0166,
      "velocity": 100,
      "chip": "ym2612"
    },
    {
      "channel": 3,
      "note": 55,
      "start": 0.578,
      "duration": 0.0136,
      "velocity": 88,
      "chip": "ym2612"
    },
    {
      "channel": 4,
      "note": 74,
      "start": 0.5785,
      "duration": 0.0159,
      "velocity": 100,
      "chip": "ym2612"
    },
    {
      "channel": 2,
      "note": 72,
      "start": 0.6127,
      "duration": 0.0142,
      "velocity": 100,
      "chip": "ym2612"
    },
    {
      "channel": 3,
      "note": 55,
      "start": 0.6132,
      "duration": 0.0139,
      "velocity": 88,
      "chip": "ym2612"
    },
    {
      "channel": 4,
      "note": 74,
      "start": 0.6137,
      "duration": 0.0135,
      "velocity": 100,
      "chip": "ym2612"
    },
    {
      "channel": 1,
      "note": 81,
      "start": 0.63,
      "duration": 0.0144,
      "velocity": 102,
      "chip": "ym2612"
    },
    {
      "channel": 2,
      "note": 72,
      "start": 0.6306,
      "duration": 0.0635,
      "velocity": 100,
      "chip": "ym2612"
    },
    {
      "channel": 3,
      "note": 55,
      "start": 0.6311,
      "duration": 0.0137,
      "velocity": 88,
      "chip": "ym2612"
    },
    {
      "channel": 4,
      "note": 74,
      "start": 0.6316,
      "duration": 0.0627,
      "velocity": 100,
      "chip": "ym2612"
    },
    {
      "channel": 1,
      "note": 82,
      "start": 0.6483,
      "duration": 0.0125,
      "velocity": 102,
      "chip": "ym2612"
    },
    {
      "channel": 1,
      "note": 83,
      "start": 0.6637,
      "duration": 0.0134,
      "velocity": 102,
      "chip": "ym2612"
    },
    {
      "channel": 3,
      "note": 55,
      "start": 0.6643,
      "duration": 0.0131,
      "velocity": 88,
      "chip": "ym2612"
    },
    {
      "channel": 1,
      "note": 84,
      "start": 0.681,
      "duration": 0.0129,
      "velocity": 102,
      "chip": "ym2612"
    },
    {
      "channel": 1,
      "note": 85,
      "start": 0.6989,
      "duration": 0.0144,
      "velocity": 102,
      "chip": "ym2612"
    },
    {
      "channel": 2,
      "note": 72,
      "start": 0.6994,
      "duration": 0.0179,
      "velocity": 100,
      "chip": "ym2612"
    },
    {
      "channel": 3,
      "note": 53,
      "start": 0.7,
      "duration": 0.0135,
      "velocity": 88,
      "chip": "ym2612"
    },
    {
      "channel": 4,
      "note": 74,
      "start": 0.7005,
      "duration": 0.0171,
      "velocity": 100,
      "chip": "ym2612"
    },
    {
      "channel": 1,
      "note": 86,
      "start": 0.7172,
      "duration": 0.0133,
      "velocity": 102,
      "chip": "ym2612"
    },
    {
      "channel": 1,
      "note": 87,
      "start": 0.7334,
      "duration": 0.0139,
      "velocity": 102,
      "chip": "ym2612"
    },
    {
      "channel": 2,
      "note": 72,
      "start": 0.7339,
      "duration": 0.0174,
      "velocity": 100,
      "chip": "ym2612"
    },
    {
      "channel": 3,
      "note": 55,
      "start": 0.7343,
      "duration": 0.0132,
      "velocity": 88,
      "chip": "ym2612"
    },
    {
      "channel": 4,
      "note": 74,
      "start": 0.7348,
      "duration": 0.0167,
      "velocity": 100,
      "chip": "ym2612"
    },
    {
      "channel": 1,
      "note": 88,
      "start": 0.7511,
      "duration": 0.0131,
      "velocity": 102,
      "chip": "ym2612"
    },
    {
      "channel": 1,
      "note": 89,
      "start": 0.7672,
      "duration": 0.2769,
      "velocity": 102,
      "chip": "ym2612"
    },
    {
      "channel": 2,
      "note": 75,
      "start": 0.7678,
      "duration": 0.0176,
      "velocity": 100,
      "chip": "ym2612"
    },
    {
      "channel": 3,
      "note": 53,
      "start": 0.7683,
      "duration": 0.0137,
      "velocity": 88,
      "chip": "ym2612"
    },
    {
      "channel": 4,
      "note": 77,
      "start": 0.769,
      "duration": 0.0167,
      "velocity": 100,
      "chip": "ym2612"
    },
    {
      "channel": 2,
      "note": 75,
      "start": 0.8011,
      "duration": 0.0174,
      "velocity": 100,
      "chip": "ym2612"
    },
    {
      "channel": 3,
      "note": 55,
      "start": 0.8015,
      "duration": 0.0136,
      "velocity": 88,
      "chip": "ym2612"
    },
    {
      "channel": 4,
      "note": 77,
      "start": 0.8021,
      "duration": 0.0166,
      "velocity": 100,
      "chip": "ym2612"
    },
    {
      "channel": 3,
      "note": 55,
      "start": 0.8369,
      "duration": 0.0128,
      "velocity": 88,
      "chip": "ym2612"
    },
    {
      "channel": 2,
      "note": 75,
      "start": 0.8553,
      "duration": 0.0167,
      "velocity": 100,
      "chip": "ym2612"
    },
    {
      "channel": 3,
      "note": 55,
      "start": 0.8558,
      "duration": 0.0136,
      "velocity": 88,
      "chip": "ym2612"
    },
    {
      "channel": 4,
      "note": 77,
      "start": 0.8563,
      "duration": 0.0159,
      "velocity": 100,
      "chip": "ym2612"
    },
    {
      "channel": 2,
      "note": 75,
      "start": 0.8888,
      "duration": 0.0141,
      "velocity": 100,
      "chip": "ym2612"
    },
    {
      "channel": 3,
      "note": 55,
      "start": 0.8893,
      "duration": 0.0138,
      "velocity": 88,
      "chip": "ym2612"
    },
    {
      "channel": 4,
      "note": 77,
      "start": 0.8898,
      "duration": 0.0134,
      "velocity": 100,
      "chip": "ym2612"
    },
    {
      "channel": 2,
      "note": 75,
      "start": 0.9061,
      "duration": 0.0641,
      "velocity": 100,
      "chip": "ym2612"
    },
    {
      "channel": 3,
      "note": 58,
      "start": 0.9066,
      "duration": 0.0137,
      "velocity": 88,
      "chip": "ym2612"
    },
    {
      "channel": 4,
      "note": 77,
      "start": 0.9071,
      "duration": 0.0634,
      "velocity": 100,
      "chip": "ym2612"
    },
    {
      "channel": 3,
      "note": 56,
      "start": 0.9243,
      "duration": 0.0127,
      "velocity": 88,
      "chip": "ym2612"
    },
    {
      "channel": 3,
      "note": 55,
      "start": 0.94,
      "duration": 0.0132,
      "velocity": 88,
      "chip": "ym2612"
    },
    {
      "channel": 3,
      "note": 53,
      "start": 0.9572,
      "duration": 0.0132,
      "velocity": 88,
      "chip": "ym2612"
    },
    {
      "channel": 2,
      "note": 75,
      "start": 0.9752,
      "duration": 0.0183,
      "velocity": 100,
      "chip": "ym2612"
    },
    {
      "channel": 3,
      "note": 60,
      "start": 0.9757,
      "duration": 0.0137,
      "velocity": 88,
      "chip": "ym2612"
    },
    {
      "channel": 4,
      "note": 77,
      "start": 0.9762,
      "duration": 0.0179,
      "velocity": 100,
      "chip": "ym2612"
    },
    {
      "channel": 3,
      "note": 58,
      "start": 0.9939,
      "duration": 0.0132,
      "velocity": 88,
      "chip": "ym2612"
    },
    {
      "channel": 2,
      "note": 75,
      "start": 1.0124,
      "duration": 0.0183,
      "velocity": 100,
      "chip": "ym2612"
    },
    {
      "channel": 3,
      "note": 56,
      "start": 1.0129,
      "duration": 0.0135,
      "velocity": 88,
      "chip": "ym2612"
    },
    {
      "channel": 4,
      "note": 77,
      "start": 1.0134,
      "duration": 0.0179,
      "velocity": 100,
      "chip": "ym2612"
    },
    {
      "channel": 3,
      "note": 55,
      "start": 1.0311,
      "duration": 0.0133,
      "velocity": 88,
      "chip": "ym2612"
    },
    {
      "channel": 1,
      "note": 91,
      "start": 1.0472,
      "duration": 0.1398,
      "velocity": 102,
      "chip": "ym2612"
    },
    {
      "channel": 2,
      "note": 74,
      "start": 1.0479,
      "duration": 0.0141,
      "velocity": 100,
      "chip": "ym2612"
    },
    {
      "channel": 3,
      "note": 53,
      "start": 1.0484,
      "duration": 0.0136,
      "velocity": 88,
      "chip": "ym2612"
    },
    {
      "channel": 4,
      "note": 79,
      "start": 1.0491,
      "duration": 0.0132,
      "velocity": 100,
      "chip": "ym2612"
    },
    {
      "channel": 2,
      "note": 74,
      "start": 1.0659,
      "duration": 0.0131,
      "velocity": 100,
      "chip": "ym2612"
    },
    {
      "channel": 4,
      "note": 79,
      "start": 1.0665,
      "duration": 0.0127,
      "velocity": 100,
      "chip": "ym2612"
    },
    {
      "channel": 2,
      "note": 74,
      "start": 1.0819,
      "duration": 0.0139,
      "velocity": 100,
      "chip": "ym2612"
    },
    {
      "channel": 3,
      "note": 55,
      "start": 1.0824,
      "duration": 0.0135,
      "velocity": 88,
      "chip": "ym2612"
    },
    {
      "channel": 4,
      "note": 79,
      "start": 1.0829,
      "duration": 0.0132,
      "velocity": 100,
      "chip": "ym2612"
    },
    {
      "channel": 3,
      "note": 55,
      "start": 1.1182,
      "duration": 0.0129,
      "velocity": 88,
      "chip": "ym2612"
    },
    {
      "channel": 3,
      "note": 55,
      "start": 1.1369,
      "duration": 0.0132,
      "velocity": 88,
      "chip": "ym2612"
    },
    {
      "channel": 2,
      "note": 74,
      "start": 1.1548,
      "duration": 0.0137,
      "velocity": 100,
      "chip": "ym2612"
    },
    {
      "channel": 4,
      "note": 79,
      "start": 1.1554,
      "duration": 0.0134,
      "velocity": 100,
      "chip": "ym2612"
    },
    {
      "channel": 2,
      "note": 74,
      "start": 1.1727,
      "duration": 0.0144,
      "velocity": 100,
      "chip": "ym2612"
    },
    {
      "channel": 3,
      "note": 55,
      "start": 1.1732,
      "duration": 0.014,
      "velocity": 88,
      "chip": "ym2612"
    },
    {
      "channel": 4,
      "note": 79,
      "start": 1.1737,
      "duration": 0.0137,
      "velocity": 100,
      "chip": "ym2612"
    },
    {
      "channel": 1,
      "note": 94,
      "start": 1.1901,
      "duration": 0.0141,
      "velocity": 102,
      "chip": "ym2612"
    },
    {
      "channel": 2,
      "note": 74,
      "start": 1.1906,
      "duration": 0.0138,
      "velocity": 100,
      "chip": "ym2612"
    },
    {
      "channel": 3,
      "note": 55,
      "start": 1.1911,
      "duration": 0.0134,
      "velocity": 88,
      "chip": "ym2612"
    },
    {
      "channel": 4,
      "note": 79,
      "start": 1.1916,
      "duration": 0.013,
      "velocity": 100,
      "chip": "ym2612"
    },
    {
      "channel": 1,
      "note": 92,
      "start": 1.2082,
      "duration": 0.0128,
      "velocity": 102,
      "chip": "ym2612"
    },
    {
      "channel": 1,
      "note": 91,
      "start": 1.2239,
      "duration": 0.0133,
      "velocity": 102,
      "chip": "ym2612"
    },
    {
      "channel": 3,
      "note": 55,
      "start": 1.2244,
      "duration": 0.0129,
      "velocity": 88,
      "chip": "ym2612"
    },
    {
      "channel": 1,
      "note": 89,
      "start": 1.2411,
      "duration": 0.0132,
      "velocity": 102,
      "chip": "ym2612"
    },
    {
      "channel": 1,
      "note": 96,
      "start": 1.2595,
      "duration": 0.0141,
      "velocity": 102,
      "chip": "ym2612"
    },
    {
      "channel": 2,
      "note": 74,
      "start": 1.26,
      "duration": 0.0137,
      "velocity": 100,
      "chip": "ym2612"
    },
    {
      "channel": 3,
      "note": 53,
      "start": 1.2604,
      "duration": 0.0135,
      "velocity": 88,
      "chip": "ym2612"
    },
    {
      "channel": 4,
      "note": 79,
      "start": 1.2609,
      "duration": 0.0131,
      "velocity": 100,
      "chip": "ym2612"
    },
    {
      "channel": 1,
      "note": 94,
      "start": 1.2776,
      "duration": 0.0139,
      "velocity": 102,
      "chip": "ym2612"
    },
    {
      "channel": 2,
      "note": 74,
      "start": 1.2781,
      "duration": 0.0135,
      "velocity": 100,
      "chip": "ym2612"
    },
    {
      "channel": 4,
      "note": 79,
      "start": 1.2786,
      "duration": 0.0132,
      "velocity": 100,
      "chip": "ym2612"
    },
    {
      "channel": 1,
      "note": 92,
      "start": 1.2945,
      "duration": 0.0137,
      "velocity": 102,
      "chip": "ym2612"
    },
    {
      "channel": 2,
      "note": 74,
      "start": 1.2949,
      "duration": 0.0134,
      "velocity": 100,
      "chip": "ym2612"
    },
    {
      "channel": 3,
      "note": 55,
      "start": 1.2955,
      "duration": 0.0131,
      "velocity": 88,
      "chip": "ym2612"
    },
    {
      "channel": 4,
      "note": 79,
      "start": 1.2959,
      "duration": 0.0128,
      "velocity": 100,
      "chip": "ym2612"
    },
    {
      "channel": 1,
      "note": 91,
      "start": 1.3122,
      "duration": 0.0139,
      "velocity": 102,
      "chip": "ym2612"
    },
    {
      "channel": 2,
      "note": 74,
      "start": 1.3128,
      "duration": 0.0135,
      "velocity": 100,
      "chip": "ym2612"
    },
    {
      "channel": 4,
      "note": 79,
      "start": 1.3133,
      "duration": 0.0132,
      "velocity": 100,
      "chip": "ym2612"
    },
    {
      "channel": 1,
      "note": 91,
      "start": 1.3307,
      "duration": 0.2125,
      "velocity": 102,
      "chip": "ym2612"
    },
    {
      "channel": 2,
      "note": 74,
      "start": 1.3313,
      "duration": 0.0133,
      "velocity": 100,
      "chip": "ym2612"
    },
    {
      "channel": 3,
      "note": 53,
      "start": 1.3319,
      "duration": 0.0128,
      "velocity": 88,
      "chip": "ym2612"
    },
    {
      "channel": 4,
      "note": 79,
      "start": 1.3325,
      "duration": 0.0123,
      "velocity": 100,
      "chip": "ym2612"
    },
    {
      "channel": 2,
      "note": 74,
      "start": 1.3484,
      "duration": 0.0127,
      "velocity": 100,
      "chip": "ym2612"
    },
    {
      "channel": 4,
      "note": 79,
      "start": 1.349,
      "duration": 0.0124,
      "velocity": 100,
      "chip": "ym2612"
    },
    {
      "channel": 2,
      "note": 74,
      "start": 1.364,
      "duration": 0.0131,
      "velocity": 100,
      "chip": "ym2612"
    },
    {
      "channel": 3,
      "note": 55,
      "start": 1.3645,
      "duration": 0.0127,
      "velocity": 88,
      "chip": "ym2612"
    },
    {
      "channel": 4,
      "note": 79,
      "start": 1.365,
      "duration": 0.0124,
      "velocity": 100,
      "chip": "ym2612"
    },
    {
      "channel": 3,
      "note": 55,
      "start": 1.4009,
      "duration": 0.013,
      "velocity": 88,
      "chip": "ym2612"
    },
    {
      "channel": 3,
      "note": 55,
      "start": 1.4189,
      "duration": 0.013,
      "velocity": 88,
      "chip": "ym2612"
    },
    {
      "channel": 2,
      "note": 74,
      "start": 1.4368,
      "duration": 0.0136,
      "velocity": 100,
      "chip": "ym2612"
    },
    {
      "channel": 4,
      "note": 79,
      "start": 1.4374,
      "duration": 0.0132,
      "velocity": 100,
      "chip": "ym2612"
    },
    {
      "channel": 2,
      "note": 74,
      "start": 1.4547,
      "duration": 0.0141,
      "velocity": 100,
      "chip": "ym2612"
    },
    {
      "channel": 3,
      "note": 55,
      "start": 1.4552,
      "duration": 0.0137,
      "velocity": 88,
      "chip": "ym2612"
    },
    {
      "channel": 4,
      "note": 79,
      "start": 1.4556,
      "duration": 0.0134,
      "velocity": 100,
      "chip": "ym2612"
    },
    {
      "channel": 2,
      "note": 74,
      "start": 1.4733,
      "duration": 0.0155,
      "velocity": 100,
      "chip": "ym2612"
    },
    {
      "channel": 3,
      "note": 58,
      "start": 1.4738,
      "duration": 0.0151,
      "velocity": 88,
      "chip": "ym2612"
    },
    {
      "channel": 4,
      "note": 79,
      "start": 1.4743,
      "duration": 0.0148,
      "velocity": 100,
      "chip": "ym2612"
    },
    {
      "channel": 3,
      "note": 56,
      "start": 1.4922,
      "duration": 0.014,
      "velocity": 88,
      "chip": "ym2612"
    },
    {
      "channel": 3,
      "note": 55,
      "start": 1.5113,
      "duration": 0.0146,
      "velocity": 88,
      "chip": "ym2612"
    },
    {
      "channel": 3,
      "note": 53,
      "start": 1.53,
      "duration": 0.0134,
      "velocity": 88,
      "chip": "ym2612"
    },
    {
      "channel": 1,
      "note": 84,
      "start": 1.5462,
      "duration": 0.0353,
      "velocity": 102,
      "chip": "ym2612"
    },
    {
      "channel": 2,
      "note": 74,
      "start": 1.5466,
      "duration": 0.0137,
      "velocity": 100,
      "chip": "ym2612"
    },
    {
      "channel": 3,
      "note": 60,
      "start": 1.5471,
      "duration": 0.0134,
      "velocity": 88,
      "chip": "ym2612"
    },
    {
      "channel": 4,
      "note": 79,
      "start": 1.5477,
      "duration": 0.013,
      "velocity": 100,
      "chip": "ym2612"
    },
    {
      "channel": 2,
      "note": 74,
      "start": 1.5644,
      "duration": 0.0172,
      "velocity": 100,
      "chip": "ym2612"
    },
    {
      "channel": 3,
      "note": 58,
      "start": 1.5649,
      "duration": 0.0168,
      "velocity": 88,
      "chip": "ym2612"
    },
    {
      "channel": 4,
      "note": 79,
      "start": 1.5654,
      "duration": 0.0164,
      "velocity": 100,
      "chip": "ym2612"
    },
    {
      "channel": 1,
      "note": 87,
      "start": 1.5857,
      "duration": 0.0325,
      "velocity": 102,
      "chip": "ym2612"
    },
    {
      "channel": 2,
      "note": 74,
      "start": 1.5862,
      "duration": 0.0147,
      "velocity": 100,
      "chip": "ym2612"
    },
    {
      "channel": 3,
      "note": 56,
      "start": 1.5867,
      "duration": 0.0144,
      "velocity": 88,
      "chip": "ym2612"
    },
    {
      "channel": 4,
      "note": 79,
      "start": 1.5872,
      "duration": 0.0141,
      "velocity": 100,
      "chip": "ym2612"
    },
    {
      "channel": 2,
      "note": 74,
      "start": 1.6043,
      "duration": 0.014,
      "velocity": 100,
      "chip": "ym2612"
    },
    {
      "channel": 3,
      "note": 55,
      "start": 1.6048,
      "duration": 0.0136,
      "velocity": 88,
      "chip": "ym2612"
    },
    {
      "channel": 4,
      "note": 79,
      "start": 1.6054,
      "duration": 0.0133,
      "velocity": 100,
      "chip": "ym2612"
    },
    {
      "channel": 1,
      "note": 86,
      "start": 1.6214,
      "duration": 0.1413,
      "velocity": 102,
      "chip": "ym2612"
    },
    {
      "channel": 2,
      "note": 72,
      "start": 1.6234,
      "duration": 0.019,
      "velocity": 100,
      "chip": "ym2612"
    },
    {
      "channel": 3,
      "note": 53,
      "start": 1.624,
      "duration": 0.016,
      "velocity": 88,
      "chip": "ym2612"
    },
    {
      "channel": 4,
      "note": 74,
      "start": 1.6261,
      "duration": 0.0166,
      "velocity": 100,
      "chip": "ym2612"
    },
    {
      "channel": 2,
      "note": 72,
      "start": 1.6582,
      "duration": 0.0171,
      "velocity": 100,
      "chip": "ym2612"
    },
    {
      "channel": 3,
      "note": 55,
      "start": 1.6587,
      "duration": 0.0141,
      "velocity": 88,
      "chip": "ym2612"
    },
    {
      "channel": 4,
      "note": 74,
      "start": 1.6592,
      "duration": 0.0163,
      "velocity": 100,
      "chip": "ym2612"
    },
    {
      "channel": 3,
      "note": 55,
      "start": 1.694,
      "duration": 0.0136,
      "velocity": 88,
      "chip": "ym2612"
    },
    {
      "channel": 2,
      "note": 72,
      "start": 1.7123,
      "duration": 0.0179,
      "velocity": 100,
      "chip": "ym2612"
    },
    {
      "channel": 3,
      "note": 55,
      "start": 1.7129,
      "duration": 0.0137,
      "velocity": 88,
      "chip": "ym2612"
    },
    {
      "channel": 4,
      "note": 74,
      "start": 1.7133,
      "duration": 0.0172,
      "velocity": 100,
      "chip": "ym2612"
    },
    {
      "channel": 2,
      "note": 72,
      "start": 1.7486,
      "duration": 0.0142,
      "velocity": 100,
      "chip": "ym2612"
    },
    {
      "channel": 3,
      "note": 55,
      "start": 1.7491,
      "duration": 0.0138,
      "velocity": 88,
      "chip": "ym2612"
    },
    {
      "channel": 4,
      "note": 74,
      "start": 1.7496,
      "duration": 0.0134,
      "velocity": 100,
      "chip": "ym2612"
    },
    {
      "channel": 1,
      "note": 81,
      "start": 1.7659,
      "duration": 0.015,
      "velocity": 102,
      "chip": "ym2612"
    },
    {
      "channel": 2,
      "note": 72,
      "start": 1.7664,
      "duration": 0.0636,
      "velocity": 100,
      "chip": "ym2612"
    },
    {
      "channel": 3,
      "note": 55,
      "start": 1.7669,
      "duration": 0.0142,
      "velocity": 88,
      "chip": "ym2612"
    },
    {
      "channel": 4,
      "note": 74,
      "start": 1.7674,
      "duration": 0.0628,
      "velocity": 100,
      "chip": "ym2612"
    },
    {
      "channel": 1,
      "note": 82,
      "start": 1.7839,
      "duration": 0.0126,
      "velocity": 102,
      "chip": "ym2612"
    },
    {
      "channel": 1,
      "note": 83,
      "start": 1.7994,
      "duration": 0.0142,
      "velocity": 102,
      "chip": "ym2612"
    },
    {
      "channel": 3,
      "note": 55,
      "start": 1.8,
      "duration": 0.0139,
      "velocity": 88,
      "chip": "ym2612"
    },
    {
      "channel": 1,
      "note": 84,
      "start": 1.8166,
      "duration": 0.0133,
      "velocity": 102,
      "chip": "ym2612"
    },
    {
      "channel": 1,
      "note": 85,
      "start": 1.835,
      "duration": 0.0151,
      "velocity": 102,
      "chip": "ym2612"
    },
    {
      "channel": 2,
      "note": 72,
      "start": 1.8356,
      "duration": 0.0176,
      "velocity": 100,
      "chip": "ym2612"
    },
    {
      "channel": 3,
      "note": 53,
      "start": 1.836,
      "duration": 0.0142,
      "velocity": 88,
      "chip": "ym2612"
    },
    {
      "channel": 4,
      "note": 74,
      "start": 1.8365,
      "duration": 0.0169,
      "velocity": 100,
      "chip": "ym2612"
    },
    {
      "channel": 1,
      "note": 86,
      "start": 1.853,
      "duration": 0.0132,
      "velocity": 102,
      "chip": "ym2612"
    },
    {
      "channel": 1,
      "note": 87,
      "start": 1.8691,
      "duration": 0.0147,
      "velocity": 102,
      "chip": "ym2612"
    },
    {
      "channel": 2,
      "note": 72,
      "start": 1.8696,
      "duration": 0.0174,
      "velocity": 100,
      "chip": "ym2612"
    },
    {
      "channel": 3,
      "note": 55,
      "start": 1.8701,
      "duration": 0.014,
      "velocity": 88,
      "chip": "ym2612"
    },
    {
      "channel": 4,
      "note": 74,
      "start": 1.8706,
      "duration": 0.0167,
      "velocity": 100,
      "chip": "ym2612"
    },
    {
      "channel": 1,
      "note": 88,
      "start": 1.8868,
      "duration": 0.0132,
      "velocity": 102,
      "chip": "ym2612"
    },
    {
      "channel": 1,
      "note": 89,
      "start": 1.903,
      "duration": 0.2766,
      "velocity": 102,
      "chip": "ym2612"
    },
    {
      "channel": 2,
      "note": 75,
      "start": 1.9036,
      "duration": 0.0174,
      "velocity": 100,
      "chip": "ym2612"
    },
    {
      "channel": 3,
      "note": 53,
      "start": 1.9042,
      "duration": 0.0143,
      "velocity": 88,
      "chip": "ym2612"
    },
    {
      "channel": 4,
      "note": 77,
      "start": 1.9048,
      "duration": 0.0163,
      "velocity": 100,
      "chip": "ym2612"
    },
    {
      "channel": 2,
      "note": 75,
      "start": 1.9365,
      "duration": 0.0172,
      "velocity": 100,
      "chip": "ym2612"
    },
    {
      "channel": 3,
      "note": 55,
      "start": 1.937,
      "duration": 0.0142,
      "velocity": 88,
      "chip": "ym2612"
    },
    {
      "channel": 4,
      "note": 77,
      "start": 1.9375,
      "duration": 0.0164,
      "velocity": 100,
      "chip": "ym2612"
    },
    {
      "channel": 3,
      "note": 55,
      "start": 1.9724,
      "duration": 0.0137,
      "velocity": 88,
      "chip": "ym2612"
    },
    {
      "channel": 2,
      "note": 75,
      "start": 1.9908,
      "duration": 0.0169,
      "velocity": 100,
      "chip": "ym2612"
    },
    {
      "channel": 3,
      "note": 55,
      "start": 1.9913,
      "duration": 0.0138,
      "velocity": 88,
      "chip": "ym2612"
    },
    {
      "channel": 4,
      "note": 77,
      "start": 1.9917,
      "duration": 0.0161,
      "velocity": 100,
      "chip": "ym2612"
    },
    {
      "channel": 2,
      "note": 75,
      "start": 2.0243,
      "duration": 0.0143,
      "velocity": 100,
      "chip": "ym2612"
    },
    {
      "channel": 3,
      "note": 55,
      "start": 2.0248,
      "duration": 0.0139,
      "velocity": 88,
      "chip": "ym2612"
    },
    {
      "channel": 4,
      "note": 77,
      "start": 2.0253,
      "duration": 0.0136,
      "velocity": 100,
      "chip": "ym2612"
    },
    {
      "channel": 2,
      "note": 75,
      "start": 2.0417,
      "duration": 0.064,
      "velocity": 100,
      "chip": "ym2612"
    },
    {
      "channel": 3,
      "note": 58,
      "start": 2.0422,
      "duration": 0.0144,
      "velocity": 88,
      "chip": "ym2612"
    },
    {
      "channel": 4,
      "note": 77,
      "start": 2.0427,
      "duration": 0.0633,
      "velocity": 100,
      "chip": "ym2612"
    },
    {
      "channel": 3,
      "note": 56,
      "start": 2.0597,
      "duration": 0.0129,
      "velocity": 88,
      "chip": "ym2612"
    },
    {
      "channel": 3,
      "note": 55,
      "start": 2.0756,
      "duration": 0.0139,
      "velocity": 88,
      "chip": "ym2612"
    },
    {
      "channel": 3,
      "note": 53,
      "start": 2.0925,
      "duration": 0.0134,
      "velocity": 88,
      "chip": "ym2612"
    },
    {
      "channel": 2,
      "note": 75,
      "start": 2.1108,
      "duration": 0.0181,
      "velocity": 100,
      "chip": "ym2612"
    },
    {
      "channel": 3,
      "note": 60,
      "start": 2.1113,
      "duration": 0.0145,
      "velocity": 88,
      "chip": "ym2612"
    },
    {
      "channel": 4,
      "note": 77,
      "start": 2.1119,
      "duration": 0.0177,
      "velocity": 100,
      "chip": "ym2612"
    },
    {
      "channel": 3,
      "note": 58,
      "start": 2.1294,
      "duration": 0.0133,
      "velocity": 88,
      "chip": "ym2612"
    },
    {
      "channel": 2,
      "note": 75,
      "start": 2.1479,
      "duration": 0.018,
      "velocity": 100,
      "chip": "ym2612"
    },
    {
      "channel": 3,
      "note": 56,
      "start": 2.1484,
      "duration": 0.0143,
      "velocity": 88,
      "chip": "ym2612"
    },
    {
      "channel": 4,
      "note": 77,
      "start": 2.1489,
      "duration": 0.0176,
      "velocity": 100,
      "chip": "ym2612"
    },
    {
      "channel": 3,
      "note": 55,
      "start": 2.1664,
      "duration": 0.0134,
      "velocity": 88,
      "chip": "ym2612"
    },
    {
      "channel": 1,
      "note": 91,
      "start": 2.1827,
      "duration": 0.14,
      "velocity": 102,
      "chip": "ym2612"
    },
    {
      "channel": 2,
      "note": 74,
      "start": 2.1833,
      "duration": 0.0149,
      "velocity": 100,
      "chip": "ym2612"
    },
    {
      "channel": 3,
      "note": 53,
      "start": 2.1839,
      "duration": 0.0144,
      "velocity": 88,
      "chip": "ym2612"
    },
    {
      "channel": 4,
      "note": 79,
      "start": 2.1845,
      "duration": 0.0139,
      "velocity": 100,
      "chip": "ym2612"
    },
    {
      "channel": 2,
      "note": 74,
      "start": 2.2012,
      "duration": 0.0131,
      "velocity": 100,
      "chip": "ym2612"
    },
    {
      "channel": 4,
      "note": 79,
      "start": 2.2018,
      "duration": 0.0127,
      "velocity": 100,
      "chip": "ym2612"
    },
    {
      "channel": 2,
      "note": 74,
      "start": 2.2173,
      "duration": 0.0145,
      "velocity": 100,
      "chip": "ym2612"
    },
    {
      "channel": 3,
      "note": 55,
      "start": 2.2178,
      "duration": 0.0142,
      "velocity": 88,
      "chip": "ym2612"
    },
    {
      "channel": 4,
      "note": 79,
      "start": 2.2183,
      "duration": 0.0138,
      "velocity": 100,
      "chip": "ym2612"
    },
    {
      "channel": 3,
      "note": 55,
      "start": 2.2534,
      "duration": 0.0139,
      "velocity": 88,
      "chip": "ym2612"
    },
    {
      "channel": 3,
      "note": 55,
      "start": 2.2722,
      "duration": 0.0132,
      "velocity": 88,
      "chip": "ym2612"
    },
    {
      "channel": 2,
      "note": 74,
      "start": 2.2902,
      "duration": 0.0147,
      "velocity": 100,
      "chip": "ym2612"
    },
    {
      "channel": 4,
      "note": 79,
      "start": 2.2907,
      "duration": 0.0144,
      "velocity": 100,
      "chip": "ym2612"
    },
    {
      "channel": 2,
      "note": 74,
      "start": 2.3084,
      "duration": 0.0144,
      "velocity": 100,
      "chip": "ym2612"
    },
    {
      "channel": 3,
      "note": 55,
      "start": 2.3089,
      "duration": 0.014,
      "velocity": 88,
      "chip": "ym2612"
    },
    {
      "channel": 4,
      "note": 79,
      "start": 2.3094,
      "duration": 0.0137,
      "velocity": 100,
      "chip": "ym2612"
    },
    {
      "channel": 1,
      "note": 94,
      "start": 2.3259,
      "duration": 0.0152,
      "velocity": 102,
      "chip": "ym2612"
    },
    {
      "channel": 2,
      "note": 74,
      "start": 2.3264,
      "duration": 0.0149,
      "velocity": 100,
      "chip": "ym2612"
    },
    {
      "channel": 3,
      "note": 55,
      "start": 2.3269,
      "duration": 0.0145,
      "velocity": 88,
      "chip": "ym2612"
    },
    {
      "channel": 4,
      "note": 79,
      "start": 2.3274,
      "duration": 0.0141,
      "velocity": 100,
      "chip": "ym2612"
    },
    {
      "channel": 1,
      "note": 92,
      "start": 2.3442,
      "duration": 0.0127,
      "velocity": 102,
      "chip": "ym2612"
    },
    {
      "channel": 1,
      "note": 91,
      "start": 2.3598,
      "duration": 0.0144,
      "velocity": 102,
      "chip": "ym2612"
    },
    {
      "channel": 3,
      "note": 55,
      "start": 2.3604,
      "duration": 0.014,
      "velocity": 88,
      "chip": "ym2612"
    },
    {
      "channel": 1,
      "note": 89,
      "start": 2.3772,
      "duration": 0.013,
      "velocity": 102,
      "chip": "ym2612"
    },
    {
      "channel": 1,
      "note": 96,
      "start": 2.3954,
      "duration": 0.0151,
      "velocity": 102,
      "chip": "ym2612"
    },
    {
      "channel": 2,
      "note": 74,
      "start": 2.3959,
      "duration": 0.0147,
      "velocity": 100,
      "chip": "ym2612"
    },
    {
      "channel": 3,
      "note": 53,
      "start": 2.3963,
      "duration": 0.0144,
      "velocity": 88,
      "chip": "ym2612"
    },
    {
      "channel": 4,
      "note": 79,
      "start": 2.3969,
      "duration": 0.0141,
      "velocity": 100,
      "chip": "ym2612"
    },
    {
      "channel": 1,
      "note": 94,
      "start": 2.4137,
      "duration": 0.0139,
      "velocity": 102,
      "chip": "ym2612"
    },
    {
      "channel": 2,
      "note": 74,
      "start": 2.4141,
      "duration": 0.0136,
      "velocity": 100,
      "chip": "ym2612"
    },
    {
      "channel": 4,
      "note": 79,
      "start": 2.4146,
      "duration": 0.0132,
      "velocity": 100,
      "chip": "ym2612"
    },
    {
      "channel": 1,
      "note": 92,
      "start": 2.4306,
      "duration": 0.0148,
      "velocity": 102,
      "chip": "ym2612"
    },
    {
      "channel": 2,
      "note": 74,
      "start": 2.4311,
      "duration": 0.0145,
      "velocity": 100,
      "chip": "ym2612"
    },
    {
      "channel": 3,
      "note": 55,
      "start": 2.4315,
      "duration": 0.0142,
      "velocity": 88,
      "chip": "ym2612"
    },
    {
      "channel": 4,
      "note": 79,
      "start": 2.4321,
      "duration": 0.0138,
      "velocity": 100,
      "chip": "ym2612"
    },
    {
      "channel": 1,
      "note": 91,
      "start": 2.4486,
      "duration": 0.0139,
      "velocity": 102,
      "chip": "ym2612"
    },
    {
      "channel": 2,
      "note": 74,
      "start": 2.4491,
      "duration": 0.0135,
      "velocity": 100,
      "chip": "ym2612"
    },
    {
      "channel": 4,
      "note": 79,
      "start": 2.4497,
      "duration": 0.0132,
      "velocity": 100,
      "chip": "ym2612"
    },
    {
      "channel": 1,
      "note": 91,
      "start": 2.4657,
      "duration": 0.2846,
      "velocity": 102,
      "chip": "ym2612"
    },
    {
      "channel": 2,
      "note": 74,
      "start": 2.4663,
      "duration": 0.015,
      "velocity": 100,
      "chip": "ym2612"
    },
    {
      "channel": 3,
      "note": 53,
      "start": 2.4669,
      "duration": 0.0145,
      "velocity": 88,
      "chip": "ym2612"
    },
    {
      "channel": 4,
      "note": 79,
      "start": 2.4675,
      "duration": 0.0141,
      "velocity": 100,
      "chip": "ym2612"
    },
    {
      "channel": 2,
      "note": 74,
      "start": 2.486,
      "duration": 0.0129,
      "velocity": 100,
      "chip": "ym2612"
    },
    {
      "channel": 4,
      "note": 79,
      "start": 2.4865,
      "duration": 0.0125,
      "velocity": 100,
      "chip": "ym2612"
    },
    {
      "channel": 2,
      "note": 74,
      "start": 2.5017,
      "duration": 0.014,
      "velocity": 100,
      "chip": "ym2612"
    },
    {
      "channel": 3,
      "note": 55,
      "start": 2.5022,
      "duration": 0.0137,
      "velocity": 88,
      "chip": "ym2612"
    },
    {
      "channel": 4,
      "note": 79,
      "start": 2.5027,
      "duration": 0.0133,
      "velocity": 100,
      "chip": "ym2612"
    },
    {
      "channel": 3,
      "note": 55,
      "start": 2.533,
      "duration": 0.0139,
      "velocity": 88,
      "chip": "ym2612"
    },
    {
      "channel": 3,
      "note": 55,
      "start": 2.5508,
      "duration": 0.0131,
      "velocity": 88,
      "chip": "ym2612"
    },
    {
      "channel": 2,
      "note": 74,
      "start": 2.5688,
      "duration": 0.0146,
      "velocity": 100,
      "chip": "ym2612"
    },
    {
      "channel": 4,
      "note": 79,
      "start": 2.5693,
      "duration": 0.0142,
      "velocity": 100,
      "chip": "ym2612"
    },
    {
      "channel": 2,
      "note": 74,
      "start": 2.5866,
      "duration": 0.0141,
      "velocity": 100,
      "chip": "ym2612"
    },
    {
      "channel": 3,
      "note": 55,
      "start": 2.5871,
      "duration": 0.0138,
      "velocity": 88,
      "chip": "ym2612"
    },
    {
      "channel": 4,
      "note": 79,
      "start": 2.5876,
      "duration": 0.0134,
      "velocity": 100,
      "chip": "ym2612"
    },
    {
      "channel": 2,
      "note": 74,
      "start": 2.6046,
      "duration": 0.0155,
      "velocity": 100,
      "chip": "ym2612"
    },
    {
      "channel": 3,
      "note": 58,
      "start": 2.6051,
      "duration": 0.0153,
      "velocity": 88,
      "chip": "ym2612"
    },
    {
      "channel": 4,
      "note": 79,
      "start": 2.6056,
      "duration": 0.0149,
      "velocity": 100,
      "chip": "ym2612"
    },
    {
      "channel": 3,
      "note": 56,
      "start": 2.6235,
      "duration": 0.0139,
      "velocity": 88,
      "chip": "ym2612"
    },
    {
      "channel": 3,
      "note": 55,
      "start": 2.6426,
      "duration": 0.0149,
      "velocity": 88,
      "chip": "ym2612"
    },
    {
      "channel": 3,
      "note": 53,
      "start": 2.6616,
      "duration": 0.014,
      "velocity": 88,
      "chip": "ym2612"
    },
    {
      "channel": 2,
      "note": 74,
      "start": 2.6807,
      "duration": 0.0149,
      "velocity": 100,
      "chip": "ym2612"
    },
    {
      "channel": 3,
      "note": 60,
      "start": 2.6811,
      "duration": 0.0145,
      "velocity": 88,
      "chip": "ym2612"
    },
    {
      "channel": 4,
      "note": 79,
      "start": 2.6816,
      "duration": 0.0141,
      "velocity": 100,
      "chip": "ym2612"
    },
    {
      "channel": 2,
      "note": 74,
      "start": 2.6992,
      "duration": 0.0139,
      "velocity": 100,
      "chip": "ym2612"
    },
    {
      "channel": 3,
      "note": 58,
      "start": 2.6996,
      "duration": 0.0137,
      "velocity": 88,
      "chip": "ym2612"
    },
    {
      "channel": 4,
      "note": 79,
      "start": 2.7001,
      "duration": 0.0132,
      "velocity": 100,
      "chip": "ym2612"
    },
    {
      "channel": 2,
      "note": 74,
      "start": 2.7177,
      "duration": 0.0151,
      "velocity": 100,
      "chip": "ym2612"
    },
    {
      "channel": 3,
      "note": 56,
      "start": 2.7182,
      "duration": 0.0147,
      "velocity": 88,
      "chip": "ym2612"
    },
    {
      "channel": 4,
      "note": 79,
      "start": 2.7187,
      "duration": 0.0144,
      "velocity": 100,
      "chip": "ym2612"
    },
    {
      "channel": 2,
      "note": 74,
      "start": 2.7364,
      "duration": 0.014,
      "velocity": 100,
      "chip": "ym2612"
    },
    {
      "channel": 3,
      "note": 55,
      "start": 2.7369,
      "duration": 0.0137,
      "velocity": 88,
      "chip": "ym2612"
    },
    {
      "channel": 4,
      "note": 79,
      "start": 2.7373,
      "duration": 0.0134,
      "velocity": 100,
      "chip": "ym2612"
    },
    {
      "channel": 1,
      "note": 77,
      "start": 2.7572,
      "duration": 0.0155,
      "velocity": 100,
      "chip": "ym2612"
    },
    {
      "channel": 2,
      "note": 71,
      "start": 2.7577,
      "duration": 0.283,
      "velocity": 100,
      "chip": "ym2612"
    },
    {
      "channel": 3,
      "note": 56,
      "start": 2.7584,
      "duration": 0.0145,
      "velocity": 88,
      "chip": "ym2612"
    },
    {
      "channel": 4,
      "note": 75,
      "start": 2.759,
      "duration": 0.2821,
      "velocity": 100,
      "chip": "ym2612"
    },
    {
      "channel": 1,
      "note": 76,
      "start": 2.7756,
      "duration": 0.0124,
      "velocity": 100,
      "chip": "ym2612"
    },
    {
      "channel": 1,
      "note": 71,
      "start": 2.791,
      "duration": 0.0175,
      "velocity": 100,
      "chip": "ym2612"
    },
    {
      "channel": 3,
      "note": 56,
      "start": 2.7916,
      "duration": 0.0172,
      "velocity": 88,
      "chip": "ym2612"
    },
    {
      "channel": 1,
      "note": 70,
      "start": 2.8115,
      "duration": 0.0129,
      "velocity": 100,
      "chip": "ym2612"
    },
    {
      "channel": 1,
      "note": 78,
      "start": 2.8296,
      "duration": 0.0144,
      "velocity": 100,
      "chip": "ym2612"
    },
    {
      "channel": 3,
      "note": 54,
      "start": 2.8301,
      "duration": 0.014,
      "velocity": 88,
      "chip": "ym2612"
    },
    {
      "channel": 1,
      "note": 77,
      "start": 2.8469,
      "duration": 0.0132,
      "velocity": 100,
      "chip": "ym2612"
    },
    {
      "channel": 3,
      "note": 56,
      "start": 2.8474,
      "duration": 0.0128,
      "velocity": 88,
      "chip": "ym2612"
    },
    {
      "channel": 1,
      "note": 76,
      "start": 2.8661,
      "duration": 0.0146,
      "velocity": 100,
      "chip": "ym2612"
    },
    {
      "channel": 1,
      "note": 75,
      "start": 2.8842,
      "duration": 0.0137,
      "velocity": 100,
      "chip": "ym2612"
    },
    {
      "channel": 3,
      "note": 56,
      "start": 2.8849,
      "duration": 0.0307,
      "velocity": 88,
      "chip": "ym2612"
    },
    {
      "channel": 1,
      "note": 74,
      "start": 2.901,
      "duration": 0.0143,
      "velocity": 100,
      "chip": "ym2612"
    },
    {
      "channel": 1,
      "note": 73,
      "start": 2.919,
      "duration": 0.014,
      "velocity": 100,
      "chip": "ym2612"
    },
    {
      "channel": 3,
      "note": 54,
      "start": 2.9196,
      "duration": 0.0137,
      "velocity": 88,
      "chip": "ym2612"
    },
    {
      "channel": 1,
      "note": 72,
      "start": 2.9361,
      "duration": 0.0147,
      "velocity": 100,
      "chip": "ym2612"
    },
    {
      "channel": 3,
      "note": 56,
      "start": 2.9367,
      "duration": 0.0144,
      "velocity": 88,
      "chip": "ym2612"
    },
    {
      "channel": 1,
      "note": 71,
      "start": 2.9539,
      "duration": 0.0137,
      "velocity": 100,
      "chip": "ym2612"
    },
    {
      "channel": 3,
      "note": 54,
      "start": 2.9544,
      "duration": 0.0134,
      "velocity": 88,
      "chip": "ym2612"
    },
    {
      "channel": 1,
      "note": 70,
      "start": 2.972,
      "duration": 0.0148,
      "velocity": 100,
      "chip": "ym2612"
    },
    {
      "channel": 3,
      "note": 56,
      "start": 2.9725,
      "duration": 0.0145,
      "velocity": 88,
      "chip": "ym2612"
    },
    {
      "channel": 1,
      "note": 69,
      "start": 2.9899,
      "duration": 0.014,
      "velocity": 100,
      "chip": "ym2612"
    },
    {
      "channel": 3,
      "note": 58,
      "start": 2.9905,
      "duration": 0.0137,
      "velocity": 88,
      "chip": "ym2612"
    },
    {
      "channel": 1,
      "note": 68,
      "start": 3.0083,
      "duration": 0.0148,
      "velocity": 100,
      "chip": "ym2612"
    },
    {
      "channel": 3,
      "note": 59,
      "start": 3.0088,
      "duration": 0.0145,
      "velocity": 88,
      "chip": "ym2612"
    },
    {
      "channel": 1,
      "note": 67,
      "start": 3.0268,
      "duration": 0.0138,
      "velocity": 100,
      "chip": "ym2612"
    },
    {
      "channel": 3,
      "note": 61,
      "start": 3.0274,
      "duration": 0.0135,
      "velocity": 88,
      "chip": "ym2612"
    },
    {
      "channel": 1,
      "note": 70,
      "start": 3.0454,
      "duration": 0.1324,
      "velocity": 100,
      "chip": "ym2612"
    },
    {
      "channel": 2,
      "note": 73,
      "start": 3.0461,
      "duration": 0.2726,
      "velocity": 100,
      "chip": "ym2612"
    },
    {
      "channel": 3,
      "note": 58,
      "start": 3.0466,
      "duration": 0.0146,
      "velocity": 88,
      "chip": "ym2612"
    },
    {
      "channel": 4,
      "note": 77,
      "start": 3.0473,
      "duration": 0.2717,
      "velocity": 100,
      "chip": "ym2612"
    },
    {
      "channel": 3,
      "note": 58,
      "start": 3.0792,
      "duration": 0.0137,
      "velocity": 88,
      "chip": "ym2612"
    },
    {
      "channel": 3,
      "note": 57,
      "start": 3.1139,
      "duration": 0.0141,
      "velocity": 88,
      "chip": "ym2612"
    },
    {
      "channel": 3,
      "note": 58,
      "start": 3.1307,
      "duration": 0.0126,
      "velocity": 88,
      "chip": "ym2612"
    },
    {
      "channel": 3,
      "note": 58,
      "start": 3.1643,
      "duration": 0.0311,
      "velocity": 88,
      "chip": "ym2612"
    },
    {
      "channel": 1,
      "note": 72,
      "start": 3.1809,
      "duration": 0.0487,
      "velocity": 100,
      "chip": "ym2612"
    },
    {
      "channel": 3,
      "note": 57,
      "start": 3.199,
      "duration": 0.0134,
      "velocity": 88,
      "chip": "ym2612"
    },
    {
      "channel": 3,
      "note": 58,
      "start": 3.2154,
      "duration": 0.0145,
      "velocity": 88,
      "chip": "ym2612"
    },
    {
      "channel": 1,
      "note": 73,
      "start": 3.2327,
      "duration": 0.0492,
      "velocity": 100,
      "chip": "ym2612"
    },
    {
      "channel": 3,
      "note": 57,
      "start": 3.2332,
      "duration": 0.0136,
      "velocity": 88,
      "chip": "ym2612"
    },
    {
      "channel": 3,
      "note": 58,
      "start": 3.2511,
      "duration": 0.0144,
      "velocity": 88,
      "chip": "ym2612"
    },
    {
      "channel": 3,
      "note": 59,
      "start": 3.2685,
      "duration": 0.0137,
      "velocity": 88,
      "chip": "ym2612"
    },
    {
      "channel": 1,
      "note": 75,
      "start": 3.2867,
      "duration": 0.0319,
      "velocity": 100,
      "chip": "ym2612"
    },
    {
      "channel": 3,
      "note": 60,
      "start": 3.2873,
      "duration": 0.0144,
      "velocity": 88,
      "chip": "ym2612"
    },
    {
      "channel": 3,
      "note": 61,
      "start": 3.3054,
      "duration": 0.0134,
      "velocity": 88,
      "chip": "ym2612"
    },
    {
      "channel": 1,
      "note": 75,
      "start": 3.324,
      "duration": 0.0167,
      "velocity": 100,
      "chip": "ym2612"
    },
    {
      "channel": 2,
      "note": 71,
      "start": 3.3245,
      "duration": 0.2845,
      "velocity": 100,
      "chip": "ym2612"
    },
    {
      "channel": 3,
      "note": 56,
      "start": 3.3252,
      "duration": 0.0157,
      "velocity": 88,
      "chip": "ym2612"
    },
    {
      "channel": 4,
      "note": 75,
      "start": 3.3257,
      "duration": 0.2836,
      "velocity": 100,
      "chip": "ym2612"
    },
    {
      "channel": 1,
      "note": 73,
      "start": 3.3455,
      "duration": 0.0122,
      "velocity": 100,
      "chip": "ym2612"
    },
    {
      "channel": 1,
      "note": 71,
      "start": 3.3609,
      "duration": 0.0136,
      "velocity": 100,
      "chip": "ym2612"
    },
    {
      "channel": 3,
      "note": 56,
      "start": 3.3615,
      "duration": 0.0132,
      "velocity": 88,
      "chip": "ym2612"
    },
    {
      "channel": 1,
      "note": 70,
      "start": 3.3773,
      "duration": 0.0119,
      "velocity": 100,
      "chip": "ym2612"
    },
    {
      "channel": 1,
      "note": 76,
      "start": 3.392,
      "duration": 0.0144,
      "velocity": 100,
      "chip": "ym2612"
    },
    {
      "channel": 3,
      "note": 54,
      "start": 3.3926,
      "duration": 0.014,
      "velocity": 88,
      "chip": "ym2612"
    },
    {
      "channel": 1,
      "note": 75,
      "start": 3.41,
      "duration": 0.0136,
      "velocity": 100,
      "chip": "ym2612"
    },
    {
      "channel": 3,
      "note": 56,
      "start": 3.4105,
      "duration": 0.0132,
      "velocity": 88,
      "chip": "ym2612"
    },
    {
      "channel": 1,
      "note": 73,
      "start": 3.428,
      "duration": 0.0144,
      "velocity": 100,
      "chip": "ym2612"
    },
    {
      "channel": 1,
      "note": 71,
      "start": 3.4457,
      "duration": 0.014,
      "velocity": 100,
      "chip": "ym2612"
    },
    {
      "channel": 3,
      "note": 56,
      "start": 3.4463,
      "duration": 0.0327,
      "velocity": 88,
      "chip": "ym2612"
    },
    {
      "channel": 1,
      "note": 78,
      "start": 3.4637,
      "duration": 0.0151,
      "velocity": 100,
      "chip": "ym2612"
    },
    {
      "channel": 1,
      "note": 76,
      "start": 3.4826,
      "duration": 0.0145,
      "velocity": 100,
      "chip": "ym2612"
    },
    {
      "channel": 3,
      "note": 54,
      "start": 3.4832,
      "duration": 0.0141,
      "velocity": 88,
      "chip": "ym2612"
    },
    {
      "channel": 1,
      "note": 75,
      "start": 3.5015,
      "duration": 0.0153,
      "velocity": 100,
      "chip": "ym2612"
    },
    {
      "channel": 3,
      "note": 56,
      "start": 3.5021,
      "duration": 0.015,
      "velocity": 88,
      "chip": "ym2612"
    },
    {
      "channel": 1,
      "note": 73,
      "start": 3.5203,
      "duration": 0.0145,
      "velocity": 100,
      "chip": "ym2612"
    },
    {
      "channel": 3,
      "note": 54,
      "start": 3.5209,
      "duration": 0.0142,
      "velocity": 88,
      "chip": "ym2612"
    },
    {
      "channel": 1,
      "note": 80,
      "start": 3.5393,
      "duration": 0.0147,
      "velocity": 100,
      "chip": "ym2612"
    },
    {
      "channel": 3,
      "note": 56,
      "start": 3.5398,
      "duration": 0.0143,
      "velocity": 88,
      "chip": "ym2612"
    },
    {
      "channel": 1,
      "note": 78,
      "start": 3.5576,
      "duration": 0.0139,
      "velocity": 100,
      "chip": "ym2612"
    },
    {
      "channel": 3,
      "note": 58,
      "start": 3.5582,
      "duration": 0.0136,
      "velocity": 88,
      "chip": "ym2612"
    },
    {
      "channel": 1,
      "note": 76,
      "start": 3.5763,
      "duration": 0.0148,
      "velocity": 100,
      "chip": "ym2612"
    },
    {
      "channel": 3,
      "note": 59,
      "start": 3.5768,
      "duration": 0.0144,
      "velocity": 88,
      "chip": "ym2612"
    },
    {
      "channel": 1,
      "note": 75,
      "start": 3.5948,
      "duration": 0.0141,
      "velocity": 100,
      "chip": "ym2612"
    },
    {
      "channel": 3,
      "note": 61,
      "start": 3.5954,
      "duration": 0.0138,
      "velocity": 88,
      "chip": "ym2612"
    },
    {
      "channel": 1,
      "note": 77,
      "start": 3.6138,
      "duration": 0.0155,
      "velocity": 100,
      "chip": "ym2612"
    },
    {
      "channel": 2,
      "note": 73,
      "start": 3.6144,
      "duration": 0.2811,
      "velocity": 100,
      "chip": "ym2612"
    },
    {
      "channel": 3,
      "note": 58,
      "start": 3.615,
      "duration": 0.0145,
      "velocity": 88,
      "chip": "ym2612"
    },
    {
      "channel": 4,
      "note": 77,
      "start": 3.6156,
      "duration": 0.2801,
      "velocity": 100,
      "chip": "ym2612"
    },
    {
      "channel": 1,
      "note": 75,
      "start": 3.6322,
      "duration": 0.0128,
      "velocity": 100,
      "chip": "ym2612"
    },
    {
      "channel": 1,
      "note": 73,
      "start": 3.6479,
      "duration": 0.0144,
      "velocity": 100,
      "chip": "ym2612"
    },
    {
      "channel": 3,
      "note": 58,
      "start": 3.6485,
      "duration": 0.014,
      "velocity": 88,
      "chip": "ym2612"
    },
    {
      "channel": 1,
      "note": 72,
      "start": 3.6653,
      "duration": 0.0132,
      "velocity": 100,
      "chip": "ym2612"
    },
    {
      "channel": 1,
      "note": 78,
      "start": 3.6836,
      "duration": 0.0144,
      "velocity": 100,
      "chip": "ym2612"
    },
    {
      "channel": 3,
      "note": 57,
      "start": 3.6842,
      "duration": 0.014,
      "velocity": 88,
      "chip": "ym2612"
    },
    {
      "channel": 1,
      "note": 77,
      "start": 3.701,
      "duration": 0.0132,
      "velocity": 100,
      "chip": "ym2612"
    },
    {
      "channel": 3,
      "note": 58,
      "start": 3.7016,
      "duration": 0.0129,
      "velocity": 88,
      "chip": "ym2612"
    },
    {
      "channel": 1,
      "note": 75,
      "start": 3.7202,
      "duration": 0.0146,
      "velocity": 100,
      "chip": "ym2612"
    },
    {
      "channel": 1,
      "note": 73,
      "start": 3.7385,
      "duration": 0.0141,
      "velocity": 100,
      "chip": "ym2612"
    },
    {
      "channel": 3,
      "note": 58,
      "start": 3.7392,
      "duration": 0.0312,
      "velocity": 88,
      "chip": "ym2612"
    },
    {
      "channel": 1,
      "note": 80,
      "start": 3.7556,
      "duration": 0.0145,
      "velocity": 100,
      "chip": "ym2612"
    },
    {
      "channel": 1,
      "note": 78,
      "start": 3.7739,
      "duration": 0.0138,
      "velocity": 100,
      "chip": "ym2612"
    },
    {
      "channel": 3,
      "note": 57,
      "start": 3.7745,
      "duration": 0.0135,
      "velocity": 88,
      "chip": "ym2612"
    },
    {
      "channel": 1,
      "note": 77,
      "start": 3.7908,
      "duration": 0.0148,
      "velocity": 100,
      "chip": "ym2612"
    },
    {
      "channel": 3,
      "note": 58,
      "start": 3.7914,
      "duration": 0.0144,
      "velocity": 88,
      "chip": "ym2612"
    },
    {
      "channel": 1,
      "note": 75,
      "start": 3.8087,
      "duration": 0.0138,
      "velocity": 100,
      "chip": "ym2612"
    },
    {
      "channel": 3,
      "note": 57,
      "start": 3.8093,
      "duration": 0.0135,
      "velocity": 88,
      "chip": "ym2612"
    },
    {
      "channel": 1,
      "note": 82,
      "start": 3.8268,
      "duration": 0.0148,
      "velocity": 100,
      "chip": "ym2612"
    },
    {
      "channel": 3,
      "note": 58,
      "start": 3.8274,
      "duration": 0.0144,
      "velocity": 88,
      "chip": "ym2612"
    },
    {
      "channel": 1,
      "note": 80,
      "start": 3.8447,
      "duration": 0.0139,
      "velocity": 100,
      "chip": "ym2612"
    },
    {
      "channel": 3,
      "note": 59,
      "start": 3.8453,
      "duration": 0.0136,
      "velocity": 88,
      "chip": "ym2612"
    },
    {
      "channel": 1,
      "note": 78,
      "start": 3.8629,
      "duration": 0.0148,
      "velocity": 100,
      "chip": "ym2612"
    },
    {
      "channel": 3,
      "note": 60,
      "start": 3.8635,
      "duration": 0.0144,
      "velocity": 88,
      "chip": "ym2612"
    },
    {
      "channel": 1,
      "note": 77,
      "start": 3.8814,
      "duration": 0.0139,
      "velocity": 100,
      "chip": "ym2612"
    },
    {
      "channel": 3,
      "note": 61,
      "start": 3.882,
      "duration": 0.0137,
      "velocity": 88,
      "chip": "ym2612"
    },
    {
      "channel": 1,
      "note": 85,
      "start": 3.9006,
      "duration": 0.0152,
      "velocity": 102,
      "chip": "ym2612"
    },
    {
      "channel": 2,
      "note": 75,
      "start": 3.9012,
      "duration": 0.2815,
      "velocity": 100,
      "chip": "ym2612"
    },
    {
      "channel": 3,
      "note": 51,
      "start": 3.9018,
      "duration": 0.0299,
      "velocity": 88,
      "chip": "ym2612"
    },
    {
      "channel": 4,
      "note": 78,
      "start": 3.9024,
      "duration": 0.2806,
      "velocity": 100,
      "chip": "ym2612"
    },
    {
      "channel": 1,
      "note": 87,
      "start": 3.9188,
      "duration": 0.0153,
      "velocity": 102,
      "chip": "ym2612"
    },
    {
      "channel": 3,
      "note": 51,
      "start": 3.9347,
      "duration": 0.0139,
      "velocity": 88,
      "chip": "ym2612"
    },
    {
      "channel": 1,
      "note": 87,
      "start": 3.9514,
      "duration": 0.032,
      "velocity": 102,
      "chip": "ym2612"
    },
    {
      "channel": 3,
      "note": 51,
      "start": 3.952,
      "duration": 0.013,
      "velocity": 88,
      "chip": "ym2612"
    },
    {
      "channel": 3,
      "note": 51,
      "start": 3.9698,
      "duration": 0.0298,
      "velocity": 88,
      "chip": "ym2612"
    },
    {
      "channel": 1,
      "note": 85,
      "start": 3.9863,
      "duration": 0.0131,
      "velocity": 102,
      "chip": "ym2612"
    },
    {
      "channel": 1,
      "note": 87,
      "start": 4.0046,
      "duration": 0.015,
      "velocity": 102,
      "chip": "ym2612"
    },
    {
      "channel": 3,
      "note": 51,
      "start": 4.0051,
      "duration": 0.0147,
      "velocity": 88,
      "chip": "ym2612"
    },
    {
      "channel": 1,
      "note": 82,
      "start": 4.0227,
      "duration": 0.0171,
      "velocity": 102,
      "chip": "ym2612"
    },
    {
      "channel": 3,
      "note": 51,
      "start": 4.0234,
      "duration": 0.0168,
      "velocity": 88,
      "chip": "ym2612"
    },
    {
      "channel": 1,
      "note": 87,
      "start": 4.043,
      "duration": 0.0147,
      "velocity": 102,
      "chip": "ym2612"
    },
    {
      "channel": 3,
      "note": 51,
      "start": 4.0436,
      "duration": 0.0306,
      "velocity": 88,
      "chip": "ym2612"
    },
    {
      "channel": 1,
      "note": 82,
      "start": 4.0607,
      "duration": 0.0132,
      "velocity": 102,
      "chip": "ym2612"
    },
    {
      "channel": 1,
      "note": 85,
      "start": 4.077,
      "duration": 0.0148,
      "velocity": 102,
      "chip": "ym2612"
    },
    {
      "channel": 3,
      "note": 51,
      "start": 4.0776,
      "duration": 0.0145,
      "velocity": 88,
      "chip": "ym2612"
    },
    {
      "channel": 1,
      "note": 87,
      "start": 4.0949,
      "duration": 0.0141,
      "velocity": 102,
      "chip": "ym2612"
    },
    {
      "channel": 3,
      "note": 51,
      "start": 4.0954,
      "duration": 0.0138,
      "velocity": 88,
      "chip": "ym2612"
    },
    {
      "channel": 1,
      "note": 90,
      "start": 4.1133,
      "duration": 0.0145,
      "velocity": 102,
      "chip": "ym2612"
    },
    {
      "channel": 3,
      "note": 51,
      "start": 4.1139,
      "duration": 0.0315,
      "velocity": 88,
      "chip": "ym2612"
    },
    {
      "channel": 1,
      "note": 85,
      "start": 4.1314,
      "duration": 0.0136,
      "velocity": 102,
      "chip": "ym2612"
    },
    {
      "channel": 1,
      "note": 87,
      "start": 4.1503,
      "duration": 0.0144,
      "velocity": 102,
      "chip": "ym2612"
    },
    {
      "channel": 3,
      "note": 51,
      "start": 4.1509,
      "duration": 0.0141,
      "velocity": 88,
      "chip": "ym2612"
    },
    {
      "channel": 1,
      "note": 90,
      "start": 4.1685,
      "duration": 0.0141,
      "velocity": 102,
      "chip": "ym2612"
    },
    {
      "channel": 3,
      "note": 51,
      "start": 4.1691,
      "duration": 0.0138,
      "velocity": 88,
      "chip": "ym2612"
    },
    {
      "channel": 1,
      "note": 92,
      "start": 4.1857,
      "duration": 0.1347,
      "velocity": 102,
      "chip": "ym2612"
    },
    {
      "channel": 2,
      "note": 73,
      "start": 4.1864,
      "duration": 0.2754,
      "velocity": 100,
      "chip": "ym2612"
    },
    {
      "channel": 3,
      "note": 51,
      "start": 4.187,
      "duration": 0.0294,
      "velocity": 88,
      "chip": "ym2612"
    },
    {
      "channel": 4,
      "note": 77,
      "start": 4.1876,
      "duration": 0.2745,
      "velocity": 100,
      "chip": "ym2612"
    },
    {
      "channel": 3,
      "note": 51,
      "start": 4.2192,
      "duration": 0.0137,
      "velocity": 88,
      "chip": "ym2612"
    },
    {
      "channel": 3,
      "note": 51,
      "start": 4.2359,
      "duration": 0.0131,
      "velocity": 88,
      "chip": "ym2612"
    },
    {
      "channel": 3,
      "note": 51,
      "start": 4.2542,
      "duration": 0.0292,
      "velocity": 88,
      "chip": "ym2612"
    },
    {
      "channel": 3,
      "note": 51,
      "start": 4.289,
      "duration": 0.0146,
      "velocity": 88,
      "chip": "ym2612"
    },
    {
      "channel": 3,
      "note": 51,
      "start": 4.3068,
      "duration": 0.0139,
      "velocity": 88,
      "chip": "ym2612"
    },
    {
      "channel": 1,
      "note": 90,
      "start": 4.3235,
      "duration": 0.0476,
      "velocity": 102,
      "chip": "ym2612"
    },
    {
      "channel": 3,
      "note": 51,
      "start": 4.3241,
      "duration": 0.03,
      "velocity": 88,
      "chip": "ym2612"
    },
    {
      "channel": 3,
      "note": 51,
      "start": 4.3572,
      "duration": 0.0141,
      "velocity": 88,
      "chip": "ym2612"
    },
    {
      "channel": 1,
      "note": 89,
      "start": 4.3741,
      "duration": 0.0498,
      "velocity": 102,
      "chip": "ym2612"
    },
    {
      "channel": 3,
      "note": 51,
      "start": 4.3747,
      "duration": 0.0137,
      "velocity": 88,
      "chip": "ym2612"
    },
    {
      "channel": 3,
      "note": 51,
      "start": 4.3925,
      "duration": 0.0317,
      "velocity": 88,
      "chip": "ym2612"
    },
    {
      "channel": 1,
      "note": 87,
      "start": 4.4296,
      "duration": 0.032,
      "velocity": 102,
      "chip": "ym2612"
    },
    {
      "channel": 3,
      "note": 51,
      "start": 4.4303,
      "duration": 0.0144,
      "velocity": 88,
      "chip": "ym2612"
    },
    {
      "channel": 3,
      "note": 51,
      "start": 4.4483,
      "duration": 0.0136,
      "velocity": 88,
      "chip": "ym2612"
    },
    {
      "channel": 1,
      "note": 92,
      "start": 4.4648,
      "duration": 0.135,
      "velocity": 102,
      "chip": "ym2612"
    },
    {
      "channel": 2,
      "note": 72,
      "start": 4.4654,
      "duration": 0.278,
      "velocity": 100,
      "chip": "ym2612"
    },
    {
      "channel": 3,
      "note": 51,
      "start": 4.466,
      "duration": 0.0295,
      "velocity": 88,
      "chip": "ym2612"
    },
    {
      "channel": 4,
      "note": 75,
      "start": 4.4666,
      "duration": 0.2771,
      "velocity": 100,
      "chip": "ym2612"
    },
    {
      "channel": 3,
      "note": 51,
      "start": 4.4984,
      "duration": 0.0138,
      "velocity": 88,
      "chip": "ym2612"
    },
    {
      "channel": 3,
      "note": 51,
      "start": 4.5151,
      "duration": 0.0132,
      "velocity": 88,
      "chip": "ym2612"
    },
    {
      "channel": 3,
      "note": 51,
      "start": 4.5334,
      "duration": 0.0293,
      "velocity": 88,
      "chip": "ym2612"
    },
    {
      "channel": 3,
      "note": 51,
      "start": 4.5684,
      "duration": 0.0146,
      "velocity": 88,
      "chip": "ym2612"
    },
    {
      "channel": 3,
      "note": 51,
      "start": 4.5862,
      "duration": 0.0139,
      "velocity": 88,
      "chip": "ym2612"
    },
    {
      "channel": 1,
      "note": 90,
      "start": 4.6028,
      "duration": 0.0144,
      "velocity": 102,
      "chip": "ym2612"
    },
    {
      "channel": 3,
      "note": 51,
      "start": 4.6034,
      "duration": 0.0302,
      "velocity": 88,
      "chip": "ym2612"
    },
    {
      "channel": 1,
      "note": 92,
      "start": 4.6203,
      "duration": 0.0131,
      "velocity": 102,
      "chip": "ym2612"
    },
    {
      "channel": 1,
      "note": 89,
      "start": 4.6364,
      "duration": 0.0149,
      "velocity": 102,
      "chip": "ym2612"
    },
    {
      "channel": 3,
      "note": 51,
      "start": 4.6371,
      "duration": 0.0145,
      "velocity": 88,
      "chip": "ym2612"
    },
    {
      "channel": 1,
      "note": 92,
      "start": 4.6544,
      "duration": 0.0142,
      "velocity": 102,
      "chip": "ym2612"
    },
    {
      "channel": 3,
      "note": 51,
      "start": 4.655,
      "duration": 0.0139,
      "velocity": 88,
      "chip": "ym2612"
    },
    {
      "channel": 1,
      "note": 87,
      "start": 4.673,
      "duration": 0.0149,
      "velocity": 102,
      "chip": "ym2612"
    },
    {
      "channel": 3,
      "note": 51,
      "start": 4.6737,
      "duration": 0.0319,
      "velocity": 88,
      "chip": "ym2612"
    },
    {
      "channel": 1,
      "note": 92,
      "start": 4.6918,
      "duration": 0.0135,
      "velocity": 102,
      "chip": "ym2612"
    },
    {
      "channel": 1,
      "note": 85,
      "start": 4.7105,
      "duration": 0.015,
      "velocity": 102,
      "chip": "ym2612"
    },
    {
      "channel": 3,
      "note": 51,
      "start": 4.7112,
      "duration": 0.0146,
      "velocity": 88,
      "chip": "ym2612"
    },
    {
      "channel": 1,
      "note": 92,
      "start": 4.7293,
      "duration": 0.014,
      "velocity": 102,
      "chip": "ym2612"
    },
    {
      "channel": 3,
      "note": 51,
      "start": 4.7299,
      "duration": 0.0137,
      "velocity": 88,
      "chip": "ym2612"
    },
    {
      "channel": 1,
      "note": 95,
      "start": 4.7482,
      "duration": 0.0513,
      "velocity": 102,
      "chip": "ym2612"
    },
    {
      "channel": 2,
      "note": 71,
      "start": 4.7487,
      "duration": 0.1376,
      "velocity": 100,
      "chip": "ym2612"
    },
    {
      "channel": 3,
      "note": 51,
      "start": 4.7494,
      "duration": 0.0334,
      "velocity": 88,
      "chip": "ym2612"
    },
    {
      "channel": 4,
      "note": 75,
      "start": 4.75,
      "duration": 0.1366,
      "velocity": 100,
      "chip": "ym2612"
    },
    {
      "channel": 3,
      "note": 51,
      "start": 4.7857,
      "duration": 0.0141,
      "velocity": 88,
      "chip": "ym2612"
    },
    {
      "channel": 1,
      "note": 90,
      "start": 4.8036,
      "duration": 0.0457,
      "velocity": 102,
      "chip": "ym2612"
    },
    {
      "channel": 3,
      "note": 51,
      "start": 4.8042,
      "duration": 0.0131,
      "velocity": 88,
      "chip": "ym2612"
    },
    {
      "channel": 3,
      "note": 51,
      "start": 4.8202,
      "duration": 0.0294,
      "velocity": 88,
      "chip": "ym2612"
    },
    {
      "channel": 1,
      "note": 95,
      "start": 4.8548,
      "duration": 0.0313,
      "velocity": 102,
      "chip": "ym2612"
    },
    {
      "channel": 3,
      "note": 51,
      "start": 4.8554,
      "duration": 0.0144,
      "velocity": 88,
      "chip": "ym2612"
    },
    {
      "channel": 3,
      "note": 51,
      "start": 4.8729,
      "duration": 0.0136,
      "velocity": 88,
      "chip": "ym2612"
    },
    {
      "channel": 1,
      "note": 97,
      "start": 4.8893,
      "duration": 0.0476,
      "velocity": 102,
      "chip": "ym2612"
    },
    {
      "channel": 2,
      "note": 73,
      "start": 4.8897,
      "duration": 0.138,
      "velocity": 100,
      "chip": "ym2612"
    },
    {
      "channel": 3,
      "note": 51,
      "start": 4.8902,
      "duration": 0.03,
      "velocity": 88,
      "chip": "ym2612"
    },
    {
      "channel": 4,
      "note": 77,
      "start": 4.8907,
      "duration": 0.1373,
      "velocity": 100,
      "chip": "ym2612"
    },
    {
      "channel": 3,
      "note": 51,
      "start": 4.9232,
      "duration": 0.0139,
      "velocity": 88,
      "chip": "ym2612"
    },
    {
      "channel": 1,
      "note": 92,
      "start": 4.9398,
      "duration": 0.0496,
      "velocity": 102,
      "chip": "ym2612"
    },
    {
      "channel": 3,
      "note": 51,
      "start": 4.9404,
      "duration": 0.0131,
      "velocity": 88,
      "chip": "ym2612"
    },
    {
      "channel": 3,
      "note": 51,
      "start": 4.9584,
      "duration": 0.0312,
      "velocity": 88,
      "chip": "ym2612"
    },
    {
      "channel": 1,
      "note": 89,
      "start": 4.9955,
      "duration": 0.0321,
      "velocity": 102,
      "chip": "ym2612"
    },
    {
      "channel": 3,
      "note": 51,
      "start": 4.9961,
      "duration": 0.0143,
      "velocity": 88,
      "chip": "ym2612"
    },
    {
      "channel": 3,
      "note": 51,
      "start": 5.0142,
      "duration": 0.0137,
      "velocity": 88,
      "chip": "ym2612"
    },
    {
      "channel": 1,
      "note": 85,
      "start": 5.0308,
      "duration": 0.0156,
      "velocity": 102,
      "chip": "ym2612"
    },
    {
      "channel": 2,
      "note": 75,
      "start": 5.0314,
      "duration": 0.281,
      "velocity": 100,
      "chip": "ym2612"
    },
    {
      "channel": 3,
      "note": 51,
      "start": 5.032,
      "duration": 0.0301,
      "velocity": 88,
      "chip": "ym2612"
    },
    {
      "channel": 4,
      "note": 78,
      "start": 5.0326,
      "duration": 0.2801,
      "velocity": 100,
      "chip": "ym2612"
    },
    {
      "channel": 1,
      "note": 87,
      "start": 5.0493,
      "duration": 0.0152,
      "velocity": 102,
      "chip": "ym2612"
    },
    {
      "channel": 3,
      "note": 51,
      "start": 5.0651,
      "duration": 0.0138,
      "velocity": 88,
      "chip": "ym2612"
    },
    {
      "channel": 1,
      "note": 87,
      "start": 5.0818,
      "duration": 0.0318,
      "velocity": 102,
      "chip": "ym2612"
    },
    {
      "channel": 3,
      "note": 51,
      "start": 5.0824,
      "duration": 0.0129,
      "velocity": 88,
      "chip": "ym2612"
    },
    {
      "channel": 3,
      "note": 51,
      "start": 5.0999,
      "duration": 0.0298,
      "velocity": 88,
      "chip": "ym2612"
    },
    {
      "channel": 1,
      "note": 85,
      "start": 5.1165,
      "duration": 0.0129,
      "velocity": 102,
      "chip": "ym2612"
    },
    {
      "channel": 1,
      "note": 87,
      "start": 5.1347,
      "duration": 0.015,
      "velocity": 102,
      "chip": "ym2612"
    },
    {
      "channel": 3,
      "note": 51,
      "start": 5.1352,
      "duration": 0.0146,
      "velocity": 88,
      "chip": "ym2612"
    },
    {
      "channel": 1,
      "note": 82,
      "start": 5.1528,
      "duration": 0.0172,
      "velocity": 102,
      "chip": "ym2612"
    },
    {
      "channel": 3,
      "note": 51,
      "start": 5.1534,
      "duration": 0.0169,
      "velocity": 88,
      "chip": "ym2612"
    },
    {
      "channel": 1,
      "note": 87,
      "start": 5.1731,
      "duration": 0.0147,
      "velocity": 102,
      "chip": "ym2612"
    },
    {
      "channel": 3,
      "note": 51,
      "start": 5.1737,
      "duration": 0.0302,
      "velocity": 88,
      "chip": "ym2612"
    },
    {
      "channel": 1,
      "note": 82,
      "start": 5.1909,
      "duration": 0.0128,
      "velocity": 102,
      "chip": "ym2612"
    },
    {
      "channel": 1,
      "note": 85,
      "start": 5.2067,
      "duration": 0.0149,
      "velocity": 102,
      "chip": "ym2612"
    },
    {
      "channel": 3,
      "note": 51,
      "start": 5.2073,
      "duration": 0.0146,
      "velocity": 88,
      "chip": "ym2612"
    },
    {
      "channel": 1,
      "note": 87,
      "start": 5.2247,
      "duration": 0.0136,
      "velocity": 102,
      "chip": "ym2612"
    },
    {
      "channel": 3,
      "note": 51,
      "start": 5.2252,
      "duration": 0.0133,
      "velocity": 88,
      "chip": "ym2612"
    },
    {
      "channel": 1,
      "note": 90,
      "start": 5.2424,
      "duration": 0.0149,
      "velocity": 102,
      "chip": "ym2612"
    },
    {
      "channel": 3,
      "note": 51,
      "start": 5.243,
      "duration": 0.0319,
      "velocity": 88,
      "chip": "ym2612"
    },
    {
      "channel": 1,
      "note": 85,
      "start": 5.2611,
      "duration": 0.0135,
      "velocity": 102,
      "chip": "ym2612"
    },
    {
      "channel": 1,
      "note": 87,
      "start": 5.2799,
      "duration": 0.0147,
      "velocity": 102,
      "chip": "ym2612"
    },
    {
      "channel": 3,
      "note": 51,
      "start": 5.2805,
      "duration": 0.0144,
      "velocity": 88,
      "chip": "ym2612"
    },
    {
      "channel": 1,
      "note": 90,
      "start": 5.2984,
      "duration": 0.0139,
      "velocity": 102,
      "chip": "ym2612"
    },
    {
      "channel": 3,
      "note": 51,
      "start": 5.299,
      "duration": 0.0136,
      "velocity": 88,
      "chip": "ym2612"
    },
    {
      "channel": 1,
      "note": 92,
      "start": 5.3156,
      "duration": 0.1381,
      "velocity": 102,
      "chip": "ym2612"
    },
    {
      "channel": 2,
      "note": 73,
      "start": 5.3161,
      "duration": 0.2823,
      "velocity": 100,
      "chip": "ym2612"
    },
    {
      "channel": 3,
      "note": 51,
      "start": 5.3168,
      "duration": 0.0296,
      "velocity": 88,
      "chip": "ym2612"
    },
    {
      "channel": 4,
      "note": 77,
      "start": 5.3174,
      "duration": 0.2814,
      "velocity": 100,
      "chip": "ym2612"
    },
    {
      "channel": 3,
      "note": 51,
      "start": 5.3493,
      "duration": 0.0138,
      "velocity": 88,
      "chip": "ym2612"
    },
    {
      "channel": 3,
      "note": 51,
      "start": 5.366,
      "duration": 0.013,
      "velocity": 88,
      "chip": "ym2612"
    },
    {
      "channel": 3,
      "note": 51,
      "start": 5.3842,
      "duration": 0.0291,
      "velocity": 88,
      "chip": "ym2612"
    },
    {
      "channel": 3,
      "note": 51,
      "start": 5.419,
      "duration": 0.0148,
      "velocity": 88,
      "chip": "ym2612"
    },
    {
      "channel": 3,
      "note": 51,
      "start": 5.4371,
      "duration": 0.0169,
      "velocity": 88,
      "chip": "ym2612"
    },
    {
      "channel": 1,
      "note": 90,
      "start": 5.4568,
      "duration": 0.0512,
      "velocity": 102,
      "chip": "ym2612"
    },
    {
      "channel": 3,
      "note": 51,
      "start": 5.4574,
      "duration": 0.0298,
      "velocity": 88,
      "chip": "ym2612"
    },
    {
      "channel": 3,
      "note": 51,
      "start": 5.4902,
      "duration": 0.0179,
      "velocity": 88,
      "chip": "ym2612"
    },
    {
      "channel": 1,
      "note": 89,
      "start": 5.511,
      "duration": 0.05,
      "velocity": 102,
      "chip": "ym2612"
    },
    {
      "channel": 3,
      "note": 51,
      "start": 5.5117,
      "duration": 0.0134,
      "velocity": 88,
      "chip": "ym2612"
    },
    {
      "channel": 3,
      "note": 51,
      "start": 5.5294,
      "duration": 0.0319,
      "velocity": 88,
      "chip": "ym2612"
    },
    {
      "channel": 1,
      "note": 87,
      "start": 5.5666,
      "duration": 0.0317,
      "velocity": 102,
      "chip": "ym2612"
    },
    {
      "channel": 3,
      "note": 51,
      "start": 5.5672,
      "duration": 0.0143,
      "velocity": 88,
      "chip": "ym2612"
    },
    {
      "channel": 3,
      "note": 51,
      "start": 5.5852,
      "duration": 0.0134,
      "velocity": 88,
      "chip": "ym2612"
    },
    {
      "channel": 1,
      "note": 92,
      "start": 5.6015,
      "duration": 0.1383,
      "velocity": 102,
      "chip": "ym2612"
    },
    {
      "channel": 2,
      "note": 72,
      "start": 5.6021,
      "duration": 0.2803,
      "velocity": 100,
      "chip": "ym2612"
    },
    {
      "channel": 3,
      "note": 51,
      "start": 5.6027,
      "duration": 0.0295,
      "velocity": 88,
      "chip": "ym2612"
    },
    {
      "channel": 4,
      "note": 75,
      "start": 5.6033,
      "duration": 0.2795,
      "velocity": 100,
      "chip": "ym2612"
    },
    {
      "channel": 3,
      "note": 51,
      "start": 5.6352,
      "duration": 0.0139,
      "velocity": 88,
      "chip": "ym2612"
    },
    {
      "channel": 3,
      "note": 51,
      "start": 5.6521,
      "duration": 0.0129,
      "velocity": 88,
      "chip": "ym2612"
    },
    {
      "channel": 3,
      "note": 51,
      "start": 5.6702,
      "duration": 0.0293,
      "velocity": 88,
      "chip": "ym2612"
    },
    {
      "channel": 3,
      "note": 51,
      "start": 5.7051,
      "duration": 0.0147,
      "velocity": 88,
      "chip": "ym2612"
    },
    {
      "channel": 3,
      "note": 51,
      "start": 5.7231,
      "duration": 0.017,
      "velocity": 88,
      "chip": "ym2612"
    },
    {
      "channel": 1,
      "note": 90,
      "start": 5.743,
      "duration": 0.0147,
      "velocity": 102,
      "chip": "ym2612"
    },
    {
      "channel": 3,
      "note": 51,
      "start": 5.7437,
      "duration": 0.0303,
      "velocity": 88,
      "chip": "ym2612"
    },
    {
      "channel": 1,
      "note": 92,
      "start": 5.7608,
      "duration": 0.0129,
      "velocity": 102,
      "chip": "ym2612"
    },
    {
      "channel": 1,
      "note": 89,
      "start": 5.7768,
      "duration": 0.0147,
      "velocity": 102,
      "chip": "ym2612"
    },
    {
      "channel": 3,
      "note": 51,
      "start": 5.7773,
      "duration": 0.0144,
      "velocity": 88,
      "chip": "ym2612"
    },
    {
      "channel": 1,
      "note": 92,
      "start": 5.7945,
      "duration": 0.014,
      "velocity": 102,
      "chip": "ym2612"
    },
    {
      "channel": 3,
      "note": 51,
      "start": 5.7951,
      "duration": 0.0137,
      "velocity": 88,
      "chip": "ym2612"
    },
    {
      "channel": 1,
      "note": 87,
      "start": 5.8129,
      "duration": 0.0147,
      "velocity": 102,
      "chip": "ym2612"
    },
    {
      "channel": 3,
      "note": 51,
      "start": 5.8134,
      "duration": 0.0315,
      "velocity": 88,
      "chip": "ym2612"
    },
    {
      "channel": 1,
      "note": 92,
      "start": 5.8314,
      "duration": 0.0133,
      "velocity": 102,
      "chip": "ym2612"
    },
    {
      "channel": 1,
      "note": 85,
      "start": 5.8499,
      "duration": 0.0147,
      "velocity": 102,
      "chip": "ym2612"
    },
    {
      "channel": 3,
      "note": 51,
      "start": 5.8505,
      "duration": 0.0143,
      "velocity": 88,
      "chip": "ym2612"
    },
    {
      "channel": 1,
      "note": 92,
      "start": 5.8683,
      "duration": 0.014,
      "velocity": 102,
      "chip": "ym2612"
    },
    {
      "channel": 3,
      "note": 51,
      "start": 5.8689,
      "duration": 0.0137,
      "velocity": 88,
      "chip": "ym2612"
    },
    {
      "channel": 1,
      "note": 95,
      "start": 5.8871,
      "duration": 0.0503,
      "velocity": 102,
      "chip": "ym2612"
    },
    {
      "channel": 2,
      "note": 71,
      "start": 5.8876,
      "duration": 0.135,
      "velocity": 100,
      "chip": "ym2612"
    },
    {
      "channel": 3,
      "note": 51,
      "start": 5.8883,
      "duration": 0.0324,
      "velocity": 88,
      "chip": "ym2612"
    },
    {
      "channel": 4,
      "note": 75,
      "start": 5.8888,
      "duration": 0.1341,
      "velocity": 100,
      "chip": "ym2612"
    },
    {
      "channel": 3,
      "note": 51,
      "start": 5.9243,
      "duration": 0.0132,
      "velocity": 88,
      "chip": "ym2612"
    },
    {
      "channel": 1,
      "note": 90,
      "start": 5.9401,
      "duration": 0.0457,
      "velocity": 102,
      "chip": "ym2612"
    },
    {
      "channel": 3,
      "note": 51,
      "start": 5.9407,
      "duration": 0.0117,
      "velocity": 88,
      "chip": "ym2612"
    },
    {
      "channel": 3,
      "note": 51,
      "start": 5.9553,
      "duration": 0.0307,
      "velocity": 88,
      "chip": "ym2612"
    },
    {
      "channel": 1,
      "note": 95,
      "start": 5.9912,
      "duration": 0.0314,
      "velocity": 102,
      "chip": "ym2612"
    },
    {
      "channel": 3,
      "note": 51,
      "start": 5.9918,
      "duration": 0.0145,
      "velocity": 88,
      "chip": "ym2612"
    },
    {
      "channel": 3,
      "note": 51,
      "start": 6.0094,
      "duration": 0.0135,
      "velocity": 88,
      "chip": "ym2612"
    },
    {
      "channel": 1,
      "note": 97,
      "start": 6.0269,
      "duration": 0.0524,
      "velocity": 102,
      "chip": "ym2612"
    },
    {
      "channel": 2,
      "note": 73,
      "start": 6.0274,
      "duration": 0.1446,
      "velocity": 100,
      "chip": "ym2612"
    },
    {
      "channel": 3,
      "note": 51,
      "start": 6.0279,
      "duration": 0.0315,
      "velocity": 88,
      "chip": "ym2612"
    },
    {
      "channel": 4,
      "note": 77,
      "start": 6.0284,
      "duration": 0.1439,
      "velocity": 100,
      "chip": "ym2612"
    },
    {
      "channel": 3,
      "note": 51,
      "start": 6.0649,
      "duration": 0.0146,
      "velocity": 88,
      "chip": "ym2612"
    },
    {
      "channel": 1,
      "note": 92,
      "start": 6.0837,
      "duration": 0.05,
      "velocity": 102,
      "chip": "ym2612"
    },
    {
      "channel": 3,
      "note": 51,
      "start": 6.0842,
      "duration": 0.0137,
      "velocity": 88,
      "chip": "ym2612"
    },
    {
      "channel": 3,
      "note": 51,
      "start": 6.1028,
      "duration": 0.0311,
      "velocity": 88,
      "chip": "ym2612"
    },
    {
      "channel": 1,
      "note": 89,
      "start": 6.1398,
      "duration": 0.0321,
      "velocity": 102,
      "chip": "ym2612"
    },
    {
      "channel": 3,
      "note": 51,
      "start": 6.1404,
      "duration": 0.0145,
      "velocity": 88,
      "chip": "ym2612"
    },
    {
      "channel": 3,
      "note": 51,
      "start": 6.1587,
      "duration": 0.0135,
      "velocity": 88,
      "chip": "ym2612"
    },
    {
      "channel": 1,
      "note": 91,
      "start": 6.1751,
      "duration": 1.0497,
      "velocity": 102,
      "chip": "ym2612"
    },
    {
      "channel": 2,
      "note": 72,
      "start": 6.1759,
      "duration": 0.2746,
      "velocity": 100,
      "chip": "ym2612"
    },
    {
      "channel": 3,
      "note": 53,
      "start": 6.1765,
      "duration": 0.0145,
      "velocity": 88,
      "chip": "ym2612"
    },
    {
      "channel": 4,
      "note": 74,
      "start": 6.1772,
      "duration": 0.2735,
      "velocity": 100,
      "chip": "ym2612"
    },
    {
      "channel": 3,
      "note": 55,
      "start": 6.209,
      "duration": 0.0139,
      "velocity": 88,
      "chip": "ym2612"
    },
    {
      "channel": 3,
      "note": 55,
      "start": 6.2443,
      "duration": 0.014,
      "velocity": 88,
      "chip": "ym2612"
    },
    {
      "channel": 3,
      "note": 55,
      "start": 6.2612,
      "duration": 0.013,
      "velocity": 88,
      "chip": "ym2612"
    },
    {
      "channel": 3,
      "note": 55,
      "start": 6.2943,
      "duration": 0.0137,
      "velocity": 88,
      "chip": "ym2612"
    },
    {
      "channel": 3,
      "note": 55,
      "start": 6.3111,
      "duration": 0.0146,
      "velocity": 88,
      "chip": "ym2612"
    },
    {
      "channel": 3,
      "note": 55,
      "start": 6.3457,
      "duration": 0.0146,
      "velocity": 88,
      "chip": "ym2612"
    },
    {
      "channel": 3,
      "note": 53,
      "start": 6.3816,
      "duration": 0.0146,
      "velocity": 88,
      "chip": "ym2612"
    },
    {
      "channel": 3,
      "note": 55,
      "start": 6.4187,
      "duration": 0.0145,
      "velocity": 88,
      "chip": "ym2612"
    },
    {
      "channel": 2,
      "note": 75,
      "start": 6.454,
      "duration": 0.2798,
      "velocity": 100,
      "chip": "ym2612"
    },
    {
      "channel": 3,
      "note": 53,
      "start": 6.4546,
      "duration": 0.0145,
      "velocity": 88,
      "chip": "ym2612"
    },
    {
      "channel": 4,
      "note": 77,
      "start": 6.4552,
      "duration": 0.2789,
      "velocity": 100,
      "chip": "ym2612"
    },
    {
      "channel": 3,
      "note": 55,
      "start": 6.4874,
      "duration": 0.0139,
      "velocity": 88,
      "chip": "ym2612"
    },
    {
      "channel": 3,
      "note": 55,
      "start": 6.5225,
      "duration": 0.014,
      "velocity": 88,
      "chip": "ym2612"
    },
    {
      "channel": 3,
      "note": 55,
      "start": 6.541,
      "duration": 0.0133,
      "velocity": 88,
      "chip": "ym2612"
    },
    {
      "channel": 3,
      "note": 55,
      "start": 6.5744,
      "duration": 0.0139,
      "velocity": 88,
      "chip": "ym2612"
    },
    {
      "channel": 3,
      "note": 58,
      "start": 6.5926,
      "duration": 0.0134,
      "velocity": 88,
      "chip": "ym2612"
    },
    {
      "channel": 3,
      "note": 56,
      "start": 6.6101,
      "duration": 0.0129,
      "velocity": 88,
      "chip": "ym2612"
    },
    {
      "channel": 3,
      "note": 55,
      "start": 6.6282,
      "duration": 0.0145,
      "velocity": 88,
      "chip": "ym2612"
    },
    {
      "channel": 3,
      "note": 53,
      "start": 6.646,
      "duration": 0.0138,
      "velocity": 88,
      "chip": "ym2612"
    },
    {
      "channel": 3,
      "note": 60,
      "start": 6.6639,
      "duration": 0.0152,
      "velocity": 88,
      "chip": "ym2612"
    },
    {
      "channel": 3,
      "note": 58,
      "start": 6.6828,
      "duration": 0.0143,
      "velocity": 88,
      "chip": "ym2612"
    },
    {
      "channel": 3,
      "note": 56,
      "start": 6.7015,
      "duration": 0.0144,
      "velocity": 88,
      "chip": "ym2612"
    },
    {
      "channel": 3,
      "note": 55,
      "start": 6.72,
      "duration": 0.0139,
      "velocity": 88,
      "chip": "ym2612"
    },
    {
      "channel": 2,
      "note": 74,
      "start": 6.7374,
      "duration": 0.2747,
      "velocity": 100,
      "chip": "ym2612"
    },
    {
      "channel": 3,
      "note": 53,
      "start": 6.738,
      "duration": 0.0146,
      "velocity": 88,
      "chip": "ym2612"
    },
    {
      "channel": 4,
      "note": 76,
      "start": 6.7386,
      "duration": 0.2737,
      "velocity": 100,
      "chip": "ym2612"
    },
    {
      "channel": 3,
      "note": 55,
      "start": 6.7711,
      "duration": 0.014,
      "velocity": 88,
      "chip": "ym2612"
    },
    {
      "channel": 3,
      "note": 55,
      "start": 6.8062,
      "duration": 0.0138,
      "velocity": 88,
      "chip": "ym2612"
    },
    {
      "channel": 3,
      "note": 55,
      "start": 6.823,
      "duration": 0.0133,
      "velocity": 88,
      "chip": "ym2612"
    },
    {
      "channel": 3,
      "note": 55,
      "start": 6.8561,
      "duration": 0.0138,
      "velocity": 88,
      "chip": "ym2612"
    },
    {
      "channel": 3,
      "note": 55,
      "start": 6.873,
      "duration": 0.0146,
      "velocity": 88,
      "chip": "ym2612"
    },
    {
      "channel": 3,
      "note": 55,
      "start": 6.9075,
      "duration": 0.0145,
      "velocity": 88,
      "chip": "ym2612"
    },
    {
      "channel": 3,
      "note": 53,
      "start": 6.9432,
      "duration": 0.0146,
      "velocity": 88,
      "chip": "ym2612"
    },
    {
      "channel": 3,
      "note": 55,
      "start": 6.9803,
      "duration": 0.0146,
      "velocity": 88,
      "chip": "ym2612"
    },
    {
      "channel": 2,
      "note": 73,
      "start": 7.0179,
      "duration": 0.2796,
      "velocity": 100,
      "chip": "ym2612"
    },
    {
      "channel": 3,
      "note": 53,
      "start": 7.0185,
      "duration": 0.0137,
      "velocity": 88,
      "chip": "ym2612"
    },
    {
      "channel": 4,
      "note": 75,
      "start": 7.0191,
      "duration": 0.2787,
      "velocity": 100,
      "chip": "ym2612"
    },
    {
      "channel": 3,
      "note": 55,
      "start": 7.0497,
      "duration": 0.0148,
      "velocity": 88,
      "chip": "ym2612"
    },
    {
      "channel": 3,
      "note": 55,
      "start": 7.0818,
      "duration": 0.0141,
      "velocity": 88,
      "chip": "ym2612"
    },
    {
      "channel": 3,
      "note": 55,
      "start": 7.0988,
      "duration": 0.0133,
      "velocity": 88,
      "chip": "ym2612"
    },
    {
      "channel": 3,
      "note": 55,
      "start": 7.1327,
      "duration": 0.0133,
      "velocity": 88,
      "chip": "ym2612"
    },
    {
      "channel": 3,
      "note": 58,
      "start": 7.1496,
      "duration": 0.0153,
      "velocity": 88,
      "chip": "ym2612"
    },
    {
      "channel": 3,
      "note": 56,
      "start": 7.1681,
      "duration": 0.0176,
      "velocity": 88,
      "chip": "ym2612"
    },
    {
      "channel": 3,
      "note": 55,
      "start": 7.1889,
      "duration": 0.0191,
      "velocity": 88,
      "chip": "ym2612"
    },
    {
      "channel": 3,
      "note": 53,
      "start": 7.2112,
      "duration": 0.0139,
      "velocity": 88,
      "chip": "ym2612"
    },
    {
      "channel": 1,
      "note": 84,
      "start": 7.2281,
      "duration": 0.0321,
      "velocity": 102,
      "chip": "ym2612"
    },
    {
      "channel": 3,
      "note": 60,
      "start": 7.2288,
      "duration": 0.0144,
      "velocity": 88,
      "chip": "ym2612"
    },
    {
      "channel": 3,
      "note": 58,
      "start": 7.2468,
      "duration": 0.0137,
      "velocity": 88,
      "chip": "ym2612"
    },
    {
      "channel": 1,
      "note": 87,
      "start": 7.2654,
      "duration": 0.032,
      "velocity": 102,
      "chip": "ym2612"
    },
    {
      "channel": 3,
      "note": 56,
      "start": 7.2661,
      "duration": 0.0141,
      "velocity": 88,
      "chip": "ym2612"
    },
    {
      "channel": 3,
      "note": 55,
      "start": 7.284,
      "duration": 0.0137,
      "velocity": 88,
      "chip": "ym2612"
    },
    {
      "channel": 1,
      "note": 86,
      "start": 7.3006,
      "duration": 0.1454,
      "velocity": 102,
      "chip": "ym2612"
    },
    {
      "channel": 2,
      "note": 72,
      "start": 7.3027,
      "duration": 0.0194,
      "velocity": 100,
      "chip": "ym2612"
    },
    {
      "channel": 3,
      "note": 53,
      "start": 7.3034,
      "duration": 0.0163,
      "velocity": 88,
      "chip": "ym2612"
    },
    {
      "channel": 4,
      "note": 74,
      "start": 7.3055,
      "duration": 0.0168,
      "velocity": 100,
      "chip": "ym2612"
    },
    {
      "channel": 2,
      "note": 72,
      "start": 7.3378,
      "duration": 0.0207,
      "velocity": 100,
      "chip": "ym2612"
    },
    {
      "channel": 3,
      "note": 55,
      "start": 7.3382,
      "duration": 0.0178,
      "velocity": 88,
      "chip": "ym2612"
    },
    {
      "channel": 4,
      "note": 74,
      "start": 7.3388,
      "duration": 0.02,
      "velocity": 100,
      "chip": "ym2612"
    },
    {
      "channel": 3,
      "note": 55,
      "start": 7.3772,
      "duration": 0.0139,
      "velocity": 88,
      "chip": "ym2612"
    },
    {
      "channel": 2,
      "note": 72,
      "start": 7.3955,
      "duration": 0.0181,
      "velocity": 100,
      "chip": "ym2612"
    },
    {
      "channel": 3,
      "note": 55,
      "start": 7.396,
      "duration": 0.0138,
      "velocity": 88,
      "chip": "ym2612"
    },
    {
      "channel": 4,
      "note": 74,
      "start": 7.3964,
      "duration": 0.0174,
      "velocity": 100,
      "chip": "ym2612"
    },
    {
      "channel": 2,
      "note": 72,
      "start": 7.432,
      "duration": 0.0142,
      "velocity": 100,
      "chip": "ym2612"
    },
    {
      "channel": 3,
      "note": 55,
      "start": 7.4324,
      "duration": 0.0138,
      "velocity": 88,
      "chip": "ym2612"
    },
    {
      "channel": 4,
      "note": 74,
      "start": 7.433,
      "duration": 0.0134,
      "velocity": 100,
      "chip": "ym2612"
    },
    {
      "channel": 1,
      "note": 81,
      "start": 7.4492,
      "duration": 0.0153,
      "velocity": 102,
      "chip": "ym2612"
    },
    {
      "channel": 2,
      "note": 72,
      "start": 7.4497,
      "duration": 0.0638,
      "velocity": 100,
      "chip": "ym2612"
    },
    {
      "channel": 3,
      "note": 55,
      "start": 7.4502,
      "duration": 0.0144,
      "velocity": 88,
      "chip": "ym2612"
    },
    {
      "channel": 4,
      "note": 74,
      "start": 7.4507,
      "duration": 0.063,
      "velocity": 100,
      "chip": "ym2612"
    },
    {
      "channel": 1,
      "note": 82,
      "start": 7.4674,
      "duration": 0.0126,
      "velocity": 102,
      "chip": "ym2612"
    },
    {
      "channel": 1,
      "note": 83,
      "start": 7.483,
      "duration": 0.0144,
      "velocity": 102,
      "chip": "ym2612"
    },
    {
      "channel": 3,
      "note": 55,
      "start": 7.4835,
      "duration": 0.0141,
      "velocity": 88,
      "chip": "ym2612"
    },
    {
      "channel": 1,
      "note": 84,
      "start": 7.5003,
      "duration": 0.0131,
      "velocity": 102,
      "chip": "ym2612"
    },
    {
      "channel": 1,
      "note": 85,
      "start": 7.5186,
      "duration": 0.0151,
      "velocity": 102,
      "chip": "ym2612"
    },
    {
      "channel": 2,
      "note": 72,
      "start": 7.5191,
      "duration": 0.0177,
      "velocity": 100,
      "chip": "ym2612"
    },
    {
      "channel": 3,
      "note": 53,
      "start": 7.5196,
      "duration": 0.0143,
      "velocity": 88,
      "chip": "ym2612"
    },
    {
      "channel": 4,
      "note": 74,
      "start": 7.5201,
      "duration": 0.0169,
      "velocity": 100,
      "chip": "ym2612"
    },
    {
      "channel": 1,
      "note": 86,
      "start": 7.5366,
      "duration": 0.0132,
      "velocity": 102,
      "chip": "ym2612"
    },
    {
      "channel": 1,
      "note": 87,
      "start": 7.5527,
      "duration": 0.0148,
      "velocity": 102,
      "chip": "ym2612"
    },
    {
      "channel": 2,
      "note": 72,
      "start": 7.5532,
      "duration": 0.0174,
      "velocity": 100,
      "chip": "ym2612"
    },
    {
      "channel": 3,
      "note": 55,
      "start": 7.5537,
      "duration": 0.0139,
      "velocity": 88,
      "chip": "ym2612"
    },
    {
      "channel": 4,
      "note": 74,
      "start": 7.5542,
      "duration": 0.0166,
      "velocity": 100,
      "chip": "ym2612"
    },
    {
      "channel": 1,
      "note": 88,
      "start": 7.5705,
      "duration": 0.013,
      "velocity": 102,
      "chip": "ym2612"
    },
    {
      "channel": 1,
      "note": 89,
      "start": 7.5865,
      "duration": 0.2766,
      "velocity": 102,
      "chip": "ym2612"
    },
    {
      "channel": 2,
      "note": 75,
      "start": 7.5871,
      "duration": 0.0177,
      "velocity": 100,
      "chip": "ym2612"
    },
    {
      "channel": 3,
      "note": 53,
      "start": 7.5877,
      "duration": 0.0146,
      "velocity": 88,
      "chip": "ym2612"
    },
    {
      "channel": 4,
      "note": 77,
      "start": 7.5883,
      "duration": 0.0168,
      "velocity": 100,
      "chip": "ym2612"
    },
    {
      "channel": 2,
      "note": 75,
      "start": 7.6204,
      "duration": 0.0174,
      "velocity": 100,
      "chip": "ym2612"
    },
    {
      "channel": 3,
      "note": 55,
      "start": 7.621,
      "duration": 0.0144,
      "velocity": 88,
      "chip": "ym2612"
    },
    {
      "channel": 4,
      "note": 77,
      "start": 7.6215,
      "duration": 0.0166,
      "velocity": 100,
      "chip": "ym2612"
    },
    {
      "channel": 3,
      "note": 55,
      "start": 7.6563,
      "duration": 0.0138,
      "velocity": 88,
      "chip": "ym2612"
    },
    {
      "channel": 2,
      "note": 75,
      "start": 7.6746,
      "duration": 0.0167,
      "velocity": 100,
      "chip": "ym2612"
    },
    {
      "channel": 3,
      "note": 55,
      "start": 7.675,
      "duration": 0.0136,
      "velocity": 88,
      "chip": "ym2612"
    },
    {
      "channel": 4,
      "note": 77,
      "start": 7.6756,
      "duration": 0.016,
      "velocity": 100,
      "chip": "ym2612"
    },
    {
      "channel": 2,
      "note": 75,
      "start": 7.7081,
      "duration": 0.0142,
      "velocity": 100,
      "chip": "ym2612"
    },
    {
      "channel": 3,
      "note": 55,
      "start": 7.7086,
      "duration": 0.0139,
      "velocity": 88,
      "chip": "ym2612"
    },
    {
      "channel": 4,
      "note": 77,
      "start": 7.7091,
      "duration": 0.0135,
      "velocity": 100,
      "chip": "ym2612"
    },
    {
      "channel": 2,
      "note": 75,
      "start": 7.7255,
      "duration": 0.0638,
      "velocity": 100,
      "chip": "ym2612"
    },
    {
      "channel": 3,
      "note": 58,
      "start": 7.726,
      "duration": 0.0145,
      "velocity": 88,
      "chip": "ym2612"
    },
    {
      "channel": 4,
      "note": 77,
      "start": 7.7265,
      "duration": 0.063,
      "velocity": 100,
      "chip": "ym2612"
    },
    {
      "channel": 3,
      "note": 56,
      "start": 7.7434,
      "duration": 0.0127,
      "velocity": 88,
      "chip": "ym2612"
    },
    {
      "channel": 3,
      "note": 55,
      "start": 7.7591,
      "duration": 0.0141,
      "velocity": 88,
      "chip": "ym2612"
    },
    {
      "channel": 3,
      "note": 53,
      "start": 7.7762,
      "duration": 0.0132,
      "velocity": 88,
      "chip": "ym2612"
    },
    {
      "channel": 2,
      "note": 75,
      "start": 7.7942,
      "duration": 0.0181,
      "velocity": 100,
      "chip": "ym2612"
    },
    {
      "channel": 3,
      "note": 60,
      "start": 7.7947,
      "duration": 0.0146,
      "velocity": 88,
      "chip": "ym2612"
    },
    {
      "channel": 4,
      "note": 77,
      "start": 7.7952,
      "duration": 0.0178,
      "velocity": 100,
      "chip": "ym2612"
    },
    {
      "channel": 3,
      "note": 58,
      "start": 7.8128,
      "duration": 0.0132,
      "velocity": 88,
      "chip": "ym2612"
    },
    {
      "channel": 2,
      "note": 75,
      "start": 7.8312,
      "duration": 0.0183,
      "velocity": 100,
      "chip": "ym2612"
    },
    {
      "channel": 3,
      "note": 56,
      "start": 7.8317,
      "duration": 0.0146,
      "velocity": 88,
      "chip": "ym2612"
    },
    {
      "channel": 4,
      "note": 77,
      "start": 7.8322,
      "duration": 0.018,
      "velocity": 100,
      "chip": "ym2612"
    },
    {
      "channel": 3,
      "note": 55,
      "start": 7.85,
      "duration": 0.0134,
      "velocity": 88,
      "chip": "ym2612"
    },
    {
      "channel": 1,
      "note": 91,
      "start": 7.8662,
      "duration": 0.1391,
      "velocity": 102,
      "chip": "ym2612"
    },
    {
      "channel": 2,
      "note": 74,
      "start": 7.8668,
      "duration": 0.015,
      "velocity": 100,
      "chip": "ym2612"
    },
    {
      "channel": 3,
      "note": 53,
      "start": 7.8674,
      "duration": 0.0146,
      "velocity": 88,
      "chip": "ym2612"
    },
    {
      "channel": 4,
      "note": 79,
      "start": 7.868,
      "duration": 0.0141,
      "velocity": 100,
      "chip": "ym2612"
    },
    {
      "channel": 2,
      "note": 74,
      "start": 7.8849,
      "duration": 0.0129,
      "velocity": 100,
      "chip": "ym2612"
    },
    {
      "channel": 4,
      "note": 79,
      "start": 7.8855,
      "duration": 0.0126,
      "velocity": 100,
      "chip": "ym2612"
    },
    {
      "channel": 2,
      "note": 74,
      "start": 7.9009,
      "duration": 0.0146,
      "velocity": 100,
      "chip": "ym2612"
    },
    {
      "channel": 3,
      "note": 55,
      "start": 7.9013,
      "duration": 0.0143,
      "velocity": 88,
      "chip": "ym2612"
    },
    {
      "channel": 4,
      "note": 79,
      "start": 7.9019,
      "duration": 0.0139,
      "velocity": 100,
      "chip": "ym2612"
    },
    {
      "channel": 3,
      "note": 55,
      "start": 7.9369,
      "duration": 0.0138,
      "velocity": 88,
      "chip": "ym2612"
    },
    {
      "channel": 3,
      "note": 55,
      "start": 7.9553,
      "duration": 0.0132,
      "velocity": 88,
      "chip": "ym2612"
    },
    {
      "channel": 2,
      "note": 74,
      "start": 7.9734,
      "duration": 0.0146,
      "velocity": 100,
      "chip": "ym2612"
    },
    {
      "channel": 4,
      "note": 79,
      "start": 7.974,
      "duration": 0.0143,
      "velocity": 100,
      "chip": "ym2612"
    },
    {
      "channel": 2,
      "note": 74,
      "start": 7.9913,
      "duration": 0.0141,
      "velocity": 100,
      "chip": "ym2612"
    },
    {
      "channel": 3,
      "note": 55,
      "start": 7.9918,
      "duration": 0.0138,
      "velocity": 88,
      "chip": "ym2612"
    },
    {
      "channel": 4,
      "note": 79,
      "start": 7.9924,
      "duration": 0.0134,
      "velocity": 100,
      "chip": "ym2612"
    },
    {
      "channel": 1,
      "note": 94,
      "start": 8.0085,
      "duration": 0.0152,
      "velocity": 102,
      "chip": "ym2612"
    },
    {
      "channel": 2,
      "note": 74,
      "start": 8.009,
      "duration": 0.0148,
      "velocity": 100,
      "chip": "ym2612"
    },
    {
      "channel": 3,
      "note": 55,
      "start": 8.0095,
      "duration": 0.0145,
      "velocity": 88,
      "chip": "ym2612"
    },
    {
      "channel": 4,
      "note": 79,
      "start": 8.01,
      "duration": 0.0141,
      "velocity": 100,
      "chip": "ym2612"
    },
    {
      "channel": 1,
      "note": 92,
      "start": 8.0268,
      "duration": 0.0124,
      "velocity": 102,
      "chip": "ym2612"
    },
    {
      "channel": 1,
      "note": 91,
      "start": 8.0421,
      "duration": 0.0143,
      "velocity": 102,
      "chip": "ym2612"
    },
    {
      "channel": 3,
      "note": 55,
      "start": 8.0427,
      "duration": 0.0139,
      "velocity": 88,
      "chip": "ym2612"
    },
    {
      "channel": 1,
      "note": 89,
      "start": 8.0594,
      "duration": 0.0128,
      "velocity": 102,
      "chip": "ym2612"
    },
    {
      "channel": 1,
      "note": 96,
      "start": 8.0773,
      "duration": 0.0152,
      "velocity": 102,
      "chip": "ym2612"
    },
    {
      "channel": 2,
      "note": 74,
      "start": 8.0778,
      "duration": 0.0148,
      "velocity": 100,
      "chip": "ym2612"
    },
    {
      "channel": 3,
      "note": 53,
      "start": 8.0783,
      "duration": 0.0145,
      "velocity": 88,
      "chip": "ym2612"
    },
    {
      "channel": 4,
      "note": 79,
      "start": 8.0788,
      "duration": 0.0141,
      "velocity": 100,
      "chip": "ym2612"
    },
    {
      "channel": 1,
      "note": 94,
      "start": 8.0956,
      "duration": 0.0137,
      "velocity": 102,
      "chip": "ym2612"
    },
    {
      "channel": 2,
      "note": 74,
      "start": 8.0961,
      "duration": 0.0133,
      "velocity": 100,
      "chip": "ym2612"
    },
    {
      "channel": 4,
      "note": 79,
      "start": 8.0967,
      "duration": 0.013,
      "velocity": 100,
      "chip": "ym2612"
    },
    {
      "channel": 1,
      "note": 92,
      "start": 8.1124,
      "duration": 0.0146,
      "velocity": 102,
      "chip": "ym2612"
    },
    {
      "channel": 2,
      "note": 74,
      "start": 8.1129,
      "duration": 0.0143,
      "velocity": 100,
      "chip": "ym2612"
    },
    {
      "channel": 3,
      "note": 55,
      "start": 8.1134,
      "duration": 0.0139,
      "velocity": 88,
      "chip": "ym2612"
    },
    {
      "channel": 4,
      "note": 79,
      "start": 8.1139,
      "duration": 0.0136,
      "velocity": 100,
      "chip": "ym2612"
    },
    {
      "channel": 1,
      "note": 91,
      "start": 8.1302,
      "duration": 0.0138,
      "velocity": 102,
      "chip": "ym2612"
    },
    {
      "channel": 2,
      "note": 74,
      "start": 8.1307,
      "duration": 0.0134,
      "velocity": 100,
      "chip": "ym2612"
    },
    {
      "channel": 4,
      "note": 79,
      "start": 8.1312,
      "duration": 0.013,
      "velocity": 100,
      "chip": "ym2612"
    },
    {
      "channel": 1,
      "note": 91,
      "start": 8.1483,
      "duration": 0.2131,
      "velocity": 102,
      "chip": "ym2612"
    },
    {
      "channel": 2,
      "note": 74,
      "start": 8.1489,
      "duration": 0.0144,
      "velocity": 100,
      "chip": "ym2612"
    },
    {
      "channel": 3,
      "note": 53,
      "start": 8.1495,
      "duration": 0.014,
      "velocity": 88,
      "chip": "ym2612"
    },
    {
      "channel": 4,
      "note": 79,
      "start": 8.1501,
      "duration": 0.0135,
      "velocity": 100,
      "chip": "ym2612"
    },
    {
      "channel": 2,
      "note": 74,
      "start": 8.1663,
      "duration": 0.0125,
      "velocity": 100,
      "chip": "ym2612"
    },
    {
      "channel": 4,
      "note": 79,
      "start": 8.1669,
      "duration": 0.0122,
      "velocity": 100,
      "chip": "ym2612"
    },
    {
      "channel": 2,
      "note": 74,
      "start": 8.1817,
      "duration": 0.0141,
      "velocity": 100,
      "chip": "ym2612"
    },
    {
      "channel": 3,
      "note": 55,
      "start": 8.1822,
      "duration": 0.0137,
      "velocity": 88,
      "chip": "ym2612"
    },
    {
      "channel": 4,
      "note": 79,
      "start": 8.1827,
      "duration": 0.0134,
      "velocity": 100,
      "chip": "ym2612"
    },
    {
      "channel": 3,
      "note": 55,
      "start": 8.2183,
      "duration": 0.0139,
      "velocity": 88,
      "chip": "ym2612"
    },
    {
      "channel": 3,
      "note": 55,
      "start": 8.2361,
      "duration": 0.0131,
      "velocity": 88,
      "chip": "ym2612"
    },
    {
      "channel": 2,
      "note": 74,
      "start": 8.2541,
      "duration": 0.0145,
      "velocity": 100,
      "chip": "ym2612"
    },
    {
      "channel": 4,
      "note": 79,
      "start": 8.2547,
      "duration": 0.0141,
      "velocity": 100,
      "chip": "ym2612"
    },
    {
      "channel": 2,
      "note": 74,
      "start": 8.2719,
      "duration": 0.0142,
      "velocity": 100,
      "chip": "ym2612"
    },
    {
      "channel": 3,
      "note": 55,
      "start": 8.2724,
      "duration": 0.0138,
      "velocity": 88,
      "chip": "ym2612"
    },
    {
      "channel": 4,
      "note": 79,
      "start": 8.2729,
      "duration": 0.0135,
      "velocity": 100,
      "chip": "ym2612"
    },
    {
      "channel": 2,
      "note": 74,
      "start": 8.2907,
      "duration": 0.0159,
      "velocity": 100,
      "chip": "ym2612"
    },
    {
      "channel": 3,
      "note": 58,
      "start": 8.2912,
      "duration": 0.0155,
      "velocity": 88,
      "chip": "ym2612"
    },
    {
      "channel": 4,
      "note": 79,
      "start": 8.2917,
      "duration": 0.0151,
      "velocity": 100,
      "chip": "ym2612"
    },
    {
      "channel": 3,
      "note": 56,
      "start": 8.3099,
      "duration": 0.0141,
      "velocity": 88,
      "chip": "ym2612"
    },
    {
      "channel": 3,
      "note": 55,
      "start": 8.329,
      "duration": 0.0151,
      "velocity": 88,
      "chip": "ym2612"
    },
    {
      "channel": 3,
      "note": 53,
      "start": 8.3482,
      "duration": 0.0134,
      "velocity": 88,
      "chip": "ym2612"
    },
    {
      "channel": 1,
      "note": 84,
      "start": 8.3644,
      "duration": 0.0351,
      "velocity": 102,
      "chip": "ym2612"
    },
    {
      "channel": 2,
      "note": 74,
      "start": 8.3649,
      "duration": 0.0146,
      "velocity": 100,
      "chip": "ym2612"
    },
    {
      "channel": 3,
      "note": 60,
      "start": 8.3654,
      "duration": 0.0143,
      "velocity": 88,
      "chip": "ym2612"
    },
    {
      "channel": 4,
      "note": 79,
      "start": 8.3659,
      "duration": 0.014,
      "velocity": 100,
      "chip": "ym2612"
    },
    {
      "channel": 2,
      "note": 74,
      "start": 8.3826,
      "duration": 0.0171,
      "velocity": 100,
      "chip": "ym2612"
    },
    {
      "channel": 3,
      "note": 58,
      "start": 8.3831,
      "duration": 0.0167,
      "velocity": 88,
      "chip": "ym2612"
    },
    {
      "channel": 4,
      "note": 79,
      "start": 8.3836,
      "duration": 0.0164,
      "velocity": 100,
      "chip": "ym2612"
    },
    {
      "channel": 1,
      "note": 87,
      "start": 8.4039,
      "duration": 0.0324,
      "velocity": 102,
      "chip": "ym2612"
    },
    {
      "channel": 2,
      "note": 74,
      "start": 8.4044,
      "duration": 0.0147,
      "velocity": 100,
      "chip": "ym2612"
    },
    {
      "channel": 3,
      "note": 56,
      "start": 8.4049,
      "duration": 0.0144,
      "velocity": 88,
      "chip": "ym2612"
    },
    {
      "channel": 4,
      "note": 79,
      "start": 8.4054,
      "duration": 0.014,
      "velocity": 100,
      "chip": "ym2612"
    },
    {
      "channel": 2,
      "note": 74,
      "start": 8.4225,
      "duration": 0.0139,
      "velocity": 100,
      "chip": "ym2612"
    },
    {
      "channel": 3,
      "note": 55,
      "start": 8.423,
      "duration": 0.0136,
      "velocity": 88,
      "chip": "ym2612"
    },
    {
      "channel": 4,
      "note": 79,
      "start": 8.4235,
      "duration": 0.0132,
      "velocity": 100,
      "chip": "ym2612"
    },
    {
      "channel": 1,
      "note": 86,
      "start": 8.4396,
      "duration": 0.1453,
      "velocity": 102,
      "chip": "ym2612"
    },
    {
      "channel": 2,
      "note": 72,
      "start": 8.4416,
      "duration": 0.0192,
      "velocity": 100,
      "chip": "ym2612"
    },
    {
      "channel": 3,
      "note": 53,
      "start": 8.4422,
      "duration": 0.0161,
      "velocity": 88,
      "chip": "ym2612"
    },
    {
      "channel": 4,
      "note": 74,
      "start": 8.4443,
      "duration": 0.0168,
      "velocity": 100,
      "chip": "ym2612"
    },
    {
      "channel": 2,
      "note": 72,
      "start": 8.4766,
      "duration": 0.0207,
      "velocity": 100,
      "chip": "ym2612"
    },
    {
      "channel": 3,
      "note": 55,
      "start": 8.4771,
      "duration": 0.0177,
      "velocity": 88,
      "chip": "ym2612"
    },
    {
      "channel": 4,
      "note": 74,
      "start": 8.4777,
      "duration": 0.0199,
      "velocity": 100,
      "chip": "ym2612"
    },
    {
      "channel": 3,
      "note": 55,
      "start": 8.5161,
      "duration": 0.0139,
      "velocity": 88,
      "chip": "ym2612"
    },
    {
      "channel": 2,
      "note": 72,
      "start": 8.5344,
      "duration": 0.018,
      "velocity": 100,
      "chip": "ym2612"
    },
    {
      "channel": 3,
      "note": 55,
      "start": 8.5349,
      "duration": 0.0138,
      "velocity": 88,
      "chip": "ym2612"
    },
    {
      "channel": 4,
      "note": 74,
      "start": 8.5353,
      "duration": 0.0172,
      "velocity": 100,
      "chip": "ym2612"
    },
    {
      "channel": 2,
      "note": 72,
      "start": 8.5706,
      "duration": 0.0144,
      "velocity": 100,
      "chip": "ym2612"
    },
    {
      "channel": 3,
      "note": 55,
      "start": 8.5711,
      "duration": 0.014,
      "velocity": 88,
      "chip": "ym2612"
    },
    {
      "channel": 4,
      "note": 74,
      "start": 8.5716,
      "duration": 0.0137,
      "velocity": 100,
      "chip": "ym2612"
    },
    {
      "channel": 1,
      "note": 81,
      "start": 8.588,
      "duration": 0.0152,
      "velocity": 102,
      "chip": "ym2612"
    },
    {
      "channel": 2,
      "note": 72,
      "start": 8.5885,
      "duration": 0.0641,
      "velocity": 100,
      "chip": "ym2612"
    },
    {
      "channel": 3,
      "note": 55,
      "start": 8.589,
      "duration": 0.0144,
      "velocity": 88,
      "chip": "ym2612"
    },
    {
      "channel": 4,
      "note": 74,
      "start": 8.5895,
      "duration": 0.0633,
      "velocity": 100,
      "chip": "ym2612"
    },
    {
      "channel": 1,
      "note": 82,
      "start": 8.6062,
      "duration": 0.0129,
      "velocity": 102,
      "chip": "ym2612"
    },
    {
      "channel": 1,
      "note": 83,
      "start": 8.622,
      "duration": 0.0144,
      "velocity": 102,
      "chip": "ym2612"
    },
    {
      "channel": 3,
      "note": 55,
      "start": 8.6226,
      "duration": 0.014,
      "velocity": 88,
      "chip": "ym2612"
    },
    {
      "channel": 1,
      "note": 84,
      "start": 8.6393,
      "duration": 0.0132,
      "velocity": 102,
      "chip": "ym2612"
    },
    {
      "channel": 1,
      "note": 85,
      "start": 8.6576,
      "duration": 0.0149,
      "velocity": 102,
      "chip": "ym2612"
    },
    {
      "channel": 2,
      "note": 72,
      "start": 8.6581,
      "duration": 0.0175,
      "velocity": 100,
      "chip": "ym2612"
    },
    {
      "channel": 3,
      "note": 53,
      "start": 8.6586,
      "duration": 0.0142,
      "velocity": 88,
      "chip": "ym2612"
    },
    {
      "channel": 4,
      "note": 74,
      "start": 8.6591,
      "duration": 0.0167,
      "velocity": 100,
      "chip": "ym2612"
    },
    {
      "channel": 1,
      "note": 86,
      "start": 8.6754,
      "duration": 0.0133,
      "velocity": 102,
      "chip": "ym2612"
    },
    {
      "channel": 1,
      "note": 87,
      "start": 8.6917,
      "duration": 0.0144,
      "velocity": 102,
      "chip": "ym2612"
    },
    {
      "channel": 2,
      "note": 72,
      "start": 8.6922,
      "duration": 0.0171,
      "velocity": 100,
      "chip": "ym2612"
    },
    {
      "channel": 3,
      "note": 55,
      "start": 8.6927,
      "duration": 0.0137,
      "velocity": 88,
      "chip": "ym2612"
    },
    {
      "channel": 4,
      "note": 74,
      "start": 8.6932,
      "duration": 0.0162,
      "velocity": 100,
      "chip": "ym2612"
    },
    {
      "channel": 1,
      "note": 88,
      "start": 8.709,
      "duration": 0.0133,
      "velocity": 102,
      "chip": "ym2612"
    },
    {
      "channel": 1,
      "note": 89,
      "start": 8.7254,
      "duration": 0.2754,
      "velocity": 102,
      "chip": "ym2612"
    },
    {
      "channel": 2,
      "note": 75,
      "start": 8.726,
      "duration": 0.0176,
      "velocity": 100,
      "chip": "ym2612"
    },
    {
      "channel": 3,
      "note": 53,
      "start": 8.7266,
      "duration": 0.0146,
      "velocity": 88,
      "chip": "ym2612"
    },
    {
      "channel": 4,
      "note": 77,
      "start": 8.7272,
      "duration": 0.0166,
      "velocity": 100,
      "chip": "ym2612"
    },
    {
      "channel": 2,
      "note": 75,
      "start": 8.7595,
      "duration": 0.0171,
      "velocity": 100,
      "chip": "ym2612"
    },
    {
      "channel": 3,
      "note": 55,
      "start": 8.76,
      "duration": 0.0142,
      "velocity": 88,
      "chip": "ym2612"
    },
    {
      "channel": 4,
      "note": 77,
      "start": 8.7605,
      "duration": 0.0164,
      "velocity": 100,
      "chip": "ym2612"
    },
    {
      "channel": 3,
      "note": 55,
      "start": 8.7953,
      "duration": 0.0137,
      "velocity": 88,
      "chip": "ym2612"
    },
    {
      "channel": 2,
      "note": 75,
      "start": 8.8117,
      "duration": 0.0168,
      "velocity": 100,
      "chip": "ym2612"
    },
    {
      "channel": 3,
      "note": 55,
      "start": 8.8122,
      "duration": 0.0137,
      "velocity": 88,
      "chip": "ym2612"
    },
    {
      "channel": 4,
      "note": 77,
      "start": 8.8127,
      "duration": 0.0161,
      "velocity": 100,
      "chip": "ym2612"
    },
    {
      "channel": 2,
      "note": 75,
      "start": 8.8454,
      "duration": 0.0142,
      "velocity": 100,
      "chip": "ym2612"
    },
    {
      "channel": 3,
      "note": 55,
      "start": 8.846,
      "duration": 0.0139,
      "velocity": 88,
      "chip": "ym2612"
    },
    {
      "channel": 4,
      "note": 77,
      "start": 8.8465,
      "duration": 0.0135,
      "velocity": 100,
      "chip": "ym2612"
    },
    {
      "channel": 2,
      "note": 75,
      "start": 8.8628,
      "duration": 0.0641,
      "velocity": 100,
      "chip": "ym2612"
    },
    {
      "channel": 3,
      "note": 58,
      "start": 8.8634,
      "duration": 0.0143,
      "velocity": 88,
      "chip": "ym2612"
    },
    {
      "channel": 4,
      "note": 77,
      "start": 8.8639,
      "duration": 0.0634,
      "velocity": 100,
      "chip": "ym2612"
    },
    {
      "channel": 3,
      "note": 56,
      "start": 8.8807,
      "duration": 0.013,
      "velocity": 88,
      "chip": "ym2612"
    },
    {
      "channel": 3,
      "note": 55,
      "start": 8.8967,
      "duration": 0.0139,
      "velocity": 88,
      "chip": "ym2612"
    },
    {
      "channel": 3,
      "note": 53,
      "start": 8.9136,
      "duration": 0.0134,
      "velocity": 88,
      "chip": "ym2612"
    },
    {
      "channel": 2,
      "note": 75,
      "start": 8.9319,
      "duration": 0.0182,
      "velocity": 100,
      "chip": "ym2612"
    },
    {
      "channel": 3,
      "note": 60,
      "start": 8.9324,
      "duration": 0.0144,
      "velocity": 88,
      "chip": "ym2612"
    },
    {
      "channel": 4,
      "note": 77,
      "start": 8.9329,
      "duration": 0.0178,
      "velocity": 100,
      "chip": "ym2612"
    },
    {
      "channel": 3,
      "note": 58,
      "start": 8.9506,
      "duration": 0.0134,
      "velocity": 88,
      "chip": "ym2612"
    },
    {
      "channel": 2,
      "note": 75,
      "start": 8.9692,
      "duration": 0.0179,
      "velocity": 100,
      "chip": "ym2612"
    },
    {
      "channel": 3,
      "note": 56,
      "start": 8.9697,
      "duration": 0.0144,
      "velocity": 88,
      "chip": "ym2612"
    },
    {
      "channel": 4,
      "note": 77,
      "start": 8.9702,
      "duration": 0.0176,
      "velocity": 100,
      "chip": "ym2612"
    },
    {
      "channel": 3,
      "note": 55,
      "start": 8.9876,
      "duration": 0.0134,
      "velocity": 88,
      "chip": "ym2612"
    },
    {
      "channel": 1,
      "note": 91,
      "start": 9.0038,
      "duration": 0.1393,
      "velocity": 102,
      "chip": "ym2612"
    },
    {
      "channel": 2,
      "note": 74,
      "start": 9.0044,
      "duration": 0.015,
      "velocity": 100,
      "chip": "ym2612"
    },
    {
      "channel": 3,
      "note": 53,
      "start": 9.005,
      "duration": 0.0145,
      "velocity": 88,
      "chip": "ym2612"
    },
    {
      "channel": 4,
      "note": 79,
      "start": 9.0056,
      "duration": 0.0141,
      "velocity": 100,
      "chip": "ym2612"
    },
    {
      "channel": 2,
      "note": 74,
      "start": 9.0225,
      "duration": 0.0132,
      "velocity": 100,
      "chip": "ym2612"
    },
    {
      "channel": 4,
      "note": 79,
      "start": 9.0231,
      "duration": 0.0128,
      "velocity": 100,
      "chip": "ym2612"
    },
    {
      "channel": 2,
      "note": 74,
      "start": 9.0387,
      "duration": 0.0146,
      "velocity": 100,
      "chip": "ym2612"
    },
    {
      "channel": 3,
      "note": 55,
      "start": 9.0392,
      "duration": 0.0142,
      "velocity": 88,
      "chip": "ym2612"
    },
    {
      "channel": 4,
      "note": 79,
      "start": 9.0397,
      "duration": 0.0139,
      "velocity": 100,
      "chip": "ym2612"
    },
    {
      "channel": 3,
      "note": 55,
      "start": 9.0747,
      "duration": 0.0139,
      "velocity": 88,
      "chip": "ym2612"
    },
    {
      "channel": 3,
      "note": 55,
      "start": 9.0932,
      "duration": 0.0132,
      "velocity": 88,
      "chip": "ym2612"
    },
    {
      "channel": 2,
      "note": 74,
      "start": 9.1112,
      "duration": 0.0144,
      "velocity": 100,
      "chip": "ym2612"
    },
    {
      "channel": 4,
      "note": 79,
      "start": 9.1117,
      "duration": 0.0141,
      "velocity": 100,
      "chip": "ym2612"
    },
    {
      "channel": 2,
      "note": 74,
      "start": 9.129,
      "duration": 0.0142,
      "velocity": 100,
      "chip": "ym2612"
    },
    {
      "channel": 3,
      "note": 55,
      "start": 9.1295,
      "duration": 0.0138,
      "velocity": 88,
      "chip": "ym2612"
    },
    {
      "channel": 4,
      "note": 79,
      "start": 9.13,
      "duration": 0.0135,
      "velocity": 100,
      "chip": "ym2612"
    },
    {
      "channel": 1,
      "note": 94,
      "start": 9.1463,
      "duration": 0.0152,
      "velocity": 102,
      "chip": "ym2612"
    },
    {
      "channel": 2,
      "note": 74,
      "start": 9.1468,
      "duration": 0.0148,
      "velocity": 100,
      "chip": "ym2612"
    },
    {
      "channel": 3,
      "note": 55,
      "start": 9.1473,
      "duration": 0.0145,
      "velocity": 88,
      "chip": "ym2612"
    },
    {
      "channel": 4,
      "note": 79,
      "start": 9.1478,
      "duration": 0.0141,
      "velocity": 100,
      "chip": "ym2612"
    },
    {
      "channel": 1,
      "note": 92,
      "start": 9.1645,
      "duration": 0.0129,
      "velocity": 102,
      "chip": "ym2612"
    },
    {
      "channel": 1,
      "note": 91,
      "start": 9.1803,
      "duration": 0.0142,
      "velocity": 102,
      "chip": "ym2612"
    },
    {
      "channel": 3,
      "note": 55,
      "start": 9.1808,
      "duration": 0.0139,
      "velocity": 88,
      "chip": "ym2612"
    },
    {
      "channel": 1,
      "note": 89,
      "start": 9.1975,
      "duration": 0.0132,
      "velocity": 102,
      "chip": "ym2612"
    },
    {
      "channel": 1,
      "note": 96,
      "start": 9.216,
      "duration": 0.015,
      "velocity": 102,
      "chip": "ym2612"
    },
    {
      "channel": 2,
      "note": 74,
      "start": 9.2165,
      "duration": 0.0147,
      "velocity": 100,
      "chip": "ym2612"
    },
    {
      "channel": 3,
      "note": 53,
      "start": 9.2169,
      "duration": 0.0144,
      "velocity": 88,
      "chip": "ym2612"
    },
    {
      "channel": 4,
      "note": 79,
      "start": 9.2174,
      "duration": 0.014,
      "velocity": 100,
      "chip": "ym2612"
    },
    {
      "channel": 1,
      "note": 94,
      "start": 9.2341,
      "duration": 0.014,
      "velocity": 102,
      "chip": "ym2612"
    },
    {
      "channel": 2,
      "note": 74,
      "start": 9.2346,
      "duration": 0.0136,
      "velocity": 100,
      "chip": "ym2612"
    },
    {
      "channel": 4,
      "note": 79,
      "start": 9.2352,
      "duration": 0.0133,
      "velocity": 100,
      "chip": "ym2612"
    },
    {
      "channel": 1,
      "note": 92,
      "start": 9.2511,
      "duration": 0.0146,
      "velocity": 102,
      "chip": "ym2612"
    },
    {
      "channel": 2,
      "note": 74,
      "start": 9.2516,
      "duration": 0.0143,
      "velocity": 100,
      "chip": "ym2612"
    },
    {
      "channel": 3,
      "note": 55,
      "start": 9.2521,
      "duration": 0.014,
      "velocity": 88,
      "chip": "ym2612"
    },
    {
      "channel": 4,
      "note": 79,
      "start": 9.2526,
      "duration": 0.0136,
      "velocity": 100,
      "chip": "ym2612"
    },
    {
      "channel": 1,
      "note": 91,
      "start": 9.2688,
      "duration": 0.0139,
      "velocity": 102,
      "chip": "ym2612"
    },
    {
      "channel": 2,
      "note": 74,
      "start": 9.2693,
      "duration": 0.0135,
      "velocity": 100,
      "chip": "ym2612"
    },
    {
      "channel": 4,
      "note": 79,
      "start": 9.2699,
      "duration": 0.0132,
      "velocity": 100,
      "chip": "ym2612"
    },
    {
      "channel": 1,
      "note": 91,
      "start": 9.2859,
      "duration": 0.2844,
      "velocity": 102,
      "chip": "ym2612"
    },
    {
      "channel": 2,
      "note": 74,
      "start": 9.2865,
      "duration": 0.0146,
      "velocity": 100,
      "chip": "ym2612"
    },
    {
      "channel": 3,
      "note": 53,
      "start": 9.2871,
      "duration": 0.0142,
      "velocity": 88,
      "chip": "ym2612"
    },
    {
      "channel": 4,
      "note": 79,
      "start": 9.2877,
      "duration": 0.0137,
      "velocity": 100,
      "chip": "ym2612"
    },
    {
      "channel": 2,
      "note": 74,
      "start": 9.306,
      "duration": 0.0128,
      "velocity": 100,
      "chip": "ym2612"
    },
    {
      "channel": 4,
      "note": 79,
      "start": 9.3065,
      "duration": 0.0125,
      "velocity": 100,
      "chip": "ym2612"
    },
    {
      "channel": 2,
      "note": 74,
      "start": 9.3216,
      "duration": 0.0137,
      "velocity": 100,
      "chip": "ym2612"
    },
    {
      "channel": 3,
      "note": 55,
      "start": 9.3222,
      "duration": 0.0133,
      "velocity": 88,
      "chip": "ym2612"
    },
    {
      "channel": 4,
      "note": 79,
      "start": 9.3227,
      "duration": 0.0129,
      "velocity": 100,
      "chip": "ym2612"
    },
    {
      "channel": 3,
      "note": 55,
      "start": 9.3527,
      "duration": 0.0138,
      "velocity": 88,
      "chip": "ym2612"
    },
    {
      "channel": 3,
      "note": 55,
      "start": 9.3703,
      "duration": 0.0131,
      "velocity": 88,
      "chip": "ym2612"
    },
    {
      "channel": 2,
      "note": 74,
      "start": 9.3883,
      "duration": 0.0144,
      "velocity": 100,
      "chip": "ym2612"
    },
    {
      "channel": 4,
      "note": 79,
      "start": 9.3889,
      "duration": 0.014,
      "velocity": 100,
      "chip": "ym2612"
    },
    {
      "channel": 2,
      "note": 74,
      "start": 9.406,
      "duration": 0.0143,
      "velocity": 100,
      "chip": "ym2612"
    },
    {
      "channel": 3,
      "note": 55,
      "start": 9.4065,
      "duration": 0.0139,
      "velocity": 88,
      "chip": "ym2612"
    },
    {
      "channel": 4,
      "note": 79,
      "start": 9.407,
      "duration": 0.0136,
      "velocity": 100,
      "chip": "ym2612"
    },
    {
      "channel": 2,
      "note": 74,
      "start": 9.4242,
      "duration": 0.0158,
      "velocity": 100,
      "chip": "ym2612"
    },
    {
      "channel": 3,
      "note": 58,
      "start": 9.4246,
      "duration": 0.0155,
      "velocity": 88,
      "chip": "ym2612"
    },
    {
      "channel": 4,
      "note": 79,
      "start": 9.4252,
      "duration": 0.0151,
      "velocity": 100,
      "chip": "ym2612"
    },
    {
      "channel": 3,
      "note": 56,
      "start": 9.4435,
      "duration": 0.0141,
      "velocity": 88,
      "chip": "ym2612"
    },
    {
      "channel": 3,
      "note": 55,
      "start": 9.4623,
      "duration": 0.0149,
      "velocity": 88,
      "chip": "ym2612"
    },
    {
      "channel": 3,
      "note": 53,
      "start": 9.4813,
      "duration": 0.0141,
      "velocity": 88,
      "chip": "ym2612"
    },
    {
      "channel": 2,
      "note": 74,
      "start": 9.5004,
      "duration": 0.0151,
      "velocity": 100,
      "chip": "ym2612"
    },
    {
      "channel": 3,
      "note": 60,
      "start": 9.5009,
      "duration": 0.0147,
      "velocity": 88,
      "chip": "ym2612"
    },
    {
      "channel": 4,
      "note": 79,
      "start": 9.5013,
      "duration": 0.0144,
      "velocity": 100,
      "chip": "ym2612"
    },
    {
      "channel": 2,
      "note": 74,
      "start": 9.519,
      "duration": 0.0141,
      "velocity": 100,
      "chip": "ym2612"
    },
    {
      "channel": 3,
      "note": 58,
      "start": 9.5195,
      "duration": 0.0137,
      "velocity": 88,
      "chip": "ym2612"
    },
    {
      "channel": 4,
      "note": 79,
      "start": 9.52,
      "duration": 0.0134,
      "velocity": 100,
      "chip": "ym2612"
    },
    {
      "channel": 2,
      "note": 74,
      "start": 9.5378,
      "duration": 0.015,
      "velocity": 100,
      "chip": "ym2612"
    },
    {
      "channel": 3,
      "note": 56,
      "start": 9.5382,
      "duration": 0.0146,
      "velocity": 88,
      "chip": "ym2612"
    },
    {
      "channel": 4,
      "note": 79,
      "start": 9.5387,
      "duration": 0.0143,
      "velocity": 100,
      "chip": "ym2612"
    },
    {
      "channel": 2,
      "note": 74,
      "start": 9.5564,
      "duration": 0.014,
      "velocity": 100,
      "chip": "ym2612"
    },
    {
      "channel": 3,
      "note": 55,
      "start": 9.5568,
      "duration": 0.0137,
      "velocity": 88,
      "chip": "ym2612"
    },
    {
      "channel": 4,
      "note": 79,
      "start": 9.5573,
      "duration": 0.0134,
      "velocity": 100,
      "chip": "ym2612"
    },
    {
      "channel": 1,
      "note": 77,
      "start": 9.5772,
      "duration": 0.0157,
      "velocity": 100,
      "chip": "ym2612"
    },
    {
      "channel": 2,
      "note": 71,
      "start": 9.5779,
      "duration": 0.285,
      "velocity": 100,
      "chip": "ym2612"
    },
    {
      "channel": 3,
      "note": 56,
      "start": 9.5784,
      "duration": 0.0147,
      "velocity": 88,
      "chip": "ym2612"
    },
    {
      "channel": 4,
      "note": 75,
      "start": 9.5791,
      "duration": 0.2841,
      "velocity": 100,
      "chip": "ym2612"
    },
    {
      "channel": 1,
      "note": 76,
      "start": 9.5959,
      "duration": 0.0127,
      "velocity": 100,
      "chip": "ym2612"
    },
    {
      "channel": 1,
      "note": 71,
      "start": 9.6115,
      "duration": 0.0178,
      "velocity": 100,
      "chip": "ym2612"
    },
    {
      "channel": 3,
      "note": 56,
      "start": 9.6121,
      "duration": 0.0174,
      "velocity": 88,
      "chip": "ym2612"
    },
    {
      "channel": 1,
      "note": 70,
      "start": 9.6323,
      "duration": 0.013,
      "velocity": 100,
      "chip": "ym2612"
    },
    {
      "channel": 1,
      "note": 78,
      "start": 9.6505,
      "duration": 0.0145,
      "velocity": 100,
      "chip": "ym2612"
    },
    {
      "channel": 3,
      "note": 54,
      "start": 9.651,
      "duration": 0.0141,
      "velocity": 88,
      "chip": "ym2612"
    },
    {
      "channel": 1,
      "note": 77,
      "start": 9.6678,
      "duration": 0.013,
      "velocity": 100,
      "chip": "ym2612"
    },
    {
      "channel": 3,
      "note": 56,
      "start": 9.6684,
      "duration": 0.0127,
      "velocity": 88,
      "chip": "ym2612"
    },
    {
      "channel": 1,
      "note": 76,
      "start": 9.687,
      "duration": 0.0146,
      "velocity": 100,
      "chip": "ym2612"
    },
    {
      "channel": 1,
      "note": 75,
      "start": 9.7051,
      "duration": 0.0141,
      "velocity": 100,
      "chip": "ym2612"
    },
    {
      "channel": 3,
      "note": 56,
      "start": 9.7058,
      "duration": 0.0312,
      "velocity": 88,
      "chip": "ym2612"
    },
    {
      "channel": 1,
      "note": 74,
      "start": 9.7223,
      "duration": 0.0145,
      "velocity": 100,
      "chip": "ym2612"
    },
    {
      "channel": 1,
      "note": 73,
      "start": 9.7405,
      "duration": 0.014,
      "velocity": 100,
      "chip": "ym2612"
    },
    {
      "channel": 3,
      "note": 54,
      "start": 9.7411,
      "duration": 0.0137,
      "velocity": 88,
      "chip": "ym2612"
    },
    {
      "channel": 1,
      "note": 72,
      "start": 9.7576,
      "duration": 0.0149,
      "velocity": 100,
      "chip": "ym2612"
    },
    {
      "channel": 3,
      "note": 56,
      "start": 9.7581,
      "duration": 0.0145,
      "velocity": 88,
      "chip": "ym2612"
    },
    {
      "channel": 1,
      "note": 71,
      "start": 9.7755,
      "duration": 0.014,
      "velocity": 100,
      "chip": "ym2612"
    },
    {
      "channel": 3,
      "note": 54,
      "start": 9.7761,
      "duration": 0.0137,
      "velocity": 88,
      "chip": "ym2612"
    },
    {
      "channel": 1,
      "note": 70,
      "start": 9.7938,
      "duration": 0.0147,
      "velocity": 100,
      "chip": "ym2612"
    },
    {
      "channel": 3,
      "note": 56,
      "start": 9.7944,
      "duration": 0.0144,
      "velocity": 88,
      "chip": "ym2612"
    },
    {
      "channel": 1,
      "note": 69,
      "start": 9.8116,
      "duration": 0.0141,
      "velocity": 100,
      "chip": "ym2612"
    },
    {
      "channel": 3,
      "note": 58,
      "start": 9.8122,
      "duration": 0.0138,
      "velocity": 88,
      "chip": "ym2612"
    },
    {
      "channel": 1,
      "note": 68,
      "start": 9.8301,
      "duration": 0.015,
      "velocity": 100,
      "chip": "ym2612"
    },
    {
      "channel": 3,
      "note": 59,
      "start": 9.8306,
      "duration": 0.0147,
      "velocity": 88,
      "chip": "ym2612"
    },
    {
      "channel": 1,
      "note": 67,
      "start": 9.8489,
      "duration": 0.0138,
      "velocity": 100,
      "chip": "ym2612"
    },
    {
      "channel": 3,
      "note": 61,
      "start": 9.8495,
      "duration": 0.0135,
      "velocity": 88,
      "chip": "ym2612"
    },
    {
      "channel": 1,
      "note": 70,
      "start": 9.8675,
      "duration": 0.133,
      "velocity": 100,
      "chip": "ym2612"
    },
    {
      "channel": 2,
      "note": 73,
      "start": 9.868,
      "duration": 0.2732,
      "velocity": 100,
      "chip": "ym2612"
    },
    {
      "channel": 3,
      "note": 58,
      "start": 9.8686,
      "duration": 0.0147,
      "velocity": 88,
      "chip": "ym2612"
    },
    {
      "channel": 4,
      "note": 77,
      "start": 9.8693,
      "duration": 0.2724,
      "velocity": 100,
      "chip": "ym2612"
    },
    {
      "channel": 3,
      "note": 58,
      "start": 9.9014,
      "duration": 0.0139,
      "velocity": 88,
      "chip": "ym2612"
    },
    {
      "channel": 3,
      "note": 57,
      "start": 9.9364,
      "duration": 0.0139,
      "velocity": 88,
      "chip": "ym2612"
    },
    {
      "channel": 3,
      "note": 58,
      "start": 9.9531,
      "duration": 0.0127,
      "velocity": 88,
      "chip": "ym2612"
    },
    {
      "channel": 3,
      "note": 58,
      "start": 9.987,
      "duration": 0.0312,
      "velocity": 88,
      "chip": "ym2612"
    },
    {
      "channel": 1,
      "note": 72,
      "start": 10.0035,
      "duration": 0.0488,
      "velocity": 100,
      "chip": "ym2612"
    },
    {
      "channel": 3,
      "note": 57,
      "start": 10.0218,
      "duration": 0.0134,
      "velocity": 88,
      "chip": "ym2612"
    },
    {
      "channel": 3,
      "note": 58,
      "start": 10.0381,
      "duration": 0.0145,
      "velocity": 88,
      "chip": "ym2612"
    },
    {
      "channel": 1,
      "note": 73,
      "start": 10.0555,
      "duration": 0.0488,
      "velocity": 100,
      "chip": "ym2612"
    },
    {
      "channel": 3,
      "note": 57,
      "start": 10.0561,
      "duration": 0.0135,
      "velocity": 88,
      "chip": "ym2612"
    },
    {
      "channel": 3,
      "note": 58,
      "start": 10.0738,
      "duration": 0.0143,
      "velocity": 88,
      "chip": "ym2612"
    },
    {
      "channel": 3,
      "note": 59,
      "start": 10.0912,
      "duration": 0.0134,
      "velocity": 88,
      "chip": "ym2612"
    },
    {
      "channel": 1,
      "note": 75,
      "start": 10.1091,
      "duration": 0.032,
      "velocity": 100,
      "chip": "ym2612"
    },
    {
      "channel": 3,
      "note": 60,
      "start": 10.1097,
      "duration": 0.0144,
      "velocity": 88,
      "chip": "ym2612"
    },
    {
      "channel": 3,
      "note": 61,
      "start": 10.1279,
      "duration": 0.0135,
      "velocity": 88,
      "chip": "ym2612"
    },
    {
      "channel": 1,
      "note": 75,
      "start": 10.1464,
      "duration": 0.0164,
      "velocity": 100,
      "chip": "ym2612"
    },
    {
      "channel": 2,
      "note": 71,
      "start": 10.1469,
      "duration": 0.2822,
      "velocity": 100,
      "chip": "ym2612"
    },
    {
      "channel": 3,
      "note": 56,
      "start": 10.1476,
      "duration": 0.0155,
      "velocity": 88,
      "chip": "ym2612"
    },
    {
      "channel": 4,
      "note": 75,
      "start": 10.1481,
      "duration": 0.2814,
      "velocity": 100,
      "chip": "ym2612"
    },
    {
      "channel": 1,
      "note": 73,
      "start": 10.1657,
      "duration": 0.0121,
      "velocity": 100,
      "chip": "ym2612"
    },
    {
      "channel": 1,
      "note": 71,
      "start": 10.1811,
      "duration": 0.0135,
      "velocity": 100,
      "chip": "ym2612"
    },
    {
      "channel": 3,
      "note": 56,
      "start": 10.1817,
      "duration": 0.0131,
      "velocity": 88,
      "chip": "ym2612"
    },
    {
      "channel": 1,
      "note": 70,
      "start": 10.1974,
      "duration": 0.0117,
      "velocity": 100,
      "chip": "ym2612"
    },
    {
      "channel": 1,
      "note": 76,
      "start": 10.2119,
      "duration": 0.0145,
      "velocity": 100,
      "chip": "ym2612"
    },
    {
      "channel": 3,
      "note": 54,
      "start": 10.2124,
      "duration": 0.0141,
      "velocity": 88,
      "chip": "ym2612"
    },
    {
      "channel": 1,
      "note": 75,
      "start": 10.23,
      "duration": 0.0132,
      "velocity": 100,
      "chip": "ym2612"
    },
    {
      "channel": 3,
      "note": 56,
      "start": 10.2305,
      "duration": 0.0129,
      "velocity": 88,
      "chip": "ym2612"
    },
    {
      "channel": 1,
      "note": 73,
      "start": 10.2477,
      "duration": 0.0145,
      "velocity": 100,
      "chip": "ym2612"
    },
    {
      "channel": 1,
      "note": 71,
      "start": 10.2656,
      "duration": 0.014,
      "velocity": 100,
      "chip": "ym2612"
    },
    {
      "channel": 3,
      "note": 56,
      "start": 10.2662,
      "duration": 0.0327,
      "velocity": 88,
      "chip": "ym2612"
    },
    {
      "channel": 1,
      "note": 78,
      "start": 10.2835,
      "duration": 0.0151,
      "velocity": 100,
      "chip": "ym2612"
    },
    {
      "channel": 1,
      "note": 76,
      "start": 10.3024,
      "duration": 0.0145,
      "velocity": 100,
      "chip": "ym2612"
    },
    {
      "channel": 3,
      "note": 54,
      "start": 10.303,
      "duration": 0.0141,
      "velocity": 88,
      "chip": "ym2612"
    },
    {
      "channel": 1,
      "note": 75,
      "start": 10.3213,
      "duration": 0.0154,
      "velocity": 100,
      "chip": "ym2612"
    },
    {
      "channel": 3,
      "note": 56,
      "start": 10.3219,
      "duration": 0.0151,
      "velocity": 88,
      "chip": "ym2612"
    },
    {
      "channel": 1,
      "note": 73,
      "start": 10.34,
      "duration": 0.0145,
      "velocity": 100,
      "chip": "ym2612"
    },
    {
      "channel": 3,
      "note": 54,
      "start": 10.3406,
      "duration": 0.0141,
      "velocity": 88,
      "chip": "ym2612"
    },
    {
      "channel": 1,
      "note": 80,
      "start": 10.359,
      "duration": 0.015,
      "velocity": 100,
      "chip": "ym2612"
    },
    {
      "channel": 3,
      "note": 56,
      "start": 10.3595,
      "duration": 0.0147,
      "velocity": 88,
      "chip": "ym2612"
    },
    {
      "channel": 1,
      "note": 78,
      "start": 10.3778,
      "duration": 0.0139,
      "velocity": 100,
      "chip": "ym2612"
    },
    {
      "channel": 3,
      "note": 58,
      "start": 10.3784,
      "duration": 0.0136,
      "velocity": 88,
      "chip": "ym2612"
    },
    {
      "channel": 1,
      "note": 76,
      "start": 10.3964,
      "duration": 0.015,
      "velocity": 100,
      "chip": "ym2612"
    },
    {
      "channel": 3,
      "note": 59,
      "start": 10.397,
      "duration": 0.0146,
      "velocity": 88,
      "chip": "ym2612"
    },
    {
      "channel": 1,
      "note": 75,
      "start": 10.4151,
      "duration": 0.0139,
      "velocity": 100,
      "chip": "ym2612"
    },
    {
      "channel": 3,
      "note": 61,
      "start": 10.4157,
      "duration": 0.0136,
      "velocity": 88,
      "chip": "ym2612"
    },
    {
      "channel": 1,
      "note": 77,
      "start": 10.434,
      "duration": 0.0157,
      "velocity": 100,
      "chip": "ym2612"
    },
    {
      "channel": 2,
      "note": 73,
      "start": 10.4345,
      "duration": 0.2813,
      "velocity": 100,
      "chip": "ym2612"
    },
    {
      "channel": 3,
      "note": 58,
      "start": 10.4352,
      "duration": 0.0147,
      "velocity": 88,
      "chip": "ym2612"
    },
    {
      "channel": 4,
      "note": 77,
      "start": 10.4358,
      "duration": 0.2804,
      "velocity": 100,
      "chip": "ym2612"
    },
    {
      "channel": 1,
      "note": 75,
      "start": 10.4526,
      "duration": 0.0125,
      "velocity": 100,
      "chip": "ym2612"
    },
    {
      "channel": 1,
      "note": 73,
      "start": 10.4679,
      "duration": 0.0147,
      "velocity": 100,
      "chip": "ym2612"
    },
    {
      "channel": 3,
      "note": 58,
      "start": 10.4686,
      "duration": 0.0143,
      "velocity": 88,
      "chip": "ym2612"
    },
    {
      "channel": 1,
      "note": 72,
      "start": 10.4857,
      "duration": 0.0129,
      "velocity": 100,
      "chip": "ym2612"
    },
    {
      "channel": 1,
      "note": 78,
      "start": 10.5037,
      "duration": 0.0147,
      "velocity": 100,
      "chip": "ym2612"
    },
    {
      "channel": 3,
      "note": 57,
      "start": 10.5044,
      "duration": 0.0143,
      "velocity": 88,
      "chip": "ym2612"
    },
    {
      "channel": 1,
      "note": 77,
      "start": 10.5215,
      "duration": 0.0129,
      "velocity": 100,
      "chip": "ym2612"
    },
    {
      "channel": 3,
      "note": 58,
      "start": 10.522,
      "duration": 0.0127,
      "velocity": 88,
      "chip": "ym2612"
    },
    {
      "channel": 1,
      "note": 75,
      "start": 10.5403,
      "duration": 0.0146,
      "velocity": 100,
      "chip": "ym2612"
    },
    {
      "channel": 1,
      "note": 73,
      "start": 10.5587,
      "duration": 0.0139,
      "velocity": 100,
      "chip": "ym2612"
    },
    {
      "channel": 3,
      "note": 58,
      "start": 10.5593,
      "duration": 0.0307,
      "velocity": 88,
      "chip": "ym2612"
    },
    {
      "channel": 1,
      "note": 80,
      "start": 10.5756,
      "duration": 0.0142,
      "velocity": 100,
      "chip": "ym2612"
    },
    {
      "channel": 1,
      "note": 78,
      "start": 10.5936,
      "duration": 0.0137,
      "velocity": 100,
      "chip": "ym2612"
    },
    {
      "channel": 3,
      "note": 57,
      "start": 10.5942,
      "duration": 0.0134,
      "velocity": 88,
      "chip": "ym2612"
    },
    {
      "channel": 1,
      "note": 77,
      "start": 10.6104,
      "duration": 0.0151,
      "velocity": 100,
      "chip": "ym2612"
    },
    {
      "channel": 3,
      "note": 58,
      "start": 10.611,
      "duration": 0.0148,
      "velocity": 88,
      "chip": "ym2612"
    },
    {
      "channel": 1,
      "note": 75,
      "start": 10.6287,
      "duration": 0.0138,
      "velocity": 100,
      "chip": "ym2612"
    },
    {
      "channel": 3,
      "note": 57,
      "start": 10.6293,
      "duration": 0.0135,
      "velocity": 88,
      "chip": "ym2612"
    },
    {
      "channel": 1,
      "note": 82,
      "start": 10.6467,
      "duration": 0.0151,
      "velocity": 100,
      "chip": "ym2612"
    },
    {
      "channel": 3,
      "note": 58,
      "start": 10.6473,
      "duration": 0.0147,
      "velocity": 88,
      "chip": "ym2612"
    },
    {
      "channel": 1,
      "note": 80,
      "start": 10.6648,
      "duration": 0.014,
      "velocity": 100,
      "chip": "ym2612"
    },
    {
      "channel": 3,
      "note": 59,
      "start": 10.6654,
      "duration": 0.0137,
      "velocity": 88,
      "chip": "ym2612"
    },
    {
      "channel": 1,
      "note": 78,
      "start": 10.6831,
      "duration": 0.0149,
      "velocity": 100,
      "chip": "ym2612"
    },
    {
      "channel": 3,
      "note": 60,
      "start": 10.6837,
      "duration": 0.0146,
      "velocity": 88,
      "chip": "ym2612"
    },
    {
      "channel": 1,
      "note": 77,
      "start": 10.7018,
      "duration": 0.0139,
      "velocity": 100,
      "chip": "ym2612"
    },
    {
      "channel": 3,
      "note": 61,
      "start": 10.7024,
      "duration": 0.0137,
      "velocity": 88,
      "chip": "ym2612"
    },
    {
      "channel": 1,
      "note": 85,
      "start": 10.7209,
      "duration": 0.0159,
      "velocity": 102,
      "chip": "ym2612"
    },
    {
      "channel": 2,
      "note": 75,
      "start": 10.7216,
      "duration": 0.284,
      "velocity": 100,
      "chip": "ym2612"
    },
    {
      "channel": 3,
      "note": 51,
      "start": 10.7221,
      "duration": 0.0306,
      "velocity": 88,
      "chip": "ym2612"
    },
    {
      "channel": 4,
      "note": 78,
      "start": 10.7228,
      "duration": 0.2831,
      "velocity": 100,
      "chip": "ym2612"
    },
    {
      "channel": 1,
      "note": 87,
      "start": 10.7398,
      "duration": 0.0153,
      "velocity": 102,
      "chip": "ym2612"
    },
    {
      "channel": 3,
      "note": 51,
      "start": 10.7557,
      "duration": 0.0139,
      "velocity": 88,
      "chip": "ym2612"
    },
    {
      "channel": 1,
      "note": 87,
      "start": 10.7726,
      "duration": 0.0323,
      "velocity": 102,
      "chip": "ym2612"
    },
    {
      "channel": 3,
      "note": 51,
      "start": 10.7732,
      "duration": 0.0131,
      "velocity": 88,
      "chip": "ym2612"
    },
    {
      "channel": 3,
      "note": 51,
      "start": 10.791,
      "duration": 0.0302,
      "velocity": 88,
      "chip": "ym2612"
    },
    {
      "channel": 1,
      "note": 85,
      "start": 10.8078,
      "duration": 0.0131,
      "velocity": 102,
      "chip": "ym2612"
    },
    {
      "channel": 1,
      "note": 87,
      "start": 10.8261,
      "duration": 0.0153,
      "velocity": 102,
      "chip": "ym2612"
    },
    {
      "channel": 3,
      "note": 51,
      "start": 10.8267,
      "duration": 0.0149,
      "velocity": 88,
      "chip": "ym2612"
    },
    {
      "channel": 1,
      "note": 82,
      "start": 10.8444,
      "duration": 0.0173,
      "velocity": 102,
      "chip": "ym2612"
    },
    {
      "channel": 3,
      "note": 51,
      "start": 10.8451,
      "duration": 0.0169,
      "velocity": 88,
      "chip": "ym2612"
    },
    {
      "channel": 1,
      "note": 87,
      "start": 10.8649,
      "duration": 0.0148,
      "velocity": 102,
      "chip": "ym2612"
    },
    {
      "channel": 3,
      "note": 51,
      "start": 10.8654,
      "duration": 0.0307,
      "velocity": 88,
      "chip": "ym2612"
    },
    {
      "channel": 1,
      "note": 82,
      "start": 10.8827,
      "duration": 0.0132,
      "velocity": 102,
      "chip": "ym2612"
    },
    {
      "channel": 1,
      "note": 85,
      "start": 10.899,
      "duration": 0.0149,
      "velocity": 102,
      "chip": "ym2612"
    },
    {
      "channel": 3,
      "note": 51,
      "start": 10.8995,
      "duration": 0.0146,
      "velocity": 88,
      "chip": "ym2612"
    },
    {
      "channel": 1,
      "note": 87,
      "start": 10.917,
      "duration": 0.014,
      "velocity": 102,
      "chip": "ym2612"
    },
    {
      "channel": 3,
      "note": 51,
      "start": 10.9176,
      "duration": 0.0137,
      "velocity": 88,
      "chip": "ym2612"
    },
    {
      "channel": 1,
      "note": 90,
      "start": 10.9353,
      "duration": 0.015,
      "velocity": 102,
      "chip": "ym2612"
    },
    {
      "channel": 3,
      "note": 51,
      "start": 10.9359,
      "duration": 0.0319,
      "velocity": 88,
      "chip": "ym2612"
    },
    {
      "channel": 1,
      "note": 85,
      "start": 10.954,
      "duration": 0.0136,
      "velocity": 102,
      "chip": "ym2612"
    },
    {
      "channel": 1,
      "note": 87,
      "start": 10.9728,
      "duration": 0.0148,
      "velocity": 102,
      "chip": "ym2612"
    },
    {
      "channel": 3,
      "note": 51,
      "start": 10.9734,
      "duration": 0.0145,
      "velocity": 88,
      "chip": "ym2612"
    },
    {
      "channel": 1,
      "note": 90,
      "start": 10.9913,
      "duration": 0.0141,
      "velocity": 102,
      "chip": "ym2612"
    },
    {
      "channel": 3,
      "note": 51,
      "start": 10.9919,
      "duration": 0.0137,
      "velocity": 88,
      "chip": "ym2612"
    },
    {
      "channel": 1,
      "note": 92,
      "start": 11.0086,
      "duration": 0.1395,
      "velocity": 102,
      "chip": "ym2612"
    },
    {
      "channel": 2,
      "note": 73,
      "start": 11.0092,
      "duration": 0.2811,
      "velocity": 100,
      "chip": "ym2612"
    },
    {
      "channel": 3,
      "note": 51,
      "start": 11.0098,
      "duration": 0.0299,
      "velocity": 88,
      "chip": "ym2612"
    },
    {
      "channel": 4,
      "note": 77,
      "start": 11.0104,
      "duration": 0.2802,
      "velocity": 100,
      "chip": "ym2612"
    },
    {
      "channel": 3,
      "note": 51,
      "start": 11.0426,
      "duration": 0.0141,
      "velocity": 88,
      "chip": "ym2612"
    },
    {
      "channel": 3,
      "note": 51,
      "start": 11.0596,
      "duration": 0.0133,
      "velocity": 88,
      "chip": "ym2612"
    },
    {
      "channel": 3,
      "note": 51,
      "start": 11.078,
      "duration": 0.0295,
      "velocity": 88,
      "chip": "ym2612"
    },
    {
      "channel": 3,
      "note": 51,
      "start": 11.1132,
      "duration": 0.0149,
      "velocity": 88,
      "chip": "ym2612"
    },
    {
      "channel": 3,
      "note": 51,
      "start": 11.1313,
      "duration": 0.0171,
      "velocity": 88,
      "chip": "ym2612"
    },
    {
      "channel": 1,
      "note": 90,
      "start": 11.1512,
      "duration": 0.0483,
      "velocity": 102,
      "chip": "ym2612"
    },
    {
      "channel": 3,
      "note": 51,
      "start": 11.1518,
      "duration": 0.0303,
      "velocity": 88,
      "chip": "ym2612"
    },
    {
      "channel": 3,
      "note": 51,
      "start": 11.1851,
      "duration": 0.0146,
      "velocity": 88,
      "chip": "ym2612"
    },
    {
      "channel": 1,
      "note": 89,
      "start": 11.2025,
      "duration": 0.0499,
      "velocity": 102,
      "chip": "ym2612"
    },
    {
      "channel": 3,
      "note": 51,
      "start": 11.2031,
      "duration": 0.0134,
      "velocity": 88,
      "chip": "ym2612"
    },
    {
      "channel": 3,
      "note": 51,
      "start": 11.2208,
      "duration": 0.0318,
      "velocity": 88,
      "chip": "ym2612"
    },
    {
      "channel": 1,
      "note": 87,
      "start": 11.2578,
      "duration": 0.0323,
      "velocity": 102,
      "chip": "ym2612"
    },
    {
      "channel": 3,
      "note": 51,
      "start": 11.2585,
      "duration": 0.0145,
      "velocity": 88,
      "chip": "ym2612"
    },
    {
      "channel": 3,
      "note": 51,
      "start": 11.2768,
      "duration": 0.0136,
      "velocity": 88,
      "chip": "ym2612"
    },
    {
      "channel": 1,
      "note": 92,
      "start": 11.2934,
      "duration": 0.1354,
      "velocity": 102,
      "chip": "ym2612"
    },
    {
      "channel": 2,
      "note": 72,
      "start": 11.2939,
      "duration": 0.2783,
      "velocity": 100,
      "chip": "ym2612"
    },
    {
      "channel": 3,
      "note": 51,
      "start": 11.2946,
      "duration": 0.0298,
      "velocity": 88,
      "chip": "ym2612"
    },
    {
      "channel": 4,
      "note": 75,
      "start": 11.2951,
      "duration": 0.2774,
      "velocity": 100,
      "chip": "ym2612"
    },
    {
      "channel": 3,
      "note": 51,
      "start": 11.3273,
      "duration": 0.0138,
      "velocity": 88,
      "chip": "ym2612"
    },
    {
      "channel": 3,
      "note": 51,
      "start": 11.344,
      "duration": 0.0131,
      "velocity": 88,
      "chip": "ym2612"
    },
    {
      "channel": 3,
      "note": 51,
      "start": 11.3622,
      "duration": 0.0294,
      "velocity": 88,
      "chip": "ym2612"
    },
    {
      "channel": 3,
      "note": 51,
      "start": 11.3973,
      "duration": 0.0147,
      "velocity": 88,
      "chip": "ym2612"
    },
    {
      "channel": 3,
      "note": 51,
      "start": 11.4152,
      "duration": 0.0138,
      "velocity": 88,
      "chip": "ym2612"
    },
    {
      "channel": 1,
      "note": 90,
      "start": 11.4319,
      "duration": 0.0148,
      "velocity": 102,
      "chip": "ym2612"
    },
    {
      "channel": 3,
      "note": 51,
      "start": 11.4325,
      "duration": 0.0306,
      "velocity": 88,
      "chip": "ym2612"
    },
    {
      "channel": 1,
      "note": 92,
      "start": 11.4497,
      "duration": 0.0131,
      "velocity": 102,
      "chip": "ym2612"
    },
    {
      "channel": 1,
      "note": 89,
      "start": 11.4659,
      "duration": 0.0148,
      "velocity": 102,
      "chip": "ym2612"
    },
    {
      "channel": 3,
      "note": 51,
      "start": 11.4666,
      "duration": 0.0144,
      "velocity": 88,
      "chip": "ym2612"
    },
    {
      "channel": 1,
      "note": 92,
      "start": 11.4839,
      "duration": 0.014,
      "velocity": 102,
      "chip": "ym2612"
    },
    {
      "channel": 3,
      "note": 51,
      "start": 11.4845,
      "duration": 0.0136,
      "velocity": 88,
      "chip": "ym2612"
    },
    {
      "channel": 1,
      "note": 87,
      "start": 11.502,
      "duration": 0.0148,
      "velocity": 102,
      "chip": "ym2612"
    },
    {
      "channel": 3,
      "note": 51,
      "start": 11.5026,
      "duration": 0.0318,
      "velocity": 88,
      "chip": "ym2612"
    },
    {
      "channel": 1,
      "note": 92,
      "start": 11.5207,
      "duration": 0.0135,
      "velocity": 102,
      "chip": "ym2612"
    },
    {
      "channel": 1,
      "note": 85,
      "start": 11.5394,
      "duration": 0.0149,
      "velocity": 102,
      "chip": "ym2612"
    },
    {
      "channel": 3,
      "note": 51,
      "start": 11.54,
      "duration": 0.0144,
      "velocity": 88,
      "chip": "ym2612"
    },
    {
      "channel": 1,
      "note": 92,
      "start": 11.558,
      "duration": 0.0141,
      "velocity": 102,
      "chip": "ym2612"
    },
    {
      "channel": 3,
      "note": 51,
      "start": 11.5586,
      "duration": 0.0138,
      "velocity": 88,
      "chip": "ym2612"
    },
    {
      "channel": 1,
      "note": 95,
      "start": 11.5769,
      "duration": 0.0516,
      "velocity": 102,
      "chip": "ym2612"
    },
    {
      "channel": 2,
      "note": 71,
      "start": 11.5775,
      "duration": 0.1381,
      "velocity": 100,
      "chip": "ym2612"
    },
    {
      "channel": 3,
      "note": 51,
      "start": 11.5781,
      "duration": 0.0335,
      "velocity": 88,
      "chip": "ym2612"
    },
    {
      "channel": 4,
      "note": 75,
      "start": 11.5787,
      "duration": 0.1373,
      "velocity": 100,
      "chip": "ym2612"
    },
    {
      "channel": 3,
      "note": 51,
      "start": 11.6146,
      "duration": 0.0141,
      "velocity": 88,
      "chip": "ym2612"
    },
    {
      "channel": 1,
      "note": 90,
      "start": 11.6327,
      "duration": 0.0459,
      "velocity": 102,
      "chip": "ym2612"
    },
    {
      "channel": 3,
      "note": 51,
      "start": 11.6332,
      "duration": 0.0131,
      "velocity": 88,
      "chip": "ym2612"
    },
    {
      "channel": 3,
      "note": 51,
      "start": 11.6492,
      "duration": 0.0297,
      "velocity": 88,
      "chip": "ym2612"
    },
    {
      "channel": 1,
      "note": 95,
      "start": 11.6843,
      "duration": 0.0313,
      "velocity": 102,
      "chip": "ym2612"
    },
    {
      "channel": 3,
      "note": 51,
      "start": 11.6849,
      "duration": 0.0143,
      "velocity": 88,
      "chip": "ym2612"
    },
    {
      "channel": 3,
      "note": 51,
      "start": 11.7023,
      "duration": 0.0136,
      "velocity": 88,
      "chip": "ym2612"
    },
    {
      "channel": 1,
      "note": 97,
      "start": 11.7187,
      "duration": 0.0473,
      "velocity": 102,
      "chip": "ym2612"
    },
    {
      "channel": 2,
      "note": 73,
      "start": 11.7192,
      "duration": 0.1377,
      "velocity": 100,
      "chip": "ym2612"
    },
    {
      "channel": 3,
      "note": 51,
      "start": 11.7196,
      "duration": 0.0298,
      "velocity": 88,
      "chip": "ym2612"
    },
    {
      "channel": 4,
      "note": 77,
      "start": 11.7202,
      "duration": 0.137,
      "velocity": 100,
      "chip": "ym2612"
    },
    {
      "channel": 3,
      "note": 51,
      "start": 11.7524,
      "duration": 0.0138,
      "velocity": 88,
      "chip": "ym2612"
    },
    {
      "channel": 1,
      "note": 92,
      "start": 11.7688,
      "duration": 0.0495,
      "velocity": 102,
      "chip": "ym2612"
    },
    {
      "channel": 3,
      "note": 51,
      "start": 11.7694,
      "duration": 0.0132,
      "velocity": 88,
      "chip": "ym2612"
    },
    {
      "channel": 3,
      "note": 51,
      "start": 11.7874,
      "duration": 0.0312,
      "velocity": 88,
      "chip": "ym2612"
    },
    {
      "channel": 1,
      "note": 89,
      "start": 11.8244,
      "duration": 0.0323,
      "velocity": 102,
      "chip": "ym2612"
    },
    {
      "channel": 3,
      "note": 51,
      "start": 11.8251,
      "duration": 0.0144,
      "velocity": 88,
      "chip": "ym2612"
    },
    {
      "channel": 3,
      "note": 51,
      "start": 11.8433,
      "duration": 0.0137,
      "velocity": 88,
      "chip": "ym2612"
    },
    {
      "channel": 1,
      "note": 85,
      "start": 11.86,
      "duration": 0.0156,
      "velocity": 102,
      "chip": "ym2612"
    },
    {
      "channel": 2,
      "note": 75,
      "start": 11.8605,
      "duration": 0.2826,
      "velocity": 100,
      "chip": "ym2612"
    },
    {
      "channel": 3,
      "note": 51,
      "start": 11.8612,
      "duration": 0.0302,
      "velocity": 88,
      "chip": "ym2612"
    },
    {
      "channel": 4,
      "note": 78,
      "start": 11.8617,
      "duration": 0.2817,
      "velocity": 100,
      "chip": "ym2612"
    },
    {
      "channel": 1,
      "note": 87,
      "start": 11.8784,
      "duration": 0.0154,
      "velocity": 102,
      "chip": "ym2612"
    },
    {
      "channel": 3,
      "note": 51,
      "start": 11.8944,
      "duration": 0.0139,
      "velocity": 88,
      "chip": "ym2612"
    },
    {
      "channel": 1,
      "note": 87,
      "start": 11.9111,
      "duration": 0.0321,
      "velocity": 102,
      "chip": "ym2612"
    },
    {
      "channel": 3,
      "note": 51,
      "start": 11.9117,
      "duration": 0.0132,
      "velocity": 88,
      "chip": "ym2612"
    },
    {
      "channel": 3,
      "note": 51,
      "start": 11.9296,
      "duration": 0.0299,
      "velocity": 88,
      "chip": "ym2612"
    },
    {
      "channel": 1,
      "note": 85,
      "start": 11.9461,
      "duration": 0.0131,
      "velocity": 102,
      "chip": "ym2612"
    },
    {
      "channel": 1,
      "note": 87,
      "start": 11.9644,
      "duration": 0.0151,
      "velocity": 102,
      "chip": "ym2612"
    },
    {
      "channel": 3,
      "note": 51,
      "start": 11.965,
      "duration": 0.0147,
      "velocity": 88,
      "chip": "ym2612"
    },
    {
      "channel": 1,
      "note": 82,
      "start": 11.9827,
      "duration": 0.0172,
      "velocity": 102,
      "chip": "ym2612"
    },
    {
      "channel": 3,
      "note": 51,
      "start": 11.9833,
      "duration": 0.0169,
      "velocity": 88,
      "chip": "ym2612"
    },
    {
      "channel": 1,
      "note": 87,
      "start": 12.003,
      "duration": 0.0149,
      "velocity": 102,
      "chip": "ym2612"
    },
    {
      "channel": 3,
      "note": 51,
      "start": 12.0036,
      "duration": 0.0307,
      "velocity": 88,
      "chip": "ym2612"
    },
    {
      "channel": 1,
      "note": 82,
      "start": 12.0209,
      "duration": 0.0132,
      "velocity": 102,
      "chip": "ym2612"
    },
    {
      "channel": 1,
      "note": 85,
      "start": 12.0371,
      "duration": 0.0149,
      "velocity": 102,
      "chip": "ym2612"
    },
    {
      "channel": 3,
      "note": 51,
      "start": 12.0377,
      "duration": 0.0145,
      "velocity": 88,
      "chip": "ym2612"
    },
    {
      "channel": 1,
      "note": 87,
      "start": 12.0551,
      "duration": 0.0139,
      "velocity": 102,
      "chip": "ym2612"
    },
    {
      "channel": 3,
      "note": 51,
      "start": 12.0557,
      "duration": 0.0135,
      "velocity": 88,
      "chip": "ym2612"
    },
    {
      "channel": 1,
      "note": 90,
      "start": 12.0732,
      "duration": 0.0148,
      "velocity": 102,
      "chip": "ym2612"
    },
    {
      "channel": 3,
      "note": 51,
      "start": 12.0737,
      "duration": 0.0317,
      "velocity": 88,
      "chip": "ym2612"
    },
    {
      "channel": 1,
      "note": 85,
      "start": 12.0918,
      "duration": 0.0134,
      "velocity": 102,
      "chip": "ym2612"
    },
    {
      "channel": 1,
      "note": 87,
      "start": 12.1104,
      "duration": 0.0147,
      "velocity": 102,
      "chip": "ym2612"
    },
    {
      "channel": 3,
      "note": 51,
      "start": 12.1111,
      "duration": 0.0143,
      "velocity": 88,
      "chip": "ym2612"
    },
    {
      "channel": 1,
      "note": 90,
      "start": 12.1289,
      "duration": 0.0141,
      "velocity": 102,
      "chip": "ym2612"
    },
    {
      "channel": 3,
      "note": 51,
      "start": 12.1295,
      "duration": 0.0138,
      "velocity": 88,
      "chip": "ym2612"
    },
    {
      "channel": 1,
      "note": 92,
      "start": 12.1463,
      "duration": 0.1391,
      "velocity": 102,
      "chip": "ym2612"
    },
    {
      "channel": 2,
      "note": 73,
      "start": 12.1468,
      "duration": 0.2834,
      "velocity": 100,
      "chip": "ym2612"
    },
    {
      "channel": 3,
      "note": 51,
      "start": 12.1474,
      "duration": 0.0295,
      "velocity": 88,
      "chip": "ym2612"
    },
    {
      "channel": 4,
      "note": 77,
      "start": 12.148,
      "duration": 0.2825,
      "velocity": 100,
      "chip": "ym2612"
    },
    {
      "channel": 3,
      "note": 51,
      "start": 12.18,
      "duration": 0.0139,
      "velocity": 88,
      "chip": "ym2612"
    },
    {
      "channel": 3,
      "note": 51,
      "start": 12.1968,
      "duration": 0.0131,
      "velocity": 88,
      "chip": "ym2612"
    },
    {
      "channel": 3,
      "note": 51,
      "start": 12.2151,
      "duration": 0.0297,
      "velocity": 88,
      "chip": "ym2612"
    },
    {
      "channel": 3,
      "note": 51,
      "start": 12.2505,
      "duration": 0.0149,
      "velocity": 88,
      "chip": "ym2612"
    },
    {
      "channel": 3,
      "note": 51,
      "start": 12.2687,
      "duration": 0.017,
      "velocity": 88,
      "chip": "ym2612"
    },
    {
      "channel": 1,
      "note": 90,
      "start": 12.2885,
      "duration": 0.0511,
      "velocity": 102,
      "chip": "ym2612"
    },
    {
      "channel": 3,
      "note": 51,
      "start": 12.289,
      "duration": 0.0301,
      "velocity": 88,
      "chip": "ym2612"
    },
    {
      "channel": 3,
      "note": 51,
      "start": 12.3222,
      "duration": 0.0176,
      "velocity": 88,
      "chip": "ym2612"
    },
    {
      "channel": 1,
      "note": 89,
      "start": 12.3427,
      "duration": 0.0498,
      "velocity": 102,
      "chip": "ym2612"
    },
    {
      "channel": 3,
      "note": 51,
      "start": 12.3433,
      "duration": 0.0135,
      "velocity": 88,
      "chip": "ym2612"
    },
    {
      "channel": 3,
      "note": 51,
      "start": 12.361,
      "duration": 0.0317,
      "velocity": 88,
      "chip": "ym2612"
    },
    {
      "channel": 1,
      "note": 87,
      "start": 12.398,
      "duration": 0.0321,
      "velocity": 102,
      "chip": "ym2612"
    },
    {
      "channel": 3,
      "note": 51,
      "start": 12.3986,
      "duration": 0.0143,
      "velocity": 88,
      "chip": "ym2612"
    },
    {
      "channel": 3,
      "note": 51,
      "start": 12.4168,
      "duration": 0.0135,
      "velocity": 88,
      "chip": "ym2612"
    },
    {
      "channel": 1,
      "note": 92,
      "start": 12.4333,
      "duration": 0.1345,
      "velocity": 102,
      "chip": "ym2612"
    },
    {
      "channel": 2,
      "note": 72,
      "start": 12.4339,
      "duration": 0.2773,
      "velocity": 100,
      "chip": "ym2612"
    },
    {
      "channel": 3,
      "note": 51,
      "start": 12.4345,
      "duration": 0.0296,
      "velocity": 88,
      "chip": "ym2612"
    },
    {
      "channel": 4,
      "note": 75,
      "start": 12.4351,
      "duration": 0.2764,
      "velocity": 100,
      "chip": "ym2612"
    },
    {
      "channel": 3,
      "note": 51,
      "start": 12.467,
      "duration": 0.0138,
      "velocity": 88,
      "chip": "ym2612"
    },
    {
      "channel": 3,
      "note": 51,
      "start": 12.4837,
      "duration": 0.0129,
      "velocity": 88,
      "chip": "ym2612"
    },
    {
      "channel": 3,
      "note": 51,
      "start": 12.5017,
      "duration": 0.0293,
      "velocity": 88,
      "chip": "ym2612"
    },
    {
      "channel": 3,
      "note": 51,
      "start": 12.5365,
      "duration": 0.0147,
      "velocity": 88,
      "chip": "ym2612"
    },
    {
      "channel": 3,
      "note": 51,
      "start": 12.5544,
      "duration": 0.0137,
      "velocity": 88,
      "chip": "ym2612"
    },
    {
      "channel": 1,
      "note": 90,
      "start": 12.571,
      "duration": 0.0148,
      "velocity": 102,
      "chip": "ym2612"
    },
    {
      "channel": 3,
      "note": 51,
      "start": 12.5717,
      "duration": 0.0304,
      "velocity": 88,
      "chip": "ym2612"
    },
    {
      "channel": 1,
      "note": 92,
      "start": 12.5888,
      "duration": 0.0131,
      "velocity": 102,
      "chip": "ym2612"
    },
    {
      "channel": 1,
      "note": 89,
      "start": 12.605,
      "duration": 0.0148,
      "velocity": 102,
      "chip": "ym2612"
    },
    {
      "channel": 3,
      "note": 51,
      "start": 12.6056,
      "duration": 0.0144,
      "velocity": 88,
      "chip": "ym2612"
    },
    {
      "channel": 1,
      "note": 92,
      "start": 12.6228,
      "duration": 0.0139,
      "velocity": 102,
      "chip": "ym2612"
    },
    {
      "channel": 3,
      "note": 51,
      "start": 12.6234,
      "duration": 0.0135,
      "velocity": 88,
      "chip": "ym2612"
    },
    {
      "channel": 1,
      "note": 87,
      "start": 12.6411,
      "duration": 0.0148,
      "velocity": 102,
      "chip": "ym2612"
    },
    {
      "channel": 3,
      "note": 51,
      "start": 12.6416,
      "duration": 0.032,
      "velocity": 88,
      "chip": "ym2612"
    },
    {
      "channel": 1,
      "note": 92,
      "start": 12.6597,
      "duration": 0.0137,
      "velocity": 102,
      "chip": "ym2612"
    },
    {
      "channel": 1,
      "note": 85,
      "start": 12.6785,
      "duration": 0.0149,
      "velocity": 102,
      "chip": "ym2612"
    },
    {
      "channel": 3,
      "note": 51,
      "start": 12.6791,
      "duration": 0.0145,
      "velocity": 88,
      "chip": "ym2612"
    },
    {
      "channel": 1,
      "note": 92,
      "start": 12.6969,
      "duration": 0.0141,
      "velocity": 102,
      "chip": "ym2612"
    },
    {
      "channel": 3,
      "note": 51,
      "start": 12.6976,
      "duration": 0.0138,
      "velocity": 88,
      "chip": "ym2612"
    },
    {
      "channel": 1,
      "note": 95,
      "start": 12.7159,
      "duration": 0.0474,
      "velocity": 102,
      "chip": "ym2612"
    },
    {
      "channel": 2,
      "note": 71,
      "start": 12.7166,
      "duration": 0.132,
      "velocity": 100,
      "chip": "ym2612"
    },
    {
      "channel": 3,
      "note": 51,
      "start": 12.7172,
      "duration": 0.0296,
      "velocity": 88,
      "chip": "ym2612"
    },
    {
      "channel": 4,
      "note": 75,
      "start": 12.7178,
      "duration": 0.1311,
      "velocity": 100,
      "chip": "ym2612"
    },
    {
      "channel": 3,
      "note": 51,
      "start": 12.7505,
      "duration": 0.0131,
      "velocity": 88,
      "chip": "ym2612"
    },
    {
      "channel": 1,
      "note": 90,
      "start": 12.7662,
      "duration": 0.0455,
      "velocity": 102,
      "chip": "ym2612"
    },
    {
      "channel": 3,
      "note": 51,
      "start": 12.7667,
      "duration": 0.0119,
      "velocity": 88,
      "chip": "ym2612"
    },
    {
      "channel": 3,
      "note": 51,
      "start": 12.7815,
      "duration": 0.0305,
      "velocity": 88,
      "chip": "ym2612"
    },
    {
      "channel": 1,
      "note": 95,
      "start": 12.8171,
      "duration": 0.0314,
      "velocity": 102,
      "chip": "ym2612"
    },
    {
      "channel": 3,
      "note": 51,
      "start": 12.8177,
      "duration": 0.0145,
      "velocity": 88,
      "chip": "ym2612"
    },
    {
      "channel": 3,
      "note": 51,
      "start": 12.8353,
      "duration": 0.0135,
      "velocity": 88,
      "chip": "ym2612"
    },
    {
      "channel": 1,
      "note": 97,
      "start": 12.853,
      "duration": 0.0522,
      "velocity": 102,
      "chip": "ym2612"
    },
    {
      "channel": 2,
      "note": 73,
      "start": 12.8535,
      "duration": 0.1438,
      "velocity": 100,
      "chip": "ym2612"
    },
    {
      "channel": 3,
      "note": 51,
      "start": 12.8539,
      "duration": 0.0311,
      "velocity": 88,
      "chip": "ym2612"
    },
    {
      "channel": 4,
      "note": 77,
      "start": 12.8545,
      "duration": 0.1432,
      "velocity": 100,
      "chip": "ym2612"
    },
    {
      "channel": 3,
      "note": 51,
      "start": 12.8908,
      "duration": 0.0146,
      "velocity": 88,
      "chip": "ym2612"
    },
    {
      "channel": 1,
      "note": 92,
      "start": 12.9093,
      "duration": 0.0499,
      "velocity": 102,
      "chip": "ym2612"
    },
    {
      "channel": 3,
      "note": 51,
      "start": 12.9098,
      "duration": 0.0135,
      "velocity": 88,
      "chip": "ym2612"
    },
    {
      "channel": 3,
      "note": 51,
      "start": 12.9281,
      "duration": 0.0313,
      "velocity": 88,
      "chip": "ym2612"
    },
    {
      "channel": 1,
      "note": 89,
      "start": 12.9652,
      "duration": 0.032,
      "velocity": 102,
      "chip": "ym2612"
    },
    {
      "channel": 3,
      "note": 51,
      "start": 12.9657,
      "duration": 0.0145,
      "velocity": 88,
      "chip": "ym2612"
    },
    {
      "channel": 3,
      "note": 51,
      "start": 12.9839,
      "duration": 0.0136,
      "velocity": 88,
      "chip": "ym2612"
    },
    {
      "channel": 1,
      "note": 85,
      "start": 13.0004,
      "duration": 0.0154,
      "velocity": 102,
      "chip": "ym2612"
    },
    {
      "channel": 2,
      "note": 75,
      "start": 13.0009,
      "duration": 0.2826,
      "velocity": 100,
      "chip": "ym2612"
    },
    {
      "channel": 3,
      "note": 51,
      "start": 13.0016,
      "duration": 0.0301,
      "velocity": 88,
      "chip": "ym2612"
    },
    {
      "channel": 4,
      "note": 78,
      "start": 13.0021,
      "duration": 0.2817,
      "velocity": 100,
      "chip": "ym2612"
    },
    {
      "channel": 1,
      "note": 87,
      "start": 13.0189,
      "duration": 0.0151,
      "velocity": 102,
      "chip": "ym2612"
    },
    {
      "channel": 3,
      "note": 51,
      "start": 13.0346,
      "duration": 0.014,
      "velocity": 88,
      "chip": "ym2612"
    },
    {
      "channel": 1,
      "note": 87,
      "start": 13.0516,
      "duration": 0.0321,
      "velocity": 102,
      "chip": "ym2612"
    },
    {
      "channel": 3,
      "note": 51,
      "start": 13.0521,
      "duration": 0.0129,
      "velocity": 88,
      "chip": "ym2612"
    },
    {
      "channel": 3,
      "note": 51,
      "start": 13.0698,
      "duration": 0.03,
      "velocity": 88,
      "chip": "ym2612"
    },
    {
      "channel": 1,
      "note": 85,
      "start": 13.0866,
      "duration": 0.013,
      "velocity": 102,
      "chip": "ym2612"
    },
    {
      "channel": 1,
      "note": 87,
      "start": 13.1048,
      "duration": 0.0151,
      "velocity": 102,
      "chip": "ym2612"
    },
    {
      "channel": 3,
      "note": 51,
      "start": 13.1054,
      "duration": 0.0147,
      "velocity": 88,
      "chip": "ym2612"
    },
    {
      "channel": 1,
      "note": 82,
      "start": 13.1231,
      "duration": 0.017,
      "velocity": 102,
      "chip": "ym2612"
    },
    {
      "channel": 3,
      "note": 51,
      "start": 13.1237,
      "duration": 0.0167,
      "velocity": 88,
      "chip": "ym2612"
    },
    {
      "channel": 1,
      "note": 87,
      "start": 13.1433,
      "duration": 0.0146,
      "velocity": 102,
      "chip": "ym2612"
    },
    {
      "channel": 3,
      "note": 51,
      "start": 13.1438,
      "duration": 0.0306,
      "velocity": 88,
      "chip": "ym2612"
    },
    {
      "channel": 1,
      "note": 82,
      "start": 13.1611,
      "duration": 0.0131,
      "velocity": 102,
      "chip": "ym2612"
    },
    {
      "channel": 1,
      "note": 85,
      "start": 13.1773,
      "duration": 0.0147,
      "velocity": 102,
      "chip": "ym2612"
    },
    {
      "channel": 3,
      "note": 51,
      "start": 13.178,
      "duration": 0.0143,
      "velocity": 88,
      "chip": "ym2612"
    },
    {
      "channel": 1,
      "note": 87,
      "start": 13.1953,
      "duration": 0.0139,
      "velocity": 102,
      "chip": "ym2612"
    },
    {
      "channel": 3,
      "note": 51,
      "start": 13.1959,
      "duration": 0.0135,
      "velocity": 88,
      "chip": "ym2612"
    },
    {
      "channel": 1,
      "note": 90,
      "start": 13.2134,
      "duration": 0.015,
      "velocity": 102,
      "chip": "ym2612"
    },
    {
      "channel": 3,
      "note": 51,
      "start": 13.2139,
      "duration": 0.0321,
      "velocity": 88,
      "chip": "ym2612"
    },
    {
      "channel": 1,
      "note": 85,
      "start": 13.2324,
      "duration": 0.0134,
      "velocity": 102,
      "chip": "ym2612"
    },
    {
      "channel": 1,
      "note": 87,
      "start": 13.251,
      "duration": 0.0147,
      "velocity": 102,
      "chip": "ym2612"
    },
    {
      "channel": 3,
      "note": 51,
      "start": 13.2516,
      "duration": 0.0143,
      "velocity": 88,
      "chip": "ym2612"
    },
    {
      "channel": 1,
      "note": 90,
      "start": 13.2696,
      "duration": 0.0138,
      "velocity": 102,
      "chip": "ym2612"
    },
    {
      "channel": 3,
      "note": 51,
      "start": 13.2702,
      "duration": 0.0134,
      "velocity": 88,
      "chip": "ym2612"
    },
    {
      "channel": 1,
      "note": 92,
      "start": 13.2866,
      "duration": 0.1356,
      "velocity": 102,
      "chip": "ym2612"
    },
    {
      "channel": 2,
      "note": 73,
      "start": 13.2871,
      "duration": 0.2767,
      "velocity": 100,
      "chip": "ym2612"
    },
    {
      "channel": 3,
      "note": 51,
      "start": 13.2878,
      "duration": 0.0298,
      "velocity": 88,
      "chip": "ym2612"
    },
    {
      "channel": 4,
      "note": 77,
      "start": 13.2883,
      "duration": 0.2758,
      "velocity": 100,
      "chip": "ym2612"
    },
    {
      "channel": 3,
      "note": 51,
      "start": 13.3205,
      "duration": 0.014,
      "velocity": 88,
      "chip": "ym2612"
    },
    {
      "channel": 3,
      "note": 51,
      "start": 13.3376,
      "duration": 0.0128,
      "velocity": 88,
      "chip": "ym2612"
    },
    {
      "channel": 3,
      "note": 51,
      "start": 13.3556,
      "duration": 0.0294,
      "velocity": 88,
      "chip": "ym2612"
    },
    {
      "channel": 3,
      "note": 51,
      "start": 13.3906,
      "duration": 0.0148,
      "velocity": 88,
      "chip": "ym2612"
    },
    {
      "channel": 3,
      "note": 51,
      "start": 13.4088,
      "duration": 0.0137,
      "velocity": 88,
      "chip": "ym2612"
    },
    {
      "channel": 1,
      "note": 90,
      "start": 13.4261,
      "duration": 0.0469,
      "velocity": 102,
      "chip": "ym2612"
    },
    {
      "channel": 3,
      "note": 51,
      "start": 13.4266,
      "duration": 0.0292,
      "velocity": 88,
      "chip": "ym2612"
    },
    {
      "channel": 3,
      "note": 51,
      "start": 13.4596,
      "duration": 0.0137,
      "velocity": 88,
      "chip": "ym2612"
    },
    {
      "channel": 1,
      "note": 89,
      "start": 13.4763,
      "duration": 0.0496,
      "velocity": 102,
      "chip": "ym2612"
    },
    {
      "channel": 3,
      "note": 51,
      "start": 13.4769,
      "duration": 0.0133,
      "velocity": 88,
      "chip": "ym2612"
    },
    {
      "channel": 3,
      "note": 51,
      "start": 13.4955,
      "duration": 0.0307,
      "velocity": 88,
      "chip": "ym2612"
    },
    {
      "channel": 1,
      "note": 87,
      "start": 13.5314,
      "duration": 0.0323,
      "velocity": 102,
      "chip": "ym2612"
    },
    {
      "channel": 3,
      "note": 51,
      "start": 13.532,
      "duration": 0.0145,
      "velocity": 88,
      "chip": "ym2612"
    },
    {
      "channel": 3,
      "note": 51,
      "start": 13.5505,
      "duration": 0.0135,
      "velocity": 88,
      "chip": "ym2612"
    },
    {
      "channel": 1,
      "note": 92,
      "start": 13.5677,
      "duration": 0.1375,
      "velocity": 102,
      "chip": "ym2612"
    },
    {
      "channel": 2,
      "note": 72,
      "start": 13.5683,
      "duration": 0.2805,
      "velocity": 100,
      "chip": "ym2612"
    },
    {
      "channel": 3,
      "note": 51,
      "start": 13.5689,
      "duration": 0.0289,
      "velocity": 88,
      "chip": "ym2612"
    },
    {
      "channel": 4,
      "note": 75,
      "start": 13.5695,
      "duration": 0.2796,
      "velocity": 100,
      "chip": "ym2612"
    },
    {
      "channel": 3,
      "note": 51,
      "start": 13.6016,
      "duration": 0.0129,
      "velocity": 88,
      "chip": "ym2612"
    },
    {
      "channel": 3,
      "note": 51,
      "start": 13.6176,
      "duration": 0.0128,
      "velocity": 88,
      "chip": "ym2612"
    },
    {
      "channel": 3,
      "note": 51,
      "start": 13.6365,
      "duration": 0.0283,
      "velocity": 88,
      "chip": "ym2612"
    },
    {
      "channel": 3,
      "note": 51,
      "start": 13.6714,
      "duration": 0.0137,
      "velocity": 88,
      "chip": "ym2612"
    },
    {
      "channel": 3,
      "note": 51,
      "start": 13.6885,
      "duration": 0.0169,
      "velocity": 88,
      "chip": "ym2612"
    },
    {
      "channel": 1,
      "note": 90,
      "start": 13.7091,
      "duration": 0.0139,
      "velocity": 102,
      "chip": "ym2612"
    },
    {
      "channel": 3,
      "note": 51,
      "start": 13.7097,
      "duration": 0.0298,
      "velocity": 88,
      "chip": "ym2612"
    },
    {
      "channel": 1,
      "note": 92,
      "start": 13.7262,
      "duration": 0.013,
      "velocity": 102,
      "chip": "ym2612"
    },
    {
      "channel": 1,
      "note": 89,
      "start": 13.7431,
      "duration": 0.0139,
      "velocity": 102,
      "chip": "ym2612"
    },
    {
      "channel": 3,
      "note": 51,
      "start": 13.7437,
      "duration": 0.0136,
      "velocity": 88,
      "chip": "ym2612"
    },
    {
      "channel": 1,
      "note": 92,
      "start": 13.7603,
      "duration": 0.014,
      "velocity": 102,
      "chip": "ym2612"
    },
    {
      "channel": 3,
      "note": 51,
      "start": 13.7608,
      "duration": 0.0137,
      "velocity": 88,
      "chip": "ym2612"
    },
    {
      "channel": 1,
      "note": 87,
      "start": 13.7794,
      "duration": 0.014,
      "velocity": 102,
      "chip": "ym2612"
    },
    {
      "channel": 3,
      "note": 51,
      "start": 13.78,
      "duration": 0.031,
      "velocity": 88,
      "chip": "ym2612"
    },
    {
      "channel": 1,
      "note": 92,
      "start": 13.7974,
      "duration": 0.0134,
      "velocity": 102,
      "chip": "ym2612"
    },
    {
      "channel": 1,
      "note": 85,
      "start": 13.8167,
      "duration": 0.014,
      "velocity": 102,
      "chip": "ym2612"
    },
    {
      "channel": 3,
      "note": 51,
      "start": 13.8174,
      "duration": 0.0137,
      "velocity": 88,
      "chip": "ym2612"
    },
    {
      "channel": 1,
      "note": 92,
      "start": 13.8348,
      "duration": 0.0139,
      "velocity": 102,
      "chip": "ym2612"
    },
    {
      "channel": 3,
      "note": 51,
      "start": 13.8354,
      "duration": 0.0136,
      "velocity": 88,
      "chip": "ym2612"
    },
    {
      "channel": 1,
      "note": 95,
      "start": 13.8544,
      "duration": 0.0502,
      "velocity": 102,
      "chip": "ym2612"
    },
    {
      "channel": 2,
      "note": 71,
      "start": 13.8549,
      "duration": 0.1367,
      "velocity": 100,
      "chip": "ym2612"
    },
    {
      "channel": 3,
      "note": 51,
      "start": 13.8556,
      "duration": 0.0325,
      "velocity": 88,
      "chip": "ym2612"
    },
    {
      "channel": 4,
      "note": 75,
      "start": 13.8561,
      "duration": 0.1358,
      "velocity": 100,
      "chip": "ym2612"
    },
    {
      "channel": 3,
      "note": 51,
      "start": 13.8918,
      "duration": 0.013,
      "velocity": 88,
      "chip": "ym2612"
    },
    {
      "channel": 1,
      "note": 90,
      "start": 13.9091,
      "duration": 0.0455,
      "velocity": 102,
      "chip": "ym2612"
    },
    {
      "channel": 3,
      "note": 51,
      "start": 13.9097,
      "duration": 0.013,
      "velocity": 88,
      "chip": "ym2612"
    },
    {
      "channel": 3,
      "note": 51,
      "start": 13.9264,
      "duration": 0.0285,
      "velocity": 88,
      "chip": "ym2612"
    },
    {
      "channel": 1,
      "note": 95,
      "start": 13.961,
      "duration": 0.0305,
      "velocity": 102,
      "chip": "ym2612"
    },
    {
      "channel": 3,
      "note": 51,
      "start": 13.9616,
      "duration": 0.0134,
      "velocity": 88,
      "chip": "ym2612"
    },
    {
      "channel": 3,
      "note": 51,
      "start": 13.9782,
      "duration": 0.0136,
      "velocity": 88,
      "chip": "ym2612"
    },
    {
      "channel": 1,
      "note": 97,
      "start": 13.9955,
      "duration": 0.0471,
      "velocity": 102,
      "chip": "ym2612"
    },
    {
      "channel": 2,
      "note": 73,
      "start": 13.996,
      "duration": 0.1377,
      "velocity": 100,
      "chip": "ym2612"
    },
    {
      "channel": 3,
      "note": 51,
      "start": 13.9965,
      "duration": 0.0294,
      "velocity": 88,
      "chip": "ym2612"
    },
    {
      "channel": 4,
      "note": 77,
      "start": 13.997,
      "duration": 0.137,
      "velocity": 100,
      "chip": "ym2612"
    },
    {
      "channel": 3,
      "note": 51,
      "start": 14.0297,
      "duration": 0.0131,
      "velocity": 88,
      "chip": "ym2612"
    },
    {
      "channel": 1,
      "note": 92,
      "start": 14.0457,
      "duration": 0.0494,
      "velocity": 102,
      "chip": "ym2612"
    },
    {
      "channel": 3,
      "note": 51,
      "start": 14.0463,
      "duration": 0.0128,
      "velocity": 88,
      "chip": "ym2612"
    },
    {
      "channel": 3,
      "note": 51,
      "start": 14.0645,
      "duration": 0.0308,
      "velocity": 88,
      "chip": "ym2612"
    },
    {
      "channel": 1,
      "note": 89,
      "start": 14.102,
      "duration": 0.0315,
      "velocity": 102,
      "chip": "ym2612"
    },
    {
      "channel": 3,
      "note": 51,
      "start": 14.1026,
      "duration": 0.0135,
      "velocity": 88,
      "chip": "ym2612"
    },
    {
      "channel": 3,
      "note": 51,
      "start": 14.1203,
      "duration": 0.0135,
      "velocity": 88,
      "chip": "ym2612"
    },
    {
      "channel": 1,
      "note": 85,
      "start": 14.1377,
      "duration": 0.0147,
      "velocity": 102,
      "chip": "ym2612"
    },
    {
      "channel": 2,
      "note": 75,
      "start": 14.1383,
      "duration": 0.2786,
      "velocity": 100,
      "chip": "ym2612"
    },
    {
      "channel": 3,
      "note": 51,
      "start": 14.1389,
      "duration": 0.0294,
      "velocity": 88,
      "chip": "ym2612"
    },
    {
      "channel": 4,
      "note": 78,
      "start": 14.1395,
      "duration": 0.2777,
      "velocity": 100,
      "chip": "ym2612"
    },
    {
      "channel": 1,
      "note": 87,
      "start": 14.1554,
      "duration": 0.0161,
      "velocity": 102,
      "chip": "ym2612"
    },
    {
      "channel": 3,
      "note": 51,
      "start": 14.1721,
      "duration": 0.0132,
      "velocity": 88,
      "chip": "ym2612"
    },
    {
      "channel": 1,
      "note": 87,
      "start": 14.1882,
      "duration": 0.0318,
      "velocity": 102,
      "chip": "ym2612"
    },
    {
      "channel": 3,
      "note": 51,
      "start": 14.1888,
      "duration": 0.0129,
      "velocity": 88,
      "chip": "ym2612"
    },
    {
      "channel": 3,
      "note": 51,
      "start": 14.2072,
      "duration": 0.029,
      "velocity": 88,
      "chip": "ym2612"
    },
    {
      "channel": 1,
      "note": 85,
      "start": 14.223,
      "duration": 0.0129,
      "velocity": 102,
      "chip": "ym2612"
    },
    {
      "channel": 1,
      "note": 87,
      "start": 14.2419,
      "duration": 0.0141,
      "velocity": 102,
      "chip": "ym2612"
    },
    {
      "channel": 3,
      "note": 51,
      "start": 14.2424,
      "duration": 0.0138,
      "velocity": 88,
      "chip": "ym2612"
    },
    {
      "channel": 1,
      "note": 82,
      "start": 14.2592,
      "duration": 0.0139,
      "velocity": 102,
      "chip": "ym2612"
    },
    {
      "channel": 3,
      "note": 51,
      "start": 14.2598,
      "duration": 0.0134,
      "velocity": 88,
      "chip": "ym2612"
    },
    {
      "channel": 1,
      "note": 87,
      "start": 14.2771,
      "duration": 0.0138,
      "velocity": 102,
      "chip": "ym2612"
    },
    {
      "channel": 3,
      "note": 51,
      "start": 14.2777,
      "duration": 0.0296,
      "velocity": 88,
      "chip": "ym2612"
    },
    {
      "channel": 1,
      "note": 82,
      "start": 14.294,
      "duration": 0.013,
      "velocity": 102,
      "chip": "ym2612"
    },
    {
      "channel": 1,
      "note": 85,
      "start": 14.3111,
      "duration": 0.0138,
      "velocity": 102,
      "chip": "ym2612"
    },
    {
      "channel": 3,
      "note": 51,
      "start": 14.3117,
      "duration": 0.0134,
      "velocity": 88,
      "chip": "ym2612"
    },
    {
      "channel": 1,
      "note": 87,
      "start": 14.3282,
      "duration": 0.0138,
      "velocity": 102,
      "chip": "ym2612"
    },
    {
      "channel": 3,
      "note": 51,
      "start": 14.3288,
      "duration": 0.0134,
      "velocity": 88,
      "chip": "ym2612"
    },
    {
      "channel": 1,
      "note": 90,
      "start": 14.3468,
      "duration": 0.014,
      "velocity": 102,
      "chip": "ym2612"
    },
    {
      "channel": 3,
      "note": 51,
      "start": 14.3474,
      "duration": 0.0316,
      "velocity": 88,
      "chip": "ym2612"
    },
    {
      "channel": 1,
      "note": 85,
      "start": 14.3652,
      "duration": 0.0136,
      "velocity": 102,
      "chip": "ym2612"
    },
    {
      "channel": 1,
      "note": 87,
      "start": 14.3847,
      "duration": 0.0139,
      "velocity": 102,
      "chip": "ym2612"
    },
    {
      "channel": 3,
      "note": 51,
      "start": 14.3853,
      "duration": 0.0135,
      "velocity": 88,
      "chip": "ym2612"
    },
    {
      "channel": 1,
      "note": 90,
      "start": 14.4029,
      "duration": 0.0138,
      "velocity": 102,
      "chip": "ym2612"
    },
    {
      "channel": 3,
      "note": 51,
      "start": 14.4035,
      "duration": 0.0135,
      "velocity": 88,
      "chip": "ym2612"
    },
    {
      "channel": 1,
      "note": 92,
      "start": 14.4208,
      "duration": 0.1341,
      "velocity": 102,
      "chip": "ym2612"
    },
    {
      "channel": 2,
      "note": 73,
      "start": 14.4214,
      "duration": 0.2764,
      "velocity": 100,
      "chip": "ym2612"
    },
    {
      "channel": 3,
      "note": 51,
      "start": 14.422,
      "duration": 0.0286,
      "velocity": 88,
      "chip": "ym2612"
    },
    {
      "channel": 4,
      "note": 77,
      "start": 14.4226,
      "duration": 0.2755,
      "velocity": 100,
      "chip": "ym2612"
    },
    {
      "channel": 3,
      "note": 51,
      "start": 14.4546,
      "duration": 0.013,
      "velocity": 88,
      "chip": "ym2612"
    },
    {
      "channel": 3,
      "note": 51,
      "start": 14.4706,
      "duration": 0.013,
      "velocity": 88,
      "chip": "ym2612"
    },
    {
      "channel": 3,
      "note": 51,
      "start": 14.4894,
      "duration": 0.0285,
      "velocity": 88,
      "chip": "ym2612"
    },
    {
      "channel": 3,
      "note": 51,
      "start": 14.5241,
      "duration": 0.0139,
      "velocity": 88,
      "chip": "ym2612"
    },
    {
      "channel": 3,
      "note": 51,
      "start": 14.5415,
      "duration": 0.0138,
      "velocity": 88,
      "chip": "ym2612"
    },
    {
      "channel": 1,
      "note": 90,
      "start": 14.5591,
      "duration": 0.0472,
      "velocity": 102,
      "chip": "ym2612"
    },
    {
      "channel": 3,
      "note": 51,
      "start": 14.5597,
      "duration": 0.0291,
      "velocity": 88,
      "chip": "ym2612"
    },
    {
      "channel": 3,
      "note": 51,
      "start": 14.5929,
      "duration": 0.0136,
      "velocity": 88,
      "chip": "ym2612"
    },
    {
      "channel": 1,
      "note": 89,
      "start": 14.6095,
      "duration": 0.0501,
      "velocity": 102,
      "chip": "ym2612"
    },
    {
      "channel": 3,
      "note": 51,
      "start": 14.6101,
      "duration": 0.0133,
      "velocity": 88,
      "chip": "ym2612"
    },
    {
      "channel": 3,
      "note": 51,
      "start": 14.6284,
      "duration": 0.0314,
      "velocity": 88,
      "chip": "ym2612"
    },
    {
      "channel": 1,
      "note": 87,
      "start": 14.6656,
      "duration": 0.032,
      "velocity": 102,
      "chip": "ym2612"
    },
    {
      "channel": 3,
      "note": 51,
      "start": 14.6663,
      "duration": 0.0136,
      "velocity": 88,
      "chip": "ym2612"
    },
    {
      "channel": 3,
      "note": 51,
      "start": 14.6844,
      "duration": 0.0135,
      "velocity": 88,
      "chip": "ym2612"
    },
    {
      "channel": 1,
      "note": 92,
      "start": 14.7019,
      "duration": 0.135,
      "velocity": 102,
      "chip": "ym2612"
    },
    {
      "channel": 2,
      "note": 72,
      "start": 14.7025,
      "duration": 0.278,
      "velocity": 100,
      "chip": "ym2612"
    },
    {
      "channel": 3,
      "note": 51,
      "start": 14.7031,
      "duration": 0.0285,
      "velocity": 88,
      "chip": "ym2612"
    },
    {
      "channel": 4,
      "note": 75,
      "start": 14.7037,
      "duration": 0.2772,
      "velocity": 100,
      "chip": "ym2612"
    },
    {
      "channel": 3,
      "note": 51,
      "start": 14.7355,
      "duration": 0.0132,
      "velocity": 88,
      "chip": "ym2612"
    },
    {
      "channel": 3,
      "note": 51,
      "start": 14.7532,
      "duration": 0.013,
      "velocity": 88,
      "chip": "ym2612"
    },
    {
      "channel": 3,
      "note": 51,
      "start": 14.772,
      "duration": 0.0286,
      "velocity": 88,
      "chip": "ym2612"
    },
    {
      "channel": 3,
      "note": 51,
      "start": 14.8065,
      "duration": 0.0138,
      "velocity": 88,
      "chip": "ym2612"
    },
    {
      "channel": 3,
      "note": 51,
      "start": 14.8234,
      "duration": 0.0137,
      "velocity": 88,
      "chip": "ym2612"
    },
    {
      "channel": 1,
      "note": 90,
      "start": 14.841,
      "duration": 0.0137,
      "velocity": 102,
      "chip": "ym2612"
    },
    {
      "channel": 3,
      "note": 51,
      "start": 14.8416,
      "duration": 0.0295,
      "velocity": 88,
      "chip": "ym2612"
    },
    {
      "channel": 1,
      "note": 92,
      "start": 14.8577,
      "duration": 0.0131,
      "velocity": 102,
      "chip": "ym2612"
    },
    {
      "channel": 1,
      "note": 89,
      "start": 14.8749,
      "duration": 0.0138,
      "velocity": 102,
      "chip": "ym2612"
    },
    {
      "channel": 3,
      "note": 51,
      "start": 14.8755,
      "duration": 0.0134,
      "velocity": 88,
      "chip": "ym2612"
    },
    {
      "channel": 1,
      "note": 92,
      "start": 14.8918,
      "duration": 0.0139,
      "velocity": 102,
      "chip": "ym2612"
    },
    {
      "channel": 3,
      "note": 51,
      "start": 14.8924,
      "duration": 0.0135,
      "velocity": 88,
      "chip": "ym2612"
    },
    {
      "channel": 1,
      "note": 87,
      "start": 14.9103,
      "duration": 0.0139,
      "velocity": 102,
      "chip": "ym2612"
    },
    {
      "channel": 3,
      "note": 51,
      "start": 14.9109,
      "duration": 0.0315,
      "velocity": 88,
      "chip": "ym2612"
    },
    {
      "channel": 1,
      "note": 92,
      "start": 14.9287,
      "duration": 0.0135,
      "velocity": 102,
      "chip": "ym2612"
    },
    {
      "channel": 1,
      "note": 85,
      "start": 14.9478,
      "duration": 0.0139,
      "velocity": 102,
      "chip": "ym2612"
    },
    {
      "channel": 3,
      "note": 51,
      "start": 14.9484,
      "duration": 0.0135,
      "velocity": 88,
      "chip": "ym2612"
    },
    {
      "channel": 1,
      "note": 92,
      "start": 14.9663,
      "duration": 0.0141,
      "velocity": 102,
      "chip": "ym2612"
    },
    {
      "channel": 3,
      "note": 51,
      "start": 14.9669,
      "duration": 0.0137,
      "velocity": 88,
      "chip": "ym2612"
    },
    {
      "channel": 1,
      "note": 95,
      "start": 14.9855,
      "duration": 0.0463,
      "velocity": 102,
      "chip": "ym2612"
    },
    {
      "channel": 2,
      "note": 71,
      "start": 14.9861,
      "duration": 0.1321,
      "velocity": 100,
      "chip": "ym2612"
    },
    {
      "channel": 3,
      "note": 51,
      "start": 14.9867,
      "duration": 0.0295,
      "velocity": 88,
      "chip": "ym2612"
    },
    {
      "channel": 4,
      "note": 75,
      "start": 14.9873,
      "duration": 0.1311,
      "velocity": 100,
      "chip": "ym2612"
    },
    {
      "channel": 3,
      "note": 51,
      "start": 15.0199,
      "duration": 0.0122,
      "velocity": 88,
      "chip": "ym2612"
    },
    {
      "channel": 1,
      "note": 90,
      "start": 15.0346,
      "duration": 0.0464,
      "velocity": 102,
      "chip": "ym2612"
    },
    {
      "channel": 3,
      "note": 51,
      "start": 15.0352,
      "duration": 0.0119,
      "velocity": 88,
      "chip": "ym2612"
    },
    {
      "channel": 3,
      "note": 51,
      "start": 15.0509,
      "duration": 0.0305,
      "velocity": 88,
      "chip": "ym2612"
    },
    {
      "channel": 1,
      "note": 95,
      "start": 15.0866,
      "duration": 0.0314,
      "velocity": 102,
      "chip": "ym2612"
    },
    {
      "channel": 3,
      "note": 51,
      "start": 15.0873,
      "duration": 0.0137,
      "velocity": 88,
      "chip": "ym2612"
    },
    {
      "channel": 3,
      "note": 51,
      "start": 15.1048,
      "duration": 0.0135,
      "velocity": 88,
      "chip": "ym2612"
    },
    {
      "channel": 1,
      "note": 97,
      "start": 15.1225,
      "duration": 0.0513,
      "velocity": 102,
      "chip": "ym2612"
    },
    {
      "channel": 2,
      "note": 73,
      "start": 15.123,
      "duration": 0.0699,
      "velocity": 100,
      "chip": "ym2612"
    },
    {
      "channel": 3,
      "note": 51,
      "start": 15.1235,
      "duration": 0.031,
      "velocity": 88,
      "chip": "ym2612"
    },
    {
      "channel": 4,
      "note": 77,
      "start": 15.124,
      "duration": 0.1436,
      "velocity": 100,
      "chip": "ym2612"
    },
    {
      "channel": 3,
      "note": 51,
      "start": 15.1605,
      "duration": 0.0136,
      "velocity": 88,
      "chip": "ym2612"
    },
    {
      "channel": 1,
      "note": 92,
      "start": 15.1789,
      "duration": 0.0502,
      "velocity": 102,
      "chip": "ym2612"
    },
    {
      "channel": 3,
      "note": 51,
      "start": 15.1795,
      "duration": 0.0136,
      "velocity": 88,
      "chip": "ym2612"
    },
    {
      "channel": 2,
      "note": 79,
      "start": 15.1997,
      "duration": 0.0295,
      "velocity": 102,
      "chip": "ym2612"
    },
    {
      "channel": 3,
      "note": 51,
      "start": 15.2002,
      "duration": 0.0292,
      "velocity": 88,
      "chip": "ym2612"
    },
    {
      "channel": 1,
      "note": 89,
      "start": 15.2353,
      "duration": 0.0319,
      "velocity": 102,
      "chip": "ym2612"
    },
    {
      "channel": 2,
      "note": 84,
      "start": 15.2357,
      "duration": 0.0316,
      "velocity": 102,
      "chip": "ym2612"
    },
    {
      "channel": 3,
      "note": 51,
      "start": 15.2362,
      "duration": 0.0133,
      "velocity": 88,
      "chip": "ym2612"
    },
    {
      "channel": 3,
      "note": 51,
      "start": 15.2541,
      "duration": 0.0133,
      "velocity": 88,
      "chip": "ym2612"
    },
    {
      "channel": 1,
      "note": 86,
      "start": 15.2729,
      "duration": 77.0293,
      "velocity": 102,
      "chip": "ym2612"
    },
    {
      "channel": 2,
      "note": 72,
      "start": 15.2757,
      "duration": 0.0195,
      "velocity": 100,
      "chip": "ym2612"
    },
    {
      "channel": 3,
      "note": 53,
      "start": 15.2769,
      "duration": 0.0158,
      "velocity": 88,
      "chip": "ym2612"
    },
    {
      "channel": 4,
      "note": 74,
      "start": 15.2797,
      "duration": 0.0157,
      "velocity": 100,
      "chip": "ym2612"
    }
  ]
}