{
  "track_name": "03 - Opening Theme",
  "duration_sec": 48.067,
  "sample_rate": 44100,
  "note_count": 532,
  "unique_pitches": 34,
  "pitch_range": 53,
  "avg_note_duration": 0.4148,
  "reconstruction_stats": {
    "notes_reconstructed": 532,
    "keyon_events": 532,
    "keyoff_events": 530,
    "orphan_keyons": 2,
    "unique_pitches": 34,
    "pitch_range": 53,
    "avg_duration_sec": 0.4148
  },
  "metadata": {
    "source": "M\\Maten no Soumetsu\\03 - Opening Theme.vgz"
  },
  "notes": [
    {
      "channel": 0,
      "note": 78,
      "start": 0.1315,
      "duration": 0.5094,
      "velocity": 95,
      "chip": "ym2612"
    },
    {
      "channel": 4,
      "note": 78,
      "start": 0.3111,
      "duration": 0.5129,
      "velocity": 95,
      "chip": "ym2612"
    },
    {
      "channel": 0,
      "note": 89,
      "start": 0.6578,
      "duration": 0.5128,
      "velocity": 95,
      "chip": "ym2612"
    },
    {
      "channel": 1,
      "note": 42,
      "start": 0.6589,
      "duration": 1.5714,
      "velocity": 94,
      "chip": "ym2612"
    },
    {
      "channel": 3,
      "note": 78,
      "start": 0.6624,
      "duration": 0.2441,
      "velocity": 78,
      "chip": "ym2612"
    },
    {
      "channel": 2,
      "note": 54,
      "start": 0.7266,
      "duration": 0.2459,
      "velocity": 78,
      "chip": "ym2612"
    },
    {
      "channel": 4,
      "note": 78,
      "start": 0.841,
      "duration": 0.5128,
      "velocity": 95,
      "chip": "ym2612"
    },
    {
      "channel": 3,
      "note": 54,
      "start": 0.9233,
      "duration": 0.2482,
      "velocity": 78,
      "chip": "ym2612"
    },
    {
      "channel": 2,
      "note": 66,
      "start": 0.9892,
      "duration": 0.2481,
      "velocity": 78,
      "chip": "ym2612"
    },
    {
      "channel": 0,
      "note": 90,
      "start": 1.1873,
      "duration": 0.5129,
      "velocity": 95,
      "chip": "ym2612"
    },
    {
      "channel": 3,
      "note": 66,
      "start": 1.1885,
      "duration": 0.2477,
      "velocity": 78,
      "chip": "ym2612"
    },
    {
      "channel": 2,
      "note": 73,
      "start": 1.2541,
      "duration": 0.2481,
      "velocity": 78,
      "chip": "ym2612"
    },
    {
      "channel": 4,
      "note": 89,
      "start": 1.3706,
      "duration": 0.5129,
      "velocity": 95,
      "chip": "ym2612"
    },
    {
      "channel": 3,
      "note": 73,
      "start": 1.453,
      "duration": 0.2482,
      "velocity": 78,
      "chip": "ym2612"
    },
    {
      "channel": 2,
      "note": 78,
      "start": 1.5189,
      "duration": 0.2481,
      "velocity": 78,
      "chip": "ym2612"
    },
    {
      "channel": 0,
      "note": 85,
      "start": 1.717,
      "duration": 0.5129,
      "velocity": 95,
      "chip": "ym2612"
    },
    {
      "channel": 3,
      "note": 78,
      "start": 1.7182,
      "duration": 0.2477,
      "velocity": 78,
      "chip": "ym2612"
    },
    {
      "channel": 2,
      "note": 82,
      "start": 1.7837,
      "duration": 0.2482,
      "velocity": 78,
      "chip": "ym2612"
    },
    {
      "channel": 4,
      "note": 90,
      "start": 1.9002,
      "duration": 0.5129,
      "velocity": 95,
      "chip": "ym2612"
    },
    {
      "channel": 3,
      "note": 82,
      "start": 1.9827,
      "duration": 0.2482,
      "velocity": 78,
      "chip": "ym2612"
    },
    {
      "channel": 2,
      "note": 85,
      "start": 2.0485,
      "duration": 0.2481,
      "velocity": 78,
      "chip": "ym2612"
    },
    {
      "channel": 0,
      "note": 85,
      "start": 2.2467,
      "duration": 0.2481,
      "velocity": 95,
      "chip": "ym2612"
    },
    {
      "channel": 1,
      "note": 47,
      "start": 2.2473,
      "duration": 1.572,
      "velocity": 94,
      "chip": "ym2612"
    },
    {
      "channel": 3,
      "note": 85,
      "start": 2.2481,
      "duration": 0.2475,
      "velocity": 78,
      "chip": "ym2612"
    },
    {
      "channel": 2,
      "note": 59,
      "start": 2.3134,
      "duration": 0.2481,
      "velocity": 78,
      "chip": "ym2612"
    },
    {
      "channel": 4,
      "note": 85,
      "start": 2.4298,
      "duration": 0.2481,
      "velocity": 95,
      "chip": "ym2612"
    },
    {
      "channel": 0,
      "note": 87,
      "start": 2.5116,
      "duration": 0.2481,
      "velocity": 95,
      "chip": "ym2612"
    },
    {
      "channel": 3,
      "note": 59,
      "start": 2.5127,
      "duration": 0.2478,
      "velocity": 78,
      "chip": "ym2612"
    },
    {
      "channel": 2,
      "note": 66,
      "start": 2.5782,
      "duration": 0.2481,
      "velocity": 78,
      "chip": "ym2612"
    },
    {
      "channel": 4,
      "note": 85,
      "start": 2.6948,
      "duration": 0.2482,
      "velocity": 95,
      "chip": "ym2612"
    },
    {
      "channel": 0,
      "note": 78,
      "start": 2.7764,
      "duration": 0.7778,
      "velocity": 95,
      "chip": "ym2612"
    },
    {
      "channel": 3,
      "note": 66,
      "start": 2.7775,
      "duration": 0.2482,
      "velocity": 78,
      "chip": "ym2612"
    },
    {
      "channel": 2,
      "note": 75,
      "start": 2.8431,
      "duration": 0.2483,
      "velocity": 78,
      "chip": "ym2612"
    },
    {
      "channel": 4,
      "note": 87,
      "start": 2.9599,
      "duration": 0.7774,
      "velocity": 95,
      "chip": "ym2612"
    },
    {
      "channel": 3,
      "note": 75,
      "start": 3.0425,
      "duration": 0.2477,
      "velocity": 78,
      "chip": "ym2612"
    },
    {
      "channel": 2,
      "note": 78,
      "start": 3.1081,
      "duration": 0.2479,
      "velocity": 78,
      "chip": "ym2612"
    },
    {
      "channel": 3,
      "note": 78,
      "start": 3.3069,
      "duration": 0.2481,
      "velocity": 78,
      "chip": "ym2612"
    },
    {
      "channel": 2,
      "note": 82,
      "start": 3.3728,
      "duration": 0.2481,
      "velocity": 78,
      "chip": "ym2612"
    },
    {
      "channel": 0,
      "note": 80,
      "start": 3.5709,
      "duration": 0.2481,
      "velocity": 95,
      "chip": "ym2612"
    },
    {
      "channel": 3,
      "note": 82,
      "start": 3.5721,
      "duration": 0.2478,
      "velocity": 78,
      "chip": "ym2612"
    },
    {
      "channel": 2,
      "note": 87,
      "start": 3.6376,
      "duration": 0.2481,
      "velocity": 78,
      "chip": "ym2612"
    },
    {
      "channel": 4,
      "note": 78,
      "start": 3.7541,
      "duration": 0.248,
      "velocity": 95,
      "chip": "ym2612"
    },
    {
      "channel": 0,
      "note": 80,
      "start": 3.8357,
      "duration": 0.2481,
      "velocity": 95,
      "chip": "ym2612"
    },
    {
      "channel": 1,
      "note": 42,
      "start": 3.8363,
      "duration": 1.5725,
      "velocity": 94,
      "chip": "ym2612"
    },
    {
      "channel": 3,
      "note": 87,
      "start": 3.8371,
      "duration": 0.2475,
      "velocity": 78,
      "chip": "ym2612"
    },
    {
      "channel": 2,
      "note": 54,
      "start": 3.9024,
      "duration": 0.2481,
      "velocity": 78,
      "chip": "ym2612"
    },
    {
      "channel": 4,
      "note": 80,
      "start": 4.0189,
      "duration": 0.2481,
      "velocity": 95,
      "chip": "ym2612"
    },
    {
      "channel": 0,
      "note": 82,
      "start": 4.1006,
      "duration": 0.2481,
      "velocity": 95,
      "chip": "ym2612"
    },
    {
      "channel": 3,
      "note": 54,
      "start": 4.1017,
      "duration": 0.2478,
      "velocity": 78,
      "chip": "ym2612"
    },
    {
      "channel": 2,
      "note": 66,
      "start": 4.1672,
      "duration": 0.2481,
      "velocity": 78,
      "chip": "ym2612"
    },
    {
      "channel": 4,
      "note": 80,
      "start": 4.2838,
      "duration": 0.248,
      "velocity": 95,
      "chip": "ym2612"
    },
    {
      "channel": 0,
      "note": 82,
      "start": 4.3654,
      "duration": 1.5723,
      "velocity": 95,
      "chip": "ym2612"
    },
    {
      "channel": 3,
      "note": 66,
      "start": 4.3665,
      "duration": 0.2477,
      "velocity": 78,
      "chip": "ym2612"
    },
    {
      "channel": 2,
      "note": 73,
      "start": 4.4321,
      "duration": 0.2481,
      "velocity": 78,
      "chip": "ym2612"
    },
    {
      "channel": 4,
      "note": 82,
      "start": 4.5487,
      "duration": 1.5722,
      "velocity": 95,
      "chip": "ym2612"
    },
    {
      "channel": 3,
      "note": 73,
      "start": 4.6311,
      "duration": 0.2481,
      "velocity": 78,
      "chip": "ym2612"
    },
    {
      "channel": 2,
      "note": 78,
      "start": 4.697,
      "duration": 0.2481,
      "velocity": 78,
      "chip": "ym2612"
    },
    {
      "channel": 3,
      "note": 78,
      "start": 4.896,
      "duration": 0.248,
      "velocity": 78,
      "chip": "ym2612"
    },
    {
      "channel": 2,
      "note": 82,
      "start": 4.9619,
      "duration": 0.2481,
      "velocity": 78,
      "chip": "ym2612"
    },
    {
      "channel": 3,
      "note": 82,
      "start": 5.1608,
      "duration": 0.2486,
      "velocity": 78,
      "chip": "ym2612"
    },
    {
      "channel": 2,
      "note": 85,
      "start": 5.2267,
      "duration": 0.2485,
      "velocity": 78,
      "chip": "ym2612"
    },
    {
      "channel": 1,
      "note": 47,
      "start": 5.4254,
      "duration": 1.5719,
      "velocity": 94,
      "chip": "ym2612"
    },
    {
      "channel": 3,
      "note": 85,
      "start": 5.4263,
      "duration": 0.2473,
      "velocity": 78,
      "chip": "ym2612"
    },
    {
      "channel": 2,
      "note": 90,
      "start": 5.4919,
      "duration": 0.2478,
      "velocity": 78,
      "chip": "ym2612"
    },
    {
      "channel": 3,
      "note": 90,
      "start": 5.6905,
      "duration": 0.2481,
      "velocity": 78,
      "chip": "ym2612"
    },
    {
      "channel": 2,
      "note": 87,
      "start": 5.7563,
      "duration": 0.2481,
      "velocity": 78,
      "chip": "ym2612"
    },
    {
      "channel": 3,
      "note": 87,
      "start": 5.9554,
      "duration": 0.2479,
      "velocity": 78,
      "chip": "ym2612"
    },
    {
      "channel": 2,
      "note": 85,
      "start": 6.0212,
      "duration": 0.2481,
      "velocity": 78,
      "chip": "ym2612"
    },
    {
      "channel": 3,
      "note": 85,
      "start": 6.2201,
      "duration": 0.2482,
      "velocity": 78,
      "chip": "ym2612"
    },
    {
      "channel": 2,
      "note": 82,
      "start": 6.2861,
      "duration": 0.2481,
      "velocity": 78,
      "chip": "ym2612"
    },
    {
      "channel": 0,
      "note": 78,
      "start": 6.4841,
      "duration": 0.513,
      "velocity": 95,
      "chip": "ym2612"
    },
    {
      "channel": 3,
      "note": 82,
      "start": 6.4853,
      "duration": 0.2477,
      "velocity": 78,
      "chip": "ym2612"
    },
    {
      "channel": 2,
      "note": 78,
      "start": 6.5508,
      "duration": 0.2482,
      "velocity": 78,
      "chip": "ym2612"
    },
    {
      "channel": 4,
      "note": 82,
      "start": 6.6673,
      "duration": 0.5129,
      "velocity": 95,
      "chip": "ym2612"
    },
    {
      "channel": 3,
      "note": 78,
      "start": 6.7498,
      "duration": 0.2482,
      "velocity": 78,
      "chip": "ym2612"
    },
    {
      "channel": 2,
      "note": 75,
      "start": 6.8157,
      "duration": 0.248,
      "velocity": 78,
      "chip": "ym2612"
    },
    {
      "channel": 0,
      "note": 89,
      "start": 7.0139,
      "duration": 0.5129,
      "velocity": 95,
      "chip": "ym2612"
    },
    {
      "channel": 1,
      "note": 42,
      "start": 7.0144,
      "duration": 1.572,
      "velocity": 94,
      "chip": "ym2612"
    },
    {
      "channel": 3,
      "note": 75,
      "start": 7.0153,
      "duration": 0.2474,
      "velocity": 78,
      "chip": "ym2612"
    },
    {
      "channel": 2,
      "note": 54,
      "start": 7.0805,
      "duration": 0.2482,
      "velocity": 78,
      "chip": "ym2612"
    },
    {
      "channel": 4,
      "note": 78,
      "start": 7.197,
      "duration": 0.5129,
      "velocity": 95,
      "chip": "ym2612"
    },
    {
      "channel": 3,
      "note": 54,
      "start": 7.2794,
      "duration": 0.2482,
      "velocity": 78,
      "chip": "ym2612"
    },
    {
      "channel": 2,
      "note": 66,
      "start": 7.3454,
      "duration": 0.2481,
      "velocity": 78,
      "chip": "ym2612"
    },
    {
      "channel": 0,
      "note": 90,
      "start": 7.5435,
      "duration": 0.5129,
      "velocity": 95,
      "chip": "ym2612"
    },
    {
      "channel": 3,
      "note": 66,
      "start": 7.5446,
      "duration": 0.248,
      "velocity": 78,
      "chip": "ym2612"
    },
    {
      "channel": 2,
      "note": 73,
      "start": 7.6102,
      "duration": 0.2485,
      "velocity": 78,
      "chip": "ym2612"
    },
    {
      "channel": 4,
      "note": 89,
      "start": 7.7268,
      "duration": 0.5129,
      "velocity": 95,
      "chip": "ym2612"
    },
    {
      "channel": 3,
      "note": 73,
      "start": 7.8095,
      "duration": 0.2478,
      "velocity": 78,
      "chip": "ym2612"
    },
    {
      "channel": 2,
      "note": 78,
      "start": 7.8755,
      "duration": 0.2477,
      "velocity": 78,
      "chip": "ym2612"
    },
    {
      "channel": 0,
      "note": 85,
      "start": 8.0732,
      "duration": 0.5129,
      "velocity": 95,
      "chip": "ym2612"
    },
    {
      "channel": 3,
      "note": 78,
      "start": 8.0744,
      "duration": 0.2477,
      "velocity": 78,
      "chip": "ym2612"
    },
    {
      "channel": 2,
      "note": 82,
      "start": 8.1399,
      "duration": 0.2482,
      "velocity": 78,
      "chip": "ym2612"
    },
    {
      "channel": 4,
      "note": 90,
      "start": 8.2563,
      "duration": 0.5129,
      "velocity": 95,
      "chip": "ym2612"
    },
    {
      "channel": 3,
      "note": 82,
      "start": 8.3389,
      "duration": 0.2481,
      "velocity": 78,
      "chip": "ym2612"
    },
    {
      "channel": 2,
      "note": 85,
      "start": 8.4047,
      "duration": 0.2481,
      "velocity": 78,
      "chip": "ym2612"
    },
    {
      "channel": 0,
      "note": 85,
      "start": 8.6029,
      "duration": 0.2481,
      "velocity": 95,
      "chip": "ym2612"
    },
    {
      "channel": 1,
      "note": 47,
      "start": 8.6034,
      "duration": 1.0423,
      "velocity": 94,
      "chip": "ym2612"
    },
    {
      "channel": 3,
      "note": 85,
      "start": 8.6042,
      "duration": 0.2475,
      "velocity": 78,
      "chip": "ym2612"
    },
    {
      "channel": 2,
      "note": 59,
      "start": 8.6695,
      "duration": 0.2481,
      "velocity": 78,
      "chip": "ym2612"
    },
    {
      "channel": 4,
      "note": 85,
      "start": 8.786,
      "duration": 0.2481,
      "velocity": 95,
      "chip": "ym2612"
    },
    {
      "channel": 0,
      "note": 87,
      "start": 8.8677,
      "duration": 0.248,
      "velocity": 95,
      "chip": "ym2612"
    },
    {
      "channel": 3,
      "note": 59,
      "start": 8.8688,
      "duration": 0.2478,
      "velocity": 78,
      "chip": "ym2612"
    },
    {
      "channel": 2,
      "note": 66,
      "start": 8.9344,
      "duration": 0.2481,
      "velocity": 78,
      "chip": "ym2612"
    },
    {
      "channel": 4,
      "note": 85,
      "start": 9.0509,
      "duration": 0.248,
      "velocity": 95,
      "chip": "ym2612"
    },
    {
      "channel": 0,
      "note": 82,
      "start": 9.1326,
      "duration": 0.7777,
      "velocity": 95,
      "chip": "ym2612"
    },
    {
      "channel": 3,
      "note": 66,
      "start": 9.1337,
      "duration": 0.2477,
      "velocity": 78,
      "chip": "ym2612"
    },
    {
      "channel": 2,
      "note": 75,
      "start": 9.1993,
      "duration": 0.2481,
      "velocity": 78,
      "chip": "ym2612"
    },
    {
      "channel": 4,
      "note": 87,
      "start": 9.3158,
      "duration": 0.7777,
      "velocity": 95,
      "chip": "ym2612"
    },
    {
      "channel": 3,
      "note": 75,
      "start": 9.3982,
      "duration": 0.2482,
      "velocity": 78,
      "chip": "ym2612"
    },
    {
      "channel": 2,
      "note": 78,
      "start": 9.4641,
      "duration": 0.2481,
      "velocity": 78,
      "chip": "ym2612"
    },
    {
      "channel": 1,
      "note": 48,
      "start": 9.6624,
      "duration": 0.5132,
      "velocity": 94,
      "chip": "ym2612"
    },
    {
      "channel": 3,
      "note": 78,
      "start": 9.6634,
      "duration": 0.2478,
      "velocity": 78,
      "chip": "ym2612"
    },
    {
      "channel": 2,
      "note": 82,
      "start": 9.7289,
      "duration": 0.248,
      "velocity": 78,
      "chip": "ym2612"
    },
    {
      "channel": 0,
      "note": 78,
      "start": 9.9271,
      "duration": 0.2482,
      "velocity": 95,
      "chip": "ym2612"
    },
    {
      "channel": 3,
      "note": 82,
      "start": 9.9282,
      "duration": 0.248,
      "velocity": 78,
      "chip": "ym2612"
    },
    {
      "channel": 2,
      "note": 87,
      "start": 9.9938,
      "duration": 0.2485,
      "velocity": 78,
      "chip": "ym2612"
    },
    {
      "channel": 4,
      "note": 82,
      "start": 10.1103,
      "duration": 0.2484,
      "velocity": 95,
      "chip": "ym2612"
    },
    {
      "channel": 0,
      "note": 80,
      "start": 10.1922,
      "duration": 2.1017,
      "velocity": 95,
      "chip": "ym2612"
    },
    {
      "channel": 1,
      "note": 49,
      "start": 10.1927,
      "duration": 1.5718,
      "velocity": 94,
      "chip": "ym2612"
    },
    {
      "channel": 3,
      "note": 87,
      "start": 10.1936,
      "duration": 0.2471,
      "velocity": 78,
      "chip": "ym2612"
    },
    {
      "channel": 2,
      "note": 61,
      "start": 10.259,
      "duration": 0.2476,
      "velocity": 78,
      "chip": "ym2612"
    },
    {
      "channel": 4,
      "note": 78,
      "start": 10.3755,
      "duration": 2.1015,
      "velocity": 95,
      "chip": "ym2612"
    },
    {
      "channel": 3,
      "note": 61,
      "start": 10.4575,
      "duration": 0.2482,
      "velocity": 78,
      "chip": "ym2612"
    },
    {
      "channel": 2,
      "note": 66,
      "start": 10.5234,
      "duration": 0.2482,
      "velocity": 78,
      "chip": "ym2612"
    },
    {
      "channel": 3,
      "note": 66,
      "start": 10.7224,
      "duration": 0.248,
      "velocity": 78,
      "chip": "ym2612"
    },
    {
      "channel": 2,
      "note": 71,
      "start": 10.7883,
      "duration": 0.2481,
      "velocity": 78,
      "chip": "ym2612"
    },
    {
      "channel": 3,
      "note": 71,
      "start": 10.9873,
      "duration": 0.2482,
      "velocity": 78,
      "chip": "ym2612"
    },
    {
      "channel": 2,
      "note": 78,
      "start": 11.0531,
      "duration": 0.2482,
      "velocity": 78,
      "chip": "ym2612"
    },
    {
      "channel": 3,
      "note": 78,
      "start": 11.2522,
      "duration": 0.248,
      "velocity": 78,
      "chip": "ym2612"
    },
    {
      "channel": 2,
      "note": 83,
      "start": 11.318,
      "duration": 0.2482,
      "velocity": 78,
      "chip": "ym2612"
    },
    {
      "channel": 3,
      "note": 83,
      "start": 11.517,
      "duration": 0.2481,
      "velocity": 78,
      "chip": "ym2612"
    },
    {
      "channel": 2,
      "note": 87,
      "start": 11.5828,
      "duration": 0.2481,
      "velocity": 78,
      "chip": "ym2612"
    },
    {
      "channel": 1,
      "note": 37,
      "start": 11.7812,
      "duration": 1.5723,
      "velocity": 94,
      "chip": "ym2612"
    },
    {
      "channel": 3,
      "note": 87,
      "start": 11.782,
      "duration": 0.2477,
      "velocity": 78,
      "chip": "ym2612"
    },
    {
      "channel": 2,
      "note": 89,
      "start": 11.8476,
      "duration": 0.2481,
      "velocity": 78,
      "chip": "ym2612"
    },
    {
      "channel": 3,
      "note": 89,
      "start": 12.0466,
      "duration": 0.2481,
      "velocity": 78,
      "chip": "ym2612"
    },
    {
      "channel": 2,
      "note": 85,
      "start": 12.1124,
      "duration": 0.2482,
      "velocity": 78,
      "chip": "ym2612"
    },
    {
      "channel": 3,
      "note": 85,
      "start": 12.3116,
      "duration": 0.2479,
      "velocity": 78,
      "chip": "ym2612"
    },
    {
      "channel": 2,
      "note": 83,
      "start": 12.3773,
      "duration": 0.2483,
      "velocity": 78,
      "chip": "ym2612"
    },
    {
      "channel": 3,
      "note": 83,
      "start": 12.5763,
      "duration": 0.2482,
      "velocity": 78,
      "chip": "ym2612"
    },
    {
      "channel": 2,
      "note": 80,
      "start": 12.6426,
      "duration": 0.2476,
      "velocity": 78,
      "chip": "ym2612"
    },
    {
      "channel": 0,
      "note": 78,
      "start": 12.8403,
      "duration": 0.5129,
      "velocity": 95,
      "chip": "ym2612"
    },
    {
      "channel": 3,
      "note": 80,
      "start": 12.8418,
      "duration": 0.5124,
      "velocity": 78,
      "chip": "ym2612"
    },
    {
      "channel": 2,
      "note": 73,
      "start": 12.907,
      "duration": 0.5129,
      "velocity": 78,
      "chip": "ym2612"
    },
    {
      "channel": 4,
      "note": 80,
      "start": 13.0235,
      "duration": 0.5128,
      "velocity": 95,
      "chip": "ym2612"
    },
    {
      "channel": 0,
      "note": 89,
      "start": 13.37,
      "duration": 0.513,
      "velocity": 95,
      "chip": "ym2612"
    },
    {
      "channel": 1,
      "note": 42,
      "start": 13.3705,
      "duration": 1.5721,
      "velocity": 94,
      "chip": "ym2612"
    },
    {
      "channel": 3,
      "note": 73,
      "start": 13.3714,
      "duration": 0.2474,
      "velocity": 78,
      "chip": "ym2612"
    },
    {
      "channel": 2,
      "note": 54,
      "start": 13.4366,
      "duration": 0.2482,
      "velocity": 78,
      "chip": "ym2612"
    },
    {
      "channel": 4,
      "note": 78,
      "start": 13.5532,
      "duration": 0.5128,
      "velocity": 95,
      "chip": "ym2612"
    },
    {
      "channel": 3,
      "note": 54,
      "start": 13.6356,
      "duration": 0.2482,
      "velocity": 78,
      "chip": "ym2612"
    },
    {
      "channel": 2,
      "note": 66,
      "start": 13.7015,
      "duration": 0.2481,
      "velocity": 78,
      "chip": "ym2612"
    },
    {
      "channel": 0,
      "note": 90,
      "start": 13.8997,
      "duration": 0.5129,
      "velocity": 95,
      "chip": "ym2612"
    },
    {
      "channel": 3,
      "note": 66,
      "start": 13.9008,
      "duration": 0.2477,
      "velocity": 78,
      "chip": "ym2612"
    },
    {
      "channel": 2,
      "note": 73,
      "start": 13.9663,
      "duration": 0.2481,
      "velocity": 78,
      "chip": "ym2612"
    },
    {
      "channel": 4,
      "note": 89,
      "start": 14.0829,
      "duration": 0.5128,
      "velocity": 95,
      "chip": "ym2612"
    },
    {
      "channel": 3,
      "note": 73,
      "start": 14.1653,
      "duration": 0.2481,
      "velocity": 78,
      "chip": "ym2612"
    },
    {
      "channel": 2,
      "note": 78,
      "start": 14.2312,
      "duration": 0.2481,
      "velocity": 78,
      "chip": "ym2612"
    },
    {
      "channel": 0,
      "note": 85,
      "start": 14.4294,
      "duration": 0.5129,
      "velocity": 95,
      "chip": "ym2612"
    },
    {
      "channel": 3,
      "note": 78,
      "start": 14.4305,
      "duration": 0.2477,
      "velocity": 78,
      "chip": "ym2612"
    },
    {
      "channel": 2,
      "note": 82,
      "start": 14.4961,
      "duration": 0.2481,
      "velocity": 78,
      "chip": "ym2612"
    },
    {
      "channel": 4,
      "note": 90,
      "start": 14.6125,
      "duration": 0.5133,
      "velocity": 95,
      "chip": "ym2612"
    },
    {
      "channel": 3,
      "note": 82,
      "start": 14.695,
      "duration": 0.2481,
      "velocity": 78,
      "chip": "ym2612"
    },
    {
      "channel": 2,
      "note": 85,
      "start": 14.7609,
      "duration": 0.2482,
      "velocity": 78,
      "chip": "ym2612"
    },
    {
      "channel": 0,
      "note": 85,
      "start": 14.959,
      "duration": 0.2481,
      "velocity": 95,
      "chip": "ym2612"
    },
    {
      "channel": 1,
      "note": 47,
      "start": 14.9596,
      "duration": 1.572,
      "velocity": 94,
      "chip": "ym2612"
    },
    {
      "channel": 3,
      "note": 85,
      "start": 14.9604,
      "duration": 0.2476,
      "velocity": 78,
      "chip": "ym2612"
    },
    {
      "channel": 2,
      "note": 59,
      "start": 15.0259,
      "duration": 0.2478,
      "velocity": 78,
      "chip": "ym2612"
    },
    {
      "channel": 4,
      "note": 85,
      "start": 15.1427,
      "duration": 0.2476,
      "velocity": 95,
      "chip": "ym2612"
    },
    {
      "channel": 0,
      "note": 87,
      "start": 15.2239,
      "duration": 0.248,
      "velocity": 95,
      "chip": "ym2612"
    },
    {
      "channel": 3,
      "note": 59,
      "start": 15.2254,
      "duration": 0.2473,
      "velocity": 78,
      "chip": "ym2612"
    },
    {
      "channel": 2,
      "note": 66,
      "start": 15.2906,
      "duration": 0.2481,
      "velocity": 78,
      "chip": "ym2612"
    },
    {
      "channel": 4,
      "note": 85,
      "start": 15.4071,
      "duration": 0.248,
      "velocity": 95,
      "chip": "ym2612"
    },
    {
      "channel": 0,
      "note": 78,
      "start": 15.4887,
      "duration": 0.7777,
      "velocity": 95,
      "chip": "ym2612"
    },
    {
      "channel": 3,
      "note": 66,
      "start": 15.4898,
      "duration": 0.2477,
      "velocity": 78,
      "chip": "ym2612"
    },
    {
      "channel": 2,
      "note": 75,
      "start": 15.5554,
      "duration": 0.2481,
      "velocity": 78,
      "chip": "ym2612"
    },
    {
      "channel": 4,
      "note": 87,
      "start": 15.672,
      "duration": 0.7777,
      "velocity": 95,
      "chip": "ym2612"
    },
    {
      "channel": 3,
      "note": 75,
      "start": 15.7543,
      "duration": 0.2482,
      "velocity": 78,
      "chip": "ym2612"
    },
    {
      "channel": 2,
      "note": 78,
      "start": 15.8203,
      "duration": 0.2481,
      "velocity": 78,
      "chip": "ym2612"
    },
    {
      "channel": 3,
      "note": 78,
      "start": 16.0192,
      "duration": 0.2481,
      "velocity": 78,
      "chip": "ym2612"
    },
    {
      "channel": 2,
      "note": 82,
      "start": 16.0852,
      "duration": 0.2481,
      "velocity": 78,
      "chip": "ym2612"
    },
    {
      "channel": 0,
      "note": 80,
      "start": 16.2832,
      "duration": 0.2481,
      "velocity": 95,
      "chip": "ym2612"
    },
    {
      "channel": 3,
      "note": 82,
      "start": 16.2843,
      "duration": 0.2478,
      "velocity": 78,
      "chip": "ym2612"
    },
    {
      "channel": 2,
      "note": 87,
      "start": 16.3499,
      "duration": 0.2481,
      "velocity": 78,
      "chip": "ym2612"
    },
    {
      "channel": 4,
      "note": 78,
      "start": 16.4664,
      "duration": 0.248,
      "velocity": 95,
      "chip": "ym2612"
    },
    {
      "channel": 0,
      "note": 81,
      "start": 16.5481,
      "duration": 1.5723,
      "velocity": 95,
      "chip": "ym2612"
    },
    {
      "channel": 1,
      "note": 38,
      "start": 16.5486,
      "duration": 1.5721,
      "velocity": 94,
      "chip": "ym2612"
    },
    {
      "channel": 3,
      "note": 87,
      "start": 16.5495,
      "duration": 0.2474,
      "velocity": 78,
      "chip": "ym2612"
    },
    {
      "channel": 2,
      "note": 50,
      "start": 16.6147,
      "duration": 0.2481,
      "velocity": 78,
      "chip": "ym2612"
    },
    {
      "channel": 4,
      "note": 80,
      "start": 16.7312,
      "duration": 1.5723,
      "velocity": 95,
      "chip": "ym2612"
    },
    {
      "channel": 3,
      "note": 50,
      "start": 16.8137,
      "duration": 0.2481,
      "velocity": 78,
      "chip": "ym2612"
    },
    {
      "channel": 2,
      "note": 66,
      "start": 16.8796,
      "duration": 0.2482,
      "velocity": 78,
      "chip": "ym2612"
    },
    {
      "channel": 3,
      "note": 66,
      "start": 17.0785,
      "duration": 0.248,
      "velocity": 78,
      "chip": "ym2612"
    },
    {
      "channel": 2,
      "note": 74,
      "start": 17.1444,
      "duration": 0.2482,
      "velocity": 78,
      "chip": "ym2612"
    },
    {
      "channel": 3,
      "note": 74,
      "start": 17.3435,
      "duration": 0.2485,
      "velocity": 78,
      "chip": "ym2612"
    },
    {
      "channel": 2,
      "note": 78,
      "start": 17.4093,
      "duration": 0.2481,
      "velocity": 78,
      "chip": "ym2612"
    },
    {
      "channel": 3,
      "note": 78,
      "start": 17.6087,
      "duration": 0.2476,
      "velocity": 78,
      "chip": "ym2612"
    },
    {
      "channel": 2,
      "note": 81,
      "start": 17.6741,
      "duration": 0.2482,
      "velocity": 78,
      "chip": "ym2612"
    },
    {
      "channel": 3,
      "note": 81,
      "start": 17.8732,
      "duration": 0.2481,
      "velocity": 78,
      "chip": "ym2612"
    },
    {
      "channel": 2,
      "note": 86,
      "start": 17.939,
      "duration": 0.248,
      "velocity": 78,
      "chip": "ym2612"
    },
    {
      "channel": 0,
      "note": 80,
      "start": 18.1371,
      "duration": 1.5723,
      "velocity": 95,
      "chip": "ym2612"
    },
    {
      "channel": 1,
      "note": 40,
      "start": 18.1376,
      "duration": 1.5721,
      "velocity": 94,
      "chip": "ym2612"
    },
    {
      "channel": 3,
      "note": 86,
      "start": 18.1385,
      "duration": 0.2474,
      "velocity": 78,
      "chip": "ym2612"
    },
    {
      "channel": 2,
      "note": 52,
      "start": 18.2038,
      "duration": 0.2481,
      "velocity": 78,
      "chip": "ym2612"
    },
    {
      "channel": 4,
      "note": 81,
      "start": 18.3203,
      "duration": 1.5727,
      "velocity": 95,
      "chip": "ym2612"
    },
    {
      "channel": 3,
      "note": 52,
      "start": 18.4027,
      "duration": 0.2482,
      "velocity": 78,
      "chip": "ym2612"
    },
    {
      "channel": 2,
      "note": 68,
      "start": 18.4686,
      "duration": 0.2482,
      "velocity": 78,
      "chip": "ym2612"
    },
    {
      "channel": 3,
      "note": 68,
      "start": 18.6676,
      "duration": 0.248,
      "velocity": 78,
      "chip": "ym2612"
    },
    {
      "channel": 2,
      "note": 76,
      "start": 18.7336,
      "duration": 0.2481,
      "velocity": 78,
      "chip": "ym2612"
    },
    {
      "channel": 3,
      "note": 76,
      "start": 18.9325,
      "duration": 0.2481,
      "velocity": 78,
      "chip": "ym2612"
    },
    {
      "channel": 2,
      "note": 80,
      "start": 18.9984,
      "duration": 0.2481,
      "velocity": 78,
      "chip": "ym2612"
    },
    {
      "channel": 3,
      "note": 80,
      "start": 19.1973,
      "duration": 0.248,
      "velocity": 78,
      "chip": "ym2612"
    },
    {
      "channel": 2,
      "note": 83,
      "start": 19.2632,
      "duration": 0.2482,
      "velocity": 78,
      "chip": "ym2612"
    },
    {
      "channel": 3,
      "note": 83,
      "start": 19.4622,
      "duration": 0.2481,
      "velocity": 78,
      "chip": "ym2612"
    },
    {
      "channel": 2,
      "note": 88,
      "start": 19.528,
      "duration": 0.248,
      "velocity": 78,
      "chip": "ym2612"
    },
    {
      "channel": 0,
      "note": 78,
      "start": 19.7261,
      "duration": 0.2482,
      "velocity": 95,
      "chip": "ym2612"
    },
    {
      "channel": 1,
      "note": 39,
      "start": 19.7266,
      "duration": 1.572,
      "velocity": 94,
      "chip": "ym2612"
    },
    {
      "channel": 3,
      "note": 88,
      "start": 19.7275,
      "duration": 0.248,
      "velocity": 78,
      "chip": "ym2612"
    },
    {
      "channel": 2,
      "note": 51,
      "start": 19.7928,
      "duration": 0.2481,
      "velocity": 78,
      "chip": "ym2612"
    },
    {
      "channel": 4,
      "note": 80,
      "start": 19.9098,
      "duration": 0.2476,
      "velocity": 95,
      "chip": "ym2612"
    },
    {
      "channel": 0,
      "note": 80,
      "start": 19.991,
      "duration": 0.2481,
      "velocity": 95,
      "chip": "ym2612"
    },
    {
      "channel": 3,
      "note": 51,
      "start": 19.9925,
      "duration": 0.2474,
      "velocity": 78,
      "chip": "ym2612"
    },
    {
      "channel": 2,
      "note": 66,
      "start": 20.0576,
      "duration": 0.2482,
      "velocity": 78,
      "chip": "ym2612"
    },
    {
      "channel": 4,
      "note": 78,
      "start": 20.1741,
      "duration": 0.2481,
      "velocity": 95,
      "chip": "ym2612"
    },
    {
      "channel": 0,
      "note": 82,
      "start": 20.2559,
      "duration": 0.2481,
      "velocity": 95,
      "chip": "ym2612"
    },
    {
      "channel": 3,
      "note": 66,
      "start": 20.2569,
      "duration": 0.2478,
      "velocity": 78,
      "chip": "ym2612"
    },
    {
      "channel": 2,
      "note": 73,
      "start": 20.3226,
      "duration": 0.2481,
      "velocity": 78,
      "chip": "ym2612"
    },
    {
      "channel": 4,
      "note": 80,
      "start": 20.4391,
      "duration": 0.248,
      "velocity": 95,
      "chip": "ym2612"
    },
    {
      "channel": 0,
      "note": 83,
      "start": 20.5207,
      "duration": 0.2481,
      "velocity": 95,
      "chip": "ym2612"
    },
    {
      "channel": 3,
      "note": 73,
      "start": 20.5218,
      "duration": 0.2478,
      "velocity": 78,
      "chip": "ym2612"
    },
    {
      "channel": 2,
      "note": 78,
      "start": 20.5874,
      "duration": 0.2481,
      "velocity": 78,
      "chip": "ym2612"
    },
    {
      "channel": 4,
      "note": 82,
      "start": 20.7039,
      "duration": 0.248,
      "velocity": 95,
      "chip": "ym2612"
    },
    {
      "channel": 0,
      "note": 85,
      "start": 20.7856,
      "duration": 0.2481,
      "velocity": 95,
      "chip": "ym2612"
    },
    {
      "channel": 3,
      "note": 78,
      "start": 20.7867,
      "duration": 0.2477,
      "velocity": 78,
      "chip": "ym2612"
    },
    {
      "channel": 2,
      "note": 82,
      "start": 20.8522,
      "duration": 0.2481,
      "velocity": 78,
      "chip": "ym2612"
    },
    {
      "channel": 4,
      "note": 83,
      "start": 20.9688,
      "duration": 0.248,
      "velocity": 95,
      "chip": "ym2612"
    },
    {
      "channel": 0,
      "note": 87,
      "start": 21.0504,
      "duration": 0.248,
      "velocity": 95,
      "chip": "ym2612"
    },
    {
      "channel": 3,
      "note": 82,
      "start": 21.0515,
      "duration": 0.2478,
      "velocity": 78,
      "chip": "ym2612"
    },
    {
      "channel": 2,
      "note": 87,
      "start": 21.117,
      "duration": 0.248,
      "velocity": 78,
      "chip": "ym2612"
    },
    {
      "channel": 4,
      "note": 85,
      "start": 21.2335,
      "duration": 0.248,
      "velocity": 95,
      "chip": "ym2612"
    },
    {
      "channel": 0,
      "note": 81,
      "start": 21.3152,
      "duration": 0.5129,
      "velocity": 95,
      "chip": "ym2612"
    },
    {
      "channel": 1,
      "note": 38,
      "start": 21.3157,
      "duration": 0.5127,
      "velocity": 94,
      "chip": "ym2612"
    },
    {
      "channel": 3,
      "note": 87,
      "start": 21.3166,
      "duration": 0.5124,
      "velocity": 78,
      "chip": "ym2612"
    },
    {
      "channel": 2,
      "note": 62,
      "start": 21.3818,
      "duration": 0.513,
      "velocity": 78,
      "chip": "ym2612"
    },
    {
      "channel": 4,
      "note": 87,
      "start": 21.4984,
      "duration": 0.5128,
      "velocity": 95,
      "chip": "ym2612"
    },
    {
      "channel": 0,
      "note": 80,
      "start": 21.8449,
      "duration": 0.5129,
      "velocity": 95,
      "chip": "ym2612"
    },
    {
      "channel": 1,
      "note": 37,
      "start": 21.8454,
      "duration": 1.0423,
      "velocity": 94,
      "chip": "ym2612"
    },
    {
      "channel": 3,
      "note": 78,
      "start": 21.8463,
      "duration": 0.5128,
      "velocity": 78,
      "chip": "ym2612"
    },
    {
      "channel": 2,
      "note": 61,
      "start": 21.9115,
      "duration": 0.5132,
      "velocity": 78,
      "chip": "ym2612"
    },
    {
      "channel": 4,
      "note": 81,
      "start": 22.028,
      "duration": 0.5129,
      "velocity": 95,
      "chip": "ym2612"
    },
    {
      "channel": 0,
      "note": 77,
      "start": 22.6394,
      "duration": 0.2481,
      "velocity": 95,
      "chip": "ym2612"
    },
    {
      "channel": 4,
      "note": 80,
      "start": 22.8226,
      "duration": 0.248,
      "velocity": 95,
      "chip": "ym2612"
    },
    {
      "channel": 0,
      "note": 78,
      "start": 22.9042,
      "duration": 2.102,
      "velocity": 95,
      "chip": "ym2612"
    },
    {
      "channel": 1,
      "note": 42,
      "start": 22.9048,
      "duration": 1.5719,
      "velocity": 94,
      "chip": "ym2612"
    },
    {
      "channel": 3,
      "note": 80,
      "start": 22.9057,
      "duration": 0.2473,
      "velocity": 78,
      "chip": "ym2612"
    },
    {
      "channel": 2,
      "note": 54,
      "start": 22.9709,
      "duration": 0.2481,
      "velocity": 78,
      "chip": "ym2612"
    },
    {
      "channel": 4,
      "note": 77,
      "start": 23.0874,
      "duration": 2.1019,
      "velocity": 95,
      "chip": "ym2612"
    },
    {
      "channel": 3,
      "note": 54,
      "start": 23.1698,
      "duration": 0.2481,
      "velocity": 78,
      "chip": "ym2612"
    },
    {
      "channel": 2,
      "note": 66,
      "start": 23.2357,
      "duration": 0.2482,
      "velocity": 78,
      "chip": "ym2612"
    },
    {
      "channel": 3,
      "note": 66,
      "start": 23.4348,
      "duration": 0.248,
      "velocity": 78,
      "chip": "ym2612"
    },
    {
      "channel": 2,
      "note": 73,
      "start": 23.5006,
      "duration": 0.2481,
      "velocity": 78,
      "chip": "ym2612"
    },
    {
      "channel": 3,
      "note": 73,
      "start": 23.6996,
      "duration": 0.2481,
      "velocity": 78,
      "chip": "ym2612"
    },
    {
      "channel": 2,
      "note": 78,
      "start": 23.7655,
      "duration": 0.2481,
      "velocity": 78,
      "chip": "ym2612"
    },
    {
      "channel": 3,
      "note": 78,
      "start": 23.9644,
      "duration": 0.248,
      "velocity": 78,
      "chip": "ym2612"
    },
    {
      "channel": 2,
      "note": 82,
      "start": 24.0303,
      "duration": 0.2482,
      "velocity": 78,
      "chip": "ym2612"
    },
    {
      "channel": 3,
      "note": 82,
      "start": 24.2293,
      "duration": 0.2481,
      "velocity": 78,
      "chip": "ym2612"
    },
    {
      "channel": 2,
      "note": 85,
      "start": 24.2951,
      "duration": 0.2481,
      "velocity": 78,
      "chip": "ym2612"
    },
    {
      "channel": 3,
      "note": 85,
      "start": 24.4943,
      "duration": 0.2483,
      "velocity": 78,
      "chip": "ym2612"
    },
    {
      "channel": 2,
      "note": 59,
      "start": 24.56,
      "duration": 0.2485,
      "velocity": 78,
      "chip": "ym2612"
    },
    {
      "channel": 3,
      "note": 59,
      "start": 24.7593,
      "duration": 0.2478,
      "velocity": 78,
      "chip": "ym2612"
    },
    {
      "channel": 2,
      "note": 66,
      "start": 24.8253,
      "duration": 0.2476,
      "velocity": 78,
      "chip": "ym2612"
    },
    {
      "channel": 1,
      "note": 47,
      "start": 25.0233,
      "duration": 0.5129,
      "velocity": 94,
      "chip": "ym2612"
    },
    {
      "channel": 3,
      "note": 66,
      "start": 25.0241,
      "duration": 0.2477,
      "velocity": 78,
      "chip": "ym2612"
    },
    {
      "channel": 2,
      "note": 75,
      "start": 25.0895,
      "duration": 0.2482,
      "velocity": 78,
      "chip": "ym2612"
    },
    {
      "channel": 3,
      "note": 75,
      "start": 25.2886,
      "duration": 0.2482,
      "velocity": 78,
      "chip": "ym2612"
    },
    {
      "channel": 2,
      "note": 78,
      "start": 25.3544,
      "duration": 0.2481,
      "velocity": 78,
      "chip": "ym2612"
    },
    {
      "channel": 0,
      "note": 78,
      "start": 25.5527,
      "duration": 0.5129,
      "velocity": 95,
      "chip": "ym2612"
    },
    {
      "channel": 1,
      "note": 49,
      "start": 25.5532,
      "duration": 0.5127,
      "velocity": 94,
      "chip": "ym2612"
    },
    {
      "channel": 3,
      "note": 78,
      "start": 25.5541,
      "duration": 0.2474,
      "velocity": 78,
      "chip": "ym2612"
    },
    {
      "channel": 2,
      "note": 82,
      "start": 25.6193,
      "duration": 0.2481,
      "velocity": 78,
      "chip": "ym2612"
    },
    {
      "channel": 4,
      "note": 78,
      "start": 25.7358,
      "duration": 0.5129,
      "velocity": 95,
      "chip": "ym2612"
    },
    {
      "channel": 3,
      "note": 82,
      "start": 25.8183,
      "duration": 0.2481,
      "velocity": 78,
      "chip": "ym2612"
    },
    {
      "channel": 2,
      "note": 87,
      "start": 25.8841,
      "duration": 0.2481,
      "velocity": 78,
      "chip": "ym2612"
    },
    {
      "channel": 0,
      "note": 89,
      "start": 26.0825,
      "duration": 0.5127,
      "velocity": 95,
      "chip": "ym2612"
    },
    {
      "channel": 1,
      "note": 42,
      "start": 26.0831,
      "duration": 1.5717,
      "velocity": 94,
      "chip": "ym2612"
    },
    {
      "channel": 3,
      "note": 87,
      "start": 26.0865,
      "duration": 0.2446,
      "velocity": 78,
      "chip": "ym2612"
    },
    {
      "channel": 2,
      "note": 54,
      "start": 26.1507,
      "duration": 0.2463,
      "velocity": 78,
      "chip": "ym2612"
    },
    {
      "channel": 4,
      "note": 78,
      "start": 26.2656,
      "duration": 0.5128,
      "velocity": 95,
      "chip": "ym2612"
    },
    {
      "channel": 3,
      "note": 54,
      "start": 26.348,
      "duration": 0.2481,
      "velocity": 78,
      "chip": "ym2612"
    },
    {
      "channel": 2,
      "note": 66,
      "start": 26.4138,
      "duration": 0.2482,
      "velocity": 78,
      "chip": "ym2612"
    },
    {
      "channel": 0,
      "note": 90,
      "start": 26.612,
      "duration": 0.5132,
      "velocity": 95,
      "chip": "ym2612"
    },
    {
      "channel": 3,
      "note": 66,
      "start": 26.6132,
      "duration": 0.2476,
      "velocity": 78,
      "chip": "ym2612"
    },
    {
      "channel": 2,
      "note": 73,
      "start": 26.6787,
      "duration": 0.2481,
      "velocity": 78,
      "chip": "ym2612"
    },
    {
      "channel": 4,
      "note": 89,
      "start": 26.7952,
      "duration": 0.5133,
      "velocity": 95,
      "chip": "ym2612"
    },
    {
      "channel": 3,
      "note": 73,
      "start": 26.8776,
      "duration": 0.2485,
      "velocity": 78,
      "chip": "ym2612"
    },
    {
      "channel": 2,
      "note": 78,
      "start": 26.9436,
      "duration": 0.2485,
      "velocity": 78,
      "chip": "ym2612"
    },
    {
      "channel": 0,
      "note": 85,
      "start": 27.1421,
      "duration": 0.5125,
      "velocity": 95,
      "chip": "ym2612"
    },
    {
      "channel": 3,
      "note": 78,
      "start": 27.1432,
      "duration": 0.2473,
      "velocity": 78,
      "chip": "ym2612"
    },
    {
      "channel": 2,
      "note": 82,
      "start": 27.2088,
      "duration": 0.2477,
      "velocity": 78,
      "chip": "ym2612"
    },
    {
      "channel": 4,
      "note": 90,
      "start": 27.3253,
      "duration": 0.5124,
      "velocity": 95,
      "chip": "ym2612"
    },
    {
      "channel": 3,
      "note": 82,
      "start": 27.4074,
      "duration": 0.2481,
      "velocity": 78,
      "chip": "ym2612"
    },
    {
      "channel": 2,
      "note": 85,
      "start": 27.4732,
      "duration": 0.248,
      "velocity": 78,
      "chip": "ym2612"
    },
    {
      "channel": 0,
      "note": 85,
      "start": 27.6714,
      "duration": 0.248,
      "velocity": 95,
      "chip": "ym2612"
    },
    {
      "channel": 1,
      "note": 47,
      "start": 27.6719,
      "duration": 1.5721,
      "velocity": 94,
      "chip": "ym2612"
    },
    {
      "channel": 3,
      "note": 85,
      "start": 27.6728,
      "duration": 0.2474,
      "velocity": 78,
      "chip": "ym2612"
    },
    {
      "channel": 2,
      "note": 59,
      "start": 27.738,
      "duration": 0.2481,
      "velocity": 78,
      "chip": "ym2612"
    },
    {
      "channel": 4,
      "note": 85,
      "start": 27.8545,
      "duration": 0.2481,
      "velocity": 95,
      "chip": "ym2612"
    },
    {
      "channel": 0,
      "note": 87,
      "start": 27.9362,
      "duration": 0.2481,
      "velocity": 95,
      "chip": "ym2612"
    },
    {
      "channel": 3,
      "note": 59,
      "start": 27.9373,
      "duration": 0.2478,
      "velocity": 78,
      "chip": "ym2612"
    },
    {
      "channel": 2,
      "note": 66,
      "start": 28.0029,
      "duration": 0.2481,
      "velocity": 78,
      "chip": "ym2612"
    },
    {
      "channel": 4,
      "note": 85,
      "start": 28.1194,
      "duration": 0.248,
      "velocity": 95,
      "chip": "ym2612"
    },
    {
      "channel": 0,
      "note": 78,
      "start": 28.201,
      "duration": 0.7778,
      "velocity": 95,
      "chip": "ym2612"
    },
    {
      "channel": 3,
      "note": 66,
      "start": 28.2022,
      "duration": 0.2477,
      "velocity": 78,
      "chip": "ym2612"
    },
    {
      "channel": 2,
      "note": 75,
      "start": 28.2677,
      "duration": 0.2481,
      "velocity": 78,
      "chip": "ym2612"
    },
    {
      "channel": 4,
      "note": 87,
      "start": 28.3843,
      "duration": 0.7777,
      "velocity": 95,
      "chip": "ym2612"
    },
    {
      "channel": 3,
      "note": 75,
      "start": 28.4666,
      "duration": 0.2482,
      "velocity": 78,
      "chip": "ym2612"
    },
    {
      "channel": 2,
      "note": 78,
      "start": 28.5326,
      "duration": 0.2481,
      "velocity": 78,
      "chip": "ym2612"
    },
    {
      "channel": 3,
      "note": 78,
      "start": 28.7315,
      "duration": 0.2481,
      "velocity": 78,
      "chip": "ym2612"
    },
    {
      "channel": 2,
      "note": 82,
      "start": 28.7974,
      "duration": 0.2481,
      "velocity": 78,
      "chip": "ym2612"
    },
    {
      "channel": 0,
      "note": 80,
      "start": 28.9955,
      "duration": 0.2482,
      "velocity": 95,
      "chip": "ym2612"
    },
    {
      "channel": 3,
      "note": 82,
      "start": 28.9967,
      "duration": 0.2478,
      "velocity": 78,
      "chip": "ym2612"
    },
    {
      "channel": 2,
      "note": 87,
      "start": 29.0622,
      "duration": 0.2481,
      "velocity": 78,
      "chip": "ym2612"
    },
    {
      "channel": 4,
      "note": 78,
      "start": 29.1787,
      "duration": 0.248,
      "velocity": 95,
      "chip": "ym2612"
    },
    {
      "channel": 0,
      "note": 80,
      "start": 29.2604,
      "duration": 0.2483,
      "velocity": 95,
      "chip": "ym2612"
    },
    {
      "channel": 1,
      "note": 42,
      "start": 29.2609,
      "duration": 1.5721,
      "velocity": 94,
      "chip": "ym2612"
    },
    {
      "channel": 3,
      "note": 87,
      "start": 29.2617,
      "duration": 0.2477,
      "velocity": 78,
      "chip": "ym2612"
    },
    {
      "channel": 2,
      "note": 54,
      "start": 29.327,
      "duration": 0.2485,
      "velocity": 78,
      "chip": "ym2612"
    },
    {
      "channel": 4,
      "note": 80,
      "start": 29.4435,
      "duration": 0.2486,
      "velocity": 95,
      "chip": "ym2612"
    },
    {
      "channel": 0,
      "note": 82,
      "start": 29.5255,
      "duration": 0.2478,
      "velocity": 95,
      "chip": "ym2612"
    },
    {
      "channel": 3,
      "note": 54,
      "start": 29.5266,
      "duration": 0.2475,
      "velocity": 78,
      "chip": "ym2612"
    },
    {
      "channel": 2,
      "note": 66,
      "start": 29.5924,
      "duration": 0.2476,
      "velocity": 78,
      "chip": "ym2612"
    },
    {
      "channel": 4,
      "note": 80,
      "start": 29.7089,
      "duration": 0.2476,
      "velocity": 95,
      "chip": "ym2612"
    },
    {
      "channel": 0,
      "note": 82,
      "start": 29.7901,
      "duration": 1.5723,
      "velocity": 95,
      "chip": "ym2612"
    },
    {
      "channel": 3,
      "note": 66,
      "start": 29.7914,
      "duration": 0.2475,
      "velocity": 78,
      "chip": "ym2612"
    },
    {
      "channel": 2,
      "note": 73,
      "start": 29.8568,
      "duration": 0.2481,
      "velocity": 78,
      "chip": "ym2612"
    },
    {
      "channel": 4,
      "note": 82,
      "start": 29.9733,
      "duration": 1.5721,
      "velocity": 95,
      "chip": "ym2612"
    },
    {
      "channel": 3,
      "note": 73,
      "start": 30.0558,
      "duration": 0.2481,
      "velocity": 78,
      "chip": "ym2612"
    },
    {
      "channel": 2,
      "note": 78,
      "start": 30.1216,
      "duration": 0.2482,
      "velocity": 78,
      "chip": "ym2612"
    },
    {
      "channel": 3,
      "note": 78,
      "start": 30.3206,
      "duration": 0.2481,
      "velocity": 78,
      "chip": "ym2612"
    },
    {
      "channel": 2,
      "note": 82,
      "start": 30.3865,
      "duration": 0.2481,
      "velocity": 78,
      "chip": "ym2612"
    },
    {
      "channel": 3,
      "note": 82,
      "start": 30.5854,
      "duration": 0.2482,
      "velocity": 78,
      "chip": "ym2612"
    },
    {
      "channel": 2,
      "note": 85,
      "start": 30.6513,
      "duration": 0.2481,
      "velocity": 78,
      "chip": "ym2612"
    },
    {
      "channel": 1,
      "note": 47,
      "start": 30.8497,
      "duration": 1.5723,
      "velocity": 94,
      "chip": "ym2612"
    },
    {
      "channel": 3,
      "note": 85,
      "start": 30.8506,
      "duration": 0.2477,
      "velocity": 78,
      "chip": "ym2612"
    },
    {
      "channel": 2,
      "note": 90,
      "start": 30.9161,
      "duration": 0.2482,
      "velocity": 78,
      "chip": "ym2612"
    },
    {
      "channel": 3,
      "note": 90,
      "start": 31.1151,
      "duration": 0.248,
      "velocity": 78,
      "chip": "ym2612"
    },
    {
      "channel": 2,
      "note": 87,
      "start": 31.181,
      "duration": 0.2481,
      "velocity": 78,
      "chip": "ym2612"
    },
    {
      "channel": 3,
      "note": 87,
      "start": 31.3801,
      "duration": 0.2479,
      "velocity": 78,
      "chip": "ym2612"
    },
    {
      "channel": 2,
      "note": 85,
      "start": 31.4458,
      "duration": 0.2481,
      "velocity": 78,
      "chip": "ym2612"
    },
    {
      "channel": 3,
      "note": 85,
      "start": 31.6448,
      "duration": 0.2482,
      "velocity": 78,
      "chip": "ym2612"
    },
    {
      "channel": 2,
      "note": 82,
      "start": 31.7107,
      "duration": 0.2484,
      "velocity": 78,
      "chip": "ym2612"
    },
    {
      "channel": 0,
      "note": 78,
      "start": 31.9088,
      "duration": 0.5129,
      "velocity": 95,
      "chip": "ym2612"
    },
    {
      "channel": 3,
      "note": 82,
      "start": 31.91,
      "duration": 0.2476,
      "velocity": 78,
      "chip": "ym2612"
    },
    {
      "channel": 2,
      "note": 78,
      "start": 31.9759,
      "duration": 0.2478,
      "velocity": 78,
      "chip": "ym2612"
    },
    {
      "channel": 4,
      "note": 82,
      "start": 32.0924,
      "duration": 0.5124,
      "velocity": 95,
      "chip": "ym2612"
    },
    {
      "channel": 3,
      "note": 78,
      "start": 32.1745,
      "duration": 0.2481,
      "velocity": 78,
      "chip": "ym2612"
    },
    {
      "channel": 2,
      "note": 75,
      "start": 32.2403,
      "duration": 0.2481,
      "velocity": 78,
      "chip": "ym2612"
    },
    {
      "channel": 0,
      "note": 89,
      "start": 32.4385,
      "duration": 0.513,
      "velocity": 95,
      "chip": "ym2612"
    },
    {
      "channel": 1,
      "note": 42,
      "start": 32.439,
      "duration": 1.5721,
      "velocity": 94,
      "chip": "ym2612"
    },
    {
      "channel": 3,
      "note": 75,
      "start": 32.4399,
      "duration": 0.2474,
      "velocity": 78,
      "chip": "ym2612"
    },
    {
      "channel": 2,
      "note": 54,
      "start": 32.5051,
      "duration": 0.2482,
      "velocity": 78,
      "chip": "ym2612"
    },
    {
      "channel": 4,
      "note": 78,
      "start": 32.6217,
      "duration": 0.5129,
      "velocity": 95,
      "chip": "ym2612"
    },
    {
      "channel": 3,
      "note": 54,
      "start": 32.7041,
      "duration": 0.2481,
      "velocity": 78,
      "chip": "ym2612"
    },
    {
      "channel": 2,
      "note": 66,
      "start": 32.77,
      "duration": 0.2482,
      "velocity": 78,
      "chip": "ym2612"
    },
    {
      "channel": 0,
      "note": 90,
      "start": 32.9682,
      "duration": 0.5128,
      "velocity": 95,
      "chip": "ym2612"
    },
    {
      "channel": 3,
      "note": 66,
      "start": 32.9693,
      "duration": 0.2476,
      "velocity": 78,
      "chip": "ym2612"
    },
    {
      "channel": 2,
      "note": 73,
      "start": 33.0349,
      "duration": 0.2481,
      "velocity": 78,
      "chip": "ym2612"
    },
    {
      "channel": 4,
      "note": 89,
      "start": 33.1514,
      "duration": 0.5129,
      "velocity": 95,
      "chip": "ym2612"
    },
    {
      "channel": 3,
      "note": 73,
      "start": 33.2338,
      "duration": 0.2482,
      "velocity": 78,
      "chip": "ym2612"
    },
    {
      "channel": 2,
      "note": 78,
      "start": 33.2997,
      "duration": 0.2481,
      "velocity": 78,
      "chip": "ym2612"
    },
    {
      "channel": 0,
      "note": 85,
      "start": 33.4978,
      "duration": 0.513,
      "velocity": 95,
      "chip": "ym2612"
    },
    {
      "channel": 3,
      "note": 78,
      "start": 33.499,
      "duration": 0.2477,
      "velocity": 78,
      "chip": "ym2612"
    },
    {
      "channel": 2,
      "note": 82,
      "start": 33.5645,
      "duration": 0.2482,
      "velocity": 78,
      "chip": "ym2612"
    },
    {
      "channel": 4,
      "note": 90,
      "start": 33.681,
      "duration": 0.5129,
      "velocity": 95,
      "chip": "ym2612"
    },
    {
      "channel": 3,
      "note": 82,
      "start": 33.7635,
      "duration": 0.2482,
      "velocity": 78,
      "chip": "ym2612"
    },
    {
      "channel": 2,
      "note": 85,
      "start": 33.8294,
      "duration": 0.248,
      "velocity": 78,
      "chip": "ym2612"
    },
    {
      "channel": 0,
      "note": 85,
      "start": 34.0275,
      "duration": 0.248,
      "velocity": 95,
      "chip": "ym2612"
    },
    {
      "channel": 1,
      "note": 47,
      "start": 34.028,
      "duration": 1.0424,
      "velocity": 94,
      "chip": "ym2612"
    },
    {
      "channel": 3,
      "note": 85,
      "start": 34.0289,
      "duration": 0.2474,
      "velocity": 78,
      "chip": "ym2612"
    },
    {
      "channel": 2,
      "note": 59,
      "start": 34.0941,
      "duration": 0.2483,
      "velocity": 78,
      "chip": "ym2612"
    },
    {
      "channel": 4,
      "note": 85,
      "start": 34.2107,
      "duration": 0.2485,
      "velocity": 95,
      "chip": "ym2612"
    },
    {
      "channel": 0,
      "note": 87,
      "start": 34.2924,
      "duration": 0.2481,
      "velocity": 95,
      "chip": "ym2612"
    },
    {
      "channel": 3,
      "note": 59,
      "start": 34.2934,
      "duration": 0.248,
      "velocity": 78,
      "chip": "ym2612"
    },
    {
      "channel": 2,
      "note": 66,
      "start": 34.3592,
      "duration": 0.2479,
      "velocity": 78,
      "chip": "ym2612"
    },
    {
      "channel": 4,
      "note": 85,
      "start": 34.476,
      "duration": 0.2476,
      "velocity": 95,
      "chip": "ym2612"
    },
    {
      "channel": 0,
      "note": 82,
      "start": 34.5572,
      "duration": 0.7777,
      "velocity": 95,
      "chip": "ym2612"
    },
    {
      "channel": 3,
      "note": 66,
      "start": 34.5588,
      "duration": 0.2473,
      "velocity": 78,
      "chip": "ym2612"
    },
    {
      "channel": 2,
      "note": 75,
      "start": 34.6239,
      "duration": 0.2481,
      "velocity": 78,
      "chip": "ym2612"
    },
    {
      "channel": 4,
      "note": 87,
      "start": 34.7405,
      "duration": 0.7776,
      "velocity": 95,
      "chip": "ym2612"
    },
    {
      "channel": 3,
      "note": 75,
      "start": 34.8228,
      "duration": 0.2482,
      "velocity": 78,
      "chip": "ym2612"
    },
    {
      "channel": 2,
      "note": 78,
      "start": 34.8887,
      "duration": 0.2481,
      "velocity": 78,
      "chip": "ym2612"
    },
    {
      "channel": 1,
      "note": 48,
      "start": 35.0871,
      "duration": 0.513,
      "velocity": 94,
      "chip": "ym2612"
    },
    {
      "channel": 3,
      "note": 78,
      "start": 35.088,
      "duration": 0.2478,
      "velocity": 78,
      "chip": "ym2612"
    },
    {
      "channel": 2,
      "note": 82,
      "start": 35.1536,
      "duration": 0.2481,
      "velocity": 78,
      "chip": "ym2612"
    },
    {
      "channel": 0,
      "note": 78,
      "start": 35.3517,
      "duration": 0.2481,
      "velocity": 95,
      "chip": "ym2612"
    },
    {
      "channel": 3,
      "note": 82,
      "start": 35.3528,
      "duration": 0.2479,
      "velocity": 78,
      "chip": "ym2612"
    },
    {
      "channel": 2,
      "note": 87,
      "start": 35.4184,
      "duration": 0.2481,
      "velocity": 78,
      "chip": "ym2612"
    },
    {
      "channel": 4,
      "note": 82,
      "start": 35.5349,
      "duration": 0.248,
      "velocity": 95,
      "chip": "ym2612"
    },
    {
      "channel": 0,
      "note": 80,
      "start": 35.6165,
      "duration": 2.102,
      "velocity": 95,
      "chip": "ym2612"
    },
    {
      "channel": 1,
      "note": 49,
      "start": 35.617,
      "duration": 1.5721,
      "velocity": 94,
      "chip": "ym2612"
    },
    {
      "channel": 3,
      "note": 87,
      "start": 35.6179,
      "duration": 0.2474,
      "velocity": 78,
      "chip": "ym2612"
    },
    {
      "channel": 2,
      "note": 61,
      "start": 35.6832,
      "duration": 0.2481,
      "velocity": 78,
      "chip": "ym2612"
    },
    {
      "channel": 4,
      "note": 78,
      "start": 35.7997,
      "duration": 2.102,
      "velocity": 95,
      "chip": "ym2612"
    },
    {
      "channel": 3,
      "note": 61,
      "start": 35.8822,
      "duration": 0.2482,
      "velocity": 78,
      "chip": "ym2612"
    },
    {
      "channel": 2,
      "note": 66,
      "start": 35.9481,
      "duration": 0.2482,
      "velocity": 78,
      "chip": "ym2612"
    },
    {
      "channel": 3,
      "note": 66,
      "start": 36.1471,
      "duration": 0.248,
      "velocity": 78,
      "chip": "ym2612"
    },
    {
      "channel": 2,
      "note": 71,
      "start": 36.213,
      "duration": 0.2481,
      "velocity": 78,
      "chip": "ym2612"
    },
    {
      "channel": 3,
      "note": 71,
      "start": 36.412,
      "duration": 0.2481,
      "velocity": 78,
      "chip": "ym2612"
    },
    {
      "channel": 2,
      "note": 78,
      "start": 36.4778,
      "duration": 0.2481,
      "velocity": 78,
      "chip": "ym2612"
    },
    {
      "channel": 3,
      "note": 78,
      "start": 36.6768,
      "duration": 0.2484,
      "velocity": 78,
      "chip": "ym2612"
    },
    {
      "channel": 2,
      "note": 83,
      "start": 36.7427,
      "duration": 0.2481,
      "velocity": 78,
      "chip": "ym2612"
    },
    {
      "channel": 3,
      "note": 83,
      "start": 36.942,
      "duration": 0.2476,
      "velocity": 78,
      "chip": "ym2612"
    },
    {
      "channel": 2,
      "note": 87,
      "start": 37.0075,
      "duration": 0.248,
      "velocity": 78,
      "chip": "ym2612"
    },
    {
      "channel": 1,
      "note": 37,
      "start": 37.2059,
      "duration": 1.5723,
      "velocity": 94,
      "chip": "ym2612"
    },
    {
      "channel": 3,
      "note": 87,
      "start": 37.2067,
      "duration": 0.2477,
      "velocity": 78,
      "chip": "ym2612"
    },
    {
      "channel": 2,
      "note": 89,
      "start": 37.2722,
      "duration": 0.2482,
      "velocity": 78,
      "chip": "ym2612"
    },
    {
      "channel": 3,
      "note": 89,
      "start": 37.4712,
      "duration": 0.2482,
      "velocity": 78,
      "chip": "ym2612"
    },
    {
      "channel": 2,
      "note": 85,
      "start": 37.5371,
      "duration": 0.2481,
      "velocity": 78,
      "chip": "ym2612"
    },
    {
      "channel": 3,
      "note": 85,
      "start": 37.7362,
      "duration": 0.2479,
      "velocity": 78,
      "chip": "ym2612"
    },
    {
      "channel": 2,
      "note": 83,
      "start": 37.802,
      "duration": 0.2481,
      "velocity": 78,
      "chip": "ym2612"
    },
    {
      "channel": 3,
      "note": 83,
      "start": 38.001,
      "duration": 0.2481,
      "velocity": 78,
      "chip": "ym2612"
    },
    {
      "channel": 2,
      "note": 80,
      "start": 38.0668,
      "duration": 0.248,
      "velocity": 78,
      "chip": "ym2612"
    },
    {
      "channel": 0,
      "note": 78,
      "start": 38.265,
      "duration": 0.5128,
      "velocity": 95,
      "chip": "ym2612"
    },
    {
      "channel": 3,
      "note": 80,
      "start": 38.2661,
      "duration": 0.5127,
      "velocity": 78,
      "chip": "ym2612"
    },
    {
      "channel": 2,
      "note": 73,
      "start": 38.3317,
      "duration": 0.5129,
      "velocity": 78,
      "chip": "ym2612"
    },
    {
      "channel": 4,
      "note": 80,
      "start": 38.4481,
      "duration": 0.5129,
      "velocity": 95,
      "chip": "ym2612"
    },
    {
      "channel": 0,
      "note": 89,
      "start": 38.7946,
      "duration": 0.5129,
      "velocity": 95,
      "chip": "ym2612"
    },
    {
      "channel": 1,
      "note": 42,
      "start": 38.7952,
      "duration": 1.572,
      "velocity": 94,
      "chip": "ym2612"
    },
    {
      "channel": 3,
      "note": 73,
      "start": 38.7961,
      "duration": 0.2473,
      "velocity": 78,
      "chip": "ym2612"
    },
    {
      "channel": 2,
      "note": 54,
      "start": 38.8613,
      "duration": 0.2481,
      "velocity": 78,
      "chip": "ym2612"
    },
    {
      "channel": 4,
      "note": 78,
      "start": 38.9778,
      "duration": 0.5129,
      "velocity": 95,
      "chip": "ym2612"
    },
    {
      "channel": 3,
      "note": 54,
      "start": 39.0602,
      "duration": 0.2486,
      "velocity": 78,
      "chip": "ym2612"
    },
    {
      "channel": 2,
      "note": 66,
      "start": 39.1261,
      "duration": 0.2482,
      "velocity": 78,
      "chip": "ym2612"
    },
    {
      "channel": 0,
      "note": 90,
      "start": 39.3243,
      "duration": 0.513,
      "velocity": 95,
      "chip": "ym2612"
    },
    {
      "channel": 3,
      "note": 66,
      "start": 39.3259,
      "duration": 0.2473,
      "velocity": 78,
      "chip": "ym2612"
    },
    {
      "channel": 2,
      "note": 73,
      "start": 39.391,
      "duration": 0.2481,
      "velocity": 78,
      "chip": "ym2612"
    },
    {
      "channel": 4,
      "note": 89,
      "start": 39.5076,
      "duration": 0.5129,
      "velocity": 95,
      "chip": "ym2612"
    },
    {
      "channel": 3,
      "note": 73,
      "start": 39.5899,
      "duration": 0.2482,
      "velocity": 78,
      "chip": "ym2612"
    },
    {
      "channel": 2,
      "note": 78,
      "start": 39.6559,
      "duration": 0.2481,
      "velocity": 78,
      "chip": "ym2612"
    },
    {
      "channel": 0,
      "note": 85,
      "start": 39.854,
      "duration": 0.513,
      "velocity": 95,
      "chip": "ym2612"
    },
    {
      "channel": 3,
      "note": 78,
      "start": 39.8551,
      "duration": 0.2477,
      "velocity": 78,
      "chip": "ym2612"
    },
    {
      "channel": 2,
      "note": 82,
      "start": 39.9207,
      "duration": 0.2482,
      "velocity": 78,
      "chip": "ym2612"
    },
    {
      "channel": 4,
      "note": 90,
      "start": 40.0372,
      "duration": 0.5128,
      "velocity": 95,
      "chip": "ym2612"
    },
    {
      "channel": 3,
      "note": 82,
      "start": 40.1196,
      "duration": 0.2482,
      "velocity": 78,
      "chip": "ym2612"
    },
    {
      "channel": 2,
      "note": 85,
      "start": 40.1855,
      "duration": 0.2481,
      "velocity": 78,
      "chip": "ym2612"
    },
    {
      "channel": 0,
      "note": 85,
      "start": 40.3837,
      "duration": 0.248,
      "velocity": 95,
      "chip": "ym2612"
    },
    {
      "channel": 1,
      "note": 47,
      "start": 40.3842,
      "duration": 1.572,
      "velocity": 94,
      "chip": "ym2612"
    },
    {
      "channel": 3,
      "note": 85,
      "start": 40.3851,
      "duration": 0.2474,
      "velocity": 78,
      "chip": "ym2612"
    },
    {
      "channel": 2,
      "note": 59,
      "start": 40.4503,
      "duration": 0.2481,
      "velocity": 78,
      "chip": "ym2612"
    },
    {
      "channel": 4,
      "note": 85,
      "start": 40.5668,
      "duration": 0.2481,
      "velocity": 95,
      "chip": "ym2612"
    },
    {
      "channel": 0,
      "note": 87,
      "start": 40.6485,
      "duration": 0.248,
      "velocity": 95,
      "chip": "ym2612"
    },
    {
      "channel": 3,
      "note": 59,
      "start": 40.6496,
      "duration": 0.2478,
      "velocity": 78,
      "chip": "ym2612"
    },
    {
      "channel": 2,
      "note": 66,
      "start": 40.7152,
      "duration": 0.2481,
      "velocity": 78,
      "chip": "ym2612"
    },
    {
      "channel": 4,
      "note": 85,
      "start": 40.8317,
      "duration": 0.248,
      "velocity": 95,
      "chip": "ym2612"
    },
    {
      "channel": 0,
      "note": 78,
      "start": 40.9134,
      "duration": 0.7777,
      "velocity": 95,
      "chip": "ym2612"
    },
    {
      "channel": 3,
      "note": 66,
      "start": 40.9145,
      "duration": 0.2477,
      "velocity": 78,
      "chip": "ym2612"
    },
    {
      "channel": 2,
      "note": 75,
      "start": 40.9801,
      "duration": 0.2481,
      "velocity": 78,
      "chip": "ym2612"
    },
    {
      "channel": 4,
      "note": 87,
      "start": 41.0966,
      "duration": 0.7777,
      "velocity": 95,
      "chip": "ym2612"
    },
    {
      "channel": 3,
      "note": 75,
      "start": 41.179,
      "duration": 0.2481,
      "velocity": 78,
      "chip": "ym2612"
    },
    {
      "channel": 2,
      "note": 78,
      "start": 41.2449,
      "duration": 0.2482,
      "velocity": 78,
      "chip": "ym2612"
    },
    {
      "channel": 3,
      "note": 78,
      "start": 41.4439,
      "duration": 0.2485,
      "velocity": 78,
      "chip": "ym2612"
    },
    {
      "channel": 2,
      "note": 82,
      "start": 41.5098,
      "duration": 0.2483,
      "velocity": 78,
      "chip": "ym2612"
    },
    {
      "channel": 0,
      "note": 80,
      "start": 41.7081,
      "duration": 0.2478,
      "velocity": 95,
      "chip": "ym2612"
    },
    {
      "channel": 3,
      "note": 82,
      "start": 41.7094,
      "duration": 0.2474,
      "velocity": 78,
      "chip": "ym2612"
    },
    {
      "channel": 2,
      "note": 87,
      "start": 41.7751,
      "duration": 0.2476,
      "velocity": 78,
      "chip": "ym2612"
    },
    {
      "channel": 4,
      "note": 78,
      "start": 41.8911,
      "duration": 0.248,
      "velocity": 95,
      "chip": "ym2612"
    },
    {
      "channel": 0,
      "note": 81,
      "start": 41.9727,
      "duration": 1.5723,
      "velocity": 95,
      "chip": "ym2612"
    },
    {
      "channel": 1,
      "note": 38,
      "start": 41.9732,
      "duration": 1.5721,
      "velocity": 94,
      "chip": "ym2612"
    },
    {
      "channel": 3,
      "note": 87,
      "start": 41.9741,
      "duration": 0.2474,
      "velocity": 78,
      "chip": "ym2612"
    },
    {
      "channel": 2,
      "note": 50,
      "start": 42.0394,
      "duration": 0.2482,
      "velocity": 78,
      "chip": "ym2612"
    },
    {
      "channel": 4,
      "note": 80,
      "start": 42.1559,
      "duration": 1.5722,
      "velocity": 95,
      "chip": "ym2612"
    },
    {
      "channel": 3,
      "note": 50,
      "start": 42.2383,
      "duration": 0.2481,
      "velocity": 78,
      "chip": "ym2612"
    },
    {
      "channel": 2,
      "note": 66,
      "start": 42.3042,
      "duration": 0.2481,
      "velocity": 78,
      "chip": "ym2612"
    },
    {
      "channel": 3,
      "note": 66,
      "start": 42.5032,
      "duration": 0.248,
      "velocity": 78,
      "chip": "ym2612"
    },
    {
      "channel": 2,
      "note": 74,
      "start": 42.5691,
      "duration": 0.2481,
      "velocity": 78,
      "chip": "ym2612"
    },
    {
      "channel": 3,
      "note": 74,
      "start": 42.7681,
      "duration": 0.2481,
      "velocity": 78,
      "chip": "ym2612"
    },
    {
      "channel": 2,
      "note": 78,
      "start": 42.8339,
      "duration": 0.2481,
      "velocity": 78,
      "chip": "ym2612"
    },
    {
      "channel": 3,
      "note": 78,
      "start": 43.0329,
      "duration": 0.248,
      "velocity": 78,
      "chip": "ym2612"
    },
    {
      "channel": 2,
      "note": 81,
      "start": 43.0988,
      "duration": 0.2482,
      "velocity": 78,
      "chip": "ym2612"
    },
    {
      "channel": 3,
      "note": 81,
      "start": 43.2978,
      "duration": 0.2481,
      "velocity": 78,
      "chip": "ym2612"
    },
    {
      "channel": 2,
      "note": 86,
      "start": 43.3637,
      "duration": 0.248,
      "velocity": 78,
      "chip": "ym2612"
    },
    {
      "channel": 0,
      "note": 80,
      "start": 43.5617,
      "duration": 1.5723,
      "velocity": 95,
      "chip": "ym2612"
    },
    {
      "channel": 1,
      "note": 40,
      "start": 43.5623,
      "duration": 1.5721,
      "velocity": 94,
      "chip": "ym2612"
    },
    {
      "channel": 3,
      "note": 86,
      "start": 43.5632,
      "duration": 0.2474,
      "velocity": 78,
      "chip": "ym2612"
    },
    {
      "channel": 2,
      "note": 52,
      "start": 43.6284,
      "duration": 0.2481,
      "velocity": 78,
      "chip": "ym2612"
    },
    {
      "channel": 4,
      "note": 81,
      "start": 43.7449,
      "duration": 1.5723,
      "velocity": 95,
      "chip": "ym2612"
    },
    {
      "channel": 3,
      "note": 52,
      "start": 43.8274,
      "duration": 0.2485,
      "velocity": 78,
      "chip": "ym2612"
    },
    {
      "channel": 2,
      "note": 68,
      "start": 43.8932,
      "duration": 0.2487,
      "velocity": 78,
      "chip": "ym2612"
    },
    {
      "channel": 3,
      "note": 68,
      "start": 44.0927,
      "duration": 0.2476,
      "velocity": 78,
      "chip": "ym2612"
    },
    {
      "channel": 2,
      "note": 76,
      "start": 44.1586,
      "duration": 0.2476,
      "velocity": 78,
      "chip": "ym2612"
    },
    {
      "channel": 3,
      "note": 76,
      "start": 44.3571,
      "duration": 0.2481,
      "velocity": 78,
      "chip": "ym2612"
    },
    {
      "channel": 2,
      "note": 80,
      "start": 44.4229,
      "duration": 0.2482,
      "velocity": 78,
      "chip": "ym2612"
    },
    {
      "channel": 3,
      "note": 80,
      "start": 44.622,
      "duration": 0.248,
      "velocity": 78,
      "chip": "ym2612"
    },
    {
      "channel": 2,
      "note": 83,
      "start": 44.6879,
      "duration": 0.2482,
      "velocity": 78,
      "chip": "ym2612"
    },
    {
      "channel": 3,
      "note": 83,
      "start": 44.8868,
      "duration": 0.2481,
      "velocity": 78,
      "chip": "ym2612"
    },
    {
      "channel": 2,
      "note": 88,
      "start": 44.9527,
      "duration": 0.248,
      "velocity": 78,
      "chip": "ym2612"
    },
    {
      "channel": 0,
      "note": 78,
      "start": 45.1508,
      "duration": 0.2481,
      "velocity": 95,
      "chip": "ym2612"
    },
    {
      "channel": 1,
      "note": 39,
      "start": 45.1513,
      "duration": 1.5721,
      "velocity": 94,
      "chip": "ym2612"
    },
    {
      "channel": 3,
      "note": 88,
      "start": 45.1522,
      "duration": 0.2474,
      "velocity": 78,
      "chip": "ym2612"
    },
    {
      "channel": 2,
      "note": 51,
      "start": 45.2175,
      "duration": 0.2481,
      "velocity": 78,
      "chip": "ym2612"
    },
    {
      "channel": 4,
      "note": 80,
      "start": 45.3339,
      "duration": 0.2481,
      "velocity": 95,
      "chip": "ym2612"
    },
    {
      "channel": 0,
      "note": 80,
      "start": 45.4156,
      "duration": 0.2481,
      "velocity": 95,
      "chip": "ym2612"
    },
    {
      "channel": 3,
      "note": 51,
      "start": 45.4167,
      "duration": 0.2478,
      "velocity": 78,
      "chip": "ym2612"
    },
    {
      "channel": 2,
      "note": 66,
      "start": 45.4823,
      "duration": 0.2481,
      "velocity": 78,
      "chip": "ym2612"
    },
    {
      "channel": 4,
      "note": 78,
      "start": 45.5988,
      "duration": 0.248,
      "velocity": 95,
      "chip": "ym2612"
    },
    {
      "channel": 0,
      "note": 82,
      "start": 45.6805,
      "duration": 0.248,
      "velocity": 95,
      "chip": "ym2612"
    },
    {
      "channel": 3,
      "note": 66,
      "start": 45.6816,
      "duration": 0.2478,
      "velocity": 78,
      "chip": "ym2612"
    },
    {
      "channel": 2,
      "note": 73,
      "start": 45.7472,
      "duration": 0.2481,
      "velocity": 78,
      "chip": "ym2612"
    },
    {
      "channel": 4,
      "note": 80,
      "start": 45.8637,
      "duration": 0.248,
      "velocity": 95,
      "chip": "ym2612"
    },
    {
      "channel": 0,
      "note": 83,
      "start": 45.9453,
      "duration": 0.2481,
      "velocity": 95,
      "chip": "ym2612"
    },
    {
      "channel": 3,
      "note": 73,
      "start": 45.9464,
      "duration": 0.2478,
      "velocity": 78,
      "chip": "ym2612"
    },
    {
      "channel": 2,
      "note": 78,
      "start": 46.012,
      "duration": 0.2481,
      "velocity": 78,
      "chip": "ym2612"
    },
    {
      "channel": 4,
      "note": 82,
      "start": 46.1285,
      "duration": 0.2481,
      "velocity": 95,
      "chip": "ym2612"
    },
    {
      "channel": 0,
      "note": 85,
      "start": 46.2102,
      "duration": 0.2483,
      "velocity": 95,
      "chip": "ym2612"
    },
    {
      "channel": 3,
      "note": 78,
      "start": 46.2113,
      "duration": 0.248,
      "velocity": 78,
      "chip": "ym2612"
    },
    {
      "channel": 2,
      "note": 82,
      "start": 46.2769,
      "duration": 0.2486,
      "velocity": 78,
      "chip": "ym2612"
    },
    {
      "channel": 4,
      "note": 83,
      "start": 46.3934,
      "duration": 0.2485,
      "velocity": 95,
      "chip": "ym2612"
    },
    {
      "channel": 0,
      "note": 87,
      "start": 46.4754,
      "duration": 0.2476,
      "velocity": 95,
      "chip": "ym2612"
    },
    {
      "channel": 3,
      "note": 82,
      "start": 46.4766,
      "duration": 0.2474,
      "velocity": 78,
      "chip": "ym2612"
    },
    {
      "channel": 2,
      "note": 87,
      "start": 46.5421,
      "duration": 0.2476,
      "velocity": 78,
      "chip": "ym2612"
    },
    {
      "channel": 4,
      "note": 85,
      "start": 46.6586,
      "duration": 0.2476,
      "velocity": 95,
      "chip": "ym2612"
    },
    {
      "channel": 0,
      "note": 81,
      "start": 46.7399,
      "duration": 0.5129,
      "velocity": 95,
      "chip": "ym2612"
    },
    {
      "channel": 1,
      "note": 38,
      "start": 46.7404,
      "duration": 0.5127,
      "velocity": 94,
      "chip": "ym2612"
    },
    {
      "channel": 3,
      "note": 87,
      "start": 46.7417,
      "duration": 0.512,
      "velocity": 78,
      "chip": "ym2612"
    },
    {
      "channel": 2,
      "note": 62,
      "start": 46.8065,
      "duration": 0.5129,
      "velocity": 78,
      "chip": "ym2612"
    },
    {
      "channel": 4,
      "note": 87,
      "start": 46.923,
      "duration": 0.5129,
      "velocity": 95,
      "chip": "ym2612"
    },
    {
      "channel": 0,
      "note": 80,
      "start": 47.2695,
      "duration": 0.5129,
      "velocity": 95,
      "chip": "ym2612"
    },
    {
      "channel": 1,
      "note": 37,
      "start": 47.2701,
      "duration": 0.7971,
      "velocity": 94,
      "chip": "ym2612"
    },
    {
      "channel": 3,
      "note": 78,
      "start": 47.271,
      "duration": 0.5123,
      "velocity": 78,
      "chip": "ym2612"
    },
    {
      "channel": 2,
      "note": 61,
      "start": 47.3362,
      "duration": 0.513,
      "velocity": 78,
      "chip": "ym2612"
    },
    {
      "channel": 4,
      "note": 81,
      "start": 47.4527,
      "duration": 0.5129,
      "velocity": 95,
      "chip": "ym2612"
    },
    {
      "channel": 0,
      "note": 77,
      "start": 48.064,
      "duration": 0.0032,
      "velocity": 95,
      "chip": "ym2612"
    }
  ]
}