{
  "track_name": "03 - Cargo Ship (Exterior)",
  "duration_sec": 108.79,
  "sample_rate": 44100,
  "note_count": 1621,
  "unique_pitches": 45,
  "pitch_range": 81,
  "avg_note_duration": 0.1813,
  "reconstruction_stats": {
    "notes_reconstructed": 1621,
    "keyon_events": 1621,
    "keyoff_events": 1621,
    "orphan_keyons": 0,
    "unique_pitches": 45,
    "pitch_range": 81,
    "avg_duration_sec": 0.1813
  },
  "metadata": {
    "source": "J\\Jurassic Park - Rampage Edition\\03 - Cargo Ship (Exterior).vgz"
  },
  "notes": [
    {
      "channel": 0,
      "note": 88,
      "start": 0.0056,
      "duration": 1.275,
      "velocity": 127,
      "chip": "ym2612"
    },
    {
      "channel": 1,
      "note": 56,
      "start": 1.7017,
      "duration": 0.0629,
      "velocity": 88,
      "chip": "ym2612"
    },
    {
      "channel": 1,
      "note": 61,
      "start": 1.8182,
      "duration": 0.0465,
      "velocity": 88,
      "chip": "ym2612"
    },
    {
      "channel": 5,
      "note": 25,
      "start": 1.9188,
      "duration": 0.8638,
      "velocity": 102,
      "chip": "ym2612"
    },
    {
      "channel": 1,
      "note": 50,
      "start": 1.9217,
      "duration": 0.0598,
      "velocity": 88,
      "chip": "ym2612"
    },
    {
      "channel": 1,
      "note": 61,
      "start": 2.035,
      "duration": 0.0466,
      "velocity": 88,
      "chip": "ym2612"
    },
    {
      "channel": 1,
      "note": 49,
      "start": 2.1352,
      "duration": 0.0632,
      "velocity": 88,
      "chip": "ym2612"
    },
    {
      "channel": 1,
      "note": 61,
      "start": 2.252,
      "duration": 0.0466,
      "velocity": 88,
      "chip": "ym2612"
    },
    {
      "channel": 1,
      "note": 50,
      "start": 2.3531,
      "duration": 0.0457,
      "velocity": 88,
      "chip": "ym2612"
    },
    {
      "channel": 1,
      "note": 61,
      "start": 2.4689,
      "duration": 0.0467,
      "velocity": 88,
      "chip": "ym2612"
    },
    {
      "channel": 0,
      "note": 88,
      "start": 2.4876,
      "duration": 0.8457,
      "velocity": 127,
      "chip": "ym2612"
    },
    {
      "channel": 1,
      "note": 52,
      "start": 2.5692,
      "duration": 0.0465,
      "velocity": 88,
      "chip": "ym2612"
    },
    {
      "channel": 1,
      "note": 61,
      "start": 2.6865,
      "duration": 0.046,
      "velocity": 88,
      "chip": "ym2612"
    },
    {
      "channel": 5,
      "note": 24,
      "start": 2.7871,
      "duration": 0.8634,
      "velocity": 102,
      "chip": "ym2612"
    },
    {
      "channel": 1,
      "note": 52,
      "start": 2.79,
      "duration": 0.0426,
      "velocity": 88,
      "chip": "ym2612"
    },
    {
      "channel": 1,
      "note": 61,
      "start": 2.887,
      "duration": 0.0624,
      "velocity": 88,
      "chip": "ym2612"
    },
    {
      "channel": 1,
      "note": 54,
      "start": 3.0029,
      "duration": 0.0466,
      "velocity": 88,
      "chip": "ym2612"
    },
    {
      "channel": 1,
      "note": 61,
      "start": 3.1031,
      "duration": 0.0633,
      "velocity": 88,
      "chip": "ym2612"
    },
    {
      "channel": 1,
      "note": 54,
      "start": 3.22,
      "duration": 0.0465,
      "velocity": 88,
      "chip": "ym2612"
    },
    {
      "channel": 1,
      "note": 61,
      "start": 3.32,
      "duration": 0.0633,
      "velocity": 88,
      "chip": "ym2612"
    },
    {
      "channel": 1,
      "note": 57,
      "start": 3.4368,
      "duration": 0.0466,
      "velocity": 88,
      "chip": "ym2612"
    },
    {
      "channel": 1,
      "note": 61,
      "start": 3.537,
      "duration": 0.0465,
      "velocity": 88,
      "chip": "ym2612"
    },
    {
      "channel": 5,
      "note": 24,
      "start": 3.6551,
      "duration": 1.4639,
      "velocity": 102,
      "chip": "ym2612"
    },
    {
      "channel": 1,
      "note": 56,
      "start": 3.658,
      "duration": 0.0423,
      "velocity": 88,
      "chip": "ym2612"
    },
    {
      "channel": 1,
      "note": 61,
      "start": 3.7546,
      "duration": 0.0459,
      "velocity": 88,
      "chip": "ym2612"
    },
    {
      "channel": 1,
      "note": 57,
      "start": 3.8708,
      "duration": 0.0464,
      "velocity": 88,
      "chip": "ym2612"
    },
    {
      "channel": 1,
      "note": 61,
      "start": 3.9709,
      "duration": 0.0466,
      "velocity": 88,
      "chip": "ym2612"
    },
    {
      "channel": 1,
      "note": 57,
      "start": 4.0721,
      "duration": 0.0622,
      "velocity": 88,
      "chip": "ym2612"
    },
    {
      "channel": 1,
      "note": 61,
      "start": 4.1884,
      "duration": 0.046,
      "velocity": 88,
      "chip": "ym2612"
    },
    {
      "channel": 3,
      "note": 49,
      "start": 4.2893,
      "duration": 0.2121,
      "velocity": 82,
      "chip": "ym2612"
    },
    {
      "channel": 1,
      "note": 56,
      "start": 4.2924,
      "duration": 0.0588,
      "velocity": 88,
      "chip": "ym2612"
    },
    {
      "channel": 1,
      "note": 61,
      "start": 4.4048,
      "duration": 0.0466,
      "velocity": 88,
      "chip": "ym2612"
    },
    {
      "channel": 4,
      "note": 49,
      "start": 4.5054,
      "duration": 0.063,
      "velocity": 82,
      "chip": "ym2612"
    },
    {
      "channel": 1,
      "note": 54,
      "start": 4.509,
      "duration": 0.0592,
      "velocity": 88,
      "chip": "ym2612"
    },
    {
      "channel": 1,
      "note": 61,
      "start": 4.6217,
      "duration": 0.0465,
      "velocity": 88,
      "chip": "ym2612"
    },
    {
      "channel": 4,
      "note": 49,
      "start": 4.722,
      "duration": 0.0466,
      "velocity": 82,
      "chip": "ym2612"
    },
    {
      "channel": 1,
      "note": 52,
      "start": 4.725,
      "duration": 0.0434,
      "velocity": 88,
      "chip": "ym2612"
    },
    {
      "channel": 1,
      "note": 61,
      "start": 4.8387,
      "duration": 0.0465,
      "velocity": 88,
      "chip": "ym2612"
    },
    {
      "channel": 1,
      "note": 54,
      "start": 4.9388,
      "duration": 0.0466,
      "velocity": 88,
      "chip": "ym2612"
    },
    {
      "channel": 1,
      "note": 61,
      "start": 5.0557,
      "duration": 0.0465,
      "velocity": 88,
      "chip": "ym2612"
    },
    {
      "channel": 4,
      "note": 49,
      "start": 5.1558,
      "duration": 0.0467,
      "velocity": 82,
      "chip": "ym2612"
    },
    {
      "channel": 1,
      "note": 57,
      "start": 5.1588,
      "duration": 0.0436,
      "velocity": 88,
      "chip": "ym2612"
    },
    {
      "channel": 1,
      "note": 61,
      "start": 5.2559,
      "duration": 0.0634,
      "velocity": 88,
      "chip": "ym2612"
    },
    {
      "channel": 4,
      "note": 49,
      "start": 5.3731,
      "duration": 0.0463,
      "velocity": 82,
      "chip": "ym2612"
    },
    {
      "channel": 1,
      "note": 57,
      "start": 5.3761,
      "duration": 0.0431,
      "velocity": 88,
      "chip": "ym2612"
    },
    {
      "channel": 1,
      "note": 61,
      "start": 5.4728,
      "duration": 0.0632,
      "velocity": 88,
      "chip": "ym2612"
    },
    {
      "channel": 1,
      "note": 55,
      "start": 5.5897,
      "duration": 0.0465,
      "velocity": 88,
      "chip": "ym2612"
    },
    {
      "channel": 1,
      "note": 61,
      "start": 5.6898,
      "duration": 0.0465,
      "velocity": 88,
      "chip": "ym2612"
    },
    {
      "channel": 0,
      "note": 88,
      "start": 5.7081,
      "duration": 0.8792,
      "velocity": 127,
      "chip": "ym2612"
    },
    {
      "channel": 4,
      "note": 49,
      "start": 5.8068,
      "duration": 0.0465,
      "velocity": 82,
      "chip": "ym2612"
    },
    {
      "channel": 1,
      "note": 56,
      "start": 5.8102,
      "duration": 0.043,
      "velocity": 88,
      "chip": "ym2612"
    },
    {
      "channel": 1,
      "note": 61,
      "start": 5.9067,
      "duration": 0.0465,
      "velocity": 88,
      "chip": "ym2612"
    },
    {
      "channel": 1,
      "note": 53,
      "start": 6.0235,
      "duration": 0.0467,
      "velocity": 88,
      "chip": "ym2612"
    },
    {
      "channel": 1,
      "note": 61,
      "start": 6.1237,
      "duration": 0.0465,
      "velocity": 88,
      "chip": "ym2612"
    },
    {
      "channel": 1,
      "note": 54,
      "start": 6.2405,
      "duration": 0.0467,
      "velocity": 88,
      "chip": "ym2612"
    },
    {
      "channel": 1,
      "note": 61,
      "start": 6.3406,
      "duration": 0.0465,
      "velocity": 88,
      "chip": "ym2612"
    },
    {
      "channel": 1,
      "note": 51,
      "start": 6.4407,
      "duration": 0.0633,
      "velocity": 88,
      "chip": "ym2612"
    },
    {
      "channel": 1,
      "note": 61,
      "start": 6.5576,
      "duration": 0.0465,
      "velocity": 88,
      "chip": "ym2612"
    },
    {
      "channel": 1,
      "note": 52,
      "start": 6.6577,
      "duration": 0.0632,
      "velocity": 88,
      "chip": "ym2612"
    },
    {
      "channel": 1,
      "note": 61,
      "start": 6.7746,
      "duration": 0.0465,
      "velocity": 88,
      "chip": "ym2612"
    },
    {
      "channel": 1,
      "note": 49,
      "start": 6.8746,
      "duration": 0.0466,
      "velocity": 88,
      "chip": "ym2612"
    },
    {
      "channel": 2,
      "note": 54,
      "start": 6.8785,
      "duration": 1.7285,
      "velocity": 97,
      "chip": "ym2612"
    },
    {
      "channel": 1,
      "note": 61,
      "start": 6.9914,
      "duration": 0.0465,
      "velocity": 88,
      "chip": "ym2612"
    },
    {
      "channel": 1,
      "note": 49,
      "start": 7.0916,
      "duration": 0.0464,
      "velocity": 88,
      "chip": "ym2612"
    },
    {
      "channel": 3,
      "note": 54,
      "start": 7.0956,
      "duration": 1.7115,
      "velocity": 97,
      "chip": "ym2612"
    },
    {
      "channel": 1,
      "note": 61,
      "start": 7.2084,
      "duration": 0.0465,
      "velocity": 88,
      "chip": "ym2612"
    },
    {
      "channel": 1,
      "note": 49,
      "start": 7.3085,
      "duration": 0.0466,
      "velocity": 88,
      "chip": "ym2612"
    },
    {
      "channel": 1,
      "note": 61,
      "start": 7.4254,
      "duration": 0.0465,
      "velocity": 88,
      "chip": "ym2612"
    },
    {
      "channel": 1,
      "note": 49,
      "start": 7.5259,
      "duration": 0.0461,
      "velocity": 88,
      "chip": "ym2612"
    },
    {
      "channel": 1,
      "note": 61,
      "start": 7.6257,
      "duration": 0.0631,
      "velocity": 88,
      "chip": "ym2612"
    },
    {
      "channel": 1,
      "note": 49,
      "start": 7.7424,
      "duration": 0.0465,
      "velocity": 88,
      "chip": "ym2612"
    },
    {
      "channel": 1,
      "note": 61,
      "start": 7.8425,
      "duration": 0.0633,
      "velocity": 88,
      "chip": "ym2612"
    },
    {
      "channel": 1,
      "note": 49,
      "start": 7.9594,
      "duration": 0.0465,
      "velocity": 88,
      "chip": "ym2612"
    },
    {
      "channel": 1,
      "note": 61,
      "start": 8.0595,
      "duration": 0.0465,
      "velocity": 88,
      "chip": "ym2612"
    },
    {
      "channel": 1,
      "note": 49,
      "start": 8.1763,
      "duration": 0.0465,
      "velocity": 88,
      "chip": "ym2612"
    },
    {
      "channel": 1,
      "note": 61,
      "start": 8.2765,
      "duration": 0.0466,
      "velocity": 88,
      "chip": "ym2612"
    },
    {
      "channel": 1,
      "note": 49,
      "start": 8.3933,
      "duration": 0.0465,
      "velocity": 88,
      "chip": "ym2612"
    },
    {
      "channel": 1,
      "note": 61,
      "start": 8.4934,
      "duration": 0.0465,
      "velocity": 88,
      "chip": "ym2612"
    },
    {
      "channel": 1,
      "note": 56,
      "start": 8.6104,
      "duration": 0.0464,
      "velocity": 88,
      "chip": "ym2612"
    },
    {
      "channel": 1,
      "note": 61,
      "start": 8.7103,
      "duration": 0.0466,
      "velocity": 88,
      "chip": "ym2612"
    },
    {
      "channel": 1,
      "note": 50,
      "start": 8.8106,
      "duration": 0.0631,
      "velocity": 88,
      "chip": "ym2612"
    },
    {
      "channel": 1,
      "note": 61,
      "start": 8.9273,
      "duration": 0.0465,
      "velocity": 88,
      "chip": "ym2612"
    },
    {
      "channel": 1,
      "note": 49,
      "start": 9.0275,
      "duration": 0.0632,
      "velocity": 88,
      "chip": "ym2612"
    },
    {
      "channel": 1,
      "note": 61,
      "start": 9.1442,
      "duration": 0.0466,
      "velocity": 88,
      "chip": "ym2612"
    },
    {
      "channel": 1,
      "note": 50,
      "start": 9.2448,
      "duration": 0.0462,
      "velocity": 88,
      "chip": "ym2612"
    },
    {
      "channel": 1,
      "note": 61,
      "start": 9.3612,
      "duration": 0.0465,
      "velocity": 88,
      "chip": "ym2612"
    },
    {
      "channel": 1,
      "note": 52,
      "start": 9.4612,
      "duration": 0.0466,
      "velocity": 88,
      "chip": "ym2612"
    },
    {
      "channel": 0,
      "note": 88,
      "start": 9.5127,
      "duration": 0.6961,
      "velocity": 127,
      "chip": "ym2612"
    },
    {
      "channel": 1,
      "note": 61,
      "start": 9.5782,
      "duration": 0.0465,
      "velocity": 88,
      "chip": "ym2612"
    },
    {
      "channel": 1,
      "note": 52,
      "start": 9.6783,
      "duration": 0.0465,
      "velocity": 88,
      "chip": "ym2612"
    },
    {
      "channel": 1,
      "note": 61,
      "start": 9.795,
      "duration": 0.0467,
      "velocity": 88,
      "chip": "ym2612"
    },
    {
      "channel": 1,
      "note": 54,
      "start": 9.8952,
      "duration": 0.0465,
      "velocity": 88,
      "chip": "ym2612"
    },
    {
      "channel": 1,
      "note": 61,
      "start": 9.9954,
      "duration": 0.0632,
      "velocity": 88,
      "chip": "ym2612"
    },
    {
      "channel": 1,
      "note": 54,
      "start": 10.1122,
      "duration": 0.0465,
      "velocity": 88,
      "chip": "ym2612"
    },
    {
      "channel": 1,
      "note": 61,
      "start": 10.2124,
      "duration": 0.0631,
      "velocity": 88,
      "chip": "ym2612"
    },
    {
      "channel": 1,
      "note": 57,
      "start": 10.3292,
      "duration": 0.0465,
      "velocity": 88,
      "chip": "ym2612"
    },
    {
      "channel": 1,
      "note": 61,
      "start": 10.4292,
      "duration": 0.0466,
      "velocity": 88,
      "chip": "ym2612"
    },
    {
      "channel": 1,
      "note": 56,
      "start": 10.546,
      "duration": 0.0466,
      "velocity": 88,
      "chip": "ym2612"
    },
    {
      "channel": 1,
      "note": 61,
      "start": 10.6461,
      "duration": 0.0466,
      "velocity": 88,
      "chip": "ym2612"
    },
    {
      "channel": 1,
      "note": 57,
      "start": 10.763,
      "duration": 0.0465,
      "velocity": 88,
      "chip": "ym2612"
    },
    {
      "channel": 1,
      "note": 61,
      "start": 10.8631,
      "duration": 0.0465,
      "velocity": 88,
      "chip": "ym2612"
    },
    {
      "channel": 1,
      "note": 57,
      "start": 10.9804,
      "duration": 0.0461,
      "velocity": 88,
      "chip": "ym2612"
    },
    {
      "channel": 1,
      "note": 61,
      "start": 11.0801,
      "duration": 0.0465,
      "velocity": 88,
      "chip": "ym2612"
    },
    {
      "channel": 4,
      "note": 49,
      "start": 11.1804,
      "duration": 0.2132,
      "velocity": 82,
      "chip": "ym2612"
    },
    {
      "channel": 1,
      "note": 56,
      "start": 11.1835,
      "duration": 0.06,
      "velocity": 88,
      "chip": "ym2612"
    },
    {
      "channel": 1,
      "note": 61,
      "start": 11.297,
      "duration": 0.0465,
      "velocity": 88,
      "chip": "ym2612"
    },
    {
      "channel": 5,
      "note": 49,
      "start": 11.3975,
      "duration": 0.2132,
      "velocity": 82,
      "chip": "ym2612"
    },
    {
      "channel": 1,
      "note": 54,
      "start": 11.4005,
      "duration": 0.0598,
      "velocity": 88,
      "chip": "ym2612"
    },
    {
      "channel": 1,
      "note": 61,
      "start": 11.514,
      "duration": 0.0465,
      "velocity": 88,
      "chip": "ym2612"
    },
    {
      "channel": 5,
      "note": 49,
      "start": 11.6143,
      "duration": 0.2133,
      "velocity": 82,
      "chip": "ym2612"
    },
    {
      "channel": 1,
      "note": 52,
      "start": 11.6173,
      "duration": 0.0434,
      "velocity": 88,
      "chip": "ym2612"
    },
    {
      "channel": 1,
      "note": 61,
      "start": 11.7309,
      "duration": 0.0465,
      "velocity": 88,
      "chip": "ym2612"
    },
    {
      "channel": 1,
      "note": 54,
      "start": 11.8311,
      "duration": 0.0465,
      "velocity": 88,
      "chip": "ym2612"
    },
    {
      "channel": 1,
      "note": 61,
      "start": 11.9478,
      "duration": 0.0466,
      "velocity": 88,
      "chip": "ym2612"
    },
    {
      "channel": 5,
      "note": 49,
      "start": 12.048,
      "duration": 0.2135,
      "velocity": 82,
      "chip": "ym2612"
    },
    {
      "channel": 1,
      "note": 57,
      "start": 12.051,
      "duration": 0.0436,
      "velocity": 88,
      "chip": "ym2612"
    },
    {
      "channel": 1,
      "note": 61,
      "start": 12.1481,
      "duration": 0.0632,
      "velocity": 88,
      "chip": "ym2612"
    },
    {
      "channel": 5,
      "note": 49,
      "start": 12.2651,
      "duration": 0.2134,
      "velocity": 82,
      "chip": "ym2612"
    },
    {
      "channel": 1,
      "note": 57,
      "start": 12.2681,
      "duration": 0.0434,
      "velocity": 88,
      "chip": "ym2612"
    },
    {
      "channel": 1,
      "note": 61,
      "start": 12.3651,
      "duration": 0.0632,
      "velocity": 88,
      "chip": "ym2612"
    },
    {
      "channel": 1,
      "note": 55,
      "start": 12.4819,
      "duration": 0.0465,
      "velocity": 88,
      "chip": "ym2612"
    },
    {
      "channel": 1,
      "note": 61,
      "start": 12.582,
      "duration": 0.0632,
      "velocity": 88,
      "chip": "ym2612"
    },
    {
      "channel": 2,
      "note": 25,
      "start": 12.6666,
      "duration": 1.2305,
      "velocity": 102,
      "chip": "ym2612"
    },
    {
      "channel": 5,
      "note": 49,
      "start": 12.6989,
      "duration": 0.2134,
      "velocity": 82,
      "chip": "ym2612"
    },
    {
      "channel": 1,
      "note": 56,
      "start": 12.7023,
      "duration": 0.0431,
      "velocity": 88,
      "chip": "ym2612"
    },
    {
      "channel": 1,
      "note": 61,
      "start": 12.799,
      "duration": 0.0466,
      "velocity": 88,
      "chip": "ym2612"
    },
    {
      "channel": 1,
      "note": 53,
      "start": 12.9159,
      "duration": 0.0465,
      "velocity": 88,
      "chip": "ym2612"
    },
    {
      "channel": 0,
      "note": 88,
      "start": 12.9503,
      "duration": 1.0466,
      "velocity": 127,
      "chip": "ym2612"
    },
    {
      "channel": 1,
      "note": 61,
      "start": 13.0159,
      "duration": 0.0466,
      "velocity": 88,
      "chip": "ym2612"
    },
    {
      "channel": 1,
      "note": 54,
      "start": 13.1327,
      "duration": 0.0466,
      "velocity": 88,
      "chip": "ym2612"
    },
    {
      "channel": 1,
      "note": 61,
      "start": 13.2327,
      "duration": 0.0467,
      "velocity": 88,
      "chip": "ym2612"
    },
    {
      "channel": 1,
      "note": 51,
      "start": 13.333,
      "duration": 0.0633,
      "velocity": 88,
      "chip": "ym2612"
    },
    {
      "channel": 1,
      "note": 61,
      "start": 13.4498,
      "duration": 0.0466,
      "velocity": 88,
      "chip": "ym2612"
    },
    {
      "channel": 1,
      "note": 52,
      "start": 13.5498,
      "duration": 0.0633,
      "velocity": 88,
      "chip": "ym2612"
    },
    {
      "channel": 1,
      "note": 61,
      "start": 13.6667,
      "duration": 0.0466,
      "velocity": 88,
      "chip": "ym2612"
    },
    {
      "channel": 1,
      "note": 49,
      "start": 13.7668,
      "duration": 0.0633,
      "velocity": 88,
      "chip": "ym2612"
    },
    {
      "channel": 1,
      "note": 61,
      "start": 13.8837,
      "duration": 0.0465,
      "velocity": 88,
      "chip": "ym2612"
    },
    {
      "channel": 2,
      "note": 25,
      "start": 13.9017,
      "duration": 1.4472,
      "velocity": 102,
      "chip": "ym2612"
    },
    {
      "channel": 1,
      "note": 49,
      "start": 13.9838,
      "duration": 0.0466,
      "velocity": 88,
      "chip": "ym2612"
    },
    {
      "channel": 1,
      "note": 61,
      "start": 14.1012,
      "duration": 0.0459,
      "velocity": 88,
      "chip": "ym2612"
    },
    {
      "channel": 1,
      "note": 49,
      "start": 14.2011,
      "duration": 0.0461,
      "velocity": 88,
      "chip": "ym2612"
    },
    {
      "channel": 1,
      "note": 61,
      "start": 14.3185,
      "duration": 0.0457,
      "velocity": 88,
      "chip": "ym2612"
    },
    {
      "channel": 1,
      "note": 49,
      "start": 14.419,
      "duration": 0.0452,
      "velocity": 88,
      "chip": "ym2612"
    },
    {
      "channel": 1,
      "note": 61,
      "start": 14.5178,
      "duration": 0.0632,
      "velocity": 88,
      "chip": "ym2612"
    },
    {
      "channel": 1,
      "note": 49,
      "start": 14.6345,
      "duration": 0.0467,
      "velocity": 88,
      "chip": "ym2612"
    },
    {
      "channel": 1,
      "note": 61,
      "start": 14.7347,
      "duration": 0.0633,
      "velocity": 88,
      "chip": "ym2612"
    },
    {
      "channel": 1,
      "note": 49,
      "start": 14.8516,
      "duration": 0.0466,
      "velocity": 88,
      "chip": "ym2612"
    },
    {
      "channel": 1,
      "note": 61,
      "start": 14.9517,
      "duration": 0.0633,
      "velocity": 88,
      "chip": "ym2612"
    },
    {
      "channel": 1,
      "note": 49,
      "start": 15.0685,
      "duration": 0.0467,
      "velocity": 88,
      "chip": "ym2612"
    },
    {
      "channel": 1,
      "note": 61,
      "start": 15.1686,
      "duration": 0.0466,
      "velocity": 88,
      "chip": "ym2612"
    },
    {
      "channel": 1,
      "note": 49,
      "start": 15.2855,
      "duration": 0.0466,
      "velocity": 88,
      "chip": "ym2612"
    },
    {
      "channel": 1,
      "note": 61,
      "start": 15.3856,
      "duration": 0.0466,
      "velocity": 88,
      "chip": "ym2612"
    },
    {
      "channel": 1,
      "note": 56,
      "start": 15.5024,
      "duration": 0.0466,
      "velocity": 88,
      "chip": "ym2612"
    },
    {
      "channel": 3,
      "note": 54,
      "start": 15.5059,
      "duration": 1.712,
      "velocity": 97,
      "chip": "ym2612"
    },
    {
      "channel": 1,
      "note": 61,
      "start": 15.6026,
      "duration": 0.0466,
      "velocity": 88,
      "chip": "ym2612"
    },
    {
      "channel": 1,
      "note": 50,
      "start": 15.7026,
      "duration": 0.0633,
      "velocity": 88,
      "chip": "ym2612"
    },
    {
      "channel": 4,
      "note": 54,
      "start": 15.7062,
      "duration": 1.7286,
      "velocity": 97,
      "chip": "ym2612"
    },
    {
      "channel": 1,
      "note": 61,
      "start": 15.8194,
      "duration": 0.0466,
      "velocity": 88,
      "chip": "ym2612"
    },
    {
      "channel": 1,
      "note": 49,
      "start": 15.9196,
      "duration": 0.0633,
      "velocity": 88,
      "chip": "ym2612"
    },
    {
      "channel": 1,
      "note": 61,
      "start": 16.0364,
      "duration": 0.0466,
      "velocity": 88,
      "chip": "ym2612"
    },
    {
      "channel": 1,
      "note": 50,
      "start": 16.1369,
      "duration": 0.0629,
      "velocity": 88,
      "chip": "ym2612"
    },
    {
      "channel": 1,
      "note": 61,
      "start": 16.2533,
      "duration": 0.0467,
      "velocity": 88,
      "chip": "ym2612"
    },
    {
      "channel": 1,
      "note": 52,
      "start": 16.3535,
      "duration": 0.0466,
      "velocity": 88,
      "chip": "ym2612"
    },
    {
      "channel": 1,
      "note": 61,
      "start": 16.4703,
      "duration": 0.0466,
      "velocity": 88,
      "chip": "ym2612"
    },
    {
      "channel": 1,
      "note": 52,
      "start": 16.5704,
      "duration": 0.0466,
      "velocity": 88,
      "chip": "ym2612"
    },
    {
      "channel": 1,
      "note": 61,
      "start": 16.6872,
      "duration": 0.0466,
      "velocity": 88,
      "chip": "ym2612"
    },
    {
      "channel": 1,
      "note": 54,
      "start": 16.7873,
      "duration": 0.0467,
      "velocity": 88,
      "chip": "ym2612"
    },
    {
      "channel": 1,
      "note": 61,
      "start": 16.8876,
      "duration": 0.0633,
      "velocity": 88,
      "chip": "ym2612"
    },
    {
      "channel": 1,
      "note": 54,
      "start": 17.0044,
      "duration": 0.0466,
      "velocity": 88,
      "chip": "ym2612"
    },
    {
      "channel": 1,
      "note": 61,
      "start": 17.1044,
      "duration": 0.0633,
      "velocity": 88,
      "chip": "ym2612"
    },
    {
      "channel": 0,
      "note": 88,
      "start": 17.1223,
      "duration": 0.9966,
      "velocity": 127,
      "chip": "ym2612"
    },
    {
      "channel": 1,
      "note": 57,
      "start": 17.2214,
      "duration": 0.0464,
      "velocity": 88,
      "chip": "ym2612"
    },
    {
      "channel": 1,
      "note": 61,
      "start": 17.3215,
      "duration": 0.0632,
      "velocity": 88,
      "chip": "ym2612"
    },
    {
      "channel": 1,
      "note": 56,
      "start": 17.4383,
      "duration": 0.0466,
      "velocity": 88,
      "chip": "ym2612"
    },
    {
      "channel": 1,
      "note": 61,
      "start": 17.5384,
      "duration": 0.0465,
      "velocity": 88,
      "chip": "ym2612"
    },
    {
      "channel": 1,
      "note": 57,
      "start": 17.6551,
      "duration": 0.0467,
      "velocity": 88,
      "chip": "ym2612"
    },
    {
      "channel": 1,
      "note": 61,
      "start": 17.7552,
      "duration": 0.0467,
      "velocity": 88,
      "chip": "ym2612"
    },
    {
      "channel": 1,
      "note": 57,
      "start": 17.8725,
      "duration": 0.0461,
      "velocity": 88,
      "chip": "ym2612"
    },
    {
      "channel": 1,
      "note": 61,
      "start": 17.9722,
      "duration": 0.0467,
      "velocity": 88,
      "chip": "ym2612"
    },
    {
      "channel": 1,
      "note": 56,
      "start": 18.0723,
      "duration": 0.0634,
      "velocity": 88,
      "chip": "ym2612"
    },
    {
      "channel": 1,
      "note": 61,
      "start": 18.1891,
      "duration": 0.0466,
      "velocity": 88,
      "chip": "ym2612"
    },
    {
      "channel": 1,
      "note": 54,
      "start": 18.2893,
      "duration": 0.0633,
      "velocity": 88,
      "chip": "ym2612"
    },
    {
      "channel": 1,
      "note": 61,
      "start": 18.4061,
      "duration": 0.0465,
      "velocity": 88,
      "chip": "ym2612"
    },
    {
      "channel": 1,
      "note": 52,
      "start": 18.5062,
      "duration": 0.0466,
      "velocity": 88,
      "chip": "ym2612"
    },
    {
      "channel": 1,
      "note": 61,
      "start": 18.6231,
      "duration": 0.0466,
      "velocity": 88,
      "chip": "ym2612"
    },
    {
      "channel": 1,
      "note": 54,
      "start": 18.7231,
      "duration": 0.0466,
      "velocity": 88,
      "chip": "ym2612"
    },
    {
      "channel": 1,
      "note": 61,
      "start": 18.8401,
      "duration": 0.0465,
      "velocity": 88,
      "chip": "ym2612"
    },
    {
      "channel": 5,
      "note": 47,
      "start": 18.9412,
      "duration": 3.3835,
      "velocity": 118,
      "chip": "ym2612"
    },
    {
      "channel": 2,
      "note": 47,
      "start": 18.9449,
      "duration": 3.3799,
      "velocity": 118,
      "chip": "ym2612"
    },
    {
      "channel": 3,
      "note": 80,
      "start": 18.949,
      "duration": 0.0378,
      "velocity": 107,
      "chip": "ym2612"
    },
    {
      "channel": 3,
      "note": 85,
      "start": 19.0581,
      "duration": 0.0456,
      "velocity": 107,
      "chip": "ym2612"
    },
    {
      "channel": 3,
      "note": 74,
      "start": 19.1577,
      "duration": 0.0461,
      "velocity": 107,
      "chip": "ym2612"
    },
    {
      "channel": 3,
      "note": 85,
      "start": 19.2584,
      "duration": 0.0622,
      "velocity": 107,
      "chip": "ym2612"
    },
    {
      "channel": 3,
      "note": 73,
      "start": 19.3746,
      "duration": 0.0461,
      "velocity": 107,
      "chip": "ym2612"
    },
    {
      "channel": 3,
      "note": 85,
      "start": 19.4747,
      "duration": 0.0627,
      "velocity": 107,
      "chip": "ym2612"
    },
    {
      "channel": 3,
      "note": 74,
      "start": 19.5919,
      "duration": 0.0458,
      "velocity": 107,
      "chip": "ym2612"
    },
    {
      "channel": 3,
      "note": 85,
      "start": 19.6917,
      "duration": 0.0461,
      "velocity": 107,
      "chip": "ym2612"
    },
    {
      "channel": 3,
      "note": 76,
      "start": 19.8084,
      "duration": 0.0461,
      "velocity": 107,
      "chip": "ym2612"
    },
    {
      "channel": 3,
      "note": 85,
      "start": 19.9086,
      "duration": 0.0461,
      "velocity": 107,
      "chip": "ym2612"
    },
    {
      "channel": 3,
      "note": 76,
      "start": 20.0255,
      "duration": 0.0461,
      "velocity": 107,
      "chip": "ym2612"
    },
    {
      "channel": 3,
      "note": 85,
      "start": 20.1255,
      "duration": 0.0461,
      "velocity": 107,
      "chip": "ym2612"
    },
    {
      "channel": 3,
      "note": 78,
      "start": 20.2424,
      "duration": 0.0461,
      "velocity": 107,
      "chip": "ym2612"
    },
    {
      "channel": 3,
      "note": 85,
      "start": 20.3425,
      "duration": 0.0461,
      "velocity": 107,
      "chip": "ym2612"
    },
    {
      "channel": 3,
      "note": 78,
      "start": 20.4427,
      "duration": 0.0627,
      "velocity": 107,
      "chip": "ym2612"
    },
    {
      "channel": 3,
      "note": 85,
      "start": 20.5595,
      "duration": 0.0461,
      "velocity": 107,
      "chip": "ym2612"
    },
    {
      "channel": 3,
      "note": 81,
      "start": 20.6596,
      "duration": 0.0627,
      "velocity": 107,
      "chip": "ym2612"
    },
    {
      "channel": 3,
      "note": 85,
      "start": 20.7764,
      "duration": 0.0461,
      "velocity": 107,
      "chip": "ym2612"
    },
    {
      "channel": 3,
      "note": 80,
      "start": 20.8765,
      "duration": 0.0461,
      "velocity": 107,
      "chip": "ym2612"
    },
    {
      "channel": 3,
      "note": 85,
      "start": 20.9933,
      "duration": 0.0461,
      "velocity": 107,
      "chip": "ym2612"
    },
    {
      "channel": 3,
      "note": 81,
      "start": 21.0935,
      "duration": 0.0461,
      "velocity": 107,
      "chip": "ym2612"
    },
    {
      "channel": 3,
      "note": 85,
      "start": 21.2103,
      "duration": 0.0461,
      "velocity": 107,
      "chip": "ym2612"
    },
    {
      "channel": 3,
      "note": 81,
      "start": 21.3108,
      "duration": 0.0458,
      "velocity": 107,
      "chip": "ym2612"
    },
    {
      "channel": 0,
      "note": 76,
      "start": 21.4281,
      "duration": 0.4122,
      "velocity": 127,
      "chip": "ym2612"
    },
    {
      "channel": 3,
      "note": 85,
      "start": 21.431,
      "duration": 0.0423,
      "velocity": 107,
      "chip": "ym2612"
    },
    {
      "channel": 3,
      "note": 80,
      "start": 21.5279,
      "duration": 0.0455,
      "velocity": 107,
      "chip": "ym2612"
    },
    {
      "channel": 3,
      "note": 85,
      "start": 21.628,
      "duration": 0.0623,
      "velocity": 107,
      "chip": "ym2612"
    },
    {
      "channel": 3,
      "note": 78,
      "start": 21.7444,
      "duration": 0.046,
      "velocity": 107,
      "chip": "ym2612"
    },
    {
      "channel": 3,
      "note": 85,
      "start": 21.8445,
      "duration": 0.0628,
      "velocity": 107,
      "chip": "ym2612"
    },
    {
      "channel": 3,
      "note": 76,
      "start": 21.9613,
      "duration": 0.0461,
      "velocity": 107,
      "chip": "ym2612"
    },
    {
      "channel": 3,
      "note": 85,
      "start": 22.0613,
      "duration": 0.0461,
      "velocity": 107,
      "chip": "ym2612"
    },
    {
      "channel": 3,
      "note": 78,
      "start": 22.1782,
      "duration": 0.0461,
      "velocity": 107,
      "chip": "ym2612"
    },
    {
      "channel": 3,
      "note": 85,
      "start": 22.2783,
      "duration": 0.0462,
      "velocity": 107,
      "chip": "ym2612"
    },
    {
      "channel": 5,
      "note": 49,
      "start": 22.3959,
      "duration": 2.788,
      "velocity": 118,
      "chip": "ym2612"
    },
    {
      "channel": 2,
      "note": 49,
      "start": 22.4004,
      "duration": 2.7969,
      "velocity": 118,
      "chip": "ym2612"
    },
    {
      "channel": 3,
      "note": 81,
      "start": 22.4034,
      "duration": 0.0378,
      "velocity": 107,
      "chip": "ym2612"
    },
    {
      "channel": 3,
      "note": 85,
      "start": 22.4953,
      "duration": 0.046,
      "velocity": 107,
      "chip": "ym2612"
    },
    {
      "channel": 3,
      "note": 81,
      "start": 22.6127,
      "duration": 0.0455,
      "velocity": 107,
      "chip": "ym2612"
    },
    {
      "channel": 3,
      "note": 85,
      "start": 22.7123,
      "duration": 0.046,
      "velocity": 107,
      "chip": "ym2612"
    },
    {
      "channel": 3,
      "note": 79,
      "start": 22.8124,
      "duration": 0.0627,
      "velocity": 107,
      "chip": "ym2612"
    },
    {
      "channel": 3,
      "note": 85,
      "start": 22.9292,
      "duration": 0.046,
      "velocity": 107,
      "chip": "ym2612"
    },
    {
      "channel": 3,
      "note": 80,
      "start": 23.0298,
      "duration": 0.0623,
      "velocity": 107,
      "chip": "ym2612"
    },
    {
      "channel": 3,
      "note": 85,
      "start": 23.1462,
      "duration": 0.0461,
      "velocity": 107,
      "chip": "ym2612"
    },
    {
      "channel": 3,
      "note": 77,
      "start": 23.2462,
      "duration": 0.0461,
      "velocity": 107,
      "chip": "ym2612"
    },
    {
      "channel": 3,
      "note": 85,
      "start": 23.363,
      "duration": 0.0461,
      "velocity": 107,
      "chip": "ym2612"
    },
    {
      "channel": 0,
      "note": 77,
      "start": 23.43,
      "duration": 0.4296,
      "velocity": 127,
      "chip": "ym2612"
    },
    {
      "channel": 3,
      "note": 78,
      "start": 23.4632,
      "duration": 0.0461,
      "velocity": 107,
      "chip": "ym2612"
    },
    {
      "channel": 3,
      "note": 85,
      "start": 23.58,
      "duration": 0.0461,
      "velocity": 107,
      "chip": "ym2612"
    },
    {
      "channel": 3,
      "note": 75,
      "start": 23.6808,
      "duration": 0.0454,
      "velocity": 107,
      "chip": "ym2612"
    },
    {
      "channel": 3,
      "note": 85,
      "start": 23.797,
      "duration": 0.0461,
      "velocity": 107,
      "chip": "ym2612"
    },
    {
      "channel": 3,
      "note": 76,
      "start": 23.897,
      "duration": 0.0461,
      "velocity": 107,
      "chip": "ym2612"
    },
    {
      "channel": 3,
      "note": 85,
      "start": 23.9972,
      "duration": 0.0629,
      "velocity": 107,
      "chip": "ym2612"
    },
    {
      "channel": 3,
      "note": 73,
      "start": 24.1139,
      "duration": 0.0462,
      "velocity": 107,
      "chip": "ym2612"
    },
    {
      "channel": 3,
      "note": 85,
      "start": 24.2141,
      "duration": 0.0627,
      "velocity": 107,
      "chip": "ym2612"
    },
    {
      "channel": 3,
      "note": 73,
      "start": 24.3315,
      "duration": 0.0456,
      "velocity": 107,
      "chip": "ym2612"
    },
    {
      "channel": 3,
      "note": 85,
      "start": 24.4311,
      "duration": 0.0461,
      "velocity": 107,
      "chip": "ym2612"
    },
    {
      "channel": 3,
      "note": 73,
      "start": 24.5478,
      "duration": 0.0462,
      "velocity": 107,
      "chip": "ym2612"
    },
    {
      "channel": 3,
      "note": 85,
      "start": 24.6479,
      "duration": 0.0462,
      "velocity": 107,
      "chip": "ym2612"
    },
    {
      "channel": 3,
      "note": 73,
      "start": 24.7652,
      "duration": 0.0457,
      "velocity": 107,
      "chip": "ym2612"
    },
    {
      "channel": 3,
      "note": 85,
      "start": 24.865,
      "duration": 0.0461,
      "velocity": 107,
      "chip": "ym2612"
    },
    {
      "channel": 3,
      "note": 73,
      "start": 24.9651,
      "duration": 0.0627,
      "velocity": 107,
      "chip": "ym2612"
    },
    {
      "channel": 3,
      "note": 85,
      "start": 25.0819,
      "duration": 0.0461,
      "velocity": 107,
      "chip": "ym2612"
    },
    {
      "channel": 3,
      "note": 73,
      "start": 25.182,
      "duration": 0.0043,
      "velocity": 107,
      "chip": "ym2612"
    },
    {
      "channel": 3,
      "note": 85,
      "start": 25.188,
      "duration": 0.0001,
      "velocity": 107,
      "chip": "ym2612"
    },
    {
      "channel": 3,
      "note": 73,
      "start": 25.1898,
      "duration": 0.0021,
      "velocity": 107,
      "chip": "ym2612"
    },
    {
      "channel": 3,
      "note": 85,
      "start": 25.1937,
      "duration": 0.0001,
      "velocity": 107,
      "chip": "ym2612"
    },
    {
      "channel": 3,
      "note": 73,
      "start": 25.1955,
      "duration": 0.0,
      "velocity": 107,
      "chip": "ym2612"
    },
    {
      "channel": 3,
      "note": 85,
      "start": 25.1972,
      "duration": 0.0,
      "velocity": 107,
      "chip": "ym2612"
    },
    {
      "channel": 0,
      "note": 45,
      "start": 25.2011,
      "duration": 0.0703,
      "velocity": 125,
      "chip": "ym2612"
    },
    {
      "channel": 1,
      "note": 49,
      "start": 25.2033,
      "duration": 0.0683,
      "velocity": 105,
      "chip": "ym2612"
    },
    {
      "channel": 3,
      "note": 71,
      "start": 25.2777,
      "duration": 0.0938,
      "velocity": 107,
      "chip": "ym2612"
    },
    {
      "channel": 1,
      "note": 49,
      "start": 25.2808,
      "duration": 0.2076,
      "velocity": 105,
      "chip": "ym2612"
    },
    {
      "channel": 3,
      "note": 71,
      "start": 25.376,
      "duration": 0.1125,
      "velocity": 107,
      "chip": "ym2612"
    },
    {
      "channel": 0,
      "note": 45,
      "start": 25.4925,
      "duration": 0.2128,
      "velocity": 125,
      "chip": "ym2612"
    },
    {
      "channel": 1,
      "note": 49,
      "start": 25.4957,
      "duration": 0.2097,
      "velocity": 105,
      "chip": "ym2612"
    },
    {
      "channel": 4,
      "note": 47,
      "start": 25.7114,
      "duration": 0.211,
      "velocity": 82,
      "chip": "ym2612"
    },
    {
      "channel": 1,
      "note": 49,
      "start": 25.7154,
      "duration": 0.2068,
      "velocity": 105,
      "chip": "ym2612"
    },
    {
      "channel": 2,
      "note": 47,
      "start": 25.928,
      "duration": 0.2116,
      "velocity": 82,
      "chip": "ym2612"
    },
    {
      "channel": 0,
      "note": 45,
      "start": 25.9314,
      "duration": 0.2078,
      "velocity": 125,
      "chip": "ym2612"
    },
    {
      "channel": 1,
      "note": 49,
      "start": 25.9345,
      "duration": 0.2048,
      "velocity": 105,
      "chip": "ym2612"
    },
    {
      "channel": 1,
      "note": 49,
      "start": 26.1439,
      "duration": 0.2123,
      "velocity": 105,
      "chip": "ym2612"
    },
    {
      "channel": 0,
      "note": 45,
      "start": 26.3602,
      "duration": 0.1961,
      "velocity": 125,
      "chip": "ym2612"
    },
    {
      "channel": 1,
      "note": 49,
      "start": 26.3634,
      "duration": 0.193,
      "velocity": 105,
      "chip": "ym2612"
    },
    {
      "channel": 2,
      "note": 47,
      "start": 26.5602,
      "duration": 0.2134,
      "velocity": 82,
      "chip": "ym2612"
    },
    {
      "channel": 1,
      "note": 49,
      "start": 26.5641,
      "duration": 0.2093,
      "velocity": 105,
      "chip": "ym2612"
    },
    {
      "channel": 2,
      "note": 47,
      "start": 26.7773,
      "duration": 0.2134,
      "velocity": 82,
      "chip": "ym2612"
    },
    {
      "channel": 0,
      "note": 45,
      "start": 26.7806,
      "duration": 0.2096,
      "velocity": 125,
      "chip": "ym2612"
    },
    {
      "channel": 1,
      "note": 49,
      "start": 26.7842,
      "duration": 0.2062,
      "velocity": 105,
      "chip": "ym2612"
    },
    {
      "channel": 3,
      "note": 70,
      "start": 26.9949,
      "duration": 0.1123,
      "velocity": 107,
      "chip": "ym2612"
    },
    {
      "channel": 1,
      "note": 49,
      "start": 26.9979,
      "duration": 0.2093,
      "velocity": 105,
      "chip": "ym2612"
    },
    {
      "channel": 3,
      "note": 70,
      "start": 27.112,
      "duration": 0.0953,
      "velocity": 107,
      "chip": "ym2612"
    },
    {
      "channel": 0,
      "note": 45,
      "start": 27.2113,
      "duration": 0.2128,
      "velocity": 125,
      "chip": "ym2612"
    },
    {
      "channel": 1,
      "note": 49,
      "start": 27.2145,
      "duration": 0.2098,
      "velocity": 105,
      "chip": "ym2612"
    },
    {
      "channel": 4,
      "note": 47,
      "start": 27.4277,
      "duration": 0.2135,
      "velocity": 82,
      "chip": "ym2612"
    },
    {
      "channel": 1,
      "note": 49,
      "start": 27.4316,
      "duration": 0.2094,
      "velocity": 105,
      "chip": "ym2612"
    },
    {
      "channel": 2,
      "note": 47,
      "start": 27.6454,
      "duration": 0.2131,
      "velocity": 82,
      "chip": "ym2612"
    },
    {
      "channel": 0,
      "note": 45,
      "start": 27.6487,
      "duration": 0.2093,
      "velocity": 125,
      "chip": "ym2612"
    },
    {
      "channel": 1,
      "note": 49,
      "start": 27.6519,
      "duration": 0.2063,
      "velocity": 105,
      "chip": "ym2612"
    },
    {
      "channel": 1,
      "note": 49,
      "start": 27.8628,
      "duration": 0.2121,
      "velocity": 105,
      "chip": "ym2612"
    },
    {
      "channel": 2,
      "note": 49,
      "start": 28.0789,
      "duration": 0.0963,
      "velocity": 82,
      "chip": "ym2612"
    },
    {
      "channel": 0,
      "note": 45,
      "start": 28.0823,
      "duration": 0.2096,
      "velocity": 125,
      "chip": "ym2612"
    },
    {
      "channel": 1,
      "note": 49,
      "start": 28.0854,
      "duration": 0.2066,
      "velocity": 105,
      "chip": "ym2612"
    },
    {
      "channel": 2,
      "note": 49,
      "start": 28.1788,
      "duration": 0.1135,
      "velocity": 82,
      "chip": "ym2612"
    },
    {
      "channel": 2,
      "note": 47,
      "start": 28.2961,
      "duration": 0.2131,
      "velocity": 82,
      "chip": "ym2612"
    },
    {
      "channel": 1,
      "note": 49,
      "start": 28.2999,
      "duration": 0.209,
      "velocity": 105,
      "chip": "ym2612"
    },
    {
      "channel": 2,
      "note": 47,
      "start": 28.5128,
      "duration": 0.2134,
      "velocity": 82,
      "chip": "ym2612"
    },
    {
      "channel": 0,
      "note": 45,
      "start": 28.5166,
      "duration": 0.2092,
      "velocity": 125,
      "chip": "ym2612"
    },
    {
      "channel": 1,
      "note": 49,
      "start": 28.5198,
      "duration": 0.2062,
      "velocity": 105,
      "chip": "ym2612"
    },
    {
      "channel": 3,
      "note": 68,
      "start": 28.7304,
      "duration": 0.0955,
      "velocity": 107,
      "chip": "ym2612"
    },
    {
      "channel": 1,
      "note": 49,
      "start": 28.7335,
      "duration": 0.1926,
      "velocity": 105,
      "chip": "ym2612"
    },
    {
      "channel": 3,
      "note": 68,
      "start": 28.8305,
      "duration": 0.0958,
      "velocity": 107,
      "chip": "ym2612"
    },
    {
      "channel": 0,
      "note": 45,
      "start": 28.9302,
      "duration": 0.2128,
      "velocity": 125,
      "chip": "ym2612"
    },
    {
      "channel": 1,
      "note": 49,
      "start": 28.9334,
      "duration": 0.2098,
      "velocity": 105,
      "chip": "ym2612"
    },
    {
      "channel": 4,
      "note": 47,
      "start": 29.1466,
      "duration": 0.2135,
      "velocity": 82,
      "chip": "ym2612"
    },
    {
      "channel": 1,
      "note": 49,
      "start": 29.1505,
      "duration": 0.2094,
      "velocity": 105,
      "chip": "ym2612"
    },
    {
      "channel": 2,
      "note": 47,
      "start": 29.3637,
      "duration": 0.2135,
      "velocity": 82,
      "chip": "ym2612"
    },
    {
      "channel": 0,
      "note": 45,
      "start": 29.3671,
      "duration": 0.2098,
      "velocity": 125,
      "chip": "ym2612"
    },
    {
      "channel": 1,
      "note": 49,
      "start": 29.3702,
      "duration": 0.2067,
      "velocity": 105,
      "chip": "ym2612"
    },
    {
      "channel": 1,
      "note": 49,
      "start": 29.5816,
      "duration": 0.2123,
      "velocity": 105,
      "chip": "ym2612"
    },
    {
      "channel": 0,
      "note": 45,
      "start": 29.7979,
      "duration": 0.2129,
      "velocity": 125,
      "chip": "ym2612"
    },
    {
      "channel": 1,
      "note": 49,
      "start": 29.8011,
      "duration": 0.2099,
      "velocity": 105,
      "chip": "ym2612"
    },
    {
      "channel": 1,
      "note": 49,
      "start": 30.0155,
      "duration": 0.2122,
      "velocity": 105,
      "chip": "ym2612"
    },
    {
      "channel": 2,
      "note": 47,
      "start": 30.2317,
      "duration": 0.2133,
      "velocity": 82,
      "chip": "ym2612"
    },
    {
      "channel": 0,
      "note": 45,
      "start": 30.2351,
      "duration": 0.2096,
      "velocity": 125,
      "chip": "ym2612"
    },
    {
      "channel": 1,
      "note": 49,
      "start": 30.2386,
      "duration": 0.2061,
      "velocity": 105,
      "chip": "ym2612"
    },
    {
      "channel": 3,
      "note": 68,
      "start": 30.4493,
      "duration": 0.0956,
      "velocity": 107,
      "chip": "ym2612"
    },
    {
      "channel": 1,
      "note": 49,
      "start": 30.4523,
      "duration": 0.2093,
      "velocity": 105,
      "chip": "ym2612"
    },
    {
      "channel": 3,
      "note": 67,
      "start": 30.5493,
      "duration": 0.1125,
      "velocity": 107,
      "chip": "ym2612"
    },
    {
      "channel": 0,
      "note": 45,
      "start": 30.6657,
      "duration": 0.2128,
      "velocity": 125,
      "chip": "ym2612"
    },
    {
      "channel": 1,
      "note": 49,
      "start": 30.6689,
      "duration": 0.2098,
      "velocity": 105,
      "chip": "ym2612"
    },
    {
      "channel": 4,
      "note": 47,
      "start": 30.8822,
      "duration": 0.2135,
      "velocity": 82,
      "chip": "ym2612"
    },
    {
      "channel": 1,
      "note": 49,
      "start": 30.8862,
      "duration": 0.2094,
      "velocity": 105,
      "chip": "ym2612"
    },
    {
      "channel": 0,
      "note": 45,
      "start": 31.0997,
      "duration": 0.1961,
      "velocity": 125,
      "chip": "ym2612"
    },
    {
      "channel": 1,
      "note": 53,
      "start": 31.1028,
      "duration": 0.193,
      "velocity": 105,
      "chip": "ym2612"
    },
    {
      "channel": 3,
      "note": 67,
      "start": 31.3002,
      "duration": 0.1124,
      "velocity": 107,
      "chip": "ym2612"
    },
    {
      "channel": 1,
      "note": 54,
      "start": 31.3033,
      "duration": 0.2094,
      "velocity": 105,
      "chip": "ym2612"
    },
    {
      "channel": 3,
      "note": 68,
      "start": 31.417,
      "duration": 0.0959,
      "velocity": 107,
      "chip": "ym2612"
    },
    {
      "channel": 2,
      "note": 49,
      "start": 31.5172,
      "duration": 0.1125,
      "velocity": 82,
      "chip": "ym2612"
    },
    {
      "channel": 0,
      "note": 45,
      "start": 31.5206,
      "duration": 0.209,
      "velocity": 125,
      "chip": "ym2612"
    },
    {
      "channel": 1,
      "note": 57,
      "start": 31.5238,
      "duration": 0.206,
      "velocity": 105,
      "chip": "ym2612"
    },
    {
      "channel": 2,
      "note": 49,
      "start": 31.6335,
      "duration": 0.0965,
      "velocity": 82,
      "chip": "ym2612"
    },
    {
      "channel": 3,
      "note": 67,
      "start": 31.7346,
      "duration": 0.112,
      "velocity": 107,
      "chip": "ym2612"
    },
    {
      "channel": 1,
      "note": 59,
      "start": 31.7377,
      "duration": 0.2089,
      "velocity": 105,
      "chip": "ym2612"
    },
    {
      "channel": 3,
      "note": 68,
      "start": 31.851,
      "duration": 0.0958,
      "velocity": 107,
      "chip": "ym2612"
    },
    {
      "channel": 0,
      "note": 45,
      "start": 31.9517,
      "duration": 0.2118,
      "velocity": 125,
      "chip": "ym2612"
    },
    {
      "channel": 1,
      "note": 49,
      "start": 31.9549,
      "duration": 0.2088,
      "velocity": 105,
      "chip": "ym2612"
    },
    {
      "channel": 3,
      "note": 71,
      "start": 32.168,
      "duration": 0.1124,
      "velocity": 107,
      "chip": "ym2612"
    },
    {
      "channel": 1,
      "note": 49,
      "start": 32.1711,
      "duration": 0.2095,
      "velocity": 105,
      "chip": "ym2612"
    },
    {
      "channel": 3,
      "note": 71,
      "start": 32.2849,
      "duration": 0.0958,
      "velocity": 107,
      "chip": "ym2612"
    },
    {
      "channel": 0,
      "note": 45,
      "start": 32.3846,
      "duration": 0.2128,
      "velocity": 125,
      "chip": "ym2612"
    },
    {
      "channel": 1,
      "note": 49,
      "start": 32.3878,
      "duration": 0.2097,
      "velocity": 105,
      "chip": "ym2612"
    },
    {
      "channel": 4,
      "note": 47,
      "start": 32.6018,
      "duration": 0.2128,
      "velocity": 82,
      "chip": "ym2612"
    },
    {
      "channel": 1,
      "note": 49,
      "start": 32.6058,
      "duration": 0.2087,
      "velocity": 105,
      "chip": "ym2612"
    },
    {
      "channel": 2,
      "note": 47,
      "start": 32.8185,
      "duration": 0.2132,
      "velocity": 82,
      "chip": "ym2612"
    },
    {
      "channel": 0,
      "note": 45,
      "start": 32.8219,
      "duration": 0.2095,
      "velocity": 125,
      "chip": "ym2612"
    },
    {
      "channel": 1,
      "note": 49,
      "start": 32.825,
      "duration": 0.2064,
      "velocity": 105,
      "chip": "ym2612"
    },
    {
      "channel": 1,
      "note": 49,
      "start": 33.0361,
      "duration": 0.2123,
      "velocity": 105,
      "chip": "ym2612"
    },
    {
      "channel": 0,
      "note": 45,
      "start": 33.2523,
      "duration": 0.2129,
      "velocity": 125,
      "chip": "ym2612"
    },
    {
      "channel": 1,
      "note": 49,
      "start": 33.2555,
      "duration": 0.2099,
      "velocity": 105,
      "chip": "ym2612"
    },
    {
      "channel": 2,
      "note": 47,
      "start": 33.4692,
      "duration": 0.1966,
      "velocity": 82,
      "chip": "ym2612"
    },
    {
      "channel": 1,
      "note": 49,
      "start": 33.4731,
      "duration": 0.1925,
      "velocity": 105,
      "chip": "ym2612"
    },
    {
      "channel": 2,
      "note": 47,
      "start": 33.6695,
      "duration": 0.2134,
      "velocity": 82,
      "chip": "ym2612"
    },
    {
      "channel": 0,
      "note": 45,
      "start": 33.6728,
      "duration": 0.2096,
      "velocity": 125,
      "chip": "ym2612"
    },
    {
      "channel": 1,
      "note": 49,
      "start": 33.6764,
      "duration": 0.2061,
      "velocity": 105,
      "chip": "ym2612"
    },
    {
      "channel": 3,
      "note": 70,
      "start": 33.8871,
      "duration": 0.1122,
      "velocity": 107,
      "chip": "ym2612"
    },
    {
      "channel": 1,
      "note": 49,
      "start": 33.8901,
      "duration": 0.2093,
      "velocity": 105,
      "chip": "ym2612"
    },
    {
      "channel": 3,
      "note": 70,
      "start": 34.0038,
      "duration": 0.0958,
      "velocity": 107,
      "chip": "ym2612"
    },
    {
      "channel": 0,
      "note": 45,
      "start": 34.1035,
      "duration": 0.2128,
      "velocity": 125,
      "chip": "ym2612"
    },
    {
      "channel": 1,
      "note": 49,
      "start": 34.1067,
      "duration": 0.2098,
      "velocity": 105,
      "chip": "ym2612"
    },
    {
      "channel": 4,
      "note": 47,
      "start": 34.3198,
      "duration": 0.2137,
      "velocity": 82,
      "chip": "ym2612"
    },
    {
      "channel": 1,
      "note": 49,
      "start": 34.3238,
      "duration": 0.2095,
      "velocity": 105,
      "chip": "ym2612"
    },
    {
      "channel": 2,
      "note": 47,
      "start": 34.5372,
      "duration": 0.2134,
      "velocity": 82,
      "chip": "ym2612"
    },
    {
      "channel": 0,
      "note": 45,
      "start": 34.5406,
      "duration": 0.2096,
      "velocity": 125,
      "chip": "ym2612"
    },
    {
      "channel": 1,
      "note": 49,
      "start": 34.5438,
      "duration": 0.2066,
      "velocity": 105,
      "chip": "ym2612"
    },
    {
      "channel": 1,
      "note": 49,
      "start": 34.7549,
      "duration": 0.2123,
      "velocity": 105,
      "chip": "ym2612"
    },
    {
      "channel": 2,
      "note": 49,
      "start": 34.9712,
      "duration": 0.0963,
      "velocity": 82,
      "chip": "ym2612"
    },
    {
      "channel": 0,
      "note": 45,
      "start": 34.9745,
      "duration": 0.2095,
      "velocity": 125,
      "chip": "ym2612"
    },
    {
      "channel": 1,
      "note": 49,
      "start": 34.9777,
      "duration": 0.2065,
      "velocity": 105,
      "chip": "ym2612"
    },
    {
      "channel": 2,
      "note": 49,
      "start": 35.0714,
      "duration": 0.1131,
      "velocity": 82,
      "chip": "ym2612"
    },
    {
      "channel": 2,
      "note": 47,
      "start": 35.1883,
      "duration": 0.213,
      "velocity": 82,
      "chip": "ym2612"
    },
    {
      "channel": 1,
      "note": 49,
      "start": 35.1921,
      "duration": 0.209,
      "velocity": 105,
      "chip": "ym2612"
    },
    {
      "channel": 2,
      "note": 47,
      "start": 35.405,
      "duration": 0.2135,
      "velocity": 82,
      "chip": "ym2612"
    },
    {
      "channel": 0,
      "note": 45,
      "start": 35.4087,
      "duration": 0.2093,
      "velocity": 125,
      "chip": "ym2612"
    },
    {
      "channel": 1,
      "note": 49,
      "start": 35.4119,
      "duration": 0.2063,
      "velocity": 105,
      "chip": "ym2612"
    },
    {
      "channel": 3,
      "note": 68,
      "start": 35.6227,
      "duration": 0.0955,
      "velocity": 107,
      "chip": "ym2612"
    },
    {
      "channel": 1,
      "note": 49,
      "start": 35.6257,
      "duration": 0.2093,
      "velocity": 105,
      "chip": "ym2612"
    },
    {
      "channel": 3,
      "note": 68,
      "start": 35.7231,
      "duration": 0.1121,
      "velocity": 107,
      "chip": "ym2612"
    },
    {
      "channel": 0,
      "note": 45,
      "start": 35.8391,
      "duration": 0.1961,
      "velocity": 125,
      "chip": "ym2612"
    },
    {
      "channel": 1,
      "note": 49,
      "start": 35.8423,
      "duration": 0.193,
      "velocity": 105,
      "chip": "ym2612"
    },
    {
      "channel": 4,
      "note": 47,
      "start": 36.0387,
      "duration": 0.2137,
      "velocity": 82,
      "chip": "ym2612"
    },
    {
      "channel": 1,
      "note": 49,
      "start": 36.0427,
      "duration": 0.2095,
      "velocity": 105,
      "chip": "ym2612"
    },
    {
      "channel": 2,
      "note": 47,
      "start": 36.2559,
      "duration": 0.2135,
      "velocity": 82,
      "chip": "ym2612"
    },
    {
      "channel": 0,
      "note": 45,
      "start": 36.2593,
      "duration": 0.2098,
      "velocity": 125,
      "chip": "ym2612"
    },
    {
      "channel": 1,
      "note": 49,
      "start": 36.2625,
      "duration": 0.2067,
      "velocity": 105,
      "chip": "ym2612"
    },
    {
      "channel": 1,
      "note": 49,
      "start": 36.4738,
      "duration": 0.2122,
      "velocity": 105,
      "chip": "ym2612"
    },
    {
      "channel": 0,
      "note": 45,
      "start": 36.69,
      "duration": 0.2129,
      "velocity": 125,
      "chip": "ym2612"
    },
    {
      "channel": 1,
      "note": 49,
      "start": 36.6932,
      "duration": 0.2099,
      "velocity": 105,
      "chip": "ym2612"
    },
    {
      "channel": 1,
      "note": 49,
      "start": 36.9076,
      "duration": 0.2124,
      "velocity": 105,
      "chip": "ym2612"
    },
    {
      "channel": 2,
      "note": 47,
      "start": 37.124,
      "duration": 0.2133,
      "velocity": 82,
      "chip": "ym2612"
    },
    {
      "channel": 0,
      "note": 45,
      "start": 37.1273,
      "duration": 0.2096,
      "velocity": 125,
      "chip": "ym2612"
    },
    {
      "channel": 1,
      "note": 49,
      "start": 37.1309,
      "duration": 0.2061,
      "velocity": 105,
      "chip": "ym2612"
    },
    {
      "channel": 3,
      "note": 68,
      "start": 37.3415,
      "duration": 0.0955,
      "velocity": 107,
      "chip": "ym2612"
    },
    {
      "channel": 1,
      "note": 49,
      "start": 37.3446,
      "duration": 0.2093,
      "velocity": 105,
      "chip": "ym2612"
    },
    {
      "channel": 3,
      "note": 67,
      "start": 37.4414,
      "duration": 0.1126,
      "velocity": 107,
      "chip": "ym2612"
    },
    {
      "channel": 0,
      "note": 45,
      "start": 37.558,
      "duration": 0.2128,
      "velocity": 125,
      "chip": "ym2612"
    },
    {
      "channel": 1,
      "note": 49,
      "start": 37.5612,
      "duration": 0.2098,
      "velocity": 105,
      "chip": "ym2612"
    },
    {
      "channel": 4,
      "note": 47,
      "start": 37.7745,
      "duration": 0.2135,
      "velocity": 82,
      "chip": "ym2612"
    },
    {
      "channel": 1,
      "note": 49,
      "start": 37.7784,
      "duration": 0.2094,
      "velocity": 105,
      "chip": "ym2612"
    },
    {
      "channel": 0,
      "note": 45,
      "start": 37.9919,
      "duration": 0.196,
      "velocity": 125,
      "chip": "ym2612"
    },
    {
      "channel": 3,
      "note": 67,
      "start": 37.995,
      "duration": 0.093,
      "velocity": 107,
      "chip": "ym2612"
    },
    {
      "channel": 1,
      "note": 55,
      "start": 37.9981,
      "duration": 0.19,
      "velocity": 105,
      "chip": "ym2612"
    },
    {
      "channel": 3,
      "note": 68,
      "start": 38.0922,
      "duration": 0.096,
      "velocity": 107,
      "chip": "ym2612"
    },
    {
      "channel": 3,
      "note": 67,
      "start": 38.1924,
      "duration": 0.1124,
      "velocity": 107,
      "chip": "ym2612"
    },
    {
      "channel": 1,
      "note": 56,
      "start": 38.1955,
      "duration": 0.2095,
      "velocity": 105,
      "chip": "ym2612"
    },
    {
      "channel": 3,
      "note": 68,
      "start": 38.309,
      "duration": 0.0961,
      "velocity": 107,
      "chip": "ym2612"
    },
    {
      "channel": 2,
      "note": 49,
      "start": 38.409,
      "duration": 0.113,
      "velocity": 82,
      "chip": "ym2612"
    },
    {
      "channel": 0,
      "note": 45,
      "start": 38.4124,
      "duration": 0.2094,
      "velocity": 125,
      "chip": "ym2612"
    },
    {
      "channel": 3,
      "note": 67,
      "start": 38.4153,
      "duration": 0.1065,
      "velocity": 107,
      "chip": "ym2612"
    },
    {
      "channel": 1,
      "note": 54,
      "start": 38.4184,
      "duration": 0.2036,
      "velocity": 105,
      "chip": "ym2612"
    },
    {
      "channel": 2,
      "note": 49,
      "start": 38.5255,
      "duration": 0.0967,
      "velocity": 82,
      "chip": "ym2612"
    },
    {
      "channel": 3,
      "note": 68,
      "start": 38.5291,
      "duration": 0.0929,
      "velocity": 107,
      "chip": "ym2612"
    },
    {
      "channel": 3,
      "note": 67,
      "start": 38.6265,
      "duration": 0.1123,
      "velocity": 107,
      "chip": "ym2612"
    },
    {
      "channel": 1,
      "note": 52,
      "start": 38.6296,
      "duration": 0.2093,
      "velocity": 105,
      "chip": "ym2612"
    },
    {
      "channel": 3,
      "note": 68,
      "start": 38.7429,
      "duration": 0.0961,
      "velocity": 107,
      "chip": "ym2612"
    },
    {
      "channel": 0,
      "note": 45,
      "start": 38.8443,
      "duration": 0.2115,
      "velocity": 125,
      "chip": "ym2612"
    },
    {
      "channel": 1,
      "note": 54,
      "start": 38.848,
      "duration": 0.2079,
      "velocity": 105,
      "chip": "ym2612"
    },
    {
      "channel": 5,
      "note": 73,
      "start": 38.8531,
      "duration": 0.2031,
      "velocity": 109,
      "chip": "ym2612"
    },
    {
      "channel": 4,
      "note": 78,
      "start": 38.8563,
      "duration": 0.1998,
      "velocity": 109,
      "chip": "ym2612"
    },
    {
      "channel": 2,
      "note": 81,
      "start": 38.8597,
      "duration": 0.1966,
      "velocity": 109,
      "chip": "ym2612"
    },
    {
      "channel": 1,
      "note": 54,
      "start": 39.0605,
      "duration": 0.2123,
      "velocity": 105,
      "chip": "ym2612"
    },
    {
      "channel": 3,
      "note": 81,
      "start": 39.0658,
      "duration": 0.2072,
      "velocity": 109,
      "chip": "ym2612"
    },
    {
      "channel": 0,
      "note": 78,
      "start": 39.069,
      "duration": 0.2037,
      "velocity": 109,
      "chip": "ym2612"
    },
    {
      "channel": 4,
      "note": 73,
      "start": 39.0724,
      "duration": 0.2007,
      "velocity": 109,
      "chip": "ym2612"
    },
    {
      "channel": 5,
      "note": 57,
      "start": 39.2768,
      "duration": 0.213,
      "velocity": 82,
      "chip": "ym2612"
    },
    {
      "channel": 2,
      "note": 45,
      "start": 39.2806,
      "duration": 0.2094,
      "velocity": 125,
      "chip": "ym2612"
    },
    {
      "channel": 1,
      "note": 54,
      "start": 39.2837,
      "duration": 0.2059,
      "velocity": 105,
      "chip": "ym2612"
    },
    {
      "channel": 1,
      "note": 54,
      "start": 39.4942,
      "duration": 0.2125,
      "velocity": 105,
      "chip": "ym2612"
    },
    {
      "channel": 0,
      "note": 71,
      "start": 39.4977,
      "duration": 0.2089,
      "velocity": 109,
      "chip": "ym2612"
    },
    {
      "channel": 3,
      "note": 76,
      "start": 39.5012,
      "duration": 0.2056,
      "velocity": 109,
      "chip": "ym2612"
    },
    {
      "channel": 4,
      "note": 80,
      "start": 39.5045,
      "duration": 0.2024,
      "velocity": 109,
      "chip": "ym2612"
    },
    {
      "channel": 2,
      "note": 45,
      "start": 39.7111,
      "duration": 0.213,
      "velocity": 125,
      "chip": "ym2612"
    },
    {
      "channel": 1,
      "note": 54,
      "start": 39.7142,
      "duration": 0.2094,
      "velocity": 105,
      "chip": "ym2612"
    },
    {
      "channel": 5,
      "note": 80,
      "start": 39.7178,
      "duration": 0.2061,
      "velocity": 109,
      "chip": "ym2612"
    },
    {
      "channel": 0,
      "note": 76,
      "start": 39.7214,
      "duration": 0.202,
      "velocity": 109,
      "chip": "ym2612"
    },
    {
      "channel": 3,
      "note": 71,
      "start": 39.7248,
      "duration": 0.1989,
      "velocity": 109,
      "chip": "ym2612"
    },
    {
      "channel": 4,
      "note": 57,
      "start": 39.9276,
      "duration": 0.2131,
      "velocity": 82,
      "chip": "ym2612"
    },
    {
      "channel": 1,
      "note": 54,
      "start": 39.9314,
      "duration": 0.209,
      "velocity": 105,
      "chip": "ym2612"
    },
    {
      "channel": 2,
      "note": 45,
      "start": 40.1448,
      "duration": 0.2132,
      "velocity": 125,
      "chip": "ym2612"
    },
    {
      "channel": 1,
      "note": 54,
      "start": 40.148,
      "duration": 0.2096,
      "velocity": 105,
      "chip": "ym2612"
    },
    {
      "channel": 0,
      "note": 78,
      "start": 40.1514,
      "duration": 0.206,
      "velocity": 109,
      "chip": "ym2612"
    },
    {
      "channel": 3,
      "note": 74,
      "start": 40.1546,
      "duration": 0.2031,
      "velocity": 109,
      "chip": "ym2612"
    },
    {
      "channel": 5,
      "note": 69,
      "start": 40.158,
      "duration": 0.1998,
      "velocity": 109,
      "chip": "ym2612"
    },
    {
      "channel": 4,
      "note": 57,
      "start": 40.3615,
      "duration": 0.1965,
      "velocity": 82,
      "chip": "ym2612"
    },
    {
      "channel": 1,
      "note": 54,
      "start": 40.3654,
      "duration": 0.1924,
      "velocity": 105,
      "chip": "ym2612"
    },
    {
      "channel": 0,
      "note": 69,
      "start": 40.369,
      "duration": 0.1887,
      "velocity": 109,
      "chip": "ym2612"
    },
    {
      "channel": 3,
      "note": 74,
      "start": 40.3722,
      "duration": 0.1857,
      "velocity": 109,
      "chip": "ym2612"
    },
    {
      "channel": 5,
      "note": 78,
      "start": 40.3757,
      "duration": 0.1825,
      "velocity": 109,
      "chip": "ym2612"
    },
    {
      "channel": 2,
      "note": 75,
      "start": 40.5639,
      "duration": 0.3612,
      "velocity": 118,
      "chip": "ym2612"
    },
    {
      "channel": 0,
      "note": 80,
      "start": 40.5671,
      "duration": 0.3577,
      "velocity": 118,
      "chip": "ym2612"
    },
    {
      "channel": 1,
      "note": 45,
      "start": 40.5704,
      "duration": 0.2043,
      "velocity": 125,
      "chip": "ym2612"
    },
    {
      "channel": 3,
      "note": 54,
      "start": 40.5741,
      "duration": 0.2007,
      "velocity": 105,
      "chip": "ym2612"
    },
    {
      "channel": 3,
      "note": 54,
      "start": 40.7793,
      "duration": 0.2124,
      "velocity": 105,
      "chip": "ym2612"
    },
    {
      "channel": 0,
      "note": 73,
      "start": 40.946,
      "duration": 0.1792,
      "velocity": 118,
      "chip": "ym2612"
    },
    {
      "channel": 2,
      "note": 78,
      "start": 40.9625,
      "duration": 0.1795,
      "velocity": 118,
      "chip": "ym2612"
    },
    {
      "channel": 1,
      "note": 45,
      "start": 40.9956,
      "duration": 0.2129,
      "velocity": 125,
      "chip": "ym2612"
    },
    {
      "channel": 3,
      "note": 54,
      "start": 40.9988,
      "duration": 0.2099,
      "velocity": 105,
      "chip": "ym2612"
    },
    {
      "channel": 0,
      "note": 75,
      "start": 41.2132,
      "duration": 0.3625,
      "velocity": 118,
      "chip": "ym2612"
    },
    {
      "channel": 2,
      "note": 80,
      "start": 41.2173,
      "duration": 0.3587,
      "velocity": 118,
      "chip": "ym2612"
    },
    {
      "channel": 3,
      "note": 54,
      "start": 41.2209,
      "duration": 0.2047,
      "velocity": 105,
      "chip": "ym2612"
    },
    {
      "channel": 1,
      "note": 45,
      "start": 41.4295,
      "duration": 0.2129,
      "velocity": 125,
      "chip": "ym2612"
    },
    {
      "channel": 3,
      "note": 54,
      "start": 41.4327,
      "duration": 0.2099,
      "velocity": 105,
      "chip": "ym2612"
    },
    {
      "channel": 0,
      "note": 73,
      "start": 41.5964,
      "duration": 0.1794,
      "velocity": 118,
      "chip": "ym2612"
    },
    {
      "channel": 2,
      "note": 78,
      "start": 41.6133,
      "duration": 0.1795,
      "velocity": 118,
      "chip": "ym2612"
    },
    {
      "channel": 3,
      "note": 54,
      "start": 41.647,
      "duration": 0.2124,
      "velocity": 105,
      "chip": "ym2612"
    },
    {
      "channel": 0,
      "note": 75,
      "start": 41.8634,
      "duration": 0.2129,
      "velocity": 118,
      "chip": "ym2612"
    },
    {
      "channel": 2,
      "note": 71,
      "start": 41.8665,
      "duration": 0.2103,
      "velocity": 118,
      "chip": "ym2612"
    },
    {
      "channel": 1,
      "note": 45,
      "start": 41.8714,
      "duration": 0.2051,
      "velocity": 125,
      "chip": "ym2612"
    },
    {
      "channel": 3,
      "note": 54,
      "start": 41.8746,
      "duration": 0.202,
      "velocity": 105,
      "chip": "ym2612"
    },
    {
      "channel": 0,
      "note": 69,
      "start": 42.0805,
      "duration": 0.2128,
      "velocity": 118,
      "chip": "ym2612"
    },
    {
      "channel": 2,
      "note": 73,
      "start": 42.0841,
      "duration": 0.2096,
      "velocity": 118,
      "chip": "ym2612"
    },
    {
      "channel": 3,
      "note": 54,
      "start": 42.0876,
      "duration": 0.2058,
      "velocity": 105,
      "chip": "ym2612"
    },
    {
      "channel": 4,
      "note": 75,
      "start": 42.2995,
      "duration": 0.3444,
      "velocity": 118,
      "chip": "ym2612"
    },
    {
      "channel": 5,
      "note": 80,
      "start": 42.3027,
      "duration": 0.3413,
      "velocity": 118,
      "chip": "ym2612"
    },
    {
      "channel": 1,
      "note": 45,
      "start": 42.3061,
      "duration": 0.2041,
      "velocity": 125,
      "chip": "ym2612"
    },
    {
      "channel": 3,
      "note": 54,
      "start": 42.3093,
      "duration": 0.2011,
      "velocity": 105,
      "chip": "ym2612"
    },
    {
      "channel": 3,
      "note": 54,
      "start": 42.5148,
      "duration": 0.2124,
      "velocity": 105,
      "chip": "ym2612"
    },
    {
      "channel": 4,
      "note": 73,
      "start": 42.6652,
      "duration": 0.1789,
      "velocity": 118,
      "chip": "ym2612"
    },
    {
      "channel": 5,
      "note": 78,
      "start": 42.6814,
      "duration": 0.1794,
      "velocity": 118,
      "chip": "ym2612"
    },
    {
      "channel": 1,
      "note": 45,
      "start": 42.7312,
      "duration": 0.1963,
      "velocity": 125,
      "chip": "ym2612"
    },
    {
      "channel": 3,
      "note": 54,
      "start": 42.7343,
      "duration": 0.1932,
      "velocity": 105,
      "chip": "ym2612"
    },
    {
      "channel": 4,
      "note": 75,
      "start": 42.9323,
      "duration": 0.3623,
      "velocity": 118,
      "chip": "ym2612"
    },
    {
      "channel": 5,
      "note": 80,
      "start": 42.9364,
      "duration": 0.3583,
      "velocity": 118,
      "chip": "ym2612"
    },
    {
      "channel": 3,
      "note": 54,
      "start": 42.9398,
      "duration": 0.2046,
      "velocity": 105,
      "chip": "ym2612"
    },
    {
      "channel": 1,
      "note": 45,
      "start": 43.1484,
      "duration": 0.2129,
      "velocity": 125,
      "chip": "ym2612"
    },
    {
      "channel": 3,
      "note": 54,
      "start": 43.1516,
      "duration": 0.2099,
      "velocity": 105,
      "chip": "ym2612"
    },
    {
      "channel": 4,
      "note": 73,
      "start": 43.3156,
      "duration": 0.1793,
      "velocity": 118,
      "chip": "ym2612"
    },
    {
      "channel": 5,
      "note": 78,
      "start": 43.3322,
      "duration": 0.1795,
      "velocity": 118,
      "chip": "ym2612"
    },
    {
      "channel": 3,
      "note": 54,
      "start": 43.3659,
      "duration": 0.2124,
      "velocity": 105,
      "chip": "ym2612"
    },
    {
      "channel": 4,
      "note": 75,
      "start": 43.5826,
      "duration": 0.2129,
      "velocity": 118,
      "chip": "ym2612"
    },
    {
      "channel": 5,
      "note": 71,
      "start": 43.5856,
      "duration": 0.21,
      "velocity": 118,
      "chip": "ym2612"
    },
    {
      "channel": 1,
      "note": 45,
      "start": 43.5904,
      "duration": 0.2048,
      "velocity": 125,
      "chip": "ym2612"
    },
    {
      "channel": 3,
      "note": 54,
      "start": 43.5936,
      "duration": 0.2017,
      "velocity": 105,
      "chip": "ym2612"
    },
    {
      "channel": 4,
      "note": 69,
      "start": 43.7996,
      "duration": 0.2127,
      "velocity": 118,
      "chip": "ym2612"
    },
    {
      "channel": 5,
      "note": 73,
      "start": 43.8032,
      "duration": 0.2093,
      "velocity": 118,
      "chip": "ym2612"
    },
    {
      "channel": 3,
      "note": 54,
      "start": 43.8066,
      "duration": 0.2056,
      "velocity": 105,
      "chip": "ym2612"
    },
    {
      "channel": 1,
      "note": 45,
      "start": 44.0163,
      "duration": 0.2128,
      "velocity": 125,
      "chip": "ym2612"
    },
    {
      "channel": 3,
      "note": 54,
      "start": 44.0199,
      "duration": 0.2093,
      "velocity": 105,
      "chip": "ym2612"
    },
    {
      "channel": 3,
      "note": 54,
      "start": 44.2367,
      "duration": 0.0,
      "velocity": 105,
      "chip": "ym2612"
    },
    {
      "channel": 1,
      "note": 45,
      "start": 44.2405,
      "duration": 0.002,
      "velocity": 125,
      "chip": "ym2612"
    },
    {
      "channel": 3,
      "note": 54,
      "start": 44.2424,
      "duration": 0.0001,
      "velocity": 105,
      "chip": "ym2612"
    },
    {
      "channel": 3,
      "note": 54,
      "start": 44.2444,
      "duration": 0.0,
      "velocity": 105,
      "chip": "ym2612"
    },
    {
      "channel": 0,
      "note": 58,
      "start": 44.2462,
      "duration": 0.0773,
      "velocity": 118,
      "chip": "ym2612"
    },
    {
      "channel": 4,
      "note": 58,
      "start": 44.248,
      "duration": 0.0759,
      "velocity": 118,
      "chip": "ym2612"
    },
    {
      "channel": 1,
      "note": 45,
      "start": 44.2498,
      "duration": 0.0739,
      "velocity": 125,
      "chip": "ym2612"
    },
    {
      "channel": 3,
      "note": 58,
      "start": 44.2517,
      "duration": 0.0721,
      "velocity": 105,
      "chip": "ym2612"
    },
    {
      "channel": 0,
      "note": 59,
      "start": 44.3277,
      "duration": 0.196,
      "velocity": 118,
      "chip": "ym2612"
    },
    {
      "channel": 4,
      "note": 59,
      "start": 44.3309,
      "duration": 0.1932,
      "velocity": 118,
      "chip": "ym2612"
    },
    {
      "channel": 3,
      "note": 59,
      "start": 44.3343,
      "duration": 0.1896,
      "velocity": 105,
      "chip": "ym2612"
    },
    {
      "channel": 0,
      "note": 62,
      "start": 44.5278,
      "duration": 0.213,
      "velocity": 118,
      "chip": "ym2612"
    },
    {
      "channel": 4,
      "note": 62,
      "start": 44.531,
      "duration": 0.2102,
      "velocity": 118,
      "chip": "ym2612"
    },
    {
      "channel": 1,
      "note": 45,
      "start": 44.5339,
      "duration": 0.207,
      "velocity": 125,
      "chip": "ym2612"
    },
    {
      "channel": 3,
      "note": 62,
      "start": 44.5371,
      "duration": 0.2039,
      "velocity": 105,
      "chip": "ym2612"
    },
    {
      "channel": 0,
      "note": 64,
      "start": 44.7452,
      "duration": 0.2125,
      "velocity": 118,
      "chip": "ym2612"
    },
    {
      "channel": 4,
      "note": 64,
      "start": 44.7487,
      "duration": 0.2093,
      "velocity": 118,
      "chip": "ym2612"
    },
    {
      "channel": 3,
      "note": 64,
      "start": 44.7521,
      "duration": 0.2057,
      "velocity": 105,
      "chip": "ym2612"
    },
    {
      "channel": 1,
      "note": 45,
      "start": 44.9634,
      "duration": 0.2114,
      "velocity": 125,
      "chip": "ym2612"
    },
    {
      "channel": 3,
      "note": 54,
      "start": 44.9665,
      "duration": 0.2083,
      "velocity": 105,
      "chip": "ym2612"
    },
    {
      "channel": 2,
      "note": 69,
      "start": 44.97,
      "duration": 0.2052,
      "velocity": 109,
      "chip": "ym2612"
    },
    {
      "channel": 5,
      "note": 73,
      "start": 44.9732,
      "duration": 0.2019,
      "velocity": 109,
      "chip": "ym2612"
    },
    {
      "channel": 0,
      "note": 78,
      "start": 44.9766,
      "duration": 0.198,
      "velocity": 109,
      "chip": "ym2612"
    },
    {
      "channel": 3,
      "note": 54,
      "start": 45.1795,
      "duration": 0.2123,
      "velocity": 105,
      "chip": "ym2612"
    },
    {
      "channel": 4,
      "note": 78,
      "start": 45.1831,
      "duration": 0.2088,
      "velocity": 109,
      "chip": "ym2612"
    },
    {
      "channel": 0,
      "note": 73,
      "start": 45.1863,
      "duration": 0.2052,
      "velocity": 109,
      "chip": "ym2612"
    },
    {
      "channel": 1,
      "note": 69,
      "start": 45.1896,
      "duration": 0.202,
      "velocity": 109,
      "chip": "ym2612"
    },
    {
      "channel": 5,
      "note": 57,
      "start": 45.3957,
      "duration": 0.2131,
      "velocity": 82,
      "chip": "ym2612"
    },
    {
      "channel": 2,
      "note": 45,
      "start": 45.3994,
      "duration": 0.2094,
      "velocity": 125,
      "chip": "ym2612"
    },
    {
      "channel": 3,
      "note": 54,
      "start": 45.4026,
      "duration": 0.2059,
      "velocity": 105,
      "chip": "ym2612"
    },
    {
      "channel": 3,
      "note": 54,
      "start": 45.6131,
      "duration": 0.2126,
      "velocity": 105,
      "chip": "ym2612"
    },
    {
      "channel": 0,
      "note": 68,
      "start": 45.6166,
      "duration": 0.2089,
      "velocity": 109,
      "chip": "ym2612"
    },
    {
      "channel": 1,
      "note": 71,
      "start": 45.6201,
      "duration": 0.2054,
      "velocity": 109,
      "chip": "ym2612"
    },
    {
      "channel": 4,
      "note": 76,
      "start": 45.6234,
      "duration": 0.2024,
      "velocity": 109,
      "chip": "ym2612"
    },
    {
      "channel": 2,
      "note": 45,
      "start": 45.83,
      "duration": 0.213,
      "velocity": 125,
      "chip": "ym2612"
    },
    {
      "channel": 3,
      "note": 54,
      "start": 45.8332,
      "duration": 0.2095,
      "velocity": 105,
      "chip": "ym2612"
    },
    {
      "channel": 5,
      "note": 76,
      "start": 45.8368,
      "duration": 0.2061,
      "velocity": 109,
      "chip": "ym2612"
    },
    {
      "channel": 0,
      "note": 71,
      "start": 45.8404,
      "duration": 0.202,
      "velocity": 109,
      "chip": "ym2612"
    },
    {
      "channel": 1,
      "note": 68,
      "start": 45.8438,
      "duration": 0.1988,
      "velocity": 109,
      "chip": "ym2612"
    },
    {
      "channel": 4,
      "note": 57,
      "start": 46.0465,
      "duration": 0.213,
      "velocity": 82,
      "chip": "ym2612"
    },
    {
      "channel": 3,
      "note": 54,
      "start": 46.0505,
      "duration": 0.209,
      "velocity": 105,
      "chip": "ym2612"
    },
    {
      "channel": 2,
      "note": 45,
      "start": 46.2637,
      "duration": 0.2131,
      "velocity": 125,
      "chip": "ym2612"
    },
    {
      "channel": 3,
      "note": 54,
      "start": 46.2669,
      "duration": 0.2096,
      "velocity": 105,
      "chip": "ym2612"
    },
    {
      "channel": 0,
      "note": 78,
      "start": 46.2703,
      "duration": 0.2059,
      "velocity": 109,
      "chip": "ym2612"
    },
    {
      "channel": 1,
      "note": 74,
      "start": 46.2735,
      "duration": 0.2029,
      "velocity": 109,
      "chip": "ym2612"
    },
    {
      "channel": 5,
      "note": 69,
      "start": 46.2768,
      "duration": 0.1998,
      "velocity": 109,
      "chip": "ym2612"
    },
    {
      "channel": 4,
      "note": 57,
      "start": 46.4803,
      "duration": 0.2133,
      "velocity": 82,
      "chip": "ym2612"
    },
    {
      "channel": 3,
      "note": 54,
      "start": 46.4842,
      "duration": 0.2092,
      "velocity": 105,
      "chip": "ym2612"
    },
    {
      "channel": 0,
      "note": 69,
      "start": 46.488,
      "duration": 0.2052,
      "velocity": 109,
      "chip": "ym2612"
    },
    {
      "channel": 1,
      "note": 74,
      "start": 46.4912,
      "duration": 0.2022,
      "velocity": 109,
      "chip": "ym2612"
    },
    {
      "channel": 5,
      "note": 78,
      "start": 46.4945,
      "duration": 0.1992,
      "velocity": 109,
      "chip": "ym2612"
    },
    {
      "channel": 2,
      "note": 90,
      "start": 46.6994,
      "duration": 0.0943,
      "velocity": 97,
      "chip": "ym2612"
    },
    {
      "channel": 0,
      "note": 45,
      "start": 46.7029,
      "duration": 0.1905,
      "velocity": 125,
      "chip": "ym2612"
    },
    {
      "channel": 3,
      "note": 54,
      "start": 46.7065,
      "duration": 0.1872,
      "velocity": 105,
      "chip": "ym2612"
    },
    {
      "channel": 2,
      "note": 93,
      "start": 46.7973,
      "duration": 0.0967,
      "velocity": 97,
      "chip": "ym2612"
    },
    {
      "channel": 1,
      "note": 90,
      "start": 46.8024,
      "duration": 0.0912,
      "velocity": 97,
      "chip": "ym2612"
    },
    {
      "channel": 2,
      "note": 90,
      "start": 46.8976,
      "duration": 0.113,
      "velocity": 97,
      "chip": "ym2612"
    },
    {
      "channel": 1,
      "note": 93,
      "start": 46.9006,
      "duration": 0.1098,
      "velocity": 97,
      "chip": "ym2612"
    },
    {
      "channel": 3,
      "note": 54,
      "start": 46.9042,
      "duration": 0.2064,
      "velocity": 105,
      "chip": "ym2612"
    },
    {
      "channel": 2,
      "note": 88,
      "start": 47.0143,
      "duration": 0.0966,
      "velocity": 97,
      "chip": "ym2612"
    },
    {
      "channel": 1,
      "note": 90,
      "start": 47.0173,
      "duration": 0.0932,
      "velocity": 97,
      "chip": "ym2612"
    },
    {
      "channel": 2,
      "note": 81,
      "start": 47.1145,
      "duration": 0.1131,
      "velocity": 97,
      "chip": "ym2612"
    },
    {
      "channel": 1,
      "note": 88,
      "start": 47.1175,
      "duration": 0.1098,
      "velocity": 97,
      "chip": "ym2612"
    },
    {
      "channel": 0,
      "note": 45,
      "start": 47.1206,
      "duration": 0.2068,
      "velocity": 125,
      "chip": "ym2612"
    },
    {
      "channel": 3,
      "note": 54,
      "start": 47.1238,
      "duration": 0.2039,
      "velocity": 105,
      "chip": "ym2612"
    },
    {
      "channel": 2,
      "note": 83,
      "start": 47.2316,
      "duration": 0.0964,
      "velocity": 97,
      "chip": "ym2612"
    },
    {
      "channel": 1,
      "note": 81,
      "start": 47.2346,
      "duration": 0.093,
      "velocity": 97,
      "chip": "ym2612"
    },
    {
      "channel": 2,
      "note": 81,
      "start": 47.3316,
      "duration": 0.113,
      "velocity": 97,
      "chip": "ym2612"
    },
    {
      "channel": 1,
      "note": 83,
      "start": 47.335,
      "duration": 0.1093,
      "velocity": 97,
      "chip": "ym2612"
    },
    {
      "channel": 3,
      "note": 54,
      "start": 47.3386,
      "duration": 0.2059,
      "velocity": 105,
      "chip": "ym2612"
    },
    {
      "channel": 2,
      "note": 78,
      "start": 47.4482,
      "duration": 0.0966,
      "velocity": 97,
      "chip": "ym2612"
    },
    {
      "channel": 1,
      "note": 81,
      "start": 47.4512,
      "duration": 0.0932,
      "velocity": 97,
      "chip": "ym2612"
    },
    {
      "channel": 2,
      "note": 81,
      "start": 47.5484,
      "duration": 0.1131,
      "velocity": 97,
      "chip": "ym2612"
    },
    {
      "channel": 1,
      "note": 78,
      "start": 47.5514,
      "duration": 0.1098,
      "velocity": 97,
      "chip": "ym2612"
    },
    {
      "channel": 0,
      "note": 45,
      "start": 47.5546,
      "duration": 0.2067,
      "velocity": 125,
      "chip": "ym2612"
    },
    {
      "channel": 3,
      "note": 54,
      "start": 47.5577,
      "duration": 0.2038,
      "velocity": 105,
      "chip": "ym2612"
    },
    {
      "channel": 2,
      "note": 83,
      "start": 47.6651,
      "duration": 0.0967,
      "velocity": 97,
      "chip": "ym2612"
    },
    {
      "channel": 1,
      "note": 81,
      "start": 47.6681,
      "duration": 0.0933,
      "velocity": 97,
      "chip": "ym2612"
    },
    {
      "channel": 2,
      "note": 81,
      "start": 47.7654,
      "duration": 0.113,
      "velocity": 97,
      "chip": "ym2612"
    },
    {
      "channel": 1,
      "note": 83,
      "start": 47.7684,
      "duration": 0.1097,
      "velocity": 97,
      "chip": "ym2612"
    },
    {
      "channel": 3,
      "note": 54,
      "start": 47.7721,
      "duration": 0.2063,
      "velocity": 105,
      "chip": "ym2612"
    },
    {
      "channel": 2,
      "note": 78,
      "start": 47.8821,
      "duration": 0.0965,
      "velocity": 97,
      "chip": "ym2612"
    },
    {
      "channel": 1,
      "note": 81,
      "start": 47.8851,
      "duration": 0.0932,
      "velocity": 97,
      "chip": "ym2612"
    },
    {
      "channel": 2,
      "note": 74,
      "start": 47.9823,
      "duration": 0.0964,
      "velocity": 97,
      "chip": "ym2612"
    },
    {
      "channel": 1,
      "note": 78,
      "start": 47.9853,
      "duration": 0.0931,
      "velocity": 97,
      "chip": "ym2612"
    },
    {
      "channel": 0,
      "note": 45,
      "start": 47.9884,
      "duration": 0.2067,
      "velocity": 125,
      "chip": "ym2612"
    },
    {
      "channel": 3,
      "note": 54,
      "start": 47.9916,
      "duration": 0.2038,
      "velocity": 105,
      "chip": "ym2612"
    },
    {
      "channel": 2,
      "note": 76,
      "start": 48.0823,
      "duration": 0.1133,
      "velocity": 97,
      "chip": "ym2612"
    },
    {
      "channel": 1,
      "note": 74,
      "start": 48.0853,
      "duration": 0.11,
      "velocity": 97,
      "chip": "ym2612"
    },
    {
      "channel": 2,
      "note": 74,
      "start": 48.1993,
      "duration": 0.0964,
      "velocity": 97,
      "chip": "ym2612"
    },
    {
      "channel": 1,
      "note": 76,
      "start": 48.2023,
      "duration": 0.0931,
      "velocity": 97,
      "chip": "ym2612"
    },
    {
      "channel": 3,
      "note": 54,
      "start": 48.2059,
      "duration": 0.2064,
      "velocity": 105,
      "chip": "ym2612"
    },
    {
      "channel": 2,
      "note": 71,
      "start": 48.2993,
      "duration": 0.1132,
      "velocity": 97,
      "chip": "ym2612"
    },
    {
      "channel": 1,
      "note": 74,
      "start": 48.3023,
      "duration": 0.1099,
      "velocity": 97,
      "chip": "ym2612"
    },
    {
      "channel": 2,
      "note": 78,
      "start": 48.4161,
      "duration": 0.0965,
      "velocity": 97,
      "chip": "ym2612"
    },
    {
      "channel": 1,
      "note": 71,
      "start": 48.4191,
      "duration": 0.0932,
      "velocity": 97,
      "chip": "ym2612"
    },
    {
      "channel": 0,
      "note": 45,
      "start": 48.4227,
      "duration": 0.2064,
      "velocity": 125,
      "chip": "ym2612"
    },
    {
      "channel": 3,
      "note": 54,
      "start": 48.4258,
      "duration": 0.2035,
      "velocity": 105,
      "chip": "ym2612"
    },
    {
      "channel": 2,
      "note": 81,
      "start": 48.5163,
      "duration": 0.1133,
      "velocity": 97,
      "chip": "ym2612"
    },
    {
      "channel": 1,
      "note": 78,
      "start": 48.5193,
      "duration": 0.11,
      "velocity": 97,
      "chip": "ym2612"
    },
    {
      "channel": 2,
      "note": 78,
      "start": 48.6332,
      "duration": 0.0962,
      "velocity": 97,
      "chip": "ym2612"
    },
    {
      "channel": 1,
      "note": 81,
      "start": 48.6362,
      "duration": 0.0929,
      "velocity": 97,
      "chip": "ym2612"
    },
    {
      "channel": 3,
      "note": 54,
      "start": 48.6399,
      "duration": 0.2063,
      "velocity": 105,
      "chip": "ym2612"
    },
    {
      "channel": 2,
      "note": 76,
      "start": 48.7331,
      "duration": 0.1134,
      "velocity": 97,
      "chip": "ym2612"
    },
    {
      "channel": 1,
      "note": 78,
      "start": 48.7361,
      "duration": 0.11,
      "velocity": 97,
      "chip": "ym2612"
    },
    {
      "channel": 2,
      "note": 69,
      "start": 48.8501,
      "duration": 0.0964,
      "velocity": 97,
      "chip": "ym2612"
    },
    {
      "channel": 1,
      "note": 76,
      "start": 48.8531,
      "duration": 0.0931,
      "velocity": 97,
      "chip": "ym2612"
    },
    {
      "channel": 0,
      "note": 45,
      "start": 48.8562,
      "duration": 0.19,
      "velocity": 125,
      "chip": "ym2612"
    },
    {
      "channel": 3,
      "note": 54,
      "start": 48.8594,
      "duration": 0.1871,
      "velocity": 105,
      "chip": "ym2612"
    },
    {
      "channel": 2,
      "note": 71,
      "start": 48.9505,
      "duration": 0.0962,
      "velocity": 97,
      "chip": "ym2612"
    },
    {
      "channel": 1,
      "note": 69,
      "start": 48.9535,
      "duration": 0.0929,
      "velocity": 97,
      "chip": "ym2612"
    },
    {
      "channel": 2,
      "note": 69,
      "start": 49.0504,
      "duration": 0.113,
      "velocity": 97,
      "chip": "ym2612"
    },
    {
      "channel": 1,
      "note": 71,
      "start": 49.0538,
      "duration": 0.1093,
      "velocity": 97,
      "chip": "ym2612"
    },
    {
      "channel": 3,
      "note": 54,
      "start": 49.0574,
      "duration": 0.2061,
      "velocity": 105,
      "chip": "ym2612"
    },
    {
      "channel": 2,
      "note": 66,
      "start": 49.167,
      "duration": 0.0967,
      "velocity": 97,
      "chip": "ym2612"
    },
    {
      "channel": 1,
      "note": 69,
      "start": 49.17,
      "duration": 0.0933,
      "velocity": 97,
      "chip": "ym2612"
    },
    {
      "channel": 2,
      "note": 69,
      "start": 49.2673,
      "duration": 0.1131,
      "velocity": 97,
      "chip": "ym2612"
    },
    {
      "channel": 1,
      "note": 66,
      "start": 49.2703,
      "duration": 0.1098,
      "velocity": 97,
      "chip": "ym2612"
    },
    {
      "channel": 0,
      "note": 45,
      "start": 49.2735,
      "duration": 0.2067,
      "velocity": 125,
      "chip": "ym2612"
    },
    {
      "channel": 3,
      "note": 54,
      "start": 49.2766,
      "duration": 0.2038,
      "velocity": 105,
      "chip": "ym2612"
    },
    {
      "channel": 2,
      "note": 71,
      "start": 49.384,
      "duration": 0.0966,
      "velocity": 97,
      "chip": "ym2612"
    },
    {
      "channel": 1,
      "note": 69,
      "start": 49.387,
      "duration": 0.0933,
      "velocity": 97,
      "chip": "ym2612"
    },
    {
      "channel": 2,
      "note": 69,
      "start": 49.4843,
      "duration": 0.1129,
      "velocity": 97,
      "chip": "ym2612"
    },
    {
      "channel": 1,
      "note": 71,
      "start": 49.4873,
      "duration": 0.1096,
      "velocity": 97,
      "chip": "ym2612"
    },
    {
      "channel": 3,
      "note": 54,
      "start": 49.491,
      "duration": 0.2063,
      "velocity": 105,
      "chip": "ym2612"
    },
    {
      "channel": 2,
      "note": 66,
      "start": 49.6009,
      "duration": 0.0967,
      "velocity": 97,
      "chip": "ym2612"
    },
    {
      "channel": 1,
      "note": 69,
      "start": 49.6039,
      "duration": 0.0933,
      "velocity": 97,
      "chip": "ym2612"
    },
    {
      "channel": 2,
      "note": 62,
      "start": 49.7012,
      "duration": 0.1131,
      "velocity": 97,
      "chip": "ym2612"
    },
    {
      "channel": 1,
      "note": 66,
      "start": 49.7042,
      "duration": 0.1098,
      "velocity": 97,
      "chip": "ym2612"
    },
    {
      "channel": 0,
      "note": 45,
      "start": 49.7073,
      "duration": 0.2067,
      "velocity": 125,
      "chip": "ym2612"
    },
    {
      "channel": 3,
      "note": 54,
      "start": 49.7105,
      "duration": 0.2038,
      "velocity": 105,
      "chip": "ym2612"
    },
    {
      "channel": 2,
      "note": 64,
      "start": 49.8179,
      "duration": 0.0967,
      "velocity": 97,
      "chip": "ym2612"
    },
    {
      "channel": 1,
      "note": 62,
      "start": 49.8209,
      "duration": 0.0933,
      "velocity": 97,
      "chip": "ym2612"
    },
    {
      "channel": 2,
      "note": 62,
      "start": 49.9182,
      "duration": 0.113,
      "velocity": 97,
      "chip": "ym2612"
    },
    {
      "channel": 1,
      "note": 64,
      "start": 49.9212,
      "duration": 0.1097,
      "velocity": 97,
      "chip": "ym2612"
    },
    {
      "channel": 3,
      "note": 54,
      "start": 49.9249,
      "duration": 0.2063,
      "velocity": 105,
      "chip": "ym2612"
    },
    {
      "channel": 2,
      "note": 59,
      "start": 50.0349,
      "duration": 0.0965,
      "velocity": 97,
      "chip": "ym2612"
    },
    {
      "channel": 1,
      "note": 62,
      "start": 50.0379,
      "duration": 0.0932,
      "velocity": 97,
      "chip": "ym2612"
    },
    {
      "channel": 1,
      "note": 59,
      "start": 50.1351,
      "duration": 0.096,
      "velocity": 97,
      "chip": "ym2612"
    },
    {
      "channel": 0,
      "note": 45,
      "start": 50.1383,
      "duration": 0.2097,
      "velocity": 125,
      "chip": "ym2612"
    },
    {
      "channel": 3,
      "note": 54,
      "start": 50.1418,
      "duration": 0.2063,
      "velocity": 105,
      "chip": "ym2612"
    },
    {
      "channel": 3,
      "note": 54,
      "start": 50.3541,
      "duration": 0.0,
      "velocity": 105,
      "chip": "ym2612"
    },
    {
      "channel": 0,
      "note": 45,
      "start": 50.3578,
      "duration": 0.002,
      "velocity": 125,
      "chip": "ym2612"
    },
    {
      "channel": 3,
      "note": 54,
      "start": 50.3597,
      "duration": 0.0001,
      "velocity": 105,
      "chip": "ym2612"
    },
    {
      "channel": 3,
      "note": 54,
      "start": 50.3617,
      "duration": 0.0,
      "velocity": 105,
      "chip": "ym2612"
    },
    {
      "channel": 4,
      "note": 60,
      "start": 50.3638,
      "duration": 0.0788,
      "velocity": 118,
      "chip": "ym2612"
    },
    {
      "channel": 2,
      "note": 60,
      "start": 50.3658,
      "duration": 0.0769,
      "velocity": 118,
      "chip": "ym2612"
    },
    {
      "channel": 0,
      "note": 45,
      "start": 50.3675,
      "duration": 0.0747,
      "velocity": 125,
      "chip": "ym2612"
    },
    {
      "channel": 3,
      "note": 60,
      "start": 50.3694,
      "duration": 0.073,
      "velocity": 105,
      "chip": "ym2612"
    },
    {
      "channel": 4,
      "note": 61,
      "start": 50.4465,
      "duration": 0.1963,
      "velocity": 118,
      "chip": "ym2612"
    },
    {
      "channel": 2,
      "note": 61,
      "start": 50.4498,
      "duration": 0.1932,
      "velocity": 118,
      "chip": "ym2612"
    },
    {
      "channel": 3,
      "note": 61,
      "start": 50.4532,
      "duration": 0.1895,
      "velocity": 105,
      "chip": "ym2612"
    },
    {
      "channel": 4,
      "note": 59,
      "start": 50.6471,
      "duration": 0.2127,
      "velocity": 118,
      "chip": "ym2612"
    },
    {
      "channel": 2,
      "note": 59,
      "start": 50.6504,
      "duration": 0.2095,
      "velocity": 118,
      "chip": "ym2612"
    },
    {
      "channel": 0,
      "note": 45,
      "start": 50.6534,
      "duration": 0.206,
      "velocity": 125,
      "chip": "ym2612"
    },
    {
      "channel": 3,
      "note": 59,
      "start": 50.6566,
      "duration": 0.203,
      "velocity": 105,
      "chip": "ym2612"
    },
    {
      "channel": 4,
      "note": 57,
      "start": 50.864,
      "duration": 0.196,
      "velocity": 118,
      "chip": "ym2612"
    },
    {
      "channel": 2,
      "note": 57,
      "start": 50.868,
      "duration": 0.1921,
      "velocity": 118,
      "chip": "ym2612"
    },
    {
      "channel": 3,
      "note": 57,
      "start": 50.8718,
      "duration": 0.188,
      "velocity": 105,
      "chip": "ym2612"
    },
    {
      "channel": 2,
      "note": 44,
      "start": 51.0952,
      "duration": 1.7172,
      "velocity": 117,
      "chip": "ym2612"
    },
    {
      "channel": 0,
      "note": 45,
      "start": 51.1024,
      "duration": 0.191,
      "velocity": 125,
      "chip": "ym2612"
    },
    {
      "channel": 3,
      "note": 49,
      "start": 51.1078,
      "duration": 0.1858,
      "velocity": 105,
      "chip": "ym2612"
    },
    {
      "channel": 5,
      "note": 44,
      "start": 51.2002,
      "duration": 1.7121,
      "velocity": 117,
      "chip": "ym2612"
    },
    {
      "channel": 3,
      "note": 49,
      "start": 51.2994,
      "duration": 0.211,
      "velocity": 105,
      "chip": "ym2612"
    },
    {
      "channel": 0,
      "note": 45,
      "start": 51.5157,
      "duration": 0.2115,
      "velocity": 125,
      "chip": "ym2612"
    },
    {
      "channel": 3,
      "note": 49,
      "start": 51.5188,
      "duration": 0.2086,
      "velocity": 105,
      "chip": "ym2612"
    },
    {
      "channel": 3,
      "note": 49,
      "start": 51.7336,
      "duration": 0.2107,
      "velocity": 105,
      "chip": "ym2612"
    },
    {
      "channel": 1,
      "note": 47,
      "start": 51.7488,
      "duration": 0.2129,
      "velocity": 82,
      "chip": "ym2612"
    },
    {
      "channel": 4,
      "note": 47,
      "start": 51.9498,
      "duration": 0.2116,
      "velocity": 82,
      "chip": "ym2612"
    },
    {
      "channel": 0,
      "note": 45,
      "start": 51.9554,
      "duration": 0.2057,
      "velocity": 125,
      "chip": "ym2612"
    },
    {
      "channel": 3,
      "note": 49,
      "start": 51.9585,
      "duration": 0.2028,
      "velocity": 105,
      "chip": "ym2612"
    },
    {
      "channel": 3,
      "note": 49,
      "start": 52.1676,
      "duration": 0.2107,
      "velocity": 105,
      "chip": "ym2612"
    },
    {
      "channel": 0,
      "note": 45,
      "start": 52.3824,
      "duration": 0.2127,
      "velocity": 125,
      "chip": "ym2612"
    },
    {
      "channel": 3,
      "note": 49,
      "start": 52.3855,
      "duration": 0.2098,
      "velocity": 105,
      "chip": "ym2612"
    },
    {
      "channel": 4,
      "note": 47,
      "start": 52.5989,
      "duration": 0.2134,
      "velocity": 82,
      "chip": "ym2612"
    },
    {
      "channel": 3,
      "note": 49,
      "start": 52.6029,
      "duration": 0.2092,
      "velocity": 105,
      "chip": "ym2612"
    },
    {
      "channel": 4,
      "note": 47,
      "start": 52.8159,
      "duration": 0.1967,
      "velocity": 82,
      "chip": "ym2612"
    },
    {
      "channel": 2,
      "note": 47,
      "start": 52.8198,
      "duration": 1.7115,
      "velocity": 117,
      "chip": "ym2612"
    },
    {
      "channel": 0,
      "note": 45,
      "start": 52.8234,
      "duration": 0.189,
      "velocity": 125,
      "chip": "ym2612"
    },
    {
      "channel": 3,
      "note": 49,
      "start": 52.8269,
      "duration": 0.1856,
      "velocity": 105,
      "chip": "ym2612"
    },
    {
      "channel": 5,
      "note": 47,
      "start": 52.9172,
      "duration": 1.714,
      "velocity": 117,
      "chip": "ym2612"
    },
    {
      "channel": 3,
      "note": 49,
      "start": 53.0184,
      "duration": 0.2109,
      "velocity": 105,
      "chip": "ym2612"
    },
    {
      "channel": 0,
      "note": 45,
      "start": 53.2347,
      "duration": 0.2115,
      "velocity": 125,
      "chip": "ym2612"
    },
    {
      "channel": 3,
      "note": 49,
      "start": 53.2378,
      "duration": 0.2086,
      "velocity": 105,
      "chip": "ym2612"
    },
    {
      "channel": 3,
      "note": 49,
      "start": 53.4522,
      "duration": 0.2111,
      "velocity": 105,
      "chip": "ym2612"
    },
    {
      "channel": 1,
      "note": 47,
      "start": 53.4661,
      "duration": 0.2138,
      "velocity": 82,
      "chip": "ym2612"
    },
    {
      "channel": 4,
      "note": 47,
      "start": 53.6672,
      "duration": 0.2132,
      "velocity": 82,
      "chip": "ym2612"
    },
    {
      "channel": 0,
      "note": 45,
      "start": 53.672,
      "duration": 0.2081,
      "velocity": 125,
      "chip": "ym2612"
    },
    {
      "channel": 3,
      "note": 49,
      "start": 53.6751,
      "duration": 0.2051,
      "velocity": 105,
      "chip": "ym2612"
    },
    {
      "channel": 3,
      "note": 49,
      "start": 53.8869,
      "duration": 0.2102,
      "velocity": 105,
      "chip": "ym2612"
    },
    {
      "channel": 4,
      "note": 49,
      "start": 54.1008,
      "duration": 0.0964,
      "velocity": 82,
      "chip": "ym2612"
    },
    {
      "channel": 0,
      "note": 45,
      "start": 54.1064,
      "duration": 0.2075,
      "velocity": 125,
      "chip": "ym2612"
    },
    {
      "channel": 3,
      "note": 49,
      "start": 54.1095,
      "duration": 0.2046,
      "velocity": 105,
      "chip": "ym2612"
    },
    {
      "channel": 4,
      "note": 49,
      "start": 54.2007,
      "duration": 0.1136,
      "velocity": 82,
      "chip": "ym2612"
    },
    {
      "channel": 4,
      "note": 47,
      "start": 54.318,
      "duration": 0.2131,
      "velocity": 82,
      "chip": "ym2612"
    },
    {
      "channel": 3,
      "note": 49,
      "start": 54.322,
      "duration": 0.209,
      "velocity": 105,
      "chip": "ym2612"
    },
    {
      "channel": 4,
      "note": 47,
      "start": 54.5347,
      "duration": 0.2134,
      "velocity": 82,
      "chip": "ym2612"
    },
    {
      "channel": 2,
      "note": 44,
      "start": 54.5386,
      "duration": 1.7115,
      "velocity": 117,
      "chip": "ym2612"
    },
    {
      "channel": 0,
      "note": 45,
      "start": 54.542,
      "duration": 0.2058,
      "velocity": 125,
      "chip": "ym2612"
    },
    {
      "channel": 3,
      "note": 49,
      "start": 54.5451,
      "duration": 0.2029,
      "velocity": 105,
      "chip": "ym2612"
    },
    {
      "channel": 5,
      "note": 44,
      "start": 54.6366,
      "duration": 1.7302,
      "velocity": 117,
      "chip": "ym2612"
    },
    {
      "channel": 3,
      "note": 49,
      "start": 54.7547,
      "duration": 0.2102,
      "velocity": 105,
      "chip": "ym2612"
    },
    {
      "channel": 0,
      "note": 45,
      "start": 54.971,
      "duration": 0.2107,
      "velocity": 125,
      "chip": "ym2612"
    },
    {
      "channel": 3,
      "note": 49,
      "start": 54.9741,
      "duration": 0.2078,
      "velocity": 105,
      "chip": "ym2612"
    },
    {
      "channel": 3,
      "note": 49,
      "start": 55.1877,
      "duration": 0.1944,
      "velocity": 105,
      "chip": "ym2612"
    },
    {
      "channel": 1,
      "note": 47,
      "start": 55.2017,
      "duration": 0.2138,
      "velocity": 82,
      "chip": "ym2612"
    },
    {
      "channel": 4,
      "note": 47,
      "start": 55.3856,
      "duration": 0.2137,
      "velocity": 82,
      "chip": "ym2612"
    },
    {
      "channel": 0,
      "note": 45,
      "start": 55.3903,
      "duration": 0.2086,
      "velocity": 125,
      "chip": "ym2612"
    },
    {
      "channel": 3,
      "note": 49,
      "start": 55.3934,
      "duration": 0.2057,
      "velocity": 105,
      "chip": "ym2612"
    },
    {
      "channel": 3,
      "note": 49,
      "start": 55.6044,
      "duration": 0.2116,
      "velocity": 105,
      "chip": "ym2612"
    },
    {
      "channel": 0,
      "note": 45,
      "start": 55.8201,
      "duration": 0.2127,
      "velocity": 125,
      "chip": "ym2612"
    },
    {
      "channel": 3,
      "note": 49,
      "start": 55.8232,
      "duration": 0.2098,
      "velocity": 105,
      "chip": "ym2612"
    },
    {
      "channel": 3,
      "note": 49,
      "start": 56.0376,
      "duration": 0.2123,
      "velocity": 105,
      "chip": "ym2612"
    },
    {
      "channel": 4,
      "note": 47,
      "start": 56.2537,
      "duration": 0.2133,
      "velocity": 82,
      "chip": "ym2612"
    },
    {
      "channel": 0,
      "note": 45,
      "start": 56.2574,
      "duration": 0.2093,
      "velocity": 125,
      "chip": "ym2612"
    },
    {
      "channel": 3,
      "note": 49,
      "start": 56.2609,
      "duration": 0.206,
      "velocity": 105,
      "chip": "ym2612"
    },
    {
      "channel": 3,
      "note": 49,
      "start": 56.4715,
      "duration": 0.2123,
      "velocity": 105,
      "chip": "ym2612"
    },
    {
      "channel": 0,
      "note": 45,
      "start": 56.6878,
      "duration": 0.2127,
      "velocity": 125,
      "chip": "ym2612"
    },
    {
      "channel": 3,
      "note": 49,
      "start": 56.6909,
      "duration": 0.2098,
      "velocity": 105,
      "chip": "ym2612"
    },
    {
      "channel": 3,
      "note": 49,
      "start": 56.9052,
      "duration": 0.2125,
      "velocity": 105,
      "chip": "ym2612"
    },
    {
      "channel": 1,
      "note": 47,
      "start": 56.9207,
      "duration": 0.2136,
      "velocity": 82,
      "chip": "ym2612"
    },
    {
      "channel": 0,
      "note": 45,
      "start": 57.1217,
      "duration": 0.2128,
      "velocity": 125,
      "chip": "ym2612"
    },
    {
      "channel": 3,
      "note": 53,
      "start": 57.1248,
      "duration": 0.2099,
      "velocity": 105,
      "chip": "ym2612"
    },
    {
      "channel": 3,
      "note": 54,
      "start": 57.3392,
      "duration": 0.2123,
      "velocity": 105,
      "chip": "ym2612"
    },
    {
      "channel": 4,
      "note": 49,
      "start": 57.5556,
      "duration": 0.0961,
      "velocity": 82,
      "chip": "ym2612"
    },
    {
      "channel": 0,
      "note": 45,
      "start": 57.5591,
      "duration": 0.1927,
      "velocity": 125,
      "chip": "ym2612"
    },
    {
      "channel": 3,
      "note": 57,
      "start": 57.5622,
      "duration": 0.1897,
      "velocity": 105,
      "chip": "ym2612"
    },
    {
      "channel": 4,
      "note": 49,
      "start": 57.6554,
      "duration": 0.0966,
      "velocity": 82,
      "chip": "ym2612"
    },
    {
      "channel": 3,
      "note": 59,
      "start": 57.7565,
      "duration": 0.2123,
      "velocity": 105,
      "chip": "ym2612"
    },
    {
      "channel": 0,
      "note": 45,
      "start": 57.9728,
      "duration": 0.2128,
      "velocity": 125,
      "chip": "ym2612"
    },
    {
      "channel": 3,
      "note": 49,
      "start": 57.9759,
      "duration": 0.2099,
      "velocity": 105,
      "chip": "ym2612"
    },
    {
      "channel": 2,
      "note": 56,
      "start": 57.9815,
      "duration": 1.7231,
      "velocity": 117,
      "chip": "ym2612"
    },
    {
      "channel": 5,
      "note": 56,
      "start": 58.0931,
      "duration": 1.7115,
      "velocity": 117,
      "chip": "ym2612"
    },
    {
      "channel": 3,
      "note": 49,
      "start": 58.1903,
      "duration": 0.2123,
      "velocity": 105,
      "chip": "ym2612"
    },
    {
      "channel": 0,
      "note": 45,
      "start": 58.4067,
      "duration": 0.2128,
      "velocity": 125,
      "chip": "ym2612"
    },
    {
      "channel": 3,
      "note": 49,
      "start": 58.4098,
      "duration": 0.2099,
      "velocity": 105,
      "chip": "ym2612"
    },
    {
      "channel": 3,
      "note": 49,
      "start": 58.6241,
      "duration": 0.2123,
      "velocity": 105,
      "chip": "ym2612"
    },
    {
      "channel": 1,
      "note": 47,
      "start": 58.6402,
      "duration": 0.213,
      "velocity": 82,
      "chip": "ym2612"
    },
    {
      "channel": 4,
      "note": 47,
      "start": 58.8402,
      "duration": 0.2134,
      "velocity": 82,
      "chip": "ym2612"
    },
    {
      "channel": 0,
      "note": 45,
      "start": 58.8437,
      "duration": 0.2097,
      "velocity": 125,
      "chip": "ym2612"
    },
    {
      "channel": 3,
      "note": 49,
      "start": 58.8468,
      "duration": 0.2068,
      "velocity": 105,
      "chip": "ym2612"
    },
    {
      "channel": 3,
      "note": 49,
      "start": 59.0581,
      "duration": 0.2123,
      "velocity": 105,
      "chip": "ym2612"
    },
    {
      "channel": 0,
      "note": 45,
      "start": 59.2744,
      "duration": 0.2128,
      "velocity": 125,
      "chip": "ym2612"
    },
    {
      "channel": 3,
      "note": 49,
      "start": 59.2775,
      "duration": 0.2099,
      "velocity": 105,
      "chip": "ym2612"
    },
    {
      "channel": 4,
      "note": 47,
      "start": 59.491,
      "duration": 0.2134,
      "velocity": 82,
      "chip": "ym2612"
    },
    {
      "channel": 3,
      "note": 49,
      "start": 59.4949,
      "duration": 0.2093,
      "velocity": 105,
      "chip": "ym2612"
    },
    {
      "channel": 4,
      "note": 47,
      "start": 59.708,
      "duration": 0.2135,
      "velocity": 82,
      "chip": "ym2612"
    },
    {
      "channel": 0,
      "note": 45,
      "start": 59.7115,
      "duration": 0.2097,
      "velocity": 125,
      "chip": "ym2612"
    },
    {
      "channel": 3,
      "note": 49,
      "start": 59.715,
      "duration": 0.2063,
      "velocity": 105,
      "chip": "ym2612"
    },
    {
      "channel": 2,
      "note": 59,
      "start": 59.7186,
      "duration": 1.7048,
      "velocity": 117,
      "chip": "ym2612"
    },
    {
      "channel": 5,
      "note": 59,
      "start": 59.8102,
      "duration": 1.7132,
      "velocity": 117,
      "chip": "ym2612"
    },
    {
      "channel": 3,
      "note": 49,
      "start": 59.9259,
      "duration": 0.1955,
      "velocity": 105,
      "chip": "ym2612"
    },
    {
      "channel": 0,
      "note": 45,
      "start": 60.1255,
      "duration": 0.2128,
      "velocity": 125,
      "chip": "ym2612"
    },
    {
      "channel": 3,
      "note": 49,
      "start": 60.1286,
      "duration": 0.2099,
      "velocity": 105,
      "chip": "ym2612"
    },
    {
      "channel": 3,
      "note": 49,
      "start": 60.343,
      "duration": 0.2124,
      "velocity": 105,
      "chip": "ym2612"
    },
    {
      "channel": 1,
      "note": 47,
      "start": 60.3583,
      "duration": 0.2137,
      "velocity": 82,
      "chip": "ym2612"
    },
    {
      "channel": 4,
      "note": 47,
      "start": 60.559,
      "duration": 0.2136,
      "velocity": 82,
      "chip": "ym2612"
    },
    {
      "channel": 0,
      "note": 45,
      "start": 60.5624,
      "duration": 0.2098,
      "velocity": 125,
      "chip": "ym2612"
    },
    {
      "channel": 3,
      "note": 49,
      "start": 60.5655,
      "duration": 0.2069,
      "velocity": 105,
      "chip": "ym2612"
    },
    {
      "channel": 3,
      "note": 49,
      "start": 60.777,
      "duration": 0.2122,
      "velocity": 105,
      "chip": "ym2612"
    },
    {
      "channel": 4,
      "note": 49,
      "start": 60.993,
      "duration": 0.0965,
      "velocity": 82,
      "chip": "ym2612"
    },
    {
      "channel": 0,
      "note": 45,
      "start": 60.9965,
      "duration": 0.2097,
      "velocity": 125,
      "chip": "ym2612"
    },
    {
      "channel": 3,
      "note": 49,
      "start": 60.9996,
      "duration": 0.2067,
      "velocity": 105,
      "chip": "ym2612"
    },
    {
      "channel": 4,
      "note": 49,
      "start": 61.0933,
      "duration": 0.1132,
      "velocity": 82,
      "chip": "ym2612"
    },
    {
      "channel": 4,
      "note": 47,
      "start": 61.2102,
      "duration": 0.2131,
      "velocity": 82,
      "chip": "ym2612"
    },
    {
      "channel": 3,
      "note": 49,
      "start": 61.2141,
      "duration": 0.209,
      "velocity": 105,
      "chip": "ym2612"
    },
    {
      "channel": 4,
      "note": 47,
      "start": 61.4269,
      "duration": 0.2134,
      "velocity": 82,
      "chip": "ym2612"
    },
    {
      "channel": 0,
      "note": 45,
      "start": 61.4308,
      "duration": 0.2092,
      "velocity": 125,
      "chip": "ym2612"
    },
    {
      "channel": 3,
      "note": 49,
      "start": 61.4339,
      "duration": 0.2063,
      "velocity": 105,
      "chip": "ym2612"
    },
    {
      "channel": 2,
      "note": 56,
      "start": 61.4379,
      "duration": 1.7044,
      "velocity": 117,
      "chip": "ym2612"
    },
    {
      "channel": 5,
      "note": 56,
      "start": 61.5299,
      "duration": 1.7291,
      "velocity": 117,
      "chip": "ym2612"
    },
    {
      "channel": 3,
      "note": 49,
      "start": 61.6447,
      "duration": 0.2123,
      "velocity": 105,
      "chip": "ym2612"
    },
    {
      "channel": 0,
      "note": 45,
      "start": 61.8611,
      "duration": 0.2128,
      "velocity": 125,
      "chip": "ym2612"
    },
    {
      "channel": 3,
      "note": 49,
      "start": 61.8642,
      "duration": 0.2099,
      "velocity": 105,
      "chip": "ym2612"
    },
    {
      "channel": 3,
      "note": 49,
      "start": 62.0786,
      "duration": 0.1956,
      "velocity": 105,
      "chip": "ym2612"
    },
    {
      "channel": 1,
      "note": 47,
      "start": 62.0938,
      "duration": 0.2138,
      "velocity": 82,
      "chip": "ym2612"
    },
    {
      "channel": 4,
      "note": 47,
      "start": 62.2777,
      "duration": 0.2138,
      "velocity": 82,
      "chip": "ym2612"
    },
    {
      "channel": 0,
      "note": 45,
      "start": 62.2812,
      "duration": 0.21,
      "velocity": 125,
      "chip": "ym2612"
    },
    {
      "channel": 3,
      "note": 49,
      "start": 62.2842,
      "duration": 0.2071,
      "velocity": 105,
      "chip": "ym2612"
    },
    {
      "channel": 3,
      "note": 49,
      "start": 62.4959,
      "duration": 0.2123,
      "velocity": 105,
      "chip": "ym2612"
    },
    {
      "channel": 0,
      "note": 45,
      "start": 62.7122,
      "duration": 0.2128,
      "velocity": 125,
      "chip": "ym2612"
    },
    {
      "channel": 3,
      "note": 49,
      "start": 62.7154,
      "duration": 0.2098,
      "velocity": 105,
      "chip": "ym2612"
    },
    {
      "channel": 3,
      "note": 49,
      "start": 62.9297,
      "duration": 0.2124,
      "velocity": 105,
      "chip": "ym2612"
    },
    {
      "channel": 4,
      "note": 47,
      "start": 63.1459,
      "duration": 0.2133,
      "velocity": 82,
      "chip": "ym2612"
    },
    {
      "channel": 0,
      "note": 45,
      "start": 63.1493,
      "duration": 0.2095,
      "velocity": 125,
      "chip": "ym2612"
    },
    {
      "channel": 3,
      "note": 49,
      "start": 63.1529,
      "duration": 0.2062,
      "velocity": 105,
      "chip": "ym2612"
    },
    {
      "channel": 3,
      "note": 49,
      "start": 63.3636,
      "duration": 0.2123,
      "velocity": 105,
      "chip": "ym2612"
    },
    {
      "channel": 0,
      "note": 45,
      "start": 63.5799,
      "duration": 0.2129,
      "velocity": 125,
      "chip": "ym2612"
    },
    {
      "channel": 3,
      "note": 49,
      "start": 63.583,
      "duration": 0.2099,
      "velocity": 105,
      "chip": "ym2612"
    },
    {
      "channel": 3,
      "note": 49,
      "start": 63.7974,
      "duration": 0.2125,
      "velocity": 105,
      "chip": "ym2612"
    },
    {
      "channel": 1,
      "note": 47,
      "start": 63.8128,
      "duration": 0.2137,
      "velocity": 82,
      "chip": "ym2612"
    },
    {
      "channel": 0,
      "note": 45,
      "start": 64.0139,
      "duration": 0.2128,
      "velocity": 125,
      "chip": "ym2612"
    },
    {
      "channel": 3,
      "note": 55,
      "start": 64.017,
      "duration": 0.2099,
      "velocity": 105,
      "chip": "ym2612"
    },
    {
      "channel": 3,
      "note": 56,
      "start": 64.2314,
      "duration": 0.2123,
      "velocity": 105,
      "chip": "ym2612"
    },
    {
      "channel": 4,
      "note": 49,
      "start": 64.4474,
      "duration": 0.0965,
      "velocity": 82,
      "chip": "ym2612"
    },
    {
      "channel": 0,
      "note": 45,
      "start": 64.4509,
      "duration": 0.1929,
      "velocity": 125,
      "chip": "ym2612"
    },
    {
      "channel": 3,
      "note": 54,
      "start": 64.454,
      "duration": 0.19,
      "velocity": 105,
      "chip": "ym2612"
    },
    {
      "channel": 4,
      "note": 49,
      "start": 64.5473,
      "duration": 0.0969,
      "velocity": 82,
      "chip": "ym2612"
    },
    {
      "channel": 3,
      "note": 52,
      "start": 64.6487,
      "duration": 0.2123,
      "velocity": 105,
      "chip": "ym2612"
    },
    {
      "channel": 0,
      "note": 45,
      "start": 64.8649,
      "duration": 0.2128,
      "velocity": 125,
      "chip": "ym2612"
    },
    {
      "channel": 3,
      "note": 54,
      "start": 64.868,
      "duration": 0.2099,
      "velocity": 105,
      "chip": "ym2612"
    },
    {
      "channel": 2,
      "note": 73,
      "start": 64.873,
      "duration": 0.2053,
      "velocity": 109,
      "chip": "ym2612"
    },
    {
      "channel": 5,
      "note": 78,
      "start": 64.876,
      "duration": 0.2022,
      "velocity": 109,
      "chip": "ym2612"
    },
    {
      "channel": 1,
      "note": 81,
      "start": 64.8791,
      "duration": 0.1988,
      "velocity": 109,
      "chip": "ym2612"
    },
    {
      "channel": 3,
      "note": 54,
      "start": 65.0825,
      "duration": 0.2125,
      "velocity": 105,
      "chip": "ym2612"
    },
    {
      "channel": 4,
      "note": 81,
      "start": 65.0876,
      "duration": 0.2075,
      "velocity": 109,
      "chip": "ym2612"
    },
    {
      "channel": 0,
      "note": 78,
      "start": 65.0906,
      "duration": 0.2042,
      "velocity": 109,
      "chip": "ym2612"
    },
    {
      "channel": 1,
      "note": 73,
      "start": 65.0937,
      "duration": 0.2012,
      "velocity": 109,
      "chip": "ym2612"
    },
    {
      "channel": 5,
      "note": 45,
      "start": 65.2994,
      "duration": 0.2126,
      "velocity": 125,
      "chip": "ym2612"
    },
    {
      "channel": 3,
      "note": 54,
      "start": 65.3025,
      "duration": 0.2093,
      "velocity": 105,
      "chip": "ym2612"
    },
    {
      "channel": 2,
      "note": 57,
      "start": 65.3152,
      "duration": 0.2134,
      "velocity": 82,
      "chip": "ym2612"
    },
    {
      "channel": 3,
      "note": 54,
      "start": 65.5162,
      "duration": 0.2126,
      "velocity": 105,
      "chip": "ym2612"
    },
    {
      "channel": 0,
      "note": 71,
      "start": 65.5195,
      "duration": 0.2091,
      "velocity": 109,
      "chip": "ym2612"
    },
    {
      "channel": 1,
      "note": 76,
      "start": 65.5228,
      "duration": 0.2059,
      "velocity": 109,
      "chip": "ym2612"
    },
    {
      "channel": 4,
      "note": 80,
      "start": 65.5259,
      "duration": 0.2031,
      "velocity": 109,
      "chip": "ym2612"
    },
    {
      "channel": 5,
      "note": 45,
      "start": 65.7331,
      "duration": 0.2129,
      "velocity": 125,
      "chip": "ym2612"
    },
    {
      "channel": 3,
      "note": 54,
      "start": 65.7362,
      "duration": 0.2096,
      "velocity": 105,
      "chip": "ym2612"
    },
    {
      "channel": 2,
      "note": 80,
      "start": 65.7396,
      "duration": 0.2065,
      "velocity": 109,
      "chip": "ym2612"
    },
    {
      "channel": 0,
      "note": 76,
      "start": 65.743,
      "duration": 0.2025,
      "velocity": 109,
      "chip": "ym2612"
    },
    {
      "channel": 1,
      "note": 71,
      "start": 65.7461,
      "duration": 0.1995,
      "velocity": 109,
      "chip": "ym2612"
    },
    {
      "channel": 3,
      "note": 54,
      "start": 65.9504,
      "duration": 0.2122,
      "velocity": 105,
      "chip": "ym2612"
    },
    {
      "channel": 4,
      "note": 57,
      "start": 65.9659,
      "duration": 0.2149,
      "velocity": 82,
      "chip": "ym2612"
    },
    {
      "channel": 5,
      "note": 45,
      "start": 66.1668,
      "duration": 0.213,
      "velocity": 125,
      "chip": "ym2612"
    },
    {
      "channel": 3,
      "note": 54,
      "start": 66.1699,
      "duration": 0.2097,
      "velocity": 105,
      "chip": "ym2612"
    },
    {
      "channel": 0,
      "note": 78,
      "start": 66.1732,
      "duration": 0.2062,
      "velocity": 109,
      "chip": "ym2612"
    },
    {
      "channel": 1,
      "note": 74,
      "start": 66.1761,
      "duration": 0.2034,
      "velocity": 109,
      "chip": "ym2612"
    },
    {
      "channel": 2,
      "note": 69,
      "start": 66.1794,
      "duration": 0.2006,
      "velocity": 109,
      "chip": "ym2612"
    },
    {
      "channel": 3,
      "note": 54,
      "start": 66.3842,
      "duration": 0.2125,
      "velocity": 105,
      "chip": "ym2612"
    },
    {
      "channel": 4,
      "note": 69,
      "start": 66.3876,
      "duration": 0.2092,
      "velocity": 109,
      "chip": "ym2612"
    },
    {
      "channel": 0,
      "note": 74,
      "start": 66.3906,
      "duration": 0.2058,
      "velocity": 109,
      "chip": "ym2612"
    },
    {
      "channel": 1,
      "note": 78,
      "start": 66.3939,
      "duration": 0.2027,
      "velocity": 109,
      "chip": "ym2612"
    },
    {
      "channel": 5,
      "note": 57,
      "start": 66.3999,
      "duration": 0.2143,
      "velocity": 82,
      "chip": "ym2612"
    },
    {
      "channel": 2,
      "note": 75,
      "start": 66.6025,
      "duration": 0.3446,
      "velocity": 118,
      "chip": "ym2612"
    },
    {
      "channel": 0,
      "note": 80,
      "start": 66.6057,
      "duration": 0.3411,
      "velocity": 118,
      "chip": "ym2612"
    },
    {
      "channel": 1,
      "note": 45,
      "start": 66.6091,
      "duration": 0.2042,
      "velocity": 125,
      "chip": "ym2612"
    },
    {
      "channel": 3,
      "note": 54,
      "start": 66.6127,
      "duration": 0.2008,
      "velocity": 105,
      "chip": "ym2612"
    },
    {
      "channel": 3,
      "note": 54,
      "start": 66.8179,
      "duration": 0.1958,
      "velocity": 105,
      "chip": "ym2612"
    },
    {
      "channel": 0,
      "note": 73,
      "start": 66.968,
      "duration": 0.1792,
      "velocity": 118,
      "chip": "ym2612"
    },
    {
      "channel": 2,
      "note": 78,
      "start": 66.9845,
      "duration": 0.1796,
      "velocity": 118,
      "chip": "ym2612"
    },
    {
      "channel": 1,
      "note": 45,
      "start": 67.0178,
      "duration": 0.2129,
      "velocity": 125,
      "chip": "ym2612"
    },
    {
      "channel": 3,
      "note": 54,
      "start": 67.0208,
      "duration": 0.2099,
      "velocity": 105,
      "chip": "ym2612"
    },
    {
      "channel": 0,
      "note": 75,
      "start": 67.2352,
      "duration": 0.3626,
      "velocity": 118,
      "chip": "ym2612"
    },
    {
      "channel": 2,
      "note": 80,
      "start": 67.2393,
      "duration": 0.3588,
      "velocity": 118,
      "chip": "ym2612"
    },
    {
      "channel": 3,
      "note": 54,
      "start": 67.2429,
      "duration": 0.2047,
      "velocity": 105,
      "chip": "ym2612"
    },
    {
      "channel": 1,
      "note": 45,
      "start": 67.4516,
      "duration": 0.2129,
      "velocity": 125,
      "chip": "ym2612"
    },
    {
      "channel": 3,
      "note": 54,
      "start": 67.4547,
      "duration": 0.2099,
      "velocity": 105,
      "chip": "ym2612"
    },
    {
      "channel": 0,
      "note": 73,
      "start": 67.6184,
      "duration": 0.1796,
      "velocity": 118,
      "chip": "ym2612"
    },
    {
      "channel": 2,
      "note": 78,
      "start": 67.6353,
      "duration": 0.1796,
      "velocity": 118,
      "chip": "ym2612"
    },
    {
      "channel": 3,
      "note": 54,
      "start": 67.669,
      "duration": 0.2124,
      "velocity": 105,
      "chip": "ym2612"
    },
    {
      "channel": 0,
      "note": 75,
      "start": 67.8854,
      "duration": 0.213,
      "velocity": 118,
      "chip": "ym2612"
    },
    {
      "channel": 2,
      "note": 71,
      "start": 67.8884,
      "duration": 0.2104,
      "velocity": 118,
      "chip": "ym2612"
    },
    {
      "channel": 1,
      "note": 45,
      "start": 67.8935,
      "duration": 0.205,
      "velocity": 125,
      "chip": "ym2612"
    },
    {
      "channel": 3,
      "note": 54,
      "start": 67.8966,
      "duration": 0.202,
      "velocity": 105,
      "chip": "ym2612"
    },
    {
      "channel": 0,
      "note": 69,
      "start": 68.1024,
      "duration": 0.2128,
      "velocity": 118,
      "chip": "ym2612"
    },
    {
      "channel": 2,
      "note": 73,
      "start": 68.1061,
      "duration": 0.2096,
      "velocity": 118,
      "chip": "ym2612"
    },
    {
      "channel": 3,
      "note": 54,
      "start": 68.1096,
      "duration": 0.2059,
      "velocity": 105,
      "chip": "ym2612"
    },
    {
      "channel": 4,
      "note": 75,
      "start": 68.3214,
      "duration": 0.3444,
      "velocity": 118,
      "chip": "ym2612"
    },
    {
      "channel": 5,
      "note": 80,
      "start": 68.3247,
      "duration": 0.3413,
      "velocity": 118,
      "chip": "ym2612"
    },
    {
      "channel": 1,
      "note": 45,
      "start": 68.3282,
      "duration": 0.2041,
      "velocity": 125,
      "chip": "ym2612"
    },
    {
      "channel": 3,
      "note": 54,
      "start": 68.3313,
      "duration": 0.2011,
      "velocity": 105,
      "chip": "ym2612"
    },
    {
      "channel": 3,
      "note": 54,
      "start": 68.5368,
      "duration": 0.2125,
      "velocity": 105,
      "chip": "ym2612"
    },
    {
      "channel": 4,
      "note": 73,
      "start": 68.6872,
      "duration": 0.1789,
      "velocity": 118,
      "chip": "ym2612"
    },
    {
      "channel": 5,
      "note": 78,
      "start": 68.72,
      "duration": 0.1629,
      "velocity": 118,
      "chip": "ym2612"
    },
    {
      "channel": 1,
      "note": 45,
      "start": 68.7534,
      "duration": 0.2128,
      "velocity": 125,
      "chip": "ym2612"
    },
    {
      "channel": 3,
      "note": 54,
      "start": 68.7565,
      "duration": 0.2098,
      "velocity": 105,
      "chip": "ym2612"
    },
    {
      "channel": 4,
      "note": 75,
      "start": 68.971,
      "duration": 0.3458,
      "velocity": 118,
      "chip": "ym2612"
    },
    {
      "channel": 5,
      "note": 80,
      "start": 68.9751,
      "duration": 0.3418,
      "velocity": 118,
      "chip": "ym2612"
    },
    {
      "channel": 3,
      "note": 54,
      "start": 68.9785,
      "duration": 0.2046,
      "velocity": 105,
      "chip": "ym2612"
    },
    {
      "channel": 1,
      "note": 45,
      "start": 69.1872,
      "duration": 0.1961,
      "velocity": 125,
      "chip": "ym2612"
    },
    {
      "channel": 3,
      "note": 54,
      "start": 69.1903,
      "duration": 0.1932,
      "velocity": 105,
      "chip": "ym2612"
    },
    {
      "channel": 4,
      "note": 73,
      "start": 69.3376,
      "duration": 0.1793,
      "velocity": 118,
      "chip": "ym2612"
    },
    {
      "channel": 5,
      "note": 78,
      "start": 69.3542,
      "duration": 0.1795,
      "velocity": 118,
      "chip": "ym2612"
    },
    {
      "channel": 3,
      "note": 54,
      "start": 69.3878,
      "duration": 0.2125,
      "velocity": 105,
      "chip": "ym2612"
    },
    {
      "channel": 4,
      "note": 75,
      "start": 69.6046,
      "duration": 0.2129,
      "velocity": 118,
      "chip": "ym2612"
    },
    {
      "channel": 5,
      "note": 71,
      "start": 69.6076,
      "duration": 0.21,
      "velocity": 118,
      "chip": "ym2612"
    },
    {
      "channel": 1,
      "note": 45,
      "start": 69.6126,
      "duration": 0.2047,
      "velocity": 125,
      "chip": "ym2612"
    },
    {
      "channel": 3,
      "note": 54,
      "start": 69.6157,
      "duration": 0.2017,
      "velocity": 105,
      "chip": "ym2612"
    },
    {
      "channel": 4,
      "note": 69,
      "start": 69.8216,
      "duration": 0.2127,
      "velocity": 118,
      "chip": "ym2612"
    },
    {
      "channel": 5,
      "note": 73,
      "start": 69.8252,
      "duration": 0.2093,
      "velocity": 118,
      "chip": "ym2612"
    },
    {
      "channel": 3,
      "note": 54,
      "start": 69.8286,
      "duration": 0.2056,
      "velocity": 105,
      "chip": "ym2612"
    },
    {
      "channel": 1,
      "note": 45,
      "start": 70.0385,
      "duration": 0.2127,
      "velocity": 125,
      "chip": "ym2612"
    },
    {
      "channel": 3,
      "note": 54,
      "start": 70.042,
      "duration": 0.2093,
      "velocity": 105,
      "chip": "ym2612"
    },
    {
      "channel": 3,
      "note": 54,
      "start": 70.2584,
      "duration": 0.0,
      "velocity": 105,
      "chip": "ym2612"
    },
    {
      "channel": 1,
      "note": 45,
      "start": 70.2627,
      "duration": 0.0019,
      "velocity": 125,
      "chip": "ym2612"
    },
    {
      "channel": 3,
      "note": 54,
      "start": 70.2646,
      "duration": 0.0001,
      "velocity": 105,
      "chip": "ym2612"
    },
    {
      "channel": 3,
      "note": 54,
      "start": 70.2666,
      "duration": 0.0,
      "velocity": 105,
      "chip": "ym2612"
    },
    {
      "channel": 0,
      "note": 58,
      "start": 70.2684,
      "duration": 0.0772,
      "velocity": 118,
      "chip": "ym2612"
    },
    {
      "channel": 4,
      "note": 58,
      "start": 70.2702,
      "duration": 0.0757,
      "velocity": 118,
      "chip": "ym2612"
    },
    {
      "channel": 1,
      "note": 45,
      "start": 70.272,
      "duration": 0.0738,
      "velocity": 125,
      "chip": "ym2612"
    },
    {
      "channel": 3,
      "note": 58,
      "start": 70.2739,
      "duration": 0.072,
      "velocity": 105,
      "chip": "ym2612"
    },
    {
      "channel": 0,
      "note": 59,
      "start": 70.3497,
      "duration": 0.2129,
      "velocity": 118,
      "chip": "ym2612"
    },
    {
      "channel": 4,
      "note": 59,
      "start": 70.3529,
      "duration": 0.21,
      "velocity": 118,
      "chip": "ym2612"
    },
    {
      "channel": 3,
      "note": 59,
      "start": 70.3563,
      "duration": 0.2065,
      "velocity": 105,
      "chip": "ym2612"
    },
    {
      "channel": 0,
      "note": 62,
      "start": 70.5666,
      "duration": 0.2129,
      "velocity": 118,
      "chip": "ym2612"
    },
    {
      "channel": 4,
      "note": 62,
      "start": 70.5698,
      "duration": 0.2101,
      "velocity": 118,
      "chip": "ym2612"
    },
    {
      "channel": 1,
      "note": 45,
      "start": 70.5729,
      "duration": 0.2068,
      "velocity": 125,
      "chip": "ym2612"
    },
    {
      "channel": 3,
      "note": 62,
      "start": 70.576,
      "duration": 0.2038,
      "velocity": 105,
      "chip": "ym2612"
    },
    {
      "channel": 0,
      "note": 64,
      "start": 70.7839,
      "duration": 0.1958,
      "velocity": 118,
      "chip": "ym2612"
    },
    {
      "channel": 4,
      "note": 64,
      "start": 70.7874,
      "duration": 0.1926,
      "velocity": 118,
      "chip": "ym2612"
    },
    {
      "channel": 3,
      "note": 64,
      "start": 70.7909,
      "duration": 0.189,
      "velocity": 105,
      "chip": "ym2612"
    },
    {
      "channel": 1,
      "note": 45,
      "start": 70.984,
      "duration": 0.2128,
      "velocity": 125,
      "chip": "ym2612"
    },
    {
      "channel": 3,
      "note": 54,
      "start": 70.9871,
      "duration": 0.2098,
      "velocity": 105,
      "chip": "ym2612"
    },
    {
      "channel": 2,
      "note": 69,
      "start": 70.9904,
      "duration": 0.2069,
      "velocity": 109,
      "chip": "ym2612"
    },
    {
      "channel": 5,
      "note": 73,
      "start": 70.9934,
      "duration": 0.2038,
      "velocity": 109,
      "chip": "ym2612"
    },
    {
      "channel": 0,
      "note": 78,
      "start": 70.9965,
      "duration": 0.2002,
      "velocity": 109,
      "chip": "ym2612"
    },
    {
      "channel": 3,
      "note": 54,
      "start": 71.2015,
      "duration": 0.2124,
      "velocity": 105,
      "chip": "ym2612"
    },
    {
      "channel": 4,
      "note": 78,
      "start": 71.2049,
      "duration": 0.2091,
      "velocity": 109,
      "chip": "ym2612"
    },
    {
      "channel": 0,
      "note": 73,
      "start": 71.2079,
      "duration": 0.2057,
      "velocity": 109,
      "chip": "ym2612"
    },
    {
      "channel": 1,
      "note": 69,
      "start": 71.211,
      "duration": 0.2027,
      "velocity": 109,
      "chip": "ym2612"
    },
    {
      "channel": 5,
      "note": 45,
      "start": 71.4183,
      "duration": 0.2126,
      "velocity": 125,
      "chip": "ym2612"
    },
    {
      "channel": 3,
      "note": 54,
      "start": 71.4214,
      "duration": 0.2093,
      "velocity": 105,
      "chip": "ym2612"
    },
    {
      "channel": 2,
      "note": 57,
      "start": 71.4341,
      "duration": 0.2135,
      "velocity": 82,
      "chip": "ym2612"
    },
    {
      "channel": 3,
      "note": 54,
      "start": 71.6351,
      "duration": 0.2127,
      "velocity": 105,
      "chip": "ym2612"
    },
    {
      "channel": 0,
      "note": 68,
      "start": 71.6384,
      "duration": 0.2092,
      "velocity": 109,
      "chip": "ym2612"
    },
    {
      "channel": 1,
      "note": 71,
      "start": 71.6417,
      "duration": 0.206,
      "velocity": 109,
      "chip": "ym2612"
    },
    {
      "channel": 4,
      "note": 76,
      "start": 71.6448,
      "duration": 0.2032,
      "velocity": 109,
      "chip": "ym2612"
    },
    {
      "channel": 5,
      "note": 45,
      "start": 71.8521,
      "duration": 0.2127,
      "velocity": 125,
      "chip": "ym2612"
    },
    {
      "channel": 3,
      "note": 54,
      "start": 71.8553,
      "duration": 0.2094,
      "velocity": 105,
      "chip": "ym2612"
    },
    {
      "channel": 2,
      "note": 76,
      "start": 71.8587,
      "duration": 0.2063,
      "velocity": 109,
      "chip": "ym2612"
    },
    {
      "channel": 0,
      "note": 71,
      "start": 71.8621,
      "duration": 0.2024,
      "velocity": 109,
      "chip": "ym2612"
    },
    {
      "channel": 1,
      "note": 68,
      "start": 71.8652,
      "duration": 0.1994,
      "velocity": 109,
      "chip": "ym2612"
    },
    {
      "channel": 3,
      "note": 54,
      "start": 72.0693,
      "duration": 0.2122,
      "velocity": 105,
      "chip": "ym2612"
    },
    {
      "channel": 4,
      "note": 57,
      "start": 72.0848,
      "duration": 0.2148,
      "velocity": 82,
      "chip": "ym2612"
    },
    {
      "channel": 5,
      "note": 45,
      "start": 72.2857,
      "duration": 0.2132,
      "velocity": 125,
      "chip": "ym2612"
    },
    {
      "channel": 3,
      "note": 54,
      "start": 72.2888,
      "duration": 0.2099,
      "velocity": 105,
      "chip": "ym2612"
    },
    {
      "channel": 0,
      "note": 78,
      "start": 72.2921,
      "duration": 0.2064,
      "velocity": 109,
      "chip": "ym2612"
    },
    {
      "channel": 1,
      "note": 74,
      "start": 72.295,
      "duration": 0.2036,
      "velocity": 109,
      "chip": "ym2612"
    },
    {
      "channel": 2,
      "note": 69,
      "start": 72.2981,
      "duration": 0.2009,
      "velocity": 109,
      "chip": "ym2612"
    },
    {
      "channel": 3,
      "note": 54,
      "start": 72.5033,
      "duration": 0.2123,
      "velocity": 105,
      "chip": "ym2612"
    },
    {
      "channel": 4,
      "note": 69,
      "start": 72.5068,
      "duration": 0.2089,
      "velocity": 109,
      "chip": "ym2612"
    },
    {
      "channel": 0,
      "note": 74,
      "start": 72.5098,
      "duration": 0.2055,
      "velocity": 109,
      "chip": "ym2612"
    },
    {
      "channel": 1,
      "note": 78,
      "start": 72.5129,
      "duration": 0.2025,
      "velocity": 109,
      "chip": "ym2612"
    },
    {
      "channel": 5,
      "note": 57,
      "start": 72.5188,
      "duration": 0.2134,
      "velocity": 82,
      "chip": "ym2612"
    },
    {
      "channel": 2,
      "note": 102,
      "start": 72.7213,
      "duration": 0.0944,
      "velocity": 88,
      "chip": "ym2612"
    },
    {
      "channel": 0,
      "note": 45,
      "start": 72.7249,
      "duration": 0.2073,
      "velocity": 125,
      "chip": "ym2612"
    },
    {
      "channel": 3,
      "note": 54,
      "start": 72.7284,
      "duration": 0.2041,
      "velocity": 105,
      "chip": "ym2612"
    },
    {
      "channel": 2,
      "note": 105,
      "start": 72.8191,
      "duration": 0.1136,
      "velocity": 88,
      "chip": "ym2612"
    },
    {
      "channel": 1,
      "note": 102,
      "start": 72.8242,
      "duration": 0.1082,
      "velocity": 88,
      "chip": "ym2612"
    },
    {
      "channel": 2,
      "note": 102,
      "start": 72.9362,
      "duration": 0.0964,
      "velocity": 88,
      "chip": "ym2612"
    },
    {
      "channel": 1,
      "note": 105,
      "start": 72.9391,
      "duration": 0.0933,
      "velocity": 88,
      "chip": "ym2612"
    },
    {
      "channel": 3,
      "note": 54,
      "start": 72.9428,
      "duration": 0.1899,
      "velocity": 105,
      "chip": "ym2612"
    },
    {
      "channel": 2,
      "note": 100,
      "start": 73.0362,
      "duration": 0.0967,
      "velocity": 88,
      "chip": "ym2612"
    },
    {
      "channel": 1,
      "note": 102,
      "start": 73.0391,
      "duration": 0.0935,
      "velocity": 88,
      "chip": "ym2612"
    },
    {
      "channel": 2,
      "note": 93,
      "start": 73.1364,
      "duration": 0.1133,
      "velocity": 88,
      "chip": "ym2612"
    },
    {
      "channel": 1,
      "note": 100,
      "start": 73.1393,
      "duration": 0.1101,
      "velocity": 88,
      "chip": "ym2612"
    },
    {
      "channel": 0,
      "note": 45,
      "start": 73.1426,
      "duration": 0.2068,
      "velocity": 125,
      "chip": "ym2612"
    },
    {
      "channel": 3,
      "note": 54,
      "start": 73.1457,
      "duration": 0.204,
      "velocity": 105,
      "chip": "ym2612"
    },
    {
      "channel": 2,
      "note": 95,
      "start": 73.2536,
      "duration": 0.0963,
      "velocity": 88,
      "chip": "ym2612"
    },
    {
      "channel": 1,
      "note": 93,
      "start": 73.2565,
      "duration": 0.0931,
      "velocity": 88,
      "chip": "ym2612"
    },
    {
      "channel": 2,
      "note": 93,
      "start": 73.3534,
      "duration": 0.1132,
      "velocity": 88,
      "chip": "ym2612"
    },
    {
      "channel": 1,
      "note": 95,
      "start": 73.3567,
      "duration": 0.1096,
      "velocity": 88,
      "chip": "ym2612"
    },
    {
      "channel": 3,
      "note": 54,
      "start": 73.3604,
      "duration": 0.2061,
      "velocity": 105,
      "chip": "ym2612"
    },
    {
      "channel": 2,
      "note": 90,
      "start": 73.4702,
      "duration": 0.0966,
      "velocity": 88,
      "chip": "ym2612"
    },
    {
      "channel": 1,
      "note": 93,
      "start": 73.473,
      "duration": 0.0934,
      "velocity": 88,
      "chip": "ym2612"
    },
    {
      "channel": 2,
      "note": 93,
      "start": 73.5703,
      "duration": 0.1133,
      "velocity": 88,
      "chip": "ym2612"
    },
    {
      "channel": 1,
      "note": 90,
      "start": 73.5732,
      "duration": 0.1101,
      "velocity": 88,
      "chip": "ym2612"
    },
    {
      "channel": 0,
      "note": 45,
      "start": 73.5764,
      "duration": 0.2069,
      "velocity": 125,
      "chip": "ym2612"
    },
    {
      "channel": 3,
      "note": 54,
      "start": 73.5795,
      "duration": 0.204,
      "velocity": 105,
      "chip": "ym2612"
    },
    {
      "channel": 2,
      "note": 95,
      "start": 73.6871,
      "duration": 0.0967,
      "velocity": 88,
      "chip": "ym2612"
    },
    {
      "channel": 1,
      "note": 93,
      "start": 73.6899,
      "duration": 0.0935,
      "velocity": 88,
      "chip": "ym2612"
    },
    {
      "channel": 2,
      "note": 93,
      "start": 73.7873,
      "duration": 0.1132,
      "velocity": 88,
      "chip": "ym2612"
    },
    {
      "channel": 1,
      "note": 95,
      "start": 73.7902,
      "duration": 0.1101,
      "velocity": 88,
      "chip": "ym2612"
    },
    {
      "channel": 3,
      "note": 54,
      "start": 73.7939,
      "duration": 0.2066,
      "velocity": 105,
      "chip": "ym2612"
    },
    {
      "channel": 2,
      "note": 90,
      "start": 73.9041,
      "duration": 0.0966,
      "velocity": 88,
      "chip": "ym2612"
    },
    {
      "channel": 1,
      "note": 93,
      "start": 73.9069,
      "duration": 0.0934,
      "velocity": 88,
      "chip": "ym2612"
    },
    {
      "channel": 2,
      "note": 86,
      "start": 74.0042,
      "duration": 0.1133,
      "velocity": 88,
      "chip": "ym2612"
    },
    {
      "channel": 1,
      "note": 90,
      "start": 74.0071,
      "duration": 0.1101,
      "velocity": 88,
      "chip": "ym2612"
    },
    {
      "channel": 0,
      "note": 45,
      "start": 74.0103,
      "duration": 0.2069,
      "velocity": 125,
      "chip": "ym2612"
    },
    {
      "channel": 3,
      "note": 54,
      "start": 74.0134,
      "duration": 0.204,
      "velocity": 105,
      "chip": "ym2612"
    },
    {
      "channel": 2,
      "note": 88,
      "start": 74.121,
      "duration": 0.0967,
      "velocity": 88,
      "chip": "ym2612"
    },
    {
      "channel": 1,
      "note": 86,
      "start": 74.1238,
      "duration": 0.0935,
      "velocity": 88,
      "chip": "ym2612"
    },
    {
      "channel": 2,
      "note": 86,
      "start": 74.2212,
      "duration": 0.0966,
      "velocity": 88,
      "chip": "ym2612"
    },
    {
      "channel": 1,
      "note": 88,
      "start": 74.2241,
      "duration": 0.0934,
      "velocity": 88,
      "chip": "ym2612"
    },
    {
      "channel": 3,
      "note": 54,
      "start": 74.2278,
      "duration": 0.2066,
      "velocity": 105,
      "chip": "ym2612"
    },
    {
      "channel": 2,
      "note": 83,
      "start": 74.3213,
      "duration": 0.1133,
      "velocity": 88,
      "chip": "ym2612"
    },
    {
      "channel": 1,
      "note": 86,
      "start": 74.3242,
      "duration": 0.11,
      "velocity": 88,
      "chip": "ym2612"
    },
    {
      "channel": 2,
      "note": 90,
      "start": 74.4381,
      "duration": 0.0966,
      "velocity": 88,
      "chip": "ym2612"
    },
    {
      "channel": 1,
      "note": 83,
      "start": 74.441,
      "duration": 0.0934,
      "velocity": 88,
      "chip": "ym2612"
    },
    {
      "channel": 0,
      "note": 45,
      "start": 74.4446,
      "duration": 0.2066,
      "velocity": 125,
      "chip": "ym2612"
    },
    {
      "channel": 3,
      "note": 54,
      "start": 74.4477,
      "duration": 0.2038,
      "velocity": 105,
      "chip": "ym2612"
    },
    {
      "channel": 2,
      "note": 93,
      "start": 74.5381,
      "duration": 0.1136,
      "velocity": 88,
      "chip": "ym2612"
    },
    {
      "channel": 1,
      "note": 90,
      "start": 74.541,
      "duration": 0.1103,
      "velocity": 88,
      "chip": "ym2612"
    },
    {
      "channel": 2,
      "note": 90,
      "start": 74.6552,
      "duration": 0.0964,
      "velocity": 88,
      "chip": "ym2612"
    },
    {
      "channel": 1,
      "note": 93,
      "start": 74.6581,
      "duration": 0.0932,
      "velocity": 88,
      "chip": "ym2612"
    },
    {
      "channel": 3,
      "note": 54,
      "start": 74.6618,
      "duration": 0.2064,
      "velocity": 105,
      "chip": "ym2612"
    },
    {
      "channel": 2,
      "note": 88,
      "start": 74.7551,
      "duration": 0.1133,
      "velocity": 88,
      "chip": "ym2612"
    },
    {
      "channel": 1,
      "note": 90,
      "start": 74.758,
      "duration": 0.11,
      "velocity": 88,
      "chip": "ym2612"
    },
    {
      "channel": 2,
      "note": 81,
      "start": 74.8719,
      "duration": 0.0966,
      "velocity": 88,
      "chip": "ym2612"
    },
    {
      "channel": 1,
      "note": 88,
      "start": 74.8748,
      "duration": 0.0934,
      "velocity": 88,
      "chip": "ym2612"
    },
    {
      "channel": 0,
      "note": 45,
      "start": 74.8781,
      "duration": 0.207,
      "velocity": 125,
      "chip": "ym2612"
    },
    {
      "channel": 3,
      "note": 54,
      "start": 74.8812,
      "duration": 0.2041,
      "velocity": 105,
      "chip": "ym2612"
    },
    {
      "channel": 2,
      "note": 83,
      "start": 74.9724,
      "duration": 0.1131,
      "velocity": 88,
      "chip": "ym2612"
    },
    {
      "channel": 1,
      "note": 81,
      "start": 74.9753,
      "duration": 0.1099,
      "velocity": 88,
      "chip": "ym2612"
    },
    {
      "channel": 2,
      "note": 81,
      "start": 75.0891,
      "duration": 0.0964,
      "velocity": 88,
      "chip": "ym2612"
    },
    {
      "channel": 1,
      "note": 83,
      "start": 75.0923,
      "duration": 0.0928,
      "velocity": 88,
      "chip": "ym2612"
    },
    {
      "channel": 3,
      "note": 54,
      "start": 75.096,
      "duration": 0.2061,
      "velocity": 105,
      "chip": "ym2612"
    },
    {
      "channel": 2,
      "note": 78,
      "start": 75.189,
      "duration": 0.1134,
      "velocity": 88,
      "chip": "ym2612"
    },
    {
      "channel": 1,
      "note": 81,
      "start": 75.1918,
      "duration": 0.1102,
      "velocity": 88,
      "chip": "ym2612"
    },
    {
      "channel": 2,
      "note": 81,
      "start": 75.3059,
      "duration": 0.0966,
      "velocity": 88,
      "chip": "ym2612"
    },
    {
      "channel": 1,
      "note": 78,
      "start": 75.3088,
      "duration": 0.0934,
      "velocity": 88,
      "chip": "ym2612"
    },
    {
      "channel": 0,
      "note": 45,
      "start": 75.312,
      "duration": 0.1902,
      "velocity": 125,
      "chip": "ym2612"
    },
    {
      "channel": 3,
      "note": 54,
      "start": 75.3151,
      "duration": 0.1873,
      "velocity": 105,
      "chip": "ym2612"
    },
    {
      "channel": 2,
      "note": 83,
      "start": 75.406,
      "duration": 0.0967,
      "velocity": 88,
      "chip": "ym2612"
    },
    {
      "channel": 1,
      "note": 81,
      "start": 75.4089,
      "duration": 0.0935,
      "velocity": 88,
      "chip": "ym2612"
    },
    {
      "channel": 2,
      "note": 81,
      "start": 75.5062,
      "duration": 0.1131,
      "velocity": 88,
      "chip": "ym2612"
    },
    {
      "channel": 1,
      "note": 83,
      "start": 75.5091,
      "duration": 0.1099,
      "velocity": 88,
      "chip": "ym2612"
    },
    {
      "channel": 3,
      "note": 54,
      "start": 75.5128,
      "duration": 0.2066,
      "velocity": 105,
      "chip": "ym2612"
    },
    {
      "channel": 2,
      "note": 78,
      "start": 75.6229,
      "duration": 0.0967,
      "velocity": 88,
      "chip": "ym2612"
    },
    {
      "channel": 1,
      "note": 81,
      "start": 75.6257,
      "duration": 0.0935,
      "velocity": 88,
      "chip": "ym2612"
    },
    {
      "channel": 2,
      "note": 74,
      "start": 75.7231,
      "duration": 0.1133,
      "velocity": 88,
      "chip": "ym2612"
    },
    {
      "channel": 1,
      "note": 78,
      "start": 75.726,
      "duration": 0.1101,
      "velocity": 88,
      "chip": "ym2612"
    },
    {
      "channel": 0,
      "note": 45,
      "start": 75.7293,
      "duration": 0.2069,
      "velocity": 125,
      "chip": "ym2612"
    },
    {
      "channel": 3,
      "note": 54,
      "start": 75.7324,
      "duration": 0.204,
      "velocity": 105,
      "chip": "ym2612"
    },
    {
      "channel": 2,
      "note": 76,
      "start": 75.8399,
      "duration": 0.0967,
      "velocity": 88,
      "chip": "ym2612"
    },
    {
      "channel": 1,
      "note": 74,
      "start": 75.8428,
      "duration": 0.0935,
      "velocity": 88,
      "chip": "ym2612"
    },
    {
      "channel": 2,
      "note": 74,
      "start": 75.9401,
      "duration": 0.1131,
      "velocity": 88,
      "chip": "ym2612"
    },
    {
      "channel": 1,
      "note": 76,
      "start": 75.943,
      "duration": 0.1099,
      "velocity": 88,
      "chip": "ym2612"
    },
    {
      "channel": 3,
      "note": 54,
      "start": 75.9467,
      "duration": 0.2066,
      "velocity": 105,
      "chip": "ym2612"
    },
    {
      "channel": 2,
      "note": 71,
      "start": 76.0567,
      "duration": 0.0968,
      "velocity": 88,
      "chip": "ym2612"
    },
    {
      "channel": 1,
      "note": 74,
      "start": 76.0596,
      "duration": 0.0935,
      "velocity": 88,
      "chip": "ym2612"
    },
    {
      "channel": 1,
      "note": 71,
      "start": 76.157,
      "duration": 0.113,
      "velocity": 88,
      "chip": "ym2612"
    },
    {
      "channel": 0,
      "note": 45,
      "start": 76.1602,
      "duration": 0.2098,
      "velocity": 125,
      "chip": "ym2612"
    },
    {
      "channel": 3,
      "note": 54,
      "start": 76.1637,
      "duration": 0.2065,
      "velocity": 105,
      "chip": "ym2612"
    },
    {
      "channel": 3,
      "note": 54,
      "start": 76.3758,
      "duration": 0.0,
      "velocity": 105,
      "chip": "ym2612"
    },
    {
      "channel": 0,
      "note": 45,
      "start": 76.3805,
      "duration": 0.002,
      "velocity": 125,
      "chip": "ym2612"
    },
    {
      "channel": 3,
      "note": 54,
      "start": 76.3824,
      "duration": 0.0001,
      "velocity": 105,
      "chip": "ym2612"
    },
    {
      "channel": 3,
      "note": 54,
      "start": 76.3845,
      "duration": 0.0,
      "velocity": 105,
      "chip": "ym2612"
    },
    {
      "channel": 4,
      "note": 60,
      "start": 76.3865,
      "duration": 0.0788,
      "velocity": 118,
      "chip": "ym2612"
    },
    {
      "channel": 2,
      "note": 60,
      "start": 76.3885,
      "duration": 0.077,
      "velocity": 118,
      "chip": "ym2612"
    },
    {
      "channel": 0,
      "note": 45,
      "start": 76.3902,
      "duration": 0.0748,
      "velocity": 125,
      "chip": "ym2612"
    },
    {
      "channel": 3,
      "note": 60,
      "start": 76.3921,
      "duration": 0.0731,
      "velocity": 105,
      "chip": "ym2612"
    },
    {
      "channel": 4,
      "note": 61,
      "start": 76.4692,
      "duration": 0.213,
      "velocity": 118,
      "chip": "ym2612"
    },
    {
      "channel": 2,
      "note": 61,
      "start": 76.4725,
      "duration": 0.2099,
      "velocity": 118,
      "chip": "ym2612"
    },
    {
      "channel": 3,
      "note": 61,
      "start": 76.4759,
      "duration": 0.2061,
      "velocity": 105,
      "chip": "ym2612"
    },
    {
      "channel": 4,
      "note": 59,
      "start": 76.6864,
      "duration": 0.2129,
      "velocity": 118,
      "chip": "ym2612"
    },
    {
      "channel": 2,
      "note": 59,
      "start": 76.6898,
      "duration": 0.2097,
      "velocity": 118,
      "chip": "ym2612"
    },
    {
      "channel": 0,
      "note": 45,
      "start": 76.6929,
      "duration": 0.2061,
      "velocity": 125,
      "chip": "ym2612"
    },
    {
      "channel": 3,
      "note": 59,
      "start": 76.696,
      "duration": 0.2032,
      "velocity": 105,
      "chip": "ym2612"
    },
    {
      "channel": 4,
      "note": 57,
      "start": 76.9034,
      "duration": 0.1793,
      "velocity": 118,
      "chip": "ym2612"
    },
    {
      "channel": 2,
      "note": 57,
      "start": 76.9075,
      "duration": 0.1754,
      "velocity": 118,
      "chip": "ym2612"
    },
    {
      "channel": 3,
      "note": 57,
      "start": 76.9113,
      "duration": 0.1712,
      "velocity": 105,
      "chip": "ym2612"
    },
    {
      "channel": 0,
      "note": 71,
      "start": 77.1534,
      "duration": 0.0793,
      "velocity": 98,
      "chip": "ym2612"
    },
    {
      "channel": 1,
      "note": 45,
      "start": 77.1606,
      "duration": 0.1724,
      "velocity": 125,
      "chip": "ym2612"
    },
    {
      "channel": 3,
      "note": 49,
      "start": 77.1661,
      "duration": 0.1671,
      "velocity": 105,
      "chip": "ym2612"
    },
    {
      "channel": 4,
      "note": 71,
      "start": 77.1888,
      "duration": 0.094,
      "velocity": 98,
      "chip": "ym2612"
    },
    {
      "channel": 0,
      "note": 64,
      "start": 77.2366,
      "duration": 0.0963,
      "velocity": 98,
      "chip": "ym2612"
    },
    {
      "channel": 4,
      "note": 64,
      "start": 77.2869,
      "duration": 0.1128,
      "velocity": 98,
      "chip": "ym2612"
    },
    {
      "channel": 0,
      "note": 61,
      "start": 77.337,
      "duration": 0.1126,
      "velocity": 98,
      "chip": "ym2612"
    },
    {
      "channel": 3,
      "note": 49,
      "start": 77.3404,
      "duration": 0.2095,
      "velocity": 105,
      "chip": "ym2612"
    },
    {
      "channel": 4,
      "note": 61,
      "start": 77.4038,
      "duration": 0.0961,
      "velocity": 98,
      "chip": "ym2612"
    },
    {
      "channel": 0,
      "note": 70,
      "start": 77.4535,
      "duration": 0.0963,
      "velocity": 98,
      "chip": "ym2612"
    },
    {
      "channel": 4,
      "note": 70,
      "start": 77.5039,
      "duration": 0.1128,
      "velocity": 98,
      "chip": "ym2612"
    },
    {
      "channel": 0,
      "note": 71,
      "start": 77.5537,
      "duration": 0.1128,
      "velocity": 98,
      "chip": "ym2612"
    },
    {
      "channel": 1,
      "note": 45,
      "start": 77.5568,
      "duration": 0.2101,
      "velocity": 125,
      "chip": "ym2612"
    },
    {
      "channel": 3,
      "note": 49,
      "start": 77.5599,
      "duration": 0.2071,
      "velocity": 105,
      "chip": "ym2612"
    },
    {
      "channel": 4,
      "note": 71,
      "start": 77.6207,
      "duration": 0.096,
      "velocity": 98,
      "chip": "ym2612"
    },
    {
      "channel": 0,
      "note": 70,
      "start": 77.6705,
      "duration": 0.0963,
      "velocity": 98,
      "chip": "ym2612"
    },
    {
      "channel": 4,
      "note": 70,
      "start": 77.7208,
      "duration": 0.0961,
      "velocity": 98,
      "chip": "ym2612"
    },
    {
      "channel": 5,
      "note": 47,
      "start": 77.7729,
      "duration": 0.2111,
      "velocity": 82,
      "chip": "ym2612"
    },
    {
      "channel": 0,
      "note": 64,
      "start": 77.7763,
      "duration": 0.1072,
      "velocity": 98,
      "chip": "ym2612"
    },
    {
      "channel": 3,
      "note": 49,
      "start": 77.7798,
      "duration": 0.2041,
      "velocity": 105,
      "chip": "ym2612"
    },
    {
      "channel": 4,
      "note": 64,
      "start": 77.8214,
      "duration": 0.1124,
      "velocity": 98,
      "chip": "ym2612"
    },
    {
      "channel": 0,
      "note": 61,
      "start": 77.8875,
      "duration": 0.0962,
      "velocity": 98,
      "chip": "ym2612"
    },
    {
      "channel": 4,
      "note": 61,
      "start": 77.9378,
      "duration": 0.0961,
      "velocity": 98,
      "chip": "ym2612"
    },
    {
      "channel": 2,
      "note": 47,
      "start": 77.9895,
      "duration": 0.2116,
      "velocity": 82,
      "chip": "ym2612"
    },
    {
      "channel": 0,
      "note": 70,
      "start": 77.9932,
      "duration": 0.1073,
      "velocity": 98,
      "chip": "ym2612"
    },
    {
      "channel": 1,
      "note": 45,
      "start": 77.9962,
      "duration": 0.2045,
      "velocity": 125,
      "chip": "ym2612"
    },
    {
      "channel": 3,
      "note": 49,
      "start": 77.9993,
      "duration": 0.2016,
      "velocity": 105,
      "chip": "ym2612"
    },
    {
      "channel": 4,
      "note": 70,
      "start": 78.038,
      "duration": 0.1127,
      "velocity": 98,
      "chip": "ym2612"
    },
    {
      "channel": 0,
      "note": 71,
      "start": 78.1044,
      "duration": 0.0962,
      "velocity": 98,
      "chip": "ym2612"
    },
    {
      "channel": 4,
      "note": 71,
      "start": 78.1548,
      "duration": 0.096,
      "velocity": 98,
      "chip": "ym2612"
    },
    {
      "channel": 0,
      "note": 68,
      "start": 78.2048,
      "duration": 0.1127,
      "velocity": 98,
      "chip": "ym2612"
    },
    {
      "channel": 3,
      "note": 49,
      "start": 78.2083,
      "duration": 0.2094,
      "velocity": 105,
      "chip": "ym2612"
    },
    {
      "channel": 4,
      "note": 68,
      "start": 78.2549,
      "duration": 0.1128,
      "velocity": 98,
      "chip": "ym2612"
    },
    {
      "channel": 0,
      "note": 64,
      "start": 78.3214,
      "duration": 0.0961,
      "velocity": 98,
      "chip": "ym2612"
    },
    {
      "channel": 4,
      "note": 64,
      "start": 78.3717,
      "duration": 0.0961,
      "velocity": 98,
      "chip": "ym2612"
    },
    {
      "channel": 0,
      "note": 61,
      "start": 78.4215,
      "duration": 0.0962,
      "velocity": 98,
      "chip": "ym2612"
    },
    {
      "channel": 1,
      "note": 45,
      "start": 78.4246,
      "duration": 0.21,
      "velocity": 125,
      "chip": "ym2612"
    },
    {
      "channel": 3,
      "note": 49,
      "start": 78.4277,
      "duration": 0.207,
      "velocity": 105,
      "chip": "ym2612"
    },
    {
      "channel": 4,
      "note": 61,
      "start": 78.4717,
      "duration": 0.1129,
      "velocity": 98,
      "chip": "ym2612"
    },
    {
      "channel": 0,
      "note": 59,
      "start": 78.5217,
      "duration": 0.1128,
      "velocity": 98,
      "chip": "ym2612"
    },
    {
      "channel": 4,
      "note": 59,
      "start": 78.5886,
      "duration": 0.0961,
      "velocity": 98,
      "chip": "ym2612"
    },
    {
      "channel": 2,
      "note": 47,
      "start": 78.6385,
      "duration": 0.2133,
      "velocity": 82,
      "chip": "ym2612"
    },
    {
      "channel": 0,
      "note": 61,
      "start": 78.6417,
      "duration": 0.0929,
      "velocity": 98,
      "chip": "ym2612"
    },
    {
      "channel": 3,
      "note": 49,
      "start": 78.6452,
      "duration": 0.2064,
      "velocity": 105,
      "chip": "ym2612"
    },
    {
      "channel": 4,
      "note": 61,
      "start": 78.6888,
      "duration": 0.1127,
      "velocity": 98,
      "chip": "ym2612"
    },
    {
      "channel": 0,
      "note": 59,
      "start": 78.7386,
      "duration": 0.1128,
      "velocity": 98,
      "chip": "ym2612"
    },
    {
      "channel": 4,
      "note": 59,
      "start": 78.8056,
      "duration": 0.0962,
      "velocity": 98,
      "chip": "ym2612"
    },
    {
      "channel": 2,
      "note": 47,
      "start": 78.8554,
      "duration": 0.2135,
      "velocity": 82,
      "chip": "ym2612"
    },
    {
      "channel": 0,
      "note": 70,
      "start": 78.8587,
      "duration": 0.093,
      "velocity": 98,
      "chip": "ym2612"
    },
    {
      "channel": 1,
      "note": 45,
      "start": 78.8618,
      "duration": 0.2068,
      "velocity": 125,
      "chip": "ym2612"
    },
    {
      "channel": 3,
      "note": 49,
      "start": 78.8653,
      "duration": 0.2034,
      "velocity": 105,
      "chip": "ym2612"
    },
    {
      "channel": 4,
      "note": 70,
      "start": 78.9058,
      "duration": 0.0961,
      "velocity": 98,
      "chip": "ym2612"
    },
    {
      "channel": 0,
      "note": 64,
      "start": 78.9556,
      "duration": 0.1128,
      "velocity": 98,
      "chip": "ym2612"
    },
    {
      "channel": 4,
      "note": 64,
      "start": 79.0059,
      "duration": 0.1127,
      "velocity": 98,
      "chip": "ym2612"
    },
    {
      "channel": 0,
      "note": 61,
      "start": 79.0726,
      "duration": 0.0959,
      "velocity": 98,
      "chip": "ym2612"
    },
    {
      "channel": 3,
      "note": 49,
      "start": 79.0761,
      "duration": 0.2094,
      "velocity": 105,
      "chip": "ym2612"
    },
    {
      "channel": 4,
      "note": 61,
      "start": 79.1226,
      "duration": 0.0961,
      "velocity": 98,
      "chip": "ym2612"
    },
    {
      "channel": 0,
      "note": 68,
      "start": 79.1724,
      "duration": 0.1129,
      "velocity": 98,
      "chip": "ym2612"
    },
    {
      "channel": 4,
      "note": 68,
      "start": 79.2228,
      "duration": 0.1127,
      "velocity": 98,
      "chip": "ym2612"
    },
    {
      "channel": 0,
      "note": 66,
      "start": 79.2893,
      "duration": 0.0962,
      "velocity": 98,
      "chip": "ym2612"
    },
    {
      "channel": 1,
      "note": 45,
      "start": 79.2924,
      "duration": 0.21,
      "velocity": 125,
      "chip": "ym2612"
    },
    {
      "channel": 3,
      "note": 49,
      "start": 79.2955,
      "duration": 0.207,
      "velocity": 105,
      "chip": "ym2612"
    },
    {
      "channel": 4,
      "note": 66,
      "start": 79.3395,
      "duration": 0.0962,
      "velocity": 98,
      "chip": "ym2612"
    },
    {
      "channel": 0,
      "note": 70,
      "start": 79.3895,
      "duration": 0.1128,
      "velocity": 98,
      "chip": "ym2612"
    },
    {
      "channel": 4,
      "note": 70,
      "start": 79.4398,
      "duration": 0.1128,
      "velocity": 98,
      "chip": "ym2612"
    },
    {
      "channel": 5,
      "note": 47,
      "start": 79.5059,
      "duration": 0.197,
      "velocity": 82,
      "chip": "ym2612"
    },
    {
      "channel": 0,
      "note": 68,
      "start": 79.5093,
      "duration": 0.0932,
      "velocity": 98,
      "chip": "ym2612"
    },
    {
      "channel": 3,
      "note": 49,
      "start": 79.5127,
      "duration": 0.19,
      "velocity": 105,
      "chip": "ym2612"
    },
    {
      "channel": 4,
      "note": 68,
      "start": 79.557,
      "duration": 0.0956,
      "velocity": 98,
      "chip": "ym2612"
    },
    {
      "channel": 0,
      "note": 70,
      "start": 79.6064,
      "duration": 0.0962,
      "velocity": 98,
      "chip": "ym2612"
    },
    {
      "channel": 4,
      "note": 70,
      "start": 79.6567,
      "duration": 0.1128,
      "velocity": 98,
      "chip": "ym2612"
    },
    {
      "channel": 2,
      "note": 47,
      "start": 79.7069,
      "duration": 0.2131,
      "velocity": 82,
      "chip": "ym2612"
    },
    {
      "channel": 0,
      "note": 68,
      "start": 79.7106,
      "duration": 0.1088,
      "velocity": 98,
      "chip": "ym2612"
    },
    {
      "channel": 1,
      "note": 45,
      "start": 79.7137,
      "duration": 0.206,
      "velocity": 125,
      "chip": "ym2612"
    },
    {
      "channel": 3,
      "note": 49,
      "start": 79.7168,
      "duration": 0.203,
      "velocity": 105,
      "chip": "ym2612"
    },
    {
      "channel": 4,
      "note": 68,
      "start": 79.7735,
      "duration": 0.0961,
      "velocity": 98,
      "chip": "ym2612"
    },
    {
      "channel": 0,
      "note": 64,
      "start": 79.8233,
      "duration": 0.0962,
      "velocity": 98,
      "chip": "ym2612"
    },
    {
      "channel": 4,
      "note": 64,
      "start": 79.8737,
      "duration": 0.1128,
      "velocity": 98,
      "chip": "ym2612"
    },
    {
      "channel": 0,
      "note": 61,
      "start": 79.9237,
      "duration": 0.1127,
      "velocity": 98,
      "chip": "ym2612"
    },
    {
      "channel": 3,
      "note": 49,
      "start": 79.9271,
      "duration": 0.2094,
      "velocity": 105,
      "chip": "ym2612"
    },
    {
      "channel": 4,
      "note": 61,
      "start": 79.9905,
      "duration": 0.096,
      "velocity": 98,
      "chip": "ym2612"
    },
    {
      "channel": 0,
      "note": 58,
      "start": 80.0402,
      "duration": 0.0961,
      "velocity": 98,
      "chip": "ym2612"
    },
    {
      "channel": 4,
      "note": 58,
      "start": 80.0905,
      "duration": 0.0961,
      "velocity": 98,
      "chip": "ym2612"
    },
    {
      "channel": 2,
      "note": 49,
      "start": 80.1405,
      "duration": 0.1131,
      "velocity": 82,
      "chip": "ym2612"
    },
    {
      "channel": 0,
      "note": 59,
      "start": 80.1437,
      "duration": 0.1095,
      "velocity": 98,
      "chip": "ym2612"
    },
    {
      "channel": 1,
      "note": 45,
      "start": 80.1468,
      "duration": 0.2068,
      "velocity": 125,
      "chip": "ym2612"
    },
    {
      "channel": 3,
      "note": 49,
      "start": 80.1499,
      "duration": 0.2038,
      "velocity": 105,
      "chip": "ym2612"
    },
    {
      "channel": 4,
      "note": 59,
      "start": 80.1907,
      "duration": 0.1128,
      "velocity": 98,
      "chip": "ym2612"
    },
    {
      "channel": 2,
      "note": 49,
      "start": 80.257,
      "duration": 0.097,
      "velocity": 82,
      "chip": "ym2612"
    },
    {
      "channel": 0,
      "note": 56,
      "start": 80.2602,
      "duration": 0.0932,
      "velocity": 98,
      "chip": "ym2612"
    },
    {
      "channel": 4,
      "note": 56,
      "start": 80.3076,
      "duration": 0.0961,
      "velocity": 98,
      "chip": "ym2612"
    },
    {
      "channel": 2,
      "note": 47,
      "start": 80.3577,
      "duration": 0.2131,
      "velocity": 82,
      "chip": "ym2612"
    },
    {
      "channel": 0,
      "note": 58,
      "start": 80.3609,
      "duration": 0.1093,
      "velocity": 98,
      "chip": "ym2612"
    },
    {
      "channel": 3,
      "note": 49,
      "start": 80.3644,
      "duration": 0.2061,
      "velocity": 105,
      "chip": "ym2612"
    },
    {
      "channel": 4,
      "note": 58,
      "start": 80.4077,
      "duration": 0.1127,
      "velocity": 98,
      "chip": "ym2612"
    },
    {
      "channel": 0,
      "note": 59,
      "start": 80.4741,
      "duration": 0.0962,
      "velocity": 98,
      "chip": "ym2612"
    },
    {
      "channel": 4,
      "note": 59,
      "start": 80.5245,
      "duration": 0.0961,
      "velocity": 98,
      "chip": "ym2612"
    },
    {
      "channel": 2,
      "note": 47,
      "start": 80.5743,
      "duration": 0.2135,
      "velocity": 82,
      "chip": "ym2612"
    },
    {
      "channel": 0,
      "note": 68,
      "start": 80.5776,
      "duration": 0.1096,
      "velocity": 98,
      "chip": "ym2612"
    },
    {
      "channel": 1,
      "note": 45,
      "start": 80.5811,
      "duration": 0.2064,
      "velocity": 125,
      "chip": "ym2612"
    },
    {
      "channel": 3,
      "note": 49,
      "start": 80.5842,
      "duration": 0.2034,
      "velocity": 105,
      "chip": "ym2612"
    },
    {
      "channel": 4,
      "note": 68,
      "start": 80.6246,
      "duration": 0.1129,
      "velocity": 98,
      "chip": "ym2612"
    },
    {
      "channel": 0,
      "note": 56,
      "start": 80.6911,
      "duration": 0.0962,
      "velocity": 98,
      "chip": "ym2612"
    },
    {
      "channel": 4,
      "note": 56,
      "start": 80.7415,
      "duration": 0.096,
      "velocity": 98,
      "chip": "ym2612"
    },
    {
      "channel": 0,
      "note": 58,
      "start": 80.7915,
      "duration": 0.0959,
      "velocity": 98,
      "chip": "ym2612"
    },
    {
      "channel": 3,
      "note": 49,
      "start": 80.795,
      "duration": 0.2094,
      "velocity": 105,
      "chip": "ym2612"
    },
    {
      "channel": 4,
      "note": 58,
      "start": 80.8415,
      "duration": 0.1128,
      "velocity": 98,
      "chip": "ym2612"
    },
    {
      "channel": 0,
      "note": 59,
      "start": 80.8913,
      "duration": 0.1129,
      "velocity": 98,
      "chip": "ym2612"
    },
    {
      "channel": 4,
      "note": 59,
      "start": 80.9584,
      "duration": 0.096,
      "velocity": 98,
      "chip": "ym2612"
    },
    {
      "channel": 0,
      "note": 61,
      "start": 81.0082,
      "duration": 0.0961,
      "velocity": 98,
      "chip": "ym2612"
    },
    {
      "channel": 1,
      "note": 45,
      "start": 81.0113,
      "duration": 0.21,
      "velocity": 125,
      "chip": "ym2612"
    },
    {
      "channel": 3,
      "note": 49,
      "start": 81.0144,
      "duration": 0.207,
      "velocity": 105,
      "chip": "ym2612"
    },
    {
      "channel": 4,
      "note": 61,
      "start": 81.0585,
      "duration": 0.1128,
      "velocity": 98,
      "chip": "ym2612"
    },
    {
      "channel": 0,
      "note": 52,
      "start": 81.1083,
      "duration": 0.1129,
      "velocity": 98,
      "chip": "ym2612"
    },
    {
      "channel": 4,
      "note": 52,
      "start": 81.1753,
      "duration": 0.096,
      "velocity": 98,
      "chip": "ym2612"
    },
    {
      "channel": 5,
      "note": 47,
      "start": 81.2248,
      "duration": 0.2137,
      "velocity": 82,
      "chip": "ym2612"
    },
    {
      "channel": 0,
      "note": 56,
      "start": 81.2282,
      "duration": 0.0932,
      "velocity": 98,
      "chip": "ym2612"
    },
    {
      "channel": 3,
      "note": 49,
      "start": 81.2316,
      "duration": 0.2066,
      "velocity": 105,
      "chip": "ym2612"
    },
    {
      "channel": 4,
      "note": 56,
      "start": 81.2758,
      "duration": 0.0958,
      "velocity": 98,
      "chip": "ym2612"
    },
    {
      "channel": 0,
      "note": 68,
      "start": 81.3253,
      "duration": 0.1128,
      "velocity": 98,
      "chip": "ym2612"
    },
    {
      "channel": 4,
      "note": 68,
      "start": 81.3756,
      "duration": 0.1128,
      "velocity": 98,
      "chip": "ym2612"
    },
    {
      "channel": 2,
      "note": 47,
      "start": 81.442,
      "duration": 0.2136,
      "velocity": 82,
      "chip": "ym2612"
    },
    {
      "channel": 0,
      "note": 56,
      "start": 81.4456,
      "duration": 0.0927,
      "velocity": 98,
      "chip": "ym2612"
    },
    {
      "channel": 1,
      "note": 45,
      "start": 81.4487,
      "duration": 0.2065,
      "velocity": 125,
      "chip": "ym2612"
    },
    {
      "channel": 3,
      "note": 49,
      "start": 81.4518,
      "duration": 0.2036,
      "velocity": 105,
      "chip": "ym2612"
    },
    {
      "channel": 4,
      "note": 56,
      "start": 81.4924,
      "duration": 0.0961,
      "velocity": 98,
      "chip": "ym2612"
    },
    {
      "channel": 0,
      "note": 70,
      "start": 81.5423,
      "duration": 0.1128,
      "velocity": 98,
      "chip": "ym2612"
    },
    {
      "channel": 4,
      "note": 70,
      "start": 81.5926,
      "duration": 0.1127,
      "velocity": 98,
      "chip": "ym2612"
    },
    {
      "channel": 0,
      "note": 56,
      "start": 81.6593,
      "duration": 0.0959,
      "velocity": 98,
      "chip": "ym2612"
    },
    {
      "channel": 3,
      "note": 49,
      "start": 81.6627,
      "duration": 0.2095,
      "velocity": 105,
      "chip": "ym2612"
    },
    {
      "channel": 4,
      "note": 56,
      "start": 81.7093,
      "duration": 0.0961,
      "velocity": 98,
      "chip": "ym2612"
    },
    {
      "channel": 0,
      "note": 71,
      "start": 81.7591,
      "duration": 0.1129,
      "velocity": 98,
      "chip": "ym2612"
    },
    {
      "channel": 4,
      "note": 71,
      "start": 81.8095,
      "duration": 0.1128,
      "velocity": 98,
      "chip": "ym2612"
    },
    {
      "channel": 0,
      "note": 56,
      "start": 81.876,
      "duration": 0.0962,
      "velocity": 98,
      "chip": "ym2612"
    },
    {
      "channel": 1,
      "note": 45,
      "start": 81.8791,
      "duration": 0.1934,
      "velocity": 125,
      "chip": "ym2612"
    },
    {
      "channel": 3,
      "note": 49,
      "start": 81.8822,
      "duration": 0.1904,
      "velocity": 105,
      "chip": "ym2612"
    },
    {
      "channel": 4,
      "note": 56,
      "start": 81.9263,
      "duration": 0.0961,
      "velocity": 98,
      "chip": "ym2612"
    },
    {
      "channel": 0,
      "note": 68,
      "start": 81.9761,
      "duration": 0.0961,
      "velocity": 98,
      "chip": "ym2612"
    },
    {
      "channel": 4,
      "note": 68,
      "start": 82.0264,
      "duration": 0.1127,
      "velocity": 98,
      "chip": "ym2612"
    },
    {
      "channel": 0,
      "note": 64,
      "start": 82.0764,
      "duration": 0.1127,
      "velocity": 98,
      "chip": "ym2612"
    },
    {
      "channel": 3,
      "note": 49,
      "start": 82.0798,
      "duration": 0.2096,
      "velocity": 105,
      "chip": "ym2612"
    },
    {
      "channel": 4,
      "note": 64,
      "start": 82.1432,
      "duration": 0.0961,
      "velocity": 98,
      "chip": "ym2612"
    },
    {
      "channel": 0,
      "note": 61,
      "start": 82.1929,
      "duration": 0.0963,
      "velocity": 98,
      "chip": "ym2612"
    },
    {
      "channel": 4,
      "note": 61,
      "start": 82.2434,
      "duration": 0.1127,
      "velocity": 98,
      "chip": "ym2612"
    },
    {
      "channel": 2,
      "note": 47,
      "start": 82.2933,
      "duration": 0.2133,
      "velocity": 82,
      "chip": "ym2612"
    },
    {
      "channel": 0,
      "note": 56,
      "start": 82.2967,
      "duration": 0.1093,
      "velocity": 98,
      "chip": "ym2612"
    },
    {
      "channel": 1,
      "note": 45,
      "start": 82.2998,
      "duration": 0.2064,
      "velocity": 125,
      "chip": "ym2612"
    },
    {
      "channel": 3,
      "note": 49,
      "start": 82.3033,
      "duration": 0.2031,
      "velocity": 105,
      "chip": "ym2612"
    },
    {
      "channel": 4,
      "note": 56,
      "start": 82.3603,
      "duration": 0.0959,
      "velocity": 98,
      "chip": "ym2612"
    },
    {
      "channel": 3,
      "note": 49,
      "start": 82.511,
      "duration": 0.2122,
      "velocity": 105,
      "chip": "ym2612"
    },
    {
      "channel": 0,
      "note": 56,
      "start": 82.7272,
      "duration": 0.1128,
      "velocity": 98,
      "chip": "ym2612"
    },
    {
      "channel": 1,
      "note": 45,
      "start": 82.7303,
      "duration": 0.2099,
      "velocity": 125,
      "chip": "ym2612"
    },
    {
      "channel": 3,
      "note": 49,
      "start": 82.7334,
      "duration": 0.2069,
      "velocity": 105,
      "chip": "ym2612"
    },
    {
      "channel": 4,
      "note": 56,
      "start": 82.7775,
      "duration": 0.1127,
      "velocity": 98,
      "chip": "ym2612"
    },
    {
      "channel": 0,
      "note": 56,
      "start": 82.8441,
      "duration": 0.096,
      "velocity": 98,
      "chip": "ym2612"
    },
    {
      "channel": 4,
      "note": 56,
      "start": 82.8944,
      "duration": 0.0959,
      "velocity": 98,
      "chip": "ym2612"
    },
    {
      "channel": 5,
      "note": 47,
      "start": 82.9439,
      "duration": 0.2134,
      "velocity": 82,
      "chip": "ym2612"
    },
    {
      "channel": 3,
      "note": 49,
      "start": 82.948,
      "duration": 0.2092,
      "velocity": 105,
      "chip": "ym2612"
    },
    {
      "channel": 0,
      "note": 56,
      "start": 83.1612,
      "duration": 0.0959,
      "velocity": 98,
      "chip": "ym2612"
    },
    {
      "channel": 1,
      "note": 45,
      "start": 83.1643,
      "duration": 0.2098,
      "velocity": 125,
      "chip": "ym2612"
    },
    {
      "channel": 3,
      "note": 53,
      "start": 83.1674,
      "duration": 0.2068,
      "velocity": 105,
      "chip": "ym2612"
    },
    {
      "channel": 4,
      "note": 56,
      "start": 83.2117,
      "duration": 0.1124,
      "velocity": 98,
      "chip": "ym2612"
    },
    {
      "channel": 0,
      "note": 56,
      "start": 83.2615,
      "duration": 0.1125,
      "velocity": 98,
      "chip": "ym2612"
    },
    {
      "channel": 4,
      "note": 56,
      "start": 83.3281,
      "duration": 0.0961,
      "velocity": 98,
      "chip": "ym2612"
    },
    {
      "channel": 0,
      "note": 56,
      "start": 83.3782,
      "duration": 0.0959,
      "velocity": 98,
      "chip": "ym2612"
    },
    {
      "channel": 3,
      "note": 54,
      "start": 83.3816,
      "duration": 0.2094,
      "velocity": 105,
      "chip": "ym2612"
    },
    {
      "channel": 4,
      "note": 56,
      "start": 83.4284,
      "duration": 0.1126,
      "velocity": 98,
      "chip": "ym2612"
    },
    {
      "channel": 2,
      "note": 49,
      "start": 83.5953,
      "duration": 0.0961,
      "velocity": 82,
      "chip": "ym2612"
    },
    {
      "channel": 0,
      "note": 56,
      "start": 83.5987,
      "duration": 0.0923,
      "velocity": 98,
      "chip": "ym2612"
    },
    {
      "channel": 1,
      "note": 45,
      "start": 83.6018,
      "duration": 0.2061,
      "velocity": 125,
      "chip": "ym2612"
    },
    {
      "channel": 3,
      "note": 57,
      "start": 83.6049,
      "duration": 0.2031,
      "velocity": 105,
      "chip": "ym2612"
    },
    {
      "channel": 4,
      "note": 56,
      "start": 83.6452,
      "duration": 0.0961,
      "velocity": 98,
      "chip": "ym2612"
    },
    {
      "channel": 2,
      "note": 49,
      "start": 83.6951,
      "duration": 0.1132,
      "velocity": 82,
      "chip": "ym2612"
    },
    {
      "channel": 0,
      "note": 56,
      "start": 83.6983,
      "duration": 0.1094,
      "velocity": 98,
      "chip": "ym2612"
    },
    {
      "channel": 4,
      "note": 56,
      "start": 83.7453,
      "duration": 0.1128,
      "velocity": 98,
      "chip": "ym2612"
    },
    {
      "channel": 0,
      "note": 56,
      "start": 83.812,
      "duration": 0.096,
      "velocity": 98,
      "chip": "ym2612"
    },
    {
      "channel": 3,
      "note": 59,
      "start": 83.8154,
      "duration": 0.2096,
      "velocity": 105,
      "chip": "ym2612"
    },
    {
      "channel": 4,
      "note": 56,
      "start": 83.8621,
      "duration": 0.096,
      "velocity": 98,
      "chip": "ym2612"
    },
    {
      "channel": 0,
      "note": 56,
      "start": 83.9119,
      "duration": 0.1129,
      "velocity": 98,
      "chip": "ym2612"
    },
    {
      "channel": 4,
      "note": 56,
      "start": 83.9625,
      "duration": 0.0123,
      "velocity": 98,
      "chip": "ym2612"
    },
    {
      "channel": 1,
      "note": 45,
      "start": 84.0303,
      "duration": 0.1948,
      "velocity": 125,
      "chip": "ym2612"
    },
    {
      "channel": 3,
      "note": 49,
      "start": 84.0334,
      "duration": 0.1918,
      "velocity": 105,
      "chip": "ym2612"
    },
    {
      "channel": 5,
      "note": 76,
      "start": 84.0387,
      "duration": 0.1867,
      "velocity": 78,
      "chip": "ym2612"
    },
    {
      "channel": 2,
      "note": 76,
      "start": 84.0818,
      "duration": 0.2103,
      "velocity": 78,
      "chip": "ym2612"
    },
    {
      "channel": 3,
      "note": 49,
      "start": 84.2298,
      "duration": 0.2123,
      "velocity": 105,
      "chip": "ym2612"
    },
    {
      "channel": 5,
      "note": 68,
      "start": 84.2333,
      "duration": 0.1087,
      "velocity": 78,
      "chip": "ym2612"
    },
    {
      "channel": 2,
      "note": 68,
      "start": 84.2971,
      "duration": 0.095,
      "velocity": 78,
      "chip": "ym2612"
    },
    {
      "channel": 5,
      "note": 66,
      "start": 84.3466,
      "duration": 0.0956,
      "velocity": 78,
      "chip": "ym2612"
    },
    {
      "channel": 2,
      "note": 66,
      "start": 84.3969,
      "duration": 0.1121,
      "velocity": 78,
      "chip": "ym2612"
    },
    {
      "channel": 1,
      "note": 45,
      "start": 84.4463,
      "duration": 0.2126,
      "velocity": 125,
      "chip": "ym2612"
    },
    {
      "channel": 3,
      "note": 49,
      "start": 84.4494,
      "duration": 0.2097,
      "velocity": 105,
      "chip": "ym2612"
    },
    {
      "channel": 5,
      "note": 68,
      "start": 84.4531,
      "duration": 0.1059,
      "velocity": 78,
      "chip": "ym2612"
    },
    {
      "channel": 2,
      "note": 68,
      "start": 84.5141,
      "duration": 0.0951,
      "velocity": 78,
      "chip": "ym2612"
    },
    {
      "channel": 5,
      "note": 66,
      "start": 84.5636,
      "duration": 0.0956,
      "velocity": 78,
      "chip": "ym2612"
    },
    {
      "channel": 2,
      "note": 66,
      "start": 84.6139,
      "duration": 0.112,
      "velocity": 78,
      "chip": "ym2612"
    },
    {
      "channel": 4,
      "note": 47,
      "start": 84.6634,
      "duration": 0.2127,
      "velocity": 82,
      "chip": "ym2612"
    },
    {
      "channel": 3,
      "note": 49,
      "start": 84.6675,
      "duration": 0.2085,
      "velocity": 105,
      "chip": "ym2612"
    },
    {
      "channel": 5,
      "note": 75,
      "start": 84.671,
      "duration": 0.2053,
      "velocity": 78,
      "chip": "ym2612"
    },
    {
      "channel": 2,
      "note": 75,
      "start": 84.7309,
      "duration": 0.1952,
      "velocity": 78,
      "chip": "ym2612"
    },
    {
      "channel": 0,
      "note": 47,
      "start": 84.88,
      "duration": 0.2128,
      "velocity": 82,
      "chip": "ym2612"
    },
    {
      "channel": 1,
      "note": 45,
      "start": 84.8836,
      "duration": 0.2094,
      "velocity": 125,
      "chip": "ym2612"
    },
    {
      "channel": 3,
      "note": 49,
      "start": 84.8867,
      "duration": 0.2064,
      "velocity": 105,
      "chip": "ym2612"
    },
    {
      "channel": 3,
      "note": 49,
      "start": 85.0975,
      "duration": 0.2123,
      "velocity": 105,
      "chip": "ym2612"
    },
    {
      "channel": 5,
      "note": 68,
      "start": 85.1009,
      "duration": 0.2091,
      "velocity": 78,
      "chip": "ym2612"
    },
    {
      "channel": 2,
      "note": 68,
      "start": 85.148,
      "duration": 0.2122,
      "velocity": 78,
      "chip": "ym2612"
    },
    {
      "channel": 1,
      "note": 45,
      "start": 85.3141,
      "duration": 0.2127,
      "velocity": 125,
      "chip": "ym2612"
    },
    {
      "channel": 3,
      "note": 49,
      "start": 85.3172,
      "duration": 0.2098,
      "velocity": 105,
      "chip": "ym2612"
    },
    {
      "channel": 5,
      "note": 68,
      "start": 85.3204,
      "duration": 0.2067,
      "velocity": 78,
      "chip": "ym2612"
    },
    {
      "channel": 2,
      "note": 68,
      "start": 85.3649,
      "duration": 0.2121,
      "velocity": 78,
      "chip": "ym2612"
    },
    {
      "channel": 0,
      "note": 47,
      "start": 85.5305,
      "duration": 0.2132,
      "velocity": 82,
      "chip": "ym2612"
    },
    {
      "channel": 3,
      "note": 49,
      "start": 85.5343,
      "duration": 0.2095,
      "velocity": 105,
      "chip": "ym2612"
    },
    {
      "channel": 5,
      "note": 68,
      "start": 85.5376,
      "duration": 0.2064,
      "velocity": 78,
      "chip": "ym2612"
    },
    {
      "channel": 2,
      "note": 68,
      "start": 85.5817,
      "duration": 0.2123,
      "velocity": 78,
      "chip": "ym2612"
    },
    {
      "channel": 0,
      "note": 47,
      "start": 85.7473,
      "duration": 0.2134,
      "velocity": 82,
      "chip": "ym2612"
    },
    {
      "channel": 1,
      "note": 45,
      "start": 85.7509,
      "duration": 0.21,
      "velocity": 125,
      "chip": "ym2612"
    },
    {
      "channel": 3,
      "note": 49,
      "start": 85.7543,
      "duration": 0.2066,
      "velocity": 105,
      "chip": "ym2612"
    },
    {
      "channel": 5,
      "note": 73,
      "start": 85.7579,
      "duration": 0.0862,
      "velocity": 78,
      "chip": "ym2612"
    },
    {
      "channel": 2,
      "note": 73,
      "start": 85.7991,
      "duration": 0.1117,
      "velocity": 78,
      "chip": "ym2612"
    },
    {
      "channel": 5,
      "note": 71,
      "start": 85.8486,
      "duration": 0.1125,
      "velocity": 78,
      "chip": "ym2612"
    },
    {
      "channel": 2,
      "note": 71,
      "start": 85.9155,
      "duration": 0.0955,
      "velocity": 78,
      "chip": "ym2612"
    },
    {
      "channel": 3,
      "note": 49,
      "start": 85.9655,
      "duration": 0.2121,
      "velocity": 105,
      "chip": "ym2612"
    },
    {
      "channel": 5,
      "note": 73,
      "start": 85.9688,
      "duration": 0.0922,
      "velocity": 78,
      "chip": "ym2612"
    },
    {
      "channel": 2,
      "note": 73,
      "start": 86.0157,
      "duration": 0.0953,
      "velocity": 78,
      "chip": "ym2612"
    },
    {
      "channel": 5,
      "note": 71,
      "start": 86.0655,
      "duration": 0.1123,
      "velocity": 78,
      "chip": "ym2612"
    },
    {
      "channel": 2,
      "note": 71,
      "start": 86.1158,
      "duration": 0.1121,
      "velocity": 78,
      "chip": "ym2612"
    },
    {
      "channel": 1,
      "note": 45,
      "start": 86.1818,
      "duration": 0.2127,
      "velocity": 125,
      "chip": "ym2612"
    },
    {
      "channel": 3,
      "note": 49,
      "start": 86.1849,
      "duration": 0.2097,
      "velocity": 105,
      "chip": "ym2612"
    },
    {
      "channel": 5,
      "note": 69,
      "start": 86.1889,
      "duration": 0.206,
      "velocity": 78,
      "chip": "ym2612"
    },
    {
      "channel": 2,
      "note": 69,
      "start": 86.2333,
      "duration": 0.2115,
      "velocity": 78,
      "chip": "ym2612"
    },
    {
      "channel": 4,
      "note": 47,
      "start": 86.3981,
      "duration": 0.1969,
      "velocity": 82,
      "chip": "ym2612"
    },
    {
      "channel": 3,
      "note": 49,
      "start": 86.4021,
      "duration": 0.1928,
      "velocity": 105,
      "chip": "ym2612"
    },
    {
      "channel": 5,
      "note": 71,
      "start": 86.4056,
      "duration": 0.0893,
      "velocity": 78,
      "chip": "ym2612"
    },
    {
      "channel": 2,
      "note": 71,
      "start": 86.4498,
      "duration": 0.0952,
      "velocity": 78,
      "chip": "ym2612"
    },
    {
      "channel": 5,
      "note": 69,
      "start": 86.4995,
      "duration": 0.0956,
      "velocity": 78,
      "chip": "ym2612"
    },
    {
      "channel": 2,
      "note": 69,
      "start": 86.5497,
      "duration": 0.1121,
      "velocity": 78,
      "chip": "ym2612"
    },
    {
      "channel": 0,
      "note": 47,
      "start": 86.5984,
      "duration": 0.2132,
      "velocity": 82,
      "chip": "ym2612"
    },
    {
      "channel": 1,
      "note": 45,
      "start": 86.602,
      "duration": 0.2098,
      "velocity": 125,
      "chip": "ym2612"
    },
    {
      "channel": 3,
      "note": 49,
      "start": 86.6051,
      "duration": 0.2068,
      "velocity": 105,
      "chip": "ym2612"
    },
    {
      "channel": 5,
      "note": 71,
      "start": 86.6083,
      "duration": 0.1034,
      "velocity": 78,
      "chip": "ym2612"
    },
    {
      "channel": 2,
      "note": 71,
      "start": 86.6665,
      "duration": 0.0954,
      "velocity": 78,
      "chip": "ym2612"
    },
    {
      "channel": 5,
      "note": 69,
      "start": 86.7163,
      "duration": 0.0957,
      "velocity": 78,
      "chip": "ym2612"
    },
    {
      "channel": 2,
      "note": 69,
      "start": 86.7666,
      "duration": 0.1121,
      "velocity": 78,
      "chip": "ym2612"
    },
    {
      "channel": 3,
      "note": 49,
      "start": 86.8164,
      "duration": 0.2123,
      "velocity": 105,
      "chip": "ym2612"
    },
    {
      "channel": 5,
      "note": 68,
      "start": 86.82,
      "duration": 0.2089,
      "velocity": 78,
      "chip": "ym2612"
    },
    {
      "channel": 2,
      "note": 68,
      "start": 86.8838,
      "duration": 0.2119,
      "velocity": 78,
      "chip": "ym2612"
    },
    {
      "channel": 0,
      "note": 49,
      "start": 87.0324,
      "duration": 0.113,
      "velocity": 82,
      "chip": "ym2612"
    },
    {
      "channel": 1,
      "note": 45,
      "start": 87.036,
      "duration": 0.2097,
      "velocity": 125,
      "chip": "ym2612"
    },
    {
      "channel": 3,
      "note": 49,
      "start": 87.0391,
      "duration": 0.2067,
      "velocity": 105,
      "chip": "ym2612"
    },
    {
      "channel": 5,
      "note": 66,
      "start": 87.0426,
      "duration": 0.4203,
      "velocity": 78,
      "chip": "ym2612"
    },
    {
      "channel": 2,
      "note": 66,
      "start": 87.1007,
      "duration": 0.4122,
      "velocity": 78,
      "chip": "ym2612"
    },
    {
      "channel": 0,
      "note": 49,
      "start": 87.1493,
      "duration": 0.0963,
      "velocity": 82,
      "chip": "ym2612"
    },
    {
      "channel": 0,
      "note": 47,
      "start": 87.2494,
      "duration": 0.2132,
      "velocity": 82,
      "chip": "ym2612"
    },
    {
      "channel": 3,
      "note": 49,
      "start": 87.2533,
      "duration": 0.2094,
      "velocity": 105,
      "chip": "ym2612"
    },
    {
      "channel": 0,
      "note": 47,
      "start": 87.4662,
      "duration": 0.2133,
      "velocity": 82,
      "chip": "ym2612"
    },
    {
      "channel": 1,
      "note": 45,
      "start": 87.4702,
      "duration": 0.2095,
      "velocity": 125,
      "chip": "ym2612"
    },
    {
      "channel": 3,
      "note": 49,
      "start": 87.4733,
      "duration": 0.2065,
      "velocity": 105,
      "chip": "ym2612"
    },
    {
      "channel": 5,
      "note": 69,
      "start": 87.4772,
      "duration": 0.1024,
      "velocity": 78,
      "chip": "ym2612"
    },
    {
      "channel": 2,
      "note": 69,
      "start": 87.5183,
      "duration": 0.1113,
      "velocity": 78,
      "chip": "ym2612"
    },
    {
      "channel": 5,
      "note": 68,
      "start": 87.5842,
      "duration": 0.0957,
      "velocity": 78,
      "chip": "ym2612"
    },
    {
      "channel": 2,
      "note": 68,
      "start": 87.6344,
      "duration": 0.0955,
      "velocity": 78,
      "chip": "ym2612"
    },
    {
      "channel": 3,
      "note": 49,
      "start": 87.6843,
      "duration": 0.2123,
      "velocity": 105,
      "chip": "ym2612"
    },
    {
      "channel": 5,
      "note": 69,
      "start": 87.6876,
      "duration": 0.0922,
      "velocity": 78,
      "chip": "ym2612"
    },
    {
      "channel": 2,
      "note": 69,
      "start": 87.7346,
      "duration": 0.112,
      "velocity": 78,
      "chip": "ym2612"
    },
    {
      "channel": 5,
      "note": 68,
      "start": 87.7844,
      "duration": 0.1124,
      "velocity": 78,
      "chip": "ym2612"
    },
    {
      "channel": 2,
      "note": 68,
      "start": 87.8514,
      "duration": 0.0954,
      "velocity": 78,
      "chip": "ym2612"
    },
    {
      "channel": 1,
      "note": 45,
      "start": 87.9008,
      "duration": 0.2127,
      "velocity": 125,
      "chip": "ym2612"
    },
    {
      "channel": 3,
      "note": 49,
      "start": 87.9039,
      "duration": 0.2097,
      "velocity": 105,
      "chip": "ym2612"
    },
    {
      "channel": 5,
      "note": 73,
      "start": 87.9071,
      "duration": 0.0897,
      "velocity": 78,
      "chip": "ym2612"
    },
    {
      "channel": 2,
      "note": 73,
      "start": 87.9515,
      "duration": 0.1121,
      "velocity": 78,
      "chip": "ym2612"
    },
    {
      "channel": 5,
      "note": 71,
      "start": 88.0014,
      "duration": 0.1124,
      "velocity": 78,
      "chip": "ym2612"
    },
    {
      "channel": 2,
      "note": 71,
      "start": 88.0683,
      "duration": 0.0954,
      "velocity": 78,
      "chip": "ym2612"
    },
    {
      "channel": 4,
      "note": 47,
      "start": 88.117,
      "duration": 0.2136,
      "velocity": 82,
      "chip": "ym2612"
    },
    {
      "channel": 3,
      "note": 49,
      "start": 88.121,
      "duration": 0.2095,
      "velocity": 105,
      "chip": "ym2612"
    },
    {
      "channel": 5,
      "note": 73,
      "start": 88.1243,
      "duration": 0.0895,
      "velocity": 78,
      "chip": "ym2612"
    },
    {
      "channel": 2,
      "note": 73,
      "start": 88.1684,
      "duration": 0.1121,
      "velocity": 78,
      "chip": "ym2612"
    },
    {
      "channel": 5,
      "note": 75,
      "start": 88.2184,
      "duration": 0.1124,
      "velocity": 78,
      "chip": "ym2612"
    },
    {
      "channel": 2,
      "note": 75,
      "start": 88.2852,
      "duration": 0.0955,
      "velocity": 78,
      "chip": "ym2612"
    },
    {
      "channel": 0,
      "note": 47,
      "start": 88.3339,
      "duration": 0.2133,
      "velocity": 82,
      "chip": "ym2612"
    },
    {
      "channel": 1,
      "note": 45,
      "start": 88.3375,
      "duration": 0.2099,
      "velocity": 125,
      "chip": "ym2612"
    },
    {
      "channel": 3,
      "note": 49,
      "start": 88.3406,
      "duration": 0.2069,
      "velocity": 105,
      "chip": "ym2612"
    },
    {
      "channel": 5,
      "note": 78,
      "start": 88.3441,
      "duration": 0.2036,
      "velocity": 78,
      "chip": "ym2612"
    },
    {
      "channel": 2,
      "note": 78,
      "start": 88.3857,
      "duration": 0.2118,
      "velocity": 78,
      "chip": "ym2612"
    },
    {
      "channel": 3,
      "note": 49,
      "start": 88.5521,
      "duration": 0.2123,
      "velocity": 105,
      "chip": "ym2612"
    },
    {
      "channel": 5,
      "note": 68,
      "start": 88.5553,
      "duration": 0.2092,
      "velocity": 78,
      "chip": "ym2612"
    },
    {
      "channel": 2,
      "note": 68,
      "start": 88.6023,
      "duration": 0.2123,
      "velocity": 78,
      "chip": "ym2612"
    },
    {
      "channel": 1,
      "note": 45,
      "start": 88.7685,
      "duration": 0.196,
      "velocity": 125,
      "chip": "ym2612"
    },
    {
      "channel": 3,
      "note": 49,
      "start": 88.7717,
      "duration": 0.193,
      "velocity": 105,
      "chip": "ym2612"
    },
    {
      "channel": 5,
      "note": 73,
      "start": 88.7749,
      "duration": 0.1899,
      "velocity": 78,
      "chip": "ym2612"
    },
    {
      "channel": 2,
      "note": 73,
      "start": 88.8193,
      "duration": 0.2121,
      "velocity": 78,
      "chip": "ym2612"
    },
    {
      "channel": 3,
      "note": 49,
      "start": 88.9692,
      "duration": 0.2123,
      "velocity": 105,
      "chip": "ym2612"
    },
    {
      "channel": 5,
      "note": 78,
      "start": 88.9725,
      "duration": 0.2092,
      "velocity": 78,
      "chip": "ym2612"
    },
    {
      "channel": 2,
      "note": 78,
      "start": 89.0362,
      "duration": 0.2122,
      "velocity": 78,
      "chip": "ym2612"
    },
    {
      "channel": 0,
      "note": 47,
      "start": 89.1851,
      "duration": 0.2133,
      "velocity": 82,
      "chip": "ym2612"
    },
    {
      "channel": 1,
      "note": 45,
      "start": 89.1887,
      "duration": 0.2099,
      "velocity": 125,
      "chip": "ym2612"
    },
    {
      "channel": 3,
      "note": 49,
      "start": 89.1922,
      "duration": 0.2065,
      "velocity": 105,
      "chip": "ym2612"
    },
    {
      "channel": 5,
      "note": 80,
      "start": 89.1961,
      "duration": 0.1023,
      "velocity": 78,
      "chip": "ym2612"
    },
    {
      "channel": 2,
      "note": 80,
      "start": 89.2539,
      "duration": 0.0947,
      "velocity": 78,
      "chip": "ym2612"
    },
    {
      "channel": 5,
      "note": 68,
      "start": 89.303,
      "duration": 0.0959,
      "velocity": 78,
      "chip": "ym2612"
    },
    {
      "channel": 2,
      "note": 68,
      "start": 89.3532,
      "duration": 0.0955,
      "velocity": 78,
      "chip": "ym2612"
    },
    {
      "channel": 3,
      "note": 49,
      "start": 89.4032,
      "duration": 0.2121,
      "velocity": 105,
      "chip": "ym2612"
    },
    {
      "channel": 5,
      "note": 74,
      "start": 89.4065,
      "duration": 0.1089,
      "velocity": 78,
      "chip": "ym2612"
    },
    {
      "channel": 2,
      "note": 74,
      "start": 89.4535,
      "duration": 0.112,
      "velocity": 78,
      "chip": "ym2612"
    },
    {
      "channel": 5,
      "note": 75,
      "start": 89.52,
      "duration": 0.0955,
      "velocity": 78,
      "chip": "ym2612"
    },
    {
      "channel": 2,
      "note": 75,
      "start": 89.5703,
      "duration": 0.0954,
      "velocity": 78,
      "chip": "ym2612"
    },
    {
      "channel": 1,
      "note": 45,
      "start": 89.6195,
      "duration": 0.2127,
      "velocity": 125,
      "chip": "ym2612"
    },
    {
      "channel": 3,
      "note": 49,
      "start": 89.6227,
      "duration": 0.2097,
      "velocity": 105,
      "chip": "ym2612"
    },
    {
      "channel": 5,
      "note": 78,
      "start": 89.6259,
      "duration": 0.1064,
      "velocity": 78,
      "chip": "ym2612"
    },
    {
      "channel": 2,
      "note": 78,
      "start": 89.6704,
      "duration": 0.1121,
      "velocity": 78,
      "chip": "ym2612"
    },
    {
      "channel": 5,
      "note": 68,
      "start": 89.7369,
      "duration": 0.0956,
      "velocity": 78,
      "chip": "ym2612"
    },
    {
      "channel": 2,
      "note": 68,
      "start": 89.7872,
      "duration": 0.0954,
      "velocity": 78,
      "chip": "ym2612"
    },
    {
      "channel": 4,
      "note": 47,
      "start": 89.8359,
      "duration": 0.2134,
      "velocity": 82,
      "chip": "ym2612"
    },
    {
      "channel": 3,
      "note": 49,
      "start": 89.8399,
      "duration": 0.2093,
      "velocity": 105,
      "chip": "ym2612"
    },
    {
      "channel": 5,
      "note": 74,
      "start": 89.8432,
      "duration": 0.1061,
      "velocity": 78,
      "chip": "ym2612"
    },
    {
      "channel": 2,
      "note": 74,
      "start": 89.8873,
      "duration": 0.1121,
      "velocity": 78,
      "chip": "ym2612"
    },
    {
      "channel": 5,
      "note": 75,
      "start": 89.9539,
      "duration": 0.0956,
      "velocity": 78,
      "chip": "ym2612"
    },
    {
      "channel": 2,
      "note": 75,
      "start": 90.0041,
      "duration": 0.0953,
      "velocity": 78,
      "chip": "ym2612"
    },
    {
      "channel": 1,
      "note": 45,
      "start": 90.0535,
      "duration": 0.2127,
      "velocity": 125,
      "chip": "ym2612"
    },
    {
      "channel": 3,
      "note": 55,
      "start": 90.0567,
      "duration": 0.2097,
      "velocity": 105,
      "chip": "ym2612"
    },
    {
      "channel": 5,
      "note": 76,
      "start": 90.0599,
      "duration": 0.0897,
      "velocity": 78,
      "chip": "ym2612"
    },
    {
      "channel": 2,
      "note": 76,
      "start": 90.1042,
      "duration": 0.1121,
      "velocity": 78,
      "chip": "ym2612"
    },
    {
      "channel": 5,
      "note": 68,
      "start": 90.1541,
      "duration": 0.1124,
      "velocity": 78,
      "chip": "ym2612"
    },
    {
      "channel": 2,
      "note": 68,
      "start": 90.221,
      "duration": 0.0955,
      "velocity": 78,
      "chip": "ym2612"
    },
    {
      "channel": 3,
      "note": 56,
      "start": 90.2709,
      "duration": 0.2123,
      "velocity": 105,
      "chip": "ym2612"
    },
    {
      "channel": 5,
      "note": 74,
      "start": 90.2741,
      "duration": 0.0923,
      "velocity": 78,
      "chip": "ym2612"
    },
    {
      "channel": 2,
      "note": 74,
      "start": 90.3212,
      "duration": 0.1121,
      "velocity": 78,
      "chip": "ym2612"
    },
    {
      "channel": 5,
      "note": 75,
      "start": 90.3711,
      "duration": 0.1122,
      "velocity": 78,
      "chip": "ym2612"
    },
    {
      "channel": 2,
      "note": 75,
      "start": 90.438,
      "duration": 0.0954,
      "velocity": 78,
      "chip": "ym2612"
    },
    {
      "channel": 0,
      "note": 49,
      "start": 90.4868,
      "duration": 0.0964,
      "velocity": 82,
      "chip": "ym2612"
    },
    {
      "channel": 1,
      "note": 45,
      "start": 90.4903,
      "duration": 0.2098,
      "velocity": 125,
      "chip": "ym2612"
    },
    {
      "channel": 3,
      "note": 54,
      "start": 90.4934,
      "duration": 0.2068,
      "velocity": 105,
      "chip": "ym2612"
    },
    {
      "channel": 5,
      "note": 74,
      "start": 90.4967,
      "duration": 0.0868,
      "velocity": 78,
      "chip": "ym2612"
    },
    {
      "channel": 2,
      "note": 74,
      "start": 90.5381,
      "duration": 0.0954,
      "velocity": 78,
      "chip": "ym2612"
    },
    {
      "channel": 0,
      "note": 49,
      "start": 90.5867,
      "duration": 0.1133,
      "velocity": 82,
      "chip": "ym2612"
    },
    {
      "channel": 5,
      "note": 75,
      "start": 90.5908,
      "duration": 0.1097,
      "velocity": 78,
      "chip": "ym2612"
    },
    {
      "channel": 2,
      "note": 75,
      "start": 90.6382,
      "duration": 0.1121,
      "velocity": 78,
      "chip": "ym2612"
    },
    {
      "channel": 3,
      "note": 52,
      "start": 90.7049,
      "duration": 0.2121,
      "velocity": 105,
      "chip": "ym2612"
    },
    {
      "channel": 5,
      "note": 73,
      "start": 90.7082,
      "duration": 0.0922,
      "velocity": 78,
      "chip": "ym2612"
    },
    {
      "channel": 2,
      "note": 73,
      "start": 90.755,
      "duration": 0.0955,
      "velocity": 78,
      "chip": "ym2612"
    },
    {
      "channel": 5,
      "note": 68,
      "start": 90.805,
      "duration": 0.1123,
      "velocity": 78,
      "chip": "ym2612"
    },
    {
      "channel": 2,
      "note": 68,
      "start": 90.8552,
      "duration": 0.1121,
      "velocity": 78,
      "chip": "ym2612"
    },
    {
      "channel": 1,
      "note": 45,
      "start": 90.9226,
      "duration": 0.2115,
      "velocity": 125,
      "chip": "ym2612"
    },
    {
      "channel": 3,
      "note": 54,
      "start": 90.9257,
      "duration": 0.2085,
      "velocity": 105,
      "chip": "ym2612"
    },
    {
      "channel": 4,
      "note": 73,
      "start": 90.9307,
      "duration": 0.2036,
      "velocity": 109,
      "chip": "ym2612"
    },
    {
      "channel": 0,
      "note": 78,
      "start": 90.9338,
      "duration": 0.2002,
      "velocity": 109,
      "chip": "ym2612"
    },
    {
      "channel": 5,
      "note": 81,
      "start": 90.937,
      "duration": 0.1975,
      "velocity": 109,
      "chip": "ym2612"
    },
    {
      "channel": 3,
      "note": 54,
      "start": 91.1388,
      "duration": 0.1957,
      "velocity": 105,
      "chip": "ym2612"
    },
    {
      "channel": 2,
      "note": 81,
      "start": 91.1439,
      "duration": 0.1907,
      "velocity": 109,
      "chip": "ym2612"
    },
    {
      "channel": 0,
      "note": 78,
      "start": 91.1471,
      "duration": 0.1871,
      "velocity": 109,
      "chip": "ym2612"
    },
    {
      "channel": 1,
      "note": 73,
      "start": 91.1503,
      "duration": 0.184,
      "velocity": 109,
      "chip": "ym2612"
    },
    {
      "channel": 4,
      "note": 57,
      "start": 91.3383,
      "duration": 0.213,
      "velocity": 82,
      "chip": "ym2612"
    },
    {
      "channel": 5,
      "note": 45,
      "start": 91.3421,
      "duration": 0.2093,
      "velocity": 125,
      "chip": "ym2612"
    },
    {
      "channel": 3,
      "note": 54,
      "start": 91.3453,
      "duration": 0.2059,
      "velocity": 105,
      "chip": "ym2612"
    },
    {
      "channel": 3,
      "note": 54,
      "start": 91.5558,
      "duration": 0.2126,
      "velocity": 105,
      "chip": "ym2612"
    },
    {
      "channel": 0,
      "note": 71,
      "start": 91.5591,
      "duration": 0.209,
      "velocity": 109,
      "chip": "ym2612"
    },
    {
      "channel": 1,
      "note": 76,
      "start": 91.5626,
      "duration": 0.2057,
      "velocity": 109,
      "chip": "ym2612"
    },
    {
      "channel": 2,
      "note": 80,
      "start": 91.5659,
      "duration": 0.2028,
      "velocity": 109,
      "chip": "ym2612"
    },
    {
      "channel": 5,
      "note": 45,
      "start": 91.7727,
      "duration": 0.2129,
      "velocity": 125,
      "chip": "ym2612"
    },
    {
      "channel": 3,
      "note": 54,
      "start": 91.7758,
      "duration": 0.2095,
      "velocity": 105,
      "chip": "ym2612"
    },
    {
      "channel": 4,
      "note": 80,
      "start": 91.7793,
      "duration": 0.2061,
      "velocity": 109,
      "chip": "ym2612"
    },
    {
      "channel": 0,
      "note": 76,
      "start": 91.7828,
      "duration": 0.2022,
      "velocity": 109,
      "chip": "ym2612"
    },
    {
      "channel": 1,
      "note": 71,
      "start": 91.7861,
      "duration": 0.1991,
      "velocity": 109,
      "chip": "ym2612"
    },
    {
      "channel": 2,
      "note": 57,
      "start": 91.9891,
      "duration": 0.2132,
      "velocity": 82,
      "chip": "ym2612"
    },
    {
      "channel": 3,
      "note": 54,
      "start": 91.993,
      "duration": 0.209,
      "velocity": 105,
      "chip": "ym2612"
    },
    {
      "channel": 5,
      "note": 45,
      "start": 92.2063,
      "duration": 0.2131,
      "velocity": 125,
      "chip": "ym2612"
    },
    {
      "channel": 3,
      "note": 54,
      "start": 92.2094,
      "duration": 0.2097,
      "velocity": 105,
      "chip": "ym2612"
    },
    {
      "channel": 0,
      "note": 78,
      "start": 92.2128,
      "duration": 0.2061,
      "velocity": 109,
      "chip": "ym2612"
    },
    {
      "channel": 1,
      "note": 74,
      "start": 92.2158,
      "duration": 0.2032,
      "velocity": 109,
      "chip": "ym2612"
    },
    {
      "channel": 4,
      "note": 69,
      "start": 92.2192,
      "duration": 0.2,
      "velocity": 109,
      "chip": "ym2612"
    },
    {
      "channel": 2,
      "note": 57,
      "start": 92.423,
      "duration": 0.2133,
      "velocity": 82,
      "chip": "ym2612"
    },
    {
      "channel": 3,
      "note": 54,
      "start": 92.427,
      "duration": 0.2091,
      "velocity": 105,
      "chip": "ym2612"
    },
    {
      "channel": 0,
      "note": 69,
      "start": 92.4305,
      "duration": 0.2053,
      "velocity": 109,
      "chip": "ym2612"
    },
    {
      "channel": 1,
      "note": 74,
      "start": 92.4336,
      "duration": 0.2024,
      "velocity": 109,
      "chip": "ym2612"
    },
    {
      "channel": 4,
      "note": 78,
      "start": 92.437,
      "duration": 0.1992,
      "velocity": 109,
      "chip": "ym2612"
    },
    {
      "channel": 5,
      "note": 75,
      "start": 92.6419,
      "duration": 0.3446,
      "velocity": 118,
      "chip": "ym2612"
    },
    {
      "channel": 0,
      "note": 80,
      "start": 92.6451,
      "duration": 0.3412,
      "velocity": 118,
      "chip": "ym2612"
    },
    {
      "channel": 1,
      "note": 45,
      "start": 92.6485,
      "duration": 0.2043,
      "velocity": 125,
      "chip": "ym2612"
    },
    {
      "channel": 3,
      "note": 54,
      "start": 92.652,
      "duration": 0.2009,
      "velocity": 105,
      "chip": "ym2612"
    },
    {
      "channel": 3,
      "note": 54,
      "start": 92.8574,
      "duration": 0.2125,
      "velocity": 105,
      "chip": "ym2612"
    },
    {
      "channel": 0,
      "note": 73,
      "start": 93.0074,
      "duration": 0.1791,
      "velocity": 118,
      "chip": "ym2612"
    },
    {
      "channel": 5,
      "note": 78,
      "start": 93.0405,
      "duration": 0.163,
      "velocity": 118,
      "chip": "ym2612"
    },
    {
      "channel": 1,
      "note": 45,
      "start": 93.0739,
      "duration": 0.2127,
      "velocity": 125,
      "chip": "ym2612"
    },
    {
      "channel": 3,
      "note": 54,
      "start": 93.077,
      "duration": 0.2098,
      "velocity": 105,
      "chip": "ym2612"
    },
    {
      "channel": 0,
      "note": 75,
      "start": 93.2912,
      "duration": 0.3459,
      "velocity": 118,
      "chip": "ym2612"
    },
    {
      "channel": 5,
      "note": 80,
      "start": 93.2952,
      "duration": 0.3422,
      "velocity": 118,
      "chip": "ym2612"
    },
    {
      "channel": 3,
      "note": 54,
      "start": 93.2988,
      "duration": 0.2049,
      "velocity": 105,
      "chip": "ym2612"
    },
    {
      "channel": 1,
      "note": 45,
      "start": 93.5078,
      "duration": 0.1961,
      "velocity": 125,
      "chip": "ym2612"
    },
    {
      "channel": 3,
      "note": 54,
      "start": 93.5109,
      "duration": 0.1932,
      "velocity": 105,
      "chip": "ym2612"
    },
    {
      "channel": 0,
      "note": 73,
      "start": 93.6579,
      "duration": 0.1795,
      "velocity": 118,
      "chip": "ym2612"
    },
    {
      "channel": 5,
      "note": 78,
      "start": 93.6746,
      "duration": 0.1797,
      "velocity": 118,
      "chip": "ym2612"
    },
    {
      "channel": 3,
      "note": 54,
      "start": 93.7084,
      "duration": 0.2125,
      "velocity": 105,
      "chip": "ym2612"
    },
    {
      "channel": 0,
      "note": 75,
      "start": 93.9249,
      "duration": 0.2129,
      "velocity": 118,
      "chip": "ym2612"
    },
    {
      "channel": 5,
      "note": 71,
      "start": 93.9278,
      "duration": 0.2104,
      "velocity": 118,
      "chip": "ym2612"
    },
    {
      "channel": 1,
      "note": 45,
      "start": 93.9329,
      "duration": 0.205,
      "velocity": 125,
      "chip": "ym2612"
    },
    {
      "channel": 3,
      "note": 54,
      "start": 93.936,
      "duration": 0.2021,
      "velocity": 105,
      "chip": "ym2612"
    },
    {
      "channel": 0,
      "note": 69,
      "start": 94.1419,
      "duration": 0.2129,
      "velocity": 118,
      "chip": "ym2612"
    },
    {
      "channel": 5,
      "note": 73,
      "start": 94.1454,
      "duration": 0.2097,
      "velocity": 118,
      "chip": "ym2612"
    },
    {
      "channel": 3,
      "note": 54,
      "start": 94.1489,
      "duration": 0.206,
      "velocity": 105,
      "chip": "ym2612"
    },
    {
      "channel": 4,
      "note": 75,
      "start": 94.3609,
      "duration": 0.3612,
      "velocity": 118,
      "chip": "ym2612"
    },
    {
      "channel": 2,
      "note": 80,
      "start": 94.3642,
      "duration": 0.358,
      "velocity": 118,
      "chip": "ym2612"
    },
    {
      "channel": 1,
      "note": 45,
      "start": 94.3677,
      "duration": 0.204,
      "velocity": 125,
      "chip": "ym2612"
    },
    {
      "channel": 3,
      "note": 54,
      "start": 94.3708,
      "duration": 0.201,
      "velocity": 105,
      "chip": "ym2612"
    },
    {
      "channel": 3,
      "note": 54,
      "start": 94.5762,
      "duration": 0.2125,
      "velocity": 105,
      "chip": "ym2612"
    },
    {
      "channel": 4,
      "note": 73,
      "start": 94.7433,
      "duration": 0.1623,
      "velocity": 118,
      "chip": "ym2612"
    },
    {
      "channel": 2,
      "note": 78,
      "start": 94.7596,
      "duration": 0.1795,
      "velocity": 118,
      "chip": "ym2612"
    },
    {
      "channel": 1,
      "note": 45,
      "start": 94.7928,
      "duration": 0.2129,
      "velocity": 125,
      "chip": "ym2612"
    },
    {
      "channel": 3,
      "note": 54,
      "start": 94.7959,
      "duration": 0.2099,
      "velocity": 105,
      "chip": "ym2612"
    },
    {
      "channel": 4,
      "note": 75,
      "start": 95.0105,
      "duration": 0.3457,
      "velocity": 118,
      "chip": "ym2612"
    },
    {
      "channel": 2,
      "note": 80,
      "start": 95.0147,
      "duration": 0.3417,
      "velocity": 118,
      "chip": "ym2612"
    },
    {
      "channel": 3,
      "note": 54,
      "start": 95.0181,
      "duration": 0.2044,
      "velocity": 105,
      "chip": "ym2612"
    },
    {
      "channel": 1,
      "note": 45,
      "start": 95.2266,
      "duration": 0.2129,
      "velocity": 125,
      "chip": "ym2612"
    },
    {
      "channel": 3,
      "note": 54,
      "start": 95.2298,
      "duration": 0.2099,
      "velocity": 105,
      "chip": "ym2612"
    },
    {
      "channel": 4,
      "note": 73,
      "start": 95.3771,
      "duration": 0.1793,
      "velocity": 118,
      "chip": "ym2612"
    },
    {
      "channel": 2,
      "note": 78,
      "start": 95.4105,
      "duration": 0.1628,
      "velocity": 118,
      "chip": "ym2612"
    },
    {
      "channel": 3,
      "note": 54,
      "start": 95.4441,
      "duration": 0.2124,
      "velocity": 105,
      "chip": "ym2612"
    },
    {
      "channel": 4,
      "note": 75,
      "start": 95.6607,
      "duration": 0.1963,
      "velocity": 118,
      "chip": "ym2612"
    },
    {
      "channel": 2,
      "note": 71,
      "start": 95.6639,
      "duration": 0.1933,
      "velocity": 118,
      "chip": "ym2612"
    },
    {
      "channel": 1,
      "note": 45,
      "start": 95.6688,
      "duration": 0.188,
      "velocity": 125,
      "chip": "ym2612"
    },
    {
      "channel": 3,
      "note": 54,
      "start": 95.6719,
      "duration": 0.185,
      "velocity": 105,
      "chip": "ym2612"
    },
    {
      "channel": 4,
      "note": 69,
      "start": 95.8611,
      "duration": 0.2127,
      "velocity": 118,
      "chip": "ym2612"
    },
    {
      "channel": 2,
      "note": 73,
      "start": 95.8648,
      "duration": 0.2092,
      "velocity": 118,
      "chip": "ym2612"
    },
    {
      "channel": 3,
      "note": 54,
      "start": 95.8682,
      "duration": 0.2055,
      "velocity": 105,
      "chip": "ym2612"
    },
    {
      "channel": 1,
      "note": 45,
      "start": 96.0779,
      "duration": 0.2127,
      "velocity": 125,
      "chip": "ym2612"
    },
    {
      "channel": 3,
      "note": 54,
      "start": 96.0814,
      "duration": 0.2093,
      "velocity": 105,
      "chip": "ym2612"
    },
    {
      "channel": 3,
      "note": 54,
      "start": 96.2978,
      "duration": 0.0,
      "velocity": 105,
      "chip": "ym2612"
    },
    {
      "channel": 1,
      "note": 45,
      "start": 96.3016,
      "duration": 0.0019,
      "velocity": 125,
      "chip": "ym2612"
    },
    {
      "channel": 3,
      "note": 54,
      "start": 96.3035,
      "duration": 0.0001,
      "velocity": 105,
      "chip": "ym2612"
    },
    {
      "channel": 3,
      "note": 54,
      "start": 96.3055,
      "duration": 0.0,
      "velocity": 105,
      "chip": "ym2612"
    },
    {
      "channel": 0,
      "note": 58,
      "start": 96.3073,
      "duration": 0.0773,
      "velocity": 118,
      "chip": "ym2612"
    },
    {
      "channel": 4,
      "note": 58,
      "start": 96.3091,
      "duration": 0.0759,
      "velocity": 118,
      "chip": "ym2612"
    },
    {
      "channel": 1,
      "note": 45,
      "start": 96.3108,
      "duration": 0.0739,
      "velocity": 125,
      "chip": "ym2612"
    },
    {
      "channel": 3,
      "note": 58,
      "start": 96.3127,
      "duration": 0.0721,
      "velocity": 105,
      "chip": "ym2612"
    },
    {
      "channel": 0,
      "note": 59,
      "start": 96.3886,
      "duration": 0.2129,
      "velocity": 118,
      "chip": "ym2612"
    },
    {
      "channel": 4,
      "note": 59,
      "start": 96.3918,
      "duration": 0.21,
      "velocity": 118,
      "chip": "ym2612"
    },
    {
      "channel": 3,
      "note": 59,
      "start": 96.3953,
      "duration": 0.2064,
      "velocity": 105,
      "chip": "ym2612"
    },
    {
      "channel": 0,
      "note": 62,
      "start": 96.6055,
      "duration": 0.2129,
      "velocity": 118,
      "chip": "ym2612"
    },
    {
      "channel": 4,
      "note": 62,
      "start": 96.6087,
      "duration": 0.2101,
      "velocity": 118,
      "chip": "ym2612"
    },
    {
      "channel": 1,
      "note": 45,
      "start": 96.6118,
      "duration": 0.2068,
      "velocity": 125,
      "chip": "ym2612"
    },
    {
      "channel": 3,
      "note": 62,
      "start": 96.6149,
      "duration": 0.2038,
      "velocity": 105,
      "chip": "ym2612"
    },
    {
      "channel": 0,
      "note": 64,
      "start": 96.8228,
      "duration": 0.2127,
      "velocity": 118,
      "chip": "ym2612"
    },
    {
      "channel": 4,
      "note": 64,
      "start": 96.8263,
      "duration": 0.2095,
      "velocity": 118,
      "chip": "ym2612"
    },
    {
      "channel": 3,
      "note": 64,
      "start": 96.8297,
      "duration": 0.2059,
      "velocity": 105,
      "chip": "ym2612"
    },
    {
      "channel": 1,
      "note": 45,
      "start": 97.0412,
      "duration": 0.2113,
      "velocity": 125,
      "chip": "ym2612"
    },
    {
      "channel": 3,
      "note": 54,
      "start": 97.0443,
      "duration": 0.2083,
      "velocity": 105,
      "chip": "ym2612"
    },
    {
      "channel": 2,
      "note": 69,
      "start": 97.0477,
      "duration": 0.2052,
      "velocity": 109,
      "chip": "ym2612"
    },
    {
      "channel": 5,
      "note": 73,
      "start": 97.0507,
      "duration": 0.202,
      "velocity": 109,
      "chip": "ym2612"
    },
    {
      "channel": 0,
      "note": 78,
      "start": 97.054,
      "duration": 0.1984,
      "velocity": 109,
      "chip": "ym2612"
    },
    {
      "channel": 3,
      "note": 54,
      "start": 97.2572,
      "duration": 0.1957,
      "velocity": 105,
      "chip": "ym2612"
    },
    {
      "channel": 4,
      "note": 78,
      "start": 97.2607,
      "duration": 0.1923,
      "velocity": 109,
      "chip": "ym2612"
    },
    {
      "channel": 0,
      "note": 73,
      "start": 97.2638,
      "duration": 0.1888,
      "velocity": 109,
      "chip": "ym2612"
    },
    {
      "channel": 1,
      "note": 69,
      "start": 97.267,
      "duration": 0.1857,
      "velocity": 109,
      "chip": "ym2612"
    },
    {
      "channel": 5,
      "note": 57,
      "start": 97.4567,
      "duration": 0.2131,
      "velocity": 82,
      "chip": "ym2612"
    },
    {
      "channel": 2,
      "note": 45,
      "start": 97.4606,
      "duration": 0.2094,
      "velocity": 125,
      "chip": "ym2612"
    },
    {
      "channel": 3,
      "note": 54,
      "start": 97.4637,
      "duration": 0.2059,
      "velocity": 105,
      "chip": "ym2612"
    },
    {
      "channel": 3,
      "note": 54,
      "start": 97.6742,
      "duration": 0.2126,
      "velocity": 105,
      "chip": "ym2612"
    },
    {
      "channel": 0,
      "note": 68,
      "start": 97.6776,
      "duration": 0.2089,
      "velocity": 109,
      "chip": "ym2612"
    },
    {
      "channel": 1,
      "note": 71,
      "start": 97.681,
      "duration": 0.2056,
      "velocity": 109,
      "chip": "ym2612"
    },
    {
      "channel": 4,
      "note": 76,
      "start": 97.6843,
      "duration": 0.2027,
      "velocity": 109,
      "chip": "ym2612"
    },
    {
      "channel": 2,
      "note": 45,
      "start": 97.8912,
      "duration": 0.2128,
      "velocity": 125,
      "chip": "ym2612"
    },
    {
      "channel": 3,
      "note": 54,
      "start": 97.8943,
      "duration": 0.2093,
      "velocity": 105,
      "chip": "ym2612"
    },
    {
      "channel": 5,
      "note": 76,
      "start": 97.8978,
      "duration": 0.206,
      "velocity": 109,
      "chip": "ym2612"
    },
    {
      "channel": 0,
      "note": 71,
      "start": 97.9013,
      "duration": 0.2021,
      "velocity": 109,
      "chip": "ym2612"
    },
    {
      "channel": 1,
      "note": 68,
      "start": 97.9045,
      "duration": 0.199,
      "velocity": 109,
      "chip": "ym2612"
    },
    {
      "channel": 4,
      "note": 57,
      "start": 98.1074,
      "duration": 0.2132,
      "velocity": 82,
      "chip": "ym2612"
    },
    {
      "channel": 3,
      "note": 54,
      "start": 98.1114,
      "duration": 0.2091,
      "velocity": 105,
      "chip": "ym2612"
    },
    {
      "channel": 2,
      "note": 45,
      "start": 98.3248,
      "duration": 0.213,
      "velocity": 125,
      "chip": "ym2612"
    },
    {
      "channel": 3,
      "note": 54,
      "start": 98.328,
      "duration": 0.2096,
      "velocity": 105,
      "chip": "ym2612"
    },
    {
      "channel": 0,
      "note": 78,
      "start": 98.3313,
      "duration": 0.206,
      "velocity": 109,
      "chip": "ym2612"
    },
    {
      "channel": 1,
      "note": 74,
      "start": 98.3344,
      "duration": 0.203,
      "velocity": 109,
      "chip": "ym2612"
    },
    {
      "channel": 5,
      "note": 69,
      "start": 98.3376,
      "duration": 0.2001,
      "velocity": 109,
      "chip": "ym2612"
    },
    {
      "channel": 4,
      "note": 57,
      "start": 98.5413,
      "duration": 0.2134,
      "velocity": 82,
      "chip": "ym2612"
    },
    {
      "channel": 3,
      "note": 54,
      "start": 98.5453,
      "duration": 0.2093,
      "velocity": 105,
      "chip": "ym2612"
    },
    {
      "channel": 0,
      "note": 69,
      "start": 98.5489,
      "duration": 0.2054,
      "velocity": 109,
      "chip": "ym2612"
    },
    {
      "channel": 1,
      "note": 74,
      "start": 98.552,
      "duration": 0.2025,
      "velocity": 109,
      "chip": "ym2612"
    },
    {
      "channel": 5,
      "note": 78,
      "start": 98.5552,
      "duration": 0.1996,
      "velocity": 109,
      "chip": "ym2612"
    },
    {
      "channel": 2,
      "note": 102,
      "start": 98.7606,
      "duration": 0.094,
      "velocity": 109,
      "chip": "ym2612"
    },
    {
      "channel": 0,
      "note": 45,
      "start": 98.7643,
      "duration": 0.2069,
      "velocity": 125,
      "chip": "ym2612"
    },
    {
      "channel": 3,
      "note": 54,
      "start": 98.7678,
      "duration": 0.2037,
      "velocity": 105,
      "chip": "ym2612"
    },
    {
      "channel": 2,
      "note": 105,
      "start": 98.8584,
      "duration": 0.1133,
      "velocity": 109,
      "chip": "ym2612"
    },
    {
      "channel": 1,
      "note": 102,
      "start": 98.8637,
      "duration": 0.1076,
      "velocity": 109,
      "chip": "ym2612"
    },
    {
      "channel": 2,
      "note": 102,
      "start": 98.9754,
      "duration": 0.0963,
      "velocity": 109,
      "chip": "ym2612"
    },
    {
      "channel": 1,
      "note": 105,
      "start": 98.9786,
      "duration": 0.0928,
      "velocity": 109,
      "chip": "ym2612"
    },
    {
      "channel": 3,
      "note": 54,
      "start": 98.9822,
      "duration": 0.2061,
      "velocity": 105,
      "chip": "ym2612"
    },
    {
      "channel": 2,
      "note": 100,
      "start": 99.0754,
      "duration": 0.1131,
      "velocity": 109,
      "chip": "ym2612"
    },
    {
      "channel": 1,
      "note": 102,
      "start": 99.0786,
      "duration": 0.1096,
      "velocity": 109,
      "chip": "ym2612"
    },
    {
      "channel": 2,
      "note": 93,
      "start": 99.1923,
      "duration": 0.0963,
      "velocity": 109,
      "chip": "ym2612"
    },
    {
      "channel": 1,
      "note": 100,
      "start": 99.1955,
      "duration": 0.0929,
      "velocity": 109,
      "chip": "ym2612"
    },
    {
      "channel": 0,
      "note": 45,
      "start": 99.1987,
      "duration": 0.2063,
      "velocity": 125,
      "chip": "ym2612"
    },
    {
      "channel": 3,
      "note": 54,
      "start": 99.2018,
      "duration": 0.2035,
      "velocity": 105,
      "chip": "ym2612"
    },
    {
      "channel": 2,
      "note": 95,
      "start": 99.2927,
      "duration": 0.1129,
      "velocity": 109,
      "chip": "ym2612"
    },
    {
      "channel": 1,
      "note": 93,
      "start": 99.2959,
      "duration": 0.1093,
      "velocity": 109,
      "chip": "ym2612"
    },
    {
      "channel": 2,
      "note": 93,
      "start": 99.4093,
      "duration": 0.0962,
      "velocity": 109,
      "chip": "ym2612"
    },
    {
      "channel": 1,
      "note": 95,
      "start": 99.4129,
      "duration": 0.0924,
      "velocity": 109,
      "chip": "ym2612"
    },
    {
      "channel": 3,
      "note": 54,
      "start": 99.4166,
      "duration": 0.2057,
      "velocity": 105,
      "chip": "ym2612"
    },
    {
      "channel": 2,
      "note": 90,
      "start": 99.5093,
      "duration": 0.1131,
      "velocity": 109,
      "chip": "ym2612"
    },
    {
      "channel": 1,
      "note": 93,
      "start": 99.5124,
      "duration": 0.1096,
      "velocity": 109,
      "chip": "ym2612"
    },
    {
      "channel": 2,
      "note": 93,
      "start": 99.6262,
      "duration": 0.0963,
      "velocity": 109,
      "chip": "ym2612"
    },
    {
      "channel": 1,
      "note": 90,
      "start": 99.6293,
      "duration": 0.0929,
      "velocity": 109,
      "chip": "ym2612"
    },
    {
      "channel": 0,
      "note": 45,
      "start": 99.6326,
      "duration": 0.1897,
      "velocity": 125,
      "chip": "ym2612"
    },
    {
      "channel": 3,
      "note": 54,
      "start": 99.6357,
      "duration": 0.1869,
      "velocity": 105,
      "chip": "ym2612"
    },
    {
      "channel": 2,
      "note": 95,
      "start": 99.7262,
      "duration": 0.0966,
      "velocity": 109,
      "chip": "ym2612"
    },
    {
      "channel": 1,
      "note": 93,
      "start": 99.7294,
      "duration": 0.0931,
      "velocity": 109,
      "chip": "ym2612"
    },
    {
      "channel": 2,
      "note": 93,
      "start": 99.8266,
      "duration": 0.113,
      "velocity": 109,
      "chip": "ym2612"
    },
    {
      "channel": 1,
      "note": 95,
      "start": 99.8297,
      "duration": 0.1095,
      "velocity": 109,
      "chip": "ym2612"
    },
    {
      "channel": 3,
      "note": 54,
      "start": 99.8334,
      "duration": 0.2061,
      "velocity": 105,
      "chip": "ym2612"
    },
    {
      "channel": 2,
      "note": 90,
      "start": 99.9432,
      "duration": 0.0965,
      "velocity": 109,
      "chip": "ym2612"
    },
    {
      "channel": 1,
      "note": 93,
      "start": 99.9464,
      "duration": 0.0929,
      "velocity": 109,
      "chip": "ym2612"
    },
    {
      "channel": 2,
      "note": 86,
      "start": 100.0434,
      "duration": 0.113,
      "velocity": 109,
      "chip": "ym2612"
    },
    {
      "channel": 1,
      "note": 90,
      "start": 100.0466,
      "duration": 0.1095,
      "velocity": 109,
      "chip": "ym2612"
    },
    {
      "channel": 0,
      "note": 45,
      "start": 100.0499,
      "duration": 0.2064,
      "velocity": 125,
      "chip": "ym2612"
    },
    {
      "channel": 3,
      "note": 54,
      "start": 100.053,
      "duration": 0.2036,
      "velocity": 105,
      "chip": "ym2612"
    },
    {
      "channel": 2,
      "note": 88,
      "start": 100.1602,
      "duration": 0.0966,
      "velocity": 109,
      "chip": "ym2612"
    },
    {
      "channel": 1,
      "note": 86,
      "start": 100.1633,
      "duration": 0.0931,
      "velocity": 109,
      "chip": "ym2612"
    },
    {
      "channel": 2,
      "note": 86,
      "start": 100.2605,
      "duration": 0.1128,
      "velocity": 109,
      "chip": "ym2612"
    },
    {
      "channel": 1,
      "note": 88,
      "start": 100.2637,
      "duration": 0.1094,
      "velocity": 109,
      "chip": "ym2612"
    },
    {
      "channel": 3,
      "note": 54,
      "start": 100.2673,
      "duration": 0.2059,
      "velocity": 105,
      "chip": "ym2612"
    },
    {
      "channel": 2,
      "note": 83,
      "start": 100.377,
      "duration": 0.0965,
      "velocity": 109,
      "chip": "ym2612"
    },
    {
      "channel": 1,
      "note": 86,
      "start": 100.3802,
      "duration": 0.0929,
      "velocity": 109,
      "chip": "ym2612"
    },
    {
      "channel": 2,
      "note": 90,
      "start": 100.4772,
      "duration": 0.1131,
      "velocity": 109,
      "chip": "ym2612"
    },
    {
      "channel": 1,
      "note": 83,
      "start": 100.4804,
      "duration": 0.1096,
      "velocity": 109,
      "chip": "ym2612"
    },
    {
      "channel": 0,
      "note": 45,
      "start": 100.4841,
      "duration": 0.2061,
      "velocity": 125,
      "chip": "ym2612"
    },
    {
      "channel": 3,
      "note": 54,
      "start": 100.4872,
      "duration": 0.2032,
      "velocity": 105,
      "chip": "ym2612"
    },
    {
      "channel": 2,
      "note": 93,
      "start": 100.5941,
      "duration": 0.0966,
      "velocity": 109,
      "chip": "ym2612"
    },
    {
      "channel": 1,
      "note": 90,
      "start": 100.5972,
      "duration": 0.0931,
      "velocity": 109,
      "chip": "ym2612"
    },
    {
      "channel": 2,
      "note": 90,
      "start": 100.6944,
      "duration": 0.1128,
      "velocity": 109,
      "chip": "ym2612"
    },
    {
      "channel": 1,
      "note": 93,
      "start": 100.6975,
      "duration": 0.1094,
      "velocity": 109,
      "chip": "ym2612"
    },
    {
      "channel": 3,
      "note": 54,
      "start": 100.7012,
      "duration": 0.206,
      "velocity": 105,
      "chip": "ym2612"
    },
    {
      "channel": 2,
      "note": 88,
      "start": 100.8109,
      "duration": 0.0965,
      "velocity": 109,
      "chip": "ym2612"
    },
    {
      "channel": 1,
      "note": 90,
      "start": 100.8141,
      "duration": 0.0929,
      "velocity": 109,
      "chip": "ym2612"
    },
    {
      "channel": 2,
      "note": 81,
      "start": 100.9111,
      "duration": 0.0963,
      "velocity": 109,
      "chip": "ym2612"
    },
    {
      "channel": 1,
      "note": 88,
      "start": 100.9143,
      "duration": 0.0929,
      "velocity": 109,
      "chip": "ym2612"
    },
    {
      "channel": 0,
      "note": 45,
      "start": 100.9176,
      "duration": 0.2065,
      "velocity": 125,
      "chip": "ym2612"
    },
    {
      "channel": 3,
      "note": 54,
      "start": 100.9207,
      "duration": 0.2037,
      "velocity": 105,
      "chip": "ym2612"
    },
    {
      "channel": 2,
      "note": 83,
      "start": 101.0115,
      "duration": 0.113,
      "velocity": 109,
      "chip": "ym2612"
    },
    {
      "channel": 1,
      "note": 81,
      "start": 101.0147,
      "duration": 0.1095,
      "velocity": 109,
      "chip": "ym2612"
    },
    {
      "channel": 2,
      "note": 81,
      "start": 101.1283,
      "duration": 0.0963,
      "velocity": 109,
      "chip": "ym2612"
    },
    {
      "channel": 1,
      "note": 83,
      "start": 101.1318,
      "duration": 0.0924,
      "velocity": 109,
      "chip": "ym2612"
    },
    {
      "channel": 3,
      "note": 54,
      "start": 101.1355,
      "duration": 0.2057,
      "velocity": 105,
      "chip": "ym2612"
    },
    {
      "channel": 2,
      "note": 78,
      "start": 101.2283,
      "duration": 0.1131,
      "velocity": 109,
      "chip": "ym2612"
    },
    {
      "channel": 1,
      "note": 81,
      "start": 101.2314,
      "duration": 0.1096,
      "velocity": 109,
      "chip": "ym2612"
    },
    {
      "channel": 2,
      "note": 81,
      "start": 101.3451,
      "duration": 0.0963,
      "velocity": 109,
      "chip": "ym2612"
    },
    {
      "channel": 1,
      "note": 78,
      "start": 101.3483,
      "duration": 0.0929,
      "velocity": 109,
      "chip": "ym2612"
    },
    {
      "channel": 0,
      "note": 45,
      "start": 101.3516,
      "duration": 0.2064,
      "velocity": 125,
      "chip": "ym2612"
    },
    {
      "channel": 3,
      "note": 54,
      "start": 101.3547,
      "duration": 0.2035,
      "velocity": 105,
      "chip": "ym2612"
    },
    {
      "channel": 2,
      "note": 83,
      "start": 101.4452,
      "duration": 0.1133,
      "velocity": 109,
      "chip": "ym2612"
    },
    {
      "channel": 1,
      "note": 81,
      "start": 101.4483,
      "duration": 0.1098,
      "velocity": 109,
      "chip": "ym2612"
    },
    {
      "channel": 2,
      "note": 81,
      "start": 101.5622,
      "duration": 0.0961,
      "velocity": 109,
      "chip": "ym2612"
    },
    {
      "channel": 1,
      "note": 83,
      "start": 101.5653,
      "duration": 0.0927,
      "velocity": 109,
      "chip": "ym2612"
    },
    {
      "channel": 3,
      "note": 54,
      "start": 101.569,
      "duration": 0.2059,
      "velocity": 105,
      "chip": "ym2612"
    },
    {
      "channel": 2,
      "note": 78,
      "start": 101.662,
      "duration": 0.1131,
      "velocity": 109,
      "chip": "ym2612"
    },
    {
      "channel": 1,
      "note": 81,
      "start": 101.6652,
      "duration": 0.1096,
      "velocity": 109,
      "chip": "ym2612"
    },
    {
      "channel": 2,
      "note": 74,
      "start": 101.7789,
      "duration": 0.0963,
      "velocity": 109,
      "chip": "ym2612"
    },
    {
      "channel": 1,
      "note": 78,
      "start": 101.7821,
      "duration": 0.0929,
      "velocity": 109,
      "chip": "ym2612"
    },
    {
      "channel": 0,
      "note": 45,
      "start": 101.7853,
      "duration": 0.2064,
      "velocity": 125,
      "chip": "ym2612"
    },
    {
      "channel": 3,
      "note": 54,
      "start": 101.7884,
      "duration": 0.2035,
      "velocity": 105,
      "chip": "ym2612"
    },
    {
      "channel": 2,
      "note": 76,
      "start": 101.8789,
      "duration": 0.1133,
      "velocity": 109,
      "chip": "ym2612"
    },
    {
      "channel": 1,
      "note": 74,
      "start": 101.8821,
      "duration": 0.1098,
      "velocity": 109,
      "chip": "ym2612"
    },
    {
      "channel": 2,
      "note": 74,
      "start": 101.9959,
      "duration": 0.0963,
      "velocity": 109,
      "chip": "ym2612"
    },
    {
      "channel": 1,
      "note": 76,
      "start": 101.9991,
      "duration": 0.0928,
      "velocity": 109,
      "chip": "ym2612"
    },
    {
      "channel": 3,
      "note": 54,
      "start": 102.0028,
      "duration": 0.1894,
      "velocity": 105,
      "chip": "ym2612"
    },
    {
      "channel": 2,
      "note": 71,
      "start": 102.0959,
      "duration": 0.0964,
      "velocity": 109,
      "chip": "ym2612"
    },
    {
      "channel": 1,
      "note": 74,
      "start": 102.0991,
      "duration": 0.0929,
      "velocity": 109,
      "chip": "ym2612"
    },
    {
      "channel": 1,
      "note": 71,
      "start": 102.1962,
      "duration": 0.1127,
      "velocity": 109,
      "chip": "ym2612"
    },
    {
      "channel": 0,
      "note": 45,
      "start": 102.1994,
      "duration": 0.2095,
      "velocity": 125,
      "chip": "ym2612"
    },
    {
      "channel": 3,
      "note": 54,
      "start": 102.2029,
      "duration": 0.2062,
      "velocity": 105,
      "chip": "ym2612"
    },
    {
      "channel": 3,
      "note": 54,
      "start": 102.4148,
      "duration": 0.0,
      "velocity": 105,
      "chip": "ym2612"
    },
    {
      "channel": 0,
      "note": 45,
      "start": 102.4191,
      "duration": 0.002,
      "velocity": 125,
      "chip": "ym2612"
    },
    {
      "channel": 3,
      "note": 54,
      "start": 102.421,
      "duration": 0.0001,
      "velocity": 105,
      "chip": "ym2612"
    },
    {
      "channel": 3,
      "note": 54,
      "start": 102.423,
      "duration": 0.0,
      "velocity": 105,
      "chip": "ym2612"
    },
    {
      "channel": 4,
      "note": 60,
      "start": 102.4251,
      "duration": 0.0786,
      "velocity": 118,
      "chip": "ym2612"
    },
    {
      "channel": 2,
      "note": 60,
      "start": 102.4271,
      "duration": 0.0767,
      "velocity": 118,
      "chip": "ym2612"
    },
    {
      "channel": 0,
      "note": 45,
      "start": 102.4288,
      "duration": 0.0746,
      "velocity": 125,
      "chip": "ym2612"
    },
    {
      "channel": 3,
      "note": 60,
      "start": 102.4307,
      "duration": 0.0728,
      "velocity": 105,
      "chip": "ym2612"
    },
    {
      "channel": 4,
      "note": 61,
      "start": 102.5075,
      "duration": 0.213,
      "velocity": 118,
      "chip": "ym2612"
    },
    {
      "channel": 2,
      "note": 61,
      "start": 102.5108,
      "duration": 0.2098,
      "velocity": 118,
      "chip": "ym2612"
    },
    {
      "channel": 3,
      "note": 61,
      "start": 102.5143,
      "duration": 0.2061,
      "velocity": 105,
      "chip": "ym2612"
    },
    {
      "channel": 4,
      "note": 59,
      "start": 102.7247,
      "duration": 0.2128,
      "velocity": 118,
      "chip": "ym2612"
    },
    {
      "channel": 2,
      "note": 59,
      "start": 102.728,
      "duration": 0.2096,
      "velocity": 118,
      "chip": "ym2612"
    },
    {
      "channel": 0,
      "note": 45,
      "start": 102.7312,
      "duration": 0.206,
      "velocity": 125,
      "chip": "ym2612"
    },
    {
      "channel": 3,
      "note": 59,
      "start": 102.7343,
      "duration": 0.203,
      "velocity": 105,
      "chip": "ym2612"
    },
    {
      "channel": 4,
      "note": 57,
      "start": 102.9416,
      "duration": 0.1962,
      "velocity": 118,
      "chip": "ym2612"
    },
    {
      "channel": 2,
      "note": 57,
      "start": 102.9456,
      "duration": 0.1923,
      "velocity": 118,
      "chip": "ym2612"
    },
    {
      "channel": 3,
      "note": 57,
      "start": 102.9495,
      "duration": 0.1881,
      "velocity": 105,
      "chip": "ym2612"
    },
    {
      "channel": 0,
      "note": 45,
      "start": 103.175,
      "duration": 0.1961,
      "velocity": 125,
      "chip": "ym2612"
    },
    {
      "channel": 1,
      "note": 49,
      "start": 103.1815,
      "duration": 0.1898,
      "velocity": 105,
      "chip": "ym2612"
    }
  ]
}