{
  "track_name": "03 - The Arcade",
  "duration_sec": 43.92,
  "sample_rate": 44100,
  "note_count": 756,
  "unique_pitches": 22,
  "pitch_range": 46,
  "avg_note_duration": 0.1123,
  "reconstruction_stats": {
    "notes_reconstructed": 756,
    "keyon_events": 756,
    "keyoff_events": 756,
    "orphan_keyons": 0,
    "unique_pitches": 22,
    "pitch_range": 46,
    "avg_duration_sec": 0.1123
  },
  "metadata": {
    "source": "S\\Sega Channel\\03 - The Arcade.vgm"
  },
  "notes": [
    {
      "channel": 3,
      "note": 54,
      "start": 0.0401,
      "duration": 0.3444,
      "velocity": 87,
      "chip": "ym2612"
    },
    {
      "channel": 1,
      "note": 54,
      "start": 0.0497,
      "duration": 0.1847,
      "velocity": 91,
      "chip": "ym2612"
    },
    {
      "channel": 0,
      "note": 44,
      "start": 0.0617,
      "duration": 0.0227,
      "velocity": 119,
      "chip": "ym2612"
    },
    {
      "channel": 4,
      "note": 78,
      "start": 0.2546,
      "duration": 0.0799,
      "velocity": 110,
      "chip": "ym2612"
    },
    {
      "channel": 5,
      "note": 68,
      "start": 0.2578,
      "duration": 0.0601,
      "velocity": 127,
      "chip": "ym2612"
    },
    {
      "channel": 4,
      "note": 78,
      "start": 0.3712,
      "duration": 0.0466,
      "velocity": 110,
      "chip": "ym2612"
    },
    {
      "channel": 5,
      "note": 68,
      "start": 0.3743,
      "duration": 0.0436,
      "velocity": 127,
      "chip": "ym2612"
    },
    {
      "channel": 4,
      "note": 78,
      "start": 0.6046,
      "duration": 0.0467,
      "velocity": 110,
      "chip": "ym2612"
    },
    {
      "channel": 5,
      "note": 68,
      "start": 0.7048,
      "duration": 0.0463,
      "velocity": 127,
      "chip": "ym2612"
    },
    {
      "channel": 3,
      "note": 54,
      "start": 0.8376,
      "duration": 0.0136,
      "velocity": 87,
      "chip": "ym2612"
    },
    {
      "channel": 5,
      "note": 68,
      "start": 0.8413,
      "duration": 0.0266,
      "velocity": 127,
      "chip": "ym2612"
    },
    {
      "channel": 0,
      "note": 44,
      "start": 0.8439,
      "duration": 0.0404,
      "velocity": 119,
      "chip": "ym2612"
    },
    {
      "channel": 3,
      "note": 54,
      "start": 0.9546,
      "duration": 0.2132,
      "velocity": 87,
      "chip": "ym2612"
    },
    {
      "channel": 4,
      "note": 78,
      "start": 0.958,
      "duration": 0.0598,
      "velocity": 110,
      "chip": "ym2612"
    },
    {
      "channel": 0,
      "note": 44,
      "start": 0.961,
      "duration": 0.04,
      "velocity": 119,
      "chip": "ym2612"
    },
    {
      "channel": 4,
      "note": 78,
      "start": 1.0546,
      "duration": 0.0633,
      "velocity": 110,
      "chip": "ym2612"
    },
    {
      "channel": 5,
      "note": 68,
      "start": 1.1716,
      "duration": 0.063,
      "velocity": 127,
      "chip": "ym2612"
    },
    {
      "channel": 4,
      "note": 78,
      "start": 1.2878,
      "duration": 0.0799,
      "velocity": 110,
      "chip": "ym2612"
    },
    {
      "channel": 5,
      "note": 68,
      "start": 1.2908,
      "duration": 0.0605,
      "velocity": 127,
      "chip": "ym2612"
    },
    {
      "channel": 3,
      "note": 66,
      "start": 1.6376,
      "duration": 0.0803,
      "velocity": 87,
      "chip": "ym2612"
    },
    {
      "channel": 4,
      "note": 78,
      "start": 1.6406,
      "duration": 0.0774,
      "velocity": 110,
      "chip": "ym2612"
    },
    {
      "channel": 5,
      "note": 68,
      "start": 1.6436,
      "duration": 0.041,
      "velocity": 127,
      "chip": "ym2612"
    },
    {
      "channel": 3,
      "note": 66,
      "start": 1.754,
      "duration": 0.0304,
      "velocity": 87,
      "chip": "ym2612"
    },
    {
      "channel": 4,
      "note": 78,
      "start": 1.7571,
      "duration": 0.0607,
      "velocity": 110,
      "chip": "ym2612"
    },
    {
      "channel": 5,
      "note": 68,
      "start": 1.76,
      "duration": 0.0412,
      "velocity": 127,
      "chip": "ym2612"
    },
    {
      "channel": 3,
      "note": 54,
      "start": 1.8542,
      "duration": 0.3469,
      "velocity": 87,
      "chip": "ym2612"
    },
    {
      "channel": 0,
      "note": 44,
      "start": 1.8574,
      "duration": 0.0603,
      "velocity": 119,
      "chip": "ym2612"
    },
    {
      "channel": 4,
      "note": 78,
      "start": 2.0882,
      "duration": 0.0796,
      "velocity": 110,
      "chip": "ym2612"
    },
    {
      "channel": 5,
      "note": 68,
      "start": 2.0913,
      "duration": 0.0267,
      "velocity": 127,
      "chip": "ym2612"
    },
    {
      "channel": 4,
      "note": 78,
      "start": 2.2045,
      "duration": 0.08,
      "velocity": 110,
      "chip": "ym2612"
    },
    {
      "channel": 5,
      "note": 68,
      "start": 2.208,
      "duration": 0.0432,
      "velocity": 127,
      "chip": "ym2612"
    },
    {
      "channel": 4,
      "note": 78,
      "start": 2.4378,
      "duration": 0.0635,
      "velocity": 110,
      "chip": "ym2612"
    },
    {
      "channel": 5,
      "note": 68,
      "start": 2.5547,
      "duration": 0.0465,
      "velocity": 127,
      "chip": "ym2612"
    },
    {
      "channel": 3,
      "note": 54,
      "start": 2.6542,
      "duration": 0.047,
      "velocity": 87,
      "chip": "ym2612"
    },
    {
      "channel": 5,
      "note": 68,
      "start": 2.6574,
      "duration": 0.0606,
      "velocity": 127,
      "chip": "ym2612"
    },
    {
      "channel": 0,
      "note": 44,
      "start": 2.6604,
      "duration": 0.0573,
      "velocity": 119,
      "chip": "ym2612"
    },
    {
      "channel": 3,
      "note": 54,
      "start": 2.7709,
      "duration": 0.0968,
      "velocity": 87,
      "chip": "ym2612"
    },
    {
      "channel": 4,
      "note": 78,
      "start": 2.7738,
      "duration": 0.0773,
      "velocity": 110,
      "chip": "ym2612"
    },
    {
      "channel": 0,
      "note": 44,
      "start": 2.7768,
      "duration": 0.0575,
      "velocity": 119,
      "chip": "ym2612"
    },
    {
      "channel": 4,
      "note": 78,
      "start": 2.8879,
      "duration": 0.0633,
      "velocity": 110,
      "chip": "ym2612"
    },
    {
      "channel": 3,
      "note": 54,
      "start": 3.0045,
      "duration": 0.1299,
      "velocity": 87,
      "chip": "ym2612"
    },
    {
      "channel": 5,
      "note": 68,
      "start": 3.0077,
      "duration": 0.0436,
      "velocity": 127,
      "chip": "ym2612"
    },
    {
      "channel": 0,
      "note": 44,
      "start": 3.0104,
      "duration": 0.0407,
      "velocity": 119,
      "chip": "ym2612"
    },
    {
      "channel": 4,
      "note": 78,
      "start": 3.1212,
      "duration": 0.0633,
      "velocity": 110,
      "chip": "ym2612"
    },
    {
      "channel": 5,
      "note": 68,
      "start": 3.1243,
      "duration": 0.0269,
      "velocity": 127,
      "chip": "ym2612"
    },
    {
      "channel": 3,
      "note": 61,
      "start": 3.3541,
      "duration": 0.3137,
      "velocity": 87,
      "chip": "ym2612"
    },
    {
      "channel": 0,
      "note": 44,
      "start": 3.3571,
      "duration": 0.044,
      "velocity": 119,
      "chip": "ym2612"
    },
    {
      "channel": 1,
      "note": 53,
      "start": 3.4377,
      "duration": 0.28,
      "velocity": 91,
      "chip": "ym2612"
    },
    {
      "channel": 4,
      "note": 78,
      "start": 3.4545,
      "duration": 0.0967,
      "velocity": 110,
      "chip": "ym2612"
    },
    {
      "channel": 5,
      "note": 68,
      "start": 3.4576,
      "duration": 0.0604,
      "velocity": 127,
      "chip": "ym2612"
    },
    {
      "channel": 4,
      "note": 78,
      "start": 3.5716,
      "duration": 0.0797,
      "velocity": 110,
      "chip": "ym2612"
    },
    {
      "channel": 5,
      "note": 68,
      "start": 3.5745,
      "duration": 0.0601,
      "velocity": 127,
      "chip": "ym2612"
    },
    {
      "channel": 3,
      "note": 54,
      "start": 3.6874,
      "duration": 0.3304,
      "velocity": 87,
      "chip": "ym2612"
    },
    {
      "channel": 2,
      "note": 54,
      "start": 3.6912,
      "duration": 0.2268,
      "velocity": 91,
      "chip": "ym2612"
    },
    {
      "channel": 0,
      "note": 44,
      "start": 3.6951,
      "duration": 0.0559,
      "velocity": 119,
      "chip": "ym2612"
    },
    {
      "channel": 4,
      "note": 78,
      "start": 3.9214,
      "duration": 0.0965,
      "velocity": 110,
      "chip": "ym2612"
    },
    {
      "channel": 5,
      "note": 68,
      "start": 3.9247,
      "duration": 0.0431,
      "velocity": 127,
      "chip": "ym2612"
    },
    {
      "channel": 4,
      "note": 78,
      "start": 4.0378,
      "duration": 0.0634,
      "velocity": 110,
      "chip": "ym2612"
    },
    {
      "channel": 5,
      "note": 68,
      "start": 4.0408,
      "duration": 0.0438,
      "velocity": 127,
      "chip": "ym2612"
    },
    {
      "channel": 4,
      "note": 78,
      "start": 4.2547,
      "duration": 0.0965,
      "velocity": 110,
      "chip": "ym2612"
    },
    {
      "channel": 5,
      "note": 68,
      "start": 4.3715,
      "duration": 0.0464,
      "velocity": 127,
      "chip": "ym2612"
    },
    {
      "channel": 3,
      "note": 54,
      "start": 4.4876,
      "duration": 0.0136,
      "velocity": 87,
      "chip": "ym2612"
    },
    {
      "channel": 5,
      "note": 68,
      "start": 4.4909,
      "duration": 0.0603,
      "velocity": 127,
      "chip": "ym2612"
    },
    {
      "channel": 0,
      "note": 44,
      "start": 4.4935,
      "duration": 0.0575,
      "velocity": 119,
      "chip": "ym2612"
    },
    {
      "channel": 3,
      "note": 54,
      "start": 4.6042,
      "duration": 0.3969,
      "velocity": 87,
      "chip": "ym2612"
    },
    {
      "channel": 4,
      "note": 78,
      "start": 4.6071,
      "duration": 0.094,
      "velocity": 110,
      "chip": "ym2612"
    },
    {
      "channel": 0,
      "note": 44,
      "start": 4.61,
      "duration": 0.041,
      "velocity": 119,
      "chip": "ym2612"
    },
    {
      "channel": 4,
      "note": 78,
      "start": 4.7215,
      "duration": 0.0629,
      "velocity": 110,
      "chip": "ym2612"
    },
    {
      "channel": 5,
      "note": 68,
      "start": 4.838,
      "duration": 0.0465,
      "velocity": 127,
      "chip": "ym2612"
    },
    {
      "channel": 4,
      "note": 78,
      "start": 4.9542,
      "duration": 0.0636,
      "velocity": 110,
      "chip": "ym2612"
    },
    {
      "channel": 5,
      "note": 68,
      "start": 4.9572,
      "duration": 0.0441,
      "velocity": 127,
      "chip": "ym2612"
    },
    {
      "channel": 4,
      "note": 78,
      "start": 5.1712,
      "duration": 0.0134,
      "velocity": 110,
      "chip": "ym2612"
    },
    {
      "channel": 3,
      "note": 66,
      "start": 5.2876,
      "duration": 0.0969,
      "velocity": 87,
      "chip": "ym2612"
    },
    {
      "channel": 4,
      "note": 78,
      "start": 5.2905,
      "duration": 0.0774,
      "velocity": 110,
      "chip": "ym2612"
    },
    {
      "channel": 5,
      "note": 68,
      "start": 5.2934,
      "duration": 0.0578,
      "velocity": 127,
      "chip": "ym2612"
    },
    {
      "channel": 3,
      "note": 66,
      "start": 5.4046,
      "duration": 0.0298,
      "velocity": 87,
      "chip": "ym2612"
    },
    {
      "channel": 4,
      "note": 78,
      "start": 5.4076,
      "duration": 0.0936,
      "velocity": 110,
      "chip": "ym2612"
    },
    {
      "channel": 5,
      "note": 68,
      "start": 5.411,
      "duration": 0.0402,
      "velocity": 127,
      "chip": "ym2612"
    },
    {
      "channel": 3,
      "note": 54,
      "start": 5.6373,
      "duration": 0.0305,
      "velocity": 87,
      "chip": "ym2612"
    },
    {
      "channel": 4,
      "note": 78,
      "start": 5.6404,
      "duration": 0.0276,
      "velocity": 110,
      "chip": "ym2612"
    },
    {
      "channel": 0,
      "note": 44,
      "start": 5.6435,
      "duration": 0.0241,
      "velocity": 119,
      "chip": "ym2612"
    },
    {
      "channel": 3,
      "note": 54,
      "start": 5.7541,
      "duration": 0.0803,
      "velocity": 87,
      "chip": "ym2612"
    },
    {
      "channel": 4,
      "note": 78,
      "start": 5.7571,
      "duration": 0.0608,
      "velocity": 110,
      "chip": "ym2612"
    },
    {
      "channel": 5,
      "note": 68,
      "start": 5.76,
      "duration": 0.0414,
      "velocity": 127,
      "chip": "ym2612"
    },
    {
      "channel": 0,
      "note": 44,
      "start": 5.7632,
      "duration": 0.0379,
      "velocity": 119,
      "chip": "ym2612"
    },
    {
      "channel": 4,
      "note": 78,
      "start": 5.8547,
      "duration": 0.0798,
      "velocity": 110,
      "chip": "ym2612"
    },
    {
      "channel": 5,
      "note": 68,
      "start": 5.8577,
      "duration": 0.0602,
      "velocity": 127,
      "chip": "ym2612"
    },
    {
      "channel": 3,
      "note": 61,
      "start": 5.9709,
      "duration": 0.0137,
      "velocity": 87,
      "chip": "ym2612"
    },
    {
      "channel": 3,
      "note": 54,
      "start": 6.0876,
      "duration": 0.1302,
      "velocity": 87,
      "chip": "ym2612"
    },
    {
      "channel": 4,
      "note": 78,
      "start": 6.0905,
      "duration": 0.0608,
      "velocity": 110,
      "chip": "ym2612"
    },
    {
      "channel": 0,
      "note": 44,
      "start": 6.0933,
      "duration": 0.0578,
      "velocity": 119,
      "chip": "ym2612"
    },
    {
      "channel": 5,
      "note": 68,
      "start": 6.2047,
      "duration": 0.0466,
      "velocity": 127,
      "chip": "ym2612"
    },
    {
      "channel": 4,
      "note": 78,
      "start": 6.3214,
      "duration": 0.0298,
      "velocity": 110,
      "chip": "ym2612"
    },
    {
      "channel": 5,
      "note": 68,
      "start": 6.3243,
      "duration": 0.0436,
      "velocity": 127,
      "chip": "ym2612"
    },
    {
      "channel": 3,
      "note": 54,
      "start": 6.4379,
      "duration": 0.3799,
      "velocity": 87,
      "chip": "ym2612"
    },
    {
      "channel": 0,
      "note": 44,
      "start": 6.441,
      "duration": 0.0267,
      "velocity": 119,
      "chip": "ym2612"
    },
    {
      "channel": 5,
      "note": 68,
      "start": 6.6546,
      "duration": 0.0633,
      "velocity": 127,
      "chip": "ym2612"
    },
    {
      "channel": 5,
      "note": 68,
      "start": 6.7714,
      "duration": 0.0632,
      "velocity": 127,
      "chip": "ym2612"
    },
    {
      "channel": 0,
      "note": 44,
      "start": 6.7741,
      "duration": 0.0602,
      "velocity": 119,
      "chip": "ym2612"
    },
    {
      "channel": 1,
      "note": 53,
      "start": 7.1045,
      "duration": 0.2799,
      "velocity": 91,
      "chip": "ym2612"
    },
    {
      "channel": 5,
      "note": 68,
      "start": 7.1214,
      "duration": 0.0465,
      "velocity": 127,
      "chip": "ym2612"
    },
    {
      "channel": 5,
      "note": 68,
      "start": 7.2219,
      "duration": 0.0627,
      "velocity": 127,
      "chip": "ym2612"
    },
    {
      "channel": 3,
      "note": 54,
      "start": 7.3542,
      "duration": 0.347,
      "velocity": 87,
      "chip": "ym2612"
    },
    {
      "channel": 2,
      "note": 70,
      "start": 7.3573,
      "duration": 0.4272,
      "velocity": 96,
      "chip": "ym2612"
    },
    {
      "channel": 0,
      "note": 44,
      "start": 7.3624,
      "duration": 0.0387,
      "velocity": 119,
      "chip": "ym2612"
    },
    {
      "channel": 4,
      "note": 54,
      "start": 7.3716,
      "duration": 0.1963,
      "velocity": 91,
      "chip": "ym2612"
    },
    {
      "channel": 5,
      "note": 78,
      "start": 7.5715,
      "duration": 0.0798,
      "velocity": 110,
      "chip": "ym2612"
    },
    {
      "channel": 1,
      "note": 68,
      "start": 7.5746,
      "duration": 0.0598,
      "velocity": 127,
      "chip": "ym2612"
    },
    {
      "channel": 5,
      "note": 78,
      "start": 7.6879,
      "duration": 0.0301,
      "velocity": 110,
      "chip": "ym2612"
    },
    {
      "channel": 1,
      "note": 68,
      "start": 7.6909,
      "duration": 0.0269,
      "velocity": 127,
      "chip": "ym2612"
    },
    {
      "channel": 2,
      "note": 66,
      "start": 7.8044,
      "duration": 0.4301,
      "velocity": 96,
      "chip": "ym2612"
    },
    {
      "channel": 5,
      "note": 78,
      "start": 7.9214,
      "duration": 0.0466,
      "velocity": 110,
      "chip": "ym2612"
    },
    {
      "channel": 1,
      "note": 68,
      "start": 8.0214,
      "duration": 0.0463,
      "velocity": 127,
      "chip": "ym2612"
    },
    {
      "channel": 3,
      "note": 54,
      "start": 8.1542,
      "duration": 0.0136,
      "velocity": 87,
      "chip": "ym2612"
    },
    {
      "channel": 1,
      "note": 68,
      "start": 8.1574,
      "duration": 0.027,
      "velocity": 127,
      "chip": "ym2612"
    },
    {
      "channel": 0,
      "note": 44,
      "start": 8.16,
      "duration": 0.041,
      "velocity": 119,
      "chip": "ym2612"
    },
    {
      "channel": 3,
      "note": 54,
      "start": 8.2542,
      "duration": 0.2302,
      "velocity": 87,
      "chip": "ym2612"
    },
    {
      "channel": 2,
      "note": 73,
      "start": 8.257,
      "duration": 0.4442,
      "velocity": 96,
      "chip": "ym2612"
    },
    {
      "channel": 5,
      "note": 78,
      "start": 8.2604,
      "duration": 0.0741,
      "velocity": 110,
      "chip": "ym2612"
    },
    {
      "channel": 0,
      "note": 44,
      "start": 8.2634,
      "duration": 0.0543,
      "velocity": 119,
      "chip": "ym2612"
    },
    {
      "channel": 5,
      "note": 78,
      "start": 8.3713,
      "duration": 0.0632,
      "velocity": 110,
      "chip": "ym2612"
    },
    {
      "channel": 1,
      "note": 68,
      "start": 8.4885,
      "duration": 0.0626,
      "velocity": 127,
      "chip": "ym2612"
    },
    {
      "channel": 5,
      "note": 78,
      "start": 8.6046,
      "duration": 0.08,
      "velocity": 110,
      "chip": "ym2612"
    },
    {
      "channel": 1,
      "note": 68,
      "start": 8.6074,
      "duration": 0.0437,
      "velocity": 127,
      "chip": "ym2612"
    },
    {
      "channel": 2,
      "note": 70,
      "start": 8.7209,
      "duration": 0.4304,
      "velocity": 96,
      "chip": "ym2612"
    },
    {
      "channel": 3,
      "note": 66,
      "start": 8.9542,
      "duration": 0.0802,
      "velocity": 87,
      "chip": "ym2612"
    },
    {
      "channel": 5,
      "note": 78,
      "start": 8.9573,
      "duration": 0.0773,
      "velocity": 110,
      "chip": "ym2612"
    },
    {
      "channel": 1,
      "note": 68,
      "start": 8.9602,
      "duration": 0.0409,
      "velocity": 127,
      "chip": "ym2612"
    },
    {
      "channel": 3,
      "note": 66,
      "start": 9.054,
      "duration": 0.0472,
      "velocity": 87,
      "chip": "ym2612"
    },
    {
      "channel": 5,
      "note": 78,
      "start": 9.0571,
      "duration": 0.0774,
      "velocity": 110,
      "chip": "ym2612"
    },
    {
      "channel": 1,
      "note": 68,
      "start": 9.0599,
      "duration": 0.0579,
      "velocity": 127,
      "chip": "ym2612"
    },
    {
      "channel": 3,
      "note": 54,
      "start": 9.1713,
      "duration": 0.3465,
      "velocity": 87,
      "chip": "ym2612"
    },
    {
      "channel": 2,
      "note": 75,
      "start": 9.174,
      "duration": 0.4439,
      "velocity": 96,
      "chip": "ym2612"
    },
    {
      "channel": 0,
      "note": 44,
      "start": 9.1771,
      "duration": 0.0573,
      "velocity": 119,
      "chip": "ym2612"
    },
    {
      "channel": 5,
      "note": 78,
      "start": 9.4048,
      "duration": 0.0797,
      "velocity": 110,
      "chip": "ym2612"
    },
    {
      "channel": 1,
      "note": 68,
      "start": 9.4077,
      "duration": 0.0267,
      "velocity": 127,
      "chip": "ym2612"
    },
    {
      "channel": 5,
      "note": 78,
      "start": 9.5212,
      "duration": 0.0633,
      "velocity": 110,
      "chip": "ym2612"
    },
    {
      "channel": 1,
      "note": 68,
      "start": 9.5242,
      "duration": 0.0435,
      "velocity": 127,
      "chip": "ym2612"
    },
    {
      "channel": 2,
      "note": 73,
      "start": 9.6376,
      "duration": 0.4304,
      "velocity": 96,
      "chip": "ym2612"
    },
    {
      "channel": 5,
      "note": 78,
      "start": 9.7546,
      "duration": 0.0634,
      "velocity": 110,
      "chip": "ym2612"
    },
    {
      "channel": 1,
      "note": 68,
      "start": 9.8545,
      "duration": 0.0632,
      "velocity": 127,
      "chip": "ym2612"
    },
    {
      "channel": 3,
      "note": 54,
      "start": 9.9709,
      "duration": 0.047,
      "velocity": 87,
      "chip": "ym2612"
    },
    {
      "channel": 1,
      "note": 68,
      "start": 9.9743,
      "duration": 0.0601,
      "velocity": 127,
      "chip": "ym2612"
    },
    {
      "channel": 0,
      "note": 44,
      "start": 9.9769,
      "duration": 0.0573,
      "velocity": 119,
      "chip": "ym2612"
    },
    {
      "channel": 3,
      "note": 54,
      "start": 10.0876,
      "duration": 0.097,
      "velocity": 87,
      "chip": "ym2612"
    },
    {
      "channel": 2,
      "note": 80,
      "start": 10.0907,
      "duration": 0.4272,
      "velocity": 96,
      "chip": "ym2612"
    },
    {
      "channel": 5,
      "note": 78,
      "start": 10.0935,
      "duration": 0.0743,
      "velocity": 110,
      "chip": "ym2612"
    },
    {
      "channel": 0,
      "note": 44,
      "start": 10.0965,
      "duration": 0.0546,
      "velocity": 119,
      "chip": "ym2612"
    },
    {
      "channel": 5,
      "note": 78,
      "start": 10.2045,
      "duration": 0.0467,
      "velocity": 110,
      "chip": "ym2612"
    },
    {
      "channel": 3,
      "note": 54,
      "start": 10.3208,
      "duration": 0.1303,
      "velocity": 87,
      "chip": "ym2612"
    },
    {
      "channel": 1,
      "note": 68,
      "start": 10.3239,
      "duration": 0.0439,
      "velocity": 127,
      "chip": "ym2612"
    },
    {
      "channel": 0,
      "note": 44,
      "start": 10.3269,
      "duration": 0.0407,
      "velocity": 119,
      "chip": "ym2612"
    },
    {
      "channel": 5,
      "note": 78,
      "start": 10.4379,
      "duration": 0.0633,
      "velocity": 110,
      "chip": "ym2612"
    },
    {
      "channel": 1,
      "note": 68,
      "start": 10.4409,
      "duration": 0.0268,
      "velocity": 127,
      "chip": "ym2612"
    },
    {
      "channel": 2,
      "note": 78,
      "start": 10.5542,
      "duration": 0.4305,
      "velocity": 96,
      "chip": "ym2612"
    },
    {
      "channel": 3,
      "note": 61,
      "start": 10.6541,
      "duration": 0.3304,
      "velocity": 87,
      "chip": "ym2612"
    },
    {
      "channel": 0,
      "note": 44,
      "start": 10.6571,
      "duration": 0.0606,
      "velocity": 119,
      "chip": "ym2612"
    },
    {
      "channel": 5,
      "note": 78,
      "start": 10.7712,
      "duration": 0.0966,
      "velocity": 110,
      "chip": "ym2612"
    },
    {
      "channel": 1,
      "note": 68,
      "start": 10.7742,
      "duration": 0.0602,
      "velocity": 127,
      "chip": "ym2612"
    },
    {
      "channel": 4,
      "note": 53,
      "start": 10.8212,
      "duration": 0.2634,
      "velocity": 91,
      "chip": "ym2612"
    },
    {
      "channel": 5,
      "note": 78,
      "start": 10.8883,
      "duration": 0.0796,
      "velocity": 110,
      "chip": "ym2612"
    },
    {
      "channel": 1,
      "note": 68,
      "start": 10.8911,
      "duration": 0.06,
      "velocity": 127,
      "chip": "ym2612"
    },
    {
      "channel": 3,
      "note": 54,
      "start": 11.004,
      "duration": 0.3137,
      "velocity": 87,
      "chip": "ym2612"
    },
    {
      "channel": 2,
      "note": 70,
      "start": 11.0068,
      "duration": 0.4278,
      "velocity": 96,
      "chip": "ym2612"
    },
    {
      "channel": 0,
      "note": 44,
      "start": 11.0106,
      "duration": 0.0405,
      "velocity": 119,
      "chip": "ym2612"
    },
    {
      "channel": 1,
      "note": 54,
      "start": 11.0381,
      "duration": 0.2296,
      "velocity": 91,
      "chip": "ym2612"
    },
    {
      "channel": 5,
      "note": 78,
      "start": 11.2379,
      "duration": 0.08,
      "velocity": 110,
      "chip": "ym2612"
    },
    {
      "channel": 0,
      "note": 68,
      "start": 11.2409,
      "duration": 0.0435,
      "velocity": 127,
      "chip": "ym2612"
    },
    {
      "channel": 5,
      "note": 78,
      "start": 11.3547,
      "duration": 0.0632,
      "velocity": 110,
      "chip": "ym2612"
    },
    {
      "channel": 0,
      "note": 68,
      "start": 11.3574,
      "duration": 0.0436,
      "velocity": 127,
      "chip": "ym2612"
    },
    {
      "channel": 2,
      "note": 66,
      "start": 11.4544,
      "duration": 0.4469,
      "velocity": 96,
      "chip": "ym2612"
    },
    {
      "channel": 5,
      "note": 78,
      "start": 11.5714,
      "duration": 0.0965,
      "velocity": 110,
      "chip": "ym2612"
    },
    {
      "channel": 0,
      "note": 68,
      "start": 11.6883,
      "duration": 0.0294,
      "velocity": 127,
      "chip": "ym2612"
    },
    {
      "channel": 3,
      "note": 54,
      "start": 11.8046,
      "duration": 0.0132,
      "velocity": 87,
      "chip": "ym2612"
    },
    {
      "channel": 0,
      "note": 68,
      "start": 11.8077,
      "duration": 0.0433,
      "velocity": 127,
      "chip": "ym2612"
    },
    {
      "channel": 4,
      "note": 44,
      "start": 11.8107,
      "duration": 0.0406,
      "velocity": 119,
      "chip": "ym2612"
    },
    {
      "channel": 3,
      "note": 54,
      "start": 11.9208,
      "duration": 0.397,
      "velocity": 87,
      "chip": "ym2612"
    },
    {
      "channel": 2,
      "note": 73,
      "start": 11.9236,
      "duration": 0.4277,
      "velocity": 96,
      "chip": "ym2612"
    },
    {
      "channel": 5,
      "note": 78,
      "start": 11.9265,
      "duration": 0.0914,
      "velocity": 110,
      "chip": "ym2612"
    },
    {
      "channel": 4,
      "note": 44,
      "start": 11.9296,
      "duration": 0.0382,
      "velocity": 119,
      "chip": "ym2612"
    },
    {
      "channel": 5,
      "note": 78,
      "start": 12.0383,
      "duration": 0.0629,
      "velocity": 110,
      "chip": "ym2612"
    },
    {
      "channel": 0,
      "note": 68,
      "start": 12.1544,
      "duration": 0.0466,
      "velocity": 127,
      "chip": "ym2612"
    },
    {
      "channel": 5,
      "note": 78,
      "start": 12.2543,
      "duration": 0.0803,
      "velocity": 110,
      "chip": "ym2612"
    },
    {
      "channel": 0,
      "note": 68,
      "start": 12.2571,
      "duration": 0.0606,
      "velocity": 127,
      "chip": "ym2612"
    },
    {
      "channel": 2,
      "note": 70,
      "start": 12.371,
      "duration": 0.4471,
      "velocity": 96,
      "chip": "ym2612"
    },
    {
      "channel": 5,
      "note": 78,
      "start": 12.488,
      "duration": 0.0133,
      "velocity": 110,
      "chip": "ym2612"
    },
    {
      "channel": 3,
      "note": 66,
      "start": 12.6042,
      "duration": 0.0969,
      "velocity": 87,
      "chip": "ym2612"
    },
    {
      "channel": 5,
      "note": 78,
      "start": 12.6072,
      "duration": 0.0774,
      "velocity": 110,
      "chip": "ym2612"
    },
    {
      "channel": 0,
      "note": 68,
      "start": 12.6099,
      "duration": 0.0411,
      "velocity": 127,
      "chip": "ym2612"
    },
    {
      "channel": 3,
      "note": 66,
      "start": 12.7209,
      "duration": 0.0302,
      "velocity": 87,
      "chip": "ym2612"
    },
    {
      "channel": 5,
      "note": 78,
      "start": 12.724,
      "duration": 0.0939,
      "velocity": 110,
      "chip": "ym2612"
    },
    {
      "channel": 0,
      "note": 68,
      "start": 12.7268,
      "duration": 0.0409,
      "velocity": 127,
      "chip": "ym2612"
    },
    {
      "channel": 2,
      "note": 75,
      "start": 12.8376,
      "duration": 0.4304,
      "velocity": 96,
      "chip": "ym2612"
    },
    {
      "channel": 3,
      "note": 54,
      "start": 12.954,
      "duration": 0.0305,
      "velocity": 87,
      "chip": "ym2612"
    },
    {
      "channel": 5,
      "note": 78,
      "start": 12.9571,
      "duration": 0.0276,
      "velocity": 110,
      "chip": "ym2612"
    },
    {
      "channel": 4,
      "note": 44,
      "start": 12.9604,
      "duration": 0.0242,
      "velocity": 119,
      "chip": "ym2612"
    },
    {
      "channel": 3,
      "note": 54,
      "start": 13.0543,
      "duration": 0.0969,
      "velocity": 87,
      "chip": "ym2612"
    },
    {
      "channel": 5,
      "note": 78,
      "start": 13.0572,
      "duration": 0.0774,
      "velocity": 110,
      "chip": "ym2612"
    },
    {
      "channel": 0,
      "note": 68,
      "start": 13.06,
      "duration": 0.0576,
      "velocity": 127,
      "chip": "ym2612"
    },
    {
      "channel": 4,
      "note": 44,
      "start": 13.0629,
      "duration": 0.0549,
      "velocity": 119,
      "chip": "ym2612"
    },
    {
      "channel": 5,
      "note": 78,
      "start": 13.1715,
      "duration": 0.0797,
      "velocity": 110,
      "chip": "ym2612"
    },
    {
      "channel": 0,
      "note": 68,
      "start": 13.1746,
      "duration": 0.0598,
      "velocity": 127,
      "chip": "ym2612"
    },
    {
      "channel": 3,
      "note": 61,
      "start": 13.2879,
      "duration": 0.0132,
      "velocity": 87,
      "chip": "ym2612"
    },
    {
      "channel": 2,
      "note": 73,
      "start": 13.2907,
      "duration": 0.4272,
      "velocity": 96,
      "chip": "ym2612"
    },
    {
      "channel": 3,
      "note": 54,
      "start": 13.4042,
      "duration": 0.1302,
      "velocity": 87,
      "chip": "ym2612"
    },
    {
      "channel": 5,
      "note": 78,
      "start": 13.4072,
      "duration": 0.0442,
      "velocity": 110,
      "chip": "ym2612"
    },
    {
      "channel": 4,
      "note": 44,
      "start": 13.4102,
      "duration": 0.0411,
      "velocity": 119,
      "chip": "ym2612"
    },
    {
      "channel": 0,
      "note": 68,
      "start": 13.5211,
      "duration": 0.0465,
      "velocity": 127,
      "chip": "ym2612"
    },
    {
      "channel": 5,
      "note": 78,
      "start": 13.6381,
      "duration": 0.0297,
      "velocity": 110,
      "chip": "ym2612"
    },
    {
      "channel": 0,
      "note": 68,
      "start": 13.6409,
      "duration": 0.0434,
      "velocity": 127,
      "chip": "ym2612"
    },
    {
      "channel": 3,
      "note": 54,
      "start": 13.7542,
      "duration": 0.3636,
      "velocity": 87,
      "chip": "ym2612"
    },
    {
      "channel": 2,
      "note": 80,
      "start": 13.757,
      "duration": 0.4276,
      "velocity": 96,
      "chip": "ym2612"
    },
    {
      "channel": 4,
      "note": 44,
      "start": 13.7606,
      "duration": 0.024,
      "velocity": 119,
      "chip": "ym2612"
    },
    {
      "channel": 0,
      "note": 68,
      "start": 13.9712,
      "duration": 0.0631,
      "velocity": 127,
      "chip": "ym2612"
    },
    {
      "channel": 0,
      "note": 68,
      "start": 14.0878,
      "duration": 0.0632,
      "velocity": 127,
      "chip": "ym2612"
    },
    {
      "channel": 4,
      "note": 44,
      "start": 14.0907,
      "duration": 0.0605,
      "velocity": 119,
      "chip": "ym2612"
    },
    {
      "channel": 2,
      "note": 78,
      "start": 14.2043,
      "duration": 0.4303,
      "velocity": 96,
      "chip": "ym2612"
    },
    {
      "channel": 1,
      "note": 53,
      "start": 14.4215,
      "duration": 0.1963,
      "velocity": 91,
      "chip": "ym2612"
    },
    {
      "channel": 0,
      "note": 68,
      "start": 14.4378,
      "duration": 0.0465,
      "velocity": 127,
      "chip": "ym2612"
    },
    {
      "channel": 0,
      "note": 68,
      "start": 14.5213,
      "duration": 0.0797,
      "velocity": 127,
      "chip": "ym2612"
    },
    {
      "channel": 3,
      "note": 59,
      "start": 14.6542,
      "duration": 0.3636,
      "velocity": 87,
      "chip": "ym2612"
    },
    {
      "channel": 2,
      "note": 88,
      "start": 14.6571,
      "duration": 0.4608,
      "velocity": 96,
      "chip": "ym2612"
    },
    {
      "channel": 0,
      "note": 68,
      "start": 14.6605,
      "duration": 0.0571,
      "velocity": 127,
      "chip": "ym2612"
    },
    {
      "channel": 4,
      "note": 44,
      "start": 14.6653,
      "duration": 0.0526,
      "velocity": 119,
      "chip": "ym2612"
    },
    {
      "channel": 1,
      "note": 59,
      "start": 14.6878,
      "duration": 0.0632,
      "velocity": 91,
      "chip": "ym2612"
    },
    {
      "channel": 1,
      "note": 59,
      "start": 14.771,
      "duration": 0.0801,
      "velocity": 91,
      "chip": "ym2612"
    },
    {
      "channel": 0,
      "note": 68,
      "start": 14.7734,
      "duration": 0.0609,
      "velocity": 127,
      "chip": "ym2612"
    },
    {
      "channel": 5,
      "note": 83,
      "start": 14.888,
      "duration": 0.0798,
      "velocity": 110,
      "chip": "ym2612"
    },
    {
      "channel": 0,
      "note": 68,
      "start": 14.8906,
      "duration": 0.0605,
      "velocity": 127,
      "chip": "ym2612"
    },
    {
      "channel": 5,
      "note": 83,
      "start": 15.0046,
      "duration": 0.0301,
      "velocity": 110,
      "chip": "ym2612"
    },
    {
      "channel": 0,
      "note": 68,
      "start": 15.0075,
      "duration": 0.0269,
      "velocity": 127,
      "chip": "ym2612"
    },
    {
      "channel": 1,
      "note": 59,
      "start": 15.0209,
      "duration": 0.0802,
      "velocity": 91,
      "chip": "ym2612"
    },
    {
      "channel": 2,
      "note": 87,
      "start": 15.1211,
      "duration": 0.4468,
      "velocity": 96,
      "chip": "ym2612"
    },
    {
      "channel": 0,
      "note": 68,
      "start": 15.2213,
      "duration": 0.0632,
      "velocity": 127,
      "chip": "ym2612"
    },
    {
      "channel": 5,
      "note": 83,
      "start": 15.238,
      "duration": 0.0468,
      "velocity": 110,
      "chip": "ym2612"
    },
    {
      "channel": 1,
      "note": 59,
      "start": 15.271,
      "duration": 0.0801,
      "velocity": 91,
      "chip": "ym2612"
    },
    {
      "channel": 0,
      "note": 68,
      "start": 15.3548,
      "duration": 0.0296,
      "velocity": 127,
      "chip": "ym2612"
    },
    {
      "channel": 1,
      "note": 59,
      "start": 15.4376,
      "duration": 0.0802,
      "velocity": 91,
      "chip": "ym2612"
    },
    {
      "channel": 3,
      "note": 59,
      "start": 15.4543,
      "duration": 0.0302,
      "velocity": 87,
      "chip": "ym2612"
    },
    {
      "channel": 0,
      "note": 68,
      "start": 15.4571,
      "duration": 0.0439,
      "velocity": 127,
      "chip": "ym2612"
    },
    {
      "channel": 4,
      "note": 44,
      "start": 15.4598,
      "duration": 0.0581,
      "velocity": 119,
      "chip": "ym2612"
    },
    {
      "channel": 1,
      "note": 57,
      "start": 15.5545,
      "duration": 0.1967,
      "velocity": 91,
      "chip": "ym2612"
    },
    {
      "channel": 3,
      "note": 59,
      "start": 15.5713,
      "duration": 0.2298,
      "velocity": 87,
      "chip": "ym2612"
    },
    {
      "channel": 2,
      "note": 83,
      "start": 15.5741,
      "duration": 0.4606,
      "velocity": 96,
      "chip": "ym2612"
    },
    {
      "channel": 5,
      "note": 83,
      "start": 15.5774,
      "duration": 0.0738,
      "velocity": 110,
      "chip": "ym2612"
    },
    {
      "channel": 0,
      "note": 68,
      "start": 15.58,
      "duration": 0.0376,
      "velocity": 127,
      "chip": "ym2612"
    },
    {
      "channel": 4,
      "note": 44,
      "start": 15.5828,
      "duration": 0.0517,
      "velocity": 119,
      "chip": "ym2612"
    },
    {
      "channel": 5,
      "note": 83,
      "start": 15.6879,
      "duration": 0.0635,
      "velocity": 110,
      "chip": "ym2612"
    },
    {
      "channel": 0,
      "note": 68,
      "start": 15.691,
      "duration": 0.06,
      "velocity": 127,
      "chip": "ym2612"
    },
    {
      "channel": 1,
      "note": 59,
      "start": 15.7883,
      "duration": 0.1128,
      "velocity": 91,
      "chip": "ym2612"
    },
    {
      "channel": 0,
      "note": 68,
      "start": 15.8044,
      "duration": 0.0466,
      "velocity": 127,
      "chip": "ym2612"
    },
    {
      "channel": 5,
      "note": 83,
      "start": 15.9213,
      "duration": 0.0632,
      "velocity": 110,
      "chip": "ym2612"
    },
    {
      "channel": 0,
      "note": 68,
      "start": 15.9241,
      "duration": 0.0436,
      "velocity": 127,
      "chip": "ym2612"
    },
    {
      "channel": 2,
      "note": 78,
      "start": 16.0377,
      "duration": 0.4468,
      "velocity": 96,
      "chip": "ym2612"
    },
    {
      "channel": 0,
      "note": 68,
      "start": 16.1546,
      "duration": 0.0465,
      "velocity": 127,
      "chip": "ym2612"
    },
    {
      "channel": 3,
      "note": 71,
      "start": 16.2542,
      "duration": 0.0968,
      "velocity": 87,
      "chip": "ym2612"
    },
    {
      "channel": 5,
      "note": 83,
      "start": 16.2573,
      "duration": 0.0939,
      "velocity": 110,
      "chip": "ym2612"
    },
    {
      "channel": 0,
      "note": 68,
      "start": 16.26,
      "duration": 0.0577,
      "velocity": 127,
      "chip": "ym2612"
    },
    {
      "channel": 3,
      "note": 71,
      "start": 16.3707,
      "duration": 0.047,
      "velocity": 87,
      "chip": "ym2612"
    },
    {
      "channel": 5,
      "note": 83,
      "start": 16.3739,
      "duration": 0.0773,
      "velocity": 110,
      "chip": "ym2612"
    },
    {
      "channel": 0,
      "note": 68,
      "start": 16.3765,
      "duration": 0.0578,
      "velocity": 127,
      "chip": "ym2612"
    },
    {
      "channel": 3,
      "note": 59,
      "start": 16.4876,
      "duration": 0.3468,
      "velocity": 87,
      "chip": "ym2612"
    },
    {
      "channel": 2,
      "note": 76,
      "start": 16.4904,
      "duration": 0.4608,
      "velocity": 96,
      "chip": "ym2612"
    },
    {
      "channel": 0,
      "note": 68,
      "start": 16.4931,
      "duration": 0.0579,
      "velocity": 127,
      "chip": "ym2612"
    },
    {
      "channel": 4,
      "note": 44,
      "start": 16.4959,
      "duration": 0.0554,
      "velocity": 119,
      "chip": "ym2612"
    },
    {
      "channel": 0,
      "note": 68,
      "start": 16.6042,
      "duration": 0.0468,
      "velocity": 127,
      "chip": "ym2612"
    },
    {
      "channel": 5,
      "note": 83,
      "start": 16.7215,
      "duration": 0.0631,
      "velocity": 110,
      "chip": "ym2612"
    },
    {
      "channel": 0,
      "note": 68,
      "start": 16.7242,
      "duration": 0.0268,
      "velocity": 127,
      "chip": "ym2612"
    },
    {
      "channel": 5,
      "note": 83,
      "start": 16.8378,
      "duration": 0.0634,
      "velocity": 110,
      "chip": "ym2612"
    },
    {
      "channel": 0,
      "note": 68,
      "start": 16.8407,
      "duration": 0.0436,
      "velocity": 127,
      "chip": "ym2612"
    },
    {
      "channel": 2,
      "note": 75,
      "start": 16.955,
      "duration": 0.2129,
      "velocity": 96,
      "chip": "ym2612"
    },
    {
      "channel": 5,
      "note": 83,
      "start": 17.0545,
      "duration": 0.0801,
      "velocity": 110,
      "chip": "ym2612"
    },
    {
      "channel": 0,
      "note": 68,
      "start": 17.0576,
      "duration": 0.0601,
      "velocity": 127,
      "chip": "ym2612"
    },
    {
      "channel": 2,
      "note": 83,
      "start": 17.1712,
      "duration": 1.0633,
      "velocity": 96,
      "chip": "ym2612"
    },
    {
      "channel": 0,
      "note": 68,
      "start": 17.174,
      "duration": 0.0604,
      "velocity": 127,
      "chip": "ym2612"
    },
    {
      "channel": 3,
      "note": 59,
      "start": 17.2875,
      "duration": 0.0303,
      "velocity": 87,
      "chip": "ym2612"
    },
    {
      "channel": 0,
      "note": 68,
      "start": 17.2904,
      "duration": 0.0607,
      "velocity": 127,
      "chip": "ym2612"
    },
    {
      "channel": 4,
      "note": 44,
      "start": 17.2932,
      "duration": 0.0581,
      "velocity": 119,
      "chip": "ym2612"
    },
    {
      "channel": 3,
      "note": 59,
      "start": 17.4041,
      "duration": 0.097,
      "velocity": 87,
      "chip": "ym2612"
    },
    {
      "channel": 5,
      "note": 83,
      "start": 17.4071,
      "duration": 0.0775,
      "velocity": 110,
      "chip": "ym2612"
    },
    {
      "channel": 0,
      "note": 68,
      "start": 17.4097,
      "duration": 0.0414,
      "velocity": 127,
      "chip": "ym2612"
    },
    {
      "channel": 4,
      "note": 44,
      "start": 17.4125,
      "duration": 0.0388,
      "velocity": 119,
      "chip": "ym2612"
    },
    {
      "channel": 5,
      "note": 83,
      "start": 17.5213,
      "duration": 0.0465,
      "velocity": 110,
      "chip": "ym2612"
    },
    {
      "channel": 0,
      "note": 68,
      "start": 17.5241,
      "duration": 0.027,
      "velocity": 127,
      "chip": "ym2612"
    },
    {
      "channel": 3,
      "note": 59,
      "start": 17.6379,
      "duration": 0.1298,
      "velocity": 87,
      "chip": "ym2612"
    },
    {
      "channel": 0,
      "note": 68,
      "start": 17.6409,
      "duration": 0.0267,
      "velocity": 127,
      "chip": "ym2612"
    },
    {
      "channel": 4,
      "note": 44,
      "start": 17.6441,
      "duration": 0.0404,
      "velocity": 119,
      "chip": "ym2612"
    },
    {
      "channel": 0,
      "note": 68,
      "start": 17.7213,
      "duration": 0.0629,
      "velocity": 127,
      "chip": "ym2612"
    },
    {
      "channel": 5,
      "note": 83,
      "start": 17.7546,
      "duration": 0.0633,
      "velocity": 110,
      "chip": "ym2612"
    },
    {
      "channel": 0,
      "note": 68,
      "start": 17.9547,
      "duration": 0.0798,
      "velocity": 127,
      "chip": "ym2612"
    },
    {
      "channel": 3,
      "note": 66,
      "start": 17.9708,
      "duration": 0.3303,
      "velocity": 87,
      "chip": "ym2612"
    },
    {
      "channel": 4,
      "note": 44,
      "start": 17.974,
      "duration": 0.0607,
      "velocity": 119,
      "chip": "ym2612"
    },
    {
      "channel": 5,
      "note": 83,
      "start": 18.088,
      "duration": 0.0965,
      "velocity": 110,
      "chip": "ym2612"
    },
    {
      "channel": 0,
      "note": 71,
      "start": 18.0913,
      "duration": 0.0597,
      "velocity": 127,
      "chip": "ym2612"
    },
    {
      "channel": 5,
      "note": 83,
      "start": 18.205,
      "duration": 0.0796,
      "velocity": 110,
      "chip": "ym2612"
    },
    {
      "channel": 3,
      "note": 59,
      "start": 18.3207,
      "duration": 0.3137,
      "velocity": 87,
      "chip": "ym2612"
    },
    {
      "channel": 2,
      "note": 88,
      "start": 18.3238,
      "duration": 0.4442,
      "velocity": 96,
      "chip": "ym2612"
    },
    {
      "channel": 1,
      "note": 59,
      "start": 18.3267,
      "duration": 0.0577,
      "velocity": 91,
      "chip": "ym2612"
    },
    {
      "channel": 0,
      "note": 68,
      "start": 18.3293,
      "duration": 0.0384,
      "velocity": 127,
      "chip": "ym2612"
    },
    {
      "channel": 4,
      "note": 44,
      "start": 18.3328,
      "duration": 0.0352,
      "velocity": 119,
      "chip": "ym2612"
    },
    {
      "channel": 1,
      "note": 59,
      "start": 18.421,
      "duration": 0.0634,
      "velocity": 91,
      "chip": "ym2612"
    },
    {
      "channel": 0,
      "note": 68,
      "start": 18.4377,
      "duration": 0.0466,
      "velocity": 127,
      "chip": "ym2612"
    },
    {
      "channel": 5,
      "note": 83,
      "start": 18.5546,
      "duration": 0.0799,
      "velocity": 110,
      "chip": "ym2612"
    },
    {
      "channel": 0,
      "note": 68,
      "start": 18.5572,
      "duration": 0.0438,
      "velocity": 127,
      "chip": "ym2612"
    },
    {
      "channel": 1,
      "note": 59,
      "start": 18.6379,
      "duration": 0.0965,
      "velocity": 91,
      "chip": "ym2612"
    },
    {
      "channel": 5,
      "note": 83,
      "start": 18.6546,
      "duration": 0.08,
      "velocity": 110,
      "chip": "ym2612"
    },
    {
      "channel": 0,
      "note": 68,
      "start": 18.6575,
      "duration": 0.0436,
      "velocity": 127,
      "chip": "ym2612"
    },
    {
      "channel": 2,
      "note": 87,
      "start": 18.7711,
      "duration": 0.4635,
      "velocity": 96,
      "chip": "ym2612"
    },
    {
      "channel": 0,
      "note": 68,
      "start": 18.8713,
      "duration": 0.0797,
      "velocity": 127,
      "chip": "ym2612"
    },
    {
      "channel": 5,
      "note": 83,
      "start": 18.888,
      "duration": 0.0967,
      "velocity": 110,
      "chip": "ym2612"
    },
    {
      "channel": 1,
      "note": 59,
      "start": 18.8905,
      "duration": 0.0939,
      "velocity": 91,
      "chip": "ym2612"
    },
    {
      "channel": 0,
      "note": 68,
      "start": 19.0046,
      "duration": 0.0297,
      "velocity": 127,
      "chip": "ym2612"
    },
    {
      "channel": 3,
      "note": 59,
      "start": 19.1209,
      "duration": 0.0135,
      "velocity": 87,
      "chip": "ym2612"
    },
    {
      "channel": 1,
      "note": 59,
      "start": 19.1242,
      "duration": 0.0602,
      "velocity": 91,
      "chip": "ym2612"
    },
    {
      "channel": 0,
      "note": 68,
      "start": 19.1267,
      "duration": 0.0243,
      "velocity": 127,
      "chip": "ym2612"
    },
    {
      "channel": 4,
      "note": 44,
      "start": 19.1295,
      "duration": 0.0383,
      "velocity": 119,
      "chip": "ym2612"
    },
    {
      "channel": 1,
      "note": 57,
      "start": 19.2211,
      "duration": 0.1966,
      "velocity": 91,
      "chip": "ym2612"
    },
    {
      "channel": 3,
      "note": 59,
      "start": 19.2376,
      "duration": 0.397,
      "velocity": 87,
      "chip": "ym2612"
    },
    {
      "channel": 2,
      "note": 83,
      "start": 19.2403,
      "duration": 0.4443,
      "velocity": 96,
      "chip": "ym2612"
    },
    {
      "channel": 5,
      "note": 83,
      "start": 19.2432,
      "duration": 0.0747,
      "velocity": 110,
      "chip": "ym2612"
    },
    {
      "channel": 0,
      "note": 68,
      "start": 19.2458,
      "duration": 0.022,
      "velocity": 127,
      "chip": "ym2612"
    },
    {
      "channel": 4,
      "note": 44,
      "start": 19.2485,
      "duration": 0.0359,
      "velocity": 119,
      "chip": "ym2612"
    },
    {
      "channel": 5,
      "note": 83,
      "start": 19.355,
      "duration": 0.0629,
      "velocity": 110,
      "chip": "ym2612"
    },
    {
      "channel": 0,
      "note": 68,
      "start": 19.3582,
      "duration": 0.0428,
      "velocity": 127,
      "chip": "ym2612"
    },
    {
      "channel": 1,
      "note": 59,
      "start": 19.4546,
      "duration": 0.0964,
      "velocity": 91,
      "chip": "ym2612"
    },
    {
      "channel": 0,
      "note": 68,
      "start": 19.4571,
      "duration": 0.0606,
      "velocity": 127,
      "chip": "ym2612"
    },
    {
      "channel": 5,
      "note": 83,
      "start": 19.5709,
      "duration": 0.0803,
      "velocity": 110,
      "chip": "ym2612"
    },
    {
      "channel": 0,
      "note": 68,
      "start": 19.5737,
      "duration": 0.0607,
      "velocity": 127,
      "chip": "ym2612"
    },
    {
      "channel": 2,
      "note": 78,
      "start": 19.6878,
      "duration": 0.4634,
      "velocity": 96,
      "chip": "ym2612"
    },
    {
      "channel": 5,
      "note": 83,
      "start": 19.8047,
      "duration": 0.0132,
      "velocity": 110,
      "chip": "ym2612"
    },
    {
      "channel": 0,
      "note": 68,
      "start": 19.8075,
      "duration": 0.0436,
      "velocity": 127,
      "chip": "ym2612"
    },
    {
      "channel": 3,
      "note": 71,
      "start": 19.9209,
      "duration": 0.0969,
      "velocity": 87,
      "chip": "ym2612"
    },
    {
      "channel": 5,
      "note": 83,
      "start": 19.9239,
      "duration": 0.0607,
      "velocity": 110,
      "chip": "ym2612"
    },
    {
      "channel": 0,
      "note": 68,
      "start": 19.9265,
      "duration": 0.0412,
      "velocity": 127,
      "chip": "ym2612"
    },
    {
      "channel": 3,
      "note": 71,
      "start": 20.0379,
      "duration": 0.0299,
      "velocity": 87,
      "chip": "ym2612"
    },
    {
      "channel": 5,
      "note": 83,
      "start": 20.041,
      "duration": 0.0768,
      "velocity": 110,
      "chip": "ym2612"
    },
    {
      "channel": 0,
      "note": 68,
      "start": 20.0437,
      "duration": 0.0407,
      "velocity": 127,
      "chip": "ym2612"
    },
    {
      "channel": 2,
      "note": 76,
      "start": 20.1543,
      "duration": 0.4469,
      "velocity": 96,
      "chip": "ym2612"
    },
    {
      "channel": 0,
      "note": 68,
      "start": 20.157,
      "duration": 0.044,
      "velocity": 127,
      "chip": "ym2612"
    },
    {
      "channel": 3,
      "note": 59,
      "start": 20.2541,
      "duration": 0.047,
      "velocity": 87,
      "chip": "ym2612"
    },
    {
      "channel": 5,
      "note": 83,
      "start": 20.2572,
      "duration": 0.0442,
      "velocity": 110,
      "chip": "ym2612"
    },
    {
      "channel": 0,
      "note": 68,
      "start": 20.2598,
      "duration": 0.0579,
      "velocity": 127,
      "chip": "ym2612"
    },
    {
      "channel": 4,
      "note": 44,
      "start": 20.2627,
      "duration": 0.0385,
      "velocity": 119,
      "chip": "ym2612"
    },
    {
      "channel": 3,
      "note": 59,
      "start": 20.3708,
      "duration": 0.097,
      "velocity": 87,
      "chip": "ym2612"
    },
    {
      "channel": 5,
      "note": 83,
      "start": 20.3737,
      "duration": 0.0775,
      "velocity": 110,
      "chip": "ym2612"
    },
    {
      "channel": 0,
      "note": 68,
      "start": 20.3765,
      "duration": 0.0412,
      "velocity": 127,
      "chip": "ym2612"
    },
    {
      "channel": 4,
      "note": 44,
      "start": 20.3794,
      "duration": 0.0551,
      "velocity": 119,
      "chip": "ym2612"
    },
    {
      "channel": 5,
      "note": 83,
      "start": 20.4882,
      "duration": 0.0796,
      "velocity": 110,
      "chip": "ym2612"
    },
    {
      "channel": 0,
      "note": 68,
      "start": 20.4911,
      "duration": 0.0599,
      "velocity": 127,
      "chip": "ym2612"
    },
    {
      "channel": 3,
      "note": 66,
      "start": 20.6043,
      "duration": 0.0135,
      "velocity": 87,
      "chip": "ym2612"
    },
    {
      "channel": 2,
      "note": 75,
      "start": 20.6074,
      "duration": 0.2272,
      "velocity": 96,
      "chip": "ym2612"
    },
    {
      "channel": 3,
      "note": 59,
      "start": 20.7209,
      "duration": 0.1302,
      "velocity": 87,
      "chip": "ym2612"
    },
    {
      "channel": 5,
      "note": 83,
      "start": 20.7239,
      "duration": 0.0442,
      "velocity": 110,
      "chip": "ym2612"
    },
    {
      "channel": 0,
      "note": 68,
      "start": 20.727,
      "duration": 0.0407,
      "velocity": 127,
      "chip": "ym2612"
    },
    {
      "channel": 4,
      "note": 44,
      "start": 20.7296,
      "duration": 0.0383,
      "velocity": 119,
      "chip": "ym2612"
    },
    {
      "channel": 2,
      "note": 71,
      "start": 20.8384,
      "duration": 1.0629,
      "velocity": 96,
      "chip": "ym2612"
    },
    {
      "channel": 0,
      "note": 68,
      "start": 20.8411,
      "duration": 0.0433,
      "velocity": 127,
      "chip": "ym2612"
    },
    {
      "channel": 5,
      "note": 83,
      "start": 20.9547,
      "duration": 0.0298,
      "velocity": 110,
      "chip": "ym2612"
    },
    {
      "channel": 0,
      "note": 68,
      "start": 20.9573,
      "duration": 0.0437,
      "velocity": 127,
      "chip": "ym2612"
    },
    {
      "channel": 3,
      "note": 59,
      "start": 21.0545,
      "duration": 0.38,
      "velocity": 87,
      "chip": "ym2612"
    },
    {
      "channel": 0,
      "note": 68,
      "start": 21.0574,
      "duration": 0.0603,
      "velocity": 127,
      "chip": "ym2612"
    },
    {
      "channel": 4,
      "note": 44,
      "start": 21.0605,
      "duration": 0.0407,
      "velocity": 119,
      "chip": "ym2612"
    },
    {
      "channel": 0,
      "note": 68,
      "start": 21.1711,
      "duration": 0.0466,
      "velocity": 127,
      "chip": "ym2612"
    },
    {
      "channel": 0,
      "note": 68,
      "start": 21.2879,
      "duration": 0.0299,
      "velocity": 127,
      "chip": "ym2612"
    },
    {
      "channel": 0,
      "note": 68,
      "start": 21.388,
      "duration": 0.0463,
      "velocity": 127,
      "chip": "ym2612"
    },
    {
      "channel": 4,
      "note": 44,
      "start": 21.405,
      "duration": 0.0461,
      "velocity": 119,
      "chip": "ym2612"
    },
    {
      "channel": 0,
      "note": 68,
      "start": 21.6214,
      "duration": 0.063,
      "velocity": 127,
      "chip": "ym2612"
    },
    {
      "channel": 1,
      "note": 53,
      "start": 21.7545,
      "duration": 0.2632,
      "velocity": 91,
      "chip": "ym2612"
    },
    {
      "channel": 0,
      "note": 71,
      "start": 21.7577,
      "duration": 0.0433,
      "velocity": 127,
      "chip": "ym2612"
    },
    {
      "channel": 3,
      "note": 54,
      "start": 21.9708,
      "duration": 0.3636,
      "velocity": 87,
      "chip": "ym2612"
    },
    {
      "channel": 2,
      "note": 70,
      "start": 21.9739,
      "duration": 0.444,
      "velocity": 96,
      "chip": "ym2612"
    },
    {
      "channel": 5,
      "note": 54,
      "start": 21.9771,
      "duration": 0.2075,
      "velocity": 91,
      "chip": "ym2612"
    },
    {
      "channel": 4,
      "note": 44,
      "start": 21.9832,
      "duration": 0.0513,
      "velocity": 119,
      "chip": "ym2612"
    },
    {
      "channel": 0,
      "note": 78,
      "start": 22.2047,
      "duration": 0.0796,
      "velocity": 110,
      "chip": "ym2612"
    },
    {
      "channel": 1,
      "note": 68,
      "start": 22.2079,
      "duration": 0.0431,
      "velocity": 127,
      "chip": "ym2612"
    },
    {
      "channel": 0,
      "note": 78,
      "start": 22.3211,
      "duration": 0.0299,
      "velocity": 110,
      "chip": "ym2612"
    },
    {
      "channel": 1,
      "note": 68,
      "start": 22.3241,
      "duration": 0.0271,
      "velocity": 127,
      "chip": "ym2612"
    },
    {
      "channel": 2,
      "note": 66,
      "start": 22.4377,
      "duration": 0.4302,
      "velocity": 96,
      "chip": "ym2612"
    },
    {
      "channel": 0,
      "note": 78,
      "start": 22.5545,
      "duration": 0.0466,
      "velocity": 110,
      "chip": "ym2612"
    },
    {
      "channel": 1,
      "note": 68,
      "start": 22.638,
      "duration": 0.0632,
      "velocity": 127,
      "chip": "ym2612"
    },
    {
      "channel": 3,
      "note": 54,
      "start": 22.7708,
      "duration": 0.0137,
      "velocity": 87,
      "chip": "ym2612"
    },
    {
      "channel": 1,
      "note": 68,
      "start": 22.774,
      "duration": 0.0437,
      "velocity": 127,
      "chip": "ym2612"
    },
    {
      "channel": 4,
      "note": 44,
      "start": 22.7768,
      "duration": 0.0577,
      "velocity": 119,
      "chip": "ym2612"
    },
    {
      "channel": 3,
      "note": 54,
      "start": 22.8875,
      "duration": 0.2303,
      "velocity": 87,
      "chip": "ym2612"
    },
    {
      "channel": 2,
      "note": 73,
      "start": 22.8903,
      "duration": 0.4276,
      "velocity": 96,
      "chip": "ym2612"
    },
    {
      "channel": 0,
      "note": 78,
      "start": 22.8934,
      "duration": 0.0742,
      "velocity": 110,
      "chip": "ym2612"
    },
    {
      "channel": 4,
      "note": 44,
      "start": 22.8965,
      "duration": 0.0546,
      "velocity": 119,
      "chip": "ym2612"
    },
    {
      "channel": 0,
      "note": 78,
      "start": 23.0044,
      "duration": 0.0467,
      "velocity": 110,
      "chip": "ym2612"
    },
    {
      "channel": 1,
      "note": 68,
      "start": 23.1218,
      "duration": 0.0459,
      "velocity": 127,
      "chip": "ym2612"
    },
    {
      "channel": 0,
      "note": 78,
      "start": 23.2377,
      "duration": 0.0632,
      "velocity": 110,
      "chip": "ym2612"
    },
    {
      "channel": 1,
      "note": 68,
      "start": 23.2405,
      "duration": 0.0438,
      "velocity": 127,
      "chip": "ym2612"
    },
    {
      "channel": 2,
      "note": 70,
      "start": 23.3544,
      "duration": 0.4302,
      "velocity": 96,
      "chip": "ym2612"
    },
    {
      "channel": 3,
      "note": 66,
      "start": 23.5709,
      "duration": 0.0971,
      "velocity": 87,
      "chip": "ym2612"
    },
    {
      "channel": 0,
      "note": 78,
      "start": 23.5737,
      "duration": 0.094,
      "velocity": 110,
      "chip": "ym2612"
    },
    {
      "channel": 1,
      "note": 68,
      "start": 23.5766,
      "duration": 0.0578,
      "velocity": 127,
      "chip": "ym2612"
    },
    {
      "channel": 3,
      "note": 66,
      "start": 23.6873,
      "duration": 0.0304,
      "velocity": 87,
      "chip": "ym2612"
    },
    {
      "channel": 0,
      "note": 78,
      "start": 23.6902,
      "duration": 0.0774,
      "velocity": 110,
      "chip": "ym2612"
    },
    {
      "channel": 1,
      "note": 68,
      "start": 23.693,
      "duration": 0.058,
      "velocity": 127,
      "chip": "ym2612"
    },
    {
      "channel": 3,
      "note": 54,
      "start": 23.8045,
      "duration": 0.3466,
      "velocity": 87,
      "chip": "ym2612"
    },
    {
      "channel": 2,
      "note": 75,
      "start": 23.8073,
      "duration": 0.4272,
      "velocity": 96,
      "chip": "ym2612"
    },
    {
      "channel": 4,
      "note": 44,
      "start": 23.8106,
      "duration": 0.0406,
      "velocity": 119,
      "chip": "ym2612"
    },
    {
      "channel": 0,
      "note": 78,
      "start": 24.0379,
      "duration": 0.0632,
      "velocity": 110,
      "chip": "ym2612"
    },
    {
      "channel": 1,
      "note": 68,
      "start": 24.0408,
      "duration": 0.027,
      "velocity": 127,
      "chip": "ym2612"
    },
    {
      "channel": 0,
      "note": 78,
      "start": 24.1544,
      "duration": 0.0632,
      "velocity": 110,
      "chip": "ym2612"
    },
    {
      "channel": 1,
      "note": 68,
      "start": 24.1573,
      "duration": 0.0437,
      "velocity": 127,
      "chip": "ym2612"
    },
    {
      "channel": 2,
      "note": 73,
      "start": 24.2544,
      "duration": 0.4469,
      "velocity": 96,
      "chip": "ym2612"
    },
    {
      "channel": 0,
      "note": 78,
      "start": 24.371,
      "duration": 0.08,
      "velocity": 110,
      "chip": "ym2612"
    },
    {
      "channel": 1,
      "note": 68,
      "start": 24.4879,
      "duration": 0.0632,
      "velocity": 127,
      "chip": "ym2612"
    },
    {
      "channel": 3,
      "note": 54,
      "start": 24.6041,
      "duration": 0.0303,
      "velocity": 87,
      "chip": "ym2612"
    },
    {
      "channel": 1,
      "note": 68,
      "start": 24.6075,
      "duration": 0.0435,
      "velocity": 127,
      "chip": "ym2612"
    },
    {
      "channel": 4,
      "note": 44,
      "start": 24.6103,
      "duration": 0.0409,
      "velocity": 119,
      "chip": "ym2612"
    },
    {
      "channel": 3,
      "note": 54,
      "start": 24.7208,
      "duration": 0.0969,
      "velocity": 87,
      "chip": "ym2612"
    },
    {
      "channel": 2,
      "note": 80,
      "start": 24.7236,
      "duration": 0.4276,
      "velocity": 96,
      "chip": "ym2612"
    },
    {
      "channel": 0,
      "note": 78,
      "start": 24.7262,
      "duration": 0.0581,
      "velocity": 110,
      "chip": "ym2612"
    },
    {
      "channel": 4,
      "note": 44,
      "start": 24.7293,
      "duration": 0.0385,
      "velocity": 119,
      "chip": "ym2612"
    },
    {
      "channel": 0,
      "note": 78,
      "start": 24.8377,
      "duration": 0.0466,
      "velocity": 110,
      "chip": "ym2612"
    },
    {
      "channel": 3,
      "note": 54,
      "start": 24.9543,
      "duration": 0.1302,
      "velocity": 87,
      "chip": "ym2612"
    },
    {
      "channel": 1,
      "note": 68,
      "start": 24.9573,
      "duration": 0.0438,
      "velocity": 127,
      "chip": "ym2612"
    },
    {
      "channel": 4,
      "note": 44,
      "start": 24.9605,
      "duration": 0.0408,
      "velocity": 119,
      "chip": "ym2612"
    },
    {
      "channel": 0,
      "note": 78,
      "start": 25.0544,
      "duration": 0.08,
      "velocity": 110,
      "chip": "ym2612"
    },
    {
      "channel": 1,
      "note": 68,
      "start": 25.0573,
      "duration": 0.0437,
      "velocity": 127,
      "chip": "ym2612"
    },
    {
      "channel": 2,
      "note": 78,
      "start": 25.1709,
      "duration": 0.4471,
      "velocity": 96,
      "chip": "ym2612"
    },
    {
      "channel": 3,
      "note": 61,
      "start": 25.2875,
      "duration": 0.3302,
      "velocity": 87,
      "chip": "ym2612"
    },
    {
      "channel": 4,
      "note": 44,
      "start": 25.2907,
      "duration": 0.0605,
      "velocity": 119,
      "chip": "ym2612"
    },
    {
      "channel": 0,
      "note": 78,
      "start": 25.4044,
      "duration": 0.0966,
      "velocity": 110,
      "chip": "ym2612"
    },
    {
      "channel": 1,
      "note": 68,
      "start": 25.4074,
      "duration": 0.0437,
      "velocity": 127,
      "chip": "ym2612"
    },
    {
      "channel": 5,
      "note": 53,
      "start": 25.4217,
      "duration": 0.2796,
      "velocity": 91,
      "chip": "ym2612"
    },
    {
      "channel": 0,
      "note": 78,
      "start": 25.5215,
      "duration": 0.0629,
      "velocity": 110,
      "chip": "ym2612"
    },
    {
      "channel": 1,
      "note": 68,
      "start": 25.5243,
      "duration": 0.0434,
      "velocity": 127,
      "chip": "ym2612"
    },
    {
      "channel": 3,
      "note": 54,
      "start": 25.6374,
      "duration": 0.3138,
      "velocity": 87,
      "chip": "ym2612"
    },
    {
      "channel": 2,
      "note": 70,
      "start": 25.6402,
      "duration": 0.4278,
      "velocity": 96,
      "chip": "ym2612"
    },
    {
      "channel": 4,
      "note": 44,
      "start": 25.6442,
      "duration": 0.0403,
      "velocity": 119,
      "chip": "ym2612"
    },
    {
      "channel": 1,
      "note": 54,
      "start": 25.6716,
      "duration": 0.1629,
      "velocity": 91,
      "chip": "ym2612"
    },
    {
      "channel": 0,
      "note": 78,
      "start": 25.8544,
      "duration": 0.0966,
      "velocity": 110,
      "chip": "ym2612"
    },
    {
      "channel": 4,
      "note": 68,
      "start": 25.8575,
      "duration": 0.0603,
      "velocity": 127,
      "chip": "ym2612"
    },
    {
      "channel": 0,
      "note": 78,
      "start": 25.971,
      "duration": 0.08,
      "velocity": 110,
      "chip": "ym2612"
    },
    {
      "channel": 4,
      "note": 68,
      "start": 25.9739,
      "duration": 0.0606,
      "velocity": 127,
      "chip": "ym2612"
    },
    {
      "channel": 2,
      "note": 66,
      "start": 26.0877,
      "duration": 0.4302,
      "velocity": 96,
      "chip": "ym2612"
    },
    {
      "channel": 0,
      "note": 78,
      "start": 26.2045,
      "duration": 0.0966,
      "velocity": 110,
      "chip": "ym2612"
    },
    {
      "channel": 4,
      "note": 68,
      "start": 26.3218,
      "duration": 0.0293,
      "velocity": 127,
      "chip": "ym2612"
    },
    {
      "channel": 3,
      "note": 54,
      "start": 26.438,
      "duration": 0.0131,
      "velocity": 87,
      "chip": "ym2612"
    },
    {
      "channel": 4,
      "note": 68,
      "start": 26.4413,
      "duration": 0.0432,
      "velocity": 127,
      "chip": "ym2612"
    },
    {
      "channel": 5,
      "note": 44,
      "start": 26.4442,
      "duration": 0.0404,
      "velocity": 119,
      "chip": "ym2612"
    },
    {
      "channel": 3,
      "note": 54,
      "start": 26.5541,
      "duration": 0.397,
      "velocity": 87,
      "chip": "ym2612"
    },
    {
      "channel": 2,
      "note": 73,
      "start": 26.5569,
      "duration": 0.4276,
      "velocity": 96,
      "chip": "ym2612"
    },
    {
      "channel": 0,
      "note": 78,
      "start": 26.5595,
      "duration": 0.0747,
      "velocity": 110,
      "chip": "ym2612"
    },
    {
      "channel": 5,
      "note": 44,
      "start": 26.5627,
      "duration": 0.0385,
      "velocity": 119,
      "chip": "ym2612"
    },
    {
      "channel": 0,
      "note": 78,
      "start": 26.6547,
      "duration": 0.0796,
      "velocity": 110,
      "chip": "ym2612"
    },
    {
      "channel": 4,
      "note": 68,
      "start": 26.7714,
      "duration": 0.0632,
      "velocity": 127,
      "chip": "ym2612"
    },
    {
      "channel": 0,
      "note": 78,
      "start": 26.8874,
      "duration": 0.0802,
      "velocity": 110,
      "chip": "ym2612"
    },
    {
      "channel": 4,
      "note": 68,
      "start": 26.8903,
      "duration": 0.061,
      "velocity": 127,
      "chip": "ym2612"
    },
    {
      "channel": 2,
      "note": 70,
      "start": 27.0046,
      "duration": 0.4301,
      "velocity": 96,
      "chip": "ym2612"
    },
    {
      "channel": 0,
      "note": 78,
      "start": 27.1211,
      "duration": 0.0133,
      "velocity": 110,
      "chip": "ym2612"
    },
    {
      "channel": 3,
      "note": 66,
      "start": 27.2376,
      "duration": 0.0802,
      "velocity": 87,
      "chip": "ym2612"
    },
    {
      "channel": 0,
      "note": 78,
      "start": 27.2403,
      "duration": 0.0607,
      "velocity": 110,
      "chip": "ym2612"
    },
    {
      "channel": 4,
      "note": 68,
      "start": 27.2432,
      "duration": 0.0412,
      "velocity": 127,
      "chip": "ym2612"
    },
    {
      "channel": 3,
      "note": 66,
      "start": 27.3541,
      "duration": 0.0302,
      "velocity": 87,
      "chip": "ym2612"
    },
    {
      "channel": 0,
      "note": 78,
      "start": 27.3571,
      "duration": 0.0773,
      "velocity": 110,
      "chip": "ym2612"
    },
    {
      "channel": 4,
      "note": 68,
      "start": 27.36,
      "duration": 0.0412,
      "velocity": 127,
      "chip": "ym2612"
    },
    {
      "channel": 2,
      "note": 75,
      "start": 27.4542,
      "duration": 0.4471,
      "velocity": 96,
      "chip": "ym2612"
    },
    {
      "channel": 3,
      "note": 54,
      "start": 27.5706,
      "duration": 0.0472,
      "velocity": 87,
      "chip": "ym2612"
    },
    {
      "channel": 0,
      "note": 78,
      "start": 27.5735,
      "duration": 0.0441,
      "velocity": 110,
      "chip": "ym2612"
    },
    {
      "channel": 5,
      "note": 44,
      "start": 27.5768,
      "duration": 0.0412,
      "velocity": 119,
      "chip": "ym2612"
    },
    {
      "channel": 3,
      "note": 54,
      "start": 27.6876,
      "duration": 0.0968,
      "velocity": 87,
      "chip": "ym2612"
    },
    {
      "channel": 0,
      "note": 78,
      "start": 27.6903,
      "duration": 0.0774,
      "velocity": 110,
      "chip": "ym2612"
    },
    {
      "channel": 4,
      "note": 68,
      "start": 27.6932,
      "duration": 0.058,
      "velocity": 127,
      "chip": "ym2612"
    },
    {
      "channel": 5,
      "note": 44,
      "start": 27.6962,
      "duration": 0.0551,
      "velocity": 119,
      "chip": "ym2612"
    },
    {
      "channel": 0,
      "note": 78,
      "start": 27.8046,
      "duration": 0.0798,
      "velocity": 110,
      "chip": "ym2612"
    },
    {
      "channel": 4,
      "note": 68,
      "start": 27.8078,
      "duration": 0.0434,
      "velocity": 127,
      "chip": "ym2612"
    },
    {
      "channel": 3,
      "note": 61,
      "start": 27.9212,
      "duration": 0.0132,
      "velocity": 87,
      "chip": "ym2612"
    },
    {
      "channel": 2,
      "note": 73,
      "start": 27.924,
      "duration": 0.4273,
      "velocity": 96,
      "chip": "ym2612"
    },
    {
      "channel": 3,
      "note": 54,
      "start": 28.0376,
      "duration": 0.1302,
      "velocity": 87,
      "chip": "ym2612"
    },
    {
      "channel": 0,
      "note": 78,
      "start": 28.0403,
      "duration": 0.0441,
      "velocity": 110,
      "chip": "ym2612"
    },
    {
      "channel": 5,
      "note": 44,
      "start": 28.0433,
      "duration": 0.0413,
      "velocity": 119,
      "chip": "ym2612"
    },
    {
      "channel": 4,
      "note": 68,
      "start": 28.1547,
      "duration": 0.0465,
      "velocity": 127,
      "chip": "ym2612"
    },
    {
      "channel": 0,
      "note": 78,
      "start": 28.2546,
      "duration": 0.0465,
      "velocity": 110,
      "chip": "ym2612"
    },
    {
      "channel": 4,
      "note": 68,
      "start": 28.2575,
      "duration": 0.0604,
      "velocity": 127,
      "chip": "ym2612"
    },
    {
      "channel": 3,
      "note": 54,
      "start": 28.3709,
      "duration": 0.3803,
      "velocity": 87,
      "chip": "ym2612"
    },
    {
      "channel": 2,
      "note": 80,
      "start": 28.3737,
      "duration": 0.4443,
      "velocity": 96,
      "chip": "ym2612"
    },
    {
      "channel": 5,
      "note": 44,
      "start": 28.3773,
      "duration": 0.0405,
      "velocity": 119,
      "chip": "ym2612"
    },
    {
      "channel": 4,
      "note": 68,
      "start": 28.6046,
      "duration": 0.0465,
      "velocity": 127,
      "chip": "ym2612"
    },
    {
      "channel": 4,
      "note": 68,
      "start": 28.7212,
      "duration": 0.0465,
      "velocity": 127,
      "chip": "ym2612"
    },
    {
      "channel": 5,
      "note": 44,
      "start": 28.7243,
      "duration": 0.0436,
      "velocity": 119,
      "chip": "ym2612"
    },
    {
      "channel": 2,
      "note": 78,
      "start": 28.8376,
      "duration": 0.4303,
      "velocity": 96,
      "chip": "ym2612"
    },
    {
      "channel": 1,
      "note": 53,
      "start": 29.0545,
      "duration": 0.2132,
      "velocity": 91,
      "chip": "ym2612"
    },
    {
      "channel": 4,
      "note": 68,
      "start": 29.0573,
      "duration": 0.0606,
      "velocity": 127,
      "chip": "ym2612"
    },
    {
      "channel": 4,
      "note": 68,
      "start": 29.1548,
      "duration": 0.0797,
      "velocity": 127,
      "chip": "ym2612"
    },
    {
      "channel": 3,
      "note": 59,
      "start": 29.2875,
      "duration": 0.3637,
      "velocity": 87,
      "chip": "ym2612"
    },
    {
      "channel": 2,
      "note": 87,
      "start": 29.2906,
      "duration": 0.2274,
      "velocity": 96,
      "chip": "ym2612"
    },
    {
      "channel": 5,
      "note": 44,
      "start": 29.2959,
      "duration": 0.0554,
      "velocity": 119,
      "chip": "ym2612"
    },
    {
      "channel": 1,
      "note": 59,
      "start": 29.3212,
      "duration": 0.0965,
      "velocity": 91,
      "chip": "ym2612"
    },
    {
      "channel": 1,
      "note": 59,
      "start": 29.4378,
      "duration": 0.08,
      "velocity": 91,
      "chip": "ym2612"
    },
    {
      "channel": 0,
      "note": 83,
      "start": 29.5213,
      "duration": 0.063,
      "velocity": 110,
      "chip": "ym2612"
    },
    {
      "channel": 4,
      "note": 68,
      "start": 29.5247,
      "duration": 0.0431,
      "velocity": 127,
      "chip": "ym2612"
    },
    {
      "channel": 2,
      "note": 88,
      "start": 29.588,
      "duration": 0.1966,
      "velocity": 96,
      "chip": "ym2612"
    },
    {
      "channel": 0,
      "note": 83,
      "start": 29.6377,
      "duration": 0.0299,
      "velocity": 110,
      "chip": "ym2612"
    },
    {
      "channel": 4,
      "note": 68,
      "start": 29.6408,
      "duration": 0.0271,
      "velocity": 127,
      "chip": "ym2612"
    },
    {
      "channel": 1,
      "note": 59,
      "start": 29.655,
      "duration": 0.0961,
      "velocity": 91,
      "chip": "ym2612"
    },
    {
      "channel": 0,
      "note": 83,
      "start": 29.8544,
      "duration": 0.0633,
      "velocity": 110,
      "chip": "ym2612"
    },
    {
      "channel": 1,
      "note": 59,
      "start": 29.8878,
      "duration": 0.0632,
      "velocity": 91,
      "chip": "ym2612"
    },
    {
      "channel": 2,
      "note": 87,
      "start": 29.9214,
      "duration": 0.1132,
      "velocity": 96,
      "chip": "ym2612"
    },
    {
      "channel": 4,
      "note": 68,
      "start": 29.9548,
      "duration": 0.063,
      "velocity": 127,
      "chip": "ym2612"
    },
    {
      "channel": 3,
      "note": 59,
      "start": 30.0876,
      "duration": 0.0135,
      "velocity": 87,
      "chip": "ym2612"
    },
    {
      "channel": 1,
      "note": 59,
      "start": 30.0904,
      "duration": 0.0773,
      "velocity": 91,
      "chip": "ym2612"
    },
    {
      "channel": 4,
      "note": 68,
      "start": 30.0933,
      "duration": 0.0245,
      "velocity": 127,
      "chip": "ym2612"
    },
    {
      "channel": 5,
      "note": 44,
      "start": 30.0961,
      "duration": 0.055,
      "velocity": 119,
      "chip": "ym2612"
    },
    {
      "channel": 1,
      "note": 57,
      "start": 30.1878,
      "duration": 0.23,
      "velocity": 91,
      "chip": "ym2612"
    },
    {
      "channel": 3,
      "note": 59,
      "start": 30.2045,
      "duration": 0.23,
      "velocity": 87,
      "chip": "ym2612"
    },
    {
      "channel": 2,
      "note": 83,
      "start": 30.2082,
      "duration": 2.5264,
      "velocity": 96,
      "chip": "ym2612"
    },
    {
      "channel": 0,
      "note": 83,
      "start": 30.2114,
      "duration": 0.073,
      "velocity": 110,
      "chip": "ym2612"
    },
    {
      "channel": 5,
      "note": 44,
      "start": 30.2146,
      "duration": 0.0367,
      "velocity": 119,
      "chip": "ym2612"
    },
    {
      "channel": 0,
      "note": 83,
      "start": 30.3211,
      "duration": 0.0467,
      "velocity": 110,
      "chip": "ym2612"
    },
    {
      "channel": 4,
      "note": 68,
      "start": 30.4382,
      "duration": 0.0463,
      "velocity": 127,
      "chip": "ym2612"
    },
    {
      "channel": 1,
      "note": 59,
      "start": 30.4546,
      "duration": 0.0631,
      "velocity": 91,
      "chip": "ym2612"
    },
    {
      "channel": 0,
      "note": 83,
      "start": 30.5544,
      "duration": 0.0632,
      "velocity": 110,
      "chip": "ym2612"
    },
    {
      "channel": 4,
      "note": 68,
      "start": 30.5573,
      "duration": 0.0438,
      "velocity": 127,
      "chip": "ym2612"
    },
    {
      "channel": 3,
      "note": 71,
      "start": 30.8876,
      "duration": 0.0969,
      "velocity": 87,
      "chip": "ym2612"
    },
    {
      "channel": 0,
      "note": 83,
      "start": 30.8905,
      "duration": 0.0939,
      "velocity": 110,
      "chip": "ym2612"
    },
    {
      "channel": 4,
      "note": 68,
      "start": 30.8937,
      "duration": 0.0575,
      "velocity": 127,
      "chip": "ym2612"
    },
    {
      "channel": 3,
      "note": 71,
      "start": 31.0039,
      "duration": 0.0305,
      "velocity": 87,
      "chip": "ym2612"
    },
    {
      "channel": 0,
      "note": 83,
      "start": 31.0068,
      "duration": 0.0776,
      "velocity": 110,
      "chip": "ym2612"
    },
    {
      "channel": 4,
      "note": 68,
      "start": 31.0098,
      "duration": 0.0415,
      "velocity": 127,
      "chip": "ym2612"
    },
    {
      "channel": 3,
      "note": 59,
      "start": 31.1208,
      "duration": 0.3302,
      "velocity": 87,
      "chip": "ym2612"
    },
    {
      "channel": 5,
      "note": 44,
      "start": 31.1242,
      "duration": 0.0436,
      "velocity": 119,
      "chip": "ym2612"
    },
    {
      "channel": 0,
      "note": 83,
      "start": 31.3546,
      "duration": 0.0631,
      "velocity": 110,
      "chip": "ym2612"
    },
    {
      "channel": 4,
      "note": 68,
      "start": 31.3577,
      "duration": 0.0268,
      "velocity": 127,
      "chip": "ym2612"
    },
    {
      "channel": 0,
      "note": 83,
      "start": 31.4543,
      "duration": 0.08,
      "velocity": 110,
      "chip": "ym2612"
    },
    {
      "channel": 4,
      "note": 68,
      "start": 31.4573,
      "duration": 0.0604,
      "velocity": 127,
      "chip": "ym2612"
    },
    {
      "channel": 0,
      "note": 83,
      "start": 31.6876,
      "duration": 0.08,
      "velocity": 110,
      "chip": "ym2612"
    },
    {
      "channel": 4,
      "note": 68,
      "start": 31.8046,
      "duration": 0.0466,
      "velocity": 127,
      "chip": "ym2612"
    },
    {
      "channel": 3,
      "note": 59,
      "start": 31.9209,
      "duration": 0.0302,
      "velocity": 87,
      "chip": "ym2612"
    },
    {
      "channel": 4,
      "note": 68,
      "start": 31.924,
      "duration": 0.0438,
      "velocity": 127,
      "chip": "ym2612"
    },
    {
      "channel": 5,
      "note": 44,
      "start": 31.9269,
      "duration": 0.0411,
      "velocity": 119,
      "chip": "ym2612"
    },
    {
      "channel": 3,
      "note": 59,
      "start": 32.0376,
      "duration": 0.0802,
      "velocity": 87,
      "chip": "ym2612"
    },
    {
      "channel": 0,
      "note": 83,
      "start": 32.0403,
      "duration": 0.0607,
      "velocity": 110,
      "chip": "ym2612"
    },
    {
      "channel": 5,
      "note": 44,
      "start": 32.0435,
      "duration": 0.0411,
      "velocity": 119,
      "chip": "ym2612"
    },
    {
      "channel": 0,
      "note": 83,
      "start": 32.1544,
      "duration": 0.0466,
      "velocity": 110,
      "chip": "ym2612"
    },
    {
      "channel": 3,
      "note": 59,
      "start": 32.2546,
      "duration": 0.1299,
      "velocity": 87,
      "chip": "ym2612"
    },
    {
      "channel": 4,
      "note": 68,
      "start": 32.2577,
      "duration": 0.0602,
      "velocity": 127,
      "chip": "ym2612"
    },
    {
      "channel": 5,
      "note": 44,
      "start": 32.2609,
      "duration": 0.0571,
      "velocity": 119,
      "chip": "ym2612"
    },
    {
      "channel": 0,
      "note": 83,
      "start": 32.371,
      "duration": 0.0799,
      "velocity": 110,
      "chip": "ym2612"
    },
    {
      "channel": 4,
      "note": 68,
      "start": 32.3745,
      "duration": 0.0434,
      "velocity": 127,
      "chip": "ym2612"
    },
    {
      "channel": 3,
      "note": 66,
      "start": 32.604,
      "duration": 0.3138,
      "velocity": 87,
      "chip": "ym2612"
    },
    {
      "channel": 5,
      "note": 44,
      "start": 32.6073,
      "duration": 0.0439,
      "velocity": 119,
      "chip": "ym2612"
    },
    {
      "channel": 0,
      "note": 83,
      "start": 32.721,
      "duration": 0.0967,
      "velocity": 110,
      "chip": "ym2612"
    },
    {
      "channel": 4,
      "note": 68,
      "start": 32.7241,
      "duration": 0.0437,
      "velocity": 127,
      "chip": "ym2612"
    },
    {
      "channel": 0,
      "note": 83,
      "start": 32.8381,
      "duration": 0.0629,
      "velocity": 110,
      "chip": "ym2612"
    },
    {
      "channel": 4,
      "note": 68,
      "start": 32.841,
      "duration": 0.0435,
      "velocity": 127,
      "chip": "ym2612"
    },
    {
      "channel": 1,
      "note": 59,
      "start": 32.9049,
      "duration": 0.0962,
      "velocity": 91,
      "chip": "ym2612"
    },
    {
      "channel": 2,
      "note": 82,
      "start": 32.9214,
      "duration": 0.2299,
      "velocity": 96,
      "chip": "ym2612"
    },
    {
      "channel": 3,
      "note": 59,
      "start": 32.9541,
      "duration": 0.3138,
      "velocity": 87,
      "chip": "ym2612"
    },
    {
      "channel": 5,
      "note": 44,
      "start": 32.9582,
      "duration": 0.0432,
      "velocity": 119,
      "chip": "ym2612"
    },
    {
      "channel": 1,
      "note": 59,
      "start": 33.0045,
      "duration": 0.0965,
      "velocity": 91,
      "chip": "ym2612"
    },
    {
      "channel": 0,
      "note": 83,
      "start": 33.1711,
      "duration": 0.0966,
      "velocity": 110,
      "chip": "ym2612"
    },
    {
      "channel": 4,
      "note": 68,
      "start": 33.174,
      "duration": 0.0605,
      "velocity": 127,
      "chip": "ym2612"
    },
    {
      "channel": 2,
      "note": 83,
      "start": 33.2378,
      "duration": 0.1636,
      "velocity": 96,
      "chip": "ym2612"
    },
    {
      "channel": 1,
      "note": 59,
      "start": 33.2713,
      "duration": 0.0797,
      "velocity": 91,
      "chip": "ym2612"
    },
    {
      "channel": 0,
      "note": 83,
      "start": 33.2878,
      "duration": 0.08,
      "velocity": 110,
      "chip": "ym2612"
    },
    {
      "channel": 4,
      "note": 68,
      "start": 33.2907,
      "duration": 0.0605,
      "velocity": 127,
      "chip": "ym2612"
    },
    {
      "channel": 0,
      "note": 83,
      "start": 33.5211,
      "duration": 0.0965,
      "velocity": 110,
      "chip": "ym2612"
    },
    {
      "channel": 1,
      "note": 59,
      "start": 33.5237,
      "duration": 0.0607,
      "velocity": 91,
      "chip": "ym2612"
    },
    {
      "channel": 2,
      "note": 82,
      "start": 33.538,
      "duration": 0.13,
      "velocity": 96,
      "chip": "ym2612"
    },
    {
      "channel": 4,
      "note": 68,
      "start": 33.6381,
      "duration": 0.0297,
      "velocity": 127,
      "chip": "ym2612"
    },
    {
      "channel": 1,
      "note": 59,
      "start": 33.721,
      "duration": 0.0801,
      "velocity": 91,
      "chip": "ym2612"
    },
    {
      "channel": 3,
      "note": 59,
      "start": 33.7542,
      "duration": 0.0137,
      "velocity": 87,
      "chip": "ym2612"
    },
    {
      "channel": 4,
      "note": 68,
      "start": 33.7578,
      "duration": 0.0434,
      "velocity": 127,
      "chip": "ym2612"
    },
    {
      "channel": 5,
      "note": 44,
      "start": 33.7607,
      "duration": 0.0407,
      "velocity": 119,
      "chip": "ym2612"
    },
    {
      "channel": 2,
      "note": 78,
      "start": 33.8215,
      "duration": 2.1964,
      "velocity": 96,
      "chip": "ym2612"
    },
    {
      "channel": 1,
      "note": 57,
      "start": 33.8244,
      "duration": 0.21,
      "velocity": 91,
      "chip": "ym2612"
    },
    {
      "channel": 3,
      "note": 59,
      "start": 33.8543,
      "duration": 0.3969,
      "velocity": 87,
      "chip": "ym2612"
    },
    {
      "channel": 0,
      "note": 83,
      "start": 33.857,
      "duration": 0.094,
      "velocity": 110,
      "chip": "ym2612"
    },
    {
      "channel": 5,
      "note": 44,
      "start": 33.8602,
      "duration": 0.0578,
      "velocity": 119,
      "chip": "ym2612"
    },
    {
      "channel": 0,
      "note": 83,
      "start": 33.9714,
      "duration": 0.0796,
      "velocity": 110,
      "chip": "ym2612"
    },
    {
      "channel": 1,
      "note": 59,
      "start": 34.0884,
      "duration": 0.0793,
      "velocity": 91,
      "chip": "ym2612"
    },
    {
      "channel": 4,
      "note": 68,
      "start": 34.0912,
      "duration": 0.06,
      "velocity": 127,
      "chip": "ym2612"
    },
    {
      "channel": 0,
      "note": 83,
      "start": 34.2041,
      "duration": 0.0802,
      "velocity": 110,
      "chip": "ym2612"
    },
    {
      "channel": 4,
      "note": 68,
      "start": 34.207,
      "duration": 0.0443,
      "velocity": 127,
      "chip": "ym2612"
    },
    {
      "channel": 0,
      "note": 83,
      "start": 34.4378,
      "duration": 0.0134,
      "velocity": 110,
      "chip": "ym2612"
    },
    {
      "channel": 3,
      "note": 71,
      "start": 34.5542,
      "duration": 0.0802,
      "velocity": 87,
      "chip": "ym2612"
    },
    {
      "channel": 0,
      "note": 83,
      "start": 34.557,
      "duration": 0.0607,
      "velocity": 110,
      "chip": "ym2612"
    },
    {
      "channel": 4,
      "note": 68,
      "start": 34.5599,
      "duration": 0.0412,
      "velocity": 127,
      "chip": "ym2612"
    },
    {
      "channel": 3,
      "note": 71,
      "start": 34.6545,
      "duration": 0.0466,
      "velocity": 87,
      "chip": "ym2612"
    },
    {
      "channel": 0,
      "note": 83,
      "start": 34.6574,
      "duration": 0.0936,
      "velocity": 110,
      "chip": "ym2612"
    },
    {
      "channel": 4,
      "note": 68,
      "start": 34.6603,
      "duration": 0.0576,
      "velocity": 127,
      "chip": "ym2612"
    },
    {
      "channel": 3,
      "note": 59,
      "start": 34.8874,
      "duration": 0.0305,
      "velocity": 87,
      "chip": "ym2612"
    },
    {
      "channel": 0,
      "note": 83,
      "start": 34.8903,
      "duration": 0.0274,
      "velocity": 110,
      "chip": "ym2612"
    },
    {
      "channel": 5,
      "note": 44,
      "start": 34.8936,
      "duration": 0.0245,
      "velocity": 119,
      "chip": "ym2612"
    },
    {
      "channel": 3,
      "note": 59,
      "start": 35.0041,
      "duration": 0.097,
      "velocity": 87,
      "chip": "ym2612"
    },
    {
      "channel": 0,
      "note": 83,
      "start": 35.0069,
      "duration": 0.0775,
      "velocity": 110,
      "chip": "ym2612"
    },
    {
      "channel": 4,
      "note": 68,
      "start": 35.0098,
      "duration": 0.0415,
      "velocity": 127,
      "chip": "ym2612"
    },
    {
      "channel": 5,
      "note": 44,
      "start": 35.0127,
      "duration": 0.0386,
      "velocity": 119,
      "chip": "ym2612"
    },
    {
      "channel": 0,
      "note": 83,
      "start": 35.1213,
      "duration": 0.0631,
      "velocity": 110,
      "chip": "ym2612"
    },
    {
      "channel": 4,
      "note": 68,
      "start": 35.1242,
      "duration": 0.0436,
      "velocity": 127,
      "chip": "ym2612"
    },
    {
      "channel": 3,
      "note": 66,
      "start": 35.2376,
      "duration": 0.0137,
      "velocity": 87,
      "chip": "ym2612"
    },
    {
      "channel": 3,
      "note": 59,
      "start": 35.3542,
      "duration": 0.1302,
      "velocity": 87,
      "chip": "ym2612"
    },
    {
      "channel": 0,
      "note": 83,
      "start": 35.357,
      "duration": 0.0441,
      "velocity": 110,
      "chip": "ym2612"
    },
    {
      "channel": 5,
      "note": 44,
      "start": 35.36,
      "duration": 0.0413,
      "velocity": 119,
      "chip": "ym2612"
    },
    {
      "channel": 4,
      "note": 68,
      "start": 35.4547,
      "duration": 0.0632,
      "velocity": 127,
      "chip": "ym2612"
    },
    {
      "channel": 0,
      "note": 83,
      "start": 35.5712,
      "duration": 0.0464,
      "velocity": 110,
      "chip": "ym2612"
    },
    {
      "channel": 4,
      "note": 68,
      "start": 35.5745,
      "duration": 0.06,
      "velocity": 127,
      "chip": "ym2612"
    },
    {
      "channel": 3,
      "note": 59,
      "start": 35.688,
      "duration": 0.3798,
      "velocity": 87,
      "chip": "ym2612"
    },
    {
      "channel": 5,
      "note": 44,
      "start": 35.6917,
      "duration": 0.0261,
      "velocity": 119,
      "chip": "ym2612"
    },
    {
      "channel": 4,
      "note": 68,
      "start": 35.9213,
      "duration": 0.0465,
      "velocity": 127,
      "chip": "ym2612"
    },
    {
      "channel": 4,
      "note": 68,
      "start": 36.038,
      "duration": 0.0465,
      "velocity": 127,
      "chip": "ym2612"
    },
    {
      "channel": 5,
      "note": 44,
      "start": 36.041,
      "duration": 0.0436,
      "velocity": 119,
      "chip": "ym2612"
    },
    {
      "channel": 4,
      "note": 68,
      "start": 36.3712,
      "duration": 0.0632,
      "velocity": 127,
      "chip": "ym2612"
    },
    {
      "channel": 4,
      "note": 68,
      "start": 36.4715,
      "duration": 0.0797,
      "velocity": 127,
      "chip": "ym2612"
    },
    {
      "channel": 1,
      "note": 61,
      "start": 36.5878,
      "duration": 0.0967,
      "velocity": 91,
      "chip": "ym2612"
    },
    {
      "channel": 3,
      "note": 61,
      "start": 36.6042,
      "duration": 0.3636,
      "velocity": 87,
      "chip": "ym2612"
    },
    {
      "channel": 0,
      "note": 90,
      "start": 36.6075,
      "duration": 0.2268,
      "velocity": 91,
      "chip": "ym2612"
    },
    {
      "channel": 4,
      "note": 68,
      "start": 36.6103,
      "duration": 0.0409,
      "velocity": 127,
      "chip": "ym2612"
    },
    {
      "channel": 5,
      "note": 44,
      "start": 36.6151,
      "duration": 0.0362,
      "velocity": 119,
      "chip": "ym2612"
    },
    {
      "channel": 1,
      "note": 61,
      "start": 36.7045,
      "duration": 0.1133,
      "velocity": 91,
      "chip": "ym2612"
    },
    {
      "channel": 4,
      "note": 68,
      "start": 36.7212,
      "duration": 0.0467,
      "velocity": 127,
      "chip": "ym2612"
    },
    {
      "channel": 2,
      "note": 85,
      "start": 36.8381,
      "duration": 0.0632,
      "velocity": 110,
      "chip": "ym2612"
    },
    {
      "channel": 4,
      "note": 68,
      "start": 36.8409,
      "duration": 0.0436,
      "velocity": 127,
      "chip": "ym2612"
    },
    {
      "channel": 1,
      "note": 61,
      "start": 36.9211,
      "duration": 0.0966,
      "velocity": 91,
      "chip": "ym2612"
    },
    {
      "channel": 2,
      "note": 85,
      "start": 36.9547,
      "duration": 0.03,
      "velocity": 110,
      "chip": "ym2612"
    },
    {
      "channel": 4,
      "note": 68,
      "start": 36.9581,
      "duration": 0.0264,
      "velocity": 127,
      "chip": "ym2612"
    },
    {
      "channel": 0,
      "note": 89,
      "start": 37.0546,
      "duration": 0.1797,
      "velocity": 91,
      "chip": "ym2612"
    },
    {
      "channel": 4,
      "note": 68,
      "start": 37.1549,
      "duration": 0.0797,
      "velocity": 127,
      "chip": "ym2612"
    },
    {
      "channel": 2,
      "note": 85,
      "start": 37.1714,
      "duration": 0.0633,
      "velocity": 110,
      "chip": "ym2612"
    },
    {
      "channel": 1,
      "note": 61,
      "start": 37.174,
      "duration": 0.0938,
      "velocity": 91,
      "chip": "ym2612"
    },
    {
      "channel": 0,
      "note": 90,
      "start": 37.2883,
      "duration": 0.1961,
      "velocity": 91,
      "chip": "ym2612"
    },
    {
      "channel": 4,
      "note": 68,
      "start": 37.2911,
      "duration": 0.0267,
      "velocity": 127,
      "chip": "ym2612"
    },
    {
      "channel": 3,
      "note": 61,
      "start": 37.4042,
      "duration": 0.0136,
      "velocity": 87,
      "chip": "ym2612"
    },
    {
      "channel": 1,
      "note": 61,
      "start": 37.407,
      "duration": 0.0941,
      "velocity": 91,
      "chip": "ym2612"
    },
    {
      "channel": 4,
      "note": 68,
      "start": 37.4096,
      "duration": 0.0249,
      "velocity": 127,
      "chip": "ym2612"
    },
    {
      "channel": 5,
      "note": 44,
      "start": 37.4124,
      "duration": 0.0388,
      "velocity": 119,
      "chip": "ym2612"
    },
    {
      "channel": 3,
      "note": 61,
      "start": 37.5209,
      "duration": 0.2302,
      "velocity": 87,
      "chip": "ym2612"
    },
    {
      "channel": 2,
      "note": 85,
      "start": 37.5245,
      "duration": 0.0601,
      "velocity": 110,
      "chip": "ym2612"
    },
    {
      "channel": 1,
      "note": 59,
      "start": 37.5276,
      "duration": 0.2402,
      "velocity": 91,
      "chip": "ym2612"
    },
    {
      "channel": 4,
      "note": 68,
      "start": 37.5302,
      "duration": 0.021,
      "velocity": 127,
      "chip": "ym2612"
    },
    {
      "channel": 5,
      "note": 44,
      "start": 37.5331,
      "duration": 0.0348,
      "velocity": 119,
      "chip": "ym2612"
    },
    {
      "channel": 2,
      "note": 85,
      "start": 37.638,
      "duration": 0.0466,
      "velocity": 110,
      "chip": "ym2612"
    },
    {
      "channel": 4,
      "note": 68,
      "start": 37.6409,
      "duration": 0.0435,
      "velocity": 127,
      "chip": "ym2612"
    },
    {
      "channel": 0,
      "note": 89,
      "start": 37.7545,
      "duration": 0.2299,
      "velocity": 91,
      "chip": "ym2612"
    },
    {
      "channel": 4,
      "note": 68,
      "start": 37.757,
      "duration": 0.0442,
      "velocity": 127,
      "chip": "ym2612"
    },
    {
      "channel": 1,
      "note": 61,
      "start": 37.788,
      "duration": 0.0631,
      "velocity": 91,
      "chip": "ym2612"
    },
    {
      "channel": 2,
      "note": 85,
      "start": 37.8548,
      "duration": 0.0798,
      "velocity": 110,
      "chip": "ym2612"
    },
    {
      "channel": 4,
      "note": 68,
      "start": 37.8577,
      "duration": 0.0601,
      "velocity": 127,
      "chip": "ym2612"
    },
    {
      "channel": 4,
      "note": 68,
      "start": 38.0884,
      "duration": 0.0629,
      "velocity": 127,
      "chip": "ym2612"
    },
    {
      "channel": 3,
      "note": 73,
      "start": 38.2041,
      "duration": 0.097,
      "velocity": 87,
      "chip": "ym2612"
    },
    {
      "channel": 2,
      "note": 85,
      "start": 38.2073,
      "duration": 0.094,
      "velocity": 110,
      "chip": "ym2612"
    },
    {
      "channel": 0,
      "note": 90,
      "start": 38.21,
      "duration": 0.2077,
      "velocity": 91,
      "chip": "ym2612"
    },
    {
      "channel": 4,
      "note": 68,
      "start": 38.2125,
      "duration": 0.0387,
      "velocity": 127,
      "chip": "ym2612"
    },
    {
      "channel": 3,
      "note": 73,
      "start": 38.3207,
      "duration": 0.0304,
      "velocity": 87,
      "chip": "ym2612"
    },
    {
      "channel": 2,
      "note": 85,
      "start": 38.3239,
      "duration": 0.0607,
      "velocity": 110,
      "chip": "ym2612"
    },
    {
      "channel": 4,
      "note": 68,
      "start": 38.3267,
      "duration": 0.0412,
      "velocity": 127,
      "chip": "ym2612"
    },
    {
      "channel": 3,
      "note": 61,
      "start": 38.4379,
      "duration": 0.3299,
      "velocity": 87,
      "chip": "ym2612"
    },
    {
      "channel": 4,
      "note": 68,
      "start": 38.4409,
      "duration": 0.0436,
      "velocity": 127,
      "chip": "ym2612"
    },
    {
      "channel": 5,
      "note": 44,
      "start": 38.4437,
      "duration": 0.0409,
      "velocity": 119,
      "chip": "ym2612"
    },
    {
      "channel": 4,
      "note": 68,
      "start": 38.5545,
      "duration": 0.0467,
      "velocity": 127,
      "chip": "ym2612"
    },
    {
      "channel": 2,
      "note": 85,
      "start": 38.6549,
      "duration": 0.0797,
      "velocity": 110,
      "chip": "ym2612"
    },
    {
      "channel": 0,
      "note": 89,
      "start": 38.6574,
      "duration": 0.2102,
      "velocity": 91,
      "chip": "ym2612"
    },
    {
      "channel": 4,
      "note": 68,
      "start": 38.6601,
      "duration": 0.041,
      "velocity": 127,
      "chip": "ym2612"
    },
    {
      "channel": 2,
      "note": 85,
      "start": 38.7712,
      "duration": 0.08,
      "velocity": 110,
      "chip": "ym2612"
    },
    {
      "channel": 4,
      "note": 68,
      "start": 38.7743,
      "duration": 0.0602,
      "velocity": 127,
      "chip": "ym2612"
    },
    {
      "channel": 2,
      "note": 85,
      "start": 39.0046,
      "duration": 0.08,
      "velocity": 110,
      "chip": "ym2612"
    },
    {
      "channel": 4,
      "note": 68,
      "start": 39.0075,
      "duration": 0.0437,
      "velocity": 127,
      "chip": "ym2612"
    },
    {
      "channel": 0,
      "note": 85,
      "start": 39.1212,
      "duration": 0.9466,
      "velocity": 91,
      "chip": "ym2612"
    },
    {
      "channel": 4,
      "note": 68,
      "start": 39.1237,
      "duration": 0.044,
      "velocity": 127,
      "chip": "ym2612"
    },
    {
      "channel": 3,
      "note": 61,
      "start": 39.2375,
      "duration": 0.0302,
      "velocity": 87,
      "chip": "ym2612"
    },
    {
      "channel": 4,
      "note": 68,
      "start": 39.2405,
      "duration": 0.0439,
      "velocity": 127,
      "chip": "ym2612"
    },
    {
      "channel": 5,
      "note": 44,
      "start": 39.2433,
      "duration": 0.0412,
      "velocity": 119,
      "chip": "ym2612"
    },
    {
      "channel": 3,
      "note": 61,
      "start": 39.3542,
      "duration": 0.0803,
      "velocity": 87,
      "chip": "ym2612"
    },
    {
      "channel": 2,
      "note": 85,
      "start": 39.3572,
      "duration": 0.0608,
      "velocity": 110,
      "chip": "ym2612"
    },
    {
      "channel": 4,
      "note": 68,
      "start": 39.36,
      "duration": 0.0412,
      "velocity": 127,
      "chip": "ym2612"
    },
    {
      "channel": 5,
      "note": 44,
      "start": 39.3628,
      "duration": 0.0385,
      "velocity": 119,
      "chip": "ym2612"
    },
    {
      "channel": 2,
      "note": 85,
      "start": 39.4547,
      "duration": 0.0632,
      "velocity": 110,
      "chip": "ym2612"
    },
    {
      "channel": 4,
      "note": 68,
      "start": 39.458,
      "duration": 0.0431,
      "velocity": 127,
      "chip": "ym2612"
    },
    {
      "channel": 3,
      "note": 61,
      "start": 39.5708,
      "duration": 0.1303,
      "velocity": 87,
      "chip": "ym2612"
    },
    {
      "channel": 4,
      "note": 68,
      "start": 39.5739,
      "duration": 0.0439,
      "velocity": 127,
      "chip": "ym2612"
    },
    {
      "channel": 5,
      "note": 44,
      "start": 39.5771,
      "duration": 0.0574,
      "velocity": 119,
      "chip": "ym2612"
    },
    {
      "channel": 4,
      "note": 68,
      "start": 39.6715,
      "duration": 0.0464,
      "velocity": 127,
      "chip": "ym2612"
    },
    {
      "channel": 2,
      "note": 85,
      "start": 39.688,
      "duration": 0.0799,
      "velocity": 110,
      "chip": "ym2612"
    },
    {
      "channel": 4,
      "note": 68,
      "start": 39.9048,
      "duration": 0.0631,
      "velocity": 127,
      "chip": "ym2612"
    },
    {
      "channel": 3,
      "note": 68,
      "start": 39.9207,
      "duration": 0.3137,
      "velocity": 87,
      "chip": "ym2612"
    },
    {
      "channel": 5,
      "note": 44,
      "start": 39.924,
      "duration": 0.044,
      "velocity": 119,
      "chip": "ym2612"
    },
    {
      "channel": 2,
      "note": 85,
      "start": 40.0381,
      "duration": 0.0798,
      "velocity": 110,
      "chip": "ym2612"
    },
    {
      "channel": 4,
      "note": 71,
      "start": 40.0411,
      "duration": 0.0434,
      "velocity": 127,
      "chip": "ym2612"
    },
    {
      "channel": 2,
      "note": 85,
      "start": 40.1551,
      "duration": 0.0629,
      "velocity": 110,
      "chip": "ym2612"
    },
    {
      "channel": 3,
      "note": 59,
      "start": 40.254,
      "duration": 0.3304,
      "velocity": 87,
      "chip": "ym2612"
    },
    {
      "channel": 1,
      "note": 59,
      "start": 40.257,
      "duration": 0.094,
      "velocity": 91,
      "chip": "ym2612"
    },
    {
      "channel": 0,
      "note": 88,
      "start": 40.2597,
      "duration": 0.2247,
      "velocity": 91,
      "chip": "ym2612"
    },
    {
      "channel": 4,
      "note": 68,
      "start": 40.2624,
      "duration": 0.0554,
      "velocity": 127,
      "chip": "ym2612"
    },
    {
      "channel": 5,
      "note": 44,
      "start": 40.2659,
      "duration": 0.052,
      "velocity": 119,
      "chip": "ym2612"
    },
    {
      "channel": 1,
      "note": 59,
      "start": 40.371,
      "duration": 0.0968,
      "velocity": 91,
      "chip": "ym2612"
    },
    {
      "channel": 4,
      "note": 68,
      "start": 40.3736,
      "duration": 0.0609,
      "velocity": 127,
      "chip": "ym2612"
    },
    {
      "channel": 2,
      "note": 83,
      "start": 40.4882,
      "duration": 0.0965,
      "velocity": 110,
      "chip": "ym2612"
    },
    {
      "channel": 4,
      "note": 68,
      "start": 40.491,
      "duration": 0.0602,
      "velocity": 127,
      "chip": "ym2612"
    },
    {
      "channel": 2,
      "note": 83,
      "start": 40.6046,
      "duration": 0.08,
      "velocity": 110,
      "chip": "ym2612"
    },
    {
      "channel": 1,
      "note": 59,
      "start": 40.6072,
      "duration": 0.0939,
      "velocity": 91,
      "chip": "ym2612"
    },
    {
      "channel": 4,
      "note": 68,
      "start": 40.6105,
      "duration": 0.0239,
      "velocity": 127,
      "chip": "ym2612"
    },
    {
      "channel": 0,
      "note": 87,
      "start": 40.7213,
      "duration": 0.1631,
      "velocity": 91,
      "chip": "ym2612"
    },
    {
      "channel": 1,
      "note": 59,
      "start": 40.821,
      "duration": 0.0801,
      "velocity": 91,
      "chip": "ym2612"
    },
    {
      "channel": 4,
      "note": 68,
      "start": 40.8239,
      "duration": 0.0607,
      "velocity": 127,
      "chip": "ym2612"
    },
    {
      "channel": 2,
      "note": 83,
      "start": 40.8381,
      "duration": 0.0798,
      "velocity": 110,
      "chip": "ym2612"
    },
    {
      "channel": 0,
      "note": 88,
      "start": 40.9549,
      "duration": 0.1462,
      "velocity": 91,
      "chip": "ym2612"
    },
    {
      "channel": 4,
      "note": 68,
      "start": 40.9577,
      "duration": 0.0267,
      "velocity": 127,
      "chip": "ym2612"
    },
    {
      "channel": 1,
      "note": 59,
      "start": 41.0382,
      "duration": 0.0795,
      "velocity": 91,
      "chip": "ym2612"
    },
    {
      "channel": 3,
      "note": 59,
      "start": 41.0545,
      "duration": 0.0299,
      "velocity": 87,
      "chip": "ym2612"
    },
    {
      "channel": 4,
      "note": 68,
      "start": 41.0575,
      "duration": 0.0438,
      "velocity": 127,
      "chip": "ym2612"
    },
    {
      "channel": 5,
      "note": 44,
      "start": 41.0603,
      "duration": 0.0576,
      "velocity": 119,
      "chip": "ym2612"
    },
    {
      "channel": 1,
      "note": 57,
      "start": 41.1378,
      "duration": 0.2133,
      "velocity": 91,
      "chip": "ym2612"
    },
    {
      "channel": 3,
      "note": 59,
      "start": 41.1708,
      "duration": 0.397,
      "velocity": 87,
      "chip": "ym2612"
    },
    {
      "channel": 2,
      "note": 83,
      "start": 41.1738,
      "duration": 0.0942,
      "velocity": 110,
      "chip": "ym2612"
    },
    {
      "channel": 4,
      "note": 68,
      "start": 41.1766,
      "duration": 0.0412,
      "velocity": 127,
      "chip": "ym2612"
    },
    {
      "channel": 5,
      "note": 44,
      "start": 41.1794,
      "duration": 0.0552,
      "velocity": 119,
      "chip": "ym2612"
    },
    {
      "channel": 2,
      "note": 83,
      "start": 41.2884,
      "duration": 0.0795,
      "velocity": 110,
      "chip": "ym2612"
    },
    {
      "channel": 4,
      "note": 68,
      "start": 41.2913,
      "duration": 0.06,
      "velocity": 127,
      "chip": "ym2612"
    },
    {
      "channel": 1,
      "note": 59,
      "start": 41.4045,
      "duration": 0.0798,
      "velocity": 91,
      "chip": "ym2612"
    },
    {
      "channel": 0,
      "note": 87,
      "start": 41.4071,
      "duration": 0.1606,
      "velocity": 91,
      "chip": "ym2612"
    },
    {
      "channel": 4,
      "note": 68,
      "start": 41.4096,
      "duration": 0.0415,
      "velocity": 127,
      "chip": "ym2612"
    },
    {
      "channel": 2,
      "note": 83,
      "start": 41.5211,
      "duration": 0.0634,
      "velocity": 110,
      "chip": "ym2612"
    },
    {
      "channel": 4,
      "note": 68,
      "start": 41.524,
      "duration": 0.0439,
      "velocity": 127,
      "chip": "ym2612"
    },
    {
      "channel": 2,
      "note": 83,
      "start": 41.7548,
      "duration": 0.0132,
      "velocity": 110,
      "chip": "ym2612"
    },
    {
      "channel": 4,
      "note": 68,
      "start": 41.7581,
      "duration": 0.0432,
      "velocity": 127,
      "chip": "ym2612"
    },
    {
      "channel": 3,
      "note": 71,
      "start": 41.8542,
      "duration": 0.0969,
      "velocity": 87,
      "chip": "ym2612"
    },
    {
      "channel": 2,
      "note": 83,
      "start": 41.8573,
      "duration": 0.0773,
      "velocity": 110,
      "chip": "ym2612"
    },
    {
      "channel": 0,
      "note": 88,
      "start": 41.8599,
      "duration": 0.1911,
      "velocity": 91,
      "chip": "ym2612"
    },
    {
      "channel": 4,
      "note": 68,
      "start": 41.8624,
      "duration": 0.0554,
      "velocity": 127,
      "chip": "ym2612"
    },
    {
      "channel": 3,
      "note": 71,
      "start": 41.9708,
      "duration": 0.0469,
      "velocity": 87,
      "chip": "ym2612"
    },
    {
      "channel": 2,
      "note": 83,
      "start": 41.974,
      "duration": 0.0939,
      "velocity": 110,
      "chip": "ym2612"
    },
    {
      "channel": 4,
      "note": 68,
      "start": 41.9767,
      "duration": 0.0577,
      "velocity": 127,
      "chip": "ym2612"
    },
    {
      "channel": 4,
      "note": 68,
      "start": 42.0878,
      "duration": 0.0634,
      "velocity": 127,
      "chip": "ym2612"
    },
    {
      "channel": 3,
      "note": 59,
      "start": 42.2041,
      "duration": 0.0304,
      "velocity": 87,
      "chip": "ym2612"
    },
    {
      "channel": 2,
      "note": 83,
      "start": 42.2073,
      "duration": 0.0275,
      "velocity": 110,
      "chip": "ym2612"
    },
    {
      "channel": 4,
      "note": 68,
      "start": 42.21,
      "duration": 0.0411,
      "velocity": 127,
      "chip": "ym2612"
    },
    {
      "channel": 5,
      "note": 44,
      "start": 42.213,
      "duration": 0.0216,
      "velocity": 119,
      "chip": "ym2612"
    },
    {
      "channel": 3,
      "note": 59,
      "start": 42.3208,
      "duration": 0.097,
      "velocity": 87,
      "chip": "ym2612"
    },
    {
      "channel": 2,
      "note": 83,
      "start": 42.3239,
      "duration": 0.0608,
      "velocity": 110,
      "chip": "ym2612"
    },
    {
      "channel": 0,
      "note": 87,
      "start": 42.3263,
      "duration": 0.1747,
      "velocity": 91,
      "chip": "ym2612"
    },
    {
      "channel": 4,
      "note": 68,
      "start": 42.329,
      "duration": 0.0222,
      "velocity": 127,
      "chip": "ym2612"
    },
    {
      "channel": 5,
      "note": 44,
      "start": 42.332,
      "duration": 0.0359,
      "velocity": 119,
      "chip": "ym2612"
    },
    {
      "channel": 2,
      "note": 83,
      "start": 42.4383,
      "duration": 0.0631,
      "velocity": 110,
      "chip": "ym2612"
    },
    {
      "channel": 4,
      "note": 68,
      "start": 42.4413,
      "duration": 0.0432,
      "velocity": 127,
      "chip": "ym2612"
    },
    {
      "channel": 3,
      "note": 66,
      "start": 42.5546,
      "duration": 0.0133,
      "velocity": 87,
      "chip": "ym2612"
    },
    {
      "channel": 3,
      "note": 59,
      "start": 42.6543,
      "duration": 0.1301,
      "velocity": 87,
      "chip": "ym2612"
    },
    {
      "channel": 2,
      "note": 83,
      "start": 42.6573,
      "duration": 0.0608,
      "velocity": 110,
      "chip": "ym2612"
    },
    {
      "channel": 4,
      "note": 68,
      "start": 42.6603,
      "duration": 0.0576,
      "velocity": 127,
      "chip": "ym2612"
    },
    {
      "channel": 5,
      "note": 44,
      "start": 42.663,
      "duration": 0.0551,
      "velocity": 119,
      "chip": "ym2612"
    },
    {
      "channel": 0,
      "note": 83,
      "start": 42.7712,
      "duration": 0.6631,
      "velocity": 91,
      "chip": "ym2612"
    },
    {
      "channel": 4,
      "note": 68,
      "start": 42.7737,
      "duration": 0.0608,
      "velocity": 127,
      "chip": "ym2612"
    },
    {
      "channel": 2,
      "note": 83,
      "start": 42.888,
      "duration": 0.0299,
      "velocity": 110,
      "chip": "ym2612"
    },
    {
      "channel": 4,
      "note": 68,
      "start": 42.8908,
      "duration": 0.0604,
      "velocity": 127,
      "chip": "ym2612"
    },
    {
      "channel": 3,
      "note": 59,
      "start": 43.0041,
      "duration": 0.3804,
      "velocity": 87,
      "chip": "ym2612"
    },
    {
      "channel": 4,
      "note": 68,
      "start": 43.0071,
      "duration": 0.044,
      "velocity": 127,
      "chip": "ym2612"
    },
    {
      "channel": 5,
      "note": 44,
      "start": 43.0103,
      "duration": 0.0242,
      "velocity": 119,
      "chip": "ym2612"
    },
    {
      "channel": 4,
      "note": 68,
      "start": 43.1217,
      "duration": 0.0295,
      "velocity": 127,
      "chip": "ym2612"
    },
    {
      "channel": 4,
      "note": 68,
      "start": 43.238,
      "duration": 0.0298,
      "velocity": 127,
      "chip": "ym2612"
    },
    {
      "channel": 4,
      "note": 68,
      "start": 43.3215,
      "duration": 0.0632,
      "velocity": 127,
      "chip": "ym2612"
    },
    {
      "channel": 5,
      "note": 44,
      "start": 43.3551,
      "duration": 0.0462,
      "velocity": 119,
      "chip": "ym2612"
    },
    {
      "channel": 4,
      "note": 68,
      "start": 43.5549,
      "duration": 0.0797,
      "velocity": 127,
      "chip": "ym2612"
    },
    {
      "channel": 1,
      "note": 53,
      "start": 43.6711,
      "duration": 0.23,
      "velocity": 91,
      "chip": "ym2612"
    },
    {
      "channel": 4,
      "note": 71,
      "start": 43.6881,
      "duration": 0.0631,
      "velocity": 127,
      "chip": "ym2612"
    }
  ]
}