{
  "track_name": "03 - Music Test 4",
  "duration_sec": 42.595,
  "sample_rate": 44100,
  "note_count": 858,
  "unique_pitches": 42,
  "pitch_range": 65,
  "avg_note_duration": 0.1586,
  "reconstruction_stats": {
    "notes_reconstructed": 858,
    "keyon_events": 858,
    "keyoff_events": 840,
    "orphan_keyons": 0,
    "unique_pitches": 42,
    "pitch_range": 65,
    "avg_duration_sec": 0.1586
  },
  "metadata": {
    "source": "W\\World Cup USA 94\\03 - Music Test 4.vgz"
  },
  "notes": [
    {
      "channel": 0,
      "note": 26,
      "start": 0.0022,
      "duration": 0.3475,
      "velocity": 125,
      "chip": "ym2612"
    },
    {
      "channel": 1,
      "note": 70,
      "start": 0.0054,
      "duration": 0.4508,
      "velocity": 127,
      "chip": "ym2612"
    },
    {
      "channel": 0,
      "note": 26,
      "start": 0.3623,
      "duration": 0.0928,
      "velocity": 125,
      "chip": "ym2612"
    },
    {
      "channel": 0,
      "note": 26,
      "start": 0.468,
      "duration": 0.0925,
      "velocity": 125,
      "chip": "ym2612"
    },
    {
      "channel": 1,
      "note": 43,
      "start": 0.4709,
      "duration": 2.3026,
      "velocity": 113,
      "chip": "ym2612"
    },
    {
      "channel": 2,
      "note": 76,
      "start": 0.4763,
      "duration": 0.0853,
      "velocity": 110,
      "chip": "ym2612"
    },
    {
      "channel": 5,
      "note": 46,
      "start": 0.485,
      "duration": 0.1417,
      "velocity": 101,
      "chip": "ym2612"
    },
    {
      "channel": 0,
      "note": 26,
      "start": 0.5735,
      "duration": 0.0922,
      "velocity": 1,
      "chip": "ym2612"
    },
    {
      "channel": 0,
      "note": 26,
      "start": 0.6783,
      "duration": 0.0928,
      "velocity": 1,
      "chip": "ym2612"
    },
    {
      "channel": 5,
      "note": 41,
      "start": 0.6817,
      "duration": 0.0398,
      "velocity": 101,
      "chip": "ym2612"
    },
    {
      "channel": 0,
      "note": 26,
      "start": 0.7836,
      "duration": 0.0928,
      "velocity": 1,
      "chip": "ym2612"
    },
    {
      "channel": 0,
      "note": 26,
      "start": 0.8895,
      "duration": 0.1976,
      "velocity": 125,
      "chip": "ym2612"
    },
    {
      "channel": 2,
      "note": 76,
      "start": 0.891,
      "duration": 0.092,
      "velocity": 110,
      "chip": "ym2612"
    },
    {
      "channel": 3,
      "note": 75,
      "start": 0.8919,
      "duration": 0.5762,
      "velocity": 94,
      "chip": "ym2612"
    },
    {
      "channel": 5,
      "note": 44,
      "start": 0.8935,
      "duration": 0.302,
      "velocity": 101,
      "chip": "ym2612"
    },
    {
      "channel": 0,
      "note": 26,
      "start": 1.0996,
      "duration": 0.0928,
      "velocity": 125,
      "chip": "ym2612"
    },
    {
      "channel": 0,
      "note": 26,
      "start": 1.205,
      "duration": 0.0927,
      "velocity": 1,
      "chip": "ym2612"
    },
    {
      "channel": 4,
      "note": 75,
      "start": 1.2082,
      "duration": 0.5765,
      "velocity": 94,
      "chip": "ym2612"
    },
    {
      "channel": 0,
      "note": 26,
      "start": 1.3102,
      "duration": 0.0928,
      "velocity": 125,
      "chip": "ym2612"
    },
    {
      "channel": 2,
      "note": 76,
      "start": 1.3118,
      "duration": 0.0925,
      "velocity": 110,
      "chip": "ym2612"
    },
    {
      "channel": 0,
      "note": 26,
      "start": 1.4156,
      "duration": 0.3035,
      "velocity": 1,
      "chip": "ym2612"
    },
    {
      "channel": 2,
      "note": 78,
      "start": 1.5227,
      "duration": 0.0922,
      "velocity": 111,
      "chip": "ym2612"
    },
    {
      "channel": 3,
      "note": 70,
      "start": 1.5237,
      "duration": 0.0603,
      "velocity": 94,
      "chip": "ym2612"
    },
    {
      "channel": 5,
      "note": 39,
      "start": 1.5253,
      "duration": 0.3023,
      "velocity": 101,
      "chip": "ym2612"
    },
    {
      "channel": 0,
      "note": 26,
      "start": 1.7316,
      "duration": 0.3034,
      "velocity": 125,
      "chip": "ym2612"
    },
    {
      "channel": 2,
      "note": 76,
      "start": 1.7332,
      "duration": 0.0925,
      "velocity": 110,
      "chip": "ym2612"
    },
    {
      "channel": 3,
      "note": 70,
      "start": 1.7341,
      "duration": 0.1241,
      "velocity": 94,
      "chip": "ym2612"
    },
    {
      "channel": 4,
      "note": 70,
      "start": 1.8378,
      "duration": 0.0628,
      "velocity": 94,
      "chip": "ym2612"
    },
    {
      "channel": 3,
      "note": 68,
      "start": 1.9424,
      "duration": 0.0735,
      "velocity": 94,
      "chip": "ym2612"
    },
    {
      "channel": 5,
      "note": 41,
      "start": 1.944,
      "duration": 0.0943,
      "velocity": 101,
      "chip": "ym2612"
    },
    {
      "channel": 0,
      "note": 26,
      "start": 2.0477,
      "duration": 0.0927,
      "velocity": 1,
      "chip": "ym2612"
    },
    {
      "channel": 4,
      "note": 70,
      "start": 2.0504,
      "duration": 0.1246,
      "velocity": 94,
      "chip": "ym2612"
    },
    {
      "channel": 0,
      "note": 26,
      "start": 2.1529,
      "duration": 0.0928,
      "velocity": 125,
      "chip": "ym2612"
    },
    {
      "channel": 2,
      "note": 76,
      "start": 2.1545,
      "duration": 0.0925,
      "velocity": 110,
      "chip": "ym2612"
    },
    {
      "channel": 3,
      "note": 70,
      "start": 2.1559,
      "duration": 0.3234,
      "velocity": 94,
      "chip": "ym2612"
    },
    {
      "channel": 5,
      "note": 46,
      "start": 2.1575,
      "duration": 0.1967,
      "velocity": 101,
      "chip": "ym2612"
    },
    {
      "channel": 0,
      "note": 26,
      "start": 2.2585,
      "duration": 0.0926,
      "velocity": 1,
      "chip": "ym2612"
    },
    {
      "channel": 4,
      "note": 68,
      "start": 2.2614,
      "duration": 0.0711,
      "velocity": 94,
      "chip": "ym2612"
    },
    {
      "channel": 0,
      "note": 26,
      "start": 2.3636,
      "duration": 0.0929,
      "velocity": 1,
      "chip": "ym2612"
    },
    {
      "channel": 0,
      "note": 26,
      "start": 2.469,
      "duration": 0.0928,
      "velocity": 1,
      "chip": "ym2612"
    },
    {
      "channel": 4,
      "note": 70,
      "start": 2.4718,
      "duration": 0.3242,
      "velocity": 94,
      "chip": "ym2612"
    },
    {
      "channel": 0,
      "note": 26,
      "start": 2.5748,
      "duration": 0.1981,
      "velocity": 125,
      "chip": "ym2612"
    },
    {
      "channel": 2,
      "note": 76,
      "start": 2.5763,
      "duration": 0.0919,
      "velocity": 110,
      "chip": "ym2612"
    },
    {
      "channel": 3,
      "note": 72,
      "start": 2.5773,
      "duration": 0.1232,
      "velocity": 94,
      "chip": "ym2612"
    },
    {
      "channel": 5,
      "note": 46,
      "start": 2.5789,
      "duration": 0.1972,
      "velocity": 101,
      "chip": "ym2612"
    },
    {
      "channel": 0,
      "note": 26,
      "start": 2.7849,
      "duration": 0.0928,
      "velocity": 125,
      "chip": "ym2612"
    },
    {
      "channel": 1,
      "note": 45,
      "start": 2.7859,
      "duration": 0.1978,
      "velocity": 113,
      "chip": "ym2612"
    },
    {
      "channel": 0,
      "note": 26,
      "start": 2.8908,
      "duration": 0.5137,
      "velocity": 1,
      "chip": "ym2612"
    },
    {
      "channel": 4,
      "note": 72,
      "start": 2.8936,
      "duration": 0.1236,
      "velocity": 94,
      "chip": "ym2612"
    },
    {
      "channel": 5,
      "note": 39,
      "start": 2.8945,
      "duration": 0.0706,
      "velocity": 101,
      "chip": "ym2612"
    },
    {
      "channel": 1,
      "note": 45,
      "start": 2.9945,
      "duration": 0.1999,
      "velocity": 113,
      "chip": "ym2612"
    },
    {
      "channel": 2,
      "note": 76,
      "start": 2.9954,
      "duration": 0.0947,
      "velocity": 110,
      "chip": "ym2612"
    },
    {
      "channel": 5,
      "note": 41,
      "start": 2.9976,
      "duration": 0.0945,
      "velocity": 101,
      "chip": "ym2612"
    },
    {
      "channel": 1,
      "note": 45,
      "start": 3.2051,
      "duration": 0.2526,
      "velocity": 113,
      "chip": "ym2612"
    },
    {
      "channel": 2,
      "note": 78,
      "start": 3.2084,
      "duration": 0.0919,
      "velocity": 111,
      "chip": "ym2612"
    },
    {
      "channel": 5,
      "note": 39,
      "start": 3.2106,
      "duration": 0.06,
      "velocity": 101,
      "chip": "ym2612"
    },
    {
      "channel": 0,
      "note": 26,
      "start": 3.417,
      "duration": 0.3034,
      "velocity": 125,
      "chip": "ym2612"
    },
    {
      "channel": 2,
      "note": 76,
      "start": 3.4185,
      "duration": 0.0924,
      "velocity": 110,
      "chip": "ym2612"
    },
    {
      "channel": 5,
      "note": 44,
      "start": 3.4207,
      "duration": 0.1975,
      "velocity": 101,
      "chip": "ym2612"
    },
    {
      "channel": 0,
      "note": 26,
      "start": 3.733,
      "duration": 0.0928,
      "velocity": 1,
      "chip": "ym2612"
    },
    {
      "channel": 0,
      "note": 26,
      "start": 3.8383,
      "duration": 0.0928,
      "velocity": 125,
      "chip": "ym2612"
    },
    {
      "channel": 2,
      "note": 76,
      "start": 3.8403,
      "duration": 0.092,
      "velocity": 110,
      "chip": "ym2612"
    },
    {
      "channel": 5,
      "note": 46,
      "start": 3.8426,
      "duration": 0.1443,
      "velocity": 101,
      "chip": "ym2612"
    },
    {
      "channel": 0,
      "note": 26,
      "start": 3.9437,
      "duration": 0.0928,
      "velocity": 1,
      "chip": "ym2612"
    },
    {
      "channel": 0,
      "note": 26,
      "start": 4.049,
      "duration": 0.0927,
      "velocity": 1,
      "chip": "ym2612"
    },
    {
      "channel": 5,
      "note": 39,
      "start": 4.0524,
      "duration": 0.0926,
      "velocity": 101,
      "chip": "ym2612"
    },
    {
      "channel": 0,
      "note": 26,
      "start": 4.1543,
      "duration": 0.0928,
      "velocity": 1,
      "chip": "ym2612"
    },
    {
      "channel": 0,
      "note": 26,
      "start": 4.2596,
      "duration": 0.1982,
      "velocity": 125,
      "chip": "ym2612"
    },
    {
      "channel": 2,
      "note": 76,
      "start": 4.2612,
      "duration": 0.0924,
      "velocity": 110,
      "chip": "ym2612"
    },
    {
      "channel": 3,
      "note": 75,
      "start": 4.2622,
      "duration": 0.5977,
      "velocity": 94,
      "chip": "ym2612"
    },
    {
      "channel": 5,
      "note": 41,
      "start": 4.2637,
      "duration": 0.2498,
      "velocity": 101,
      "chip": "ym2612"
    },
    {
      "channel": 0,
      "note": 26,
      "start": 4.4703,
      "duration": 0.0928,
      "velocity": 125,
      "chip": "ym2612"
    },
    {
      "channel": 0,
      "note": 26,
      "start": 4.5756,
      "duration": 0.0928,
      "velocity": 1,
      "chip": "ym2612"
    },
    {
      "channel": 4,
      "note": 75,
      "start": 4.5784,
      "duration": 0.598,
      "velocity": 94,
      "chip": "ym2612"
    },
    {
      "channel": 0,
      "note": 26,
      "start": 4.681,
      "duration": 0.0928,
      "velocity": 125,
      "chip": "ym2612"
    },
    {
      "channel": 2,
      "note": 76,
      "start": 4.6825,
      "duration": 0.0925,
      "velocity": 110,
      "chip": "ym2612"
    },
    {
      "channel": 0,
      "note": 26,
      "start": 4.7863,
      "duration": 0.3035,
      "velocity": 1,
      "chip": "ym2612"
    },
    {
      "channel": 2,
      "note": 78,
      "start": 4.8931,
      "duration": 0.0925,
      "velocity": 111,
      "chip": "ym2612"
    },
    {
      "channel": 3,
      "note": 70,
      "start": 4.894,
      "duration": 0.0606,
      "velocity": 94,
      "chip": "ym2612"
    },
    {
      "channel": 5,
      "note": 39,
      "start": 4.8956,
      "duration": 0.3027,
      "velocity": 101,
      "chip": "ym2612"
    },
    {
      "channel": 0,
      "note": 26,
      "start": 5.1023,
      "duration": 0.304,
      "velocity": 125,
      "chip": "ym2612"
    },
    {
      "channel": 2,
      "note": 76,
      "start": 5.1039,
      "duration": 0.0924,
      "velocity": 110,
      "chip": "ym2612"
    },
    {
      "channel": 3,
      "note": 70,
      "start": 5.1049,
      "duration": 0.1869,
      "velocity": 94,
      "chip": "ym2612"
    },
    {
      "channel": 4,
      "note": 70,
      "start": 5.209,
      "duration": 0.0623,
      "velocity": 94,
      "chip": "ym2612"
    },
    {
      "channel": 3,
      "note": 68,
      "start": 5.3131,
      "duration": 0.063,
      "velocity": 94,
      "chip": "ym2612"
    },
    {
      "channel": 0,
      "note": 26,
      "start": 5.4183,
      "duration": 0.0928,
      "velocity": 1,
      "chip": "ym2612"
    },
    {
      "channel": 4,
      "note": 70,
      "start": 5.4211,
      "duration": 0.1877,
      "velocity": 94,
      "chip": "ym2612"
    },
    {
      "channel": 0,
      "note": 26,
      "start": 5.5242,
      "duration": 0.0922,
      "velocity": 125,
      "chip": "ym2612"
    },
    {
      "channel": 2,
      "note": 76,
      "start": 5.5257,
      "duration": 0.092,
      "velocity": 110,
      "chip": "ym2612"
    },
    {
      "channel": 3,
      "note": 70,
      "start": 5.5267,
      "duration": 0.1759,
      "velocity": 94,
      "chip": "ym2612"
    },
    {
      "channel": 5,
      "note": 46,
      "start": 5.5283,
      "duration": 0.1972,
      "velocity": 101,
      "chip": "ym2612"
    },
    {
      "channel": 0,
      "note": 26,
      "start": 5.629,
      "duration": 0.0928,
      "velocity": 1,
      "chip": "ym2612"
    },
    {
      "channel": 4,
      "note": 68,
      "start": 5.6319,
      "duration": 0.0607,
      "velocity": 94,
      "chip": "ym2612"
    },
    {
      "channel": 0,
      "note": 26,
      "start": 5.7343,
      "duration": 0.0928,
      "velocity": 1,
      "chip": "ym2612"
    },
    {
      "channel": 0,
      "note": 26,
      "start": 5.8402,
      "duration": 0.0923,
      "velocity": 1,
      "chip": "ym2612"
    },
    {
      "channel": 4,
      "note": 70,
      "start": 5.8429,
      "duration": 0.1762,
      "velocity": 94,
      "chip": "ym2612"
    },
    {
      "channel": 0,
      "note": 26,
      "start": 5.945,
      "duration": 0.1982,
      "velocity": 125,
      "chip": "ym2612"
    },
    {
      "channel": 2,
      "note": 76,
      "start": 5.9465,
      "duration": 0.093,
      "velocity": 110,
      "chip": "ym2612"
    },
    {
      "channel": 5,
      "note": 46,
      "start": 5.9487,
      "duration": 0.2291,
      "velocity": 101,
      "chip": "ym2612"
    },
    {
      "channel": 0,
      "note": 26,
      "start": 6.1562,
      "duration": 0.0923,
      "velocity": 125,
      "chip": "ym2612"
    },
    {
      "channel": 1,
      "note": 45,
      "start": 6.1571,
      "duration": 0.1973,
      "velocity": 113,
      "chip": "ym2612"
    },
    {
      "channel": 0,
      "note": 26,
      "start": 6.261,
      "duration": 0.5141,
      "velocity": 1,
      "chip": "ym2612"
    },
    {
      "channel": 5,
      "note": 39,
      "start": 6.2644,
      "duration": 0.0715,
      "velocity": 101,
      "chip": "ym2612"
    },
    {
      "channel": 1,
      "note": 45,
      "start": 6.3651,
      "duration": 0.1999,
      "velocity": 113,
      "chip": "ym2612"
    },
    {
      "channel": 2,
      "note": 76,
      "start": 6.3661,
      "duration": 0.0942,
      "velocity": 110,
      "chip": "ym2612"
    },
    {
      "channel": 5,
      "note": 41,
      "start": 6.3683,
      "duration": 0.0413,
      "velocity": 101,
      "chip": "ym2612"
    },
    {
      "channel": 1,
      "note": 45,
      "start": 6.5758,
      "duration": 0.6213,
      "velocity": 113,
      "chip": "ym2612"
    },
    {
      "channel": 5,
      "note": 49,
      "start": 6.5786,
      "duration": 0.179,
      "velocity": 101,
      "chip": "ym2612"
    },
    {
      "channel": 0,
      "note": 26,
      "start": 6.7877,
      "duration": 0.0928,
      "velocity": 125,
      "chip": "ym2612"
    },
    {
      "channel": 2,
      "note": 76,
      "start": 6.7897,
      "duration": 0.092,
      "velocity": 110,
      "chip": "ym2612"
    },
    {
      "channel": 5,
      "note": 48,
      "start": 6.7919,
      "duration": 0.1232,
      "velocity": 101,
      "chip": "ym2612"
    },
    {
      "channel": 0,
      "note": 26,
      "start": 6.893,
      "duration": 0.1981,
      "velocity": 125,
      "chip": "ym2612"
    },
    {
      "channel": 2,
      "note": 78,
      "start": 6.9996,
      "duration": 0.0927,
      "velocity": 111,
      "chip": "ym2612"
    },
    {
      "channel": 5,
      "note": 44,
      "start": 7.0018,
      "duration": 0.0925,
      "velocity": 101,
      "chip": "ym2612"
    },
    {
      "channel": 0,
      "note": 26,
      "start": 7.1036,
      "duration": 0.0928,
      "velocity": 1,
      "chip": "ym2612"
    },
    {
      "channel": 0,
      "note": 26,
      "start": 7.2091,
      "duration": 0.0927,
      "velocity": 125,
      "chip": "ym2612"
    },
    {
      "channel": 1,
      "note": 43,
      "start": 7.2118,
      "duration": 2.3026,
      "velocity": 113,
      "chip": "ym2612"
    },
    {
      "channel": 2,
      "note": 76,
      "start": 7.2166,
      "duration": 0.0865,
      "velocity": 110,
      "chip": "ym2612"
    },
    {
      "channel": 5,
      "note": 46,
      "start": 7.2251,
      "duration": 0.143,
      "velocity": 101,
      "chip": "ym2612"
    },
    {
      "channel": 0,
      "note": 26,
      "start": 7.3143,
      "duration": 0.0928,
      "velocity": 1,
      "chip": "ym2612"
    },
    {
      "channel": 0,
      "note": 26,
      "start": 7.4197,
      "duration": 0.0928,
      "velocity": 1,
      "chip": "ym2612"
    },
    {
      "channel": 5,
      "note": 41,
      "start": 7.4235,
      "duration": 0.0394,
      "velocity": 101,
      "chip": "ym2612"
    },
    {
      "channel": 0,
      "note": 26,
      "start": 7.5251,
      "duration": 0.0927,
      "velocity": 1,
      "chip": "ym2612"
    },
    {
      "channel": 0,
      "note": 26,
      "start": 7.6304,
      "duration": 0.1981,
      "velocity": 125,
      "chip": "ym2612"
    },
    {
      "channel": 2,
      "note": 76,
      "start": 7.6319,
      "duration": 0.0925,
      "velocity": 110,
      "chip": "ym2612"
    },
    {
      "channel": 3,
      "note": 75,
      "start": 7.6328,
      "duration": 0.5766,
      "velocity": 94,
      "chip": "ym2612"
    },
    {
      "channel": 5,
      "note": 44,
      "start": 7.6344,
      "duration": 0.3025,
      "velocity": 101,
      "chip": "ym2612"
    },
    {
      "channel": 0,
      "note": 26,
      "start": 7.8415,
      "duration": 0.0923,
      "velocity": 125,
      "chip": "ym2612"
    },
    {
      "channel": 0,
      "note": 26,
      "start": 7.9463,
      "duration": 0.0933,
      "velocity": 1,
      "chip": "ym2612"
    },
    {
      "channel": 4,
      "note": 75,
      "start": 7.9491,
      "duration": 0.577,
      "velocity": 94,
      "chip": "ym2612"
    },
    {
      "channel": 0,
      "note": 26,
      "start": 8.0517,
      "duration": 0.0928,
      "velocity": 125,
      "chip": "ym2612"
    },
    {
      "channel": 2,
      "note": 76,
      "start": 8.0532,
      "duration": 0.0925,
      "velocity": 110,
      "chip": "ym2612"
    },
    {
      "channel": 0,
      "note": 26,
      "start": 8.1575,
      "duration": 0.3029,
      "velocity": 1,
      "chip": "ym2612"
    },
    {
      "channel": 2,
      "note": 78,
      "start": 8.2636,
      "duration": 0.0932,
      "velocity": 111,
      "chip": "ym2612"
    },
    {
      "channel": 3,
      "note": 70,
      "start": 8.2645,
      "duration": 0.0609,
      "velocity": 94,
      "chip": "ym2612"
    },
    {
      "channel": 5,
      "note": 39,
      "start": 8.2661,
      "duration": 0.3029,
      "velocity": 101,
      "chip": "ym2612"
    },
    {
      "channel": 0,
      "note": 26,
      "start": 8.4735,
      "duration": 0.303,
      "velocity": 125,
      "chip": "ym2612"
    },
    {
      "channel": 2,
      "note": 76,
      "start": 8.4751,
      "duration": 0.0919,
      "velocity": 110,
      "chip": "ym2612"
    },
    {
      "channel": 3,
      "note": 70,
      "start": 8.476,
      "duration": 0.1232,
      "velocity": 94,
      "chip": "ym2612"
    },
    {
      "channel": 4,
      "note": 70,
      "start": 8.5791,
      "duration": 0.0631,
      "velocity": 94,
      "chip": "ym2612"
    },
    {
      "channel": 3,
      "note": 68,
      "start": 8.6837,
      "duration": 0.074,
      "velocity": 94,
      "chip": "ym2612"
    },
    {
      "channel": 5,
      "note": 41,
      "start": 8.6853,
      "duration": 0.0944,
      "velocity": 101,
      "chip": "ym2612"
    },
    {
      "channel": 0,
      "note": 26,
      "start": 8.7895,
      "duration": 0.0923,
      "velocity": 1,
      "chip": "ym2612"
    },
    {
      "channel": 4,
      "note": 70,
      "start": 8.7922,
      "duration": 0.1236,
      "velocity": 94,
      "chip": "ym2612"
    },
    {
      "channel": 0,
      "note": 26,
      "start": 8.8944,
      "duration": 0.0928,
      "velocity": 125,
      "chip": "ym2612"
    },
    {
      "channel": 2,
      "note": 76,
      "start": 8.8959,
      "duration": 0.0925,
      "velocity": 110,
      "chip": "ym2612"
    },
    {
      "channel": 3,
      "note": 70,
      "start": 8.8968,
      "duration": 0.3239,
      "velocity": 94,
      "chip": "ym2612"
    },
    {
      "channel": 5,
      "note": 46,
      "start": 8.8984,
      "duration": 0.1972,
      "velocity": 101,
      "chip": "ym2612"
    },
    {
      "channel": 0,
      "note": 26,
      "start": 8.9997,
      "duration": 0.0928,
      "velocity": 1,
      "chip": "ym2612"
    },
    {
      "channel": 4,
      "note": 68,
      "start": 9.0026,
      "duration": 0.0717,
      "velocity": 94,
      "chip": "ym2612"
    },
    {
      "channel": 0,
      "note": 26,
      "start": 9.105,
      "duration": 0.0927,
      "velocity": 1,
      "chip": "ym2612"
    },
    {
      "channel": 0,
      "note": 26,
      "start": 9.2103,
      "duration": 0.0928,
      "velocity": 1,
      "chip": "ym2612"
    },
    {
      "channel": 4,
      "note": 70,
      "start": 9.2131,
      "duration": 0.3242,
      "velocity": 94,
      "chip": "ym2612"
    },
    {
      "channel": 0,
      "note": 26,
      "start": 9.3157,
      "duration": 0.1981,
      "velocity": 125,
      "chip": "ym2612"
    },
    {
      "channel": 2,
      "note": 76,
      "start": 9.3173,
      "duration": 0.0924,
      "velocity": 110,
      "chip": "ym2612"
    },
    {
      "channel": 3,
      "note": 72,
      "start": 9.3182,
      "duration": 0.1237,
      "velocity": 94,
      "chip": "ym2612"
    },
    {
      "channel": 5,
      "note": 46,
      "start": 9.3198,
      "duration": 0.1972,
      "velocity": 101,
      "chip": "ym2612"
    },
    {
      "channel": 0,
      "note": 26,
      "start": 9.5263,
      "duration": 0.0928,
      "velocity": 125,
      "chip": "ym2612"
    },
    {
      "channel": 1,
      "note": 45,
      "start": 9.5272,
      "duration": 0.1978,
      "velocity": 113,
      "chip": "ym2612"
    },
    {
      "channel": 0,
      "note": 26,
      "start": 9.6317,
      "duration": 0.5141,
      "velocity": 1,
      "chip": "ym2612"
    },
    {
      "channel": 4,
      "note": 72,
      "start": 9.6345,
      "duration": 0.1244,
      "velocity": 94,
      "chip": "ym2612"
    },
    {
      "channel": 5,
      "note": 39,
      "start": 9.6354,
      "duration": 0.0716,
      "velocity": 101,
      "chip": "ym2612"
    },
    {
      "channel": 1,
      "note": 45,
      "start": 9.7358,
      "duration": 0.1999,
      "velocity": 113,
      "chip": "ym2612"
    },
    {
      "channel": 2,
      "note": 76,
      "start": 9.7368,
      "duration": 0.0942,
      "velocity": 110,
      "chip": "ym2612"
    },
    {
      "channel": 5,
      "note": 41,
      "start": 9.7395,
      "duration": 0.0934,
      "velocity": 101,
      "chip": "ym2612"
    },
    {
      "channel": 1,
      "note": 45,
      "start": 9.9465,
      "duration": 0.2525,
      "velocity": 113,
      "chip": "ym2612"
    },
    {
      "channel": 2,
      "note": 78,
      "start": 9.9493,
      "duration": 0.0924,
      "velocity": 111,
      "chip": "ym2612"
    },
    {
      "channel": 5,
      "note": 39,
      "start": 9.9515,
      "duration": 0.0605,
      "velocity": 101,
      "chip": "ym2612"
    },
    {
      "channel": 0,
      "note": 26,
      "start": 10.1585,
      "duration": 0.3034,
      "velocity": 125,
      "chip": "ym2612"
    },
    {
      "channel": 2,
      "note": 76,
      "start": 10.16,
      "duration": 0.0924,
      "velocity": 110,
      "chip": "ym2612"
    },
    {
      "channel": 5,
      "note": 44,
      "start": 10.1622,
      "duration": 0.1974,
      "velocity": 101,
      "chip": "ym2612"
    },
    {
      "channel": 0,
      "note": 26,
      "start": 10.4748,
      "duration": 0.0923,
      "velocity": 1,
      "chip": "ym2612"
    },
    {
      "channel": 0,
      "note": 26,
      "start": 10.5797,
      "duration": 0.0932,
      "velocity": 125,
      "chip": "ym2612"
    },
    {
      "channel": 2,
      "note": 76,
      "start": 10.5812,
      "duration": 0.093,
      "velocity": 110,
      "chip": "ym2612"
    },
    {
      "channel": 5,
      "note": 46,
      "start": 10.5835,
      "duration": 0.1448,
      "velocity": 101,
      "chip": "ym2612"
    },
    {
      "channel": 0,
      "note": 26,
      "start": 10.685,
      "duration": 0.0928,
      "velocity": 1,
      "chip": "ym2612"
    },
    {
      "channel": 0,
      "note": 26,
      "start": 10.7909,
      "duration": 0.0923,
      "velocity": 1,
      "chip": "ym2612"
    },
    {
      "channel": 5,
      "note": 39,
      "start": 10.7943,
      "duration": 0.092,
      "velocity": 101,
      "chip": "ym2612"
    },
    {
      "channel": 0,
      "note": 26,
      "start": 10.8957,
      "duration": 0.0928,
      "velocity": 1,
      "chip": "ym2612"
    },
    {
      "channel": 0,
      "note": 26,
      "start": 11.001,
      "duration": 0.1982,
      "velocity": 125,
      "chip": "ym2612"
    },
    {
      "channel": 2,
      "note": 76,
      "start": 11.0026,
      "duration": 0.0925,
      "velocity": 110,
      "chip": "ym2612"
    },
    {
      "channel": 3,
      "note": 75,
      "start": 11.0035,
      "duration": 0.5978,
      "velocity": 94,
      "chip": "ym2612"
    },
    {
      "channel": 5,
      "note": 41,
      "start": 11.0051,
      "duration": 0.2498,
      "velocity": 101,
      "chip": "ym2612"
    },
    {
      "channel": 0,
      "note": 26,
      "start": 11.2117,
      "duration": 0.0927,
      "velocity": 125,
      "chip": "ym2612"
    },
    {
      "channel": 0,
      "note": 26,
      "start": 11.317,
      "duration": 0.0928,
      "velocity": 1,
      "chip": "ym2612"
    },
    {
      "channel": 4,
      "note": 75,
      "start": 11.3198,
      "duration": 0.5981,
      "velocity": 94,
      "chip": "ym2612"
    },
    {
      "channel": 0,
      "note": 26,
      "start": 11.4229,
      "duration": 0.0923,
      "velocity": 125,
      "chip": "ym2612"
    },
    {
      "channel": 2,
      "note": 76,
      "start": 11.4244,
      "duration": 0.092,
      "velocity": 110,
      "chip": "ym2612"
    },
    {
      "channel": 0,
      "note": 26,
      "start": 11.5277,
      "duration": 0.3035,
      "velocity": 1,
      "chip": "ym2612"
    },
    {
      "channel": 2,
      "note": 78,
      "start": 11.6343,
      "duration": 0.0927,
      "velocity": 111,
      "chip": "ym2612"
    },
    {
      "channel": 3,
      "note": 70,
      "start": 11.6353,
      "duration": 0.0608,
      "velocity": 94,
      "chip": "ym2612"
    },
    {
      "channel": 5,
      "note": 39,
      "start": 11.6368,
      "duration": 0.3033,
      "velocity": 101,
      "chip": "ym2612"
    },
    {
      "channel": 0,
      "note": 26,
      "start": 11.8437,
      "duration": 0.3034,
      "velocity": 125,
      "chip": "ym2612"
    },
    {
      "channel": 2,
      "note": 76,
      "start": 11.8452,
      "duration": 0.0924,
      "velocity": 110,
      "chip": "ym2612"
    },
    {
      "channel": 3,
      "note": 70,
      "start": 11.8462,
      "duration": 0.1869,
      "velocity": 94,
      "chip": "ym2612"
    },
    {
      "channel": 4,
      "note": 70,
      "start": 11.9499,
      "duration": 0.0628,
      "velocity": 94,
      "chip": "ym2612"
    },
    {
      "channel": 3,
      "note": 68,
      "start": 12.0544,
      "duration": 0.063,
      "velocity": 94,
      "chip": "ym2612"
    },
    {
      "channel": 0,
      "note": 26,
      "start": 12.1597,
      "duration": 0.0928,
      "velocity": 1,
      "chip": "ym2612"
    },
    {
      "channel": 4,
      "note": 70,
      "start": 12.1625,
      "duration": 0.1873,
      "velocity": 94,
      "chip": "ym2612"
    },
    {
      "channel": 0,
      "note": 26,
      "start": 12.265,
      "duration": 0.0928,
      "velocity": 125,
      "chip": "ym2612"
    },
    {
      "channel": 2,
      "note": 76,
      "start": 12.2666,
      "duration": 0.0925,
      "velocity": 110,
      "chip": "ym2612"
    },
    {
      "channel": 3,
      "note": 70,
      "start": 12.2676,
      "duration": 0.1763,
      "velocity": 94,
      "chip": "ym2612"
    },
    {
      "channel": 5,
      "note": 46,
      "start": 12.2692,
      "duration": 0.1971,
      "velocity": 101,
      "chip": "ym2612"
    },
    {
      "channel": 0,
      "note": 26,
      "start": 12.3704,
      "duration": 0.0928,
      "velocity": 1,
      "chip": "ym2612"
    },
    {
      "channel": 4,
      "note": 68,
      "start": 12.3738,
      "duration": 0.0602,
      "velocity": 94,
      "chip": "ym2612"
    },
    {
      "channel": 0,
      "note": 26,
      "start": 12.4757,
      "duration": 0.0928,
      "velocity": 1,
      "chip": "ym2612"
    },
    {
      "channel": 0,
      "note": 26,
      "start": 12.581,
      "duration": 0.0928,
      "velocity": 1,
      "chip": "ym2612"
    },
    {
      "channel": 4,
      "note": 70,
      "start": 12.5839,
      "duration": 0.1767,
      "velocity": 94,
      "chip": "ym2612"
    },
    {
      "channel": 0,
      "note": 26,
      "start": 12.6864,
      "duration": 0.1981,
      "velocity": 125,
      "chip": "ym2612"
    },
    {
      "channel": 2,
      "note": 76,
      "start": 12.6879,
      "duration": 0.0924,
      "velocity": 110,
      "chip": "ym2612"
    },
    {
      "channel": 5,
      "note": 46,
      "start": 12.6906,
      "duration": 0.2286,
      "velocity": 101,
      "chip": "ym2612"
    },
    {
      "channel": 0,
      "note": 26,
      "start": 12.897,
      "duration": 0.0928,
      "velocity": 125,
      "chip": "ym2612"
    },
    {
      "channel": 1,
      "note": 45,
      "start": 12.898,
      "duration": 0.1978,
      "velocity": 113,
      "chip": "ym2612"
    },
    {
      "channel": 0,
      "note": 26,
      "start": 13.0024,
      "duration": 0.5141,
      "velocity": 1,
      "chip": "ym2612"
    },
    {
      "channel": 5,
      "note": 39,
      "start": 13.0062,
      "duration": 0.0709,
      "velocity": 101,
      "chip": "ym2612"
    },
    {
      "channel": 1,
      "note": 45,
      "start": 13.107,
      "duration": 0.1999,
      "velocity": 113,
      "chip": "ym2612"
    },
    {
      "channel": 2,
      "note": 76,
      "start": 13.108,
      "duration": 0.0938,
      "velocity": 110,
      "chip": "ym2612"
    },
    {
      "channel": 5,
      "note": 41,
      "start": 13.1102,
      "duration": 0.0408,
      "velocity": 101,
      "chip": "ym2612"
    },
    {
      "channel": 1,
      "note": 45,
      "start": 13.3172,
      "duration": 0.6213,
      "velocity": 113,
      "chip": "ym2612"
    },
    {
      "channel": 5,
      "note": 49,
      "start": 13.32,
      "duration": 0.1786,
      "velocity": 101,
      "chip": "ym2612"
    },
    {
      "channel": 0,
      "note": 26,
      "start": 13.529,
      "duration": 0.0928,
      "velocity": 125,
      "chip": "ym2612"
    },
    {
      "channel": 2,
      "note": 76,
      "start": 13.5306,
      "duration": 0.093,
      "velocity": 110,
      "chip": "ym2612"
    },
    {
      "channel": 5,
      "note": 48,
      "start": 13.5328,
      "duration": 0.1242,
      "velocity": 101,
      "chip": "ym2612"
    },
    {
      "channel": 0,
      "note": 26,
      "start": 13.6344,
      "duration": 0.1982,
      "velocity": 125,
      "chip": "ym2612"
    },
    {
      "channel": 2,
      "note": 78,
      "start": 13.7415,
      "duration": 0.0922,
      "velocity": 111,
      "chip": "ym2612"
    },
    {
      "channel": 5,
      "note": 44,
      "start": 13.7437,
      "duration": 0.092,
      "velocity": 101,
      "chip": "ym2612"
    },
    {
      "channel": 0,
      "note": 26,
      "start": 13.8451,
      "duration": 0.0928,
      "velocity": 1,
      "chip": "ym2612"
    },
    {
      "channel": 0,
      "note": 26,
      "start": 13.9505,
      "duration": 0.0927,
      "velocity": 125,
      "chip": "ym2612"
    },
    {
      "channel": 1,
      "note": 43,
      "start": 13.9533,
      "duration": 2.303,
      "velocity": 113,
      "chip": "ym2612"
    },
    {
      "channel": 2,
      "note": 76,
      "start": 13.9584,
      "duration": 0.086,
      "velocity": 110,
      "chip": "ym2612"
    },
    {
      "channel": 3,
      "note": 75,
      "start": 13.9613,
      "duration": 0.031,
      "velocity": 28,
      "chip": "ym2612"
    },
    {
      "channel": 4,
      "note": 71,
      "start": 13.9643,
      "duration": 0.0287,
      "velocity": 28,
      "chip": "ym2612"
    },
    {
      "channel": 5,
      "note": 49,
      "start": 13.9673,
      "duration": 0.1424,
      "velocity": 101,
      "chip": "ym2612"
    },
    {
      "channel": 0,
      "note": 26,
      "start": 14.0562,
      "duration": 0.0922,
      "velocity": 1,
      "chip": "ym2612"
    },
    {
      "channel": 3,
      "note": 75,
      "start": 14.0585,
      "duration": 0.0498,
      "velocity": 28,
      "chip": "ym2612"
    },
    {
      "channel": 4,
      "note": 71,
      "start": 14.0595,
      "duration": 0.0494,
      "velocity": 28,
      "chip": "ym2612"
    },
    {
      "channel": 0,
      "note": 26,
      "start": 14.1611,
      "duration": 0.0927,
      "velocity": 1,
      "chip": "ym2612"
    },
    {
      "channel": 3,
      "note": 75,
      "start": 14.1632,
      "duration": 0.0503,
      "velocity": 28,
      "chip": "ym2612"
    },
    {
      "channel": 4,
      "note": 71,
      "start": 14.1642,
      "duration": 0.05,
      "velocity": 28,
      "chip": "ym2612"
    },
    {
      "channel": 5,
      "note": 44,
      "start": 14.1651,
      "duration": 0.0391,
      "velocity": 101,
      "chip": "ym2612"
    },
    {
      "channel": 0,
      "note": 26,
      "start": 14.2663,
      "duration": 0.0928,
      "velocity": 1,
      "chip": "ym2612"
    },
    {
      "channel": 3,
      "note": 75,
      "start": 14.2685,
      "duration": 0.0504,
      "velocity": 28,
      "chip": "ym2612"
    },
    {
      "channel": 4,
      "note": 71,
      "start": 14.2695,
      "duration": 0.0501,
      "velocity": 28,
      "chip": "ym2612"
    },
    {
      "channel": 0,
      "note": 26,
      "start": 14.3717,
      "duration": 0.1982,
      "velocity": 125,
      "chip": "ym2612"
    },
    {
      "channel": 2,
      "note": 76,
      "start": 14.3737,
      "duration": 0.092,
      "velocity": 110,
      "chip": "ym2612"
    },
    {
      "channel": 3,
      "note": 75,
      "start": 14.3747,
      "duration": 0.05,
      "velocity": 28,
      "chip": "ym2612"
    },
    {
      "channel": 4,
      "note": 71,
      "start": 14.3756,
      "duration": 0.0498,
      "velocity": 28,
      "chip": "ym2612"
    },
    {
      "channel": 5,
      "note": 47,
      "start": 14.3766,
      "duration": 0.3018,
      "velocity": 101,
      "chip": "ym2612"
    },
    {
      "channel": 3,
      "note": 76,
      "start": 14.4772,
      "duration": 0.0945,
      "velocity": 28,
      "chip": "ym2612"
    },
    {
      "channel": 4,
      "note": 73,
      "start": 14.4782,
      "duration": 0.0947,
      "velocity": 28,
      "chip": "ym2612"
    },
    {
      "channel": 0,
      "note": 26,
      "start": 14.5824,
      "duration": 0.0928,
      "velocity": 125,
      "chip": "ym2612"
    },
    {
      "channel": 3,
      "note": 76,
      "start": 14.5863,
      "duration": 0.0385,
      "velocity": 28,
      "chip": "ym2612"
    },
    {
      "channel": 4,
      "note": 73,
      "start": 14.5895,
      "duration": 0.036,
      "velocity": 28,
      "chip": "ym2612"
    },
    {
      "channel": 0,
      "note": 26,
      "start": 14.6877,
      "duration": 0.0928,
      "velocity": 1,
      "chip": "ym2612"
    },
    {
      "channel": 3,
      "note": 76,
      "start": 14.6921,
      "duration": 0.0486,
      "velocity": 28,
      "chip": "ym2612"
    },
    {
      "channel": 4,
      "note": 73,
      "start": 14.6949,
      "duration": 0.0465,
      "velocity": 28,
      "chip": "ym2612"
    },
    {
      "channel": 0,
      "note": 26,
      "start": 14.7931,
      "duration": 0.0927,
      "velocity": 125,
      "chip": "ym2612"
    },
    {
      "channel": 2,
      "note": 76,
      "start": 14.7946,
      "duration": 0.0925,
      "velocity": 110,
      "chip": "ym2612"
    },
    {
      "channel": 3,
      "note": 76,
      "start": 14.7973,
      "duration": 0.0376,
      "velocity": 28,
      "chip": "ym2612"
    },
    {
      "channel": 4,
      "note": 73,
      "start": 14.8,
      "duration": 0.0356,
      "velocity": 28,
      "chip": "ym2612"
    },
    {
      "channel": 0,
      "note": 26,
      "start": 14.8984,
      "duration": 0.3035,
      "velocity": 1,
      "chip": "ym2612"
    },
    {
      "channel": 3,
      "note": 76,
      "start": 14.9025,
      "duration": 0.0273,
      "velocity": 28,
      "chip": "ym2612"
    },
    {
      "channel": 4,
      "note": 73,
      "start": 14.9054,
      "duration": 0.0251,
      "velocity": 28,
      "chip": "ym2612"
    },
    {
      "channel": 2,
      "note": 78,
      "start": 15.005,
      "duration": 0.0927,
      "velocity": 111,
      "chip": "ym2612"
    },
    {
      "channel": 3,
      "note": 75,
      "start": 15.0082,
      "duration": 0.0585,
      "velocity": 28,
      "chip": "ym2612"
    },
    {
      "channel": 4,
      "note": 71,
      "start": 15.011,
      "duration": 0.0564,
      "velocity": 28,
      "chip": "ym2612"
    },
    {
      "channel": 5,
      "note": 42,
      "start": 15.0119,
      "duration": 0.2984,
      "velocity": 101,
      "chip": "ym2612"
    },
    {
      "channel": 0,
      "note": 26,
      "start": 15.2144,
      "duration": 0.3035,
      "velocity": 125,
      "chip": "ym2612"
    },
    {
      "channel": 2,
      "note": 76,
      "start": 15.2159,
      "duration": 0.0925,
      "velocity": 110,
      "chip": "ym2612"
    },
    {
      "channel": 3,
      "note": 75,
      "start": 15.4252,
      "duration": 0.0629,
      "velocity": 28,
      "chip": "ym2612"
    },
    {
      "channel": 4,
      "note": 71,
      "start": 15.4261,
      "duration": 0.0631,
      "velocity": 28,
      "chip": "ym2612"
    },
    {
      "channel": 5,
      "note": 44,
      "start": 15.4271,
      "duration": 0.0939,
      "velocity": 101,
      "chip": "ym2612"
    },
    {
      "channel": 0,
      "note": 26,
      "start": 15.5304,
      "duration": 0.0928,
      "velocity": 1,
      "chip": "ym2612"
    },
    {
      "channel": 0,
      "note": 26,
      "start": 15.6357,
      "duration": 0.0928,
      "velocity": 125,
      "chip": "ym2612"
    },
    {
      "channel": 2,
      "note": 76,
      "start": 15.6373,
      "duration": 0.0925,
      "velocity": 110,
      "chip": "ym2612"
    },
    {
      "channel": 3,
      "note": 75,
      "start": 15.6383,
      "duration": 0.0922,
      "velocity": 28,
      "chip": "ym2612"
    },
    {
      "channel": 4,
      "note": 71,
      "start": 15.6396,
      "duration": 0.0915,
      "velocity": 28,
      "chip": "ym2612"
    },
    {
      "channel": 5,
      "note": 49,
      "start": 15.6407,
      "duration": 0.1964,
      "velocity": 101,
      "chip": "ym2612"
    },
    {
      "channel": 0,
      "note": 26,
      "start": 15.7415,
      "duration": 0.0923,
      "velocity": 1,
      "chip": "ym2612"
    },
    {
      "channel": 3,
      "note": 75,
      "start": 15.7456,
      "duration": 0.0374,
      "velocity": 28,
      "chip": "ym2612"
    },
    {
      "channel": 4,
      "note": 71,
      "start": 15.7484,
      "duration": 0.0353,
      "velocity": 28,
      "chip": "ym2612"
    },
    {
      "channel": 0,
      "note": 26,
      "start": 15.8464,
      "duration": 0.0933,
      "velocity": 1,
      "chip": "ym2612"
    },
    {
      "channel": 3,
      "note": 75,
      "start": 15.8503,
      "duration": 0.038,
      "velocity": 28,
      "chip": "ym2612"
    },
    {
      "channel": 4,
      "note": 71,
      "start": 15.8531,
      "duration": 0.0365,
      "velocity": 28,
      "chip": "ym2612"
    },
    {
      "channel": 0,
      "note": 26,
      "start": 15.9517,
      "duration": 0.0928,
      "velocity": 1,
      "chip": "ym2612"
    },
    {
      "channel": 3,
      "note": 75,
      "start": 15.9562,
      "duration": 0.048,
      "velocity": 28,
      "chip": "ym2612"
    },
    {
      "channel": 4,
      "note": 71,
      "start": 15.9588,
      "duration": 0.046,
      "velocity": 28,
      "chip": "ym2612"
    },
    {
      "channel": 0,
      "note": 26,
      "start": 16.0576,
      "duration": 0.1978,
      "velocity": 125,
      "chip": "ym2612"
    },
    {
      "channel": 2,
      "note": 76,
      "start": 16.0591,
      "duration": 0.092,
      "velocity": 110,
      "chip": "ym2612"
    },
    {
      "channel": 3,
      "note": 76,
      "start": 16.0618,
      "duration": 0.0899,
      "velocity": 28,
      "chip": "ym2612"
    },
    {
      "channel": 4,
      "note": 73,
      "start": 16.0646,
      "duration": 0.0878,
      "velocity": 28,
      "chip": "ym2612"
    },
    {
      "channel": 5,
      "note": 49,
      "start": 16.0655,
      "duration": 0.1934,
      "velocity": 101,
      "chip": "ym2612"
    },
    {
      "channel": 3,
      "note": 76,
      "start": 16.1644,
      "duration": 0.04,
      "velocity": 28,
      "chip": "ym2612"
    },
    {
      "channel": 4,
      "note": 73,
      "start": 16.1671,
      "duration": 0.038,
      "velocity": 28,
      "chip": "ym2612"
    },
    {
      "channel": 0,
      "note": 26,
      "start": 16.2677,
      "duration": 0.0928,
      "velocity": 125,
      "chip": "ym2612"
    },
    {
      "channel": 1,
      "note": 45,
      "start": 16.2686,
      "duration": 0.1978,
      "velocity": 113,
      "chip": "ym2612"
    },
    {
      "channel": 3,
      "note": 76,
      "start": 16.2725,
      "duration": 0.0372,
      "velocity": 28,
      "chip": "ym2612"
    },
    {
      "channel": 4,
      "note": 73,
      "start": 16.2752,
      "duration": 0.0351,
      "velocity": 28,
      "chip": "ym2612"
    },
    {
      "channel": 0,
      "note": 26,
      "start": 16.3735,
      "duration": 0.5137,
      "velocity": 1,
      "chip": "ym2612"
    },
    {
      "channel": 3,
      "note": 76,
      "start": 16.3775,
      "duration": 0.0481,
      "velocity": 28,
      "chip": "ym2612"
    },
    {
      "channel": 4,
      "note": 73,
      "start": 16.3802,
      "duration": 0.046,
      "velocity": 28,
      "chip": "ym2612"
    },
    {
      "channel": 5,
      "note": 42,
      "start": 16.3812,
      "duration": 0.0667,
      "velocity": 101,
      "chip": "ym2612"
    },
    {
      "channel": 1,
      "note": 45,
      "start": 16.4772,
      "duration": 0.1999,
      "velocity": 113,
      "chip": "ym2612"
    },
    {
      "channel": 2,
      "note": 76,
      "start": 16.4782,
      "duration": 0.0947,
      "velocity": 110,
      "chip": "ym2612"
    },
    {
      "channel": 3,
      "note": 76,
      "start": 16.4809,
      "duration": 0.0394,
      "velocity": 28,
      "chip": "ym2612"
    },
    {
      "channel": 4,
      "note": 73,
      "start": 16.4836,
      "duration": 0.0374,
      "velocity": 28,
      "chip": "ym2612"
    },
    {
      "channel": 5,
      "note": 44,
      "start": 16.4846,
      "duration": 0.0902,
      "velocity": 101,
      "chip": "ym2612"
    },
    {
      "channel": 1,
      "note": 45,
      "start": 16.6879,
      "duration": 0.2526,
      "velocity": 113,
      "chip": "ym2612"
    },
    {
      "channel": 2,
      "note": 78,
      "start": 16.6912,
      "duration": 0.0919,
      "velocity": 111,
      "chip": "ym2612"
    },
    {
      "channel": 5,
      "note": 42,
      "start": 16.6933,
      "duration": 0.06,
      "velocity": 101,
      "chip": "ym2612"
    },
    {
      "channel": 0,
      "note": 26,
      "start": 16.8998,
      "duration": 0.3034,
      "velocity": 125,
      "chip": "ym2612"
    },
    {
      "channel": 2,
      "note": 76,
      "start": 16.9013,
      "duration": 0.0924,
      "velocity": 110,
      "chip": "ym2612"
    },
    {
      "channel": 5,
      "note": 47,
      "start": 16.9035,
      "duration": 0.1975,
      "velocity": 101,
      "chip": "ym2612"
    },
    {
      "channel": 0,
      "note": 26,
      "start": 17.2157,
      "duration": 0.0928,
      "velocity": 1,
      "chip": "ym2612"
    },
    {
      "channel": 0,
      "note": 26,
      "start": 17.3211,
      "duration": 0.0928,
      "velocity": 125,
      "chip": "ym2612"
    },
    {
      "channel": 2,
      "note": 76,
      "start": 17.3231,
      "duration": 0.092,
      "velocity": 110,
      "chip": "ym2612"
    },
    {
      "channel": 3,
      "note": 75,
      "start": 17.3241,
      "duration": 0.06,
      "velocity": 28,
      "chip": "ym2612"
    },
    {
      "channel": 4,
      "note": 71,
      "start": 17.325,
      "duration": 0.0597,
      "velocity": 28,
      "chip": "ym2612"
    },
    {
      "channel": 5,
      "note": 49,
      "start": 17.326,
      "duration": 0.1437,
      "velocity": 101,
      "chip": "ym2612"
    },
    {
      "channel": 0,
      "note": 26,
      "start": 17.4264,
      "duration": 0.0928,
      "velocity": 1,
      "chip": "ym2612"
    },
    {
      "channel": 3,
      "note": 75,
      "start": 17.4287,
      "duration": 0.0502,
      "velocity": 28,
      "chip": "ym2612"
    },
    {
      "channel": 4,
      "note": 71,
      "start": 17.4297,
      "duration": 0.0499,
      "velocity": 28,
      "chip": "ym2612"
    },
    {
      "channel": 0,
      "note": 26,
      "start": 17.5317,
      "duration": 0.0928,
      "velocity": 1,
      "chip": "ym2612"
    },
    {
      "channel": 3,
      "note": 75,
      "start": 17.5339,
      "duration": 0.0609,
      "velocity": 28,
      "chip": "ym2612"
    },
    {
      "channel": 4,
      "note": 71,
      "start": 17.5349,
      "duration": 0.0606,
      "velocity": 28,
      "chip": "ym2612"
    },
    {
      "channel": 5,
      "note": 42,
      "start": 17.5358,
      "duration": 0.0919,
      "velocity": 101,
      "chip": "ym2612"
    },
    {
      "channel": 0,
      "note": 26,
      "start": 17.6371,
      "duration": 0.0927,
      "velocity": 1,
      "chip": "ym2612"
    },
    {
      "channel": 3,
      "note": 75,
      "start": 17.6397,
      "duration": 0.0604,
      "velocity": 28,
      "chip": "ym2612"
    },
    {
      "channel": 4,
      "note": 71,
      "start": 17.6407,
      "duration": 0.0601,
      "velocity": 28,
      "chip": "ym2612"
    },
    {
      "channel": 0,
      "note": 26,
      "start": 17.7424,
      "duration": 0.1981,
      "velocity": 125,
      "chip": "ym2612"
    },
    {
      "channel": 2,
      "note": 76,
      "start": 17.744,
      "duration": 0.0924,
      "velocity": 110,
      "chip": "ym2612"
    },
    {
      "channel": 3,
      "note": 75,
      "start": 17.7449,
      "duration": 0.061,
      "velocity": 28,
      "chip": "ym2612"
    },
    {
      "channel": 4,
      "note": 71,
      "start": 17.7459,
      "duration": 0.0607,
      "velocity": 28,
      "chip": "ym2612"
    },
    {
      "channel": 5,
      "note": 44,
      "start": 17.7468,
      "duration": 0.2498,
      "velocity": 101,
      "chip": "ym2612"
    },
    {
      "channel": 3,
      "note": 76,
      "start": 17.8479,
      "duration": 0.0945,
      "velocity": 28,
      "chip": "ym2612"
    },
    {
      "channel": 4,
      "note": 73,
      "start": 17.8489,
      "duration": 0.0942,
      "velocity": 28,
      "chip": "ym2612"
    },
    {
      "channel": 0,
      "note": 26,
      "start": 17.9531,
      "duration": 0.0928,
      "velocity": 125,
      "chip": "ym2612"
    },
    {
      "channel": 3,
      "note": 76,
      "start": 17.9575,
      "duration": 0.027,
      "velocity": 28,
      "chip": "ym2612"
    },
    {
      "channel": 4,
      "note": 73,
      "start": 17.9602,
      "duration": 0.0249,
      "velocity": 28,
      "chip": "ym2612"
    },
    {
      "channel": 0,
      "note": 26,
      "start": 18.0585,
      "duration": 0.0927,
      "velocity": 1,
      "chip": "ym2612"
    },
    {
      "channel": 3,
      "note": 76,
      "start": 18.0624,
      "duration": 0.038,
      "velocity": 28,
      "chip": "ym2612"
    },
    {
      "channel": 4,
      "note": 73,
      "start": 18.0651,
      "duration": 0.0359,
      "velocity": 28,
      "chip": "ym2612"
    },
    {
      "channel": 0,
      "note": 26,
      "start": 18.1637,
      "duration": 0.0928,
      "velocity": 125,
      "chip": "ym2612"
    },
    {
      "channel": 2,
      "note": 76,
      "start": 18.1653,
      "duration": 0.0925,
      "velocity": 110,
      "chip": "ym2612"
    },
    {
      "channel": 3,
      "note": 76,
      "start": 18.168,
      "duration": 0.0588,
      "velocity": 28,
      "chip": "ym2612"
    },
    {
      "channel": 4,
      "note": 73,
      "start": 18.1707,
      "duration": 0.0567,
      "velocity": 28,
      "chip": "ym2612"
    },
    {
      "channel": 0,
      "note": 26,
      "start": 18.2691,
      "duration": 0.3039,
      "velocity": 1,
      "chip": "ym2612"
    },
    {
      "channel": 2,
      "note": 78,
      "start": 18.3761,
      "duration": 0.0922,
      "velocity": 111,
      "chip": "ym2612"
    },
    {
      "channel": 3,
      "note": 75,
      "start": 18.3789,
      "duration": 0.1322,
      "velocity": 28,
      "chip": "ym2612"
    },
    {
      "channel": 4,
      "note": 71,
      "start": 18.3816,
      "duration": 0.1302,
      "velocity": 28,
      "chip": "ym2612"
    },
    {
      "channel": 5,
      "note": 42,
      "start": 18.3826,
      "duration": 0.2984,
      "velocity": 101,
      "chip": "ym2612"
    },
    {
      "channel": 0,
      "note": 26,
      "start": 18.5851,
      "duration": 0.3037,
      "velocity": 125,
      "chip": "ym2612"
    },
    {
      "channel": 2,
      "note": 76,
      "start": 18.5866,
      "duration": 0.0924,
      "velocity": 110,
      "chip": "ym2612"
    },
    {
      "channel": 3,
      "note": 75,
      "start": 18.7958,
      "duration": 0.0951,
      "velocity": 28,
      "chip": "ym2612"
    },
    {
      "channel": 4,
      "note": 71,
      "start": 18.7968,
      "duration": 0.0948,
      "velocity": 28,
      "chip": "ym2612"
    },
    {
      "channel": 0,
      "note": 26,
      "start": 18.9011,
      "duration": 0.0928,
      "velocity": 1,
      "chip": "ym2612"
    },
    {
      "channel": 0,
      "note": 26,
      "start": 19.0069,
      "duration": 0.0923,
      "velocity": 125,
      "chip": "ym2612"
    },
    {
      "channel": 2,
      "note": 76,
      "start": 19.0085,
      "duration": 0.092,
      "velocity": 110,
      "chip": "ym2612"
    },
    {
      "channel": 3,
      "note": 76,
      "start": 19.0094,
      "duration": 0.0917,
      "velocity": 28,
      "chip": "ym2612"
    },
    {
      "channel": 4,
      "note": 73,
      "start": 19.0104,
      "duration": 0.0914,
      "velocity": 28,
      "chip": "ym2612"
    },
    {
      "channel": 5,
      "note": 49,
      "start": 19.0113,
      "duration": 0.1969,
      "velocity": 101,
      "chip": "ym2612"
    },
    {
      "channel": 0,
      "note": 26,
      "start": 19.1117,
      "duration": 0.0928,
      "velocity": 1,
      "chip": "ym2612"
    },
    {
      "channel": 3,
      "note": 76,
      "start": 19.1159,
      "duration": 0.0484,
      "velocity": 28,
      "chip": "ym2612"
    },
    {
      "channel": 4,
      "note": 73,
      "start": 19.1185,
      "duration": 0.0464,
      "velocity": 28,
      "chip": "ym2612"
    },
    {
      "channel": 0,
      "note": 26,
      "start": 19.2171,
      "duration": 0.0928,
      "velocity": 1,
      "chip": "ym2612"
    },
    {
      "channel": 3,
      "note": 76,
      "start": 19.221,
      "duration": 0.017,
      "velocity": 28,
      "chip": "ym2612"
    },
    {
      "channel": 4,
      "note": 73,
      "start": 19.2242,
      "duration": 0.0149,
      "velocity": 28,
      "chip": "ym2612"
    },
    {
      "channel": 0,
      "note": 26,
      "start": 19.3229,
      "duration": 0.0923,
      "velocity": 1,
      "chip": "ym2612"
    },
    {
      "channel": 3,
      "note": 76,
      "start": 19.3268,
      "duration": 0.0375,
      "velocity": 28,
      "chip": "ym2612"
    },
    {
      "channel": 4,
      "note": 73,
      "start": 19.3296,
      "duration": 0.0354,
      "velocity": 28,
      "chip": "ym2612"
    },
    {
      "channel": 0,
      "note": 26,
      "start": 19.4278,
      "duration": 0.1981,
      "velocity": 125,
      "chip": "ym2612"
    },
    {
      "channel": 2,
      "note": 76,
      "start": 19.4293,
      "duration": 0.0924,
      "velocity": 110,
      "chip": "ym2612"
    },
    {
      "channel": 3,
      "note": 76,
      "start": 19.432,
      "duration": 0.0377,
      "velocity": 28,
      "chip": "ym2612"
    },
    {
      "channel": 4,
      "note": 73,
      "start": 19.4347,
      "duration": 0.0356,
      "velocity": 28,
      "chip": "ym2612"
    },
    {
      "channel": 5,
      "note": 49,
      "start": 19.4357,
      "duration": 0.2249,
      "velocity": 101,
      "chip": "ym2612"
    },
    {
      "channel": 3,
      "note": 76,
      "start": 19.5351,
      "duration": 0.04,
      "velocity": 28,
      "chip": "ym2612"
    },
    {
      "channel": 4,
      "note": 73,
      "start": 19.5378,
      "duration": 0.0379,
      "velocity": 28,
      "chip": "ym2612"
    },
    {
      "channel": 0,
      "note": 26,
      "start": 19.6384,
      "duration": 0.0928,
      "velocity": 125,
      "chip": "ym2612"
    },
    {
      "channel": 1,
      "note": 45,
      "start": 19.6398,
      "duration": 0.1973,
      "velocity": 113,
      "chip": "ym2612"
    },
    {
      "channel": 3,
      "note": 76,
      "start": 19.6432,
      "duration": 0.0372,
      "velocity": 28,
      "chip": "ym2612"
    },
    {
      "channel": 4,
      "note": 73,
      "start": 19.6459,
      "duration": 0.0352,
      "velocity": 28,
      "chip": "ym2612"
    },
    {
      "channel": 0,
      "note": 26,
      "start": 19.7438,
      "duration": 0.5141,
      "velocity": 1,
      "chip": "ym2612"
    },
    {
      "channel": 3,
      "note": 76,
      "start": 19.7477,
      "duration": 0.038,
      "velocity": 28,
      "chip": "ym2612"
    },
    {
      "channel": 4,
      "note": 73,
      "start": 19.7504,
      "duration": 0.0359,
      "velocity": 28,
      "chip": "ym2612"
    },
    {
      "channel": 5,
      "note": 42,
      "start": 19.7513,
      "duration": 0.0673,
      "velocity": 101,
      "chip": "ym2612"
    },
    {
      "channel": 1,
      "note": 45,
      "start": 19.8479,
      "duration": 0.1999,
      "velocity": 113,
      "chip": "ym2612"
    },
    {
      "channel": 2,
      "note": 76,
      "start": 19.8489,
      "duration": 0.0942,
      "velocity": 110,
      "chip": "ym2612"
    },
    {
      "channel": 3,
      "note": 76,
      "start": 19.8516,
      "duration": 0.05,
      "velocity": 28,
      "chip": "ym2612"
    },
    {
      "channel": 4,
      "note": 73,
      "start": 19.8543,
      "duration": 0.0479,
      "velocity": 28,
      "chip": "ym2612"
    },
    {
      "channel": 5,
      "note": 44,
      "start": 19.8555,
      "duration": 0.0373,
      "velocity": 101,
      "chip": "ym2612"
    },
    {
      "channel": 3,
      "note": 76,
      "start": 19.9569,
      "duration": 0.0505,
      "velocity": 28,
      "chip": "ym2612"
    },
    {
      "channel": 4,
      "note": 73,
      "start": 19.9596,
      "duration": 0.0485,
      "velocity": 28,
      "chip": "ym2612"
    },
    {
      "channel": 1,
      "note": 45,
      "start": 20.0586,
      "duration": 0.6212,
      "velocity": 113,
      "chip": "ym2612"
    },
    {
      "channel": 5,
      "note": 52,
      "start": 20.0614,
      "duration": 0.179,
      "velocity": 101,
      "chip": "ym2612"
    },
    {
      "channel": 0,
      "note": 26,
      "start": 20.2704,
      "duration": 0.0928,
      "velocity": 125,
      "chip": "ym2612"
    },
    {
      "channel": 2,
      "note": 76,
      "start": 20.2725,
      "duration": 0.092,
      "velocity": 110,
      "chip": "ym2612"
    },
    {
      "channel": 5,
      "note": 51,
      "start": 20.2747,
      "duration": 0.1232,
      "velocity": 101,
      "chip": "ym2612"
    },
    {
      "channel": 0,
      "note": 26,
      "start": 20.3758,
      "duration": 0.1981,
      "velocity": 125,
      "chip": "ym2612"
    },
    {
      "channel": 2,
      "note": 78,
      "start": 20.4824,
      "duration": 0.0928,
      "velocity": 111,
      "chip": "ym2612"
    },
    {
      "channel": 5,
      "note": 47,
      "start": 20.4846,
      "duration": 0.0925,
      "velocity": 101,
      "chip": "ym2612"
    },
    {
      "channel": 0,
      "note": 26,
      "start": 20.5864,
      "duration": 0.0928,
      "velocity": 1,
      "chip": "ym2612"
    },
    {
      "channel": 0,
      "note": 26,
      "start": 20.6919,
      "duration": 0.0927,
      "velocity": 125,
      "chip": "ym2612"
    },
    {
      "channel": 1,
      "note": 43,
      "start": 20.6947,
      "duration": 2.3025,
      "velocity": 113,
      "chip": "ym2612"
    },
    {
      "channel": 2,
      "note": 76,
      "start": 20.6993,
      "duration": 0.0865,
      "velocity": 110,
      "chip": "ym2612"
    },
    {
      "channel": 3,
      "note": 72,
      "start": 20.7022,
      "duration": 0.0315,
      "velocity": 28,
      "chip": "ym2612"
    },
    {
      "channel": 4,
      "note": 68,
      "start": 20.7054,
      "duration": 0.0289,
      "velocity": 28,
      "chip": "ym2612"
    },
    {
      "channel": 5,
      "note": 46,
      "start": 20.7087,
      "duration": 0.1422,
      "velocity": 101,
      "chip": "ym2612"
    },
    {
      "channel": 0,
      "note": 26,
      "start": 20.7971,
      "duration": 0.0928,
      "velocity": 1,
      "chip": "ym2612"
    },
    {
      "channel": 3,
      "note": 72,
      "start": 20.7994,
      "duration": 0.0501,
      "velocity": 28,
      "chip": "ym2612"
    },
    {
      "channel": 4,
      "note": 68,
      "start": 20.8004,
      "duration": 0.0499,
      "velocity": 28,
      "chip": "ym2612"
    },
    {
      "channel": 0,
      "note": 26,
      "start": 20.9024,
      "duration": 0.0928,
      "velocity": 1,
      "chip": "ym2612"
    },
    {
      "channel": 3,
      "note": 72,
      "start": 20.9046,
      "duration": 0.0503,
      "velocity": 28,
      "chip": "ym2612"
    },
    {
      "channel": 4,
      "note": 68,
      "start": 20.906,
      "duration": 0.0501,
      "velocity": 28,
      "chip": "ym2612"
    },
    {
      "channel": 5,
      "note": 41,
      "start": 20.907,
      "duration": 0.0387,
      "velocity": 101,
      "chip": "ym2612"
    },
    {
      "channel": 0,
      "note": 26,
      "start": 21.0083,
      "duration": 0.0923,
      "velocity": 1,
      "chip": "ym2612"
    },
    {
      "channel": 3,
      "note": 72,
      "start": 21.0105,
      "duration": 0.0498,
      "velocity": 28,
      "chip": "ym2612"
    },
    {
      "channel": 4,
      "note": 68,
      "start": 21.0114,
      "duration": 0.0495,
      "velocity": 28,
      "chip": "ym2612"
    },
    {
      "channel": 0,
      "note": 26,
      "start": 21.1131,
      "duration": 0.1981,
      "velocity": 125,
      "chip": "ym2612"
    },
    {
      "channel": 2,
      "note": 76,
      "start": 21.1146,
      "duration": 0.0929,
      "velocity": 110,
      "chip": "ym2612"
    },
    {
      "channel": 3,
      "note": 72,
      "start": 21.1156,
      "duration": 0.05,
      "velocity": 28,
      "chip": "ym2612"
    },
    {
      "channel": 4,
      "note": 68,
      "start": 21.1166,
      "duration": 0.0497,
      "velocity": 28,
      "chip": "ym2612"
    },
    {
      "channel": 5,
      "note": 44,
      "start": 21.1175,
      "duration": 0.3023,
      "velocity": 101,
      "chip": "ym2612"
    },
    {
      "channel": 3,
      "note": 73,
      "start": 21.2186,
      "duration": 0.0945,
      "velocity": 28,
      "chip": "ym2612"
    },
    {
      "channel": 4,
      "note": 70,
      "start": 21.2196,
      "duration": 0.0941,
      "velocity": 28,
      "chip": "ym2612"
    },
    {
      "channel": 0,
      "note": 26,
      "start": 21.3242,
      "duration": 0.0923,
      "velocity": 125,
      "chip": "ym2612"
    },
    {
      "channel": 3,
      "note": 73,
      "start": 21.3282,
      "duration": 0.0375,
      "velocity": 28,
      "chip": "ym2612"
    },
    {
      "channel": 4,
      "note": 70,
      "start": 21.3309,
      "duration": 0.0354,
      "velocity": 28,
      "chip": "ym2612"
    },
    {
      "channel": 0,
      "note": 26,
      "start": 21.4291,
      "duration": 0.093,
      "velocity": 1,
      "chip": "ym2612"
    },
    {
      "channel": 3,
      "note": 73,
      "start": 21.433,
      "duration": 0.0485,
      "velocity": 28,
      "chip": "ym2612"
    },
    {
      "channel": 4,
      "note": 70,
      "start": 21.4358,
      "duration": 0.0465,
      "velocity": 28,
      "chip": "ym2612"
    },
    {
      "channel": 0,
      "note": 26,
      "start": 21.5344,
      "duration": 0.0928,
      "velocity": 125,
      "chip": "ym2612"
    },
    {
      "channel": 2,
      "note": 76,
      "start": 21.536,
      "duration": 0.0925,
      "velocity": 110,
      "chip": "ym2612"
    },
    {
      "channel": 3,
      "note": 73,
      "start": 21.5392,
      "duration": 0.0372,
      "velocity": 28,
      "chip": "ym2612"
    },
    {
      "channel": 4,
      "note": 70,
      "start": 21.5419,
      "duration": 0.0351,
      "velocity": 28,
      "chip": "ym2612"
    },
    {
      "channel": 0,
      "note": 26,
      "start": 21.6403,
      "duration": 0.303,
      "velocity": 1,
      "chip": "ym2612"
    },
    {
      "channel": 3,
      "note": 73,
      "start": 21.6444,
      "duration": 0.0268,
      "velocity": 28,
      "chip": "ym2612"
    },
    {
      "channel": 4,
      "note": 70,
      "start": 21.6471,
      "duration": 0.0249,
      "velocity": 28,
      "chip": "ym2612"
    },
    {
      "channel": 2,
      "note": 78,
      "start": 21.7464,
      "duration": 0.0932,
      "velocity": 111,
      "chip": "ym2612"
    },
    {
      "channel": 3,
      "note": 72,
      "start": 21.749,
      "duration": 0.0592,
      "velocity": 28,
      "chip": "ym2612"
    },
    {
      "channel": 4,
      "note": 68,
      "start": 21.7518,
      "duration": 0.0572,
      "velocity": 28,
      "chip": "ym2612"
    },
    {
      "channel": 5,
      "note": 39,
      "start": 21.7527,
      "duration": 0.299,
      "velocity": 101,
      "chip": "ym2612"
    },
    {
      "channel": 0,
      "note": 26,
      "start": 21.9562,
      "duration": 0.303,
      "velocity": 125,
      "chip": "ym2612"
    },
    {
      "channel": 2,
      "note": 76,
      "start": 21.9578,
      "duration": 0.0919,
      "velocity": 110,
      "chip": "ym2612"
    },
    {
      "channel": 3,
      "note": 72,
      "start": 22.1665,
      "duration": 0.063,
      "velocity": 28,
      "chip": "ym2612"
    },
    {
      "channel": 4,
      "note": 68,
      "start": 22.1674,
      "duration": 0.0627,
      "velocity": 28,
      "chip": "ym2612"
    },
    {
      "channel": 5,
      "note": 41,
      "start": 22.1684,
      "duration": 0.094,
      "velocity": 101,
      "chip": "ym2612"
    },
    {
      "channel": 0,
      "note": 26,
      "start": 22.2718,
      "duration": 0.0928,
      "velocity": 1,
      "chip": "ym2612"
    },
    {
      "channel": 0,
      "note": 26,
      "start": 22.3771,
      "duration": 0.0928,
      "velocity": 125,
      "chip": "ym2612"
    },
    {
      "channel": 2,
      "note": 76,
      "start": 22.3786,
      "duration": 0.0925,
      "velocity": 110,
      "chip": "ym2612"
    },
    {
      "channel": 3,
      "note": 72,
      "start": 22.3796,
      "duration": 0.0922,
      "velocity": 28,
      "chip": "ym2612"
    },
    {
      "channel": 4,
      "note": 68,
      "start": 22.3805,
      "duration": 0.0924,
      "velocity": 28,
      "chip": "ym2612"
    },
    {
      "channel": 5,
      "note": 46,
      "start": 22.3815,
      "duration": 0.1969,
      "velocity": 101,
      "chip": "ym2612"
    },
    {
      "channel": 0,
      "note": 26,
      "start": 22.4824,
      "duration": 0.0928,
      "velocity": 1,
      "chip": "ym2612"
    },
    {
      "channel": 3,
      "note": 72,
      "start": 22.4865,
      "duration": 0.0383,
      "velocity": 28,
      "chip": "ym2612"
    },
    {
      "channel": 4,
      "note": 68,
      "start": 22.4898,
      "duration": 0.0357,
      "velocity": 28,
      "chip": "ym2612"
    },
    {
      "channel": 0,
      "note": 26,
      "start": 22.5878,
      "duration": 0.0927,
      "velocity": 1,
      "chip": "ym2612"
    },
    {
      "channel": 3,
      "note": 72,
      "start": 22.5922,
      "duration": 0.0376,
      "velocity": 28,
      "chip": "ym2612"
    },
    {
      "channel": 4,
      "note": 68,
      "start": 22.5949,
      "duration": 0.0354,
      "velocity": 28,
      "chip": "ym2612"
    },
    {
      "channel": 0,
      "note": 26,
      "start": 22.6932,
      "duration": 0.0927,
      "velocity": 1,
      "chip": "ym2612"
    },
    {
      "channel": 3,
      "note": 72,
      "start": 22.697,
      "duration": 0.0486,
      "velocity": 28,
      "chip": "ym2612"
    },
    {
      "channel": 4,
      "note": 68,
      "start": 22.6998,
      "duration": 0.0465,
      "velocity": 28,
      "chip": "ym2612"
    },
    {
      "channel": 0,
      "note": 26,
      "start": 22.7984,
      "duration": 0.1982,
      "velocity": 125,
      "chip": "ym2612"
    },
    {
      "channel": 2,
      "note": 76,
      "start": 22.8,
      "duration": 0.0924,
      "velocity": 110,
      "chip": "ym2612"
    },
    {
      "channel": 3,
      "note": 73,
      "start": 22.8027,
      "duration": 0.0904,
      "velocity": 28,
      "chip": "ym2612"
    },
    {
      "channel": 4,
      "note": 70,
      "start": 22.8059,
      "duration": 0.0879,
      "velocity": 28,
      "chip": "ym2612"
    },
    {
      "channel": 5,
      "note": 46,
      "start": 22.8069,
      "duration": 0.1929,
      "velocity": 101,
      "chip": "ym2612"
    },
    {
      "channel": 3,
      "note": 73,
      "start": 22.9062,
      "duration": 0.0395,
      "velocity": 28,
      "chip": "ym2612"
    },
    {
      "channel": 4,
      "note": 70,
      "start": 22.909,
      "duration": 0.0374,
      "velocity": 28,
      "chip": "ym2612"
    },
    {
      "channel": 0,
      "note": 26,
      "start": 23.0091,
      "duration": 0.0928,
      "velocity": 125,
      "chip": "ym2612"
    },
    {
      "channel": 1,
      "note": 45,
      "start": 23.01,
      "duration": 0.1978,
      "velocity": 113,
      "chip": "ym2612"
    },
    {
      "channel": 3,
      "note": 73,
      "start": 23.0134,
      "duration": 0.0377,
      "velocity": 28,
      "chip": "ym2612"
    },
    {
      "channel": 4,
      "note": 70,
      "start": 23.016,
      "duration": 0.0357,
      "velocity": 28,
      "chip": "ym2612"
    },
    {
      "channel": 0,
      "note": 26,
      "start": 23.1144,
      "duration": 0.5141,
      "velocity": 1,
      "chip": "ym2612"
    },
    {
      "channel": 3,
      "note": 73,
      "start": 23.1184,
      "duration": 0.0485,
      "velocity": 28,
      "chip": "ym2612"
    },
    {
      "channel": 4,
      "note": 70,
      "start": 23.1211,
      "duration": 0.0465,
      "velocity": 28,
      "chip": "ym2612"
    },
    {
      "channel": 5,
      "note": 39,
      "start": 23.1225,
      "duration": 0.0672,
      "velocity": 101,
      "chip": "ym2612"
    },
    {
      "channel": 1,
      "note": 45,
      "start": 23.2186,
      "duration": 0.1999,
      "velocity": 113,
      "chip": "ym2612"
    },
    {
      "channel": 2,
      "note": 76,
      "start": 23.2195,
      "duration": 0.0943,
      "velocity": 110,
      "chip": "ym2612"
    },
    {
      "channel": 3,
      "note": 73,
      "start": 23.2228,
      "duration": 0.0389,
      "velocity": 28,
      "chip": "ym2612"
    },
    {
      "channel": 4,
      "note": 70,
      "start": 23.2255,
      "duration": 0.0369,
      "velocity": 28,
      "chip": "ym2612"
    },
    {
      "channel": 5,
      "note": 41,
      "start": 23.2265,
      "duration": 0.0892,
      "velocity": 101,
      "chip": "ym2612"
    },
    {
      "channel": 1,
      "note": 45,
      "start": 23.4293,
      "duration": 0.2525,
      "velocity": 113,
      "chip": "ym2612"
    },
    {
      "channel": 2,
      "note": 78,
      "start": 23.432,
      "duration": 0.0924,
      "velocity": 111,
      "chip": "ym2612"
    },
    {
      "channel": 5,
      "note": 39,
      "start": 23.4342,
      "duration": 0.0605,
      "velocity": 101,
      "chip": "ym2612"
    },
    {
      "channel": 0,
      "note": 26,
      "start": 23.6416,
      "duration": 0.303,
      "velocity": 125,
      "chip": "ym2612"
    },
    {
      "channel": 2,
      "note": 76,
      "start": 23.6432,
      "duration": 0.092,
      "velocity": 110,
      "chip": "ym2612"
    },
    {
      "channel": 5,
      "note": 44,
      "start": 23.6454,
      "duration": 0.1974,
      "velocity": 101,
      "chip": "ym2612"
    },
    {
      "channel": 0,
      "note": 26,
      "start": 23.9576,
      "duration": 0.0923,
      "velocity": 1,
      "chip": "ym2612"
    },
    {
      "channel": 0,
      "note": 26,
      "start": 24.0625,
      "duration": 0.0929,
      "velocity": 125,
      "chip": "ym2612"
    },
    {
      "channel": 2,
      "note": 76,
      "start": 24.064,
      "duration": 0.093,
      "velocity": 110,
      "chip": "ym2612"
    },
    {
      "channel": 3,
      "note": 72,
      "start": 24.065,
      "duration": 0.0605,
      "velocity": 28,
      "chip": "ym2612"
    },
    {
      "channel": 4,
      "note": 68,
      "start": 24.0659,
      "duration": 0.0602,
      "velocity": 28,
      "chip": "ym2612"
    },
    {
      "channel": 5,
      "note": 46,
      "start": 24.0669,
      "duration": 0.1441,
      "velocity": 101,
      "chip": "ym2612"
    },
    {
      "channel": 0,
      "note": 26,
      "start": 24.1678,
      "duration": 0.0928,
      "velocity": 1,
      "chip": "ym2612"
    },
    {
      "channel": 3,
      "note": 72,
      "start": 24.1701,
      "duration": 0.0502,
      "velocity": 28,
      "chip": "ym2612"
    },
    {
      "channel": 4,
      "note": 68,
      "start": 24.1711,
      "duration": 0.0499,
      "velocity": 28,
      "chip": "ym2612"
    },
    {
      "channel": 0,
      "note": 26,
      "start": 24.2736,
      "duration": 0.0923,
      "velocity": 1,
      "chip": "ym2612"
    },
    {
      "channel": 3,
      "note": 72,
      "start": 24.2758,
      "duration": 0.0604,
      "velocity": 28,
      "chip": "ym2612"
    },
    {
      "channel": 4,
      "note": 68,
      "start": 24.2767,
      "duration": 0.06,
      "velocity": 28,
      "chip": "ym2612"
    },
    {
      "channel": 5,
      "note": 39,
      "start": 24.2777,
      "duration": 0.0914,
      "velocity": 101,
      "chip": "ym2612"
    },
    {
      "channel": 0,
      "note": 26,
      "start": 24.3784,
      "duration": 0.0928,
      "velocity": 1,
      "chip": "ym2612"
    },
    {
      "channel": 3,
      "note": 72,
      "start": 24.3806,
      "duration": 0.0611,
      "velocity": 28,
      "chip": "ym2612"
    },
    {
      "channel": 4,
      "note": 68,
      "start": 24.3816,
      "duration": 0.0607,
      "velocity": 28,
      "chip": "ym2612"
    },
    {
      "channel": 0,
      "note": 26,
      "start": 24.4838,
      "duration": 0.1982,
      "velocity": 125,
      "chip": "ym2612"
    },
    {
      "channel": 2,
      "note": 76,
      "start": 24.4853,
      "duration": 0.0925,
      "velocity": 110,
      "chip": "ym2612"
    },
    {
      "channel": 3,
      "note": 72,
      "start": 24.4863,
      "duration": 0.0605,
      "velocity": 28,
      "chip": "ym2612"
    },
    {
      "channel": 4,
      "note": 68,
      "start": 24.4872,
      "duration": 0.0602,
      "velocity": 28,
      "chip": "ym2612"
    },
    {
      "channel": 5,
      "note": 41,
      "start": 24.4882,
      "duration": 0.2497,
      "velocity": 101,
      "chip": "ym2612"
    },
    {
      "channel": 3,
      "note": 73,
      "start": 24.5898,
      "duration": 0.0939,
      "velocity": 28,
      "chip": "ym2612"
    },
    {
      "channel": 4,
      "note": 70,
      "start": 24.5908,
      "duration": 0.0936,
      "velocity": 28,
      "chip": "ym2612"
    },
    {
      "channel": 0,
      "note": 26,
      "start": 24.6945,
      "duration": 0.0928,
      "velocity": 125,
      "chip": "ym2612"
    },
    {
      "channel": 3,
      "note": 73,
      "start": 24.6984,
      "duration": 0.0275,
      "velocity": 28,
      "chip": "ym2612"
    },
    {
      "channel": 4,
      "note": 70,
      "start": 24.7011,
      "duration": 0.0254,
      "velocity": 28,
      "chip": "ym2612"
    },
    {
      "channel": 0,
      "note": 26,
      "start": 24.7998,
      "duration": 0.0927,
      "velocity": 1,
      "chip": "ym2612"
    },
    {
      "channel": 3,
      "note": 73,
      "start": 24.8037,
      "duration": 0.038,
      "velocity": 28,
      "chip": "ym2612"
    },
    {
      "channel": 4,
      "note": 70,
      "start": 24.8069,
      "duration": 0.0355,
      "velocity": 28,
      "chip": "ym2612"
    },
    {
      "channel": 0,
      "note": 26,
      "start": 24.9051,
      "duration": 0.0928,
      "velocity": 125,
      "chip": "ym2612"
    },
    {
      "channel": 2,
      "note": 76,
      "start": 24.9072,
      "duration": 0.092,
      "velocity": 110,
      "chip": "ym2612"
    },
    {
      "channel": 3,
      "note": 73,
      "start": 24.9099,
      "duration": 0.0583,
      "velocity": 28,
      "chip": "ym2612"
    },
    {
      "channel": 4,
      "note": 70,
      "start": 24.9126,
      "duration": 0.0562,
      "velocity": 28,
      "chip": "ym2612"
    },
    {
      "channel": 0,
      "note": 26,
      "start": 25.0105,
      "duration": 0.3035,
      "velocity": 1,
      "chip": "ym2612"
    },
    {
      "channel": 2,
      "note": 78,
      "start": 25.1171,
      "duration": 0.0928,
      "velocity": 111,
      "chip": "ym2612"
    },
    {
      "channel": 3,
      "note": 72,
      "start": 25.1198,
      "duration": 0.1328,
      "velocity": 28,
      "chip": "ym2612"
    },
    {
      "channel": 4,
      "note": 68,
      "start": 25.123,
      "duration": 0.1302,
      "velocity": 28,
      "chip": "ym2612"
    },
    {
      "channel": 5,
      "note": 39,
      "start": 25.1239,
      "duration": 0.2989,
      "velocity": 101,
      "chip": "ym2612"
    },
    {
      "channel": 0,
      "note": 26,
      "start": 25.3265,
      "duration": 0.3034,
      "velocity": 125,
      "chip": "ym2612"
    },
    {
      "channel": 2,
      "note": 76,
      "start": 25.328,
      "duration": 0.0925,
      "velocity": 110,
      "chip": "ym2612"
    },
    {
      "channel": 3,
      "note": 72,
      "start": 25.5372,
      "duration": 0.0946,
      "velocity": 28,
      "chip": "ym2612"
    },
    {
      "channel": 4,
      "note": 68,
      "start": 25.5381,
      "duration": 0.0943,
      "velocity": 28,
      "chip": "ym2612"
    },
    {
      "channel": 0,
      "note": 26,
      "start": 25.6424,
      "duration": 0.0928,
      "velocity": 1,
      "chip": "ym2612"
    },
    {
      "channel": 0,
      "note": 26,
      "start": 25.7478,
      "duration": 0.0928,
      "velocity": 125,
      "chip": "ym2612"
    },
    {
      "channel": 2,
      "note": 76,
      "start": 25.7494,
      "duration": 0.0925,
      "velocity": 110,
      "chip": "ym2612"
    },
    {
      "channel": 3,
      "note": 73,
      "start": 25.7503,
      "duration": 0.0922,
      "velocity": 28,
      "chip": "ym2612"
    },
    {
      "channel": 4,
      "note": 70,
      "start": 25.7513,
      "duration": 0.0919,
      "velocity": 28,
      "chip": "ym2612"
    },
    {
      "channel": 5,
      "note": 46,
      "start": 25.7522,
      "duration": 0.1969,
      "velocity": 101,
      "chip": "ym2612"
    },
    {
      "channel": 0,
      "note": 26,
      "start": 25.8531,
      "duration": 0.0928,
      "velocity": 1,
      "chip": "ym2612"
    },
    {
      "channel": 3,
      "note": 73,
      "start": 25.8577,
      "duration": 0.0484,
      "velocity": 28,
      "chip": "ym2612"
    },
    {
      "channel": 4,
      "note": 70,
      "start": 25.8605,
      "duration": 0.0463,
      "velocity": 28,
      "chip": "ym2612"
    },
    {
      "channel": 0,
      "note": 26,
      "start": 25.9585,
      "duration": 0.0928,
      "velocity": 1,
      "chip": "ym2612"
    },
    {
      "channel": 3,
      "note": 73,
      "start": 25.9624,
      "duration": 0.0169,
      "velocity": 28,
      "chip": "ym2612"
    },
    {
      "channel": 4,
      "note": 70,
      "start": 25.9651,
      "duration": 0.0149,
      "velocity": 28,
      "chip": "ym2612"
    },
    {
      "channel": 0,
      "note": 26,
      "start": 26.0638,
      "duration": 0.0928,
      "velocity": 1,
      "chip": "ym2612"
    },
    {
      "channel": 3,
      "note": 73,
      "start": 26.0678,
      "duration": 0.0385,
      "velocity": 28,
      "chip": "ym2612"
    },
    {
      "channel": 4,
      "note": 70,
      "start": 26.0704,
      "duration": 0.0364,
      "velocity": 28,
      "chip": "ym2612"
    },
    {
      "channel": 0,
      "note": 26,
      "start": 26.1692,
      "duration": 0.1981,
      "velocity": 125,
      "chip": "ym2612"
    },
    {
      "channel": 2,
      "note": 76,
      "start": 26.1707,
      "duration": 0.0924,
      "velocity": 110,
      "chip": "ym2612"
    },
    {
      "channel": 3,
      "note": 73,
      "start": 26.1739,
      "duration": 0.0372,
      "velocity": 28,
      "chip": "ym2612"
    },
    {
      "channel": 4,
      "note": 70,
      "start": 26.1766,
      "duration": 0.0351,
      "velocity": 28,
      "chip": "ym2612"
    },
    {
      "channel": 5,
      "note": 46,
      "start": 26.1776,
      "duration": 0.2244,
      "velocity": 101,
      "chip": "ym2612"
    },
    {
      "channel": 3,
      "note": 73,
      "start": 26.277,
      "duration": 0.0394,
      "velocity": 28,
      "chip": "ym2612"
    },
    {
      "channel": 4,
      "note": 70,
      "start": 26.2797,
      "duration": 0.0374,
      "velocity": 28,
      "chip": "ym2612"
    },
    {
      "channel": 0,
      "note": 26,
      "start": 26.3798,
      "duration": 0.0933,
      "velocity": 125,
      "chip": "ym2612"
    },
    {
      "channel": 1,
      "note": 45,
      "start": 26.3807,
      "duration": 0.1978,
      "velocity": 113,
      "chip": "ym2612"
    },
    {
      "channel": 3,
      "note": 73,
      "start": 26.384,
      "duration": 0.0377,
      "velocity": 28,
      "chip": "ym2612"
    },
    {
      "channel": 4,
      "note": 70,
      "start": 26.3868,
      "duration": 0.0361,
      "velocity": 28,
      "chip": "ym2612"
    },
    {
      "channel": 0,
      "note": 26,
      "start": 26.4851,
      "duration": 0.5141,
      "velocity": 1,
      "chip": "ym2612"
    },
    {
      "channel": 3,
      "note": 73,
      "start": 26.4896,
      "duration": 0.0376,
      "velocity": 28,
      "chip": "ym2612"
    },
    {
      "channel": 4,
      "note": 70,
      "start": 26.4923,
      "duration": 0.0354,
      "velocity": 28,
      "chip": "ym2612"
    },
    {
      "channel": 5,
      "note": 39,
      "start": 26.4933,
      "duration": 0.0667,
      "velocity": 101,
      "chip": "ym2612"
    },
    {
      "channel": 1,
      "note": 45,
      "start": 26.5898,
      "duration": 0.1999,
      "velocity": 113,
      "chip": "ym2612"
    },
    {
      "channel": 2,
      "note": 76,
      "start": 26.5907,
      "duration": 0.0938,
      "velocity": 110,
      "chip": "ym2612"
    },
    {
      "channel": 3,
      "note": 73,
      "start": 26.5935,
      "duration": 0.0495,
      "velocity": 28,
      "chip": "ym2612"
    },
    {
      "channel": 4,
      "note": 70,
      "start": 26.5962,
      "duration": 0.0474,
      "velocity": 28,
      "chip": "ym2612"
    },
    {
      "channel": 5,
      "note": 41,
      "start": 26.5971,
      "duration": 0.0366,
      "velocity": 101,
      "chip": "ym2612"
    },
    {
      "channel": 3,
      "note": 73,
      "start": 26.6978,
      "duration": 0.0505,
      "velocity": 28,
      "chip": "ym2612"
    },
    {
      "channel": 4,
      "note": 70,
      "start": 26.7005,
      "duration": 0.0484,
      "velocity": 28,
      "chip": "ym2612"
    },
    {
      "channel": 1,
      "note": 45,
      "start": 26.8,
      "duration": 0.6213,
      "velocity": 113,
      "chip": "ym2612"
    },
    {
      "channel": 5,
      "note": 49,
      "start": 26.8028,
      "duration": 0.1785,
      "velocity": 101,
      "chip": "ym2612"
    },
    {
      "channel": 0,
      "note": 26,
      "start": 27.0118,
      "duration": 0.0928,
      "velocity": 125,
      "chip": "ym2612"
    },
    {
      "channel": 2,
      "note": 76,
      "start": 27.0134,
      "duration": 0.093,
      "velocity": 110,
      "chip": "ym2612"
    },
    {
      "channel": 5,
      "note": 48,
      "start": 27.0155,
      "duration": 0.1242,
      "velocity": 101,
      "chip": "ym2612"
    },
    {
      "channel": 0,
      "note": 26,
      "start": 27.1171,
      "duration": 0.1982,
      "velocity": 125,
      "chip": "ym2612"
    },
    {
      "channel": 2,
      "note": 78,
      "start": 27.2242,
      "duration": 0.0923,
      "velocity": 111,
      "chip": "ym2612"
    },
    {
      "channel": 5,
      "note": 44,
      "start": 27.2264,
      "duration": 0.092,
      "velocity": 101,
      "chip": "ym2612"
    },
    {
      "channel": 0,
      "note": 26,
      "start": 27.3278,
      "duration": 0.0928,
      "velocity": 1,
      "chip": "ym2612"
    },
    {
      "channel": 0,
      "note": 26,
      "start": 27.4333,
      "duration": 0.4086,
      "velocity": 125,
      "chip": "ym2612"
    },
    {
      "channel": 2,
      "note": 70,
      "start": 27.4396,
      "duration": 0.6143,
      "velocity": 127,
      "chip": "ym2612"
    },
    {
      "channel": 3,
      "note": 88,
      "start": 27.4425,
      "duration": 0.0091,
      "velocity": 94,
      "chip": "ym2612"
    },
    {
      "channel": 5,
      "note": 42,
      "start": 27.4482,
      "duration": 0.5865,
      "velocity": 101,
      "chip": "ym2612"
    },
    {
      "channel": 3,
      "note": 88,
      "start": 27.4516,
      "duration": 0.0007,
      "velocity": 94,
      "chip": "ym2612"
    },
    {
      "channel": 3,
      "note": 88,
      "start": 27.4523,
      "duration": 0.0049,
      "velocity": 94,
      "chip": "ym2612"
    },
    {
      "channel": 3,
      "note": 89,
      "start": 27.4571,
      "duration": 0.008,
      "velocity": 94,
      "chip": "ym2612"
    },
    {
      "channel": 3,
      "note": 89,
      "start": 27.4651,
      "duration": 0.0106,
      "velocity": 94,
      "chip": "ym2612"
    },
    {
      "channel": 3,
      "note": 89,
      "start": 27.4757,
      "duration": 0.0105,
      "velocity": 94,
      "chip": "ym2612"
    },
    {
      "channel": 3,
      "note": 89,
      "start": 27.4862,
      "duration": 0.0105,
      "velocity": 94,
      "chip": "ym2612"
    },
    {
      "channel": 3,
      "note": 90,
      "start": 27.4968,
      "duration": 0.011,
      "velocity": 94,
      "chip": "ym2612"
    },
    {
      "channel": 3,
      "note": 90,
      "start": 27.5078,
      "duration": 0.01,
      "velocity": 94,
      "chip": "ym2612"
    },
    {
      "channel": 3,
      "note": 90,
      "start": 27.5178,
      "duration": 0.5366,
      "velocity": 94,
      "chip": "ym2612"
    },
    {
      "channel": 0,
      "note": 26,
      "start": 27.8527,
      "duration": 0.4106,
      "velocity": 125,
      "chip": "ym2612"
    },
    {
      "channel": 2,
      "note": 76,
      "start": 28.0682,
      "duration": 0.4069,
      "velocity": 110,
      "chip": "ym2612"
    },
    {
      "channel": 5,
      "note": 37,
      "start": 28.0706,
      "duration": 0.0803,
      "velocity": 101,
      "chip": "ym2612"
    },
    {
      "channel": 3,
      "note": 88,
      "start": 28.0757,
      "duration": 0.0635,
      "velocity": 94,
      "chip": "ym2612"
    },
    {
      "channel": 3,
      "note": 90,
      "start": 28.1495,
      "duration": 0.0314,
      "velocity": 94,
      "chip": "ym2612"
    },
    {
      "channel": 5,
      "note": 39,
      "start": 28.1718,
      "duration": 0.0846,
      "velocity": 101,
      "chip": "ym2612"
    },
    {
      "channel": 3,
      "note": 88,
      "start": 28.1919,
      "duration": 0.0627,
      "velocity": 94,
      "chip": "ym2612"
    },
    {
      "channel": 3,
      "note": 87,
      "start": 28.2654,
      "duration": 0.5896,
      "velocity": 94,
      "chip": "ym2612"
    },
    {
      "channel": 0,
      "note": 26,
      "start": 28.2741,
      "duration": 0.4106,
      "velocity": 125,
      "chip": "ym2612"
    },
    {
      "channel": 5,
      "note": 42,
      "start": 28.2774,
      "duration": 1.0001,
      "velocity": 101,
      "chip": "ym2612"
    },
    {
      "channel": 2,
      "note": 76,
      "start": 28.486,
      "duration": 0.4105,
      "velocity": 110,
      "chip": "ym2612"
    },
    {
      "channel": 0,
      "note": 26,
      "start": 28.6954,
      "duration": 0.411,
      "velocity": 125,
      "chip": "ym2612"
    },
    {
      "channel": 3,
      "note": 85,
      "start": 28.8657,
      "duration": 0.0741,
      "velocity": 94,
      "chip": "ym2612"
    },
    {
      "channel": 2,
      "note": 76,
      "start": 28.9078,
      "duration": 0.41,
      "velocity": 110,
      "chip": "ym2612"
    },
    {
      "channel": 3,
      "note": 87,
      "start": 28.95,
      "duration": 0.0314,
      "velocity": 94,
      "chip": "ym2612"
    },
    {
      "channel": 3,
      "note": 85,
      "start": 29.0027,
      "duration": 0.0735,
      "velocity": 94,
      "chip": "ym2612"
    },
    {
      "channel": 3,
      "note": 83,
      "start": 29.087,
      "duration": 0.6317,
      "velocity": 94,
      "chip": "ym2612"
    },
    {
      "channel": 0,
      "note": 26,
      "start": 29.1167,
      "duration": 0.4106,
      "velocity": 125,
      "chip": "ym2612"
    },
    {
      "channel": 2,
      "note": 76,
      "start": 29.3286,
      "duration": 0.4111,
      "velocity": 110,
      "chip": "ym2612"
    },
    {
      "channel": 5,
      "note": 37,
      "start": 29.3308,
      "duration": 0.0948,
      "velocity": 101,
      "chip": "ym2612"
    },
    {
      "channel": 5,
      "note": 39,
      "start": 29.4358,
      "duration": 0.0946,
      "velocity": 101,
      "chip": "ym2612"
    },
    {
      "channel": 0,
      "note": 26,
      "start": 29.538,
      "duration": 0.4106,
      "velocity": 125,
      "chip": "ym2612"
    },
    {
      "channel": 5,
      "note": 42,
      "start": 29.5419,
      "duration": 0.0938,
      "velocity": 101,
      "chip": "ym2612"
    },
    {
      "channel": 5,
      "note": 44,
      "start": 29.6464,
      "duration": 0.0952,
      "velocity": 101,
      "chip": "ym2612"
    },
    {
      "channel": 3,
      "note": 82,
      "start": 29.7295,
      "duration": 0.063,
      "velocity": 94,
      "chip": "ym2612"
    },
    {
      "channel": 2,
      "note": 76,
      "start": 29.75,
      "duration": 1.0426,
      "velocity": 110,
      "chip": "ym2612"
    },
    {
      "channel": 5,
      "note": 42,
      "start": 29.7522,
      "duration": 0.0942,
      "velocity": 101,
      "chip": "ym2612"
    },
    {
      "channel": 3,
      "note": 83,
      "start": 29.8032,
      "duration": 0.053,
      "velocity": 94,
      "chip": "ym2612"
    },
    {
      "channel": 5,
      "note": 39,
      "start": 29.8577,
      "duration": 0.0941,
      "velocity": 101,
      "chip": "ym2612"
    },
    {
      "channel": 3,
      "note": 82,
      "start": 29.8664,
      "duration": 0.0949,
      "velocity": 94,
      "chip": "ym2612"
    },
    {
      "channel": 0,
      "note": 26,
      "start": 29.9594,
      "duration": 0.4106,
      "velocity": 125,
      "chip": "ym2612"
    },
    {
      "channel": 5,
      "note": 42,
      "start": 29.9629,
      "duration": 0.821,
      "velocity": 101,
      "chip": "ym2612"
    },
    {
      "channel": 3,
      "note": 80,
      "start": 29.9823,
      "duration": 0.3585,
      "velocity": 94,
      "chip": "ym2612"
    },
    {
      "channel": 4,
      "note": 44,
      "start": 30.0672,
      "duration": 0.0946,
      "velocity": 113,
      "chip": "ym2612"
    },
    {
      "channel": 4,
      "note": 44,
      "start": 30.173,
      "duration": 0.2,
      "velocity": 113,
      "chip": "ym2612"
    },
    {
      "channel": 3,
      "note": 78,
      "start": 30.3615,
      "duration": 0.3579,
      "velocity": 94,
      "chip": "ym2612"
    },
    {
      "channel": 0,
      "note": 26,
      "start": 30.3807,
      "duration": 0.4106,
      "velocity": 125,
      "chip": "ym2612"
    },
    {
      "channel": 4,
      "note": 42,
      "start": 30.3835,
      "duration": 0.1996,
      "velocity": 113,
      "chip": "ym2612"
    },
    {
      "channel": 4,
      "note": 40,
      "start": 30.5938,
      "duration": 0.0946,
      "velocity": 113,
      "chip": "ym2612"
    },
    {
      "channel": 4,
      "note": 40,
      "start": 30.6992,
      "duration": 0.7903,
      "velocity": 113,
      "chip": "ym2612"
    },
    {
      "channel": 0,
      "note": 26,
      "start": 30.802,
      "duration": 0.4106,
      "velocity": 125,
      "chip": "ym2612"
    },
    {
      "channel": 1,
      "note": 26,
      "start": 30.803,
      "duration": 0.031,
      "velocity": 106,
      "chip": "ym2612"
    },
    {
      "channel": 2,
      "note": 70,
      "start": 30.8062,
      "duration": 0.6184,
      "velocity": 127,
      "chip": "ym2612"
    },
    {
      "channel": 3,
      "note": 82,
      "start": 30.8071,
      "duration": 0.0913,
      "velocity": 94,
      "chip": "ym2612"
    },
    {
      "channel": 5,
      "note": 46,
      "start": 30.8087,
      "duration": 0.081,
      "velocity": 101,
      "chip": "ym2612"
    },
    {
      "channel": 1,
      "note": 26,
      "start": 30.908,
      "duration": 0.0419,
      "velocity": 106,
      "chip": "ym2612"
    },
    {
      "channel": 3,
      "note": 83,
      "start": 30.9095,
      "duration": 0.0943,
      "velocity": 94,
      "chip": "ym2612"
    },
    {
      "channel": 5,
      "note": 47,
      "start": 30.9111,
      "duration": 0.0834,
      "velocity": 101,
      "chip": "ym2612"
    },
    {
      "channel": 1,
      "note": 26,
      "start": 31.0133,
      "duration": 0.0314,
      "velocity": 106,
      "chip": "ym2612"
    },
    {
      "channel": 3,
      "note": 82,
      "start": 31.0149,
      "duration": 0.0943,
      "velocity": 94,
      "chip": "ym2612"
    },
    {
      "channel": 5,
      "note": 46,
      "start": 31.0165,
      "duration": 0.0834,
      "velocity": 101,
      "chip": "ym2612"
    },
    {
      "channel": 1,
      "note": 26,
      "start": 31.1186,
      "duration": 0.0525,
      "velocity": 106,
      "chip": "ym2612"
    },
    {
      "channel": 3,
      "note": 80,
      "start": 31.1202,
      "duration": 0.0943,
      "velocity": 94,
      "chip": "ym2612"
    },
    {
      "channel": 5,
      "note": 44,
      "start": 31.1218,
      "duration": 0.0836,
      "velocity": 101,
      "chip": "ym2612"
    },
    {
      "channel": 0,
      "note": 26,
      "start": 31.2234,
      "duration": 0.4106,
      "velocity": 125,
      "chip": "ym2612"
    },
    {
      "channel": 1,
      "note": 26,
      "start": 31.2243,
      "duration": 0.0416,
      "velocity": 106,
      "chip": "ym2612"
    },
    {
      "channel": 3,
      "note": 85,
      "start": 31.2259,
      "duration": 0.094,
      "velocity": 94,
      "chip": "ym2612"
    },
    {
      "channel": 5,
      "note": 49,
      "start": 31.2275,
      "duration": 0.0937,
      "velocity": 101,
      "chip": "ym2612"
    },
    {
      "channel": 1,
      "note": 26,
      "start": 31.3293,
      "duration": 0.0419,
      "velocity": 106,
      "chip": "ym2612"
    },
    {
      "channel": 3,
      "note": 83,
      "start": 31.3309,
      "duration": 0.0943,
      "velocity": 94,
      "chip": "ym2612"
    },
    {
      "channel": 5,
      "note": 47,
      "start": 31.3324,
      "duration": 0.094,
      "velocity": 101,
      "chip": "ym2612"
    },
    {
      "channel": 1,
      "note": 26,
      "start": 31.4346,
      "duration": 0.0314,
      "velocity": 106,
      "chip": "ym2612"
    },
    {
      "channel": 2,
      "note": 76,
      "start": 31.4398,
      "duration": 0.0901,
      "velocity": 110,
      "chip": "ym2612"
    },
    {
      "channel": 3,
      "note": 82,
      "start": 31.4407,
      "duration": 0.0898,
      "velocity": 94,
      "chip": "ym2612"
    },
    {
      "channel": 5,
      "note": 46,
      "start": 31.4423,
      "duration": 0.0895,
      "velocity": 101,
      "chip": "ym2612"
    },
    {
      "channel": 1,
      "note": 26,
      "start": 31.5405,
      "duration": 0.0625,
      "velocity": 106,
      "chip": "ym2612"
    },
    {
      "channel": 2,
      "note": 76,
      "start": 31.5415,
      "duration": 0.0938,
      "velocity": 110,
      "chip": "ym2612"
    },
    {
      "channel": 3,
      "note": 80,
      "start": 31.5424,
      "duration": 0.0934,
      "velocity": 94,
      "chip": "ym2612"
    },
    {
      "channel": 5,
      "note": 44,
      "start": 31.544,
      "duration": 0.0932,
      "velocity": 101,
      "chip": "ym2612"
    },
    {
      "channel": 0,
      "note": 26,
      "start": 31.6447,
      "duration": 0.4111,
      "velocity": 125,
      "chip": "ym2612"
    },
    {
      "channel": 1,
      "note": 26,
      "start": 31.6456,
      "duration": 0.0522,
      "velocity": 106,
      "chip": "ym2612"
    },
    {
      "channel": 2,
      "note": 76,
      "start": 31.6466,
      "duration": 0.1993,
      "velocity": 110,
      "chip": "ym2612"
    },
    {
      "channel": 3,
      "note": 78,
      "start": 31.6475,
      "duration": 0.1041,
      "velocity": 94,
      "chip": "ym2612"
    },
    {
      "channel": 5,
      "note": 42,
      "start": 31.6491,
      "duration": 0.0937,
      "velocity": 101,
      "chip": "ym2612"
    },
    {
      "channel": 1,
      "note": 26,
      "start": 31.8565,
      "duration": 0.052,
      "velocity": 106,
      "chip": "ym2612"
    },
    {
      "channel": 2,
      "note": 76,
      "start": 31.8575,
      "duration": 0.1996,
      "velocity": 110,
      "chip": "ym2612"
    },
    {
      "channel": 3,
      "note": 80,
      "start": 31.8584,
      "duration": 0.0832,
      "velocity": 94,
      "chip": "ym2612"
    },
    {
      "channel": 5,
      "note": 44,
      "start": 31.86,
      "duration": 0.0932,
      "velocity": 101,
      "chip": "ym2612"
    },
    {
      "channel": 0,
      "note": 26,
      "start": 32.0661,
      "duration": 0.4106,
      "velocity": 125,
      "chip": "ym2612"
    },
    {
      "channel": 1,
      "note": 26,
      "start": 32.067,
      "duration": 0.031,
      "velocity": 106,
      "chip": "ym2612"
    },
    {
      "channel": 2,
      "note": 78,
      "start": 32.0697,
      "duration": 0.4082,
      "velocity": 111,
      "chip": "ym2612"
    },
    {
      "channel": 3,
      "note": 75,
      "start": 32.0707,
      "duration": 0.0709,
      "velocity": 94,
      "chip": "ym2612"
    },
    {
      "channel": 5,
      "note": 39,
      "start": 32.0728,
      "duration": 0.1752,
      "velocity": 101,
      "chip": "ym2612"
    },
    {
      "channel": 1,
      "note": 26,
      "start": 32.2773,
      "duration": 0.0631,
      "velocity": 106,
      "chip": "ym2612"
    },
    {
      "channel": 3,
      "note": 78,
      "start": 32.2789,
      "duration": 0.0947,
      "velocity": 94,
      "chip": "ym2612"
    },
    {
      "channel": 5,
      "note": 42,
      "start": 32.2805,
      "duration": 0.0945,
      "velocity": 101,
      "chip": "ym2612"
    },
    {
      "channel": 0,
      "note": 26,
      "start": 32.4874,
      "duration": 0.4106,
      "velocity": 125,
      "chip": "ym2612"
    },
    {
      "channel": 1,
      "note": 26,
      "start": 32.4883,
      "duration": 0.0311,
      "velocity": 106,
      "chip": "ym2612"
    },
    {
      "channel": 2,
      "note": 76,
      "start": 32.4916,
      "duration": 0.1971,
      "velocity": 110,
      "chip": "ym2612"
    },
    {
      "channel": 3,
      "note": 73,
      "start": 32.4925,
      "duration": 0.0702,
      "velocity": 94,
      "chip": "ym2612"
    },
    {
      "channel": 5,
      "note": 49,
      "start": 32.4941,
      "duration": 0.091,
      "velocity": 101,
      "chip": "ym2612"
    },
    {
      "channel": 1,
      "note": 26,
      "start": 32.6987,
      "duration": 0.0314,
      "velocity": 106,
      "chip": "ym2612"
    },
    {
      "channel": 2,
      "note": 76,
      "start": 32.6996,
      "duration": 0.0942,
      "velocity": 110,
      "chip": "ym2612"
    },
    {
      "channel": 3,
      "note": 75,
      "start": 32.7006,
      "duration": 0.0939,
      "velocity": 94,
      "chip": "ym2612"
    },
    {
      "channel": 5,
      "note": 51,
      "start": 32.7022,
      "duration": 0.0936,
      "velocity": 101,
      "chip": "ym2612"
    },
    {
      "channel": 2,
      "note": 76,
      "start": 32.8046,
      "duration": 0.0946,
      "velocity": 110,
      "chip": "ym2612"
    },
    {
      "channel": 0,
      "note": 26,
      "start": 32.9087,
      "duration": 0.4106,
      "velocity": 125,
      "chip": "ym2612"
    },
    {
      "channel": 1,
      "note": 26,
      "start": 32.9097,
      "duration": 0.031,
      "velocity": 106,
      "chip": "ym2612"
    },
    {
      "channel": 2,
      "note": 76,
      "start": 32.9106,
      "duration": 0.1992,
      "velocity": 110,
      "chip": "ym2612"
    },
    {
      "channel": 5,
      "note": 47,
      "start": 32.9129,
      "duration": 0.0625,
      "velocity": 101,
      "chip": "ym2612"
    },
    {
      "channel": 3,
      "note": 71,
      "start": 32.9211,
      "duration": 0.0629,
      "velocity": 94,
      "chip": "ym2612"
    },
    {
      "channel": 1,
      "note": 26,
      "start": 33.12,
      "duration": 0.0209,
      "velocity": 106,
      "chip": "ym2612"
    },
    {
      "channel": 2,
      "note": 76,
      "start": 33.1209,
      "duration": 0.0943,
      "velocity": 110,
      "chip": "ym2612"
    },
    {
      "channel": 5,
      "note": 49,
      "start": 33.1237,
      "duration": 0.0936,
      "velocity": 101,
      "chip": "ym2612"
    },
    {
      "channel": 3,
      "note": 73,
      "start": 33.1317,
      "duration": 0.0737,
      "velocity": 94,
      "chip": "ym2612"
    },
    {
      "channel": 2,
      "note": 76,
      "start": 33.226,
      "duration": 0.0946,
      "velocity": 110,
      "chip": "ym2612"
    },
    {
      "channel": 0,
      "note": 26,
      "start": 33.3301,
      "duration": 0.4106,
      "velocity": 125,
      "chip": "ym2612"
    },
    {
      "channel": 1,
      "note": 26,
      "start": 33.331,
      "duration": 0.0205,
      "velocity": 106,
      "chip": "ym2612"
    },
    {
      "channel": 2,
      "note": 76,
      "start": 33.332,
      "duration": 0.1993,
      "velocity": 110,
      "chip": "ym2612"
    },
    {
      "channel": 5,
      "note": 46,
      "start": 33.3342,
      "duration": 0.0936,
      "velocity": 101,
      "chip": "ym2612"
    },
    {
      "channel": 3,
      "note": 70,
      "start": 33.3424,
      "duration": 0.0735,
      "velocity": 94,
      "chip": "ym2612"
    },
    {
      "channel": 1,
      "note": 26,
      "start": 33.5414,
      "duration": 0.0319,
      "velocity": 106,
      "chip": "ym2612"
    },
    {
      "channel": 2,
      "note": 76,
      "start": 33.5423,
      "duration": 0.1996,
      "velocity": 110,
      "chip": "ym2612"
    },
    {
      "channel": 5,
      "note": 47,
      "start": 33.5445,
      "duration": 0.0939,
      "velocity": 101,
      "chip": "ym2612"
    },
    {
      "channel": 3,
      "note": 71,
      "start": 33.5531,
      "duration": 0.084,
      "velocity": 94,
      "chip": "ym2612"
    },
    {
      "channel": 0,
      "note": 26,
      "start": 33.7514,
      "duration": 0.4106,
      "velocity": 125,
      "chip": "ym2612"
    },
    {
      "channel": 1,
      "note": 26,
      "start": 33.7523,
      "duration": 0.0416,
      "velocity": 106,
      "chip": "ym2612"
    },
    {
      "channel": 2,
      "note": 78,
      "start": 33.7551,
      "duration": 0.1975,
      "velocity": 111,
      "chip": "ym2612"
    },
    {
      "channel": 5,
      "note": 44,
      "start": 33.7578,
      "duration": 0.0913,
      "velocity": 101,
      "chip": "ym2612"
    },
    {
      "channel": 3,
      "note": 68,
      "start": 33.7638,
      "duration": 0.084,
      "velocity": 94,
      "chip": "ym2612"
    },
    {
      "channel": 1,
      "note": 26,
      "start": 33.9627,
      "duration": 0.0209,
      "velocity": 106,
      "chip": "ym2612"
    },
    {
      "channel": 2,
      "note": 76,
      "start": 33.9655,
      "duration": 0.1978,
      "velocity": 110,
      "chip": "ym2612"
    },
    {
      "channel": 5,
      "note": 46,
      "start": 33.9677,
      "duration": 0.0921,
      "velocity": 101,
      "chip": "ym2612"
    },
    {
      "channel": 3,
      "note": 70,
      "start": 33.9749,
      "duration": 0.0836,
      "velocity": 94,
      "chip": "ym2612"
    },
    {
      "channel": 1,
      "note": 26,
      "start": 34.068,
      "duration": 0.0419,
      "velocity": 106,
      "chip": "ym2612"
    },
    {
      "channel": 0,
      "note": 26,
      "start": 34.1751,
      "duration": 0.4083,
      "velocity": 125,
      "chip": "ym2612"
    },
    {
      "channel": 2,
      "note": 70,
      "start": 34.1805,
      "duration": 0.6146,
      "velocity": 127,
      "chip": "ym2612"
    },
    {
      "channel": 3,
      "note": 89,
      "start": 34.1835,
      "duration": 0.0095,
      "velocity": 94,
      "chip": "ym2612"
    },
    {
      "channel": 5,
      "note": 43,
      "start": 34.1895,
      "duration": 0.5867,
      "velocity": 101,
      "chip": "ym2612"
    },
    {
      "channel": 3,
      "note": 89,
      "start": 34.1929,
      "duration": 0.0007,
      "velocity": 94,
      "chip": "ym2612"
    },
    {
      "channel": 3,
      "note": 89,
      "start": 34.1937,
      "duration": 0.0044,
      "velocity": 94,
      "chip": "ym2612"
    },
    {
      "channel": 3,
      "note": 90,
      "start": 34.198,
      "duration": 0.009,
      "velocity": 94,
      "chip": "ym2612"
    },
    {
      "channel": 3,
      "note": 90,
      "start": 34.207,
      "duration": 0.01,
      "velocity": 94,
      "chip": "ym2612"
    },
    {
      "channel": 3,
      "note": 90,
      "start": 34.2171,
      "duration": 0.0106,
      "velocity": 94,
      "chip": "ym2612"
    },
    {
      "channel": 3,
      "note": 90,
      "start": 34.2276,
      "duration": 0.0105,
      "velocity": 94,
      "chip": "ym2612"
    },
    {
      "channel": 3,
      "note": 90,
      "start": 34.2381,
      "duration": 0.0106,
      "velocity": 94,
      "chip": "ym2612"
    },
    {
      "channel": 3,
      "note": 91,
      "start": 34.2487,
      "duration": 0.0105,
      "velocity": 94,
      "chip": "ym2612"
    },
    {
      "channel": 3,
      "note": 91,
      "start": 34.2592,
      "duration": 0.5367,
      "velocity": 94,
      "chip": "ym2612"
    },
    {
      "channel": 0,
      "note": 26,
      "start": 34.5941,
      "duration": 0.4105,
      "velocity": 125,
      "chip": "ym2612"
    },
    {
      "channel": 2,
      "note": 76,
      "start": 34.8101,
      "duration": 0.4064,
      "velocity": 110,
      "chip": "ym2612"
    },
    {
      "channel": 5,
      "note": 38,
      "start": 34.8125,
      "duration": 0.0802,
      "velocity": 101,
      "chip": "ym2612"
    },
    {
      "channel": 3,
      "note": 89,
      "start": 34.8171,
      "duration": 0.063,
      "velocity": 94,
      "chip": "ym2612"
    },
    {
      "channel": 3,
      "note": 91,
      "start": 34.8914,
      "duration": 0.0314,
      "velocity": 94,
      "chip": "ym2612"
    },
    {
      "channel": 5,
      "note": 40,
      "start": 34.9132,
      "duration": 0.0841,
      "velocity": 101,
      "chip": "ym2612"
    },
    {
      "channel": 3,
      "note": 89,
      "start": 34.933,
      "duration": 0.063,
      "velocity": 94,
      "chip": "ym2612"
    },
    {
      "channel": 3,
      "note": 88,
      "start": 35.0073,
      "duration": 0.5891,
      "velocity": 94,
      "chip": "ym2612"
    },
    {
      "channel": 0,
      "note": 26,
      "start": 35.0154,
      "duration": 0.4106,
      "velocity": 125,
      "chip": "ym2612"
    },
    {
      "channel": 5,
      "note": 43,
      "start": 35.0188,
      "duration": 1.0001,
      "velocity": 101,
      "chip": "ym2612"
    },
    {
      "channel": 2,
      "note": 76,
      "start": 35.2273,
      "duration": 0.4106,
      "velocity": 110,
      "chip": "ym2612"
    },
    {
      "channel": 0,
      "note": 26,
      "start": 35.4368,
      "duration": 0.4106,
      "velocity": 125,
      "chip": "ym2612"
    },
    {
      "channel": 3,
      "note": 86,
      "start": 35.6076,
      "duration": 0.073,
      "velocity": 94,
      "chip": "ym2612"
    },
    {
      "channel": 2,
      "note": 76,
      "start": 35.6487,
      "duration": 0.4105,
      "velocity": 110,
      "chip": "ym2612"
    },
    {
      "channel": 3,
      "note": 88,
      "start": 35.6917,
      "duration": 0.0315,
      "velocity": 94,
      "chip": "ym2612"
    },
    {
      "channel": 3,
      "note": 86,
      "start": 35.7441,
      "duration": 0.0735,
      "velocity": 94,
      "chip": "ym2612"
    },
    {
      "channel": 3,
      "note": 84,
      "start": 35.8283,
      "duration": 0.6318,
      "velocity": 94,
      "chip": "ym2612"
    },
    {
      "channel": 0,
      "note": 26,
      "start": 35.8581,
      "duration": 0.4105,
      "velocity": 125,
      "chip": "ym2612"
    },
    {
      "channel": 2,
      "note": 76,
      "start": 36.07,
      "duration": 0.4106,
      "velocity": 110,
      "chip": "ym2612"
    },
    {
      "channel": 5,
      "note": 38,
      "start": 36.0727,
      "duration": 0.0937,
      "velocity": 101,
      "chip": "ym2612"
    },
    {
      "channel": 5,
      "note": 40,
      "start": 36.1772,
      "duration": 0.0947,
      "velocity": 101,
      "chip": "ym2612"
    },
    {
      "channel": 0,
      "note": 26,
      "start": 36.2795,
      "duration": 0.4106,
      "velocity": 125,
      "chip": "ym2612"
    },
    {
      "channel": 5,
      "note": 43,
      "start": 36.2828,
      "duration": 0.0943,
      "velocity": 101,
      "chip": "ym2612"
    },
    {
      "channel": 5,
      "note": 45,
      "start": 36.3879,
      "duration": 0.0946,
      "velocity": 101,
      "chip": "ym2612"
    },
    {
      "channel": 3,
      "note": 83,
      "start": 36.4709,
      "duration": 0.063,
      "velocity": 94,
      "chip": "ym2612"
    },
    {
      "channel": 2,
      "note": 76,
      "start": 36.4914,
      "duration": 1.0426,
      "velocity": 110,
      "chip": "ym2612"
    },
    {
      "channel": 5,
      "note": 43,
      "start": 36.4935,
      "duration": 0.0943,
      "velocity": 101,
      "chip": "ym2612"
    },
    {
      "channel": 3,
      "note": 84,
      "start": 36.5446,
      "duration": 0.0524,
      "velocity": 94,
      "chip": "ym2612"
    },
    {
      "channel": 5,
      "note": 40,
      "start": 36.5985,
      "duration": 0.0946,
      "velocity": 101,
      "chip": "ym2612"
    },
    {
      "channel": 3,
      "note": 83,
      "start": 36.6083,
      "duration": 0.0944,
      "velocity": 94,
      "chip": "ym2612"
    },
    {
      "channel": 0,
      "note": 26,
      "start": 36.7008,
      "duration": 0.4106,
      "velocity": 125,
      "chip": "ym2612"
    },
    {
      "channel": 5,
      "note": 43,
      "start": 36.7042,
      "duration": 0.8216,
      "velocity": 101,
      "chip": "ym2612"
    },
    {
      "channel": 3,
      "note": 81,
      "start": 36.7242,
      "duration": 0.3574,
      "velocity": 94,
      "chip": "ym2612"
    },
    {
      "channel": 4,
      "note": 44,
      "start": 36.809,
      "duration": 0.0941,
      "velocity": 113,
      "chip": "ym2612"
    },
    {
      "channel": 4,
      "note": 44,
      "start": 36.9139,
      "duration": 0.1999,
      "velocity": 113,
      "chip": "ym2612"
    },
    {
      "channel": 3,
      "note": 79,
      "start": 37.1029,
      "duration": 0.3579,
      "velocity": 94,
      "chip": "ym2612"
    },
    {
      "channel": 0,
      "note": 26,
      "start": 37.1226,
      "duration": 0.4101,
      "velocity": 125,
      "chip": "ym2612"
    },
    {
      "channel": 4,
      "note": 42,
      "start": 37.1254,
      "duration": 0.1995,
      "velocity": 113,
      "chip": "ym2612"
    },
    {
      "channel": 4,
      "note": 40,
      "start": 37.3352,
      "duration": 0.0946,
      "velocity": 113,
      "chip": "ym2612"
    },
    {
      "channel": 4,
      "note": 40,
      "start": 37.441,
      "duration": 0.7893,
      "velocity": 113,
      "chip": "ym2612"
    },
    {
      "channel": 0,
      "note": 26,
      "start": 37.5435,
      "duration": 0.4105,
      "velocity": 125,
      "chip": "ym2612"
    },
    {
      "channel": 1,
      "note": 26,
      "start": 37.5444,
      "duration": 0.031,
      "velocity": 106,
      "chip": "ym2612"
    },
    {
      "channel": 2,
      "note": 70,
      "start": 37.5471,
      "duration": 0.6188,
      "velocity": 127,
      "chip": "ym2612"
    },
    {
      "channel": 3,
      "note": 83,
      "start": 37.548,
      "duration": 0.0923,
      "velocity": 94,
      "chip": "ym2612"
    },
    {
      "channel": 5,
      "note": 47,
      "start": 37.5496,
      "duration": 0.081,
      "velocity": 101,
      "chip": "ym2612"
    },
    {
      "channel": 1,
      "note": 26,
      "start": 37.6494,
      "duration": 0.0419,
      "velocity": 106,
      "chip": "ym2612"
    },
    {
      "channel": 3,
      "note": 84,
      "start": 37.651,
      "duration": 0.0943,
      "velocity": 94,
      "chip": "ym2612"
    },
    {
      "channel": 5,
      "note": 48,
      "start": 37.6526,
      "duration": 0.0833,
      "velocity": 101,
      "chip": "ym2612"
    },
    {
      "channel": 1,
      "note": 26,
      "start": 37.7547,
      "duration": 0.0314,
      "velocity": 106,
      "chip": "ym2612"
    },
    {
      "channel": 3,
      "note": 83,
      "start": 37.7568,
      "duration": 0.0938,
      "velocity": 94,
      "chip": "ym2612"
    },
    {
      "channel": 5,
      "note": 47,
      "start": 37.7583,
      "duration": 0.0834,
      "velocity": 101,
      "chip": "ym2612"
    },
    {
      "channel": 1,
      "note": 26,
      "start": 37.86,
      "duration": 0.0525,
      "velocity": 106,
      "chip": "ym2612"
    },
    {
      "channel": 3,
      "note": 81,
      "start": 37.8616,
      "duration": 0.0949,
      "velocity": 94,
      "chip": "ym2612"
    },
    {
      "channel": 5,
      "note": 45,
      "start": 37.8632,
      "duration": 0.0834,
      "velocity": 101,
      "chip": "ym2612"
    },
    {
      "channel": 0,
      "note": 26,
      "start": 37.9648,
      "duration": 0.4106,
      "velocity": 125,
      "chip": "ym2612"
    },
    {
      "channel": 1,
      "note": 26,
      "start": 37.9657,
      "duration": 0.0415,
      "velocity": 106,
      "chip": "ym2612"
    },
    {
      "channel": 3,
      "note": 86,
      "start": 37.9673,
      "duration": 0.0939,
      "velocity": 94,
      "chip": "ym2612"
    },
    {
      "channel": 5,
      "note": 50,
      "start": 37.9688,
      "duration": 0.0937,
      "velocity": 101,
      "chip": "ym2612"
    },
    {
      "channel": 1,
      "note": 26,
      "start": 38.0707,
      "duration": 0.0419,
      "velocity": 106,
      "chip": "ym2612"
    },
    {
      "channel": 3,
      "note": 84,
      "start": 38.0728,
      "duration": 0.0938,
      "velocity": 94,
      "chip": "ym2612"
    },
    {
      "channel": 5,
      "note": 48,
      "start": 38.0744,
      "duration": 0.0935,
      "velocity": 101,
      "chip": "ym2612"
    },
    {
      "channel": 1,
      "note": 26,
      "start": 38.176,
      "duration": 0.0314,
      "velocity": 106,
      "chip": "ym2612"
    },
    {
      "channel": 2,
      "note": 76,
      "start": 38.1807,
      "duration": 0.0906,
      "velocity": 110,
      "chip": "ym2612"
    },
    {
      "channel": 3,
      "note": 83,
      "start": 38.1816,
      "duration": 0.0905,
      "velocity": 94,
      "chip": "ym2612"
    },
    {
      "channel": 5,
      "note": 47,
      "start": 38.1832,
      "duration": 0.0906,
      "velocity": 101,
      "chip": "ym2612"
    },
    {
      "channel": 1,
      "note": 26,
      "start": 38.2814,
      "duration": 0.063,
      "velocity": 106,
      "chip": "ym2612"
    },
    {
      "channel": 2,
      "note": 76,
      "start": 38.2823,
      "duration": 0.0943,
      "velocity": 110,
      "chip": "ym2612"
    },
    {
      "channel": 3,
      "note": 81,
      "start": 38.2833,
      "duration": 0.094,
      "velocity": 94,
      "chip": "ym2612"
    },
    {
      "channel": 5,
      "note": 45,
      "start": 38.2849,
      "duration": 0.0937,
      "velocity": 101,
      "chip": "ym2612"
    },
    {
      "channel": 0,
      "note": 26,
      "start": 38.3861,
      "duration": 0.4106,
      "velocity": 125,
      "chip": "ym2612"
    },
    {
      "channel": 1,
      "note": 26,
      "start": 38.387,
      "duration": 0.0526,
      "velocity": 106,
      "chip": "ym2612"
    },
    {
      "channel": 2,
      "note": 76,
      "start": 38.388,
      "duration": 0.1993,
      "velocity": 110,
      "chip": "ym2612"
    },
    {
      "channel": 3,
      "note": 79,
      "start": 38.3895,
      "duration": 0.1036,
      "velocity": 94,
      "chip": "ym2612"
    },
    {
      "channel": 5,
      "note": 43,
      "start": 38.391,
      "duration": 0.0927,
      "velocity": 101,
      "chip": "ym2612"
    },
    {
      "channel": 1,
      "note": 26,
      "start": 38.5973,
      "duration": 0.0525,
      "velocity": 106,
      "chip": "ym2612"
    },
    {
      "channel": 2,
      "note": 76,
      "start": 38.5984,
      "duration": 0.1996,
      "velocity": 110,
      "chip": "ym2612"
    },
    {
      "channel": 3,
      "note": 81,
      "start": 38.5993,
      "duration": 0.0833,
      "velocity": 94,
      "chip": "ym2612"
    },
    {
      "channel": 5,
      "note": 45,
      "start": 38.6009,
      "duration": 0.0937,
      "velocity": 101,
      "chip": "ym2612"
    },
    {
      "channel": 0,
      "note": 26,
      "start": 38.8075,
      "duration": 0.4105,
      "velocity": 125,
      "chip": "ym2612"
    },
    {
      "channel": 1,
      "note": 26,
      "start": 38.8083,
      "duration": 0.0315,
      "velocity": 106,
      "chip": "ym2612"
    },
    {
      "channel": 2,
      "note": 78,
      "start": 38.8111,
      "duration": 0.4082,
      "velocity": 111,
      "chip": "ym2612"
    },
    {
      "channel": 3,
      "note": 76,
      "start": 38.8121,
      "duration": 0.0707,
      "velocity": 94,
      "chip": "ym2612"
    },
    {
      "channel": 5,
      "note": 40,
      "start": 38.8137,
      "duration": 0.1762,
      "velocity": 101,
      "chip": "ym2612"
    },
    {
      "channel": 1,
      "note": 26,
      "start": 39.0187,
      "duration": 0.063,
      "velocity": 106,
      "chip": "ym2612"
    },
    {
      "channel": 3,
      "note": 79,
      "start": 39.0203,
      "duration": 0.0942,
      "velocity": 94,
      "chip": "ym2612"
    },
    {
      "channel": 5,
      "note": 43,
      "start": 39.022,
      "duration": 0.0938,
      "velocity": 101,
      "chip": "ym2612"
    },
    {
      "channel": 0,
      "note": 26,
      "start": 39.2288,
      "duration": 0.4109,
      "velocity": 125,
      "chip": "ym2612"
    },
    {
      "channel": 1,
      "note": 26,
      "start": 39.2297,
      "duration": 0.031,
      "velocity": 106,
      "chip": "ym2612"
    },
    {
      "channel": 2,
      "note": 76,
      "start": 39.2324,
      "duration": 0.1975,
      "velocity": 110,
      "chip": "ym2612"
    },
    {
      "channel": 3,
      "note": 74,
      "start": 39.2334,
      "duration": 0.0707,
      "velocity": 94,
      "chip": "ym2612"
    },
    {
      "channel": 5,
      "note": 50,
      "start": 39.235,
      "duration": 0.0915,
      "velocity": 101,
      "chip": "ym2612"
    },
    {
      "channel": 1,
      "note": 26,
      "start": 39.4405,
      "duration": 0.031,
      "velocity": 106,
      "chip": "ym2612"
    },
    {
      "channel": 2,
      "note": 76,
      "start": 39.4415,
      "duration": 0.0938,
      "velocity": 110,
      "chip": "ym2612"
    },
    {
      "channel": 3,
      "note": 76,
      "start": 39.4424,
      "duration": 0.0934,
      "velocity": 94,
      "chip": "ym2612"
    },
    {
      "channel": 5,
      "note": 52,
      "start": 39.444,
      "duration": 0.0931,
      "velocity": 101,
      "chip": "ym2612"
    },
    {
      "channel": 2,
      "note": 76,
      "start": 39.546,
      "duration": 0.095,
      "velocity": 110,
      "chip": "ym2612"
    },
    {
      "channel": 0,
      "note": 26,
      "start": 39.6501,
      "duration": 0.4106,
      "velocity": 125,
      "chip": "ym2612"
    },
    {
      "channel": 1,
      "note": 26,
      "start": 39.651,
      "duration": 0.031,
      "velocity": 106,
      "chip": "ym2612"
    },
    {
      "channel": 2,
      "note": 76,
      "start": 39.652,
      "duration": 0.1993,
      "velocity": 110,
      "chip": "ym2612"
    },
    {
      "channel": 5,
      "note": 48,
      "start": 39.6543,
      "duration": 0.0619,
      "velocity": 101,
      "chip": "ym2612"
    },
    {
      "channel": 3,
      "note": 72,
      "start": 39.6625,
      "duration": 0.063,
      "velocity": 94,
      "chip": "ym2612"
    },
    {
      "channel": 1,
      "note": 26,
      "start": 39.8614,
      "duration": 0.0209,
      "velocity": 106,
      "chip": "ym2612"
    },
    {
      "channel": 2,
      "note": 76,
      "start": 39.8624,
      "duration": 0.0947,
      "velocity": 110,
      "chip": "ym2612"
    },
    {
      "channel": 5,
      "note": 50,
      "start": 39.8646,
      "duration": 0.0945,
      "velocity": 101,
      "chip": "ym2612"
    },
    {
      "channel": 3,
      "note": 74,
      "start": 39.8737,
      "duration": 0.073,
      "velocity": 94,
      "chip": "ym2612"
    },
    {
      "channel": 2,
      "note": 76,
      "start": 39.9674,
      "duration": 0.0946,
      "velocity": 110,
      "chip": "ym2612"
    },
    {
      "channel": 0,
      "note": 26,
      "start": 40.0715,
      "duration": 0.4106,
      "velocity": 125,
      "chip": "ym2612"
    },
    {
      "channel": 1,
      "note": 26,
      "start": 40.0729,
      "duration": 0.02,
      "velocity": 106,
      "chip": "ym2612"
    },
    {
      "channel": 2,
      "note": 76,
      "start": 40.0739,
      "duration": 0.1993,
      "velocity": 110,
      "chip": "ym2612"
    },
    {
      "channel": 5,
      "note": 47,
      "start": 40.0761,
      "duration": 0.0932,
      "velocity": 101,
      "chip": "ym2612"
    },
    {
      "channel": 3,
      "note": 71,
      "start": 40.0839,
      "duration": 0.074,
      "velocity": 94,
      "chip": "ym2612"
    },
    {
      "channel": 1,
      "note": 26,
      "start": 40.2827,
      "duration": 0.0314,
      "velocity": 106,
      "chip": "ym2612"
    },
    {
      "channel": 2,
      "note": 76,
      "start": 40.2837,
      "duration": 0.1997,
      "velocity": 110,
      "chip": "ym2612"
    },
    {
      "channel": 5,
      "note": 48,
      "start": 40.286,
      "duration": 0.0939,
      "velocity": 101,
      "chip": "ym2612"
    },
    {
      "channel": 3,
      "note": 72,
      "start": 40.2945,
      "duration": 0.084,
      "velocity": 94,
      "chip": "ym2612"
    },
    {
      "channel": 0,
      "note": 26,
      "start": 40.4928,
      "duration": 0.4106,
      "velocity": 125,
      "chip": "ym2612"
    },
    {
      "channel": 1,
      "note": 26,
      "start": 40.4937,
      "duration": 0.0416,
      "velocity": 106,
      "chip": "ym2612"
    },
    {
      "channel": 2,
      "note": 78,
      "start": 40.4965,
      "duration": 0.1975,
      "velocity": 111,
      "chip": "ym2612"
    },
    {
      "channel": 5,
      "note": 45,
      "start": 40.4987,
      "duration": 0.0922,
      "velocity": 101,
      "chip": "ym2612"
    },
    {
      "channel": 3,
      "note": 69,
      "start": 40.5052,
      "duration": 0.0845,
      "velocity": 94,
      "chip": "ym2612"
    },
    {
      "channel": 1,
      "note": 26,
      "start": 40.704,
      "duration": 0.0209,
      "velocity": 106,
      "chip": "ym2612"
    },
    {
      "channel": 2,
      "note": 76,
      "start": 40.7073,
      "duration": 0.1973,
      "velocity": 110,
      "chip": "ym2612"
    },
    {
      "channel": 5,
      "note": 47,
      "start": 40.7095,
      "duration": 0.0917,
      "velocity": 101,
      "chip": "ym2612"
    },
    {
      "channel": 3,
      "note": 71,
      "start": 40.7159,
      "duration": 0.084,
      "velocity": 94,
      "chip": "ym2612"
    },
    {
      "channel": 1,
      "note": 26,
      "start": 40.8094,
      "duration": 0.0419,
      "velocity": 106,
      "chip": "ym2612"
    },
    {
      "channel": 1,
      "note": 46,
      "start": 40.9188,
      "duration": 0.8278,
      "velocity": 104,
      "chip": "ym2612"
    },
    {
      "channel": 2,
      "note": 73,
      "start": 40.9218,
      "duration": 0.8255,
      "velocity": 104,
      "chip": "ym2612"
    },
    {
      "channel": 3,
      "note": 77,
      "start": 40.9252,
      "duration": 0.8227,
      "velocity": 104,
      "chip": "ym2612"
    },
    {
      "channel": 4,
      "note": 80,
      "start": 40.9281,
      "duration": 0.8205,
      "velocity": 104,
      "chip": "ym2612"
    },
    {
      "channel": 5,
      "note": 84,
      "start": 40.931,
      "duration": 0.8182,
      "velocity": 104,
      "chip": "ym2612"
    },
    {
      "channel": 0,
      "note": 26,
      "start": 42.1781,
      "duration": 0.4111,
      "velocity": 125,
      "chip": "ym2612"
    },
    {
      "channel": 1,
      "note": 58,
      "start": 42.1808,
      "duration": 0.409,
      "velocity": 127,
      "chip": "ym2612"
    }
  ]
}