{
  "track_name": "03 - Main Theme of Langrisser",
  "duration_sec": 29.006,
  "sample_rate": 44100,
  "note_count": 567,
  "unique_pitches": 34,
  "pitch_range": 65,
  "avg_note_duration": 0.2247,
  "reconstruction_stats": {
    "notes_reconstructed": 567,
    "keyon_events": 567,
    "keyoff_events": 565,
    "orphan_keyons": 2,
    "unique_pitches": 34,
    "pitch_range": 65,
    "avg_duration_sec": 0.2247
  },
  "metadata": {
    "source": "L\\Langrisser II\\03 - Main Theme of Langrisser.vgz"
  },
  "notes": [
    {
      "channel": 5,
      "note": 42,
      "start": 0.0394,
      "duration": 0.1646,
      "velocity": 127,
      "chip": "ym2612"
    },
    {
      "channel": 5,
      "note": 42,
      "start": 0.2676,
      "duration": 0.0572,
      "velocity": 127,
      "chip": "ym2612"
    },
    {
      "channel": 5,
      "note": 42,
      "start": 0.3879,
      "duration": 0.0576,
      "velocity": 127,
      "chip": "ym2612"
    },
    {
      "channel": 5,
      "note": 42,
      "start": 0.5088,
      "duration": 0.1786,
      "velocity": 127,
      "chip": "ym2612"
    },
    {
      "channel": 5,
      "note": 42,
      "start": 0.7507,
      "duration": 0.0572,
      "velocity": 127,
      "chip": "ym2612"
    },
    {
      "channel": 5,
      "note": 42,
      "start": 0.8715,
      "duration": 0.0573,
      "velocity": 127,
      "chip": "ym2612"
    },
    {
      "channel": 5,
      "note": 42,
      "start": 0.9918,
      "duration": 0.1783,
      "velocity": 127,
      "chip": "ym2612"
    },
    {
      "channel": 0,
      "note": 54,
      "start": 1.1086,
      "duration": 0.1205,
      "velocity": 91,
      "chip": "ym2612"
    },
    {
      "channel": 0,
      "note": 52,
      "start": 1.2293,
      "duration": 0.1206,
      "velocity": 91,
      "chip": "ym2612"
    },
    {
      "channel": 5,
      "note": 42,
      "start": 1.234,
      "duration": 0.0571,
      "velocity": 127,
      "chip": "ym2612"
    },
    {
      "channel": 0,
      "note": 47,
      "start": 1.3502,
      "duration": 0.1204,
      "velocity": 91,
      "chip": "ym2612"
    },
    {
      "channel": 5,
      "note": 42,
      "start": 1.3548,
      "duration": 0.0569,
      "velocity": 127,
      "chip": "ym2612"
    },
    {
      "channel": 0,
      "note": 49,
      "start": 1.4708,
      "duration": 0.1205,
      "velocity": 91,
      "chip": "ym2612"
    },
    {
      "channel": 5,
      "note": 42,
      "start": 1.4751,
      "duration": 0.0573,
      "velocity": 127,
      "chip": "ym2612"
    },
    {
      "channel": 0,
      "note": 40,
      "start": 1.5916,
      "duration": 0.1205,
      "velocity": 91,
      "chip": "ym2612"
    },
    {
      "channel": 5,
      "note": 42,
      "start": 1.5959,
      "duration": 0.0573,
      "velocity": 127,
      "chip": "ym2612"
    },
    {
      "channel": 0,
      "note": 40,
      "start": 1.7123,
      "duration": 0.1205,
      "velocity": 91,
      "chip": "ym2612"
    },
    {
      "channel": 1,
      "note": 66,
      "start": 1.7129,
      "duration": 0.1001,
      "velocity": 99,
      "chip": "ym2612"
    },
    {
      "channel": 4,
      "note": 102,
      "start": 1.7141,
      "duration": 0.0998,
      "velocity": 99,
      "chip": "ym2612"
    },
    {
      "channel": 5,
      "note": 42,
      "start": 1.7174,
      "duration": 0.0564,
      "velocity": 127,
      "chip": "ym2612"
    },
    {
      "channel": 0,
      "note": 40,
      "start": 1.8331,
      "duration": 0.1205,
      "velocity": 91,
      "chip": "ym2612"
    },
    {
      "channel": 1,
      "note": 68,
      "start": 1.8337,
      "duration": 0.1001,
      "velocity": 99,
      "chip": "ym2612"
    },
    {
      "channel": 4,
      "note": 66,
      "start": 1.8352,
      "duration": 0.1,
      "velocity": 99,
      "chip": "ym2612"
    },
    {
      "channel": 5,
      "note": 42,
      "start": 1.8384,
      "duration": 0.0563,
      "velocity": 127,
      "chip": "ym2612"
    },
    {
      "channel": 0,
      "note": 42,
      "start": 1.9539,
      "duration": 0.2412,
      "velocity": 91,
      "chip": "ym2612"
    },
    {
      "channel": 1,
      "note": 69,
      "start": 1.9545,
      "duration": 0.4622,
      "velocity": 99,
      "chip": "ym2612"
    },
    {
      "channel": 5,
      "note": 42,
      "start": 1.9596,
      "duration": 0.1768,
      "velocity": 127,
      "chip": "ym2612"
    },
    {
      "channel": 0,
      "note": 42,
      "start": 2.1953,
      "duration": 0.1205,
      "velocity": 91,
      "chip": "ym2612"
    },
    {
      "channel": 4,
      "note": 68,
      "start": 2.197,
      "duration": 0.4621,
      "velocity": 99,
      "chip": "ym2612"
    },
    {
      "channel": 5,
      "note": 42,
      "start": 2.2002,
      "duration": 0.0566,
      "velocity": 127,
      "chip": "ym2612"
    },
    {
      "channel": 0,
      "note": 42,
      "start": 2.3161,
      "duration": 0.1205,
      "velocity": 91,
      "chip": "ym2612"
    },
    {
      "channel": 5,
      "note": 42,
      "start": 2.3207,
      "duration": 0.0568,
      "velocity": 127,
      "chip": "ym2612"
    },
    {
      "channel": 0,
      "note": 42,
      "start": 2.4368,
      "duration": 0.2412,
      "velocity": 91,
      "chip": "ym2612"
    },
    {
      "channel": 1,
      "note": 71,
      "start": 2.4374,
      "duration": 0.4623,
      "velocity": 99,
      "chip": "ym2612"
    },
    {
      "channel": 5,
      "note": 42,
      "start": 2.4414,
      "duration": 0.1783,
      "velocity": 127,
      "chip": "ym2612"
    },
    {
      "channel": 0,
      "note": 42,
      "start": 2.6783,
      "duration": 0.1205,
      "velocity": 91,
      "chip": "ym2612"
    },
    {
      "channel": 4,
      "note": 69,
      "start": 2.6798,
      "duration": 0.4623,
      "velocity": 99,
      "chip": "ym2612"
    },
    {
      "channel": 5,
      "note": 42,
      "start": 2.6829,
      "duration": 0.0569,
      "velocity": 127,
      "chip": "ym2612"
    },
    {
      "channel": 0,
      "note": 42,
      "start": 2.7991,
      "duration": 0.1209,
      "velocity": 91,
      "chip": "ym2612"
    },
    {
      "channel": 5,
      "note": 42,
      "start": 2.8038,
      "duration": 0.0568,
      "velocity": 127,
      "chip": "ym2612"
    },
    {
      "channel": 0,
      "note": 42,
      "start": 2.9202,
      "duration": 0.2409,
      "velocity": 91,
      "chip": "ym2612"
    },
    {
      "channel": 1,
      "note": 73,
      "start": 2.9207,
      "duration": 0.4619,
      "velocity": 99,
      "chip": "ym2612"
    },
    {
      "channel": 5,
      "note": 42,
      "start": 2.9248,
      "duration": 0.1775,
      "velocity": 127,
      "chip": "ym2612"
    },
    {
      "channel": 0,
      "note": 42,
      "start": 3.1613,
      "duration": 0.1205,
      "velocity": 91,
      "chip": "ym2612"
    },
    {
      "channel": 4,
      "note": 71,
      "start": 3.1628,
      "duration": 0.4624,
      "velocity": 99,
      "chip": "ym2612"
    },
    {
      "channel": 5,
      "note": 42,
      "start": 3.166,
      "duration": 0.0569,
      "velocity": 127,
      "chip": "ym2612"
    },
    {
      "channel": 0,
      "note": 42,
      "start": 3.2821,
      "duration": 0.1205,
      "velocity": 91,
      "chip": "ym2612"
    },
    {
      "channel": 5,
      "note": 42,
      "start": 3.2868,
      "duration": 0.0568,
      "velocity": 127,
      "chip": "ym2612"
    },
    {
      "channel": 0,
      "note": 42,
      "start": 3.4029,
      "duration": 0.2412,
      "velocity": 91,
      "chip": "ym2612"
    },
    {
      "channel": 1,
      "note": 76,
      "start": 3.4038,
      "duration": 0.0999,
      "velocity": 99,
      "chip": "ym2612"
    },
    {
      "channel": 5,
      "note": 42,
      "start": 3.4078,
      "duration": 0.0566,
      "velocity": 127,
      "chip": "ym2612"
    },
    {
      "channel": 5,
      "note": 42,
      "start": 3.5276,
      "duration": 0.0576,
      "velocity": 127,
      "chip": "ym2612"
    },
    {
      "channel": 0,
      "note": 42,
      "start": 3.6443,
      "duration": 0.1205,
      "velocity": 91,
      "chip": "ym2612"
    },
    {
      "channel": 1,
      "note": 75,
      "start": 3.6449,
      "duration": 0.9454,
      "velocity": 99,
      "chip": "ym2612"
    },
    {
      "channel": 4,
      "note": 73,
      "start": 3.6461,
      "duration": 0.0997,
      "velocity": 99,
      "chip": "ym2612"
    },
    {
      "channel": 5,
      "note": 42,
      "start": 3.6493,
      "duration": 0.0566,
      "velocity": 127,
      "chip": "ym2612"
    },
    {
      "channel": 0,
      "note": 42,
      "start": 3.7651,
      "duration": 0.1205,
      "velocity": 91,
      "chip": "ym2612"
    },
    {
      "channel": 5,
      "note": 42,
      "start": 3.7695,
      "duration": 0.0571,
      "velocity": 127,
      "chip": "ym2612"
    },
    {
      "channel": 0,
      "note": 47,
      "start": 3.8858,
      "duration": 0.2412,
      "velocity": 91,
      "chip": "ym2612"
    },
    {
      "channel": 4,
      "note": 76,
      "start": 3.8878,
      "duration": 0.9448,
      "velocity": 99,
      "chip": "ym2612"
    },
    {
      "channel": 5,
      "note": 42,
      "start": 3.8914,
      "duration": 0.1768,
      "velocity": 127,
      "chip": "ym2612"
    },
    {
      "channel": 0,
      "note": 47,
      "start": 4.1273,
      "duration": 0.1205,
      "velocity": 91,
      "chip": "ym2612"
    },
    {
      "channel": 5,
      "note": 42,
      "start": 4.1316,
      "duration": 0.0575,
      "velocity": 127,
      "chip": "ym2612"
    },
    {
      "channel": 0,
      "note": 47,
      "start": 4.2481,
      "duration": 0.1205,
      "velocity": 91,
      "chip": "ym2612"
    },
    {
      "channel": 5,
      "note": 42,
      "start": 4.2523,
      "duration": 0.0573,
      "velocity": 127,
      "chip": "ym2612"
    },
    {
      "channel": 0,
      "note": 47,
      "start": 4.3688,
      "duration": 0.2413,
      "velocity": 91,
      "chip": "ym2612"
    },
    {
      "channel": 5,
      "note": 42,
      "start": 4.3735,
      "duration": 0.1777,
      "velocity": 127,
      "chip": "ym2612"
    },
    {
      "channel": 0,
      "note": 47,
      "start": 4.6103,
      "duration": 0.1205,
      "velocity": 91,
      "chip": "ym2612"
    },
    {
      "channel": 1,
      "note": 71,
      "start": 4.6109,
      "duration": 0.2208,
      "velocity": 99,
      "chip": "ym2612"
    },
    {
      "channel": 5,
      "note": 42,
      "start": 4.6149,
      "duration": 0.0574,
      "velocity": 127,
      "chip": "ym2612"
    },
    {
      "channel": 0,
      "note": 47,
      "start": 4.7311,
      "duration": 0.1205,
      "velocity": 91,
      "chip": "ym2612"
    },
    {
      "channel": 5,
      "note": 42,
      "start": 4.7354,
      "duration": 0.0573,
      "velocity": 127,
      "chip": "ym2612"
    },
    {
      "channel": 0,
      "note": 47,
      "start": 4.8518,
      "duration": 0.2412,
      "velocity": 91,
      "chip": "ym2612"
    },
    {
      "channel": 1,
      "note": 69,
      "start": 4.8524,
      "duration": 0.2208,
      "velocity": 99,
      "chip": "ym2612"
    },
    {
      "channel": 4,
      "note": 75,
      "start": 4.8536,
      "duration": 0.2205,
      "velocity": 99,
      "chip": "ym2612"
    },
    {
      "channel": 5,
      "note": 42,
      "start": 4.8573,
      "duration": 0.1768,
      "velocity": 127,
      "chip": "ym2612"
    },
    {
      "channel": 0,
      "note": 47,
      "start": 5.0933,
      "duration": 0.1205,
      "velocity": 91,
      "chip": "ym2612"
    },
    {
      "channel": 1,
      "note": 68,
      "start": 5.0939,
      "duration": 0.2209,
      "velocity": 99,
      "chip": "ym2612"
    },
    {
      "channel": 4,
      "note": 71,
      "start": 5.0951,
      "duration": 0.2205,
      "velocity": 99,
      "chip": "ym2612"
    },
    {
      "channel": 5,
      "note": 42,
      "start": 5.0983,
      "duration": 0.0568,
      "velocity": 127,
      "chip": "ym2612"
    },
    {
      "channel": 0,
      "note": 47,
      "start": 5.2141,
      "duration": 0.1205,
      "velocity": 91,
      "chip": "ym2612"
    },
    {
      "channel": 5,
      "note": 42,
      "start": 5.2183,
      "duration": 0.0573,
      "velocity": 127,
      "chip": "ym2612"
    },
    {
      "channel": 0,
      "note": 47,
      "start": 5.3348,
      "duration": 0.2413,
      "velocity": 91,
      "chip": "ym2612"
    },
    {
      "channel": 4,
      "note": 69,
      "start": 5.3364,
      "duration": 0.2211,
      "velocity": 99,
      "chip": "ym2612"
    },
    {
      "channel": 5,
      "note": 42,
      "start": 5.34,
      "duration": 0.0564,
      "velocity": 127,
      "chip": "ym2612"
    },
    {
      "channel": 5,
      "note": 42,
      "start": 5.4599,
      "duration": 0.0572,
      "velocity": 127,
      "chip": "ym2612"
    },
    {
      "channel": 0,
      "note": 47,
      "start": 5.5763,
      "duration": 0.1205,
      "velocity": 91,
      "chip": "ym2612"
    },
    {
      "channel": 1,
      "note": 68,
      "start": 5.5769,
      "duration": 0.2208,
      "velocity": 99,
      "chip": "ym2612"
    },
    {
      "channel": 5,
      "note": 42,
      "start": 5.581,
      "duration": 0.0568,
      "velocity": 127,
      "chip": "ym2612"
    },
    {
      "channel": 0,
      "note": 47,
      "start": 5.6971,
      "duration": 0.1205,
      "velocity": 91,
      "chip": "ym2612"
    },
    {
      "channel": 5,
      "note": 42,
      "start": 5.7013,
      "duration": 0.0573,
      "velocity": 127,
      "chip": "ym2612"
    },
    {
      "channel": 0,
      "note": 38,
      "start": 5.8178,
      "duration": 0.2413,
      "velocity": 91,
      "chip": "ym2612"
    },
    {
      "channel": 1,
      "note": 69,
      "start": 5.8184,
      "duration": 0.1001,
      "velocity": 99,
      "chip": "ym2612"
    },
    {
      "channel": 4,
      "note": 68,
      "start": 5.8197,
      "duration": 0.2209,
      "velocity": 99,
      "chip": "ym2612"
    },
    {
      "channel": 5,
      "note": 42,
      "start": 5.8237,
      "duration": 0.1765,
      "velocity": 127,
      "chip": "ym2612"
    },
    {
      "channel": 1,
      "note": 68,
      "start": 5.9389,
      "duration": 0.1005,
      "velocity": 99,
      "chip": "ym2612"
    },
    {
      "channel": 0,
      "note": 38,
      "start": 6.0593,
      "duration": 0.1205,
      "velocity": 91,
      "chip": "ym2612"
    },
    {
      "channel": 1,
      "note": 66,
      "start": 6.0599,
      "duration": 0.1,
      "velocity": 99,
      "chip": "ym2612"
    },
    {
      "channel": 4,
      "note": 68,
      "start": 6.0611,
      "duration": 0.0996,
      "velocity": 99,
      "chip": "ym2612"
    },
    {
      "channel": 5,
      "note": 42,
      "start": 6.0643,
      "duration": 0.0564,
      "velocity": 127,
      "chip": "ym2612"
    },
    {
      "channel": 0,
      "note": 38,
      "start": 6.1801,
      "duration": 0.1205,
      "velocity": 91,
      "chip": "ym2612"
    },
    {
      "channel": 4,
      "note": 69,
      "start": 6.1815,
      "duration": 0.1,
      "velocity": 99,
      "chip": "ym2612"
    },
    {
      "channel": 5,
      "note": 42,
      "start": 6.1847,
      "duration": 0.0571,
      "velocity": 127,
      "chip": "ym2612"
    },
    {
      "channel": 0,
      "note": 38,
      "start": 6.3008,
      "duration": 0.2412,
      "velocity": 91,
      "chip": "ym2612"
    },
    {
      "channel": 1,
      "note": 73,
      "start": 6.3014,
      "duration": 0.7038,
      "velocity": 99,
      "chip": "ym2612"
    },
    {
      "channel": 4,
      "note": 68,
      "start": 6.3026,
      "duration": 0.0997,
      "velocity": 99,
      "chip": "ym2612"
    },
    {
      "channel": 5,
      "note": 42,
      "start": 6.3057,
      "duration": 0.1774,
      "velocity": 127,
      "chip": "ym2612"
    },
    {
      "channel": 0,
      "note": 38,
      "start": 6.5423,
      "duration": 0.1205,
      "velocity": 91,
      "chip": "ym2612"
    },
    {
      "channel": 4,
      "note": 66,
      "start": 6.5438,
      "duration": 0.7038,
      "velocity": 99,
      "chip": "ym2612"
    },
    {
      "channel": 5,
      "note": 42,
      "start": 6.547,
      "duration": 0.0569,
      "velocity": 127,
      "chip": "ym2612"
    },
    {
      "channel": 0,
      "note": 38,
      "start": 6.6631,
      "duration": 0.1205,
      "velocity": 91,
      "chip": "ym2612"
    },
    {
      "channel": 5,
      "note": 42,
      "start": 6.6673,
      "duration": 0.0577,
      "velocity": 127,
      "chip": "ym2612"
    },
    {
      "channel": 0,
      "note": 40,
      "start": 6.7838,
      "duration": 0.2414,
      "velocity": 91,
      "chip": "ym2612"
    },
    {
      "channel": 5,
      "note": 42,
      "start": 6.7881,
      "duration": 0.1781,
      "velocity": 127,
      "chip": "ym2612"
    },
    {
      "channel": 0,
      "note": 40,
      "start": 7.0254,
      "duration": 0.1204,
      "velocity": 91,
      "chip": "ym2612"
    },
    {
      "channel": 1,
      "note": 71,
      "start": 7.0259,
      "duration": 0.2207,
      "velocity": 99,
      "chip": "ym2612"
    },
    {
      "channel": 5,
      "note": 42,
      "start": 7.03,
      "duration": 0.0569,
      "velocity": 127,
      "chip": "ym2612"
    },
    {
      "channel": 0,
      "note": 40,
      "start": 7.1461,
      "duration": 0.1205,
      "velocity": 91,
      "chip": "ym2612"
    },
    {
      "channel": 5,
      "note": 42,
      "start": 7.1504,
      "duration": 0.0574,
      "velocity": 127,
      "chip": "ym2612"
    },
    {
      "channel": 0,
      "note": 40,
      "start": 7.2668,
      "duration": 0.2413,
      "velocity": 91,
      "chip": "ym2612"
    },
    {
      "channel": 1,
      "note": 68,
      "start": 7.2673,
      "duration": 0.2208,
      "velocity": 99,
      "chip": "ym2612"
    },
    {
      "channel": 4,
      "note": 73,
      "start": 7.2685,
      "duration": 0.2205,
      "velocity": 99,
      "chip": "ym2612"
    },
    {
      "channel": 5,
      "note": 42,
      "start": 7.2717,
      "duration": 0.0567,
      "velocity": 127,
      "chip": "ym2612"
    },
    {
      "channel": 2,
      "note": 73,
      "start": 7.3899,
      "duration": 0.0986,
      "velocity": 95,
      "chip": "ym2612"
    },
    {
      "channel": 5,
      "note": 42,
      "start": 7.3941,
      "duration": 0.055,
      "velocity": 127,
      "chip": "ym2612"
    },
    {
      "channel": 0,
      "note": 40,
      "start": 7.5083,
      "duration": 0.1205,
      "velocity": 91,
      "chip": "ym2612"
    },
    {
      "channel": 1,
      "note": 64,
      "start": 7.5092,
      "duration": 0.2205,
      "velocity": 99,
      "chip": "ym2612"
    },
    {
      "channel": 2,
      "note": 78,
      "start": 7.5097,
      "duration": 0.0999,
      "velocity": 95,
      "chip": "ym2612"
    },
    {
      "channel": 4,
      "note": 71,
      "start": 7.5106,
      "duration": 0.22,
      "velocity": 99,
      "chip": "ym2612"
    },
    {
      "channel": 5,
      "note": 42,
      "start": 7.5138,
      "duration": 0.056,
      "velocity": 127,
      "chip": "ym2612"
    },
    {
      "channel": 0,
      "note": 40,
      "start": 7.6291,
      "duration": 0.1205,
      "velocity": 91,
      "chip": "ym2612"
    },
    {
      "channel": 2,
      "note": 80,
      "start": 7.6298,
      "duration": 0.1001,
      "velocity": 95,
      "chip": "ym2612"
    },
    {
      "channel": 3,
      "note": 37,
      "start": 7.6333,
      "duration": 0.097,
      "velocity": 95,
      "chip": "ym2612"
    },
    {
      "channel": 5,
      "note": 42,
      "start": 7.6368,
      "duration": 0.0538,
      "velocity": 127,
      "chip": "ym2612"
    },
    {
      "channel": 0,
      "note": 42,
      "start": 7.7498,
      "duration": 0.2412,
      "velocity": 91,
      "chip": "ym2612"
    },
    {
      "channel": 1,
      "note": 66,
      "start": 7.7504,
      "duration": 0.9453,
      "velocity": 99,
      "chip": "ym2612"
    },
    {
      "channel": 2,
      "note": 81,
      "start": 7.7509,
      "duration": 0.4621,
      "velocity": 95,
      "chip": "ym2612"
    },
    {
      "channel": 3,
      "note": 73,
      "start": 7.7515,
      "duration": 0.0994,
      "velocity": 95,
      "chip": "ym2612"
    },
    {
      "channel": 4,
      "note": 68,
      "start": 7.7522,
      "duration": 0.2198,
      "velocity": 99,
      "chip": "ym2612"
    },
    {
      "channel": 5,
      "note": 42,
      "start": 7.7558,
      "duration": 0.1762,
      "velocity": 127,
      "chip": "ym2612"
    },
    {
      "channel": 3,
      "note": 78,
      "start": 7.8713,
      "duration": 0.1003,
      "velocity": 95,
      "chip": "ym2612"
    },
    {
      "channel": 0,
      "note": 42,
      "start": 7.9913,
      "duration": 0.1205,
      "velocity": 91,
      "chip": "ym2612"
    },
    {
      "channel": 3,
      "note": 80,
      "start": 7.9928,
      "duration": 0.4619,
      "velocity": 95,
      "chip": "ym2612"
    },
    {
      "channel": 4,
      "note": 64,
      "start": 7.9935,
      "duration": 0.9446,
      "velocity": 99,
      "chip": "ym2612"
    },
    {
      "channel": 5,
      "note": 42,
      "start": 7.9967,
      "duration": 0.0561,
      "velocity": 127,
      "chip": "ym2612"
    },
    {
      "channel": 0,
      "note": 42,
      "start": 8.1121,
      "duration": 0.1205,
      "velocity": 91,
      "chip": "ym2612"
    },
    {
      "channel": 5,
      "note": 42,
      "start": 8.1163,
      "duration": 0.0573,
      "velocity": 127,
      "chip": "ym2612"
    },
    {
      "channel": 0,
      "note": 42,
      "start": 8.2329,
      "duration": 0.2412,
      "velocity": 91,
      "chip": "ym2612"
    },
    {
      "channel": 2,
      "note": 83,
      "start": 8.2337,
      "duration": 0.4624,
      "velocity": 95,
      "chip": "ym2612"
    },
    {
      "channel": 5,
      "note": 42,
      "start": 8.2374,
      "duration": 0.1778,
      "velocity": 127,
      "chip": "ym2612"
    },
    {
      "channel": 0,
      "note": 42,
      "start": 8.4743,
      "duration": 0.1205,
      "velocity": 91,
      "chip": "ym2612"
    },
    {
      "channel": 3,
      "note": 81,
      "start": 8.4756,
      "duration": 0.4622,
      "velocity": 95,
      "chip": "ym2612"
    },
    {
      "channel": 5,
      "note": 42,
      "start": 8.4794,
      "duration": 0.0565,
      "velocity": 127,
      "chip": "ym2612"
    },
    {
      "channel": 0,
      "note": 42,
      "start": 8.5951,
      "duration": 0.1205,
      "velocity": 91,
      "chip": "ym2612"
    },
    {
      "channel": 5,
      "note": 42,
      "start": 8.5993,
      "duration": 0.0573,
      "velocity": 127,
      "chip": "ym2612"
    },
    {
      "channel": 0,
      "note": 42,
      "start": 8.7158,
      "duration": 0.2412,
      "velocity": 91,
      "chip": "ym2612"
    },
    {
      "channel": 1,
      "note": 66,
      "start": 8.7163,
      "duration": 0.1001,
      "velocity": 99,
      "chip": "ym2612"
    },
    {
      "channel": 2,
      "note": 85,
      "start": 8.7169,
      "duration": 0.462,
      "velocity": 95,
      "chip": "ym2612"
    },
    {
      "channel": 5,
      "note": 42,
      "start": 8.7207,
      "duration": 0.1774,
      "velocity": 127,
      "chip": "ym2612"
    },
    {
      "channel": 1,
      "note": 68,
      "start": 8.8368,
      "duration": 0.1004,
      "velocity": 99,
      "chip": "ym2612"
    },
    {
      "channel": 0,
      "note": 42,
      "start": 8.9573,
      "duration": 0.1205,
      "velocity": 91,
      "chip": "ym2612"
    },
    {
      "channel": 1,
      "note": 69,
      "start": 8.9578,
      "duration": 0.1001,
      "velocity": 99,
      "chip": "ym2612"
    },
    {
      "channel": 3,
      "note": 83,
      "start": 8.9587,
      "duration": 0.4621,
      "velocity": 95,
      "chip": "ym2612"
    },
    {
      "channel": 4,
      "note": 66,
      "start": 8.9595,
      "duration": 0.0993,
      "velocity": 99,
      "chip": "ym2612"
    },
    {
      "channel": 5,
      "note": 42,
      "start": 8.9631,
      "duration": 0.0557,
      "velocity": 127,
      "chip": "ym2612"
    },
    {
      "channel": 0,
      "note": 42,
      "start": 9.0781,
      "duration": 0.1205,
      "velocity": 91,
      "chip": "ym2612"
    },
    {
      "channel": 4,
      "note": 66,
      "start": 9.0796,
      "duration": 0.1,
      "velocity": 99,
      "chip": "ym2612"
    },
    {
      "channel": 5,
      "note": 42,
      "start": 9.0828,
      "duration": 0.0568,
      "velocity": 127,
      "chip": "ym2612"
    },
    {
      "channel": 0,
      "note": 42,
      "start": 9.1988,
      "duration": 0.2413,
      "velocity": 91,
      "chip": "ym2612"
    },
    {
      "channel": 2,
      "note": 88,
      "start": 9.1996,
      "duration": 0.1001,
      "velocity": 95,
      "chip": "ym2612"
    },
    {
      "channel": 4,
      "note": 68,
      "start": 9.2005,
      "duration": 0.0998,
      "velocity": 99,
      "chip": "ym2612"
    },
    {
      "channel": 5,
      "note": 42,
      "start": 9.2037,
      "duration": 0.0567,
      "velocity": 127,
      "chip": "ym2612"
    },
    {
      "channel": 5,
      "note": 42,
      "start": 9.3236,
      "duration": 0.0574,
      "velocity": 127,
      "chip": "ym2612"
    },
    {
      "channel": 0,
      "note": 42,
      "start": 9.4403,
      "duration": 0.1205,
      "velocity": 91,
      "chip": "ym2612"
    },
    {
      "channel": 1,
      "note": 71,
      "start": 9.4409,
      "duration": 1.1868,
      "velocity": 99,
      "chip": "ym2612"
    },
    {
      "channel": 2,
      "note": 87,
      "start": 9.4414,
      "duration": 0.945,
      "velocity": 95,
      "chip": "ym2612"
    },
    {
      "channel": 3,
      "note": 85,
      "start": 9.442,
      "duration": 0.0994,
      "velocity": 95,
      "chip": "ym2612"
    },
    {
      "channel": 5,
      "note": 42,
      "start": 9.4459,
      "duration": 0.0559,
      "velocity": 127,
      "chip": "ym2612"
    },
    {
      "channel": 0,
      "note": 42,
      "start": 9.561,
      "duration": 0.1205,
      "velocity": 91,
      "chip": "ym2612"
    },
    {
      "channel": 5,
      "note": 42,
      "start": 9.5656,
      "duration": 0.0569,
      "velocity": 127,
      "chip": "ym2612"
    },
    {
      "channel": 0,
      "note": 47,
      "start": 9.6818,
      "duration": 0.2413,
      "velocity": 91,
      "chip": "ym2612"
    },
    {
      "channel": 3,
      "note": 88,
      "start": 9.6829,
      "duration": 0.9455,
      "velocity": 95,
      "chip": "ym2612"
    },
    {
      "channel": 4,
      "note": 69,
      "start": 9.6836,
      "duration": 1.1865,
      "velocity": 99,
      "chip": "ym2612"
    },
    {
      "channel": 5,
      "note": 42,
      "start": 9.6872,
      "duration": 0.1768,
      "velocity": 127,
      "chip": "ym2612"
    },
    {
      "channel": 0,
      "note": 47,
      "start": 9.9234,
      "duration": 0.1205,
      "velocity": 91,
      "chip": "ym2612"
    },
    {
      "channel": 5,
      "note": 42,
      "start": 9.9277,
      "duration": 0.0571,
      "velocity": 127,
      "chip": "ym2612"
    },
    {
      "channel": 0,
      "note": 47,
      "start": 10.0442,
      "duration": 0.1204,
      "velocity": 91,
      "chip": "ym2612"
    },
    {
      "channel": 5,
      "note": 42,
      "start": 10.0487,
      "duration": 0.057,
      "velocity": 127,
      "chip": "ym2612"
    },
    {
      "channel": 0,
      "note": 47,
      "start": 10.1648,
      "duration": 0.2412,
      "velocity": 91,
      "chip": "ym2612"
    },
    {
      "channel": 5,
      "note": 42,
      "start": 10.1692,
      "duration": 0.1784,
      "velocity": 127,
      "chip": "ym2612"
    },
    {
      "channel": 0,
      "note": 47,
      "start": 10.4063,
      "duration": 0.1205,
      "velocity": 91,
      "chip": "ym2612"
    },
    {
      "channel": 2,
      "note": 83,
      "start": 10.4071,
      "duration": 0.1001,
      "velocity": 95,
      "chip": "ym2612"
    },
    {
      "channel": 5,
      "note": 42,
      "start": 10.4109,
      "duration": 0.057,
      "velocity": 127,
      "chip": "ym2612"
    },
    {
      "channel": 0,
      "note": 47,
      "start": 10.5271,
      "duration": 0.1205,
      "velocity": 91,
      "chip": "ym2612"
    },
    {
      "channel": 5,
      "note": 42,
      "start": 10.5319,
      "duration": 0.0567,
      "velocity": 127,
      "chip": "ym2612"
    },
    {
      "channel": 0,
      "note": 47,
      "start": 10.6478,
      "duration": 0.2412,
      "velocity": 91,
      "chip": "ym2612"
    },
    {
      "channel": 1,
      "note": 71,
      "start": 10.6484,
      "duration": 0.1,
      "velocity": 99,
      "chip": "ym2612"
    },
    {
      "channel": 2,
      "note": 81,
      "start": 10.6489,
      "duration": 0.2205,
      "velocity": 95,
      "chip": "ym2612"
    },
    {
      "channel": 3,
      "note": 87,
      "start": 10.6495,
      "duration": 0.0994,
      "velocity": 95,
      "chip": "ym2612"
    },
    {
      "channel": 5,
      "note": 42,
      "start": 10.6531,
      "duration": 0.1775,
      "velocity": 127,
      "chip": "ym2612"
    },
    {
      "channel": 1,
      "note": 73,
      "start": 10.7688,
      "duration": 0.1004,
      "velocity": 99,
      "chip": "ym2612"
    },
    {
      "channel": 0,
      "note": 47,
      "start": 10.8893,
      "duration": 0.1205,
      "velocity": 91,
      "chip": "ym2612"
    },
    {
      "channel": 1,
      "note": 75,
      "start": 10.8899,
      "duration": 0.2208,
      "velocity": 99,
      "chip": "ym2612"
    },
    {
      "channel": 2,
      "note": 80,
      "start": 10.8904,
      "duration": 0.2205,
      "velocity": 95,
      "chip": "ym2612"
    },
    {
      "channel": 3,
      "note": 83,
      "start": 10.891,
      "duration": 0.2202,
      "velocity": 95,
      "chip": "ym2612"
    },
    {
      "channel": 4,
      "note": 71,
      "start": 10.8917,
      "duration": 0.099,
      "velocity": 99,
      "chip": "ym2612"
    },
    {
      "channel": 5,
      "note": 42,
      "start": 10.8949,
      "duration": 0.0559,
      "velocity": 127,
      "chip": "ym2612"
    },
    {
      "channel": 0,
      "note": 47,
      "start": 11.0101,
      "duration": 0.1205,
      "velocity": 91,
      "chip": "ym2612"
    },
    {
      "channel": 4,
      "note": 71,
      "start": 11.0115,
      "duration": 0.1002,
      "velocity": 99,
      "chip": "ym2612"
    },
    {
      "channel": 5,
      "note": 42,
      "start": 11.0151,
      "duration": 0.0564,
      "velocity": 127,
      "chip": "ym2612"
    },
    {
      "channel": 0,
      "note": 47,
      "start": 11.1308,
      "duration": 0.2413,
      "velocity": 91,
      "chip": "ym2612"
    },
    {
      "channel": 3,
      "note": 81,
      "start": 11.1321,
      "duration": 0.0998,
      "velocity": 95,
      "chip": "ym2612"
    },
    {
      "channel": 4,
      "note": 73,
      "start": 11.1328,
      "duration": 0.2203,
      "velocity": 99,
      "chip": "ym2612"
    },
    {
      "channel": 5,
      "note": 42,
      "start": 11.136,
      "duration": 0.0563,
      "velocity": 127,
      "chip": "ym2612"
    },
    {
      "channel": 5,
      "note": 42,
      "start": 11.2555,
      "duration": 0.0576,
      "velocity": 127,
      "chip": "ym2612"
    },
    {
      "channel": 0,
      "note": 47,
      "start": 11.3723,
      "duration": 0.1205,
      "velocity": 91,
      "chip": "ym2612"
    },
    {
      "channel": 1,
      "note": 75,
      "start": 11.3729,
      "duration": 0.2208,
      "velocity": 99,
      "chip": "ym2612"
    },
    {
      "channel": 2,
      "note": 80,
      "start": 11.3734,
      "duration": 0.2205,
      "velocity": 95,
      "chip": "ym2612"
    },
    {
      "channel": 5,
      "note": 42,
      "start": 11.3773,
      "duration": 0.0565,
      "velocity": 127,
      "chip": "ym2612"
    },
    {
      "channel": 0,
      "note": 47,
      "start": 11.4931,
      "duration": 0.1205,
      "velocity": 91,
      "chip": "ym2612"
    },
    {
      "channel": 5,
      "note": 42,
      "start": 11.4977,
      "duration": 0.0569,
      "velocity": 127,
      "chip": "ym2612"
    },
    {
      "channel": 0,
      "note": 38,
      "start": 11.6141,
      "duration": 0.2409,
      "velocity": 91,
      "chip": "ym2612"
    },
    {
      "channel": 1,
      "note": 73,
      "start": 11.6147,
      "duration": 0.945,
      "velocity": 99,
      "chip": "ym2612"
    },
    {
      "channel": 2,
      "note": 81,
      "start": 11.6152,
      "duration": 0.0998,
      "velocity": 95,
      "chip": "ym2612"
    },
    {
      "channel": 3,
      "note": 80,
      "start": 11.6159,
      "duration": 0.2199,
      "velocity": 95,
      "chip": "ym2612"
    },
    {
      "channel": 4,
      "note": 75,
      "start": 11.6165,
      "duration": 0.2196,
      "velocity": 99,
      "chip": "ym2612"
    },
    {
      "channel": 5,
      "note": 42,
      "start": 11.6201,
      "duration": 0.1759,
      "velocity": 127,
      "chip": "ym2612"
    },
    {
      "channel": 2,
      "note": 80,
      "start": 11.735,
      "duration": 0.1004,
      "velocity": 95,
      "chip": "ym2612"
    },
    {
      "channel": 0,
      "note": 38,
      "start": 11.8553,
      "duration": 0.1205,
      "velocity": 91,
      "chip": "ym2612"
    },
    {
      "channel": 2,
      "note": 78,
      "start": 11.8561,
      "duration": 0.2209,
      "velocity": 95,
      "chip": "ym2612"
    },
    {
      "channel": 3,
      "note": 80,
      "start": 11.8567,
      "duration": 0.0997,
      "velocity": 95,
      "chip": "ym2612"
    },
    {
      "channel": 4,
      "note": 75,
      "start": 11.8574,
      "duration": 0.9447,
      "velocity": 99,
      "chip": "ym2612"
    },
    {
      "channel": 5,
      "note": 42,
      "start": 11.8606,
      "duration": 0.0562,
      "velocity": 127,
      "chip": "ym2612"
    },
    {
      "channel": 0,
      "note": 38,
      "start": 11.9761,
      "duration": 0.1205,
      "velocity": 91,
      "chip": "ym2612"
    },
    {
      "channel": 3,
      "note": 81,
      "start": 11.9771,
      "duration": 0.1001,
      "velocity": 95,
      "chip": "ym2612"
    },
    {
      "channel": 5,
      "note": 42,
      "start": 11.9807,
      "duration": 0.0568,
      "velocity": 127,
      "chip": "ym2612"
    },
    {
      "channel": 0,
      "note": 38,
      "start": 12.0969,
      "duration": 0.2411,
      "velocity": 91,
      "chip": "ym2612"
    },
    {
      "channel": 2,
      "note": 85,
      "start": 12.098,
      "duration": 0.0997,
      "velocity": 95,
      "chip": "ym2612"
    },
    {
      "channel": 3,
      "note": 80,
      "start": 12.0987,
      "duration": 0.2201,
      "velocity": 95,
      "chip": "ym2612"
    },
    {
      "channel": 5,
      "note": 42,
      "start": 12.1021,
      "duration": 0.177,
      "velocity": 127,
      "chip": "ym2612"
    },
    {
      "channel": 0,
      "note": 38,
      "start": 12.3383,
      "duration": 0.1205,
      "velocity": 91,
      "chip": "ym2612"
    },
    {
      "channel": 2,
      "note": 83,
      "start": 12.3391,
      "duration": 0.4623,
      "velocity": 95,
      "chip": "ym2612"
    },
    {
      "channel": 3,
      "note": 78,
      "start": 12.3398,
      "duration": 0.0997,
      "velocity": 95,
      "chip": "ym2612"
    },
    {
      "channel": 5,
      "note": 42,
      "start": 12.3433,
      "duration": 0.0569,
      "velocity": 127,
      "chip": "ym2612"
    },
    {
      "channel": 0,
      "note": 38,
      "start": 12.459,
      "duration": 0.1205,
      "velocity": 91,
      "chip": "ym2612"
    },
    {
      "channel": 5,
      "note": 42,
      "start": 12.4634,
      "duration": 0.0573,
      "velocity": 127,
      "chip": "ym2612"
    },
    {
      "channel": 0,
      "note": 40,
      "start": 12.5798,
      "duration": 0.2413,
      "velocity": 91,
      "chip": "ym2612"
    },
    {
      "channel": 1,
      "note": 71,
      "start": 12.5803,
      "duration": 0.9454,
      "velocity": 99,
      "chip": "ym2612"
    },
    {
      "channel": 3,
      "note": 85,
      "start": 12.5813,
      "duration": 0.462,
      "velocity": 95,
      "chip": "ym2612"
    },
    {
      "channel": 5,
      "note": 42,
      "start": 12.5851,
      "duration": 0.177,
      "velocity": 127,
      "chip": "ym2612"
    },
    {
      "channel": 0,
      "note": 40,
      "start": 12.8213,
      "duration": 0.1205,
      "velocity": 91,
      "chip": "ym2612"
    },
    {
      "channel": 2,
      "note": 80,
      "start": 12.8221,
      "duration": 0.1001,
      "velocity": 95,
      "chip": "ym2612"
    },
    {
      "channel": 4,
      "note": 73,
      "start": 12.823,
      "duration": 0.9453,
      "velocity": 99,
      "chip": "ym2612"
    },
    {
      "channel": 5,
      "note": 42,
      "start": 12.8262,
      "duration": 0.0569,
      "velocity": 127,
      "chip": "ym2612"
    },
    {
      "channel": 0,
      "note": 40,
      "start": 12.9421,
      "duration": 0.1205,
      "velocity": 91,
      "chip": "ym2612"
    },
    {
      "channel": 5,
      "note": 42,
      "start": 12.9464,
      "duration": 0.0572,
      "velocity": 127,
      "chip": "ym2612"
    },
    {
      "channel": 0,
      "note": 40,
      "start": 13.0628,
      "duration": 0.2412,
      "velocity": 91,
      "chip": "ym2612"
    },
    {
      "channel": 2,
      "note": 76,
      "start": 13.0636,
      "duration": 0.4624,
      "velocity": 95,
      "chip": "ym2612"
    },
    {
      "channel": 3,
      "note": 83,
      "start": 13.0642,
      "duration": 0.0998,
      "velocity": 95,
      "chip": "ym2612"
    },
    {
      "channel": 5,
      "note": 42,
      "start": 13.0682,
      "duration": 0.0561,
      "velocity": 127,
      "chip": "ym2612"
    },
    {
      "channel": 5,
      "note": 42,
      "start": 13.1876,
      "duration": 0.0576,
      "velocity": 127,
      "chip": "ym2612"
    },
    {
      "channel": 0,
      "note": 40,
      "start": 13.3043,
      "duration": 0.1205,
      "velocity": 91,
      "chip": "ym2612"
    },
    {
      "channel": 3,
      "note": 80,
      "start": 13.3054,
      "duration": 0.2209,
      "velocity": 95,
      "chip": "ym2612"
    },
    {
      "channel": 5,
      "note": 42,
      "start": 13.309,
      "duration": 0.0573,
      "velocity": 127,
      "chip": "ym2612"
    },
    {
      "channel": 0,
      "note": 40,
      "start": 13.4251,
      "duration": 0.1205,
      "velocity": 91,
      "chip": "ym2612"
    },
    {
      "channel": 5,
      "note": 42,
      "start": 13.4293,
      "duration": 0.0573,
      "velocity": 127,
      "chip": "ym2612"
    },
    {
      "channel": 0,
      "note": 41,
      "start": 13.5458,
      "duration": 0.2413,
      "velocity": 91,
      "chip": "ym2612"
    },
    {
      "channel": 1,
      "note": 71,
      "start": 13.5463,
      "duration": 0.9454,
      "velocity": 99,
      "chip": "ym2612"
    },
    {
      "channel": 2,
      "note": 77,
      "start": 13.5488,
      "duration": 3.8412,
      "velocity": 100,
      "chip": "ym2612"
    },
    {
      "channel": 3,
      "note": 76,
      "start": 13.5524,
      "duration": 0.9399,
      "velocity": 100,
      "chip": "ym2612"
    },
    {
      "channel": 5,
      "note": 42,
      "start": 13.5563,
      "duration": 0.1717,
      "velocity": 127,
      "chip": "ym2612"
    },
    {
      "channel": 0,
      "note": 41,
      "start": 13.7873,
      "duration": 0.1205,
      "velocity": 91,
      "chip": "ym2612"
    },
    {
      "channel": 4,
      "note": 71,
      "start": 13.7915,
      "duration": 0.9427,
      "velocity": 100,
      "chip": "ym2612"
    },
    {
      "channel": 5,
      "note": 42,
      "start": 13.7947,
      "duration": 0.0541,
      "velocity": 127,
      "chip": "ym2612"
    },
    {
      "channel": 0,
      "note": 41,
      "start": 13.9081,
      "duration": 0.1205,
      "velocity": 91,
      "chip": "ym2612"
    },
    {
      "channel": 5,
      "note": 42,
      "start": 13.9123,
      "duration": 0.0573,
      "velocity": 127,
      "chip": "ym2612"
    },
    {
      "channel": 0,
      "note": 41,
      "start": 14.0288,
      "duration": 0.2413,
      "velocity": 91,
      "chip": "ym2612"
    },
    {
      "channel": 5,
      "note": 42,
      "start": 14.0332,
      "duration": 0.178,
      "velocity": 127,
      "chip": "ym2612"
    },
    {
      "channel": 0,
      "note": 41,
      "start": 14.2703,
      "duration": 0.1205,
      "velocity": 91,
      "chip": "ym2612"
    },
    {
      "channel": 5,
      "note": 42,
      "start": 14.2747,
      "duration": 0.0573,
      "velocity": 127,
      "chip": "ym2612"
    },
    {
      "channel": 0,
      "note": 41,
      "start": 14.3911,
      "duration": 0.1205,
      "velocity": 91,
      "chip": "ym2612"
    },
    {
      "channel": 5,
      "note": 42,
      "start": 14.3954,
      "duration": 0.0575,
      "velocity": 127,
      "chip": "ym2612"
    },
    {
      "channel": 0,
      "note": 41,
      "start": 14.5118,
      "duration": 0.2412,
      "velocity": 91,
      "chip": "ym2612"
    },
    {
      "channel": 1,
      "note": 69,
      "start": 14.5124,
      "duration": 0.8246,
      "velocity": 99,
      "chip": "ym2612"
    },
    {
      "channel": 3,
      "note": 59,
      "start": 14.5133,
      "duration": 0.945,
      "velocity": 100,
      "chip": "ym2612"
    },
    {
      "channel": 5,
      "note": 42,
      "start": 14.5169,
      "duration": 0.1772,
      "velocity": 127,
      "chip": "ym2612"
    },
    {
      "channel": 0,
      "note": 41,
      "start": 14.7533,
      "duration": 0.1205,
      "velocity": 91,
      "chip": "ym2612"
    },
    {
      "channel": 4,
      "note": 71,
      "start": 14.7548,
      "duration": 0.8245,
      "velocity": 100,
      "chip": "ym2612"
    },
    {
      "channel": 5,
      "note": 42,
      "start": 14.7579,
      "duration": 0.0569,
      "velocity": 127,
      "chip": "ym2612"
    },
    {
      "channel": 0,
      "note": 41,
      "start": 14.8741,
      "duration": 0.1205,
      "velocity": 91,
      "chip": "ym2612"
    },
    {
      "channel": 5,
      "note": 42,
      "start": 14.8783,
      "duration": 0.0576,
      "velocity": 127,
      "chip": "ym2612"
    },
    {
      "channel": 0,
      "note": 41,
      "start": 14.9949,
      "duration": 0.2412,
      "velocity": 91,
      "chip": "ym2612"
    },
    {
      "channel": 5,
      "note": 42,
      "start": 14.9991,
      "duration": 0.0573,
      "velocity": 127,
      "chip": "ym2612"
    },
    {
      "channel": 5,
      "note": 42,
      "start": 15.12,
      "duration": 0.0573,
      "velocity": 127,
      "chip": "ym2612"
    },
    {
      "channel": 0,
      "note": 41,
      "start": 15.2363,
      "duration": 0.1205,
      "velocity": 91,
      "chip": "ym2612"
    },
    {
      "channel": 5,
      "note": 42,
      "start": 15.2407,
      "duration": 0.0573,
      "velocity": 127,
      "chip": "ym2612"
    },
    {
      "channel": 0,
      "note": 41,
      "start": 15.3571,
      "duration": 0.1205,
      "velocity": 91,
      "chip": "ym2612"
    },
    {
      "channel": 1,
      "note": 71,
      "start": 15.3576,
      "duration": 0.0397,
      "velocity": 99,
      "chip": "ym2612"
    },
    {
      "channel": 5,
      "note": 42,
      "start": 15.3617,
      "duration": 0.0579,
      "velocity": 127,
      "chip": "ym2612"
    },
    {
      "channel": 1,
      "note": 72,
      "start": 15.4178,
      "duration": 0.0399,
      "velocity": 99,
      "chip": "ym2612"
    },
    {
      "channel": 0,
      "note": 41,
      "start": 15.4778,
      "duration": 0.2415,
      "velocity": 91,
      "chip": "ym2612"
    },
    {
      "channel": 1,
      "note": 74,
      "start": 15.4783,
      "duration": 0.9454,
      "velocity": 99,
      "chip": "ym2612"
    },
    {
      "channel": 3,
      "note": 57,
      "start": 15.4793,
      "duration": 0.9451,
      "velocity": 100,
      "chip": "ym2612"
    },
    {
      "channel": 5,
      "note": 42,
      "start": 15.4832,
      "duration": 0.1773,
      "velocity": 127,
      "chip": "ym2612"
    },
    {
      "channel": 4,
      "note": 69,
      "start": 15.5997,
      "duration": 0.04,
      "velocity": 100,
      "chip": "ym2612"
    },
    {
      "channel": 4,
      "note": 71,
      "start": 15.66,
      "duration": 0.04,
      "velocity": 100,
      "chip": "ym2612"
    },
    {
      "channel": 0,
      "note": 41,
      "start": 15.7196,
      "duration": 0.1202,
      "velocity": 91,
      "chip": "ym2612"
    },
    {
      "channel": 4,
      "note": 72,
      "start": 15.721,
      "duration": 0.945,
      "velocity": 100,
      "chip": "ym2612"
    },
    {
      "channel": 5,
      "note": 42,
      "start": 15.7242,
      "duration": 0.0566,
      "velocity": 127,
      "chip": "ym2612"
    },
    {
      "channel": 0,
      "note": 41,
      "start": 15.84,
      "duration": 0.1205,
      "velocity": 91,
      "chip": "ym2612"
    },
    {
      "channel": 5,
      "note": 42,
      "start": 15.8443,
      "duration": 0.0574,
      "velocity": 127,
      "chip": "ym2612"
    },
    {
      "channel": 0,
      "note": 41,
      "start": 15.9608,
      "duration": 0.2414,
      "velocity": 91,
      "chip": "ym2612"
    },
    {
      "channel": 5,
      "note": 42,
      "start": 15.9651,
      "duration": 0.1781,
      "velocity": 127,
      "chip": "ym2612"
    },
    {
      "channel": 0,
      "note": 41,
      "start": 16.2024,
      "duration": 0.1204,
      "velocity": 91,
      "chip": "ym2612"
    },
    {
      "channel": 5,
      "note": 42,
      "start": 16.2071,
      "duration": 0.0569,
      "velocity": 127,
      "chip": "ym2612"
    },
    {
      "channel": 0,
      "note": 41,
      "start": 16.3231,
      "duration": 0.1205,
      "velocity": 91,
      "chip": "ym2612"
    },
    {
      "channel": 5,
      "note": 42,
      "start": 16.3274,
      "duration": 0.0573,
      "velocity": 127,
      "chip": "ym2612"
    },
    {
      "channel": 0,
      "note": 45,
      "start": 16.4438,
      "duration": 0.2412,
      "velocity": 91,
      "chip": "ym2612"
    },
    {
      "channel": 1,
      "note": 72,
      "start": 16.4444,
      "duration": 0.9453,
      "velocity": 99,
      "chip": "ym2612"
    },
    {
      "channel": 3,
      "note": 62,
      "start": 16.4452,
      "duration": 0.9451,
      "velocity": 100,
      "chip": "ym2612"
    },
    {
      "channel": 5,
      "note": 42,
      "start": 16.4488,
      "duration": 0.1774,
      "velocity": 127,
      "chip": "ym2612"
    },
    {
      "channel": 0,
      "note": 45,
      "start": 16.6853,
      "duration": 0.1205,
      "velocity": 91,
      "chip": "ym2612"
    },
    {
      "channel": 4,
      "note": 74,
      "start": 16.6868,
      "duration": 0.9451,
      "velocity": 100,
      "chip": "ym2612"
    },
    {
      "channel": 5,
      "note": 42,
      "start": 16.6904,
      "duration": 0.0564,
      "velocity": 127,
      "chip": "ym2612"
    },
    {
      "channel": 0,
      "note": 45,
      "start": 16.8061,
      "duration": 0.1205,
      "velocity": 91,
      "chip": "ym2612"
    },
    {
      "channel": 5,
      "note": 42,
      "start": 16.8103,
      "duration": 0.0573,
      "velocity": 127,
      "chip": "ym2612"
    },
    {
      "channel": 0,
      "note": 45,
      "start": 16.9268,
      "duration": 0.2413,
      "velocity": 91,
      "chip": "ym2612"
    },
    {
      "channel": 5,
      "note": 42,
      "start": 16.9311,
      "duration": 0.0576,
      "velocity": 127,
      "chip": "ym2612"
    },
    {
      "channel": 5,
      "note": 42,
      "start": 17.0515,
      "duration": 0.0577,
      "velocity": 127,
      "chip": "ym2612"
    },
    {
      "channel": 0,
      "note": 45,
      "start": 17.1683,
      "duration": 0.1205,
      "velocity": 91,
      "chip": "ym2612"
    },
    {
      "channel": 5,
      "note": 42,
      "start": 17.1732,
      "duration": 0.0568,
      "velocity": 127,
      "chip": "ym2612"
    },
    {
      "channel": 0,
      "note": 45,
      "start": 17.2891,
      "duration": 0.1205,
      "velocity": 91,
      "chip": "ym2612"
    },
    {
      "channel": 5,
      "note": 42,
      "start": 17.2934,
      "duration": 0.0573,
      "velocity": 127,
      "chip": "ym2612"
    },
    {
      "channel": 0,
      "note": 40,
      "start": 17.4098,
      "duration": 0.2412,
      "velocity": 91,
      "chip": "ym2612"
    },
    {
      "channel": 1,
      "note": 71,
      "start": 17.4104,
      "duration": 3.3603,
      "velocity": 99,
      "chip": "ym2612"
    },
    {
      "channel": 5,
      "note": 42,
      "start": 17.4194,
      "duration": 0.1727,
      "velocity": 127,
      "chip": "ym2612"
    },
    {
      "channel": 0,
      "note": 40,
      "start": 17.6513,
      "duration": 0.1208,
      "velocity": 91,
      "chip": "ym2612"
    },
    {
      "channel": 4,
      "note": 72,
      "start": 17.6527,
      "duration": 3.3603,
      "velocity": 100,
      "chip": "ym2612"
    },
    {
      "channel": 5,
      "note": 42,
      "start": 17.6563,
      "duration": 0.0565,
      "velocity": 127,
      "chip": "ym2612"
    },
    {
      "channel": 0,
      "note": 40,
      "start": 17.7724,
      "duration": 0.1202,
      "velocity": 91,
      "chip": "ym2612"
    },
    {
      "channel": 5,
      "note": 42,
      "start": 17.7766,
      "duration": 0.057,
      "velocity": 127,
      "chip": "ym2612"
    },
    {
      "channel": 0,
      "note": 40,
      "start": 17.8928,
      "duration": 0.2412,
      "velocity": 91,
      "chip": "ym2612"
    },
    {
      "channel": 2,
      "note": 76,
      "start": 17.8937,
      "duration": 0.0598,
      "velocity": 101,
      "chip": "ym2612"
    },
    {
      "channel": 3,
      "note": 60,
      "start": 17.8943,
      "duration": 0.0595,
      "velocity": 101,
      "chip": "ym2612"
    },
    {
      "channel": 5,
      "note": 42,
      "start": 17.8978,
      "duration": 0.1774,
      "velocity": 127,
      "chip": "ym2612"
    },
    {
      "channel": 2,
      "note": 71,
      "start": 18.0543,
      "duration": 0.0602,
      "velocity": 101,
      "chip": "ym2612"
    },
    {
      "channel": 3,
      "note": 71,
      "start": 18.055,
      "duration": 0.0598,
      "velocity": 101,
      "chip": "ym2612"
    },
    {
      "channel": 0,
      "note": 40,
      "start": 18.1343,
      "duration": 0.1207,
      "velocity": 91,
      "chip": "ym2612"
    },
    {
      "channel": 5,
      "note": 42,
      "start": 18.1393,
      "duration": 0.0567,
      "velocity": 127,
      "chip": "ym2612"
    },
    {
      "channel": 2,
      "note": 76,
      "start": 18.2153,
      "duration": 0.0602,
      "velocity": 101,
      "chip": "ym2612"
    },
    {
      "channel": 3,
      "note": 68,
      "start": 18.2159,
      "duration": 0.0599,
      "velocity": 101,
      "chip": "ym2612"
    },
    {
      "channel": 0,
      "note": 40,
      "start": 18.2552,
      "duration": 0.1204,
      "velocity": 91,
      "chip": "ym2612"
    },
    {
      "channel": 5,
      "note": 42,
      "start": 18.2598,
      "duration": 0.0569,
      "velocity": 127,
      "chip": "ym2612"
    },
    {
      "channel": 0,
      "note": 40,
      "start": 18.3759,
      "duration": 0.2412,
      "velocity": 91,
      "chip": "ym2612"
    },
    {
      "channel": 2,
      "note": 80,
      "start": 18.3766,
      "duration": 0.0598,
      "velocity": 101,
      "chip": "ym2612"
    },
    {
      "channel": 3,
      "note": 71,
      "start": 18.3773,
      "duration": 0.0595,
      "velocity": 101,
      "chip": "ym2612"
    },
    {
      "channel": 5,
      "note": 42,
      "start": 18.3808,
      "duration": 0.1773,
      "velocity": 127,
      "chip": "ym2612"
    },
    {
      "channel": 2,
      "note": 76,
      "start": 18.5373,
      "duration": 0.0602,
      "velocity": 101,
      "chip": "ym2612"
    },
    {
      "channel": 3,
      "note": 76,
      "start": 18.5379,
      "duration": 0.0599,
      "velocity": 101,
      "chip": "ym2612"
    },
    {
      "channel": 0,
      "note": 40,
      "start": 18.6173,
      "duration": 0.1205,
      "velocity": 91,
      "chip": "ym2612"
    },
    {
      "channel": 5,
      "note": 42,
      "start": 18.6219,
      "duration": 0.0571,
      "velocity": 127,
      "chip": "ym2612"
    },
    {
      "channel": 2,
      "note": 80,
      "start": 18.6983,
      "duration": 0.0601,
      "velocity": 101,
      "chip": "ym2612"
    },
    {
      "channel": 3,
      "note": 71,
      "start": 18.6989,
      "duration": 0.0598,
      "velocity": 101,
      "chip": "ym2612"
    },
    {
      "channel": 0,
      "note": 40,
      "start": 18.7381,
      "duration": 0.1205,
      "velocity": 91,
      "chip": "ym2612"
    },
    {
      "channel": 5,
      "note": 42,
      "start": 18.7429,
      "duration": 0.0568,
      "velocity": 127,
      "chip": "ym2612"
    },
    {
      "channel": 0,
      "note": 40,
      "start": 18.8588,
      "duration": 0.2412,
      "velocity": 91,
      "chip": "ym2612"
    },
    {
      "channel": 2,
      "note": 83,
      "start": 18.8596,
      "duration": 0.0598,
      "velocity": 101,
      "chip": "ym2612"
    },
    {
      "channel": 3,
      "note": 76,
      "start": 18.8602,
      "duration": 0.0595,
      "velocity": 101,
      "chip": "ym2612"
    },
    {
      "channel": 5,
      "note": 42,
      "start": 18.8638,
      "duration": 0.0567,
      "velocity": 127,
      "chip": "ym2612"
    },
    {
      "channel": 5,
      "note": 42,
      "start": 18.9835,
      "duration": 0.0579,
      "velocity": 127,
      "chip": "ym2612"
    },
    {
      "channel": 2,
      "note": 80,
      "start": 19.0203,
      "duration": 0.0602,
      "velocity": 101,
      "chip": "ym2612"
    },
    {
      "channel": 3,
      "note": 80,
      "start": 19.0209,
      "duration": 0.0599,
      "velocity": 101,
      "chip": "ym2612"
    },
    {
      "channel": 0,
      "note": 40,
      "start": 19.1003,
      "duration": 0.1205,
      "velocity": 91,
      "chip": "ym2612"
    },
    {
      "channel": 5,
      "note": 42,
      "start": 19.1048,
      "duration": 0.0572,
      "velocity": 127,
      "chip": "ym2612"
    },
    {
      "channel": 2,
      "note": 83,
      "start": 19.1813,
      "duration": 0.0601,
      "velocity": 101,
      "chip": "ym2612"
    },
    {
      "channel": 3,
      "note": 76,
      "start": 19.1819,
      "duration": 0.0598,
      "velocity": 101,
      "chip": "ym2612"
    },
    {
      "channel": 0,
      "note": 40,
      "start": 19.2211,
      "duration": 0.1205,
      "velocity": 91,
      "chip": "ym2612"
    },
    {
      "channel": 5,
      "note": 42,
      "start": 19.2257,
      "duration": 0.0569,
      "velocity": 127,
      "chip": "ym2612"
    },
    {
      "channel": 3,
      "note": 80,
      "start": 19.2622,
      "duration": 0.06,
      "velocity": 101,
      "chip": "ym2612"
    },
    {
      "channel": 0,
      "note": 40,
      "start": 19.3418,
      "duration": 0.2412,
      "velocity": 91,
      "chip": "ym2612"
    },
    {
      "channel": 2,
      "note": 86,
      "start": 19.3427,
      "duration": 0.0598,
      "velocity": 101,
      "chip": "ym2612"
    },
    {
      "channel": 3,
      "note": 80,
      "start": 19.3433,
      "duration": 0.0595,
      "velocity": 101,
      "chip": "ym2612"
    },
    {
      "channel": 5,
      "note": 42,
      "start": 19.3472,
      "duration": 0.1774,
      "velocity": 127,
      "chip": "ym2612"
    },
    {
      "channel": 2,
      "note": 85,
      "start": 19.5033,
      "duration": 0.0602,
      "velocity": 101,
      "chip": "ym2612"
    },
    {
      "channel": 3,
      "note": 83,
      "start": 19.5039,
      "duration": 0.0599,
      "velocity": 101,
      "chip": "ym2612"
    },
    {
      "channel": 0,
      "note": 40,
      "start": 19.5833,
      "duration": 0.1205,
      "velocity": 91,
      "chip": "ym2612"
    },
    {
      "channel": 5,
      "note": 42,
      "start": 19.5878,
      "duration": 0.0572,
      "velocity": 127,
      "chip": "ym2612"
    },
    {
      "channel": 2,
      "note": 86,
      "start": 19.6643,
      "duration": 0.0606,
      "velocity": 101,
      "chip": "ym2612"
    },
    {
      "channel": 3,
      "note": 81,
      "start": 19.6649,
      "duration": 0.0603,
      "velocity": 101,
      "chip": "ym2612"
    },
    {
      "channel": 0,
      "note": 40,
      "start": 19.7041,
      "duration": 0.1208,
      "velocity": 91,
      "chip": "ym2612"
    },
    {
      "channel": 5,
      "note": 42,
      "start": 19.7088,
      "duration": 0.0569,
      "velocity": 127,
      "chip": "ym2612"
    },
    {
      "channel": 0,
      "note": 40,
      "start": 19.8251,
      "duration": 0.241,
      "velocity": 91,
      "chip": "ym2612"
    },
    {
      "channel": 2,
      "note": 83,
      "start": 19.8259,
      "duration": 1.4281,
      "velocity": 101,
      "chip": "ym2612"
    },
    {
      "channel": 3,
      "note": 83,
      "start": 19.8266,
      "duration": 1.4278,
      "velocity": 101,
      "chip": "ym2612"
    },
    {
      "channel": 5,
      "note": 42,
      "start": 19.8301,
      "duration": 0.1772,
      "velocity": 127,
      "chip": "ym2612"
    },
    {
      "channel": 0,
      "note": 40,
      "start": 20.0663,
      "duration": 0.1205,
      "velocity": 91,
      "chip": "ym2612"
    },
    {
      "channel": 5,
      "note": 42,
      "start": 20.0706,
      "duration": 0.0573,
      "velocity": 127,
      "chip": "ym2612"
    },
    {
      "channel": 0,
      "note": 40,
      "start": 20.1871,
      "duration": 0.1206,
      "velocity": 91,
      "chip": "ym2612"
    },
    {
      "channel": 5,
      "note": 42,
      "start": 20.1917,
      "duration": 0.0569,
      "velocity": 127,
      "chip": "ym2612"
    },
    {
      "channel": 0,
      "note": 40,
      "start": 20.308,
      "duration": 0.2411,
      "velocity": 91,
      "chip": "ym2612"
    },
    {
      "channel": 5,
      "note": 42,
      "start": 20.3127,
      "duration": 0.1777,
      "velocity": 127,
      "chip": "ym2612"
    },
    {
      "channel": 0,
      "note": 40,
      "start": 20.5493,
      "duration": 0.1205,
      "velocity": 91,
      "chip": "ym2612"
    },
    {
      "channel": 5,
      "note": 42,
      "start": 20.5536,
      "duration": 0.0573,
      "velocity": 127,
      "chip": "ym2612"
    },
    {
      "channel": 0,
      "note": 40,
      "start": 20.6701,
      "duration": 0.1205,
      "velocity": 91,
      "chip": "ym2612"
    },
    {
      "channel": 5,
      "note": 42,
      "start": 20.6745,
      "duration": 0.0573,
      "velocity": 127,
      "chip": "ym2612"
    },
    {
      "channel": 0,
      "note": 40,
      "start": 20.7908,
      "duration": 0.2412,
      "velocity": 91,
      "chip": "ym2612"
    },
    {
      "channel": 1,
      "note": 64,
      "start": 20.7915,
      "duration": 0.4622,
      "velocity": 99,
      "chip": "ym2612"
    },
    {
      "channel": 5,
      "note": 42,
      "start": 20.7959,
      "duration": 0.0565,
      "velocity": 127,
      "chip": "ym2612"
    },
    {
      "channel": 5,
      "note": 42,
      "start": 20.9155,
      "duration": 0.0576,
      "velocity": 127,
      "chip": "ym2612"
    },
    {
      "channel": 0,
      "note": 40,
      "start": 21.0323,
      "duration": 0.1205,
      "velocity": 91,
      "chip": "ym2612"
    },
    {
      "channel": 4,
      "note": 71,
      "start": 21.0338,
      "duration": 0.4622,
      "velocity": 100,
      "chip": "ym2612"
    },
    {
      "channel": 5,
      "note": 42,
      "start": 21.037,
      "duration": 0.0573,
      "velocity": 127,
      "chip": "ym2612"
    },
    {
      "channel": 0,
      "note": 40,
      "start": 21.1531,
      "duration": 0.1205,
      "velocity": 91,
      "chip": "ym2612"
    },
    {
      "channel": 5,
      "note": 42,
      "start": 21.1573,
      "duration": 0.0573,
      "velocity": 127,
      "chip": "ym2612"
    },
    {
      "channel": 0,
      "note": 41,
      "start": 21.2738,
      "duration": 0.2412,
      "velocity": 91,
      "chip": "ym2612"
    },
    {
      "channel": 1,
      "note": 71,
      "start": 21.2744,
      "duration": 0.9453,
      "velocity": 99,
      "chip": "ym2612"
    },
    {
      "channel": 2,
      "note": 77,
      "start": 21.2771,
      "duration": 3.8409,
      "velocity": 100,
      "chip": "ym2612"
    },
    {
      "channel": 3,
      "note": 80,
      "start": 21.2803,
      "duration": 0.94,
      "velocity": 100,
      "chip": "ym2612"
    },
    {
      "channel": 5,
      "note": 42,
      "start": 21.2842,
      "duration": 0.1719,
      "velocity": 127,
      "chip": "ym2612"
    },
    {
      "channel": 0,
      "note": 41,
      "start": 21.5153,
      "duration": 0.1205,
      "velocity": 91,
      "chip": "ym2612"
    },
    {
      "channel": 4,
      "note": 64,
      "start": 21.5167,
      "duration": 0.9456,
      "velocity": 100,
      "chip": "ym2612"
    },
    {
      "channel": 5,
      "note": 42,
      "start": 21.5199,
      "duration": 0.0573,
      "velocity": 127,
      "chip": "ym2612"
    },
    {
      "channel": 0,
      "note": 41,
      "start": 21.6361,
      "duration": 0.1205,
      "velocity": 91,
      "chip": "ym2612"
    },
    {
      "channel": 5,
      "note": 42,
      "start": 21.6403,
      "duration": 0.0573,
      "velocity": 127,
      "chip": "ym2612"
    },
    {
      "channel": 0,
      "note": 41,
      "start": 21.7568,
      "duration": 0.2413,
      "velocity": 91,
      "chip": "ym2612"
    },
    {
      "channel": 5,
      "note": 42,
      "start": 21.7615,
      "duration": 0.1778,
      "velocity": 127,
      "chip": "ym2612"
    },
    {
      "channel": 0,
      "note": 41,
      "start": 21.9983,
      "duration": 0.1205,
      "velocity": 91,
      "chip": "ym2612"
    },
    {
      "channel": 5,
      "note": 42,
      "start": 22.0027,
      "duration": 0.0574,
      "velocity": 127,
      "chip": "ym2612"
    },
    {
      "channel": 0,
      "note": 41,
      "start": 22.119,
      "duration": 0.1205,
      "velocity": 91,
      "chip": "ym2612"
    },
    {
      "channel": 5,
      "note": 42,
      "start": 22.1234,
      "duration": 0.0573,
      "velocity": 127,
      "chip": "ym2612"
    },
    {
      "channel": 0,
      "note": 41,
      "start": 22.2398,
      "duration": 0.2412,
      "velocity": 91,
      "chip": "ym2612"
    },
    {
      "channel": 1,
      "note": 69,
      "start": 22.2404,
      "duration": 0.9454,
      "velocity": 99,
      "chip": "ym2612"
    },
    {
      "channel": 3,
      "note": 59,
      "start": 22.2413,
      "duration": 0.9451,
      "velocity": 100,
      "chip": "ym2612"
    },
    {
      "channel": 5,
      "note": 42,
      "start": 22.2452,
      "duration": 0.1769,
      "velocity": 127,
      "chip": "ym2612"
    },
    {
      "channel": 0,
      "note": 41,
      "start": 22.4813,
      "duration": 0.1205,
      "velocity": 91,
      "chip": "ym2612"
    },
    {
      "channel": 4,
      "note": 71,
      "start": 22.4828,
      "duration": 0.9454,
      "velocity": 100,
      "chip": "ym2612"
    },
    {
      "channel": 5,
      "note": 42,
      "start": 22.4859,
      "duration": 0.057,
      "velocity": 127,
      "chip": "ym2612"
    },
    {
      "channel": 0,
      "note": 41,
      "start": 22.6021,
      "duration": 0.1205,
      "velocity": 91,
      "chip": "ym2612"
    },
    {
      "channel": 5,
      "note": 42,
      "start": 22.6063,
      "duration": 0.0573,
      "velocity": 127,
      "chip": "ym2612"
    },
    {
      "channel": 0,
      "note": 41,
      "start": 22.7228,
      "duration": 0.2412,
      "velocity": 91,
      "chip": "ym2612"
    },
    {
      "channel": 5,
      "note": 42,
      "start": 22.7273,
      "duration": 0.0572,
      "velocity": 127,
      "chip": "ym2612"
    },
    {
      "channel": 5,
      "note": 42,
      "start": 22.848,
      "duration": 0.0572,
      "velocity": 127,
      "chip": "ym2612"
    },
    {
      "channel": 0,
      "note": 41,
      "start": 22.9643,
      "duration": 0.1205,
      "velocity": 91,
      "chip": "ym2612"
    },
    {
      "channel": 5,
      "note": 42,
      "start": 22.9686,
      "duration": 0.0573,
      "velocity": 127,
      "chip": "ym2612"
    },
    {
      "channel": 0,
      "note": 41,
      "start": 23.0851,
      "duration": 0.1205,
      "velocity": 91,
      "chip": "ym2612"
    },
    {
      "channel": 5,
      "note": 42,
      "start": 23.0894,
      "duration": 0.0578,
      "velocity": 127,
      "chip": "ym2612"
    },
    {
      "channel": 0,
      "note": 41,
      "start": 23.2058,
      "duration": 0.2413,
      "velocity": 91,
      "chip": "ym2612"
    },
    {
      "channel": 1,
      "note": 74,
      "start": 23.2063,
      "duration": 0.9454,
      "velocity": 99,
      "chip": "ym2612"
    },
    {
      "channel": 3,
      "note": 57,
      "start": 23.2073,
      "duration": 0.9451,
      "velocity": 100,
      "chip": "ym2612"
    },
    {
      "channel": 5,
      "note": 42,
      "start": 23.2113,
      "duration": 0.1768,
      "velocity": 127,
      "chip": "ym2612"
    },
    {
      "channel": 0,
      "note": 41,
      "start": 23.4474,
      "duration": 0.1205,
      "velocity": 91,
      "chip": "ym2612"
    },
    {
      "channel": 4,
      "note": 69,
      "start": 23.4488,
      "duration": 0.9452,
      "velocity": 100,
      "chip": "ym2612"
    },
    {
      "channel": 5,
      "note": 42,
      "start": 23.452,
      "duration": 0.0569,
      "velocity": 127,
      "chip": "ym2612"
    },
    {
      "channel": 0,
      "note": 41,
      "start": 23.5681,
      "duration": 0.1205,
      "velocity": 91,
      "chip": "ym2612"
    },
    {
      "channel": 5,
      "note": 42,
      "start": 23.5723,
      "duration": 0.0578,
      "velocity": 127,
      "chip": "ym2612"
    },
    {
      "channel": 0,
      "note": 41,
      "start": 23.6888,
      "duration": 0.2415,
      "velocity": 91,
      "chip": "ym2612"
    },
    {
      "channel": 5,
      "note": 42,
      "start": 23.6931,
      "duration": 0.1782,
      "velocity": 127,
      "chip": "ym2612"
    },
    {
      "channel": 0,
      "note": 41,
      "start": 23.9306,
      "duration": 0.1202,
      "velocity": 91,
      "chip": "ym2612"
    },
    {
      "channel": 5,
      "note": 42,
      "start": 23.9349,
      "duration": 0.057,
      "velocity": 127,
      "chip": "ym2612"
    },
    {
      "channel": 0,
      "note": 41,
      "start": 24.0511,
      "duration": 0.1205,
      "velocity": 91,
      "chip": "ym2612"
    },
    {
      "channel": 5,
      "note": 42,
      "start": 24.0554,
      "duration": 0.0574,
      "velocity": 127,
      "chip": "ym2612"
    },
    {
      "channel": 0,
      "note": 45,
      "start": 24.1718,
      "duration": 0.2413,
      "velocity": 91,
      "chip": "ym2612"
    },
    {
      "channel": 1,
      "note": 72,
      "start": 24.1724,
      "duration": 0.9453,
      "velocity": 99,
      "chip": "ym2612"
    },
    {
      "channel": 3,
      "note": 62,
      "start": 24.1732,
      "duration": 0.9451,
      "velocity": 100,
      "chip": "ym2612"
    },
    {
      "channel": 5,
      "note": 42,
      "start": 24.1768,
      "duration": 0.1774,
      "velocity": 127,
      "chip": "ym2612"
    },
    {
      "channel": 0,
      "note": 45,
      "start": 24.4133,
      "duration": 0.1205,
      "velocity": 91,
      "chip": "ym2612"
    },
    {
      "channel": 4,
      "note": 74,
      "start": 24.4151,
      "duration": 0.9449,
      "velocity": 100,
      "chip": "ym2612"
    },
    {
      "channel": 5,
      "note": 42,
      "start": 24.4182,
      "duration": 0.0566,
      "velocity": 127,
      "chip": "ym2612"
    },
    {
      "channel": 0,
      "note": 45,
      "start": 24.5341,
      "duration": 0.1205,
      "velocity": 91,
      "chip": "ym2612"
    },
    {
      "channel": 5,
      "note": 42,
      "start": 24.5383,
      "duration": 0.0573,
      "velocity": 127,
      "chip": "ym2612"
    },
    {
      "channel": 0,
      "note": 45,
      "start": 24.6549,
      "duration": 0.2412,
      "velocity": 91,
      "chip": "ym2612"
    },
    {
      "channel": 5,
      "note": 42,
      "start": 24.6592,
      "duration": 0.0573,
      "velocity": 127,
      "chip": "ym2612"
    },
    {
      "channel": 5,
      "note": 42,
      "start": 24.7795,
      "duration": 0.0577,
      "velocity": 127,
      "chip": "ym2612"
    },
    {
      "channel": 0,
      "note": 45,
      "start": 24.8963,
      "duration": 0.1205,
      "velocity": 91,
      "chip": "ym2612"
    },
    {
      "channel": 5,
      "note": 42,
      "start": 24.9012,
      "duration": 0.0568,
      "velocity": 127,
      "chip": "ym2612"
    },
    {
      "channel": 0,
      "note": 45,
      "start": 25.0171,
      "duration": 0.1205,
      "velocity": 91,
      "chip": "ym2612"
    },
    {
      "channel": 5,
      "note": 42,
      "start": 25.0214,
      "duration": 0.0573,
      "velocity": 127,
      "chip": "ym2612"
    },
    {
      "channel": 0,
      "note": 40,
      "start": 25.1378,
      "duration": 0.2413,
      "velocity": 91,
      "chip": "ym2612"
    },
    {
      "channel": 1,
      "note": 71,
      "start": 25.1384,
      "duration": 3.3603,
      "velocity": 99,
      "chip": "ym2612"
    },
    {
      "channel": 5,
      "note": 42,
      "start": 25.143,
      "duration": 0.1771,
      "velocity": 127,
      "chip": "ym2612"
    },
    {
      "channel": 0,
      "note": 40,
      "start": 25.3794,
      "duration": 0.1205,
      "velocity": 91,
      "chip": "ym2612"
    },
    {
      "channel": 4,
      "note": 72,
      "start": 25.3809,
      "duration": 3.3602,
      "velocity": 100,
      "chip": "ym2612"
    },
    {
      "channel": 5,
      "note": 42,
      "start": 25.3844,
      "duration": 0.0564,
      "velocity": 127,
      "chip": "ym2612"
    },
    {
      "channel": 0,
      "note": 40,
      "start": 25.5001,
      "duration": 0.1205,
      "velocity": 91,
      "chip": "ym2612"
    },
    {
      "channel": 5,
      "note": 42,
      "start": 25.5043,
      "duration": 0.0573,
      "velocity": 127,
      "chip": "ym2612"
    },
    {
      "channel": 0,
      "note": 40,
      "start": 25.6208,
      "duration": 0.2413,
      "velocity": 91,
      "chip": "ym2612"
    },
    {
      "channel": 2,
      "note": 76,
      "start": 25.6234,
      "duration": 0.0581,
      "velocity": 101,
      "chip": "ym2612"
    },
    {
      "channel": 3,
      "note": 60,
      "start": 25.6266,
      "duration": 0.0557,
      "velocity": 101,
      "chip": "ym2612"
    },
    {
      "channel": 5,
      "note": 42,
      "start": 25.6301,
      "duration": 0.173,
      "velocity": 127,
      "chip": "ym2612"
    },
    {
      "channel": 2,
      "note": 71,
      "start": 25.7826,
      "duration": 0.0599,
      "velocity": 101,
      "chip": "ym2612"
    },
    {
      "channel": 3,
      "note": 71,
      "start": 25.7832,
      "duration": 0.0596,
      "velocity": 101,
      "chip": "ym2612"
    },
    {
      "channel": 0,
      "note": 40,
      "start": 25.8624,
      "duration": 0.1207,
      "velocity": 91,
      "chip": "ym2612"
    },
    {
      "channel": 5,
      "note": 42,
      "start": 25.8673,
      "duration": 0.0567,
      "velocity": 127,
      "chip": "ym2612"
    },
    {
      "channel": 2,
      "note": 76,
      "start": 25.9433,
      "duration": 0.0602,
      "velocity": 101,
      "chip": "ym2612"
    },
    {
      "channel": 3,
      "note": 68,
      "start": 25.9439,
      "duration": 0.0599,
      "velocity": 101,
      "chip": "ym2612"
    },
    {
      "channel": 0,
      "note": 40,
      "start": 25.9833,
      "duration": 0.1203,
      "velocity": 91,
      "chip": "ym2612"
    },
    {
      "channel": 5,
      "note": 42,
      "start": 25.9876,
      "duration": 0.0571,
      "velocity": 127,
      "chip": "ym2612"
    },
    {
      "channel": 0,
      "note": 40,
      "start": 26.1039,
      "duration": 0.2412,
      "velocity": 91,
      "chip": "ym2612"
    },
    {
      "channel": 2,
      "note": 80,
      "start": 26.1046,
      "duration": 0.0598,
      "velocity": 101,
      "chip": "ym2612"
    },
    {
      "channel": 3,
      "note": 71,
      "start": 26.1053,
      "duration": 0.0596,
      "velocity": 101,
      "chip": "ym2612"
    },
    {
      "channel": 5,
      "note": 42,
      "start": 26.1088,
      "duration": 0.1773,
      "velocity": 127,
      "chip": "ym2612"
    },
    {
      "channel": 2,
      "note": 76,
      "start": 26.2654,
      "duration": 0.06,
      "velocity": 101,
      "chip": "ym2612"
    },
    {
      "channel": 3,
      "note": 76,
      "start": 26.2663,
      "duration": 0.0594,
      "velocity": 101,
      "chip": "ym2612"
    },
    {
      "channel": 0,
      "note": 40,
      "start": 26.3454,
      "duration": 0.1205,
      "velocity": 91,
      "chip": "ym2612"
    },
    {
      "channel": 5,
      "note": 42,
      "start": 26.3502,
      "duration": 0.0568,
      "velocity": 127,
      "chip": "ym2612"
    },
    {
      "channel": 2,
      "note": 80,
      "start": 26.4263,
      "duration": 0.0602,
      "velocity": 101,
      "chip": "ym2612"
    },
    {
      "channel": 3,
      "note": 71,
      "start": 26.4269,
      "duration": 0.0598,
      "velocity": 101,
      "chip": "ym2612"
    },
    {
      "channel": 0,
      "note": 40,
      "start": 26.4661,
      "duration": 0.1205,
      "velocity": 91,
      "chip": "ym2612"
    },
    {
      "channel": 5,
      "note": 42,
      "start": 26.4707,
      "duration": 0.057,
      "velocity": 127,
      "chip": "ym2612"
    },
    {
      "channel": 0,
      "note": 40,
      "start": 26.5868,
      "duration": 0.2413,
      "velocity": 91,
      "chip": "ym2612"
    },
    {
      "channel": 2,
      "note": 83,
      "start": 26.5876,
      "duration": 0.0599,
      "velocity": 101,
      "chip": "ym2612"
    },
    {
      "channel": 3,
      "note": 76,
      "start": 26.5883,
      "duration": 0.0595,
      "velocity": 101,
      "chip": "ym2612"
    },
    {
      "channel": 5,
      "note": 42,
      "start": 26.5918,
      "duration": 0.0568,
      "velocity": 127,
      "chip": "ym2612"
    },
    {
      "channel": 5,
      "note": 42,
      "start": 26.7115,
      "duration": 0.0576,
      "velocity": 127,
      "chip": "ym2612"
    },
    {
      "channel": 2,
      "note": 80,
      "start": 26.7483,
      "duration": 0.0602,
      "velocity": 101,
      "chip": "ym2612"
    },
    {
      "channel": 3,
      "note": 80,
      "start": 26.749,
      "duration": 0.0598,
      "velocity": 101,
      "chip": "ym2612"
    },
    {
      "channel": 0,
      "note": 40,
      "start": 26.8283,
      "duration": 0.1205,
      "velocity": 91,
      "chip": "ym2612"
    },
    {
      "channel": 5,
      "note": 42,
      "start": 26.833,
      "duration": 0.057,
      "velocity": 127,
      "chip": "ym2612"
    },
    {
      "channel": 2,
      "note": 83,
      "start": 26.9093,
      "duration": 0.0602,
      "velocity": 101,
      "chip": "ym2612"
    },
    {
      "channel": 3,
      "note": 76,
      "start": 26.9099,
      "duration": 0.0598,
      "velocity": 101,
      "chip": "ym2612"
    },
    {
      "channel": 0,
      "note": 40,
      "start": 26.9491,
      "duration": 0.1205,
      "velocity": 91,
      "chip": "ym2612"
    },
    {
      "channel": 5,
      "note": 42,
      "start": 26.9539,
      "duration": 0.0568,
      "velocity": 127,
      "chip": "ym2612"
    },
    {
      "channel": 0,
      "note": 47,
      "start": 27.0698,
      "duration": 0.2413,
      "velocity": 91,
      "chip": "ym2612"
    },
    {
      "channel": 2,
      "note": 88,
      "start": 27.0706,
      "duration": 0.0598,
      "velocity": 101,
      "chip": "ym2612"
    },
    {
      "channel": 3,
      "note": 80,
      "start": 27.0712,
      "duration": 0.0595,
      "velocity": 101,
      "chip": "ym2612"
    },
    {
      "channel": 5,
      "note": 42,
      "start": 27.0752,
      "duration": 0.1773,
      "velocity": 127,
      "chip": "ym2612"
    },
    {
      "channel": 2,
      "note": 81,
      "start": 27.2313,
      "duration": 0.0602,
      "velocity": 101,
      "chip": "ym2612"
    },
    {
      "channel": 3,
      "note": 83,
      "start": 27.2319,
      "duration": 0.0598,
      "velocity": 101,
      "chip": "ym2612"
    },
    {
      "channel": 0,
      "note": 47,
      "start": 27.3114,
      "duration": 0.1205,
      "velocity": 91,
      "chip": "ym2612"
    },
    {
      "channel": 5,
      "note": 42,
      "start": 27.3159,
      "duration": 0.0571,
      "velocity": 127,
      "chip": "ym2612"
    },
    {
      "channel": 2,
      "note": 83,
      "start": 27.3923,
      "duration": 0.0602,
      "velocity": 101,
      "chip": "ym2612"
    },
    {
      "channel": 3,
      "note": 76,
      "start": 27.3929,
      "duration": 0.0599,
      "velocity": 101,
      "chip": "ym2612"
    },
    {
      "channel": 0,
      "note": 47,
      "start": 27.4321,
      "duration": 0.1205,
      "velocity": 91,
      "chip": "ym2612"
    },
    {
      "channel": 5,
      "note": 42,
      "start": 27.4368,
      "duration": 0.0568,
      "velocity": 127,
      "chip": "ym2612"
    },
    {
      "channel": 0,
      "note": 47,
      "start": 27.5529,
      "duration": 0.2412,
      "velocity": 91,
      "chip": "ym2612"
    },
    {
      "channel": 2,
      "note": 88,
      "start": 27.5537,
      "duration": 0.0598,
      "velocity": 101,
      "chip": "ym2612"
    },
    {
      "channel": 3,
      "note": 81,
      "start": 27.5543,
      "duration": 0.0595,
      "velocity": 101,
      "chip": "ym2612"
    },
    {
      "channel": 5,
      "note": 42,
      "start": 27.5578,
      "duration": 0.1778,
      "velocity": 127,
      "chip": "ym2612"
    },
    {
      "channel": 2,
      "note": 81,
      "start": 27.7143,
      "duration": 0.0601,
      "velocity": 101,
      "chip": "ym2612"
    },
    {
      "channel": 3,
      "note": 83,
      "start": 27.7149,
      "duration": 0.0598,
      "velocity": 101,
      "chip": "ym2612"
    },
    {
      "channel": 0,
      "note": 47,
      "start": 27.7944,
      "duration": 0.1205,
      "velocity": 91,
      "chip": "ym2612"
    },
    {
      "channel": 5,
      "note": 42,
      "start": 27.7988,
      "duration": 0.0572,
      "velocity": 127,
      "chip": "ym2612"
    },
    {
      "channel": 2,
      "note": 83,
      "start": 27.8753,
      "duration": 0.0606,
      "velocity": 101,
      "chip": "ym2612"
    },
    {
      "channel": 3,
      "note": 76,
      "start": 27.8759,
      "duration": 0.0603,
      "velocity": 101,
      "chip": "ym2612"
    },
    {
      "channel": 0,
      "note": 47,
      "start": 27.9151,
      "duration": 0.1205,
      "velocity": 91,
      "chip": "ym2612"
    },
    {
      "channel": 5,
      "note": 42,
      "start": 27.9198,
      "duration": 0.0568,
      "velocity": 127,
      "chip": "ym2612"
    },
    {
      "channel": 0,
      "note": 47,
      "start": 28.0358,
      "duration": 0.2413,
      "velocity": 91,
      "chip": "ym2612"
    },
    {
      "channel": 2,
      "note": 83,
      "start": 28.0366,
      "duration": 0.9454,
      "velocity": 101,
      "chip": "ym2612"
    },
    {
      "channel": 3,
      "note": 81,
      "start": 28.0373,
      "duration": 0.9451,
      "velocity": 101,
      "chip": "ym2612"
    },
    {
      "channel": 5,
      "note": 42,
      "start": 28.0408,
      "duration": 0.1776,
      "velocity": 127,
      "chip": "ym2612"
    },
    {
      "channel": 0,
      "note": 47,
      "start": 28.2774,
      "duration": 0.1205,
      "velocity": 91,
      "chip": "ym2612"
    },
    {
      "channel": 5,
      "note": 42,
      "start": 28.2816,
      "duration": 0.0572,
      "velocity": 127,
      "chip": "ym2612"
    },
    {
      "channel": 0,
      "note": 47,
      "start": 28.3981,
      "duration": 0.1205,
      "velocity": 91,
      "chip": "ym2612"
    },
    {
      "channel": 5,
      "note": 42,
      "start": 28.4028,
      "duration": 0.0569,
      "velocity": 127,
      "chip": "ym2612"
    },
    {
      "channel": 0,
      "note": 47,
      "start": 28.5191,
      "duration": 0.241,
      "velocity": 91,
      "chip": "ym2612"
    },
    {
      "channel": 5,
      "note": 42,
      "start": 28.5235,
      "duration": 0.0569,
      "velocity": 127,
      "chip": "ym2612"
    },
    {
      "channel": 5,
      "note": 42,
      "start": 28.6435,
      "duration": 0.0577,
      "velocity": 127,
      "chip": "ym2612"
    },
    {
      "channel": 0,
      "note": 47,
      "start": 28.7603,
      "duration": 0.1205,
      "velocity": 91,
      "chip": "ym2612"
    },
    {
      "channel": 1,
      "note": 66,
      "start": 28.7609,
      "duration": 0.1001,
      "velocity": 99,
      "chip": "ym2612"
    },
    {
      "channel": 4,
      "note": 71,
      "start": 28.7649,
      "duration": 0.0969,
      "velocity": 99,
      "chip": "ym2612"
    },
    {
      "channel": 5,
      "note": 42,
      "start": 28.7681,
      "duration": 0.0538,
      "velocity": 127,
      "chip": "ym2612"
    },
    {
      "channel": 0,
      "note": 47,
      "start": 28.8811,
      "duration": 0.1205,
      "velocity": 91,
      "chip": "ym2612"
    },
    {
      "channel": 1,
      "note": 68,
      "start": 28.8816,
      "duration": 0.1001,
      "velocity": 99,
      "chip": "ym2612"
    },
    {
      "channel": 4,
      "note": 66,
      "start": 28.8829,
      "duration": 0.0999,
      "velocity": 99,
      "chip": "ym2612"
    },
    {
      "channel": 5,
      "note": 42,
      "start": 28.8866,
      "duration": 0.0561,
      "velocity": 127,
      "chip": "ym2612"
    },
    {
      "channel": 0,
      "note": 42,
      "start": 29.0021,
      "duration": 0.0037,
      "velocity": 91,
      "chip": "ym2612"
    },
    {
      "channel": 1,
      "note": 69,
      "start": 29.0031,
      "duration": 0.0027,
      "velocity": 99,
      "chip": "ym2612"
    }
  ]
}