{
  "track_name": "03 - Bonus Table 3",
  "duration_sec": 43.576,
  "sample_rate": 44100,
  "note_count": 1700,
  "unique_pitches": 26,
  "pitch_range": 39,
  "avg_note_duration": 0.0996,
  "reconstruction_stats": {
    "notes_reconstructed": 1700,
    "keyon_events": 1700,
    "keyoff_events": 1695,
    "orphan_keyons": 5,
    "unique_pitches": 26,
    "pitch_range": 39,
    "avg_duration_sec": 0.0996
  },
  "metadata": {
    "source": "D\\Dragon's Fury\\03 - Bonus Table 3.vgz"
  },
  "notes": [
    {
      "channel": 0,
      "note": 64,
      "start": 0.0,
      "duration": 0.0,
      "velocity": 104,
      "chip": "ym2612"
    },
    {
      "channel": 1,
      "note": 52,
      "start": 0.0,
      "duration": 0.0,
      "velocity": 103,
      "chip": "ym2612"
    },
    {
      "channel": 1,
      "note": 52,
      "start": 0.0,
      "duration": 0.0,
      "velocity": 103,
      "chip": "ym2612"
    },
    {
      "channel": 1,
      "note": 52,
      "start": 0.0,
      "duration": 0.0,
      "velocity": 103,
      "chip": "ym2612"
    },
    {
      "channel": 2,
      "note": 64,
      "start": 0.0,
      "duration": 0.0,
      "velocity": 107,
      "chip": "ym2612"
    },
    {
      "channel": 3,
      "note": 61,
      "start": 0.0,
      "duration": 0.0,
      "velocity": 127,
      "chip": "ym2612"
    },
    {
      "channel": 3,
      "note": 61,
      "start": 0.0,
      "duration": 0.0,
      "velocity": 127,
      "chip": "ym2612"
    },
    {
      "channel": 3,
      "note": 61,
      "start": 0.0,
      "duration": 0.0,
      "velocity": 127,
      "chip": "ym2612"
    },
    {
      "channel": 4,
      "note": 66,
      "start": 0.0,
      "duration": 0.0,
      "velocity": 104,
      "chip": "ym2612"
    },
    {
      "channel": 4,
      "note": 64,
      "start": 0.0,
      "duration": 0.0,
      "velocity": 104,
      "chip": "ym2612"
    },
    {
      "channel": 5,
      "note": 62,
      "start": 0.0,
      "duration": 0.0,
      "velocity": 107,
      "chip": "ym2612"
    },
    {
      "channel": 5,
      "note": 60,
      "start": 0.0,
      "duration": 0.0,
      "velocity": 107,
      "chip": "ym2612"
    },
    {
      "channel": 5,
      "note": 64,
      "start": 0.0,
      "duration": 0.0,
      "velocity": 107,
      "chip": "ym2612"
    },
    {
      "channel": 0,
      "note": 60,
      "start": 0.0002,
      "duration": 0.1844,
      "velocity": 103,
      "chip": "ym2612"
    },
    {
      "channel": 1,
      "note": 52,
      "start": 0.002,
      "duration": 0.1828,
      "velocity": 103,
      "chip": "ym2612"
    },
    {
      "channel": 2,
      "note": 57,
      "start": 0.0037,
      "duration": 0.1814,
      "velocity": 103,
      "chip": "ym2612"
    },
    {
      "channel": 3,
      "note": 61,
      "start": 0.0086,
      "duration": 0.0698,
      "velocity": 127,
      "chip": "ym2612"
    },
    {
      "channel": 4,
      "note": 60,
      "start": 0.1692,
      "duration": 0.1761,
      "velocity": 103,
      "chip": "ym2612"
    },
    {
      "channel": 5,
      "note": 57,
      "start": 0.171,
      "duration": 0.1746,
      "velocity": 103,
      "chip": "ym2612"
    },
    {
      "channel": 0,
      "note": 60,
      "start": 0.2216,
      "duration": 0.1761,
      "velocity": 103,
      "chip": "ym2612"
    },
    {
      "channel": 1,
      "note": 52,
      "start": 0.2233,
      "duration": 0.0679,
      "velocity": 103,
      "chip": "ym2612"
    },
    {
      "channel": 2,
      "note": 57,
      "start": 0.225,
      "duration": 0.1732,
      "velocity": 103,
      "chip": "ym2612"
    },
    {
      "channel": 3,
      "note": 61,
      "start": 0.2271,
      "duration": 0.0645,
      "velocity": 127,
      "chip": "ym2612"
    },
    {
      "channel": 1,
      "note": 59,
      "start": 0.3281,
      "duration": 0.0697,
      "velocity": 103,
      "chip": "ym2612"
    },
    {
      "channel": 3,
      "note": 61,
      "start": 0.3336,
      "duration": 0.0649,
      "velocity": 127,
      "chip": "ym2612"
    },
    {
      "channel": 4,
      "note": 60,
      "start": 0.3818,
      "duration": 0.1765,
      "velocity": 103,
      "chip": "ym2612"
    },
    {
      "channel": 5,
      "note": 57,
      "start": 0.3835,
      "duration": 0.175,
      "velocity": 103,
      "chip": "ym2612"
    },
    {
      "channel": 1,
      "note": 52,
      "start": 0.4358,
      "duration": 0.0685,
      "velocity": 103,
      "chip": "ym2612"
    },
    {
      "channel": 0,
      "note": 59,
      "start": 0.5412,
      "duration": 0.7087,
      "velocity": 103,
      "chip": "ym2612"
    },
    {
      "channel": 1,
      "note": 52,
      "start": 0.5429,
      "duration": 0.0679,
      "velocity": 103,
      "chip": "ym2612"
    },
    {
      "channel": 2,
      "note": 55,
      "start": 0.5446,
      "duration": 0.7058,
      "velocity": 103,
      "chip": "ym2612"
    },
    {
      "channel": 1,
      "note": 52,
      "start": 0.6478,
      "duration": 0.1773,
      "velocity": 103,
      "chip": "ym2612"
    },
    {
      "channel": 3,
      "note": 61,
      "start": 0.6547,
      "duration": 0.063,
      "velocity": 127,
      "chip": "ym2612"
    },
    {
      "channel": 4,
      "note": 59,
      "start": 0.7015,
      "duration": 0.7092,
      "velocity": 103,
      "chip": "ym2612"
    },
    {
      "channel": 5,
      "note": 55,
      "start": 0.7032,
      "duration": 0.7076,
      "velocity": 103,
      "chip": "ym2612"
    },
    {
      "channel": 1,
      "note": 52,
      "start": 0.8608,
      "duration": 0.0696,
      "velocity": 103,
      "chip": "ym2612"
    },
    {
      "channel": 3,
      "note": 61,
      "start": 0.8631,
      "duration": 0.0678,
      "velocity": 127,
      "chip": "ym2612"
    },
    {
      "channel": 1,
      "note": 60,
      "start": 0.9674,
      "duration": 0.0697,
      "velocity": 103,
      "chip": "ym2612"
    },
    {
      "channel": 3,
      "note": 61,
      "start": 0.9729,
      "duration": 0.0646,
      "velocity": 127,
      "chip": "ym2612"
    },
    {
      "channel": 1,
      "note": 52,
      "start": 1.0744,
      "duration": 0.0691,
      "velocity": 103,
      "chip": "ym2612"
    },
    {
      "channel": 1,
      "note": 52,
      "start": 1.1804,
      "duration": 0.0697,
      "velocity": 103,
      "chip": "ym2612"
    },
    {
      "channel": 0,
      "note": 55,
      "start": 1.2872,
      "duration": 0.0693,
      "velocity": 103,
      "chip": "ym2612"
    },
    {
      "channel": 1,
      "note": 52,
      "start": 1.2889,
      "duration": 0.1748,
      "velocity": 103,
      "chip": "ym2612"
    },
    {
      "channel": 2,
      "note": 55,
      "start": 1.2905,
      "duration": 0.0129,
      "velocity": 103,
      "chip": "ym2612"
    },
    {
      "channel": 3,
      "note": 61,
      "start": 1.2972,
      "duration": 0.0598,
      "velocity": 127,
      "chip": "ym2612"
    },
    {
      "channel": 0,
      "note": 57,
      "start": 1.3935,
      "duration": 0.07,
      "velocity": 103,
      "chip": "ym2612"
    },
    {
      "channel": 4,
      "note": 55,
      "start": 1.4479,
      "duration": 0.0694,
      "velocity": 103,
      "chip": "ym2612"
    },
    {
      "channel": 5,
      "note": 55,
      "start": 1.4496,
      "duration": 0.0151,
      "velocity": 103,
      "chip": "ym2612"
    },
    {
      "channel": 0,
      "note": 59,
      "start": 1.5,
      "duration": 0.0695,
      "velocity": 103,
      "chip": "ym2612"
    },
    {
      "channel": 1,
      "note": 52,
      "start": 1.5017,
      "duration": 0.068,
      "velocity": 103,
      "chip": "ym2612"
    },
    {
      "channel": 3,
      "note": 61,
      "start": 1.504,
      "duration": 0.0662,
      "velocity": 127,
      "chip": "ym2612"
    },
    {
      "channel": 4,
      "note": 57,
      "start": 1.5537,
      "duration": 0.07,
      "velocity": 103,
      "chip": "ym2612"
    },
    {
      "channel": 0,
      "note": 60,
      "start": 1.6066,
      "duration": 0.0695,
      "velocity": 103,
      "chip": "ym2612"
    },
    {
      "channel": 1,
      "note": 59,
      "start": 1.6082,
      "duration": 0.0681,
      "velocity": 103,
      "chip": "ym2612"
    },
    {
      "channel": 3,
      "note": 61,
      "start": 1.6137,
      "duration": 0.063,
      "velocity": 127,
      "chip": "ym2612"
    },
    {
      "channel": 4,
      "note": 59,
      "start": 1.661,
      "duration": 0.0693,
      "velocity": 103,
      "chip": "ym2612"
    },
    {
      "channel": 0,
      "note": 59,
      "start": 1.7131,
      "duration": 0.0695,
      "velocity": 103,
      "chip": "ym2612"
    },
    {
      "channel": 1,
      "note": 52,
      "start": 1.7148,
      "duration": 0.0681,
      "velocity": 103,
      "chip": "ym2612"
    },
    {
      "channel": 4,
      "note": 60,
      "start": 1.7673,
      "duration": 0.0695,
      "velocity": 103,
      "chip": "ym2612"
    },
    {
      "channel": 0,
      "note": 57,
      "start": 1.8197,
      "duration": 0.0695,
      "velocity": 103,
      "chip": "ym2612"
    },
    {
      "channel": 1,
      "note": 52,
      "start": 1.8213,
      "duration": 0.0681,
      "velocity": 103,
      "chip": "ym2612"
    },
    {
      "channel": 4,
      "note": 59,
      "start": 1.8737,
      "duration": 0.0697,
      "velocity": 103,
      "chip": "ym2612"
    },
    {
      "channel": 0,
      "note": 59,
      "start": 1.9262,
      "duration": 0.0695,
      "velocity": 103,
      "chip": "ym2612"
    },
    {
      "channel": 1,
      "note": 52,
      "start": 1.9279,
      "duration": 0.1747,
      "velocity": 103,
      "chip": "ym2612"
    },
    {
      "channel": 3,
      "note": 61,
      "start": 1.9348,
      "duration": 0.0615,
      "velocity": 127,
      "chip": "ym2612"
    },
    {
      "channel": 4,
      "note": 57,
      "start": 1.9799,
      "duration": 0.07,
      "velocity": 103,
      "chip": "ym2612"
    },
    {
      "channel": 0,
      "note": 57,
      "start": 2.0327,
      "duration": 0.0697,
      "velocity": 103,
      "chip": "ym2612"
    },
    {
      "channel": 4,
      "note": 59,
      "start": 2.0869,
      "duration": 0.0695,
      "velocity": 103,
      "chip": "ym2612"
    },
    {
      "channel": 0,
      "note": 55,
      "start": 2.1393,
      "duration": 0.0695,
      "velocity": 103,
      "chip": "ym2612"
    },
    {
      "channel": 1,
      "note": 52,
      "start": 2.1409,
      "duration": 0.0681,
      "velocity": 103,
      "chip": "ym2612"
    },
    {
      "channel": 3,
      "note": 61,
      "start": 2.1432,
      "duration": 0.0663,
      "velocity": 127,
      "chip": "ym2612"
    },
    {
      "channel": 4,
      "note": 57,
      "start": 2.1929,
      "duration": 0.0701,
      "velocity": 103,
      "chip": "ym2612"
    },
    {
      "channel": 0,
      "note": 57,
      "start": 2.2458,
      "duration": 0.0695,
      "velocity": 103,
      "chip": "ym2612"
    },
    {
      "channel": 1,
      "note": 60,
      "start": 2.2475,
      "duration": 0.2812,
      "velocity": 103,
      "chip": "ym2612"
    },
    {
      "channel": 3,
      "note": 61,
      "start": 2.253,
      "duration": 0.0629,
      "velocity": 127,
      "chip": "ym2612"
    },
    {
      "channel": 4,
      "note": 55,
      "start": 2.2997,
      "duration": 0.0698,
      "velocity": 103,
      "chip": "ym2612"
    },
    {
      "channel": 0,
      "note": 55,
      "start": 2.3524,
      "duration": 0.0695,
      "velocity": 103,
      "chip": "ym2612"
    },
    {
      "channel": 4,
      "note": 57,
      "start": 2.4064,
      "duration": 0.0696,
      "velocity": 103,
      "chip": "ym2612"
    },
    {
      "channel": 0,
      "note": 54,
      "start": 2.4589,
      "duration": 0.0695,
      "velocity": 103,
      "chip": "ym2612"
    },
    {
      "channel": 4,
      "note": 55,
      "start": 2.513,
      "duration": 0.0696,
      "velocity": 103,
      "chip": "ym2612"
    },
    {
      "channel": 0,
      "note": 60,
      "start": 2.5658,
      "duration": 0.1757,
      "velocity": 103,
      "chip": "ym2612"
    },
    {
      "channel": 1,
      "note": 52,
      "start": 2.5679,
      "duration": 0.1738,
      "velocity": 103,
      "chip": "ym2612"
    },
    {
      "channel": 2,
      "note": 57,
      "start": 2.5699,
      "duration": 0.172,
      "velocity": 103,
      "chip": "ym2612"
    },
    {
      "channel": 3,
      "note": 61,
      "start": 2.5766,
      "duration": 0.0588,
      "velocity": 127,
      "chip": "ym2612"
    },
    {
      "channel": 4,
      "note": 54,
      "start": 2.6191,
      "duration": 0.0707,
      "velocity": 103,
      "chip": "ym2612"
    },
    {
      "channel": 4,
      "note": 60,
      "start": 2.7266,
      "duration": 0.1756,
      "velocity": 103,
      "chip": "ym2612"
    },
    {
      "channel": 5,
      "note": 57,
      "start": 2.7286,
      "duration": 0.1739,
      "velocity": 103,
      "chip": "ym2612"
    },
    {
      "channel": 0,
      "note": 60,
      "start": 2.7785,
      "duration": 0.176,
      "velocity": 103,
      "chip": "ym2612"
    },
    {
      "channel": 1,
      "note": 52,
      "start": 2.7802,
      "duration": 0.068,
      "velocity": 103,
      "chip": "ym2612"
    },
    {
      "channel": 2,
      "note": 57,
      "start": 2.7819,
      "duration": 0.1731,
      "velocity": 103,
      "chip": "ym2612"
    },
    {
      "channel": 3,
      "note": 61,
      "start": 2.7841,
      "duration": 0.0646,
      "velocity": 127,
      "chip": "ym2612"
    },
    {
      "channel": 1,
      "note": 59,
      "start": 2.8859,
      "duration": 0.0689,
      "velocity": 103,
      "chip": "ym2612"
    },
    {
      "channel": 3,
      "note": 61,
      "start": 2.8914,
      "duration": 0.0639,
      "velocity": 127,
      "chip": "ym2612"
    },
    {
      "channel": 4,
      "note": 60,
      "start": 2.9387,
      "duration": 0.1766,
      "velocity": 103,
      "chip": "ym2612"
    },
    {
      "channel": 5,
      "note": 57,
      "start": 2.9404,
      "duration": 0.1751,
      "velocity": 103,
      "chip": "ym2612"
    },
    {
      "channel": 1,
      "note": 52,
      "start": 2.9916,
      "duration": 0.0696,
      "velocity": 103,
      "chip": "ym2612"
    },
    {
      "channel": 0,
      "note": 59,
      "start": 3.0982,
      "duration": 0.7086,
      "velocity": 103,
      "chip": "ym2612"
    },
    {
      "channel": 1,
      "note": 52,
      "start": 3.0999,
      "duration": 0.0679,
      "velocity": 103,
      "chip": "ym2612"
    },
    {
      "channel": 2,
      "note": 55,
      "start": 3.1017,
      "duration": 0.7056,
      "velocity": 103,
      "chip": "ym2612"
    },
    {
      "channel": 1,
      "note": 52,
      "start": 3.2047,
      "duration": 0.1761,
      "velocity": 103,
      "chip": "ym2612"
    },
    {
      "channel": 3,
      "note": 61,
      "start": 3.2115,
      "duration": 0.063,
      "velocity": 127,
      "chip": "ym2612"
    },
    {
      "channel": 4,
      "note": 59,
      "start": 3.2584,
      "duration": 0.7092,
      "velocity": 103,
      "chip": "ym2612"
    },
    {
      "channel": 5,
      "note": 55,
      "start": 3.2601,
      "duration": 0.7078,
      "velocity": 103,
      "chip": "ym2612"
    },
    {
      "channel": 1,
      "note": 52,
      "start": 3.4178,
      "duration": 0.0695,
      "velocity": 103,
      "chip": "ym2612"
    },
    {
      "channel": 3,
      "note": 61,
      "start": 3.4201,
      "duration": 0.0677,
      "velocity": 127,
      "chip": "ym2612"
    },
    {
      "channel": 1,
      "note": 60,
      "start": 3.5246,
      "duration": 0.0694,
      "velocity": 103,
      "chip": "ym2612"
    },
    {
      "channel": 3,
      "note": 61,
      "start": 3.53,
      "duration": 0.0643,
      "velocity": 127,
      "chip": "ym2612"
    },
    {
      "channel": 1,
      "note": 52,
      "start": 3.6309,
      "duration": 0.0695,
      "velocity": 103,
      "chip": "ym2612"
    },
    {
      "channel": 1,
      "note": 52,
      "start": 3.7374,
      "duration": 0.0697,
      "velocity": 103,
      "chip": "ym2612"
    },
    {
      "channel": 0,
      "note": 55,
      "start": 3.8441,
      "duration": 0.07,
      "velocity": 103,
      "chip": "ym2612"
    },
    {
      "channel": 1,
      "note": 52,
      "start": 3.8458,
      "duration": 0.1744,
      "velocity": 103,
      "chip": "ym2612"
    },
    {
      "channel": 2,
      "note": 55,
      "start": 3.8474,
      "duration": 0.0129,
      "velocity": 103,
      "chip": "ym2612"
    },
    {
      "channel": 3,
      "note": 61,
      "start": 3.8542,
      "duration": 0.0604,
      "velocity": 127,
      "chip": "ym2612"
    },
    {
      "channel": 0,
      "note": 57,
      "start": 3.9504,
      "duration": 0.0695,
      "velocity": 103,
      "chip": "ym2612"
    },
    {
      "channel": 4,
      "note": 55,
      "start": 4.0048,
      "duration": 0.0693,
      "velocity": 103,
      "chip": "ym2612"
    },
    {
      "channel": 5,
      "note": 55,
      "start": 4.0064,
      "duration": 0.0147,
      "velocity": 103,
      "chip": "ym2612"
    },
    {
      "channel": 0,
      "note": 59,
      "start": 4.057,
      "duration": 0.0695,
      "velocity": 103,
      "chip": "ym2612"
    },
    {
      "channel": 1,
      "note": 52,
      "start": 4.0586,
      "duration": 0.0681,
      "velocity": 103,
      "chip": "ym2612"
    },
    {
      "channel": 3,
      "note": 61,
      "start": 4.0608,
      "duration": 0.0663,
      "velocity": 127,
      "chip": "ym2612"
    },
    {
      "channel": 4,
      "note": 57,
      "start": 4.1115,
      "duration": 0.0691,
      "velocity": 103,
      "chip": "ym2612"
    },
    {
      "channel": 0,
      "note": 60,
      "start": 4.1635,
      "duration": 0.0695,
      "velocity": 103,
      "chip": "ym2612"
    },
    {
      "channel": 1,
      "note": 59,
      "start": 4.1651,
      "duration": 0.0681,
      "velocity": 103,
      "chip": "ym2612"
    },
    {
      "channel": 3,
      "note": 61,
      "start": 4.1707,
      "duration": 0.063,
      "velocity": 127,
      "chip": "ym2612"
    },
    {
      "channel": 4,
      "note": 59,
      "start": 4.2171,
      "duration": 0.07,
      "velocity": 103,
      "chip": "ym2612"
    },
    {
      "channel": 0,
      "note": 59,
      "start": 4.2701,
      "duration": 0.0695,
      "velocity": 103,
      "chip": "ym2612"
    },
    {
      "channel": 1,
      "note": 52,
      "start": 4.2717,
      "duration": 0.0681,
      "velocity": 103,
      "chip": "ym2612"
    },
    {
      "channel": 4,
      "note": 60,
      "start": 4.3241,
      "duration": 0.0696,
      "velocity": 103,
      "chip": "ym2612"
    },
    {
      "channel": 0,
      "note": 57,
      "start": 4.3766,
      "duration": 0.0695,
      "velocity": 103,
      "chip": "ym2612"
    },
    {
      "channel": 1,
      "note": 52,
      "start": 4.3782,
      "duration": 0.0681,
      "velocity": 103,
      "chip": "ym2612"
    },
    {
      "channel": 4,
      "note": 59,
      "start": 4.4307,
      "duration": 0.0696,
      "velocity": 103,
      "chip": "ym2612"
    },
    {
      "channel": 0,
      "note": 59,
      "start": 4.4831,
      "duration": 0.07,
      "velocity": 103,
      "chip": "ym2612"
    },
    {
      "channel": 1,
      "note": 52,
      "start": 4.4849,
      "duration": 0.1745,
      "velocity": 103,
      "chip": "ym2612"
    },
    {
      "channel": 3,
      "note": 61,
      "start": 4.4917,
      "duration": 0.062,
      "velocity": 127,
      "chip": "ym2612"
    },
    {
      "channel": 4,
      "note": 57,
      "start": 4.5368,
      "duration": 0.07,
      "velocity": 103,
      "chip": "ym2612"
    },
    {
      "channel": 0,
      "note": 57,
      "start": 4.5897,
      "duration": 0.0695,
      "velocity": 103,
      "chip": "ym2612"
    },
    {
      "channel": 4,
      "note": 59,
      "start": 4.6437,
      "duration": 0.0697,
      "velocity": 103,
      "chip": "ym2612"
    },
    {
      "channel": 0,
      "note": 55,
      "start": 4.6961,
      "duration": 0.0696,
      "velocity": 103,
      "chip": "ym2612"
    },
    {
      "channel": 1,
      "note": 52,
      "start": 4.6979,
      "duration": 0.068,
      "velocity": 103,
      "chip": "ym2612"
    },
    {
      "channel": 3,
      "note": 61,
      "start": 4.7002,
      "duration": 0.0661,
      "velocity": 127,
      "chip": "ym2612"
    },
    {
      "channel": 4,
      "note": 57,
      "start": 4.7503,
      "duration": 0.0696,
      "velocity": 103,
      "chip": "ym2612"
    },
    {
      "channel": 0,
      "note": 57,
      "start": 4.8028,
      "duration": 0.0695,
      "velocity": 103,
      "chip": "ym2612"
    },
    {
      "channel": 1,
      "note": 60,
      "start": 4.8044,
      "duration": 0.2811,
      "velocity": 103,
      "chip": "ym2612"
    },
    {
      "channel": 3,
      "note": 61,
      "start": 4.8099,
      "duration": 0.0629,
      "velocity": 127,
      "chip": "ym2612"
    },
    {
      "channel": 4,
      "note": 55,
      "start": 4.8564,
      "duration": 0.07,
      "velocity": 103,
      "chip": "ym2612"
    },
    {
      "channel": 0,
      "note": 55,
      "start": 4.9093,
      "duration": 0.0695,
      "velocity": 103,
      "chip": "ym2612"
    },
    {
      "channel": 4,
      "note": 57,
      "start": 4.9634,
      "duration": 0.0695,
      "velocity": 103,
      "chip": "ym2612"
    },
    {
      "channel": 0,
      "note": 54,
      "start": 5.0158,
      "duration": 0.0695,
      "velocity": 103,
      "chip": "ym2612"
    },
    {
      "channel": 4,
      "note": 55,
      "start": 5.0699,
      "duration": 0.0704,
      "velocity": 103,
      "chip": "ym2612"
    },
    {
      "channel": 0,
      "note": 55,
      "start": 5.1227,
      "duration": 0.1758,
      "velocity": 103,
      "chip": "ym2612"
    },
    {
      "channel": 1,
      "note": 47,
      "start": 5.1246,
      "duration": 0.174,
      "velocity": 103,
      "chip": "ym2612"
    },
    {
      "channel": 2,
      "note": 52,
      "start": 5.1266,
      "duration": 0.1722,
      "velocity": 103,
      "chip": "ym2612"
    },
    {
      "channel": 3,
      "note": 61,
      "start": 5.1333,
      "duration": 0.059,
      "velocity": 127,
      "chip": "ym2612"
    },
    {
      "channel": 4,
      "note": 54,
      "start": 5.176,
      "duration": 0.07,
      "velocity": 103,
      "chip": "ym2612"
    },
    {
      "channel": 4,
      "note": 55,
      "start": 5.2836,
      "duration": 0.1755,
      "velocity": 103,
      "chip": "ym2612"
    },
    {
      "channel": 5,
      "note": 52,
      "start": 5.2856,
      "duration": 0.1737,
      "velocity": 103,
      "chip": "ym2612"
    },
    {
      "channel": 0,
      "note": 55,
      "start": 5.3365,
      "duration": 0.175,
      "velocity": 103,
      "chip": "ym2612"
    },
    {
      "channel": 1,
      "note": 47,
      "start": 5.3382,
      "duration": 0.0669,
      "velocity": 103,
      "chip": "ym2612"
    },
    {
      "channel": 2,
      "note": 52,
      "start": 5.3398,
      "duration": 0.1721,
      "velocity": 103,
      "chip": "ym2612"
    },
    {
      "channel": 3,
      "note": 61,
      "start": 5.342,
      "duration": 0.0635,
      "velocity": 127,
      "chip": "ym2612"
    },
    {
      "channel": 1,
      "note": 54,
      "start": 5.442,
      "duration": 0.0697,
      "velocity": 103,
      "chip": "ym2612"
    },
    {
      "channel": 3,
      "note": 61,
      "start": 5.4474,
      "duration": 0.0648,
      "velocity": 127,
      "chip": "ym2612"
    },
    {
      "channel": 4,
      "note": 55,
      "start": 5.4956,
      "duration": 0.1765,
      "velocity": 103,
      "chip": "ym2612"
    },
    {
      "channel": 5,
      "note": 52,
      "start": 5.4973,
      "duration": 0.1751,
      "velocity": 103,
      "chip": "ym2612"
    },
    {
      "channel": 1,
      "note": 47,
      "start": 5.5485,
      "duration": 0.0697,
      "velocity": 103,
      "chip": "ym2612"
    },
    {
      "channel": 0,
      "note": 54,
      "start": 5.6551,
      "duration": 0.7096,
      "velocity": 103,
      "chip": "ym2612"
    },
    {
      "channel": 1,
      "note": 47,
      "start": 5.6567,
      "duration": 0.0679,
      "velocity": 103,
      "chip": "ym2612"
    },
    {
      "channel": 2,
      "note": 51,
      "start": 5.6584,
      "duration": 0.7068,
      "velocity": 103,
      "chip": "ym2612"
    },
    {
      "channel": 1,
      "note": 47,
      "start": 5.7616,
      "duration": 0.1761,
      "velocity": 103,
      "chip": "ym2612"
    },
    {
      "channel": 3,
      "note": 61,
      "start": 5.7685,
      "duration": 0.0631,
      "velocity": 127,
      "chip": "ym2612"
    },
    {
      "channel": 4,
      "note": 54,
      "start": 5.8152,
      "duration": 0.7092,
      "velocity": 103,
      "chip": "ym2612"
    },
    {
      "channel": 5,
      "note": 51,
      "start": 5.817,
      "duration": 0.7077,
      "velocity": 103,
      "chip": "ym2612"
    },
    {
      "channel": 1,
      "note": 47,
      "start": 5.9751,
      "duration": 0.0692,
      "velocity": 103,
      "chip": "ym2612"
    },
    {
      "channel": 3,
      "note": 61,
      "start": 5.9774,
      "duration": 0.0673,
      "velocity": 127,
      "chip": "ym2612"
    },
    {
      "channel": 1,
      "note": 55,
      "start": 6.0812,
      "duration": 0.0697,
      "velocity": 103,
      "chip": "ym2612"
    },
    {
      "channel": 3,
      "note": 61,
      "start": 6.0868,
      "duration": 0.0645,
      "velocity": 127,
      "chip": "ym2612"
    },
    {
      "channel": 1,
      "note": 47,
      "start": 6.1878,
      "duration": 0.0695,
      "velocity": 103,
      "chip": "ym2612"
    },
    {
      "channel": 1,
      "note": 47,
      "start": 6.2942,
      "duration": 0.0707,
      "velocity": 103,
      "chip": "ym2612"
    },
    {
      "channel": 0,
      "note": 52,
      "start": 6.4011,
      "duration": 0.0692,
      "velocity": 103,
      "chip": "ym2612"
    },
    {
      "channel": 1,
      "note": 47,
      "start": 6.4028,
      "duration": 0.1743,
      "velocity": 103,
      "chip": "ym2612"
    },
    {
      "channel": 2,
      "note": 51,
      "start": 6.4044,
      "duration": 0.0128,
      "velocity": 103,
      "chip": "ym2612"
    },
    {
      "channel": 3,
      "note": 61,
      "start": 6.4111,
      "duration": 0.0597,
      "velocity": 127,
      "chip": "ym2612"
    },
    {
      "channel": 0,
      "note": 54,
      "start": 6.5073,
      "duration": 0.0695,
      "velocity": 103,
      "chip": "ym2612"
    },
    {
      "channel": 4,
      "note": 52,
      "start": 6.5617,
      "duration": 0.0694,
      "velocity": 103,
      "chip": "ym2612"
    },
    {
      "channel": 5,
      "note": 51,
      "start": 6.5634,
      "duration": 0.0147,
      "velocity": 103,
      "chip": "ym2612"
    },
    {
      "channel": 0,
      "note": 55,
      "start": 6.6139,
      "duration": 0.0695,
      "velocity": 103,
      "chip": "ym2612"
    },
    {
      "channel": 1,
      "note": 47,
      "start": 6.6156,
      "duration": 0.068,
      "velocity": 103,
      "chip": "ym2612"
    },
    {
      "channel": 3,
      "note": 61,
      "start": 6.6179,
      "duration": 0.0661,
      "velocity": 127,
      "chip": "ym2612"
    },
    {
      "channel": 4,
      "note": 54,
      "start": 6.6676,
      "duration": 0.07,
      "velocity": 103,
      "chip": "ym2612"
    },
    {
      "channel": 0,
      "note": 57,
      "start": 6.7205,
      "duration": 0.0695,
      "velocity": 103,
      "chip": "ym2612"
    },
    {
      "channel": 1,
      "note": 54,
      "start": 6.722,
      "duration": 0.0681,
      "velocity": 103,
      "chip": "ym2612"
    },
    {
      "channel": 3,
      "note": 61,
      "start": 6.7275,
      "duration": 0.063,
      "velocity": 127,
      "chip": "ym2612"
    },
    {
      "channel": 4,
      "note": 55,
      "start": 6.7741,
      "duration": 0.07,
      "velocity": 103,
      "chip": "ym2612"
    },
    {
      "channel": 0,
      "note": 55,
      "start": 6.8269,
      "duration": 0.0695,
      "velocity": 103,
      "chip": "ym2612"
    },
    {
      "channel": 1,
      "note": 47,
      "start": 6.8286,
      "duration": 0.068,
      "velocity": 103,
      "chip": "ym2612"
    },
    {
      "channel": 4,
      "note": 57,
      "start": 6.8811,
      "duration": 0.0695,
      "velocity": 103,
      "chip": "ym2612"
    },
    {
      "channel": 0,
      "note": 54,
      "start": 6.9335,
      "duration": 0.0699,
      "velocity": 103,
      "chip": "ym2612"
    },
    {
      "channel": 1,
      "note": 47,
      "start": 6.9352,
      "duration": 0.0684,
      "velocity": 103,
      "chip": "ym2612"
    },
    {
      "channel": 4,
      "note": 55,
      "start": 6.9876,
      "duration": 0.0696,
      "velocity": 103,
      "chip": "ym2612"
    },
    {
      "channel": 0,
      "note": 55,
      "start": 7.04,
      "duration": 0.0695,
      "velocity": 103,
      "chip": "ym2612"
    },
    {
      "channel": 1,
      "note": 47,
      "start": 7.0417,
      "duration": 0.1746,
      "velocity": 103,
      "chip": "ym2612"
    },
    {
      "channel": 3,
      "note": 61,
      "start": 7.0485,
      "duration": 0.0616,
      "velocity": 127,
      "chip": "ym2612"
    },
    {
      "channel": 4,
      "note": 54,
      "start": 7.0937,
      "duration": 0.07,
      "velocity": 103,
      "chip": "ym2612"
    },
    {
      "channel": 0,
      "note": 54,
      "start": 7.1465,
      "duration": 0.0696,
      "velocity": 103,
      "chip": "ym2612"
    },
    {
      "channel": 4,
      "note": 55,
      "start": 7.2014,
      "duration": 0.0689,
      "velocity": 103,
      "chip": "ym2612"
    },
    {
      "channel": 0,
      "note": 52,
      "start": 7.2531,
      "duration": 0.0695,
      "velocity": 103,
      "chip": "ym2612"
    },
    {
      "channel": 1,
      "note": 47,
      "start": 7.2548,
      "duration": 0.068,
      "velocity": 103,
      "chip": "ym2612"
    },
    {
      "channel": 3,
      "note": 61,
      "start": 7.257,
      "duration": 0.0662,
      "velocity": 127,
      "chip": "ym2612"
    },
    {
      "channel": 4,
      "note": 54,
      "start": 7.3068,
      "duration": 0.07,
      "velocity": 103,
      "chip": "ym2612"
    },
    {
      "channel": 0,
      "note": 54,
      "start": 7.3596,
      "duration": 0.0695,
      "velocity": 103,
      "chip": "ym2612"
    },
    {
      "channel": 1,
      "note": 55,
      "start": 7.3613,
      "duration": 0.2811,
      "velocity": 103,
      "chip": "ym2612"
    },
    {
      "channel": 3,
      "note": 61,
      "start": 7.3668,
      "duration": 0.0628,
      "velocity": 127,
      "chip": "ym2612"
    },
    {
      "channel": 4,
      "note": 52,
      "start": 7.4133,
      "duration": 0.07,
      "velocity": 103,
      "chip": "ym2612"
    },
    {
      "channel": 0,
      "note": 52,
      "start": 7.4662,
      "duration": 0.0695,
      "velocity": 103,
      "chip": "ym2612"
    },
    {
      "channel": 4,
      "note": 54,
      "start": 7.5202,
      "duration": 0.0706,
      "velocity": 103,
      "chip": "ym2612"
    },
    {
      "channel": 0,
      "note": 51,
      "start": 7.5727,
      "duration": 0.0696,
      "velocity": 103,
      "chip": "ym2612"
    },
    {
      "channel": 4,
      "note": 52,
      "start": 7.6268,
      "duration": 0.0697,
      "velocity": 103,
      "chip": "ym2612"
    },
    {
      "channel": 0,
      "note": 55,
      "start": 7.6795,
      "duration": 0.1758,
      "velocity": 103,
      "chip": "ym2612"
    },
    {
      "channel": 1,
      "note": 47,
      "start": 7.6816,
      "duration": 0.1739,
      "velocity": 103,
      "chip": "ym2612"
    },
    {
      "channel": 2,
      "note": 52,
      "start": 7.6836,
      "duration": 0.1722,
      "velocity": 103,
      "chip": "ym2612"
    },
    {
      "channel": 3,
      "note": 61,
      "start": 7.6904,
      "duration": 0.0588,
      "velocity": 127,
      "chip": "ym2612"
    },
    {
      "channel": 4,
      "note": 51,
      "start": 7.733,
      "duration": 0.07,
      "velocity": 103,
      "chip": "ym2612"
    },
    {
      "channel": 4,
      "note": 55,
      "start": 7.8406,
      "duration": 0.1754,
      "velocity": 103,
      "chip": "ym2612"
    },
    {
      "channel": 5,
      "note": 52,
      "start": 7.8426,
      "duration": 0.1737,
      "velocity": 103,
      "chip": "ym2612"
    },
    {
      "channel": 0,
      "note": 55,
      "start": 7.8923,
      "duration": 0.176,
      "velocity": 103,
      "chip": "ym2612"
    },
    {
      "channel": 1,
      "note": 47,
      "start": 7.894,
      "duration": 0.068,
      "velocity": 103,
      "chip": "ym2612"
    },
    {
      "channel": 2,
      "note": 52,
      "start": 7.8957,
      "duration": 0.1731,
      "velocity": 103,
      "chip": "ym2612"
    },
    {
      "channel": 3,
      "note": 61,
      "start": 7.8978,
      "duration": 0.0646,
      "velocity": 127,
      "chip": "ym2612"
    },
    {
      "channel": 1,
      "note": 54,
      "start": 7.9989,
      "duration": 0.0697,
      "velocity": 103,
      "chip": "ym2612"
    },
    {
      "channel": 3,
      "note": 61,
      "start": 8.0045,
      "duration": 0.0646,
      "velocity": 127,
      "chip": "ym2612"
    },
    {
      "channel": 4,
      "note": 55,
      "start": 8.0526,
      "duration": 0.1771,
      "velocity": 103,
      "chip": "ym2612"
    },
    {
      "channel": 5,
      "note": 52,
      "start": 8.0543,
      "duration": 0.1755,
      "velocity": 103,
      "chip": "ym2612"
    },
    {
      "channel": 1,
      "note": 47,
      "start": 8.1054,
      "duration": 0.0696,
      "velocity": 103,
      "chip": "ym2612"
    },
    {
      "channel": 0,
      "note": 54,
      "start": 8.212,
      "duration": 0.7087,
      "velocity": 103,
      "chip": "ym2612"
    },
    {
      "channel": 1,
      "note": 47,
      "start": 8.2136,
      "duration": 0.068,
      "velocity": 103,
      "chip": "ym2612"
    },
    {
      "channel": 2,
      "note": 51,
      "start": 8.2153,
      "duration": 0.7058,
      "velocity": 103,
      "chip": "ym2612"
    },
    {
      "channel": 1,
      "note": 47,
      "start": 8.3186,
      "duration": 0.1761,
      "velocity": 103,
      "chip": "ym2612"
    },
    {
      "channel": 3,
      "note": 61,
      "start": 8.3254,
      "duration": 0.0631,
      "velocity": 127,
      "chip": "ym2612"
    },
    {
      "channel": 4,
      "note": 54,
      "start": 8.3722,
      "duration": 0.7093,
      "velocity": 103,
      "chip": "ym2612"
    },
    {
      "channel": 5,
      "note": 51,
      "start": 8.3739,
      "duration": 0.7078,
      "velocity": 103,
      "chip": "ym2612"
    },
    {
      "channel": 1,
      "note": 47,
      "start": 8.5316,
      "duration": 0.0696,
      "velocity": 103,
      "chip": "ym2612"
    },
    {
      "channel": 3,
      "note": 61,
      "start": 8.5339,
      "duration": 0.0678,
      "velocity": 127,
      "chip": "ym2612"
    },
    {
      "channel": 1,
      "note": 55,
      "start": 8.6381,
      "duration": 0.0697,
      "velocity": 103,
      "chip": "ym2612"
    },
    {
      "channel": 3,
      "note": 61,
      "start": 8.6436,
      "duration": 0.0646,
      "velocity": 127,
      "chip": "ym2612"
    },
    {
      "channel": 1,
      "note": 47,
      "start": 8.7447,
      "duration": 0.0695,
      "velocity": 103,
      "chip": "ym2612"
    },
    {
      "channel": 1,
      "note": 47,
      "start": 8.8512,
      "duration": 0.0697,
      "velocity": 103,
      "chip": "ym2612"
    },
    {
      "channel": 0,
      "note": 52,
      "start": 8.9579,
      "duration": 0.0693,
      "velocity": 103,
      "chip": "ym2612"
    },
    {
      "channel": 1,
      "note": 47,
      "start": 8.9596,
      "duration": 0.1744,
      "velocity": 103,
      "chip": "ym2612"
    },
    {
      "channel": 2,
      "note": 51,
      "start": 8.9613,
      "duration": 0.0129,
      "velocity": 103,
      "chip": "ym2612"
    },
    {
      "channel": 3,
      "note": 61,
      "start": 8.968,
      "duration": 0.0597,
      "velocity": 127,
      "chip": "ym2612"
    },
    {
      "channel": 0,
      "note": 54,
      "start": 9.0645,
      "duration": 0.0693,
      "velocity": 103,
      "chip": "ym2612"
    },
    {
      "channel": 4,
      "note": 52,
      "start": 9.1187,
      "duration": 0.0693,
      "velocity": 103,
      "chip": "ym2612"
    },
    {
      "channel": 5,
      "note": 51,
      "start": 9.1203,
      "duration": 0.0147,
      "velocity": 103,
      "chip": "ym2612"
    },
    {
      "channel": 0,
      "note": 55,
      "start": 9.1708,
      "duration": 0.0695,
      "velocity": 103,
      "chip": "ym2612"
    },
    {
      "channel": 1,
      "note": 47,
      "start": 9.1725,
      "duration": 0.068,
      "velocity": 103,
      "chip": "ym2612"
    },
    {
      "channel": 3,
      "note": 61,
      "start": 9.1747,
      "duration": 0.0662,
      "velocity": 127,
      "chip": "ym2612"
    },
    {
      "channel": 4,
      "note": 54,
      "start": 9.2244,
      "duration": 0.07,
      "velocity": 103,
      "chip": "ym2612"
    },
    {
      "channel": 0,
      "note": 57,
      "start": 9.2773,
      "duration": 0.0695,
      "velocity": 103,
      "chip": "ym2612"
    },
    {
      "channel": 1,
      "note": 54,
      "start": 9.279,
      "duration": 0.068,
      "velocity": 103,
      "chip": "ym2612"
    },
    {
      "channel": 3,
      "note": 61,
      "start": 9.2845,
      "duration": 0.063,
      "velocity": 127,
      "chip": "ym2612"
    },
    {
      "channel": 4,
      "note": 55,
      "start": 9.331,
      "duration": 0.07,
      "velocity": 103,
      "chip": "ym2612"
    },
    {
      "channel": 0,
      "note": 55,
      "start": 9.3839,
      "duration": 0.0702,
      "velocity": 103,
      "chip": "ym2612"
    },
    {
      "channel": 1,
      "note": 47,
      "start": 9.3856,
      "duration": 0.0686,
      "velocity": 103,
      "chip": "ym2612"
    },
    {
      "channel": 4,
      "note": 57,
      "start": 9.4379,
      "duration": 0.0696,
      "velocity": 103,
      "chip": "ym2612"
    },
    {
      "channel": 0,
      "note": 54,
      "start": 9.4904,
      "duration": 0.0696,
      "velocity": 103,
      "chip": "ym2612"
    },
    {
      "channel": 1,
      "note": 47,
      "start": 9.492,
      "duration": 0.0681,
      "velocity": 103,
      "chip": "ym2612"
    },
    {
      "channel": 4,
      "note": 55,
      "start": 9.5445,
      "duration": 0.0697,
      "velocity": 103,
      "chip": "ym2612"
    },
    {
      "channel": 0,
      "note": 59,
      "start": 9.597,
      "duration": 0.0695,
      "velocity": 103,
      "chip": "ym2612"
    },
    {
      "channel": 1,
      "note": 47,
      "start": 9.5986,
      "duration": 0.1746,
      "velocity": 103,
      "chip": "ym2612"
    },
    {
      "channel": 3,
      "note": 61,
      "start": 9.6056,
      "duration": 0.0615,
      "velocity": 127,
      "chip": "ym2612"
    },
    {
      "channel": 4,
      "note": 54,
      "start": 9.6515,
      "duration": 0.0691,
      "velocity": 103,
      "chip": "ym2612"
    },
    {
      "channel": 0,
      "note": 57,
      "start": 9.7035,
      "duration": 0.0695,
      "velocity": 103,
      "chip": "ym2612"
    },
    {
      "channel": 4,
      "note": 59,
      "start": 9.7576,
      "duration": 0.0696,
      "velocity": 103,
      "chip": "ym2612"
    },
    {
      "channel": 0,
      "note": 55,
      "start": 9.81,
      "duration": 0.0695,
      "velocity": 103,
      "chip": "ym2612"
    },
    {
      "channel": 1,
      "note": 47,
      "start": 9.8117,
      "duration": 0.068,
      "velocity": 103,
      "chip": "ym2612"
    },
    {
      "channel": 3,
      "note": 61,
      "start": 9.8139,
      "duration": 0.0662,
      "velocity": 127,
      "chip": "ym2612"
    },
    {
      "channel": 4,
      "note": 57,
      "start": 9.8636,
      "duration": 0.0701,
      "velocity": 103,
      "chip": "ym2612"
    },
    {
      "channel": 0,
      "note": 57,
      "start": 9.9166,
      "duration": 0.0695,
      "velocity": 103,
      "chip": "ym2612"
    },
    {
      "channel": 1,
      "note": 55,
      "start": 9.9183,
      "duration": 0.2811,
      "velocity": 103,
      "chip": "ym2612"
    },
    {
      "channel": 3,
      "note": 61,
      "start": 9.9237,
      "duration": 0.0629,
      "velocity": 127,
      "chip": "ym2612"
    },
    {
      "channel": 4,
      "note": 55,
      "start": 9.9702,
      "duration": 0.07,
      "velocity": 103,
      "chip": "ym2612"
    },
    {
      "channel": 0,
      "note": 55,
      "start": 10.0231,
      "duration": 0.0697,
      "velocity": 103,
      "chip": "ym2612"
    },
    {
      "channel": 4,
      "note": 57,
      "start": 10.0772,
      "duration": 0.0696,
      "velocity": 103,
      "chip": "ym2612"
    },
    {
      "channel": 0,
      "note": 54,
      "start": 10.1296,
      "duration": 0.0695,
      "velocity": 103,
      "chip": "ym2612"
    },
    {
      "channel": 4,
      "note": 55,
      "start": 10.1838,
      "duration": 0.0873,
      "velocity": 103,
      "chip": "ym2612"
    },
    {
      "channel": 0,
      "note": 40,
      "start": 10.2367,
      "duration": 0.0868,
      "velocity": 103,
      "chip": "ym2612"
    },
    {
      "channel": 1,
      "note": 52,
      "start": 10.2395,
      "duration": 0.1907,
      "velocity": 103,
      "chip": "ym2612"
    },
    {
      "channel": 2,
      "note": 40,
      "start": 10.2417,
      "duration": 0.082,
      "velocity": 103,
      "chip": "ym2612"
    },
    {
      "channel": 3,
      "note": 61,
      "start": 10.2484,
      "duration": 0.0757,
      "velocity": 127,
      "chip": "ym2612"
    },
    {
      "channel": 4,
      "note": 54,
      "start": 10.3076,
      "duration": 0.07,
      "velocity": 103,
      "chip": "ym2612"
    },
    {
      "channel": 0,
      "note": 40,
      "start": 10.3605,
      "duration": 0.0695,
      "velocity": 103,
      "chip": "ym2612"
    },
    {
      "channel": 2,
      "note": 40,
      "start": 10.3622,
      "duration": 0.0681,
      "velocity": 103,
      "chip": "ym2612"
    },
    {
      "channel": 4,
      "note": 40,
      "start": 10.4152,
      "duration": 0.0696,
      "velocity": 103,
      "chip": "ym2612"
    },
    {
      "channel": 5,
      "note": 40,
      "start": 10.4175,
      "duration": 0.0676,
      "velocity": 103,
      "chip": "ym2612"
    },
    {
      "channel": 0,
      "note": 40,
      "start": 10.4669,
      "duration": 0.0695,
      "velocity": 103,
      "chip": "ym2612"
    },
    {
      "channel": 1,
      "note": 52,
      "start": 10.4687,
      "duration": 0.068,
      "velocity": 103,
      "chip": "ym2612"
    },
    {
      "channel": 2,
      "note": 40,
      "start": 10.4704,
      "duration": 0.0665,
      "velocity": 103,
      "chip": "ym2612"
    },
    {
      "channel": 3,
      "note": 61,
      "start": 10.4725,
      "duration": 0.0648,
      "velocity": 127,
      "chip": "ym2612"
    },
    {
      "channel": 4,
      "note": 40,
      "start": 10.5206,
      "duration": 0.07,
      "velocity": 103,
      "chip": "ym2612"
    },
    {
      "channel": 5,
      "note": 40,
      "start": 10.5223,
      "duration": 0.0686,
      "velocity": 103,
      "chip": "ym2612"
    },
    {
      "channel": 0,
      "note": 55,
      "start": 10.5736,
      "duration": 0.2825,
      "velocity": 103,
      "chip": "ym2612"
    },
    {
      "channel": 1,
      "note": 59,
      "start": 10.5753,
      "duration": 0.0679,
      "velocity": 103,
      "chip": "ym2612"
    },
    {
      "channel": 2,
      "note": 52,
      "start": 10.5771,
      "duration": 0.2795,
      "velocity": 103,
      "chip": "ym2612"
    },
    {
      "channel": 3,
      "note": 61,
      "start": 10.5825,
      "duration": 0.0611,
      "velocity": 127,
      "chip": "ym2612"
    },
    {
      "channel": 4,
      "note": 40,
      "start": 10.6272,
      "duration": 0.07,
      "velocity": 103,
      "chip": "ym2612"
    },
    {
      "channel": 5,
      "note": 40,
      "start": 10.6288,
      "duration": 0.0686,
      "velocity": 103,
      "chip": "ym2612"
    },
    {
      "channel": 1,
      "note": 52,
      "start": 10.6808,
      "duration": 0.0689,
      "velocity": 103,
      "chip": "ym2612"
    },
    {
      "channel": 4,
      "note": 55,
      "start": 10.7344,
      "duration": 0.2824,
      "velocity": 103,
      "chip": "ym2612"
    },
    {
      "channel": 5,
      "note": 52,
      "start": 10.7362,
      "duration": 0.2808,
      "velocity": 103,
      "chip": "ym2612"
    },
    {
      "channel": 1,
      "note": 52,
      "start": 10.7866,
      "duration": 0.0697,
      "velocity": 103,
      "chip": "ym2612"
    },
    {
      "channel": 0,
      "note": 40,
      "start": 10.8934,
      "duration": 0.0693,
      "velocity": 103,
      "chip": "ym2612"
    },
    {
      "channel": 1,
      "note": 52,
      "start": 10.8951,
      "duration": 0.1744,
      "velocity": 103,
      "chip": "ym2612"
    },
    {
      "channel": 2,
      "note": 40,
      "start": 10.897,
      "duration": 0.066,
      "velocity": 103,
      "chip": "ym2612"
    },
    {
      "channel": 3,
      "note": 61,
      "start": 10.9037,
      "duration": 0.0595,
      "velocity": 127,
      "chip": "ym2612"
    },
    {
      "channel": 0,
      "note": 40,
      "start": 10.9997,
      "duration": 0.0695,
      "velocity": 103,
      "chip": "ym2612"
    },
    {
      "channel": 2,
      "note": 40,
      "start": 11.0015,
      "duration": 0.0681,
      "velocity": 103,
      "chip": "ym2612"
    },
    {
      "channel": 4,
      "note": 40,
      "start": 11.054,
      "duration": 0.0694,
      "velocity": 103,
      "chip": "ym2612"
    },
    {
      "channel": 5,
      "note": 40,
      "start": 11.0559,
      "duration": 0.0677,
      "velocity": 103,
      "chip": "ym2612"
    },
    {
      "channel": 0,
      "note": 40,
      "start": 11.1062,
      "duration": 0.0695,
      "velocity": 103,
      "chip": "ym2612"
    },
    {
      "channel": 1,
      "note": 52,
      "start": 11.1078,
      "duration": 0.0681,
      "velocity": 103,
      "chip": "ym2612"
    },
    {
      "channel": 2,
      "note": 40,
      "start": 11.1095,
      "duration": 0.0667,
      "velocity": 103,
      "chip": "ym2612"
    },
    {
      "channel": 3,
      "note": 61,
      "start": 11.1117,
      "duration": 0.0648,
      "velocity": 127,
      "chip": "ym2612"
    },
    {
      "channel": 4,
      "note": 40,
      "start": 11.1599,
      "duration": 0.07,
      "velocity": 103,
      "chip": "ym2612"
    },
    {
      "channel": 5,
      "note": 40,
      "start": 11.1615,
      "duration": 0.0686,
      "velocity": 103,
      "chip": "ym2612"
    },
    {
      "channel": 0,
      "note": 55,
      "start": 11.2129,
      "duration": 0.2824,
      "velocity": 103,
      "chip": "ym2612"
    },
    {
      "channel": 1,
      "note": 60,
      "start": 11.2145,
      "duration": 0.0678,
      "velocity": 103,
      "chip": "ym2612"
    },
    {
      "channel": 2,
      "note": 52,
      "start": 11.2164,
      "duration": 0.2794,
      "velocity": 103,
      "chip": "ym2612"
    },
    {
      "channel": 3,
      "note": 61,
      "start": 11.2218,
      "duration": 0.061,
      "velocity": 127,
      "chip": "ym2612"
    },
    {
      "channel": 4,
      "note": 40,
      "start": 11.2665,
      "duration": 0.0699,
      "velocity": 103,
      "chip": "ym2612"
    },
    {
      "channel": 5,
      "note": 40,
      "start": 11.2682,
      "duration": 0.0685,
      "velocity": 103,
      "chip": "ym2612"
    },
    {
      "channel": 1,
      "note": 52,
      "start": 11.3195,
      "duration": 0.0693,
      "velocity": 103,
      "chip": "ym2612"
    },
    {
      "channel": 4,
      "note": 55,
      "start": 11.3735,
      "duration": 0.2826,
      "velocity": 103,
      "chip": "ym2612"
    },
    {
      "channel": 5,
      "note": 52,
      "start": 11.3753,
      "duration": 0.281,
      "velocity": 103,
      "chip": "ym2612"
    },
    {
      "channel": 1,
      "note": 52,
      "start": 11.4259,
      "duration": 0.0697,
      "velocity": 103,
      "chip": "ym2612"
    },
    {
      "channel": 0,
      "note": 40,
      "start": 11.5326,
      "duration": 0.0693,
      "velocity": 103,
      "chip": "ym2612"
    },
    {
      "channel": 1,
      "note": 52,
      "start": 11.5344,
      "duration": 0.1749,
      "velocity": 103,
      "chip": "ym2612"
    },
    {
      "channel": 2,
      "note": 40,
      "start": 11.5363,
      "duration": 0.0658,
      "velocity": 103,
      "chip": "ym2612"
    },
    {
      "channel": 3,
      "note": 61,
      "start": 11.543,
      "duration": 0.0595,
      "velocity": 127,
      "chip": "ym2612"
    },
    {
      "channel": 0,
      "note": 40,
      "start": 11.6389,
      "duration": 0.0702,
      "velocity": 103,
      "chip": "ym2612"
    },
    {
      "channel": 2,
      "note": 40,
      "start": 11.6407,
      "duration": 0.0688,
      "velocity": 103,
      "chip": "ym2612"
    },
    {
      "channel": 4,
      "note": 40,
      "start": 11.6933,
      "duration": 0.0693,
      "velocity": 103,
      "chip": "ym2612"
    },
    {
      "channel": 5,
      "note": 40,
      "start": 11.6952,
      "duration": 0.0676,
      "velocity": 103,
      "chip": "ym2612"
    },
    {
      "channel": 0,
      "note": 40,
      "start": 11.7454,
      "duration": 0.0695,
      "velocity": 103,
      "chip": "ym2612"
    },
    {
      "channel": 1,
      "note": 52,
      "start": 11.7471,
      "duration": 0.0681,
      "velocity": 103,
      "chip": "ym2612"
    },
    {
      "channel": 2,
      "note": 40,
      "start": 11.7488,
      "duration": 0.0666,
      "velocity": 103,
      "chip": "ym2612"
    },
    {
      "channel": 3,
      "note": 61,
      "start": 11.751,
      "duration": 0.0646,
      "velocity": 127,
      "chip": "ym2612"
    },
    {
      "channel": 4,
      "note": 40,
      "start": 11.7991,
      "duration": 0.07,
      "velocity": 103,
      "chip": "ym2612"
    },
    {
      "channel": 5,
      "note": 40,
      "start": 11.8009,
      "duration": 0.0685,
      "velocity": 103,
      "chip": "ym2612"
    },
    {
      "channel": 0,
      "note": 55,
      "start": 11.8522,
      "duration": 0.2824,
      "velocity": 103,
      "chip": "ym2612"
    },
    {
      "channel": 1,
      "note": 59,
      "start": 11.8538,
      "duration": 0.0678,
      "velocity": 103,
      "chip": "ym2612"
    },
    {
      "channel": 2,
      "note": 52,
      "start": 11.8556,
      "duration": 0.2794,
      "velocity": 103,
      "chip": "ym2612"
    },
    {
      "channel": 3,
      "note": 61,
      "start": 11.861,
      "duration": 0.0611,
      "velocity": 127,
      "chip": "ym2612"
    },
    {
      "channel": 4,
      "note": 40,
      "start": 11.9065,
      "duration": 0.0692,
      "velocity": 103,
      "chip": "ym2612"
    },
    {
      "channel": 5,
      "note": 40,
      "start": 11.9082,
      "duration": 0.0677,
      "velocity": 103,
      "chip": "ym2612"
    },
    {
      "channel": 1,
      "note": 52,
      "start": 11.9585,
      "duration": 0.0696,
      "velocity": 103,
      "chip": "ym2612"
    },
    {
      "channel": 4,
      "note": 55,
      "start": 12.0127,
      "duration": 0.2825,
      "velocity": 103,
      "chip": "ym2612"
    },
    {
      "channel": 5,
      "note": 52,
      "start": 12.0145,
      "duration": 0.281,
      "velocity": 103,
      "chip": "ym2612"
    },
    {
      "channel": 1,
      "note": 52,
      "start": 12.0651,
      "duration": 0.0697,
      "velocity": 103,
      "chip": "ym2612"
    },
    {
      "channel": 0,
      "note": 40,
      "start": 12.1718,
      "duration": 0.0693,
      "velocity": 103,
      "chip": "ym2612"
    },
    {
      "channel": 1,
      "note": 52,
      "start": 12.1735,
      "duration": 0.1747,
      "velocity": 103,
      "chip": "ym2612"
    },
    {
      "channel": 2,
      "note": 40,
      "start": 12.1754,
      "duration": 0.066,
      "velocity": 103,
      "chip": "ym2612"
    },
    {
      "channel": 3,
      "note": 61,
      "start": 12.1822,
      "duration": 0.0596,
      "velocity": 127,
      "chip": "ym2612"
    },
    {
      "channel": 0,
      "note": 40,
      "start": 12.2781,
      "duration": 0.0698,
      "velocity": 103,
      "chip": "ym2612"
    },
    {
      "channel": 2,
      "note": 40,
      "start": 12.2799,
      "duration": 0.0685,
      "velocity": 103,
      "chip": "ym2612"
    },
    {
      "channel": 4,
      "note": 40,
      "start": 12.3325,
      "duration": 0.0694,
      "velocity": 103,
      "chip": "ym2612"
    },
    {
      "channel": 5,
      "note": 40,
      "start": 12.3346,
      "duration": 0.0676,
      "velocity": 103,
      "chip": "ym2612"
    },
    {
      "channel": 0,
      "note": 40,
      "start": 12.3847,
      "duration": 0.0695,
      "velocity": 103,
      "chip": "ym2612"
    },
    {
      "channel": 1,
      "note": 52,
      "start": 12.3864,
      "duration": 0.068,
      "velocity": 103,
      "chip": "ym2612"
    },
    {
      "channel": 2,
      "note": 40,
      "start": 12.3881,
      "duration": 0.0665,
      "velocity": 103,
      "chip": "ym2612"
    },
    {
      "channel": 3,
      "note": 61,
      "start": 12.3902,
      "duration": 0.0648,
      "velocity": 127,
      "chip": "ym2612"
    },
    {
      "channel": 4,
      "note": 40,
      "start": 12.4383,
      "duration": 0.07,
      "velocity": 103,
      "chip": "ym2612"
    },
    {
      "channel": 5,
      "note": 40,
      "start": 12.44,
      "duration": 0.0686,
      "velocity": 103,
      "chip": "ym2612"
    },
    {
      "channel": 0,
      "note": 55,
      "start": 12.4913,
      "duration": 0.2825,
      "velocity": 103,
      "chip": "ym2612"
    },
    {
      "channel": 1,
      "note": 60,
      "start": 12.493,
      "duration": 0.281,
      "velocity": 103,
      "chip": "ym2612"
    },
    {
      "channel": 2,
      "note": 52,
      "start": 12.4948,
      "duration": 0.2794,
      "velocity": 103,
      "chip": "ym2612"
    },
    {
      "channel": 3,
      "note": 61,
      "start": 12.5002,
      "duration": 0.061,
      "velocity": 127,
      "chip": "ym2612"
    },
    {
      "channel": 4,
      "note": 40,
      "start": 12.5453,
      "duration": 0.0697,
      "velocity": 103,
      "chip": "ym2612"
    },
    {
      "channel": 5,
      "note": 40,
      "start": 12.5469,
      "duration": 0.0683,
      "velocity": 103,
      "chip": "ym2612"
    },
    {
      "channel": 4,
      "note": 55,
      "start": 12.652,
      "duration": 0.2835,
      "velocity": 103,
      "chip": "ym2612"
    },
    {
      "channel": 5,
      "note": 52,
      "start": 12.6538,
      "duration": 0.2818,
      "velocity": 103,
      "chip": "ym2612"
    },
    {
      "channel": 0,
      "note": 40,
      "start": 12.8111,
      "duration": 0.0693,
      "velocity": 103,
      "chip": "ym2612"
    },
    {
      "channel": 1,
      "note": 52,
      "start": 12.8131,
      "duration": 0.1741,
      "velocity": 103,
      "chip": "ym2612"
    },
    {
      "channel": 2,
      "note": 40,
      "start": 12.815,
      "duration": 0.0657,
      "velocity": 103,
      "chip": "ym2612"
    },
    {
      "channel": 3,
      "note": 61,
      "start": 12.8218,
      "duration": 0.0591,
      "velocity": 127,
      "chip": "ym2612"
    },
    {
      "channel": 0,
      "note": 40,
      "start": 12.9173,
      "duration": 0.0695,
      "velocity": 103,
      "chip": "ym2612"
    },
    {
      "channel": 2,
      "note": 40,
      "start": 12.9192,
      "duration": 0.0681,
      "velocity": 103,
      "chip": "ym2612"
    },
    {
      "channel": 4,
      "note": 40,
      "start": 12.9717,
      "duration": 0.0693,
      "velocity": 103,
      "chip": "ym2612"
    },
    {
      "channel": 5,
      "note": 40,
      "start": 12.9737,
      "duration": 0.0676,
      "velocity": 103,
      "chip": "ym2612"
    },
    {
      "channel": 0,
      "note": 40,
      "start": 13.0239,
      "duration": 0.0695,
      "velocity": 103,
      "chip": "ym2612"
    },
    {
      "channel": 1,
      "note": 52,
      "start": 13.0256,
      "duration": 0.0681,
      "velocity": 103,
      "chip": "ym2612"
    },
    {
      "channel": 2,
      "note": 40,
      "start": 13.0273,
      "duration": 0.0666,
      "velocity": 103,
      "chip": "ym2612"
    },
    {
      "channel": 3,
      "note": 61,
      "start": 13.0293,
      "duration": 0.0648,
      "velocity": 127,
      "chip": "ym2612"
    },
    {
      "channel": 4,
      "note": 40,
      "start": 13.0776,
      "duration": 0.07,
      "velocity": 103,
      "chip": "ym2612"
    },
    {
      "channel": 5,
      "note": 40,
      "start": 13.0792,
      "duration": 0.0686,
      "velocity": 103,
      "chip": "ym2612"
    },
    {
      "channel": 0,
      "note": 55,
      "start": 13.1316,
      "duration": 0.0683,
      "velocity": 103,
      "chip": "ym2612"
    },
    {
      "channel": 1,
      "note": 59,
      "start": 13.1334,
      "duration": 0.0668,
      "velocity": 103,
      "chip": "ym2612"
    },
    {
      "channel": 2,
      "note": 52,
      "start": 13.1352,
      "duration": 0.0651,
      "velocity": 103,
      "chip": "ym2612"
    },
    {
      "channel": 3,
      "note": 61,
      "start": 13.1405,
      "duration": 0.0601,
      "velocity": 127,
      "chip": "ym2612"
    },
    {
      "channel": 4,
      "note": 40,
      "start": 13.1841,
      "duration": 0.07,
      "velocity": 103,
      "chip": "ym2612"
    },
    {
      "channel": 5,
      "note": 40,
      "start": 13.1858,
      "duration": 0.0685,
      "velocity": 103,
      "chip": "ym2612"
    },
    {
      "channel": 1,
      "note": 52,
      "start": 13.237,
      "duration": 0.0696,
      "velocity": 103,
      "chip": "ym2612"
    },
    {
      "channel": 4,
      "note": 55,
      "start": 13.2912,
      "duration": 0.0695,
      "velocity": 103,
      "chip": "ym2612"
    },
    {
      "channel": 5,
      "note": 52,
      "start": 13.293,
      "duration": 0.0678,
      "velocity": 103,
      "chip": "ym2612"
    },
    {
      "channel": 0,
      "note": 54,
      "start": 13.3435,
      "duration": 0.0696,
      "velocity": 103,
      "chip": "ym2612"
    },
    {
      "channel": 1,
      "note": 52,
      "start": 13.3451,
      "duration": 0.0681,
      "velocity": 103,
      "chip": "ym2612"
    },
    {
      "channel": 2,
      "note": 51,
      "start": 13.3468,
      "duration": 0.0667,
      "velocity": 103,
      "chip": "ym2612"
    },
    {
      "channel": 1,
      "note": 52,
      "start": 13.4501,
      "duration": 0.1762,
      "velocity": 103,
      "chip": "ym2612"
    },
    {
      "channel": 3,
      "note": 61,
      "start": 13.457,
      "duration": 0.063,
      "velocity": 127,
      "chip": "ym2612"
    },
    {
      "channel": 4,
      "note": 54,
      "start": 13.5037,
      "duration": 0.0702,
      "velocity": 103,
      "chip": "ym2612"
    },
    {
      "channel": 5,
      "note": 51,
      "start": 13.5054,
      "duration": 0.0688,
      "velocity": 103,
      "chip": "ym2612"
    },
    {
      "channel": 0,
      "note": 54,
      "start": 13.5566,
      "duration": 0.0695,
      "velocity": 103,
      "chip": "ym2612"
    },
    {
      "channel": 2,
      "note": 51,
      "start": 13.5584,
      "duration": 0.0682,
      "velocity": 103,
      "chip": "ym2612"
    },
    {
      "channel": 1,
      "note": 52,
      "start": 13.6632,
      "duration": 0.0695,
      "velocity": 103,
      "chip": "ym2612"
    },
    {
      "channel": 3,
      "note": 61,
      "start": 13.6654,
      "duration": 0.0678,
      "velocity": 127,
      "chip": "ym2612"
    },
    {
      "channel": 4,
      "note": 54,
      "start": 13.7168,
      "duration": 0.0701,
      "velocity": 103,
      "chip": "ym2612"
    },
    {
      "channel": 5,
      "note": 51,
      "start": 13.7185,
      "duration": 0.0686,
      "velocity": 103,
      "chip": "ym2612"
    },
    {
      "channel": 0,
      "note": 55,
      "start": 13.7702,
      "duration": 0.069,
      "velocity": 103,
      "chip": "ym2612"
    },
    {
      "channel": 1,
      "note": 60,
      "start": 13.7718,
      "duration": 0.0676,
      "velocity": 103,
      "chip": "ym2612"
    },
    {
      "channel": 2,
      "note": 52,
      "start": 13.7735,
      "duration": 0.0661,
      "velocity": 103,
      "chip": "ym2612"
    },
    {
      "channel": 3,
      "note": 61,
      "start": 13.7788,
      "duration": 0.0611,
      "velocity": 127,
      "chip": "ym2612"
    },
    {
      "channel": 1,
      "note": 52,
      "start": 13.8762,
      "duration": 0.0696,
      "velocity": 103,
      "chip": "ym2612"
    },
    {
      "channel": 4,
      "note": 55,
      "start": 13.9303,
      "duration": 0.0696,
      "velocity": 103,
      "chip": "ym2612"
    },
    {
      "channel": 5,
      "note": 52,
      "start": 13.932,
      "duration": 0.0681,
      "velocity": 103,
      "chip": "ym2612"
    },
    {
      "channel": 0,
      "note": 54,
      "start": 13.9827,
      "duration": 0.0695,
      "velocity": 103,
      "chip": "ym2612"
    },
    {
      "channel": 1,
      "note": 52,
      "start": 13.9845,
      "duration": 0.0679,
      "velocity": 103,
      "chip": "ym2612"
    },
    {
      "channel": 2,
      "note": 51,
      "start": 13.9862,
      "duration": 0.0665,
      "velocity": 103,
      "chip": "ym2612"
    },
    {
      "channel": 1,
      "note": 52,
      "start": 14.0893,
      "duration": 0.1762,
      "velocity": 103,
      "chip": "ym2612"
    },
    {
      "channel": 3,
      "note": 61,
      "start": 14.0961,
      "duration": 0.0639,
      "velocity": 127,
      "chip": "ym2612"
    },
    {
      "channel": 4,
      "note": 54,
      "start": 14.1429,
      "duration": 0.07,
      "velocity": 103,
      "chip": "ym2612"
    },
    {
      "channel": 5,
      "note": 51,
      "start": 14.1446,
      "duration": 0.0685,
      "velocity": 103,
      "chip": "ym2612"
    },
    {
      "channel": 0,
      "note": 55,
      "start": 14.1958,
      "duration": 0.0695,
      "velocity": 103,
      "chip": "ym2612"
    },
    {
      "channel": 2,
      "note": 52,
      "start": 14.1976,
      "duration": 0.0682,
      "velocity": 103,
      "chip": "ym2612"
    },
    {
      "channel": 1,
      "note": 52,
      "start": 14.3024,
      "duration": 0.0695,
      "velocity": 103,
      "chip": "ym2612"
    },
    {
      "channel": 3,
      "note": 61,
      "start": 14.3047,
      "duration": 0.0678,
      "velocity": 127,
      "chip": "ym2612"
    },
    {
      "channel": 4,
      "note": 55,
      "start": 14.356,
      "duration": 0.07,
      "velocity": 103,
      "chip": "ym2612"
    },
    {
      "channel": 5,
      "note": 52,
      "start": 14.3577,
      "duration": 0.0686,
      "velocity": 103,
      "chip": "ym2612"
    },
    {
      "channel": 0,
      "note": 54,
      "start": 14.4089,
      "duration": 0.0695,
      "velocity": 103,
      "chip": "ym2612"
    },
    {
      "channel": 1,
      "note": 59,
      "start": 14.4105,
      "duration": 0.0681,
      "velocity": 103,
      "chip": "ym2612"
    },
    {
      "channel": 2,
      "note": 51,
      "start": 14.4122,
      "duration": 0.0667,
      "velocity": 103,
      "chip": "ym2612"
    },
    {
      "channel": 3,
      "note": 61,
      "start": 14.4176,
      "duration": 0.0616,
      "velocity": 127,
      "chip": "ym2612"
    },
    {
      "channel": 1,
      "note": 52,
      "start": 14.5154,
      "duration": 0.0697,
      "velocity": 103,
      "chip": "ym2612"
    },
    {
      "channel": 4,
      "note": 54,
      "start": 14.5695,
      "duration": 0.0695,
      "velocity": 103,
      "chip": "ym2612"
    },
    {
      "channel": 5,
      "note": 51,
      "start": 14.5712,
      "duration": 0.0681,
      "velocity": 103,
      "chip": "ym2612"
    },
    {
      "channel": 0,
      "note": 55,
      "start": 14.622,
      "duration": 0.0695,
      "velocity": 103,
      "chip": "ym2612"
    },
    {
      "channel": 1,
      "note": 52,
      "start": 14.6236,
      "duration": 0.0681,
      "velocity": 103,
      "chip": "ym2612"
    },
    {
      "channel": 2,
      "note": 52,
      "start": 14.6253,
      "duration": 0.0666,
      "velocity": 103,
      "chip": "ym2612"
    },
    {
      "channel": 1,
      "note": 52,
      "start": 14.7285,
      "duration": 0.1763,
      "velocity": 103,
      "chip": "ym2612"
    },
    {
      "channel": 3,
      "note": 61,
      "start": 14.7354,
      "duration": 0.0639,
      "velocity": 127,
      "chip": "ym2612"
    },
    {
      "channel": 4,
      "note": 55,
      "start": 14.7822,
      "duration": 0.07,
      "velocity": 103,
      "chip": "ym2612"
    },
    {
      "channel": 5,
      "note": 52,
      "start": 14.7839,
      "duration": 0.0685,
      "velocity": 103,
      "chip": "ym2612"
    },
    {
      "channel": 0,
      "note": 54,
      "start": 14.8351,
      "duration": 0.0695,
      "velocity": 103,
      "chip": "ym2612"
    },
    {
      "channel": 2,
      "note": 51,
      "start": 14.8368,
      "duration": 0.0681,
      "velocity": 103,
      "chip": "ym2612"
    },
    {
      "channel": 1,
      "note": 52,
      "start": 14.9416,
      "duration": 0.0696,
      "velocity": 103,
      "chip": "ym2612"
    },
    {
      "channel": 3,
      "note": 61,
      "start": 14.9439,
      "duration": 0.0678,
      "velocity": 127,
      "chip": "ym2612"
    },
    {
      "channel": 4,
      "note": 54,
      "start": 14.9958,
      "duration": 0.0695,
      "velocity": 103,
      "chip": "ym2612"
    },
    {
      "channel": 5,
      "note": 51,
      "start": 14.9975,
      "duration": 0.0681,
      "velocity": 103,
      "chip": "ym2612"
    },
    {
      "channel": 0,
      "note": 55,
      "start": 15.0483,
      "duration": 0.0695,
      "velocity": 103,
      "chip": "ym2612"
    },
    {
      "channel": 1,
      "note": 60,
      "start": 15.05,
      "duration": 0.281,
      "velocity": 103,
      "chip": "ym2612"
    },
    {
      "channel": 2,
      "note": 52,
      "start": 15.0518,
      "duration": 0.0662,
      "velocity": 103,
      "chip": "ym2612"
    },
    {
      "channel": 3,
      "note": 61,
      "start": 15.0571,
      "duration": 0.0611,
      "velocity": 127,
      "chip": "ym2612"
    },
    {
      "channel": 0,
      "note": 54,
      "start": 15.1546,
      "duration": 0.0696,
      "velocity": 103,
      "chip": "ym2612"
    },
    {
      "channel": 2,
      "note": 51,
      "start": 15.1564,
      "duration": 0.0681,
      "velocity": 103,
      "chip": "ym2612"
    },
    {
      "channel": 4,
      "note": 55,
      "start": 15.2089,
      "duration": 0.0695,
      "velocity": 103,
      "chip": "ym2612"
    },
    {
      "channel": 5,
      "note": 52,
      "start": 15.2107,
      "duration": 0.0679,
      "velocity": 103,
      "chip": "ym2612"
    },
    {
      "channel": 0,
      "note": 55,
      "start": 15.2612,
      "duration": 0.0696,
      "velocity": 103,
      "chip": "ym2612"
    },
    {
      "channel": 2,
      "note": 52,
      "start": 15.2629,
      "duration": 0.0682,
      "velocity": 103,
      "chip": "ym2612"
    },
    {
      "channel": 4,
      "note": 54,
      "start": 15.3153,
      "duration": 0.0705,
      "velocity": 103,
      "chip": "ym2612"
    },
    {
      "channel": 5,
      "note": 51,
      "start": 15.3171,
      "duration": 0.069,
      "velocity": 103,
      "chip": "ym2612"
    },
    {
      "channel": 0,
      "note": 59,
      "start": 15.3683,
      "duration": 5.0763,
      "velocity": 103,
      "chip": "ym2612"
    },
    {
      "channel": 1,
      "note": 47,
      "start": 15.3702,
      "duration": 0.1736,
      "velocity": 103,
      "chip": "ym2612"
    },
    {
      "channel": 2,
      "note": 55,
      "start": 15.3724,
      "duration": 1.5393,
      "velocity": 103,
      "chip": "ym2612"
    },
    {
      "channel": 3,
      "note": 61,
      "start": 15.379,
      "duration": 0.0587,
      "velocity": 127,
      "chip": "ym2612"
    },
    {
      "channel": 4,
      "note": 55,
      "start": 15.4214,
      "duration": 0.07,
      "velocity": 103,
      "chip": "ym2612"
    },
    {
      "channel": 5,
      "note": 52,
      "start": 15.4231,
      "duration": 0.0686,
      "velocity": 103,
      "chip": "ym2612"
    },
    {
      "channel": 4,
      "note": 59,
      "start": 15.5288,
      "duration": 5.0943,
      "velocity": 103,
      "chip": "ym2612"
    },
    {
      "channel": 5,
      "note": 55,
      "start": 15.5309,
      "duration": 1.5464,
      "velocity": 103,
      "chip": "ym2612"
    },
    {
      "channel": 1,
      "note": 47,
      "start": 15.5809,
      "duration": 0.0695,
      "velocity": 103,
      "chip": "ym2612"
    },
    {
      "channel": 3,
      "note": 61,
      "start": 15.5831,
      "duration": 0.0677,
      "velocity": 127,
      "chip": "ym2612"
    },
    {
      "channel": 1,
      "note": 54,
      "start": 15.6874,
      "duration": 0.0696,
      "velocity": 103,
      "chip": "ym2612"
    },
    {
      "channel": 3,
      "note": 61,
      "start": 15.6928,
      "duration": 0.0645,
      "velocity": 127,
      "chip": "ym2612"
    },
    {
      "channel": 1,
      "note": 47,
      "start": 15.7939,
      "duration": 0.0696,
      "velocity": 103,
      "chip": "ym2612"
    },
    {
      "channel": 1,
      "note": 47,
      "start": 15.9004,
      "duration": 0.0696,
      "velocity": 103,
      "chip": "ym2612"
    },
    {
      "channel": 1,
      "note": 47,
      "start": 16.007,
      "duration": 0.1761,
      "velocity": 103,
      "chip": "ym2612"
    },
    {
      "channel": 3,
      "note": 61,
      "start": 16.0138,
      "duration": 0.0631,
      "velocity": 127,
      "chip": "ym2612"
    },
    {
      "channel": 1,
      "note": 47,
      "start": 16.2223,
      "duration": 0.0678,
      "velocity": 103,
      "chip": "ym2612"
    },
    {
      "channel": 3,
      "note": 61,
      "start": 16.2245,
      "duration": 0.066,
      "velocity": 127,
      "chip": "ym2612"
    },
    {
      "channel": 1,
      "note": 55,
      "start": 16.3271,
      "duration": 0.0696,
      "velocity": 103,
      "chip": "ym2612"
    },
    {
      "channel": 3,
      "note": 61,
      "start": 16.3325,
      "duration": 0.0645,
      "velocity": 127,
      "chip": "ym2612"
    },
    {
      "channel": 1,
      "note": 47,
      "start": 16.4335,
      "duration": 0.0696,
      "velocity": 103,
      "chip": "ym2612"
    },
    {
      "channel": 1,
      "note": 47,
      "start": 16.5401,
      "duration": 0.0696,
      "velocity": 103,
      "chip": "ym2612"
    },
    {
      "channel": 1,
      "note": 47,
      "start": 16.6466,
      "duration": 0.1761,
      "velocity": 103,
      "chip": "ym2612"
    },
    {
      "channel": 3,
      "note": 61,
      "start": 16.6535,
      "duration": 0.063,
      "velocity": 127,
      "chip": "ym2612"
    },
    {
      "channel": 1,
      "note": 47,
      "start": 16.8598,
      "duration": 0.0696,
      "velocity": 103,
      "chip": "ym2612"
    },
    {
      "channel": 3,
      "note": 61,
      "start": 16.8634,
      "duration": 0.0678,
      "velocity": 127,
      "chip": "ym2612"
    },
    {
      "channel": 2,
      "note": 59,
      "start": 16.9309,
      "duration": 0.0518,
      "velocity": 103,
      "chip": "ym2612"
    },
    {
      "channel": 1,
      "note": 54,
      "start": 16.9664,
      "duration": 0.0695,
      "velocity": 103,
      "chip": "ym2612"
    },
    {
      "channel": 3,
      "note": 61,
      "start": 16.9718,
      "duration": 0.0644,
      "velocity": 127,
      "chip": "ym2612"
    },
    {
      "channel": 2,
      "note": 57,
      "start": 17.0019,
      "duration": 0.052,
      "velocity": 103,
      "chip": "ym2612"
    },
    {
      "channel": 1,
      "note": 47,
      "start": 17.0743,
      "duration": 0.0681,
      "velocity": 103,
      "chip": "ym2612"
    },
    {
      "channel": 2,
      "note": 55,
      "start": 17.0759,
      "duration": 0.0488,
      "velocity": 103,
      "chip": "ym2612"
    },
    {
      "channel": 5,
      "note": 59,
      "start": 17.0919,
      "duration": 0.0535,
      "velocity": 103,
      "chip": "ym2612"
    },
    {
      "channel": 2,
      "note": 57,
      "start": 17.144,
      "duration": 0.0517,
      "velocity": 103,
      "chip": "ym2612"
    },
    {
      "channel": 5,
      "note": 57,
      "start": 17.1629,
      "duration": 0.0534,
      "velocity": 103,
      "chip": "ym2612"
    },
    {
      "channel": 1,
      "note": 47,
      "start": 17.1793,
      "duration": 0.0701,
      "velocity": 103,
      "chip": "ym2612"
    },
    {
      "channel": 2,
      "note": 55,
      "start": 17.215,
      "duration": 0.0519,
      "velocity": 103,
      "chip": "ym2612"
    },
    {
      "channel": 5,
      "note": 55,
      "start": 17.2356,
      "duration": 0.0595,
      "velocity": 103,
      "chip": "ym2612"
    },
    {
      "channel": 1,
      "note": 47,
      "start": 17.286,
      "duration": 0.176,
      "velocity": 103,
      "chip": "ym2612"
    },
    {
      "channel": 2,
      "note": 54,
      "start": 17.2876,
      "duration": 0.0502,
      "velocity": 103,
      "chip": "ym2612"
    },
    {
      "channel": 3,
      "note": 61,
      "start": 17.2943,
      "duration": 0.063,
      "velocity": 127,
      "chip": "ym2612"
    },
    {
      "channel": 5,
      "note": 57,
      "start": 17.305,
      "duration": 0.0531,
      "velocity": 103,
      "chip": "ym2612"
    },
    {
      "channel": 2,
      "note": 55,
      "start": 17.357,
      "duration": 0.0519,
      "velocity": 103,
      "chip": "ym2612"
    },
    {
      "channel": 5,
      "note": 55,
      "start": 17.376,
      "duration": 0.0534,
      "velocity": 103,
      "chip": "ym2612"
    },
    {
      "channel": 2,
      "note": 54,
      "start": 17.428,
      "duration": 0.0519,
      "velocity": 103,
      "chip": "ym2612"
    },
    {
      "channel": 5,
      "note": 54,
      "start": 17.4476,
      "duration": 0.0561,
      "velocity": 103,
      "chip": "ym2612"
    },
    {
      "channel": 1,
      "note": 47,
      "start": 17.4989,
      "duration": 0.0692,
      "velocity": 103,
      "chip": "ym2612"
    },
    {
      "channel": 2,
      "note": 52,
      "start": 17.5007,
      "duration": 0.0498,
      "velocity": 103,
      "chip": "ym2612"
    },
    {
      "channel": 3,
      "note": 61,
      "start": 17.5028,
      "duration": 0.0672,
      "velocity": 127,
      "chip": "ym2612"
    },
    {
      "channel": 5,
      "note": 55,
      "start": 17.5182,
      "duration": 0.0526,
      "velocity": 103,
      "chip": "ym2612"
    },
    {
      "channel": 2,
      "note": 54,
      "start": 17.5698,
      "duration": 0.0517,
      "velocity": 103,
      "chip": "ym2612"
    },
    {
      "channel": 5,
      "note": 54,
      "start": 17.5886,
      "duration": 0.0537,
      "velocity": 103,
      "chip": "ym2612"
    },
    {
      "channel": 1,
      "note": 55,
      "start": 17.6051,
      "duration": 0.2827,
      "velocity": 103,
      "chip": "ym2612"
    },
    {
      "channel": 3,
      "note": 61,
      "start": 17.6105,
      "duration": 0.0644,
      "velocity": 127,
      "chip": "ym2612"
    },
    {
      "channel": 2,
      "note": 52,
      "start": 17.6414,
      "duration": 0.0511,
      "velocity": 103,
      "chip": "ym2612"
    },
    {
      "channel": 5,
      "note": 52,
      "start": 17.6593,
      "duration": 0.0534,
      "velocity": 103,
      "chip": "ym2612"
    },
    {
      "channel": 2,
      "note": 51,
      "start": 17.7117,
      "duration": 0.0519,
      "velocity": 103,
      "chip": "ym2612"
    },
    {
      "channel": 5,
      "note": 54,
      "start": 17.7302,
      "duration": 0.0535,
      "velocity": 103,
      "chip": "ym2612"
    },
    {
      "channel": 2,
      "note": 52,
      "start": 17.7827,
      "duration": 0.0519,
      "velocity": 103,
      "chip": "ym2612"
    },
    {
      "channel": 5,
      "note": 52,
      "start": 17.8014,
      "duration": 0.0533,
      "velocity": 103,
      "chip": "ym2612"
    },
    {
      "channel": 2,
      "note": 51,
      "start": 17.8538,
      "duration": 0.0518,
      "velocity": 103,
      "chip": "ym2612"
    },
    {
      "channel": 5,
      "note": 51,
      "start": 17.8723,
      "duration": 0.0615,
      "velocity": 103,
      "chip": "ym2612"
    },
    {
      "channel": 1,
      "note": 47,
      "start": 17.925,
      "duration": 0.1758,
      "velocity": 103,
      "chip": "ym2612"
    },
    {
      "channel": 2,
      "note": 48,
      "start": 17.9267,
      "duration": 0.0499,
      "velocity": 103,
      "chip": "ym2612"
    },
    {
      "channel": 3,
      "note": 61,
      "start": 17.9334,
      "duration": 0.0628,
      "velocity": 127,
      "chip": "ym2612"
    },
    {
      "channel": 5,
      "note": 52,
      "start": 17.9434,
      "duration": 0.0531,
      "velocity": 103,
      "chip": "ym2612"
    },
    {
      "channel": 2,
      "note": 51,
      "start": 17.9958,
      "duration": 0.0518,
      "velocity": 103,
      "chip": "ym2612"
    },
    {
      "channel": 5,
      "note": 51,
      "start": 18.0143,
      "duration": 0.0534,
      "velocity": 103,
      "chip": "ym2612"
    },
    {
      "channel": 2,
      "note": 48,
      "start": 18.0668,
      "duration": 0.0518,
      "velocity": 103,
      "chip": "ym2612"
    },
    {
      "channel": 5,
      "note": 48,
      "start": 18.0855,
      "duration": 0.0564,
      "velocity": 103,
      "chip": "ym2612"
    },
    {
      "channel": 1,
      "note": 47,
      "start": 18.1378,
      "duration": 0.0696,
      "velocity": 103,
      "chip": "ym2612"
    },
    {
      "channel": 2,
      "note": 47,
      "start": 18.1394,
      "duration": 0.0503,
      "velocity": 103,
      "chip": "ym2612"
    },
    {
      "channel": 3,
      "note": 61,
      "start": 18.1415,
      "duration": 0.0678,
      "velocity": 127,
      "chip": "ym2612"
    },
    {
      "channel": 5,
      "note": 51,
      "start": 18.1564,
      "duration": 0.0532,
      "velocity": 103,
      "chip": "ym2612"
    },
    {
      "channel": 2,
      "note": 45,
      "start": 18.209,
      "duration": 0.0517,
      "velocity": 103,
      "chip": "ym2612"
    },
    {
      "channel": 5,
      "note": 48,
      "start": 18.2274,
      "duration": 0.0532,
      "velocity": 103,
      "chip": "ym2612"
    },
    {
      "channel": 1,
      "note": 54,
      "start": 18.2443,
      "duration": 0.0696,
      "velocity": 103,
      "chip": "ym2612"
    },
    {
      "channel": 3,
      "note": 61,
      "start": 18.2498,
      "duration": 0.0645,
      "velocity": 127,
      "chip": "ym2612"
    },
    {
      "channel": 2,
      "note": 47,
      "start": 18.2802,
      "duration": 0.0516,
      "velocity": 103,
      "chip": "ym2612"
    },
    {
      "channel": 5,
      "note": 47,
      "start": 18.298,
      "duration": 0.0554,
      "velocity": 103,
      "chip": "ym2612"
    },
    {
      "channel": 1,
      "note": 47,
      "start": 18.3509,
      "duration": 0.0696,
      "velocity": 103,
      "chip": "ym2612"
    },
    {
      "channel": 2,
      "note": 48,
      "start": 18.3525,
      "duration": 0.0503,
      "velocity": 103,
      "chip": "ym2612"
    },
    {
      "channel": 5,
      "note": 45,
      "start": 18.3695,
      "duration": 0.0534,
      "velocity": 103,
      "chip": "ym2612"
    },
    {
      "channel": 2,
      "note": 51,
      "start": 18.422,
      "duration": 0.0522,
      "velocity": 103,
      "chip": "ym2612"
    },
    {
      "channel": 5,
      "note": 47,
      "start": 18.4405,
      "duration": 0.0534,
      "velocity": 103,
      "chip": "ym2612"
    },
    {
      "channel": 1,
      "note": 47,
      "start": 18.4573,
      "duration": 0.0697,
      "velocity": 103,
      "chip": "ym2612"
    },
    {
      "channel": 2,
      "note": 47,
      "start": 18.493,
      "duration": 0.0519,
      "velocity": 103,
      "chip": "ym2612"
    },
    {
      "channel": 5,
      "note": 48,
      "start": 18.5115,
      "duration": 0.0612,
      "velocity": 103,
      "chip": "ym2612"
    },
    {
      "channel": 1,
      "note": 47,
      "start": 18.5639,
      "duration": 0.1761,
      "velocity": 103,
      "chip": "ym2612"
    },
    {
      "channel": 2,
      "note": 48,
      "start": 18.5656,
      "duration": 0.0503,
      "velocity": 103,
      "chip": "ym2612"
    },
    {
      "channel": 3,
      "note": 61,
      "start": 18.5724,
      "duration": 0.063,
      "velocity": 127,
      "chip": "ym2612"
    },
    {
      "channel": 5,
      "note": 51,
      "start": 18.5826,
      "duration": 0.0531,
      "velocity": 103,
      "chip": "ym2612"
    },
    {
      "channel": 2,
      "note": 51,
      "start": 18.6351,
      "duration": 0.0518,
      "velocity": 103,
      "chip": "ym2612"
    },
    {
      "channel": 5,
      "note": 47,
      "start": 18.6537,
      "duration": 0.0533,
      "velocity": 103,
      "chip": "ym2612"
    },
    {
      "channel": 2,
      "note": 52,
      "start": 18.7061,
      "duration": 0.0518,
      "velocity": 103,
      "chip": "ym2612"
    },
    {
      "channel": 5,
      "note": 48,
      "start": 18.7246,
      "duration": 0.0581,
      "velocity": 103,
      "chip": "ym2612"
    },
    {
      "channel": 1,
      "note": 47,
      "start": 18.7785,
      "duration": 0.0681,
      "velocity": 103,
      "chip": "ym2612"
    },
    {
      "channel": 2,
      "note": 54,
      "start": 18.7802,
      "duration": 0.0487,
      "velocity": 103,
      "chip": "ym2612"
    },
    {
      "channel": 3,
      "note": 61,
      "start": 18.7823,
      "duration": 0.0663,
      "velocity": 127,
      "chip": "ym2612"
    },
    {
      "channel": 5,
      "note": 51,
      "start": 18.7961,
      "duration": 0.0528,
      "velocity": 103,
      "chip": "ym2612"
    },
    {
      "channel": 2,
      "note": 48,
      "start": 18.8482,
      "duration": 0.0518,
      "velocity": 103,
      "chip": "ym2612"
    },
    {
      "channel": 5,
      "note": 52,
      "start": 18.8668,
      "duration": 0.0529,
      "velocity": 103,
      "chip": "ym2612"
    },
    {
      "channel": 1,
      "note": 55,
      "start": 18.8835,
      "duration": 0.0697,
      "velocity": 103,
      "chip": "ym2612"
    },
    {
      "channel": 3,
      "note": 61,
      "start": 18.889,
      "duration": 0.0645,
      "velocity": 127,
      "chip": "ym2612"
    },
    {
      "channel": 2,
      "note": 51,
      "start": 18.9192,
      "duration": 0.0518,
      "velocity": 103,
      "chip": "ym2612"
    },
    {
      "channel": 5,
      "note": 54,
      "start": 18.9388,
      "duration": 0.0538,
      "velocity": 103,
      "chip": "ym2612"
    },
    {
      "channel": 1,
      "note": 47,
      "start": 18.99,
      "duration": 0.0696,
      "velocity": 103,
      "chip": "ym2612"
    },
    {
      "channel": 2,
      "note": 52,
      "start": 18.9917,
      "duration": 0.0503,
      "velocity": 103,
      "chip": "ym2612"
    },
    {
      "channel": 5,
      "note": 48,
      "start": 19.0087,
      "duration": 0.0535,
      "velocity": 103,
      "chip": "ym2612"
    },
    {
      "channel": 2,
      "note": 54,
      "start": 19.0613,
      "duration": 0.0518,
      "velocity": 103,
      "chip": "ym2612"
    },
    {
      "channel": 5,
      "note": 51,
      "start": 19.0797,
      "duration": 0.0535,
      "velocity": 103,
      "chip": "ym2612"
    },
    {
      "channel": 1,
      "note": 47,
      "start": 19.0966,
      "duration": 0.0696,
      "velocity": 103,
      "chip": "ym2612"
    },
    {
      "channel": 2,
      "note": 55,
      "start": 19.1322,
      "duration": 0.0518,
      "velocity": 103,
      "chip": "ym2612"
    },
    {
      "channel": 5,
      "note": 52,
      "start": 19.1507,
      "duration": 0.0611,
      "velocity": 103,
      "chip": "ym2612"
    },
    {
      "channel": 1,
      "note": 47,
      "start": 19.2032,
      "duration": 0.1761,
      "velocity": 103,
      "chip": "ym2612"
    },
    {
      "channel": 2,
      "note": 52,
      "start": 19.2048,
      "duration": 0.0503,
      "velocity": 103,
      "chip": "ym2612"
    },
    {
      "channel": 3,
      "note": 61,
      "start": 19.2115,
      "duration": 0.0631,
      "velocity": 127,
      "chip": "ym2612"
    },
    {
      "channel": 5,
      "note": 54,
      "start": 19.2218,
      "duration": 0.0531,
      "velocity": 103,
      "chip": "ym2612"
    },
    {
      "channel": 2,
      "note": 54,
      "start": 19.2743,
      "duration": 0.0518,
      "velocity": 103,
      "chip": "ym2612"
    },
    {
      "channel": 5,
      "note": 55,
      "start": 19.2928,
      "duration": 0.0534,
      "velocity": 103,
      "chip": "ym2612"
    },
    {
      "channel": 2,
      "note": 55,
      "start": 19.3453,
      "duration": 0.0518,
      "velocity": 103,
      "chip": "ym2612"
    },
    {
      "channel": 5,
      "note": 52,
      "start": 19.3638,
      "duration": 0.0567,
      "velocity": 103,
      "chip": "ym2612"
    },
    {
      "channel": 1,
      "note": 47,
      "start": 19.4163,
      "duration": 0.0695,
      "velocity": 103,
      "chip": "ym2612"
    },
    {
      "channel": 2,
      "note": 57,
      "start": 19.418,
      "duration": 0.0501,
      "velocity": 103,
      "chip": "ym2612"
    },
    {
      "channel": 3,
      "note": 61,
      "start": 19.4201,
      "duration": 0.0676,
      "velocity": 127,
      "chip": "ym2612"
    },
    {
      "channel": 5,
      "note": 54,
      "start": 19.4349,
      "duration": 0.0531,
      "velocity": 103,
      "chip": "ym2612"
    },
    {
      "channel": 2,
      "note": 59,
      "start": 19.4874,
      "duration": 0.0517,
      "velocity": 103,
      "chip": "ym2612"
    },
    {
      "channel": 5,
      "note": 55,
      "start": 19.5063,
      "duration": 0.0525,
      "velocity": 103,
      "chip": "ym2612"
    },
    {
      "channel": 1,
      "note": 54,
      "start": 19.5227,
      "duration": 0.0696,
      "velocity": 103,
      "chip": "ym2612"
    },
    {
      "channel": 3,
      "note": 61,
      "start": 19.5282,
      "duration": 0.0646,
      "velocity": 127,
      "chip": "ym2612"
    },
    {
      "channel": 2,
      "note": 63,
      "start": 19.5584,
      "duration": 0.8866,
      "velocity": 103,
      "chip": "ym2612"
    },
    {
      "channel": 5,
      "note": 57,
      "start": 19.5765,
      "duration": 0.0538,
      "velocity": 103,
      "chip": "ym2612"
    },
    {
      "channel": 1,
      "note": 47,
      "start": 19.6293,
      "duration": 0.0702,
      "velocity": 103,
      "chip": "ym2612"
    },
    {
      "channel": 5,
      "note": 59,
      "start": 19.6479,
      "duration": 0.0526,
      "velocity": 103,
      "chip": "ym2612"
    },
    {
      "channel": 5,
      "note": 63,
      "start": 19.719,
      "duration": 0.9043,
      "velocity": 103,
      "chip": "ym2612"
    },
    {
      "channel": 1,
      "note": 47,
      "start": 19.7358,
      "duration": 0.0696,
      "velocity": 103,
      "chip": "ym2612"
    },
    {
      "channel": 1,
      "note": 47,
      "start": 19.8424,
      "duration": 0.1761,
      "velocity": 103,
      "chip": "ym2612"
    },
    {
      "channel": 3,
      "note": 61,
      "start": 19.8492,
      "duration": 0.063,
      "velocity": 127,
      "chip": "ym2612"
    },
    {
      "channel": 1,
      "note": 47,
      "start": 20.0554,
      "duration": 0.0696,
      "velocity": 103,
      "chip": "ym2612"
    },
    {
      "channel": 3,
      "note": 61,
      "start": 20.0577,
      "duration": 0.0677,
      "velocity": 127,
      "chip": "ym2612"
    },
    {
      "channel": 1,
      "note": 55,
      "start": 20.162,
      "duration": 0.2828,
      "velocity": 103,
      "chip": "ym2612"
    },
    {
      "channel": 3,
      "note": 61,
      "start": 20.1675,
      "duration": 0.0645,
      "velocity": 127,
      "chip": "ym2612"
    },
    {
      "channel": 0,
      "note": 71,
      "start": 20.485,
      "duration": 0.0838,
      "velocity": 104,
      "chip": "ym2612"
    },
    {
      "channel": 1,
      "note": 52,
      "start": 20.488,
      "duration": 0.1876,
      "velocity": 103,
      "chip": "ym2612"
    },
    {
      "channel": 2,
      "note": 76,
      "start": 20.4933,
      "duration": 0.0581,
      "velocity": 99,
      "chip": "ym2612"
    },
    {
      "channel": 3,
      "note": 61,
      "start": 20.5,
      "duration": 0.0709,
      "velocity": 127,
      "chip": "ym2612"
    },
    {
      "channel": 2,
      "note": 79,
      "start": 20.5706,
      "duration": 0.0517,
      "velocity": 99,
      "chip": "ym2612"
    },
    {
      "channel": 0,
      "note": 69,
      "start": 20.6058,
      "duration": 0.0695,
      "velocity": 104,
      "chip": "ym2612"
    },
    {
      "channel": 2,
      "note": 78,
      "start": 20.6415,
      "duration": 0.0519,
      "velocity": 99,
      "chip": "ym2612"
    },
    {
      "channel": 4,
      "note": 71,
      "start": 20.6635,
      "duration": 0.0667,
      "velocity": 104,
      "chip": "ym2612"
    },
    {
      "channel": 5,
      "note": 76,
      "start": 20.6688,
      "duration": 0.0494,
      "velocity": 99,
      "chip": "ym2612"
    },
    {
      "channel": 0,
      "note": 67,
      "start": 20.7124,
      "duration": 0.0695,
      "velocity": 104,
      "chip": "ym2612"
    },
    {
      "channel": 1,
      "note": 52,
      "start": 20.714,
      "duration": 0.0681,
      "velocity": 103,
      "chip": "ym2612"
    },
    {
      "channel": 2,
      "note": 79,
      "start": 20.7157,
      "duration": 0.0487,
      "velocity": 99,
      "chip": "ym2612"
    },
    {
      "channel": 3,
      "note": 61,
      "start": 20.7179,
      "duration": 0.0663,
      "velocity": 127,
      "chip": "ym2612"
    },
    {
      "channel": 5,
      "note": 79,
      "start": 20.7318,
      "duration": 0.0528,
      "velocity": 99,
      "chip": "ym2612"
    },
    {
      "channel": 4,
      "note": 69,
      "start": 20.7662,
      "duration": 0.07,
      "velocity": 104,
      "chip": "ym2612"
    },
    {
      "channel": 2,
      "note": 76,
      "start": 20.7839,
      "duration": 0.0515,
      "velocity": 99,
      "chip": "ym2612"
    },
    {
      "channel": 5,
      "note": 78,
      "start": 20.8022,
      "duration": 0.0529,
      "velocity": 99,
      "chip": "ym2612"
    },
    {
      "channel": 0,
      "note": 69,
      "start": 20.819,
      "duration": 0.0695,
      "velocity": 104,
      "chip": "ym2612"
    },
    {
      "channel": 1,
      "note": 59,
      "start": 20.8206,
      "duration": 0.0681,
      "velocity": 103,
      "chip": "ym2612"
    },
    {
      "channel": 3,
      "note": 61,
      "start": 20.826,
      "duration": 0.0631,
      "velocity": 127,
      "chip": "ym2612"
    },
    {
      "channel": 2,
      "note": 79,
      "start": 20.8546,
      "duration": 0.0518,
      "velocity": 99,
      "chip": "ym2612"
    },
    {
      "channel": 4,
      "note": 67,
      "start": 20.8727,
      "duration": 0.07,
      "velocity": 104,
      "chip": "ym2612"
    },
    {
      "channel": 5,
      "note": 79,
      "start": 20.8743,
      "duration": 0.0565,
      "velocity": 99,
      "chip": "ym2612"
    },
    {
      "channel": 0,
      "note": 67,
      "start": 20.9266,
      "duration": 0.0684,
      "velocity": 104,
      "chip": "ym2612"
    },
    {
      "channel": 1,
      "note": 52,
      "start": 20.9283,
      "duration": 0.0669,
      "velocity": 103,
      "chip": "ym2612"
    },
    {
      "channel": 2,
      "note": 78,
      "start": 20.9299,
      "duration": 0.0475,
      "velocity": 99,
      "chip": "ym2612"
    },
    {
      "channel": 5,
      "note": 76,
      "start": 20.9444,
      "duration": 0.0533,
      "velocity": 99,
      "chip": "ym2612"
    },
    {
      "channel": 4,
      "note": 69,
      "start": 20.9797,
      "duration": 0.0695,
      "velocity": 104,
      "chip": "ym2612"
    },
    {
      "channel": 2,
      "note": 79,
      "start": 20.9968,
      "duration": 0.0517,
      "velocity": 99,
      "chip": "ym2612"
    },
    {
      "channel": 5,
      "note": 79,
      "start": 21.0152,
      "duration": 0.0536,
      "velocity": 99,
      "chip": "ym2612"
    },
    {
      "channel": 0,
      "note": 66,
      "start": 21.032,
      "duration": 0.0695,
      "velocity": 104,
      "chip": "ym2612"
    },
    {
      "channel": 1,
      "note": 52,
      "start": 21.0337,
      "duration": 0.0681,
      "velocity": 103,
      "chip": "ym2612"
    },
    {
      "channel": 2,
      "note": 76,
      "start": 21.0679,
      "duration": 0.0516,
      "velocity": 99,
      "chip": "ym2612"
    },
    {
      "channel": 4,
      "note": 67,
      "start": 21.0862,
      "duration": 0.0695,
      "velocity": 104,
      "chip": "ym2612"
    },
    {
      "channel": 5,
      "note": 78,
      "start": 21.0879,
      "duration": 0.0611,
      "velocity": 99,
      "chip": "ym2612"
    },
    {
      "channel": 0,
      "note": 67,
      "start": 21.1385,
      "duration": 0.0695,
      "velocity": 104,
      "chip": "ym2612"
    },
    {
      "channel": 1,
      "note": 52,
      "start": 21.1402,
      "duration": 0.1748,
      "velocity": 103,
      "chip": "ym2612"
    },
    {
      "channel": 2,
      "note": 79,
      "start": 21.1418,
      "duration": 0.0487,
      "velocity": 99,
      "chip": "ym2612"
    },
    {
      "channel": 3,
      "note": 61,
      "start": 21.1486,
      "duration": 0.0616,
      "velocity": 127,
      "chip": "ym2612"
    },
    {
      "channel": 5,
      "note": 79,
      "start": 21.1574,
      "duration": 0.0531,
      "velocity": 99,
      "chip": "ym2612"
    },
    {
      "channel": 4,
      "note": 66,
      "start": 21.1923,
      "duration": 0.07,
      "velocity": 104,
      "chip": "ym2612"
    },
    {
      "channel": 2,
      "note": 78,
      "start": 21.2098,
      "duration": 0.0517,
      "velocity": 99,
      "chip": "ym2612"
    },
    {
      "channel": 5,
      "note": 76,
      "start": 21.2285,
      "duration": 0.0533,
      "velocity": 99,
      "chip": "ym2612"
    },
    {
      "channel": 0,
      "note": 66,
      "start": 21.2451,
      "duration": 0.0695,
      "velocity": 104,
      "chip": "ym2612"
    },
    {
      "channel": 2,
      "note": 79,
      "start": 21.2807,
      "duration": 0.0518,
      "velocity": 99,
      "chip": "ym2612"
    },
    {
      "channel": 4,
      "note": 67,
      "start": 21.2993,
      "duration": 0.0696,
      "velocity": 104,
      "chip": "ym2612"
    },
    {
      "channel": 5,
      "note": 79,
      "start": 21.301,
      "duration": 0.0566,
      "velocity": 99,
      "chip": "ym2612"
    },
    {
      "channel": 0,
      "note": 64,
      "start": 21.3516,
      "duration": 0.0695,
      "velocity": 104,
      "chip": "ym2612"
    },
    {
      "channel": 1,
      "note": 52,
      "start": 21.3533,
      "duration": 0.0681,
      "velocity": 103,
      "chip": "ym2612"
    },
    {
      "channel": 2,
      "note": 76,
      "start": 21.3551,
      "duration": 0.0485,
      "velocity": 99,
      "chip": "ym2612"
    },
    {
      "channel": 3,
      "note": 61,
      "start": 21.3572,
      "duration": 0.0661,
      "velocity": 127,
      "chip": "ym2612"
    },
    {
      "channel": 5,
      "note": 78,
      "start": 21.3705,
      "duration": 0.0531,
      "velocity": 99,
      "chip": "ym2612"
    },
    {
      "channel": 4,
      "note": 66,
      "start": 21.4054,
      "duration": 0.07,
      "velocity": 104,
      "chip": "ym2612"
    },
    {
      "channel": 2,
      "note": 79,
      "start": 21.423,
      "duration": 0.0517,
      "velocity": 99,
      "chip": "ym2612"
    },
    {
      "channel": 5,
      "note": 79,
      "start": 21.4413,
      "duration": 0.053,
      "velocity": 99,
      "chip": "ym2612"
    },
    {
      "channel": 0,
      "note": 66,
      "start": 21.4581,
      "duration": 0.0695,
      "velocity": 104,
      "chip": "ym2612"
    },
    {
      "channel": 1,
      "note": 60,
      "start": 21.4598,
      "duration": 0.0681,
      "velocity": 103,
      "chip": "ym2612"
    },
    {
      "channel": 3,
      "note": 61,
      "start": 21.4652,
      "duration": 0.063,
      "velocity": 127,
      "chip": "ym2612"
    },
    {
      "channel": 2,
      "note": 78,
      "start": 21.4938,
      "duration": 0.0519,
      "velocity": 99,
      "chip": "ym2612"
    },
    {
      "channel": 4,
      "note": 64,
      "start": 21.5119,
      "duration": 0.0701,
      "velocity": 104,
      "chip": "ym2612"
    },
    {
      "channel": 5,
      "note": 76,
      "start": 21.5137,
      "duration": 0.056,
      "velocity": 99,
      "chip": "ym2612"
    },
    {
      "channel": 0,
      "note": 64,
      "start": 21.5653,
      "duration": 0.069,
      "velocity": 104,
      "chip": "ym2612"
    },
    {
      "channel": 1,
      "note": 52,
      "start": 21.567,
      "duration": 0.0675,
      "velocity": 103,
      "chip": "ym2612"
    },
    {
      "channel": 2,
      "note": 79,
      "start": 21.5687,
      "duration": 0.048,
      "velocity": 99,
      "chip": "ym2612"
    },
    {
      "channel": 5,
      "note": 79,
      "start": 21.5836,
      "duration": 0.0536,
      "velocity": 99,
      "chip": "ym2612"
    },
    {
      "channel": 4,
      "note": 66,
      "start": 21.619,
      "duration": 0.0695,
      "velocity": 104,
      "chip": "ym2612"
    },
    {
      "channel": 2,
      "note": 76,
      "start": 21.6363,
      "duration": 0.0514,
      "velocity": 99,
      "chip": "ym2612"
    },
    {
      "channel": 5,
      "note": 78,
      "start": 21.6544,
      "duration": 0.0534,
      "velocity": 99,
      "chip": "ym2612"
    },
    {
      "channel": 0,
      "note": 63,
      "start": 21.6712,
      "duration": 0.0695,
      "velocity": 104,
      "chip": "ym2612"
    },
    {
      "channel": 1,
      "note": 52,
      "start": 21.6729,
      "duration": 0.0681,
      "velocity": 103,
      "chip": "ym2612"
    },
    {
      "channel": 2,
      "note": 79,
      "start": 21.7069,
      "duration": 0.0522,
      "velocity": 99,
      "chip": "ym2612"
    },
    {
      "channel": 4,
      "note": 64,
      "start": 21.7254,
      "duration": 0.0695,
      "velocity": 104,
      "chip": "ym2612"
    },
    {
      "channel": 5,
      "note": 79,
      "start": 21.7271,
      "duration": 0.0612,
      "velocity": 99,
      "chip": "ym2612"
    },
    {
      "channel": 0,
      "note": 64,
      "start": 21.7778,
      "duration": 0.0695,
      "velocity": 104,
      "chip": "ym2612"
    },
    {
      "channel": 1,
      "note": 52,
      "start": 21.7794,
      "duration": 0.1753,
      "velocity": 103,
      "chip": "ym2612"
    },
    {
      "channel": 2,
      "note": 78,
      "start": 21.7811,
      "duration": 0.0487,
      "velocity": 99,
      "chip": "ym2612"
    },
    {
      "channel": 3,
      "note": 61,
      "start": 21.7878,
      "duration": 0.0617,
      "velocity": 127,
      "chip": "ym2612"
    },
    {
      "channel": 5,
      "note": 76,
      "start": 21.7968,
      "duration": 0.053,
      "velocity": 99,
      "chip": "ym2612"
    },
    {
      "channel": 4,
      "note": 63,
      "start": 21.8316,
      "duration": 0.07,
      "velocity": 104,
      "chip": "ym2612"
    },
    {
      "channel": 2,
      "note": 79,
      "start": 21.8491,
      "duration": 0.0517,
      "velocity": 99,
      "chip": "ym2612"
    },
    {
      "channel": 5,
      "note": 79,
      "start": 21.8676,
      "duration": 0.0535,
      "velocity": 99,
      "chip": "ym2612"
    },
    {
      "channel": 0,
      "note": 63,
      "start": 21.8843,
      "duration": 0.0701,
      "velocity": 104,
      "chip": "ym2612"
    },
    {
      "channel": 2,
      "note": 76,
      "start": 21.9201,
      "duration": 0.0517,
      "velocity": 99,
      "chip": "ym2612"
    },
    {
      "channel": 4,
      "note": 64,
      "start": 21.9385,
      "duration": 0.0696,
      "velocity": 104,
      "chip": "ym2612"
    },
    {
      "channel": 5,
      "note": 78,
      "start": 21.9401,
      "duration": 0.0566,
      "velocity": 99,
      "chip": "ym2612"
    },
    {
      "channel": 0,
      "note": 64,
      "start": 21.9908,
      "duration": 0.0695,
      "velocity": 104,
      "chip": "ym2612"
    },
    {
      "channel": 1,
      "note": 52,
      "start": 21.9924,
      "duration": 0.0681,
      "velocity": 103,
      "chip": "ym2612"
    },
    {
      "channel": 2,
      "note": 79,
      "start": 21.9941,
      "duration": 0.0487,
      "velocity": 99,
      "chip": "ym2612"
    },
    {
      "channel": 3,
      "note": 61,
      "start": 21.9963,
      "duration": 0.0663,
      "velocity": 127,
      "chip": "ym2612"
    },
    {
      "channel": 5,
      "note": 79,
      "start": 22.0097,
      "duration": 0.0532,
      "velocity": 99,
      "chip": "ym2612"
    },
    {
      "channel": 4,
      "note": 63,
      "start": 22.0447,
      "duration": 0.07,
      "velocity": 104,
      "chip": "ym2612"
    },
    {
      "channel": 2,
      "note": 78,
      "start": 22.0622,
      "duration": 0.0516,
      "velocity": 99,
      "chip": "ym2612"
    },
    {
      "channel": 5,
      "note": 76,
      "start": 22.0807,
      "duration": 0.0529,
      "velocity": 99,
      "chip": "ym2612"
    },
    {
      "channel": 0,
      "note": 66,
      "start": 22.0973,
      "duration": 0.0695,
      "velocity": 104,
      "chip": "ym2612"
    },
    {
      "channel": 1,
      "note": 59,
      "start": 22.099,
      "duration": 0.0681,
      "velocity": 103,
      "chip": "ym2612"
    },
    {
      "channel": 3,
      "note": 61,
      "start": 22.1046,
      "duration": 0.063,
      "velocity": 127,
      "chip": "ym2612"
    },
    {
      "channel": 2,
      "note": 79,
      "start": 22.1331,
      "duration": 0.0518,
      "velocity": 99,
      "chip": "ym2612"
    },
    {
      "channel": 4,
      "note": 64,
      "start": 22.1519,
      "duration": 0.0692,
      "velocity": 104,
      "chip": "ym2612"
    },
    {
      "channel": 5,
      "note": 79,
      "start": 22.1536,
      "duration": 0.0548,
      "velocity": 99,
      "chip": "ym2612"
    },
    {
      "channel": 0,
      "note": 64,
      "start": 22.204,
      "duration": 0.0694,
      "velocity": 104,
      "chip": "ym2612"
    },
    {
      "channel": 1,
      "note": 52,
      "start": 22.2057,
      "duration": 0.0679,
      "velocity": 103,
      "chip": "ym2612"
    },
    {
      "channel": 2,
      "note": 76,
      "start": 22.2075,
      "duration": 0.0484,
      "velocity": 99,
      "chip": "ym2612"
    },
    {
      "channel": 5,
      "note": 78,
      "start": 22.2227,
      "duration": 0.0534,
      "velocity": 99,
      "chip": "ym2612"
    },
    {
      "channel": 4,
      "note": 66,
      "start": 22.2582,
      "duration": 0.0695,
      "velocity": 104,
      "chip": "ym2612"
    },
    {
      "channel": 2,
      "note": 79,
      "start": 22.2753,
      "duration": 0.0517,
      "velocity": 99,
      "chip": "ym2612"
    },
    {
      "channel": 5,
      "note": 79,
      "start": 22.2937,
      "duration": 0.0534,
      "velocity": 99,
      "chip": "ym2612"
    },
    {
      "channel": 0,
      "note": 66,
      "start": 22.3105,
      "duration": 0.0695,
      "velocity": 104,
      "chip": "ym2612"
    },
    {
      "channel": 1,
      "note": 52,
      "start": 22.312,
      "duration": 0.0681,
      "velocity": 103,
      "chip": "ym2612"
    },
    {
      "channel": 2,
      "note": 78,
      "start": 22.3461,
      "duration": 0.0518,
      "velocity": 99,
      "chip": "ym2612"
    },
    {
      "channel": 4,
      "note": 64,
      "start": 22.3646,
      "duration": 0.0696,
      "velocity": 104,
      "chip": "ym2612"
    },
    {
      "channel": 5,
      "note": 76,
      "start": 22.3666,
      "duration": 0.0609,
      "velocity": 99,
      "chip": "ym2612"
    },
    {
      "channel": 0,
      "note": 67,
      "start": 22.4169,
      "duration": 0.0695,
      "velocity": 104,
      "chip": "ym2612"
    },
    {
      "channel": 1,
      "note": 52,
      "start": 22.4187,
      "duration": 0.1748,
      "velocity": 103,
      "chip": "ym2612"
    },
    {
      "channel": 2,
      "note": 79,
      "start": 22.4203,
      "duration": 0.0487,
      "velocity": 99,
      "chip": "ym2612"
    },
    {
      "channel": 3,
      "note": 61,
      "start": 22.4271,
      "duration": 0.0617,
      "velocity": 127,
      "chip": "ym2612"
    },
    {
      "channel": 5,
      "note": 79,
      "start": 22.4359,
      "duration": 0.0532,
      "velocity": 99,
      "chip": "ym2612"
    },
    {
      "channel": 4,
      "note": 66,
      "start": 22.4708,
      "duration": 0.07,
      "velocity": 104,
      "chip": "ym2612"
    },
    {
      "channel": 2,
      "note": 76,
      "start": 22.4885,
      "duration": 0.0515,
      "velocity": 99,
      "chip": "ym2612"
    },
    {
      "channel": 5,
      "note": 78,
      "start": 22.5068,
      "duration": 0.0533,
      "velocity": 99,
      "chip": "ym2612"
    },
    {
      "channel": 0,
      "note": 66,
      "start": 22.5235,
      "duration": 0.0698,
      "velocity": 104,
      "chip": "ym2612"
    },
    {
      "channel": 2,
      "note": 79,
      "start": 22.5592,
      "duration": 0.0518,
      "velocity": 99,
      "chip": "ym2612"
    },
    {
      "channel": 4,
      "note": 67,
      "start": 22.5777,
      "duration": 0.0696,
      "velocity": 104,
      "chip": "ym2612"
    },
    {
      "channel": 5,
      "note": 79,
      "start": 22.5793,
      "duration": 0.0566,
      "velocity": 99,
      "chip": "ym2612"
    },
    {
      "channel": 0,
      "note": 67,
      "start": 22.63,
      "duration": 0.0695,
      "velocity": 104,
      "chip": "ym2612"
    },
    {
      "channel": 1,
      "note": 52,
      "start": 22.6317,
      "duration": 0.0681,
      "velocity": 103,
      "chip": "ym2612"
    },
    {
      "channel": 2,
      "note": 78,
      "start": 22.6334,
      "duration": 0.0486,
      "velocity": 99,
      "chip": "ym2612"
    },
    {
      "channel": 3,
      "note": 61,
      "start": 22.6356,
      "duration": 0.0662,
      "velocity": 127,
      "chip": "ym2612"
    },
    {
      "channel": 5,
      "note": 76,
      "start": 22.6491,
      "duration": 0.0531,
      "velocity": 99,
      "chip": "ym2612"
    },
    {
      "channel": 4,
      "note": 66,
      "start": 22.6839,
      "duration": 0.07,
      "velocity": 104,
      "chip": "ym2612"
    },
    {
      "channel": 2,
      "note": 79,
      "start": 22.7015,
      "duration": 0.0516,
      "velocity": 99,
      "chip": "ym2612"
    },
    {
      "channel": 5,
      "note": 79,
      "start": 22.7199,
      "duration": 0.0531,
      "velocity": 99,
      "chip": "ym2612"
    },
    {
      "channel": 0,
      "note": 69,
      "start": 22.7366,
      "duration": 0.0695,
      "velocity": 104,
      "chip": "ym2612"
    },
    {
      "channel": 1,
      "note": 60,
      "start": 22.7383,
      "duration": 0.2812,
      "velocity": 103,
      "chip": "ym2612"
    },
    {
      "channel": 3,
      "note": 61,
      "start": 22.7437,
      "duration": 0.0629,
      "velocity": 127,
      "chip": "ym2612"
    },
    {
      "channel": 2,
      "note": 76,
      "start": 22.7725,
      "duration": 0.0516,
      "velocity": 99,
      "chip": "ym2612"
    },
    {
      "channel": 4,
      "note": 67,
      "start": 22.7907,
      "duration": 0.0697,
      "velocity": 104,
      "chip": "ym2612"
    },
    {
      "channel": 5,
      "note": 78,
      "start": 22.7923,
      "duration": 0.0535,
      "velocity": 99,
      "chip": "ym2612"
    },
    {
      "channel": 0,
      "note": 67,
      "start": 22.8431,
      "duration": 0.0696,
      "velocity": 104,
      "chip": "ym2612"
    },
    {
      "channel": 2,
      "note": 79,
      "start": 22.8449,
      "duration": 0.0502,
      "velocity": 99,
      "chip": "ym2612"
    },
    {
      "channel": 5,
      "note": 79,
      "start": 22.8619,
      "duration": 0.0535,
      "velocity": 99,
      "chip": "ym2612"
    },
    {
      "channel": 4,
      "note": 69,
      "start": 22.8974,
      "duration": 0.0695,
      "velocity": 104,
      "chip": "ym2612"
    },
    {
      "channel": 2,
      "note": 78,
      "start": 22.9144,
      "duration": 0.0518,
      "velocity": 99,
      "chip": "ym2612"
    },
    {
      "channel": 5,
      "note": 76,
      "start": 22.9331,
      "duration": 0.0537,
      "velocity": 99,
      "chip": "ym2612"
    },
    {
      "channel": 0,
      "note": 66,
      "start": 22.9497,
      "duration": 0.0695,
      "velocity": 104,
      "chip": "ym2612"
    },
    {
      "channel": 2,
      "note": 79,
      "start": 22.9859,
      "duration": 0.0513,
      "velocity": 99,
      "chip": "ym2612"
    },
    {
      "channel": 4,
      "note": 67,
      "start": 23.0038,
      "duration": 0.0696,
      "velocity": 104,
      "chip": "ym2612"
    },
    {
      "channel": 5,
      "note": 79,
      "start": 23.0055,
      "duration": 0.0617,
      "velocity": 99,
      "chip": "ym2612"
    },
    {
      "channel": 0,
      "note": 52,
      "start": 23.0562,
      "duration": 0.0695,
      "velocity": 104,
      "chip": "ym2612"
    },
    {
      "channel": 1,
      "note": 52,
      "start": 23.0582,
      "duration": 0.1743,
      "velocity": 103,
      "chip": "ym2612"
    },
    {
      "channel": 2,
      "note": 76,
      "start": 23.06,
      "duration": 0.0483,
      "velocity": 99,
      "chip": "ym2612"
    },
    {
      "channel": 3,
      "note": 61,
      "start": 23.0667,
      "duration": 0.0611,
      "velocity": 127,
      "chip": "ym2612"
    },
    {
      "channel": 5,
      "note": 78,
      "start": 23.0751,
      "duration": 0.0531,
      "velocity": 99,
      "chip": "ym2612"
    },
    {
      "channel": 4,
      "note": 66,
      "start": 23.1101,
      "duration": 0.0707,
      "velocity": 104,
      "chip": "ym2612"
    },
    {
      "channel": 2,
      "note": 79,
      "start": 23.1275,
      "duration": 0.0525,
      "velocity": 99,
      "chip": "ym2612"
    },
    {
      "channel": 5,
      "note": 79,
      "start": 23.146,
      "duration": 0.0535,
      "velocity": 99,
      "chip": "ym2612"
    },
    {
      "channel": 0,
      "note": 54,
      "start": 23.1627,
      "duration": 0.0695,
      "velocity": 104,
      "chip": "ym2612"
    },
    {
      "channel": 2,
      "note": 78,
      "start": 23.1984,
      "duration": 0.0518,
      "velocity": 99,
      "chip": "ym2612"
    },
    {
      "channel": 4,
      "note": 52,
      "start": 23.217,
      "duration": 0.0695,
      "velocity": 104,
      "chip": "ym2612"
    },
    {
      "channel": 5,
      "note": 76,
      "start": 23.2188,
      "duration": 0.0562,
      "velocity": 99,
      "chip": "ym2612"
    },
    {
      "channel": 0,
      "note": 55,
      "start": 23.2693,
      "duration": 0.0695,
      "velocity": 104,
      "chip": "ym2612"
    },
    {
      "channel": 1,
      "note": 52,
      "start": 23.271,
      "duration": 0.0681,
      "velocity": 103,
      "chip": "ym2612"
    },
    {
      "channel": 2,
      "note": 79,
      "start": 23.2726,
      "duration": 0.0487,
      "velocity": 99,
      "chip": "ym2612"
    },
    {
      "channel": 3,
      "note": 61,
      "start": 23.2747,
      "duration": 0.0665,
      "velocity": 127,
      "chip": "ym2612"
    },
    {
      "channel": 5,
      "note": 79,
      "start": 23.2881,
      "duration": 0.0534,
      "velocity": 99,
      "chip": "ym2612"
    },
    {
      "channel": 4,
      "note": 54,
      "start": 23.3231,
      "duration": 0.07,
      "velocity": 104,
      "chip": "ym2612"
    },
    {
      "channel": 2,
      "note": 76,
      "start": 23.3409,
      "duration": 0.0515,
      "velocity": 99,
      "chip": "ym2612"
    },
    {
      "channel": 5,
      "note": 78,
      "start": 23.359,
      "duration": 0.053,
      "velocity": 99,
      "chip": "ym2612"
    },
    {
      "channel": 0,
      "note": 57,
      "start": 23.3758,
      "duration": 0.0696,
      "velocity": 104,
      "chip": "ym2612"
    },
    {
      "channel": 1,
      "note": 59,
      "start": 23.3774,
      "duration": 0.0681,
      "velocity": 103,
      "chip": "ym2612"
    },
    {
      "channel": 3,
      "note": 61,
      "start": 23.3829,
      "duration": 0.0631,
      "velocity": 127,
      "chip": "ym2612"
    },
    {
      "channel": 2,
      "note": 79,
      "start": 23.4115,
      "duration": 0.0518,
      "velocity": 99,
      "chip": "ym2612"
    },
    {
      "channel": 4,
      "note": 55,
      "start": 23.4295,
      "duration": 0.07,
      "velocity": 104,
      "chip": "ym2612"
    },
    {
      "channel": 5,
      "note": 79,
      "start": 23.4312,
      "duration": 0.0555,
      "velocity": 99,
      "chip": "ym2612"
    },
    {
      "channel": 0,
      "note": 59,
      "start": 23.4823,
      "duration": 0.0695,
      "velocity": 104,
      "chip": "ym2612"
    },
    {
      "channel": 1,
      "note": 52,
      "start": 23.4841,
      "duration": 0.068,
      "velocity": 103,
      "chip": "ym2612"
    },
    {
      "channel": 2,
      "note": 78,
      "start": 23.4858,
      "duration": 0.0486,
      "velocity": 99,
      "chip": "ym2612"
    },
    {
      "channel": 5,
      "note": 76,
      "start": 23.5014,
      "duration": 0.0532,
      "velocity": 99,
      "chip": "ym2612"
    },
    {
      "channel": 4,
      "note": 57,
      "start": 23.5367,
      "duration": 0.0695,
      "velocity": 104,
      "chip": "ym2612"
    },
    {
      "channel": 2,
      "note": 79,
      "start": 23.5537,
      "duration": 0.0517,
      "velocity": 99,
      "chip": "ym2612"
    },
    {
      "channel": 5,
      "note": 79,
      "start": 23.5721,
      "duration": 0.0536,
      "velocity": 99,
      "chip": "ym2612"
    },
    {
      "channel": 0,
      "note": 61,
      "start": 23.5889,
      "duration": 0.0695,
      "velocity": 104,
      "chip": "ym2612"
    },
    {
      "channel": 1,
      "note": 52,
      "start": 23.5905,
      "duration": 0.0681,
      "velocity": 103,
      "chip": "ym2612"
    },
    {
      "channel": 2,
      "note": 76,
      "start": 23.6248,
      "duration": 0.0517,
      "velocity": 99,
      "chip": "ym2612"
    },
    {
      "channel": 4,
      "note": 59,
      "start": 23.6431,
      "duration": 0.0695,
      "velocity": 104,
      "chip": "ym2612"
    },
    {
      "channel": 5,
      "note": 78,
      "start": 23.6447,
      "duration": 0.0612,
      "velocity": 99,
      "chip": "ym2612"
    },
    {
      "channel": 0,
      "note": 63,
      "start": 23.6954,
      "duration": 0.0695,
      "velocity": 104,
      "chip": "ym2612"
    },
    {
      "channel": 1,
      "note": 52,
      "start": 23.6971,
      "duration": 0.1746,
      "velocity": 103,
      "chip": "ym2612"
    },
    {
      "channel": 2,
      "note": 79,
      "start": 23.6988,
      "duration": 0.0487,
      "velocity": 99,
      "chip": "ym2612"
    },
    {
      "channel": 3,
      "note": 61,
      "start": 23.7056,
      "duration": 0.0615,
      "velocity": 127,
      "chip": "ym2612"
    },
    {
      "channel": 5,
      "note": 79,
      "start": 23.7143,
      "duration": 0.0531,
      "velocity": 99,
      "chip": "ym2612"
    },
    {
      "channel": 4,
      "note": 61,
      "start": 23.7493,
      "duration": 0.0703,
      "velocity": 104,
      "chip": "ym2612"
    },
    {
      "channel": 2,
      "note": 78,
      "start": 23.7667,
      "duration": 0.0521,
      "velocity": 99,
      "chip": "ym2612"
    },
    {
      "channel": 5,
      "note": 76,
      "start": 23.7854,
      "duration": 0.0532,
      "velocity": 99,
      "chip": "ym2612"
    },
    {
      "channel": 0,
      "note": 64,
      "start": 23.802,
      "duration": 0.0695,
      "velocity": 104,
      "chip": "ym2612"
    },
    {
      "channel": 2,
      "note": 79,
      "start": 23.8377,
      "duration": 0.0518,
      "velocity": 99,
      "chip": "ym2612"
    },
    {
      "channel": 4,
      "note": 63,
      "start": 23.8561,
      "duration": 0.0696,
      "velocity": 104,
      "chip": "ym2612"
    },
    {
      "channel": 5,
      "note": 79,
      "start": 23.8578,
      "duration": 0.0567,
      "velocity": 99,
      "chip": "ym2612"
    },
    {
      "channel": 0,
      "note": 66,
      "start": 23.9085,
      "duration": 0.0695,
      "velocity": 104,
      "chip": "ym2612"
    },
    {
      "channel": 1,
      "note": 52,
      "start": 23.9101,
      "duration": 0.0681,
      "velocity": 103,
      "chip": "ym2612"
    },
    {
      "channel": 2,
      "note": 76,
      "start": 23.912,
      "duration": 0.0485,
      "velocity": 99,
      "chip": "ym2612"
    },
    {
      "channel": 3,
      "note": 61,
      "start": 23.9141,
      "duration": 0.0661,
      "velocity": 127,
      "chip": "ym2612"
    },
    {
      "channel": 5,
      "note": 78,
      "start": 23.9274,
      "duration": 0.0532,
      "velocity": 99,
      "chip": "ym2612"
    },
    {
      "channel": 4,
      "note": 64,
      "start": 23.9623,
      "duration": 0.0701,
      "velocity": 104,
      "chip": "ym2612"
    },
    {
      "channel": 2,
      "note": 79,
      "start": 23.9799,
      "duration": 0.0517,
      "velocity": 99,
      "chip": "ym2612"
    },
    {
      "channel": 5,
      "note": 79,
      "start": 23.9983,
      "duration": 0.053,
      "velocity": 99,
      "chip": "ym2612"
    },
    {
      "channel": 0,
      "note": 67,
      "start": 24.0155,
      "duration": 0.0691,
      "velocity": 104,
      "chip": "ym2612"
    },
    {
      "channel": 1,
      "note": 60,
      "start": 24.0172,
      "duration": 0.0676,
      "velocity": 103,
      "chip": "ym2612"
    },
    {
      "channel": 3,
      "note": 61,
      "start": 24.0227,
      "duration": 0.0624,
      "velocity": 127,
      "chip": "ym2612"
    },
    {
      "channel": 2,
      "note": 78,
      "start": 24.0507,
      "duration": 0.0518,
      "velocity": 99,
      "chip": "ym2612"
    },
    {
      "channel": 4,
      "note": 66,
      "start": 24.0688,
      "duration": 0.0699,
      "velocity": 104,
      "chip": "ym2612"
    },
    {
      "channel": 5,
      "note": 76,
      "start": 24.0706,
      "duration": 0.0551,
      "velocity": 99,
      "chip": "ym2612"
    },
    {
      "channel": 0,
      "note": 69,
      "start": 24.1216,
      "duration": 0.0695,
      "velocity": 104,
      "chip": "ym2612"
    },
    {
      "channel": 1,
      "note": 52,
      "start": 24.1232,
      "duration": 0.0681,
      "velocity": 103,
      "chip": "ym2612"
    },
    {
      "channel": 2,
      "note": 79,
      "start": 24.1248,
      "duration": 0.0487,
      "velocity": 99,
      "chip": "ym2612"
    },
    {
      "channel": 5,
      "note": 79,
      "start": 24.1404,
      "duration": 0.0536,
      "velocity": 99,
      "chip": "ym2612"
    },
    {
      "channel": 4,
      "note": 67,
      "start": 24.1759,
      "duration": 0.0695,
      "velocity": 104,
      "chip": "ym2612"
    },
    {
      "channel": 2,
      "note": 76,
      "start": 24.1932,
      "duration": 0.0515,
      "velocity": 99,
      "chip": "ym2612"
    },
    {
      "channel": 5,
      "note": 78,
      "start": 24.212,
      "duration": 0.0527,
      "velocity": 99,
      "chip": "ym2612"
    },
    {
      "channel": 0,
      "note": 71,
      "start": 24.2281,
      "duration": 0.0696,
      "velocity": 104,
      "chip": "ym2612"
    },
    {
      "channel": 1,
      "note": 52,
      "start": 24.2297,
      "duration": 0.0681,
      "velocity": 103,
      "chip": "ym2612"
    },
    {
      "channel": 2,
      "note": 79,
      "start": 24.2638,
      "duration": 0.0518,
      "velocity": 99,
      "chip": "ym2612"
    },
    {
      "channel": 4,
      "note": 69,
      "start": 24.2823,
      "duration": 0.0696,
      "velocity": 104,
      "chip": "ym2612"
    },
    {
      "channel": 5,
      "note": 79,
      "start": 24.2841,
      "duration": 0.0611,
      "velocity": 99,
      "chip": "ym2612"
    },
    {
      "channel": 0,
      "note": 69,
      "start": 24.3347,
      "duration": 0.0695,
      "velocity": 104,
      "chip": "ym2612"
    },
    {
      "channel": 1,
      "note": 52,
      "start": 24.3363,
      "duration": 0.1746,
      "velocity": 103,
      "chip": "ym2612"
    },
    {
      "channel": 2,
      "note": 78,
      "start": 24.338,
      "duration": 0.0487,
      "velocity": 99,
      "chip": "ym2612"
    },
    {
      "channel": 3,
      "note": 61,
      "start": 24.3447,
      "duration": 0.0615,
      "velocity": 127,
      "chip": "ym2612"
    },
    {
      "channel": 5,
      "note": 76,
      "start": 24.3538,
      "duration": 0.0528,
      "velocity": 99,
      "chip": "ym2612"
    },
    {
      "channel": 4,
      "note": 71,
      "start": 24.3885,
      "duration": 0.07,
      "velocity": 104,
      "chip": "ym2612"
    },
    {
      "channel": 2,
      "note": 79,
      "start": 24.4059,
      "duration": 0.0517,
      "velocity": 99,
      "chip": "ym2612"
    },
    {
      "channel": 5,
      "note": 79,
      "start": 24.4244,
      "duration": 0.0535,
      "velocity": 99,
      "chip": "ym2612"
    },
    {
      "channel": 0,
      "note": 67,
      "start": 24.4412,
      "duration": 0.0695,
      "velocity": 104,
      "chip": "ym2612"
    },
    {
      "channel": 2,
      "note": 76,
      "start": 24.4771,
      "duration": 0.0517,
      "velocity": 99,
      "chip": "ym2612"
    },
    {
      "channel": 4,
      "note": 69,
      "start": 24.4954,
      "duration": 0.0697,
      "velocity": 104,
      "chip": "ym2612"
    },
    {
      "channel": 5,
      "note": 78,
      "start": 24.497,
      "duration": 0.0566,
      "velocity": 99,
      "chip": "ym2612"
    },
    {
      "channel": 0,
      "note": 71,
      "start": 24.5477,
      "duration": 0.0695,
      "velocity": 104,
      "chip": "ym2612"
    },
    {
      "channel": 1,
      "note": 52,
      "start": 24.5494,
      "duration": 0.0681,
      "velocity": 103,
      "chip": "ym2612"
    },
    {
      "channel": 2,
      "note": 79,
      "start": 24.5512,
      "duration": 0.0486,
      "velocity": 99,
      "chip": "ym2612"
    },
    {
      "channel": 3,
      "note": 61,
      "start": 24.5533,
      "duration": 0.0662,
      "velocity": 127,
      "chip": "ym2612"
    },
    {
      "channel": 5,
      "note": 79,
      "start": 24.5667,
      "duration": 0.0531,
      "velocity": 99,
      "chip": "ym2612"
    },
    {
      "channel": 4,
      "note": 67,
      "start": 24.6016,
      "duration": 0.07,
      "velocity": 104,
      "chip": "ym2612"
    },
    {
      "channel": 2,
      "note": 78,
      "start": 24.6192,
      "duration": 0.0516,
      "velocity": 99,
      "chip": "ym2612"
    },
    {
      "channel": 5,
      "note": 76,
      "start": 24.6377,
      "duration": 0.0527,
      "velocity": 99,
      "chip": "ym2612"
    },
    {
      "channel": 0,
      "note": 69,
      "start": 24.6543,
      "duration": 0.0695,
      "velocity": 104,
      "chip": "ym2612"
    },
    {
      "channel": 1,
      "note": 59,
      "start": 24.6559,
      "duration": 0.0681,
      "velocity": 103,
      "chip": "ym2612"
    },
    {
      "channel": 3,
      "note": 61,
      "start": 24.6613,
      "duration": 0.0631,
      "velocity": 127,
      "chip": "ym2612"
    },
    {
      "channel": 2,
      "note": 79,
      "start": 24.69,
      "duration": 0.0518,
      "velocity": 99,
      "chip": "ym2612"
    },
    {
      "channel": 4,
      "note": 71,
      "start": 24.708,
      "duration": 0.07,
      "velocity": 104,
      "chip": "ym2612"
    },
    {
      "channel": 5,
      "note": 79,
      "start": 24.7097,
      "duration": 0.0556,
      "velocity": 99,
      "chip": "ym2612"
    },
    {
      "channel": 0,
      "note": 67,
      "start": 24.7608,
      "duration": 0.0695,
      "velocity": 104,
      "chip": "ym2612"
    },
    {
      "channel": 1,
      "note": 52,
      "start": 24.7624,
      "duration": 0.0681,
      "velocity": 103,
      "chip": "ym2612"
    },
    {
      "channel": 2,
      "note": 76,
      "start": 24.7643,
      "duration": 0.0485,
      "velocity": 99,
      "chip": "ym2612"
    },
    {
      "channel": 5,
      "note": 78,
      "start": 24.7796,
      "duration": 0.0536,
      "velocity": 99,
      "chip": "ym2612"
    },
    {
      "channel": 4,
      "note": 69,
      "start": 24.8151,
      "duration": 0.0696,
      "velocity": 104,
      "chip": "ym2612"
    },
    {
      "channel": 2,
      "note": 79,
      "start": 24.8322,
      "duration": 0.0517,
      "velocity": 99,
      "chip": "ym2612"
    },
    {
      "channel": 5,
      "note": 79,
      "start": 24.8508,
      "duration": 0.0531,
      "velocity": 99,
      "chip": "ym2612"
    },
    {
      "channel": 0,
      "note": 71,
      "start": 24.8673,
      "duration": 0.0695,
      "velocity": 104,
      "chip": "ym2612"
    },
    {
      "channel": 1,
      "note": 52,
      "start": 24.869,
      "duration": 0.0681,
      "velocity": 103,
      "chip": "ym2612"
    },
    {
      "channel": 2,
      "note": 78,
      "start": 24.903,
      "duration": 0.0518,
      "velocity": 99,
      "chip": "ym2612"
    },
    {
      "channel": 4,
      "note": 67,
      "start": 24.9215,
      "duration": 0.0695,
      "velocity": 104,
      "chip": "ym2612"
    },
    {
      "channel": 5,
      "note": 76,
      "start": 24.9234,
      "duration": 0.061,
      "velocity": 99,
      "chip": "ym2612"
    },
    {
      "channel": 0,
      "note": 69,
      "start": 24.9739,
      "duration": 0.0702,
      "velocity": 104,
      "chip": "ym2612"
    },
    {
      "channel": 1,
      "note": 52,
      "start": 24.9755,
      "duration": 0.1746,
      "velocity": 103,
      "chip": "ym2612"
    },
    {
      "channel": 2,
      "note": 79,
      "start": 24.9772,
      "duration": 0.0487,
      "velocity": 99,
      "chip": "ym2612"
    },
    {
      "channel": 3,
      "note": 61,
      "start": 24.9839,
      "duration": 0.0624,
      "velocity": 127,
      "chip": "ym2612"
    },
    {
      "channel": 5,
      "note": 79,
      "start": 24.9927,
      "duration": 0.0539,
      "velocity": 99,
      "chip": "ym2612"
    },
    {
      "channel": 4,
      "note": 71,
      "start": 25.0277,
      "duration": 0.07,
      "velocity": 104,
      "chip": "ym2612"
    },
    {
      "channel": 2,
      "note": 76,
      "start": 25.046,
      "duration": 0.0509,
      "velocity": 99,
      "chip": "ym2612"
    },
    {
      "channel": 5,
      "note": 78,
      "start": 25.0636,
      "duration": 0.0535,
      "velocity": 99,
      "chip": "ym2612"
    },
    {
      "channel": 0,
      "note": 67,
      "start": 25.0804,
      "duration": 0.0695,
      "velocity": 104,
      "chip": "ym2612"
    },
    {
      "channel": 2,
      "note": 79,
      "start": 25.1161,
      "duration": 0.0518,
      "velocity": 99,
      "chip": "ym2612"
    },
    {
      "channel": 4,
      "note": 69,
      "start": 25.1347,
      "duration": 0.0695,
      "velocity": 104,
      "chip": "ym2612"
    },
    {
      "channel": 5,
      "note": 79,
      "start": 25.1363,
      "duration": 0.0564,
      "velocity": 99,
      "chip": "ym2612"
    },
    {
      "channel": 0,
      "note": 69,
      "start": 25.187,
      "duration": 0.0695,
      "velocity": 104,
      "chip": "ym2612"
    },
    {
      "channel": 1,
      "note": 52,
      "start": 25.1886,
      "duration": 0.0681,
      "velocity": 103,
      "chip": "ym2612"
    },
    {
      "channel": 2,
      "note": 78,
      "start": 25.1903,
      "duration": 0.0493,
      "velocity": 99,
      "chip": "ym2612"
    },
    {
      "channel": 3,
      "note": 61,
      "start": 25.1924,
      "duration": 0.0663,
      "velocity": 127,
      "chip": "ym2612"
    },
    {
      "channel": 5,
      "note": 76,
      "start": 25.2059,
      "duration": 0.0531,
      "velocity": 99,
      "chip": "ym2612"
    },
    {
      "channel": 4,
      "note": 67,
      "start": 25.2414,
      "duration": 0.0695,
      "velocity": 104,
      "chip": "ym2612"
    },
    {
      "channel": 2,
      "note": 79,
      "start": 25.2584,
      "duration": 0.0517,
      "velocity": 99,
      "chip": "ym2612"
    },
    {
      "channel": 5,
      "note": 79,
      "start": 25.2767,
      "duration": 0.0531,
      "velocity": 99,
      "chip": "ym2612"
    },
    {
      "channel": 0,
      "note": 67,
      "start": 25.2935,
      "duration": 0.0695,
      "velocity": 104,
      "chip": "ym2612"
    },
    {
      "channel": 1,
      "note": 60,
      "start": 25.2951,
      "duration": 0.2812,
      "velocity": 103,
      "chip": "ym2612"
    },
    {
      "channel": 3,
      "note": 61,
      "start": 25.3006,
      "duration": 0.063,
      "velocity": 127,
      "chip": "ym2612"
    },
    {
      "channel": 2,
      "note": 76,
      "start": 25.3293,
      "duration": 0.0517,
      "velocity": 99,
      "chip": "ym2612"
    },
    {
      "channel": 4,
      "note": 69,
      "start": 25.3472,
      "duration": 0.07,
      "velocity": 104,
      "chip": "ym2612"
    },
    {
      "channel": 5,
      "note": 78,
      "start": 25.3489,
      "duration": 0.0539,
      "velocity": 99,
      "chip": "ym2612"
    },
    {
      "channel": 0,
      "note": 66,
      "start": 25.4,
      "duration": 0.0695,
      "velocity": 104,
      "chip": "ym2612"
    },
    {
      "channel": 2,
      "note": 79,
      "start": 25.4018,
      "duration": 0.0502,
      "velocity": 99,
      "chip": "ym2612"
    },
    {
      "channel": 5,
      "note": 79,
      "start": 25.4189,
      "duration": 0.0533,
      "velocity": 99,
      "chip": "ym2612"
    },
    {
      "channel": 4,
      "note": 67,
      "start": 25.4543,
      "duration": 0.0695,
      "velocity": 104,
      "chip": "ym2612"
    },
    {
      "channel": 2,
      "note": 78,
      "start": 25.4713,
      "duration": 0.0517,
      "velocity": 99,
      "chip": "ym2612"
    },
    {
      "channel": 5,
      "note": 76,
      "start": 25.49,
      "duration": 0.0532,
      "velocity": 99,
      "chip": "ym2612"
    },
    {
      "channel": 0,
      "note": 64,
      "start": 25.5066,
      "duration": 0.0695,
      "velocity": 104,
      "chip": "ym2612"
    },
    {
      "channel": 2,
      "note": 79,
      "start": 25.5423,
      "duration": 0.0518,
      "velocity": 99,
      "chip": "ym2612"
    },
    {
      "channel": 4,
      "note": 66,
      "start": 25.5608,
      "duration": 0.0695,
      "velocity": 104,
      "chip": "ym2612"
    },
    {
      "channel": 5,
      "note": 79,
      "start": 25.5624,
      "duration": 0.062,
      "velocity": 99,
      "chip": "ym2612"
    },
    {
      "channel": 0,
      "note": 64,
      "start": 25.6134,
      "duration": 0.1048,
      "velocity": 104,
      "chip": "ym2612"
    },
    {
      "channel": 1,
      "note": 47,
      "start": 25.6154,
      "duration": 0.174,
      "velocity": 103,
      "chip": "ym2612"
    },
    {
      "channel": 2,
      "note": 76,
      "start": 25.6173,
      "duration": 0.0478,
      "velocity": 99,
      "chip": "ym2612"
    },
    {
      "channel": 3,
      "note": 61,
      "start": 25.624,
      "duration": 0.0607,
      "velocity": 127,
      "chip": "ym2612"
    },
    {
      "channel": 5,
      "note": 78,
      "start": 25.632,
      "duration": 0.0531,
      "velocity": 99,
      "chip": "ym2612"
    },
    {
      "channel": 4,
      "note": 64,
      "start": 25.6669,
      "duration": 0.07,
      "velocity": 104,
      "chip": "ym2612"
    },
    {
      "channel": 2,
      "note": 79,
      "start": 25.6844,
      "duration": 0.0518,
      "velocity": 99,
      "chip": "ym2612"
    },
    {
      "channel": 5,
      "note": 79,
      "start": 25.7029,
      "duration": 0.0549,
      "velocity": 99,
      "chip": "ym2612"
    },
    {
      "channel": 0,
      "note": 63,
      "start": 25.7552,
      "duration": 0.105,
      "velocity": 104,
      "chip": "ym2612"
    },
    {
      "channel": 2,
      "note": 78,
      "start": 25.757,
      "duration": 0.0502,
      "velocity": 99,
      "chip": "ym2612"
    },
    {
      "channel": 4,
      "note": 64,
      "start": 25.7741,
      "duration": 0.1045,
      "velocity": 104,
      "chip": "ym2612"
    },
    {
      "channel": 5,
      "note": 76,
      "start": 25.776,
      "duration": 0.0544,
      "velocity": 99,
      "chip": "ym2612"
    },
    {
      "channel": 1,
      "note": 47,
      "start": 25.8262,
      "duration": 0.0712,
      "velocity": 103,
      "chip": "ym2612"
    },
    {
      "channel": 2,
      "note": 79,
      "start": 25.8279,
      "duration": 0.0503,
      "velocity": 99,
      "chip": "ym2612"
    },
    {
      "channel": 3,
      "note": 61,
      "start": 25.83,
      "duration": 0.0696,
      "velocity": 127,
      "chip": "ym2612"
    },
    {
      "channel": 5,
      "note": 79,
      "start": 25.8449,
      "duration": 0.055,
      "velocity": 99,
      "chip": "ym2612"
    },
    {
      "channel": 0,
      "note": 64,
      "start": 25.8972,
      "duration": 0.105,
      "velocity": 104,
      "chip": "ym2612"
    },
    {
      "channel": 2,
      "note": 76,
      "start": 25.8993,
      "duration": 0.05,
      "velocity": 99,
      "chip": "ym2612"
    },
    {
      "channel": 4,
      "note": 63,
      "start": 25.9159,
      "duration": 0.1051,
      "velocity": 104,
      "chip": "ym2612"
    },
    {
      "channel": 5,
      "note": 78,
      "start": 25.9176,
      "duration": 0.0513,
      "velocity": 99,
      "chip": "ym2612"
    },
    {
      "channel": 1,
      "note": 54,
      "start": 25.9328,
      "duration": 0.0697,
      "velocity": 103,
      "chip": "ym2612"
    },
    {
      "channel": 3,
      "note": 61,
      "start": 25.9384,
      "duration": 0.0645,
      "velocity": 127,
      "chip": "ym2612"
    },
    {
      "channel": 2,
      "note": 79,
      "start": 25.9685,
      "duration": 0.0518,
      "velocity": 99,
      "chip": "ym2612"
    },
    {
      "channel": 5,
      "note": 79,
      "start": 25.9865,
      "duration": 0.0569,
      "velocity": 99,
      "chip": "ym2612"
    },
    {
      "channel": 0,
      "note": 66,
      "start": 26.0393,
      "duration": 0.105,
      "velocity": 104,
      "chip": "ym2612"
    },
    {
      "channel": 1,
      "note": 47,
      "start": 26.0409,
      "duration": 0.0681,
      "velocity": 103,
      "chip": "ym2612"
    },
    {
      "channel": 2,
      "note": 78,
      "start": 26.0425,
      "duration": 0.0487,
      "velocity": 99,
      "chip": "ym2612"
    },
    {
      "channel": 4,
      "note": 64,
      "start": 26.0579,
      "duration": 0.1051,
      "velocity": 104,
      "chip": "ym2612"
    },
    {
      "channel": 5,
      "note": 76,
      "start": 26.0598,
      "duration": 0.0517,
      "velocity": 99,
      "chip": "ym2612"
    },
    {
      "channel": 2,
      "note": 79,
      "start": 26.1105,
      "duration": 0.0518,
      "velocity": 99,
      "chip": "ym2612"
    },
    {
      "channel": 5,
      "note": 79,
      "start": 26.129,
      "duration": 0.0553,
      "velocity": 99,
      "chip": "ym2612"
    },
    {
      "channel": 1,
      "note": 47,
      "start": 26.146,
      "duration": 0.0695,
      "velocity": 103,
      "chip": "ym2612"
    },
    {
      "channel": 0,
      "note": 64,
      "start": 26.1813,
      "duration": 0.105,
      "velocity": 104,
      "chip": "ym2612"
    },
    {
      "channel": 2,
      "note": 76,
      "start": 26.1834,
      "duration": 0.0499,
      "velocity": 99,
      "chip": "ym2612"
    },
    {
      "channel": 4,
      "note": 66,
      "start": 26.2001,
      "duration": 0.1046,
      "velocity": 104,
      "chip": "ym2612"
    },
    {
      "channel": 5,
      "note": 78,
      "start": 26.2018,
      "duration": 0.0593,
      "velocity": 99,
      "chip": "ym2612"
    },
    {
      "channel": 1,
      "note": 47,
      "start": 26.2524,
      "duration": 0.1762,
      "velocity": 103,
      "chip": "ym2612"
    },
    {
      "channel": 2,
      "note": 79,
      "start": 26.2541,
      "duration": 0.0502,
      "velocity": 99,
      "chip": "ym2612"
    },
    {
      "channel": 3,
      "note": 61,
      "start": 26.2608,
      "duration": 0.0646,
      "velocity": 127,
      "chip": "ym2612"
    },
    {
      "channel": 5,
      "note": 79,
      "start": 26.2715,
      "duration": 0.0543,
      "velocity": 99,
      "chip": "ym2612"
    },
    {
      "channel": 0,
      "note": 63,
      "start": 26.3234,
      "duration": 0.105,
      "velocity": 104,
      "chip": "ym2612"
    },
    {
      "channel": 2,
      "note": 78,
      "start": 26.3251,
      "duration": 0.0503,
      "velocity": 99,
      "chip": "ym2612"
    },
    {
      "channel": 4,
      "note": 64,
      "start": 26.3421,
      "duration": 0.1051,
      "velocity": 104,
      "chip": "ym2612"
    },
    {
      "channel": 5,
      "note": 76,
      "start": 26.3439,
      "duration": 0.0516,
      "velocity": 99,
      "chip": "ym2612"
    },
    {
      "channel": 2,
      "note": 79,
      "start": 26.3946,
      "duration": 0.0518,
      "velocity": 99,
      "chip": "ym2612"
    },
    {
      "channel": 5,
      "note": 79,
      "start": 26.4131,
      "duration": 0.0591,
      "velocity": 99,
      "chip": "ym2612"
    },
    {
      "channel": 0,
      "note": 64,
      "start": 26.4661,
      "duration": 0.1044,
      "velocity": 104,
      "chip": "ym2612"
    },
    {
      "channel": 1,
      "note": 47,
      "start": 26.4679,
      "duration": 0.0672,
      "velocity": 103,
      "chip": "ym2612"
    },
    {
      "channel": 2,
      "note": 76,
      "start": 26.4698,
      "duration": 0.0476,
      "velocity": 99,
      "chip": "ym2612"
    },
    {
      "channel": 3,
      "note": 61,
      "start": 26.4718,
      "duration": 0.0651,
      "velocity": 127,
      "chip": "ym2612"
    },
    {
      "channel": 4,
      "note": 63,
      "start": 26.4841,
      "duration": 0.1051,
      "velocity": 104,
      "chip": "ym2612"
    },
    {
      "channel": 5,
      "note": 78,
      "start": 26.4858,
      "duration": 0.0515,
      "velocity": 99,
      "chip": "ym2612"
    },
    {
      "channel": 2,
      "note": 79,
      "start": 26.5367,
      "duration": 0.0518,
      "velocity": 99,
      "chip": "ym2612"
    },
    {
      "channel": 5,
      "note": 79,
      "start": 26.5552,
      "duration": 0.0545,
      "velocity": 99,
      "chip": "ym2612"
    },
    {
      "channel": 1,
      "note": 55,
      "start": 26.5721,
      "duration": 0.0695,
      "velocity": 103,
      "chip": "ym2612"
    },
    {
      "channel": 3,
      "note": 61,
      "start": 26.5776,
      "duration": 0.0644,
      "velocity": 127,
      "chip": "ym2612"
    },
    {
      "channel": 0,
      "note": 63,
      "start": 26.6075,
      "duration": 0.105,
      "velocity": 104,
      "chip": "ym2612"
    },
    {
      "channel": 2,
      "note": 78,
      "start": 26.6092,
      "duration": 0.0502,
      "velocity": 99,
      "chip": "ym2612"
    },
    {
      "channel": 4,
      "note": 64,
      "start": 26.6257,
      "duration": 0.1056,
      "velocity": 104,
      "chip": "ym2612"
    },
    {
      "channel": 5,
      "note": 76,
      "start": 26.6275,
      "duration": 0.0536,
      "velocity": 99,
      "chip": "ym2612"
    },
    {
      "channel": 1,
      "note": 47,
      "start": 26.6785,
      "duration": 0.0713,
      "velocity": 103,
      "chip": "ym2612"
    },
    {
      "channel": 2,
      "note": 79,
      "start": 26.6802,
      "duration": 0.0503,
      "velocity": 99,
      "chip": "ym2612"
    },
    {
      "channel": 5,
      "note": 79,
      "start": 26.6972,
      "duration": 0.0553,
      "velocity": 99,
      "chip": "ym2612"
    },
    {
      "channel": 0,
      "note": 64,
      "start": 26.7495,
      "duration": 0.1051,
      "velocity": 104,
      "chip": "ym2612"
    },
    {
      "channel": 2,
      "note": 76,
      "start": 26.7517,
      "duration": 0.0499,
      "velocity": 99,
      "chip": "ym2612"
    },
    {
      "channel": 4,
      "note": 63,
      "start": 26.7682,
      "duration": 0.1052,
      "velocity": 104,
      "chip": "ym2612"
    },
    {
      "channel": 5,
      "note": 78,
      "start": 26.7699,
      "duration": 0.0518,
      "velocity": 99,
      "chip": "ym2612"
    },
    {
      "channel": 1,
      "note": 47,
      "start": 26.7851,
      "duration": 0.0696,
      "velocity": 103,
      "chip": "ym2612"
    },
    {
      "channel": 2,
      "note": 79,
      "start": 26.8207,
      "duration": 0.0518,
      "velocity": 99,
      "chip": "ym2612"
    },
    {
      "channel": 5,
      "note": 79,
      "start": 26.8393,
      "duration": 0.0631,
      "velocity": 99,
      "chip": "ym2612"
    },
    {
      "channel": 0,
      "note": 66,
      "start": 26.8918,
      "duration": 1.2414,
      "velocity": 104,
      "chip": "ym2612"
    },
    {
      "channel": 1,
      "note": 47,
      "start": 26.8935,
      "duration": 0.1743,
      "velocity": 103,
      "chip": "ym2612"
    },
    {
      "channel": 2,
      "note": 78,
      "start": 26.8952,
      "duration": 0.0484,
      "velocity": 99,
      "chip": "ym2612"
    },
    {
      "channel": 3,
      "note": 61,
      "start": 26.9019,
      "duration": 0.0612,
      "velocity": 127,
      "chip": "ym2612"
    },
    {
      "channel": 4,
      "note": 64,
      "start": 26.9103,
      "duration": 0.1051,
      "velocity": 104,
      "chip": "ym2612"
    },
    {
      "channel": 5,
      "note": 76,
      "start": 26.9122,
      "duration": 0.0513,
      "velocity": 99,
      "chip": "ym2612"
    },
    {
      "channel": 2,
      "note": 79,
      "start": 26.9628,
      "duration": 0.0518,
      "velocity": 99,
      "chip": "ym2612"
    },
    {
      "channel": 5,
      "note": 79,
      "start": 26.9813,
      "duration": 0.0536,
      "velocity": 99,
      "chip": "ym2612"
    },
    {
      "channel": 2,
      "note": 76,
      "start": 27.034,
      "duration": 0.0517,
      "velocity": 99,
      "chip": "ym2612"
    },
    {
      "channel": 4,
      "note": 66,
      "start": 27.0525,
      "duration": 1.259,
      "velocity": 104,
      "chip": "ym2612"
    },
    {
      "channel": 5,
      "note": 78,
      "start": 27.0541,
      "duration": 0.055,
      "velocity": 99,
      "chip": "ym2612"
    },
    {
      "channel": 1,
      "note": 47,
      "start": 27.105,
      "duration": 0.0693,
      "velocity": 103,
      "chip": "ym2612"
    },
    {
      "channel": 2,
      "note": 79,
      "start": 27.1066,
      "duration": 0.05,
      "velocity": 99,
      "chip": "ym2612"
    },
    {
      "channel": 3,
      "note": 61,
      "start": 27.1088,
      "duration": 0.0675,
      "velocity": 127,
      "chip": "ym2612"
    },
    {
      "channel": 5,
      "note": 79,
      "start": 27.1234,
      "duration": 0.0532,
      "velocity": 99,
      "chip": "ym2612"
    },
    {
      "channel": 2,
      "note": 78,
      "start": 27.176,
      "duration": 0.0517,
      "velocity": 99,
      "chip": "ym2612"
    },
    {
      "channel": 5,
      "note": 76,
      "start": 27.1946,
      "duration": 0.0527,
      "velocity": 99,
      "chip": "ym2612"
    },
    {
      "channel": 1,
      "note": 54,
      "start": 27.2112,
      "duration": 0.0697,
      "velocity": 103,
      "chip": "ym2612"
    },
    {
      "channel": 3,
      "note": 61,
      "start": 27.2167,
      "duration": 0.0646,
      "velocity": 127,
      "chip": "ym2612"
    },
    {
      "channel": 2,
      "note": 79,
      "start": 27.2469,
      "duration": 0.0523,
      "velocity": 99,
      "chip": "ym2612"
    },
    {
      "channel": 5,
      "note": 79,
      "start": 27.265,
      "duration": 0.0555,
      "velocity": 99,
      "chip": "ym2612"
    },
    {
      "channel": 1,
      "note": 47,
      "start": 27.3178,
      "duration": 0.0696,
      "velocity": 103,
      "chip": "ym2612"
    },
    {
      "channel": 2,
      "note": 76,
      "start": 27.3197,
      "duration": 0.0501,
      "velocity": 99,
      "chip": "ym2612"
    },
    {
      "channel": 5,
      "note": 78,
      "start": 27.3366,
      "duration": 0.0534,
      "velocity": 99,
      "chip": "ym2612"
    },
    {
      "channel": 2,
      "note": 79,
      "start": 27.3891,
      "duration": 0.0517,
      "velocity": 99,
      "chip": "ym2612"
    },
    {
      "channel": 5,
      "note": 79,
      "start": 27.4075,
      "duration": 0.0533,
      "velocity": 99,
      "chip": "ym2612"
    },
    {
      "channel": 1,
      "note": 47,
      "start": 27.4244,
      "duration": 0.0702,
      "velocity": 103,
      "chip": "ym2612"
    },
    {
      "channel": 2,
      "note": 78,
      "start": 27.46,
      "duration": 0.0518,
      "velocity": 99,
      "chip": "ym2612"
    },
    {
      "channel": 5,
      "note": 76,
      "start": 27.4787,
      "duration": 0.061,
      "velocity": 99,
      "chip": "ym2612"
    },
    {
      "channel": 1,
      "note": 47,
      "start": 27.5309,
      "duration": 0.1761,
      "velocity": 103,
      "chip": "ym2612"
    },
    {
      "channel": 2,
      "note": 79,
      "start": 27.5325,
      "duration": 0.0502,
      "velocity": 99,
      "chip": "ym2612"
    },
    {
      "channel": 3,
      "note": 61,
      "start": 27.5393,
      "duration": 0.0632,
      "velocity": 127,
      "chip": "ym2612"
    },
    {
      "channel": 5,
      "note": 79,
      "start": 27.5496,
      "duration": 0.0532,
      "velocity": 99,
      "chip": "ym2612"
    },
    {
      "channel": 2,
      "note": 76,
      "start": 27.6022,
      "duration": 0.0517,
      "velocity": 99,
      "chip": "ym2612"
    },
    {
      "channel": 5,
      "note": 78,
      "start": 27.6206,
      "duration": 0.0534,
      "velocity": 99,
      "chip": "ym2612"
    },
    {
      "channel": 2,
      "note": 79,
      "start": 27.6731,
      "duration": 0.0518,
      "velocity": 99,
      "chip": "ym2612"
    },
    {
      "channel": 5,
      "note": 79,
      "start": 27.6924,
      "duration": 0.0557,
      "velocity": 99,
      "chip": "ym2612"
    },
    {
      "channel": 1,
      "note": 47,
      "start": 27.7439,
      "duration": 0.0696,
      "velocity": 103,
      "chip": "ym2612"
    },
    {
      "channel": 2,
      "note": 78,
      "start": 27.7456,
      "duration": 0.0503,
      "velocity": 99,
      "chip": "ym2612"
    },
    {
      "channel": 3,
      "note": 61,
      "start": 27.7477,
      "duration": 0.0678,
      "velocity": 127,
      "chip": "ym2612"
    },
    {
      "channel": 5,
      "note": 76,
      "start": 27.7628,
      "duration": 0.0531,
      "velocity": 99,
      "chip": "ym2612"
    },
    {
      "channel": 2,
      "note": 79,
      "start": 27.8152,
      "duration": 0.0517,
      "velocity": 99,
      "chip": "ym2612"
    },
    {
      "channel": 5,
      "note": 79,
      "start": 27.8337,
      "duration": 0.0531,
      "velocity": 99,
      "chip": "ym2612"
    },
    {
      "channel": 1,
      "note": 55,
      "start": 27.8505,
      "duration": 0.2829,
      "velocity": 103,
      "chip": "ym2612"
    },
    {
      "channel": 3,
      "note": 61,
      "start": 27.856,
      "duration": 0.0644,
      "velocity": 127,
      "chip": "ym2612"
    },
    {
      "channel": 2,
      "note": 76,
      "start": 27.8863,
      "duration": 0.0517,
      "velocity": 99,
      "chip": "ym2612"
    },
    {
      "channel": 5,
      "note": 78,
      "start": 27.9042,
      "duration": 0.0538,
      "velocity": 99,
      "chip": "ym2612"
    },
    {
      "channel": 2,
      "note": 79,
      "start": 27.9571,
      "duration": 0.0518,
      "velocity": 99,
      "chip": "ym2612"
    },
    {
      "channel": 5,
      "note": 79,
      "start": 27.9757,
      "duration": 0.0533,
      "velocity": 99,
      "chip": "ym2612"
    },
    {
      "channel": 2,
      "note": 78,
      "start": 28.0281,
      "duration": 0.0518,
      "velocity": 99,
      "chip": "ym2612"
    },
    {
      "channel": 5,
      "note": 76,
      "start": 28.0469,
      "duration": 0.0532,
      "velocity": 99,
      "chip": "ym2612"
    },
    {
      "channel": 2,
      "note": 79,
      "start": 28.0992,
      "duration": 0.0518,
      "velocity": 99,
      "chip": "ym2612"
    },
    {
      "channel": 5,
      "note": 79,
      "start": 28.1178,
      "duration": 0.0672,
      "velocity": 99,
      "chip": "ym2612"
    },
    {
      "channel": 0,
      "note": 72,
      "start": 28.1705,
      "duration": 0.0869,
      "velocity": 104,
      "chip": "ym2612"
    },
    {
      "channel": 1,
      "note": 47,
      "start": 28.1724,
      "duration": 0.1915,
      "velocity": 103,
      "chip": "ym2612"
    },
    {
      "channel": 2,
      "note": 69,
      "start": 28.1778,
      "duration": 0.0798,
      "velocity": 104,
      "chip": "ym2612"
    },
    {
      "channel": 3,
      "note": 61,
      "start": 28.1846,
      "duration": 0.0734,
      "velocity": 127,
      "chip": "ym2612"
    },
    {
      "channel": 5,
      "note": 78,
      "start": 28.2066,
      "duration": 0.0517,
      "velocity": 99,
      "chip": "ym2612"
    },
    {
      "channel": 5,
      "note": 79,
      "start": 28.2776,
      "duration": 0.0523,
      "velocity": 99,
      "chip": "ym2612"
    },
    {
      "channel": 4,
      "note": 72,
      "start": 28.3488,
      "duration": 0.0693,
      "velocity": 104,
      "chip": "ym2612"
    },
    {
      "channel": 5,
      "note": 69,
      "start": 28.3544,
      "duration": 0.0639,
      "velocity": 104,
      "chip": "ym2612"
    },
    {
      "channel": 0,
      "note": 71,
      "start": 28.401,
      "duration": 0.0695,
      "velocity": 104,
      "chip": "ym2612"
    },
    {
      "channel": 1,
      "note": 47,
      "start": 28.4027,
      "duration": 0.0679,
      "velocity": 103,
      "chip": "ym2612"
    },
    {
      "channel": 2,
      "note": 67,
      "start": 28.4044,
      "duration": 0.0665,
      "velocity": 104,
      "chip": "ym2612"
    },
    {
      "channel": 3,
      "note": 61,
      "start": 28.4064,
      "duration": 0.0647,
      "velocity": 127,
      "chip": "ym2612"
    },
    {
      "channel": 1,
      "note": 54,
      "start": 28.5075,
      "duration": 0.0696,
      "velocity": 103,
      "chip": "ym2612"
    },
    {
      "channel": 3,
      "note": 61,
      "start": 28.5129,
      "duration": 0.0645,
      "velocity": 127,
      "chip": "ym2612"
    },
    {
      "channel": 4,
      "note": 71,
      "start": 28.5612,
      "duration": 0.07,
      "velocity": 104,
      "chip": "ym2612"
    },
    {
      "channel": 5,
      "note": 67,
      "start": 28.5629,
      "duration": 0.0684,
      "velocity": 104,
      "chip": "ym2612"
    },
    {
      "channel": 0,
      "note": 72,
      "start": 28.614,
      "duration": 0.0695,
      "velocity": 104,
      "chip": "ym2612"
    },
    {
      "channel": 1,
      "note": 47,
      "start": 28.6157,
      "duration": 0.068,
      "velocity": 103,
      "chip": "ym2612"
    },
    {
      "channel": 2,
      "note": 69,
      "start": 28.6175,
      "duration": 0.0665,
      "velocity": 104,
      "chip": "ym2612"
    },
    {
      "channel": 1,
      "note": 47,
      "start": 28.7219,
      "duration": 0.0683,
      "velocity": 103,
      "chip": "ym2612"
    },
    {
      "channel": 4,
      "note": 72,
      "start": 28.7746,
      "duration": 0.0696,
      "velocity": 104,
      "chip": "ym2612"
    },
    {
      "channel": 5,
      "note": 69,
      "start": 28.7763,
      "duration": 0.0681,
      "velocity": 104,
      "chip": "ym2612"
    },
    {
      "channel": 0,
      "note": 71,
      "start": 28.8271,
      "duration": 0.0695,
      "velocity": 104,
      "chip": "ym2612"
    },
    {
      "channel": 1,
      "note": 47,
      "start": 28.8288,
      "duration": 0.1744,
      "velocity": 103,
      "chip": "ym2612"
    },
    {
      "channel": 2,
      "note": 67,
      "start": 28.8305,
      "duration": 0.0664,
      "velocity": 104,
      "chip": "ym2612"
    },
    {
      "channel": 3,
      "note": 61,
      "start": 28.8372,
      "duration": 0.0601,
      "velocity": 127,
      "chip": "ym2612"
    },
    {
      "channel": 4,
      "note": 71,
      "start": 28.9878,
      "duration": 0.0696,
      "velocity": 104,
      "chip": "ym2612"
    },
    {
      "channel": 5,
      "note": 67,
      "start": 28.9895,
      "duration": 0.0681,
      "velocity": 104,
      "chip": "ym2612"
    },
    {
      "channel": 0,
      "note": 72,
      "start": 29.0402,
      "duration": 0.0695,
      "velocity": 104,
      "chip": "ym2612"
    },
    {
      "channel": 1,
      "note": 47,
      "start": 29.0418,
      "duration": 0.068,
      "velocity": 103,
      "chip": "ym2612"
    },
    {
      "channel": 2,
      "note": 69,
      "start": 29.0435,
      "duration": 0.0665,
      "velocity": 104,
      "chip": "ym2612"
    },
    {
      "channel": 3,
      "note": 61,
      "start": 29.0456,
      "duration": 0.0647,
      "velocity": 127,
      "chip": "ym2612"
    },
    {
      "channel": 1,
      "note": 55,
      "start": 29.1466,
      "duration": 0.0696,
      "velocity": 103,
      "chip": "ym2612"
    },
    {
      "channel": 3,
      "note": 61,
      "start": 29.1522,
      "duration": 0.0645,
      "velocity": 127,
      "chip": "ym2612"
    },
    {
      "channel": 4,
      "note": 72,
      "start": 29.2004,
      "duration": 0.07,
      "velocity": 104,
      "chip": "ym2612"
    },
    {
      "channel": 5,
      "note": 69,
      "start": 29.2021,
      "duration": 0.0684,
      "velocity": 104,
      "chip": "ym2612"
    },
    {
      "channel": 0,
      "note": 71,
      "start": 29.2533,
      "duration": 0.0695,
      "velocity": 104,
      "chip": "ym2612"
    },
    {
      "channel": 1,
      "note": 47,
      "start": 29.2549,
      "duration": 0.068,
      "velocity": 103,
      "chip": "ym2612"
    },
    {
      "channel": 2,
      "note": 67,
      "start": 29.2566,
      "duration": 0.0665,
      "velocity": 104,
      "chip": "ym2612"
    },
    {
      "channel": 1,
      "note": 47,
      "start": 29.3606,
      "duration": 0.0688,
      "velocity": 103,
      "chip": "ym2612"
    },
    {
      "channel": 4,
      "note": 71,
      "start": 29.4139,
      "duration": 0.0696,
      "velocity": 104,
      "chip": "ym2612"
    },
    {
      "channel": 5,
      "note": 67,
      "start": 29.4156,
      "duration": 0.0681,
      "velocity": 104,
      "chip": "ym2612"
    },
    {
      "channel": 0,
      "note": 78,
      "start": 29.4664,
      "duration": 1.2413,
      "velocity": 104,
      "chip": "ym2612"
    },
    {
      "channel": 1,
      "note": 47,
      "start": 29.4682,
      "duration": 0.1743,
      "velocity": 103,
      "chip": "ym2612"
    },
    {
      "channel": 2,
      "note": 75,
      "start": 29.4699,
      "duration": 1.2382,
      "velocity": 104,
      "chip": "ym2612"
    },
    {
      "channel": 3,
      "note": 61,
      "start": 29.4766,
      "duration": 0.0597,
      "velocity": 127,
      "chip": "ym2612"
    },
    {
      "channel": 4,
      "note": 78,
      "start": 29.627,
      "duration": 1.2594,
      "velocity": 104,
      "chip": "ym2612"
    },
    {
      "channel": 5,
      "note": 75,
      "start": 29.6288,
      "duration": 1.2578,
      "velocity": 104,
      "chip": "ym2612"
    },
    {
      "channel": 1,
      "note": 47,
      "start": 29.6794,
      "duration": 0.0704,
      "velocity": 103,
      "chip": "ym2612"
    },
    {
      "channel": 3,
      "note": 61,
      "start": 29.6816,
      "duration": 0.0685,
      "velocity": 127,
      "chip": "ym2612"
    },
    {
      "channel": 1,
      "note": 54,
      "start": 29.786,
      "duration": 0.0695,
      "velocity": 103,
      "chip": "ym2612"
    },
    {
      "channel": 3,
      "note": 61,
      "start": 29.7914,
      "duration": 0.0645,
      "velocity": 127,
      "chip": "ym2612"
    },
    {
      "channel": 1,
      "note": 47,
      "start": 29.8924,
      "duration": 0.0697,
      "velocity": 103,
      "chip": "ym2612"
    },
    {
      "channel": 1,
      "note": 47,
      "start": 29.9993,
      "duration": 0.0692,
      "velocity": 103,
      "chip": "ym2612"
    },
    {
      "channel": 1,
      "note": 47,
      "start": 30.1056,
      "duration": 0.1761,
      "velocity": 103,
      "chip": "ym2612"
    },
    {
      "channel": 3,
      "note": 61,
      "start": 30.1124,
      "duration": 0.063,
      "velocity": 127,
      "chip": "ym2612"
    },
    {
      "channel": 1,
      "note": 47,
      "start": 30.3187,
      "duration": 0.0699,
      "velocity": 103,
      "chip": "ym2612"
    },
    {
      "channel": 3,
      "note": 61,
      "start": 30.3209,
      "duration": 0.0681,
      "velocity": 127,
      "chip": "ym2612"
    },
    {
      "channel": 1,
      "note": 55,
      "start": 30.4251,
      "duration": 0.2828,
      "velocity": 103,
      "chip": "ym2612"
    },
    {
      "channel": 3,
      "note": 61,
      "start": 30.4306,
      "duration": 0.0644,
      "velocity": 127,
      "chip": "ym2612"
    },
    {
      "channel": 0,
      "note": 52,
      "start": 30.7483,
      "duration": 0.066,
      "velocity": 95,
      "chip": "ym2612"
    },
    {
      "channel": 1,
      "note": 52,
      "start": 30.7513,
      "duration": 0.1873,
      "velocity": 103,
      "chip": "ym2612"
    },
    {
      "channel": 2,
      "note": 52,
      "start": 30.7564,
      "duration": 0.0582,
      "velocity": 98,
      "chip": "ym2612"
    },
    {
      "channel": 3,
      "note": 61,
      "start": 30.7631,
      "duration": 0.0725,
      "velocity": 127,
      "chip": "ym2612"
    },
    {
      "channel": 0,
      "note": 54,
      "start": 30.8335,
      "duration": 0.0517,
      "velocity": 95,
      "chip": "ym2612"
    },
    {
      "channel": 2,
      "note": 54,
      "start": 30.8353,
      "duration": 0.0502,
      "velocity": 98,
      "chip": "ym2612"
    },
    {
      "channel": 0,
      "note": 55,
      "start": 30.9045,
      "duration": 0.0518,
      "velocity": 95,
      "chip": "ym2612"
    },
    {
      "channel": 2,
      "note": 55,
      "start": 30.9063,
      "duration": 0.0503,
      "velocity": 98,
      "chip": "ym2612"
    },
    {
      "channel": 4,
      "note": 52,
      "start": 30.9267,
      "duration": 0.0556,
      "velocity": 95,
      "chip": "ym2612"
    },
    {
      "channel": 5,
      "note": 52,
      "start": 30.9318,
      "duration": 0.0508,
      "velocity": 98,
      "chip": "ym2612"
    },
    {
      "channel": 0,
      "note": 52,
      "start": 30.9765,
      "duration": 0.0508,
      "velocity": 95,
      "chip": "ym2612"
    },
    {
      "channel": 1,
      "note": 52,
      "start": 30.9782,
      "duration": 0.0686,
      "velocity": 103,
      "chip": "ym2612"
    },
    {
      "channel": 2,
      "note": 52,
      "start": 30.9799,
      "duration": 0.0478,
      "velocity": 98,
      "chip": "ym2612"
    },
    {
      "channel": 3,
      "note": 61,
      "start": 30.982,
      "duration": 0.0669,
      "velocity": 127,
      "chip": "ym2612"
    },
    {
      "channel": 4,
      "note": 54,
      "start": 30.9942,
      "duration": 0.0549,
      "velocity": 95,
      "chip": "ym2612"
    },
    {
      "channel": 5,
      "note": 54,
      "start": 30.9959,
      "duration": 0.0534,
      "velocity": 98,
      "chip": "ym2612"
    },
    {
      "channel": 0,
      "note": 54,
      "start": 31.0466,
      "duration": 0.0517,
      "velocity": 95,
      "chip": "ym2612"
    },
    {
      "channel": 2,
      "note": 54,
      "start": 31.0485,
      "duration": 0.0502,
      "velocity": 98,
      "chip": "ym2612"
    },
    {
      "channel": 4,
      "note": 55,
      "start": 31.0652,
      "duration": 0.0546,
      "velocity": 95,
      "chip": "ym2612"
    },
    {
      "channel": 5,
      "note": 55,
      "start": 31.067,
      "duration": 0.0531,
      "velocity": 98,
      "chip": "ym2612"
    },
    {
      "channel": 1,
      "note": 59,
      "start": 31.0821,
      "duration": 0.0697,
      "velocity": 103,
      "chip": "ym2612"
    },
    {
      "channel": 3,
      "note": 61,
      "start": 31.0878,
      "duration": 0.0644,
      "velocity": 127,
      "chip": "ym2612"
    },
    {
      "channel": 0,
      "note": 55,
      "start": 31.1177,
      "duration": 0.0517,
      "velocity": 95,
      "chip": "ym2612"
    },
    {
      "channel": 2,
      "note": 55,
      "start": 31.1195,
      "duration": 0.0502,
      "velocity": 98,
      "chip": "ym2612"
    },
    {
      "channel": 4,
      "note": 52,
      "start": 31.1358,
      "duration": 0.0569,
      "velocity": 95,
      "chip": "ym2612"
    },
    {
      "channel": 5,
      "note": 52,
      "start": 31.1375,
      "duration": 0.0555,
      "velocity": 98,
      "chip": "ym2612"
    },
    {
      "channel": 0,
      "note": 57,
      "start": 31.1887,
      "duration": 0.0517,
      "velocity": 95,
      "chip": "ym2612"
    },
    {
      "channel": 1,
      "note": 52,
      "start": 31.1903,
      "duration": 0.0697,
      "velocity": 103,
      "chip": "ym2612"
    },
    {
      "channel": 2,
      "note": 57,
      "start": 31.192,
      "duration": 0.0487,
      "velocity": 98,
      "chip": "ym2612"
    },
    {
      "channel": 4,
      "note": 54,
      "start": 31.2073,
      "duration": 0.0551,
      "velocity": 95,
      "chip": "ym2612"
    },
    {
      "channel": 5,
      "note": 54,
      "start": 31.2089,
      "duration": 0.0536,
      "velocity": 98,
      "chip": "ym2612"
    },
    {
      "channel": 0,
      "note": 54,
      "start": 31.2597,
      "duration": 0.0517,
      "velocity": 95,
      "chip": "ym2612"
    },
    {
      "channel": 2,
      "note": 54,
      "start": 31.2615,
      "duration": 0.0502,
      "velocity": 98,
      "chip": "ym2612"
    },
    {
      "channel": 4,
      "note": 55,
      "start": 31.2783,
      "duration": 0.055,
      "velocity": 95,
      "chip": "ym2612"
    },
    {
      "channel": 5,
      "note": 55,
      "start": 31.28,
      "duration": 0.0536,
      "velocity": 98,
      "chip": "ym2612"
    },
    {
      "channel": 1,
      "note": 52,
      "start": 31.2952,
      "duration": 0.0697,
      "velocity": 103,
      "chip": "ym2612"
    },
    {
      "channel": 0,
      "note": 55,
      "start": 31.3307,
      "duration": 0.0517,
      "velocity": 95,
      "chip": "ym2612"
    },
    {
      "channel": 2,
      "note": 55,
      "start": 31.3325,
      "duration": 0.0503,
      "velocity": 98,
      "chip": "ym2612"
    },
    {
      "channel": 4,
      "note": 57,
      "start": 31.3493,
      "duration": 0.0628,
      "velocity": 95,
      "chip": "ym2612"
    },
    {
      "channel": 5,
      "note": 57,
      "start": 31.3511,
      "duration": 0.0612,
      "velocity": 98,
      "chip": "ym2612"
    },
    {
      "channel": 0,
      "note": 57,
      "start": 31.4018,
      "duration": 0.0517,
      "velocity": 95,
      "chip": "ym2612"
    },
    {
      "channel": 1,
      "note": 52,
      "start": 31.4035,
      "duration": 0.1744,
      "velocity": 103,
      "chip": "ym2612"
    },
    {
      "channel": 2,
      "note": 57,
      "start": 31.4051,
      "duration": 0.0487,
      "velocity": 98,
      "chip": "ym2612"
    },
    {
      "channel": 3,
      "note": 61,
      "start": 31.4119,
      "duration": 0.063,
      "velocity": 127,
      "chip": "ym2612"
    },
    {
      "channel": 4,
      "note": 54,
      "start": 31.4207,
      "duration": 0.0544,
      "velocity": 95,
      "chip": "ym2612"
    },
    {
      "channel": 5,
      "note": 54,
      "start": 31.4224,
      "duration": 0.053,
      "velocity": 98,
      "chip": "ym2612"
    },
    {
      "channel": 0,
      "note": 59,
      "start": 31.4728,
      "duration": 0.0517,
      "velocity": 95,
      "chip": "ym2612"
    },
    {
      "channel": 2,
      "note": 59,
      "start": 31.4746,
      "duration": 0.0502,
      "velocity": 98,
      "chip": "ym2612"
    },
    {
      "channel": 4,
      "note": 55,
      "start": 31.4914,
      "duration": 0.055,
      "velocity": 95,
      "chip": "ym2612"
    },
    {
      "channel": 5,
      "note": 55,
      "start": 31.493,
      "duration": 0.0536,
      "velocity": 98,
      "chip": "ym2612"
    },
    {
      "channel": 0,
      "note": 55,
      "start": 31.5438,
      "duration": 0.0517,
      "velocity": 95,
      "chip": "ym2612"
    },
    {
      "channel": 2,
      "note": 55,
      "start": 31.5456,
      "duration": 0.0502,
      "velocity": 98,
      "chip": "ym2612"
    },
    {
      "channel": 4,
      "note": 57,
      "start": 31.5624,
      "duration": 0.0587,
      "velocity": 95,
      "chip": "ym2612"
    },
    {
      "channel": 5,
      "note": 57,
      "start": 31.5641,
      "duration": 0.0573,
      "velocity": 98,
      "chip": "ym2612"
    },
    {
      "channel": 0,
      "note": 57,
      "start": 31.6152,
      "duration": 0.0513,
      "velocity": 95,
      "chip": "ym2612"
    },
    {
      "channel": 1,
      "note": 52,
      "start": 31.617,
      "duration": 0.0692,
      "velocity": 103,
      "chip": "ym2612"
    },
    {
      "channel": 2,
      "note": 57,
      "start": 31.6187,
      "duration": 0.0481,
      "velocity": 98,
      "chip": "ym2612"
    },
    {
      "channel": 3,
      "note": 61,
      "start": 31.6208,
      "duration": 0.0673,
      "velocity": 127,
      "chip": "ym2612"
    },
    {
      "channel": 4,
      "note": 59,
      "start": 31.6335,
      "duration": 0.0548,
      "velocity": 95,
      "chip": "ym2612"
    },
    {
      "channel": 5,
      "note": 59,
      "start": 31.6353,
      "duration": 0.0533,
      "velocity": 98,
      "chip": "ym2612"
    },
    {
      "channel": 0,
      "note": 59,
      "start": 31.6859,
      "duration": 0.0517,
      "velocity": 95,
      "chip": "ym2612"
    },
    {
      "channel": 2,
      "note": 59,
      "start": 31.6878,
      "duration": 0.0501,
      "velocity": 98,
      "chip": "ym2612"
    },
    {
      "channel": 4,
      "note": 55,
      "start": 31.7045,
      "duration": 0.0545,
      "velocity": 95,
      "chip": "ym2612"
    },
    {
      "channel": 5,
      "note": 55,
      "start": 31.7061,
      "duration": 0.0531,
      "velocity": 98,
      "chip": "ym2612"
    },
    {
      "channel": 1,
      "note": 60,
      "start": 31.7213,
      "duration": 0.0696,
      "velocity": 103,
      "chip": "ym2612"
    },
    {
      "channel": 3,
      "note": 61,
      "start": 31.7268,
      "duration": 0.0646,
      "velocity": 127,
      "chip": "ym2612"
    },
    {
      "channel": 0,
      "note": 60,
      "start": 31.7569,
      "duration": 0.0523,
      "velocity": 95,
      "chip": "ym2612"
    },
    {
      "channel": 2,
      "note": 60,
      "start": 31.7587,
      "duration": 0.0508,
      "velocity": 98,
      "chip": "ym2612"
    },
    {
      "channel": 4,
      "note": 57,
      "start": 31.775,
      "duration": 0.0571,
      "velocity": 95,
      "chip": "ym2612"
    },
    {
      "channel": 5,
      "note": 57,
      "start": 31.7767,
      "duration": 0.0556,
      "velocity": 98,
      "chip": "ym2612"
    },
    {
      "channel": 0,
      "note": 57,
      "start": 31.828,
      "duration": 0.0517,
      "velocity": 95,
      "chip": "ym2612"
    },
    {
      "channel": 1,
      "note": 52,
      "start": 31.8295,
      "duration": 0.0697,
      "velocity": 103,
      "chip": "ym2612"
    },
    {
      "channel": 2,
      "note": 57,
      "start": 31.8313,
      "duration": 0.0487,
      "velocity": 98,
      "chip": "ym2612"
    },
    {
      "channel": 4,
      "note": 59,
      "start": 31.8465,
      "duration": 0.0552,
      "velocity": 95,
      "chip": "ym2612"
    },
    {
      "channel": 5,
      "note": 59,
      "start": 31.8482,
      "duration": 0.0537,
      "velocity": 98,
      "chip": "ym2612"
    },
    {
      "channel": 0,
      "note": 59,
      "start": 31.8989,
      "duration": 0.0517,
      "velocity": 95,
      "chip": "ym2612"
    },
    {
      "channel": 2,
      "note": 59,
      "start": 31.9009,
      "duration": 0.0501,
      "velocity": 98,
      "chip": "ym2612"
    },
    {
      "channel": 4,
      "note": 60,
      "start": 31.9175,
      "duration": 0.055,
      "velocity": 95,
      "chip": "ym2612"
    },
    {
      "channel": 5,
      "note": 60,
      "start": 31.9192,
      "duration": 0.0535,
      "velocity": 98,
      "chip": "ym2612"
    },
    {
      "channel": 1,
      "note": 52,
      "start": 31.9345,
      "duration": 0.0703,
      "velocity": 103,
      "chip": "ym2612"
    },
    {
      "channel": 0,
      "note": 60,
      "start": 31.9699,
      "duration": 0.0518,
      "velocity": 95,
      "chip": "ym2612"
    },
    {
      "channel": 2,
      "note": 60,
      "start": 31.9717,
      "duration": 0.0503,
      "velocity": 98,
      "chip": "ym2612"
    },
    {
      "channel": 4,
      "note": 57,
      "start": 31.9886,
      "duration": 0.0629,
      "velocity": 95,
      "chip": "ym2612"
    },
    {
      "channel": 5,
      "note": 57,
      "start": 31.9902,
      "duration": 0.0614,
      "velocity": 98,
      "chip": "ym2612"
    },
    {
      "channel": 0,
      "note": 62,
      "start": 32.041,
      "duration": 0.0517,
      "velocity": 95,
      "chip": "ym2612"
    },
    {
      "channel": 1,
      "note": 52,
      "start": 32.0427,
      "duration": 0.1745,
      "velocity": 103,
      "chip": "ym2612"
    },
    {
      "channel": 2,
      "note": 62,
      "start": 32.0444,
      "duration": 0.0487,
      "velocity": 98,
      "chip": "ym2612"
    },
    {
      "channel": 3,
      "note": 61,
      "start": 32.0511,
      "duration": 0.063,
      "velocity": 127,
      "chip": "ym2612"
    },
    {
      "channel": 4,
      "note": 59,
      "start": 32.0596,
      "duration": 0.0547,
      "velocity": 95,
      "chip": "ym2612"
    },
    {
      "channel": 5,
      "note": 59,
      "start": 32.0613,
      "duration": 0.0533,
      "velocity": 98,
      "chip": "ym2612"
    },
    {
      "channel": 0,
      "note": 59,
      "start": 32.112,
      "duration": 0.0517,
      "velocity": 95,
      "chip": "ym2612"
    },
    {
      "channel": 2,
      "note": 59,
      "start": 32.1138,
      "duration": 0.0502,
      "velocity": 98,
      "chip": "ym2612"
    },
    {
      "channel": 4,
      "note": 60,
      "start": 32.1306,
      "duration": 0.0552,
      "velocity": 95,
      "chip": "ym2612"
    },
    {
      "channel": 5,
      "note": 60,
      "start": 32.1323,
      "duration": 0.0537,
      "velocity": 98,
      "chip": "ym2612"
    },
    {
      "channel": 0,
      "note": 60,
      "start": 32.1831,
      "duration": 0.0517,
      "velocity": 95,
      "chip": "ym2612"
    },
    {
      "channel": 2,
      "note": 60,
      "start": 32.1849,
      "duration": 0.0501,
      "velocity": 98,
      "chip": "ym2612"
    },
    {
      "channel": 4,
      "note": 62,
      "start": 32.2027,
      "duration": 0.0571,
      "velocity": 95,
      "chip": "ym2612"
    },
    {
      "channel": 5,
      "note": 62,
      "start": 32.2044,
      "duration": 0.0557,
      "velocity": 98,
      "chip": "ym2612"
    },
    {
      "channel": 0,
      "note": 62,
      "start": 32.2541,
      "duration": 0.0517,
      "velocity": 95,
      "chip": "ym2612"
    },
    {
      "channel": 1,
      "note": 52,
      "start": 32.2558,
      "duration": 0.0696,
      "velocity": 103,
      "chip": "ym2612"
    },
    {
      "channel": 2,
      "note": 62,
      "start": 32.2574,
      "duration": 0.0487,
      "velocity": 98,
      "chip": "ym2612"
    },
    {
      "channel": 3,
      "note": 61,
      "start": 32.2596,
      "duration": 0.0678,
      "velocity": 127,
      "chip": "ym2612"
    },
    {
      "channel": 4,
      "note": 59,
      "start": 32.2727,
      "duration": 0.0548,
      "velocity": 95,
      "chip": "ym2612"
    },
    {
      "channel": 5,
      "note": 59,
      "start": 32.2744,
      "duration": 0.0534,
      "velocity": 98,
      "chip": "ym2612"
    },
    {
      "channel": 0,
      "note": 64,
      "start": 32.3251,
      "duration": 0.0517,
      "velocity": 95,
      "chip": "ym2612"
    },
    {
      "channel": 2,
      "note": 64,
      "start": 32.327,
      "duration": 0.0501,
      "velocity": 98,
      "chip": "ym2612"
    },
    {
      "channel": 4,
      "note": 60,
      "start": 32.3437,
      "duration": 0.0547,
      "velocity": 95,
      "chip": "ym2612"
    },
    {
      "channel": 5,
      "note": 60,
      "start": 32.3453,
      "duration": 0.0533,
      "velocity": 98,
      "chip": "ym2612"
    },
    {
      "channel": 1,
      "note": 59,
      "start": 32.3606,
      "duration": 0.0696,
      "velocity": 103,
      "chip": "ym2612"
    },
    {
      "channel": 3,
      "note": 61,
      "start": 32.3661,
      "duration": 0.0645,
      "velocity": 127,
      "chip": "ym2612"
    },
    {
      "channel": 0,
      "note": 60,
      "start": 32.3961,
      "duration": 0.0518,
      "velocity": 95,
      "chip": "ym2612"
    },
    {
      "channel": 2,
      "note": 60,
      "start": 32.3979,
      "duration": 0.0504,
      "velocity": 98,
      "chip": "ym2612"
    },
    {
      "channel": 4,
      "note": 62,
      "start": 32.4143,
      "duration": 0.0571,
      "velocity": 95,
      "chip": "ym2612"
    },
    {
      "channel": 5,
      "note": 62,
      "start": 32.4159,
      "duration": 0.0556,
      "velocity": 98,
      "chip": "ym2612"
    },
    {
      "channel": 0,
      "note": 62,
      "start": 32.4671,
      "duration": 0.0517,
      "velocity": 95,
      "chip": "ym2612"
    },
    {
      "channel": 1,
      "note": 52,
      "start": 32.4688,
      "duration": 0.0695,
      "velocity": 103,
      "chip": "ym2612"
    },
    {
      "channel": 2,
      "note": 62,
      "start": 32.4705,
      "duration": 0.0487,
      "velocity": 98,
      "chip": "ym2612"
    },
    {
      "channel": 4,
      "note": 64,
      "start": 32.4858,
      "duration": 0.0551,
      "velocity": 95,
      "chip": "ym2612"
    },
    {
      "channel": 5,
      "note": 64,
      "start": 32.4875,
      "duration": 0.0536,
      "velocity": 98,
      "chip": "ym2612"
    },
    {
      "channel": 0,
      "note": 64,
      "start": 32.5382,
      "duration": 0.0517,
      "velocity": 95,
      "chip": "ym2612"
    },
    {
      "channel": 2,
      "note": 64,
      "start": 32.54,
      "duration": 0.0502,
      "velocity": 98,
      "chip": "ym2612"
    },
    {
      "channel": 4,
      "note": 60,
      "start": 32.5568,
      "duration": 0.055,
      "velocity": 95,
      "chip": "ym2612"
    },
    {
      "channel": 5,
      "note": 60,
      "start": 32.5584,
      "duration": 0.0536,
      "velocity": 98,
      "chip": "ym2612"
    },
    {
      "channel": 1,
      "note": 52,
      "start": 32.5736,
      "duration": 0.07,
      "velocity": 103,
      "chip": "ym2612"
    },
    {
      "channel": 0,
      "note": 66,
      "start": 32.6092,
      "duration": 0.0517,
      "velocity": 95,
      "chip": "ym2612"
    },
    {
      "channel": 2,
      "note": 66,
      "start": 32.611,
      "duration": 0.0502,
      "velocity": 98,
      "chip": "ym2612"
    },
    {
      "channel": 4,
      "note": 62,
      "start": 32.6278,
      "duration": 0.0629,
      "velocity": 95,
      "chip": "ym2612"
    },
    {
      "channel": 5,
      "note": 62,
      "start": 32.6294,
      "duration": 0.0615,
      "velocity": 98,
      "chip": "ym2612"
    },
    {
      "channel": 0,
      "note": 62,
      "start": 32.6802,
      "duration": 0.0517,
      "velocity": 95,
      "chip": "ym2612"
    },
    {
      "channel": 1,
      "note": 52,
      "start": 32.6819,
      "duration": 0.1744,
      "velocity": 103,
      "chip": "ym2612"
    },
    {
      "channel": 2,
      "note": 62,
      "start": 32.6836,
      "duration": 0.0487,
      "velocity": 98,
      "chip": "ym2612"
    },
    {
      "channel": 3,
      "note": 61,
      "start": 32.6904,
      "duration": 0.063,
      "velocity": 127,
      "chip": "ym2612"
    },
    {
      "channel": 4,
      "note": 64,
      "start": 32.6989,
      "duration": 0.0547,
      "velocity": 95,
      "chip": "ym2612"
    },
    {
      "channel": 5,
      "note": 64,
      "start": 32.7006,
      "duration": 0.0532,
      "velocity": 98,
      "chip": "ym2612"
    },
    {
      "channel": 0,
      "note": 64,
      "start": 32.7513,
      "duration": 0.0517,
      "velocity": 95,
      "chip": "ym2612"
    },
    {
      "channel": 2,
      "note": 64,
      "start": 32.7531,
      "duration": 0.0502,
      "velocity": 98,
      "chip": "ym2612"
    },
    {
      "channel": 4,
      "note": 66,
      "start": 32.7699,
      "duration": 0.0549,
      "velocity": 95,
      "chip": "ym2612"
    },
    {
      "channel": 5,
      "note": 66,
      "start": 32.7716,
      "duration": 0.0535,
      "velocity": 98,
      "chip": "ym2612"
    },
    {
      "channel": 0,
      "note": 66,
      "start": 32.8223,
      "duration": 0.0517,
      "velocity": 95,
      "chip": "ym2612"
    },
    {
      "channel": 2,
      "note": 66,
      "start": 32.8241,
      "duration": 0.0503,
      "velocity": 98,
      "chip": "ym2612"
    },
    {
      "channel": 4,
      "note": 62,
      "start": 32.8414,
      "duration": 0.0576,
      "velocity": 95,
      "chip": "ym2612"
    },
    {
      "channel": 5,
      "note": 62,
      "start": 32.8431,
      "duration": 0.0562,
      "velocity": 98,
      "chip": "ym2612"
    },
    {
      "channel": 0,
      "note": 67,
      "start": 32.8933,
      "duration": 0.0517,
      "velocity": 95,
      "chip": "ym2612"
    },
    {
      "channel": 1,
      "note": 52,
      "start": 32.8949,
      "duration": 0.0696,
      "velocity": 103,
      "chip": "ym2612"
    },
    {
      "channel": 2,
      "note": 67,
      "start": 32.8966,
      "duration": 0.0487,
      "velocity": 98,
      "chip": "ym2612"
    },
    {
      "channel": 3,
      "note": 61,
      "start": 32.8988,
      "duration": 0.0678,
      "velocity": 127,
      "chip": "ym2612"
    },
    {
      "channel": 4,
      "note": 64,
      "start": 32.9119,
      "duration": 0.0549,
      "velocity": 95,
      "chip": "ym2612"
    },
    {
      "channel": 5,
      "note": 64,
      "start": 32.9136,
      "duration": 0.0534,
      "velocity": 98,
      "chip": "ym2612"
    },
    {
      "channel": 0,
      "note": 64,
      "start": 32.9643,
      "duration": 0.0517,
      "velocity": 95,
      "chip": "ym2612"
    },
    {
      "channel": 2,
      "note": 64,
      "start": 32.9662,
      "duration": 0.0501,
      "velocity": 98,
      "chip": "ym2612"
    },
    {
      "channel": 4,
      "note": 66,
      "start": 32.983,
      "duration": 0.0553,
      "velocity": 95,
      "chip": "ym2612"
    },
    {
      "channel": 5,
      "note": 66,
      "start": 32.9847,
      "duration": 0.0538,
      "velocity": 98,
      "chip": "ym2612"
    },
    {
      "channel": 1,
      "note": 60,
      "start": 32.9998,
      "duration": 0.2826,
      "velocity": 103,
      "chip": "ym2612"
    },
    {
      "channel": 3,
      "note": 61,
      "start": 33.0054,
      "duration": 0.0644,
      "velocity": 127,
      "chip": "ym2612"
    },
    {
      "channel": 0,
      "note": 66,
      "start": 33.0361,
      "duration": 0.051,
      "velocity": 95,
      "chip": "ym2612"
    },
    {
      "channel": 2,
      "note": 66,
      "start": 33.0379,
      "duration": 0.0495,
      "velocity": 98,
      "chip": "ym2612"
    },
    {
      "channel": 4,
      "note": 67,
      "start": 33.0535,
      "duration": 0.0554,
      "velocity": 95,
      "chip": "ym2612"
    },
    {
      "channel": 5,
      "note": 67,
      "start": 33.0552,
      "duration": 0.054,
      "velocity": 98,
      "chip": "ym2612"
    },
    {
      "channel": 0,
      "note": 67,
      "start": 33.1064,
      "duration": 0.0517,
      "velocity": 95,
      "chip": "ym2612"
    },
    {
      "channel": 2,
      "note": 67,
      "start": 33.1082,
      "duration": 0.0502,
      "velocity": 98,
      "chip": "ym2612"
    },
    {
      "channel": 4,
      "note": 64,
      "start": 33.125,
      "duration": 0.055,
      "velocity": 95,
      "chip": "ym2612"
    },
    {
      "channel": 5,
      "note": 64,
      "start": 33.1266,
      "duration": 0.0536,
      "velocity": 98,
      "chip": "ym2612"
    },
    {
      "channel": 0,
      "note": 69,
      "start": 33.1774,
      "duration": 0.0527,
      "velocity": 95,
      "chip": "ym2612"
    },
    {
      "channel": 2,
      "note": 69,
      "start": 33.1792,
      "duration": 0.0512,
      "velocity": 98,
      "chip": "ym2612"
    },
    {
      "channel": 4,
      "note": 66,
      "start": 33.196,
      "duration": 0.0551,
      "velocity": 95,
      "chip": "ym2612"
    },
    {
      "channel": 5,
      "note": 66,
      "start": 33.1977,
      "duration": 0.0537,
      "velocity": 98,
      "chip": "ym2612"
    },
    {
      "channel": 0,
      "note": 66,
      "start": 33.2484,
      "duration": 0.0517,
      "velocity": 95,
      "chip": "ym2612"
    },
    {
      "channel": 2,
      "note": 66,
      "start": 33.2503,
      "duration": 0.0502,
      "velocity": 98,
      "chip": "ym2612"
    },
    {
      "channel": 4,
      "note": 67,
      "start": 33.2671,
      "duration": 0.063,
      "velocity": 95,
      "chip": "ym2612"
    },
    {
      "channel": 5,
      "note": 67,
      "start": 33.2688,
      "duration": 0.0615,
      "velocity": 98,
      "chip": "ym2612"
    },
    {
      "channel": 0,
      "note": 71,
      "start": 33.3195,
      "duration": 0.0516,
      "velocity": 95,
      "chip": "ym2612"
    },
    {
      "channel": 1,
      "note": 52,
      "start": 33.3215,
      "duration": 0.1741,
      "velocity": 103,
      "chip": "ym2612"
    },
    {
      "channel": 2,
      "note": 71,
      "start": 33.3231,
      "duration": 0.0483,
      "velocity": 98,
      "chip": "ym2612"
    },
    {
      "channel": 3,
      "note": 61,
      "start": 33.3298,
      "duration": 0.0628,
      "velocity": 127,
      "chip": "ym2612"
    },
    {
      "channel": 4,
      "note": 69,
      "start": 33.3381,
      "duration": 0.0548,
      "velocity": 95,
      "chip": "ym2612"
    },
    {
      "channel": 5,
      "note": 69,
      "start": 33.3398,
      "duration": 0.0532,
      "velocity": 98,
      "chip": "ym2612"
    },
    {
      "channel": 0,
      "note": 69,
      "start": 33.3905,
      "duration": 0.0517,
      "velocity": 95,
      "chip": "ym2612"
    },
    {
      "channel": 2,
      "note": 69,
      "start": 33.3923,
      "duration": 0.0502,
      "velocity": 98,
      "chip": "ym2612"
    },
    {
      "channel": 4,
      "note": 66,
      "start": 33.409,
      "duration": 0.055,
      "velocity": 95,
      "chip": "ym2612"
    },
    {
      "channel": 5,
      "note": 66,
      "start": 33.4107,
      "duration": 0.0536,
      "velocity": 98,
      "chip": "ym2612"
    },
    {
      "channel": 0,
      "note": 67,
      "start": 33.4615,
      "duration": 0.0517,
      "velocity": 95,
      "chip": "ym2612"
    },
    {
      "channel": 2,
      "note": 67,
      "start": 33.4633,
      "duration": 0.0502,
      "velocity": 98,
      "chip": "ym2612"
    },
    {
      "channel": 4,
      "note": 71,
      "start": 33.4801,
      "duration": 0.0582,
      "velocity": 95,
      "chip": "ym2612"
    },
    {
      "channel": 5,
      "note": 71,
      "start": 33.4818,
      "duration": 0.0568,
      "velocity": 98,
      "chip": "ym2612"
    },
    {
      "channel": 0,
      "note": 66,
      "start": 33.5325,
      "duration": 0.0517,
      "velocity": 95,
      "chip": "ym2612"
    },
    {
      "channel": 1,
      "note": 52,
      "start": 33.5342,
      "duration": 0.0695,
      "velocity": 103,
      "chip": "ym2612"
    },
    {
      "channel": 2,
      "note": 66,
      "start": 33.536,
      "duration": 0.0487,
      "velocity": 98,
      "chip": "ym2612"
    },
    {
      "channel": 3,
      "note": 61,
      "start": 33.5381,
      "duration": 0.0676,
      "velocity": 127,
      "chip": "ym2612"
    },
    {
      "channel": 4,
      "note": 69,
      "start": 33.5512,
      "duration": 0.0548,
      "velocity": 95,
      "chip": "ym2612"
    },
    {
      "channel": 5,
      "note": 69,
      "start": 33.5529,
      "duration": 0.0533,
      "velocity": 98,
      "chip": "ym2612"
    },
    {
      "channel": 0,
      "note": 69,
      "start": 33.6035,
      "duration": 0.0517,
      "velocity": 95,
      "chip": "ym2612"
    },
    {
      "channel": 2,
      "note": 69,
      "start": 33.6054,
      "duration": 0.0501,
      "velocity": 98,
      "chip": "ym2612"
    },
    {
      "channel": 4,
      "note": 67,
      "start": 33.6222,
      "duration": 0.0548,
      "velocity": 95,
      "chip": "ym2612"
    },
    {
      "channel": 5,
      "note": 67,
      "start": 33.6238,
      "duration": 0.0533,
      "velocity": 98,
      "chip": "ym2612"
    },
    {
      "channel": 1,
      "note": 59,
      "start": 33.639,
      "duration": 0.0696,
      "velocity": 103,
      "chip": "ym2612"
    },
    {
      "channel": 3,
      "note": 61,
      "start": 33.6445,
      "duration": 0.0646,
      "velocity": 127,
      "chip": "ym2612"
    },
    {
      "channel": 0,
      "note": 67,
      "start": 33.6748,
      "duration": 0.0515,
      "velocity": 95,
      "chip": "ym2612"
    },
    {
      "channel": 2,
      "note": 67,
      "start": 33.6766,
      "duration": 0.0501,
      "velocity": 98,
      "chip": "ym2612"
    },
    {
      "channel": 4,
      "note": 66,
      "start": 33.6927,
      "duration": 0.0571,
      "velocity": 95,
      "chip": "ym2612"
    },
    {
      "channel": 5,
      "note": 66,
      "start": 33.6944,
      "duration": 0.0557,
      "velocity": 98,
      "chip": "ym2612"
    },
    {
      "channel": 0,
      "note": 66,
      "start": 33.7456,
      "duration": 0.0516,
      "velocity": 95,
      "chip": "ym2612"
    },
    {
      "channel": 1,
      "note": 52,
      "start": 33.7472,
      "duration": 0.0696,
      "velocity": 103,
      "chip": "ym2612"
    },
    {
      "channel": 2,
      "note": 66,
      "start": 33.7489,
      "duration": 0.0487,
      "velocity": 98,
      "chip": "ym2612"
    },
    {
      "channel": 4,
      "note": 69,
      "start": 33.7642,
      "duration": 0.0551,
      "velocity": 95,
      "chip": "ym2612"
    },
    {
      "channel": 5,
      "note": 69,
      "start": 33.7659,
      "duration": 0.0537,
      "velocity": 98,
      "chip": "ym2612"
    },
    {
      "channel": 0,
      "note": 71,
      "start": 33.8166,
      "duration": 0.0522,
      "velocity": 95,
      "chip": "ym2612"
    },
    {
      "channel": 2,
      "note": 71,
      "start": 33.8185,
      "duration": 0.0506,
      "velocity": 98,
      "chip": "ym2612"
    },
    {
      "channel": 4,
      "note": 67,
      "start": 33.8353,
      "duration": 0.055,
      "velocity": 95,
      "chip": "ym2612"
    },
    {
      "channel": 5,
      "note": 67,
      "start": 33.8369,
      "duration": 0.0535,
      "velocity": 98,
      "chip": "ym2612"
    },
    {
      "channel": 1,
      "note": 52,
      "start": 33.8522,
      "duration": 0.0695,
      "velocity": 103,
      "chip": "ym2612"
    },
    {
      "channel": 0,
      "note": 72,
      "start": 33.8876,
      "duration": 0.0517,
      "velocity": 95,
      "chip": "ym2612"
    },
    {
      "channel": 2,
      "note": 72,
      "start": 33.8894,
      "duration": 0.0502,
      "velocity": 98,
      "chip": "ym2612"
    },
    {
      "channel": 4,
      "note": 66,
      "start": 33.9063,
      "duration": 0.0629,
      "velocity": 95,
      "chip": "ym2612"
    },
    {
      "channel": 5,
      "note": 66,
      "start": 33.9079,
      "duration": 0.0614,
      "velocity": 98,
      "chip": "ym2612"
    },
    {
      "channel": 0,
      "note": 71,
      "start": 33.9587,
      "duration": 0.0517,
      "velocity": 95,
      "chip": "ym2612"
    },
    {
      "channel": 1,
      "note": 52,
      "start": 33.9603,
      "duration": 0.1745,
      "velocity": 103,
      "chip": "ym2612"
    },
    {
      "channel": 2,
      "note": 71,
      "start": 33.962,
      "duration": 0.0487,
      "velocity": 98,
      "chip": "ym2612"
    },
    {
      "channel": 3,
      "note": 61,
      "start": 33.9688,
      "duration": 0.0631,
      "velocity": 127,
      "chip": "ym2612"
    },
    {
      "channel": 4,
      "note": 71,
      "start": 33.9773,
      "duration": 0.0548,
      "velocity": 95,
      "chip": "ym2612"
    },
    {
      "channel": 5,
      "note": 71,
      "start": 33.979,
      "duration": 0.0534,
      "velocity": 98,
      "chip": "ym2612"
    },
    {
      "channel": 0,
      "note": 69,
      "start": 34.0297,
      "duration": 0.0517,
      "velocity": 95,
      "chip": "ym2612"
    },
    {
      "channel": 2,
      "note": 69,
      "start": 34.0315,
      "duration": 0.0503,
      "velocity": 98,
      "chip": "ym2612"
    },
    {
      "channel": 4,
      "note": 72,
      "start": 34.0483,
      "duration": 0.055,
      "velocity": 95,
      "chip": "ym2612"
    },
    {
      "channel": 5,
      "note": 72,
      "start": 34.0501,
      "duration": 0.0535,
      "velocity": 98,
      "chip": "ym2612"
    },
    {
      "channel": 0,
      "note": 72,
      "start": 34.1007,
      "duration": 0.0517,
      "velocity": 95,
      "chip": "ym2612"
    },
    {
      "channel": 2,
      "note": 72,
      "start": 34.1026,
      "duration": 0.0502,
      "velocity": 98,
      "chip": "ym2612"
    },
    {
      "channel": 4,
      "note": 71,
      "start": 34.1194,
      "duration": 0.058,
      "velocity": 95,
      "chip": "ym2612"
    },
    {
      "channel": 5,
      "note": 71,
      "start": 34.1211,
      "duration": 0.0566,
      "velocity": 98,
      "chip": "ym2612"
    },
    {
      "channel": 0,
      "note": 67,
      "start": 34.1717,
      "duration": 0.0517,
      "velocity": 95,
      "chip": "ym2612"
    },
    {
      "channel": 1,
      "note": 52,
      "start": 34.1734,
      "duration": 0.0696,
      "velocity": 103,
      "chip": "ym2612"
    },
    {
      "channel": 2,
      "note": 67,
      "start": 34.1751,
      "duration": 0.0487,
      "velocity": 98,
      "chip": "ym2612"
    },
    {
      "channel": 3,
      "note": 61,
      "start": 34.1772,
      "duration": 0.0678,
      "velocity": 127,
      "chip": "ym2612"
    },
    {
      "channel": 4,
      "note": 69,
      "start": 34.1904,
      "duration": 0.0548,
      "velocity": 95,
      "chip": "ym2612"
    },
    {
      "channel": 5,
      "note": 69,
      "start": 34.1921,
      "duration": 0.0534,
      "velocity": 98,
      "chip": "ym2612"
    },
    {
      "channel": 0,
      "note": 72,
      "start": 34.2428,
      "duration": 0.0517,
      "velocity": 95,
      "chip": "ym2612"
    },
    {
      "channel": 2,
      "note": 72,
      "start": 34.2447,
      "duration": 0.0501,
      "velocity": 98,
      "chip": "ym2612"
    },
    {
      "channel": 4,
      "note": 72,
      "start": 34.2622,
      "duration": 0.0537,
      "velocity": 95,
      "chip": "ym2612"
    },
    {
      "channel": 5,
      "note": 72,
      "start": 34.2639,
      "duration": 0.0523,
      "velocity": 98,
      "chip": "ym2612"
    },
    {
      "channel": 1,
      "note": 60,
      "start": 34.2783,
      "duration": 0.0696,
      "velocity": 103,
      "chip": "ym2612"
    },
    {
      "channel": 3,
      "note": 61,
      "start": 34.2837,
      "duration": 0.0646,
      "velocity": 127,
      "chip": "ym2612"
    },
    {
      "channel": 0,
      "note": 66,
      "start": 34.3138,
      "duration": 0.0518,
      "velocity": 95,
      "chip": "ym2612"
    },
    {
      "channel": 2,
      "note": 66,
      "start": 34.3156,
      "duration": 0.0503,
      "velocity": 98,
      "chip": "ym2612"
    },
    {
      "channel": 4,
      "note": 67,
      "start": 34.332,
      "duration": 0.0571,
      "velocity": 95,
      "chip": "ym2612"
    },
    {
      "channel": 5,
      "note": 67,
      "start": 34.3337,
      "duration": 0.0555,
      "velocity": 98,
      "chip": "ym2612"
    },
    {
      "channel": 0,
      "note": 72,
      "start": 34.3849,
      "duration": 0.0517,
      "velocity": 95,
      "chip": "ym2612"
    },
    {
      "channel": 1,
      "note": 52,
      "start": 34.3865,
      "duration": 0.0705,
      "velocity": 103,
      "chip": "ym2612"
    },
    {
      "channel": 2,
      "note": 72,
      "start": 34.3882,
      "duration": 0.0487,
      "velocity": 98,
      "chip": "ym2612"
    },
    {
      "channel": 4,
      "note": 72,
      "start": 34.4035,
      "duration": 0.0561,
      "velocity": 95,
      "chip": "ym2612"
    },
    {
      "channel": 5,
      "note": 72,
      "start": 34.4051,
      "duration": 0.0546,
      "velocity": 98,
      "chip": "ym2612"
    },
    {
      "channel": 0,
      "note": 64,
      "start": 34.4568,
      "duration": 0.0507,
      "velocity": 95,
      "chip": "ym2612"
    },
    {
      "channel": 2,
      "note": 64,
      "start": 34.4587,
      "duration": 0.0491,
      "velocity": 98,
      "chip": "ym2612"
    },
    {
      "channel": 4,
      "note": 66,
      "start": 34.4744,
      "duration": 0.055,
      "velocity": 95,
      "chip": "ym2612"
    },
    {
      "channel": 5,
      "note": 66,
      "start": 34.4761,
      "duration": 0.0536,
      "velocity": 98,
      "chip": "ym2612"
    },
    {
      "channel": 1,
      "note": 52,
      "start": 34.4914,
      "duration": 0.0696,
      "velocity": 103,
      "chip": "ym2612"
    },
    {
      "channel": 0,
      "note": 66,
      "start": 34.5269,
      "duration": 0.0517,
      "velocity": 95,
      "chip": "ym2612"
    },
    {
      "channel": 2,
      "note": 66,
      "start": 34.5286,
      "duration": 0.0503,
      "velocity": 98,
      "chip": "ym2612"
    },
    {
      "channel": 4,
      "note": 72,
      "start": 34.5454,
      "duration": 0.0629,
      "velocity": 95,
      "chip": "ym2612"
    },
    {
      "channel": 5,
      "note": 72,
      "start": 34.5472,
      "duration": 0.0614,
      "velocity": 98,
      "chip": "ym2612"
    },
    {
      "channel": 0,
      "note": 67,
      "start": 34.5979,
      "duration": 0.0517,
      "velocity": 95,
      "chip": "ym2612"
    },
    {
      "channel": 1,
      "note": 52,
      "start": 34.5996,
      "duration": 0.1744,
      "velocity": 103,
      "chip": "ym2612"
    },
    {
      "channel": 2,
      "note": 67,
      "start": 34.6014,
      "duration": 0.0486,
      "velocity": 98,
      "chip": "ym2612"
    },
    {
      "channel": 3,
      "note": 61,
      "start": 34.608,
      "duration": 0.063,
      "velocity": 127,
      "chip": "ym2612"
    },
    {
      "channel": 4,
      "note": 64,
      "start": 34.6166,
      "duration": 0.0546,
      "velocity": 95,
      "chip": "ym2612"
    },
    {
      "channel": 5,
      "note": 64,
      "start": 34.6183,
      "duration": 0.0532,
      "velocity": 98,
      "chip": "ym2612"
    },
    {
      "channel": 0,
      "note": 64,
      "start": 34.669,
      "duration": 0.0517,
      "velocity": 95,
      "chip": "ym2612"
    },
    {
      "channel": 2,
      "note": 64,
      "start": 34.6708,
      "duration": 0.0502,
      "velocity": 98,
      "chip": "ym2612"
    },
    {
      "channel": 4,
      "note": 66,
      "start": 34.6876,
      "duration": 0.055,
      "velocity": 95,
      "chip": "ym2612"
    },
    {
      "channel": 5,
      "note": 66,
      "start": 34.6892,
      "duration": 0.0535,
      "velocity": 98,
      "chip": "ym2612"
    },
    {
      "channel": 0,
      "note": 71,
      "start": 34.7399,
      "duration": 0.0517,
      "velocity": 95,
      "chip": "ym2612"
    },
    {
      "channel": 2,
      "note": 71,
      "start": 34.7417,
      "duration": 0.0502,
      "velocity": 98,
      "chip": "ym2612"
    },
    {
      "channel": 4,
      "note": 67,
      "start": 34.7585,
      "duration": 0.0582,
      "velocity": 95,
      "chip": "ym2612"
    },
    {
      "channel": 5,
      "note": 67,
      "start": 34.7602,
      "duration": 0.0567,
      "velocity": 98,
      "chip": "ym2612"
    },
    {
      "channel": 0,
      "note": 69,
      "start": 34.811,
      "duration": 0.0517,
      "velocity": 95,
      "chip": "ym2612"
    },
    {
      "channel": 1,
      "note": 52,
      "start": 34.8126,
      "duration": 0.0696,
      "velocity": 103,
      "chip": "ym2612"
    },
    {
      "channel": 2,
      "note": 69,
      "start": 34.8143,
      "duration": 0.0487,
      "velocity": 98,
      "chip": "ym2612"
    },
    {
      "channel": 3,
      "note": 61,
      "start": 34.8164,
      "duration": 0.0679,
      "velocity": 127,
      "chip": "ym2612"
    },
    {
      "channel": 4,
      "note": 64,
      "start": 34.8296,
      "duration": 0.0549,
      "velocity": 95,
      "chip": "ym2612"
    },
    {
      "channel": 5,
      "note": 64,
      "start": 34.8313,
      "duration": 0.0535,
      "velocity": 98,
      "chip": "ym2612"
    },
    {
      "channel": 0,
      "note": 67,
      "start": 34.882,
      "duration": 0.0517,
      "velocity": 95,
      "chip": "ym2612"
    },
    {
      "channel": 2,
      "note": 67,
      "start": 34.8839,
      "duration": 0.0501,
      "velocity": 98,
      "chip": "ym2612"
    },
    {
      "channel": 4,
      "note": 71,
      "start": 34.9011,
      "duration": 0.0541,
      "velocity": 95,
      "chip": "ym2612"
    },
    {
      "channel": 5,
      "note": 71,
      "start": 34.9028,
      "duration": 0.0526,
      "velocity": 98,
      "chip": "ym2612"
    },
    {
      "channel": 1,
      "note": 59,
      "start": 34.9175,
      "duration": 0.0696,
      "velocity": 103,
      "chip": "ym2612"
    },
    {
      "channel": 3,
      "note": 61,
      "start": 34.9231,
      "duration": 0.0644,
      "velocity": 127,
      "chip": "ym2612"
    },
    {
      "channel": 0,
      "note": 66,
      "start": 34.953,
      "duration": 0.0517,
      "velocity": 95,
      "chip": "ym2612"
    },
    {
      "channel": 2,
      "note": 66,
      "start": 34.9548,
      "duration": 0.0503,
      "velocity": 98,
      "chip": "ym2612"
    },
    {
      "channel": 4,
      "note": 69,
      "start": 34.9712,
      "duration": 0.0569,
      "velocity": 95,
      "chip": "ym2612"
    },
    {
      "channel": 5,
      "note": 69,
      "start": 34.9729,
      "duration": 0.0555,
      "velocity": 98,
      "chip": "ym2612"
    },
    {
      "channel": 0,
      "note": 64,
      "start": 35.0241,
      "duration": 0.0517,
      "velocity": 95,
      "chip": "ym2612"
    },
    {
      "channel": 1,
      "note": 52,
      "start": 35.0257,
      "duration": 0.0702,
      "velocity": 103,
      "chip": "ym2612"
    },
    {
      "channel": 2,
      "note": 64,
      "start": 35.0274,
      "duration": 0.0487,
      "velocity": 98,
      "chip": "ym2612"
    },
    {
      "channel": 4,
      "note": 67,
      "start": 35.0427,
      "duration": 0.0557,
      "velocity": 95,
      "chip": "ym2612"
    },
    {
      "channel": 5,
      "note": 67,
      "start": 35.0443,
      "duration": 0.0543,
      "velocity": 98,
      "chip": "ym2612"
    },
    {
      "channel": 0,
      "note": 63,
      "start": 35.0956,
      "duration": 0.0511,
      "velocity": 95,
      "chip": "ym2612"
    },
    {
      "channel": 2,
      "note": 63,
      "start": 35.0975,
      "duration": 0.0496,
      "velocity": 98,
      "chip": "ym2612"
    },
    {
      "channel": 4,
      "note": 66,
      "start": 35.1136,
      "duration": 0.0552,
      "velocity": 95,
      "chip": "ym2612"
    },
    {
      "channel": 5,
      "note": 66,
      "start": 35.1153,
      "duration": 0.0538,
      "velocity": 98,
      "chip": "ym2612"
    },
    {
      "channel": 1,
      "note": 52,
      "start": 35.1306,
      "duration": 0.0696,
      "velocity": 103,
      "chip": "ym2612"
    },
    {
      "channel": 0,
      "note": 64,
      "start": 35.1661,
      "duration": 0.0517,
      "velocity": 95,
      "chip": "ym2612"
    },
    {
      "channel": 2,
      "note": 64,
      "start": 35.168,
      "duration": 0.0501,
      "velocity": 98,
      "chip": "ym2612"
    },
    {
      "channel": 4,
      "note": 64,
      "start": 35.1848,
      "duration": 0.0627,
      "velocity": 95,
      "chip": "ym2612"
    },
    {
      "channel": 5,
      "note": 64,
      "start": 35.1864,
      "duration": 0.0612,
      "velocity": 98,
      "chip": "ym2612"
    },
    {
      "channel": 0,
      "note": 61,
      "start": 35.2371,
      "duration": 0.0525,
      "velocity": 95,
      "chip": "ym2612"
    },
    {
      "channel": 1,
      "note": 52,
      "start": 35.2388,
      "duration": 0.1745,
      "velocity": 103,
      "chip": "ym2612"
    },
    {
      "channel": 2,
      "note": 61,
      "start": 35.2405,
      "duration": 0.0494,
      "velocity": 98,
      "chip": "ym2612"
    },
    {
      "channel": 3,
      "note": 61,
      "start": 35.2472,
      "duration": 0.0631,
      "velocity": 127,
      "chip": "ym2612"
    },
    {
      "channel": 4,
      "note": 63,
      "start": 35.2558,
      "duration": 0.0547,
      "velocity": 95,
      "chip": "ym2612"
    },
    {
      "channel": 5,
      "note": 63,
      "start": 35.2574,
      "duration": 0.0533,
      "velocity": 98,
      "chip": "ym2612"
    },
    {
      "channel": 0,
      "note": 59,
      "start": 35.3082,
      "duration": 0.0517,
      "velocity": 95,
      "chip": "ym2612"
    },
    {
      "channel": 2,
      "note": 59,
      "start": 35.31,
      "duration": 0.0502,
      "velocity": 98,
      "chip": "ym2612"
    },
    {
      "channel": 4,
      "note": 64,
      "start": 35.3268,
      "duration": 0.055,
      "velocity": 95,
      "chip": "ym2612"
    },
    {
      "channel": 5,
      "note": 64,
      "start": 35.3285,
      "duration": 0.0536,
      "velocity": 98,
      "chip": "ym2612"
    },
    {
      "channel": 0,
      "note": 57,
      "start": 35.3792,
      "duration": 0.0517,
      "velocity": 95,
      "chip": "ym2612"
    },
    {
      "channel": 2,
      "note": 57,
      "start": 35.3809,
      "duration": 0.0503,
      "velocity": 98,
      "chip": "ym2612"
    },
    {
      "channel": 4,
      "note": 61,
      "start": 35.3978,
      "duration": 0.0581,
      "velocity": 95,
      "chip": "ym2612"
    },
    {
      "channel": 5,
      "note": 61,
      "start": 35.3995,
      "duration": 0.0567,
      "velocity": 98,
      "chip": "ym2612"
    },
    {
      "channel": 0,
      "note": 59,
      "start": 35.4502,
      "duration": 0.0517,
      "velocity": 95,
      "chip": "ym2612"
    },
    {
      "channel": 1,
      "note": 52,
      "start": 35.4519,
      "duration": 0.0695,
      "velocity": 103,
      "chip": "ym2612"
    },
    {
      "channel": 2,
      "note": 59,
      "start": 35.4536,
      "duration": 0.0487,
      "velocity": 98,
      "chip": "ym2612"
    },
    {
      "channel": 3,
      "note": 61,
      "start": 35.4558,
      "duration": 0.0677,
      "velocity": 127,
      "chip": "ym2612"
    },
    {
      "channel": 4,
      "note": 59,
      "start": 35.4689,
      "duration": 0.0548,
      "velocity": 95,
      "chip": "ym2612"
    },
    {
      "channel": 5,
      "note": 59,
      "start": 35.4706,
      "duration": 0.0533,
      "velocity": 98,
      "chip": "ym2612"
    },
    {
      "channel": 0,
      "note": 61,
      "start": 35.5212,
      "duration": 0.0517,
      "velocity": 95,
      "chip": "ym2612"
    },
    {
      "channel": 2,
      "note": 61,
      "start": 35.5231,
      "duration": 0.0501,
      "velocity": 98,
      "chip": "ym2612"
    },
    {
      "channel": 4,
      "note": 57,
      "start": 35.5398,
      "duration": 0.0546,
      "velocity": 95,
      "chip": "ym2612"
    },
    {
      "channel": 5,
      "note": 57,
      "start": 35.5415,
      "duration": 0.0531,
      "velocity": 98,
      "chip": "ym2612"
    },
    {
      "channel": 1,
      "note": 60,
      "start": 35.5568,
      "duration": 0.2827,
      "velocity": 103,
      "chip": "ym2612"
    },
    {
      "channel": 3,
      "note": 61,
      "start": 35.5622,
      "duration": 0.0644,
      "velocity": 127,
      "chip": "ym2612"
    },
    {
      "channel": 0,
      "note": 63,
      "start": 35.5923,
      "duration": 0.0517,
      "velocity": 95,
      "chip": "ym2612"
    },
    {
      "channel": 2,
      "note": 63,
      "start": 35.594,
      "duration": 0.0503,
      "velocity": 98,
      "chip": "ym2612"
    },
    {
      "channel": 4,
      "note": 59,
      "start": 35.6104,
      "duration": 0.0555,
      "velocity": 95,
      "chip": "ym2612"
    },
    {
      "channel": 5,
      "note": 59,
      "start": 35.612,
      "duration": 0.0541,
      "velocity": 98,
      "chip": "ym2612"
    },
    {
      "channel": 0,
      "note": 64,
      "start": 35.6633,
      "duration": 0.0517,
      "velocity": 95,
      "chip": "ym2612"
    },
    {
      "channel": 2,
      "note": 64,
      "start": 35.665,
      "duration": 0.0502,
      "velocity": 98,
      "chip": "ym2612"
    },
    {
      "channel": 4,
      "note": 61,
      "start": 35.6819,
      "duration": 0.0551,
      "velocity": 95,
      "chip": "ym2612"
    },
    {
      "channel": 5,
      "note": 61,
      "start": 35.6836,
      "duration": 0.0536,
      "velocity": 98,
      "chip": "ym2612"
    },
    {
      "channel": 0,
      "note": 63,
      "start": 35.7344,
      "duration": 0.0517,
      "velocity": 95,
      "chip": "ym2612"
    },
    {
      "channel": 2,
      "note": 63,
      "start": 35.7362,
      "duration": 0.0502,
      "velocity": 98,
      "chip": "ym2612"
    },
    {
      "channel": 4,
      "note": 63,
      "start": 35.7529,
      "duration": 0.055,
      "velocity": 95,
      "chip": "ym2612"
    },
    {
      "channel": 5,
      "note": 63,
      "start": 35.7546,
      "duration": 0.0535,
      "velocity": 98,
      "chip": "ym2612"
    },
    {
      "channel": 0,
      "note": 64,
      "start": 35.8053,
      "duration": 0.0517,
      "velocity": 95,
      "chip": "ym2612"
    },
    {
      "channel": 2,
      "note": 64,
      "start": 35.8071,
      "duration": 0.0503,
      "velocity": 98,
      "chip": "ym2612"
    },
    {
      "channel": 4,
      "note": 64,
      "start": 35.8239,
      "duration": 0.0632,
      "velocity": 95,
      "chip": "ym2612"
    },
    {
      "channel": 5,
      "note": 64,
      "start": 35.8256,
      "duration": 0.0617,
      "velocity": 98,
      "chip": "ym2612"
    },
    {
      "channel": 0,
      "note": 52,
      "start": 35.8763,
      "duration": 0.052,
      "velocity": 95,
      "chip": "ym2612"
    },
    {
      "channel": 1,
      "note": 47,
      "start": 35.8783,
      "duration": 0.1742,
      "velocity": 103,
      "chip": "ym2612"
    },
    {
      "channel": 2,
      "note": 52,
      "start": 35.88,
      "duration": 0.0487,
      "velocity": 98,
      "chip": "ym2612"
    },
    {
      "channel": 3,
      "note": 61,
      "start": 35.8867,
      "duration": 0.0628,
      "velocity": 127,
      "chip": "ym2612"
    },
    {
      "channel": 4,
      "note": 63,
      "start": 35.895,
      "duration": 0.0548,
      "velocity": 95,
      "chip": "ym2612"
    },
    {
      "channel": 5,
      "note": 63,
      "start": 35.8966,
      "duration": 0.0534,
      "velocity": 98,
      "chip": "ym2612"
    },
    {
      "channel": 0,
      "note": 55,
      "start": 35.9473,
      "duration": 0.0518,
      "velocity": 95,
      "chip": "ym2612"
    },
    {
      "channel": 2,
      "note": 55,
      "start": 35.9491,
      "duration": 0.0503,
      "velocity": 98,
      "chip": "ym2612"
    },
    {
      "channel": 4,
      "note": 64,
      "start": 35.966,
      "duration": 0.055,
      "velocity": 95,
      "chip": "ym2612"
    },
    {
      "channel": 5,
      "note": 64,
      "start": 35.9678,
      "duration": 0.0535,
      "velocity": 98,
      "chip": "ym2612"
    },
    {
      "channel": 0,
      "note": 59,
      "start": 36.0185,
      "duration": 0.0517,
      "velocity": 95,
      "chip": "ym2612"
    },
    {
      "channel": 2,
      "note": 59,
      "start": 36.0202,
      "duration": 0.0502,
      "velocity": 98,
      "chip": "ym2612"
    },
    {
      "channel": 4,
      "note": 52,
      "start": 36.037,
      "duration": 0.0581,
      "velocity": 95,
      "chip": "ym2612"
    },
    {
      "channel": 5,
      "note": 52,
      "start": 36.0386,
      "duration": 0.0567,
      "velocity": 98,
      "chip": "ym2612"
    },
    {
      "channel": 0,
      "note": 64,
      "start": 36.0895,
      "duration": 0.0517,
      "velocity": 95,
      "chip": "ym2612"
    },
    {
      "channel": 1,
      "note": 47,
      "start": 36.0911,
      "duration": 0.0695,
      "velocity": 103,
      "chip": "ym2612"
    },
    {
      "channel": 2,
      "note": 64,
      "start": 36.0928,
      "duration": 0.0487,
      "velocity": 98,
      "chip": "ym2612"
    },
    {
      "channel": 3,
      "note": 61,
      "start": 36.0949,
      "duration": 0.0677,
      "velocity": 127,
      "chip": "ym2612"
    },
    {
      "channel": 4,
      "note": 55,
      "start": 36.108,
      "duration": 0.0548,
      "velocity": 95,
      "chip": "ym2612"
    },
    {
      "channel": 5,
      "note": 55,
      "start": 36.1097,
      "duration": 0.0534,
      "velocity": 98,
      "chip": "ym2612"
    },
    {
      "channel": 0,
      "note": 67,
      "start": 36.1605,
      "duration": 0.0517,
      "velocity": 95,
      "chip": "ym2612"
    },
    {
      "channel": 2,
      "note": 67,
      "start": 36.1623,
      "duration": 0.0502,
      "velocity": 98,
      "chip": "ym2612"
    },
    {
      "channel": 4,
      "note": 59,
      "start": 36.179,
      "duration": 0.0546,
      "velocity": 95,
      "chip": "ym2612"
    },
    {
      "channel": 5,
      "note": 59,
      "start": 36.1807,
      "duration": 0.0532,
      "velocity": 98,
      "chip": "ym2612"
    },
    {
      "channel": 1,
      "note": 54,
      "start": 36.196,
      "duration": 0.0696,
      "velocity": 103,
      "chip": "ym2612"
    },
    {
      "channel": 3,
      "note": 61,
      "start": 36.2014,
      "duration": 0.0645,
      "velocity": 127,
      "chip": "ym2612"
    },
    {
      "channel": 0,
      "note": 71,
      "start": 36.2315,
      "duration": 0.0517,
      "velocity": 95,
      "chip": "ym2612"
    },
    {
      "channel": 2,
      "note": 71,
      "start": 36.2333,
      "duration": 0.0502,
      "velocity": 98,
      "chip": "ym2612"
    },
    {
      "channel": 4,
      "note": 64,
      "start": 36.2497,
      "duration": 0.057,
      "velocity": 95,
      "chip": "ym2612"
    },
    {
      "channel": 5,
      "note": 64,
      "start": 36.2514,
      "duration": 0.0555,
      "velocity": 98,
      "chip": "ym2612"
    },
    {
      "channel": 0,
      "note": 76,
      "start": 36.3026,
      "duration": 0.0517,
      "velocity": 95,
      "chip": "ym2612"
    },
    {
      "channel": 1,
      "note": 47,
      "start": 36.3042,
      "duration": 0.0695,
      "velocity": 103,
      "chip": "ym2612"
    },
    {
      "channel": 2,
      "note": 76,
      "start": 36.3059,
      "duration": 0.0487,
      "velocity": 98,
      "chip": "ym2612"
    },
    {
      "channel": 4,
      "note": 67,
      "start": 36.3218,
      "duration": 0.0544,
      "velocity": 95,
      "chip": "ym2612"
    },
    {
      "channel": 5,
      "note": 67,
      "start": 36.3234,
      "duration": 0.053,
      "velocity": 98,
      "chip": "ym2612"
    },
    {
      "channel": 0,
      "note": 71,
      "start": 36.3736,
      "duration": 0.0517,
      "velocity": 95,
      "chip": "ym2612"
    },
    {
      "channel": 2,
      "note": 71,
      "start": 36.3754,
      "duration": 0.0502,
      "velocity": 98,
      "chip": "ym2612"
    },
    {
      "channel": 4,
      "note": 71,
      "start": 36.3921,
      "duration": 0.055,
      "velocity": 95,
      "chip": "ym2612"
    },
    {
      "channel": 5,
      "note": 71,
      "start": 36.3938,
      "duration": 0.0536,
      "velocity": 98,
      "chip": "ym2612"
    },
    {
      "channel": 1,
      "note": 47,
      "start": 36.409,
      "duration": 0.0696,
      "velocity": 103,
      "chip": "ym2612"
    },
    {
      "channel": 0,
      "note": 67,
      "start": 36.4446,
      "duration": 0.0517,
      "velocity": 95,
      "chip": "ym2612"
    },
    {
      "channel": 2,
      "note": 67,
      "start": 36.4463,
      "duration": 0.0503,
      "velocity": 98,
      "chip": "ym2612"
    },
    {
      "channel": 4,
      "note": 76,
      "start": 36.4632,
      "duration": 0.0637,
      "velocity": 95,
      "chip": "ym2612"
    },
    {
      "channel": 5,
      "note": 76,
      "start": 36.4649,
      "duration": 0.0622,
      "velocity": 98,
      "chip": "ym2612"
    },
    {
      "channel": 0,
      "note": 64,
      "start": 36.5165,
      "duration": 0.0507,
      "velocity": 95,
      "chip": "ym2612"
    },
    {
      "channel": 1,
      "note": 47,
      "start": 36.5182,
      "duration": 0.1735,
      "velocity": 103,
      "chip": "ym2612"
    },
    {
      "channel": 2,
      "note": 64,
      "start": 36.5199,
      "duration": 0.0477,
      "velocity": 98,
      "chip": "ym2612"
    },
    {
      "channel": 3,
      "note": 61,
      "start": 36.5266,
      "duration": 0.0621,
      "velocity": 127,
      "chip": "ym2612"
    },
    {
      "channel": 4,
      "note": 71,
      "start": 36.5343,
      "duration": 0.0546,
      "velocity": 95,
      "chip": "ym2612"
    },
    {
      "channel": 5,
      "note": 71,
      "start": 36.536,
      "duration": 0.0532,
      "velocity": 98,
      "chip": "ym2612"
    },
    {
      "channel": 0,
      "note": 66,
      "start": 36.5866,
      "duration": 0.0517,
      "velocity": 95,
      "chip": "ym2612"
    },
    {
      "channel": 2,
      "note": 66,
      "start": 36.5884,
      "duration": 0.0502,
      "velocity": 98,
      "chip": "ym2612"
    },
    {
      "channel": 4,
      "note": 67,
      "start": 36.6052,
      "duration": 0.055,
      "velocity": 95,
      "chip": "ym2612"
    },
    {
      "channel": 5,
      "note": 67,
      "start": 36.6069,
      "duration": 0.0536,
      "velocity": 98,
      "chip": "ym2612"
    },
    {
      "channel": 0,
      "note": 67,
      "start": 36.6577,
      "duration": 0.0517,
      "velocity": 95,
      "chip": "ym2612"
    },
    {
      "channel": 2,
      "note": 67,
      "start": 36.6594,
      "duration": 0.0502,
      "velocity": 98,
      "chip": "ym2612"
    },
    {
      "channel": 4,
      "note": 64,
      "start": 36.6762,
      "duration": 0.0583,
      "velocity": 95,
      "chip": "ym2612"
    },
    {
      "channel": 5,
      "note": 64,
      "start": 36.6779,
      "duration": 0.0568,
      "velocity": 98,
      "chip": "ym2612"
    },
    {
      "channel": 0,
      "note": 66,
      "start": 36.7286,
      "duration": 0.0517,
      "velocity": 95,
      "chip": "ym2612"
    },
    {
      "channel": 1,
      "note": 47,
      "start": 36.7303,
      "duration": 0.0697,
      "velocity": 103,
      "chip": "ym2612"
    },
    {
      "channel": 2,
      "note": 66,
      "start": 36.732,
      "duration": 0.0487,
      "velocity": 98,
      "chip": "ym2612"
    },
    {
      "channel": 3,
      "note": 61,
      "start": 36.7342,
      "duration": 0.0678,
      "velocity": 127,
      "chip": "ym2612"
    },
    {
      "channel": 4,
      "note": 66,
      "start": 36.7473,
      "duration": 0.055,
      "velocity": 95,
      "chip": "ym2612"
    },
    {
      "channel": 5,
      "note": 66,
      "start": 36.7489,
      "duration": 0.0535,
      "velocity": 98,
      "chip": "ym2612"
    },
    {
      "channel": 0,
      "note": 67,
      "start": 36.7998,
      "duration": 0.0517,
      "velocity": 95,
      "chip": "ym2612"
    },
    {
      "channel": 2,
      "note": 67,
      "start": 36.8017,
      "duration": 0.0501,
      "velocity": 98,
      "chip": "ym2612"
    },
    {
      "channel": 4,
      "note": 67,
      "start": 36.8183,
      "duration": 0.0546,
      "velocity": 95,
      "chip": "ym2612"
    },
    {
      "channel": 5,
      "note": 67,
      "start": 36.82,
      "duration": 0.0532,
      "velocity": 98,
      "chip": "ym2612"
    },
    {
      "channel": 1,
      "note": 55,
      "start": 36.8352,
      "duration": 0.0696,
      "velocity": 103,
      "chip": "ym2612"
    },
    {
      "channel": 3,
      "note": 61,
      "start": 36.8407,
      "duration": 0.0645,
      "velocity": 127,
      "chip": "ym2612"
    },
    {
      "channel": 0,
      "note": 69,
      "start": 36.8708,
      "duration": 1.5254,
      "velocity": 95,
      "chip": "ym2612"
    },
    {
      "channel": 2,
      "note": 69,
      "start": 36.8725,
      "duration": 1.5241,
      "velocity": 98,
      "chip": "ym2612"
    },
    {
      "channel": 4,
      "note": 66,
      "start": 36.8889,
      "duration": 0.0538,
      "velocity": 95,
      "chip": "ym2612"
    },
    {
      "channel": 5,
      "note": 66,
      "start": 36.8905,
      "duration": 0.0523,
      "velocity": 98,
      "chip": "ym2612"
    },
    {
      "channel": 1,
      "note": 47,
      "start": 36.9417,
      "duration": 0.0696,
      "velocity": 103,
      "chip": "ym2612"
    },
    {
      "channel": 4,
      "note": 67,
      "start": 36.9605,
      "duration": 0.0517,
      "velocity": 95,
      "chip": "ym2612"
    },
    {
      "channel": 5,
      "note": 67,
      "start": 36.9622,
      "duration": 0.0502,
      "velocity": 98,
      "chip": "ym2612"
    },
    {
      "channel": 4,
      "note": 69,
      "start": 37.0314,
      "duration": 1.5257,
      "velocity": 95,
      "chip": "ym2612"
    },
    {
      "channel": 5,
      "note": 69,
      "start": 37.0332,
      "duration": 1.5242,
      "velocity": 98,
      "chip": "ym2612"
    },
    {
      "channel": 1,
      "note": 47,
      "start": 37.0483,
      "duration": 0.0696,
      "velocity": 103,
      "chip": "ym2612"
    },
    {
      "channel": 1,
      "note": 47,
      "start": 37.1552,
      "duration": 0.1758,
      "velocity": 103,
      "chip": "ym2612"
    },
    {
      "channel": 3,
      "note": 61,
      "start": 37.162,
      "duration": 0.0627,
      "velocity": 127,
      "chip": "ym2612"
    },
    {
      "channel": 1,
      "note": 47,
      "start": 37.368,
      "duration": 0.0694,
      "velocity": 103,
      "chip": "ym2612"
    },
    {
      "channel": 3,
      "note": 61,
      "start": 37.3702,
      "duration": 0.0676,
      "velocity": 127,
      "chip": "ym2612"
    },
    {
      "channel": 1,
      "note": 54,
      "start": 37.4744,
      "duration": 0.0703,
      "velocity": 103,
      "chip": "ym2612"
    },
    {
      "channel": 3,
      "note": 61,
      "start": 37.4799,
      "duration": 0.0653,
      "velocity": 127,
      "chip": "ym2612"
    },
    {
      "channel": 1,
      "note": 47,
      "start": 37.5809,
      "duration": 0.0696,
      "velocity": 103,
      "chip": "ym2612"
    },
    {
      "channel": 1,
      "note": 47,
      "start": 37.6875,
      "duration": 0.0696,
      "velocity": 103,
      "chip": "ym2612"
    },
    {
      "channel": 1,
      "note": 47,
      "start": 37.794,
      "duration": 0.1761,
      "velocity": 103,
      "chip": "ym2612"
    },
    {
      "channel": 3,
      "note": 61,
      "start": 37.8009,
      "duration": 0.0631,
      "velocity": 127,
      "chip": "ym2612"
    },
    {
      "channel": 1,
      "note": 47,
      "start": 38.0071,
      "duration": 0.0696,
      "velocity": 103,
      "chip": "ym2612"
    },
    {
      "channel": 3,
      "note": 61,
      "start": 38.0093,
      "duration": 0.0677,
      "velocity": 127,
      "chip": "ym2612"
    },
    {
      "channel": 1,
      "note": 55,
      "start": 38.1136,
      "duration": 0.2828,
      "velocity": 103,
      "chip": "ym2612"
    },
    {
      "channel": 3,
      "note": 61,
      "start": 38.1192,
      "duration": 0.0646,
      "velocity": 127,
      "chip": "ym2612"
    },
    {
      "channel": 0,
      "note": 74,
      "start": 38.4334,
      "duration": 0.0161,
      "velocity": 95,
      "chip": "ym2612"
    },
    {
      "channel": 1,
      "note": 47,
      "start": 38.4355,
      "duration": 0.1756,
      "velocity": 103,
      "chip": "ym2612"
    },
    {
      "channel": 2,
      "note": 74,
      "start": 38.4373,
      "duration": 0.0126,
      "velocity": 98,
      "chip": "ym2612"
    },
    {
      "channel": 3,
      "note": 61,
      "start": 38.444,
      "duration": 0.0624,
      "velocity": 127,
      "chip": "ym2612"
    },
    {
      "channel": 0,
      "note": 72,
      "start": 38.4688,
      "duration": 0.0161,
      "velocity": 95,
      "chip": "ym2612"
    },
    {
      "channel": 2,
      "note": 72,
      "start": 38.4706,
      "duration": 0.0146,
      "velocity": 98,
      "chip": "ym2612"
    },
    {
      "channel": 0,
      "note": 71,
      "start": 38.5043,
      "duration": 0.0162,
      "velocity": 95,
      "chip": "ym2612"
    },
    {
      "channel": 2,
      "note": 71,
      "start": 38.5061,
      "duration": 0.0147,
      "velocity": 98,
      "chip": "ym2612"
    },
    {
      "channel": 0,
      "note": 69,
      "start": 38.5398,
      "duration": 0.0162,
      "velocity": 95,
      "chip": "ym2612"
    },
    {
      "channel": 2,
      "note": 69,
      "start": 38.5416,
      "duration": 0.0148,
      "velocity": 98,
      "chip": "ym2612"
    },
    {
      "channel": 0,
      "note": 67,
      "start": 38.576,
      "duration": 0.0155,
      "velocity": 95,
      "chip": "ym2612"
    },
    {
      "channel": 2,
      "note": 67,
      "start": 38.5778,
      "duration": 0.014,
      "velocity": 98,
      "chip": "ym2612"
    },
    {
      "channel": 4,
      "note": 74,
      "start": 38.5943,
      "duration": 0.0192,
      "velocity": 95,
      "chip": "ym2612"
    },
    {
      "channel": 5,
      "note": 74,
      "start": 38.5961,
      "duration": 0.0176,
      "velocity": 98,
      "chip": "ym2612"
    },
    {
      "channel": 0,
      "note": 66,
      "start": 38.6108,
      "duration": 0.0162,
      "velocity": 95,
      "chip": "ym2612"
    },
    {
      "channel": 2,
      "note": 66,
      "start": 38.6127,
      "duration": 0.0146,
      "velocity": 98,
      "chip": "ym2612"
    },
    {
      "channel": 4,
      "note": 72,
      "start": 38.6296,
      "duration": 0.0226,
      "velocity": 95,
      "chip": "ym2612"
    },
    {
      "channel": 5,
      "note": 72,
      "start": 38.6313,
      "duration": 0.0211,
      "velocity": 98,
      "chip": "ym2612"
    },
    {
      "channel": 0,
      "note": 64,
      "start": 38.6463,
      "duration": 0.0162,
      "velocity": 95,
      "chip": "ym2612"
    },
    {
      "channel": 1,
      "note": 47,
      "start": 38.648,
      "duration": 0.0696,
      "velocity": 103,
      "chip": "ym2612"
    },
    {
      "channel": 2,
      "note": 64,
      "start": 38.6498,
      "duration": 0.0131,
      "velocity": 98,
      "chip": "ym2612"
    },
    {
      "channel": 3,
      "note": 61,
      "start": 38.6519,
      "duration": 0.0677,
      "velocity": 127,
      "chip": "ym2612"
    },
    {
      "channel": 4,
      "note": 71,
      "start": 38.6652,
      "duration": 0.0195,
      "velocity": 95,
      "chip": "ym2612"
    },
    {
      "channel": 5,
      "note": 71,
      "start": 38.6669,
      "duration": 0.0179,
      "velocity": 98,
      "chip": "ym2612"
    },
    {
      "channel": 0,
      "note": 62,
      "start": 38.6822,
      "duration": 0.0159,
      "velocity": 95,
      "chip": "ym2612"
    },
    {
      "channel": 2,
      "note": 62,
      "start": 38.6843,
      "duration": 0.0141,
      "velocity": 98,
      "chip": "ym2612"
    },
    {
      "channel": 4,
      "note": 69,
      "start": 38.7003,
      "duration": 0.0196,
      "velocity": 95,
      "chip": "ym2612"
    },
    {
      "channel": 5,
      "note": 69,
      "start": 38.702,
      "duration": 0.0181,
      "velocity": 98,
      "chip": "ym2612"
    },
    {
      "channel": 0,
      "note": 60,
      "start": 38.7174,
      "duration": 0.0161,
      "velocity": 95,
      "chip": "ym2612"
    },
    {
      "channel": 2,
      "note": 60,
      "start": 38.7193,
      "duration": 0.0146,
      "velocity": 98,
      "chip": "ym2612"
    },
    {
      "channel": 4,
      "note": 67,
      "start": 38.7362,
      "duration": 0.0256,
      "velocity": 95,
      "chip": "ym2612"
    },
    {
      "channel": 5,
      "note": 67,
      "start": 38.7379,
      "duration": 0.0241,
      "velocity": 98,
      "chip": "ym2612"
    },
    {
      "channel": 0,
      "note": 59,
      "start": 38.7529,
      "duration": 0.0171,
      "velocity": 95,
      "chip": "ym2612"
    },
    {
      "channel": 1,
      "note": 54,
      "start": 38.7545,
      "duration": 0.0696,
      "velocity": 103,
      "chip": "ym2612"
    },
    {
      "channel": 2,
      "note": 59,
      "start": 38.7562,
      "duration": 0.0141,
      "velocity": 98,
      "chip": "ym2612"
    },
    {
      "channel": 3,
      "note": 61,
      "start": 38.7615,
      "duration": 0.0646,
      "velocity": 127,
      "chip": "ym2612"
    },
    {
      "channel": 4,
      "note": 66,
      "start": 38.7726,
      "duration": 0.0179,
      "velocity": 95,
      "chip": "ym2612"
    },
    {
      "channel": 5,
      "note": 66,
      "start": 38.7743,
      "duration": 0.0165,
      "velocity": 98,
      "chip": "ym2612"
    },
    {
      "channel": 0,
      "note": 57,
      "start": 38.7884,
      "duration": 0.0162,
      "velocity": 95,
      "chip": "ym2612"
    },
    {
      "channel": 2,
      "note": 57,
      "start": 38.7902,
      "duration": 0.0148,
      "velocity": 98,
      "chip": "ym2612"
    },
    {
      "channel": 4,
      "note": 64,
      "start": 38.8068,
      "duration": 0.0195,
      "velocity": 95,
      "chip": "ym2612"
    },
    {
      "channel": 5,
      "note": 64,
      "start": 38.8084,
      "duration": 0.0181,
      "velocity": 98,
      "chip": "ym2612"
    },
    {
      "channel": 0,
      "note": 55,
      "start": 38.8239,
      "duration": 0.0162,
      "velocity": 95,
      "chip": "ym2612"
    },
    {
      "channel": 2,
      "note": 55,
      "start": 38.8258,
      "duration": 0.0146,
      "velocity": 98,
      "chip": "ym2612"
    },
    {
      "channel": 4,
      "note": 62,
      "start": 38.843,
      "duration": 0.0205,
      "velocity": 95,
      "chip": "ym2612"
    },
    {
      "channel": 5,
      "note": 62,
      "start": 38.8449,
      "duration": 0.0188,
      "velocity": 98,
      "chip": "ym2612"
    },
    {
      "channel": 0,
      "note": 54,
      "start": 38.8594,
      "duration": 0.0162,
      "velocity": 95,
      "chip": "ym2612"
    },
    {
      "channel": 1,
      "note": 47,
      "start": 38.861,
      "duration": 0.07,
      "velocity": 103,
      "chip": "ym2612"
    },
    {
      "channel": 2,
      "note": 54,
      "start": 38.8627,
      "duration": 0.0132,
      "velocity": 98,
      "chip": "ym2612"
    },
    {
      "channel": 4,
      "note": 60,
      "start": 38.8783,
      "duration": 0.0192,
      "velocity": 95,
      "chip": "ym2612"
    },
    {
      "channel": 5,
      "note": 60,
      "start": 38.8799,
      "duration": 0.0177,
      "velocity": 98,
      "chip": "ym2612"
    },
    {
      "channel": 0,
      "note": 52,
      "start": 38.8949,
      "duration": 0.0162,
      "velocity": 95,
      "chip": "ym2612"
    },
    {
      "channel": 2,
      "note": 52,
      "start": 38.8966,
      "duration": 0.0148,
      "velocity": 98,
      "chip": "ym2612"
    },
    {
      "channel": 4,
      "note": 59,
      "start": 38.9138,
      "duration": 0.0201,
      "velocity": 95,
      "chip": "ym2612"
    },
    {
      "channel": 5,
      "note": 59,
      "start": 38.9154,
      "duration": 0.0186,
      "velocity": 98,
      "chip": "ym2612"
    },
    {
      "channel": 0,
      "note": 50,
      "start": 38.9307,
      "duration": 0.0159,
      "velocity": 95,
      "chip": "ym2612"
    },
    {
      "channel": 2,
      "note": 50,
      "start": 38.933,
      "duration": 0.014,
      "velocity": 98,
      "chip": "ym2612"
    },
    {
      "channel": 4,
      "note": 57,
      "start": 38.9492,
      "duration": 0.021,
      "velocity": 95,
      "chip": "ym2612"
    },
    {
      "channel": 5,
      "note": 57,
      "start": 38.951,
      "duration": 0.0193,
      "velocity": 98,
      "chip": "ym2612"
    },
    {
      "channel": 0,
      "note": 48,
      "start": 38.9659,
      "duration": 0.0162,
      "velocity": 95,
      "chip": "ym2612"
    },
    {
      "channel": 1,
      "note": 47,
      "start": 38.9677,
      "duration": 0.0702,
      "velocity": 103,
      "chip": "ym2612"
    },
    {
      "channel": 2,
      "note": 48,
      "start": 38.9694,
      "duration": 0.0131,
      "velocity": 98,
      "chip": "ym2612"
    },
    {
      "channel": 4,
      "note": 55,
      "start": 38.9848,
      "duration": 0.0193,
      "velocity": 95,
      "chip": "ym2612"
    },
    {
      "channel": 5,
      "note": 55,
      "start": 38.9865,
      "duration": 0.0178,
      "velocity": 98,
      "chip": "ym2612"
    },
    {
      "channel": 0,
      "note": 47,
      "start": 39.0015,
      "duration": 0.0162,
      "velocity": 95,
      "chip": "ym2612"
    },
    {
      "channel": 2,
      "note": 47,
      "start": 39.0033,
      "duration": 0.0148,
      "velocity": 98,
      "chip": "ym2612"
    },
    {
      "channel": 4,
      "note": 54,
      "start": 39.0203,
      "duration": 0.0206,
      "velocity": 95,
      "chip": "ym2612"
    },
    {
      "channel": 5,
      "note": 54,
      "start": 39.022,
      "duration": 0.0192,
      "velocity": 98,
      "chip": "ym2612"
    },
    {
      "channel": 0,
      "note": 45,
      "start": 39.0376,
      "duration": 1.916,
      "velocity": 95,
      "chip": "ym2612"
    },
    {
      "channel": 2,
      "note": 45,
      "start": 39.0402,
      "duration": 1.9143,
      "velocity": 98,
      "chip": "ym2612"
    },
    {
      "channel": 4,
      "note": 52,
      "start": 39.0556,
      "duration": 0.024,
      "velocity": 95,
      "chip": "ym2612"
    },
    {
      "channel": 5,
      "note": 52,
      "start": 39.0572,
      "duration": 0.0226,
      "velocity": 98,
      "chip": "ym2612"
    },
    {
      "channel": 1,
      "note": 47,
      "start": 39.0725,
      "duration": 0.1761,
      "velocity": 103,
      "chip": "ym2612"
    },
    {
      "channel": 3,
      "note": 61,
      "start": 39.0793,
      "duration": 0.0631,
      "velocity": 127,
      "chip": "ym2612"
    },
    {
      "channel": 4,
      "note": 50,
      "start": 39.0914,
      "duration": 0.0155,
      "velocity": 95,
      "chip": "ym2612"
    },
    {
      "channel": 5,
      "note": 50,
      "start": 39.0935,
      "duration": 0.0137,
      "velocity": 98,
      "chip": "ym2612"
    },
    {
      "channel": 4,
      "note": 48,
      "start": 39.1262,
      "duration": 0.0164,
      "velocity": 95,
      "chip": "ym2612"
    },
    {
      "channel": 5,
      "note": 48,
      "start": 39.1278,
      "duration": 0.015,
      "velocity": 98,
      "chip": "ym2612"
    },
    {
      "channel": 4,
      "note": 47,
      "start": 39.1621,
      "duration": 0.0163,
      "velocity": 95,
      "chip": "ym2612"
    },
    {
      "channel": 5,
      "note": 47,
      "start": 39.1638,
      "duration": 0.0148,
      "velocity": 98,
      "chip": "ym2612"
    },
    {
      "channel": 4,
      "note": 45,
      "start": 39.1983,
      "duration": 1.9339,
      "velocity": 95,
      "chip": "ym2612"
    },
    {
      "channel": 5,
      "note": 45,
      "start": 39.2007,
      "duration": 1.9322,
      "velocity": 98,
      "chip": "ym2612"
    },
    {
      "channel": 1,
      "note": 47,
      "start": 39.2856,
      "duration": 0.0695,
      "velocity": 103,
      "chip": "ym2612"
    },
    {
      "channel": 3,
      "note": 61,
      "start": 39.2879,
      "duration": 0.0677,
      "velocity": 127,
      "chip": "ym2612"
    },
    {
      "channel": 1,
      "note": 55,
      "start": 39.3921,
      "duration": 0.0712,
      "velocity": 103,
      "chip": "ym2612"
    },
    {
      "channel": 3,
      "note": 61,
      "start": 39.3976,
      "duration": 0.0679,
      "velocity": 127,
      "chip": "ym2612"
    },
    {
      "channel": 1,
      "note": 47,
      "start": 39.4986,
      "duration": 0.07,
      "velocity": 103,
      "chip": "ym2612"
    },
    {
      "channel": 1,
      "note": 47,
      "start": 39.608,
      "duration": 0.0686,
      "velocity": 103,
      "chip": "ym2612"
    },
    {
      "channel": 1,
      "note": 47,
      "start": 39.7121,
      "duration": 0.1778,
      "velocity": 103,
      "chip": "ym2612"
    },
    {
      "channel": 3,
      "note": 61,
      "start": 39.7194,
      "duration": 0.0632,
      "velocity": 127,
      "chip": "ym2612"
    },
    {
      "channel": 1,
      "note": 47,
      "start": 39.9252,
      "duration": 0.0704,
      "velocity": 103,
      "chip": "ym2612"
    },
    {
      "channel": 3,
      "note": 61,
      "start": 39.9279,
      "duration": 0.0685,
      "velocity": 127,
      "chip": "ym2612"
    },
    {
      "channel": 1,
      "note": 54,
      "start": 40.0334,
      "duration": 0.0695,
      "velocity": 103,
      "chip": "ym2612"
    },
    {
      "channel": 3,
      "note": 61,
      "start": 40.0411,
      "duration": 0.0642,
      "velocity": 127,
      "chip": "ym2612"
    },
    {
      "channel": 1,
      "note": 47,
      "start": 40.1383,
      "duration": 0.0696,
      "velocity": 103,
      "chip": "ym2612"
    },
    {
      "channel": 1,
      "note": 47,
      "start": 40.2466,
      "duration": 0.0695,
      "velocity": 103,
      "chip": "ym2612"
    },
    {
      "channel": 1,
      "note": 47,
      "start": 40.3514,
      "duration": 0.1776,
      "velocity": 103,
      "chip": "ym2612"
    },
    {
      "channel": 3,
      "note": 61,
      "start": 40.3587,
      "duration": 0.063,
      "velocity": 127,
      "chip": "ym2612"
    },
    {
      "channel": 1,
      "note": 47,
      "start": 40.5644,
      "duration": 0.07,
      "velocity": 103,
      "chip": "ym2612"
    },
    {
      "channel": 3,
      "note": 61,
      "start": 40.5672,
      "duration": 0.068,
      "velocity": 127,
      "chip": "ym2612"
    },
    {
      "channel": 1,
      "note": 55,
      "start": 40.6725,
      "duration": 0.2813,
      "velocity": 103,
      "chip": "ym2612"
    },
    {
      "channel": 3,
      "note": 61,
      "start": 40.6799,
      "duration": 0.0647,
      "velocity": 127,
      "chip": "ym2612"
    },
    {
      "channel": 0,
      "note": 60,
      "start": 40.9947,
      "duration": 0.1892,
      "velocity": 103,
      "chip": "ym2612"
    },
    {
      "channel": 1,
      "note": 52,
      "start": 40.9976,
      "duration": 0.1866,
      "velocity": 103,
      "chip": "ym2612"
    },
    {
      "channel": 2,
      "note": 57,
      "start": 41.0039,
      "duration": 0.1805,
      "velocity": 103,
      "chip": "ym2612"
    },
    {
      "channel": 3,
      "note": 61,
      "start": 41.0107,
      "duration": 0.0672,
      "velocity": 127,
      "chip": "ym2612"
    },
    {
      "channel": 4,
      "note": 60,
      "start": 41.1734,
      "duration": 0.1712,
      "velocity": 103,
      "chip": "ym2612"
    },
    {
      "channel": 5,
      "note": 57,
      "start": 41.18,
      "duration": 0.165,
      "velocity": 103,
      "chip": "ym2612"
    },
    {
      "channel": 0,
      "note": 60,
      "start": 41.221,
      "duration": 0.176,
      "velocity": 103,
      "chip": "ym2612"
    },
    {
      "channel": 1,
      "note": 52,
      "start": 41.2227,
      "duration": 0.0679,
      "velocity": 103,
      "chip": "ym2612"
    },
    {
      "channel": 2,
      "note": 57,
      "start": 41.2244,
      "duration": 0.173,
      "velocity": 103,
      "chip": "ym2612"
    },
    {
      "channel": 3,
      "note": 61,
      "start": 41.2265,
      "duration": 0.0646,
      "velocity": 127,
      "chip": "ym2612"
    },
    {
      "channel": 1,
      "note": 59,
      "start": 41.3275,
      "duration": 0.0697,
      "velocity": 103,
      "chip": "ym2612"
    },
    {
      "channel": 3,
      "note": 61,
      "start": 41.333,
      "duration": 0.0647,
      "velocity": 127,
      "chip": "ym2612"
    },
    {
      "channel": 4,
      "note": 60,
      "start": 41.3812,
      "duration": 0.1766,
      "velocity": 103,
      "chip": "ym2612"
    },
    {
      "channel": 5,
      "note": 57,
      "start": 41.383,
      "duration": 0.1749,
      "velocity": 103,
      "chip": "ym2612"
    },
    {
      "channel": 1,
      "note": 52,
      "start": 41.4341,
      "duration": 0.0696,
      "velocity": 103,
      "chip": "ym2612"
    },
    {
      "channel": 0,
      "note": 59,
      "start": 41.5406,
      "duration": 0.7097,
      "velocity": 103,
      "chip": "ym2612"
    },
    {
      "channel": 1,
      "note": 52,
      "start": 41.5423,
      "duration": 0.0679,
      "velocity": 103,
      "chip": "ym2612"
    },
    {
      "channel": 2,
      "note": 55,
      "start": 41.544,
      "duration": 0.7068,
      "velocity": 103,
      "chip": "ym2612"
    },
    {
      "channel": 1,
      "note": 52,
      "start": 41.6472,
      "duration": 0.1761,
      "velocity": 103,
      "chip": "ym2612"
    },
    {
      "channel": 3,
      "note": 61,
      "start": 41.654,
      "duration": 0.063,
      "velocity": 127,
      "chip": "ym2612"
    },
    {
      "channel": 4,
      "note": 59,
      "start": 41.7009,
      "duration": 0.7092,
      "velocity": 103,
      "chip": "ym2612"
    },
    {
      "channel": 5,
      "note": 55,
      "start": 41.7027,
      "duration": 0.7076,
      "velocity": 103,
      "chip": "ym2612"
    },
    {
      "channel": 1,
      "note": 52,
      "start": 41.8608,
      "duration": 0.069,
      "velocity": 103,
      "chip": "ym2612"
    },
    {
      "channel": 3,
      "note": 61,
      "start": 41.8631,
      "duration": 0.0672,
      "velocity": 127,
      "chip": "ym2612"
    },
    {
      "channel": 1,
      "note": 60,
      "start": 41.9668,
      "duration": 0.0697,
      "velocity": 103,
      "chip": "ym2612"
    },
    {
      "channel": 3,
      "note": 61,
      "start": 41.9723,
      "duration": 0.0646,
      "velocity": 127,
      "chip": "ym2612"
    },
    {
      "channel": 1,
      "note": 52,
      "start": 42.0733,
      "duration": 0.0696,
      "velocity": 103,
      "chip": "ym2612"
    },
    {
      "channel": 1,
      "note": 52,
      "start": 42.1798,
      "duration": 0.0707,
      "velocity": 103,
      "chip": "ym2612"
    },
    {
      "channel": 0,
      "note": 55,
      "start": 42.2866,
      "duration": 0.0693,
      "velocity": 103,
      "chip": "ym2612"
    },
    {
      "channel": 1,
      "note": 52,
      "start": 42.2883,
      "duration": 0.1744,
      "velocity": 103,
      "chip": "ym2612"
    },
    {
      "channel": 2,
      "note": 55,
      "start": 42.29,
      "duration": 0.0129,
      "velocity": 103,
      "chip": "ym2612"
    },
    {
      "channel": 3,
      "note": 61,
      "start": 42.2967,
      "duration": 0.0597,
      "velocity": 127,
      "chip": "ym2612"
    },
    {
      "channel": 0,
      "note": 57,
      "start": 42.3929,
      "duration": 0.0695,
      "velocity": 103,
      "chip": "ym2612"
    },
    {
      "channel": 4,
      "note": 55,
      "start": 42.4473,
      "duration": 0.0693,
      "velocity": 103,
      "chip": "ym2612"
    },
    {
      "channel": 5,
      "note": 55,
      "start": 42.449,
      "duration": 0.0146,
      "velocity": 103,
      "chip": "ym2612"
    },
    {
      "channel": 0,
      "note": 59,
      "start": 42.4995,
      "duration": 0.0694,
      "velocity": 103,
      "chip": "ym2612"
    },
    {
      "channel": 1,
      "note": 52,
      "start": 42.5014,
      "duration": 0.0678,
      "velocity": 103,
      "chip": "ym2612"
    },
    {
      "channel": 3,
      "note": 61,
      "start": 42.5036,
      "duration": 0.066,
      "velocity": 127,
      "chip": "ym2612"
    },
    {
      "channel": 4,
      "note": 57,
      "start": 42.5532,
      "duration": 0.07,
      "velocity": 103,
      "chip": "ym2612"
    },
    {
      "channel": 0,
      "note": 60,
      "start": 42.606,
      "duration": 0.0695,
      "velocity": 103,
      "chip": "ym2612"
    },
    {
      "channel": 1,
      "note": 59,
      "start": 42.6077,
      "duration": 0.068,
      "velocity": 103,
      "chip": "ym2612"
    },
    {
      "channel": 3,
      "note": 61,
      "start": 42.6131,
      "duration": 0.063,
      "velocity": 127,
      "chip": "ym2612"
    },
    {
      "channel": 4,
      "note": 59,
      "start": 42.6597,
      "duration": 0.07,
      "velocity": 103,
      "chip": "ym2612"
    },
    {
      "channel": 0,
      "note": 59,
      "start": 42.7125,
      "duration": 0.0695,
      "velocity": 103,
      "chip": "ym2612"
    },
    {
      "channel": 1,
      "note": 52,
      "start": 42.7141,
      "duration": 0.0681,
      "velocity": 103,
      "chip": "ym2612"
    },
    {
      "channel": 4,
      "note": 60,
      "start": 42.7668,
      "duration": 0.0695,
      "velocity": 103,
      "chip": "ym2612"
    },
    {
      "channel": 0,
      "note": 57,
      "start": 42.8191,
      "duration": 0.07,
      "velocity": 103,
      "chip": "ym2612"
    },
    {
      "channel": 1,
      "note": 52,
      "start": 42.8208,
      "duration": 0.0686,
      "velocity": 103,
      "chip": "ym2612"
    },
    {
      "channel": 4,
      "note": 59,
      "start": 42.8732,
      "duration": 0.0696,
      "velocity": 103,
      "chip": "ym2612"
    },
    {
      "channel": 0,
      "note": 59,
      "start": 42.9256,
      "duration": 0.0695,
      "velocity": 103,
      "chip": "ym2612"
    },
    {
      "channel": 1,
      "note": 52,
      "start": 42.9273,
      "duration": 0.1746,
      "velocity": 103,
      "chip": "ym2612"
    },
    {
      "channel": 3,
      "note": 61,
      "start": 42.9341,
      "duration": 0.0615,
      "velocity": 127,
      "chip": "ym2612"
    },
    {
      "channel": 4,
      "note": 57,
      "start": 42.9793,
      "duration": 0.07,
      "velocity": 103,
      "chip": "ym2612"
    },
    {
      "channel": 0,
      "note": 57,
      "start": 43.0322,
      "duration": 0.0695,
      "velocity": 103,
      "chip": "ym2612"
    },
    {
      "channel": 4,
      "note": 59,
      "start": 43.0871,
      "duration": 0.0688,
      "velocity": 103,
      "chip": "ym2612"
    },
    {
      "channel": 0,
      "note": 55,
      "start": 43.1387,
      "duration": 0.0695,
      "velocity": 103,
      "chip": "ym2612"
    },
    {
      "channel": 1,
      "note": 52,
      "start": 43.1404,
      "duration": 0.068,
      "velocity": 103,
      "chip": "ym2612"
    },
    {
      "channel": 3,
      "note": 61,
      "start": 43.1426,
      "duration": 0.0662,
      "velocity": 127,
      "chip": "ym2612"
    },
    {
      "channel": 4,
      "note": 57,
      "start": 43.1924,
      "duration": 0.07,
      "velocity": 103,
      "chip": "ym2612"
    },
    {
      "channel": 0,
      "note": 57,
      "start": 43.2452,
      "duration": 0.0695,
      "velocity": 103,
      "chip": "ym2612"
    },
    {
      "channel": 1,
      "note": 60,
      "start": 43.2469,
      "duration": 0.281,
      "velocity": 103,
      "chip": "ym2612"
    },
    {
      "channel": 3,
      "note": 61,
      "start": 43.2524,
      "duration": 0.0628,
      "velocity": 127,
      "chip": "ym2612"
    },
    {
      "channel": 4,
      "note": 55,
      "start": 43.2989,
      "duration": 0.07,
      "velocity": 103,
      "chip": "ym2612"
    },
    {
      "channel": 0,
      "note": 55,
      "start": 43.3518,
      "duration": 0.0695,
      "velocity": 103,
      "chip": "ym2612"
    },
    {
      "channel": 4,
      "note": 57,
      "start": 43.4059,
      "duration": 0.0695,
      "velocity": 103,
      "chip": "ym2612"
    },
    {
      "channel": 0,
      "note": 54,
      "start": 43.4583,
      "duration": 0.0695,
      "velocity": 103,
      "chip": "ym2612"
    },
    {
      "channel": 4,
      "note": 55,
      "start": 43.5124,
      "duration": 0.0638,
      "velocity": 103,
      "chip": "ym2612"
    },
    {
      "channel": 0,
      "note": 60,
      "start": 43.5652,
      "duration": 0.0111,
      "velocity": 103,
      "chip": "ym2612"
    },
    {
      "channel": 1,
      "note": 52,
      "start": 43.5672,
      "duration": 0.009,
      "velocity": 103,
      "chip": "ym2612"
    },
    {
      "channel": 2,
      "note": 57,
      "start": 43.5693,
      "duration": 0.0069,
      "velocity": 103,
      "chip": "ym2612"
    },
    {
      "channel": 3,
      "note": 61,
      "start": 43.576,
      "duration": 0.0002,
      "velocity": 127,
      "chip": "ym2612"
    }
  ]
}