{
  "track_name": "03 - Day 3- Tidal Surge, Day 12- Nightscape, Bonus Round",
  "duration_sec": 53.933,
  "sample_rate": 44100,
  "note_count": 952,
  "unique_pitches": 38,
  "pitch_range": 62,
  "avg_note_duration": 0.1087,
  "reconstruction_stats": {
    "notes_reconstructed": 952,
    "keyon_events": 952,
    "keyoff_events": 952,
    "orphan_keyons": 0,
    "unique_pitches": 38,
    "pitch_range": 62,
    "avg_duration_sec": 0.1087
  },
  "metadata": {
    "source": "V\\Vectorman\\03 - Day 3- Tidal Surge, Day 12- Nightscape, Bonus Round.vgz"
  },
  "notes": [
    {
      "channel": 0,
      "note": 45,
      "start": 0.0,
      "duration": 0.0,
      "velocity": 126,
      "chip": "ym2612"
    },
    {
      "channel": 0,
      "note": 45,
      "start": 0.0,
      "duration": 0.0,
      "velocity": 126,
      "chip": "ym2612"
    },
    {
      "channel": 0,
      "note": 40,
      "start": 0.0,
      "duration": 0.0,
      "velocity": 1,
      "chip": "ym2612"
    },
    {
      "channel": 1,
      "note": 60,
      "start": 0.0,
      "duration": 0.0,
      "velocity": 117,
      "chip": "ym2612"
    },
    {
      "channel": 1,
      "note": 64,
      "start": 0.0,
      "duration": 0.0,
      "velocity": 117,
      "chip": "ym2612"
    },
    {
      "channel": 1,
      "note": 64,
      "start": 0.0,
      "duration": 0.0,
      "velocity": 117,
      "chip": "ym2612"
    },
    {
      "channel": 3,
      "note": 64,
      "start": 0.0,
      "duration": 0.0,
      "velocity": 117,
      "chip": "ym2612"
    },
    {
      "channel": 3,
      "note": 60,
      "start": 0.0,
      "duration": 0.0,
      "velocity": 117,
      "chip": "ym2612"
    },
    {
      "channel": 3,
      "note": 60,
      "start": 0.0,
      "duration": 0.0,
      "velocity": 117,
      "chip": "ym2612"
    },
    {
      "channel": 0,
      "note": 45,
      "start": 0.0002,
      "duration": 0.191,
      "velocity": 126,
      "chip": "ym2612"
    },
    {
      "channel": 1,
      "note": 60,
      "start": 0.1961,
      "duration": 0.1118,
      "velocity": 117,
      "chip": "ym2612"
    },
    {
      "channel": 3,
      "note": 64,
      "start": 0.1989,
      "duration": 0.1092,
      "velocity": 117,
      "chip": "ym2612"
    },
    {
      "channel": 0,
      "note": 45,
      "start": 0.4113,
      "duration": 0.1798,
      "velocity": 126,
      "chip": "ym2612"
    },
    {
      "channel": 1,
      "note": 60,
      "start": 0.6277,
      "duration": 0.0968,
      "velocity": 117,
      "chip": "ym2612"
    },
    {
      "channel": 3,
      "note": 64,
      "start": 0.6308,
      "duration": 0.0938,
      "velocity": 117,
      "chip": "ym2612"
    },
    {
      "channel": 0,
      "note": 45,
      "start": 0.7283,
      "duration": 0.1628,
      "velocity": 126,
      "chip": "ym2612"
    },
    {
      "channel": 1,
      "note": 60,
      "start": 0.9443,
      "duration": 0.0969,
      "velocity": 117,
      "chip": "ym2612"
    },
    {
      "channel": 3,
      "note": 64,
      "start": 0.9471,
      "duration": 0.0943,
      "velocity": 117,
      "chip": "ym2612"
    },
    {
      "channel": 0,
      "note": 45,
      "start": 1.0449,
      "duration": 0.2129,
      "velocity": 126,
      "chip": "ym2612"
    },
    {
      "channel": 1,
      "note": 64,
      "start": 1.2611,
      "duration": 0.0967,
      "velocity": 117,
      "chip": "ym2612"
    },
    {
      "channel": 3,
      "note": 60,
      "start": 1.2638,
      "duration": 0.0941,
      "velocity": 117,
      "chip": "ym2612"
    },
    {
      "channel": 0,
      "note": 45,
      "start": 1.4614,
      "duration": 0.1796,
      "velocity": 126,
      "chip": "ym2612"
    },
    {
      "channel": 1,
      "note": 64,
      "start": 1.6777,
      "duration": 0.0969,
      "velocity": 117,
      "chip": "ym2612"
    },
    {
      "channel": 3,
      "note": 60,
      "start": 1.6804,
      "duration": 0.0943,
      "velocity": 117,
      "chip": "ym2612"
    },
    {
      "channel": 0,
      "note": 40,
      "start": 1.6834,
      "duration": 0.2077,
      "velocity": 126,
      "chip": "ym2612"
    },
    {
      "channel": 1,
      "note": 55,
      "start": 1.8945,
      "duration": 0.0967,
      "velocity": 117,
      "chip": "ym2612"
    },
    {
      "channel": 3,
      "note": 59,
      "start": 1.8976,
      "duration": 0.0938,
      "velocity": 117,
      "chip": "ym2612"
    },
    {
      "channel": 0,
      "note": 40,
      "start": 2.0947,
      "duration": 0.1964,
      "velocity": 126,
      "chip": "ym2612"
    },
    {
      "channel": 1,
      "note": 59,
      "start": 2.311,
      "duration": 0.0968,
      "velocity": 117,
      "chip": "ym2612"
    },
    {
      "channel": 3,
      "note": 55,
      "start": 2.3138,
      "duration": 0.0943,
      "velocity": 117,
      "chip": "ym2612"
    },
    {
      "channel": 0,
      "note": 41,
      "start": 2.4114,
      "duration": 0.163,
      "velocity": 126,
      "chip": "ym2612"
    },
    {
      "channel": 1,
      "note": 57,
      "start": 2.6278,
      "duration": 0.0968,
      "velocity": 117,
      "chip": "ym2612"
    },
    {
      "channel": 3,
      "note": 60,
      "start": 2.6305,
      "duration": 0.0942,
      "velocity": 117,
      "chip": "ym2612"
    },
    {
      "channel": 0,
      "note": 41,
      "start": 2.7287,
      "duration": 0.1959,
      "velocity": 126,
      "chip": "ym2612"
    },
    {
      "channel": 1,
      "note": 57,
      "start": 2.9444,
      "duration": 0.0968,
      "velocity": 117,
      "chip": "ym2612"
    },
    {
      "channel": 3,
      "note": 60,
      "start": 2.9471,
      "duration": 0.0942,
      "velocity": 117,
      "chip": "ym2612"
    },
    {
      "channel": 0,
      "note": 41,
      "start": 3.1447,
      "duration": 0.1464,
      "velocity": 126,
      "chip": "ym2612"
    },
    {
      "channel": 4,
      "note": 64,
      "start": 3.3627,
      "duration": 0.0955,
      "velocity": 117,
      "chip": "ym2612"
    },
    {
      "channel": 5,
      "note": 60,
      "start": 3.3659,
      "duration": 0.0924,
      "velocity": 117,
      "chip": "ym2612"
    },
    {
      "channel": 1,
      "note": 60,
      "start": 3.3687,
      "duration": 0.0892,
      "velocity": 117,
      "chip": "ym2612"
    },
    {
      "channel": 3,
      "note": 57,
      "start": 3.3717,
      "duration": 0.0863,
      "velocity": 117,
      "chip": "ym2612"
    },
    {
      "channel": 0,
      "note": 48,
      "start": 3.3749,
      "duration": 0.1996,
      "velocity": 126,
      "chip": "ym2612"
    },
    {
      "channel": 1,
      "note": 60,
      "start": 3.5778,
      "duration": 0.0968,
      "velocity": 117,
      "chip": "ym2612"
    },
    {
      "channel": 3,
      "note": 64,
      "start": 3.5806,
      "duration": 0.0941,
      "velocity": 117,
      "chip": "ym2612"
    },
    {
      "channel": 4,
      "note": 64,
      "start": 3.7776,
      "duration": 0.1137,
      "velocity": 117,
      "chip": "ym2612"
    },
    {
      "channel": 5,
      "note": 60,
      "start": 3.7804,
      "duration": 0.111,
      "velocity": 117,
      "chip": "ym2612"
    },
    {
      "channel": 0,
      "note": 45,
      "start": 3.7836,
      "duration": 0.1743,
      "velocity": 126,
      "chip": "ym2612"
    },
    {
      "channel": 1,
      "note": 60,
      "start": 3.9944,
      "duration": 0.0968,
      "velocity": 117,
      "chip": "ym2612"
    },
    {
      "channel": 3,
      "note": 64,
      "start": 3.9971,
      "duration": 0.0942,
      "velocity": 117,
      "chip": "ym2612"
    },
    {
      "channel": 4,
      "note": 64,
      "start": 4.0946,
      "duration": 0.1134,
      "velocity": 117,
      "chip": "ym2612"
    },
    {
      "channel": 5,
      "note": 60,
      "start": 4.0974,
      "duration": 0.1107,
      "velocity": 117,
      "chip": "ym2612"
    },
    {
      "channel": 0,
      "note": 45,
      "start": 4.1003,
      "duration": 0.1408,
      "velocity": 126,
      "chip": "ym2612"
    },
    {
      "channel": 1,
      "note": 60,
      "start": 4.3111,
      "duration": 0.0966,
      "velocity": 117,
      "chip": "ym2612"
    },
    {
      "channel": 3,
      "note": 64,
      "start": 4.3138,
      "duration": 0.0941,
      "velocity": 117,
      "chip": "ym2612"
    },
    {
      "channel": 4,
      "note": 60,
      "start": 4.4112,
      "duration": 0.1135,
      "velocity": 117,
      "chip": "ym2612"
    },
    {
      "channel": 5,
      "note": 64,
      "start": 4.414,
      "duration": 0.1108,
      "velocity": 117,
      "chip": "ym2612"
    },
    {
      "channel": 0,
      "note": 45,
      "start": 4.4171,
      "duration": 0.2073,
      "velocity": 126,
      "chip": "ym2612"
    },
    {
      "channel": 1,
      "note": 64,
      "start": 4.6278,
      "duration": 0.0966,
      "velocity": 117,
      "chip": "ym2612"
    },
    {
      "channel": 3,
      "note": 60,
      "start": 4.6309,
      "duration": 0.0937,
      "velocity": 117,
      "chip": "ym2612"
    },
    {
      "channel": 4,
      "note": 60,
      "start": 4.8444,
      "duration": 0.0969,
      "velocity": 117,
      "chip": "ym2612"
    },
    {
      "channel": 5,
      "note": 64,
      "start": 4.8476,
      "duration": 0.0938,
      "velocity": 117,
      "chip": "ym2612"
    },
    {
      "channel": 0,
      "note": 45,
      "start": 4.851,
      "duration": 0.1735,
      "velocity": 126,
      "chip": "ym2612"
    },
    {
      "channel": 4,
      "note": 59,
      "start": 5.0444,
      "duration": 0.1137,
      "velocity": 117,
      "chip": "ym2612"
    },
    {
      "channel": 5,
      "note": 55,
      "start": 5.0472,
      "duration": 0.1111,
      "velocity": 117,
      "chip": "ym2612"
    },
    {
      "channel": 1,
      "note": 64,
      "start": 5.05,
      "duration": 0.1078,
      "velocity": 117,
      "chip": "ym2612"
    },
    {
      "channel": 3,
      "note": 60,
      "start": 5.0527,
      "duration": 0.1053,
      "velocity": 117,
      "chip": "ym2612"
    },
    {
      "channel": 0,
      "note": 40,
      "start": 5.0557,
      "duration": 0.2354,
      "velocity": 126,
      "chip": "ym2612"
    },
    {
      "channel": 1,
      "note": 55,
      "start": 5.2611,
      "duration": 0.0967,
      "velocity": 117,
      "chip": "ym2612"
    },
    {
      "channel": 3,
      "note": 59,
      "start": 5.2638,
      "duration": 0.0941,
      "velocity": 117,
      "chip": "ym2612"
    },
    {
      "channel": 4,
      "note": 55,
      "start": 5.4778,
      "duration": 0.0968,
      "velocity": 117,
      "chip": "ym2612"
    },
    {
      "channel": 5,
      "note": 59,
      "start": 5.4806,
      "duration": 0.0942,
      "velocity": 117,
      "chip": "ym2612"
    },
    {
      "channel": 0,
      "note": 40,
      "start": 5.4836,
      "duration": 0.1908,
      "velocity": 126,
      "chip": "ym2612"
    },
    {
      "channel": 1,
      "note": 59,
      "start": 5.6778,
      "duration": 0.0968,
      "velocity": 117,
      "chip": "ym2612"
    },
    {
      "channel": 3,
      "note": 55,
      "start": 5.6806,
      "duration": 0.0941,
      "velocity": 117,
      "chip": "ym2612"
    },
    {
      "channel": 4,
      "note": 60,
      "start": 5.778,
      "duration": 0.1134,
      "velocity": 117,
      "chip": "ym2612"
    },
    {
      "channel": 5,
      "note": 57,
      "start": 5.7808,
      "duration": 0.1107,
      "velocity": 117,
      "chip": "ym2612"
    },
    {
      "channel": 0,
      "note": 41,
      "start": 5.7837,
      "duration": 0.1574,
      "velocity": 126,
      "chip": "ym2612"
    },
    {
      "channel": 1,
      "note": 57,
      "start": 5.9944,
      "duration": 0.0967,
      "velocity": 117,
      "chip": "ym2612"
    },
    {
      "channel": 3,
      "note": 60,
      "start": 5.9976,
      "duration": 0.0938,
      "velocity": 117,
      "chip": "ym2612"
    },
    {
      "channel": 4,
      "note": 60,
      "start": 6.0946,
      "duration": 0.1133,
      "velocity": 117,
      "chip": "ym2612"
    },
    {
      "channel": 5,
      "note": 57,
      "start": 6.0978,
      "duration": 0.1102,
      "velocity": 117,
      "chip": "ym2612"
    },
    {
      "channel": 0,
      "note": 41,
      "start": 6.1008,
      "duration": 0.1904,
      "velocity": 126,
      "chip": "ym2612"
    },
    {
      "channel": 1,
      "note": 57,
      "start": 6.3111,
      "duration": 0.0968,
      "velocity": 117,
      "chip": "ym2612"
    },
    {
      "channel": 3,
      "note": 60,
      "start": 6.3138,
      "duration": 0.0941,
      "velocity": 117,
      "chip": "ym2612"
    },
    {
      "channel": 4,
      "note": 57,
      "start": 6.5277,
      "duration": 0.0969,
      "velocity": 117,
      "chip": "ym2612"
    },
    {
      "channel": 5,
      "note": 60,
      "start": 6.5305,
      "duration": 0.0943,
      "velocity": 117,
      "chip": "ym2612"
    },
    {
      "channel": 0,
      "note": 41,
      "start": 6.5339,
      "duration": 0.1405,
      "velocity": 126,
      "chip": "ym2612"
    },
    {
      "channel": 4,
      "note": 64,
      "start": 6.7278,
      "duration": 0.1137,
      "velocity": 117,
      "chip": "ym2612"
    },
    {
      "channel": 5,
      "note": 60,
      "start": 6.7306,
      "duration": 0.1111,
      "velocity": 117,
      "chip": "ym2612"
    },
    {
      "channel": 1,
      "note": 60,
      "start": 6.7334,
      "duration": 0.1079,
      "velocity": 117,
      "chip": "ym2612"
    },
    {
      "channel": 3,
      "note": 57,
      "start": 6.7361,
      "duration": 0.1053,
      "velocity": 117,
      "chip": "ym2612"
    },
    {
      "channel": 0,
      "note": 45,
      "start": 6.7391,
      "duration": 0.202,
      "velocity": 126,
      "chip": "ym2612"
    },
    {
      "channel": 2,
      "note": 54,
      "start": 6.7446,
      "duration": 0.0468,
      "velocity": 118,
      "chip": "ym2612"
    },
    {
      "channel": 1,
      "note": 60,
      "start": 6.9445,
      "duration": 0.0966,
      "velocity": 117,
      "chip": "ym2612"
    },
    {
      "channel": 3,
      "note": 64,
      "start": 6.9472,
      "duration": 0.094,
      "velocity": 117,
      "chip": "ym2612"
    },
    {
      "channel": 4,
      "note": 64,
      "start": 7.161,
      "duration": 0.0969,
      "velocity": 117,
      "chip": "ym2612"
    },
    {
      "channel": 5,
      "note": 60,
      "start": 7.1638,
      "duration": 0.0942,
      "velocity": 117,
      "chip": "ym2612"
    },
    {
      "channel": 0,
      "note": 45,
      "start": 7.1669,
      "duration": 0.1576,
      "velocity": 126,
      "chip": "ym2612"
    },
    {
      "channel": 2,
      "note": 54,
      "start": 7.1698,
      "duration": 0.0383,
      "velocity": 118,
      "chip": "ym2612"
    },
    {
      "channel": 1,
      "note": 60,
      "start": 7.3611,
      "duration": 0.1134,
      "velocity": 117,
      "chip": "ym2612"
    },
    {
      "channel": 3,
      "note": 64,
      "start": 7.3642,
      "duration": 0.1104,
      "velocity": 117,
      "chip": "ym2612"
    },
    {
      "channel": 4,
      "note": 64,
      "start": 7.4779,
      "duration": 0.0968,
      "velocity": 117,
      "chip": "ym2612"
    },
    {
      "channel": 5,
      "note": 60,
      "start": 7.4811,
      "duration": 0.0937,
      "velocity": 117,
      "chip": "ym2612"
    },
    {
      "channel": 0,
      "note": 45,
      "start": 7.484,
      "duration": 0.1405,
      "velocity": 126,
      "chip": "ym2612"
    },
    {
      "channel": 2,
      "note": 54,
      "start": 7.5783,
      "duration": 0.0466,
      "velocity": 118,
      "chip": "ym2612"
    },
    {
      "channel": 1,
      "note": 60,
      "start": 7.6778,
      "duration": 0.1135,
      "velocity": 117,
      "chip": "ym2612"
    },
    {
      "channel": 3,
      "note": 64,
      "start": 7.6805,
      "duration": 0.1109,
      "velocity": 117,
      "chip": "ym2612"
    },
    {
      "channel": 4,
      "note": 60,
      "start": 7.7946,
      "duration": 0.0967,
      "velocity": 117,
      "chip": "ym2612"
    },
    {
      "channel": 5,
      "note": 64,
      "start": 7.7974,
      "duration": 0.0941,
      "velocity": 117,
      "chip": "ym2612"
    },
    {
      "channel": 0,
      "note": 45,
      "start": 7.8005,
      "duration": 0.1907,
      "velocity": 126,
      "chip": "ym2612"
    },
    {
      "channel": 1,
      "note": 64,
      "start": 7.9945,
      "duration": 0.1133,
      "velocity": 117,
      "chip": "ym2612"
    },
    {
      "channel": 3,
      "note": 60,
      "start": 7.9972,
      "duration": 0.1107,
      "velocity": 117,
      "chip": "ym2612"
    },
    {
      "channel": 2,
      "note": 54,
      "start": 8.0006,
      "duration": 0.0408,
      "velocity": 118,
      "chip": "ym2612"
    },
    {
      "channel": 4,
      "note": 60,
      "start": 8.211,
      "duration": 0.0969,
      "velocity": 117,
      "chip": "ym2612"
    },
    {
      "channel": 5,
      "note": 64,
      "start": 8.2138,
      "duration": 0.0943,
      "velocity": 117,
      "chip": "ym2612"
    },
    {
      "channel": 0,
      "note": 45,
      "start": 8.217,
      "duration": 0.1574,
      "velocity": 126,
      "chip": "ym2612"
    },
    {
      "channel": 4,
      "note": 59,
      "start": 8.4111,
      "duration": 0.1137,
      "velocity": 117,
      "chip": "ym2612"
    },
    {
      "channel": 5,
      "note": 55,
      "start": 8.4139,
      "duration": 0.1111,
      "velocity": 117,
      "chip": "ym2612"
    },
    {
      "channel": 1,
      "note": 64,
      "start": 8.4167,
      "duration": 0.1079,
      "velocity": 117,
      "chip": "ym2612"
    },
    {
      "channel": 3,
      "note": 60,
      "start": 8.4194,
      "duration": 0.1053,
      "velocity": 117,
      "chip": "ym2612"
    },
    {
      "channel": 0,
      "note": 40,
      "start": 8.4228,
      "duration": 0.2016,
      "velocity": 126,
      "chip": "ym2612"
    },
    {
      "channel": 2,
      "note": 54,
      "start": 8.4257,
      "duration": 0.049,
      "velocity": 118,
      "chip": "ym2612"
    },
    {
      "channel": 1,
      "note": 55,
      "start": 8.6278,
      "duration": 0.0968,
      "velocity": 117,
      "chip": "ym2612"
    },
    {
      "channel": 3,
      "note": 59,
      "start": 8.6309,
      "duration": 0.0938,
      "velocity": 117,
      "chip": "ym2612"
    },
    {
      "channel": 4,
      "note": 55,
      "start": 8.8444,
      "duration": 0.0969,
      "velocity": 117,
      "chip": "ym2612"
    },
    {
      "channel": 5,
      "note": 59,
      "start": 8.8476,
      "duration": 0.0939,
      "velocity": 117,
      "chip": "ym2612"
    },
    {
      "channel": 0,
      "note": 40,
      "start": 8.8506,
      "duration": 0.1739,
      "velocity": 126,
      "chip": "ym2612"
    },
    {
      "channel": 2,
      "note": 54,
      "start": 8.8535,
      "duration": 0.038,
      "velocity": 118,
      "chip": "ym2612"
    },
    {
      "channel": 1,
      "note": 59,
      "start": 9.0444,
      "duration": 0.1135,
      "velocity": 117,
      "chip": "ym2612"
    },
    {
      "channel": 3,
      "note": 55,
      "start": 9.0472,
      "duration": 0.1109,
      "velocity": 117,
      "chip": "ym2612"
    },
    {
      "channel": 4,
      "note": 60,
      "start": 9.1613,
      "duration": 0.0967,
      "velocity": 117,
      "chip": "ym2612"
    },
    {
      "channel": 5,
      "note": 57,
      "start": 9.1641,
      "duration": 0.094,
      "velocity": 117,
      "chip": "ym2612"
    },
    {
      "channel": 0,
      "note": 41,
      "start": 9.167,
      "duration": 0.1407,
      "velocity": 126,
      "chip": "ym2612"
    },
    {
      "channel": 2,
      "note": 54,
      "start": 9.2616,
      "duration": 0.0465,
      "velocity": 118,
      "chip": "ym2612"
    },
    {
      "channel": 1,
      "note": 57,
      "start": 9.3611,
      "duration": 0.1133,
      "velocity": 117,
      "chip": "ym2612"
    },
    {
      "channel": 3,
      "note": 60,
      "start": 9.3638,
      "duration": 0.1107,
      "velocity": 117,
      "chip": "ym2612"
    },
    {
      "channel": 4,
      "note": 60,
      "start": 9.4778,
      "duration": 0.0968,
      "velocity": 117,
      "chip": "ym2612"
    },
    {
      "channel": 5,
      "note": 57,
      "start": 9.4806,
      "duration": 0.0941,
      "velocity": 117,
      "chip": "ym2612"
    },
    {
      "channel": 0,
      "note": 41,
      "start": 9.4837,
      "duration": 0.1742,
      "velocity": 126,
      "chip": "ym2612"
    },
    {
      "channel": 1,
      "note": 57,
      "start": 9.6777,
      "duration": 0.1134,
      "velocity": 117,
      "chip": "ym2612"
    },
    {
      "channel": 3,
      "note": 60,
      "start": 9.6804,
      "duration": 0.1108,
      "velocity": 117,
      "chip": "ym2612"
    },
    {
      "channel": 2,
      "note": 54,
      "start": 9.6834,
      "duration": 0.0579,
      "velocity": 118,
      "chip": "ym2612"
    },
    {
      "channel": 4,
      "note": 57,
      "start": 9.8944,
      "duration": 0.0969,
      "velocity": 117,
      "chip": "ym2612"
    },
    {
      "channel": 5,
      "note": 60,
      "start": 9.8972,
      "duration": 0.0942,
      "velocity": 117,
      "chip": "ym2612"
    },
    {
      "channel": 0,
      "note": 41,
      "start": 9.9003,
      "duration": 0.124,
      "velocity": 126,
      "chip": "ym2612"
    },
    {
      "channel": 4,
      "note": 64,
      "start": 10.111,
      "duration": 0.0971,
      "velocity": 117,
      "chip": "ym2612"
    },
    {
      "channel": 5,
      "note": 60,
      "start": 10.1142,
      "duration": 0.094,
      "velocity": 117,
      "chip": "ym2612"
    },
    {
      "channel": 1,
      "note": 60,
      "start": 10.117,
      "duration": 0.0908,
      "velocity": 117,
      "chip": "ym2612"
    },
    {
      "channel": 3,
      "note": 57,
      "start": 10.1201,
      "duration": 0.0879,
      "velocity": 117,
      "chip": "ym2612"
    },
    {
      "channel": 0,
      "note": 48,
      "start": 10.1231,
      "duration": 0.1848,
      "velocity": 126,
      "chip": "ym2612"
    },
    {
      "channel": 2,
      "note": 54,
      "start": 10.126,
      "duration": 0.0321,
      "velocity": 118,
      "chip": "ym2612"
    },
    {
      "channel": 1,
      "note": 60,
      "start": 10.3112,
      "duration": 0.1132,
      "velocity": 117,
      "chip": "ym2612"
    },
    {
      "channel": 3,
      "note": 64,
      "start": 10.314,
      "duration": 0.1106,
      "velocity": 117,
      "chip": "ym2612"
    },
    {
      "channel": 4,
      "note": 64,
      "start": 10.5277,
      "duration": 0.0969,
      "velocity": 117,
      "chip": "ym2612"
    },
    {
      "channel": 5,
      "note": 60,
      "start": 10.5305,
      "duration": 0.0943,
      "velocity": 117,
      "chip": "ym2612"
    },
    {
      "channel": 0,
      "note": 45,
      "start": 10.534,
      "duration": 0.1571,
      "velocity": 126,
      "chip": "ym2612"
    },
    {
      "channel": 2,
      "note": 54,
      "start": 10.5369,
      "duration": 0.0379,
      "velocity": 118,
      "chip": "ym2612"
    },
    {
      "channel": 1,
      "note": 60,
      "start": 10.7444,
      "duration": 0.0968,
      "velocity": 117,
      "chip": "ym2612"
    },
    {
      "channel": 3,
      "note": 64,
      "start": 10.7471,
      "duration": 0.0941,
      "velocity": 117,
      "chip": "ym2612"
    },
    {
      "channel": 4,
      "note": 64,
      "start": 10.8445,
      "duration": 0.0968,
      "velocity": 117,
      "chip": "ym2612"
    },
    {
      "channel": 5,
      "note": 60,
      "start": 10.8473,
      "duration": 0.0941,
      "velocity": 117,
      "chip": "ym2612"
    },
    {
      "channel": 0,
      "note": 45,
      "start": 10.8502,
      "duration": 0.1243,
      "velocity": 126,
      "chip": "ym2612"
    },
    {
      "channel": 2,
      "note": 54,
      "start": 10.9449,
      "duration": 0.0466,
      "velocity": 118,
      "chip": "ym2612"
    },
    {
      "channel": 1,
      "note": 60,
      "start": 11.0611,
      "duration": 0.0968,
      "velocity": 117,
      "chip": "ym2612"
    },
    {
      "channel": 3,
      "note": 64,
      "start": 11.0638,
      "duration": 0.0941,
      "velocity": 117,
      "chip": "ym2612"
    },
    {
      "channel": 4,
      "note": 60,
      "start": 11.1612,
      "duration": 0.0967,
      "velocity": 117,
      "chip": "ym2612"
    },
    {
      "channel": 5,
      "note": 64,
      "start": 11.164,
      "duration": 0.0941,
      "velocity": 117,
      "chip": "ym2612"
    },
    {
      "channel": 0,
      "note": 45,
      "start": 11.1673,
      "duration": 0.1905,
      "velocity": 126,
      "chip": "ym2612"
    },
    {
      "channel": 1,
      "note": 64,
      "start": 11.361,
      "duration": 0.1135,
      "velocity": 117,
      "chip": "ym2612"
    },
    {
      "channel": 3,
      "note": 60,
      "start": 11.3641,
      "duration": 0.1106,
      "velocity": 117,
      "chip": "ym2612"
    },
    {
      "channel": 2,
      "note": 54,
      "start": 11.3675,
      "duration": 0.0573,
      "velocity": 118,
      "chip": "ym2612"
    },
    {
      "channel": 4,
      "note": 60,
      "start": 11.5778,
      "duration": 0.0968,
      "velocity": 117,
      "chip": "ym2612"
    },
    {
      "channel": 5,
      "note": 64,
      "start": 11.581,
      "duration": 0.0938,
      "velocity": 117,
      "chip": "ym2612"
    },
    {
      "channel": 0,
      "note": 84,
      "start": 11.586,
      "duration": 0.6217,
      "velocity": 78,
      "chip": "ym2612"
    },
    {
      "channel": 4,
      "note": 59,
      "start": 11.7944,
      "duration": 0.097,
      "velocity": 117,
      "chip": "ym2612"
    },
    {
      "channel": 5,
      "note": 55,
      "start": 11.7972,
      "duration": 0.0944,
      "velocity": 117,
      "chip": "ym2612"
    },
    {
      "channel": 1,
      "note": 64,
      "start": 11.8,
      "duration": 0.0912,
      "velocity": 117,
      "chip": "ym2612"
    },
    {
      "channel": 3,
      "note": 60,
      "start": 11.8027,
      "duration": 0.0886,
      "velocity": 117,
      "chip": "ym2612"
    },
    {
      "channel": 2,
      "note": 84,
      "start": 11.8085,
      "duration": 0.6163,
      "velocity": 78,
      "chip": "ym2612"
    },
    {
      "channel": 1,
      "note": 55,
      "start": 11.9944,
      "duration": 0.1135,
      "velocity": 117,
      "chip": "ym2612"
    },
    {
      "channel": 3,
      "note": 59,
      "start": 11.9972,
      "duration": 0.1109,
      "velocity": 117,
      "chip": "ym2612"
    },
    {
      "channel": 4,
      "note": 55,
      "start": 12.2111,
      "duration": 0.0969,
      "velocity": 117,
      "chip": "ym2612"
    },
    {
      "channel": 5,
      "note": 59,
      "start": 12.2139,
      "duration": 0.0943,
      "velocity": 117,
      "chip": "ym2612"
    },
    {
      "channel": 0,
      "note": 82,
      "start": 12.217,
      "duration": 0.2074,
      "velocity": 78,
      "chip": "ym2612"
    },
    {
      "channel": 1,
      "note": 59,
      "start": 12.428,
      "duration": 0.0966,
      "velocity": 117,
      "chip": "ym2612"
    },
    {
      "channel": 3,
      "note": 55,
      "start": 12.4307,
      "duration": 0.094,
      "velocity": 117,
      "chip": "ym2612"
    },
    {
      "channel": 0,
      "note": 85,
      "start": 12.4338,
      "duration": 0.9573,
      "velocity": 78,
      "chip": "ym2612"
    },
    {
      "channel": 2,
      "note": 82,
      "start": 12.4369,
      "duration": 0.188,
      "velocity": 78,
      "chip": "ym2612"
    },
    {
      "channel": 4,
      "note": 60,
      "start": 12.528,
      "duration": 0.0967,
      "velocity": 117,
      "chip": "ym2612"
    },
    {
      "channel": 5,
      "note": 57,
      "start": 12.5308,
      "duration": 0.094,
      "velocity": 117,
      "chip": "ym2612"
    },
    {
      "channel": 1,
      "note": 57,
      "start": 12.7444,
      "duration": 0.0968,
      "velocity": 117,
      "chip": "ym2612"
    },
    {
      "channel": 3,
      "note": 60,
      "start": 12.7475,
      "duration": 0.0939,
      "velocity": 117,
      "chip": "ym2612"
    },
    {
      "channel": 4,
      "note": 60,
      "start": 12.8446,
      "duration": 0.0966,
      "velocity": 117,
      "chip": "ym2612"
    },
    {
      "channel": 5,
      "note": 57,
      "start": 12.8478,
      "duration": 0.0937,
      "velocity": 117,
      "chip": "ym2612"
    },
    {
      "channel": 1,
      "note": 57,
      "start": 13.061,
      "duration": 0.0968,
      "velocity": 117,
      "chip": "ym2612"
    },
    {
      "channel": 3,
      "note": 60,
      "start": 13.0638,
      "duration": 0.0943,
      "velocity": 117,
      "chip": "ym2612"
    },
    {
      "channel": 4,
      "note": 57,
      "start": 13.261,
      "duration": 0.1135,
      "velocity": 117,
      "chip": "ym2612"
    },
    {
      "channel": 5,
      "note": 60,
      "start": 13.264,
      "duration": 0.1107,
      "velocity": 117,
      "chip": "ym2612"
    },
    {
      "channel": 2,
      "note": 45,
      "start": 13.4785,
      "duration": 0.1796,
      "velocity": 126,
      "chip": "ym2612"
    },
    {
      "channel": 1,
      "note": 81,
      "start": 13.4836,
      "duration": 0.0909,
      "velocity": 118,
      "chip": "ym2612"
    },
    {
      "channel": 3,
      "note": 60,
      "start": 13.6945,
      "duration": 0.0968,
      "velocity": 117,
      "chip": "ym2612"
    },
    {
      "channel": 4,
      "note": 64,
      "start": 13.6974,
      "duration": 0.094,
      "velocity": 117,
      "chip": "ym2612"
    },
    {
      "channel": 1,
      "note": 84,
      "start": 13.7005,
      "duration": 0.0907,
      "velocity": 118,
      "chip": "ym2612"
    },
    {
      "channel": 5,
      "note": 81,
      "start": 13.7973,
      "duration": 0.094,
      "velocity": 118,
      "chip": "ym2612"
    },
    {
      "channel": 2,
      "note": 45,
      "start": 13.8949,
      "duration": 0.1965,
      "velocity": 126,
      "chip": "ym2612"
    },
    {
      "channel": 1,
      "note": 81,
      "start": 13.8978,
      "duration": 0.1101,
      "velocity": 118,
      "chip": "ym2612"
    },
    {
      "channel": 5,
      "note": 84,
      "start": 14.0118,
      "duration": 0.0962,
      "velocity": 118,
      "chip": "ym2612"
    },
    {
      "channel": 3,
      "note": 60,
      "start": 14.1112,
      "duration": 0.0968,
      "velocity": 117,
      "chip": "ym2612"
    },
    {
      "channel": 4,
      "note": 64,
      "start": 14.114,
      "duration": 0.0941,
      "velocity": 117,
      "chip": "ym2612"
    },
    {
      "channel": 1,
      "note": 91,
      "start": 14.1174,
      "duration": 0.0905,
      "velocity": 118,
      "chip": "ym2612"
    },
    {
      "channel": 2,
      "note": 45,
      "start": 14.2118,
      "duration": 0.1629,
      "velocity": 126,
      "chip": "ym2612"
    },
    {
      "channel": 5,
      "note": 81,
      "start": 14.215,
      "duration": 0.0929,
      "velocity": 118,
      "chip": "ym2612"
    },
    {
      "channel": 1,
      "note": 88,
      "start": 14.3115,
      "duration": 0.1131,
      "velocity": 118,
      "chip": "ym2612"
    },
    {
      "channel": 3,
      "note": 60,
      "start": 14.4279,
      "duration": 0.0967,
      "velocity": 117,
      "chip": "ym2612"
    },
    {
      "channel": 4,
      "note": 64,
      "start": 14.4311,
      "duration": 0.0936,
      "velocity": 117,
      "chip": "ym2612"
    },
    {
      "channel": 5,
      "note": 91,
      "start": 14.4347,
      "duration": 0.0902,
      "velocity": 118,
      "chip": "ym2612"
    },
    {
      "channel": 2,
      "note": 45,
      "start": 14.529,
      "duration": 0.2291,
      "velocity": 126,
      "chip": "ym2612"
    },
    {
      "channel": 1,
      "note": 81,
      "start": 14.5319,
      "duration": 0.0926,
      "velocity": 118,
      "chip": "ym2612"
    },
    {
      "channel": 5,
      "note": 88,
      "start": 14.6284,
      "duration": 0.113,
      "velocity": 118,
      "chip": "ym2612"
    },
    {
      "channel": 3,
      "note": 64,
      "start": 14.7446,
      "duration": 0.0967,
      "velocity": 117,
      "chip": "ym2612"
    },
    {
      "channel": 4,
      "note": 60,
      "start": 14.7474,
      "duration": 0.0941,
      "velocity": 117,
      "chip": "ym2612"
    },
    {
      "channel": 1,
      "note": 93,
      "start": 14.7504,
      "duration": 0.0907,
      "velocity": 118,
      "chip": "ym2612"
    },
    {
      "channel": 5,
      "note": 81,
      "start": 14.8453,
      "duration": 0.0961,
      "velocity": 118,
      "chip": "ym2612"
    },
    {
      "channel": 2,
      "note": 45,
      "start": 14.9451,
      "duration": 0.1963,
      "velocity": 126,
      "chip": "ym2612"
    },
    {
      "channel": 1,
      "note": 91,
      "start": 14.9481,
      "duration": 0.1098,
      "velocity": 118,
      "chip": "ym2612"
    },
    {
      "channel": 5,
      "note": 93,
      "start": 15.0618,
      "duration": 0.0962,
      "velocity": 118,
      "chip": "ym2612"
    },
    {
      "channel": 3,
      "note": 64,
      "start": 15.1612,
      "duration": 0.0968,
      "velocity": 117,
      "chip": "ym2612"
    },
    {
      "channel": 4,
      "note": 60,
      "start": 15.164,
      "duration": 0.0941,
      "velocity": 117,
      "chip": "ym2612"
    },
    {
      "channel": 2,
      "note": 40,
      "start": 15.1673,
      "duration": 0.2242,
      "velocity": 126,
      "chip": "ym2612"
    },
    {
      "channel": 1,
      "note": 81,
      "start": 15.1702,
      "duration": 0.0876,
      "velocity": 118,
      "chip": "ym2612"
    },
    {
      "channel": 5,
      "note": 91,
      "start": 15.2619,
      "duration": 0.1127,
      "velocity": 118,
      "chip": "ym2612"
    },
    {
      "channel": 3,
      "note": 55,
      "start": 15.3778,
      "duration": 0.0968,
      "velocity": 117,
      "chip": "ym2612"
    },
    {
      "channel": 4,
      "note": 59,
      "start": 15.3806,
      "duration": 0.0941,
      "velocity": 117,
      "chip": "ym2612"
    },
    {
      "channel": 1,
      "note": 98,
      "start": 15.3836,
      "duration": 0.0908,
      "velocity": 118,
      "chip": "ym2612"
    },
    {
      "channel": 5,
      "note": 81,
      "start": 15.4786,
      "duration": 0.0961,
      "velocity": 118,
      "chip": "ym2612"
    },
    {
      "channel": 2,
      "note": 40,
      "start": 15.5783,
      "duration": 0.2297,
      "velocity": 126,
      "chip": "ym2612"
    },
    {
      "channel": 1,
      "note": 100,
      "start": 15.5815,
      "duration": 0.1096,
      "velocity": 118,
      "chip": "ym2612"
    },
    {
      "channel": 5,
      "note": 98,
      "start": 15.6951,
      "duration": 0.0963,
      "velocity": 118,
      "chip": "ym2612"
    },
    {
      "channel": 3,
      "note": 59,
      "start": 15.7946,
      "duration": 0.0966,
      "velocity": 117,
      "chip": "ym2612"
    },
    {
      "channel": 4,
      "note": 55,
      "start": 15.7978,
      "duration": 0.0936,
      "velocity": 117,
      "chip": "ym2612"
    },
    {
      "channel": 2,
      "note": 41,
      "start": 15.895,
      "duration": 0.1797,
      "velocity": 126,
      "chip": "ym2612"
    },
    {
      "channel": 5,
      "note": 100,
      "start": 15.8985,
      "duration": 0.1095,
      "velocity": 118,
      "chip": "ym2612"
    },
    {
      "channel": 3,
      "note": 57,
      "start": 16.111,
      "duration": 0.0968,
      "velocity": 117,
      "chip": "ym2612"
    },
    {
      "channel": 4,
      "note": 60,
      "start": 16.1138,
      "duration": 0.0941,
      "velocity": 117,
      "chip": "ym2612"
    },
    {
      "channel": 2,
      "note": 41,
      "start": 16.2116,
      "duration": 0.1796,
      "velocity": 126,
      "chip": "ym2612"
    },
    {
      "channel": 3,
      "note": 57,
      "start": 16.4278,
      "duration": 0.0968,
      "velocity": 117,
      "chip": "ym2612"
    },
    {
      "channel": 4,
      "note": 60,
      "start": 16.4305,
      "duration": 0.0943,
      "velocity": 117,
      "chip": "ym2612"
    },
    {
      "channel": 2,
      "note": 41,
      "start": 16.6454,
      "duration": 0.1793,
      "velocity": 126,
      "chip": "ym2612"
    },
    {
      "channel": 3,
      "note": 60,
      "start": 16.8444,
      "duration": 0.0969,
      "velocity": 117,
      "chip": "ym2612"
    },
    {
      "channel": 4,
      "note": 57,
      "start": 16.8471,
      "duration": 0.0943,
      "velocity": 117,
      "chip": "ym2612"
    },
    {
      "channel": 2,
      "note": 48,
      "start": 16.8504,
      "duration": 0.2077,
      "velocity": 126,
      "chip": "ym2612"
    },
    {
      "channel": 1,
      "note": 81,
      "start": 16.8535,
      "duration": 0.0877,
      "velocity": 118,
      "chip": "ym2612"
    },
    {
      "channel": 3,
      "note": 60,
      "start": 17.0613,
      "duration": 0.0968,
      "velocity": 117,
      "chip": "ym2612"
    },
    {
      "channel": 4,
      "note": 64,
      "start": 17.0645,
      "duration": 0.0937,
      "velocity": 117,
      "chip": "ym2612"
    },
    {
      "channel": 1,
      "note": 84,
      "start": 17.0675,
      "duration": 0.0905,
      "velocity": 118,
      "chip": "ym2612"
    },
    {
      "channel": 5,
      "note": 81,
      "start": 17.1622,
      "duration": 0.0957,
      "velocity": 118,
      "chip": "ym2612"
    },
    {
      "channel": 2,
      "note": 45,
      "start": 17.2617,
      "duration": 0.163,
      "velocity": 126,
      "chip": "ym2612"
    },
    {
      "channel": 1,
      "note": 81,
      "start": 17.2647,
      "duration": 0.1097,
      "velocity": 118,
      "chip": "ym2612"
    },
    {
      "channel": 5,
      "note": 84,
      "start": 17.3784,
      "duration": 0.0963,
      "velocity": 118,
      "chip": "ym2612"
    },
    {
      "channel": 3,
      "note": 60,
      "start": 17.4779,
      "duration": 0.0968,
      "velocity": 117,
      "chip": "ym2612"
    },
    {
      "channel": 4,
      "note": 64,
      "start": 17.4807,
      "duration": 0.0941,
      "velocity": 117,
      "chip": "ym2612"
    },
    {
      "channel": 1,
      "note": 91,
      "start": 17.4837,
      "duration": 0.0909,
      "velocity": 118,
      "chip": "ym2612"
    },
    {
      "channel": 2,
      "note": 45,
      "start": 17.5783,
      "duration": 0.163,
      "velocity": 126,
      "chip": "ym2612"
    },
    {
      "channel": 5,
      "note": 81,
      "start": 17.5815,
      "duration": 0.1098,
      "velocity": 118,
      "chip": "ym2612"
    },
    {
      "channel": 1,
      "note": 88,
      "start": 17.6948,
      "duration": 0.0964,
      "velocity": 118,
      "chip": "ym2612"
    },
    {
      "channel": 3,
      "note": 60,
      "start": 17.7946,
      "duration": 0.0966,
      "velocity": 117,
      "chip": "ym2612"
    },
    {
      "channel": 4,
      "note": 64,
      "start": 17.7974,
      "duration": 0.0939,
      "velocity": 117,
      "chip": "ym2612"
    },
    {
      "channel": 5,
      "note": 91,
      "start": 17.8007,
      "duration": 0.0908,
      "velocity": 118,
      "chip": "ym2612"
    },
    {
      "channel": 2,
      "note": 45,
      "start": 17.8953,
      "duration": 0.1961,
      "velocity": 126,
      "chip": "ym2612"
    },
    {
      "channel": 1,
      "note": 81,
      "start": 17.8985,
      "duration": 0.1093,
      "velocity": 118,
      "chip": "ym2612"
    },
    {
      "channel": 5,
      "note": 88,
      "start": 18.0117,
      "duration": 0.0962,
      "velocity": 118,
      "chip": "ym2612"
    },
    {
      "channel": 3,
      "note": 64,
      "start": 18.1112,
      "duration": 0.0969,
      "velocity": 117,
      "chip": "ym2612"
    },
    {
      "channel": 4,
      "note": 60,
      "start": 18.114,
      "duration": 0.0942,
      "velocity": 117,
      "chip": "ym2612"
    },
    {
      "channel": 1,
      "note": 93,
      "start": 18.117,
      "duration": 0.0909,
      "velocity": 118,
      "chip": "ym2612"
    },
    {
      "channel": 5,
      "note": 81,
      "start": 18.2124,
      "duration": 0.1123,
      "velocity": 118,
      "chip": "ym2612"
    },
    {
      "channel": 2,
      "note": 45,
      "start": 18.3283,
      "duration": 0.1797,
      "velocity": 126,
      "chip": "ym2612"
    },
    {
      "channel": 1,
      "note": 91,
      "start": 18.3312,
      "duration": 0.0934,
      "velocity": 118,
      "chip": "ym2612"
    },
    {
      "channel": 5,
      "note": 93,
      "start": 18.4285,
      "duration": 0.0961,
      "velocity": 118,
      "chip": "ym2612"
    },
    {
      "channel": 3,
      "note": 64,
      "start": 18.5278,
      "duration": 0.1134,
      "velocity": 117,
      "chip": "ym2612"
    },
    {
      "channel": 4,
      "note": 60,
      "start": 18.531,
      "duration": 0.1104,
      "velocity": 117,
      "chip": "ym2612"
    },
    {
      "channel": 2,
      "note": 40,
      "start": 18.5346,
      "duration": 0.2234,
      "velocity": 126,
      "chip": "ym2612"
    },
    {
      "channel": 1,
      "note": 81,
      "start": 18.5376,
      "duration": 0.1036,
      "velocity": 118,
      "chip": "ym2612"
    },
    {
      "channel": 5,
      "note": 91,
      "start": 18.6453,
      "duration": 0.0959,
      "velocity": 118,
      "chip": "ym2612"
    },
    {
      "channel": 3,
      "note": 55,
      "start": 18.7444,
      "duration": 0.0968,
      "velocity": 117,
      "chip": "ym2612"
    },
    {
      "channel": 4,
      "note": 59,
      "start": 18.7472,
      "duration": 0.0942,
      "velocity": 117,
      "chip": "ym2612"
    },
    {
      "channel": 1,
      "note": 96,
      "start": 18.7502,
      "duration": 0.0909,
      "velocity": 118,
      "chip": "ym2612"
    },
    {
      "channel": 5,
      "note": 81,
      "start": 18.8453,
      "duration": 0.1128,
      "velocity": 118,
      "chip": "ym2612"
    },
    {
      "channel": 2,
      "note": 40,
      "start": 18.9616,
      "duration": 0.2132,
      "velocity": 126,
      "chip": "ym2612"
    },
    {
      "channel": 1,
      "note": 95,
      "start": 18.9649,
      "duration": 0.0929,
      "velocity": 118,
      "chip": "ym2612"
    },
    {
      "channel": 5,
      "note": 96,
      "start": 19.0618,
      "duration": 0.0962,
      "velocity": 118,
      "chip": "ym2612"
    },
    {
      "channel": 3,
      "note": 59,
      "start": 19.1613,
      "duration": 0.1132,
      "velocity": 117,
      "chip": "ym2612"
    },
    {
      "channel": 4,
      "note": 55,
      "start": 19.1641,
      "duration": 0.1105,
      "velocity": 117,
      "chip": "ym2612"
    },
    {
      "channel": 2,
      "note": 41,
      "start": 19.2783,
      "duration": 0.1796,
      "velocity": 126,
      "chip": "ym2612"
    },
    {
      "channel": 5,
      "note": 95,
      "start": 19.2818,
      "duration": 0.0929,
      "velocity": 118,
      "chip": "ym2612"
    },
    {
      "channel": 3,
      "note": 57,
      "start": 19.4777,
      "duration": 0.1135,
      "velocity": 117,
      "chip": "ym2612"
    },
    {
      "channel": 4,
      "note": 60,
      "start": 19.4805,
      "duration": 0.1108,
      "velocity": 117,
      "chip": "ym2612"
    },
    {
      "channel": 2,
      "note": 41,
      "start": 19.5951,
      "duration": 0.1962,
      "velocity": 126,
      "chip": "ym2612"
    },
    {
      "channel": 3,
      "note": 57,
      "start": 19.7946,
      "duration": 0.0966,
      "velocity": 117,
      "chip": "ym2612"
    },
    {
      "channel": 4,
      "note": 60,
      "start": 19.7978,
      "duration": 0.0936,
      "velocity": 117,
      "chip": "ym2612"
    },
    {
      "channel": 2,
      "note": 41,
      "start": 20.0117,
      "duration": 0.1296,
      "velocity": 126,
      "chip": "ym2612"
    },
    {
      "channel": 2,
      "note": 45,
      "start": 20.2117,
      "duration": 0.213,
      "velocity": 126,
      "chip": "ym2612"
    },
    {
      "channel": 0,
      "note": 54,
      "start": 20.2148,
      "duration": 0.0598,
      "velocity": 118,
      "chip": "ym2612"
    },
    {
      "channel": 1,
      "note": 81,
      "start": 20.2178,
      "duration": 0.1066,
      "velocity": 118,
      "chip": "ym2612"
    },
    {
      "channel": 3,
      "note": 60,
      "start": 20.4279,
      "duration": 0.0968,
      "velocity": 117,
      "chip": "ym2612"
    },
    {
      "channel": 4,
      "note": 64,
      "start": 20.4307,
      "duration": 0.0941,
      "velocity": 117,
      "chip": "ym2612"
    },
    {
      "channel": 1,
      "note": 84,
      "start": 20.4337,
      "duration": 0.0908,
      "velocity": 118,
      "chip": "ym2612"
    },
    {
      "channel": 5,
      "note": 81,
      "start": 20.5287,
      "duration": 0.1126,
      "velocity": 118,
      "chip": "ym2612"
    },
    {
      "channel": 2,
      "note": 45,
      "start": 20.6455,
      "duration": 0.1626,
      "velocity": 126,
      "chip": "ym2612"
    },
    {
      "channel": 0,
      "note": 54,
      "start": 20.6481,
      "duration": 0.0431,
      "velocity": 118,
      "chip": "ym2612"
    },
    {
      "channel": 1,
      "note": 81,
      "start": 20.6509,
      "duration": 0.0903,
      "velocity": 118,
      "chip": "ym2612"
    },
    {
      "channel": 5,
      "note": 84,
      "start": 20.7451,
      "duration": 0.0963,
      "velocity": 118,
      "chip": "ym2612"
    },
    {
      "channel": 3,
      "note": 60,
      "start": 20.8446,
      "duration": 0.1134,
      "velocity": 117,
      "chip": "ym2612"
    },
    {
      "channel": 4,
      "note": 64,
      "start": 20.8474,
      "duration": 0.1107,
      "velocity": 117,
      "chip": "ym2612"
    },
    {
      "channel": 1,
      "note": 91,
      "start": 20.8504,
      "duration": 0.1074,
      "velocity": 118,
      "chip": "ym2612"
    },
    {
      "channel": 2,
      "note": 45,
      "start": 20.9617,
      "duration": 0.1464,
      "velocity": 126,
      "chip": "ym2612"
    },
    {
      "channel": 5,
      "note": 81,
      "start": 20.965,
      "duration": 0.0929,
      "velocity": 118,
      "chip": "ym2612"
    },
    {
      "channel": 0,
      "note": 54,
      "start": 21.0611,
      "duration": 0.0468,
      "velocity": 118,
      "chip": "ym2612"
    },
    {
      "channel": 1,
      "note": 88,
      "start": 21.064,
      "duration": 0.0938,
      "velocity": 118,
      "chip": "ym2612"
    },
    {
      "channel": 3,
      "note": 60,
      "start": 21.1612,
      "duration": 0.1134,
      "velocity": 117,
      "chip": "ym2612"
    },
    {
      "channel": 4,
      "note": 64,
      "start": 21.164,
      "duration": 0.1108,
      "velocity": 117,
      "chip": "ym2612"
    },
    {
      "channel": 5,
      "note": 91,
      "start": 21.1672,
      "duration": 0.1077,
      "velocity": 118,
      "chip": "ym2612"
    },
    {
      "channel": 2,
      "note": 45,
      "start": 21.2787,
      "duration": 0.1962,
      "velocity": 126,
      "chip": "ym2612"
    },
    {
      "channel": 1,
      "note": 81,
      "start": 21.2816,
      "duration": 0.0929,
      "velocity": 118,
      "chip": "ym2612"
    },
    {
      "channel": 5,
      "note": 88,
      "start": 21.3784,
      "duration": 0.0963,
      "velocity": 118,
      "chip": "ym2612"
    },
    {
      "channel": 3,
      "note": 64,
      "start": 21.478,
      "duration": 0.1134,
      "velocity": 117,
      "chip": "ym2612"
    },
    {
      "channel": 4,
      "note": 60,
      "start": 21.4812,
      "duration": 0.1103,
      "velocity": 117,
      "chip": "ym2612"
    },
    {
      "channel": 0,
      "note": 54,
      "start": 21.4839,
      "duration": 0.0405,
      "velocity": 118,
      "chip": "ym2612"
    },
    {
      "channel": 1,
      "note": 93,
      "start": 21.4867,
      "duration": 0.1045,
      "velocity": 118,
      "chip": "ym2612"
    },
    {
      "channel": 5,
      "note": 81,
      "start": 21.5953,
      "duration": 0.0959,
      "velocity": 118,
      "chip": "ym2612"
    },
    {
      "channel": 2,
      "note": 45,
      "start": 21.6951,
      "duration": 0.1629,
      "velocity": 126,
      "chip": "ym2612"
    },
    {
      "channel": 1,
      "note": 91,
      "start": 21.6983,
      "duration": 0.0929,
      "velocity": 118,
      "chip": "ym2612"
    },
    {
      "channel": 5,
      "note": 93,
      "start": 21.7951,
      "duration": 0.1129,
      "velocity": 118,
      "chip": "ym2612"
    },
    {
      "channel": 3,
      "note": 64,
      "start": 21.9113,
      "duration": 0.0968,
      "velocity": 117,
      "chip": "ym2612"
    },
    {
      "channel": 4,
      "note": 60,
      "start": 21.9141,
      "duration": 0.0941,
      "velocity": 117,
      "chip": "ym2612"
    },
    {
      "channel": 2,
      "note": 40,
      "start": 21.9173,
      "duration": 0.1908,
      "velocity": 126,
      "chip": "ym2612"
    },
    {
      "channel": 0,
      "note": 54,
      "start": 21.9203,
      "duration": 0.0374,
      "velocity": 118,
      "chip": "ym2612"
    },
    {
      "channel": 1,
      "note": 81,
      "start": 21.9231,
      "duration": 0.0848,
      "velocity": 118,
      "chip": "ym2612"
    },
    {
      "channel": 5,
      "note": 91,
      "start": 22.0124,
      "duration": 0.0957,
      "velocity": 118,
      "chip": "ym2612"
    },
    {
      "channel": 3,
      "note": 55,
      "start": 22.1114,
      "duration": 0.1134,
      "velocity": 117,
      "chip": "ym2612"
    },
    {
      "channel": 4,
      "note": 59,
      "start": 22.1141,
      "duration": 0.1107,
      "velocity": 117,
      "chip": "ym2612"
    },
    {
      "channel": 1,
      "note": 98,
      "start": 22.1171,
      "duration": 0.1074,
      "velocity": 118,
      "chip": "ym2612"
    },
    {
      "channel": 5,
      "note": 81,
      "start": 22.2287,
      "duration": 0.0961,
      "velocity": 118,
      "chip": "ym2612"
    },
    {
      "channel": 2,
      "note": 40,
      "start": 22.3285,
      "duration": 0.1796,
      "velocity": 126,
      "chip": "ym2612"
    },
    {
      "channel": 0,
      "note": 54,
      "start": 22.3311,
      "duration": 0.0433,
      "velocity": 118,
      "chip": "ym2612"
    },
    {
      "channel": 1,
      "note": 100,
      "start": 22.3343,
      "duration": 0.0902,
      "velocity": 118,
      "chip": "ym2612"
    },
    {
      "channel": 5,
      "note": 98,
      "start": 22.4284,
      "duration": 0.1129,
      "velocity": 118,
      "chip": "ym2612"
    },
    {
      "channel": 3,
      "note": 59,
      "start": 22.5445,
      "duration": 0.0968,
      "velocity": 117,
      "chip": "ym2612"
    },
    {
      "channel": 4,
      "note": 55,
      "start": 22.5473,
      "duration": 0.0941,
      "velocity": 117,
      "chip": "ym2612"
    },
    {
      "channel": 2,
      "note": 41,
      "start": 22.6455,
      "duration": 0.146,
      "velocity": 126,
      "chip": "ym2612"
    },
    {
      "channel": 5,
      "note": 100,
      "start": 22.649,
      "duration": 0.0924,
      "velocity": 118,
      "chip": "ym2612"
    },
    {
      "channel": 0,
      "note": 54,
      "start": 22.7446,
      "duration": 0.0465,
      "velocity": 118,
      "chip": "ym2612"
    },
    {
      "channel": 3,
      "note": 57,
      "start": 22.8444,
      "duration": 0.1134,
      "velocity": 117,
      "chip": "ym2612"
    },
    {
      "channel": 4,
      "note": 60,
      "start": 22.8476,
      "duration": 0.1105,
      "velocity": 117,
      "chip": "ym2612"
    },
    {
      "channel": 2,
      "note": 41,
      "start": 22.9618,
      "duration": 0.1796,
      "velocity": 126,
      "chip": "ym2612"
    },
    {
      "channel": 3,
      "note": 57,
      "start": 23.1612,
      "duration": 0.1134,
      "velocity": 117,
      "chip": "ym2612"
    },
    {
      "channel": 4,
      "note": 60,
      "start": 23.164,
      "duration": 0.1108,
      "velocity": 117,
      "chip": "ym2612"
    },
    {
      "channel": 0,
      "note": 54,
      "start": 23.1667,
      "duration": 0.0578,
      "velocity": 118,
      "chip": "ym2612"
    },
    {
      "channel": 2,
      "note": 41,
      "start": 23.3784,
      "duration": 0.1296,
      "velocity": 126,
      "chip": "ym2612"
    },
    {
      "channel": 3,
      "note": 60,
      "start": 23.5944,
      "duration": 0.0968,
      "velocity": 117,
      "chip": "ym2612"
    },
    {
      "channel": 4,
      "note": 57,
      "start": 23.5972,
      "duration": 0.0942,
      "velocity": 117,
      "chip": "ym2612"
    },
    {
      "channel": 2,
      "note": 48,
      "start": 23.6005,
      "duration": 0.1908,
      "velocity": 126,
      "chip": "ym2612"
    },
    {
      "channel": 0,
      "note": 54,
      "start": 23.6032,
      "duration": 0.0381,
      "velocity": 118,
      "chip": "ym2612"
    },
    {
      "channel": 1,
      "note": 81,
      "start": 23.6061,
      "duration": 0.085,
      "velocity": 118,
      "chip": "ym2612"
    },
    {
      "channel": 3,
      "note": 60,
      "start": 23.7946,
      "duration": 0.1134,
      "velocity": 117,
      "chip": "ym2612"
    },
    {
      "channel": 4,
      "note": 64,
      "start": 23.7974,
      "duration": 0.1107,
      "velocity": 117,
      "chip": "ym2612"
    },
    {
      "channel": 1,
      "note": 84,
      "start": 23.8004,
      "duration": 0.1074,
      "velocity": 118,
      "chip": "ym2612"
    },
    {
      "channel": 5,
      "note": 81,
      "start": 23.9121,
      "duration": 0.0959,
      "velocity": 118,
      "chip": "ym2612"
    },
    {
      "channel": 2,
      "note": 45,
      "start": 24.0117,
      "duration": 0.1796,
      "velocity": 126,
      "chip": "ym2612"
    },
    {
      "channel": 0,
      "note": 54,
      "start": 24.0144,
      "duration": 0.0434,
      "velocity": 118,
      "chip": "ym2612"
    },
    {
      "channel": 1,
      "note": 81,
      "start": 24.0171,
      "duration": 0.0908,
      "velocity": 118,
      "chip": "ym2612"
    },
    {
      "channel": 5,
      "note": 84,
      "start": 24.1118,
      "duration": 0.1128,
      "velocity": 118,
      "chip": "ym2612"
    },
    {
      "channel": 3,
      "note": 60,
      "start": 24.2278,
      "duration": 0.0969,
      "velocity": 117,
      "chip": "ym2612"
    },
    {
      "channel": 4,
      "note": 64,
      "start": 24.231,
      "duration": 0.0938,
      "velocity": 117,
      "chip": "ym2612"
    },
    {
      "channel": 1,
      "note": 91,
      "start": 24.234,
      "duration": 0.0906,
      "velocity": 118,
      "chip": "ym2612"
    },
    {
      "channel": 2,
      "note": 45,
      "start": 24.3285,
      "duration": 0.1296,
      "velocity": 126,
      "chip": "ym2612"
    },
    {
      "channel": 5,
      "note": 81,
      "start": 24.3317,
      "duration": 0.093,
      "velocity": 118,
      "chip": "ym2612"
    },
    {
      "channel": 0,
      "note": 54,
      "start": 24.4279,
      "duration": 0.0465,
      "velocity": 118,
      "chip": "ym2612"
    },
    {
      "channel": 1,
      "note": 88,
      "start": 24.4307,
      "duration": 0.1105,
      "velocity": 118,
      "chip": "ym2612"
    },
    {
      "channel": 3,
      "note": 60,
      "start": 24.5446,
      "duration": 0.0966,
      "velocity": 117,
      "chip": "ym2612"
    },
    {
      "channel": 4,
      "note": 64,
      "start": 24.5474,
      "duration": 0.094,
      "velocity": 117,
      "chip": "ym2612"
    },
    {
      "channel": 5,
      "note": 91,
      "start": 24.5506,
      "duration": 0.0909,
      "velocity": 118,
      "chip": "ym2612"
    },
    {
      "channel": 2,
      "note": 45,
      "start": 24.6456,
      "duration": 0.2125,
      "velocity": 126,
      "chip": "ym2612"
    },
    {
      "channel": 1,
      "note": 81,
      "start": 24.6486,
      "duration": 0.0926,
      "velocity": 118,
      "chip": "ym2612"
    },
    {
      "channel": 5,
      "note": 88,
      "start": 24.7451,
      "duration": 0.113,
      "velocity": 118,
      "chip": "ym2612"
    },
    {
      "channel": 3,
      "note": 64,
      "start": 24.8614,
      "duration": 0.0966,
      "velocity": 117,
      "chip": "ym2612"
    },
    {
      "channel": 4,
      "note": 60,
      "start": 24.8642,
      "duration": 0.0939,
      "velocity": 117,
      "chip": "ym2612"
    },
    {
      "channel": 0,
      "note": 54,
      "start": 24.8673,
      "duration": 0.0405,
      "velocity": 118,
      "chip": "ym2612"
    },
    {
      "channel": 1,
      "note": 93,
      "start": 24.8701,
      "duration": 0.0877,
      "velocity": 118,
      "chip": "ym2612"
    },
    {
      "channel": 5,
      "note": 81,
      "start": 24.9622,
      "duration": 0.0958,
      "velocity": 118,
      "chip": "ym2612"
    },
    {
      "channel": 2,
      "note": 45,
      "start": 25.0619,
      "duration": 0.1961,
      "velocity": 126,
      "chip": "ym2612"
    },
    {
      "channel": 0,
      "note": 84,
      "start": 25.0652,
      "duration": 0.626,
      "velocity": 78,
      "chip": "ym2612"
    },
    {
      "channel": 1,
      "note": 91,
      "start": 25.0685,
      "duration": 0.1059,
      "velocity": 118,
      "chip": "ym2612"
    },
    {
      "channel": 3,
      "note": 84,
      "start": 25.2791,
      "duration": 0.6289,
      "velocity": 78,
      "chip": "ym2612"
    },
    {
      "channel": 0,
      "note": 82,
      "start": 25.6949,
      "duration": 0.213,
      "velocity": 78,
      "chip": "ym2612"
    },
    {
      "channel": 0,
      "note": 85,
      "start": 25.9121,
      "duration": 0.9623,
      "velocity": 78,
      "chip": "ym2612"
    },
    {
      "channel": 3,
      "note": 82,
      "start": 25.915,
      "duration": 0.1928,
      "velocity": 78,
      "chip": "ym2612"
    },
    {
      "channel": 4,
      "note": 64,
      "start": 26.9612,
      "duration": 0.0967,
      "velocity": 117,
      "chip": "ym2612"
    },
    {
      "channel": 5,
      "note": 60,
      "start": 26.9641,
      "duration": 0.094,
      "velocity": 117,
      "chip": "ym2612"
    },
    {
      "channel": 2,
      "note": 45,
      "start": 26.9675,
      "duration": 0.2071,
      "velocity": 126,
      "chip": "ym2612"
    },
    {
      "channel": 1,
      "note": 54,
      "start": 26.9706,
      "duration": 0.0372,
      "velocity": 118,
      "chip": "ym2612"
    },
    {
      "channel": 3,
      "note": 69,
      "start": 26.9761,
      "duration": 0.2653,
      "velocity": 117,
      "chip": "ym2612"
    },
    {
      "channel": 0,
      "note": 60,
      "start": 27.178,
      "duration": 0.0964,
      "velocity": 117,
      "chip": "ym2612"
    },
    {
      "channel": 1,
      "note": 64,
      "start": 27.1809,
      "duration": 0.0937,
      "velocity": 117,
      "chip": "ym2612"
    },
    {
      "channel": 3,
      "note": 67,
      "start": 27.2794,
      "duration": 0.0618,
      "velocity": 117,
      "chip": "ym2612"
    },
    {
      "channel": 4,
      "note": 69,
      "start": 27.2844,
      "duration": 0.0403,
      "velocity": 117,
      "chip": "ym2612"
    },
    {
      "channel": 5,
      "note": 64,
      "start": 27.3777,
      "duration": 0.1137,
      "velocity": 117,
      "chip": "ym2612"
    },
    {
      "channel": 2,
      "note": 60,
      "start": 27.3806,
      "duration": 0.1109,
      "velocity": 117,
      "chip": "ym2612"
    },
    {
      "channel": 0,
      "note": 45,
      "start": 27.384,
      "duration": 0.1737,
      "velocity": 126,
      "chip": "ym2612"
    },
    {
      "channel": 1,
      "note": 54,
      "start": 27.3869,
      "duration": 0.0376,
      "velocity": 118,
      "chip": "ym2612"
    },
    {
      "channel": 3,
      "note": 69,
      "start": 27.3905,
      "duration": 0.3195,
      "velocity": 117,
      "chip": "ym2612"
    },
    {
      "channel": 4,
      "note": 60,
      "start": 27.5951,
      "duration": 0.0964,
      "velocity": 117,
      "chip": "ym2612"
    },
    {
      "channel": 1,
      "note": 64,
      "start": 27.5979,
      "duration": 0.0933,
      "velocity": 117,
      "chip": "ym2612"
    },
    {
      "channel": 5,
      "note": 67,
      "start": 27.6019,
      "duration": 0.0395,
      "velocity": 117,
      "chip": "ym2612"
    },
    {
      "channel": 2,
      "note": 64,
      "start": 27.6951,
      "duration": 0.113,
      "velocity": 117,
      "chip": "ym2612"
    },
    {
      "channel": 0,
      "note": 60,
      "start": 27.698,
      "duration": 0.1098,
      "velocity": 117,
      "chip": "ym2612"
    },
    {
      "channel": 5,
      "note": 45,
      "start": 27.7012,
      "duration": 0.157,
      "velocity": 126,
      "chip": "ym2612"
    },
    {
      "channel": 1,
      "note": 67,
      "start": 27.7051,
      "duration": 0.0361,
      "velocity": 117,
      "chip": "ym2612"
    },
    {
      "channel": 4,
      "note": 69,
      "start": 27.7086,
      "duration": 0.0328,
      "velocity": 117,
      "chip": "ym2612"
    },
    {
      "channel": 3,
      "note": 54,
      "start": 27.8116,
      "duration": 0.0464,
      "velocity": 118,
      "chip": "ym2612"
    },
    {
      "channel": 1,
      "note": 69,
      "start": 27.815,
      "duration": 0.0763,
      "velocity": 117,
      "chip": "ym2612"
    },
    {
      "channel": 4,
      "note": 60,
      "start": 27.9112,
      "duration": 0.0967,
      "velocity": 117,
      "chip": "ym2612"
    },
    {
      "channel": 0,
      "note": 64,
      "start": 27.9141,
      "duration": 0.0936,
      "velocity": 117,
      "chip": "ym2612"
    },
    {
      "channel": 1,
      "note": 67,
      "start": 27.9177,
      "duration": 0.0401,
      "velocity": 117,
      "chip": "ym2612"
    },
    {
      "channel": 2,
      "note": 60,
      "start": 28.0113,
      "duration": 0.1137,
      "velocity": 117,
      "chip": "ym2612"
    },
    {
      "channel": 3,
      "note": 64,
      "start": 28.0142,
      "duration": 0.1105,
      "velocity": 117,
      "chip": "ym2612"
    },
    {
      "channel": 5,
      "note": 45,
      "start": 28.0179,
      "duration": 0.2067,
      "velocity": 126,
      "chip": "ym2612"
    },
    {
      "channel": 1,
      "note": 69,
      "start": 28.0217,
      "duration": 0.1029,
      "velocity": 117,
      "chip": "ym2612"
    },
    {
      "channel": 0,
      "note": 67,
      "start": 28.0249,
      "duration": 0.033,
      "velocity": 117,
      "chip": "ym2612"
    },
    {
      "channel": 0,
      "note": 69,
      "start": 28.1288,
      "duration": 0.0457,
      "velocity": 117,
      "chip": "ym2612"
    },
    {
      "channel": 4,
      "note": 64,
      "start": 28.2279,
      "duration": 0.0968,
      "velocity": 117,
      "chip": "ym2612"
    },
    {
      "channel": 1,
      "note": 60,
      "start": 28.2308,
      "duration": 0.0937,
      "velocity": 117,
      "chip": "ym2612"
    },
    {
      "channel": 3,
      "note": 54,
      "start": 28.2338,
      "duration": 0.0408,
      "velocity": 118,
      "chip": "ym2612"
    },
    {
      "channel": 0,
      "note": 67,
      "start": 28.2371,
      "duration": 0.0373,
      "velocity": 117,
      "chip": "ym2612"
    },
    {
      "channel": 0,
      "note": 69,
      "start": 28.329,
      "duration": 0.0455,
      "velocity": 117,
      "chip": "ym2612"
    },
    {
      "channel": 2,
      "note": 60,
      "start": 28.428,
      "duration": 0.1136,
      "velocity": 117,
      "chip": "ym2612"
    },
    {
      "channel": 5,
      "note": 64,
      "start": 28.4309,
      "duration": 0.1105,
      "velocity": 117,
      "chip": "ym2612"
    },
    {
      "channel": 3,
      "note": 45,
      "start": 28.4343,
      "duration": 0.1737,
      "velocity": 126,
      "chip": "ym2612"
    },
    {
      "channel": 5,
      "note": 59,
      "start": 28.6445,
      "duration": 0.097,
      "velocity": 117,
      "chip": "ym2612"
    },
    {
      "channel": 2,
      "note": 55,
      "start": 28.6474,
      "duration": 0.0943,
      "velocity": 117,
      "chip": "ym2612"
    },
    {
      "channel": 1,
      "note": 64,
      "start": 28.6502,
      "duration": 0.091,
      "velocity": 117,
      "chip": "ym2612"
    },
    {
      "channel": 4,
      "note": 60,
      "start": 28.653,
      "duration": 0.0883,
      "velocity": 117,
      "chip": "ym2612"
    },
    {
      "channel": 3,
      "note": 40,
      "start": 28.656,
      "duration": 0.2019,
      "velocity": 126,
      "chip": "ym2612"
    },
    {
      "channel": 0,
      "note": 54,
      "start": 28.659,
      "duration": 0.0321,
      "velocity": 118,
      "chip": "ym2612"
    },
    {
      "channel": 1,
      "note": 55,
      "start": 28.8615,
      "duration": 0.0963,
      "velocity": 117,
      "chip": "ym2612"
    },
    {
      "channel": 4,
      "note": 59,
      "start": 28.8644,
      "duration": 0.0936,
      "velocity": 117,
      "chip": "ym2612"
    },
    {
      "channel": 5,
      "note": 55,
      "start": 29.0615,
      "duration": 0.1132,
      "velocity": 117,
      "chip": "ym2612"
    },
    {
      "channel": 2,
      "note": 59,
      "start": 29.0644,
      "duration": 0.1105,
      "velocity": 117,
      "chip": "ym2612"
    },
    {
      "channel": 3,
      "note": 40,
      "start": 29.0676,
      "duration": 0.1903,
      "velocity": 126,
      "chip": "ym2612"
    },
    {
      "channel": 0,
      "note": 54,
      "start": 29.0706,
      "duration": 0.0539,
      "velocity": 118,
      "chip": "ym2612"
    },
    {
      "channel": 1,
      "note": 59,
      "start": 29.2778,
      "duration": 0.0968,
      "velocity": 117,
      "chip": "ym2612"
    },
    {
      "channel": 4,
      "note": 55,
      "start": 29.2806,
      "duration": 0.0942,
      "velocity": 117,
      "chip": "ym2612"
    },
    {
      "channel": 5,
      "note": 60,
      "start": 29.378,
      "duration": 0.1134,
      "velocity": 117,
      "chip": "ym2612"
    },
    {
      "channel": 2,
      "note": 57,
      "start": 29.3809,
      "duration": 0.1106,
      "velocity": 117,
      "chip": "ym2612"
    },
    {
      "channel": 3,
      "note": 41,
      "start": 29.3839,
      "duration": 0.1574,
      "velocity": 126,
      "chip": "ym2612"
    },
    {
      "channel": 0,
      "note": 54,
      "start": 29.4947,
      "duration": 0.0464,
      "velocity": 118,
      "chip": "ym2612"
    },
    {
      "channel": 1,
      "note": 81,
      "start": 29.4988,
      "duration": 0.0592,
      "velocity": 117,
      "chip": "ym2612"
    },
    {
      "channel": 4,
      "note": 57,
      "start": 29.5944,
      "duration": 0.0968,
      "velocity": 117,
      "chip": "ym2612"
    },
    {
      "channel": 5,
      "note": 60,
      "start": 29.5974,
      "duration": 0.094,
      "velocity": 117,
      "chip": "ym2612"
    },
    {
      "channel": 1,
      "note": 69,
      "start": 29.6007,
      "duration": 0.0572,
      "velocity": 117,
      "chip": "ym2612"
    },
    {
      "channel": 2,
      "note": 60,
      "start": 29.6946,
      "duration": 0.1136,
      "velocity": 117,
      "chip": "ym2612"
    },
    {
      "channel": 0,
      "note": 57,
      "start": 29.6975,
      "duration": 0.1103,
      "velocity": 117,
      "chip": "ym2612"
    },
    {
      "channel": 3,
      "note": 41,
      "start": 29.7007,
      "duration": 0.1906,
      "velocity": 126,
      "chip": "ym2612"
    },
    {
      "channel": 1,
      "note": 93,
      "start": 29.7042,
      "duration": 0.0869,
      "velocity": 117,
      "chip": "ym2612"
    },
    {
      "channel": 1,
      "note": 81,
      "start": 29.812,
      "duration": 0.0792,
      "velocity": 117,
      "chip": "ym2612"
    },
    {
      "channel": 4,
      "note": 81,
      "start": 29.8152,
      "duration": 0.0427,
      "velocity": 117,
      "chip": "ym2612"
    },
    {
      "channel": 5,
      "note": 57,
      "start": 29.9112,
      "duration": 0.097,
      "velocity": 117,
      "chip": "ym2612"
    },
    {
      "channel": 0,
      "note": 60,
      "start": 29.9141,
      "duration": 0.0936,
      "velocity": 117,
      "chip": "ym2612"
    },
    {
      "channel": 2,
      "note": 54,
      "start": 29.9171,
      "duration": 0.041,
      "velocity": 118,
      "chip": "ym2612"
    },
    {
      "channel": 1,
      "note": 69,
      "start": 29.9208,
      "duration": 0.0871,
      "velocity": 117,
      "chip": "ym2612"
    },
    {
      "channel": 4,
      "note": 69,
      "start": 29.9236,
      "duration": 0.0344,
      "velocity": 117,
      "chip": "ym2612"
    },
    {
      "channel": 4,
      "note": 93,
      "start": 30.0122,
      "duration": 0.0457,
      "velocity": 117,
      "chip": "ym2612"
    },
    {
      "channel": 3,
      "note": 57,
      "start": 30.1279,
      "duration": 0.0967,
      "velocity": 117,
      "chip": "ym2612"
    },
    {
      "channel": 2,
      "note": 60,
      "start": 30.1308,
      "duration": 0.094,
      "velocity": 117,
      "chip": "ym2612"
    },
    {
      "channel": 0,
      "note": 41,
      "start": 30.1346,
      "duration": 0.1233,
      "velocity": 126,
      "chip": "ym2612"
    },
    {
      "channel": 4,
      "note": 81,
      "start": 30.1381,
      "duration": 0.0366,
      "velocity": 117,
      "chip": "ym2612"
    },
    {
      "channel": 4,
      "note": 69,
      "start": 30.2295,
      "duration": 0.0451,
      "velocity": 117,
      "chip": "ym2612"
    },
    {
      "channel": 3,
      "note": 64,
      "start": 30.3281,
      "duration": 0.1133,
      "velocity": 117,
      "chip": "ym2612"
    },
    {
      "channel": 2,
      "note": 60,
      "start": 30.331,
      "duration": 0.1107,
      "velocity": 117,
      "chip": "ym2612"
    },
    {
      "channel": 5,
      "note": 60,
      "start": 30.3343,
      "duration": 0.1073,
      "velocity": 117,
      "chip": "ym2612"
    },
    {
      "channel": 1,
      "note": 57,
      "start": 30.3372,
      "duration": 0.1041,
      "velocity": 117,
      "chip": "ym2612"
    },
    {
      "channel": 0,
      "note": 48,
      "start": 30.3402,
      "duration": 0.201,
      "velocity": 126,
      "chip": "ym2612"
    },
    {
      "channel": 4,
      "note": 54,
      "start": 30.3432,
      "duration": 0.0315,
      "velocity": 118,
      "chip": "ym2612"
    },
    {
      "channel": 1,
      "note": 60,
      "start": 30.5445,
      "duration": 0.0966,
      "velocity": 117,
      "chip": "ym2612"
    },
    {
      "channel": 5,
      "note": 64,
      "start": 30.5474,
      "duration": 0.094,
      "velocity": 117,
      "chip": "ym2612"
    },
    {
      "channel": 3,
      "note": 64,
      "start": 30.761,
      "duration": 0.0969,
      "velocity": 117,
      "chip": "ym2612"
    },
    {
      "channel": 2,
      "note": 60,
      "start": 30.7639,
      "duration": 0.0943,
      "velocity": 117,
      "chip": "ym2612"
    },
    {
      "channel": 0,
      "note": 45,
      "start": 30.767,
      "duration": 0.1574,
      "velocity": 126,
      "chip": "ym2612"
    },
    {
      "channel": 4,
      "note": 54,
      "start": 30.7698,
      "duration": 0.0382,
      "velocity": 118,
      "chip": "ym2612"
    },
    {
      "channel": 1,
      "note": 60,
      "start": 30.9611,
      "duration": 0.1134,
      "velocity": 117,
      "chip": "ym2612"
    },
    {
      "channel": 5,
      "note": 64,
      "start": 30.964,
      "duration": 0.1108,
      "velocity": 117,
      "chip": "ym2612"
    },
    {
      "channel": 3,
      "note": 64,
      "start": 31.0779,
      "duration": 0.0967,
      "velocity": 117,
      "chip": "ym2612"
    },
    {
      "channel": 2,
      "note": 60,
      "start": 31.0808,
      "duration": 0.094,
      "velocity": 117,
      "chip": "ym2612"
    },
    {
      "channel": 0,
      "note": 45,
      "start": 31.0837,
      "duration": 0.1242,
      "velocity": 126,
      "chip": "ym2612"
    },
    {
      "channel": 4,
      "note": 54,
      "start": 31.1781,
      "duration": 0.0466,
      "velocity": 118,
      "chip": "ym2612"
    },
    {
      "channel": 1,
      "note": 83,
      "start": 31.1818,
      "duration": 0.176,
      "velocity": 117,
      "chip": "ym2612"
    },
    {
      "channel": 5,
      "note": 60,
      "start": 31.2779,
      "duration": 0.0968,
      "velocity": 117,
      "chip": "ym2612"
    },
    {
      "channel": 3,
      "note": 64,
      "start": 31.2808,
      "duration": 0.0938,
      "velocity": 117,
      "chip": "ym2612"
    },
    {
      "channel": 2,
      "note": 60,
      "start": 31.378,
      "duration": 0.1134,
      "velocity": 117,
      "chip": "ym2612"
    },
    {
      "channel": 0,
      "note": 64,
      "start": 31.3809,
      "duration": 0.1102,
      "velocity": 117,
      "chip": "ym2612"
    },
    {
      "channel": 4,
      "note": 45,
      "start": 31.3843,
      "duration": 0.2069,
      "velocity": 126,
      "chip": "ym2612"
    },
    {
      "channel": 1,
      "note": 84,
      "start": 31.3885,
      "duration": 0.0693,
      "velocity": 117,
      "chip": "ym2612"
    },
    {
      "channel": 3,
      "note": 64,
      "start": 31.5949,
      "duration": 0.0963,
      "velocity": 117,
      "chip": "ym2612"
    },
    {
      "channel": 5,
      "note": 60,
      "start": 31.5977,
      "duration": 0.0937,
      "velocity": 117,
      "chip": "ym2612"
    },
    {
      "channel": 1,
      "note": 54,
      "start": 31.6007,
      "duration": 0.0404,
      "velocity": 118,
      "chip": "ym2612"
    },
    {
      "channel": 0,
      "note": 60,
      "start": 31.8112,
      "duration": 0.0966,
      "velocity": 117,
      "chip": "ym2612"
    },
    {
      "channel": 2,
      "note": 64,
      "start": 31.8141,
      "duration": 0.094,
      "velocity": 117,
      "chip": "ym2612"
    },
    {
      "channel": 4,
      "note": 45,
      "start": 31.8174,
      "duration": 0.1739,
      "velocity": 126,
      "chip": "ym2612"
    },
    {
      "channel": 0,
      "note": 59,
      "start": 32.0109,
      "duration": 0.1137,
      "velocity": 117,
      "chip": "ym2612"
    },
    {
      "channel": 2,
      "note": 55,
      "start": 32.0138,
      "duration": 0.1113,
      "velocity": 117,
      "chip": "ym2612"
    },
    {
      "channel": 3,
      "note": 64,
      "start": 32.0166,
      "duration": 0.1081,
      "velocity": 117,
      "chip": "ym2612"
    },
    {
      "channel": 5,
      "note": 60,
      "start": 32.0194,
      "duration": 0.1055,
      "velocity": 117,
      "chip": "ym2612"
    },
    {
      "channel": 4,
      "note": 40,
      "start": 32.0229,
      "duration": 0.2351,
      "velocity": 126,
      "chip": "ym2612"
    },
    {
      "channel": 1,
      "note": 54,
      "start": 32.0257,
      "duration": 0.0487,
      "velocity": 118,
      "chip": "ym2612"
    },
    {
      "channel": 3,
      "note": 55,
      "start": 32.2278,
      "duration": 0.0967,
      "velocity": 117,
      "chip": "ym2612"
    },
    {
      "channel": 5,
      "note": 59,
      "start": 32.2307,
      "duration": 0.094,
      "velocity": 117,
      "chip": "ym2612"
    },
    {
      "channel": 0,
      "note": 55,
      "start": 32.4442,
      "duration": 0.0969,
      "velocity": 117,
      "chip": "ym2612"
    },
    {
      "channel": 2,
      "note": 59,
      "start": 32.4471,
      "duration": 0.0944,
      "velocity": 117,
      "chip": "ym2612"
    },
    {
      "channel": 4,
      "note": 40,
      "start": 32.4504,
      "duration": 0.1908,
      "velocity": 126,
      "chip": "ym2612"
    },
    {
      "channel": 1,
      "note": 54,
      "start": 32.453,
      "duration": 0.0382,
      "velocity": 118,
      "chip": "ym2612"
    },
    {
      "channel": 3,
      "note": 59,
      "start": 32.6445,
      "duration": 0.1134,
      "velocity": 117,
      "chip": "ym2612"
    },
    {
      "channel": 5,
      "note": 55,
      "start": 32.6474,
      "duration": 0.1107,
      "velocity": 117,
      "chip": "ym2612"
    },
    {
      "channel": 0,
      "note": 60,
      "start": 32.7611,
      "duration": 0.0967,
      "velocity": 117,
      "chip": "ym2612"
    },
    {
      "channel": 2,
      "note": 57,
      "start": 32.764,
      "duration": 0.0942,
      "velocity": 117,
      "chip": "ym2612"
    },
    {
      "channel": 4,
      "note": 41,
      "start": 32.7671,
      "duration": 0.141,
      "velocity": 126,
      "chip": "ym2612"
    },
    {
      "channel": 1,
      "note": 54,
      "start": 32.8614,
      "duration": 0.0464,
      "velocity": 118,
      "chip": "ym2612"
    },
    {
      "channel": 3,
      "note": 65,
      "start": 32.8652,
      "duration": 0.0928,
      "velocity": 117,
      "chip": "ym2612"
    },
    {
      "channel": 5,
      "note": 57,
      "start": 32.9617,
      "duration": 0.1131,
      "velocity": 117,
      "chip": "ym2612"
    },
    {
      "channel": 0,
      "note": 60,
      "start": 32.9647,
      "duration": 0.1099,
      "velocity": 117,
      "chip": "ym2612"
    },
    {
      "channel": 2,
      "note": 60,
      "start": 33.0785,
      "duration": 0.0964,
      "velocity": 117,
      "chip": "ym2612"
    },
    {
      "channel": 1,
      "note": 57,
      "start": 33.0813,
      "duration": 0.0932,
      "velocity": 117,
      "chip": "ym2612"
    },
    {
      "channel": 4,
      "note": 41,
      "start": 33.0846,
      "duration": 0.1733,
      "velocity": 126,
      "chip": "ym2612"
    },
    {
      "channel": 3,
      "note": 64,
      "start": 33.0881,
      "duration": 0.0865,
      "velocity": 117,
      "chip": "ym2612"
    },
    {
      "channel": 0,
      "note": 57,
      "start": 33.2777,
      "duration": 0.1134,
      "velocity": 117,
      "chip": "ym2612"
    },
    {
      "channel": 5,
      "note": 60,
      "start": 33.2805,
      "duration": 0.1109,
      "velocity": 117,
      "chip": "ym2612"
    },
    {
      "channel": 1,
      "note": 54,
      "start": 33.2836,
      "duration": 0.041,
      "velocity": 118,
      "chip": "ym2612"
    },
    {
      "channel": 2,
      "note": 57,
      "start": 33.4946,
      "duration": 0.0969,
      "velocity": 117,
      "chip": "ym2612"
    },
    {
      "channel": 3,
      "note": 60,
      "start": 33.4975,
      "duration": 0.0938,
      "velocity": 117,
      "chip": "ym2612"
    },
    {
      "channel": 4,
      "note": 41,
      "start": 33.5007,
      "duration": 0.1406,
      "velocity": 126,
      "chip": "ym2612"
    },
    {
      "channel": 3,
      "note": 64,
      "start": 33.711,
      "duration": 0.0969,
      "velocity": 117,
      "chip": "ym2612"
    },
    {
      "channel": 2,
      "note": 60,
      "start": 33.7139,
      "duration": 0.0944,
      "velocity": 117,
      "chip": "ym2612"
    },
    {
      "channel": 0,
      "note": 60,
      "start": 33.7166,
      "duration": 0.0106,
      "velocity": 117,
      "chip": "ym2612"
    },
    {
      "channel": 5,
      "note": 57,
      "start": 33.7194,
      "duration": 0.0888,
      "velocity": 117,
      "chip": "ym2612"
    },
    {
      "channel": 4,
      "note": 45,
      "start": 33.723,
      "duration": 0.1849,
      "velocity": 126,
      "chip": "ym2612"
    },
    {
      "channel": 1,
      "note": 54,
      "start": 33.7257,
      "duration": 0.0322,
      "velocity": 118,
      "chip": "ym2612"
    },
    {
      "channel": 0,
      "note": 69,
      "start": 33.7294,
      "duration": 0.245,
      "velocity": 117,
      "chip": "ym2612"
    },
    {
      "channel": 5,
      "note": 60,
      "start": 33.9113,
      "duration": 0.0968,
      "velocity": 117,
      "chip": "ym2612"
    },
    {
      "channel": 1,
      "note": 64,
      "start": 33.9142,
      "duration": 0.0937,
      "velocity": 117,
      "chip": "ym2612"
    },
    {
      "channel": 0,
      "note": 67,
      "start": 34.0122,
      "duration": 0.079,
      "velocity": 117,
      "chip": "ym2612"
    },
    {
      "channel": 3,
      "note": 69,
      "start": 34.0154,
      "duration": 0.0592,
      "velocity": 117,
      "chip": "ym2612"
    },
    {
      "channel": 2,
      "note": 64,
      "start": 34.1279,
      "duration": 0.097,
      "velocity": 117,
      "chip": "ym2612"
    },
    {
      "channel": 4,
      "note": 60,
      "start": 34.1308,
      "duration": 0.0938,
      "velocity": 117,
      "chip": "ym2612"
    },
    {
      "channel": 1,
      "note": 45,
      "start": 34.1342,
      "duration": 0.157,
      "velocity": 126,
      "chip": "ym2612"
    },
    {
      "channel": 5,
      "note": 54,
      "start": 34.1371,
      "duration": 0.0375,
      "velocity": 118,
      "chip": "ym2612"
    },
    {
      "channel": 0,
      "note": 69,
      "start": 34.1406,
      "duration": 0.3192,
      "velocity": 117,
      "chip": "ym2612"
    },
    {
      "channel": 3,
      "note": 60,
      "start": 34.3283,
      "duration": 0.1129,
      "velocity": 117,
      "chip": "ym2612"
    },
    {
      "channel": 5,
      "note": 64,
      "start": 34.3313,
      "duration": 0.1101,
      "velocity": 117,
      "chip": "ym2612"
    },
    {
      "channel": 4,
      "note": 67,
      "start": 34.3351,
      "duration": 0.0561,
      "velocity": 117,
      "chip": "ym2612"
    },
    {
      "channel": 2,
      "note": 64,
      "start": 34.445,
      "duration": 0.0964,
      "velocity": 117,
      "chip": "ym2612"
    },
    {
      "channel": 1,
      "note": 60,
      "start": 34.4479,
      "duration": 0.0933,
      "velocity": 117,
      "chip": "ym2612"
    },
    {
      "channel": 4,
      "note": 45,
      "start": 34.451,
      "duration": 0.1404,
      "velocity": 126,
      "chip": "ym2612"
    },
    {
      "channel": 3,
      "note": 67,
      "start": 34.4553,
      "duration": 0.0359,
      "velocity": 117,
      "chip": "ym2612"
    },
    {
      "channel": 5,
      "note": 69,
      "start": 34.4585,
      "duration": 0.0329,
      "velocity": 117,
      "chip": "ym2612"
    },
    {
      "channel": 0,
      "note": 54,
      "start": 34.5449,
      "duration": 0.0463,
      "velocity": 118,
      "chip": "ym2612"
    },
    {
      "channel": 3,
      "note": 69,
      "start": 34.5483,
      "duration": 0.0763,
      "velocity": 117,
      "chip": "ym2612"
    },
    {
      "channel": 5,
      "note": 60,
      "start": 34.6447,
      "duration": 0.1134,
      "velocity": 117,
      "chip": "ym2612"
    },
    {
      "channel": 1,
      "note": 64,
      "start": 34.6476,
      "duration": 0.1102,
      "velocity": 117,
      "chip": "ym2612"
    },
    {
      "channel": 3,
      "note": 67,
      "start": 34.6512,
      "duration": 0.0566,
      "velocity": 117,
      "chip": "ym2612"
    },
    {
      "channel": 2,
      "note": 60,
      "start": 34.7614,
      "duration": 0.0968,
      "velocity": 117,
      "chip": "ym2612"
    },
    {
      "channel": 0,
      "note": 64,
      "start": 34.7642,
      "duration": 0.0935,
      "velocity": 117,
      "chip": "ym2612"
    },
    {
      "channel": 4,
      "note": 45,
      "start": 34.7675,
      "duration": 0.1903,
      "velocity": 126,
      "chip": "ym2612"
    },
    {
      "channel": 3,
      "note": 69,
      "start": 34.7713,
      "duration": 0.0866,
      "velocity": 117,
      "chip": "ym2612"
    },
    {
      "channel": 1,
      "note": 67,
      "start": 34.7745,
      "duration": 0.0333,
      "velocity": 117,
      "chip": "ym2612"
    },
    {
      "channel": 1,
      "note": 69,
      "start": 34.8621,
      "duration": 0.0457,
      "velocity": 117,
      "chip": "ym2612"
    },
    {
      "channel": 5,
      "note": 64,
      "start": 34.9612,
      "duration": 0.1136,
      "velocity": 117,
      "chip": "ym2612"
    },
    {
      "channel": 0,
      "note": 60,
      "start": 34.9641,
      "duration": 0.1104,
      "velocity": 117,
      "chip": "ym2612"
    },
    {
      "channel": 3,
      "note": 54,
      "start": 34.9672,
      "duration": 0.0574,
      "velocity": 118,
      "chip": "ym2612"
    },
    {
      "channel": 1,
      "note": 67,
      "start": 34.9705,
      "duration": 0.054,
      "velocity": 117,
      "chip": "ym2612"
    },
    {
      "channel": 1,
      "note": 69,
      "start": 35.079,
      "duration": 0.0454,
      "velocity": 117,
      "chip": "ym2612"
    },
    {
      "channel": 2,
      "note": 60,
      "start": 35.1779,
      "duration": 0.097,
      "velocity": 117,
      "chip": "ym2612"
    },
    {
      "channel": 4,
      "note": 64,
      "start": 35.1808,
      "duration": 0.0938,
      "velocity": 117,
      "chip": "ym2612"
    },
    {
      "channel": 3,
      "note": 45,
      "start": 35.1842,
      "duration": 0.1737,
      "velocity": 126,
      "chip": "ym2612"
    },
    {
      "channel": 4,
      "note": 59,
      "start": 35.3945,
      "duration": 0.0969,
      "velocity": 117,
      "chip": "ym2612"
    },
    {
      "channel": 2,
      "note": 55,
      "start": 35.3974,
      "duration": 0.0943,
      "velocity": 117,
      "chip": "ym2612"
    },
    {
      "channel": 0,
      "note": 64,
      "start": 35.4001,
      "duration": 0.091,
      "velocity": 117,
      "chip": "ym2612"
    },
    {
      "channel": 5,
      "note": 60,
      "start": 35.4029,
      "duration": 0.0886,
      "velocity": 117,
      "chip": "ym2612"
    },
    {
      "channel": 3,
      "note": 40,
      "start": 35.406,
      "duration": 0.1853,
      "velocity": 126,
      "chip": "ym2612"
    },
    {
      "channel": 1,
      "note": 54,
      "start": 35.4089,
      "duration": 0.0324,
      "velocity": 118,
      "chip": "ym2612"
    },
    {
      "channel": 0,
      "note": 55,
      "start": 35.5949,
      "duration": 0.1129,
      "velocity": 117,
      "chip": "ym2612"
    },
    {
      "channel": 5,
      "note": 59,
      "start": 35.5977,
      "duration": 0.1105,
      "velocity": 117,
      "chip": "ym2612"
    },
    {
      "channel": 4,
      "note": 55,
      "start": 35.8115,
      "duration": 0.0964,
      "velocity": 117,
      "chip": "ym2612"
    },
    {
      "channel": 2,
      "note": 59,
      "start": 35.8144,
      "duration": 0.0938,
      "velocity": 117,
      "chip": "ym2612"
    },
    {
      "channel": 3,
      "note": 40,
      "start": 35.8179,
      "duration": 0.19,
      "velocity": 126,
      "chip": "ym2612"
    },
    {
      "channel": 1,
      "note": 54,
      "start": 35.821,
      "duration": 0.0368,
      "velocity": 118,
      "chip": "ym2612"
    },
    {
      "channel": 0,
      "note": 59,
      "start": 36.0276,
      "duration": 0.0968,
      "velocity": 117,
      "chip": "ym2612"
    },
    {
      "channel": 5,
      "note": 55,
      "start": 36.0304,
      "duration": 0.0943,
      "velocity": 117,
      "chip": "ym2612"
    },
    {
      "channel": 4,
      "note": 60,
      "start": 36.1279,
      "duration": 0.0968,
      "velocity": 117,
      "chip": "ym2612"
    },
    {
      "channel": 2,
      "note": 57,
      "start": 36.1308,
      "duration": 0.0941,
      "velocity": 117,
      "chip": "ym2612"
    },
    {
      "channel": 3,
      "note": 41,
      "start": 36.1338,
      "duration": 0.141,
      "velocity": 126,
      "chip": "ym2612"
    },
    {
      "channel": 1,
      "note": 54,
      "start": 36.2281,
      "duration": 0.0465,
      "velocity": 118,
      "chip": "ym2612"
    },
    {
      "channel": 0,
      "note": 81,
      "start": 36.2318,
      "duration": 0.0594,
      "velocity": 117,
      "chip": "ym2612"
    },
    {
      "channel": 5,
      "note": 57,
      "start": 36.3446,
      "duration": 0.0968,
      "velocity": 117,
      "chip": "ym2612"
    },
    {
      "channel": 4,
      "note": 60,
      "start": 36.3476,
      "duration": 0.0937,
      "velocity": 117,
      "chip": "ym2612"
    },
    {
      "channel": 0,
      "note": 69,
      "start": 36.3509,
      "duration": 0.0569,
      "velocity": 117,
      "chip": "ym2612"
    },
    {
      "channel": 2,
      "note": 60,
      "start": 36.4447,
      "duration": 0.0968,
      "velocity": 117,
      "chip": "ym2612"
    },
    {
      "channel": 1,
      "note": 57,
      "start": 36.4476,
      "duration": 0.0937,
      "velocity": 117,
      "chip": "ym2612"
    },
    {
      "channel": 3,
      "note": 41,
      "start": 36.4508,
      "duration": 0.1739,
      "velocity": 126,
      "chip": "ym2612"
    },
    {
      "channel": 0,
      "note": 93,
      "start": 36.4542,
      "duration": 0.0703,
      "velocity": 117,
      "chip": "ym2612"
    },
    {
      "channel": 0,
      "note": 81,
      "start": 36.5456,
      "duration": 0.0788,
      "velocity": 117,
      "chip": "ym2612"
    },
    {
      "channel": 4,
      "note": 81,
      "start": 36.5488,
      "duration": 0.0425,
      "velocity": 117,
      "chip": "ym2612"
    },
    {
      "channel": 5,
      "note": 57,
      "start": 36.6612,
      "duration": 0.097,
      "velocity": 117,
      "chip": "ym2612"
    },
    {
      "channel": 1,
      "note": 60,
      "start": 36.6641,
      "duration": 0.0938,
      "velocity": 117,
      "chip": "ym2612"
    },
    {
      "channel": 2,
      "note": 54,
      "start": 36.6672,
      "duration": 0.041,
      "velocity": 118,
      "chip": "ym2612"
    },
    {
      "channel": 0,
      "note": 69,
      "start": 36.6708,
      "duration": 0.087,
      "velocity": 117,
      "chip": "ym2612"
    },
    {
      "channel": 4,
      "note": 69,
      "start": 36.674,
      "duration": 0.0339,
      "velocity": 117,
      "chip": "ym2612"
    },
    {
      "channel": 4,
      "note": 93,
      "start": 36.7624,
      "duration": 0.0456,
      "velocity": 117,
      "chip": "ym2612"
    },
    {
      "channel": 3,
      "note": 57,
      "start": 36.8612,
      "duration": 0.0967,
      "velocity": 117,
      "chip": "ym2612"
    },
    {
      "channel": 2,
      "note": 60,
      "start": 36.8641,
      "duration": 0.094,
      "velocity": 117,
      "chip": "ym2612"
    },
    {
      "channel": 0,
      "note": 41,
      "start": 36.8675,
      "duration": 0.1403,
      "velocity": 126,
      "chip": "ym2612"
    },
    {
      "channel": 4,
      "note": 81,
      "start": 36.871,
      "duration": 0.037,
      "velocity": 117,
      "chip": "ym2612"
    },
    {
      "channel": 4,
      "note": 69,
      "start": 36.9624,
      "duration": 0.0622,
      "velocity": 117,
      "chip": "ym2612"
    },
    {
      "channel": 3,
      "note": 64,
      "start": 37.0781,
      "duration": 0.0966,
      "velocity": 117,
      "chip": "ym2612"
    },
    {
      "channel": 2,
      "note": 60,
      "start": 37.081,
      "duration": 0.094,
      "velocity": 117,
      "chip": "ym2612"
    },
    {
      "channel": 1,
      "note": 60,
      "start": 37.0841,
      "duration": 0.0903,
      "velocity": 117,
      "chip": "ym2612"
    },
    {
      "channel": 5,
      "note": 57,
      "start": 37.0869,
      "duration": 0.0879,
      "velocity": 117,
      "chip": "ym2612"
    },
    {
      "channel": 0,
      "note": 48,
      "start": 37.0899,
      "duration": 0.1846,
      "velocity": 126,
      "chip": "ym2612"
    },
    {
      "channel": 4,
      "note": 54,
      "start": 37.093,
      "duration": 0.0317,
      "velocity": 118,
      "chip": "ym2612"
    },
    {
      "channel": 1,
      "note": 60,
      "start": 37.2778,
      "duration": 0.1134,
      "velocity": 117,
      "chip": "ym2612"
    },
    {
      "channel": 5,
      "note": 64,
      "start": 37.2807,
      "duration": 0.1107,
      "velocity": 117,
      "chip": "ym2612"
    },
    {
      "channel": 3,
      "note": 64,
      "start": 37.4943,
      "duration": 0.097,
      "velocity": 117,
      "chip": "ym2612"
    },
    {
      "channel": 2,
      "note": 60,
      "start": 37.4972,
      "duration": 0.0944,
      "velocity": 117,
      "chip": "ym2612"
    },
    {
      "channel": 0,
      "note": 45,
      "start": 37.5003,
      "duration": 0.1741,
      "velocity": 126,
      "chip": "ym2612"
    },
    {
      "channel": 4,
      "note": 54,
      "start": 37.5031,
      "duration": 0.0382,
      "velocity": 118,
      "chip": "ym2612"
    },
    {
      "channel": 1,
      "note": 60,
      "start": 37.711,
      "duration": 0.0968,
      "velocity": 117,
      "chip": "ym2612"
    },
    {
      "channel": 5,
      "note": 64,
      "start": 37.7139,
      "duration": 0.0941,
      "velocity": 117,
      "chip": "ym2612"
    },
    {
      "channel": 3,
      "note": 64,
      "start": 37.8112,
      "duration": 0.0966,
      "velocity": 117,
      "chip": "ym2612"
    },
    {
      "channel": 2,
      "note": 60,
      "start": 37.814,
      "duration": 0.0941,
      "velocity": 117,
      "chip": "ym2612"
    },
    {
      "channel": 0,
      "note": 45,
      "start": 37.8173,
      "duration": 0.1239,
      "velocity": 126,
      "chip": "ym2612"
    },
    {
      "channel": 4,
      "note": 54,
      "start": 37.9114,
      "duration": 0.0632,
      "velocity": 118,
      "chip": "ym2612"
    },
    {
      "channel": 1,
      "note": 95,
      "start": 37.9152,
      "duration": 0.1926,
      "velocity": 117,
      "chip": "ym2612"
    },
    {
      "channel": 5,
      "note": 60,
      "start": 38.0279,
      "duration": 0.0968,
      "velocity": 117,
      "chip": "ym2612"
    },
    {
      "channel": 3,
      "note": 64,
      "start": 38.0308,
      "duration": 0.0938,
      "velocity": 117,
      "chip": "ym2612"
    },
    {
      "channel": 2,
      "note": 60,
      "start": 38.128,
      "duration": 0.0968,
      "velocity": 117,
      "chip": "ym2612"
    },
    {
      "channel": 0,
      "note": 64,
      "start": 38.1309,
      "duration": 0.0935,
      "velocity": 117,
      "chip": "ym2612"
    },
    {
      "channel": 4,
      "note": 45,
      "start": 38.1343,
      "duration": 0.2069,
      "velocity": 126,
      "chip": "ym2612"
    },
    {
      "channel": 1,
      "note": 96,
      "start": 38.1381,
      "duration": 0.0531,
      "velocity": 117,
      "chip": "ym2612"
    },
    {
      "channel": 3,
      "note": 95,
      "start": 38.1415,
      "duration": 0.1831,
      "velocity": 117,
      "chip": "ym2612"
    },
    {
      "channel": 5,
      "note": 64,
      "start": 38.3451,
      "duration": 0.0963,
      "velocity": 117,
      "chip": "ym2612"
    },
    {
      "channel": 1,
      "note": 60,
      "start": 38.3479,
      "duration": 0.0932,
      "velocity": 117,
      "chip": "ym2612"
    },
    {
      "channel": 0,
      "note": 54,
      "start": 38.3509,
      "duration": 0.0403,
      "velocity": 118,
      "chip": "ym2612"
    },
    {
      "channel": 3,
      "note": 96,
      "start": 38.3547,
      "duration": 0.0532,
      "velocity": 117,
      "chip": "ym2612"
    },
    {
      "channel": 2,
      "note": 60,
      "start": 38.5449,
      "duration": 0.1133,
      "velocity": 117,
      "chip": "ym2612"
    },
    {
      "channel": 4,
      "note": 64,
      "start": 38.5478,
      "duration": 0.1102,
      "velocity": 117,
      "chip": "ym2612"
    },
    {
      "channel": 0,
      "note": 45,
      "start": 38.5512,
      "duration": 0.19,
      "velocity": 126,
      "chip": "ym2612"
    },
    {
      "channel": 4,
      "note": 59,
      "start": 38.761,
      "duration": 0.0971,
      "velocity": 117,
      "chip": "ym2612"
    },
    {
      "channel": 2,
      "note": 55,
      "start": 38.7639,
      "duration": 0.0945,
      "velocity": 117,
      "chip": "ym2612"
    },
    {
      "channel": 1,
      "note": 64,
      "start": 38.7667,
      "duration": 0.0912,
      "velocity": 117,
      "chip": "ym2612"
    },
    {
      "channel": 5,
      "note": 60,
      "start": 38.7695,
      "duration": 0.0887,
      "velocity": 117,
      "chip": "ym2612"
    },
    {
      "channel": 0,
      "note": 40,
      "start": 38.7725,
      "duration": 0.2352,
      "velocity": 126,
      "chip": "ym2612"
    },
    {
      "channel": 3,
      "note": 54,
      "start": 38.7755,
      "duration": 0.0324,
      "velocity": 118,
      "chip": "ym2612"
    },
    {
      "channel": 1,
      "note": 55,
      "start": 38.9778,
      "duration": 0.0967,
      "velocity": 117,
      "chip": "ym2612"
    },
    {
      "channel": 5,
      "note": 59,
      "start": 38.9806,
      "duration": 0.0941,
      "velocity": 117,
      "chip": "ym2612"
    },
    {
      "channel": 4,
      "note": 55,
      "start": 39.1778,
      "duration": 0.1135,
      "velocity": 117,
      "chip": "ym2612"
    },
    {
      "channel": 2,
      "note": 59,
      "start": 39.1806,
      "duration": 0.1108,
      "velocity": 117,
      "chip": "ym2612"
    },
    {
      "channel": 0,
      "note": 40,
      "start": 39.1837,
      "duration": 0.2075,
      "velocity": 126,
      "chip": "ym2612"
    },
    {
      "channel": 3,
      "note": 54,
      "start": 39.1865,
      "duration": 0.0381,
      "velocity": 118,
      "chip": "ym2612"
    },
    {
      "channel": 1,
      "note": 59,
      "start": 39.3946,
      "duration": 0.0966,
      "velocity": 117,
      "chip": "ym2612"
    },
    {
      "channel": 5,
      "note": 55,
      "start": 39.3974,
      "duration": 0.094,
      "velocity": 117,
      "chip": "ym2612"
    },
    {
      "channel": 4,
      "note": 60,
      "start": 39.4946,
      "duration": 0.1134,
      "velocity": 117,
      "chip": "ym2612"
    },
    {
      "channel": 2,
      "note": 57,
      "start": 39.4974,
      "duration": 0.1107,
      "velocity": 117,
      "chip": "ym2612"
    },
    {
      "channel": 0,
      "note": 41,
      "start": 39.5004,
      "duration": 0.1574,
      "velocity": 126,
      "chip": "ym2612"
    },
    {
      "channel": 3,
      "note": 54,
      "start": 39.6114,
      "duration": 0.0467,
      "velocity": 118,
      "chip": "ym2612"
    },
    {
      "channel": 1,
      "note": 77,
      "start": 39.6151,
      "duration": 0.0927,
      "velocity": 117,
      "chip": "ym2612"
    },
    {
      "channel": 5,
      "note": 57,
      "start": 39.7117,
      "duration": 0.0964,
      "velocity": 117,
      "chip": "ym2612"
    },
    {
      "channel": 4,
      "note": 60,
      "start": 39.7146,
      "duration": 0.0934,
      "velocity": 117,
      "chip": "ym2612"
    },
    {
      "channel": 2,
      "note": 60,
      "start": 39.8117,
      "duration": 0.0966,
      "velocity": 117,
      "chip": "ym2612"
    },
    {
      "channel": 0,
      "note": 57,
      "start": 39.8147,
      "duration": 0.0931,
      "velocity": 117,
      "chip": "ym2612"
    },
    {
      "channel": 3,
      "note": 41,
      "start": 39.8184,
      "duration": 0.1896,
      "velocity": 126,
      "chip": "ym2612"
    },
    {
      "channel": 1,
      "note": 76,
      "start": 39.8224,
      "duration": 0.0856,
      "velocity": 117,
      "chip": "ym2612"
    },
    {
      "channel": 4,
      "note": 77,
      "start": 39.8258,
      "duration": 0.0823,
      "velocity": 117,
      "chip": "ym2612"
    },
    {
      "channel": 5,
      "note": 57,
      "start": 40.028,
      "duration": 0.0969,
      "velocity": 117,
      "chip": "ym2612"
    },
    {
      "channel": 0,
      "note": 60,
      "start": 40.0309,
      "duration": 0.0935,
      "velocity": 117,
      "chip": "ym2612"
    },
    {
      "channel": 1,
      "note": 54,
      "start": 40.0342,
      "duration": 0.0403,
      "velocity": 118,
      "chip": "ym2612"
    },
    {
      "channel": 4,
      "note": 76,
      "start": 40.0383,
      "duration": 0.0864,
      "velocity": 117,
      "chip": "ym2612"
    },
    {
      "channel": 2,
      "note": 57,
      "start": 40.2279,
      "duration": 0.1136,
      "velocity": 117,
      "chip": "ym2612"
    },
    {
      "channel": 3,
      "note": 60,
      "start": 40.2308,
      "duration": 0.1104,
      "velocity": 117,
      "chip": "ym2612"
    },
    {
      "channel": 1,
      "note": 41,
      "start": 40.2342,
      "duration": 0.1571,
      "velocity": 126,
      "chip": "ym2612"
    },
    {
      "channel": 3,
      "note": 62,
      "start": 40.4443,
      "duration": 0.0971,
      "velocity": 117,
      "chip": "ym2612"
    },
    {
      "channel": 2,
      "note": 66,
      "start": 40.4472,
      "duration": 0.0944,
      "velocity": 117,
      "chip": "ym2612"
    },
    {
      "channel": 1,
      "note": 47,
      "start": 40.4504,
      "duration": 0.1908,
      "velocity": 126,
      "chip": "ym2612"
    },
    {
      "channel": 0,
      "note": 83,
      "start": 40.4537,
      "duration": 0.0876,
      "velocity": 118,
      "chip": "ym2612"
    },
    {
      "channel": 5,
      "note": 66,
      "start": 40.6612,
      "duration": 0.097,
      "velocity": 117,
      "chip": "ym2612"
    },
    {
      "channel": 4,
      "note": 62,
      "start": 40.6641,
      "duration": 0.094,
      "velocity": 117,
      "chip": "ym2612"
    },
    {
      "channel": 0,
      "note": 86,
      "start": 40.6671,
      "duration": 0.0907,
      "velocity": 118,
      "chip": "ym2612"
    },
    {
      "channel": 3,
      "note": 83,
      "start": 40.7626,
      "duration": 0.0952,
      "velocity": 118,
      "chip": "ym2612"
    },
    {
      "channel": 2,
      "note": 62,
      "start": 40.8613,
      "duration": 0.1136,
      "velocity": 117,
      "chip": "ym2612"
    },
    {
      "channel": 1,
      "note": 66,
      "start": 40.8641,
      "duration": 0.1104,
      "velocity": 117,
      "chip": "ym2612"
    },
    {
      "channel": 0,
      "note": 47,
      "start": 40.8674,
      "duration": 0.1903,
      "velocity": 126,
      "chip": "ym2612"
    },
    {
      "channel": 4,
      "note": 83,
      "start": 40.8705,
      "duration": 0.1042,
      "velocity": 118,
      "chip": "ym2612"
    },
    {
      "channel": 3,
      "note": 86,
      "start": 40.9785,
      "duration": 0.096,
      "velocity": 118,
      "chip": "ym2612"
    },
    {
      "channel": 5,
      "note": 66,
      "start": 41.078,
      "duration": 0.0969,
      "velocity": 117,
      "chip": "ym2612"
    },
    {
      "channel": 1,
      "note": 62,
      "start": 41.0809,
      "duration": 0.0937,
      "velocity": 117,
      "chip": "ym2612"
    },
    {
      "channel": 4,
      "note": 93,
      "start": 41.084,
      "duration": 0.0908,
      "velocity": 118,
      "chip": "ym2612"
    },
    {
      "channel": 2,
      "note": 62,
      "start": 41.1785,
      "duration": 0.1131,
      "velocity": 117,
      "chip": "ym2612"
    },
    {
      "channel": 0,
      "note": 66,
      "start": 41.1814,
      "duration": 0.1098,
      "velocity": 117,
      "chip": "ym2612"
    },
    {
      "channel": 3,
      "note": 47,
      "start": 41.1846,
      "duration": 0.1566,
      "velocity": 126,
      "chip": "ym2612"
    },
    {
      "channel": 1,
      "note": 83,
      "start": 41.1879,
      "duration": 0.1034,
      "velocity": 118,
      "chip": "ym2612"
    },
    {
      "channel": 4,
      "note": 90,
      "start": 41.2952,
      "duration": 0.0961,
      "velocity": 118,
      "chip": "ym2612"
    },
    {
      "channel": 5,
      "note": 66,
      "start": 41.395,
      "duration": 0.0964,
      "velocity": 117,
      "chip": "ym2612"
    },
    {
      "channel": 0,
      "note": 62,
      "start": 41.3979,
      "duration": 0.0932,
      "velocity": 117,
      "chip": "ym2612"
    },
    {
      "channel": 1,
      "note": 93,
      "start": 41.401,
      "duration": 0.0902,
      "velocity": 118,
      "chip": "ym2612"
    },
    {
      "channel": 2,
      "note": 66,
      "start": 41.4948,
      "duration": 0.1134,
      "velocity": 117,
      "chip": "ym2612"
    },
    {
      "channel": 3,
      "note": 62,
      "start": 41.4976,
      "duration": 0.1104,
      "velocity": 117,
      "chip": "ym2612"
    },
    {
      "channel": 4,
      "note": 47,
      "start": 41.501,
      "duration": 0.2236,
      "velocity": 126,
      "chip": "ym2612"
    },
    {
      "channel": 0,
      "note": 83,
      "start": 41.5042,
      "duration": 0.1036,
      "velocity": 118,
      "chip": "ym2612"
    },
    {
      "channel": 1,
      "note": 90,
      "start": 41.6117,
      "duration": 0.0961,
      "velocity": 118,
      "chip": "ym2612"
    },
    {
      "channel": 5,
      "note": 62,
      "start": 41.7114,
      "duration": 0.0968,
      "velocity": 117,
      "chip": "ym2612"
    },
    {
      "channel": 0,
      "note": 66,
      "start": 41.7142,
      "duration": 0.0935,
      "velocity": 117,
      "chip": "ym2612"
    },
    {
      "channel": 3,
      "note": 95,
      "start": 41.7175,
      "duration": 0.0905,
      "velocity": 118,
      "chip": "ym2612"
    },
    {
      "channel": 1,
      "note": 83,
      "start": 41.8118,
      "duration": 0.1128,
      "velocity": 118,
      "chip": "ym2612"
    },
    {
      "channel": 2,
      "note": 66,
      "start": 41.928,
      "duration": 0.097,
      "velocity": 117,
      "chip": "ym2612"
    },
    {
      "channel": 4,
      "note": 62,
      "start": 41.9309,
      "duration": 0.0939,
      "velocity": 117,
      "chip": "ym2612"
    },
    {
      "channel": 0,
      "note": 47,
      "start": 41.9346,
      "duration": 0.1732,
      "velocity": 126,
      "chip": "ym2612"
    },
    {
      "channel": 3,
      "note": 93,
      "start": 41.9376,
      "duration": 0.087,
      "velocity": 118,
      "chip": "ym2612"
    },
    {
      "channel": 1,
      "note": 95,
      "start": 42.0285,
      "duration": 0.0961,
      "velocity": 118,
      "chip": "ym2612"
    },
    {
      "channel": 4,
      "note": 57,
      "start": 42.1278,
      "duration": 0.1137,
      "velocity": 117,
      "chip": "ym2612"
    },
    {
      "channel": 2,
      "note": 61,
      "start": 42.1308,
      "duration": 0.111,
      "velocity": 117,
      "chip": "ym2612"
    },
    {
      "channel": 5,
      "note": 62,
      "start": 42.1337,
      "duration": 0.1079,
      "velocity": 117,
      "chip": "ym2612"
    },
    {
      "channel": 3,
      "note": 66,
      "start": 42.1366,
      "duration": 0.1048,
      "velocity": 117,
      "chip": "ym2612"
    },
    {
      "channel": 0,
      "note": 42,
      "start": 42.1396,
      "duration": 0.2182,
      "velocity": 126,
      "chip": "ym2612"
    },
    {
      "channel": 1,
      "note": 83,
      "start": 42.1429,
      "duration": 0.0984,
      "velocity": 118,
      "chip": "ym2612"
    },
    {
      "channel": 1,
      "note": 93,
      "start": 42.2456,
      "duration": 0.0956,
      "velocity": 118,
      "chip": "ym2612"
    },
    {
      "channel": 3,
      "note": 61,
      "start": 42.3445,
      "duration": 0.0968,
      "velocity": 117,
      "chip": "ym2612"
    },
    {
      "channel": 5,
      "note": 57,
      "start": 42.3473,
      "duration": 0.0943,
      "velocity": 117,
      "chip": "ym2612"
    },
    {
      "channel": 4,
      "note": 100,
      "start": 42.3505,
      "duration": 0.0909,
      "velocity": 118,
      "chip": "ym2612"
    },
    {
      "channel": 1,
      "note": 83,
      "start": 42.4452,
      "duration": 0.0959,
      "velocity": 118,
      "chip": "ym2612"
    },
    {
      "channel": 2,
      "note": 61,
      "start": 42.5449,
      "duration": 0.1133,
      "velocity": 117,
      "chip": "ym2612"
    },
    {
      "channel": 0,
      "note": 57,
      "start": 42.5478,
      "duration": 0.1099,
      "velocity": 117,
      "chip": "ym2612"
    },
    {
      "channel": 3,
      "note": 42,
      "start": 42.551,
      "duration": 0.2235,
      "velocity": 126,
      "chip": "ym2612"
    },
    {
      "channel": 4,
      "note": 102,
      "start": 42.5544,
      "duration": 0.1037,
      "velocity": 118,
      "chip": "ym2612"
    },
    {
      "channel": 1,
      "note": 100,
      "start": 42.6618,
      "duration": 0.096,
      "velocity": 118,
      "chip": "ym2612"
    },
    {
      "channel": 5,
      "note": 57,
      "start": 42.7617,
      "duration": 0.0964,
      "velocity": 117,
      "chip": "ym2612"
    },
    {
      "channel": 0,
      "note": 61,
      "start": 42.7645,
      "duration": 0.0933,
      "velocity": 117,
      "chip": "ym2612"
    },
    {
      "channel": 2,
      "note": 59,
      "start": 42.8614,
      "duration": 0.1134,
      "velocity": 117,
      "chip": "ym2612"
    },
    {
      "channel": 4,
      "note": 62,
      "start": 42.8644,
      "duration": 0.1103,
      "velocity": 117,
      "chip": "ym2612"
    },
    {
      "channel": 3,
      "note": 43,
      "start": 42.8674,
      "duration": 0.1738,
      "velocity": 126,
      "chip": "ym2612"
    },
    {
      "channel": 1,
      "note": 102,
      "start": 42.8707,
      "duration": 0.1038,
      "velocity": 118,
      "chip": "ym2612"
    },
    {
      "channel": 0,
      "note": 62,
      "start": 43.0777,
      "duration": 0.0968,
      "velocity": 117,
      "chip": "ym2612"
    },
    {
      "channel": 5,
      "note": 59,
      "start": 43.0805,
      "duration": 0.0943,
      "velocity": 117,
      "chip": "ym2612"
    },
    {
      "channel": 4,
      "note": 59,
      "start": 43.178,
      "duration": 0.1133,
      "velocity": 117,
      "chip": "ym2612"
    },
    {
      "channel": 2,
      "note": 62,
      "start": 43.1808,
      "duration": 0.1106,
      "velocity": 117,
      "chip": "ym2612"
    },
    {
      "channel": 3,
      "note": 43,
      "start": 43.1839,
      "duration": 0.174,
      "velocity": 126,
      "chip": "ym2612"
    },
    {
      "channel": 0,
      "note": 62,
      "start": 43.3942,
      "duration": 0.0968,
      "velocity": 117,
      "chip": "ym2612"
    },
    {
      "channel": 5,
      "note": 59,
      "start": 43.3971,
      "duration": 0.0943,
      "velocity": 117,
      "chip": "ym2612"
    },
    {
      "channel": 4,
      "note": 62,
      "start": 43.611,
      "duration": 0.0969,
      "velocity": 117,
      "chip": "ym2612"
    },
    {
      "channel": 2,
      "note": 59,
      "start": 43.614,
      "duration": 0.0941,
      "velocity": 117,
      "chip": "ym2612"
    },
    {
      "channel": 3,
      "note": 43,
      "start": 43.6171,
      "duration": 0.1742,
      "velocity": 126,
      "chip": "ym2612"
    },
    {
      "channel": 4,
      "note": 62,
      "start": 43.8114,
      "duration": 0.1134,
      "velocity": 117,
      "chip": "ym2612"
    },
    {
      "channel": 2,
      "note": 66,
      "start": 43.8143,
      "duration": 0.1108,
      "velocity": 117,
      "chip": "ym2612"
    },
    {
      "channel": 0,
      "note": 59,
      "start": 43.817,
      "duration": 0.1075,
      "velocity": 117,
      "chip": "ym2612"
    },
    {
      "channel": 5,
      "note": 62,
      "start": 43.8198,
      "duration": 0.1051,
      "velocity": 117,
      "chip": "ym2612"
    },
    {
      "channel": 3,
      "note": 50,
      "start": 43.8233,
      "duration": 0.2012,
      "velocity": 126,
      "chip": "ym2612"
    },
    {
      "channel": 1,
      "note": 83,
      "start": 43.8271,
      "duration": 0.0975,
      "velocity": 118,
      "chip": "ym2612"
    },
    {
      "channel": 0,
      "note": 66,
      "start": 44.0281,
      "duration": 0.0963,
      "velocity": 117,
      "chip": "ym2612"
    },
    {
      "channel": 5,
      "note": 62,
      "start": 44.0309,
      "duration": 0.094,
      "velocity": 117,
      "chip": "ym2612"
    },
    {
      "channel": 1,
      "note": 86,
      "start": 44.0339,
      "duration": 0.0906,
      "velocity": 118,
      "chip": "ym2612"
    },
    {
      "channel": 4,
      "note": 83,
      "start": 44.1288,
      "duration": 0.1125,
      "velocity": 118,
      "chip": "ym2612"
    },
    {
      "channel": 2,
      "note": 62,
      "start": 44.2446,
      "duration": 0.097,
      "velocity": 117,
      "chip": "ym2612"
    },
    {
      "channel": 3,
      "note": 66,
      "start": 44.2476,
      "duration": 0.0938,
      "velocity": 117,
      "chip": "ym2612"
    },
    {
      "channel": 0,
      "note": 47,
      "start": 44.2509,
      "duration": 0.1403,
      "velocity": 126,
      "chip": "ym2612"
    },
    {
      "channel": 1,
      "note": 83,
      "start": 44.2539,
      "duration": 0.0873,
      "velocity": 118,
      "chip": "ym2612"
    },
    {
      "channel": 4,
      "note": 86,
      "start": 44.3453,
      "duration": 0.0961,
      "velocity": 118,
      "chip": "ym2612"
    },
    {
      "channel": 5,
      "note": 66,
      "start": 44.4447,
      "duration": 0.1135,
      "velocity": 117,
      "chip": "ym2612"
    },
    {
      "channel": 1,
      "note": 62,
      "start": 44.4476,
      "duration": 0.1103,
      "velocity": 117,
      "chip": "ym2612"
    },
    {
      "channel": 3,
      "note": 93,
      "start": 44.4509,
      "duration": 0.1072,
      "velocity": 118,
      "chip": "ym2612"
    },
    {
      "channel": 2,
      "note": 62,
      "start": 44.5615,
      "duration": 0.0968,
      "velocity": 117,
      "chip": "ym2612"
    },
    {
      "channel": 0,
      "note": 66,
      "start": 44.5644,
      "duration": 0.0934,
      "velocity": 117,
      "chip": "ym2612"
    },
    {
      "channel": 4,
      "note": 47,
      "start": 44.5674,
      "duration": 0.1405,
      "velocity": 126,
      "chip": "ym2612"
    },
    {
      "channel": 1,
      "note": 83,
      "start": 44.571,
      "duration": 0.087,
      "velocity": 118,
      "chip": "ym2612"
    },
    {
      "channel": 3,
      "note": 90,
      "start": 44.6618,
      "duration": 0.0961,
      "velocity": 118,
      "chip": "ym2612"
    },
    {
      "channel": 5,
      "note": 66,
      "start": 44.7614,
      "duration": 0.1135,
      "velocity": 117,
      "chip": "ym2612"
    },
    {
      "channel": 0,
      "note": 62,
      "start": 44.7642,
      "duration": 0.1102,
      "velocity": 117,
      "chip": "ym2612"
    },
    {
      "channel": 1,
      "note": 93,
      "start": 44.7673,
      "duration": 0.1072,
      "velocity": 118,
      "chip": "ym2612"
    },
    {
      "channel": 2,
      "note": 66,
      "start": 44.8781,
      "duration": 0.0967,
      "velocity": 117,
      "chip": "ym2612"
    },
    {
      "channel": 4,
      "note": 62,
      "start": 44.8811,
      "duration": 0.0936,
      "velocity": 117,
      "chip": "ym2612"
    },
    {
      "channel": 3,
      "note": 47,
      "start": 44.8844,
      "duration": 0.1735,
      "velocity": 126,
      "chip": "ym2612"
    },
    {
      "channel": 0,
      "note": 83,
      "start": 44.8876,
      "duration": 0.0868,
      "velocity": 118,
      "chip": "ym2612"
    },
    {
      "channel": 1,
      "note": 90,
      "start": 44.9784,
      "duration": 0.0961,
      "velocity": 118,
      "chip": "ym2612"
    },
    {
      "channel": 5,
      "note": 62,
      "start": 45.078,
      "duration": 0.1135,
      "velocity": 117,
      "chip": "ym2612"
    },
    {
      "channel": 0,
      "note": 66,
      "start": 45.081,
      "duration": 0.1102,
      "velocity": 117,
      "chip": "ym2612"
    },
    {
      "channel": 4,
      "note": 95,
      "start": 45.0843,
      "duration": 0.1071,
      "velocity": 118,
      "chip": "ym2612"
    },
    {
      "channel": 1,
      "note": 83,
      "start": 45.1951,
      "duration": 0.0961,
      "velocity": 118,
      "chip": "ym2612"
    },
    {
      "channel": 2,
      "note": 66,
      "start": 45.2949,
      "duration": 0.0967,
      "velocity": 117,
      "chip": "ym2612"
    },
    {
      "channel": 3,
      "note": 62,
      "start": 45.2979,
      "duration": 0.0934,
      "velocity": 117,
      "chip": "ym2612"
    },
    {
      "channel": 0,
      "note": 47,
      "start": 45.301,
      "duration": 0.1735,
      "velocity": 126,
      "chip": "ym2612"
    },
    {
      "channel": 4,
      "note": 93,
      "start": 45.3041,
      "duration": 0.0873,
      "velocity": 118,
      "chip": "ym2612"
    },
    {
      "channel": 1,
      "note": 95,
      "start": 45.3952,
      "duration": 0.0961,
      "velocity": 118,
      "chip": "ym2612"
    },
    {
      "channel": 3,
      "note": 57,
      "start": 45.4945,
      "duration": 0.1136,
      "velocity": 117,
      "chip": "ym2612"
    },
    {
      "channel": 2,
      "note": 61,
      "start": 45.4974,
      "duration": 0.111,
      "velocity": 117,
      "chip": "ym2612"
    },
    {
      "channel": 5,
      "note": 62,
      "start": 45.5007,
      "duration": 0.1076,
      "velocity": 117,
      "chip": "ym2612"
    },
    {
      "channel": 4,
      "note": 66,
      "start": 45.5037,
      "duration": 0.1045,
      "velocity": 117,
      "chip": "ym2612"
    },
    {
      "channel": 0,
      "note": 42,
      "start": 45.5066,
      "duration": 0.2179,
      "velocity": 126,
      "chip": "ym2612"
    },
    {
      "channel": 1,
      "note": 83,
      "start": 45.5099,
      "duration": 0.098,
      "velocity": 118,
      "chip": "ym2612"
    },
    {
      "channel": 1,
      "note": 93,
      "start": 45.6122,
      "duration": 0.0956,
      "velocity": 118,
      "chip": "ym2612"
    },
    {
      "channel": 4,
      "note": 61,
      "start": 45.7112,
      "duration": 0.0968,
      "velocity": 117,
      "chip": "ym2612"
    },
    {
      "channel": 5,
      "note": 57,
      "start": 45.714,
      "duration": 0.0941,
      "velocity": 117,
      "chip": "ym2612"
    },
    {
      "channel": 3,
      "note": 98,
      "start": 45.7173,
      "duration": 0.0906,
      "velocity": 118,
      "chip": "ym2612"
    },
    {
      "channel": 1,
      "note": 83,
      "start": 45.8118,
      "duration": 0.1128,
      "velocity": 118,
      "chip": "ym2612"
    },
    {
      "channel": 2,
      "note": 61,
      "start": 45.928,
      "duration": 0.0969,
      "velocity": 117,
      "chip": "ym2612"
    },
    {
      "channel": 0,
      "note": 57,
      "start": 45.9309,
      "duration": 0.0937,
      "velocity": 117,
      "chip": "ym2612"
    },
    {
      "channel": 3,
      "note": 42,
      "start": 45.9341,
      "duration": 0.2071,
      "velocity": 126,
      "chip": "ym2612"
    },
    {
      "channel": 4,
      "note": 97,
      "start": 45.9376,
      "duration": 0.0872,
      "velocity": 118,
      "chip": "ym2612"
    },
    {
      "channel": 1,
      "note": 98,
      "start": 46.0285,
      "duration": 0.0959,
      "velocity": 118,
      "chip": "ym2612"
    },
    {
      "channel": 5,
      "note": 57,
      "start": 46.128,
      "duration": 0.1134,
      "velocity": 117,
      "chip": "ym2612"
    },
    {
      "channel": 0,
      "note": 61,
      "start": 46.1308,
      "duration": 0.1103,
      "velocity": 117,
      "chip": "ym2612"
    },
    {
      "channel": 2,
      "note": 59,
      "start": 46.2447,
      "duration": 0.0969,
      "velocity": 117,
      "chip": "ym2612"
    },
    {
      "channel": 4,
      "note": 62,
      "start": 46.2476,
      "duration": 0.0938,
      "velocity": 117,
      "chip": "ym2612"
    },
    {
      "channel": 3,
      "note": 43,
      "start": 46.2513,
      "duration": 0.1732,
      "velocity": 126,
      "chip": "ym2612"
    },
    {
      "channel": 1,
      "note": 97,
      "start": 46.2547,
      "duration": 0.0865,
      "velocity": 118,
      "chip": "ym2612"
    },
    {
      "channel": 0,
      "note": 62,
      "start": 46.4443,
      "duration": 0.1134,
      "velocity": 117,
      "chip": "ym2612"
    },
    {
      "channel": 5,
      "note": 59,
      "start": 46.4471,
      "duration": 0.111,
      "velocity": 117,
      "chip": "ym2612"
    },
    {
      "channel": 4,
      "note": 59,
      "start": 46.5616,
      "duration": 0.0963,
      "velocity": 117,
      "chip": "ym2612"
    },
    {
      "channel": 2,
      "note": 62,
      "start": 46.5645,
      "duration": 0.0937,
      "velocity": 117,
      "chip": "ym2612"
    },
    {
      "channel": 0,
      "note": 62,
      "start": 46.7614,
      "duration": 0.113,
      "velocity": 117,
      "chip": "ym2612"
    },
    {
      "channel": 5,
      "note": 59,
      "start": 46.7642,
      "duration": 0.1106,
      "velocity": 117,
      "chip": "ym2612"
    },
    {
      "channel": 4,
      "note": 62,
      "start": 46.9778,
      "duration": 0.0968,
      "velocity": 117,
      "chip": "ym2612"
    },
    {
      "channel": 2,
      "note": 59,
      "start": 46.9807,
      "duration": 0.0941,
      "velocity": 117,
      "chip": "ym2612"
    },
    {
      "channel": 4,
      "note": 62,
      "start": 47.1945,
      "duration": 0.0969,
      "velocity": 117,
      "chip": "ym2612"
    },
    {
      "channel": 2,
      "note": 66,
      "start": 47.1974,
      "duration": 0.0942,
      "velocity": 117,
      "chip": "ym2612"
    },
    {
      "channel": 1,
      "note": 54,
      "start": 47.2007,
      "duration": 0.0405,
      "velocity": 118,
      "chip": "ym2612"
    },
    {
      "channel": 3,
      "note": 83,
      "start": 47.2039,
      "duration": 0.0874,
      "velocity": 118,
      "chip": "ym2612"
    },
    {
      "channel": 0,
      "note": 66,
      "start": 47.3944,
      "duration": 0.1134,
      "velocity": 117,
      "chip": "ym2612"
    },
    {
      "channel": 5,
      "note": 62,
      "start": 47.3972,
      "duration": 0.111,
      "velocity": 117,
      "chip": "ym2612"
    },
    {
      "channel": 3,
      "note": 86,
      "start": 47.4004,
      "duration": 0.1076,
      "velocity": 118,
      "chip": "ym2612"
    },
    {
      "channel": 1,
      "note": 83,
      "start": 47.5122,
      "duration": 0.0956,
      "velocity": 118,
      "chip": "ym2612"
    },
    {
      "channel": 4,
      "note": 62,
      "start": 47.6111,
      "duration": 0.097,
      "velocity": 117,
      "chip": "ym2612"
    },
    {
      "channel": 2,
      "note": 66,
      "start": 47.614,
      "duration": 0.0943,
      "velocity": 117,
      "chip": "ym2612"
    },
    {
      "channel": 0,
      "note": 54,
      "start": 47.6171,
      "duration": 0.0407,
      "velocity": 118,
      "chip": "ym2612"
    },
    {
      "channel": 3,
      "note": 83,
      "start": 47.6203,
      "duration": 0.0877,
      "velocity": 118,
      "chip": "ym2612"
    },
    {
      "channel": 1,
      "note": 86,
      "start": 47.7119,
      "duration": 0.1127,
      "velocity": 118,
      "chip": "ym2612"
    },
    {
      "channel": 5,
      "note": 66,
      "start": 47.828,
      "duration": 0.0969,
      "velocity": 117,
      "chip": "ym2612"
    },
    {
      "channel": 0,
      "note": 62,
      "start": 47.8309,
      "duration": 0.0935,
      "velocity": 117,
      "chip": "ym2612"
    },
    {
      "channel": 3,
      "note": 93,
      "start": 47.834,
      "duration": 0.0906,
      "velocity": 118,
      "chip": "ym2612"
    },
    {
      "channel": 4,
      "note": 62,
      "start": 47.9283,
      "duration": 0.0963,
      "velocity": 117,
      "chip": "ym2612"
    },
    {
      "channel": 2,
      "note": 66,
      "start": 47.9313,
      "duration": 0.0936,
      "velocity": 117,
      "chip": "ym2612"
    },
    {
      "channel": 1,
      "note": 83,
      "start": 47.9345,
      "duration": 0.09,
      "velocity": 118,
      "chip": "ym2612"
    },
    {
      "channel": 0,
      "note": 54,
      "start": 48.0287,
      "duration": 0.0457,
      "velocity": 118,
      "chip": "ym2612"
    },
    {
      "channel": 3,
      "note": 90,
      "start": 48.0316,
      "duration": 0.1097,
      "velocity": 118,
      "chip": "ym2612"
    },
    {
      "channel": 5,
      "note": 66,
      "start": 48.1447,
      "duration": 0.0968,
      "velocity": 117,
      "chip": "ym2612"
    },
    {
      "channel": 1,
      "note": 62,
      "start": 48.1476,
      "duration": 0.0935,
      "velocity": 117,
      "chip": "ym2612"
    },
    {
      "channel": 4,
      "note": 93,
      "start": 48.151,
      "duration": 0.0904,
      "velocity": 118,
      "chip": "ym2612"
    },
    {
      "channel": 2,
      "note": 66,
      "start": 48.2448,
      "duration": 0.0969,
      "velocity": 117,
      "chip": "ym2612"
    },
    {
      "channel": 0,
      "note": 62,
      "start": 48.2476,
      "duration": 0.0936,
      "velocity": 117,
      "chip": "ym2612"
    },
    {
      "channel": 3,
      "note": 83,
      "start": 48.2508,
      "duration": 0.0906,
      "velocity": 118,
      "chip": "ym2612"
    },
    {
      "channel": 4,
      "note": 90,
      "start": 48.3456,
      "duration": 0.0956,
      "velocity": 118,
      "chip": "ym2612"
    },
    {
      "channel": 1,
      "note": 62,
      "start": 48.4448,
      "duration": 0.1131,
      "velocity": 117,
      "chip": "ym2612"
    },
    {
      "channel": 5,
      "note": 66,
      "start": 48.4477,
      "duration": 0.1105,
      "velocity": 117,
      "chip": "ym2612"
    },
    {
      "channel": 0,
      "note": 54,
      "start": 48.4507,
      "duration": 0.0571,
      "velocity": 118,
      "chip": "ym2612"
    },
    {
      "channel": 3,
      "note": 95,
      "start": 48.4535,
      "duration": 0.1045,
      "velocity": 118,
      "chip": "ym2612"
    },
    {
      "channel": 4,
      "note": 83,
      "start": 48.5619,
      "duration": 0.0961,
      "velocity": 118,
      "chip": "ym2612"
    },
    {
      "channel": 2,
      "note": 66,
      "start": 48.6613,
      "duration": 0.0969,
      "velocity": 117,
      "chip": "ym2612"
    },
    {
      "channel": 0,
      "note": 62,
      "start": 48.6642,
      "duration": 0.0935,
      "velocity": 117,
      "chip": "ym2612"
    },
    {
      "channel": 3,
      "note": 93,
      "start": 48.6674,
      "duration": 0.0906,
      "velocity": 118,
      "chip": "ym2612"
    },
    {
      "channel": 4,
      "note": 95,
      "start": 48.7619,
      "duration": 0.1128,
      "velocity": 118,
      "chip": "ym2612"
    },
    {
      "channel": 0,
      "note": 61,
      "start": 48.8776,
      "duration": 0.0968,
      "velocity": 117,
      "chip": "ym2612"
    },
    {
      "channel": 2,
      "note": 57,
      "start": 48.8805,
      "duration": 0.0945,
      "velocity": 117,
      "chip": "ym2612"
    },
    {
      "channel": 1,
      "note": 62,
      "start": 48.8833,
      "duration": 0.0913,
      "velocity": 117,
      "chip": "ym2612"
    },
    {
      "channel": 5,
      "note": 66,
      "start": 48.8861,
      "duration": 0.0888,
      "velocity": 117,
      "chip": "ym2612"
    },
    {
      "channel": 3,
      "note": 54,
      "start": 48.8891,
      "duration": 0.0355,
      "velocity": 118,
      "chip": "ym2612"
    },
    {
      "channel": 4,
      "note": 83,
      "start": 48.8922,
      "duration": 0.0826,
      "velocity": 118,
      "chip": "ym2612"
    },
    {
      "channel": 3,
      "note": 93,
      "start": 48.9788,
      "duration": 0.0957,
      "velocity": 118,
      "chip": "ym2612"
    },
    {
      "channel": 1,
      "note": 61,
      "start": 49.0778,
      "duration": 0.1133,
      "velocity": 117,
      "chip": "ym2612"
    },
    {
      "channel": 5,
      "note": 57,
      "start": 49.0807,
      "duration": 0.1108,
      "velocity": 117,
      "chip": "ym2612"
    },
    {
      "channel": 4,
      "note": 100,
      "start": 49.0838,
      "duration": 0.1076,
      "velocity": 118,
      "chip": "ym2612"
    },
    {
      "channel": 3,
      "note": 83,
      "start": 49.1951,
      "duration": 0.0961,
      "velocity": 118,
      "chip": "ym2612"
    },
    {
      "channel": 0,
      "note": 57,
      "start": 49.2946,
      "duration": 0.0964,
      "velocity": 117,
      "chip": "ym2612"
    },
    {
      "channel": 2,
      "note": 61,
      "start": 49.2975,
      "duration": 0.0941,
      "velocity": 117,
      "chip": "ym2612"
    },
    {
      "channel": 1,
      "note": 54,
      "start": 49.3006,
      "duration": 0.0405,
      "velocity": 118,
      "chip": "ym2612"
    },
    {
      "channel": 4,
      "note": 102,
      "start": 49.3039,
      "duration": 0.0875,
      "velocity": 118,
      "chip": "ym2612"
    },
    {
      "channel": 3,
      "note": 100,
      "start": 49.3952,
      "duration": 0.1127,
      "velocity": 118,
      "chip": "ym2612"
    },
    {
      "channel": 5,
      "note": 57,
      "start": 49.5114,
      "duration": 0.0968,
      "velocity": 117,
      "chip": "ym2612"
    },
    {
      "channel": 1,
      "note": 61,
      "start": 49.5143,
      "duration": 0.0936,
      "velocity": 117,
      "chip": "ym2612"
    },
    {
      "channel": 0,
      "note": 62,
      "start": 49.6111,
      "duration": 0.0968,
      "velocity": 117,
      "chip": "ym2612"
    },
    {
      "channel": 2,
      "note": 59,
      "start": 49.614,
      "duration": 0.0942,
      "velocity": 117,
      "chip": "ym2612"
    },
    {
      "channel": 3,
      "note": 102,
      "start": 49.6176,
      "duration": 0.0905,
      "velocity": 118,
      "chip": "ym2612"
    },
    {
      "channel": 4,
      "note": 54,
      "start": 49.7117,
      "duration": 0.0462,
      "velocity": 118,
      "chip": "ym2612"
    },
    {
      "channel": 1,
      "note": 62,
      "start": 49.8281,
      "duration": 0.0964,
      "velocity": 117,
      "chip": "ym2612"
    },
    {
      "channel": 5,
      "note": 59,
      "start": 49.831,
      "duration": 0.0938,
      "velocity": 117,
      "chip": "ym2612"
    },
    {
      "channel": 0,
      "note": 62,
      "start": 49.9278,
      "duration": 0.0966,
      "velocity": 117,
      "chip": "ym2612"
    },
    {
      "channel": 2,
      "note": 59,
      "start": 49.9306,
      "duration": 0.0941,
      "velocity": 117,
      "chip": "ym2612"
    },
    {
      "channel": 1,
      "note": 62,
      "start": 50.1444,
      "duration": 0.0967,
      "velocity": 117,
      "chip": "ym2612"
    },
    {
      "channel": 5,
      "note": 59,
      "start": 50.1473,
      "duration": 0.0941,
      "velocity": 117,
      "chip": "ym2612"
    },
    {
      "channel": 4,
      "note": 54,
      "start": 50.1502,
      "duration": 0.0411,
      "velocity": 118,
      "chip": "ym2612"
    },
    {
      "channel": 0,
      "note": 59,
      "start": 50.3442,
      "duration": 0.1136,
      "velocity": 117,
      "chip": "ym2612"
    },
    {
      "channel": 2,
      "note": 62,
      "start": 50.3471,
      "duration": 0.111,
      "velocity": 117,
      "chip": "ym2612"
    },
    {
      "channel": 0,
      "note": 66,
      "start": 50.5613,
      "duration": 0.0964,
      "velocity": 117,
      "chip": "ym2612"
    },
    {
      "channel": 2,
      "note": 62,
      "start": 50.5641,
      "duration": 0.0942,
      "velocity": 117,
      "chip": "ym2612"
    },
    {
      "channel": 1,
      "note": 59,
      "start": 50.567,
      "duration": 0.091,
      "velocity": 117,
      "chip": "ym2612"
    },
    {
      "channel": 5,
      "note": 62,
      "start": 50.5698,
      "duration": 0.0885,
      "velocity": 117,
      "chip": "ym2612"
    },
    {
      "channel": 4,
      "note": 54,
      "start": 50.5726,
      "duration": 0.0354,
      "velocity": 118,
      "chip": "ym2612"
    },
    {
      "channel": 3,
      "note": 83,
      "start": 50.5759,
      "duration": 0.0821,
      "velocity": 118,
      "chip": "ym2612"
    },
    {
      "channel": 1,
      "note": 66,
      "start": 50.7778,
      "duration": 0.0968,
      "velocity": 117,
      "chip": "ym2612"
    },
    {
      "channel": 5,
      "note": 62,
      "start": 50.7806,
      "duration": 0.0943,
      "velocity": 117,
      "chip": "ym2612"
    },
    {
      "channel": 3,
      "note": 86,
      "start": 50.7837,
      "duration": 0.091,
      "velocity": 118,
      "chip": "ym2612"
    },
    {
      "channel": 4,
      "note": 83,
      "start": 50.8789,
      "duration": 0.0957,
      "velocity": 118,
      "chip": "ym2612"
    },
    {
      "channel": 0,
      "note": 66,
      "start": 50.9776,
      "duration": 0.0968,
      "velocity": 117,
      "chip": "ym2612"
    },
    {
      "channel": 2,
      "note": 62,
      "start": 50.9805,
      "duration": 0.0944,
      "velocity": 117,
      "chip": "ym2612"
    },
    {
      "channel": 1,
      "note": 54,
      "start": 50.9836,
      "duration": 0.0409,
      "velocity": 118,
      "chip": "ym2612"
    },
    {
      "channel": 3,
      "note": 83,
      "start": 50.9865,
      "duration": 0.0882,
      "velocity": 118,
      "chip": "ym2612"
    },
    {
      "channel": 4,
      "note": 86,
      "start": 51.0785,
      "duration": 0.1127,
      "velocity": 118,
      "chip": "ym2612"
    },
    {
      "channel": 5,
      "note": 66,
      "start": 51.195,
      "duration": 0.0965,
      "velocity": 117,
      "chip": "ym2612"
    },
    {
      "channel": 1,
      "note": 62,
      "start": 51.1979,
      "duration": 0.0933,
      "velocity": 117,
      "chip": "ym2612"
    },
    {
      "channel": 3,
      "note": 93,
      "start": 51.2009,
      "duration": 0.0904,
      "velocity": 118,
      "chip": "ym2612"
    },
    {
      "channel": 0,
      "note": 66,
      "start": 51.2945,
      "duration": 0.0966,
      "velocity": 117,
      "chip": "ym2612"
    },
    {
      "channel": 2,
      "note": 62,
      "start": 51.2974,
      "duration": 0.0943,
      "velocity": 117,
      "chip": "ym2612"
    },
    {
      "channel": 4,
      "note": 83,
      "start": 51.3007,
      "duration": 0.0907,
      "velocity": 118,
      "chip": "ym2612"
    },
    {
      "channel": 1,
      "note": 54,
      "start": 51.3951,
      "duration": 0.0628,
      "velocity": 118,
      "chip": "ym2612"
    },
    {
      "channel": 3,
      "note": 90,
      "start": 51.3983,
      "duration": 0.1096,
      "velocity": 118,
      "chip": "ym2612"
    },
    {
      "channel": 5,
      "note": 66,
      "start": 51.5114,
      "duration": 0.0968,
      "velocity": 117,
      "chip": "ym2612"
    },
    {
      "channel": 0,
      "note": 62,
      "start": 51.5142,
      "duration": 0.0935,
      "velocity": 117,
      "chip": "ym2612"
    },
    {
      "channel": 4,
      "note": 93,
      "start": 51.5175,
      "duration": 0.0906,
      "velocity": 118,
      "chip": "ym2612"
    },
    {
      "channel": 2,
      "note": 62,
      "start": 51.6114,
      "duration": 0.0968,
      "velocity": 117,
      "chip": "ym2612"
    },
    {
      "channel": 1,
      "note": 66,
      "start": 51.6144,
      "duration": 0.0934,
      "velocity": 117,
      "chip": "ym2612"
    },
    {
      "channel": 3,
      "note": 83,
      "start": 51.6175,
      "duration": 0.0905,
      "velocity": 118,
      "chip": "ym2612"
    },
    {
      "channel": 4,
      "note": 90,
      "start": 51.7119,
      "duration": 0.1128,
      "velocity": 118,
      "chip": "ym2612"
    },
    {
      "channel": 0,
      "note": 62,
      "start": 51.8278,
      "duration": 0.0966,
      "velocity": 117,
      "chip": "ym2612"
    },
    {
      "channel": 5,
      "note": 66,
      "start": 51.8308,
      "duration": 0.0941,
      "velocity": 117,
      "chip": "ym2612"
    },
    {
      "channel": 1,
      "note": 54,
      "start": 51.8337,
      "duration": 0.0407,
      "velocity": 118,
      "chip": "ym2612"
    },
    {
      "channel": 3,
      "note": 95,
      "start": 51.8366,
      "duration": 0.088,
      "velocity": 118,
      "chip": "ym2612"
    },
    {
      "channel": 4,
      "note": 83,
      "start": 51.9285,
      "duration": 0.0962,
      "velocity": 118,
      "chip": "ym2612"
    },
    {
      "channel": 2,
      "note": 62,
      "start": 52.0284,
      "duration": 0.1132,
      "velocity": 117,
      "chip": "ym2612"
    },
    {
      "channel": 1,
      "note": 66,
      "start": 52.0315,
      "duration": 0.1098,
      "velocity": 117,
      "chip": "ym2612"
    },
    {
      "channel": 3,
      "note": 93,
      "start": 52.0346,
      "duration": 0.1067,
      "velocity": 118,
      "chip": "ym2612"
    },
    {
      "channel": 4,
      "note": 95,
      "start": 52.1456,
      "duration": 0.0957,
      "velocity": 118,
      "chip": "ym2612"
    },
    {
      "channel": 0,
      "note": 54,
      "start": 52.245,
      "duration": 0.0461,
      "velocity": 118,
      "chip": "ym2612"
    },
    {
      "channel": 3,
      "note": 83,
      "start": 52.2479,
      "duration": 0.0933,
      "velocity": 118,
      "chip": "ym2612"
    },
    {
      "channel": 4,
      "note": 93,
      "start": 52.3451,
      "duration": 0.1129,
      "velocity": 118,
      "chip": "ym2612"
    },
    {
      "channel": 0,
      "note": 54,
      "start": 52.4612,
      "duration": 0.0465,
      "velocity": 118,
      "chip": "ym2612"
    },
    {
      "channel": 3,
      "note": 97,
      "start": 52.4641,
      "duration": 0.0938,
      "velocity": 118,
      "chip": "ym2612"
    },
    {
      "channel": 4,
      "note": 83,
      "start": 52.5618,
      "duration": 0.0961,
      "velocity": 118,
      "chip": "ym2612"
    },
    {
      "channel": 0,
      "note": 54,
      "start": 52.6612,
      "duration": 0.0466,
      "velocity": 118,
      "chip": "ym2612"
    },
    {
      "channel": 3,
      "note": 95,
      "start": 52.6644,
      "duration": 0.1102,
      "velocity": 118,
      "chip": "ym2612"
    },
    {
      "channel": 4,
      "note": 97,
      "start": 52.7783,
      "duration": 0.0962,
      "velocity": 118,
      "chip": "ym2612"
    },
    {
      "channel": 0,
      "note": 54,
      "start": 52.8778,
      "duration": 0.0466,
      "velocity": 118,
      "chip": "ym2612"
    },
    {
      "channel": 4,
      "note": 95,
      "start": 52.9783,
      "duration": 0.1129,
      "velocity": 118,
      "chip": "ym2612"
    },
    {
      "channel": 0,
      "note": 54,
      "start": 53.0951,
      "duration": 0.046,
      "velocity": 118,
      "chip": "ym2612"
    },
    {
      "channel": 0,
      "note": 54,
      "start": 53.1945,
      "duration": 0.0466,
      "velocity": 118,
      "chip": "ym2612"
    },
    {
      "channel": 0,
      "note": 54,
      "start": 53.2945,
      "duration": 0.0466,
      "velocity": 118,
      "chip": "ym2612"
    },
    {
      "channel": 0,
      "note": 54,
      "start": 53.4111,
      "duration": 0.0467,
      "velocity": 118,
      "chip": "ym2612"
    },
    {
      "channel": 0,
      "note": 54,
      "start": 53.5111,
      "duration": 0.0467,
      "velocity": 118,
      "chip": "ym2612"
    },
    {
      "channel": 0,
      "note": 54,
      "start": 53.6111,
      "duration": 0.0467,
      "velocity": 118,
      "chip": "ym2612"
    },
    {
      "channel": 0,
      "note": 54,
      "start": 53.7278,
      "duration": 0.0468,
      "velocity": 118,
      "chip": "ym2612"
    },
    {
      "channel": 0,
      "note": 54,
      "start": 53.8278,
      "duration": 0.0466,
      "velocity": 118,
      "chip": "ym2612"
    }
  ]
}