{
  "track_name": "03 - Normal Mode",
  "duration_sec": 77.326,
  "sample_rate": 44100,
  "note_count": 2239,
  "unique_pitches": 43,
  "pitch_range": 58,
  "avg_note_duration": 0.1272,
  "reconstruction_stats": {
    "notes_reconstructed": 2239,
    "keyon_events": 2239,
    "keyoff_events": 2235,
    "orphan_keyons": 4,
    "unique_pitches": 43,
    "pitch_range": 58,
    "avg_duration_sec": 0.1272
  },
  "metadata": {
    "source": "P\\Pac-Attack\\03 - Normal Mode.vgz"
  },
  "notes": [
    {
      "channel": 0,
      "note": 42,
      "start": 0.0022,
      "duration": 0.1283,
      "velocity": 95,
      "chip": "ym2612"
    },
    {
      "channel": 1,
      "note": 66,
      "start": 0.0072,
      "duration": 0.0574,
      "velocity": 116,
      "chip": "ym2612"
    },
    {
      "channel": 2,
      "note": 73,
      "start": 0.0139,
      "duration": 0.0516,
      "velocity": 116,
      "chip": "ym2612"
    },
    {
      "channel": 3,
      "note": 70,
      "start": 0.019,
      "duration": 0.0475,
      "velocity": 116,
      "chip": "ym2612"
    },
    {
      "channel": 0,
      "note": 42,
      "start": 0.1305,
      "duration": 0.1337,
      "velocity": 95,
      "chip": "ym2612"
    },
    {
      "channel": 1,
      "note": 66,
      "start": 0.1315,
      "duration": 0.0665,
      "velocity": 116,
      "chip": "ym2612"
    },
    {
      "channel": 2,
      "note": 73,
      "start": 0.1324,
      "duration": 0.0666,
      "velocity": 116,
      "chip": "ym2612"
    },
    {
      "channel": 3,
      "note": 70,
      "start": 0.1333,
      "duration": 0.0665,
      "velocity": 116,
      "chip": "ym2612"
    },
    {
      "channel": 0,
      "note": 49,
      "start": 0.2642,
      "duration": 0.1329,
      "velocity": 95,
      "chip": "ym2612"
    },
    {
      "channel": 1,
      "note": 78,
      "start": 0.2692,
      "duration": 0.2624,
      "velocity": 112,
      "chip": "ym2612"
    },
    {
      "channel": 2,
      "note": 73,
      "start": 0.2741,
      "duration": 0.2584,
      "velocity": 112,
      "chip": "ym2612"
    },
    {
      "channel": 3,
      "note": 70,
      "start": 0.2807,
      "duration": 0.2528,
      "velocity": 112,
      "chip": "ym2612"
    },
    {
      "channel": 0,
      "note": 49,
      "start": 0.3971,
      "duration": 0.1336,
      "velocity": 95,
      "chip": "ym2612"
    },
    {
      "channel": 0,
      "note": 52,
      "start": 0.5307,
      "duration": 0.1559,
      "velocity": 95,
      "chip": "ym2612"
    },
    {
      "channel": 1,
      "note": 78,
      "start": 0.5316,
      "duration": 0.0808,
      "velocity": 112,
      "chip": "ym2612"
    },
    {
      "channel": 2,
      "note": 73,
      "start": 0.5326,
      "duration": 0.0803,
      "velocity": 112,
      "chip": "ym2612"
    },
    {
      "channel": 3,
      "note": 70,
      "start": 0.5335,
      "duration": 0.0799,
      "velocity": 112,
      "chip": "ym2612"
    },
    {
      "channel": 1,
      "note": 78,
      "start": 0.6124,
      "duration": 0.037,
      "velocity": 112,
      "chip": "ym2612"
    },
    {
      "channel": 2,
      "note": 73,
      "start": 0.6129,
      "duration": 0.0369,
      "velocity": 112,
      "chip": "ym2612"
    },
    {
      "channel": 3,
      "note": 70,
      "start": 0.6134,
      "duration": 0.0371,
      "velocity": 112,
      "chip": "ym2612"
    },
    {
      "channel": 1,
      "note": 66,
      "start": 0.6908,
      "duration": 0.0597,
      "velocity": 116,
      "chip": "ym2612"
    },
    {
      "channel": 2,
      "note": 73,
      "start": 0.6949,
      "duration": 0.0565,
      "velocity": 116,
      "chip": "ym2612"
    },
    {
      "channel": 3,
      "note": 70,
      "start": 0.7008,
      "duration": 0.0515,
      "velocity": 116,
      "chip": "ym2612"
    },
    {
      "channel": 0,
      "note": 54,
      "start": 0.8166,
      "duration": 0.2665,
      "velocity": 95,
      "chip": "ym2612"
    },
    {
      "channel": 1,
      "note": 66,
      "start": 0.8175,
      "duration": 0.0663,
      "velocity": 116,
      "chip": "ym2612"
    },
    {
      "channel": 2,
      "note": 73,
      "start": 0.8184,
      "duration": 0.0663,
      "velocity": 116,
      "chip": "ym2612"
    },
    {
      "channel": 3,
      "note": 70,
      "start": 0.8193,
      "duration": 0.0663,
      "velocity": 116,
      "chip": "ym2612"
    },
    {
      "channel": 1,
      "note": 64,
      "start": 0.9507,
      "duration": 0.0663,
      "velocity": 116,
      "chip": "ym2612"
    },
    {
      "channel": 2,
      "note": 73,
      "start": 0.9516,
      "duration": 0.0663,
      "velocity": 116,
      "chip": "ym2612"
    },
    {
      "channel": 3,
      "note": 70,
      "start": 0.9526,
      "duration": 0.0663,
      "velocity": 116,
      "chip": "ym2612"
    },
    {
      "channel": 0,
      "note": 54,
      "start": 1.0831,
      "duration": 0.1337,
      "velocity": 95,
      "chip": "ym2612"
    },
    {
      "channel": 1,
      "note": 64,
      "start": 1.084,
      "duration": 0.0665,
      "velocity": 116,
      "chip": "ym2612"
    },
    {
      "channel": 2,
      "note": 73,
      "start": 1.0849,
      "duration": 0.0665,
      "velocity": 116,
      "chip": "ym2612"
    },
    {
      "channel": 3,
      "note": 70,
      "start": 1.0859,
      "duration": 0.0665,
      "velocity": 116,
      "chip": "ym2612"
    },
    {
      "channel": 0,
      "note": 52,
      "start": 1.2167,
      "duration": 0.083,
      "velocity": 95,
      "chip": "ym2612"
    },
    {
      "channel": 1,
      "note": 76,
      "start": 1.2217,
      "duration": 0.1613,
      "velocity": 112,
      "chip": "ym2612"
    },
    {
      "channel": 2,
      "note": 71,
      "start": 1.2268,
      "duration": 0.1572,
      "velocity": 112,
      "chip": "ym2612"
    },
    {
      "channel": 3,
      "note": 68,
      "start": 1.2334,
      "duration": 0.1514,
      "velocity": 112,
      "chip": "ym2612"
    },
    {
      "channel": 0,
      "note": 51,
      "start": 1.2998,
      "duration": 0.0823,
      "velocity": 95,
      "chip": "ym2612"
    },
    {
      "channel": 0,
      "note": 47,
      "start": 1.3821,
      "duration": 0.0819,
      "velocity": 95,
      "chip": "ym2612"
    },
    {
      "channel": 1,
      "note": 76,
      "start": 1.383,
      "duration": 0.0815,
      "velocity": 112,
      "chip": "ym2612"
    },
    {
      "channel": 2,
      "note": 71,
      "start": 1.3839,
      "duration": 0.0811,
      "velocity": 112,
      "chip": "ym2612"
    },
    {
      "channel": 3,
      "note": 68,
      "start": 1.3849,
      "duration": 0.0806,
      "velocity": 112,
      "chip": "ym2612"
    },
    {
      "channel": 0,
      "note": 47,
      "start": 1.464,
      "duration": 0.0749,
      "velocity": 95,
      "chip": "ym2612"
    },
    {
      "channel": 1,
      "note": 76,
      "start": 1.4646,
      "duration": 0.0371,
      "velocity": 112,
      "chip": "ym2612"
    },
    {
      "channel": 2,
      "note": 71,
      "start": 1.465,
      "duration": 0.037,
      "velocity": 112,
      "chip": "ym2612"
    },
    {
      "channel": 3,
      "note": 68,
      "start": 1.4656,
      "duration": 0.037,
      "velocity": 112,
      "chip": "ym2612"
    },
    {
      "channel": 0,
      "note": 48,
      "start": 1.5389,
      "duration": 0.13,
      "velocity": 95,
      "chip": "ym2612"
    },
    {
      "channel": 1,
      "note": 64,
      "start": 1.5432,
      "duration": 0.0597,
      "velocity": 116,
      "chip": "ym2612"
    },
    {
      "channel": 2,
      "note": 71,
      "start": 1.5471,
      "duration": 0.0567,
      "velocity": 116,
      "chip": "ym2612"
    },
    {
      "channel": 3,
      "note": 68,
      "start": 1.5534,
      "duration": 0.0513,
      "velocity": 116,
      "chip": "ym2612"
    },
    {
      "channel": 0,
      "note": 49,
      "start": 1.669,
      "duration": 0.1334,
      "velocity": 95,
      "chip": "ym2612"
    },
    {
      "channel": 1,
      "note": 64,
      "start": 1.6699,
      "duration": 0.0663,
      "velocity": 116,
      "chip": "ym2612"
    },
    {
      "channel": 2,
      "note": 71,
      "start": 1.6708,
      "duration": 0.0663,
      "velocity": 116,
      "chip": "ym2612"
    },
    {
      "channel": 3,
      "note": 68,
      "start": 1.6717,
      "duration": 0.0663,
      "velocity": 116,
      "chip": "ym2612"
    },
    {
      "channel": 0,
      "note": 42,
      "start": 1.8023,
      "duration": 0.0814,
      "velocity": 95,
      "chip": "ym2612"
    },
    {
      "channel": 1,
      "note": 66,
      "start": 1.8034,
      "duration": 0.0435,
      "velocity": 116,
      "chip": "ym2612"
    },
    {
      "channel": 2,
      "note": 73,
      "start": 1.8044,
      "duration": 0.0429,
      "velocity": 116,
      "chip": "ym2612"
    },
    {
      "channel": 3,
      "note": 70,
      "start": 1.8055,
      "duration": 0.0424,
      "velocity": 116,
      "chip": "ym2612"
    },
    {
      "channel": 0,
      "note": 42,
      "start": 1.8837,
      "duration": 0.0835,
      "velocity": 95,
      "chip": "ym2612"
    },
    {
      "channel": 1,
      "note": 66,
      "start": 1.8842,
      "duration": 0.0371,
      "velocity": 116,
      "chip": "ym2612"
    },
    {
      "channel": 2,
      "note": 73,
      "start": 1.8848,
      "duration": 0.037,
      "velocity": 116,
      "chip": "ym2612"
    },
    {
      "channel": 3,
      "note": 70,
      "start": 1.8852,
      "duration": 0.037,
      "velocity": 116,
      "chip": "ym2612"
    },
    {
      "channel": 0,
      "note": 49,
      "start": 1.9673,
      "duration": 0.1328,
      "velocity": 95,
      "chip": "ym2612"
    },
    {
      "channel": 1,
      "note": 78,
      "start": 1.9722,
      "duration": 0.2625,
      "velocity": 112,
      "chip": "ym2612"
    },
    {
      "channel": 2,
      "note": 73,
      "start": 1.9771,
      "duration": 0.2586,
      "velocity": 112,
      "chip": "ym2612"
    },
    {
      "channel": 3,
      "note": 70,
      "start": 1.9836,
      "duration": 0.253,
      "velocity": 112,
      "chip": "ym2612"
    },
    {
      "channel": 0,
      "note": 49,
      "start": 2.1001,
      "duration": 0.1338,
      "velocity": 95,
      "chip": "ym2612"
    },
    {
      "channel": 0,
      "note": 52,
      "start": 2.2339,
      "duration": 0.0814,
      "velocity": 95,
      "chip": "ym2612"
    },
    {
      "channel": 1,
      "note": 78,
      "start": 2.2348,
      "duration": 0.0809,
      "velocity": 112,
      "chip": "ym2612"
    },
    {
      "channel": 2,
      "note": 73,
      "start": 2.2357,
      "duration": 0.0805,
      "velocity": 112,
      "chip": "ym2612"
    },
    {
      "channel": 3,
      "note": 70,
      "start": 2.2366,
      "duration": 0.08,
      "velocity": 112,
      "chip": "ym2612"
    },
    {
      "channel": 0,
      "note": 48,
      "start": 2.3153,
      "duration": 0.0748,
      "velocity": 95,
      "chip": "ym2612"
    },
    {
      "channel": 1,
      "note": 78,
      "start": 2.3157,
      "duration": 0.037,
      "velocity": 112,
      "chip": "ym2612"
    },
    {
      "channel": 2,
      "note": 73,
      "start": 2.3162,
      "duration": 0.037,
      "velocity": 112,
      "chip": "ym2612"
    },
    {
      "channel": 3,
      "note": 70,
      "start": 2.3166,
      "duration": 0.037,
      "velocity": 112,
      "chip": "ym2612"
    },
    {
      "channel": 0,
      "note": 49,
      "start": 2.3901,
      "duration": 0.1297,
      "velocity": 95,
      "chip": "ym2612"
    },
    {
      "channel": 1,
      "note": 66,
      "start": 2.3941,
      "duration": 0.0596,
      "velocity": 116,
      "chip": "ym2612"
    },
    {
      "channel": 2,
      "note": 73,
      "start": 2.3983,
      "duration": 0.0563,
      "velocity": 116,
      "chip": "ym2612"
    },
    {
      "channel": 3,
      "note": 70,
      "start": 2.4042,
      "duration": 0.0514,
      "velocity": 116,
      "chip": "ym2612"
    },
    {
      "channel": 0,
      "note": 59,
      "start": 2.5198,
      "duration": 0.2667,
      "velocity": 95,
      "chip": "ym2612"
    },
    {
      "channel": 1,
      "note": 66,
      "start": 2.5206,
      "duration": 0.0663,
      "velocity": 116,
      "chip": "ym2612"
    },
    {
      "channel": 2,
      "note": 73,
      "start": 2.5216,
      "duration": 0.0663,
      "velocity": 116,
      "chip": "ym2612"
    },
    {
      "channel": 3,
      "note": 70,
      "start": 2.5225,
      "duration": 0.0663,
      "velocity": 116,
      "chip": "ym2612"
    },
    {
      "channel": 1,
      "note": 64,
      "start": 2.654,
      "duration": 0.0663,
      "velocity": 116,
      "chip": "ym2612"
    },
    {
      "channel": 2,
      "note": 73,
      "start": 2.655,
      "duration": 0.0663,
      "velocity": 116,
      "chip": "ym2612"
    },
    {
      "channel": 3,
      "note": 70,
      "start": 2.6559,
      "duration": 0.0663,
      "velocity": 116,
      "chip": "ym2612"
    },
    {
      "channel": 0,
      "note": 48,
      "start": 2.7865,
      "duration": 0.0818,
      "velocity": 95,
      "chip": "ym2612"
    },
    {
      "channel": 1,
      "note": 64,
      "start": 2.7874,
      "duration": 0.0435,
      "velocity": 116,
      "chip": "ym2612"
    },
    {
      "channel": 2,
      "note": 73,
      "start": 2.7883,
      "duration": 0.0431,
      "velocity": 116,
      "chip": "ym2612"
    },
    {
      "channel": 3,
      "note": 70,
      "start": 2.7893,
      "duration": 0.0427,
      "velocity": 116,
      "chip": "ym2612"
    },
    {
      "channel": 0,
      "note": 49,
      "start": 2.8683,
      "duration": 0.0791,
      "velocity": 95,
      "chip": "ym2612"
    },
    {
      "channel": 1,
      "note": 76,
      "start": 2.8726,
      "duration": 0.1582,
      "velocity": 112,
      "chip": "ym2612"
    },
    {
      "channel": 2,
      "note": 71,
      "start": 2.8768,
      "duration": 0.1549,
      "velocity": 112,
      "chip": "ym2612"
    },
    {
      "channel": 3,
      "note": 68,
      "start": 2.8829,
      "duration": 0.1497,
      "velocity": 112,
      "chip": "ym2612"
    },
    {
      "channel": 0,
      "note": 58,
      "start": 2.9474,
      "duration": 0.1646,
      "velocity": 95,
      "chip": "ym2612"
    },
    {
      "channel": 1,
      "note": 76,
      "start": 3.0308,
      "duration": 0.0817,
      "velocity": 112,
      "chip": "ym2612"
    },
    {
      "channel": 2,
      "note": 71,
      "start": 3.0317,
      "duration": 0.0812,
      "velocity": 112,
      "chip": "ym2612"
    },
    {
      "channel": 3,
      "note": 68,
      "start": 3.0327,
      "duration": 0.0808,
      "velocity": 112,
      "chip": "ym2612"
    },
    {
      "channel": 0,
      "note": 48,
      "start": 3.112,
      "duration": 0.0745,
      "velocity": 95,
      "chip": "ym2612"
    },
    {
      "channel": 1,
      "note": 76,
      "start": 3.1125,
      "duration": 0.037,
      "velocity": 112,
      "chip": "ym2612"
    },
    {
      "channel": 2,
      "note": 71,
      "start": 3.1129,
      "duration": 0.0371,
      "velocity": 112,
      "chip": "ym2612"
    },
    {
      "channel": 3,
      "note": 68,
      "start": 3.1134,
      "duration": 0.0371,
      "velocity": 112,
      "chip": "ym2612"
    },
    {
      "channel": 0,
      "note": 49,
      "start": 3.1866,
      "duration": 0.1293,
      "velocity": 95,
      "chip": "ym2612"
    },
    {
      "channel": 1,
      "note": 64,
      "start": 3.1906,
      "duration": 0.0592,
      "velocity": 116,
      "chip": "ym2612"
    },
    {
      "channel": 2,
      "note": 71,
      "start": 3.1944,
      "duration": 0.0563,
      "velocity": 116,
      "chip": "ym2612"
    },
    {
      "channel": 3,
      "note": 68,
      "start": 3.2004,
      "duration": 0.0512,
      "velocity": 116,
      "chip": "ym2612"
    },
    {
      "channel": 0,
      "note": 56,
      "start": 3.3159,
      "duration": 0.1333,
      "velocity": 95,
      "chip": "ym2612"
    },
    {
      "channel": 1,
      "note": 64,
      "start": 3.3168,
      "duration": 0.0662,
      "velocity": 116,
      "chip": "ym2612"
    },
    {
      "channel": 2,
      "note": 71,
      "start": 3.3178,
      "duration": 0.0661,
      "velocity": 116,
      "chip": "ym2612"
    },
    {
      "channel": 3,
      "note": 68,
      "start": 3.3187,
      "duration": 0.0662,
      "velocity": 116,
      "chip": "ym2612"
    },
    {
      "channel": 0,
      "note": 42,
      "start": 3.4493,
      "duration": 0.0815,
      "velocity": 95,
      "chip": "ym2612"
    },
    {
      "channel": 1,
      "note": 66,
      "start": 3.4504,
      "duration": 0.0436,
      "velocity": 116,
      "chip": "ym2612"
    },
    {
      "channel": 2,
      "note": 73,
      "start": 3.4514,
      "duration": 0.043,
      "velocity": 116,
      "chip": "ym2612"
    },
    {
      "channel": 3,
      "note": 70,
      "start": 3.4525,
      "duration": 0.0425,
      "velocity": 116,
      "chip": "ym2612"
    },
    {
      "channel": 0,
      "note": 42,
      "start": 3.5307,
      "duration": 0.0836,
      "velocity": 95,
      "chip": "ym2612"
    },
    {
      "channel": 1,
      "note": 66,
      "start": 3.5312,
      "duration": 0.0373,
      "velocity": 116,
      "chip": "ym2612"
    },
    {
      "channel": 2,
      "note": 73,
      "start": 3.5317,
      "duration": 0.0372,
      "velocity": 116,
      "chip": "ym2612"
    },
    {
      "channel": 3,
      "note": 70,
      "start": 3.5322,
      "duration": 0.0372,
      "velocity": 116,
      "chip": "ym2612"
    },
    {
      "channel": 0,
      "note": 49,
      "start": 3.6144,
      "duration": 0.1328,
      "velocity": 95,
      "chip": "ym2612"
    },
    {
      "channel": 1,
      "note": 78,
      "start": 3.6194,
      "duration": 0.2624,
      "velocity": 112,
      "chip": "ym2612"
    },
    {
      "channel": 2,
      "note": 73,
      "start": 3.6243,
      "duration": 0.2585,
      "velocity": 112,
      "chip": "ym2612"
    },
    {
      "channel": 3,
      "note": 70,
      "start": 3.6309,
      "duration": 0.2527,
      "velocity": 112,
      "chip": "ym2612"
    },
    {
      "channel": 0,
      "note": 49,
      "start": 3.7472,
      "duration": 0.1337,
      "velocity": 95,
      "chip": "ym2612"
    },
    {
      "channel": 0,
      "note": 52,
      "start": 3.8809,
      "duration": 0.1562,
      "velocity": 95,
      "chip": "ym2612"
    },
    {
      "channel": 1,
      "note": 78,
      "start": 3.8818,
      "duration": 0.081,
      "velocity": 112,
      "chip": "ym2612"
    },
    {
      "channel": 2,
      "note": 73,
      "start": 3.8827,
      "duration": 0.0806,
      "velocity": 112,
      "chip": "ym2612"
    },
    {
      "channel": 3,
      "note": 70,
      "start": 3.8836,
      "duration": 0.0801,
      "velocity": 112,
      "chip": "ym2612"
    },
    {
      "channel": 1,
      "note": 78,
      "start": 3.9628,
      "duration": 0.0373,
      "velocity": 112,
      "chip": "ym2612"
    },
    {
      "channel": 2,
      "note": 73,
      "start": 3.9633,
      "duration": 0.0373,
      "velocity": 112,
      "chip": "ym2612"
    },
    {
      "channel": 3,
      "note": 70,
      "start": 3.9637,
      "duration": 0.0373,
      "velocity": 112,
      "chip": "ym2612"
    },
    {
      "channel": 1,
      "note": 66,
      "start": 4.041,
      "duration": 0.0599,
      "velocity": 116,
      "chip": "ym2612"
    },
    {
      "channel": 2,
      "note": 73,
      "start": 4.0451,
      "duration": 0.0567,
      "velocity": 116,
      "chip": "ym2612"
    },
    {
      "channel": 3,
      "note": 70,
      "start": 4.0512,
      "duration": 0.0516,
      "velocity": 116,
      "chip": "ym2612"
    },
    {
      "channel": 0,
      "note": 54,
      "start": 4.167,
      "duration": 0.2665,
      "velocity": 95,
      "chip": "ym2612"
    },
    {
      "channel": 1,
      "note": 66,
      "start": 4.168,
      "duration": 0.0663,
      "velocity": 116,
      "chip": "ym2612"
    },
    {
      "channel": 2,
      "note": 73,
      "start": 4.1689,
      "duration": 0.0663,
      "velocity": 116,
      "chip": "ym2612"
    },
    {
      "channel": 3,
      "note": 70,
      "start": 4.1698,
      "duration": 0.0663,
      "velocity": 116,
      "chip": "ym2612"
    },
    {
      "channel": 1,
      "note": 64,
      "start": 4.3012,
      "duration": 0.0663,
      "velocity": 116,
      "chip": "ym2612"
    },
    {
      "channel": 2,
      "note": 73,
      "start": 4.3021,
      "duration": 0.0663,
      "velocity": 116,
      "chip": "ym2612"
    },
    {
      "channel": 3,
      "note": 70,
      "start": 4.303,
      "duration": 0.0663,
      "velocity": 116,
      "chip": "ym2612"
    },
    {
      "channel": 0,
      "note": 54,
      "start": 4.4335,
      "duration": 0.1337,
      "velocity": 95,
      "chip": "ym2612"
    },
    {
      "channel": 1,
      "note": 64,
      "start": 4.4344,
      "duration": 0.0665,
      "velocity": 116,
      "chip": "ym2612"
    },
    {
      "channel": 2,
      "note": 73,
      "start": 4.4353,
      "duration": 0.0665,
      "velocity": 116,
      "chip": "ym2612"
    },
    {
      "channel": 3,
      "note": 70,
      "start": 4.4363,
      "duration": 0.0665,
      "velocity": 116,
      "chip": "ym2612"
    },
    {
      "channel": 0,
      "note": 52,
      "start": 4.5671,
      "duration": 0.0831,
      "velocity": 95,
      "chip": "ym2612"
    },
    {
      "channel": 1,
      "note": 76,
      "start": 4.5722,
      "duration": 0.1613,
      "velocity": 112,
      "chip": "ym2612"
    },
    {
      "channel": 2,
      "note": 71,
      "start": 4.5772,
      "duration": 0.1572,
      "velocity": 112,
      "chip": "ym2612"
    },
    {
      "channel": 3,
      "note": 68,
      "start": 4.5839,
      "duration": 0.1514,
      "velocity": 112,
      "chip": "ym2612"
    },
    {
      "channel": 0,
      "note": 51,
      "start": 4.6503,
      "duration": 0.0822,
      "velocity": 95,
      "chip": "ym2612"
    },
    {
      "channel": 0,
      "note": 47,
      "start": 4.7326,
      "duration": 0.0819,
      "velocity": 95,
      "chip": "ym2612"
    },
    {
      "channel": 1,
      "note": 76,
      "start": 4.7335,
      "duration": 0.0815,
      "velocity": 112,
      "chip": "ym2612"
    },
    {
      "channel": 2,
      "note": 71,
      "start": 4.7344,
      "duration": 0.081,
      "velocity": 112,
      "chip": "ym2612"
    },
    {
      "channel": 3,
      "note": 68,
      "start": 4.7353,
      "duration": 0.0807,
      "velocity": 112,
      "chip": "ym2612"
    },
    {
      "channel": 0,
      "note": 47,
      "start": 4.8145,
      "duration": 0.0744,
      "velocity": 95,
      "chip": "ym2612"
    },
    {
      "channel": 1,
      "note": 76,
      "start": 4.815,
      "duration": 0.0367,
      "velocity": 112,
      "chip": "ym2612"
    },
    {
      "channel": 2,
      "note": 71,
      "start": 4.8155,
      "duration": 0.0366,
      "velocity": 112,
      "chip": "ym2612"
    },
    {
      "channel": 3,
      "note": 68,
      "start": 4.816,
      "duration": 0.0367,
      "velocity": 112,
      "chip": "ym2612"
    },
    {
      "channel": 0,
      "note": 48,
      "start": 4.8889,
      "duration": 0.1301,
      "velocity": 95,
      "chip": "ym2612"
    },
    {
      "channel": 1,
      "note": 64,
      "start": 4.8931,
      "duration": 0.0598,
      "velocity": 116,
      "chip": "ym2612"
    },
    {
      "channel": 2,
      "note": 71,
      "start": 4.8973,
      "duration": 0.0565,
      "velocity": 116,
      "chip": "ym2612"
    },
    {
      "channel": 3,
      "note": 68,
      "start": 4.9034,
      "duration": 0.0513,
      "velocity": 116,
      "chip": "ym2612"
    },
    {
      "channel": 0,
      "note": 49,
      "start": 5.019,
      "duration": 0.1333,
      "velocity": 95,
      "chip": "ym2612"
    },
    {
      "channel": 1,
      "note": 64,
      "start": 5.0199,
      "duration": 0.0663,
      "velocity": 116,
      "chip": "ym2612"
    },
    {
      "channel": 2,
      "note": 71,
      "start": 5.0209,
      "duration": 0.0663,
      "velocity": 116,
      "chip": "ym2612"
    },
    {
      "channel": 3,
      "note": 68,
      "start": 5.0217,
      "duration": 0.0663,
      "velocity": 116,
      "chip": "ym2612"
    },
    {
      "channel": 0,
      "note": 42,
      "start": 5.1523,
      "duration": 0.081,
      "velocity": 95,
      "chip": "ym2612"
    },
    {
      "channel": 1,
      "note": 66,
      "start": 5.1534,
      "duration": 0.0431,
      "velocity": 116,
      "chip": "ym2612"
    },
    {
      "channel": 2,
      "note": 73,
      "start": 5.1545,
      "duration": 0.0425,
      "velocity": 116,
      "chip": "ym2612"
    },
    {
      "channel": 3,
      "note": 70,
      "start": 5.1555,
      "duration": 0.0419,
      "velocity": 116,
      "chip": "ym2612"
    },
    {
      "channel": 0,
      "note": 42,
      "start": 5.2333,
      "duration": 0.0837,
      "velocity": 95,
      "chip": "ym2612"
    },
    {
      "channel": 1,
      "note": 66,
      "start": 5.2338,
      "duration": 0.0374,
      "velocity": 116,
      "chip": "ym2612"
    },
    {
      "channel": 2,
      "note": 73,
      "start": 5.2342,
      "duration": 0.0375,
      "velocity": 116,
      "chip": "ym2612"
    },
    {
      "channel": 3,
      "note": 70,
      "start": 5.2347,
      "duration": 0.0375,
      "velocity": 116,
      "chip": "ym2612"
    },
    {
      "channel": 0,
      "note": 49,
      "start": 5.317,
      "duration": 0.1328,
      "velocity": 95,
      "chip": "ym2612"
    },
    {
      "channel": 1,
      "note": 78,
      "start": 5.322,
      "duration": 0.2623,
      "velocity": 112,
      "chip": "ym2612"
    },
    {
      "channel": 2,
      "note": 73,
      "start": 5.3268,
      "duration": 0.2585,
      "velocity": 112,
      "chip": "ym2612"
    },
    {
      "channel": 3,
      "note": 70,
      "start": 5.3334,
      "duration": 0.2527,
      "velocity": 112,
      "chip": "ym2612"
    },
    {
      "channel": 0,
      "note": 49,
      "start": 5.4498,
      "duration": 0.1337,
      "velocity": 95,
      "chip": "ym2612"
    },
    {
      "channel": 0,
      "note": 52,
      "start": 5.5834,
      "duration": 0.0818,
      "velocity": 95,
      "chip": "ym2612"
    },
    {
      "channel": 1,
      "note": 78,
      "start": 5.5844,
      "duration": 0.0813,
      "velocity": 112,
      "chip": "ym2612"
    },
    {
      "channel": 2,
      "note": 73,
      "start": 5.5853,
      "duration": 0.0809,
      "velocity": 112,
      "chip": "ym2612"
    },
    {
      "channel": 3,
      "note": 70,
      "start": 5.5862,
      "duration": 0.0804,
      "velocity": 112,
      "chip": "ym2612"
    },
    {
      "channel": 0,
      "note": 48,
      "start": 5.6652,
      "duration": 0.0746,
      "velocity": 95,
      "chip": "ym2612"
    },
    {
      "channel": 1,
      "note": 78,
      "start": 5.6657,
      "duration": 0.0371,
      "velocity": 112,
      "chip": "ym2612"
    },
    {
      "channel": 2,
      "note": 73,
      "start": 5.6661,
      "duration": 0.0371,
      "velocity": 112,
      "chip": "ym2612"
    },
    {
      "channel": 3,
      "note": 70,
      "start": 5.6667,
      "duration": 0.037,
      "velocity": 112,
      "chip": "ym2612"
    },
    {
      "channel": 0,
      "note": 49,
      "start": 5.7398,
      "duration": 0.1298,
      "velocity": 95,
      "chip": "ym2612"
    },
    {
      "channel": 1,
      "note": 66,
      "start": 5.7439,
      "duration": 0.0596,
      "velocity": 116,
      "chip": "ym2612"
    },
    {
      "channel": 2,
      "note": 73,
      "start": 5.7478,
      "duration": 0.0566,
      "velocity": 116,
      "chip": "ym2612"
    },
    {
      "channel": 3,
      "note": 70,
      "start": 5.754,
      "duration": 0.0513,
      "velocity": 116,
      "chip": "ym2612"
    },
    {
      "channel": 0,
      "note": 59,
      "start": 5.8696,
      "duration": 0.2668,
      "velocity": 95,
      "chip": "ym2612"
    },
    {
      "channel": 1,
      "note": 66,
      "start": 5.8706,
      "duration": 0.0663,
      "velocity": 116,
      "chip": "ym2612"
    },
    {
      "channel": 2,
      "note": 73,
      "start": 5.8715,
      "duration": 0.0663,
      "velocity": 116,
      "chip": "ym2612"
    },
    {
      "channel": 3,
      "note": 70,
      "start": 5.8724,
      "duration": 0.0663,
      "velocity": 116,
      "chip": "ym2612"
    },
    {
      "channel": 1,
      "note": 64,
      "start": 6.0039,
      "duration": 0.0665,
      "velocity": 116,
      "chip": "ym2612"
    },
    {
      "channel": 2,
      "note": 73,
      "start": 6.0049,
      "duration": 0.0665,
      "velocity": 116,
      "chip": "ym2612"
    },
    {
      "channel": 3,
      "note": 70,
      "start": 6.0057,
      "duration": 0.0665,
      "velocity": 116,
      "chip": "ym2612"
    },
    {
      "channel": 0,
      "note": 58,
      "start": 6.1364,
      "duration": 0.1335,
      "velocity": 95,
      "chip": "ym2612"
    },
    {
      "channel": 1,
      "note": 64,
      "start": 6.1373,
      "duration": 0.0665,
      "velocity": 116,
      "chip": "ym2612"
    },
    {
      "channel": 2,
      "note": 73,
      "start": 6.1383,
      "duration": 0.0665,
      "velocity": 116,
      "chip": "ym2612"
    },
    {
      "channel": 3,
      "note": 70,
      "start": 6.1391,
      "duration": 0.0665,
      "velocity": 116,
      "chip": "ym2612"
    },
    {
      "channel": 5,
      "note": 73,
      "start": 6.1615,
      "duration": 0.0628,
      "velocity": 127,
      "chip": "ym2612"
    },
    {
      "channel": 5,
      "note": 73,
      "start": 6.2243,
      "duration": 0.0641,
      "velocity": 127,
      "chip": "ym2612"
    },
    {
      "channel": 0,
      "note": 54,
      "start": 6.2699,
      "duration": 0.1331,
      "velocity": 95,
      "chip": "ym2612"
    },
    {
      "channel": 1,
      "note": 76,
      "start": 6.2749,
      "duration": 0.2624,
      "velocity": 112,
      "chip": "ym2612"
    },
    {
      "channel": 2,
      "note": 71,
      "start": 6.2799,
      "duration": 0.2583,
      "velocity": 112,
      "chip": "ym2612"
    },
    {
      "channel": 3,
      "note": 68,
      "start": 6.2865,
      "duration": 0.2526,
      "velocity": 112,
      "chip": "ym2612"
    },
    {
      "channel": 5,
      "note": 73,
      "start": 6.2884,
      "duration": 0.2691,
      "velocity": 127,
      "chip": "ym2612"
    },
    {
      "channel": 0,
      "note": 49,
      "start": 6.403,
      "duration": 0.1334,
      "velocity": 95,
      "chip": "ym2612"
    },
    {
      "channel": 0,
      "note": 52,
      "start": 6.5364,
      "duration": 0.1335,
      "velocity": 95,
      "chip": "ym2612"
    },
    {
      "channel": 1,
      "note": 76,
      "start": 6.5373,
      "duration": 0.1335,
      "velocity": 112,
      "chip": "ym2612"
    },
    {
      "channel": 2,
      "note": 71,
      "start": 6.5383,
      "duration": 0.1334,
      "velocity": 112,
      "chip": "ym2612"
    },
    {
      "channel": 3,
      "note": 68,
      "start": 6.5391,
      "duration": 0.1335,
      "velocity": 112,
      "chip": "ym2612"
    },
    {
      "channel": 5,
      "note": 68,
      "start": 6.5576,
      "duration": 0.1333,
      "velocity": 127,
      "chip": "ym2612"
    },
    {
      "channel": 0,
      "note": 54,
      "start": 6.6699,
      "duration": 0.1332,
      "velocity": 95,
      "chip": "ym2612"
    },
    {
      "channel": 1,
      "note": 76,
      "start": 6.6708,
      "duration": 0.0662,
      "velocity": 112,
      "chip": "ym2612"
    },
    {
      "channel": 2,
      "note": 71,
      "start": 6.6718,
      "duration": 0.0662,
      "velocity": 112,
      "chip": "ym2612"
    },
    {
      "channel": 3,
      "note": 68,
      "start": 6.6727,
      "duration": 0.0662,
      "velocity": 112,
      "chip": "ym2612"
    },
    {
      "channel": 5,
      "note": 68,
      "start": 6.691,
      "duration": 0.1306,
      "velocity": 127,
      "chip": "ym2612"
    },
    {
      "channel": 0,
      "note": 48,
      "start": 6.8031,
      "duration": 0.1333,
      "velocity": 95,
      "chip": "ym2612"
    },
    {
      "channel": 1,
      "note": 64,
      "start": 6.8082,
      "duration": 0.0623,
      "velocity": 116,
      "chip": "ym2612"
    },
    {
      "channel": 2,
      "note": 71,
      "start": 6.8131,
      "duration": 0.0583,
      "velocity": 116,
      "chip": "ym2612"
    },
    {
      "channel": 3,
      "note": 68,
      "start": 6.8196,
      "duration": 0.0527,
      "velocity": 116,
      "chip": "ym2612"
    },
    {
      "channel": 5,
      "note": 62,
      "start": 6.8216,
      "duration": 0.136,
      "velocity": 127,
      "chip": "ym2612"
    },
    {
      "channel": 0,
      "note": 49,
      "start": 6.9364,
      "duration": 0.1338,
      "velocity": 95,
      "chip": "ym2612"
    },
    {
      "channel": 1,
      "note": 64,
      "start": 6.9373,
      "duration": 0.0665,
      "velocity": 116,
      "chip": "ym2612"
    },
    {
      "channel": 2,
      "note": 71,
      "start": 6.9383,
      "duration": 0.0665,
      "velocity": 116,
      "chip": "ym2612"
    },
    {
      "channel": 3,
      "note": 68,
      "start": 6.9391,
      "duration": 0.0665,
      "velocity": 116,
      "chip": "ym2612"
    },
    {
      "channel": 5,
      "note": 62,
      "start": 6.9576,
      "duration": 0.1308,
      "velocity": 127,
      "chip": "ym2612"
    },
    {
      "channel": 0,
      "note": 42,
      "start": 7.0702,
      "duration": 0.0817,
      "velocity": 95,
      "chip": "ym2612"
    },
    {
      "channel": 1,
      "note": 66,
      "start": 7.0712,
      "duration": 0.043,
      "velocity": 116,
      "chip": "ym2612"
    },
    {
      "channel": 2,
      "note": 73,
      "start": 7.0723,
      "duration": 0.0425,
      "velocity": 116,
      "chip": "ym2612"
    },
    {
      "channel": 3,
      "note": 70,
      "start": 7.0734,
      "duration": 0.0419,
      "velocity": 116,
      "chip": "ym2612"
    },
    {
      "channel": 4,
      "note": 73,
      "start": 7.0784,
      "duration": 0.1741,
      "velocity": 110,
      "chip": "ym2612"
    },
    {
      "channel": 0,
      "note": 42,
      "start": 7.1518,
      "duration": 0.0833,
      "velocity": 95,
      "chip": "ym2612"
    },
    {
      "channel": 1,
      "note": 66,
      "start": 7.1523,
      "duration": 0.0369,
      "velocity": 116,
      "chip": "ym2612"
    },
    {
      "channel": 2,
      "note": 73,
      "start": 7.1527,
      "duration": 0.0369,
      "velocity": 116,
      "chip": "ym2612"
    },
    {
      "channel": 3,
      "note": 70,
      "start": 7.1532,
      "duration": 0.0369,
      "velocity": 116,
      "chip": "ym2612"
    },
    {
      "channel": 0,
      "note": 49,
      "start": 7.2351,
      "duration": 0.1328,
      "velocity": 95,
      "chip": "ym2612"
    },
    {
      "channel": 1,
      "note": 78,
      "start": 7.2401,
      "duration": 0.2624,
      "velocity": 112,
      "chip": "ym2612"
    },
    {
      "channel": 2,
      "note": 73,
      "start": 7.245,
      "duration": 0.2584,
      "velocity": 112,
      "chip": "ym2612"
    },
    {
      "channel": 3,
      "note": 70,
      "start": 7.2516,
      "duration": 0.2528,
      "velocity": 112,
      "chip": "ym2612"
    },
    {
      "channel": 4,
      "note": 90,
      "start": 7.2525,
      "duration": 0.2529,
      "velocity": 110,
      "chip": "ym2612"
    },
    {
      "channel": 0,
      "note": 49,
      "start": 7.368,
      "duration": 0.1336,
      "velocity": 95,
      "chip": "ym2612"
    },
    {
      "channel": 0,
      "note": 52,
      "start": 7.5016,
      "duration": 0.1565,
      "velocity": 95,
      "chip": "ym2612"
    },
    {
      "channel": 1,
      "note": 78,
      "start": 7.5025,
      "duration": 0.0809,
      "velocity": 112,
      "chip": "ym2612"
    },
    {
      "channel": 2,
      "note": 73,
      "start": 7.5034,
      "duration": 0.0805,
      "velocity": 112,
      "chip": "ym2612"
    },
    {
      "channel": 3,
      "note": 70,
      "start": 7.5044,
      "duration": 0.08,
      "velocity": 112,
      "chip": "ym2612"
    },
    {
      "channel": 4,
      "note": 88,
      "start": 7.5054,
      "duration": 0.1679,
      "velocity": 110,
      "chip": "ym2612"
    },
    {
      "channel": 1,
      "note": 78,
      "start": 7.5835,
      "duration": 0.0375,
      "velocity": 112,
      "chip": "ym2612"
    },
    {
      "channel": 2,
      "note": 73,
      "start": 7.5839,
      "duration": 0.0375,
      "velocity": 112,
      "chip": "ym2612"
    },
    {
      "channel": 3,
      "note": 70,
      "start": 7.5845,
      "duration": 0.0375,
      "velocity": 112,
      "chip": "ym2612"
    },
    {
      "channel": 1,
      "note": 66,
      "start": 7.6627,
      "duration": 0.0599,
      "velocity": 116,
      "chip": "ym2612"
    },
    {
      "channel": 2,
      "note": 73,
      "start": 7.6666,
      "duration": 0.057,
      "velocity": 116,
      "chip": "ym2612"
    },
    {
      "channel": 3,
      "note": 70,
      "start": 7.6727,
      "duration": 0.0517,
      "velocity": 116,
      "chip": "ym2612"
    },
    {
      "channel": 4,
      "note": 85,
      "start": 7.6733,
      "duration": 0.2525,
      "velocity": 110,
      "chip": "ym2612"
    },
    {
      "channel": 0,
      "note": 54,
      "start": 7.7886,
      "duration": 0.2666,
      "velocity": 95,
      "chip": "ym2612"
    },
    {
      "channel": 1,
      "note": 66,
      "start": 7.7896,
      "duration": 0.0662,
      "velocity": 116,
      "chip": "ym2612"
    },
    {
      "channel": 2,
      "note": 73,
      "start": 7.7905,
      "duration": 0.0662,
      "velocity": 116,
      "chip": "ym2612"
    },
    {
      "channel": 3,
      "note": 70,
      "start": 7.7915,
      "duration": 0.0662,
      "velocity": 116,
      "chip": "ym2612"
    },
    {
      "channel": 1,
      "note": 64,
      "start": 7.9229,
      "duration": 0.0665,
      "velocity": 116,
      "chip": "ym2612"
    },
    {
      "channel": 2,
      "note": 73,
      "start": 7.9238,
      "duration": 0.0665,
      "velocity": 116,
      "chip": "ym2612"
    },
    {
      "channel": 3,
      "note": 70,
      "start": 7.9247,
      "duration": 0.0665,
      "velocity": 116,
      "chip": "ym2612"
    },
    {
      "channel": 4,
      "note": 88,
      "start": 7.9257,
      "duration": 0.2807,
      "velocity": 110,
      "chip": "ym2612"
    },
    {
      "channel": 0,
      "note": 54,
      "start": 8.0552,
      "duration": 0.1336,
      "velocity": 95,
      "chip": "ym2612"
    },
    {
      "channel": 1,
      "note": 64,
      "start": 8.0561,
      "duration": 0.0665,
      "velocity": 116,
      "chip": "ym2612"
    },
    {
      "channel": 2,
      "note": 73,
      "start": 8.057,
      "duration": 0.0665,
      "velocity": 116,
      "chip": "ym2612"
    },
    {
      "channel": 3,
      "note": 70,
      "start": 8.0579,
      "duration": 0.0665,
      "velocity": 116,
      "chip": "ym2612"
    },
    {
      "channel": 0,
      "note": 52,
      "start": 8.1888,
      "duration": 0.0832,
      "velocity": 95,
      "chip": "ym2612"
    },
    {
      "channel": 1,
      "note": 76,
      "start": 8.1939,
      "duration": 0.1614,
      "velocity": 112,
      "chip": "ym2612"
    },
    {
      "channel": 2,
      "note": 71,
      "start": 8.1988,
      "duration": 0.1574,
      "velocity": 112,
      "chip": "ym2612"
    },
    {
      "channel": 3,
      "note": 68,
      "start": 8.2056,
      "duration": 0.1515,
      "velocity": 112,
      "chip": "ym2612"
    },
    {
      "channel": 0,
      "note": 51,
      "start": 8.2721,
      "duration": 0.0823,
      "velocity": 95,
      "chip": "ym2612"
    },
    {
      "channel": 4,
      "note": 91,
      "start": 8.2739,
      "duration": 0.252,
      "velocity": 110,
      "chip": "ym2612"
    },
    {
      "channel": 0,
      "note": 47,
      "start": 8.3544,
      "duration": 0.0818,
      "velocity": 95,
      "chip": "ym2612"
    },
    {
      "channel": 1,
      "note": 76,
      "start": 8.3553,
      "duration": 0.0814,
      "velocity": 112,
      "chip": "ym2612"
    },
    {
      "channel": 2,
      "note": 71,
      "start": 8.3562,
      "duration": 0.081,
      "velocity": 112,
      "chip": "ym2612"
    },
    {
      "channel": 3,
      "note": 68,
      "start": 8.3571,
      "duration": 0.0805,
      "velocity": 112,
      "chip": "ym2612"
    },
    {
      "channel": 0,
      "note": 47,
      "start": 8.4362,
      "duration": 0.0749,
      "velocity": 95,
      "chip": "ym2612"
    },
    {
      "channel": 1,
      "note": 76,
      "start": 8.4367,
      "duration": 0.0369,
      "velocity": 112,
      "chip": "ym2612"
    },
    {
      "channel": 2,
      "note": 71,
      "start": 8.4373,
      "duration": 0.0369,
      "velocity": 112,
      "chip": "ym2612"
    },
    {
      "channel": 3,
      "note": 68,
      "start": 8.4377,
      "duration": 0.0369,
      "velocity": 112,
      "chip": "ym2612"
    },
    {
      "channel": 0,
      "note": 48,
      "start": 8.5111,
      "duration": 0.1299,
      "velocity": 95,
      "chip": "ym2612"
    },
    {
      "channel": 1,
      "note": 64,
      "start": 8.5152,
      "duration": 0.0597,
      "velocity": 116,
      "chip": "ym2612"
    },
    {
      "channel": 2,
      "note": 71,
      "start": 8.5191,
      "duration": 0.0567,
      "velocity": 116,
      "chip": "ym2612"
    },
    {
      "channel": 3,
      "note": 68,
      "start": 8.5254,
      "duration": 0.0513,
      "velocity": 116,
      "chip": "ym2612"
    },
    {
      "channel": 4,
      "note": 94,
      "start": 8.5259,
      "duration": 0.2527,
      "velocity": 110,
      "chip": "ym2612"
    },
    {
      "channel": 0,
      "note": 49,
      "start": 8.641,
      "duration": 0.1333,
      "velocity": 95,
      "chip": "ym2612"
    },
    {
      "channel": 1,
      "note": 64,
      "start": 8.642,
      "duration": 0.0663,
      "velocity": 116,
      "chip": "ym2612"
    },
    {
      "channel": 2,
      "note": 71,
      "start": 8.6429,
      "duration": 0.0663,
      "velocity": 116,
      "chip": "ym2612"
    },
    {
      "channel": 3,
      "note": 68,
      "start": 8.6438,
      "duration": 0.0663,
      "velocity": 116,
      "chip": "ym2612"
    },
    {
      "channel": 0,
      "note": 42,
      "start": 8.7744,
      "duration": 0.0816,
      "velocity": 95,
      "chip": "ym2612"
    },
    {
      "channel": 1,
      "note": 66,
      "start": 8.7754,
      "duration": 0.0434,
      "velocity": 116,
      "chip": "ym2612"
    },
    {
      "channel": 2,
      "note": 73,
      "start": 8.7765,
      "duration": 0.0428,
      "velocity": 116,
      "chip": "ym2612"
    },
    {
      "channel": 3,
      "note": 70,
      "start": 8.7775,
      "duration": 0.0422,
      "velocity": 116,
      "chip": "ym2612"
    },
    {
      "channel": 4,
      "note": 91,
      "start": 8.7786,
      "duration": 0.1787,
      "velocity": 110,
      "chip": "ym2612"
    },
    {
      "channel": 0,
      "note": 42,
      "start": 8.8561,
      "duration": 0.0839,
      "velocity": 95,
      "chip": "ym2612"
    },
    {
      "channel": 1,
      "note": 66,
      "start": 8.8566,
      "duration": 0.037,
      "velocity": 116,
      "chip": "ym2612"
    },
    {
      "channel": 2,
      "note": 73,
      "start": 8.8571,
      "duration": 0.037,
      "velocity": 116,
      "chip": "ym2612"
    },
    {
      "channel": 3,
      "note": 70,
      "start": 8.8576,
      "duration": 0.0369,
      "velocity": 116,
      "chip": "ym2612"
    },
    {
      "channel": 0,
      "note": 49,
      "start": 8.94,
      "duration": 0.1328,
      "velocity": 95,
      "chip": "ym2612"
    },
    {
      "channel": 1,
      "note": 78,
      "start": 8.945,
      "duration": 0.2625,
      "velocity": 112,
      "chip": "ym2612"
    },
    {
      "channel": 2,
      "note": 73,
      "start": 8.9499,
      "duration": 0.2585,
      "velocity": 112,
      "chip": "ym2612"
    },
    {
      "channel": 3,
      "note": 70,
      "start": 8.9564,
      "duration": 0.2529,
      "velocity": 112,
      "chip": "ym2612"
    },
    {
      "channel": 4,
      "note": 90,
      "start": 8.9573,
      "duration": 0.2531,
      "velocity": 110,
      "chip": "ym2612"
    },
    {
      "channel": 0,
      "note": 49,
      "start": 9.0728,
      "duration": 0.1337,
      "velocity": 95,
      "chip": "ym2612"
    },
    {
      "channel": 0,
      "note": 52,
      "start": 9.2066,
      "duration": 0.0815,
      "velocity": 95,
      "chip": "ym2612"
    },
    {
      "channel": 1,
      "note": 78,
      "start": 9.2075,
      "duration": 0.0811,
      "velocity": 112,
      "chip": "ym2612"
    },
    {
      "channel": 2,
      "note": 73,
      "start": 9.2085,
      "duration": 0.0805,
      "velocity": 112,
      "chip": "ym2612"
    },
    {
      "channel": 3,
      "note": 70,
      "start": 9.2094,
      "duration": 0.0802,
      "velocity": 112,
      "chip": "ym2612"
    },
    {
      "channel": 4,
      "note": 88,
      "start": 9.2104,
      "duration": 0.1675,
      "velocity": 110,
      "chip": "ym2612"
    },
    {
      "channel": 0,
      "note": 48,
      "start": 9.2881,
      "duration": 0.0749,
      "velocity": 95,
      "chip": "ym2612"
    },
    {
      "channel": 1,
      "note": 78,
      "start": 9.2886,
      "duration": 0.0369,
      "velocity": 112,
      "chip": "ym2612"
    },
    {
      "channel": 2,
      "note": 73,
      "start": 9.2891,
      "duration": 0.0368,
      "velocity": 112,
      "chip": "ym2612"
    },
    {
      "channel": 3,
      "note": 70,
      "start": 9.2895,
      "duration": 0.0369,
      "velocity": 112,
      "chip": "ym2612"
    },
    {
      "channel": 0,
      "note": 49,
      "start": 9.3631,
      "duration": 0.1298,
      "velocity": 95,
      "chip": "ym2612"
    },
    {
      "channel": 1,
      "note": 66,
      "start": 9.3673,
      "duration": 0.0596,
      "velocity": 116,
      "chip": "ym2612"
    },
    {
      "channel": 2,
      "note": 73,
      "start": 9.3714,
      "duration": 0.0565,
      "velocity": 116,
      "chip": "ym2612"
    },
    {
      "channel": 3,
      "note": 70,
      "start": 9.3773,
      "duration": 0.0514,
      "velocity": 116,
      "chip": "ym2612"
    },
    {
      "channel": 4,
      "note": 85,
      "start": 9.378,
      "duration": 0.2521,
      "velocity": 110,
      "chip": "ym2612"
    },
    {
      "channel": 0,
      "note": 59,
      "start": 9.4929,
      "duration": 0.2667,
      "velocity": 95,
      "chip": "ym2612"
    },
    {
      "channel": 1,
      "note": 66,
      "start": 9.4938,
      "duration": 0.0663,
      "velocity": 116,
      "chip": "ym2612"
    },
    {
      "channel": 2,
      "note": 73,
      "start": 9.4948,
      "duration": 0.0663,
      "velocity": 116,
      "chip": "ym2612"
    },
    {
      "channel": 3,
      "note": 70,
      "start": 9.4957,
      "duration": 0.0663,
      "velocity": 116,
      "chip": "ym2612"
    },
    {
      "channel": 1,
      "note": 64,
      "start": 9.6272,
      "duration": 0.0662,
      "velocity": 116,
      "chip": "ym2612"
    },
    {
      "channel": 2,
      "note": 73,
      "start": 9.6281,
      "duration": 0.0662,
      "velocity": 116,
      "chip": "ym2612"
    },
    {
      "channel": 3,
      "note": 70,
      "start": 9.6291,
      "duration": 0.0662,
      "velocity": 116,
      "chip": "ym2612"
    },
    {
      "channel": 4,
      "note": 88,
      "start": 9.6301,
      "duration": 0.2259,
      "velocity": 110,
      "chip": "ym2612"
    },
    {
      "channel": 0,
      "note": 48,
      "start": 9.7597,
      "duration": 0.0814,
      "velocity": 95,
      "chip": "ym2612"
    },
    {
      "channel": 1,
      "note": 64,
      "start": 9.7606,
      "duration": 0.0435,
      "velocity": 116,
      "chip": "ym2612"
    },
    {
      "channel": 2,
      "note": 73,
      "start": 9.7615,
      "duration": 0.043,
      "velocity": 116,
      "chip": "ym2612"
    },
    {
      "channel": 3,
      "note": 70,
      "start": 9.7625,
      "duration": 0.0427,
      "velocity": 116,
      "chip": "ym2612"
    },
    {
      "channel": 0,
      "note": 49,
      "start": 9.841,
      "duration": 0.0798,
      "velocity": 95,
      "chip": "ym2612"
    },
    {
      "channel": 1,
      "note": 76,
      "start": 9.8452,
      "duration": 0.1588,
      "velocity": 112,
      "chip": "ym2612"
    },
    {
      "channel": 2,
      "note": 71,
      "start": 9.8495,
      "duration": 0.1554,
      "velocity": 112,
      "chip": "ym2612"
    },
    {
      "channel": 3,
      "note": 68,
      "start": 9.8555,
      "duration": 0.1502,
      "velocity": 112,
      "chip": "ym2612"
    },
    {
      "channel": 0,
      "note": 58,
      "start": 9.9208,
      "duration": 0.1647,
      "velocity": 95,
      "chip": "ym2612"
    },
    {
      "channel": 4,
      "note": 88,
      "start": 9.9226,
      "duration": 0.3722,
      "velocity": 110,
      "chip": "ym2612"
    },
    {
      "channel": 1,
      "note": 76,
      "start": 10.004,
      "duration": 0.0819,
      "velocity": 112,
      "chip": "ym2612"
    },
    {
      "channel": 2,
      "note": 71,
      "start": 10.0049,
      "duration": 0.0816,
      "velocity": 112,
      "chip": "ym2612"
    },
    {
      "channel": 3,
      "note": 68,
      "start": 10.0058,
      "duration": 0.0811,
      "velocity": 112,
      "chip": "ym2612"
    },
    {
      "channel": 0,
      "note": 48,
      "start": 10.0855,
      "duration": 0.0756,
      "velocity": 95,
      "chip": "ym2612"
    },
    {
      "channel": 1,
      "note": 76,
      "start": 10.086,
      "duration": 0.0373,
      "velocity": 112,
      "chip": "ym2612"
    },
    {
      "channel": 2,
      "note": 71,
      "start": 10.0864,
      "duration": 0.0372,
      "velocity": 112,
      "chip": "ym2612"
    },
    {
      "channel": 3,
      "note": 68,
      "start": 10.087,
      "duration": 0.0372,
      "velocity": 112,
      "chip": "ym2612"
    },
    {
      "channel": 0,
      "note": 49,
      "start": 10.1611,
      "duration": 0.1299,
      "velocity": 95,
      "chip": "ym2612"
    },
    {
      "channel": 1,
      "note": 64,
      "start": 10.1652,
      "duration": 0.0597,
      "velocity": 116,
      "chip": "ym2612"
    },
    {
      "channel": 2,
      "note": 71,
      "start": 10.1691,
      "duration": 0.0568,
      "velocity": 116,
      "chip": "ym2612"
    },
    {
      "channel": 3,
      "note": 68,
      "start": 10.1752,
      "duration": 0.0516,
      "velocity": 116,
      "chip": "ym2612"
    },
    {
      "channel": 0,
      "note": 56,
      "start": 10.291,
      "duration": 0.1334,
      "velocity": 95,
      "chip": "ym2612"
    },
    {
      "channel": 1,
      "note": 64,
      "start": 10.292,
      "duration": 0.0663,
      "velocity": 116,
      "chip": "ym2612"
    },
    {
      "channel": 2,
      "note": 71,
      "start": 10.2929,
      "duration": 0.0663,
      "velocity": 116,
      "chip": "ym2612"
    },
    {
      "channel": 3,
      "note": 68,
      "start": 10.2938,
      "duration": 0.0663,
      "velocity": 116,
      "chip": "ym2612"
    },
    {
      "channel": 0,
      "note": 42,
      "start": 10.4244,
      "duration": 0.082,
      "velocity": 95,
      "chip": "ym2612"
    },
    {
      "channel": 1,
      "note": 66,
      "start": 10.4255,
      "duration": 0.0436,
      "velocity": 116,
      "chip": "ym2612"
    },
    {
      "channel": 2,
      "note": 73,
      "start": 10.4265,
      "duration": 0.0429,
      "velocity": 116,
      "chip": "ym2612"
    },
    {
      "channel": 3,
      "note": 70,
      "start": 10.4276,
      "duration": 0.0424,
      "velocity": 116,
      "chip": "ym2612"
    },
    {
      "channel": 4,
      "note": 89,
      "start": 10.4286,
      "duration": 0.1786,
      "velocity": 110,
      "chip": "ym2612"
    },
    {
      "channel": 0,
      "note": 42,
      "start": 10.5065,
      "duration": 0.0834,
      "velocity": 95,
      "chip": "ym2612"
    },
    {
      "channel": 1,
      "note": 66,
      "start": 10.5069,
      "duration": 0.0371,
      "velocity": 116,
      "chip": "ym2612"
    },
    {
      "channel": 2,
      "note": 73,
      "start": 10.5075,
      "duration": 0.037,
      "velocity": 116,
      "chip": "ym2612"
    },
    {
      "channel": 3,
      "note": 70,
      "start": 10.5079,
      "duration": 0.037,
      "velocity": 116,
      "chip": "ym2612"
    },
    {
      "channel": 0,
      "note": 49,
      "start": 10.5898,
      "duration": 0.1329,
      "velocity": 95,
      "chip": "ym2612"
    },
    {
      "channel": 1,
      "note": 78,
      "start": 10.5948,
      "duration": 0.2624,
      "velocity": 112,
      "chip": "ym2612"
    },
    {
      "channel": 2,
      "note": 73,
      "start": 10.5997,
      "duration": 0.2585,
      "velocity": 112,
      "chip": "ym2612"
    },
    {
      "channel": 3,
      "note": 70,
      "start": 10.6063,
      "duration": 0.2528,
      "velocity": 112,
      "chip": "ym2612"
    },
    {
      "channel": 4,
      "note": 90,
      "start": 10.6073,
      "duration": 0.2529,
      "velocity": 110,
      "chip": "ym2612"
    },
    {
      "channel": 0,
      "note": 49,
      "start": 10.7227,
      "duration": 0.1336,
      "velocity": 95,
      "chip": "ym2612"
    },
    {
      "channel": 0,
      "note": 52,
      "start": 10.8563,
      "duration": 0.1561,
      "velocity": 95,
      "chip": "ym2612"
    },
    {
      "channel": 1,
      "note": 78,
      "start": 10.8573,
      "duration": 0.0807,
      "velocity": 112,
      "chip": "ym2612"
    },
    {
      "channel": 2,
      "note": 73,
      "start": 10.8582,
      "duration": 0.0802,
      "velocity": 112,
      "chip": "ym2612"
    },
    {
      "channel": 3,
      "note": 70,
      "start": 10.8591,
      "duration": 0.0799,
      "velocity": 112,
      "chip": "ym2612"
    },
    {
      "channel": 4,
      "note": 88,
      "start": 10.8602,
      "duration": 0.168,
      "velocity": 110,
      "chip": "ym2612"
    },
    {
      "channel": 1,
      "note": 78,
      "start": 10.938,
      "duration": 0.037,
      "velocity": 112,
      "chip": "ym2612"
    },
    {
      "channel": 2,
      "note": 73,
      "start": 10.9385,
      "duration": 0.0371,
      "velocity": 112,
      "chip": "ym2612"
    },
    {
      "channel": 3,
      "note": 70,
      "start": 10.939,
      "duration": 0.037,
      "velocity": 112,
      "chip": "ym2612"
    },
    {
      "channel": 1,
      "note": 66,
      "start": 11.0171,
      "duration": 0.0602,
      "velocity": 116,
      "chip": "ym2612"
    },
    {
      "channel": 2,
      "note": 73,
      "start": 11.0214,
      "duration": 0.0568,
      "velocity": 116,
      "chip": "ym2612"
    },
    {
      "channel": 3,
      "note": 70,
      "start": 11.0276,
      "duration": 0.0515,
      "velocity": 116,
      "chip": "ym2612"
    },
    {
      "channel": 4,
      "note": 85,
      "start": 11.0282,
      "duration": 0.2522,
      "velocity": 110,
      "chip": "ym2612"
    },
    {
      "channel": 0,
      "note": 54,
      "start": 11.1433,
      "duration": 0.2665,
      "velocity": 95,
      "chip": "ym2612"
    },
    {
      "channel": 1,
      "note": 66,
      "start": 11.1442,
      "duration": 0.0662,
      "velocity": 116,
      "chip": "ym2612"
    },
    {
      "channel": 2,
      "note": 73,
      "start": 11.1452,
      "duration": 0.0662,
      "velocity": 116,
      "chip": "ym2612"
    },
    {
      "channel": 3,
      "note": 70,
      "start": 11.1461,
      "duration": 0.0662,
      "velocity": 116,
      "chip": "ym2612"
    },
    {
      "channel": 1,
      "note": 64,
      "start": 11.2775,
      "duration": 0.0663,
      "velocity": 116,
      "chip": "ym2612"
    },
    {
      "channel": 2,
      "note": 73,
      "start": 11.2784,
      "duration": 0.0663,
      "velocity": 116,
      "chip": "ym2612"
    },
    {
      "channel": 3,
      "note": 70,
      "start": 11.2793,
      "duration": 0.0663,
      "velocity": 116,
      "chip": "ym2612"
    },
    {
      "channel": 4,
      "note": 88,
      "start": 11.2804,
      "duration": 0.2807,
      "velocity": 110,
      "chip": "ym2612"
    },
    {
      "channel": 0,
      "note": 54,
      "start": 11.4098,
      "duration": 0.1337,
      "velocity": 95,
      "chip": "ym2612"
    },
    {
      "channel": 1,
      "note": 64,
      "start": 11.4108,
      "duration": 0.0665,
      "velocity": 116,
      "chip": "ym2612"
    },
    {
      "channel": 2,
      "note": 73,
      "start": 11.4117,
      "duration": 0.0665,
      "velocity": 116,
      "chip": "ym2612"
    },
    {
      "channel": 3,
      "note": 70,
      "start": 11.4126,
      "duration": 0.0665,
      "velocity": 116,
      "chip": "ym2612"
    },
    {
      "channel": 0,
      "note": 52,
      "start": 11.5435,
      "duration": 0.0831,
      "velocity": 95,
      "chip": "ym2612"
    },
    {
      "channel": 1,
      "note": 76,
      "start": 11.5485,
      "duration": 0.1617,
      "velocity": 112,
      "chip": "ym2612"
    },
    {
      "channel": 2,
      "note": 71,
      "start": 11.5535,
      "duration": 0.1576,
      "velocity": 112,
      "chip": "ym2612"
    },
    {
      "channel": 3,
      "note": 68,
      "start": 11.5602,
      "duration": 0.1519,
      "velocity": 112,
      "chip": "ym2612"
    },
    {
      "channel": 0,
      "note": 51,
      "start": 11.6265,
      "duration": 0.0827,
      "velocity": 95,
      "chip": "ym2612"
    },
    {
      "channel": 4,
      "note": 91,
      "start": 11.6285,
      "duration": 0.252,
      "velocity": 110,
      "chip": "ym2612"
    },
    {
      "channel": 0,
      "note": 47,
      "start": 11.7093,
      "duration": 0.0814,
      "velocity": 95,
      "chip": "ym2612"
    },
    {
      "channel": 1,
      "note": 76,
      "start": 11.7102,
      "duration": 0.0809,
      "velocity": 112,
      "chip": "ym2612"
    },
    {
      "channel": 2,
      "note": 71,
      "start": 11.7111,
      "duration": 0.0804,
      "velocity": 112,
      "chip": "ym2612"
    },
    {
      "channel": 3,
      "note": 68,
      "start": 11.7121,
      "duration": 0.0799,
      "velocity": 112,
      "chip": "ym2612"
    },
    {
      "channel": 0,
      "note": 47,
      "start": 11.7907,
      "duration": 0.075,
      "velocity": 95,
      "chip": "ym2612"
    },
    {
      "channel": 1,
      "note": 76,
      "start": 11.7911,
      "duration": 0.0373,
      "velocity": 112,
      "chip": "ym2612"
    },
    {
      "channel": 2,
      "note": 71,
      "start": 11.7915,
      "duration": 0.0374,
      "velocity": 112,
      "chip": "ym2612"
    },
    {
      "channel": 3,
      "note": 68,
      "start": 11.792,
      "duration": 0.0375,
      "velocity": 112,
      "chip": "ym2612"
    },
    {
      "channel": 0,
      "note": 48,
      "start": 11.8657,
      "duration": 0.1299,
      "velocity": 95,
      "chip": "ym2612"
    },
    {
      "channel": 1,
      "note": 64,
      "start": 11.87,
      "duration": 0.0595,
      "velocity": 116,
      "chip": "ym2612"
    },
    {
      "channel": 2,
      "note": 71,
      "start": 11.8739,
      "duration": 0.0566,
      "velocity": 116,
      "chip": "ym2612"
    },
    {
      "channel": 3,
      "note": 68,
      "start": 11.8799,
      "duration": 0.0514,
      "velocity": 116,
      "chip": "ym2612"
    },
    {
      "channel": 4,
      "note": 95,
      "start": 11.8805,
      "duration": 0.2531,
      "velocity": 110,
      "chip": "ym2612"
    },
    {
      "channel": 0,
      "note": 49,
      "start": 11.9956,
      "duration": 0.1338,
      "velocity": 95,
      "chip": "ym2612"
    },
    {
      "channel": 1,
      "note": 64,
      "start": 11.9966,
      "duration": 0.0662,
      "velocity": 116,
      "chip": "ym2612"
    },
    {
      "channel": 2,
      "note": 71,
      "start": 11.9974,
      "duration": 0.0662,
      "velocity": 116,
      "chip": "ym2612"
    },
    {
      "channel": 3,
      "note": 68,
      "start": 11.9984,
      "duration": 0.0662,
      "velocity": 116,
      "chip": "ym2612"
    },
    {
      "channel": 0,
      "note": 42,
      "start": 12.1294,
      "duration": 0.0817,
      "velocity": 95,
      "chip": "ym2612"
    },
    {
      "channel": 1,
      "note": 66,
      "start": 12.1305,
      "duration": 0.0433,
      "velocity": 116,
      "chip": "ym2612"
    },
    {
      "channel": 2,
      "note": 73,
      "start": 12.1315,
      "duration": 0.0428,
      "velocity": 116,
      "chip": "ym2612"
    },
    {
      "channel": 3,
      "note": 70,
      "start": 12.1325,
      "duration": 0.0423,
      "velocity": 116,
      "chip": "ym2612"
    },
    {
      "channel": 4,
      "note": 95,
      "start": 12.1336,
      "duration": 0.1789,
      "velocity": 110,
      "chip": "ym2612"
    },
    {
      "channel": 0,
      "note": 42,
      "start": 12.2111,
      "duration": 0.0839,
      "velocity": 95,
      "chip": "ym2612"
    },
    {
      "channel": 1,
      "note": 66,
      "start": 12.2116,
      "duration": 0.0374,
      "velocity": 116,
      "chip": "ym2612"
    },
    {
      "channel": 2,
      "note": 73,
      "start": 12.2121,
      "duration": 0.0373,
      "velocity": 116,
      "chip": "ym2612"
    },
    {
      "channel": 3,
      "note": 70,
      "start": 12.2126,
      "duration": 0.0373,
      "velocity": 116,
      "chip": "ym2612"
    },
    {
      "channel": 0,
      "note": 49,
      "start": 12.2951,
      "duration": 0.1327,
      "velocity": 95,
      "chip": "ym2612"
    },
    {
      "channel": 1,
      "note": 78,
      "start": 12.3001,
      "duration": 0.2622,
      "velocity": 112,
      "chip": "ym2612"
    },
    {
      "channel": 2,
      "note": 73,
      "start": 12.3049,
      "duration": 0.2583,
      "velocity": 112,
      "chip": "ym2612"
    },
    {
      "channel": 3,
      "note": 70,
      "start": 12.3115,
      "duration": 0.2526,
      "velocity": 112,
      "chip": "ym2612"
    },
    {
      "channel": 4,
      "note": 95,
      "start": 12.3126,
      "duration": 0.2527,
      "velocity": 110,
      "chip": "ym2612"
    },
    {
      "channel": 0,
      "note": 49,
      "start": 12.4278,
      "duration": 0.1337,
      "velocity": 95,
      "chip": "ym2612"
    },
    {
      "channel": 0,
      "note": 52,
      "start": 12.5614,
      "duration": 0.0848,
      "velocity": 95,
      "chip": "ym2612"
    },
    {
      "channel": 1,
      "note": 78,
      "start": 12.5623,
      "duration": 0.0843,
      "velocity": 112,
      "chip": "ym2612"
    },
    {
      "channel": 2,
      "note": 73,
      "start": 12.5633,
      "duration": 0.0839,
      "velocity": 112,
      "chip": "ym2612"
    },
    {
      "channel": 3,
      "note": 70,
      "start": 12.5641,
      "duration": 0.0834,
      "velocity": 112,
      "chip": "ym2612"
    },
    {
      "channel": 4,
      "note": 93,
      "start": 12.5652,
      "duration": 0.171,
      "velocity": 110,
      "chip": "ym2612"
    },
    {
      "channel": 0,
      "note": 48,
      "start": 12.6462,
      "duration": 0.0748,
      "velocity": 95,
      "chip": "ym2612"
    },
    {
      "channel": 1,
      "note": 78,
      "start": 12.6466,
      "duration": 0.037,
      "velocity": 112,
      "chip": "ym2612"
    },
    {
      "channel": 2,
      "note": 73,
      "start": 12.6472,
      "duration": 0.037,
      "velocity": 112,
      "chip": "ym2612"
    },
    {
      "channel": 3,
      "note": 70,
      "start": 12.6475,
      "duration": 0.037,
      "velocity": 112,
      "chip": "ym2612"
    },
    {
      "channel": 0,
      "note": 49,
      "start": 12.721,
      "duration": 0.1273,
      "velocity": 95,
      "chip": "ym2612"
    },
    {
      "channel": 1,
      "note": 66,
      "start": 12.7254,
      "duration": 0.0568,
      "velocity": 116,
      "chip": "ym2612"
    },
    {
      "channel": 2,
      "note": 73,
      "start": 12.7294,
      "duration": 0.0536,
      "velocity": 116,
      "chip": "ym2612"
    },
    {
      "channel": 3,
      "note": 70,
      "start": 12.7357,
      "duration": 0.0483,
      "velocity": 116,
      "chip": "ym2612"
    },
    {
      "channel": 4,
      "note": 90,
      "start": 12.7363,
      "duration": 0.2493,
      "velocity": 110,
      "chip": "ym2612"
    },
    {
      "channel": 0,
      "note": 59,
      "start": 12.8482,
      "duration": 0.2667,
      "velocity": 95,
      "chip": "ym2612"
    },
    {
      "channel": 1,
      "note": 66,
      "start": 12.8491,
      "duration": 0.0663,
      "velocity": 116,
      "chip": "ym2612"
    },
    {
      "channel": 2,
      "note": 73,
      "start": 12.8501,
      "duration": 0.0663,
      "velocity": 116,
      "chip": "ym2612"
    },
    {
      "channel": 3,
      "note": 70,
      "start": 12.851,
      "duration": 0.0663,
      "velocity": 116,
      "chip": "ym2612"
    },
    {
      "channel": 1,
      "note": 64,
      "start": 12.9827,
      "duration": 0.0662,
      "velocity": 116,
      "chip": "ym2612"
    },
    {
      "channel": 2,
      "note": 73,
      "start": 12.9836,
      "duration": 0.0662,
      "velocity": 116,
      "chip": "ym2612"
    },
    {
      "channel": 3,
      "note": 70,
      "start": 12.9845,
      "duration": 0.0662,
      "velocity": 116,
      "chip": "ym2612"
    },
    {
      "channel": 4,
      "note": 91,
      "start": 12.9856,
      "duration": 0.293,
      "velocity": 110,
      "chip": "ym2612"
    },
    {
      "channel": 0,
      "note": 58,
      "start": 13.115,
      "duration": 0.0821,
      "velocity": 95,
      "chip": "ym2612"
    },
    {
      "channel": 1,
      "note": 64,
      "start": 13.1159,
      "duration": 0.0434,
      "velocity": 116,
      "chip": "ym2612"
    },
    {
      "channel": 2,
      "note": 73,
      "start": 13.1168,
      "duration": 0.0429,
      "velocity": 116,
      "chip": "ym2612"
    },
    {
      "channel": 3,
      "note": 70,
      "start": 13.1178,
      "duration": 0.0424,
      "velocity": 116,
      "chip": "ym2612"
    },
    {
      "channel": 0,
      "note": 54,
      "start": 13.197,
      "duration": 0.0797,
      "velocity": 95,
      "chip": "ym2612"
    },
    {
      "channel": 1,
      "note": 76,
      "start": 13.2012,
      "duration": 0.1593,
      "velocity": 112,
      "chip": "ym2612"
    },
    {
      "channel": 2,
      "note": 71,
      "start": 13.2055,
      "duration": 0.1559,
      "velocity": 112,
      "chip": "ym2612"
    },
    {
      "channel": 3,
      "note": 68,
      "start": 13.2118,
      "duration": 0.1506,
      "velocity": 112,
      "chip": "ym2612"
    },
    {
      "channel": 0,
      "note": 49,
      "start": 13.2767,
      "duration": 0.0829,
      "velocity": 95,
      "chip": "ym2612"
    },
    {
      "channel": 4,
      "note": 90,
      "start": 13.2786,
      "duration": 0.3184,
      "velocity": 110,
      "chip": "ym2612"
    },
    {
      "channel": 0,
      "note": 52,
      "start": 13.3596,
      "duration": 0.0818,
      "velocity": 95,
      "chip": "ym2612"
    },
    {
      "channel": 1,
      "note": 76,
      "start": 13.3605,
      "duration": 0.0813,
      "velocity": 112,
      "chip": "ym2612"
    },
    {
      "channel": 2,
      "note": 71,
      "start": 13.3614,
      "duration": 0.0808,
      "velocity": 112,
      "chip": "ym2612"
    },
    {
      "channel": 3,
      "note": 68,
      "start": 13.3624,
      "duration": 0.0804,
      "velocity": 112,
      "chip": "ym2612"
    },
    {
      "channel": 0,
      "note": 54,
      "start": 13.4414,
      "duration": 0.0744,
      "velocity": 95,
      "chip": "ym2612"
    },
    {
      "channel": 1,
      "note": 76,
      "start": 13.4418,
      "duration": 0.037,
      "velocity": 112,
      "chip": "ym2612"
    },
    {
      "channel": 2,
      "note": 71,
      "start": 13.4422,
      "duration": 0.0369,
      "velocity": 112,
      "chip": "ym2612"
    },
    {
      "channel": 3,
      "note": 68,
      "start": 13.4428,
      "duration": 0.037,
      "velocity": 112,
      "chip": "ym2612"
    },
    {
      "channel": 0,
      "note": 48,
      "start": 13.5158,
      "duration": 0.0793,
      "velocity": 95,
      "chip": "ym2612"
    },
    {
      "channel": 1,
      "note": 64,
      "start": 13.5199,
      "duration": 0.0383,
      "velocity": 116,
      "chip": "ym2612"
    },
    {
      "channel": 2,
      "note": 71,
      "start": 13.524,
      "duration": 0.0346,
      "velocity": 116,
      "chip": "ym2612"
    },
    {
      "channel": 3,
      "note": 68,
      "start": 13.5299,
      "duration": 0.0291,
      "velocity": 116,
      "chip": "ym2612"
    },
    {
      "channel": 0,
      "note": 49,
      "start": 13.5951,
      "duration": 0.0757,
      "velocity": 95,
      "chip": "ym2612"
    },
    {
      "channel": 1,
      "note": 64,
      "start": 13.5955,
      "duration": 0.0374,
      "velocity": 116,
      "chip": "ym2612"
    },
    {
      "channel": 2,
      "note": 71,
      "start": 13.5961,
      "duration": 0.0375,
      "velocity": 116,
      "chip": "ym2612"
    },
    {
      "channel": 3,
      "note": 68,
      "start": 13.5964,
      "duration": 0.0375,
      "velocity": 116,
      "chip": "ym2612"
    },
    {
      "channel": 0,
      "note": 42,
      "start": 13.6707,
      "duration": 0.0753,
      "velocity": 95,
      "chip": "ym2612"
    },
    {
      "channel": 1,
      "note": 66,
      "start": 13.6713,
      "duration": 0.0377,
      "velocity": 116,
      "chip": "ym2612"
    },
    {
      "channel": 2,
      "note": 73,
      "start": 13.672,
      "duration": 0.0375,
      "velocity": 116,
      "chip": "ym2612"
    },
    {
      "channel": 3,
      "note": 70,
      "start": 13.6725,
      "duration": 0.0374,
      "velocity": 116,
      "chip": "ym2612"
    },
    {
      "channel": 4,
      "note": 90,
      "start": 13.6731,
      "duration": 0.1747,
      "velocity": 110,
      "chip": "ym2612"
    },
    {
      "channel": 0,
      "note": 42,
      "start": 13.746,
      "duration": 0.0844,
      "velocity": 95,
      "chip": "ym2612"
    },
    {
      "channel": 1,
      "note": 66,
      "start": 13.7465,
      "duration": 0.0373,
      "velocity": 116,
      "chip": "ym2612"
    },
    {
      "channel": 2,
      "note": 73,
      "start": 13.747,
      "duration": 0.0373,
      "velocity": 116,
      "chip": "ym2612"
    },
    {
      "channel": 3,
      "note": 70,
      "start": 13.7475,
      "duration": 0.0373,
      "velocity": 116,
      "chip": "ym2612"
    },
    {
      "channel": 0,
      "note": 49,
      "start": 13.8304,
      "duration": 0.1328,
      "velocity": 95,
      "chip": "ym2612"
    },
    {
      "channel": 1,
      "note": 78,
      "start": 13.8354,
      "duration": 0.2624,
      "velocity": 112,
      "chip": "ym2612"
    },
    {
      "channel": 2,
      "note": 73,
      "start": 13.8402,
      "duration": 0.2585,
      "velocity": 112,
      "chip": "ym2612"
    },
    {
      "channel": 3,
      "note": 70,
      "start": 13.8468,
      "duration": 0.2527,
      "velocity": 112,
      "chip": "ym2612"
    },
    {
      "channel": 4,
      "note": 90,
      "start": 13.8477,
      "duration": 0.2529,
      "velocity": 110,
      "chip": "ym2612"
    },
    {
      "channel": 0,
      "note": 49,
      "start": 13.9632,
      "duration": 0.1337,
      "velocity": 95,
      "chip": "ym2612"
    },
    {
      "channel": 0,
      "note": 52,
      "start": 14.0968,
      "duration": 0.1568,
      "velocity": 95,
      "chip": "ym2612"
    },
    {
      "channel": 1,
      "note": 78,
      "start": 14.0978,
      "duration": 0.081,
      "velocity": 112,
      "chip": "ym2612"
    },
    {
      "channel": 2,
      "note": 73,
      "start": 14.0987,
      "duration": 0.0807,
      "velocity": 112,
      "chip": "ym2612"
    },
    {
      "channel": 3,
      "note": 70,
      "start": 14.0996,
      "duration": 0.0801,
      "velocity": 112,
      "chip": "ym2612"
    },
    {
      "channel": 4,
      "note": 88,
      "start": 14.1007,
      "duration": 0.168,
      "velocity": 110,
      "chip": "ym2612"
    },
    {
      "channel": 1,
      "note": 78,
      "start": 14.1788,
      "duration": 0.0375,
      "velocity": 112,
      "chip": "ym2612"
    },
    {
      "channel": 2,
      "note": 73,
      "start": 14.1793,
      "duration": 0.0374,
      "velocity": 112,
      "chip": "ym2612"
    },
    {
      "channel": 3,
      "note": 70,
      "start": 14.1797,
      "duration": 0.0375,
      "velocity": 112,
      "chip": "ym2612"
    },
    {
      "channel": 1,
      "note": 66,
      "start": 14.258,
      "duration": 0.0599,
      "velocity": 116,
      "chip": "ym2612"
    },
    {
      "channel": 2,
      "note": 73,
      "start": 14.2621,
      "duration": 0.0567,
      "velocity": 116,
      "chip": "ym2612"
    },
    {
      "channel": 3,
      "note": 70,
      "start": 14.2681,
      "duration": 0.0515,
      "velocity": 116,
      "chip": "ym2612"
    },
    {
      "channel": 4,
      "note": 85,
      "start": 14.2687,
      "duration": 0.2524,
      "velocity": 110,
      "chip": "ym2612"
    },
    {
      "channel": 0,
      "note": 54,
      "start": 14.3839,
      "duration": 0.2666,
      "velocity": 95,
      "chip": "ym2612"
    },
    {
      "channel": 1,
      "note": 66,
      "start": 14.3849,
      "duration": 0.0663,
      "velocity": 116,
      "chip": "ym2612"
    },
    {
      "channel": 2,
      "note": 73,
      "start": 14.3858,
      "duration": 0.0663,
      "velocity": 116,
      "chip": "ym2612"
    },
    {
      "channel": 3,
      "note": 70,
      "start": 14.3867,
      "duration": 0.0663,
      "velocity": 116,
      "chip": "ym2612"
    },
    {
      "channel": 1,
      "note": 64,
      "start": 14.5182,
      "duration": 0.0663,
      "velocity": 116,
      "chip": "ym2612"
    },
    {
      "channel": 2,
      "note": 73,
      "start": 14.5192,
      "duration": 0.0663,
      "velocity": 116,
      "chip": "ym2612"
    },
    {
      "channel": 3,
      "note": 70,
      "start": 14.5201,
      "duration": 0.0663,
      "velocity": 116,
      "chip": "ym2612"
    },
    {
      "channel": 4,
      "note": 88,
      "start": 14.5212,
      "duration": 0.2807,
      "velocity": 110,
      "chip": "ym2612"
    },
    {
      "channel": 0,
      "note": 54,
      "start": 14.6505,
      "duration": 0.1337,
      "velocity": 95,
      "chip": "ym2612"
    },
    {
      "channel": 1,
      "note": 64,
      "start": 14.6515,
      "duration": 0.0663,
      "velocity": 116,
      "chip": "ym2612"
    },
    {
      "channel": 2,
      "note": 73,
      "start": 14.6524,
      "duration": 0.0663,
      "velocity": 116,
      "chip": "ym2612"
    },
    {
      "channel": 3,
      "note": 70,
      "start": 14.6533,
      "duration": 0.0663,
      "velocity": 116,
      "chip": "ym2612"
    },
    {
      "channel": 0,
      "note": 52,
      "start": 14.7842,
      "duration": 0.0831,
      "velocity": 95,
      "chip": "ym2612"
    },
    {
      "channel": 1,
      "note": 76,
      "start": 14.7892,
      "duration": 0.162,
      "velocity": 112,
      "chip": "ym2612"
    },
    {
      "channel": 2,
      "note": 71,
      "start": 14.7942,
      "duration": 0.1578,
      "velocity": 112,
      "chip": "ym2612"
    },
    {
      "channel": 3,
      "note": 68,
      "start": 14.801,
      "duration": 0.152,
      "velocity": 112,
      "chip": "ym2612"
    },
    {
      "channel": 0,
      "note": 51,
      "start": 14.8673,
      "duration": 0.0829,
      "velocity": 95,
      "chip": "ym2612"
    },
    {
      "channel": 4,
      "note": 91,
      "start": 14.8692,
      "duration": 0.2525,
      "velocity": 110,
      "chip": "ym2612"
    },
    {
      "channel": 0,
      "note": 47,
      "start": 14.9502,
      "duration": 0.0812,
      "velocity": 95,
      "chip": "ym2612"
    },
    {
      "channel": 1,
      "note": 76,
      "start": 14.9512,
      "duration": 0.0808,
      "velocity": 112,
      "chip": "ym2612"
    },
    {
      "channel": 2,
      "note": 71,
      "start": 14.9521,
      "duration": 0.0803,
      "velocity": 112,
      "chip": "ym2612"
    },
    {
      "channel": 3,
      "note": 68,
      "start": 14.953,
      "duration": 0.08,
      "velocity": 112,
      "chip": "ym2612"
    },
    {
      "channel": 0,
      "note": 47,
      "start": 15.0315,
      "duration": 0.0749,
      "velocity": 95,
      "chip": "ym2612"
    },
    {
      "channel": 1,
      "note": 76,
      "start": 15.032,
      "duration": 0.037,
      "velocity": 112,
      "chip": "ym2612"
    },
    {
      "channel": 2,
      "note": 71,
      "start": 15.0325,
      "duration": 0.037,
      "velocity": 112,
      "chip": "ym2612"
    },
    {
      "channel": 3,
      "note": 68,
      "start": 15.033,
      "duration": 0.0371,
      "velocity": 112,
      "chip": "ym2612"
    },
    {
      "channel": 0,
      "note": 48,
      "start": 15.1065,
      "duration": 0.1301,
      "velocity": 95,
      "chip": "ym2612"
    },
    {
      "channel": 1,
      "note": 64,
      "start": 15.1108,
      "duration": 0.0597,
      "velocity": 116,
      "chip": "ym2612"
    },
    {
      "channel": 2,
      "note": 71,
      "start": 15.1149,
      "duration": 0.0565,
      "velocity": 116,
      "chip": "ym2612"
    },
    {
      "channel": 3,
      "note": 68,
      "start": 15.1211,
      "duration": 0.0513,
      "velocity": 116,
      "chip": "ym2612"
    },
    {
      "channel": 4,
      "note": 94,
      "start": 15.1217,
      "duration": 0.2524,
      "velocity": 110,
      "chip": "ym2612"
    },
    {
      "channel": 0,
      "note": 49,
      "start": 15.2366,
      "duration": 0.1333,
      "velocity": 95,
      "chip": "ym2612"
    },
    {
      "channel": 1,
      "note": 64,
      "start": 15.2376,
      "duration": 0.0662,
      "velocity": 116,
      "chip": "ym2612"
    },
    {
      "channel": 2,
      "note": 71,
      "start": 15.2385,
      "duration": 0.0662,
      "velocity": 116,
      "chip": "ym2612"
    },
    {
      "channel": 3,
      "note": 68,
      "start": 15.2394,
      "duration": 0.0662,
      "velocity": 116,
      "chip": "ym2612"
    },
    {
      "channel": 0,
      "note": 42,
      "start": 15.37,
      "duration": 0.0845,
      "velocity": 95,
      "chip": "ym2612"
    },
    {
      "channel": 1,
      "note": 66,
      "start": 15.3711,
      "duration": 0.046,
      "velocity": 116,
      "chip": "ym2612"
    },
    {
      "channel": 2,
      "note": 73,
      "start": 15.3722,
      "duration": 0.0454,
      "velocity": 116,
      "chip": "ym2612"
    },
    {
      "channel": 3,
      "note": 70,
      "start": 15.3732,
      "duration": 0.0448,
      "velocity": 116,
      "chip": "ym2612"
    },
    {
      "channel": 4,
      "note": 91,
      "start": 15.3742,
      "duration": 0.1799,
      "velocity": 110,
      "chip": "ym2612"
    },
    {
      "channel": 0,
      "note": 42,
      "start": 15.4545,
      "duration": 0.0823,
      "velocity": 95,
      "chip": "ym2612"
    },
    {
      "channel": 1,
      "note": 66,
      "start": 15.455,
      "duration": 0.0372,
      "velocity": 116,
      "chip": "ym2612"
    },
    {
      "channel": 2,
      "note": 73,
      "start": 15.4554,
      "duration": 0.0372,
      "velocity": 116,
      "chip": "ym2612"
    },
    {
      "channel": 3,
      "note": 70,
      "start": 15.4559,
      "duration": 0.0373,
      "velocity": 116,
      "chip": "ym2612"
    },
    {
      "channel": 0,
      "note": 49,
      "start": 15.5368,
      "duration": 0.1328,
      "velocity": 95,
      "chip": "ym2612"
    },
    {
      "channel": 1,
      "note": 78,
      "start": 15.5418,
      "duration": 0.2624,
      "velocity": 112,
      "chip": "ym2612"
    },
    {
      "channel": 2,
      "note": 73,
      "start": 15.5467,
      "duration": 0.2585,
      "velocity": 112,
      "chip": "ym2612"
    },
    {
      "channel": 3,
      "note": 70,
      "start": 15.5533,
      "duration": 0.2528,
      "velocity": 112,
      "chip": "ym2612"
    },
    {
      "channel": 4,
      "note": 90,
      "start": 15.5542,
      "duration": 0.2529,
      "velocity": 110,
      "chip": "ym2612"
    },
    {
      "channel": 0,
      "note": 49,
      "start": 15.6696,
      "duration": 0.1337,
      "velocity": 95,
      "chip": "ym2612"
    },
    {
      "channel": 0,
      "note": 52,
      "start": 15.8033,
      "duration": 0.0817,
      "velocity": 95,
      "chip": "ym2612"
    },
    {
      "channel": 1,
      "note": 78,
      "start": 15.8042,
      "duration": 0.0812,
      "velocity": 112,
      "chip": "ym2612"
    },
    {
      "channel": 2,
      "note": 73,
      "start": 15.8051,
      "duration": 0.0808,
      "velocity": 112,
      "chip": "ym2612"
    },
    {
      "channel": 3,
      "note": 70,
      "start": 15.8061,
      "duration": 0.0804,
      "velocity": 112,
      "chip": "ym2612"
    },
    {
      "channel": 4,
      "note": 88,
      "start": 15.8071,
      "duration": 0.1675,
      "velocity": 110,
      "chip": "ym2612"
    },
    {
      "channel": 0,
      "note": 48,
      "start": 15.885,
      "duration": 0.0748,
      "velocity": 95,
      "chip": "ym2612"
    },
    {
      "channel": 1,
      "note": 78,
      "start": 15.8855,
      "duration": 0.0375,
      "velocity": 112,
      "chip": "ym2612"
    },
    {
      "channel": 2,
      "note": 73,
      "start": 15.8859,
      "duration": 0.0375,
      "velocity": 112,
      "chip": "ym2612"
    },
    {
      "channel": 3,
      "note": 70,
      "start": 15.8864,
      "duration": 0.0375,
      "velocity": 112,
      "chip": "ym2612"
    },
    {
      "channel": 0,
      "note": 49,
      "start": 15.9598,
      "duration": 0.1299,
      "velocity": 95,
      "chip": "ym2612"
    },
    {
      "channel": 1,
      "note": 66,
      "start": 15.964,
      "duration": 0.0598,
      "velocity": 116,
      "chip": "ym2612"
    },
    {
      "channel": 2,
      "note": 73,
      "start": 15.9679,
      "duration": 0.0568,
      "velocity": 116,
      "chip": "ym2612"
    },
    {
      "channel": 3,
      "note": 70,
      "start": 15.9741,
      "duration": 0.0515,
      "velocity": 116,
      "chip": "ym2612"
    },
    {
      "channel": 4,
      "note": 85,
      "start": 15.9746,
      "duration": 0.2523,
      "velocity": 110,
      "chip": "ym2612"
    },
    {
      "channel": 0,
      "note": 59,
      "start": 16.0897,
      "duration": 0.2666,
      "velocity": 95,
      "chip": "ym2612"
    },
    {
      "channel": 1,
      "note": 66,
      "start": 16.0907,
      "duration": 0.0662,
      "velocity": 116,
      "chip": "ym2612"
    },
    {
      "channel": 2,
      "note": 73,
      "start": 16.0915,
      "duration": 0.0662,
      "velocity": 116,
      "chip": "ym2612"
    },
    {
      "channel": 3,
      "note": 70,
      "start": 16.0925,
      "duration": 0.0662,
      "velocity": 116,
      "chip": "ym2612"
    },
    {
      "channel": 1,
      "note": 64,
      "start": 16.224,
      "duration": 0.0662,
      "velocity": 116,
      "chip": "ym2612"
    },
    {
      "channel": 2,
      "note": 73,
      "start": 16.2249,
      "duration": 0.0662,
      "velocity": 116,
      "chip": "ym2612"
    },
    {
      "channel": 3,
      "note": 70,
      "start": 16.2259,
      "duration": 0.0661,
      "velocity": 116,
      "chip": "ym2612"
    },
    {
      "channel": 4,
      "note": 88,
      "start": 16.2269,
      "duration": 0.2284,
      "velocity": 110,
      "chip": "ym2612"
    },
    {
      "channel": 0,
      "note": 48,
      "start": 16.3563,
      "duration": 0.0845,
      "velocity": 95,
      "chip": "ym2612"
    },
    {
      "channel": 1,
      "note": 64,
      "start": 16.3573,
      "duration": 0.0463,
      "velocity": 116,
      "chip": "ym2612"
    },
    {
      "channel": 2,
      "note": 73,
      "start": 16.3582,
      "duration": 0.0459,
      "velocity": 116,
      "chip": "ym2612"
    },
    {
      "channel": 3,
      "note": 70,
      "start": 16.3591,
      "duration": 0.0454,
      "velocity": 116,
      "chip": "ym2612"
    },
    {
      "channel": 0,
      "note": 49,
      "start": 16.4409,
      "duration": 0.08,
      "velocity": 95,
      "chip": "ym2612"
    },
    {
      "channel": 1,
      "note": 76,
      "start": 16.4449,
      "duration": 0.1591,
      "velocity": 112,
      "chip": "ym2612"
    },
    {
      "channel": 2,
      "note": 71,
      "start": 16.4488,
      "duration": 0.1561,
      "velocity": 112,
      "chip": "ym2612"
    },
    {
      "channel": 3,
      "note": 68,
      "start": 16.4549,
      "duration": 0.1509,
      "velocity": 112,
      "chip": "ym2612"
    },
    {
      "channel": 0,
      "note": 58,
      "start": 16.5209,
      "duration": 0.1644,
      "velocity": 95,
      "chip": "ym2612"
    },
    {
      "channel": 4,
      "note": 88,
      "start": 16.5228,
      "duration": 0.3723,
      "velocity": 110,
      "chip": "ym2612"
    },
    {
      "channel": 1,
      "note": 76,
      "start": 16.604,
      "duration": 0.0817,
      "velocity": 112,
      "chip": "ym2612"
    },
    {
      "channel": 2,
      "note": 71,
      "start": 16.6049,
      "duration": 0.0813,
      "velocity": 112,
      "chip": "ym2612"
    },
    {
      "channel": 3,
      "note": 68,
      "start": 16.6058,
      "duration": 0.0809,
      "velocity": 112,
      "chip": "ym2612"
    },
    {
      "channel": 0,
      "note": 48,
      "start": 16.6853,
      "duration": 0.0757,
      "velocity": 95,
      "chip": "ym2612"
    },
    {
      "channel": 1,
      "note": 76,
      "start": 16.6857,
      "duration": 0.0377,
      "velocity": 112,
      "chip": "ym2612"
    },
    {
      "channel": 2,
      "note": 71,
      "start": 16.6862,
      "duration": 0.0377,
      "velocity": 112,
      "chip": "ym2612"
    },
    {
      "channel": 3,
      "note": 68,
      "start": 16.6867,
      "duration": 0.0376,
      "velocity": 112,
      "chip": "ym2612"
    },
    {
      "channel": 0,
      "note": 49,
      "start": 16.7611,
      "duration": 0.1301,
      "velocity": 95,
      "chip": "ym2612"
    },
    {
      "channel": 1,
      "note": 64,
      "start": 16.7654,
      "duration": 0.0598,
      "velocity": 116,
      "chip": "ym2612"
    },
    {
      "channel": 2,
      "note": 71,
      "start": 16.7696,
      "duration": 0.0566,
      "velocity": 116,
      "chip": "ym2612"
    },
    {
      "channel": 3,
      "note": 68,
      "start": 16.7756,
      "duration": 0.0515,
      "velocity": 116,
      "chip": "ym2612"
    },
    {
      "channel": 0,
      "note": 56,
      "start": 16.8912,
      "duration": 0.1335,
      "velocity": 95,
      "chip": "ym2612"
    },
    {
      "channel": 1,
      "note": 64,
      "start": 16.8921,
      "duration": 0.0665,
      "velocity": 116,
      "chip": "ym2612"
    },
    {
      "channel": 2,
      "note": 71,
      "start": 16.8931,
      "duration": 0.0665,
      "velocity": 116,
      "chip": "ym2612"
    },
    {
      "channel": 3,
      "note": 68,
      "start": 16.894,
      "duration": 0.0665,
      "velocity": 116,
      "chip": "ym2612"
    },
    {
      "channel": 0,
      "note": 42,
      "start": 17.0248,
      "duration": 0.0808,
      "velocity": 95,
      "chip": "ym2612"
    },
    {
      "channel": 1,
      "note": 66,
      "start": 17.0258,
      "duration": 0.0429,
      "velocity": 116,
      "chip": "ym2612"
    },
    {
      "channel": 2,
      "note": 73,
      "start": 17.0268,
      "duration": 0.0424,
      "velocity": 116,
      "chip": "ym2612"
    },
    {
      "channel": 3,
      "note": 70,
      "start": 17.0279,
      "duration": 0.0417,
      "velocity": 116,
      "chip": "ym2612"
    },
    {
      "channel": 4,
      "note": 89,
      "start": 17.029,
      "duration": 0.1781,
      "velocity": 110,
      "chip": "ym2612"
    },
    {
      "channel": 0,
      "note": 42,
      "start": 17.1056,
      "duration": 0.0841,
      "velocity": 95,
      "chip": "ym2612"
    },
    {
      "channel": 1,
      "note": 66,
      "start": 17.1061,
      "duration": 0.0371,
      "velocity": 116,
      "chip": "ym2612"
    },
    {
      "channel": 2,
      "note": 73,
      "start": 17.1065,
      "duration": 0.0371,
      "velocity": 116,
      "chip": "ym2612"
    },
    {
      "channel": 3,
      "note": 70,
      "start": 17.107,
      "duration": 0.0372,
      "velocity": 116,
      "chip": "ym2612"
    },
    {
      "channel": 0,
      "note": 49,
      "start": 17.1897,
      "duration": 0.1329,
      "velocity": 95,
      "chip": "ym2612"
    },
    {
      "channel": 1,
      "note": 78,
      "start": 17.1947,
      "duration": 0.2625,
      "velocity": 112,
      "chip": "ym2612"
    },
    {
      "channel": 2,
      "note": 73,
      "start": 17.1996,
      "duration": 0.2585,
      "velocity": 112,
      "chip": "ym2612"
    },
    {
      "channel": 3,
      "note": 70,
      "start": 17.2062,
      "duration": 0.2529,
      "velocity": 112,
      "chip": "ym2612"
    },
    {
      "channel": 4,
      "note": 90,
      "start": 17.2071,
      "duration": 0.2531,
      "velocity": 110,
      "chip": "ym2612"
    },
    {
      "channel": 0,
      "note": 49,
      "start": 17.3227,
      "duration": 0.1336,
      "velocity": 95,
      "chip": "ym2612"
    },
    {
      "channel": 0,
      "note": 52,
      "start": 17.4563,
      "duration": 0.1561,
      "velocity": 95,
      "chip": "ym2612"
    },
    {
      "channel": 1,
      "note": 78,
      "start": 17.4572,
      "duration": 0.0807,
      "velocity": 112,
      "chip": "ym2612"
    },
    {
      "channel": 2,
      "note": 73,
      "start": 17.4581,
      "duration": 0.0802,
      "velocity": 112,
      "chip": "ym2612"
    },
    {
      "channel": 3,
      "note": 70,
      "start": 17.4591,
      "duration": 0.0798,
      "velocity": 112,
      "chip": "ym2612"
    },
    {
      "channel": 4,
      "note": 88,
      "start": 17.4601,
      "duration": 0.1667,
      "velocity": 110,
      "chip": "ym2612"
    },
    {
      "channel": 1,
      "note": 78,
      "start": 17.5379,
      "duration": 0.0374,
      "velocity": 112,
      "chip": "ym2612"
    },
    {
      "channel": 2,
      "note": 73,
      "start": 17.5383,
      "duration": 0.0375,
      "velocity": 112,
      "chip": "ym2612"
    },
    {
      "channel": 3,
      "note": 70,
      "start": 17.5388,
      "duration": 0.0375,
      "velocity": 112,
      "chip": "ym2612"
    },
    {
      "channel": 1,
      "note": 66,
      "start": 17.6166,
      "duration": 0.0592,
      "velocity": 116,
      "chip": "ym2612"
    },
    {
      "channel": 2,
      "note": 73,
      "start": 17.6203,
      "duration": 0.0564,
      "velocity": 116,
      "chip": "ym2612"
    },
    {
      "channel": 3,
      "note": 70,
      "start": 17.6263,
      "duration": 0.0514,
      "velocity": 116,
      "chip": "ym2612"
    },
    {
      "channel": 4,
      "note": 85,
      "start": 17.6268,
      "duration": 0.2523,
      "velocity": 110,
      "chip": "ym2612"
    },
    {
      "channel": 0,
      "note": 54,
      "start": 17.7419,
      "duration": 0.2667,
      "velocity": 95,
      "chip": "ym2612"
    },
    {
      "channel": 1,
      "note": 66,
      "start": 17.7429,
      "duration": 0.0663,
      "velocity": 116,
      "chip": "ym2612"
    },
    {
      "channel": 2,
      "note": 73,
      "start": 17.7437,
      "duration": 0.0663,
      "velocity": 116,
      "chip": "ym2612"
    },
    {
      "channel": 3,
      "note": 70,
      "start": 17.7447,
      "duration": 0.0663,
      "velocity": 116,
      "chip": "ym2612"
    },
    {
      "channel": 1,
      "note": 64,
      "start": 17.8763,
      "duration": 0.0663,
      "velocity": 116,
      "chip": "ym2612"
    },
    {
      "channel": 2,
      "note": 73,
      "start": 17.8771,
      "duration": 0.0663,
      "velocity": 116,
      "chip": "ym2612"
    },
    {
      "channel": 3,
      "note": 70,
      "start": 17.8781,
      "duration": 0.0663,
      "velocity": 116,
      "chip": "ym2612"
    },
    {
      "channel": 4,
      "note": 88,
      "start": 17.8791,
      "duration": 0.2806,
      "velocity": 110,
      "chip": "ym2612"
    },
    {
      "channel": 0,
      "note": 54,
      "start": 18.0086,
      "duration": 0.1334,
      "velocity": 95,
      "chip": "ym2612"
    },
    {
      "channel": 1,
      "note": 64,
      "start": 18.0095,
      "duration": 0.0665,
      "velocity": 116,
      "chip": "ym2612"
    },
    {
      "channel": 2,
      "note": 73,
      "start": 18.0104,
      "duration": 0.0665,
      "velocity": 116,
      "chip": "ym2612"
    },
    {
      "channel": 3,
      "note": 70,
      "start": 18.0113,
      "duration": 0.0665,
      "velocity": 116,
      "chip": "ym2612"
    },
    {
      "channel": 0,
      "note": 52,
      "start": 18.1421,
      "duration": 0.0834,
      "velocity": 95,
      "chip": "ym2612"
    },
    {
      "channel": 1,
      "note": 76,
      "start": 18.1471,
      "duration": 0.162,
      "velocity": 112,
      "chip": "ym2612"
    },
    {
      "channel": 2,
      "note": 71,
      "start": 18.1521,
      "duration": 0.158,
      "velocity": 112,
      "chip": "ym2612"
    },
    {
      "channel": 3,
      "note": 68,
      "start": 18.1588,
      "duration": 0.1521,
      "velocity": 112,
      "chip": "ym2612"
    },
    {
      "channel": 0,
      "note": 51,
      "start": 18.2254,
      "duration": 0.0828,
      "velocity": 95,
      "chip": "ym2612"
    },
    {
      "channel": 4,
      "note": 91,
      "start": 18.2274,
      "duration": 0.2524,
      "velocity": 110,
      "chip": "ym2612"
    },
    {
      "channel": 0,
      "note": 47,
      "start": 18.3082,
      "duration": 0.0814,
      "velocity": 95,
      "chip": "ym2612"
    },
    {
      "channel": 1,
      "note": 76,
      "start": 18.3092,
      "duration": 0.081,
      "velocity": 112,
      "chip": "ym2612"
    },
    {
      "channel": 2,
      "note": 71,
      "start": 18.3101,
      "duration": 0.0806,
      "velocity": 112,
      "chip": "ym2612"
    },
    {
      "channel": 3,
      "note": 68,
      "start": 18.311,
      "duration": 0.0801,
      "velocity": 112,
      "chip": "ym2612"
    },
    {
      "channel": 0,
      "note": 47,
      "start": 18.3896,
      "duration": 0.0756,
      "velocity": 95,
      "chip": "ym2612"
    },
    {
      "channel": 1,
      "note": 76,
      "start": 18.3902,
      "duration": 0.0374,
      "velocity": 112,
      "chip": "ym2612"
    },
    {
      "channel": 2,
      "note": 71,
      "start": 18.3907,
      "duration": 0.0374,
      "velocity": 112,
      "chip": "ym2612"
    },
    {
      "channel": 3,
      "note": 68,
      "start": 18.391,
      "duration": 0.0375,
      "velocity": 112,
      "chip": "ym2612"
    },
    {
      "channel": 0,
      "note": 48,
      "start": 18.4652,
      "duration": 0.1297,
      "velocity": 95,
      "chip": "ym2612"
    },
    {
      "channel": 1,
      "note": 64,
      "start": 18.4693,
      "duration": 0.0597,
      "velocity": 116,
      "chip": "ym2612"
    },
    {
      "channel": 2,
      "note": 71,
      "start": 18.4732,
      "duration": 0.0566,
      "velocity": 116,
      "chip": "ym2612"
    },
    {
      "channel": 3,
      "note": 68,
      "start": 18.4793,
      "duration": 0.0515,
      "velocity": 116,
      "chip": "ym2612"
    },
    {
      "channel": 4,
      "note": 95,
      "start": 18.4798,
      "duration": 0.253,
      "velocity": 110,
      "chip": "ym2612"
    },
    {
      "channel": 0,
      "note": 49,
      "start": 18.5949,
      "duration": 0.1338,
      "velocity": 95,
      "chip": "ym2612"
    },
    {
      "channel": 1,
      "note": 64,
      "start": 18.5959,
      "duration": 0.0663,
      "velocity": 116,
      "chip": "ym2612"
    },
    {
      "channel": 2,
      "note": 71,
      "start": 18.5967,
      "duration": 0.0663,
      "velocity": 116,
      "chip": "ym2612"
    },
    {
      "channel": 3,
      "note": 68,
      "start": 18.5977,
      "duration": 0.0663,
      "velocity": 116,
      "chip": "ym2612"
    },
    {
      "channel": 0,
      "note": 42,
      "start": 18.7287,
      "duration": 0.0817,
      "velocity": 95,
      "chip": "ym2612"
    },
    {
      "channel": 1,
      "note": 66,
      "start": 18.7298,
      "duration": 0.043,
      "velocity": 116,
      "chip": "ym2612"
    },
    {
      "channel": 2,
      "note": 73,
      "start": 18.7308,
      "duration": 0.0424,
      "velocity": 116,
      "chip": "ym2612"
    },
    {
      "channel": 3,
      "note": 70,
      "start": 18.7319,
      "duration": 0.0418,
      "velocity": 116,
      "chip": "ym2612"
    },
    {
      "channel": 4,
      "note": 95,
      "start": 18.7329,
      "duration": 0.1795,
      "velocity": 110,
      "chip": "ym2612"
    },
    {
      "channel": 0,
      "note": 42,
      "start": 18.8104,
      "duration": 0.0844,
      "velocity": 95,
      "chip": "ym2612"
    },
    {
      "channel": 1,
      "note": 66,
      "start": 18.8108,
      "duration": 0.0378,
      "velocity": 116,
      "chip": "ym2612"
    },
    {
      "channel": 2,
      "note": 73,
      "start": 18.8114,
      "duration": 0.0377,
      "velocity": 116,
      "chip": "ym2612"
    },
    {
      "channel": 3,
      "note": 70,
      "start": 18.8119,
      "duration": 0.0376,
      "velocity": 116,
      "chip": "ym2612"
    },
    {
      "channel": 0,
      "note": 49,
      "start": 18.8948,
      "duration": 0.1329,
      "velocity": 95,
      "chip": "ym2612"
    },
    {
      "channel": 1,
      "note": 78,
      "start": 18.8998,
      "duration": 0.2624,
      "velocity": 112,
      "chip": "ym2612"
    },
    {
      "channel": 2,
      "note": 73,
      "start": 18.9047,
      "duration": 0.2584,
      "velocity": 112,
      "chip": "ym2612"
    },
    {
      "channel": 3,
      "note": 70,
      "start": 18.9113,
      "duration": 0.2528,
      "velocity": 112,
      "chip": "ym2612"
    },
    {
      "channel": 4,
      "note": 95,
      "start": 18.9124,
      "duration": 0.2527,
      "velocity": 110,
      "chip": "ym2612"
    },
    {
      "channel": 0,
      "note": 49,
      "start": 19.0277,
      "duration": 0.1336,
      "velocity": 95,
      "chip": "ym2612"
    },
    {
      "channel": 0,
      "note": 52,
      "start": 19.1614,
      "duration": 0.0818,
      "velocity": 95,
      "chip": "ym2612"
    },
    {
      "channel": 1,
      "note": 78,
      "start": 19.1623,
      "duration": 0.0813,
      "velocity": 112,
      "chip": "ym2612"
    },
    {
      "channel": 2,
      "note": 73,
      "start": 19.1632,
      "duration": 0.0808,
      "velocity": 112,
      "chip": "ym2612"
    },
    {
      "channel": 3,
      "note": 70,
      "start": 19.1641,
      "duration": 0.0805,
      "velocity": 112,
      "chip": "ym2612"
    },
    {
      "channel": 4,
      "note": 93,
      "start": 19.1652,
      "duration": 0.168,
      "velocity": 110,
      "chip": "ym2612"
    },
    {
      "channel": 0,
      "note": 48,
      "start": 19.2432,
      "duration": 0.0749,
      "velocity": 95,
      "chip": "ym2612"
    },
    {
      "channel": 1,
      "note": 78,
      "start": 19.2436,
      "duration": 0.0373,
      "velocity": 112,
      "chip": "ym2612"
    },
    {
      "channel": 2,
      "note": 73,
      "start": 19.2441,
      "duration": 0.0373,
      "velocity": 112,
      "chip": "ym2612"
    },
    {
      "channel": 3,
      "note": 70,
      "start": 19.2446,
      "duration": 0.0374,
      "velocity": 112,
      "chip": "ym2612"
    },
    {
      "channel": 0,
      "note": 49,
      "start": 19.3181,
      "duration": 0.1301,
      "velocity": 95,
      "chip": "ym2612"
    },
    {
      "channel": 1,
      "note": 66,
      "start": 19.3223,
      "duration": 0.0597,
      "velocity": 116,
      "chip": "ym2612"
    },
    {
      "channel": 2,
      "note": 73,
      "start": 19.3266,
      "duration": 0.0565,
      "velocity": 116,
      "chip": "ym2612"
    },
    {
      "channel": 3,
      "note": 70,
      "start": 19.3325,
      "duration": 0.0514,
      "velocity": 116,
      "chip": "ym2612"
    },
    {
      "channel": 4,
      "note": 90,
      "start": 19.3332,
      "duration": 0.2523,
      "velocity": 110,
      "chip": "ym2612"
    },
    {
      "channel": 0,
      "note": 59,
      "start": 19.4482,
      "duration": 0.2666,
      "velocity": 95,
      "chip": "ym2612"
    },
    {
      "channel": 1,
      "note": 66,
      "start": 19.4491,
      "duration": 0.0662,
      "velocity": 116,
      "chip": "ym2612"
    },
    {
      "channel": 2,
      "note": 73,
      "start": 19.4501,
      "duration": 0.0662,
      "velocity": 116,
      "chip": "ym2612"
    },
    {
      "channel": 3,
      "note": 70,
      "start": 19.451,
      "duration": 0.0662,
      "velocity": 116,
      "chip": "ym2612"
    },
    {
      "channel": 1,
      "note": 64,
      "start": 19.5826,
      "duration": 0.0662,
      "velocity": 116,
      "chip": "ym2612"
    },
    {
      "channel": 2,
      "note": 73,
      "start": 19.5835,
      "duration": 0.0662,
      "velocity": 116,
      "chip": "ym2612"
    },
    {
      "channel": 3,
      "note": 70,
      "start": 19.5845,
      "duration": 0.0662,
      "velocity": 116,
      "chip": "ym2612"
    },
    {
      "channel": 4,
      "note": 91,
      "start": 19.5856,
      "duration": 0.2923,
      "velocity": 110,
      "chip": "ym2612"
    },
    {
      "channel": 0,
      "note": 58,
      "start": 19.7148,
      "duration": 0.0814,
      "velocity": 95,
      "chip": "ym2612"
    },
    {
      "channel": 1,
      "note": 64,
      "start": 19.7158,
      "duration": 0.0432,
      "velocity": 116,
      "chip": "ym2612"
    },
    {
      "channel": 2,
      "note": 73,
      "start": 19.7167,
      "duration": 0.0427,
      "velocity": 116,
      "chip": "ym2612"
    },
    {
      "channel": 3,
      "note": 70,
      "start": 19.7176,
      "duration": 0.0424,
      "velocity": 116,
      "chip": "ym2612"
    },
    {
      "channel": 0,
      "note": 54,
      "start": 19.7962,
      "duration": 0.0798,
      "velocity": 95,
      "chip": "ym2612"
    },
    {
      "channel": 1,
      "note": 76,
      "start": 19.8003,
      "duration": 0.159,
      "velocity": 112,
      "chip": "ym2612"
    },
    {
      "channel": 2,
      "note": 71,
      "start": 19.8043,
      "duration": 0.1559,
      "velocity": 112,
      "chip": "ym2612"
    },
    {
      "channel": 3,
      "note": 68,
      "start": 19.8105,
      "duration": 0.1506,
      "velocity": 112,
      "chip": "ym2612"
    },
    {
      "channel": 0,
      "note": 49,
      "start": 19.876,
      "duration": 0.0824,
      "velocity": 95,
      "chip": "ym2612"
    },
    {
      "channel": 4,
      "note": 90,
      "start": 19.8779,
      "duration": 0.3208,
      "velocity": 110,
      "chip": "ym2612"
    },
    {
      "channel": 0,
      "note": 52,
      "start": 19.9583,
      "duration": 0.0842,
      "velocity": 95,
      "chip": "ym2612"
    },
    {
      "channel": 1,
      "note": 76,
      "start": 19.9593,
      "duration": 0.0837,
      "velocity": 112,
      "chip": "ym2612"
    },
    {
      "channel": 2,
      "note": 71,
      "start": 19.9602,
      "duration": 0.0832,
      "velocity": 112,
      "chip": "ym2612"
    },
    {
      "channel": 3,
      "note": 68,
      "start": 19.9612,
      "duration": 0.0828,
      "velocity": 112,
      "chip": "ym2612"
    },
    {
      "channel": 0,
      "note": 54,
      "start": 20.0425,
      "duration": 0.0746,
      "velocity": 95,
      "chip": "ym2612"
    },
    {
      "channel": 1,
      "note": 76,
      "start": 20.043,
      "duration": 0.0371,
      "velocity": 112,
      "chip": "ym2612"
    },
    {
      "channel": 2,
      "note": 71,
      "start": 20.0434,
      "duration": 0.0371,
      "velocity": 112,
      "chip": "ym2612"
    },
    {
      "channel": 3,
      "note": 68,
      "start": 20.044,
      "duration": 0.037,
      "velocity": 112,
      "chip": "ym2612"
    },
    {
      "channel": 0,
      "note": 48,
      "start": 20.1172,
      "duration": 0.0796,
      "velocity": 95,
      "chip": "ym2612"
    },
    {
      "channel": 1,
      "note": 64,
      "start": 20.1213,
      "duration": 0.0379,
      "velocity": 116,
      "chip": "ym2612"
    },
    {
      "channel": 2,
      "note": 71,
      "start": 20.1252,
      "duration": 0.0346,
      "velocity": 116,
      "chip": "ym2612"
    },
    {
      "channel": 3,
      "note": 68,
      "start": 20.1314,
      "duration": 0.0288,
      "velocity": 116,
      "chip": "ym2612"
    },
    {
      "channel": 0,
      "note": 49,
      "start": 20.1968,
      "duration": 0.0749,
      "velocity": 95,
      "chip": "ym2612"
    },
    {
      "channel": 1,
      "note": 64,
      "start": 20.1972,
      "duration": 0.037,
      "velocity": 116,
      "chip": "ym2612"
    },
    {
      "channel": 2,
      "note": 71,
      "start": 20.1977,
      "duration": 0.0369,
      "velocity": 116,
      "chip": "ym2612"
    },
    {
      "channel": 3,
      "note": 68,
      "start": 20.1983,
      "duration": 0.0369,
      "velocity": 116,
      "chip": "ym2612"
    },
    {
      "channel": 0,
      "note": 42,
      "start": 20.2716,
      "duration": 0.0779,
      "velocity": 95,
      "chip": "ym2612"
    },
    {
      "channel": 1,
      "note": 66,
      "start": 20.2723,
      "duration": 0.0401,
      "velocity": 116,
      "chip": "ym2612"
    },
    {
      "channel": 2,
      "note": 73,
      "start": 20.2729,
      "duration": 0.0399,
      "velocity": 116,
      "chip": "ym2612"
    },
    {
      "channel": 3,
      "note": 70,
      "start": 20.2736,
      "duration": 0.0398,
      "velocity": 116,
      "chip": "ym2612"
    },
    {
      "channel": 4,
      "note": 86,
      "start": 20.2778,
      "duration": 0.4262,
      "velocity": 101,
      "chip": "ym2612"
    },
    {
      "channel": 0,
      "note": 42,
      "start": 20.3495,
      "duration": 0.0841,
      "velocity": 95,
      "chip": "ym2612"
    },
    {
      "channel": 1,
      "note": 66,
      "start": 20.35,
      "duration": 0.0374,
      "velocity": 116,
      "chip": "ym2612"
    },
    {
      "channel": 2,
      "note": 73,
      "start": 20.3505,
      "duration": 0.0375,
      "velocity": 116,
      "chip": "ym2612"
    },
    {
      "channel": 3,
      "note": 70,
      "start": 20.3509,
      "duration": 0.0375,
      "velocity": 116,
      "chip": "ym2612"
    },
    {
      "channel": 0,
      "note": 49,
      "start": 20.4336,
      "duration": 0.1329,
      "velocity": 95,
      "chip": "ym2612"
    },
    {
      "channel": 1,
      "note": 78,
      "start": 20.4387,
      "duration": 0.2625,
      "velocity": 112,
      "chip": "ym2612"
    },
    {
      "channel": 2,
      "note": 73,
      "start": 20.4436,
      "duration": 0.2586,
      "velocity": 112,
      "chip": "ym2612"
    },
    {
      "channel": 3,
      "note": 70,
      "start": 20.4501,
      "duration": 0.2529,
      "velocity": 112,
      "chip": "ym2612"
    },
    {
      "channel": 0,
      "note": 49,
      "start": 20.5665,
      "duration": 0.1338,
      "velocity": 95,
      "chip": "ym2612"
    },
    {
      "channel": 0,
      "note": 52,
      "start": 20.7003,
      "duration": 0.156,
      "velocity": 95,
      "chip": "ym2612"
    },
    {
      "channel": 1,
      "note": 78,
      "start": 20.7012,
      "duration": 0.0806,
      "velocity": 112,
      "chip": "ym2612"
    },
    {
      "channel": 2,
      "note": 73,
      "start": 20.7021,
      "duration": 0.0801,
      "velocity": 112,
      "chip": "ym2612"
    },
    {
      "channel": 3,
      "note": 70,
      "start": 20.703,
      "duration": 0.0797,
      "velocity": 112,
      "chip": "ym2612"
    },
    {
      "channel": 1,
      "note": 78,
      "start": 20.7817,
      "duration": 0.0377,
      "velocity": 112,
      "chip": "ym2612"
    },
    {
      "channel": 2,
      "note": 73,
      "start": 20.7823,
      "duration": 0.0376,
      "velocity": 112,
      "chip": "ym2612"
    },
    {
      "channel": 3,
      "note": 70,
      "start": 20.7828,
      "duration": 0.0376,
      "velocity": 112,
      "chip": "ym2612"
    },
    {
      "channel": 4,
      "note": 86,
      "start": 20.7834,
      "duration": 0.0878,
      "velocity": 101,
      "chip": "ym2612"
    },
    {
      "channel": 1,
      "note": 66,
      "start": 20.8605,
      "duration": 0.0597,
      "velocity": 116,
      "chip": "ym2612"
    },
    {
      "channel": 2,
      "note": 73,
      "start": 20.8646,
      "duration": 0.0564,
      "velocity": 116,
      "chip": "ym2612"
    },
    {
      "channel": 3,
      "note": 70,
      "start": 20.8705,
      "duration": 0.0515,
      "velocity": 116,
      "chip": "ym2612"
    },
    {
      "channel": 4,
      "note": 87,
      "start": 20.8712,
      "duration": 0.1189,
      "velocity": 101,
      "chip": "ym2612"
    },
    {
      "channel": 0,
      "note": 54,
      "start": 20.9862,
      "duration": 0.2666,
      "velocity": 95,
      "chip": "ym2612"
    },
    {
      "channel": 1,
      "note": 66,
      "start": 20.9871,
      "duration": 0.0663,
      "velocity": 116,
      "chip": "ym2612"
    },
    {
      "channel": 2,
      "note": 73,
      "start": 20.9881,
      "duration": 0.0663,
      "velocity": 116,
      "chip": "ym2612"
    },
    {
      "channel": 3,
      "note": 70,
      "start": 20.989,
      "duration": 0.0663,
      "velocity": 116,
      "chip": "ym2612"
    },
    {
      "channel": 4,
      "note": 88,
      "start": 20.99,
      "duration": 0.1332,
      "velocity": 101,
      "chip": "ym2612"
    },
    {
      "channel": 1,
      "note": 64,
      "start": 21.1205,
      "duration": 0.0662,
      "velocity": 116,
      "chip": "ym2612"
    },
    {
      "channel": 2,
      "note": 73,
      "start": 21.1215,
      "duration": 0.0661,
      "velocity": 116,
      "chip": "ym2612"
    },
    {
      "channel": 3,
      "note": 70,
      "start": 21.1224,
      "duration": 0.0662,
      "velocity": 116,
      "chip": "ym2612"
    },
    {
      "channel": 0,
      "note": 54,
      "start": 21.2528,
      "duration": 0.1337,
      "velocity": 95,
      "chip": "ym2612"
    },
    {
      "channel": 1,
      "note": 64,
      "start": 21.2538,
      "duration": 0.0663,
      "velocity": 116,
      "chip": "ym2612"
    },
    {
      "channel": 2,
      "note": 73,
      "start": 21.2547,
      "duration": 0.0663,
      "velocity": 116,
      "chip": "ym2612"
    },
    {
      "channel": 3,
      "note": 70,
      "start": 21.2556,
      "duration": 0.0663,
      "velocity": 116,
      "chip": "ym2612"
    },
    {
      "channel": 4,
      "note": 88,
      "start": 21.2565,
      "duration": 0.1477,
      "velocity": 101,
      "chip": "ym2612"
    },
    {
      "channel": 0,
      "note": 52,
      "start": 21.3865,
      "duration": 0.0832,
      "velocity": 95,
      "chip": "ym2612"
    },
    {
      "channel": 1,
      "note": 76,
      "start": 21.3915,
      "duration": 0.1619,
      "velocity": 112,
      "chip": "ym2612"
    },
    {
      "channel": 2,
      "note": 71,
      "start": 21.3965,
      "duration": 0.1577,
      "velocity": 112,
      "chip": "ym2612"
    },
    {
      "channel": 3,
      "note": 68,
      "start": 21.4032,
      "duration": 0.152,
      "velocity": 112,
      "chip": "ym2612"
    },
    {
      "channel": 4,
      "note": 87,
      "start": 21.4043,
      "duration": 0.0673,
      "velocity": 101,
      "chip": "ym2612"
    },
    {
      "channel": 0,
      "note": 51,
      "start": 21.4697,
      "duration": 0.0827,
      "velocity": 95,
      "chip": "ym2612"
    },
    {
      "channel": 4,
      "note": 85,
      "start": 21.4716,
      "duration": 0.0846,
      "velocity": 101,
      "chip": "ym2612"
    },
    {
      "channel": 0,
      "note": 47,
      "start": 21.5524,
      "duration": 0.0814,
      "velocity": 95,
      "chip": "ym2612"
    },
    {
      "channel": 1,
      "note": 76,
      "start": 21.5534,
      "duration": 0.0809,
      "velocity": 112,
      "chip": "ym2612"
    },
    {
      "channel": 2,
      "note": 71,
      "start": 21.5543,
      "duration": 0.0804,
      "velocity": 112,
      "chip": "ym2612"
    },
    {
      "channel": 3,
      "note": 68,
      "start": 21.5552,
      "duration": 0.08,
      "velocity": 112,
      "chip": "ym2612"
    },
    {
      "channel": 4,
      "note": 87,
      "start": 21.5562,
      "duration": 0.0795,
      "velocity": 101,
      "chip": "ym2612"
    },
    {
      "channel": 0,
      "note": 47,
      "start": 21.6338,
      "duration": 0.0752,
      "velocity": 95,
      "chip": "ym2612"
    },
    {
      "channel": 1,
      "note": 76,
      "start": 21.6343,
      "duration": 0.0377,
      "velocity": 112,
      "chip": "ym2612"
    },
    {
      "channel": 2,
      "note": 71,
      "start": 21.6346,
      "duration": 0.0377,
      "velocity": 112,
      "chip": "ym2612"
    },
    {
      "channel": 3,
      "note": 68,
      "start": 21.6352,
      "duration": 0.0378,
      "velocity": 112,
      "chip": "ym2612"
    },
    {
      "channel": 4,
      "note": 87,
      "start": 21.6357,
      "duration": 0.0876,
      "velocity": 101,
      "chip": "ym2612"
    },
    {
      "channel": 0,
      "note": 48,
      "start": 21.709,
      "duration": 0.1294,
      "velocity": 95,
      "chip": "ym2612"
    },
    {
      "channel": 1,
      "note": 64,
      "start": 21.713,
      "duration": 0.0592,
      "velocity": 116,
      "chip": "ym2612"
    },
    {
      "channel": 2,
      "note": 71,
      "start": 21.7168,
      "duration": 0.0564,
      "velocity": 116,
      "chip": "ym2612"
    },
    {
      "channel": 3,
      "note": 68,
      "start": 21.7228,
      "duration": 0.0513,
      "velocity": 116,
      "chip": "ym2612"
    },
    {
      "channel": 4,
      "note": 85,
      "start": 21.7234,
      "duration": 0.1188,
      "velocity": 101,
      "chip": "ym2612"
    },
    {
      "channel": 0,
      "note": 49,
      "start": 21.8383,
      "duration": 0.1334,
      "velocity": 95,
      "chip": "ym2612"
    },
    {
      "channel": 1,
      "note": 64,
      "start": 21.8393,
      "duration": 0.0663,
      "velocity": 116,
      "chip": "ym2612"
    },
    {
      "channel": 2,
      "note": 71,
      "start": 21.8402,
      "duration": 0.0663,
      "velocity": 116,
      "chip": "ym2612"
    },
    {
      "channel": 3,
      "note": 68,
      "start": 21.8411,
      "duration": 0.0663,
      "velocity": 116,
      "chip": "ym2612"
    },
    {
      "channel": 4,
      "note": 83,
      "start": 21.8422,
      "duration": 0.1338,
      "velocity": 101,
      "chip": "ym2612"
    },
    {
      "channel": 0,
      "note": 42,
      "start": 21.9717,
      "duration": 0.0817,
      "velocity": 95,
      "chip": "ym2612"
    },
    {
      "channel": 1,
      "note": 66,
      "start": 21.9728,
      "duration": 0.0434,
      "velocity": 116,
      "chip": "ym2612"
    },
    {
      "channel": 2,
      "note": 73,
      "start": 21.9738,
      "duration": 0.0429,
      "velocity": 116,
      "chip": "ym2612"
    },
    {
      "channel": 3,
      "note": 70,
      "start": 21.9749,
      "duration": 0.0424,
      "velocity": 116,
      "chip": "ym2612"
    },
    {
      "channel": 4,
      "note": 82,
      "start": 21.9759,
      "duration": 0.0796,
      "velocity": 101,
      "chip": "ym2612"
    },
    {
      "channel": 0,
      "note": 42,
      "start": 22.0535,
      "duration": 0.084,
      "velocity": 95,
      "chip": "ym2612"
    },
    {
      "channel": 1,
      "note": 66,
      "start": 22.0539,
      "duration": 0.0375,
      "velocity": 116,
      "chip": "ym2612"
    },
    {
      "channel": 2,
      "note": 73,
      "start": 22.0544,
      "duration": 0.0375,
      "velocity": 116,
      "chip": "ym2612"
    },
    {
      "channel": 3,
      "note": 70,
      "start": 22.0549,
      "duration": 0.0375,
      "velocity": 116,
      "chip": "ym2612"
    },
    {
      "channel": 4,
      "note": 82,
      "start": 22.0556,
      "duration": 0.0995,
      "velocity": 101,
      "chip": "ym2612"
    },
    {
      "channel": 0,
      "note": 49,
      "start": 22.1375,
      "duration": 0.1328,
      "velocity": 95,
      "chip": "ym2612"
    },
    {
      "channel": 1,
      "note": 78,
      "start": 22.1425,
      "duration": 0.2624,
      "velocity": 112,
      "chip": "ym2612"
    },
    {
      "channel": 2,
      "note": 73,
      "start": 22.1474,
      "duration": 0.2585,
      "velocity": 112,
      "chip": "ym2612"
    },
    {
      "channel": 3,
      "note": 70,
      "start": 22.154,
      "duration": 0.2527,
      "velocity": 112,
      "chip": "ym2612"
    },
    {
      "channel": 4,
      "note": 85,
      "start": 22.155,
      "duration": 0.1192,
      "velocity": 101,
      "chip": "ym2612"
    },
    {
      "channel": 0,
      "note": 49,
      "start": 22.2703,
      "duration": 0.1337,
      "velocity": 95,
      "chip": "ym2612"
    },
    {
      "channel": 4,
      "note": 80,
      "start": 22.2742,
      "duration": 0.1335,
      "velocity": 101,
      "chip": "ym2612"
    },
    {
      "channel": 0,
      "note": 52,
      "start": 22.404,
      "duration": 0.0839,
      "velocity": 95,
      "chip": "ym2612"
    },
    {
      "channel": 1,
      "note": 78,
      "start": 22.4049,
      "duration": 0.0835,
      "velocity": 112,
      "chip": "ym2612"
    },
    {
      "channel": 2,
      "note": 73,
      "start": 22.4059,
      "duration": 0.0831,
      "velocity": 112,
      "chip": "ym2612"
    },
    {
      "channel": 3,
      "note": 70,
      "start": 22.4067,
      "duration": 0.0826,
      "velocity": 112,
      "chip": "ym2612"
    },
    {
      "channel": 0,
      "note": 48,
      "start": 22.4879,
      "duration": 0.0757,
      "velocity": 95,
      "chip": "ym2612"
    },
    {
      "channel": 1,
      "note": 78,
      "start": 22.4884,
      "duration": 0.0378,
      "velocity": 112,
      "chip": "ym2612"
    },
    {
      "channel": 2,
      "note": 73,
      "start": 22.489,
      "duration": 0.0378,
      "velocity": 112,
      "chip": "ym2612"
    },
    {
      "channel": 3,
      "note": 70,
      "start": 22.4894,
      "duration": 0.0378,
      "velocity": 112,
      "chip": "ym2612"
    },
    {
      "channel": 4,
      "note": 76,
      "start": 22.49,
      "duration": 0.6304,
      "velocity": 101,
      "chip": "ym2612"
    },
    {
      "channel": 0,
      "note": 49,
      "start": 22.5636,
      "duration": 0.1267,
      "velocity": 95,
      "chip": "ym2612"
    },
    {
      "channel": 1,
      "note": 66,
      "start": 22.5676,
      "duration": 0.0565,
      "velocity": 116,
      "chip": "ym2612"
    },
    {
      "channel": 2,
      "note": 73,
      "start": 22.5717,
      "duration": 0.0533,
      "velocity": 116,
      "chip": "ym2612"
    },
    {
      "channel": 3,
      "note": 70,
      "start": 22.5778,
      "duration": 0.0481,
      "velocity": 116,
      "chip": "ym2612"
    },
    {
      "channel": 0,
      "note": 59,
      "start": 22.6902,
      "duration": 0.2667,
      "velocity": 95,
      "chip": "ym2612"
    },
    {
      "channel": 1,
      "note": 66,
      "start": 22.6911,
      "duration": 0.0665,
      "velocity": 116,
      "chip": "ym2612"
    },
    {
      "channel": 2,
      "note": 73,
      "start": 22.6921,
      "duration": 0.0665,
      "velocity": 116,
      "chip": "ym2612"
    },
    {
      "channel": 3,
      "note": 70,
      "start": 22.6929,
      "duration": 0.0666,
      "velocity": 116,
      "chip": "ym2612"
    },
    {
      "channel": 1,
      "note": 64,
      "start": 22.8245,
      "duration": 0.0663,
      "velocity": 116,
      "chip": "ym2612"
    },
    {
      "channel": 2,
      "note": 73,
      "start": 22.8255,
      "duration": 0.0663,
      "velocity": 116,
      "chip": "ym2612"
    },
    {
      "channel": 3,
      "note": 70,
      "start": 22.8263,
      "duration": 0.0663,
      "velocity": 116,
      "chip": "ym2612"
    },
    {
      "channel": 0,
      "note": 48,
      "start": 22.9569,
      "duration": 0.0818,
      "velocity": 95,
      "chip": "ym2612"
    },
    {
      "channel": 1,
      "note": 64,
      "start": 22.9579,
      "duration": 0.0435,
      "velocity": 116,
      "chip": "ym2612"
    },
    {
      "channel": 2,
      "note": 73,
      "start": 22.9588,
      "duration": 0.0431,
      "velocity": 116,
      "chip": "ym2612"
    },
    {
      "channel": 3,
      "note": 70,
      "start": 22.9598,
      "duration": 0.0425,
      "velocity": 116,
      "chip": "ym2612"
    },
    {
      "channel": 0,
      "note": 49,
      "start": 23.0388,
      "duration": 0.0797,
      "velocity": 95,
      "chip": "ym2612"
    },
    {
      "channel": 1,
      "note": 76,
      "start": 23.0429,
      "duration": 0.1593,
      "velocity": 112,
      "chip": "ym2612"
    },
    {
      "channel": 2,
      "note": 71,
      "start": 23.0472,
      "duration": 0.1559,
      "velocity": 112,
      "chip": "ym2612"
    },
    {
      "channel": 3,
      "note": 68,
      "start": 23.0535,
      "duration": 0.1505,
      "velocity": 112,
      "chip": "ym2612"
    },
    {
      "channel": 0,
      "note": 58,
      "start": 23.1185,
      "duration": 0.1644,
      "velocity": 95,
      "chip": "ym2612"
    },
    {
      "channel": 4,
      "note": 79,
      "start": 23.1204,
      "duration": 0.0845,
      "velocity": 101,
      "chip": "ym2612"
    },
    {
      "channel": 1,
      "note": 76,
      "start": 23.2022,
      "duration": 0.0812,
      "velocity": 112,
      "chip": "ym2612"
    },
    {
      "channel": 2,
      "note": 71,
      "start": 23.203,
      "duration": 0.0808,
      "velocity": 112,
      "chip": "ym2612"
    },
    {
      "channel": 3,
      "note": 68,
      "start": 23.204,
      "duration": 0.0804,
      "velocity": 112,
      "chip": "ym2612"
    },
    {
      "channel": 0,
      "note": 48,
      "start": 23.2829,
      "duration": 0.0751,
      "velocity": 95,
      "chip": "ym2612"
    },
    {
      "channel": 1,
      "note": 76,
      "start": 23.2834,
      "duration": 0.0374,
      "velocity": 112,
      "chip": "ym2612"
    },
    {
      "channel": 2,
      "note": 71,
      "start": 23.2839,
      "duration": 0.0373,
      "velocity": 112,
      "chip": "ym2612"
    },
    {
      "channel": 3,
      "note": 68,
      "start": 23.2844,
      "duration": 0.0374,
      "velocity": 112,
      "chip": "ym2612"
    },
    {
      "channel": 4,
      "note": 77,
      "start": 23.285,
      "duration": 0.3405,
      "velocity": 101,
      "chip": "ym2612"
    },
    {
      "channel": 0,
      "note": 49,
      "start": 23.358,
      "duration": 0.1299,
      "velocity": 95,
      "chip": "ym2612"
    },
    {
      "channel": 1,
      "note": 64,
      "start": 23.3622,
      "duration": 0.0597,
      "velocity": 116,
      "chip": "ym2612"
    },
    {
      "channel": 2,
      "note": 71,
      "start": 23.3662,
      "duration": 0.0566,
      "velocity": 116,
      "chip": "ym2612"
    },
    {
      "channel": 3,
      "note": 68,
      "start": 23.3723,
      "duration": 0.0513,
      "velocity": 116,
      "chip": "ym2612"
    },
    {
      "channel": 0,
      "note": 56,
      "start": 23.488,
      "duration": 0.1333,
      "velocity": 95,
      "chip": "ym2612"
    },
    {
      "channel": 1,
      "note": 64,
      "start": 23.4889,
      "duration": 0.0662,
      "velocity": 116,
      "chip": "ym2612"
    },
    {
      "channel": 2,
      "note": 71,
      "start": 23.4898,
      "duration": 0.0662,
      "velocity": 116,
      "chip": "ym2612"
    },
    {
      "channel": 3,
      "note": 68,
      "start": 23.4907,
      "duration": 0.0662,
      "velocity": 116,
      "chip": "ym2612"
    },
    {
      "channel": 0,
      "note": 42,
      "start": 23.6213,
      "duration": 0.0818,
      "velocity": 95,
      "chip": "ym2612"
    },
    {
      "channel": 1,
      "note": 66,
      "start": 23.6224,
      "duration": 0.0432,
      "velocity": 116,
      "chip": "ym2612"
    },
    {
      "channel": 2,
      "note": 73,
      "start": 23.6234,
      "duration": 0.0427,
      "velocity": 116,
      "chip": "ym2612"
    },
    {
      "channel": 3,
      "note": 70,
      "start": 23.6245,
      "duration": 0.0422,
      "velocity": 116,
      "chip": "ym2612"
    },
    {
      "channel": 4,
      "note": 77,
      "start": 23.6256,
      "duration": 0.0797,
      "velocity": 101,
      "chip": "ym2612"
    },
    {
      "channel": 0,
      "note": 42,
      "start": 23.7031,
      "duration": 0.0843,
      "velocity": 95,
      "chip": "ym2612"
    },
    {
      "channel": 1,
      "note": 66,
      "start": 23.7037,
      "duration": 0.0377,
      "velocity": 116,
      "chip": "ym2612"
    },
    {
      "channel": 2,
      "note": 73,
      "start": 23.7041,
      "duration": 0.0376,
      "velocity": 116,
      "chip": "ym2612"
    },
    {
      "channel": 3,
      "note": 70,
      "start": 23.7046,
      "duration": 0.0376,
      "velocity": 116,
      "chip": "ym2612"
    },
    {
      "channel": 4,
      "note": 76,
      "start": 23.7052,
      "duration": 0.0996,
      "velocity": 101,
      "chip": "ym2612"
    },
    {
      "channel": 0,
      "note": 49,
      "start": 23.7874,
      "duration": 0.1329,
      "velocity": 95,
      "chip": "ym2612"
    },
    {
      "channel": 1,
      "note": 78,
      "start": 23.7924,
      "duration": 0.2624,
      "velocity": 112,
      "chip": "ym2612"
    },
    {
      "channel": 2,
      "note": 73,
      "start": 23.7972,
      "duration": 0.2585,
      "velocity": 112,
      "chip": "ym2612"
    },
    {
      "channel": 3,
      "note": 70,
      "start": 23.8038,
      "duration": 0.2527,
      "velocity": 112,
      "chip": "ym2612"
    },
    {
      "channel": 4,
      "note": 76,
      "start": 23.8049,
      "duration": 0.1193,
      "velocity": 101,
      "chip": "ym2612"
    },
    {
      "channel": 0,
      "note": 49,
      "start": 23.9203,
      "duration": 0.1335,
      "velocity": 95,
      "chip": "ym2612"
    },
    {
      "channel": 4,
      "note": 77,
      "start": 23.9241,
      "duration": 0.2136,
      "velocity": 101,
      "chip": "ym2612"
    },
    {
      "channel": 0,
      "note": 52,
      "start": 24.0538,
      "duration": 0.1573,
      "velocity": 95,
      "chip": "ym2612"
    },
    {
      "channel": 1,
      "note": 78,
      "start": 24.0548,
      "duration": 0.0812,
      "velocity": 112,
      "chip": "ym2612"
    },
    {
      "channel": 2,
      "note": 73,
      "start": 24.0557,
      "duration": 0.0809,
      "velocity": 112,
      "chip": "ym2612"
    },
    {
      "channel": 3,
      "note": 70,
      "start": 24.0566,
      "duration": 0.0804,
      "velocity": 112,
      "chip": "ym2612"
    },
    {
      "channel": 1,
      "note": 78,
      "start": 24.136,
      "duration": 0.038,
      "velocity": 112,
      "chip": "ym2612"
    },
    {
      "channel": 2,
      "note": 73,
      "start": 24.1366,
      "duration": 0.0378,
      "velocity": 112,
      "chip": "ym2612"
    },
    {
      "channel": 3,
      "note": 70,
      "start": 24.1371,
      "duration": 0.0378,
      "velocity": 112,
      "chip": "ym2612"
    },
    {
      "channel": 4,
      "note": 76,
      "start": 24.1377,
      "duration": 0.0882,
      "velocity": 101,
      "chip": "ym2612"
    },
    {
      "channel": 1,
      "note": 66,
      "start": 24.2151,
      "duration": 0.06,
      "velocity": 116,
      "chip": "ym2612"
    },
    {
      "channel": 2,
      "note": 73,
      "start": 24.2191,
      "duration": 0.0569,
      "velocity": 116,
      "chip": "ym2612"
    },
    {
      "channel": 3,
      "note": 70,
      "start": 24.2253,
      "duration": 0.0517,
      "velocity": 116,
      "chip": "ym2612"
    },
    {
      "channel": 4,
      "note": 78,
      "start": 24.2259,
      "duration": 0.1192,
      "velocity": 101,
      "chip": "ym2612"
    },
    {
      "channel": 0,
      "note": 54,
      "start": 24.3412,
      "duration": 0.2666,
      "velocity": 95,
      "chip": "ym2612"
    },
    {
      "channel": 1,
      "note": 66,
      "start": 24.3422,
      "duration": 0.0663,
      "velocity": 116,
      "chip": "ym2612"
    },
    {
      "channel": 2,
      "note": 73,
      "start": 24.3431,
      "duration": 0.0663,
      "velocity": 116,
      "chip": "ym2612"
    },
    {
      "channel": 3,
      "note": 70,
      "start": 24.344,
      "duration": 0.0663,
      "velocity": 116,
      "chip": "ym2612"
    },
    {
      "channel": 4,
      "note": 79,
      "start": 24.3451,
      "duration": 0.2666,
      "velocity": 101,
      "chip": "ym2612"
    },
    {
      "channel": 1,
      "note": 64,
      "start": 24.4754,
      "duration": 0.0663,
      "velocity": 116,
      "chip": "ym2612"
    },
    {
      "channel": 2,
      "note": 73,
      "start": 24.4763,
      "duration": 0.0663,
      "velocity": 116,
      "chip": "ym2612"
    },
    {
      "channel": 3,
      "note": 70,
      "start": 24.4772,
      "duration": 0.0663,
      "velocity": 116,
      "chip": "ym2612"
    },
    {
      "channel": 0,
      "note": 54,
      "start": 24.6079,
      "duration": 0.1335,
      "velocity": 95,
      "chip": "ym2612"
    },
    {
      "channel": 1,
      "note": 64,
      "start": 24.6088,
      "duration": 0.0663,
      "velocity": 116,
      "chip": "ym2612"
    },
    {
      "channel": 2,
      "note": 73,
      "start": 24.6098,
      "duration": 0.0663,
      "velocity": 116,
      "chip": "ym2612"
    },
    {
      "channel": 3,
      "note": 70,
      "start": 24.6106,
      "duration": 0.0663,
      "velocity": 116,
      "chip": "ym2612"
    },
    {
      "channel": 4,
      "note": 77,
      "start": 24.6117,
      "duration": 0.1475,
      "velocity": 101,
      "chip": "ym2612"
    },
    {
      "channel": 0,
      "note": 52,
      "start": 24.7414,
      "duration": 0.0833,
      "velocity": 95,
      "chip": "ym2612"
    },
    {
      "channel": 1,
      "note": 76,
      "start": 24.7464,
      "duration": 0.1618,
      "velocity": 112,
      "chip": "ym2612"
    },
    {
      "channel": 2,
      "note": 71,
      "start": 24.7514,
      "duration": 0.1577,
      "velocity": 112,
      "chip": "ym2612"
    },
    {
      "channel": 3,
      "note": 68,
      "start": 24.7582,
      "duration": 0.1519,
      "velocity": 112,
      "chip": "ym2612"
    },
    {
      "channel": 4,
      "note": 79,
      "start": 24.7592,
      "duration": 0.0673,
      "velocity": 101,
      "chip": "ym2612"
    },
    {
      "channel": 0,
      "note": 51,
      "start": 24.8246,
      "duration": 0.0827,
      "velocity": 95,
      "chip": "ym2612"
    },
    {
      "channel": 4,
      "note": 82,
      "start": 24.8265,
      "duration": 0.1669,
      "velocity": 101,
      "chip": "ym2612"
    },
    {
      "channel": 0,
      "note": 47,
      "start": 24.9073,
      "duration": 0.084,
      "velocity": 95,
      "chip": "ym2612"
    },
    {
      "channel": 1,
      "note": 76,
      "start": 24.9082,
      "duration": 0.0836,
      "velocity": 112,
      "chip": "ym2612"
    },
    {
      "channel": 2,
      "note": 71,
      "start": 24.9092,
      "duration": 0.0831,
      "velocity": 112,
      "chip": "ym2612"
    },
    {
      "channel": 3,
      "note": 68,
      "start": 24.91,
      "duration": 0.0828,
      "velocity": 112,
      "chip": "ym2612"
    },
    {
      "channel": 0,
      "note": 47,
      "start": 24.9913,
      "duration": 0.0752,
      "velocity": 95,
      "chip": "ym2612"
    },
    {
      "channel": 1,
      "note": 76,
      "start": 24.9918,
      "duration": 0.0373,
      "velocity": 112,
      "chip": "ym2612"
    },
    {
      "channel": 2,
      "note": 71,
      "start": 24.9924,
      "duration": 0.0372,
      "velocity": 112,
      "chip": "ym2612"
    },
    {
      "channel": 3,
      "note": 68,
      "start": 24.9929,
      "duration": 0.0371,
      "velocity": 112,
      "chip": "ym2612"
    },
    {
      "channel": 4,
      "note": 81,
      "start": 24.9934,
      "duration": 0.0881,
      "velocity": 101,
      "chip": "ym2612"
    },
    {
      "channel": 0,
      "note": 48,
      "start": 25.0666,
      "duration": 0.127,
      "velocity": 95,
      "chip": "ym2612"
    },
    {
      "channel": 1,
      "note": 64,
      "start": 25.0707,
      "duration": 0.0568,
      "velocity": 116,
      "chip": "ym2612"
    },
    {
      "channel": 2,
      "note": 71,
      "start": 25.0748,
      "duration": 0.0536,
      "velocity": 116,
      "chip": "ym2612"
    },
    {
      "channel": 3,
      "note": 68,
      "start": 25.0809,
      "duration": 0.0484,
      "velocity": 116,
      "chip": "ym2612"
    },
    {
      "channel": 4,
      "note": 82,
      "start": 25.0815,
      "duration": 0.1158,
      "velocity": 101,
      "chip": "ym2612"
    },
    {
      "channel": 0,
      "note": 49,
      "start": 25.1935,
      "duration": 0.1333,
      "velocity": 95,
      "chip": "ym2612"
    },
    {
      "channel": 1,
      "note": 64,
      "start": 25.1944,
      "duration": 0.0663,
      "velocity": 116,
      "chip": "ym2612"
    },
    {
      "channel": 2,
      "note": 71,
      "start": 25.1954,
      "duration": 0.0663,
      "velocity": 116,
      "chip": "ym2612"
    },
    {
      "channel": 3,
      "note": 68,
      "start": 25.1963,
      "duration": 0.0663,
      "velocity": 116,
      "chip": "ym2612"
    },
    {
      "channel": 4,
      "note": 82,
      "start": 25.1973,
      "duration": 0.1337,
      "velocity": 101,
      "chip": "ym2612"
    },
    {
      "channel": 0,
      "note": 42,
      "start": 25.3269,
      "duration": 0.0818,
      "velocity": 95,
      "chip": "ym2612"
    },
    {
      "channel": 1,
      "note": 66,
      "start": 25.3279,
      "duration": 0.0435,
      "velocity": 116,
      "chip": "ym2612"
    },
    {
      "channel": 2,
      "note": 73,
      "start": 25.329,
      "duration": 0.0429,
      "velocity": 116,
      "chip": "ym2612"
    },
    {
      "channel": 3,
      "note": 70,
      "start": 25.33,
      "duration": 0.0422,
      "velocity": 116,
      "chip": "ym2612"
    },
    {
      "channel": 4,
      "note": 82,
      "start": 25.3311,
      "duration": 0.0795,
      "velocity": 101,
      "chip": "ym2612"
    },
    {
      "channel": 0,
      "note": 42,
      "start": 25.4088,
      "duration": 0.0838,
      "velocity": 95,
      "chip": "ym2612"
    },
    {
      "channel": 1,
      "note": 66,
      "start": 25.4092,
      "duration": 0.0372,
      "velocity": 116,
      "chip": "ym2612"
    },
    {
      "channel": 2,
      "note": 73,
      "start": 25.4096,
      "duration": 0.0372,
      "velocity": 116,
      "chip": "ym2612"
    },
    {
      "channel": 3,
      "note": 70,
      "start": 25.4102,
      "duration": 0.0373,
      "velocity": 116,
      "chip": "ym2612"
    },
    {
      "channel": 4,
      "note": 82,
      "start": 25.4107,
      "duration": 0.0994,
      "velocity": 101,
      "chip": "ym2612"
    },
    {
      "channel": 0,
      "note": 49,
      "start": 25.4926,
      "duration": 0.1329,
      "velocity": 95,
      "chip": "ym2612"
    },
    {
      "channel": 1,
      "note": 78,
      "start": 25.4976,
      "duration": 0.2624,
      "velocity": 112,
      "chip": "ym2612"
    },
    {
      "channel": 2,
      "note": 73,
      "start": 25.5025,
      "duration": 0.2584,
      "velocity": 112,
      "chip": "ym2612"
    },
    {
      "channel": 3,
      "note": 70,
      "start": 25.509,
      "duration": 0.2528,
      "velocity": 112,
      "chip": "ym2612"
    },
    {
      "channel": 4,
      "note": 84,
      "start": 25.5101,
      "duration": 0.1193,
      "velocity": 101,
      "chip": "ym2612"
    },
    {
      "channel": 0,
      "note": 49,
      "start": 25.6255,
      "duration": 0.1335,
      "velocity": 95,
      "chip": "ym2612"
    },
    {
      "channel": 4,
      "note": 85,
      "start": 25.6293,
      "duration": 0.1334,
      "velocity": 101,
      "chip": "ym2612"
    },
    {
      "channel": 0,
      "note": 52,
      "start": 25.759,
      "duration": 0.0817,
      "velocity": 95,
      "chip": "ym2612"
    },
    {
      "channel": 1,
      "note": 78,
      "start": 25.76,
      "duration": 0.0812,
      "velocity": 112,
      "chip": "ym2612"
    },
    {
      "channel": 2,
      "note": 73,
      "start": 25.7609,
      "duration": 0.0807,
      "velocity": 112,
      "chip": "ym2612"
    },
    {
      "channel": 3,
      "note": 70,
      "start": 25.7618,
      "duration": 0.0802,
      "velocity": 112,
      "chip": "ym2612"
    },
    {
      "channel": 0,
      "note": 48,
      "start": 25.8407,
      "duration": 0.0754,
      "velocity": 95,
      "chip": "ym2612"
    },
    {
      "channel": 1,
      "note": 78,
      "start": 25.8412,
      "duration": 0.0377,
      "velocity": 112,
      "chip": "ym2612"
    },
    {
      "channel": 2,
      "note": 73,
      "start": 25.8415,
      "duration": 0.0378,
      "velocity": 112,
      "chip": "ym2612"
    },
    {
      "channel": 3,
      "note": 70,
      "start": 25.8421,
      "duration": 0.0378,
      "velocity": 112,
      "chip": "ym2612"
    },
    {
      "channel": 4,
      "note": 87,
      "start": 25.8426,
      "duration": 0.0881,
      "velocity": 101,
      "chip": "ym2612"
    },
    {
      "channel": 0,
      "note": 49,
      "start": 25.9162,
      "duration": 0.1298,
      "velocity": 95,
      "chip": "ym2612"
    },
    {
      "channel": 1,
      "note": 66,
      "start": 25.9203,
      "duration": 0.0595,
      "velocity": 116,
      "chip": "ym2612"
    },
    {
      "channel": 2,
      "note": 73,
      "start": 25.9242,
      "duration": 0.0565,
      "velocity": 116,
      "chip": "ym2612"
    },
    {
      "channel": 3,
      "note": 70,
      "start": 25.9303,
      "duration": 0.0513,
      "velocity": 116,
      "chip": "ym2612"
    },
    {
      "channel": 0,
      "note": 59,
      "start": 26.046,
      "duration": 0.2668,
      "velocity": 95,
      "chip": "ym2612"
    },
    {
      "channel": 1,
      "note": 66,
      "start": 26.0469,
      "duration": 0.0662,
      "velocity": 116,
      "chip": "ym2612"
    },
    {
      "channel": 2,
      "note": 73,
      "start": 26.0478,
      "duration": 0.0662,
      "velocity": 116,
      "chip": "ym2612"
    },
    {
      "channel": 3,
      "note": 70,
      "start": 26.0488,
      "duration": 0.0662,
      "velocity": 116,
      "chip": "ym2612"
    },
    {
      "channel": 4,
      "note": 86,
      "start": 26.0498,
      "duration": 0.1333,
      "velocity": 101,
      "chip": "ym2612"
    },
    {
      "channel": 1,
      "note": 64,
      "start": 26.1802,
      "duration": 0.0665,
      "velocity": 116,
      "chip": "ym2612"
    },
    {
      "channel": 2,
      "note": 73,
      "start": 26.1811,
      "duration": 0.0665,
      "velocity": 116,
      "chip": "ym2612"
    },
    {
      "channel": 3,
      "note": 70,
      "start": 26.182,
      "duration": 0.0665,
      "velocity": 116,
      "chip": "ym2612"
    },
    {
      "channel": 4,
      "note": 90,
      "start": 26.1831,
      "duration": 0.1335,
      "velocity": 101,
      "chip": "ym2612"
    },
    {
      "channel": 0,
      "note": 58,
      "start": 26.3128,
      "duration": 0.1334,
      "velocity": 95,
      "chip": "ym2612"
    },
    {
      "channel": 1,
      "note": 64,
      "start": 26.3137,
      "duration": 0.0663,
      "velocity": 116,
      "chip": "ym2612"
    },
    {
      "channel": 2,
      "note": 73,
      "start": 26.3146,
      "duration": 0.0663,
      "velocity": 116,
      "chip": "ym2612"
    },
    {
      "channel": 3,
      "note": 70,
      "start": 26.3155,
      "duration": 0.0663,
      "velocity": 116,
      "chip": "ym2612"
    },
    {
      "channel": 4,
      "note": 90,
      "start": 26.3166,
      "duration": 0.1473,
      "velocity": 101,
      "chip": "ym2612"
    },
    {
      "channel": 5,
      "note": 73,
      "start": 26.3339,
      "duration": 0.0666,
      "velocity": 127,
      "chip": "ym2612"
    },
    {
      "channel": 5,
      "note": 73,
      "start": 26.4005,
      "duration": 0.0644,
      "velocity": 127,
      "chip": "ym2612"
    },
    {
      "channel": 0,
      "note": 54,
      "start": 26.4463,
      "duration": 0.1329,
      "velocity": 95,
      "chip": "ym2612"
    },
    {
      "channel": 1,
      "note": 76,
      "start": 26.4513,
      "duration": 0.2623,
      "velocity": 112,
      "chip": "ym2612"
    },
    {
      "channel": 2,
      "note": 71,
      "start": 26.4563,
      "duration": 0.2583,
      "velocity": 112,
      "chip": "ym2612"
    },
    {
      "channel": 3,
      "note": 68,
      "start": 26.4629,
      "duration": 0.2526,
      "velocity": 112,
      "chip": "ym2612"
    },
    {
      "channel": 4,
      "note": 85,
      "start": 26.4639,
      "duration": 0.1192,
      "velocity": 101,
      "chip": "ym2612"
    },
    {
      "channel": 5,
      "note": 73,
      "start": 26.465,
      "duration": 0.2691,
      "velocity": 127,
      "chip": "ym2612"
    },
    {
      "channel": 0,
      "note": 49,
      "start": 26.5792,
      "duration": 0.1335,
      "velocity": 95,
      "chip": "ym2612"
    },
    {
      "channel": 4,
      "note": 83,
      "start": 26.5831,
      "duration": 0.1335,
      "velocity": 101,
      "chip": "ym2612"
    },
    {
      "channel": 0,
      "note": 52,
      "start": 26.7128,
      "duration": 0.1334,
      "velocity": 95,
      "chip": "ym2612"
    },
    {
      "channel": 1,
      "note": 76,
      "start": 26.7137,
      "duration": 0.1334,
      "velocity": 112,
      "chip": "ym2612"
    },
    {
      "channel": 2,
      "note": 71,
      "start": 26.7146,
      "duration": 0.1334,
      "velocity": 112,
      "chip": "ym2612"
    },
    {
      "channel": 3,
      "note": 68,
      "start": 26.7155,
      "duration": 0.1334,
      "velocity": 112,
      "chip": "ym2612"
    },
    {
      "channel": 4,
      "note": 84,
      "start": 26.7166,
      "duration": 0.1333,
      "velocity": 101,
      "chip": "ym2612"
    },
    {
      "channel": 5,
      "note": 68,
      "start": 26.7341,
      "duration": 0.1333,
      "velocity": 127,
      "chip": "ym2612"
    },
    {
      "channel": 0,
      "note": 54,
      "start": 26.8462,
      "duration": 0.1332,
      "velocity": 95,
      "chip": "ym2612"
    },
    {
      "channel": 1,
      "note": 76,
      "start": 26.8471,
      "duration": 0.0663,
      "velocity": 112,
      "chip": "ym2612"
    },
    {
      "channel": 2,
      "note": 71,
      "start": 26.848,
      "duration": 0.0663,
      "velocity": 112,
      "chip": "ym2612"
    },
    {
      "channel": 3,
      "note": 68,
      "start": 26.8489,
      "duration": 0.0663,
      "velocity": 112,
      "chip": "ym2612"
    },
    {
      "channel": 4,
      "note": 87,
      "start": 26.85,
      "duration": 0.4006,
      "velocity": 101,
      "chip": "ym2612"
    },
    {
      "channel": 5,
      "note": 68,
      "start": 26.8673,
      "duration": 0.1305,
      "velocity": 127,
      "chip": "ym2612"
    },
    {
      "channel": 0,
      "note": 48,
      "start": 26.9794,
      "duration": 0.1333,
      "velocity": 95,
      "chip": "ym2612"
    },
    {
      "channel": 1,
      "note": 64,
      "start": 26.9844,
      "duration": 0.0623,
      "velocity": 116,
      "chip": "ym2612"
    },
    {
      "channel": 2,
      "note": 71,
      "start": 26.9893,
      "duration": 0.0583,
      "velocity": 116,
      "chip": "ym2612"
    },
    {
      "channel": 3,
      "note": 68,
      "start": 26.9959,
      "duration": 0.0527,
      "velocity": 116,
      "chip": "ym2612"
    },
    {
      "channel": 5,
      "note": 62,
      "start": 26.9978,
      "duration": 0.136,
      "velocity": 127,
      "chip": "ym2612"
    },
    {
      "channel": 0,
      "note": 49,
      "start": 27.1126,
      "duration": 0.1338,
      "velocity": 95,
      "chip": "ym2612"
    },
    {
      "channel": 1,
      "note": 64,
      "start": 27.1135,
      "duration": 0.0665,
      "velocity": 116,
      "chip": "ym2612"
    },
    {
      "channel": 2,
      "note": 71,
      "start": 27.1145,
      "duration": 0.0665,
      "velocity": 116,
      "chip": "ym2612"
    },
    {
      "channel": 3,
      "note": 68,
      "start": 27.1154,
      "duration": 0.0665,
      "velocity": 116,
      "chip": "ym2612"
    },
    {
      "channel": 5,
      "note": 62,
      "start": 27.1338,
      "duration": 0.1334,
      "velocity": 127,
      "chip": "ym2612"
    },
    {
      "channel": 0,
      "note": 42,
      "start": 27.2464,
      "duration": 0.1327,
      "velocity": 95,
      "chip": "ym2612"
    },
    {
      "channel": 1,
      "note": 66,
      "start": 27.2474,
      "duration": 0.0657,
      "velocity": 116,
      "chip": "ym2612"
    },
    {
      "channel": 2,
      "note": 73,
      "start": 27.2485,
      "duration": 0.0656,
      "velocity": 116,
      "chip": "ym2612"
    },
    {
      "channel": 3,
      "note": 70,
      "start": 27.2496,
      "duration": 0.0654,
      "velocity": 116,
      "chip": "ym2612"
    },
    {
      "channel": 0,
      "note": 42,
      "start": 27.3791,
      "duration": 0.1335,
      "velocity": 95,
      "chip": "ym2612"
    },
    {
      "channel": 1,
      "note": 66,
      "start": 27.3801,
      "duration": 0.0665,
      "velocity": 116,
      "chip": "ym2612"
    },
    {
      "channel": 2,
      "note": 73,
      "start": 27.381,
      "duration": 0.0665,
      "velocity": 116,
      "chip": "ym2612"
    },
    {
      "channel": 3,
      "note": 70,
      "start": 27.3819,
      "duration": 0.0665,
      "velocity": 116,
      "chip": "ym2612"
    },
    {
      "channel": 0,
      "note": 49,
      "start": 27.5126,
      "duration": 0.1329,
      "velocity": 95,
      "chip": "ym2612"
    },
    {
      "channel": 1,
      "note": 78,
      "start": 27.5177,
      "duration": 0.2625,
      "velocity": 112,
      "chip": "ym2612"
    },
    {
      "channel": 2,
      "note": 73,
      "start": 27.5226,
      "duration": 0.2585,
      "velocity": 112,
      "chip": "ym2612"
    },
    {
      "channel": 3,
      "note": 70,
      "start": 27.5291,
      "duration": 0.2529,
      "velocity": 112,
      "chip": "ym2612"
    },
    {
      "channel": 0,
      "note": 49,
      "start": 27.6456,
      "duration": 0.1336,
      "velocity": 95,
      "chip": "ym2612"
    },
    {
      "channel": 0,
      "note": 52,
      "start": 27.7792,
      "duration": 0.1562,
      "velocity": 95,
      "chip": "ym2612"
    },
    {
      "channel": 1,
      "note": 78,
      "start": 27.7802,
      "duration": 0.0808,
      "velocity": 112,
      "chip": "ym2612"
    },
    {
      "channel": 2,
      "note": 73,
      "start": 27.7811,
      "duration": 0.0803,
      "velocity": 112,
      "chip": "ym2612"
    },
    {
      "channel": 3,
      "note": 70,
      "start": 27.782,
      "duration": 0.0799,
      "velocity": 112,
      "chip": "ym2612"
    },
    {
      "channel": 1,
      "note": 78,
      "start": 27.861,
      "duration": 0.0376,
      "velocity": 112,
      "chip": "ym2612"
    },
    {
      "channel": 2,
      "note": 73,
      "start": 27.8614,
      "duration": 0.0377,
      "velocity": 112,
      "chip": "ym2612"
    },
    {
      "channel": 3,
      "note": 70,
      "start": 27.862,
      "duration": 0.0378,
      "velocity": 112,
      "chip": "ym2612"
    },
    {
      "channel": 1,
      "note": 66,
      "start": 27.94,
      "duration": 0.0595,
      "velocity": 116,
      "chip": "ym2612"
    },
    {
      "channel": 2,
      "note": 73,
      "start": 27.9438,
      "duration": 0.0567,
      "velocity": 116,
      "chip": "ym2612"
    },
    {
      "channel": 3,
      "note": 70,
      "start": 27.9499,
      "duration": 0.0515,
      "velocity": 116,
      "chip": "ym2612"
    },
    {
      "channel": 0,
      "note": 54,
      "start": 28.0657,
      "duration": 0.2665,
      "velocity": 95,
      "chip": "ym2612"
    },
    {
      "channel": 1,
      "note": 66,
      "start": 28.0666,
      "duration": 0.0662,
      "velocity": 116,
      "chip": "ym2612"
    },
    {
      "channel": 2,
      "note": 73,
      "start": 28.0676,
      "duration": 0.0661,
      "velocity": 116,
      "chip": "ym2612"
    },
    {
      "channel": 3,
      "note": 70,
      "start": 28.0685,
      "duration": 0.0662,
      "velocity": 116,
      "chip": "ym2612"
    },
    {
      "channel": 1,
      "note": 64,
      "start": 28.1999,
      "duration": 0.0663,
      "velocity": 116,
      "chip": "ym2612"
    },
    {
      "channel": 2,
      "note": 73,
      "start": 28.2008,
      "duration": 0.0663,
      "velocity": 116,
      "chip": "ym2612"
    },
    {
      "channel": 3,
      "note": 70,
      "start": 28.2017,
      "duration": 0.0663,
      "velocity": 116,
      "chip": "ym2612"
    },
    {
      "channel": 0,
      "note": 54,
      "start": 28.3322,
      "duration": 0.1336,
      "velocity": 95,
      "chip": "ym2612"
    },
    {
      "channel": 1,
      "note": 64,
      "start": 28.3331,
      "duration": 0.0665,
      "velocity": 116,
      "chip": "ym2612"
    },
    {
      "channel": 2,
      "note": 73,
      "start": 28.334,
      "duration": 0.0665,
      "velocity": 116,
      "chip": "ym2612"
    },
    {
      "channel": 3,
      "note": 70,
      "start": 28.3349,
      "duration": 0.0665,
      "velocity": 116,
      "chip": "ym2612"
    },
    {
      "channel": 0,
      "note": 52,
      "start": 28.4659,
      "duration": 0.0832,
      "velocity": 95,
      "chip": "ym2612"
    },
    {
      "channel": 1,
      "note": 76,
      "start": 28.4709,
      "duration": 0.1614,
      "velocity": 112,
      "chip": "ym2612"
    },
    {
      "channel": 2,
      "note": 71,
      "start": 28.4758,
      "duration": 0.1573,
      "velocity": 112,
      "chip": "ym2612"
    },
    {
      "channel": 3,
      "note": 68,
      "start": 28.4826,
      "duration": 0.1515,
      "velocity": 112,
      "chip": "ym2612"
    },
    {
      "channel": 0,
      "note": 51,
      "start": 28.5491,
      "duration": 0.0822,
      "velocity": 95,
      "chip": "ym2612"
    },
    {
      "channel": 0,
      "note": 47,
      "start": 28.6313,
      "duration": 0.0813,
      "velocity": 95,
      "chip": "ym2612"
    },
    {
      "channel": 1,
      "note": 76,
      "start": 28.6323,
      "duration": 0.0808,
      "velocity": 112,
      "chip": "ym2612"
    },
    {
      "channel": 2,
      "note": 71,
      "start": 28.6332,
      "duration": 0.0805,
      "velocity": 112,
      "chip": "ym2612"
    },
    {
      "channel": 3,
      "note": 68,
      "start": 28.6341,
      "duration": 0.08,
      "velocity": 112,
      "chip": "ym2612"
    },
    {
      "channel": 0,
      "note": 47,
      "start": 28.7126,
      "duration": 0.0751,
      "velocity": 95,
      "chip": "ym2612"
    },
    {
      "channel": 1,
      "note": 76,
      "start": 28.7132,
      "duration": 0.0371,
      "velocity": 112,
      "chip": "ym2612"
    },
    {
      "channel": 2,
      "note": 71,
      "start": 28.7137,
      "duration": 0.0371,
      "velocity": 112,
      "chip": "ym2612"
    },
    {
      "channel": 3,
      "note": 68,
      "start": 28.7141,
      "duration": 0.0371,
      "velocity": 112,
      "chip": "ym2612"
    },
    {
      "channel": 0,
      "note": 48,
      "start": 28.7878,
      "duration": 0.1299,
      "velocity": 95,
      "chip": "ym2612"
    },
    {
      "channel": 1,
      "note": 64,
      "start": 28.7918,
      "duration": 0.0598,
      "velocity": 116,
      "chip": "ym2612"
    },
    {
      "channel": 2,
      "note": 71,
      "start": 28.7957,
      "duration": 0.0568,
      "velocity": 116,
      "chip": "ym2612"
    },
    {
      "channel": 3,
      "note": 68,
      "start": 28.802,
      "duration": 0.0514,
      "velocity": 116,
      "chip": "ym2612"
    },
    {
      "channel": 0,
      "note": 49,
      "start": 28.9177,
      "duration": 0.1334,
      "velocity": 95,
      "chip": "ym2612"
    },
    {
      "channel": 1,
      "note": 64,
      "start": 28.9186,
      "duration": 0.0663,
      "velocity": 116,
      "chip": "ym2612"
    },
    {
      "channel": 2,
      "note": 71,
      "start": 28.9195,
      "duration": 0.0663,
      "velocity": 116,
      "chip": "ym2612"
    },
    {
      "channel": 3,
      "note": 68,
      "start": 28.9205,
      "duration": 0.0663,
      "velocity": 116,
      "chip": "ym2612"
    },
    {
      "channel": 0,
      "note": 42,
      "start": 29.0511,
      "duration": 0.0813,
      "velocity": 95,
      "chip": "ym2612"
    },
    {
      "channel": 1,
      "note": 66,
      "start": 29.0521,
      "duration": 0.0432,
      "velocity": 116,
      "chip": "ym2612"
    },
    {
      "channel": 2,
      "note": 73,
      "start": 29.0532,
      "duration": 0.0426,
      "velocity": 116,
      "chip": "ym2612"
    },
    {
      "channel": 3,
      "note": 70,
      "start": 29.0543,
      "duration": 0.042,
      "velocity": 116,
      "chip": "ym2612"
    },
    {
      "channel": 0,
      "note": 42,
      "start": 29.1324,
      "duration": 0.0838,
      "velocity": 95,
      "chip": "ym2612"
    },
    {
      "channel": 1,
      "note": 66,
      "start": 29.1329,
      "duration": 0.037,
      "velocity": 116,
      "chip": "ym2612"
    },
    {
      "channel": 2,
      "note": 73,
      "start": 29.1335,
      "duration": 0.0371,
      "velocity": 116,
      "chip": "ym2612"
    },
    {
      "channel": 3,
      "note": 70,
      "start": 29.1339,
      "duration": 0.037,
      "velocity": 116,
      "chip": "ym2612"
    },
    {
      "channel": 0,
      "note": 49,
      "start": 29.2162,
      "duration": 0.133,
      "velocity": 95,
      "chip": "ym2612"
    },
    {
      "channel": 1,
      "note": 78,
      "start": 29.2213,
      "duration": 0.2624,
      "velocity": 112,
      "chip": "ym2612"
    },
    {
      "channel": 2,
      "note": 73,
      "start": 29.2262,
      "duration": 0.2584,
      "velocity": 112,
      "chip": "ym2612"
    },
    {
      "channel": 3,
      "note": 70,
      "start": 29.2327,
      "duration": 0.2528,
      "velocity": 112,
      "chip": "ym2612"
    },
    {
      "channel": 0,
      "note": 49,
      "start": 29.3493,
      "duration": 0.1335,
      "velocity": 95,
      "chip": "ym2612"
    },
    {
      "channel": 0,
      "note": 52,
      "start": 29.4828,
      "duration": 0.0815,
      "velocity": 95,
      "chip": "ym2612"
    },
    {
      "channel": 1,
      "note": 78,
      "start": 29.4837,
      "duration": 0.081,
      "velocity": 112,
      "chip": "ym2612"
    },
    {
      "channel": 2,
      "note": 73,
      "start": 29.4846,
      "duration": 0.0805,
      "velocity": 112,
      "chip": "ym2612"
    },
    {
      "channel": 3,
      "note": 70,
      "start": 29.4855,
      "duration": 0.0802,
      "velocity": 112,
      "chip": "ym2612"
    },
    {
      "channel": 0,
      "note": 48,
      "start": 29.5642,
      "duration": 0.0751,
      "velocity": 95,
      "chip": "ym2612"
    },
    {
      "channel": 1,
      "note": 78,
      "start": 29.5647,
      "duration": 0.0372,
      "velocity": 112,
      "chip": "ym2612"
    },
    {
      "channel": 2,
      "note": 73,
      "start": 29.5652,
      "duration": 0.0372,
      "velocity": 112,
      "chip": "ym2612"
    },
    {
      "channel": 3,
      "note": 70,
      "start": 29.5657,
      "duration": 0.0372,
      "velocity": 112,
      "chip": "ym2612"
    },
    {
      "channel": 0,
      "note": 49,
      "start": 29.6394,
      "duration": 0.1299,
      "velocity": 95,
      "chip": "ym2612"
    },
    {
      "channel": 1,
      "note": 66,
      "start": 29.6436,
      "duration": 0.0596,
      "velocity": 116,
      "chip": "ym2612"
    },
    {
      "channel": 2,
      "note": 73,
      "start": 29.6478,
      "duration": 0.0563,
      "velocity": 116,
      "chip": "ym2612"
    },
    {
      "channel": 3,
      "note": 70,
      "start": 29.6538,
      "duration": 0.0512,
      "velocity": 116,
      "chip": "ym2612"
    },
    {
      "channel": 0,
      "note": 59,
      "start": 29.7693,
      "duration": 0.2666,
      "velocity": 95,
      "chip": "ym2612"
    },
    {
      "channel": 1,
      "note": 66,
      "start": 29.7702,
      "duration": 0.0663,
      "velocity": 116,
      "chip": "ym2612"
    },
    {
      "channel": 2,
      "note": 73,
      "start": 29.7712,
      "duration": 0.0663,
      "velocity": 116,
      "chip": "ym2612"
    },
    {
      "channel": 3,
      "note": 70,
      "start": 29.7721,
      "duration": 0.0663,
      "velocity": 116,
      "chip": "ym2612"
    },
    {
      "channel": 1,
      "note": 64,
      "start": 29.9035,
      "duration": 0.0663,
      "velocity": 116,
      "chip": "ym2612"
    },
    {
      "channel": 2,
      "note": 73,
      "start": 29.9044,
      "duration": 0.0663,
      "velocity": 116,
      "chip": "ym2612"
    },
    {
      "channel": 3,
      "note": 70,
      "start": 29.9053,
      "duration": 0.0663,
      "velocity": 116,
      "chip": "ym2612"
    },
    {
      "channel": 0,
      "note": 48,
      "start": 30.0359,
      "duration": 0.082,
      "velocity": 95,
      "chip": "ym2612"
    },
    {
      "channel": 1,
      "note": 64,
      "start": 30.0369,
      "duration": 0.0437,
      "velocity": 116,
      "chip": "ym2612"
    },
    {
      "channel": 2,
      "note": 73,
      "start": 30.0378,
      "duration": 0.0433,
      "velocity": 116,
      "chip": "ym2612"
    },
    {
      "channel": 3,
      "note": 70,
      "start": 30.0387,
      "duration": 0.0429,
      "velocity": 116,
      "chip": "ym2612"
    },
    {
      "channel": 0,
      "note": 49,
      "start": 30.118,
      "duration": 0.0796,
      "velocity": 95,
      "chip": "ym2612"
    },
    {
      "channel": 1,
      "note": 76,
      "start": 30.1221,
      "duration": 0.1584,
      "velocity": 112,
      "chip": "ym2612"
    },
    {
      "channel": 2,
      "note": 71,
      "start": 30.1261,
      "duration": 0.1554,
      "velocity": 112,
      "chip": "ym2612"
    },
    {
      "channel": 3,
      "note": 68,
      "start": 30.1322,
      "duration": 0.1502,
      "velocity": 112,
      "chip": "ym2612"
    },
    {
      "channel": 0,
      "note": 58,
      "start": 30.1976,
      "duration": 0.164,
      "velocity": 95,
      "chip": "ym2612"
    },
    {
      "channel": 1,
      "note": 76,
      "start": 30.2806,
      "duration": 0.0814,
      "velocity": 112,
      "chip": "ym2612"
    },
    {
      "channel": 2,
      "note": 71,
      "start": 30.2815,
      "duration": 0.081,
      "velocity": 112,
      "chip": "ym2612"
    },
    {
      "channel": 3,
      "note": 68,
      "start": 30.2824,
      "duration": 0.0805,
      "velocity": 112,
      "chip": "ym2612"
    },
    {
      "channel": 0,
      "note": 48,
      "start": 30.3616,
      "duration": 0.0752,
      "velocity": 95,
      "chip": "ym2612"
    },
    {
      "channel": 1,
      "note": 76,
      "start": 30.362,
      "duration": 0.0374,
      "velocity": 112,
      "chip": "ym2612"
    },
    {
      "channel": 2,
      "note": 71,
      "start": 30.3624,
      "duration": 0.0373,
      "velocity": 112,
      "chip": "ym2612"
    },
    {
      "channel": 3,
      "note": 68,
      "start": 30.363,
      "duration": 0.0373,
      "velocity": 112,
      "chip": "ym2612"
    },
    {
      "channel": 0,
      "note": 49,
      "start": 30.4368,
      "duration": 0.1296,
      "velocity": 95,
      "chip": "ym2612"
    },
    {
      "channel": 1,
      "note": 64,
      "start": 30.441,
      "duration": 0.0594,
      "velocity": 116,
      "chip": "ym2612"
    },
    {
      "channel": 2,
      "note": 71,
      "start": 30.4449,
      "duration": 0.0564,
      "velocity": 116,
      "chip": "ym2612"
    },
    {
      "channel": 3,
      "note": 68,
      "start": 30.451,
      "duration": 0.0512,
      "velocity": 116,
      "chip": "ym2612"
    },
    {
      "channel": 0,
      "note": 56,
      "start": 30.5664,
      "duration": 0.1334,
      "velocity": 95,
      "chip": "ym2612"
    },
    {
      "channel": 1,
      "note": 64,
      "start": 30.5674,
      "duration": 0.0663,
      "velocity": 116,
      "chip": "ym2612"
    },
    {
      "channel": 2,
      "note": 71,
      "start": 30.5683,
      "duration": 0.0663,
      "velocity": 116,
      "chip": "ym2612"
    },
    {
      "channel": 3,
      "note": 68,
      "start": 30.5692,
      "duration": 0.0663,
      "velocity": 116,
      "chip": "ym2612"
    },
    {
      "channel": 0,
      "note": 42,
      "start": 30.6998,
      "duration": 0.0846,
      "velocity": 95,
      "chip": "ym2612"
    },
    {
      "channel": 1,
      "note": 66,
      "start": 30.7009,
      "duration": 0.0463,
      "velocity": 116,
      "chip": "ym2612"
    },
    {
      "channel": 2,
      "note": 73,
      "start": 30.7019,
      "duration": 0.0457,
      "velocity": 116,
      "chip": "ym2612"
    },
    {
      "channel": 3,
      "note": 70,
      "start": 30.703,
      "duration": 0.0452,
      "velocity": 116,
      "chip": "ym2612"
    },
    {
      "channel": 0,
      "note": 42,
      "start": 30.7844,
      "duration": 0.0821,
      "velocity": 95,
      "chip": "ym2612"
    },
    {
      "channel": 1,
      "note": 66,
      "start": 30.7849,
      "duration": 0.0372,
      "velocity": 116,
      "chip": "ym2612"
    },
    {
      "channel": 2,
      "note": 73,
      "start": 30.7855,
      "duration": 0.0371,
      "velocity": 116,
      "chip": "ym2612"
    },
    {
      "channel": 3,
      "note": 70,
      "start": 30.7859,
      "duration": 0.0371,
      "velocity": 116,
      "chip": "ym2612"
    },
    {
      "channel": 0,
      "note": 49,
      "start": 30.8665,
      "duration": 0.133,
      "velocity": 95,
      "chip": "ym2612"
    },
    {
      "channel": 1,
      "note": 78,
      "start": 30.8715,
      "duration": 0.2625,
      "velocity": 112,
      "chip": "ym2612"
    },
    {
      "channel": 2,
      "note": 73,
      "start": 30.8764,
      "duration": 0.2586,
      "velocity": 112,
      "chip": "ym2612"
    },
    {
      "channel": 3,
      "note": 70,
      "start": 30.883,
      "duration": 0.2529,
      "velocity": 112,
      "chip": "ym2612"
    },
    {
      "channel": 0,
      "note": 49,
      "start": 30.9995,
      "duration": 0.1337,
      "velocity": 95,
      "chip": "ym2612"
    },
    {
      "channel": 0,
      "note": 52,
      "start": 31.1332,
      "duration": 0.1566,
      "velocity": 95,
      "chip": "ym2612"
    },
    {
      "channel": 1,
      "note": 78,
      "start": 31.1341,
      "duration": 0.0809,
      "velocity": 112,
      "chip": "ym2612"
    },
    {
      "channel": 2,
      "note": 73,
      "start": 31.135,
      "duration": 0.0804,
      "velocity": 112,
      "chip": "ym2612"
    },
    {
      "channel": 3,
      "note": 70,
      "start": 31.1359,
      "duration": 0.0801,
      "velocity": 112,
      "chip": "ym2612"
    },
    {
      "channel": 1,
      "note": 78,
      "start": 31.215,
      "duration": 0.0372,
      "velocity": 112,
      "chip": "ym2612"
    },
    {
      "channel": 2,
      "note": 73,
      "start": 31.2155,
      "duration": 0.0373,
      "velocity": 112,
      "chip": "ym2612"
    },
    {
      "channel": 3,
      "note": 70,
      "start": 31.216,
      "duration": 0.0372,
      "velocity": 112,
      "chip": "ym2612"
    },
    {
      "channel": 1,
      "note": 66,
      "start": 31.2943,
      "duration": 0.0596,
      "velocity": 116,
      "chip": "ym2612"
    },
    {
      "channel": 2,
      "note": 73,
      "start": 31.2985,
      "duration": 0.0564,
      "velocity": 116,
      "chip": "ym2612"
    },
    {
      "channel": 3,
      "note": 70,
      "start": 31.3042,
      "duration": 0.0516,
      "velocity": 116,
      "chip": "ym2612"
    },
    {
      "channel": 0,
      "note": 54,
      "start": 31.42,
      "duration": 0.2665,
      "velocity": 95,
      "chip": "ym2612"
    },
    {
      "channel": 1,
      "note": 66,
      "start": 31.4209,
      "duration": 0.0662,
      "velocity": 116,
      "chip": "ym2612"
    },
    {
      "channel": 2,
      "note": 73,
      "start": 31.4219,
      "duration": 0.0662,
      "velocity": 116,
      "chip": "ym2612"
    },
    {
      "channel": 3,
      "note": 70,
      "start": 31.4228,
      "duration": 0.0662,
      "velocity": 116,
      "chip": "ym2612"
    },
    {
      "channel": 1,
      "note": 64,
      "start": 31.5542,
      "duration": 0.0665,
      "velocity": 116,
      "chip": "ym2612"
    },
    {
      "channel": 2,
      "note": 73,
      "start": 31.5551,
      "duration": 0.0665,
      "velocity": 116,
      "chip": "ym2612"
    },
    {
      "channel": 3,
      "note": 70,
      "start": 31.556,
      "duration": 0.0665,
      "velocity": 116,
      "chip": "ym2612"
    },
    {
      "channel": 0,
      "note": 54,
      "start": 31.6865,
      "duration": 0.1337,
      "velocity": 95,
      "chip": "ym2612"
    },
    {
      "channel": 1,
      "note": 64,
      "start": 31.6875,
      "duration": 0.0665,
      "velocity": 116,
      "chip": "ym2612"
    },
    {
      "channel": 2,
      "note": 73,
      "start": 31.6883,
      "duration": 0.0665,
      "velocity": 116,
      "chip": "ym2612"
    },
    {
      "channel": 3,
      "note": 70,
      "start": 31.6893,
      "duration": 0.0665,
      "velocity": 116,
      "chip": "ym2612"
    },
    {
      "channel": 0,
      "note": 52,
      "start": 31.8202,
      "duration": 0.0828,
      "velocity": 95,
      "chip": "ym2612"
    },
    {
      "channel": 1,
      "note": 76,
      "start": 31.8252,
      "duration": 0.1614,
      "velocity": 112,
      "chip": "ym2612"
    },
    {
      "channel": 2,
      "note": 71,
      "start": 31.8302,
      "duration": 0.1572,
      "velocity": 112,
      "chip": "ym2612"
    },
    {
      "channel": 3,
      "note": 68,
      "start": 31.8369,
      "duration": 0.1515,
      "velocity": 112,
      "chip": "ym2612"
    },
    {
      "channel": 0,
      "note": 51,
      "start": 31.9031,
      "duration": 0.0825,
      "velocity": 95,
      "chip": "ym2612"
    },
    {
      "channel": 0,
      "note": 47,
      "start": 31.9856,
      "duration": 0.0813,
      "velocity": 95,
      "chip": "ym2612"
    },
    {
      "channel": 1,
      "note": 76,
      "start": 31.9865,
      "duration": 0.0808,
      "velocity": 112,
      "chip": "ym2612"
    },
    {
      "channel": 2,
      "note": 71,
      "start": 31.9874,
      "duration": 0.0804,
      "velocity": 112,
      "chip": "ym2612"
    },
    {
      "channel": 3,
      "note": 68,
      "start": 31.9884,
      "duration": 0.0799,
      "velocity": 112,
      "chip": "ym2612"
    },
    {
      "channel": 0,
      "note": 47,
      "start": 32.0669,
      "duration": 0.075,
      "velocity": 95,
      "chip": "ym2612"
    },
    {
      "channel": 1,
      "note": 76,
      "start": 32.0674,
      "duration": 0.0373,
      "velocity": 112,
      "chip": "ym2612"
    },
    {
      "channel": 2,
      "note": 71,
      "start": 32.0678,
      "duration": 0.0372,
      "velocity": 112,
      "chip": "ym2612"
    },
    {
      "channel": 3,
      "note": 68,
      "start": 32.0683,
      "duration": 0.0373,
      "velocity": 112,
      "chip": "ym2612"
    },
    {
      "channel": 0,
      "note": 48,
      "start": 32.142,
      "duration": 0.1301,
      "velocity": 95,
      "chip": "ym2612"
    },
    {
      "channel": 1,
      "note": 64,
      "start": 32.1466,
      "duration": 0.0594,
      "velocity": 116,
      "chip": "ym2612"
    },
    {
      "channel": 2,
      "note": 71,
      "start": 32.1503,
      "duration": 0.0566,
      "velocity": 116,
      "chip": "ym2612"
    },
    {
      "channel": 3,
      "note": 68,
      "start": 32.1565,
      "duration": 0.0514,
      "velocity": 116,
      "chip": "ym2612"
    },
    {
      "channel": 0,
      "note": 49,
      "start": 32.2722,
      "duration": 0.1332,
      "velocity": 95,
      "chip": "ym2612"
    },
    {
      "channel": 1,
      "note": 64,
      "start": 32.2731,
      "duration": 0.0663,
      "velocity": 116,
      "chip": "ym2612"
    },
    {
      "channel": 2,
      "note": 71,
      "start": 32.2739,
      "duration": 0.0664,
      "velocity": 116,
      "chip": "ym2612"
    },
    {
      "channel": 3,
      "note": 68,
      "start": 32.2749,
      "duration": 0.0663,
      "velocity": 116,
      "chip": "ym2612"
    },
    {
      "channel": 0,
      "note": 42,
      "start": 32.4054,
      "duration": 0.0844,
      "velocity": 95,
      "chip": "ym2612"
    },
    {
      "channel": 1,
      "note": 66,
      "start": 32.4064,
      "duration": 0.046,
      "velocity": 116,
      "chip": "ym2612"
    },
    {
      "channel": 2,
      "note": 73,
      "start": 32.4075,
      "duration": 0.0454,
      "velocity": 116,
      "chip": "ym2612"
    },
    {
      "channel": 3,
      "note": 70,
      "start": 32.4085,
      "duration": 0.0449,
      "velocity": 116,
      "chip": "ym2612"
    },
    {
      "channel": 0,
      "note": 42,
      "start": 32.4897,
      "duration": 0.0825,
      "velocity": 95,
      "chip": "ym2612"
    },
    {
      "channel": 1,
      "note": 66,
      "start": 32.4902,
      "duration": 0.0376,
      "velocity": 116,
      "chip": "ym2612"
    },
    {
      "channel": 2,
      "note": 73,
      "start": 32.4907,
      "duration": 0.0375,
      "velocity": 116,
      "chip": "ym2612"
    },
    {
      "channel": 3,
      "note": 70,
      "start": 32.4912,
      "duration": 0.0375,
      "velocity": 116,
      "chip": "ym2612"
    },
    {
      "channel": 0,
      "note": 49,
      "start": 32.5722,
      "duration": 0.1328,
      "velocity": 95,
      "chip": "ym2612"
    },
    {
      "channel": 1,
      "note": 78,
      "start": 32.5773,
      "duration": 0.2624,
      "velocity": 112,
      "chip": "ym2612"
    },
    {
      "channel": 2,
      "note": 73,
      "start": 32.5821,
      "duration": 0.2585,
      "velocity": 112,
      "chip": "ym2612"
    },
    {
      "channel": 3,
      "note": 70,
      "start": 32.5887,
      "duration": 0.2527,
      "velocity": 112,
      "chip": "ym2612"
    },
    {
      "channel": 0,
      "note": 49,
      "start": 32.7051,
      "duration": 0.1337,
      "velocity": 95,
      "chip": "ym2612"
    },
    {
      "channel": 0,
      "note": 52,
      "start": 32.8387,
      "duration": 0.0819,
      "velocity": 95,
      "chip": "ym2612"
    },
    {
      "channel": 1,
      "note": 78,
      "start": 32.8396,
      "duration": 0.0814,
      "velocity": 112,
      "chip": "ym2612"
    },
    {
      "channel": 2,
      "note": 73,
      "start": 32.8406,
      "duration": 0.081,
      "velocity": 112,
      "chip": "ym2612"
    },
    {
      "channel": 3,
      "note": 70,
      "start": 32.8415,
      "duration": 0.0806,
      "velocity": 112,
      "chip": "ym2612"
    },
    {
      "channel": 0,
      "note": 48,
      "start": 32.9206,
      "duration": 0.0746,
      "velocity": 95,
      "chip": "ym2612"
    },
    {
      "channel": 1,
      "note": 78,
      "start": 32.921,
      "duration": 0.0371,
      "velocity": 112,
      "chip": "ym2612"
    },
    {
      "channel": 2,
      "note": 73,
      "start": 32.9216,
      "duration": 0.037,
      "velocity": 112,
      "chip": "ym2612"
    },
    {
      "channel": 3,
      "note": 70,
      "start": 32.9221,
      "duration": 0.0369,
      "velocity": 112,
      "chip": "ym2612"
    },
    {
      "channel": 0,
      "note": 49,
      "start": 32.9953,
      "duration": 0.1296,
      "velocity": 95,
      "chip": "ym2612"
    },
    {
      "channel": 1,
      "note": 66,
      "start": 32.9993,
      "duration": 0.0595,
      "velocity": 116,
      "chip": "ym2612"
    },
    {
      "channel": 2,
      "note": 73,
      "start": 33.0032,
      "duration": 0.0565,
      "velocity": 116,
      "chip": "ym2612"
    },
    {
      "channel": 3,
      "note": 70,
      "start": 33.0095,
      "duration": 0.0511,
      "velocity": 116,
      "chip": "ym2612"
    },
    {
      "channel": 0,
      "note": 59,
      "start": 33.1248,
      "duration": 0.2667,
      "velocity": 95,
      "chip": "ym2612"
    },
    {
      "channel": 1,
      "note": 66,
      "start": 33.1258,
      "duration": 0.0663,
      "velocity": 116,
      "chip": "ym2612"
    },
    {
      "channel": 2,
      "note": 73,
      "start": 33.1267,
      "duration": 0.0663,
      "velocity": 116,
      "chip": "ym2612"
    },
    {
      "channel": 3,
      "note": 70,
      "start": 33.1276,
      "duration": 0.0663,
      "velocity": 116,
      "chip": "ym2612"
    },
    {
      "channel": 1,
      "note": 64,
      "start": 33.259,
      "duration": 0.0666,
      "velocity": 116,
      "chip": "ym2612"
    },
    {
      "channel": 2,
      "note": 73,
      "start": 33.26,
      "duration": 0.0666,
      "velocity": 116,
      "chip": "ym2612"
    },
    {
      "channel": 3,
      "note": 70,
      "start": 33.2608,
      "duration": 0.0666,
      "velocity": 116,
      "chip": "ym2612"
    },
    {
      "channel": 0,
      "note": 58,
      "start": 33.3916,
      "duration": 0.1335,
      "velocity": 95,
      "chip": "ym2612"
    },
    {
      "channel": 1,
      "note": 64,
      "start": 33.3925,
      "duration": 0.0665,
      "velocity": 116,
      "chip": "ym2612"
    },
    {
      "channel": 2,
      "note": 73,
      "start": 33.3934,
      "duration": 0.0665,
      "velocity": 116,
      "chip": "ym2612"
    },
    {
      "channel": 3,
      "note": 70,
      "start": 33.3944,
      "duration": 0.0665,
      "velocity": 116,
      "chip": "ym2612"
    },
    {
      "channel": 5,
      "note": 73,
      "start": 33.4128,
      "duration": 0.0666,
      "velocity": 127,
      "chip": "ym2612"
    },
    {
      "channel": 5,
      "note": 73,
      "start": 33.4794,
      "duration": 0.0644,
      "velocity": 127,
      "chip": "ym2612"
    },
    {
      "channel": 0,
      "note": 54,
      "start": 33.5251,
      "duration": 0.1331,
      "velocity": 95,
      "chip": "ym2612"
    },
    {
      "channel": 1,
      "note": 76,
      "start": 33.5301,
      "duration": 0.2624,
      "velocity": 112,
      "chip": "ym2612"
    },
    {
      "channel": 2,
      "note": 71,
      "start": 33.5351,
      "duration": 0.2583,
      "velocity": 112,
      "chip": "ym2612"
    },
    {
      "channel": 3,
      "note": 68,
      "start": 33.5419,
      "duration": 0.2525,
      "velocity": 112,
      "chip": "ym2612"
    },
    {
      "channel": 5,
      "note": 73,
      "start": 33.5438,
      "duration": 0.269,
      "velocity": 127,
      "chip": "ym2612"
    },
    {
      "channel": 0,
      "note": 49,
      "start": 33.6582,
      "duration": 0.1333,
      "velocity": 95,
      "chip": "ym2612"
    },
    {
      "channel": 0,
      "note": 52,
      "start": 33.7916,
      "duration": 0.1333,
      "velocity": 95,
      "chip": "ym2612"
    },
    {
      "channel": 1,
      "note": 76,
      "start": 33.7925,
      "duration": 0.1334,
      "velocity": 112,
      "chip": "ym2612"
    },
    {
      "channel": 2,
      "note": 71,
      "start": 33.7935,
      "duration": 0.1333,
      "velocity": 112,
      "chip": "ym2612"
    },
    {
      "channel": 3,
      "note": 68,
      "start": 33.7944,
      "duration": 0.1334,
      "velocity": 112,
      "chip": "ym2612"
    },
    {
      "channel": 5,
      "note": 68,
      "start": 33.8128,
      "duration": 0.1333,
      "velocity": 127,
      "chip": "ym2612"
    },
    {
      "channel": 0,
      "note": 54,
      "start": 33.925,
      "duration": 0.1334,
      "velocity": 95,
      "chip": "ym2612"
    },
    {
      "channel": 1,
      "note": 76,
      "start": 33.9259,
      "duration": 0.0663,
      "velocity": 112,
      "chip": "ym2612"
    },
    {
      "channel": 2,
      "note": 71,
      "start": 33.9268,
      "duration": 0.0663,
      "velocity": 112,
      "chip": "ym2612"
    },
    {
      "channel": 3,
      "note": 68,
      "start": 33.9278,
      "duration": 0.0663,
      "velocity": 112,
      "chip": "ym2612"
    },
    {
      "channel": 5,
      "note": 68,
      "start": 33.9462,
      "duration": 0.1306,
      "velocity": 127,
      "chip": "ym2612"
    },
    {
      "channel": 0,
      "note": 48,
      "start": 34.0584,
      "duration": 0.1332,
      "velocity": 95,
      "chip": "ym2612"
    },
    {
      "channel": 1,
      "note": 64,
      "start": 34.0634,
      "duration": 0.0623,
      "velocity": 116,
      "chip": "ym2612"
    },
    {
      "channel": 2,
      "note": 71,
      "start": 34.0683,
      "duration": 0.0583,
      "velocity": 116,
      "chip": "ym2612"
    },
    {
      "channel": 3,
      "note": 68,
      "start": 34.0748,
      "duration": 0.0527,
      "velocity": 116,
      "chip": "ym2612"
    },
    {
      "channel": 5,
      "note": 62,
      "start": 34.0768,
      "duration": 0.136,
      "velocity": 127,
      "chip": "ym2612"
    },
    {
      "channel": 0,
      "note": 49,
      "start": 34.1916,
      "duration": 0.1336,
      "velocity": 95,
      "chip": "ym2612"
    },
    {
      "channel": 1,
      "note": 64,
      "start": 34.1925,
      "duration": 0.0663,
      "velocity": 116,
      "chip": "ym2612"
    },
    {
      "channel": 2,
      "note": 71,
      "start": 34.1935,
      "duration": 0.0663,
      "velocity": 116,
      "chip": "ym2612"
    },
    {
      "channel": 3,
      "note": 68,
      "start": 34.1944,
      "duration": 0.0663,
      "velocity": 116,
      "chip": "ym2612"
    },
    {
      "channel": 5,
      "note": 62,
      "start": 34.2128,
      "duration": 0.131,
      "velocity": 127,
      "chip": "ym2612"
    },
    {
      "channel": 0,
      "note": 42,
      "start": 34.3253,
      "duration": 0.0812,
      "velocity": 95,
      "chip": "ym2612"
    },
    {
      "channel": 1,
      "note": 66,
      "start": 34.3263,
      "duration": 0.0433,
      "velocity": 116,
      "chip": "ym2612"
    },
    {
      "channel": 2,
      "note": 73,
      "start": 34.3274,
      "duration": 0.0427,
      "velocity": 116,
      "chip": "ym2612"
    },
    {
      "channel": 3,
      "note": 70,
      "start": 34.3284,
      "duration": 0.0421,
      "velocity": 116,
      "chip": "ym2612"
    },
    {
      "channel": 4,
      "note": 93,
      "start": 34.3334,
      "duration": 0.174,
      "velocity": 110,
      "chip": "ym2612"
    },
    {
      "channel": 0,
      "note": 42,
      "start": 34.4065,
      "duration": 0.0836,
      "velocity": 95,
      "chip": "ym2612"
    },
    {
      "channel": 1,
      "note": 66,
      "start": 34.407,
      "duration": 0.0374,
      "velocity": 116,
      "chip": "ym2612"
    },
    {
      "channel": 2,
      "note": 73,
      "start": 34.4073,
      "duration": 0.0375,
      "velocity": 116,
      "chip": "ym2612"
    },
    {
      "channel": 3,
      "note": 70,
      "start": 34.4079,
      "duration": 0.0375,
      "velocity": 116,
      "chip": "ym2612"
    },
    {
      "channel": 0,
      "note": 49,
      "start": 34.4901,
      "duration": 0.1328,
      "velocity": 95,
      "chip": "ym2612"
    },
    {
      "channel": 1,
      "note": 78,
      "start": 34.4951,
      "duration": 0.2625,
      "velocity": 112,
      "chip": "ym2612"
    },
    {
      "channel": 2,
      "note": 73,
      "start": 34.4999,
      "duration": 0.2586,
      "velocity": 112,
      "chip": "ym2612"
    },
    {
      "channel": 3,
      "note": 70,
      "start": 34.5066,
      "duration": 0.2529,
      "velocity": 112,
      "chip": "ym2612"
    },
    {
      "channel": 4,
      "note": 90,
      "start": 34.5074,
      "duration": 0.2531,
      "velocity": 110,
      "chip": "ym2612"
    },
    {
      "channel": 0,
      "note": 49,
      "start": 34.6229,
      "duration": 0.1338,
      "velocity": 95,
      "chip": "ym2612"
    },
    {
      "channel": 0,
      "note": 52,
      "start": 34.7567,
      "duration": 0.1567,
      "velocity": 95,
      "chip": "ym2612"
    },
    {
      "channel": 1,
      "note": 78,
      "start": 34.7576,
      "duration": 0.0812,
      "velocity": 112,
      "chip": "ym2612"
    },
    {
      "channel": 2,
      "note": 73,
      "start": 34.7585,
      "duration": 0.0809,
      "velocity": 112,
      "chip": "ym2612"
    },
    {
      "channel": 3,
      "note": 70,
      "start": 34.7595,
      "duration": 0.0803,
      "velocity": 112,
      "chip": "ym2612"
    },
    {
      "channel": 4,
      "note": 88,
      "start": 34.7605,
      "duration": 0.1676,
      "velocity": 110,
      "chip": "ym2612"
    },
    {
      "channel": 1,
      "note": 78,
      "start": 34.8389,
      "duration": 0.0373,
      "velocity": 112,
      "chip": "ym2612"
    },
    {
      "channel": 2,
      "note": 73,
      "start": 34.8394,
      "duration": 0.0372,
      "velocity": 112,
      "chip": "ym2612"
    },
    {
      "channel": 3,
      "note": 70,
      "start": 34.8399,
      "duration": 0.0372,
      "velocity": 112,
      "chip": "ym2612"
    },
    {
      "channel": 1,
      "note": 66,
      "start": 34.9177,
      "duration": 0.0595,
      "velocity": 116,
      "chip": "ym2612"
    },
    {
      "channel": 2,
      "note": 73,
      "start": 34.9215,
      "duration": 0.0566,
      "velocity": 116,
      "chip": "ym2612"
    },
    {
      "channel": 3,
      "note": 70,
      "start": 34.9276,
      "duration": 0.0515,
      "velocity": 116,
      "chip": "ym2612"
    },
    {
      "channel": 4,
      "note": 85,
      "start": 34.9281,
      "duration": 0.2525,
      "velocity": 110,
      "chip": "ym2612"
    },
    {
      "channel": 0,
      "note": 54,
      "start": 35.0434,
      "duration": 0.2666,
      "velocity": 95,
      "chip": "ym2612"
    },
    {
      "channel": 1,
      "note": 66,
      "start": 35.0443,
      "duration": 0.0663,
      "velocity": 116,
      "chip": "ym2612"
    },
    {
      "channel": 2,
      "note": 73,
      "start": 35.0452,
      "duration": 0.0663,
      "velocity": 116,
      "chip": "ym2612"
    },
    {
      "channel": 3,
      "note": 70,
      "start": 35.0461,
      "duration": 0.0663,
      "velocity": 116,
      "chip": "ym2612"
    },
    {
      "channel": 1,
      "note": 64,
      "start": 35.1776,
      "duration": 0.0663,
      "velocity": 116,
      "chip": "ym2612"
    },
    {
      "channel": 2,
      "note": 73,
      "start": 35.1786,
      "duration": 0.0663,
      "velocity": 116,
      "chip": "ym2612"
    },
    {
      "channel": 3,
      "note": 70,
      "start": 35.1795,
      "duration": 0.0663,
      "velocity": 116,
      "chip": "ym2612"
    },
    {
      "channel": 4,
      "note": 88,
      "start": 35.1806,
      "duration": 0.2807,
      "velocity": 110,
      "chip": "ym2612"
    },
    {
      "channel": 0,
      "note": 54,
      "start": 35.31,
      "duration": 0.1336,
      "velocity": 95,
      "chip": "ym2612"
    },
    {
      "channel": 1,
      "note": 64,
      "start": 35.3109,
      "duration": 0.0663,
      "velocity": 116,
      "chip": "ym2612"
    },
    {
      "channel": 2,
      "note": 73,
      "start": 35.3119,
      "duration": 0.0663,
      "velocity": 116,
      "chip": "ym2612"
    },
    {
      "channel": 3,
      "note": 70,
      "start": 35.3127,
      "duration": 0.0663,
      "velocity": 116,
      "chip": "ym2612"
    },
    {
      "channel": 0,
      "note": 52,
      "start": 35.4436,
      "duration": 0.0832,
      "velocity": 95,
      "chip": "ym2612"
    },
    {
      "channel": 1,
      "note": 76,
      "start": 35.4486,
      "duration": 0.1623,
      "velocity": 112,
      "chip": "ym2612"
    },
    {
      "channel": 2,
      "note": 71,
      "start": 35.4537,
      "duration": 0.1582,
      "velocity": 112,
      "chip": "ym2612"
    },
    {
      "channel": 3,
      "note": 68,
      "start": 35.4604,
      "duration": 0.1524,
      "velocity": 112,
      "chip": "ym2612"
    },
    {
      "channel": 0,
      "note": 51,
      "start": 35.5268,
      "duration": 0.0831,
      "velocity": 95,
      "chip": "ym2612"
    },
    {
      "channel": 4,
      "note": 91,
      "start": 35.5287,
      "duration": 0.2531,
      "velocity": 110,
      "chip": "ym2612"
    },
    {
      "channel": 0,
      "note": 47,
      "start": 35.61,
      "duration": 0.0811,
      "velocity": 95,
      "chip": "ym2612"
    },
    {
      "channel": 1,
      "note": 76,
      "start": 35.6109,
      "duration": 0.0807,
      "velocity": 112,
      "chip": "ym2612"
    },
    {
      "channel": 2,
      "note": 71,
      "start": 35.6119,
      "duration": 0.0802,
      "velocity": 112,
      "chip": "ym2612"
    },
    {
      "channel": 3,
      "note": 68,
      "start": 35.6128,
      "duration": 0.0799,
      "velocity": 112,
      "chip": "ym2612"
    },
    {
      "channel": 0,
      "note": 47,
      "start": 35.6912,
      "duration": 0.0751,
      "velocity": 95,
      "chip": "ym2612"
    },
    {
      "channel": 1,
      "note": 76,
      "start": 35.6917,
      "duration": 0.037,
      "velocity": 112,
      "chip": "ym2612"
    },
    {
      "channel": 2,
      "note": 71,
      "start": 35.6922,
      "duration": 0.037,
      "velocity": 112,
      "chip": "ym2612"
    },
    {
      "channel": 3,
      "note": 68,
      "start": 35.6927,
      "duration": 0.0369,
      "velocity": 112,
      "chip": "ym2612"
    },
    {
      "channel": 0,
      "note": 48,
      "start": 35.7663,
      "duration": 0.1306,
      "velocity": 95,
      "chip": "ym2612"
    },
    {
      "channel": 1,
      "note": 64,
      "start": 35.7703,
      "duration": 0.0605,
      "velocity": 116,
      "chip": "ym2612"
    },
    {
      "channel": 2,
      "note": 71,
      "start": 35.7745,
      "duration": 0.0572,
      "velocity": 116,
      "chip": "ym2612"
    },
    {
      "channel": 3,
      "note": 68,
      "start": 35.781,
      "duration": 0.0516,
      "velocity": 116,
      "chip": "ym2612"
    },
    {
      "channel": 4,
      "note": 94,
      "start": 35.7818,
      "duration": 0.2527,
      "velocity": 110,
      "chip": "ym2612"
    },
    {
      "channel": 0,
      "note": 49,
      "start": 35.8969,
      "duration": 0.1333,
      "velocity": 95,
      "chip": "ym2612"
    },
    {
      "channel": 1,
      "note": 64,
      "start": 35.8978,
      "duration": 0.0662,
      "velocity": 116,
      "chip": "ym2612"
    },
    {
      "channel": 2,
      "note": 71,
      "start": 35.8988,
      "duration": 0.0662,
      "velocity": 116,
      "chip": "ym2612"
    },
    {
      "channel": 3,
      "note": 68,
      "start": 35.8996,
      "duration": 0.0662,
      "velocity": 116,
      "chip": "ym2612"
    },
    {
      "channel": 0,
      "note": 42,
      "start": 36.0303,
      "duration": 0.0815,
      "velocity": 95,
      "chip": "ym2612"
    },
    {
      "channel": 1,
      "note": 66,
      "start": 36.0313,
      "duration": 0.0431,
      "velocity": 116,
      "chip": "ym2612"
    },
    {
      "channel": 2,
      "note": 73,
      "start": 36.0324,
      "duration": 0.0426,
      "velocity": 116,
      "chip": "ym2612"
    },
    {
      "channel": 3,
      "note": 70,
      "start": 36.0334,
      "duration": 0.042,
      "velocity": 116,
      "chip": "ym2612"
    },
    {
      "channel": 4,
      "note": 91,
      "start": 36.0345,
      "duration": 0.1782,
      "velocity": 110,
      "chip": "ym2612"
    },
    {
      "channel": 0,
      "note": 42,
      "start": 36.1118,
      "duration": 0.0835,
      "velocity": 95,
      "chip": "ym2612"
    },
    {
      "channel": 1,
      "note": 66,
      "start": 36.1123,
      "duration": 0.0371,
      "velocity": 116,
      "chip": "ym2612"
    },
    {
      "channel": 2,
      "note": 73,
      "start": 36.1126,
      "duration": 0.0371,
      "velocity": 116,
      "chip": "ym2612"
    },
    {
      "channel": 3,
      "note": 70,
      "start": 36.1132,
      "duration": 0.0371,
      "velocity": 116,
      "chip": "ym2612"
    },
    {
      "channel": 0,
      "note": 49,
      "start": 36.1953,
      "duration": 0.1328,
      "velocity": 95,
      "chip": "ym2612"
    },
    {
      "channel": 1,
      "note": 78,
      "start": 36.2003,
      "duration": 0.2624,
      "velocity": 112,
      "chip": "ym2612"
    },
    {
      "channel": 2,
      "note": 73,
      "start": 36.2052,
      "duration": 0.2584,
      "velocity": 112,
      "chip": "ym2612"
    },
    {
      "channel": 3,
      "note": 70,
      "start": 36.2118,
      "duration": 0.2528,
      "velocity": 112,
      "chip": "ym2612"
    },
    {
      "channel": 4,
      "note": 90,
      "start": 36.2127,
      "duration": 0.2529,
      "velocity": 110,
      "chip": "ym2612"
    },
    {
      "channel": 0,
      "note": 49,
      "start": 36.3281,
      "duration": 0.1337,
      "velocity": 95,
      "chip": "ym2612"
    },
    {
      "channel": 0,
      "note": 52,
      "start": 36.4618,
      "duration": 0.082,
      "velocity": 95,
      "chip": "ym2612"
    },
    {
      "channel": 1,
      "note": 78,
      "start": 36.4628,
      "duration": 0.0816,
      "velocity": 112,
      "chip": "ym2612"
    },
    {
      "channel": 2,
      "note": 73,
      "start": 36.4637,
      "duration": 0.081,
      "velocity": 112,
      "chip": "ym2612"
    },
    {
      "channel": 3,
      "note": 70,
      "start": 36.4646,
      "duration": 0.0806,
      "velocity": 112,
      "chip": "ym2612"
    },
    {
      "channel": 4,
      "note": 88,
      "start": 36.4656,
      "duration": 0.1677,
      "velocity": 110,
      "chip": "ym2612"
    },
    {
      "channel": 0,
      "note": 48,
      "start": 36.5438,
      "duration": 0.0747,
      "velocity": 95,
      "chip": "ym2612"
    },
    {
      "channel": 1,
      "note": 78,
      "start": 36.5443,
      "duration": 0.0373,
      "velocity": 112,
      "chip": "ym2612"
    },
    {
      "channel": 2,
      "note": 73,
      "start": 36.5447,
      "duration": 0.0374,
      "velocity": 112,
      "chip": "ym2612"
    },
    {
      "channel": 3,
      "note": 70,
      "start": 36.5452,
      "duration": 0.0374,
      "velocity": 112,
      "chip": "ym2612"
    },
    {
      "channel": 0,
      "note": 49,
      "start": 36.6185,
      "duration": 0.1298,
      "velocity": 95,
      "chip": "ym2612"
    },
    {
      "channel": 1,
      "note": 66,
      "start": 36.6226,
      "duration": 0.0596,
      "velocity": 116,
      "chip": "ym2612"
    },
    {
      "channel": 2,
      "note": 73,
      "start": 36.6267,
      "duration": 0.0565,
      "velocity": 116,
      "chip": "ym2612"
    },
    {
      "channel": 3,
      "note": 70,
      "start": 36.6328,
      "duration": 0.0513,
      "velocity": 116,
      "chip": "ym2612"
    },
    {
      "channel": 4,
      "note": 85,
      "start": 36.6334,
      "duration": 0.252,
      "velocity": 110,
      "chip": "ym2612"
    },
    {
      "channel": 0,
      "note": 59,
      "start": 36.7483,
      "duration": 0.2667,
      "velocity": 95,
      "chip": "ym2612"
    },
    {
      "channel": 1,
      "note": 66,
      "start": 36.7493,
      "duration": 0.0662,
      "velocity": 116,
      "chip": "ym2612"
    },
    {
      "channel": 2,
      "note": 73,
      "start": 36.7502,
      "duration": 0.0662,
      "velocity": 116,
      "chip": "ym2612"
    },
    {
      "channel": 3,
      "note": 70,
      "start": 36.7511,
      "duration": 0.0662,
      "velocity": 116,
      "chip": "ym2612"
    },
    {
      "channel": 1,
      "note": 64,
      "start": 36.8825,
      "duration": 0.0663,
      "velocity": 116,
      "chip": "ym2612"
    },
    {
      "channel": 2,
      "note": 73,
      "start": 36.8834,
      "duration": 0.0663,
      "velocity": 116,
      "chip": "ym2612"
    },
    {
      "channel": 3,
      "note": 70,
      "start": 36.8844,
      "duration": 0.0663,
      "velocity": 116,
      "chip": "ym2612"
    },
    {
      "channel": 4,
      "note": 88,
      "start": 36.8854,
      "duration": 0.2289,
      "velocity": 110,
      "chip": "ym2612"
    },
    {
      "channel": 0,
      "note": 48,
      "start": 37.015,
      "duration": 0.0847,
      "velocity": 95,
      "chip": "ym2612"
    },
    {
      "channel": 1,
      "note": 64,
      "start": 37.0159,
      "duration": 0.0463,
      "velocity": 116,
      "chip": "ym2612"
    },
    {
      "channel": 2,
      "note": 73,
      "start": 37.0168,
      "duration": 0.0458,
      "velocity": 116,
      "chip": "ym2612"
    },
    {
      "channel": 3,
      "note": 70,
      "start": 37.0177,
      "duration": 0.0454,
      "velocity": 116,
      "chip": "ym2612"
    },
    {
      "channel": 0,
      "note": 49,
      "start": 37.0997,
      "duration": 0.0798,
      "velocity": 95,
      "chip": "ym2612"
    },
    {
      "channel": 1,
      "note": 76,
      "start": 37.1037,
      "duration": 0.1592,
      "velocity": 112,
      "chip": "ym2612"
    },
    {
      "channel": 2,
      "note": 71,
      "start": 37.1076,
      "duration": 0.1561,
      "velocity": 112,
      "chip": "ym2612"
    },
    {
      "channel": 3,
      "note": 68,
      "start": 37.1138,
      "duration": 0.1508,
      "velocity": 112,
      "chip": "ym2612"
    },
    {
      "channel": 0,
      "note": 58,
      "start": 37.1795,
      "duration": 0.1645,
      "velocity": 95,
      "chip": "ym2612"
    },
    {
      "channel": 4,
      "note": 88,
      "start": 37.1813,
      "duration": 0.3721,
      "velocity": 110,
      "chip": "ym2612"
    },
    {
      "channel": 1,
      "note": 76,
      "start": 37.2628,
      "duration": 0.0816,
      "velocity": 112,
      "chip": "ym2612"
    },
    {
      "channel": 2,
      "note": 71,
      "start": 37.2638,
      "duration": 0.0812,
      "velocity": 112,
      "chip": "ym2612"
    },
    {
      "channel": 3,
      "note": 68,
      "start": 37.2647,
      "duration": 0.0807,
      "velocity": 112,
      "chip": "ym2612"
    },
    {
      "channel": 0,
      "note": 48,
      "start": 37.344,
      "duration": 0.0751,
      "velocity": 95,
      "chip": "ym2612"
    },
    {
      "channel": 1,
      "note": 76,
      "start": 37.3444,
      "duration": 0.0371,
      "velocity": 112,
      "chip": "ym2612"
    },
    {
      "channel": 2,
      "note": 71,
      "start": 37.345,
      "duration": 0.0371,
      "velocity": 112,
      "chip": "ym2612"
    },
    {
      "channel": 3,
      "note": 68,
      "start": 37.3454,
      "duration": 0.037,
      "velocity": 112,
      "chip": "ym2612"
    },
    {
      "channel": 0,
      "note": 49,
      "start": 37.4191,
      "duration": 0.1305,
      "velocity": 95,
      "chip": "ym2612"
    },
    {
      "channel": 1,
      "note": 64,
      "start": 37.4235,
      "duration": 0.0601,
      "velocity": 116,
      "chip": "ym2612"
    },
    {
      "channel": 2,
      "note": 71,
      "start": 37.4276,
      "duration": 0.057,
      "velocity": 116,
      "chip": "ym2612"
    },
    {
      "channel": 3,
      "note": 68,
      "start": 37.4339,
      "duration": 0.0516,
      "velocity": 116,
      "chip": "ym2612"
    },
    {
      "channel": 0,
      "note": 56,
      "start": 37.5496,
      "duration": 0.1335,
      "velocity": 95,
      "chip": "ym2612"
    },
    {
      "channel": 1,
      "note": 64,
      "start": 37.5505,
      "duration": 0.0664,
      "velocity": 116,
      "chip": "ym2612"
    },
    {
      "channel": 2,
      "note": 71,
      "start": 37.5515,
      "duration": 0.0663,
      "velocity": 116,
      "chip": "ym2612"
    },
    {
      "channel": 3,
      "note": 68,
      "start": 37.5524,
      "duration": 0.0663,
      "velocity": 116,
      "chip": "ym2612"
    },
    {
      "channel": 0,
      "note": 42,
      "start": 37.6832,
      "duration": 0.0812,
      "velocity": 95,
      "chip": "ym2612"
    },
    {
      "channel": 1,
      "note": 66,
      "start": 37.6842,
      "duration": 0.043,
      "velocity": 116,
      "chip": "ym2612"
    },
    {
      "channel": 2,
      "note": 73,
      "start": 37.6852,
      "duration": 0.0424,
      "velocity": 116,
      "chip": "ym2612"
    },
    {
      "channel": 3,
      "note": 70,
      "start": 37.6863,
      "duration": 0.0418,
      "velocity": 116,
      "chip": "ym2612"
    },
    {
      "channel": 4,
      "note": 89,
      "start": 37.6873,
      "duration": 0.1781,
      "velocity": 110,
      "chip": "ym2612"
    },
    {
      "channel": 0,
      "note": 42,
      "start": 37.7644,
      "duration": 0.0837,
      "velocity": 95,
      "chip": "ym2612"
    },
    {
      "channel": 1,
      "note": 66,
      "start": 37.7649,
      "duration": 0.037,
      "velocity": 116,
      "chip": "ym2612"
    },
    {
      "channel": 2,
      "note": 73,
      "start": 37.7653,
      "duration": 0.0371,
      "velocity": 116,
      "chip": "ym2612"
    },
    {
      "channel": 3,
      "note": 70,
      "start": 37.7658,
      "duration": 0.037,
      "velocity": 116,
      "chip": "ym2612"
    },
    {
      "channel": 0,
      "note": 49,
      "start": 37.8481,
      "duration": 0.133,
      "velocity": 95,
      "chip": "ym2612"
    },
    {
      "channel": 1,
      "note": 78,
      "start": 37.8531,
      "duration": 0.2625,
      "velocity": 112,
      "chip": "ym2612"
    },
    {
      "channel": 2,
      "note": 73,
      "start": 37.858,
      "duration": 0.2585,
      "velocity": 112,
      "chip": "ym2612"
    },
    {
      "channel": 3,
      "note": 70,
      "start": 37.8646,
      "duration": 0.2529,
      "velocity": 112,
      "chip": "ym2612"
    },
    {
      "channel": 4,
      "note": 90,
      "start": 37.8654,
      "duration": 0.2531,
      "velocity": 110,
      "chip": "ym2612"
    },
    {
      "channel": 0,
      "note": 49,
      "start": 37.9811,
      "duration": 0.1336,
      "velocity": 95,
      "chip": "ym2612"
    },
    {
      "channel": 0,
      "note": 52,
      "start": 38.1147,
      "duration": 0.156,
      "velocity": 95,
      "chip": "ym2612"
    },
    {
      "channel": 1,
      "note": 78,
      "start": 38.1156,
      "duration": 0.081,
      "velocity": 112,
      "chip": "ym2612"
    },
    {
      "channel": 2,
      "note": 73,
      "start": 38.1166,
      "duration": 0.0804,
      "velocity": 112,
      "chip": "ym2612"
    },
    {
      "channel": 3,
      "note": 70,
      "start": 38.1175,
      "duration": 0.08,
      "velocity": 112,
      "chip": "ym2612"
    },
    {
      "channel": 4,
      "note": 88,
      "start": 38.1185,
      "duration": 0.1667,
      "velocity": 110,
      "chip": "ym2612"
    },
    {
      "channel": 1,
      "note": 78,
      "start": 38.1966,
      "duration": 0.0371,
      "velocity": 112,
      "chip": "ym2612"
    },
    {
      "channel": 2,
      "note": 73,
      "start": 38.197,
      "duration": 0.0371,
      "velocity": 112,
      "chip": "ym2612"
    },
    {
      "channel": 3,
      "note": 70,
      "start": 38.1975,
      "duration": 0.0371,
      "velocity": 112,
      "chip": "ym2612"
    },
    {
      "channel": 1,
      "note": 66,
      "start": 38.275,
      "duration": 0.0592,
      "velocity": 116,
      "chip": "ym2612"
    },
    {
      "channel": 2,
      "note": 73,
      "start": 38.2788,
      "duration": 0.0564,
      "velocity": 116,
      "chip": "ym2612"
    },
    {
      "channel": 3,
      "note": 70,
      "start": 38.2847,
      "duration": 0.0513,
      "velocity": 116,
      "chip": "ym2612"
    },
    {
      "channel": 4,
      "note": 85,
      "start": 38.2853,
      "duration": 0.2522,
      "velocity": 110,
      "chip": "ym2612"
    },
    {
      "channel": 0,
      "note": 54,
      "start": 38.4003,
      "duration": 0.2666,
      "velocity": 95,
      "chip": "ym2612"
    },
    {
      "channel": 1,
      "note": 66,
      "start": 38.4012,
      "duration": 0.0663,
      "velocity": 116,
      "chip": "ym2612"
    },
    {
      "channel": 2,
      "note": 73,
      "start": 38.4022,
      "duration": 0.0663,
      "velocity": 116,
      "chip": "ym2612"
    },
    {
      "channel": 3,
      "note": 70,
      "start": 38.4031,
      "duration": 0.0663,
      "velocity": 116,
      "chip": "ym2612"
    },
    {
      "channel": 1,
      "note": 64,
      "start": 38.5346,
      "duration": 0.0663,
      "velocity": 116,
      "chip": "ym2612"
    },
    {
      "channel": 2,
      "note": 73,
      "start": 38.5355,
      "duration": 0.0663,
      "velocity": 116,
      "chip": "ym2612"
    },
    {
      "channel": 3,
      "note": 70,
      "start": 38.5365,
      "duration": 0.0663,
      "velocity": 116,
      "chip": "ym2612"
    },
    {
      "channel": 4,
      "note": 88,
      "start": 38.5375,
      "duration": 0.2806,
      "velocity": 110,
      "chip": "ym2612"
    },
    {
      "channel": 0,
      "note": 54,
      "start": 38.6669,
      "duration": 0.1334,
      "velocity": 95,
      "chip": "ym2612"
    },
    {
      "channel": 1,
      "note": 64,
      "start": 38.6678,
      "duration": 0.0665,
      "velocity": 116,
      "chip": "ym2612"
    },
    {
      "channel": 2,
      "note": 73,
      "start": 38.6688,
      "duration": 0.0665,
      "velocity": 116,
      "chip": "ym2612"
    },
    {
      "channel": 3,
      "note": 70,
      "start": 38.6697,
      "duration": 0.0666,
      "velocity": 116,
      "chip": "ym2612"
    },
    {
      "channel": 0,
      "note": 52,
      "start": 38.8005,
      "duration": 0.0829,
      "velocity": 95,
      "chip": "ym2612"
    },
    {
      "channel": 1,
      "note": 76,
      "start": 38.8055,
      "duration": 0.1611,
      "velocity": 112,
      "chip": "ym2612"
    },
    {
      "channel": 2,
      "note": 71,
      "start": 38.8104,
      "duration": 0.1571,
      "velocity": 112,
      "chip": "ym2612"
    },
    {
      "channel": 3,
      "note": 68,
      "start": 38.8172,
      "duration": 0.1512,
      "velocity": 112,
      "chip": "ym2612"
    },
    {
      "channel": 0,
      "note": 51,
      "start": 38.8834,
      "duration": 0.0823,
      "velocity": 95,
      "chip": "ym2612"
    },
    {
      "channel": 4,
      "note": 91,
      "start": 38.8853,
      "duration": 0.2525,
      "velocity": 110,
      "chip": "ym2612"
    },
    {
      "channel": 0,
      "note": 47,
      "start": 38.9657,
      "duration": 0.082,
      "velocity": 95,
      "chip": "ym2612"
    },
    {
      "channel": 1,
      "note": 76,
      "start": 38.9666,
      "duration": 0.0815,
      "velocity": 112,
      "chip": "ym2612"
    },
    {
      "channel": 2,
      "note": 71,
      "start": 38.9675,
      "duration": 0.0812,
      "velocity": 112,
      "chip": "ym2612"
    },
    {
      "channel": 3,
      "note": 68,
      "start": 38.9685,
      "duration": 0.0807,
      "velocity": 112,
      "chip": "ym2612"
    },
    {
      "channel": 0,
      "note": 47,
      "start": 39.0477,
      "duration": 0.0755,
      "velocity": 95,
      "chip": "ym2612"
    },
    {
      "channel": 1,
      "note": 76,
      "start": 39.0482,
      "duration": 0.0374,
      "velocity": 112,
      "chip": "ym2612"
    },
    {
      "channel": 2,
      "note": 71,
      "start": 39.0487,
      "duration": 0.0374,
      "velocity": 112,
      "chip": "ym2612"
    },
    {
      "channel": 3,
      "note": 68,
      "start": 39.0492,
      "duration": 0.0373,
      "velocity": 112,
      "chip": "ym2612"
    },
    {
      "channel": 0,
      "note": 48,
      "start": 39.1232,
      "duration": 0.1297,
      "velocity": 95,
      "chip": "ym2612"
    },
    {
      "channel": 1,
      "note": 64,
      "start": 39.1272,
      "duration": 0.0595,
      "velocity": 116,
      "chip": "ym2612"
    },
    {
      "channel": 2,
      "note": 71,
      "start": 39.1311,
      "duration": 0.0565,
      "velocity": 116,
      "chip": "ym2612"
    },
    {
      "channel": 3,
      "note": 68,
      "start": 39.1373,
      "duration": 0.0513,
      "velocity": 116,
      "chip": "ym2612"
    },
    {
      "channel": 4,
      "note": 95,
      "start": 39.1378,
      "duration": 0.253,
      "velocity": 110,
      "chip": "ym2612"
    },
    {
      "channel": 0,
      "note": 49,
      "start": 39.2528,
      "duration": 0.1338,
      "velocity": 95,
      "chip": "ym2612"
    },
    {
      "channel": 1,
      "note": 64,
      "start": 39.2538,
      "duration": 0.0663,
      "velocity": 116,
      "chip": "ym2612"
    },
    {
      "channel": 2,
      "note": 71,
      "start": 39.2547,
      "duration": 0.0663,
      "velocity": 116,
      "chip": "ym2612"
    },
    {
      "channel": 3,
      "note": 68,
      "start": 39.2556,
      "duration": 0.0663,
      "velocity": 116,
      "chip": "ym2612"
    },
    {
      "channel": 0,
      "note": 42,
      "start": 39.3866,
      "duration": 0.082,
      "velocity": 95,
      "chip": "ym2612"
    },
    {
      "channel": 1,
      "note": 66,
      "start": 39.3877,
      "duration": 0.0432,
      "velocity": 116,
      "chip": "ym2612"
    },
    {
      "channel": 2,
      "note": 73,
      "start": 39.3887,
      "duration": 0.0427,
      "velocity": 116,
      "chip": "ym2612"
    },
    {
      "channel": 3,
      "note": 70,
      "start": 39.3898,
      "duration": 0.0421,
      "velocity": 116,
      "chip": "ym2612"
    },
    {
      "channel": 4,
      "note": 95,
      "start": 39.3908,
      "duration": 0.1791,
      "velocity": 110,
      "chip": "ym2612"
    },
    {
      "channel": 0,
      "note": 42,
      "start": 39.4686,
      "duration": 0.0838,
      "velocity": 95,
      "chip": "ym2612"
    },
    {
      "channel": 1,
      "note": 66,
      "start": 39.469,
      "duration": 0.0375,
      "velocity": 116,
      "chip": "ym2612"
    },
    {
      "channel": 2,
      "note": 73,
      "start": 39.4696,
      "duration": 0.0375,
      "velocity": 116,
      "chip": "ym2612"
    },
    {
      "channel": 3,
      "note": 70,
      "start": 39.47,
      "duration": 0.0375,
      "velocity": 116,
      "chip": "ym2612"
    },
    {
      "channel": 0,
      "note": 49,
      "start": 39.5524,
      "duration": 0.1329,
      "velocity": 95,
      "chip": "ym2612"
    },
    {
      "channel": 1,
      "note": 78,
      "start": 39.5574,
      "duration": 0.2624,
      "velocity": 112,
      "chip": "ym2612"
    },
    {
      "channel": 2,
      "note": 73,
      "start": 39.5623,
      "duration": 0.2585,
      "velocity": 112,
      "chip": "ym2612"
    },
    {
      "channel": 3,
      "note": 70,
      "start": 39.5688,
      "duration": 0.2528,
      "velocity": 112,
      "chip": "ym2612"
    },
    {
      "channel": 4,
      "note": 95,
      "start": 39.5699,
      "duration": 0.2527,
      "velocity": 110,
      "chip": "ym2612"
    },
    {
      "channel": 0,
      "note": 49,
      "start": 39.6853,
      "duration": 0.1337,
      "velocity": 95,
      "chip": "ym2612"
    },
    {
      "channel": 0,
      "note": 52,
      "start": 39.8189,
      "duration": 0.0817,
      "velocity": 95,
      "chip": "ym2612"
    },
    {
      "channel": 1,
      "note": 78,
      "start": 39.8198,
      "duration": 0.0812,
      "velocity": 112,
      "chip": "ym2612"
    },
    {
      "channel": 2,
      "note": 73,
      "start": 39.8208,
      "duration": 0.0807,
      "velocity": 112,
      "chip": "ym2612"
    },
    {
      "channel": 3,
      "note": 70,
      "start": 39.8217,
      "duration": 0.0804,
      "velocity": 112,
      "chip": "ym2612"
    },
    {
      "channel": 4,
      "note": 93,
      "start": 39.8227,
      "duration": 0.1678,
      "velocity": 110,
      "chip": "ym2612"
    },
    {
      "channel": 0,
      "note": 48,
      "start": 39.9006,
      "duration": 0.0749,
      "velocity": 95,
      "chip": "ym2612"
    },
    {
      "channel": 1,
      "note": 78,
      "start": 39.901,
      "duration": 0.037,
      "velocity": 112,
      "chip": "ym2612"
    },
    {
      "channel": 2,
      "note": 73,
      "start": 39.9016,
      "duration": 0.0369,
      "velocity": 112,
      "chip": "ym2612"
    },
    {
      "channel": 3,
      "note": 70,
      "start": 39.9021,
      "duration": 0.0369,
      "velocity": 112,
      "chip": "ym2612"
    },
    {
      "channel": 0,
      "note": 49,
      "start": 39.9755,
      "duration": 0.1301,
      "velocity": 95,
      "chip": "ym2612"
    },
    {
      "channel": 1,
      "note": 66,
      "start": 39.9796,
      "duration": 0.0599,
      "velocity": 116,
      "chip": "ym2612"
    },
    {
      "channel": 2,
      "note": 73,
      "start": 39.9838,
      "duration": 0.0566,
      "velocity": 116,
      "chip": "ym2612"
    },
    {
      "channel": 3,
      "note": 70,
      "start": 39.9899,
      "duration": 0.0515,
      "velocity": 116,
      "chip": "ym2612"
    },
    {
      "channel": 4,
      "note": 90,
      "start": 39.9906,
      "duration": 0.2523,
      "velocity": 110,
      "chip": "ym2612"
    },
    {
      "channel": 0,
      "note": 59,
      "start": 40.1056,
      "duration": 0.2666,
      "velocity": 95,
      "chip": "ym2612"
    },
    {
      "channel": 1,
      "note": 66,
      "start": 40.1065,
      "duration": 0.0662,
      "velocity": 116,
      "chip": "ym2612"
    },
    {
      "channel": 2,
      "note": 73,
      "start": 40.1075,
      "duration": 0.0662,
      "velocity": 116,
      "chip": "ym2612"
    },
    {
      "channel": 3,
      "note": 70,
      "start": 40.1083,
      "duration": 0.0662,
      "velocity": 116,
      "chip": "ym2612"
    },
    {
      "channel": 1,
      "note": 64,
      "start": 40.24,
      "duration": 0.0662,
      "velocity": 116,
      "chip": "ym2612"
    },
    {
      "channel": 2,
      "note": 73,
      "start": 40.241,
      "duration": 0.0662,
      "velocity": 116,
      "chip": "ym2612"
    },
    {
      "channel": 3,
      "note": 70,
      "start": 40.2419,
      "duration": 0.0662,
      "velocity": 116,
      "chip": "ym2612"
    },
    {
      "channel": 4,
      "note": 91,
      "start": 40.2429,
      "duration": 0.2925,
      "velocity": 110,
      "chip": "ym2612"
    },
    {
      "channel": 0,
      "note": 58,
      "start": 40.3722,
      "duration": 0.0817,
      "velocity": 95,
      "chip": "ym2612"
    },
    {
      "channel": 1,
      "note": 64,
      "start": 40.3732,
      "duration": 0.0435,
      "velocity": 116,
      "chip": "ym2612"
    },
    {
      "channel": 2,
      "note": 73,
      "start": 40.3741,
      "duration": 0.043,
      "velocity": 116,
      "chip": "ym2612"
    },
    {
      "channel": 3,
      "note": 70,
      "start": 40.375,
      "duration": 0.0427,
      "velocity": 116,
      "chip": "ym2612"
    },
    {
      "channel": 0,
      "note": 54,
      "start": 40.4539,
      "duration": 0.0796,
      "velocity": 95,
      "chip": "ym2612"
    },
    {
      "channel": 1,
      "note": 76,
      "start": 40.458,
      "duration": 0.159,
      "velocity": 112,
      "chip": "ym2612"
    },
    {
      "channel": 2,
      "note": 71,
      "start": 40.4624,
      "duration": 0.1555,
      "velocity": 112,
      "chip": "ym2612"
    },
    {
      "channel": 3,
      "note": 68,
      "start": 40.4683,
      "duration": 0.1505,
      "velocity": 112,
      "chip": "ym2612"
    },
    {
      "channel": 0,
      "note": 49,
      "start": 40.5336,
      "duration": 0.0824,
      "velocity": 95,
      "chip": "ym2612"
    },
    {
      "channel": 4,
      "note": 90,
      "start": 40.5354,
      "duration": 0.3212,
      "velocity": 110,
      "chip": "ym2612"
    },
    {
      "channel": 0,
      "note": 52,
      "start": 40.616,
      "duration": 0.0842,
      "velocity": 95,
      "chip": "ym2612"
    },
    {
      "channel": 1,
      "note": 76,
      "start": 40.617,
      "duration": 0.0837,
      "velocity": 112,
      "chip": "ym2612"
    },
    {
      "channel": 2,
      "note": 71,
      "start": 40.6179,
      "duration": 0.0833,
      "velocity": 112,
      "chip": "ym2612"
    },
    {
      "channel": 3,
      "note": 68,
      "start": 40.6188,
      "duration": 0.0828,
      "velocity": 112,
      "chip": "ym2612"
    },
    {
      "channel": 0,
      "note": 54,
      "start": 40.7002,
      "duration": 0.0751,
      "velocity": 95,
      "chip": "ym2612"
    },
    {
      "channel": 1,
      "note": 76,
      "start": 40.7007,
      "duration": 0.0372,
      "velocity": 112,
      "chip": "ym2612"
    },
    {
      "channel": 2,
      "note": 71,
      "start": 40.7012,
      "duration": 0.0373,
      "velocity": 112,
      "chip": "ym2612"
    },
    {
      "channel": 3,
      "note": 68,
      "start": 40.7017,
      "duration": 0.0373,
      "velocity": 112,
      "chip": "ym2612"
    },
    {
      "channel": 0,
      "note": 48,
      "start": 40.7754,
      "duration": 0.0794,
      "velocity": 95,
      "chip": "ym2612"
    },
    {
      "channel": 1,
      "note": 64,
      "start": 40.7794,
      "duration": 0.0381,
      "velocity": 116,
      "chip": "ym2612"
    },
    {
      "channel": 2,
      "note": 71,
      "start": 40.7833,
      "duration": 0.0348,
      "velocity": 116,
      "chip": "ym2612"
    },
    {
      "channel": 3,
      "note": 68,
      "start": 40.7895,
      "duration": 0.029,
      "velocity": 116,
      "chip": "ym2612"
    },
    {
      "channel": 0,
      "note": 49,
      "start": 40.8548,
      "duration": 0.075,
      "velocity": 95,
      "chip": "ym2612"
    },
    {
      "channel": 1,
      "note": 64,
      "start": 40.8552,
      "duration": 0.0371,
      "velocity": 116,
      "chip": "ym2612"
    },
    {
      "channel": 2,
      "note": 71,
      "start": 40.8557,
      "duration": 0.037,
      "velocity": 116,
      "chip": "ym2612"
    },
    {
      "channel": 3,
      "note": 68,
      "start": 40.8562,
      "duration": 0.037,
      "velocity": 116,
      "chip": "ym2612"
    },
    {
      "channel": 0,
      "note": 42,
      "start": 40.9297,
      "duration": 0.0759,
      "velocity": 95,
      "chip": "ym2612"
    },
    {
      "channel": 1,
      "note": 66,
      "start": 40.9303,
      "duration": 0.0383,
      "velocity": 116,
      "chip": "ym2612"
    },
    {
      "channel": 2,
      "note": 73,
      "start": 40.9309,
      "duration": 0.0382,
      "velocity": 116,
      "chip": "ym2612"
    },
    {
      "channel": 3,
      "note": 70,
      "start": 40.9316,
      "duration": 0.038,
      "velocity": 116,
      "chip": "ym2612"
    },
    {
      "channel": 4,
      "note": 90,
      "start": 40.9321,
      "duration": 0.1756,
      "velocity": 110,
      "chip": "ym2612"
    },
    {
      "channel": 0,
      "note": 42,
      "start": 41.0057,
      "duration": 0.0846,
      "velocity": 95,
      "chip": "ym2612"
    },
    {
      "channel": 1,
      "note": 66,
      "start": 41.0062,
      "duration": 0.0375,
      "velocity": 116,
      "chip": "ym2612"
    },
    {
      "channel": 2,
      "note": 73,
      "start": 41.0068,
      "duration": 0.0374,
      "velocity": 116,
      "chip": "ym2612"
    },
    {
      "channel": 3,
      "note": 70,
      "start": 41.0071,
      "duration": 0.0375,
      "velocity": 116,
      "chip": "ym2612"
    },
    {
      "channel": 0,
      "note": 49,
      "start": 41.0904,
      "duration": 0.0827,
      "velocity": 95,
      "chip": "ym2612"
    },
    {
      "channel": 1,
      "note": 78,
      "start": 41.0954,
      "duration": 0.1532,
      "velocity": 112,
      "chip": "ym2612"
    },
    {
      "channel": 2,
      "note": 73,
      "start": 41.1002,
      "duration": 0.1488,
      "velocity": 112,
      "chip": "ym2612"
    },
    {
      "channel": 3,
      "note": 70,
      "start": 41.1068,
      "duration": 0.1427,
      "velocity": 112,
      "chip": "ym2612"
    },
    {
      "channel": 4,
      "note": 90,
      "start": 41.1078,
      "duration": 0.1424,
      "velocity": 110,
      "chip": "ym2612"
    },
    {
      "channel": 0,
      "note": 49,
      "start": 41.173,
      "duration": 0.0751,
      "velocity": 95,
      "chip": "ym2612"
    },
    {
      "channel": 0,
      "note": 52,
      "start": 41.2481,
      "duration": 0.1498,
      "velocity": 95,
      "chip": "ym2612"
    },
    {
      "channel": 1,
      "note": 78,
      "start": 41.2487,
      "duration": 0.0753,
      "velocity": 112,
      "chip": "ym2612"
    },
    {
      "channel": 2,
      "note": 73,
      "start": 41.2491,
      "duration": 0.0755,
      "velocity": 112,
      "chip": "ym2612"
    },
    {
      "channel": 3,
      "note": 70,
      "start": 41.2496,
      "duration": 0.0753,
      "velocity": 112,
      "chip": "ym2612"
    },
    {
      "channel": 4,
      "note": 88,
      "start": 41.2502,
      "duration": 0.1625,
      "velocity": 110,
      "chip": "ym2612"
    },
    {
      "channel": 1,
      "note": 78,
      "start": 41.324,
      "duration": 0.0369,
      "velocity": 112,
      "chip": "ym2612"
    },
    {
      "channel": 2,
      "note": 73,
      "start": 41.3245,
      "duration": 0.0369,
      "velocity": 112,
      "chip": "ym2612"
    },
    {
      "channel": 3,
      "note": 70,
      "start": 41.3249,
      "duration": 0.0368,
      "velocity": 112,
      "chip": "ym2612"
    },
    {
      "channel": 1,
      "note": 66,
      "start": 41.402,
      "duration": 0.0602,
      "velocity": 116,
      "chip": "ym2612"
    },
    {
      "channel": 2,
      "note": 73,
      "start": 41.4062,
      "duration": 0.0569,
      "velocity": 116,
      "chip": "ym2612"
    },
    {
      "channel": 3,
      "note": 70,
      "start": 41.412,
      "duration": 0.0521,
      "velocity": 116,
      "chip": "ym2612"
    },
    {
      "channel": 4,
      "note": 85,
      "start": 41.4127,
      "duration": 0.2528,
      "velocity": 110,
      "chip": "ym2612"
    },
    {
      "channel": 0,
      "note": 54,
      "start": 41.5283,
      "duration": 0.2665,
      "velocity": 95,
      "chip": "ym2612"
    },
    {
      "channel": 1,
      "note": 66,
      "start": 41.5292,
      "duration": 0.0663,
      "velocity": 116,
      "chip": "ym2612"
    },
    {
      "channel": 2,
      "note": 73,
      "start": 41.5301,
      "duration": 0.0663,
      "velocity": 116,
      "chip": "ym2612"
    },
    {
      "channel": 3,
      "note": 70,
      "start": 41.531,
      "duration": 0.0663,
      "velocity": 116,
      "chip": "ym2612"
    },
    {
      "channel": 1,
      "note": 64,
      "start": 41.6626,
      "duration": 0.0662,
      "velocity": 116,
      "chip": "ym2612"
    },
    {
      "channel": 2,
      "note": 73,
      "start": 41.6635,
      "duration": 0.0662,
      "velocity": 116,
      "chip": "ym2612"
    },
    {
      "channel": 3,
      "note": 70,
      "start": 41.6644,
      "duration": 0.0662,
      "velocity": 116,
      "chip": "ym2612"
    },
    {
      "channel": 4,
      "note": 88,
      "start": 41.6655,
      "duration": 0.2805,
      "velocity": 110,
      "chip": "ym2612"
    },
    {
      "channel": 0,
      "note": 54,
      "start": 41.7948,
      "duration": 0.1337,
      "velocity": 95,
      "chip": "ym2612"
    },
    {
      "channel": 1,
      "note": 64,
      "start": 41.7957,
      "duration": 0.0666,
      "velocity": 116,
      "chip": "ym2612"
    },
    {
      "channel": 2,
      "note": 73,
      "start": 41.7966,
      "duration": 0.0666,
      "velocity": 116,
      "chip": "ym2612"
    },
    {
      "channel": 3,
      "note": 70,
      "start": 41.7976,
      "duration": 0.0666,
      "velocity": 116,
      "chip": "ym2612"
    },
    {
      "channel": 0,
      "note": 52,
      "start": 41.9284,
      "duration": 0.0828,
      "velocity": 95,
      "chip": "ym2612"
    },
    {
      "channel": 1,
      "note": 76,
      "start": 41.9334,
      "duration": 0.1608,
      "velocity": 112,
      "chip": "ym2612"
    },
    {
      "channel": 2,
      "note": 71,
      "start": 41.9385,
      "duration": 0.1567,
      "velocity": 112,
      "chip": "ym2612"
    },
    {
      "channel": 3,
      "note": 68,
      "start": 41.9451,
      "duration": 0.151,
      "velocity": 112,
      "chip": "ym2612"
    },
    {
      "channel": 0,
      "note": 51,
      "start": 42.0112,
      "duration": 0.0821,
      "velocity": 95,
      "chip": "ym2612"
    },
    {
      "channel": 4,
      "note": 91,
      "start": 42.0132,
      "duration": 0.252,
      "velocity": 110,
      "chip": "ym2612"
    },
    {
      "channel": 0,
      "note": 47,
      "start": 42.0933,
      "duration": 0.0818,
      "velocity": 95,
      "chip": "ym2612"
    },
    {
      "channel": 1,
      "note": 76,
      "start": 42.0943,
      "duration": 0.0813,
      "velocity": 112,
      "chip": "ym2612"
    },
    {
      "channel": 2,
      "note": 71,
      "start": 42.0952,
      "duration": 0.0809,
      "velocity": 112,
      "chip": "ym2612"
    },
    {
      "channel": 3,
      "note": 68,
      "start": 42.0961,
      "duration": 0.0804,
      "velocity": 112,
      "chip": "ym2612"
    },
    {
      "channel": 0,
      "note": 47,
      "start": 42.1751,
      "duration": 0.0751,
      "velocity": 95,
      "chip": "ym2612"
    },
    {
      "channel": 1,
      "note": 76,
      "start": 42.1757,
      "duration": 0.0371,
      "velocity": 112,
      "chip": "ym2612"
    },
    {
      "channel": 2,
      "note": 71,
      "start": 42.176,
      "duration": 0.0372,
      "velocity": 112,
      "chip": "ym2612"
    },
    {
      "channel": 3,
      "note": 68,
      "start": 42.1766,
      "duration": 0.0373,
      "velocity": 112,
      "chip": "ym2612"
    },
    {
      "channel": 0,
      "note": 48,
      "start": 42.2503,
      "duration": 0.1297,
      "velocity": 95,
      "chip": "ym2612"
    },
    {
      "channel": 1,
      "note": 64,
      "start": 42.2544,
      "duration": 0.0595,
      "velocity": 116,
      "chip": "ym2612"
    },
    {
      "channel": 2,
      "note": 71,
      "start": 42.2585,
      "duration": 0.0563,
      "velocity": 116,
      "chip": "ym2612"
    },
    {
      "channel": 3,
      "note": 68,
      "start": 42.2645,
      "duration": 0.0513,
      "velocity": 116,
      "chip": "ym2612"
    },
    {
      "channel": 4,
      "note": 94,
      "start": 42.2651,
      "duration": 0.2525,
      "velocity": 110,
      "chip": "ym2612"
    },
    {
      "channel": 0,
      "note": 49,
      "start": 42.3801,
      "duration": 0.1333,
      "velocity": 95,
      "chip": "ym2612"
    },
    {
      "channel": 1,
      "note": 64,
      "start": 42.381,
      "duration": 0.0663,
      "velocity": 116,
      "chip": "ym2612"
    },
    {
      "channel": 2,
      "note": 71,
      "start": 42.3819,
      "duration": 0.0664,
      "velocity": 116,
      "chip": "ym2612"
    },
    {
      "channel": 3,
      "note": 68,
      "start": 42.3828,
      "duration": 0.0663,
      "velocity": 116,
      "chip": "ym2612"
    },
    {
      "channel": 0,
      "note": 42,
      "start": 42.5134,
      "duration": 0.0813,
      "velocity": 95,
      "chip": "ym2612"
    },
    {
      "channel": 1,
      "note": 66,
      "start": 42.5145,
      "duration": 0.0433,
      "velocity": 116,
      "chip": "ym2612"
    },
    {
      "channel": 2,
      "note": 73,
      "start": 42.5155,
      "duration": 0.0427,
      "velocity": 116,
      "chip": "ym2612"
    },
    {
      "channel": 3,
      "note": 70,
      "start": 42.5166,
      "duration": 0.0422,
      "velocity": 116,
      "chip": "ym2612"
    },
    {
      "channel": 4,
      "note": 91,
      "start": 42.5176,
      "duration": 0.1781,
      "velocity": 110,
      "chip": "ym2612"
    },
    {
      "channel": 0,
      "note": 42,
      "start": 42.5947,
      "duration": 0.0837,
      "velocity": 95,
      "chip": "ym2612"
    },
    {
      "channel": 1,
      "note": 66,
      "start": 42.5951,
      "duration": 0.0376,
      "velocity": 116,
      "chip": "ym2612"
    },
    {
      "channel": 2,
      "note": 73,
      "start": 42.5957,
      "duration": 0.0375,
      "velocity": 116,
      "chip": "ym2612"
    },
    {
      "channel": 3,
      "note": 70,
      "start": 42.5962,
      "duration": 0.0375,
      "velocity": 116,
      "chip": "ym2612"
    },
    {
      "channel": 0,
      "note": 49,
      "start": 42.6784,
      "duration": 0.1329,
      "velocity": 95,
      "chip": "ym2612"
    },
    {
      "channel": 1,
      "note": 78,
      "start": 42.6834,
      "duration": 0.2625,
      "velocity": 112,
      "chip": "ym2612"
    },
    {
      "channel": 2,
      "note": 73,
      "start": 42.6883,
      "duration": 0.2586,
      "velocity": 112,
      "chip": "ym2612"
    },
    {
      "channel": 3,
      "note": 70,
      "start": 42.6949,
      "duration": 0.2529,
      "velocity": 112,
      "chip": "ym2612"
    },
    {
      "channel": 4,
      "note": 90,
      "start": 42.6958,
      "duration": 0.2531,
      "velocity": 110,
      "chip": "ym2612"
    },
    {
      "channel": 0,
      "note": 49,
      "start": 42.8113,
      "duration": 0.1337,
      "velocity": 95,
      "chip": "ym2612"
    },
    {
      "channel": 0,
      "note": 52,
      "start": 42.945,
      "duration": 0.0815,
      "velocity": 95,
      "chip": "ym2612"
    },
    {
      "channel": 1,
      "note": 78,
      "start": 42.9459,
      "duration": 0.081,
      "velocity": 112,
      "chip": "ym2612"
    },
    {
      "channel": 2,
      "note": 73,
      "start": 42.9468,
      "duration": 0.0806,
      "velocity": 112,
      "chip": "ym2612"
    },
    {
      "channel": 3,
      "note": 70,
      "start": 42.9478,
      "duration": 0.0801,
      "velocity": 112,
      "chip": "ym2612"
    },
    {
      "channel": 4,
      "note": 88,
      "start": 42.9488,
      "duration": 0.1673,
      "velocity": 110,
      "chip": "ym2612"
    },
    {
      "channel": 0,
      "note": 48,
      "start": 43.0264,
      "duration": 0.0753,
      "velocity": 95,
      "chip": "ym2612"
    },
    {
      "channel": 1,
      "note": 78,
      "start": 43.027,
      "duration": 0.0374,
      "velocity": 112,
      "chip": "ym2612"
    },
    {
      "channel": 2,
      "note": 73,
      "start": 43.0275,
      "duration": 0.0374,
      "velocity": 112,
      "chip": "ym2612"
    },
    {
      "channel": 3,
      "note": 70,
      "start": 43.028,
      "duration": 0.0373,
      "velocity": 112,
      "chip": "ym2612"
    },
    {
      "channel": 0,
      "note": 49,
      "start": 43.1017,
      "duration": 0.1296,
      "velocity": 95,
      "chip": "ym2612"
    },
    {
      "channel": 1,
      "note": 66,
      "start": 43.1057,
      "duration": 0.0595,
      "velocity": 116,
      "chip": "ym2612"
    },
    {
      "channel": 2,
      "note": 73,
      "start": 43.1096,
      "duration": 0.0565,
      "velocity": 116,
      "chip": "ym2612"
    },
    {
      "channel": 3,
      "note": 70,
      "start": 43.1157,
      "duration": 0.0514,
      "velocity": 116,
      "chip": "ym2612"
    },
    {
      "channel": 4,
      "note": 85,
      "start": 43.1162,
      "duration": 0.2524,
      "velocity": 110,
      "chip": "ym2612"
    },
    {
      "channel": 0,
      "note": 59,
      "start": 43.2313,
      "duration": 0.2667,
      "velocity": 95,
      "chip": "ym2612"
    },
    {
      "channel": 1,
      "note": 66,
      "start": 43.2322,
      "duration": 0.0663,
      "velocity": 116,
      "chip": "ym2612"
    },
    {
      "channel": 2,
      "note": 73,
      "start": 43.2331,
      "duration": 0.0663,
      "velocity": 116,
      "chip": "ym2612"
    },
    {
      "channel": 3,
      "note": 70,
      "start": 43.2341,
      "duration": 0.0663,
      "velocity": 116,
      "chip": "ym2612"
    },
    {
      "channel": 1,
      "note": 64,
      "start": 43.3657,
      "duration": 0.0663,
      "velocity": 116,
      "chip": "ym2612"
    },
    {
      "channel": 2,
      "note": 73,
      "start": 43.3666,
      "duration": 0.0663,
      "velocity": 116,
      "chip": "ym2612"
    },
    {
      "channel": 3,
      "note": 70,
      "start": 43.3676,
      "duration": 0.0663,
      "velocity": 116,
      "chip": "ym2612"
    },
    {
      "channel": 4,
      "note": 88,
      "start": 43.3686,
      "duration": 0.2265,
      "velocity": 110,
      "chip": "ym2612"
    },
    {
      "channel": 0,
      "note": 48,
      "start": 43.4981,
      "duration": 0.082,
      "velocity": 95,
      "chip": "ym2612"
    },
    {
      "channel": 1,
      "note": 64,
      "start": 43.499,
      "duration": 0.0438,
      "velocity": 116,
      "chip": "ym2612"
    },
    {
      "channel": 2,
      "note": 73,
      "start": 43.4999,
      "duration": 0.0433,
      "velocity": 116,
      "chip": "ym2612"
    },
    {
      "channel": 3,
      "note": 70,
      "start": 43.5008,
      "duration": 0.0429,
      "velocity": 116,
      "chip": "ym2612"
    },
    {
      "channel": 0,
      "note": 49,
      "start": 43.5801,
      "duration": 0.0801,
      "velocity": 95,
      "chip": "ym2612"
    },
    {
      "channel": 1,
      "note": 76,
      "start": 43.5842,
      "duration": 0.1595,
      "velocity": 112,
      "chip": "ym2612"
    },
    {
      "channel": 2,
      "note": 71,
      "start": 43.5884,
      "duration": 0.1562,
      "velocity": 112,
      "chip": "ym2612"
    },
    {
      "channel": 3,
      "note": 68,
      "start": 43.5947,
      "duration": 0.1509,
      "velocity": 112,
      "chip": "ym2612"
    },
    {
      "channel": 0,
      "note": 58,
      "start": 43.6602,
      "duration": 0.1643,
      "velocity": 95,
      "chip": "ym2612"
    },
    {
      "channel": 4,
      "note": 88,
      "start": 43.662,
      "duration": 0.3721,
      "velocity": 110,
      "chip": "ym2612"
    },
    {
      "channel": 1,
      "note": 76,
      "start": 43.7437,
      "duration": 0.0812,
      "velocity": 112,
      "chip": "ym2612"
    },
    {
      "channel": 2,
      "note": 71,
      "start": 43.7447,
      "duration": 0.0807,
      "velocity": 112,
      "chip": "ym2612"
    },
    {
      "channel": 3,
      "note": 68,
      "start": 43.7456,
      "duration": 0.0804,
      "velocity": 112,
      "chip": "ym2612"
    },
    {
      "channel": 0,
      "note": 48,
      "start": 43.8245,
      "duration": 0.0758,
      "velocity": 95,
      "chip": "ym2612"
    },
    {
      "channel": 1,
      "note": 76,
      "start": 43.8249,
      "duration": 0.0374,
      "velocity": 112,
      "chip": "ym2612"
    },
    {
      "channel": 2,
      "note": 71,
      "start": 43.8255,
      "duration": 0.0373,
      "velocity": 112,
      "chip": "ym2612"
    },
    {
      "channel": 3,
      "note": 68,
      "start": 43.826,
      "duration": 0.0374,
      "velocity": 112,
      "chip": "ym2612"
    },
    {
      "channel": 0,
      "note": 49,
      "start": 43.9003,
      "duration": 0.13,
      "velocity": 95,
      "chip": "ym2612"
    },
    {
      "channel": 1,
      "note": 64,
      "start": 43.9044,
      "duration": 0.0598,
      "velocity": 116,
      "chip": "ym2612"
    },
    {
      "channel": 2,
      "note": 71,
      "start": 43.9085,
      "duration": 0.0566,
      "velocity": 116,
      "chip": "ym2612"
    },
    {
      "channel": 3,
      "note": 68,
      "start": 43.9146,
      "duration": 0.0514,
      "velocity": 116,
      "chip": "ym2612"
    },
    {
      "channel": 0,
      "note": 56,
      "start": 44.0303,
      "duration": 0.1333,
      "velocity": 95,
      "chip": "ym2612"
    },
    {
      "channel": 1,
      "note": 64,
      "start": 44.0312,
      "duration": 0.0663,
      "velocity": 116,
      "chip": "ym2612"
    },
    {
      "channel": 2,
      "note": 71,
      "start": 44.0322,
      "duration": 0.0663,
      "velocity": 116,
      "chip": "ym2612"
    },
    {
      "channel": 3,
      "note": 68,
      "start": 44.033,
      "duration": 0.0663,
      "velocity": 116,
      "chip": "ym2612"
    },
    {
      "channel": 0,
      "note": 42,
      "start": 44.1636,
      "duration": 0.0816,
      "velocity": 95,
      "chip": "ym2612"
    },
    {
      "channel": 1,
      "note": 66,
      "start": 44.1647,
      "duration": 0.0432,
      "velocity": 116,
      "chip": "ym2612"
    },
    {
      "channel": 2,
      "note": 73,
      "start": 44.1658,
      "duration": 0.0426,
      "velocity": 116,
      "chip": "ym2612"
    },
    {
      "channel": 3,
      "note": 70,
      "start": 44.1668,
      "duration": 0.042,
      "velocity": 116,
      "chip": "ym2612"
    },
    {
      "channel": 4,
      "note": 89,
      "start": 44.1679,
      "duration": 0.1784,
      "velocity": 110,
      "chip": "ym2612"
    },
    {
      "channel": 0,
      "note": 42,
      "start": 44.2452,
      "duration": 0.0837,
      "velocity": 95,
      "chip": "ym2612"
    },
    {
      "channel": 1,
      "note": 66,
      "start": 44.2457,
      "duration": 0.0375,
      "velocity": 116,
      "chip": "ym2612"
    },
    {
      "channel": 2,
      "note": 73,
      "start": 44.2461,
      "duration": 0.0374,
      "velocity": 116,
      "chip": "ym2612"
    },
    {
      "channel": 3,
      "note": 70,
      "start": 44.2466,
      "duration": 0.0375,
      "velocity": 116,
      "chip": "ym2612"
    },
    {
      "channel": 0,
      "note": 49,
      "start": 44.3289,
      "duration": 0.1328,
      "velocity": 95,
      "chip": "ym2612"
    },
    {
      "channel": 1,
      "note": 78,
      "start": 44.3339,
      "duration": 0.2625,
      "velocity": 112,
      "chip": "ym2612"
    },
    {
      "channel": 2,
      "note": 73,
      "start": 44.3388,
      "duration": 0.2586,
      "velocity": 112,
      "chip": "ym2612"
    },
    {
      "channel": 3,
      "note": 70,
      "start": 44.3454,
      "duration": 0.2529,
      "velocity": 112,
      "chip": "ym2612"
    },
    {
      "channel": 4,
      "note": 90,
      "start": 44.3463,
      "duration": 0.253,
      "velocity": 110,
      "chip": "ym2612"
    },
    {
      "channel": 0,
      "note": 49,
      "start": 44.4617,
      "duration": 0.1338,
      "velocity": 95,
      "chip": "ym2612"
    },
    {
      "channel": 0,
      "note": 52,
      "start": 44.5955,
      "duration": 0.0814,
      "velocity": 95,
      "chip": "ym2612"
    },
    {
      "channel": 1,
      "note": 78,
      "start": 44.5964,
      "duration": 0.0809,
      "velocity": 112,
      "chip": "ym2612"
    },
    {
      "channel": 2,
      "note": 73,
      "start": 44.5973,
      "duration": 0.0806,
      "velocity": 112,
      "chip": "ym2612"
    },
    {
      "channel": 3,
      "note": 70,
      "start": 44.5983,
      "duration": 0.08,
      "velocity": 112,
      "chip": "ym2612"
    },
    {
      "channel": 4,
      "note": 88,
      "start": 44.5993,
      "duration": 0.167,
      "velocity": 110,
      "chip": "ym2612"
    },
    {
      "channel": 1,
      "note": 78,
      "start": 44.6774,
      "duration": 0.0373,
      "velocity": 112,
      "chip": "ym2612"
    },
    {
      "channel": 2,
      "note": 73,
      "start": 44.6779,
      "duration": 0.0372,
      "velocity": 112,
      "chip": "ym2612"
    },
    {
      "channel": 3,
      "note": 70,
      "start": 44.6784,
      "duration": 0.0371,
      "velocity": 112,
      "chip": "ym2612"
    },
    {
      "channel": 1,
      "note": 66,
      "start": 44.7559,
      "duration": 0.0596,
      "velocity": 116,
      "chip": "ym2612"
    },
    {
      "channel": 2,
      "note": 73,
      "start": 44.7597,
      "duration": 0.0568,
      "velocity": 116,
      "chip": "ym2612"
    },
    {
      "channel": 3,
      "note": 70,
      "start": 44.7658,
      "duration": 0.0515,
      "velocity": 116,
      "chip": "ym2612"
    },
    {
      "channel": 4,
      "note": 85,
      "start": 44.7663,
      "duration": 0.2525,
      "velocity": 110,
      "chip": "ym2612"
    },
    {
      "channel": 0,
      "note": 54,
      "start": 44.8816,
      "duration": 0.2665,
      "velocity": 95,
      "chip": "ym2612"
    },
    {
      "channel": 1,
      "note": 66,
      "start": 44.8825,
      "duration": 0.0663,
      "velocity": 116,
      "chip": "ym2612"
    },
    {
      "channel": 2,
      "note": 73,
      "start": 44.8834,
      "duration": 0.0663,
      "velocity": 116,
      "chip": "ym2612"
    },
    {
      "channel": 3,
      "note": 70,
      "start": 44.8844,
      "duration": 0.0663,
      "velocity": 116,
      "chip": "ym2612"
    },
    {
      "channel": 1,
      "note": 64,
      "start": 45.0159,
      "duration": 0.0663,
      "velocity": 116,
      "chip": "ym2612"
    },
    {
      "channel": 2,
      "note": 73,
      "start": 45.0168,
      "duration": 0.0663,
      "velocity": 116,
      "chip": "ym2612"
    },
    {
      "channel": 3,
      "note": 70,
      "start": 45.0177,
      "duration": 0.0664,
      "velocity": 116,
      "chip": "ym2612"
    },
    {
      "channel": 4,
      "note": 88,
      "start": 45.0188,
      "duration": 0.2806,
      "velocity": 110,
      "chip": "ym2612"
    },
    {
      "channel": 0,
      "note": 54,
      "start": 45.1481,
      "duration": 0.1336,
      "velocity": 95,
      "chip": "ym2612"
    },
    {
      "channel": 1,
      "note": 64,
      "start": 45.149,
      "duration": 0.0665,
      "velocity": 116,
      "chip": "ym2612"
    },
    {
      "channel": 2,
      "note": 73,
      "start": 45.15,
      "duration": 0.0665,
      "velocity": 116,
      "chip": "ym2612"
    },
    {
      "channel": 3,
      "note": 70,
      "start": 45.1508,
      "duration": 0.0665,
      "velocity": 116,
      "chip": "ym2612"
    },
    {
      "channel": 0,
      "note": 52,
      "start": 45.2817,
      "duration": 0.0834,
      "velocity": 95,
      "chip": "ym2612"
    },
    {
      "channel": 1,
      "note": 76,
      "start": 45.2868,
      "duration": 0.162,
      "velocity": 112,
      "chip": "ym2612"
    },
    {
      "channel": 2,
      "note": 71,
      "start": 45.2917,
      "duration": 0.158,
      "velocity": 112,
      "chip": "ym2612"
    },
    {
      "channel": 3,
      "note": 68,
      "start": 45.2985,
      "duration": 0.1522,
      "velocity": 112,
      "chip": "ym2612"
    },
    {
      "channel": 0,
      "note": 51,
      "start": 45.3652,
      "duration": 0.0827,
      "velocity": 95,
      "chip": "ym2612"
    },
    {
      "channel": 4,
      "note": 91,
      "start": 45.367,
      "duration": 0.253,
      "velocity": 110,
      "chip": "ym2612"
    },
    {
      "channel": 0,
      "note": 47,
      "start": 45.4479,
      "duration": 0.0817,
      "velocity": 95,
      "chip": "ym2612"
    },
    {
      "channel": 1,
      "note": 76,
      "start": 45.4488,
      "duration": 0.0813,
      "velocity": 112,
      "chip": "ym2612"
    },
    {
      "channel": 2,
      "note": 71,
      "start": 45.4498,
      "duration": 0.0809,
      "velocity": 112,
      "chip": "ym2612"
    },
    {
      "channel": 3,
      "note": 68,
      "start": 45.4507,
      "duration": 0.0806,
      "velocity": 112,
      "chip": "ym2612"
    },
    {
      "channel": 0,
      "note": 47,
      "start": 45.5297,
      "duration": 0.0752,
      "velocity": 95,
      "chip": "ym2612"
    },
    {
      "channel": 1,
      "note": 76,
      "start": 45.5302,
      "duration": 0.037,
      "velocity": 112,
      "chip": "ym2612"
    },
    {
      "channel": 2,
      "note": 71,
      "start": 45.5307,
      "duration": 0.037,
      "velocity": 112,
      "chip": "ym2612"
    },
    {
      "channel": 3,
      "note": 68,
      "start": 45.5312,
      "duration": 0.0368,
      "velocity": 112,
      "chip": "ym2612"
    },
    {
      "channel": 0,
      "note": 48,
      "start": 45.6049,
      "duration": 0.1302,
      "velocity": 95,
      "chip": "ym2612"
    },
    {
      "channel": 1,
      "note": 76,
      "start": 45.6089,
      "duration": 0.0601,
      "velocity": 116,
      "chip": "ym2612"
    },
    {
      "channel": 2,
      "note": 71,
      "start": 45.613,
      "duration": 0.0568,
      "velocity": 116,
      "chip": "ym2612"
    },
    {
      "channel": 3,
      "note": 68,
      "start": 45.6193,
      "duration": 0.0515,
      "velocity": 116,
      "chip": "ym2612"
    },
    {
      "channel": 4,
      "note": 95,
      "start": 45.62,
      "duration": 0.2529,
      "velocity": 110,
      "chip": "ym2612"
    },
    {
      "channel": 0,
      "note": 49,
      "start": 45.7351,
      "duration": 0.1336,
      "velocity": 95,
      "chip": "ym2612"
    },
    {
      "channel": 1,
      "note": 76,
      "start": 45.736,
      "duration": 0.0663,
      "velocity": 116,
      "chip": "ym2612"
    },
    {
      "channel": 2,
      "note": 71,
      "start": 45.7369,
      "duration": 0.0663,
      "velocity": 116,
      "chip": "ym2612"
    },
    {
      "channel": 3,
      "note": 68,
      "start": 45.7378,
      "duration": 0.0663,
      "velocity": 116,
      "chip": "ym2612"
    },
    {
      "channel": 0,
      "note": 42,
      "start": 45.8687,
      "duration": 0.0816,
      "velocity": 95,
      "chip": "ym2612"
    },
    {
      "channel": 1,
      "note": 66,
      "start": 45.8697,
      "duration": 0.0433,
      "velocity": 116,
      "chip": "ym2612"
    },
    {
      "channel": 2,
      "note": 73,
      "start": 45.8708,
      "duration": 0.0427,
      "velocity": 116,
      "chip": "ym2612"
    },
    {
      "channel": 3,
      "note": 70,
      "start": 45.8718,
      "duration": 0.0421,
      "velocity": 116,
      "chip": "ym2612"
    },
    {
      "channel": 4,
      "note": 95,
      "start": 45.8729,
      "duration": 0.1793,
      "velocity": 110,
      "chip": "ym2612"
    },
    {
      "channel": 0,
      "note": 42,
      "start": 45.9504,
      "duration": 0.0844,
      "velocity": 95,
      "chip": "ym2612"
    },
    {
      "channel": 1,
      "note": 66,
      "start": 45.9508,
      "duration": 0.0375,
      "velocity": 116,
      "chip": "ym2612"
    },
    {
      "channel": 2,
      "note": 73,
      "start": 45.9513,
      "duration": 0.0375,
      "velocity": 116,
      "chip": "ym2612"
    },
    {
      "channel": 3,
      "note": 70,
      "start": 45.9519,
      "duration": 0.0376,
      "velocity": 116,
      "chip": "ym2612"
    },
    {
      "channel": 0,
      "note": 49,
      "start": 46.0348,
      "duration": 0.1328,
      "velocity": 95,
      "chip": "ym2612"
    },
    {
      "channel": 1,
      "note": 78,
      "start": 46.0398,
      "duration": 0.2624,
      "velocity": 112,
      "chip": "ym2612"
    },
    {
      "channel": 2,
      "note": 73,
      "start": 46.0447,
      "duration": 0.2584,
      "velocity": 112,
      "chip": "ym2612"
    },
    {
      "channel": 3,
      "note": 70,
      "start": 46.0512,
      "duration": 0.2528,
      "velocity": 112,
      "chip": "ym2612"
    },
    {
      "channel": 4,
      "note": 95,
      "start": 46.0523,
      "duration": 0.2528,
      "velocity": 110,
      "chip": "ym2612"
    },
    {
      "channel": 0,
      "note": 49,
      "start": 46.1677,
      "duration": 0.1336,
      "velocity": 95,
      "chip": "ym2612"
    },
    {
      "channel": 0,
      "note": 52,
      "start": 46.3012,
      "duration": 0.0818,
      "velocity": 95,
      "chip": "ym2612"
    },
    {
      "channel": 1,
      "note": 78,
      "start": 46.3022,
      "duration": 0.0813,
      "velocity": 112,
      "chip": "ym2612"
    },
    {
      "channel": 2,
      "note": 73,
      "start": 46.3031,
      "duration": 0.0808,
      "velocity": 112,
      "chip": "ym2612"
    },
    {
      "channel": 3,
      "note": 70,
      "start": 46.3041,
      "duration": 0.0804,
      "velocity": 112,
      "chip": "ym2612"
    },
    {
      "channel": 4,
      "note": 93,
      "start": 46.3051,
      "duration": 0.1673,
      "velocity": 110,
      "chip": "ym2612"
    },
    {
      "channel": 0,
      "note": 48,
      "start": 46.383,
      "duration": 0.0747,
      "velocity": 95,
      "chip": "ym2612"
    },
    {
      "channel": 1,
      "note": 78,
      "start": 46.3835,
      "duration": 0.0371,
      "velocity": 112,
      "chip": "ym2612"
    },
    {
      "channel": 2,
      "note": 73,
      "start": 46.3839,
      "duration": 0.0371,
      "velocity": 112,
      "chip": "ym2612"
    },
    {
      "channel": 3,
      "note": 70,
      "start": 46.3845,
      "duration": 0.0371,
      "velocity": 112,
      "chip": "ym2612"
    },
    {
      "channel": 0,
      "note": 49,
      "start": 46.4578,
      "duration": 0.1297,
      "velocity": 95,
      "chip": "ym2612"
    },
    {
      "channel": 1,
      "note": 66,
      "start": 46.4618,
      "duration": 0.0595,
      "velocity": 116,
      "chip": "ym2612"
    },
    {
      "channel": 2,
      "note": 73,
      "start": 46.466,
      "duration": 0.0563,
      "velocity": 116,
      "chip": "ym2612"
    },
    {
      "channel": 3,
      "note": 70,
      "start": 46.4719,
      "duration": 0.0513,
      "velocity": 116,
      "chip": "ym2612"
    },
    {
      "channel": 4,
      "note": 90,
      "start": 46.4725,
      "duration": 0.2523,
      "velocity": 110,
      "chip": "ym2612"
    },
    {
      "channel": 0,
      "note": 59,
      "start": 46.5874,
      "duration": 0.2668,
      "velocity": 95,
      "chip": "ym2612"
    },
    {
      "channel": 1,
      "note": 66,
      "start": 46.5884,
      "duration": 0.0663,
      "velocity": 116,
      "chip": "ym2612"
    },
    {
      "channel": 2,
      "note": 73,
      "start": 46.5893,
      "duration": 0.0663,
      "velocity": 116,
      "chip": "ym2612"
    },
    {
      "channel": 3,
      "note": 70,
      "start": 46.5902,
      "duration": 0.0663,
      "velocity": 116,
      "chip": "ym2612"
    },
    {
      "channel": 1,
      "note": 64,
      "start": 46.7219,
      "duration": 0.0663,
      "velocity": 116,
      "chip": "ym2612"
    },
    {
      "channel": 2,
      "note": 73,
      "start": 46.7228,
      "duration": 0.0663,
      "velocity": 116,
      "chip": "ym2612"
    },
    {
      "channel": 3,
      "note": 70,
      "start": 46.7237,
      "duration": 0.0663,
      "velocity": 116,
      "chip": "ym2612"
    },
    {
      "channel": 4,
      "note": 91,
      "start": 46.7248,
      "duration": 0.4,
      "velocity": 110,
      "chip": "ym2612"
    },
    {
      "channel": 0,
      "note": 58,
      "start": 46.8542,
      "duration": 0.1335,
      "velocity": 95,
      "chip": "ym2612"
    },
    {
      "channel": 1,
      "note": 64,
      "start": 46.8551,
      "duration": 0.0665,
      "velocity": 116,
      "chip": "ym2612"
    },
    {
      "channel": 2,
      "note": 73,
      "start": 46.8561,
      "duration": 0.0665,
      "velocity": 116,
      "chip": "ym2612"
    },
    {
      "channel": 3,
      "note": 70,
      "start": 46.857,
      "duration": 0.0665,
      "velocity": 116,
      "chip": "ym2612"
    },
    {
      "channel": 5,
      "note": 73,
      "start": 46.8757,
      "duration": 0.0665,
      "velocity": 127,
      "chip": "ym2612"
    },
    {
      "channel": 5,
      "note": 73,
      "start": 46.9422,
      "duration": 0.0641,
      "velocity": 127,
      "chip": "ym2612"
    },
    {
      "channel": 0,
      "note": 54,
      "start": 46.9878,
      "duration": 0.1332,
      "velocity": 95,
      "chip": "ym2612"
    },
    {
      "channel": 1,
      "note": 76,
      "start": 46.9928,
      "duration": 0.2624,
      "velocity": 112,
      "chip": "ym2612"
    },
    {
      "channel": 2,
      "note": 71,
      "start": 46.9977,
      "duration": 0.2583,
      "velocity": 112,
      "chip": "ym2612"
    },
    {
      "channel": 3,
      "note": 68,
      "start": 47.0044,
      "duration": 0.2526,
      "velocity": 112,
      "chip": "ym2612"
    },
    {
      "channel": 5,
      "note": 73,
      "start": 47.0063,
      "duration": 0.2691,
      "velocity": 127,
      "chip": "ym2612"
    },
    {
      "channel": 0,
      "note": 49,
      "start": 47.121,
      "duration": 0.1333,
      "velocity": 95,
      "chip": "ym2612"
    },
    {
      "channel": 4,
      "note": 90,
      "start": 47.1248,
      "duration": 0.4136,
      "velocity": 110,
      "chip": "ym2612"
    },
    {
      "channel": 0,
      "note": 52,
      "start": 47.2542,
      "duration": 0.1335,
      "velocity": 95,
      "chip": "ym2612"
    },
    {
      "channel": 1,
      "note": 76,
      "start": 47.2551,
      "duration": 0.1335,
      "velocity": 112,
      "chip": "ym2612"
    },
    {
      "channel": 2,
      "note": 71,
      "start": 47.2561,
      "duration": 0.1335,
      "velocity": 112,
      "chip": "ym2612"
    },
    {
      "channel": 3,
      "note": 68,
      "start": 47.257,
      "duration": 0.1335,
      "velocity": 112,
      "chip": "ym2612"
    },
    {
      "channel": 5,
      "note": 68,
      "start": 47.2754,
      "duration": 0.1334,
      "velocity": 127,
      "chip": "ym2612"
    },
    {
      "channel": 0,
      "note": 54,
      "start": 47.3878,
      "duration": 0.1332,
      "velocity": 95,
      "chip": "ym2612"
    },
    {
      "channel": 1,
      "note": 76,
      "start": 47.3886,
      "duration": 0.0662,
      "velocity": 112,
      "chip": "ym2612"
    },
    {
      "channel": 2,
      "note": 71,
      "start": 47.3896,
      "duration": 0.0662,
      "velocity": 112,
      "chip": "ym2612"
    },
    {
      "channel": 3,
      "note": 68,
      "start": 47.3905,
      "duration": 0.0662,
      "velocity": 112,
      "chip": "ym2612"
    },
    {
      "channel": 5,
      "note": 68,
      "start": 47.4088,
      "duration": 0.1306,
      "velocity": 127,
      "chip": "ym2612"
    },
    {
      "channel": 0,
      "note": 48,
      "start": 47.521,
      "duration": 0.1333,
      "velocity": 95,
      "chip": "ym2612"
    },
    {
      "channel": 1,
      "note": 64,
      "start": 47.526,
      "duration": 0.0623,
      "velocity": 116,
      "chip": "ym2612"
    },
    {
      "channel": 2,
      "note": 71,
      "start": 47.5309,
      "duration": 0.0583,
      "velocity": 116,
      "chip": "ym2612"
    },
    {
      "channel": 3,
      "note": 68,
      "start": 47.5374,
      "duration": 0.0527,
      "velocity": 116,
      "chip": "ym2612"
    },
    {
      "channel": 5,
      "note": 62,
      "start": 47.5394,
      "duration": 0.136,
      "velocity": 127,
      "chip": "ym2612"
    },
    {
      "channel": 0,
      "note": 49,
      "start": 47.6542,
      "duration": 0.134,
      "velocity": 95,
      "chip": "ym2612"
    },
    {
      "channel": 1,
      "note": 64,
      "start": 47.6552,
      "duration": 0.0665,
      "velocity": 116,
      "chip": "ym2612"
    },
    {
      "channel": 2,
      "note": 71,
      "start": 47.6561,
      "duration": 0.0665,
      "velocity": 116,
      "chip": "ym2612"
    },
    {
      "channel": 3,
      "note": 68,
      "start": 47.657,
      "duration": 0.0665,
      "velocity": 116,
      "chip": "ym2612"
    },
    {
      "channel": 5,
      "note": 62,
      "start": 47.6754,
      "duration": 0.1356,
      "velocity": 127,
      "chip": "ym2612"
    },
    {
      "channel": 0,
      "note": 42,
      "start": 47.7883,
      "duration": 0.1657,
      "velocity": 95,
      "chip": "ym2612"
    },
    {
      "channel": 1,
      "note": 78,
      "start": 47.7933,
      "duration": 0.2436,
      "velocity": 112,
      "chip": "ym2612"
    },
    {
      "channel": 2,
      "note": 73,
      "start": 47.7983,
      "duration": 0.2392,
      "velocity": 112,
      "chip": "ym2612"
    },
    {
      "channel": 3,
      "note": 70,
      "start": 47.805,
      "duration": 0.2329,
      "velocity": 112,
      "chip": "ym2612"
    },
    {
      "channel": 4,
      "note": 77,
      "start": 47.81,
      "duration": 0.3277,
      "velocity": 109,
      "chip": "ym2612"
    },
    {
      "channel": 0,
      "note": 42,
      "start": 47.954,
      "duration": 0.0825,
      "velocity": 95,
      "chip": "ym2612"
    },
    {
      "channel": 0,
      "note": 49,
      "start": 48.0365,
      "duration": 0.0838,
      "velocity": 95,
      "chip": "ym2612"
    },
    {
      "channel": 1,
      "note": 78,
      "start": 48.037,
      "duration": 0.0374,
      "velocity": 112,
      "chip": "ym2612"
    },
    {
      "channel": 2,
      "note": 73,
      "start": 48.0375,
      "duration": 0.0374,
      "velocity": 112,
      "chip": "ym2612"
    },
    {
      "channel": 3,
      "note": 70,
      "start": 48.038,
      "duration": 0.0373,
      "velocity": 112,
      "chip": "ym2612"
    },
    {
      "channel": 1,
      "note": 78,
      "start": 48.1251,
      "duration": 0.041,
      "velocity": 116,
      "chip": "ym2612"
    },
    {
      "channel": 2,
      "note": 73,
      "start": 48.13,
      "duration": 0.0367,
      "velocity": 116,
      "chip": "ym2612"
    },
    {
      "channel": 3,
      "note": 70,
      "start": 48.1367,
      "duration": 0.0304,
      "velocity": 116,
      "chip": "ym2612"
    },
    {
      "channel": 4,
      "note": 78,
      "start": 48.1377,
      "duration": 0.0673,
      "velocity": 109,
      "chip": "ym2612"
    },
    {
      "channel": 1,
      "note": 78,
      "start": 48.2035,
      "duration": 0.0376,
      "velocity": 116,
      "chip": "ym2612"
    },
    {
      "channel": 2,
      "note": 73,
      "start": 48.2039,
      "duration": 0.0376,
      "velocity": 116,
      "chip": "ym2612"
    },
    {
      "channel": 3,
      "note": 70,
      "start": 48.2045,
      "duration": 0.0376,
      "velocity": 116,
      "chip": "ym2612"
    },
    {
      "channel": 4,
      "note": 76,
      "start": 48.2049,
      "duration": 0.0752,
      "velocity": 109,
      "chip": "ym2612"
    },
    {
      "channel": 1,
      "note": 78,
      "start": 48.2786,
      "duration": 0.0586,
      "velocity": 116,
      "chip": "ym2612"
    },
    {
      "channel": 2,
      "note": 73,
      "start": 48.279,
      "duration": 0.0591,
      "velocity": 116,
      "chip": "ym2612"
    },
    {
      "channel": 3,
      "note": 70,
      "start": 48.2795,
      "duration": 0.0595,
      "velocity": 116,
      "chip": "ym2612"
    },
    {
      "channel": 4,
      "note": 74,
      "start": 48.2802,
      "duration": 0.1407,
      "velocity": 109,
      "chip": "ym2612"
    },
    {
      "channel": 0,
      "note": 54,
      "start": 48.4035,
      "duration": 0.1331,
      "velocity": 95,
      "chip": "ym2612"
    },
    {
      "channel": 1,
      "note": 78,
      "start": 48.4084,
      "duration": 0.0621,
      "velocity": 112,
      "chip": "ym2612"
    },
    {
      "channel": 2,
      "note": 73,
      "start": 48.4132,
      "duration": 0.0582,
      "velocity": 112,
      "chip": "ym2612"
    },
    {
      "channel": 3,
      "note": 70,
      "start": 48.4198,
      "duration": 0.0525,
      "velocity": 112,
      "chip": "ym2612"
    },
    {
      "channel": 4,
      "note": 76,
      "start": 48.4209,
      "duration": 0.3473,
      "velocity": 109,
      "chip": "ym2612"
    },
    {
      "channel": 1,
      "note": 78,
      "start": 48.5415,
      "duration": 0.0624,
      "velocity": 116,
      "chip": "ym2612"
    },
    {
      "channel": 2,
      "note": 73,
      "start": 48.5464,
      "duration": 0.0584,
      "velocity": 116,
      "chip": "ym2612"
    },
    {
      "channel": 3,
      "note": 70,
      "start": 48.5529,
      "duration": 0.0528,
      "velocity": 116,
      "chip": "ym2612"
    },
    {
      "channel": 0,
      "note": 54,
      "start": 48.67,
      "duration": 0.0835,
      "velocity": 95,
      "chip": "ym2612"
    },
    {
      "channel": 1,
      "note": 78,
      "start": 48.6749,
      "duration": 0.0413,
      "velocity": 112,
      "chip": "ym2612"
    },
    {
      "channel": 2,
      "note": 73,
      "start": 48.6798,
      "duration": 0.0368,
      "velocity": 112,
      "chip": "ym2612"
    },
    {
      "channel": 3,
      "note": 70,
      "start": 48.6863,
      "duration": 0.0308,
      "velocity": 112,
      "chip": "ym2612"
    },
    {
      "channel": 0,
      "note": 52,
      "start": 48.7534,
      "duration": 0.0807,
      "velocity": 95,
      "chip": "ym2612"
    },
    {
      "channel": 1,
      "note": 78,
      "start": 48.758,
      "duration": 0.0388,
      "velocity": 116,
      "chip": "ym2612"
    },
    {
      "channel": 2,
      "note": 73,
      "start": 48.7618,
      "duration": 0.0355,
      "velocity": 116,
      "chip": "ym2612"
    },
    {
      "channel": 3,
      "note": 70,
      "start": 48.7676,
      "duration": 0.03,
      "velocity": 116,
      "chip": "ym2612"
    },
    {
      "channel": 4,
      "note": 77,
      "start": 48.7682,
      "duration": 0.5858,
      "velocity": 109,
      "chip": "ym2612"
    },
    {
      "channel": 0,
      "note": 49,
      "start": 48.8342,
      "duration": 0.0827,
      "velocity": 95,
      "chip": "ym2612"
    },
    {
      "channel": 1,
      "note": 78,
      "start": 48.8346,
      "duration": 0.0371,
      "velocity": 116,
      "chip": "ym2612"
    },
    {
      "channel": 2,
      "note": 73,
      "start": 48.8352,
      "duration": 0.037,
      "velocity": 116,
      "chip": "ym2612"
    },
    {
      "channel": 3,
      "note": 70,
      "start": 48.8356,
      "duration": 0.0371,
      "velocity": 116,
      "chip": "ym2612"
    },
    {
      "channel": 0,
      "note": 52,
      "start": 48.9169,
      "duration": 0.0827,
      "velocity": 95,
      "chip": "ym2612"
    },
    {
      "channel": 1,
      "note": 78,
      "start": 48.9218,
      "duration": 0.0784,
      "velocity": 112,
      "chip": "ym2612"
    },
    {
      "channel": 2,
      "note": 73,
      "start": 48.9267,
      "duration": 0.074,
      "velocity": 112,
      "chip": "ym2612"
    },
    {
      "channel": 3,
      "note": 70,
      "start": 48.9333,
      "duration": 0.0679,
      "velocity": 112,
      "chip": "ym2612"
    },
    {
      "channel": 0,
      "note": 49,
      "start": 48.9997,
      "duration": 0.075,
      "velocity": 95,
      "chip": "ym2612"
    },
    {
      "channel": 1,
      "note": 78,
      "start": 49.0002,
      "duration": 0.0371,
      "velocity": 112,
      "chip": "ym2612"
    },
    {
      "channel": 2,
      "note": 73,
      "start": 49.0007,
      "duration": 0.0371,
      "velocity": 112,
      "chip": "ym2612"
    },
    {
      "channel": 3,
      "note": 70,
      "start": 49.0013,
      "duration": 0.0371,
      "velocity": 112,
      "chip": "ym2612"
    },
    {
      "channel": 0,
      "note": 54,
      "start": 49.0747,
      "duration": 0.2617,
      "velocity": 95,
      "chip": "ym2612"
    },
    {
      "channel": 1,
      "note": 78,
      "start": 49.0789,
      "duration": 0.0579,
      "velocity": 116,
      "chip": "ym2612"
    },
    {
      "channel": 2,
      "note": 73,
      "start": 49.0827,
      "duration": 0.055,
      "velocity": 116,
      "chip": "ym2612"
    },
    {
      "channel": 3,
      "note": 70,
      "start": 49.0889,
      "duration": 0.0497,
      "velocity": 116,
      "chip": "ym2612"
    },
    {
      "channel": 1,
      "note": 78,
      "start": 49.2037,
      "duration": 0.0665,
      "velocity": 116,
      "chip": "ym2612"
    },
    {
      "channel": 2,
      "note": 73,
      "start": 49.2046,
      "duration": 0.0665,
      "velocity": 116,
      "chip": "ym2612"
    },
    {
      "channel": 3,
      "note": 70,
      "start": 49.2055,
      "duration": 0.0665,
      "velocity": 116,
      "chip": "ym2612"
    },
    {
      "channel": 0,
      "note": 42,
      "start": 49.3364,
      "duration": 0.1645,
      "velocity": 95,
      "chip": "ym2612"
    },
    {
      "channel": 1,
      "note": 76,
      "start": 49.3414,
      "duration": 0.2449,
      "velocity": 112,
      "chip": "ym2612"
    },
    {
      "channel": 2,
      "note": 71,
      "start": 49.3464,
      "duration": 0.2402,
      "velocity": 112,
      "chip": "ym2612"
    },
    {
      "channel": 3,
      "note": 68,
      "start": 49.3531,
      "duration": 0.2341,
      "velocity": 112,
      "chip": "ym2612"
    },
    {
      "channel": 0,
      "note": 42,
      "start": 49.5009,
      "duration": 0.0849,
      "velocity": 95,
      "chip": "ym2612"
    },
    {
      "channel": 0,
      "note": 49,
      "start": 49.5858,
      "duration": 0.0821,
      "velocity": 95,
      "chip": "ym2612"
    },
    {
      "channel": 1,
      "note": 76,
      "start": 49.5863,
      "duration": 0.0373,
      "velocity": 112,
      "chip": "ym2612"
    },
    {
      "channel": 2,
      "note": 71,
      "start": 49.5866,
      "duration": 0.0374,
      "velocity": 112,
      "chip": "ym2612"
    },
    {
      "channel": 3,
      "note": 68,
      "start": 49.5872,
      "duration": 0.0374,
      "velocity": 112,
      "chip": "ym2612"
    },
    {
      "channel": 1,
      "note": 76,
      "start": 49.6728,
      "duration": 0.0412,
      "velocity": 116,
      "chip": "ym2612"
    },
    {
      "channel": 2,
      "note": 71,
      "start": 49.6776,
      "duration": 0.0369,
      "velocity": 116,
      "chip": "ym2612"
    },
    {
      "channel": 3,
      "note": 68,
      "start": 49.6842,
      "duration": 0.0307,
      "velocity": 116,
      "chip": "ym2612"
    },
    {
      "channel": 4,
      "note": 75,
      "start": 49.6852,
      "duration": 0.0678,
      "velocity": 109,
      "chip": "ym2612"
    },
    {
      "channel": 1,
      "note": 76,
      "start": 49.7515,
      "duration": 0.0375,
      "velocity": 116,
      "chip": "ym2612"
    },
    {
      "channel": 2,
      "note": 71,
      "start": 49.7519,
      "duration": 0.0374,
      "velocity": 116,
      "chip": "ym2612"
    },
    {
      "channel": 3,
      "note": 68,
      "start": 49.7524,
      "duration": 0.0374,
      "velocity": 116,
      "chip": "ym2612"
    },
    {
      "channel": 4,
      "note": 76,
      "start": 49.7531,
      "duration": 0.0746,
      "velocity": 109,
      "chip": "ym2612"
    },
    {
      "channel": 1,
      "note": 76,
      "start": 49.8263,
      "duration": 0.0585,
      "velocity": 116,
      "chip": "ym2612"
    },
    {
      "channel": 2,
      "note": 71,
      "start": 49.8267,
      "duration": 0.059,
      "velocity": 116,
      "chip": "ym2612"
    },
    {
      "channel": 3,
      "note": 68,
      "start": 49.8272,
      "duration": 0.0595,
      "velocity": 116,
      "chip": "ym2612"
    },
    {
      "channel": 0,
      "note": 56,
      "start": 49.9511,
      "duration": 0.1331,
      "velocity": 95,
      "chip": "ym2612"
    },
    {
      "channel": 1,
      "note": 76,
      "start": 49.956,
      "duration": 0.0622,
      "velocity": 112,
      "chip": "ym2612"
    },
    {
      "channel": 2,
      "note": 71,
      "start": 49.9608,
      "duration": 0.0583,
      "velocity": 112,
      "chip": "ym2612"
    },
    {
      "channel": 3,
      "note": 68,
      "start": 49.9674,
      "duration": 0.0526,
      "velocity": 112,
      "chip": "ym2612"
    },
    {
      "channel": 4,
      "note": 79,
      "start": 49.9684,
      "duration": 0.1329,
      "velocity": 109,
      "chip": "ym2612"
    },
    {
      "channel": 1,
      "note": 76,
      "start": 50.089,
      "duration": 0.0624,
      "velocity": 116,
      "chip": "ym2612"
    },
    {
      "channel": 2,
      "note": 71,
      "start": 50.0939,
      "duration": 0.0584,
      "velocity": 116,
      "chip": "ym2612"
    },
    {
      "channel": 3,
      "note": 68,
      "start": 50.1005,
      "duration": 0.0528,
      "velocity": 116,
      "chip": "ym2612"
    },
    {
      "channel": 0,
      "note": 56,
      "start": 50.2176,
      "duration": 0.0832,
      "velocity": 95,
      "chip": "ym2612"
    },
    {
      "channel": 1,
      "note": 76,
      "start": 50.2224,
      "duration": 0.0411,
      "velocity": 112,
      "chip": "ym2612"
    },
    {
      "channel": 2,
      "note": 71,
      "start": 50.2273,
      "duration": 0.0367,
      "velocity": 112,
      "chip": "ym2612"
    },
    {
      "channel": 3,
      "note": 68,
      "start": 50.2339,
      "duration": 0.0307,
      "velocity": 112,
      "chip": "ym2612"
    },
    {
      "channel": 4,
      "note": 83,
      "start": 50.2349,
      "duration": 0.0804,
      "velocity": 109,
      "chip": "ym2612"
    },
    {
      "channel": 0,
      "note": 54,
      "start": 50.3007,
      "duration": 0.0805,
      "velocity": 95,
      "chip": "ym2612"
    },
    {
      "channel": 1,
      "note": 76,
      "start": 50.3047,
      "duration": 0.039,
      "velocity": 116,
      "chip": "ym2612"
    },
    {
      "channel": 2,
      "note": 71,
      "start": 50.3088,
      "duration": 0.0353,
      "velocity": 116,
      "chip": "ym2612"
    },
    {
      "channel": 3,
      "note": 68,
      "start": 50.3149,
      "duration": 0.0298,
      "velocity": 116,
      "chip": "ym2612"
    },
    {
      "channel": 0,
      "note": 49,
      "start": 50.3812,
      "duration": 0.0829,
      "velocity": 95,
      "chip": "ym2612"
    },
    {
      "channel": 1,
      "note": 76,
      "start": 50.3817,
      "duration": 0.0373,
      "velocity": 116,
      "chip": "ym2612"
    },
    {
      "channel": 2,
      "note": 71,
      "start": 50.3822,
      "duration": 0.0373,
      "velocity": 116,
      "chip": "ym2612"
    },
    {
      "channel": 3,
      "note": 68,
      "start": 50.3827,
      "duration": 0.0372,
      "velocity": 116,
      "chip": "ym2612"
    },
    {
      "channel": 4,
      "note": 86,
      "start": 50.3833,
      "duration": 0.098,
      "velocity": 109,
      "chip": "ym2612"
    },
    {
      "channel": 0,
      "note": 52,
      "start": 50.4641,
      "duration": 0.083,
      "velocity": 95,
      "chip": "ym2612"
    },
    {
      "channel": 1,
      "note": 76,
      "start": 50.469,
      "duration": 0.0786,
      "velocity": 112,
      "chip": "ym2612"
    },
    {
      "channel": 2,
      "note": 71,
      "start": 50.4739,
      "duration": 0.0741,
      "velocity": 112,
      "chip": "ym2612"
    },
    {
      "channel": 3,
      "note": 68,
      "start": 50.4804,
      "duration": 0.0681,
      "velocity": 112,
      "chip": "ym2612"
    },
    {
      "channel": 0,
      "note": 49,
      "start": 50.5471,
      "duration": 0.0759,
      "velocity": 95,
      "chip": "ym2612"
    },
    {
      "channel": 1,
      "note": 76,
      "start": 50.5476,
      "duration": 0.0376,
      "velocity": 112,
      "chip": "ym2612"
    },
    {
      "channel": 2,
      "note": 71,
      "start": 50.548,
      "duration": 0.0375,
      "velocity": 112,
      "chip": "ym2612"
    },
    {
      "channel": 3,
      "note": 68,
      "start": 50.5486,
      "duration": 0.0375,
      "velocity": 112,
      "chip": "ym2612"
    },
    {
      "channel": 4,
      "note": 87,
      "start": 50.5491,
      "duration": 0.3531,
      "velocity": 109,
      "chip": "ym2612"
    },
    {
      "channel": 0,
      "note": 56,
      "start": 50.623,
      "duration": 0.2614,
      "velocity": 95,
      "chip": "ym2612"
    },
    {
      "channel": 1,
      "note": 76,
      "start": 50.6269,
      "duration": 0.0578,
      "velocity": 116,
      "chip": "ym2612"
    },
    {
      "channel": 2,
      "note": 71,
      "start": 50.6309,
      "duration": 0.0549,
      "velocity": 116,
      "chip": "ym2612"
    },
    {
      "channel": 3,
      "note": 68,
      "start": 50.6368,
      "duration": 0.0498,
      "velocity": 116,
      "chip": "ym2612"
    },
    {
      "channel": 1,
      "note": 76,
      "start": 50.7516,
      "duration": 0.0665,
      "velocity": 116,
      "chip": "ym2612"
    },
    {
      "channel": 2,
      "note": 71,
      "start": 50.7524,
      "duration": 0.0665,
      "velocity": 116,
      "chip": "ym2612"
    },
    {
      "channel": 3,
      "note": 68,
      "start": 50.7534,
      "duration": 0.0665,
      "velocity": 116,
      "chip": "ym2612"
    },
    {
      "channel": 0,
      "note": 42,
      "start": 50.8844,
      "duration": 0.1656,
      "velocity": 95,
      "chip": "ym2612"
    },
    {
      "channel": 1,
      "note": 74,
      "start": 50.8894,
      "duration": 0.2463,
      "velocity": 112,
      "chip": "ym2612"
    },
    {
      "channel": 2,
      "note": 69,
      "start": 50.8944,
      "duration": 0.2417,
      "velocity": 112,
      "chip": "ym2612"
    },
    {
      "channel": 3,
      "note": 66,
      "start": 50.9011,
      "duration": 0.2355,
      "velocity": 112,
      "chip": "ym2612"
    },
    {
      "channel": 4,
      "note": 86,
      "start": 50.9022,
      "duration": 0.067,
      "velocity": 109,
      "chip": "ym2612"
    },
    {
      "channel": 4,
      "note": 82,
      "start": 50.9692,
      "duration": 0.0846,
      "velocity": 109,
      "chip": "ym2612"
    },
    {
      "channel": 0,
      "note": 42,
      "start": 51.05,
      "duration": 0.0853,
      "velocity": 95,
      "chip": "ym2612"
    },
    {
      "channel": 4,
      "note": 79,
      "start": 51.0538,
      "duration": 0.0834,
      "velocity": 109,
      "chip": "ym2612"
    },
    {
      "channel": 0,
      "note": 50,
      "start": 51.1352,
      "duration": 0.0821,
      "velocity": 95,
      "chip": "ym2612"
    },
    {
      "channel": 1,
      "note": 74,
      "start": 51.1357,
      "duration": 0.0373,
      "velocity": 112,
      "chip": "ym2612"
    },
    {
      "channel": 2,
      "note": 69,
      "start": 51.1361,
      "duration": 0.0373,
      "velocity": 112,
      "chip": "ym2612"
    },
    {
      "channel": 3,
      "note": 66,
      "start": 51.1366,
      "duration": 0.0373,
      "velocity": 112,
      "chip": "ym2612"
    },
    {
      "channel": 4,
      "note": 83,
      "start": 51.1372,
      "duration": 0.1648,
      "velocity": 109,
      "chip": "ym2612"
    },
    {
      "channel": 1,
      "note": 74,
      "start": 51.2222,
      "duration": 0.041,
      "velocity": 116,
      "chip": "ym2612"
    },
    {
      "channel": 2,
      "note": 69,
      "start": 51.2271,
      "duration": 0.0366,
      "velocity": 116,
      "chip": "ym2612"
    },
    {
      "channel": 3,
      "note": 66,
      "start": 51.2337,
      "duration": 0.0305,
      "velocity": 116,
      "chip": "ym2612"
    },
    {
      "channel": 1,
      "note": 74,
      "start": 51.3004,
      "duration": 0.0378,
      "velocity": 116,
      "chip": "ym2612"
    },
    {
      "channel": 2,
      "note": 69,
      "start": 51.3009,
      "duration": 0.0378,
      "velocity": 116,
      "chip": "ym2612"
    },
    {
      "channel": 3,
      "note": 66,
      "start": 51.3014,
      "duration": 0.0377,
      "velocity": 116,
      "chip": "ym2612"
    },
    {
      "channel": 4,
      "note": 82,
      "start": 51.3021,
      "duration": 0.0757,
      "velocity": 109,
      "chip": "ym2612"
    },
    {
      "channel": 1,
      "note": 74,
      "start": 51.3763,
      "duration": 0.0586,
      "velocity": 116,
      "chip": "ym2612"
    },
    {
      "channel": 2,
      "note": 69,
      "start": 51.3767,
      "duration": 0.0591,
      "velocity": 116,
      "chip": "ym2612"
    },
    {
      "channel": 3,
      "note": 66,
      "start": 51.3773,
      "duration": 0.0595,
      "velocity": 116,
      "chip": "ym2612"
    },
    {
      "channel": 4,
      "note": 79,
      "start": 51.3778,
      "duration": 0.1407,
      "velocity": 109,
      "chip": "ym2612"
    },
    {
      "channel": 0,
      "note": 54,
      "start": 51.5012,
      "duration": 0.1331,
      "velocity": 95,
      "chip": "ym2612"
    },
    {
      "channel": 1,
      "note": 74,
      "start": 51.5061,
      "duration": 0.0623,
      "velocity": 112,
      "chip": "ym2612"
    },
    {
      "channel": 2,
      "note": 69,
      "start": 51.511,
      "duration": 0.0583,
      "velocity": 112,
      "chip": "ym2612"
    },
    {
      "channel": 3,
      "note": 66,
      "start": 51.5175,
      "duration": 0.0527,
      "velocity": 112,
      "chip": "ym2612"
    },
    {
      "channel": 4,
      "note": 85,
      "start": 51.5185,
      "duration": 0.1861,
      "velocity": 109,
      "chip": "ym2612"
    },
    {
      "channel": 1,
      "note": 74,
      "start": 51.6392,
      "duration": 0.0625,
      "velocity": 116,
      "chip": "ym2612"
    },
    {
      "channel": 2,
      "note": 69,
      "start": 51.644,
      "duration": 0.0586,
      "velocity": 116,
      "chip": "ym2612"
    },
    {
      "channel": 3,
      "note": 66,
      "start": 51.6506,
      "duration": 0.0529,
      "velocity": 116,
      "chip": "ym2612"
    },
    {
      "channel": 4,
      "note": 87,
      "start": 51.7046,
      "duration": 0.11,
      "velocity": 109,
      "chip": "ym2612"
    },
    {
      "channel": 0,
      "note": 54,
      "start": 51.7675,
      "duration": 0.0832,
      "velocity": 95,
      "chip": "ym2612"
    },
    {
      "channel": 1,
      "note": 74,
      "start": 51.7724,
      "duration": 0.0407,
      "velocity": 112,
      "chip": "ym2612"
    },
    {
      "channel": 2,
      "note": 69,
      "start": 51.7773,
      "duration": 0.0362,
      "velocity": 112,
      "chip": "ym2612"
    },
    {
      "channel": 3,
      "note": 66,
      "start": 51.7839,
      "duration": 0.0301,
      "velocity": 112,
      "chip": "ym2612"
    },
    {
      "channel": 4,
      "note": 86,
      "start": 51.8146,
      "duration": 0.051,
      "velocity": 109,
      "chip": "ym2612"
    },
    {
      "channel": 0,
      "note": 52,
      "start": 51.8507,
      "duration": 0.0804,
      "velocity": 95,
      "chip": "ym2612"
    },
    {
      "channel": 1,
      "note": 74,
      "start": 51.8547,
      "duration": 0.0392,
      "velocity": 116,
      "chip": "ym2612"
    },
    {
      "channel": 2,
      "note": 69,
      "start": 51.8589,
      "duration": 0.0355,
      "velocity": 116,
      "chip": "ym2612"
    },
    {
      "channel": 3,
      "note": 66,
      "start": 51.8649,
      "duration": 0.0301,
      "velocity": 116,
      "chip": "ym2612"
    },
    {
      "channel": 4,
      "note": 85,
      "start": 51.8656,
      "duration": 0.0678,
      "velocity": 109,
      "chip": "ym2612"
    },
    {
      "channel": 0,
      "note": 50,
      "start": 51.9312,
      "duration": 0.0832,
      "velocity": 95,
      "chip": "ym2612"
    },
    {
      "channel": 1,
      "note": 74,
      "start": 51.9317,
      "duration": 0.0378,
      "velocity": 116,
      "chip": "ym2612"
    },
    {
      "channel": 2,
      "note": 69,
      "start": 51.9322,
      "duration": 0.0378,
      "velocity": 116,
      "chip": "ym2612"
    },
    {
      "channel": 3,
      "note": 66,
      "start": 51.9327,
      "duration": 0.0377,
      "velocity": 116,
      "chip": "ym2612"
    },
    {
      "channel": 4,
      "note": 83,
      "start": 51.9334,
      "duration": 0.0984,
      "velocity": 109,
      "chip": "ym2612"
    },
    {
      "channel": 0,
      "note": 52,
      "start": 52.0144,
      "duration": 0.0832,
      "velocity": 95,
      "chip": "ym2612"
    },
    {
      "channel": 1,
      "note": 74,
      "start": 52.0193,
      "duration": 0.0787,
      "velocity": 112,
      "chip": "ym2612"
    },
    {
      "channel": 2,
      "note": 69,
      "start": 52.0241,
      "duration": 0.0742,
      "velocity": 112,
      "chip": "ym2612"
    },
    {
      "channel": 3,
      "note": 66,
      "start": 52.0308,
      "duration": 0.0682,
      "velocity": 112,
      "chip": "ym2612"
    },
    {
      "channel": 4,
      "note": 81,
      "start": 52.0318,
      "duration": 0.0677,
      "velocity": 109,
      "chip": "ym2612"
    },
    {
      "channel": 0,
      "note": 50,
      "start": 52.0976,
      "duration": 0.0753,
      "velocity": 95,
      "chip": "ym2612"
    },
    {
      "channel": 1,
      "note": 74,
      "start": 52.098,
      "duration": 0.0375,
      "velocity": 112,
      "chip": "ym2612"
    },
    {
      "channel": 2,
      "note": 69,
      "start": 52.0985,
      "duration": 0.0375,
      "velocity": 112,
      "chip": "ym2612"
    },
    {
      "channel": 3,
      "note": 66,
      "start": 52.099,
      "duration": 0.0376,
      "velocity": 112,
      "chip": "ym2612"
    },
    {
      "channel": 4,
      "note": 79,
      "start": 52.0996,
      "duration": 0.0878,
      "velocity": 109,
      "chip": "ym2612"
    },
    {
      "channel": 0,
      "note": 54,
      "start": 52.1728,
      "duration": 0.2615,
      "velocity": 95,
      "chip": "ym2612"
    },
    {
      "channel": 1,
      "note": 74,
      "start": 52.177,
      "duration": 0.0578,
      "velocity": 116,
      "chip": "ym2612"
    },
    {
      "channel": 2,
      "note": 69,
      "start": 52.1808,
      "duration": 0.0549,
      "velocity": 116,
      "chip": "ym2612"
    },
    {
      "channel": 3,
      "note": 66,
      "start": 52.1869,
      "duration": 0.0497,
      "velocity": 116,
      "chip": "ym2612"
    },
    {
      "channel": 4,
      "note": 74,
      "start": 52.1874,
      "duration": 0.1171,
      "velocity": 109,
      "chip": "ym2612"
    },
    {
      "channel": 1,
      "note": 74,
      "start": 52.3016,
      "duration": 0.0663,
      "velocity": 116,
      "chip": "ym2612"
    },
    {
      "channel": 2,
      "note": 69,
      "start": 52.3026,
      "duration": 0.0663,
      "velocity": 116,
      "chip": "ym2612"
    },
    {
      "channel": 3,
      "note": 66,
      "start": 52.3035,
      "duration": 0.0663,
      "velocity": 116,
      "chip": "ym2612"
    },
    {
      "channel": 4,
      "note": 79,
      "start": 52.3046,
      "duration": 0.1476,
      "velocity": 109,
      "chip": "ym2612"
    },
    {
      "channel": 0,
      "note": 42,
      "start": 52.4343,
      "duration": 0.1661,
      "velocity": 95,
      "chip": "ym2612"
    },
    {
      "channel": 1,
      "note": 76,
      "start": 52.4393,
      "duration": 0.2438,
      "velocity": 112,
      "chip": "ym2612"
    },
    {
      "channel": 2,
      "note": 71,
      "start": 52.4444,
      "duration": 0.2393,
      "velocity": 112,
      "chip": "ym2612"
    },
    {
      "channel": 3,
      "note": 68,
      "start": 52.4511,
      "duration": 0.233,
      "velocity": 112,
      "chip": "ym2612"
    },
    {
      "channel": 4,
      "note": 83,
      "start": 52.4521,
      "duration": 0.0674,
      "velocity": 109,
      "chip": "ym2612"
    },
    {
      "channel": 4,
      "note": 81,
      "start": 52.5195,
      "duration": 0.0848,
      "velocity": 109,
      "chip": "ym2612"
    },
    {
      "channel": 0,
      "note": 42,
      "start": 52.6005,
      "duration": 0.0822,
      "velocity": 95,
      "chip": "ym2612"
    },
    {
      "channel": 4,
      "note": 77,
      "start": 52.6043,
      "duration": 0.0805,
      "velocity": 109,
      "chip": "ym2612"
    },
    {
      "channel": 0,
      "note": 49,
      "start": 52.6827,
      "duration": 0.084,
      "velocity": 95,
      "chip": "ym2612"
    },
    {
      "channel": 1,
      "note": 76,
      "start": 52.6831,
      "duration": 0.0371,
      "velocity": 112,
      "chip": "ym2612"
    },
    {
      "channel": 2,
      "note": 71,
      "start": 52.6837,
      "duration": 0.037,
      "velocity": 112,
      "chip": "ym2612"
    },
    {
      "channel": 3,
      "note": 68,
      "start": 52.6841,
      "duration": 0.0371,
      "velocity": 112,
      "chip": "ym2612"
    },
    {
      "channel": 4,
      "note": 80,
      "start": 52.6848,
      "duration": 0.1668,
      "velocity": 109,
      "chip": "ym2612"
    },
    {
      "channel": 1,
      "note": 76,
      "start": 52.7716,
      "duration": 0.0411,
      "velocity": 116,
      "chip": "ym2612"
    },
    {
      "channel": 2,
      "note": 71,
      "start": 52.7765,
      "duration": 0.0366,
      "velocity": 116,
      "chip": "ym2612"
    },
    {
      "channel": 3,
      "note": 68,
      "start": 52.783,
      "duration": 0.0306,
      "velocity": 116,
      "chip": "ym2612"
    },
    {
      "channel": 1,
      "note": 76,
      "start": 52.8499,
      "duration": 0.0378,
      "velocity": 116,
      "chip": "ym2612"
    },
    {
      "channel": 2,
      "note": 71,
      "start": 52.8505,
      "duration": 0.0377,
      "velocity": 116,
      "chip": "ym2612"
    },
    {
      "channel": 3,
      "note": 68,
      "start": 52.851,
      "duration": 0.0377,
      "velocity": 116,
      "chip": "ym2612"
    },
    {
      "channel": 4,
      "note": 80,
      "start": 52.8516,
      "duration": 0.0753,
      "velocity": 109,
      "chip": "ym2612"
    },
    {
      "channel": 1,
      "note": 76,
      "start": 52.9253,
      "duration": 0.0588,
      "velocity": 116,
      "chip": "ym2612"
    },
    {
      "channel": 2,
      "note": 71,
      "start": 52.9258,
      "duration": 0.0591,
      "velocity": 116,
      "chip": "ym2612"
    },
    {
      "channel": 3,
      "note": 68,
      "start": 52.9263,
      "duration": 0.0596,
      "velocity": 116,
      "chip": "ym2612"
    },
    {
      "channel": 4,
      "note": 77,
      "start": 52.9269,
      "duration": 0.1407,
      "velocity": 109,
      "chip": "ym2612"
    },
    {
      "channel": 0,
      "note": 56,
      "start": 53.0502,
      "duration": 0.1332,
      "velocity": 95,
      "chip": "ym2612"
    },
    {
      "channel": 1,
      "note": 76,
      "start": 53.0551,
      "duration": 0.0623,
      "velocity": 112,
      "chip": "ym2612"
    },
    {
      "channel": 2,
      "note": 71,
      "start": 53.06,
      "duration": 0.0583,
      "velocity": 112,
      "chip": "ym2612"
    },
    {
      "channel": 3,
      "note": 68,
      "start": 53.0666,
      "duration": 0.0527,
      "velocity": 112,
      "chip": "ym2612"
    },
    {
      "channel": 4,
      "note": 82,
      "start": 53.0676,
      "duration": 0.133,
      "velocity": 109,
      "chip": "ym2612"
    },
    {
      "channel": 1,
      "note": 76,
      "start": 53.1883,
      "duration": 0.0623,
      "velocity": 116,
      "chip": "ym2612"
    },
    {
      "channel": 2,
      "note": 71,
      "start": 53.1931,
      "duration": 0.0585,
      "velocity": 116,
      "chip": "ym2612"
    },
    {
      "channel": 3,
      "note": 68,
      "start": 53.1998,
      "duration": 0.0527,
      "velocity": 116,
      "chip": "ym2612"
    },
    {
      "channel": 0,
      "note": 56,
      "start": 53.3168,
      "duration": 0.0837,
      "velocity": 95,
      "chip": "ym2612"
    },
    {
      "channel": 1,
      "note": 76,
      "start": 53.3216,
      "duration": 0.0412,
      "velocity": 112,
      "chip": "ym2612"
    },
    {
      "channel": 2,
      "note": 71,
      "start": 53.3265,
      "duration": 0.0369,
      "velocity": 112,
      "chip": "ym2612"
    },
    {
      "channel": 3,
      "note": 68,
      "start": 53.3331,
      "duration": 0.0308,
      "velocity": 112,
      "chip": "ym2612"
    },
    {
      "channel": 4,
      "note": 86,
      "start": 53.3341,
      "duration": 0.081,
      "velocity": 109,
      "chip": "ym2612"
    },
    {
      "channel": 0,
      "note": 54,
      "start": 53.4005,
      "duration": 0.0799,
      "velocity": 95,
      "chip": "ym2612"
    },
    {
      "channel": 1,
      "note": 76,
      "start": 53.4044,
      "duration": 0.0386,
      "velocity": 116,
      "chip": "ym2612"
    },
    {
      "channel": 2,
      "note": 71,
      "start": 53.4086,
      "duration": 0.0349,
      "velocity": 116,
      "chip": "ym2612"
    },
    {
      "channel": 3,
      "note": 68,
      "start": 53.4147,
      "duration": 0.0294,
      "velocity": 116,
      "chip": "ym2612"
    },
    {
      "channel": 0,
      "note": 49,
      "start": 53.4805,
      "duration": 0.0829,
      "velocity": 95,
      "chip": "ym2612"
    },
    {
      "channel": 1,
      "note": 76,
      "start": 53.481,
      "duration": 0.0371,
      "velocity": 116,
      "chip": "ym2612"
    },
    {
      "channel": 2,
      "note": 71,
      "start": 53.4813,
      "duration": 0.0372,
      "velocity": 116,
      "chip": "ym2612"
    },
    {
      "channel": 3,
      "note": 68,
      "start": 53.4819,
      "duration": 0.0372,
      "velocity": 116,
      "chip": "ym2612"
    },
    {
      "channel": 4,
      "note": 87,
      "start": 53.4824,
      "duration": 0.0983,
      "velocity": 109,
      "chip": "ym2612"
    },
    {
      "channel": 0,
      "note": 52,
      "start": 53.5634,
      "duration": 0.0826,
      "velocity": 95,
      "chip": "ym2612"
    },
    {
      "channel": 1,
      "note": 76,
      "start": 53.5683,
      "duration": 0.0782,
      "velocity": 112,
      "chip": "ym2612"
    },
    {
      "channel": 2,
      "note": 71,
      "start": 53.5731,
      "duration": 0.0739,
      "velocity": 112,
      "chip": "ym2612"
    },
    {
      "channel": 3,
      "note": 68,
      "start": 53.5798,
      "duration": 0.0676,
      "velocity": 112,
      "chip": "ym2612"
    },
    {
      "channel": 0,
      "note": 49,
      "start": 53.646,
      "duration": 0.0745,
      "velocity": 95,
      "chip": "ym2612"
    },
    {
      "channel": 1,
      "note": 76,
      "start": 53.6465,
      "duration": 0.037,
      "velocity": 112,
      "chip": "ym2612"
    },
    {
      "channel": 2,
      "note": 71,
      "start": 53.647,
      "duration": 0.0369,
      "velocity": 112,
      "chip": "ym2612"
    },
    {
      "channel": 3,
      "note": 68,
      "start": 53.6474,
      "duration": 0.037,
      "velocity": 112,
      "chip": "ym2612"
    },
    {
      "channel": 4,
      "note": 84,
      "start": 53.648,
      "duration": 0.243,
      "velocity": 109,
      "chip": "ym2612"
    },
    {
      "channel": 0,
      "note": 56,
      "start": 53.7206,
      "duration": 0.1557,
      "velocity": 95,
      "chip": "ym2612"
    },
    {
      "channel": 1,
      "note": 76,
      "start": 53.7245,
      "duration": 0.0395,
      "velocity": 116,
      "chip": "ym2612"
    },
    {
      "channel": 2,
      "note": 71,
      "start": 53.7286,
      "duration": 0.0359,
      "velocity": 116,
      "chip": "ym2612"
    },
    {
      "channel": 3,
      "note": 68,
      "start": 53.7344,
      "duration": 0.0306,
      "velocity": 116,
      "chip": "ym2612"
    },
    {
      "channel": 1,
      "note": 76,
      "start": 53.8014,
      "duration": 0.0378,
      "velocity": 116,
      "chip": "ym2612"
    },
    {
      "channel": 2,
      "note": 71,
      "start": 53.8019,
      "duration": 0.0378,
      "velocity": 116,
      "chip": "ym2612"
    },
    {
      "channel": 3,
      "note": 68,
      "start": 53.8023,
      "duration": 0.0378,
      "velocity": 116,
      "chip": "ym2612"
    },
    {
      "channel": 0,
      "note": 42,
      "start": 53.8764,
      "duration": 0.1623,
      "velocity": 95,
      "chip": "ym2612"
    },
    {
      "channel": 1,
      "note": 78,
      "start": 53.8804,
      "duration": 0.2412,
      "velocity": 112,
      "chip": "ym2612"
    },
    {
      "channel": 2,
      "note": 73,
      "start": 53.8843,
      "duration": 0.2379,
      "velocity": 112,
      "chip": "ym2612"
    },
    {
      "channel": 3,
      "note": 70,
      "start": 53.8905,
      "duration": 0.2321,
      "velocity": 112,
      "chip": "ym2612"
    },
    {
      "channel": 4,
      "note": 71,
      "start": 53.8911,
      "duration": 0.0666,
      "velocity": 109,
      "chip": "ym2612"
    },
    {
      "channel": 4,
      "note": 72,
      "start": 53.9577,
      "duration": 0.0848,
      "velocity": 109,
      "chip": "ym2612"
    },
    {
      "channel": 0,
      "note": 42,
      "start": 54.0387,
      "duration": 0.0825,
      "velocity": 95,
      "chip": "ym2612"
    },
    {
      "channel": 4,
      "note": 71,
      "start": 54.0425,
      "duration": 0.0808,
      "velocity": 109,
      "chip": "ym2612"
    },
    {
      "channel": 0,
      "note": 49,
      "start": 54.1212,
      "duration": 0.0837,
      "velocity": 95,
      "chip": "ym2612"
    },
    {
      "channel": 1,
      "note": 78,
      "start": 54.1217,
      "duration": 0.0374,
      "velocity": 112,
      "chip": "ym2612"
    },
    {
      "channel": 2,
      "note": 73,
      "start": 54.1222,
      "duration": 0.0374,
      "velocity": 112,
      "chip": "ym2612"
    },
    {
      "channel": 3,
      "note": 70,
      "start": 54.1227,
      "duration": 0.0373,
      "velocity": 112,
      "chip": "ym2612"
    },
    {
      "channel": 4,
      "note": 72,
      "start": 54.1233,
      "duration": 0.0989,
      "velocity": 109,
      "chip": "ym2612"
    },
    {
      "channel": 1,
      "note": 78,
      "start": 54.2098,
      "duration": 0.0412,
      "velocity": 116,
      "chip": "ym2612"
    },
    {
      "channel": 2,
      "note": 73,
      "start": 54.2146,
      "duration": 0.0368,
      "velocity": 116,
      "chip": "ym2612"
    },
    {
      "channel": 3,
      "note": 70,
      "start": 54.2212,
      "duration": 0.0308,
      "velocity": 116,
      "chip": "ym2612"
    },
    {
      "channel": 4,
      "note": 77,
      "start": 54.2222,
      "duration": 0.0678,
      "velocity": 109,
      "chip": "ym2612"
    },
    {
      "channel": 1,
      "note": 78,
      "start": 54.2885,
      "duration": 0.0376,
      "velocity": 116,
      "chip": "ym2612"
    },
    {
      "channel": 2,
      "note": 73,
      "start": 54.2889,
      "duration": 0.0376,
      "velocity": 116,
      "chip": "ym2612"
    },
    {
      "channel": 3,
      "note": 70,
      "start": 54.2894,
      "duration": 0.0376,
      "velocity": 116,
      "chip": "ym2612"
    },
    {
      "channel": 4,
      "note": 74,
      "start": 54.29,
      "duration": 0.0752,
      "velocity": 109,
      "chip": "ym2612"
    },
    {
      "channel": 1,
      "note": 78,
      "start": 54.3637,
      "duration": 0.0584,
      "velocity": 116,
      "chip": "ym2612"
    },
    {
      "channel": 2,
      "note": 73,
      "start": 54.3642,
      "duration": 0.0588,
      "velocity": 116,
      "chip": "ym2612"
    },
    {
      "channel": 3,
      "note": 70,
      "start": 54.3646,
      "duration": 0.0593,
      "velocity": 116,
      "chip": "ym2612"
    },
    {
      "channel": 4,
      "note": 75,
      "start": 54.3653,
      "duration": 0.1404,
      "velocity": 109,
      "chip": "ym2612"
    },
    {
      "channel": 0,
      "note": 54,
      "start": 54.4883,
      "duration": 0.1333,
      "velocity": 95,
      "chip": "ym2612"
    },
    {
      "channel": 1,
      "note": 78,
      "start": 54.4932,
      "duration": 0.0624,
      "velocity": 112,
      "chip": "ym2612"
    },
    {
      "channel": 2,
      "note": 73,
      "start": 54.4981,
      "duration": 0.0584,
      "velocity": 112,
      "chip": "ym2612"
    },
    {
      "channel": 3,
      "note": 70,
      "start": 54.5046,
      "duration": 0.0528,
      "velocity": 112,
      "chip": "ym2612"
    },
    {
      "channel": 4,
      "note": 78,
      "start": 54.5057,
      "duration": 0.1332,
      "velocity": 109,
      "chip": "ym2612"
    },
    {
      "channel": 1,
      "note": 78,
      "start": 54.6265,
      "duration": 0.0624,
      "velocity": 116,
      "chip": "ym2612"
    },
    {
      "channel": 2,
      "note": 73,
      "start": 54.6314,
      "duration": 0.0584,
      "velocity": 116,
      "chip": "ym2612"
    },
    {
      "channel": 3,
      "note": 70,
      "start": 54.6379,
      "duration": 0.0528,
      "velocity": 116,
      "chip": "ym2612"
    },
    {
      "channel": 4,
      "note": 81,
      "start": 54.6389,
      "duration": 0.1334,
      "velocity": 109,
      "chip": "ym2612"
    },
    {
      "channel": 0,
      "note": 54,
      "start": 54.755,
      "duration": 0.0837,
      "velocity": 95,
      "chip": "ym2612"
    },
    {
      "channel": 1,
      "note": 78,
      "start": 54.7599,
      "duration": 0.0412,
      "velocity": 112,
      "chip": "ym2612"
    },
    {
      "channel": 2,
      "note": 73,
      "start": 54.7647,
      "duration": 0.0368,
      "velocity": 112,
      "chip": "ym2612"
    },
    {
      "channel": 3,
      "note": 70,
      "start": 54.7713,
      "duration": 0.0306,
      "velocity": 112,
      "chip": "ym2612"
    },
    {
      "channel": 4,
      "note": 76,
      "start": 54.7723,
      "duration": 0.0812,
      "velocity": 109,
      "chip": "ym2612"
    },
    {
      "channel": 0,
      "note": 52,
      "start": 54.8387,
      "duration": 0.0807,
      "velocity": 95,
      "chip": "ym2612"
    },
    {
      "channel": 1,
      "note": 78,
      "start": 54.8428,
      "duration": 0.039,
      "velocity": 116,
      "chip": "ym2612"
    },
    {
      "channel": 2,
      "note": 73,
      "start": 54.8468,
      "duration": 0.0355,
      "velocity": 116,
      "chip": "ym2612"
    },
    {
      "channel": 3,
      "note": 70,
      "start": 54.853,
      "duration": 0.0297,
      "velocity": 116,
      "chip": "ym2612"
    },
    {
      "channel": 4,
      "note": 78,
      "start": 54.8535,
      "duration": 0.0678,
      "velocity": 109,
      "chip": "ym2612"
    },
    {
      "channel": 0,
      "note": 49,
      "start": 54.9194,
      "duration": 0.0827,
      "velocity": 95,
      "chip": "ym2612"
    },
    {
      "channel": 1,
      "note": 78,
      "start": 54.9199,
      "duration": 0.0372,
      "velocity": 116,
      "chip": "ym2612"
    },
    {
      "channel": 2,
      "note": 73,
      "start": 54.9203,
      "duration": 0.0372,
      "velocity": 116,
      "chip": "ym2612"
    },
    {
      "channel": 3,
      "note": 70,
      "start": 54.9208,
      "duration": 0.0373,
      "velocity": 116,
      "chip": "ym2612"
    },
    {
      "channel": 4,
      "note": 81,
      "start": 54.9214,
      "duration": 0.0981,
      "velocity": 109,
      "chip": "ym2612"
    },
    {
      "channel": 0,
      "note": 52,
      "start": 55.0021,
      "duration": 0.0829,
      "velocity": 95,
      "chip": "ym2612"
    },
    {
      "channel": 1,
      "note": 78,
      "start": 55.007,
      "duration": 0.0785,
      "velocity": 112,
      "chip": "ym2612"
    },
    {
      "channel": 2,
      "note": 73,
      "start": 55.0119,
      "duration": 0.0743,
      "velocity": 112,
      "chip": "ym2612"
    },
    {
      "channel": 3,
      "note": 70,
      "start": 55.0185,
      "duration": 0.0681,
      "velocity": 112,
      "chip": "ym2612"
    },
    {
      "channel": 4,
      "note": 85,
      "start": 55.0195,
      "duration": 0.0678,
      "velocity": 109,
      "chip": "ym2612"
    },
    {
      "channel": 0,
      "note": 49,
      "start": 55.0851,
      "duration": 0.0756,
      "velocity": 95,
      "chip": "ym2612"
    },
    {
      "channel": 1,
      "note": 78,
      "start": 55.0856,
      "duration": 0.0374,
      "velocity": 112,
      "chip": "ym2612"
    },
    {
      "channel": 2,
      "note": 73,
      "start": 55.0861,
      "duration": 0.0374,
      "velocity": 112,
      "chip": "ym2612"
    },
    {
      "channel": 3,
      "note": 70,
      "start": 55.0866,
      "duration": 0.0374,
      "velocity": 112,
      "chip": "ym2612"
    },
    {
      "channel": 4,
      "note": 80,
      "start": 55.0873,
      "duration": 0.0879,
      "velocity": 109,
      "chip": "ym2612"
    },
    {
      "channel": 0,
      "note": 54,
      "start": 55.1607,
      "duration": 0.2616,
      "velocity": 95,
      "chip": "ym2612"
    },
    {
      "channel": 1,
      "note": 78,
      "start": 55.1646,
      "duration": 0.0579,
      "velocity": 116,
      "chip": "ym2612"
    },
    {
      "channel": 2,
      "note": 73,
      "start": 55.1688,
      "duration": 0.0546,
      "velocity": 116,
      "chip": "ym2612"
    },
    {
      "channel": 3,
      "note": 70,
      "start": 55.1745,
      "duration": 0.0499,
      "velocity": 116,
      "chip": "ym2612"
    },
    {
      "channel": 4,
      "note": 81,
      "start": 55.1752,
      "duration": 0.1171,
      "velocity": 109,
      "chip": "ym2612"
    },
    {
      "channel": 1,
      "note": 78,
      "start": 55.2894,
      "duration": 0.0663,
      "velocity": 116,
      "chip": "ym2612"
    },
    {
      "channel": 2,
      "note": 73,
      "start": 55.2904,
      "duration": 0.0663,
      "velocity": 116,
      "chip": "ym2612"
    },
    {
      "channel": 3,
      "note": 70,
      "start": 55.2912,
      "duration": 0.0663,
      "velocity": 116,
      "chip": "ym2612"
    },
    {
      "channel": 4,
      "note": 84,
      "start": 55.2923,
      "duration": 0.1477,
      "velocity": 109,
      "chip": "ym2612"
    },
    {
      "channel": 0,
      "note": 42,
      "start": 55.4223,
      "duration": 0.1656,
      "velocity": 95,
      "chip": "ym2612"
    },
    {
      "channel": 1,
      "note": 76,
      "start": 55.4273,
      "duration": 0.2459,
      "velocity": 112,
      "chip": "ym2612"
    },
    {
      "channel": 2,
      "note": 71,
      "start": 55.4324,
      "duration": 0.2414,
      "velocity": 112,
      "chip": "ym2612"
    },
    {
      "channel": 3,
      "note": 68,
      "start": 55.439,
      "duration": 0.2352,
      "velocity": 112,
      "chip": "ym2612"
    },
    {
      "channel": 4,
      "note": 82,
      "start": 55.44,
      "duration": 0.2349,
      "velocity": 109,
      "chip": "ym2612"
    },
    {
      "channel": 0,
      "note": 42,
      "start": 55.5879,
      "duration": 0.0848,
      "velocity": 95,
      "chip": "ym2612"
    },
    {
      "channel": 0,
      "note": 49,
      "start": 55.6728,
      "duration": 0.0824,
      "velocity": 95,
      "chip": "ym2612"
    },
    {
      "channel": 1,
      "note": 76,
      "start": 55.6733,
      "duration": 0.0375,
      "velocity": 112,
      "chip": "ym2612"
    },
    {
      "channel": 2,
      "note": 71,
      "start": 55.6738,
      "duration": 0.0375,
      "velocity": 112,
      "chip": "ym2612"
    },
    {
      "channel": 3,
      "note": 68,
      "start": 55.6743,
      "duration": 0.0374,
      "velocity": 112,
      "chip": "ym2612"
    },
    {
      "channel": 4,
      "note": 86,
      "start": 55.6749,
      "duration": 1.1676,
      "velocity": 109,
      "chip": "ym2612"
    },
    {
      "channel": 1,
      "note": 76,
      "start": 55.7601,
      "duration": 0.041,
      "velocity": 116,
      "chip": "ym2612"
    },
    {
      "channel": 2,
      "note": 71,
      "start": 55.765,
      "duration": 0.0366,
      "velocity": 116,
      "chip": "ym2612"
    },
    {
      "channel": 3,
      "note": 68,
      "start": 55.7716,
      "duration": 0.0304,
      "velocity": 116,
      "chip": "ym2612"
    },
    {
      "channel": 1,
      "note": 76,
      "start": 55.8387,
      "duration": 0.037,
      "velocity": 116,
      "chip": "ym2612"
    },
    {
      "channel": 2,
      "note": 71,
      "start": 55.8391,
      "duration": 0.0371,
      "velocity": 116,
      "chip": "ym2612"
    },
    {
      "channel": 3,
      "note": 68,
      "start": 55.8396,
      "duration": 0.0371,
      "velocity": 116,
      "chip": "ym2612"
    },
    {
      "channel": 1,
      "note": 76,
      "start": 55.9135,
      "duration": 0.0587,
      "velocity": 116,
      "chip": "ym2612"
    },
    {
      "channel": 2,
      "note": 71,
      "start": 55.914,
      "duration": 0.0591,
      "velocity": 116,
      "chip": "ym2612"
    },
    {
      "channel": 3,
      "note": 68,
      "start": 55.9143,
      "duration": 0.0597,
      "velocity": 116,
      "chip": "ym2612"
    },
    {
      "channel": 0,
      "note": 56,
      "start": 56.0383,
      "duration": 0.1331,
      "velocity": 95,
      "chip": "ym2612"
    },
    {
      "channel": 1,
      "note": 76,
      "start": 56.0432,
      "duration": 0.0622,
      "velocity": 112,
      "chip": "ym2612"
    },
    {
      "channel": 2,
      "note": 71,
      "start": 56.048,
      "duration": 0.0583,
      "velocity": 112,
      "chip": "ym2612"
    },
    {
      "channel": 3,
      "note": 68,
      "start": 56.0546,
      "duration": 0.0526,
      "velocity": 112,
      "chip": "ym2612"
    },
    {
      "channel": 1,
      "note": 76,
      "start": 56.1763,
      "duration": 0.0625,
      "velocity": 116,
      "chip": "ym2612"
    },
    {
      "channel": 2,
      "note": 71,
      "start": 56.1812,
      "duration": 0.0585,
      "velocity": 116,
      "chip": "ym2612"
    },
    {
      "channel": 3,
      "note": 68,
      "start": 56.1877,
      "duration": 0.0529,
      "velocity": 116,
      "chip": "ym2612"
    },
    {
      "channel": 0,
      "note": 56,
      "start": 56.3048,
      "duration": 0.0835,
      "velocity": 95,
      "chip": "ym2612"
    },
    {
      "channel": 1,
      "note": 76,
      "start": 56.3097,
      "duration": 0.0407,
      "velocity": 112,
      "chip": "ym2612"
    },
    {
      "channel": 2,
      "note": 71,
      "start": 56.3145,
      "duration": 0.0363,
      "velocity": 112,
      "chip": "ym2612"
    },
    {
      "channel": 3,
      "note": 68,
      "start": 56.3211,
      "duration": 0.0302,
      "velocity": 112,
      "chip": "ym2612"
    },
    {
      "channel": 0,
      "note": 54,
      "start": 56.3883,
      "duration": 0.0797,
      "velocity": 95,
      "chip": "ym2612"
    },
    {
      "channel": 1,
      "note": 76,
      "start": 56.3922,
      "duration": 0.0383,
      "velocity": 116,
      "chip": "ym2612"
    },
    {
      "channel": 2,
      "note": 71,
      "start": 56.3961,
      "duration": 0.0349,
      "velocity": 116,
      "chip": "ym2612"
    },
    {
      "channel": 3,
      "note": 68,
      "start": 56.4021,
      "duration": 0.0292,
      "velocity": 116,
      "chip": "ym2612"
    },
    {
      "channel": 0,
      "note": 49,
      "start": 56.468,
      "duration": 0.0832,
      "velocity": 95,
      "chip": "ym2612"
    },
    {
      "channel": 1,
      "note": 76,
      "start": 56.4685,
      "duration": 0.0375,
      "velocity": 116,
      "chip": "ym2612"
    },
    {
      "channel": 2,
      "note": 71,
      "start": 56.469,
      "duration": 0.0374,
      "velocity": 116,
      "chip": "ym2612"
    },
    {
      "channel": 3,
      "note": 68,
      "start": 56.4695,
      "duration": 0.0375,
      "velocity": 116,
      "chip": "ym2612"
    },
    {
      "channel": 0,
      "note": 52,
      "start": 56.5512,
      "duration": 0.0836,
      "velocity": 95,
      "chip": "ym2612"
    },
    {
      "channel": 1,
      "note": 76,
      "start": 56.5561,
      "duration": 0.0792,
      "velocity": 112,
      "chip": "ym2612"
    },
    {
      "channel": 2,
      "note": 71,
      "start": 56.561,
      "duration": 0.0748,
      "velocity": 112,
      "chip": "ym2612"
    },
    {
      "channel": 3,
      "note": 68,
      "start": 56.5676,
      "duration": 0.0687,
      "velocity": 112,
      "chip": "ym2612"
    },
    {
      "channel": 0,
      "note": 49,
      "start": 56.6348,
      "duration": 0.0756,
      "velocity": 95,
      "chip": "ym2612"
    },
    {
      "channel": 1,
      "note": 76,
      "start": 56.6354,
      "duration": 0.0374,
      "velocity": 112,
      "chip": "ym2612"
    },
    {
      "channel": 2,
      "note": 71,
      "start": 56.6358,
      "duration": 0.0374,
      "velocity": 112,
      "chip": "ym2612"
    },
    {
      "channel": 3,
      "note": 68,
      "start": 56.6363,
      "duration": 0.0374,
      "velocity": 112,
      "chip": "ym2612"
    },
    {
      "channel": 0,
      "note": 56,
      "start": 56.7104,
      "duration": 0.2621,
      "velocity": 95,
      "chip": "ym2612"
    },
    {
      "channel": 1,
      "note": 76,
      "start": 56.7145,
      "duration": 0.0583,
      "velocity": 116,
      "chip": "ym2612"
    },
    {
      "channel": 2,
      "note": 71,
      "start": 56.7185,
      "duration": 0.0552,
      "velocity": 116,
      "chip": "ym2612"
    },
    {
      "channel": 3,
      "note": 68,
      "start": 56.7248,
      "duration": 0.05,
      "velocity": 116,
      "chip": "ym2612"
    },
    {
      "channel": 1,
      "note": 76,
      "start": 56.8397,
      "duration": 0.0665,
      "velocity": 116,
      "chip": "ym2612"
    },
    {
      "channel": 2,
      "note": 71,
      "start": 56.8405,
      "duration": 0.0665,
      "velocity": 116,
      "chip": "ym2612"
    },
    {
      "channel": 3,
      "note": 68,
      "start": 56.8414,
      "duration": 0.0666,
      "velocity": 116,
      "chip": "ym2612"
    },
    {
      "channel": 0,
      "note": 42,
      "start": 56.9725,
      "duration": 0.1659,
      "velocity": 95,
      "chip": "ym2612"
    },
    {
      "channel": 1,
      "note": 74,
      "start": 56.9775,
      "duration": 0.2431,
      "velocity": 112,
      "chip": "ym2612"
    },
    {
      "channel": 2,
      "note": 69,
      "start": 56.9825,
      "duration": 0.2385,
      "velocity": 112,
      "chip": "ym2612"
    },
    {
      "channel": 3,
      "note": 66,
      "start": 56.9892,
      "duration": 0.2323,
      "velocity": 112,
      "chip": "ym2612"
    },
    {
      "channel": 4,
      "note": 85,
      "start": 56.9902,
      "duration": 0.3306,
      "velocity": 109,
      "chip": "ym2612"
    },
    {
      "channel": 0,
      "note": 42,
      "start": 57.1383,
      "duration": 0.0818,
      "velocity": 95,
      "chip": "ym2612"
    },
    {
      "channel": 0,
      "note": 50,
      "start": 57.2201,
      "duration": 0.0833,
      "velocity": 95,
      "chip": "ym2612"
    },
    {
      "channel": 1,
      "note": 74,
      "start": 57.2206,
      "duration": 0.0371,
      "velocity": 112,
      "chip": "ym2612"
    },
    {
      "channel": 2,
      "note": 69,
      "start": 57.221,
      "duration": 0.0371,
      "velocity": 112,
      "chip": "ym2612"
    },
    {
      "channel": 3,
      "note": 66,
      "start": 57.2216,
      "duration": 0.0371,
      "velocity": 112,
      "chip": "ym2612"
    },
    {
      "channel": 1,
      "note": 74,
      "start": 57.3083,
      "duration": 0.041,
      "velocity": 116,
      "chip": "ym2612"
    },
    {
      "channel": 2,
      "note": 69,
      "start": 57.3132,
      "duration": 0.0366,
      "velocity": 116,
      "chip": "ym2612"
    },
    {
      "channel": 3,
      "note": 66,
      "start": 57.3198,
      "duration": 0.0304,
      "velocity": 116,
      "chip": "ym2612"
    },
    {
      "channel": 4,
      "note": 86,
      "start": 57.3208,
      "duration": 0.0681,
      "velocity": 109,
      "chip": "ym2612"
    },
    {
      "channel": 1,
      "note": 74,
      "start": 57.3874,
      "duration": 0.0373,
      "velocity": 116,
      "chip": "ym2612"
    },
    {
      "channel": 2,
      "note": 69,
      "start": 57.3878,
      "duration": 0.0374,
      "velocity": 116,
      "chip": "ym2612"
    },
    {
      "channel": 3,
      "note": 66,
      "start": 57.3884,
      "duration": 0.0374,
      "velocity": 116,
      "chip": "ym2612"
    },
    {
      "channel": 4,
      "note": 82,
      "start": 57.3889,
      "duration": 0.0752,
      "velocity": 109,
      "chip": "ym2612"
    },
    {
      "channel": 1,
      "note": 74,
      "start": 57.4624,
      "duration": 0.0588,
      "velocity": 116,
      "chip": "ym2612"
    },
    {
      "channel": 2,
      "note": 69,
      "start": 57.4629,
      "duration": 0.0592,
      "velocity": 116,
      "chip": "ym2612"
    },
    {
      "channel": 3,
      "note": 66,
      "start": 57.4635,
      "duration": 0.0596,
      "velocity": 116,
      "chip": "ym2612"
    },
    {
      "channel": 4,
      "note": 79,
      "start": 57.4641,
      "duration": 0.1409,
      "velocity": 109,
      "chip": "ym2612"
    },
    {
      "channel": 0,
      "note": 54,
      "start": 57.5876,
      "duration": 0.1329,
      "velocity": 95,
      "chip": "ym2612"
    },
    {
      "channel": 1,
      "note": 74,
      "start": 57.5925,
      "duration": 0.0622,
      "velocity": 112,
      "chip": "ym2612"
    },
    {
      "channel": 2,
      "note": 69,
      "start": 57.5973,
      "duration": 0.0583,
      "velocity": 112,
      "chip": "ym2612"
    },
    {
      "channel": 3,
      "note": 66,
      "start": 57.604,
      "duration": 0.0526,
      "velocity": 112,
      "chip": "ym2612"
    },
    {
      "channel": 4,
      "note": 84,
      "start": 57.605,
      "duration": 0.7853,
      "velocity": 109,
      "chip": "ym2612"
    },
    {
      "channel": 1,
      "note": 74,
      "start": 57.7255,
      "duration": 0.0625,
      "velocity": 116,
      "chip": "ym2612"
    },
    {
      "channel": 2,
      "note": 69,
      "start": 57.7304,
      "duration": 0.0585,
      "velocity": 116,
      "chip": "ym2612"
    },
    {
      "channel": 3,
      "note": 66,
      "start": 57.7369,
      "duration": 0.0529,
      "velocity": 116,
      "chip": "ym2612"
    },
    {
      "channel": 0,
      "note": 54,
      "start": 57.854,
      "duration": 0.0836,
      "velocity": 95,
      "chip": "ym2612"
    },
    {
      "channel": 1,
      "note": 74,
      "start": 57.8589,
      "duration": 0.0413,
      "velocity": 112,
      "chip": "ym2612"
    },
    {
      "channel": 2,
      "note": 69,
      "start": 57.8638,
      "duration": 0.0368,
      "velocity": 112,
      "chip": "ym2612"
    },
    {
      "channel": 3,
      "note": 66,
      "start": 57.8703,
      "duration": 0.0309,
      "velocity": 112,
      "chip": "ym2612"
    },
    {
      "channel": 0,
      "note": 52,
      "start": 57.9376,
      "duration": 0.0807,
      "velocity": 95,
      "chip": "ym2612"
    },
    {
      "channel": 1,
      "note": 74,
      "start": 57.9421,
      "duration": 0.0388,
      "velocity": 116,
      "chip": "ym2612"
    },
    {
      "channel": 2,
      "note": 69,
      "start": 57.946,
      "duration": 0.0353,
      "velocity": 116,
      "chip": "ym2612"
    },
    {
      "channel": 3,
      "note": 66,
      "start": 57.9523,
      "duration": 0.0295,
      "velocity": 116,
      "chip": "ym2612"
    },
    {
      "channel": 0,
      "note": 50,
      "start": 58.0183,
      "duration": 0.0828,
      "velocity": 95,
      "chip": "ym2612"
    },
    {
      "channel": 1,
      "note": 74,
      "start": 58.0188,
      "duration": 0.0368,
      "velocity": 116,
      "chip": "ym2612"
    },
    {
      "channel": 2,
      "note": 69,
      "start": 58.0193,
      "duration": 0.0368,
      "velocity": 116,
      "chip": "ym2612"
    },
    {
      "channel": 3,
      "note": 66,
      "start": 58.0197,
      "duration": 0.0368,
      "velocity": 116,
      "chip": "ym2612"
    },
    {
      "channel": 0,
      "note": 52,
      "start": 58.101,
      "duration": 0.0827,
      "velocity": 95,
      "chip": "ym2612"
    },
    {
      "channel": 1,
      "note": 74,
      "start": 58.1059,
      "duration": 0.0782,
      "velocity": 112,
      "chip": "ym2612"
    },
    {
      "channel": 2,
      "note": 69,
      "start": 58.1108,
      "duration": 0.0738,
      "velocity": 112,
      "chip": "ym2612"
    },
    {
      "channel": 3,
      "note": 66,
      "start": 58.1174,
      "duration": 0.0677,
      "velocity": 112,
      "chip": "ym2612"
    },
    {
      "channel": 0,
      "note": 50,
      "start": 58.1837,
      "duration": 0.0751,
      "velocity": 95,
      "chip": "ym2612"
    },
    {
      "channel": 1,
      "note": 74,
      "start": 58.1842,
      "duration": 0.0374,
      "velocity": 112,
      "chip": "ym2612"
    },
    {
      "channel": 2,
      "note": 69,
      "start": 58.1846,
      "duration": 0.0373,
      "velocity": 112,
      "chip": "ym2612"
    },
    {
      "channel": 3,
      "note": 66,
      "start": 58.1852,
      "duration": 0.0373,
      "velocity": 112,
      "chip": "ym2612"
    },
    {
      "channel": 0,
      "note": 54,
      "start": 58.2588,
      "duration": 0.2617,
      "velocity": 95,
      "chip": "ym2612"
    },
    {
      "channel": 1,
      "note": 74,
      "start": 58.2629,
      "duration": 0.0578,
      "velocity": 116,
      "chip": "ym2612"
    },
    {
      "channel": 2,
      "note": 69,
      "start": 58.2668,
      "duration": 0.0548,
      "velocity": 116,
      "chip": "ym2612"
    },
    {
      "channel": 3,
      "note": 66,
      "start": 58.2728,
      "duration": 0.0496,
      "velocity": 116,
      "chip": "ym2612"
    },
    {
      "channel": 1,
      "note": 74,
      "start": 58.3875,
      "duration": 0.0665,
      "velocity": 116,
      "chip": "ym2612"
    },
    {
      "channel": 2,
      "note": 69,
      "start": 58.3884,
      "duration": 0.0665,
      "velocity": 116,
      "chip": "ym2612"
    },
    {
      "channel": 3,
      "note": 66,
      "start": 58.3894,
      "duration": 0.0665,
      "velocity": 116,
      "chip": "ym2612"
    },
    {
      "channel": 0,
      "note": 37,
      "start": 58.5205,
      "duration": 0.1659,
      "velocity": 95,
      "chip": "ym2612"
    },
    {
      "channel": 1,
      "note": 76,
      "start": 58.5255,
      "duration": 0.2436,
      "velocity": 112,
      "chip": "ym2612"
    },
    {
      "channel": 2,
      "note": 71,
      "start": 58.5305,
      "duration": 0.239,
      "velocity": 112,
      "chip": "ym2612"
    },
    {
      "channel": 3,
      "note": 68,
      "start": 58.5372,
      "duration": 0.2329,
      "velocity": 112,
      "chip": "ym2612"
    },
    {
      "channel": 4,
      "note": 87,
      "start": 58.5383,
      "duration": 0.3311,
      "velocity": 109,
      "chip": "ym2612"
    },
    {
      "channel": 0,
      "note": 37,
      "start": 58.6864,
      "duration": 0.0823,
      "velocity": 95,
      "chip": "ym2612"
    },
    {
      "channel": 0,
      "note": 44,
      "start": 58.7687,
      "duration": 0.0833,
      "velocity": 95,
      "chip": "ym2612"
    },
    {
      "channel": 1,
      "note": 76,
      "start": 58.7691,
      "duration": 0.0371,
      "velocity": 112,
      "chip": "ym2612"
    },
    {
      "channel": 2,
      "note": 71,
      "start": 58.7695,
      "duration": 0.0372,
      "velocity": 112,
      "chip": "ym2612"
    },
    {
      "channel": 3,
      "note": 68,
      "start": 58.7701,
      "duration": 0.0371,
      "velocity": 112,
      "chip": "ym2612"
    },
    {
      "channel": 1,
      "note": 76,
      "start": 58.8569,
      "duration": 0.0409,
      "velocity": 116,
      "chip": "ym2612"
    },
    {
      "channel": 2,
      "note": 71,
      "start": 58.8617,
      "duration": 0.0365,
      "velocity": 116,
      "chip": "ym2612"
    },
    {
      "channel": 3,
      "note": 68,
      "start": 58.8684,
      "duration": 0.0304,
      "velocity": 116,
      "chip": "ym2612"
    },
    {
      "channel": 4,
      "note": 88,
      "start": 58.8694,
      "duration": 0.0674,
      "velocity": 109,
      "chip": "ym2612"
    },
    {
      "channel": 1,
      "note": 76,
      "start": 58.9352,
      "duration": 0.0376,
      "velocity": 116,
      "chip": "ym2612"
    },
    {
      "channel": 2,
      "note": 71,
      "start": 58.9357,
      "duration": 0.0376,
      "velocity": 116,
      "chip": "ym2612"
    },
    {
      "channel": 3,
      "note": 68,
      "start": 58.9362,
      "duration": 0.0376,
      "velocity": 116,
      "chip": "ym2612"
    },
    {
      "channel": 4,
      "note": 84,
      "start": 58.9368,
      "duration": 0.0755,
      "velocity": 109,
      "chip": "ym2612"
    },
    {
      "channel": 1,
      "note": 76,
      "start": 59.0109,
      "duration": 0.0585,
      "velocity": 116,
      "chip": "ym2612"
    },
    {
      "channel": 2,
      "note": 71,
      "start": 59.0113,
      "duration": 0.0591,
      "velocity": 116,
      "chip": "ym2612"
    },
    {
      "channel": 3,
      "note": 68,
      "start": 59.0118,
      "duration": 0.0595,
      "velocity": 116,
      "chip": "ym2612"
    },
    {
      "channel": 4,
      "note": 81,
      "start": 59.0124,
      "duration": 0.1408,
      "velocity": 109,
      "chip": "ym2612"
    },
    {
      "channel": 0,
      "note": 49,
      "start": 59.1358,
      "duration": 0.133,
      "velocity": 95,
      "chip": "ym2612"
    },
    {
      "channel": 1,
      "note": 76,
      "start": 59.1407,
      "duration": 0.0621,
      "velocity": 112,
      "chip": "ym2612"
    },
    {
      "channel": 2,
      "note": 71,
      "start": 59.1456,
      "duration": 0.0582,
      "velocity": 112,
      "chip": "ym2612"
    },
    {
      "channel": 3,
      "note": 68,
      "start": 59.1522,
      "duration": 0.0525,
      "velocity": 112,
      "chip": "ym2612"
    },
    {
      "channel": 4,
      "note": 86,
      "start": 59.1532,
      "duration": 0.5197,
      "velocity": 109,
      "chip": "ym2612"
    },
    {
      "channel": 1,
      "note": 76,
      "start": 59.2737,
      "duration": 0.0625,
      "velocity": 116,
      "chip": "ym2612"
    },
    {
      "channel": 2,
      "note": 71,
      "start": 59.2786,
      "duration": 0.0586,
      "velocity": 116,
      "chip": "ym2612"
    },
    {
      "channel": 3,
      "note": 68,
      "start": 59.285,
      "duration": 0.0531,
      "velocity": 116,
      "chip": "ym2612"
    },
    {
      "channel": 0,
      "note": 49,
      "start": 59.4022,
      "duration": 0.1335,
      "velocity": 95,
      "chip": "ym2612"
    },
    {
      "channel": 1,
      "note": 76,
      "start": 59.4071,
      "duration": 0.0625,
      "velocity": 112,
      "chip": "ym2612"
    },
    {
      "channel": 2,
      "note": 71,
      "start": 59.412,
      "duration": 0.0585,
      "velocity": 112,
      "chip": "ym2612"
    },
    {
      "channel": 3,
      "note": 68,
      "start": 59.4185,
      "duration": 0.0529,
      "velocity": 112,
      "chip": "ym2612"
    },
    {
      "channel": 5,
      "note": 73,
      "start": 59.4205,
      "duration": 0.0697,
      "velocity": 127,
      "chip": "ym2612"
    },
    {
      "channel": 5,
      "note": 73,
      "start": 59.4901,
      "duration": 0.0638,
      "velocity": 127,
      "chip": "ym2612"
    },
    {
      "channel": 0,
      "note": 47,
      "start": 59.5357,
      "duration": 0.1334,
      "velocity": 95,
      "chip": "ym2612"
    },
    {
      "channel": 1,
      "note": 76,
      "start": 59.5406,
      "duration": 0.0624,
      "velocity": 116,
      "chip": "ym2612"
    },
    {
      "channel": 2,
      "note": 71,
      "start": 59.5455,
      "duration": 0.0584,
      "velocity": 116,
      "chip": "ym2612"
    },
    {
      "channel": 3,
      "note": 68,
      "start": 59.552,
      "duration": 0.0528,
      "velocity": 116,
      "chip": "ym2612"
    },
    {
      "channel": 5,
      "note": 73,
      "start": 59.554,
      "duration": 0.2667,
      "velocity": 127,
      "chip": "ym2612"
    },
    {
      "channel": 0,
      "note": 44,
      "start": 59.6691,
      "duration": 0.1333,
      "velocity": 95,
      "chip": "ym2612"
    },
    {
      "channel": 1,
      "note": 76,
      "start": 59.67,
      "duration": 0.0662,
      "velocity": 116,
      "chip": "ym2612"
    },
    {
      "channel": 2,
      "note": 71,
      "start": 59.6709,
      "duration": 0.0662,
      "velocity": 116,
      "chip": "ym2612"
    },
    {
      "channel": 3,
      "note": 68,
      "start": 59.6718,
      "duration": 0.0662,
      "velocity": 116,
      "chip": "ym2612"
    },
    {
      "channel": 4,
      "note": 88,
      "start": 59.6729,
      "duration": 0.1468,
      "velocity": 109,
      "chip": "ym2612"
    },
    {
      "channel": 0,
      "note": 47,
      "start": 59.8025,
      "duration": 0.1333,
      "velocity": 95,
      "chip": "ym2612"
    },
    {
      "channel": 1,
      "note": 76,
      "start": 59.8073,
      "duration": 0.1295,
      "velocity": 112,
      "chip": "ym2612"
    },
    {
      "channel": 2,
      "note": 71,
      "start": 59.8122,
      "duration": 0.1254,
      "velocity": 112,
      "chip": "ym2612"
    },
    {
      "channel": 3,
      "note": 68,
      "start": 59.8188,
      "duration": 0.1198,
      "velocity": 112,
      "chip": "ym2612"
    },
    {
      "channel": 5,
      "note": 68,
      "start": 59.8207,
      "duration": 0.1363,
      "velocity": 127,
      "chip": "ym2612"
    },
    {
      "channel": 0,
      "note": 44,
      "start": 59.9358,
      "duration": 0.1333,
      "velocity": 95,
      "chip": "ym2612"
    },
    {
      "channel": 1,
      "note": 76,
      "start": 59.9368,
      "duration": 0.0662,
      "velocity": 112,
      "chip": "ym2612"
    },
    {
      "channel": 2,
      "note": 71,
      "start": 59.9377,
      "duration": 0.0662,
      "velocity": 112,
      "chip": "ym2612"
    },
    {
      "channel": 3,
      "note": 68,
      "start": 59.9386,
      "duration": 0.0662,
      "velocity": 112,
      "chip": "ym2612"
    },
    {
      "channel": 4,
      "note": 88,
      "start": 59.9396,
      "duration": 0.4007,
      "velocity": 109,
      "chip": "ym2612"
    },
    {
      "channel": 5,
      "note": 68,
      "start": 59.957,
      "duration": 0.1305,
      "velocity": 127,
      "chip": "ym2612"
    },
    {
      "channel": 0,
      "note": 49,
      "start": 60.0691,
      "duration": 0.267,
      "velocity": 95,
      "chip": "ym2612"
    },
    {
      "channel": 1,
      "note": 76,
      "start": 60.074,
      "duration": 0.0622,
      "velocity": 116,
      "chip": "ym2612"
    },
    {
      "channel": 2,
      "note": 71,
      "start": 60.0788,
      "duration": 0.0583,
      "velocity": 116,
      "chip": "ym2612"
    },
    {
      "channel": 3,
      "note": 68,
      "start": 60.0854,
      "duration": 0.0526,
      "velocity": 116,
      "chip": "ym2612"
    },
    {
      "channel": 5,
      "note": 62,
      "start": 60.0875,
      "duration": 0.136,
      "velocity": 127,
      "chip": "ym2612"
    },
    {
      "channel": 1,
      "note": 76,
      "start": 60.203,
      "duration": 0.0666,
      "velocity": 116,
      "chip": "ym2612"
    },
    {
      "channel": 2,
      "note": 71,
      "start": 60.2039,
      "duration": 0.0667,
      "velocity": 116,
      "chip": "ym2612"
    },
    {
      "channel": 3,
      "note": 68,
      "start": 60.2048,
      "duration": 0.0666,
      "velocity": 116,
      "chip": "ym2612"
    },
    {
      "channel": 5,
      "note": 62,
      "start": 60.2235,
      "duration": 0.1332,
      "velocity": 127,
      "chip": "ym2612"
    },
    {
      "channel": 0,
      "note": 42,
      "start": 60.3361,
      "duration": 0.1326,
      "velocity": 95,
      "chip": "ym2612"
    },
    {
      "channel": 1,
      "note": 66,
      "start": 60.3371,
      "duration": 0.0656,
      "velocity": 116,
      "chip": "ym2612"
    },
    {
      "channel": 2,
      "note": 73,
      "start": 60.3382,
      "duration": 0.0654,
      "velocity": 116,
      "chip": "ym2612"
    },
    {
      "channel": 3,
      "note": 70,
      "start": 60.3393,
      "duration": 0.0653,
      "velocity": 116,
      "chip": "ym2612"
    },
    {
      "channel": 0,
      "note": 42,
      "start": 60.4687,
      "duration": 0.1336,
      "velocity": 95,
      "chip": "ym2612"
    },
    {
      "channel": 1,
      "note": 66,
      "start": 60.4696,
      "duration": 0.0665,
      "velocity": 116,
      "chip": "ym2612"
    },
    {
      "channel": 2,
      "note": 73,
      "start": 60.4705,
      "duration": 0.0665,
      "velocity": 116,
      "chip": "ym2612"
    },
    {
      "channel": 3,
      "note": 70,
      "start": 60.4714,
      "duration": 0.0665,
      "velocity": 116,
      "chip": "ym2612"
    },
    {
      "channel": 0,
      "note": 49,
      "start": 60.6024,
      "duration": 0.1328,
      "velocity": 95,
      "chip": "ym2612"
    },
    {
      "channel": 1,
      "note": 78,
      "start": 60.6074,
      "duration": 16.7187,
      "velocity": 112,
      "chip": "ym2612"
    },
    {
      "channel": 2,
      "note": 73,
      "start": 60.6122,
      "duration": 16.7138,
      "velocity": 112,
      "chip": "ym2612"
    },
    {
      "channel": 3,
      "note": 70,
      "start": 60.6188,
      "duration": 16.7072,
      "velocity": 112,
      "chip": "ym2612"
    },
    {
      "channel": 0,
      "note": 49,
      "start": 60.7352,
      "duration": 16.5909,
      "velocity": 95,
      "chip": "ym2612"
    }
  ]
}