{
  "track_name": "03 - Much Difference",
  "duration_sec": 61.707,
  "sample_rate": 44100,
  "note_count": 1107,
  "unique_pitches": 42,
  "pitch_range": 66,
  "avg_note_duration": 0.2905,
  "reconstruction_stats": {
    "notes_reconstructed": 1107,
    "keyon_events": 1107,
    "keyoff_events": 1106,
    "orphan_keyons": 1,
    "unique_pitches": 42,
    "pitch_range": 66,
    "avg_duration_sec": 0.2905
  },
  "metadata": {
    "source": "V\\Viper-V12\\03 - Much Difference.vgz"
  },
  "notes": [
    {
      "channel": 0,
      "note": 41,
      "start": 0.0021,
      "duration": 0.4227,
      "velocity": 126,
      "chip": "ym2612"
    },
    {
      "channel": 1,
      "note": 79,
      "start": 0.0042,
      "duration": 0.047,
      "velocity": 120,
      "chip": "ym2612"
    },
    {
      "channel": 2,
      "note": 41,
      "start": 0.0063,
      "duration": 0.0452,
      "velocity": 87,
      "chip": "ym2612"
    },
    {
      "channel": 3,
      "note": 55,
      "start": 0.0083,
      "duration": 5.1333,
      "velocity": 101,
      "chip": "ym2612"
    },
    {
      "channel": 4,
      "note": 53,
      "start": 0.0107,
      "duration": 0.4149,
      "velocity": 126,
      "chip": "ym2612"
    },
    {
      "channel": 5,
      "note": 67,
      "start": 0.0127,
      "duration": 5.1314,
      "velocity": 99,
      "chip": "ym2612"
    },
    {
      "channel": 1,
      "note": 79,
      "start": 0.0514,
      "duration": 0.0537,
      "velocity": 120,
      "chip": "ym2612"
    },
    {
      "channel": 2,
      "note": 41,
      "start": 0.0517,
      "duration": 0.3738,
      "velocity": 87,
      "chip": "ym2612"
    },
    {
      "channel": 1,
      "note": 77,
      "start": 0.1053,
      "duration": 0.0517,
      "velocity": 120,
      "chip": "ym2612"
    },
    {
      "channel": 1,
      "note": 77,
      "start": 0.1572,
      "duration": 0.0533,
      "velocity": 120,
      "chip": "ym2612"
    },
    {
      "channel": 1,
      "note": 74,
      "start": 0.2108,
      "duration": 0.0533,
      "velocity": 120,
      "chip": "ym2612"
    },
    {
      "channel": 1,
      "note": 74,
      "start": 0.2644,
      "duration": 0.0533,
      "velocity": 120,
      "chip": "ym2612"
    },
    {
      "channel": 1,
      "note": 77,
      "start": 0.3179,
      "duration": 0.0533,
      "velocity": 120,
      "chip": "ym2612"
    },
    {
      "channel": 1,
      "note": 77,
      "start": 0.3715,
      "duration": 0.0537,
      "velocity": 120,
      "chip": "ym2612"
    },
    {
      "channel": 0,
      "note": 38,
      "start": 0.4251,
      "duration": 0.4282,
      "velocity": 126,
      "chip": "ym2612"
    },
    {
      "channel": 1,
      "note": 72,
      "start": 0.4254,
      "duration": 0.0529,
      "velocity": 120,
      "chip": "ym2612"
    },
    {
      "channel": 4,
      "note": 50,
      "start": 0.4259,
      "duration": 0.4283,
      "velocity": 126,
      "chip": "ym2612"
    },
    {
      "channel": 1,
      "note": 72,
      "start": 0.4786,
      "duration": 0.0533,
      "velocity": 120,
      "chip": "ym2612"
    },
    {
      "channel": 1,
      "note": 74,
      "start": 0.5322,
      "duration": 0.0534,
      "velocity": 120,
      "chip": "ym2612"
    },
    {
      "channel": 1,
      "note": 74,
      "start": 0.5858,
      "duration": 0.0536,
      "velocity": 120,
      "chip": "ym2612"
    },
    {
      "channel": 1,
      "note": 79,
      "start": 0.6396,
      "duration": 0.0531,
      "velocity": 120,
      "chip": "ym2612"
    },
    {
      "channel": 1,
      "note": 79,
      "start": 0.6929,
      "duration": 0.0534,
      "velocity": 120,
      "chip": "ym2612"
    },
    {
      "channel": 1,
      "note": 77,
      "start": 0.7465,
      "duration": 0.0533,
      "velocity": 120,
      "chip": "ym2612"
    },
    {
      "channel": 1,
      "note": 77,
      "start": 0.8,
      "duration": 0.0537,
      "velocity": 120,
      "chip": "ym2612"
    },
    {
      "channel": 0,
      "note": 35,
      "start": 0.8537,
      "duration": 0.4282,
      "velocity": 126,
      "chip": "ym2612"
    },
    {
      "channel": 1,
      "note": 74,
      "start": 0.854,
      "duration": 0.053,
      "velocity": 120,
      "chip": "ym2612"
    },
    {
      "channel": 4,
      "note": 47,
      "start": 0.8545,
      "duration": 0.4282,
      "velocity": 126,
      "chip": "ym2612"
    },
    {
      "channel": 1,
      "note": 74,
      "start": 0.9072,
      "duration": 0.0533,
      "velocity": 120,
      "chip": "ym2612"
    },
    {
      "channel": 1,
      "note": 77,
      "start": 0.9607,
      "duration": 0.0533,
      "velocity": 120,
      "chip": "ym2612"
    },
    {
      "channel": 1,
      "note": 77,
      "start": 1.0143,
      "duration": 0.0533,
      "velocity": 120,
      "chip": "ym2612"
    },
    {
      "channel": 1,
      "note": 72,
      "start": 1.0679,
      "duration": 0.0533,
      "velocity": 120,
      "chip": "ym2612"
    },
    {
      "channel": 1,
      "note": 72,
      "start": 1.1214,
      "duration": 0.0533,
      "velocity": 120,
      "chip": "ym2612"
    },
    {
      "channel": 1,
      "note": 74,
      "start": 1.175,
      "duration": 0.0534,
      "velocity": 120,
      "chip": "ym2612"
    },
    {
      "channel": 1,
      "note": 74,
      "start": 1.2286,
      "duration": 0.0537,
      "velocity": 120,
      "chip": "ym2612"
    },
    {
      "channel": 0,
      "note": 32,
      "start": 1.2822,
      "duration": 0.4282,
      "velocity": 126,
      "chip": "ym2612"
    },
    {
      "channel": 1,
      "note": 79,
      "start": 1.2825,
      "duration": 0.0529,
      "velocity": 120,
      "chip": "ym2612"
    },
    {
      "channel": 4,
      "note": 44,
      "start": 1.2831,
      "duration": 0.4283,
      "velocity": 126,
      "chip": "ym2612"
    },
    {
      "channel": 1,
      "note": 79,
      "start": 1.3357,
      "duration": 0.0536,
      "velocity": 120,
      "chip": "ym2612"
    },
    {
      "channel": 1,
      "note": 77,
      "start": 1.3895,
      "duration": 0.0531,
      "velocity": 120,
      "chip": "ym2612"
    },
    {
      "channel": 1,
      "note": 77,
      "start": 1.4428,
      "duration": 0.0534,
      "velocity": 120,
      "chip": "ym2612"
    },
    {
      "channel": 1,
      "note": 74,
      "start": 1.4964,
      "duration": 0.0534,
      "velocity": 120,
      "chip": "ym2612"
    },
    {
      "channel": 1,
      "note": 74,
      "start": 1.55,
      "duration": 0.0533,
      "velocity": 120,
      "chip": "ym2612"
    },
    {
      "channel": 1,
      "note": 77,
      "start": 1.6035,
      "duration": 0.0534,
      "velocity": 120,
      "chip": "ym2612"
    },
    {
      "channel": 1,
      "note": 77,
      "start": 1.6571,
      "duration": 0.0537,
      "velocity": 120,
      "chip": "ym2612"
    },
    {
      "channel": 0,
      "note": 29,
      "start": 1.7108,
      "duration": 0.4282,
      "velocity": 126,
      "chip": "ym2612"
    },
    {
      "channel": 1,
      "note": 72,
      "start": 1.7111,
      "duration": 0.0529,
      "velocity": 120,
      "chip": "ym2612"
    },
    {
      "channel": 2,
      "note": 41,
      "start": 1.7114,
      "duration": 0.0529,
      "velocity": 87,
      "chip": "ym2612"
    },
    {
      "channel": 4,
      "note": 41,
      "start": 1.7117,
      "duration": 0.4282,
      "velocity": 126,
      "chip": "ym2612"
    },
    {
      "channel": 1,
      "note": 72,
      "start": 1.7642,
      "duration": 0.0534,
      "velocity": 120,
      "chip": "ym2612"
    },
    {
      "channel": 2,
      "note": 41,
      "start": 1.7646,
      "duration": 0.3753,
      "velocity": 87,
      "chip": "ym2612"
    },
    {
      "channel": 1,
      "note": 74,
      "start": 1.8178,
      "duration": 0.0533,
      "velocity": 120,
      "chip": "ym2612"
    },
    {
      "channel": 1,
      "note": 74,
      "start": 1.8714,
      "duration": 0.0533,
      "velocity": 120,
      "chip": "ym2612"
    },
    {
      "channel": 1,
      "note": 79,
      "start": 1.925,
      "duration": 0.0533,
      "velocity": 120,
      "chip": "ym2612"
    },
    {
      "channel": 1,
      "note": 79,
      "start": 1.9785,
      "duration": 0.0533,
      "velocity": 120,
      "chip": "ym2612"
    },
    {
      "channel": 1,
      "note": 77,
      "start": 2.0321,
      "duration": 0.0533,
      "velocity": 120,
      "chip": "ym2612"
    },
    {
      "channel": 1,
      "note": 77,
      "start": 2.0857,
      "duration": 0.054,
      "velocity": 120,
      "chip": "ym2612"
    },
    {
      "channel": 0,
      "note": 26,
      "start": 2.1396,
      "duration": 0.428,
      "velocity": 126,
      "chip": "ym2612"
    },
    {
      "channel": 1,
      "note": 74,
      "start": 2.1399,
      "duration": 0.0527,
      "velocity": 120,
      "chip": "ym2612"
    },
    {
      "channel": 4,
      "note": 38,
      "start": 2.1403,
      "duration": 0.4282,
      "velocity": 126,
      "chip": "ym2612"
    },
    {
      "channel": 1,
      "note": 74,
      "start": 2.1928,
      "duration": 0.0533,
      "velocity": 120,
      "chip": "ym2612"
    },
    {
      "channel": 1,
      "note": 77,
      "start": 2.2463,
      "duration": 0.0534,
      "velocity": 120,
      "chip": "ym2612"
    },
    {
      "channel": 1,
      "note": 77,
      "start": 2.3,
      "duration": 0.0533,
      "velocity": 120,
      "chip": "ym2612"
    },
    {
      "channel": 1,
      "note": 72,
      "start": 2.3535,
      "duration": 0.0533,
      "velocity": 120,
      "chip": "ym2612"
    },
    {
      "channel": 1,
      "note": 72,
      "start": 2.4071,
      "duration": 0.0533,
      "velocity": 120,
      "chip": "ym2612"
    },
    {
      "channel": 1,
      "note": 74,
      "start": 2.4606,
      "duration": 0.0533,
      "velocity": 120,
      "chip": "ym2612"
    },
    {
      "channel": 1,
      "note": 74,
      "start": 2.5142,
      "duration": 0.0537,
      "velocity": 120,
      "chip": "ym2612"
    },
    {
      "channel": 0,
      "note": 23,
      "start": 2.5679,
      "duration": 0.4282,
      "velocity": 126,
      "chip": "ym2612"
    },
    {
      "channel": 1,
      "note": 79,
      "start": 2.5682,
      "duration": 0.0529,
      "velocity": 120,
      "chip": "ym2612"
    },
    {
      "channel": 2,
      "note": 41,
      "start": 2.5684,
      "duration": 0.0529,
      "velocity": 87,
      "chip": "ym2612"
    },
    {
      "channel": 4,
      "note": 35,
      "start": 2.5688,
      "duration": 0.428,
      "velocity": 126,
      "chip": "ym2612"
    },
    {
      "channel": 1,
      "note": 79,
      "start": 2.6213,
      "duration": 0.0533,
      "velocity": 120,
      "chip": "ym2612"
    },
    {
      "channel": 2,
      "note": 41,
      "start": 2.6217,
      "duration": 0.3751,
      "velocity": 87,
      "chip": "ym2612"
    },
    {
      "channel": 1,
      "note": 77,
      "start": 2.6749,
      "duration": 0.0534,
      "velocity": 120,
      "chip": "ym2612"
    },
    {
      "channel": 1,
      "note": 77,
      "start": 2.7285,
      "duration": 0.0533,
      "velocity": 120,
      "chip": "ym2612"
    },
    {
      "channel": 1,
      "note": 74,
      "start": 2.782,
      "duration": 0.0533,
      "velocity": 120,
      "chip": "ym2612"
    },
    {
      "channel": 1,
      "note": 74,
      "start": 2.8356,
      "duration": 0.0534,
      "velocity": 120,
      "chip": "ym2612"
    },
    {
      "channel": 1,
      "note": 77,
      "start": 2.8894,
      "duration": 0.0531,
      "velocity": 120,
      "chip": "ym2612"
    },
    {
      "channel": 1,
      "note": 77,
      "start": 2.9427,
      "duration": 0.0537,
      "velocity": 120,
      "chip": "ym2612"
    },
    {
      "channel": 0,
      "note": 20,
      "start": 2.9964,
      "duration": 0.4282,
      "velocity": 126,
      "chip": "ym2612"
    },
    {
      "channel": 1,
      "note": 72,
      "start": 2.9967,
      "duration": 0.053,
      "velocity": 120,
      "chip": "ym2612"
    },
    {
      "channel": 4,
      "note": 32,
      "start": 2.9972,
      "duration": 0.4304,
      "velocity": 126,
      "chip": "ym2612"
    },
    {
      "channel": 1,
      "note": 72,
      "start": 3.0499,
      "duration": 0.0533,
      "velocity": 120,
      "chip": "ym2612"
    },
    {
      "channel": 1,
      "note": 74,
      "start": 3.1034,
      "duration": 0.0533,
      "velocity": 120,
      "chip": "ym2612"
    },
    {
      "channel": 1,
      "note": 74,
      "start": 3.157,
      "duration": 0.0533,
      "velocity": 120,
      "chip": "ym2612"
    },
    {
      "channel": 1,
      "note": 79,
      "start": 3.2106,
      "duration": 0.0533,
      "velocity": 120,
      "chip": "ym2612"
    },
    {
      "channel": 1,
      "note": 79,
      "start": 3.2641,
      "duration": 0.0533,
      "velocity": 120,
      "chip": "ym2612"
    },
    {
      "channel": 1,
      "note": 77,
      "start": 3.3177,
      "duration": 0.0534,
      "velocity": 120,
      "chip": "ym2612"
    },
    {
      "channel": 1,
      "note": 77,
      "start": 3.3713,
      "duration": 0.0554,
      "velocity": 120,
      "chip": "ym2612"
    },
    {
      "channel": 0,
      "note": 29,
      "start": 3.4266,
      "duration": 3.4264,
      "velocity": 112,
      "chip": "ym2612"
    },
    {
      "channel": 1,
      "note": 74,
      "start": 3.4269,
      "duration": 0.0514,
      "velocity": 120,
      "chip": "ym2612"
    },
    {
      "channel": 2,
      "note": 41,
      "start": 3.4272,
      "duration": 0.0514,
      "velocity": 87,
      "chip": "ym2612"
    },
    {
      "channel": 4,
      "note": 29,
      "start": 3.4279,
      "duration": 0.4259,
      "velocity": 126,
      "chip": "ym2612"
    },
    {
      "channel": 1,
      "note": 74,
      "start": 3.4785,
      "duration": 0.0533,
      "velocity": 120,
      "chip": "ym2612"
    },
    {
      "channel": 2,
      "note": 41,
      "start": 3.4789,
      "duration": 0.3747,
      "velocity": 87,
      "chip": "ym2612"
    },
    {
      "channel": 1,
      "note": 77,
      "start": 3.5321,
      "duration": 0.0534,
      "velocity": 120,
      "chip": "ym2612"
    },
    {
      "channel": 1,
      "note": 77,
      "start": 3.5857,
      "duration": 0.0533,
      "velocity": 120,
      "chip": "ym2612"
    },
    {
      "channel": 1,
      "note": 72,
      "start": 3.6395,
      "duration": 0.0531,
      "velocity": 120,
      "chip": "ym2612"
    },
    {
      "channel": 1,
      "note": 72,
      "start": 3.6928,
      "duration": 0.0533,
      "velocity": 120,
      "chip": "ym2612"
    },
    {
      "channel": 1,
      "note": 74,
      "start": 3.7464,
      "duration": 0.0533,
      "velocity": 120,
      "chip": "ym2612"
    },
    {
      "channel": 1,
      "note": 74,
      "start": 3.7999,
      "duration": 0.0534,
      "velocity": 120,
      "chip": "ym2612"
    },
    {
      "channel": 1,
      "note": 79,
      "start": 3.8535,
      "duration": 0.0533,
      "velocity": 120,
      "chip": "ym2612"
    },
    {
      "channel": 4,
      "note": 26,
      "start": 3.8541,
      "duration": 0.4284,
      "velocity": 126,
      "chip": "ym2612"
    },
    {
      "channel": 1,
      "note": 79,
      "start": 3.9071,
      "duration": 0.0533,
      "velocity": 120,
      "chip": "ym2612"
    },
    {
      "channel": 1,
      "note": 77,
      "start": 3.9606,
      "duration": 0.0534,
      "velocity": 120,
      "chip": "ym2612"
    },
    {
      "channel": 1,
      "note": 77,
      "start": 4.0142,
      "duration": 0.0533,
      "velocity": 120,
      "chip": "ym2612"
    },
    {
      "channel": 1,
      "note": 74,
      "start": 4.0678,
      "duration": 0.0533,
      "velocity": 120,
      "chip": "ym2612"
    },
    {
      "channel": 1,
      "note": 74,
      "start": 4.1214,
      "duration": 0.0533,
      "velocity": 120,
      "chip": "ym2612"
    },
    {
      "channel": 1,
      "note": 77,
      "start": 4.1749,
      "duration": 0.0533,
      "velocity": 120,
      "chip": "ym2612"
    },
    {
      "channel": 1,
      "note": 77,
      "start": 4.2285,
      "duration": 0.0533,
      "velocity": 120,
      "chip": "ym2612"
    },
    {
      "channel": 1,
      "note": 72,
      "start": 4.2821,
      "duration": 0.0533,
      "velocity": 120,
      "chip": "ym2612"
    },
    {
      "channel": 2,
      "note": 41,
      "start": 4.2823,
      "duration": 0.0533,
      "velocity": 87,
      "chip": "ym2612"
    },
    {
      "channel": 4,
      "note": 23,
      "start": 4.2828,
      "duration": 0.428,
      "velocity": 126,
      "chip": "ym2612"
    },
    {
      "channel": 1,
      "note": 72,
      "start": 4.3356,
      "duration": 0.0533,
      "velocity": 120,
      "chip": "ym2612"
    },
    {
      "channel": 2,
      "note": 41,
      "start": 4.3359,
      "duration": 0.3747,
      "velocity": 87,
      "chip": "ym2612"
    },
    {
      "channel": 1,
      "note": 74,
      "start": 4.3894,
      "duration": 0.0531,
      "velocity": 120,
      "chip": "ym2612"
    },
    {
      "channel": 1,
      "note": 74,
      "start": 4.4428,
      "duration": 0.0533,
      "velocity": 120,
      "chip": "ym2612"
    },
    {
      "channel": 1,
      "note": 79,
      "start": 4.4963,
      "duration": 0.0533,
      "velocity": 120,
      "chip": "ym2612"
    },
    {
      "channel": 1,
      "note": 79,
      "start": 4.5499,
      "duration": 0.0533,
      "velocity": 120,
      "chip": "ym2612"
    },
    {
      "channel": 1,
      "note": 77,
      "start": 4.6034,
      "duration": 0.0534,
      "velocity": 120,
      "chip": "ym2612"
    },
    {
      "channel": 1,
      "note": 77,
      "start": 4.657,
      "duration": 0.0533,
      "velocity": 120,
      "chip": "ym2612"
    },
    {
      "channel": 1,
      "note": 74,
      "start": 4.7106,
      "duration": 0.0533,
      "velocity": 120,
      "chip": "ym2612"
    },
    {
      "channel": 4,
      "note": 20,
      "start": 4.7112,
      "duration": 0.4325,
      "velocity": 126,
      "chip": "ym2612"
    },
    {
      "channel": 1,
      "note": 74,
      "start": 4.7642,
      "duration": 0.0533,
      "velocity": 120,
      "chip": "ym2612"
    },
    {
      "channel": 1,
      "note": 77,
      "start": 4.8177,
      "duration": 0.0533,
      "velocity": 120,
      "chip": "ym2612"
    },
    {
      "channel": 1,
      "note": 77,
      "start": 4.8713,
      "duration": 0.0534,
      "velocity": 120,
      "chip": "ym2612"
    },
    {
      "channel": 1,
      "note": 72,
      "start": 4.9249,
      "duration": 0.0533,
      "velocity": 120,
      "chip": "ym2612"
    },
    {
      "channel": 1,
      "note": 72,
      "start": 4.9784,
      "duration": 0.0533,
      "velocity": 120,
      "chip": "ym2612"
    },
    {
      "channel": 1,
      "note": 74,
      "start": 5.032,
      "duration": 0.0534,
      "velocity": 120,
      "chip": "ym2612"
    },
    {
      "channel": 1,
      "note": 74,
      "start": 5.0856,
      "duration": 0.0538,
      "velocity": 120,
      "chip": "ym2612"
    },
    {
      "channel": 1,
      "note": 79,
      "start": 5.1396,
      "duration": 0.0528,
      "velocity": 120,
      "chip": "ym2612"
    },
    {
      "channel": 2,
      "note": 43,
      "start": 5.1416,
      "duration": 0.0686,
      "velocity": 127,
      "chip": "ym2612"
    },
    {
      "channel": 3,
      "note": 67,
      "start": 5.1437,
      "duration": 0.4061,
      "velocity": 112,
      "chip": "ym2612"
    },
    {
      "channel": 4,
      "note": 20,
      "start": 5.144,
      "duration": 0.4242,
      "velocity": 126,
      "chip": "ym2612"
    },
    {
      "channel": 5,
      "note": 68,
      "start": 5.1461,
      "duration": 1.7201,
      "velocity": 101,
      "chip": "ym2612"
    },
    {
      "channel": 1,
      "note": 79,
      "start": 5.1926,
      "duration": 0.0533,
      "velocity": 120,
      "chip": "ym2612"
    },
    {
      "channel": 1,
      "note": 77,
      "start": 5.2462,
      "duration": 0.0533,
      "velocity": 120,
      "chip": "ym2612"
    },
    {
      "channel": 2,
      "note": 43,
      "start": 5.2465,
      "duration": 0.0709,
      "velocity": 127,
      "chip": "ym2612"
    },
    {
      "channel": 1,
      "note": 77,
      "start": 5.2998,
      "duration": 0.0533,
      "velocity": 120,
      "chip": "ym2612"
    },
    {
      "channel": 1,
      "note": 74,
      "start": 5.3533,
      "duration": 0.0533,
      "velocity": 120,
      "chip": "ym2612"
    },
    {
      "channel": 2,
      "note": 43,
      "start": 5.3536,
      "duration": 0.0709,
      "velocity": 127,
      "chip": "ym2612"
    },
    {
      "channel": 1,
      "note": 74,
      "start": 5.4069,
      "duration": 0.0533,
      "velocity": 120,
      "chip": "ym2612"
    },
    {
      "channel": 1,
      "note": 77,
      "start": 5.4604,
      "duration": 0.0534,
      "velocity": 120,
      "chip": "ym2612"
    },
    {
      "channel": 2,
      "note": 43,
      "start": 5.4608,
      "duration": 0.0709,
      "velocity": 127,
      "chip": "ym2612"
    },
    {
      "channel": 1,
      "note": 77,
      "start": 5.514,
      "duration": 0.0533,
      "velocity": 120,
      "chip": "ym2612"
    },
    {
      "channel": 1,
      "note": 72,
      "start": 5.5676,
      "duration": 0.0533,
      "velocity": 120,
      "chip": "ym2612"
    },
    {
      "channel": 2,
      "note": 43,
      "start": 5.5679,
      "duration": 0.0709,
      "velocity": 127,
      "chip": "ym2612"
    },
    {
      "channel": 3,
      "note": 67,
      "start": 5.5682,
      "duration": 0.41,
      "velocity": 112,
      "chip": "ym2612"
    },
    {
      "channel": 4,
      "note": 20,
      "start": 5.5686,
      "duration": 0.4282,
      "velocity": 126,
      "chip": "ym2612"
    },
    {
      "channel": 1,
      "note": 72,
      "start": 5.6212,
      "duration": 0.0533,
      "velocity": 120,
      "chip": "ym2612"
    },
    {
      "channel": 1,
      "note": 74,
      "start": 5.6747,
      "duration": 0.0533,
      "velocity": 120,
      "chip": "ym2612"
    },
    {
      "channel": 2,
      "note": 43,
      "start": 5.675,
      "duration": 0.0709,
      "velocity": 127,
      "chip": "ym2612"
    },
    {
      "channel": 1,
      "note": 74,
      "start": 5.7283,
      "duration": 0.0533,
      "velocity": 120,
      "chip": "ym2612"
    },
    {
      "channel": 1,
      "note": 79,
      "start": 5.7819,
      "duration": 0.0533,
      "velocity": 120,
      "chip": "ym2612"
    },
    {
      "channel": 2,
      "note": 43,
      "start": 5.7822,
      "duration": 0.0709,
      "velocity": 127,
      "chip": "ym2612"
    },
    {
      "channel": 1,
      "note": 79,
      "start": 5.8354,
      "duration": 0.0533,
      "velocity": 120,
      "chip": "ym2612"
    },
    {
      "channel": 1,
      "note": 77,
      "start": 5.889,
      "duration": 0.0533,
      "velocity": 120,
      "chip": "ym2612"
    },
    {
      "channel": 2,
      "note": 43,
      "start": 5.8896,
      "duration": 0.0706,
      "velocity": 127,
      "chip": "ym2612"
    },
    {
      "channel": 1,
      "note": 77,
      "start": 5.9426,
      "duration": 0.0533,
      "velocity": 120,
      "chip": "ym2612"
    },
    {
      "channel": 1,
      "note": 74,
      "start": 5.9961,
      "duration": 0.0533,
      "velocity": 120,
      "chip": "ym2612"
    },
    {
      "channel": 2,
      "note": 43,
      "start": 5.9965,
      "duration": 0.0709,
      "velocity": 127,
      "chip": "ym2612"
    },
    {
      "channel": 3,
      "note": 67,
      "start": 5.9967,
      "duration": 0.41,
      "velocity": 112,
      "chip": "ym2612"
    },
    {
      "channel": 4,
      "note": 20,
      "start": 5.9971,
      "duration": 0.4282,
      "velocity": 126,
      "chip": "ym2612"
    },
    {
      "channel": 1,
      "note": 74,
      "start": 6.0497,
      "duration": 0.0533,
      "velocity": 120,
      "chip": "ym2612"
    },
    {
      "channel": 1,
      "note": 77,
      "start": 6.1032,
      "duration": 0.0534,
      "velocity": 120,
      "chip": "ym2612"
    },
    {
      "channel": 2,
      "note": 43,
      "start": 6.1036,
      "duration": 0.0709,
      "velocity": 127,
      "chip": "ym2612"
    },
    {
      "channel": 1,
      "note": 77,
      "start": 6.1568,
      "duration": 0.0533,
      "velocity": 120,
      "chip": "ym2612"
    },
    {
      "channel": 1,
      "note": 72,
      "start": 6.2104,
      "duration": 0.0534,
      "velocity": 120,
      "chip": "ym2612"
    },
    {
      "channel": 2,
      "note": 43,
      "start": 6.2107,
      "duration": 0.0709,
      "velocity": 127,
      "chip": "ym2612"
    },
    {
      "channel": 1,
      "note": 72,
      "start": 6.264,
      "duration": 0.0533,
      "velocity": 120,
      "chip": "ym2612"
    },
    {
      "channel": 1,
      "note": 74,
      "start": 6.3175,
      "duration": 0.0533,
      "velocity": 120,
      "chip": "ym2612"
    },
    {
      "channel": 2,
      "note": 43,
      "start": 6.3178,
      "duration": 0.0709,
      "velocity": 127,
      "chip": "ym2612"
    },
    {
      "channel": 1,
      "note": 74,
      "start": 6.3711,
      "duration": 0.0534,
      "velocity": 120,
      "chip": "ym2612"
    },
    {
      "channel": 1,
      "note": 79,
      "start": 6.4247,
      "duration": 0.0533,
      "velocity": 120,
      "chip": "ym2612"
    },
    {
      "channel": 2,
      "note": 43,
      "start": 6.425,
      "duration": 0.0709,
      "velocity": 127,
      "chip": "ym2612"
    },
    {
      "channel": 3,
      "note": 67,
      "start": 6.4253,
      "duration": 0.41,
      "velocity": 112,
      "chip": "ym2612"
    },
    {
      "channel": 4,
      "note": 20,
      "start": 6.4257,
      "duration": 0.4369,
      "velocity": 126,
      "chip": "ym2612"
    },
    {
      "channel": 1,
      "note": 79,
      "start": 6.4782,
      "duration": 0.0533,
      "velocity": 120,
      "chip": "ym2612"
    },
    {
      "channel": 1,
      "note": 77,
      "start": 6.5318,
      "duration": 0.0534,
      "velocity": 120,
      "chip": "ym2612"
    },
    {
      "channel": 2,
      "note": 43,
      "start": 6.5321,
      "duration": 0.0709,
      "velocity": 127,
      "chip": "ym2612"
    },
    {
      "channel": 1,
      "note": 77,
      "start": 6.5854,
      "duration": 0.0533,
      "velocity": 120,
      "chip": "ym2612"
    },
    {
      "channel": 1,
      "note": 74,
      "start": 6.6389,
      "duration": 0.0533,
      "velocity": 120,
      "chip": "ym2612"
    },
    {
      "channel": 2,
      "note": 43,
      "start": 6.6395,
      "duration": 0.0706,
      "velocity": 127,
      "chip": "ym2612"
    },
    {
      "channel": 1,
      "note": 74,
      "start": 6.6925,
      "duration": 0.0533,
      "velocity": 120,
      "chip": "ym2612"
    },
    {
      "channel": 1,
      "note": 77,
      "start": 6.7461,
      "duration": 0.0533,
      "velocity": 120,
      "chip": "ym2612"
    },
    {
      "channel": 2,
      "note": 43,
      "start": 6.7464,
      "duration": 0.0709,
      "velocity": 127,
      "chip": "ym2612"
    },
    {
      "channel": 1,
      "note": 77,
      "start": 6.7997,
      "duration": 0.0553,
      "velocity": 120,
      "chip": "ym2612"
    },
    {
      "channel": 0,
      "note": 45,
      "start": 6.8549,
      "duration": 0.1052,
      "velocity": 127,
      "chip": "ym2612"
    },
    {
      "channel": 1,
      "note": 55,
      "start": 6.857,
      "duration": 0.1051,
      "velocity": 91,
      "chip": "ym2612"
    },
    {
      "channel": 0,
      "note": 62,
      "start": 6.9621,
      "duration": 0.0873,
      "velocity": 112,
      "chip": "ym2612"
    },
    {
      "channel": 1,
      "note": 55,
      "start": 6.9623,
      "duration": 0.1052,
      "velocity": 91,
      "chip": "ym2612"
    },
    {
      "channel": 0,
      "note": 66,
      "start": 7.0675,
      "duration": 0.0891,
      "velocity": 112,
      "chip": "ym2612"
    },
    {
      "channel": 1,
      "note": 55,
      "start": 7.0678,
      "duration": 0.1086,
      "velocity": 91,
      "chip": "ym2612"
    },
    {
      "channel": 0,
      "note": 53,
      "start": 7.1763,
      "duration": 0.1052,
      "velocity": 121,
      "chip": "ym2612"
    },
    {
      "channel": 1,
      "note": 55,
      "start": 7.1766,
      "duration": 0.107,
      "velocity": 91,
      "chip": "ym2612"
    },
    {
      "channel": 0,
      "note": 41,
      "start": 7.2835,
      "duration": 0.1051,
      "velocity": 127,
      "chip": "ym2612"
    },
    {
      "channel": 1,
      "note": 62,
      "start": 7.2855,
      "duration": 2.5693,
      "velocity": 89,
      "chip": "ym2612"
    },
    {
      "channel": 2,
      "note": 58,
      "start": 7.2858,
      "duration": 2.571,
      "velocity": 89,
      "chip": "ym2612"
    },
    {
      "channel": 3,
      "note": 70,
      "start": 7.2861,
      "duration": 2.5708,
      "velocity": 92,
      "chip": "ym2612"
    },
    {
      "channel": 4,
      "note": 77,
      "start": 7.2863,
      "duration": 2.5705,
      "velocity": 92,
      "chip": "ym2612"
    },
    {
      "channel": 5,
      "note": 74,
      "start": 7.2866,
      "duration": 2.5703,
      "velocity": 92,
      "chip": "ym2612"
    },
    {
      "channel": 0,
      "note": 53,
      "start": 7.3908,
      "duration": 0.1049,
      "velocity": 121,
      "chip": "ym2612"
    },
    {
      "channel": 0,
      "note": 62,
      "start": 7.4977,
      "duration": 0.0873,
      "velocity": 112,
      "chip": "ym2612"
    },
    {
      "channel": 0,
      "note": 59,
      "start": 7.6032,
      "duration": 0.089,
      "velocity": 112,
      "chip": "ym2612"
    },
    {
      "channel": 0,
      "note": 66,
      "start": 7.712,
      "duration": 0.1052,
      "velocity": 127,
      "chip": "ym2612"
    },
    {
      "channel": 0,
      "note": 59,
      "start": 7.8194,
      "duration": 0.0871,
      "velocity": 112,
      "chip": "ym2612"
    },
    {
      "channel": 0,
      "note": 62,
      "start": 7.9246,
      "duration": 0.089,
      "velocity": 112,
      "chip": "ym2612"
    },
    {
      "channel": 0,
      "note": 53,
      "start": 8.0334,
      "duration": 0.1051,
      "velocity": 121,
      "chip": "ym2612"
    },
    {
      "channel": 0,
      "note": 62,
      "start": 8.1408,
      "duration": 0.0871,
      "velocity": 112,
      "chip": "ym2612"
    },
    {
      "channel": 0,
      "note": 62,
      "start": 8.246,
      "duration": 0.089,
      "velocity": 112,
      "chip": "ym2612"
    },
    {
      "channel": 0,
      "note": 59,
      "start": 8.3531,
      "duration": 0.089,
      "velocity": 112,
      "chip": "ym2612"
    },
    {
      "channel": 0,
      "note": 53,
      "start": 8.462,
      "duration": 0.1052,
      "velocity": 121,
      "chip": "ym2612"
    },
    {
      "channel": 0,
      "note": 45,
      "start": 8.5694,
      "duration": 0.1049,
      "velocity": 127,
      "chip": "ym2612"
    },
    {
      "channel": 0,
      "note": 62,
      "start": 8.6762,
      "duration": 0.0873,
      "velocity": 112,
      "chip": "ym2612"
    },
    {
      "channel": 0,
      "note": 66,
      "start": 8.7817,
      "duration": 0.089,
      "velocity": 112,
      "chip": "ym2612"
    },
    {
      "channel": 0,
      "note": 53,
      "start": 8.8907,
      "duration": 0.1049,
      "velocity": 121,
      "chip": "ym2612"
    },
    {
      "channel": 0,
      "note": 41,
      "start": 8.9976,
      "duration": 0.1052,
      "velocity": 127,
      "chip": "ym2612"
    },
    {
      "channel": 0,
      "note": 53,
      "start": 9.1048,
      "duration": 0.1052,
      "velocity": 121,
      "chip": "ym2612"
    },
    {
      "channel": 0,
      "note": 62,
      "start": 9.2119,
      "duration": 0.0874,
      "velocity": 112,
      "chip": "ym2612"
    },
    {
      "channel": 0,
      "note": 59,
      "start": 9.3173,
      "duration": 0.089,
      "velocity": 112,
      "chip": "ym2612"
    },
    {
      "channel": 0,
      "note": 66,
      "start": 9.4262,
      "duration": 0.1052,
      "velocity": 127,
      "chip": "ym2612"
    },
    {
      "channel": 0,
      "note": 59,
      "start": 9.5333,
      "duration": 0.0873,
      "velocity": 112,
      "chip": "ym2612"
    },
    {
      "channel": 0,
      "note": 62,
      "start": 9.6387,
      "duration": 0.089,
      "velocity": 112,
      "chip": "ym2612"
    },
    {
      "channel": 0,
      "note": 53,
      "start": 9.7476,
      "duration": 0.1052,
      "velocity": 121,
      "chip": "ym2612"
    },
    {
      "channel": 0,
      "note": 62,
      "start": 9.8547,
      "duration": 0.0873,
      "velocity": 112,
      "chip": "ym2612"
    },
    {
      "channel": 1,
      "note": 55,
      "start": 9.8567,
      "duration": 0.1035,
      "velocity": 91,
      "chip": "ym2612"
    },
    {
      "channel": 0,
      "note": 62,
      "start": 9.9601,
      "duration": 0.0892,
      "velocity": 112,
      "chip": "ym2612"
    },
    {
      "channel": 1,
      "note": 55,
      "start": 9.9604,
      "duration": 0.1069,
      "velocity": 91,
      "chip": "ym2612"
    },
    {
      "channel": 0,
      "note": 59,
      "start": 10.0673,
      "duration": 0.089,
      "velocity": 112,
      "chip": "ym2612"
    },
    {
      "channel": 1,
      "note": 55,
      "start": 10.0676,
      "duration": 0.1086,
      "velocity": 91,
      "chip": "ym2612"
    },
    {
      "channel": 0,
      "note": 53,
      "start": 10.1761,
      "duration": 0.1052,
      "velocity": 121,
      "chip": "ym2612"
    },
    {
      "channel": 1,
      "note": 55,
      "start": 10.1764,
      "duration": 0.107,
      "velocity": 91,
      "chip": "ym2612"
    },
    {
      "channel": 0,
      "note": 45,
      "start": 10.2834,
      "duration": 0.1051,
      "velocity": 127,
      "chip": "ym2612"
    },
    {
      "channel": 1,
      "note": 55,
      "start": 10.2836,
      "duration": 0.1071,
      "velocity": 91,
      "chip": "ym2612"
    },
    {
      "channel": 0,
      "note": 62,
      "start": 10.3907,
      "duration": 0.0871,
      "velocity": 112,
      "chip": "ym2612"
    },
    {
      "channel": 1,
      "note": 55,
      "start": 10.391,
      "duration": 0.1049,
      "velocity": 91,
      "chip": "ym2612"
    },
    {
      "channel": 0,
      "note": 66,
      "start": 10.4958,
      "duration": 0.089,
      "velocity": 112,
      "chip": "ym2612"
    },
    {
      "channel": 1,
      "note": 55,
      "start": 10.4961,
      "duration": 0.1086,
      "velocity": 91,
      "chip": "ym2612"
    },
    {
      "channel": 0,
      "note": 53,
      "start": 10.6047,
      "duration": 0.1052,
      "velocity": 121,
      "chip": "ym2612"
    },
    {
      "channel": 1,
      "note": 55,
      "start": 10.605,
      "duration": 0.1069,
      "velocity": 91,
      "chip": "ym2612"
    },
    {
      "channel": 0,
      "note": 41,
      "start": 10.7118,
      "duration": 0.1052,
      "velocity": 127,
      "chip": "ym2612"
    },
    {
      "channel": 1,
      "note": 60,
      "start": 10.7138,
      "duration": 2.5693,
      "velocity": 89,
      "chip": "ym2612"
    },
    {
      "channel": 2,
      "note": 57,
      "start": 10.7141,
      "duration": 2.571,
      "velocity": 89,
      "chip": "ym2612"
    },
    {
      "channel": 3,
      "note": 69,
      "start": 10.7144,
      "duration": 2.5708,
      "velocity": 92,
      "chip": "ym2612"
    },
    {
      "channel": 4,
      "note": 76,
      "start": 10.7147,
      "duration": 2.5706,
      "velocity": 92,
      "chip": "ym2612"
    },
    {
      "channel": 5,
      "note": 72,
      "start": 10.7149,
      "duration": 2.5704,
      "velocity": 92,
      "chip": "ym2612"
    },
    {
      "channel": 0,
      "note": 53,
      "start": 10.819,
      "duration": 0.1052,
      "velocity": 121,
      "chip": "ym2612"
    },
    {
      "channel": 0,
      "note": 62,
      "start": 10.9261,
      "duration": 0.0873,
      "velocity": 112,
      "chip": "ym2612"
    },
    {
      "channel": 0,
      "note": 59,
      "start": 11.0315,
      "duration": 0.0891,
      "velocity": 112,
      "chip": "ym2612"
    },
    {
      "channel": 0,
      "note": 66,
      "start": 11.1406,
      "duration": 0.1049,
      "velocity": 127,
      "chip": "ym2612"
    },
    {
      "channel": 0,
      "note": 59,
      "start": 11.2475,
      "duration": 0.0873,
      "velocity": 112,
      "chip": "ym2612"
    },
    {
      "channel": 0,
      "note": 62,
      "start": 11.3529,
      "duration": 0.0891,
      "velocity": 112,
      "chip": "ym2612"
    },
    {
      "channel": 0,
      "note": 53,
      "start": 11.4618,
      "duration": 0.1052,
      "velocity": 121,
      "chip": "ym2612"
    },
    {
      "channel": 0,
      "note": 62,
      "start": 11.5689,
      "duration": 0.0873,
      "velocity": 112,
      "chip": "ym2612"
    },
    {
      "channel": 0,
      "note": 62,
      "start": 11.6743,
      "duration": 0.0891,
      "velocity": 112,
      "chip": "ym2612"
    },
    {
      "channel": 0,
      "note": 59,
      "start": 11.7815,
      "duration": 0.089,
      "velocity": 112,
      "chip": "ym2612"
    },
    {
      "channel": 0,
      "note": 53,
      "start": 11.8906,
      "duration": 0.1049,
      "velocity": 121,
      "chip": "ym2612"
    },
    {
      "channel": 0,
      "note": 45,
      "start": 11.9975,
      "duration": 0.1052,
      "velocity": 127,
      "chip": "ym2612"
    },
    {
      "channel": 0,
      "note": 62,
      "start": 12.1046,
      "duration": 0.0873,
      "velocity": 112,
      "chip": "ym2612"
    },
    {
      "channel": 0,
      "note": 66,
      "start": 12.21,
      "duration": 0.0893,
      "velocity": 112,
      "chip": "ym2612"
    },
    {
      "channel": 0,
      "note": 53,
      "start": 12.3188,
      "duration": 0.1052,
      "velocity": 121,
      "chip": "ym2612"
    },
    {
      "channel": 0,
      "note": 41,
      "start": 12.426,
      "duration": 0.1052,
      "velocity": 127,
      "chip": "ym2612"
    },
    {
      "channel": 0,
      "note": 53,
      "start": 12.5332,
      "duration": 0.1052,
      "velocity": 121,
      "chip": "ym2612"
    },
    {
      "channel": 0,
      "note": 62,
      "start": 12.6405,
      "duration": 0.0871,
      "velocity": 112,
      "chip": "ym2612"
    },
    {
      "channel": 0,
      "note": 59,
      "start": 12.7457,
      "duration": 0.0891,
      "velocity": 112,
      "chip": "ym2612"
    },
    {
      "channel": 0,
      "note": 66,
      "start": 12.8545,
      "duration": 0.1052,
      "velocity": 127,
      "chip": "ym2612"
    },
    {
      "channel": 0,
      "note": 59,
      "start": 12.9617,
      "duration": 0.0873,
      "velocity": 112,
      "chip": "ym2612"
    },
    {
      "channel": 0,
      "note": 62,
      "start": 13.0671,
      "duration": 0.089,
      "velocity": 112,
      "chip": "ym2612"
    },
    {
      "channel": 0,
      "note": 53,
      "start": 13.1759,
      "duration": 0.1052,
      "velocity": 121,
      "chip": "ym2612"
    },
    {
      "channel": 0,
      "note": 62,
      "start": 13.2831,
      "duration": 0.0873,
      "velocity": 112,
      "chip": "ym2612"
    },
    {
      "channel": 1,
      "note": 55,
      "start": 13.2851,
      "duration": 0.1035,
      "velocity": 91,
      "chip": "ym2612"
    },
    {
      "channel": 0,
      "note": 62,
      "start": 13.3885,
      "duration": 0.089,
      "velocity": 112,
      "chip": "ym2612"
    },
    {
      "channel": 1,
      "note": 55,
      "start": 13.3888,
      "duration": 0.1069,
      "velocity": 91,
      "chip": "ym2612"
    },
    {
      "channel": 0,
      "note": 59,
      "start": 13.4956,
      "duration": 0.0891,
      "velocity": 112,
      "chip": "ym2612"
    },
    {
      "channel": 1,
      "note": 55,
      "start": 13.4959,
      "duration": 0.1086,
      "velocity": 91,
      "chip": "ym2612"
    },
    {
      "channel": 0,
      "note": 53,
      "start": 13.6045,
      "duration": 0.1052,
      "velocity": 121,
      "chip": "ym2612"
    },
    {
      "channel": 1,
      "note": 55,
      "start": 13.6048,
      "duration": 0.1069,
      "velocity": 91,
      "chip": "ym2612"
    },
    {
      "channel": 0,
      "note": 45,
      "start": 13.7116,
      "duration": 0.1052,
      "velocity": 127,
      "chip": "ym2612"
    },
    {
      "channel": 1,
      "note": 55,
      "start": 13.7136,
      "duration": 0.1052,
      "velocity": 91,
      "chip": "ym2612"
    },
    {
      "channel": 0,
      "note": 62,
      "start": 13.8188,
      "duration": 0.0873,
      "velocity": 112,
      "chip": "ym2612"
    },
    {
      "channel": 1,
      "note": 55,
      "start": 13.8193,
      "duration": 0.1049,
      "velocity": 91,
      "chip": "ym2612"
    },
    {
      "channel": 0,
      "note": 66,
      "start": 13.9242,
      "duration": 0.089,
      "velocity": 112,
      "chip": "ym2612"
    },
    {
      "channel": 1,
      "note": 55,
      "start": 13.9245,
      "duration": 0.1086,
      "velocity": 91,
      "chip": "ym2612"
    },
    {
      "channel": 0,
      "note": 53,
      "start": 14.033,
      "duration": 0.1052,
      "velocity": 121,
      "chip": "ym2612"
    },
    {
      "channel": 1,
      "note": 55,
      "start": 14.0333,
      "duration": 0.1072,
      "velocity": 91,
      "chip": "ym2612"
    },
    {
      "channel": 0,
      "note": 41,
      "start": 14.1404,
      "duration": 0.1049,
      "velocity": 127,
      "chip": "ym2612"
    },
    {
      "channel": 1,
      "note": 62,
      "start": 14.1424,
      "duration": 2.5691,
      "velocity": 89,
      "chip": "ym2612"
    },
    {
      "channel": 2,
      "note": 58,
      "start": 14.1427,
      "duration": 2.5708,
      "velocity": 89,
      "chip": "ym2612"
    },
    {
      "channel": 3,
      "note": 70,
      "start": 14.143,
      "duration": 2.5706,
      "velocity": 92,
      "chip": "ym2612"
    },
    {
      "channel": 4,
      "note": 77,
      "start": 14.1433,
      "duration": 2.5703,
      "velocity": 92,
      "chip": "ym2612"
    },
    {
      "channel": 5,
      "note": 74,
      "start": 14.1435,
      "duration": 2.5701,
      "velocity": 92,
      "chip": "ym2612"
    },
    {
      "channel": 0,
      "note": 53,
      "start": 14.2473,
      "duration": 0.1052,
      "velocity": 121,
      "chip": "ym2612"
    },
    {
      "channel": 0,
      "note": 62,
      "start": 14.3544,
      "duration": 0.0873,
      "velocity": 112,
      "chip": "ym2612"
    },
    {
      "channel": 0,
      "note": 59,
      "start": 14.4599,
      "duration": 0.089,
      "velocity": 112,
      "chip": "ym2612"
    },
    {
      "channel": 0,
      "note": 66,
      "start": 14.5687,
      "duration": 0.1052,
      "velocity": 127,
      "chip": "ym2612"
    },
    {
      "channel": 0,
      "note": 59,
      "start": 14.6759,
      "duration": 0.0874,
      "velocity": 112,
      "chip": "ym2612"
    },
    {
      "channel": 0,
      "note": 62,
      "start": 14.7813,
      "duration": 0.089,
      "velocity": 112,
      "chip": "ym2612"
    },
    {
      "channel": 0,
      "note": 53,
      "start": 14.8904,
      "duration": 0.1049,
      "velocity": 121,
      "chip": "ym2612"
    },
    {
      "channel": 0,
      "note": 62,
      "start": 14.9973,
      "duration": 0.0873,
      "velocity": 112,
      "chip": "ym2612"
    },
    {
      "channel": 0,
      "note": 62,
      "start": 15.1027,
      "duration": 0.089,
      "velocity": 112,
      "chip": "ym2612"
    },
    {
      "channel": 0,
      "note": 59,
      "start": 15.2098,
      "duration": 0.0891,
      "velocity": 112,
      "chip": "ym2612"
    },
    {
      "channel": 0,
      "note": 53,
      "start": 15.3187,
      "duration": 0.1052,
      "velocity": 121,
      "chip": "ym2612"
    },
    {
      "channel": 0,
      "note": 45,
      "start": 15.4258,
      "duration": 0.1052,
      "velocity": 127,
      "chip": "ym2612"
    },
    {
      "channel": 0,
      "note": 62,
      "start": 15.533,
      "duration": 0.0873,
      "velocity": 112,
      "chip": "ym2612"
    },
    {
      "channel": 0,
      "note": 66,
      "start": 15.6383,
      "duration": 0.0891,
      "velocity": 112,
      "chip": "ym2612"
    },
    {
      "channel": 0,
      "note": 53,
      "start": 15.7472,
      "duration": 0.1052,
      "velocity": 121,
      "chip": "ym2612"
    },
    {
      "channel": 0,
      "note": 41,
      "start": 15.8544,
      "duration": 0.1052,
      "velocity": 127,
      "chip": "ym2612"
    },
    {
      "channel": 0,
      "note": 53,
      "start": 15.9615,
      "duration": 0.1052,
      "velocity": 121,
      "chip": "ym2612"
    },
    {
      "channel": 0,
      "note": 62,
      "start": 16.0686,
      "duration": 0.0873,
      "velocity": 112,
      "chip": "ym2612"
    },
    {
      "channel": 0,
      "note": 59,
      "start": 16.174,
      "duration": 0.0891,
      "velocity": 112,
      "chip": "ym2612"
    },
    {
      "channel": 0,
      "note": 66,
      "start": 16.2829,
      "duration": 0.1052,
      "velocity": 127,
      "chip": "ym2612"
    },
    {
      "channel": 0,
      "note": 59,
      "start": 16.3903,
      "duration": 0.0871,
      "velocity": 112,
      "chip": "ym2612"
    },
    {
      "channel": 0,
      "note": 62,
      "start": 16.4954,
      "duration": 0.089,
      "velocity": 112,
      "chip": "ym2612"
    },
    {
      "channel": 0,
      "note": 53,
      "start": 16.6043,
      "duration": 0.1052,
      "velocity": 121,
      "chip": "ym2612"
    },
    {
      "channel": 0,
      "note": 62,
      "start": 16.7114,
      "duration": 0.0873,
      "velocity": 112,
      "chip": "ym2612"
    },
    {
      "channel": 1,
      "note": 55,
      "start": 16.7134,
      "duration": 0.1035,
      "velocity": 91,
      "chip": "ym2612"
    },
    {
      "channel": 0,
      "note": 62,
      "start": 16.8168,
      "duration": 0.089,
      "velocity": 112,
      "chip": "ym2612"
    },
    {
      "channel": 1,
      "note": 55,
      "start": 16.8171,
      "duration": 0.1069,
      "velocity": 91,
      "chip": "ym2612"
    },
    {
      "channel": 0,
      "note": 59,
      "start": 16.924,
      "duration": 0.089,
      "velocity": 112,
      "chip": "ym2612"
    },
    {
      "channel": 1,
      "note": 55,
      "start": 16.9243,
      "duration": 0.1086,
      "velocity": 91,
      "chip": "ym2612"
    },
    {
      "channel": 0,
      "note": 53,
      "start": 17.0328,
      "duration": 0.1052,
      "velocity": 121,
      "chip": "ym2612"
    },
    {
      "channel": 1,
      "note": 55,
      "start": 17.0332,
      "duration": 0.1071,
      "velocity": 91,
      "chip": "ym2612"
    },
    {
      "channel": 0,
      "note": 45,
      "start": 17.1402,
      "duration": 0.1049,
      "velocity": 127,
      "chip": "ym2612"
    },
    {
      "channel": 1,
      "note": 55,
      "start": 17.1405,
      "duration": 0.1066,
      "velocity": 91,
      "chip": "ym2612"
    },
    {
      "channel": 0,
      "note": 62,
      "start": 17.2471,
      "duration": 0.0873,
      "velocity": 112,
      "chip": "ym2612"
    },
    {
      "channel": 1,
      "note": 55,
      "start": 17.2474,
      "duration": 0.1052,
      "velocity": 91,
      "chip": "ym2612"
    },
    {
      "channel": 0,
      "note": 66,
      "start": 17.3525,
      "duration": 0.0891,
      "velocity": 112,
      "chip": "ym2612"
    },
    {
      "channel": 1,
      "note": 55,
      "start": 17.3528,
      "duration": 0.1086,
      "velocity": 91,
      "chip": "ym2612"
    },
    {
      "channel": 0,
      "note": 53,
      "start": 17.4614,
      "duration": 0.1052,
      "velocity": 121,
      "chip": "ym2612"
    },
    {
      "channel": 1,
      "note": 55,
      "start": 17.4617,
      "duration": 0.1069,
      "velocity": 91,
      "chip": "ym2612"
    },
    {
      "channel": 0,
      "note": 41,
      "start": 17.5685,
      "duration": 0.1052,
      "velocity": 127,
      "chip": "ym2612"
    },
    {
      "channel": 1,
      "note": 64,
      "start": 17.5708,
      "duration": 2.5693,
      "velocity": 89,
      "chip": "ym2612"
    },
    {
      "channel": 2,
      "note": 60,
      "start": 17.571,
      "duration": 2.571,
      "velocity": 89,
      "chip": "ym2612"
    },
    {
      "channel": 3,
      "note": 72,
      "start": 17.5713,
      "duration": 2.5708,
      "velocity": 92,
      "chip": "ym2612"
    },
    {
      "channel": 4,
      "note": 76,
      "start": 17.5716,
      "duration": 2.5706,
      "velocity": 92,
      "chip": "ym2612"
    },
    {
      "channel": 5,
      "note": 79,
      "start": 17.5719,
      "duration": 2.5704,
      "velocity": 92,
      "chip": "ym2612"
    },
    {
      "channel": 0,
      "note": 53,
      "start": 17.6756,
      "duration": 0.1052,
      "velocity": 121,
      "chip": "ym2612"
    },
    {
      "channel": 0,
      "note": 62,
      "start": 17.7828,
      "duration": 0.0873,
      "velocity": 112,
      "chip": "ym2612"
    },
    {
      "channel": 0,
      "note": 59,
      "start": 17.8882,
      "duration": 0.089,
      "velocity": 112,
      "chip": "ym2612"
    },
    {
      "channel": 0,
      "note": 66,
      "start": 17.9971,
      "duration": 0.1052,
      "velocity": 127,
      "chip": "ym2612"
    },
    {
      "channel": 0,
      "note": 59,
      "start": 18.1042,
      "duration": 0.0873,
      "velocity": 112,
      "chip": "ym2612"
    },
    {
      "channel": 0,
      "note": 62,
      "start": 18.2096,
      "duration": 0.089,
      "velocity": 112,
      "chip": "ym2612"
    },
    {
      "channel": 0,
      "note": 53,
      "start": 18.3185,
      "duration": 0.1052,
      "velocity": 121,
      "chip": "ym2612"
    },
    {
      "channel": 0,
      "note": 62,
      "start": 18.4256,
      "duration": 0.0873,
      "velocity": 112,
      "chip": "ym2612"
    },
    {
      "channel": 0,
      "note": 62,
      "start": 18.531,
      "duration": 0.089,
      "velocity": 112,
      "chip": "ym2612"
    },
    {
      "channel": 0,
      "note": 59,
      "start": 18.6382,
      "duration": 0.089,
      "velocity": 112,
      "chip": "ym2612"
    },
    {
      "channel": 0,
      "note": 53,
      "start": 18.747,
      "duration": 0.1052,
      "velocity": 121,
      "chip": "ym2612"
    },
    {
      "channel": 0,
      "note": 45,
      "start": 18.8542,
      "duration": 0.1052,
      "velocity": 127,
      "chip": "ym2612"
    },
    {
      "channel": 0,
      "note": 62,
      "start": 18.9613,
      "duration": 0.0873,
      "velocity": 112,
      "chip": "ym2612"
    },
    {
      "channel": 0,
      "note": 66,
      "start": 19.0667,
      "duration": 0.089,
      "velocity": 112,
      "chip": "ym2612"
    },
    {
      "channel": 0,
      "note": 53,
      "start": 19.1756,
      "duration": 0.1052,
      "velocity": 121,
      "chip": "ym2612"
    },
    {
      "channel": 0,
      "note": 41,
      "start": 19.2827,
      "duration": 0.1052,
      "velocity": 127,
      "chip": "ym2612"
    },
    {
      "channel": 0,
      "note": 53,
      "start": 19.3901,
      "duration": 0.1049,
      "velocity": 121,
      "chip": "ym2612"
    },
    {
      "channel": 0,
      "note": 62,
      "start": 19.497,
      "duration": 0.0873,
      "velocity": 112,
      "chip": "ym2612"
    },
    {
      "channel": 0,
      "note": 59,
      "start": 19.6024,
      "duration": 0.089,
      "velocity": 112,
      "chip": "ym2612"
    },
    {
      "channel": 0,
      "note": 66,
      "start": 19.7113,
      "duration": 0.1051,
      "velocity": 127,
      "chip": "ym2612"
    },
    {
      "channel": 0,
      "note": 59,
      "start": 19.8184,
      "duration": 0.0873,
      "velocity": 112,
      "chip": "ym2612"
    },
    {
      "channel": 0,
      "note": 62,
      "start": 19.9238,
      "duration": 0.089,
      "velocity": 112,
      "chip": "ym2612"
    },
    {
      "channel": 0,
      "note": 53,
      "start": 20.0327,
      "duration": 0.1052,
      "velocity": 121,
      "chip": "ym2612"
    },
    {
      "channel": 0,
      "note": 62,
      "start": 20.14,
      "duration": 0.0871,
      "velocity": 112,
      "chip": "ym2612"
    },
    {
      "channel": 1,
      "note": 55,
      "start": 20.142,
      "duration": 0.1032,
      "velocity": 91,
      "chip": "ym2612"
    },
    {
      "channel": 0,
      "note": 62,
      "start": 20.2452,
      "duration": 0.0891,
      "velocity": 112,
      "chip": "ym2612"
    },
    {
      "channel": 1,
      "note": 55,
      "start": 20.2455,
      "duration": 0.1069,
      "velocity": 91,
      "chip": "ym2612"
    },
    {
      "channel": 0,
      "note": 59,
      "start": 20.3523,
      "duration": 0.089,
      "velocity": 112,
      "chip": "ym2612"
    },
    {
      "channel": 1,
      "note": 55,
      "start": 20.3526,
      "duration": 0.1088,
      "velocity": 91,
      "chip": "ym2612"
    },
    {
      "channel": 0,
      "note": 53,
      "start": 20.4613,
      "duration": 0.1051,
      "velocity": 121,
      "chip": "ym2612"
    },
    {
      "channel": 1,
      "note": 55,
      "start": 20.4616,
      "duration": 0.1068,
      "velocity": 91,
      "chip": "ym2612"
    },
    {
      "channel": 0,
      "note": 45,
      "start": 20.5684,
      "duration": 0.1051,
      "velocity": 127,
      "chip": "ym2612"
    },
    {
      "channel": 1,
      "note": 55,
      "start": 20.5706,
      "duration": 0.1049,
      "velocity": 91,
      "chip": "ym2612"
    },
    {
      "channel": 0,
      "note": 62,
      "start": 20.6755,
      "duration": 0.0873,
      "velocity": 112,
      "chip": "ym2612"
    },
    {
      "channel": 1,
      "note": 55,
      "start": 20.6758,
      "duration": 0.1052,
      "velocity": 91,
      "chip": "ym2612"
    },
    {
      "channel": 0,
      "note": 66,
      "start": 20.7809,
      "duration": 0.089,
      "velocity": 112,
      "chip": "ym2612"
    },
    {
      "channel": 1,
      "note": 55,
      "start": 20.7812,
      "duration": 0.1089,
      "velocity": 91,
      "chip": "ym2612"
    },
    {
      "channel": 0,
      "note": 53,
      "start": 20.89,
      "duration": 0.1049,
      "velocity": 121,
      "chip": "ym2612"
    },
    {
      "channel": 1,
      "note": 55,
      "start": 20.8903,
      "duration": 0.1067,
      "velocity": 91,
      "chip": "ym2612"
    },
    {
      "channel": 0,
      "note": 41,
      "start": 20.9969,
      "duration": 0.1052,
      "velocity": 127,
      "chip": "ym2612"
    },
    {
      "channel": 1,
      "note": 62,
      "start": 20.9989,
      "duration": 2.5694,
      "velocity": 89,
      "chip": "ym2612"
    },
    {
      "channel": 2,
      "note": 58,
      "start": 20.9994,
      "duration": 2.5711,
      "velocity": 89,
      "chip": "ym2612"
    },
    {
      "channel": 3,
      "note": 70,
      "start": 20.9997,
      "duration": 2.5708,
      "velocity": 92,
      "chip": "ym2612"
    },
    {
      "channel": 4,
      "note": 77,
      "start": 21.0,
      "duration": 2.5706,
      "velocity": 92,
      "chip": "ym2612"
    },
    {
      "channel": 5,
      "note": 74,
      "start": 21.0003,
      "duration": 2.5704,
      "velocity": 92,
      "chip": "ym2612"
    },
    {
      "channel": 0,
      "note": 53,
      "start": 21.104,
      "duration": 0.1054,
      "velocity": 121,
      "chip": "ym2612"
    },
    {
      "channel": 0,
      "note": 62,
      "start": 21.2113,
      "duration": 0.0872,
      "velocity": 112,
      "chip": "ym2612"
    },
    {
      "channel": 0,
      "note": 59,
      "start": 21.3166,
      "duration": 0.089,
      "velocity": 112,
      "chip": "ym2612"
    },
    {
      "channel": 0,
      "note": 66,
      "start": 21.4254,
      "duration": 0.1052,
      "velocity": 127,
      "chip": "ym2612"
    },
    {
      "channel": 0,
      "note": 59,
      "start": 21.5326,
      "duration": 0.0873,
      "velocity": 112,
      "chip": "ym2612"
    },
    {
      "channel": 0,
      "note": 62,
      "start": 21.638,
      "duration": 0.0891,
      "velocity": 112,
      "chip": "ym2612"
    },
    {
      "channel": 0,
      "note": 53,
      "start": 21.7468,
      "duration": 0.1052,
      "velocity": 121,
      "chip": "ym2612"
    },
    {
      "channel": 0,
      "note": 62,
      "start": 21.854,
      "duration": 0.0873,
      "velocity": 112,
      "chip": "ym2612"
    },
    {
      "channel": 0,
      "note": 62,
      "start": 21.9596,
      "duration": 0.0888,
      "velocity": 112,
      "chip": "ym2612"
    },
    {
      "channel": 0,
      "note": 59,
      "start": 22.0666,
      "duration": 0.089,
      "velocity": 112,
      "chip": "ym2612"
    },
    {
      "channel": 0,
      "note": 53,
      "start": 22.1754,
      "duration": 0.1052,
      "velocity": 121,
      "chip": "ym2612"
    },
    {
      "channel": 0,
      "note": 45,
      "start": 22.2825,
      "duration": 0.1052,
      "velocity": 127,
      "chip": "ym2612"
    },
    {
      "channel": 0,
      "note": 62,
      "start": 22.3899,
      "duration": 0.0871,
      "velocity": 112,
      "chip": "ym2612"
    },
    {
      "channel": 0,
      "note": 66,
      "start": 22.4951,
      "duration": 0.089,
      "velocity": 112,
      "chip": "ym2612"
    },
    {
      "channel": 0,
      "note": 53,
      "start": 22.6039,
      "duration": 0.1054,
      "velocity": 121,
      "chip": "ym2612"
    },
    {
      "channel": 0,
      "note": 41,
      "start": 22.7113,
      "duration": 0.1049,
      "velocity": 127,
      "chip": "ym2612"
    },
    {
      "channel": 0,
      "note": 53,
      "start": 22.8182,
      "duration": 0.1052,
      "velocity": 121,
      "chip": "ym2612"
    },
    {
      "channel": 0,
      "note": 62,
      "start": 22.9253,
      "duration": 0.0873,
      "velocity": 112,
      "chip": "ym2612"
    },
    {
      "channel": 0,
      "note": 59,
      "start": 23.0307,
      "duration": 0.0891,
      "velocity": 112,
      "chip": "ym2612"
    },
    {
      "channel": 0,
      "note": 66,
      "start": 23.1398,
      "duration": 0.1049,
      "velocity": 127,
      "chip": "ym2612"
    },
    {
      "channel": 0,
      "note": 59,
      "start": 23.2467,
      "duration": 0.0873,
      "velocity": 112,
      "chip": "ym2612"
    },
    {
      "channel": 0,
      "note": 62,
      "start": 23.3522,
      "duration": 0.089,
      "velocity": 112,
      "chip": "ym2612"
    },
    {
      "channel": 0,
      "note": 53,
      "start": 23.4612,
      "duration": 0.1049,
      "velocity": 121,
      "chip": "ym2612"
    },
    {
      "channel": 0,
      "note": 62,
      "start": 23.5682,
      "duration": 0.0873,
      "velocity": 112,
      "chip": "ym2612"
    },
    {
      "channel": 1,
      "note": 55,
      "start": 23.5704,
      "duration": 0.1032,
      "velocity": 91,
      "chip": "ym2612"
    },
    {
      "channel": 0,
      "note": 62,
      "start": 23.6736,
      "duration": 0.089,
      "velocity": 112,
      "chip": "ym2612"
    },
    {
      "channel": 1,
      "note": 55,
      "start": 23.6738,
      "duration": 0.1069,
      "velocity": 91,
      "chip": "ym2612"
    },
    {
      "channel": 0,
      "note": 59,
      "start": 23.7807,
      "duration": 0.0891,
      "velocity": 112,
      "chip": "ym2612"
    },
    {
      "channel": 1,
      "note": 55,
      "start": 23.781,
      "duration": 0.1089,
      "velocity": 91,
      "chip": "ym2612"
    },
    {
      "channel": 0,
      "note": 53,
      "start": 23.8898,
      "duration": 0.1049,
      "velocity": 121,
      "chip": "ym2612"
    },
    {
      "channel": 1,
      "note": 55,
      "start": 23.8901,
      "duration": 0.1067,
      "velocity": 91,
      "chip": "ym2612"
    },
    {
      "channel": 0,
      "note": 45,
      "start": 23.9967,
      "duration": 0.1052,
      "velocity": 127,
      "chip": "ym2612"
    },
    {
      "channel": 1,
      "note": 55,
      "start": 23.997,
      "duration": 0.1069,
      "velocity": 91,
      "chip": "ym2612"
    },
    {
      "channel": 0,
      "note": 62,
      "start": 24.1038,
      "duration": 0.0873,
      "velocity": 112,
      "chip": "ym2612"
    },
    {
      "channel": 1,
      "note": 55,
      "start": 24.1041,
      "duration": 0.1054,
      "velocity": 91,
      "chip": "ym2612"
    },
    {
      "channel": 0,
      "note": 66,
      "start": 24.2095,
      "duration": 0.0888,
      "velocity": 112,
      "chip": "ym2612"
    },
    {
      "channel": 1,
      "note": 55,
      "start": 24.2098,
      "duration": 0.1084,
      "velocity": 91,
      "chip": "ym2612"
    },
    {
      "channel": 0,
      "note": 53,
      "start": 24.3181,
      "duration": 0.1052,
      "velocity": 121,
      "chip": "ym2612"
    },
    {
      "channel": 1,
      "note": 55,
      "start": 24.3184,
      "duration": 0.1069,
      "velocity": 91,
      "chip": "ym2612"
    },
    {
      "channel": 0,
      "note": 41,
      "start": 24.4252,
      "duration": 0.1052,
      "velocity": 127,
      "chip": "ym2612"
    },
    {
      "channel": 1,
      "note": 60,
      "start": 24.4272,
      "duration": 2.5693,
      "velocity": 89,
      "chip": "ym2612"
    },
    {
      "channel": 2,
      "note": 57,
      "start": 24.4275,
      "duration": 2.571,
      "velocity": 89,
      "chip": "ym2612"
    },
    {
      "channel": 3,
      "note": 69,
      "start": 24.4278,
      "duration": 2.5708,
      "velocity": 92,
      "chip": "ym2612"
    },
    {
      "channel": 4,
      "note": 76,
      "start": 24.4281,
      "duration": 2.5706,
      "velocity": 92,
      "chip": "ym2612"
    },
    {
      "channel": 5,
      "note": 72,
      "start": 24.4283,
      "duration": 2.5704,
      "velocity": 92,
      "chip": "ym2612"
    },
    {
      "channel": 0,
      "note": 53,
      "start": 24.5324,
      "duration": 0.1052,
      "velocity": 121,
      "chip": "ym2612"
    },
    {
      "channel": 0,
      "note": 62,
      "start": 24.6398,
      "duration": 0.0871,
      "velocity": 112,
      "chip": "ym2612"
    },
    {
      "channel": 0,
      "note": 59,
      "start": 24.7449,
      "duration": 0.089,
      "velocity": 112,
      "chip": "ym2612"
    },
    {
      "channel": 0,
      "note": 66,
      "start": 24.8538,
      "duration": 0.1052,
      "velocity": 127,
      "chip": "ym2612"
    },
    {
      "channel": 0,
      "note": 59,
      "start": 24.9612,
      "duration": 0.0871,
      "velocity": 112,
      "chip": "ym2612"
    },
    {
      "channel": 0,
      "note": 62,
      "start": 25.0663,
      "duration": 0.089,
      "velocity": 112,
      "chip": "ym2612"
    },
    {
      "channel": 0,
      "note": 53,
      "start": 25.1752,
      "duration": 0.1052,
      "velocity": 121,
      "chip": "ym2612"
    },
    {
      "channel": 0,
      "note": 62,
      "start": 25.2823,
      "duration": 0.0873,
      "velocity": 112,
      "chip": "ym2612"
    },
    {
      "channel": 0,
      "note": 62,
      "start": 25.3877,
      "duration": 0.089,
      "velocity": 112,
      "chip": "ym2612"
    },
    {
      "channel": 0,
      "note": 59,
      "start": 25.4949,
      "duration": 0.0891,
      "velocity": 112,
      "chip": "ym2612"
    },
    {
      "channel": 0,
      "note": 53,
      "start": 25.6037,
      "duration": 0.1052,
      "velocity": 121,
      "chip": "ym2612"
    },
    {
      "channel": 0,
      "note": 45,
      "start": 25.7111,
      "duration": 0.1049,
      "velocity": 127,
      "chip": "ym2612"
    },
    {
      "channel": 0,
      "note": 62,
      "start": 25.818,
      "duration": 0.0873,
      "velocity": 112,
      "chip": "ym2612"
    },
    {
      "channel": 0,
      "note": 66,
      "start": 25.9234,
      "duration": 0.0891,
      "velocity": 112,
      "chip": "ym2612"
    },
    {
      "channel": 0,
      "note": 53,
      "start": 26.0323,
      "duration": 0.1052,
      "velocity": 121,
      "chip": "ym2612"
    },
    {
      "channel": 0,
      "note": 41,
      "start": 26.1397,
      "duration": 0.1049,
      "velocity": 127,
      "chip": "ym2612"
    },
    {
      "channel": 0,
      "note": 53,
      "start": 26.2465,
      "duration": 0.1052,
      "velocity": 121,
      "chip": "ym2612"
    },
    {
      "channel": 0,
      "note": 62,
      "start": 26.3537,
      "duration": 0.0873,
      "velocity": 112,
      "chip": "ym2612"
    },
    {
      "channel": 0,
      "note": 59,
      "start": 26.4593,
      "duration": 0.0888,
      "velocity": 112,
      "chip": "ym2612"
    },
    {
      "channel": 0,
      "note": 66,
      "start": 26.568,
      "duration": 0.1051,
      "velocity": 127,
      "chip": "ym2612"
    },
    {
      "channel": 0,
      "note": 59,
      "start": 26.6751,
      "duration": 0.0873,
      "velocity": 112,
      "chip": "ym2612"
    },
    {
      "channel": 0,
      "note": 62,
      "start": 26.7805,
      "duration": 0.089,
      "velocity": 112,
      "chip": "ym2612"
    },
    {
      "channel": 0,
      "note": 53,
      "start": 26.8896,
      "duration": 0.1049,
      "velocity": 121,
      "chip": "ym2612"
    },
    {
      "channel": 0,
      "note": 62,
      "start": 26.9965,
      "duration": 0.0873,
      "velocity": 112,
      "chip": "ym2612"
    },
    {
      "channel": 1,
      "note": 55,
      "start": 26.9985,
      "duration": 0.1035,
      "velocity": 91,
      "chip": "ym2612"
    },
    {
      "channel": 0,
      "note": 62,
      "start": 27.1019,
      "duration": 0.089,
      "velocity": 112,
      "chip": "ym2612"
    },
    {
      "channel": 1,
      "note": 55,
      "start": 27.1022,
      "duration": 0.1072,
      "velocity": 91,
      "chip": "ym2612"
    },
    {
      "channel": 0,
      "note": 59,
      "start": 27.2093,
      "duration": 0.0888,
      "velocity": 112,
      "chip": "ym2612"
    },
    {
      "channel": 1,
      "note": 55,
      "start": 27.2096,
      "duration": 0.1084,
      "velocity": 91,
      "chip": "ym2612"
    },
    {
      "channel": 0,
      "note": 53,
      "start": 27.3179,
      "duration": 0.1051,
      "velocity": 121,
      "chip": "ym2612"
    },
    {
      "channel": 1,
      "note": 55,
      "start": 27.3182,
      "duration": 0.1069,
      "velocity": 91,
      "chip": "ym2612"
    },
    {
      "channel": 0,
      "note": 45,
      "start": 27.425,
      "duration": 0.1052,
      "velocity": 127,
      "chip": "ym2612"
    },
    {
      "channel": 1,
      "note": 55,
      "start": 27.427,
      "duration": 0.1052,
      "velocity": 91,
      "chip": "ym2612"
    },
    {
      "channel": 0,
      "note": 62,
      "start": 27.5322,
      "duration": 0.0873,
      "velocity": 112,
      "chip": "ym2612"
    },
    {
      "channel": 1,
      "note": 55,
      "start": 27.5324,
      "duration": 0.1052,
      "velocity": 91,
      "chip": "ym2612"
    },
    {
      "channel": 0,
      "note": 66,
      "start": 27.6376,
      "duration": 0.0891,
      "velocity": 112,
      "chip": "ym2612"
    },
    {
      "channel": 1,
      "note": 55,
      "start": 27.6379,
      "duration": 0.1086,
      "velocity": 91,
      "chip": "ym2612"
    },
    {
      "channel": 0,
      "note": 53,
      "start": 27.7464,
      "duration": 0.1052,
      "velocity": 121,
      "chip": "ym2612"
    },
    {
      "channel": 1,
      "note": 55,
      "start": 27.7467,
      "duration": 0.1069,
      "velocity": 91,
      "chip": "ym2612"
    },
    {
      "channel": 0,
      "note": 41,
      "start": 27.8536,
      "duration": 0.1052,
      "velocity": 127,
      "chip": "ym2612"
    },
    {
      "channel": 1,
      "note": 62,
      "start": 27.8556,
      "duration": 2.5693,
      "velocity": 89,
      "chip": "ym2612"
    },
    {
      "channel": 2,
      "note": 58,
      "start": 27.8559,
      "duration": 2.571,
      "velocity": 89,
      "chip": "ym2612"
    },
    {
      "channel": 3,
      "note": 70,
      "start": 27.8561,
      "duration": 2.5708,
      "velocity": 92,
      "chip": "ym2612"
    },
    {
      "channel": 4,
      "note": 77,
      "start": 27.8564,
      "duration": 2.5706,
      "velocity": 92,
      "chip": "ym2612"
    },
    {
      "channel": 5,
      "note": 74,
      "start": 27.8567,
      "duration": 2.5704,
      "velocity": 92,
      "chip": "ym2612"
    },
    {
      "channel": 0,
      "note": 53,
      "start": 27.961,
      "duration": 0.1049,
      "velocity": 121,
      "chip": "ym2612"
    },
    {
      "channel": 0,
      "note": 62,
      "start": 28.0679,
      "duration": 0.0873,
      "velocity": 112,
      "chip": "ym2612"
    },
    {
      "channel": 0,
      "note": 59,
      "start": 28.1733,
      "duration": 0.089,
      "velocity": 112,
      "chip": "ym2612"
    },
    {
      "channel": 0,
      "note": 66,
      "start": 28.2821,
      "duration": 0.1052,
      "velocity": 127,
      "chip": "ym2612"
    },
    {
      "channel": 0,
      "note": 59,
      "start": 28.3895,
      "duration": 0.0871,
      "velocity": 112,
      "chip": "ym2612"
    },
    {
      "channel": 0,
      "note": 62,
      "start": 28.4947,
      "duration": 0.089,
      "velocity": 112,
      "chip": "ym2612"
    },
    {
      "channel": 0,
      "note": 53,
      "start": 28.6035,
      "duration": 0.1052,
      "velocity": 121,
      "chip": "ym2612"
    },
    {
      "channel": 0,
      "note": 62,
      "start": 28.7109,
      "duration": 0.0871,
      "velocity": 112,
      "chip": "ym2612"
    },
    {
      "channel": 0,
      "note": 62,
      "start": 28.8161,
      "duration": 0.089,
      "velocity": 112,
      "chip": "ym2612"
    },
    {
      "channel": 0,
      "note": 59,
      "start": 28.9232,
      "duration": 0.089,
      "velocity": 112,
      "chip": "ym2612"
    },
    {
      "channel": 0,
      "note": 53,
      "start": 29.0321,
      "duration": 0.1052,
      "velocity": 121,
      "chip": "ym2612"
    },
    {
      "channel": 0,
      "note": 45,
      "start": 29.1395,
      "duration": 0.1049,
      "velocity": 127,
      "chip": "ym2612"
    },
    {
      "channel": 0,
      "note": 62,
      "start": 29.2463,
      "duration": 0.0873,
      "velocity": 112,
      "chip": "ym2612"
    },
    {
      "channel": 0,
      "note": 66,
      "start": 29.3518,
      "duration": 0.089,
      "velocity": 112,
      "chip": "ym2612"
    },
    {
      "channel": 0,
      "note": 53,
      "start": 29.4609,
      "duration": 0.1049,
      "velocity": 121,
      "chip": "ym2612"
    },
    {
      "channel": 0,
      "note": 41,
      "start": 29.5678,
      "duration": 0.1051,
      "velocity": 127,
      "chip": "ym2612"
    },
    {
      "channel": 0,
      "note": 53,
      "start": 29.6749,
      "duration": 0.1052,
      "velocity": 121,
      "chip": "ym2612"
    },
    {
      "channel": 0,
      "note": 62,
      "start": 29.782,
      "duration": 0.0873,
      "velocity": 112,
      "chip": "ym2612"
    },
    {
      "channel": 0,
      "note": 59,
      "start": 29.8874,
      "duration": 0.089,
      "velocity": 112,
      "chip": "ym2612"
    },
    {
      "channel": 0,
      "note": 66,
      "start": 29.9963,
      "duration": 0.1052,
      "velocity": 127,
      "chip": "ym2612"
    },
    {
      "channel": 0,
      "note": 59,
      "start": 30.1034,
      "duration": 0.0873,
      "velocity": 112,
      "chip": "ym2612"
    },
    {
      "channel": 0,
      "note": 62,
      "start": 30.2088,
      "duration": 0.089,
      "velocity": 112,
      "chip": "ym2612"
    },
    {
      "channel": 0,
      "note": 53,
      "start": 30.3177,
      "duration": 0.1052,
      "velocity": 121,
      "chip": "ym2612"
    },
    {
      "channel": 0,
      "note": 62,
      "start": 30.4249,
      "duration": 0.0873,
      "velocity": 112,
      "chip": "ym2612"
    },
    {
      "channel": 1,
      "note": 55,
      "start": 30.4268,
      "duration": 0.1035,
      "velocity": 91,
      "chip": "ym2612"
    },
    {
      "channel": 0,
      "note": 62,
      "start": 30.5302,
      "duration": 0.0891,
      "velocity": 112,
      "chip": "ym2612"
    },
    {
      "channel": 1,
      "note": 55,
      "start": 30.5305,
      "duration": 0.1069,
      "velocity": 91,
      "chip": "ym2612"
    },
    {
      "channel": 0,
      "note": 59,
      "start": 30.6374,
      "duration": 0.089,
      "velocity": 112,
      "chip": "ym2612"
    },
    {
      "channel": 1,
      "note": 55,
      "start": 30.6377,
      "duration": 0.1086,
      "velocity": 91,
      "chip": "ym2612"
    },
    {
      "channel": 0,
      "note": 53,
      "start": 30.7462,
      "duration": 0.1052,
      "velocity": 121,
      "chip": "ym2612"
    },
    {
      "channel": 1,
      "note": 55,
      "start": 30.7465,
      "duration": 0.1069,
      "velocity": 91,
      "chip": "ym2612"
    },
    {
      "channel": 0,
      "note": 45,
      "start": 30.8534,
      "duration": 0.1052,
      "velocity": 127,
      "chip": "ym2612"
    },
    {
      "channel": 1,
      "note": 55,
      "start": 30.8537,
      "duration": 0.1072,
      "velocity": 91,
      "chip": "ym2612"
    },
    {
      "channel": 0,
      "note": 62,
      "start": 30.9608,
      "duration": 0.0871,
      "velocity": 112,
      "chip": "ym2612"
    },
    {
      "channel": 1,
      "note": 55,
      "start": 30.9611,
      "duration": 0.1049,
      "velocity": 91,
      "chip": "ym2612"
    },
    {
      "channel": 0,
      "note": 66,
      "start": 31.0659,
      "duration": 0.089,
      "velocity": 112,
      "chip": "ym2612"
    },
    {
      "channel": 1,
      "note": 55,
      "start": 31.0662,
      "duration": 0.1086,
      "velocity": 91,
      "chip": "ym2612"
    },
    {
      "channel": 0,
      "note": 53,
      "start": 31.1748,
      "duration": 0.1052,
      "velocity": 121,
      "chip": "ym2612"
    },
    {
      "channel": 1,
      "note": 55,
      "start": 31.1751,
      "duration": 0.1069,
      "velocity": 91,
      "chip": "ym2612"
    },
    {
      "channel": 0,
      "note": 41,
      "start": 31.2819,
      "duration": 0.1052,
      "velocity": 127,
      "chip": "ym2612"
    },
    {
      "channel": 1,
      "note": 64,
      "start": 31.284,
      "duration": 2.5676,
      "velocity": 89,
      "chip": "ym2612"
    },
    {
      "channel": 2,
      "note": 60,
      "start": 31.2842,
      "duration": 2.5693,
      "velocity": 89,
      "chip": "ym2612"
    },
    {
      "channel": 3,
      "note": 72,
      "start": 31.2845,
      "duration": 2.5691,
      "velocity": 92,
      "chip": "ym2612"
    },
    {
      "channel": 4,
      "note": 76,
      "start": 31.2848,
      "duration": 2.5689,
      "velocity": 92,
      "chip": "ym2612"
    },
    {
      "channel": 5,
      "note": 79,
      "start": 31.2851,
      "duration": 2.5686,
      "velocity": 92,
      "chip": "ym2612"
    },
    {
      "channel": 0,
      "note": 53,
      "start": 31.3893,
      "duration": 0.1049,
      "velocity": 121,
      "chip": "ym2612"
    },
    {
      "channel": 0,
      "note": 62,
      "start": 31.4962,
      "duration": 0.0873,
      "velocity": 112,
      "chip": "ym2612"
    },
    {
      "channel": 0,
      "note": 59,
      "start": 31.6016,
      "duration": 0.0891,
      "velocity": 112,
      "chip": "ym2612"
    },
    {
      "channel": 0,
      "note": 66,
      "start": 31.7107,
      "duration": 0.1049,
      "velocity": 127,
      "chip": "ym2612"
    },
    {
      "channel": 0,
      "note": 59,
      "start": 31.8177,
      "duration": 0.0873,
      "velocity": 112,
      "chip": "ym2612"
    },
    {
      "channel": 0,
      "note": 62,
      "start": 31.923,
      "duration": 0.0891,
      "velocity": 112,
      "chip": "ym2612"
    },
    {
      "channel": 0,
      "note": 53,
      "start": 32.0319,
      "duration": 0.1052,
      "velocity": 121,
      "chip": "ym2612"
    },
    {
      "channel": 0,
      "note": 62,
      "start": 32.1393,
      "duration": 0.0871,
      "velocity": 112,
      "chip": "ym2612"
    },
    {
      "channel": 0,
      "note": 62,
      "start": 32.2444,
      "duration": 0.0891,
      "velocity": 112,
      "chip": "ym2612"
    },
    {
      "channel": 0,
      "note": 59,
      "start": 32.3516,
      "duration": 0.089,
      "velocity": 112,
      "chip": "ym2612"
    },
    {
      "channel": 0,
      "note": 53,
      "start": 32.4607,
      "duration": 0.1049,
      "velocity": 121,
      "chip": "ym2612"
    },
    {
      "channel": 0,
      "note": 45,
      "start": 32.5676,
      "duration": 0.1051,
      "velocity": 127,
      "chip": "ym2612"
    },
    {
      "channel": 0,
      "note": 62,
      "start": 32.6747,
      "duration": 0.0873,
      "velocity": 112,
      "chip": "ym2612"
    },
    {
      "channel": 0,
      "note": 66,
      "start": 32.7801,
      "duration": 0.0893,
      "velocity": 112,
      "chip": "ym2612"
    },
    {
      "channel": 0,
      "note": 53,
      "start": 32.889,
      "duration": 0.1052,
      "velocity": 121,
      "chip": "ym2612"
    },
    {
      "channel": 0,
      "note": 41,
      "start": 32.9961,
      "duration": 0.1052,
      "velocity": 127,
      "chip": "ym2612"
    },
    {
      "channel": 0,
      "note": 53,
      "start": 33.1032,
      "duration": 0.1052,
      "velocity": 121,
      "chip": "ym2612"
    },
    {
      "channel": 0,
      "note": 62,
      "start": 33.2106,
      "duration": 0.0871,
      "velocity": 112,
      "chip": "ym2612"
    },
    {
      "channel": 0,
      "note": 59,
      "start": 33.3158,
      "duration": 0.0891,
      "velocity": 112,
      "chip": "ym2612"
    },
    {
      "channel": 0,
      "note": 43,
      "start": 33.4246,
      "duration": 0.0695,
      "velocity": 127,
      "chip": "ym2612"
    },
    {
      "channel": 0,
      "note": 43,
      "start": 33.5301,
      "duration": 0.0712,
      "velocity": 127,
      "chip": "ym2612"
    },
    {
      "channel": 0,
      "note": 43,
      "start": 33.6373,
      "duration": 0.0711,
      "velocity": 127,
      "chip": "ym2612"
    },
    {
      "channel": 0,
      "note": 43,
      "start": 33.7444,
      "duration": 0.0712,
      "velocity": 127,
      "chip": "ym2612"
    },
    {
      "channel": 0,
      "note": 43,
      "start": 33.8515,
      "duration": 0.0712,
      "velocity": 127,
      "chip": "ym2612"
    },
    {
      "channel": 1,
      "note": 55,
      "start": 33.8535,
      "duration": 0.1052,
      "velocity": 91,
      "chip": "ym2612"
    },
    {
      "channel": 5,
      "note": 77,
      "start": 33.8558,
      "duration": 0.4341,
      "velocity": 109,
      "chip": "ym2612"
    },
    {
      "channel": 0,
      "note": 43,
      "start": 33.9587,
      "duration": 0.0711,
      "velocity": 127,
      "chip": "ym2612"
    },
    {
      "channel": 1,
      "note": 55,
      "start": 33.9589,
      "duration": 0.1069,
      "velocity": 91,
      "chip": "ym2612"
    },
    {
      "channel": 0,
      "note": 43,
      "start": 34.0658,
      "duration": 0.0712,
      "velocity": 127,
      "chip": "ym2612"
    },
    {
      "channel": 1,
      "note": 55,
      "start": 34.0661,
      "duration": 0.1069,
      "velocity": 91,
      "chip": "ym2612"
    },
    {
      "channel": 0,
      "note": 43,
      "start": 34.1729,
      "duration": 0.0712,
      "velocity": 127,
      "chip": "ym2612"
    },
    {
      "channel": 1,
      "note": 55,
      "start": 34.1732,
      "duration": 0.1086,
      "velocity": 91,
      "chip": "ym2612"
    },
    {
      "channel": 0,
      "note": 41,
      "start": 34.2817,
      "duration": 0.0695,
      "velocity": 127,
      "chip": "ym2612"
    },
    {
      "channel": 1,
      "note": 51,
      "start": 34.2838,
      "duration": 0.2106,
      "velocity": 91,
      "chip": "ym2612"
    },
    {
      "channel": 2,
      "note": 51,
      "start": 34.2858,
      "duration": 1.6368,
      "velocity": 109,
      "chip": "ym2612"
    },
    {
      "channel": 3,
      "note": 75,
      "start": 34.2878,
      "duration": 3.3847,
      "velocity": 99,
      "chip": "ym2612"
    },
    {
      "channel": 0,
      "note": 53,
      "start": 34.3889,
      "duration": 0.1052,
      "velocity": 121,
      "chip": "ym2612"
    },
    {
      "channel": 0,
      "note": 53,
      "start": 34.4943,
      "duration": 0.1069,
      "velocity": 121,
      "chip": "ym2612"
    },
    {
      "channel": 1,
      "note": 51,
      "start": 34.4946,
      "duration": 0.216,
      "velocity": 91,
      "chip": "ym2612"
    },
    {
      "channel": 0,
      "note": 53,
      "start": 34.6015,
      "duration": 0.1068,
      "velocity": 121,
      "chip": "ym2612"
    },
    {
      "channel": 0,
      "note": 43,
      "start": 34.7105,
      "duration": 0.1763,
      "velocity": 127,
      "chip": "ym2612"
    },
    {
      "channel": 1,
      "note": 51,
      "start": 34.7108,
      "duration": 0.2138,
      "velocity": 91,
      "chip": "ym2612"
    },
    {
      "channel": 4,
      "note": 63,
      "start": 34.7111,
      "duration": 0.6044,
      "velocity": 127,
      "chip": "ym2612"
    },
    {
      "channel": 5,
      "note": 58,
      "start": 34.7113,
      "duration": 0.6043,
      "velocity": 127,
      "chip": "ym2612"
    },
    {
      "channel": 0,
      "note": 53,
      "start": 34.9246,
      "duration": 0.1052,
      "velocity": 121,
      "chip": "ym2612"
    },
    {
      "channel": 1,
      "note": 51,
      "start": 34.9248,
      "duration": 0.1069,
      "velocity": 91,
      "chip": "ym2612"
    },
    {
      "channel": 0,
      "note": 41,
      "start": 35.0317,
      "duration": 0.1052,
      "velocity": 127,
      "chip": "ym2612"
    },
    {
      "channel": 1,
      "note": 51,
      "start": 35.032,
      "duration": 0.1069,
      "velocity": 91,
      "chip": "ym2612"
    },
    {
      "channel": 0,
      "note": 53,
      "start": 35.1388,
      "duration": 0.1052,
      "velocity": 121,
      "chip": "ym2612"
    },
    {
      "channel": 1,
      "note": 51,
      "start": 35.1393,
      "duration": 0.2138,
      "velocity": 91,
      "chip": "ym2612"
    },
    {
      "channel": 0,
      "note": 53,
      "start": 35.2443,
      "duration": 0.1069,
      "velocity": 121,
      "chip": "ym2612"
    },
    {
      "channel": 0,
      "note": 41,
      "start": 35.3531,
      "duration": 0.1052,
      "velocity": 127,
      "chip": "ym2612"
    },
    {
      "channel": 1,
      "note": 51,
      "start": 35.3534,
      "duration": 0.2141,
      "velocity": 91,
      "chip": "ym2612"
    },
    {
      "channel": 4,
      "note": 67,
      "start": 35.3537,
      "duration": 0.3905,
      "velocity": 127,
      "chip": "ym2612"
    },
    {
      "channel": 5,
      "note": 63,
      "start": 35.354,
      "duration": 0.3904,
      "velocity": 127,
      "chip": "ym2612"
    },
    {
      "channel": 0,
      "note": 53,
      "start": 35.4605,
      "duration": 0.1049,
      "velocity": 121,
      "chip": "ym2612"
    },
    {
      "channel": 0,
      "note": 43,
      "start": 35.5674,
      "duration": 0.1766,
      "velocity": 127,
      "chip": "ym2612"
    },
    {
      "channel": 1,
      "note": 51,
      "start": 35.5677,
      "duration": 0.214,
      "velocity": 91,
      "chip": "ym2612"
    },
    {
      "channel": 0,
      "note": 53,
      "start": 35.7816,
      "duration": 0.1052,
      "velocity": 121,
      "chip": "ym2612"
    },
    {
      "channel": 1,
      "note": 51,
      "start": 35.7819,
      "duration": 0.2141,
      "velocity": 91,
      "chip": "ym2612"
    },
    {
      "channel": 4,
      "note": 70,
      "start": 35.7822,
      "duration": 0.6046,
      "velocity": 127,
      "chip": "ym2612"
    },
    {
      "channel": 5,
      "note": 67,
      "start": 35.7825,
      "duration": 0.6046,
      "velocity": 127,
      "chip": "ym2612"
    },
    {
      "channel": 0,
      "note": 53,
      "start": 35.8871,
      "duration": 0.1069,
      "velocity": 121,
      "chip": "ym2612"
    },
    {
      "channel": 0,
      "note": 41,
      "start": 35.9959,
      "duration": 0.1052,
      "velocity": 127,
      "chip": "ym2612"
    },
    {
      "channel": 1,
      "note": 51,
      "start": 35.9962,
      "duration": 0.2124,
      "velocity": 91,
      "chip": "ym2612"
    },
    {
      "channel": 2,
      "note": 51,
      "start": 35.9965,
      "duration": 0.0333,
      "velocity": 109,
      "chip": "ym2612"
    },
    {
      "channel": 0,
      "note": 53,
      "start": 36.103,
      "duration": 0.1052,
      "velocity": 121,
      "chip": "ym2612"
    },
    {
      "channel": 2,
      "note": 51,
      "start": 36.1033,
      "duration": 0.0335,
      "velocity": 109,
      "chip": "ym2612"
    },
    {
      "channel": 0,
      "note": 53,
      "start": 36.2085,
      "duration": 0.1069,
      "velocity": 121,
      "chip": "ym2612"
    },
    {
      "channel": 1,
      "note": 51,
      "start": 36.2088,
      "duration": 0.2157,
      "velocity": 91,
      "chip": "ym2612"
    },
    {
      "channel": 2,
      "note": 58,
      "start": 36.2093,
      "duration": 0.0346,
      "velocity": 109,
      "chip": "ym2612"
    },
    {
      "channel": 0,
      "note": 53,
      "start": 36.3156,
      "duration": 0.1069,
      "velocity": 121,
      "chip": "ym2612"
    },
    {
      "channel": 2,
      "note": 51,
      "start": 36.3159,
      "duration": 0.0351,
      "velocity": 109,
      "chip": "ym2612"
    },
    {
      "channel": 0,
      "note": 43,
      "start": 36.4245,
      "duration": 0.1766,
      "velocity": 127,
      "chip": "ym2612"
    },
    {
      "channel": 1,
      "note": 51,
      "start": 36.4247,
      "duration": 0.214,
      "velocity": 91,
      "chip": "ym2612"
    },
    {
      "channel": 2,
      "note": 51,
      "start": 36.425,
      "duration": 0.0333,
      "velocity": 109,
      "chip": "ym2612"
    },
    {
      "channel": 4,
      "note": 74,
      "start": 36.4253,
      "duration": 0.3902,
      "velocity": 127,
      "chip": "ym2612"
    },
    {
      "channel": 5,
      "note": 70,
      "start": 36.4256,
      "duration": 0.3901,
      "velocity": 127,
      "chip": "ym2612"
    },
    {
      "channel": 2,
      "note": 51,
      "start": 36.53,
      "duration": 0.0355,
      "velocity": 109,
      "chip": "ym2612"
    },
    {
      "channel": 0,
      "note": 53,
      "start": 36.6387,
      "duration": 0.1052,
      "velocity": 121,
      "chip": "ym2612"
    },
    {
      "channel": 1,
      "note": 51,
      "start": 36.639,
      "duration": 0.1069,
      "velocity": 91,
      "chip": "ym2612"
    },
    {
      "channel": 2,
      "note": 58,
      "start": 36.6395,
      "duration": 0.033,
      "velocity": 109,
      "chip": "ym2612"
    },
    {
      "channel": 0,
      "note": 41,
      "start": 36.7459,
      "duration": 0.1052,
      "velocity": 127,
      "chip": "ym2612"
    },
    {
      "channel": 1,
      "note": 51,
      "start": 36.7461,
      "duration": 0.1069,
      "velocity": 91,
      "chip": "ym2612"
    },
    {
      "channel": 2,
      "note": 51,
      "start": 36.7464,
      "duration": 0.0333,
      "velocity": 109,
      "chip": "ym2612"
    },
    {
      "channel": 0,
      "note": 53,
      "start": 36.853,
      "duration": 0.1052,
      "velocity": 121,
      "chip": "ym2612"
    },
    {
      "channel": 1,
      "note": 51,
      "start": 36.8533,
      "duration": 0.2141,
      "velocity": 91,
      "chip": "ym2612"
    },
    {
      "channel": 2,
      "note": 51,
      "start": 36.8536,
      "duration": 0.1404,
      "velocity": 109,
      "chip": "ym2612"
    },
    {
      "channel": 4,
      "note": 72,
      "start": 36.8539,
      "duration": 0.1758,
      "velocity": 127,
      "chip": "ym2612"
    },
    {
      "channel": 5,
      "note": 69,
      "start": 36.8541,
      "duration": 0.1757,
      "velocity": 127,
      "chip": "ym2612"
    },
    {
      "channel": 0,
      "note": 53,
      "start": 36.9585,
      "duration": 0.1069,
      "velocity": 121,
      "chip": "ym2612"
    },
    {
      "channel": 0,
      "note": 41,
      "start": 37.0673,
      "duration": 0.1052,
      "velocity": 127,
      "chip": "ym2612"
    },
    {
      "channel": 1,
      "note": 51,
      "start": 37.0676,
      "duration": 0.214,
      "velocity": 91,
      "chip": "ym2612"
    },
    {
      "channel": 2,
      "note": 58,
      "start": 37.0679,
      "duration": 0.3547,
      "velocity": 109,
      "chip": "ym2612"
    },
    {
      "channel": 4,
      "note": 72,
      "start": 37.0682,
      "duration": 0.1757,
      "velocity": 127,
      "chip": "ym2612"
    },
    {
      "channel": 5,
      "note": 69,
      "start": 37.0685,
      "duration": 0.1756,
      "velocity": 127,
      "chip": "ym2612"
    },
    {
      "channel": 0,
      "note": 53,
      "start": 37.1744,
      "duration": 0.1051,
      "velocity": 121,
      "chip": "ym2612"
    },
    {
      "channel": 0,
      "note": 43,
      "start": 37.2815,
      "duration": 0.1766,
      "velocity": 127,
      "chip": "ym2612"
    },
    {
      "channel": 1,
      "note": 51,
      "start": 37.2818,
      "duration": 0.214,
      "velocity": 91,
      "chip": "ym2612"
    },
    {
      "channel": 4,
      "note": 70,
      "start": 37.2821,
      "duration": 0.1763,
      "velocity": 127,
      "chip": "ym2612"
    },
    {
      "channel": 5,
      "note": 67,
      "start": 37.2824,
      "duration": 0.1761,
      "velocity": 127,
      "chip": "ym2612"
    },
    {
      "channel": 0,
      "note": 53,
      "start": 37.4958,
      "duration": 0.1052,
      "velocity": 121,
      "chip": "ym2612"
    },
    {
      "channel": 1,
      "note": 51,
      "start": 37.4961,
      "duration": 0.2143,
      "velocity": 91,
      "chip": "ym2612"
    },
    {
      "channel": 2,
      "note": 51,
      "start": 37.4964,
      "duration": 0.0332,
      "velocity": 109,
      "chip": "ym2612"
    },
    {
      "channel": 4,
      "note": 74,
      "start": 37.4967,
      "duration": 0.1759,
      "velocity": 127,
      "chip": "ym2612"
    },
    {
      "channel": 5,
      "note": 70,
      "start": 37.4969,
      "duration": 0.1758,
      "velocity": 127,
      "chip": "ym2612"
    },
    {
      "channel": 0,
      "note": 53,
      "start": 37.6013,
      "duration": 0.1069,
      "velocity": 121,
      "chip": "ym2612"
    },
    {
      "channel": 2,
      "note": 51,
      "start": 37.6016,
      "duration": 0.0352,
      "velocity": 109,
      "chip": "ym2612"
    },
    {
      "channel": 0,
      "note": 41,
      "start": 37.7103,
      "duration": 0.1049,
      "velocity": 127,
      "chip": "ym2612"
    },
    {
      "channel": 1,
      "note": 60,
      "start": 37.7106,
      "duration": 0.2121,
      "velocity": 91,
      "chip": "ym2612"
    },
    {
      "channel": 2,
      "note": 60,
      "start": 37.7109,
      "duration": 1.64,
      "velocity": 109,
      "chip": "ym2612"
    },
    {
      "channel": 3,
      "note": 72,
      "start": 37.7112,
      "duration": 1.2468,
      "velocity": 99,
      "chip": "ym2612"
    },
    {
      "channel": 4,
      "note": 72,
      "start": 37.7115,
      "duration": 0.6039,
      "velocity": 127,
      "chip": "ym2612"
    },
    {
      "channel": 5,
      "note": 67,
      "start": 37.7118,
      "duration": 0.6038,
      "velocity": 127,
      "chip": "ym2612"
    },
    {
      "channel": 0,
      "note": 53,
      "start": 37.8173,
      "duration": 0.1051,
      "velocity": 121,
      "chip": "ym2612"
    },
    {
      "channel": 0,
      "note": 53,
      "start": 37.9227,
      "duration": 0.1068,
      "velocity": 121,
      "chip": "ym2612"
    },
    {
      "channel": 1,
      "note": 60,
      "start": 37.923,
      "duration": 0.2157,
      "velocity": 91,
      "chip": "ym2612"
    },
    {
      "channel": 0,
      "note": 53,
      "start": 38.0298,
      "duration": 0.1069,
      "velocity": 121,
      "chip": "ym2612"
    },
    {
      "channel": 0,
      "note": 43,
      "start": 38.1386,
      "duration": 0.1766,
      "velocity": 127,
      "chip": "ym2612"
    },
    {
      "channel": 1,
      "note": 60,
      "start": 38.1389,
      "duration": 0.214,
      "velocity": 91,
      "chip": "ym2612"
    },
    {
      "channel": 0,
      "note": 53,
      "start": 38.3529,
      "duration": 0.1052,
      "velocity": 121,
      "chip": "ym2612"
    },
    {
      "channel": 1,
      "note": 60,
      "start": 38.3532,
      "duration": 0.1072,
      "velocity": 91,
      "chip": "ym2612"
    },
    {
      "channel": 4,
      "note": 67,
      "start": 38.3535,
      "duration": 2.3188,
      "velocity": 127,
      "chip": "ym2612"
    },
    {
      "channel": 5,
      "note": 60,
      "start": 38.3538,
      "duration": 2.3187,
      "velocity": 127,
      "chip": "ym2612"
    },
    {
      "channel": 0,
      "note": 41,
      "start": 38.4603,
      "duration": 0.1049,
      "velocity": 127,
      "chip": "ym2612"
    },
    {
      "channel": 1,
      "note": 60,
      "start": 38.4606,
      "duration": 0.1067,
      "velocity": 91,
      "chip": "ym2612"
    },
    {
      "channel": 0,
      "note": 53,
      "start": 38.5672,
      "duration": 0.1052,
      "velocity": 121,
      "chip": "ym2612"
    },
    {
      "channel": 1,
      "note": 60,
      "start": 38.5675,
      "duration": 0.214,
      "velocity": 91,
      "chip": "ym2612"
    },
    {
      "channel": 0,
      "note": 53,
      "start": 38.6727,
      "duration": 0.1068,
      "velocity": 121,
      "chip": "ym2612"
    },
    {
      "channel": 0,
      "note": 41,
      "start": 38.7815,
      "duration": 0.1052,
      "velocity": 127,
      "chip": "ym2612"
    },
    {
      "channel": 1,
      "note": 60,
      "start": 38.7817,
      "duration": 0.2141,
      "velocity": 91,
      "chip": "ym2612"
    },
    {
      "channel": 0,
      "note": 53,
      "start": 38.8886,
      "duration": 0.1052,
      "velocity": 121,
      "chip": "ym2612"
    },
    {
      "channel": 0,
      "note": 43,
      "start": 38.9957,
      "duration": 0.1766,
      "velocity": 127,
      "chip": "ym2612"
    },
    {
      "channel": 1,
      "note": 60,
      "start": 38.996,
      "duration": 0.2143,
      "velocity": 91,
      "chip": "ym2612"
    },
    {
      "channel": 3,
      "note": 86,
      "start": 38.9963,
      "duration": 0.3903,
      "velocity": 99,
      "chip": "ym2612"
    },
    {
      "channel": 0,
      "note": 53,
      "start": 39.2102,
      "duration": 0.1049,
      "velocity": 121,
      "chip": "ym2612"
    },
    {
      "channel": 1,
      "note": 60,
      "start": 39.2105,
      "duration": 0.2138,
      "velocity": 91,
      "chip": "ym2612"
    },
    {
      "channel": 0,
      "note": 53,
      "start": 39.3155,
      "duration": 0.1068,
      "velocity": 121,
      "chip": "ym2612"
    },
    {
      "channel": 0,
      "note": 41,
      "start": 39.4243,
      "duration": 0.1052,
      "velocity": 127,
      "chip": "ym2612"
    },
    {
      "channel": 1,
      "note": 60,
      "start": 39.4246,
      "duration": 0.2124,
      "velocity": 91,
      "chip": "ym2612"
    },
    {
      "channel": 2,
      "note": 48,
      "start": 39.4249,
      "duration": 0.0333,
      "velocity": 109,
      "chip": "ym2612"
    },
    {
      "channel": 3,
      "note": 84,
      "start": 39.4252,
      "duration": 0.6045,
      "velocity": 99,
      "chip": "ym2612"
    },
    {
      "channel": 0,
      "note": 53,
      "start": 39.5314,
      "duration": 0.1052,
      "velocity": 121,
      "chip": "ym2612"
    },
    {
      "channel": 2,
      "note": 48,
      "start": 39.5317,
      "duration": 0.0335,
      "velocity": 109,
      "chip": "ym2612"
    },
    {
      "channel": 0,
      "note": 53,
      "start": 39.6369,
      "duration": 0.1068,
      "velocity": 121,
      "chip": "ym2612"
    },
    {
      "channel": 1,
      "note": 60,
      "start": 39.6371,
      "duration": 0.2157,
      "velocity": 91,
      "chip": "ym2612"
    },
    {
      "channel": 2,
      "note": 55,
      "start": 39.6374,
      "duration": 0.0349,
      "velocity": 109,
      "chip": "ym2612"
    },
    {
      "channel": 0,
      "note": 53,
      "start": 39.744,
      "duration": 0.1069,
      "velocity": 121,
      "chip": "ym2612"
    },
    {
      "channel": 2,
      "note": 48,
      "start": 39.7443,
      "duration": 0.0352,
      "velocity": 109,
      "chip": "ym2612"
    },
    {
      "channel": 0,
      "note": 43,
      "start": 39.8528,
      "duration": 0.1766,
      "velocity": 127,
      "chip": "ym2612"
    },
    {
      "channel": 1,
      "note": 60,
      "start": 39.8531,
      "duration": 0.2141,
      "velocity": 91,
      "chip": "ym2612"
    },
    {
      "channel": 2,
      "note": 48,
      "start": 39.8534,
      "duration": 0.0333,
      "velocity": 109,
      "chip": "ym2612"
    },
    {
      "channel": 2,
      "note": 48,
      "start": 39.9583,
      "duration": 0.0355,
      "velocity": 109,
      "chip": "ym2612"
    },
    {
      "channel": 0,
      "note": 53,
      "start": 40.0671,
      "duration": 0.1051,
      "velocity": 121,
      "chip": "ym2612"
    },
    {
      "channel": 1,
      "note": 60,
      "start": 40.0674,
      "duration": 0.1069,
      "velocity": 91,
      "chip": "ym2612"
    },
    {
      "channel": 2,
      "note": 55,
      "start": 40.0677,
      "duration": 0.0332,
      "velocity": 109,
      "chip": "ym2612"
    },
    {
      "channel": 3,
      "note": 79,
      "start": 40.068,
      "duration": 1.0329,
      "velocity": 99,
      "chip": "ym2612"
    },
    {
      "channel": 0,
      "note": 41,
      "start": 40.1742,
      "duration": 0.1052,
      "velocity": 127,
      "chip": "ym2612"
    },
    {
      "channel": 1,
      "note": 60,
      "start": 40.1745,
      "duration": 0.1069,
      "velocity": 91,
      "chip": "ym2612"
    },
    {
      "channel": 2,
      "note": 48,
      "start": 40.1748,
      "duration": 0.0333,
      "velocity": 109,
      "chip": "ym2612"
    },
    {
      "channel": 0,
      "note": 53,
      "start": 40.2813,
      "duration": 0.1052,
      "velocity": 121,
      "chip": "ym2612"
    },
    {
      "channel": 1,
      "note": 60,
      "start": 40.2816,
      "duration": 0.2141,
      "velocity": 91,
      "chip": "ym2612"
    },
    {
      "channel": 2,
      "note": 48,
      "start": 40.2819,
      "duration": 0.1404,
      "velocity": 109,
      "chip": "ym2612"
    },
    {
      "channel": 0,
      "note": 53,
      "start": 40.3868,
      "duration": 0.1068,
      "velocity": 121,
      "chip": "ym2612"
    },
    {
      "channel": 0,
      "note": 41,
      "start": 40.4956,
      "duration": 0.1052,
      "velocity": 127,
      "chip": "ym2612"
    },
    {
      "channel": 1,
      "note": 60,
      "start": 40.4959,
      "duration": 0.2143,
      "velocity": 91,
      "chip": "ym2612"
    },
    {
      "channel": 2,
      "note": 55,
      "start": 40.4962,
      "duration": 0.3547,
      "velocity": 109,
      "chip": "ym2612"
    },
    {
      "channel": 0,
      "note": 53,
      "start": 40.6028,
      "duration": 0.1052,
      "velocity": 121,
      "chip": "ym2612"
    },
    {
      "channel": 0,
      "note": 43,
      "start": 40.7102,
      "duration": 0.1763,
      "velocity": 127,
      "chip": "ym2612"
    },
    {
      "channel": 1,
      "note": 60,
      "start": 40.7104,
      "duration": 0.2138,
      "velocity": 91,
      "chip": "ym2612"
    },
    {
      "channel": 4,
      "note": 67,
      "start": 40.7107,
      "duration": 0.176,
      "velocity": 127,
      "chip": "ym2612"
    },
    {
      "channel": 5,
      "note": 60,
      "start": 40.711,
      "duration": 0.39,
      "velocity": 127,
      "chip": "ym2612"
    },
    {
      "channel": 0,
      "note": 53,
      "start": 40.9242,
      "duration": 0.1052,
      "velocity": 121,
      "chip": "ym2612"
    },
    {
      "channel": 1,
      "note": 60,
      "start": 40.9244,
      "duration": 0.2141,
      "velocity": 91,
      "chip": "ym2612"
    },
    {
      "channel": 2,
      "note": 36,
      "start": 40.9247,
      "duration": 0.0332,
      "velocity": 109,
      "chip": "ym2612"
    },
    {
      "channel": 4,
      "note": 69,
      "start": 40.925,
      "duration": 0.1759,
      "velocity": 127,
      "chip": "ym2612"
    },
    {
      "channel": 0,
      "note": 53,
      "start": 41.0296,
      "duration": 0.1068,
      "velocity": 121,
      "chip": "ym2612"
    },
    {
      "channel": 2,
      "note": 36,
      "start": 41.0299,
      "duration": 0.0351,
      "velocity": 109,
      "chip": "ym2612"
    },
    {
      "channel": 0,
      "note": 41,
      "start": 41.1385,
      "duration": 0.1052,
      "velocity": 127,
      "chip": "ym2612"
    },
    {
      "channel": 1,
      "note": 58,
      "start": 41.1388,
      "duration": 0.2123,
      "velocity": 91,
      "chip": "ym2612"
    },
    {
      "channel": 2,
      "note": 46,
      "start": 41.1393,
      "duration": 1.6401,
      "velocity": 109,
      "chip": "ym2612"
    },
    {
      "channel": 3,
      "note": 70,
      "start": 41.1396,
      "duration": 1.6754,
      "velocity": 99,
      "chip": "ym2612"
    },
    {
      "channel": 4,
      "note": 70,
      "start": 41.1399,
      "duration": 0.6039,
      "velocity": 127,
      "chip": "ym2612"
    },
    {
      "channel": 5,
      "note": 65,
      "start": 41.1402,
      "duration": 0.6038,
      "velocity": 127,
      "chip": "ym2612"
    },
    {
      "channel": 0,
      "note": 53,
      "start": 41.2456,
      "duration": 0.1052,
      "velocity": 121,
      "chip": "ym2612"
    },
    {
      "channel": 0,
      "note": 53,
      "start": 41.351,
      "duration": 0.1068,
      "velocity": 121,
      "chip": "ym2612"
    },
    {
      "channel": 1,
      "note": 58,
      "start": 41.3513,
      "duration": 0.2157,
      "velocity": 91,
      "chip": "ym2612"
    },
    {
      "channel": 0,
      "note": 53,
      "start": 41.4582,
      "duration": 0.1068,
      "velocity": 121,
      "chip": "ym2612"
    },
    {
      "channel": 0,
      "note": 43,
      "start": 41.567,
      "duration": 0.1766,
      "velocity": 127,
      "chip": "ym2612"
    },
    {
      "channel": 1,
      "note": 58,
      "start": 41.5673,
      "duration": 0.214,
      "velocity": 91,
      "chip": "ym2612"
    },
    {
      "channel": 0,
      "note": 53,
      "start": 41.7813,
      "duration": 0.1051,
      "velocity": 121,
      "chip": "ym2612"
    },
    {
      "channel": 1,
      "note": 58,
      "start": 41.7816,
      "duration": 0.214,
      "velocity": 91,
      "chip": "ym2612"
    },
    {
      "channel": 4,
      "note": 65,
      "start": 41.7819,
      "duration": 0.6046,
      "velocity": 127,
      "chip": "ym2612"
    },
    {
      "channel": 5,
      "note": 62,
      "start": 41.7822,
      "duration": 0.6044,
      "velocity": 127,
      "chip": "ym2612"
    },
    {
      "channel": 0,
      "note": 41,
      "start": 41.8884,
      "duration": 0.1052,
      "velocity": 127,
      "chip": "ym2612"
    },
    {
      "channel": 0,
      "note": 53,
      "start": 41.9955,
      "duration": 0.1052,
      "velocity": 121,
      "chip": "ym2612"
    },
    {
      "channel": 1,
      "note": 58,
      "start": 41.9958,
      "duration": 0.2143,
      "velocity": 91,
      "chip": "ym2612"
    },
    {
      "channel": 0,
      "note": 53,
      "start": 42.101,
      "duration": 0.1068,
      "velocity": 121,
      "chip": "ym2612"
    },
    {
      "channel": 0,
      "note": 41,
      "start": 42.21,
      "duration": 0.1049,
      "velocity": 127,
      "chip": "ym2612"
    },
    {
      "channel": 1,
      "note": 58,
      "start": 42.2103,
      "duration": 0.2138,
      "velocity": 91,
      "chip": "ym2612"
    },
    {
      "channel": 0,
      "note": 53,
      "start": 42.317,
      "duration": 0.1052,
      "velocity": 121,
      "chip": "ym2612"
    },
    {
      "channel": 0,
      "note": 43,
      "start": 42.4241,
      "duration": 0.1766,
      "velocity": 127,
      "chip": "ym2612"
    },
    {
      "channel": 1,
      "note": 58,
      "start": 42.4244,
      "duration": 0.214,
      "velocity": 91,
      "chip": "ym2612"
    },
    {
      "channel": 4,
      "note": 70,
      "start": 42.4247,
      "duration": 0.3904,
      "velocity": 127,
      "chip": "ym2612"
    },
    {
      "channel": 5,
      "note": 65,
      "start": 42.4249,
      "duration": 0.3903,
      "velocity": 127,
      "chip": "ym2612"
    },
    {
      "channel": 0,
      "note": 53,
      "start": 42.6383,
      "duration": 0.1052,
      "velocity": 121,
      "chip": "ym2612"
    },
    {
      "channel": 1,
      "note": 58,
      "start": 42.6386,
      "duration": 0.2141,
      "velocity": 91,
      "chip": "ym2612"
    },
    {
      "channel": 0,
      "note": 53,
      "start": 42.7438,
      "duration": 0.1069,
      "velocity": 121,
      "chip": "ym2612"
    },
    {
      "channel": 0,
      "note": 41,
      "start": 42.8526,
      "duration": 0.1052,
      "velocity": 127,
      "chip": "ym2612"
    },
    {
      "channel": 1,
      "note": 60,
      "start": 42.8529,
      "duration": 0.2123,
      "velocity": 91,
      "chip": "ym2612"
    },
    {
      "channel": 2,
      "note": 48,
      "start": 42.8532,
      "duration": 1.6402,
      "velocity": 109,
      "chip": "ym2612"
    },
    {
      "channel": 3,
      "note": 72,
      "start": 42.8535,
      "duration": 1.6759,
      "velocity": 99,
      "chip": "ym2612"
    },
    {
      "channel": 4,
      "note": 72,
      "start": 42.8538,
      "duration": 0.6041,
      "velocity": 127,
      "chip": "ym2612"
    },
    {
      "channel": 5,
      "note": 67,
      "start": 42.8541,
      "duration": 0.604,
      "velocity": 127,
      "chip": "ym2612"
    },
    {
      "channel": 0,
      "note": 53,
      "start": 42.96,
      "duration": 0.1049,
      "velocity": 121,
      "chip": "ym2612"
    },
    {
      "channel": 0,
      "note": 53,
      "start": 43.0652,
      "duration": 0.1069,
      "velocity": 121,
      "chip": "ym2612"
    },
    {
      "channel": 1,
      "note": 60,
      "start": 43.0655,
      "duration": 0.2159,
      "velocity": 91,
      "chip": "ym2612"
    },
    {
      "channel": 0,
      "note": 53,
      "start": 43.1724,
      "duration": 0.107,
      "velocity": 121,
      "chip": "ym2612"
    },
    {
      "channel": 0,
      "note": 43,
      "start": 43.2813,
      "duration": 0.1765,
      "velocity": 127,
      "chip": "ym2612"
    },
    {
      "channel": 1,
      "note": 60,
      "start": 43.2816,
      "duration": 0.2139,
      "velocity": 91,
      "chip": "ym2612"
    },
    {
      "channel": 0,
      "note": 53,
      "start": 43.4954,
      "duration": 0.1052,
      "velocity": 121,
      "chip": "ym2612"
    },
    {
      "channel": 1,
      "note": 60,
      "start": 43.4957,
      "duration": 0.2143,
      "velocity": 91,
      "chip": "ym2612"
    },
    {
      "channel": 4,
      "note": 67,
      "start": 43.496,
      "duration": 0.6046,
      "velocity": 127,
      "chip": "ym2612"
    },
    {
      "channel": 5,
      "note": 60,
      "start": 43.4963,
      "duration": 0.6045,
      "velocity": 127,
      "chip": "ym2612"
    },
    {
      "channel": 0,
      "note": 41,
      "start": 43.6026,
      "duration": 0.1052,
      "velocity": 127,
      "chip": "ym2612"
    },
    {
      "channel": 0,
      "note": 53,
      "start": 43.71,
      "duration": 0.1049,
      "velocity": 121,
      "chip": "ym2612"
    },
    {
      "channel": 1,
      "note": 60,
      "start": 43.7102,
      "duration": 0.2138,
      "velocity": 91,
      "chip": "ym2612"
    },
    {
      "channel": 0,
      "note": 53,
      "start": 43.8152,
      "duration": 0.1068,
      "velocity": 121,
      "chip": "ym2612"
    },
    {
      "channel": 0,
      "note": 41,
      "start": 43.924,
      "duration": 0.1054,
      "velocity": 127,
      "chip": "ym2612"
    },
    {
      "channel": 1,
      "note": 60,
      "start": 43.9243,
      "duration": 0.2141,
      "velocity": 91,
      "chip": "ym2612"
    },
    {
      "channel": 0,
      "note": 53,
      "start": 44.0313,
      "duration": 0.105,
      "velocity": 121,
      "chip": "ym2612"
    },
    {
      "channel": 0,
      "note": 43,
      "start": 44.1383,
      "duration": 0.1766,
      "velocity": 127,
      "chip": "ym2612"
    },
    {
      "channel": 1,
      "note": 60,
      "start": 44.1385,
      "duration": 0.214,
      "velocity": 91,
      "chip": "ym2612"
    },
    {
      "channel": 4,
      "note": 72,
      "start": 44.1388,
      "duration": 0.3907,
      "velocity": 127,
      "chip": "ym2612"
    },
    {
      "channel": 5,
      "note": 67,
      "start": 44.1394,
      "duration": 0.3903,
      "velocity": 127,
      "chip": "ym2612"
    },
    {
      "channel": 0,
      "note": 53,
      "start": 44.3525,
      "duration": 0.1052,
      "velocity": 121,
      "chip": "ym2612"
    },
    {
      "channel": 1,
      "note": 60,
      "start": 44.3528,
      "duration": 0.2141,
      "velocity": 91,
      "chip": "ym2612"
    },
    {
      "channel": 0,
      "note": 53,
      "start": 44.458,
      "duration": 0.1069,
      "velocity": 121,
      "chip": "ym2612"
    },
    {
      "channel": 0,
      "note": 41,
      "start": 44.5668,
      "duration": 0.1051,
      "velocity": 127,
      "chip": "ym2612"
    },
    {
      "channel": 1,
      "note": 62,
      "start": 44.5671,
      "duration": 0.2126,
      "velocity": 91,
      "chip": "ym2612"
    },
    {
      "channel": 2,
      "note": 50,
      "start": 44.5674,
      "duration": 0.0333,
      "velocity": 109,
      "chip": "ym2612"
    },
    {
      "channel": 3,
      "note": 79,
      "start": 44.5678,
      "duration": 1.247,
      "velocity": 99,
      "chip": "ym2612"
    },
    {
      "channel": 4,
      "note": 74,
      "start": 44.568,
      "duration": 3.3897,
      "velocity": 127,
      "chip": "ym2612"
    },
    {
      "channel": 5,
      "note": 67,
      "start": 44.5683,
      "duration": 1.6752,
      "velocity": 127,
      "chip": "ym2612"
    },
    {
      "channel": 0,
      "note": 53,
      "start": 44.6739,
      "duration": 0.1054,
      "velocity": 121,
      "chip": "ym2612"
    },
    {
      "channel": 2,
      "note": 50,
      "start": 44.6742,
      "duration": 0.0335,
      "velocity": 109,
      "chip": "ym2612"
    },
    {
      "channel": 0,
      "note": 53,
      "start": 44.7796,
      "duration": 0.1066,
      "velocity": 121,
      "chip": "ym2612"
    },
    {
      "channel": 1,
      "note": 62,
      "start": 44.7799,
      "duration": 0.2155,
      "velocity": 91,
      "chip": "ym2612"
    },
    {
      "channel": 2,
      "note": 57,
      "start": 44.7802,
      "duration": 0.0346,
      "velocity": 109,
      "chip": "ym2612"
    },
    {
      "channel": 0,
      "note": 53,
      "start": 44.8865,
      "duration": 0.1068,
      "velocity": 121,
      "chip": "ym2612"
    },
    {
      "channel": 2,
      "note": 50,
      "start": 44.8868,
      "duration": 0.0351,
      "velocity": 109,
      "chip": "ym2612"
    },
    {
      "channel": 0,
      "note": 43,
      "start": 44.9954,
      "duration": 0.1766,
      "velocity": 127,
      "chip": "ym2612"
    },
    {
      "channel": 1,
      "note": 62,
      "start": 44.9956,
      "duration": 0.2143,
      "velocity": 91,
      "chip": "ym2612"
    },
    {
      "channel": 2,
      "note": 50,
      "start": 44.9959,
      "duration": 0.0336,
      "velocity": 109,
      "chip": "ym2612"
    },
    {
      "channel": 2,
      "note": 50,
      "start": 45.1009,
      "duration": 0.0355,
      "velocity": 109,
      "chip": "ym2612"
    },
    {
      "channel": 0,
      "note": 53,
      "start": 45.2099,
      "duration": 0.1049,
      "velocity": 121,
      "chip": "ym2612"
    },
    {
      "channel": 1,
      "note": 62,
      "start": 45.2101,
      "duration": 0.2138,
      "velocity": 91,
      "chip": "ym2612"
    },
    {
      "channel": 2,
      "note": 57,
      "start": 45.2104,
      "duration": 0.0329,
      "velocity": 109,
      "chip": "ym2612"
    },
    {
      "channel": 0,
      "note": 41,
      "start": 45.3168,
      "duration": 0.1051,
      "velocity": 127,
      "chip": "ym2612"
    },
    {
      "channel": 2,
      "note": 50,
      "start": 45.3171,
      "duration": 0.0336,
      "velocity": 109,
      "chip": "ym2612"
    },
    {
      "channel": 0,
      "note": 53,
      "start": 45.4239,
      "duration": 0.1054,
      "velocity": 121,
      "chip": "ym2612"
    },
    {
      "channel": 1,
      "note": 62,
      "start": 45.4242,
      "duration": 0.214,
      "velocity": 91,
      "chip": "ym2612"
    },
    {
      "channel": 2,
      "note": 50,
      "start": 45.4244,
      "duration": 0.1403,
      "velocity": 109,
      "chip": "ym2612"
    },
    {
      "channel": 0,
      "note": 53,
      "start": 45.5296,
      "duration": 0.1066,
      "velocity": 121,
      "chip": "ym2612"
    },
    {
      "channel": 0,
      "note": 41,
      "start": 45.6382,
      "duration": 0.1052,
      "velocity": 127,
      "chip": "ym2612"
    },
    {
      "channel": 1,
      "note": 62,
      "start": 45.6384,
      "duration": 0.2141,
      "velocity": 91,
      "chip": "ym2612"
    },
    {
      "channel": 2,
      "note": 57,
      "start": 45.6387,
      "duration": 0.3547,
      "velocity": 109,
      "chip": "ym2612"
    },
    {
      "channel": 0,
      "note": 53,
      "start": 45.7453,
      "duration": 0.1052,
      "velocity": 121,
      "chip": "ym2612"
    },
    {
      "channel": 0,
      "note": 43,
      "start": 45.8524,
      "duration": 0.1769,
      "velocity": 127,
      "chip": "ym2612"
    },
    {
      "channel": 1,
      "note": 62,
      "start": 45.8527,
      "duration": 0.2141,
      "velocity": 91,
      "chip": "ym2612"
    },
    {
      "channel": 3,
      "note": 81,
      "start": 45.8531,
      "duration": 0.3903,
      "velocity": 99,
      "chip": "ym2612"
    },
    {
      "channel": 0,
      "note": 53,
      "start": 46.0667,
      "duration": 0.1051,
      "velocity": 121,
      "chip": "ym2612"
    },
    {
      "channel": 1,
      "note": 62,
      "start": 46.067,
      "duration": 0.2143,
      "velocity": 91,
      "chip": "ym2612"
    },
    {
      "channel": 2,
      "note": 50,
      "start": 46.0673,
      "duration": 0.0332,
      "velocity": 109,
      "chip": "ym2612"
    },
    {
      "channel": 0,
      "note": 53,
      "start": 46.1722,
      "duration": 0.1071,
      "velocity": 121,
      "chip": "ym2612"
    },
    {
      "channel": 2,
      "note": 50,
      "start": 46.1724,
      "duration": 0.0352,
      "velocity": 109,
      "chip": "ym2612"
    },
    {
      "channel": 0,
      "note": 41,
      "start": 46.2812,
      "duration": 0.1049,
      "velocity": 127,
      "chip": "ym2612"
    },
    {
      "channel": 1,
      "note": 62,
      "start": 46.2815,
      "duration": 0.2121,
      "velocity": 91,
      "chip": "ym2612"
    },
    {
      "channel": 2,
      "note": 50,
      "start": 46.2818,
      "duration": 0.033,
      "velocity": 109,
      "chip": "ym2612"
    },
    {
      "channel": 3,
      "note": 78,
      "start": 46.2821,
      "duration": 1.6755,
      "velocity": 99,
      "chip": "ym2612"
    },
    {
      "channel": 5,
      "note": 66,
      "start": 46.2825,
      "duration": 1.6754,
      "velocity": 127,
      "chip": "ym2612"
    },
    {
      "channel": 0,
      "note": 53,
      "start": 46.3881,
      "duration": 0.1052,
      "velocity": 121,
      "chip": "ym2612"
    },
    {
      "channel": 2,
      "note": 50,
      "start": 46.3884,
      "duration": 0.0335,
      "velocity": 109,
      "chip": "ym2612"
    },
    {
      "channel": 0,
      "note": 53,
      "start": 46.4936,
      "duration": 0.1069,
      "velocity": 121,
      "chip": "ym2612"
    },
    {
      "channel": 1,
      "note": 62,
      "start": 46.4939,
      "duration": 0.216,
      "velocity": 91,
      "chip": "ym2612"
    },
    {
      "channel": 2,
      "note": 57,
      "start": 46.4941,
      "duration": 0.0351,
      "velocity": 109,
      "chip": "ym2612"
    },
    {
      "channel": 0,
      "note": 53,
      "start": 46.6007,
      "duration": 0.1069,
      "velocity": 121,
      "chip": "ym2612"
    },
    {
      "channel": 2,
      "note": 50,
      "start": 46.601,
      "duration": 0.0351,
      "velocity": 109,
      "chip": "ym2612"
    },
    {
      "channel": 0,
      "note": 43,
      "start": 46.7098,
      "duration": 0.1763,
      "velocity": 127,
      "chip": "ym2612"
    },
    {
      "channel": 1,
      "note": 62,
      "start": 46.71,
      "duration": 0.2138,
      "velocity": 91,
      "chip": "ym2612"
    },
    {
      "channel": 2,
      "note": 50,
      "start": 46.7103,
      "duration": 0.0331,
      "velocity": 109,
      "chip": "ym2612"
    },
    {
      "channel": 2,
      "note": 50,
      "start": 46.8151,
      "duration": 0.0355,
      "velocity": 109,
      "chip": "ym2612"
    },
    {
      "channel": 0,
      "note": 53,
      "start": 46.9238,
      "duration": 0.1052,
      "velocity": 121,
      "chip": "ym2612"
    },
    {
      "channel": 1,
      "note": 62,
      "start": 46.9241,
      "duration": 0.2141,
      "velocity": 91,
      "chip": "ym2612"
    },
    {
      "channel": 2,
      "note": 57,
      "start": 46.9244,
      "duration": 0.0332,
      "velocity": 109,
      "chip": "ym2612"
    },
    {
      "channel": 0,
      "note": 41,
      "start": 47.0312,
      "duration": 0.1049,
      "velocity": 127,
      "chip": "ym2612"
    },
    {
      "channel": 2,
      "note": 50,
      "start": 47.0315,
      "duration": 0.0333,
      "velocity": 109,
      "chip": "ym2612"
    },
    {
      "channel": 0,
      "note": 53,
      "start": 47.138,
      "duration": 0.1052,
      "velocity": 121,
      "chip": "ym2612"
    },
    {
      "channel": 1,
      "note": 62,
      "start": 47.1383,
      "duration": 0.214,
      "velocity": 91,
      "chip": "ym2612"
    },
    {
      "channel": 2,
      "note": 50,
      "start": 47.1386,
      "duration": 0.1404,
      "velocity": 109,
      "chip": "ym2612"
    },
    {
      "channel": 0,
      "note": 53,
      "start": 47.2435,
      "duration": 0.1069,
      "velocity": 121,
      "chip": "ym2612"
    },
    {
      "channel": 0,
      "note": 41,
      "start": 47.3523,
      "duration": 0.1052,
      "velocity": 127,
      "chip": "ym2612"
    },
    {
      "channel": 1,
      "note": 62,
      "start": 47.3526,
      "duration": 0.2141,
      "velocity": 91,
      "chip": "ym2612"
    },
    {
      "channel": 2,
      "note": 57,
      "start": 47.3529,
      "duration": 0.3547,
      "velocity": 109,
      "chip": "ym2612"
    },
    {
      "channel": 0,
      "note": 53,
      "start": 47.4597,
      "duration": 0.1049,
      "velocity": 121,
      "chip": "ym2612"
    },
    {
      "channel": 0,
      "note": 43,
      "start": 47.5666,
      "duration": 0.0695,
      "velocity": 127,
      "chip": "ym2612"
    },
    {
      "channel": 1,
      "note": 62,
      "start": 47.5669,
      "duration": 0.2142,
      "velocity": 91,
      "chip": "ym2612"
    },
    {
      "channel": 0,
      "note": 43,
      "start": 47.6721,
      "duration": 0.0712,
      "velocity": 127,
      "chip": "ym2612"
    },
    {
      "channel": 0,
      "note": 62,
      "start": 47.7811,
      "duration": 0.1942,
      "velocity": 112,
      "chip": "ym2612"
    },
    {
      "channel": 1,
      "note": 62,
      "start": 47.7814,
      "duration": 0.2138,
      "velocity": 91,
      "chip": "ym2612"
    },
    {
      "channel": 2,
      "note": 50,
      "start": 47.7817,
      "duration": 0.0331,
      "velocity": 109,
      "chip": "ym2612"
    },
    {
      "channel": 2,
      "note": 50,
      "start": 47.8864,
      "duration": 0.0355,
      "velocity": 109,
      "chip": "ym2612"
    },
    {
      "channel": 0,
      "note": 41,
      "start": 47.9951,
      "duration": 0.0873,
      "velocity": 127,
      "chip": "ym2612"
    },
    {
      "channel": 1,
      "note": 51,
      "start": 47.9972,
      "duration": 0.2106,
      "velocity": 91,
      "chip": "ym2612"
    },
    {
      "channel": 2,
      "note": 51,
      "start": 47.9994,
      "duration": 1.6365,
      "velocity": 109,
      "chip": "ym2612"
    },
    {
      "channel": 3,
      "note": 75,
      "start": 48.0015,
      "duration": 3.3844,
      "velocity": 99,
      "chip": "ym2612"
    },
    {
      "channel": 0,
      "note": 53,
      "start": 48.1023,
      "duration": 0.1052,
      "velocity": 121,
      "chip": "ym2612"
    },
    {
      "channel": 0,
      "note": 53,
      "start": 48.2078,
      "duration": 0.1068,
      "velocity": 121,
      "chip": "ym2612"
    },
    {
      "channel": 1,
      "note": 51,
      "start": 48.208,
      "duration": 0.2157,
      "velocity": 91,
      "chip": "ym2612"
    },
    {
      "channel": 0,
      "note": 53,
      "start": 48.3149,
      "duration": 0.1069,
      "velocity": 121,
      "chip": "ym2612"
    },
    {
      "channel": 0,
      "note": 43,
      "start": 48.4237,
      "duration": 0.1766,
      "velocity": 127,
      "chip": "ym2612"
    },
    {
      "channel": 1,
      "note": 51,
      "start": 48.424,
      "duration": 0.214,
      "velocity": 91,
      "chip": "ym2612"
    },
    {
      "channel": 4,
      "note": 63,
      "start": 48.4242,
      "duration": 0.6046,
      "velocity": 127,
      "chip": "ym2612"
    },
    {
      "channel": 5,
      "note": 58,
      "start": 48.4244,
      "duration": 0.6049,
      "velocity": 127,
      "chip": "ym2612"
    },
    {
      "channel": 0,
      "note": 53,
      "start": 48.638,
      "duration": 0.1052,
      "velocity": 121,
      "chip": "ym2612"
    },
    {
      "channel": 1,
      "note": 51,
      "start": 48.6382,
      "duration": 0.1069,
      "velocity": 91,
      "chip": "ym2612"
    },
    {
      "channel": 0,
      "note": 41,
      "start": 48.7451,
      "duration": 0.1052,
      "velocity": 127,
      "chip": "ym2612"
    },
    {
      "channel": 1,
      "note": 51,
      "start": 48.7454,
      "duration": 0.1069,
      "velocity": 91,
      "chip": "ym2612"
    },
    {
      "channel": 0,
      "note": 53,
      "start": 48.8522,
      "duration": 0.1052,
      "velocity": 121,
      "chip": "ym2612"
    },
    {
      "channel": 1,
      "note": 51,
      "start": 48.8525,
      "duration": 0.2141,
      "velocity": 91,
      "chip": "ym2612"
    },
    {
      "channel": 0,
      "note": 53,
      "start": 48.9577,
      "duration": 0.1069,
      "velocity": 121,
      "chip": "ym2612"
    },
    {
      "channel": 0,
      "note": 41,
      "start": 49.0666,
      "duration": 0.1051,
      "velocity": 127,
      "chip": "ym2612"
    },
    {
      "channel": 1,
      "note": 51,
      "start": 49.0668,
      "duration": 0.2143,
      "velocity": 91,
      "chip": "ym2612"
    },
    {
      "channel": 4,
      "note": 67,
      "start": 49.0671,
      "duration": 0.3905,
      "velocity": 127,
      "chip": "ym2612"
    },
    {
      "channel": 5,
      "note": 63,
      "start": 49.0674,
      "duration": 0.3903,
      "velocity": 127,
      "chip": "ym2612"
    },
    {
      "channel": 0,
      "note": 53,
      "start": 49.1736,
      "duration": 0.1052,
      "velocity": 121,
      "chip": "ym2612"
    },
    {
      "channel": 0,
      "note": 43,
      "start": 49.281,
      "duration": 0.1764,
      "velocity": 127,
      "chip": "ym2612"
    },
    {
      "channel": 1,
      "note": 51,
      "start": 49.2813,
      "duration": 0.2138,
      "velocity": 91,
      "chip": "ym2612"
    },
    {
      "channel": 0,
      "note": 53,
      "start": 49.495,
      "duration": 0.1052,
      "velocity": 121,
      "chip": "ym2612"
    },
    {
      "channel": 1,
      "note": 51,
      "start": 49.4953,
      "duration": 0.2143,
      "velocity": 91,
      "chip": "ym2612"
    },
    {
      "channel": 4,
      "note": 70,
      "start": 49.4956,
      "duration": 0.6046,
      "velocity": 127,
      "chip": "ym2612"
    },
    {
      "channel": 5,
      "note": 67,
      "start": 49.4959,
      "duration": 0.6046,
      "velocity": 127,
      "chip": "ym2612"
    },
    {
      "channel": 0,
      "note": 53,
      "start": 49.6005,
      "duration": 0.1068,
      "velocity": 121,
      "chip": "ym2612"
    },
    {
      "channel": 0,
      "note": 41,
      "start": 49.7096,
      "duration": 0.1049,
      "velocity": 127,
      "chip": "ym2612"
    },
    {
      "channel": 1,
      "note": 51,
      "start": 49.7099,
      "duration": 0.2121,
      "velocity": 91,
      "chip": "ym2612"
    },
    {
      "channel": 2,
      "note": 51,
      "start": 49.7102,
      "duration": 0.033,
      "velocity": 109,
      "chip": "ym2612"
    },
    {
      "channel": 0,
      "note": 53,
      "start": 49.8165,
      "duration": 0.1052,
      "velocity": 121,
      "chip": "ym2612"
    },
    {
      "channel": 2,
      "note": 51,
      "start": 49.8168,
      "duration": 0.0334,
      "velocity": 109,
      "chip": "ym2612"
    },
    {
      "channel": 0,
      "note": 53,
      "start": 49.9219,
      "duration": 0.1068,
      "velocity": 121,
      "chip": "ym2612"
    },
    {
      "channel": 1,
      "note": 51,
      "start": 49.9222,
      "duration": 0.2157,
      "velocity": 91,
      "chip": "ym2612"
    },
    {
      "channel": 2,
      "note": 58,
      "start": 49.9225,
      "duration": 0.0349,
      "velocity": 109,
      "chip": "ym2612"
    },
    {
      "channel": 0,
      "note": 53,
      "start": 50.0293,
      "duration": 0.1066,
      "velocity": 121,
      "chip": "ym2612"
    },
    {
      "channel": 2,
      "note": 51,
      "start": 50.0296,
      "duration": 0.0349,
      "velocity": 109,
      "chip": "ym2612"
    },
    {
      "channel": 0,
      "note": 43,
      "start": 50.1379,
      "duration": 0.1766,
      "velocity": 127,
      "chip": "ym2612"
    },
    {
      "channel": 1,
      "note": 51,
      "start": 50.1381,
      "duration": 0.214,
      "velocity": 91,
      "chip": "ym2612"
    },
    {
      "channel": 2,
      "note": 51,
      "start": 50.1384,
      "duration": 0.0333,
      "velocity": 109,
      "chip": "ym2612"
    },
    {
      "channel": 4,
      "note": 74,
      "start": 50.1387,
      "duration": 0.3902,
      "velocity": 127,
      "chip": "ym2612"
    },
    {
      "channel": 5,
      "note": 70,
      "start": 50.139,
      "duration": 0.3904,
      "velocity": 127,
      "chip": "ym2612"
    },
    {
      "channel": 2,
      "note": 51,
      "start": 50.2434,
      "duration": 0.0355,
      "velocity": 109,
      "chip": "ym2612"
    },
    {
      "channel": 0,
      "note": 53,
      "start": 50.3521,
      "duration": 0.1052,
      "velocity": 121,
      "chip": "ym2612"
    },
    {
      "channel": 1,
      "note": 51,
      "start": 50.3524,
      "duration": 0.1072,
      "velocity": 91,
      "chip": "ym2612"
    },
    {
      "channel": 2,
      "note": 58,
      "start": 50.3527,
      "duration": 0.0332,
      "velocity": 109,
      "chip": "ym2612"
    },
    {
      "channel": 0,
      "note": 41,
      "start": 50.4595,
      "duration": 0.1049,
      "velocity": 127,
      "chip": "ym2612"
    },
    {
      "channel": 1,
      "note": 51,
      "start": 50.4598,
      "duration": 0.1067,
      "velocity": 91,
      "chip": "ym2612"
    },
    {
      "channel": 2,
      "note": 51,
      "start": 50.4601,
      "duration": 0.0331,
      "velocity": 109,
      "chip": "ym2612"
    },
    {
      "channel": 0,
      "note": 53,
      "start": 50.5664,
      "duration": 0.1051,
      "velocity": 121,
      "chip": "ym2612"
    },
    {
      "channel": 1,
      "note": 51,
      "start": 50.5667,
      "duration": 0.2143,
      "velocity": 91,
      "chip": "ym2612"
    },
    {
      "channel": 2,
      "note": 51,
      "start": 50.567,
      "duration": 0.1403,
      "velocity": 109,
      "chip": "ym2612"
    },
    {
      "channel": 4,
      "note": 72,
      "start": 50.5673,
      "duration": 0.1758,
      "velocity": 127,
      "chip": "ym2612"
    },
    {
      "channel": 5,
      "note": 69,
      "start": 50.5676,
      "duration": 0.1757,
      "velocity": 127,
      "chip": "ym2612"
    },
    {
      "channel": 0,
      "note": 53,
      "start": 50.6719,
      "duration": 0.1068,
      "velocity": 121,
      "chip": "ym2612"
    },
    {
      "channel": 0,
      "note": 41,
      "start": 50.7809,
      "duration": 0.1049,
      "velocity": 127,
      "chip": "ym2612"
    },
    {
      "channel": 1,
      "note": 51,
      "start": 50.7812,
      "duration": 0.2138,
      "velocity": 91,
      "chip": "ym2612"
    },
    {
      "channel": 2,
      "note": 58,
      "start": 50.7815,
      "duration": 0.3545,
      "velocity": 109,
      "chip": "ym2612"
    },
    {
      "channel": 4,
      "note": 72,
      "start": 50.7818,
      "duration": 0.1755,
      "velocity": 127,
      "chip": "ym2612"
    },
    {
      "channel": 5,
      "note": 69,
      "start": 50.7821,
      "duration": 0.1754,
      "velocity": 127,
      "chip": "ym2612"
    },
    {
      "channel": 0,
      "note": 53,
      "start": 50.8878,
      "duration": 0.1052,
      "velocity": 121,
      "chip": "ym2612"
    },
    {
      "channel": 0,
      "note": 43,
      "start": 50.995,
      "duration": 0.1766,
      "velocity": 127,
      "chip": "ym2612"
    },
    {
      "channel": 1,
      "note": 51,
      "start": 50.9952,
      "duration": 0.2143,
      "velocity": 91,
      "chip": "ym2612"
    },
    {
      "channel": 4,
      "note": 70,
      "start": 50.9955,
      "duration": 0.1763,
      "velocity": 127,
      "chip": "ym2612"
    },
    {
      "channel": 5,
      "note": 67,
      "start": 50.9958,
      "duration": 0.1761,
      "velocity": 127,
      "chip": "ym2612"
    },
    {
      "channel": 0,
      "note": 53,
      "start": 51.2095,
      "duration": 0.1049,
      "velocity": 121,
      "chip": "ym2612"
    },
    {
      "channel": 1,
      "note": 51,
      "start": 51.2098,
      "duration": 0.2138,
      "velocity": 91,
      "chip": "ym2612"
    },
    {
      "channel": 2,
      "note": 51,
      "start": 51.21,
      "duration": 0.0329,
      "velocity": 109,
      "chip": "ym2612"
    },
    {
      "channel": 4,
      "note": 74,
      "start": 51.2103,
      "duration": 0.1756,
      "velocity": 127,
      "chip": "ym2612"
    },
    {
      "channel": 5,
      "note": 70,
      "start": 51.2106,
      "duration": 0.1755,
      "velocity": 127,
      "chip": "ym2612"
    },
    {
      "channel": 0,
      "note": 53,
      "start": 51.3147,
      "duration": 0.1068,
      "velocity": 121,
      "chip": "ym2612"
    },
    {
      "channel": 2,
      "note": 51,
      "start": 51.315,
      "duration": 0.0352,
      "velocity": 109,
      "chip": "ym2612"
    },
    {
      "channel": 0,
      "note": 41,
      "start": 51.4235,
      "duration": 0.1052,
      "velocity": 127,
      "chip": "ym2612"
    },
    {
      "channel": 1,
      "note": 60,
      "start": 51.4238,
      "duration": 0.2124,
      "velocity": 91,
      "chip": "ym2612"
    },
    {
      "channel": 2,
      "note": 60,
      "start": 51.4241,
      "duration": 1.6402,
      "velocity": 109,
      "chip": "ym2612"
    },
    {
      "channel": 3,
      "note": 72,
      "start": 51.4244,
      "duration": 1.2471,
      "velocity": 99,
      "chip": "ym2612"
    },
    {
      "channel": 4,
      "note": 72,
      "start": 51.4247,
      "duration": 0.6041,
      "velocity": 127,
      "chip": "ym2612"
    },
    {
      "channel": 5,
      "note": 67,
      "start": 51.425,
      "duration": 0.604,
      "velocity": 127,
      "chip": "ym2612"
    },
    {
      "channel": 0,
      "note": 53,
      "start": 51.5309,
      "duration": 0.1049,
      "velocity": 121,
      "chip": "ym2612"
    },
    {
      "channel": 0,
      "note": 53,
      "start": 51.6361,
      "duration": 0.1068,
      "velocity": 121,
      "chip": "ym2612"
    },
    {
      "channel": 1,
      "note": 60,
      "start": 51.6364,
      "duration": 0.2157,
      "velocity": 91,
      "chip": "ym2612"
    },
    {
      "channel": 0,
      "note": 53,
      "start": 51.7432,
      "duration": 0.1068,
      "velocity": 121,
      "chip": "ym2612"
    },
    {
      "channel": 0,
      "note": 43,
      "start": 51.852,
      "duration": 0.1766,
      "velocity": 127,
      "chip": "ym2612"
    },
    {
      "channel": 1,
      "note": 60,
      "start": 51.8523,
      "duration": 0.2141,
      "velocity": 91,
      "chip": "ym2612"
    },
    {
      "channel": 0,
      "note": 53,
      "start": 52.0663,
      "duration": 0.1051,
      "velocity": 121,
      "chip": "ym2612"
    },
    {
      "channel": 1,
      "note": 60,
      "start": 52.0666,
      "duration": 0.1069,
      "velocity": 91,
      "chip": "ym2612"
    },
    {
      "channel": 4,
      "note": 67,
      "start": 52.0669,
      "duration": 2.3188,
      "velocity": 127,
      "chip": "ym2612"
    },
    {
      "channel": 5,
      "note": 60,
      "start": 52.0672,
      "duration": 2.3186,
      "velocity": 127,
      "chip": "ym2612"
    },
    {
      "channel": 0,
      "note": 41,
      "start": 52.1734,
      "duration": 0.1052,
      "velocity": 127,
      "chip": "ym2612"
    },
    {
      "channel": 1,
      "note": 60,
      "start": 52.1737,
      "duration": 0.1071,
      "velocity": 91,
      "chip": "ym2612"
    },
    {
      "channel": 0,
      "note": 53,
      "start": 52.2808,
      "duration": 0.1049,
      "velocity": 121,
      "chip": "ym2612"
    },
    {
      "channel": 1,
      "note": 60,
      "start": 52.2811,
      "duration": 0.2138,
      "velocity": 91,
      "chip": "ym2612"
    },
    {
      "channel": 0,
      "note": 53,
      "start": 52.3861,
      "duration": 0.1068,
      "velocity": 121,
      "chip": "ym2612"
    },
    {
      "channel": 0,
      "note": 41,
      "start": 52.4949,
      "duration": 0.1052,
      "velocity": 127,
      "chip": "ym2612"
    },
    {
      "channel": 1,
      "note": 60,
      "start": 52.4951,
      "duration": 0.2143,
      "velocity": 91,
      "chip": "ym2612"
    },
    {
      "channel": 0,
      "note": 53,
      "start": 52.602,
      "duration": 0.1052,
      "velocity": 121,
      "chip": "ym2612"
    },
    {
      "channel": 0,
      "note": 43,
      "start": 52.7094,
      "duration": 0.1763,
      "velocity": 127,
      "chip": "ym2612"
    },
    {
      "channel": 1,
      "note": 60,
      "start": 52.7097,
      "duration": 0.2138,
      "velocity": 91,
      "chip": "ym2612"
    },
    {
      "channel": 3,
      "note": 86,
      "start": 52.71,
      "duration": 0.3901,
      "velocity": 99,
      "chip": "ym2612"
    },
    {
      "channel": 0,
      "note": 53,
      "start": 52.9234,
      "duration": 0.1052,
      "velocity": 121,
      "chip": "ym2612"
    },
    {
      "channel": 1,
      "note": 60,
      "start": 52.9237,
      "duration": 0.2141,
      "velocity": 91,
      "chip": "ym2612"
    },
    {
      "channel": 0,
      "note": 53,
      "start": 53.0289,
      "duration": 0.1068,
      "velocity": 121,
      "chip": "ym2612"
    },
    {
      "channel": 0,
      "note": 41,
      "start": 53.1377,
      "duration": 0.1052,
      "velocity": 127,
      "chip": "ym2612"
    },
    {
      "channel": 1,
      "note": 60,
      "start": 53.138,
      "duration": 0.2124,
      "velocity": 91,
      "chip": "ym2612"
    },
    {
      "channel": 2,
      "note": 48,
      "start": 53.1383,
      "duration": 0.0333,
      "velocity": 109,
      "chip": "ym2612"
    },
    {
      "channel": 3,
      "note": 84,
      "start": 53.1386,
      "duration": 0.6045,
      "velocity": 99,
      "chip": "ym2612"
    },
    {
      "channel": 0,
      "note": 53,
      "start": 53.2448,
      "duration": 0.1052,
      "velocity": 121,
      "chip": "ym2612"
    },
    {
      "channel": 2,
      "note": 48,
      "start": 53.2451,
      "duration": 0.0335,
      "velocity": 109,
      "chip": "ym2612"
    },
    {
      "channel": 0,
      "note": 53,
      "start": 53.3503,
      "duration": 0.1069,
      "velocity": 121,
      "chip": "ym2612"
    },
    {
      "channel": 1,
      "note": 60,
      "start": 53.3505,
      "duration": 0.2158,
      "velocity": 91,
      "chip": "ym2612"
    },
    {
      "channel": 2,
      "note": 55,
      "start": 53.3508,
      "duration": 0.0349,
      "velocity": 109,
      "chip": "ym2612"
    },
    {
      "channel": 0,
      "note": 53,
      "start": 53.4574,
      "duration": 0.1068,
      "velocity": 121,
      "chip": "ym2612"
    },
    {
      "channel": 2,
      "note": 48,
      "start": 53.4577,
      "duration": 0.0352,
      "velocity": 109,
      "chip": "ym2612"
    },
    {
      "channel": 0,
      "note": 43,
      "start": 53.5662,
      "duration": 0.1766,
      "velocity": 127,
      "chip": "ym2612"
    },
    {
      "channel": 1,
      "note": 60,
      "start": 53.5665,
      "duration": 0.2143,
      "velocity": 91,
      "chip": "ym2612"
    },
    {
      "channel": 2,
      "note": 48,
      "start": 53.5668,
      "duration": 0.0333,
      "velocity": 109,
      "chip": "ym2612"
    },
    {
      "channel": 2,
      "note": 48,
      "start": 53.6717,
      "duration": 0.0355,
      "velocity": 109,
      "chip": "ym2612"
    },
    {
      "channel": 0,
      "note": 53,
      "start": 53.7807,
      "duration": 0.1049,
      "velocity": 121,
      "chip": "ym2612"
    },
    {
      "channel": 1,
      "note": 60,
      "start": 53.781,
      "duration": 0.1067,
      "velocity": 91,
      "chip": "ym2612"
    },
    {
      "channel": 2,
      "note": 55,
      "start": 53.7813,
      "duration": 0.033,
      "velocity": 109,
      "chip": "ym2612"
    },
    {
      "channel": 3,
      "note": 79,
      "start": 53.7816,
      "duration": 1.0326,
      "velocity": 99,
      "chip": "ym2612"
    },
    {
      "channel": 0,
      "note": 41,
      "start": 53.8876,
      "duration": 0.1052,
      "velocity": 127,
      "chip": "ym2612"
    },
    {
      "channel": 1,
      "note": 60,
      "start": 53.8879,
      "duration": 0.1069,
      "velocity": 91,
      "chip": "ym2612"
    },
    {
      "channel": 2,
      "note": 48,
      "start": 53.8882,
      "duration": 0.0333,
      "velocity": 109,
      "chip": "ym2612"
    },
    {
      "channel": 0,
      "note": 53,
      "start": 53.9948,
      "duration": 0.1052,
      "velocity": 121,
      "chip": "ym2612"
    },
    {
      "channel": 1,
      "note": 60,
      "start": 53.995,
      "duration": 0.2143,
      "velocity": 91,
      "chip": "ym2612"
    },
    {
      "channel": 2,
      "note": 48,
      "start": 53.9953,
      "duration": 0.1403,
      "velocity": 109,
      "chip": "ym2612"
    },
    {
      "channel": 0,
      "note": 53,
      "start": 54.1002,
      "duration": 0.1068,
      "velocity": 121,
      "chip": "ym2612"
    },
    {
      "channel": 0,
      "note": 41,
      "start": 54.2093,
      "duration": 0.1049,
      "velocity": 127,
      "chip": "ym2612"
    },
    {
      "channel": 1,
      "note": 60,
      "start": 54.2096,
      "duration": 0.2138,
      "velocity": 91,
      "chip": "ym2612"
    },
    {
      "channel": 2,
      "note": 55,
      "start": 54.2098,
      "duration": 0.3545,
      "velocity": 109,
      "chip": "ym2612"
    },
    {
      "channel": 0,
      "note": 53,
      "start": 54.3162,
      "duration": 0.1052,
      "velocity": 121,
      "chip": "ym2612"
    },
    {
      "channel": 0,
      "note": 43,
      "start": 54.4233,
      "duration": 0.1766,
      "velocity": 127,
      "chip": "ym2612"
    },
    {
      "channel": 1,
      "note": 60,
      "start": 54.4236,
      "duration": 0.214,
      "velocity": 91,
      "chip": "ym2612"
    },
    {
      "channel": 4,
      "note": 67,
      "start": 54.4239,
      "duration": 0.1763,
      "velocity": 127,
      "chip": "ym2612"
    },
    {
      "channel": 5,
      "note": 60,
      "start": 54.4242,
      "duration": 0.3903,
      "velocity": 127,
      "chip": "ym2612"
    },
    {
      "channel": 0,
      "note": 53,
      "start": 54.6376,
      "duration": 0.1052,
      "velocity": 121,
      "chip": "ym2612"
    },
    {
      "channel": 1,
      "note": 60,
      "start": 54.6378,
      "duration": 0.2141,
      "velocity": 91,
      "chip": "ym2612"
    },
    {
      "channel": 2,
      "note": 36,
      "start": 54.6381,
      "duration": 0.0332,
      "velocity": 109,
      "chip": "ym2612"
    },
    {
      "channel": 4,
      "note": 69,
      "start": 54.6384,
      "duration": 0.1759,
      "velocity": 127,
      "chip": "ym2612"
    },
    {
      "channel": 0,
      "note": 53,
      "start": 54.743,
      "duration": 0.1069,
      "velocity": 121,
      "chip": "ym2612"
    },
    {
      "channel": 2,
      "note": 36,
      "start": 54.7433,
      "duration": 0.0351,
      "velocity": 109,
      "chip": "ym2612"
    },
    {
      "channel": 0,
      "note": 41,
      "start": 54.8519,
      "duration": 0.1052,
      "velocity": 127,
      "chip": "ym2612"
    },
    {
      "channel": 1,
      "note": 58,
      "start": 54.8522,
      "duration": 0.2124,
      "velocity": 91,
      "chip": "ym2612"
    },
    {
      "channel": 2,
      "note": 46,
      "start": 54.8524,
      "duration": 1.6402,
      "velocity": 109,
      "chip": "ym2612"
    },
    {
      "channel": 3,
      "note": 70,
      "start": 54.8528,
      "duration": 1.6757,
      "velocity": 99,
      "chip": "ym2612"
    },
    {
      "channel": 4,
      "note": 70,
      "start": 54.853,
      "duration": 0.6041,
      "velocity": 127,
      "chip": "ym2612"
    },
    {
      "channel": 5,
      "note": 65,
      "start": 54.8533,
      "duration": 0.604,
      "velocity": 127,
      "chip": "ym2612"
    },
    {
      "channel": 0,
      "note": 53,
      "start": 54.959,
      "duration": 0.1052,
      "velocity": 121,
      "chip": "ym2612"
    },
    {
      "channel": 0,
      "note": 53,
      "start": 55.0644,
      "duration": 0.1069,
      "velocity": 121,
      "chip": "ym2612"
    },
    {
      "channel": 1,
      "note": 58,
      "start": 55.0647,
      "duration": 0.216,
      "velocity": 91,
      "chip": "ym2612"
    },
    {
      "channel": 0,
      "note": 53,
      "start": 55.1716,
      "duration": 0.1068,
      "velocity": 121,
      "chip": "ym2612"
    },
    {
      "channel": 0,
      "note": 43,
      "start": 55.2807,
      "duration": 0.1763,
      "velocity": 127,
      "chip": "ym2612"
    },
    {
      "channel": 1,
      "note": 58,
      "start": 55.2809,
      "duration": 0.2138,
      "velocity": 91,
      "chip": "ym2612"
    },
    {
      "channel": 0,
      "note": 53,
      "start": 55.4947,
      "duration": 0.1052,
      "velocity": 121,
      "chip": "ym2612"
    },
    {
      "channel": 1,
      "note": 58,
      "start": 55.4949,
      "duration": 0.214,
      "velocity": 91,
      "chip": "ym2612"
    },
    {
      "channel": 4,
      "note": 65,
      "start": 55.4952,
      "duration": 0.6046,
      "velocity": 127,
      "chip": "ym2612"
    },
    {
      "channel": 5,
      "note": 62,
      "start": 55.4955,
      "duration": 0.6045,
      "velocity": 127,
      "chip": "ym2612"
    },
    {
      "channel": 0,
      "note": 41,
      "start": 55.6018,
      "duration": 0.1052,
      "velocity": 127,
      "chip": "ym2612"
    },
    {
      "channel": 0,
      "note": 53,
      "start": 55.7089,
      "duration": 0.1052,
      "velocity": 121,
      "chip": "ym2612"
    },
    {
      "channel": 1,
      "note": 58,
      "start": 55.7095,
      "duration": 0.2138,
      "velocity": 91,
      "chip": "ym2612"
    },
    {
      "channel": 0,
      "note": 53,
      "start": 55.8144,
      "duration": 0.1069,
      "velocity": 121,
      "chip": "ym2612"
    },
    {
      "channel": 0,
      "note": 41,
      "start": 55.9232,
      "duration": 0.1052,
      "velocity": 127,
      "chip": "ym2612"
    },
    {
      "channel": 1,
      "note": 58,
      "start": 55.9235,
      "duration": 0.2141,
      "velocity": 91,
      "chip": "ym2612"
    },
    {
      "channel": 0,
      "note": 53,
      "start": 56.0306,
      "duration": 0.1049,
      "velocity": 121,
      "chip": "ym2612"
    },
    {
      "channel": 0,
      "note": 43,
      "start": 56.1375,
      "duration": 0.1766,
      "velocity": 127,
      "chip": "ym2612"
    },
    {
      "channel": 1,
      "note": 58,
      "start": 56.1378,
      "duration": 0.214,
      "velocity": 91,
      "chip": "ym2612"
    },
    {
      "channel": 4,
      "note": 70,
      "start": 56.1381,
      "duration": 0.3904,
      "velocity": 127,
      "chip": "ym2612"
    },
    {
      "channel": 5,
      "note": 65,
      "start": 56.1384,
      "duration": 0.3903,
      "velocity": 127,
      "chip": "ym2612"
    },
    {
      "channel": 0,
      "note": 53,
      "start": 56.3517,
      "duration": 0.1052,
      "velocity": 121,
      "chip": "ym2612"
    },
    {
      "channel": 1,
      "note": 58,
      "start": 56.352,
      "duration": 0.2141,
      "velocity": 91,
      "chip": "ym2612"
    },
    {
      "channel": 0,
      "note": 53,
      "start": 56.4572,
      "duration": 0.1069,
      "velocity": 121,
      "chip": "ym2612"
    },
    {
      "channel": 0,
      "note": 41,
      "start": 56.566,
      "duration": 0.1052,
      "velocity": 127,
      "chip": "ym2612"
    },
    {
      "channel": 1,
      "note": 60,
      "start": 56.5663,
      "duration": 0.2124,
      "velocity": 91,
      "chip": "ym2612"
    },
    {
      "channel": 2,
      "note": 48,
      "start": 56.5666,
      "duration": 1.6402,
      "velocity": 109,
      "chip": "ym2612"
    },
    {
      "channel": 3,
      "note": 72,
      "start": 56.5669,
      "duration": 1.6757,
      "velocity": 99,
      "chip": "ym2612"
    },
    {
      "channel": 4,
      "note": 72,
      "start": 56.5672,
      "duration": 0.6041,
      "velocity": 127,
      "chip": "ym2612"
    },
    {
      "channel": 5,
      "note": 67,
      "start": 56.5675,
      "duration": 0.604,
      "velocity": 127,
      "chip": "ym2612"
    },
    {
      "channel": 0,
      "note": 53,
      "start": 56.6732,
      "duration": 0.1052,
      "velocity": 121,
      "chip": "ym2612"
    },
    {
      "channel": 0,
      "note": 53,
      "start": 56.7786,
      "duration": 0.1069,
      "velocity": 121,
      "chip": "ym2612"
    },
    {
      "channel": 1,
      "note": 60,
      "start": 56.7789,
      "duration": 0.2157,
      "velocity": 91,
      "chip": "ym2612"
    },
    {
      "channel": 0,
      "note": 53,
      "start": 56.8858,
      "duration": 0.1069,
      "velocity": 121,
      "chip": "ym2612"
    },
    {
      "channel": 0,
      "note": 43,
      "start": 56.9946,
      "duration": 0.1766,
      "velocity": 127,
      "chip": "ym2612"
    },
    {
      "channel": 1,
      "note": 60,
      "start": 56.9949,
      "duration": 0.214,
      "velocity": 91,
      "chip": "ym2612"
    },
    {
      "channel": 0,
      "note": 53,
      "start": 57.2088,
      "duration": 0.1052,
      "velocity": 121,
      "chip": "ym2612"
    },
    {
      "channel": 1,
      "note": 60,
      "start": 57.2094,
      "duration": 0.2138,
      "velocity": 91,
      "chip": "ym2612"
    },
    {
      "channel": 4,
      "note": 67,
      "start": 57.2097,
      "duration": 0.6043,
      "velocity": 127,
      "chip": "ym2612"
    },
    {
      "channel": 5,
      "note": 60,
      "start": 57.21,
      "duration": 0.6042,
      "velocity": 127,
      "chip": "ym2612"
    },
    {
      "channel": 0,
      "note": 41,
      "start": 57.316,
      "duration": 0.1052,
      "velocity": 127,
      "chip": "ym2612"
    },
    {
      "channel": 0,
      "note": 53,
      "start": 57.4231,
      "duration": 0.1052,
      "velocity": 121,
      "chip": "ym2612"
    },
    {
      "channel": 1,
      "note": 60,
      "start": 57.4234,
      "duration": 0.214,
      "velocity": 91,
      "chip": "ym2612"
    },
    {
      "channel": 0,
      "note": 53,
      "start": 57.5286,
      "duration": 0.1069,
      "velocity": 121,
      "chip": "ym2612"
    },
    {
      "channel": 0,
      "note": 41,
      "start": 57.6374,
      "duration": 0.1052,
      "velocity": 127,
      "chip": "ym2612"
    },
    {
      "channel": 1,
      "note": 60,
      "start": 57.6377,
      "duration": 0.2141,
      "velocity": 91,
      "chip": "ym2612"
    },
    {
      "channel": 0,
      "note": 53,
      "start": 57.7445,
      "duration": 0.1052,
      "velocity": 121,
      "chip": "ym2612"
    },
    {
      "channel": 0,
      "note": 43,
      "start": 57.8517,
      "duration": 0.1766,
      "velocity": 127,
      "chip": "ym2612"
    },
    {
      "channel": 1,
      "note": 60,
      "start": 57.852,
      "duration": 0.214,
      "velocity": 91,
      "chip": "ym2612"
    },
    {
      "channel": 4,
      "note": 72,
      "start": 57.8523,
      "duration": 0.3904,
      "velocity": 127,
      "chip": "ym2612"
    },
    {
      "channel": 5,
      "note": 67,
      "start": 57.8526,
      "duration": 0.3903,
      "velocity": 127,
      "chip": "ym2612"
    },
    {
      "channel": 0,
      "note": 53,
      "start": 58.0659,
      "duration": 0.1052,
      "velocity": 121,
      "chip": "ym2612"
    },
    {
      "channel": 1,
      "note": 60,
      "start": 58.0662,
      "duration": 0.2143,
      "velocity": 91,
      "chip": "ym2612"
    },
    {
      "channel": 0,
      "note": 53,
      "start": 58.1714,
      "duration": 0.1069,
      "velocity": 121,
      "chip": "ym2612"
    },
    {
      "channel": 0,
      "note": 41,
      "start": 58.2805,
      "duration": 0.1049,
      "velocity": 127,
      "chip": "ym2612"
    },
    {
      "channel": 1,
      "note": 62,
      "start": 58.2807,
      "duration": 0.2121,
      "velocity": 91,
      "chip": "ym2612"
    },
    {
      "channel": 2,
      "note": 50,
      "start": 58.281,
      "duration": 0.033,
      "velocity": 109,
      "chip": "ym2612"
    },
    {
      "channel": 3,
      "note": 79,
      "start": 58.2814,
      "duration": 1.2468,
      "velocity": 99,
      "chip": "ym2612"
    },
    {
      "channel": 4,
      "note": 74,
      "start": 58.2817,
      "duration": 3.3895,
      "velocity": 127,
      "chip": "ym2612"
    },
    {
      "channel": 5,
      "note": 67,
      "start": 58.2819,
      "duration": 1.675,
      "velocity": 127,
      "chip": "ym2612"
    },
    {
      "channel": 0,
      "note": 53,
      "start": 58.3873,
      "duration": 0.1052,
      "velocity": 121,
      "chip": "ym2612"
    },
    {
      "channel": 2,
      "note": 50,
      "start": 58.3876,
      "duration": 0.0335,
      "velocity": 109,
      "chip": "ym2612"
    },
    {
      "channel": 0,
      "note": 53,
      "start": 58.4928,
      "duration": 0.1069,
      "velocity": 121,
      "chip": "ym2612"
    },
    {
      "channel": 1,
      "note": 62,
      "start": 58.4931,
      "duration": 0.2157,
      "velocity": 91,
      "chip": "ym2612"
    },
    {
      "channel": 2,
      "note": 57,
      "start": 58.4934,
      "duration": 0.0349,
      "velocity": 109,
      "chip": "ym2612"
    },
    {
      "channel": 0,
      "note": 53,
      "start": 58.6,
      "duration": 0.1068,
      "velocity": 121,
      "chip": "ym2612"
    },
    {
      "channel": 2,
      "note": 50,
      "start": 58.6003,
      "duration": 0.0351,
      "velocity": 109,
      "chip": "ym2612"
    },
    {
      "channel": 0,
      "note": 43,
      "start": 58.7088,
      "duration": 0.1766,
      "velocity": 127,
      "chip": "ym2612"
    },
    {
      "channel": 1,
      "note": 62,
      "start": 58.7093,
      "duration": 0.2138,
      "velocity": 91,
      "chip": "ym2612"
    },
    {
      "channel": 2,
      "note": 50,
      "start": 58.7096,
      "duration": 0.0331,
      "velocity": 109,
      "chip": "ym2612"
    },
    {
      "channel": 2,
      "note": 50,
      "start": 58.8143,
      "duration": 0.0355,
      "velocity": 109,
      "chip": "ym2612"
    },
    {
      "channel": 0,
      "note": 53,
      "start": 58.923,
      "duration": 0.1052,
      "velocity": 121,
      "chip": "ym2612"
    },
    {
      "channel": 1,
      "note": 62,
      "start": 58.9233,
      "duration": 0.214,
      "velocity": 91,
      "chip": "ym2612"
    },
    {
      "channel": 2,
      "note": 57,
      "start": 58.9236,
      "duration": 0.0332,
      "velocity": 109,
      "chip": "ym2612"
    },
    {
      "channel": 0,
      "note": 41,
      "start": 59.0304,
      "duration": 0.1049,
      "velocity": 127,
      "chip": "ym2612"
    },
    {
      "channel": 2,
      "note": 50,
      "start": 59.0307,
      "duration": 0.0333,
      "velocity": 109,
      "chip": "ym2612"
    },
    {
      "channel": 0,
      "note": 53,
      "start": 59.1373,
      "duration": 0.1052,
      "velocity": 121,
      "chip": "ym2612"
    },
    {
      "channel": 1,
      "note": 62,
      "start": 59.1376,
      "duration": 0.2141,
      "velocity": 91,
      "chip": "ym2612"
    },
    {
      "channel": 2,
      "note": 50,
      "start": 59.1378,
      "duration": 0.1404,
      "velocity": 109,
      "chip": "ym2612"
    },
    {
      "channel": 0,
      "note": 53,
      "start": 59.2427,
      "duration": 0.1069,
      "velocity": 121,
      "chip": "ym2612"
    },
    {
      "channel": 0,
      "note": 41,
      "start": 59.3516,
      "duration": 0.1051,
      "velocity": 127,
      "chip": "ym2612"
    },
    {
      "channel": 1,
      "note": 62,
      "start": 59.3519,
      "duration": 0.214,
      "velocity": 91,
      "chip": "ym2612"
    },
    {
      "channel": 2,
      "note": 57,
      "start": 59.3522,
      "duration": 0.3547,
      "velocity": 109,
      "chip": "ym2612"
    },
    {
      "channel": 0,
      "note": 53,
      "start": 59.4587,
      "duration": 0.1052,
      "velocity": 121,
      "chip": "ym2612"
    },
    {
      "channel": 0,
      "note": 43,
      "start": 59.5659,
      "duration": 0.1766,
      "velocity": 127,
      "chip": "ym2612"
    },
    {
      "channel": 1,
      "note": 62,
      "start": 59.5661,
      "duration": 0.2143,
      "velocity": 91,
      "chip": "ym2612"
    },
    {
      "channel": 3,
      "note": 81,
      "start": 59.5665,
      "duration": 0.3903,
      "velocity": 99,
      "chip": "ym2612"
    },
    {
      "channel": 0,
      "note": 53,
      "start": 59.7804,
      "duration": 0.1049,
      "velocity": 121,
      "chip": "ym2612"
    },
    {
      "channel": 1,
      "note": 62,
      "start": 59.7806,
      "duration": 0.2138,
      "velocity": 91,
      "chip": "ym2612"
    },
    {
      "channel": 2,
      "note": 50,
      "start": 59.7809,
      "duration": 0.0329,
      "velocity": 109,
      "chip": "ym2612"
    },
    {
      "channel": 0,
      "note": 53,
      "start": 59.8856,
      "duration": 0.1068,
      "velocity": 121,
      "chip": "ym2612"
    },
    {
      "channel": 2,
      "note": 50,
      "start": 59.8859,
      "duration": 0.0352,
      "velocity": 109,
      "chip": "ym2612"
    },
    {
      "channel": 0,
      "note": 41,
      "start": 59.9944,
      "duration": 0.1052,
      "velocity": 127,
      "chip": "ym2612"
    },
    {
      "channel": 1,
      "note": 62,
      "start": 59.9947,
      "duration": 0.2124,
      "velocity": 91,
      "chip": "ym2612"
    },
    {
      "channel": 2,
      "note": 50,
      "start": 59.995,
      "duration": 0.0333,
      "velocity": 109,
      "chip": "ym2612"
    },
    {
      "channel": 3,
      "note": 78,
      "start": 59.9953,
      "duration": 1.6758,
      "velocity": 99,
      "chip": "ym2612"
    },
    {
      "channel": 5,
      "note": 66,
      "start": 59.9957,
      "duration": 1.6756,
      "velocity": 127,
      "chip": "ym2612"
    },
    {
      "channel": 0,
      "note": 53,
      "start": 60.1015,
      "duration": 0.1052,
      "velocity": 121,
      "chip": "ym2612"
    },
    {
      "channel": 2,
      "note": 50,
      "start": 60.1018,
      "duration": 0.0334,
      "velocity": 109,
      "chip": "ym2612"
    },
    {
      "channel": 0,
      "note": 53,
      "start": 60.207,
      "duration": 0.1068,
      "velocity": 121,
      "chip": "ym2612"
    },
    {
      "channel": 1,
      "note": 62,
      "start": 60.2073,
      "duration": 0.2157,
      "velocity": 91,
      "chip": "ym2612"
    },
    {
      "channel": 2,
      "note": 57,
      "start": 60.2076,
      "duration": 0.0349,
      "velocity": 109,
      "chip": "ym2612"
    },
    {
      "channel": 0,
      "note": 53,
      "start": 60.3141,
      "duration": 0.1069,
      "velocity": 121,
      "chip": "ym2612"
    },
    {
      "channel": 2,
      "note": 50,
      "start": 60.3144,
      "duration": 0.0352,
      "velocity": 109,
      "chip": "ym2612"
    },
    {
      "channel": 0,
      "note": 43,
      "start": 60.4229,
      "duration": 0.1766,
      "velocity": 127,
      "chip": "ym2612"
    },
    {
      "channel": 1,
      "note": 62,
      "start": 60.4232,
      "duration": 0.214,
      "velocity": 91,
      "chip": "ym2612"
    },
    {
      "channel": 2,
      "note": 50,
      "start": 60.4235,
      "duration": 0.0333,
      "velocity": 109,
      "chip": "ym2612"
    },
    {
      "channel": 2,
      "note": 50,
      "start": 60.5285,
      "duration": 0.0355,
      "velocity": 109,
      "chip": "ym2612"
    },
    {
      "channel": 0,
      "note": 53,
      "start": 60.6372,
      "duration": 0.1052,
      "velocity": 121,
      "chip": "ym2612"
    },
    {
      "channel": 1,
      "note": 62,
      "start": 60.6375,
      "duration": 0.2141,
      "velocity": 91,
      "chip": "ym2612"
    },
    {
      "channel": 2,
      "note": 57,
      "start": 60.6378,
      "duration": 0.0332,
      "velocity": 109,
      "chip": "ym2612"
    },
    {
      "channel": 0,
      "note": 41,
      "start": 60.7443,
      "duration": 0.1052,
      "velocity": 127,
      "chip": "ym2612"
    },
    {
      "channel": 2,
      "note": 50,
      "start": 60.7446,
      "duration": 0.0336,
      "velocity": 109,
      "chip": "ym2612"
    },
    {
      "channel": 0,
      "note": 53,
      "start": 60.8515,
      "duration": 0.1051,
      "velocity": 121,
      "chip": "ym2612"
    },
    {
      "channel": 1,
      "note": 62,
      "start": 60.8518,
      "duration": 0.214,
      "velocity": 91,
      "chip": "ym2612"
    },
    {
      "channel": 2,
      "note": 50,
      "start": 60.8521,
      "duration": 0.1403,
      "velocity": 109,
      "chip": "ym2612"
    },
    {
      "channel": 0,
      "note": 53,
      "start": 60.9569,
      "duration": 0.1068,
      "velocity": 121,
      "chip": "ym2612"
    },
    {
      "channel": 0,
      "note": 41,
      "start": 61.0657,
      "duration": 0.1052,
      "velocity": 127,
      "chip": "ym2612"
    },
    {
      "channel": 1,
      "note": 62,
      "start": 61.066,
      "duration": 0.2143,
      "velocity": 91,
      "chip": "ym2612"
    },
    {
      "channel": 2,
      "note": 57,
      "start": 61.0663,
      "duration": 0.3547,
      "velocity": 109,
      "chip": "ym2612"
    },
    {
      "channel": 0,
      "note": 53,
      "start": 61.1729,
      "duration": 0.1052,
      "velocity": 121,
      "chip": "ym2612"
    },
    {
      "channel": 0,
      "note": 43,
      "start": 61.2803,
      "duration": 0.0692,
      "velocity": 127,
      "chip": "ym2612"
    },
    {
      "channel": 1,
      "note": 62,
      "start": 61.2806,
      "duration": 0.2138,
      "velocity": 91,
      "chip": "ym2612"
    },
    {
      "channel": 0,
      "note": 43,
      "start": 61.3855,
      "duration": 0.0712,
      "velocity": 127,
      "chip": "ym2612"
    },
    {
      "channel": 0,
      "note": 62,
      "start": 61.4943,
      "duration": 0.1945,
      "velocity": 112,
      "chip": "ym2612"
    },
    {
      "channel": 1,
      "note": 62,
      "start": 61.4946,
      "duration": 0.212,
      "velocity": 91,
      "chip": "ym2612"
    },
    {
      "channel": 2,
      "note": 50,
      "start": 61.4949,
      "duration": 0.0333,
      "velocity": 109,
      "chip": "ym2612"
    },
    {
      "channel": 2,
      "note": 50,
      "start": 61.5998,
      "duration": 0.0355,
      "velocity": 109,
      "chip": "ym2612"
    }
  ]
}