{
  "track_name": "03 - Track 6",
  "duration_sec": 24.3,
  "sample_rate": 44100,
  "note_count": 247,
  "unique_pitches": 17,
  "pitch_range": 29,
  "avg_note_duration": 0.488,
  "reconstruction_stats": {
    "notes_reconstructed": 247,
    "keyon_events": 247,
    "keyoff_events": 242,
    "orphan_keyons": 5,
    "unique_pitches": 17,
    "pitch_range": 29,
    "avg_duration_sec": 0.488
  },
  "metadata": {
    "source": "S\\Slam Dunk - Kyougou Makkou Taiketsu!\\03 - Track 6.vgz"
  },
  "notes": [
    {
      "channel": 0,
      "note": 76,
      "start": 0.0023,
      "duration": 0.1081,
      "velocity": 97,
      "chip": "ym2612"
    },
    {
      "channel": 1,
      "note": 52,
      "start": 0.0055,
      "duration": 0.3033,
      "velocity": 91,
      "chip": "ym2612"
    },
    {
      "channel": 2,
      "note": 75,
      "start": 0.008,
      "duration": 0.1033,
      "velocity": 86,
      "chip": "ym2612"
    },
    {
      "channel": 3,
      "note": 71,
      "start": 0.0105,
      "duration": 0.1013,
      "velocity": 86,
      "chip": "ym2612"
    },
    {
      "channel": 4,
      "note": 76,
      "start": 0.0762,
      "duration": 0.1145,
      "velocity": 97,
      "chip": "ym2612"
    },
    {
      "channel": 0,
      "note": 75,
      "start": 0.1109,
      "duration": 0.1115,
      "velocity": 97,
      "chip": "ym2612"
    },
    {
      "channel": 2,
      "note": 75,
      "start": 0.1117,
      "duration": 0.1117,
      "velocity": 86,
      "chip": "ym2612"
    },
    {
      "channel": 3,
      "note": 71,
      "start": 0.1122,
      "duration": 0.1117,
      "velocity": 86,
      "chip": "ym2612"
    },
    {
      "channel": 4,
      "note": 75,
      "start": 0.1912,
      "duration": 0.0935,
      "velocity": 97,
      "chip": "ym2612"
    },
    {
      "channel": 0,
      "note": 71,
      "start": 0.223,
      "duration": 0.0852,
      "velocity": 97,
      "chip": "ym2612"
    },
    {
      "channel": 2,
      "note": 75,
      "start": 0.2237,
      "duration": 0.0857,
      "velocity": 86,
      "chip": "ym2612"
    },
    {
      "channel": 3,
      "note": 71,
      "start": 0.2242,
      "duration": 0.0857,
      "velocity": 86,
      "chip": "ym2612"
    },
    {
      "channel": 4,
      "note": 71,
      "start": 0.2851,
      "duration": 0.0914,
      "velocity": 97,
      "chip": "ym2612"
    },
    {
      "channel": 0,
      "note": 68,
      "start": 0.3087,
      "duration": 0.4012,
      "velocity": 97,
      "chip": "ym2612"
    },
    {
      "channel": 1,
      "note": 59,
      "start": 0.3093,
      "duration": 0.0996,
      "velocity": 91,
      "chip": "ym2612"
    },
    {
      "channel": 2,
      "note": 75,
      "start": 0.3098,
      "duration": 0.0997,
      "velocity": 86,
      "chip": "ym2612"
    },
    {
      "channel": 3,
      "note": 71,
      "start": 0.3103,
      "duration": 0.0997,
      "velocity": 86,
      "chip": "ym2612"
    },
    {
      "channel": 4,
      "note": 68,
      "start": 0.377,
      "duration": 0.4054,
      "velocity": 97,
      "chip": "ym2612"
    },
    {
      "channel": 1,
      "note": 64,
      "start": 0.4094,
      "duration": 0.1058,
      "velocity": 91,
      "chip": "ym2612"
    },
    {
      "channel": 2,
      "note": 75,
      "start": 0.4099,
      "duration": 0.106,
      "velocity": 86,
      "chip": "ym2612"
    },
    {
      "channel": 3,
      "note": 71,
      "start": 0.4104,
      "duration": 0.106,
      "velocity": 86,
      "chip": "ym2612"
    },
    {
      "channel": 1,
      "note": 64,
      "start": 0.5158,
      "duration": 0.1945,
      "velocity": 91,
      "chip": "ym2612"
    },
    {
      "channel": 2,
      "note": 75,
      "start": 0.5163,
      "duration": 0.1083,
      "velocity": 86,
      "chip": "ym2612"
    },
    {
      "channel": 3,
      "note": 71,
      "start": 0.5168,
      "duration": 0.1082,
      "velocity": 86,
      "chip": "ym2612"
    },
    {
      "channel": 2,
      "note": 75,
      "start": 0.6249,
      "duration": 0.086,
      "velocity": 86,
      "chip": "ym2612"
    },
    {
      "channel": 3,
      "note": 71,
      "start": 0.6254,
      "duration": 0.086,
      "velocity": 86,
      "chip": "ym2612"
    },
    {
      "channel": 1,
      "note": 52,
      "start": 0.7108,
      "duration": 0.0994,
      "velocity": 91,
      "chip": "ym2612"
    },
    {
      "channel": 2,
      "note": 75,
      "start": 0.7112,
      "duration": 0.0996,
      "velocity": 86,
      "chip": "ym2612"
    },
    {
      "channel": 3,
      "note": 71,
      "start": 0.7117,
      "duration": 0.0997,
      "velocity": 86,
      "chip": "ym2612"
    },
    {
      "channel": 0,
      "note": 76,
      "start": 0.81,
      "duration": 0.1038,
      "velocity": 97,
      "chip": "ym2612"
    },
    {
      "channel": 1,
      "note": 51,
      "start": 0.8106,
      "duration": 0.308,
      "velocity": 91,
      "chip": "ym2612"
    },
    {
      "channel": 2,
      "note": 73,
      "start": 0.8113,
      "duration": 0.1034,
      "velocity": 86,
      "chip": "ym2612"
    },
    {
      "channel": 3,
      "note": 70,
      "start": 0.812,
      "duration": 0.1034,
      "velocity": 86,
      "chip": "ym2612"
    },
    {
      "channel": 4,
      "note": 76,
      "start": 0.8825,
      "duration": 0.118,
      "velocity": 97,
      "chip": "ym2612"
    },
    {
      "channel": 0,
      "note": 75,
      "start": 0.9143,
      "duration": 0.118,
      "velocity": 97,
      "chip": "ym2612"
    },
    {
      "channel": 2,
      "note": 73,
      "start": 0.9152,
      "duration": 0.118,
      "velocity": 86,
      "chip": "ym2612"
    },
    {
      "channel": 3,
      "note": 70,
      "start": 0.9157,
      "duration": 0.1182,
      "velocity": 86,
      "chip": "ym2612"
    },
    {
      "channel": 4,
      "note": 75,
      "start": 1.001,
      "duration": 0.0936,
      "velocity": 97,
      "chip": "ym2612"
    },
    {
      "channel": 0,
      "note": 70,
      "start": 1.0328,
      "duration": 0.0852,
      "velocity": 97,
      "chip": "ym2612"
    },
    {
      "channel": 2,
      "note": 73,
      "start": 1.0338,
      "duration": 0.0855,
      "velocity": 86,
      "chip": "ym2612"
    },
    {
      "channel": 3,
      "note": 70,
      "start": 1.0343,
      "duration": 0.0857,
      "velocity": 86,
      "chip": "ym2612"
    },
    {
      "channel": 4,
      "note": 70,
      "start": 1.0951,
      "duration": 0.0936,
      "velocity": 97,
      "chip": "ym2612"
    },
    {
      "channel": 0,
      "note": 66,
      "start": 1.1185,
      "duration": 0.3977,
      "velocity": 97,
      "chip": "ym2612"
    },
    {
      "channel": 1,
      "note": 58,
      "start": 1.1192,
      "duration": 0.1023,
      "velocity": 91,
      "chip": "ym2612"
    },
    {
      "channel": 2,
      "note": 73,
      "start": 1.1198,
      "duration": 0.1023,
      "velocity": 86,
      "chip": "ym2612"
    },
    {
      "channel": 3,
      "note": 70,
      "start": 1.1203,
      "duration": 0.1025,
      "velocity": 86,
      "chip": "ym2612"
    },
    {
      "channel": 4,
      "note": 66,
      "start": 1.1892,
      "duration": 0.3995,
      "velocity": 97,
      "chip": "ym2612"
    },
    {
      "channel": 1,
      "note": 63,
      "start": 1.222,
      "duration": 0.1024,
      "velocity": 91,
      "chip": "ym2612"
    },
    {
      "channel": 2,
      "note": 73,
      "start": 1.2226,
      "duration": 0.1025,
      "velocity": 86,
      "chip": "ym2612"
    },
    {
      "channel": 3,
      "note": 70,
      "start": 1.2231,
      "duration": 0.1026,
      "velocity": 86,
      "chip": "ym2612"
    },
    {
      "channel": 1,
      "note": 63,
      "start": 1.3249,
      "duration": 0.1917,
      "velocity": 91,
      "chip": "ym2612"
    },
    {
      "channel": 2,
      "note": 73,
      "start": 1.3256,
      "duration": 0.1054,
      "velocity": 86,
      "chip": "ym2612"
    },
    {
      "channel": 3,
      "note": 70,
      "start": 1.3261,
      "duration": 0.1055,
      "velocity": 86,
      "chip": "ym2612"
    },
    {
      "channel": 2,
      "note": 73,
      "start": 1.4315,
      "duration": 0.0857,
      "velocity": 86,
      "chip": "ym2612"
    },
    {
      "channel": 3,
      "note": 70,
      "start": 1.432,
      "duration": 0.0859,
      "velocity": 86,
      "chip": "ym2612"
    },
    {
      "channel": 1,
      "note": 51,
      "start": 1.5171,
      "duration": 0.0992,
      "velocity": 91,
      "chip": "ym2612"
    },
    {
      "channel": 2,
      "note": 73,
      "start": 1.5177,
      "duration": 0.0992,
      "velocity": 86,
      "chip": "ym2612"
    },
    {
      "channel": 3,
      "note": 70,
      "start": 1.5182,
      "duration": 0.0994,
      "velocity": 86,
      "chip": "ym2612"
    },
    {
      "channel": 0,
      "note": 76,
      "start": 1.6161,
      "duration": 0.1,
      "velocity": 97,
      "chip": "ym2612"
    },
    {
      "channel": 1,
      "note": 52,
      "start": 1.6168,
      "duration": 0.3037,
      "velocity": 91,
      "chip": "ym2612"
    },
    {
      "channel": 2,
      "note": 75,
      "start": 1.6175,
      "duration": 0.0997,
      "velocity": 86,
      "chip": "ym2612"
    },
    {
      "channel": 3,
      "note": 71,
      "start": 1.6182,
      "duration": 0.0995,
      "velocity": 86,
      "chip": "ym2612"
    },
    {
      "channel": 4,
      "note": 76,
      "start": 1.6887,
      "duration": 0.1153,
      "velocity": 97,
      "chip": "ym2612"
    },
    {
      "channel": 0,
      "note": 75,
      "start": 1.7167,
      "duration": 0.119,
      "velocity": 97,
      "chip": "ym2612"
    },
    {
      "channel": 2,
      "note": 75,
      "start": 1.7174,
      "duration": 0.1192,
      "velocity": 86,
      "chip": "ym2612"
    },
    {
      "channel": 3,
      "note": 71,
      "start": 1.7179,
      "duration": 0.1192,
      "velocity": 86,
      "chip": "ym2612"
    },
    {
      "channel": 4,
      "note": 75,
      "start": 1.8044,
      "duration": 0.0972,
      "velocity": 97,
      "chip": "ym2612"
    },
    {
      "channel": 0,
      "note": 71,
      "start": 1.8362,
      "duration": 0.0836,
      "velocity": 97,
      "chip": "ym2612"
    },
    {
      "channel": 2,
      "note": 75,
      "start": 1.837,
      "duration": 0.0841,
      "velocity": 86,
      "chip": "ym2612"
    },
    {
      "channel": 3,
      "note": 71,
      "start": 1.8375,
      "duration": 0.0841,
      "velocity": 86,
      "chip": "ym2612"
    },
    {
      "channel": 4,
      "note": 71,
      "start": 1.9021,
      "duration": 0.0916,
      "velocity": 97,
      "chip": "ym2612"
    },
    {
      "channel": 0,
      "note": 68,
      "start": 1.9203,
      "duration": 0.409,
      "velocity": 97,
      "chip": "ym2612"
    },
    {
      "channel": 1,
      "note": 59,
      "start": 1.921,
      "duration": 0.1114,
      "velocity": 91,
      "chip": "ym2612"
    },
    {
      "channel": 2,
      "note": 75,
      "start": 1.9215,
      "duration": 0.1115,
      "velocity": 86,
      "chip": "ym2612"
    },
    {
      "channel": 3,
      "note": 71,
      "start": 1.922,
      "duration": 0.1115,
      "velocity": 86,
      "chip": "ym2612"
    },
    {
      "channel": 4,
      "note": 68,
      "start": 1.9942,
      "duration": 0.4018,
      "velocity": 97,
      "chip": "ym2612"
    },
    {
      "channel": 1,
      "note": 64,
      "start": 2.0329,
      "duration": 0.1047,
      "velocity": 91,
      "chip": "ym2612"
    },
    {
      "channel": 2,
      "note": 75,
      "start": 2.0334,
      "duration": 0.1049,
      "velocity": 86,
      "chip": "ym2612"
    },
    {
      "channel": 3,
      "note": 71,
      "start": 2.0339,
      "duration": 0.1048,
      "velocity": 86,
      "chip": "ym2612"
    },
    {
      "channel": 1,
      "note": 64,
      "start": 2.1381,
      "duration": 0.1916,
      "velocity": 91,
      "chip": "ym2612"
    },
    {
      "channel": 2,
      "note": 75,
      "start": 2.1386,
      "duration": 0.1055,
      "velocity": 86,
      "chip": "ym2612"
    },
    {
      "channel": 3,
      "note": 71,
      "start": 2.1391,
      "duration": 0.1054,
      "velocity": 86,
      "chip": "ym2612"
    },
    {
      "channel": 2,
      "note": 75,
      "start": 2.2444,
      "duration": 0.086,
      "velocity": 86,
      "chip": "ym2612"
    },
    {
      "channel": 3,
      "note": 71,
      "start": 2.2449,
      "duration": 0.086,
      "velocity": 86,
      "chip": "ym2612"
    },
    {
      "channel": 1,
      "note": 52,
      "start": 2.3302,
      "duration": 0.0992,
      "velocity": 91,
      "chip": "ym2612"
    },
    {
      "channel": 2,
      "note": 75,
      "start": 2.3307,
      "duration": 0.0994,
      "velocity": 86,
      "chip": "ym2612"
    },
    {
      "channel": 3,
      "note": 71,
      "start": 2.3312,
      "duration": 0.0995,
      "velocity": 86,
      "chip": "ym2612"
    },
    {
      "channel": 0,
      "note": 76,
      "start": 2.4293,
      "duration": 0.1015,
      "velocity": 97,
      "chip": "ym2612"
    },
    {
      "channel": 1,
      "note": 51,
      "start": 2.4299,
      "duration": 0.3038,
      "velocity": 91,
      "chip": "ym2612"
    },
    {
      "channel": 2,
      "note": 73,
      "start": 2.4306,
      "duration": 0.101,
      "velocity": 86,
      "chip": "ym2612"
    },
    {
      "channel": 3,
      "note": 70,
      "start": 2.4312,
      "duration": 0.1011,
      "velocity": 86,
      "chip": "ym2612"
    },
    {
      "channel": 4,
      "note": 76,
      "start": 2.4961,
      "duration": 0.1225,
      "velocity": 97,
      "chip": "ym2612"
    },
    {
      "channel": 0,
      "note": 75,
      "start": 2.5312,
      "duration": 0.116,
      "velocity": 97,
      "chip": "ym2612"
    },
    {
      "channel": 2,
      "note": 73,
      "start": 2.5322,
      "duration": 0.1161,
      "velocity": 86,
      "chip": "ym2612"
    },
    {
      "channel": 3,
      "note": 70,
      "start": 2.5327,
      "duration": 0.1162,
      "velocity": 86,
      "chip": "ym2612"
    },
    {
      "channel": 4,
      "note": 75,
      "start": 2.6192,
      "duration": 0.0942,
      "velocity": 97,
      "chip": "ym2612"
    },
    {
      "channel": 0,
      "note": 70,
      "start": 2.6478,
      "duration": 0.0853,
      "velocity": 97,
      "chip": "ym2612"
    },
    {
      "channel": 2,
      "note": 73,
      "start": 2.6488,
      "duration": 0.0856,
      "velocity": 86,
      "chip": "ym2612"
    },
    {
      "channel": 3,
      "note": 70,
      "start": 2.6493,
      "duration": 0.0858,
      "velocity": 86,
      "chip": "ym2612"
    },
    {
      "channel": 4,
      "note": 70,
      "start": 2.7139,
      "duration": 0.0939,
      "velocity": 97,
      "chip": "ym2612"
    },
    {
      "channel": 0,
      "note": 66,
      "start": 2.7336,
      "duration": 0.396,
      "velocity": 97,
      "chip": "ym2612"
    },
    {
      "channel": 1,
      "note": 58,
      "start": 2.7343,
      "duration": 0.1054,
      "velocity": 91,
      "chip": "ym2612"
    },
    {
      "channel": 2,
      "note": 73,
      "start": 2.7349,
      "duration": 0.1054,
      "velocity": 86,
      "chip": "ym2612"
    },
    {
      "channel": 3,
      "note": 70,
      "start": 2.7354,
      "duration": 0.1056,
      "velocity": 86,
      "chip": "ym2612"
    },
    {
      "channel": 4,
      "note": 66,
      "start": 2.8083,
      "duration": 0.3811,
      "velocity": 97,
      "chip": "ym2612"
    },
    {
      "channel": 1,
      "note": 63,
      "start": 2.8402,
      "duration": 0.0976,
      "velocity": 91,
      "chip": "ym2612"
    },
    {
      "channel": 2,
      "note": 73,
      "start": 2.8408,
      "duration": 0.0976,
      "velocity": 86,
      "chip": "ym2612"
    },
    {
      "channel": 3,
      "note": 70,
      "start": 2.8413,
      "duration": 0.0978,
      "velocity": 86,
      "chip": "ym2612"
    },
    {
      "channel": 1,
      "note": 63,
      "start": 2.9383,
      "duration": 0.1916,
      "velocity": 91,
      "chip": "ym2612"
    },
    {
      "channel": 2,
      "note": 73,
      "start": 2.939,
      "duration": 0.1052,
      "velocity": 86,
      "chip": "ym2612"
    },
    {
      "channel": 3,
      "note": 70,
      "start": 2.9395,
      "duration": 0.1054,
      "velocity": 86,
      "chip": "ym2612"
    },
    {
      "channel": 2,
      "note": 73,
      "start": 3.0447,
      "duration": 0.0858,
      "velocity": 86,
      "chip": "ym2612"
    },
    {
      "channel": 3,
      "note": 70,
      "start": 3.0452,
      "duration": 0.086,
      "velocity": 86,
      "chip": "ym2612"
    },
    {
      "channel": 1,
      "note": 51,
      "start": 3.1304,
      "duration": 0.0794,
      "velocity": 91,
      "chip": "ym2612"
    },
    {
      "channel": 2,
      "note": 73,
      "start": 3.1311,
      "duration": 0.0795,
      "velocity": 86,
      "chip": "ym2612"
    },
    {
      "channel": 3,
      "note": 70,
      "start": 3.1316,
      "duration": 0.0797,
      "velocity": 86,
      "chip": "ym2612"
    },
    {
      "channel": 0,
      "note": 64,
      "start": 3.2097,
      "duration": 0.1028,
      "velocity": 97,
      "chip": "ym2612"
    },
    {
      "channel": 1,
      "note": 49,
      "start": 3.2103,
      "duration": 0.3032,
      "velocity": 91,
      "chip": "ym2612"
    },
    {
      "channel": 2,
      "note": 75,
      "start": 3.211,
      "duration": 0.1023,
      "velocity": 86,
      "chip": "ym2612"
    },
    {
      "channel": 3,
      "note": 71,
      "start": 3.2118,
      "duration": 0.1021,
      "velocity": 86,
      "chip": "ym2612"
    },
    {
      "channel": 4,
      "note": 64,
      "start": 3.2767,
      "duration": 0.1186,
      "velocity": 97,
      "chip": "ym2612"
    },
    {
      "channel": 0,
      "note": 66,
      "start": 3.3129,
      "duration": 0.1158,
      "velocity": 97,
      "chip": "ym2612"
    },
    {
      "channel": 2,
      "note": 75,
      "start": 3.3137,
      "duration": 0.116,
      "velocity": 86,
      "chip": "ym2612"
    },
    {
      "channel": 3,
      "note": 71,
      "start": 3.3142,
      "duration": 0.1159,
      "velocity": 86,
      "chip": "ym2612"
    },
    {
      "channel": 4,
      "note": 66,
      "start": 3.3959,
      "duration": 0.0988,
      "velocity": 97,
      "chip": "ym2612"
    },
    {
      "channel": 0,
      "note": 68,
      "start": 3.4293,
      "duration": 0.0836,
      "velocity": 97,
      "chip": "ym2612"
    },
    {
      "channel": 2,
      "note": 75,
      "start": 3.43,
      "duration": 0.0841,
      "velocity": 86,
      "chip": "ym2612"
    },
    {
      "channel": 3,
      "note": 71,
      "start": 3.4305,
      "duration": 0.0841,
      "velocity": 86,
      "chip": "ym2612"
    },
    {
      "channel": 4,
      "note": 68,
      "start": 3.4952,
      "duration": 0.0915,
      "velocity": 97,
      "chip": "ym2612"
    },
    {
      "channel": 0,
      "note": 68,
      "start": 3.5134,
      "duration": 0.3138,
      "velocity": 97,
      "chip": "ym2612"
    },
    {
      "channel": 1,
      "note": 56,
      "start": 3.514,
      "duration": 0.21,
      "velocity": 91,
      "chip": "ym2612"
    },
    {
      "channel": 2,
      "note": 75,
      "start": 3.5145,
      "duration": 0.1052,
      "velocity": 86,
      "chip": "ym2612"
    },
    {
      "channel": 3,
      "note": 71,
      "start": 3.515,
      "duration": 0.1051,
      "velocity": 86,
      "chip": "ym2612"
    },
    {
      "channel": 4,
      "note": 68,
      "start": 3.5872,
      "duration": 0.3074,
      "velocity": 97,
      "chip": "ym2612"
    },
    {
      "channel": 2,
      "note": 75,
      "start": 3.6201,
      "duration": 0.1046,
      "velocity": 86,
      "chip": "ym2612"
    },
    {
      "channel": 3,
      "note": 71,
      "start": 3.6206,
      "duration": 0.1046,
      "velocity": 86,
      "chip": "ym2612"
    },
    {
      "channel": 1,
      "note": 61,
      "start": 3.7246,
      "duration": 0.1889,
      "velocity": 91,
      "chip": "ym2612"
    },
    {
      "channel": 2,
      "note": 75,
      "start": 3.7251,
      "duration": 0.1031,
      "velocity": 86,
      "chip": "ym2612"
    },
    {
      "channel": 3,
      "note": 71,
      "start": 3.7256,
      "duration": 0.1031,
      "velocity": 86,
      "chip": "ym2612"
    },
    {
      "channel": 0,
      "note": 71,
      "start": 3.8277,
      "duration": 0.1946,
      "velocity": 97,
      "chip": "ym2612"
    },
    {
      "channel": 2,
      "note": 75,
      "start": 3.8285,
      "duration": 0.0857,
      "velocity": 86,
      "chip": "ym2612"
    },
    {
      "channel": 3,
      "note": 71,
      "start": 3.829,
      "duration": 0.0857,
      "velocity": 86,
      "chip": "ym2612"
    },
    {
      "channel": 4,
      "note": 71,
      "start": 3.895,
      "duration": 0.1969,
      "velocity": 97,
      "chip": "ym2612"
    },
    {
      "channel": 1,
      "note": 49,
      "start": 3.914,
      "duration": 0.1089,
      "velocity": 91,
      "chip": "ym2612"
    },
    {
      "channel": 2,
      "note": 75,
      "start": 3.9145,
      "duration": 0.109,
      "velocity": 86,
      "chip": "ym2612"
    },
    {
      "channel": 3,
      "note": 71,
      "start": 3.915,
      "duration": 0.1092,
      "velocity": 86,
      "chip": "ym2612"
    },
    {
      "channel": 0,
      "note": 73,
      "start": 4.0228,
      "duration": 0.3092,
      "velocity": 97,
      "chip": "ym2612"
    },
    {
      "channel": 1,
      "note": 51,
      "start": 4.0234,
      "duration": 0.3092,
      "velocity": 91,
      "chip": "ym2612"
    },
    {
      "channel": 2,
      "note": 73,
      "start": 4.0241,
      "duration": 0.1048,
      "velocity": 86,
      "chip": "ym2612"
    },
    {
      "channel": 3,
      "note": 70,
      "start": 4.0248,
      "duration": 0.1048,
      "velocity": 86,
      "chip": "ym2612"
    },
    {
      "channel": 4,
      "note": 73,
      "start": 4.0924,
      "duration": 0.3093,
      "velocity": 97,
      "chip": "ym2612"
    },
    {
      "channel": 2,
      "note": 73,
      "start": 4.1294,
      "duration": 0.1191,
      "velocity": 86,
      "chip": "ym2612"
    },
    {
      "channel": 3,
      "note": 70,
      "start": 4.1299,
      "duration": 0.1193,
      "velocity": 86,
      "chip": "ym2612"
    },
    {
      "channel": 2,
      "note": 73,
      "start": 4.249,
      "duration": 0.0843,
      "velocity": 86,
      "chip": "ym2612"
    },
    {
      "channel": 3,
      "note": 70,
      "start": 4.2495,
      "duration": 0.0844,
      "velocity": 86,
      "chip": "ym2612"
    },
    {
      "channel": 0,
      "note": 70,
      "start": 4.3325,
      "duration": 0.2107,
      "velocity": 97,
      "chip": "ym2612"
    },
    {
      "channel": 1,
      "note": 58,
      "start": 4.3332,
      "duration": 0.2107,
      "velocity": 91,
      "chip": "ym2612"
    },
    {
      "channel": 2,
      "note": 73,
      "start": 4.3339,
      "duration": 0.1008,
      "velocity": 86,
      "chip": "ym2612"
    },
    {
      "channel": 3,
      "note": 70,
      "start": 4.3344,
      "duration": 0.101,
      "velocity": 86,
      "chip": "ym2612"
    },
    {
      "channel": 4,
      "note": 70,
      "start": 4.4023,
      "duration": 0.2148,
      "velocity": 97,
      "chip": "ym2612"
    },
    {
      "channel": 2,
      "note": 73,
      "start": 4.4352,
      "duration": 0.1094,
      "velocity": 86,
      "chip": "ym2612"
    },
    {
      "channel": 3,
      "note": 70,
      "start": 4.4357,
      "duration": 0.1095,
      "velocity": 86,
      "chip": "ym2612"
    },
    {
      "channel": 0,
      "note": 71,
      "start": 4.5438,
      "duration": 0.1057,
      "velocity": 97,
      "chip": "ym2612"
    },
    {
      "channel": 1,
      "note": 63,
      "start": 4.5444,
      "duration": 0.1057,
      "velocity": 91,
      "chip": "ym2612"
    },
    {
      "channel": 2,
      "note": 73,
      "start": 4.5451,
      "duration": 0.1056,
      "velocity": 86,
      "chip": "ym2612"
    },
    {
      "channel": 3,
      "note": 70,
      "start": 4.5456,
      "duration": 0.1058,
      "velocity": 86,
      "chip": "ym2612"
    },
    {
      "channel": 4,
      "note": 71,
      "start": 4.6176,
      "duration": 0.0996,
      "velocity": 97,
      "chip": "ym2612"
    },
    {
      "channel": 0,
      "note": 70,
      "start": 4.65,
      "duration": 0.0854,
      "velocity": 97,
      "chip": "ym2612"
    },
    {
      "channel": 1,
      "note": 58,
      "start": 4.6507,
      "duration": 0.0854,
      "velocity": 91,
      "chip": "ym2612"
    },
    {
      "channel": 2,
      "note": 73,
      "start": 4.6513,
      "duration": 0.0854,
      "velocity": 86,
      "chip": "ym2612"
    },
    {
      "channel": 3,
      "note": 70,
      "start": 4.6518,
      "duration": 0.0856,
      "velocity": 86,
      "chip": "ym2612"
    },
    {
      "channel": 4,
      "note": 70,
      "start": 4.7177,
      "duration": 0.0925,
      "velocity": 97,
      "chip": "ym2612"
    },
    {
      "channel": 0,
      "note": 66,
      "start": 4.736,
      "duration": 0.1059,
      "velocity": 97,
      "chip": "ym2612"
    },
    {
      "channel": 1,
      "note": 51,
      "start": 4.7366,
      "duration": 0.1059,
      "velocity": 91,
      "chip": "ym2612"
    },
    {
      "channel": 2,
      "note": 73,
      "start": 4.7373,
      "duration": 0.106,
      "velocity": 86,
      "chip": "ym2612"
    },
    {
      "channel": 3,
      "note": 70,
      "start": 4.7378,
      "duration": 0.1062,
      "velocity": 86,
      "chip": "ym2612"
    },
    {
      "channel": 4,
      "note": 66,
      "start": 4.8107,
      "duration": 0.1066,
      "velocity": 97,
      "chip": "ym2612"
    },
    {
      "channel": 0,
      "note": 64,
      "start": 4.8424,
      "duration": 0.1071,
      "velocity": 97,
      "chip": "ym2612"
    },
    {
      "channel": 1,
      "note": 49,
      "start": 4.843,
      "duration": 0.3196,
      "velocity": 91,
      "chip": "ym2612"
    },
    {
      "channel": 2,
      "note": 75,
      "start": 4.8438,
      "duration": 0.1066,
      "velocity": 86,
      "chip": "ym2612"
    },
    {
      "channel": 3,
      "note": 71,
      "start": 4.8445,
      "duration": 0.1064,
      "velocity": 86,
      "chip": "ym2612"
    },
    {
      "channel": 4,
      "note": 64,
      "start": 4.9178,
      "duration": 0.119,
      "velocity": 97,
      "chip": "ym2612"
    },
    {
      "channel": 0,
      "note": 66,
      "start": 4.9499,
      "duration": 0.1262,
      "velocity": 97,
      "chip": "ym2612"
    },
    {
      "channel": 2,
      "note": 75,
      "start": 4.9507,
      "duration": 0.1264,
      "velocity": 86,
      "chip": "ym2612"
    },
    {
      "channel": 3,
      "note": 71,
      "start": 4.9512,
      "duration": 0.1263,
      "velocity": 86,
      "chip": "ym2612"
    },
    {
      "channel": 4,
      "note": 66,
      "start": 5.0373,
      "duration": 0.101,
      "velocity": 97,
      "chip": "ym2612"
    },
    {
      "channel": 0,
      "note": 68,
      "start": 5.0767,
      "duration": 0.0853,
      "velocity": 97,
      "chip": "ym2612"
    },
    {
      "channel": 2,
      "note": 75,
      "start": 5.0774,
      "duration": 0.0858,
      "velocity": 86,
      "chip": "ym2612"
    },
    {
      "channel": 3,
      "note": 71,
      "start": 5.0779,
      "duration": 0.0858,
      "velocity": 86,
      "chip": "ym2612"
    },
    {
      "channel": 4,
      "note": 68,
      "start": 5.1388,
      "duration": 0.0953,
      "velocity": 97,
      "chip": "ym2612"
    },
    {
      "channel": 0,
      "note": 68,
      "start": 5.1625,
      "duration": 0.3091,
      "velocity": 97,
      "chip": "ym2612"
    },
    {
      "channel": 1,
      "note": 56,
      "start": 5.1631,
      "duration": 0.2054,
      "velocity": 91,
      "chip": "ym2612"
    },
    {
      "channel": 2,
      "note": 75,
      "start": 5.1636,
      "duration": 0.1034,
      "velocity": 86,
      "chip": "ym2612"
    },
    {
      "channel": 3,
      "note": 71,
      "start": 5.1641,
      "duration": 0.1033,
      "velocity": 86,
      "chip": "ym2612"
    },
    {
      "channel": 4,
      "note": 68,
      "start": 5.2346,
      "duration": 0.3043,
      "velocity": 97,
      "chip": "ym2612"
    },
    {
      "channel": 2,
      "note": 75,
      "start": 5.2674,
      "duration": 0.1018,
      "velocity": 86,
      "chip": "ym2612"
    },
    {
      "channel": 3,
      "note": 71,
      "start": 5.2679,
      "duration": 0.1018,
      "velocity": 86,
      "chip": "ym2612"
    },
    {
      "channel": 1,
      "note": 61,
      "start": 5.3691,
      "duration": 0.1888,
      "velocity": 91,
      "chip": "ym2612"
    },
    {
      "channel": 2,
      "note": 75,
      "start": 5.3696,
      "duration": 0.103,
      "velocity": 86,
      "chip": "ym2612"
    },
    {
      "channel": 3,
      "note": 71,
      "start": 5.3701,
      "duration": 0.103,
      "velocity": 86,
      "chip": "ym2612"
    },
    {
      "channel": 0,
      "note": 75,
      "start": 5.4721,
      "duration": 0.1903,
      "velocity": 97,
      "chip": "ym2612"
    },
    {
      "channel": 2,
      "note": 75,
      "start": 5.4729,
      "duration": 0.0857,
      "velocity": 86,
      "chip": "ym2612"
    },
    {
      "channel": 3,
      "note": 71,
      "start": 5.4734,
      "duration": 0.0857,
      "velocity": 86,
      "chip": "ym2612"
    },
    {
      "channel": 4,
      "note": 75,
      "start": 5.5394,
      "duration": 0.1984,
      "velocity": 97,
      "chip": "ym2612"
    },
    {
      "channel": 1,
      "note": 49,
      "start": 5.5584,
      "duration": 0.1047,
      "velocity": 91,
      "chip": "ym2612"
    },
    {
      "channel": 2,
      "note": 75,
      "start": 5.5589,
      "duration": 0.1048,
      "velocity": 86,
      "chip": "ym2612"
    },
    {
      "channel": 3,
      "note": 71,
      "start": 5.5595,
      "duration": 0.1049,
      "velocity": 86,
      "chip": "ym2612"
    },
    {
      "channel": 0,
      "note": 73,
      "start": 5.663,
      "duration": 0.2982,
      "velocity": 97,
      "chip": "ym2612"
    },
    {
      "channel": 1,
      "note": 51,
      "start": 5.6636,
      "duration": 0.2982,
      "velocity": 91,
      "chip": "ym2612"
    },
    {
      "channel": 2,
      "note": 73,
      "start": 5.6643,
      "duration": 0.1023,
      "velocity": 86,
      "chip": "ym2612"
    },
    {
      "channel": 3,
      "note": 70,
      "start": 5.6649,
      "duration": 0.1024,
      "velocity": 86,
      "chip": "ym2612"
    },
    {
      "channel": 4,
      "note": 73,
      "start": 5.7383,
      "duration": 0.2983,
      "velocity": 97,
      "chip": "ym2612"
    },
    {
      "channel": 2,
      "note": 73,
      "start": 5.7671,
      "duration": 0.1105,
      "velocity": 86,
      "chip": "ym2612"
    },
    {
      "channel": 3,
      "note": 70,
      "start": 5.7676,
      "duration": 0.1107,
      "velocity": 86,
      "chip": "ym2612"
    },
    {
      "channel": 2,
      "note": 73,
      "start": 5.8782,
      "duration": 0.0843,
      "velocity": 86,
      "chip": "ym2612"
    },
    {
      "channel": 3,
      "note": 70,
      "start": 5.8787,
      "duration": 0.0844,
      "velocity": 86,
      "chip": "ym2612"
    },
    {
      "channel": 0,
      "note": 70,
      "start": 5.9617,
      "duration": 0.2143,
      "velocity": 97,
      "chip": "ym2612"
    },
    {
      "channel": 1,
      "note": 58,
      "start": 5.9623,
      "duration": 0.2143,
      "velocity": 91,
      "chip": "ym2612"
    },
    {
      "channel": 2,
      "note": 73,
      "start": 5.963,
      "duration": 0.1082,
      "velocity": 86,
      "chip": "ym2612"
    },
    {
      "channel": 3,
      "note": 70,
      "start": 5.9635,
      "duration": 0.1083,
      "velocity": 86,
      "chip": "ym2612"
    },
    {
      "channel": 4,
      "note": 70,
      "start": 6.0371,
      "duration": 0.2096,
      "velocity": 97,
      "chip": "ym2612"
    },
    {
      "channel": 2,
      "note": 73,
      "start": 6.0717,
      "duration": 0.1056,
      "velocity": 86,
      "chip": "ym2612"
    },
    {
      "channel": 3,
      "note": 70,
      "start": 6.0722,
      "duration": 0.1057,
      "velocity": 86,
      "chip": "ym2612"
    },
    {
      "channel": 0,
      "note": 71,
      "start": 6.1765,
      "duration": 0.1025,
      "velocity": 97,
      "chip": "ym2612"
    },
    {
      "channel": 1,
      "note": 63,
      "start": 6.1771,
      "duration": 0.1025,
      "velocity": 91,
      "chip": "ym2612"
    },
    {
      "channel": 2,
      "note": 73,
      "start": 6.1778,
      "duration": 0.1025,
      "velocity": 86,
      "chip": "ym2612"
    },
    {
      "channel": 3,
      "note": 70,
      "start": 6.1783,
      "duration": 0.1027,
      "velocity": 86,
      "chip": "ym2612"
    },
    {
      "channel": 4,
      "note": 71,
      "start": 6.2472,
      "duration": 0.0958,
      "velocity": 97,
      "chip": "ym2612"
    },
    {
      "channel": 0,
      "note": 73,
      "start": 6.2795,
      "duration": 0.0855,
      "velocity": 97,
      "chip": "ym2612"
    },
    {
      "channel": 1,
      "note": 58,
      "start": 6.2802,
      "duration": 0.0855,
      "velocity": 91,
      "chip": "ym2612"
    },
    {
      "channel": 2,
      "note": 73,
      "start": 6.2808,
      "duration": 0.0855,
      "velocity": 86,
      "chip": "ym2612"
    },
    {
      "channel": 3,
      "note": 70,
      "start": 6.2813,
      "duration": 0.0857,
      "velocity": 86,
      "chip": "ym2612"
    },
    {
      "channel": 4,
      "note": 73,
      "start": 6.3435,
      "duration": 0.0847,
      "velocity": 97,
      "chip": "ym2612"
    },
    {
      "channel": 0,
      "note": 78,
      "start": 6.3655,
      "duration": 0.0849,
      "velocity": 97,
      "chip": "ym2612"
    },
    {
      "channel": 1,
      "note": 51,
      "start": 6.3662,
      "duration": 0.0849,
      "velocity": 91,
      "chip": "ym2612"
    },
    {
      "channel": 2,
      "note": 73,
      "start": 6.3668,
      "duration": 0.085,
      "velocity": 86,
      "chip": "ym2612"
    },
    {
      "channel": 3,
      "note": 70,
      "start": 6.3673,
      "duration": 0.0852,
      "velocity": 86,
      "chip": "ym2612"
    },
    {
      "channel": 4,
      "note": 78,
      "start": 6.4288,
      "duration": 0.097,
      "velocity": 97,
      "chip": "ym2612"
    },
    {
      "channel": 0,
      "note": 76,
      "start": 6.4509,
      "duration": 0.106,
      "velocity": 97,
      "chip": "ym2612"
    },
    {
      "channel": 1,
      "note": 52,
      "start": 6.4516,
      "duration": 17.8486,
      "velocity": 91,
      "chip": "ym2612"
    },
    {
      "channel": 2,
      "note": 75,
      "start": 6.4523,
      "duration": 0.1055,
      "velocity": 86,
      "chip": "ym2612"
    },
    {
      "channel": 3,
      "note": 71,
      "start": 6.453,
      "duration": 0.1053,
      "velocity": 86,
      "chip": "ym2612"
    },
    {
      "channel": 4,
      "note": 76,
      "start": 6.5263,
      "duration": 0.1189,
      "velocity": 97,
      "chip": "ym2612"
    },
    {
      "channel": 0,
      "note": 75,
      "start": 6.5574,
      "duration": 17.7428,
      "velocity": 97,
      "chip": "ym2612"
    },
    {
      "channel": 2,
      "note": 75,
      "start": 6.5582,
      "duration": 17.742,
      "velocity": 86,
      "chip": "ym2612"
    },
    {
      "channel": 3,
      "note": 71,
      "start": 6.5587,
      "duration": 17.7415,
      "velocity": 86,
      "chip": "ym2612"
    },
    {
      "channel": 4,
      "note": 75,
      "start": 6.6457,
      "duration": 17.6544,
      "velocity": 97,
      "chip": "ym2612"
    }
  ]
}