{
  "track_name": "03 - Password Entry",
  "duration_sec": 46.243,
  "sample_rate": 44100,
  "note_count": 747,
  "unique_pitches": 21,
  "pitch_range": 95,
  "avg_note_duration": 0.28,
  "reconstruction_stats": {
    "notes_reconstructed": 747,
    "keyon_events": 747,
    "keyoff_events": 742,
    "orphan_keyons": 5,
    "unique_pitches": 21,
    "pitch_range": 95,
    "avg_duration_sec": 0.28
  },
  "metadata": {
    "source": "D\\Dr. Robotnik's Mean Bean Machine\\03 - Password Entry.vgz"
  },
  "notes": [
    {
      "channel": 0,
      "note": 81,
      "start": 0.0,
      "duration": 1.1724,
      "velocity": 107,
      "chip": "ym2612"
    },
    {
      "channel": 1,
      "note": 78,
      "start": 0.0039,
      "duration": 1.1687,
      "velocity": 107,
      "chip": "ym2612"
    },
    {
      "channel": 2,
      "note": 54,
      "start": 0.0083,
      "duration": 0.1094,
      "velocity": 94,
      "chip": "ym2612"
    },
    {
      "channel": 4,
      "note": 0,
      "start": 0.0222,
      "duration": 1.1727,
      "velocity": 107,
      "chip": "ym2612"
    },
    {
      "channel": 2,
      "note": 66,
      "start": 0.1347,
      "duration": 0.0504,
      "velocity": 94,
      "chip": "ym2612"
    },
    {
      "channel": 3,
      "note": 0,
      "start": 0.208,
      "duration": 1.172,
      "velocity": 107,
      "chip": "ym2612"
    },
    {
      "channel": 2,
      "note": 66,
      "start": 0.2528,
      "duration": 0.0504,
      "velocity": 94,
      "chip": "ym2612"
    },
    {
      "channel": 2,
      "note": 54,
      "start": 0.3707,
      "duration": 0.0429,
      "velocity": 94,
      "chip": "ym2612"
    },
    {
      "channel": 2,
      "note": 66,
      "start": 0.4172,
      "duration": 0.01,
      "velocity": 94,
      "chip": "ym2612"
    },
    {
      "channel": 2,
      "note": 66,
      "start": 0.4742,
      "duration": 0.0503,
      "velocity": 94,
      "chip": "ym2612"
    },
    {
      "channel": 2,
      "note": 54,
      "start": 0.5921,
      "duration": 0.1224,
      "velocity": 94,
      "chip": "ym2612"
    },
    {
      "channel": 2,
      "note": 66,
      "start": 0.7315,
      "duration": 0.0504,
      "velocity": 94,
      "chip": "ym2612"
    },
    {
      "channel": 2,
      "note": 66,
      "start": 0.8495,
      "duration": 0.0503,
      "velocity": 94,
      "chip": "ym2612"
    },
    {
      "channel": 2,
      "note": 54,
      "start": 0.9674,
      "duration": 0.0454,
      "velocity": 94,
      "chip": "ym2612"
    },
    {
      "channel": 2,
      "note": 66,
      "start": 1.0164,
      "duration": 0.0101,
      "velocity": 94,
      "chip": "ym2612"
    },
    {
      "channel": 2,
      "note": 66,
      "start": 1.0719,
      "duration": 0.0504,
      "velocity": 94,
      "chip": "ym2612"
    },
    {
      "channel": 0,
      "note": 83,
      "start": 1.1894,
      "duration": 1.1765,
      "velocity": 107,
      "chip": "ym2612"
    },
    {
      "channel": 1,
      "note": 80,
      "start": 1.1899,
      "duration": 1.1763,
      "velocity": 107,
      "chip": "ym2612"
    },
    {
      "channel": 2,
      "note": 54,
      "start": 1.1904,
      "duration": 0.1218,
      "velocity": 94,
      "chip": "ym2612"
    },
    {
      "channel": 4,
      "note": 78,
      "start": 1.1985,
      "duration": 1.19,
      "velocity": 107,
      "chip": "ym2612"
    },
    {
      "channel": 2,
      "note": 66,
      "start": 1.3293,
      "duration": 0.0504,
      "velocity": 94,
      "chip": "ym2612"
    },
    {
      "channel": 3,
      "note": 81,
      "start": 1.3971,
      "duration": 1.1761,
      "velocity": 107,
      "chip": "ym2612"
    },
    {
      "channel": 2,
      "note": 66,
      "start": 1.4473,
      "duration": 0.0504,
      "velocity": 94,
      "chip": "ym2612"
    },
    {
      "channel": 2,
      "note": 54,
      "start": 1.5653,
      "duration": 0.0428,
      "velocity": 94,
      "chip": "ym2612"
    },
    {
      "channel": 2,
      "note": 66,
      "start": 1.6116,
      "duration": 0.01,
      "velocity": 94,
      "chip": "ym2612"
    },
    {
      "channel": 2,
      "note": 66,
      "start": 1.6685,
      "duration": 0.0503,
      "velocity": 94,
      "chip": "ym2612"
    },
    {
      "channel": 2,
      "note": 54,
      "start": 1.7863,
      "duration": 0.1239,
      "velocity": 94,
      "chip": "ym2612"
    },
    {
      "channel": 2,
      "note": 66,
      "start": 1.9272,
      "duration": 0.0502,
      "velocity": 94,
      "chip": "ym2612"
    },
    {
      "channel": 2,
      "note": 66,
      "start": 2.0442,
      "duration": 0.0501,
      "velocity": 94,
      "chip": "ym2612"
    },
    {
      "channel": 2,
      "note": 54,
      "start": 2.1619,
      "duration": 0.0432,
      "velocity": 94,
      "chip": "ym2612"
    },
    {
      "channel": 2,
      "note": 66,
      "start": 2.2087,
      "duration": 0.0102,
      "velocity": 94,
      "chip": "ym2612"
    },
    {
      "channel": 2,
      "note": 66,
      "start": 2.2654,
      "duration": 0.0504,
      "velocity": 94,
      "chip": "ym2612"
    },
    {
      "channel": 0,
      "note": 85,
      "start": 2.3829,
      "duration": 1.0161,
      "velocity": 107,
      "chip": "ym2612"
    },
    {
      "channel": 1,
      "note": 81,
      "start": 2.3834,
      "duration": 1.0158,
      "velocity": 107,
      "chip": "ym2612"
    },
    {
      "channel": 2,
      "note": 50,
      "start": 2.3839,
      "duration": 0.1216,
      "velocity": 94,
      "chip": "ym2612"
    },
    {
      "channel": 4,
      "note": 80,
      "start": 2.392,
      "duration": 1.0156,
      "velocity": 107,
      "chip": "ym2612"
    },
    {
      "channel": 2,
      "note": 62,
      "start": 2.5226,
      "duration": 0.0504,
      "velocity": 94,
      "chip": "ym2612"
    },
    {
      "channel": 3,
      "note": 83,
      "start": 2.5904,
      "duration": 0.9985,
      "velocity": 107,
      "chip": "ym2612"
    },
    {
      "channel": 2,
      "note": 62,
      "start": 2.6406,
      "duration": 0.0503,
      "velocity": 94,
      "chip": "ym2612"
    },
    {
      "channel": 2,
      "note": 50,
      "start": 2.7586,
      "duration": 0.0433,
      "velocity": 94,
      "chip": "ym2612"
    },
    {
      "channel": 2,
      "note": 62,
      "start": 2.8056,
      "duration": 0.0104,
      "velocity": 94,
      "chip": "ym2612"
    },
    {
      "channel": 2,
      "note": 62,
      "start": 2.8644,
      "duration": 0.0498,
      "velocity": 94,
      "chip": "ym2612"
    },
    {
      "channel": 2,
      "note": 50,
      "start": 2.9812,
      "duration": 0.1224,
      "velocity": 94,
      "chip": "ym2612"
    },
    {
      "channel": 2,
      "note": 62,
      "start": 3.1205,
      "duration": 0.0503,
      "velocity": 94,
      "chip": "ym2612"
    },
    {
      "channel": 2,
      "note": 62,
      "start": 3.2385,
      "duration": 0.0504,
      "velocity": 94,
      "chip": "ym2612"
    },
    {
      "channel": 2,
      "note": 50,
      "start": 3.3565,
      "duration": 0.043,
      "velocity": 94,
      "chip": "ym2612"
    },
    {
      "channel": 0,
      "note": 83,
      "start": 3.4026,
      "duration": 0.0393,
      "velocity": 107,
      "chip": "ym2612"
    },
    {
      "channel": 1,
      "note": 80,
      "start": 3.4031,
      "duration": 0.0391,
      "velocity": 107,
      "chip": "ym2612"
    },
    {
      "channel": 2,
      "note": 62,
      "start": 3.4036,
      "duration": 0.0101,
      "velocity": 94,
      "chip": "ym2612"
    },
    {
      "channel": 4,
      "note": 81,
      "start": 3.4111,
      "duration": 0.0655,
      "velocity": 107,
      "chip": "ym2612"
    },
    {
      "channel": 0,
      "note": 85,
      "start": 3.4589,
      "duration": 0.101,
      "velocity": 107,
      "chip": "ym2612"
    },
    {
      "channel": 1,
      "note": 81,
      "start": 3.4595,
      "duration": 0.1007,
      "velocity": 107,
      "chip": "ym2612"
    },
    {
      "channel": 2,
      "note": 62,
      "start": 3.46,
      "duration": 0.0498,
      "velocity": 94,
      "chip": "ym2612"
    },
    {
      "channel": 4,
      "note": 80,
      "start": 3.4938,
      "duration": 0.0887,
      "velocity": 107,
      "chip": "ym2612"
    },
    {
      "channel": 0,
      "note": 83,
      "start": 3.5769,
      "duration": 1.0651,
      "velocity": 107,
      "chip": "ym2612"
    },
    {
      "channel": 1,
      "note": 80,
      "start": 3.5775,
      "duration": 1.065,
      "velocity": 107,
      "chip": "ym2612"
    },
    {
      "channel": 2,
      "note": 52,
      "start": 3.578,
      "duration": 0.1216,
      "velocity": 94,
      "chip": "ym2612"
    },
    {
      "channel": 4,
      "note": 81,
      "start": 3.586,
      "duration": 1.0681,
      "velocity": 107,
      "chip": "ym2612"
    },
    {
      "channel": 3,
      "note": 85,
      "start": 3.5924,
      "duration": 0.0568,
      "velocity": 107,
      "chip": "ym2612"
    },
    {
      "channel": 3,
      "note": 83,
      "start": 3.6664,
      "duration": 0.1009,
      "velocity": 107,
      "chip": "ym2612"
    },
    {
      "channel": 2,
      "note": 64,
      "start": 3.7166,
      "duration": 0.0504,
      "velocity": 94,
      "chip": "ym2612"
    },
    {
      "channel": 3,
      "note": 85,
      "start": 3.7845,
      "duration": 1.0531,
      "velocity": 107,
      "chip": "ym2612"
    },
    {
      "channel": 2,
      "note": 64,
      "start": 3.8347,
      "duration": 0.0516,
      "velocity": 94,
      "chip": "ym2612"
    },
    {
      "channel": 2,
      "note": 52,
      "start": 3.9536,
      "duration": 0.043,
      "velocity": 94,
      "chip": "ym2612"
    },
    {
      "channel": 2,
      "note": 64,
      "start": 4.0001,
      "duration": 0.01,
      "velocity": 94,
      "chip": "ym2612"
    },
    {
      "channel": 2,
      "note": 64,
      "start": 4.0561,
      "duration": 0.0503,
      "velocity": 94,
      "chip": "ym2612"
    },
    {
      "channel": 2,
      "note": 52,
      "start": 4.174,
      "duration": 0.1224,
      "velocity": 94,
      "chip": "ym2612"
    },
    {
      "channel": 2,
      "note": 64,
      "start": 4.3133,
      "duration": 0.0504,
      "velocity": 94,
      "chip": "ym2612"
    },
    {
      "channel": 2,
      "note": 64,
      "start": 4.4313,
      "duration": 0.0504,
      "velocity": 94,
      "chip": "ym2612"
    },
    {
      "channel": 2,
      "note": 52,
      "start": 4.5493,
      "duration": 0.0432,
      "velocity": 94,
      "chip": "ym2612"
    },
    {
      "channel": 2,
      "note": 64,
      "start": 4.5962,
      "duration": 0.0117,
      "velocity": 94,
      "chip": "ym2612"
    },
    {
      "channel": 2,
      "note": 64,
      "start": 4.6214,
      "duration": 0.0107,
      "velocity": 94,
      "chip": "ym2612"
    },
    {
      "channel": 0,
      "note": 81,
      "start": 4.6468,
      "duration": 1.1778,
      "velocity": 107,
      "chip": "ym2612"
    },
    {
      "channel": 1,
      "note": 78,
      "start": 4.6487,
      "duration": 1.1762,
      "velocity": 107,
      "chip": "ym2612"
    },
    {
      "channel": 2,
      "note": 54,
      "start": 4.6493,
      "duration": 0.1206,
      "velocity": 94,
      "chip": "ym2612"
    },
    {
      "channel": 4,
      "note": 80,
      "start": 4.6578,
      "duration": 1.1895,
      "velocity": 107,
      "chip": "ym2612"
    },
    {
      "channel": 2,
      "note": 66,
      "start": 4.787,
      "duration": 0.0503,
      "velocity": 94,
      "chip": "ym2612"
    },
    {
      "channel": 3,
      "note": 83,
      "start": 4.8548,
      "duration": 1.1772,
      "velocity": 107,
      "chip": "ym2612"
    },
    {
      "channel": 2,
      "note": 66,
      "start": 4.905,
      "duration": 0.0504,
      "velocity": 94,
      "chip": "ym2612"
    },
    {
      "channel": 2,
      "note": 54,
      "start": 5.023,
      "duration": 0.0428,
      "velocity": 94,
      "chip": "ym2612"
    },
    {
      "channel": 2,
      "note": 66,
      "start": 5.0693,
      "duration": 0.01,
      "velocity": 94,
      "chip": "ym2612"
    },
    {
      "channel": 2,
      "note": 66,
      "start": 5.1262,
      "duration": 0.0502,
      "velocity": 94,
      "chip": "ym2612"
    },
    {
      "channel": 2,
      "note": 54,
      "start": 5.2441,
      "duration": 0.1225,
      "velocity": 94,
      "chip": "ym2612"
    },
    {
      "channel": 2,
      "note": 66,
      "start": 5.3835,
      "duration": 0.0504,
      "velocity": 94,
      "chip": "ym2612"
    },
    {
      "channel": 2,
      "note": 66,
      "start": 5.5015,
      "duration": 0.0504,
      "velocity": 94,
      "chip": "ym2612"
    },
    {
      "channel": 2,
      "note": 54,
      "start": 5.6195,
      "duration": 0.0457,
      "velocity": 94,
      "chip": "ym2612"
    },
    {
      "channel": 2,
      "note": 66,
      "start": 5.6687,
      "duration": 0.0101,
      "velocity": 94,
      "chip": "ym2612"
    },
    {
      "channel": 2,
      "note": 66,
      "start": 5.7242,
      "duration": 0.0504,
      "velocity": 94,
      "chip": "ym2612"
    },
    {
      "channel": 0,
      "note": 83,
      "start": 5.8417,
      "duration": 1.1768,
      "velocity": 107,
      "chip": "ym2612"
    },
    {
      "channel": 1,
      "note": 80,
      "start": 5.8422,
      "duration": 1.1766,
      "velocity": 107,
      "chip": "ym2612"
    },
    {
      "channel": 2,
      "note": 54,
      "start": 5.8427,
      "duration": 0.1215,
      "velocity": 94,
      "chip": "ym2612"
    },
    {
      "channel": 4,
      "note": 78,
      "start": 5.8507,
      "duration": 1.1904,
      "velocity": 107,
      "chip": "ym2612"
    },
    {
      "channel": 2,
      "note": 66,
      "start": 5.9813,
      "duration": 0.0503,
      "velocity": 94,
      "chip": "ym2612"
    },
    {
      "channel": 3,
      "note": 81,
      "start": 6.0491,
      "duration": 1.1769,
      "velocity": 107,
      "chip": "ym2612"
    },
    {
      "channel": 2,
      "note": 66,
      "start": 6.0993,
      "duration": 0.0504,
      "velocity": 94,
      "chip": "ym2612"
    },
    {
      "channel": 2,
      "note": 54,
      "start": 6.2173,
      "duration": 0.0429,
      "velocity": 94,
      "chip": "ym2612"
    },
    {
      "channel": 2,
      "note": 66,
      "start": 6.2638,
      "duration": 0.01,
      "velocity": 94,
      "chip": "ym2612"
    },
    {
      "channel": 2,
      "note": 66,
      "start": 6.3207,
      "duration": 0.0503,
      "velocity": 94,
      "chip": "ym2612"
    },
    {
      "channel": 2,
      "note": 54,
      "start": 6.4386,
      "duration": 0.1242,
      "velocity": 94,
      "chip": "ym2612"
    },
    {
      "channel": 2,
      "note": 66,
      "start": 6.5797,
      "duration": 0.0499,
      "velocity": 94,
      "chip": "ym2612"
    },
    {
      "channel": 2,
      "note": 66,
      "start": 6.6966,
      "duration": 0.0502,
      "velocity": 94,
      "chip": "ym2612"
    },
    {
      "channel": 2,
      "note": 54,
      "start": 6.8144,
      "duration": 0.0432,
      "velocity": 94,
      "chip": "ym2612"
    },
    {
      "channel": 2,
      "note": 66,
      "start": 6.8612,
      "duration": 0.0102,
      "velocity": 94,
      "chip": "ym2612"
    },
    {
      "channel": 2,
      "note": 66,
      "start": 6.918,
      "duration": 0.0504,
      "velocity": 94,
      "chip": "ym2612"
    },
    {
      "channel": 0,
      "note": 85,
      "start": 7.0355,
      "duration": 1.0162,
      "velocity": 107,
      "chip": "ym2612"
    },
    {
      "channel": 1,
      "note": 81,
      "start": 7.036,
      "duration": 1.016,
      "velocity": 107,
      "chip": "ym2612"
    },
    {
      "channel": 2,
      "note": 50,
      "start": 7.0365,
      "duration": 0.1218,
      "velocity": 94,
      "chip": "ym2612"
    },
    {
      "channel": 4,
      "note": 80,
      "start": 7.0446,
      "duration": 1.0157,
      "velocity": 107,
      "chip": "ym2612"
    },
    {
      "channel": 2,
      "note": 62,
      "start": 7.1754,
      "duration": 0.0503,
      "velocity": 94,
      "chip": "ym2612"
    },
    {
      "channel": 3,
      "note": 83,
      "start": 7.2432,
      "duration": 0.9998,
      "velocity": 107,
      "chip": "ym2612"
    },
    {
      "channel": 2,
      "note": 62,
      "start": 7.2934,
      "duration": 0.0504,
      "velocity": 94,
      "chip": "ym2612"
    },
    {
      "channel": 2,
      "note": 50,
      "start": 7.4114,
      "duration": 0.0432,
      "velocity": 94,
      "chip": "ym2612"
    },
    {
      "channel": 2,
      "note": 62,
      "start": 7.4583,
      "duration": 0.0115,
      "velocity": 94,
      "chip": "ym2612"
    },
    {
      "channel": 2,
      "note": 62,
      "start": 7.5167,
      "duration": 0.0497,
      "velocity": 94,
      "chip": "ym2612"
    },
    {
      "channel": 2,
      "note": 50,
      "start": 7.6336,
      "duration": 0.1224,
      "velocity": 94,
      "chip": "ym2612"
    },
    {
      "channel": 2,
      "note": 62,
      "start": 7.773,
      "duration": 0.0504,
      "velocity": 94,
      "chip": "ym2612"
    },
    {
      "channel": 2,
      "note": 62,
      "start": 7.891,
      "duration": 0.0504,
      "velocity": 94,
      "chip": "ym2612"
    },
    {
      "channel": 2,
      "note": 50,
      "start": 8.0089,
      "duration": 0.0434,
      "velocity": 94,
      "chip": "ym2612"
    },
    {
      "channel": 0,
      "note": 83,
      "start": 8.0553,
      "duration": 0.0394,
      "velocity": 107,
      "chip": "ym2612"
    },
    {
      "channel": 1,
      "note": 80,
      "start": 8.0558,
      "duration": 0.0392,
      "velocity": 107,
      "chip": "ym2612"
    },
    {
      "channel": 2,
      "note": 62,
      "start": 8.0563,
      "duration": 0.0102,
      "velocity": 94,
      "chip": "ym2612"
    },
    {
      "channel": 4,
      "note": 81,
      "start": 8.0638,
      "duration": 0.0657,
      "velocity": 107,
      "chip": "ym2612"
    },
    {
      "channel": 0,
      "note": 85,
      "start": 8.1118,
      "duration": 0.1009,
      "velocity": 107,
      "chip": "ym2612"
    },
    {
      "channel": 1,
      "note": 81,
      "start": 8.1123,
      "duration": 0.1006,
      "velocity": 107,
      "chip": "ym2612"
    },
    {
      "channel": 2,
      "note": 62,
      "start": 8.1128,
      "duration": 0.0498,
      "velocity": 94,
      "chip": "ym2612"
    },
    {
      "channel": 4,
      "note": 80,
      "start": 8.1466,
      "duration": 0.09,
      "velocity": 107,
      "chip": "ym2612"
    },
    {
      "channel": 0,
      "note": 83,
      "start": 8.2298,
      "duration": 0.3924,
      "velocity": 107,
      "chip": "ym2612"
    },
    {
      "channel": 1,
      "note": 80,
      "start": 8.2302,
      "duration": 0.3922,
      "velocity": 107,
      "chip": "ym2612"
    },
    {
      "channel": 2,
      "note": 52,
      "start": 8.2307,
      "duration": 0.0459,
      "velocity": 94,
      "chip": "ym2612"
    },
    {
      "channel": 4,
      "note": 81,
      "start": 8.2401,
      "duration": 0.3971,
      "velocity": 107,
      "chip": "ym2612"
    },
    {
      "channel": 3,
      "note": 85,
      "start": 8.2464,
      "duration": 0.0206,
      "velocity": 107,
      "chip": "ym2612"
    },
    {
      "channel": 3,
      "note": 83,
      "start": 8.2705,
      "duration": 0.02,
      "velocity": 107,
      "chip": "ym2612"
    },
    {
      "channel": 2,
      "note": 64,
      "start": 8.28,
      "duration": 0.0102,
      "velocity": 94,
      "chip": "ym2612"
    },
    {
      "channel": 3,
      "note": 85,
      "start": 8.2953,
      "duration": 0.5222,
      "velocity": 107,
      "chip": "ym2612"
    },
    {
      "channel": 2,
      "note": 64,
      "start": 8.3056,
      "duration": 0.0112,
      "velocity": 94,
      "chip": "ym2612"
    },
    {
      "channel": 2,
      "note": 52,
      "start": 8.3301,
      "duration": 0.0443,
      "velocity": 94,
      "chip": "ym2612"
    },
    {
      "channel": 2,
      "note": 64,
      "start": 8.3793,
      "duration": 0.0099,
      "velocity": 94,
      "chip": "ym2612"
    },
    {
      "channel": 2,
      "note": 64,
      "start": 8.4027,
      "duration": 0.0118,
      "velocity": 94,
      "chip": "ym2612"
    },
    {
      "channel": 2,
      "note": 52,
      "start": 8.4281,
      "duration": 0.0449,
      "velocity": 94,
      "chip": "ym2612"
    },
    {
      "channel": 2,
      "note": 64,
      "start": 8.4766,
      "duration": 0.0116,
      "velocity": 94,
      "chip": "ym2612"
    },
    {
      "channel": 2,
      "note": 64,
      "start": 8.5019,
      "duration": 0.0117,
      "velocity": 94,
      "chip": "ym2612"
    },
    {
      "channel": 2,
      "note": 52,
      "start": 8.5271,
      "duration": 0.0453,
      "velocity": 94,
      "chip": "ym2612"
    },
    {
      "channel": 2,
      "note": 64,
      "start": 8.5759,
      "duration": 0.0117,
      "velocity": 94,
      "chip": "ym2612"
    },
    {
      "channel": 2,
      "note": 64,
      "start": 8.6015,
      "duration": 0.0108,
      "velocity": 94,
      "chip": "ym2612"
    },
    {
      "channel": 0,
      "note": 81,
      "start": 8.6312,
      "duration": 0.2361,
      "velocity": 107,
      "chip": "ym2612"
    },
    {
      "channel": 1,
      "note": 78,
      "start": 8.6319,
      "duration": 1.1727,
      "velocity": 107,
      "chip": "ym2612"
    },
    {
      "channel": 2,
      "note": 54,
      "start": 8.6325,
      "duration": 0.1173,
      "velocity": 94,
      "chip": "ym2612"
    },
    {
      "channel": 4,
      "note": 80,
      "start": 8.6408,
      "duration": 1.1859,
      "velocity": 107,
      "chip": "ym2612"
    },
    {
      "channel": 2,
      "note": 66,
      "start": 8.7668,
      "duration": 0.0504,
      "velocity": 94,
      "chip": "ym2612"
    },
    {
      "channel": 3,
      "note": 83,
      "start": 8.8395,
      "duration": 0.1963,
      "velocity": 107,
      "chip": "ym2612"
    },
    {
      "channel": 0,
      "note": 80,
      "start": 8.8844,
      "duration": 0.1608,
      "velocity": 107,
      "chip": "ym2612"
    },
    {
      "channel": 2,
      "note": 66,
      "start": 8.8851,
      "duration": 0.0501,
      "velocity": 94,
      "chip": "ym2612"
    },
    {
      "channel": 2,
      "note": 54,
      "start": 9.0028,
      "duration": 0.0429,
      "velocity": 94,
      "chip": "ym2612"
    },
    {
      "channel": 3,
      "note": 81,
      "start": 9.0394,
      "duration": 0.1954,
      "velocity": 107,
      "chip": "ym2612"
    },
    {
      "channel": 0,
      "note": 73,
      "start": 9.0487,
      "duration": 1.1912,
      "velocity": 107,
      "chip": "ym2612"
    },
    {
      "channel": 2,
      "note": 66,
      "start": 9.0495,
      "duration": 0.0098,
      "velocity": 94,
      "chip": "ym2612"
    },
    {
      "channel": 2,
      "note": 66,
      "start": 9.1061,
      "duration": 0.0502,
      "velocity": 94,
      "chip": "ym2612"
    },
    {
      "channel": 2,
      "note": 54,
      "start": 9.224,
      "duration": 0.1224,
      "velocity": 94,
      "chip": "ym2612"
    },
    {
      "channel": 3,
      "note": 80,
      "start": 9.2383,
      "duration": 1.1917,
      "velocity": 107,
      "chip": "ym2612"
    },
    {
      "channel": 2,
      "note": 66,
      "start": 9.3634,
      "duration": 0.0504,
      "velocity": 94,
      "chip": "ym2612"
    },
    {
      "channel": 2,
      "note": 66,
      "start": 9.4814,
      "duration": 0.0504,
      "velocity": 94,
      "chip": "ym2612"
    },
    {
      "channel": 2,
      "note": 54,
      "start": 9.5994,
      "duration": 0.0454,
      "velocity": 94,
      "chip": "ym2612"
    },
    {
      "channel": 2,
      "note": 66,
      "start": 9.6483,
      "duration": 0.0102,
      "velocity": 94,
      "chip": "ym2612"
    },
    {
      "channel": 2,
      "note": 66,
      "start": 9.7039,
      "duration": 0.0503,
      "velocity": 94,
      "chip": "ym2612"
    },
    {
      "channel": 1,
      "note": 80,
      "start": 9.8216,
      "duration": 1.1769,
      "velocity": 107,
      "chip": "ym2612"
    },
    {
      "channel": 2,
      "note": 54,
      "start": 9.8221,
      "duration": 0.1222,
      "velocity": 94,
      "chip": "ym2612"
    },
    {
      "channel": 4,
      "note": 78,
      "start": 9.8303,
      "duration": 1.1906,
      "velocity": 107,
      "chip": "ym2612"
    },
    {
      "channel": 2,
      "note": 66,
      "start": 9.9613,
      "duration": 0.0503,
      "velocity": 94,
      "chip": "ym2612"
    },
    {
      "channel": 2,
      "note": 66,
      "start": 10.0793,
      "duration": 0.0504,
      "velocity": 94,
      "chip": "ym2612"
    },
    {
      "channel": 2,
      "note": 54,
      "start": 10.1972,
      "duration": 0.0432,
      "velocity": 94,
      "chip": "ym2612"
    },
    {
      "channel": 0,
      "note": 73,
      "start": 10.2435,
      "duration": 0.0395,
      "velocity": 107,
      "chip": "ym2612"
    },
    {
      "channel": 2,
      "note": 66,
      "start": 10.2442,
      "duration": 0.01,
      "velocity": 94,
      "chip": "ym2612"
    },
    {
      "channel": 0,
      "note": 73,
      "start": 10.3,
      "duration": 0.101,
      "velocity": 107,
      "chip": "ym2612"
    },
    {
      "channel": 2,
      "note": 66,
      "start": 10.3008,
      "duration": 0.05,
      "velocity": 94,
      "chip": "ym2612"
    },
    {
      "channel": 0,
      "note": 81,
      "start": 10.418,
      "duration": 0.241,
      "velocity": 107,
      "chip": "ym2612"
    },
    {
      "channel": 2,
      "note": 54,
      "start": 10.4187,
      "duration": 0.124,
      "velocity": 94,
      "chip": "ym2612"
    },
    {
      "channel": 3,
      "note": 73,
      "start": 10.4336,
      "duration": 0.0589,
      "velocity": 107,
      "chip": "ym2612"
    },
    {
      "channel": 3,
      "note": 73,
      "start": 10.5095,
      "duration": 0.1001,
      "velocity": 107,
      "chip": "ym2612"
    },
    {
      "channel": 2,
      "note": 66,
      "start": 10.5595,
      "duration": 0.0498,
      "velocity": 94,
      "chip": "ym2612"
    },
    {
      "channel": 3,
      "note": 73,
      "start": 10.6266,
      "duration": 0.2008,
      "velocity": 107,
      "chip": "ym2612"
    },
    {
      "channel": 0,
      "note": 80,
      "start": 10.6761,
      "duration": 0.1607,
      "velocity": 107,
      "chip": "ym2612"
    },
    {
      "channel": 2,
      "note": 66,
      "start": 10.6768,
      "duration": 0.0501,
      "velocity": 94,
      "chip": "ym2612"
    },
    {
      "channel": 2,
      "note": 54,
      "start": 10.7945,
      "duration": 0.0428,
      "velocity": 94,
      "chip": "ym2612"
    },
    {
      "channel": 3,
      "note": 81,
      "start": 10.831,
      "duration": 0.1964,
      "velocity": 107,
      "chip": "ym2612"
    },
    {
      "channel": 0,
      "note": 76,
      "start": 10.8403,
      "duration": 0.1749,
      "velocity": 107,
      "chip": "ym2612"
    },
    {
      "channel": 2,
      "note": 66,
      "start": 10.8411,
      "duration": 0.0098,
      "velocity": 94,
      "chip": "ym2612"
    },
    {
      "channel": 2,
      "note": 66,
      "start": 10.8979,
      "duration": 0.0504,
      "velocity": 94,
      "chip": "ym2612"
    },
    {
      "channel": 0,
      "note": 78,
      "start": 11.0154,
      "duration": 1.0199,
      "velocity": 107,
      "chip": "ym2612"
    },
    {
      "channel": 1,
      "note": 81,
      "start": 11.0159,
      "duration": 1.0162,
      "velocity": 107,
      "chip": "ym2612"
    },
    {
      "channel": 2,
      "note": 50,
      "start": 11.0165,
      "duration": 0.1216,
      "velocity": 94,
      "chip": "ym2612"
    },
    {
      "channel": 4,
      "note": 80,
      "start": 11.0244,
      "duration": 1.0161,
      "velocity": 107,
      "chip": "ym2612"
    },
    {
      "channel": 3,
      "note": 80,
      "start": 11.031,
      "duration": 0.1917,
      "velocity": 107,
      "chip": "ym2612"
    },
    {
      "channel": 2,
      "note": 62,
      "start": 11.1551,
      "duration": 0.0503,
      "velocity": 94,
      "chip": "ym2612"
    },
    {
      "channel": 3,
      "note": 76,
      "start": 11.223,
      "duration": 1.0022,
      "velocity": 107,
      "chip": "ym2612"
    },
    {
      "channel": 2,
      "note": 62,
      "start": 11.2732,
      "duration": 0.0504,
      "velocity": 94,
      "chip": "ym2612"
    },
    {
      "channel": 2,
      "note": 50,
      "start": 11.3911,
      "duration": 0.0437,
      "velocity": 94,
      "chip": "ym2612"
    },
    {
      "channel": 2,
      "note": 62,
      "start": 11.4396,
      "duration": 0.0104,
      "velocity": 94,
      "chip": "ym2612"
    },
    {
      "channel": 2,
      "note": 62,
      "start": 11.4968,
      "duration": 0.0497,
      "velocity": 94,
      "chip": "ym2612"
    },
    {
      "channel": 2,
      "note": 50,
      "start": 11.6141,
      "duration": 0.1224,
      "velocity": 94,
      "chip": "ym2612"
    },
    {
      "channel": 2,
      "note": 62,
      "start": 11.7534,
      "duration": 0.0504,
      "velocity": 94,
      "chip": "ym2612"
    },
    {
      "channel": 2,
      "note": 62,
      "start": 11.8714,
      "duration": 0.0504,
      "velocity": 94,
      "chip": "ym2612"
    },
    {
      "channel": 2,
      "note": 50,
      "start": 11.9894,
      "duration": 0.0431,
      "velocity": 94,
      "chip": "ym2612"
    },
    {
      "channel": 0,
      "note": 76,
      "start": 12.0356,
      "duration": 0.0563,
      "velocity": 107,
      "chip": "ym2612"
    },
    {
      "channel": 1,
      "note": 80,
      "start": 12.036,
      "duration": 0.0392,
      "velocity": 107,
      "chip": "ym2612"
    },
    {
      "channel": 2,
      "note": 62,
      "start": 12.0365,
      "duration": 0.0102,
      "velocity": 94,
      "chip": "ym2612"
    },
    {
      "channel": 4,
      "note": 81,
      "start": 12.0441,
      "duration": 0.0656,
      "velocity": 107,
      "chip": "ym2612"
    },
    {
      "channel": 0,
      "note": 78,
      "start": 12.0921,
      "duration": 0.1178,
      "velocity": 107,
      "chip": "ym2612"
    },
    {
      "channel": 1,
      "note": 81,
      "start": 12.0926,
      "duration": 0.1006,
      "velocity": 107,
      "chip": "ym2612"
    },
    {
      "channel": 2,
      "note": 62,
      "start": 12.0931,
      "duration": 0.0498,
      "velocity": 94,
      "chip": "ym2612"
    },
    {
      "channel": 4,
      "note": 80,
      "start": 12.1269,
      "duration": 0.0888,
      "velocity": 107,
      "chip": "ym2612"
    },
    {
      "channel": 0,
      "note": 76,
      "start": 12.21,
      "duration": 0.2571,
      "velocity": 107,
      "chip": "ym2612"
    },
    {
      "channel": 1,
      "note": 80,
      "start": 12.2105,
      "duration": 1.1775,
      "velocity": 107,
      "chip": "ym2612"
    },
    {
      "channel": 2,
      "note": 52,
      "start": 12.211,
      "duration": 0.1216,
      "velocity": 94,
      "chip": "ym2612"
    },
    {
      "channel": 4,
      "note": 81,
      "start": 12.2191,
      "duration": 1.1916,
      "velocity": 107,
      "chip": "ym2612"
    },
    {
      "channel": 3,
      "note": 78,
      "start": 12.2255,
      "duration": 0.0737,
      "velocity": 107,
      "chip": "ym2612"
    },
    {
      "channel": 3,
      "note": 76,
      "start": 12.2995,
      "duration": 0.119,
      "velocity": 107,
      "chip": "ym2612"
    },
    {
      "channel": 2,
      "note": 64,
      "start": 12.3497,
      "duration": 0.0504,
      "velocity": 94,
      "chip": "ym2612"
    },
    {
      "channel": 3,
      "note": 78,
      "start": 12.4188,
      "duration": 0.2034,
      "velocity": 107,
      "chip": "ym2612"
    },
    {
      "channel": 0,
      "note": 73,
      "start": 12.4685,
      "duration": 0.1632,
      "velocity": 107,
      "chip": "ym2612"
    },
    {
      "channel": 2,
      "note": 64,
      "start": 12.4692,
      "duration": 0.0499,
      "velocity": 94,
      "chip": "ym2612"
    },
    {
      "channel": 2,
      "note": 52,
      "start": 12.5859,
      "duration": 0.0429,
      "velocity": 94,
      "chip": "ym2612"
    },
    {
      "channel": 3,
      "note": 76,
      "start": 12.6225,
      "duration": 0.1986,
      "velocity": 107,
      "chip": "ym2612"
    },
    {
      "channel": 0,
      "note": 71,
      "start": 12.6318,
      "duration": 0.7728,
      "velocity": 107,
      "chip": "ym2612"
    },
    {
      "channel": 2,
      "note": 64,
      "start": 12.6326,
      "duration": 0.0098,
      "velocity": 94,
      "chip": "ym2612"
    },
    {
      "channel": 2,
      "note": 64,
      "start": 12.6892,
      "duration": 0.0503,
      "velocity": 94,
      "chip": "ym2612"
    },
    {
      "channel": 2,
      "note": 52,
      "start": 12.8071,
      "duration": 0.1225,
      "velocity": 94,
      "chip": "ym2612"
    },
    {
      "channel": 3,
      "note": 73,
      "start": 12.8214,
      "duration": 0.7895,
      "velocity": 107,
      "chip": "ym2612"
    },
    {
      "channel": 2,
      "note": 64,
      "start": 12.9466,
      "duration": 0.0503,
      "velocity": 94,
      "chip": "ym2612"
    },
    {
      "channel": 2,
      "note": 64,
      "start": 13.0646,
      "duration": 0.0504,
      "velocity": 94,
      "chip": "ym2612"
    },
    {
      "channel": 2,
      "note": 52,
      "start": 13.1826,
      "duration": 0.0432,
      "velocity": 94,
      "chip": "ym2612"
    },
    {
      "channel": 2,
      "note": 64,
      "start": 13.2293,
      "duration": 0.01,
      "velocity": 94,
      "chip": "ym2612"
    },
    {
      "channel": 2,
      "note": 64,
      "start": 13.2861,
      "duration": 0.0504,
      "velocity": 94,
      "chip": "ym2612"
    },
    {
      "channel": 0,
      "note": 81,
      "start": 13.4048,
      "duration": 0.2559,
      "velocity": 107,
      "chip": "ym2612"
    },
    {
      "channel": 1,
      "note": 78,
      "start": 13.4054,
      "duration": 1.1752,
      "velocity": 107,
      "chip": "ym2612"
    },
    {
      "channel": 2,
      "note": 54,
      "start": 13.4061,
      "duration": 0.1202,
      "velocity": 94,
      "chip": "ym2612"
    },
    {
      "channel": 4,
      "note": 80,
      "start": 13.4143,
      "duration": 1.1884,
      "velocity": 107,
      "chip": "ym2612"
    },
    {
      "channel": 2,
      "note": 66,
      "start": 13.5433,
      "duration": 0.0504,
      "velocity": 94,
      "chip": "ym2612"
    },
    {
      "channel": 3,
      "note": 71,
      "start": 13.6112,
      "duration": 0.2043,
      "velocity": 107,
      "chip": "ym2612"
    },
    {
      "channel": 0,
      "note": 80,
      "start": 13.6608,
      "duration": 0.1641,
      "velocity": 107,
      "chip": "ym2612"
    },
    {
      "channel": 2,
      "note": 66,
      "start": 13.6616,
      "duration": 0.0501,
      "velocity": 94,
      "chip": "ym2612"
    },
    {
      "channel": 2,
      "note": 54,
      "start": 13.7793,
      "duration": 0.0428,
      "velocity": 94,
      "chip": "ym2612"
    },
    {
      "channel": 3,
      "note": 81,
      "start": 13.8157,
      "duration": 0.1988,
      "velocity": 107,
      "chip": "ym2612"
    },
    {
      "channel": 0,
      "note": 73,
      "start": 13.8251,
      "duration": 1.1943,
      "velocity": 107,
      "chip": "ym2612"
    },
    {
      "channel": 2,
      "note": 66,
      "start": 13.8259,
      "duration": 0.0098,
      "velocity": 94,
      "chip": "ym2612"
    },
    {
      "channel": 2,
      "note": 66,
      "start": 13.8826,
      "duration": 0.0503,
      "velocity": 94,
      "chip": "ym2612"
    },
    {
      "channel": 2,
      "note": 54,
      "start": 14.0006,
      "duration": 0.1223,
      "velocity": 94,
      "chip": "ym2612"
    },
    {
      "channel": 3,
      "note": 80,
      "start": 14.0148,
      "duration": 1.1944,
      "velocity": 107,
      "chip": "ym2612"
    },
    {
      "channel": 2,
      "note": 66,
      "start": 14.1399,
      "duration": 0.0504,
      "velocity": 94,
      "chip": "ym2612"
    },
    {
      "channel": 2,
      "note": 66,
      "start": 14.2579,
      "duration": 0.0504,
      "velocity": 94,
      "chip": "ym2612"
    },
    {
      "channel": 2,
      "note": 54,
      "start": 14.3759,
      "duration": 0.0451,
      "velocity": 94,
      "chip": "ym2612"
    },
    {
      "channel": 2,
      "note": 66,
      "start": 14.4244,
      "duration": 0.0101,
      "velocity": 94,
      "chip": "ym2612"
    },
    {
      "channel": 2,
      "note": 66,
      "start": 14.48,
      "duration": 0.0504,
      "velocity": 94,
      "chip": "ym2612"
    },
    {
      "channel": 1,
      "note": 80,
      "start": 14.5977,
      "duration": 1.1768,
      "velocity": 107,
      "chip": "ym2612"
    },
    {
      "channel": 2,
      "note": 54,
      "start": 14.5982,
      "duration": 0.122,
      "velocity": 94,
      "chip": "ym2612"
    },
    {
      "channel": 4,
      "note": 78,
      "start": 14.6063,
      "duration": 1.1906,
      "velocity": 107,
      "chip": "ym2612"
    },
    {
      "channel": 2,
      "note": 66,
      "start": 14.7373,
      "duration": 0.0504,
      "velocity": 94,
      "chip": "ym2612"
    },
    {
      "channel": 2,
      "note": 66,
      "start": 14.8553,
      "duration": 0.0504,
      "velocity": 94,
      "chip": "ym2612"
    },
    {
      "channel": 2,
      "note": 54,
      "start": 14.9733,
      "duration": 0.0432,
      "velocity": 94,
      "chip": "ym2612"
    },
    {
      "channel": 0,
      "note": 73,
      "start": 15.0195,
      "duration": 0.0562,
      "velocity": 107,
      "chip": "ym2612"
    },
    {
      "channel": 2,
      "note": 66,
      "start": 15.0203,
      "duration": 0.0099,
      "velocity": 94,
      "chip": "ym2612"
    },
    {
      "channel": 0,
      "note": 73,
      "start": 15.0759,
      "duration": 0.1178,
      "velocity": 107,
      "chip": "ym2612"
    },
    {
      "channel": 2,
      "note": 66,
      "start": 15.0768,
      "duration": 0.05,
      "velocity": 94,
      "chip": "ym2612"
    },
    {
      "channel": 0,
      "note": 81,
      "start": 15.1939,
      "duration": 0.2579,
      "velocity": 107,
      "chip": "ym2612"
    },
    {
      "channel": 2,
      "note": 54,
      "start": 15.1947,
      "duration": 0.1236,
      "velocity": 94,
      "chip": "ym2612"
    },
    {
      "channel": 3,
      "note": 73,
      "start": 15.2107,
      "duration": 0.0745,
      "velocity": 107,
      "chip": "ym2612"
    },
    {
      "channel": 3,
      "note": 73,
      "start": 15.2855,
      "duration": 0.1166,
      "velocity": 107,
      "chip": "ym2612"
    },
    {
      "channel": 2,
      "note": 66,
      "start": 15.3351,
      "duration": 0.0499,
      "velocity": 94,
      "chip": "ym2612"
    },
    {
      "channel": 3,
      "note": 73,
      "start": 15.4024,
      "duration": 0.2041,
      "velocity": 107,
      "chip": "ym2612"
    },
    {
      "channel": 0,
      "note": 80,
      "start": 15.4521,
      "duration": 0.1639,
      "velocity": 107,
      "chip": "ym2612"
    },
    {
      "channel": 2,
      "note": 66,
      "start": 15.4528,
      "duration": 0.0501,
      "velocity": 94,
      "chip": "ym2612"
    },
    {
      "channel": 2,
      "note": 54,
      "start": 15.5705,
      "duration": 0.0427,
      "velocity": 94,
      "chip": "ym2612"
    },
    {
      "channel": 3,
      "note": 81,
      "start": 15.6069,
      "duration": 0.1997,
      "velocity": 107,
      "chip": "ym2612"
    },
    {
      "channel": 0,
      "note": 76,
      "start": 15.6161,
      "duration": 0.175,
      "velocity": 107,
      "chip": "ym2612"
    },
    {
      "channel": 2,
      "note": 66,
      "start": 15.6169,
      "duration": 0.0098,
      "velocity": 94,
      "chip": "ym2612"
    },
    {
      "channel": 2,
      "note": 66,
      "start": 15.6738,
      "duration": 0.0504,
      "velocity": 94,
      "chip": "ym2612"
    },
    {
      "channel": 0,
      "note": 78,
      "start": 15.7913,
      "duration": 1.0198,
      "velocity": 107,
      "chip": "ym2612"
    },
    {
      "channel": 1,
      "note": 81,
      "start": 15.7919,
      "duration": 1.0161,
      "velocity": 107,
      "chip": "ym2612"
    },
    {
      "channel": 2,
      "note": 50,
      "start": 15.7924,
      "duration": 0.1217,
      "velocity": 94,
      "chip": "ym2612"
    },
    {
      "channel": 4,
      "note": 80,
      "start": 15.8004,
      "duration": 1.0159,
      "velocity": 107,
      "chip": "ym2612"
    },
    {
      "channel": 3,
      "note": 80,
      "start": 15.8068,
      "duration": 0.1919,
      "velocity": 107,
      "chip": "ym2612"
    },
    {
      "channel": 2,
      "note": 62,
      "start": 15.931,
      "duration": 0.0504,
      "velocity": 94,
      "chip": "ym2612"
    },
    {
      "channel": 3,
      "note": 76,
      "start": 15.999,
      "duration": 1.0021,
      "velocity": 107,
      "chip": "ym2612"
    },
    {
      "channel": 2,
      "note": 62,
      "start": 16.0491,
      "duration": 0.0504,
      "velocity": 94,
      "chip": "ym2612"
    },
    {
      "channel": 2,
      "note": 50,
      "start": 16.1671,
      "duration": 0.0449,
      "velocity": 94,
      "chip": "ym2612"
    },
    {
      "channel": 2,
      "note": 62,
      "start": 16.2157,
      "duration": 0.0102,
      "velocity": 94,
      "chip": "ym2612"
    },
    {
      "channel": 2,
      "note": 62,
      "start": 16.2721,
      "duration": 0.05,
      "velocity": 94,
      "chip": "ym2612"
    },
    {
      "channel": 2,
      "note": 50,
      "start": 16.3897,
      "duration": 0.1224,
      "velocity": 94,
      "chip": "ym2612"
    },
    {
      "channel": 2,
      "note": 62,
      "start": 16.5291,
      "duration": 0.0504,
      "velocity": 94,
      "chip": "ym2612"
    },
    {
      "channel": 2,
      "note": 62,
      "start": 16.6471,
      "duration": 0.0503,
      "velocity": 94,
      "chip": "ym2612"
    },
    {
      "channel": 2,
      "note": 50,
      "start": 16.765,
      "duration": 0.0432,
      "velocity": 94,
      "chip": "ym2612"
    },
    {
      "channel": 0,
      "note": 80,
      "start": 16.8113,
      "duration": 0.0564,
      "velocity": 107,
      "chip": "ym2612"
    },
    {
      "channel": 1,
      "note": 80,
      "start": 16.8118,
      "duration": 0.0393,
      "velocity": 107,
      "chip": "ym2612"
    },
    {
      "channel": 2,
      "note": 62,
      "start": 16.8123,
      "duration": 0.0103,
      "velocity": 94,
      "chip": "ym2612"
    },
    {
      "channel": 4,
      "note": 81,
      "start": 16.8198,
      "duration": 0.0658,
      "velocity": 107,
      "chip": "ym2612"
    },
    {
      "channel": 0,
      "note": 81,
      "start": 16.868,
      "duration": 0.1178,
      "velocity": 107,
      "chip": "ym2612"
    },
    {
      "channel": 1,
      "note": 81,
      "start": 16.8685,
      "duration": 0.1006,
      "velocity": 107,
      "chip": "ym2612"
    },
    {
      "channel": 2,
      "note": 62,
      "start": 16.8689,
      "duration": 0.0498,
      "velocity": 94,
      "chip": "ym2612"
    },
    {
      "channel": 4,
      "note": 80,
      "start": 16.9028,
      "duration": 0.0887,
      "velocity": 107,
      "chip": "ym2612"
    },
    {
      "channel": 0,
      "note": 80,
      "start": 16.9859,
      "duration": 0.2582,
      "velocity": 107,
      "chip": "ym2612"
    },
    {
      "channel": 1,
      "note": 80,
      "start": 16.9864,
      "duration": 1.1775,
      "velocity": 107,
      "chip": "ym2612"
    },
    {
      "channel": 2,
      "note": 52,
      "start": 16.9869,
      "duration": 0.1216,
      "velocity": 94,
      "chip": "ym2612"
    },
    {
      "channel": 4,
      "note": 81,
      "start": 16.995,
      "duration": 1.1953,
      "velocity": 107,
      "chip": "ym2612"
    },
    {
      "channel": 3,
      "note": 78,
      "start": 17.0014,
      "duration": 0.0737,
      "velocity": 107,
      "chip": "ym2612"
    },
    {
      "channel": 3,
      "note": 80,
      "start": 17.0754,
      "duration": 0.119,
      "velocity": 107,
      "chip": "ym2612"
    },
    {
      "channel": 2,
      "note": 64,
      "start": 17.1256,
      "duration": 0.0504,
      "velocity": 94,
      "chip": "ym2612"
    },
    {
      "channel": 3,
      "note": 81,
      "start": 17.1947,
      "duration": 0.203,
      "velocity": 107,
      "chip": "ym2612"
    },
    {
      "channel": 0,
      "note": 76,
      "start": 17.2444,
      "duration": 0.1628,
      "velocity": 107,
      "chip": "ym2612"
    },
    {
      "channel": 2,
      "note": 64,
      "start": 17.2451,
      "duration": 0.0495,
      "velocity": 94,
      "chip": "ym2612"
    },
    {
      "channel": 2,
      "note": 52,
      "start": 17.3616,
      "duration": 0.0428,
      "velocity": 94,
      "chip": "ym2612"
    },
    {
      "channel": 3,
      "note": 80,
      "start": 17.398,
      "duration": 0.1989,
      "velocity": 107,
      "chip": "ym2612"
    },
    {
      "channel": 0,
      "note": 83,
      "start": 17.4074,
      "duration": 0.5502,
      "velocity": 107,
      "chip": "ym2612"
    },
    {
      "channel": 2,
      "note": 64,
      "start": 17.4082,
      "duration": 0.0098,
      "velocity": 94,
      "chip": "ym2612"
    },
    {
      "channel": 2,
      "note": 64,
      "start": 17.4651,
      "duration": 0.0503,
      "velocity": 94,
      "chip": "ym2612"
    },
    {
      "channel": 2,
      "note": 52,
      "start": 17.5829,
      "duration": 0.1224,
      "velocity": 94,
      "chip": "ym2612"
    },
    {
      "channel": 3,
      "note": 76,
      "start": 17.5972,
      "duration": 0.4221,
      "velocity": 107,
      "chip": "ym2612"
    },
    {
      "channel": 2,
      "note": 64,
      "start": 17.7223,
      "duration": 0.0504,
      "velocity": 94,
      "chip": "ym2612"
    },
    {
      "channel": 2,
      "note": 64,
      "start": 17.8402,
      "duration": 0.0504,
      "velocity": 94,
      "chip": "ym2612"
    },
    {
      "channel": 0,
      "note": 81,
      "start": 17.9578,
      "duration": 0.0463,
      "velocity": 107,
      "chip": "ym2612"
    },
    {
      "channel": 2,
      "note": 52,
      "start": 17.9586,
      "duration": 0.0427,
      "velocity": 94,
      "chip": "ym2612"
    },
    {
      "channel": 0,
      "note": 80,
      "start": 18.0043,
      "duration": 0.1761,
      "velocity": 107,
      "chip": "ym2612"
    },
    {
      "channel": 2,
      "note": 64,
      "start": 18.0051,
      "duration": 0.0103,
      "velocity": 94,
      "chip": "ym2612"
    },
    {
      "channel": 3,
      "note": 83,
      "start": 18.0196,
      "duration": 0.1858,
      "velocity": 107,
      "chip": "ym2612"
    },
    {
      "channel": 2,
      "note": 64,
      "start": 18.0622,
      "duration": 0.0516,
      "velocity": 94,
      "chip": "ym2612"
    },
    {
      "channel": 0,
      "note": 78,
      "start": 18.1806,
      "duration": 0.4214,
      "velocity": 107,
      "chip": "ym2612"
    },
    {
      "channel": 1,
      "note": 78,
      "start": 18.1848,
      "duration": 0.0201,
      "velocity": 78,
      "chip": "ym2612"
    },
    {
      "channel": 2,
      "note": 50,
      "start": 18.1855,
      "duration": 0.1171,
      "velocity": 94,
      "chip": "ym2612"
    },
    {
      "channel": 4,
      "note": 80,
      "start": 18.2023,
      "duration": 0.0134,
      "velocity": 78,
      "chip": "ym2612"
    },
    {
      "channel": 3,
      "note": 81,
      "start": 18.2057,
      "duration": 0.1817,
      "velocity": 107,
      "chip": "ym2612"
    },
    {
      "channel": 1,
      "note": 90,
      "start": 18.2149,
      "duration": 0.0539,
      "velocity": 78,
      "chip": "ym2612"
    },
    {
      "channel": 4,
      "note": 78,
      "start": 18.2529,
      "duration": 0.0678,
      "velocity": 78,
      "chip": "ym2612"
    },
    {
      "channel": 1,
      "note": 78,
      "start": 18.3195,
      "duration": 0.0673,
      "velocity": 78,
      "chip": "ym2612"
    },
    {
      "channel": 2,
      "note": 62,
      "start": 18.32,
      "duration": 0.0501,
      "velocity": 94,
      "chip": "ym2612"
    },
    {
      "channel": 4,
      "note": 90,
      "start": 18.3709,
      "duration": 0.0678,
      "velocity": 78,
      "chip": "ym2612"
    },
    {
      "channel": 3,
      "note": 80,
      "start": 18.3876,
      "duration": 0.4039,
      "velocity": 107,
      "chip": "ym2612"
    },
    {
      "channel": 1,
      "note": 78,
      "start": 18.4375,
      "duration": 0.0673,
      "velocity": 78,
      "chip": "ym2612"
    },
    {
      "channel": 2,
      "note": 62,
      "start": 18.438,
      "duration": 0.0501,
      "velocity": 94,
      "chip": "ym2612"
    },
    {
      "channel": 4,
      "note": 78,
      "start": 18.4889,
      "duration": 0.0679,
      "velocity": 78,
      "chip": "ym2612"
    },
    {
      "channel": 1,
      "note": 78,
      "start": 18.5556,
      "duration": 0.014,
      "velocity": 78,
      "chip": "ym2612"
    },
    {
      "channel": 2,
      "note": 50,
      "start": 18.5561,
      "duration": 0.0431,
      "velocity": 94,
      "chip": "ym2612"
    },
    {
      "channel": 4,
      "note": 78,
      "start": 18.5671,
      "duration": 0.013,
      "velocity": 78,
      "chip": "ym2612"
    },
    {
      "channel": 1,
      "note": 90,
      "start": 18.5793,
      "duration": 0.0133,
      "velocity": 78,
      "chip": "ym2612"
    },
    {
      "channel": 4,
      "note": 78,
      "start": 18.59,
      "duration": 0.0139,
      "velocity": 78,
      "chip": "ym2612"
    },
    {
      "channel": 0,
      "note": 81,
      "start": 18.6022,
      "duration": 0.5492,
      "velocity": 107,
      "chip": "ym2612"
    },
    {
      "channel": 1,
      "note": 78,
      "start": 18.6027,
      "duration": 0.0137,
      "velocity": 78,
      "chip": "ym2612"
    },
    {
      "channel": 2,
      "note": 62,
      "start": 18.6032,
      "duration": 0.0099,
      "velocity": 94,
      "chip": "ym2612"
    },
    {
      "channel": 4,
      "note": 90,
      "start": 18.6139,
      "duration": 0.046,
      "velocity": 78,
      "chip": "ym2612"
    },
    {
      "channel": 1,
      "note": 78,
      "start": 18.6587,
      "duration": 0.0672,
      "velocity": 78,
      "chip": "ym2612"
    },
    {
      "channel": 2,
      "note": 62,
      "start": 18.6592,
      "duration": 0.0501,
      "velocity": 94,
      "chip": "ym2612"
    },
    {
      "channel": 4,
      "note": 78,
      "start": 18.7101,
      "duration": 0.0678,
      "velocity": 78,
      "chip": "ym2612"
    },
    {
      "channel": 1,
      "note": 78,
      "start": 18.7767,
      "duration": 0.0143,
      "velocity": 78,
      "chip": "ym2612"
    },
    {
      "channel": 2,
      "note": 50,
      "start": 18.7773,
      "duration": 0.1217,
      "velocity": 94,
      "chip": "ym2612"
    },
    {
      "channel": 4,
      "note": 78,
      "start": 18.7886,
      "duration": 0.0134,
      "velocity": 78,
      "chip": "ym2612"
    },
    {
      "channel": 3,
      "note": 78,
      "start": 18.7919,
      "duration": 0.4229,
      "velocity": 107,
      "chip": "ym2612"
    },
    {
      "channel": 1,
      "note": 90,
      "start": 18.8012,
      "duration": 0.0639,
      "velocity": 78,
      "chip": "ym2612"
    },
    {
      "channel": 4,
      "note": 78,
      "start": 18.8493,
      "duration": 0.0678,
      "velocity": 78,
      "chip": "ym2612"
    },
    {
      "channel": 1,
      "note": 78,
      "start": 18.9159,
      "duration": 0.0673,
      "velocity": 78,
      "chip": "ym2612"
    },
    {
      "channel": 2,
      "note": 62,
      "start": 18.9164,
      "duration": 0.0501,
      "velocity": 94,
      "chip": "ym2612"
    },
    {
      "channel": 4,
      "note": 90,
      "start": 18.9673,
      "duration": 0.0677,
      "velocity": 78,
      "chip": "ym2612"
    },
    {
      "channel": 1,
      "note": 78,
      "start": 19.0338,
      "duration": 0.0673,
      "velocity": 78,
      "chip": "ym2612"
    },
    {
      "channel": 2,
      "note": 62,
      "start": 19.0343,
      "duration": 0.0501,
      "velocity": 94,
      "chip": "ym2612"
    },
    {
      "channel": 4,
      "note": 78,
      "start": 19.0865,
      "duration": 0.0681,
      "velocity": 78,
      "chip": "ym2612"
    },
    {
      "channel": 0,
      "note": 85,
      "start": 19.1516,
      "duration": 0.2215,
      "velocity": 107,
      "chip": "ym2612"
    },
    {
      "channel": 1,
      "note": 78,
      "start": 19.1534,
      "duration": 0.0144,
      "velocity": 78,
      "chip": "ym2612"
    },
    {
      "channel": 2,
      "note": 50,
      "start": 19.1539,
      "duration": 0.0436,
      "velocity": 94,
      "chip": "ym2612"
    },
    {
      "channel": 4,
      "note": 78,
      "start": 19.1654,
      "duration": 0.0131,
      "velocity": 78,
      "chip": "ym2612"
    },
    {
      "channel": 1,
      "note": 90,
      "start": 19.1776,
      "duration": 0.0133,
      "velocity": 78,
      "chip": "ym2612"
    },
    {
      "channel": 4,
      "note": 78,
      "start": 19.1884,
      "duration": 0.0133,
      "velocity": 78,
      "chip": "ym2612"
    },
    {
      "channel": 1,
      "note": 78,
      "start": 19.2006,
      "duration": 0.0136,
      "velocity": 78,
      "chip": "ym2612"
    },
    {
      "channel": 2,
      "note": 62,
      "start": 19.2011,
      "duration": 0.0098,
      "velocity": 94,
      "chip": "ym2612"
    },
    {
      "channel": 4,
      "note": 90,
      "start": 19.2117,
      "duration": 0.045,
      "velocity": 78,
      "chip": "ym2612"
    },
    {
      "channel": 3,
      "note": 81,
      "start": 19.2151,
      "duration": 0.3655,
      "velocity": 107,
      "chip": "ym2612"
    },
    {
      "channel": 1,
      "note": 78,
      "start": 19.2555,
      "duration": 0.0673,
      "velocity": 78,
      "chip": "ym2612"
    },
    {
      "channel": 2,
      "note": 62,
      "start": 19.256,
      "duration": 0.0501,
      "velocity": 94,
      "chip": "ym2612"
    },
    {
      "channel": 4,
      "note": 78,
      "start": 19.3069,
      "duration": 0.0683,
      "velocity": 78,
      "chip": "ym2612"
    },
    {
      "channel": 0,
      "note": 83,
      "start": 19.3733,
      "duration": 0.2571,
      "velocity": 107,
      "chip": "ym2612"
    },
    {
      "channel": 1,
      "note": 80,
      "start": 19.3741,
      "duration": 0.0142,
      "velocity": 78,
      "chip": "ym2612"
    },
    {
      "channel": 2,
      "note": 52,
      "start": 19.3746,
      "duration": 0.1214,
      "velocity": 94,
      "chip": "ym2612"
    },
    {
      "channel": 4,
      "note": 78,
      "start": 19.3859,
      "duration": 0.0129,
      "velocity": 78,
      "chip": "ym2612"
    },
    {
      "channel": 1,
      "note": 92,
      "start": 19.3979,
      "duration": 0.0642,
      "velocity": 78,
      "chip": "ym2612"
    },
    {
      "channel": 4,
      "note": 80,
      "start": 19.4462,
      "duration": 0.0678,
      "velocity": 78,
      "chip": "ym2612"
    },
    {
      "channel": 1,
      "note": 80,
      "start": 19.5128,
      "duration": 0.0672,
      "velocity": 78,
      "chip": "ym2612"
    },
    {
      "channel": 2,
      "note": 64,
      "start": 19.5133,
      "duration": 0.0501,
      "velocity": 94,
      "chip": "ym2612"
    },
    {
      "channel": 4,
      "note": 92,
      "start": 19.5642,
      "duration": 0.068,
      "velocity": 78,
      "chip": "ym2612"
    },
    {
      "channel": 3,
      "note": 85,
      "start": 19.581,
      "duration": 0.2051,
      "velocity": 107,
      "chip": "ym2612"
    },
    {
      "channel": 0,
      "note": 80,
      "start": 19.6306,
      "duration": 0.1646,
      "velocity": 107,
      "chip": "ym2612"
    },
    {
      "channel": 1,
      "note": 80,
      "start": 19.6311,
      "duration": 0.0669,
      "velocity": 78,
      "chip": "ym2612"
    },
    {
      "channel": 2,
      "note": 64,
      "start": 19.6316,
      "duration": 0.0498,
      "velocity": 94,
      "chip": "ym2612"
    },
    {
      "channel": 4,
      "note": 80,
      "start": 19.6822,
      "duration": 0.0679,
      "velocity": 78,
      "chip": "ym2612"
    },
    {
      "channel": 1,
      "note": 80,
      "start": 19.7489,
      "duration": 0.0139,
      "velocity": 78,
      "chip": "ym2612"
    },
    {
      "channel": 2,
      "note": 52,
      "start": 19.7494,
      "duration": 0.0431,
      "velocity": 94,
      "chip": "ym2612"
    },
    {
      "channel": 4,
      "note": 80,
      "start": 19.7603,
      "duration": 0.013,
      "velocity": 78,
      "chip": "ym2612"
    },
    {
      "channel": 1,
      "note": 92,
      "start": 19.7724,
      "duration": 0.0132,
      "velocity": 78,
      "chip": "ym2612"
    },
    {
      "channel": 4,
      "note": 80,
      "start": 19.7831,
      "duration": 0.014,
      "velocity": 78,
      "chip": "ym2612"
    },
    {
      "channel": 3,
      "note": 83,
      "start": 19.7863,
      "duration": 0.2001,
      "velocity": 107,
      "chip": "ym2612"
    },
    {
      "channel": 0,
      "note": 76,
      "start": 19.7954,
      "duration": 0.5502,
      "velocity": 107,
      "chip": "ym2612"
    },
    {
      "channel": 1,
      "note": 80,
      "start": 19.7959,
      "duration": 0.0135,
      "velocity": 78,
      "chip": "ym2612"
    },
    {
      "channel": 2,
      "note": 64,
      "start": 19.7965,
      "duration": 0.0097,
      "velocity": 94,
      "chip": "ym2612"
    },
    {
      "channel": 4,
      "note": 92,
      "start": 19.807,
      "duration": 0.0461,
      "velocity": 78,
      "chip": "ym2612"
    },
    {
      "channel": 1,
      "note": 80,
      "start": 19.8519,
      "duration": 0.0672,
      "velocity": 78,
      "chip": "ym2612"
    },
    {
      "channel": 2,
      "note": 64,
      "start": 19.8524,
      "duration": 0.0501,
      "velocity": 94,
      "chip": "ym2612"
    },
    {
      "channel": 4,
      "note": 80,
      "start": 19.9033,
      "duration": 0.0691,
      "velocity": 78,
      "chip": "ym2612"
    },
    {
      "channel": 1,
      "note": 80,
      "start": 19.97,
      "duration": 0.0147,
      "velocity": 78,
      "chip": "ym2612"
    },
    {
      "channel": 2,
      "note": 52,
      "start": 19.9705,
      "duration": 0.1232,
      "velocity": 94,
      "chip": "ym2612"
    },
    {
      "channel": 4,
      "note": 80,
      "start": 19.9834,
      "duration": 0.0139,
      "velocity": 78,
      "chip": "ym2612"
    },
    {
      "channel": 3,
      "note": 80,
      "start": 19.9868,
      "duration": 0.4208,
      "velocity": 107,
      "chip": "ym2612"
    },
    {
      "channel": 1,
      "note": 92,
      "start": 19.9964,
      "duration": 0.0637,
      "velocity": 78,
      "chip": "ym2612"
    },
    {
      "channel": 4,
      "note": 80,
      "start": 20.0445,
      "duration": 0.067,
      "velocity": 78,
      "chip": "ym2612"
    },
    {
      "channel": 1,
      "note": 80,
      "start": 20.1103,
      "duration": 0.067,
      "velocity": 78,
      "chip": "ym2612"
    },
    {
      "channel": 2,
      "note": 64,
      "start": 20.1108,
      "duration": 0.0499,
      "velocity": 94,
      "chip": "ym2612"
    },
    {
      "channel": 4,
      "note": 92,
      "start": 20.1615,
      "duration": 0.0677,
      "velocity": 78,
      "chip": "ym2612"
    },
    {
      "channel": 1,
      "note": 80,
      "start": 20.2281,
      "duration": 0.0673,
      "velocity": 78,
      "chip": "ym2612"
    },
    {
      "channel": 2,
      "note": 64,
      "start": 20.2286,
      "duration": 0.0501,
      "velocity": 94,
      "chip": "ym2612"
    },
    {
      "channel": 4,
      "note": 80,
      "start": 20.2795,
      "duration": 0.0681,
      "velocity": 78,
      "chip": "ym2612"
    },
    {
      "channel": 0,
      "note": 83,
      "start": 20.3458,
      "duration": 0.2211,
      "velocity": 107,
      "chip": "ym2612"
    },
    {
      "channel": 1,
      "note": 80,
      "start": 20.3465,
      "duration": 0.0141,
      "velocity": 78,
      "chip": "ym2612"
    },
    {
      "channel": 2,
      "note": 52,
      "start": 20.347,
      "duration": 0.0431,
      "velocity": 94,
      "chip": "ym2612"
    },
    {
      "channel": 4,
      "note": 80,
      "start": 20.358,
      "duration": 0.0131,
      "velocity": 78,
      "chip": "ym2612"
    },
    {
      "channel": 1,
      "note": 92,
      "start": 20.3702,
      "duration": 0.0133,
      "velocity": 78,
      "chip": "ym2612"
    },
    {
      "channel": 4,
      "note": 80,
      "start": 20.381,
      "duration": 0.0134,
      "velocity": 78,
      "chip": "ym2612"
    },
    {
      "channel": 1,
      "note": 80,
      "start": 20.3933,
      "duration": 0.0137,
      "velocity": 78,
      "chip": "ym2612"
    },
    {
      "channel": 2,
      "note": 64,
      "start": 20.3938,
      "duration": 0.0099,
      "velocity": 94,
      "chip": "ym2612"
    },
    {
      "channel": 4,
      "note": 92,
      "start": 20.4045,
      "duration": 0.0461,
      "velocity": 78,
      "chip": "ym2612"
    },
    {
      "channel": 3,
      "note": 76,
      "start": 20.4079,
      "duration": 0.3667,
      "velocity": 107,
      "chip": "ym2612"
    },
    {
      "channel": 1,
      "note": 80,
      "start": 20.4495,
      "duration": 0.0672,
      "velocity": 78,
      "chip": "ym2612"
    },
    {
      "channel": 2,
      "note": 64,
      "start": 20.4499,
      "duration": 0.0501,
      "velocity": 94,
      "chip": "ym2612"
    },
    {
      "channel": 4,
      "note": 80,
      "start": 20.5008,
      "duration": 0.0685,
      "velocity": 78,
      "chip": "ym2612"
    },
    {
      "channel": 0,
      "note": 81,
      "start": 20.5672,
      "duration": 0.4246,
      "velocity": 107,
      "chip": "ym2612"
    },
    {
      "channel": 1,
      "note": 81,
      "start": 20.568,
      "duration": 0.0145,
      "velocity": 78,
      "chip": "ym2612"
    },
    {
      "channel": 2,
      "note": 50,
      "start": 20.5686,
      "duration": 0.1213,
      "velocity": 94,
      "chip": "ym2612"
    },
    {
      "channel": 4,
      "note": 80,
      "start": 20.58,
      "duration": 0.013,
      "velocity": 78,
      "chip": "ym2612"
    },
    {
      "channel": 1,
      "note": 93,
      "start": 20.592,
      "duration": 0.064,
      "velocity": 78,
      "chip": "ym2612"
    },
    {
      "channel": 4,
      "note": 81,
      "start": 20.6402,
      "duration": 0.0678,
      "velocity": 78,
      "chip": "ym2612"
    },
    {
      "channel": 1,
      "note": 81,
      "start": 20.7068,
      "duration": 0.0672,
      "velocity": 78,
      "chip": "ym2612"
    },
    {
      "channel": 2,
      "note": 62,
      "start": 20.7073,
      "duration": 0.0501,
      "velocity": 94,
      "chip": "ym2612"
    },
    {
      "channel": 4,
      "note": 93,
      "start": 20.7582,
      "duration": 0.0678,
      "velocity": 78,
      "chip": "ym2612"
    },
    {
      "channel": 3,
      "note": 83,
      "start": 20.7749,
      "duration": 0.4059,
      "velocity": 107,
      "chip": "ym2612"
    },
    {
      "channel": 1,
      "note": 81,
      "start": 20.8248,
      "duration": 0.0672,
      "velocity": 78,
      "chip": "ym2612"
    },
    {
      "channel": 2,
      "note": 62,
      "start": 20.8253,
      "duration": 0.0501,
      "velocity": 94,
      "chip": "ym2612"
    },
    {
      "channel": 4,
      "note": 81,
      "start": 20.8762,
      "duration": 0.0679,
      "velocity": 78,
      "chip": "ym2612"
    },
    {
      "channel": 1,
      "note": 81,
      "start": 20.9429,
      "duration": 0.0143,
      "velocity": 78,
      "chip": "ym2612"
    },
    {
      "channel": 2,
      "note": 50,
      "start": 20.9434,
      "duration": 0.0457,
      "velocity": 94,
      "chip": "ym2612"
    },
    {
      "channel": 4,
      "note": 81,
      "start": 20.9546,
      "duration": 0.0146,
      "velocity": 78,
      "chip": "ym2612"
    },
    {
      "channel": 1,
      "note": 93,
      "start": 20.9671,
      "duration": 0.0139,
      "velocity": 78,
      "chip": "ym2612"
    },
    {
      "channel": 4,
      "note": 81,
      "start": 20.9795,
      "duration": 0.0142,
      "velocity": 78,
      "chip": "ym2612"
    },
    {
      "channel": 0,
      "note": 78,
      "start": 20.992,
      "duration": 0.1729,
      "velocity": 107,
      "chip": "ym2612"
    },
    {
      "channel": 1,
      "note": 81,
      "start": 20.9926,
      "duration": 0.0138,
      "velocity": 78,
      "chip": "ym2612"
    },
    {
      "channel": 2,
      "note": 62,
      "start": 20.9931,
      "duration": 0.0099,
      "velocity": 94,
      "chip": "ym2612"
    },
    {
      "channel": 4,
      "note": 93,
      "start": 21.0039,
      "duration": 0.0448,
      "velocity": 78,
      "chip": "ym2612"
    },
    {
      "channel": 1,
      "note": 81,
      "start": 21.0474,
      "duration": 0.0673,
      "velocity": 78,
      "chip": "ym2612"
    },
    {
      "channel": 2,
      "note": 62,
      "start": 21.0479,
      "duration": 0.0501,
      "velocity": 94,
      "chip": "ym2612"
    },
    {
      "channel": 4,
      "note": 81,
      "start": 21.0989,
      "duration": 0.0681,
      "velocity": 78,
      "chip": "ym2612"
    },
    {
      "channel": 0,
      "note": 85,
      "start": 21.1652,
      "duration": 0.3752,
      "velocity": 107,
      "chip": "ym2612"
    },
    {
      "channel": 1,
      "note": 81,
      "start": 21.1659,
      "duration": 0.0144,
      "velocity": 78,
      "chip": "ym2612"
    },
    {
      "channel": 2,
      "note": 50,
      "start": 21.1664,
      "duration": 0.1216,
      "velocity": 94,
      "chip": "ym2612"
    },
    {
      "channel": 4,
      "note": 81,
      "start": 21.1778,
      "duration": 0.0134,
      "velocity": 78,
      "chip": "ym2612"
    },
    {
      "channel": 3,
      "note": 81,
      "start": 21.1811,
      "duration": 0.1916,
      "velocity": 107,
      "chip": "ym2612"
    },
    {
      "channel": 1,
      "note": 93,
      "start": 21.1903,
      "duration": 0.0638,
      "velocity": 78,
      "chip": "ym2612"
    },
    {
      "channel": 4,
      "note": 81,
      "start": 21.2382,
      "duration": 0.0678,
      "velocity": 78,
      "chip": "ym2612"
    },
    {
      "channel": 1,
      "note": 81,
      "start": 21.3048,
      "duration": 0.0673,
      "velocity": 78,
      "chip": "ym2612"
    },
    {
      "channel": 2,
      "note": 62,
      "start": 21.3054,
      "duration": 0.0501,
      "velocity": 94,
      "chip": "ym2612"
    },
    {
      "channel": 4,
      "note": 93,
      "start": 21.3562,
      "duration": 0.0678,
      "velocity": 78,
      "chip": "ym2612"
    },
    {
      "channel": 3,
      "note": 78,
      "start": 21.373,
      "duration": 0.2292,
      "velocity": 107,
      "chip": "ym2612"
    },
    {
      "channel": 1,
      "note": 81,
      "start": 21.4228,
      "duration": 0.0673,
      "velocity": 78,
      "chip": "ym2612"
    },
    {
      "channel": 2,
      "note": 62,
      "start": 21.4234,
      "duration": 0.0501,
      "velocity": 94,
      "chip": "ym2612"
    },
    {
      "channel": 4,
      "note": 81,
      "start": 21.4742,
      "duration": 0.0682,
      "velocity": 78,
      "chip": "ym2612"
    },
    {
      "channel": 0,
      "note": 83,
      "start": 21.5406,
      "duration": 0.0465,
      "velocity": 107,
      "chip": "ym2612"
    },
    {
      "channel": 1,
      "note": 81,
      "start": 21.5413,
      "duration": 0.0138,
      "velocity": 78,
      "chip": "ym2612"
    },
    {
      "channel": 2,
      "note": 50,
      "start": 21.5417,
      "duration": 0.0426,
      "velocity": 94,
      "chip": "ym2612"
    },
    {
      "channel": 4,
      "note": 81,
      "start": 21.5527,
      "duration": 0.0128,
      "velocity": 78,
      "chip": "ym2612"
    },
    {
      "channel": 1,
      "note": 93,
      "start": 21.5646,
      "duration": 0.0131,
      "velocity": 78,
      "chip": "ym2612"
    },
    {
      "channel": 4,
      "note": 81,
      "start": 21.5753,
      "duration": 0.0138,
      "velocity": 78,
      "chip": "ym2612"
    },
    {
      "channel": 0,
      "note": 81,
      "start": 21.5873,
      "duration": 0.1742,
      "velocity": 107,
      "chip": "ym2612"
    },
    {
      "channel": 1,
      "note": 81,
      "start": 21.5878,
      "duration": 0.0137,
      "velocity": 78,
      "chip": "ym2612"
    },
    {
      "channel": 2,
      "note": 62,
      "start": 21.5883,
      "duration": 0.0099,
      "velocity": 94,
      "chip": "ym2612"
    },
    {
      "channel": 4,
      "note": 93,
      "start": 21.5991,
      "duration": 0.046,
      "velocity": 78,
      "chip": "ym2612"
    },
    {
      "channel": 3,
      "note": 85,
      "start": 21.6025,
      "duration": 0.175,
      "velocity": 107,
      "chip": "ym2612"
    },
    {
      "channel": 1,
      "note": 81,
      "start": 21.6439,
      "duration": 0.0672,
      "velocity": 78,
      "chip": "ym2612"
    },
    {
      "channel": 2,
      "note": 62,
      "start": 21.6444,
      "duration": 0.0501,
      "velocity": 94,
      "chip": "ym2612"
    },
    {
      "channel": 4,
      "note": 81,
      "start": 21.6953,
      "duration": 0.0683,
      "velocity": 78,
      "chip": "ym2612"
    },
    {
      "channel": 0,
      "note": 83,
      "start": 21.7617,
      "duration": 0.5962,
      "velocity": 107,
      "chip": "ym2612"
    },
    {
      "channel": 1,
      "note": 83,
      "start": 21.7625,
      "duration": 0.0144,
      "velocity": 78,
      "chip": "ym2612"
    },
    {
      "channel": 2,
      "note": 52,
      "start": 21.763,
      "duration": 0.1215,
      "velocity": 94,
      "chip": "ym2612"
    },
    {
      "channel": 4,
      "note": 81,
      "start": 21.7745,
      "duration": 0.0133,
      "velocity": 78,
      "chip": "ym2612"
    },
    {
      "channel": 3,
      "note": 83,
      "start": 21.7778,
      "duration": 0.1926,
      "velocity": 107,
      "chip": "ym2612"
    },
    {
      "channel": 1,
      "note": 95,
      "start": 21.7869,
      "duration": 0.0637,
      "velocity": 78,
      "chip": "ym2612"
    },
    {
      "channel": 4,
      "note": 83,
      "start": 21.8347,
      "duration": 0.069,
      "velocity": 78,
      "chip": "ym2612"
    },
    {
      "channel": 1,
      "note": 83,
      "start": 21.9013,
      "duration": 0.0684,
      "velocity": 78,
      "chip": "ym2612"
    },
    {
      "channel": 2,
      "note": 64,
      "start": 21.903,
      "duration": 0.0501,
      "velocity": 94,
      "chip": "ym2612"
    },
    {
      "channel": 4,
      "note": 95,
      "start": 21.954,
      "duration": 0.0674,
      "velocity": 78,
      "chip": "ym2612"
    },
    {
      "channel": 3,
      "note": 81,
      "start": 21.9707,
      "duration": 0.5949,
      "velocity": 107,
      "chip": "ym2612"
    },
    {
      "channel": 1,
      "note": 83,
      "start": 22.0202,
      "duration": 0.0665,
      "velocity": 78,
      "chip": "ym2612"
    },
    {
      "channel": 2,
      "note": 64,
      "start": 22.0207,
      "duration": 0.0495,
      "velocity": 94,
      "chip": "ym2612"
    },
    {
      "channel": 4,
      "note": 83,
      "start": 22.0711,
      "duration": 0.0675,
      "velocity": 78,
      "chip": "ym2612"
    },
    {
      "channel": 1,
      "note": 83,
      "start": 22.1374,
      "duration": 0.0139,
      "velocity": 78,
      "chip": "ym2612"
    },
    {
      "channel": 2,
      "note": 52,
      "start": 22.1379,
      "duration": 0.043,
      "velocity": 94,
      "chip": "ym2612"
    },
    {
      "channel": 4,
      "note": 83,
      "start": 22.1489,
      "duration": 0.013,
      "velocity": 78,
      "chip": "ym2612"
    },
    {
      "channel": 1,
      "note": 95,
      "start": 22.1611,
      "duration": 0.0132,
      "velocity": 78,
      "chip": "ym2612"
    },
    {
      "channel": 4,
      "note": 83,
      "start": 22.1718,
      "duration": 0.0135,
      "velocity": 78,
      "chip": "ym2612"
    },
    {
      "channel": 1,
      "note": 83,
      "start": 22.1841,
      "duration": 0.0138,
      "velocity": 78,
      "chip": "ym2612"
    },
    {
      "channel": 2,
      "note": 64,
      "start": 22.1846,
      "duration": 0.0098,
      "velocity": 94,
      "chip": "ym2612"
    },
    {
      "channel": 4,
      "note": 95,
      "start": 22.1954,
      "duration": 0.0463,
      "velocity": 78,
      "chip": "ym2612"
    },
    {
      "channel": 1,
      "note": 83,
      "start": 22.2405,
      "duration": 0.0673,
      "velocity": 78,
      "chip": "ym2612"
    },
    {
      "channel": 2,
      "note": 64,
      "start": 22.241,
      "duration": 0.0501,
      "velocity": 94,
      "chip": "ym2612"
    },
    {
      "channel": 4,
      "note": 83,
      "start": 22.2919,
      "duration": 0.0681,
      "velocity": 78,
      "chip": "ym2612"
    },
    {
      "channel": 0,
      "note": 81,
      "start": 22.3582,
      "duration": 0.3751,
      "velocity": 107,
      "chip": "ym2612"
    },
    {
      "channel": 1,
      "note": 83,
      "start": 22.3589,
      "duration": 0.0144,
      "velocity": 78,
      "chip": "ym2612"
    },
    {
      "channel": 2,
      "note": 52,
      "start": 22.3594,
      "duration": 0.1215,
      "velocity": 94,
      "chip": "ym2612"
    },
    {
      "channel": 4,
      "note": 83,
      "start": 22.3708,
      "duration": 0.013,
      "velocity": 78,
      "chip": "ym2612"
    },
    {
      "channel": 1,
      "note": 95,
      "start": 22.3829,
      "duration": 0.0641,
      "velocity": 78,
      "chip": "ym2612"
    },
    {
      "channel": 4,
      "note": 83,
      "start": 22.4312,
      "duration": 0.0678,
      "velocity": 78,
      "chip": "ym2612"
    },
    {
      "channel": 1,
      "note": 83,
      "start": 22.4978,
      "duration": 0.0672,
      "velocity": 78,
      "chip": "ym2612"
    },
    {
      "channel": 2,
      "note": 64,
      "start": 22.4983,
      "duration": 0.0501,
      "velocity": 94,
      "chip": "ym2612"
    },
    {
      "channel": 4,
      "note": 95,
      "start": 22.5492,
      "duration": 0.0677,
      "velocity": 78,
      "chip": "ym2612"
    },
    {
      "channel": 3,
      "note": 83,
      "start": 22.5659,
      "duration": 0.2295,
      "velocity": 107,
      "chip": "ym2612"
    },
    {
      "channel": 1,
      "note": 83,
      "start": 22.6158,
      "duration": 0.0673,
      "velocity": 78,
      "chip": "ym2612"
    },
    {
      "channel": 2,
      "note": 64,
      "start": 22.6163,
      "duration": 0.0501,
      "velocity": 94,
      "chip": "ym2612"
    },
    {
      "channel": 4,
      "note": 83,
      "start": 22.6672,
      "duration": 0.0681,
      "velocity": 78,
      "chip": "ym2612"
    },
    {
      "channel": 0,
      "note": 80,
      "start": 22.7335,
      "duration": 0.2222,
      "velocity": 107,
      "chip": "ym2612"
    },
    {
      "channel": 1,
      "note": 83,
      "start": 22.7341,
      "duration": 0.0139,
      "velocity": 78,
      "chip": "ym2612"
    },
    {
      "channel": 2,
      "note": 52,
      "start": 22.7346,
      "duration": 0.0428,
      "velocity": 94,
      "chip": "ym2612"
    },
    {
      "channel": 4,
      "note": 83,
      "start": 22.7455,
      "duration": 0.013,
      "velocity": 78,
      "chip": "ym2612"
    },
    {
      "channel": 1,
      "note": 95,
      "start": 22.7576,
      "duration": 0.0133,
      "velocity": 78,
      "chip": "ym2612"
    },
    {
      "channel": 4,
      "note": 83,
      "start": 22.7683,
      "duration": 0.0136,
      "velocity": 78,
      "chip": "ym2612"
    },
    {
      "channel": 1,
      "note": 83,
      "start": 22.7807,
      "duration": 0.0141,
      "velocity": 78,
      "chip": "ym2612"
    },
    {
      "channel": 2,
      "note": 64,
      "start": 22.7812,
      "duration": 0.0101,
      "velocity": 94,
      "chip": "ym2612"
    },
    {
      "channel": 4,
      "note": 95,
      "start": 22.7934,
      "duration": 0.0466,
      "velocity": 78,
      "chip": "ym2612"
    },
    {
      "channel": 3,
      "note": 81,
      "start": 22.7969,
      "duration": 0.3658,
      "velocity": 107,
      "chip": "ym2612"
    },
    {
      "channel": 1,
      "note": 83,
      "start": 22.8387,
      "duration": 0.0672,
      "velocity": 78,
      "chip": "ym2612"
    },
    {
      "channel": 2,
      "note": 64,
      "start": 22.8393,
      "duration": 0.0501,
      "velocity": 94,
      "chip": "ym2612"
    },
    {
      "channel": 4,
      "note": 83,
      "start": 22.8902,
      "duration": 0.0678,
      "velocity": 78,
      "chip": "ym2612"
    },
    {
      "channel": 0,
      "note": 78,
      "start": 22.9559,
      "duration": 0.4213,
      "velocity": 107,
      "chip": "ym2612"
    },
    {
      "channel": 1,
      "note": 78,
      "start": 22.9567,
      "duration": 0.0144,
      "velocity": 78,
      "chip": "ym2612"
    },
    {
      "channel": 2,
      "note": 50,
      "start": 22.9573,
      "duration": 0.1207,
      "velocity": 94,
      "chip": "ym2612"
    },
    {
      "channel": 4,
      "note": 83,
      "start": 22.9687,
      "duration": 0.0129,
      "velocity": 78,
      "chip": "ym2612"
    },
    {
      "channel": 1,
      "note": 90,
      "start": 22.9807,
      "duration": 0.0635,
      "velocity": 78,
      "chip": "ym2612"
    },
    {
      "channel": 4,
      "note": 78,
      "start": 23.0283,
      "duration": 0.0677,
      "velocity": 78,
      "chip": "ym2612"
    },
    {
      "channel": 1,
      "note": 78,
      "start": 23.0948,
      "duration": 0.0673,
      "velocity": 78,
      "chip": "ym2612"
    },
    {
      "channel": 2,
      "note": 62,
      "start": 23.0954,
      "duration": 0.0501,
      "velocity": 94,
      "chip": "ym2612"
    },
    {
      "channel": 4,
      "note": 90,
      "start": 23.1463,
      "duration": 0.0677,
      "velocity": 78,
      "chip": "ym2612"
    },
    {
      "channel": 3,
      "note": 80,
      "start": 23.163,
      "duration": 0.4037,
      "velocity": 107,
      "chip": "ym2612"
    },
    {
      "channel": 1,
      "note": 78,
      "start": 23.2128,
      "duration": 0.0673,
      "velocity": 78,
      "chip": "ym2612"
    },
    {
      "channel": 2,
      "note": 62,
      "start": 23.2134,
      "duration": 0.0501,
      "velocity": 94,
      "chip": "ym2612"
    },
    {
      "channel": 4,
      "note": 78,
      "start": 23.2642,
      "duration": 0.0679,
      "velocity": 78,
      "chip": "ym2612"
    },
    {
      "channel": 1,
      "note": 78,
      "start": 23.331,
      "duration": 0.014,
      "velocity": 78,
      "chip": "ym2612"
    },
    {
      "channel": 2,
      "note": 50,
      "start": 23.3315,
      "duration": 0.043,
      "velocity": 94,
      "chip": "ym2612"
    },
    {
      "channel": 4,
      "note": 78,
      "start": 23.3425,
      "duration": 0.0129,
      "velocity": 78,
      "chip": "ym2612"
    },
    {
      "channel": 1,
      "note": 90,
      "start": 23.3546,
      "duration": 0.0133,
      "velocity": 78,
      "chip": "ym2612"
    },
    {
      "channel": 4,
      "note": 78,
      "start": 23.3654,
      "duration": 0.0138,
      "velocity": 78,
      "chip": "ym2612"
    },
    {
      "channel": 0,
      "note": 81,
      "start": 23.3774,
      "duration": 0.5491,
      "velocity": 107,
      "chip": "ym2612"
    },
    {
      "channel": 1,
      "note": 78,
      "start": 23.3779,
      "duration": 0.0136,
      "velocity": 78,
      "chip": "ym2612"
    },
    {
      "channel": 2,
      "note": 62,
      "start": 23.3784,
      "duration": 0.0098,
      "velocity": 94,
      "chip": "ym2612"
    },
    {
      "channel": 4,
      "note": 90,
      "start": 23.389,
      "duration": 0.0459,
      "velocity": 78,
      "chip": "ym2612"
    },
    {
      "channel": 1,
      "note": 78,
      "start": 23.4337,
      "duration": 0.0673,
      "velocity": 78,
      "chip": "ym2612"
    },
    {
      "channel": 2,
      "note": 62,
      "start": 23.4343,
      "duration": 0.0501,
      "velocity": 94,
      "chip": "ym2612"
    },
    {
      "channel": 4,
      "note": 78,
      "start": 23.4852,
      "duration": 0.0678,
      "velocity": 78,
      "chip": "ym2612"
    },
    {
      "channel": 1,
      "note": 78,
      "start": 23.5519,
      "duration": 0.0143,
      "velocity": 78,
      "chip": "ym2612"
    },
    {
      "channel": 2,
      "note": 50,
      "start": 23.5524,
      "duration": 0.1218,
      "velocity": 94,
      "chip": "ym2612"
    },
    {
      "channel": 4,
      "note": 78,
      "start": 23.5637,
      "duration": 0.0134,
      "velocity": 78,
      "chip": "ym2612"
    },
    {
      "channel": 3,
      "note": 78,
      "start": 23.567,
      "duration": 0.4227,
      "velocity": 107,
      "chip": "ym2612"
    },
    {
      "channel": 1,
      "note": 90,
      "start": 23.5763,
      "duration": 0.0639,
      "velocity": 78,
      "chip": "ym2612"
    },
    {
      "channel": 4,
      "note": 78,
      "start": 23.6244,
      "duration": 0.0678,
      "velocity": 78,
      "chip": "ym2612"
    },
    {
      "channel": 1,
      "note": 78,
      "start": 23.691,
      "duration": 0.0673,
      "velocity": 78,
      "chip": "ym2612"
    },
    {
      "channel": 2,
      "note": 62,
      "start": 23.6915,
      "duration": 0.0501,
      "velocity": 94,
      "chip": "ym2612"
    },
    {
      "channel": 4,
      "note": 90,
      "start": 23.7424,
      "duration": 0.069,
      "velocity": 78,
      "chip": "ym2612"
    },
    {
      "channel": 1,
      "note": 78,
      "start": 23.809,
      "duration": 0.0673,
      "velocity": 78,
      "chip": "ym2612"
    },
    {
      "channel": 2,
      "note": 62,
      "start": 23.8095,
      "duration": 0.0501,
      "velocity": 94,
      "chip": "ym2612"
    },
    {
      "channel": 4,
      "note": 78,
      "start": 23.8617,
      "duration": 0.0681,
      "velocity": 78,
      "chip": "ym2612"
    },
    {
      "channel": 0,
      "note": 85,
      "start": 23.9279,
      "duration": 0.2201,
      "velocity": 107,
      "chip": "ym2612"
    },
    {
      "channel": 1,
      "note": 78,
      "start": 23.9286,
      "duration": 0.0141,
      "velocity": 78,
      "chip": "ym2612"
    },
    {
      "channel": 2,
      "note": 50,
      "start": 23.9291,
      "duration": 0.0433,
      "velocity": 94,
      "chip": "ym2612"
    },
    {
      "channel": 4,
      "note": 78,
      "start": 23.9403,
      "duration": 0.0131,
      "velocity": 78,
      "chip": "ym2612"
    },
    {
      "channel": 1,
      "note": 90,
      "start": 23.9525,
      "duration": 0.0133,
      "velocity": 78,
      "chip": "ym2612"
    },
    {
      "channel": 4,
      "note": 78,
      "start": 23.9633,
      "duration": 0.0133,
      "velocity": 78,
      "chip": "ym2612"
    },
    {
      "channel": 1,
      "note": 78,
      "start": 23.9755,
      "duration": 0.0136,
      "velocity": 78,
      "chip": "ym2612"
    },
    {
      "channel": 2,
      "note": 62,
      "start": 23.976,
      "duration": 0.0098,
      "velocity": 94,
      "chip": "ym2612"
    },
    {
      "channel": 4,
      "note": 90,
      "start": 23.9867,
      "duration": 0.0449,
      "velocity": 78,
      "chip": "ym2612"
    },
    {
      "channel": 3,
      "note": 81,
      "start": 23.9901,
      "duration": 0.3654,
      "velocity": 107,
      "chip": "ym2612"
    },
    {
      "channel": 1,
      "note": 78,
      "start": 24.0304,
      "duration": 0.0673,
      "velocity": 78,
      "chip": "ym2612"
    },
    {
      "channel": 2,
      "note": 62,
      "start": 24.031,
      "duration": 0.0501,
      "velocity": 94,
      "chip": "ym2612"
    },
    {
      "channel": 4,
      "note": 78,
      "start": 24.0818,
      "duration": 0.0683,
      "velocity": 78,
      "chip": "ym2612"
    },
    {
      "channel": 0,
      "note": 83,
      "start": 24.1482,
      "duration": 0.257,
      "velocity": 107,
      "chip": "ym2612"
    },
    {
      "channel": 1,
      "note": 80,
      "start": 24.149,
      "duration": 0.0142,
      "velocity": 78,
      "chip": "ym2612"
    },
    {
      "channel": 2,
      "note": 52,
      "start": 24.1495,
      "duration": 0.1212,
      "velocity": 94,
      "chip": "ym2612"
    },
    {
      "channel": 4,
      "note": 78,
      "start": 24.1608,
      "duration": 0.0128,
      "velocity": 78,
      "chip": "ym2612"
    },
    {
      "channel": 1,
      "note": 92,
      "start": 24.1728,
      "duration": 0.0641,
      "velocity": 78,
      "chip": "ym2612"
    },
    {
      "channel": 4,
      "note": 80,
      "start": 24.2211,
      "duration": 0.0677,
      "velocity": 78,
      "chip": "ym2612"
    },
    {
      "channel": 1,
      "note": 80,
      "start": 24.2876,
      "duration": 0.0673,
      "velocity": 78,
      "chip": "ym2612"
    },
    {
      "channel": 2,
      "note": 64,
      "start": 24.2881,
      "duration": 0.0501,
      "velocity": 94,
      "chip": "ym2612"
    },
    {
      "channel": 4,
      "note": 92,
      "start": 24.3391,
      "duration": 0.068,
      "velocity": 78,
      "chip": "ym2612"
    },
    {
      "channel": 3,
      "note": 85,
      "start": 24.3557,
      "duration": 0.2051,
      "velocity": 107,
      "chip": "ym2612"
    },
    {
      "channel": 0,
      "note": 80,
      "start": 24.4054,
      "duration": 0.1645,
      "velocity": 107,
      "chip": "ym2612"
    },
    {
      "channel": 1,
      "note": 80,
      "start": 24.4059,
      "duration": 0.0669,
      "velocity": 78,
      "chip": "ym2612"
    },
    {
      "channel": 2,
      "note": 64,
      "start": 24.4064,
      "duration": 0.0498,
      "velocity": 94,
      "chip": "ym2612"
    },
    {
      "channel": 4,
      "note": 80,
      "start": 24.457,
      "duration": 0.0679,
      "velocity": 78,
      "chip": "ym2612"
    },
    {
      "channel": 1,
      "note": 80,
      "start": 24.5237,
      "duration": 0.0139,
      "velocity": 78,
      "chip": "ym2612"
    },
    {
      "channel": 2,
      "note": 52,
      "start": 24.5242,
      "duration": 0.0431,
      "velocity": 94,
      "chip": "ym2612"
    },
    {
      "channel": 4,
      "note": 80,
      "start": 24.5351,
      "duration": 0.0129,
      "velocity": 78,
      "chip": "ym2612"
    },
    {
      "channel": 1,
      "note": 92,
      "start": 24.5471,
      "duration": 0.0132,
      "velocity": 78,
      "chip": "ym2612"
    },
    {
      "channel": 4,
      "note": 80,
      "start": 24.5578,
      "duration": 0.014,
      "velocity": 78,
      "chip": "ym2612"
    },
    {
      "channel": 3,
      "note": 83,
      "start": 24.5611,
      "duration": 0.2001,
      "velocity": 107,
      "chip": "ym2612"
    },
    {
      "channel": 0,
      "note": 76,
      "start": 24.5702,
      "duration": 0.5501,
      "velocity": 107,
      "chip": "ym2612"
    },
    {
      "channel": 1,
      "note": 80,
      "start": 24.5707,
      "duration": 0.0134,
      "velocity": 78,
      "chip": "ym2612"
    },
    {
      "channel": 2,
      "note": 64,
      "start": 24.5712,
      "duration": 0.0096,
      "velocity": 94,
      "chip": "ym2612"
    },
    {
      "channel": 4,
      "note": 92,
      "start": 24.5816,
      "duration": 0.0461,
      "velocity": 78,
      "chip": "ym2612"
    },
    {
      "channel": 1,
      "note": 80,
      "start": 24.6266,
      "duration": 0.0673,
      "velocity": 78,
      "chip": "ym2612"
    },
    {
      "channel": 2,
      "note": 64,
      "start": 24.6271,
      "duration": 0.0501,
      "velocity": 94,
      "chip": "ym2612"
    },
    {
      "channel": 4,
      "note": 80,
      "start": 24.678,
      "duration": 0.0691,
      "velocity": 78,
      "chip": "ym2612"
    },
    {
      "channel": 1,
      "note": 80,
      "start": 24.7447,
      "duration": 0.0148,
      "velocity": 78,
      "chip": "ym2612"
    },
    {
      "channel": 2,
      "note": 52,
      "start": 24.7463,
      "duration": 0.1218,
      "velocity": 94,
      "chip": "ym2612"
    },
    {
      "channel": 4,
      "note": 80,
      "start": 24.7581,
      "duration": 0.0139,
      "velocity": 78,
      "chip": "ym2612"
    },
    {
      "channel": 3,
      "note": 80,
      "start": 24.7615,
      "duration": 0.4205,
      "velocity": 107,
      "chip": "ym2612"
    },
    {
      "channel": 1,
      "note": 92,
      "start": 24.7711,
      "duration": 0.0633,
      "velocity": 78,
      "chip": "ym2612"
    },
    {
      "channel": 4,
      "note": 80,
      "start": 24.8188,
      "duration": 0.0671,
      "velocity": 78,
      "chip": "ym2612"
    },
    {
      "channel": 1,
      "note": 80,
      "start": 24.8848,
      "duration": 0.0673,
      "velocity": 78,
      "chip": "ym2612"
    },
    {
      "channel": 2,
      "note": 64,
      "start": 24.8853,
      "duration": 0.0501,
      "velocity": 94,
      "chip": "ym2612"
    },
    {
      "channel": 4,
      "note": 92,
      "start": 24.9363,
      "duration": 0.0677,
      "velocity": 78,
      "chip": "ym2612"
    },
    {
      "channel": 1,
      "note": 80,
      "start": 25.0028,
      "duration": 0.0672,
      "velocity": 78,
      "chip": "ym2612"
    },
    {
      "channel": 2,
      "note": 64,
      "start": 25.0032,
      "duration": 0.0501,
      "velocity": 94,
      "chip": "ym2612"
    },
    {
      "channel": 4,
      "note": 80,
      "start": 25.0543,
      "duration": 0.068,
      "velocity": 78,
      "chip": "ym2612"
    },
    {
      "channel": 0,
      "note": 83,
      "start": 25.1205,
      "duration": 0.2207,
      "velocity": 107,
      "chip": "ym2612"
    },
    {
      "channel": 1,
      "note": 80,
      "start": 25.1212,
      "duration": 0.0139,
      "velocity": 78,
      "chip": "ym2612"
    },
    {
      "channel": 2,
      "note": 52,
      "start": 25.1217,
      "duration": 0.043,
      "velocity": 94,
      "chip": "ym2612"
    },
    {
      "channel": 4,
      "note": 80,
      "start": 25.1326,
      "duration": 0.0131,
      "velocity": 78,
      "chip": "ym2612"
    },
    {
      "channel": 1,
      "note": 92,
      "start": 25.1448,
      "duration": 0.0133,
      "velocity": 78,
      "chip": "ym2612"
    },
    {
      "channel": 4,
      "note": 80,
      "start": 25.1556,
      "duration": 0.0133,
      "velocity": 78,
      "chip": "ym2612"
    },
    {
      "channel": 1,
      "note": 80,
      "start": 25.1678,
      "duration": 0.0135,
      "velocity": 78,
      "chip": "ym2612"
    },
    {
      "channel": 2,
      "note": 64,
      "start": 25.1683,
      "duration": 0.0097,
      "velocity": 94,
      "chip": "ym2612"
    },
    {
      "channel": 4,
      "note": 92,
      "start": 25.1789,
      "duration": 0.046,
      "velocity": 78,
      "chip": "ym2612"
    },
    {
      "channel": 3,
      "note": 76,
      "start": 25.1823,
      "duration": 0.3665,
      "velocity": 107,
      "chip": "ym2612"
    },
    {
      "channel": 1,
      "note": 80,
      "start": 25.2237,
      "duration": 0.0672,
      "velocity": 78,
      "chip": "ym2612"
    },
    {
      "channel": 2,
      "note": 64,
      "start": 25.2242,
      "duration": 0.05,
      "velocity": 94,
      "chip": "ym2612"
    },
    {
      "channel": 4,
      "note": 80,
      "start": 25.2751,
      "duration": 0.0684,
      "velocity": 78,
      "chip": "ym2612"
    },
    {
      "channel": 0,
      "note": 81,
      "start": 25.3415,
      "duration": 0.4245,
      "velocity": 107,
      "chip": "ym2612"
    },
    {
      "channel": 1,
      "note": 81,
      "start": 25.3422,
      "duration": 0.0144,
      "velocity": 78,
      "chip": "ym2612"
    },
    {
      "channel": 2,
      "note": 50,
      "start": 25.3429,
      "duration": 0.1212,
      "velocity": 94,
      "chip": "ym2612"
    },
    {
      "channel": 4,
      "note": 80,
      "start": 25.3541,
      "duration": 0.0129,
      "velocity": 78,
      "chip": "ym2612"
    },
    {
      "channel": 1,
      "note": 93,
      "start": 25.3662,
      "duration": 0.0639,
      "velocity": 78,
      "chip": "ym2612"
    },
    {
      "channel": 4,
      "note": 81,
      "start": 25.4144,
      "duration": 0.0677,
      "velocity": 78,
      "chip": "ym2612"
    },
    {
      "channel": 1,
      "note": 81,
      "start": 25.4809,
      "duration": 0.0673,
      "velocity": 78,
      "chip": "ym2612"
    },
    {
      "channel": 2,
      "note": 62,
      "start": 25.4814,
      "duration": 0.0501,
      "velocity": 94,
      "chip": "ym2612"
    },
    {
      "channel": 4,
      "note": 93,
      "start": 25.5324,
      "duration": 0.0677,
      "velocity": 78,
      "chip": "ym2612"
    },
    {
      "channel": 3,
      "note": 83,
      "start": 25.5491,
      "duration": 0.4058,
      "velocity": 107,
      "chip": "ym2612"
    },
    {
      "channel": 1,
      "note": 81,
      "start": 25.5989,
      "duration": 0.0673,
      "velocity": 78,
      "chip": "ym2612"
    },
    {
      "channel": 2,
      "note": 62,
      "start": 25.5994,
      "duration": 0.0501,
      "velocity": 94,
      "chip": "ym2612"
    },
    {
      "channel": 4,
      "note": 81,
      "start": 25.6503,
      "duration": 0.0679,
      "velocity": 78,
      "chip": "ym2612"
    },
    {
      "channel": 1,
      "note": 81,
      "start": 25.717,
      "duration": 0.0145,
      "velocity": 78,
      "chip": "ym2612"
    },
    {
      "channel": 2,
      "note": 50,
      "start": 25.7175,
      "duration": 0.0456,
      "velocity": 94,
      "chip": "ym2612"
    },
    {
      "channel": 4,
      "note": 81,
      "start": 25.7289,
      "duration": 0.0147,
      "velocity": 78,
      "chip": "ym2612"
    },
    {
      "channel": 1,
      "note": 93,
      "start": 25.7416,
      "duration": 0.015,
      "velocity": 78,
      "chip": "ym2612"
    },
    {
      "channel": 4,
      "note": 81,
      "start": 25.7539,
      "duration": 0.0139,
      "velocity": 78,
      "chip": "ym2612"
    },
    {
      "channel": 0,
      "note": 78,
      "start": 25.7661,
      "duration": 0.173,
      "velocity": 107,
      "chip": "ym2612"
    },
    {
      "channel": 1,
      "note": 81,
      "start": 25.7667,
      "duration": 0.0138,
      "velocity": 78,
      "chip": "ym2612"
    },
    {
      "channel": 2,
      "note": 62,
      "start": 25.7672,
      "duration": 0.01,
      "velocity": 94,
      "chip": "ym2612"
    },
    {
      "channel": 4,
      "note": 93,
      "start": 25.778,
      "duration": 0.0448,
      "velocity": 78,
      "chip": "ym2612"
    },
    {
      "channel": 1,
      "note": 81,
      "start": 25.8216,
      "duration": 0.0672,
      "velocity": 78,
      "chip": "ym2612"
    },
    {
      "channel": 2,
      "note": 62,
      "start": 25.8221,
      "duration": 0.0501,
      "velocity": 94,
      "chip": "ym2612"
    },
    {
      "channel": 4,
      "note": 81,
      "start": 25.8731,
      "duration": 0.0681,
      "velocity": 78,
      "chip": "ym2612"
    },
    {
      "channel": 0,
      "note": 85,
      "start": 25.9394,
      "duration": 0.375,
      "velocity": 107,
      "chip": "ym2612"
    },
    {
      "channel": 1,
      "note": 81,
      "start": 25.9401,
      "duration": 0.0143,
      "velocity": 78,
      "chip": "ym2612"
    },
    {
      "channel": 2,
      "note": 50,
      "start": 25.9405,
      "duration": 0.1216,
      "velocity": 94,
      "chip": "ym2612"
    },
    {
      "channel": 4,
      "note": 81,
      "start": 25.952,
      "duration": 0.0133,
      "velocity": 78,
      "chip": "ym2612"
    },
    {
      "channel": 3,
      "note": 81,
      "start": 25.9552,
      "duration": 0.1916,
      "velocity": 107,
      "chip": "ym2612"
    },
    {
      "channel": 1,
      "note": 93,
      "start": 25.9644,
      "duration": 0.0638,
      "velocity": 78,
      "chip": "ym2612"
    },
    {
      "channel": 4,
      "note": 81,
      "start": 26.0124,
      "duration": 0.0678,
      "velocity": 78,
      "chip": "ym2612"
    },
    {
      "channel": 1,
      "note": 81,
      "start": 26.079,
      "duration": 0.0672,
      "velocity": 78,
      "chip": "ym2612"
    },
    {
      "channel": 2,
      "note": 62,
      "start": 26.0794,
      "duration": 0.0501,
      "velocity": 94,
      "chip": "ym2612"
    },
    {
      "channel": 4,
      "note": 93,
      "start": 26.1303,
      "duration": 0.0678,
      "velocity": 78,
      "chip": "ym2612"
    },
    {
      "channel": 3,
      "note": 78,
      "start": 26.1471,
      "duration": 0.2291,
      "velocity": 107,
      "chip": "ym2612"
    },
    {
      "channel": 1,
      "note": 81,
      "start": 26.1969,
      "duration": 0.0673,
      "velocity": 78,
      "chip": "ym2612"
    },
    {
      "channel": 2,
      "note": 62,
      "start": 26.1974,
      "duration": 0.0501,
      "velocity": 94,
      "chip": "ym2612"
    },
    {
      "channel": 4,
      "note": 81,
      "start": 26.2483,
      "duration": 0.0682,
      "velocity": 78,
      "chip": "ym2612"
    },
    {
      "channel": 0,
      "note": 83,
      "start": 26.3147,
      "duration": 0.0465,
      "velocity": 107,
      "chip": "ym2612"
    },
    {
      "channel": 1,
      "note": 81,
      "start": 26.3154,
      "duration": 0.0139,
      "velocity": 78,
      "chip": "ym2612"
    },
    {
      "channel": 2,
      "note": 50,
      "start": 26.3158,
      "duration": 0.0426,
      "velocity": 94,
      "chip": "ym2612"
    },
    {
      "channel": 4,
      "note": 81,
      "start": 26.3268,
      "duration": 0.0128,
      "velocity": 78,
      "chip": "ym2612"
    },
    {
      "channel": 1,
      "note": 93,
      "start": 26.3388,
      "duration": 0.0131,
      "velocity": 78,
      "chip": "ym2612"
    },
    {
      "channel": 4,
      "note": 81,
      "start": 26.3494,
      "duration": 0.0137,
      "velocity": 78,
      "chip": "ym2612"
    },
    {
      "channel": 0,
      "note": 81,
      "start": 26.3614,
      "duration": 0.1742,
      "velocity": 107,
      "chip": "ym2612"
    },
    {
      "channel": 1,
      "note": 81,
      "start": 26.3619,
      "duration": 0.0137,
      "velocity": 78,
      "chip": "ym2612"
    },
    {
      "channel": 2,
      "note": 62,
      "start": 26.3624,
      "duration": 0.0098,
      "velocity": 94,
      "chip": "ym2612"
    },
    {
      "channel": 4,
      "note": 93,
      "start": 26.373,
      "duration": 0.0461,
      "velocity": 78,
      "chip": "ym2612"
    },
    {
      "channel": 3,
      "note": 85,
      "start": 26.3765,
      "duration": 0.1747,
      "velocity": 107,
      "chip": "ym2612"
    },
    {
      "channel": 1,
      "note": 81,
      "start": 26.418,
      "duration": 0.0673,
      "velocity": 78,
      "chip": "ym2612"
    },
    {
      "channel": 2,
      "note": 62,
      "start": 26.4185,
      "duration": 0.0501,
      "velocity": 94,
      "chip": "ym2612"
    },
    {
      "channel": 4,
      "note": 81,
      "start": 26.4694,
      "duration": 0.0682,
      "velocity": 78,
      "chip": "ym2612"
    },
    {
      "channel": 0,
      "note": 83,
      "start": 26.5359,
      "duration": 0.5967,
      "velocity": 107,
      "chip": "ym2612"
    },
    {
      "channel": 1,
      "note": 80,
      "start": 26.5365,
      "duration": 0.0143,
      "velocity": 78,
      "chip": "ym2612"
    },
    {
      "channel": 2,
      "note": 52,
      "start": 26.5369,
      "duration": 0.1219,
      "velocity": 94,
      "chip": "ym2612"
    },
    {
      "channel": 4,
      "note": 81,
      "start": 26.5483,
      "duration": 0.0135,
      "velocity": 78,
      "chip": "ym2612"
    },
    {
      "channel": 3,
      "note": 83,
      "start": 26.5516,
      "duration": 0.193,
      "velocity": 107,
      "chip": "ym2612"
    },
    {
      "channel": 1,
      "note": 76,
      "start": 26.5608,
      "duration": 0.064,
      "velocity": 78,
      "chip": "ym2612"
    },
    {
      "channel": 4,
      "note": 80,
      "start": 26.6102,
      "duration": 0.0678,
      "velocity": 78,
      "chip": "ym2612"
    },
    {
      "channel": 1,
      "note": 78,
      "start": 26.6767,
      "duration": 0.0672,
      "velocity": 78,
      "chip": "ym2612"
    },
    {
      "channel": 2,
      "note": 64,
      "start": 26.6773,
      "duration": 0.0501,
      "velocity": 94,
      "chip": "ym2612"
    },
    {
      "channel": 4,
      "note": 76,
      "start": 26.7282,
      "duration": 0.0671,
      "velocity": 78,
      "chip": "ym2612"
    },
    {
      "channel": 3,
      "note": 81,
      "start": 26.7448,
      "duration": 0.5953,
      "velocity": 107,
      "chip": "ym2612"
    },
    {
      "channel": 1,
      "note": 80,
      "start": 26.7941,
      "duration": 0.0667,
      "velocity": 78,
      "chip": "ym2612"
    },
    {
      "channel": 2,
      "note": 64,
      "start": 26.7946,
      "duration": 0.0496,
      "velocity": 94,
      "chip": "ym2612"
    },
    {
      "channel": 4,
      "note": 78,
      "start": 26.8451,
      "duration": 0.0677,
      "velocity": 78,
      "chip": "ym2612"
    },
    {
      "channel": 1,
      "note": 81,
      "start": 26.9116,
      "duration": 0.0139,
      "velocity": 78,
      "chip": "ym2612"
    },
    {
      "channel": 2,
      "note": 52,
      "start": 26.9121,
      "duration": 0.0431,
      "velocity": 94,
      "chip": "ym2612"
    },
    {
      "channel": 4,
      "note": 80,
      "start": 26.9229,
      "duration": 0.0131,
      "velocity": 78,
      "chip": "ym2612"
    },
    {
      "channel": 1,
      "note": 83,
      "start": 26.9352,
      "duration": 0.0134,
      "velocity": 78,
      "chip": "ym2612"
    },
    {
      "channel": 4,
      "note": 81,
      "start": 26.946,
      "duration": 0.0135,
      "velocity": 78,
      "chip": "ym2612"
    },
    {
      "channel": 1,
      "note": 85,
      "start": 26.9584,
      "duration": 0.0138,
      "velocity": 78,
      "chip": "ym2612"
    },
    {
      "channel": 2,
      "note": 64,
      "start": 26.9589,
      "duration": 0.0098,
      "velocity": 94,
      "chip": "ym2612"
    },
    {
      "channel": 4,
      "note": 83,
      "start": 26.9696,
      "duration": 0.0466,
      "velocity": 78,
      "chip": "ym2612"
    },
    {
      "channel": 1,
      "note": 86,
      "start": 27.015,
      "duration": 0.0672,
      "velocity": 78,
      "chip": "ym2612"
    },
    {
      "channel": 2,
      "note": 64,
      "start": 27.0156,
      "duration": 0.05,
      "velocity": 94,
      "chip": "ym2612"
    },
    {
      "channel": 4,
      "note": 85,
      "start": 27.0664,
      "duration": 0.0679,
      "velocity": 78,
      "chip": "ym2612"
    },
    {
      "channel": 0,
      "note": 88,
      "start": 27.1327,
      "duration": 0.3751,
      "velocity": 107,
      "chip": "ym2612"
    },
    {
      "channel": 1,
      "note": 88,
      "start": 27.1332,
      "duration": 0.0142,
      "velocity": 78,
      "chip": "ym2612"
    },
    {
      "channel": 2,
      "note": 52,
      "start": 27.1337,
      "duration": 0.1217,
      "velocity": 94,
      "chip": "ym2612"
    },
    {
      "channel": 4,
      "note": 86,
      "start": 27.145,
      "duration": 0.013,
      "velocity": 78,
      "chip": "ym2612"
    },
    {
      "channel": 1,
      "note": 85,
      "start": 27.1571,
      "duration": 0.0644,
      "velocity": 78,
      "chip": "ym2612"
    },
    {
      "channel": 4,
      "note": 88,
      "start": 27.2057,
      "duration": 0.0677,
      "velocity": 78,
      "chip": "ym2612"
    },
    {
      "channel": 1,
      "note": 86,
      "start": 27.2722,
      "duration": 0.0673,
      "velocity": 78,
      "chip": "ym2612"
    },
    {
      "channel": 2,
      "note": 64,
      "start": 27.2727,
      "duration": 0.0501,
      "velocity": 94,
      "chip": "ym2612"
    },
    {
      "channel": 4,
      "note": 85,
      "start": 27.3237,
      "duration": 0.0677,
      "velocity": 78,
      "chip": "ym2612"
    },
    {
      "channel": 3,
      "note": 83,
      "start": 27.3404,
      "duration": 0.2339,
      "velocity": 107,
      "chip": "ym2612"
    },
    {
      "channel": 1,
      "note": 88,
      "start": 27.3902,
      "duration": 0.0673,
      "velocity": 78,
      "chip": "ym2612"
    },
    {
      "channel": 2,
      "note": 64,
      "start": 27.3907,
      "duration": 0.0501,
      "velocity": 94,
      "chip": "ym2612"
    },
    {
      "channel": 4,
      "note": 86,
      "start": 27.4416,
      "duration": 0.0681,
      "velocity": 78,
      "chip": "ym2612"
    },
    {
      "channel": 0,
      "note": 86,
      "start": 27.508,
      "duration": 0.1001,
      "velocity": 107,
      "chip": "ym2612"
    },
    {
      "channel": 1,
      "note": 90,
      "start": 27.5085,
      "duration": 0.0137,
      "velocity": 78,
      "chip": "ym2612"
    },
    {
      "channel": 2,
      "note": 52,
      "start": 27.509,
      "duration": 0.0444,
      "velocity": 94,
      "chip": "ym2612"
    },
    {
      "channel": 4,
      "note": 88,
      "start": 27.5198,
      "duration": 0.0129,
      "velocity": 78,
      "chip": "ym2612"
    },
    {
      "channel": 1,
      "note": 92,
      "start": 27.5318,
      "duration": 0.015,
      "velocity": 78,
      "chip": "ym2612"
    },
    {
      "channel": 4,
      "note": 90,
      "start": 27.5441,
      "duration": 0.0151,
      "velocity": 78,
      "chip": "ym2612"
    },
    {
      "channel": 1,
      "note": 93,
      "start": 27.5569,
      "duration": 0.0156,
      "velocity": 78,
      "chip": "ym2612"
    },
    {
      "channel": 2,
      "note": 64,
      "start": 27.5574,
      "duration": 0.0116,
      "velocity": 94,
      "chip": "ym2612"
    },
    {
      "channel": 4,
      "note": 92,
      "start": 27.571,
      "duration": 0.0144,
      "velocity": 78,
      "chip": "ym2612"
    },
    {
      "channel": 3,
      "note": 88,
      "start": 27.5746,
      "duration": 0.2408,
      "velocity": 107,
      "chip": "ym2612"
    },
    {
      "channel": 1,
      "note": 95,
      "start": 27.5843,
      "duration": 0.0142,
      "velocity": 78,
      "chip": "ym2612"
    },
    {
      "channel": 2,
      "note": 64,
      "start": 27.5849,
      "duration": 0.0104,
      "velocity": 94,
      "chip": "ym2612"
    },
    {
      "channel": 4,
      "note": 93,
      "start": 27.5961,
      "duration": 0.0098,
      "velocity": 78,
      "chip": "ym2612"
    },
    {
      "channel": 0,
      "note": 81,
      "start": 27.6122,
      "duration": 18.631,
      "velocity": 107,
      "chip": "ym2612"
    },
    {
      "channel": 1,
      "note": 78,
      "start": 27.6166,
      "duration": 18.6265,
      "velocity": 107,
      "chip": "ym2612"
    },
    {
      "channel": 2,
      "note": 54,
      "start": 27.6212,
      "duration": 0.1096,
      "velocity": 94,
      "chip": "ym2612"
    },
    {
      "channel": 4,
      "note": 95,
      "start": 27.6348,
      "duration": 18.6084,
      "velocity": 107,
      "chip": "ym2612"
    },
    {
      "channel": 2,
      "note": 66,
      "start": 27.7478,
      "duration": 0.0504,
      "velocity": 94,
      "chip": "ym2612"
    },
    {
      "channel": 3,
      "note": 86,
      "start": 27.8211,
      "duration": 18.4221,
      "velocity": 107,
      "chip": "ym2612"
    },
    {
      "channel": 2,
      "note": 66,
      "start": 27.8659,
      "duration": 0.0504,
      "velocity": 94,
      "chip": "ym2612"
    },
    {
      "channel": 2,
      "note": 54,
      "start": 27.9839,
      "duration": 0.0428,
      "velocity": 94,
      "chip": "ym2612"
    },
    {
      "channel": 2,
      "note": 66,
      "start": 28.0301,
      "duration": 0.01,
      "velocity": 94,
      "chip": "ym2612"
    },
    {
      "channel": 2,
      "note": 66,
      "start": 28.087,
      "duration": 0.0503,
      "velocity": 94,
      "chip": "ym2612"
    },
    {
      "channel": 2,
      "note": 54,
      "start": 28.2049,
      "duration": 18.0382,
      "velocity": 94,
      "chip": "ym2612"
    }
  ]
}