{
  "track_name": "03 - Stage Demo",
  "duration_sec": 13.619,
  "sample_rate": 44100,
  "note_count": 182,
  "unique_pitches": 15,
  "pitch_range": 24,
  "avg_note_duration": 0.3002,
  "reconstruction_stats": {
    "notes_reconstructed": 182,
    "keyon_events": 182,
    "keyoff_events": 178,
    "orphan_keyons": 4,
    "unique_pitches": 15,
    "pitch_range": 24,
    "avg_duration_sec": 0.3002
  },
  "metadata": {
    "source": "M\\Magical Taruruuto-Kun\\03 - Stage Demo.vgm"
  },
  "notes": [
    {
      "channel": 1,
      "note": 62,
      "start": 0.295,
      "duration": 0.2649,
      "velocity": 123,
      "chip": "ym2612"
    },
    {
      "channel": 2,
      "note": 59,
      "start": 0.296,
      "duration": 0.2642,
      "velocity": 123,
      "chip": "ym2612"
    },
    {
      "channel": 3,
      "note": 55,
      "start": 0.297,
      "duration": 0.2633,
      "velocity": 123,
      "chip": "ym2612"
    },
    {
      "channel": 4,
      "note": 55,
      "start": 0.3602,
      "duration": 0.2664,
      "velocity": 123,
      "chip": "ym2612"
    },
    {
      "channel": 0,
      "note": 62,
      "start": 0.4267,
      "duration": 0.2665,
      "velocity": 95,
      "chip": "ym2612"
    },
    {
      "channel": 1,
      "note": 62,
      "start": 0.5601,
      "duration": 0.2573,
      "velocity": 123,
      "chip": "ym2612"
    },
    {
      "channel": 3,
      "note": 47,
      "start": 0.5606,
      "duration": 0.2663,
      "velocity": 123,
      "chip": "ym2612"
    },
    {
      "channel": 4,
      "note": 47,
      "start": 0.6269,
      "duration": 0.2664,
      "velocity": 123,
      "chip": "ym2612"
    },
    {
      "channel": 0,
      "note": 62,
      "start": 0.6934,
      "duration": 0.2665,
      "velocity": 95,
      "chip": "ym2612"
    },
    {
      "channel": 1,
      "note": 62,
      "start": 0.8268,
      "duration": 0.2664,
      "velocity": 123,
      "chip": "ym2612"
    },
    {
      "channel": 3,
      "note": 50,
      "start": 0.8271,
      "duration": 0.2665,
      "velocity": 123,
      "chip": "ym2612"
    },
    {
      "channel": 4,
      "note": 50,
      "start": 0.8936,
      "duration": 0.2664,
      "velocity": 123,
      "chip": "ym2612"
    },
    {
      "channel": 0,
      "note": 62,
      "start": 0.9601,
      "duration": 0.2665,
      "velocity": 95,
      "chip": "ym2612"
    },
    {
      "channel": 2,
      "note": 60,
      "start": 1.0936,
      "duration": 0.2666,
      "velocity": 123,
      "chip": "ym2612"
    },
    {
      "channel": 3,
      "note": 55,
      "start": 1.0939,
      "duration": 0.2666,
      "velocity": 123,
      "chip": "ym2612"
    },
    {
      "channel": 4,
      "note": 55,
      "start": 1.1602,
      "duration": 0.2664,
      "velocity": 123,
      "chip": "ym2612"
    },
    {
      "channel": 1,
      "note": 59,
      "start": 1.3601,
      "duration": 0.2664,
      "velocity": 123,
      "chip": "ym2612"
    },
    {
      "channel": 2,
      "note": 55,
      "start": 1.3604,
      "duration": 0.2665,
      "velocity": 123,
      "chip": "ym2612"
    },
    {
      "channel": 3,
      "note": 50,
      "start": 1.3606,
      "duration": 0.2663,
      "velocity": 123,
      "chip": "ym2612"
    },
    {
      "channel": 4,
      "note": 50,
      "start": 1.4269,
      "duration": 0.2664,
      "velocity": 123,
      "chip": "ym2612"
    },
    {
      "channel": 0,
      "note": 59,
      "start": 1.4934,
      "duration": 0.2665,
      "velocity": 95,
      "chip": "ym2612"
    },
    {
      "channel": 1,
      "note": 59,
      "start": 1.6268,
      "duration": 0.2664,
      "velocity": 123,
      "chip": "ym2612"
    },
    {
      "channel": 3,
      "note": 55,
      "start": 1.6272,
      "duration": 0.2663,
      "velocity": 123,
      "chip": "ym2612"
    },
    {
      "channel": 4,
      "note": 55,
      "start": 1.6936,
      "duration": 0.2664,
      "velocity": 123,
      "chip": "ym2612"
    },
    {
      "channel": 0,
      "note": 59,
      "start": 1.7601,
      "duration": 0.2665,
      "velocity": 95,
      "chip": "ym2612"
    },
    {
      "channel": 1,
      "note": 59,
      "start": 1.8935,
      "duration": 0.2664,
      "velocity": 123,
      "chip": "ym2612"
    },
    {
      "channel": 3,
      "note": 50,
      "start": 1.8938,
      "duration": 0.2665,
      "velocity": 123,
      "chip": "ym2612"
    },
    {
      "channel": 4,
      "note": 50,
      "start": 1.9602,
      "duration": 0.2664,
      "velocity": 123,
      "chip": "ym2612"
    },
    {
      "channel": 0,
      "note": 59,
      "start": 2.0267,
      "duration": 0.2665,
      "velocity": 95,
      "chip": "ym2612"
    },
    {
      "channel": 2,
      "note": 57,
      "start": 2.1602,
      "duration": 0.2666,
      "velocity": 123,
      "chip": "ym2612"
    },
    {
      "channel": 3,
      "note": 48,
      "start": 2.1606,
      "duration": 0.2664,
      "velocity": 123,
      "chip": "ym2612"
    },
    {
      "channel": 4,
      "note": 48,
      "start": 2.2269,
      "duration": 0.2664,
      "velocity": 123,
      "chip": "ym2612"
    },
    {
      "channel": 1,
      "note": 55,
      "start": 2.4268,
      "duration": 0.2664,
      "velocity": 123,
      "chip": "ym2612"
    },
    {
      "channel": 3,
      "note": 50,
      "start": 2.4272,
      "duration": 0.533,
      "velocity": 123,
      "chip": "ym2612"
    },
    {
      "channel": 4,
      "note": 50,
      "start": 2.4936,
      "duration": 0.5331,
      "velocity": 123,
      "chip": "ym2612"
    },
    {
      "channel": 0,
      "note": 55,
      "start": 2.5601,
      "duration": 0.2665,
      "velocity": 95,
      "chip": "ym2612"
    },
    {
      "channel": 1,
      "note": 57,
      "start": 2.6935,
      "duration": 0.2664,
      "velocity": 123,
      "chip": "ym2612"
    },
    {
      "channel": 0,
      "note": 57,
      "start": 2.8267,
      "duration": 0.2665,
      "velocity": 95,
      "chip": "ym2612"
    },
    {
      "channel": 1,
      "note": 59,
      "start": 2.9601,
      "duration": 0.2664,
      "velocity": 123,
      "chip": "ym2612"
    },
    {
      "channel": 3,
      "note": 55,
      "start": 2.9605,
      "duration": 0.5331,
      "velocity": 123,
      "chip": "ym2612"
    },
    {
      "channel": 4,
      "note": 55,
      "start": 3.0269,
      "duration": 0.5331,
      "velocity": 123,
      "chip": "ym2612"
    },
    {
      "channel": 0,
      "note": 59,
      "start": 3.0934,
      "duration": 0.2665,
      "velocity": 95,
      "chip": "ym2612"
    },
    {
      "channel": 1,
      "note": 60,
      "start": 3.2268,
      "duration": 0.2664,
      "velocity": 123,
      "chip": "ym2612"
    },
    {
      "channel": 0,
      "note": 60,
      "start": 3.3601,
      "duration": 0.2665,
      "velocity": 95,
      "chip": "ym2612"
    },
    {
      "channel": 1,
      "note": 62,
      "start": 3.4935,
      "duration": 0.2664,
      "velocity": 123,
      "chip": "ym2612"
    },
    {
      "channel": 3,
      "note": 50,
      "start": 3.4938,
      "duration": 0.5333,
      "velocity": 123,
      "chip": "ym2612"
    },
    {
      "channel": 4,
      "note": 50,
      "start": 3.5602,
      "duration": 0.5331,
      "velocity": 123,
      "chip": "ym2612"
    },
    {
      "channel": 0,
      "note": 62,
      "start": 3.6267,
      "duration": 0.2665,
      "velocity": 95,
      "chip": "ym2612"
    },
    {
      "channel": 1,
      "note": 59,
      "start": 3.7601,
      "duration": 0.2664,
      "velocity": 123,
      "chip": "ym2612"
    },
    {
      "channel": 0,
      "note": 59,
      "start": 3.8934,
      "duration": 0.2665,
      "velocity": 95,
      "chip": "ym2612"
    },
    {
      "channel": 1,
      "note": 67,
      "start": 4.0268,
      "duration": 0.2664,
      "velocity": 123,
      "chip": "ym2612"
    },
    {
      "channel": 2,
      "note": 62,
      "start": 4.0271,
      "duration": 0.2665,
      "velocity": 123,
      "chip": "ym2612"
    },
    {
      "channel": 3,
      "note": 55,
      "start": 4.0273,
      "duration": 0.5332,
      "velocity": 123,
      "chip": "ym2612"
    },
    {
      "channel": 4,
      "note": 55,
      "start": 4.0936,
      "duration": 0.5331,
      "velocity": 123,
      "chip": "ym2612"
    },
    {
      "channel": 0,
      "note": 67,
      "start": 4.1601,
      "duration": 0.2665,
      "velocity": 95,
      "chip": "ym2612"
    },
    {
      "channel": 1,
      "note": 62,
      "start": 4.2935,
      "duration": 0.2664,
      "velocity": 123,
      "chip": "ym2612"
    },
    {
      "channel": 0,
      "note": 62,
      "start": 4.4267,
      "duration": 0.2665,
      "velocity": 95,
      "chip": "ym2612"
    },
    {
      "channel": 1,
      "note": 60,
      "start": 4.5601,
      "duration": 0.2664,
      "velocity": 123,
      "chip": "ym2612"
    },
    {
      "channel": 2,
      "note": 57,
      "start": 4.5604,
      "duration": 0.2665,
      "velocity": 123,
      "chip": "ym2612"
    },
    {
      "channel": 3,
      "note": 52,
      "start": 4.5606,
      "duration": 0.2663,
      "velocity": 123,
      "chip": "ym2612"
    },
    {
      "channel": 4,
      "note": 52,
      "start": 4.6269,
      "duration": 0.2664,
      "velocity": 123,
      "chip": "ym2612"
    },
    {
      "channel": 0,
      "note": 60,
      "start": 4.6934,
      "duration": 0.2665,
      "velocity": 95,
      "chip": "ym2612"
    },
    {
      "channel": 1,
      "note": 60,
      "start": 4.8268,
      "duration": 0.2664,
      "velocity": 123,
      "chip": "ym2612"
    },
    {
      "channel": 3,
      "note": 45,
      "start": 4.8272,
      "duration": 0.2663,
      "velocity": 123,
      "chip": "ym2612"
    },
    {
      "channel": 4,
      "note": 45,
      "start": 4.8936,
      "duration": 0.2664,
      "velocity": 123,
      "chip": "ym2612"
    },
    {
      "channel": 0,
      "note": 60,
      "start": 4.9601,
      "duration": 0.2665,
      "velocity": 95,
      "chip": "ym2612"
    },
    {
      "channel": 1,
      "note": 60,
      "start": 5.0935,
      "duration": 0.2664,
      "velocity": 123,
      "chip": "ym2612"
    },
    {
      "channel": 3,
      "note": 48,
      "start": 5.0938,
      "duration": 0.2665,
      "velocity": 123,
      "chip": "ym2612"
    },
    {
      "channel": 4,
      "note": 48,
      "start": 5.1602,
      "duration": 0.2664,
      "velocity": 123,
      "chip": "ym2612"
    },
    {
      "channel": 0,
      "note": 60,
      "start": 5.2267,
      "duration": 0.2665,
      "velocity": 95,
      "chip": "ym2612"
    },
    {
      "channel": 2,
      "note": 59,
      "start": 5.3602,
      "duration": 0.2666,
      "velocity": 123,
      "chip": "ym2612"
    },
    {
      "channel": 3,
      "note": 52,
      "start": 5.3605,
      "duration": 0.2666,
      "velocity": 123,
      "chip": "ym2612"
    },
    {
      "channel": 4,
      "note": 52,
      "start": 5.4269,
      "duration": 0.2664,
      "velocity": 123,
      "chip": "ym2612"
    },
    {
      "channel": 1,
      "note": 57,
      "start": 5.6268,
      "duration": 0.2664,
      "velocity": 123,
      "chip": "ym2612"
    },
    {
      "channel": 2,
      "note": 54,
      "start": 5.6271,
      "duration": 0.2665,
      "velocity": 123,
      "chip": "ym2612"
    },
    {
      "channel": 3,
      "note": 48,
      "start": 5.6273,
      "duration": 0.2663,
      "velocity": 123,
      "chip": "ym2612"
    },
    {
      "channel": 4,
      "note": 48,
      "start": 5.6936,
      "duration": 0.2664,
      "velocity": 123,
      "chip": "ym2612"
    },
    {
      "channel": 0,
      "note": 57,
      "start": 5.7601,
      "duration": 0.2665,
      "velocity": 95,
      "chip": "ym2612"
    },
    {
      "channel": 1,
      "note": 57,
      "start": 5.8935,
      "duration": 0.2664,
      "velocity": 123,
      "chip": "ym2612"
    },
    {
      "channel": 3,
      "note": 54,
      "start": 5.8939,
      "duration": 0.2663,
      "velocity": 123,
      "chip": "ym2612"
    },
    {
      "channel": 4,
      "note": 54,
      "start": 5.9602,
      "duration": 0.2664,
      "velocity": 123,
      "chip": "ym2612"
    },
    {
      "channel": 0,
      "note": 57,
      "start": 6.0267,
      "duration": 0.2665,
      "velocity": 95,
      "chip": "ym2612"
    },
    {
      "channel": 1,
      "note": 57,
      "start": 6.1601,
      "duration": 0.2664,
      "velocity": 123,
      "chip": "ym2612"
    },
    {
      "channel": 3,
      "note": 48,
      "start": 6.1605,
      "duration": 0.2665,
      "velocity": 123,
      "chip": "ym2612"
    },
    {
      "channel": 4,
      "note": 48,
      "start": 6.2269,
      "duration": 0.2664,
      "velocity": 123,
      "chip": "ym2612"
    },
    {
      "channel": 0,
      "note": 57,
      "start": 6.2934,
      "duration": 0.2665,
      "velocity": 95,
      "chip": "ym2612"
    },
    {
      "channel": 2,
      "note": 55,
      "start": 6.4269,
      "duration": 0.2666,
      "velocity": 123,
      "chip": "ym2612"
    },
    {
      "channel": 3,
      "note": 52,
      "start": 6.4272,
      "duration": 0.2664,
      "velocity": 123,
      "chip": "ym2612"
    },
    {
      "channel": 4,
      "note": 52,
      "start": 6.4936,
      "duration": 0.2664,
      "velocity": 123,
      "chip": "ym2612"
    },
    {
      "channel": 1,
      "note": 54,
      "start": 6.6935,
      "duration": 0.2664,
      "velocity": 123,
      "chip": "ym2612"
    },
    {
      "channel": 3,
      "note": 45,
      "start": 6.6939,
      "duration": 0.533,
      "velocity": 123,
      "chip": "ym2612"
    },
    {
      "channel": 4,
      "note": 45,
      "start": 6.7602,
      "duration": 0.5331,
      "velocity": 123,
      "chip": "ym2612"
    },
    {
      "channel": 0,
      "note": 54,
      "start": 6.8267,
      "duration": 0.2665,
      "velocity": 95,
      "chip": "ym2612"
    },
    {
      "channel": 1,
      "note": 55,
      "start": 6.9601,
      "duration": 0.2664,
      "velocity": 123,
      "chip": "ym2612"
    },
    {
      "channel": 0,
      "note": 55,
      "start": 7.0934,
      "duration": 0.2665,
      "velocity": 95,
      "chip": "ym2612"
    },
    {
      "channel": 1,
      "note": 57,
      "start": 7.2268,
      "duration": 0.2664,
      "velocity": 123,
      "chip": "ym2612"
    },
    {
      "channel": 3,
      "note": 52,
      "start": 7.2271,
      "duration": 0.5333,
      "velocity": 123,
      "chip": "ym2612"
    },
    {
      "channel": 4,
      "note": 52,
      "start": 7.2936,
      "duration": 0.5331,
      "velocity": 123,
      "chip": "ym2612"
    },
    {
      "channel": 0,
      "note": 57,
      "start": 7.3601,
      "duration": 0.2665,
      "velocity": 95,
      "chip": "ym2612"
    },
    {
      "channel": 1,
      "note": 59,
      "start": 7.4935,
      "duration": 0.2664,
      "velocity": 123,
      "chip": "ym2612"
    },
    {
      "channel": 0,
      "note": 59,
      "start": 7.6267,
      "duration": 0.2665,
      "velocity": 95,
      "chip": "ym2612"
    },
    {
      "channel": 1,
      "note": 60,
      "start": 7.7601,
      "duration": 0.2664,
      "velocity": 123,
      "chip": "ym2612"
    },
    {
      "channel": 2,
      "note": 57,
      "start": 7.7604,
      "duration": 0.2665,
      "velocity": 123,
      "chip": "ym2612"
    },
    {
      "channel": 3,
      "note": 48,
      "start": 7.7606,
      "duration": 0.5332,
      "velocity": 123,
      "chip": "ym2612"
    },
    {
      "channel": 4,
      "note": 48,
      "start": 7.8269,
      "duration": 0.5331,
      "velocity": 123,
      "chip": "ym2612"
    },
    {
      "channel": 0,
      "note": 60,
      "start": 7.8934,
      "duration": 0.2665,
      "velocity": 95,
      "chip": "ym2612"
    },
    {
      "channel": 1,
      "note": 57,
      "start": 8.0268,
      "duration": 0.2664,
      "velocity": 123,
      "chip": "ym2612"
    },
    {
      "channel": 0,
      "note": 57,
      "start": 8.1601,
      "duration": 0.2665,
      "velocity": 95,
      "chip": "ym2612"
    },
    {
      "channel": 1,
      "note": 64,
      "start": 8.2935,
      "duration": 0.2664,
      "velocity": 123,
      "chip": "ym2612"
    },
    {
      "channel": 2,
      "note": 60,
      "start": 8.2937,
      "duration": 0.2665,
      "velocity": 123,
      "chip": "ym2612"
    },
    {
      "channel": 3,
      "note": 45,
      "start": 8.294,
      "duration": 0.5332,
      "velocity": 123,
      "chip": "ym2612"
    },
    {
      "channel": 4,
      "note": 45,
      "start": 8.3602,
      "duration": 0.5331,
      "velocity": 123,
      "chip": "ym2612"
    },
    {
      "channel": 0,
      "note": 64,
      "start": 8.4267,
      "duration": 0.2665,
      "velocity": 95,
      "chip": "ym2612"
    },
    {
      "channel": 1,
      "note": 60,
      "start": 8.5601,
      "duration": 0.2664,
      "velocity": 123,
      "chip": "ym2612"
    },
    {
      "channel": 0,
      "note": 60,
      "start": 8.6934,
      "duration": 0.2665,
      "velocity": 95,
      "chip": "ym2612"
    },
    {
      "channel": 1,
      "note": 59,
      "start": 8.8268,
      "duration": 0.2664,
      "velocity": 123,
      "chip": "ym2612"
    },
    {
      "channel": 2,
      "note": 55,
      "start": 8.8271,
      "duration": 0.2665,
      "velocity": 123,
      "chip": "ym2612"
    },
    {
      "channel": 3,
      "note": 50,
      "start": 8.8273,
      "duration": 0.2663,
      "velocity": 123,
      "chip": "ym2612"
    },
    {
      "channel": 4,
      "note": 50,
      "start": 8.8936,
      "duration": 0.2664,
      "velocity": 123,
      "chip": "ym2612"
    },
    {
      "channel": 0,
      "note": 59,
      "start": 8.9601,
      "duration": 0.2665,
      "velocity": 95,
      "chip": "ym2612"
    },
    {
      "channel": 1,
      "note": 59,
      "start": 9.0935,
      "duration": 0.2664,
      "velocity": 123,
      "chip": "ym2612"
    },
    {
      "channel": 3,
      "note": 47,
      "start": 9.0939,
      "duration": 0.2663,
      "velocity": 123,
      "chip": "ym2612"
    },
    {
      "channel": 4,
      "note": 47,
      "start": 9.1602,
      "duration": 0.2664,
      "velocity": 123,
      "chip": "ym2612"
    },
    {
      "channel": 0,
      "note": 59,
      "start": 9.2267,
      "duration": 0.2665,
      "velocity": 95,
      "chip": "ym2612"
    },
    {
      "channel": 1,
      "note": 59,
      "start": 9.3601,
      "duration": 0.2664,
      "velocity": 123,
      "chip": "ym2612"
    },
    {
      "channel": 3,
      "note": 50,
      "start": 9.3605,
      "duration": 0.2664,
      "velocity": 123,
      "chip": "ym2612"
    },
    {
      "channel": 4,
      "note": 50,
      "start": 9.4269,
      "duration": 0.2664,
      "velocity": 123,
      "chip": "ym2612"
    },
    {
      "channel": 0,
      "note": 59,
      "start": 9.4934,
      "duration": 0.2665,
      "velocity": 95,
      "chip": "ym2612"
    },
    {
      "channel": 1,
      "note": 62,
      "start": 9.6268,
      "duration": 0.2664,
      "velocity": 123,
      "chip": "ym2612"
    },
    {
      "channel": 3,
      "note": 55,
      "start": 9.6271,
      "duration": 0.2667,
      "velocity": 123,
      "chip": "ym2612"
    },
    {
      "channel": 4,
      "note": 55,
      "start": 9.6936,
      "duration": 0.2664,
      "velocity": 123,
      "chip": "ym2612"
    },
    {
      "channel": 0,
      "note": 62,
      "start": 9.7601,
      "duration": 0.2665,
      "velocity": 95,
      "chip": "ym2612"
    },
    {
      "channel": 1,
      "note": 67,
      "start": 9.8935,
      "duration": 0.2664,
      "velocity": 123,
      "chip": "ym2612"
    },
    {
      "channel": 2,
      "note": 62,
      "start": 9.8937,
      "duration": 0.2665,
      "velocity": 123,
      "chip": "ym2612"
    },
    {
      "channel": 3,
      "note": 50,
      "start": 9.894,
      "duration": 0.2663,
      "velocity": 123,
      "chip": "ym2612"
    },
    {
      "channel": 4,
      "note": 50,
      "start": 9.9602,
      "duration": 0.2664,
      "velocity": 123,
      "chip": "ym2612"
    },
    {
      "channel": 0,
      "note": 67,
      "start": 10.0267,
      "duration": 0.2665,
      "velocity": 95,
      "chip": "ym2612"
    },
    {
      "channel": 1,
      "note": 67,
      "start": 10.1601,
      "duration": 0.2664,
      "velocity": 123,
      "chip": "ym2612"
    },
    {
      "channel": 3,
      "note": 55,
      "start": 10.1606,
      "duration": 0.2663,
      "velocity": 123,
      "chip": "ym2612"
    },
    {
      "channel": 4,
      "note": 55,
      "start": 10.2269,
      "duration": 0.2664,
      "velocity": 123,
      "chip": "ym2612"
    },
    {
      "channel": 0,
      "note": 67,
      "start": 10.2934,
      "duration": 0.2665,
      "velocity": 95,
      "chip": "ym2612"
    },
    {
      "channel": 1,
      "note": 67,
      "start": 10.4268,
      "duration": 0.2664,
      "velocity": 123,
      "chip": "ym2612"
    },
    {
      "channel": 3,
      "note": 50,
      "start": 10.4271,
      "duration": 0.2664,
      "velocity": 123,
      "chip": "ym2612"
    },
    {
      "channel": 4,
      "note": 50,
      "start": 10.4936,
      "duration": 0.2664,
      "velocity": 123,
      "chip": "ym2612"
    },
    {
      "channel": 0,
      "note": 67,
      "start": 10.5601,
      "duration": 0.2665,
      "velocity": 95,
      "chip": "ym2612"
    },
    {
      "channel": 1,
      "note": 67,
      "start": 10.6935,
      "duration": 0.2664,
      "velocity": 123,
      "chip": "ym2612"
    },
    {
      "channel": 3,
      "note": 59,
      "start": 10.6938,
      "duration": 0.2667,
      "velocity": 123,
      "chip": "ym2612"
    },
    {
      "channel": 4,
      "note": 59,
      "start": 10.7602,
      "duration": 0.2664,
      "velocity": 123,
      "chip": "ym2612"
    },
    {
      "channel": 0,
      "note": 67,
      "start": 10.8267,
      "duration": 0.2665,
      "velocity": 95,
      "chip": "ym2612"
    },
    {
      "channel": 1,
      "note": 66,
      "start": 10.9601,
      "duration": 0.2664,
      "velocity": 123,
      "chip": "ym2612"
    },
    {
      "channel": 2,
      "note": 62,
      "start": 10.9604,
      "duration": 0.2663,
      "velocity": 123,
      "chip": "ym2612"
    },
    {
      "channel": 3,
      "note": 57,
      "start": 10.9607,
      "duration": 0.5331,
      "velocity": 123,
      "chip": "ym2612"
    },
    {
      "channel": 4,
      "note": 57,
      "start": 11.0269,
      "duration": 0.5331,
      "velocity": 123,
      "chip": "ym2612"
    },
    {
      "channel": 0,
      "note": 66,
      "start": 11.0934,
      "duration": 0.2665,
      "velocity": 95,
      "chip": "ym2612"
    },
    {
      "channel": 2,
      "note": 62,
      "start": 11.2269,
      "duration": 0.2666,
      "velocity": 123,
      "chip": "ym2612"
    },
    {
      "channel": 1,
      "note": 69,
      "start": 11.4935,
      "duration": 0.2664,
      "velocity": 123,
      "chip": "ym2612"
    },
    {
      "channel": 2,
      "note": 60,
      "start": 11.4937,
      "duration": 0.2663,
      "velocity": 123,
      "chip": "ym2612"
    },
    {
      "channel": 3,
      "note": 50,
      "start": 11.494,
      "duration": 0.5332,
      "velocity": 123,
      "chip": "ym2612"
    },
    {
      "channel": 4,
      "note": 50,
      "start": 11.5602,
      "duration": 0.5331,
      "velocity": 123,
      "chip": "ym2612"
    },
    {
      "channel": 0,
      "note": 69,
      "start": 11.6267,
      "duration": 0.2665,
      "velocity": 95,
      "chip": "ym2612"
    },
    {
      "channel": 2,
      "note": 60,
      "start": 11.7602,
      "duration": 0.2666,
      "velocity": 123,
      "chip": "ym2612"
    },
    {
      "channel": 1,
      "note": 62,
      "start": 12.0268,
      "duration": 0.2664,
      "velocity": 123,
      "chip": "ym2612"
    },
    {
      "channel": 2,
      "note": 59,
      "start": 12.0271,
      "duration": 0.2663,
      "velocity": 123,
      "chip": "ym2612"
    },
    {
      "channel": 3,
      "note": 54,
      "start": 12.0273,
      "duration": 0.5332,
      "velocity": 123,
      "chip": "ym2612"
    },
    {
      "channel": 4,
      "note": 54,
      "start": 12.0936,
      "duration": 0.5331,
      "velocity": 123,
      "chip": "ym2612"
    },
    {
      "channel": 0,
      "note": 62,
      "start": 12.1601,
      "duration": 0.2665,
      "velocity": 95,
      "chip": "ym2612"
    },
    {
      "channel": 2,
      "note": 59,
      "start": 12.2936,
      "duration": 0.2666,
      "velocity": 123,
      "chip": "ym2612"
    },
    {
      "channel": 1,
      "note": 66,
      "start": 12.5601,
      "duration": 0.2664,
      "velocity": 123,
      "chip": "ym2612"
    },
    {
      "channel": 2,
      "note": 62,
      "start": 12.5604,
      "duration": 0.2663,
      "velocity": 123,
      "chip": "ym2612"
    },
    {
      "channel": 3,
      "note": 57,
      "start": 12.5606,
      "duration": 0.5332,
      "velocity": 123,
      "chip": "ym2612"
    },
    {
      "channel": 4,
      "note": 57,
      "start": 12.6269,
      "duration": 0.5332,
      "velocity": 123,
      "chip": "ym2612"
    },
    {
      "channel": 0,
      "note": 66,
      "start": 12.6934,
      "duration": 0.2665,
      "velocity": 95,
      "chip": "ym2612"
    },
    {
      "channel": 2,
      "note": 62,
      "start": 12.8269,
      "duration": 0.2666,
      "velocity": 123,
      "chip": "ym2612"
    },
    {
      "channel": 1,
      "note": 62,
      "start": 13.0935,
      "duration": 0.2664,
      "velocity": 123,
      "chip": "ym2612"
    },
    {
      "channel": 2,
      "note": 59,
      "start": 13.0938,
      "duration": 0.2664,
      "velocity": 123,
      "chip": "ym2612"
    },
    {
      "channel": 3,
      "note": 55,
      "start": 13.0941,
      "duration": 0.2662,
      "velocity": 123,
      "chip": "ym2612"
    },
    {
      "channel": 4,
      "note": 55,
      "start": 13.1602,
      "duration": 0.2664,
      "velocity": 123,
      "chip": "ym2612"
    },
    {
      "channel": 0,
      "note": 62,
      "start": 13.2267,
      "duration": 0.2665,
      "velocity": 95,
      "chip": "ym2612"
    },
    {
      "channel": 1,
      "note": 62,
      "start": 13.3601,
      "duration": 0.2584,
      "velocity": 123,
      "chip": "ym2612"
    },
    {
      "channel": 3,
      "note": 47,
      "start": 13.3605,
      "duration": 0.258,
      "velocity": 123,
      "chip": "ym2612"
    },
    {
      "channel": 4,
      "note": 47,
      "start": 13.4269,
      "duration": 0.1916,
      "velocity": 123,
      "chip": "ym2612"
    },
    {
      "channel": 0,
      "note": 62,
      "start": 13.4934,
      "duration": 0.1251,
      "velocity": 95,
      "chip": "ym2612"
    }
  ]
}