{
  "track_name": "03 - Marble Zone",
  "duration_sec": 38.484,
  "sample_rate": 44100,
  "note_count": 445,
  "unique_pitches": 27,
  "pitch_range": 48,
  "avg_note_duration": 0.35,
  "reconstruction_stats": {
    "notes_reconstructed": 445,
    "keyon_events": 445,
    "keyoff_events": 432,
    "orphan_keyons": 5,
    "unique_pitches": 27,
    "pitch_range": 48,
    "avg_duration_sec": 0.35
  },
  "metadata": {
    "source": "S\\Sonic the Hedgehog\\03 - Marble Zone.vgm"
  },
  "notes": [
    {
      "channel": 1,
      "note": 49,
      "start": 0.0,
      "duration": 0.0069,
      "velocity": 94,
      "chip": "ym2612"
    },
    {
      "channel": 3,
      "note": 61,
      "start": 0.0002,
      "duration": 0.0069,
      "velocity": 91,
      "chip": "ym2612"
    },
    {
      "channel": 4,
      "note": 85,
      "start": 0.0004,
      "duration": 0.007,
      "velocity": 82,
      "chip": "ym2612"
    },
    {
      "channel": 1,
      "note": 49,
      "start": 0.007,
      "duration": 0.0071,
      "velocity": 94,
      "chip": "ym2612"
    },
    {
      "channel": 3,
      "note": 61,
      "start": 0.0073,
      "duration": 0.0071,
      "velocity": 91,
      "chip": "ym2612"
    },
    {
      "channel": 4,
      "note": 85,
      "start": 0.0075,
      "duration": 0.0071,
      "velocity": 82,
      "chip": "ym2612"
    },
    {
      "channel": 1,
      "note": 49,
      "start": 0.0143,
      "duration": 0.0601,
      "velocity": 94,
      "chip": "ym2612"
    },
    {
      "channel": 3,
      "note": 61,
      "start": 0.0145,
      "duration": 0.0602,
      "velocity": 91,
      "chip": "ym2612"
    },
    {
      "channel": 4,
      "note": 85,
      "start": 0.0147,
      "duration": 0.06,
      "velocity": 82,
      "chip": "ym2612"
    },
    {
      "channel": 1,
      "note": 37,
      "start": 0.308,
      "duration": 0.7526,
      "velocity": 94,
      "chip": "ym2612"
    },
    {
      "channel": 3,
      "note": 49,
      "start": 0.3082,
      "duration": 0.52,
      "velocity": 103,
      "chip": "ym2612"
    },
    {
      "channel": 4,
      "note": 73,
      "start": 0.3084,
      "duration": 0.521,
      "velocity": 103,
      "chip": "ym2612"
    },
    {
      "channel": 0,
      "note": 66,
      "start": 0.5571,
      "duration": 0.0182,
      "velocity": 97,
      "chip": "ym2612"
    },
    {
      "channel": 2,
      "note": 66,
      "start": 0.5573,
      "duration": 0.0181,
      "velocity": 97,
      "chip": "ym2612"
    },
    {
      "channel": 0,
      "note": 68,
      "start": 0.5754,
      "duration": 0.2333,
      "velocity": 97,
      "chip": "ym2612"
    },
    {
      "channel": 2,
      "note": 68,
      "start": 0.5756,
      "duration": 0.2333,
      "velocity": 97,
      "chip": "ym2612"
    },
    {
      "channel": 0,
      "note": 69,
      "start": 0.8088,
      "duration": 0.0182,
      "velocity": 97,
      "chip": "ym2612"
    },
    {
      "channel": 2,
      "note": 69,
      "start": 0.809,
      "duration": 0.0182,
      "velocity": 97,
      "chip": "ym2612"
    },
    {
      "channel": 0,
      "note": 73,
      "start": 0.8271,
      "duration": 0.2333,
      "velocity": 97,
      "chip": "ym2612"
    },
    {
      "channel": 2,
      "note": 73,
      "start": 0.8273,
      "duration": 0.2335,
      "velocity": 97,
      "chip": "ym2612"
    },
    {
      "channel": 3,
      "note": 80,
      "start": 0.8284,
      "duration": 0.2327,
      "velocity": 103,
      "chip": "ym2612"
    },
    {
      "channel": 4,
      "note": 76,
      "start": 0.8295,
      "duration": 0.2317,
      "velocity": 103,
      "chip": "ym2612"
    },
    {
      "channel": 0,
      "note": 80,
      "start": 1.0605,
      "duration": 0.1344,
      "velocity": 97,
      "chip": "ym2612"
    },
    {
      "channel": 1,
      "note": 42,
      "start": 1.0607,
      "duration": 0.0093,
      "velocity": 94,
      "chip": "ym2612"
    },
    {
      "channel": 2,
      "note": 80,
      "start": 1.0609,
      "duration": 0.1341,
      "velocity": 97,
      "chip": "ym2612"
    },
    {
      "channel": 3,
      "note": 80,
      "start": 1.0611,
      "duration": 0.0091,
      "velocity": 103,
      "chip": "ym2612"
    },
    {
      "channel": 4,
      "note": 76,
      "start": 1.0613,
      "duration": 0.009,
      "velocity": 103,
      "chip": "ym2612"
    },
    {
      "channel": 1,
      "note": 42,
      "start": 1.0785,
      "duration": 0.2334,
      "velocity": 94,
      "chip": "ym2612"
    },
    {
      "channel": 3,
      "note": 80,
      "start": 1.0786,
      "duration": 0.1166,
      "velocity": 103,
      "chip": "ym2612"
    },
    {
      "channel": 4,
      "note": 76,
      "start": 1.0788,
      "duration": 0.1165,
      "velocity": 103,
      "chip": "ym2612"
    },
    {
      "channel": 0,
      "note": 80,
      "start": 1.3118,
      "duration": 0.0174,
      "velocity": 97,
      "chip": "ym2612"
    },
    {
      "channel": 1,
      "note": 49,
      "start": 1.312,
      "duration": 0.0091,
      "velocity": 94,
      "chip": "ym2612"
    },
    {
      "channel": 2,
      "note": 80,
      "start": 1.3122,
      "duration": 0.0173,
      "velocity": 97,
      "chip": "ym2612"
    },
    {
      "channel": 3,
      "note": 81,
      "start": 1.3124,
      "duration": 0.0173,
      "velocity": 103,
      "chip": "ym2612"
    },
    {
      "channel": 4,
      "note": 78,
      "start": 1.3126,
      "duration": 0.0173,
      "velocity": 103,
      "chip": "ym2612"
    },
    {
      "channel": 0,
      "note": 78,
      "start": 1.3293,
      "duration": 0.2333,
      "velocity": 97,
      "chip": "ym2612"
    },
    {
      "channel": 1,
      "note": 49,
      "start": 1.3295,
      "duration": 0.2333,
      "velocity": 94,
      "chip": "ym2612"
    },
    {
      "channel": 2,
      "note": 78,
      "start": 1.3297,
      "duration": 0.2333,
      "velocity": 97,
      "chip": "ym2612"
    },
    {
      "channel": 0,
      "note": 80,
      "start": 1.5627,
      "duration": 0.1343,
      "velocity": 97,
      "chip": "ym2612"
    },
    {
      "channel": 1,
      "note": 47,
      "start": 1.563,
      "duration": 0.0092,
      "velocity": 94,
      "chip": "ym2612"
    },
    {
      "channel": 2,
      "note": 80,
      "start": 1.5632,
      "duration": 0.134,
      "velocity": 97,
      "chip": "ym2612"
    },
    {
      "channel": 3,
      "note": 80,
      "start": 1.5634,
      "duration": 0.251,
      "velocity": 103,
      "chip": "ym2612"
    },
    {
      "channel": 4,
      "note": 76,
      "start": 1.5635,
      "duration": 0.251,
      "velocity": 103,
      "chip": "ym2612"
    },
    {
      "channel": 1,
      "note": 47,
      "start": 1.5806,
      "duration": 0.2334,
      "velocity": 94,
      "chip": "ym2612"
    },
    {
      "channel": 0,
      "note": 80,
      "start": 1.8139,
      "duration": 0.0179,
      "velocity": 97,
      "chip": "ym2612"
    },
    {
      "channel": 1,
      "note": 49,
      "start": 1.8142,
      "duration": 0.0089,
      "velocity": 94,
      "chip": "ym2612"
    },
    {
      "channel": 2,
      "note": 80,
      "start": 1.8144,
      "duration": 0.0179,
      "velocity": 97,
      "chip": "ym2612"
    },
    {
      "channel": 0,
      "note": 78,
      "start": 1.832,
      "duration": 0.2333,
      "velocity": 97,
      "chip": "ym2612"
    },
    {
      "channel": 1,
      "note": 49,
      "start": 1.8322,
      "duration": 0.2333,
      "velocity": 94,
      "chip": "ym2612"
    },
    {
      "channel": 2,
      "note": 78,
      "start": 1.8324,
      "duration": 0.2333,
      "velocity": 97,
      "chip": "ym2612"
    },
    {
      "channel": 3,
      "note": 80,
      "start": 1.8326,
      "duration": 0.242,
      "velocity": 103,
      "chip": "ym2612"
    },
    {
      "channel": 4,
      "note": 76,
      "start": 1.8328,
      "duration": 0.2419,
      "velocity": 103,
      "chip": "ym2612"
    },
    {
      "channel": 0,
      "note": 80,
      "start": 2.0654,
      "duration": 0.1343,
      "velocity": 97,
      "chip": "ym2612"
    },
    {
      "channel": 1,
      "note": 42,
      "start": 2.0656,
      "duration": 0.0087,
      "velocity": 94,
      "chip": "ym2612"
    },
    {
      "channel": 2,
      "note": 80,
      "start": 2.0658,
      "duration": 0.134,
      "velocity": 97,
      "chip": "ym2612"
    },
    {
      "channel": 1,
      "note": 42,
      "start": 2.0832,
      "duration": 0.2334,
      "velocity": 94,
      "chip": "ym2612"
    },
    {
      "channel": 3,
      "note": 80,
      "start": 2.0834,
      "duration": 0.1166,
      "velocity": 103,
      "chip": "ym2612"
    },
    {
      "channel": 4,
      "note": 76,
      "start": 2.0836,
      "duration": 0.1165,
      "velocity": 103,
      "chip": "ym2612"
    },
    {
      "channel": 0,
      "note": 80,
      "start": 2.3166,
      "duration": 0.0177,
      "velocity": 97,
      "chip": "ym2612"
    },
    {
      "channel": 1,
      "note": 49,
      "start": 2.3168,
      "duration": 0.0092,
      "velocity": 94,
      "chip": "ym2612"
    },
    {
      "channel": 2,
      "note": 80,
      "start": 2.317,
      "duration": 0.0176,
      "velocity": 97,
      "chip": "ym2612"
    },
    {
      "channel": 3,
      "note": 81,
      "start": 2.3172,
      "duration": 0.0176,
      "velocity": 103,
      "chip": "ym2612"
    },
    {
      "channel": 4,
      "note": 78,
      "start": 2.3174,
      "duration": 0.0176,
      "velocity": 103,
      "chip": "ym2612"
    },
    {
      "channel": 0,
      "note": 78,
      "start": 2.3344,
      "duration": 0.2333,
      "velocity": 97,
      "chip": "ym2612"
    },
    {
      "channel": 1,
      "note": 49,
      "start": 2.3345,
      "duration": 0.2333,
      "velocity": 94,
      "chip": "ym2612"
    },
    {
      "channel": 2,
      "note": 78,
      "start": 2.3347,
      "duration": 0.2333,
      "velocity": 97,
      "chip": "ym2612"
    },
    {
      "channel": 0,
      "note": 80,
      "start": 2.5678,
      "duration": 0.0179,
      "velocity": 97,
      "chip": "ym2612"
    },
    {
      "channel": 1,
      "note": 47,
      "start": 2.5679,
      "duration": 0.0093,
      "velocity": 94,
      "chip": "ym2612"
    },
    {
      "channel": 2,
      "note": 80,
      "start": 2.5681,
      "duration": 0.0179,
      "velocity": 97,
      "chip": "ym2612"
    },
    {
      "channel": 3,
      "note": 80,
      "start": 2.5683,
      "duration": 0.2513,
      "velocity": 103,
      "chip": "ym2612"
    },
    {
      "channel": 4,
      "note": 76,
      "start": 2.5686,
      "duration": 0.2512,
      "velocity": 103,
      "chip": "ym2612"
    },
    {
      "channel": 0,
      "note": 78,
      "start": 2.5858,
      "duration": 0.2333,
      "velocity": 97,
      "chip": "ym2612"
    },
    {
      "channel": 1,
      "note": 47,
      "start": 2.586,
      "duration": 0.2333,
      "velocity": 94,
      "chip": "ym2612"
    },
    {
      "channel": 2,
      "note": 78,
      "start": 2.5862,
      "duration": 0.2333,
      "velocity": 97,
      "chip": "ym2612"
    },
    {
      "channel": 0,
      "note": 73,
      "start": 2.8192,
      "duration": 0.0179,
      "velocity": 97,
      "chip": "ym2612"
    },
    {
      "channel": 1,
      "note": 49,
      "start": 2.8194,
      "duration": 0.009,
      "velocity": 94,
      "chip": "ym2612"
    },
    {
      "channel": 2,
      "note": 73,
      "start": 2.8196,
      "duration": 0.0179,
      "velocity": 97,
      "chip": "ym2612"
    },
    {
      "channel": 0,
      "note": 69,
      "start": 2.8372,
      "duration": 0.2333,
      "velocity": 97,
      "chip": "ym2612"
    },
    {
      "channel": 1,
      "note": 49,
      "start": 2.8374,
      "duration": 0.2333,
      "velocity": 94,
      "chip": "ym2612"
    },
    {
      "channel": 2,
      "note": 69,
      "start": 2.8376,
      "duration": 0.2333,
      "velocity": 97,
      "chip": "ym2612"
    },
    {
      "channel": 0,
      "note": 76,
      "start": 3.0706,
      "duration": 0.2507,
      "velocity": 97,
      "chip": "ym2612"
    },
    {
      "channel": 1,
      "note": 47,
      "start": 3.0709,
      "duration": 0.009,
      "velocity": 94,
      "chip": "ym2612"
    },
    {
      "channel": 2,
      "note": 76,
      "start": 3.0711,
      "duration": 0.2507,
      "velocity": 97,
      "chip": "ym2612"
    },
    {
      "channel": 1,
      "note": 47,
      "start": 3.0882,
      "duration": 0.2334,
      "velocity": 94,
      "chip": "ym2612"
    },
    {
      "channel": 0,
      "note": 78,
      "start": 3.3215,
      "duration": 0.0176,
      "velocity": 97,
      "chip": "ym2612"
    },
    {
      "channel": 1,
      "note": 54,
      "start": 3.3218,
      "duration": 0.0091,
      "velocity": 94,
      "chip": "ym2612"
    },
    {
      "channel": 2,
      "note": 78,
      "start": 3.322,
      "duration": 0.0176,
      "velocity": 97,
      "chip": "ym2612"
    },
    {
      "channel": 3,
      "note": 81,
      "start": 3.3222,
      "duration": 0.009,
      "velocity": 103,
      "chip": "ym2612"
    },
    {
      "channel": 4,
      "note": 78,
      "start": 3.3223,
      "duration": 0.0089,
      "velocity": 103,
      "chip": "ym2612"
    },
    {
      "channel": 0,
      "note": 74,
      "start": 3.3391,
      "duration": 1.6882,
      "velocity": 97,
      "chip": "ym2612"
    },
    {
      "channel": 1,
      "note": 54,
      "start": 3.3393,
      "duration": 0.2331,
      "velocity": 94,
      "chip": "ym2612"
    },
    {
      "channel": 2,
      "note": 74,
      "start": 3.3395,
      "duration": 1.688,
      "velocity": 97,
      "chip": "ym2612"
    },
    {
      "channel": 1,
      "note": 50,
      "start": 3.5726,
      "duration": 0.0087,
      "velocity": 94,
      "chip": "ym2612"
    },
    {
      "channel": 1,
      "note": 50,
      "start": 3.5903,
      "duration": 0.2332,
      "velocity": 94,
      "chip": "ym2612"
    },
    {
      "channel": 3,
      "note": 81,
      "start": 3.5905,
      "duration": 0.1163,
      "velocity": 103,
      "chip": "ym2612"
    },
    {
      "channel": 4,
      "note": 78,
      "start": 3.5908,
      "duration": 0.1162,
      "velocity": 103,
      "chip": "ym2612"
    },
    {
      "channel": 1,
      "note": 54,
      "start": 3.8237,
      "duration": 0.0087,
      "velocity": 94,
      "chip": "ym2612"
    },
    {
      "channel": 1,
      "note": 54,
      "start": 3.8415,
      "duration": 0.2333,
      "velocity": 94,
      "chip": "ym2612"
    },
    {
      "channel": 1,
      "note": 47,
      "start": 4.0749,
      "duration": 0.0088,
      "velocity": 94,
      "chip": "ym2612"
    },
    {
      "channel": 1,
      "note": 47,
      "start": 4.0926,
      "duration": 0.2332,
      "velocity": 94,
      "chip": "ym2612"
    },
    {
      "channel": 1,
      "note": 54,
      "start": 4.326,
      "duration": 0.0089,
      "velocity": 94,
      "chip": "ym2612"
    },
    {
      "channel": 3,
      "note": 81,
      "start": 4.3261,
      "duration": 0.0089,
      "velocity": 103,
      "chip": "ym2612"
    },
    {
      "channel": 4,
      "note": 78,
      "start": 4.3264,
      "duration": 0.0088,
      "velocity": 103,
      "chip": "ym2612"
    },
    {
      "channel": 1,
      "note": 54,
      "start": 4.3431,
      "duration": 0.2332,
      "velocity": 94,
      "chip": "ym2612"
    },
    {
      "channel": 1,
      "note": 50,
      "start": 4.5765,
      "duration": 0.0085,
      "velocity": 94,
      "chip": "ym2612"
    },
    {
      "channel": 1,
      "note": 50,
      "start": 4.5937,
      "duration": 0.2332,
      "velocity": 94,
      "chip": "ym2612"
    },
    {
      "channel": 3,
      "note": 81,
      "start": 4.5938,
      "duration": 0.1163,
      "velocity": 103,
      "chip": "ym2612"
    },
    {
      "channel": 4,
      "note": 78,
      "start": 4.5941,
      "duration": 0.1162,
      "velocity": 103,
      "chip": "ym2612"
    },
    {
      "channel": 1,
      "note": 54,
      "start": 4.8271,
      "duration": 0.0085,
      "velocity": 94,
      "chip": "ym2612"
    },
    {
      "channel": 1,
      "note": 54,
      "start": 4.8442,
      "duration": 0.2334,
      "velocity": 94,
      "chip": "ym2612"
    },
    {
      "channel": 3,
      "note": 78,
      "start": 4.8444,
      "duration": 0.2425,
      "velocity": 103,
      "chip": "ym2612"
    },
    {
      "channel": 4,
      "note": 74,
      "start": 4.8446,
      "duration": 0.2424,
      "velocity": 103,
      "chip": "ym2612"
    },
    {
      "channel": 0,
      "note": 78,
      "start": 5.0776,
      "duration": 0.1339,
      "velocity": 97,
      "chip": "ym2612"
    },
    {
      "channel": 1,
      "note": 40,
      "start": 5.0778,
      "duration": 0.0089,
      "velocity": 94,
      "chip": "ym2612"
    },
    {
      "channel": 2,
      "note": 78,
      "start": 5.078,
      "duration": 0.1336,
      "velocity": 97,
      "chip": "ym2612"
    },
    {
      "channel": 1,
      "note": 40,
      "start": 5.0951,
      "duration": 0.2334,
      "velocity": 94,
      "chip": "ym2612"
    },
    {
      "channel": 3,
      "note": 78,
      "start": 5.0952,
      "duration": 0.1166,
      "velocity": 103,
      "chip": "ym2612"
    },
    {
      "channel": 4,
      "note": 74,
      "start": 5.0954,
      "duration": 0.1165,
      "velocity": 103,
      "chip": "ym2612"
    },
    {
      "channel": 0,
      "note": 78,
      "start": 5.3284,
      "duration": 0.0174,
      "velocity": 97,
      "chip": "ym2612"
    },
    {
      "channel": 1,
      "note": 47,
      "start": 5.3286,
      "duration": 0.0087,
      "velocity": 94,
      "chip": "ym2612"
    },
    {
      "channel": 2,
      "note": 78,
      "start": 5.3288,
      "duration": 0.0173,
      "velocity": 97,
      "chip": "ym2612"
    },
    {
      "channel": 3,
      "note": 80,
      "start": 5.329,
      "duration": 0.0173,
      "velocity": 103,
      "chip": "ym2612"
    },
    {
      "channel": 4,
      "note": 76,
      "start": 5.3292,
      "duration": 0.0173,
      "velocity": 103,
      "chip": "ym2612"
    },
    {
      "channel": 0,
      "note": 76,
      "start": 5.3459,
      "duration": 0.2333,
      "velocity": 97,
      "chip": "ym2612"
    },
    {
      "channel": 1,
      "note": 47,
      "start": 5.3461,
      "duration": 0.2333,
      "velocity": 94,
      "chip": "ym2612"
    },
    {
      "channel": 2,
      "note": 76,
      "start": 5.3463,
      "duration": 0.2333,
      "velocity": 97,
      "chip": "ym2612"
    },
    {
      "channel": 0,
      "note": 78,
      "start": 5.5793,
      "duration": 0.1343,
      "velocity": 97,
      "chip": "ym2612"
    },
    {
      "channel": 1,
      "note": 44,
      "start": 5.5796,
      "duration": 0.0092,
      "velocity": 94,
      "chip": "ym2612"
    },
    {
      "channel": 2,
      "note": 78,
      "start": 5.5798,
      "duration": 0.134,
      "velocity": 97,
      "chip": "ym2612"
    },
    {
      "channel": 3,
      "note": 78,
      "start": 5.58,
      "duration": 0.251,
      "velocity": 103,
      "chip": "ym2612"
    },
    {
      "channel": 4,
      "note": 74,
      "start": 5.5801,
      "duration": 0.251,
      "velocity": 103,
      "chip": "ym2612"
    },
    {
      "channel": 1,
      "note": 44,
      "start": 5.5972,
      "duration": 0.2334,
      "velocity": 94,
      "chip": "ym2612"
    },
    {
      "channel": 0,
      "note": 78,
      "start": 5.8305,
      "duration": 0.0172,
      "velocity": 97,
      "chip": "ym2612"
    },
    {
      "channel": 1,
      "note": 47,
      "start": 5.8308,
      "duration": 0.009,
      "velocity": 94,
      "chip": "ym2612"
    },
    {
      "channel": 2,
      "note": 78,
      "start": 5.831,
      "duration": 0.0172,
      "velocity": 97,
      "chip": "ym2612"
    },
    {
      "channel": 0,
      "note": 76,
      "start": 5.8479,
      "duration": 0.2333,
      "velocity": 97,
      "chip": "ym2612"
    },
    {
      "channel": 1,
      "note": 47,
      "start": 5.8481,
      "duration": 0.2333,
      "velocity": 94,
      "chip": "ym2612"
    },
    {
      "channel": 2,
      "note": 76,
      "start": 5.8483,
      "duration": 0.2333,
      "velocity": 97,
      "chip": "ym2612"
    },
    {
      "channel": 3,
      "note": 78,
      "start": 5.8485,
      "duration": 0.242,
      "velocity": 103,
      "chip": "ym2612"
    },
    {
      "channel": 4,
      "note": 74,
      "start": 5.8487,
      "duration": 0.2419,
      "velocity": 103,
      "chip": "ym2612"
    },
    {
      "channel": 0,
      "note": 78,
      "start": 6.0813,
      "duration": 0.1341,
      "velocity": 97,
      "chip": "ym2612"
    },
    {
      "channel": 1,
      "note": 40,
      "start": 6.0815,
      "duration": 0.0087,
      "velocity": 94,
      "chip": "ym2612"
    },
    {
      "channel": 2,
      "note": 78,
      "start": 6.0817,
      "duration": 0.1338,
      "velocity": 97,
      "chip": "ym2612"
    },
    {
      "channel": 1,
      "note": 40,
      "start": 6.0989,
      "duration": 0.2334,
      "velocity": 94,
      "chip": "ym2612"
    },
    {
      "channel": 3,
      "note": 78,
      "start": 6.0991,
      "duration": 0.1166,
      "velocity": 103,
      "chip": "ym2612"
    },
    {
      "channel": 4,
      "note": 74,
      "start": 6.0993,
      "duration": 0.1165,
      "velocity": 103,
      "chip": "ym2612"
    },
    {
      "channel": 0,
      "note": 78,
      "start": 6.3322,
      "duration": 0.0177,
      "velocity": 97,
      "chip": "ym2612"
    },
    {
      "channel": 1,
      "note": 47,
      "start": 6.3325,
      "duration": 0.0092,
      "velocity": 94,
      "chip": "ym2612"
    },
    {
      "channel": 2,
      "note": 78,
      "start": 6.3327,
      "duration": 0.0176,
      "velocity": 97,
      "chip": "ym2612"
    },
    {
      "channel": 3,
      "note": 80,
      "start": 6.3329,
      "duration": 0.0176,
      "velocity": 103,
      "chip": "ym2612"
    },
    {
      "channel": 4,
      "note": 76,
      "start": 6.3331,
      "duration": 0.0176,
      "velocity": 103,
      "chip": "ym2612"
    },
    {
      "channel": 0,
      "note": 76,
      "start": 6.35,
      "duration": 0.2333,
      "velocity": 97,
      "chip": "ym2612"
    },
    {
      "channel": 1,
      "note": 47,
      "start": 6.3502,
      "duration": 0.2333,
      "velocity": 94,
      "chip": "ym2612"
    },
    {
      "channel": 2,
      "note": 76,
      "start": 6.3504,
      "duration": 0.2333,
      "velocity": 97,
      "chip": "ym2612"
    },
    {
      "channel": 0,
      "note": 78,
      "start": 6.5834,
      "duration": 0.2511,
      "velocity": 97,
      "chip": "ym2612"
    },
    {
      "channel": 1,
      "note": 44,
      "start": 6.5837,
      "duration": 0.0092,
      "velocity": 94,
      "chip": "ym2612"
    },
    {
      "channel": 2,
      "note": 78,
      "start": 6.5839,
      "duration": 0.251,
      "velocity": 97,
      "chip": "ym2612"
    },
    {
      "channel": 3,
      "note": 78,
      "start": 6.5841,
      "duration": 0.251,
      "velocity": 103,
      "chip": "ym2612"
    },
    {
      "channel": 4,
      "note": 74,
      "start": 6.5843,
      "duration": 0.251,
      "velocity": 103,
      "chip": "ym2612"
    },
    {
      "channel": 1,
      "note": 44,
      "start": 6.6013,
      "duration": 0.2334,
      "velocity": 94,
      "chip": "ym2612"
    },
    {
      "channel": 0,
      "note": 80,
      "start": 6.8346,
      "duration": 0.2513,
      "velocity": 97,
      "chip": "ym2612"
    },
    {
      "channel": 1,
      "note": 47,
      "start": 6.8348,
      "duration": 0.009,
      "velocity": 94,
      "chip": "ym2612"
    },
    {
      "channel": 2,
      "note": 80,
      "start": 6.835,
      "duration": 0.2513,
      "velocity": 97,
      "chip": "ym2612"
    },
    {
      "channel": 1,
      "note": 47,
      "start": 6.8527,
      "duration": 0.2334,
      "velocity": 94,
      "chip": "ym2612"
    },
    {
      "channel": 0,
      "note": 74,
      "start": 7.0861,
      "duration": 0.2685,
      "velocity": 97,
      "chip": "ym2612"
    },
    {
      "channel": 1,
      "note": 45,
      "start": 7.0863,
      "duration": 0.009,
      "velocity": 94,
      "chip": "ym2612"
    },
    {
      "channel": 2,
      "note": 74,
      "start": 7.0865,
      "duration": 0.2685,
      "velocity": 97,
      "chip": "ym2612"
    },
    {
      "channel": 1,
      "note": 45,
      "start": 7.1037,
      "duration": 0.2332,
      "velocity": 94,
      "chip": "ym2612"
    },
    {
      "channel": 1,
      "note": 52,
      "start": 7.3371,
      "duration": 0.009,
      "velocity": 94,
      "chip": "ym2612"
    },
    {
      "channel": 3,
      "note": 76,
      "start": 7.3373,
      "duration": 0.009,
      "velocity": 103,
      "chip": "ym2612"
    },
    {
      "channel": 4,
      "note": 73,
      "start": 7.3375,
      "duration": 0.0089,
      "velocity": 103,
      "chip": "ym2612"
    },
    {
      "channel": 0,
      "note": 73,
      "start": 7.3547,
      "duration": 1.1872,
      "velocity": 97,
      "chip": "ym2612"
    },
    {
      "channel": 1,
      "note": 52,
      "start": 7.3549,
      "duration": 0.233,
      "velocity": 94,
      "chip": "ym2612"
    },
    {
      "channel": 2,
      "note": 73,
      "start": 7.3551,
      "duration": 1.1869,
      "velocity": 97,
      "chip": "ym2612"
    },
    {
      "channel": 1,
      "note": 49,
      "start": 7.5882,
      "duration": 0.0087,
      "velocity": 94,
      "chip": "ym2612"
    },
    {
      "channel": 1,
      "note": 49,
      "start": 7.6059,
      "duration": 0.2332,
      "velocity": 94,
      "chip": "ym2612"
    },
    {
      "channel": 3,
      "note": 76,
      "start": 7.6061,
      "duration": 0.1163,
      "velocity": 103,
      "chip": "ym2612"
    },
    {
      "channel": 4,
      "note": 73,
      "start": 7.6063,
      "duration": 0.1162,
      "velocity": 103,
      "chip": "ym2612"
    },
    {
      "channel": 1,
      "note": 52,
      "start": 7.8393,
      "duration": 0.0087,
      "velocity": 94,
      "chip": "ym2612"
    },
    {
      "channel": 1,
      "note": 52,
      "start": 7.8571,
      "duration": 0.2332,
      "velocity": 94,
      "chip": "ym2612"
    },
    {
      "channel": 1,
      "note": 44,
      "start": 8.0905,
      "duration": 0.0085,
      "velocity": 94,
      "chip": "ym2612"
    },
    {
      "channel": 1,
      "note": 44,
      "start": 8.1078,
      "duration": 0.2332,
      "velocity": 94,
      "chip": "ym2612"
    },
    {
      "channel": 1,
      "note": 50,
      "start": 8.3412,
      "duration": 0.0087,
      "velocity": 94,
      "chip": "ym2612"
    },
    {
      "channel": 1,
      "note": 50,
      "start": 8.3588,
      "duration": 0.2334,
      "velocity": 94,
      "chip": "ym2612"
    },
    {
      "channel": 0,
      "note": 66,
      "start": 8.5922,
      "duration": 0.0173,
      "velocity": 97,
      "chip": "ym2612"
    },
    {
      "channel": 1,
      "note": 49,
      "start": 8.5924,
      "duration": 0.009,
      "velocity": 94,
      "chip": "ym2612"
    },
    {
      "channel": 2,
      "note": 66,
      "start": 8.5926,
      "duration": 0.0173,
      "velocity": 97,
      "chip": "ym2612"
    },
    {
      "channel": 0,
      "note": 68,
      "start": 8.6096,
      "duration": 0.2333,
      "velocity": 97,
      "chip": "ym2612"
    },
    {
      "channel": 1,
      "note": 49,
      "start": 8.6098,
      "duration": 0.2333,
      "velocity": 94,
      "chip": "ym2612"
    },
    {
      "channel": 2,
      "note": 68,
      "start": 8.61,
      "duration": 0.2333,
      "velocity": 97,
      "chip": "ym2612"
    },
    {
      "channel": 0,
      "note": 69,
      "start": 8.843,
      "duration": 0.017,
      "velocity": 97,
      "chip": "ym2612"
    },
    {
      "channel": 1,
      "note": 44,
      "start": 8.8432,
      "duration": 0.0085,
      "velocity": 94,
      "chip": "ym2612"
    },
    {
      "channel": 2,
      "note": 69,
      "start": 8.8434,
      "duration": 0.017,
      "velocity": 97,
      "chip": "ym2612"
    },
    {
      "channel": 0,
      "note": 73,
      "start": 8.8602,
      "duration": 0.2333,
      "velocity": 97,
      "chip": "ym2612"
    },
    {
      "channel": 1,
      "note": 44,
      "start": 8.8603,
      "duration": 0.2333,
      "velocity": 94,
      "chip": "ym2612"
    },
    {
      "channel": 2,
      "note": 73,
      "start": 8.8605,
      "duration": 0.2333,
      "velocity": 97,
      "chip": "ym2612"
    },
    {
      "channel": 3,
      "note": 80,
      "start": 8.8607,
      "duration": 0.2335,
      "velocity": 103,
      "chip": "ym2612"
    },
    {
      "channel": 4,
      "note": 76,
      "start": 8.861,
      "duration": 0.2335,
      "velocity": 103,
      "chip": "ym2612"
    },
    {
      "channel": 0,
      "note": 80,
      "start": 9.0936,
      "duration": 0.1345,
      "velocity": 97,
      "chip": "ym2612"
    },
    {
      "channel": 1,
      "note": 42,
      "start": 9.0938,
      "duration": 0.0092,
      "velocity": 94,
      "chip": "ym2612"
    },
    {
      "channel": 2,
      "note": 80,
      "start": 9.094,
      "duration": 0.1342,
      "velocity": 97,
      "chip": "ym2612"
    },
    {
      "channel": 3,
      "note": 80,
      "start": 9.0942,
      "duration": 0.009,
      "velocity": 103,
      "chip": "ym2612"
    },
    {
      "channel": 4,
      "note": 76,
      "start": 9.0944,
      "duration": 0.0088,
      "velocity": 103,
      "chip": "ym2612"
    },
    {
      "channel": 1,
      "note": 42,
      "start": 9.1116,
      "duration": 0.2334,
      "velocity": 94,
      "chip": "ym2612"
    },
    {
      "channel": 3,
      "note": 80,
      "start": 9.1117,
      "duration": 0.1166,
      "velocity": 103,
      "chip": "ym2612"
    },
    {
      "channel": 4,
      "note": 76,
      "start": 9.112,
      "duration": 0.1165,
      "velocity": 103,
      "chip": "ym2612"
    },
    {
      "channel": 0,
      "note": 80,
      "start": 9.3449,
      "duration": 0.0177,
      "velocity": 97,
      "chip": "ym2612"
    },
    {
      "channel": 1,
      "note": 49,
      "start": 9.3451,
      "duration": 0.0092,
      "velocity": 94,
      "chip": "ym2612"
    },
    {
      "channel": 2,
      "note": 80,
      "start": 9.3453,
      "duration": 0.0176,
      "velocity": 97,
      "chip": "ym2612"
    },
    {
      "channel": 3,
      "note": 81,
      "start": 9.3455,
      "duration": 0.0176,
      "velocity": 103,
      "chip": "ym2612"
    },
    {
      "channel": 4,
      "note": 78,
      "start": 9.3457,
      "duration": 0.0176,
      "velocity": 103,
      "chip": "ym2612"
    },
    {
      "channel": 0,
      "note": 78,
      "start": 9.3627,
      "duration": 0.2333,
      "velocity": 97,
      "chip": "ym2612"
    },
    {
      "channel": 1,
      "note": 49,
      "start": 9.3629,
      "duration": 0.2333,
      "velocity": 94,
      "chip": "ym2612"
    },
    {
      "channel": 2,
      "note": 78,
      "start": 9.3631,
      "duration": 0.2333,
      "velocity": 97,
      "chip": "ym2612"
    },
    {
      "channel": 0,
      "note": 80,
      "start": 9.5961,
      "duration": 0.1338,
      "velocity": 97,
      "chip": "ym2612"
    },
    {
      "channel": 1,
      "note": 47,
      "start": 9.5963,
      "duration": 0.009,
      "velocity": 94,
      "chip": "ym2612"
    },
    {
      "channel": 2,
      "note": 80,
      "start": 9.5965,
      "duration": 0.1335,
      "velocity": 97,
      "chip": "ym2612"
    },
    {
      "channel": 3,
      "note": 80,
      "start": 9.5967,
      "duration": 0.2505,
      "velocity": 103,
      "chip": "ym2612"
    },
    {
      "channel": 4,
      "note": 76,
      "start": 9.5969,
      "duration": 0.2505,
      "velocity": 103,
      "chip": "ym2612"
    },
    {
      "channel": 1,
      "note": 47,
      "start": 9.6135,
      "duration": 0.2334,
      "velocity": 94,
      "chip": "ym2612"
    },
    {
      "channel": 0,
      "note": 80,
      "start": 9.8468,
      "duration": 0.0177,
      "velocity": 97,
      "chip": "ym2612"
    },
    {
      "channel": 1,
      "note": 49,
      "start": 9.8471,
      "duration": 0.0089,
      "velocity": 94,
      "chip": "ym2612"
    },
    {
      "channel": 2,
      "note": 80,
      "start": 9.8472,
      "duration": 0.0177,
      "velocity": 97,
      "chip": "ym2612"
    },
    {
      "channel": 0,
      "note": 78,
      "start": 9.8647,
      "duration": 0.2333,
      "velocity": 97,
      "chip": "ym2612"
    },
    {
      "channel": 1,
      "note": 49,
      "start": 9.8649,
      "duration": 0.2333,
      "velocity": 94,
      "chip": "ym2612"
    },
    {
      "channel": 2,
      "note": 78,
      "start": 9.8651,
      "duration": 0.2333,
      "velocity": 97,
      "chip": "ym2612"
    },
    {
      "channel": 3,
      "note": 80,
      "start": 9.8652,
      "duration": 0.242,
      "velocity": 103,
      "chip": "ym2612"
    },
    {
      "channel": 4,
      "note": 76,
      "start": 9.8655,
      "duration": 0.2419,
      "velocity": 103,
      "chip": "ym2612"
    },
    {
      "channel": 0,
      "note": 80,
      "start": 10.0981,
      "duration": 0.1343,
      "velocity": 97,
      "chip": "ym2612"
    },
    {
      "channel": 1,
      "note": 42,
      "start": 10.0983,
      "duration": 0.0087,
      "velocity": 94,
      "chip": "ym2612"
    },
    {
      "channel": 2,
      "note": 80,
      "start": 10.0985,
      "duration": 0.134,
      "velocity": 97,
      "chip": "ym2612"
    },
    {
      "channel": 1,
      "note": 42,
      "start": 10.1159,
      "duration": 0.2334,
      "velocity": 94,
      "chip": "ym2612"
    },
    {
      "channel": 3,
      "note": 80,
      "start": 10.1161,
      "duration": 0.1166,
      "velocity": 103,
      "chip": "ym2612"
    },
    {
      "channel": 4,
      "note": 76,
      "start": 10.1163,
      "duration": 0.1165,
      "velocity": 103,
      "chip": "ym2612"
    },
    {
      "channel": 0,
      "note": 80,
      "start": 10.3492,
      "duration": 0.0177,
      "velocity": 97,
      "chip": "ym2612"
    },
    {
      "channel": 1,
      "note": 49,
      "start": 10.3495,
      "duration": 0.0092,
      "velocity": 94,
      "chip": "ym2612"
    },
    {
      "channel": 2,
      "note": 80,
      "start": 10.3497,
      "duration": 0.0176,
      "velocity": 97,
      "chip": "ym2612"
    },
    {
      "channel": 3,
      "note": 81,
      "start": 10.3499,
      "duration": 0.0176,
      "velocity": 103,
      "chip": "ym2612"
    },
    {
      "channel": 4,
      "note": 78,
      "start": 10.35,
      "duration": 0.0176,
      "velocity": 103,
      "chip": "ym2612"
    },
    {
      "channel": 0,
      "note": 78,
      "start": 10.367,
      "duration": 0.2333,
      "velocity": 97,
      "chip": "ym2612"
    },
    {
      "channel": 1,
      "note": 49,
      "start": 10.3672,
      "duration": 0.2333,
      "velocity": 94,
      "chip": "ym2612"
    },
    {
      "channel": 2,
      "note": 78,
      "start": 10.3674,
      "duration": 0.2333,
      "velocity": 97,
      "chip": "ym2612"
    },
    {
      "channel": 0,
      "note": 80,
      "start": 10.6004,
      "duration": 0.0179,
      "velocity": 97,
      "chip": "ym2612"
    },
    {
      "channel": 1,
      "note": 47,
      "start": 10.6006,
      "duration": 0.0093,
      "velocity": 94,
      "chip": "ym2612"
    },
    {
      "channel": 2,
      "note": 80,
      "start": 10.6008,
      "duration": 0.0179,
      "velocity": 97,
      "chip": "ym2612"
    },
    {
      "channel": 3,
      "note": 80,
      "start": 10.601,
      "duration": 0.2513,
      "velocity": 103,
      "chip": "ym2612"
    },
    {
      "channel": 4,
      "note": 76,
      "start": 10.6012,
      "duration": 0.2512,
      "velocity": 103,
      "chip": "ym2612"
    },
    {
      "channel": 0,
      "note": 78,
      "start": 10.6185,
      "duration": 0.2333,
      "velocity": 97,
      "chip": "ym2612"
    },
    {
      "channel": 1,
      "note": 47,
      "start": 10.6187,
      "duration": 0.2333,
      "velocity": 94,
      "chip": "ym2612"
    },
    {
      "channel": 2,
      "note": 78,
      "start": 10.6189,
      "duration": 0.2333,
      "velocity": 97,
      "chip": "ym2612"
    },
    {
      "channel": 0,
      "note": 73,
      "start": 10.8519,
      "duration": 0.0179,
      "velocity": 97,
      "chip": "ym2612"
    },
    {
      "channel": 1,
      "note": 49,
      "start": 10.8521,
      "duration": 0.009,
      "velocity": 94,
      "chip": "ym2612"
    },
    {
      "channel": 2,
      "note": 73,
      "start": 10.8523,
      "duration": 0.0179,
      "velocity": 97,
      "chip": "ym2612"
    },
    {
      "channel": 0,
      "note": 69,
      "start": 10.8699,
      "duration": 0.2333,
      "velocity": 97,
      "chip": "ym2612"
    },
    {
      "channel": 1,
      "note": 49,
      "start": 10.8701,
      "duration": 0.2333,
      "velocity": 94,
      "chip": "ym2612"
    },
    {
      "channel": 2,
      "note": 69,
      "start": 10.8703,
      "duration": 0.2333,
      "velocity": 97,
      "chip": "ym2612"
    },
    {
      "channel": 0,
      "note": 76,
      "start": 11.1033,
      "duration": 0.2507,
      "velocity": 97,
      "chip": "ym2612"
    },
    {
      "channel": 1,
      "note": 47,
      "start": 11.1036,
      "duration": 0.009,
      "velocity": 94,
      "chip": "ym2612"
    },
    {
      "channel": 2,
      "note": 76,
      "start": 11.1037,
      "duration": 0.2507,
      "velocity": 97,
      "chip": "ym2612"
    },
    {
      "channel": 1,
      "note": 47,
      "start": 11.1209,
      "duration": 0.2334,
      "velocity": 94,
      "chip": "ym2612"
    },
    {
      "channel": 0,
      "note": 78,
      "start": 11.3542,
      "duration": 0.0176,
      "velocity": 97,
      "chip": "ym2612"
    },
    {
      "channel": 1,
      "note": 54,
      "start": 11.3544,
      "duration": 0.0091,
      "velocity": 94,
      "chip": "ym2612"
    },
    {
      "channel": 2,
      "note": 78,
      "start": 11.3546,
      "duration": 0.0176,
      "velocity": 97,
      "chip": "ym2612"
    },
    {
      "channel": 3,
      "note": 81,
      "start": 11.3548,
      "duration": 0.009,
      "velocity": 103,
      "chip": "ym2612"
    },
    {
      "channel": 4,
      "note": 78,
      "start": 11.355,
      "duration": 0.0089,
      "velocity": 103,
      "chip": "ym2612"
    },
    {
      "channel": 0,
      "note": 74,
      "start": 11.3718,
      "duration": 1.6882,
      "velocity": 97,
      "chip": "ym2612"
    },
    {
      "channel": 1,
      "note": 54,
      "start": 11.372,
      "duration": 0.2331,
      "velocity": 94,
      "chip": "ym2612"
    },
    {
      "channel": 2,
      "note": 74,
      "start": 11.3722,
      "duration": 1.688,
      "velocity": 97,
      "chip": "ym2612"
    },
    {
      "channel": 1,
      "note": 50,
      "start": 11.6053,
      "duration": 0.0087,
      "velocity": 94,
      "chip": "ym2612"
    },
    {
      "channel": 1,
      "note": 50,
      "start": 11.623,
      "duration": 0.2332,
      "velocity": 94,
      "chip": "ym2612"
    },
    {
      "channel": 3,
      "note": 81,
      "start": 11.6232,
      "duration": 0.1163,
      "velocity": 103,
      "chip": "ym2612"
    },
    {
      "channel": 4,
      "note": 78,
      "start": 11.6234,
      "duration": 0.1162,
      "velocity": 103,
      "chip": "ym2612"
    },
    {
      "channel": 1,
      "note": 54,
      "start": 11.8564,
      "duration": 0.0087,
      "velocity": 94,
      "chip": "ym2612"
    },
    {
      "channel": 1,
      "note": 54,
      "start": 11.8742,
      "duration": 0.2333,
      "velocity": 94,
      "chip": "ym2612"
    },
    {
      "channel": 1,
      "note": 47,
      "start": 12.1076,
      "duration": 0.0088,
      "velocity": 94,
      "chip": "ym2612"
    },
    {
      "channel": 1,
      "note": 47,
      "start": 12.1252,
      "duration": 0.2332,
      "velocity": 94,
      "chip": "ym2612"
    },
    {
      "channel": 1,
      "note": 54,
      "start": 12.3586,
      "duration": 0.0089,
      "velocity": 94,
      "chip": "ym2612"
    },
    {
      "channel": 3,
      "note": 81,
      "start": 12.3588,
      "duration": 0.0089,
      "velocity": 103,
      "chip": "ym2612"
    },
    {
      "channel": 4,
      "note": 78,
      "start": 12.3591,
      "duration": 0.0088,
      "velocity": 103,
      "chip": "ym2612"
    },
    {
      "channel": 1,
      "note": 54,
      "start": 12.3758,
      "duration": 0.2332,
      "velocity": 94,
      "chip": "ym2612"
    },
    {
      "channel": 1,
      "note": 50,
      "start": 12.6092,
      "duration": 0.0085,
      "velocity": 94,
      "chip": "ym2612"
    },
    {
      "channel": 1,
      "note": 50,
      "start": 12.6263,
      "duration": 0.2332,
      "velocity": 94,
      "chip": "ym2612"
    },
    {
      "channel": 3,
      "note": 81,
      "start": 12.6265,
      "duration": 0.1163,
      "velocity": 103,
      "chip": "ym2612"
    },
    {
      "channel": 4,
      "note": 78,
      "start": 12.6268,
      "duration": 0.1162,
      "velocity": 103,
      "chip": "ym2612"
    },
    {
      "channel": 1,
      "note": 54,
      "start": 12.8597,
      "duration": 0.0085,
      "velocity": 94,
      "chip": "ym2612"
    },
    {
      "channel": 1,
      "note": 54,
      "start": 12.8769,
      "duration": 0.2334,
      "velocity": 94,
      "chip": "ym2612"
    },
    {
      "channel": 3,
      "note": 74,
      "start": 12.8771,
      "duration": 0.2425,
      "velocity": 103,
      "chip": "ym2612"
    },
    {
      "channel": 4,
      "note": 71,
      "start": 12.8773,
      "duration": 0.2424,
      "velocity": 103,
      "chip": "ym2612"
    },
    {
      "channel": 0,
      "note": 78,
      "start": 13.1103,
      "duration": 0.7526,
      "velocity": 97,
      "chip": "ym2612"
    },
    {
      "channel": 1,
      "note": 44,
      "start": 13.1105,
      "duration": 0.0089,
      "velocity": 94,
      "chip": "ym2612"
    },
    {
      "channel": 2,
      "note": 78,
      "start": 13.1107,
      "duration": 0.7525,
      "velocity": 97,
      "chip": "ym2612"
    },
    {
      "channel": 1,
      "note": 44,
      "start": 13.1277,
      "duration": 0.2332,
      "velocity": 94,
      "chip": "ym2612"
    },
    {
      "channel": 3,
      "note": 74,
      "start": 13.1279,
      "duration": 0.1163,
      "velocity": 103,
      "chip": "ym2612"
    },
    {
      "channel": 4,
      "note": 71,
      "start": 13.1281,
      "duration": 0.1163,
      "velocity": 103,
      "chip": "ym2612"
    },
    {
      "channel": 1,
      "note": 50,
      "start": 13.3611,
      "duration": 0.0089,
      "velocity": 94,
      "chip": "ym2612"
    },
    {
      "channel": 3,
      "note": 78,
      "start": 13.3613,
      "duration": 0.0174,
      "velocity": 103,
      "chip": "ym2612"
    },
    {
      "channel": 4,
      "note": 74,
      "start": 13.3616,
      "duration": 0.0173,
      "velocity": 103,
      "chip": "ym2612"
    },
    {
      "channel": 1,
      "note": 50,
      "start": 13.3786,
      "duration": 0.2332,
      "velocity": 94,
      "chip": "ym2612"
    },
    {
      "channel": 1,
      "note": 47,
      "start": 13.612,
      "duration": 0.009,
      "velocity": 94,
      "chip": "ym2612"
    },
    {
      "channel": 3,
      "note": 74,
      "start": 13.6122,
      "duration": 0.2512,
      "velocity": 103,
      "chip": "ym2612"
    },
    {
      "channel": 4,
      "note": 71,
      "start": 13.6125,
      "duration": 0.2511,
      "velocity": 103,
      "chip": "ym2612"
    },
    {
      "channel": 1,
      "note": 47,
      "start": 13.6296,
      "duration": 0.2334,
      "velocity": 94,
      "chip": "ym2612"
    },
    {
      "channel": 0,
      "note": 80,
      "start": 13.863,
      "duration": 0.2506,
      "velocity": 97,
      "chip": "ym2612"
    },
    {
      "channel": 1,
      "note": 50,
      "start": 13.8632,
      "duration": 0.009,
      "velocity": 94,
      "chip": "ym2612"
    },
    {
      "channel": 2,
      "note": 80,
      "start": 13.8634,
      "duration": 0.2506,
      "velocity": 97,
      "chip": "ym2612"
    },
    {
      "channel": 1,
      "note": 50,
      "start": 13.8804,
      "duration": 0.2334,
      "velocity": 94,
      "chip": "ym2612"
    },
    {
      "channel": 3,
      "note": 77,
      "start": 13.8806,
      "duration": 0.2424,
      "velocity": 103,
      "chip": "ym2612"
    },
    {
      "channel": 4,
      "note": 73,
      "start": 13.8808,
      "duration": 0.2423,
      "velocity": 103,
      "chip": "ym2612"
    },
    {
      "channel": 0,
      "note": 77,
      "start": 14.1137,
      "duration": 0.753,
      "velocity": 97,
      "chip": "ym2612"
    },
    {
      "channel": 1,
      "note": 49,
      "start": 14.114,
      "duration": 0.0088,
      "velocity": 94,
      "chip": "ym2612"
    },
    {
      "channel": 2,
      "note": 77,
      "start": 14.1142,
      "duration": 0.7529,
      "velocity": 97,
      "chip": "ym2612"
    },
    {
      "channel": 1,
      "note": 49,
      "start": 14.1315,
      "duration": 0.2332,
      "velocity": 94,
      "chip": "ym2612"
    },
    {
      "channel": 3,
      "note": 77,
      "start": 14.1317,
      "duration": 0.1163,
      "velocity": 103,
      "chip": "ym2612"
    },
    {
      "channel": 4,
      "note": 73,
      "start": 14.1319,
      "duration": 0.1163,
      "velocity": 103,
      "chip": "ym2612"
    },
    {
      "channel": 1,
      "note": 56,
      "start": 14.3649,
      "duration": 0.009,
      "velocity": 94,
      "chip": "ym2612"
    },
    {
      "channel": 3,
      "note": 80,
      "start": 14.3651,
      "duration": 0.0175,
      "velocity": 103,
      "chip": "ym2612"
    },
    {
      "channel": 4,
      "note": 77,
      "start": 14.3654,
      "duration": 0.0173,
      "velocity": 103,
      "chip": "ym2612"
    },
    {
      "channel": 1,
      "note": 56,
      "start": 14.3825,
      "duration": 0.2332,
      "velocity": 94,
      "chip": "ym2612"
    },
    {
      "channel": 1,
      "note": 53,
      "start": 14.6159,
      "duration": 0.009,
      "velocity": 94,
      "chip": "ym2612"
    },
    {
      "channel": 3,
      "note": 77,
      "start": 14.6161,
      "duration": 0.2512,
      "velocity": 103,
      "chip": "ym2612"
    },
    {
      "channel": 4,
      "note": 73,
      "start": 14.6163,
      "duration": 0.2511,
      "velocity": 103,
      "chip": "ym2612"
    },
    {
      "channel": 1,
      "note": 53,
      "start": 14.6335,
      "duration": 0.2334,
      "velocity": 94,
      "chip": "ym2612"
    },
    {
      "channel": 0,
      "note": 80,
      "start": 14.8668,
      "duration": 0.1346,
      "velocity": 97,
      "chip": "ym2612"
    },
    {
      "channel": 1,
      "note": 56,
      "start": 14.8671,
      "duration": 0.0089,
      "velocity": 94,
      "chip": "ym2612"
    },
    {
      "channel": 2,
      "note": 80,
      "start": 14.8673,
      "duration": 0.1343,
      "velocity": 97,
      "chip": "ym2612"
    },
    {
      "channel": 1,
      "note": 56,
      "start": 14.885,
      "duration": 0.2334,
      "velocity": 94,
      "chip": "ym2612"
    },
    {
      "channel": 0,
      "note": 80,
      "start": 15.1183,
      "duration": 0.2687,
      "velocity": 97,
      "chip": "ym2612"
    },
    {
      "channel": 1,
      "note": 42,
      "start": 15.1186,
      "duration": 0.009,
      "velocity": 94,
      "chip": "ym2612"
    },
    {
      "channel": 2,
      "note": 80,
      "start": 15.1188,
      "duration": 0.2686,
      "velocity": 97,
      "chip": "ym2612"
    },
    {
      "channel": 1,
      "note": 42,
      "start": 15.1361,
      "duration": 0.2332,
      "velocity": 94,
      "chip": "ym2612"
    },
    {
      "channel": 1,
      "note": 49,
      "start": 15.3695,
      "duration": 0.009,
      "velocity": 94,
      "chip": "ym2612"
    },
    {
      "channel": 3,
      "note": 81,
      "start": 15.3697,
      "duration": 0.009,
      "velocity": 103,
      "chip": "ym2612"
    },
    {
      "channel": 4,
      "note": 78,
      "start": 15.37,
      "duration": 0.0089,
      "velocity": 103,
      "chip": "ym2612"
    },
    {
      "channel": 0,
      "note": 78,
      "start": 15.3871,
      "duration": 1.6904,
      "velocity": 97,
      "chip": "ym2612"
    },
    {
      "channel": 1,
      "note": 49,
      "start": 15.3874,
      "duration": 0.233,
      "velocity": 94,
      "chip": "ym2612"
    },
    {
      "channel": 2,
      "note": 78,
      "start": 15.3876,
      "duration": 1.6901,
      "velocity": 97,
      "chip": "ym2612"
    },
    {
      "channel": 1,
      "note": 45,
      "start": 15.6206,
      "duration": 0.0087,
      "velocity": 94,
      "chip": "ym2612"
    },
    {
      "channel": 1,
      "note": 45,
      "start": 15.6384,
      "duration": 0.2332,
      "velocity": 94,
      "chip": "ym2612"
    },
    {
      "channel": 3,
      "note": 81,
      "start": 15.6385,
      "duration": 0.1163,
      "velocity": 103,
      "chip": "ym2612"
    },
    {
      "channel": 4,
      "note": 78,
      "start": 15.6388,
      "duration": 0.1162,
      "velocity": 103,
      "chip": "ym2612"
    },
    {
      "channel": 1,
      "note": 49,
      "start": 15.8718,
      "duration": 0.0087,
      "velocity": 94,
      "chip": "ym2612"
    },
    {
      "channel": 1,
      "note": 49,
      "start": 15.8895,
      "duration": 0.2332,
      "velocity": 94,
      "chip": "ym2612"
    },
    {
      "channel": 3,
      "note": 85,
      "start": 15.8897,
      "duration": 0.2422,
      "velocity": 103,
      "chip": "ym2612"
    },
    {
      "channel": 4,
      "note": 81,
      "start": 15.89,
      "duration": 0.242,
      "velocity": 103,
      "chip": "ym2612"
    },
    {
      "channel": 1,
      "note": 42,
      "start": 16.1229,
      "duration": 0.0087,
      "velocity": 94,
      "chip": "ym2612"
    },
    {
      "channel": 1,
      "note": 42,
      "start": 16.1409,
      "duration": 0.2332,
      "velocity": 94,
      "chip": "ym2612"
    },
    {
      "channel": 3,
      "note": 85,
      "start": 16.1411,
      "duration": 0.1163,
      "velocity": 103,
      "chip": "ym2612"
    },
    {
      "channel": 4,
      "note": 81,
      "start": 16.1413,
      "duration": 0.1163,
      "velocity": 103,
      "chip": "ym2612"
    },
    {
      "channel": 1,
      "note": 49,
      "start": 16.3743,
      "duration": 0.009,
      "velocity": 94,
      "chip": "ym2612"
    },
    {
      "channel": 3,
      "note": 83,
      "start": 16.3745,
      "duration": 0.0175,
      "velocity": 103,
      "chip": "ym2612"
    },
    {
      "channel": 4,
      "note": 80,
      "start": 16.3747,
      "duration": 0.0173,
      "velocity": 103,
      "chip": "ym2612"
    },
    {
      "channel": 1,
      "note": 49,
      "start": 16.3919,
      "duration": 0.2332,
      "velocity": 94,
      "chip": "ym2612"
    },
    {
      "channel": 1,
      "note": 47,
      "start": 16.6253,
      "duration": 0.009,
      "velocity": 94,
      "chip": "ym2612"
    },
    {
      "channel": 3,
      "note": 81,
      "start": 16.6255,
      "duration": 0.009,
      "velocity": 103,
      "chip": "ym2612"
    },
    {
      "channel": 4,
      "note": 78,
      "start": 16.6257,
      "duration": 0.0088,
      "velocity": 103,
      "chip": "ym2612"
    },
    {
      "channel": 1,
      "note": 47,
      "start": 16.6433,
      "duration": 0.2332,
      "velocity": 94,
      "chip": "ym2612"
    },
    {
      "channel": 3,
      "note": 80,
      "start": 16.6435,
      "duration": 0.4845,
      "velocity": 103,
      "chip": "ym2612"
    },
    {
      "channel": 4,
      "note": 77,
      "start": 16.6437,
      "duration": 0.4844,
      "velocity": 103,
      "chip": "ym2612"
    },
    {
      "channel": 1,
      "note": 49,
      "start": 16.8767,
      "duration": 0.0087,
      "velocity": 94,
      "chip": "ym2612"
    },
    {
      "channel": 1,
      "note": 49,
      "start": 16.8944,
      "duration": 0.2332,
      "velocity": 94,
      "chip": "ym2612"
    },
    {
      "channel": 1,
      "note": 42,
      "start": 17.1278,
      "duration": 0.2678,
      "velocity": 94,
      "chip": "ym2612"
    },
    {
      "channel": 3,
      "note": 85,
      "start": 17.1454,
      "duration": 0.0999,
      "velocity": 103,
      "chip": "ym2612"
    },
    {
      "channel": 4,
      "note": 85,
      "start": 17.1456,
      "duration": 0.0998,
      "velocity": 103,
      "chip": "ym2612"
    },
    {
      "channel": 3,
      "note": 81,
      "start": 17.3788,
      "duration": 0.0089,
      "velocity": 103,
      "chip": "ym2612"
    },
    {
      "channel": 4,
      "note": 81,
      "start": 17.379,
      "duration": 0.0088,
      "velocity": 103,
      "chip": "ym2612"
    },
    {
      "channel": 1,
      "note": 42,
      "start": 17.3958,
      "duration": 0.2332,
      "velocity": 94,
      "chip": "ym2612"
    },
    {
      "channel": 3,
      "note": 78,
      "start": 17.396,
      "duration": 0.0997,
      "velocity": 103,
      "chip": "ym2612"
    },
    {
      "channel": 4,
      "note": 78,
      "start": 17.3963,
      "duration": 0.0995,
      "velocity": 103,
      "chip": "ym2612"
    },
    {
      "channel": 1,
      "note": 40,
      "start": 17.6292,
      "duration": 0.2676,
      "velocity": 94,
      "chip": "ym2612"
    },
    {
      "channel": 3,
      "note": 83,
      "start": 17.6467,
      "duration": 0.0998,
      "velocity": 103,
      "chip": "ym2612"
    },
    {
      "channel": 4,
      "note": 83,
      "start": 17.6469,
      "duration": 0.0997,
      "velocity": 103,
      "chip": "ym2612"
    },
    {
      "channel": 3,
      "note": 80,
      "start": 17.88,
      "duration": 0.0088,
      "velocity": 103,
      "chip": "ym2612"
    },
    {
      "channel": 4,
      "note": 80,
      "start": 17.8802,
      "duration": 0.0087,
      "velocity": 103,
      "chip": "ym2612"
    },
    {
      "channel": 1,
      "note": 40,
      "start": 17.8971,
      "duration": 0.2332,
      "velocity": 94,
      "chip": "ym2612"
    },
    {
      "channel": 3,
      "note": 76,
      "start": 17.8973,
      "duration": 0.0997,
      "velocity": 103,
      "chip": "ym2612"
    },
    {
      "channel": 4,
      "note": 76,
      "start": 17.8975,
      "duration": 0.0995,
      "velocity": 103,
      "chip": "ym2612"
    },
    {
      "channel": 1,
      "note": 38,
      "start": 18.1305,
      "duration": 0.2674,
      "velocity": 94,
      "chip": "ym2612"
    },
    {
      "channel": 3,
      "note": 81,
      "start": 18.1478,
      "duration": 0.0999,
      "velocity": 103,
      "chip": "ym2612"
    },
    {
      "channel": 4,
      "note": 81,
      "start": 18.148,
      "duration": 0.0998,
      "velocity": 103,
      "chip": "ym2612"
    },
    {
      "channel": 3,
      "note": 78,
      "start": 18.3812,
      "duration": 0.0086,
      "velocity": 103,
      "chip": "ym2612"
    },
    {
      "channel": 4,
      "note": 78,
      "start": 18.3814,
      "duration": 0.0085,
      "velocity": 103,
      "chip": "ym2612"
    },
    {
      "channel": 1,
      "note": 38,
      "start": 18.3981,
      "duration": 0.2332,
      "velocity": 94,
      "chip": "ym2612"
    },
    {
      "channel": 3,
      "note": 74,
      "start": 18.3983,
      "duration": 0.0997,
      "velocity": 103,
      "chip": "ym2612"
    },
    {
      "channel": 4,
      "note": 74,
      "start": 18.3985,
      "duration": 0.0995,
      "velocity": 103,
      "chip": "ym2612"
    },
    {
      "channel": 1,
      "note": 40,
      "start": 18.6315,
      "duration": 0.2676,
      "velocity": 94,
      "chip": "ym2612"
    },
    {
      "channel": 3,
      "note": 83,
      "start": 18.649,
      "duration": 0.0998,
      "velocity": 103,
      "chip": "ym2612"
    },
    {
      "channel": 4,
      "note": 83,
      "start": 18.6492,
      "duration": 0.0997,
      "velocity": 103,
      "chip": "ym2612"
    },
    {
      "channel": 3,
      "note": 80,
      "start": 18.8823,
      "duration": 0.0088,
      "velocity": 103,
      "chip": "ym2612"
    },
    {
      "channel": 4,
      "note": 80,
      "start": 18.8825,
      "duration": 0.0087,
      "velocity": 103,
      "chip": "ym2612"
    },
    {
      "channel": 1,
      "note": 40,
      "start": 18.8993,
      "duration": 0.2334,
      "velocity": 94,
      "chip": "ym2612"
    },
    {
      "channel": 3,
      "note": 76,
      "start": 18.8995,
      "duration": 0.0997,
      "velocity": 103,
      "chip": "ym2612"
    },
    {
      "channel": 4,
      "note": 76,
      "start": 18.8997,
      "duration": 0.0995,
      "velocity": 103,
      "chip": "ym2612"
    },
    {
      "channel": 1,
      "note": 42,
      "start": 19.1329,
      "duration": 0.2676,
      "velocity": 94,
      "chip": "ym2612"
    },
    {
      "channel": 3,
      "note": 85,
      "start": 19.1502,
      "duration": 0.0999,
      "velocity": 103,
      "chip": "ym2612"
    },
    {
      "channel": 4,
      "note": 85,
      "start": 19.1504,
      "duration": 0.0998,
      "velocity": 103,
      "chip": "ym2612"
    },
    {
      "channel": 3,
      "note": 81,
      "start": 19.3836,
      "duration": 0.0089,
      "velocity": 103,
      "chip": "ym2612"
    },
    {
      "channel": 4,
      "note": 81,
      "start": 19.3838,
      "duration": 0.0088,
      "velocity": 103,
      "chip": "ym2612"
    },
    {
      "channel": 1,
      "note": 42,
      "start": 19.4007,
      "duration": 0.2332,
      "velocity": 94,
      "chip": "ym2612"
    },
    {
      "channel": 3,
      "note": 78,
      "start": 19.4008,
      "duration": 0.0997,
      "velocity": 103,
      "chip": "ym2612"
    },
    {
      "channel": 4,
      "note": 78,
      "start": 19.4011,
      "duration": 0.0995,
      "velocity": 103,
      "chip": "ym2612"
    },
    {
      "channel": 1,
      "note": 40,
      "start": 19.6341,
      "duration": 0.2676,
      "velocity": 94,
      "chip": "ym2612"
    },
    {
      "channel": 3,
      "note": 83,
      "start": 19.6515,
      "duration": 0.0998,
      "velocity": 103,
      "chip": "ym2612"
    },
    {
      "channel": 4,
      "note": 83,
      "start": 19.6517,
      "duration": 0.0997,
      "velocity": 103,
      "chip": "ym2612"
    },
    {
      "channel": 3,
      "note": 80,
      "start": 19.8849,
      "duration": 0.0088,
      "velocity": 103,
      "chip": "ym2612"
    },
    {
      "channel": 4,
      "note": 80,
      "start": 19.8851,
      "duration": 0.0087,
      "velocity": 103,
      "chip": "ym2612"
    },
    {
      "channel": 1,
      "note": 40,
      "start": 19.9019,
      "duration": 0.2332,
      "velocity": 94,
      "chip": "ym2612"
    },
    {
      "channel": 3,
      "note": 76,
      "start": 19.9021,
      "duration": 0.0997,
      "velocity": 103,
      "chip": "ym2612"
    },
    {
      "channel": 4,
      "note": 76,
      "start": 19.9023,
      "duration": 0.0995,
      "velocity": 103,
      "chip": "ym2612"
    },
    {
      "channel": 1,
      "note": 38,
      "start": 20.1353,
      "duration": 0.2674,
      "velocity": 94,
      "chip": "ym2612"
    },
    {
      "channel": 3,
      "note": 81,
      "start": 20.1527,
      "duration": 0.0999,
      "velocity": 103,
      "chip": "ym2612"
    },
    {
      "channel": 4,
      "note": 81,
      "start": 20.1529,
      "duration": 0.0998,
      "velocity": 103,
      "chip": "ym2612"
    },
    {
      "channel": 3,
      "note": 78,
      "start": 20.3861,
      "duration": 0.0086,
      "velocity": 103,
      "chip": "ym2612"
    },
    {
      "channel": 4,
      "note": 78,
      "start": 20.3863,
      "duration": 0.0085,
      "velocity": 103,
      "chip": "ym2612"
    },
    {
      "channel": 1,
      "note": 38,
      "start": 20.4029,
      "duration": 0.2334,
      "velocity": 94,
      "chip": "ym2612"
    },
    {
      "channel": 3,
      "note": 74,
      "start": 20.4031,
      "duration": 0.0997,
      "velocity": 103,
      "chip": "ym2612"
    },
    {
      "channel": 4,
      "note": 74,
      "start": 20.4034,
      "duration": 0.0995,
      "velocity": 103,
      "chip": "ym2612"
    },
    {
      "channel": 0,
      "note": 66,
      "start": 20.6363,
      "duration": 0.0172,
      "velocity": 97,
      "chip": "ym2612"
    },
    {
      "channel": 1,
      "note": 40,
      "start": 20.6365,
      "duration": 0.2682,
      "velocity": 94,
      "chip": "ym2612"
    },
    {
      "channel": 2,
      "note": 66,
      "start": 20.6368,
      "duration": 0.017,
      "velocity": 97,
      "chip": "ym2612"
    },
    {
      "channel": 0,
      "note": 68,
      "start": 20.6537,
      "duration": 0.2333,
      "velocity": 97,
      "chip": "ym2612"
    },
    {
      "channel": 2,
      "note": 68,
      "start": 20.6539,
      "duration": 0.2333,
      "velocity": 97,
      "chip": "ym2612"
    },
    {
      "channel": 3,
      "note": 83,
      "start": 20.6541,
      "duration": 0.0995,
      "velocity": 103,
      "chip": "ym2612"
    },
    {
      "channel": 4,
      "note": 83,
      "start": 20.6543,
      "duration": 0.0994,
      "velocity": 103,
      "chip": "ym2612"
    },
    {
      "channel": 0,
      "note": 69,
      "start": 20.8871,
      "duration": 0.0174,
      "velocity": 97,
      "chip": "ym2612"
    },
    {
      "channel": 2,
      "note": 69,
      "start": 20.8873,
      "duration": 0.0176,
      "velocity": 97,
      "chip": "ym2612"
    },
    {
      "channel": 3,
      "note": 80,
      "start": 20.8875,
      "duration": 0.0088,
      "velocity": 103,
      "chip": "ym2612"
    },
    {
      "channel": 4,
      "note": 80,
      "start": 20.8876,
      "duration": 0.0087,
      "velocity": 103,
      "chip": "ym2612"
    },
    {
      "channel": 0,
      "note": 73,
      "start": 20.9046,
      "duration": 0.2333,
      "velocity": 97,
      "chip": "ym2612"
    },
    {
      "channel": 1,
      "note": 40,
      "start": 20.9048,
      "duration": 0.2334,
      "velocity": 94,
      "chip": "ym2612"
    },
    {
      "channel": 2,
      "note": 73,
      "start": 20.905,
      "duration": 0.2334,
      "velocity": 97,
      "chip": "ym2612"
    },
    {
      "channel": 3,
      "note": 76,
      "start": 20.9052,
      "duration": 0.0994,
      "velocity": 103,
      "chip": "ym2612"
    },
    {
      "channel": 4,
      "note": 76,
      "start": 20.9054,
      "duration": 0.0992,
      "velocity": 103,
      "chip": "ym2612"
    },
    {
      "channel": 0,
      "note": 80,
      "start": 21.138,
      "duration": 0.1347,
      "velocity": 97,
      "chip": "ym2612"
    },
    {
      "channel": 1,
      "note": 42,
      "start": 21.1384,
      "duration": 0.0098,
      "velocity": 94,
      "chip": "ym2612"
    },
    {
      "channel": 2,
      "note": 80,
      "start": 21.1385,
      "duration": 0.1343,
      "velocity": 97,
      "chip": "ym2612"
    },
    {
      "channel": 3,
      "note": 76,
      "start": 21.1389,
      "duration": 0.0095,
      "velocity": 103,
      "chip": "ym2612"
    },
    {
      "channel": 4,
      "note": 76,
      "start": 21.1392,
      "duration": 0.0092,
      "velocity": 103,
      "chip": "ym2612"
    },
    {
      "channel": 1,
      "note": 42,
      "start": 21.1566,
      "duration": 0.2331,
      "velocity": 94,
      "chip": "ym2612"
    },
    {
      "channel": 3,
      "note": 80,
      "start": 21.1568,
      "duration": 0.1162,
      "velocity": 103,
      "chip": "ym2612"
    },
    {
      "channel": 4,
      "note": 76,
      "start": 21.157,
      "duration": 0.1161,
      "velocity": 103,
      "chip": "ym2612"
    },
    {
      "channel": 0,
      "note": 80,
      "start": 21.3896,
      "duration": 17.0947,
      "velocity": 97,
      "chip": "ym2612"
    },
    {
      "channel": 1,
      "note": 49,
      "start": 21.3898,
      "duration": 17.0945,
      "velocity": 94,
      "chip": "ym2612"
    },
    {
      "channel": 2,
      "note": 80,
      "start": 21.39,
      "duration": 17.0943,
      "velocity": 97,
      "chip": "ym2612"
    },
    {
      "channel": 3,
      "note": 81,
      "start": 21.3902,
      "duration": 17.0941,
      "velocity": 103,
      "chip": "ym2612"
    },
    {
      "channel": 4,
      "note": 78,
      "start": 21.3904,
      "duration": 17.0939,
      "velocity": 103,
      "chip": "ym2612"
    }
  ]
}