{
  "track_name": "03 - Celestial Quest",
  "duration_sec": 77.226,
  "sample_rate": 44100,
  "note_count": 945,
  "unique_pitches": 36,
  "pitch_range": 43,
  "avg_note_duration": 0.129,
  "reconstruction_stats": {
    "notes_reconstructed": 945,
    "keyon_events": 945,
    "keyoff_events": 944,
    "orphan_keyons": 1,
    "unique_pitches": 36,
    "pitch_range": 43,
    "avg_duration_sec": 0.129
  },
  "metadata": {
    "source": "J\\James Pond 3 - Operation Starfish\\03 - Celestial Quest.vgz"
  },
  "notes": [
    {
      "channel": 0,
      "note": 73,
      "start": 0.0094,
      "duration": 0.3179,
      "velocity": 110,
      "chip": "ym2612"
    },
    {
      "channel": 1,
      "note": 66,
      "start": 0.0095,
      "duration": 0.1045,
      "velocity": 72,
      "chip": "ym2612"
    },
    {
      "channel": 1,
      "note": 65,
      "start": 0.14,
      "duration": 0.1018,
      "velocity": 72,
      "chip": "ym2612"
    },
    {
      "channel": 2,
      "note": 66,
      "start": 0.1402,
      "duration": 0.0181,
      "velocity": 109,
      "chip": "ym2612"
    },
    {
      "channel": 3,
      "note": 70,
      "start": 0.1403,
      "duration": 0.0182,
      "velocity": 109,
      "chip": "ym2612"
    },
    {
      "channel": 1,
      "note": 63,
      "start": 0.2783,
      "duration": 0.1068,
      "velocity": 72,
      "chip": "ym2612"
    },
    {
      "channel": 0,
      "note": 73,
      "start": 0.347,
      "duration": 0.0378,
      "velocity": 110,
      "chip": "ym2612"
    },
    {
      "channel": 0,
      "note": 78,
      "start": 0.4106,
      "duration": 0.06,
      "velocity": 110,
      "chip": "ym2612"
    },
    {
      "channel": 1,
      "note": 61,
      "start": 0.4108,
      "duration": 0.0099,
      "velocity": 72,
      "chip": "ym2612"
    },
    {
      "channel": 2,
      "note": 66,
      "start": 0.4109,
      "duration": 0.0137,
      "velocity": 109,
      "chip": "ym2612"
    },
    {
      "channel": 3,
      "note": 70,
      "start": 0.411,
      "duration": 0.0139,
      "velocity": 109,
      "chip": "ym2612"
    },
    {
      "channel": 1,
      "note": 63,
      "start": 0.4255,
      "duration": 0.0454,
      "velocity": 72,
      "chip": "ym2612"
    },
    {
      "channel": 0,
      "note": 82,
      "start": 0.4925,
      "duration": 0.019,
      "velocity": 110,
      "chip": "ym2612"
    },
    {
      "channel": 1,
      "note": 65,
      "start": 0.4927,
      "duration": 0.0357,
      "velocity": 72,
      "chip": "ym2612"
    },
    {
      "channel": 0,
      "note": 84,
      "start": 0.5488,
      "duration": 0.2344,
      "velocity": 110,
      "chip": "ym2612"
    },
    {
      "channel": 1,
      "note": 66,
      "start": 0.5647,
      "duration": 0.0907,
      "velocity": 72,
      "chip": "ym2612"
    },
    {
      "channel": 1,
      "note": 65,
      "start": 0.6788,
      "duration": 0.1211,
      "velocity": 72,
      "chip": "ym2612"
    },
    {
      "channel": 2,
      "note": 68,
      "start": 0.679,
      "duration": 0.0207,
      "velocity": 109,
      "chip": "ym2612"
    },
    {
      "channel": 3,
      "note": 72,
      "start": 0.6791,
      "duration": 0.0208,
      "velocity": 109,
      "chip": "ym2612"
    },
    {
      "channel": 0,
      "note": 80,
      "start": 0.8217,
      "duration": 0.1052,
      "velocity": 110,
      "chip": "ym2612"
    },
    {
      "channel": 1,
      "note": 63,
      "start": 0.8219,
      "duration": 0.1053,
      "velocity": 72,
      "chip": "ym2612"
    },
    {
      "channel": 0,
      "note": 84,
      "start": 0.9482,
      "duration": 0.0257,
      "velocity": 110,
      "chip": "ym2612"
    },
    {
      "channel": 1,
      "note": 61,
      "start": 0.9484,
      "duration": 0.0258,
      "velocity": 72,
      "chip": "ym2612"
    },
    {
      "channel": 2,
      "note": 68,
      "start": 0.9654,
      "duration": 0.0149,
      "velocity": 109,
      "chip": "ym2612"
    },
    {
      "channel": 3,
      "note": 72,
      "start": 0.9655,
      "duration": 0.0151,
      "velocity": 109,
      "chip": "ym2612"
    },
    {
      "channel": 0,
      "note": 82,
      "start": 0.9813,
      "duration": 0.0314,
      "velocity": 110,
      "chip": "ym2612"
    },
    {
      "channel": 1,
      "note": 63,
      "start": 0.9814,
      "duration": 0.0315,
      "velocity": 72,
      "chip": "ym2612"
    },
    {
      "channel": 0,
      "note": 80,
      "start": 1.0345,
      "duration": 0.0357,
      "velocity": 110,
      "chip": "ym2612"
    },
    {
      "channel": 1,
      "note": 65,
      "start": 1.0346,
      "duration": 0.0358,
      "velocity": 72,
      "chip": "ym2612"
    },
    {
      "channel": 0,
      "note": 82,
      "start": 1.0906,
      "duration": 0.2528,
      "velocity": 110,
      "chip": "ym2612"
    },
    {
      "channel": 1,
      "note": 66,
      "start": 1.1067,
      "duration": 0.0912,
      "velocity": 72,
      "chip": "ym2612"
    },
    {
      "channel": 1,
      "note": 65,
      "start": 1.2382,
      "duration": 0.1054,
      "velocity": 72,
      "chip": "ym2612"
    },
    {
      "channel": 2,
      "note": 66,
      "start": 1.2383,
      "duration": 0.0204,
      "velocity": 109,
      "chip": "ym2612"
    },
    {
      "channel": 3,
      "note": 70,
      "start": 1.2385,
      "duration": 0.0205,
      "velocity": 109,
      "chip": "ym2612"
    },
    {
      "channel": 0,
      "note": 78,
      "start": 1.3652,
      "duration": 0.0472,
      "velocity": 110,
      "chip": "ym2612"
    },
    {
      "channel": 1,
      "note": 63,
      "start": 1.3653,
      "duration": 0.1049,
      "velocity": 72,
      "chip": "ym2612"
    },
    {
      "channel": 0,
      "note": 82,
      "start": 1.4489,
      "duration": 0.0211,
      "velocity": 110,
      "chip": "ym2612"
    },
    {
      "channel": 0,
      "note": 82,
      "start": 1.5126,
      "duration": 0.0089,
      "velocity": 110,
      "chip": "ym2612"
    },
    {
      "channel": 1,
      "note": 61,
      "start": 1.5127,
      "duration": 0.009,
      "velocity": 72,
      "chip": "ym2612"
    },
    {
      "channel": 2,
      "note": 66,
      "start": 1.5128,
      "duration": 0.017,
      "velocity": 109,
      "chip": "ym2612"
    },
    {
      "channel": 3,
      "note": 70,
      "start": 1.5129,
      "duration": 0.0171,
      "velocity": 109,
      "chip": "ym2612"
    },
    {
      "channel": 0,
      "note": 80,
      "start": 1.5264,
      "duration": 0.0292,
      "velocity": 110,
      "chip": "ym2612"
    },
    {
      "channel": 1,
      "note": 63,
      "start": 1.5308,
      "duration": 0.0251,
      "velocity": 72,
      "chip": "ym2612"
    },
    {
      "channel": 0,
      "note": 78,
      "start": 1.5774,
      "duration": 0.0359,
      "velocity": 110,
      "chip": "ym2612"
    },
    {
      "channel": 1,
      "note": 65,
      "start": 1.5775,
      "duration": 0.0361,
      "velocity": 72,
      "chip": "ym2612"
    },
    {
      "channel": 0,
      "note": 80,
      "start": 1.6337,
      "duration": 0.1072,
      "velocity": 110,
      "chip": "ym2612"
    },
    {
      "channel": 1,
      "note": 66,
      "start": 1.6496,
      "duration": 0.108,
      "velocity": 72,
      "chip": "ym2612"
    },
    {
      "channel": 0,
      "note": 75,
      "start": 1.7832,
      "duration": 0.1043,
      "velocity": 110,
      "chip": "ym2612"
    },
    {
      "channel": 1,
      "note": 65,
      "start": 1.7833,
      "duration": 0.1045,
      "velocity": 72,
      "chip": "ym2612"
    },
    {
      "channel": 2,
      "note": 68,
      "start": 1.7834,
      "duration": 0.0209,
      "velocity": 109,
      "chip": "ym2612"
    },
    {
      "channel": 3,
      "note": 72,
      "start": 1.7836,
      "duration": 0.0211,
      "velocity": 109,
      "chip": "ym2612"
    },
    {
      "channel": 0,
      "note": 80,
      "start": 1.9093,
      "duration": 0.1221,
      "velocity": 110,
      "chip": "ym2612"
    },
    {
      "channel": 1,
      "note": 63,
      "start": 1.9094,
      "duration": 0.1222,
      "velocity": 72,
      "chip": "ym2612"
    },
    {
      "channel": 0,
      "note": 75,
      "start": 2.0574,
      "duration": 0.1007,
      "velocity": 110,
      "chip": "ym2612"
    },
    {
      "channel": 1,
      "note": 61,
      "start": 2.0575,
      "duration": 0.01,
      "velocity": 72,
      "chip": "ym2612"
    },
    {
      "channel": 2,
      "note": 68,
      "start": 2.0576,
      "duration": 0.0138,
      "velocity": 109,
      "chip": "ym2612"
    },
    {
      "channel": 3,
      "note": 72,
      "start": 2.0578,
      "duration": 0.014,
      "velocity": 109,
      "chip": "ym2612"
    },
    {
      "channel": 1,
      "note": 63,
      "start": 2.0723,
      "duration": 0.0284,
      "velocity": 72,
      "chip": "ym2612"
    },
    {
      "channel": 1,
      "note": 65,
      "start": 2.137,
      "duration": 0.0214,
      "velocity": 72,
      "chip": "ym2612"
    },
    {
      "channel": 0,
      "note": 73,
      "start": 2.1954,
      "duration": 0.32,
      "velocity": 110,
      "chip": "ym2612"
    },
    {
      "channel": 1,
      "note": 66,
      "start": 2.2113,
      "duration": 0.0908,
      "velocity": 72,
      "chip": "ym2612"
    },
    {
      "channel": 1,
      "note": 65,
      "start": 2.3255,
      "duration": 0.1044,
      "velocity": 72,
      "chip": "ym2612"
    },
    {
      "channel": 2,
      "note": 66,
      "start": 2.3256,
      "duration": 0.0207,
      "velocity": 109,
      "chip": "ym2612"
    },
    {
      "channel": 3,
      "note": 70,
      "start": 2.3258,
      "duration": 0.0208,
      "velocity": 109,
      "chip": "ym2612"
    },
    {
      "channel": 1,
      "note": 63,
      "start": 2.4663,
      "duration": 0.1069,
      "velocity": 72,
      "chip": "ym2612"
    },
    {
      "channel": 0,
      "note": 73,
      "start": 2.5351,
      "duration": 0.0379,
      "velocity": 110,
      "chip": "ym2612"
    },
    {
      "channel": 0,
      "note": 78,
      "start": 2.5987,
      "duration": 0.06,
      "velocity": 110,
      "chip": "ym2612"
    },
    {
      "channel": 1,
      "note": 61,
      "start": 2.5988,
      "duration": 0.01,
      "velocity": 72,
      "chip": "ym2612"
    },
    {
      "channel": 2,
      "note": 66,
      "start": 2.5989,
      "duration": 0.0137,
      "velocity": 109,
      "chip": "ym2612"
    },
    {
      "channel": 3,
      "note": 70,
      "start": 2.599,
      "duration": 0.0139,
      "velocity": 109,
      "chip": "ym2612"
    },
    {
      "channel": 1,
      "note": 63,
      "start": 2.6136,
      "duration": 0.0454,
      "velocity": 72,
      "chip": "ym2612"
    },
    {
      "channel": 0,
      "note": 82,
      "start": 2.6806,
      "duration": 0.019,
      "velocity": 110,
      "chip": "ym2612"
    },
    {
      "channel": 1,
      "note": 65,
      "start": 2.6807,
      "duration": 0.0356,
      "velocity": 72,
      "chip": "ym2612"
    },
    {
      "channel": 0,
      "note": 84,
      "start": 2.7368,
      "duration": 0.2509,
      "velocity": 110,
      "chip": "ym2612"
    },
    {
      "channel": 1,
      "note": 66,
      "start": 2.7528,
      "duration": 0.0906,
      "velocity": 72,
      "chip": "ym2612"
    },
    {
      "channel": 1,
      "note": 65,
      "start": 2.8668,
      "duration": 0.1211,
      "velocity": 72,
      "chip": "ym2612"
    },
    {
      "channel": 2,
      "note": 68,
      "start": 2.867,
      "duration": 0.0207,
      "velocity": 109,
      "chip": "ym2612"
    },
    {
      "channel": 3,
      "note": 72,
      "start": 2.8671,
      "duration": 0.0208,
      "velocity": 109,
      "chip": "ym2612"
    },
    {
      "channel": 0,
      "note": 80,
      "start": 3.0096,
      "duration": 0.1053,
      "velocity": 110,
      "chip": "ym2612"
    },
    {
      "channel": 1,
      "note": 63,
      "start": 3.0097,
      "duration": 0.1054,
      "velocity": 72,
      "chip": "ym2612"
    },
    {
      "channel": 0,
      "note": 84,
      "start": 3.1574,
      "duration": 0.0088,
      "velocity": 110,
      "chip": "ym2612"
    },
    {
      "channel": 1,
      "note": 61,
      "start": 3.1576,
      "duration": 0.0089,
      "velocity": 72,
      "chip": "ym2612"
    },
    {
      "channel": 2,
      "note": 68,
      "start": 3.1577,
      "duration": 0.0149,
      "velocity": 109,
      "chip": "ym2612"
    },
    {
      "channel": 3,
      "note": 72,
      "start": 3.1578,
      "duration": 0.015,
      "velocity": 109,
      "chip": "ym2612"
    },
    {
      "channel": 0,
      "note": 82,
      "start": 3.1736,
      "duration": 0.027,
      "velocity": 110,
      "chip": "ym2612"
    },
    {
      "channel": 1,
      "note": 63,
      "start": 3.1737,
      "duration": 0.0272,
      "velocity": 72,
      "chip": "ym2612"
    },
    {
      "channel": 0,
      "note": 80,
      "start": 3.2226,
      "duration": 0.0356,
      "velocity": 110,
      "chip": "ym2612"
    },
    {
      "channel": 1,
      "note": 65,
      "start": 3.2227,
      "duration": 0.0357,
      "velocity": 72,
      "chip": "ym2612"
    },
    {
      "channel": 0,
      "note": 82,
      "start": 3.2786,
      "duration": 0.253,
      "velocity": 110,
      "chip": "ym2612"
    },
    {
      "channel": 1,
      "note": 66,
      "start": 3.2946,
      "duration": 0.108,
      "velocity": 72,
      "chip": "ym2612"
    },
    {
      "channel": 1,
      "note": 65,
      "start": 3.4262,
      "duration": 0.1057,
      "velocity": 72,
      "chip": "ym2612"
    },
    {
      "channel": 2,
      "note": 66,
      "start": 3.4263,
      "duration": 0.0206,
      "velocity": 109,
      "chip": "ym2612"
    },
    {
      "channel": 3,
      "note": 70,
      "start": 3.4264,
      "duration": 0.0208,
      "velocity": 109,
      "chip": "ym2612"
    },
    {
      "channel": 0,
      "note": 78,
      "start": 3.5534,
      "duration": 0.0639,
      "velocity": 110,
      "chip": "ym2612"
    },
    {
      "channel": 1,
      "note": 63,
      "start": 3.5535,
      "duration": 0.1216,
      "velocity": 72,
      "chip": "ym2612"
    },
    {
      "channel": 0,
      "note": 82,
      "start": 3.6371,
      "duration": 0.0377,
      "velocity": 110,
      "chip": "ym2612"
    },
    {
      "channel": 0,
      "note": 82,
      "start": 3.7008,
      "duration": 0.0089,
      "velocity": 110,
      "chip": "ym2612"
    },
    {
      "channel": 1,
      "note": 61,
      "start": 3.7009,
      "duration": 0.009,
      "velocity": 72,
      "chip": "ym2612"
    },
    {
      "channel": 2,
      "note": 66,
      "start": 3.7011,
      "duration": 0.0109,
      "velocity": 109,
      "chip": "ym2612"
    },
    {
      "channel": 3,
      "note": 70,
      "start": 3.7012,
      "duration": 0.0111,
      "velocity": 109,
      "chip": "ym2612"
    },
    {
      "channel": 0,
      "note": 80,
      "start": 3.7189,
      "duration": 0.025,
      "velocity": 110,
      "chip": "ym2612"
    },
    {
      "channel": 1,
      "note": 63,
      "start": 3.719,
      "duration": 0.0251,
      "velocity": 72,
      "chip": "ym2612"
    },
    {
      "channel": 0,
      "note": 78,
      "start": 3.7822,
      "duration": 0.0193,
      "velocity": 110,
      "chip": "ym2612"
    },
    {
      "channel": 1,
      "note": 65,
      "start": 3.7823,
      "duration": 0.0194,
      "velocity": 72,
      "chip": "ym2612"
    },
    {
      "channel": 0,
      "note": 80,
      "start": 3.8219,
      "duration": 0.1239,
      "velocity": 110,
      "chip": "ym2612"
    },
    {
      "channel": 1,
      "note": 66,
      "start": 3.8378,
      "duration": 0.1081,
      "velocity": 72,
      "chip": "ym2612"
    },
    {
      "channel": 0,
      "note": 75,
      "start": 3.9713,
      "duration": 0.1039,
      "velocity": 110,
      "chip": "ym2612"
    },
    {
      "channel": 1,
      "note": 65,
      "start": 3.9714,
      "duration": 0.1041,
      "velocity": 72,
      "chip": "ym2612"
    },
    {
      "channel": 2,
      "note": 68,
      "start": 3.9715,
      "duration": 0.0205,
      "velocity": 109,
      "chip": "ym2612"
    },
    {
      "channel": 3,
      "note": 72,
      "start": 3.9717,
      "duration": 0.0207,
      "velocity": 109,
      "chip": "ym2612"
    },
    {
      "channel": 0,
      "note": 80,
      "start": 4.1135,
      "duration": 0.1056,
      "velocity": 110,
      "chip": "ym2612"
    },
    {
      "channel": 1,
      "note": 63,
      "start": 4.1136,
      "duration": 0.1058,
      "velocity": 72,
      "chip": "ym2612"
    },
    {
      "channel": 0,
      "note": 75,
      "start": 4.2451,
      "duration": 0.0015,
      "velocity": 110,
      "chip": "ym2612"
    },
    {
      "channel": 1,
      "note": 61,
      "start": 4.2452,
      "duration": 0.011,
      "velocity": 72,
      "chip": "ym2612"
    },
    {
      "channel": 2,
      "note": 68,
      "start": 4.2453,
      "duration": 0.017,
      "velocity": 109,
      "chip": "ym2612"
    },
    {
      "channel": 3,
      "note": 72,
      "start": 4.2454,
      "duration": 0.0173,
      "velocity": 109,
      "chip": "ym2612"
    },
    {
      "channel": 0,
      "note": 74,
      "start": 4.2658,
      "duration": 0.0386,
      "velocity": 110,
      "chip": "ym2612"
    },
    {
      "channel": 1,
      "note": 63,
      "start": 4.2659,
      "duration": 0.0388,
      "velocity": 72,
      "chip": "ym2612"
    },
    {
      "channel": 0,
      "note": 75,
      "start": 4.3262,
      "duration": 0.0191,
      "velocity": 110,
      "chip": "ym2612"
    },
    {
      "channel": 1,
      "note": 65,
      "start": 4.3263,
      "duration": 0.0358,
      "velocity": 72,
      "chip": "ym2612"
    },
    {
      "channel": 0,
      "note": 77,
      "start": 4.3902,
      "duration": 0.2984,
      "velocity": 110,
      "chip": "ym2612"
    },
    {
      "channel": 1,
      "note": 65,
      "start": 4.3904,
      "duration": 0.0996,
      "velocity": 72,
      "chip": "ym2612"
    },
    {
      "channel": 2,
      "note": 74,
      "start": 4.3905,
      "duration": 0.2481,
      "velocity": 86,
      "chip": "ym2612"
    },
    {
      "channel": 3,
      "note": 82,
      "start": 4.3906,
      "duration": 0.2483,
      "velocity": 86,
      "chip": "ym2612"
    },
    {
      "channel": 1,
      "note": 77,
      "start": 4.5096,
      "duration": 0.0935,
      "velocity": 72,
      "chip": "ym2612"
    },
    {
      "channel": 1,
      "note": 65,
      "start": 4.6419,
      "duration": 0.0914,
      "velocity": 72,
      "chip": "ym2612"
    },
    {
      "channel": 3,
      "note": 77,
      "start": 4.642,
      "duration": 0.2253,
      "velocity": 86,
      "chip": "ym2612"
    },
    {
      "channel": 2,
      "note": 70,
      "start": 4.646,
      "duration": 0.2211,
      "velocity": 86,
      "chip": "ym2612"
    },
    {
      "channel": 0,
      "note": 77,
      "start": 4.725,
      "duration": 0.0081,
      "velocity": 110,
      "chip": "ym2612"
    },
    {
      "channel": 0,
      "note": 82,
      "start": 4.7402,
      "duration": 0.0485,
      "velocity": 110,
      "chip": "ym2612"
    },
    {
      "channel": 1,
      "note": 77,
      "start": 4.7403,
      "duration": 0.1061,
      "velocity": 72,
      "chip": "ym2612"
    },
    {
      "channel": 0,
      "note": 86,
      "start": 4.8085,
      "duration": 0.0377,
      "velocity": 110,
      "chip": "ym2612"
    },
    {
      "channel": 0,
      "note": 88,
      "start": 4.8685,
      "duration": 0.2341,
      "velocity": 110,
      "chip": "ym2612"
    },
    {
      "channel": 1,
      "note": 65,
      "start": 4.8686,
      "duration": 0.1051,
      "velocity": 72,
      "chip": "ym2612"
    },
    {
      "channel": 2,
      "note": 76,
      "start": 4.8746,
      "duration": 0.2488,
      "velocity": 86,
      "chip": "ym2612"
    },
    {
      "channel": 3,
      "note": 84,
      "start": 4.8747,
      "duration": 0.249,
      "velocity": 86,
      "chip": "ym2612"
    },
    {
      "channel": 1,
      "note": 77,
      "start": 5.0099,
      "duration": 0.0929,
      "velocity": 72,
      "chip": "ym2612"
    },
    {
      "channel": 0,
      "note": 84,
      "start": 5.1249,
      "duration": 0.0636,
      "velocity": 110,
      "chip": "ym2612"
    },
    {
      "channel": 1,
      "note": 65,
      "start": 5.125,
      "duration": 0.0637,
      "velocity": 72,
      "chip": "ym2612"
    },
    {
      "channel": 2,
      "note": 72,
      "start": 5.131,
      "duration": 0.1629,
      "velocity": 86,
      "chip": "ym2612"
    },
    {
      "channel": 3,
      "note": 79,
      "start": 5.1311,
      "duration": 0.163,
      "velocity": 86,
      "chip": "ym2612"
    },
    {
      "channel": 0,
      "note": 88,
      "start": 5.2101,
      "duration": 0.0082,
      "velocity": 110,
      "chip": "ym2612"
    },
    {
      "channel": 1,
      "note": 65,
      "start": 5.2102,
      "duration": 0.0084,
      "velocity": 72,
      "chip": "ym2612"
    },
    {
      "channel": 0,
      "note": 88,
      "start": 5.2271,
      "duration": 0.0101,
      "velocity": 110,
      "chip": "ym2612"
    },
    {
      "channel": 1,
      "note": 77,
      "start": 5.2273,
      "duration": 0.0605,
      "velocity": 72,
      "chip": "ym2612"
    },
    {
      "channel": 0,
      "note": 86,
      "start": 5.2439,
      "duration": 0.0132,
      "velocity": 110,
      "chip": "ym2612"
    },
    {
      "channel": 0,
      "note": 84,
      "start": 5.2768,
      "duration": 0.0106,
      "velocity": 110,
      "chip": "ym2612"
    },
    {
      "channel": 0,
      "note": 86,
      "start": 5.2952,
      "duration": 0.2327,
      "velocity": 110,
      "chip": "ym2612"
    },
    {
      "channel": 1,
      "note": 65,
      "start": 5.2953,
      "duration": 0.12,
      "velocity": 72,
      "chip": "ym2612"
    },
    {
      "channel": 2,
      "note": 77,
      "start": 5.3012,
      "duration": 0.2454,
      "velocity": 86,
      "chip": "ym2612"
    },
    {
      "channel": 3,
      "note": 82,
      "start": 5.3014,
      "duration": 0.2455,
      "velocity": 86,
      "chip": "ym2612"
    },
    {
      "channel": 1,
      "note": 77,
      "start": 5.4352,
      "duration": 0.0929,
      "velocity": 72,
      "chip": "ym2612"
    },
    {
      "channel": 1,
      "note": 65,
      "start": 5.5479,
      "duration": 0.0959,
      "velocity": 72,
      "chip": "ym2612"
    },
    {
      "channel": 0,
      "note": 82,
      "start": 5.5557,
      "duration": 0.0878,
      "velocity": 110,
      "chip": "ym2612"
    },
    {
      "channel": 2,
      "note": 74,
      "start": 5.5558,
      "duration": 0.2039,
      "velocity": 86,
      "chip": "ym2612"
    },
    {
      "channel": 3,
      "note": 77,
      "start": 5.5559,
      "duration": 0.2059,
      "velocity": 86,
      "chip": "ym2612"
    },
    {
      "channel": 0,
      "note": 86,
      "start": 5.651,
      "duration": 0.0117,
      "velocity": 110,
      "chip": "ym2612"
    },
    {
      "channel": 1,
      "note": 77,
      "start": 5.6511,
      "duration": 0.09,
      "velocity": 72,
      "chip": "ym2612"
    },
    {
      "channel": 0,
      "note": 84,
      "start": 5.6676,
      "duration": 0.0159,
      "velocity": 110,
      "chip": "ym2612"
    },
    {
      "channel": 0,
      "note": 82,
      "start": 5.7196,
      "duration": 0.0212,
      "velocity": 110,
      "chip": "ym2612"
    },
    {
      "channel": 0,
      "note": 84,
      "start": 5.7642,
      "duration": 0.1206,
      "velocity": 110,
      "chip": "ym2612"
    },
    {
      "channel": 2,
      "note": 79,
      "start": 5.7644,
      "duration": 0.4324,
      "velocity": 86,
      "chip": "ym2612"
    },
    {
      "channel": 3,
      "note": 88,
      "start": 5.7645,
      "duration": 0.1412,
      "velocity": 86,
      "chip": "ym2612"
    },
    {
      "channel": 1,
      "note": 65,
      "start": 5.7772,
      "duration": 0.1078,
      "velocity": 72,
      "chip": "ym2612"
    },
    {
      "channel": 0,
      "note": 79,
      "start": 5.9068,
      "duration": 0.0908,
      "velocity": 110,
      "chip": "ym2612"
    },
    {
      "channel": 1,
      "note": 77,
      "start": 5.9069,
      "duration": 0.0909,
      "velocity": 72,
      "chip": "ym2612"
    },
    {
      "channel": 3,
      "note": 84,
      "start": 5.9109,
      "duration": 0.1244,
      "velocity": 86,
      "chip": "ym2612"
    },
    {
      "channel": 0,
      "note": 84,
      "start": 6.0362,
      "duration": 0.0773,
      "velocity": 110,
      "chip": "ym2612"
    },
    {
      "channel": 1,
      "note": 65,
      "start": 6.0364,
      "duration": 0.0469,
      "velocity": 72,
      "chip": "ym2612"
    },
    {
      "channel": 3,
      "note": 88,
      "start": 6.0402,
      "duration": 0.0799,
      "velocity": 86,
      "chip": "ym2612"
    },
    {
      "channel": 1,
      "note": 65,
      "start": 6.103,
      "duration": 0.0108,
      "velocity": 72,
      "chip": "ym2612"
    },
    {
      "channel": 0,
      "note": 79,
      "start": 6.1212,
      "duration": 0.0734,
      "velocity": 110,
      "chip": "ym2612"
    },
    {
      "channel": 1,
      "note": 77,
      "start": 6.1213,
      "duration": 0.0752,
      "velocity": 72,
      "chip": "ym2612"
    },
    {
      "channel": 3,
      "note": 84,
      "start": 6.1257,
      "duration": 0.079,
      "velocity": 86,
      "chip": "ym2612"
    },
    {
      "channel": 0,
      "note": 77,
      "start": 6.206,
      "duration": 0.2956,
      "velocity": 110,
      "chip": "ym2612"
    },
    {
      "channel": 1,
      "note": 65,
      "start": 6.2061,
      "duration": 0.0969,
      "velocity": 72,
      "chip": "ym2612"
    },
    {
      "channel": 2,
      "note": 74,
      "start": 6.2063,
      "duration": 0.2455,
      "velocity": 86,
      "chip": "ym2612"
    },
    {
      "channel": 3,
      "note": 82,
      "start": 6.2104,
      "duration": 0.2434,
      "velocity": 86,
      "chip": "ym2612"
    },
    {
      "channel": 1,
      "note": 77,
      "start": 6.3227,
      "duration": 0.1102,
      "velocity": 72,
      "chip": "ym2612"
    },
    {
      "channel": 1,
      "note": 65,
      "start": 6.455,
      "duration": 0.0914,
      "velocity": 72,
      "chip": "ym2612"
    },
    {
      "channel": 2,
      "note": 70,
      "start": 6.4551,
      "duration": 0.21,
      "velocity": 86,
      "chip": "ym2612"
    },
    {
      "channel": 3,
      "note": 77,
      "start": 6.459,
      "duration": 0.2063,
      "velocity": 86,
      "chip": "ym2612"
    },
    {
      "channel": 0,
      "note": 77,
      "start": 6.538,
      "duration": 0.0082,
      "velocity": 110,
      "chip": "ym2612"
    },
    {
      "channel": 0,
      "note": 82,
      "start": 6.5549,
      "duration": 0.0317,
      "velocity": 110,
      "chip": "ym2612"
    },
    {
      "channel": 1,
      "note": 77,
      "start": 6.5551,
      "duration": 0.0895,
      "velocity": 72,
      "chip": "ym2612"
    },
    {
      "channel": 0,
      "note": 86,
      "start": 6.6066,
      "duration": 0.0377,
      "velocity": 110,
      "chip": "ym2612"
    },
    {
      "channel": 0,
      "note": 88,
      "start": 6.6665,
      "duration": 0.2335,
      "velocity": 110,
      "chip": "ym2612"
    },
    {
      "channel": 1,
      "note": 65,
      "start": 6.6666,
      "duration": 0.1049,
      "velocity": 72,
      "chip": "ym2612"
    },
    {
      "channel": 2,
      "note": 76,
      "start": 6.6725,
      "duration": 0.2483,
      "velocity": 86,
      "chip": "ym2612"
    },
    {
      "channel": 3,
      "note": 84,
      "start": 6.6727,
      "duration": 0.2484,
      "velocity": 86,
      "chip": "ym2612"
    },
    {
      "channel": 1,
      "note": 77,
      "start": 6.8079,
      "duration": 0.0923,
      "velocity": 72,
      "chip": "ym2612"
    },
    {
      "channel": 0,
      "note": 84,
      "start": 6.9222,
      "duration": 0.0635,
      "velocity": 110,
      "chip": "ym2612"
    },
    {
      "channel": 1,
      "note": 65,
      "start": 6.9224,
      "duration": 0.0636,
      "velocity": 72,
      "chip": "ym2612"
    },
    {
      "channel": 2,
      "note": 72,
      "start": 6.9284,
      "duration": 0.1776,
      "velocity": 86,
      "chip": "ym2612"
    },
    {
      "channel": 3,
      "note": 79,
      "start": 6.9285,
      "duration": 0.1427,
      "velocity": 86,
      "chip": "ym2612"
    },
    {
      "channel": 0,
      "note": 88,
      "start": 7.0075,
      "duration": 0.0082,
      "velocity": 110,
      "chip": "ym2612"
    },
    {
      "channel": 1,
      "note": 65,
      "start": 7.0076,
      "duration": 0.0101,
      "velocity": 72,
      "chip": "ym2612"
    },
    {
      "channel": 0,
      "note": 88,
      "start": 7.0246,
      "duration": 0.0101,
      "velocity": 110,
      "chip": "ym2612"
    },
    {
      "channel": 1,
      "note": 77,
      "start": 7.0247,
      "duration": 0.0751,
      "velocity": 72,
      "chip": "ym2612"
    },
    {
      "channel": 0,
      "note": 86,
      "start": 7.0413,
      "duration": 0.0131,
      "velocity": 110,
      "chip": "ym2612"
    },
    {
      "channel": 0,
      "note": 84,
      "start": 7.0908,
      "duration": 0.0087,
      "velocity": 110,
      "chip": "ym2612"
    },
    {
      "channel": 0,
      "note": 86,
      "start": 7.1071,
      "duration": 0.234,
      "velocity": 110,
      "chip": "ym2612"
    },
    {
      "channel": 1,
      "note": 65,
      "start": 7.1072,
      "duration": 0.1214,
      "velocity": 72,
      "chip": "ym2612"
    },
    {
      "channel": 2,
      "note": 77,
      "start": 7.1134,
      "duration": 0.2651,
      "velocity": 86,
      "chip": "ym2612"
    },
    {
      "channel": 3,
      "note": 82,
      "start": 7.1136,
      "duration": 0.2653,
      "velocity": 86,
      "chip": "ym2612"
    },
    {
      "channel": 1,
      "note": 77,
      "start": 7.2484,
      "duration": 0.0929,
      "velocity": 72,
      "chip": "ym2612"
    },
    {
      "channel": 0,
      "note": 82,
      "start": 7.3798,
      "duration": 0.0775,
      "velocity": 110,
      "chip": "ym2612"
    },
    {
      "channel": 1,
      "note": 65,
      "start": 7.3799,
      "duration": 0.0777,
      "velocity": 72,
      "chip": "ym2612"
    },
    {
      "channel": 2,
      "note": 74,
      "start": 7.3858,
      "duration": 0.2068,
      "velocity": 86,
      "chip": "ym2612"
    },
    {
      "channel": 3,
      "note": 77,
      "start": 7.3859,
      "duration": 0.2069,
      "velocity": 86,
      "chip": "ym2612"
    },
    {
      "channel": 0,
      "note": 86,
      "start": 7.4647,
      "duration": 0.0122,
      "velocity": 110,
      "chip": "ym2612"
    },
    {
      "channel": 1,
      "note": 77,
      "start": 7.4649,
      "duration": 0.1069,
      "velocity": 72,
      "chip": "ym2612"
    },
    {
      "channel": 0,
      "note": 84,
      "start": 7.4817,
      "duration": 0.016,
      "velocity": 110,
      "chip": "ym2612"
    },
    {
      "channel": 0,
      "note": 82,
      "start": 7.5339,
      "duration": 0.0212,
      "velocity": 110,
      "chip": "ym2612"
    },
    {
      "channel": 0,
      "note": 84,
      "start": 7.5938,
      "duration": 0.1063,
      "velocity": 110,
      "chip": "ym2612"
    },
    {
      "channel": 1,
      "note": 65,
      "start": 7.5939,
      "duration": 0.1064,
      "velocity": 72,
      "chip": "ym2612"
    },
    {
      "channel": 2,
      "note": 79,
      "start": 7.5999,
      "duration": 0.4292,
      "velocity": 86,
      "chip": "ym2612"
    },
    {
      "channel": 3,
      "note": 88,
      "start": 7.6,
      "duration": 0.121,
      "velocity": 86,
      "chip": "ym2612"
    },
    {
      "channel": 0,
      "note": 79,
      "start": 7.7221,
      "duration": 0.1075,
      "velocity": 110,
      "chip": "ym2612"
    },
    {
      "channel": 1,
      "note": 77,
      "start": 7.7222,
      "duration": 0.1076,
      "velocity": 72,
      "chip": "ym2612"
    },
    {
      "channel": 3,
      "note": 84,
      "start": 7.7262,
      "duration": 0.1244,
      "velocity": 86,
      "chip": "ym2612"
    },
    {
      "channel": 0,
      "note": 84,
      "start": 7.8533,
      "duration": 0.0903,
      "velocity": 110,
      "chip": "ym2612"
    },
    {
      "channel": 1,
      "note": 65,
      "start": 7.8535,
      "duration": 0.0451,
      "velocity": 72,
      "chip": "ym2612"
    },
    {
      "channel": 3,
      "note": 88,
      "start": 7.8536,
      "duration": 0.0965,
      "velocity": 86,
      "chip": "ym2612"
    },
    {
      "channel": 1,
      "note": 65,
      "start": 7.935,
      "duration": 0.0089,
      "velocity": 72,
      "chip": "ym2612"
    },
    {
      "channel": 0,
      "note": 79,
      "start": 7.9513,
      "duration": 0.0772,
      "velocity": 110,
      "chip": "ym2612"
    },
    {
      "channel": 1,
      "note": 77,
      "start": 7.9514,
      "duration": 0.0751,
      "velocity": 72,
      "chip": "ym2612"
    },
    {
      "channel": 3,
      "note": 84,
      "start": 7.9557,
      "duration": 0.0738,
      "velocity": 86,
      "chip": "ym2612"
    },
    {
      "channel": 0,
      "note": 73,
      "start": 8.0409,
      "duration": 0.3053,
      "velocity": 117,
      "chip": "ym2612"
    },
    {
      "channel": 1,
      "note": 66,
      "start": 8.0411,
      "duration": 0.0922,
      "velocity": 72,
      "chip": "ym2612"
    },
    {
      "channel": 1,
      "note": 65,
      "start": 8.1763,
      "duration": 0.101,
      "velocity": 72,
      "chip": "ym2612"
    },
    {
      "channel": 2,
      "note": 66,
      "start": 8.1765,
      "duration": 0.0098,
      "velocity": 109,
      "chip": "ym2612"
    },
    {
      "channel": 3,
      "note": 70,
      "start": 8.1766,
      "duration": 0.01,
      "velocity": 109,
      "chip": "ym2612"
    },
    {
      "channel": 1,
      "note": 63,
      "start": 8.2971,
      "duration": 0.1069,
      "velocity": 72,
      "chip": "ym2612"
    },
    {
      "channel": 0,
      "note": 73,
      "start": 8.3825,
      "duration": 0.0212,
      "velocity": 117,
      "chip": "ym2612"
    },
    {
      "channel": 0,
      "note": 78,
      "start": 8.4461,
      "duration": 0.0435,
      "velocity": 117,
      "chip": "ym2612"
    },
    {
      "channel": 1,
      "note": 61,
      "start": 8.4463,
      "duration": 0.0083,
      "velocity": 72,
      "chip": "ym2612"
    },
    {
      "channel": 2,
      "note": 66,
      "start": 8.4464,
      "duration": 0.0101,
      "velocity": 109,
      "chip": "ym2612"
    },
    {
      "channel": 3,
      "note": 70,
      "start": 8.4465,
      "duration": 0.0102,
      "velocity": 109,
      "chip": "ym2612"
    },
    {
      "channel": 1,
      "note": 63,
      "start": 8.4611,
      "duration": 0.0288,
      "velocity": 72,
      "chip": "ym2612"
    },
    {
      "channel": 0,
      "note": 82,
      "start": 8.5114,
      "duration": 0.0357,
      "velocity": 117,
      "chip": "ym2612"
    },
    {
      "channel": 1,
      "note": 65,
      "start": 8.5116,
      "duration": 0.0358,
      "velocity": 72,
      "chip": "ym2612"
    },
    {
      "channel": 0,
      "note": 84,
      "start": 8.568,
      "duration": 0.25,
      "velocity": 117,
      "chip": "ym2612"
    },
    {
      "channel": 1,
      "note": 66,
      "start": 8.5721,
      "duration": 0.1023,
      "velocity": 72,
      "chip": "ym2612"
    },
    {
      "channel": 1,
      "note": 65,
      "start": 8.7149,
      "duration": 0.1035,
      "velocity": 72,
      "chip": "ym2612"
    },
    {
      "channel": 2,
      "note": 68,
      "start": 8.715,
      "duration": 0.0115,
      "velocity": 109,
      "chip": "ym2612"
    },
    {
      "channel": 3,
      "note": 72,
      "start": 8.7151,
      "duration": 0.0117,
      "velocity": 109,
      "chip": "ym2612"
    },
    {
      "channel": 0,
      "note": 80,
      "start": 8.8399,
      "duration": 0.1224,
      "velocity": 117,
      "chip": "ym2612"
    },
    {
      "channel": 1,
      "note": 63,
      "start": 8.84,
      "duration": 0.1226,
      "velocity": 72,
      "chip": "ym2612"
    },
    {
      "channel": 0,
      "note": 84,
      "start": 8.9881,
      "duration": 0.0087,
      "velocity": 117,
      "chip": "ym2612"
    },
    {
      "channel": 1,
      "note": 61,
      "start": 8.9882,
      "duration": 0.0107,
      "velocity": 72,
      "chip": "ym2612"
    },
    {
      "channel": 2,
      "note": 68,
      "start": 8.9883,
      "duration": 0.0167,
      "velocity": 109,
      "chip": "ym2612"
    },
    {
      "channel": 3,
      "note": 72,
      "start": 8.9885,
      "duration": 0.0169,
      "velocity": 109,
      "chip": "ym2612"
    },
    {
      "channel": 0,
      "note": 82,
      "start": 9.0061,
      "duration": 0.0254,
      "velocity": 117,
      "chip": "ym2612"
    },
    {
      "channel": 1,
      "note": 63,
      "start": 9.0062,
      "duration": 0.0256,
      "velocity": 72,
      "chip": "ym2612"
    },
    {
      "channel": 0,
      "note": 80,
      "start": 9.07,
      "duration": 0.019,
      "velocity": 117,
      "chip": "ym2612"
    },
    {
      "channel": 1,
      "note": 65,
      "start": 9.0702,
      "duration": 0.0191,
      "velocity": 72,
      "chip": "ym2612"
    },
    {
      "channel": 0,
      "note": 82,
      "start": 9.1264,
      "duration": 0.2338,
      "velocity": 117,
      "chip": "ym2612"
    },
    {
      "channel": 1,
      "note": 66,
      "start": 9.1303,
      "duration": 0.1026,
      "velocity": 72,
      "chip": "ym2612"
    },
    {
      "channel": 1,
      "note": 65,
      "start": 9.2568,
      "duration": 0.1036,
      "velocity": 72,
      "chip": "ym2612"
    },
    {
      "channel": 2,
      "note": 66,
      "start": 9.2569,
      "duration": 0.0124,
      "velocity": 109,
      "chip": "ym2612"
    },
    {
      "channel": 3,
      "note": 70,
      "start": 9.257,
      "duration": 0.0126,
      "velocity": 109,
      "chip": "ym2612"
    },
    {
      "channel": 0,
      "note": 78,
      "start": 9.3794,
      "duration": 0.0663,
      "velocity": 117,
      "chip": "ym2612"
    },
    {
      "channel": 1,
      "note": 63,
      "start": 9.3966,
      "duration": 0.1069,
      "velocity": 72,
      "chip": "ym2612"
    },
    {
      "channel": 0,
      "note": 82,
      "start": 9.4656,
      "duration": 0.0377,
      "velocity": 117,
      "chip": "ym2612"
    },
    {
      "channel": 0,
      "note": 82,
      "start": 9.5292,
      "duration": 0.0107,
      "velocity": 117,
      "chip": "ym2612"
    },
    {
      "channel": 1,
      "note": 61,
      "start": 9.5293,
      "duration": 0.0109,
      "velocity": 72,
      "chip": "ym2612"
    },
    {
      "channel": 2,
      "note": 66,
      "start": 9.5295,
      "duration": 0.0168,
      "velocity": 109,
      "chip": "ym2612"
    },
    {
      "channel": 3,
      "note": 70,
      "start": 9.5296,
      "duration": 0.017,
      "velocity": 109,
      "chip": "ym2612"
    },
    {
      "channel": 0,
      "note": 80,
      "start": 9.5473,
      "duration": 0.0418,
      "velocity": 117,
      "chip": "ym2612"
    },
    {
      "channel": 1,
      "note": 63,
      "start": 9.5474,
      "duration": 0.0419,
      "velocity": 72,
      "chip": "ym2612"
    },
    {
      "channel": 0,
      "note": 78,
      "start": 9.6107,
      "duration": 0.0359,
      "velocity": 117,
      "chip": "ym2612"
    },
    {
      "channel": 1,
      "note": 65,
      "start": 9.6109,
      "duration": 0.0361,
      "velocity": 72,
      "chip": "ym2612"
    },
    {
      "channel": 0,
      "note": 80,
      "start": 9.6674,
      "duration": 0.1065,
      "velocity": 117,
      "chip": "ym2612"
    },
    {
      "channel": 1,
      "note": 66,
      "start": 9.6712,
      "duration": 0.103,
      "velocity": 72,
      "chip": "ym2612"
    },
    {
      "channel": 0,
      "note": 75,
      "start": 9.7979,
      "duration": 0.1201,
      "velocity": 117,
      "chip": "ym2612"
    },
    {
      "channel": 1,
      "note": 65,
      "start": 9.798,
      "duration": 0.1202,
      "velocity": 72,
      "chip": "ym2612"
    },
    {
      "channel": 2,
      "note": 68,
      "start": 9.7982,
      "duration": 0.0145,
      "velocity": 109,
      "chip": "ym2612"
    },
    {
      "channel": 3,
      "note": 72,
      "start": 9.8022,
      "duration": 0.0108,
      "velocity": 109,
      "chip": "ym2612"
    },
    {
      "channel": 0,
      "note": 80,
      "start": 9.9398,
      "duration": 0.1057,
      "velocity": 117,
      "chip": "ym2612"
    },
    {
      "channel": 1,
      "note": 63,
      "start": 9.9399,
      "duration": 0.1058,
      "velocity": 72,
      "chip": "ym2612"
    },
    {
      "channel": 0,
      "note": 75,
      "start": 10.0881,
      "duration": 0.1006,
      "velocity": 117,
      "chip": "ym2612"
    },
    {
      "channel": 1,
      "note": 61,
      "start": 10.0883,
      "duration": 0.0084,
      "velocity": 72,
      "chip": "ym2612"
    },
    {
      "channel": 2,
      "note": 68,
      "start": 10.0884,
      "duration": 0.0122,
      "velocity": 109,
      "chip": "ym2612"
    },
    {
      "channel": 3,
      "note": 72,
      "start": 10.0885,
      "duration": 0.0124,
      "velocity": 109,
      "chip": "ym2612"
    },
    {
      "channel": 1,
      "note": 63,
      "start": 10.1015,
      "duration": 0.0298,
      "velocity": 72,
      "chip": "ym2612"
    },
    {
      "channel": 1,
      "note": 65,
      "start": 10.151,
      "duration": 0.0381,
      "velocity": 72,
      "chip": "ym2612"
    },
    {
      "channel": 0,
      "note": 73,
      "start": 10.2097,
      "duration": 0.3362,
      "velocity": 117,
      "chip": "ym2612"
    },
    {
      "channel": 1,
      "note": 66,
      "start": 10.2137,
      "duration": 0.1025,
      "velocity": 72,
      "chip": "ym2612"
    },
    {
      "channel": 1,
      "note": 65,
      "start": 10.3567,
      "duration": 0.1037,
      "velocity": 72,
      "chip": "ym2612"
    },
    {
      "channel": 2,
      "note": 66,
      "start": 10.3568,
      "duration": 0.0098,
      "velocity": 109,
      "chip": "ym2612"
    },
    {
      "channel": 3,
      "note": 70,
      "start": 10.3569,
      "duration": 0.0117,
      "velocity": 109,
      "chip": "ym2612"
    },
    {
      "channel": 1,
      "note": 63,
      "start": 10.4802,
      "duration": 0.1232,
      "velocity": 72,
      "chip": "ym2612"
    },
    {
      "channel": 0,
      "note": 73,
      "start": 10.5656,
      "duration": 0.0212,
      "velocity": 117,
      "chip": "ym2612"
    },
    {
      "channel": 0,
      "note": 78,
      "start": 10.6292,
      "duration": 0.0434,
      "velocity": 117,
      "chip": "ym2612"
    },
    {
      "channel": 1,
      "note": 61,
      "start": 10.6293,
      "duration": 0.0083,
      "velocity": 72,
      "chip": "ym2612"
    },
    {
      "channel": 2,
      "note": 66,
      "start": 10.6294,
      "duration": 0.01,
      "velocity": 109,
      "chip": "ym2612"
    },
    {
      "channel": 3,
      "note": 70,
      "start": 10.6295,
      "duration": 0.0102,
      "velocity": 109,
      "chip": "ym2612"
    },
    {
      "channel": 1,
      "note": 63,
      "start": 10.644,
      "duration": 0.0288,
      "velocity": 72,
      "chip": "ym2612"
    },
    {
      "channel": 0,
      "note": 82,
      "start": 10.7112,
      "duration": 0.0189,
      "velocity": 117,
      "chip": "ym2612"
    },
    {
      "channel": 1,
      "note": 65,
      "start": 10.7113,
      "duration": 0.019,
      "velocity": 72,
      "chip": "ym2612"
    },
    {
      "channel": 0,
      "note": 84,
      "start": 10.751,
      "duration": 0.2499,
      "velocity": 117,
      "chip": "ym2612"
    },
    {
      "channel": 1,
      "note": 66,
      "start": 10.755,
      "duration": 0.1191,
      "velocity": 72,
      "chip": "ym2612"
    },
    {
      "channel": 1,
      "note": 65,
      "start": 10.8978,
      "duration": 0.1033,
      "velocity": 72,
      "chip": "ym2612"
    },
    {
      "channel": 2,
      "note": 68,
      "start": 10.898,
      "duration": 0.0115,
      "velocity": 109,
      "chip": "ym2612"
    },
    {
      "channel": 3,
      "note": 72,
      "start": 10.898,
      "duration": 0.0117,
      "velocity": 109,
      "chip": "ym2612"
    },
    {
      "channel": 0,
      "note": 80,
      "start": 11.0394,
      "duration": 0.1054,
      "velocity": 117,
      "chip": "ym2612"
    },
    {
      "channel": 1,
      "note": 63,
      "start": 11.0396,
      "duration": 0.1055,
      "velocity": 72,
      "chip": "ym2612"
    },
    {
      "channel": 0,
      "note": 84,
      "start": 11.1706,
      "duration": 0.0105,
      "velocity": 117,
      "chip": "ym2612"
    },
    {
      "channel": 1,
      "note": 61,
      "start": 11.1707,
      "duration": 0.0106,
      "velocity": 72,
      "chip": "ym2612"
    },
    {
      "channel": 2,
      "note": 68,
      "start": 11.1708,
      "duration": 0.0167,
      "velocity": 109,
      "chip": "ym2612"
    },
    {
      "channel": 3,
      "note": 72,
      "start": 11.1709,
      "duration": 0.0169,
      "velocity": 109,
      "chip": "ym2612"
    },
    {
      "channel": 0,
      "note": 82,
      "start": 11.1885,
      "duration": 0.0254,
      "velocity": 117,
      "chip": "ym2612"
    },
    {
      "channel": 1,
      "note": 63,
      "start": 11.1887,
      "duration": 0.042,
      "velocity": 72,
      "chip": "ym2612"
    },
    {
      "channel": 0,
      "note": 80,
      "start": 11.2525,
      "duration": 0.019,
      "velocity": 117,
      "chip": "ym2612"
    },
    {
      "channel": 1,
      "note": 65,
      "start": 11.2527,
      "duration": 0.0191,
      "velocity": 72,
      "chip": "ym2612"
    },
    {
      "channel": 0,
      "note": 82,
      "start": 11.291,
      "duration": 0.2687,
      "velocity": 117,
      "chip": "ym2612"
    },
    {
      "channel": 1,
      "note": 66,
      "start": 11.3106,
      "duration": 0.1048,
      "velocity": 72,
      "chip": "ym2612"
    },
    {
      "channel": 1,
      "note": 65,
      "start": 11.4394,
      "duration": 0.1206,
      "velocity": 72,
      "chip": "ym2612"
    },
    {
      "channel": 2,
      "note": 66,
      "start": 11.4395,
      "duration": 0.0125,
      "velocity": 109,
      "chip": "ym2612"
    },
    {
      "channel": 3,
      "note": 70,
      "start": 11.4395,
      "duration": 0.0127,
      "velocity": 109,
      "chip": "ym2612"
    },
    {
      "channel": 0,
      "note": 78,
      "start": 11.5814,
      "duration": 0.0472,
      "velocity": 117,
      "chip": "ym2612"
    },
    {
      "channel": 1,
      "note": 63,
      "start": 11.5815,
      "duration": 0.105,
      "velocity": 72,
      "chip": "ym2612"
    },
    {
      "channel": 0,
      "note": 82,
      "start": 11.6651,
      "duration": 0.0211,
      "velocity": 117,
      "chip": "ym2612"
    },
    {
      "channel": 0,
      "note": 82,
      "start": 11.7121,
      "duration": 0.0107,
      "velocity": 117,
      "chip": "ym2612"
    },
    {
      "channel": 1,
      "note": 61,
      "start": 11.7122,
      "duration": 0.0108,
      "velocity": 72,
      "chip": "ym2612"
    },
    {
      "channel": 2,
      "note": 66,
      "start": 11.7124,
      "duration": 0.0168,
      "velocity": 109,
      "chip": "ym2612"
    },
    {
      "channel": 3,
      "note": 70,
      "start": 11.7124,
      "duration": 0.017,
      "velocity": 109,
      "chip": "ym2612"
    },
    {
      "channel": 0,
      "note": 80,
      "start": 11.7302,
      "duration": 0.0417,
      "velocity": 117,
      "chip": "ym2612"
    },
    {
      "channel": 1,
      "note": 63,
      "start": 11.7304,
      "duration": 0.0418,
      "velocity": 72,
      "chip": "ym2612"
    },
    {
      "channel": 0,
      "note": 78,
      "start": 11.7937,
      "duration": 0.0359,
      "velocity": 117,
      "chip": "ym2612"
    },
    {
      "channel": 1,
      "note": 65,
      "start": 11.7938,
      "duration": 0.0361,
      "velocity": 72,
      "chip": "ym2612"
    },
    {
      "channel": 0,
      "note": 80,
      "start": 11.8514,
      "duration": 0.1057,
      "velocity": 117,
      "chip": "ym2612"
    },
    {
      "channel": 1,
      "note": 66,
      "start": 11.8515,
      "duration": 0.1058,
      "velocity": 72,
      "chip": "ym2612"
    },
    {
      "channel": 2,
      "note": 68,
      "start": 11.9766,
      "duration": 0.032,
      "velocity": 109,
      "chip": "ym2612"
    },
    {
      "channel": 0,
      "note": 75,
      "start": 11.9977,
      "duration": 0.1036,
      "velocity": 117,
      "chip": "ym2612"
    },
    {
      "channel": 1,
      "note": 65,
      "start": 11.9978,
      "duration": 0.1038,
      "velocity": 72,
      "chip": "ym2612"
    },
    {
      "channel": 3,
      "note": 72,
      "start": 11.998,
      "duration": 0.0109,
      "velocity": 109,
      "chip": "ym2612"
    },
    {
      "channel": 0,
      "note": 80,
      "start": 12.1231,
      "duration": 0.1059,
      "velocity": 117,
      "chip": "ym2612"
    },
    {
      "channel": 1,
      "note": 63,
      "start": 12.1232,
      "duration": 0.1061,
      "velocity": 72,
      "chip": "ym2612"
    },
    {
      "channel": 0,
      "note": 75,
      "start": 12.2724,
      "duration": 0.0015,
      "velocity": 110,
      "chip": "ym2612"
    },
    {
      "channel": 1,
      "note": 61,
      "start": 12.2725,
      "duration": 0.0093,
      "velocity": 72,
      "chip": "ym2612"
    },
    {
      "channel": 2,
      "note": 68,
      "start": 12.2726,
      "duration": 0.0113,
      "velocity": 109,
      "chip": "ym2612"
    },
    {
      "channel": 3,
      "note": 72,
      "start": 12.2727,
      "duration": 0.0185,
      "velocity": 109,
      "chip": "ym2612"
    },
    {
      "channel": 0,
      "note": 74,
      "start": 12.293,
      "duration": 0.0213,
      "velocity": 110,
      "chip": "ym2612"
    },
    {
      "channel": 1,
      "note": 63,
      "start": 12.2932,
      "duration": 0.0214,
      "velocity": 72,
      "chip": "ym2612"
    },
    {
      "channel": 0,
      "note": 75,
      "start": 12.3361,
      "duration": 0.0359,
      "velocity": 110,
      "chip": "ym2612"
    },
    {
      "channel": 1,
      "note": 65,
      "start": 12.3362,
      "duration": 0.0361,
      "velocity": 72,
      "chip": "ym2612"
    },
    {
      "channel": 0,
      "note": 77,
      "start": 12.397,
      "duration": 0.318,
      "velocity": 110,
      "chip": "ym2612"
    },
    {
      "channel": 1,
      "note": 65,
      "start": 12.3971,
      "duration": 0.1023,
      "velocity": 72,
      "chip": "ym2612"
    },
    {
      "channel": 2,
      "note": 74,
      "start": 12.3972,
      "duration": 0.2511,
      "velocity": 86,
      "chip": "ym2612"
    },
    {
      "channel": 3,
      "note": 82,
      "start": 12.4022,
      "duration": 0.2463,
      "velocity": 86,
      "chip": "ym2612"
    },
    {
      "channel": 1,
      "note": 77,
      "start": 12.5357,
      "duration": 0.0937,
      "velocity": 72,
      "chip": "ym2612"
    },
    {
      "channel": 1,
      "note": 65,
      "start": 12.6497,
      "duration": 0.0952,
      "velocity": 72,
      "chip": "ym2612"
    },
    {
      "channel": 2,
      "note": 70,
      "start": 12.6557,
      "duration": 0.2218,
      "velocity": 86,
      "chip": "ym2612"
    },
    {
      "channel": 3,
      "note": 77,
      "start": 12.6559,
      "duration": 0.222,
      "velocity": 86,
      "chip": "ym2612"
    },
    {
      "channel": 0,
      "note": 77,
      "start": 12.7347,
      "duration": 0.0098,
      "velocity": 110,
      "chip": "ym2612"
    },
    {
      "channel": 0,
      "note": 82,
      "start": 12.7517,
      "duration": 0.0309,
      "velocity": 110,
      "chip": "ym2612"
    },
    {
      "channel": 1,
      "note": 77,
      "start": 12.7518,
      "duration": 0.0885,
      "velocity": 72,
      "chip": "ym2612"
    },
    {
      "channel": 0,
      "note": 86,
      "start": 12.819,
      "duration": 0.021,
      "velocity": 110,
      "chip": "ym2612"
    },
    {
      "channel": 0,
      "note": 88,
      "start": 12.879,
      "duration": 0.2179,
      "velocity": 110,
      "chip": "ym2612"
    },
    {
      "channel": 1,
      "note": 65,
      "start": 12.8791,
      "duration": 0.1055,
      "velocity": 72,
      "chip": "ym2612"
    },
    {
      "channel": 2,
      "note": 76,
      "start": 12.8851,
      "duration": 0.2493,
      "velocity": 86,
      "chip": "ym2612"
    },
    {
      "channel": 3,
      "note": 84,
      "start": 12.8853,
      "duration": 0.2494,
      "velocity": 86,
      "chip": "ym2612"
    },
    {
      "channel": 1,
      "note": 77,
      "start": 13.0043,
      "duration": 0.1093,
      "velocity": 72,
      "chip": "ym2612"
    },
    {
      "channel": 0,
      "note": 84,
      "start": 13.1358,
      "duration": 0.0468,
      "velocity": 110,
      "chip": "ym2612"
    },
    {
      "channel": 1,
      "note": 65,
      "start": 13.1359,
      "duration": 0.0469,
      "velocity": 72,
      "chip": "ym2612"
    },
    {
      "channel": 2,
      "note": 72,
      "start": 13.1419,
      "duration": 0.1628,
      "velocity": 86,
      "chip": "ym2612"
    },
    {
      "channel": 3,
      "note": 79,
      "start": 13.142,
      "duration": 0.1629,
      "velocity": 86,
      "chip": "ym2612"
    },
    {
      "channel": 0,
      "note": 88,
      "start": 13.2044,
      "duration": 0.0099,
      "velocity": 110,
      "chip": "ym2612"
    },
    {
      "channel": 1,
      "note": 65,
      "start": 13.2045,
      "duration": 0.01,
      "velocity": 72,
      "chip": "ym2612"
    },
    {
      "channel": 0,
      "note": 88,
      "start": 13.2214,
      "duration": 0.0117,
      "velocity": 110,
      "chip": "ym2612"
    },
    {
      "channel": 1,
      "note": 77,
      "start": 13.2215,
      "duration": 0.075,
      "velocity": 72,
      "chip": "ym2612"
    },
    {
      "channel": 0,
      "note": 86,
      "start": 13.238,
      "duration": 0.0299,
      "velocity": 110,
      "chip": "ym2612"
    },
    {
      "channel": 0,
      "note": 84,
      "start": 13.2877,
      "duration": 0.0108,
      "velocity": 110,
      "chip": "ym2612"
    },
    {
      "channel": 0,
      "note": 86,
      "start": 13.306,
      "duration": 0.2331,
      "velocity": 110,
      "chip": "ym2612"
    },
    {
      "channel": 1,
      "note": 65,
      "start": 13.3061,
      "duration": 0.1035,
      "velocity": 72,
      "chip": "ym2612"
    },
    {
      "channel": 2,
      "note": 77,
      "start": 13.3121,
      "duration": 0.248,
      "velocity": 86,
      "chip": "ym2612"
    },
    {
      "channel": 3,
      "note": 82,
      "start": 13.3122,
      "duration": 0.2481,
      "velocity": 86,
      "chip": "ym2612"
    },
    {
      "channel": 1,
      "note": 77,
      "start": 13.4295,
      "duration": 0.11,
      "velocity": 72,
      "chip": "ym2612"
    },
    {
      "channel": 0,
      "note": 82,
      "start": 13.5612,
      "duration": 0.0915,
      "velocity": 110,
      "chip": "ym2612"
    },
    {
      "channel": 1,
      "note": 65,
      "start": 13.5614,
      "duration": 0.0916,
      "velocity": 72,
      "chip": "ym2612"
    },
    {
      "channel": 2,
      "note": 74,
      "start": 13.5672,
      "duration": 0.2058,
      "velocity": 86,
      "chip": "ym2612"
    },
    {
      "channel": 3,
      "note": 77,
      "start": 13.5673,
      "duration": 0.206,
      "velocity": 86,
      "chip": "ym2612"
    },
    {
      "channel": 0,
      "note": 86,
      "start": 13.6619,
      "duration": 0.0103,
      "velocity": 110,
      "chip": "ym2612"
    },
    {
      "channel": 1,
      "note": 77,
      "start": 13.6621,
      "duration": 0.0903,
      "velocity": 72,
      "chip": "ym2612"
    },
    {
      "channel": 0,
      "note": 84,
      "start": 13.6771,
      "duration": 0.0177,
      "velocity": 110,
      "chip": "ym2612"
    },
    {
      "channel": 0,
      "note": 82,
      "start": 13.7143,
      "duration": 0.0378,
      "velocity": 110,
      "chip": "ym2612"
    },
    {
      "channel": 0,
      "note": 84,
      "start": 13.7743,
      "duration": 0.1064,
      "velocity": 110,
      "chip": "ym2612"
    },
    {
      "channel": 1,
      "note": 65,
      "start": 13.7744,
      "duration": 0.1066,
      "velocity": 72,
      "chip": "ym2612"
    },
    {
      "channel": 2,
      "note": 79,
      "start": 13.7802,
      "duration": 0.4274,
      "velocity": 86,
      "chip": "ym2612"
    },
    {
      "channel": 3,
      "note": 88,
      "start": 13.7804,
      "duration": 0.1379,
      "velocity": 86,
      "chip": "ym2612"
    },
    {
      "channel": 0,
      "note": 79,
      "start": 13.9195,
      "duration": 0.0903,
      "velocity": 110,
      "chip": "ym2612"
    },
    {
      "channel": 1,
      "note": 77,
      "start": 13.9196,
      "duration": 0.0904,
      "velocity": 72,
      "chip": "ym2612"
    },
    {
      "channel": 3,
      "note": 84,
      "start": 13.9236,
      "duration": 0.1072,
      "velocity": 86,
      "chip": "ym2612"
    },
    {
      "channel": 0,
      "note": 84,
      "start": 14.0335,
      "duration": 0.0904,
      "velocity": 110,
      "chip": "ym2612"
    },
    {
      "channel": 1,
      "note": 65,
      "start": 14.0336,
      "duration": 0.0617,
      "velocity": 72,
      "chip": "ym2612"
    },
    {
      "channel": 3,
      "note": 88,
      "start": 14.0337,
      "duration": 0.0985,
      "velocity": 86,
      "chip": "ym2612"
    },
    {
      "channel": 1,
      "note": 65,
      "start": 14.1151,
      "duration": 0.0109,
      "velocity": 72,
      "chip": "ym2612"
    },
    {
      "channel": 0,
      "note": 79,
      "start": 14.1334,
      "duration": 0.0738,
      "velocity": 110,
      "chip": "ym2612"
    },
    {
      "channel": 1,
      "note": 77,
      "start": 14.1335,
      "duration": 0.0739,
      "velocity": 72,
      "chip": "ym2612"
    },
    {
      "channel": 3,
      "note": 84,
      "start": 14.1378,
      "duration": 0.0758,
      "velocity": 86,
      "chip": "ym2612"
    },
    {
      "channel": 0,
      "note": 77,
      "start": 14.2149,
      "duration": 0.314,
      "velocity": 110,
      "chip": "ym2612"
    },
    {
      "channel": 1,
      "note": 65,
      "start": 14.215,
      "duration": 0.1154,
      "velocity": 72,
      "chip": "ym2612"
    },
    {
      "channel": 2,
      "note": 74,
      "start": 14.2211,
      "duration": 0.2578,
      "velocity": 86,
      "chip": "ym2612"
    },
    {
      "channel": 3,
      "note": 82,
      "start": 14.2212,
      "duration": 0.2597,
      "velocity": 86,
      "chip": "ym2612"
    },
    {
      "channel": 1,
      "note": 77,
      "start": 14.35,
      "duration": 0.0933,
      "velocity": 72,
      "chip": "ym2612"
    },
    {
      "channel": 1,
      "note": 65,
      "start": 14.4822,
      "duration": 0.0765,
      "velocity": 72,
      "chip": "ym2612"
    },
    {
      "channel": 2,
      "note": 70,
      "start": 14.4822,
      "duration": 0.2099,
      "velocity": 86,
      "chip": "ym2612"
    },
    {
      "channel": 3,
      "note": 77,
      "start": 14.4862,
      "duration": 0.2062,
      "velocity": 86,
      "chip": "ym2612"
    },
    {
      "channel": 0,
      "note": 77,
      "start": 14.5486,
      "duration": 0.0098,
      "velocity": 110,
      "chip": "ym2612"
    },
    {
      "channel": 0,
      "note": 82,
      "start": 14.5655,
      "duration": 0.0316,
      "velocity": 110,
      "chip": "ym2612"
    },
    {
      "channel": 1,
      "note": 77,
      "start": 14.5656,
      "duration": 0.0893,
      "velocity": 72,
      "chip": "ym2612"
    },
    {
      "channel": 0,
      "note": 86,
      "start": 14.6336,
      "duration": 0.021,
      "velocity": 110,
      "chip": "ym2612"
    },
    {
      "channel": 0,
      "note": 88,
      "start": 14.6936,
      "duration": 0.2341,
      "velocity": 110,
      "chip": "ym2612"
    },
    {
      "channel": 1,
      "note": 65,
      "start": 14.6937,
      "duration": 0.1051,
      "velocity": 72,
      "chip": "ym2612"
    },
    {
      "channel": 2,
      "note": 76,
      "start": 14.6997,
      "duration": 0.2489,
      "velocity": 86,
      "chip": "ym2612"
    },
    {
      "channel": 3,
      "note": 84,
      "start": 14.6998,
      "duration": 0.249,
      "velocity": 86,
      "chip": "ym2612"
    },
    {
      "channel": 1,
      "note": 77,
      "start": 14.8184,
      "duration": 0.1095,
      "velocity": 72,
      "chip": "ym2612"
    },
    {
      "channel": 0,
      "note": 84,
      "start": 14.95,
      "duration": 0.0468,
      "velocity": 110,
      "chip": "ym2612"
    },
    {
      "channel": 1,
      "note": 65,
      "start": 14.9501,
      "duration": 0.047,
      "velocity": 72,
      "chip": "ym2612"
    },
    {
      "channel": 2,
      "note": 72,
      "start": 14.9561,
      "duration": 0.178,
      "velocity": 86,
      "chip": "ym2612"
    },
    {
      "channel": 3,
      "note": 79,
      "start": 14.9562,
      "duration": 0.1598,
      "velocity": 86,
      "chip": "ym2612"
    },
    {
      "channel": 0,
      "note": 88,
      "start": 15.0162,
      "duration": 0.0251,
      "velocity": 110,
      "chip": "ym2612"
    },
    {
      "channel": 1,
      "note": 65,
      "start": 15.0333,
      "duration": 0.0083,
      "velocity": 72,
      "chip": "ym2612"
    },
    {
      "channel": 0,
      "note": 88,
      "start": 15.0485,
      "duration": 0.0122,
      "velocity": 110,
      "chip": "ym2612"
    },
    {
      "channel": 1,
      "note": 77,
      "start": 15.0486,
      "duration": 0.0793,
      "velocity": 72,
      "chip": "ym2612"
    },
    {
      "channel": 0,
      "note": 86,
      "start": 15.0656,
      "duration": 0.0316,
      "velocity": 110,
      "chip": "ym2612"
    },
    {
      "channel": 0,
      "note": 84,
      "start": 15.1171,
      "duration": 0.0105,
      "velocity": 110,
      "chip": "ym2612"
    },
    {
      "channel": 0,
      "note": 86,
      "start": 15.1373,
      "duration": 0.2307,
      "velocity": 110,
      "chip": "ym2612"
    },
    {
      "channel": 1,
      "note": 65,
      "start": 15.1374,
      "duration": 0.1015,
      "velocity": 72,
      "chip": "ym2612"
    },
    {
      "channel": 3,
      "note": 82,
      "start": 15.1375,
      "duration": 0.2517,
      "velocity": 86,
      "chip": "ym2612"
    },
    {
      "channel": 2,
      "note": 77,
      "start": 15.1414,
      "duration": 0.2476,
      "velocity": 86,
      "chip": "ym2612"
    },
    {
      "channel": 1,
      "note": 77,
      "start": 15.2753,
      "duration": 0.0929,
      "velocity": 72,
      "chip": "ym2612"
    },
    {
      "channel": 0,
      "note": 82,
      "start": 15.3901,
      "duration": 0.0914,
      "velocity": 110,
      "chip": "ym2612"
    },
    {
      "channel": 1,
      "note": 65,
      "start": 15.3903,
      "duration": 0.0916,
      "velocity": 72,
      "chip": "ym2612"
    },
    {
      "channel": 2,
      "note": 74,
      "start": 15.3961,
      "duration": 0.206,
      "velocity": 86,
      "chip": "ym2612"
    },
    {
      "channel": 3,
      "note": 77,
      "start": 15.3962,
      "duration": 0.2061,
      "velocity": 86,
      "chip": "ym2612"
    },
    {
      "channel": 0,
      "note": 86,
      "start": 15.4908,
      "duration": 0.0103,
      "velocity": 110,
      "chip": "ym2612"
    },
    {
      "channel": 1,
      "note": 77,
      "start": 15.491,
      "duration": 0.0905,
      "velocity": 72,
      "chip": "ym2612"
    },
    {
      "channel": 0,
      "note": 84,
      "start": 15.506,
      "duration": 0.0178,
      "velocity": 110,
      "chip": "ym2612"
    },
    {
      "channel": 0,
      "note": 82,
      "start": 15.5434,
      "duration": 0.0378,
      "velocity": 110,
      "chip": "ym2612"
    },
    {
      "channel": 0,
      "note": 84,
      "start": 15.6033,
      "duration": 0.1228,
      "velocity": 110,
      "chip": "ym2612"
    },
    {
      "channel": 1,
      "note": 65,
      "start": 15.6035,
      "duration": 0.123,
      "velocity": 72,
      "chip": "ym2612"
    },
    {
      "channel": 2,
      "note": 79,
      "start": 15.6093,
      "duration": 0.4383,
      "velocity": 86,
      "chip": "ym2612"
    },
    {
      "channel": 3,
      "note": 88,
      "start": 15.6094,
      "duration": 0.1377,
      "velocity": 86,
      "chip": "ym2612"
    },
    {
      "channel": 0,
      "note": 79,
      "start": 15.7483,
      "duration": 0.0907,
      "velocity": 110,
      "chip": "ym2612"
    },
    {
      "channel": 1,
      "note": 77,
      "start": 15.7484,
      "duration": 0.0908,
      "velocity": 72,
      "chip": "ym2612"
    },
    {
      "channel": 3,
      "note": 84,
      "start": 15.7524,
      "duration": 0.1076,
      "velocity": 86,
      "chip": "ym2612"
    },
    {
      "channel": 0,
      "note": 84,
      "start": 15.8628,
      "duration": 0.0785,
      "velocity": 110,
      "chip": "ym2612"
    },
    {
      "channel": 1,
      "note": 65,
      "start": 15.8629,
      "duration": 0.0617,
      "velocity": 72,
      "chip": "ym2612"
    },
    {
      "channel": 3,
      "note": 88,
      "start": 15.8631,
      "duration": 0.0965,
      "velocity": 86,
      "chip": "ym2612"
    },
    {
      "channel": 1,
      "note": 65,
      "start": 15.9447,
      "duration": 0.0105,
      "velocity": 72,
      "chip": "ym2612"
    },
    {
      "channel": 1,
      "note": 77,
      "start": 15.9615,
      "duration": 0.0765,
      "velocity": 72,
      "chip": "ym2612"
    },
    {
      "channel": 3,
      "note": 84,
      "start": 15.9659,
      "duration": 0.082,
      "velocity": 86,
      "chip": "ym2612"
    },
    {
      "channel": 0,
      "note": 78,
      "start": 15.9799,
      "duration": 0.0463,
      "velocity": 127,
      "chip": "ym2612"
    },
    {
      "channel": 0,
      "note": 79,
      "start": 16.0314,
      "duration": 0.0093,
      "velocity": 127,
      "chip": "ym2612"
    },
    {
      "channel": 0,
      "note": 81,
      "start": 16.0511,
      "duration": 0.2996,
      "velocity": 127,
      "chip": "ym2612"
    },
    {
      "channel": 1,
      "note": 74,
      "start": 16.0513,
      "duration": 0.1007,
      "velocity": 72,
      "chip": "ym2612"
    },
    {
      "channel": 1,
      "note": 62,
      "start": 16.1772,
      "duration": 0.1029,
      "velocity": 72,
      "chip": "ym2612"
    },
    {
      "channel": 2,
      "note": 86,
      "start": 16.1773,
      "duration": 0.0121,
      "velocity": 127,
      "chip": "ym2612"
    },
    {
      "channel": 3,
      "note": 90,
      "start": 16.1775,
      "duration": 0.0122,
      "velocity": 127,
      "chip": "ym2612"
    },
    {
      "channel": 1,
      "note": 74,
      "start": 16.3166,
      "duration": 0.0921,
      "velocity": 72,
      "chip": "ym2612"
    },
    {
      "channel": 0,
      "note": 81,
      "start": 16.3704,
      "duration": 0.038,
      "velocity": 127,
      "chip": "ym2612"
    },
    {
      "channel": 0,
      "note": 78,
      "start": 16.4341,
      "duration": 0.06,
      "velocity": 127,
      "chip": "ym2612"
    },
    {
      "channel": 1,
      "note": 69,
      "start": 16.4342,
      "duration": 0.0099,
      "velocity": 72,
      "chip": "ym2612"
    },
    {
      "channel": 2,
      "note": 86,
      "start": 16.4344,
      "duration": 0.0137,
      "velocity": 127,
      "chip": "ym2612"
    },
    {
      "channel": 3,
      "note": 90,
      "start": 16.4345,
      "duration": 0.0139,
      "velocity": 127,
      "chip": "ym2612"
    },
    {
      "channel": 1,
      "note": 71,
      "start": 16.449,
      "duration": 0.0454,
      "velocity": 72,
      "chip": "ym2612"
    },
    {
      "channel": 0,
      "note": 81,
      "start": 16.516,
      "duration": 0.0106,
      "velocity": 127,
      "chip": "ym2612"
    },
    {
      "channel": 1,
      "note": 73,
      "start": 16.5161,
      "duration": 0.0107,
      "velocity": 72,
      "chip": "ym2612"
    },
    {
      "channel": 0,
      "note": 83,
      "start": 16.534,
      "duration": 0.3584,
      "velocity": 127,
      "chip": "ym2612"
    },
    {
      "channel": 1,
      "note": 74,
      "start": 16.5341,
      "duration": 0.1018,
      "velocity": 72,
      "chip": "ym2612"
    },
    {
      "channel": 1,
      "note": 62,
      "start": 16.6596,
      "duration": 0.1206,
      "velocity": 72,
      "chip": "ym2612"
    },
    {
      "channel": 2,
      "note": 88,
      "start": 16.6598,
      "duration": 0.0115,
      "velocity": 127,
      "chip": "ym2612"
    },
    {
      "channel": 3,
      "note": 92,
      "start": 16.6599,
      "duration": 0.0117,
      "velocity": 127,
      "chip": "ym2612"
    },
    {
      "channel": 1,
      "note": 74,
      "start": 16.8,
      "duration": 0.0927,
      "velocity": 72,
      "chip": "ym2612"
    },
    {
      "channel": 0,
      "note": 83,
      "start": 16.9349,
      "duration": 0.0088,
      "velocity": 127,
      "chip": "ym2612"
    },
    {
      "channel": 1,
      "note": 69,
      "start": 16.935,
      "duration": 0.0089,
      "velocity": 72,
      "chip": "ym2612"
    },
    {
      "channel": 2,
      "note": 88,
      "start": 16.9351,
      "duration": 0.0149,
      "velocity": 127,
      "chip": "ym2612"
    },
    {
      "channel": 3,
      "note": 92,
      "start": 16.9353,
      "duration": 0.015,
      "velocity": 127,
      "chip": "ym2612"
    },
    {
      "channel": 0,
      "note": 81,
      "start": 16.9511,
      "duration": 0.0271,
      "velocity": 127,
      "chip": "ym2612"
    },
    {
      "channel": 1,
      "note": 71,
      "start": 16.9512,
      "duration": 0.0272,
      "velocity": 72,
      "chip": "ym2612"
    },
    {
      "channel": 0,
      "note": 80,
      "start": 17.0001,
      "duration": 0.0106,
      "velocity": 127,
      "chip": "ym2612"
    },
    {
      "channel": 1,
      "note": 73,
      "start": 17.0002,
      "duration": 0.0107,
      "velocity": 72,
      "chip": "ym2612"
    },
    {
      "channel": 0,
      "note": 81,
      "start": 17.018,
      "duration": 0.3755,
      "velocity": 127,
      "chip": "ym2612"
    },
    {
      "channel": 1,
      "note": 74,
      "start": 17.0181,
      "duration": 0.1023,
      "velocity": 72,
      "chip": "ym2612"
    },
    {
      "channel": 1,
      "note": 62,
      "start": 17.161,
      "duration": 0.1033,
      "velocity": 72,
      "chip": "ym2612"
    },
    {
      "channel": 2,
      "note": 86,
      "start": 17.161,
      "duration": 0.0106,
      "velocity": 127,
      "chip": "ym2612"
    },
    {
      "channel": 3,
      "note": 90,
      "start": 17.1612,
      "duration": 0.0126,
      "velocity": 127,
      "chip": "ym2612"
    },
    {
      "channel": 1,
      "note": 74,
      "start": 17.2839,
      "duration": 0.1098,
      "velocity": 72,
      "chip": "ym2612"
    },
    {
      "channel": 0,
      "note": 81,
      "start": 17.4194,
      "duration": 0.0089,
      "velocity": 127,
      "chip": "ym2612"
    },
    {
      "channel": 1,
      "note": 69,
      "start": 17.4195,
      "duration": 0.009,
      "velocity": 72,
      "chip": "ym2612"
    },
    {
      "channel": 2,
      "note": 86,
      "start": 17.4196,
      "duration": 0.011,
      "velocity": 127,
      "chip": "ym2612"
    },
    {
      "channel": 3,
      "note": 90,
      "start": 17.4197,
      "duration": 0.017,
      "velocity": 127,
      "chip": "ym2612"
    },
    {
      "channel": 0,
      "note": 80,
      "start": 17.4375,
      "duration": 0.025,
      "velocity": 127,
      "chip": "ym2612"
    },
    {
      "channel": 1,
      "note": 71,
      "start": 17.4376,
      "duration": 0.0251,
      "velocity": 72,
      "chip": "ym2612"
    },
    {
      "channel": 0,
      "note": 78,
      "start": 17.5009,
      "duration": 0.0081,
      "velocity": 127,
      "chip": "ym2612"
    },
    {
      "channel": 1,
      "note": 73,
      "start": 17.501,
      "duration": 0.0083,
      "velocity": 72,
      "chip": "ym2612"
    },
    {
      "channel": 0,
      "note": 80,
      "start": 17.5161,
      "duration": 0.0123,
      "velocity": 127,
      "chip": "ym2612"
    },
    {
      "channel": 1,
      "note": 74,
      "start": 17.5162,
      "duration": 0.1192,
      "velocity": 72,
      "chip": "ym2612"
    },
    {
      "channel": 0,
      "note": 76,
      "start": 17.5329,
      "duration": 0.0448,
      "velocity": 127,
      "chip": "ym2612"
    },
    {
      "channel": 0,
      "note": 71,
      "start": 17.5975,
      "duration": 0.0377,
      "velocity": 127,
      "chip": "ym2612"
    },
    {
      "channel": 0,
      "note": 80,
      "start": 17.6612,
      "duration": 0.0089,
      "velocity": 127,
      "chip": "ym2612"
    },
    {
      "channel": 1,
      "note": 62,
      "start": 17.6613,
      "duration": 0.1009,
      "velocity": 72,
      "chip": "ym2612"
    },
    {
      "channel": 2,
      "note": 88,
      "start": 17.6615,
      "duration": 0.0147,
      "velocity": 127,
      "chip": "ym2612"
    },
    {
      "channel": 3,
      "note": 92,
      "start": 17.6615,
      "duration": 0.0149,
      "velocity": 127,
      "chip": "ym2612"
    },
    {
      "channel": 0,
      "note": 71,
      "start": 17.677,
      "duration": 0.0274,
      "velocity": 127,
      "chip": "ym2612"
    },
    {
      "channel": 0,
      "note": 76,
      "start": 17.7408,
      "duration": 0.0212,
      "velocity": 127,
      "chip": "ym2612"
    },
    {
      "channel": 0,
      "note": 80,
      "start": 17.8004,
      "duration": 0.0083,
      "velocity": 127,
      "chip": "ym2612"
    },
    {
      "channel": 1,
      "note": 74,
      "start": 17.8005,
      "duration": 0.0629,
      "velocity": 72,
      "chip": "ym2612"
    },
    {
      "channel": 0,
      "note": 76,
      "start": 17.8135,
      "duration": 0.0193,
      "velocity": 127,
      "chip": "ym2612"
    },
    {
      "channel": 0,
      "note": 80,
      "start": 17.8526,
      "duration": 0.0105,
      "velocity": 127,
      "chip": "ym2612"
    },
    {
      "channel": 0,
      "note": 83,
      "start": 17.8746,
      "duration": 0.0121,
      "velocity": 127,
      "chip": "ym2612"
    },
    {
      "channel": 1,
      "note": 69,
      "start": 17.8747,
      "duration": 0.0122,
      "velocity": 72,
      "chip": "ym2612"
    },
    {
      "channel": 2,
      "note": 88,
      "start": 17.8749,
      "duration": 0.0181,
      "velocity": 127,
      "chip": "ym2612"
    },
    {
      "channel": 3,
      "note": 92,
      "start": 17.875,
      "duration": 0.0183,
      "velocity": 127,
      "chip": "ym2612"
    },
    {
      "channel": 0,
      "note": 81,
      "start": 17.8942,
      "duration": 0.0116,
      "velocity": 127,
      "chip": "ym2612"
    },
    {
      "channel": 1,
      "note": 71,
      "start": 17.8943,
      "duration": 0.0097,
      "velocity": 72,
      "chip": "ym2612"
    },
    {
      "channel": 0,
      "note": 80,
      "start": 17.9127,
      "duration": 0.0113,
      "velocity": 127,
      "chip": "ym2612"
    },
    {
      "channel": 1,
      "note": 73,
      "start": 17.9128,
      "duration": 0.0114,
      "velocity": 72,
      "chip": "ym2612"
    },
    {
      "channel": 0,
      "note": 81,
      "start": 17.9665,
      "duration": 0.3003,
      "velocity": 127,
      "chip": "ym2612"
    },
    {
      "channel": 1,
      "note": 74,
      "start": 17.9666,
      "duration": 0.102,
      "velocity": 72,
      "chip": "ym2612"
    },
    {
      "channel": 2,
      "note": 98,
      "start": 17.9667,
      "duration": 0.1021,
      "velocity": 127,
      "chip": "ym2612"
    },
    {
      "channel": 3,
      "note": 102,
      "start": 17.9669,
      "duration": 0.1022,
      "velocity": 127,
      "chip": "ym2612"
    },
    {
      "channel": 1,
      "note": 62,
      "start": 18.0922,
      "duration": 0.1201,
      "velocity": 72,
      "chip": "ym2612"
    },
    {
      "channel": 2,
      "note": 86,
      "start": 18.0923,
      "duration": 0.1034,
      "velocity": 127,
      "chip": "ym2612"
    },
    {
      "channel": 3,
      "note": 90,
      "start": 18.0925,
      "duration": 0.1202,
      "velocity": 127,
      "chip": "ym2612"
    },
    {
      "channel": 1,
      "note": 74,
      "start": 18.2363,
      "duration": 0.0888,
      "velocity": 72,
      "chip": "ym2612"
    },
    {
      "channel": 2,
      "note": 98,
      "start": 18.2363,
      "duration": 0.0088,
      "velocity": 127,
      "chip": "ym2612"
    },
    {
      "channel": 3,
      "note": 102,
      "start": 18.2364,
      "duration": 0.009,
      "velocity": 127,
      "chip": "ym2612"
    },
    {
      "channel": 2,
      "note": 98,
      "start": 18.2538,
      "duration": 0.0715,
      "velocity": 127,
      "chip": "ym2612"
    },
    {
      "channel": 3,
      "note": 102,
      "start": 18.254,
      "duration": 0.0716,
      "velocity": 127,
      "chip": "ym2612"
    },
    {
      "channel": 0,
      "note": 81,
      "start": 18.2861,
      "duration": 0.0388,
      "velocity": 127,
      "chip": "ym2612"
    },
    {
      "channel": 0,
      "note": 78,
      "start": 18.3465,
      "duration": 0.0646,
      "velocity": 127,
      "chip": "ym2612"
    },
    {
      "channel": 1,
      "note": 69,
      "start": 18.3466,
      "duration": 0.0141,
      "velocity": 72,
      "chip": "ym2612"
    },
    {
      "channel": 2,
      "note": 86,
      "start": 18.3525,
      "duration": 0.0916,
      "velocity": 127,
      "chip": "ym2612"
    },
    {
      "channel": 3,
      "note": 90,
      "start": 18.3526,
      "duration": 0.0917,
      "velocity": 127,
      "chip": "ym2612"
    },
    {
      "channel": 1,
      "note": 71,
      "start": 18.3654,
      "duration": 0.0459,
      "velocity": 72,
      "chip": "ym2612"
    },
    {
      "channel": 0,
      "note": 81,
      "start": 18.4329,
      "duration": 0.0107,
      "velocity": 127,
      "chip": "ym2612"
    },
    {
      "channel": 1,
      "note": 73,
      "start": 18.433,
      "duration": 0.0108,
      "velocity": 72,
      "chip": "ym2612"
    },
    {
      "channel": 0,
      "note": 83,
      "start": 18.4554,
      "duration": 0.3551,
      "velocity": 127,
      "chip": "ym2612"
    },
    {
      "channel": 1,
      "note": 74,
      "start": 18.4556,
      "duration": 0.0985,
      "velocity": 72,
      "chip": "ym2612"
    },
    {
      "channel": 2,
      "note": 100,
      "start": 18.4557,
      "duration": 0.0986,
      "velocity": 127,
      "chip": "ym2612"
    },
    {
      "channel": 3,
      "note": 104,
      "start": 18.4558,
      "duration": 0.0987,
      "velocity": 127,
      "chip": "ym2612"
    },
    {
      "channel": 1,
      "note": 62,
      "start": 18.5944,
      "duration": 0.1031,
      "velocity": 72,
      "chip": "ym2612"
    },
    {
      "channel": 2,
      "note": 88,
      "start": 18.5946,
      "duration": 0.0082,
      "velocity": 127,
      "chip": "ym2612"
    },
    {
      "channel": 3,
      "note": 92,
      "start": 18.5947,
      "duration": 0.0083,
      "velocity": 127,
      "chip": "ym2612"
    },
    {
      "channel": 2,
      "note": 100,
      "start": 18.6095,
      "duration": 0.0304,
      "velocity": 127,
      "chip": "ym2612"
    },
    {
      "channel": 3,
      "note": 104,
      "start": 18.6097,
      "duration": 0.0306,
      "velocity": 127,
      "chip": "ym2612"
    },
    {
      "channel": 2,
      "note": 100,
      "start": 18.6618,
      "duration": 0.036,
      "velocity": 127,
      "chip": "ym2612"
    },
    {
      "channel": 3,
      "note": 104,
      "start": 18.6619,
      "duration": 0.0361,
      "velocity": 127,
      "chip": "ym2612"
    },
    {
      "channel": 1,
      "note": 74,
      "start": 18.7213,
      "duration": 0.0895,
      "velocity": 72,
      "chip": "ym2612"
    },
    {
      "channel": 2,
      "note": 100,
      "start": 18.7214,
      "duration": 0.0105,
      "velocity": 127,
      "chip": "ym2612"
    },
    {
      "channel": 3,
      "note": 104,
      "start": 18.7215,
      "duration": 0.0107,
      "velocity": 127,
      "chip": "ym2612"
    },
    {
      "channel": 2,
      "note": 100,
      "start": 18.7386,
      "duration": 0.0725,
      "velocity": 127,
      "chip": "ym2612"
    },
    {
      "channel": 3,
      "note": 104,
      "start": 18.7387,
      "duration": 0.0727,
      "velocity": 127,
      "chip": "ym2612"
    },
    {
      "channel": 0,
      "note": 83,
      "start": 18.8529,
      "duration": 0.0087,
      "velocity": 127,
      "chip": "ym2612"
    },
    {
      "channel": 1,
      "note": 69,
      "start": 18.8531,
      "duration": 0.0088,
      "velocity": 72,
      "chip": "ym2612"
    },
    {
      "channel": 2,
      "note": 88,
      "start": 18.8532,
      "duration": 0.0761,
      "velocity": 127,
      "chip": "ym2612"
    },
    {
      "channel": 3,
      "note": 92,
      "start": 18.8533,
      "duration": 0.0763,
      "velocity": 127,
      "chip": "ym2612"
    },
    {
      "channel": 0,
      "note": 81,
      "start": 18.8705,
      "duration": 0.0257,
      "velocity": 127,
      "chip": "ym2612"
    },
    {
      "channel": 1,
      "note": 71,
      "start": 18.8706,
      "duration": 0.0258,
      "velocity": 72,
      "chip": "ym2612"
    },
    {
      "channel": 0,
      "note": 80,
      "start": 18.9181,
      "duration": 0.0107,
      "velocity": 127,
      "chip": "ym2612"
    },
    {
      "channel": 1,
      "note": 73,
      "start": 18.9182,
      "duration": 0.0108,
      "velocity": 72,
      "chip": "ym2612"
    },
    {
      "channel": 0,
      "note": 81,
      "start": 18.9405,
      "duration": 0.3735,
      "velocity": 127,
      "chip": "ym2612"
    },
    {
      "channel": 1,
      "note": 74,
      "start": 18.9407,
      "duration": 0.0974,
      "velocity": 72,
      "chip": "ym2612"
    },
    {
      "channel": 2,
      "note": 98,
      "start": 18.9408,
      "duration": 0.0976,
      "velocity": 127,
      "chip": "ym2612"
    },
    {
      "channel": 3,
      "note": 102,
      "start": 18.9408,
      "duration": 0.114,
      "velocity": 127,
      "chip": "ym2612"
    },
    {
      "channel": 1,
      "note": 62,
      "start": 19.0784,
      "duration": 0.1063,
      "velocity": 72,
      "chip": "ym2612"
    },
    {
      "channel": 2,
      "note": 86,
      "start": 19.0785,
      "duration": 0.1064,
      "velocity": 127,
      "chip": "ym2612"
    },
    {
      "channel": 3,
      "note": 90,
      "start": 19.0786,
      "duration": 0.1066,
      "velocity": 127,
      "chip": "ym2612"
    },
    {
      "channel": 1,
      "note": 74,
      "start": 19.2081,
      "duration": 0.1062,
      "velocity": 72,
      "chip": "ym2612"
    },
    {
      "channel": 2,
      "note": 98,
      "start": 19.2081,
      "duration": 0.0192,
      "velocity": 127,
      "chip": "ym2612"
    },
    {
      "channel": 3,
      "note": 102,
      "start": 19.2083,
      "duration": 0.0193,
      "velocity": 127,
      "chip": "ym2612"
    },
    {
      "channel": 2,
      "note": 98,
      "start": 19.2339,
      "duration": 0.0807,
      "velocity": 127,
      "chip": "ym2612"
    },
    {
      "channel": 3,
      "note": 102,
      "start": 19.2341,
      "duration": 0.0808,
      "velocity": 127,
      "chip": "ym2612"
    },
    {
      "channel": 0,
      "note": 81,
      "start": 19.34,
      "duration": 0.0109,
      "velocity": 127,
      "chip": "ym2612"
    },
    {
      "channel": 1,
      "note": 69,
      "start": 19.3401,
      "duration": 0.0088,
      "velocity": 72,
      "chip": "ym2612"
    },
    {
      "channel": 2,
      "note": 86,
      "start": 19.3403,
      "duration": 0.09,
      "velocity": 127,
      "chip": "ym2612"
    },
    {
      "channel": 3,
      "note": 90,
      "start": 19.3404,
      "duration": 0.0902,
      "velocity": 127,
      "chip": "ym2612"
    },
    {
      "channel": 0,
      "note": 80,
      "start": 19.3578,
      "duration": 0.0254,
      "velocity": 127,
      "chip": "ym2612"
    },
    {
      "channel": 1,
      "note": 71,
      "start": 19.3578,
      "duration": 0.0256,
      "velocity": 72,
      "chip": "ym2612"
    },
    {
      "channel": 0,
      "note": 78,
      "start": 19.4215,
      "duration": 0.0083,
      "velocity": 127,
      "chip": "ym2612"
    },
    {
      "channel": 1,
      "note": 73,
      "start": 19.4216,
      "duration": 0.0085,
      "velocity": 72,
      "chip": "ym2612"
    },
    {
      "channel": 0,
      "note": 80,
      "start": 19.4389,
      "duration": 0.0147,
      "velocity": 127,
      "chip": "ym2612"
    },
    {
      "channel": 2,
      "note": 100,
      "start": 19.439,
      "duration": 0.1105,
      "velocity": 127,
      "chip": "ym2612"
    },
    {
      "channel": 3,
      "note": 104,
      "start": 19.4392,
      "duration": 0.1107,
      "velocity": 127,
      "chip": "ym2612"
    },
    {
      "channel": 1,
      "note": 74,
      "start": 19.4434,
      "duration": 0.1059,
      "velocity": 72,
      "chip": "ym2612"
    },
    {
      "channel": 0,
      "note": 76,
      "start": 19.4581,
      "duration": 0.0334,
      "velocity": 127,
      "chip": "ym2612"
    },
    {
      "channel": 0,
      "note": 71,
      "start": 19.5114,
      "duration": 0.0376,
      "velocity": 127,
      "chip": "ym2612"
    },
    {
      "channel": 0,
      "note": 68,
      "start": 19.5749,
      "duration": 0.0107,
      "velocity": 127,
      "chip": "ym2612"
    },
    {
      "channel": 1,
      "note": 62,
      "start": 19.5751,
      "duration": 0.0923,
      "velocity": 72,
      "chip": "ym2612"
    },
    {
      "channel": 2,
      "note": 88,
      "start": 19.5752,
      "duration": 0.0108,
      "velocity": 127,
      "chip": "ym2612"
    },
    {
      "channel": 3,
      "note": 92,
      "start": 19.5753,
      "duration": 0.0109,
      "velocity": 127,
      "chip": "ym2612"
    },
    {
      "channel": 0,
      "note": 71,
      "start": 19.5947,
      "duration": 0.0238,
      "velocity": 127,
      "chip": "ym2612"
    },
    {
      "channel": 2,
      "note": 100,
      "start": 19.5948,
      "duration": 0.0404,
      "velocity": 127,
      "chip": "ym2612"
    },
    {
      "channel": 3,
      "note": 104,
      "start": 19.5949,
      "duration": 0.0405,
      "velocity": 127,
      "chip": "ym2612"
    },
    {
      "channel": 0,
      "note": 76,
      "start": 19.6588,
      "duration": 0.0083,
      "velocity": 127,
      "chip": "ym2612"
    },
    {
      "channel": 2,
      "note": 100,
      "start": 19.659,
      "duration": 0.0086,
      "velocity": 127,
      "chip": "ym2612"
    },
    {
      "channel": 3,
      "note": 104,
      "start": 19.6591,
      "duration": 0.0088,
      "velocity": 127,
      "chip": "ym2612"
    },
    {
      "channel": 0,
      "note": 80,
      "start": 19.6815,
      "duration": 0.0023,
      "velocity": 111,
      "chip": "ym2612"
    },
    {
      "channel": 1,
      "note": 74,
      "start": 19.6816,
      "duration": 0.0832,
      "velocity": 72,
      "chip": "ym2612"
    },
    {
      "channel": 2,
      "note": 100,
      "start": 19.6816,
      "duration": 0.0109,
      "velocity": 127,
      "chip": "ym2612"
    },
    {
      "channel": 3,
      "note": 104,
      "start": 19.6818,
      "duration": 0.011,
      "velocity": 127,
      "chip": "ym2612"
    },
    {
      "channel": 0,
      "note": 76,
      "start": 19.7032,
      "duration": 0.0167,
      "velocity": 111,
      "chip": "ym2612"
    },
    {
      "channel": 2,
      "note": 100,
      "start": 19.7034,
      "duration": 0.0169,
      "velocity": 127,
      "chip": "ym2612"
    },
    {
      "channel": 3,
      "note": 104,
      "start": 19.7035,
      "duration": 0.0171,
      "velocity": 127,
      "chip": "ym2612"
    },
    {
      "channel": 0,
      "note": 78,
      "start": 19.7435,
      "duration": 0.021,
      "velocity": 111,
      "chip": "ym2612"
    },
    {
      "channel": 2,
      "note": 100,
      "start": 19.7437,
      "duration": 0.0214,
      "velocity": 127,
      "chip": "ym2612"
    },
    {
      "channel": 3,
      "note": 104,
      "start": 19.7438,
      "duration": 0.0215,
      "velocity": 127,
      "chip": "ym2612"
    },
    {
      "channel": 0,
      "note": 80,
      "start": 19.7764,
      "duration": 0.0123,
      "velocity": 111,
      "chip": "ym2612"
    },
    {
      "channel": 1,
      "note": 69,
      "start": 19.7765,
      "duration": 0.0124,
      "velocity": 72,
      "chip": "ym2612"
    },
    {
      "channel": 2,
      "note": 100,
      "start": 19.7766,
      "duration": 0.0125,
      "velocity": 127,
      "chip": "ym2612"
    },
    {
      "channel": 3,
      "note": 104,
      "start": 19.7768,
      "duration": 0.0127,
      "velocity": 127,
      "chip": "ym2612"
    },
    {
      "channel": 0,
      "note": 81,
      "start": 19.8002,
      "duration": 0.012,
      "velocity": 111,
      "chip": "ym2612"
    },
    {
      "channel": 1,
      "note": 71,
      "start": 19.8003,
      "duration": 0.0122,
      "velocity": 72,
      "chip": "ym2612"
    },
    {
      "channel": 2,
      "note": 100,
      "start": 19.8004,
      "duration": 0.0123,
      "velocity": 127,
      "chip": "ym2612"
    },
    {
      "channel": 3,
      "note": 104,
      "start": 19.8005,
      "duration": 0.0124,
      "velocity": 127,
      "chip": "ym2612"
    },
    {
      "channel": 0,
      "note": 83,
      "start": 19.8242,
      "duration": 0.0099,
      "velocity": 111,
      "chip": "ym2612"
    },
    {
      "channel": 1,
      "note": 73,
      "start": 19.8243,
      "duration": 0.0117,
      "velocity": 72,
      "chip": "ym2612"
    },
    {
      "channel": 2,
      "note": 100,
      "start": 19.8244,
      "duration": 0.012,
      "velocity": 127,
      "chip": "ym2612"
    },
    {
      "channel": 3,
      "note": 104,
      "start": 19.8245,
      "duration": 0.0123,
      "velocity": 127,
      "chip": "ym2612"
    },
    {
      "channel": 0,
      "note": 85,
      "start": 19.8506,
      "duration": 0.3603,
      "velocity": 111,
      "chip": "ym2612"
    },
    {
      "channel": 1,
      "note": 66,
      "start": 19.8507,
      "duration": 0.2605,
      "velocity": 72,
      "chip": "ym2612"
    },
    {
      "channel": 2,
      "note": 78,
      "start": 19.8509,
      "duration": 0.1604,
      "velocity": 111,
      "chip": "ym2612"
    },
    {
      "channel": 3,
      "note": 82,
      "start": 19.851,
      "duration": 0.2437,
      "velocity": 111,
      "chip": "ym2612"
    },
    {
      "channel": 1,
      "note": 66,
      "start": 20.135,
      "duration": 0.0099,
      "velocity": 72,
      "chip": "ym2612"
    },
    {
      "channel": 2,
      "note": 78,
      "start": 20.135,
      "duration": 0.0101,
      "velocity": 111,
      "chip": "ym2612"
    },
    {
      "channel": 3,
      "note": 82,
      "start": 20.1352,
      "duration": 0.0103,
      "velocity": 111,
      "chip": "ym2612"
    },
    {
      "channel": 1,
      "note": 66,
      "start": 20.1542,
      "duration": 0.0126,
      "velocity": 72,
      "chip": "ym2612"
    },
    {
      "channel": 2,
      "note": 78,
      "start": 20.1543,
      "duration": 0.0127,
      "velocity": 111,
      "chip": "ym2612"
    },
    {
      "channel": 3,
      "note": 82,
      "start": 20.1544,
      "duration": 0.0129,
      "velocity": 111,
      "chip": "ym2612"
    },
    {
      "channel": 1,
      "note": 66,
      "start": 20.1769,
      "duration": 0.0128,
      "velocity": 72,
      "chip": "ym2612"
    },
    {
      "channel": 2,
      "note": 78,
      "start": 20.1769,
      "duration": 0.013,
      "velocity": 111,
      "chip": "ym2612"
    },
    {
      "channel": 3,
      "note": 82,
      "start": 20.1771,
      "duration": 0.0131,
      "velocity": 111,
      "chip": "ym2612"
    },
    {
      "channel": 1,
      "note": 66,
      "start": 20.2,
      "duration": 0.0112,
      "velocity": 72,
      "chip": "ym2612"
    },
    {
      "channel": 2,
      "note": 78,
      "start": 20.2002,
      "duration": 0.0131,
      "velocity": 111,
      "chip": "ym2612"
    },
    {
      "channel": 3,
      "note": 82,
      "start": 20.2002,
      "duration": 0.0133,
      "velocity": 111,
      "chip": "ym2612"
    },
    {
      "channel": 0,
      "note": 82,
      "start": 20.2245,
      "duration": 0.0102,
      "velocity": 111,
      "chip": "ym2612"
    },
    {
      "channel": 1,
      "note": 66,
      "start": 20.2246,
      "duration": 0.0103,
      "velocity": 72,
      "chip": "ym2612"
    },
    {
      "channel": 2,
      "note": 78,
      "start": 20.2246,
      "duration": 0.0105,
      "velocity": 111,
      "chip": "ym2612"
    },
    {
      "channel": 3,
      "note": 82,
      "start": 20.2248,
      "duration": 0.0106,
      "velocity": 111,
      "chip": "ym2612"
    },
    {
      "channel": 0,
      "note": 78,
      "start": 20.2402,
      "duration": 0.0405,
      "velocity": 111,
      "chip": "ym2612"
    },
    {
      "channel": 1,
      "note": 66,
      "start": 20.249,
      "duration": 0.0104,
      "velocity": 72,
      "chip": "ym2612"
    },
    {
      "channel": 2,
      "note": 78,
      "start": 20.2491,
      "duration": 0.0105,
      "velocity": 111,
      "chip": "ym2612"
    },
    {
      "channel": 3,
      "note": 82,
      "start": 20.2492,
      "duration": 0.0107,
      "velocity": 111,
      "chip": "ym2612"
    },
    {
      "channel": 1,
      "note": 66,
      "start": 20.2682,
      "duration": 0.0128,
      "velocity": 72,
      "chip": "ym2612"
    },
    {
      "channel": 2,
      "note": 78,
      "start": 20.2683,
      "duration": 0.013,
      "velocity": 111,
      "chip": "ym2612"
    },
    {
      "channel": 3,
      "note": 82,
      "start": 20.2684,
      "duration": 0.0131,
      "velocity": 111,
      "chip": "ym2612"
    },
    {
      "channel": 0,
      "note": 73,
      "start": 20.2926,
      "duration": 0.0133,
      "velocity": 111,
      "chip": "ym2612"
    },
    {
      "channel": 1,
      "note": 66,
      "start": 20.2927,
      "duration": 0.0134,
      "velocity": 72,
      "chip": "ym2612"
    },
    {
      "channel": 2,
      "note": 78,
      "start": 20.2929,
      "duration": 0.0135,
      "velocity": 111,
      "chip": "ym2612"
    },
    {
      "channel": 3,
      "note": 82,
      "start": 20.293,
      "duration": 0.0136,
      "velocity": 111,
      "chip": "ym2612"
    },
    {
      "channel": 0,
      "note": 75,
      "start": 20.3177,
      "duration": 0.381,
      "velocity": 111,
      "chip": "ym2612"
    },
    {
      "channel": 1,
      "note": 66,
      "start": 20.3178,
      "duration": 0.2629,
      "velocity": 72,
      "chip": "ym2612"
    },
    {
      "channel": 2,
      "note": 80,
      "start": 20.318,
      "duration": 0.263,
      "velocity": 111,
      "chip": "ym2612"
    },
    {
      "channel": 3,
      "note": 84,
      "start": 20.3181,
      "duration": 0.2631,
      "velocity": 111,
      "chip": "ym2612"
    },
    {
      "channel": 1,
      "note": 66,
      "start": 20.6212,
      "duration": 0.0089,
      "velocity": 72,
      "chip": "ym2612"
    },
    {
      "channel": 2,
      "note": 80,
      "start": 20.6213,
      "duration": 0.009,
      "velocity": 111,
      "chip": "ym2612"
    },
    {
      "channel": 3,
      "note": 84,
      "start": 20.6214,
      "duration": 0.0092,
      "velocity": 111,
      "chip": "ym2612"
    },
    {
      "channel": 1,
      "note": 66,
      "start": 20.6392,
      "duration": 0.0136,
      "velocity": 72,
      "chip": "ym2612"
    },
    {
      "channel": 2,
      "note": 80,
      "start": 20.6394,
      "duration": 0.0138,
      "velocity": 111,
      "chip": "ym2612"
    },
    {
      "channel": 3,
      "note": 84,
      "start": 20.6395,
      "duration": 0.0139,
      "velocity": 111,
      "chip": "ym2612"
    },
    {
      "channel": 1,
      "note": 66,
      "start": 20.6625,
      "duration": 0.0142,
      "velocity": 72,
      "chip": "ym2612"
    },
    {
      "channel": 2,
      "note": 80,
      "start": 20.6626,
      "duration": 0.0144,
      "velocity": 111,
      "chip": "ym2612"
    },
    {
      "channel": 3,
      "note": 84,
      "start": 20.6627,
      "duration": 0.0146,
      "velocity": 111,
      "chip": "ym2612"
    },
    {
      "channel": 1,
      "note": 66,
      "start": 20.6865,
      "duration": 0.0125,
      "velocity": 72,
      "chip": "ym2612"
    },
    {
      "channel": 2,
      "note": 80,
      "start": 20.6866,
      "duration": 0.0126,
      "velocity": 111,
      "chip": "ym2612"
    },
    {
      "channel": 3,
      "note": 84,
      "start": 20.6866,
      "duration": 0.0129,
      "velocity": 111,
      "chip": "ym2612"
    },
    {
      "channel": 0,
      "note": 75,
      "start": 20.7107,
      "duration": 0.0104,
      "velocity": 111,
      "chip": "ym2612"
    },
    {
      "channel": 1,
      "note": 66,
      "start": 20.7108,
      "duration": 0.0106,
      "velocity": 72,
      "chip": "ym2612"
    },
    {
      "channel": 2,
      "note": 80,
      "start": 20.7109,
      "duration": 0.0123,
      "velocity": 111,
      "chip": "ym2612"
    },
    {
      "channel": 3,
      "note": 84,
      "start": 20.711,
      "duration": 0.0125,
      "velocity": 111,
      "chip": "ym2612"
    },
    {
      "channel": 0,
      "note": 75,
      "start": 20.7348,
      "duration": 0.0105,
      "velocity": 111,
      "chip": "ym2612"
    },
    {
      "channel": 1,
      "note": 66,
      "start": 20.7349,
      "duration": 0.0106,
      "velocity": 72,
      "chip": "ym2612"
    },
    {
      "channel": 2,
      "note": 80,
      "start": 20.735,
      "duration": 0.0107,
      "velocity": 111,
      "chip": "ym2612"
    },
    {
      "channel": 3,
      "note": 84,
      "start": 20.7351,
      "duration": 0.0109,
      "velocity": 111,
      "chip": "ym2612"
    },
    {
      "channel": 0,
      "note": 73,
      "start": 20.7593,
      "duration": 0.0112,
      "velocity": 111,
      "chip": "ym2612"
    },
    {
      "channel": 1,
      "note": 66,
      "start": 20.7594,
      "duration": 0.0114,
      "velocity": 72,
      "chip": "ym2612"
    },
    {
      "channel": 2,
      "note": 80,
      "start": 20.7595,
      "duration": 0.0115,
      "velocity": 111,
      "chip": "ym2612"
    },
    {
      "channel": 3,
      "note": 84,
      "start": 20.7597,
      "duration": 0.0117,
      "velocity": 111,
      "chip": "ym2612"
    },
    {
      "channel": 0,
      "note": 72,
      "start": 20.7848,
      "duration": 0.0138,
      "velocity": 111,
      "chip": "ym2612"
    },
    {
      "channel": 1,
      "note": 66,
      "start": 20.7849,
      "duration": 0.0108,
      "velocity": 72,
      "chip": "ym2612"
    },
    {
      "channel": 2,
      "note": 80,
      "start": 20.785,
      "duration": 0.011,
      "velocity": 111,
      "chip": "ym2612"
    },
    {
      "channel": 3,
      "note": 84,
      "start": 20.7852,
      "duration": 0.0112,
      "velocity": 111,
      "chip": "ym2612"
    },
    {
      "channel": 1,
      "note": 66,
      "start": 20.8055,
      "duration": 0.1542,
      "velocity": 72,
      "chip": "ym2612"
    },
    {
      "channel": 2,
      "note": 78,
      "start": 20.8056,
      "duration": 0.1544,
      "velocity": 111,
      "chip": "ym2612"
    },
    {
      "channel": 3,
      "note": 82,
      "start": 20.8057,
      "duration": 0.1545,
      "velocity": 111,
      "chip": "ym2612"
    },
    {
      "channel": 0,
      "note": 70,
      "start": 20.8099,
      "duration": 0.1496,
      "velocity": 111,
      "chip": "ym2612"
    },
    {
      "channel": 0,
      "note": 73,
      "start": 20.9855,
      "duration": 0.1451,
      "velocity": 111,
      "chip": "ym2612"
    },
    {
      "channel": 1,
      "note": 61,
      "start": 20.9856,
      "duration": 0.1452,
      "velocity": 72,
      "chip": "ym2612"
    },
    {
      "channel": 2,
      "note": 78,
      "start": 20.9858,
      "duration": 0.1453,
      "velocity": 111,
      "chip": "ym2612"
    },
    {
      "channel": 3,
      "note": 82,
      "start": 20.9859,
      "duration": 0.1455,
      "velocity": 111,
      "chip": "ym2612"
    },
    {
      "channel": 0,
      "note": 78,
      "start": 21.1498,
      "duration": 0.1682,
      "velocity": 111,
      "chip": "ym2612"
    },
    {
      "channel": 1,
      "note": 66,
      "start": 21.171,
      "duration": 0.1473,
      "velocity": 72,
      "chip": "ym2612"
    },
    {
      "channel": 2,
      "note": 78,
      "start": 21.1711,
      "duration": 0.1474,
      "velocity": 111,
      "chip": "ym2612"
    },
    {
      "channel": 3,
      "note": 82,
      "start": 21.1712,
      "duration": 0.1476,
      "velocity": 111,
      "chip": "ym2612"
    },
    {
      "channel": 0,
      "note": 82,
      "start": 21.3439,
      "duration": 0.0487,
      "velocity": 111,
      "chip": "ym2612"
    },
    {
      "channel": 1,
      "note": 61,
      "start": 21.344,
      "duration": 0.0488,
      "velocity": 72,
      "chip": "ym2612"
    },
    {
      "channel": 2,
      "note": 78,
      "start": 21.3442,
      "duration": 0.0106,
      "velocity": 111,
      "chip": "ym2612"
    },
    {
      "channel": 3,
      "note": 82,
      "start": 21.3443,
      "duration": 0.0107,
      "velocity": 111,
      "chip": "ym2612"
    },
    {
      "channel": 2,
      "note": 77,
      "start": 21.3621,
      "duration": 0.011,
      "velocity": 111,
      "chip": "ym2612"
    },
    {
      "channel": 3,
      "note": 81,
      "start": 21.3622,
      "duration": 0.013,
      "velocity": 111,
      "chip": "ym2612"
    },
    {
      "channel": 2,
      "note": 78,
      "start": 21.3824,
      "duration": 0.0124,
      "velocity": 111,
      "chip": "ym2612"
    },
    {
      "channel": 3,
      "note": 82,
      "start": 21.3825,
      "duration": 0.0125,
      "velocity": 111,
      "chip": "ym2612"
    },
    {
      "channel": 0,
      "note": 84,
      "start": 21.4062,
      "duration": 0.1421,
      "velocity": 111,
      "chip": "ym2612"
    },
    {
      "channel": 1,
      "note": 66,
      "start": 21.4063,
      "duration": 0.1422,
      "velocity": 72,
      "chip": "ym2612"
    },
    {
      "channel": 2,
      "note": 80,
      "start": 21.4065,
      "duration": 0.1423,
      "velocity": 111,
      "chip": "ym2612"
    },
    {
      "channel": 3,
      "note": 84,
      "start": 21.4066,
      "duration": 0.1425,
      "velocity": 111,
      "chip": "ym2612"
    },
    {
      "channel": 0,
      "note": 80,
      "start": 21.5742,
      "duration": 0.1449,
      "velocity": 111,
      "chip": "ym2612"
    },
    {
      "channel": 1,
      "note": 61,
      "start": 21.5743,
      "duration": 0.1451,
      "velocity": 72,
      "chip": "ym2612"
    },
    {
      "channel": 2,
      "note": 80,
      "start": 21.5745,
      "duration": 0.1616,
      "velocity": 111,
      "chip": "ym2612"
    },
    {
      "channel": 3,
      "note": 84,
      "start": 21.5746,
      "duration": 0.1617,
      "velocity": 111,
      "chip": "ym2612"
    },
    {
      "channel": 0,
      "note": 84,
      "start": 21.7617,
      "duration": 0.0085,
      "velocity": 111,
      "chip": "ym2612"
    },
    {
      "channel": 1,
      "note": 66,
      "start": 21.7618,
      "duration": 0.045,
      "velocity": 72,
      "chip": "ym2612"
    },
    {
      "channel": 2,
      "note": 80,
      "start": 21.7619,
      "duration": 0.0451,
      "velocity": 111,
      "chip": "ym2612"
    },
    {
      "channel": 3,
      "note": 84,
      "start": 21.762,
      "duration": 0.0453,
      "velocity": 111,
      "chip": "ym2612"
    },
    {
      "channel": 0,
      "note": 80,
      "start": 21.7772,
      "duration": 0.011,
      "velocity": 111,
      "chip": "ym2612"
    },
    {
      "channel": 0,
      "note": 82,
      "start": 21.793,
      "duration": 0.0135,
      "velocity": 111,
      "chip": "ym2612"
    },
    {
      "channel": 0,
      "note": 84,
      "start": 21.818,
      "duration": 0.0133,
      "velocity": 111,
      "chip": "ym2612"
    },
    {
      "channel": 1,
      "note": 61,
      "start": 21.8181,
      "duration": 0.0477,
      "velocity": 72,
      "chip": "ym2612"
    },
    {
      "channel": 2,
      "note": 80,
      "start": 21.8182,
      "duration": 0.0478,
      "velocity": 111,
      "chip": "ym2612"
    },
    {
      "channel": 3,
      "note": 84,
      "start": 21.8183,
      "duration": 0.048,
      "velocity": 111,
      "chip": "ym2612"
    },
    {
      "channel": 0,
      "note": 85,
      "start": 21.8361,
      "duration": 0.0122,
      "velocity": 111,
      "chip": "ym2612"
    },
    {
      "channel": 0,
      "note": 87,
      "start": 21.8537,
      "duration": 0.0118,
      "velocity": 111,
      "chip": "ym2612"
    },
    {
      "channel": 0,
      "note": 85,
      "start": 21.8776,
      "duration": 0.3712,
      "velocity": 111,
      "chip": "ym2612"
    },
    {
      "channel": 1,
      "note": 66,
      "start": 21.8777,
      "duration": 0.2622,
      "velocity": 72,
      "chip": "ym2612"
    },
    {
      "channel": 2,
      "note": 78,
      "start": 21.8779,
      "duration": 0.2623,
      "velocity": 111,
      "chip": "ym2612"
    },
    {
      "channel": 3,
      "note": 82,
      "start": 21.878,
      "duration": 0.2624,
      "velocity": 111,
      "chip": "ym2612"
    },
    {
      "channel": 1,
      "note": 66,
      "start": 22.1633,
      "duration": 0.0192,
      "velocity": 72,
      "chip": "ym2612"
    },
    {
      "channel": 2,
      "note": 78,
      "start": 22.1633,
      "duration": 0.0194,
      "velocity": 111,
      "chip": "ym2612"
    },
    {
      "channel": 3,
      "note": 82,
      "start": 22.1635,
      "duration": 0.0195,
      "velocity": 111,
      "chip": "ym2612"
    },
    {
      "channel": 1,
      "note": 66,
      "start": 22.1917,
      "duration": 0.0125,
      "velocity": 72,
      "chip": "ym2612"
    },
    {
      "channel": 2,
      "note": 78,
      "start": 22.1919,
      "duration": 0.0127,
      "velocity": 111,
      "chip": "ym2612"
    },
    {
      "channel": 3,
      "note": 82,
      "start": 22.192,
      "duration": 0.0129,
      "velocity": 111,
      "chip": "ym2612"
    },
    {
      "channel": 1,
      "note": 66,
      "start": 22.2149,
      "duration": 0.0133,
      "velocity": 72,
      "chip": "ym2612"
    },
    {
      "channel": 2,
      "note": 78,
      "start": 22.2151,
      "duration": 0.0134,
      "velocity": 111,
      "chip": "ym2612"
    },
    {
      "channel": 3,
      "note": 82,
      "start": 22.2152,
      "duration": 0.0136,
      "velocity": 111,
      "chip": "ym2612"
    },
    {
      "channel": 1,
      "note": 66,
      "start": 22.2378,
      "duration": 0.0137,
      "velocity": 72,
      "chip": "ym2612"
    },
    {
      "channel": 2,
      "note": 78,
      "start": 22.238,
      "duration": 0.0138,
      "velocity": 111,
      "chip": "ym2612"
    },
    {
      "channel": 3,
      "note": 82,
      "start": 22.238,
      "duration": 0.0139,
      "velocity": 111,
      "chip": "ym2612"
    },
    {
      "channel": 0,
      "note": 82,
      "start": 22.2633,
      "duration": 0.0127,
      "velocity": 111,
      "chip": "ym2612"
    },
    {
      "channel": 1,
      "note": 66,
      "start": 22.2634,
      "duration": 0.0104,
      "velocity": 72,
      "chip": "ym2612"
    },
    {
      "channel": 2,
      "note": 78,
      "start": 22.2636,
      "duration": 0.0105,
      "velocity": 111,
      "chip": "ym2612"
    },
    {
      "channel": 3,
      "note": 82,
      "start": 22.2637,
      "duration": 0.0107,
      "velocity": 111,
      "chip": "ym2612"
    },
    {
      "channel": 0,
      "note": 78,
      "start": 22.2875,
      "duration": 0.0321,
      "velocity": 111,
      "chip": "ym2612"
    },
    {
      "channel": 1,
      "note": 66,
      "start": 22.2876,
      "duration": 0.0103,
      "velocity": 72,
      "chip": "ym2612"
    },
    {
      "channel": 2,
      "note": 78,
      "start": 22.2878,
      "duration": 0.0105,
      "velocity": 111,
      "chip": "ym2612"
    },
    {
      "channel": 3,
      "note": 82,
      "start": 22.2878,
      "duration": 0.0107,
      "velocity": 111,
      "chip": "ym2612"
    },
    {
      "channel": 1,
      "note": 66,
      "start": 22.3094,
      "duration": 0.0106,
      "velocity": 72,
      "chip": "ym2612"
    },
    {
      "channel": 2,
      "note": 78,
      "start": 22.3094,
      "duration": 0.0108,
      "velocity": 111,
      "chip": "ym2612"
    },
    {
      "channel": 3,
      "note": 82,
      "start": 22.3095,
      "duration": 0.0109,
      "velocity": 111,
      "chip": "ym2612"
    },
    {
      "channel": 0,
      "note": 73,
      "start": 22.327,
      "duration": 0.0183,
      "velocity": 111,
      "chip": "ym2612"
    },
    {
      "channel": 1,
      "note": 66,
      "start": 22.3271,
      "duration": 0.0184,
      "velocity": 72,
      "chip": "ym2612"
    },
    {
      "channel": 2,
      "note": 78,
      "start": 22.3336,
      "duration": 0.0122,
      "velocity": 111,
      "chip": "ym2612"
    },
    {
      "channel": 3,
      "note": 82,
      "start": 22.3337,
      "duration": 0.0123,
      "velocity": 111,
      "chip": "ym2612"
    },
    {
      "channel": 0,
      "note": 75,
      "start": 22.3576,
      "duration": 0.3812,
      "velocity": 111,
      "chip": "ym2612"
    },
    {
      "channel": 1,
      "note": 66,
      "start": 22.3578,
      "duration": 0.262,
      "velocity": 72,
      "chip": "ym2612"
    },
    {
      "channel": 2,
      "note": 80,
      "start": 22.3579,
      "duration": 0.2622,
      "velocity": 111,
      "chip": "ym2612"
    },
    {
      "channel": 3,
      "note": 84,
      "start": 22.358,
      "duration": 0.2623,
      "velocity": 111,
      "chip": "ym2612"
    },
    {
      "channel": 1,
      "note": 66,
      "start": 22.6602,
      "duration": 0.0089,
      "velocity": 72,
      "chip": "ym2612"
    },
    {
      "channel": 2,
      "note": 80,
      "start": 22.6604,
      "duration": 0.009,
      "velocity": 111,
      "chip": "ym2612"
    },
    {
      "channel": 3,
      "note": 84,
      "start": 22.6605,
      "duration": 0.0092,
      "velocity": 111,
      "chip": "ym2612"
    },
    {
      "channel": 1,
      "note": 66,
      "start": 22.6806,
      "duration": 0.011,
      "velocity": 72,
      "chip": "ym2612"
    },
    {
      "channel": 2,
      "note": 80,
      "start": 22.6807,
      "duration": 0.0111,
      "velocity": 111,
      "chip": "ym2612"
    },
    {
      "channel": 3,
      "note": 84,
      "start": 22.6808,
      "duration": 0.0113,
      "velocity": 111,
      "chip": "ym2612"
    },
    {
      "channel": 1,
      "note": 66,
      "start": 22.6988,
      "duration": 0.016,
      "velocity": 72,
      "chip": "ym2612"
    },
    {
      "channel": 2,
      "note": 80,
      "start": 22.6989,
      "duration": 0.0161,
      "velocity": 111,
      "chip": "ym2612"
    },
    {
      "channel": 3,
      "note": 84,
      "start": 22.7032,
      "duration": 0.0121,
      "velocity": 111,
      "chip": "ym2612"
    },
    {
      "channel": 1,
      "note": 66,
      "start": 22.7246,
      "duration": 0.0146,
      "velocity": 72,
      "chip": "ym2612"
    },
    {
      "channel": 2,
      "note": 80,
      "start": 22.7247,
      "duration": 0.0147,
      "velocity": 111,
      "chip": "ym2612"
    },
    {
      "channel": 3,
      "note": 84,
      "start": 22.7249,
      "duration": 0.0148,
      "velocity": 111,
      "chip": "ym2612"
    },
    {
      "channel": 0,
      "note": 75,
      "start": 22.7508,
      "duration": 0.012,
      "velocity": 111,
      "chip": "ym2612"
    },
    {
      "channel": 1,
      "note": 66,
      "start": 22.7509,
      "duration": 0.0121,
      "velocity": 72,
      "chip": "ym2612"
    },
    {
      "channel": 2,
      "note": 80,
      "start": 22.7511,
      "duration": 0.0122,
      "velocity": 111,
      "chip": "ym2612"
    },
    {
      "channel": 3,
      "note": 84,
      "start": 22.7512,
      "duration": 0.0124,
      "velocity": 111,
      "chip": "ym2612"
    },
    {
      "channel": 0,
      "note": 75,
      "start": 22.7748,
      "duration": 0.0129,
      "velocity": 111,
      "chip": "ym2612"
    },
    {
      "channel": 1,
      "note": 66,
      "start": 22.775,
      "duration": 0.013,
      "velocity": 72,
      "chip": "ym2612"
    },
    {
      "channel": 2,
      "note": 80,
      "start": 22.7751,
      "duration": 0.0107,
      "velocity": 111,
      "chip": "ym2612"
    },
    {
      "channel": 3,
      "note": 84,
      "start": 22.7751,
      "duration": 0.0132,
      "velocity": 111,
      "chip": "ym2612"
    },
    {
      "channel": 0,
      "note": 73,
      "start": 22.7998,
      "duration": 0.0114,
      "velocity": 111,
      "chip": "ym2612"
    },
    {
      "channel": 1,
      "note": 66,
      "start": 22.8,
      "duration": 0.0142,
      "velocity": 72,
      "chip": "ym2612"
    },
    {
      "channel": 2,
      "note": 80,
      "start": 22.8001,
      "duration": 0.0115,
      "velocity": 111,
      "chip": "ym2612"
    },
    {
      "channel": 3,
      "note": 84,
      "start": 22.8002,
      "duration": 0.0143,
      "velocity": 111,
      "chip": "ym2612"
    },
    {
      "channel": 0,
      "note": 72,
      "start": 22.8256,
      "duration": 0.0109,
      "velocity": 111,
      "chip": "ym2612"
    },
    {
      "channel": 1,
      "note": 66,
      "start": 22.8257,
      "duration": 0.0111,
      "velocity": 72,
      "chip": "ym2612"
    },
    {
      "channel": 2,
      "note": 80,
      "start": 22.8259,
      "duration": 0.0112,
      "velocity": 111,
      "chip": "ym2612"
    },
    {
      "channel": 3,
      "note": 84,
      "start": 22.826,
      "duration": 0.0114,
      "velocity": 111,
      "chip": "ym2612"
    },
    {
      "channel": 0,
      "note": 70,
      "start": 22.8511,
      "duration": 0.1424,
      "velocity": 111,
      "chip": "ym2612"
    },
    {
      "channel": 1,
      "note": 66,
      "start": 22.8512,
      "duration": 0.1425,
      "velocity": 72,
      "chip": "ym2612"
    },
    {
      "channel": 2,
      "note": 78,
      "start": 22.8513,
      "duration": 0.1427,
      "velocity": 111,
      "chip": "ym2612"
    },
    {
      "channel": 3,
      "note": 82,
      "start": 22.8515,
      "duration": 0.1428,
      "velocity": 111,
      "chip": "ym2612"
    },
    {
      "channel": 0,
      "note": 73,
      "start": 23.0195,
      "duration": 0.1449,
      "velocity": 111,
      "chip": "ym2612"
    },
    {
      "channel": 1,
      "note": 61,
      "start": 23.0196,
      "duration": 0.145,
      "velocity": 72,
      "chip": "ym2612"
    },
    {
      "channel": 2,
      "note": 78,
      "start": 23.0198,
      "duration": 0.1451,
      "velocity": 111,
      "chip": "ym2612"
    },
    {
      "channel": 3,
      "note": 82,
      "start": 23.0198,
      "duration": 0.1615,
      "velocity": 111,
      "chip": "ym2612"
    },
    {
      "channel": 0,
      "note": 78,
      "start": 23.2069,
      "duration": 0.1453,
      "velocity": 111,
      "chip": "ym2612"
    },
    {
      "channel": 1,
      "note": 66,
      "start": 23.207,
      "duration": 0.1454,
      "velocity": 72,
      "chip": "ym2612"
    },
    {
      "channel": 2,
      "note": 78,
      "start": 23.2071,
      "duration": 0.1456,
      "velocity": 111,
      "chip": "ym2612"
    },
    {
      "channel": 3,
      "note": 82,
      "start": 23.2072,
      "duration": 0.1457,
      "velocity": 111,
      "chip": "ym2612"
    },
    {
      "channel": 0,
      "note": 82,
      "start": 23.378,
      "duration": 0.0506,
      "velocity": 111,
      "chip": "ym2612"
    },
    {
      "channel": 1,
      "note": 61,
      "start": 23.3782,
      "duration": 0.0485,
      "velocity": 72,
      "chip": "ym2612"
    },
    {
      "channel": 2,
      "note": 78,
      "start": 23.3783,
      "duration": 0.0105,
      "velocity": 111,
      "chip": "ym2612"
    },
    {
      "channel": 3,
      "note": 82,
      "start": 23.3784,
      "duration": 0.0107,
      "velocity": 111,
      "chip": "ym2612"
    },
    {
      "channel": 2,
      "note": 77,
      "start": 23.3961,
      "duration": 0.0129,
      "velocity": 111,
      "chip": "ym2612"
    },
    {
      "channel": 3,
      "note": 81,
      "start": 23.3963,
      "duration": 0.013,
      "velocity": 111,
      "chip": "ym2612"
    },
    {
      "channel": 2,
      "note": 78,
      "start": 23.4165,
      "duration": 0.0125,
      "velocity": 111,
      "chip": "ym2612"
    },
    {
      "channel": 3,
      "note": 82,
      "start": 23.4166,
      "duration": 0.0126,
      "velocity": 111,
      "chip": "ym2612"
    },
    {
      "channel": 0,
      "note": 72,
      "start": 23.4419,
      "duration": 0.1575,
      "velocity": 108,
      "chip": "ym2612"
    },
    {
      "channel": 1,
      "note": 66,
      "start": 23.442,
      "duration": 0.1577,
      "velocity": 72,
      "chip": "ym2612"
    },
    {
      "channel": 2,
      "note": 80,
      "start": 23.4421,
      "duration": 0.1578,
      "velocity": 111,
      "chip": "ym2612"
    },
    {
      "channel": 3,
      "note": 84,
      "start": 23.4423,
      "duration": 0.1579,
      "velocity": 111,
      "chip": "ym2612"
    },
    {
      "channel": 0,
      "note": 68,
      "start": 23.6229,
      "duration": 0.164,
      "velocity": 108,
      "chip": "ym2612"
    },
    {
      "channel": 1,
      "note": 61,
      "start": 23.623,
      "duration": 0.1641,
      "velocity": 72,
      "chip": "ym2612"
    },
    {
      "channel": 2,
      "note": 80,
      "start": 23.6231,
      "duration": 0.0215,
      "velocity": 111,
      "chip": "ym2612"
    },
    {
      "channel": 3,
      "note": 84,
      "start": 23.6359,
      "duration": 0.009,
      "velocity": 111,
      "chip": "ym2612"
    },
    {
      "channel": 2,
      "note": 81,
      "start": 23.6514,
      "duration": 0.019,
      "velocity": 111,
      "chip": "ym2612"
    },
    {
      "channel": 3,
      "note": 85,
      "start": 23.6515,
      "duration": 0.0191,
      "velocity": 111,
      "chip": "ym2612"
    },
    {
      "channel": 2,
      "note": 80,
      "start": 23.6917,
      "duration": 0.0957,
      "velocity": 111,
      "chip": "ym2612"
    },
    {
      "channel": 3,
      "note": 84,
      "start": 23.6918,
      "duration": 0.0959,
      "velocity": 111,
      "chip": "ym2612"
    },
    {
      "channel": 0,
      "note": 72,
      "start": 23.8127,
      "duration": 0.0491,
      "velocity": 108,
      "chip": "ym2612"
    },
    {
      "channel": 1,
      "note": 66,
      "start": 23.8128,
      "duration": 0.0493,
      "velocity": 72,
      "chip": "ym2612"
    },
    {
      "channel": 2,
      "note": 81,
      "start": 23.8129,
      "duration": 0.01,
      "velocity": 111,
      "chip": "ym2612"
    },
    {
      "channel": 3,
      "note": 85,
      "start": 23.8131,
      "duration": 0.0102,
      "velocity": 111,
      "chip": "ym2612"
    },
    {
      "channel": 2,
      "note": 80,
      "start": 23.8303,
      "duration": 0.0112,
      "velocity": 111,
      "chip": "ym2612"
    },
    {
      "channel": 3,
      "note": 84,
      "start": 23.8304,
      "duration": 0.0114,
      "velocity": 111,
      "chip": "ym2612"
    },
    {
      "channel": 2,
      "note": 81,
      "start": 23.8511,
      "duration": 0.0113,
      "velocity": 111,
      "chip": "ym2612"
    },
    {
      "channel": 3,
      "note": 85,
      "start": 23.8512,
      "duration": 0.0115,
      "velocity": 111,
      "chip": "ym2612"
    },
    {
      "channel": 2,
      "note": 80,
      "start": 23.8693,
      "duration": 0.0176,
      "velocity": 111,
      "chip": "ym2612"
    },
    {
      "channel": 3,
      "note": 84,
      "start": 23.8694,
      "duration": 0.0177,
      "velocity": 111,
      "chip": "ym2612"
    },
    {
      "channel": 0,
      "note": 75,
      "start": 23.8757,
      "duration": 0.0502,
      "velocity": 108,
      "chip": "ym2612"
    },
    {
      "channel": 1,
      "note": 61,
      "start": 23.8758,
      "duration": 0.0503,
      "velocity": 72,
      "chip": "ym2612"
    },
    {
      "channel": 2,
      "note": 81,
      "start": 23.8937,
      "duration": 0.013,
      "velocity": 111,
      "chip": "ym2612"
    },
    {
      "channel": 3,
      "note": 85,
      "start": 23.8938,
      "duration": 0.0132,
      "velocity": 111,
      "chip": "ym2612"
    },
    {
      "channel": 2,
      "note": 80,
      "start": 23.9137,
      "duration": 0.0129,
      "velocity": 111,
      "chip": "ym2612"
    },
    {
      "channel": 3,
      "note": 84,
      "start": 23.9138,
      "duration": 0.0131,
      "velocity": 111,
      "chip": "ym2612"
    },
    {
      "channel": 0,
      "note": 77,
      "start": 23.9412,
      "duration": 0.3115,
      "velocity": 108,
      "chip": "ym2612"
    },
    {
      "channel": 1,
      "note": 65,
      "start": 23.9413,
      "duration": 0.0961,
      "velocity": 72,
      "chip": "ym2612"
    },
    {
      "channel": 2,
      "note": 82,
      "start": 23.9415,
      "duration": 0.0552,
      "velocity": 94,
      "chip": "ym2612"
    },
    {
      "channel": 3,
      "note": 86,
      "start": 23.9415,
      "duration": 0.0554,
      "velocity": 94,
      "chip": "ym2612"
    },
    {
      "channel": 2,
      "note": 82,
      "start": 24.0185,
      "duration": 0.149,
      "velocity": 94,
      "chip": "ym2612"
    },
    {
      "channel": 3,
      "note": 86,
      "start": 24.0186,
      "duration": 0.1492,
      "velocity": 94,
      "chip": "ym2612"
    },
    {
      "channel": 1,
      "note": 77,
      "start": 24.0739,
      "duration": 0.0934,
      "velocity": 72,
      "chip": "ym2612"
    },
    {
      "channel": 1,
      "note": 65,
      "start": 24.1911,
      "duration": 0.0619,
      "velocity": 72,
      "chip": "ym2612"
    },
    {
      "channel": 2,
      "note": 89,
      "start": 24.1912,
      "duration": 0.1882,
      "velocity": 94,
      "chip": "ym2612"
    },
    {
      "channel": 3,
      "note": 94,
      "start": 24.1913,
      "duration": 0.1883,
      "velocity": 94,
      "chip": "ym2612"
    },
    {
      "channel": 0,
      "note": 77,
      "start": 24.2745,
      "duration": 0.0101,
      "velocity": 108,
      "chip": "ym2612"
    },
    {
      "channel": 1,
      "note": 65,
      "start": 24.2746,
      "duration": 0.0082,
      "velocity": 72,
      "chip": "ym2612"
    },
    {
      "channel": 0,
      "note": 77,
      "start": 24.2915,
      "duration": 0.0097,
      "velocity": 108,
      "chip": "ym2612"
    },
    {
      "channel": 1,
      "note": 77,
      "start": 24.2916,
      "duration": 0.0875,
      "velocity": 72,
      "chip": "ym2612"
    },
    {
      "channel": 0,
      "note": 76,
      "start": 24.3073,
      "duration": 0.0142,
      "velocity": 108,
      "chip": "ym2612"
    },
    {
      "channel": 0,
      "note": 74,
      "start": 24.3578,
      "duration": 0.021,
      "velocity": 108,
      "chip": "ym2612"
    },
    {
      "channel": 0,
      "note": 76,
      "start": 24.4044,
      "duration": 0.122,
      "velocity": 108,
      "chip": "ym2612"
    },
    {
      "channel": 1,
      "note": 65,
      "start": 24.4046,
      "duration": 0.1222,
      "velocity": 72,
      "chip": "ym2612"
    },
    {
      "channel": 2,
      "note": 91,
      "start": 24.4047,
      "duration": 0.4434,
      "velocity": 94,
      "chip": "ym2612"
    },
    {
      "channel": 3,
      "note": 96,
      "start": 24.4048,
      "duration": 0.1427,
      "velocity": 94,
      "chip": "ym2612"
    },
    {
      "channel": 0,
      "note": 72,
      "start": 24.5502,
      "duration": 0.0885,
      "velocity": 108,
      "chip": "ym2612"
    },
    {
      "channel": 1,
      "note": 77,
      "start": 24.5504,
      "duration": 0.0886,
      "velocity": 72,
      "chip": "ym2612"
    },
    {
      "channel": 3,
      "note": 91,
      "start": 24.5505,
      "duration": 0.1259,
      "velocity": 94,
      "chip": "ym2612"
    },
    {
      "channel": 0,
      "note": 76,
      "start": 24.6794,
      "duration": 0.0743,
      "velocity": 108,
      "chip": "ym2612"
    },
    {
      "channel": 1,
      "note": 65,
      "start": 24.6795,
      "duration": 0.0448,
      "velocity": 72,
      "chip": "ym2612"
    },
    {
      "channel": 3,
      "note": 96,
      "start": 24.6796,
      "duration": 0.0805,
      "velocity": 94,
      "chip": "ym2612"
    },
    {
      "channel": 1,
      "note": 65,
      "start": 24.744,
      "duration": 0.01,
      "velocity": 72,
      "chip": "ym2612"
    },
    {
      "channel": 0,
      "note": 79,
      "start": 24.7629,
      "duration": 0.074,
      "velocity": 108,
      "chip": "ym2612"
    },
    {
      "channel": 1,
      "note": 77,
      "start": 24.763,
      "duration": 0.0759,
      "velocity": 72,
      "chip": "ym2612"
    },
    {
      "channel": 3,
      "note": 88,
      "start": 24.7632,
      "duration": 0.082,
      "velocity": 94,
      "chip": "ym2612"
    },
    {
      "channel": 0,
      "note": 77,
      "start": 24.8462,
      "duration": 0.305,
      "velocity": 108,
      "chip": "ym2612"
    },
    {
      "channel": 1,
      "note": 65,
      "start": 24.8463,
      "duration": 0.107,
      "velocity": 72,
      "chip": "ym2612"
    },
    {
      "channel": 3,
      "note": 86,
      "start": 24.8508,
      "duration": 0.1902,
      "velocity": 94,
      "chip": "ym2612"
    },
    {
      "channel": 1,
      "note": 77,
      "start": 24.9732,
      "duration": 0.1091,
      "velocity": 72,
      "chip": "ym2612"
    },
    {
      "channel": 1,
      "note": 65,
      "start": 25.1061,
      "duration": 0.0453,
      "velocity": 72,
      "chip": "ym2612"
    },
    {
      "channel": 2,
      "note": 89,
      "start": 25.1062,
      "duration": 0.189,
      "velocity": 94,
      "chip": "ym2612"
    },
    {
      "channel": 3,
      "note": 94,
      "start": 25.1063,
      "duration": 0.1891,
      "velocity": 94,
      "chip": "ym2612"
    },
    {
      "channel": 0,
      "note": 77,
      "start": 25.1705,
      "duration": 0.026,
      "velocity": 108,
      "chip": "ym2612"
    },
    {
      "channel": 1,
      "note": 65,
      "start": 25.1878,
      "duration": 0.009,
      "velocity": 72,
      "chip": "ym2612"
    },
    {
      "channel": 0,
      "note": 77,
      "start": 25.2036,
      "duration": 0.0132,
      "velocity": 108,
      "chip": "ym2612"
    },
    {
      "channel": 1,
      "note": 77,
      "start": 25.2037,
      "duration": 0.0913,
      "velocity": 72,
      "chip": "ym2612"
    },
    {
      "channel": 0,
      "note": 76,
      "start": 25.2215,
      "duration": 0.0157,
      "velocity": 108,
      "chip": "ym2612"
    },
    {
      "channel": 0,
      "note": 74,
      "start": 25.2568,
      "duration": 0.0379,
      "velocity": 108,
      "chip": "ym2612"
    },
    {
      "channel": 0,
      "note": 76,
      "start": 25.3205,
      "duration": 0.1021,
      "velocity": 108,
      "chip": "ym2612"
    },
    {
      "channel": 1,
      "note": 65,
      "start": 25.3206,
      "duration": 0.1022,
      "velocity": 72,
      "chip": "ym2612"
    },
    {
      "channel": 2,
      "note": 84,
      "start": 25.3207,
      "duration": 0.388,
      "velocity": 94,
      "chip": "ym2612"
    },
    {
      "channel": 3,
      "note": 91,
      "start": 25.3208,
      "duration": 0.383,
      "velocity": 94,
      "chip": "ym2612"
    },
    {
      "channel": 0,
      "note": 72,
      "start": 25.4611,
      "duration": 0.0601,
      "velocity": 108,
      "chip": "ym2612"
    },
    {
      "channel": 1,
      "note": 77,
      "start": 25.4613,
      "duration": 0.0602,
      "velocity": 72,
      "chip": "ym2612"
    },
    {
      "channel": 0,
      "note": 76,
      "start": 25.5284,
      "duration": 0.0114,
      "velocity": 108,
      "chip": "ym2612"
    },
    {
      "channel": 1,
      "note": 65,
      "start": 25.5285,
      "duration": 0.0415,
      "velocity": 72,
      "chip": "ym2612"
    },
    {
      "channel": 0,
      "note": 72,
      "start": 25.5446,
      "duration": 0.0251,
      "velocity": 108,
      "chip": "ym2612"
    },
    {
      "channel": 0,
      "note": 74,
      "start": 25.6082,
      "duration": 0.0088,
      "velocity": 108,
      "chip": "ym2612"
    },
    {
      "channel": 1,
      "note": 65,
      "start": 25.6084,
      "duration": 0.0089,
      "velocity": 72,
      "chip": "ym2612"
    },
    {
      "channel": 0,
      "note": 76,
      "start": 25.6262,
      "duration": 0.0099,
      "velocity": 108,
      "chip": "ym2612"
    },
    {
      "channel": 1,
      "note": 77,
      "start": 25.6263,
      "duration": 0.0714,
      "velocity": 72,
      "chip": "ym2612"
    },
    {
      "channel": 0,
      "note": 77,
      "start": 25.6422,
      "duration": 0.0128,
      "velocity": 108,
      "chip": "ym2612"
    },
    {
      "channel": 0,
      "note": 79,
      "start": 25.6741,
      "duration": 0.0233,
      "velocity": 108,
      "chip": "ym2612"
    },
    {
      "channel": 0,
      "note": 77,
      "start": 25.7049,
      "duration": 0.3186,
      "velocity": 108,
      "chip": "ym2612"
    },
    {
      "channel": 1,
      "note": 65,
      "start": 25.705,
      "duration": 0.1,
      "velocity": 72,
      "chip": "ym2612"
    },
    {
      "channel": 1,
      "note": 77,
      "start": 25.8413,
      "duration": 0.0937,
      "velocity": 72,
      "chip": "ym2612"
    },
    {
      "channel": 1,
      "note": 65,
      "start": 25.9585,
      "duration": 0.0652,
      "velocity": 72,
      "chip": "ym2612"
    },
    {
      "channel": 2,
      "note": 89,
      "start": 25.9587,
      "duration": 0.179,
      "velocity": 94,
      "chip": "ym2612"
    },
    {
      "channel": 3,
      "note": 94,
      "start": 25.9588,
      "duration": 0.1791,
      "velocity": 94,
      "chip": "ym2612"
    },
    {
      "channel": 0,
      "note": 77,
      "start": 26.0451,
      "duration": 0.0099,
      "velocity": 108,
      "chip": "ym2612"
    },
    {
      "channel": 1,
      "note": 65,
      "start": 26.0452,
      "duration": 0.01,
      "velocity": 72,
      "chip": "ym2612"
    },
    {
      "channel": 0,
      "note": 77,
      "start": 26.0621,
      "duration": 0.0095,
      "velocity": 108,
      "chip": "ym2612"
    },
    {
      "channel": 1,
      "note": 77,
      "start": 26.0622,
      "duration": 0.0751,
      "velocity": 72,
      "chip": "ym2612"
    },
    {
      "channel": 0,
      "note": 76,
      "start": 26.0778,
      "duration": 0.0142,
      "velocity": 108,
      "chip": "ym2612"
    },
    {
      "channel": 0,
      "note": 74,
      "start": 26.1283,
      "duration": 0.0088,
      "velocity": 108,
      "chip": "ym2612"
    },
    {
      "channel": 0,
      "note": 76,
      "start": 26.1508,
      "duration": 0.0994,
      "velocity": 108,
      "chip": "ym2612"
    },
    {
      "channel": 1,
      "note": 65,
      "start": 26.151,
      "duration": 0.0995,
      "velocity": 72,
      "chip": "ym2612"
    },
    {
      "channel": 2,
      "note": 91,
      "start": 26.1511,
      "duration": 0.4293,
      "velocity": 94,
      "chip": "ym2612"
    },
    {
      "channel": 3,
      "note": 96,
      "start": 26.1512,
      "duration": 0.4266,
      "velocity": 94,
      "chip": "ym2612"
    },
    {
      "channel": 0,
      "note": 72,
      "start": 26.272,
      "duration": 0.0904,
      "velocity": 108,
      "chip": "ym2612"
    },
    {
      "channel": 1,
      "note": 77,
      "start": 26.2721,
      "duration": 0.0905,
      "velocity": 72,
      "chip": "ym2612"
    },
    {
      "channel": 0,
      "note": 76,
      "start": 26.4009,
      "duration": 0.0901,
      "velocity": 108,
      "chip": "ym2612"
    },
    {
      "channel": 1,
      "note": 65,
      "start": 26.401,
      "duration": 0.047,
      "velocity": 72,
      "chip": "ym2612"
    },
    {
      "channel": 1,
      "note": 65,
      "start": 26.4674,
      "duration": 0.0239,
      "velocity": 72,
      "chip": "ym2612"
    },
    {
      "channel": 0,
      "note": 79,
      "start": 26.498,
      "duration": 0.0733,
      "velocity": 108,
      "chip": "ym2612"
    },
    {
      "channel": 1,
      "note": 77,
      "start": 26.4982,
      "duration": 0.0734,
      "velocity": 72,
      "chip": "ym2612"
    },
    {
      "channel": 0,
      "note": 77,
      "start": 26.5788,
      "duration": 0.3063,
      "velocity": 108,
      "chip": "ym2612"
    },
    {
      "channel": 1,
      "note": 65,
      "start": 26.579,
      "duration": 0.1054,
      "velocity": 72,
      "chip": "ym2612"
    },
    {
      "channel": 1,
      "note": 77,
      "start": 26.7039,
      "duration": 0.1124,
      "velocity": 72,
      "chip": "ym2612"
    },
    {
      "channel": 1,
      "note": 65,
      "start": 26.84,
      "duration": 0.0454,
      "velocity": 72,
      "chip": "ym2612"
    },
    {
      "channel": 2,
      "note": 89,
      "start": 26.8401,
      "duration": 0.1603,
      "velocity": 94,
      "chip": "ym2612"
    },
    {
      "channel": 3,
      "note": 94,
      "start": 26.8402,
      "duration": 0.1605,
      "velocity": 94,
      "chip": "ym2612"
    },
    {
      "channel": 0,
      "note": 77,
      "start": 26.9237,
      "duration": 0.0109,
      "velocity": 108,
      "chip": "ym2612"
    },
    {
      "channel": 1,
      "note": 65,
      "start": 26.9238,
      "duration": 0.0088,
      "velocity": 72,
      "chip": "ym2612"
    },
    {
      "channel": 0,
      "note": 77,
      "start": 26.9418,
      "duration": 0.0102,
      "velocity": 108,
      "chip": "ym2612"
    },
    {
      "channel": 1,
      "note": 77,
      "start": 26.942,
      "duration": 0.0582,
      "velocity": 72,
      "chip": "ym2612"
    },
    {
      "channel": 0,
      "note": 76,
      "start": 26.9569,
      "duration": 0.0136,
      "velocity": 108,
      "chip": "ym2612"
    },
    {
      "channel": 0,
      "note": 74,
      "start": 26.99,
      "duration": 0.0098,
      "velocity": 108,
      "chip": "ym2612"
    },
    {
      "channel": 0,
      "note": 76,
      "start": 27.0115,
      "duration": 0.182,
      "velocity": 108,
      "chip": "ym2612"
    },
    {
      "channel": 1,
      "note": 65,
      "start": 27.0116,
      "duration": 0.0864,
      "velocity": 72,
      "chip": "ym2612"
    },
    {
      "channel": 2,
      "note": 84,
      "start": 27.0117,
      "duration": 0.35,
      "velocity": 94,
      "chip": "ym2612"
    },
    {
      "channel": 3,
      "note": 91,
      "start": 27.0118,
      "duration": 0.3502,
      "velocity": 94,
      "chip": "ym2612"
    },
    {
      "channel": 1,
      "note": 77,
      "start": 27.1051,
      "duration": 0.0779,
      "velocity": 72,
      "chip": "ym2612"
    },
    {
      "channel": 1,
      "note": 65,
      "start": 27.1878,
      "duration": 0.0605,
      "velocity": 72,
      "chip": "ym2612"
    },
    {
      "channel": 0,
      "note": 68,
      "start": 27.2061,
      "duration": 0.042,
      "velocity": 110,
      "chip": "ym2612"
    },
    {
      "channel": 0,
      "note": 69,
      "start": 27.27,
      "duration": 0.0087,
      "velocity": 110,
      "chip": "ym2612"
    },
    {
      "channel": 1,
      "note": 65,
      "start": 27.2701,
      "duration": 0.0107,
      "velocity": 72,
      "chip": "ym2612"
    },
    {
      "channel": 0,
      "note": 70,
      "start": 27.288,
      "duration": 0.0099,
      "velocity": 110,
      "chip": "ym2612"
    },
    {
      "channel": 1,
      "note": 77,
      "start": 27.2881,
      "duration": 0.0714,
      "velocity": 72,
      "chip": "ym2612"
    },
    {
      "channel": 0,
      "note": 71,
      "start": 27.304,
      "duration": 0.0128,
      "velocity": 110,
      "chip": "ym2612"
    },
    {
      "channel": 0,
      "note": 72,
      "start": 27.3359,
      "duration": 0.0233,
      "velocity": 110,
      "chip": "ym2612"
    },
    {
      "channel": 0,
      "note": 73,
      "start": 27.3826,
      "duration": 49.8434,
      "velocity": 110,
      "chip": "ym2612"
    },
    {
      "channel": 1,
      "note": 66,
      "start": 27.3827,
      "duration": 0.0985,
      "velocity": 72,
      "chip": "ym2612"
    }
  ]
}