{
  "track_name": "03 - Pink Beard",
  "duration_sec": 77.202,
  "sample_rate": 44100,
  "note_count": 1229,
  "unique_pitches": 66,
  "pitch_range": 70,
  "avg_note_duration": 0.1578,
  "reconstruction_stats": {
    "notes_reconstructed": 1229,
    "keyon_events": 1229,
    "keyoff_events": 1228,
    "orphan_keyons": 1,
    "unique_pitches": 66,
    "pitch_range": 70,
    "avg_duration_sec": 0.1578
  },
  "metadata": {
    "source": "P\\Pink Goes to Hollywood\\03 - Pink Beard.vgm"
  },
  "notes": [
    {
      "channel": 1,
      "note": 64,
      "start": 0.0,
      "duration": 0.1007,
      "velocity": 96,
      "chip": "ym2612"
    },
    {
      "channel": 2,
      "note": 54,
      "start": 0.005,
      "duration": 0.1292,
      "velocity": 118,
      "chip": "ym2612"
    },
    {
      "channel": 4,
      "note": 61,
      "start": 0.2706,
      "duration": 0.0469,
      "velocity": 88,
      "chip": "ym2612"
    },
    {
      "channel": 4,
      "note": 62,
      "start": 0.3205,
      "duration": 0.0469,
      "velocity": 88,
      "chip": "ym2612"
    },
    {
      "channel": 4,
      "note": 63,
      "start": 0.3704,
      "duration": 0.0303,
      "velocity": 88,
      "chip": "ym2612"
    },
    {
      "channel": 4,
      "note": 64,
      "start": 0.4045,
      "duration": 0.0797,
      "velocity": 88,
      "chip": "ym2612"
    },
    {
      "channel": 0,
      "note": 106,
      "start": 0.6709,
      "duration": 0.0131,
      "velocity": 115,
      "chip": "ym2612"
    },
    {
      "channel": 0,
      "note": 107,
      "start": 0.7204,
      "duration": 0.1302,
      "velocity": 115,
      "chip": "ym2612"
    },
    {
      "channel": 1,
      "note": 59,
      "start": 0.8378,
      "duration": 0.1296,
      "velocity": 96,
      "chip": "ym2612"
    },
    {
      "channel": 2,
      "note": 54,
      "start": 0.841,
      "duration": 0.1266,
      "velocity": 118,
      "chip": "ym2612"
    },
    {
      "channel": 4,
      "note": 62,
      "start": 1.104,
      "duration": 0.0468,
      "velocity": 88,
      "chip": "ym2612"
    },
    {
      "channel": 4,
      "note": 61,
      "start": 1.1538,
      "duration": 0.0469,
      "velocity": 88,
      "chip": "ym2612"
    },
    {
      "channel": 4,
      "note": 60,
      "start": 1.2038,
      "duration": 0.0469,
      "velocity": 88,
      "chip": "ym2612"
    },
    {
      "channel": 4,
      "note": 59,
      "start": 1.2542,
      "duration": 0.0632,
      "velocity": 88,
      "chip": "ym2612"
    },
    {
      "channel": 0,
      "note": 101,
      "start": 1.5371,
      "duration": 0.0136,
      "velocity": 115,
      "chip": "ym2612"
    },
    {
      "channel": 0,
      "note": 102,
      "start": 1.5705,
      "duration": 0.0968,
      "velocity": 115,
      "chip": "ym2612"
    },
    {
      "channel": 5,
      "note": 71,
      "start": 1.6707,
      "duration": 0.1302,
      "velocity": 88,
      "chip": "ym2612"
    },
    {
      "channel": 5,
      "note": 72,
      "start": 1.8043,
      "duration": 0.0798,
      "velocity": 88,
      "chip": "ym2612"
    },
    {
      "channel": 5,
      "note": 71,
      "start": 1.9536,
      "duration": 0.0639,
      "velocity": 88,
      "chip": "ym2612"
    },
    {
      "channel": 5,
      "note": 69,
      "start": 2.087,
      "duration": 0.0639,
      "velocity": 88,
      "chip": "ym2612"
    },
    {
      "channel": 5,
      "note": 67,
      "start": 2.2372,
      "duration": 0.0303,
      "velocity": 88,
      "chip": "ym2612"
    },
    {
      "channel": 5,
      "note": 66,
      "start": 2.3707,
      "duration": 0.0635,
      "velocity": 88,
      "chip": "ym2612"
    },
    {
      "channel": 0,
      "note": 93,
      "start": 2.4372,
      "duration": 0.0301,
      "velocity": 115,
      "chip": "ym2612"
    },
    {
      "channel": 0,
      "note": 94,
      "start": 2.4706,
      "duration": 0.03,
      "velocity": 115,
      "chip": "ym2612"
    },
    {
      "channel": 0,
      "note": 95,
      "start": 2.5042,
      "duration": 0.1131,
      "velocity": 115,
      "chip": "ym2612"
    },
    {
      "channel": 0,
      "note": 96,
      "start": 2.6536,
      "duration": 0.0637,
      "velocity": 115,
      "chip": "ym2612"
    },
    {
      "channel": 0,
      "note": 95,
      "start": 2.7868,
      "duration": 0.0638,
      "velocity": 115,
      "chip": "ym2612"
    },
    {
      "channel": 0,
      "note": 93,
      "start": 2.9368,
      "duration": 0.0638,
      "velocity": 115,
      "chip": "ym2612"
    },
    {
      "channel": 0,
      "note": 91,
      "start": 3.0703,
      "duration": 0.047,
      "velocity": 115,
      "chip": "ym2612"
    },
    {
      "channel": 0,
      "note": 90,
      "start": 3.2039,
      "duration": 0.0801,
      "velocity": 115,
      "chip": "ym2612"
    },
    {
      "channel": 2,
      "note": 54,
      "start": 3.2878,
      "duration": 0.0131,
      "velocity": 118,
      "chip": "ym2612"
    },
    {
      "channel": 2,
      "note": 54,
      "start": 3.3045,
      "duration": 0.0464,
      "velocity": 118,
      "chip": "ym2612"
    },
    {
      "channel": 4,
      "note": 59,
      "start": 3.3541,
      "duration": 0.13,
      "velocity": 88,
      "chip": "ym2612"
    },
    {
      "channel": 2,
      "note": 54,
      "start": 3.3571,
      "duration": 0.0604,
      "velocity": 118,
      "chip": "ym2612"
    },
    {
      "channel": 4,
      "note": 60,
      "start": 3.4872,
      "duration": 0.0635,
      "velocity": 88,
      "chip": "ym2612"
    },
    {
      "channel": 4,
      "note": 59,
      "start": 3.6374,
      "duration": 0.0634,
      "velocity": 88,
      "chip": "ym2612"
    },
    {
      "channel": 2,
      "note": 54,
      "start": 3.6403,
      "duration": 0.0606,
      "velocity": 118,
      "chip": "ym2612"
    },
    {
      "channel": 4,
      "note": 57,
      "start": 3.7703,
      "duration": 0.0638,
      "velocity": 88,
      "chip": "ym2612"
    },
    {
      "channel": 2,
      "note": 54,
      "start": 3.7731,
      "duration": 0.0612,
      "velocity": 118,
      "chip": "ym2612"
    },
    {
      "channel": 4,
      "note": 55,
      "start": 3.9036,
      "duration": 0.0638,
      "velocity": 88,
      "chip": "ym2612"
    },
    {
      "channel": 2,
      "note": 54,
      "start": 3.9064,
      "duration": 0.0613,
      "velocity": 118,
      "chip": "ym2612"
    },
    {
      "channel": 4,
      "note": 54,
      "start": 4.0536,
      "duration": 0.0638,
      "velocity": 88,
      "chip": "ym2612"
    },
    {
      "channel": 2,
      "note": 54,
      "start": 4.0564,
      "duration": 0.0612,
      "velocity": 118,
      "chip": "ym2612"
    },
    {
      "channel": 1,
      "note": 52,
      "start": 4.1891,
      "duration": 0.095,
      "velocity": 96,
      "chip": "ym2612"
    },
    {
      "channel": 2,
      "note": 81,
      "start": 4.1936,
      "duration": 0.0907,
      "velocity": 121,
      "chip": "ym2612"
    },
    {
      "channel": 3,
      "note": 66,
      "start": 4.1972,
      "duration": 0.1203,
      "velocity": 127,
      "chip": "ym2612"
    },
    {
      "channel": 4,
      "note": 83,
      "start": 4.4709,
      "duration": 0.08,
      "velocity": 76,
      "chip": "ym2612"
    },
    {
      "channel": 5,
      "note": 79,
      "start": 4.4738,
      "duration": 0.0772,
      "velocity": 76,
      "chip": "ym2612"
    },
    {
      "channel": 2,
      "note": 81,
      "start": 4.4765,
      "duration": 0.0577,
      "velocity": 121,
      "chip": "ym2612"
    },
    {
      "channel": 1,
      "note": 47,
      "start": 4.6039,
      "duration": 0.1469,
      "velocity": 96,
      "chip": "ym2612"
    },
    {
      "channel": 2,
      "note": 81,
      "start": 4.6063,
      "duration": 0.0613,
      "velocity": 121,
      "chip": "ym2612"
    },
    {
      "channel": 3,
      "note": 66,
      "start": 4.6095,
      "duration": 0.1414,
      "velocity": 127,
      "chip": "ym2612"
    },
    {
      "channel": 4,
      "note": 83,
      "start": 4.888,
      "duration": 0.1295,
      "velocity": 76,
      "chip": "ym2612"
    },
    {
      "channel": 5,
      "note": 79,
      "start": 4.8908,
      "duration": 0.1268,
      "velocity": 76,
      "chip": "ym2612"
    },
    {
      "channel": 2,
      "note": 81,
      "start": 4.8938,
      "duration": 0.0405,
      "velocity": 121,
      "chip": "ym2612"
    },
    {
      "channel": 1,
      "note": 52,
      "start": 5.0207,
      "duration": 0.1634,
      "velocity": 96,
      "chip": "ym2612"
    },
    {
      "channel": 2,
      "note": 81,
      "start": 5.0233,
      "duration": 0.0777,
      "velocity": 121,
      "chip": "ym2612"
    },
    {
      "channel": 3,
      "note": 66,
      "start": 5.0267,
      "duration": 0.1074,
      "velocity": 127,
      "chip": "ym2612"
    },
    {
      "channel": 4,
      "note": 83,
      "start": 5.3043,
      "duration": 0.1131,
      "velocity": 76,
      "chip": "ym2612"
    },
    {
      "channel": 5,
      "note": 79,
      "start": 5.3071,
      "duration": 0.1105,
      "velocity": 76,
      "chip": "ym2612"
    },
    {
      "channel": 2,
      "note": 81,
      "start": 5.3098,
      "duration": 0.0412,
      "velocity": 121,
      "chip": "ym2612"
    },
    {
      "channel": 1,
      "note": 49,
      "start": 5.4541,
      "duration": 0.08,
      "velocity": 96,
      "chip": "ym2612"
    },
    {
      "channel": 2,
      "note": 81,
      "start": 5.4567,
      "duration": 0.061,
      "velocity": 121,
      "chip": "ym2612"
    },
    {
      "channel": 3,
      "note": 66,
      "start": 5.4599,
      "duration": 0.1076,
      "velocity": 127,
      "chip": "ym2612"
    },
    {
      "channel": 1,
      "note": 50,
      "start": 5.587,
      "duration": 0.0971,
      "velocity": 96,
      "chip": "ym2612"
    },
    {
      "channel": 4,
      "note": 84,
      "start": 5.7209,
      "duration": 0.0967,
      "velocity": 76,
      "chip": "ym2612"
    },
    {
      "channel": 5,
      "note": 81,
      "start": 5.7237,
      "duration": 0.094,
      "velocity": 76,
      "chip": "ym2612"
    },
    {
      "channel": 1,
      "note": 51,
      "start": 5.7261,
      "duration": 0.0913,
      "velocity": 96,
      "chip": "ym2612"
    },
    {
      "channel": 2,
      "note": 81,
      "start": 5.7287,
      "duration": 0.0389,
      "velocity": 121,
      "chip": "ym2612"
    },
    {
      "channel": 1,
      "note": 52,
      "start": 5.8711,
      "duration": 0.163,
      "velocity": 96,
      "chip": "ym2612"
    },
    {
      "channel": 2,
      "note": 81,
      "start": 5.8737,
      "duration": 0.0606,
      "velocity": 121,
      "chip": "ym2612"
    },
    {
      "channel": 3,
      "note": 66,
      "start": 5.8771,
      "duration": 0.0738,
      "velocity": 127,
      "chip": "ym2612"
    },
    {
      "channel": 4,
      "note": 83,
      "start": 6.1546,
      "duration": 0.1129,
      "velocity": 76,
      "chip": "ym2612"
    },
    {
      "channel": 5,
      "note": 79,
      "start": 6.1575,
      "duration": 0.1102,
      "velocity": 76,
      "chip": "ym2612"
    },
    {
      "channel": 2,
      "note": 81,
      "start": 6.1605,
      "duration": 0.0238,
      "velocity": 121,
      "chip": "ym2612"
    },
    {
      "channel": 1,
      "note": 47,
      "start": 6.2873,
      "duration": 0.1801,
      "velocity": 96,
      "chip": "ym2612"
    },
    {
      "channel": 2,
      "note": 81,
      "start": 6.2899,
      "duration": 0.0611,
      "velocity": 121,
      "chip": "ym2612"
    },
    {
      "channel": 3,
      "note": 66,
      "start": 6.2933,
      "duration": 0.1076,
      "velocity": 127,
      "chip": "ym2612"
    },
    {
      "channel": 4,
      "note": 83,
      "start": 6.5708,
      "duration": 0.1133,
      "velocity": 76,
      "chip": "ym2612"
    },
    {
      "channel": 5,
      "note": 79,
      "start": 6.5736,
      "duration": 0.1107,
      "velocity": 76,
      "chip": "ym2612"
    },
    {
      "channel": 2,
      "note": 81,
      "start": 6.5763,
      "duration": 0.0413,
      "velocity": 121,
      "chip": "ym2612"
    },
    {
      "channel": 1,
      "note": 52,
      "start": 6.7039,
      "duration": 0.2135,
      "velocity": 96,
      "chip": "ym2612"
    },
    {
      "channel": 2,
      "note": 81,
      "start": 6.7065,
      "duration": 0.0611,
      "velocity": 121,
      "chip": "ym2612"
    },
    {
      "channel": 3,
      "note": 66,
      "start": 6.7098,
      "duration": 0.1078,
      "velocity": 127,
      "chip": "ym2612"
    },
    {
      "channel": 4,
      "note": 83,
      "start": 6.9874,
      "duration": 0.1134,
      "velocity": 76,
      "chip": "ym2612"
    },
    {
      "channel": 5,
      "note": 79,
      "start": 6.9902,
      "duration": 0.1107,
      "velocity": 76,
      "chip": "ym2612"
    },
    {
      "channel": 2,
      "note": 81,
      "start": 6.9929,
      "duration": 0.0415,
      "velocity": 121,
      "chip": "ym2612"
    },
    {
      "channel": 1,
      "note": 49,
      "start": 7.1207,
      "duration": 0.0966,
      "velocity": 96,
      "chip": "ym2612"
    },
    {
      "channel": 2,
      "note": 81,
      "start": 7.1237,
      "duration": 0.0773,
      "velocity": 121,
      "chip": "ym2612"
    },
    {
      "channel": 3,
      "note": 66,
      "start": 7.1269,
      "duration": 0.1073,
      "velocity": 127,
      "chip": "ym2612"
    },
    {
      "channel": 1,
      "note": 50,
      "start": 7.2705,
      "duration": 0.0803,
      "velocity": 96,
      "chip": "ym2612"
    },
    {
      "channel": 0,
      "note": 63,
      "start": 7.4041,
      "duration": 0.1466,
      "velocity": 88,
      "chip": "ym2612"
    },
    {
      "channel": 4,
      "note": 84,
      "start": 7.407,
      "duration": 0.1104,
      "velocity": 76,
      "chip": "ym2612"
    },
    {
      "channel": 5,
      "note": 81,
      "start": 7.4098,
      "duration": 0.1078,
      "velocity": 76,
      "chip": "ym2612"
    },
    {
      "channel": 1,
      "note": 51,
      "start": 7.4122,
      "duration": 0.0885,
      "velocity": 96,
      "chip": "ym2612"
    },
    {
      "channel": 2,
      "note": 81,
      "start": 7.4148,
      "duration": 0.0362,
      "velocity": 121,
      "chip": "ym2612"
    },
    {
      "channel": 0,
      "note": 64,
      "start": 7.5538,
      "duration": 0.1303,
      "velocity": 88,
      "chip": "ym2612"
    },
    {
      "channel": 1,
      "note": 52,
      "start": 7.5566,
      "duration": 0.1441,
      "velocity": 96,
      "chip": "ym2612"
    },
    {
      "channel": 2,
      "note": 81,
      "start": 7.5592,
      "duration": 0.0585,
      "velocity": 121,
      "chip": "ym2612"
    },
    {
      "channel": 3,
      "note": 66,
      "start": 7.5624,
      "duration": 0.1051,
      "velocity": 127,
      "chip": "ym2612"
    },
    {
      "channel": 4,
      "note": 83,
      "start": 7.8212,
      "duration": 0.113,
      "velocity": 76,
      "chip": "ym2612"
    },
    {
      "channel": 5,
      "note": 79,
      "start": 7.824,
      "duration": 0.1104,
      "velocity": 76,
      "chip": "ym2612"
    },
    {
      "channel": 2,
      "note": 81,
      "start": 7.8267,
      "duration": 0.041,
      "velocity": 121,
      "chip": "ym2612"
    },
    {
      "channel": 1,
      "note": 47,
      "start": 7.9706,
      "duration": 0.1802,
      "velocity": 96,
      "chip": "ym2612"
    },
    {
      "channel": 2,
      "note": 81,
      "start": 7.9732,
      "duration": 0.0611,
      "velocity": 121,
      "chip": "ym2612"
    },
    {
      "channel": 3,
      "note": 66,
      "start": 7.9763,
      "duration": 0.1078,
      "velocity": 127,
      "chip": "ym2612"
    },
    {
      "channel": 0,
      "note": 66,
      "start": 8.2373,
      "duration": 0.1468,
      "velocity": 88,
      "chip": "ym2612"
    },
    {
      "channel": 4,
      "note": 83,
      "start": 8.2402,
      "duration": 0.1106,
      "velocity": 76,
      "chip": "ym2612"
    },
    {
      "channel": 5,
      "note": 79,
      "start": 8.243,
      "duration": 0.108,
      "velocity": 76,
      "chip": "ym2612"
    },
    {
      "channel": 2,
      "note": 81,
      "start": 8.2456,
      "duration": 0.0721,
      "velocity": 121,
      "chip": "ym2612"
    },
    {
      "channel": 0,
      "note": 67,
      "start": 8.3873,
      "duration": 0.1134,
      "velocity": 88,
      "chip": "ym2612"
    },
    {
      "channel": 1,
      "note": 52,
      "start": 8.3903,
      "duration": 0.1938,
      "velocity": 96,
      "chip": "ym2612"
    },
    {
      "channel": 2,
      "note": 81,
      "start": 8.3931,
      "duration": 0.0578,
      "velocity": 121,
      "chip": "ym2612"
    },
    {
      "channel": 3,
      "note": 66,
      "start": 8.3968,
      "duration": 0.0707,
      "velocity": 127,
      "chip": "ym2612"
    },
    {
      "channel": 4,
      "note": 83,
      "start": 8.6709,
      "duration": 0.1134,
      "velocity": 76,
      "chip": "ym2612"
    },
    {
      "channel": 5,
      "note": 79,
      "start": 8.6737,
      "duration": 0.1107,
      "velocity": 76,
      "chip": "ym2612"
    },
    {
      "channel": 2,
      "note": 81,
      "start": 8.6762,
      "duration": 0.0581,
      "velocity": 121,
      "chip": "ym2612"
    },
    {
      "channel": 1,
      "note": 49,
      "start": 8.804,
      "duration": 0.0968,
      "velocity": 96,
      "chip": "ym2612"
    },
    {
      "channel": 2,
      "note": 81,
      "start": 8.8064,
      "duration": 0.0611,
      "velocity": 121,
      "chip": "ym2612"
    },
    {
      "channel": 3,
      "note": 66,
      "start": 8.8097,
      "duration": 0.0912,
      "velocity": 127,
      "chip": "ym2612"
    },
    {
      "channel": 1,
      "note": 50,
      "start": 8.9371,
      "duration": 0.0969,
      "velocity": 96,
      "chip": "ym2612"
    },
    {
      "channel": 0,
      "note": 63,
      "start": 9.087,
      "duration": 0.1137,
      "velocity": 88,
      "chip": "ym2612"
    },
    {
      "channel": 4,
      "note": 84,
      "start": 9.0898,
      "duration": 0.1111,
      "velocity": 76,
      "chip": "ym2612"
    },
    {
      "channel": 5,
      "note": 81,
      "start": 9.0926,
      "duration": 0.1084,
      "velocity": 76,
      "chip": "ym2612"
    },
    {
      "channel": 1,
      "note": 51,
      "start": 9.095,
      "duration": 0.0724,
      "velocity": 96,
      "chip": "ym2612"
    },
    {
      "channel": 2,
      "note": 81,
      "start": 9.0975,
      "duration": 0.0534,
      "velocity": 121,
      "chip": "ym2612"
    },
    {
      "channel": 0,
      "note": 64,
      "start": 9.2202,
      "duration": 0.1471,
      "velocity": 88,
      "chip": "ym2612"
    },
    {
      "channel": 1,
      "note": 52,
      "start": 9.223,
      "duration": 0.2111,
      "velocity": 96,
      "chip": "ym2612"
    },
    {
      "channel": 2,
      "note": 81,
      "start": 9.2255,
      "duration": 0.0588,
      "velocity": 121,
      "chip": "ym2612"
    },
    {
      "channel": 3,
      "note": 66,
      "start": 9.2288,
      "duration": 0.1054,
      "velocity": 127,
      "chip": "ym2612"
    },
    {
      "channel": 0,
      "note": 66,
      "start": 9.3702,
      "duration": 0.1304,
      "velocity": 88,
      "chip": "ym2612"
    },
    {
      "channel": 0,
      "note": 67,
      "start": 9.5035,
      "duration": 0.1305,
      "velocity": 88,
      "chip": "ym2612"
    },
    {
      "channel": 4,
      "note": 83,
      "start": 9.5068,
      "duration": 0.1107,
      "velocity": 76,
      "chip": "ym2612"
    },
    {
      "channel": 5,
      "note": 79,
      "start": 9.5095,
      "duration": 0.1081,
      "velocity": 76,
      "chip": "ym2612"
    },
    {
      "channel": 2,
      "note": 81,
      "start": 9.5121,
      "duration": 0.0556,
      "velocity": 121,
      "chip": "ym2612"
    },
    {
      "channel": 0,
      "note": 69,
      "start": 9.6372,
      "duration": 0.0968,
      "velocity": 88,
      "chip": "ym2612"
    },
    {
      "channel": 1,
      "note": 47,
      "start": 9.6397,
      "duration": 0.2111,
      "velocity": 96,
      "chip": "ym2612"
    },
    {
      "channel": 2,
      "note": 81,
      "start": 9.6422,
      "duration": 0.0922,
      "velocity": 121,
      "chip": "ym2612"
    },
    {
      "channel": 3,
      "note": 66,
      "start": 9.6456,
      "duration": 0.0886,
      "velocity": 127,
      "chip": "ym2612"
    },
    {
      "channel": 0,
      "note": 72,
      "start": 9.9205,
      "duration": 0.1135,
      "velocity": 88,
      "chip": "ym2612"
    },
    {
      "channel": 4,
      "note": 83,
      "start": 9.9236,
      "duration": 0.1439,
      "velocity": 76,
      "chip": "ym2612"
    },
    {
      "channel": 5,
      "note": 79,
      "start": 9.9263,
      "duration": 0.1413,
      "velocity": 76,
      "chip": "ym2612"
    },
    {
      "channel": 2,
      "note": 81,
      "start": 9.9294,
      "duration": 0.0383,
      "velocity": 121,
      "chip": "ym2612"
    },
    {
      "channel": 0,
      "note": 71,
      "start": 10.0709,
      "duration": 0.0797,
      "velocity": 88,
      "chip": "ym2612"
    },
    {
      "channel": 1,
      "note": 52,
      "start": 10.0736,
      "duration": 0.2272,
      "velocity": 96,
      "chip": "ym2612"
    },
    {
      "channel": 2,
      "note": 81,
      "start": 10.0762,
      "duration": 0.0581,
      "velocity": 121,
      "chip": "ym2612"
    },
    {
      "channel": 3,
      "note": 66,
      "start": 10.0794,
      "duration": 0.0714,
      "velocity": 127,
      "chip": "ym2612"
    },
    {
      "channel": 0,
      "note": 63,
      "start": 10.3371,
      "duration": 0.1469,
      "velocity": 88,
      "chip": "ym2612"
    },
    {
      "channel": 4,
      "note": 83,
      "start": 10.3401,
      "duration": 0.1609,
      "velocity": 76,
      "chip": "ym2612"
    },
    {
      "channel": 5,
      "note": 79,
      "start": 10.3429,
      "duration": 0.1582,
      "velocity": 76,
      "chip": "ym2612"
    },
    {
      "channel": 2,
      "note": 81,
      "start": 10.3454,
      "duration": 0.0722,
      "velocity": 121,
      "chip": "ym2612"
    },
    {
      "channel": 0,
      "note": 64,
      "start": 10.4872,
      "duration": 0.0802,
      "velocity": 88,
      "chip": "ym2612"
    },
    {
      "channel": 1,
      "note": 51,
      "start": 10.49,
      "duration": 0.0607,
      "velocity": 96,
      "chip": "ym2612"
    },
    {
      "channel": 2,
      "note": 81,
      "start": 10.4924,
      "duration": 0.0586,
      "velocity": 121,
      "chip": "ym2612"
    },
    {
      "channel": 3,
      "note": 66,
      "start": 10.4956,
      "duration": 0.072,
      "velocity": 127,
      "chip": "ym2612"
    },
    {
      "channel": 1,
      "note": 50,
      "start": 10.6209,
      "duration": 0.0965,
      "velocity": 96,
      "chip": "ym2612"
    },
    {
      "channel": 0,
      "note": 71,
      "start": 10.7705,
      "duration": 0.1302,
      "velocity": 88,
      "chip": "ym2612"
    },
    {
      "channel": 4,
      "note": 83,
      "start": 10.7734,
      "duration": 0.1442,
      "velocity": 76,
      "chip": "ym2612"
    },
    {
      "channel": 5,
      "note": 79,
      "start": 10.7765,
      "duration": 0.1412,
      "velocity": 76,
      "chip": "ym2612"
    },
    {
      "channel": 1,
      "note": 49,
      "start": 10.7789,
      "duration": 0.0718,
      "velocity": 96,
      "chip": "ym2612"
    },
    {
      "channel": 2,
      "note": 81,
      "start": 10.7814,
      "duration": 0.0529,
      "velocity": 121,
      "chip": "ym2612"
    },
    {
      "channel": 0,
      "note": 70,
      "start": 10.9039,
      "duration": 0.8801,
      "velocity": 88,
      "chip": "ym2612"
    },
    {
      "channel": 1,
      "note": 48,
      "start": 10.9066,
      "duration": 0.2107,
      "velocity": 96,
      "chip": "ym2612"
    },
    {
      "channel": 2,
      "note": 81,
      "start": 10.9092,
      "duration": 0.0919,
      "velocity": 121,
      "chip": "ym2612"
    },
    {
      "channel": 3,
      "note": 66,
      "start": 10.9124,
      "duration": 0.0885,
      "velocity": 127,
      "chip": "ym2612"
    },
    {
      "channel": 4,
      "note": 82,
      "start": 11.1874,
      "duration": 0.1635,
      "velocity": 76,
      "chip": "ym2612"
    },
    {
      "channel": 5,
      "note": 79,
      "start": 11.1902,
      "duration": 0.1608,
      "velocity": 76,
      "chip": "ym2612"
    },
    {
      "channel": 2,
      "note": 81,
      "start": 11.1933,
      "duration": 0.041,
      "velocity": 121,
      "chip": "ym2612"
    },
    {
      "channel": 1,
      "note": 55,
      "start": 11.3204,
      "duration": 0.2137,
      "velocity": 96,
      "chip": "ym2612"
    },
    {
      "channel": 2,
      "note": 81,
      "start": 11.323,
      "duration": 0.0613,
      "velocity": 121,
      "chip": "ym2612"
    },
    {
      "channel": 3,
      "note": 66,
      "start": 11.3263,
      "duration": 0.1078,
      "velocity": 127,
      "chip": "ym2612"
    },
    {
      "channel": 4,
      "note": 82,
      "start": 11.6043,
      "duration": 0.1299,
      "velocity": 76,
      "chip": "ym2612"
    },
    {
      "channel": 5,
      "note": 79,
      "start": 11.6071,
      "duration": 0.1272,
      "velocity": 76,
      "chip": "ym2612"
    },
    {
      "channel": 2,
      "note": 81,
      "start": 11.6097,
      "duration": 0.0579,
      "velocity": 121,
      "chip": "ym2612"
    },
    {
      "channel": 1,
      "note": 47,
      "start": 11.7374,
      "duration": 0.1966,
      "velocity": 96,
      "chip": "ym2612"
    },
    {
      "channel": 2,
      "note": 81,
      "start": 11.74,
      "duration": 0.0942,
      "velocity": 121,
      "chip": "ym2612"
    },
    {
      "channel": 3,
      "note": 66,
      "start": 11.7432,
      "duration": 0.1076,
      "velocity": 127,
      "chip": "ym2612"
    },
    {
      "channel": 0,
      "note": 69,
      "start": 11.8876,
      "duration": 0.1298,
      "velocity": 88,
      "chip": "ym2612"
    },
    {
      "channel": 0,
      "note": 67,
      "start": 12.0202,
      "duration": 0.1471,
      "velocity": 88,
      "chip": "ym2612"
    },
    {
      "channel": 4,
      "note": 81,
      "start": 12.0232,
      "duration": 0.161,
      "velocity": 76,
      "chip": "ym2612"
    },
    {
      "channel": 5,
      "note": 78,
      "start": 12.026,
      "duration": 0.1583,
      "velocity": 76,
      "chip": "ym2612"
    },
    {
      "channel": 2,
      "note": 81,
      "start": 12.0288,
      "duration": 0.0388,
      "velocity": 121,
      "chip": "ym2612"
    },
    {
      "channel": 0,
      "note": 66,
      "start": 12.1702,
      "duration": 0.1306,
      "velocity": 88,
      "chip": "ym2612"
    },
    {
      "channel": 1,
      "note": 47,
      "start": 12.1727,
      "duration": 0.178,
      "velocity": 96,
      "chip": "ym2612"
    },
    {
      "channel": 2,
      "note": 81,
      "start": 12.1753,
      "duration": 0.059,
      "velocity": 121,
      "chip": "ym2612"
    },
    {
      "channel": 3,
      "note": 66,
      "start": 12.1786,
      "duration": 0.0722,
      "velocity": 127,
      "chip": "ym2612"
    },
    {
      "channel": 0,
      "note": 63,
      "start": 12.3038,
      "duration": 0.0637,
      "velocity": 88,
      "chip": "ym2612"
    },
    {
      "channel": 0,
      "note": 59,
      "start": 12.4368,
      "duration": 0.0638,
      "velocity": 88,
      "chip": "ym2612"
    },
    {
      "channel": 4,
      "note": 81,
      "start": 12.4403,
      "duration": 0.1106,
      "velocity": 76,
      "chip": "ym2612"
    },
    {
      "channel": 5,
      "note": 78,
      "start": 12.4431,
      "duration": 0.1079,
      "velocity": 76,
      "chip": "ym2612"
    },
    {
      "channel": 2,
      "note": 81,
      "start": 12.4461,
      "duration": 0.0381,
      "velocity": 121,
      "chip": "ym2612"
    },
    {
      "channel": 0,
      "note": 64,
      "start": 12.5873,
      "duration": 0.83,
      "velocity": 88,
      "chip": "ym2612"
    },
    {
      "channel": 4,
      "note": 79,
      "start": 12.5902,
      "duration": 0.1107,
      "velocity": 76,
      "chip": "ym2612"
    },
    {
      "channel": 1,
      "note": 52,
      "start": 12.5927,
      "duration": 0.1415,
      "velocity": 96,
      "chip": "ym2612"
    },
    {
      "channel": 2,
      "note": 81,
      "start": 12.5953,
      "duration": 0.0724,
      "velocity": 121,
      "chip": "ym2612"
    },
    {
      "channel": 3,
      "note": 66,
      "start": 12.5985,
      "duration": 0.069,
      "velocity": 127,
      "chip": "ym2612"
    },
    {
      "channel": 4,
      "note": 83,
      "start": 12.8543,
      "duration": 0.1466,
      "velocity": 76,
      "chip": "ym2612"
    },
    {
      "channel": 5,
      "note": 79,
      "start": 12.8571,
      "duration": 0.1439,
      "velocity": 76,
      "chip": "ym2612"
    },
    {
      "channel": 2,
      "note": 81,
      "start": 12.8598,
      "duration": 0.0746,
      "velocity": 121,
      "chip": "ym2612"
    },
    {
      "channel": 3,
      "note": 109,
      "start": 12.8877,
      "duration": 0.0465,
      "velocity": 115,
      "chip": "ym2612"
    },
    {
      "channel": 3,
      "note": 110,
      "start": 12.9379,
      "duration": 0.0129,
      "velocity": 115,
      "chip": "ym2612"
    },
    {
      "channel": 3,
      "note": 111,
      "start": 12.9541,
      "duration": 0.0634,
      "velocity": 115,
      "chip": "ym2612"
    },
    {
      "channel": 1,
      "note": 47,
      "start": 13.004,
      "duration": 0.1802,
      "velocity": 96,
      "chip": "ym2612"
    },
    {
      "channel": 2,
      "note": 81,
      "start": 13.0065,
      "duration": 0.0611,
      "velocity": 121,
      "chip": "ym2612"
    },
    {
      "channel": 4,
      "note": 66,
      "start": 13.0102,
      "duration": 0.0739,
      "velocity": 127,
      "chip": "ym2612"
    },
    {
      "channel": 3,
      "note": 112,
      "start": 13.0207,
      "duration": 0.0968,
      "velocity": 115,
      "chip": "ym2612"
    },
    {
      "channel": 3,
      "note": 104,
      "start": 13.2873,
      "duration": 0.0301,
      "velocity": 115,
      "chip": "ym2612"
    },
    {
      "channel": 5,
      "note": 83,
      "start": 13.2903,
      "duration": 0.1273,
      "velocity": 76,
      "chip": "ym2612"
    },
    {
      "channel": 2,
      "note": 79,
      "start": 13.2933,
      "duration": 0.0009,
      "velocity": 76,
      "chip": "ym2612"
    },
    {
      "channel": 2,
      "note": 81,
      "start": 13.296,
      "duration": 0.0216,
      "velocity": 121,
      "chip": "ym2612"
    },
    {
      "channel": 3,
      "note": 105,
      "start": 13.3208,
      "duration": 0.0301,
      "velocity": 115,
      "chip": "ym2612"
    },
    {
      "channel": 3,
      "note": 106,
      "start": 13.3545,
      "duration": 0.063,
      "velocity": 115,
      "chip": "ym2612"
    },
    {
      "channel": 3,
      "note": 107,
      "start": 13.4209,
      "duration": 0.0966,
      "velocity": 115,
      "chip": "ym2612"
    },
    {
      "channel": 1,
      "note": 52,
      "start": 13.4237,
      "duration": 0.1604,
      "velocity": 96,
      "chip": "ym2612"
    },
    {
      "channel": 2,
      "note": 81,
      "start": 13.4262,
      "duration": 0.058,
      "velocity": 121,
      "chip": "ym2612"
    },
    {
      "channel": 4,
      "note": 66,
      "start": 13.4295,
      "duration": 0.088,
      "velocity": 127,
      "chip": "ym2612"
    },
    {
      "channel": 3,
      "note": 102,
      "start": 13.6539,
      "duration": 0.0636,
      "velocity": 115,
      "chip": "ym2612"
    },
    {
      "channel": 5,
      "note": 83,
      "start": 13.7046,
      "duration": 0.1298,
      "velocity": 76,
      "chip": "ym2612"
    },
    {
      "channel": 0,
      "note": 79,
      "start": 13.7075,
      "duration": 0.1266,
      "velocity": 76,
      "chip": "ym2612"
    },
    {
      "channel": 2,
      "note": 81,
      "start": 13.7106,
      "duration": 0.0404,
      "velocity": 121,
      "chip": "ym2612"
    },
    {
      "channel": 3,
      "note": 103,
      "start": 13.7209,
      "duration": 0.0466,
      "velocity": 115,
      "chip": "ym2612"
    },
    {
      "channel": 3,
      "note": 104,
      "start": 13.7707,
      "duration": 0.0635,
      "velocity": 115,
      "chip": "ym2612"
    },
    {
      "channel": 3,
      "note": 105,
      "start": 13.838,
      "duration": 0.0963,
      "velocity": 115,
      "chip": "ym2612"
    },
    {
      "channel": 1,
      "note": 49,
      "start": 13.8412,
      "duration": 0.0929,
      "velocity": 96,
      "chip": "ym2612"
    },
    {
      "channel": 2,
      "note": 81,
      "start": 13.8438,
      "duration": 0.0571,
      "velocity": 121,
      "chip": "ym2612"
    },
    {
      "channel": 4,
      "note": 66,
      "start": 13.8471,
      "duration": 0.0873,
      "velocity": 127,
      "chip": "ym2612"
    },
    {
      "channel": 3,
      "note": 103,
      "start": 13.9872,
      "duration": 0.0303,
      "velocity": 115,
      "chip": "ym2612"
    },
    {
      "channel": 1,
      "note": 50,
      "start": 13.9898,
      "duration": 0.0777,
      "velocity": 96,
      "chip": "ym2612"
    },
    {
      "channel": 3,
      "note": 102,
      "start": 14.1206,
      "duration": 0.0635,
      "velocity": 115,
      "chip": "ym2612"
    },
    {
      "channel": 0,
      "note": 63,
      "start": 14.1235,
      "duration": 0.1272,
      "velocity": 88,
      "chip": "ym2612"
    },
    {
      "channel": 5,
      "note": 84,
      "start": 14.1265,
      "duration": 0.1078,
      "velocity": 76,
      "chip": "ym2612"
    },
    {
      "channel": 2,
      "note": 81,
      "start": 14.1295,
      "duration": 0.0031,
      "velocity": 76,
      "chip": "ym2612"
    },
    {
      "channel": 1,
      "note": 51,
      "start": 14.1318,
      "duration": 0.0856,
      "velocity": 96,
      "chip": "ym2612"
    },
    {
      "channel": 2,
      "note": 81,
      "start": 14.1346,
      "duration": 0.033,
      "velocity": 121,
      "chip": "ym2612"
    },
    {
      "channel": 3,
      "note": 100,
      "start": 14.2543,
      "duration": 0.1132,
      "velocity": 115,
      "chip": "ym2612"
    },
    {
      "channel": 0,
      "note": 64,
      "start": 14.2572,
      "duration": 0.1101,
      "velocity": 88,
      "chip": "ym2612"
    },
    {
      "channel": 1,
      "note": 52,
      "start": 14.26,
      "duration": 0.1907,
      "velocity": 96,
      "chip": "ym2612"
    },
    {
      "channel": 2,
      "note": 81,
      "start": 14.2626,
      "duration": 0.0716,
      "velocity": 121,
      "chip": "ym2612"
    },
    {
      "channel": 4,
      "note": 66,
      "start": 14.2659,
      "duration": 0.085,
      "velocity": 127,
      "chip": "ym2612"
    },
    {
      "channel": 5,
      "note": 83,
      "start": 14.5375,
      "duration": 0.1134,
      "velocity": 76,
      "chip": "ym2612"
    },
    {
      "channel": 2,
      "note": 79,
      "start": 14.5404,
      "duration": 0.0009,
      "velocity": 76,
      "chip": "ym2612"
    },
    {
      "channel": 2,
      "note": 81,
      "start": 14.5432,
      "duration": 0.0412,
      "velocity": 121,
      "chip": "ym2612"
    },
    {
      "channel": 1,
      "note": 47,
      "start": 14.6871,
      "duration": 0.1803,
      "velocity": 96,
      "chip": "ym2612"
    },
    {
      "channel": 2,
      "note": 81,
      "start": 14.6901,
      "duration": 0.0609,
      "velocity": 121,
      "chip": "ym2612"
    },
    {
      "channel": 4,
      "note": 66,
      "start": 14.6933,
      "duration": 0.0742,
      "velocity": 127,
      "chip": "ym2612"
    },
    {
      "channel": 0,
      "note": 66,
      "start": 14.9538,
      "duration": 0.147,
      "velocity": 88,
      "chip": "ym2612"
    },
    {
      "channel": 5,
      "note": 83,
      "start": 14.9568,
      "duration": 0.1609,
      "velocity": 76,
      "chip": "ym2612"
    },
    {
      "channel": 3,
      "note": 79,
      "start": 14.9601,
      "duration": 0.1575,
      "velocity": 76,
      "chip": "ym2612"
    },
    {
      "channel": 2,
      "note": 81,
      "start": 14.9626,
      "duration": 0.0717,
      "velocity": 121,
      "chip": "ym2612"
    },
    {
      "channel": 0,
      "note": 67,
      "start": 15.1039,
      "duration": 0.1134,
      "velocity": 88,
      "chip": "ym2612"
    },
    {
      "channel": 1,
      "note": 52,
      "start": 15.1064,
      "duration": 0.1777,
      "velocity": 96,
      "chip": "ym2612"
    },
    {
      "channel": 2,
      "note": 81,
      "start": 15.1088,
      "duration": 0.0587,
      "velocity": 121,
      "chip": "ym2612"
    },
    {
      "channel": 4,
      "note": 66,
      "start": 15.1122,
      "duration": 0.1054,
      "velocity": 127,
      "chip": "ym2612"
    },
    {
      "channel": 3,
      "note": 83,
      "start": 15.3874,
      "duration": 0.1468,
      "velocity": 76,
      "chip": "ym2612"
    },
    {
      "channel": 5,
      "note": 79,
      "start": 15.3902,
      "duration": 0.1442,
      "velocity": 76,
      "chip": "ym2612"
    },
    {
      "channel": 2,
      "note": 81,
      "start": 15.3929,
      "duration": 0.0247,
      "velocity": 121,
      "chip": "ym2612"
    },
    {
      "channel": 1,
      "note": 47,
      "start": 15.5205,
      "duration": 0.1802,
      "velocity": 96,
      "chip": "ym2612"
    },
    {
      "channel": 2,
      "note": 81,
      "start": 15.523,
      "duration": 0.0612,
      "velocity": 121,
      "chip": "ym2612"
    },
    {
      "channel": 4,
      "note": 66,
      "start": 15.5265,
      "duration": 0.091,
      "velocity": 127,
      "chip": "ym2612"
    },
    {
      "channel": 0,
      "note": 63,
      "start": 15.8036,
      "duration": 0.1137,
      "velocity": 88,
      "chip": "ym2612"
    },
    {
      "channel": 3,
      "note": 84,
      "start": 15.8066,
      "duration": 0.111,
      "velocity": 76,
      "chip": "ym2612"
    },
    {
      "channel": 5,
      "note": 81,
      "start": 15.8094,
      "duration": 0.1083,
      "velocity": 76,
      "chip": "ym2612"
    },
    {
      "channel": 2,
      "note": 81,
      "start": 15.8122,
      "duration": 0.0388,
      "velocity": 121,
      "chip": "ym2612"
    },
    {
      "channel": 0,
      "note": 64,
      "start": 15.9368,
      "duration": 0.1139,
      "velocity": 88,
      "chip": "ym2612"
    },
    {
      "channel": 1,
      "note": 52,
      "start": 15.9393,
      "duration": 0.1782,
      "velocity": 96,
      "chip": "ym2612"
    },
    {
      "channel": 2,
      "note": 81,
      "start": 15.9422,
      "duration": 0.0587,
      "velocity": 121,
      "chip": "ym2612"
    },
    {
      "channel": 4,
      "note": 66,
      "start": 15.9457,
      "duration": 0.1053,
      "velocity": 127,
      "chip": "ym2612"
    },
    {
      "channel": 0,
      "note": 66,
      "start": 16.0868,
      "duration": 0.114,
      "velocity": 88,
      "chip": "ym2612"
    },
    {
      "channel": 0,
      "note": 67,
      "start": 16.2203,
      "duration": 0.1304,
      "velocity": 88,
      "chip": "ym2612"
    },
    {
      "channel": 3,
      "note": 83,
      "start": 16.2233,
      "duration": 0.1276,
      "velocity": 76,
      "chip": "ym2612"
    },
    {
      "channel": 5,
      "note": 79,
      "start": 16.2261,
      "duration": 0.1249,
      "velocity": 76,
      "chip": "ym2612"
    },
    {
      "channel": 2,
      "note": 81,
      "start": 16.2288,
      "duration": 0.0389,
      "velocity": 121,
      "chip": "ym2612"
    },
    {
      "channel": 0,
      "note": 69,
      "start": 16.354,
      "duration": 0.0966,
      "velocity": 88,
      "chip": "ym2612"
    },
    {
      "channel": 1,
      "note": 47,
      "start": 16.3565,
      "duration": 0.1777,
      "velocity": 96,
      "chip": "ym2612"
    },
    {
      "channel": 2,
      "note": 81,
      "start": 16.359,
      "duration": 0.0753,
      "velocity": 121,
      "chip": "ym2612"
    },
    {
      "channel": 4,
      "note": 66,
      "start": 16.3624,
      "duration": 0.1052,
      "velocity": 127,
      "chip": "ym2612"
    },
    {
      "channel": 0,
      "note": 72,
      "start": 16.6374,
      "duration": 0.13,
      "velocity": 88,
      "chip": "ym2612"
    },
    {
      "channel": 3,
      "note": 83,
      "start": 16.6407,
      "duration": 0.127,
      "velocity": 76,
      "chip": "ym2612"
    },
    {
      "channel": 5,
      "note": 79,
      "start": 16.6435,
      "duration": 0.1243,
      "velocity": 76,
      "chip": "ym2612"
    },
    {
      "channel": 2,
      "note": 81,
      "start": 16.6461,
      "duration": 0.0381,
      "velocity": 121,
      "chip": "ym2612"
    },
    {
      "channel": 0,
      "note": 71,
      "start": 16.7707,
      "duration": 0.1133,
      "velocity": 88,
      "chip": "ym2612"
    },
    {
      "channel": 1,
      "note": 52,
      "start": 16.7734,
      "duration": 0.2107,
      "velocity": 96,
      "chip": "ym2612"
    },
    {
      "channel": 2,
      "note": 81,
      "start": 16.776,
      "duration": 0.075,
      "velocity": 121,
      "chip": "ym2612"
    },
    {
      "channel": 4,
      "note": 66,
      "start": 16.7793,
      "duration": 0.105,
      "velocity": 127,
      "chip": "ym2612"
    },
    {
      "channel": 0,
      "note": 70,
      "start": 17.0536,
      "duration": 0.1137,
      "velocity": 88,
      "chip": "ym2612"
    },
    {
      "channel": 3,
      "note": 83,
      "start": 17.0566,
      "duration": 0.1609,
      "velocity": 76,
      "chip": "ym2612"
    },
    {
      "channel": 5,
      "note": 79,
      "start": 17.0594,
      "duration": 0.1583,
      "velocity": 76,
      "chip": "ym2612"
    },
    {
      "channel": 2,
      "note": 81,
      "start": 17.062,
      "duration": 0.0557,
      "velocity": 121,
      "chip": "ym2612"
    },
    {
      "channel": 0,
      "note": 71,
      "start": 17.2036,
      "duration": 0.1137,
      "velocity": 88,
      "chip": "ym2612"
    },
    {
      "channel": 1,
      "note": 50,
      "start": 17.2068,
      "duration": 0.0773,
      "velocity": 96,
      "chip": "ym2612"
    },
    {
      "channel": 2,
      "note": 81,
      "start": 17.2096,
      "duration": 0.058,
      "velocity": 121,
      "chip": "ym2612"
    },
    {
      "channel": 4,
      "note": 66,
      "start": 17.2129,
      "duration": 0.1048,
      "velocity": 127,
      "chip": "ym2612"
    },
    {
      "channel": 1,
      "note": 51,
      "start": 17.3372,
      "duration": 0.0969,
      "velocity": 96,
      "chip": "ym2612"
    },
    {
      "channel": 0,
      "note": 76,
      "start": 17.4704,
      "duration": 0.147,
      "velocity": 88,
      "chip": "ym2612"
    },
    {
      "channel": 3,
      "note": 83,
      "start": 17.4734,
      "duration": 0.1443,
      "velocity": 76,
      "chip": "ym2612"
    },
    {
      "channel": 5,
      "note": 79,
      "start": 17.4762,
      "duration": 0.1417,
      "velocity": 76,
      "chip": "ym2612"
    },
    {
      "channel": 1,
      "note": 52,
      "start": 17.4786,
      "duration": 0.0889,
      "velocity": 96,
      "chip": "ym2612"
    },
    {
      "channel": 2,
      "note": 81,
      "start": 17.4811,
      "duration": 0.0365,
      "velocity": 121,
      "chip": "ym2612"
    },
    {
      "channel": 0,
      "note": 75,
      "start": 17.6213,
      "duration": 1.2795,
      "velocity": 88,
      "chip": "ym2612"
    },
    {
      "channel": 1,
      "note": 53,
      "start": 17.6241,
      "duration": 0.1766,
      "velocity": 96,
      "chip": "ym2612"
    },
    {
      "channel": 2,
      "note": 81,
      "start": 17.6267,
      "duration": 0.0576,
      "velocity": 121,
      "chip": "ym2612"
    },
    {
      "channel": 4,
      "note": 66,
      "start": 17.6299,
      "duration": 0.1043,
      "velocity": 127,
      "chip": "ym2612"
    },
    {
      "channel": 3,
      "note": 81,
      "start": 17.9041,
      "duration": 0.1468,
      "velocity": 76,
      "chip": "ym2612"
    },
    {
      "channel": 2,
      "note": 81,
      "start": 17.9068,
      "duration": 0.0275,
      "velocity": 121,
      "chip": "ym2612"
    },
    {
      "channel": 1,
      "note": 48,
      "start": 18.0373,
      "duration": 0.2302,
      "velocity": 96,
      "chip": "ym2612"
    },
    {
      "channel": 2,
      "note": 81,
      "start": 18.0399,
      "duration": 0.061,
      "velocity": 121,
      "chip": "ym2612"
    },
    {
      "channel": 4,
      "note": 66,
      "start": 18.0437,
      "duration": 0.0905,
      "velocity": 127,
      "chip": "ym2612"
    },
    {
      "channel": 3,
      "note": 81,
      "start": 18.321,
      "duration": 0.1632,
      "velocity": 76,
      "chip": "ym2612"
    },
    {
      "channel": 2,
      "note": 81,
      "start": 18.3241,
      "duration": 0.0436,
      "velocity": 121,
      "chip": "ym2612"
    },
    {
      "channel": 5,
      "note": 93,
      "start": 18.4542,
      "duration": 0.0634,
      "velocity": 115,
      "chip": "ym2612"
    },
    {
      "channel": 1,
      "note": 53,
      "start": 18.4569,
      "duration": 0.1772,
      "velocity": 96,
      "chip": "ym2612"
    },
    {
      "channel": 2,
      "note": 81,
      "start": 18.4595,
      "duration": 0.0581,
      "velocity": 121,
      "chip": "ym2612"
    },
    {
      "channel": 4,
      "note": 66,
      "start": 18.4628,
      "duration": 0.0882,
      "velocity": 127,
      "chip": "ym2612"
    },
    {
      "channel": 5,
      "note": 94,
      "start": 18.6039,
      "duration": 0.0304,
      "velocity": 115,
      "chip": "ym2612"
    },
    {
      "channel": 5,
      "note": 96,
      "start": 18.7378,
      "duration": 0.0631,
      "velocity": 115,
      "chip": "ym2612"
    },
    {
      "channel": 3,
      "note": 81,
      "start": 18.7409,
      "duration": 0.1266,
      "velocity": 76,
      "chip": "ym2612"
    },
    {
      "channel": 2,
      "note": 81,
      "start": 18.7435,
      "duration": 0.0408,
      "velocity": 121,
      "chip": "ym2612"
    },
    {
      "channel": 3,
      "note": 93,
      "start": 18.8709,
      "duration": 0.0966,
      "velocity": 76,
      "chip": "ym2612"
    },
    {
      "channel": 1,
      "note": 48,
      "start": 18.8734,
      "duration": 0.2106,
      "velocity": 96,
      "chip": "ym2612"
    },
    {
      "channel": 2,
      "note": 81,
      "start": 18.876,
      "duration": 0.0749,
      "velocity": 121,
      "chip": "ym2612"
    },
    {
      "channel": 4,
      "note": 66,
      "start": 18.8793,
      "duration": 0.0883,
      "velocity": 127,
      "chip": "ym2612"
    },
    {
      "channel": 3,
      "note": 94,
      "start": 19.0207,
      "duration": 0.0802,
      "velocity": 76,
      "chip": "ym2612"
    },
    {
      "channel": 3,
      "note": 96,
      "start": 19.1543,
      "duration": 0.1132,
      "velocity": 76,
      "chip": "ym2612"
    },
    {
      "channel": 5,
      "note": 81,
      "start": 19.1572,
      "duration": 0.1104,
      "velocity": 76,
      "chip": "ym2612"
    },
    {
      "channel": 2,
      "note": 81,
      "start": 19.1599,
      "duration": 0.041,
      "velocity": 121,
      "chip": "ym2612"
    },
    {
      "channel": 0,
      "note": 99,
      "start": 19.3041,
      "duration": 0.0633,
      "velocity": 115,
      "chip": "ym2612"
    },
    {
      "channel": 1,
      "note": 53,
      "start": 19.3067,
      "duration": 0.1941,
      "velocity": 96,
      "chip": "ym2612"
    },
    {
      "channel": 2,
      "note": 81,
      "start": 19.3092,
      "duration": 0.0751,
      "velocity": 121,
      "chip": "ym2612"
    },
    {
      "channel": 4,
      "note": 66,
      "start": 19.3125,
      "duration": 0.0716,
      "velocity": 127,
      "chip": "ym2612"
    },
    {
      "channel": 0,
      "note": 101,
      "start": 19.4369,
      "duration": 0.0637,
      "velocity": 115,
      "chip": "ym2612"
    },
    {
      "channel": 0,
      "note": 102,
      "start": 19.5706,
      "duration": 0.0968,
      "velocity": 115,
      "chip": "ym2612"
    },
    {
      "channel": 3,
      "note": 81,
      "start": 19.5737,
      "duration": 0.1438,
      "velocity": 76,
      "chip": "ym2612"
    },
    {
      "channel": 2,
      "note": 81,
      "start": 19.5767,
      "duration": 0.0409,
      "velocity": 121,
      "chip": "ym2612"
    },
    {
      "channel": 3,
      "note": 87,
      "start": 19.7207,
      "duration": 0.1301,
      "velocity": 76,
      "chip": "ym2612"
    },
    {
      "channel": 1,
      "note": 48,
      "start": 19.7231,
      "duration": 0.1944,
      "velocity": 96,
      "chip": "ym2612"
    },
    {
      "channel": 2,
      "note": 81,
      "start": 19.7257,
      "duration": 0.0585,
      "velocity": 121,
      "chip": "ym2612"
    },
    {
      "channel": 4,
      "note": 66,
      "start": 19.729,
      "duration": 0.0719,
      "velocity": 127,
      "chip": "ym2612"
    },
    {
      "channel": 3,
      "note": 89,
      "start": 19.8545,
      "duration": 0.0963,
      "velocity": 76,
      "chip": "ym2612"
    },
    {
      "channel": 3,
      "note": 90,
      "start": 20.0041,
      "duration": 0.08,
      "velocity": 76,
      "chip": "ym2612"
    },
    {
      "channel": 5,
      "note": 81,
      "start": 20.0071,
      "duration": 0.1272,
      "velocity": 76,
      "chip": "ym2612"
    },
    {
      "channel": 2,
      "note": 81,
      "start": 20.0098,
      "duration": 0.0245,
      "velocity": 121,
      "chip": "ym2612"
    },
    {
      "channel": 0,
      "note": 95,
      "start": 20.1373,
      "duration": 0.0634,
      "velocity": 115,
      "chip": "ym2612"
    },
    {
      "channel": 3,
      "note": 87,
      "start": 20.1402,
      "duration": 0.094,
      "velocity": 76,
      "chip": "ym2612"
    },
    {
      "channel": 1,
      "note": 47,
      "start": 20.1426,
      "duration": 0.2082,
      "velocity": 96,
      "chip": "ym2612"
    },
    {
      "channel": 2,
      "note": 81,
      "start": 20.1452,
      "duration": 0.0559,
      "velocity": 121,
      "chip": "ym2612"
    },
    {
      "channel": 4,
      "note": 66,
      "start": 20.1484,
      "duration": 0.0859,
      "velocity": 127,
      "chip": "ym2612"
    },
    {
      "channel": 0,
      "note": 99,
      "start": 20.2702,
      "duration": 0.0804,
      "velocity": 115,
      "chip": "ym2612"
    },
    {
      "channel": 3,
      "note": 90,
      "start": 20.2732,
      "duration": 0.0778,
      "velocity": 76,
      "chip": "ym2612"
    },
    {
      "channel": 0,
      "note": 102,
      "start": 20.4204,
      "duration": 0.047,
      "velocity": 115,
      "chip": "ym2612"
    },
    {
      "channel": 3,
      "note": 95,
      "start": 20.4233,
      "duration": 0.0608,
      "velocity": 76,
      "chip": "ym2612"
    },
    {
      "channel": 5,
      "note": 83,
      "start": 20.4263,
      "duration": 0.1747,
      "velocity": 76,
      "chip": "ym2612"
    },
    {
      "channel": 2,
      "note": 81,
      "start": 20.4288,
      "duration": 0.0555,
      "velocity": 121,
      "chip": "ym2612"
    },
    {
      "channel": 0,
      "note": 103,
      "start": 20.5538,
      "duration": 0.0636,
      "velocity": 115,
      "chip": "ym2612"
    },
    {
      "channel": 3,
      "note": 99,
      "start": 20.5571,
      "duration": 0.0938,
      "velocity": 76,
      "chip": "ym2612"
    },
    {
      "channel": 1,
      "note": 49,
      "start": 20.5602,
      "duration": 0.0907,
      "velocity": 96,
      "chip": "ym2612"
    },
    {
      "channel": 2,
      "note": 81,
      "start": 20.5626,
      "duration": 0.0551,
      "velocity": 121,
      "chip": "ym2612"
    },
    {
      "channel": 4,
      "note": 66,
      "start": 20.5659,
      "duration": 0.0852,
      "velocity": 127,
      "chip": "ym2612"
    },
    {
      "channel": 0,
      "note": 105,
      "start": 20.6211,
      "duration": 0.0963,
      "velocity": 115,
      "chip": "ym2612"
    },
    {
      "channel": 3,
      "note": 95,
      "start": 20.7041,
      "duration": 0.0634,
      "velocity": 76,
      "chip": "ym2612"
    },
    {
      "channel": 1,
      "note": 50,
      "start": 20.7066,
      "duration": 0.0776,
      "velocity": 96,
      "chip": "ym2612"
    },
    {
      "channel": 0,
      "note": 103,
      "start": 20.7207,
      "duration": 0.0633,
      "velocity": 115,
      "chip": "ym2612"
    },
    {
      "channel": 0,
      "note": 102,
      "start": 20.837,
      "duration": 0.0637,
      "velocity": 115,
      "chip": "ym2612"
    },
    {
      "channel": 5,
      "note": 63,
      "start": 20.84,
      "duration": 0.1277,
      "velocity": 88,
      "chip": "ym2612"
    },
    {
      "channel": 3,
      "note": 93,
      "start": 20.8428,
      "duration": 0.0581,
      "velocity": 76,
      "chip": "ym2612"
    },
    {
      "channel": 2,
      "note": 83,
      "start": 20.8459,
      "duration": 0.0034,
      "velocity": 76,
      "chip": "ym2612"
    },
    {
      "channel": 1,
      "note": 51,
      "start": 20.8482,
      "duration": 0.0692,
      "velocity": 96,
      "chip": "ym2612"
    },
    {
      "channel": 2,
      "note": 81,
      "start": 20.8512,
      "duration": 0.0499,
      "velocity": 121,
      "chip": "ym2612"
    },
    {
      "channel": 0,
      "note": 100,
      "start": 20.9708,
      "duration": 0.1465,
      "velocity": 115,
      "chip": "ym2612"
    },
    {
      "channel": 5,
      "note": 64,
      "start": 20.9737,
      "duration": 0.1107,
      "velocity": 88,
      "chip": "ym2612"
    },
    {
      "channel": 3,
      "note": 91,
      "start": 20.9767,
      "duration": 0.1075,
      "velocity": 76,
      "chip": "ym2612"
    },
    {
      "channel": 1,
      "note": 52,
      "start": 20.9793,
      "duration": 0.1715,
      "velocity": 96,
      "chip": "ym2612"
    },
    {
      "channel": 2,
      "note": 81,
      "start": 20.9819,
      "duration": 0.0859,
      "velocity": 121,
      "chip": "ym2612"
    },
    {
      "channel": 4,
      "note": 66,
      "start": 20.9853,
      "duration": 0.0823,
      "velocity": 127,
      "chip": "ym2612"
    },
    {
      "channel": 3,
      "note": 79,
      "start": 21.2542,
      "duration": 0.1634,
      "velocity": 76,
      "chip": "ym2612"
    },
    {
      "channel": 4,
      "note": 83,
      "start": 21.2575,
      "duration": 0.1602,
      "velocity": 76,
      "chip": "ym2612"
    },
    {
      "channel": 2,
      "note": 81,
      "start": 21.2601,
      "duration": 0.0575,
      "velocity": 121,
      "chip": "ym2612"
    },
    {
      "channel": 1,
      "note": 47,
      "start": 21.3871,
      "duration": 0.197,
      "velocity": 96,
      "chip": "ym2612"
    },
    {
      "channel": 2,
      "note": 81,
      "start": 21.3897,
      "duration": 0.0946,
      "velocity": 121,
      "chip": "ym2612"
    },
    {
      "channel": 5,
      "note": 66,
      "start": 21.3931,
      "duration": 0.0911,
      "velocity": 127,
      "chip": "ym2612"
    },
    {
      "channel": 0,
      "note": 66,
      "start": 21.6707,
      "duration": 0.1466,
      "velocity": 88,
      "chip": "ym2612"
    },
    {
      "channel": 3,
      "note": 79,
      "start": 21.6737,
      "duration": 0.1771,
      "velocity": 76,
      "chip": "ym2612"
    },
    {
      "channel": 4,
      "note": 83,
      "start": 21.6764,
      "duration": 0.1745,
      "velocity": 76,
      "chip": "ym2612"
    },
    {
      "channel": 2,
      "note": 81,
      "start": 21.6791,
      "duration": 0.0385,
      "velocity": 121,
      "chip": "ym2612"
    },
    {
      "channel": 0,
      "note": 67,
      "start": 21.8206,
      "duration": 0.1135,
      "velocity": 88,
      "chip": "ym2612"
    },
    {
      "channel": 1,
      "note": 52,
      "start": 21.823,
      "duration": 0.1778,
      "velocity": 96,
      "chip": "ym2612"
    },
    {
      "channel": 2,
      "note": 81,
      "start": 21.826,
      "duration": 0.0583,
      "velocity": 121,
      "chip": "ym2612"
    },
    {
      "channel": 5,
      "note": 66,
      "start": 21.8293,
      "duration": 0.0716,
      "velocity": 127,
      "chip": "ym2612"
    },
    {
      "channel": 3,
      "note": 79,
      "start": 22.0876,
      "duration": 0.2132,
      "velocity": 76,
      "chip": "ym2612"
    },
    {
      "channel": 4,
      "note": 83,
      "start": 22.0903,
      "duration": 0.2106,
      "velocity": 76,
      "chip": "ym2612"
    },
    {
      "channel": 2,
      "note": 81,
      "start": 22.0929,
      "duration": 0.0747,
      "velocity": 121,
      "chip": "ym2612"
    },
    {
      "channel": 1,
      "note": 47,
      "start": 22.2372,
      "duration": 0.1969,
      "velocity": 96,
      "chip": "ym2612"
    },
    {
      "channel": 2,
      "note": 81,
      "start": 22.2396,
      "duration": 0.0615,
      "velocity": 121,
      "chip": "ym2612"
    },
    {
      "channel": 5,
      "note": 66,
      "start": 22.243,
      "duration": 0.0745,
      "velocity": 127,
      "chip": "ym2612"
    },
    {
      "channel": 0,
      "note": 63,
      "start": 22.5203,
      "duration": 0.1138,
      "velocity": 88,
      "chip": "ym2612"
    },
    {
      "channel": 3,
      "note": 79,
      "start": 22.5233,
      "duration": 0.1444,
      "velocity": 76,
      "chip": "ym2612"
    },
    {
      "channel": 4,
      "note": 83,
      "start": 22.526,
      "duration": 0.1417,
      "velocity": 76,
      "chip": "ym2612"
    },
    {
      "channel": 2,
      "note": 81,
      "start": 22.5288,
      "duration": 0.0222,
      "velocity": 121,
      "chip": "ym2612"
    },
    {
      "channel": 0,
      "note": 64,
      "start": 22.6535,
      "duration": 0.1139,
      "velocity": 88,
      "chip": "ym2612"
    },
    {
      "channel": 1,
      "note": 52,
      "start": 22.656,
      "duration": 0.2115,
      "velocity": 96,
      "chip": "ym2612"
    },
    {
      "channel": 2,
      "note": 81,
      "start": 22.6586,
      "duration": 0.059,
      "velocity": 121,
      "chip": "ym2612"
    },
    {
      "channel": 5,
      "note": 66,
      "start": 22.6619,
      "duration": 0.0891,
      "velocity": 127,
      "chip": "ym2612"
    },
    {
      "channel": 0,
      "note": 66,
      "start": 22.7873,
      "duration": 0.1467,
      "velocity": 88,
      "chip": "ym2612"
    },
    {
      "channel": 0,
      "note": 67,
      "start": 22.937,
      "duration": 0.1137,
      "velocity": 88,
      "chip": "ym2612"
    },
    {
      "channel": 3,
      "note": 79,
      "start": 22.9404,
      "duration": 0.1771,
      "velocity": 76,
      "chip": "ym2612"
    },
    {
      "channel": 4,
      "note": 83,
      "start": 22.9432,
      "duration": 0.1745,
      "velocity": 76,
      "chip": "ym2612"
    },
    {
      "channel": 2,
      "note": 81,
      "start": 22.9459,
      "duration": 0.0384,
      "velocity": 121,
      "chip": "ym2612"
    },
    {
      "channel": 0,
      "note": 69,
      "start": 23.0704,
      "duration": 0.0969,
      "velocity": 88,
      "chip": "ym2612"
    },
    {
      "channel": 1,
      "note": 47,
      "start": 23.0729,
      "duration": 0.2112,
      "velocity": 96,
      "chip": "ym2612"
    },
    {
      "channel": 2,
      "note": 81,
      "start": 23.0759,
      "duration": 0.0583,
      "velocity": 121,
      "chip": "ym2612"
    },
    {
      "channel": 5,
      "note": 66,
      "start": 23.0793,
      "duration": 0.1048,
      "velocity": 127,
      "chip": "ym2612"
    },
    {
      "channel": 0,
      "note": 72,
      "start": 23.3538,
      "duration": 0.1136,
      "velocity": 88,
      "chip": "ym2612"
    },
    {
      "channel": 3,
      "note": 79,
      "start": 23.3568,
      "duration": 0.1608,
      "velocity": 76,
      "chip": "ym2612"
    },
    {
      "channel": 4,
      "note": 83,
      "start": 23.3595,
      "duration": 0.1582,
      "velocity": 76,
      "chip": "ym2612"
    },
    {
      "channel": 2,
      "note": 81,
      "start": 23.3622,
      "duration": 0.0388,
      "velocity": 121,
      "chip": "ym2612"
    },
    {
      "channel": 0,
      "note": 71,
      "start": 23.4869,
      "duration": 0.1138,
      "velocity": 88,
      "chip": "ym2612"
    },
    {
      "channel": 1,
      "note": 52,
      "start": 23.4894,
      "duration": 0.2113,
      "velocity": 96,
      "chip": "ym2612"
    },
    {
      "channel": 2,
      "note": 81,
      "start": 23.492,
      "duration": 0.0757,
      "velocity": 121,
      "chip": "ym2612"
    },
    {
      "channel": 5,
      "note": 66,
      "start": 23.4954,
      "duration": 0.0889,
      "velocity": 127,
      "chip": "ym2612"
    },
    {
      "channel": 0,
      "note": 63,
      "start": 23.7704,
      "duration": 0.1137,
      "velocity": 88,
      "chip": "ym2612"
    },
    {
      "channel": 3,
      "note": 79,
      "start": 23.7734,
      "duration": 0.2109,
      "velocity": 76,
      "chip": "ym2612"
    },
    {
      "channel": 4,
      "note": 83,
      "start": 23.7761,
      "duration": 0.2083,
      "velocity": 76,
      "chip": "ym2612"
    },
    {
      "channel": 2,
      "note": 81,
      "start": 23.7786,
      "duration": 0.0557,
      "velocity": 121,
      "chip": "ym2612"
    },
    {
      "channel": 0,
      "note": 64,
      "start": 23.9208,
      "duration": 0.0799,
      "velocity": 88,
      "chip": "ym2612"
    },
    {
      "channel": 1,
      "note": 51,
      "start": 23.924,
      "duration": 0.0601,
      "velocity": 96,
      "chip": "ym2612"
    },
    {
      "channel": 2,
      "note": 81,
      "start": 23.9266,
      "duration": 0.0746,
      "velocity": 121,
      "chip": "ym2612"
    },
    {
      "channel": 5,
      "note": 66,
      "start": 23.9303,
      "duration": 0.0707,
      "velocity": 127,
      "chip": "ym2612"
    },
    {
      "channel": 1,
      "note": 50,
      "start": 24.0539,
      "duration": 0.0969,
      "velocity": 96,
      "chip": "ym2612"
    },
    {
      "channel": 0,
      "note": 71,
      "start": 24.1872,
      "duration": 0.1469,
      "velocity": 88,
      "chip": "ym2612"
    },
    {
      "channel": 3,
      "note": 79,
      "start": 24.1905,
      "duration": 0.1604,
      "velocity": 76,
      "chip": "ym2612"
    },
    {
      "channel": 4,
      "note": 83,
      "start": 24.1932,
      "duration": 0.1578,
      "velocity": 76,
      "chip": "ym2612"
    },
    {
      "channel": 1,
      "note": 49,
      "start": 24.1956,
      "duration": 0.0885,
      "velocity": 96,
      "chip": "ym2612"
    },
    {
      "channel": 2,
      "note": 81,
      "start": 24.1982,
      "duration": 0.0362,
      "velocity": 121,
      "chip": "ym2612"
    },
    {
      "channel": 0,
      "note": 70,
      "start": 24.3372,
      "duration": 0.8802,
      "velocity": 88,
      "chip": "ym2612"
    },
    {
      "channel": 1,
      "note": 48,
      "start": 24.34,
      "duration": 0.1941,
      "velocity": 96,
      "chip": "ym2612"
    },
    {
      "channel": 2,
      "note": 81,
      "start": 24.343,
      "duration": 0.0579,
      "velocity": 121,
      "chip": "ym2612"
    },
    {
      "channel": 5,
      "note": 66,
      "start": 24.3463,
      "duration": 0.0712,
      "velocity": 127,
      "chip": "ym2612"
    },
    {
      "channel": 3,
      "note": 76,
      "start": 24.6209,
      "duration": 0.1799,
      "velocity": 76,
      "chip": "ym2612"
    },
    {
      "channel": 4,
      "note": 82,
      "start": 24.6237,
      "duration": 0.1773,
      "velocity": 76,
      "chip": "ym2612"
    },
    {
      "channel": 2,
      "note": 81,
      "start": 24.6264,
      "duration": 0.0246,
      "velocity": 121,
      "chip": "ym2612"
    },
    {
      "channel": 1,
      "note": 55,
      "start": 24.7537,
      "duration": 0.2137,
      "velocity": 96,
      "chip": "ym2612"
    },
    {
      "channel": 2,
      "note": 81,
      "start": 24.7563,
      "duration": 0.0947,
      "velocity": 121,
      "chip": "ym2612"
    },
    {
      "channel": 5,
      "note": 66,
      "start": 24.7598,
      "duration": 0.1078,
      "velocity": 127,
      "chip": "ym2612"
    },
    {
      "channel": 3,
      "note": 76,
      "start": 25.0376,
      "duration": 0.1466,
      "velocity": 76,
      "chip": "ym2612"
    },
    {
      "channel": 4,
      "note": 82,
      "start": 25.0403,
      "duration": 0.144,
      "velocity": 76,
      "chip": "ym2612"
    },
    {
      "channel": 2,
      "note": 81,
      "start": 25.0431,
      "duration": 0.0246,
      "velocity": 121,
      "chip": "ym2612"
    },
    {
      "channel": 1,
      "note": 47,
      "start": 25.1706,
      "duration": 0.1801,
      "velocity": 96,
      "chip": "ym2612"
    },
    {
      "channel": 2,
      "note": 81,
      "start": 25.1732,
      "duration": 0.0946,
      "velocity": 121,
      "chip": "ym2612"
    },
    {
      "channel": 5,
      "note": 66,
      "start": 25.1766,
      "duration": 0.091,
      "velocity": 127,
      "chip": "ym2612"
    },
    {
      "channel": 0,
      "note": 69,
      "start": 25.3038,
      "duration": 0.1469,
      "velocity": 88,
      "chip": "ym2612"
    },
    {
      "channel": 0,
      "note": 67,
      "start": 25.4537,
      "duration": 0.1137,
      "velocity": 88,
      "chip": "ym2612"
    },
    {
      "channel": 3,
      "note": 75,
      "start": 25.4571,
      "duration": 0.1938,
      "velocity": 76,
      "chip": "ym2612"
    },
    {
      "channel": 4,
      "note": 83,
      "start": 25.4598,
      "duration": 0.1912,
      "velocity": 76,
      "chip": "ym2612"
    },
    {
      "channel": 2,
      "note": 81,
      "start": 25.4629,
      "duration": 0.0381,
      "velocity": 121,
      "chip": "ym2612"
    },
    {
      "channel": 0,
      "note": 66,
      "start": 25.587,
      "duration": 0.1471,
      "velocity": 88,
      "chip": "ym2612"
    },
    {
      "channel": 1,
      "note": 59,
      "start": 25.5897,
      "duration": 0.2111,
      "velocity": 96,
      "chip": "ym2612"
    },
    {
      "channel": 2,
      "note": 81,
      "start": 25.5922,
      "duration": 0.0589,
      "velocity": 121,
      "chip": "ym2612"
    },
    {
      "channel": 5,
      "note": 66,
      "start": 25.5956,
      "duration": 0.0886,
      "velocity": 127,
      "chip": "ym2612"
    },
    {
      "channel": 0,
      "note": 63,
      "start": 25.7371,
      "duration": 0.1137,
      "velocity": 88,
      "chip": "ym2612"
    },
    {
      "channel": 0,
      "note": 59,
      "start": 25.8707,
      "duration": 0.0968,
      "velocity": 88,
      "chip": "ym2612"
    },
    {
      "channel": 3,
      "note": 75,
      "start": 25.8737,
      "duration": 0.1606,
      "velocity": 76,
      "chip": "ym2612"
    },
    {
      "channel": 4,
      "note": 83,
      "start": 25.8764,
      "duration": 0.1579,
      "velocity": 76,
      "chip": "ym2612"
    },
    {
      "channel": 2,
      "note": 81,
      "start": 25.8791,
      "duration": 0.0385,
      "velocity": 121,
      "chip": "ym2612"
    },
    {
      "channel": 0,
      "note": 64,
      "start": 26.0039,
      "duration": 1.2802,
      "velocity": 88,
      "chip": "ym2612"
    },
    {
      "channel": 1,
      "note": 52,
      "start": 26.0064,
      "duration": 0.2109,
      "velocity": 96,
      "chip": "ym2612"
    },
    {
      "channel": 2,
      "note": 81,
      "start": 26.009,
      "duration": 0.092,
      "velocity": 121,
      "chip": "ym2612"
    },
    {
      "channel": 5,
      "note": 66,
      "start": 26.0124,
      "duration": 0.0886,
      "velocity": 127,
      "chip": "ym2612"
    },
    {
      "channel": 3,
      "note": 87,
      "start": 26.2874,
      "duration": 0.1468,
      "velocity": 115,
      "chip": "ym2612"
    },
    {
      "channel": 4,
      "note": 79,
      "start": 26.2905,
      "duration": 0.1438,
      "velocity": 76,
      "chip": "ym2612"
    },
    {
      "channel": 5,
      "note": 83,
      "start": 26.2934,
      "duration": 0.141,
      "velocity": 76,
      "chip": "ym2612"
    },
    {
      "channel": 2,
      "note": 81,
      "start": 26.2961,
      "duration": 0.0382,
      "velocity": 121,
      "chip": "ym2612"
    },
    {
      "channel": 3,
      "note": 88,
      "start": 26.438,
      "duration": 0.1129,
      "velocity": 115,
      "chip": "ym2612"
    },
    {
      "channel": 1,
      "note": 47,
      "start": 26.4405,
      "duration": 0.1936,
      "velocity": 96,
      "chip": "ym2612"
    },
    {
      "channel": 2,
      "note": 81,
      "start": 26.4432,
      "duration": 0.0746,
      "velocity": 121,
      "chip": "ym2612"
    },
    {
      "channel": 4,
      "note": 66,
      "start": 26.4465,
      "duration": 0.0711,
      "velocity": 127,
      "chip": "ym2612"
    },
    {
      "channel": 3,
      "note": 90,
      "start": 26.7041,
      "duration": 0.0968,
      "velocity": 115,
      "chip": "ym2612"
    },
    {
      "channel": 5,
      "note": 79,
      "start": 26.7072,
      "duration": 0.1604,
      "velocity": 76,
      "chip": "ym2612"
    },
    {
      "channel": 4,
      "note": 83,
      "start": 26.7105,
      "duration": 0.1494,
      "velocity": 76,
      "chip": "ym2612"
    },
    {
      "channel": 2,
      "note": 81,
      "start": 26.7136,
      "duration": 0.0708,
      "velocity": 121,
      "chip": "ym2612"
    },
    {
      "channel": 3,
      "note": 91,
      "start": 26.8541,
      "duration": 0.1135,
      "velocity": 115,
      "chip": "ym2612"
    },
    {
      "channel": 1,
      "note": 47,
      "start": 26.8566,
      "duration": 0.1941,
      "velocity": 96,
      "chip": "ym2612"
    },
    {
      "channel": 2,
      "note": 81,
      "start": 26.859,
      "duration": 0.0586,
      "velocity": 121,
      "chip": "ym2612"
    },
    {
      "channel": 4,
      "note": 66,
      "start": 26.8625,
      "duration": 0.0718,
      "velocity": 127,
      "chip": "ym2612"
    },
    {
      "channel": 3,
      "note": 96,
      "start": 27.1373,
      "duration": 0.0802,
      "velocity": 115,
      "chip": "ym2612"
    },
    {
      "channel": 5,
      "note": 79,
      "start": 27.1403,
      "duration": 0.1441,
      "velocity": 76,
      "chip": "ym2612"
    },
    {
      "channel": 2,
      "note": 83,
      "start": 27.1433,
      "duration": 0.0008,
      "velocity": 76,
      "chip": "ym2612"
    },
    {
      "channel": 2,
      "note": 81,
      "start": 27.1459,
      "duration": 0.0551,
      "velocity": 121,
      "chip": "ym2612"
    },
    {
      "channel": 3,
      "note": 95,
      "start": 27.2706,
      "duration": 0.0635,
      "velocity": 115,
      "chip": "ym2612"
    },
    {
      "channel": 1,
      "note": 49,
      "start": 27.2738,
      "duration": 0.0937,
      "velocity": 96,
      "chip": "ym2612"
    },
    {
      "channel": 2,
      "note": 81,
      "start": 27.2762,
      "duration": 0.0581,
      "velocity": 121,
      "chip": "ym2612"
    },
    {
      "channel": 4,
      "note": 66,
      "start": 27.2795,
      "duration": 0.0881,
      "velocity": 127,
      "chip": "ym2612"
    },
    {
      "channel": 3,
      "note": 94,
      "start": 27.4036,
      "duration": 0.0805,
      "velocity": 115,
      "chip": "ym2612"
    },
    {
      "channel": 1,
      "note": 50,
      "start": 27.4062,
      "duration": 0.0945,
      "velocity": 96,
      "chip": "ym2612"
    },
    {
      "channel": 3,
      "note": 95,
      "start": 27.5537,
      "duration": 0.0637,
      "velocity": 115,
      "chip": "ym2612"
    },
    {
      "channel": 5,
      "note": 81,
      "start": 27.5569,
      "duration": 0.1274,
      "velocity": 76,
      "chip": "ym2612"
    },
    {
      "channel": 0,
      "note": 87,
      "start": 27.5598,
      "duration": 0.1242,
      "velocity": 76,
      "chip": "ym2612"
    },
    {
      "channel": 1,
      "note": 51,
      "start": 27.5621,
      "duration": 0.0721,
      "velocity": 96,
      "chip": "ym2612"
    },
    {
      "channel": 2,
      "note": 81,
      "start": 27.5646,
      "duration": 0.0531,
      "velocity": 121,
      "chip": "ym2612"
    },
    {
      "channel": 3,
      "note": 100,
      "start": 27.688,
      "duration": 0.0962,
      "velocity": 115,
      "chip": "ym2612"
    },
    {
      "channel": 0,
      "note": 79,
      "start": 27.6908,
      "duration": 0.1432,
      "velocity": 76,
      "chip": "ym2612"
    },
    {
      "channel": 5,
      "note": 88,
      "start": 27.6937,
      "duration": 0.1406,
      "velocity": 76,
      "chip": "ym2612"
    },
    {
      "channel": 1,
      "note": 52,
      "start": 27.6966,
      "duration": 0.2041,
      "velocity": 96,
      "chip": "ym2612"
    },
    {
      "channel": 2,
      "note": 81,
      "start": 27.6991,
      "duration": 0.0519,
      "velocity": 121,
      "chip": "ym2612"
    },
    {
      "channel": 4,
      "note": 66,
      "start": 27.7029,
      "duration": 0.0814,
      "velocity": 127,
      "chip": "ym2612"
    },
    {
      "channel": 2,
      "note": 63,
      "start": 27.9707,
      "duration": 0.1302,
      "velocity": 88,
      "chip": "ym2612"
    },
    {
      "channel": 2,
      "note": 64,
      "start": 28.1038,
      "duration": 0.1471,
      "velocity": 88,
      "chip": "ym2612"
    },
    {
      "channel": 2,
      "note": 62,
      "start": 28.2539,
      "duration": 0.0802,
      "velocity": 88,
      "chip": "ym2612"
    },
    {
      "channel": 2,
      "note": 64,
      "start": 28.387,
      "duration": 0.0971,
      "velocity": 88,
      "chip": "ym2612"
    },
    {
      "channel": 2,
      "note": 59,
      "start": 28.5373,
      "duration": 0.1302,
      "velocity": 88,
      "chip": "ym2612"
    },
    {
      "channel": 2,
      "note": 55,
      "start": 28.8043,
      "duration": 0.1466,
      "velocity": 88,
      "chip": "ym2612"
    },
    {
      "channel": 2,
      "note": 58,
      "start": 28.9539,
      "duration": 0.0803,
      "velocity": 88,
      "chip": "ym2612"
    },
    {
      "channel": 2,
      "note": 57,
      "start": 29.087,
      "duration": 0.0973,
      "velocity": 88,
      "chip": "ym2612"
    },
    {
      "channel": 2,
      "note": 55,
      "start": 29.2373,
      "duration": 0.0968,
      "velocity": 88,
      "chip": "ym2612"
    },
    {
      "channel": 3,
      "note": 100,
      "start": 29.3705,
      "duration": 0.1302,
      "velocity": 115,
      "chip": "ym2612"
    },
    {
      "channel": 3,
      "note": 103,
      "start": 29.5038,
      "duration": 0.0969,
      "velocity": 115,
      "chip": "ym2612"
    },
    {
      "channel": 3,
      "note": 103,
      "start": 29.6539,
      "duration": 0.1135,
      "velocity": 115,
      "chip": "ym2612"
    },
    {
      "channel": 1,
      "note": 52,
      "start": 29.7872,
      "duration": 0.1301,
      "velocity": 96,
      "chip": "ym2612"
    },
    {
      "channel": 1,
      "note": 55,
      "start": 29.9206,
      "duration": 0.0801,
      "velocity": 96,
      "chip": "ym2612"
    },
    {
      "channel": 1,
      "note": 55,
      "start": 30.071,
      "duration": 0.063,
      "velocity": 96,
      "chip": "ym2612"
    },
    {
      "channel": 2,
      "note": 64,
      "start": 30.204,
      "duration": 0.1469,
      "velocity": 88,
      "chip": "ym2612"
    },
    {
      "channel": 2,
      "note": 67,
      "start": 30.3539,
      "duration": 0.0802,
      "velocity": 88,
      "chip": "ym2612"
    },
    {
      "channel": 2,
      "note": 67,
      "start": 30.4873,
      "duration": 0.0969,
      "velocity": 88,
      "chip": "ym2612"
    },
    {
      "channel": 3,
      "note": 101,
      "start": 30.6038,
      "duration": 0.0135,
      "velocity": 115,
      "chip": "ym2612"
    },
    {
      "channel": 3,
      "note": 102,
      "start": 30.6206,
      "duration": 0.0968,
      "velocity": 115,
      "chip": "ym2612"
    },
    {
      "channel": 3,
      "note": 103,
      "start": 30.7211,
      "duration": 0.113,
      "velocity": 115,
      "chip": "ym2612"
    },
    {
      "channel": 3,
      "note": 100,
      "start": 30.8372,
      "duration": 0.0969,
      "velocity": 115,
      "chip": "ym2612"
    },
    {
      "channel": 0,
      "note": 69,
      "start": 30.9038,
      "duration": 0.1136,
      "velocity": 102,
      "chip": "ym2612"
    },
    {
      "channel": 5,
      "note": 62,
      "start": 30.9064,
      "duration": 0.1113,
      "velocity": 102,
      "chip": "ym2612"
    },
    {
      "channel": 4,
      "note": 78,
      "start": 30.9386,
      "duration": 0.029,
      "velocity": 127,
      "chip": "ym2612"
    },
    {
      "channel": 3,
      "note": 98,
      "start": 30.9538,
      "duration": 0.097,
      "velocity": 115,
      "chip": "ym2612"
    },
    {
      "channel": 4,
      "note": 78,
      "start": 30.972,
      "duration": 0.029,
      "velocity": 127,
      "chip": "ym2612"
    },
    {
      "channel": 4,
      "note": 78,
      "start": 31.0054,
      "duration": 0.0456,
      "velocity": 127,
      "chip": "ym2612"
    },
    {
      "channel": 0,
      "note": 71,
      "start": 31.0541,
      "duration": 1.3632,
      "velocity": 102,
      "chip": "ym2612"
    },
    {
      "channel": 5,
      "note": 64,
      "start": 31.0573,
      "duration": 1.3603,
      "velocity": 102,
      "chip": "ym2612"
    },
    {
      "channel": 4,
      "note": 78,
      "start": 31.0615,
      "duration": 0.1229,
      "velocity": 127,
      "chip": "ym2612"
    },
    {
      "channel": 3,
      "note": 100,
      "start": 31.0709,
      "duration": 0.1132,
      "velocity": 115,
      "chip": "ym2612"
    },
    {
      "channel": 4,
      "note": 78,
      "start": 31.7551,
      "duration": 0.1291,
      "velocity": 127,
      "chip": "ym2612"
    },
    {
      "channel": 4,
      "note": 78,
      "start": 31.8886,
      "duration": 0.1289,
      "velocity": 127,
      "chip": "ym2612"
    },
    {
      "channel": 0,
      "note": 69,
      "start": 32.5872,
      "duration": 0.1302,
      "velocity": 102,
      "chip": "ym2612"
    },
    {
      "channel": 5,
      "note": 62,
      "start": 32.59,
      "duration": 0.0944,
      "velocity": 102,
      "chip": "ym2612"
    },
    {
      "channel": 4,
      "note": 78,
      "start": 32.6052,
      "duration": 0.0456,
      "velocity": 127,
      "chip": "ym2612"
    },
    {
      "channel": 4,
      "note": 78,
      "start": 32.6552,
      "duration": 0.029,
      "velocity": 127,
      "chip": "ym2612"
    },
    {
      "channel": 4,
      "note": 78,
      "start": 32.6888,
      "duration": 0.0289,
      "velocity": 127,
      "chip": "ym2612"
    },
    {
      "channel": 0,
      "note": 71,
      "start": 32.7208,
      "duration": 1.4298,
      "velocity": 102,
      "chip": "ym2612"
    },
    {
      "channel": 5,
      "note": 64,
      "start": 32.7236,
      "duration": 1.4274,
      "velocity": 102,
      "chip": "ym2612"
    },
    {
      "channel": 4,
      "note": 78,
      "start": 32.7278,
      "duration": 0.1398,
      "velocity": 127,
      "chip": "ym2612"
    },
    {
      "channel": 4,
      "note": 78,
      "start": 33.005,
      "duration": 0.1459,
      "velocity": 127,
      "chip": "ym2612"
    },
    {
      "channel": 4,
      "note": 78,
      "start": 33.155,
      "duration": 0.1293,
      "velocity": 127,
      "chip": "ym2612"
    },
    {
      "channel": 4,
      "note": 78,
      "start": 33.2884,
      "duration": 0.1291,
      "velocity": 127,
      "chip": "ym2612"
    },
    {
      "channel": 4,
      "note": 78,
      "start": 33.4216,
      "duration": 0.1459,
      "velocity": 127,
      "chip": "ym2612"
    },
    {
      "channel": 4,
      "note": 78,
      "start": 33.5719,
      "duration": 0.1289,
      "velocity": 127,
      "chip": "ym2612"
    },
    {
      "channel": 0,
      "note": 72,
      "start": 34.2709,
      "duration": 0.1298,
      "velocity": 102,
      "chip": "ym2612"
    },
    {
      "channel": 5,
      "note": 65,
      "start": 34.2736,
      "duration": 0.0774,
      "velocity": 102,
      "chip": "ym2612"
    },
    {
      "channel": 4,
      "note": 78,
      "start": 34.2776,
      "duration": 0.0066,
      "velocity": 127,
      "chip": "ym2612"
    },
    {
      "channel": 4,
      "note": 78,
      "start": 34.2886,
      "duration": 0.0456,
      "velocity": 127,
      "chip": "ym2612"
    },
    {
      "channel": 4,
      "note": 78,
      "start": 34.3389,
      "duration": 0.012,
      "velocity": 127,
      "chip": "ym2612"
    },
    {
      "channel": 4,
      "note": 78,
      "start": 34.3554,
      "duration": 0.0455,
      "velocity": 127,
      "chip": "ym2612"
    },
    {
      "channel": 3,
      "note": 91,
      "start": 34.4041,
      "duration": 0.3468,
      "velocity": 115,
      "chip": "ym2612"
    },
    {
      "channel": 0,
      "note": 74,
      "start": 34.4069,
      "duration": 1.4105,
      "velocity": 102,
      "chip": "ym2612"
    },
    {
      "channel": 5,
      "note": 67,
      "start": 34.4096,
      "duration": 1.4081,
      "velocity": 102,
      "chip": "ym2612"
    },
    {
      "channel": 1,
      "note": 55,
      "start": 34.4123,
      "duration": 0.3385,
      "velocity": 96,
      "chip": "ym2612"
    },
    {
      "channel": 4,
      "note": 78,
      "start": 34.416,
      "duration": 0.1183,
      "velocity": 127,
      "chip": "ym2612"
    },
    {
      "channel": 4,
      "note": 78,
      "start": 34.6885,
      "duration": 0.0625,
      "velocity": 127,
      "chip": "ym2612"
    },
    {
      "channel": 3,
      "note": 98,
      "start": 34.8205,
      "duration": 0.3469,
      "velocity": 115,
      "chip": "ym2612"
    },
    {
      "channel": 1,
      "note": 50,
      "start": 34.8232,
      "duration": 0.3276,
      "velocity": 96,
      "chip": "ym2612"
    },
    {
      "channel": 4,
      "note": 78,
      "start": 34.8269,
      "duration": 0.1407,
      "velocity": 127,
      "chip": "ym2612"
    },
    {
      "channel": 4,
      "note": 78,
      "start": 35.1219,
      "duration": 0.0457,
      "velocity": 127,
      "chip": "ym2612"
    },
    {
      "channel": 4,
      "note": 78,
      "start": 35.1723,
      "duration": 0.0286,
      "velocity": 127,
      "chip": "ym2612"
    },
    {
      "channel": 4,
      "note": 78,
      "start": 35.2054,
      "duration": 0.0289,
      "velocity": 127,
      "chip": "ym2612"
    },
    {
      "channel": 3,
      "note": 101,
      "start": 35.2211,
      "duration": 0.0464,
      "velocity": 115,
      "chip": "ym2612"
    },
    {
      "channel": 1,
      "note": 55,
      "start": 35.2372,
      "duration": 0.3302,
      "velocity": 96,
      "chip": "ym2612"
    },
    {
      "channel": 4,
      "note": 78,
      "start": 35.2409,
      "duration": 0.1433,
      "velocity": 127,
      "chip": "ym2612"
    },
    {
      "channel": 3,
      "note": 102,
      "start": 35.2706,
      "duration": 0.047,
      "velocity": 115,
      "chip": "ym2612"
    },
    {
      "channel": 3,
      "note": 103,
      "start": 35.3208,
      "duration": 0.0801,
      "velocity": 115,
      "chip": "ym2612"
    },
    {
      "channel": 3,
      "note": 101,
      "start": 35.5206,
      "duration": 0.097,
      "velocity": 115,
      "chip": "ym2612"
    },
    {
      "channel": 4,
      "note": 78,
      "start": 35.5244,
      "duration": 0.1431,
      "velocity": 127,
      "chip": "ym2612"
    },
    {
      "channel": 3,
      "note": 98,
      "start": 35.6707,
      "duration": 0.1469,
      "velocity": 115,
      "chip": "ym2612"
    },
    {
      "channel": 1,
      "note": 50,
      "start": 35.6734,
      "duration": 0.3441,
      "velocity": 96,
      "chip": "ym2612"
    },
    {
      "channel": 4,
      "note": 78,
      "start": 35.677,
      "duration": 0.1239,
      "velocity": 127,
      "chip": "ym2612"
    },
    {
      "channel": 3,
      "note": 96,
      "start": 35.9373,
      "duration": 0.0804,
      "velocity": 115,
      "chip": "ym2612"
    },
    {
      "channel": 0,
      "note": 72,
      "start": 35.9401,
      "duration": 0.144,
      "velocity": 102,
      "chip": "ym2612"
    },
    {
      "channel": 5,
      "note": 65,
      "start": 35.9432,
      "duration": 0.1078,
      "velocity": 102,
      "chip": "ym2612"
    },
    {
      "channel": 4,
      "note": 78,
      "start": 35.9719,
      "duration": 0.0459,
      "velocity": 127,
      "chip": "ym2612"
    },
    {
      "channel": 4,
      "note": 78,
      "start": 36.0225,
      "duration": 0.0117,
      "velocity": 127,
      "chip": "ym2612"
    },
    {
      "channel": 4,
      "note": 78,
      "start": 36.0386,
      "duration": 0.0457,
      "velocity": 127,
      "chip": "ym2612"
    },
    {
      "channel": 3,
      "note": 94,
      "start": 36.0879,
      "duration": 0.3462,
      "velocity": 115,
      "chip": "ym2612"
    },
    {
      "channel": 0,
      "note": 74,
      "start": 36.0907,
      "duration": 1.46,
      "velocity": 102,
      "chip": "ym2612"
    },
    {
      "channel": 5,
      "note": 67,
      "start": 36.0935,
      "duration": 1.4575,
      "velocity": 102,
      "chip": "ym2612"
    },
    {
      "channel": 1,
      "note": 55,
      "start": 36.0959,
      "duration": 0.3548,
      "velocity": 96,
      "chip": "ym2612"
    },
    {
      "channel": 4,
      "note": 78,
      "start": 36.0996,
      "duration": 0.1179,
      "velocity": 127,
      "chip": "ym2612"
    },
    {
      "channel": 4,
      "note": 78,
      "start": 36.3716,
      "duration": 0.1293,
      "velocity": 127,
      "chip": "ym2612"
    },
    {
      "channel": 3,
      "note": 91,
      "start": 36.5039,
      "duration": 0.297,
      "velocity": 115,
      "chip": "ym2612"
    },
    {
      "channel": 1,
      "note": 50,
      "start": 36.5067,
      "duration": 0.344,
      "velocity": 96,
      "chip": "ym2612"
    },
    {
      "channel": 4,
      "note": 78,
      "start": 36.5101,
      "duration": 0.1241,
      "velocity": 127,
      "chip": "ym2612"
    },
    {
      "channel": 4,
      "note": 78,
      "start": 36.6383,
      "duration": 0.1459,
      "velocity": 127,
      "chip": "ym2612"
    },
    {
      "channel": 4,
      "note": 78,
      "start": 36.7883,
      "duration": 0.1293,
      "velocity": 127,
      "chip": "ym2612"
    },
    {
      "channel": 3,
      "note": 91,
      "start": 36.9207,
      "duration": 0.68,
      "velocity": 115,
      "chip": "ym2612"
    },
    {
      "channel": 1,
      "note": 55,
      "start": 36.9234,
      "duration": 0.3441,
      "velocity": 96,
      "chip": "ym2612"
    },
    {
      "channel": 4,
      "note": 78,
      "start": 36.9269,
      "duration": 0.1407,
      "velocity": 127,
      "chip": "ym2612"
    },
    {
      "channel": 4,
      "note": 78,
      "start": 37.2054,
      "duration": 0.1288,
      "velocity": 127,
      "chip": "ym2612"
    },
    {
      "channel": 1,
      "note": 48,
      "start": 37.3379,
      "duration": 0.1462,
      "velocity": 96,
      "chip": "ym2612"
    },
    {
      "channel": 4,
      "note": 78,
      "start": 37.3414,
      "duration": 0.1429,
      "velocity": 127,
      "chip": "ym2612"
    },
    {
      "channel": 1,
      "note": 50,
      "start": 37.4874,
      "duration": 0.18,
      "velocity": 96,
      "chip": "ym2612"
    },
    {
      "channel": 0,
      "note": 72,
      "start": 37.6207,
      "duration": 0.1135,
      "velocity": 102,
      "chip": "ym2612"
    },
    {
      "channel": 5,
      "note": 65,
      "start": 37.6233,
      "duration": 0.1111,
      "velocity": 102,
      "chip": "ym2612"
    },
    {
      "channel": 2,
      "note": 53,
      "start": 37.6259,
      "duration": 0.1751,
      "velocity": 96,
      "chip": "ym2612"
    },
    {
      "channel": 4,
      "note": 78,
      "start": 37.6553,
      "duration": 0.029,
      "velocity": 127,
      "chip": "ym2612"
    },
    {
      "channel": 4,
      "note": 78,
      "start": 37.6886,
      "duration": 0.029,
      "velocity": 127,
      "chip": "ym2612"
    },
    {
      "channel": 4,
      "note": 78,
      "start": 37.722,
      "duration": 0.0456,
      "velocity": 127,
      "chip": "ym2612"
    },
    {
      "channel": 3,
      "note": 94,
      "start": 37.7708,
      "duration": 0.3134,
      "velocity": 115,
      "chip": "ym2612"
    },
    {
      "channel": 0,
      "note": 70,
      "start": 37.7736,
      "duration": 1.3771,
      "velocity": 102,
      "chip": "ym2612"
    },
    {
      "channel": 5,
      "note": 63,
      "start": 37.7767,
      "duration": 1.3744,
      "velocity": 102,
      "chip": "ym2612"
    },
    {
      "channel": 1,
      "note": 51,
      "start": 37.7793,
      "duration": 0.2881,
      "velocity": 96,
      "chip": "ym2612"
    },
    {
      "channel": 4,
      "note": 78,
      "start": 37.783,
      "duration": 0.1179,
      "velocity": 127,
      "chip": "ym2612"
    },
    {
      "channel": 4,
      "note": 78,
      "start": 38.0389,
      "duration": 0.062,
      "velocity": 127,
      "chip": "ym2612"
    },
    {
      "channel": 3,
      "note": 99,
      "start": 38.1873,
      "duration": 0.3803,
      "velocity": 115,
      "chip": "ym2612"
    },
    {
      "channel": 1,
      "note": 46,
      "start": 38.1898,
      "duration": 0.2943,
      "velocity": 96,
      "chip": "ym2612"
    },
    {
      "channel": 4,
      "note": 78,
      "start": 38.1935,
      "duration": 0.124,
      "velocity": 127,
      "chip": "ym2612"
    },
    {
      "channel": 4,
      "note": 78,
      "start": 38.4886,
      "duration": 0.0456,
      "velocity": 127,
      "chip": "ym2612"
    },
    {
      "channel": 4,
      "note": 78,
      "start": 38.5386,
      "duration": 0.0124,
      "velocity": 127,
      "chip": "ym2612"
    },
    {
      "channel": 4,
      "note": 78,
      "start": 38.5554,
      "duration": 0.0455,
      "velocity": 127,
      "chip": "ym2612"
    },
    {
      "channel": 3,
      "note": 97,
      "start": 38.6041,
      "duration": 0.0802,
      "velocity": 115,
      "chip": "ym2612"
    },
    {
      "channel": 1,
      "note": 51,
      "start": 38.6067,
      "duration": 0.2941,
      "velocity": 96,
      "chip": "ym2612"
    },
    {
      "channel": 4,
      "note": 78,
      "start": 38.6107,
      "duration": 0.1235,
      "velocity": 127,
      "chip": "ym2612"
    },
    {
      "channel": 3,
      "note": 96,
      "start": 38.8877,
      "duration": 0.0631,
      "velocity": 115,
      "chip": "ym2612"
    },
    {
      "channel": 4,
      "note": 78,
      "start": 38.8915,
      "duration": 0.126,
      "velocity": 127,
      "chip": "ym2612"
    },
    {
      "channel": 3,
      "note": 94,
      "start": 39.0207,
      "duration": 0.1634,
      "velocity": 115,
      "chip": "ym2612"
    },
    {
      "channel": 1,
      "note": 46,
      "start": 39.0235,
      "duration": 0.3439,
      "velocity": 96,
      "chip": "ym2612"
    },
    {
      "channel": 4,
      "note": 78,
      "start": 39.0271,
      "duration": 0.1239,
      "velocity": 127,
      "chip": "ym2612"
    },
    {
      "channel": 3,
      "note": 96,
      "start": 39.3039,
      "duration": 0.0803,
      "velocity": 115,
      "chip": "ym2612"
    },
    {
      "channel": 0,
      "note": 67,
      "start": 39.3068,
      "duration": 0.1273,
      "velocity": 102,
      "chip": "ym2612"
    },
    {
      "channel": 5,
      "note": 60,
      "start": 39.3093,
      "duration": 0.1251,
      "velocity": 102,
      "chip": "ym2612"
    },
    {
      "channel": 4,
      "note": 78,
      "start": 39.322,
      "duration": 0.0456,
      "velocity": 127,
      "chip": "ym2612"
    },
    {
      "channel": 4,
      "note": 78,
      "start": 39.372,
      "duration": 0.0123,
      "velocity": 127,
      "chip": "ym2612"
    },
    {
      "channel": 4,
      "note": 78,
      "start": 39.3888,
      "duration": 0.0454,
      "velocity": 127,
      "chip": "ym2612"
    },
    {
      "channel": 3,
      "note": 98,
      "start": 39.4376,
      "duration": 0.1466,
      "velocity": 115,
      "chip": "ym2612"
    },
    {
      "channel": 0,
      "note": 69,
      "start": 39.4403,
      "duration": 1.4604,
      "velocity": 102,
      "chip": "ym2612"
    },
    {
      "channel": 5,
      "note": 62,
      "start": 39.4431,
      "duration": 1.4579,
      "velocity": 102,
      "chip": "ym2612"
    },
    {
      "channel": 1,
      "note": 50,
      "start": 39.4456,
      "duration": 0.2885,
      "velocity": 96,
      "chip": "ym2612"
    },
    {
      "channel": 4,
      "note": 78,
      "start": 39.4497,
      "duration": 0.1346,
      "velocity": 127,
      "chip": "ym2612"
    },
    {
      "channel": 3,
      "note": 94,
      "start": 39.7206,
      "duration": 0.0636,
      "velocity": 115,
      "chip": "ym2612"
    },
    {
      "channel": 4,
      "note": 78,
      "start": 39.7244,
      "duration": 0.1264,
      "velocity": 127,
      "chip": "ym2612"
    },
    {
      "channel": 3,
      "note": 96,
      "start": 39.854,
      "duration": 0.1468,
      "velocity": 115,
      "chip": "ym2612"
    },
    {
      "channel": 1,
      "note": 45,
      "start": 39.8568,
      "duration": 0.2773,
      "velocity": 96,
      "chip": "ym2612"
    },
    {
      "channel": 4,
      "note": 78,
      "start": 39.8602,
      "duration": 0.1407,
      "velocity": 127,
      "chip": "ym2612"
    },
    {
      "channel": 4,
      "note": 78,
      "start": 40.005,
      "duration": 0.1293,
      "velocity": 127,
      "chip": "ym2612"
    },
    {
      "channel": 3,
      "note": 93,
      "start": 40.1377,
      "duration": 0.1465,
      "velocity": 115,
      "chip": "ym2612"
    },
    {
      "channel": 4,
      "note": 78,
      "start": 40.1414,
      "duration": 0.1429,
      "velocity": 127,
      "chip": "ym2612"
    },
    {
      "channel": 3,
      "note": 94,
      "start": 40.2873,
      "duration": 0.1302,
      "velocity": 115,
      "chip": "ym2612"
    },
    {
      "channel": 1,
      "note": 50,
      "start": 40.2903,
      "duration": 0.2939,
      "velocity": 96,
      "chip": "ym2612"
    },
    {
      "channel": 4,
      "note": 78,
      "start": 40.2939,
      "duration": 0.1237,
      "velocity": 127,
      "chip": "ym2612"
    },
    {
      "channel": 3,
      "note": 96,
      "start": 40.4206,
      "duration": 0.1302,
      "velocity": 115,
      "chip": "ym2612"
    },
    {
      "channel": 3,
      "note": 98,
      "start": 40.5539,
      "duration": 0.1135,
      "velocity": 115,
      "chip": "ym2612"
    },
    {
      "channel": 4,
      "note": 78,
      "start": 40.5577,
      "duration": 0.1431,
      "velocity": 127,
      "chip": "ym2612"
    },
    {
      "channel": 3,
      "note": 94,
      "start": 40.7039,
      "duration": 0.1136,
      "velocity": 115,
      "chip": "ym2612"
    },
    {
      "channel": 1,
      "note": 45,
      "start": 40.7065,
      "duration": 0.2944,
      "velocity": 96,
      "chip": "ym2612"
    },
    {
      "channel": 4,
      "note": 78,
      "start": 40.71,
      "duration": 0.1242,
      "velocity": 127,
      "chip": "ym2612"
    },
    {
      "channel": 3,
      "note": 93,
      "start": 40.9873,
      "duration": 0.0802,
      "velocity": 115,
      "chip": "ym2612"
    },
    {
      "channel": 0,
      "note": 72,
      "start": 40.9902,
      "duration": 0.1106,
      "velocity": 102,
      "chip": "ym2612"
    },
    {
      "channel": 5,
      "note": 65,
      "start": 40.9931,
      "duration": 0.108,
      "velocity": 102,
      "chip": "ym2612"
    },
    {
      "channel": 4,
      "note": 78,
      "start": 41.0054,
      "duration": 0.0454,
      "velocity": 127,
      "chip": "ym2612"
    },
    {
      "channel": 4,
      "note": 78,
      "start": 41.0556,
      "duration": 0.0121,
      "velocity": 127,
      "chip": "ym2612"
    },
    {
      "channel": 4,
      "note": 78,
      "start": 41.0721,
      "duration": 0.0454,
      "velocity": 127,
      "chip": "ym2612"
    },
    {
      "channel": 3,
      "note": 91,
      "start": 41.1207,
      "duration": 0.3302,
      "velocity": 115,
      "chip": "ym2612"
    },
    {
      "channel": 0,
      "note": 74,
      "start": 41.1237,
      "duration": 1.477,
      "velocity": 102,
      "chip": "ym2612"
    },
    {
      "channel": 5,
      "note": 67,
      "start": 41.1264,
      "duration": 1.4746,
      "velocity": 102,
      "chip": "ym2612"
    },
    {
      "channel": 1,
      "note": 55,
      "start": 41.1289,
      "duration": 0.3219,
      "velocity": 96,
      "chip": "ym2612"
    },
    {
      "channel": 4,
      "note": 78,
      "start": 41.1326,
      "duration": 0.1183,
      "velocity": 127,
      "chip": "ym2612"
    },
    {
      "channel": 4,
      "note": 78,
      "start": 41.4052,
      "duration": 0.0623,
      "velocity": 127,
      "chip": "ym2612"
    },
    {
      "channel": 3,
      "note": 98,
      "start": 41.5377,
      "duration": 0.2299,
      "velocity": 115,
      "chip": "ym2612"
    },
    {
      "channel": 1,
      "note": 50,
      "start": 41.5403,
      "duration": 0.3272,
      "velocity": 96,
      "chip": "ym2612"
    },
    {
      "channel": 4,
      "note": 78,
      "start": 41.544,
      "duration": 0.1402,
      "velocity": 127,
      "chip": "ym2612"
    },
    {
      "channel": 4,
      "note": 78,
      "start": 41.8389,
      "duration": 0.0452,
      "velocity": 127,
      "chip": "ym2612"
    },
    {
      "channel": 3,
      "note": 101,
      "start": 41.8873,
      "duration": 0.0469,
      "velocity": 115,
      "chip": "ym2612"
    },
    {
      "channel": 4,
      "note": 78,
      "start": 41.8914,
      "duration": 0.0262,
      "velocity": 127,
      "chip": "ym2612"
    },
    {
      "channel": 4,
      "note": 78,
      "start": 41.922,
      "duration": 0.0288,
      "velocity": 127,
      "chip": "ym2612"
    },
    {
      "channel": 3,
      "note": 102,
      "start": 41.9376,
      "duration": 0.0633,
      "velocity": 115,
      "chip": "ym2612"
    },
    {
      "channel": 1,
      "note": 55,
      "start": 41.954,
      "duration": 0.3468,
      "velocity": 96,
      "chip": "ym2612"
    },
    {
      "channel": 4,
      "note": 78,
      "start": 41.9576,
      "duration": 0.1433,
      "velocity": 127,
      "chip": "ym2612"
    },
    {
      "channel": 3,
      "note": 103,
      "start": 42.0041,
      "duration": 0.0968,
      "velocity": 115,
      "chip": "ym2612"
    },
    {
      "channel": 3,
      "note": 101,
      "start": 42.2373,
      "duration": 0.1136,
      "velocity": 115,
      "chip": "ym2612"
    },
    {
      "channel": 4,
      "note": 78,
      "start": 42.2411,
      "duration": 0.1265,
      "velocity": 127,
      "chip": "ym2612"
    },
    {
      "channel": 3,
      "note": 98,
      "start": 42.3707,
      "duration": 0.1468,
      "velocity": 115,
      "chip": "ym2612"
    },
    {
      "channel": 1,
      "note": 50,
      "start": 42.3735,
      "duration": 0.3107,
      "velocity": 96,
      "chip": "ym2612"
    },
    {
      "channel": 4,
      "note": 78,
      "start": 42.3771,
      "duration": 0.1406,
      "velocity": 127,
      "chip": "ym2612"
    },
    {
      "channel": 3,
      "note": 96,
      "start": 42.6543,
      "duration": 0.0966,
      "velocity": 115,
      "chip": "ym2612"
    },
    {
      "channel": 0,
      "note": 72,
      "start": 42.6571,
      "duration": 0.0936,
      "velocity": 102,
      "chip": "ym2612"
    },
    {
      "channel": 5,
      "note": 65,
      "start": 42.6597,
      "duration": 0.0915,
      "velocity": 102,
      "chip": "ym2612"
    },
    {
      "channel": 4,
      "note": 78,
      "start": 42.6891,
      "duration": 0.0284,
      "velocity": 127,
      "chip": "ym2612"
    },
    {
      "channel": 4,
      "note": 78,
      "start": 42.722,
      "duration": 0.0291,
      "velocity": 127,
      "chip": "ym2612"
    },
    {
      "channel": 4,
      "note": 78,
      "start": 42.7556,
      "duration": 0.0452,
      "velocity": 127,
      "chip": "ym2612"
    },
    {
      "channel": 3,
      "note": 94,
      "start": 42.804,
      "duration": 0.3136,
      "velocity": 115,
      "chip": "ym2612"
    },
    {
      "channel": 0,
      "note": 74,
      "start": 42.8073,
      "duration": 1.4767,
      "velocity": 102,
      "chip": "ym2612"
    },
    {
      "channel": 5,
      "note": 67,
      "start": 42.8101,
      "duration": 1.4742,
      "velocity": 102,
      "chip": "ym2612"
    },
    {
      "channel": 1,
      "note": 55,
      "start": 42.8126,
      "duration": 0.3048,
      "velocity": 96,
      "chip": "ym2612"
    },
    {
      "channel": 4,
      "note": 78,
      "start": 42.8163,
      "duration": 0.1179,
      "velocity": 127,
      "chip": "ym2612"
    },
    {
      "channel": 4,
      "note": 78,
      "start": 43.0717,
      "duration": 0.1459,
      "velocity": 127,
      "chip": "ym2612"
    },
    {
      "channel": 3,
      "note": 91,
      "start": 43.2207,
      "duration": 0.2802,
      "velocity": 115,
      "chip": "ym2612"
    },
    {
      "channel": 1,
      "note": 50,
      "start": 43.2234,
      "duration": 0.2941,
      "velocity": 96,
      "chip": "ym2612"
    },
    {
      "channel": 4,
      "note": 78,
      "start": 43.2267,
      "duration": 0.1241,
      "velocity": 127,
      "chip": "ym2612"
    },
    {
      "channel": 4,
      "note": 78,
      "start": 43.355,
      "duration": 0.146,
      "velocity": 127,
      "chip": "ym2612"
    },
    {
      "channel": 4,
      "note": 78,
      "start": 43.505,
      "duration": 0.1292,
      "velocity": 127,
      "chip": "ym2612"
    },
    {
      "channel": 3,
      "note": 91,
      "start": 43.6375,
      "duration": 0.5966,
      "velocity": 115,
      "chip": "ym2612"
    },
    {
      "channel": 1,
      "note": 55,
      "start": 43.6402,
      "duration": 0.3273,
      "velocity": 96,
      "chip": "ym2612"
    },
    {
      "channel": 4,
      "note": 78,
      "start": 43.6441,
      "duration": 0.1235,
      "velocity": 127,
      "chip": "ym2612"
    },
    {
      "channel": 4,
      "note": 78,
      "start": 43.9217,
      "duration": 0.1291,
      "velocity": 127,
      "chip": "ym2612"
    },
    {
      "channel": 1,
      "note": 55,
      "start": 44.0543,
      "duration": 0.2632,
      "velocity": 96,
      "chip": "ym2612"
    },
    {
      "channel": 4,
      "note": 78,
      "start": 44.0578,
      "duration": 0.143,
      "velocity": 127,
      "chip": "ym2612"
    },
    {
      "channel": 4,
      "note": 78,
      "start": 44.3552,
      "duration": 0.0457,
      "velocity": 127,
      "chip": "ym2612"
    },
    {
      "channel": 4,
      "note": 78,
      "start": 44.4053,
      "duration": 0.029,
      "velocity": 127,
      "chip": "ym2612"
    },
    {
      "channel": 4,
      "note": 78,
      "start": 44.4387,
      "duration": 0.0288,
      "velocity": 127,
      "chip": "ym2612"
    },
    {
      "channel": 3,
      "note": 92,
      "start": 44.4707,
      "duration": 0.3303,
      "velocity": 115,
      "chip": "ym2612"
    },
    {
      "channel": 0,
      "note": 75,
      "start": 44.4736,
      "duration": 1.6104,
      "velocity": 102,
      "chip": "ym2612"
    },
    {
      "channel": 5,
      "note": 68,
      "start": 44.4763,
      "duration": 1.6081,
      "velocity": 102,
      "chip": "ym2612"
    },
    {
      "channel": 1,
      "note": 56,
      "start": 44.4789,
      "duration": 0.322,
      "velocity": 96,
      "chip": "ym2612"
    },
    {
      "channel": 4,
      "note": 78,
      "start": 44.483,
      "duration": 0.1345,
      "velocity": 127,
      "chip": "ym2612"
    },
    {
      "channel": 4,
      "note": 78,
      "start": 44.7552,
      "duration": 0.0623,
      "velocity": 127,
      "chip": "ym2612"
    },
    {
      "channel": 3,
      "note": 99,
      "start": 44.9044,
      "duration": 0.1464,
      "velocity": 115,
      "chip": "ym2612"
    },
    {
      "channel": 1,
      "note": 56,
      "start": 44.9071,
      "duration": 0.2604,
      "velocity": 96,
      "chip": "ym2612"
    },
    {
      "channel": 4,
      "note": 78,
      "start": 44.9108,
      "duration": 0.1234,
      "velocity": 127,
      "chip": "ym2612"
    },
    {
      "channel": 3,
      "note": 101,
      "start": 45.204,
      "duration": 0.0468,
      "velocity": 115,
      "chip": "ym2612"
    },
    {
      "channel": 4,
      "note": 78,
      "start": 45.2081,
      "duration": 0.0429,
      "velocity": 127,
      "chip": "ym2612"
    },
    {
      "channel": 3,
      "note": 102,
      "start": 45.2541,
      "duration": 0.0802,
      "velocity": 115,
      "chip": "ym2612"
    },
    {
      "channel": 4,
      "note": 78,
      "start": 45.2582,
      "duration": 0.0094,
      "velocity": 127,
      "chip": "ym2612"
    },
    {
      "channel": 4,
      "note": 78,
      "start": 45.2723,
      "duration": 0.0453,
      "velocity": 127,
      "chip": "ym2612"
    },
    {
      "channel": 1,
      "note": 56,
      "start": 45.3207,
      "duration": 0.3134,
      "velocity": 96,
      "chip": "ym2612"
    },
    {
      "channel": 4,
      "note": 78,
      "start": 45.3244,
      "duration": 0.1265,
      "velocity": 127,
      "chip": "ym2612"
    },
    {
      "channel": 3,
      "note": 103,
      "start": 45.3376,
      "duration": 0.0467,
      "velocity": 115,
      "chip": "ym2612"
    },
    {
      "channel": 3,
      "note": 104,
      "start": 45.3875,
      "duration": 0.0968,
      "velocity": 115,
      "chip": "ym2612"
    },
    {
      "channel": 3,
      "note": 92,
      "start": 45.6038,
      "duration": 0.0803,
      "velocity": 115,
      "chip": "ym2612"
    },
    {
      "channel": 4,
      "note": 78,
      "start": 45.6077,
      "duration": 0.1265,
      "velocity": 127,
      "chip": "ym2612"
    },
    {
      "channel": 3,
      "note": 96,
      "start": 45.7377,
      "duration": 0.1298,
      "velocity": 115,
      "chip": "ym2612"
    },
    {
      "channel": 1,
      "note": 51,
      "start": 45.7403,
      "duration": 0.3271,
      "velocity": 96,
      "chip": "ym2612"
    },
    {
      "channel": 4,
      "note": 78,
      "start": 45.7439,
      "duration": 0.1237,
      "velocity": 127,
      "chip": "ym2612"
    },
    {
      "channel": 3,
      "note": 99,
      "start": 46.0207,
      "duration": 0.1135,
      "velocity": 115,
      "chip": "ym2612"
    },
    {
      "channel": 4,
      "note": 78,
      "start": 46.0386,
      "duration": 0.0457,
      "velocity": 127,
      "chip": "ym2612"
    },
    {
      "channel": 4,
      "note": 78,
      "start": 46.0888,
      "duration": 0.0122,
      "velocity": 127,
      "chip": "ym2612"
    },
    {
      "channel": 4,
      "note": 78,
      "start": 46.1057,
      "duration": 0.0452,
      "velocity": 127,
      "chip": "ym2612"
    },
    {
      "channel": 3,
      "note": 98,
      "start": 46.1543,
      "duration": 1.4132,
      "velocity": 115,
      "chip": "ym2612"
    },
    {
      "channel": 0,
      "note": 62,
      "start": 46.157,
      "duration": 0.3437,
      "velocity": 88,
      "chip": "ym2612"
    },
    {
      "channel": 1,
      "note": 50,
      "start": 46.1595,
      "duration": 0.2413,
      "velocity": 96,
      "chip": "ym2612"
    },
    {
      "channel": 4,
      "note": 78,
      "start": 46.1632,
      "duration": 0.1377,
      "velocity": 127,
      "chip": "ym2612"
    },
    {
      "channel": 4,
      "note": 78,
      "start": 46.4552,
      "duration": 0.0457,
      "velocity": 127,
      "chip": "ym2612"
    },
    {
      "channel": 4,
      "note": 78,
      "start": 46.5054,
      "duration": 0.0123,
      "velocity": 127,
      "chip": "ym2612"
    },
    {
      "channel": 4,
      "note": 78,
      "start": 46.522,
      "duration": 0.0456,
      "velocity": 127,
      "chip": "ym2612"
    },
    {
      "channel": 0,
      "note": 60,
      "start": 46.5706,
      "duration": 0.3302,
      "velocity": 88,
      "chip": "ym2612"
    },
    {
      "channel": 1,
      "note": 48,
      "start": 46.5729,
      "duration": 0.2611,
      "velocity": 96,
      "chip": "ym2612"
    },
    {
      "channel": 4,
      "note": 78,
      "start": 46.5766,
      "duration": 0.1409,
      "velocity": 127,
      "chip": "ym2612"
    },
    {
      "channel": 4,
      "note": 78,
      "start": 46.8722,
      "duration": 0.0453,
      "velocity": 127,
      "chip": "ym2612"
    },
    {
      "channel": 4,
      "note": 78,
      "start": 46.922,
      "duration": 0.029,
      "velocity": 127,
      "chip": "ym2612"
    },
    {
      "channel": 4,
      "note": 78,
      "start": 46.9554,
      "duration": 0.0288,
      "velocity": 127,
      "chip": "ym2612"
    },
    {
      "channel": 0,
      "note": 58,
      "start": 46.9872,
      "duration": 0.3803,
      "velocity": 88,
      "chip": "ym2612"
    },
    {
      "channel": 1,
      "note": 46,
      "start": 46.9896,
      "duration": 0.3113,
      "velocity": 96,
      "chip": "ym2612"
    },
    {
      "channel": 4,
      "note": 78,
      "start": 46.9933,
      "duration": 0.1408,
      "velocity": 127,
      "chip": "ym2612"
    },
    {
      "channel": 4,
      "note": 78,
      "start": 47.3054,
      "duration": 0.0289,
      "velocity": 127,
      "chip": "ym2612"
    },
    {
      "channel": 4,
      "note": 78,
      "start": 47.339,
      "duration": 0.0286,
      "velocity": 127,
      "chip": "ym2612"
    },
    {
      "channel": 4,
      "note": 78,
      "start": 47.3721,
      "duration": 0.0454,
      "velocity": 127,
      "chip": "ym2612"
    },
    {
      "channel": 0,
      "note": 57,
      "start": 47.4206,
      "duration": 0.1968,
      "velocity": 88,
      "chip": "ym2612"
    },
    {
      "channel": 1,
      "note": 45,
      "start": 47.4231,
      "duration": 0.311,
      "velocity": 96,
      "chip": "ym2612"
    },
    {
      "channel": 4,
      "note": 78,
      "start": 47.4268,
      "duration": 0.1242,
      "velocity": 127,
      "chip": "ym2612"
    },
    {
      "channel": 0,
      "note": 72,
      "start": 47.6873,
      "duration": 0.1467,
      "velocity": 102,
      "chip": "ym2612"
    },
    {
      "channel": 5,
      "note": 65,
      "start": 47.69,
      "duration": 0.1444,
      "velocity": 102,
      "chip": "ym2612"
    },
    {
      "channel": 4,
      "note": 78,
      "start": 47.722,
      "duration": 0.0456,
      "velocity": 127,
      "chip": "ym2612"
    },
    {
      "channel": 4,
      "note": 78,
      "start": 47.772,
      "duration": 0.0123,
      "velocity": 127,
      "chip": "ym2612"
    },
    {
      "channel": 4,
      "note": 78,
      "start": 47.7891,
      "duration": 0.0452,
      "velocity": 127,
      "chip": "ym2612"
    },
    {
      "channel": 3,
      "note": 91,
      "start": 47.8376,
      "duration": 0.13,
      "velocity": 115,
      "chip": "ym2612"
    },
    {
      "channel": 0,
      "note": 74,
      "start": 47.8403,
      "duration": 1.4438,
      "velocity": 102,
      "chip": "ym2612"
    },
    {
      "channel": 5,
      "note": 67,
      "start": 47.8431,
      "duration": 1.4413,
      "velocity": 102,
      "chip": "ym2612"
    },
    {
      "channel": 1,
      "note": 55,
      "start": 47.8455,
      "duration": 0.3054,
      "velocity": 96,
      "chip": "ym2612"
    },
    {
      "channel": 4,
      "note": 78,
      "start": 47.8492,
      "duration": 0.1185,
      "velocity": 127,
      "chip": "ym2612"
    },
    {
      "channel": 3,
      "note": 93,
      "start": 47.9707,
      "duration": 0.1135,
      "velocity": 115,
      "chip": "ym2612"
    },
    {
      "channel": 3,
      "note": 94,
      "start": 48.1206,
      "duration": 0.0636,
      "velocity": 115,
      "chip": "ym2612"
    },
    {
      "channel": 4,
      "note": 78,
      "start": 48.1246,
      "duration": 0.0598,
      "velocity": 127,
      "chip": "ym2612"
    },
    {
      "channel": 3,
      "note": 100,
      "start": 48.2544,
      "duration": 0.0464,
      "velocity": 115,
      "chip": "ym2612"
    },
    {
      "channel": 1,
      "note": 50,
      "start": 48.2575,
      "duration": 0.2933,
      "velocity": 96,
      "chip": "ym2612"
    },
    {
      "channel": 4,
      "note": 78,
      "start": 48.2611,
      "duration": 0.1232,
      "velocity": 127,
      "chip": "ym2612"
    },
    {
      "channel": 3,
      "note": 98,
      "start": 48.3041,
      "duration": 0.1967,
      "velocity": 115,
      "chip": "ym2612"
    },
    {
      "channel": 3,
      "note": 96,
      "start": 48.5373,
      "duration": 0.0636,
      "velocity": 115,
      "chip": "ym2612"
    },
    {
      "channel": 4,
      "note": 78,
      "start": 48.5554,
      "duration": 0.0456,
      "velocity": 127,
      "chip": "ym2612"
    },
    {
      "channel": 4,
      "note": 78,
      "start": 48.6054,
      "duration": 0.0122,
      "velocity": 127,
      "chip": "ym2612"
    },
    {
      "channel": 4,
      "note": 78,
      "start": 48.6223,
      "duration": 0.0453,
      "velocity": 127,
      "chip": "ym2612"
    },
    {
      "channel": 3,
      "note": 101,
      "start": 48.6706,
      "duration": 0.0635,
      "velocity": 115,
      "chip": "ym2612"
    },
    {
      "channel": 1,
      "note": 55,
      "start": 48.6734,
      "duration": 0.3274,
      "velocity": 96,
      "chip": "ym2612"
    },
    {
      "channel": 4,
      "note": 78,
      "start": 48.6771,
      "duration": 0.1405,
      "velocity": 127,
      "chip": "ym2612"
    },
    {
      "channel": 3,
      "note": 102,
      "start": 48.7374,
      "duration": 0.0468,
      "velocity": 115,
      "chip": "ym2612"
    },
    {
      "channel": 3,
      "note": 103,
      "start": 48.7878,
      "duration": 0.0964,
      "velocity": 115,
      "chip": "ym2612"
    },
    {
      "channel": 3,
      "note": 101,
      "start": 48.9539,
      "duration": 0.097,
      "velocity": 115,
      "chip": "ym2612"
    },
    {
      "channel": 4,
      "note": 78,
      "start": 48.9577,
      "duration": 0.1265,
      "velocity": 127,
      "chip": "ym2612"
    },
    {
      "channel": 3,
      "note": 98,
      "start": 49.0873,
      "duration": 0.0802,
      "velocity": 115,
      "chip": "ym2612"
    },
    {
      "channel": 1,
      "note": 50,
      "start": 49.0899,
      "duration": 0.3276,
      "velocity": 96,
      "chip": "ym2612"
    },
    {
      "channel": 4,
      "note": 78,
      "start": 49.0935,
      "duration": 0.1407,
      "velocity": 127,
      "chip": "ym2612"
    },
    {
      "channel": 3,
      "note": 96,
      "start": 49.2372,
      "duration": 0.0802,
      "velocity": 115,
      "chip": "ym2612"
    },
    {
      "channel": 3,
      "note": 93,
      "start": 49.3705,
      "duration": 0.0471,
      "velocity": 115,
      "chip": "ym2612"
    },
    {
      "channel": 0,
      "note": 72,
      "start": 49.3736,
      "duration": 0.1104,
      "velocity": 102,
      "chip": "ym2612"
    },
    {
      "channel": 5,
      "note": 65,
      "start": 49.3762,
      "duration": 0.1081,
      "velocity": 102,
      "chip": "ym2612"
    },
    {
      "channel": 4,
      "note": 78,
      "start": 49.4053,
      "duration": 0.0289,
      "velocity": 127,
      "chip": "ym2612"
    },
    {
      "channel": 4,
      "note": 78,
      "start": 49.4386,
      "duration": 0.029,
      "velocity": 127,
      "chip": "ym2612"
    },
    {
      "channel": 4,
      "note": 78,
      "start": 49.4723,
      "duration": 0.0452,
      "velocity": 127,
      "chip": "ym2612"
    },
    {
      "channel": 3,
      "note": 96,
      "start": 49.5207,
      "duration": 0.0301,
      "velocity": 115,
      "chip": "ym2612"
    },
    {
      "channel": 0,
      "note": 74,
      "start": 49.5234,
      "duration": 1.4273,
      "velocity": 102,
      "chip": "ym2612"
    },
    {
      "channel": 5,
      "note": 67,
      "start": 49.5262,
      "duration": 1.4249,
      "velocity": 102,
      "chip": "ym2612"
    },
    {
      "channel": 1,
      "note": 55,
      "start": 49.5287,
      "duration": 0.2888,
      "velocity": 96,
      "chip": "ym2612"
    },
    {
      "channel": 4,
      "note": 78,
      "start": 49.5324,
      "duration": 0.1185,
      "velocity": 127,
      "chip": "ym2612"
    },
    {
      "channel": 3,
      "note": 94,
      "start": 49.5541,
      "duration": 0.3467,
      "velocity": 115,
      "chip": "ym2612"
    },
    {
      "channel": 4,
      "note": 78,
      "start": 49.7884,
      "duration": 0.1458,
      "velocity": 127,
      "chip": "ym2612"
    },
    {
      "channel": 3,
      "note": 91,
      "start": 49.9377,
      "duration": 0.313,
      "velocity": 115,
      "chip": "ym2612"
    },
    {
      "channel": 1,
      "note": 52,
      "start": 49.9407,
      "duration": 0.1268,
      "velocity": 96,
      "chip": "ym2612"
    },
    {
      "channel": 4,
      "note": 78,
      "start": 49.944,
      "duration": 0.1236,
      "velocity": 127,
      "chip": "ym2612"
    },
    {
      "channel": 1,
      "note": 53,
      "start": 50.0706,
      "duration": 0.1469,
      "velocity": 96,
      "chip": "ym2612"
    },
    {
      "channel": 4,
      "note": 78,
      "start": 50.074,
      "duration": 0.1437,
      "velocity": 127,
      "chip": "ym2612"
    },
    {
      "channel": 1,
      "note": 54,
      "start": 50.2208,
      "duration": 0.1132,
      "velocity": 96,
      "chip": "ym2612"
    },
    {
      "channel": 4,
      "note": 78,
      "start": 50.2242,
      "duration": 0.1267,
      "velocity": 127,
      "chip": "ym2612"
    },
    {
      "channel": 3,
      "note": 91,
      "start": 50.3541,
      "duration": 0.3966,
      "velocity": 115,
      "chip": "ym2612"
    },
    {
      "channel": 1,
      "note": 55,
      "start": 50.3571,
      "duration": 0.2938,
      "velocity": 96,
      "chip": "ym2612"
    },
    {
      "channel": 4,
      "note": 78,
      "start": 50.3606,
      "duration": 0.1237,
      "velocity": 127,
      "chip": "ym2612"
    },
    {
      "channel": 4,
      "note": 78,
      "start": 50.6384,
      "duration": 0.1292,
      "velocity": 127,
      "chip": "ym2612"
    },
    {
      "channel": 1,
      "note": 53,
      "start": 50.7711,
      "duration": 0.3297,
      "velocity": 96,
      "chip": "ym2612"
    },
    {
      "channel": 4,
      "note": 78,
      "start": 50.775,
      "duration": 0.1258,
      "velocity": 127,
      "chip": "ym2612"
    },
    {
      "channel": 0,
      "note": 72,
      "start": 51.0539,
      "duration": 0.1301,
      "velocity": 102,
      "chip": "ym2612"
    },
    {
      "channel": 5,
      "note": 65,
      "start": 51.0566,
      "duration": 0.1278,
      "velocity": 102,
      "chip": "ym2612"
    },
    {
      "channel": 4,
      "note": 78,
      "start": 51.072,
      "duration": 0.0456,
      "velocity": 127,
      "chip": "ym2612"
    },
    {
      "channel": 4,
      "note": 78,
      "start": 51.122,
      "duration": 0.0123,
      "velocity": 127,
      "chip": "ym2612"
    },
    {
      "channel": 4,
      "note": 78,
      "start": 51.1387,
      "duration": 0.0456,
      "velocity": 127,
      "chip": "ym2612"
    },
    {
      "channel": 3,
      "note": 87,
      "start": 51.1876,
      "duration": 0.1466,
      "velocity": 115,
      "chip": "ym2612"
    },
    {
      "channel": 0,
      "note": 70,
      "start": 51.1907,
      "duration": 1.3933,
      "velocity": 102,
      "chip": "ym2612"
    },
    {
      "channel": 5,
      "note": 63,
      "start": 51.1935,
      "duration": 1.3909,
      "velocity": 102,
      "chip": "ym2612"
    },
    {
      "channel": 1,
      "note": 51,
      "start": 51.196,
      "duration": 0.3382,
      "velocity": 96,
      "chip": "ym2612"
    },
    {
      "channel": 4,
      "note": 78,
      "start": 51.1997,
      "duration": 0.1346,
      "velocity": 127,
      "chip": "ym2612"
    },
    {
      "channel": 3,
      "note": 91,
      "start": 51.3372,
      "duration": 0.1303,
      "velocity": 115,
      "chip": "ym2612"
    },
    {
      "channel": 3,
      "note": 94,
      "start": 51.4706,
      "duration": 0.0637,
      "velocity": 115,
      "chip": "ym2612"
    },
    {
      "channel": 4,
      "note": 78,
      "start": 51.4746,
      "duration": 0.0598,
      "velocity": 127,
      "chip": "ym2612"
    },
    {
      "channel": 3,
      "note": 99,
      "start": 51.6038,
      "duration": 0.1137,
      "velocity": 115,
      "chip": "ym2612"
    },
    {
      "channel": 1,
      "note": 46,
      "start": 51.6066,
      "duration": 0.3276,
      "velocity": 96,
      "chip": "ym2612"
    },
    {
      "channel": 4,
      "note": 78,
      "start": 51.6106,
      "duration": 0.1403,
      "velocity": 127,
      "chip": "ym2612"
    },
    {
      "channel": 3,
      "note": 94,
      "start": 51.7539,
      "duration": 0.0469,
      "velocity": 115,
      "chip": "ym2612"
    },
    {
      "channel": 3,
      "note": 94,
      "start": 51.8872,
      "duration": 0.0636,
      "velocity": 115,
      "chip": "ym2612"
    },
    {
      "channel": 4,
      "note": 78,
      "start": 51.9218,
      "duration": 0.0292,
      "velocity": 127,
      "chip": "ym2612"
    },
    {
      "channel": 4,
      "note": 78,
      "start": 51.9554,
      "duration": 0.0288,
      "velocity": 127,
      "chip": "ym2612"
    },
    {
      "channel": 4,
      "note": 78,
      "start": 51.9887,
      "duration": 0.0456,
      "velocity": 127,
      "chip": "ym2612"
    },
    {
      "channel": 3,
      "note": 103,
      "start": 52.0377,
      "duration": 0.1298,
      "velocity": 115,
      "chip": "ym2612"
    },
    {
      "channel": 1,
      "note": 51,
      "start": 52.0402,
      "duration": 0.3106,
      "velocity": 96,
      "chip": "ym2612"
    },
    {
      "channel": 4,
      "note": 78,
      "start": 52.0439,
      "duration": 0.1237,
      "velocity": 127,
      "chip": "ym2612"
    },
    {
      "channel": 3,
      "note": 99,
      "start": 52.1707,
      "duration": 0.0468,
      "velocity": 115,
      "chip": "ym2612"
    },
    {
      "channel": 3,
      "note": 99,
      "start": 52.3038,
      "duration": 0.0804,
      "velocity": 115,
      "chip": "ym2612"
    },
    {
      "channel": 4,
      "note": 78,
      "start": 52.308,
      "duration": 0.1428,
      "velocity": 127,
      "chip": "ym2612"
    },
    {
      "channel": 3,
      "note": 94,
      "start": 52.4539,
      "duration": 0.0803,
      "velocity": 115,
      "chip": "ym2612"
    },
    {
      "channel": 1,
      "note": 46,
      "start": 52.4566,
      "duration": 0.3609,
      "velocity": 96,
      "chip": "ym2612"
    },
    {
      "channel": 4,
      "note": 78,
      "start": 52.4602,
      "duration": 0.1241,
      "velocity": 127,
      "chip": "ym2612"
    },
    {
      "channel": 3,
      "note": 96,
      "start": 52.5874,
      "duration": 0.1134,
      "velocity": 115,
      "chip": "ym2612"
    },
    {
      "channel": 3,
      "note": 99,
      "start": 52.7372,
      "duration": 0.0636,
      "velocity": 115,
      "chip": "ym2612"
    },
    {
      "channel": 0,
      "note": 67,
      "start": 52.74,
      "duration": 0.1274,
      "velocity": 102,
      "chip": "ym2612"
    },
    {
      "channel": 5,
      "note": 60,
      "start": 52.7425,
      "duration": 0.1253,
      "velocity": 102,
      "chip": "ym2612"
    },
    {
      "channel": 4,
      "note": 78,
      "start": 52.7553,
      "duration": 0.0456,
      "velocity": 127,
      "chip": "ym2612"
    },
    {
      "channel": 4,
      "note": 78,
      "start": 52.8054,
      "duration": 0.0123,
      "velocity": 127,
      "chip": "ym2612"
    },
    {
      "channel": 4,
      "note": 78,
      "start": 52.8222,
      "duration": 0.0454,
      "velocity": 127,
      "chip": "ym2612"
    },
    {
      "channel": 3,
      "note": 98,
      "start": 52.8709,
      "duration": 0.13,
      "velocity": 115,
      "chip": "ym2612"
    },
    {
      "channel": 0,
      "note": 69,
      "start": 52.8737,
      "duration": 1.4603,
      "velocity": 102,
      "chip": "ym2612"
    },
    {
      "channel": 5,
      "note": 62,
      "start": 52.8764,
      "duration": 1.4579,
      "velocity": 102,
      "chip": "ym2612"
    },
    {
      "channel": 1,
      "note": 50,
      "start": 52.879,
      "duration": 0.3218,
      "velocity": 96,
      "chip": "ym2612"
    },
    {
      "channel": 4,
      "note": 78,
      "start": 52.8827,
      "duration": 0.1184,
      "velocity": 127,
      "chip": "ym2612"
    },
    {
      "channel": 3,
      "note": 102,
      "start": 53.1544,
      "duration": 0.1132,
      "velocity": 115,
      "chip": "ym2612"
    },
    {
      "channel": 4,
      "note": 78,
      "start": 53.1587,
      "duration": 0.1256,
      "velocity": 127,
      "chip": "ym2612"
    },
    {
      "channel": 3,
      "note": 93,
      "start": 53.2875,
      "duration": 0.1468,
      "velocity": 115,
      "chip": "ym2612"
    },
    {
      "channel": 1,
      "note": 45,
      "start": 53.2903,
      "duration": 0.1438,
      "velocity": 96,
      "chip": "ym2612"
    },
    {
      "channel": 4,
      "note": 78,
      "start": 53.2937,
      "duration": 0.1406,
      "velocity": 127,
      "chip": "ym2612"
    },
    {
      "channel": 1,
      "note": 47,
      "start": 53.4373,
      "duration": 0.13,
      "velocity": 96,
      "chip": "ym2612"
    },
    {
      "channel": 4,
      "note": 78,
      "start": 53.4408,
      "duration": 0.1268,
      "velocity": 127,
      "chip": "ym2612"
    },
    {
      "channel": 3,
      "note": 98,
      "start": 53.5708,
      "duration": 0.0967,
      "velocity": 115,
      "chip": "ym2612"
    },
    {
      "channel": 1,
      "note": 48,
      "start": 53.5734,
      "duration": 0.1274,
      "velocity": 96,
      "chip": "ym2612"
    },
    {
      "channel": 4,
      "note": 78,
      "start": 53.5767,
      "duration": 0.1242,
      "velocity": 127,
      "chip": "ym2612"
    },
    {
      "channel": 3,
      "note": 90,
      "start": 53.7042,
      "duration": 0.1466,
      "velocity": 115,
      "chip": "ym2612"
    },
    {
      "channel": 1,
      "note": 50,
      "start": 53.7075,
      "duration": 0.31,
      "velocity": 96,
      "chip": "ym2612"
    },
    {
      "channel": 4,
      "note": 78,
      "start": 53.711,
      "duration": 0.1399,
      "velocity": 127,
      "chip": "ym2612"
    },
    {
      "channel": 3,
      "note": 91,
      "start": 53.9373,
      "duration": 0.0468,
      "velocity": 115,
      "chip": "ym2612"
    },
    {
      "channel": 3,
      "note": 92,
      "start": 53.9877,
      "duration": 0.0631,
      "velocity": 115,
      "chip": "ym2612"
    },
    {
      "channel": 4,
      "note": 78,
      "start": 53.9916,
      "duration": 0.1427,
      "velocity": 127,
      "chip": "ym2612"
    },
    {
      "channel": 3,
      "note": 93,
      "start": 54.0539,
      "duration": 0.0803,
      "velocity": 115,
      "chip": "ym2612"
    },
    {
      "channel": 1,
      "note": 50,
      "start": 54.1373,
      "duration": 0.2968,
      "velocity": 96,
      "chip": "ym2612"
    },
    {
      "channel": 4,
      "note": 78,
      "start": 54.1409,
      "duration": 0.1267,
      "velocity": 127,
      "chip": "ym2612"
    },
    {
      "channel": 3,
      "note": 86,
      "start": 54.1541,
      "duration": 0.0968,
      "velocity": 115,
      "chip": "ym2612"
    },
    {
      "channel": 3,
      "note": 90,
      "start": 54.2706,
      "duration": 0.0969,
      "velocity": 115,
      "chip": "ym2612"
    },
    {
      "channel": 3,
      "note": 93,
      "start": 54.4037,
      "duration": 0.0972,
      "velocity": 115,
      "chip": "ym2612"
    },
    {
      "channel": 0,
      "note": 72,
      "start": 54.4069,
      "duration": 0.1105,
      "velocity": 102,
      "chip": "ym2612"
    },
    {
      "channel": 5,
      "note": 65,
      "start": 54.4095,
      "duration": 0.1082,
      "velocity": 102,
      "chip": "ym2612"
    },
    {
      "channel": 4,
      "note": 78,
      "start": 54.4386,
      "duration": 0.0456,
      "velocity": 127,
      "chip": "ym2612"
    },
    {
      "channel": 4,
      "note": 78,
      "start": 54.4886,
      "duration": 0.0125,
      "velocity": 127,
      "chip": "ym2612"
    },
    {
      "channel": 4,
      "note": 78,
      "start": 54.5059,
      "duration": 0.045,
      "velocity": 127,
      "chip": "ym2612"
    },
    {
      "channel": 3,
      "note": 91,
      "start": 54.5541,
      "duration": 0.3134,
      "velocity": 115,
      "chip": "ym2612"
    },
    {
      "channel": 0,
      "note": 74,
      "start": 54.5568,
      "duration": 1.4105,
      "velocity": 102,
      "chip": "ym2612"
    },
    {
      "channel": 5,
      "note": 67,
      "start": 54.5595,
      "duration": 1.4081,
      "velocity": 102,
      "chip": "ym2612"
    },
    {
      "channel": 1,
      "note": 55,
      "start": 54.5621,
      "duration": 0.3053,
      "velocity": 96,
      "chip": "ym2612"
    },
    {
      "channel": 4,
      "note": 78,
      "start": 54.5658,
      "duration": 0.1185,
      "velocity": 127,
      "chip": "ym2612"
    },
    {
      "channel": 4,
      "note": 78,
      "start": 54.8385,
      "duration": 0.0624,
      "velocity": 127,
      "chip": "ym2612"
    },
    {
      "channel": 3,
      "note": 98,
      "start": 54.9706,
      "duration": 0.297,
      "velocity": 115,
      "chip": "ym2612"
    },
    {
      "channel": 1,
      "note": 50,
      "start": 54.9734,
      "duration": 0.3608,
      "velocity": 96,
      "chip": "ym2612"
    },
    {
      "channel": 4,
      "note": 78,
      "start": 54.9771,
      "duration": 0.1238,
      "velocity": 127,
      "chip": "ym2612"
    },
    {
      "channel": 4,
      "note": 78,
      "start": 55.272,
      "duration": 0.0456,
      "velocity": 127,
      "chip": "ym2612"
    },
    {
      "channel": 3,
      "note": 101,
      "start": 55.2878,
      "duration": 0.0466,
      "velocity": 115,
      "chip": "ym2612"
    },
    {
      "channel": 4,
      "note": 78,
      "start": 55.3223,
      "duration": 0.0122,
      "velocity": 127,
      "chip": "ym2612"
    },
    {
      "channel": 3,
      "note": 102,
      "start": 55.3377,
      "duration": 0.0632,
      "velocity": 115,
      "chip": "ym2612"
    },
    {
      "channel": 4,
      "note": 78,
      "start": 55.3417,
      "duration": 0.0425,
      "velocity": 127,
      "chip": "ym2612"
    },
    {
      "channel": 1,
      "note": 55,
      "start": 55.3872,
      "duration": 0.3635,
      "velocity": 96,
      "chip": "ym2612"
    },
    {
      "channel": 4,
      "note": 78,
      "start": 55.3909,
      "duration": 0.1268,
      "velocity": 127,
      "chip": "ym2612"
    },
    {
      "channel": 3,
      "note": 103,
      "start": 55.4041,
      "duration": 0.1134,
      "velocity": 115,
      "chip": "ym2612"
    },
    {
      "channel": 3,
      "note": 98,
      "start": 55.6707,
      "duration": 0.0634,
      "velocity": 115,
      "chip": "ym2612"
    },
    {
      "channel": 4,
      "note": 78,
      "start": 55.6746,
      "duration": 0.1263,
      "velocity": 127,
      "chip": "ym2612"
    },
    {
      "channel": 3,
      "note": 101,
      "start": 55.8039,
      "duration": 0.0969,
      "velocity": 115,
      "chip": "ym2612"
    },
    {
      "channel": 1,
      "note": 50,
      "start": 55.8065,
      "duration": 0.3776,
      "velocity": 96,
      "chip": "ym2612"
    },
    {
      "channel": 4,
      "note": 78,
      "start": 55.8101,
      "duration": 0.1408,
      "velocity": 127,
      "chip": "ym2612"
    },
    {
      "channel": 3,
      "note": 98,
      "start": 55.9538,
      "duration": 0.0804,
      "velocity": 115,
      "chip": "ym2612"
    },
    {
      "channel": 3,
      "note": 96,
      "start": 56.0872,
      "duration": 0.0637,
      "velocity": 115,
      "chip": "ym2612"
    },
    {
      "channel": 0,
      "note": 72,
      "start": 56.09,
      "duration": 0.1107,
      "velocity": 102,
      "chip": "ym2612"
    },
    {
      "channel": 5,
      "note": 65,
      "start": 56.0926,
      "duration": 0.1085,
      "velocity": 102,
      "chip": "ym2612"
    },
    {
      "channel": 4,
      "note": 78,
      "start": 56.1052,
      "duration": 0.0458,
      "velocity": 127,
      "chip": "ym2612"
    },
    {
      "channel": 4,
      "note": 78,
      "start": 56.1558,
      "duration": 0.0285,
      "velocity": 127,
      "chip": "ym2612"
    },
    {
      "channel": 4,
      "note": 78,
      "start": 56.1888,
      "duration": 0.0288,
      "velocity": 127,
      "chip": "ym2612"
    },
    {
      "channel": 3,
      "note": 94,
      "start": 56.2212,
      "duration": 0.3131,
      "velocity": 115,
      "chip": "ym2612"
    },
    {
      "channel": 0,
      "note": 74,
      "start": 56.2243,
      "duration": 1.4763,
      "velocity": 102,
      "chip": "ym2612"
    },
    {
      "channel": 5,
      "note": 67,
      "start": 56.2271,
      "duration": 1.4739,
      "velocity": 102,
      "chip": "ym2612"
    },
    {
      "channel": 1,
      "note": 55,
      "start": 56.2296,
      "duration": 0.3045,
      "velocity": 96,
      "chip": "ym2612"
    },
    {
      "channel": 4,
      "note": 78,
      "start": 56.2334,
      "duration": 0.1342,
      "velocity": 127,
      "chip": "ym2612"
    },
    {
      "channel": 4,
      "note": 78,
      "start": 56.505,
      "duration": 0.1461,
      "velocity": 127,
      "chip": "ym2612"
    },
    {
      "channel": 3,
      "note": 93,
      "start": 56.5706,
      "duration": 0.0803,
      "velocity": 115,
      "chip": "ym2612"
    },
    {
      "channel": 3,
      "note": 91,
      "start": 56.6542,
      "duration": 0.3134,
      "velocity": 115,
      "chip": "ym2612"
    },
    {
      "channel": 1,
      "note": 52,
      "start": 56.6571,
      "duration": 0.077,
      "velocity": 96,
      "chip": "ym2612"
    },
    {
      "channel": 4,
      "note": 78,
      "start": 56.6605,
      "duration": 0.1237,
      "velocity": 127,
      "chip": "ym2612"
    },
    {
      "channel": 1,
      "note": 53,
      "start": 56.7872,
      "duration": 0.0969,
      "velocity": 96,
      "chip": "ym2612"
    },
    {
      "channel": 4,
      "note": 78,
      "start": 56.7906,
      "duration": 0.1269,
      "velocity": 127,
      "chip": "ym2612"
    },
    {
      "channel": 1,
      "note": 54,
      "start": 56.9209,
      "duration": 0.0966,
      "velocity": 96,
      "chip": "ym2612"
    },
    {
      "channel": 4,
      "note": 78,
      "start": 56.9242,
      "duration": 0.1433,
      "velocity": 127,
      "chip": "ym2612"
    },
    {
      "channel": 3,
      "note": 91,
      "start": 57.0707,
      "duration": 0.7636,
      "velocity": 115,
      "chip": "ym2612"
    },
    {
      "channel": 1,
      "note": 55,
      "start": 57.0737,
      "duration": 0.3438,
      "velocity": 96,
      "chip": "ym2612"
    },
    {
      "channel": 4,
      "note": 78,
      "start": 57.0772,
      "duration": 0.1237,
      "velocity": 127,
      "chip": "ym2612"
    },
    {
      "channel": 4,
      "note": 78,
      "start": 57.3554,
      "duration": 0.1288,
      "velocity": 127,
      "chip": "ym2612"
    },
    {
      "channel": 1,
      "note": 50,
      "start": 57.4872,
      "duration": 0.3469,
      "velocity": 96,
      "chip": "ym2612"
    },
    {
      "channel": 4,
      "note": 78,
      "start": 57.4908,
      "duration": 0.1267,
      "velocity": 127,
      "chip": "ym2612"
    },
    {
      "channel": 0,
      "note": 72,
      "start": 57.7706,
      "duration": 0.1135,
      "velocity": 102,
      "chip": "ym2612"
    },
    {
      "channel": 5,
      "note": 65,
      "start": 57.7732,
      "duration": 0.1112,
      "velocity": 102,
      "chip": "ym2612"
    },
    {
      "channel": 4,
      "note": 78,
      "start": 57.7886,
      "duration": 0.0459,
      "velocity": 127,
      "chip": "ym2612"
    },
    {
      "channel": 4,
      "note": 78,
      "start": 57.8388,
      "duration": 0.0122,
      "velocity": 127,
      "chip": "ym2612"
    },
    {
      "channel": 4,
      "note": 78,
      "start": 57.8554,
      "duration": 0.0454,
      "velocity": 127,
      "chip": "ym2612"
    },
    {
      "channel": 3,
      "note": 94,
      "start": 57.9041,
      "duration": 0.2968,
      "velocity": 115,
      "chip": "ym2612"
    },
    {
      "channel": 0,
      "note": 70,
      "start": 57.9068,
      "duration": 0.7605,
      "velocity": 102,
      "chip": "ym2612"
    },
    {
      "channel": 5,
      "note": 63,
      "start": 57.9094,
      "duration": 0.7583,
      "velocity": 102,
      "chip": "ym2612"
    },
    {
      "channel": 1,
      "note": 51,
      "start": 57.9118,
      "duration": 0.339,
      "velocity": 96,
      "chip": "ym2612"
    },
    {
      "channel": 4,
      "note": 78,
      "start": 57.9155,
      "duration": 0.1354,
      "velocity": 127,
      "chip": "ym2612"
    },
    {
      "channel": 4,
      "note": 78,
      "start": 58.1889,
      "duration": 0.0621,
      "velocity": 127,
      "chip": "ym2612"
    },
    {
      "channel": 3,
      "note": 99,
      "start": 58.3209,
      "duration": 0.3799,
      "velocity": 115,
      "chip": "ym2612"
    },
    {
      "channel": 1,
      "note": 58,
      "start": 58.3237,
      "duration": 0.3272,
      "velocity": 96,
      "chip": "ym2612"
    },
    {
      "channel": 4,
      "note": 78,
      "start": 58.3274,
      "duration": 0.1403,
      "velocity": 127,
      "chip": "ym2612"
    },
    {
      "channel": 4,
      "note": 78,
      "start": 58.6386,
      "duration": 0.029,
      "velocity": 127,
      "chip": "ym2612"
    },
    {
      "channel": 4,
      "note": 78,
      "start": 58.6721,
      "duration": 0.0289,
      "velocity": 127,
      "chip": "ym2612"
    },
    {
      "channel": 4,
      "note": 78,
      "start": 58.7054,
      "duration": 0.0455,
      "velocity": 127,
      "chip": "ym2612"
    },
    {
      "channel": 3,
      "note": 98,
      "start": 58.7541,
      "duration": 0.1134,
      "velocity": 115,
      "chip": "ym2612"
    },
    {
      "channel": 0,
      "note": 69,
      "start": 58.7572,
      "duration": 0.7602,
      "velocity": 102,
      "chip": "ym2612"
    },
    {
      "channel": 5,
      "note": 62,
      "start": 58.7598,
      "duration": 0.7581,
      "velocity": 102,
      "chip": "ym2612"
    },
    {
      "channel": 1,
      "note": 57,
      "start": 58.7623,
      "duration": 0.3551,
      "velocity": 96,
      "chip": "ym2612"
    },
    {
      "channel": 4,
      "note": 78,
      "start": 58.7664,
      "duration": 0.1179,
      "velocity": 127,
      "chip": "ym2612"
    },
    {
      "channel": 3,
      "note": 96,
      "start": 59.0207,
      "duration": 0.0802,
      "velocity": 115,
      "chip": "ym2612"
    },
    {
      "channel": 4,
      "note": 78,
      "start": 59.0246,
      "duration": 0.143,
      "velocity": 127,
      "chip": "ym2612"
    },
    {
      "channel": 3,
      "note": 98,
      "start": 59.1707,
      "duration": 0.1135,
      "velocity": 115,
      "chip": "ym2612"
    },
    {
      "channel": 1,
      "note": 50,
      "start": 59.1735,
      "duration": 0.294,
      "velocity": 96,
      "chip": "ym2612"
    },
    {
      "channel": 4,
      "note": 78,
      "start": 59.1771,
      "duration": 0.1239,
      "velocity": 127,
      "chip": "ym2612"
    },
    {
      "channel": 3,
      "note": 102,
      "start": 59.4373,
      "duration": 0.0802,
      "velocity": 115,
      "chip": "ym2612"
    },
    {
      "channel": 4,
      "note": 78,
      "start": 59.472,
      "duration": 0.0457,
      "velocity": 127,
      "chip": "ym2612"
    },
    {
      "channel": 4,
      "note": 78,
      "start": 59.5222,
      "duration": 0.012,
      "velocity": 127,
      "chip": "ym2612"
    },
    {
      "channel": 4,
      "note": 78,
      "start": 59.5386,
      "duration": 0.0456,
      "velocity": 127,
      "chip": "ym2612"
    },
    {
      "channel": 3,
      "note": 103,
      "start": 59.588,
      "duration": 0.1795,
      "velocity": 115,
      "chip": "ym2612"
    },
    {
      "channel": 0,
      "note": 67,
      "start": 59.5909,
      "duration": 0.0765,
      "velocity": 102,
      "chip": "ym2612"
    },
    {
      "channel": 1,
      "note": 55,
      "start": 59.5935,
      "duration": 0.2906,
      "velocity": 96,
      "chip": "ym2612"
    },
    {
      "channel": 4,
      "note": 78,
      "start": 59.5975,
      "duration": 0.1201,
      "velocity": 127,
      "chip": "ym2612"
    },
    {
      "channel": 2,
      "note": 62,
      "start": 59.8712,
      "duration": 0.0631,
      "velocity": 88,
      "chip": "ym2612"
    },
    {
      "channel": 2,
      "note": 63,
      "start": 60.0038,
      "duration": 0.0638,
      "velocity": 88,
      "chip": "ym2612"
    },
    {
      "channel": 2,
      "note": 58,
      "start": 60.1371,
      "duration": 0.0805,
      "velocity": 88,
      "chip": "ym2612"
    },
    {
      "channel": 2,
      "note": 57,
      "start": 60.2871,
      "duration": 0.0638,
      "velocity": 88,
      "chip": "ym2612"
    },
    {
      "channel": 2,
      "note": 55,
      "start": 60.4205,
      "duration": 0.0637,
      "velocity": 88,
      "chip": "ym2612"
    },
    {
      "channel": 2,
      "note": 67,
      "start": 60.8373,
      "duration": 0.147,
      "velocity": 88,
      "chip": "ym2612"
    },
    {
      "channel": 1,
      "note": 55,
      "start": 60.8405,
      "duration": 0.1936,
      "velocity": 96,
      "chip": "ym2612"
    },
    {
      "channel": 4,
      "note": 78,
      "start": 60.8441,
      "duration": 0.14,
      "velocity": 127,
      "chip": "ym2612"
    },
    {
      "channel": 1,
      "note": 54,
      "start": 61.1207,
      "duration": 0.1134,
      "velocity": 96,
      "chip": "ym2612"
    },
    {
      "channel": 4,
      "note": 78,
      "start": 61.1242,
      "duration": 0.1433,
      "velocity": 127,
      "chip": "ym2612"
    },
    {
      "channel": 3,
      "note": 91,
      "start": 61.2707,
      "duration": 0.1301,
      "velocity": 115,
      "chip": "ym2612"
    },
    {
      "channel": 1,
      "note": 55,
      "start": 61.2737,
      "duration": 0.2938,
      "velocity": 96,
      "chip": "ym2612"
    },
    {
      "channel": 4,
      "note": 78,
      "start": 61.2772,
      "duration": 0.1238,
      "velocity": 127,
      "chip": "ym2612"
    },
    {
      "channel": 3,
      "note": 101,
      "start": 61.4707,
      "duration": 0.0302,
      "velocity": 115,
      "chip": "ym2612"
    },
    {
      "channel": 3,
      "note": 102,
      "start": 61.5041,
      "duration": 0.0301,
      "velocity": 115,
      "chip": "ym2612"
    },
    {
      "channel": 3,
      "note": 103,
      "start": 61.5375,
      "duration": 0.08,
      "velocity": 115,
      "chip": "ym2612"
    },
    {
      "channel": 4,
      "note": 78,
      "start": 61.5413,
      "duration": 0.1429,
      "velocity": 127,
      "chip": "ym2612"
    },
    {
      "channel": 2,
      "note": 62,
      "start": 61.6873,
      "duration": 0.1303,
      "velocity": 88,
      "chip": "ym2612"
    },
    {
      "channel": 1,
      "note": 57,
      "start": 61.6898,
      "duration": 0.2943,
      "velocity": 96,
      "chip": "ym2612"
    },
    {
      "channel": 4,
      "note": 78,
      "start": 61.6934,
      "duration": 0.1241,
      "velocity": 127,
      "chip": "ym2612"
    },
    {
      "channel": 2,
      "note": 73,
      "start": 61.9207,
      "duration": 0.047,
      "velocity": 88,
      "chip": "ym2612"
    },
    {
      "channel": 2,
      "note": 74,
      "start": 61.9714,
      "duration": 0.0629,
      "velocity": 88,
      "chip": "ym2612"
    },
    {
      "channel": 4,
      "note": 78,
      "start": 61.9752,
      "duration": 0.1256,
      "velocity": 127,
      "chip": "ym2612"
    },
    {
      "channel": 3,
      "note": 82,
      "start": 62.1041,
      "duration": 0.1301,
      "velocity": 115,
      "chip": "ym2612"
    },
    {
      "channel": 1,
      "note": 58,
      "start": 62.1066,
      "duration": 0.2941,
      "velocity": 96,
      "chip": "ym2612"
    },
    {
      "channel": 4,
      "note": 78,
      "start": 62.1102,
      "duration": 0.1241,
      "velocity": 127,
      "chip": "ym2612"
    },
    {
      "channel": 3,
      "note": 92,
      "start": 62.3211,
      "duration": 0.0131,
      "velocity": 115,
      "chip": "ym2612"
    },
    {
      "channel": 3,
      "note": 93,
      "start": 62.3374,
      "duration": 0.0467,
      "velocity": 115,
      "chip": "ym2612"
    },
    {
      "channel": 3,
      "note": 106,
      "start": 62.3873,
      "duration": 0.0634,
      "velocity": 115,
      "chip": "ym2612"
    },
    {
      "channel": 4,
      "note": 78,
      "start": 62.3917,
      "duration": 0.0092,
      "velocity": 127,
      "chip": "ym2612"
    },
    {
      "channel": 4,
      "note": 78,
      "start": 62.4054,
      "duration": 0.0456,
      "velocity": 127,
      "chip": "ym2612"
    },
    {
      "channel": 4,
      "note": 78,
      "start": 62.4554,
      "duration": 0.0123,
      "velocity": 127,
      "chip": "ym2612"
    },
    {
      "channel": 4,
      "note": 78,
      "start": 62.472,
      "duration": 0.0455,
      "velocity": 127,
      "chip": "ym2612"
    },
    {
      "channel": 3,
      "note": 105,
      "start": 62.5204,
      "duration": 0.0638,
      "velocity": 115,
      "chip": "ym2612"
    },
    {
      "channel": 1,
      "note": 59,
      "start": 62.5232,
      "duration": 0.3276,
      "velocity": 96,
      "chip": "ym2612"
    },
    {
      "channel": 4,
      "note": 78,
      "start": 62.5269,
      "duration": 0.1406,
      "velocity": 127,
      "chip": "ym2612"
    },
    {
      "channel": 3,
      "note": 103,
      "start": 62.6704,
      "duration": 0.0637,
      "velocity": 115,
      "chip": "ym2612"
    },
    {
      "channel": 4,
      "note": 78,
      "start": 62.6741,
      "duration": 0.1267,
      "velocity": 127,
      "chip": "ym2612"
    },
    {
      "channel": 3,
      "note": 102,
      "start": 62.804,
      "duration": 0.0634,
      "velocity": 115,
      "chip": "ym2612"
    },
    {
      "channel": 4,
      "note": 78,
      "start": 62.8083,
      "duration": 0.126,
      "velocity": 127,
      "chip": "ym2612"
    },
    {
      "channel": 1,
      "note": 52,
      "start": 62.9391,
      "duration": 0.145,
      "velocity": 96,
      "chip": "ym2612"
    },
    {
      "channel": 2,
      "note": 81,
      "start": 62.9421,
      "duration": 0.0922,
      "velocity": 121,
      "chip": "ym2612"
    },
    {
      "channel": 4,
      "note": 66,
      "start": 62.9455,
      "duration": 0.1389,
      "velocity": 127,
      "chip": "ym2612"
    },
    {
      "channel": 0,
      "note": 83,
      "start": 63.2209,
      "duration": 0.0964,
      "velocity": 76,
      "chip": "ym2612"
    },
    {
      "channel": 5,
      "note": 79,
      "start": 63.2237,
      "duration": 0.0939,
      "velocity": 76,
      "chip": "ym2612"
    },
    {
      "channel": 2,
      "note": 81,
      "start": 63.2264,
      "duration": 0.0579,
      "velocity": 121,
      "chip": "ym2612"
    },
    {
      "channel": 1,
      "note": 47,
      "start": 63.3706,
      "duration": 0.1969,
      "velocity": 96,
      "chip": "ym2612"
    },
    {
      "channel": 2,
      "note": 81,
      "start": 63.373,
      "duration": 0.0613,
      "velocity": 121,
      "chip": "ym2612"
    },
    {
      "channel": 4,
      "note": 66,
      "start": 63.3763,
      "duration": 0.1246,
      "velocity": 127,
      "chip": "ym2612"
    },
    {
      "channel": 0,
      "note": 83,
      "start": 63.6375,
      "duration": 0.1465,
      "velocity": 76,
      "chip": "ym2612"
    },
    {
      "channel": 5,
      "note": 79,
      "start": 63.6403,
      "duration": 0.144,
      "velocity": 76,
      "chip": "ym2612"
    },
    {
      "channel": 2,
      "note": 81,
      "start": 63.643,
      "duration": 0.0413,
      "velocity": 121,
      "chip": "ym2612"
    },
    {
      "channel": 1,
      "note": 52,
      "start": 63.7872,
      "duration": 0.1968,
      "velocity": 96,
      "chip": "ym2612"
    },
    {
      "channel": 2,
      "note": 81,
      "start": 63.7898,
      "duration": 0.0611,
      "velocity": 121,
      "chip": "ym2612"
    },
    {
      "channel": 4,
      "note": 66,
      "start": 63.7933,
      "duration": 0.1076,
      "velocity": 127,
      "chip": "ym2612"
    },
    {
      "channel": 0,
      "note": 83,
      "start": 64.0541,
      "duration": 0.1133,
      "velocity": 76,
      "chip": "ym2612"
    },
    {
      "channel": 5,
      "note": 79,
      "start": 64.0569,
      "duration": 0.1107,
      "velocity": 76,
      "chip": "ym2612"
    },
    {
      "channel": 2,
      "note": 81,
      "start": 64.0596,
      "duration": 0.0413,
      "velocity": 121,
      "chip": "ym2612"
    },
    {
      "channel": 1,
      "note": 49,
      "start": 64.2045,
      "duration": 0.1296,
      "velocity": 96,
      "chip": "ym2612"
    },
    {
      "channel": 2,
      "note": 81,
      "start": 64.2075,
      "duration": 0.0602,
      "velocity": 121,
      "chip": "ym2612"
    },
    {
      "channel": 4,
      "note": 66,
      "start": 64.2107,
      "duration": 0.1069,
      "velocity": 127,
      "chip": "ym2612"
    },
    {
      "channel": 1,
      "note": 50,
      "start": 64.3372,
      "duration": 0.1469,
      "velocity": 96,
      "chip": "ym2612"
    },
    {
      "channel": 0,
      "note": 84,
      "start": 64.4875,
      "duration": 0.0798,
      "velocity": 76,
      "chip": "ym2612"
    },
    {
      "channel": 5,
      "note": 81,
      "start": 64.4907,
      "duration": 0.077,
      "velocity": 76,
      "chip": "ym2612"
    },
    {
      "channel": 1,
      "note": 51,
      "start": 64.4932,
      "duration": 0.1076,
      "velocity": 96,
      "chip": "ym2612"
    },
    {
      "channel": 2,
      "note": 81,
      "start": 64.4958,
      "duration": 0.0218,
      "velocity": 121,
      "chip": "ym2612"
    },
    {
      "channel": 1,
      "note": 52,
      "start": 64.6207,
      "duration": 0.23,
      "velocity": 96,
      "chip": "ym2612"
    },
    {
      "channel": 2,
      "note": 81,
      "start": 64.6233,
      "duration": 0.0944,
      "velocity": 121,
      "chip": "ym2612"
    },
    {
      "channel": 4,
      "note": 66,
      "start": 64.6267,
      "duration": 0.1241,
      "velocity": 127,
      "chip": "ym2612"
    },
    {
      "channel": 0,
      "note": 83,
      "start": 64.9041,
      "duration": 0.1133,
      "velocity": 76,
      "chip": "ym2612"
    },
    {
      "channel": 5,
      "note": 79,
      "start": 64.9069,
      "duration": 0.1107,
      "velocity": 76,
      "chip": "ym2612"
    },
    {
      "channel": 2,
      "note": 81,
      "start": 64.9097,
      "duration": 0.058,
      "velocity": 121,
      "chip": "ym2612"
    },
    {
      "channel": 1,
      "note": 47,
      "start": 65.037,
      "duration": 0.2304,
      "velocity": 96,
      "chip": "ym2612"
    },
    {
      "channel": 2,
      "note": 81,
      "start": 65.0395,
      "duration": 0.0614,
      "velocity": 121,
      "chip": "ym2612"
    },
    {
      "channel": 4,
      "note": 66,
      "start": 65.0432,
      "duration": 0.1411,
      "velocity": 127,
      "chip": "ym2612"
    },
    {
      "channel": 0,
      "note": 83,
      "start": 65.3207,
      "duration": 0.1133,
      "velocity": 76,
      "chip": "ym2612"
    },
    {
      "channel": 5,
      "note": 79,
      "start": 65.3235,
      "duration": 0.1108,
      "velocity": 76,
      "chip": "ym2612"
    },
    {
      "channel": 2,
      "note": 81,
      "start": 65.3262,
      "duration": 0.0415,
      "velocity": 121,
      "chip": "ym2612"
    },
    {
      "channel": 1,
      "note": 52,
      "start": 65.4539,
      "duration": 0.2801,
      "velocity": 96,
      "chip": "ym2612"
    },
    {
      "channel": 2,
      "note": 81,
      "start": 65.4569,
      "duration": 0.0774,
      "velocity": 121,
      "chip": "ym2612"
    },
    {
      "channel": 4,
      "note": 66,
      "start": 65.4603,
      "duration": 0.1072,
      "velocity": 127,
      "chip": "ym2612"
    },
    {
      "channel": 0,
      "note": 83,
      "start": 65.7373,
      "duration": 0.1133,
      "velocity": 76,
      "chip": "ym2612"
    },
    {
      "channel": 5,
      "note": 79,
      "start": 65.7402,
      "duration": 0.1108,
      "velocity": 76,
      "chip": "ym2612"
    },
    {
      "channel": 2,
      "note": 81,
      "start": 65.7429,
      "duration": 0.0414,
      "velocity": 121,
      "chip": "ym2612"
    },
    {
      "channel": 1,
      "note": 49,
      "start": 65.8874,
      "duration": 0.1301,
      "velocity": 96,
      "chip": "ym2612"
    },
    {
      "channel": 2,
      "note": 81,
      "start": 65.89,
      "duration": 0.0609,
      "velocity": 121,
      "chip": "ym2612"
    },
    {
      "channel": 4,
      "note": 66,
      "start": 65.8933,
      "duration": 0.1076,
      "velocity": 127,
      "chip": "ym2612"
    },
    {
      "channel": 1,
      "note": 50,
      "start": 66.0206,
      "duration": 0.1302,
      "velocity": 96,
      "chip": "ym2612"
    },
    {
      "channel": 3,
      "note": 63,
      "start": 66.1541,
      "duration": 0.1468,
      "velocity": 88,
      "chip": "ym2612"
    },
    {
      "channel": 0,
      "note": 84,
      "start": 66.1572,
      "duration": 0.1102,
      "velocity": 76,
      "chip": "ym2612"
    },
    {
      "channel": 5,
      "note": 81,
      "start": 66.16,
      "duration": 0.1076,
      "velocity": 76,
      "chip": "ym2612"
    },
    {
      "channel": 1,
      "note": 51,
      "start": 66.1627,
      "duration": 0.1381,
      "velocity": 96,
      "chip": "ym2612"
    },
    {
      "channel": 2,
      "note": 81,
      "start": 66.1654,
      "duration": 0.0356,
      "velocity": 121,
      "chip": "ym2612"
    },
    {
      "channel": 3,
      "note": 64,
      "start": 66.3041,
      "duration": 0.1134,
      "velocity": 88,
      "chip": "ym2612"
    },
    {
      "channel": 1,
      "note": 52,
      "start": 66.3069,
      "duration": 0.2438,
      "velocity": 96,
      "chip": "ym2612"
    },
    {
      "channel": 2,
      "note": 81,
      "start": 66.3095,
      "duration": 0.0748,
      "velocity": 121,
      "chip": "ym2612"
    },
    {
      "channel": 4,
      "note": 66,
      "start": 66.313,
      "duration": 0.0712,
      "velocity": 127,
      "chip": "ym2612"
    },
    {
      "channel": 0,
      "note": 83,
      "start": 66.5875,
      "duration": 0.0798,
      "velocity": 76,
      "chip": "ym2612"
    },
    {
      "channel": 5,
      "note": 79,
      "start": 66.5903,
      "duration": 0.0774,
      "velocity": 76,
      "chip": "ym2612"
    },
    {
      "channel": 2,
      "note": 81,
      "start": 66.5934,
      "duration": 0.0576,
      "velocity": 121,
      "chip": "ym2612"
    },
    {
      "channel": 1,
      "note": 47,
      "start": 66.7205,
      "duration": 0.2469,
      "velocity": 96,
      "chip": "ym2612"
    },
    {
      "channel": 2,
      "note": 81,
      "start": 66.723,
      "duration": 0.0946,
      "velocity": 121,
      "chip": "ym2612"
    },
    {
      "channel": 4,
      "note": 66,
      "start": 66.7263,
      "duration": 0.0912,
      "velocity": 127,
      "chip": "ym2612"
    },
    {
      "channel": 3,
      "note": 66,
      "start": 67.0039,
      "duration": 0.1303,
      "velocity": 88,
      "chip": "ym2612"
    },
    {
      "channel": 0,
      "note": 83,
      "start": 67.0068,
      "duration": 0.1272,
      "velocity": 76,
      "chip": "ym2612"
    },
    {
      "channel": 5,
      "note": 79,
      "start": 67.0095,
      "duration": 0.1248,
      "velocity": 76,
      "chip": "ym2612"
    },
    {
      "channel": 2,
      "note": 81,
      "start": 67.0122,
      "duration": 0.0388,
      "velocity": 121,
      "chip": "ym2612"
    },
    {
      "channel": 3,
      "note": 67,
      "start": 67.1375,
      "duration": 0.1133,
      "velocity": 88,
      "chip": "ym2612"
    },
    {
      "channel": 1,
      "note": 52,
      "start": 67.14,
      "duration": 0.2607,
      "velocity": 96,
      "chip": "ym2612"
    },
    {
      "channel": 2,
      "note": 81,
      "start": 67.1426,
      "duration": 0.0584,
      "velocity": 121,
      "chip": "ym2612"
    },
    {
      "channel": 4,
      "note": 66,
      "start": 67.1458,
      "duration": 0.0884,
      "velocity": 127,
      "chip": "ym2612"
    },
    {
      "channel": 0,
      "note": 83,
      "start": 67.4208,
      "duration": 0.1132,
      "velocity": 76,
      "chip": "ym2612"
    },
    {
      "channel": 5,
      "note": 79,
      "start": 67.424,
      "duration": 0.1104,
      "velocity": 76,
      "chip": "ym2612"
    },
    {
      "channel": 2,
      "note": 81,
      "start": 67.4265,
      "duration": 0.0577,
      "velocity": 121,
      "chip": "ym2612"
    },
    {
      "channel": 1,
      "note": 47,
      "start": 67.5539,
      "duration": 0.2802,
      "velocity": 96,
      "chip": "ym2612"
    },
    {
      "channel": 2,
      "note": 81,
      "start": 67.5564,
      "duration": 0.0779,
      "velocity": 121,
      "chip": "ym2612"
    },
    {
      "channel": 4,
      "note": 66,
      "start": 67.5597,
      "duration": 0.0912,
      "velocity": 127,
      "chip": "ym2612"
    },
    {
      "channel": 3,
      "note": 63,
      "start": 67.8376,
      "duration": 0.1132,
      "velocity": 88,
      "chip": "ym2612"
    },
    {
      "channel": 0,
      "note": 84,
      "start": 67.8405,
      "duration": 0.0936,
      "velocity": 76,
      "chip": "ym2612"
    },
    {
      "channel": 5,
      "note": 81,
      "start": 67.8433,
      "duration": 0.0912,
      "velocity": 76,
      "chip": "ym2612"
    },
    {
      "channel": 2,
      "note": 81,
      "start": 67.8463,
      "duration": 0.038,
      "velocity": 121,
      "chip": "ym2612"
    },
    {
      "channel": 3,
      "note": 64,
      "start": 67.9702,
      "duration": 0.1139,
      "velocity": 88,
      "chip": "ym2612"
    },
    {
      "channel": 1,
      "note": 52,
      "start": 67.9729,
      "duration": 0.3112,
      "velocity": 96,
      "chip": "ym2612"
    },
    {
      "channel": 2,
      "note": 81,
      "start": 67.9755,
      "duration": 0.0755,
      "velocity": 121,
      "chip": "ym2612"
    },
    {
      "channel": 4,
      "note": 66,
      "start": 67.9787,
      "duration": 0.0888,
      "velocity": 127,
      "chip": "ym2612"
    },
    {
      "channel": 3,
      "note": 66,
      "start": 68.1205,
      "duration": 0.1303,
      "velocity": 88,
      "chip": "ym2612"
    },
    {
      "channel": 3,
      "note": 67,
      "start": 68.2539,
      "duration": 0.1136,
      "velocity": 88,
      "chip": "ym2612"
    },
    {
      "channel": 0,
      "note": 83,
      "start": 68.2568,
      "duration": 0.1106,
      "velocity": 76,
      "chip": "ym2612"
    },
    {
      "channel": 5,
      "note": 79,
      "start": 68.2595,
      "duration": 0.1082,
      "velocity": 76,
      "chip": "ym2612"
    },
    {
      "channel": 2,
      "note": 81,
      "start": 68.2622,
      "duration": 0.0388,
      "velocity": 121,
      "chip": "ym2612"
    },
    {
      "channel": 3,
      "note": 69,
      "start": 68.4039,
      "duration": 0.0803,
      "velocity": 88,
      "chip": "ym2612"
    },
    {
      "channel": 1,
      "note": 47,
      "start": 68.4066,
      "duration": 0.2609,
      "velocity": 96,
      "chip": "ym2612"
    },
    {
      "channel": 2,
      "note": 81,
      "start": 68.4091,
      "duration": 0.0585,
      "velocity": 121,
      "chip": "ym2612"
    },
    {
      "channel": 4,
      "note": 66,
      "start": 68.4125,
      "duration": 0.105,
      "velocity": 127,
      "chip": "ym2612"
    },
    {
      "channel": 3,
      "note": 72,
      "start": 68.6706,
      "duration": 0.1136,
      "velocity": 88,
      "chip": "ym2612"
    },
    {
      "channel": 0,
      "note": 83,
      "start": 68.6734,
      "duration": 0.1107,
      "velocity": 76,
      "chip": "ym2612"
    },
    {
      "channel": 5,
      "note": 79,
      "start": 68.6761,
      "duration": 0.1083,
      "velocity": 76,
      "chip": "ym2612"
    },
    {
      "channel": 2,
      "note": 81,
      "start": 68.6788,
      "duration": 0.0388,
      "velocity": 121,
      "chip": "ym2612"
    },
    {
      "channel": 3,
      "note": 71,
      "start": 68.8204,
      "duration": 0.1137,
      "velocity": 88,
      "chip": "ym2612"
    },
    {
      "channel": 1,
      "note": 52,
      "start": 68.8229,
      "duration": 0.2778,
      "velocity": 96,
      "chip": "ym2612"
    },
    {
      "channel": 2,
      "note": 81,
      "start": 68.8259,
      "duration": 0.0583,
      "velocity": 121,
      "chip": "ym2612"
    },
    {
      "channel": 4,
      "note": 66,
      "start": 68.8293,
      "duration": 0.0716,
      "velocity": 127,
      "chip": "ym2612"
    },
    {
      "channel": 3,
      "note": 63,
      "start": 69.1041,
      "duration": 0.1134,
      "velocity": 88,
      "chip": "ym2612"
    },
    {
      "channel": 0,
      "note": 83,
      "start": 69.1073,
      "duration": 0.1101,
      "velocity": 76,
      "chip": "ym2612"
    },
    {
      "channel": 5,
      "note": 79,
      "start": 69.1101,
      "duration": 0.1077,
      "velocity": 76,
      "chip": "ym2612"
    },
    {
      "channel": 2,
      "note": 81,
      "start": 69.1126,
      "duration": 0.055,
      "velocity": 121,
      "chip": "ym2612"
    },
    {
      "channel": 3,
      "note": 64,
      "start": 69.2373,
      "duration": 0.0969,
      "velocity": 88,
      "chip": "ym2612"
    },
    {
      "channel": 1,
      "note": 51,
      "start": 69.2401,
      "duration": 0.1107,
      "velocity": 96,
      "chip": "ym2612"
    },
    {
      "channel": 2,
      "note": 81,
      "start": 69.2426,
      "duration": 0.0919,
      "velocity": 121,
      "chip": "ym2612"
    },
    {
      "channel": 4,
      "note": 66,
      "start": 69.2459,
      "duration": 0.0884,
      "velocity": 127,
      "chip": "ym2612"
    },
    {
      "channel": 1,
      "note": 50,
      "start": 69.3709,
      "duration": 0.1466,
      "velocity": 96,
      "chip": "ym2612"
    },
    {
      "channel": 3,
      "note": 71,
      "start": 69.5206,
      "duration": 0.1302,
      "velocity": 88,
      "chip": "ym2612"
    },
    {
      "channel": 0,
      "note": 84,
      "start": 69.5234,
      "duration": 0.1107,
      "velocity": 76,
      "chip": "ym2612"
    },
    {
      "channel": 5,
      "note": 81,
      "start": 69.5262,
      "duration": 0.1082,
      "velocity": 76,
      "chip": "ym2612"
    },
    {
      "channel": 1,
      "note": 49,
      "start": 69.5285,
      "duration": 0.1222,
      "velocity": 96,
      "chip": "ym2612"
    },
    {
      "channel": 2,
      "note": 81,
      "start": 69.5311,
      "duration": 0.0365,
      "velocity": 121,
      "chip": "ym2612"
    },
    {
      "channel": 3,
      "note": 70,
      "start": 69.654,
      "duration": 0.8801,
      "velocity": 88,
      "chip": "ym2612"
    },
    {
      "channel": 1,
      "note": 48,
      "start": 69.6568,
      "duration": 0.2772,
      "velocity": 96,
      "chip": "ym2612"
    },
    {
      "channel": 2,
      "note": 81,
      "start": 69.6594,
      "duration": 0.0583,
      "velocity": 121,
      "chip": "ym2612"
    },
    {
      "channel": 4,
      "note": 66,
      "start": 69.6627,
      "duration": 0.0882,
      "velocity": 127,
      "chip": "ym2612"
    },
    {
      "channel": 0,
      "note": 76,
      "start": 69.9376,
      "duration": 0.1798,
      "velocity": 76,
      "chip": "ym2612"
    },
    {
      "channel": 5,
      "note": 82,
      "start": 69.9403,
      "duration": 0.1773,
      "velocity": 76,
      "chip": "ym2612"
    },
    {
      "channel": 2,
      "note": 81,
      "start": 69.943,
      "duration": 0.0413,
      "velocity": 121,
      "chip": "ym2612"
    },
    {
      "channel": 1,
      "note": 43,
      "start": 70.0705,
      "duration": 0.2802,
      "velocity": 96,
      "chip": "ym2612"
    },
    {
      "channel": 2,
      "note": 81,
      "start": 70.0734,
      "duration": 0.0941,
      "velocity": 121,
      "chip": "ym2612"
    },
    {
      "channel": 4,
      "note": 66,
      "start": 70.0772,
      "duration": 0.107,
      "velocity": 127,
      "chip": "ym2612"
    },
    {
      "channel": 0,
      "note": 76,
      "start": 70.3542,
      "duration": 0.1632,
      "velocity": 76,
      "chip": "ym2612"
    },
    {
      "channel": 5,
      "note": 82,
      "start": 70.3574,
      "duration": 0.1603,
      "velocity": 76,
      "chip": "ym2612"
    },
    {
      "channel": 2,
      "note": 81,
      "start": 70.3601,
      "duration": 0.0409,
      "velocity": 121,
      "chip": "ym2612"
    },
    {
      "channel": 1,
      "note": 47,
      "start": 70.5039,
      "duration": 0.2469,
      "velocity": 96,
      "chip": "ym2612"
    },
    {
      "channel": 2,
      "note": 81,
      "start": 70.5065,
      "duration": 0.0778,
      "velocity": 121,
      "chip": "ym2612"
    },
    {
      "channel": 4,
      "note": 66,
      "start": 70.5099,
      "duration": 0.0743,
      "velocity": 127,
      "chip": "ym2612"
    },
    {
      "channel": 3,
      "note": 69,
      "start": 70.6373,
      "duration": 0.1302,
      "velocity": 88,
      "chip": "ym2612"
    },
    {
      "channel": 3,
      "note": 67,
      "start": 70.7705,
      "duration": 0.1137,
      "velocity": 88,
      "chip": "ym2612"
    },
    {
      "channel": 0,
      "note": 75,
      "start": 70.7734,
      "duration": 0.2106,
      "velocity": 76,
      "chip": "ym2612"
    },
    {
      "channel": 5,
      "note": 83,
      "start": 70.7762,
      "duration": 0.2081,
      "velocity": 76,
      "chip": "ym2612"
    },
    {
      "channel": 2,
      "note": 81,
      "start": 70.7789,
      "duration": 0.0387,
      "velocity": 121,
      "chip": "ym2612"
    },
    {
      "channel": 3,
      "note": 66,
      "start": 70.9209,
      "duration": 0.1299,
      "velocity": 88,
      "chip": "ym2612"
    },
    {
      "channel": 1,
      "note": 59,
      "start": 70.9235,
      "duration": 0.2773,
      "velocity": 96,
      "chip": "ym2612"
    },
    {
      "channel": 2,
      "note": 81,
      "start": 70.9261,
      "duration": 0.0583,
      "velocity": 121,
      "chip": "ym2612"
    },
    {
      "channel": 4,
      "note": 66,
      "start": 70.9293,
      "duration": 0.0715,
      "velocity": 127,
      "chip": "ym2612"
    },
    {
      "channel": 3,
      "note": 63,
      "start": 71.0538,
      "duration": 0.1137,
      "velocity": 88,
      "chip": "ym2612"
    },
    {
      "channel": 3,
      "note": 59,
      "start": 71.2039,
      "duration": 0.0802,
      "velocity": 88,
      "chip": "ym2612"
    },
    {
      "channel": 0,
      "note": 75,
      "start": 71.2068,
      "duration": 0.1439,
      "velocity": 76,
      "chip": "ym2612"
    },
    {
      "channel": 5,
      "note": 83,
      "start": 71.2095,
      "duration": 0.1415,
      "velocity": 76,
      "chip": "ym2612"
    },
    {
      "channel": 2,
      "note": 81,
      "start": 71.2126,
      "duration": 0.0217,
      "velocity": 121,
      "chip": "ym2612"
    },
    {
      "channel": 3,
      "note": 64,
      "start": 71.3373,
      "duration": 1.2802,
      "velocity": 88,
      "chip": "ym2612"
    },
    {
      "channel": 1,
      "note": 52,
      "start": 71.34,
      "duration": 0.2942,
      "velocity": 96,
      "chip": "ym2612"
    },
    {
      "channel": 2,
      "note": 81,
      "start": 71.3426,
      "duration": 0.0917,
      "velocity": 121,
      "chip": "ym2612"
    },
    {
      "channel": 4,
      "note": 66,
      "start": 71.3458,
      "duration": 0.0884,
      "velocity": 127,
      "chip": "ym2612"
    },
    {
      "channel": 0,
      "note": 87,
      "start": 71.6211,
      "duration": 0.1296,
      "velocity": 115,
      "chip": "ym2612"
    },
    {
      "channel": 5,
      "note": 79,
      "start": 71.6243,
      "duration": 0.1268,
      "velocity": 76,
      "chip": "ym2612"
    },
    {
      "channel": 4,
      "note": 83,
      "start": 71.6276,
      "duration": 0.1234,
      "velocity": 76,
      "chip": "ym2612"
    },
    {
      "channel": 2,
      "note": 81,
      "start": 71.6302,
      "duration": 0.0375,
      "velocity": 121,
      "chip": "ym2612"
    },
    {
      "channel": 0,
      "note": 88,
      "start": 71.7541,
      "duration": 0.1133,
      "velocity": 115,
      "chip": "ym2612"
    },
    {
      "channel": 1,
      "note": 47,
      "start": 71.7568,
      "duration": 0.294,
      "velocity": 96,
      "chip": "ym2612"
    },
    {
      "channel": 2,
      "note": 81,
      "start": 71.7593,
      "duration": 0.0917,
      "velocity": 121,
      "chip": "ym2612"
    },
    {
      "channel": 4,
      "note": 66,
      "start": 71.7627,
      "duration": 0.0882,
      "velocity": 127,
      "chip": "ym2612"
    },
    {
      "channel": 0,
      "note": 90,
      "start": 72.0372,
      "duration": 0.0801,
      "velocity": 115,
      "chip": "ym2612"
    },
    {
      "channel": 5,
      "note": 79,
      "start": 72.0404,
      "duration": 0.1606,
      "velocity": 76,
      "chip": "ym2612"
    },
    {
      "channel": 4,
      "note": 83,
      "start": 72.0433,
      "duration": 0.1332,
      "velocity": 76,
      "chip": "ym2612"
    },
    {
      "channel": 2,
      "note": 81,
      "start": 72.0459,
      "duration": 0.0551,
      "velocity": 121,
      "chip": "ym2612"
    },
    {
      "channel": 0,
      "note": 91,
      "start": 72.1706,
      "duration": 0.1135,
      "velocity": 115,
      "chip": "ym2612"
    },
    {
      "channel": 1,
      "note": 47,
      "start": 72.1733,
      "duration": 0.2775,
      "velocity": 96,
      "chip": "ym2612"
    },
    {
      "channel": 2,
      "note": 81,
      "start": 72.1758,
      "duration": 0.0586,
      "velocity": 121,
      "chip": "ym2612"
    },
    {
      "channel": 4,
      "note": 66,
      "start": 72.1791,
      "duration": 0.0885,
      "velocity": 127,
      "chip": "ym2612"
    },
    {
      "channel": 0,
      "note": 96,
      "start": 72.454,
      "duration": 0.0967,
      "velocity": 115,
      "chip": "ym2612"
    },
    {
      "channel": 5,
      "note": 79,
      "start": 72.457,
      "duration": 0.1607,
      "velocity": 76,
      "chip": "ym2612"
    },
    {
      "channel": 2,
      "note": 83,
      "start": 72.4599,
      "duration": 0.0011,
      "velocity": 76,
      "chip": "ym2612"
    },
    {
      "channel": 2,
      "note": 81,
      "start": 72.4629,
      "duration": 0.0546,
      "velocity": 121,
      "chip": "ym2612"
    },
    {
      "channel": 0,
      "note": 95,
      "start": 72.587,
      "duration": 0.0803,
      "velocity": 115,
      "chip": "ym2612"
    },
    {
      "channel": 1,
      "note": 49,
      "start": 72.5903,
      "duration": 0.1438,
      "velocity": 96,
      "chip": "ym2612"
    },
    {
      "channel": 2,
      "note": 81,
      "start": 72.5928,
      "duration": 0.0749,
      "velocity": 121,
      "chip": "ym2612"
    },
    {
      "channel": 4,
      "note": 66,
      "start": 72.596,
      "duration": 0.0882,
      "velocity": 127,
      "chip": "ym2612"
    },
    {
      "channel": 0,
      "note": 94,
      "start": 72.737,
      "duration": 0.0637,
      "velocity": 115,
      "chip": "ym2612"
    },
    {
      "channel": 1,
      "note": 50,
      "start": 72.7396,
      "duration": 0.1278,
      "velocity": 96,
      "chip": "ym2612"
    },
    {
      "channel": 0,
      "note": 95,
      "start": 72.8706,
      "duration": 0.0634,
      "velocity": 115,
      "chip": "ym2612"
    },
    {
      "channel": 5,
      "note": 81,
      "start": 72.8738,
      "duration": 0.1438,
      "velocity": 76,
      "chip": "ym2612"
    },
    {
      "channel": 3,
      "note": 87,
      "start": 72.8767,
      "duration": 0.1407,
      "velocity": 76,
      "chip": "ym2612"
    },
    {
      "channel": 1,
      "note": 51,
      "start": 72.8792,
      "duration": 0.1049,
      "velocity": 96,
      "chip": "ym2612"
    },
    {
      "channel": 2,
      "note": 81,
      "start": 72.8817,
      "duration": 0.0527,
      "velocity": 121,
      "chip": "ym2612"
    },
    {
      "channel": 0,
      "note": 100,
      "start": 73.0209,
      "duration": 0.0798,
      "velocity": 115,
      "chip": "ym2612"
    },
    {
      "channel": 3,
      "note": 79,
      "start": 73.0241,
      "duration": 0.1267,
      "velocity": 76,
      "chip": "ym2612"
    },
    {
      "channel": 5,
      "note": 88,
      "start": 73.0271,
      "duration": 0.1239,
      "velocity": 76,
      "chip": "ym2612"
    },
    {
      "channel": 1,
      "note": 52,
      "start": 73.0299,
      "duration": 0.2543,
      "velocity": 96,
      "chip": "ym2612"
    },
    {
      "channel": 2,
      "note": 81,
      "start": 73.0325,
      "duration": 0.0518,
      "velocity": 121,
      "chip": "ym2612"
    },
    {
      "channel": 4,
      "note": 66,
      "start": 73.0362,
      "duration": 0.0648,
      "velocity": 127,
      "chip": "ym2612"
    },
    {
      "channel": 2,
      "note": 63,
      "start": 73.2876,
      "duration": 0.1467,
      "velocity": 88,
      "chip": "ym2612"
    },
    {
      "channel": 2,
      "note": 64,
      "start": 73.4372,
      "duration": 0.1302,
      "velocity": 88,
      "chip": "ym2612"
    },
    {
      "channel": 2,
      "note": 62,
      "start": 73.5706,
      "duration": 0.097,
      "velocity": 88,
      "chip": "ym2612"
    },
    {
      "channel": 2,
      "note": 64,
      "start": 73.7204,
      "duration": 0.0804,
      "velocity": 88,
      "chip": "ym2612"
    },
    {
      "channel": 2,
      "note": 59,
      "start": 73.8544,
      "duration": 0.1298,
      "velocity": 88,
      "chip": "ym2612"
    },
    {
      "channel": 2,
      "note": 55,
      "start": 74.1372,
      "duration": 0.1303,
      "velocity": 88,
      "chip": "ym2612"
    },
    {
      "channel": 2,
      "note": 58,
      "start": 74.2706,
      "duration": 0.097,
      "velocity": 88,
      "chip": "ym2612"
    },
    {
      "channel": 2,
      "note": 57,
      "start": 74.4204,
      "duration": 0.0805,
      "velocity": 88,
      "chip": "ym2612"
    },
    {
      "channel": 2,
      "note": 55,
      "start": 74.5539,
      "duration": 0.1136,
      "velocity": 88,
      "chip": "ym2612"
    },
    {
      "channel": 3,
      "note": 88,
      "start": 74.6874,
      "duration": 0.1467,
      "velocity": 76,
      "chip": "ym2612"
    },
    {
      "channel": 3,
      "note": 91,
      "start": 74.8375,
      "duration": 0.0799,
      "velocity": 76,
      "chip": "ym2612"
    },
    {
      "channel": 3,
      "note": 91,
      "start": 74.9708,
      "duration": 0.1466,
      "velocity": 76,
      "chip": "ym2612"
    },
    {
      "channel": 0,
      "note": 100,
      "start": 75.1206,
      "duration": 0.1301,
      "velocity": 115,
      "chip": "ym2612"
    },
    {
      "channel": 0,
      "note": 103,
      "start": 75.2538,
      "duration": 0.0969,
      "velocity": 115,
      "chip": "ym2612"
    },
    {
      "channel": 0,
      "note": 103,
      "start": 75.3871,
      "duration": 0.1136,
      "velocity": 115,
      "chip": "ym2612"
    },
    {
      "channel": 2,
      "note": 64,
      "start": 75.5373,
      "duration": 0.0802,
      "velocity": 88,
      "chip": "ym2612"
    },
    {
      "channel": 2,
      "note": 67,
      "start": 75.6704,
      "duration": 0.0971,
      "velocity": 88,
      "chip": "ym2612"
    },
    {
      "channel": 2,
      "note": 67,
      "start": 75.8209,
      "duration": 0.1134,
      "velocity": 88,
      "chip": "ym2612"
    },
    {
      "channel": 2,
      "note": 45,
      "start": 75.9538,
      "duration": 0.1305,
      "velocity": 88,
      "chip": "ym2612"
    },
    {
      "channel": 1,
      "note": 45,
      "start": 75.9566,
      "duration": 0.1274,
      "velocity": 96,
      "chip": "ym2612"
    },
    {
      "channel": 2,
      "note": 43,
      "start": 76.0873,
      "duration": 0.0802,
      "velocity": 88,
      "chip": "ym2612"
    },
    {
      "channel": 1,
      "note": 43,
      "start": 76.0921,
      "duration": 0.0752,
      "velocity": 96,
      "chip": "ym2612"
    },
    {
      "channel": 2,
      "note": 42,
      "start": 76.2372,
      "duration": 0.0803,
      "velocity": 88,
      "chip": "ym2612"
    },
    {
      "channel": 1,
      "note": 42,
      "start": 76.2398,
      "duration": 0.0609,
      "velocity": 96,
      "chip": "ym2612"
    },
    {
      "channel": 1,
      "note": 64,
      "start": 76.3753,
      "duration": 0.1087,
      "velocity": 96,
      "chip": "ym2612"
    },
    {
      "channel": 4,
      "note": 54,
      "start": 76.3797,
      "duration": 0.121,
      "velocity": 118,
      "chip": "ym2612"
    },
    {
      "channel": 3,
      "note": 61,
      "start": 76.6539,
      "duration": 0.0468,
      "velocity": 88,
      "chip": "ym2612"
    },
    {
      "channel": 3,
      "note": 62,
      "start": 76.7037,
      "duration": 0.0303,
      "velocity": 88,
      "chip": "ym2612"
    },
    {
      "channel": 3,
      "note": 63,
      "start": 76.7371,
      "duration": 0.0469,
      "velocity": 88,
      "chip": "ym2612"
    },
    {
      "channel": 3,
      "note": 64,
      "start": 76.7873,
      "duration": 0.0634,
      "velocity": 88,
      "chip": "ym2612"
    },
    {
      "channel": 0,
      "note": 106,
      "start": 77.0538,
      "duration": 0.0136,
      "velocity": 115,
      "chip": "ym2612"
    },
    {
      "channel": 0,
      "note": 107,
      "start": 77.0871,
      "duration": 0.1154,
      "velocity": 115,
      "chip": "ym2612"
    }
  ]
}