{
  "track_name": "03 - Bishop",
  "duration_sec": 188.695,
  "sample_rate": 44100,
  "note_count": 3162,
  "unique_pitches": 39,
  "pitch_range": 69,
  "avg_note_duration": 0.2999,
  "reconstruction_stats": {
    "notes_reconstructed": 3162,
    "keyon_events": 3162,
    "keyoff_events": 3158,
    "orphan_keyons": 4,
    "unique_pitches": 39,
    "pitch_range": 69,
    "avg_duration_sec": 0.2999
  },
  "metadata": {
    "source": "X\\X-Men - Mind Games\\03 - Bishop.vgz"
  },
  "notes": [
    {
      "channel": 0,
      "note": 50,
      "start": 0.0064,
      "duration": 0.1506,
      "velocity": 100,
      "chip": "ym2612"
    },
    {
      "channel": 1,
      "note": 62,
      "start": 0.0079,
      "duration": 0.1507,
      "velocity": 127,
      "chip": "ym2612"
    },
    {
      "channel": 2,
      "note": 33,
      "start": 0.0092,
      "duration": 0.0985,
      "velocity": 120,
      "chip": "ym2612"
    },
    {
      "channel": 3,
      "note": 7,
      "start": 0.0106,
      "duration": 2.4247,
      "velocity": 1,
      "chip": "ym2612"
    },
    {
      "channel": 4,
      "note": 7,
      "start": 0.0147,
      "duration": 2.4258,
      "velocity": 1,
      "chip": "ym2612"
    },
    {
      "channel": 5,
      "note": 7,
      "start": 0.016,
      "duration": 2.4251,
      "velocity": 1,
      "chip": "ym2612"
    },
    {
      "channel": 0,
      "note": 62,
      "start": 0.1583,
      "duration": 0.1171,
      "velocity": 107,
      "chip": "ym2612"
    },
    {
      "channel": 1,
      "note": 62,
      "start": 0.1592,
      "duration": 0.1509,
      "velocity": 127,
      "chip": "ym2612"
    },
    {
      "channel": 2,
      "note": 33,
      "start": 0.1599,
      "duration": 0.0998,
      "velocity": 120,
      "chip": "ym2612"
    },
    {
      "channel": 0,
      "note": 38,
      "start": 0.3098,
      "duration": 0.1506,
      "velocity": 1,
      "chip": "ym2612"
    },
    {
      "channel": 1,
      "note": 62,
      "start": 0.3106,
      "duration": 0.1513,
      "velocity": 127,
      "chip": "ym2612"
    },
    {
      "channel": 2,
      "note": 33,
      "start": 0.3113,
      "duration": 0.0998,
      "velocity": 120,
      "chip": "ym2612"
    },
    {
      "channel": 0,
      "note": 74,
      "start": 0.4617,
      "duration": 0.1171,
      "velocity": 107,
      "chip": "ym2612"
    },
    {
      "channel": 1,
      "note": 62,
      "start": 0.4625,
      "duration": 0.1505,
      "velocity": 127,
      "chip": "ym2612"
    },
    {
      "channel": 2,
      "note": 33,
      "start": 0.4632,
      "duration": 0.0998,
      "velocity": 120,
      "chip": "ym2612"
    },
    {
      "channel": 0,
      "note": 65,
      "start": 0.6127,
      "duration": 0.1178,
      "velocity": 107,
      "chip": "ym2612"
    },
    {
      "channel": 1,
      "note": 62,
      "start": 0.6136,
      "duration": 0.1515,
      "velocity": 127,
      "chip": "ym2612"
    },
    {
      "channel": 2,
      "note": 33,
      "start": 0.6142,
      "duration": 0.1005,
      "velocity": 120,
      "chip": "ym2612"
    },
    {
      "channel": 0,
      "note": 38,
      "start": 0.7648,
      "duration": 0.1506,
      "velocity": 1,
      "chip": "ym2612"
    },
    {
      "channel": 1,
      "note": 50,
      "start": 0.7656,
      "duration": 0.303,
      "velocity": 127,
      "chip": "ym2612"
    },
    {
      "channel": 2,
      "note": 33,
      "start": 0.7664,
      "duration": 0.0998,
      "velocity": 120,
      "chip": "ym2612"
    },
    {
      "channel": 0,
      "note": 50,
      "start": 0.9165,
      "duration": 0.1505,
      "velocity": 100,
      "chip": "ym2612"
    },
    {
      "channel": 0,
      "note": 62,
      "start": 1.0685,
      "duration": 0.1171,
      "velocity": 107,
      "chip": "ym2612"
    },
    {
      "channel": 1,
      "note": 50,
      "start": 1.0692,
      "duration": 1.3646,
      "velocity": 127,
      "chip": "ym2612"
    },
    {
      "channel": 2,
      "note": 33,
      "start": 1.0702,
      "duration": 0.0998,
      "velocity": 120,
      "chip": "ym2612"
    },
    {
      "channel": 0,
      "note": 50,
      "start": 1.2203,
      "duration": 0.1501,
      "velocity": 127,
      "chip": "ym2612"
    },
    {
      "channel": 0,
      "note": 50,
      "start": 1.3716,
      "duration": 0.1506,
      "velocity": 100,
      "chip": "ym2612"
    },
    {
      "channel": 0,
      "note": 38,
      "start": 1.5233,
      "duration": 0.1505,
      "velocity": 1,
      "chip": "ym2612"
    },
    {
      "channel": 0,
      "note": 62,
      "start": 1.6751,
      "duration": 0.1172,
      "velocity": 107,
      "chip": "ym2612"
    },
    {
      "channel": 0,
      "note": 50,
      "start": 1.8267,
      "duration": 0.1505,
      "velocity": 72,
      "chip": "ym2612"
    },
    {
      "channel": 0,
      "note": 38,
      "start": 1.9783,
      "duration": 0.1505,
      "velocity": 1,
      "chip": "ym2612"
    },
    {
      "channel": 0,
      "note": 50,
      "start": 2.13,
      "duration": 0.1505,
      "velocity": 100,
      "chip": "ym2612"
    },
    {
      "channel": 0,
      "note": 62,
      "start": 2.2819,
      "duration": 0.1171,
      "velocity": 107,
      "chip": "ym2612"
    },
    {
      "channel": 0,
      "note": 41,
      "start": 2.4335,
      "duration": 0.1504,
      "velocity": 127,
      "chip": "ym2612"
    },
    {
      "channel": 1,
      "note": 62,
      "start": 2.4343,
      "duration": 0.151,
      "velocity": 127,
      "chip": "ym2612"
    },
    {
      "channel": 2,
      "note": 33,
      "start": 2.4351,
      "duration": 0.0998,
      "velocity": 120,
      "chip": "ym2612"
    },
    {
      "channel": 3,
      "note": 7,
      "start": 2.4358,
      "duration": 6.9765,
      "velocity": 1,
      "chip": "ym2612"
    },
    {
      "channel": 4,
      "note": 7,
      "start": 2.441,
      "duration": 6.9768,
      "velocity": 1,
      "chip": "ym2612"
    },
    {
      "channel": 5,
      "note": 7,
      "start": 2.4417,
      "duration": 6.9768,
      "velocity": 1,
      "chip": "ym2612"
    },
    {
      "channel": 0,
      "note": 50,
      "start": 2.5851,
      "duration": 0.1505,
      "velocity": 100,
      "chip": "ym2612"
    },
    {
      "channel": 1,
      "note": 62,
      "start": 2.5858,
      "duration": 0.1514,
      "velocity": 127,
      "chip": "ym2612"
    },
    {
      "channel": 2,
      "note": 33,
      "start": 2.5868,
      "duration": 0.0998,
      "velocity": 120,
      "chip": "ym2612"
    },
    {
      "channel": 0,
      "note": 38,
      "start": 2.737,
      "duration": 0.1502,
      "velocity": 1,
      "chip": "ym2612"
    },
    {
      "channel": 1,
      "note": 62,
      "start": 2.7378,
      "duration": 0.1511,
      "velocity": 127,
      "chip": "ym2612"
    },
    {
      "channel": 2,
      "note": 33,
      "start": 2.7385,
      "duration": 0.0998,
      "velocity": 120,
      "chip": "ym2612"
    },
    {
      "channel": 0,
      "note": 62,
      "start": 2.8886,
      "duration": 0.1171,
      "velocity": 107,
      "chip": "ym2612"
    },
    {
      "channel": 1,
      "note": 62,
      "start": 2.8894,
      "duration": 0.151,
      "velocity": 127,
      "chip": "ym2612"
    },
    {
      "channel": 2,
      "note": 33,
      "start": 2.8901,
      "duration": 0.0998,
      "velocity": 120,
      "chip": "ym2612"
    },
    {
      "channel": 0,
      "note": 50,
      "start": 3.0401,
      "duration": 0.1505,
      "velocity": 72,
      "chip": "ym2612"
    },
    {
      "channel": 1,
      "note": 62,
      "start": 3.0409,
      "duration": 0.1511,
      "velocity": 127,
      "chip": "ym2612"
    },
    {
      "channel": 2,
      "note": 33,
      "start": 3.0416,
      "duration": 0.0998,
      "velocity": 120,
      "chip": "ym2612"
    },
    {
      "channel": 0,
      "note": 38,
      "start": 3.1917,
      "duration": 0.1506,
      "velocity": 1,
      "chip": "ym2612"
    },
    {
      "channel": 1,
      "note": 50,
      "start": 3.1926,
      "duration": 0.303,
      "velocity": 127,
      "chip": "ym2612"
    },
    {
      "channel": 2,
      "note": 33,
      "start": 3.1933,
      "duration": 0.0998,
      "velocity": 120,
      "chip": "ym2612"
    },
    {
      "channel": 0,
      "note": 50,
      "start": 3.3434,
      "duration": 0.1505,
      "velocity": 100,
      "chip": "ym2612"
    },
    {
      "channel": 0,
      "note": 62,
      "start": 3.4953,
      "duration": 0.1172,
      "velocity": 107,
      "chip": "ym2612"
    },
    {
      "channel": 1,
      "note": 50,
      "start": 3.4961,
      "duration": 1.3644,
      "velocity": 127,
      "chip": "ym2612"
    },
    {
      "channel": 2,
      "note": 33,
      "start": 3.4968,
      "duration": 0.0998,
      "velocity": 120,
      "chip": "ym2612"
    },
    {
      "channel": 0,
      "note": 50,
      "start": 3.6469,
      "duration": 0.1504,
      "velocity": 127,
      "chip": "ym2612"
    },
    {
      "channel": 0,
      "note": 50,
      "start": 3.7985,
      "duration": 0.1505,
      "velocity": 100,
      "chip": "ym2612"
    },
    {
      "channel": 0,
      "note": 38,
      "start": 3.9501,
      "duration": 0.1506,
      "velocity": 1,
      "chip": "ym2612"
    },
    {
      "channel": 0,
      "note": 62,
      "start": 4.102,
      "duration": 0.1171,
      "velocity": 107,
      "chip": "ym2612"
    },
    {
      "channel": 0,
      "note": 50,
      "start": 4.2538,
      "duration": 0.1503,
      "velocity": 72,
      "chip": "ym2612"
    },
    {
      "channel": 0,
      "note": 38,
      "start": 4.4052,
      "duration": 0.1505,
      "velocity": 1,
      "chip": "ym2612"
    },
    {
      "channel": 0,
      "note": 62,
      "start": 4.5569,
      "duration": 0.1506,
      "velocity": 100,
      "chip": "ym2612"
    },
    {
      "channel": 0,
      "note": 62,
      "start": 4.7088,
      "duration": 0.1171,
      "velocity": 107,
      "chip": "ym2612"
    },
    {
      "channel": 0,
      "note": 50,
      "start": 4.8602,
      "duration": 0.1505,
      "velocity": 100,
      "chip": "ym2612"
    },
    {
      "channel": 1,
      "note": 62,
      "start": 4.8611,
      "duration": 0.1513,
      "velocity": 127,
      "chip": "ym2612"
    },
    {
      "channel": 2,
      "note": 33,
      "start": 4.8618,
      "duration": 0.0998,
      "velocity": 120,
      "chip": "ym2612"
    },
    {
      "channel": 0,
      "note": 62,
      "start": 5.0122,
      "duration": 0.1171,
      "velocity": 107,
      "chip": "ym2612"
    },
    {
      "channel": 1,
      "note": 62,
      "start": 5.0129,
      "duration": 0.151,
      "velocity": 127,
      "chip": "ym2612"
    },
    {
      "channel": 2,
      "note": 33,
      "start": 5.0137,
      "duration": 0.0998,
      "velocity": 120,
      "chip": "ym2612"
    },
    {
      "channel": 0,
      "note": 38,
      "start": 5.1636,
      "duration": 0.1505,
      "velocity": 1,
      "chip": "ym2612"
    },
    {
      "channel": 1,
      "note": 62,
      "start": 5.1644,
      "duration": 0.1513,
      "velocity": 127,
      "chip": "ym2612"
    },
    {
      "channel": 2,
      "note": 33,
      "start": 5.1651,
      "duration": 0.0998,
      "velocity": 120,
      "chip": "ym2612"
    },
    {
      "channel": 0,
      "note": 74,
      "start": 5.3155,
      "duration": 0.1171,
      "velocity": 107,
      "chip": "ym2612"
    },
    {
      "channel": 1,
      "note": 62,
      "start": 5.3163,
      "duration": 0.1505,
      "velocity": 127,
      "chip": "ym2612"
    },
    {
      "channel": 2,
      "note": 33,
      "start": 5.3171,
      "duration": 0.0998,
      "velocity": 120,
      "chip": "ym2612"
    },
    {
      "channel": 0,
      "note": 65,
      "start": 5.4665,
      "duration": 0.1178,
      "velocity": 107,
      "chip": "ym2612"
    },
    {
      "channel": 1,
      "note": 62,
      "start": 5.4674,
      "duration": 0.1515,
      "velocity": 127,
      "chip": "ym2612"
    },
    {
      "channel": 2,
      "note": 33,
      "start": 5.4681,
      "duration": 0.1004,
      "velocity": 120,
      "chip": "ym2612"
    },
    {
      "channel": 0,
      "note": 38,
      "start": 5.6186,
      "duration": 0.1506,
      "velocity": 1,
      "chip": "ym2612"
    },
    {
      "channel": 1,
      "note": 50,
      "start": 5.6195,
      "duration": 0.303,
      "velocity": 127,
      "chip": "ym2612"
    },
    {
      "channel": 2,
      "note": 33,
      "start": 5.6204,
      "duration": 0.0998,
      "velocity": 120,
      "chip": "ym2612"
    },
    {
      "channel": 0,
      "note": 50,
      "start": 5.7706,
      "duration": 0.1502,
      "velocity": 100,
      "chip": "ym2612"
    },
    {
      "channel": 0,
      "note": 62,
      "start": 5.9222,
      "duration": 0.1172,
      "velocity": 107,
      "chip": "ym2612"
    },
    {
      "channel": 1,
      "note": 50,
      "start": 5.923,
      "duration": 1.3647,
      "velocity": 127,
      "chip": "ym2612"
    },
    {
      "channel": 2,
      "note": 33,
      "start": 5.9237,
      "duration": 0.0998,
      "velocity": 120,
      "chip": "ym2612"
    },
    {
      "channel": 0,
      "note": 50,
      "start": 6.0739,
      "duration": 0.1504,
      "velocity": 127,
      "chip": "ym2612"
    },
    {
      "channel": 0,
      "note": 50,
      "start": 6.2254,
      "duration": 0.1505,
      "velocity": 100,
      "chip": "ym2612"
    },
    {
      "channel": 0,
      "note": 38,
      "start": 6.377,
      "duration": 0.1506,
      "velocity": 1,
      "chip": "ym2612"
    },
    {
      "channel": 0,
      "note": 62,
      "start": 6.5289,
      "duration": 0.1171,
      "velocity": 107,
      "chip": "ym2612"
    },
    {
      "channel": 0,
      "note": 50,
      "start": 6.6804,
      "duration": 0.1506,
      "velocity": 72,
      "chip": "ym2612"
    },
    {
      "channel": 0,
      "note": 38,
      "start": 6.8321,
      "duration": 0.1505,
      "velocity": 1,
      "chip": "ym2612"
    },
    {
      "channel": 0,
      "note": 50,
      "start": 6.9838,
      "duration": 0.1506,
      "velocity": 100,
      "chip": "ym2612"
    },
    {
      "channel": 0,
      "note": 62,
      "start": 7.1357,
      "duration": 0.1171,
      "velocity": 107,
      "chip": "ym2612"
    },
    {
      "channel": 0,
      "note": 41,
      "start": 7.2875,
      "duration": 0.1501,
      "velocity": 127,
      "chip": "ym2612"
    },
    {
      "channel": 1,
      "note": 62,
      "start": 7.2884,
      "duration": 0.1507,
      "velocity": 127,
      "chip": "ym2612"
    },
    {
      "channel": 2,
      "note": 33,
      "start": 7.2891,
      "duration": 0.0995,
      "velocity": 120,
      "chip": "ym2612"
    },
    {
      "channel": 0,
      "note": 50,
      "start": 7.4388,
      "duration": 0.1506,
      "velocity": 100,
      "chip": "ym2612"
    },
    {
      "channel": 1,
      "note": 62,
      "start": 7.4396,
      "duration": 0.1511,
      "velocity": 127,
      "chip": "ym2612"
    },
    {
      "channel": 2,
      "note": 33,
      "start": 7.4403,
      "duration": 0.0998,
      "velocity": 120,
      "chip": "ym2612"
    },
    {
      "channel": 0,
      "note": 38,
      "start": 7.5905,
      "duration": 0.1505,
      "velocity": 1,
      "chip": "ym2612"
    },
    {
      "channel": 1,
      "note": 62,
      "start": 7.5913,
      "duration": 0.1513,
      "velocity": 127,
      "chip": "ym2612"
    },
    {
      "channel": 2,
      "note": 33,
      "start": 7.592,
      "duration": 0.0998,
      "velocity": 120,
      "chip": "ym2612"
    },
    {
      "channel": 0,
      "note": 62,
      "start": 7.7424,
      "duration": 0.1172,
      "velocity": 107,
      "chip": "ym2612"
    },
    {
      "channel": 1,
      "note": 62,
      "start": 7.7432,
      "duration": 0.1509,
      "velocity": 127,
      "chip": "ym2612"
    },
    {
      "channel": 2,
      "note": 33,
      "start": 7.7439,
      "duration": 0.0998,
      "velocity": 120,
      "chip": "ym2612"
    },
    {
      "channel": 0,
      "note": 50,
      "start": 7.8939,
      "duration": 0.1505,
      "velocity": 72,
      "chip": "ym2612"
    },
    {
      "channel": 1,
      "note": 62,
      "start": 7.8946,
      "duration": 0.1512,
      "velocity": 127,
      "chip": "ym2612"
    },
    {
      "channel": 2,
      "note": 33,
      "start": 7.8954,
      "duration": 0.0998,
      "velocity": 120,
      "chip": "ym2612"
    },
    {
      "channel": 0,
      "note": 38,
      "start": 8.0456,
      "duration": 0.1505,
      "velocity": 1,
      "chip": "ym2612"
    },
    {
      "channel": 1,
      "note": 50,
      "start": 8.0464,
      "duration": 0.303,
      "velocity": 127,
      "chip": "ym2612"
    },
    {
      "channel": 2,
      "note": 33,
      "start": 8.0471,
      "duration": 0.0998,
      "velocity": 120,
      "chip": "ym2612"
    },
    {
      "channel": 0,
      "note": 50,
      "start": 8.1973,
      "duration": 0.1505,
      "velocity": 100,
      "chip": "ym2612"
    },
    {
      "channel": 0,
      "note": 62,
      "start": 8.3491,
      "duration": 0.1171,
      "velocity": 107,
      "chip": "ym2612"
    },
    {
      "channel": 1,
      "note": 50,
      "start": 8.3499,
      "duration": 1.3639,
      "velocity": 127,
      "chip": "ym2612"
    },
    {
      "channel": 2,
      "note": 33,
      "start": 8.3506,
      "duration": 0.0998,
      "velocity": 120,
      "chip": "ym2612"
    },
    {
      "channel": 0,
      "note": 50,
      "start": 8.5008,
      "duration": 0.1504,
      "velocity": 127,
      "chip": "ym2612"
    },
    {
      "channel": 0,
      "note": 50,
      "start": 8.6523,
      "duration": 0.1505,
      "velocity": 100,
      "chip": "ym2612"
    },
    {
      "channel": 0,
      "note": 38,
      "start": 8.8042,
      "duration": 0.1503,
      "velocity": 1,
      "chip": "ym2612"
    },
    {
      "channel": 0,
      "note": 62,
      "start": 8.9559,
      "duration": 0.1171,
      "velocity": 107,
      "chip": "ym2612"
    },
    {
      "channel": 0,
      "note": 50,
      "start": 9.1073,
      "duration": 0.1505,
      "velocity": 72,
      "chip": "ym2612"
    },
    {
      "channel": 0,
      "note": 38,
      "start": 9.259,
      "duration": 0.1506,
      "velocity": 1,
      "chip": "ym2612"
    },
    {
      "channel": 0,
      "note": 38,
      "start": 9.41,
      "duration": 0.1512,
      "velocity": 1,
      "chip": "ym2612"
    },
    {
      "channel": 2,
      "note": 26,
      "start": 9.412,
      "duration": 0.1677,
      "velocity": 114,
      "chip": "ym2612"
    },
    {
      "channel": 3,
      "note": 38,
      "start": 9.4134,
      "duration": 0.302,
      "velocity": 118,
      "chip": "ym2612"
    },
    {
      "channel": 4,
      "note": 7,
      "start": 9.4183,
      "duration": 2.4265,
      "velocity": 1,
      "chip": "ym2612"
    },
    {
      "channel": 5,
      "note": 7,
      "start": 9.419,
      "duration": 2.4264,
      "velocity": 1,
      "chip": "ym2612"
    },
    {
      "channel": 0,
      "note": 74,
      "start": 9.5625,
      "duration": 0.1172,
      "velocity": 107,
      "chip": "ym2612"
    },
    {
      "channel": 0,
      "note": 65,
      "start": 9.7136,
      "duration": 0.1178,
      "velocity": 107,
      "chip": "ym2612"
    },
    {
      "channel": 1,
      "note": 62,
      "start": 9.7144,
      "duration": 0.1515,
      "velocity": 127,
      "chip": "ym2612"
    },
    {
      "channel": 2,
      "note": 26,
      "start": 9.7152,
      "duration": 0.1677,
      "velocity": 114,
      "chip": "ym2612"
    },
    {
      "channel": 3,
      "note": 62,
      "start": 9.7165,
      "duration": 0.2511,
      "velocity": 127,
      "chip": "ym2612"
    },
    {
      "channel": 0,
      "note": 38,
      "start": 9.8657,
      "duration": 0.1506,
      "velocity": 1,
      "chip": "ym2612"
    },
    {
      "channel": 1,
      "note": 62,
      "start": 9.8665,
      "duration": 0.1512,
      "velocity": 127,
      "chip": "ym2612"
    },
    {
      "channel": 0,
      "note": 50,
      "start": 10.0174,
      "duration": 0.1505,
      "velocity": 100,
      "chip": "ym2612"
    },
    {
      "channel": 1,
      "note": 62,
      "start": 10.0182,
      "duration": 0.1515,
      "velocity": 127,
      "chip": "ym2612"
    },
    {
      "channel": 2,
      "note": 27,
      "start": 10.019,
      "duration": 0.1517,
      "velocity": 114,
      "chip": "ym2612"
    },
    {
      "channel": 3,
      "note": 38,
      "start": 10.0206,
      "duration": 0.3021,
      "velocity": 118,
      "chip": "ym2612"
    },
    {
      "channel": 0,
      "note": 62,
      "start": 10.1693,
      "duration": 0.1174,
      "velocity": 107,
      "chip": "ym2612"
    },
    {
      "channel": 1,
      "note": 62,
      "start": 10.1704,
      "duration": 0.1511,
      "velocity": 127,
      "chip": "ym2612"
    },
    {
      "channel": 2,
      "note": 27,
      "start": 10.1711,
      "duration": 0.1672,
      "velocity": 114,
      "chip": "ym2612"
    },
    {
      "channel": 0,
      "note": 50,
      "start": 10.3212,
      "duration": 0.1501,
      "velocity": 127,
      "chip": "ym2612"
    },
    {
      "channel": 1,
      "note": 62,
      "start": 10.322,
      "duration": 0.1508,
      "velocity": 127,
      "chip": "ym2612"
    },
    {
      "channel": 3,
      "note": 62,
      "start": 10.3239,
      "duration": 0.2505,
      "velocity": 127,
      "chip": "ym2612"
    },
    {
      "channel": 0,
      "note": 50,
      "start": 10.4724,
      "duration": 0.1505,
      "velocity": 100,
      "chip": "ym2612"
    },
    {
      "channel": 1,
      "note": 50,
      "start": 10.4733,
      "duration": 0.303,
      "velocity": 127,
      "chip": "ym2612"
    },
    {
      "channel": 2,
      "note": 29,
      "start": 10.474,
      "duration": 0.1673,
      "velocity": 114,
      "chip": "ym2612"
    },
    {
      "channel": 0,
      "note": 38,
      "start": 10.6241,
      "duration": 0.1506,
      "velocity": 1,
      "chip": "ym2612"
    },
    {
      "channel": 3,
      "note": 38,
      "start": 10.6266,
      "duration": 0.3022,
      "velocity": 118,
      "chip": "ym2612"
    },
    {
      "channel": 0,
      "note": 62,
      "start": 10.776,
      "duration": 0.1171,
      "velocity": 107,
      "chip": "ym2612"
    },
    {
      "channel": 1,
      "note": 50,
      "start": 10.7768,
      "duration": 1.3643,
      "velocity": 127,
      "chip": "ym2612"
    },
    {
      "channel": 2,
      "note": 26,
      "start": 10.7776,
      "duration": 0.167,
      "velocity": 114,
      "chip": "ym2612"
    },
    {
      "channel": 0,
      "note": 50,
      "start": 10.9275,
      "duration": 0.1506,
      "velocity": 72,
      "chip": "ym2612"
    },
    {
      "channel": 3,
      "note": 62,
      "start": 10.93,
      "duration": 0.2511,
      "velocity": 127,
      "chip": "ym2612"
    },
    {
      "channel": 0,
      "note": 38,
      "start": 11.0792,
      "duration": 0.1505,
      "velocity": 1,
      "chip": "ym2612"
    },
    {
      "channel": 2,
      "note": 27,
      "start": 11.0805,
      "duration": 0.1675,
      "velocity": 114,
      "chip": "ym2612"
    },
    {
      "channel": 0,
      "note": 50,
      "start": 11.2309,
      "duration": 0.1505,
      "velocity": 100,
      "chip": "ym2612"
    },
    {
      "channel": 3,
      "note": 38,
      "start": 11.2333,
      "duration": 0.3024,
      "velocity": 118,
      "chip": "ym2612"
    },
    {
      "channel": 0,
      "note": 62,
      "start": 11.3828,
      "duration": 0.1171,
      "velocity": 107,
      "chip": "ym2612"
    },
    {
      "channel": 2,
      "note": 27,
      "start": 11.3841,
      "duration": 0.1674,
      "velocity": 114,
      "chip": "ym2612"
    },
    {
      "channel": 0,
      "note": 41,
      "start": 11.5344,
      "duration": 0.1504,
      "velocity": 127,
      "chip": "ym2612"
    },
    {
      "channel": 3,
      "note": 62,
      "start": 11.5371,
      "duration": 0.251,
      "velocity": 127,
      "chip": "ym2612"
    },
    {
      "channel": 0,
      "note": 50,
      "start": 11.6859,
      "duration": 0.1508,
      "velocity": 100,
      "chip": "ym2612"
    },
    {
      "channel": 2,
      "note": 29,
      "start": 11.6875,
      "duration": 0.1512,
      "velocity": 114,
      "chip": "ym2612"
    },
    {
      "channel": 0,
      "note": 38,
      "start": 11.8378,
      "duration": 0.1502,
      "velocity": 1,
      "chip": "ym2612"
    },
    {
      "channel": 2,
      "note": 26,
      "start": 11.8392,
      "duration": 0.1674,
      "velocity": 114,
      "chip": "ym2612"
    },
    {
      "channel": 3,
      "note": 38,
      "start": 11.8405,
      "duration": 0.3022,
      "velocity": 118,
      "chip": "ym2612"
    },
    {
      "channel": 4,
      "note": 7,
      "start": 11.8452,
      "duration": 2.4264,
      "velocity": 1,
      "chip": "ym2612"
    },
    {
      "channel": 5,
      "note": 7,
      "start": 11.8459,
      "duration": 2.4265,
      "velocity": 1,
      "chip": "ym2612"
    },
    {
      "channel": 0,
      "note": 62,
      "start": 11.9894,
      "duration": 0.1172,
      "velocity": 107,
      "chip": "ym2612"
    },
    {
      "channel": 0,
      "note": 50,
      "start": 12.141,
      "duration": 0.1505,
      "velocity": 72,
      "chip": "ym2612"
    },
    {
      "channel": 1,
      "note": 62,
      "start": 12.1417,
      "duration": 0.1512,
      "velocity": 127,
      "chip": "ym2612"
    },
    {
      "channel": 2,
      "note": 26,
      "start": 12.1425,
      "duration": 0.1673,
      "velocity": 114,
      "chip": "ym2612"
    },
    {
      "channel": 3,
      "note": 62,
      "start": 12.1438,
      "duration": 0.2507,
      "velocity": 127,
      "chip": "ym2612"
    },
    {
      "channel": 0,
      "note": 38,
      "start": 12.2926,
      "duration": 0.1505,
      "velocity": 1,
      "chip": "ym2612"
    },
    {
      "channel": 1,
      "note": 62,
      "start": 12.2934,
      "duration": 0.1512,
      "velocity": 127,
      "chip": "ym2612"
    },
    {
      "channel": 0,
      "note": 50,
      "start": 12.4443,
      "duration": 0.1505,
      "velocity": 100,
      "chip": "ym2612"
    },
    {
      "channel": 1,
      "note": 62,
      "start": 12.4451,
      "duration": 0.1513,
      "velocity": 127,
      "chip": "ym2612"
    },
    {
      "channel": 2,
      "note": 27,
      "start": 12.4459,
      "duration": 0.1513,
      "velocity": 114,
      "chip": "ym2612"
    },
    {
      "channel": 3,
      "note": 38,
      "start": 12.4472,
      "duration": 0.3022,
      "velocity": 118,
      "chip": "ym2612"
    },
    {
      "channel": 0,
      "note": 62,
      "start": 12.5962,
      "duration": 0.1171,
      "velocity": 107,
      "chip": "ym2612"
    },
    {
      "channel": 1,
      "note": 62,
      "start": 12.597,
      "duration": 0.1511,
      "velocity": 127,
      "chip": "ym2612"
    },
    {
      "channel": 2,
      "note": 27,
      "start": 12.5978,
      "duration": 0.1672,
      "velocity": 114,
      "chip": "ym2612"
    },
    {
      "channel": 0,
      "note": 50,
      "start": 12.7478,
      "duration": 0.1504,
      "velocity": 127,
      "chip": "ym2612"
    },
    {
      "channel": 1,
      "note": 62,
      "start": 12.7486,
      "duration": 0.151,
      "velocity": 127,
      "chip": "ym2612"
    },
    {
      "channel": 3,
      "note": 62,
      "start": 12.7505,
      "duration": 0.2507,
      "velocity": 127,
      "chip": "ym2612"
    },
    {
      "channel": 0,
      "note": 50,
      "start": 12.8994,
      "duration": 0.1505,
      "velocity": 100,
      "chip": "ym2612"
    },
    {
      "channel": 1,
      "note": 50,
      "start": 12.9001,
      "duration": 0.3033,
      "velocity": 127,
      "chip": "ym2612"
    },
    {
      "channel": 2,
      "note": 29,
      "start": 12.901,
      "duration": 0.1672,
      "velocity": 114,
      "chip": "ym2612"
    },
    {
      "channel": 0,
      "note": 38,
      "start": 13.051,
      "duration": 0.1506,
      "velocity": 1,
      "chip": "ym2612"
    },
    {
      "channel": 3,
      "note": 38,
      "start": 13.0538,
      "duration": 0.3022,
      "velocity": 118,
      "chip": "ym2612"
    },
    {
      "channel": 0,
      "note": 62,
      "start": 13.2031,
      "duration": 0.1172,
      "velocity": 107,
      "chip": "ym2612"
    },
    {
      "channel": 1,
      "note": 50,
      "start": 13.2039,
      "duration": 1.3637,
      "velocity": 127,
      "chip": "ym2612"
    },
    {
      "channel": 2,
      "note": 26,
      "start": 13.2047,
      "duration": 0.167,
      "velocity": 114,
      "chip": "ym2612"
    },
    {
      "channel": 0,
      "note": 50,
      "start": 13.3546,
      "duration": 0.1502,
      "velocity": 72,
      "chip": "ym2612"
    },
    {
      "channel": 3,
      "note": 62,
      "start": 13.3571,
      "duration": 0.2508,
      "velocity": 127,
      "chip": "ym2612"
    },
    {
      "channel": 0,
      "note": 38,
      "start": 13.5061,
      "duration": 0.1506,
      "velocity": 1,
      "chip": "ym2612"
    },
    {
      "channel": 2,
      "note": 27,
      "start": 13.5074,
      "duration": 0.1675,
      "velocity": 114,
      "chip": "ym2612"
    },
    {
      "channel": 0,
      "note": 62,
      "start": 13.6578,
      "duration": 0.1505,
      "velocity": 100,
      "chip": "ym2612"
    },
    {
      "channel": 3,
      "note": 38,
      "start": 13.6602,
      "duration": 0.3024,
      "velocity": 118,
      "chip": "ym2612"
    },
    {
      "channel": 0,
      "note": 62,
      "start": 13.8096,
      "duration": 0.1172,
      "velocity": 107,
      "chip": "ym2612"
    },
    {
      "channel": 2,
      "note": 27,
      "start": 13.811,
      "duration": 0.1674,
      "velocity": 114,
      "chip": "ym2612"
    },
    {
      "channel": 0,
      "note": 50,
      "start": 13.9613,
      "duration": 0.1504,
      "velocity": 127,
      "chip": "ym2612"
    },
    {
      "channel": 3,
      "note": 62,
      "start": 13.9637,
      "duration": 0.251,
      "velocity": 127,
      "chip": "ym2612"
    },
    {
      "channel": 0,
      "note": 50,
      "start": 14.1128,
      "duration": 0.1506,
      "velocity": 100,
      "chip": "ym2612"
    },
    {
      "channel": 2,
      "note": 29,
      "start": 14.1141,
      "duration": 0.1511,
      "velocity": 114,
      "chip": "ym2612"
    },
    {
      "channel": 0,
      "note": 38,
      "start": 14.2645,
      "duration": 0.1505,
      "velocity": 1,
      "chip": "ym2612"
    },
    {
      "channel": 2,
      "note": 26,
      "start": 14.2658,
      "duration": 0.1677,
      "velocity": 114,
      "chip": "ym2612"
    },
    {
      "channel": 3,
      "note": 38,
      "start": 14.2672,
      "duration": 0.302,
      "velocity": 118,
      "chip": "ym2612"
    },
    {
      "channel": 4,
      "note": 7,
      "start": 14.2721,
      "duration": 2.4264,
      "velocity": 1,
      "chip": "ym2612"
    },
    {
      "channel": 5,
      "note": 7,
      "start": 14.2728,
      "duration": 2.4265,
      "velocity": 1,
      "chip": "ym2612"
    },
    {
      "channel": 0,
      "note": 74,
      "start": 14.4163,
      "duration": 0.1171,
      "velocity": 107,
      "chip": "ym2612"
    },
    {
      "channel": 0,
      "note": 65,
      "start": 14.5674,
      "duration": 0.1177,
      "velocity": 107,
      "chip": "ym2612"
    },
    {
      "channel": 1,
      "note": 62,
      "start": 14.5682,
      "duration": 0.1519,
      "velocity": 127,
      "chip": "ym2612"
    },
    {
      "channel": 2,
      "note": 26,
      "start": 14.569,
      "duration": 0.1679,
      "velocity": 114,
      "chip": "ym2612"
    },
    {
      "channel": 3,
      "note": 62,
      "start": 14.5706,
      "duration": 0.2511,
      "velocity": 127,
      "chip": "ym2612"
    },
    {
      "channel": 0,
      "note": 38,
      "start": 14.7197,
      "duration": 0.1505,
      "velocity": 1,
      "chip": "ym2612"
    },
    {
      "channel": 1,
      "note": 62,
      "start": 14.7206,
      "duration": 0.151,
      "velocity": 127,
      "chip": "ym2612"
    },
    {
      "channel": 0,
      "note": 50,
      "start": 14.8714,
      "duration": 0.1504,
      "velocity": 100,
      "chip": "ym2612"
    },
    {
      "channel": 1,
      "note": 62,
      "start": 14.8722,
      "duration": 0.1512,
      "velocity": 127,
      "chip": "ym2612"
    },
    {
      "channel": 2,
      "note": 27,
      "start": 14.873,
      "duration": 0.1511,
      "velocity": 114,
      "chip": "ym2612"
    },
    {
      "channel": 3,
      "note": 38,
      "start": 14.8743,
      "duration": 0.302,
      "velocity": 118,
      "chip": "ym2612"
    },
    {
      "channel": 0,
      "note": 62,
      "start": 15.0231,
      "duration": 0.1171,
      "velocity": 107,
      "chip": "ym2612"
    },
    {
      "channel": 1,
      "note": 62,
      "start": 15.0239,
      "duration": 0.1511,
      "velocity": 127,
      "chip": "ym2612"
    },
    {
      "channel": 2,
      "note": 27,
      "start": 15.0247,
      "duration": 0.1672,
      "velocity": 114,
      "chip": "ym2612"
    },
    {
      "channel": 0,
      "note": 50,
      "start": 15.1747,
      "duration": 0.1504,
      "velocity": 127,
      "chip": "ym2612"
    },
    {
      "channel": 1,
      "note": 62,
      "start": 15.1755,
      "duration": 0.151,
      "velocity": 127,
      "chip": "ym2612"
    },
    {
      "channel": 3,
      "note": 62,
      "start": 15.1774,
      "duration": 0.2507,
      "velocity": 127,
      "chip": "ym2612"
    },
    {
      "channel": 0,
      "note": 50,
      "start": 15.3263,
      "duration": 0.1505,
      "velocity": 100,
      "chip": "ym2612"
    },
    {
      "channel": 1,
      "note": 50,
      "start": 15.327,
      "duration": 0.303,
      "velocity": 127,
      "chip": "ym2612"
    },
    {
      "channel": 2,
      "note": 29,
      "start": 15.3278,
      "duration": 0.1672,
      "velocity": 114,
      "chip": "ym2612"
    },
    {
      "channel": 0,
      "note": 38,
      "start": 15.4779,
      "duration": 0.1505,
      "velocity": 1,
      "chip": "ym2612"
    },
    {
      "channel": 3,
      "note": 38,
      "start": 15.4804,
      "duration": 0.3022,
      "velocity": 118,
      "chip": "ym2612"
    },
    {
      "channel": 0,
      "note": 62,
      "start": 15.6298,
      "duration": 0.1171,
      "velocity": 107,
      "chip": "ym2612"
    },
    {
      "channel": 1,
      "note": 50,
      "start": 15.6306,
      "duration": 1.3644,
      "velocity": 127,
      "chip": "ym2612"
    },
    {
      "channel": 2,
      "note": 26,
      "start": 15.6314,
      "duration": 0.1671,
      "velocity": 114,
      "chip": "ym2612"
    },
    {
      "channel": 0,
      "note": 50,
      "start": 15.7813,
      "duration": 0.1505,
      "velocity": 72,
      "chip": "ym2612"
    },
    {
      "channel": 3,
      "note": 62,
      "start": 15.7838,
      "duration": 0.2511,
      "velocity": 127,
      "chip": "ym2612"
    },
    {
      "channel": 0,
      "note": 38,
      "start": 15.9329,
      "duration": 0.1506,
      "velocity": 1,
      "chip": "ym2612"
    },
    {
      "channel": 2,
      "note": 27,
      "start": 15.9343,
      "duration": 0.1675,
      "velocity": 114,
      "chip": "ym2612"
    },
    {
      "channel": 0,
      "note": 50,
      "start": 16.0847,
      "duration": 0.1505,
      "velocity": 100,
      "chip": "ym2612"
    },
    {
      "channel": 3,
      "note": 38,
      "start": 16.0874,
      "duration": 0.3022,
      "velocity": 118,
      "chip": "ym2612"
    },
    {
      "channel": 0,
      "note": 62,
      "start": 16.2368,
      "duration": 0.1172,
      "velocity": 107,
      "chip": "ym2612"
    },
    {
      "channel": 2,
      "note": 27,
      "start": 16.2381,
      "duration": 0.1672,
      "velocity": 114,
      "chip": "ym2612"
    },
    {
      "channel": 0,
      "note": 41,
      "start": 16.3882,
      "duration": 0.1503,
      "velocity": 127,
      "chip": "ym2612"
    },
    {
      "channel": 3,
      "note": 62,
      "start": 16.3907,
      "duration": 0.2509,
      "velocity": 127,
      "chip": "ym2612"
    },
    {
      "channel": 0,
      "note": 50,
      "start": 16.5397,
      "duration": 0.1505,
      "velocity": 100,
      "chip": "ym2612"
    },
    {
      "channel": 2,
      "note": 29,
      "start": 16.541,
      "duration": 0.1511,
      "velocity": 114,
      "chip": "ym2612"
    },
    {
      "channel": 0,
      "note": 38,
      "start": 16.6914,
      "duration": 0.1506,
      "velocity": 1,
      "chip": "ym2612"
    },
    {
      "channel": 2,
      "note": 26,
      "start": 16.6927,
      "duration": 0.1678,
      "velocity": 114,
      "chip": "ym2612"
    },
    {
      "channel": 3,
      "note": 38,
      "start": 16.694,
      "duration": 0.3025,
      "velocity": 118,
      "chip": "ym2612"
    },
    {
      "channel": 4,
      "note": 7,
      "start": 16.699,
      "duration": 2.4264,
      "velocity": 1,
      "chip": "ym2612"
    },
    {
      "channel": 5,
      "note": 7,
      "start": 16.6997,
      "duration": 2.4264,
      "velocity": 1,
      "chip": "ym2612"
    },
    {
      "channel": 0,
      "note": 62,
      "start": 16.8433,
      "duration": 0.1171,
      "velocity": 107,
      "chip": "ym2612"
    },
    {
      "channel": 0,
      "note": 50,
      "start": 16.9947,
      "duration": 0.1506,
      "velocity": 72,
      "chip": "ym2612"
    },
    {
      "channel": 1,
      "note": 62,
      "start": 16.9956,
      "duration": 0.1511,
      "velocity": 127,
      "chip": "ym2612"
    },
    {
      "channel": 2,
      "note": 26,
      "start": 16.9963,
      "duration": 0.1673,
      "velocity": 114,
      "chip": "ym2612"
    },
    {
      "channel": 3,
      "note": 62,
      "start": 16.9976,
      "duration": 0.2506,
      "velocity": 127,
      "chip": "ym2612"
    },
    {
      "channel": 0,
      "note": 38,
      "start": 17.1464,
      "duration": 0.1505,
      "velocity": 1,
      "chip": "ym2612"
    },
    {
      "channel": 1,
      "note": 62,
      "start": 17.1472,
      "duration": 0.1511,
      "velocity": 127,
      "chip": "ym2612"
    },
    {
      "channel": 0,
      "note": 50,
      "start": 17.2981,
      "duration": 0.1505,
      "velocity": 100,
      "chip": "ym2612"
    },
    {
      "channel": 1,
      "note": 62,
      "start": 17.2989,
      "duration": 0.1513,
      "velocity": 127,
      "chip": "ym2612"
    },
    {
      "channel": 2,
      "note": 27,
      "start": 17.2997,
      "duration": 0.1513,
      "velocity": 114,
      "chip": "ym2612"
    },
    {
      "channel": 3,
      "note": 38,
      "start": 17.301,
      "duration": 0.3024,
      "velocity": 118,
      "chip": "ym2612"
    },
    {
      "channel": 0,
      "note": 62,
      "start": 17.45,
      "duration": 0.1171,
      "velocity": 107,
      "chip": "ym2612"
    },
    {
      "channel": 1,
      "note": 62,
      "start": 17.4508,
      "duration": 0.1511,
      "velocity": 127,
      "chip": "ym2612"
    },
    {
      "channel": 2,
      "note": 27,
      "start": 17.4515,
      "duration": 0.1673,
      "velocity": 114,
      "chip": "ym2612"
    },
    {
      "channel": 0,
      "note": 50,
      "start": 17.6016,
      "duration": 0.1504,
      "velocity": 127,
      "chip": "ym2612"
    },
    {
      "channel": 1,
      "note": 62,
      "start": 17.6024,
      "duration": 0.1512,
      "velocity": 127,
      "chip": "ym2612"
    },
    {
      "channel": 3,
      "note": 62,
      "start": 17.6046,
      "duration": 0.2507,
      "velocity": 127,
      "chip": "ym2612"
    },
    {
      "channel": 0,
      "note": 50,
      "start": 17.7534,
      "duration": 0.1503,
      "velocity": 100,
      "chip": "ym2612"
    },
    {
      "channel": 1,
      "note": 50,
      "start": 17.7542,
      "duration": 0.3027,
      "velocity": 127,
      "chip": "ym2612"
    },
    {
      "channel": 2,
      "note": 29,
      "start": 17.755,
      "duration": 0.167,
      "velocity": 114,
      "chip": "ym2612"
    },
    {
      "channel": 0,
      "note": 38,
      "start": 17.9048,
      "duration": 0.1505,
      "velocity": 1,
      "chip": "ym2612"
    },
    {
      "channel": 3,
      "note": 38,
      "start": 17.9073,
      "duration": 0.3022,
      "velocity": 118,
      "chip": "ym2612"
    },
    {
      "channel": 0,
      "note": 62,
      "start": 18.0567,
      "duration": 0.1172,
      "velocity": 107,
      "chip": "ym2612"
    },
    {
      "channel": 1,
      "note": 50,
      "start": 18.0575,
      "duration": 1.0611,
      "velocity": 127,
      "chip": "ym2612"
    },
    {
      "channel": 2,
      "note": 26,
      "start": 18.0583,
      "duration": 0.1671,
      "velocity": 114,
      "chip": "ym2612"
    },
    {
      "channel": 0,
      "note": 50,
      "start": 18.2082,
      "duration": 0.1505,
      "velocity": 72,
      "chip": "ym2612"
    },
    {
      "channel": 3,
      "note": 62,
      "start": 18.2106,
      "duration": 0.2511,
      "velocity": 127,
      "chip": "ym2612"
    },
    {
      "channel": 0,
      "note": 38,
      "start": 18.3599,
      "duration": 0.1505,
      "velocity": 1,
      "chip": "ym2612"
    },
    {
      "channel": 2,
      "note": 27,
      "start": 18.3612,
      "duration": 0.1675,
      "velocity": 114,
      "chip": "ym2612"
    },
    {
      "channel": 0,
      "note": 62,
      "start": 18.5116,
      "duration": 0.1505,
      "velocity": 100,
      "chip": "ym2612"
    },
    {
      "channel": 3,
      "note": 38,
      "start": 18.514,
      "duration": 0.3024,
      "velocity": 118,
      "chip": "ym2612"
    },
    {
      "channel": 0,
      "note": 62,
      "start": 18.6634,
      "duration": 0.1172,
      "velocity": 107,
      "chip": "ym2612"
    },
    {
      "channel": 2,
      "note": 27,
      "start": 18.6648,
      "duration": 0.1674,
      "velocity": 114,
      "chip": "ym2612"
    },
    {
      "channel": 0,
      "note": 50,
      "start": 18.8151,
      "duration": 0.1504,
      "velocity": 127,
      "chip": "ym2612"
    },
    {
      "channel": 3,
      "note": 62,
      "start": 18.8176,
      "duration": 0.251,
      "velocity": 127,
      "chip": "ym2612"
    },
    {
      "channel": 0,
      "note": 50,
      "start": 18.9666,
      "duration": 0.1505,
      "velocity": 100,
      "chip": "ym2612"
    },
    {
      "channel": 2,
      "note": 29,
      "start": 18.9679,
      "duration": 0.1523,
      "velocity": 114,
      "chip": "ym2612"
    },
    {
      "channel": 0,
      "note": 5,
      "start": 19.1185,
      "duration": 1.1789,
      "velocity": 127,
      "chip": "ym2612"
    },
    {
      "channel": 1,
      "note": 50,
      "start": 19.12,
      "duration": 0.1494,
      "velocity": 1,
      "chip": "ym2612"
    },
    {
      "channel": 2,
      "note": 7,
      "start": 19.1214,
      "duration": 2.4249,
      "velocity": 1,
      "chip": "ym2612"
    },
    {
      "channel": 3,
      "note": 7,
      "start": 19.1227,
      "duration": 2.4243,
      "velocity": 1,
      "chip": "ym2612"
    },
    {
      "channel": 4,
      "note": 7,
      "start": 19.1259,
      "duration": 2.4264,
      "velocity": 1,
      "chip": "ym2612"
    },
    {
      "channel": 5,
      "note": 7,
      "start": 19.1266,
      "duration": 2.4266,
      "velocity": 1,
      "chip": "ym2612"
    },
    {
      "channel": 1,
      "note": 50,
      "start": 19.2711,
      "duration": 0.117,
      "velocity": 107,
      "chip": "ym2612"
    },
    {
      "channel": 1,
      "note": 50,
      "start": 19.4223,
      "duration": 0.1506,
      "velocity": 72,
      "chip": "ym2612"
    },
    {
      "channel": 1,
      "note": 50,
      "start": 19.574,
      "duration": 0.1505,
      "velocity": 1,
      "chip": "ym2612"
    },
    {
      "channel": 1,
      "note": 50,
      "start": 19.7256,
      "duration": 0.1505,
      "velocity": 100,
      "chip": "ym2612"
    },
    {
      "channel": 1,
      "note": 50,
      "start": 19.8776,
      "duration": 0.1171,
      "velocity": 107,
      "chip": "ym2612"
    },
    {
      "channel": 1,
      "note": 50,
      "start": 20.0291,
      "duration": 0.1504,
      "velocity": 127,
      "chip": "ym2612"
    },
    {
      "channel": 1,
      "note": 50,
      "start": 20.1807,
      "duration": 0.1506,
      "velocity": 100,
      "chip": "ym2612"
    },
    {
      "channel": 1,
      "note": 50,
      "start": 20.3324,
      "duration": 0.1505,
      "velocity": 1,
      "chip": "ym2612"
    },
    {
      "channel": 1,
      "note": 50,
      "start": 20.4842,
      "duration": 0.1172,
      "velocity": 107,
      "chip": "ym2612"
    },
    {
      "channel": 1,
      "note": 50,
      "start": 20.6357,
      "duration": 0.1508,
      "velocity": 72,
      "chip": "ym2612"
    },
    {
      "channel": 1,
      "note": 50,
      "start": 20.7877,
      "duration": 0.1502,
      "velocity": 1,
      "chip": "ym2612"
    },
    {
      "channel": 1,
      "note": 50,
      "start": 20.9391,
      "duration": 0.1506,
      "velocity": 100,
      "chip": "ym2612"
    },
    {
      "channel": 1,
      "note": 50,
      "start": 21.091,
      "duration": 0.1171,
      "velocity": 107,
      "chip": "ym2612"
    },
    {
      "channel": 1,
      "note": 50,
      "start": 21.2426,
      "duration": 0.1503,
      "velocity": 127,
      "chip": "ym2612"
    },
    {
      "channel": 1,
      "note": 38,
      "start": 21.3941,
      "duration": 0.1508,
      "velocity": 100,
      "chip": "ym2612"
    },
    {
      "channel": 0,
      "note": 5,
      "start": 21.5447,
      "duration": 1.1795,
      "velocity": 127,
      "chip": "ym2612"
    },
    {
      "channel": 1,
      "note": 50,
      "start": 21.5461,
      "duration": 0.1503,
      "velocity": 1,
      "chip": "ym2612"
    },
    {
      "channel": 2,
      "note": 7,
      "start": 21.5468,
      "duration": 2.427,
      "velocity": 1,
      "chip": "ym2612"
    },
    {
      "channel": 3,
      "note": 7,
      "start": 21.5475,
      "duration": 2.427,
      "velocity": 1,
      "chip": "ym2612"
    },
    {
      "channel": 4,
      "note": 7,
      "start": 21.5527,
      "duration": 2.4265,
      "velocity": 1,
      "chip": "ym2612"
    },
    {
      "channel": 5,
      "note": 7,
      "start": 21.5538,
      "duration": 2.4261,
      "velocity": 1,
      "chip": "ym2612"
    },
    {
      "channel": 1,
      "note": 50,
      "start": 21.6977,
      "duration": 0.1171,
      "velocity": 107,
      "chip": "ym2612"
    },
    {
      "channel": 1,
      "note": 50,
      "start": 21.8492,
      "duration": 0.1505,
      "velocity": 72,
      "chip": "ym2612"
    },
    {
      "channel": 1,
      "note": 50,
      "start": 22.0008,
      "duration": 0.1506,
      "velocity": 1,
      "chip": "ym2612"
    },
    {
      "channel": 1,
      "note": 50,
      "start": 22.1525,
      "duration": 0.1508,
      "velocity": 100,
      "chip": "ym2612"
    },
    {
      "channel": 1,
      "note": 50,
      "start": 22.3046,
      "duration": 0.1169,
      "velocity": 107,
      "chip": "ym2612"
    },
    {
      "channel": 1,
      "note": 50,
      "start": 22.4561,
      "duration": 0.1504,
      "velocity": 127,
      "chip": "ym2612"
    },
    {
      "channel": 1,
      "note": 38,
      "start": 22.6076,
      "duration": 0.1505,
      "velocity": 100,
      "chip": "ym2612"
    },
    {
      "channel": 1,
      "note": 50,
      "start": 22.7592,
      "duration": 0.1506,
      "velocity": 1,
      "chip": "ym2612"
    },
    {
      "channel": 1,
      "note": 50,
      "start": 22.9111,
      "duration": 0.1171,
      "velocity": 107,
      "chip": "ym2612"
    },
    {
      "channel": 1,
      "note": 50,
      "start": 23.0626,
      "duration": 0.1506,
      "velocity": 72,
      "chip": "ym2612"
    },
    {
      "channel": 1,
      "note": 50,
      "start": 23.2143,
      "duration": 0.1505,
      "velocity": 1,
      "chip": "ym2612"
    },
    {
      "channel": 1,
      "note": 50,
      "start": 23.366,
      "duration": 0.1505,
      "velocity": 100,
      "chip": "ym2612"
    },
    {
      "channel": 1,
      "note": 50,
      "start": 23.5179,
      "duration": 0.1171,
      "velocity": 107,
      "chip": "ym2612"
    },
    {
      "channel": 1,
      "note": 50,
      "start": 23.6696,
      "duration": 0.1505,
      "velocity": 127,
      "chip": "ym2612"
    },
    {
      "channel": 1,
      "note": 38,
      "start": 23.8213,
      "duration": 0.1511,
      "velocity": 100,
      "chip": "ym2612"
    },
    {
      "channel": 0,
      "note": 5,
      "start": 23.9722,
      "duration": 1.179,
      "velocity": 127,
      "chip": "ym2612"
    },
    {
      "channel": 1,
      "note": 50,
      "start": 23.9735,
      "duration": 0.1497,
      "velocity": 1,
      "chip": "ym2612"
    },
    {
      "channel": 2,
      "note": 7,
      "start": 23.9743,
      "duration": 2.4264,
      "velocity": 1,
      "chip": "ym2612"
    },
    {
      "channel": 3,
      "note": 7,
      "start": 23.975,
      "duration": 2.4264,
      "velocity": 1,
      "chip": "ym2612"
    },
    {
      "channel": 4,
      "note": 7,
      "start": 23.9796,
      "duration": 2.4264,
      "velocity": 1,
      "chip": "ym2612"
    },
    {
      "channel": 5,
      "note": 7,
      "start": 23.9804,
      "duration": 2.4264,
      "velocity": 1,
      "chip": "ym2612"
    },
    {
      "channel": 1,
      "note": 50,
      "start": 24.1246,
      "duration": 0.1171,
      "velocity": 107,
      "chip": "ym2612"
    },
    {
      "channel": 1,
      "note": 50,
      "start": 24.2761,
      "duration": 0.1505,
      "velocity": 72,
      "chip": "ym2612"
    },
    {
      "channel": 1,
      "note": 50,
      "start": 24.4277,
      "duration": 0.1506,
      "velocity": 1,
      "chip": "ym2612"
    },
    {
      "channel": 1,
      "note": 50,
      "start": 24.5795,
      "duration": 0.1505,
      "velocity": 100,
      "chip": "ym2612"
    },
    {
      "channel": 1,
      "note": 50,
      "start": 24.7313,
      "duration": 0.1172,
      "velocity": 107,
      "chip": "ym2612"
    },
    {
      "channel": 1,
      "note": 50,
      "start": 24.8829,
      "duration": 0.1504,
      "velocity": 127,
      "chip": "ym2612"
    },
    {
      "channel": 1,
      "note": 50,
      "start": 25.0345,
      "duration": 0.1505,
      "velocity": 100,
      "chip": "ym2612"
    },
    {
      "channel": 1,
      "note": 50,
      "start": 25.1861,
      "duration": 0.1508,
      "velocity": 1,
      "chip": "ym2612"
    },
    {
      "channel": 1,
      "note": 50,
      "start": 25.3383,
      "duration": 0.1168,
      "velocity": 107,
      "chip": "ym2612"
    },
    {
      "channel": 1,
      "note": 50,
      "start": 25.4895,
      "duration": 0.1506,
      "velocity": 72,
      "chip": "ym2612"
    },
    {
      "channel": 1,
      "note": 50,
      "start": 25.6412,
      "duration": 0.1505,
      "velocity": 1,
      "chip": "ym2612"
    },
    {
      "channel": 1,
      "note": 50,
      "start": 25.7929,
      "duration": 0.1505,
      "velocity": 100,
      "chip": "ym2612"
    },
    {
      "channel": 1,
      "note": 50,
      "start": 25.9447,
      "duration": 0.1172,
      "velocity": 107,
      "chip": "ym2612"
    },
    {
      "channel": 1,
      "note": 50,
      "start": 26.0964,
      "duration": 0.1504,
      "velocity": 127,
      "chip": "ym2612"
    },
    {
      "channel": 1,
      "note": 38,
      "start": 26.2479,
      "duration": 0.1514,
      "velocity": 100,
      "chip": "ym2612"
    },
    {
      "channel": 0,
      "note": 5,
      "start": 26.3991,
      "duration": 1.1789,
      "velocity": 127,
      "chip": "ym2612"
    },
    {
      "channel": 1,
      "note": 50,
      "start": 26.4005,
      "duration": 0.1497,
      "velocity": 1,
      "chip": "ym2612"
    },
    {
      "channel": 2,
      "note": 7,
      "start": 26.4012,
      "duration": 2.4246,
      "velocity": 1,
      "chip": "ym2612"
    },
    {
      "channel": 3,
      "note": 7,
      "start": 26.4019,
      "duration": 2.4253,
      "velocity": 1,
      "chip": "ym2612"
    },
    {
      "channel": 4,
      "note": 7,
      "start": 26.4066,
      "duration": 2.4264,
      "velocity": 1,
      "chip": "ym2612"
    },
    {
      "channel": 5,
      "note": 7,
      "start": 26.4073,
      "duration": 2.4272,
      "velocity": 1,
      "chip": "ym2612"
    },
    {
      "channel": 1,
      "note": 50,
      "start": 26.5515,
      "duration": 0.1172,
      "velocity": 107,
      "chip": "ym2612"
    },
    {
      "channel": 1,
      "note": 50,
      "start": 26.7032,
      "duration": 0.1505,
      "velocity": 72,
      "chip": "ym2612"
    },
    {
      "channel": 1,
      "note": 50,
      "start": 26.8549,
      "duration": 0.1503,
      "velocity": 1,
      "chip": "ym2612"
    },
    {
      "channel": 1,
      "note": 50,
      "start": 27.0064,
      "duration": 0.1505,
      "velocity": 100,
      "chip": "ym2612"
    },
    {
      "channel": 1,
      "note": 50,
      "start": 27.1582,
      "duration": 0.1172,
      "velocity": 107,
      "chip": "ym2612"
    },
    {
      "channel": 1,
      "note": 50,
      "start": 27.3099,
      "duration": 0.1504,
      "velocity": 127,
      "chip": "ym2612"
    },
    {
      "channel": 1,
      "note": 38,
      "start": 27.4614,
      "duration": 0.1505,
      "velocity": 100,
      "chip": "ym2612"
    },
    {
      "channel": 1,
      "note": 50,
      "start": 27.613,
      "duration": 0.1505,
      "velocity": 1,
      "chip": "ym2612"
    },
    {
      "channel": 1,
      "note": 50,
      "start": 27.7649,
      "duration": 0.1171,
      "velocity": 107,
      "chip": "ym2612"
    },
    {
      "channel": 1,
      "note": 50,
      "start": 27.9164,
      "duration": 0.1505,
      "velocity": 72,
      "chip": "ym2612"
    },
    {
      "channel": 1,
      "note": 50,
      "start": 28.0681,
      "duration": 0.1506,
      "velocity": 1,
      "chip": "ym2612"
    },
    {
      "channel": 1,
      "note": 50,
      "start": 28.22,
      "duration": 0.1505,
      "velocity": 100,
      "chip": "ym2612"
    },
    {
      "channel": 1,
      "note": 50,
      "start": 28.3719,
      "duration": 0.1169,
      "velocity": 107,
      "chip": "ym2612"
    },
    {
      "channel": 1,
      "note": 50,
      "start": 28.5233,
      "duration": 0.1504,
      "velocity": 127,
      "chip": "ym2612"
    },
    {
      "channel": 1,
      "note": 38,
      "start": 28.6748,
      "duration": 0.6227,
      "velocity": 100,
      "chip": "ym2612"
    },
    {
      "channel": 2,
      "note": 38,
      "start": 28.827,
      "duration": 0.303,
      "velocity": 118,
      "chip": "ym2612"
    },
    {
      "channel": 3,
      "note": 26,
      "start": 28.8284,
      "duration": 0.1669,
      "velocity": 114,
      "chip": "ym2612"
    },
    {
      "channel": 4,
      "note": 50,
      "start": 28.8342,
      "duration": 0.1677,
      "velocity": 114,
      "chip": "ym2612"
    },
    {
      "channel": 5,
      "note": 7,
      "start": 28.8349,
      "duration": 2.4265,
      "velocity": 1,
      "chip": "ym2612"
    },
    {
      "channel": 0,
      "note": 50,
      "start": 29.1293,
      "duration": 0.1505,
      "velocity": 127,
      "chip": "ym2612"
    },
    {
      "channel": 2,
      "note": 62,
      "start": 29.1311,
      "duration": 0.2511,
      "velocity": 127,
      "chip": "ym2612"
    },
    {
      "channel": 3,
      "note": 26,
      "start": 29.1319,
      "duration": 0.1666,
      "velocity": 114,
      "chip": "ym2612"
    },
    {
      "channel": 4,
      "note": 50,
      "start": 29.1377,
      "duration": 0.1502,
      "velocity": 120,
      "chip": "ym2612"
    },
    {
      "channel": 0,
      "note": 50,
      "start": 29.2803,
      "duration": 0.1512,
      "velocity": 127,
      "chip": "ym2612"
    },
    {
      "channel": 4,
      "note": 50,
      "start": 29.2893,
      "duration": 0.1677,
      "velocity": 114,
      "chip": "ym2612"
    },
    {
      "channel": 0,
      "note": 50,
      "start": 29.4321,
      "duration": 0.1511,
      "velocity": 127,
      "chip": "ym2612"
    },
    {
      "channel": 1,
      "note": 17,
      "start": 29.4334,
      "duration": 1.2121,
      "velocity": 122,
      "chip": "ym2612"
    },
    {
      "channel": 2,
      "note": 38,
      "start": 29.4347,
      "duration": 0.3013,
      "velocity": 118,
      "chip": "ym2612"
    },
    {
      "channel": 3,
      "note": 27,
      "start": 29.4356,
      "duration": 0.1494,
      "velocity": 114,
      "chip": "ym2612"
    },
    {
      "channel": 0,
      "note": 50,
      "start": 29.5837,
      "duration": 0.1511,
      "velocity": 127,
      "chip": "ym2612"
    },
    {
      "channel": 3,
      "note": 27,
      "start": 29.5855,
      "duration": 0.1683,
      "velocity": 114,
      "chip": "ym2612"
    },
    {
      "channel": 4,
      "note": 50,
      "start": 29.5925,
      "duration": 0.1677,
      "velocity": 120,
      "chip": "ym2612"
    },
    {
      "channel": 0,
      "note": 50,
      "start": 29.7354,
      "duration": 0.1513,
      "velocity": 127,
      "chip": "ym2612"
    },
    {
      "channel": 2,
      "note": 62,
      "start": 29.7375,
      "duration": 0.2515,
      "velocity": 127,
      "chip": "ym2612"
    },
    {
      "channel": 0,
      "note": 38,
      "start": 29.8873,
      "duration": 0.3025,
      "velocity": 127,
      "chip": "ym2612"
    },
    {
      "channel": 3,
      "note": 29,
      "start": 29.8891,
      "duration": 0.1678,
      "velocity": 114,
      "chip": "ym2612"
    },
    {
      "channel": 4,
      "note": 50,
      "start": 29.8952,
      "duration": 0.1512,
      "velocity": 120,
      "chip": "ym2612"
    },
    {
      "channel": 2,
      "note": 38,
      "start": 30.0403,
      "duration": 0.3022,
      "velocity": 118,
      "chip": "ym2612"
    },
    {
      "channel": 4,
      "note": 50,
      "start": 30.0469,
      "duration": 0.1683,
      "velocity": 105,
      "chip": "ym2612"
    },
    {
      "channel": 0,
      "note": 38,
      "start": 30.1905,
      "duration": 1.3646,
      "velocity": 127,
      "chip": "ym2612"
    },
    {
      "channel": 3,
      "note": 26,
      "start": 30.1922,
      "duration": 0.1681,
      "velocity": 114,
      "chip": "ym2612"
    },
    {
      "channel": 2,
      "note": 62,
      "start": 30.3437,
      "duration": 0.252,
      "velocity": 127,
      "chip": "ym2612"
    },
    {
      "channel": 4,
      "note": 50,
      "start": 30.3502,
      "duration": 0.1683,
      "velocity": 120,
      "chip": "ym2612"
    },
    {
      "channel": 3,
      "note": 27,
      "start": 30.4953,
      "duration": 0.1684,
      "velocity": 114,
      "chip": "ym2612"
    },
    {
      "channel": 1,
      "note": 17,
      "start": 30.646,
      "duration": 0.1512,
      "velocity": 122,
      "chip": "ym2612"
    },
    {
      "channel": 2,
      "note": 38,
      "start": 30.6473,
      "duration": 0.302,
      "velocity": 118,
      "chip": "ym2612"
    },
    {
      "channel": 4,
      "note": 38,
      "start": 30.6539,
      "duration": 0.151,
      "velocity": 120,
      "chip": "ym2612"
    },
    {
      "channel": 1,
      "note": 17,
      "start": 30.7977,
      "duration": 1.0615,
      "velocity": 122,
      "chip": "ym2612"
    },
    {
      "channel": 3,
      "note": 27,
      "start": 30.799,
      "duration": 0.1681,
      "velocity": 114,
      "chip": "ym2612"
    },
    {
      "channel": 4,
      "note": 50,
      "start": 30.8054,
      "duration": 0.1511,
      "velocity": 120,
      "chip": "ym2612"
    },
    {
      "channel": 2,
      "note": 62,
      "start": 30.9505,
      "duration": 0.252,
      "velocity": 127,
      "chip": "ym2612"
    },
    {
      "channel": 4,
      "note": 38,
      "start": 30.957,
      "duration": 0.1512,
      "velocity": 120,
      "chip": "ym2612"
    },
    {
      "channel": 3,
      "note": 29,
      "start": 31.102,
      "duration": 0.1522,
      "velocity": 114,
      "chip": "ym2612"
    },
    {
      "channel": 4,
      "note": 38,
      "start": 31.1087,
      "duration": 0.1511,
      "velocity": 120,
      "chip": "ym2612"
    },
    {
      "channel": 2,
      "note": 38,
      "start": 31.2541,
      "duration": 0.3022,
      "velocity": 118,
      "chip": "ym2612"
    },
    {
      "channel": 3,
      "note": 26,
      "start": 31.2548,
      "duration": 0.1673,
      "velocity": 114,
      "chip": "ym2612"
    },
    {
      "channel": 4,
      "note": 50,
      "start": 31.2611,
      "duration": 0.1677,
      "velocity": 114,
      "chip": "ym2612"
    },
    {
      "channel": 5,
      "note": 7,
      "start": 31.2618,
      "duration": 2.4265,
      "velocity": 1,
      "chip": "ym2612"
    },
    {
      "channel": 0,
      "note": 50,
      "start": 31.5556,
      "duration": 0.1511,
      "velocity": 127,
      "chip": "ym2612"
    },
    {
      "channel": 2,
      "note": 62,
      "start": 31.5574,
      "duration": 0.2517,
      "velocity": 127,
      "chip": "ym2612"
    },
    {
      "channel": 3,
      "note": 26,
      "start": 31.5581,
      "duration": 0.1673,
      "velocity": 114,
      "chip": "ym2612"
    },
    {
      "channel": 4,
      "note": 50,
      "start": 31.5644,
      "duration": 0.1505,
      "velocity": 120,
      "chip": "ym2612"
    },
    {
      "channel": 0,
      "note": 50,
      "start": 31.7073,
      "duration": 0.1511,
      "velocity": 127,
      "chip": "ym2612"
    },
    {
      "channel": 4,
      "note": 50,
      "start": 31.7162,
      "duration": 0.1677,
      "velocity": 114,
      "chip": "ym2612"
    },
    {
      "channel": 0,
      "note": 50,
      "start": 31.859,
      "duration": 0.1511,
      "velocity": 127,
      "chip": "ym2612"
    },
    {
      "channel": 1,
      "note": 17,
      "start": 31.8597,
      "duration": 1.2127,
      "velocity": 122,
      "chip": "ym2612"
    },
    {
      "channel": 2,
      "note": 38,
      "start": 31.861,
      "duration": 0.302,
      "velocity": 118,
      "chip": "ym2612"
    },
    {
      "channel": 3,
      "note": 27,
      "start": 31.8618,
      "duration": 0.15,
      "velocity": 114,
      "chip": "ym2612"
    },
    {
      "channel": 0,
      "note": 50,
      "start": 32.0106,
      "duration": 0.1511,
      "velocity": 127,
      "chip": "ym2612"
    },
    {
      "channel": 3,
      "note": 27,
      "start": 32.0123,
      "duration": 0.1681,
      "velocity": 114,
      "chip": "ym2612"
    },
    {
      "channel": 4,
      "note": 50,
      "start": 32.0194,
      "duration": 0.1677,
      "velocity": 105,
      "chip": "ym2612"
    },
    {
      "channel": 0,
      "note": 50,
      "start": 32.1623,
      "duration": 0.1512,
      "velocity": 127,
      "chip": "ym2612"
    },
    {
      "channel": 2,
      "note": 62,
      "start": 32.1641,
      "duration": 0.2517,
      "velocity": 127,
      "chip": "ym2612"
    },
    {
      "channel": 0,
      "note": 38,
      "start": 32.314,
      "duration": 0.3028,
      "velocity": 127,
      "chip": "ym2612"
    },
    {
      "channel": 3,
      "note": 29,
      "start": 32.3157,
      "duration": 0.1681,
      "velocity": 114,
      "chip": "ym2612"
    },
    {
      "channel": 4,
      "note": 50,
      "start": 32.3221,
      "duration": 0.1512,
      "velocity": 120,
      "chip": "ym2612"
    },
    {
      "channel": 2,
      "note": 38,
      "start": 32.4672,
      "duration": 0.3022,
      "velocity": 118,
      "chip": "ym2612"
    },
    {
      "channel": 4,
      "note": 50,
      "start": 32.4746,
      "duration": 0.1677,
      "velocity": 114,
      "chip": "ym2612"
    },
    {
      "channel": 0,
      "note": 38,
      "start": 32.6174,
      "duration": 1.3646,
      "velocity": 127,
      "chip": "ym2612"
    },
    {
      "channel": 3,
      "note": 26,
      "start": 32.6191,
      "duration": 0.1684,
      "velocity": 114,
      "chip": "ym2612"
    },
    {
      "channel": 2,
      "note": 62,
      "start": 32.7709,
      "duration": 0.2517,
      "velocity": 127,
      "chip": "ym2612"
    },
    {
      "channel": 4,
      "note": 50,
      "start": 32.7778,
      "duration": 0.1677,
      "velocity": 120,
      "chip": "ym2612"
    },
    {
      "channel": 3,
      "note": 27,
      "start": 32.9224,
      "duration": 0.1682,
      "velocity": 114,
      "chip": "ym2612"
    },
    {
      "channel": 1,
      "note": 17,
      "start": 33.0729,
      "duration": 0.4545,
      "velocity": 122,
      "chip": "ym2612"
    },
    {
      "channel": 2,
      "note": 38,
      "start": 33.0742,
      "duration": 0.302,
      "velocity": 118,
      "chip": "ym2612"
    },
    {
      "channel": 4,
      "note": 50,
      "start": 33.0805,
      "duration": 0.1512,
      "velocity": 120,
      "chip": "ym2612"
    },
    {
      "channel": 3,
      "note": 27,
      "start": 33.2256,
      "duration": 0.1683,
      "velocity": 114,
      "chip": "ym2612"
    },
    {
      "channel": 4,
      "note": 38,
      "start": 33.2322,
      "duration": 0.1512,
      "velocity": 120,
      "chip": "ym2612"
    },
    {
      "channel": 2,
      "note": 62,
      "start": 33.3773,
      "duration": 0.252,
      "velocity": 127,
      "chip": "ym2612"
    },
    {
      "channel": 4,
      "note": 38,
      "start": 33.3839,
      "duration": 0.1512,
      "velocity": 120,
      "chip": "ym2612"
    },
    {
      "channel": 1,
      "note": 17,
      "start": 33.5279,
      "duration": 0.7581,
      "velocity": 122,
      "chip": "ym2612"
    },
    {
      "channel": 3,
      "note": 29,
      "start": 33.5292,
      "duration": 0.1517,
      "velocity": 114,
      "chip": "ym2612"
    },
    {
      "channel": 4,
      "note": 50,
      "start": 33.5356,
      "duration": 0.1512,
      "velocity": 120,
      "chip": "ym2612"
    },
    {
      "channel": 2,
      "note": 38,
      "start": 33.6807,
      "duration": 0.3025,
      "velocity": 118,
      "chip": "ym2612"
    },
    {
      "channel": 3,
      "note": 26,
      "start": 33.6815,
      "duration": 0.1675,
      "velocity": 114,
      "chip": "ym2612"
    },
    {
      "channel": 4,
      "note": 50,
      "start": 33.688,
      "duration": 0.1677,
      "velocity": 114,
      "chip": "ym2612"
    },
    {
      "channel": 5,
      "note": 7,
      "start": 33.6888,
      "duration": 2.4264,
      "velocity": 1,
      "chip": "ym2612"
    },
    {
      "channel": 0,
      "note": 50,
      "start": 33.9824,
      "duration": 0.1511,
      "velocity": 127,
      "chip": "ym2612"
    },
    {
      "channel": 2,
      "note": 62,
      "start": 33.9843,
      "duration": 0.2517,
      "velocity": 127,
      "chip": "ym2612"
    },
    {
      "channel": 3,
      "note": 26,
      "start": 33.9851,
      "duration": 0.1672,
      "velocity": 114,
      "chip": "ym2612"
    },
    {
      "channel": 4,
      "note": 50,
      "start": 33.9913,
      "duration": 0.1505,
      "velocity": 120,
      "chip": "ym2612"
    },
    {
      "channel": 0,
      "note": 50,
      "start": 34.1342,
      "duration": 0.1511,
      "velocity": 127,
      "chip": "ym2612"
    },
    {
      "channel": 4,
      "note": 50,
      "start": 34.1431,
      "duration": 0.1677,
      "velocity": 114,
      "chip": "ym2612"
    },
    {
      "channel": 0,
      "note": 50,
      "start": 34.2858,
      "duration": 0.1512,
      "velocity": 127,
      "chip": "ym2612"
    },
    {
      "channel": 1,
      "note": 17,
      "start": 34.2868,
      "duration": 1.2125,
      "velocity": 122,
      "chip": "ym2612"
    },
    {
      "channel": 2,
      "note": 38,
      "start": 34.2882,
      "duration": 0.3017,
      "velocity": 118,
      "chip": "ym2612"
    },
    {
      "channel": 3,
      "note": 27,
      "start": 34.2889,
      "duration": 0.1499,
      "velocity": 114,
      "chip": "ym2612"
    },
    {
      "channel": 0,
      "note": 50,
      "start": 34.4376,
      "duration": 0.151,
      "velocity": 127,
      "chip": "ym2612"
    },
    {
      "channel": 3,
      "note": 27,
      "start": 34.4393,
      "duration": 0.168,
      "velocity": 114,
      "chip": "ym2612"
    },
    {
      "channel": 4,
      "note": 50,
      "start": 34.4463,
      "duration": 0.1677,
      "velocity": 120,
      "chip": "ym2612"
    },
    {
      "channel": 0,
      "note": 50,
      "start": 34.5892,
      "duration": 0.1512,
      "velocity": 127,
      "chip": "ym2612"
    },
    {
      "channel": 2,
      "note": 62,
      "start": 34.591,
      "duration": 0.2517,
      "velocity": 127,
      "chip": "ym2612"
    },
    {
      "channel": 0,
      "note": 38,
      "start": 34.7409,
      "duration": 0.3028,
      "velocity": 127,
      "chip": "ym2612"
    },
    {
      "channel": 3,
      "note": 29,
      "start": 34.7426,
      "duration": 0.1681,
      "velocity": 114,
      "chip": "ym2612"
    },
    {
      "channel": 4,
      "note": 50,
      "start": 34.749,
      "duration": 0.1511,
      "velocity": 120,
      "chip": "ym2612"
    },
    {
      "channel": 2,
      "note": 38,
      "start": 34.8941,
      "duration": 0.3022,
      "velocity": 118,
      "chip": "ym2612"
    },
    {
      "channel": 4,
      "note": 50,
      "start": 34.9007,
      "duration": 0.1683,
      "velocity": 105,
      "chip": "ym2612"
    },
    {
      "channel": 0,
      "note": 38,
      "start": 35.0443,
      "duration": 1.3646,
      "velocity": 127,
      "chip": "ym2612"
    },
    {
      "channel": 3,
      "note": 26,
      "start": 35.046,
      "duration": 0.1681,
      "velocity": 114,
      "chip": "ym2612"
    },
    {
      "channel": 2,
      "note": 62,
      "start": 35.1975,
      "duration": 0.252,
      "velocity": 127,
      "chip": "ym2612"
    },
    {
      "channel": 4,
      "note": 50,
      "start": 35.2041,
      "duration": 0.1683,
      "velocity": 120,
      "chip": "ym2612"
    },
    {
      "channel": 3,
      "note": 27,
      "start": 35.3491,
      "duration": 0.1683,
      "velocity": 114,
      "chip": "ym2612"
    },
    {
      "channel": 1,
      "note": 17,
      "start": 35.4998,
      "duration": 0.1511,
      "velocity": 122,
      "chip": "ym2612"
    },
    {
      "channel": 2,
      "note": 38,
      "start": 35.5012,
      "duration": 0.3022,
      "velocity": 118,
      "chip": "ym2612"
    },
    {
      "channel": 4,
      "note": 38,
      "start": 35.5074,
      "duration": 0.1512,
      "velocity": 120,
      "chip": "ym2612"
    },
    {
      "channel": 1,
      "note": 17,
      "start": 35.6515,
      "duration": 1.0615,
      "velocity": 122,
      "chip": "ym2612"
    },
    {
      "channel": 3,
      "note": 27,
      "start": 35.6527,
      "duration": 0.1683,
      "velocity": 114,
      "chip": "ym2612"
    },
    {
      "channel": 4,
      "note": 50,
      "start": 35.6591,
      "duration": 0.1512,
      "velocity": 120,
      "chip": "ym2612"
    },
    {
      "channel": 2,
      "note": 62,
      "start": 35.8044,
      "duration": 0.2517,
      "velocity": 127,
      "chip": "ym2612"
    },
    {
      "channel": 4,
      "note": 38,
      "start": 35.8108,
      "duration": 0.1511,
      "velocity": 120,
      "chip": "ym2612"
    },
    {
      "channel": 3,
      "note": 29,
      "start": 35.9559,
      "duration": 0.152,
      "velocity": 114,
      "chip": "ym2612"
    },
    {
      "channel": 4,
      "note": 38,
      "start": 35.9625,
      "duration": 0.1511,
      "velocity": 120,
      "chip": "ym2612"
    },
    {
      "channel": 2,
      "note": 38,
      "start": 36.1076,
      "duration": 0.3025,
      "velocity": 118,
      "chip": "ym2612"
    },
    {
      "channel": 3,
      "note": 26,
      "start": 36.1083,
      "duration": 0.1676,
      "velocity": 114,
      "chip": "ym2612"
    },
    {
      "channel": 4,
      "note": 50,
      "start": 36.1149,
      "duration": 0.1677,
      "velocity": 114,
      "chip": "ym2612"
    },
    {
      "channel": 5,
      "note": 7,
      "start": 36.1156,
      "duration": 2.4264,
      "velocity": 1,
      "chip": "ym2612"
    },
    {
      "channel": 0,
      "note": 50,
      "start": 36.4093,
      "duration": 0.1512,
      "velocity": 127,
      "chip": "ym2612"
    },
    {
      "channel": 2,
      "note": 62,
      "start": 36.4112,
      "duration": 0.2517,
      "velocity": 127,
      "chip": "ym2612"
    },
    {
      "channel": 3,
      "note": 26,
      "start": 36.412,
      "duration": 0.1673,
      "velocity": 114,
      "chip": "ym2612"
    },
    {
      "channel": 4,
      "note": 50,
      "start": 36.4181,
      "duration": 0.1505,
      "velocity": 120,
      "chip": "ym2612"
    },
    {
      "channel": 0,
      "note": 50,
      "start": 36.5611,
      "duration": 0.1511,
      "velocity": 127,
      "chip": "ym2612"
    },
    {
      "channel": 4,
      "note": 50,
      "start": 36.5702,
      "duration": 0.1674,
      "velocity": 114,
      "chip": "ym2612"
    },
    {
      "channel": 0,
      "note": 50,
      "start": 36.7127,
      "duration": 0.1512,
      "velocity": 127,
      "chip": "ym2612"
    },
    {
      "channel": 1,
      "note": 17,
      "start": 36.7135,
      "duration": 1.2127,
      "velocity": 122,
      "chip": "ym2612"
    },
    {
      "channel": 2,
      "note": 38,
      "start": 36.7148,
      "duration": 0.302,
      "velocity": 118,
      "chip": "ym2612"
    },
    {
      "channel": 3,
      "note": 27,
      "start": 36.7156,
      "duration": 0.1501,
      "velocity": 114,
      "chip": "ym2612"
    },
    {
      "channel": 0,
      "note": 50,
      "start": 36.8644,
      "duration": 0.1511,
      "velocity": 127,
      "chip": "ym2612"
    },
    {
      "channel": 3,
      "note": 27,
      "start": 36.8662,
      "duration": 0.1681,
      "velocity": 114,
      "chip": "ym2612"
    },
    {
      "channel": 4,
      "note": 50,
      "start": 36.8732,
      "duration": 0.1677,
      "velocity": 105,
      "chip": "ym2612"
    },
    {
      "channel": 0,
      "note": 50,
      "start": 37.0161,
      "duration": 0.1511,
      "velocity": 127,
      "chip": "ym2612"
    },
    {
      "channel": 2,
      "note": 62,
      "start": 37.0179,
      "duration": 0.252,
      "velocity": 127,
      "chip": "ym2612"
    },
    {
      "channel": 0,
      "note": 38,
      "start": 37.1678,
      "duration": 0.3028,
      "velocity": 127,
      "chip": "ym2612"
    },
    {
      "channel": 3,
      "note": 29,
      "start": 37.1697,
      "duration": 0.1682,
      "velocity": 114,
      "chip": "ym2612"
    },
    {
      "channel": 4,
      "note": 50,
      "start": 37.176,
      "duration": 0.1511,
      "velocity": 120,
      "chip": "ym2612"
    },
    {
      "channel": 2,
      "note": 38,
      "start": 37.3213,
      "duration": 0.302,
      "velocity": 118,
      "chip": "ym2612"
    },
    {
      "channel": 4,
      "note": 50,
      "start": 37.3284,
      "duration": 0.1677,
      "velocity": 114,
      "chip": "ym2612"
    },
    {
      "channel": 0,
      "note": 38,
      "start": 37.4711,
      "duration": 1.3646,
      "velocity": 127,
      "chip": "ym2612"
    },
    {
      "channel": 3,
      "note": 26,
      "start": 37.4729,
      "duration": 0.1681,
      "velocity": 114,
      "chip": "ym2612"
    },
    {
      "channel": 2,
      "note": 62,
      "start": 37.6244,
      "duration": 0.252,
      "velocity": 127,
      "chip": "ym2612"
    },
    {
      "channel": 4,
      "note": 50,
      "start": 37.6316,
      "duration": 0.1677,
      "velocity": 120,
      "chip": "ym2612"
    },
    {
      "channel": 3,
      "note": 27,
      "start": 37.776,
      "duration": 0.1683,
      "velocity": 114,
      "chip": "ym2612"
    },
    {
      "channel": 1,
      "note": 17,
      "start": 37.9267,
      "duration": 0.4546,
      "velocity": 122,
      "chip": "ym2612"
    },
    {
      "channel": 2,
      "note": 38,
      "start": 37.928,
      "duration": 0.302,
      "velocity": 118,
      "chip": "ym2612"
    },
    {
      "channel": 4,
      "note": 50,
      "start": 37.9344,
      "duration": 0.1511,
      "velocity": 120,
      "chip": "ym2612"
    },
    {
      "channel": 3,
      "note": 27,
      "start": 38.0794,
      "duration": 0.1683,
      "velocity": 114,
      "chip": "ym2612"
    },
    {
      "channel": 4,
      "note": 38,
      "start": 38.086,
      "duration": 0.1512,
      "velocity": 120,
      "chip": "ym2612"
    },
    {
      "channel": 2,
      "note": 62,
      "start": 38.2311,
      "duration": 0.252,
      "velocity": 127,
      "chip": "ym2612"
    },
    {
      "channel": 4,
      "note": 38,
      "start": 38.2377,
      "duration": 0.1511,
      "velocity": 120,
      "chip": "ym2612"
    },
    {
      "channel": 1,
      "note": 17,
      "start": 38.3817,
      "duration": 0.7581,
      "velocity": 122,
      "chip": "ym2612"
    },
    {
      "channel": 3,
      "note": 29,
      "start": 38.383,
      "duration": 0.1517,
      "velocity": 114,
      "chip": "ym2612"
    },
    {
      "channel": 4,
      "note": 50,
      "start": 38.3894,
      "duration": 0.1511,
      "velocity": 120,
      "chip": "ym2612"
    },
    {
      "channel": 2,
      "note": 38,
      "start": 38.5345,
      "duration": 0.3027,
      "velocity": 118,
      "chip": "ym2612"
    },
    {
      "channel": 3,
      "note": 26,
      "start": 38.5352,
      "duration": 0.1675,
      "velocity": 114,
      "chip": "ym2612"
    },
    {
      "channel": 4,
      "note": 50,
      "start": 38.5418,
      "duration": 0.1677,
      "velocity": 114,
      "chip": "ym2612"
    },
    {
      "channel": 5,
      "note": 50,
      "start": 38.5432,
      "duration": 0.1497,
      "velocity": 107,
      "chip": "ym2612"
    },
    {
      "channel": 5,
      "note": 50,
      "start": 38.6934,
      "duration": 0.1519,
      "velocity": 106,
      "chip": "ym2612"
    },
    {
      "channel": 0,
      "note": 50,
      "start": 38.8365,
      "duration": 0.1509,
      "velocity": 127,
      "chip": "ym2612"
    },
    {
      "channel": 2,
      "note": 62,
      "start": 38.8384,
      "duration": 0.2515,
      "velocity": 127,
      "chip": "ym2612"
    },
    {
      "channel": 3,
      "note": 26,
      "start": 38.8391,
      "duration": 0.167,
      "velocity": 114,
      "chip": "ym2612"
    },
    {
      "channel": 4,
      "note": 50,
      "start": 38.845,
      "duration": 0.1505,
      "velocity": 120,
      "chip": "ym2612"
    },
    {
      "channel": 5,
      "note": 50,
      "start": 38.8458,
      "duration": 0.1513,
      "velocity": 105,
      "chip": "ym2612"
    },
    {
      "channel": 0,
      "note": 50,
      "start": 38.988,
      "duration": 0.1511,
      "velocity": 127,
      "chip": "ym2612"
    },
    {
      "channel": 4,
      "note": 50,
      "start": 38.9969,
      "duration": 0.1677,
      "velocity": 114,
      "chip": "ym2612"
    },
    {
      "channel": 5,
      "note": 50,
      "start": 38.9976,
      "duration": 0.1503,
      "velocity": 104,
      "chip": "ym2612"
    },
    {
      "channel": 0,
      "note": 50,
      "start": 39.1396,
      "duration": 0.1511,
      "velocity": 127,
      "chip": "ym2612"
    },
    {
      "channel": 1,
      "note": 17,
      "start": 39.1404,
      "duration": 1.2129,
      "velocity": 122,
      "chip": "ym2612"
    },
    {
      "channel": 2,
      "note": 38,
      "start": 39.1417,
      "duration": 0.302,
      "velocity": 118,
      "chip": "ym2612"
    },
    {
      "channel": 3,
      "note": 27,
      "start": 39.1425,
      "duration": 0.1501,
      "velocity": 114,
      "chip": "ym2612"
    },
    {
      "channel": 5,
      "note": 50,
      "start": 39.1484,
      "duration": 0.0838,
      "velocity": 103,
      "chip": "ym2612"
    },
    {
      "channel": 5,
      "note": 50,
      "start": 39.2327,
      "duration": 0.0676,
      "velocity": 103,
      "chip": "ym2612"
    },
    {
      "channel": 0,
      "note": 50,
      "start": 39.2913,
      "duration": 0.1511,
      "velocity": 127,
      "chip": "ym2612"
    },
    {
      "channel": 3,
      "note": 27,
      "start": 39.2931,
      "duration": 0.1681,
      "velocity": 114,
      "chip": "ym2612"
    },
    {
      "channel": 4,
      "note": 50,
      "start": 39.3001,
      "duration": 0.1676,
      "velocity": 120,
      "chip": "ym2612"
    },
    {
      "channel": 5,
      "note": 50,
      "start": 39.3008,
      "duration": 0.1503,
      "velocity": 102,
      "chip": "ym2612"
    },
    {
      "channel": 0,
      "note": 50,
      "start": 39.443,
      "duration": 0.1512,
      "velocity": 127,
      "chip": "ym2612"
    },
    {
      "channel": 2,
      "note": 62,
      "start": 39.4448,
      "duration": 0.2518,
      "velocity": 127,
      "chip": "ym2612"
    },
    {
      "channel": 5,
      "note": 50,
      "start": 39.4517,
      "duration": 0.1517,
      "velocity": 101,
      "chip": "ym2612"
    },
    {
      "channel": 0,
      "note": 38,
      "start": 39.5946,
      "duration": 0.3028,
      "velocity": 127,
      "chip": "ym2612"
    },
    {
      "channel": 3,
      "note": 29,
      "start": 39.5964,
      "duration": 0.1681,
      "velocity": 114,
      "chip": "ym2612"
    },
    {
      "channel": 4,
      "note": 50,
      "start": 39.6029,
      "duration": 0.1511,
      "velocity": 120,
      "chip": "ym2612"
    },
    {
      "channel": 5,
      "note": 50,
      "start": 39.6038,
      "duration": 0.151,
      "velocity": 100,
      "chip": "ym2612"
    },
    {
      "channel": 2,
      "note": 38,
      "start": 39.7479,
      "duration": 0.3022,
      "velocity": 118,
      "chip": "ym2612"
    },
    {
      "channel": 4,
      "note": 50,
      "start": 39.7545,
      "duration": 0.1683,
      "velocity": 105,
      "chip": "ym2612"
    },
    {
      "channel": 5,
      "note": 50,
      "start": 39.7552,
      "duration": 0.151,
      "velocity": 99,
      "chip": "ym2612"
    },
    {
      "channel": 0,
      "note": 38,
      "start": 39.898,
      "duration": 1.3646,
      "velocity": 127,
      "chip": "ym2612"
    },
    {
      "channel": 3,
      "note": 26,
      "start": 39.8998,
      "duration": 0.168,
      "velocity": 114,
      "chip": "ym2612"
    },
    {
      "channel": 5,
      "note": 50,
      "start": 39.9067,
      "duration": 0.1515,
      "velocity": 98,
      "chip": "ym2612"
    },
    {
      "channel": 2,
      "note": 62,
      "start": 40.0513,
      "duration": 0.2523,
      "velocity": 127,
      "chip": "ym2612"
    },
    {
      "channel": 4,
      "note": 50,
      "start": 40.0579,
      "duration": 0.1683,
      "velocity": 120,
      "chip": "ym2612"
    },
    {
      "channel": 5,
      "note": 50,
      "start": 40.0586,
      "duration": 0.151,
      "velocity": 97,
      "chip": "ym2612"
    },
    {
      "channel": 3,
      "note": 27,
      "start": 40.2031,
      "duration": 0.1684,
      "velocity": 114,
      "chip": "ym2612"
    },
    {
      "channel": 5,
      "note": 50,
      "start": 40.21,
      "duration": 0.1514,
      "velocity": 96,
      "chip": "ym2612"
    },
    {
      "channel": 1,
      "note": 17,
      "start": 40.3538,
      "duration": 0.151,
      "velocity": 122,
      "chip": "ym2612"
    },
    {
      "channel": 2,
      "note": 38,
      "start": 40.3551,
      "duration": 0.3017,
      "velocity": 118,
      "chip": "ym2612"
    },
    {
      "channel": 4,
      "note": 38,
      "start": 40.3613,
      "duration": 0.1511,
      "velocity": 120,
      "chip": "ym2612"
    },
    {
      "channel": 5,
      "note": 50,
      "start": 40.362,
      "duration": 0.1512,
      "velocity": 95,
      "chip": "ym2612"
    },
    {
      "channel": 1,
      "note": 17,
      "start": 40.5053,
      "duration": 1.0615,
      "velocity": 122,
      "chip": "ym2612"
    },
    {
      "channel": 3,
      "note": 27,
      "start": 40.5066,
      "duration": 0.1681,
      "velocity": 114,
      "chip": "ym2612"
    },
    {
      "channel": 4,
      "note": 50,
      "start": 40.5129,
      "duration": 0.1512,
      "velocity": 120,
      "chip": "ym2612"
    },
    {
      "channel": 5,
      "note": 50,
      "start": 40.5137,
      "duration": 0.1512,
      "velocity": 94,
      "chip": "ym2612"
    },
    {
      "channel": 2,
      "note": 62,
      "start": 40.658,
      "duration": 0.252,
      "velocity": 127,
      "chip": "ym2612"
    },
    {
      "channel": 4,
      "note": 38,
      "start": 40.6646,
      "duration": 0.1512,
      "velocity": 120,
      "chip": "ym2612"
    },
    {
      "channel": 5,
      "note": 50,
      "start": 40.6653,
      "duration": 0.1512,
      "velocity": 93,
      "chip": "ym2612"
    },
    {
      "channel": 3,
      "note": 29,
      "start": 40.8097,
      "duration": 0.152,
      "velocity": 114,
      "chip": "ym2612"
    },
    {
      "channel": 4,
      "note": 38,
      "start": 40.8163,
      "duration": 0.1512,
      "velocity": 120,
      "chip": "ym2612"
    },
    {
      "channel": 5,
      "note": 50,
      "start": 40.817,
      "duration": 0.152,
      "velocity": 92,
      "chip": "ym2612"
    },
    {
      "channel": 2,
      "note": 38,
      "start": 40.9614,
      "duration": 0.3025,
      "velocity": 118,
      "chip": "ym2612"
    },
    {
      "channel": 3,
      "note": 26,
      "start": 40.9622,
      "duration": 0.1675,
      "velocity": 114,
      "chip": "ym2612"
    },
    {
      "channel": 4,
      "note": 50,
      "start": 40.9687,
      "duration": 0.1679,
      "velocity": 114,
      "chip": "ym2612"
    },
    {
      "channel": 5,
      "note": 50,
      "start": 40.9695,
      "duration": 0.1506,
      "velocity": 93,
      "chip": "ym2612"
    },
    {
      "channel": 5,
      "note": 50,
      "start": 41.1205,
      "duration": 0.1517,
      "velocity": 94,
      "chip": "ym2612"
    },
    {
      "channel": 0,
      "note": 50,
      "start": 41.2632,
      "duration": 0.1511,
      "velocity": 127,
      "chip": "ym2612"
    },
    {
      "channel": 2,
      "note": 62,
      "start": 41.265,
      "duration": 0.2517,
      "velocity": 127,
      "chip": "ym2612"
    },
    {
      "channel": 3,
      "note": 26,
      "start": 41.2658,
      "duration": 0.1672,
      "velocity": 114,
      "chip": "ym2612"
    },
    {
      "channel": 4,
      "note": 50,
      "start": 41.272,
      "duration": 0.1505,
      "velocity": 120,
      "chip": "ym2612"
    },
    {
      "channel": 5,
      "note": 50,
      "start": 41.2727,
      "duration": 0.1513,
      "velocity": 95,
      "chip": "ym2612"
    },
    {
      "channel": 0,
      "note": 50,
      "start": 41.4148,
      "duration": 0.1511,
      "velocity": 127,
      "chip": "ym2612"
    },
    {
      "channel": 4,
      "note": 50,
      "start": 41.4238,
      "duration": 0.1677,
      "velocity": 114,
      "chip": "ym2612"
    },
    {
      "channel": 5,
      "note": 50,
      "start": 41.4245,
      "duration": 0.1503,
      "velocity": 96,
      "chip": "ym2612"
    },
    {
      "channel": 0,
      "note": 50,
      "start": 41.5665,
      "duration": 0.1511,
      "velocity": 127,
      "chip": "ym2612"
    },
    {
      "channel": 1,
      "note": 17,
      "start": 41.5673,
      "duration": 1.2127,
      "velocity": 122,
      "chip": "ym2612"
    },
    {
      "channel": 2,
      "note": 38,
      "start": 41.5686,
      "duration": 0.3022,
      "velocity": 118,
      "chip": "ym2612"
    },
    {
      "channel": 3,
      "note": 27,
      "start": 41.5694,
      "duration": 0.15,
      "velocity": 114,
      "chip": "ym2612"
    },
    {
      "channel": 5,
      "note": 50,
      "start": 41.5753,
      "duration": 0.0838,
      "velocity": 97,
      "chip": "ym2612"
    },
    {
      "channel": 5,
      "note": 50,
      "start": 41.6595,
      "duration": 0.0677,
      "velocity": 97,
      "chip": "ym2612"
    },
    {
      "channel": 0,
      "note": 50,
      "start": 41.7182,
      "duration": 0.1512,
      "velocity": 127,
      "chip": "ym2612"
    },
    {
      "channel": 3,
      "note": 27,
      "start": 41.7202,
      "duration": 0.1681,
      "velocity": 114,
      "chip": "ym2612"
    },
    {
      "channel": 4,
      "note": 50,
      "start": 41.727,
      "duration": 0.1677,
      "velocity": 105,
      "chip": "ym2612"
    },
    {
      "channel": 5,
      "note": 50,
      "start": 41.7277,
      "duration": 0.1503,
      "velocity": 98,
      "chip": "ym2612"
    },
    {
      "channel": 0,
      "note": 50,
      "start": 41.8702,
      "duration": 0.1508,
      "velocity": 127,
      "chip": "ym2612"
    },
    {
      "channel": 2,
      "note": 62,
      "start": 41.872,
      "duration": 0.2515,
      "velocity": 127,
      "chip": "ym2612"
    },
    {
      "channel": 5,
      "note": 50,
      "start": 41.8786,
      "duration": 0.1514,
      "velocity": 99,
      "chip": "ym2612"
    },
    {
      "channel": 0,
      "note": 38,
      "start": 42.0216,
      "duration": 0.3028,
      "velocity": 127,
      "chip": "ym2612"
    },
    {
      "channel": 3,
      "note": 29,
      "start": 42.0234,
      "duration": 0.168,
      "velocity": 114,
      "chip": "ym2612"
    },
    {
      "channel": 4,
      "note": 50,
      "start": 42.0297,
      "duration": 0.1512,
      "velocity": 120,
      "chip": "ym2612"
    },
    {
      "channel": 5,
      "note": 50,
      "start": 42.0305,
      "duration": 0.152,
      "velocity": 100,
      "chip": "ym2612"
    },
    {
      "channel": 2,
      "note": 38,
      "start": 42.1748,
      "duration": 0.3022,
      "velocity": 118,
      "chip": "ym2612"
    },
    {
      "channel": 4,
      "note": 50,
      "start": 42.1822,
      "duration": 0.1677,
      "velocity": 114,
      "chip": "ym2612"
    },
    {
      "channel": 5,
      "note": 50,
      "start": 42.1829,
      "duration": 0.1504,
      "velocity": 101,
      "chip": "ym2612"
    },
    {
      "channel": 0,
      "note": 38,
      "start": 42.3249,
      "duration": 1.3646,
      "velocity": 127,
      "chip": "ym2612"
    },
    {
      "channel": 3,
      "note": 26,
      "start": 42.3267,
      "duration": 0.1681,
      "velocity": 114,
      "chip": "ym2612"
    },
    {
      "channel": 5,
      "note": 50,
      "start": 42.3337,
      "duration": 0.1519,
      "velocity": 102,
      "chip": "ym2612"
    },
    {
      "channel": 2,
      "note": 62,
      "start": 42.4782,
      "duration": 0.252,
      "velocity": 127,
      "chip": "ym2612"
    },
    {
      "channel": 4,
      "note": 50,
      "start": 42.4854,
      "duration": 0.168,
      "velocity": 120,
      "chip": "ym2612"
    },
    {
      "channel": 5,
      "note": 50,
      "start": 42.4861,
      "duration": 0.1506,
      "velocity": 103,
      "chip": "ym2612"
    },
    {
      "channel": 3,
      "note": 27,
      "start": 42.6298,
      "duration": 0.1683,
      "velocity": 114,
      "chip": "ym2612"
    },
    {
      "channel": 5,
      "note": 50,
      "start": 42.6372,
      "duration": 0.1512,
      "velocity": 104,
      "chip": "ym2612"
    },
    {
      "channel": 1,
      "note": 17,
      "start": 42.7805,
      "duration": 0.4546,
      "velocity": 122,
      "chip": "ym2612"
    },
    {
      "channel": 2,
      "note": 38,
      "start": 42.7818,
      "duration": 0.302,
      "velocity": 118,
      "chip": "ym2612"
    },
    {
      "channel": 4,
      "note": 50,
      "start": 42.7881,
      "duration": 0.1512,
      "velocity": 120,
      "chip": "ym2612"
    },
    {
      "channel": 5,
      "note": 50,
      "start": 42.7889,
      "duration": 0.1512,
      "velocity": 105,
      "chip": "ym2612"
    },
    {
      "channel": 3,
      "note": 27,
      "start": 42.9332,
      "duration": 0.1683,
      "velocity": 114,
      "chip": "ym2612"
    },
    {
      "channel": 4,
      "note": 38,
      "start": 42.9398,
      "duration": 0.1512,
      "velocity": 120,
      "chip": "ym2612"
    },
    {
      "channel": 5,
      "note": 50,
      "start": 42.9405,
      "duration": 0.1512,
      "velocity": 106,
      "chip": "ym2612"
    },
    {
      "channel": 2,
      "note": 62,
      "start": 43.0849,
      "duration": 0.2522,
      "velocity": 127,
      "chip": "ym2612"
    },
    {
      "channel": 4,
      "note": 38,
      "start": 43.0915,
      "duration": 0.1512,
      "velocity": 120,
      "chip": "ym2612"
    },
    {
      "channel": 5,
      "note": 50,
      "start": 43.0922,
      "duration": 0.0835,
      "velocity": 107,
      "chip": "ym2612"
    },
    {
      "channel": 5,
      "note": 63,
      "start": 43.1763,
      "duration": 0.0672,
      "velocity": 107,
      "chip": "ym2612"
    },
    {
      "channel": 1,
      "note": 17,
      "start": 43.2355,
      "duration": 0.7582,
      "velocity": 122,
      "chip": "ym2612"
    },
    {
      "channel": 3,
      "note": 29,
      "start": 43.2371,
      "duration": 0.1517,
      "velocity": 114,
      "chip": "ym2612"
    },
    {
      "channel": 4,
      "note": 50,
      "start": 43.2432,
      "duration": 0.1511,
      "velocity": 120,
      "chip": "ym2612"
    },
    {
      "channel": 5,
      "note": 50,
      "start": 43.2439,
      "duration": 0.152,
      "velocity": 107,
      "chip": "ym2612"
    },
    {
      "channel": 2,
      "note": 38,
      "start": 43.3885,
      "duration": 0.3022,
      "velocity": 118,
      "chip": "ym2612"
    },
    {
      "channel": 3,
      "note": 26,
      "start": 43.3893,
      "duration": 0.1672,
      "velocity": 114,
      "chip": "ym2612"
    },
    {
      "channel": 4,
      "note": 50,
      "start": 43.3956,
      "duration": 0.1677,
      "velocity": 114,
      "chip": "ym2612"
    },
    {
      "channel": 5,
      "note": 50,
      "start": 43.3964,
      "duration": 0.1503,
      "velocity": 107,
      "chip": "ym2612"
    },
    {
      "channel": 5,
      "note": 50,
      "start": 43.5472,
      "duration": 0.1519,
      "velocity": 106,
      "chip": "ym2612"
    },
    {
      "channel": 0,
      "note": 50,
      "start": 43.6901,
      "duration": 0.1511,
      "velocity": 127,
      "chip": "ym2612"
    },
    {
      "channel": 2,
      "note": 62,
      "start": 43.6919,
      "duration": 0.2518,
      "velocity": 127,
      "chip": "ym2612"
    },
    {
      "channel": 3,
      "note": 26,
      "start": 43.6927,
      "duration": 0.1673,
      "velocity": 114,
      "chip": "ym2612"
    },
    {
      "channel": 4,
      "note": 50,
      "start": 43.6989,
      "duration": 0.1505,
      "velocity": 120,
      "chip": "ym2612"
    },
    {
      "channel": 5,
      "note": 50,
      "start": 43.6996,
      "duration": 0.1513,
      "velocity": 105,
      "chip": "ym2612"
    },
    {
      "channel": 0,
      "note": 50,
      "start": 43.8417,
      "duration": 0.1512,
      "velocity": 127,
      "chip": "ym2612"
    },
    {
      "channel": 4,
      "note": 50,
      "start": 43.8506,
      "duration": 0.1677,
      "velocity": 114,
      "chip": "ym2612"
    },
    {
      "channel": 5,
      "note": 50,
      "start": 43.8514,
      "duration": 0.1503,
      "velocity": 104,
      "chip": "ym2612"
    },
    {
      "channel": 0,
      "note": 50,
      "start": 43.9934,
      "duration": 0.1511,
      "velocity": 127,
      "chip": "ym2612"
    },
    {
      "channel": 1,
      "note": 17,
      "start": 43.9941,
      "duration": 1.2127,
      "velocity": 122,
      "chip": "ym2612"
    },
    {
      "channel": 2,
      "note": 38,
      "start": 43.9955,
      "duration": 0.302,
      "velocity": 118,
      "chip": "ym2612"
    },
    {
      "channel": 3,
      "note": 27,
      "start": 43.9963,
      "duration": 0.15,
      "velocity": 114,
      "chip": "ym2612"
    },
    {
      "channel": 5,
      "note": 50,
      "start": 44.0022,
      "duration": 0.0838,
      "velocity": 103,
      "chip": "ym2612"
    },
    {
      "channel": 5,
      "note": 50,
      "start": 44.0867,
      "duration": 0.0677,
      "velocity": 103,
      "chip": "ym2612"
    },
    {
      "channel": 0,
      "note": 50,
      "start": 44.1451,
      "duration": 0.1512,
      "velocity": 127,
      "chip": "ym2612"
    },
    {
      "channel": 3,
      "note": 27,
      "start": 44.1469,
      "duration": 0.168,
      "velocity": 114,
      "chip": "ym2612"
    },
    {
      "channel": 4,
      "note": 50,
      "start": 44.1541,
      "duration": 0.1674,
      "velocity": 120,
      "chip": "ym2612"
    },
    {
      "channel": 5,
      "note": 50,
      "start": 44.1549,
      "duration": 0.1501,
      "velocity": 102,
      "chip": "ym2612"
    },
    {
      "channel": 0,
      "note": 50,
      "start": 44.2968,
      "duration": 0.1511,
      "velocity": 127,
      "chip": "ym2612"
    },
    {
      "channel": 2,
      "note": 62,
      "start": 44.2986,
      "duration": 0.2517,
      "velocity": 127,
      "chip": "ym2612"
    },
    {
      "channel": 5,
      "note": 50,
      "start": 44.3055,
      "duration": 0.1514,
      "velocity": 101,
      "chip": "ym2612"
    },
    {
      "channel": 0,
      "note": 38,
      "start": 44.4485,
      "duration": 0.3028,
      "velocity": 127,
      "chip": "ym2612"
    },
    {
      "channel": 3,
      "note": 29,
      "start": 44.4502,
      "duration": 0.1681,
      "velocity": 114,
      "chip": "ym2612"
    },
    {
      "channel": 4,
      "note": 50,
      "start": 44.4566,
      "duration": 0.1512,
      "velocity": 120,
      "chip": "ym2612"
    },
    {
      "channel": 5,
      "note": 50,
      "start": 44.4574,
      "duration": 0.1512,
      "velocity": 100,
      "chip": "ym2612"
    },
    {
      "channel": 2,
      "note": 38,
      "start": 44.6017,
      "duration": 0.3025,
      "velocity": 118,
      "chip": "ym2612"
    },
    {
      "channel": 4,
      "note": 50,
      "start": 44.6083,
      "duration": 0.1683,
      "velocity": 105,
      "chip": "ym2612"
    },
    {
      "channel": 5,
      "note": 50,
      "start": 44.609,
      "duration": 0.151,
      "velocity": 99,
      "chip": "ym2612"
    },
    {
      "channel": 0,
      "note": 38,
      "start": 44.7518,
      "duration": 1.3646,
      "velocity": 127,
      "chip": "ym2612"
    },
    {
      "channel": 3,
      "note": 26,
      "start": 44.7538,
      "duration": 0.1681,
      "velocity": 114,
      "chip": "ym2612"
    },
    {
      "channel": 5,
      "note": 50,
      "start": 44.7605,
      "duration": 0.1514,
      "velocity": 98,
      "chip": "ym2612"
    },
    {
      "channel": 2,
      "note": 62,
      "start": 44.9054,
      "duration": 0.2517,
      "velocity": 127,
      "chip": "ym2612"
    },
    {
      "channel": 4,
      "note": 50,
      "start": 44.9116,
      "duration": 0.1683,
      "velocity": 120,
      "chip": "ym2612"
    },
    {
      "channel": 5,
      "note": 50,
      "start": 44.9124,
      "duration": 0.151,
      "velocity": 97,
      "chip": "ym2612"
    },
    {
      "channel": 3,
      "note": 27,
      "start": 45.0567,
      "duration": 0.1684,
      "velocity": 114,
      "chip": "ym2612"
    },
    {
      "channel": 5,
      "note": 50,
      "start": 45.0639,
      "duration": 0.1514,
      "velocity": 96,
      "chip": "ym2612"
    },
    {
      "channel": 1,
      "note": 17,
      "start": 45.2074,
      "duration": 0.1512,
      "velocity": 122,
      "chip": "ym2612"
    },
    {
      "channel": 2,
      "note": 38,
      "start": 45.2087,
      "duration": 0.302,
      "velocity": 118,
      "chip": "ym2612"
    },
    {
      "channel": 4,
      "note": 38,
      "start": 45.215,
      "duration": 0.1512,
      "velocity": 120,
      "chip": "ym2612"
    },
    {
      "channel": 5,
      "note": 50,
      "start": 45.2158,
      "duration": 0.1512,
      "velocity": 95,
      "chip": "ym2612"
    },
    {
      "channel": 1,
      "note": 17,
      "start": 45.3591,
      "duration": 1.0617,
      "velocity": 122,
      "chip": "ym2612"
    },
    {
      "channel": 3,
      "note": 27,
      "start": 45.3604,
      "duration": 0.1681,
      "velocity": 114,
      "chip": "ym2612"
    },
    {
      "channel": 4,
      "note": 50,
      "start": 45.3667,
      "duration": 0.1511,
      "velocity": 120,
      "chip": "ym2612"
    },
    {
      "channel": 5,
      "note": 50,
      "start": 45.3674,
      "duration": 0.1512,
      "velocity": 94,
      "chip": "ym2612"
    },
    {
      "channel": 2,
      "note": 62,
      "start": 45.5118,
      "duration": 0.252,
      "velocity": 127,
      "chip": "ym2612"
    },
    {
      "channel": 4,
      "note": 38,
      "start": 45.5184,
      "duration": 0.1513,
      "velocity": 120,
      "chip": "ym2612"
    },
    {
      "channel": 5,
      "note": 50,
      "start": 45.5191,
      "duration": 0.1514,
      "velocity": 93,
      "chip": "ym2612"
    },
    {
      "channel": 3,
      "note": 29,
      "start": 45.6634,
      "duration": 0.152,
      "velocity": 114,
      "chip": "ym2612"
    },
    {
      "channel": 4,
      "note": 38,
      "start": 45.6704,
      "duration": 0.1509,
      "velocity": 120,
      "chip": "ym2612"
    },
    {
      "channel": 5,
      "note": 50,
      "start": 45.6711,
      "duration": 0.1517,
      "velocity": 92,
      "chip": "ym2612"
    },
    {
      "channel": 2,
      "note": 38,
      "start": 45.8152,
      "duration": 0.3024,
      "velocity": 118,
      "chip": "ym2612"
    },
    {
      "channel": 3,
      "note": 26,
      "start": 45.816,
      "duration": 0.1675,
      "velocity": 114,
      "chip": "ym2612"
    },
    {
      "channel": 4,
      "note": 50,
      "start": 45.8225,
      "duration": 0.1677,
      "velocity": 114,
      "chip": "ym2612"
    },
    {
      "channel": 5,
      "note": 50,
      "start": 45.8233,
      "duration": 0.1503,
      "velocity": 93,
      "chip": "ym2612"
    },
    {
      "channel": 5,
      "note": 50,
      "start": 45.974,
      "duration": 0.152,
      "velocity": 94,
      "chip": "ym2612"
    },
    {
      "channel": 0,
      "note": 50,
      "start": 46.117,
      "duration": 0.1511,
      "velocity": 127,
      "chip": "ym2612"
    },
    {
      "channel": 2,
      "note": 62,
      "start": 46.1188,
      "duration": 0.252,
      "velocity": 127,
      "chip": "ym2612"
    },
    {
      "channel": 3,
      "note": 26,
      "start": 46.1197,
      "duration": 0.1674,
      "velocity": 114,
      "chip": "ym2612"
    },
    {
      "channel": 4,
      "note": 50,
      "start": 46.1258,
      "duration": 0.1505,
      "velocity": 120,
      "chip": "ym2612"
    },
    {
      "channel": 5,
      "note": 50,
      "start": 46.1265,
      "duration": 0.1513,
      "velocity": 95,
      "chip": "ym2612"
    },
    {
      "channel": 0,
      "note": 50,
      "start": 46.2686,
      "duration": 0.1514,
      "velocity": 127,
      "chip": "ym2612"
    },
    {
      "channel": 4,
      "note": 50,
      "start": 46.2776,
      "duration": 0.1677,
      "velocity": 114,
      "chip": "ym2612"
    },
    {
      "channel": 5,
      "note": 50,
      "start": 46.2783,
      "duration": 0.1503,
      "velocity": 96,
      "chip": "ym2612"
    },
    {
      "channel": 0,
      "note": 50,
      "start": 46.4206,
      "duration": 0.1508,
      "velocity": 127,
      "chip": "ym2612"
    },
    {
      "channel": 1,
      "note": 17,
      "start": 46.4213,
      "duration": 1.2125,
      "velocity": 122,
      "chip": "ym2612"
    },
    {
      "channel": 2,
      "note": 38,
      "start": 46.4227,
      "duration": 0.3017,
      "velocity": 118,
      "chip": "ym2612"
    },
    {
      "channel": 3,
      "note": 27,
      "start": 46.4235,
      "duration": 0.1498,
      "velocity": 114,
      "chip": "ym2612"
    },
    {
      "channel": 5,
      "note": 50,
      "start": 46.4291,
      "duration": 0.0837,
      "velocity": 97,
      "chip": "ym2612"
    },
    {
      "channel": 5,
      "note": 50,
      "start": 46.5134,
      "duration": 0.0677,
      "velocity": 97,
      "chip": "ym2612"
    },
    {
      "channel": 0,
      "note": 50,
      "start": 46.572,
      "duration": 0.1511,
      "velocity": 127,
      "chip": "ym2612"
    },
    {
      "channel": 3,
      "note": 27,
      "start": 46.5738,
      "duration": 0.1681,
      "velocity": 114,
      "chip": "ym2612"
    },
    {
      "channel": 4,
      "note": 50,
      "start": 46.5808,
      "duration": 0.1677,
      "velocity": 105,
      "chip": "ym2612"
    },
    {
      "channel": 5,
      "note": 50,
      "start": 46.5816,
      "duration": 0.1503,
      "velocity": 98,
      "chip": "ym2612"
    },
    {
      "channel": 0,
      "note": 50,
      "start": 46.7237,
      "duration": 0.1511,
      "velocity": 127,
      "chip": "ym2612"
    },
    {
      "channel": 2,
      "note": 62,
      "start": 46.7255,
      "duration": 0.2517,
      "velocity": 127,
      "chip": "ym2612"
    },
    {
      "channel": 5,
      "note": 50,
      "start": 46.7323,
      "duration": 0.1515,
      "velocity": 99,
      "chip": "ym2612"
    },
    {
      "channel": 0,
      "note": 38,
      "start": 46.8754,
      "duration": 0.3028,
      "velocity": 127,
      "chip": "ym2612"
    },
    {
      "channel": 3,
      "note": 29,
      "start": 46.8771,
      "duration": 0.1681,
      "velocity": 114,
      "chip": "ym2612"
    },
    {
      "channel": 4,
      "note": 50,
      "start": 46.8835,
      "duration": 0.1512,
      "velocity": 120,
      "chip": "ym2612"
    },
    {
      "channel": 5,
      "note": 50,
      "start": 46.8842,
      "duration": 0.1522,
      "velocity": 100,
      "chip": "ym2612"
    },
    {
      "channel": 2,
      "note": 38,
      "start": 47.0286,
      "duration": 0.3022,
      "velocity": 118,
      "chip": "ym2612"
    },
    {
      "channel": 4,
      "note": 50,
      "start": 47.0359,
      "duration": 0.1679,
      "velocity": 114,
      "chip": "ym2612"
    },
    {
      "channel": 5,
      "note": 50,
      "start": 47.037,
      "duration": 0.1503,
      "velocity": 101,
      "chip": "ym2612"
    },
    {
      "channel": 0,
      "note": 38,
      "start": 47.1788,
      "duration": 1.3646,
      "velocity": 127,
      "chip": "ym2612"
    },
    {
      "channel": 3,
      "note": 26,
      "start": 47.1805,
      "duration": 0.1681,
      "velocity": 114,
      "chip": "ym2612"
    },
    {
      "channel": 5,
      "note": 50,
      "start": 47.1878,
      "duration": 0.1517,
      "velocity": 102,
      "chip": "ym2612"
    },
    {
      "channel": 2,
      "note": 62,
      "start": 47.332,
      "duration": 0.252,
      "velocity": 127,
      "chip": "ym2612"
    },
    {
      "channel": 4,
      "note": 50,
      "start": 47.3392,
      "duration": 0.1677,
      "velocity": 120,
      "chip": "ym2612"
    },
    {
      "channel": 5,
      "note": 50,
      "start": 47.34,
      "duration": 0.1503,
      "velocity": 103,
      "chip": "ym2612"
    },
    {
      "channel": 3,
      "note": 27,
      "start": 47.4836,
      "duration": 0.1684,
      "velocity": 114,
      "chip": "ym2612"
    },
    {
      "channel": 5,
      "note": 50,
      "start": 47.4908,
      "duration": 0.1514,
      "velocity": 104,
      "chip": "ym2612"
    },
    {
      "channel": 1,
      "note": 17,
      "start": 47.6343,
      "duration": 0.4545,
      "velocity": 122,
      "chip": "ym2612"
    },
    {
      "channel": 2,
      "note": 38,
      "start": 47.6356,
      "duration": 0.3022,
      "velocity": 118,
      "chip": "ym2612"
    },
    {
      "channel": 4,
      "note": 50,
      "start": 47.6419,
      "duration": 0.1512,
      "velocity": 120,
      "chip": "ym2612"
    },
    {
      "channel": 5,
      "note": 50,
      "start": 47.6427,
      "duration": 0.1512,
      "velocity": 105,
      "chip": "ym2612"
    },
    {
      "channel": 3,
      "note": 27,
      "start": 47.7872,
      "duration": 0.1683,
      "velocity": 114,
      "chip": "ym2612"
    },
    {
      "channel": 4,
      "note": 38,
      "start": 47.7936,
      "duration": 0.1512,
      "velocity": 120,
      "chip": "ym2612"
    },
    {
      "channel": 5,
      "note": 50,
      "start": 47.7943,
      "duration": 0.1512,
      "velocity": 106,
      "chip": "ym2612"
    },
    {
      "channel": 2,
      "note": 62,
      "start": 47.939,
      "duration": 0.2517,
      "velocity": 127,
      "chip": "ym2612"
    },
    {
      "channel": 4,
      "note": 38,
      "start": 47.9453,
      "duration": 0.1512,
      "velocity": 120,
      "chip": "ym2612"
    },
    {
      "channel": 5,
      "note": 50,
      "start": 47.9461,
      "duration": 0.0835,
      "velocity": 107,
      "chip": "ym2612"
    },
    {
      "channel": 5,
      "note": 63,
      "start": 48.03,
      "duration": 0.0672,
      "velocity": 107,
      "chip": "ym2612"
    },
    {
      "channel": 1,
      "note": 17,
      "start": 48.0893,
      "duration": 0.7581,
      "velocity": 122,
      "chip": "ym2612"
    },
    {
      "channel": 3,
      "note": 29,
      "start": 48.0906,
      "duration": 0.1517,
      "velocity": 114,
      "chip": "ym2612"
    },
    {
      "channel": 4,
      "note": 50,
      "start": 48.0969,
      "duration": 0.1512,
      "velocity": 120,
      "chip": "ym2612"
    },
    {
      "channel": 5,
      "note": 50,
      "start": 48.0977,
      "duration": 0.152,
      "velocity": 107,
      "chip": "ym2612"
    },
    {
      "channel": 2,
      "note": 38,
      "start": 48.242,
      "duration": 0.3025,
      "velocity": 118,
      "chip": "ym2612"
    },
    {
      "channel": 3,
      "note": 26,
      "start": 48.2429,
      "duration": 0.1675,
      "velocity": 114,
      "chip": "ym2612"
    },
    {
      "channel": 4,
      "note": 50,
      "start": 48.2494,
      "duration": 0.1677,
      "velocity": 114,
      "chip": "ym2612"
    },
    {
      "channel": 5,
      "note": 50,
      "start": 48.2501,
      "duration": 0.1504,
      "velocity": 107,
      "chip": "ym2612"
    },
    {
      "channel": 5,
      "note": 50,
      "start": 48.401,
      "duration": 0.1521,
      "velocity": 106,
      "chip": "ym2612"
    },
    {
      "channel": 0,
      "note": 50,
      "start": 48.5438,
      "duration": 0.1511,
      "velocity": 127,
      "chip": "ym2612"
    },
    {
      "channel": 2,
      "note": 62,
      "start": 48.5457,
      "duration": 0.2517,
      "velocity": 127,
      "chip": "ym2612"
    },
    {
      "channel": 3,
      "note": 26,
      "start": 48.5464,
      "duration": 0.1673,
      "velocity": 114,
      "chip": "ym2612"
    },
    {
      "channel": 4,
      "note": 50,
      "start": 48.5527,
      "duration": 0.1507,
      "velocity": 120,
      "chip": "ym2612"
    },
    {
      "channel": 5,
      "note": 50,
      "start": 48.5536,
      "duration": 0.1513,
      "velocity": 105,
      "chip": "ym2612"
    },
    {
      "channel": 0,
      "note": 50,
      "start": 48.6956,
      "duration": 0.1511,
      "velocity": 127,
      "chip": "ym2612"
    },
    {
      "channel": 4,
      "note": 50,
      "start": 48.7046,
      "duration": 0.1675,
      "velocity": 114,
      "chip": "ym2612"
    },
    {
      "channel": 5,
      "note": 50,
      "start": 48.7054,
      "duration": 0.1501,
      "velocity": 104,
      "chip": "ym2612"
    },
    {
      "channel": 0,
      "note": 50,
      "start": 48.8472,
      "duration": 0.1511,
      "velocity": 127,
      "chip": "ym2612"
    },
    {
      "channel": 1,
      "note": 17,
      "start": 48.848,
      "duration": 1.2127,
      "velocity": 122,
      "chip": "ym2612"
    },
    {
      "channel": 2,
      "note": 38,
      "start": 48.8493,
      "duration": 0.302,
      "velocity": 118,
      "chip": "ym2612"
    },
    {
      "channel": 3,
      "note": 27,
      "start": 48.8501,
      "duration": 0.1501,
      "velocity": 114,
      "chip": "ym2612"
    },
    {
      "channel": 5,
      "note": 50,
      "start": 48.856,
      "duration": 0.0838,
      "velocity": 103,
      "chip": "ym2612"
    },
    {
      "channel": 5,
      "note": 50,
      "start": 48.9403,
      "duration": 0.0677,
      "velocity": 103,
      "chip": "ym2612"
    },
    {
      "channel": 0,
      "note": 50,
      "start": 48.9989,
      "duration": 0.1511,
      "velocity": 127,
      "chip": "ym2612"
    },
    {
      "channel": 3,
      "note": 27,
      "start": 49.0006,
      "duration": 0.1681,
      "velocity": 114,
      "chip": "ym2612"
    },
    {
      "channel": 4,
      "note": 50,
      "start": 49.0077,
      "duration": 0.1677,
      "velocity": 120,
      "chip": "ym2612"
    },
    {
      "channel": 5,
      "note": 50,
      "start": 49.0084,
      "duration": 0.1504,
      "velocity": 102,
      "chip": "ym2612"
    },
    {
      "channel": 0,
      "note": 50,
      "start": 49.1506,
      "duration": 0.1512,
      "velocity": 127,
      "chip": "ym2612"
    },
    {
      "channel": 2,
      "note": 62,
      "start": 49.1524,
      "duration": 0.252,
      "velocity": 127,
      "chip": "ym2612"
    },
    {
      "channel": 5,
      "note": 50,
      "start": 49.1592,
      "duration": 0.1515,
      "velocity": 101,
      "chip": "ym2612"
    },
    {
      "channel": 0,
      "note": 38,
      "start": 49.3023,
      "duration": 0.3028,
      "velocity": 127,
      "chip": "ym2612"
    },
    {
      "channel": 3,
      "note": 29,
      "start": 49.3043,
      "duration": 0.1679,
      "velocity": 114,
      "chip": "ym2612"
    },
    {
      "channel": 4,
      "note": 50,
      "start": 49.3104,
      "duration": 0.1512,
      "velocity": 120,
      "chip": "ym2612"
    },
    {
      "channel": 5,
      "note": 50,
      "start": 49.3111,
      "duration": 0.1512,
      "velocity": 100,
      "chip": "ym2612"
    },
    {
      "channel": 2,
      "note": 38,
      "start": 49.4557,
      "duration": 0.302,
      "velocity": 118,
      "chip": "ym2612"
    },
    {
      "channel": 4,
      "note": 50,
      "start": 49.4621,
      "duration": 0.1683,
      "velocity": 105,
      "chip": "ym2612"
    },
    {
      "channel": 5,
      "note": 50,
      "start": 49.4629,
      "duration": 0.151,
      "velocity": 99,
      "chip": "ym2612"
    },
    {
      "channel": 0,
      "note": 38,
      "start": 49.6056,
      "duration": 1.3647,
      "velocity": 127,
      "chip": "ym2612"
    },
    {
      "channel": 3,
      "note": 26,
      "start": 49.6074,
      "duration": 0.1681,
      "velocity": 114,
      "chip": "ym2612"
    },
    {
      "channel": 5,
      "note": 50,
      "start": 49.6143,
      "duration": 0.1514,
      "velocity": 98,
      "chip": "ym2612"
    },
    {
      "channel": 2,
      "note": 62,
      "start": 49.7589,
      "duration": 0.252,
      "velocity": 127,
      "chip": "ym2612"
    },
    {
      "channel": 4,
      "note": 50,
      "start": 49.7655,
      "duration": 0.1683,
      "velocity": 120,
      "chip": "ym2612"
    },
    {
      "channel": 5,
      "note": 50,
      "start": 49.7662,
      "duration": 0.151,
      "velocity": 97,
      "chip": "ym2612"
    },
    {
      "channel": 3,
      "note": 27,
      "start": 49.9105,
      "duration": 0.1683,
      "velocity": 114,
      "chip": "ym2612"
    },
    {
      "channel": 5,
      "note": 50,
      "start": 49.9176,
      "duration": 0.1515,
      "velocity": 96,
      "chip": "ym2612"
    },
    {
      "channel": 1,
      "note": 17,
      "start": 50.0612,
      "duration": 0.1511,
      "velocity": 122,
      "chip": "ym2612"
    },
    {
      "channel": 2,
      "note": 38,
      "start": 50.0625,
      "duration": 0.302,
      "velocity": 118,
      "chip": "ym2612"
    },
    {
      "channel": 4,
      "note": 38,
      "start": 50.0688,
      "duration": 0.1513,
      "velocity": 120,
      "chip": "ym2612"
    },
    {
      "channel": 5,
      "note": 50,
      "start": 50.0697,
      "duration": 0.1511,
      "velocity": 95,
      "chip": "ym2612"
    },
    {
      "channel": 1,
      "note": 17,
      "start": 50.2129,
      "duration": 1.0615,
      "velocity": 122,
      "chip": "ym2612"
    },
    {
      "channel": 3,
      "note": 27,
      "start": 50.2141,
      "duration": 0.1681,
      "velocity": 114,
      "chip": "ym2612"
    },
    {
      "channel": 4,
      "note": 50,
      "start": 50.2206,
      "duration": 0.1511,
      "velocity": 120,
      "chip": "ym2612"
    },
    {
      "channel": 5,
      "note": 50,
      "start": 50.2213,
      "duration": 0.1511,
      "velocity": 94,
      "chip": "ym2612"
    },
    {
      "channel": 2,
      "note": 62,
      "start": 50.3656,
      "duration": 0.252,
      "velocity": 127,
      "chip": "ym2612"
    },
    {
      "channel": 4,
      "note": 38,
      "start": 50.3722,
      "duration": 0.1512,
      "velocity": 120,
      "chip": "ym2612"
    },
    {
      "channel": 5,
      "note": 50,
      "start": 50.3729,
      "duration": 0.1512,
      "velocity": 93,
      "chip": "ym2612"
    },
    {
      "channel": 3,
      "note": 29,
      "start": 50.5172,
      "duration": 0.152,
      "velocity": 114,
      "chip": "ym2612"
    },
    {
      "channel": 4,
      "note": 38,
      "start": 50.5239,
      "duration": 0.1512,
      "velocity": 120,
      "chip": "ym2612"
    },
    {
      "channel": 5,
      "note": 50,
      "start": 50.5246,
      "duration": 0.1519,
      "velocity": 92,
      "chip": "ym2612"
    },
    {
      "channel": 2,
      "note": 38,
      "start": 50.669,
      "duration": 0.3026,
      "velocity": 118,
      "chip": "ym2612"
    },
    {
      "channel": 3,
      "note": 26,
      "start": 50.67,
      "duration": 0.1675,
      "velocity": 114,
      "chip": "ym2612"
    },
    {
      "channel": 4,
      "note": 50,
      "start": 50.6763,
      "duration": 0.1677,
      "velocity": 114,
      "chip": "ym2612"
    },
    {
      "channel": 5,
      "note": 50,
      "start": 50.677,
      "duration": 0.1503,
      "velocity": 93,
      "chip": "ym2612"
    },
    {
      "channel": 5,
      "note": 50,
      "start": 50.8279,
      "duration": 0.1519,
      "velocity": 94,
      "chip": "ym2612"
    },
    {
      "channel": 0,
      "note": 50,
      "start": 50.9709,
      "duration": 0.151,
      "velocity": 127,
      "chip": "ym2612"
    },
    {
      "channel": 2,
      "note": 62,
      "start": 50.9727,
      "duration": 0.2517,
      "velocity": 127,
      "chip": "ym2612"
    },
    {
      "channel": 3,
      "note": 26,
      "start": 50.9735,
      "duration": 0.1671,
      "velocity": 114,
      "chip": "ym2612"
    },
    {
      "channel": 4,
      "note": 50,
      "start": 50.9795,
      "duration": 0.1505,
      "velocity": 120,
      "chip": "ym2612"
    },
    {
      "channel": 5,
      "note": 50,
      "start": 50.9803,
      "duration": 0.1513,
      "velocity": 95,
      "chip": "ym2612"
    },
    {
      "channel": 0,
      "note": 50,
      "start": 51.1224,
      "duration": 0.1511,
      "velocity": 127,
      "chip": "ym2612"
    },
    {
      "channel": 4,
      "note": 50,
      "start": 51.1314,
      "duration": 0.1677,
      "velocity": 114,
      "chip": "ym2612"
    },
    {
      "channel": 5,
      "note": 50,
      "start": 51.1321,
      "duration": 0.1503,
      "velocity": 96,
      "chip": "ym2612"
    },
    {
      "channel": 0,
      "note": 50,
      "start": 51.2741,
      "duration": 0.1512,
      "velocity": 127,
      "chip": "ym2612"
    },
    {
      "channel": 1,
      "note": 17,
      "start": 51.2749,
      "duration": 1.2127,
      "velocity": 122,
      "chip": "ym2612"
    },
    {
      "channel": 2,
      "note": 38,
      "start": 51.2762,
      "duration": 0.302,
      "velocity": 118,
      "chip": "ym2612"
    },
    {
      "channel": 3,
      "note": 27,
      "start": 51.277,
      "duration": 0.15,
      "velocity": 114,
      "chip": "ym2612"
    },
    {
      "channel": 5,
      "note": 50,
      "start": 51.2829,
      "duration": 0.0838,
      "velocity": 97,
      "chip": "ym2612"
    },
    {
      "channel": 5,
      "note": 50,
      "start": 51.3672,
      "duration": 0.0677,
      "velocity": 97,
      "chip": "ym2612"
    },
    {
      "channel": 0,
      "note": 50,
      "start": 51.4258,
      "duration": 0.1511,
      "velocity": 127,
      "chip": "ym2612"
    },
    {
      "channel": 3,
      "note": 27,
      "start": 51.4276,
      "duration": 0.1681,
      "velocity": 114,
      "chip": "ym2612"
    },
    {
      "channel": 4,
      "note": 50,
      "start": 51.4346,
      "duration": 0.1677,
      "velocity": 105,
      "chip": "ym2612"
    },
    {
      "channel": 5,
      "note": 50,
      "start": 51.4353,
      "duration": 0.1503,
      "velocity": 98,
      "chip": "ym2612"
    },
    {
      "channel": 0,
      "note": 50,
      "start": 51.5775,
      "duration": 0.1511,
      "velocity": 127,
      "chip": "ym2612"
    },
    {
      "channel": 2,
      "note": 62,
      "start": 51.5793,
      "duration": 0.2517,
      "velocity": 127,
      "chip": "ym2612"
    },
    {
      "channel": 5,
      "note": 50,
      "start": 51.5861,
      "duration": 0.1515,
      "velocity": 99,
      "chip": "ym2612"
    },
    {
      "channel": 0,
      "note": 38,
      "start": 51.7291,
      "duration": 0.3028,
      "velocity": 127,
      "chip": "ym2612"
    },
    {
      "channel": 3,
      "note": 29,
      "start": 51.7309,
      "duration": 0.1681,
      "velocity": 114,
      "chip": "ym2612"
    },
    {
      "channel": 4,
      "note": 50,
      "start": 51.7373,
      "duration": 0.1511,
      "velocity": 120,
      "chip": "ym2612"
    },
    {
      "channel": 5,
      "note": 50,
      "start": 51.738,
      "duration": 0.152,
      "velocity": 100,
      "chip": "ym2612"
    },
    {
      "channel": 2,
      "note": 38,
      "start": 51.8824,
      "duration": 0.3022,
      "velocity": 118,
      "chip": "ym2612"
    },
    {
      "channel": 4,
      "note": 50,
      "start": 51.8898,
      "duration": 0.1677,
      "velocity": 114,
      "chip": "ym2612"
    },
    {
      "channel": 5,
      "note": 50,
      "start": 51.8905,
      "duration": 0.1503,
      "velocity": 101,
      "chip": "ym2612"
    },
    {
      "channel": 0,
      "note": 38,
      "start": 52.0325,
      "duration": 1.3646,
      "velocity": 127,
      "chip": "ym2612"
    },
    {
      "channel": 3,
      "note": 26,
      "start": 52.0343,
      "duration": 0.1681,
      "velocity": 114,
      "chip": "ym2612"
    },
    {
      "channel": 5,
      "note": 50,
      "start": 52.0413,
      "duration": 0.152,
      "velocity": 102,
      "chip": "ym2612"
    },
    {
      "channel": 2,
      "note": 62,
      "start": 52.1858,
      "duration": 0.2523,
      "velocity": 127,
      "chip": "ym2612"
    },
    {
      "channel": 4,
      "note": 50,
      "start": 52.193,
      "duration": 0.1677,
      "velocity": 120,
      "chip": "ym2612"
    },
    {
      "channel": 5,
      "note": 50,
      "start": 52.1937,
      "duration": 0.1504,
      "velocity": 103,
      "chip": "ym2612"
    },
    {
      "channel": 3,
      "note": 27,
      "start": 52.3377,
      "duration": 0.1681,
      "velocity": 114,
      "chip": "ym2612"
    },
    {
      "channel": 5,
      "note": 50,
      "start": 52.3445,
      "duration": 0.1515,
      "velocity": 104,
      "chip": "ym2612"
    },
    {
      "channel": 1,
      "note": 17,
      "start": 52.4881,
      "duration": 0.4545,
      "velocity": 122,
      "chip": "ym2612"
    },
    {
      "channel": 2,
      "note": 38,
      "start": 52.4894,
      "duration": 0.3019,
      "velocity": 118,
      "chip": "ym2612"
    },
    {
      "channel": 4,
      "note": 50,
      "start": 52.4957,
      "duration": 0.1512,
      "velocity": 120,
      "chip": "ym2612"
    },
    {
      "channel": 5,
      "note": 50,
      "start": 52.4964,
      "duration": 0.1512,
      "velocity": 105,
      "chip": "ym2612"
    },
    {
      "channel": 3,
      "note": 27,
      "start": 52.6408,
      "duration": 0.1683,
      "velocity": 114,
      "chip": "ym2612"
    },
    {
      "channel": 4,
      "note": 38,
      "start": 52.6474,
      "duration": 0.1512,
      "velocity": 120,
      "chip": "ym2612"
    },
    {
      "channel": 5,
      "note": 50,
      "start": 52.6482,
      "duration": 0.1512,
      "velocity": 106,
      "chip": "ym2612"
    },
    {
      "channel": 2,
      "note": 62,
      "start": 52.7925,
      "duration": 0.252,
      "velocity": 127,
      "chip": "ym2612"
    },
    {
      "channel": 4,
      "note": 38,
      "start": 52.7991,
      "duration": 0.1511,
      "velocity": 120,
      "chip": "ym2612"
    },
    {
      "channel": 5,
      "note": 50,
      "start": 52.7998,
      "duration": 0.0835,
      "velocity": 107,
      "chip": "ym2612"
    },
    {
      "channel": 5,
      "note": 63,
      "start": 52.8839,
      "duration": 0.0672,
      "velocity": 107,
      "chip": "ym2612"
    },
    {
      "channel": 1,
      "note": 17,
      "start": 52.9431,
      "duration": 0.7581,
      "velocity": 122,
      "chip": "ym2612"
    },
    {
      "channel": 3,
      "note": 29,
      "start": 52.9444,
      "duration": 0.1517,
      "velocity": 114,
      "chip": "ym2612"
    },
    {
      "channel": 4,
      "note": 50,
      "start": 52.9508,
      "duration": 0.1511,
      "velocity": 120,
      "chip": "ym2612"
    },
    {
      "channel": 5,
      "note": 50,
      "start": 52.9515,
      "duration": 0.1522,
      "velocity": 107,
      "chip": "ym2612"
    },
    {
      "channel": 2,
      "note": 38,
      "start": 53.0959,
      "duration": 0.3025,
      "velocity": 118,
      "chip": "ym2612"
    },
    {
      "channel": 3,
      "note": 26,
      "start": 53.0966,
      "duration": 0.1675,
      "velocity": 114,
      "chip": "ym2612"
    },
    {
      "channel": 4,
      "note": 50,
      "start": 53.1034,
      "duration": 0.1674,
      "velocity": 114,
      "chip": "ym2612"
    },
    {
      "channel": 5,
      "note": 50,
      "start": 53.1042,
      "duration": 0.1501,
      "velocity": 107,
      "chip": "ym2612"
    },
    {
      "channel": 5,
      "note": 50,
      "start": 53.2548,
      "duration": 0.1519,
      "velocity": 106,
      "chip": "ym2612"
    },
    {
      "channel": 0,
      "note": 50,
      "start": 53.3976,
      "duration": 0.1512,
      "velocity": 127,
      "chip": "ym2612"
    },
    {
      "channel": 2,
      "note": 62,
      "start": 53.3995,
      "duration": 0.2517,
      "velocity": 127,
      "chip": "ym2612"
    },
    {
      "channel": 3,
      "note": 26,
      "start": 53.4002,
      "duration": 0.1673,
      "velocity": 114,
      "chip": "ym2612"
    },
    {
      "channel": 4,
      "note": 50,
      "start": 53.4064,
      "duration": 0.1505,
      "velocity": 120,
      "chip": "ym2612"
    },
    {
      "channel": 5,
      "note": 50,
      "start": 53.4072,
      "duration": 0.1513,
      "velocity": 105,
      "chip": "ym2612"
    },
    {
      "channel": 0,
      "note": 50,
      "start": 53.5493,
      "duration": 0.1512,
      "velocity": 127,
      "chip": "ym2612"
    },
    {
      "channel": 4,
      "note": 50,
      "start": 53.5583,
      "duration": 0.1677,
      "velocity": 114,
      "chip": "ym2612"
    },
    {
      "channel": 5,
      "note": 50,
      "start": 53.559,
      "duration": 0.1504,
      "velocity": 104,
      "chip": "ym2612"
    },
    {
      "channel": 0,
      "note": 50,
      "start": 53.701,
      "duration": 0.1511,
      "velocity": 127,
      "chip": "ym2612"
    },
    {
      "channel": 1,
      "note": 17,
      "start": 53.7018,
      "duration": 1.2127,
      "velocity": 122,
      "chip": "ym2612"
    },
    {
      "channel": 2,
      "note": 38,
      "start": 53.7034,
      "duration": 0.3017,
      "velocity": 118,
      "chip": "ym2612"
    },
    {
      "channel": 3,
      "note": 27,
      "start": 53.7041,
      "duration": 0.1501,
      "velocity": 114,
      "chip": "ym2612"
    },
    {
      "channel": 5,
      "note": 50,
      "start": 53.7098,
      "duration": 0.0838,
      "velocity": 103,
      "chip": "ym2612"
    },
    {
      "channel": 5,
      "note": 50,
      "start": 53.7941,
      "duration": 0.0676,
      "velocity": 103,
      "chip": "ym2612"
    },
    {
      "channel": 0,
      "note": 50,
      "start": 53.8527,
      "duration": 0.1511,
      "velocity": 127,
      "chip": "ym2612"
    },
    {
      "channel": 3,
      "note": 27,
      "start": 53.8547,
      "duration": 0.1678,
      "velocity": 114,
      "chip": "ym2612"
    },
    {
      "channel": 4,
      "note": 50,
      "start": 53.8615,
      "duration": 0.1676,
      "velocity": 120,
      "chip": "ym2612"
    },
    {
      "channel": 5,
      "note": 50,
      "start": 53.8622,
      "duration": 0.1503,
      "velocity": 102,
      "chip": "ym2612"
    },
    {
      "channel": 0,
      "note": 50,
      "start": 54.0044,
      "duration": 0.1511,
      "velocity": 127,
      "chip": "ym2612"
    },
    {
      "channel": 2,
      "note": 62,
      "start": 54.0062,
      "duration": 0.2518,
      "velocity": 127,
      "chip": "ym2612"
    },
    {
      "channel": 5,
      "note": 50,
      "start": 54.013,
      "duration": 0.1514,
      "velocity": 101,
      "chip": "ym2612"
    },
    {
      "channel": 0,
      "note": 38,
      "start": 54.1561,
      "duration": 0.3028,
      "velocity": 127,
      "chip": "ym2612"
    },
    {
      "channel": 3,
      "note": 29,
      "start": 54.1578,
      "duration": 0.1681,
      "velocity": 114,
      "chip": "ym2612"
    },
    {
      "channel": 4,
      "note": 50,
      "start": 54.1642,
      "duration": 0.1512,
      "velocity": 120,
      "chip": "ym2612"
    },
    {
      "channel": 5,
      "note": 50,
      "start": 54.1649,
      "duration": 0.1512,
      "velocity": 100,
      "chip": "ym2612"
    },
    {
      "channel": 2,
      "note": 38,
      "start": 54.3093,
      "duration": 0.3022,
      "velocity": 118,
      "chip": "ym2612"
    },
    {
      "channel": 4,
      "note": 50,
      "start": 54.3159,
      "duration": 0.1683,
      "velocity": 105,
      "chip": "ym2612"
    },
    {
      "channel": 5,
      "note": 50,
      "start": 54.3167,
      "duration": 0.151,
      "velocity": 99,
      "chip": "ym2612"
    },
    {
      "channel": 0,
      "note": 38,
      "start": 54.4594,
      "duration": 1.3646,
      "velocity": 127,
      "chip": "ym2612"
    },
    {
      "channel": 3,
      "note": 26,
      "start": 54.4612,
      "duration": 0.1681,
      "velocity": 114,
      "chip": "ym2612"
    },
    {
      "channel": 5,
      "note": 50,
      "start": 54.4681,
      "duration": 0.1515,
      "velocity": 98,
      "chip": "ym2612"
    },
    {
      "channel": 2,
      "note": 62,
      "start": 54.6127,
      "duration": 0.252,
      "velocity": 127,
      "chip": "ym2612"
    },
    {
      "channel": 4,
      "note": 50,
      "start": 54.6193,
      "duration": 0.1683,
      "velocity": 120,
      "chip": "ym2612"
    },
    {
      "channel": 5,
      "note": 50,
      "start": 54.6202,
      "duration": 0.1507,
      "velocity": 97,
      "chip": "ym2612"
    },
    {
      "channel": 3,
      "note": 27,
      "start": 54.7643,
      "duration": 0.1683,
      "velocity": 114,
      "chip": "ym2612"
    },
    {
      "channel": 5,
      "note": 50,
      "start": 54.7714,
      "duration": 0.1514,
      "velocity": 96,
      "chip": "ym2612"
    },
    {
      "channel": 1,
      "note": 17,
      "start": 54.9149,
      "duration": 0.1512,
      "velocity": 122,
      "chip": "ym2612"
    },
    {
      "channel": 2,
      "note": 38,
      "start": 54.9163,
      "duration": 0.302,
      "velocity": 118,
      "chip": "ym2612"
    },
    {
      "channel": 4,
      "note": 38,
      "start": 54.9227,
      "duration": 0.1511,
      "velocity": 120,
      "chip": "ym2612"
    },
    {
      "channel": 5,
      "note": 50,
      "start": 54.9234,
      "duration": 0.1512,
      "velocity": 95,
      "chip": "ym2612"
    },
    {
      "channel": 1,
      "note": 17,
      "start": 55.0667,
      "duration": 1.0615,
      "velocity": 122,
      "chip": "ym2612"
    },
    {
      "channel": 3,
      "note": 27,
      "start": 55.0679,
      "duration": 0.1681,
      "velocity": 114,
      "chip": "ym2612"
    },
    {
      "channel": 4,
      "note": 50,
      "start": 55.0743,
      "duration": 0.1512,
      "velocity": 120,
      "chip": "ym2612"
    },
    {
      "channel": 5,
      "note": 50,
      "start": 55.0751,
      "duration": 0.1512,
      "velocity": 94,
      "chip": "ym2612"
    },
    {
      "channel": 2,
      "note": 62,
      "start": 55.2194,
      "duration": 0.2522,
      "velocity": 127,
      "chip": "ym2612"
    },
    {
      "channel": 4,
      "note": 38,
      "start": 55.226,
      "duration": 0.1512,
      "velocity": 120,
      "chip": "ym2612"
    },
    {
      "channel": 5,
      "note": 50,
      "start": 55.2267,
      "duration": 0.1512,
      "velocity": 93,
      "chip": "ym2612"
    },
    {
      "channel": 3,
      "note": 29,
      "start": 55.3713,
      "duration": 0.1517,
      "velocity": 114,
      "chip": "ym2612"
    },
    {
      "channel": 4,
      "note": 38,
      "start": 55.3777,
      "duration": 0.1512,
      "velocity": 120,
      "chip": "ym2612"
    },
    {
      "channel": 5,
      "note": 50,
      "start": 55.3784,
      "duration": 0.152,
      "velocity": 92,
      "chip": "ym2612"
    },
    {
      "channel": 2,
      "note": 38,
      "start": 55.5228,
      "duration": 0.3025,
      "velocity": 118,
      "chip": "ym2612"
    },
    {
      "channel": 3,
      "note": 26,
      "start": 55.5235,
      "duration": 0.1675,
      "velocity": 114,
      "chip": "ym2612"
    },
    {
      "channel": 4,
      "note": 50,
      "start": 55.5301,
      "duration": 0.1677,
      "velocity": 114,
      "chip": "ym2612"
    },
    {
      "channel": 5,
      "note": 50,
      "start": 55.5309,
      "duration": 0.1503,
      "velocity": 93,
      "chip": "ym2612"
    },
    {
      "channel": 5,
      "note": 50,
      "start": 55.6817,
      "duration": 0.1519,
      "velocity": 94,
      "chip": "ym2612"
    },
    {
      "channel": 0,
      "note": 50,
      "start": 55.8246,
      "duration": 0.1511,
      "velocity": 127,
      "chip": "ym2612"
    },
    {
      "channel": 2,
      "note": 62,
      "start": 55.8264,
      "duration": 0.2517,
      "velocity": 127,
      "chip": "ym2612"
    },
    {
      "channel": 3,
      "note": 26,
      "start": 55.8272,
      "duration": 0.1672,
      "velocity": 114,
      "chip": "ym2612"
    },
    {
      "channel": 4,
      "note": 50,
      "start": 55.8333,
      "duration": 0.1505,
      "velocity": 120,
      "chip": "ym2612"
    },
    {
      "channel": 5,
      "note": 50,
      "start": 55.8341,
      "duration": 0.1513,
      "velocity": 95,
      "chip": "ym2612"
    },
    {
      "channel": 0,
      "note": 50,
      "start": 55.9762,
      "duration": 0.1511,
      "velocity": 127,
      "chip": "ym2612"
    },
    {
      "channel": 4,
      "note": 50,
      "start": 55.9851,
      "duration": 0.1678,
      "velocity": 114,
      "chip": "ym2612"
    },
    {
      "channel": 5,
      "note": 50,
      "start": 55.9859,
      "duration": 0.1505,
      "velocity": 96,
      "chip": "ym2612"
    },
    {
      "channel": 0,
      "note": 50,
      "start": 56.1279,
      "duration": 0.1511,
      "velocity": 127,
      "chip": "ym2612"
    },
    {
      "channel": 1,
      "note": 17,
      "start": 56.1287,
      "duration": 1.2127,
      "velocity": 122,
      "chip": "ym2612"
    },
    {
      "channel": 2,
      "note": 38,
      "start": 56.13,
      "duration": 0.3019,
      "velocity": 118,
      "chip": "ym2612"
    },
    {
      "channel": 3,
      "note": 27,
      "start": 56.1308,
      "duration": 0.15,
      "velocity": 114,
      "chip": "ym2612"
    },
    {
      "channel": 5,
      "note": 50,
      "start": 56.137,
      "duration": 0.0837,
      "velocity": 97,
      "chip": "ym2612"
    },
    {
      "channel": 5,
      "note": 50,
      "start": 56.2212,
      "duration": 0.0674,
      "velocity": 97,
      "chip": "ym2612"
    },
    {
      "channel": 0,
      "note": 50,
      "start": 56.2796,
      "duration": 0.1511,
      "velocity": 127,
      "chip": "ym2612"
    },
    {
      "channel": 3,
      "note": 27,
      "start": 56.2814,
      "duration": 0.1681,
      "velocity": 114,
      "chip": "ym2612"
    },
    {
      "channel": 4,
      "note": 50,
      "start": 56.2884,
      "duration": 0.1677,
      "velocity": 105,
      "chip": "ym2612"
    },
    {
      "channel": 5,
      "note": 50,
      "start": 56.2891,
      "duration": 0.1503,
      "velocity": 98,
      "chip": "ym2612"
    },
    {
      "channel": 0,
      "note": 50,
      "start": 56.4313,
      "duration": 0.1511,
      "velocity": 127,
      "chip": "ym2612"
    },
    {
      "channel": 2,
      "note": 62,
      "start": 56.4331,
      "duration": 0.2517,
      "velocity": 127,
      "chip": "ym2612"
    },
    {
      "channel": 5,
      "note": 50,
      "start": 56.44,
      "duration": 0.1514,
      "velocity": 99,
      "chip": "ym2612"
    },
    {
      "channel": 0,
      "note": 38,
      "start": 56.5829,
      "duration": 0.3028,
      "velocity": 127,
      "chip": "ym2612"
    },
    {
      "channel": 3,
      "note": 29,
      "start": 56.5847,
      "duration": 0.1681,
      "velocity": 114,
      "chip": "ym2612"
    },
    {
      "channel": 4,
      "note": 50,
      "start": 56.5911,
      "duration": 0.1512,
      "velocity": 120,
      "chip": "ym2612"
    },
    {
      "channel": 5,
      "note": 50,
      "start": 56.5919,
      "duration": 0.152,
      "velocity": 100,
      "chip": "ym2612"
    },
    {
      "channel": 2,
      "note": 38,
      "start": 56.7364,
      "duration": 0.302,
      "velocity": 118,
      "chip": "ym2612"
    },
    {
      "channel": 4,
      "note": 50,
      "start": 56.7436,
      "duration": 0.1677,
      "velocity": 114,
      "chip": "ym2612"
    },
    {
      "channel": 5,
      "note": 50,
      "start": 56.7443,
      "duration": 0.1503,
      "velocity": 101,
      "chip": "ym2612"
    },
    {
      "channel": 0,
      "note": 38,
      "start": 56.8866,
      "duration": 1.0609,
      "velocity": 127,
      "chip": "ym2612"
    },
    {
      "channel": 3,
      "note": 26,
      "start": 56.8884,
      "duration": 0.1678,
      "velocity": 114,
      "chip": "ym2612"
    },
    {
      "channel": 5,
      "note": 50,
      "start": 56.8951,
      "duration": 0.1519,
      "velocity": 102,
      "chip": "ym2612"
    },
    {
      "channel": 2,
      "note": 62,
      "start": 57.0396,
      "duration": 0.252,
      "velocity": 127,
      "chip": "ym2612"
    },
    {
      "channel": 4,
      "note": 50,
      "start": 57.0468,
      "duration": 0.1676,
      "velocity": 120,
      "chip": "ym2612"
    },
    {
      "channel": 5,
      "note": 50,
      "start": 57.0475,
      "duration": 0.1503,
      "velocity": 103,
      "chip": "ym2612"
    },
    {
      "channel": 3,
      "note": 27,
      "start": 57.1912,
      "duration": 0.1683,
      "velocity": 114,
      "chip": "ym2612"
    },
    {
      "channel": 5,
      "note": 50,
      "start": 57.1983,
      "duration": 0.1514,
      "velocity": 104,
      "chip": "ym2612"
    },
    {
      "channel": 1,
      "note": 17,
      "start": 57.3419,
      "duration": 0.4545,
      "velocity": 122,
      "chip": "ym2612"
    },
    {
      "channel": 2,
      "note": 38,
      "start": 57.3432,
      "duration": 0.302,
      "velocity": 118,
      "chip": "ym2612"
    },
    {
      "channel": 4,
      "note": 50,
      "start": 57.3495,
      "duration": 0.1512,
      "velocity": 120,
      "chip": "ym2612"
    },
    {
      "channel": 5,
      "note": 50,
      "start": 57.3502,
      "duration": 0.1512,
      "velocity": 105,
      "chip": "ym2612"
    },
    {
      "channel": 3,
      "note": 27,
      "start": 57.4946,
      "duration": 0.1683,
      "velocity": 114,
      "chip": "ym2612"
    },
    {
      "channel": 4,
      "note": 38,
      "start": 57.5012,
      "duration": 0.1512,
      "velocity": 120,
      "chip": "ym2612"
    },
    {
      "channel": 5,
      "note": 50,
      "start": 57.5019,
      "duration": 0.1515,
      "velocity": 106,
      "chip": "ym2612"
    },
    {
      "channel": 2,
      "note": 62,
      "start": 57.6463,
      "duration": 0.252,
      "velocity": 127,
      "chip": "ym2612"
    },
    {
      "channel": 4,
      "note": 38,
      "start": 57.6531,
      "duration": 0.151,
      "velocity": 120,
      "chip": "ym2612"
    },
    {
      "channel": 5,
      "note": 50,
      "start": 57.6539,
      "duration": 0.0833,
      "velocity": 107,
      "chip": "ym2612"
    },
    {
      "channel": 5,
      "note": 63,
      "start": 57.7377,
      "duration": 0.0671,
      "velocity": 107,
      "chip": "ym2612"
    },
    {
      "channel": 1,
      "note": 17,
      "start": 57.7969,
      "duration": 0.152,
      "velocity": 122,
      "chip": "ym2612"
    },
    {
      "channel": 3,
      "note": 29,
      "start": 57.7982,
      "duration": 0.1535,
      "velocity": 114,
      "chip": "ym2612"
    },
    {
      "channel": 4,
      "note": 50,
      "start": 57.8046,
      "duration": 0.1512,
      "velocity": 120,
      "chip": "ym2612"
    },
    {
      "channel": 5,
      "note": 50,
      "start": 57.8053,
      "duration": 0.1518,
      "velocity": 107,
      "chip": "ym2612"
    },
    {
      "channel": 0,
      "note": 50,
      "start": 57.9487,
      "duration": 0.1505,
      "velocity": 100,
      "chip": "ym2612"
    },
    {
      "channel": 1,
      "note": 62,
      "start": 57.9501,
      "duration": 0.1507,
      "velocity": 127,
      "chip": "ym2612"
    },
    {
      "channel": 2,
      "note": 33,
      "start": 57.9514,
      "duration": 0.0985,
      "velocity": 120,
      "chip": "ym2612"
    },
    {
      "channel": 3,
      "note": 7,
      "start": 57.9528,
      "duration": 2.4247,
      "velocity": 1,
      "chip": "ym2612"
    },
    {
      "channel": 4,
      "note": 7,
      "start": 57.9569,
      "duration": 2.4258,
      "velocity": 1,
      "chip": "ym2612"
    },
    {
      "channel": 5,
      "note": 7,
      "start": 57.9582,
      "duration": 2.4252,
      "velocity": 1,
      "chip": "ym2612"
    },
    {
      "channel": 0,
      "note": 62,
      "start": 58.1005,
      "duration": 0.1172,
      "velocity": 107,
      "chip": "ym2612"
    },
    {
      "channel": 1,
      "note": 62,
      "start": 58.1013,
      "duration": 0.1509,
      "velocity": 127,
      "chip": "ym2612"
    },
    {
      "channel": 2,
      "note": 33,
      "start": 58.102,
      "duration": 0.0998,
      "velocity": 120,
      "chip": "ym2612"
    },
    {
      "channel": 0,
      "note": 38,
      "start": 58.252,
      "duration": 0.1506,
      "velocity": 1,
      "chip": "ym2612"
    },
    {
      "channel": 1,
      "note": 62,
      "start": 58.2528,
      "duration": 0.1516,
      "velocity": 127,
      "chip": "ym2612"
    },
    {
      "channel": 2,
      "note": 33,
      "start": 58.2538,
      "duration": 0.0998,
      "velocity": 120,
      "chip": "ym2612"
    },
    {
      "channel": 0,
      "note": 74,
      "start": 58.4041,
      "duration": 0.1169,
      "velocity": 107,
      "chip": "ym2612"
    },
    {
      "channel": 1,
      "note": 62,
      "start": 58.405,
      "duration": 0.1502,
      "velocity": 127,
      "chip": "ym2612"
    },
    {
      "channel": 2,
      "note": 33,
      "start": 58.4057,
      "duration": 0.0995,
      "velocity": 120,
      "chip": "ym2612"
    },
    {
      "channel": 0,
      "note": 65,
      "start": 58.555,
      "duration": 0.1178,
      "velocity": 107,
      "chip": "ym2612"
    },
    {
      "channel": 1,
      "note": 62,
      "start": 58.5557,
      "duration": 0.1515,
      "velocity": 127,
      "chip": "ym2612"
    },
    {
      "channel": 2,
      "note": 33,
      "start": 58.5565,
      "duration": 0.1004,
      "velocity": 120,
      "chip": "ym2612"
    },
    {
      "channel": 0,
      "note": 38,
      "start": 58.7071,
      "duration": 0.1505,
      "velocity": 1,
      "chip": "ym2612"
    },
    {
      "channel": 1,
      "note": 50,
      "start": 58.7078,
      "duration": 0.3031,
      "velocity": 127,
      "chip": "ym2612"
    },
    {
      "channel": 2,
      "note": 33,
      "start": 58.7086,
      "duration": 0.0998,
      "velocity": 120,
      "chip": "ym2612"
    },
    {
      "channel": 0,
      "note": 50,
      "start": 58.8587,
      "duration": 0.1506,
      "velocity": 100,
      "chip": "ym2612"
    },
    {
      "channel": 0,
      "note": 62,
      "start": 59.0106,
      "duration": 0.1171,
      "velocity": 107,
      "chip": "ym2612"
    },
    {
      "channel": 1,
      "note": 50,
      "start": 59.0114,
      "duration": 1.3646,
      "velocity": 127,
      "chip": "ym2612"
    },
    {
      "channel": 2,
      "note": 33,
      "start": 59.0122,
      "duration": 0.0998,
      "velocity": 120,
      "chip": "ym2612"
    },
    {
      "channel": 0,
      "note": 50,
      "start": 59.1622,
      "duration": 0.1504,
      "velocity": 127,
      "chip": "ym2612"
    },
    {
      "channel": 0,
      "note": 50,
      "start": 59.3138,
      "duration": 0.1505,
      "velocity": 100,
      "chip": "ym2612"
    },
    {
      "channel": 0,
      "note": 38,
      "start": 59.4655,
      "duration": 0.1505,
      "velocity": 1,
      "chip": "ym2612"
    },
    {
      "channel": 0,
      "note": 62,
      "start": 59.6173,
      "duration": 0.1172,
      "velocity": 107,
      "chip": "ym2612"
    },
    {
      "channel": 0,
      "note": 50,
      "start": 59.7688,
      "duration": 0.1505,
      "velocity": 72,
      "chip": "ym2612"
    },
    {
      "channel": 0,
      "note": 38,
      "start": 59.9207,
      "duration": 0.1503,
      "velocity": 1,
      "chip": "ym2612"
    },
    {
      "channel": 0,
      "note": 50,
      "start": 60.0722,
      "duration": 0.1505,
      "velocity": 100,
      "chip": "ym2612"
    },
    {
      "channel": 0,
      "note": 62,
      "start": 60.224,
      "duration": 0.1171,
      "velocity": 107,
      "chip": "ym2612"
    },
    {
      "channel": 0,
      "note": 41,
      "start": 60.3757,
      "duration": 0.1504,
      "velocity": 127,
      "chip": "ym2612"
    },
    {
      "channel": 1,
      "note": 62,
      "start": 60.3765,
      "duration": 0.151,
      "velocity": 127,
      "chip": "ym2612"
    },
    {
      "channel": 2,
      "note": 33,
      "start": 60.3772,
      "duration": 0.0998,
      "velocity": 120,
      "chip": "ym2612"
    },
    {
      "channel": 3,
      "note": 7,
      "start": 60.3779,
      "duration": 6.9765,
      "velocity": 1,
      "chip": "ym2612"
    },
    {
      "channel": 4,
      "note": 7,
      "start": 60.3832,
      "duration": 7.0611,
      "velocity": 1,
      "chip": "ym2612"
    },
    {
      "channel": 5,
      "note": 7,
      "start": 60.3839,
      "duration": 6.9766,
      "velocity": 1,
      "chip": "ym2612"
    },
    {
      "channel": 0,
      "note": 50,
      "start": 60.5272,
      "duration": 0.1505,
      "velocity": 100,
      "chip": "ym2612"
    },
    {
      "channel": 1,
      "note": 62,
      "start": 60.528,
      "duration": 0.1512,
      "velocity": 127,
      "chip": "ym2612"
    },
    {
      "channel": 2,
      "note": 33,
      "start": 60.5288,
      "duration": 0.0998,
      "velocity": 120,
      "chip": "ym2612"
    },
    {
      "channel": 0,
      "note": 38,
      "start": 60.6789,
      "duration": 0.1506,
      "velocity": 1,
      "chip": "ym2612"
    },
    {
      "channel": 1,
      "note": 62,
      "start": 60.6797,
      "duration": 0.1513,
      "velocity": 127,
      "chip": "ym2612"
    },
    {
      "channel": 2,
      "note": 33,
      "start": 60.6804,
      "duration": 0.0998,
      "velocity": 120,
      "chip": "ym2612"
    },
    {
      "channel": 0,
      "note": 62,
      "start": 60.8308,
      "duration": 0.1171,
      "velocity": 107,
      "chip": "ym2612"
    },
    {
      "channel": 1,
      "note": 62,
      "start": 60.8316,
      "duration": 0.151,
      "velocity": 127,
      "chip": "ym2612"
    },
    {
      "channel": 2,
      "note": 33,
      "start": 60.8323,
      "duration": 0.0998,
      "velocity": 120,
      "chip": "ym2612"
    },
    {
      "channel": 0,
      "note": 50,
      "start": 60.9822,
      "duration": 0.1505,
      "velocity": 72,
      "chip": "ym2612"
    },
    {
      "channel": 1,
      "note": 62,
      "start": 60.9831,
      "duration": 0.1511,
      "velocity": 127,
      "chip": "ym2612"
    },
    {
      "channel": 2,
      "note": 33,
      "start": 60.9838,
      "duration": 0.0998,
      "velocity": 120,
      "chip": "ym2612"
    },
    {
      "channel": 0,
      "note": 38,
      "start": 61.1339,
      "duration": 0.1506,
      "velocity": 1,
      "chip": "ym2612"
    },
    {
      "channel": 1,
      "note": 50,
      "start": 61.1347,
      "duration": 0.3032,
      "velocity": 127,
      "chip": "ym2612"
    },
    {
      "channel": 2,
      "note": 33,
      "start": 61.1355,
      "duration": 0.0998,
      "velocity": 120,
      "chip": "ym2612"
    },
    {
      "channel": 0,
      "note": 50,
      "start": 61.2856,
      "duration": 0.1506,
      "velocity": 100,
      "chip": "ym2612"
    },
    {
      "channel": 0,
      "note": 62,
      "start": 61.4378,
      "duration": 0.1169,
      "velocity": 107,
      "chip": "ym2612"
    },
    {
      "channel": 1,
      "note": 50,
      "start": 61.4385,
      "duration": 1.3641,
      "velocity": 127,
      "chip": "ym2612"
    },
    {
      "channel": 2,
      "note": 33,
      "start": 61.4393,
      "duration": 0.0995,
      "velocity": 120,
      "chip": "ym2612"
    },
    {
      "channel": 0,
      "note": 50,
      "start": 61.5891,
      "duration": 0.1504,
      "velocity": 127,
      "chip": "ym2612"
    },
    {
      "channel": 0,
      "note": 50,
      "start": 61.7407,
      "duration": 0.1506,
      "velocity": 100,
      "chip": "ym2612"
    },
    {
      "channel": 0,
      "note": 38,
      "start": 61.8924,
      "duration": 0.1505,
      "velocity": 1,
      "chip": "ym2612"
    },
    {
      "channel": 0,
      "note": 62,
      "start": 62.0442,
      "duration": 0.1172,
      "velocity": 107,
      "chip": "ym2612"
    },
    {
      "channel": 0,
      "note": 50,
      "start": 62.1957,
      "duration": 0.1505,
      "velocity": 72,
      "chip": "ym2612"
    },
    {
      "channel": 0,
      "note": 38,
      "start": 62.3474,
      "duration": 0.1505,
      "velocity": 1,
      "chip": "ym2612"
    },
    {
      "channel": 0,
      "note": 62,
      "start": 62.4991,
      "duration": 0.1505,
      "velocity": 100,
      "chip": "ym2612"
    },
    {
      "channel": 0,
      "note": 62,
      "start": 62.651,
      "duration": 0.1171,
      "velocity": 107,
      "chip": "ym2612"
    },
    {
      "channel": 0,
      "note": 50,
      "start": 62.8024,
      "duration": 0.1508,
      "velocity": 100,
      "chip": "ym2612"
    },
    {
      "channel": 1,
      "note": 62,
      "start": 62.8035,
      "duration": 0.1513,
      "velocity": 127,
      "chip": "ym2612"
    },
    {
      "channel": 2,
      "note": 33,
      "start": 62.8043,
      "duration": 0.0998,
      "velocity": 120,
      "chip": "ym2612"
    },
    {
      "channel": 0,
      "note": 62,
      "start": 62.9546,
      "duration": 0.1168,
      "velocity": 107,
      "chip": "ym2612"
    },
    {
      "channel": 1,
      "note": 62,
      "start": 62.9554,
      "duration": 0.1507,
      "velocity": 127,
      "chip": "ym2612"
    },
    {
      "channel": 2,
      "note": 33,
      "start": 62.9561,
      "duration": 0.0996,
      "velocity": 120,
      "chip": "ym2612"
    },
    {
      "channel": 0,
      "note": 38,
      "start": 63.1058,
      "duration": 0.1506,
      "velocity": 1,
      "chip": "ym2612"
    },
    {
      "channel": 1,
      "note": 62,
      "start": 63.1066,
      "duration": 0.1513,
      "velocity": 127,
      "chip": "ym2612"
    },
    {
      "channel": 2,
      "note": 33,
      "start": 63.1073,
      "duration": 0.0998,
      "velocity": 120,
      "chip": "ym2612"
    },
    {
      "channel": 0,
      "note": 74,
      "start": 63.2577,
      "duration": 0.1171,
      "velocity": 107,
      "chip": "ym2612"
    },
    {
      "channel": 1,
      "note": 62,
      "start": 63.2585,
      "duration": 0.1505,
      "velocity": 127,
      "chip": "ym2612"
    },
    {
      "channel": 2,
      "note": 33,
      "start": 63.2592,
      "duration": 0.0998,
      "velocity": 120,
      "chip": "ym2612"
    },
    {
      "channel": 0,
      "note": 65,
      "start": 63.4087,
      "duration": 0.1178,
      "velocity": 107,
      "chip": "ym2612"
    },
    {
      "channel": 1,
      "note": 62,
      "start": 63.4095,
      "duration": 0.1515,
      "velocity": 127,
      "chip": "ym2612"
    },
    {
      "channel": 2,
      "note": 33,
      "start": 63.4102,
      "duration": 0.1004,
      "velocity": 120,
      "chip": "ym2612"
    },
    {
      "channel": 0,
      "note": 38,
      "start": 63.5608,
      "duration": 0.1506,
      "velocity": 1,
      "chip": "ym2612"
    },
    {
      "channel": 1,
      "note": 50,
      "start": 63.5616,
      "duration": 0.303,
      "velocity": 127,
      "chip": "ym2612"
    },
    {
      "channel": 2,
      "note": 33,
      "start": 63.5623,
      "duration": 0.0998,
      "velocity": 120,
      "chip": "ym2612"
    },
    {
      "channel": 0,
      "note": 50,
      "start": 63.7125,
      "duration": 0.1505,
      "velocity": 100,
      "chip": "ym2612"
    },
    {
      "channel": 0,
      "note": 62,
      "start": 63.8644,
      "duration": 0.1172,
      "velocity": 107,
      "chip": "ym2612"
    },
    {
      "channel": 1,
      "note": 50,
      "start": 63.8652,
      "duration": 1.3645,
      "velocity": 127,
      "chip": "ym2612"
    },
    {
      "channel": 2,
      "note": 33,
      "start": 63.8659,
      "duration": 0.0998,
      "velocity": 120,
      "chip": "ym2612"
    },
    {
      "channel": 0,
      "note": 50,
      "start": 64.016,
      "duration": 0.1504,
      "velocity": 127,
      "chip": "ym2612"
    },
    {
      "channel": 0,
      "note": 50,
      "start": 64.1676,
      "duration": 0.1506,
      "velocity": 100,
      "chip": "ym2612"
    },
    {
      "channel": 0,
      "note": 38,
      "start": 64.3193,
      "duration": 0.1508,
      "velocity": 1,
      "chip": "ym2612"
    },
    {
      "channel": 0,
      "note": 62,
      "start": 64.4714,
      "duration": 0.1169,
      "velocity": 107,
      "chip": "ym2612"
    },
    {
      "channel": 0,
      "note": 50,
      "start": 64.6226,
      "duration": 0.1506,
      "velocity": 72,
      "chip": "ym2612"
    },
    {
      "channel": 0,
      "note": 38,
      "start": 64.7743,
      "duration": 0.1505,
      "velocity": 1,
      "chip": "ym2612"
    },
    {
      "channel": 0,
      "note": 50,
      "start": 64.926,
      "duration": 0.1506,
      "velocity": 100,
      "chip": "ym2612"
    },
    {
      "channel": 0,
      "note": 62,
      "start": 65.0779,
      "duration": 0.1171,
      "velocity": 107,
      "chip": "ym2612"
    },
    {
      "channel": 0,
      "note": 41,
      "start": 65.2295,
      "duration": 0.1503,
      "velocity": 127,
      "chip": "ym2612"
    },
    {
      "channel": 1,
      "note": 62,
      "start": 65.2303,
      "duration": 0.151,
      "velocity": 127,
      "chip": "ym2612"
    },
    {
      "channel": 2,
      "note": 33,
      "start": 65.231,
      "duration": 0.0998,
      "velocity": 120,
      "chip": "ym2612"
    },
    {
      "channel": 0,
      "note": 50,
      "start": 65.381,
      "duration": 0.1505,
      "velocity": 100,
      "chip": "ym2612"
    },
    {
      "channel": 1,
      "note": 62,
      "start": 65.3818,
      "duration": 0.1511,
      "velocity": 127,
      "chip": "ym2612"
    },
    {
      "channel": 2,
      "note": 33,
      "start": 65.3826,
      "duration": 0.0998,
      "velocity": 120,
      "chip": "ym2612"
    },
    {
      "channel": 0,
      "note": 38,
      "start": 65.5327,
      "duration": 0.1505,
      "velocity": 1,
      "chip": "ym2612"
    },
    {
      "channel": 1,
      "note": 62,
      "start": 65.5335,
      "duration": 0.1513,
      "velocity": 127,
      "chip": "ym2612"
    },
    {
      "channel": 2,
      "note": 33,
      "start": 65.5342,
      "duration": 0.0998,
      "velocity": 120,
      "chip": "ym2612"
    },
    {
      "channel": 0,
      "note": 62,
      "start": 65.6845,
      "duration": 0.1172,
      "velocity": 107,
      "chip": "ym2612"
    },
    {
      "channel": 1,
      "note": 62,
      "start": 65.6854,
      "duration": 0.1512,
      "velocity": 127,
      "chip": "ym2612"
    },
    {
      "channel": 2,
      "note": 33,
      "start": 65.6861,
      "duration": 0.0997,
      "velocity": 120,
      "chip": "ym2612"
    },
    {
      "channel": 0,
      "note": 50,
      "start": 65.8361,
      "duration": 0.1507,
      "velocity": 72,
      "chip": "ym2612"
    },
    {
      "channel": 1,
      "note": 62,
      "start": 65.8371,
      "duration": 0.1511,
      "velocity": 127,
      "chip": "ym2612"
    },
    {
      "channel": 2,
      "note": 33,
      "start": 65.8378,
      "duration": 0.0998,
      "velocity": 120,
      "chip": "ym2612"
    },
    {
      "channel": 0,
      "note": 38,
      "start": 65.988,
      "duration": 0.1503,
      "velocity": 1,
      "chip": "ym2612"
    },
    {
      "channel": 1,
      "note": 50,
      "start": 65.9888,
      "duration": 0.3027,
      "velocity": 127,
      "chip": "ym2612"
    },
    {
      "channel": 2,
      "note": 33,
      "start": 65.9895,
      "duration": 0.0996,
      "velocity": 120,
      "chip": "ym2612"
    },
    {
      "channel": 0,
      "note": 50,
      "start": 66.1394,
      "duration": 0.1505,
      "velocity": 100,
      "chip": "ym2612"
    },
    {
      "channel": 0,
      "note": 62,
      "start": 66.2913,
      "duration": 0.1172,
      "velocity": 107,
      "chip": "ym2612"
    },
    {
      "channel": 1,
      "note": 50,
      "start": 66.2921,
      "duration": 1.6671,
      "velocity": 127,
      "chip": "ym2612"
    },
    {
      "channel": 2,
      "note": 33,
      "start": 66.2928,
      "duration": 0.0998,
      "velocity": 120,
      "chip": "ym2612"
    },
    {
      "channel": 0,
      "note": 50,
      "start": 66.4429,
      "duration": 0.1504,
      "velocity": 127,
      "chip": "ym2612"
    },
    {
      "channel": 0,
      "note": 50,
      "start": 66.5945,
      "duration": 0.1505,
      "velocity": 100,
      "chip": "ym2612"
    },
    {
      "channel": 0,
      "note": 38,
      "start": 66.7461,
      "duration": 0.1506,
      "velocity": 1,
      "chip": "ym2612"
    },
    {
      "channel": 0,
      "note": 62,
      "start": 66.898,
      "duration": 0.1171,
      "velocity": 107,
      "chip": "ym2612"
    },
    {
      "channel": 0,
      "note": 50,
      "start": 67.0495,
      "duration": 0.1506,
      "velocity": 72,
      "chip": "ym2612"
    },
    {
      "channel": 0,
      "note": 38,
      "start": 67.2012,
      "duration": 0.2354,
      "velocity": 1,
      "chip": "ym2612"
    },
    {
      "channel": 2,
      "note": 38,
      "start": 67.3542,
      "duration": 0.3029,
      "velocity": 118,
      "chip": "ym2612"
    },
    {
      "channel": 3,
      "note": 26,
      "start": 67.3556,
      "duration": 0.1666,
      "velocity": 114,
      "chip": "ym2612"
    },
    {
      "channel": 5,
      "note": 38,
      "start": 67.3616,
      "duration": 0.1003,
      "velocity": 100,
      "chip": "ym2612"
    },
    {
      "channel": 4,
      "note": 38,
      "start": 67.4454,
      "duration": 0.0834,
      "velocity": 100,
      "chip": "ym2612"
    },
    {
      "channel": 5,
      "note": 39,
      "start": 67.5127,
      "duration": 0.1009,
      "velocity": 99,
      "chip": "ym2612"
    },
    {
      "channel": 4,
      "note": 39,
      "start": 67.5964,
      "duration": 0.084,
      "velocity": 99,
      "chip": "ym2612"
    },
    {
      "channel": 0,
      "note": 62,
      "start": 67.6563,
      "duration": 0.1505,
      "velocity": 127,
      "chip": "ym2612"
    },
    {
      "channel": 2,
      "note": 62,
      "start": 67.6582,
      "duration": 0.2511,
      "velocity": 127,
      "chip": "ym2612"
    },
    {
      "channel": 3,
      "note": 26,
      "start": 67.659,
      "duration": 0.1666,
      "velocity": 114,
      "chip": "ym2612"
    },
    {
      "channel": 5,
      "note": 41,
      "start": 67.6643,
      "duration": 0.1009,
      "velocity": 98,
      "chip": "ym2612"
    },
    {
      "channel": 4,
      "note": 41,
      "start": 67.7481,
      "duration": 0.084,
      "velocity": 98,
      "chip": "ym2612"
    },
    {
      "channel": 0,
      "note": 62,
      "start": 67.8074,
      "duration": 0.1511,
      "velocity": 127,
      "chip": "ym2612"
    },
    {
      "channel": 5,
      "note": 38,
      "start": 67.816,
      "duration": 0.1009,
      "velocity": 97,
      "chip": "ym2612"
    },
    {
      "channel": 4,
      "note": 38,
      "start": 67.8998,
      "duration": 0.0841,
      "velocity": 97,
      "chip": "ym2612"
    },
    {
      "channel": 0,
      "note": 62,
      "start": 67.959,
      "duration": 0.1512,
      "velocity": 127,
      "chip": "ym2612"
    },
    {
      "channel": 1,
      "note": 17,
      "start": 67.9604,
      "duration": 1.2121,
      "velocity": 122,
      "chip": "ym2612"
    },
    {
      "channel": 2,
      "note": 38,
      "start": 67.9618,
      "duration": 0.3013,
      "velocity": 118,
      "chip": "ym2612"
    },
    {
      "channel": 3,
      "note": 27,
      "start": 67.9625,
      "duration": 0.1494,
      "velocity": 114,
      "chip": "ym2612"
    },
    {
      "channel": 5,
      "note": 39,
      "start": 67.9677,
      "duration": 0.1009,
      "velocity": 96,
      "chip": "ym2612"
    },
    {
      "channel": 4,
      "note": 39,
      "start": 68.0515,
      "duration": 0.084,
      "velocity": 96,
      "chip": "ym2612"
    },
    {
      "channel": 0,
      "note": 62,
      "start": 68.1107,
      "duration": 0.1511,
      "velocity": 127,
      "chip": "ym2612"
    },
    {
      "channel": 3,
      "note": 27,
      "start": 68.1125,
      "duration": 0.1681,
      "velocity": 114,
      "chip": "ym2612"
    },
    {
      "channel": 5,
      "note": 41,
      "start": 68.1194,
      "duration": 0.1011,
      "velocity": 95,
      "chip": "ym2612"
    },
    {
      "channel": 4,
      "note": 41,
      "start": 68.2034,
      "duration": 0.0838,
      "velocity": 95,
      "chip": "ym2612"
    },
    {
      "channel": 0,
      "note": 62,
      "start": 68.2624,
      "duration": 0.1512,
      "velocity": 127,
      "chip": "ym2612"
    },
    {
      "channel": 2,
      "note": 62,
      "start": 68.2642,
      "duration": 0.2517,
      "velocity": 127,
      "chip": "ym2612"
    },
    {
      "channel": 5,
      "note": 38,
      "start": 68.2711,
      "duration": 0.1008,
      "velocity": 94,
      "chip": "ym2612"
    },
    {
      "channel": 4,
      "note": 38,
      "start": 68.3548,
      "duration": 0.084,
      "velocity": 94,
      "chip": "ym2612"
    },
    {
      "channel": 0,
      "note": 50,
      "start": 68.4141,
      "duration": 0.3028,
      "velocity": 127,
      "chip": "ym2612"
    },
    {
      "channel": 3,
      "note": 29,
      "start": 68.4159,
      "duration": 0.168,
      "velocity": 114,
      "chip": "ym2612"
    },
    {
      "channel": 5,
      "note": 39,
      "start": 68.4227,
      "duration": 0.101,
      "velocity": 93,
      "chip": "ym2612"
    },
    {
      "channel": 4,
      "note": 39,
      "start": 68.5065,
      "duration": 0.084,
      "velocity": 93,
      "chip": "ym2612"
    },
    {
      "channel": 2,
      "note": 38,
      "start": 68.5674,
      "duration": 0.3024,
      "velocity": 118,
      "chip": "ym2612"
    },
    {
      "channel": 5,
      "note": 41,
      "start": 68.5744,
      "duration": 0.1009,
      "velocity": 92,
      "chip": "ym2612"
    },
    {
      "channel": 4,
      "note": 41,
      "start": 68.6582,
      "duration": 0.084,
      "velocity": 92,
      "chip": "ym2612"
    },
    {
      "channel": 0,
      "note": 50,
      "start": 68.7174,
      "duration": 1.3646,
      "velocity": 127,
      "chip": "ym2612"
    },
    {
      "channel": 3,
      "note": 26,
      "start": 68.7192,
      "duration": 0.1683,
      "velocity": 114,
      "chip": "ym2612"
    },
    {
      "channel": 5,
      "note": 38,
      "start": 68.7261,
      "duration": 0.101,
      "velocity": 91,
      "chip": "ym2612"
    },
    {
      "channel": 4,
      "note": 38,
      "start": 68.8099,
      "duration": 0.084,
      "velocity": 91,
      "chip": "ym2612"
    },
    {
      "channel": 2,
      "note": 62,
      "start": 68.871,
      "duration": 0.2517,
      "velocity": 127,
      "chip": "ym2612"
    },
    {
      "channel": 5,
      "note": 39,
      "start": 68.8778,
      "duration": 0.1009,
      "velocity": 90,
      "chip": "ym2612"
    },
    {
      "channel": 4,
      "note": 39,
      "start": 68.9615,
      "duration": 0.0841,
      "velocity": 90,
      "chip": "ym2612"
    },
    {
      "channel": 3,
      "note": 27,
      "start": 69.0224,
      "duration": 0.1683,
      "velocity": 114,
      "chip": "ym2612"
    },
    {
      "channel": 5,
      "note": 41,
      "start": 69.0295,
      "duration": 0.1009,
      "velocity": 89,
      "chip": "ym2612"
    },
    {
      "channel": 4,
      "note": 41,
      "start": 69.1132,
      "duration": 0.084,
      "velocity": 89,
      "chip": "ym2612"
    },
    {
      "channel": 1,
      "note": 17,
      "start": 69.173,
      "duration": 0.1511,
      "velocity": 122,
      "chip": "ym2612"
    },
    {
      "channel": 2,
      "note": 38,
      "start": 69.1743,
      "duration": 0.302,
      "velocity": 118,
      "chip": "ym2612"
    },
    {
      "channel": 5,
      "note": 38,
      "start": 69.1811,
      "duration": 0.101,
      "velocity": 88,
      "chip": "ym2612"
    },
    {
      "channel": 4,
      "note": 38,
      "start": 69.2649,
      "duration": 0.084,
      "velocity": 88,
      "chip": "ym2612"
    },
    {
      "channel": 1,
      "note": 17,
      "start": 69.3247,
      "duration": 1.0617,
      "velocity": 122,
      "chip": "ym2612"
    },
    {
      "channel": 3,
      "note": 27,
      "start": 69.326,
      "duration": 0.168,
      "velocity": 114,
      "chip": "ym2612"
    },
    {
      "channel": 5,
      "note": 39,
      "start": 69.3328,
      "duration": 0.1009,
      "velocity": 87,
      "chip": "ym2612"
    },
    {
      "channel": 4,
      "note": 39,
      "start": 69.4166,
      "duration": 0.084,
      "velocity": 87,
      "chip": "ym2612"
    },
    {
      "channel": 2,
      "note": 62,
      "start": 69.4774,
      "duration": 0.252,
      "velocity": 127,
      "chip": "ym2612"
    },
    {
      "channel": 5,
      "note": 41,
      "start": 69.4845,
      "duration": 0.101,
      "velocity": 86,
      "chip": "ym2612"
    },
    {
      "channel": 4,
      "note": 41,
      "start": 69.5683,
      "duration": 0.084,
      "velocity": 86,
      "chip": "ym2612"
    },
    {
      "channel": 3,
      "note": 29,
      "start": 69.6291,
      "duration": 0.152,
      "velocity": 114,
      "chip": "ym2612"
    },
    {
      "channel": 5,
      "note": 38,
      "start": 69.6364,
      "duration": 0.101,
      "velocity": 85,
      "chip": "ym2612"
    },
    {
      "channel": 4,
      "note": 38,
      "start": 69.7202,
      "duration": 0.0838,
      "velocity": 85,
      "chip": "ym2612"
    },
    {
      "channel": 2,
      "note": 38,
      "start": 69.7808,
      "duration": 0.3025,
      "velocity": 118,
      "chip": "ym2612"
    },
    {
      "channel": 3,
      "note": 26,
      "start": 69.7816,
      "duration": 0.1675,
      "velocity": 114,
      "chip": "ym2612"
    },
    {
      "channel": 5,
      "note": 39,
      "start": 69.7878,
      "duration": 0.101,
      "velocity": 86,
      "chip": "ym2612"
    },
    {
      "channel": 4,
      "note": 39,
      "start": 69.8716,
      "duration": 0.084,
      "velocity": 86,
      "chip": "ym2612"
    },
    {
      "channel": 5,
      "note": 41,
      "start": 69.9396,
      "duration": 0.1009,
      "velocity": 87,
      "chip": "ym2612"
    },
    {
      "channel": 4,
      "note": 41,
      "start": 70.0233,
      "duration": 0.0841,
      "velocity": 87,
      "chip": "ym2612"
    },
    {
      "channel": 0,
      "note": 62,
      "start": 70.0826,
      "duration": 0.1512,
      "velocity": 127,
      "chip": "ym2612"
    },
    {
      "channel": 2,
      "note": 62,
      "start": 70.0844,
      "duration": 0.2517,
      "velocity": 127,
      "chip": "ym2612"
    },
    {
      "channel": 3,
      "note": 26,
      "start": 70.0852,
      "duration": 0.1673,
      "velocity": 114,
      "chip": "ym2612"
    },
    {
      "channel": 5,
      "note": 38,
      "start": 70.0912,
      "duration": 0.1009,
      "velocity": 88,
      "chip": "ym2612"
    },
    {
      "channel": 4,
      "note": 38,
      "start": 70.175,
      "duration": 0.084,
      "velocity": 88,
      "chip": "ym2612"
    },
    {
      "channel": 0,
      "note": 62,
      "start": 70.2342,
      "duration": 0.1512,
      "velocity": 127,
      "chip": "ym2612"
    },
    {
      "channel": 5,
      "note": 39,
      "start": 70.2429,
      "duration": 0.1009,
      "velocity": 89,
      "chip": "ym2612"
    },
    {
      "channel": 4,
      "note": 39,
      "start": 70.3267,
      "duration": 0.084,
      "velocity": 89,
      "chip": "ym2612"
    },
    {
      "channel": 0,
      "note": 62,
      "start": 70.3859,
      "duration": 0.1512,
      "velocity": 127,
      "chip": "ym2612"
    },
    {
      "channel": 1,
      "note": 17,
      "start": 70.387,
      "duration": 1.2124,
      "velocity": 122,
      "chip": "ym2612"
    },
    {
      "channel": 2,
      "note": 38,
      "start": 70.3883,
      "duration": 0.3017,
      "velocity": 118,
      "chip": "ym2612"
    },
    {
      "channel": 3,
      "note": 27,
      "start": 70.3891,
      "duration": 0.1498,
      "velocity": 114,
      "chip": "ym2612"
    },
    {
      "channel": 5,
      "note": 41,
      "start": 70.3946,
      "duration": 0.1009,
      "velocity": 90,
      "chip": "ym2612"
    },
    {
      "channel": 4,
      "note": 41,
      "start": 70.4784,
      "duration": 0.084,
      "velocity": 90,
      "chip": "ym2612"
    },
    {
      "channel": 0,
      "note": 62,
      "start": 70.5376,
      "duration": 0.1512,
      "velocity": 127,
      "chip": "ym2612"
    },
    {
      "channel": 3,
      "note": 27,
      "start": 70.5394,
      "duration": 0.168,
      "velocity": 114,
      "chip": "ym2612"
    },
    {
      "channel": 5,
      "note": 38,
      "start": 70.5463,
      "duration": 0.101,
      "velocity": 91,
      "chip": "ym2612"
    },
    {
      "channel": 4,
      "note": 38,
      "start": 70.63,
      "duration": 0.084,
      "velocity": 91,
      "chip": "ym2612"
    },
    {
      "channel": 0,
      "note": 62,
      "start": 70.6893,
      "duration": 0.1511,
      "velocity": 127,
      "chip": "ym2612"
    },
    {
      "channel": 2,
      "note": 62,
      "start": 70.6911,
      "duration": 0.2518,
      "velocity": 127,
      "chip": "ym2612"
    },
    {
      "channel": 5,
      "note": 39,
      "start": 70.698,
      "duration": 0.1009,
      "velocity": 92,
      "chip": "ym2612"
    },
    {
      "channel": 4,
      "note": 39,
      "start": 70.7817,
      "duration": 0.084,
      "velocity": 92,
      "chip": "ym2612"
    },
    {
      "channel": 0,
      "note": 50,
      "start": 70.841,
      "duration": 0.3028,
      "velocity": 127,
      "chip": "ym2612"
    },
    {
      "channel": 3,
      "note": 29,
      "start": 70.8427,
      "duration": 0.1681,
      "velocity": 114,
      "chip": "ym2612"
    },
    {
      "channel": 5,
      "note": 41,
      "start": 70.8496,
      "duration": 0.1009,
      "velocity": 93,
      "chip": "ym2612"
    },
    {
      "channel": 4,
      "note": 41,
      "start": 70.9334,
      "duration": 0.084,
      "velocity": 93,
      "chip": "ym2612"
    },
    {
      "channel": 2,
      "note": 38,
      "start": 70.9942,
      "duration": 0.3023,
      "velocity": 118,
      "chip": "ym2612"
    },
    {
      "channel": 5,
      "note": 38,
      "start": 71.0013,
      "duration": 0.1009,
      "velocity": 94,
      "chip": "ym2612"
    },
    {
      "channel": 4,
      "note": 38,
      "start": 71.0851,
      "duration": 0.0841,
      "velocity": 94,
      "chip": "ym2612"
    },
    {
      "channel": 0,
      "note": 50,
      "start": 71.1443,
      "duration": 1.3646,
      "velocity": 127,
      "chip": "ym2612"
    },
    {
      "channel": 3,
      "note": 26,
      "start": 71.1461,
      "duration": 0.1681,
      "velocity": 114,
      "chip": "ym2612"
    },
    {
      "channel": 5,
      "note": 39,
      "start": 71.1532,
      "duration": 0.1009,
      "velocity": 95,
      "chip": "ym2612"
    },
    {
      "channel": 4,
      "note": 39,
      "start": 71.237,
      "duration": 0.0838,
      "velocity": 95,
      "chip": "ym2612"
    },
    {
      "channel": 2,
      "note": 62,
      "start": 71.2976,
      "duration": 0.252,
      "velocity": 127,
      "chip": "ym2612"
    },
    {
      "channel": 5,
      "note": 41,
      "start": 71.3046,
      "duration": 0.101,
      "velocity": 96,
      "chip": "ym2612"
    },
    {
      "channel": 4,
      "note": 41,
      "start": 71.3884,
      "duration": 0.084,
      "velocity": 96,
      "chip": "ym2612"
    },
    {
      "channel": 3,
      "note": 27,
      "start": 71.4492,
      "duration": 0.1683,
      "velocity": 114,
      "chip": "ym2612"
    },
    {
      "channel": 5,
      "note": 38,
      "start": 71.4564,
      "duration": 0.1009,
      "velocity": 97,
      "chip": "ym2612"
    },
    {
      "channel": 4,
      "note": 38,
      "start": 71.5401,
      "duration": 0.084,
      "velocity": 97,
      "chip": "ym2612"
    },
    {
      "channel": 1,
      "note": 17,
      "start": 71.5999,
      "duration": 0.4546,
      "velocity": 122,
      "chip": "ym2612"
    },
    {
      "channel": 2,
      "note": 38,
      "start": 71.6012,
      "duration": 0.3022,
      "velocity": 118,
      "chip": "ym2612"
    },
    {
      "channel": 5,
      "note": 39,
      "start": 71.608,
      "duration": 0.101,
      "velocity": 98,
      "chip": "ym2612"
    },
    {
      "channel": 4,
      "note": 39,
      "start": 71.6918,
      "duration": 0.084,
      "velocity": 98,
      "chip": "ym2612"
    },
    {
      "channel": 3,
      "note": 27,
      "start": 71.7526,
      "duration": 0.1686,
      "velocity": 114,
      "chip": "ym2612"
    },
    {
      "channel": 5,
      "note": 41,
      "start": 71.7597,
      "duration": 0.1009,
      "velocity": 99,
      "chip": "ym2612"
    },
    {
      "channel": 4,
      "note": 41,
      "start": 71.8434,
      "duration": 0.0841,
      "velocity": 99,
      "chip": "ym2612"
    },
    {
      "channel": 2,
      "note": 62,
      "start": 71.9046,
      "duration": 0.2517,
      "velocity": 127,
      "chip": "ym2612"
    },
    {
      "channel": 5,
      "note": 38,
      "start": 71.9114,
      "duration": 0.1009,
      "velocity": 100,
      "chip": "ym2612"
    },
    {
      "channel": 4,
      "note": 38,
      "start": 71.9952,
      "duration": 0.084,
      "velocity": 100,
      "chip": "ym2612"
    },
    {
      "channel": 1,
      "note": 17,
      "start": 72.055,
      "duration": 0.7581,
      "velocity": 122,
      "chip": "ym2612"
    },
    {
      "channel": 3,
      "note": 29,
      "start": 72.0562,
      "duration": 0.1517,
      "velocity": 114,
      "chip": "ym2612"
    },
    {
      "channel": 5,
      "note": 39,
      "start": 72.0631,
      "duration": 0.1009,
      "velocity": 100,
      "chip": "ym2612"
    },
    {
      "channel": 4,
      "note": 39,
      "start": 72.1468,
      "duration": 0.1512,
      "velocity": 100,
      "chip": "ym2612"
    },
    {
      "channel": 2,
      "note": 38,
      "start": 72.2077,
      "duration": 0.3025,
      "velocity": 118,
      "chip": "ym2612"
    },
    {
      "channel": 3,
      "note": 26,
      "start": 72.2085,
      "duration": 0.1675,
      "velocity": 114,
      "chip": "ym2612"
    },
    {
      "channel": 5,
      "note": 38,
      "start": 72.2148,
      "duration": 0.1009,
      "velocity": 100,
      "chip": "ym2612"
    },
    {
      "channel": 4,
      "note": 38,
      "start": 72.2985,
      "duration": 0.084,
      "velocity": 100,
      "chip": "ym2612"
    },
    {
      "channel": 5,
      "note": 39,
      "start": 72.3665,
      "duration": 0.1009,
      "velocity": 99,
      "chip": "ym2612"
    },
    {
      "channel": 4,
      "note": 39,
      "start": 72.4502,
      "duration": 0.084,
      "velocity": 99,
      "chip": "ym2612"
    },
    {
      "channel": 0,
      "note": 62,
      "start": 72.5095,
      "duration": 0.1512,
      "velocity": 127,
      "chip": "ym2612"
    },
    {
      "channel": 2,
      "note": 62,
      "start": 72.5113,
      "duration": 0.2517,
      "velocity": 127,
      "chip": "ym2612"
    },
    {
      "channel": 3,
      "note": 26,
      "start": 72.5121,
      "duration": 0.1672,
      "velocity": 114,
      "chip": "ym2612"
    },
    {
      "channel": 5,
      "note": 41,
      "start": 72.5181,
      "duration": 0.1009,
      "velocity": 98,
      "chip": "ym2612"
    },
    {
      "channel": 4,
      "note": 41,
      "start": 72.6019,
      "duration": 0.084,
      "velocity": 98,
      "chip": "ym2612"
    },
    {
      "channel": 0,
      "note": 62,
      "start": 72.6611,
      "duration": 0.1511,
      "velocity": 127,
      "chip": "ym2612"
    },
    {
      "channel": 5,
      "note": 38,
      "start": 72.67,
      "duration": 0.1008,
      "velocity": 97,
      "chip": "ym2612"
    },
    {
      "channel": 4,
      "note": 38,
      "start": 72.7538,
      "duration": 0.0838,
      "velocity": 97,
      "chip": "ym2612"
    },
    {
      "channel": 0,
      "note": 62,
      "start": 72.8129,
      "duration": 0.1511,
      "velocity": 127,
      "chip": "ym2612"
    },
    {
      "channel": 1,
      "note": 17,
      "start": 72.8136,
      "duration": 1.2127,
      "velocity": 122,
      "chip": "ym2612"
    },
    {
      "channel": 2,
      "note": 38,
      "start": 72.8149,
      "duration": 0.3019,
      "velocity": 118,
      "chip": "ym2612"
    },
    {
      "channel": 3,
      "note": 27,
      "start": 72.8157,
      "duration": 0.15,
      "velocity": 114,
      "chip": "ym2612"
    },
    {
      "channel": 5,
      "note": 39,
      "start": 72.8215,
      "duration": 0.1009,
      "velocity": 96,
      "chip": "ym2612"
    },
    {
      "channel": 4,
      "note": 39,
      "start": 72.9053,
      "duration": 0.084,
      "velocity": 96,
      "chip": "ym2612"
    },
    {
      "channel": 0,
      "note": 62,
      "start": 72.9645,
      "duration": 0.1511,
      "velocity": 127,
      "chip": "ym2612"
    },
    {
      "channel": 3,
      "note": 27,
      "start": 72.9663,
      "duration": 0.1681,
      "velocity": 114,
      "chip": "ym2612"
    },
    {
      "channel": 5,
      "note": 41,
      "start": 72.9732,
      "duration": 0.1009,
      "velocity": 95,
      "chip": "ym2612"
    },
    {
      "channel": 4,
      "note": 41,
      "start": 73.0569,
      "duration": 0.084,
      "velocity": 95,
      "chip": "ym2612"
    },
    {
      "channel": 0,
      "note": 62,
      "start": 73.1162,
      "duration": 0.1511,
      "velocity": 127,
      "chip": "ym2612"
    },
    {
      "channel": 2,
      "note": 62,
      "start": 73.118,
      "duration": 0.252,
      "velocity": 127,
      "chip": "ym2612"
    },
    {
      "channel": 5,
      "note": 38,
      "start": 73.1249,
      "duration": 0.1009,
      "velocity": 94,
      "chip": "ym2612"
    },
    {
      "channel": 4,
      "note": 38,
      "start": 73.2086,
      "duration": 0.0841,
      "velocity": 94,
      "chip": "ym2612"
    },
    {
      "channel": 0,
      "note": 50,
      "start": 73.2679,
      "duration": 0.3028,
      "velocity": 127,
      "chip": "ym2612"
    },
    {
      "channel": 3,
      "note": 29,
      "start": 73.2699,
      "duration": 0.1681,
      "velocity": 114,
      "chip": "ym2612"
    },
    {
      "channel": 5,
      "note": 39,
      "start": 73.2765,
      "duration": 0.1009,
      "velocity": 93,
      "chip": "ym2612"
    },
    {
      "channel": 4,
      "note": 39,
      "start": 73.3603,
      "duration": 0.084,
      "velocity": 93,
      "chip": "ym2612"
    },
    {
      "channel": 2,
      "note": 38,
      "start": 73.4214,
      "duration": 0.302,
      "velocity": 118,
      "chip": "ym2612"
    },
    {
      "channel": 5,
      "note": 41,
      "start": 73.4283,
      "duration": 0.1009,
      "velocity": 92,
      "chip": "ym2612"
    },
    {
      "channel": 4,
      "note": 41,
      "start": 73.512,
      "duration": 0.0841,
      "velocity": 92,
      "chip": "ym2612"
    },
    {
      "channel": 0,
      "note": 50,
      "start": 73.5712,
      "duration": 1.3646,
      "velocity": 127,
      "chip": "ym2612"
    },
    {
      "channel": 3,
      "note": 26,
      "start": 73.573,
      "duration": 0.1681,
      "velocity": 114,
      "chip": "ym2612"
    },
    {
      "channel": 5,
      "note": 38,
      "start": 73.5799,
      "duration": 0.1009,
      "velocity": 91,
      "chip": "ym2612"
    },
    {
      "channel": 4,
      "note": 38,
      "start": 73.6637,
      "duration": 0.084,
      "velocity": 91,
      "chip": "ym2612"
    },
    {
      "channel": 2,
      "note": 62,
      "start": 73.7245,
      "duration": 0.252,
      "velocity": 127,
      "chip": "ym2612"
    },
    {
      "channel": 5,
      "note": 39,
      "start": 73.7316,
      "duration": 0.101,
      "velocity": 90,
      "chip": "ym2612"
    },
    {
      "channel": 4,
      "note": 39,
      "start": 73.8153,
      "duration": 0.084,
      "velocity": 90,
      "chip": "ym2612"
    },
    {
      "channel": 3,
      "note": 27,
      "start": 73.8761,
      "duration": 0.1683,
      "velocity": 114,
      "chip": "ym2612"
    },
    {
      "channel": 5,
      "note": 41,
      "start": 73.8833,
      "duration": 0.1009,
      "velocity": 89,
      "chip": "ym2612"
    },
    {
      "channel": 4,
      "note": 41,
      "start": 73.9671,
      "duration": 0.084,
      "velocity": 89,
      "chip": "ym2612"
    },
    {
      "channel": 1,
      "note": 17,
      "start": 74.0268,
      "duration": 0.1512,
      "velocity": 122,
      "chip": "ym2612"
    },
    {
      "channel": 2,
      "note": 38,
      "start": 74.0281,
      "duration": 0.302,
      "velocity": 118,
      "chip": "ym2612"
    },
    {
      "channel": 5,
      "note": 38,
      "start": 74.0349,
      "duration": 0.1009,
      "velocity": 88,
      "chip": "ym2612"
    },
    {
      "channel": 4,
      "note": 38,
      "start": 74.1187,
      "duration": 0.084,
      "velocity": 88,
      "chip": "ym2612"
    },
    {
      "channel": 1,
      "note": 17,
      "start": 74.1785,
      "duration": 1.0615,
      "velocity": 122,
      "chip": "ym2612"
    },
    {
      "channel": 3,
      "note": 27,
      "start": 74.1798,
      "duration": 0.1681,
      "velocity": 114,
      "chip": "ym2612"
    },
    {
      "channel": 5,
      "note": 39,
      "start": 74.1869,
      "duration": 0.1007,
      "velocity": 87,
      "chip": "ym2612"
    },
    {
      "channel": 4,
      "note": 39,
      "start": 74.2705,
      "duration": 0.0839,
      "velocity": 87,
      "chip": "ym2612"
    },
    {
      "channel": 2,
      "note": 62,
      "start": 74.3312,
      "duration": 0.252,
      "velocity": 127,
      "chip": "ym2612"
    },
    {
      "channel": 5,
      "note": 41,
      "start": 74.3383,
      "duration": 0.1009,
      "velocity": 86,
      "chip": "ym2612"
    },
    {
      "channel": 4,
      "note": 41,
      "start": 74.4221,
      "duration": 0.084,
      "velocity": 86,
      "chip": "ym2612"
    },
    {
      "channel": 3,
      "note": 29,
      "start": 74.4828,
      "duration": 0.152,
      "velocity": 114,
      "chip": "ym2612"
    },
    {
      "channel": 5,
      "note": 38,
      "start": 74.49,
      "duration": 0.1009,
      "velocity": 85,
      "chip": "ym2612"
    },
    {
      "channel": 4,
      "note": 38,
      "start": 74.5737,
      "duration": 0.0841,
      "velocity": 85,
      "chip": "ym2612"
    },
    {
      "channel": 2,
      "note": 38,
      "start": 74.6346,
      "duration": 0.3027,
      "velocity": 118,
      "chip": "ym2612"
    },
    {
      "channel": 3,
      "note": 26,
      "start": 74.6354,
      "duration": 0.1677,
      "velocity": 114,
      "chip": "ym2612"
    },
    {
      "channel": 5,
      "note": 39,
      "start": 74.6417,
      "duration": 0.1009,
      "velocity": 86,
      "chip": "ym2612"
    },
    {
      "channel": 4,
      "note": 39,
      "start": 74.7254,
      "duration": 0.084,
      "velocity": 86,
      "chip": "ym2612"
    },
    {
      "channel": 5,
      "note": 41,
      "start": 74.7933,
      "duration": 0.101,
      "velocity": 87,
      "chip": "ym2612"
    },
    {
      "channel": 4,
      "note": 41,
      "start": 74.8771,
      "duration": 0.084,
      "velocity": 87,
      "chip": "ym2612"
    },
    {
      "channel": 0,
      "note": 62,
      "start": 74.9366,
      "duration": 0.1508,
      "velocity": 127,
      "chip": "ym2612"
    },
    {
      "channel": 2,
      "note": 62,
      "start": 74.9384,
      "duration": 0.2515,
      "velocity": 127,
      "chip": "ym2612"
    },
    {
      "channel": 3,
      "note": 26,
      "start": 74.9393,
      "duration": 0.167,
      "velocity": 114,
      "chip": "ym2612"
    },
    {
      "channel": 5,
      "note": 38,
      "start": 74.945,
      "duration": 0.1009,
      "velocity": 88,
      "chip": "ym2612"
    },
    {
      "channel": 4,
      "note": 38,
      "start": 75.0288,
      "duration": 0.084,
      "velocity": 88,
      "chip": "ym2612"
    },
    {
      "channel": 0,
      "note": 62,
      "start": 75.088,
      "duration": 0.1511,
      "velocity": 127,
      "chip": "ym2612"
    },
    {
      "channel": 5,
      "note": 39,
      "start": 75.0967,
      "duration": 0.1009,
      "velocity": 89,
      "chip": "ym2612"
    },
    {
      "channel": 4,
      "note": 39,
      "start": 75.1805,
      "duration": 0.084,
      "velocity": 89,
      "chip": "ym2612"
    },
    {
      "channel": 0,
      "note": 62,
      "start": 75.2398,
      "duration": 0.1511,
      "velocity": 127,
      "chip": "ym2612"
    },
    {
      "channel": 1,
      "note": 17,
      "start": 75.2405,
      "duration": 1.213,
      "velocity": 122,
      "chip": "ym2612"
    },
    {
      "channel": 2,
      "note": 38,
      "start": 75.2418,
      "duration": 0.302,
      "velocity": 118,
      "chip": "ym2612"
    },
    {
      "channel": 3,
      "note": 27,
      "start": 75.2426,
      "duration": 0.15,
      "velocity": 114,
      "chip": "ym2612"
    },
    {
      "channel": 5,
      "note": 41,
      "start": 75.2484,
      "duration": 0.1009,
      "velocity": 90,
      "chip": "ym2612"
    },
    {
      "channel": 4,
      "note": 41,
      "start": 75.3321,
      "duration": 0.0841,
      "velocity": 90,
      "chip": "ym2612"
    },
    {
      "channel": 0,
      "note": 62,
      "start": 75.3914,
      "duration": 0.1512,
      "velocity": 127,
      "chip": "ym2612"
    },
    {
      "channel": 3,
      "note": 27,
      "start": 75.3932,
      "duration": 0.1681,
      "velocity": 114,
      "chip": "ym2612"
    },
    {
      "channel": 5,
      "note": 38,
      "start": 75.4001,
      "duration": 0.1009,
      "velocity": 91,
      "chip": "ym2612"
    },
    {
      "channel": 4,
      "note": 38,
      "start": 75.4839,
      "duration": 0.084,
      "velocity": 91,
      "chip": "ym2612"
    },
    {
      "channel": 0,
      "note": 62,
      "start": 75.5431,
      "duration": 0.1511,
      "velocity": 127,
      "chip": "ym2612"
    },
    {
      "channel": 2,
      "note": 62,
      "start": 75.5449,
      "duration": 0.2517,
      "velocity": 127,
      "chip": "ym2612"
    },
    {
      "channel": 5,
      "note": 39,
      "start": 75.5517,
      "duration": 0.101,
      "velocity": 92,
      "chip": "ym2612"
    },
    {
      "channel": 4,
      "note": 39,
      "start": 75.6355,
      "duration": 0.0842,
      "velocity": 92,
      "chip": "ym2612"
    },
    {
      "channel": 0,
      "note": 50,
      "start": 75.6948,
      "duration": 0.3028,
      "velocity": 127,
      "chip": "ym2612"
    },
    {
      "channel": 3,
      "note": 29,
      "start": 75.6966,
      "duration": 0.168,
      "velocity": 114,
      "chip": "ym2612"
    },
    {
      "channel": 5,
      "note": 41,
      "start": 75.7037,
      "duration": 0.1006,
      "velocity": 93,
      "chip": "ym2612"
    },
    {
      "channel": 4,
      "note": 41,
      "start": 75.7873,
      "duration": 0.084,
      "velocity": 93,
      "chip": "ym2612"
    },
    {
      "channel": 2,
      "note": 38,
      "start": 75.848,
      "duration": 0.3022,
      "velocity": 118,
      "chip": "ym2612"
    },
    {
      "channel": 5,
      "note": 38,
      "start": 75.8551,
      "duration": 0.101,
      "velocity": 94,
      "chip": "ym2612"
    },
    {
      "channel": 4,
      "note": 38,
      "start": 75.9389,
      "duration": 0.084,
      "velocity": 94,
      "chip": "ym2612"
    },
    {
      "channel": 0,
      "note": 50,
      "start": 75.9982,
      "duration": 1.3646,
      "velocity": 127,
      "chip": "ym2612"
    },
    {
      "channel": 3,
      "note": 26,
      "start": 75.9999,
      "duration": 0.1681,
      "velocity": 114,
      "chip": "ym2612"
    },
    {
      "channel": 5,
      "note": 39,
      "start": 76.0068,
      "duration": 0.1009,
      "velocity": 95,
      "chip": "ym2612"
    },
    {
      "channel": 4,
      "note": 39,
      "start": 76.0906,
      "duration": 0.084,
      "velocity": 95,
      "chip": "ym2612"
    },
    {
      "channel": 2,
      "note": 62,
      "start": 76.1514,
      "duration": 0.2522,
      "velocity": 127,
      "chip": "ym2612"
    },
    {
      "channel": 5,
      "note": 41,
      "start": 76.1585,
      "duration": 0.1009,
      "velocity": 96,
      "chip": "ym2612"
    },
    {
      "channel": 4,
      "note": 41,
      "start": 76.2422,
      "duration": 0.084,
      "velocity": 96,
      "chip": "ym2612"
    },
    {
      "channel": 3,
      "note": 27,
      "start": 76.3033,
      "duration": 0.1683,
      "velocity": 114,
      "chip": "ym2612"
    },
    {
      "channel": 5,
      "note": 38,
      "start": 76.3102,
      "duration": 0.1009,
      "velocity": 97,
      "chip": "ym2612"
    },
    {
      "channel": 4,
      "note": 38,
      "start": 76.3939,
      "duration": 0.0841,
      "velocity": 97,
      "chip": "ym2612"
    },
    {
      "channel": 1,
      "note": 17,
      "start": 76.4539,
      "duration": 0.4543,
      "velocity": 122,
      "chip": "ym2612"
    },
    {
      "channel": 2,
      "note": 38,
      "start": 76.4553,
      "duration": 0.3017,
      "velocity": 118,
      "chip": "ym2612"
    },
    {
      "channel": 5,
      "note": 39,
      "start": 76.4618,
      "duration": 0.1009,
      "velocity": 98,
      "chip": "ym2612"
    },
    {
      "channel": 4,
      "note": 39,
      "start": 76.5456,
      "duration": 0.084,
      "velocity": 98,
      "chip": "ym2612"
    },
    {
      "channel": 3,
      "note": 27,
      "start": 76.6064,
      "duration": 0.1684,
      "velocity": 114,
      "chip": "ym2612"
    },
    {
      "channel": 5,
      "note": 41,
      "start": 76.6136,
      "duration": 0.1009,
      "velocity": 99,
      "chip": "ym2612"
    },
    {
      "channel": 4,
      "note": 41,
      "start": 76.6973,
      "duration": 0.084,
      "velocity": 99,
      "chip": "ym2612"
    },
    {
      "channel": 2,
      "note": 62,
      "start": 76.7581,
      "duration": 0.252,
      "velocity": 127,
      "chip": "ym2612"
    },
    {
      "channel": 5,
      "note": 38,
      "start": 76.7652,
      "duration": 0.1009,
      "velocity": 100,
      "chip": "ym2612"
    },
    {
      "channel": 4,
      "note": 38,
      "start": 76.849,
      "duration": 0.084,
      "velocity": 100,
      "chip": "ym2612"
    },
    {
      "channel": 1,
      "note": 17,
      "start": 76.9087,
      "duration": 0.7581,
      "velocity": 122,
      "chip": "ym2612"
    },
    {
      "channel": 3,
      "note": 29,
      "start": 76.91,
      "duration": 0.1517,
      "velocity": 114,
      "chip": "ym2612"
    },
    {
      "channel": 5,
      "note": 39,
      "start": 76.9168,
      "duration": 0.1009,
      "velocity": 100,
      "chip": "ym2612"
    },
    {
      "channel": 4,
      "note": 39,
      "start": 77.0006,
      "duration": 0.1512,
      "velocity": 100,
      "chip": "ym2612"
    },
    {
      "channel": 2,
      "note": 38,
      "start": 77.0615,
      "duration": 0.3025,
      "velocity": 118,
      "chip": "ym2612"
    },
    {
      "channel": 3,
      "note": 26,
      "start": 77.0623,
      "duration": 0.1675,
      "velocity": 114,
      "chip": "ym2612"
    },
    {
      "channel": 5,
      "note": 38,
      "start": 77.0686,
      "duration": 0.1009,
      "velocity": 100,
      "chip": "ym2612"
    },
    {
      "channel": 4,
      "note": 38,
      "start": 77.1523,
      "duration": 0.0844,
      "velocity": 100,
      "chip": "ym2612"
    },
    {
      "channel": 5,
      "note": 39,
      "start": 77.2205,
      "duration": 0.1006,
      "velocity": 99,
      "chip": "ym2612"
    },
    {
      "channel": 4,
      "note": 39,
      "start": 77.304,
      "duration": 0.084,
      "velocity": 99,
      "chip": "ym2612"
    },
    {
      "channel": 0,
      "note": 62,
      "start": 77.3633,
      "duration": 0.1511,
      "velocity": 127,
      "chip": "ym2612"
    },
    {
      "channel": 2,
      "note": 62,
      "start": 77.3651,
      "duration": 0.2517,
      "velocity": 127,
      "chip": "ym2612"
    },
    {
      "channel": 3,
      "note": 26,
      "start": 77.3659,
      "duration": 0.1673,
      "velocity": 114,
      "chip": "ym2612"
    },
    {
      "channel": 5,
      "note": 41,
      "start": 77.372,
      "duration": 0.1009,
      "velocity": 98,
      "chip": "ym2612"
    },
    {
      "channel": 4,
      "note": 41,
      "start": 77.4557,
      "duration": 0.0841,
      "velocity": 98,
      "chip": "ym2612"
    },
    {
      "channel": 0,
      "note": 62,
      "start": 77.5149,
      "duration": 0.1512,
      "velocity": 127,
      "chip": "ym2612"
    },
    {
      "channel": 5,
      "note": 38,
      "start": 77.5236,
      "duration": 0.1009,
      "velocity": 97,
      "chip": "ym2612"
    },
    {
      "channel": 4,
      "note": 38,
      "start": 77.6074,
      "duration": 0.084,
      "velocity": 97,
      "chip": "ym2612"
    },
    {
      "channel": 0,
      "note": 62,
      "start": 77.6666,
      "duration": 0.1512,
      "velocity": 127,
      "chip": "ym2612"
    },
    {
      "channel": 1,
      "note": 17,
      "start": 77.6674,
      "duration": 1.2127,
      "velocity": 122,
      "chip": "ym2612"
    },
    {
      "channel": 2,
      "note": 38,
      "start": 77.6687,
      "duration": 0.3022,
      "velocity": 118,
      "chip": "ym2612"
    },
    {
      "channel": 3,
      "note": 27,
      "start": 77.6696,
      "duration": 0.1501,
      "velocity": 114,
      "chip": "ym2612"
    },
    {
      "channel": 5,
      "note": 39,
      "start": 77.6753,
      "duration": 0.1009,
      "velocity": 96,
      "chip": "ym2612"
    },
    {
      "channel": 4,
      "note": 39,
      "start": 77.759,
      "duration": 0.084,
      "velocity": 96,
      "chip": "ym2612"
    },
    {
      "channel": 0,
      "note": 62,
      "start": 77.8183,
      "duration": 0.1512,
      "velocity": 127,
      "chip": "ym2612"
    },
    {
      "channel": 3,
      "note": 27,
      "start": 77.8204,
      "duration": 0.168,
      "velocity": 114,
      "chip": "ym2612"
    },
    {
      "channel": 5,
      "note": 41,
      "start": 77.827,
      "duration": 0.1009,
      "velocity": 95,
      "chip": "ym2612"
    },
    {
      "channel": 4,
      "note": 41,
      "start": 77.9107,
      "duration": 0.084,
      "velocity": 95,
      "chip": "ym2612"
    },
    {
      "channel": 0,
      "note": 62,
      "start": 77.9702,
      "duration": 0.1509,
      "velocity": 127,
      "chip": "ym2612"
    },
    {
      "channel": 2,
      "note": 62,
      "start": 77.9721,
      "duration": 0.2515,
      "velocity": 127,
      "chip": "ym2612"
    },
    {
      "channel": 5,
      "note": 38,
      "start": 77.9786,
      "duration": 0.101,
      "velocity": 94,
      "chip": "ym2612"
    },
    {
      "channel": 4,
      "note": 38,
      "start": 78.0624,
      "duration": 0.084,
      "velocity": 94,
      "chip": "ym2612"
    },
    {
      "channel": 0,
      "note": 50,
      "start": 78.1217,
      "duration": 0.3028,
      "velocity": 127,
      "chip": "ym2612"
    },
    {
      "channel": 3,
      "note": 29,
      "start": 78.1234,
      "duration": 0.1681,
      "velocity": 114,
      "chip": "ym2612"
    },
    {
      "channel": 5,
      "note": 39,
      "start": 78.1303,
      "duration": 0.1009,
      "velocity": 93,
      "chip": "ym2612"
    },
    {
      "channel": 4,
      "note": 39,
      "start": 78.2141,
      "duration": 0.0841,
      "velocity": 93,
      "chip": "ym2612"
    },
    {
      "channel": 2,
      "note": 38,
      "start": 78.2749,
      "duration": 0.3022,
      "velocity": 118,
      "chip": "ym2612"
    },
    {
      "channel": 5,
      "note": 41,
      "start": 78.282,
      "duration": 0.1009,
      "velocity": 92,
      "chip": "ym2612"
    },
    {
      "channel": 4,
      "note": 41,
      "start": 78.3658,
      "duration": 0.084,
      "velocity": 92,
      "chip": "ym2612"
    },
    {
      "channel": 0,
      "note": 50,
      "start": 78.4251,
      "duration": 1.3646,
      "velocity": 127,
      "chip": "ym2612"
    },
    {
      "channel": 3,
      "note": 26,
      "start": 78.4268,
      "duration": 0.1681,
      "velocity": 114,
      "chip": "ym2612"
    },
    {
      "channel": 5,
      "note": 38,
      "start": 78.4337,
      "duration": 0.1009,
      "velocity": 91,
      "chip": "ym2612"
    },
    {
      "channel": 4,
      "note": 38,
      "start": 78.5174,
      "duration": 0.0841,
      "velocity": 91,
      "chip": "ym2612"
    },
    {
      "channel": 2,
      "note": 62,
      "start": 78.5783,
      "duration": 0.252,
      "velocity": 127,
      "chip": "ym2612"
    },
    {
      "channel": 5,
      "note": 39,
      "start": 78.5854,
      "duration": 0.1011,
      "velocity": 90,
      "chip": "ym2612"
    },
    {
      "channel": 4,
      "note": 39,
      "start": 78.6691,
      "duration": 0.0843,
      "velocity": 90,
      "chip": "ym2612"
    },
    {
      "channel": 3,
      "note": 27,
      "start": 78.7299,
      "duration": 0.1683,
      "velocity": 114,
      "chip": "ym2612"
    },
    {
      "channel": 5,
      "note": 41,
      "start": 78.7373,
      "duration": 0.1006,
      "velocity": 89,
      "chip": "ym2612"
    },
    {
      "channel": 4,
      "note": 41,
      "start": 78.8208,
      "duration": 0.084,
      "velocity": 89,
      "chip": "ym2612"
    },
    {
      "channel": 1,
      "note": 17,
      "start": 78.8806,
      "duration": 0.1512,
      "velocity": 122,
      "chip": "ym2612"
    },
    {
      "channel": 2,
      "note": 38,
      "start": 78.8819,
      "duration": 0.302,
      "velocity": 118,
      "chip": "ym2612"
    },
    {
      "channel": 5,
      "note": 38,
      "start": 78.8888,
      "duration": 0.1009,
      "velocity": 88,
      "chip": "ym2612"
    },
    {
      "channel": 4,
      "note": 38,
      "start": 78.9725,
      "duration": 0.084,
      "velocity": 88,
      "chip": "ym2612"
    },
    {
      "channel": 1,
      "note": 17,
      "start": 79.0322,
      "duration": 1.0615,
      "velocity": 122,
      "chip": "ym2612"
    },
    {
      "channel": 3,
      "note": 27,
      "start": 79.0335,
      "duration": 0.1681,
      "velocity": 114,
      "chip": "ym2612"
    },
    {
      "channel": 5,
      "note": 39,
      "start": 79.0404,
      "duration": 0.1009,
      "velocity": 87,
      "chip": "ym2612"
    },
    {
      "channel": 4,
      "note": 39,
      "start": 79.1242,
      "duration": 0.084,
      "velocity": 87,
      "chip": "ym2612"
    },
    {
      "channel": 2,
      "note": 62,
      "start": 79.1851,
      "duration": 0.2522,
      "velocity": 127,
      "chip": "ym2612"
    },
    {
      "channel": 5,
      "note": 41,
      "start": 79.1921,
      "duration": 0.1009,
      "velocity": 86,
      "chip": "ym2612"
    },
    {
      "channel": 4,
      "note": 41,
      "start": 79.2758,
      "duration": 0.0841,
      "velocity": 86,
      "chip": "ym2612"
    },
    {
      "channel": 3,
      "note": 29,
      "start": 79.3369,
      "duration": 0.152,
      "velocity": 114,
      "chip": "ym2612"
    },
    {
      "channel": 5,
      "note": 38,
      "start": 79.3438,
      "duration": 0.1009,
      "velocity": 85,
      "chip": "ym2612"
    },
    {
      "channel": 4,
      "note": 38,
      "start": 79.4276,
      "duration": 0.084,
      "velocity": 85,
      "chip": "ym2612"
    },
    {
      "channel": 2,
      "note": 38,
      "start": 79.4887,
      "duration": 0.3022,
      "velocity": 118,
      "chip": "ym2612"
    },
    {
      "channel": 3,
      "note": 26,
      "start": 79.4894,
      "duration": 0.1673,
      "velocity": 114,
      "chip": "ym2612"
    },
    {
      "channel": 5,
      "note": 39,
      "start": 79.4955,
      "duration": 0.1009,
      "velocity": 86,
      "chip": "ym2612"
    },
    {
      "channel": 4,
      "note": 39,
      "start": 79.5792,
      "duration": 0.084,
      "velocity": 86,
      "chip": "ym2612"
    },
    {
      "channel": 5,
      "note": 41,
      "start": 79.6471,
      "duration": 0.1009,
      "velocity": 87,
      "chip": "ym2612"
    },
    {
      "channel": 4,
      "note": 41,
      "start": 79.7309,
      "duration": 0.084,
      "velocity": 87,
      "chip": "ym2612"
    },
    {
      "channel": 0,
      "note": 62,
      "start": 79.7902,
      "duration": 0.1511,
      "velocity": 127,
      "chip": "ym2612"
    },
    {
      "channel": 2,
      "note": 62,
      "start": 79.792,
      "duration": 0.2517,
      "velocity": 127,
      "chip": "ym2612"
    },
    {
      "channel": 3,
      "note": 26,
      "start": 79.7927,
      "duration": 0.1673,
      "velocity": 114,
      "chip": "ym2612"
    },
    {
      "channel": 5,
      "note": 38,
      "start": 79.7988,
      "duration": 0.101,
      "velocity": 88,
      "chip": "ym2612"
    },
    {
      "channel": 4,
      "note": 38,
      "start": 79.8826,
      "duration": 0.084,
      "velocity": 88,
      "chip": "ym2612"
    },
    {
      "channel": 0,
      "note": 62,
      "start": 79.9419,
      "duration": 0.1511,
      "velocity": 127,
      "chip": "ym2612"
    },
    {
      "channel": 5,
      "note": 39,
      "start": 79.9505,
      "duration": 0.1009,
      "velocity": 89,
      "chip": "ym2612"
    },
    {
      "channel": 4,
      "note": 39,
      "start": 80.0343,
      "duration": 0.084,
      "velocity": 89,
      "chip": "ym2612"
    },
    {
      "channel": 0,
      "note": 62,
      "start": 80.0935,
      "duration": 0.1511,
      "velocity": 127,
      "chip": "ym2612"
    },
    {
      "channel": 1,
      "note": 17,
      "start": 80.0943,
      "duration": 1.2127,
      "velocity": 122,
      "chip": "ym2612"
    },
    {
      "channel": 2,
      "note": 38,
      "start": 80.0956,
      "duration": 0.302,
      "velocity": 118,
      "chip": "ym2612"
    },
    {
      "channel": 3,
      "note": 27,
      "start": 80.0964,
      "duration": 0.1501,
      "velocity": 114,
      "chip": "ym2612"
    },
    {
      "channel": 5,
      "note": 41,
      "start": 80.1022,
      "duration": 0.1012,
      "velocity": 90,
      "chip": "ym2612"
    },
    {
      "channel": 4,
      "note": 41,
      "start": 80.1859,
      "duration": 0.0843,
      "velocity": 90,
      "chip": "ym2612"
    },
    {
      "channel": 0,
      "note": 62,
      "start": 80.2452,
      "duration": 0.1511,
      "velocity": 127,
      "chip": "ym2612"
    },
    {
      "channel": 3,
      "note": 27,
      "start": 80.2469,
      "duration": 0.1681,
      "velocity": 114,
      "chip": "ym2612"
    },
    {
      "channel": 5,
      "note": 38,
      "start": 80.2541,
      "duration": 0.1006,
      "velocity": 91,
      "chip": "ym2612"
    },
    {
      "channel": 4,
      "note": 38,
      "start": 80.3376,
      "duration": 0.0841,
      "velocity": 91,
      "chip": "ym2612"
    },
    {
      "channel": 0,
      "note": 62,
      "start": 80.3969,
      "duration": 0.1511,
      "velocity": 127,
      "chip": "ym2612"
    },
    {
      "channel": 2,
      "note": 62,
      "start": 80.3987,
      "duration": 0.2517,
      "velocity": 127,
      "chip": "ym2612"
    },
    {
      "channel": 5,
      "note": 39,
      "start": 80.4055,
      "duration": 0.1009,
      "velocity": 92,
      "chip": "ym2612"
    },
    {
      "channel": 4,
      "note": 39,
      "start": 80.4893,
      "duration": 0.084,
      "velocity": 92,
      "chip": "ym2612"
    },
    {
      "channel": 0,
      "note": 50,
      "start": 80.5486,
      "duration": 0.3028,
      "velocity": 127,
      "chip": "ym2612"
    },
    {
      "channel": 3,
      "note": 29,
      "start": 80.5503,
      "duration": 0.1681,
      "velocity": 114,
      "chip": "ym2612"
    },
    {
      "channel": 5,
      "note": 41,
      "start": 80.5573,
      "duration": 0.1009,
      "velocity": 93,
      "chip": "ym2612"
    },
    {
      "channel": 4,
      "note": 41,
      "start": 80.641,
      "duration": 0.0841,
      "velocity": 93,
      "chip": "ym2612"
    },
    {
      "channel": 2,
      "note": 38,
      "start": 80.7018,
      "duration": 0.3025,
      "velocity": 118,
      "chip": "ym2612"
    },
    {
      "channel": 5,
      "note": 38,
      "start": 80.7089,
      "duration": 0.1009,
      "velocity": 94,
      "chip": "ym2612"
    },
    {
      "channel": 4,
      "note": 38,
      "start": 80.7927,
      "duration": 0.084,
      "velocity": 94,
      "chip": "ym2612"
    },
    {
      "channel": 0,
      "note": 50,
      "start": 80.8519,
      "duration": 1.3646,
      "velocity": 127,
      "chip": "ym2612"
    },
    {
      "channel": 3,
      "note": 26,
      "start": 80.8539,
      "duration": 0.1681,
      "velocity": 114,
      "chip": "ym2612"
    },
    {
      "channel": 5,
      "note": 39,
      "start": 80.8606,
      "duration": 0.1009,
      "velocity": 95,
      "chip": "ym2612"
    },
    {
      "channel": 4,
      "note": 39,
      "start": 80.9443,
      "duration": 0.084,
      "velocity": 95,
      "chip": "ym2612"
    },
    {
      "channel": 2,
      "note": 62,
      "start": 81.0055,
      "duration": 0.2517,
      "velocity": 127,
      "chip": "ym2612"
    },
    {
      "channel": 5,
      "note": 41,
      "start": 81.0123,
      "duration": 0.1009,
      "velocity": 96,
      "chip": "ym2612"
    },
    {
      "channel": 4,
      "note": 41,
      "start": 81.0961,
      "duration": 0.084,
      "velocity": 96,
      "chip": "ym2612"
    },
    {
      "channel": 3,
      "note": 27,
      "start": 81.1568,
      "duration": 0.1683,
      "velocity": 114,
      "chip": "ym2612"
    },
    {
      "channel": 5,
      "note": 38,
      "start": 81.1639,
      "duration": 0.101,
      "velocity": 97,
      "chip": "ym2612"
    },
    {
      "channel": 4,
      "note": 38,
      "start": 81.2477,
      "duration": 0.084,
      "velocity": 97,
      "chip": "ym2612"
    },
    {
      "channel": 1,
      "note": 17,
      "start": 81.3075,
      "duration": 0.4545,
      "velocity": 122,
      "chip": "ym2612"
    },
    {
      "channel": 2,
      "note": 38,
      "start": 81.3088,
      "duration": 0.302,
      "velocity": 118,
      "chip": "ym2612"
    },
    {
      "channel": 5,
      "note": 39,
      "start": 81.3156,
      "duration": 0.1009,
      "velocity": 98,
      "chip": "ym2612"
    },
    {
      "channel": 4,
      "note": 39,
      "start": 81.3994,
      "duration": 0.084,
      "velocity": 98,
      "chip": "ym2612"
    },
    {
      "channel": 3,
      "note": 27,
      "start": 81.4602,
      "duration": 0.1683,
      "velocity": 114,
      "chip": "ym2612"
    },
    {
      "channel": 5,
      "note": 41,
      "start": 81.4673,
      "duration": 0.1009,
      "velocity": 99,
      "chip": "ym2612"
    },
    {
      "channel": 4,
      "note": 41,
      "start": 81.5511,
      "duration": 0.084,
      "velocity": 99,
      "chip": "ym2612"
    },
    {
      "channel": 2,
      "note": 62,
      "start": 81.6119,
      "duration": 0.252,
      "velocity": 127,
      "chip": "ym2612"
    },
    {
      "channel": 5,
      "note": 38,
      "start": 81.619,
      "duration": 0.1011,
      "velocity": 100,
      "chip": "ym2612"
    },
    {
      "channel": 4,
      "note": 38,
      "start": 81.7027,
      "duration": 0.0843,
      "velocity": 100,
      "chip": "ym2612"
    },
    {
      "channel": 1,
      "note": 17,
      "start": 81.7625,
      "duration": 0.7584,
      "velocity": 122,
      "chip": "ym2612"
    },
    {
      "channel": 3,
      "note": 29,
      "start": 81.7638,
      "duration": 0.1517,
      "velocity": 114,
      "chip": "ym2612"
    },
    {
      "channel": 5,
      "note": 39,
      "start": 81.7709,
      "duration": 0.1006,
      "velocity": 100,
      "chip": "ym2612"
    },
    {
      "channel": 4,
      "note": 39,
      "start": 81.8544,
      "duration": 0.1512,
      "velocity": 100,
      "chip": "ym2612"
    },
    {
      "channel": 2,
      "note": 38,
      "start": 81.9153,
      "duration": 0.3025,
      "velocity": 118,
      "chip": "ym2612"
    },
    {
      "channel": 3,
      "note": 26,
      "start": 81.916,
      "duration": 0.1675,
      "velocity": 114,
      "chip": "ym2612"
    },
    {
      "channel": 5,
      "note": 38,
      "start": 81.9223,
      "duration": 0.101,
      "velocity": 100,
      "chip": "ym2612"
    },
    {
      "channel": 4,
      "note": 38,
      "start": 82.0061,
      "duration": 0.084,
      "velocity": 100,
      "chip": "ym2612"
    },
    {
      "channel": 5,
      "note": 39,
      "start": 82.074,
      "duration": 0.1009,
      "velocity": 99,
      "chip": "ym2612"
    },
    {
      "channel": 4,
      "note": 39,
      "start": 82.1578,
      "duration": 0.084,
      "velocity": 99,
      "chip": "ym2612"
    },
    {
      "channel": 0,
      "note": 62,
      "start": 82.2171,
      "duration": 0.1511,
      "velocity": 127,
      "chip": "ym2612"
    },
    {
      "channel": 2,
      "note": 62,
      "start": 82.2189,
      "duration": 0.252,
      "velocity": 127,
      "chip": "ym2612"
    },
    {
      "channel": 3,
      "note": 26,
      "start": 82.2199,
      "duration": 0.1672,
      "velocity": 114,
      "chip": "ym2612"
    },
    {
      "channel": 5,
      "note": 41,
      "start": 82.2257,
      "duration": 0.1009,
      "velocity": 98,
      "chip": "ym2612"
    },
    {
      "channel": 4,
      "note": 41,
      "start": 82.3095,
      "duration": 0.084,
      "velocity": 98,
      "chip": "ym2612"
    },
    {
      "channel": 0,
      "note": 62,
      "start": 82.3688,
      "duration": 0.1513,
      "velocity": 127,
      "chip": "ym2612"
    },
    {
      "channel": 5,
      "note": 38,
      "start": 82.3774,
      "duration": 0.1009,
      "velocity": 97,
      "chip": "ym2612"
    },
    {
      "channel": 4,
      "note": 38,
      "start": 82.4611,
      "duration": 0.0841,
      "velocity": 97,
      "chip": "ym2612"
    },
    {
      "channel": 0,
      "note": 62,
      "start": 82.5207,
      "duration": 0.1509,
      "velocity": 127,
      "chip": "ym2612"
    },
    {
      "channel": 1,
      "note": 17,
      "start": 82.5214,
      "duration": 1.2125,
      "velocity": 122,
      "chip": "ym2612"
    },
    {
      "channel": 2,
      "note": 38,
      "start": 82.5228,
      "duration": 0.3017,
      "velocity": 118,
      "chip": "ym2612"
    },
    {
      "channel": 3,
      "note": 27,
      "start": 82.5235,
      "duration": 0.1498,
      "velocity": 114,
      "chip": "ym2612"
    },
    {
      "channel": 5,
      "note": 39,
      "start": 82.5291,
      "duration": 0.1009,
      "velocity": 96,
      "chip": "ym2612"
    },
    {
      "channel": 4,
      "note": 39,
      "start": 82.6129,
      "duration": 0.084,
      "velocity": 96,
      "chip": "ym2612"
    },
    {
      "channel": 0,
      "note": 62,
      "start": 82.6721,
      "duration": 0.1511,
      "velocity": 127,
      "chip": "ym2612"
    },
    {
      "channel": 3,
      "note": 27,
      "start": 82.6739,
      "duration": 0.1681,
      "velocity": 114,
      "chip": "ym2612"
    },
    {
      "channel": 5,
      "note": 41,
      "start": 82.6808,
      "duration": 0.1009,
      "velocity": 95,
      "chip": "ym2612"
    },
    {
      "channel": 4,
      "note": 41,
      "start": 82.7645,
      "duration": 0.0841,
      "velocity": 95,
      "chip": "ym2612"
    },
    {
      "channel": 0,
      "note": 62,
      "start": 82.8238,
      "duration": 0.1512,
      "velocity": 127,
      "chip": "ym2612"
    },
    {
      "channel": 2,
      "note": 62,
      "start": 82.8256,
      "duration": 0.2517,
      "velocity": 127,
      "chip": "ym2612"
    },
    {
      "channel": 5,
      "note": 38,
      "start": 82.8324,
      "duration": 0.1009,
      "velocity": 94,
      "chip": "ym2612"
    },
    {
      "channel": 4,
      "note": 38,
      "start": 82.9162,
      "duration": 0.084,
      "velocity": 94,
      "chip": "ym2612"
    },
    {
      "channel": 0,
      "note": 50,
      "start": 82.9754,
      "duration": 0.3028,
      "velocity": 127,
      "chip": "ym2612"
    },
    {
      "channel": 3,
      "note": 29,
      "start": 82.9772,
      "duration": 0.168,
      "velocity": 114,
      "chip": "ym2612"
    },
    {
      "channel": 5,
      "note": 39,
      "start": 82.9841,
      "duration": 0.101,
      "velocity": 93,
      "chip": "ym2612"
    },
    {
      "channel": 4,
      "note": 39,
      "start": 83.0679,
      "duration": 0.084,
      "velocity": 93,
      "chip": "ym2612"
    },
    {
      "channel": 2,
      "note": 38,
      "start": 83.1288,
      "duration": 0.3022,
      "velocity": 118,
      "chip": "ym2612"
    },
    {
      "channel": 5,
      "note": 41,
      "start": 83.1358,
      "duration": 0.1012,
      "velocity": 92,
      "chip": "ym2612"
    },
    {
      "channel": 4,
      "note": 41,
      "start": 83.2197,
      "duration": 0.084,
      "velocity": 92,
      "chip": "ym2612"
    },
    {
      "channel": 0,
      "note": 50,
      "start": 83.2788,
      "duration": 1.3646,
      "velocity": 127,
      "chip": "ym2612"
    },
    {
      "channel": 3,
      "note": 26,
      "start": 83.2806,
      "duration": 0.1681,
      "velocity": 114,
      "chip": "ym2612"
    },
    {
      "channel": 5,
      "note": 38,
      "start": 83.2877,
      "duration": 0.1007,
      "velocity": 91,
      "chip": "ym2612"
    },
    {
      "channel": 4,
      "note": 38,
      "start": 83.3712,
      "duration": 0.084,
      "velocity": 91,
      "chip": "ym2612"
    },
    {
      "channel": 2,
      "note": 62,
      "start": 83.4321,
      "duration": 0.252,
      "velocity": 127,
      "chip": "ym2612"
    },
    {
      "channel": 5,
      "note": 39,
      "start": 83.4392,
      "duration": 0.1009,
      "velocity": 90,
      "chip": "ym2612"
    },
    {
      "channel": 4,
      "note": 39,
      "start": 83.523,
      "duration": 0.084,
      "velocity": 90,
      "chip": "ym2612"
    },
    {
      "channel": 3,
      "note": 27,
      "start": 83.5837,
      "duration": 0.1683,
      "velocity": 114,
      "chip": "ym2612"
    },
    {
      "channel": 5,
      "note": 41,
      "start": 83.5908,
      "duration": 0.1009,
      "velocity": 89,
      "chip": "ym2612"
    },
    {
      "channel": 4,
      "note": 41,
      "start": 83.6746,
      "duration": 0.084,
      "velocity": 89,
      "chip": "ym2612"
    },
    {
      "channel": 1,
      "note": 17,
      "start": 83.7344,
      "duration": 0.1511,
      "velocity": 122,
      "chip": "ym2612"
    },
    {
      "channel": 2,
      "note": 38,
      "start": 83.7357,
      "duration": 0.3022,
      "velocity": 118,
      "chip": "ym2612"
    },
    {
      "channel": 5,
      "note": 38,
      "start": 83.7426,
      "duration": 0.1009,
      "velocity": 88,
      "chip": "ym2612"
    },
    {
      "channel": 4,
      "note": 38,
      "start": 83.8263,
      "duration": 0.084,
      "velocity": 88,
      "chip": "ym2612"
    },
    {
      "channel": 1,
      "note": 17,
      "start": 83.8861,
      "duration": 1.0615,
      "velocity": 122,
      "chip": "ym2612"
    },
    {
      "channel": 3,
      "note": 27,
      "start": 83.8876,
      "duration": 0.1679,
      "velocity": 114,
      "chip": "ym2612"
    },
    {
      "channel": 5,
      "note": 39,
      "start": 83.8942,
      "duration": 0.1009,
      "velocity": 87,
      "chip": "ym2612"
    },
    {
      "channel": 4,
      "note": 39,
      "start": 83.978,
      "duration": 0.084,
      "velocity": 87,
      "chip": "ym2612"
    },
    {
      "channel": 2,
      "note": 62,
      "start": 84.0391,
      "duration": 0.2517,
      "velocity": 127,
      "chip": "ym2612"
    },
    {
      "channel": 5,
      "note": 41,
      "start": 84.0459,
      "duration": 0.101,
      "velocity": 86,
      "chip": "ym2612"
    },
    {
      "channel": 4,
      "note": 41,
      "start": 84.1296,
      "duration": 0.084,
      "velocity": 86,
      "chip": "ym2612"
    },
    {
      "channel": 3,
      "note": 29,
      "start": 84.1905,
      "duration": 0.152,
      "velocity": 114,
      "chip": "ym2612"
    },
    {
      "channel": 5,
      "note": 38,
      "start": 84.1976,
      "duration": 0.1009,
      "velocity": 85,
      "chip": "ym2612"
    },
    {
      "channel": 4,
      "note": 38,
      "start": 84.2814,
      "duration": 0.084,
      "velocity": 85,
      "chip": "ym2612"
    },
    {
      "channel": 2,
      "note": 38,
      "start": 84.3422,
      "duration": 0.3025,
      "velocity": 118,
      "chip": "ym2612"
    },
    {
      "channel": 3,
      "note": 26,
      "start": 84.3429,
      "duration": 0.1675,
      "velocity": 114,
      "chip": "ym2612"
    },
    {
      "channel": 5,
      "note": 39,
      "start": 84.3492,
      "duration": 0.1009,
      "velocity": 86,
      "chip": "ym2612"
    },
    {
      "channel": 4,
      "note": 39,
      "start": 84.433,
      "duration": 0.084,
      "velocity": 86,
      "chip": "ym2612"
    },
    {
      "channel": 5,
      "note": 41,
      "start": 84.501,
      "duration": 0.1009,
      "velocity": 87,
      "chip": "ym2612"
    },
    {
      "channel": 4,
      "note": 41,
      "start": 84.5847,
      "duration": 0.0841,
      "velocity": 87,
      "chip": "ym2612"
    },
    {
      "channel": 0,
      "note": 62,
      "start": 84.644,
      "duration": 0.1511,
      "velocity": 127,
      "chip": "ym2612"
    },
    {
      "channel": 2,
      "note": 62,
      "start": 84.6458,
      "duration": 0.2517,
      "velocity": 127,
      "chip": "ym2612"
    },
    {
      "channel": 3,
      "note": 26,
      "start": 84.6466,
      "duration": 0.1672,
      "velocity": 114,
      "chip": "ym2612"
    },
    {
      "channel": 5,
      "note": 38,
      "start": 84.6526,
      "duration": 0.1012,
      "velocity": 88,
      "chip": "ym2612"
    },
    {
      "channel": 4,
      "note": 38,
      "start": 84.7366,
      "duration": 0.0838,
      "velocity": 88,
      "chip": "ym2612"
    },
    {
      "channel": 0,
      "note": 62,
      "start": 84.7957,
      "duration": 0.1511,
      "velocity": 127,
      "chip": "ym2612"
    },
    {
      "channel": 5,
      "note": 39,
      "start": 84.8044,
      "duration": 0.1008,
      "velocity": 89,
      "chip": "ym2612"
    },
    {
      "channel": 4,
      "note": 39,
      "start": 84.888,
      "duration": 0.084,
      "velocity": 89,
      "chip": "ym2612"
    },
    {
      "channel": 0,
      "note": 62,
      "start": 84.9473,
      "duration": 0.1512,
      "velocity": 127,
      "chip": "ym2612"
    },
    {
      "channel": 1,
      "note": 17,
      "start": 84.9481,
      "duration": 1.2127,
      "velocity": 122,
      "chip": "ym2612"
    },
    {
      "channel": 2,
      "note": 38,
      "start": 84.9494,
      "duration": 0.302,
      "velocity": 118,
      "chip": "ym2612"
    },
    {
      "channel": 3,
      "note": 27,
      "start": 84.9502,
      "duration": 0.1501,
      "velocity": 114,
      "chip": "ym2612"
    },
    {
      "channel": 5,
      "note": 41,
      "start": 84.956,
      "duration": 0.1009,
      "velocity": 90,
      "chip": "ym2612"
    },
    {
      "channel": 4,
      "note": 41,
      "start": 85.0398,
      "duration": 0.084,
      "velocity": 90,
      "chip": "ym2612"
    },
    {
      "channel": 0,
      "note": 62,
      "start": 85.099,
      "duration": 0.1512,
      "velocity": 127,
      "chip": "ym2612"
    },
    {
      "channel": 3,
      "note": 27,
      "start": 85.1008,
      "duration": 0.168,
      "velocity": 114,
      "chip": "ym2612"
    },
    {
      "channel": 5,
      "note": 38,
      "start": 85.1076,
      "duration": 0.101,
      "velocity": 91,
      "chip": "ym2612"
    },
    {
      "channel": 4,
      "note": 38,
      "start": 85.1914,
      "duration": 0.084,
      "velocity": 91,
      "chip": "ym2612"
    },
    {
      "channel": 0,
      "note": 62,
      "start": 85.2507,
      "duration": 0.1511,
      "velocity": 127,
      "chip": "ym2612"
    },
    {
      "channel": 2,
      "note": 62,
      "start": 85.2525,
      "duration": 0.252,
      "velocity": 127,
      "chip": "ym2612"
    },
    {
      "channel": 5,
      "note": 39,
      "start": 85.2593,
      "duration": 0.1009,
      "velocity": 92,
      "chip": "ym2612"
    },
    {
      "channel": 4,
      "note": 39,
      "start": 85.3431,
      "duration": 0.084,
      "velocity": 92,
      "chip": "ym2612"
    },
    {
      "channel": 0,
      "note": 50,
      "start": 85.4024,
      "duration": 0.3028,
      "velocity": 127,
      "chip": "ym2612"
    },
    {
      "channel": 3,
      "note": 29,
      "start": 85.4044,
      "duration": 0.1679,
      "velocity": 114,
      "chip": "ym2612"
    },
    {
      "channel": 5,
      "note": 41,
      "start": 85.411,
      "duration": 0.101,
      "velocity": 93,
      "chip": "ym2612"
    },
    {
      "channel": 4,
      "note": 41,
      "start": 85.4948,
      "duration": 0.084,
      "velocity": 93,
      "chip": "ym2612"
    },
    {
      "channel": 2,
      "note": 38,
      "start": 85.5558,
      "duration": 0.302,
      "velocity": 118,
      "chip": "ym2612"
    },
    {
      "channel": 5,
      "note": 38,
      "start": 85.5627,
      "duration": 0.1009,
      "velocity": 94,
      "chip": "ym2612"
    },
    {
      "channel": 4,
      "note": 38,
      "start": 85.6464,
      "duration": 0.0841,
      "velocity": 94,
      "chip": "ym2612"
    },
    {
      "channel": 0,
      "note": 50,
      "start": 85.7057,
      "duration": 1.0612,
      "velocity": 127,
      "chip": "ym2612"
    },
    {
      "channel": 3,
      "note": 26,
      "start": 85.7075,
      "duration": 0.1681,
      "velocity": 114,
      "chip": "ym2612"
    },
    {
      "channel": 5,
      "note": 39,
      "start": 85.7144,
      "duration": 0.1009,
      "velocity": 95,
      "chip": "ym2612"
    },
    {
      "channel": 4,
      "note": 39,
      "start": 85.7982,
      "duration": 0.084,
      "velocity": 95,
      "chip": "ym2612"
    },
    {
      "channel": 2,
      "note": 62,
      "start": 85.859,
      "duration": 0.252,
      "velocity": 127,
      "chip": "ym2612"
    },
    {
      "channel": 5,
      "note": 41,
      "start": 85.8661,
      "duration": 0.1009,
      "velocity": 96,
      "chip": "ym2612"
    },
    {
      "channel": 4,
      "note": 41,
      "start": 85.9498,
      "duration": 0.084,
      "velocity": 96,
      "chip": "ym2612"
    },
    {
      "channel": 3,
      "note": 27,
      "start": 86.0106,
      "duration": 0.1683,
      "velocity": 114,
      "chip": "ym2612"
    },
    {
      "channel": 5,
      "note": 38,
      "start": 86.0178,
      "duration": 0.1009,
      "velocity": 97,
      "chip": "ym2612"
    },
    {
      "channel": 4,
      "note": 38,
      "start": 86.1015,
      "duration": 0.084,
      "velocity": 97,
      "chip": "ym2612"
    },
    {
      "channel": 1,
      "note": 17,
      "start": 86.1613,
      "duration": 0.4546,
      "velocity": 122,
      "chip": "ym2612"
    },
    {
      "channel": 2,
      "note": 38,
      "start": 86.1626,
      "duration": 0.302,
      "velocity": 118,
      "chip": "ym2612"
    },
    {
      "channel": 5,
      "note": 39,
      "start": 86.1694,
      "duration": 0.1011,
      "velocity": 98,
      "chip": "ym2612"
    },
    {
      "channel": 4,
      "note": 39,
      "start": 86.2534,
      "duration": 0.0838,
      "velocity": 98,
      "chip": "ym2612"
    },
    {
      "channel": 3,
      "note": 27,
      "start": 86.314,
      "duration": 0.1683,
      "velocity": 114,
      "chip": "ym2612"
    },
    {
      "channel": 5,
      "note": 41,
      "start": 86.3211,
      "duration": 0.1009,
      "velocity": 99,
      "chip": "ym2612"
    },
    {
      "channel": 4,
      "note": 41,
      "start": 86.4049,
      "duration": 0.084,
      "velocity": 99,
      "chip": "ym2612"
    },
    {
      "channel": 2,
      "note": 62,
      "start": 86.4657,
      "duration": 0.252,
      "velocity": 127,
      "chip": "ym2612"
    },
    {
      "channel": 5,
      "note": 38,
      "start": 86.4728,
      "duration": 0.1009,
      "velocity": 100,
      "chip": "ym2612"
    },
    {
      "channel": 4,
      "note": 38,
      "start": 86.5566,
      "duration": 0.084,
      "velocity": 100,
      "chip": "ym2612"
    },
    {
      "channel": 1,
      "note": 17,
      "start": 86.6163,
      "duration": 0.1519,
      "velocity": 122,
      "chip": "ym2612"
    },
    {
      "channel": 3,
      "note": 29,
      "start": 86.6176,
      "duration": 0.1536,
      "velocity": 114,
      "chip": "ym2612"
    },
    {
      "channel": 5,
      "note": 39,
      "start": 86.6245,
      "duration": 0.1009,
      "velocity": 100,
      "chip": "ym2612"
    },
    {
      "channel": 4,
      "note": 39,
      "start": 86.7082,
      "duration": 0.1512,
      "velocity": 100,
      "chip": "ym2612"
    },
    {
      "channel": 0,
      "note": 7,
      "start": 86.7681,
      "duration": 2.4258,
      "velocity": 1,
      "chip": "ym2612"
    },
    {
      "channel": 1,
      "note": 7,
      "start": 86.7694,
      "duration": 2.4251,
      "velocity": 1,
      "chip": "ym2612"
    },
    {
      "channel": 2,
      "note": 7,
      "start": 86.771,
      "duration": 2.4243,
      "velocity": 1,
      "chip": "ym2612"
    },
    {
      "channel": 3,
      "note": 38,
      "start": 86.7717,
      "duration": 0.1657,
      "velocity": 114,
      "chip": "ym2612"
    },
    {
      "channel": 5,
      "note": 38,
      "start": 86.7761,
      "duration": 0.1009,
      "velocity": 100,
      "chip": "ym2612"
    },
    {
      "channel": 4,
      "note": 38,
      "start": 86.8599,
      "duration": 0.084,
      "velocity": 100,
      "chip": "ym2612"
    },
    {
      "channel": 5,
      "note": 39,
      "start": 86.9278,
      "duration": 0.101,
      "velocity": 99,
      "chip": "ym2612"
    },
    {
      "channel": 4,
      "note": 39,
      "start": 87.0116,
      "duration": 0.0841,
      "velocity": 99,
      "chip": "ym2612"
    },
    {
      "channel": 3,
      "note": 38,
      "start": 87.0723,
      "duration": 0.1683,
      "velocity": 114,
      "chip": "ym2612"
    },
    {
      "channel": 5,
      "note": 41,
      "start": 87.0795,
      "duration": 0.1009,
      "velocity": 98,
      "chip": "ym2612"
    },
    {
      "channel": 4,
      "note": 41,
      "start": 87.1633,
      "duration": 0.084,
      "velocity": 98,
      "chip": "ym2612"
    },
    {
      "channel": 5,
      "note": 38,
      "start": 87.2312,
      "duration": 0.101,
      "velocity": 97,
      "chip": "ym2612"
    },
    {
      "channel": 4,
      "note": 38,
      "start": 87.3149,
      "duration": 0.084,
      "velocity": 97,
      "chip": "ym2612"
    },
    {
      "channel": 3,
      "note": 39,
      "start": 87.3756,
      "duration": 0.1511,
      "velocity": 114,
      "chip": "ym2612"
    },
    {
      "channel": 5,
      "note": 39,
      "start": 87.3829,
      "duration": 0.1009,
      "velocity": 96,
      "chip": "ym2612"
    },
    {
      "channel": 4,
      "note": 39,
      "start": 87.4666,
      "duration": 0.0841,
      "velocity": 96,
      "chip": "ym2612"
    },
    {
      "channel": 3,
      "note": 39,
      "start": 87.5273,
      "duration": 0.1683,
      "velocity": 114,
      "chip": "ym2612"
    },
    {
      "channel": 5,
      "note": 41,
      "start": 87.5345,
      "duration": 0.1009,
      "velocity": 95,
      "chip": "ym2612"
    },
    {
      "channel": 4,
      "note": 41,
      "start": 87.6183,
      "duration": 0.084,
      "velocity": 95,
      "chip": "ym2612"
    },
    {
      "channel": 5,
      "note": 38,
      "start": 87.6864,
      "duration": 0.101,
      "velocity": 94,
      "chip": "ym2612"
    },
    {
      "channel": 4,
      "note": 38,
      "start": 87.7702,
      "duration": 0.0839,
      "velocity": 94,
      "chip": "ym2612"
    },
    {
      "channel": 3,
      "note": 41,
      "start": 87.8307,
      "duration": 0.1683,
      "velocity": 114,
      "chip": "ym2612"
    },
    {
      "channel": 5,
      "note": 39,
      "start": 87.8379,
      "duration": 0.1009,
      "velocity": 93,
      "chip": "ym2612"
    },
    {
      "channel": 4,
      "note": 39,
      "start": 87.9217,
      "duration": 0.084,
      "velocity": 93,
      "chip": "ym2612"
    },
    {
      "channel": 5,
      "note": 41,
      "start": 87.9896,
      "duration": 0.1009,
      "velocity": 92,
      "chip": "ym2612"
    },
    {
      "channel": 4,
      "note": 41,
      "start": 88.0734,
      "duration": 0.0841,
      "velocity": 92,
      "chip": "ym2612"
    },
    {
      "channel": 3,
      "note": 38,
      "start": 88.134,
      "duration": 0.1683,
      "velocity": 114,
      "chip": "ym2612"
    },
    {
      "channel": 5,
      "note": 38,
      "start": 88.1413,
      "duration": 0.1009,
      "velocity": 91,
      "chip": "ym2612"
    },
    {
      "channel": 4,
      "note": 38,
      "start": 88.2251,
      "duration": 0.084,
      "velocity": 91,
      "chip": "ym2612"
    },
    {
      "channel": 5,
      "note": 39,
      "start": 88.2929,
      "duration": 0.101,
      "velocity": 90,
      "chip": "ym2612"
    },
    {
      "channel": 4,
      "note": 39,
      "start": 88.3767,
      "duration": 0.084,
      "velocity": 90,
      "chip": "ym2612"
    },
    {
      "channel": 3,
      "note": 39,
      "start": 88.4377,
      "duration": 0.1681,
      "velocity": 114,
      "chip": "ym2612"
    },
    {
      "channel": 5,
      "note": 41,
      "start": 88.4446,
      "duration": 0.1009,
      "velocity": 89,
      "chip": "ym2612"
    },
    {
      "channel": 4,
      "note": 41,
      "start": 88.5284,
      "duration": 0.0841,
      "velocity": 89,
      "chip": "ym2612"
    },
    {
      "channel": 5,
      "note": 38,
      "start": 88.5963,
      "duration": 0.1009,
      "velocity": 88,
      "chip": "ym2612"
    },
    {
      "channel": 4,
      "note": 38,
      "start": 88.6801,
      "duration": 0.084,
      "velocity": 88,
      "chip": "ym2612"
    },
    {
      "channel": 3,
      "note": 39,
      "start": 88.7408,
      "duration": 0.1683,
      "velocity": 114,
      "chip": "ym2612"
    },
    {
      "channel": 5,
      "note": 39,
      "start": 88.748,
      "duration": 0.1009,
      "velocity": 87,
      "chip": "ym2612"
    },
    {
      "channel": 4,
      "note": 39,
      "start": 88.8317,
      "duration": 0.0841,
      "velocity": 87,
      "chip": "ym2612"
    },
    {
      "channel": 5,
      "note": 41,
      "start": 88.8997,
      "duration": 0.1009,
      "velocity": 86,
      "chip": "ym2612"
    },
    {
      "channel": 4,
      "note": 41,
      "start": 88.9835,
      "duration": 0.084,
      "velocity": 86,
      "chip": "ym2612"
    },
    {
      "channel": 3,
      "note": 41,
      "start": 89.0441,
      "duration": 0.1519,
      "velocity": 114,
      "chip": "ym2612"
    },
    {
      "channel": 5,
      "note": 38,
      "start": 89.0514,
      "duration": 0.1009,
      "velocity": 85,
      "chip": "ym2612"
    },
    {
      "channel": 4,
      "note": 38,
      "start": 89.1351,
      "duration": 0.084,
      "velocity": 85,
      "chip": "ym2612"
    },
    {
      "channel": 0,
      "note": 7,
      "start": 89.1943,
      "duration": 2.4264,
      "velocity": 1,
      "chip": "ym2612"
    },
    {
      "channel": 1,
      "note": 7,
      "start": 89.195,
      "duration": 2.4264,
      "velocity": 1,
      "chip": "ym2612"
    },
    {
      "channel": 2,
      "note": 7,
      "start": 89.1957,
      "duration": 2.4264,
      "velocity": 1,
      "chip": "ym2612"
    },
    {
      "channel": 3,
      "note": 38,
      "start": 89.1965,
      "duration": 0.1676,
      "velocity": 114,
      "chip": "ym2612"
    },
    {
      "channel": 5,
      "note": 39,
      "start": 89.2033,
      "duration": 0.1008,
      "velocity": 86,
      "chip": "ym2612"
    },
    {
      "channel": 4,
      "note": 39,
      "start": 89.2871,
      "duration": 0.0838,
      "velocity": 86,
      "chip": "ym2612"
    },
    {
      "channel": 5,
      "note": 41,
      "start": 89.3547,
      "duration": 0.1009,
      "velocity": 87,
      "chip": "ym2612"
    },
    {
      "channel": 4,
      "note": 41,
      "start": 89.4385,
      "duration": 0.084,
      "velocity": 87,
      "chip": "ym2612"
    },
    {
      "channel": 3,
      "note": 38,
      "start": 89.4992,
      "duration": 0.1683,
      "velocity": 114,
      "chip": "ym2612"
    },
    {
      "channel": 5,
      "note": 38,
      "start": 89.5064,
      "duration": 0.1009,
      "velocity": 88,
      "chip": "ym2612"
    },
    {
      "channel": 4,
      "note": 38,
      "start": 89.5902,
      "duration": 0.084,
      "velocity": 88,
      "chip": "ym2612"
    },
    {
      "channel": 5,
      "note": 39,
      "start": 89.6581,
      "duration": 0.1009,
      "velocity": 89,
      "chip": "ym2612"
    },
    {
      "channel": 4,
      "note": 39,
      "start": 89.7419,
      "duration": 0.084,
      "velocity": 89,
      "chip": "ym2612"
    },
    {
      "channel": 3,
      "note": 39,
      "start": 89.8025,
      "duration": 0.1514,
      "velocity": 114,
      "chip": "ym2612"
    },
    {
      "channel": 5,
      "note": 41,
      "start": 89.8098,
      "duration": 0.1009,
      "velocity": 90,
      "chip": "ym2612"
    },
    {
      "channel": 4,
      "note": 41,
      "start": 89.8935,
      "duration": 0.0841,
      "velocity": 90,
      "chip": "ym2612"
    },
    {
      "channel": 3,
      "note": 39,
      "start": 89.9544,
      "duration": 0.1681,
      "velocity": 114,
      "chip": "ym2612"
    },
    {
      "channel": 5,
      "note": 38,
      "start": 89.9615,
      "duration": 0.1009,
      "velocity": 91,
      "chip": "ym2612"
    },
    {
      "channel": 4,
      "note": 38,
      "start": 90.0452,
      "duration": 0.084,
      "velocity": 91,
      "chip": "ym2612"
    },
    {
      "channel": 5,
      "note": 39,
      "start": 90.1132,
      "duration": 0.1009,
      "velocity": 92,
      "chip": "ym2612"
    },
    {
      "channel": 4,
      "note": 39,
      "start": 90.1969,
      "duration": 0.084,
      "velocity": 92,
      "chip": "ym2612"
    },
    {
      "channel": 3,
      "note": 41,
      "start": 90.2576,
      "duration": 0.1683,
      "velocity": 114,
      "chip": "ym2612"
    },
    {
      "channel": 5,
      "note": 41,
      "start": 90.2648,
      "duration": 0.1009,
      "velocity": 93,
      "chip": "ym2612"
    },
    {
      "channel": 4,
      "note": 41,
      "start": 90.3486,
      "duration": 0.084,
      "velocity": 93,
      "chip": "ym2612"
    },
    {
      "channel": 5,
      "note": 38,
      "start": 90.4165,
      "duration": 0.1009,
      "velocity": 94,
      "chip": "ym2612"
    },
    {
      "channel": 4,
      "note": 38,
      "start": 90.5002,
      "duration": 0.084,
      "velocity": 94,
      "chip": "ym2612"
    },
    {
      "channel": 3,
      "note": 38,
      "start": 90.561,
      "duration": 0.1683,
      "velocity": 114,
      "chip": "ym2612"
    },
    {
      "channel": 5,
      "note": 39,
      "start": 90.5682,
      "duration": 0.1009,
      "velocity": 95,
      "chip": "ym2612"
    },
    {
      "channel": 4,
      "note": 39,
      "start": 90.652,
      "duration": 0.084,
      "velocity": 95,
      "chip": "ym2612"
    },
    {
      "channel": 5,
      "note": 41,
      "start": 90.7201,
      "duration": 0.1007,
      "velocity": 96,
      "chip": "ym2612"
    },
    {
      "channel": 4,
      "note": 41,
      "start": 90.8039,
      "duration": 0.0838,
      "velocity": 96,
      "chip": "ym2612"
    },
    {
      "channel": 3,
      "note": 39,
      "start": 90.8643,
      "duration": 0.1683,
      "velocity": 114,
      "chip": "ym2612"
    },
    {
      "channel": 5,
      "note": 38,
      "start": 90.8716,
      "duration": 0.1009,
      "velocity": 97,
      "chip": "ym2612"
    },
    {
      "channel": 4,
      "note": 38,
      "start": 90.9553,
      "duration": 0.0841,
      "velocity": 97,
      "chip": "ym2612"
    },
    {
      "channel": 5,
      "note": 39,
      "start": 91.0232,
      "duration": 0.1009,
      "velocity": 98,
      "chip": "ym2612"
    },
    {
      "channel": 4,
      "note": 39,
      "start": 91.107,
      "duration": 0.084,
      "velocity": 98,
      "chip": "ym2612"
    },
    {
      "channel": 3,
      "note": 39,
      "start": 91.1676,
      "duration": 0.1684,
      "velocity": 114,
      "chip": "ym2612"
    },
    {
      "channel": 5,
      "note": 41,
      "start": 91.1749,
      "duration": 0.1009,
      "velocity": 99,
      "chip": "ym2612"
    },
    {
      "channel": 4,
      "note": 41,
      "start": 91.2587,
      "duration": 0.084,
      "velocity": 99,
      "chip": "ym2612"
    },
    {
      "channel": 5,
      "note": 38,
      "start": 91.3266,
      "duration": 0.1009,
      "velocity": 100,
      "chip": "ym2612"
    },
    {
      "channel": 4,
      "note": 38,
      "start": 91.4104,
      "duration": 0.084,
      "velocity": 100,
      "chip": "ym2612"
    },
    {
      "channel": 3,
      "note": 41,
      "start": 91.4712,
      "duration": 0.1517,
      "velocity": 114,
      "chip": "ym2612"
    },
    {
      "channel": 5,
      "note": 39,
      "start": 91.4783,
      "duration": 0.1009,
      "velocity": 100,
      "chip": "ym2612"
    },
    {
      "channel": 4,
      "note": 39,
      "start": 91.562,
      "duration": 0.1512,
      "velocity": 100,
      "chip": "ym2612"
    },
    {
      "channel": 0,
      "note": 7,
      "start": 91.6212,
      "duration": 2.4265,
      "velocity": 1,
      "chip": "ym2612"
    },
    {
      "channel": 1,
      "note": 7,
      "start": 91.622,
      "duration": 2.4264,
      "velocity": 1,
      "chip": "ym2612"
    },
    {
      "channel": 2,
      "note": 7,
      "start": 91.6227,
      "duration": 2.4264,
      "velocity": 1,
      "chip": "ym2612"
    },
    {
      "channel": 3,
      "note": 38,
      "start": 91.6234,
      "duration": 0.1676,
      "velocity": 114,
      "chip": "ym2612"
    },
    {
      "channel": 5,
      "note": 38,
      "start": 91.63,
      "duration": 0.1009,
      "velocity": 100,
      "chip": "ym2612"
    },
    {
      "channel": 4,
      "note": 38,
      "start": 91.7137,
      "duration": 0.0841,
      "velocity": 100,
      "chip": "ym2612"
    },
    {
      "channel": 5,
      "note": 39,
      "start": 91.7816,
      "duration": 0.1009,
      "velocity": 99,
      "chip": "ym2612"
    },
    {
      "channel": 4,
      "note": 39,
      "start": 91.8654,
      "duration": 0.084,
      "velocity": 99,
      "chip": "ym2612"
    },
    {
      "channel": 3,
      "note": 38,
      "start": 91.9261,
      "duration": 0.1683,
      "velocity": 114,
      "chip": "ym2612"
    },
    {
      "channel": 5,
      "note": 41,
      "start": 91.9333,
      "duration": 0.1009,
      "velocity": 98,
      "chip": "ym2612"
    },
    {
      "channel": 4,
      "note": 41,
      "start": 92.0171,
      "duration": 0.0841,
      "velocity": 98,
      "chip": "ym2612"
    },
    {
      "channel": 5,
      "note": 38,
      "start": 92.085,
      "duration": 0.1009,
      "velocity": 97,
      "chip": "ym2612"
    },
    {
      "channel": 4,
      "note": 38,
      "start": 92.1688,
      "duration": 0.084,
      "velocity": 97,
      "chip": "ym2612"
    },
    {
      "channel": 3,
      "note": 39,
      "start": 92.2294,
      "duration": 0.1512,
      "velocity": 114,
      "chip": "ym2612"
    },
    {
      "channel": 5,
      "note": 39,
      "start": 92.2369,
      "duration": 0.1007,
      "velocity": 96,
      "chip": "ym2612"
    },
    {
      "channel": 4,
      "note": 39,
      "start": 92.3205,
      "duration": 0.0839,
      "velocity": 96,
      "chip": "ym2612"
    },
    {
      "channel": 3,
      "note": 39,
      "start": 92.3811,
      "duration": 0.1683,
      "velocity": 114,
      "chip": "ym2612"
    },
    {
      "channel": 5,
      "note": 41,
      "start": 92.3884,
      "duration": 0.1009,
      "velocity": 95,
      "chip": "ym2612"
    },
    {
      "channel": 4,
      "note": 41,
      "start": 92.4721,
      "duration": 0.084,
      "velocity": 95,
      "chip": "ym2612"
    },
    {
      "channel": 5,
      "note": 38,
      "start": 92.54,
      "duration": 0.1009,
      "velocity": 94,
      "chip": "ym2612"
    },
    {
      "channel": 4,
      "note": 38,
      "start": 92.6238,
      "duration": 0.084,
      "velocity": 94,
      "chip": "ym2612"
    },
    {
      "channel": 3,
      "note": 41,
      "start": 92.6845,
      "duration": 0.1683,
      "velocity": 114,
      "chip": "ym2612"
    },
    {
      "channel": 5,
      "note": 39,
      "start": 92.6917,
      "duration": 0.1009,
      "velocity": 93,
      "chip": "ym2612"
    },
    {
      "channel": 4,
      "note": 39,
      "start": 92.7755,
      "duration": 0.084,
      "velocity": 93,
      "chip": "ym2612"
    },
    {
      "channel": 5,
      "note": 41,
      "start": 92.8434,
      "duration": 0.1009,
      "velocity": 92,
      "chip": "ym2612"
    },
    {
      "channel": 4,
      "note": 41,
      "start": 92.9272,
      "duration": 0.084,
      "velocity": 92,
      "chip": "ym2612"
    },
    {
      "channel": 3,
      "note": 38,
      "start": 92.9881,
      "duration": 0.1681,
      "velocity": 114,
      "chip": "ym2612"
    },
    {
      "channel": 5,
      "note": 38,
      "start": 92.9951,
      "duration": 0.1009,
      "velocity": 91,
      "chip": "ym2612"
    },
    {
      "channel": 4,
      "note": 38,
      "start": 93.0788,
      "duration": 0.0841,
      "velocity": 91,
      "chip": "ym2612"
    },
    {
      "channel": 5,
      "note": 39,
      "start": 93.1468,
      "duration": 0.1009,
      "velocity": 90,
      "chip": "ym2612"
    },
    {
      "channel": 4,
      "note": 39,
      "start": 93.2305,
      "duration": 0.084,
      "velocity": 90,
      "chip": "ym2612"
    },
    {
      "channel": 3,
      "note": 39,
      "start": 93.2912,
      "duration": 0.1684,
      "velocity": 114,
      "chip": "ym2612"
    },
    {
      "channel": 5,
      "note": 41,
      "start": 93.2984,
      "duration": 0.101,
      "velocity": 89,
      "chip": "ym2612"
    },
    {
      "channel": 4,
      "note": 41,
      "start": 93.3822,
      "duration": 0.084,
      "velocity": 89,
      "chip": "ym2612"
    },
    {
      "channel": 5,
      "note": 38,
      "start": 93.4501,
      "duration": 0.1009,
      "velocity": 88,
      "chip": "ym2612"
    },
    {
      "channel": 4,
      "note": 38,
      "start": 93.5339,
      "duration": 0.084,
      "velocity": 88,
      "chip": "ym2612"
    },
    {
      "channel": 3,
      "note": 39,
      "start": 93.5945,
      "duration": 0.1684,
      "velocity": 114,
      "chip": "ym2612"
    },
    {
      "channel": 5,
      "note": 39,
      "start": 93.6018,
      "duration": 0.101,
      "velocity": 87,
      "chip": "ym2612"
    },
    {
      "channel": 4,
      "note": 39,
      "start": 93.6856,
      "duration": 0.0843,
      "velocity": 87,
      "chip": "ym2612"
    },
    {
      "channel": 5,
      "note": 41,
      "start": 93.7538,
      "duration": 0.1006,
      "velocity": 86,
      "chip": "ym2612"
    },
    {
      "channel": 4,
      "note": 41,
      "start": 93.8373,
      "duration": 0.084,
      "velocity": 86,
      "chip": "ym2612"
    },
    {
      "channel": 3,
      "note": 41,
      "start": 93.8979,
      "duration": 0.1519,
      "velocity": 114,
      "chip": "ym2612"
    },
    {
      "channel": 5,
      "note": 38,
      "start": 93.9051,
      "duration": 0.1009,
      "velocity": 85,
      "chip": "ym2612"
    },
    {
      "channel": 4,
      "note": 38,
      "start": 93.9889,
      "duration": 0.084,
      "velocity": 85,
      "chip": "ym2612"
    },
    {
      "channel": 0,
      "note": 7,
      "start": 94.0481,
      "duration": 2.4264,
      "velocity": 1,
      "chip": "ym2612"
    },
    {
      "channel": 1,
      "note": 7,
      "start": 94.0489,
      "duration": 2.4271,
      "velocity": 1,
      "chip": "ym2612"
    },
    {
      "channel": 2,
      "note": 7,
      "start": 94.0495,
      "duration": 2.4279,
      "velocity": 1,
      "chip": "ym2612"
    },
    {
      "channel": 3,
      "note": 38,
      "start": 94.0503,
      "duration": 0.1676,
      "velocity": 114,
      "chip": "ym2612"
    },
    {
      "channel": 5,
      "note": 39,
      "start": 94.0569,
      "duration": 0.1009,
      "velocity": 86,
      "chip": "ym2612"
    },
    {
      "channel": 4,
      "note": 39,
      "start": 94.1406,
      "duration": 0.0841,
      "velocity": 86,
      "chip": "ym2612"
    },
    {
      "channel": 5,
      "note": 41,
      "start": 94.2085,
      "duration": 0.1009,
      "velocity": 87,
      "chip": "ym2612"
    },
    {
      "channel": 4,
      "note": 41,
      "start": 94.2923,
      "duration": 0.084,
      "velocity": 87,
      "chip": "ym2612"
    },
    {
      "channel": 3,
      "note": 38,
      "start": 94.3532,
      "duration": 0.1683,
      "velocity": 114,
      "chip": "ym2612"
    },
    {
      "channel": 5,
      "note": 38,
      "start": 94.3602,
      "duration": 0.1009,
      "velocity": 88,
      "chip": "ym2612"
    },
    {
      "channel": 4,
      "note": 38,
      "start": 94.444,
      "duration": 0.084,
      "velocity": 88,
      "chip": "ym2612"
    },
    {
      "channel": 5,
      "note": 39,
      "start": 94.5119,
      "duration": 0.1009,
      "velocity": 89,
      "chip": "ym2612"
    },
    {
      "channel": 4,
      "note": 39,
      "start": 94.5957,
      "duration": 0.084,
      "velocity": 89,
      "chip": "ym2612"
    },
    {
      "channel": 3,
      "note": 39,
      "start": 94.6563,
      "duration": 0.1511,
      "velocity": 114,
      "chip": "ym2612"
    },
    {
      "channel": 5,
      "note": 41,
      "start": 94.6636,
      "duration": 0.1009,
      "velocity": 90,
      "chip": "ym2612"
    },
    {
      "channel": 4,
      "note": 41,
      "start": 94.7473,
      "duration": 0.084,
      "velocity": 90,
      "chip": "ym2612"
    },
    {
      "channel": 3,
      "note": 39,
      "start": 94.808,
      "duration": 0.1683,
      "velocity": 114,
      "chip": "ym2612"
    },
    {
      "channel": 5,
      "note": 38,
      "start": 94.8153,
      "duration": 0.1009,
      "velocity": 91,
      "chip": "ym2612"
    },
    {
      "channel": 4,
      "note": 38,
      "start": 94.899,
      "duration": 0.0841,
      "velocity": 91,
      "chip": "ym2612"
    },
    {
      "channel": 5,
      "note": 39,
      "start": 94.9669,
      "duration": 0.1009,
      "velocity": 92,
      "chip": "ym2612"
    },
    {
      "channel": 4,
      "note": 39,
      "start": 95.0507,
      "duration": 0.084,
      "velocity": 92,
      "chip": "ym2612"
    },
    {
      "channel": 3,
      "note": 41,
      "start": 95.1114,
      "duration": 0.1683,
      "velocity": 114,
      "chip": "ym2612"
    },
    {
      "channel": 5,
      "note": 41,
      "start": 95.1186,
      "duration": 0.101,
      "velocity": 93,
      "chip": "ym2612"
    },
    {
      "channel": 4,
      "note": 41,
      "start": 95.2024,
      "duration": 0.0844,
      "velocity": 93,
      "chip": "ym2612"
    },
    {
      "channel": 5,
      "note": 38,
      "start": 95.2705,
      "duration": 0.1006,
      "velocity": 94,
      "chip": "ym2612"
    },
    {
      "channel": 4,
      "note": 38,
      "start": 95.3541,
      "duration": 0.084,
      "velocity": 94,
      "chip": "ym2612"
    },
    {
      "channel": 3,
      "note": 38,
      "start": 95.4147,
      "duration": 0.1684,
      "velocity": 114,
      "chip": "ym2612"
    },
    {
      "channel": 5,
      "note": 39,
      "start": 95.422,
      "duration": 0.101,
      "velocity": 95,
      "chip": "ym2612"
    },
    {
      "channel": 4,
      "note": 39,
      "start": 95.5057,
      "duration": 0.084,
      "velocity": 95,
      "chip": "ym2612"
    },
    {
      "channel": 5,
      "note": 41,
      "start": 95.5737,
      "duration": 0.1009,
      "velocity": 96,
      "chip": "ym2612"
    },
    {
      "channel": 4,
      "note": 41,
      "start": 95.6574,
      "duration": 0.084,
      "velocity": 96,
      "chip": "ym2612"
    },
    {
      "channel": 3,
      "note": 39,
      "start": 95.7181,
      "duration": 0.1686,
      "velocity": 114,
      "chip": "ym2612"
    },
    {
      "channel": 5,
      "note": 38,
      "start": 95.7253,
      "duration": 0.1009,
      "velocity": 97,
      "chip": "ym2612"
    },
    {
      "channel": 4,
      "note": 38,
      "start": 95.8091,
      "duration": 0.084,
      "velocity": 97,
      "chip": "ym2612"
    },
    {
      "channel": 5,
      "note": 39,
      "start": 95.877,
      "duration": 0.1009,
      "velocity": 98,
      "chip": "ym2612"
    },
    {
      "channel": 4,
      "note": 39,
      "start": 95.9607,
      "duration": 0.0841,
      "velocity": 98,
      "chip": "ym2612"
    },
    {
      "channel": 3,
      "note": 39,
      "start": 96.0217,
      "duration": 0.168,
      "velocity": 114,
      "chip": "ym2612"
    },
    {
      "channel": 5,
      "note": 41,
      "start": 96.0287,
      "duration": 0.1009,
      "velocity": 99,
      "chip": "ym2612"
    },
    {
      "channel": 4,
      "note": 41,
      "start": 96.1125,
      "duration": 0.084,
      "velocity": 99,
      "chip": "ym2612"
    },
    {
      "channel": 5,
      "note": 38,
      "start": 96.1804,
      "duration": 0.1009,
      "velocity": 100,
      "chip": "ym2612"
    },
    {
      "channel": 4,
      "note": 38,
      "start": 96.2641,
      "duration": 0.0841,
      "velocity": 100,
      "chip": "ym2612"
    },
    {
      "channel": 3,
      "note": 41,
      "start": 96.3248,
      "duration": 0.1539,
      "velocity": 114,
      "chip": "ym2612"
    },
    {
      "channel": 5,
      "note": 39,
      "start": 96.3321,
      "duration": 0.1009,
      "velocity": 100,
      "chip": "ym2612"
    },
    {
      "channel": 4,
      "note": 39,
      "start": 96.4159,
      "duration": 0.0668,
      "velocity": 100,
      "chip": "ym2612"
    },
    {
      "channel": 0,
      "note": 5,
      "start": 96.4758,
      "duration": 1.179,
      "velocity": 127,
      "chip": "ym2612"
    },
    {
      "channel": 1,
      "note": 38,
      "start": 96.4772,
      "duration": 0.1668,
      "velocity": 114,
      "chip": "ym2612"
    },
    {
      "channel": 2,
      "note": 38,
      "start": 96.4785,
      "duration": 0.3008,
      "velocity": 118,
      "chip": "ym2612"
    },
    {
      "channel": 3,
      "note": 26,
      "start": 96.4793,
      "duration": 0.1658,
      "velocity": 114,
      "chip": "ym2612"
    },
    {
      "channel": 4,
      "note": 7,
      "start": 96.4839,
      "duration": 2.4258,
      "velocity": 1,
      "chip": "ym2612"
    },
    {
      "channel": 5,
      "note": 7,
      "start": 96.4852,
      "duration": 2.4251,
      "velocity": 1,
      "chip": "ym2612"
    },
    {
      "channel": 1,
      "note": 38,
      "start": 96.7791,
      "duration": 0.1683,
      "velocity": 114,
      "chip": "ym2612"
    },
    {
      "channel": 2,
      "note": 62,
      "start": 96.7804,
      "duration": 0.2518,
      "velocity": 127,
      "chip": "ym2612"
    },
    {
      "channel": 3,
      "note": 26,
      "start": 96.7812,
      "duration": 0.1673,
      "velocity": 114,
      "chip": "ym2612"
    },
    {
      "channel": 1,
      "note": 39,
      "start": 97.0824,
      "duration": 0.1511,
      "velocity": 114,
      "chip": "ym2612"
    },
    {
      "channel": 2,
      "note": 38,
      "start": 97.0838,
      "duration": 0.302,
      "velocity": 118,
      "chip": "ym2612"
    },
    {
      "channel": 3,
      "note": 27,
      "start": 97.0845,
      "duration": 0.1503,
      "velocity": 114,
      "chip": "ym2612"
    },
    {
      "channel": 1,
      "note": 39,
      "start": 97.2341,
      "duration": 0.1683,
      "velocity": 114,
      "chip": "ym2612"
    },
    {
      "channel": 3,
      "note": 27,
      "start": 97.2354,
      "duration": 0.1684,
      "velocity": 114,
      "chip": "ym2612"
    },
    {
      "channel": 2,
      "note": 62,
      "start": 97.3871,
      "duration": 0.2517,
      "velocity": 127,
      "chip": "ym2612"
    },
    {
      "channel": 1,
      "note": 41,
      "start": 97.5377,
      "duration": 0.168,
      "velocity": 114,
      "chip": "ym2612"
    },
    {
      "channel": 3,
      "note": 29,
      "start": 97.539,
      "duration": 0.1679,
      "velocity": 114,
      "chip": "ym2612"
    },
    {
      "channel": 2,
      "note": 38,
      "start": 97.6903,
      "duration": 0.3022,
      "velocity": 118,
      "chip": "ym2612"
    },
    {
      "channel": 1,
      "note": 38,
      "start": 97.8408,
      "duration": 0.1683,
      "velocity": 114,
      "chip": "ym2612"
    },
    {
      "channel": 3,
      "note": 26,
      "start": 97.8421,
      "duration": 0.1681,
      "velocity": 114,
      "chip": "ym2612"
    },
    {
      "channel": 2,
      "note": 62,
      "start": 97.9937,
      "duration": 0.252,
      "velocity": 127,
      "chip": "ym2612"
    },
    {
      "channel": 1,
      "note": 39,
      "start": 98.1442,
      "duration": 0.1683,
      "velocity": 114,
      "chip": "ym2612"
    },
    {
      "channel": 3,
      "note": 27,
      "start": 98.1455,
      "duration": 0.1681,
      "velocity": 114,
      "chip": "ym2612"
    },
    {
      "channel": 2,
      "note": 38,
      "start": 98.297,
      "duration": 0.3022,
      "velocity": 118,
      "chip": "ym2612"
    },
    {
      "channel": 1,
      "note": 39,
      "start": 98.4476,
      "duration": 0.1683,
      "velocity": 114,
      "chip": "ym2612"
    },
    {
      "channel": 3,
      "note": 27,
      "start": 98.4489,
      "duration": 0.1681,
      "velocity": 114,
      "chip": "ym2612"
    },
    {
      "channel": 2,
      "note": 62,
      "start": 98.6004,
      "duration": 0.252,
      "velocity": 127,
      "chip": "ym2612"
    },
    {
      "channel": 1,
      "note": 41,
      "start": 98.7509,
      "duration": 0.1514,
      "velocity": 114,
      "chip": "ym2612"
    },
    {
      "channel": 3,
      "note": 29,
      "start": 98.7522,
      "duration": 0.1525,
      "velocity": 114,
      "chip": "ym2612"
    },
    {
      "channel": 0,
      "note": 5,
      "start": 98.902,
      "duration": 1.1796,
      "velocity": 127,
      "chip": "ym2612"
    },
    {
      "channel": 1,
      "note": 38,
      "start": 98.9029,
      "duration": 0.1683,
      "velocity": 114,
      "chip": "ym2612"
    },
    {
      "channel": 2,
      "note": 38,
      "start": 98.9044,
      "duration": 0.3017,
      "velocity": 118,
      "chip": "ym2612"
    },
    {
      "channel": 3,
      "note": 26,
      "start": 98.9052,
      "duration": 0.1671,
      "velocity": 114,
      "chip": "ym2612"
    },
    {
      "channel": 4,
      "note": 7,
      "start": 98.9101,
      "duration": 2.4266,
      "velocity": 1,
      "chip": "ym2612"
    },
    {
      "channel": 5,
      "note": 7,
      "start": 98.9109,
      "duration": 2.4266,
      "velocity": 1,
      "chip": "ym2612"
    },
    {
      "channel": 1,
      "note": 38,
      "start": 99.206,
      "duration": 0.1683,
      "velocity": 114,
      "chip": "ym2612"
    },
    {
      "channel": 2,
      "note": 62,
      "start": 99.2073,
      "duration": 0.2517,
      "velocity": 127,
      "chip": "ym2612"
    },
    {
      "channel": 3,
      "note": 26,
      "start": 99.2081,
      "duration": 0.1673,
      "velocity": 114,
      "chip": "ym2612"
    },
    {
      "channel": 1,
      "note": 39,
      "start": 99.5093,
      "duration": 0.1512,
      "velocity": 114,
      "chip": "ym2612"
    },
    {
      "channel": 2,
      "note": 38,
      "start": 99.5107,
      "duration": 0.302,
      "velocity": 118,
      "chip": "ym2612"
    },
    {
      "channel": 3,
      "note": 27,
      "start": 99.5115,
      "duration": 0.1503,
      "velocity": 114,
      "chip": "ym2612"
    },
    {
      "channel": 1,
      "note": 39,
      "start": 99.661,
      "duration": 0.1683,
      "velocity": 114,
      "chip": "ym2612"
    },
    {
      "channel": 3,
      "note": 27,
      "start": 99.6623,
      "duration": 0.1681,
      "velocity": 114,
      "chip": "ym2612"
    },
    {
      "channel": 2,
      "note": 62,
      "start": 99.8138,
      "duration": 0.252,
      "velocity": 127,
      "chip": "ym2612"
    },
    {
      "channel": 1,
      "note": 41,
      "start": 99.9644,
      "duration": 0.1683,
      "velocity": 114,
      "chip": "ym2612"
    },
    {
      "channel": 3,
      "note": 29,
      "start": 99.9656,
      "duration": 0.1681,
      "velocity": 114,
      "chip": "ym2612"
    },
    {
      "channel": 2,
      "note": 38,
      "start": 100.1172,
      "duration": 0.3022,
      "velocity": 118,
      "chip": "ym2612"
    },
    {
      "channel": 1,
      "note": 38,
      "start": 100.2678,
      "duration": 0.1683,
      "velocity": 114,
      "chip": "ym2612"
    },
    {
      "channel": 3,
      "note": 26,
      "start": 100.269,
      "duration": 0.1684,
      "velocity": 114,
      "chip": "ym2612"
    },
    {
      "channel": 2,
      "note": 62,
      "start": 100.4208,
      "duration": 0.2517,
      "velocity": 127,
      "chip": "ym2612"
    },
    {
      "channel": 1,
      "note": 39,
      "start": 100.5714,
      "duration": 0.168,
      "velocity": 114,
      "chip": "ym2612"
    },
    {
      "channel": 3,
      "note": 27,
      "start": 100.5727,
      "duration": 0.1679,
      "velocity": 114,
      "chip": "ym2612"
    },
    {
      "channel": 2,
      "note": 38,
      "start": 100.7239,
      "duration": 0.3022,
      "velocity": 118,
      "chip": "ym2612"
    },
    {
      "channel": 1,
      "note": 39,
      "start": 100.8744,
      "duration": 0.1683,
      "velocity": 114,
      "chip": "ym2612"
    },
    {
      "channel": 3,
      "note": 27,
      "start": 100.8757,
      "duration": 0.1681,
      "velocity": 114,
      "chip": "ym2612"
    },
    {
      "channel": 2,
      "note": 62,
      "start": 101.0272,
      "duration": 0.252,
      "velocity": 127,
      "chip": "ym2612"
    },
    {
      "channel": 1,
      "note": 41,
      "start": 101.1778,
      "duration": 0.1514,
      "velocity": 114,
      "chip": "ym2612"
    },
    {
      "channel": 3,
      "note": 29,
      "start": 101.1791,
      "duration": 0.1522,
      "velocity": 114,
      "chip": "ym2612"
    },
    {
      "channel": 0,
      "note": 5,
      "start": 101.3289,
      "duration": 1.1795,
      "velocity": 127,
      "chip": "ym2612"
    },
    {
      "channel": 1,
      "note": 38,
      "start": 101.3297,
      "duration": 0.1681,
      "velocity": 114,
      "chip": "ym2612"
    },
    {
      "channel": 2,
      "note": 38,
      "start": 101.331,
      "duration": 0.302,
      "velocity": 118,
      "chip": "ym2612"
    },
    {
      "channel": 3,
      "note": 26,
      "start": 101.3319,
      "duration": 0.167,
      "velocity": 114,
      "chip": "ym2612"
    },
    {
      "channel": 4,
      "note": 7,
      "start": 101.3372,
      "duration": 2.4262,
      "velocity": 1,
      "chip": "ym2612"
    },
    {
      "channel": 5,
      "note": 7,
      "start": 101.3379,
      "duration": 2.4263,
      "velocity": 1,
      "chip": "ym2612"
    },
    {
      "channel": 1,
      "note": 38,
      "start": 101.6329,
      "duration": 0.1683,
      "velocity": 114,
      "chip": "ym2612"
    },
    {
      "channel": 2,
      "note": 62,
      "start": 101.6342,
      "duration": 0.2517,
      "velocity": 127,
      "chip": "ym2612"
    },
    {
      "channel": 3,
      "note": 26,
      "start": 101.635,
      "duration": 0.1673,
      "velocity": 114,
      "chip": "ym2612"
    },
    {
      "channel": 1,
      "note": 39,
      "start": 101.9364,
      "duration": 0.1512,
      "velocity": 114,
      "chip": "ym2612"
    },
    {
      "channel": 2,
      "note": 38,
      "start": 101.9378,
      "duration": 0.3017,
      "velocity": 118,
      "chip": "ym2612"
    },
    {
      "channel": 3,
      "note": 27,
      "start": 101.9386,
      "duration": 0.1502,
      "velocity": 114,
      "chip": "ym2612"
    },
    {
      "channel": 1,
      "note": 39,
      "start": 102.0881,
      "duration": 0.1681,
      "velocity": 114,
      "chip": "ym2612"
    },
    {
      "channel": 3,
      "note": 27,
      "start": 102.0894,
      "duration": 0.1679,
      "velocity": 114,
      "chip": "ym2612"
    },
    {
      "channel": 2,
      "note": 62,
      "start": 102.2407,
      "duration": 0.252,
      "velocity": 127,
      "chip": "ym2612"
    },
    {
      "channel": 1,
      "note": 41,
      "start": 102.3913,
      "duration": 0.1683,
      "velocity": 114,
      "chip": "ym2612"
    },
    {
      "channel": 3,
      "note": 29,
      "start": 102.3926,
      "duration": 0.1681,
      "velocity": 114,
      "chip": "ym2612"
    },
    {
      "channel": 2,
      "note": 38,
      "start": 102.5441,
      "duration": 0.3022,
      "velocity": 118,
      "chip": "ym2612"
    },
    {
      "channel": 1,
      "note": 38,
      "start": 102.6946,
      "duration": 0.1684,
      "velocity": 114,
      "chip": "ym2612"
    },
    {
      "channel": 3,
      "note": 26,
      "start": 102.6959,
      "duration": 0.1682,
      "velocity": 114,
      "chip": "ym2612"
    },
    {
      "channel": 2,
      "note": 62,
      "start": 102.8474,
      "duration": 0.252,
      "velocity": 127,
      "chip": "ym2612"
    },
    {
      "channel": 1,
      "note": 39,
      "start": 102.998,
      "duration": 0.1684,
      "velocity": 114,
      "chip": "ym2612"
    },
    {
      "channel": 3,
      "note": 27,
      "start": 102.9992,
      "duration": 0.1682,
      "velocity": 114,
      "chip": "ym2612"
    },
    {
      "channel": 2,
      "note": 38,
      "start": 103.1508,
      "duration": 0.3025,
      "velocity": 118,
      "chip": "ym2612"
    },
    {
      "channel": 1,
      "note": 39,
      "start": 103.3013,
      "duration": 0.1686,
      "velocity": 114,
      "chip": "ym2612"
    },
    {
      "channel": 3,
      "note": 27,
      "start": 103.3026,
      "duration": 0.1684,
      "velocity": 114,
      "chip": "ym2612"
    },
    {
      "channel": 2,
      "note": 62,
      "start": 103.4544,
      "duration": 0.2517,
      "velocity": 127,
      "chip": "ym2612"
    },
    {
      "channel": 1,
      "note": 41,
      "start": 103.6048,
      "duration": 0.1513,
      "velocity": 114,
      "chip": "ym2612"
    },
    {
      "channel": 3,
      "note": 29,
      "start": 103.6061,
      "duration": 0.1522,
      "velocity": 114,
      "chip": "ym2612"
    },
    {
      "channel": 0,
      "note": 5,
      "start": 103.7559,
      "duration": 1.1795,
      "velocity": 127,
      "chip": "ym2612"
    },
    {
      "channel": 1,
      "note": 38,
      "start": 103.7566,
      "duration": 0.1681,
      "velocity": 114,
      "chip": "ym2612"
    },
    {
      "channel": 2,
      "note": 38,
      "start": 103.758,
      "duration": 0.302,
      "velocity": 118,
      "chip": "ym2612"
    },
    {
      "channel": 3,
      "note": 26,
      "start": 103.7587,
      "duration": 0.1671,
      "velocity": 114,
      "chip": "ym2612"
    },
    {
      "channel": 4,
      "note": 7,
      "start": 103.7639,
      "duration": 2.4263,
      "velocity": 1,
      "chip": "ym2612"
    },
    {
      "channel": 5,
      "note": 7,
      "start": 103.7646,
      "duration": 2.4271,
      "velocity": 1,
      "chip": "ym2612"
    },
    {
      "channel": 1,
      "note": 38,
      "start": 104.0598,
      "duration": 0.1683,
      "velocity": 114,
      "chip": "ym2612"
    },
    {
      "channel": 2,
      "note": 62,
      "start": 104.0611,
      "duration": 0.2518,
      "velocity": 127,
      "chip": "ym2612"
    },
    {
      "channel": 3,
      "note": 26,
      "start": 104.0619,
      "duration": 0.1673,
      "velocity": 114,
      "chip": "ym2612"
    },
    {
      "channel": 1,
      "note": 39,
      "start": 104.3631,
      "duration": 0.1511,
      "velocity": 114,
      "chip": "ym2612"
    },
    {
      "channel": 2,
      "note": 38,
      "start": 104.3644,
      "duration": 0.302,
      "velocity": 118,
      "chip": "ym2612"
    },
    {
      "channel": 3,
      "note": 27,
      "start": 104.3653,
      "duration": 0.1503,
      "velocity": 114,
      "chip": "ym2612"
    },
    {
      "channel": 1,
      "note": 39,
      "start": 104.5148,
      "duration": 0.1683,
      "velocity": 114,
      "chip": "ym2612"
    },
    {
      "channel": 3,
      "note": 27,
      "start": 104.5161,
      "duration": 0.1681,
      "velocity": 114,
      "chip": "ym2612"
    },
    {
      "channel": 2,
      "note": 62,
      "start": 104.6676,
      "duration": 0.2522,
      "velocity": 127,
      "chip": "ym2612"
    },
    {
      "channel": 1,
      "note": 41,
      "start": 104.8182,
      "duration": 0.1686,
      "velocity": 114,
      "chip": "ym2612"
    },
    {
      "channel": 3,
      "note": 29,
      "start": 104.8195,
      "duration": 0.1684,
      "velocity": 114,
      "chip": "ym2612"
    },
    {
      "channel": 2,
      "note": 38,
      "start": 104.9712,
      "duration": 0.3019,
      "velocity": 118,
      "chip": "ym2612"
    },
    {
      "channel": 1,
      "note": 38,
      "start": 105.1215,
      "duration": 0.1684,
      "velocity": 114,
      "chip": "ym2612"
    },
    {
      "channel": 3,
      "note": 26,
      "start": 105.1228,
      "duration": 0.1682,
      "velocity": 114,
      "chip": "ym2612"
    },
    {
      "channel": 2,
      "note": 62,
      "start": 105.2743,
      "duration": 0.252,
      "velocity": 127,
      "chip": "ym2612"
    },
    {
      "channel": 1,
      "note": 39,
      "start": 105.4249,
      "duration": 0.1683,
      "velocity": 114,
      "chip": "ym2612"
    },
    {
      "channel": 3,
      "note": 27,
      "start": 105.4261,
      "duration": 0.1681,
      "velocity": 114,
      "chip": "ym2612"
    },
    {
      "channel": 2,
      "note": 38,
      "start": 105.5777,
      "duration": 0.3022,
      "velocity": 118,
      "chip": "ym2612"
    },
    {
      "channel": 1,
      "note": 39,
      "start": 105.7283,
      "duration": 0.1683,
      "velocity": 114,
      "chip": "ym2612"
    },
    {
      "channel": 3,
      "note": 27,
      "start": 105.7295,
      "duration": 0.1681,
      "velocity": 114,
      "chip": "ym2612"
    },
    {
      "channel": 2,
      "note": 62,
      "start": 105.881,
      "duration": 0.252,
      "velocity": 127,
      "chip": "ym2612"
    },
    {
      "channel": 1,
      "note": 41,
      "start": 106.0316,
      "duration": 0.1514,
      "velocity": 114,
      "chip": "ym2612"
    },
    {
      "channel": 3,
      "note": 29,
      "start": 106.0329,
      "duration": 0.1522,
      "velocity": 114,
      "chip": "ym2612"
    },
    {
      "channel": 0,
      "note": 5,
      "start": 106.1828,
      "duration": 1.1795,
      "velocity": 127,
      "chip": "ym2612"
    },
    {
      "channel": 1,
      "note": 38,
      "start": 106.1835,
      "duration": 0.1681,
      "velocity": 114,
      "chip": "ym2612"
    },
    {
      "channel": 2,
      "note": 38,
      "start": 106.1849,
      "duration": 0.3022,
      "velocity": 118,
      "chip": "ym2612"
    },
    {
      "channel": 3,
      "note": 26,
      "start": 106.1856,
      "duration": 0.1671,
      "velocity": 114,
      "chip": "ym2612"
    },
    {
      "channel": 4,
      "note": 50,
      "start": 106.1915,
      "duration": 0.1505,
      "velocity": 100,
      "chip": "ym2612"
    },
    {
      "channel": 5,
      "note": 7,
      "start": 106.1922,
      "duration": 2.4266,
      "velocity": 1,
      "chip": "ym2612"
    },
    {
      "channel": 4,
      "note": 62,
      "start": 106.3433,
      "duration": 0.1172,
      "velocity": 107,
      "chip": "ym2612"
    },
    {
      "channel": 1,
      "note": 38,
      "start": 106.4869,
      "duration": 0.1681,
      "velocity": 114,
      "chip": "ym2612"
    },
    {
      "channel": 2,
      "note": 62,
      "start": 106.4882,
      "duration": 0.2515,
      "velocity": 127,
      "chip": "ym2612"
    },
    {
      "channel": 3,
      "note": 26,
      "start": 106.489,
      "duration": 0.1671,
      "velocity": 114,
      "chip": "ym2612"
    },
    {
      "channel": 4,
      "note": 38,
      "start": 106.4948,
      "duration": 0.1506,
      "velocity": 1,
      "chip": "ym2612"
    },
    {
      "channel": 4,
      "note": 74,
      "start": 106.6467,
      "duration": 0.1172,
      "velocity": 107,
      "chip": "ym2612"
    },
    {
      "channel": 1,
      "note": 39,
      "start": 106.79,
      "duration": 0.1511,
      "velocity": 114,
      "chip": "ym2612"
    },
    {
      "channel": 2,
      "note": 38,
      "start": 106.7914,
      "duration": 0.302,
      "velocity": 118,
      "chip": "ym2612"
    },
    {
      "channel": 3,
      "note": 27,
      "start": 106.7921,
      "duration": 0.1503,
      "velocity": 114,
      "chip": "ym2612"
    },
    {
      "channel": 4,
      "note": 65,
      "start": 106.7978,
      "duration": 0.1178,
      "velocity": 107,
      "chip": "ym2612"
    },
    {
      "channel": 1,
      "note": 39,
      "start": 106.9417,
      "duration": 0.1683,
      "velocity": 114,
      "chip": "ym2612"
    },
    {
      "channel": 3,
      "note": 27,
      "start": 106.943,
      "duration": 0.1681,
      "velocity": 114,
      "chip": "ym2612"
    },
    {
      "channel": 4,
      "note": 38,
      "start": 106.9499,
      "duration": 0.1505,
      "velocity": 1,
      "chip": "ym2612"
    },
    {
      "channel": 2,
      "note": 62,
      "start": 107.0945,
      "duration": 0.252,
      "velocity": 127,
      "chip": "ym2612"
    },
    {
      "channel": 4,
      "note": 50,
      "start": 107.1015,
      "duration": 0.1505,
      "velocity": 100,
      "chip": "ym2612"
    },
    {
      "channel": 1,
      "note": 41,
      "start": 107.245,
      "duration": 0.1683,
      "velocity": 114,
      "chip": "ym2612"
    },
    {
      "channel": 3,
      "note": 29,
      "start": 107.2463,
      "duration": 0.1681,
      "velocity": 114,
      "chip": "ym2612"
    },
    {
      "channel": 4,
      "note": 62,
      "start": 107.2537,
      "duration": 0.1169,
      "velocity": 107,
      "chip": "ym2612"
    },
    {
      "channel": 2,
      "note": 38,
      "start": 107.3978,
      "duration": 0.3022,
      "velocity": 118,
      "chip": "ym2612"
    },
    {
      "channel": 4,
      "note": 50,
      "start": 107.4051,
      "duration": 0.1503,
      "velocity": 127,
      "chip": "ym2612"
    },
    {
      "channel": 1,
      "note": 38,
      "start": 107.5484,
      "duration": 0.1683,
      "velocity": 114,
      "chip": "ym2612"
    },
    {
      "channel": 3,
      "note": 26,
      "start": 107.5497,
      "duration": 0.1681,
      "velocity": 114,
      "chip": "ym2612"
    },
    {
      "channel": 4,
      "note": 50,
      "start": 107.5566,
      "duration": 0.1505,
      "velocity": 100,
      "chip": "ym2612"
    },
    {
      "channel": 2,
      "note": 62,
      "start": 107.7012,
      "duration": 0.2522,
      "velocity": 127,
      "chip": "ym2612"
    },
    {
      "channel": 4,
      "note": 38,
      "start": 107.7083,
      "duration": 0.1505,
      "velocity": 1,
      "chip": "ym2612"
    },
    {
      "channel": 1,
      "note": 39,
      "start": 107.8518,
      "duration": 0.1686,
      "velocity": 114,
      "chip": "ym2612"
    },
    {
      "channel": 3,
      "note": 27,
      "start": 107.8533,
      "duration": 0.1681,
      "velocity": 114,
      "chip": "ym2612"
    },
    {
      "channel": 4,
      "note": 62,
      "start": 107.8601,
      "duration": 0.1172,
      "velocity": 107,
      "chip": "ym2612"
    },
    {
      "channel": 2,
      "note": 38,
      "start": 108.0048,
      "duration": 0.302,
      "velocity": 118,
      "chip": "ym2612"
    },
    {
      "channel": 4,
      "note": 50,
      "start": 108.0116,
      "duration": 0.1505,
      "velocity": 72,
      "chip": "ym2612"
    },
    {
      "channel": 1,
      "note": 39,
      "start": 108.1551,
      "duration": 0.1683,
      "velocity": 114,
      "chip": "ym2612"
    },
    {
      "channel": 3,
      "note": 27,
      "start": 108.1564,
      "duration": 0.1681,
      "velocity": 114,
      "chip": "ym2612"
    },
    {
      "channel": 4,
      "note": 38,
      "start": 108.1633,
      "duration": 0.1506,
      "velocity": 1,
      "chip": "ym2612"
    },
    {
      "channel": 2,
      "note": 62,
      "start": 108.308,
      "duration": 0.252,
      "velocity": 127,
      "chip": "ym2612"
    },
    {
      "channel": 4,
      "note": 50,
      "start": 108.315,
      "duration": 0.1505,
      "velocity": 100,
      "chip": "ym2612"
    },
    {
      "channel": 1,
      "note": 41,
      "start": 108.4585,
      "duration": 0.1514,
      "velocity": 114,
      "chip": "ym2612"
    },
    {
      "channel": 3,
      "note": 29,
      "start": 108.4598,
      "duration": 0.1522,
      "velocity": 114,
      "chip": "ym2612"
    },
    {
      "channel": 4,
      "note": 62,
      "start": 108.4668,
      "duration": 0.1172,
      "velocity": 107,
      "chip": "ym2612"
    },
    {
      "channel": 0,
      "note": 5,
      "start": 108.6097,
      "duration": 1.1795,
      "velocity": 127,
      "chip": "ym2612"
    },
    {
      "channel": 1,
      "note": 38,
      "start": 108.6104,
      "duration": 0.1681,
      "velocity": 114,
      "chip": "ym2612"
    },
    {
      "channel": 2,
      "note": 38,
      "start": 108.6118,
      "duration": 0.302,
      "velocity": 118,
      "chip": "ym2612"
    },
    {
      "channel": 3,
      "note": 26,
      "start": 108.6125,
      "duration": 0.1671,
      "velocity": 114,
      "chip": "ym2612"
    },
    {
      "channel": 4,
      "note": 41,
      "start": 108.6185,
      "duration": 0.1504,
      "velocity": 127,
      "chip": "ym2612"
    },
    {
      "channel": 5,
      "note": 7,
      "start": 108.6192,
      "duration": 2.4263,
      "velocity": 1,
      "chip": "ym2612"
    },
    {
      "channel": 4,
      "note": 50,
      "start": 108.7703,
      "duration": 0.1502,
      "velocity": 100,
      "chip": "ym2612"
    },
    {
      "channel": 1,
      "note": 38,
      "start": 108.9136,
      "duration": 0.1683,
      "velocity": 114,
      "chip": "ym2612"
    },
    {
      "channel": 2,
      "note": 62,
      "start": 108.9149,
      "duration": 0.2518,
      "velocity": 127,
      "chip": "ym2612"
    },
    {
      "channel": 3,
      "note": 26,
      "start": 108.9156,
      "duration": 0.1673,
      "velocity": 114,
      "chip": "ym2612"
    },
    {
      "channel": 4,
      "note": 38,
      "start": 108.9217,
      "duration": 0.1506,
      "velocity": 1,
      "chip": "ym2612"
    },
    {
      "channel": 4,
      "note": 62,
      "start": 109.0736,
      "duration": 0.1171,
      "velocity": 107,
      "chip": "ym2612"
    },
    {
      "channel": 1,
      "note": 39,
      "start": 109.2169,
      "duration": 0.1512,
      "velocity": 114,
      "chip": "ym2612"
    },
    {
      "channel": 2,
      "note": 38,
      "start": 109.2183,
      "duration": 0.3023,
      "velocity": 118,
      "chip": "ym2612"
    },
    {
      "channel": 3,
      "note": 27,
      "start": 109.219,
      "duration": 0.1503,
      "velocity": 114,
      "chip": "ym2612"
    },
    {
      "channel": 4,
      "note": 50,
      "start": 109.2251,
      "duration": 0.1505,
      "velocity": 72,
      "chip": "ym2612"
    },
    {
      "channel": 1,
      "note": 39,
      "start": 109.3686,
      "duration": 0.1686,
      "velocity": 114,
      "chip": "ym2612"
    },
    {
      "channel": 3,
      "note": 27,
      "start": 109.3701,
      "duration": 0.1682,
      "velocity": 114,
      "chip": "ym2612"
    },
    {
      "channel": 4,
      "note": 38,
      "start": 109.3768,
      "duration": 0.1505,
      "velocity": 1,
      "chip": "ym2612"
    },
    {
      "channel": 2,
      "note": 62,
      "start": 109.5216,
      "duration": 0.2518,
      "velocity": 127,
      "chip": "ym2612"
    },
    {
      "channel": 4,
      "note": 50,
      "start": 109.5284,
      "duration": 0.1505,
      "velocity": 100,
      "chip": "ym2612"
    },
    {
      "channel": 1,
      "note": 41,
      "start": 109.672,
      "duration": 0.1683,
      "velocity": 114,
      "chip": "ym2612"
    },
    {
      "channel": 3,
      "note": 29,
      "start": 109.6732,
      "duration": 0.1681,
      "velocity": 114,
      "chip": "ym2612"
    },
    {
      "channel": 4,
      "note": 62,
      "start": 109.6803,
      "duration": 0.1171,
      "velocity": 107,
      "chip": "ym2612"
    },
    {
      "channel": 2,
      "note": 38,
      "start": 109.8247,
      "duration": 0.3022,
      "velocity": 118,
      "chip": "ym2612"
    },
    {
      "channel": 4,
      "note": 50,
      "start": 109.8319,
      "duration": 0.1504,
      "velocity": 127,
      "chip": "ym2612"
    },
    {
      "channel": 1,
      "note": 38,
      "start": 109.9753,
      "duration": 0.1683,
      "velocity": 114,
      "chip": "ym2612"
    },
    {
      "channel": 3,
      "note": 26,
      "start": 109.9766,
      "duration": 0.1681,
      "velocity": 114,
      "chip": "ym2612"
    },
    {
      "channel": 4,
      "note": 50,
      "start": 109.9835,
      "duration": 0.1506,
      "velocity": 100,
      "chip": "ym2612"
    },
    {
      "channel": 2,
      "note": 62,
      "start": 110.1281,
      "duration": 0.252,
      "velocity": 127,
      "chip": "ym2612"
    },
    {
      "channel": 4,
      "note": 38,
      "start": 110.1352,
      "duration": 0.1505,
      "velocity": 1,
      "chip": "ym2612"
    },
    {
      "channel": 1,
      "note": 39,
      "start": 110.2787,
      "duration": 0.1683,
      "velocity": 114,
      "chip": "ym2612"
    },
    {
      "channel": 3,
      "note": 27,
      "start": 110.28,
      "duration": 0.1681,
      "velocity": 114,
      "chip": "ym2612"
    },
    {
      "channel": 4,
      "note": 62,
      "start": 110.2873,
      "duration": 0.1169,
      "velocity": 107,
      "chip": "ym2612"
    },
    {
      "channel": 2,
      "note": 38,
      "start": 110.4315,
      "duration": 0.3022,
      "velocity": 118,
      "chip": "ym2612"
    },
    {
      "channel": 4,
      "note": 50,
      "start": 110.4385,
      "duration": 0.1505,
      "velocity": 72,
      "chip": "ym2612"
    },
    {
      "channel": 1,
      "note": 39,
      "start": 110.5821,
      "duration": 0.1683,
      "velocity": 114,
      "chip": "ym2612"
    },
    {
      "channel": 3,
      "note": 27,
      "start": 110.5833,
      "duration": 0.1681,
      "velocity": 114,
      "chip": "ym2612"
    },
    {
      "channel": 4,
      "note": 38,
      "start": 110.5902,
      "duration": 0.1505,
      "velocity": 1,
      "chip": "ym2612"
    },
    {
      "channel": 2,
      "note": 62,
      "start": 110.7349,
      "duration": 0.2522,
      "velocity": 127,
      "chip": "ym2612"
    },
    {
      "channel": 4,
      "note": 62,
      "start": 110.7419,
      "duration": 0.1505,
      "velocity": 100,
      "chip": "ym2612"
    },
    {
      "channel": 1,
      "note": 41,
      "start": 110.8854,
      "duration": 0.1517,
      "velocity": 114,
      "chip": "ym2612"
    },
    {
      "channel": 3,
      "note": 29,
      "start": 110.887,
      "duration": 0.1522,
      "velocity": 114,
      "chip": "ym2612"
    },
    {
      "channel": 4,
      "note": 62,
      "start": 110.8938,
      "duration": 0.1171,
      "velocity": 107,
      "chip": "ym2612"
    },
    {
      "channel": 0,
      "note": 5,
      "start": 111.0368,
      "duration": 1.1793,
      "velocity": 127,
      "chip": "ym2612"
    },
    {
      "channel": 1,
      "note": 38,
      "start": 111.0376,
      "duration": 0.1678,
      "velocity": 114,
      "chip": "ym2612"
    },
    {
      "channel": 2,
      "note": 38,
      "start": 111.0389,
      "duration": 0.3017,
      "velocity": 118,
      "chip": "ym2612"
    },
    {
      "channel": 3,
      "note": 26,
      "start": 111.0397,
      "duration": 0.1668,
      "velocity": 114,
      "chip": "ym2612"
    },
    {
      "channel": 4,
      "note": 50,
      "start": 111.0452,
      "duration": 0.1506,
      "velocity": 100,
      "chip": "ym2612"
    },
    {
      "channel": 5,
      "note": 7,
      "start": 111.046,
      "duration": 2.4265,
      "velocity": 1,
      "chip": "ym2612"
    },
    {
      "channel": 4,
      "note": 62,
      "start": 111.1971,
      "duration": 0.1171,
      "velocity": 107,
      "chip": "ym2612"
    },
    {
      "channel": 1,
      "note": 38,
      "start": 111.3405,
      "duration": 0.1683,
      "velocity": 114,
      "chip": "ym2612"
    },
    {
      "channel": 2,
      "note": 62,
      "start": 111.3418,
      "duration": 0.2518,
      "velocity": 127,
      "chip": "ym2612"
    },
    {
      "channel": 3,
      "note": 26,
      "start": 111.3426,
      "duration": 0.1673,
      "velocity": 114,
      "chip": "ym2612"
    },
    {
      "channel": 4,
      "note": 38,
      "start": 111.3486,
      "duration": 0.1505,
      "velocity": 1,
      "chip": "ym2612"
    },
    {
      "channel": 4,
      "note": 74,
      "start": 111.5005,
      "duration": 0.1171,
      "velocity": 107,
      "chip": "ym2612"
    },
    {
      "channel": 1,
      "note": 39,
      "start": 111.6438,
      "duration": 0.1511,
      "velocity": 114,
      "chip": "ym2612"
    },
    {
      "channel": 2,
      "note": 38,
      "start": 111.6452,
      "duration": 0.302,
      "velocity": 118,
      "chip": "ym2612"
    },
    {
      "channel": 3,
      "note": 27,
      "start": 111.6459,
      "duration": 0.1503,
      "velocity": 114,
      "chip": "ym2612"
    },
    {
      "channel": 4,
      "note": 65,
      "start": 111.6515,
      "duration": 0.1178,
      "velocity": 107,
      "chip": "ym2612"
    },
    {
      "channel": 1,
      "note": 39,
      "start": 111.7955,
      "duration": 0.1684,
      "velocity": 114,
      "chip": "ym2612"
    },
    {
      "channel": 3,
      "note": 27,
      "start": 111.7968,
      "duration": 0.1681,
      "velocity": 114,
      "chip": "ym2612"
    },
    {
      "channel": 4,
      "note": 38,
      "start": 111.8039,
      "duration": 0.1503,
      "velocity": 1,
      "chip": "ym2612"
    },
    {
      "channel": 2,
      "note": 62,
      "start": 111.9483,
      "duration": 0.252,
      "velocity": 127,
      "chip": "ym2612"
    },
    {
      "channel": 4,
      "note": 50,
      "start": 111.9554,
      "duration": 0.1505,
      "velocity": 100,
      "chip": "ym2612"
    },
    {
      "channel": 1,
      "note": 41,
      "start": 112.0989,
      "duration": 0.1683,
      "velocity": 114,
      "chip": "ym2612"
    },
    {
      "channel": 3,
      "note": 29,
      "start": 112.1001,
      "duration": 0.1681,
      "velocity": 114,
      "chip": "ym2612"
    },
    {
      "channel": 4,
      "note": 62,
      "start": 112.1072,
      "duration": 0.1172,
      "velocity": 107,
      "chip": "ym2612"
    },
    {
      "channel": 2,
      "note": 38,
      "start": 112.2517,
      "duration": 0.3025,
      "velocity": 118,
      "chip": "ym2612"
    },
    {
      "channel": 4,
      "note": 50,
      "start": 112.2588,
      "duration": 0.1504,
      "velocity": 127,
      "chip": "ym2612"
    },
    {
      "channel": 1,
      "note": 38,
      "start": 112.4022,
      "duration": 0.1686,
      "velocity": 114,
      "chip": "ym2612"
    },
    {
      "channel": 3,
      "note": 26,
      "start": 112.4038,
      "duration": 0.1681,
      "velocity": 114,
      "chip": "ym2612"
    },
    {
      "channel": 4,
      "note": 50,
      "start": 112.4104,
      "duration": 0.1505,
      "velocity": 100,
      "chip": "ym2612"
    },
    {
      "channel": 2,
      "note": 62,
      "start": 112.5553,
      "duration": 0.2517,
      "velocity": 127,
      "chip": "ym2612"
    },
    {
      "channel": 4,
      "note": 38,
      "start": 112.562,
      "duration": 0.1506,
      "velocity": 1,
      "chip": "ym2612"
    },
    {
      "channel": 1,
      "note": 39,
      "start": 112.7056,
      "duration": 0.1683,
      "velocity": 114,
      "chip": "ym2612"
    },
    {
      "channel": 3,
      "note": 27,
      "start": 112.7069,
      "duration": 0.1681,
      "velocity": 114,
      "chip": "ym2612"
    },
    {
      "channel": 4,
      "note": 62,
      "start": 112.7139,
      "duration": 0.1172,
      "velocity": 107,
      "chip": "ym2612"
    },
    {
      "channel": 2,
      "note": 38,
      "start": 112.8584,
      "duration": 0.3022,
      "velocity": 118,
      "chip": "ym2612"
    },
    {
      "channel": 4,
      "note": 50,
      "start": 112.8654,
      "duration": 0.1506,
      "velocity": 72,
      "chip": "ym2612"
    },
    {
      "channel": 1,
      "note": 39,
      "start": 113.009,
      "duration": 0.1683,
      "velocity": 114,
      "chip": "ym2612"
    },
    {
      "channel": 3,
      "note": 27,
      "start": 113.0102,
      "duration": 0.1681,
      "velocity": 114,
      "chip": "ym2612"
    },
    {
      "channel": 4,
      "note": 38,
      "start": 113.0171,
      "duration": 0.1505,
      "velocity": 1,
      "chip": "ym2612"
    },
    {
      "channel": 2,
      "note": 62,
      "start": 113.1618,
      "duration": 0.252,
      "velocity": 127,
      "chip": "ym2612"
    },
    {
      "channel": 4,
      "note": 50,
      "start": 113.1688,
      "duration": 0.1506,
      "velocity": 100,
      "chip": "ym2612"
    },
    {
      "channel": 1,
      "note": 41,
      "start": 113.3123,
      "duration": 0.1514,
      "velocity": 114,
      "chip": "ym2612"
    },
    {
      "channel": 3,
      "note": 29,
      "start": 113.3136,
      "duration": 0.1522,
      "velocity": 114,
      "chip": "ym2612"
    },
    {
      "channel": 4,
      "note": 62,
      "start": 113.3209,
      "duration": 0.1168,
      "velocity": 107,
      "chip": "ym2612"
    },
    {
      "channel": 0,
      "note": 5,
      "start": 113.4635,
      "duration": 1.1795,
      "velocity": 127,
      "chip": "ym2612"
    },
    {
      "channel": 1,
      "note": 38,
      "start": 113.4642,
      "duration": 0.1681,
      "velocity": 114,
      "chip": "ym2612"
    },
    {
      "channel": 2,
      "note": 38,
      "start": 113.4656,
      "duration": 0.302,
      "velocity": 118,
      "chip": "ym2612"
    },
    {
      "channel": 3,
      "note": 26,
      "start": 113.4663,
      "duration": 0.1671,
      "velocity": 114,
      "chip": "ym2612"
    },
    {
      "channel": 4,
      "note": 41,
      "start": 113.4723,
      "duration": 0.1503,
      "velocity": 127,
      "chip": "ym2612"
    },
    {
      "channel": 5,
      "note": 7,
      "start": 113.473,
      "duration": 2.4263,
      "velocity": 1,
      "chip": "ym2612"
    },
    {
      "channel": 4,
      "note": 50,
      "start": 113.6239,
      "duration": 0.1505,
      "velocity": 100,
      "chip": "ym2612"
    },
    {
      "channel": 1,
      "note": 38,
      "start": 113.7674,
      "duration": 0.1683,
      "velocity": 114,
      "chip": "ym2612"
    },
    {
      "channel": 2,
      "note": 62,
      "start": 113.7687,
      "duration": 0.252,
      "velocity": 127,
      "chip": "ym2612"
    },
    {
      "channel": 3,
      "note": 26,
      "start": 113.7695,
      "duration": 0.1676,
      "velocity": 114,
      "chip": "ym2612"
    },
    {
      "channel": 4,
      "note": 38,
      "start": 113.7755,
      "duration": 0.1505,
      "velocity": 1,
      "chip": "ym2612"
    },
    {
      "channel": 4,
      "note": 62,
      "start": 113.9274,
      "duration": 0.1171,
      "velocity": 107,
      "chip": "ym2612"
    },
    {
      "channel": 1,
      "note": 39,
      "start": 114.071,
      "duration": 0.1509,
      "velocity": 114,
      "chip": "ym2612"
    },
    {
      "channel": 2,
      "note": 38,
      "start": 114.0723,
      "duration": 0.3017,
      "velocity": 118,
      "chip": "ym2612"
    },
    {
      "channel": 3,
      "note": 27,
      "start": 114.0731,
      "duration": 0.1501,
      "velocity": 114,
      "chip": "ym2612"
    },
    {
      "channel": 4,
      "note": 50,
      "start": 114.0789,
      "duration": 0.1505,
      "velocity": 72,
      "chip": "ym2612"
    },
    {
      "channel": 1,
      "note": 39,
      "start": 114.2224,
      "duration": 0.1683,
      "velocity": 114,
      "chip": "ym2612"
    },
    {
      "channel": 3,
      "note": 27,
      "start": 114.2237,
      "duration": 0.1681,
      "velocity": 114,
      "chip": "ym2612"
    },
    {
      "channel": 4,
      "note": 38,
      "start": 114.2305,
      "duration": 0.1505,
      "velocity": 1,
      "chip": "ym2612"
    },
    {
      "channel": 2,
      "note": 62,
      "start": 114.3752,
      "duration": 0.252,
      "velocity": 127,
      "chip": "ym2612"
    },
    {
      "channel": 4,
      "note": 50,
      "start": 114.3822,
      "duration": 0.1505,
      "velocity": 100,
      "chip": "ym2612"
    },
    {
      "channel": 1,
      "note": 41,
      "start": 114.5258,
      "duration": 0.1683,
      "velocity": 114,
      "chip": "ym2612"
    },
    {
      "channel": 3,
      "note": 29,
      "start": 114.527,
      "duration": 0.1681,
      "velocity": 114,
      "chip": "ym2612"
    },
    {
      "channel": 4,
      "note": 62,
      "start": 114.5341,
      "duration": 0.1172,
      "velocity": 107,
      "chip": "ym2612"
    },
    {
      "channel": 2,
      "note": 38,
      "start": 114.6786,
      "duration": 0.3022,
      "velocity": 118,
      "chip": "ym2612"
    },
    {
      "channel": 4,
      "note": 50,
      "start": 114.6858,
      "duration": 0.1504,
      "velocity": 127,
      "chip": "ym2612"
    },
    {
      "channel": 1,
      "note": 38,
      "start": 114.8291,
      "duration": 0.1683,
      "velocity": 114,
      "chip": "ym2612"
    },
    {
      "channel": 3,
      "note": 26,
      "start": 114.8304,
      "duration": 0.1681,
      "velocity": 114,
      "chip": "ym2612"
    },
    {
      "channel": 4,
      "note": 50,
      "start": 114.8375,
      "duration": 0.1502,
      "velocity": 100,
      "chip": "ym2612"
    },
    {
      "channel": 2,
      "note": 62,
      "start": 114.9819,
      "duration": 0.252,
      "velocity": 127,
      "chip": "ym2612"
    },
    {
      "channel": 4,
      "note": 38,
      "start": 114.9889,
      "duration": 0.1506,
      "velocity": 1,
      "chip": "ym2612"
    },
    {
      "channel": 1,
      "note": 39,
      "start": 115.1325,
      "duration": 0.1683,
      "velocity": 114,
      "chip": "ym2612"
    },
    {
      "channel": 3,
      "note": 27,
      "start": 115.1338,
      "duration": 0.1681,
      "velocity": 114,
      "chip": "ym2612"
    },
    {
      "channel": 4,
      "note": 62,
      "start": 115.1408,
      "duration": 0.1171,
      "velocity": 107,
      "chip": "ym2612"
    },
    {
      "channel": 2,
      "note": 38,
      "start": 115.2853,
      "duration": 0.3025,
      "velocity": 118,
      "chip": "ym2612"
    },
    {
      "channel": 4,
      "note": 50,
      "start": 115.2923,
      "duration": 0.1505,
      "velocity": 72,
      "chip": "ym2612"
    },
    {
      "channel": 1,
      "note": 39,
      "start": 115.4358,
      "duration": 0.1686,
      "velocity": 114,
      "chip": "ym2612"
    },
    {
      "channel": 3,
      "note": 27,
      "start": 115.4373,
      "duration": 0.1682,
      "velocity": 114,
      "chip": "ym2612"
    },
    {
      "channel": 4,
      "note": 38,
      "start": 115.444,
      "duration": 0.1505,
      "velocity": 1,
      "chip": "ym2612"
    },
    {
      "channel": 2,
      "note": 62,
      "start": 115.5889,
      "duration": 0.2517,
      "velocity": 127,
      "chip": "ym2612"
    },
    {
      "channel": 4,
      "note": 62,
      "start": 115.5957,
      "duration": 0.1505,
      "velocity": 100,
      "chip": "ym2612"
    },
    {
      "channel": 1,
      "note": 41,
      "start": 115.7392,
      "duration": 0.1514,
      "velocity": 114,
      "chip": "ym2612"
    },
    {
      "channel": 3,
      "note": 29,
      "start": 115.7405,
      "duration": 0.1522,
      "velocity": 114,
      "chip": "ym2612"
    },
    {
      "channel": 4,
      "note": 62,
      "start": 115.7476,
      "duration": 0.1171,
      "velocity": 107,
      "chip": "ym2612"
    },
    {
      "channel": 0,
      "note": 5,
      "start": 115.8903,
      "duration": 1.1798,
      "velocity": 127,
      "chip": "ym2612"
    },
    {
      "channel": 1,
      "note": 38,
      "start": 115.8911,
      "duration": 0.1681,
      "velocity": 114,
      "chip": "ym2612"
    },
    {
      "channel": 2,
      "note": 38,
      "start": 115.8924,
      "duration": 0.302,
      "velocity": 118,
      "chip": "ym2612"
    },
    {
      "channel": 3,
      "note": 26,
      "start": 115.8933,
      "duration": 0.1671,
      "velocity": 114,
      "chip": "ym2612"
    },
    {
      "channel": 4,
      "note": 50,
      "start": 115.899,
      "duration": 0.1505,
      "velocity": 100,
      "chip": "ym2612"
    },
    {
      "channel": 5,
      "note": 7,
      "start": 115.8998,
      "duration": 2.4266,
      "velocity": 1,
      "chip": "ym2612"
    },
    {
      "channel": 4,
      "note": 62,
      "start": 116.051,
      "duration": 0.1171,
      "velocity": 107,
      "chip": "ym2612"
    },
    {
      "channel": 1,
      "note": 38,
      "start": 116.1943,
      "duration": 0.1683,
      "velocity": 114,
      "chip": "ym2612"
    },
    {
      "channel": 2,
      "note": 62,
      "start": 116.1956,
      "duration": 0.2517,
      "velocity": 127,
      "chip": "ym2612"
    },
    {
      "channel": 3,
      "note": 26,
      "start": 116.1964,
      "duration": 0.1673,
      "velocity": 114,
      "chip": "ym2612"
    },
    {
      "channel": 4,
      "note": 38,
      "start": 116.2024,
      "duration": 0.1507,
      "velocity": 1,
      "chip": "ym2612"
    },
    {
      "channel": 4,
      "note": 74,
      "start": 116.3545,
      "duration": 0.1169,
      "velocity": 107,
      "chip": "ym2612"
    },
    {
      "channel": 1,
      "note": 39,
      "start": 116.4976,
      "duration": 0.1512,
      "velocity": 114,
      "chip": "ym2612"
    },
    {
      "channel": 2,
      "note": 38,
      "start": 116.499,
      "duration": 0.302,
      "velocity": 118,
      "chip": "ym2612"
    },
    {
      "channel": 3,
      "note": 27,
      "start": 116.4998,
      "duration": 0.1503,
      "velocity": 114,
      "chip": "ym2612"
    },
    {
      "channel": 4,
      "note": 65,
      "start": 116.5054,
      "duration": 0.1177,
      "velocity": 107,
      "chip": "ym2612"
    },
    {
      "channel": 1,
      "note": 39,
      "start": 116.6493,
      "duration": 0.1683,
      "velocity": 114,
      "chip": "ym2612"
    },
    {
      "channel": 3,
      "note": 27,
      "start": 116.6506,
      "duration": 0.1681,
      "velocity": 114,
      "chip": "ym2612"
    },
    {
      "channel": 4,
      "note": 38,
      "start": 116.6574,
      "duration": 0.1505,
      "velocity": 1,
      "chip": "ym2612"
    },
    {
      "channel": 2,
      "note": 62,
      "start": 116.8021,
      "duration": 0.2522,
      "velocity": 127,
      "chip": "ym2612"
    },
    {
      "channel": 4,
      "note": 50,
      "start": 116.8092,
      "duration": 0.1505,
      "velocity": 100,
      "chip": "ym2612"
    },
    {
      "channel": 1,
      "note": 41,
      "start": 116.9527,
      "duration": 0.1686,
      "velocity": 114,
      "chip": "ym2612"
    },
    {
      "channel": 3,
      "note": 29,
      "start": 116.9542,
      "duration": 0.1681,
      "velocity": 114,
      "chip": "ym2612"
    },
    {
      "channel": 4,
      "note": 62,
      "start": 116.961,
      "duration": 0.1171,
      "velocity": 107,
      "chip": "ym2612"
    },
    {
      "channel": 2,
      "note": 38,
      "start": 117.1057,
      "duration": 0.302,
      "velocity": 118,
      "chip": "ym2612"
    },
    {
      "channel": 4,
      "note": 50,
      "start": 117.1127,
      "duration": 0.1504,
      "velocity": 127,
      "chip": "ym2612"
    },
    {
      "channel": 1,
      "note": 38,
      "start": 117.256,
      "duration": 0.1684,
      "velocity": 114,
      "chip": "ym2612"
    },
    {
      "channel": 3,
      "note": 26,
      "start": 117.2573,
      "duration": 0.1682,
      "velocity": 114,
      "chip": "ym2612"
    },
    {
      "channel": 4,
      "note": 50,
      "start": 117.2642,
      "duration": 0.1505,
      "velocity": 100,
      "chip": "ym2612"
    },
    {
      "channel": 2,
      "note": 62,
      "start": 117.4088,
      "duration": 0.252,
      "velocity": 127,
      "chip": "ym2612"
    },
    {
      "channel": 4,
      "note": 38,
      "start": 117.4159,
      "duration": 0.1505,
      "velocity": 1,
      "chip": "ym2612"
    },
    {
      "channel": 1,
      "note": 39,
      "start": 117.5593,
      "duration": 0.1684,
      "velocity": 114,
      "chip": "ym2612"
    },
    {
      "channel": 3,
      "note": 27,
      "start": 117.5606,
      "duration": 0.1681,
      "velocity": 114,
      "chip": "ym2612"
    },
    {
      "channel": 4,
      "note": 62,
      "start": 117.5678,
      "duration": 0.1171,
      "velocity": 107,
      "chip": "ym2612"
    },
    {
      "channel": 2,
      "note": 38,
      "start": 117.7122,
      "duration": 0.3022,
      "velocity": 118,
      "chip": "ym2612"
    },
    {
      "channel": 4,
      "note": 50,
      "start": 117.7192,
      "duration": 0.1508,
      "velocity": 72,
      "chip": "ym2612"
    },
    {
      "channel": 1,
      "note": 39,
      "start": 117.8627,
      "duration": 0.1683,
      "velocity": 114,
      "chip": "ym2612"
    },
    {
      "channel": 3,
      "note": 27,
      "start": 117.864,
      "duration": 0.1681,
      "velocity": 114,
      "chip": "ym2612"
    },
    {
      "channel": 4,
      "note": 38,
      "start": 117.8712,
      "duration": 0.1502,
      "velocity": 1,
      "chip": "ym2612"
    },
    {
      "channel": 2,
      "note": 62,
      "start": 118.0155,
      "duration": 0.252,
      "velocity": 127,
      "chip": "ym2612"
    },
    {
      "channel": 4,
      "note": 50,
      "start": 118.0226,
      "duration": 0.1505,
      "velocity": 100,
      "chip": "ym2612"
    },
    {
      "channel": 1,
      "note": 41,
      "start": 118.1661,
      "duration": 0.1514,
      "velocity": 114,
      "chip": "ym2612"
    },
    {
      "channel": 3,
      "note": 29,
      "start": 118.1674,
      "duration": 0.1525,
      "velocity": 114,
      "chip": "ym2612"
    },
    {
      "channel": 4,
      "note": 62,
      "start": 118.1745,
      "duration": 0.1171,
      "velocity": 107,
      "chip": "ym2612"
    },
    {
      "channel": 0,
      "note": 5,
      "start": 118.3172,
      "duration": 1.1795,
      "velocity": 127,
      "chip": "ym2612"
    },
    {
      "channel": 1,
      "note": 38,
      "start": 118.318,
      "duration": 0.1681,
      "velocity": 114,
      "chip": "ym2612"
    },
    {
      "channel": 2,
      "note": 38,
      "start": 118.3193,
      "duration": 0.3023,
      "velocity": 118,
      "chip": "ym2612"
    },
    {
      "channel": 3,
      "note": 26,
      "start": 118.3204,
      "duration": 0.167,
      "velocity": 114,
      "chip": "ym2612"
    },
    {
      "channel": 4,
      "note": 41,
      "start": 118.3261,
      "duration": 0.1504,
      "velocity": 127,
      "chip": "ym2612"
    },
    {
      "channel": 5,
      "note": 7,
      "start": 118.3268,
      "duration": 2.4265,
      "velocity": 1,
      "chip": "ym2612"
    },
    {
      "channel": 4,
      "note": 50,
      "start": 118.4776,
      "duration": 0.1505,
      "velocity": 100,
      "chip": "ym2612"
    },
    {
      "channel": 1,
      "note": 38,
      "start": 118.6214,
      "duration": 0.1681,
      "velocity": 114,
      "chip": "ym2612"
    },
    {
      "channel": 2,
      "note": 62,
      "start": 118.6228,
      "duration": 0.2515,
      "velocity": 127,
      "chip": "ym2612"
    },
    {
      "channel": 3,
      "note": 26,
      "start": 118.6235,
      "duration": 0.1671,
      "velocity": 114,
      "chip": "ym2612"
    },
    {
      "channel": 4,
      "note": 38,
      "start": 118.6293,
      "duration": 0.1505,
      "velocity": 1,
      "chip": "ym2612"
    },
    {
      "channel": 4,
      "note": 62,
      "start": 118.7812,
      "duration": 0.1172,
      "velocity": 107,
      "chip": "ym2612"
    },
    {
      "channel": 1,
      "note": 39,
      "start": 118.9245,
      "duration": 0.1512,
      "velocity": 114,
      "chip": "ym2612"
    },
    {
      "channel": 2,
      "note": 38,
      "start": 118.9258,
      "duration": 0.302,
      "velocity": 118,
      "chip": "ym2612"
    },
    {
      "channel": 3,
      "note": 27,
      "start": 118.9267,
      "duration": 0.1502,
      "velocity": 114,
      "chip": "ym2612"
    },
    {
      "channel": 4,
      "note": 50,
      "start": 118.9327,
      "duration": 0.1505,
      "velocity": 72,
      "chip": "ym2612"
    },
    {
      "channel": 1,
      "note": 39,
      "start": 119.0762,
      "duration": 0.1683,
      "velocity": 114,
      "chip": "ym2612"
    },
    {
      "channel": 3,
      "note": 27,
      "start": 119.0775,
      "duration": 0.1681,
      "velocity": 114,
      "chip": "ym2612"
    },
    {
      "channel": 4,
      "note": 38,
      "start": 119.0844,
      "duration": 0.1505,
      "velocity": 1,
      "chip": "ym2612"
    },
    {
      "channel": 2,
      "note": 62,
      "start": 119.229,
      "duration": 0.252,
      "velocity": 127,
      "chip": "ym2612"
    },
    {
      "channel": 4,
      "note": 50,
      "start": 119.236,
      "duration": 0.1507,
      "velocity": 100,
      "chip": "ym2612"
    },
    {
      "channel": 1,
      "note": 41,
      "start": 119.3796,
      "duration": 0.1683,
      "velocity": 114,
      "chip": "ym2612"
    },
    {
      "channel": 3,
      "note": 29,
      "start": 119.3809,
      "duration": 0.1681,
      "velocity": 114,
      "chip": "ym2612"
    },
    {
      "channel": 4,
      "note": 62,
      "start": 119.388,
      "duration": 0.117,
      "velocity": 107,
      "chip": "ym2612"
    },
    {
      "channel": 2,
      "note": 38,
      "start": 119.5324,
      "duration": 0.3022,
      "velocity": 118,
      "chip": "ym2612"
    },
    {
      "channel": 4,
      "note": 50,
      "start": 119.5396,
      "duration": 0.1503,
      "velocity": 127,
      "chip": "ym2612"
    },
    {
      "channel": 1,
      "note": 38,
      "start": 119.6829,
      "duration": 0.1683,
      "velocity": 114,
      "chip": "ym2612"
    },
    {
      "channel": 3,
      "note": 26,
      "start": 119.6842,
      "duration": 0.1681,
      "velocity": 114,
      "chip": "ym2612"
    },
    {
      "channel": 4,
      "note": 50,
      "start": 119.6911,
      "duration": 0.1505,
      "velocity": 100,
      "chip": "ym2612"
    },
    {
      "channel": 2,
      "note": 62,
      "start": 119.8357,
      "duration": 0.2522,
      "velocity": 127,
      "chip": "ym2612"
    },
    {
      "channel": 4,
      "note": 38,
      "start": 119.8427,
      "duration": 0.1505,
      "velocity": 1,
      "chip": "ym2612"
    },
    {
      "channel": 1,
      "note": 39,
      "start": 119.9865,
      "duration": 0.1681,
      "velocity": 114,
      "chip": "ym2612"
    },
    {
      "channel": 3,
      "note": 27,
      "start": 119.9878,
      "duration": 0.168,
      "velocity": 114,
      "chip": "ym2612"
    },
    {
      "channel": 4,
      "note": 62,
      "start": 119.9946,
      "duration": 0.1171,
      "velocity": 107,
      "chip": "ym2612"
    },
    {
      "channel": 2,
      "note": 38,
      "start": 120.1393,
      "duration": 0.302,
      "velocity": 118,
      "chip": "ym2612"
    },
    {
      "channel": 4,
      "note": 50,
      "start": 120.1461,
      "duration": 0.1505,
      "velocity": 72,
      "chip": "ym2612"
    },
    {
      "channel": 1,
      "note": 39,
      "start": 120.2896,
      "duration": 0.1683,
      "velocity": 114,
      "chip": "ym2612"
    },
    {
      "channel": 3,
      "note": 27,
      "start": 120.2909,
      "duration": 0.1681,
      "velocity": 114,
      "chip": "ym2612"
    },
    {
      "channel": 4,
      "note": 38,
      "start": 120.2978,
      "duration": 0.1506,
      "velocity": 1,
      "chip": "ym2612"
    },
    {
      "channel": 2,
      "note": 62,
      "start": 120.4424,
      "duration": 0.252,
      "velocity": 127,
      "chip": "ym2612"
    },
    {
      "channel": 4,
      "note": 62,
      "start": 120.4495,
      "duration": 0.1505,
      "velocity": 100,
      "chip": "ym2612"
    },
    {
      "channel": 1,
      "note": 41,
      "start": 120.593,
      "duration": 0.1514,
      "velocity": 114,
      "chip": "ym2612"
    },
    {
      "channel": 3,
      "note": 29,
      "start": 120.5943,
      "duration": 0.1522,
      "velocity": 114,
      "chip": "ym2612"
    },
    {
      "channel": 4,
      "note": 62,
      "start": 120.6013,
      "duration": 0.1172,
      "velocity": 107,
      "chip": "ym2612"
    },
    {
      "channel": 0,
      "note": 5,
      "start": 120.7441,
      "duration": 1.1795,
      "velocity": 127,
      "chip": "ym2612"
    },
    {
      "channel": 1,
      "note": 38,
      "start": 120.7449,
      "duration": 0.1681,
      "velocity": 114,
      "chip": "ym2612"
    },
    {
      "channel": 2,
      "note": 38,
      "start": 120.7463,
      "duration": 0.302,
      "velocity": 118,
      "chip": "ym2612"
    },
    {
      "channel": 3,
      "note": 26,
      "start": 120.747,
      "duration": 0.1671,
      "velocity": 114,
      "chip": "ym2612"
    },
    {
      "channel": 4,
      "note": 50,
      "start": 120.7529,
      "duration": 0.1505,
      "velocity": 100,
      "chip": "ym2612"
    },
    {
      "channel": 5,
      "note": 7,
      "start": 120.7538,
      "duration": 2.4263,
      "velocity": 1,
      "chip": "ym2612"
    },
    {
      "channel": 4,
      "note": 62,
      "start": 120.9048,
      "duration": 0.1171,
      "velocity": 107,
      "chip": "ym2612"
    },
    {
      "channel": 1,
      "note": 38,
      "start": 121.048,
      "duration": 0.1684,
      "velocity": 114,
      "chip": "ym2612"
    },
    {
      "channel": 2,
      "note": 62,
      "start": 121.0494,
      "duration": 0.2518,
      "velocity": 127,
      "chip": "ym2612"
    },
    {
      "channel": 3,
      "note": 26,
      "start": 121.0502,
      "duration": 0.1673,
      "velocity": 114,
      "chip": "ym2612"
    },
    {
      "channel": 4,
      "note": 38,
      "start": 121.0562,
      "duration": 0.1506,
      "velocity": 1,
      "chip": "ym2612"
    },
    {
      "channel": 4,
      "note": 74,
      "start": 121.2081,
      "duration": 0.1171,
      "velocity": 107,
      "chip": "ym2612"
    },
    {
      "channel": 1,
      "note": 39,
      "start": 121.3514,
      "duration": 0.1511,
      "velocity": 114,
      "chip": "ym2612"
    },
    {
      "channel": 2,
      "note": 38,
      "start": 121.3527,
      "duration": 0.3021,
      "velocity": 118,
      "chip": "ym2612"
    },
    {
      "channel": 3,
      "note": 27,
      "start": 121.3538,
      "duration": 0.1503,
      "velocity": 114,
      "chip": "ym2612"
    },
    {
      "channel": 4,
      "note": 65,
      "start": 121.3592,
      "duration": 0.1178,
      "velocity": 107,
      "chip": "ym2612"
    },
    {
      "channel": 1,
      "note": 39,
      "start": 121.5034,
      "duration": 0.168,
      "velocity": 114,
      "chip": "ym2612"
    },
    {
      "channel": 3,
      "note": 27,
      "start": 121.5046,
      "duration": 0.1679,
      "velocity": 114,
      "chip": "ym2612"
    },
    {
      "channel": 4,
      "note": 38,
      "start": 121.5113,
      "duration": 0.1505,
      "velocity": 1,
      "chip": "ym2612"
    },
    {
      "channel": 2,
      "note": 62,
      "start": 121.656,
      "duration": 0.2519,
      "velocity": 127,
      "chip": "ym2612"
    },
    {
      "channel": 4,
      "note": 50,
      "start": 121.6629,
      "duration": 0.1505,
      "velocity": 100,
      "chip": "ym2612"
    },
    {
      "channel": 1,
      "note": 41,
      "start": 121.8064,
      "duration": 0.1683,
      "velocity": 114,
      "chip": "ym2612"
    },
    {
      "channel": 3,
      "note": 29,
      "start": 121.8077,
      "duration": 0.1681,
      "velocity": 114,
      "chip": "ym2612"
    },
    {
      "channel": 4,
      "note": 62,
      "start": 121.8148,
      "duration": 0.1171,
      "velocity": 107,
      "chip": "ym2612"
    },
    {
      "channel": 2,
      "note": 38,
      "start": 121.9592,
      "duration": 0.3022,
      "velocity": 118,
      "chip": "ym2612"
    },
    {
      "channel": 4,
      "note": 50,
      "start": 121.9664,
      "duration": 0.1504,
      "velocity": 127,
      "chip": "ym2612"
    },
    {
      "channel": 1,
      "note": 38,
      "start": 122.1098,
      "duration": 0.1683,
      "velocity": 114,
      "chip": "ym2612"
    },
    {
      "channel": 3,
      "note": 26,
      "start": 122.1111,
      "duration": 0.1681,
      "velocity": 114,
      "chip": "ym2612"
    },
    {
      "channel": 4,
      "note": 50,
      "start": 122.118,
      "duration": 0.1505,
      "velocity": 100,
      "chip": "ym2612"
    },
    {
      "channel": 2,
      "note": 62,
      "start": 122.2626,
      "duration": 0.252,
      "velocity": 127,
      "chip": "ym2612"
    },
    {
      "channel": 4,
      "note": 38,
      "start": 122.2699,
      "duration": 0.1502,
      "velocity": 1,
      "chip": "ym2612"
    },
    {
      "channel": 1,
      "note": 39,
      "start": 122.4132,
      "duration": 0.1683,
      "velocity": 114,
      "chip": "ym2612"
    },
    {
      "channel": 3,
      "note": 27,
      "start": 122.4144,
      "duration": 0.1681,
      "velocity": 114,
      "chip": "ym2612"
    },
    {
      "channel": 4,
      "note": 62,
      "start": 122.4215,
      "duration": 0.1172,
      "velocity": 107,
      "chip": "ym2612"
    },
    {
      "channel": 2,
      "note": 38,
      "start": 122.566,
      "duration": 0.3022,
      "velocity": 118,
      "chip": "ym2612"
    },
    {
      "channel": 4,
      "note": 50,
      "start": 122.573,
      "duration": 0.1505,
      "velocity": 72,
      "chip": "ym2612"
    },
    {
      "channel": 1,
      "note": 39,
      "start": 122.7165,
      "duration": 0.1683,
      "velocity": 114,
      "chip": "ym2612"
    },
    {
      "channel": 3,
      "note": 27,
      "start": 122.7178,
      "duration": 0.1681,
      "velocity": 114,
      "chip": "ym2612"
    },
    {
      "channel": 4,
      "note": 38,
      "start": 122.7247,
      "duration": 0.1505,
      "velocity": 1,
      "chip": "ym2612"
    },
    {
      "channel": 2,
      "note": 62,
      "start": 122.8693,
      "duration": 0.2522,
      "velocity": 127,
      "chip": "ym2612"
    },
    {
      "channel": 4,
      "note": 50,
      "start": 122.8764,
      "duration": 0.1505,
      "velocity": 100,
      "chip": "ym2612"
    },
    {
      "channel": 1,
      "note": 41,
      "start": 123.0202,
      "duration": 0.1512,
      "velocity": 114,
      "chip": "ym2612"
    },
    {
      "channel": 3,
      "note": 29,
      "start": 123.0214,
      "duration": 0.152,
      "velocity": 114,
      "chip": "ym2612"
    },
    {
      "channel": 4,
      "note": 62,
      "start": 123.0283,
      "duration": 0.1172,
      "velocity": 107,
      "chip": "ym2612"
    },
    {
      "channel": 0,
      "note": 5,
      "start": 123.1711,
      "duration": 1.1795,
      "velocity": 127,
      "chip": "ym2612"
    },
    {
      "channel": 1,
      "note": 38,
      "start": 123.1718,
      "duration": 0.1681,
      "velocity": 114,
      "chip": "ym2612"
    },
    {
      "channel": 2,
      "note": 38,
      "start": 123.1732,
      "duration": 0.302,
      "velocity": 118,
      "chip": "ym2612"
    },
    {
      "channel": 3,
      "note": 26,
      "start": 123.1739,
      "duration": 0.1671,
      "velocity": 114,
      "chip": "ym2612"
    },
    {
      "channel": 4,
      "note": 41,
      "start": 123.1799,
      "duration": 0.1504,
      "velocity": 127,
      "chip": "ym2612"
    },
    {
      "channel": 5,
      "note": 7,
      "start": 123.1806,
      "duration": 2.4263,
      "velocity": 1,
      "chip": "ym2612"
    },
    {
      "channel": 4,
      "note": 50,
      "start": 123.3314,
      "duration": 0.1505,
      "velocity": 100,
      "chip": "ym2612"
    },
    {
      "channel": 1,
      "note": 38,
      "start": 123.4749,
      "duration": 0.1683,
      "velocity": 114,
      "chip": "ym2612"
    },
    {
      "channel": 2,
      "note": 62,
      "start": 123.4763,
      "duration": 0.2518,
      "velocity": 127,
      "chip": "ym2612"
    },
    {
      "channel": 3,
      "note": 26,
      "start": 123.477,
      "duration": 0.1673,
      "velocity": 114,
      "chip": "ym2612"
    },
    {
      "channel": 4,
      "note": 38,
      "start": 123.4831,
      "duration": 0.1506,
      "velocity": 1,
      "chip": "ym2612"
    },
    {
      "channel": 4,
      "note": 62,
      "start": 123.635,
      "duration": 0.1171,
      "velocity": 107,
      "chip": "ym2612"
    },
    {
      "channel": 1,
      "note": 39,
      "start": 123.7783,
      "duration": 0.1512,
      "velocity": 114,
      "chip": "ym2612"
    },
    {
      "channel": 2,
      "note": 38,
      "start": 123.7796,
      "duration": 0.302,
      "velocity": 118,
      "chip": "ym2612"
    },
    {
      "channel": 3,
      "note": 27,
      "start": 123.7804,
      "duration": 0.1503,
      "velocity": 114,
      "chip": "ym2612"
    },
    {
      "channel": 4,
      "note": 50,
      "start": 123.7867,
      "duration": 0.1502,
      "velocity": 72,
      "chip": "ym2612"
    },
    {
      "channel": 1,
      "note": 39,
      "start": 123.93,
      "duration": 0.1684,
      "velocity": 114,
      "chip": "ym2612"
    },
    {
      "channel": 3,
      "note": 27,
      "start": 123.9312,
      "duration": 0.1682,
      "velocity": 114,
      "chip": "ym2612"
    },
    {
      "channel": 4,
      "note": 38,
      "start": 123.9382,
      "duration": 0.1505,
      "velocity": 1,
      "chip": "ym2612"
    },
    {
      "channel": 2,
      "note": 62,
      "start": 124.0828,
      "duration": 0.252,
      "velocity": 127,
      "chip": "ym2612"
    },
    {
      "channel": 4,
      "note": 50,
      "start": 124.0898,
      "duration": 0.1505,
      "velocity": 100,
      "chip": "ym2612"
    },
    {
      "channel": 1,
      "note": 41,
      "start": 124.2333,
      "duration": 0.1683,
      "velocity": 114,
      "chip": "ym2612"
    },
    {
      "channel": 3,
      "note": 29,
      "start": 124.2346,
      "duration": 0.1681,
      "velocity": 114,
      "chip": "ym2612"
    },
    {
      "channel": 4,
      "note": 62,
      "start": 124.2417,
      "duration": 0.1171,
      "velocity": 107,
      "chip": "ym2612"
    },
    {
      "channel": 2,
      "note": 38,
      "start": 124.3861,
      "duration": 0.3022,
      "velocity": 118,
      "chip": "ym2612"
    },
    {
      "channel": 4,
      "note": 50,
      "start": 124.3933,
      "duration": 0.1504,
      "velocity": 127,
      "chip": "ym2612"
    },
    {
      "channel": 1,
      "note": 38,
      "start": 124.537,
      "duration": 0.1681,
      "velocity": 114,
      "chip": "ym2612"
    },
    {
      "channel": 3,
      "note": 26,
      "start": 124.5382,
      "duration": 0.1679,
      "velocity": 114,
      "chip": "ym2612"
    },
    {
      "channel": 4,
      "note": 50,
      "start": 124.5449,
      "duration": 0.1506,
      "velocity": 100,
      "chip": "ym2612"
    },
    {
      "channel": 2,
      "note": 62,
      "start": 124.6895,
      "duration": 0.252,
      "velocity": 127,
      "chip": "ym2612"
    },
    {
      "channel": 4,
      "note": 38,
      "start": 124.6966,
      "duration": 0.1505,
      "velocity": 1,
      "chip": "ym2612"
    },
    {
      "channel": 1,
      "note": 39,
      "start": 124.8401,
      "duration": 0.1683,
      "velocity": 114,
      "chip": "ym2612"
    },
    {
      "channel": 3,
      "note": 27,
      "start": 124.8414,
      "duration": 0.1681,
      "velocity": 114,
      "chip": "ym2612"
    },
    {
      "channel": 4,
      "note": 62,
      "start": 124.8484,
      "duration": 0.1172,
      "velocity": 107,
      "chip": "ym2612"
    },
    {
      "channel": 2,
      "note": 38,
      "start": 124.9929,
      "duration": 0.3022,
      "velocity": 118,
      "chip": "ym2612"
    },
    {
      "channel": 4,
      "note": 50,
      "start": 124.9999,
      "duration": 0.1505,
      "velocity": 72,
      "chip": "ym2612"
    },
    {
      "channel": 1,
      "note": 39,
      "start": 125.1434,
      "duration": 0.1683,
      "velocity": 114,
      "chip": "ym2612"
    },
    {
      "channel": 3,
      "note": 27,
      "start": 125.1447,
      "duration": 0.1681,
      "velocity": 114,
      "chip": "ym2612"
    },
    {
      "channel": 4,
      "note": 38,
      "start": 125.1516,
      "duration": 0.1505,
      "velocity": 1,
      "chip": "ym2612"
    },
    {
      "channel": 2,
      "note": 62,
      "start": 125.2963,
      "duration": 0.252,
      "velocity": 127,
      "chip": "ym2612"
    },
    {
      "channel": 4,
      "note": 62,
      "start": 125.3036,
      "duration": 0.1502,
      "velocity": 100,
      "chip": "ym2612"
    },
    {
      "channel": 1,
      "note": 41,
      "start": 125.4468,
      "duration": 0.1518,
      "velocity": 114,
      "chip": "ym2612"
    },
    {
      "channel": 3,
      "note": 29,
      "start": 125.4481,
      "duration": 0.1532,
      "velocity": 114,
      "chip": "ym2612"
    },
    {
      "channel": 4,
      "note": 62,
      "start": 125.4551,
      "duration": 0.1171,
      "velocity": 107,
      "chip": "ym2612"
    },
    {
      "channel": 0,
      "note": 38,
      "start": 125.5985,
      "duration": 0.1677,
      "velocity": 114,
      "chip": "ym2612"
    },
    {
      "channel": 1,
      "note": 50,
      "start": 125.5998,
      "duration": 0.1497,
      "velocity": 100,
      "chip": "ym2612"
    },
    {
      "channel": 2,
      "note": 7,
      "start": 125.6012,
      "duration": 2.4253,
      "velocity": 1,
      "chip": "ym2612"
    },
    {
      "channel": 3,
      "note": 7,
      "start": 125.6025,
      "duration": 2.4247,
      "velocity": 1,
      "chip": "ym2612"
    },
    {
      "channel": 4,
      "note": 7,
      "start": 125.6066,
      "duration": 2.4258,
      "velocity": 1,
      "chip": "ym2612"
    },
    {
      "channel": 5,
      "note": 7,
      "start": 125.6074,
      "duration": 2.4258,
      "velocity": 1,
      "chip": "ym2612"
    },
    {
      "channel": 1,
      "note": 62,
      "start": 125.7508,
      "duration": 0.1172,
      "velocity": 107,
      "chip": "ym2612"
    },
    {
      "channel": 0,
      "note": 38,
      "start": 125.9012,
      "duration": 0.1685,
      "velocity": 114,
      "chip": "ym2612"
    },
    {
      "channel": 1,
      "note": 38,
      "start": 125.9025,
      "duration": 0.1505,
      "velocity": 1,
      "chip": "ym2612"
    },
    {
      "channel": 1,
      "note": 74,
      "start": 126.0544,
      "duration": 0.1169,
      "velocity": 107,
      "chip": "ym2612"
    },
    {
      "channel": 0,
      "note": 39,
      "start": 126.2046,
      "duration": 0.1512,
      "velocity": 114,
      "chip": "ym2612"
    },
    {
      "channel": 1,
      "note": 65,
      "start": 126.2055,
      "duration": 0.1176,
      "velocity": 107,
      "chip": "ym2612"
    },
    {
      "channel": 0,
      "note": 39,
      "start": 126.3562,
      "duration": 0.1683,
      "velocity": 114,
      "chip": "ym2612"
    },
    {
      "channel": 1,
      "note": 38,
      "start": 126.3576,
      "duration": 0.1503,
      "velocity": 1,
      "chip": "ym2612"
    },
    {
      "channel": 1,
      "note": 50,
      "start": 126.5091,
      "duration": 0.1507,
      "velocity": 100,
      "chip": "ym2612"
    },
    {
      "channel": 0,
      "note": 41,
      "start": 126.6596,
      "duration": 0.1683,
      "velocity": 114,
      "chip": "ym2612"
    },
    {
      "channel": 1,
      "note": 62,
      "start": 126.6611,
      "duration": 0.1169,
      "velocity": 107,
      "chip": "ym2612"
    },
    {
      "channel": 1,
      "note": 50,
      "start": 126.8126,
      "duration": 0.1506,
      "velocity": 127,
      "chip": "ym2612"
    },
    {
      "channel": 0,
      "note": 38,
      "start": 126.963,
      "duration": 0.1683,
      "velocity": 114,
      "chip": "ym2612"
    },
    {
      "channel": 1,
      "note": 50,
      "start": 126.9643,
      "duration": 0.1503,
      "velocity": 100,
      "chip": "ym2612"
    },
    {
      "channel": 1,
      "note": 38,
      "start": 127.1158,
      "duration": 0.1507,
      "velocity": 1,
      "chip": "ym2612"
    },
    {
      "channel": 0,
      "note": 39,
      "start": 127.2663,
      "duration": 0.1683,
      "velocity": 114,
      "chip": "ym2612"
    },
    {
      "channel": 1,
      "note": 62,
      "start": 127.2679,
      "duration": 0.1169,
      "velocity": 107,
      "chip": "ym2612"
    },
    {
      "channel": 1,
      "note": 50,
      "start": 127.4191,
      "duration": 0.151,
      "velocity": 72,
      "chip": "ym2612"
    },
    {
      "channel": 0,
      "note": 39,
      "start": 127.57,
      "duration": 0.1681,
      "velocity": 114,
      "chip": "ym2612"
    },
    {
      "channel": 1,
      "note": 38,
      "start": 127.5713,
      "duration": 0.1501,
      "velocity": 1,
      "chip": "ym2612"
    },
    {
      "channel": 1,
      "note": 50,
      "start": 127.7225,
      "duration": 0.1508,
      "velocity": 100,
      "chip": "ym2612"
    },
    {
      "channel": 0,
      "note": 41,
      "start": 127.873,
      "duration": 0.1512,
      "velocity": 114,
      "chip": "ym2612"
    },
    {
      "channel": 1,
      "note": 62,
      "start": 127.8746,
      "duration": 0.1169,
      "velocity": 107,
      "chip": "ym2612"
    },
    {
      "channel": 0,
      "note": 38,
      "start": 128.0247,
      "duration": 0.1683,
      "velocity": 114,
      "chip": "ym2612"
    },
    {
      "channel": 1,
      "note": 41,
      "start": 128.0263,
      "duration": 0.1501,
      "velocity": 127,
      "chip": "ym2612"
    },
    {
      "channel": 2,
      "note": 7,
      "start": 128.027,
      "duration": 2.4265,
      "velocity": 1,
      "chip": "ym2612"
    },
    {
      "channel": 3,
      "note": 7,
      "start": 128.0277,
      "duration": 2.4272,
      "velocity": 1,
      "chip": "ym2612"
    },
    {
      "channel": 4,
      "note": 7,
      "start": 128.0329,
      "duration": 2.5106,
      "velocity": 1,
      "chip": "ym2612"
    },
    {
      "channel": 5,
      "note": 7,
      "start": 128.0337,
      "duration": 2.4261,
      "velocity": 1,
      "chip": "ym2612"
    },
    {
      "channel": 1,
      "note": 50,
      "start": 128.1776,
      "duration": 0.1507,
      "velocity": 100,
      "chip": "ym2612"
    },
    {
      "channel": 0,
      "note": 38,
      "start": 128.3281,
      "duration": 0.1683,
      "velocity": 114,
      "chip": "ym2612"
    },
    {
      "channel": 1,
      "note": 38,
      "start": 128.3295,
      "duration": 0.1503,
      "velocity": 1,
      "chip": "ym2612"
    },
    {
      "channel": 1,
      "note": 62,
      "start": 128.4811,
      "duration": 0.1171,
      "velocity": 107,
      "chip": "ym2612"
    },
    {
      "channel": 0,
      "note": 39,
      "start": 128.6315,
      "duration": 0.1511,
      "velocity": 114,
      "chip": "ym2612"
    },
    {
      "channel": 1,
      "note": 50,
      "start": 128.6328,
      "duration": 0.1505,
      "velocity": 72,
      "chip": "ym2612"
    },
    {
      "channel": 0,
      "note": 39,
      "start": 128.7832,
      "duration": 0.1683,
      "velocity": 114,
      "chip": "ym2612"
    },
    {
      "channel": 1,
      "note": 38,
      "start": 128.7845,
      "duration": 0.1503,
      "velocity": 1,
      "chip": "ym2612"
    },
    {
      "channel": 1,
      "note": 50,
      "start": 128.9359,
      "duration": 0.151,
      "velocity": 100,
      "chip": "ym2612"
    },
    {
      "channel": 0,
      "note": 41,
      "start": 129.0868,
      "duration": 0.168,
      "velocity": 114,
      "chip": "ym2612"
    },
    {
      "channel": 1,
      "note": 62,
      "start": 129.0883,
      "duration": 0.1167,
      "velocity": 107,
      "chip": "ym2612"
    },
    {
      "channel": 1,
      "note": 50,
      "start": 129.2395,
      "duration": 0.1506,
      "velocity": 127,
      "chip": "ym2612"
    },
    {
      "channel": 0,
      "note": 38,
      "start": 129.3899,
      "duration": 0.1683,
      "velocity": 114,
      "chip": "ym2612"
    },
    {
      "channel": 1,
      "note": 50,
      "start": 129.3912,
      "duration": 0.1503,
      "velocity": 100,
      "chip": "ym2612"
    },
    {
      "channel": 1,
      "note": 38,
      "start": 129.5427,
      "duration": 0.1508,
      "velocity": 1,
      "chip": "ym2612"
    },
    {
      "channel": 0,
      "note": 39,
      "start": 129.6933,
      "duration": 0.1683,
      "velocity": 114,
      "chip": "ym2612"
    },
    {
      "channel": 1,
      "note": 62,
      "start": 129.6948,
      "duration": 0.1169,
      "velocity": 107,
      "chip": "ym2612"
    },
    {
      "channel": 1,
      "note": 50,
      "start": 129.8461,
      "duration": 0.1508,
      "velocity": 72,
      "chip": "ym2612"
    },
    {
      "channel": 0,
      "note": 39,
      "start": 129.9966,
      "duration": 0.1684,
      "velocity": 114,
      "chip": "ym2612"
    },
    {
      "channel": 1,
      "note": 38,
      "start": 129.998,
      "duration": 0.1503,
      "velocity": 1,
      "chip": "ym2612"
    },
    {
      "channel": 1,
      "note": 62,
      "start": 130.1494,
      "duration": 0.1507,
      "velocity": 100,
      "chip": "ym2612"
    },
    {
      "channel": 0,
      "note": 41,
      "start": 130.2999,
      "duration": 0.1512,
      "velocity": 114,
      "chip": "ym2612"
    },
    {
      "channel": 1,
      "note": 62,
      "start": 130.3015,
      "duration": 0.1169,
      "velocity": 107,
      "chip": "ym2612"
    },
    {
      "channel": 0,
      "note": 50,
      "start": 130.4524,
      "duration": 0.1679,
      "velocity": 114,
      "chip": "ym2612"
    },
    {
      "channel": 2,
      "note": 38,
      "start": 130.4546,
      "duration": 0.3018,
      "velocity": 118,
      "chip": "ym2612"
    },
    {
      "channel": 3,
      "note": 26,
      "start": 130.4561,
      "duration": 0.166,
      "velocity": 114,
      "chip": "ym2612"
    },
    {
      "channel": 5,
      "note": 50,
      "start": 130.461,
      "duration": 2.426,
      "velocity": 127,
      "chip": "ym2612"
    },
    {
      "channel": 4,
      "note": 50,
      "start": 130.5447,
      "duration": 2.4258,
      "velocity": 124,
      "chip": "ym2612"
    },
    {
      "channel": 0,
      "note": 50,
      "start": 130.7556,
      "duration": 0.1505,
      "velocity": 120,
      "chip": "ym2612"
    },
    {
      "channel": 2,
      "note": 62,
      "start": 130.7576,
      "duration": 0.2512,
      "velocity": 127,
      "chip": "ym2612"
    },
    {
      "channel": 3,
      "note": 26,
      "start": 130.7584,
      "duration": 0.1667,
      "velocity": 114,
      "chip": "ym2612"
    },
    {
      "channel": 0,
      "note": 50,
      "start": 130.9074,
      "duration": 0.1677,
      "velocity": 114,
      "chip": "ym2612"
    },
    {
      "channel": 1,
      "note": 17,
      "start": 131.0596,
      "duration": 1.2124,
      "velocity": 122,
      "chip": "ym2612"
    },
    {
      "channel": 2,
      "note": 38,
      "start": 131.061,
      "duration": 0.3012,
      "velocity": 118,
      "chip": "ym2612"
    },
    {
      "channel": 3,
      "note": 26,
      "start": 131.0617,
      "duration": 0.1501,
      "velocity": 114,
      "chip": "ym2612"
    },
    {
      "channel": 0,
      "note": 50,
      "start": 131.2106,
      "duration": 0.1677,
      "velocity": 120,
      "chip": "ym2612"
    },
    {
      "channel": 3,
      "note": 26,
      "start": 131.2124,
      "duration": 0.1675,
      "velocity": 114,
      "chip": "ym2612"
    },
    {
      "channel": 2,
      "note": 62,
      "start": 131.3632,
      "duration": 0.252,
      "velocity": 127,
      "chip": "ym2612"
    },
    {
      "channel": 0,
      "note": 50,
      "start": 131.5134,
      "duration": 0.1512,
      "velocity": 120,
      "chip": "ym2612"
    },
    {
      "channel": 3,
      "note": 26,
      "start": 131.5151,
      "duration": 0.168,
      "velocity": 114,
      "chip": "ym2612"
    },
    {
      "channel": 0,
      "note": 50,
      "start": 131.665,
      "duration": 0.1683,
      "velocity": 105,
      "chip": "ym2612"
    },
    {
      "channel": 2,
      "note": 38,
      "start": 131.6668,
      "duration": 0.3022,
      "velocity": 118,
      "chip": "ym2612"
    },
    {
      "channel": 3,
      "note": 26,
      "start": 131.8183,
      "duration": 0.1686,
      "velocity": 114,
      "chip": "ym2612"
    },
    {
      "channel": 0,
      "note": 50,
      "start": 131.9684,
      "duration": 0.1686,
      "velocity": 120,
      "chip": "ym2612"
    },
    {
      "channel": 2,
      "note": 62,
      "start": 131.9705,
      "duration": 0.2515,
      "velocity": 127,
      "chip": "ym2612"
    },
    {
      "channel": 3,
      "note": 26,
      "start": 132.1219,
      "duration": 0.1681,
      "velocity": 114,
      "chip": "ym2612"
    },
    {
      "channel": 0,
      "note": 38,
      "start": 132.2717,
      "duration": 0.1512,
      "velocity": 120,
      "chip": "ym2612"
    },
    {
      "channel": 1,
      "note": 17,
      "start": 132.2725,
      "duration": 0.1512,
      "velocity": 122,
      "chip": "ym2612"
    },
    {
      "channel": 2,
      "note": 38,
      "start": 132.2739,
      "duration": 0.302,
      "velocity": 118,
      "chip": "ym2612"
    },
    {
      "channel": 0,
      "note": 50,
      "start": 132.4235,
      "duration": 0.1512,
      "velocity": 120,
      "chip": "ym2612"
    },
    {
      "channel": 1,
      "note": 17,
      "start": 132.4242,
      "duration": 1.0612,
      "velocity": 122,
      "chip": "ym2612"
    },
    {
      "channel": 3,
      "note": 26,
      "start": 132.4254,
      "duration": 0.1679,
      "velocity": 114,
      "chip": "ym2612"
    },
    {
      "channel": 0,
      "note": 38,
      "start": 132.5751,
      "duration": 0.1512,
      "velocity": 120,
      "chip": "ym2612"
    },
    {
      "channel": 2,
      "note": 62,
      "start": 132.577,
      "duration": 0.2517,
      "velocity": 127,
      "chip": "ym2612"
    },
    {
      "channel": 0,
      "note": 38,
      "start": 132.7268,
      "duration": 0.1511,
      "velocity": 120,
      "chip": "ym2612"
    },
    {
      "channel": 3,
      "note": 26,
      "start": 132.7286,
      "duration": 0.1527,
      "velocity": 114,
      "chip": "ym2612"
    },
    {
      "channel": 0,
      "note": 50,
      "start": 132.8793,
      "duration": 0.1677,
      "velocity": 114,
      "chip": "ym2612"
    },
    {
      "channel": 2,
      "note": 38,
      "start": 132.881,
      "duration": 0.3021,
      "velocity": 118,
      "chip": "ym2612"
    },
    {
      "channel": 3,
      "note": 26,
      "start": 132.8819,
      "duration": 0.1666,
      "velocity": 114,
      "chip": "ym2612"
    },
    {
      "channel": 5,
      "note": 52,
      "start": 132.8875,
      "duration": 1.2127,
      "velocity": 127,
      "chip": "ym2612"
    },
    {
      "channel": 4,
      "note": 52,
      "start": 132.971,
      "duration": 1.2129,
      "velocity": 124,
      "chip": "ym2612"
    },
    {
      "channel": 0,
      "note": 50,
      "start": 133.1825,
      "duration": 0.1505,
      "velocity": 120,
      "chip": "ym2612"
    },
    {
      "channel": 2,
      "note": 62,
      "start": 133.1843,
      "duration": 0.2513,
      "velocity": 127,
      "chip": "ym2612"
    },
    {
      "channel": 3,
      "note": 26,
      "start": 133.1851,
      "duration": 0.1668,
      "velocity": 114,
      "chip": "ym2612"
    },
    {
      "channel": 0,
      "note": 50,
      "start": 133.3343,
      "duration": 0.1677,
      "velocity": 114,
      "chip": "ym2612"
    },
    {
      "channel": 1,
      "note": 17,
      "start": 133.4859,
      "duration": 1.213,
      "velocity": 122,
      "chip": "ym2612"
    },
    {
      "channel": 2,
      "note": 38,
      "start": 133.4875,
      "duration": 0.3015,
      "velocity": 118,
      "chip": "ym2612"
    },
    {
      "channel": 3,
      "note": 26,
      "start": 133.4882,
      "duration": 0.1508,
      "velocity": 114,
      "chip": "ym2612"
    },
    {
      "channel": 0,
      "note": 50,
      "start": 133.6378,
      "duration": 0.1674,
      "velocity": 105,
      "chip": "ym2612"
    },
    {
      "channel": 3,
      "note": 26,
      "start": 133.6396,
      "duration": 0.1672,
      "velocity": 114,
      "chip": "ym2612"
    },
    {
      "channel": 2,
      "note": 62,
      "start": 133.7901,
      "duration": 0.252,
      "velocity": 127,
      "chip": "ym2612"
    },
    {
      "channel": 0,
      "note": 50,
      "start": 133.9403,
      "duration": 0.1511,
      "velocity": 120,
      "chip": "ym2612"
    },
    {
      "channel": 3,
      "note": 26,
      "start": 133.942,
      "duration": 0.1683,
      "velocity": 114,
      "chip": "ym2612"
    },
    {
      "channel": 0,
      "note": 50,
      "start": 134.0927,
      "duration": 0.1677,
      "velocity": 114,
      "chip": "ym2612"
    },
    {
      "channel": 2,
      "note": 38,
      "start": 134.0945,
      "duration": 0.3021,
      "velocity": 118,
      "chip": "ym2612"
    },
    {
      "channel": 5,
      "note": 53,
      "start": 134.1006,
      "duration": 1.213,
      "velocity": 127,
      "chip": "ym2612"
    },
    {
      "channel": 4,
      "note": 53,
      "start": 134.1844,
      "duration": 1.213,
      "velocity": 124,
      "chip": "ym2612"
    },
    {
      "channel": 3,
      "note": 26,
      "start": 134.2453,
      "duration": 0.1682,
      "velocity": 114,
      "chip": "ym2612"
    },
    {
      "channel": 0,
      "note": 50,
      "start": 134.3959,
      "duration": 0.1677,
      "velocity": 120,
      "chip": "ym2612"
    },
    {
      "channel": 2,
      "note": 62,
      "start": 134.3978,
      "duration": 0.2511,
      "velocity": 127,
      "chip": "ym2612"
    },
    {
      "channel": 3,
      "note": 26,
      "start": 134.5485,
      "duration": 0.1684,
      "velocity": 114,
      "chip": "ym2612"
    },
    {
      "channel": 0,
      "note": 50,
      "start": 134.6987,
      "duration": 0.1512,
      "velocity": 120,
      "chip": "ym2612"
    },
    {
      "channel": 1,
      "note": 17,
      "start": 134.6994,
      "duration": 0.4548,
      "velocity": 122,
      "chip": "ym2612"
    },
    {
      "channel": 2,
      "note": 38,
      "start": 134.7008,
      "duration": 0.302,
      "velocity": 118,
      "chip": "ym2612"
    },
    {
      "channel": 0,
      "note": 38,
      "start": 134.8503,
      "duration": 0.1512,
      "velocity": 120,
      "chip": "ym2612"
    },
    {
      "channel": 3,
      "note": 26,
      "start": 134.8521,
      "duration": 0.1684,
      "velocity": 114,
      "chip": "ym2612"
    },
    {
      "channel": 0,
      "note": 38,
      "start": 135.002,
      "duration": 0.1515,
      "velocity": 120,
      "chip": "ym2612"
    },
    {
      "channel": 2,
      "note": 62,
      "start": 135.0041,
      "duration": 0.2515,
      "velocity": 127,
      "chip": "ym2612"
    },
    {
      "channel": 0,
      "note": 50,
      "start": 135.1539,
      "duration": 0.1509,
      "velocity": 120,
      "chip": "ym2612"
    },
    {
      "channel": 1,
      "note": 17,
      "start": 135.1547,
      "duration": 0.7576,
      "velocity": 122,
      "chip": "ym2612"
    },
    {
      "channel": 3,
      "note": 26,
      "start": 135.156,
      "duration": 0.1522,
      "velocity": 114,
      "chip": "ym2612"
    },
    {
      "channel": 0,
      "note": 49,
      "start": 135.3062,
      "duration": 0.1677,
      "velocity": 114,
      "chip": "ym2612"
    },
    {
      "channel": 2,
      "note": 42,
      "start": 135.308,
      "duration": 0.3021,
      "velocity": 118,
      "chip": "ym2612"
    },
    {
      "channel": 3,
      "note": 30,
      "start": 135.3087,
      "duration": 0.1667,
      "velocity": 114,
      "chip": "ym2612"
    },
    {
      "channel": 5,
      "note": 54,
      "start": 135.3141,
      "duration": 2.4264,
      "velocity": 127,
      "chip": "ym2612"
    },
    {
      "channel": 4,
      "note": 54,
      "start": 135.3979,
      "duration": 2.4264,
      "velocity": 124,
      "chip": "ym2612"
    },
    {
      "channel": 0,
      "note": 49,
      "start": 135.6093,
      "duration": 0.1506,
      "velocity": 120,
      "chip": "ym2612"
    },
    {
      "channel": 2,
      "note": 66,
      "start": 135.6112,
      "duration": 0.2513,
      "velocity": 127,
      "chip": "ym2612"
    },
    {
      "channel": 3,
      "note": 30,
      "start": 135.612,
      "duration": 0.1668,
      "velocity": 114,
      "chip": "ym2612"
    },
    {
      "channel": 0,
      "note": 49,
      "start": 135.7612,
      "duration": 0.1677,
      "velocity": 114,
      "chip": "ym2612"
    },
    {
      "channel": 1,
      "note": 21,
      "start": 135.9128,
      "duration": 1.213,
      "velocity": 122,
      "chip": "ym2612"
    },
    {
      "channel": 2,
      "note": 42,
      "start": 135.9141,
      "duration": 0.3018,
      "velocity": 118,
      "chip": "ym2612"
    },
    {
      "channel": 3,
      "note": 30,
      "start": 135.9149,
      "duration": 0.1507,
      "velocity": 114,
      "chip": "ym2612"
    },
    {
      "channel": 0,
      "note": 49,
      "start": 136.0644,
      "duration": 0.1677,
      "velocity": 120,
      "chip": "ym2612"
    },
    {
      "channel": 3,
      "note": 30,
      "start": 136.0662,
      "duration": 0.1675,
      "velocity": 114,
      "chip": "ym2612"
    },
    {
      "channel": 2,
      "note": 66,
      "start": 136.2171,
      "duration": 0.252,
      "velocity": 127,
      "chip": "ym2612"
    },
    {
      "channel": 0,
      "note": 49,
      "start": 136.3672,
      "duration": 0.1511,
      "velocity": 120,
      "chip": "ym2612"
    },
    {
      "channel": 3,
      "note": 30,
      "start": 136.3689,
      "duration": 0.1684,
      "velocity": 114,
      "chip": "ym2612"
    },
    {
      "channel": 0,
      "note": 49,
      "start": 136.5188,
      "duration": 0.1684,
      "velocity": 105,
      "chip": "ym2612"
    },
    {
      "channel": 2,
      "note": 42,
      "start": 136.5209,
      "duration": 0.302,
      "velocity": 118,
      "chip": "ym2612"
    },
    {
      "channel": 3,
      "note": 30,
      "start": 136.6723,
      "duration": 0.1681,
      "velocity": 114,
      "chip": "ym2612"
    },
    {
      "channel": 0,
      "note": 49,
      "start": 136.8222,
      "duration": 0.1683,
      "velocity": 120,
      "chip": "ym2612"
    },
    {
      "channel": 2,
      "note": 66,
      "start": 136.824,
      "duration": 0.2517,
      "velocity": 127,
      "chip": "ym2612"
    },
    {
      "channel": 3,
      "note": 30,
      "start": 136.9754,
      "duration": 0.1683,
      "velocity": 114,
      "chip": "ym2612"
    },
    {
      "channel": 0,
      "note": 37,
      "start": 137.1256,
      "duration": 0.1512,
      "velocity": 120,
      "chip": "ym2612"
    },
    {
      "channel": 1,
      "note": 21,
      "start": 137.1263,
      "duration": 0.1512,
      "velocity": 122,
      "chip": "ym2612"
    },
    {
      "channel": 2,
      "note": 42,
      "start": 137.1276,
      "duration": 0.302,
      "velocity": 118,
      "chip": "ym2612"
    },
    {
      "channel": 0,
      "note": 49,
      "start": 137.2772,
      "duration": 0.1512,
      "velocity": 120,
      "chip": "ym2612"
    },
    {
      "channel": 1,
      "note": 21,
      "start": 137.278,
      "duration": 1.0611,
      "velocity": 122,
      "chip": "ym2612"
    },
    {
      "channel": 3,
      "note": 30,
      "start": 137.2793,
      "duration": 0.1678,
      "velocity": 114,
      "chip": "ym2612"
    },
    {
      "channel": 0,
      "note": 37,
      "start": 137.4289,
      "duration": 0.1512,
      "velocity": 120,
      "chip": "ym2612"
    },
    {
      "channel": 2,
      "note": 66,
      "start": 137.4307,
      "duration": 0.2517,
      "velocity": 127,
      "chip": "ym2612"
    },
    {
      "channel": 0,
      "note": 37,
      "start": 137.5806,
      "duration": 0.1512,
      "velocity": 120,
      "chip": "ym2612"
    },
    {
      "channel": 3,
      "note": 30,
      "start": 137.5824,
      "duration": 0.1527,
      "velocity": 114,
      "chip": "ym2612"
    },
    {
      "channel": 0,
      "note": 49,
      "start": 137.733,
      "duration": 0.1677,
      "velocity": 114,
      "chip": "ym2612"
    },
    {
      "channel": 2,
      "note": 42,
      "start": 137.7349,
      "duration": 0.3024,
      "velocity": 118,
      "chip": "ym2612"
    },
    {
      "channel": 3,
      "note": 30,
      "start": 137.7356,
      "duration": 0.1667,
      "velocity": 114,
      "chip": "ym2612"
    },
    {
      "channel": 5,
      "note": 56,
      "start": 137.741,
      "duration": 1.213,
      "velocity": 127,
      "chip": "ym2612"
    },
    {
      "channel": 4,
      "note": 56,
      "start": 137.8247,
      "duration": 1.213,
      "velocity": 124,
      "chip": "ym2612"
    },
    {
      "channel": 0,
      "note": 49,
      "start": 138.0365,
      "duration": 0.1504,
      "velocity": 120,
      "chip": "ym2612"
    },
    {
      "channel": 2,
      "note": 66,
      "start": 138.0384,
      "duration": 0.251,
      "velocity": 127,
      "chip": "ym2612"
    },
    {
      "channel": 3,
      "note": 30,
      "start": 138.0391,
      "duration": 0.1666,
      "velocity": 114,
      "chip": "ym2612"
    },
    {
      "channel": 0,
      "note": 49,
      "start": 138.1882,
      "duration": 0.1676,
      "velocity": 114,
      "chip": "ym2612"
    },
    {
      "channel": 1,
      "note": 21,
      "start": 138.3396,
      "duration": 1.2131,
      "velocity": 122,
      "chip": "ym2612"
    },
    {
      "channel": 2,
      "note": 42,
      "start": 138.341,
      "duration": 0.3018,
      "velocity": 118,
      "chip": "ym2612"
    },
    {
      "channel": 3,
      "note": 30,
      "start": 138.3418,
      "duration": 0.1508,
      "velocity": 114,
      "chip": "ym2612"
    },
    {
      "channel": 0,
      "note": 49,
      "start": 138.4913,
      "duration": 0.1677,
      "velocity": 105,
      "chip": "ym2612"
    },
    {
      "channel": 3,
      "note": 30,
      "start": 138.4931,
      "duration": 0.1675,
      "velocity": 114,
      "chip": "ym2612"
    },
    {
      "channel": 2,
      "note": 66,
      "start": 138.644,
      "duration": 0.252,
      "velocity": 127,
      "chip": "ym2612"
    },
    {
      "channel": 0,
      "note": 49,
      "start": 138.7941,
      "duration": 0.1512,
      "velocity": 120,
      "chip": "ym2612"
    },
    {
      "channel": 3,
      "note": 30,
      "start": 138.7958,
      "duration": 0.1683,
      "velocity": 114,
      "chip": "ym2612"
    },
    {
      "channel": 0,
      "note": 49,
      "start": 138.9465,
      "duration": 0.1677,
      "velocity": 114,
      "chip": "ym2612"
    },
    {
      "channel": 2,
      "note": 42,
      "start": 138.9483,
      "duration": 0.3021,
      "velocity": 118,
      "chip": "ym2612"
    },
    {
      "channel": 5,
      "note": 57,
      "start": 138.9544,
      "duration": 1.213,
      "velocity": 127,
      "chip": "ym2612"
    },
    {
      "channel": 4,
      "note": 57,
      "start": 139.0382,
      "duration": 1.2129,
      "velocity": 124,
      "chip": "ym2612"
    },
    {
      "channel": 3,
      "note": 30,
      "start": 139.099,
      "duration": 0.1683,
      "velocity": 114,
      "chip": "ym2612"
    },
    {
      "channel": 0,
      "note": 49,
      "start": 139.2498,
      "duration": 0.1677,
      "velocity": 120,
      "chip": "ym2612"
    },
    {
      "channel": 2,
      "note": 66,
      "start": 139.2515,
      "duration": 0.2511,
      "velocity": 127,
      "chip": "ym2612"
    },
    {
      "channel": 3,
      "note": 30,
      "start": 139.4023,
      "duration": 0.1686,
      "velocity": 114,
      "chip": "ym2612"
    },
    {
      "channel": 0,
      "note": 49,
      "start": 139.5525,
      "duration": 0.1512,
      "velocity": 120,
      "chip": "ym2612"
    },
    {
      "channel": 1,
      "note": 21,
      "start": 139.5535,
      "duration": 0.4543,
      "velocity": 122,
      "chip": "ym2612"
    },
    {
      "channel": 2,
      "note": 42,
      "start": 139.5548,
      "duration": 0.3017,
      "velocity": 118,
      "chip": "ym2612"
    },
    {
      "channel": 0,
      "note": 37,
      "start": 139.7042,
      "duration": 0.1512,
      "velocity": 120,
      "chip": "ym2612"
    },
    {
      "channel": 3,
      "note": 30,
      "start": 139.7059,
      "duration": 0.1681,
      "velocity": 114,
      "chip": "ym2612"
    },
    {
      "channel": 0,
      "note": 37,
      "start": 139.8558,
      "duration": 0.1512,
      "velocity": 120,
      "chip": "ym2612"
    },
    {
      "channel": 2,
      "note": 66,
      "start": 139.8576,
      "duration": 0.2517,
      "velocity": 127,
      "chip": "ym2612"
    },
    {
      "channel": 0,
      "note": 49,
      "start": 140.0075,
      "duration": 0.1512,
      "velocity": 120,
      "chip": "ym2612"
    },
    {
      "channel": 1,
      "note": 21,
      "start": 140.0083,
      "duration": 0.7578,
      "velocity": 122,
      "chip": "ym2612"
    },
    {
      "channel": 3,
      "note": 30,
      "start": 140.0095,
      "duration": 0.1525,
      "velocity": 114,
      "chip": "ym2612"
    },
    {
      "channel": 0,
      "note": 47,
      "start": 140.1599,
      "duration": 0.1677,
      "velocity": 114,
      "chip": "ym2612"
    },
    {
      "channel": 2,
      "note": 43,
      "start": 140.1618,
      "duration": 0.3021,
      "velocity": 118,
      "chip": "ym2612"
    },
    {
      "channel": 3,
      "note": 31,
      "start": 140.1625,
      "duration": 0.1667,
      "velocity": 114,
      "chip": "ym2612"
    },
    {
      "channel": 5,
      "note": 59,
      "start": 140.1679,
      "duration": 2.4264,
      "velocity": 127,
      "chip": "ym2612"
    },
    {
      "channel": 4,
      "note": 59,
      "start": 140.2517,
      "duration": 2.4264,
      "velocity": 124,
      "chip": "ym2612"
    },
    {
      "channel": 0,
      "note": 47,
      "start": 140.4632,
      "duration": 0.1505,
      "velocity": 120,
      "chip": "ym2612"
    },
    {
      "channel": 2,
      "note": 67,
      "start": 140.465,
      "duration": 0.2512,
      "velocity": 127,
      "chip": "ym2612"
    },
    {
      "channel": 3,
      "note": 31,
      "start": 140.4658,
      "duration": 0.1667,
      "velocity": 114,
      "chip": "ym2612"
    },
    {
      "channel": 0,
      "note": 47,
      "start": 140.615,
      "duration": 0.1677,
      "velocity": 114,
      "chip": "ym2612"
    },
    {
      "channel": 1,
      "note": 22,
      "start": 140.7665,
      "duration": 1.2131,
      "velocity": 122,
      "chip": "ym2612"
    },
    {
      "channel": 2,
      "note": 43,
      "start": 140.7679,
      "duration": 0.3021,
      "velocity": 118,
      "chip": "ym2612"
    },
    {
      "channel": 3,
      "note": 31,
      "start": 140.7686,
      "duration": 0.1508,
      "velocity": 114,
      "chip": "ym2612"
    },
    {
      "channel": 0,
      "note": 47,
      "start": 140.9182,
      "duration": 0.1677,
      "velocity": 120,
      "chip": "ym2612"
    },
    {
      "channel": 3,
      "note": 31,
      "start": 140.9202,
      "duration": 0.1675,
      "velocity": 114,
      "chip": "ym2612"
    },
    {
      "channel": 2,
      "note": 67,
      "start": 141.0711,
      "duration": 0.2517,
      "velocity": 127,
      "chip": "ym2612"
    },
    {
      "channel": 0,
      "note": 47,
      "start": 141.2209,
      "duration": 0.1512,
      "velocity": 120,
      "chip": "ym2612"
    },
    {
      "channel": 3,
      "note": 31,
      "start": 141.2227,
      "duration": 0.168,
      "velocity": 114,
      "chip": "ym2612"
    },
    {
      "channel": 0,
      "note": 47,
      "start": 141.3727,
      "duration": 0.1683,
      "velocity": 105,
      "chip": "ym2612"
    },
    {
      "channel": 2,
      "note": 43,
      "start": 141.3744,
      "duration": 0.3022,
      "velocity": 118,
      "chip": "ym2612"
    },
    {
      "channel": 3,
      "note": 31,
      "start": 141.5258,
      "duration": 0.1683,
      "velocity": 114,
      "chip": "ym2612"
    },
    {
      "channel": 0,
      "note": 47,
      "start": 141.676,
      "duration": 0.1683,
      "velocity": 120,
      "chip": "ym2612"
    },
    {
      "channel": 2,
      "note": 67,
      "start": 141.6778,
      "duration": 0.2517,
      "velocity": 127,
      "chip": "ym2612"
    },
    {
      "channel": 3,
      "note": 31,
      "start": 141.8292,
      "duration": 0.1683,
      "velocity": 114,
      "chip": "ym2612"
    },
    {
      "channel": 0,
      "note": 35,
      "start": 141.9794,
      "duration": 0.1512,
      "velocity": 120,
      "chip": "ym2612"
    },
    {
      "channel": 1,
      "note": 22,
      "start": 141.9801,
      "duration": 0.1512,
      "velocity": 122,
      "chip": "ym2612"
    },
    {
      "channel": 2,
      "note": 43,
      "start": 141.9814,
      "duration": 0.302,
      "velocity": 118,
      "chip": "ym2612"
    },
    {
      "channel": 0,
      "note": 47,
      "start": 142.131,
      "duration": 0.1512,
      "velocity": 120,
      "chip": "ym2612"
    },
    {
      "channel": 1,
      "note": 22,
      "start": 142.1318,
      "duration": 1.0611,
      "velocity": 122,
      "chip": "ym2612"
    },
    {
      "channel": 3,
      "note": 31,
      "start": 142.1331,
      "duration": 0.1678,
      "velocity": 114,
      "chip": "ym2612"
    },
    {
      "channel": 0,
      "note": 35,
      "start": 142.2827,
      "duration": 0.1512,
      "velocity": 120,
      "chip": "ym2612"
    },
    {
      "channel": 2,
      "note": 67,
      "start": 142.2845,
      "duration": 0.252,
      "velocity": 127,
      "chip": "ym2612"
    },
    {
      "channel": 0,
      "note": 35,
      "start": 142.4344,
      "duration": 0.1511,
      "velocity": 120,
      "chip": "ym2612"
    },
    {
      "channel": 3,
      "note": 31,
      "start": 142.4363,
      "duration": 0.1529,
      "velocity": 114,
      "chip": "ym2612"
    },
    {
      "channel": 0,
      "note": 47,
      "start": 142.5871,
      "duration": 0.1674,
      "velocity": 114,
      "chip": "ym2612"
    },
    {
      "channel": 2,
      "note": 43,
      "start": 142.5889,
      "duration": 0.3018,
      "velocity": 118,
      "chip": "ym2612"
    },
    {
      "channel": 3,
      "note": 31,
      "start": 142.5897,
      "duration": 0.1664,
      "velocity": 114,
      "chip": "ym2612"
    },
    {
      "channel": 5,
      "note": 61,
      "start": 142.5948,
      "duration": 1.213,
      "velocity": 127,
      "chip": "ym2612"
    },
    {
      "channel": 4,
      "note": 61,
      "start": 142.6786,
      "duration": 1.213,
      "velocity": 124,
      "chip": "ym2612"
    },
    {
      "channel": 0,
      "note": 47,
      "start": 142.8901,
      "duration": 0.1505,
      "velocity": 120,
      "chip": "ym2612"
    },
    {
      "channel": 2,
      "note": 67,
      "start": 142.8919,
      "duration": 0.2513,
      "velocity": 127,
      "chip": "ym2612"
    },
    {
      "channel": 3,
      "note": 31,
      "start": 142.8927,
      "duration": 0.1667,
      "velocity": 114,
      "chip": "ym2612"
    },
    {
      "channel": 0,
      "note": 47,
      "start": 143.0419,
      "duration": 0.1678,
      "velocity": 114,
      "chip": "ym2612"
    },
    {
      "channel": 1,
      "note": 22,
      "start": 143.1934,
      "duration": 1.213,
      "velocity": 122,
      "chip": "ym2612"
    },
    {
      "channel": 2,
      "note": 43,
      "start": 143.1948,
      "duration": 0.3018,
      "velocity": 118,
      "chip": "ym2612"
    },
    {
      "channel": 3,
      "note": 31,
      "start": 143.1956,
      "duration": 0.1507,
      "velocity": 114,
      "chip": "ym2612"
    },
    {
      "channel": 0,
      "note": 47,
      "start": 143.3451,
      "duration": 0.1677,
      "velocity": 105,
      "chip": "ym2612"
    },
    {
      "channel": 3,
      "note": 31,
      "start": 143.3469,
      "duration": 0.1675,
      "velocity": 114,
      "chip": "ym2612"
    },
    {
      "channel": 2,
      "note": 67,
      "start": 143.4978,
      "duration": 0.2519,
      "velocity": 127,
      "chip": "ym2612"
    },
    {
      "channel": 0,
      "note": 47,
      "start": 143.6478,
      "duration": 0.1511,
      "velocity": 120,
      "chip": "ym2612"
    },
    {
      "channel": 3,
      "note": 31,
      "start": 143.6496,
      "duration": 0.1682,
      "velocity": 114,
      "chip": "ym2612"
    },
    {
      "channel": 0,
      "note": 47,
      "start": 143.8003,
      "duration": 0.1677,
      "velocity": 114,
      "chip": "ym2612"
    },
    {
      "channel": 2,
      "note": 43,
      "start": 143.8021,
      "duration": 0.3023,
      "velocity": 118,
      "chip": "ym2612"
    },
    {
      "channel": 5,
      "note": 62,
      "start": 143.8083,
      "duration": 1.2129,
      "velocity": 127,
      "chip": "ym2612"
    },
    {
      "channel": 4,
      "note": 62,
      "start": 143.892,
      "duration": 1.213,
      "velocity": 124,
      "chip": "ym2612"
    },
    {
      "channel": 3,
      "note": 31,
      "start": 143.9531,
      "duration": 0.1683,
      "velocity": 114,
      "chip": "ym2612"
    },
    {
      "channel": 0,
      "note": 47,
      "start": 144.1038,
      "duration": 0.1674,
      "velocity": 120,
      "chip": "ym2612"
    },
    {
      "channel": 2,
      "note": 67,
      "start": 144.1056,
      "duration": 0.2508,
      "velocity": 127,
      "chip": "ym2612"
    },
    {
      "channel": 3,
      "note": 31,
      "start": 144.2561,
      "duration": 0.1683,
      "velocity": 114,
      "chip": "ym2612"
    },
    {
      "channel": 0,
      "note": 47,
      "start": 144.4062,
      "duration": 0.1512,
      "velocity": 120,
      "chip": "ym2612"
    },
    {
      "channel": 1,
      "note": 22,
      "start": 144.407,
      "duration": 0.4545,
      "velocity": 122,
      "chip": "ym2612"
    },
    {
      "channel": 2,
      "note": 43,
      "start": 144.4083,
      "duration": 0.302,
      "velocity": 118,
      "chip": "ym2612"
    },
    {
      "channel": 0,
      "note": 35,
      "start": 144.558,
      "duration": 0.1512,
      "velocity": 120,
      "chip": "ym2612"
    },
    {
      "channel": 3,
      "note": 31,
      "start": 144.5597,
      "duration": 0.1681,
      "velocity": 114,
      "chip": "ym2612"
    },
    {
      "channel": 0,
      "note": 35,
      "start": 144.7096,
      "duration": 0.1512,
      "velocity": 120,
      "chip": "ym2612"
    },
    {
      "channel": 2,
      "note": 67,
      "start": 144.7115,
      "duration": 0.2517,
      "velocity": 127,
      "chip": "ym2612"
    },
    {
      "channel": 0,
      "note": 47,
      "start": 144.8613,
      "duration": 0.1512,
      "velocity": 120,
      "chip": "ym2612"
    },
    {
      "channel": 1,
      "note": 22,
      "start": 144.862,
      "duration": 0.7581,
      "velocity": 122,
      "chip": "ym2612"
    },
    {
      "channel": 3,
      "note": 31,
      "start": 144.8633,
      "duration": 0.1525,
      "velocity": 114,
      "chip": "ym2612"
    },
    {
      "channel": 0,
      "note": 49,
      "start": 145.0137,
      "duration": 0.1677,
      "velocity": 114,
      "chip": "ym2612"
    },
    {
      "channel": 2,
      "note": 42,
      "start": 145.0156,
      "duration": 0.3021,
      "velocity": 118,
      "chip": "ym2612"
    },
    {
      "channel": 3,
      "note": 30,
      "start": 145.0163,
      "duration": 0.1667,
      "velocity": 114,
      "chip": "ym2612"
    },
    {
      "channel": 5,
      "note": 61,
      "start": 145.0217,
      "duration": 4.8533,
      "velocity": 127,
      "chip": "ym2612"
    },
    {
      "channel": 4,
      "note": 61,
      "start": 145.1055,
      "duration": 4.8533,
      "velocity": 124,
      "chip": "ym2612"
    },
    {
      "channel": 0,
      "note": 49,
      "start": 145.317,
      "duration": 0.1505,
      "velocity": 120,
      "chip": "ym2612"
    },
    {
      "channel": 2,
      "note": 66,
      "start": 145.3188,
      "duration": 0.2515,
      "velocity": 127,
      "chip": "ym2612"
    },
    {
      "channel": 3,
      "note": 30,
      "start": 145.3198,
      "duration": 0.1668,
      "velocity": 114,
      "chip": "ym2612"
    },
    {
      "channel": 0,
      "note": 49,
      "start": 145.4688,
      "duration": 0.1679,
      "velocity": 114,
      "chip": "ym2612"
    },
    {
      "channel": 1,
      "note": 21,
      "start": 145.6206,
      "duration": 1.2128,
      "velocity": 122,
      "chip": "ym2612"
    },
    {
      "channel": 2,
      "note": 42,
      "start": 145.622,
      "duration": 0.3016,
      "velocity": 118,
      "chip": "ym2612"
    },
    {
      "channel": 3,
      "note": 30,
      "start": 145.6227,
      "duration": 0.1505,
      "velocity": 114,
      "chip": "ym2612"
    },
    {
      "channel": 0,
      "note": 49,
      "start": 145.772,
      "duration": 0.1677,
      "velocity": 120,
      "chip": "ym2612"
    },
    {
      "channel": 3,
      "note": 30,
      "start": 145.7738,
      "duration": 0.1675,
      "velocity": 114,
      "chip": "ym2612"
    },
    {
      "channel": 2,
      "note": 66,
      "start": 145.9246,
      "duration": 0.252,
      "velocity": 127,
      "chip": "ym2612"
    },
    {
      "channel": 0,
      "note": 49,
      "start": 146.0747,
      "duration": 0.1512,
      "velocity": 120,
      "chip": "ym2612"
    },
    {
      "channel": 3,
      "note": 30,
      "start": 146.0765,
      "duration": 0.1681,
      "velocity": 114,
      "chip": "ym2612"
    },
    {
      "channel": 0,
      "note": 49,
      "start": 146.2264,
      "duration": 0.1683,
      "velocity": 105,
      "chip": "ym2612"
    },
    {
      "channel": 2,
      "note": 42,
      "start": 146.2283,
      "duration": 0.3022,
      "velocity": 118,
      "chip": "ym2612"
    },
    {
      "channel": 3,
      "note": 30,
      "start": 146.3796,
      "duration": 0.1683,
      "velocity": 114,
      "chip": "ym2612"
    },
    {
      "channel": 0,
      "note": 49,
      "start": 146.5298,
      "duration": 0.1683,
      "velocity": 120,
      "chip": "ym2612"
    },
    {
      "channel": 2,
      "note": 66,
      "start": 146.5316,
      "duration": 0.2517,
      "velocity": 127,
      "chip": "ym2612"
    },
    {
      "channel": 3,
      "note": 30,
      "start": 146.683,
      "duration": 0.1683,
      "velocity": 114,
      "chip": "ym2612"
    },
    {
      "channel": 0,
      "note": 37,
      "start": 146.8332,
      "duration": 0.1512,
      "velocity": 120,
      "chip": "ym2612"
    },
    {
      "channel": 1,
      "note": 21,
      "start": 146.8339,
      "duration": 0.1512,
      "velocity": 122,
      "chip": "ym2612"
    },
    {
      "channel": 2,
      "note": 42,
      "start": 146.8352,
      "duration": 0.3022,
      "velocity": 118,
      "chip": "ym2612"
    },
    {
      "channel": 0,
      "note": 49,
      "start": 146.9849,
      "duration": 0.1512,
      "velocity": 120,
      "chip": "ym2612"
    },
    {
      "channel": 1,
      "note": 21,
      "start": 146.9856,
      "duration": 1.0612,
      "velocity": 122,
      "chip": "ym2612"
    },
    {
      "channel": 3,
      "note": 30,
      "start": 146.9871,
      "duration": 0.1679,
      "velocity": 114,
      "chip": "ym2612"
    },
    {
      "channel": 0,
      "note": 37,
      "start": 147.1368,
      "duration": 0.151,
      "velocity": 120,
      "chip": "ym2612"
    },
    {
      "channel": 2,
      "note": 66,
      "start": 147.1386,
      "duration": 0.2515,
      "velocity": 127,
      "chip": "ym2612"
    },
    {
      "channel": 0,
      "note": 37,
      "start": 147.2882,
      "duration": 0.1511,
      "velocity": 120,
      "chip": "ym2612"
    },
    {
      "channel": 3,
      "note": 30,
      "start": 147.29,
      "duration": 0.1527,
      "velocity": 114,
      "chip": "ym2612"
    },
    {
      "channel": 0,
      "note": 49,
      "start": 147.4407,
      "duration": 0.1677,
      "velocity": 114,
      "chip": "ym2612"
    },
    {
      "channel": 2,
      "note": 42,
      "start": 147.4424,
      "duration": 0.3021,
      "velocity": 118,
      "chip": "ym2612"
    },
    {
      "channel": 3,
      "note": 30,
      "start": 147.4433,
      "duration": 0.1666,
      "velocity": 114,
      "chip": "ym2612"
    },
    {
      "channel": 0,
      "note": 49,
      "start": 147.7439,
      "duration": 0.1505,
      "velocity": 120,
      "chip": "ym2612"
    },
    {
      "channel": 2,
      "note": 66,
      "start": 147.7457,
      "duration": 0.2513,
      "velocity": 127,
      "chip": "ym2612"
    },
    {
      "channel": 3,
      "note": 30,
      "start": 147.7464,
      "duration": 0.1668,
      "velocity": 114,
      "chip": "ym2612"
    },
    {
      "channel": 0,
      "note": 49,
      "start": 147.8957,
      "duration": 0.1677,
      "velocity": 114,
      "chip": "ym2612"
    },
    {
      "channel": 1,
      "note": 21,
      "start": 148.0473,
      "duration": 1.2131,
      "velocity": 122,
      "chip": "ym2612"
    },
    {
      "channel": 2,
      "note": 42,
      "start": 148.0486,
      "duration": 0.3018,
      "velocity": 118,
      "chip": "ym2612"
    },
    {
      "channel": 3,
      "note": 30,
      "start": 148.0494,
      "duration": 0.1508,
      "velocity": 114,
      "chip": "ym2612"
    },
    {
      "channel": 0,
      "note": 49,
      "start": 148.1989,
      "duration": 0.1677,
      "velocity": 105,
      "chip": "ym2612"
    },
    {
      "channel": 3,
      "note": 30,
      "start": 148.2006,
      "duration": 0.1675,
      "velocity": 114,
      "chip": "ym2612"
    },
    {
      "channel": 2,
      "note": 66,
      "start": 148.3515,
      "duration": 0.2522,
      "velocity": 127,
      "chip": "ym2612"
    },
    {
      "channel": 0,
      "note": 49,
      "start": 148.5017,
      "duration": 0.1512,
      "velocity": 120,
      "chip": "ym2612"
    },
    {
      "channel": 3,
      "note": 30,
      "start": 148.5037,
      "duration": 0.1682,
      "velocity": 114,
      "chip": "ym2612"
    },
    {
      "channel": 0,
      "note": 49,
      "start": 148.6543,
      "duration": 0.1674,
      "velocity": 114,
      "chip": "ym2612"
    },
    {
      "channel": 2,
      "note": 42,
      "start": 148.6562,
      "duration": 0.3019,
      "velocity": 118,
      "chip": "ym2612"
    },
    {
      "channel": 3,
      "note": 30,
      "start": 148.8067,
      "duration": 0.1682,
      "velocity": 114,
      "chip": "ym2612"
    },
    {
      "channel": 0,
      "note": 49,
      "start": 148.9573,
      "duration": 0.1677,
      "velocity": 120,
      "chip": "ym2612"
    },
    {
      "channel": 2,
      "note": 66,
      "start": 148.9592,
      "duration": 0.2511,
      "velocity": 127,
      "chip": "ym2612"
    },
    {
      "channel": 3,
      "note": 30,
      "start": 149.1099,
      "duration": 0.1684,
      "velocity": 114,
      "chip": "ym2612"
    },
    {
      "channel": 0,
      "note": 49,
      "start": 149.26,
      "duration": 0.1512,
      "velocity": 120,
      "chip": "ym2612"
    },
    {
      "channel": 1,
      "note": 21,
      "start": 149.2608,
      "duration": 0.4545,
      "velocity": 122,
      "chip": "ym2612"
    },
    {
      "channel": 2,
      "note": 42,
      "start": 149.2622,
      "duration": 0.302,
      "velocity": 118,
      "chip": "ym2612"
    },
    {
      "channel": 0,
      "note": 37,
      "start": 149.4118,
      "duration": 0.1512,
      "velocity": 120,
      "chip": "ym2612"
    },
    {
      "channel": 3,
      "note": 30,
      "start": 149.4135,
      "duration": 0.1681,
      "velocity": 114,
      "chip": "ym2612"
    },
    {
      "channel": 0,
      "note": 37,
      "start": 149.5634,
      "duration": 0.1512,
      "velocity": 120,
      "chip": "ym2612"
    },
    {
      "channel": 2,
      "note": 66,
      "start": 149.5652,
      "duration": 0.2517,
      "velocity": 127,
      "chip": "ym2612"
    },
    {
      "channel": 0,
      "note": 49,
      "start": 149.7151,
      "duration": 0.1511,
      "velocity": 120,
      "chip": "ym2612"
    },
    {
      "channel": 1,
      "note": 21,
      "start": 149.7159,
      "duration": 0.7578,
      "velocity": 122,
      "chip": "ym2612"
    },
    {
      "channel": 3,
      "note": 30,
      "start": 149.7171,
      "duration": 0.1527,
      "velocity": 114,
      "chip": "ym2612"
    },
    {
      "channel": 0,
      "note": 50,
      "start": 149.8676,
      "duration": 0.1677,
      "velocity": 114,
      "chip": "ym2612"
    },
    {
      "channel": 2,
      "note": 38,
      "start": 149.8693,
      "duration": 0.3024,
      "velocity": 118,
      "chip": "ym2612"
    },
    {
      "channel": 3,
      "note": 26,
      "start": 149.8704,
      "duration": 0.1666,
      "velocity": 114,
      "chip": "ym2612"
    },
    {
      "channel": 5,
      "note": 62,
      "start": 149.8755,
      "duration": 2.4264,
      "velocity": 127,
      "chip": "ym2612"
    },
    {
      "channel": 4,
      "note": 62,
      "start": 149.9593,
      "duration": 2.4264,
      "velocity": 124,
      "chip": "ym2612"
    },
    {
      "channel": 0,
      "note": 50,
      "start": 150.1711,
      "duration": 0.1502,
      "velocity": 120,
      "chip": "ym2612"
    },
    {
      "channel": 2,
      "note": 62,
      "start": 150.1728,
      "duration": 0.251,
      "velocity": 127,
      "chip": "ym2612"
    },
    {
      "channel": 3,
      "note": 26,
      "start": 150.1736,
      "duration": 0.1665,
      "velocity": 114,
      "chip": "ym2612"
    },
    {
      "channel": 0,
      "note": 50,
      "start": 150.3226,
      "duration": 0.1677,
      "velocity": 114,
      "chip": "ym2612"
    },
    {
      "channel": 1,
      "note": 17,
      "start": 150.4742,
      "duration": 1.2133,
      "velocity": 122,
      "chip": "ym2612"
    },
    {
      "channel": 2,
      "note": 38,
      "start": 150.4755,
      "duration": 0.3018,
      "velocity": 118,
      "chip": "ym2612"
    },
    {
      "channel": 3,
      "note": 26,
      "start": 150.4763,
      "duration": 0.1507,
      "velocity": 114,
      "chip": "ym2612"
    },
    {
      "channel": 0,
      "note": 50,
      "start": 150.6258,
      "duration": 0.1677,
      "velocity": 120,
      "chip": "ym2612"
    },
    {
      "channel": 3,
      "note": 26,
      "start": 150.6276,
      "duration": 0.1675,
      "velocity": 114,
      "chip": "ym2612"
    },
    {
      "channel": 2,
      "note": 62,
      "start": 150.7784,
      "duration": 0.252,
      "velocity": 127,
      "chip": "ym2612"
    },
    {
      "channel": 0,
      "note": 50,
      "start": 150.9286,
      "duration": 0.1511,
      "velocity": 120,
      "chip": "ym2612"
    },
    {
      "channel": 3,
      "note": 26,
      "start": 150.9303,
      "duration": 0.1681,
      "velocity": 114,
      "chip": "ym2612"
    },
    {
      "channel": 0,
      "note": 50,
      "start": 151.0802,
      "duration": 0.1683,
      "velocity": 105,
      "chip": "ym2612"
    },
    {
      "channel": 2,
      "note": 38,
      "start": 151.0821,
      "duration": 0.3022,
      "velocity": 118,
      "chip": "ym2612"
    },
    {
      "channel": 3,
      "note": 26,
      "start": 151.2334,
      "duration": 0.1684,
      "velocity": 114,
      "chip": "ym2612"
    },
    {
      "channel": 0,
      "note": 50,
      "start": 151.3836,
      "duration": 0.1683,
      "velocity": 120,
      "chip": "ym2612"
    },
    {
      "channel": 2,
      "note": 62,
      "start": 151.3854,
      "duration": 0.252,
      "velocity": 127,
      "chip": "ym2612"
    },
    {
      "channel": 3,
      "note": 26,
      "start": 151.537,
      "duration": 0.1683,
      "velocity": 114,
      "chip": "ym2612"
    },
    {
      "channel": 0,
      "note": 38,
      "start": 151.6872,
      "duration": 0.151,
      "velocity": 120,
      "chip": "ym2612"
    },
    {
      "channel": 1,
      "note": 17,
      "start": 151.688,
      "duration": 0.1509,
      "velocity": 122,
      "chip": "ym2612"
    },
    {
      "channel": 2,
      "note": 38,
      "start": 151.6893,
      "duration": 0.3017,
      "velocity": 118,
      "chip": "ym2612"
    },
    {
      "channel": 0,
      "note": 50,
      "start": 151.8386,
      "duration": 0.1512,
      "velocity": 120,
      "chip": "ym2612"
    },
    {
      "channel": 1,
      "note": 17,
      "start": 151.8394,
      "duration": 1.0611,
      "velocity": 122,
      "chip": "ym2612"
    },
    {
      "channel": 3,
      "note": 26,
      "start": 151.8407,
      "duration": 0.1678,
      "velocity": 114,
      "chip": "ym2612"
    },
    {
      "channel": 0,
      "note": 38,
      "start": 151.9903,
      "duration": 0.1511,
      "velocity": 120,
      "chip": "ym2612"
    },
    {
      "channel": 2,
      "note": 62,
      "start": 151.9921,
      "duration": 0.2517,
      "velocity": 127,
      "chip": "ym2612"
    },
    {
      "channel": 0,
      "note": 38,
      "start": 152.142,
      "duration": 0.1511,
      "velocity": 120,
      "chip": "ym2612"
    },
    {
      "channel": 3,
      "note": 26,
      "start": 152.1438,
      "duration": 0.1527,
      "velocity": 114,
      "chip": "ym2612"
    },
    {
      "channel": 0,
      "note": 50,
      "start": 152.2944,
      "duration": 0.1678,
      "velocity": 114,
      "chip": "ym2612"
    },
    {
      "channel": 2,
      "note": 38,
      "start": 152.2963,
      "duration": 0.3021,
      "velocity": 118,
      "chip": "ym2612"
    },
    {
      "channel": 3,
      "note": 26,
      "start": 152.297,
      "duration": 0.1667,
      "velocity": 114,
      "chip": "ym2612"
    },
    {
      "channel": 5,
      "note": 64,
      "start": 152.3024,
      "duration": 1.213,
      "velocity": 127,
      "chip": "ym2612"
    },
    {
      "channel": 4,
      "note": 64,
      "start": 152.3863,
      "duration": 1.2129,
      "velocity": 124,
      "chip": "ym2612"
    },
    {
      "channel": 0,
      "note": 50,
      "start": 152.5976,
      "duration": 0.1506,
      "velocity": 120,
      "chip": "ym2612"
    },
    {
      "channel": 2,
      "note": 62,
      "start": 152.5995,
      "duration": 0.2512,
      "velocity": 127,
      "chip": "ym2612"
    },
    {
      "channel": 3,
      "note": 26,
      "start": 152.6002,
      "duration": 0.1668,
      "velocity": 114,
      "chip": "ym2612"
    },
    {
      "channel": 0,
      "note": 50,
      "start": 152.7495,
      "duration": 0.1677,
      "velocity": 114,
      "chip": "ym2612"
    },
    {
      "channel": 1,
      "note": 17,
      "start": 152.901,
      "duration": 1.213,
      "velocity": 122,
      "chip": "ym2612"
    },
    {
      "channel": 2,
      "note": 38,
      "start": 152.9024,
      "duration": 0.3021,
      "velocity": 118,
      "chip": "ym2612"
    },
    {
      "channel": 3,
      "note": 26,
      "start": 152.9034,
      "duration": 0.1507,
      "velocity": 114,
      "chip": "ym2612"
    },
    {
      "channel": 0,
      "note": 50,
      "start": 153.0527,
      "duration": 0.1678,
      "velocity": 105,
      "chip": "ym2612"
    },
    {
      "channel": 3,
      "note": 26,
      "start": 153.0547,
      "duration": 0.1674,
      "velocity": 114,
      "chip": "ym2612"
    },
    {
      "channel": 2,
      "note": 62,
      "start": 153.2056,
      "duration": 0.2517,
      "velocity": 127,
      "chip": "ym2612"
    },
    {
      "channel": 0,
      "note": 50,
      "start": 153.3555,
      "duration": 0.1512,
      "velocity": 120,
      "chip": "ym2612"
    },
    {
      "channel": 3,
      "note": 26,
      "start": 153.3572,
      "duration": 0.1683,
      "velocity": 114,
      "chip": "ym2612"
    },
    {
      "channel": 0,
      "note": 50,
      "start": 153.5079,
      "duration": 0.1677,
      "velocity": 114,
      "chip": "ym2612"
    },
    {
      "channel": 2,
      "note": 38,
      "start": 153.5097,
      "duration": 0.302,
      "velocity": 118,
      "chip": "ym2612"
    },
    {
      "channel": 5,
      "note": 65,
      "start": 153.5159,
      "duration": 1.213,
      "velocity": 127,
      "chip": "ym2612"
    },
    {
      "channel": 4,
      "note": 65,
      "start": 153.5996,
      "duration": 1.213,
      "velocity": 124,
      "chip": "ym2612"
    },
    {
      "channel": 3,
      "note": 26,
      "start": 153.6604,
      "duration": 0.1682,
      "velocity": 114,
      "chip": "ym2612"
    },
    {
      "channel": 0,
      "note": 50,
      "start": 153.8111,
      "duration": 0.1677,
      "velocity": 120,
      "chip": "ym2612"
    },
    {
      "channel": 2,
      "note": 62,
      "start": 153.8129,
      "duration": 0.2511,
      "velocity": 127,
      "chip": "ym2612"
    },
    {
      "channel": 3,
      "note": 26,
      "start": 153.9637,
      "duration": 0.1683,
      "velocity": 114,
      "chip": "ym2612"
    },
    {
      "channel": 0,
      "note": 50,
      "start": 154.1139,
      "duration": 0.1511,
      "velocity": 120,
      "chip": "ym2612"
    },
    {
      "channel": 1,
      "note": 17,
      "start": 154.1146,
      "duration": 0.4546,
      "velocity": 122,
      "chip": "ym2612"
    },
    {
      "channel": 2,
      "note": 38,
      "start": 154.1159,
      "duration": 0.302,
      "velocity": 118,
      "chip": "ym2612"
    },
    {
      "channel": 0,
      "note": 38,
      "start": 154.2655,
      "duration": 0.1512,
      "velocity": 120,
      "chip": "ym2612"
    },
    {
      "channel": 3,
      "note": 26,
      "start": 154.2673,
      "duration": 0.1681,
      "velocity": 114,
      "chip": "ym2612"
    },
    {
      "channel": 0,
      "note": 38,
      "start": 154.4172,
      "duration": 0.1512,
      "velocity": 120,
      "chip": "ym2612"
    },
    {
      "channel": 2,
      "note": 62,
      "start": 154.419,
      "duration": 0.252,
      "velocity": 127,
      "chip": "ym2612"
    },
    {
      "channel": 0,
      "note": 50,
      "start": 154.5689,
      "duration": 0.1513,
      "velocity": 120,
      "chip": "ym2612"
    },
    {
      "channel": 1,
      "note": 17,
      "start": 154.5699,
      "duration": 0.7575,
      "velocity": 122,
      "chip": "ym2612"
    },
    {
      "channel": 3,
      "note": 26,
      "start": 154.5712,
      "duration": 0.1524,
      "velocity": 114,
      "chip": "ym2612"
    },
    {
      "channel": 0,
      "note": 49,
      "start": 154.7215,
      "duration": 0.1675,
      "velocity": 114,
      "chip": "ym2612"
    },
    {
      "channel": 2,
      "note": 42,
      "start": 154.7234,
      "duration": 0.3019,
      "velocity": 118,
      "chip": "ym2612"
    },
    {
      "channel": 3,
      "note": 30,
      "start": 154.7241,
      "duration": 0.1665,
      "velocity": 114,
      "chip": "ym2612"
    },
    {
      "channel": 5,
      "note": 66,
      "start": 154.7293,
      "duration": 2.4264,
      "velocity": 127,
      "chip": "ym2612"
    },
    {
      "channel": 4,
      "note": 66,
      "start": 154.813,
      "duration": 2.4264,
      "velocity": 124,
      "chip": "ym2612"
    },
    {
      "channel": 0,
      "note": 49,
      "start": 155.0246,
      "duration": 0.1505,
      "velocity": 120,
      "chip": "ym2612"
    },
    {
      "channel": 2,
      "note": 66,
      "start": 155.0264,
      "duration": 0.2512,
      "velocity": 127,
      "chip": "ym2612"
    },
    {
      "channel": 3,
      "note": 30,
      "start": 155.0272,
      "duration": 0.1667,
      "velocity": 114,
      "chip": "ym2612"
    },
    {
      "channel": 0,
      "note": 49,
      "start": 155.1764,
      "duration": 0.1677,
      "velocity": 114,
      "chip": "ym2612"
    },
    {
      "channel": 1,
      "note": 21,
      "start": 155.3279,
      "duration": 1.213,
      "velocity": 122,
      "chip": "ym2612"
    },
    {
      "channel": 2,
      "note": 42,
      "start": 155.3293,
      "duration": 0.3018,
      "velocity": 118,
      "chip": "ym2612"
    },
    {
      "channel": 3,
      "note": 30,
      "start": 155.33,
      "duration": 0.1508,
      "velocity": 114,
      "chip": "ym2612"
    },
    {
      "channel": 0,
      "note": 49,
      "start": 155.4796,
      "duration": 0.1677,
      "velocity": 120,
      "chip": "ym2612"
    },
    {
      "channel": 3,
      "note": 30,
      "start": 155.4814,
      "duration": 0.1675,
      "velocity": 114,
      "chip": "ym2612"
    },
    {
      "channel": 2,
      "note": 66,
      "start": 155.6322,
      "duration": 0.252,
      "velocity": 127,
      "chip": "ym2612"
    },
    {
      "channel": 0,
      "note": 49,
      "start": 155.7823,
      "duration": 0.1512,
      "velocity": 120,
      "chip": "ym2612"
    },
    {
      "channel": 3,
      "note": 30,
      "start": 155.7841,
      "duration": 0.168,
      "velocity": 114,
      "chip": "ym2612"
    },
    {
      "channel": 0,
      "note": 49,
      "start": 155.934,
      "duration": 0.1683,
      "velocity": 105,
      "chip": "ym2612"
    },
    {
      "channel": 2,
      "note": 42,
      "start": 155.9358,
      "duration": 0.3024,
      "velocity": 118,
      "chip": "ym2612"
    },
    {
      "channel": 3,
      "note": 30,
      "start": 156.0875,
      "duration": 0.1681,
      "velocity": 114,
      "chip": "ym2612"
    },
    {
      "channel": 0,
      "note": 49,
      "start": 156.2375,
      "duration": 0.1682,
      "velocity": 120,
      "chip": "ym2612"
    },
    {
      "channel": 2,
      "note": 66,
      "start": 156.2393,
      "duration": 0.2517,
      "velocity": 127,
      "chip": "ym2612"
    },
    {
      "channel": 3,
      "note": 30,
      "start": 156.3906,
      "duration": 0.1683,
      "velocity": 114,
      "chip": "ym2612"
    },
    {
      "channel": 0,
      "note": 37,
      "start": 156.5408,
      "duration": 0.1512,
      "velocity": 120,
      "chip": "ym2612"
    },
    {
      "channel": 1,
      "note": 21,
      "start": 156.5415,
      "duration": 0.1512,
      "velocity": 122,
      "chip": "ym2612"
    },
    {
      "channel": 2,
      "note": 42,
      "start": 156.5428,
      "duration": 0.302,
      "velocity": 118,
      "chip": "ym2612"
    },
    {
      "channel": 0,
      "note": 49,
      "start": 156.6924,
      "duration": 0.1512,
      "velocity": 120,
      "chip": "ym2612"
    },
    {
      "channel": 1,
      "note": 21,
      "start": 156.6932,
      "duration": 1.0611,
      "velocity": 122,
      "chip": "ym2612"
    },
    {
      "channel": 3,
      "note": 30,
      "start": 156.6945,
      "duration": 0.1678,
      "velocity": 114,
      "chip": "ym2612"
    },
    {
      "channel": 0,
      "note": 37,
      "start": 156.8441,
      "duration": 0.1512,
      "velocity": 120,
      "chip": "ym2612"
    },
    {
      "channel": 2,
      "note": 66,
      "start": 156.8459,
      "duration": 0.2517,
      "velocity": 127,
      "chip": "ym2612"
    },
    {
      "channel": 0,
      "note": 37,
      "start": 156.9958,
      "duration": 0.1511,
      "velocity": 120,
      "chip": "ym2612"
    },
    {
      "channel": 3,
      "note": 30,
      "start": 156.9975,
      "duration": 0.1528,
      "velocity": 114,
      "chip": "ym2612"
    },
    {
      "channel": 0,
      "note": 49,
      "start": 157.1482,
      "duration": 0.1677,
      "velocity": 114,
      "chip": "ym2612"
    },
    {
      "channel": 2,
      "note": 42,
      "start": 157.1501,
      "duration": 0.3021,
      "velocity": 118,
      "chip": "ym2612"
    },
    {
      "channel": 3,
      "note": 30,
      "start": 157.1508,
      "duration": 0.1667,
      "velocity": 114,
      "chip": "ym2612"
    },
    {
      "channel": 5,
      "note": 68,
      "start": 157.1562,
      "duration": 1.213,
      "velocity": 127,
      "chip": "ym2612"
    },
    {
      "channel": 4,
      "note": 68,
      "start": 157.24,
      "duration": 1.2132,
      "velocity": 124,
      "chip": "ym2612"
    },
    {
      "channel": 0,
      "note": 49,
      "start": 157.4515,
      "duration": 0.1505,
      "velocity": 120,
      "chip": "ym2612"
    },
    {
      "channel": 2,
      "note": 66,
      "start": 157.4536,
      "duration": 0.2512,
      "velocity": 127,
      "chip": "ym2612"
    },
    {
      "channel": 3,
      "note": 30,
      "start": 157.4543,
      "duration": 0.1667,
      "velocity": 114,
      "chip": "ym2612"
    },
    {
      "channel": 0,
      "note": 49,
      "start": 157.6035,
      "duration": 0.1674,
      "velocity": 114,
      "chip": "ym2612"
    },
    {
      "channel": 1,
      "note": 21,
      "start": 157.7548,
      "duration": 1.213,
      "velocity": 122,
      "chip": "ym2612"
    },
    {
      "channel": 2,
      "note": 42,
      "start": 157.7562,
      "duration": 0.3019,
      "velocity": 118,
      "chip": "ym2612"
    },
    {
      "channel": 3,
      "note": 30,
      "start": 157.7569,
      "duration": 0.1508,
      "velocity": 114,
      "chip": "ym2612"
    },
    {
      "channel": 0,
      "note": 49,
      "start": 157.9065,
      "duration": 0.1677,
      "velocity": 105,
      "chip": "ym2612"
    },
    {
      "channel": 3,
      "note": 30,
      "start": 157.9083,
      "duration": 0.1675,
      "velocity": 114,
      "chip": "ym2612"
    },
    {
      "channel": 2,
      "note": 66,
      "start": 158.0592,
      "duration": 0.2519,
      "velocity": 127,
      "chip": "ym2612"
    },
    {
      "channel": 0,
      "note": 49,
      "start": 158.2092,
      "duration": 0.1511,
      "velocity": 120,
      "chip": "ym2612"
    },
    {
      "channel": 3,
      "note": 30,
      "start": 158.211,
      "duration": 0.1682,
      "velocity": 114,
      "chip": "ym2612"
    },
    {
      "channel": 0,
      "note": 49,
      "start": 158.3617,
      "duration": 0.1677,
      "velocity": 114,
      "chip": "ym2612"
    },
    {
      "channel": 2,
      "note": 42,
      "start": 158.3635,
      "duration": 0.3021,
      "velocity": 118,
      "chip": "ym2612"
    },
    {
      "channel": 5,
      "note": 69,
      "start": 158.3699,
      "duration": 1.2127,
      "velocity": 127,
      "chip": "ym2612"
    },
    {
      "channel": 4,
      "note": 69,
      "start": 158.4537,
      "duration": 1.2127,
      "velocity": 124,
      "chip": "ym2612"
    },
    {
      "channel": 3,
      "note": 30,
      "start": 158.5142,
      "duration": 0.1682,
      "velocity": 114,
      "chip": "ym2612"
    },
    {
      "channel": 0,
      "note": 49,
      "start": 158.6649,
      "duration": 0.1677,
      "velocity": 120,
      "chip": "ym2612"
    },
    {
      "channel": 2,
      "note": 66,
      "start": 158.6667,
      "duration": 0.2511,
      "velocity": 127,
      "chip": "ym2612"
    },
    {
      "channel": 3,
      "note": 30,
      "start": 158.8175,
      "duration": 0.1683,
      "velocity": 114,
      "chip": "ym2612"
    },
    {
      "channel": 0,
      "note": 49,
      "start": 158.9676,
      "duration": 0.1512,
      "velocity": 120,
      "chip": "ym2612"
    },
    {
      "channel": 1,
      "note": 21,
      "start": 158.9684,
      "duration": 0.4545,
      "velocity": 122,
      "chip": "ym2612"
    },
    {
      "channel": 2,
      "note": 42,
      "start": 158.97,
      "duration": 0.3017,
      "velocity": 118,
      "chip": "ym2612"
    },
    {
      "channel": 0,
      "note": 37,
      "start": 159.1193,
      "duration": 0.1512,
      "velocity": 120,
      "chip": "ym2612"
    },
    {
      "channel": 3,
      "note": 30,
      "start": 159.1214,
      "duration": 0.1678,
      "velocity": 114,
      "chip": "ym2612"
    },
    {
      "channel": 0,
      "note": 37,
      "start": 159.271,
      "duration": 0.1512,
      "velocity": 120,
      "chip": "ym2612"
    },
    {
      "channel": 2,
      "note": 66,
      "start": 159.2728,
      "duration": 0.2517,
      "velocity": 127,
      "chip": "ym2612"
    },
    {
      "channel": 0,
      "note": 49,
      "start": 159.4227,
      "duration": 0.1511,
      "velocity": 120,
      "chip": "ym2612"
    },
    {
      "channel": 1,
      "note": 21,
      "start": 159.4234,
      "duration": 0.7578,
      "velocity": 122,
      "chip": "ym2612"
    },
    {
      "channel": 3,
      "note": 30,
      "start": 159.4247,
      "duration": 0.1525,
      "velocity": 114,
      "chip": "ym2612"
    },
    {
      "channel": 0,
      "note": 47,
      "start": 159.5751,
      "duration": 0.1677,
      "velocity": 114,
      "chip": "ym2612"
    },
    {
      "channel": 2,
      "note": 43,
      "start": 159.577,
      "duration": 0.3021,
      "velocity": 118,
      "chip": "ym2612"
    },
    {
      "channel": 3,
      "note": 31,
      "start": 159.5777,
      "duration": 0.1667,
      "velocity": 114,
      "chip": "ym2612"
    },
    {
      "channel": 5,
      "note": 71,
      "start": 159.5831,
      "duration": 2.4264,
      "velocity": 127,
      "chip": "ym2612"
    },
    {
      "channel": 4,
      "note": 71,
      "start": 159.6668,
      "duration": 2.4264,
      "velocity": 124,
      "chip": "ym2612"
    },
    {
      "channel": 0,
      "note": 47,
      "start": 159.8784,
      "duration": 0.1505,
      "velocity": 120,
      "chip": "ym2612"
    },
    {
      "channel": 2,
      "note": 67,
      "start": 159.8802,
      "duration": 0.2513,
      "velocity": 127,
      "chip": "ym2612"
    },
    {
      "channel": 3,
      "note": 31,
      "start": 159.881,
      "duration": 0.1667,
      "velocity": 114,
      "chip": "ym2612"
    },
    {
      "channel": 0,
      "note": 47,
      "start": 160.0302,
      "duration": 0.1677,
      "velocity": 114,
      "chip": "ym2612"
    },
    {
      "channel": 1,
      "note": 22,
      "start": 160.1817,
      "duration": 1.213,
      "velocity": 122,
      "chip": "ym2612"
    },
    {
      "channel": 2,
      "note": 43,
      "start": 160.1831,
      "duration": 0.3018,
      "velocity": 118,
      "chip": "ym2612"
    },
    {
      "channel": 3,
      "note": 31,
      "start": 160.1839,
      "duration": 0.1507,
      "velocity": 114,
      "chip": "ym2612"
    },
    {
      "channel": 0,
      "note": 47,
      "start": 160.3334,
      "duration": 0.1677,
      "velocity": 120,
      "chip": "ym2612"
    },
    {
      "channel": 3,
      "note": 31,
      "start": 160.3352,
      "duration": 0.1675,
      "velocity": 114,
      "chip": "ym2612"
    },
    {
      "channel": 2,
      "note": 67,
      "start": 160.486,
      "duration": 0.2522,
      "velocity": 127,
      "chip": "ym2612"
    },
    {
      "channel": 0,
      "note": 47,
      "start": 160.6361,
      "duration": 0.1512,
      "velocity": 120,
      "chip": "ym2612"
    },
    {
      "channel": 3,
      "note": 31,
      "start": 160.6382,
      "duration": 0.1678,
      "velocity": 114,
      "chip": "ym2612"
    },
    {
      "channel": 0,
      "note": 47,
      "start": 160.7878,
      "duration": 0.1683,
      "velocity": 105,
      "chip": "ym2612"
    },
    {
      "channel": 2,
      "note": 43,
      "start": 160.7896,
      "duration": 0.3022,
      "velocity": 118,
      "chip": "ym2612"
    },
    {
      "channel": 3,
      "note": 31,
      "start": 160.941,
      "duration": 0.1683,
      "velocity": 114,
      "chip": "ym2612"
    },
    {
      "channel": 0,
      "note": 47,
      "start": 161.0912,
      "duration": 0.1683,
      "velocity": 120,
      "chip": "ym2612"
    },
    {
      "channel": 2,
      "note": 67,
      "start": 161.093,
      "duration": 0.2517,
      "velocity": 127,
      "chip": "ym2612"
    },
    {
      "channel": 3,
      "note": 31,
      "start": 161.2444,
      "duration": 0.1683,
      "velocity": 114,
      "chip": "ym2612"
    },
    {
      "channel": 0,
      "note": 35,
      "start": 161.3945,
      "duration": 0.1512,
      "velocity": 120,
      "chip": "ym2612"
    },
    {
      "channel": 1,
      "note": 22,
      "start": 161.3953,
      "duration": 0.1512,
      "velocity": 122,
      "chip": "ym2612"
    },
    {
      "channel": 2,
      "note": 43,
      "start": 161.3966,
      "duration": 0.302,
      "velocity": 118,
      "chip": "ym2612"
    },
    {
      "channel": 0,
      "note": 47,
      "start": 161.5463,
      "duration": 0.1511,
      "velocity": 120,
      "chip": "ym2612"
    },
    {
      "channel": 1,
      "note": 22,
      "start": 161.5469,
      "duration": 1.0612,
      "velocity": 122,
      "chip": "ym2612"
    },
    {
      "channel": 3,
      "note": 31,
      "start": 161.5482,
      "duration": 0.1679,
      "velocity": 114,
      "chip": "ym2612"
    },
    {
      "channel": 0,
      "note": 35,
      "start": 161.6979,
      "duration": 0.1512,
      "velocity": 120,
      "chip": "ym2612"
    },
    {
      "channel": 2,
      "note": 67,
      "start": 161.6998,
      "duration": 0.2517,
      "velocity": 127,
      "chip": "ym2612"
    },
    {
      "channel": 0,
      "note": 35,
      "start": 161.8495,
      "duration": 0.1512,
      "velocity": 120,
      "chip": "ym2612"
    },
    {
      "channel": 3,
      "note": 31,
      "start": 161.8513,
      "duration": 0.153,
      "velocity": 114,
      "chip": "ym2612"
    },
    {
      "channel": 0,
      "note": 47,
      "start": 162.002,
      "duration": 0.1679,
      "velocity": 114,
      "chip": "ym2612"
    },
    {
      "channel": 2,
      "note": 43,
      "start": 162.0041,
      "duration": 0.3018,
      "velocity": 118,
      "chip": "ym2612"
    },
    {
      "channel": 3,
      "note": 31,
      "start": 162.0049,
      "duration": 0.1666,
      "velocity": 114,
      "chip": "ym2612"
    },
    {
      "channel": 5,
      "note": 73,
      "start": 162.01,
      "duration": 1.2129,
      "velocity": 127,
      "chip": "ym2612"
    },
    {
      "channel": 4,
      "note": 73,
      "start": 162.0938,
      "duration": 1.2129,
      "velocity": 124,
      "chip": "ym2612"
    },
    {
      "channel": 0,
      "note": 47,
      "start": 162.3053,
      "duration": 0.1505,
      "velocity": 120,
      "chip": "ym2612"
    },
    {
      "channel": 2,
      "note": 67,
      "start": 162.3071,
      "duration": 0.2513,
      "velocity": 127,
      "chip": "ym2612"
    },
    {
      "channel": 3,
      "note": 31,
      "start": 162.3078,
      "duration": 0.1668,
      "velocity": 114,
      "chip": "ym2612"
    },
    {
      "channel": 0,
      "note": 47,
      "start": 162.4571,
      "duration": 0.1677,
      "velocity": 114,
      "chip": "ym2612"
    },
    {
      "channel": 1,
      "note": 22,
      "start": 162.6087,
      "duration": 1.213,
      "velocity": 122,
      "chip": "ym2612"
    },
    {
      "channel": 2,
      "note": 43,
      "start": 162.61,
      "duration": 0.3018,
      "velocity": 118,
      "chip": "ym2612"
    },
    {
      "channel": 3,
      "note": 31,
      "start": 162.6107,
      "duration": 0.1508,
      "velocity": 114,
      "chip": "ym2612"
    },
    {
      "channel": 0,
      "note": 47,
      "start": 162.7603,
      "duration": 0.1677,
      "velocity": 105,
      "chip": "ym2612"
    },
    {
      "channel": 3,
      "note": 31,
      "start": 162.7621,
      "duration": 0.1674,
      "velocity": 114,
      "chip": "ym2612"
    },
    {
      "channel": 2,
      "note": 67,
      "start": 162.9129,
      "duration": 0.252,
      "velocity": 127,
      "chip": "ym2612"
    },
    {
      "channel": 0,
      "note": 47,
      "start": 163.063,
      "duration": 0.1512,
      "velocity": 120,
      "chip": "ym2612"
    },
    {
      "channel": 3,
      "note": 31,
      "start": 163.0648,
      "duration": 0.1683,
      "velocity": 114,
      "chip": "ym2612"
    },
    {
      "channel": 0,
      "note": 47,
      "start": 163.2155,
      "duration": 0.1677,
      "velocity": 114,
      "chip": "ym2612"
    },
    {
      "channel": 2,
      "note": 43,
      "start": 163.2173,
      "duration": 0.3021,
      "velocity": 118,
      "chip": "ym2612"
    },
    {
      "channel": 5,
      "note": 74,
      "start": 163.2234,
      "duration": 1.2132,
      "velocity": 127,
      "chip": "ym2612"
    },
    {
      "channel": 4,
      "note": 74,
      "start": 163.3072,
      "duration": 1.213,
      "velocity": 124,
      "chip": "ym2612"
    },
    {
      "channel": 3,
      "note": 31,
      "start": 163.3681,
      "duration": 0.1684,
      "velocity": 114,
      "chip": "ym2612"
    },
    {
      "channel": 0,
      "note": 47,
      "start": 163.5187,
      "duration": 0.1679,
      "velocity": 120,
      "chip": "ym2612"
    },
    {
      "channel": 2,
      "note": 67,
      "start": 163.5208,
      "duration": 0.2508,
      "velocity": 127,
      "chip": "ym2612"
    },
    {
      "channel": 3,
      "note": 31,
      "start": 163.6715,
      "duration": 0.1681,
      "velocity": 114,
      "chip": "ym2612"
    },
    {
      "channel": 0,
      "note": 47,
      "start": 163.8214,
      "duration": 0.1512,
      "velocity": 120,
      "chip": "ym2612"
    },
    {
      "channel": 1,
      "note": 22,
      "start": 163.8222,
      "duration": 0.4545,
      "velocity": 122,
      "chip": "ym2612"
    },
    {
      "channel": 2,
      "note": 43,
      "start": 163.8235,
      "duration": 0.302,
      "velocity": 118,
      "chip": "ym2612"
    },
    {
      "channel": 0,
      "note": 35,
      "start": 163.9731,
      "duration": 0.1512,
      "velocity": 120,
      "chip": "ym2612"
    },
    {
      "channel": 3,
      "note": 31,
      "start": 163.9749,
      "duration": 0.1681,
      "velocity": 114,
      "chip": "ym2612"
    },
    {
      "channel": 0,
      "note": 35,
      "start": 164.1248,
      "duration": 0.1512,
      "velocity": 120,
      "chip": "ym2612"
    },
    {
      "channel": 2,
      "note": 67,
      "start": 164.1266,
      "duration": 0.2518,
      "velocity": 127,
      "chip": "ym2612"
    },
    {
      "channel": 0,
      "note": 47,
      "start": 164.2765,
      "duration": 0.1512,
      "velocity": 120,
      "chip": "ym2612"
    },
    {
      "channel": 1,
      "note": 22,
      "start": 164.2772,
      "duration": 0.7578,
      "velocity": 122,
      "chip": "ym2612"
    },
    {
      "channel": 3,
      "note": 31,
      "start": 164.2785,
      "duration": 0.1525,
      "velocity": 114,
      "chip": "ym2612"
    },
    {
      "channel": 0,
      "note": 49,
      "start": 164.4289,
      "duration": 0.1677,
      "velocity": 114,
      "chip": "ym2612"
    },
    {
      "channel": 2,
      "note": 42,
      "start": 164.4307,
      "duration": 0.3021,
      "velocity": 118,
      "chip": "ym2612"
    },
    {
      "channel": 3,
      "note": 30,
      "start": 164.4315,
      "duration": 0.1667,
      "velocity": 114,
      "chip": "ym2612"
    },
    {
      "channel": 5,
      "note": 73,
      "start": 164.4371,
      "duration": 5.1566,
      "velocity": 127,
      "chip": "ym2612"
    },
    {
      "channel": 4,
      "note": 73,
      "start": 164.5207,
      "duration": 4.769,
      "velocity": 124,
      "chip": "ym2612"
    },
    {
      "channel": 0,
      "note": 49,
      "start": 164.7321,
      "duration": 0.1506,
      "velocity": 120,
      "chip": "ym2612"
    },
    {
      "channel": 2,
      "note": 66,
      "start": 164.734,
      "duration": 0.2513,
      "velocity": 127,
      "chip": "ym2612"
    },
    {
      "channel": 3,
      "note": 30,
      "start": 164.7347,
      "duration": 0.1668,
      "velocity": 114,
      "chip": "ym2612"
    },
    {
      "channel": 0,
      "note": 49,
      "start": 164.884,
      "duration": 0.1677,
      "velocity": 114,
      "chip": "ym2612"
    },
    {
      "channel": 1,
      "note": 21,
      "start": 165.0356,
      "duration": 1.213,
      "velocity": 122,
      "chip": "ym2612"
    },
    {
      "channel": 2,
      "note": 42,
      "start": 165.0371,
      "duration": 0.3015,
      "velocity": 118,
      "chip": "ym2612"
    },
    {
      "channel": 3,
      "note": 31,
      "start": 165.0379,
      "duration": 0.1508,
      "velocity": 114,
      "chip": "ym2612"
    },
    {
      "channel": 0,
      "note": 49,
      "start": 165.1875,
      "duration": 0.1674,
      "velocity": 120,
      "chip": "ym2612"
    },
    {
      "channel": 3,
      "note": 31,
      "start": 165.1893,
      "duration": 0.1672,
      "velocity": 114,
      "chip": "ym2612"
    },
    {
      "channel": 2,
      "note": 66,
      "start": 165.3398,
      "duration": 0.252,
      "velocity": 127,
      "chip": "ym2612"
    },
    {
      "channel": 0,
      "note": 49,
      "start": 165.49,
      "duration": 0.1511,
      "velocity": 120,
      "chip": "ym2612"
    },
    {
      "channel": 3,
      "note": 33,
      "start": 165.4917,
      "duration": 0.1681,
      "velocity": 114,
      "chip": "ym2612"
    },
    {
      "channel": 0,
      "note": 49,
      "start": 165.6416,
      "duration": 0.1683,
      "velocity": 105,
      "chip": "ym2612"
    },
    {
      "channel": 2,
      "note": 42,
      "start": 165.6434,
      "duration": 0.3022,
      "velocity": 118,
      "chip": "ym2612"
    },
    {
      "channel": 3,
      "note": 30,
      "start": 165.7948,
      "duration": 0.1684,
      "velocity": 114,
      "chip": "ym2612"
    },
    {
      "channel": 0,
      "note": 49,
      "start": 165.945,
      "duration": 0.1683,
      "velocity": 120,
      "chip": "ym2612"
    },
    {
      "channel": 2,
      "note": 66,
      "start": 165.9468,
      "duration": 0.2517,
      "velocity": 127,
      "chip": "ym2612"
    },
    {
      "channel": 3,
      "note": 31,
      "start": 166.0982,
      "duration": 0.1683,
      "velocity": 114,
      "chip": "ym2612"
    },
    {
      "channel": 0,
      "note": 37,
      "start": 166.2483,
      "duration": 0.1512,
      "velocity": 120,
      "chip": "ym2612"
    },
    {
      "channel": 1,
      "note": 21,
      "start": 166.2491,
      "duration": 0.1511,
      "velocity": 122,
      "chip": "ym2612"
    },
    {
      "channel": 2,
      "note": 42,
      "start": 166.2504,
      "duration": 0.302,
      "velocity": 118,
      "chip": "ym2612"
    },
    {
      "channel": 0,
      "note": 49,
      "start": 166.4,
      "duration": 0.1512,
      "velocity": 120,
      "chip": "ym2612"
    },
    {
      "channel": 1,
      "note": 21,
      "start": 166.4008,
      "duration": 1.0612,
      "velocity": 122,
      "chip": "ym2612"
    },
    {
      "channel": 3,
      "note": 31,
      "start": 166.402,
      "duration": 0.1681,
      "velocity": 114,
      "chip": "ym2612"
    },
    {
      "channel": 0,
      "note": 37,
      "start": 166.5517,
      "duration": 0.1513,
      "velocity": 120,
      "chip": "ym2612"
    },
    {
      "channel": 2,
      "note": 66,
      "start": 166.5538,
      "duration": 0.2515,
      "velocity": 127,
      "chip": "ym2612"
    },
    {
      "channel": 0,
      "note": 37,
      "start": 166.7036,
      "duration": 0.1509,
      "velocity": 120,
      "chip": "ym2612"
    },
    {
      "channel": 3,
      "note": 33,
      "start": 166.7054,
      "duration": 0.1525,
      "velocity": 114,
      "chip": "ym2612"
    },
    {
      "channel": 0,
      "note": 49,
      "start": 166.8559,
      "duration": 0.1677,
      "velocity": 114,
      "chip": "ym2612"
    },
    {
      "channel": 2,
      "note": 42,
      "start": 166.8576,
      "duration": 0.3021,
      "velocity": 118,
      "chip": "ym2612"
    },
    {
      "channel": 3,
      "note": 30,
      "start": 166.8584,
      "duration": 0.1667,
      "velocity": 114,
      "chip": "ym2612"
    },
    {
      "channel": 0,
      "note": 49,
      "start": 167.159,
      "duration": 0.1506,
      "velocity": 120,
      "chip": "ym2612"
    },
    {
      "channel": 2,
      "note": 66,
      "start": 167.1609,
      "duration": 0.2512,
      "velocity": 127,
      "chip": "ym2612"
    },
    {
      "channel": 3,
      "note": 30,
      "start": 167.1616,
      "duration": 0.1668,
      "velocity": 114,
      "chip": "ym2612"
    },
    {
      "channel": 0,
      "note": 49,
      "start": 167.3109,
      "duration": 0.1677,
      "velocity": 114,
      "chip": "ym2612"
    },
    {
      "channel": 1,
      "note": 21,
      "start": 167.4624,
      "duration": 1.2131,
      "velocity": 122,
      "chip": "ym2612"
    },
    {
      "channel": 2,
      "note": 42,
      "start": 167.4637,
      "duration": 0.3018,
      "velocity": 118,
      "chip": "ym2612"
    },
    {
      "channel": 3,
      "note": 31,
      "start": 167.4646,
      "duration": 0.1508,
      "velocity": 114,
      "chip": "ym2612"
    },
    {
      "channel": 0,
      "note": 49,
      "start": 167.6141,
      "duration": 0.1677,
      "velocity": 105,
      "chip": "ym2612"
    },
    {
      "channel": 3,
      "note": 31,
      "start": 167.6159,
      "duration": 0.1675,
      "velocity": 114,
      "chip": "ym2612"
    },
    {
      "channel": 2,
      "note": 66,
      "start": 167.7667,
      "duration": 0.252,
      "velocity": 127,
      "chip": "ym2612"
    },
    {
      "channel": 0,
      "note": 49,
      "start": 167.9168,
      "duration": 0.1512,
      "velocity": 120,
      "chip": "ym2612"
    },
    {
      "channel": 3,
      "note": 33,
      "start": 167.9186,
      "duration": 0.1685,
      "velocity": 114,
      "chip": "ym2612"
    },
    {
      "channel": 0,
      "note": 49,
      "start": 168.0693,
      "duration": 0.1679,
      "velocity": 114,
      "chip": "ym2612"
    },
    {
      "channel": 2,
      "note": 42,
      "start": 168.0714,
      "duration": 0.3018,
      "velocity": 118,
      "chip": "ym2612"
    },
    {
      "channel": 3,
      "note": 30,
      "start": 168.2221,
      "duration": 0.1679,
      "velocity": 114,
      "chip": "ym2612"
    },
    {
      "channel": 0,
      "note": 49,
      "start": 168.3725,
      "duration": 0.1677,
      "velocity": 120,
      "chip": "ym2612"
    },
    {
      "channel": 2,
      "note": 66,
      "start": 168.3743,
      "duration": 0.2511,
      "velocity": 127,
      "chip": "ym2612"
    },
    {
      "channel": 3,
      "note": 31,
      "start": 168.5251,
      "duration": 0.1683,
      "velocity": 114,
      "chip": "ym2612"
    },
    {
      "channel": 0,
      "note": 49,
      "start": 168.6753,
      "duration": 0.1511,
      "velocity": 120,
      "chip": "ym2612"
    },
    {
      "channel": 1,
      "note": 21,
      "start": 168.676,
      "duration": 0.4546,
      "velocity": 122,
      "chip": "ym2612"
    },
    {
      "channel": 2,
      "note": 42,
      "start": 168.6773,
      "duration": 0.302,
      "velocity": 118,
      "chip": "ym2612"
    },
    {
      "channel": 0,
      "note": 37,
      "start": 168.8269,
      "duration": 0.1512,
      "velocity": 120,
      "chip": "ym2612"
    },
    {
      "channel": 3,
      "note": 31,
      "start": 168.8287,
      "duration": 0.1681,
      "velocity": 114,
      "chip": "ym2612"
    },
    {
      "channel": 0,
      "note": 37,
      "start": 168.9786,
      "duration": 0.1512,
      "velocity": 120,
      "chip": "ym2612"
    },
    {
      "channel": 2,
      "note": 66,
      "start": 168.9804,
      "duration": 0.2517,
      "velocity": 127,
      "chip": "ym2612"
    },
    {
      "channel": 0,
      "note": 49,
      "start": 169.1303,
      "duration": 0.1512,
      "velocity": 120,
      "chip": "ym2612"
    },
    {
      "channel": 1,
      "note": 21,
      "start": 169.131,
      "duration": 0.1517,
      "velocity": 122,
      "chip": "ym2612"
    },
    {
      "channel": 3,
      "note": 33,
      "start": 169.1323,
      "duration": 0.1523,
      "velocity": 114,
      "chip": "ym2612"
    },
    {
      "channel": 0,
      "note": 38,
      "start": 169.2826,
      "duration": 0.6227,
      "velocity": 107,
      "chip": "ym2612"
    },
    {
      "channel": 1,
      "note": 38,
      "start": 169.2839,
      "duration": 0.1497,
      "velocity": 1,
      "chip": "ym2612"
    },
    {
      "channel": 3,
      "note": 38,
      "start": 169.2858,
      "duration": 0.3012,
      "velocity": 118,
      "chip": "ym2612"
    },
    {
      "channel": 4,
      "note": 26,
      "start": 169.2908,
      "duration": 0.1678,
      "velocity": 114,
      "chip": "ym2612"
    },
    {
      "channel": 1,
      "note": 74,
      "start": 169.4349,
      "duration": 0.1172,
      "velocity": 107,
      "chip": "ym2612"
    },
    {
      "channel": 1,
      "note": 65,
      "start": 169.586,
      "duration": 0.118,
      "velocity": 107,
      "chip": "ym2612"
    },
    {
      "channel": 3,
      "note": 62,
      "start": 169.5881,
      "duration": 0.2513,
      "velocity": 127,
      "chip": "ym2612"
    },
    {
      "channel": 4,
      "note": 26,
      "start": 169.5936,
      "duration": 0.1683,
      "velocity": 114,
      "chip": "ym2612"
    },
    {
      "channel": 5,
      "note": 62,
      "start": 169.595,
      "duration": 0.1502,
      "velocity": 127,
      "chip": "ym2612"
    },
    {
      "channel": 1,
      "note": 38,
      "start": 169.7384,
      "duration": 0.1502,
      "velocity": 1,
      "chip": "ym2612"
    },
    {
      "channel": 5,
      "note": 62,
      "start": 169.7459,
      "duration": 0.1513,
      "velocity": 127,
      "chip": "ym2612"
    },
    {
      "channel": 1,
      "note": 50,
      "start": 169.8898,
      "duration": 0.1505,
      "velocity": 100,
      "chip": "ym2612"
    },
    {
      "channel": 2,
      "note": 17,
      "start": 169.8912,
      "duration": 1.2129,
      "velocity": 122,
      "chip": "ym2612"
    },
    {
      "channel": 3,
      "note": 38,
      "start": 169.8925,
      "duration": 0.3015,
      "velocity": 118,
      "chip": "ym2612"
    },
    {
      "channel": 4,
      "note": 27,
      "start": 169.8969,
      "duration": 0.1512,
      "velocity": 114,
      "chip": "ym2612"
    },
    {
      "channel": 5,
      "note": 62,
      "start": 169.8978,
      "duration": 0.1511,
      "velocity": 127,
      "chip": "ym2612"
    },
    {
      "channel": 1,
      "note": 62,
      "start": 170.0417,
      "duration": 0.1171,
      "velocity": 107,
      "chip": "ym2612"
    },
    {
      "channel": 4,
      "note": 27,
      "start": 170.0486,
      "duration": 0.1684,
      "velocity": 114,
      "chip": "ym2612"
    },
    {
      "channel": 5,
      "note": 62,
      "start": 170.0494,
      "duration": 0.1509,
      "velocity": 127,
      "chip": "ym2612"
    },
    {
      "channel": 1,
      "note": 50,
      "start": 170.1933,
      "duration": 0.1504,
      "velocity": 127,
      "chip": "ym2612"
    },
    {
      "channel": 3,
      "note": 62,
      "start": 170.1951,
      "duration": 0.251,
      "velocity": 127,
      "chip": "ym2612"
    },
    {
      "channel": 5,
      "note": 62,
      "start": 170.2009,
      "duration": 0.1513,
      "velocity": 127,
      "chip": "ym2612"
    },
    {
      "channel": 1,
      "note": 50,
      "start": 170.3449,
      "duration": 0.1505,
      "velocity": 100,
      "chip": "ym2612"
    },
    {
      "channel": 4,
      "note": 29,
      "start": 170.352,
      "duration": 0.1685,
      "velocity": 114,
      "chip": "ym2612"
    },
    {
      "channel": 5,
      "note": 50,
      "start": 170.3528,
      "duration": 0.3028,
      "velocity": 127,
      "chip": "ym2612"
    },
    {
      "channel": 1,
      "note": 38,
      "start": 170.4965,
      "duration": 0.1505,
      "velocity": 1,
      "chip": "ym2612"
    },
    {
      "channel": 3,
      "note": 38,
      "start": 170.4983,
      "duration": 0.3022,
      "velocity": 118,
      "chip": "ym2612"
    },
    {
      "channel": 1,
      "note": 62,
      "start": 170.6484,
      "duration": 0.1171,
      "velocity": 107,
      "chip": "ym2612"
    },
    {
      "channel": 4,
      "note": 26,
      "start": 170.6554,
      "duration": 0.1683,
      "velocity": 114,
      "chip": "ym2612"
    },
    {
      "channel": 5,
      "note": 50,
      "start": 170.6562,
      "duration": 1.3647,
      "velocity": 127,
      "chip": "ym2612"
    },
    {
      "channel": 1,
      "note": 50,
      "start": 170.7999,
      "duration": 0.1505,
      "velocity": 72,
      "chip": "ym2612"
    },
    {
      "channel": 3,
      "note": 62,
      "start": 170.8017,
      "duration": 0.2511,
      "velocity": 127,
      "chip": "ym2612"
    },
    {
      "channel": 1,
      "note": 38,
      "start": 170.9515,
      "duration": 0.1508,
      "velocity": 1,
      "chip": "ym2612"
    },
    {
      "channel": 4,
      "note": 27,
      "start": 170.9587,
      "duration": 0.1683,
      "velocity": 114,
      "chip": "ym2612"
    },
    {
      "channel": 0,
      "note": 38,
      "start": 171.1021,
      "duration": 0.6234,
      "velocity": 107,
      "chip": "ym2612"
    },
    {
      "channel": 1,
      "note": 50,
      "start": 171.1038,
      "duration": 0.1502,
      "velocity": 100,
      "chip": "ym2612"
    },
    {
      "channel": 2,
      "note": 17,
      "start": 171.1045,
      "duration": 0.1511,
      "velocity": 122,
      "chip": "ym2612"
    },
    {
      "channel": 3,
      "note": 38,
      "start": 171.1059,
      "duration": 0.3016,
      "velocity": 118,
      "chip": "ym2612"
    },
    {
      "channel": 1,
      "note": 62,
      "start": 171.2554,
      "duration": 0.1168,
      "velocity": 107,
      "chip": "ym2612"
    },
    {
      "channel": 2,
      "note": 17,
      "start": 171.2561,
      "duration": 1.0608,
      "velocity": 122,
      "chip": "ym2612"
    },
    {
      "channel": 4,
      "note": 27,
      "start": 171.2621,
      "duration": 0.1683,
      "velocity": 114,
      "chip": "ym2612"
    },
    {
      "channel": 1,
      "note": 41,
      "start": 171.4067,
      "duration": 0.1504,
      "velocity": 127,
      "chip": "ym2612"
    },
    {
      "channel": 3,
      "note": 62,
      "start": 171.4086,
      "duration": 0.251,
      "velocity": 127,
      "chip": "ym2612"
    },
    {
      "channel": 1,
      "note": 50,
      "start": 171.5583,
      "duration": 0.1506,
      "velocity": 100,
      "chip": "ym2612"
    },
    {
      "channel": 4,
      "note": 29,
      "start": 171.5655,
      "duration": 0.1511,
      "velocity": 114,
      "chip": "ym2612"
    },
    {
      "channel": 1,
      "note": 38,
      "start": 171.71,
      "duration": 0.1505,
      "velocity": 1,
      "chip": "ym2612"
    },
    {
      "channel": 3,
      "note": 38,
      "start": 171.7118,
      "duration": 0.3022,
      "velocity": 118,
      "chip": "ym2612"
    },
    {
      "channel": 4,
      "note": 26,
      "start": 171.7171,
      "duration": 0.1683,
      "velocity": 114,
      "chip": "ym2612"
    },
    {
      "channel": 1,
      "note": 62,
      "start": 171.8618,
      "duration": 0.1171,
      "velocity": 107,
      "chip": "ym2612"
    },
    {
      "channel": 1,
      "note": 50,
      "start": 172.0133,
      "duration": 0.1506,
      "velocity": 72,
      "chip": "ym2612"
    },
    {
      "channel": 3,
      "note": 62,
      "start": 172.0151,
      "duration": 0.2511,
      "velocity": 127,
      "chip": "ym2612"
    },
    {
      "channel": 4,
      "note": 26,
      "start": 172.0206,
      "duration": 0.1682,
      "velocity": 114,
      "chip": "ym2612"
    },
    {
      "channel": 5,
      "note": 62,
      "start": 172.0214,
      "duration": 0.1508,
      "velocity": 127,
      "chip": "ym2612"
    },
    {
      "channel": 1,
      "note": 38,
      "start": 172.165,
      "duration": 0.1505,
      "velocity": 1,
      "chip": "ym2612"
    },
    {
      "channel": 5,
      "note": 62,
      "start": 172.1728,
      "duration": 0.1513,
      "velocity": 127,
      "chip": "ym2612"
    },
    {
      "channel": 1,
      "note": 50,
      "start": 172.3167,
      "duration": 0.1505,
      "velocity": 100,
      "chip": "ym2612"
    },
    {
      "channel": 2,
      "note": 17,
      "start": 172.3174,
      "duration": 1.2129,
      "velocity": 122,
      "chip": "ym2612"
    },
    {
      "channel": 3,
      "note": 38,
      "start": 172.3188,
      "duration": 0.3023,
      "velocity": 118,
      "chip": "ym2612"
    },
    {
      "channel": 4,
      "note": 27,
      "start": 172.3239,
      "duration": 0.1512,
      "velocity": 114,
      "chip": "ym2612"
    },
    {
      "channel": 5,
      "note": 62,
      "start": 172.3247,
      "duration": 0.1511,
      "velocity": 127,
      "chip": "ym2612"
    },
    {
      "channel": 1,
      "note": 62,
      "start": 172.4686,
      "duration": 0.1171,
      "velocity": 107,
      "chip": "ym2612"
    },
    {
      "channel": 4,
      "note": 27,
      "start": 172.4755,
      "duration": 0.1683,
      "velocity": 114,
      "chip": "ym2612"
    },
    {
      "channel": 5,
      "note": 62,
      "start": 172.4763,
      "duration": 0.1509,
      "velocity": 127,
      "chip": "ym2612"
    },
    {
      "channel": 1,
      "note": 50,
      "start": 172.6205,
      "duration": 0.1503,
      "velocity": 127,
      "chip": "ym2612"
    },
    {
      "channel": 3,
      "note": 62,
      "start": 172.6223,
      "duration": 0.2507,
      "velocity": 127,
      "chip": "ym2612"
    },
    {
      "channel": 5,
      "note": 62,
      "start": 172.6278,
      "duration": 0.1513,
      "velocity": 127,
      "chip": "ym2612"
    },
    {
      "channel": 1,
      "note": 50,
      "start": 172.7719,
      "duration": 0.1504,
      "velocity": 100,
      "chip": "ym2612"
    },
    {
      "channel": 4,
      "note": 29,
      "start": 172.7789,
      "duration": 0.1683,
      "velocity": 114,
      "chip": "ym2612"
    },
    {
      "channel": 5,
      "note": 50,
      "start": 172.7797,
      "duration": 0.3028,
      "velocity": 127,
      "chip": "ym2612"
    },
    {
      "channel": 1,
      "note": 38,
      "start": 172.9234,
      "duration": 0.1505,
      "velocity": 1,
      "chip": "ym2612"
    },
    {
      "channel": 3,
      "note": 38,
      "start": 172.9253,
      "duration": 0.3022,
      "velocity": 118,
      "chip": "ym2612"
    },
    {
      "channel": 1,
      "note": 62,
      "start": 173.0753,
      "duration": 0.1172,
      "velocity": 107,
      "chip": "ym2612"
    },
    {
      "channel": 4,
      "note": 26,
      "start": 173.0822,
      "duration": 0.1683,
      "velocity": 114,
      "chip": "ym2612"
    },
    {
      "channel": 5,
      "note": 50,
      "start": 173.0831,
      "duration": 1.3646,
      "velocity": 127,
      "chip": "ym2612"
    },
    {
      "channel": 1,
      "note": 50,
      "start": 173.2268,
      "duration": 0.1505,
      "velocity": 72,
      "chip": "ym2612"
    },
    {
      "channel": 3,
      "note": 62,
      "start": 173.2286,
      "duration": 0.2511,
      "velocity": 127,
      "chip": "ym2612"
    },
    {
      "channel": 1,
      "note": 38,
      "start": 173.3784,
      "duration": 0.1505,
      "velocity": 1,
      "chip": "ym2612"
    },
    {
      "channel": 4,
      "note": 27,
      "start": 173.3856,
      "duration": 0.1683,
      "velocity": 114,
      "chip": "ym2612"
    },
    {
      "channel": 1,
      "note": 62,
      "start": 173.5302,
      "duration": 0.1505,
      "velocity": 100,
      "chip": "ym2612"
    },
    {
      "channel": 2,
      "note": 17,
      "start": 173.5309,
      "duration": 0.4546,
      "velocity": 122,
      "chip": "ym2612"
    },
    {
      "channel": 3,
      "note": 38,
      "start": 173.5322,
      "duration": 0.3022,
      "velocity": 118,
      "chip": "ym2612"
    },
    {
      "channel": 1,
      "note": 62,
      "start": 173.682,
      "duration": 0.1172,
      "velocity": 107,
      "chip": "ym2612"
    },
    {
      "channel": 4,
      "note": 27,
      "start": 173.689,
      "duration": 0.1683,
      "velocity": 114,
      "chip": "ym2612"
    },
    {
      "channel": 1,
      "note": 50,
      "start": 173.8337,
      "duration": 0.1504,
      "velocity": 127,
      "chip": "ym2612"
    },
    {
      "channel": 3,
      "note": 62,
      "start": 173.8355,
      "duration": 0.2512,
      "velocity": 127,
      "chip": "ym2612"
    },
    {
      "channel": 1,
      "note": 50,
      "start": 173.9852,
      "duration": 0.1508,
      "velocity": 100,
      "chip": "ym2612"
    },
    {
      "channel": 2,
      "note": 17,
      "start": 173.9859,
      "duration": 0.7579,
      "velocity": 122,
      "chip": "ym2612"
    },
    {
      "channel": 4,
      "note": 29,
      "start": 173.9924,
      "duration": 0.1511,
      "velocity": 114,
      "chip": "ym2612"
    },
    {
      "channel": 0,
      "note": 38,
      "start": 174.1358,
      "duration": 0.6233,
      "velocity": 107,
      "chip": "ym2612"
    },
    {
      "channel": 1,
      "note": 38,
      "start": 174.1373,
      "duration": 0.1501,
      "velocity": 1,
      "chip": "ym2612"
    },
    {
      "channel": 3,
      "note": 38,
      "start": 174.1392,
      "duration": 0.3013,
      "velocity": 118,
      "chip": "ym2612"
    },
    {
      "channel": 4,
      "note": 26,
      "start": 174.144,
      "duration": 0.1683,
      "velocity": 114,
      "chip": "ym2612"
    },
    {
      "channel": 1,
      "note": 74,
      "start": 174.2888,
      "duration": 0.1171,
      "velocity": 107,
      "chip": "ym2612"
    },
    {
      "channel": 1,
      "note": 65,
      "start": 174.4398,
      "duration": 0.1178,
      "velocity": 107,
      "chip": "ym2612"
    },
    {
      "channel": 3,
      "note": 62,
      "start": 174.4416,
      "duration": 0.2516,
      "velocity": 127,
      "chip": "ym2612"
    },
    {
      "channel": 4,
      "note": 26,
      "start": 174.4474,
      "duration": 0.1683,
      "velocity": 114,
      "chip": "ym2612"
    },
    {
      "channel": 5,
      "note": 62,
      "start": 174.4482,
      "duration": 0.1509,
      "velocity": 127,
      "chip": "ym2612"
    },
    {
      "channel": 1,
      "note": 38,
      "start": 174.5919,
      "duration": 0.1505,
      "velocity": 1,
      "chip": "ym2612"
    },
    {
      "channel": 5,
      "note": 62,
      "start": 174.5997,
      "duration": 0.1513,
      "velocity": 127,
      "chip": "ym2612"
    },
    {
      "channel": 1,
      "note": 50,
      "start": 174.7436,
      "duration": 0.1505,
      "velocity": 100,
      "chip": "ym2612"
    },
    {
      "channel": 2,
      "note": 17,
      "start": 174.7443,
      "duration": 1.2132,
      "velocity": 122,
      "chip": "ym2612"
    },
    {
      "channel": 3,
      "note": 38,
      "start": 174.7457,
      "duration": 0.3021,
      "velocity": 118,
      "chip": "ym2612"
    },
    {
      "channel": 4,
      "note": 27,
      "start": 174.7508,
      "duration": 0.1511,
      "velocity": 114,
      "chip": "ym2612"
    },
    {
      "channel": 5,
      "note": 62,
      "start": 174.7515,
      "duration": 0.1512,
      "velocity": 127,
      "chip": "ym2612"
    },
    {
      "channel": 1,
      "note": 62,
      "start": 174.8955,
      "duration": 0.1171,
      "velocity": 107,
      "chip": "ym2612"
    },
    {
      "channel": 4,
      "note": 27,
      "start": 174.9024,
      "duration": 0.1683,
      "velocity": 114,
      "chip": "ym2612"
    },
    {
      "channel": 5,
      "note": 62,
      "start": 174.9035,
      "duration": 0.1506,
      "velocity": 127,
      "chip": "ym2612"
    },
    {
      "channel": 1,
      "note": 50,
      "start": 175.0471,
      "duration": 0.1504,
      "velocity": 127,
      "chip": "ym2612"
    },
    {
      "channel": 3,
      "note": 62,
      "start": 175.0489,
      "duration": 0.251,
      "velocity": 127,
      "chip": "ym2612"
    },
    {
      "channel": 5,
      "note": 62,
      "start": 175.0547,
      "duration": 0.1513,
      "velocity": 127,
      "chip": "ym2612"
    },
    {
      "channel": 1,
      "note": 50,
      "start": 175.1986,
      "duration": 0.1506,
      "velocity": 100,
      "chip": "ym2612"
    },
    {
      "channel": 4,
      "note": 29,
      "start": 175.2058,
      "duration": 0.1683,
      "velocity": 114,
      "chip": "ym2612"
    },
    {
      "channel": 5,
      "note": 50,
      "start": 175.2066,
      "duration": 0.3028,
      "velocity": 127,
      "chip": "ym2612"
    },
    {
      "channel": 1,
      "note": 38,
      "start": 175.3503,
      "duration": 0.1505,
      "velocity": 1,
      "chip": "ym2612"
    },
    {
      "channel": 3,
      "note": 38,
      "start": 175.3521,
      "duration": 0.3025,
      "velocity": 118,
      "chip": "ym2612"
    },
    {
      "channel": 1,
      "note": 62,
      "start": 175.5022,
      "duration": 0.1172,
      "velocity": 107,
      "chip": "ym2612"
    },
    {
      "channel": 4,
      "note": 26,
      "start": 175.5092,
      "duration": 0.1683,
      "velocity": 114,
      "chip": "ym2612"
    },
    {
      "channel": 5,
      "note": 50,
      "start": 175.5099,
      "duration": 1.3646,
      "velocity": 127,
      "chip": "ym2612"
    },
    {
      "channel": 1,
      "note": 50,
      "start": 175.6539,
      "duration": 0.1502,
      "velocity": 72,
      "chip": "ym2612"
    },
    {
      "channel": 3,
      "note": 62,
      "start": 175.6557,
      "duration": 0.2509,
      "velocity": 127,
      "chip": "ym2612"
    },
    {
      "channel": 1,
      "note": 38,
      "start": 175.8054,
      "duration": 0.1507,
      "velocity": 1,
      "chip": "ym2612"
    },
    {
      "channel": 4,
      "note": 27,
      "start": 175.8125,
      "duration": 0.1683,
      "velocity": 114,
      "chip": "ym2612"
    },
    {
      "channel": 0,
      "note": 38,
      "start": 175.9559,
      "duration": 0.6234,
      "velocity": 107,
      "chip": "ym2612"
    },
    {
      "channel": 1,
      "note": 50,
      "start": 175.9573,
      "duration": 0.1503,
      "velocity": 100,
      "chip": "ym2612"
    },
    {
      "channel": 2,
      "note": 17,
      "start": 175.958,
      "duration": 0.1511,
      "velocity": 122,
      "chip": "ym2612"
    },
    {
      "channel": 3,
      "note": 38,
      "start": 175.9593,
      "duration": 0.3019,
      "velocity": 118,
      "chip": "ym2612"
    },
    {
      "channel": 1,
      "note": 62,
      "start": 176.1089,
      "duration": 0.1171,
      "velocity": 107,
      "chip": "ym2612"
    },
    {
      "channel": 2,
      "note": 17,
      "start": 176.1097,
      "duration": 1.0613,
      "velocity": 122,
      "chip": "ym2612"
    },
    {
      "channel": 4,
      "note": 27,
      "start": 176.1159,
      "duration": 0.1684,
      "velocity": 114,
      "chip": "ym2612"
    },
    {
      "channel": 1,
      "note": 41,
      "start": 176.2606,
      "duration": 0.1504,
      "velocity": 127,
      "chip": "ym2612"
    },
    {
      "channel": 3,
      "note": 62,
      "start": 176.2624,
      "duration": 0.251,
      "velocity": 127,
      "chip": "ym2612"
    },
    {
      "channel": 1,
      "note": 50,
      "start": 176.4121,
      "duration": 0.1505,
      "velocity": 100,
      "chip": "ym2612"
    },
    {
      "channel": 4,
      "note": 29,
      "start": 176.4192,
      "duration": 0.1512,
      "velocity": 114,
      "chip": "ym2612"
    },
    {
      "channel": 1,
      "note": 38,
      "start": 176.5637,
      "duration": 0.1506,
      "velocity": 1,
      "chip": "ym2612"
    },
    {
      "channel": 3,
      "note": 38,
      "start": 176.5656,
      "duration": 0.3022,
      "velocity": 118,
      "chip": "ym2612"
    },
    {
      "channel": 4,
      "note": 26,
      "start": 176.5709,
      "duration": 0.1683,
      "velocity": 114,
      "chip": "ym2612"
    },
    {
      "channel": 1,
      "note": 62,
      "start": 176.7156,
      "duration": 0.1171,
      "velocity": 107,
      "chip": "ym2612"
    },
    {
      "channel": 1,
      "note": 50,
      "start": 176.8671,
      "duration": 0.1505,
      "velocity": 72,
      "chip": "ym2612"
    },
    {
      "channel": 3,
      "note": 62,
      "start": 176.869,
      "duration": 0.2513,
      "velocity": 127,
      "chip": "ym2612"
    },
    {
      "channel": 4,
      "note": 26,
      "start": 176.8743,
      "duration": 0.1683,
      "velocity": 114,
      "chip": "ym2612"
    },
    {
      "channel": 5,
      "note": 62,
      "start": 176.8751,
      "duration": 0.151,
      "velocity": 127,
      "chip": "ym2612"
    },
    {
      "channel": 1,
      "note": 38,
      "start": 177.0188,
      "duration": 0.1506,
      "velocity": 1,
      "chip": "ym2612"
    },
    {
      "channel": 5,
      "note": 62,
      "start": 177.0265,
      "duration": 0.1513,
      "velocity": 127,
      "chip": "ym2612"
    },
    {
      "channel": 1,
      "note": 50,
      "start": 177.1707,
      "duration": 0.1502,
      "velocity": 100,
      "chip": "ym2612"
    },
    {
      "channel": 2,
      "note": 17,
      "start": 177.1715,
      "duration": 1.2127,
      "velocity": 122,
      "chip": "ym2612"
    },
    {
      "channel": 3,
      "note": 38,
      "start": 177.1728,
      "duration": 0.3019,
      "velocity": 118,
      "chip": "ym2612"
    },
    {
      "channel": 4,
      "note": 27,
      "start": 177.1776,
      "duration": 0.1511,
      "velocity": 114,
      "chip": "ym2612"
    },
    {
      "channel": 5,
      "note": 62,
      "start": 177.1784,
      "duration": 0.1512,
      "velocity": 127,
      "chip": "ym2612"
    },
    {
      "channel": 1,
      "note": 62,
      "start": 177.3223,
      "duration": 0.1172,
      "velocity": 107,
      "chip": "ym2612"
    },
    {
      "channel": 4,
      "note": 27,
      "start": 177.3293,
      "duration": 0.1683,
      "velocity": 114,
      "chip": "ym2612"
    },
    {
      "channel": 5,
      "note": 62,
      "start": 177.3302,
      "duration": 0.1509,
      "velocity": 127,
      "chip": "ym2612"
    },
    {
      "channel": 1,
      "note": 50,
      "start": 177.474,
      "duration": 0.1504,
      "velocity": 127,
      "chip": "ym2612"
    },
    {
      "channel": 3,
      "note": 62,
      "start": 177.4758,
      "duration": 0.251,
      "velocity": 127,
      "chip": "ym2612"
    },
    {
      "channel": 5,
      "note": 62,
      "start": 177.4816,
      "duration": 0.1513,
      "velocity": 127,
      "chip": "ym2612"
    },
    {
      "channel": 1,
      "note": 50,
      "start": 177.6255,
      "duration": 0.1505,
      "velocity": 100,
      "chip": "ym2612"
    },
    {
      "channel": 4,
      "note": 29,
      "start": 177.6327,
      "duration": 0.1683,
      "velocity": 114,
      "chip": "ym2612"
    },
    {
      "channel": 5,
      "note": 50,
      "start": 177.6335,
      "duration": 0.3031,
      "velocity": 127,
      "chip": "ym2612"
    },
    {
      "channel": 1,
      "note": 38,
      "start": 177.7772,
      "duration": 0.1506,
      "velocity": 1,
      "chip": "ym2612"
    },
    {
      "channel": 3,
      "note": 38,
      "start": 177.779,
      "duration": 0.3022,
      "velocity": 118,
      "chip": "ym2612"
    },
    {
      "channel": 1,
      "note": 62,
      "start": 177.9291,
      "duration": 0.1172,
      "velocity": 107,
      "chip": "ym2612"
    },
    {
      "channel": 4,
      "note": 26,
      "start": 177.9361,
      "duration": 0.1683,
      "velocity": 114,
      "chip": "ym2612"
    },
    {
      "channel": 5,
      "note": 50,
      "start": 177.9371,
      "duration": 1.3643,
      "velocity": 127,
      "chip": "ym2612"
    },
    {
      "channel": 1,
      "note": 50,
      "start": 178.0805,
      "duration": 0.1506,
      "velocity": 72,
      "chip": "ym2612"
    },
    {
      "channel": 3,
      "note": 62,
      "start": 178.0824,
      "duration": 0.2511,
      "velocity": 127,
      "chip": "ym2612"
    },
    {
      "channel": 1,
      "note": 38,
      "start": 178.2322,
      "duration": 0.1505,
      "velocity": 1,
      "chip": "ym2612"
    },
    {
      "channel": 4,
      "note": 27,
      "start": 178.2394,
      "duration": 0.1684,
      "velocity": 114,
      "chip": "ym2612"
    },
    {
      "channel": 1,
      "note": 62,
      "start": 178.3839,
      "duration": 0.1506,
      "velocity": 100,
      "chip": "ym2612"
    },
    {
      "channel": 2,
      "note": 17,
      "start": 178.3847,
      "duration": 0.4545,
      "velocity": 122,
      "chip": "ym2612"
    },
    {
      "channel": 3,
      "note": 38,
      "start": 178.386,
      "duration": 0.3024,
      "velocity": 118,
      "chip": "ym2612"
    },
    {
      "channel": 1,
      "note": 62,
      "start": 178.5358,
      "duration": 0.1174,
      "velocity": 107,
      "chip": "ym2612"
    },
    {
      "channel": 4,
      "note": 27,
      "start": 178.5427,
      "duration": 0.1683,
      "velocity": 114,
      "chip": "ym2612"
    },
    {
      "channel": 1,
      "note": 50,
      "start": 178.6877,
      "duration": 0.15,
      "velocity": 127,
      "chip": "ym2612"
    },
    {
      "channel": 3,
      "note": 62,
      "start": 178.6895,
      "duration": 0.2507,
      "velocity": 127,
      "chip": "ym2612"
    },
    {
      "channel": 1,
      "note": 50,
      "start": 178.839,
      "duration": 0.1507,
      "velocity": 100,
      "chip": "ym2612"
    },
    {
      "channel": 2,
      "note": 17,
      "start": 178.8397,
      "duration": 0.7579,
      "velocity": 122,
      "chip": "ym2612"
    },
    {
      "channel": 4,
      "note": 29,
      "start": 178.8461,
      "duration": 0.1511,
      "velocity": 114,
      "chip": "ym2612"
    },
    {
      "channel": 0,
      "note": 38,
      "start": 178.9896,
      "duration": 0.6234,
      "velocity": 107,
      "chip": "ym2612"
    },
    {
      "channel": 1,
      "note": 38,
      "start": 178.9909,
      "duration": 0.1503,
      "velocity": 1,
      "chip": "ym2612"
    },
    {
      "channel": 3,
      "note": 38,
      "start": 178.9927,
      "duration": 0.3015,
      "velocity": 118,
      "chip": "ym2612"
    },
    {
      "channel": 4,
      "note": 26,
      "start": 178.9978,
      "duration": 0.1683,
      "velocity": 114,
      "chip": "ym2612"
    },
    {
      "channel": 1,
      "note": 74,
      "start": 179.1426,
      "duration": 0.1171,
      "velocity": 107,
      "chip": "ym2612"
    },
    {
      "channel": 1,
      "note": 65,
      "start": 179.2936,
      "duration": 0.1177,
      "velocity": 107,
      "chip": "ym2612"
    },
    {
      "channel": 3,
      "note": 62,
      "start": 179.2954,
      "duration": 0.2515,
      "velocity": 127,
      "chip": "ym2612"
    },
    {
      "channel": 4,
      "note": 26,
      "start": 179.3012,
      "duration": 0.1684,
      "velocity": 114,
      "chip": "ym2612"
    },
    {
      "channel": 5,
      "note": 62,
      "start": 179.302,
      "duration": 0.1511,
      "velocity": 127,
      "chip": "ym2612"
    },
    {
      "channel": 1,
      "note": 38,
      "start": 179.4457,
      "duration": 0.1506,
      "velocity": 1,
      "chip": "ym2612"
    },
    {
      "channel": 5,
      "note": 62,
      "start": 179.4537,
      "duration": 0.1511,
      "velocity": 127,
      "chip": "ym2612"
    },
    {
      "channel": 1,
      "note": 50,
      "start": 179.5974,
      "duration": 0.1505,
      "velocity": 100,
      "chip": "ym2612"
    },
    {
      "channel": 2,
      "note": 17,
      "start": 179.5982,
      "duration": 1.2132,
      "velocity": 122,
      "chip": "ym2612"
    },
    {
      "channel": 3,
      "note": 38,
      "start": 179.5995,
      "duration": 0.3021,
      "velocity": 118,
      "chip": "ym2612"
    },
    {
      "channel": 4,
      "note": 27,
      "start": 179.6045,
      "duration": 0.1512,
      "velocity": 114,
      "chip": "ym2612"
    },
    {
      "channel": 5,
      "note": 62,
      "start": 179.6054,
      "duration": 0.1511,
      "velocity": 127,
      "chip": "ym2612"
    },
    {
      "channel": 1,
      "note": 62,
      "start": 179.7492,
      "duration": 0.1172,
      "velocity": 107,
      "chip": "ym2612"
    },
    {
      "channel": 4,
      "note": 27,
      "start": 179.7562,
      "duration": 0.1683,
      "velocity": 114,
      "chip": "ym2612"
    },
    {
      "channel": 5,
      "note": 62,
      "start": 179.757,
      "duration": 0.151,
      "velocity": 127,
      "chip": "ym2612"
    },
    {
      "channel": 1,
      "note": 50,
      "start": 179.9009,
      "duration": 0.1504,
      "velocity": 127,
      "chip": "ym2612"
    },
    {
      "channel": 3,
      "note": 62,
      "start": 179.9027,
      "duration": 0.2512,
      "velocity": 127,
      "chip": "ym2612"
    },
    {
      "channel": 5,
      "note": 62,
      "start": 179.9085,
      "duration": 0.1513,
      "velocity": 127,
      "chip": "ym2612"
    },
    {
      "channel": 1,
      "note": 50,
      "start": 180.0524,
      "duration": 0.1507,
      "velocity": 100,
      "chip": "ym2612"
    },
    {
      "channel": 4,
      "note": 29,
      "start": 180.0596,
      "duration": 0.1683,
      "velocity": 114,
      "chip": "ym2612"
    },
    {
      "channel": 5,
      "note": 50,
      "start": 180.0604,
      "duration": 0.3028,
      "velocity": 127,
      "chip": "ym2612"
    },
    {
      "channel": 1,
      "note": 38,
      "start": 180.2043,
      "duration": 0.1503,
      "velocity": 1,
      "chip": "ym2612"
    },
    {
      "channel": 3,
      "note": 38,
      "start": 180.2062,
      "duration": 0.302,
      "velocity": 118,
      "chip": "ym2612"
    },
    {
      "channel": 1,
      "note": 62,
      "start": 180.356,
      "duration": 0.1171,
      "velocity": 107,
      "chip": "ym2612"
    },
    {
      "channel": 4,
      "note": 26,
      "start": 180.3629,
      "duration": 0.1684,
      "velocity": 114,
      "chip": "ym2612"
    },
    {
      "channel": 5,
      "note": 50,
      "start": 180.3637,
      "duration": 1.3646,
      "velocity": 127,
      "chip": "ym2612"
    },
    {
      "channel": 1,
      "note": 50,
      "start": 180.5074,
      "duration": 0.1506,
      "velocity": 72,
      "chip": "ym2612"
    },
    {
      "channel": 3,
      "note": 62,
      "start": 180.5093,
      "duration": 0.2511,
      "velocity": 127,
      "chip": "ym2612"
    },
    {
      "channel": 1,
      "note": 38,
      "start": 180.6592,
      "duration": 0.1508,
      "velocity": 1,
      "chip": "ym2612"
    },
    {
      "channel": 4,
      "note": 27,
      "start": 180.6663,
      "duration": 0.1684,
      "velocity": 114,
      "chip": "ym2612"
    },
    {
      "channel": 0,
      "note": 38,
      "start": 180.8097,
      "duration": 0.6234,
      "velocity": 107,
      "chip": "ym2612"
    },
    {
      "channel": 1,
      "note": 50,
      "start": 180.8111,
      "duration": 0.1503,
      "velocity": 100,
      "chip": "ym2612"
    },
    {
      "channel": 2,
      "note": 17,
      "start": 180.8118,
      "duration": 0.1511,
      "velocity": 122,
      "chip": "ym2612"
    },
    {
      "channel": 3,
      "note": 38,
      "start": 180.8132,
      "duration": 0.3018,
      "velocity": 118,
      "chip": "ym2612"
    },
    {
      "channel": 1,
      "note": 62,
      "start": 180.9627,
      "duration": 0.1171,
      "velocity": 107,
      "chip": "ym2612"
    },
    {
      "channel": 2,
      "note": 17,
      "start": 180.9635,
      "duration": 1.061,
      "velocity": 122,
      "chip": "ym2612"
    },
    {
      "channel": 4,
      "note": 27,
      "start": 180.9699,
      "duration": 0.1681,
      "velocity": 114,
      "chip": "ym2612"
    },
    {
      "channel": 1,
      "note": 41,
      "start": 181.1144,
      "duration": 0.1503,
      "velocity": 127,
      "chip": "ym2612"
    },
    {
      "channel": 3,
      "note": 62,
      "start": 181.1162,
      "duration": 0.251,
      "velocity": 127,
      "chip": "ym2612"
    },
    {
      "channel": 1,
      "note": 50,
      "start": 181.2659,
      "duration": 0.1505,
      "velocity": 100,
      "chip": "ym2612"
    },
    {
      "channel": 4,
      "note": 29,
      "start": 181.273,
      "duration": 0.1511,
      "velocity": 114,
      "chip": "ym2612"
    },
    {
      "channel": 1,
      "note": 38,
      "start": 181.4176,
      "duration": 0.1505,
      "velocity": 1,
      "chip": "ym2612"
    },
    {
      "channel": 3,
      "note": 38,
      "start": 181.4194,
      "duration": 0.3025,
      "velocity": 118,
      "chip": "ym2612"
    },
    {
      "channel": 4,
      "note": 26,
      "start": 181.4247,
      "duration": 0.1684,
      "velocity": 114,
      "chip": "ym2612"
    },
    {
      "channel": 1,
      "note": 62,
      "start": 181.5694,
      "duration": 0.1174,
      "velocity": 107,
      "chip": "ym2612"
    },
    {
      "channel": 1,
      "note": 50,
      "start": 181.7212,
      "duration": 0.1502,
      "velocity": 72,
      "chip": "ym2612"
    },
    {
      "channel": 3,
      "note": 62,
      "start": 181.723,
      "duration": 0.2508,
      "velocity": 127,
      "chip": "ym2612"
    },
    {
      "channel": 4,
      "note": 26,
      "start": 181.728,
      "duration": 0.1683,
      "velocity": 114,
      "chip": "ym2612"
    },
    {
      "channel": 5,
      "note": 62,
      "start": 181.7289,
      "duration": 0.1509,
      "velocity": 127,
      "chip": "ym2612"
    },
    {
      "channel": 1,
      "note": 38,
      "start": 181.8726,
      "duration": 0.1505,
      "velocity": 1,
      "chip": "ym2612"
    },
    {
      "channel": 5,
      "note": 62,
      "start": 181.8803,
      "duration": 0.1513,
      "velocity": 127,
      "chip": "ym2612"
    },
    {
      "channel": 1,
      "note": 50,
      "start": 182.0243,
      "duration": 0.1505,
      "velocity": 100,
      "chip": "ym2612"
    },
    {
      "channel": 2,
      "note": 17,
      "start": 182.025,
      "duration": 1.2132,
      "velocity": 122,
      "chip": "ym2612"
    },
    {
      "channel": 3,
      "note": 38,
      "start": 182.0263,
      "duration": 0.3022,
      "velocity": 118,
      "chip": "ym2612"
    },
    {
      "channel": 4,
      "note": 27,
      "start": 182.0314,
      "duration": 0.1511,
      "velocity": 114,
      "chip": "ym2612"
    },
    {
      "channel": 5,
      "note": 62,
      "start": 182.0322,
      "duration": 0.1511,
      "velocity": 127,
      "chip": "ym2612"
    },
    {
      "channel": 1,
      "note": 62,
      "start": 182.1761,
      "duration": 0.1171,
      "velocity": 107,
      "chip": "ym2612"
    },
    {
      "channel": 4,
      "note": 27,
      "start": 182.1832,
      "duration": 0.1683,
      "velocity": 114,
      "chip": "ym2612"
    },
    {
      "channel": 5,
      "note": 62,
      "start": 182.1839,
      "duration": 0.151,
      "velocity": 127,
      "chip": "ym2612"
    },
    {
      "channel": 1,
      "note": 50,
      "start": 182.3278,
      "duration": 0.1504,
      "velocity": 127,
      "chip": "ym2612"
    },
    {
      "channel": 3,
      "note": 62,
      "start": 182.3296,
      "duration": 0.251,
      "velocity": 127,
      "chip": "ym2612"
    },
    {
      "channel": 5,
      "note": 62,
      "start": 182.3354,
      "duration": 0.1516,
      "velocity": 127,
      "chip": "ym2612"
    },
    {
      "channel": 1,
      "note": 50,
      "start": 182.4793,
      "duration": 0.1505,
      "velocity": 100,
      "chip": "ym2612"
    },
    {
      "channel": 4,
      "note": 29,
      "start": 182.4868,
      "duration": 0.168,
      "velocity": 114,
      "chip": "ym2612"
    },
    {
      "channel": 5,
      "note": 50,
      "start": 182.4875,
      "duration": 0.3025,
      "velocity": 127,
      "chip": "ym2612"
    },
    {
      "channel": 1,
      "note": 38,
      "start": 182.631,
      "duration": 0.1506,
      "velocity": 1,
      "chip": "ym2612"
    },
    {
      "channel": 3,
      "note": 38,
      "start": 182.6328,
      "duration": 0.3022,
      "velocity": 118,
      "chip": "ym2612"
    },
    {
      "channel": 1,
      "note": 62,
      "start": 182.7829,
      "duration": 0.1171,
      "velocity": 107,
      "chip": "ym2612"
    },
    {
      "channel": 4,
      "note": 26,
      "start": 182.7898,
      "duration": 0.1684,
      "velocity": 114,
      "chip": "ym2612"
    },
    {
      "channel": 5,
      "note": 50,
      "start": 182.7907,
      "duration": 1.3646,
      "velocity": 127,
      "chip": "ym2612"
    },
    {
      "channel": 1,
      "note": 50,
      "start": 182.9344,
      "duration": 0.1505,
      "velocity": 72,
      "chip": "ym2612"
    },
    {
      "channel": 3,
      "note": 62,
      "start": 182.9364,
      "duration": 0.2511,
      "velocity": 127,
      "chip": "ym2612"
    },
    {
      "channel": 1,
      "note": 38,
      "start": 183.086,
      "duration": 0.1508,
      "velocity": 1,
      "chip": "ym2612"
    },
    {
      "channel": 4,
      "note": 27,
      "start": 183.0932,
      "duration": 0.1683,
      "velocity": 114,
      "chip": "ym2612"
    },
    {
      "channel": 1,
      "note": 62,
      "start": 183.238,
      "duration": 0.1502,
      "velocity": 100,
      "chip": "ym2612"
    },
    {
      "channel": 2,
      "note": 17,
      "start": 183.2388,
      "duration": 0.4542,
      "velocity": 122,
      "chip": "ym2612"
    },
    {
      "channel": 3,
      "note": 38,
      "start": 183.2401,
      "duration": 0.3019,
      "velocity": 118,
      "chip": "ym2612"
    },
    {
      "channel": 1,
      "note": 62,
      "start": 183.3896,
      "duration": 0.1171,
      "velocity": 107,
      "chip": "ym2612"
    },
    {
      "channel": 4,
      "note": 27,
      "start": 183.3966,
      "duration": 0.1683,
      "velocity": 114,
      "chip": "ym2612"
    },
    {
      "channel": 1,
      "note": 50,
      "start": 183.5412,
      "duration": 0.1504,
      "velocity": 127,
      "chip": "ym2612"
    },
    {
      "channel": 3,
      "note": 62,
      "start": 183.5431,
      "duration": 0.251,
      "velocity": 127,
      "chip": "ym2612"
    },
    {
      "channel": 1,
      "note": 50,
      "start": 183.6927,
      "duration": 0.1508,
      "velocity": 100,
      "chip": "ym2612"
    },
    {
      "channel": 2,
      "note": 17,
      "start": 183.6935,
      "duration": 0.7579,
      "velocity": 122,
      "chip": "ym2612"
    },
    {
      "channel": 4,
      "note": 29,
      "start": 183.6999,
      "duration": 0.1512,
      "velocity": 114,
      "chip": "ym2612"
    },
    {
      "channel": 0,
      "note": 38,
      "start": 183.8433,
      "duration": 0.6234,
      "velocity": 107,
      "chip": "ym2612"
    },
    {
      "channel": 1,
      "note": 38,
      "start": 183.8446,
      "duration": 0.1503,
      "velocity": 1,
      "chip": "ym2612"
    },
    {
      "channel": 3,
      "note": 38,
      "start": 183.8465,
      "duration": 0.3016,
      "velocity": 118,
      "chip": "ym2612"
    },
    {
      "channel": 4,
      "note": 26,
      "start": 183.8516,
      "duration": 0.1686,
      "velocity": 114,
      "chip": "ym2612"
    },
    {
      "channel": 1,
      "note": 74,
      "start": 183.9963,
      "duration": 0.1172,
      "velocity": 107,
      "chip": "ym2612"
    },
    {
      "channel": 1,
      "note": 65,
      "start": 184.1474,
      "duration": 0.1178,
      "velocity": 107,
      "chip": "ym2612"
    },
    {
      "channel": 3,
      "note": 62,
      "start": 184.1492,
      "duration": 0.2515,
      "velocity": 127,
      "chip": "ym2612"
    },
    {
      "channel": 4,
      "note": 26,
      "start": 184.155,
      "duration": 0.1683,
      "velocity": 114,
      "chip": "ym2612"
    },
    {
      "channel": 5,
      "note": 62,
      "start": 184.1558,
      "duration": 0.1509,
      "velocity": 127,
      "chip": "ym2612"
    },
    {
      "channel": 1,
      "note": 38,
      "start": 184.2995,
      "duration": 0.1506,
      "velocity": 1,
      "chip": "ym2612"
    },
    {
      "channel": 5,
      "note": 62,
      "start": 184.3073,
      "duration": 0.1513,
      "velocity": 127,
      "chip": "ym2612"
    },
    {
      "channel": 1,
      "note": 50,
      "start": 184.4512,
      "duration": 0.1505,
      "velocity": 100,
      "chip": "ym2612"
    },
    {
      "channel": 2,
      "note": 17,
      "start": 184.4519,
      "duration": 1.2132,
      "velocity": 122,
      "chip": "ym2612"
    },
    {
      "channel": 3,
      "note": 38,
      "start": 184.4536,
      "duration": 0.302,
      "velocity": 118,
      "chip": "ym2612"
    },
    {
      "channel": 4,
      "note": 27,
      "start": 184.4583,
      "duration": 0.1511,
      "velocity": 114,
      "chip": "ym2612"
    },
    {
      "channel": 5,
      "note": 62,
      "start": 184.4592,
      "duration": 0.1511,
      "velocity": 127,
      "chip": "ym2612"
    },
    {
      "channel": 1,
      "note": 62,
      "start": 184.6033,
      "duration": 0.1171,
      "velocity": 107,
      "chip": "ym2612"
    },
    {
      "channel": 4,
      "note": 27,
      "start": 184.61,
      "duration": 0.1684,
      "velocity": 114,
      "chip": "ym2612"
    },
    {
      "channel": 5,
      "note": 62,
      "start": 184.6108,
      "duration": 0.1509,
      "velocity": 127,
      "chip": "ym2612"
    },
    {
      "channel": 1,
      "note": 50,
      "start": 184.755,
      "duration": 0.1501,
      "velocity": 127,
      "chip": "ym2612"
    },
    {
      "channel": 3,
      "note": 62,
      "start": 184.7567,
      "duration": 0.2507,
      "velocity": 127,
      "chip": "ym2612"
    },
    {
      "channel": 5,
      "note": 62,
      "start": 184.7623,
      "duration": 0.1513,
      "velocity": 127,
      "chip": "ym2612"
    },
    {
      "channel": 1,
      "note": 50,
      "start": 184.9062,
      "duration": 0.1505,
      "velocity": 100,
      "chip": "ym2612"
    },
    {
      "channel": 4,
      "note": 29,
      "start": 184.9134,
      "duration": 0.1684,
      "velocity": 114,
      "chip": "ym2612"
    },
    {
      "channel": 5,
      "note": 50,
      "start": 184.9142,
      "duration": 0.3028,
      "velocity": 127,
      "chip": "ym2612"
    },
    {
      "channel": 1,
      "note": 38,
      "start": 185.0579,
      "duration": 0.1505,
      "velocity": 1,
      "chip": "ym2612"
    },
    {
      "channel": 3,
      "note": 38,
      "start": 185.0597,
      "duration": 0.3022,
      "velocity": 118,
      "chip": "ym2612"
    },
    {
      "channel": 1,
      "note": 62,
      "start": 185.2098,
      "duration": 0.1171,
      "velocity": 107,
      "chip": "ym2612"
    },
    {
      "channel": 4,
      "note": 26,
      "start": 185.2167,
      "duration": 0.1683,
      "velocity": 114,
      "chip": "ym2612"
    },
    {
      "channel": 5,
      "note": 50,
      "start": 185.2176,
      "duration": 1.3646,
      "velocity": 127,
      "chip": "ym2612"
    },
    {
      "channel": 1,
      "note": 50,
      "start": 185.3613,
      "duration": 0.1505,
      "velocity": 72,
      "chip": "ym2612"
    },
    {
      "channel": 3,
      "note": 62,
      "start": 185.3631,
      "duration": 0.2511,
      "velocity": 127,
      "chip": "ym2612"
    },
    {
      "channel": 1,
      "note": 38,
      "start": 185.5129,
      "duration": 0.1508,
      "velocity": 1,
      "chip": "ym2612"
    },
    {
      "channel": 4,
      "note": 27,
      "start": 185.5204,
      "duration": 0.168,
      "velocity": 114,
      "chip": "ym2612"
    },
    {
      "channel": 0,
      "note": 38,
      "start": 185.6635,
      "duration": 0.6237,
      "velocity": 107,
      "chip": "ym2612"
    },
    {
      "channel": 1,
      "note": 50,
      "start": 185.6649,
      "duration": 0.1502,
      "velocity": 100,
      "chip": "ym2612"
    },
    {
      "channel": 2,
      "note": 17,
      "start": 185.6656,
      "duration": 0.1512,
      "velocity": 122,
      "chip": "ym2612"
    },
    {
      "channel": 3,
      "note": 38,
      "start": 185.667,
      "duration": 0.3018,
      "velocity": 118,
      "chip": "ym2612"
    },
    {
      "channel": 1,
      "note": 62,
      "start": 185.8165,
      "duration": 0.1171,
      "velocity": 107,
      "chip": "ym2612"
    },
    {
      "channel": 2,
      "note": 17,
      "start": 185.8172,
      "duration": 1.0611,
      "velocity": 122,
      "chip": "ym2612"
    },
    {
      "channel": 4,
      "note": 27,
      "start": 185.8235,
      "duration": 0.1683,
      "velocity": 114,
      "chip": "ym2612"
    },
    {
      "channel": 1,
      "note": 41,
      "start": 185.9681,
      "duration": 0.1504,
      "velocity": 127,
      "chip": "ym2612"
    },
    {
      "channel": 3,
      "note": 62,
      "start": 185.9702,
      "duration": 0.251,
      "velocity": 127,
      "chip": "ym2612"
    },
    {
      "channel": 1,
      "note": 50,
      "start": 186.1199,
      "duration": 0.1506,
      "velocity": 100,
      "chip": "ym2612"
    },
    {
      "channel": 4,
      "note": 29,
      "start": 186.1268,
      "duration": 0.1511,
      "velocity": 114,
      "chip": "ym2612"
    },
    {
      "channel": 1,
      "note": 38,
      "start": 186.2716,
      "duration": 0.1502,
      "velocity": 1,
      "chip": "ym2612"
    },
    {
      "channel": 3,
      "note": 38,
      "start": 186.2734,
      "duration": 0.302,
      "velocity": 118,
      "chip": "ym2612"
    },
    {
      "channel": 4,
      "note": 26,
      "start": 186.2785,
      "duration": 0.1683,
      "velocity": 114,
      "chip": "ym2612"
    },
    {
      "channel": 1,
      "note": 62,
      "start": 186.4232,
      "duration": 0.1171,
      "velocity": 107,
      "chip": "ym2612"
    },
    {
      "channel": 1,
      "note": 50,
      "start": 186.5747,
      "duration": 0.1506,
      "velocity": 72,
      "chip": "ym2612"
    },
    {
      "channel": 3,
      "note": 62,
      "start": 186.5765,
      "duration": 0.2511,
      "velocity": 127,
      "chip": "ym2612"
    },
    {
      "channel": 4,
      "note": 26,
      "start": 186.5819,
      "duration": 0.1683,
      "velocity": 114,
      "chip": "ym2612"
    },
    {
      "channel": 5,
      "note": 62,
      "start": 186.5827,
      "duration": 0.1509,
      "velocity": 127,
      "chip": "ym2612"
    },
    {
      "channel": 1,
      "note": 38,
      "start": 186.7264,
      "duration": 0.1505,
      "velocity": 1,
      "chip": "ym2612"
    },
    {
      "channel": 5,
      "note": 62,
      "start": 186.7342,
      "duration": 0.1513,
      "velocity": 127,
      "chip": "ym2612"
    },
    {
      "channel": 1,
      "note": 50,
      "start": 186.878,
      "duration": 0.1506,
      "velocity": 100,
      "chip": "ym2612"
    },
    {
      "channel": 2,
      "note": 17,
      "start": 186.8788,
      "duration": 1.213,
      "velocity": 122,
      "chip": "ym2612"
    },
    {
      "channel": 3,
      "note": 38,
      "start": 186.8802,
      "duration": 0.3021,
      "velocity": 118,
      "chip": "ym2612"
    },
    {
      "channel": 4,
      "note": 27,
      "start": 186.8852,
      "duration": 0.1514,
      "velocity": 114,
      "chip": "ym2612"
    },
    {
      "channel": 5,
      "note": 62,
      "start": 186.8861,
      "duration": 0.1513,
      "velocity": 127,
      "chip": "ym2612"
    },
    {
      "channel": 1,
      "note": 62,
      "start": 187.03,
      "duration": 0.1171,
      "velocity": 107,
      "chip": "ym2612"
    },
    {
      "channel": 4,
      "note": 27,
      "start": 187.0371,
      "duration": 0.1681,
      "velocity": 114,
      "chip": "ym2612"
    },
    {
      "channel": 5,
      "note": 62,
      "start": 187.038,
      "duration": 0.1506,
      "velocity": 127,
      "chip": "ym2612"
    },
    {
      "channel": 1,
      "note": 50,
      "start": 187.1816,
      "duration": 0.1504,
      "velocity": 127,
      "chip": "ym2612"
    },
    {
      "channel": 3,
      "note": 62,
      "start": 187.1834,
      "duration": 0.251,
      "velocity": 127,
      "chip": "ym2612"
    },
    {
      "channel": 5,
      "note": 62,
      "start": 187.1892,
      "duration": 0.1513,
      "velocity": 127,
      "chip": "ym2612"
    },
    {
      "channel": 1,
      "note": 50,
      "start": 187.3332,
      "duration": 0.1505,
      "velocity": 100,
      "chip": "ym2612"
    },
    {
      "channel": 4,
      "note": 29,
      "start": 187.3403,
      "duration": 0.1683,
      "velocity": 114,
      "chip": "ym2612"
    },
    {
      "channel": 5,
      "note": 50,
      "start": 187.3411,
      "duration": 0.3028,
      "velocity": 127,
      "chip": "ym2612"
    },
    {
      "channel": 1,
      "note": 38,
      "start": 187.4848,
      "duration": 0.1505,
      "velocity": 1,
      "chip": "ym2612"
    },
    {
      "channel": 3,
      "note": 38,
      "start": 187.4869,
      "duration": 0.3022,
      "velocity": 118,
      "chip": "ym2612"
    },
    {
      "channel": 1,
      "note": 62,
      "start": 187.637,
      "duration": 0.1171,
      "velocity": 107,
      "chip": "ym2612"
    },
    {
      "channel": 4,
      "note": 26,
      "start": 187.6437,
      "duration": 0.1683,
      "velocity": 114,
      "chip": "ym2612"
    },
    {
      "channel": 5,
      "note": 50,
      "start": 187.6445,
      "duration": 1.0503,
      "velocity": 127,
      "chip": "ym2612"
    },
    {
      "channel": 1,
      "note": 50,
      "start": 187.7884,
      "duration": 0.1503,
      "velocity": 72,
      "chip": "ym2612"
    },
    {
      "channel": 3,
      "note": 62,
      "start": 187.7903,
      "duration": 0.2508,
      "velocity": 127,
      "chip": "ym2612"
    },
    {
      "channel": 1,
      "note": 38,
      "start": 187.9398,
      "duration": 0.1506,
      "velocity": 1,
      "chip": "ym2612"
    },
    {
      "channel": 4,
      "note": 27,
      "start": 187.947,
      "duration": 0.1683,
      "velocity": 114,
      "chip": "ym2612"
    },
    {
      "channel": 1,
      "note": 62,
      "start": 188.0915,
      "duration": 0.1505,
      "velocity": 100,
      "chip": "ym2612"
    },
    {
      "channel": 2,
      "note": 17,
      "start": 188.0922,
      "duration": 0.4546,
      "velocity": 122,
      "chip": "ym2612"
    },
    {
      "channel": 3,
      "note": 38,
      "start": 188.0937,
      "duration": 0.3021,
      "velocity": 118,
      "chip": "ym2612"
    },
    {
      "channel": 1,
      "note": 62,
      "start": 188.2434,
      "duration": 0.1172,
      "velocity": 107,
      "chip": "ym2612"
    },
    {
      "channel": 4,
      "note": 27,
      "start": 188.2504,
      "duration": 0.1683,
      "velocity": 114,
      "chip": "ym2612"
    },
    {
      "channel": 1,
      "note": 50,
      "start": 188.395,
      "duration": 0.1504,
      "velocity": 127,
      "chip": "ym2612"
    },
    {
      "channel": 3,
      "note": 62,
      "start": 188.3969,
      "duration": 0.251,
      "velocity": 127,
      "chip": "ym2612"
    },
    {
      "channel": 1,
      "note": 50,
      "start": 188.5466,
      "duration": 0.1482,
      "velocity": 100,
      "chip": "ym2612"
    },
    {
      "channel": 2,
      "note": 17,
      "start": 188.5473,
      "duration": 0.1475,
      "velocity": 122,
      "chip": "ym2612"
    },
    {
      "channel": 4,
      "note": 29,
      "start": 188.5539,
      "duration": 0.1408,
      "velocity": 114,
      "chip": "ym2612"
    }
  ]
}