{
  "track_name": "03 - Islands",
  "duration_sec": 73.476,
  "sample_rate": 44100,
  "note_count": 1656,
  "unique_pitches": 42,
  "pitch_range": 94,
  "avg_note_duration": 0.1412,
  "reconstruction_stats": {
    "notes_reconstructed": 1656,
    "keyon_events": 1656,
    "keyoff_events": 1656,
    "orphan_keyons": 0,
    "unique_pitches": 42,
    "pitch_range": 94,
    "avg_duration_sec": 0.1412
  },
  "metadata": {
    "source": "W\\Wonder Boy in Monster World\\03 - Islands.vgz"
  },
  "notes": [
    {
      "channel": 0,
      "note": 57,
      "start": 0.0517,
      "duration": 0.3994,
      "velocity": 105,
      "chip": "ym2612"
    },
    {
      "channel": 1,
      "note": 76,
      "start": 0.0543,
      "duration": 0.1515,
      "velocity": 84,
      "chip": "ym2612"
    },
    {
      "channel": 4,
      "note": 76,
      "start": 0.0571,
      "duration": 0.1489,
      "velocity": 84,
      "chip": "ym2612"
    },
    {
      "channel": 2,
      "note": 30,
      "start": 0.0599,
      "duration": 0.1183,
      "velocity": 109,
      "chip": "ym2612"
    },
    {
      "channel": 5,
      "note": 105,
      "start": 0.0627,
      "duration": 0.1157,
      "velocity": 120,
      "chip": "ym2612"
    },
    {
      "channel": 2,
      "note": 105,
      "start": 0.1973,
      "duration": 0.1166,
      "velocity": 127,
      "chip": "ym2612"
    },
    {
      "channel": 1,
      "note": 69,
      "start": 0.316,
      "duration": 0.1471,
      "velocity": 84,
      "chip": "ym2612"
    },
    {
      "channel": 4,
      "note": 73,
      "start": 0.3176,
      "duration": 0.1457,
      "velocity": 84,
      "chip": "ym2612"
    },
    {
      "channel": 2,
      "note": 35,
      "start": 0.3201,
      "duration": 0.112,
      "velocity": 109,
      "chip": "ym2612"
    },
    {
      "channel": 2,
      "note": 105,
      "start": 0.4374,
      "duration": 0.1183,
      "velocity": 127,
      "chip": "ym2612"
    },
    {
      "channel": 0,
      "note": 45,
      "start": 0.5574,
      "duration": 0.3969,
      "velocity": 105,
      "chip": "ym2612"
    },
    {
      "channel": 1,
      "note": 69,
      "start": 0.5592,
      "duration": 0.0641,
      "velocity": 84,
      "chip": "ym2612"
    },
    {
      "channel": 4,
      "note": 73,
      "start": 0.5608,
      "duration": 0.0625,
      "velocity": 84,
      "chip": "ym2612"
    },
    {
      "channel": 2,
      "note": 35,
      "start": 0.5623,
      "duration": 0.1173,
      "velocity": 127,
      "chip": "ym2612"
    },
    {
      "channel": 5,
      "note": 23,
      "start": 0.5647,
      "duration": 0.1221,
      "velocity": 120,
      "chip": "ym2612"
    },
    {
      "channel": 1,
      "note": 68,
      "start": 0.6819,
      "duration": 0.0614,
      "velocity": 84,
      "chip": "ym2612"
    },
    {
      "channel": 4,
      "note": 73,
      "start": 0.6833,
      "duration": 0.0601,
      "velocity": 84,
      "chip": "ym2612"
    },
    {
      "channel": 2,
      "note": 35,
      "start": 0.6859,
      "duration": 0.1156,
      "velocity": 109,
      "chip": "ym2612"
    },
    {
      "channel": 2,
      "note": 93,
      "start": 0.8195,
      "duration": 0.1175,
      "velocity": 109,
      "chip": "ym2612"
    },
    {
      "channel": 1,
      "note": 68,
      "start": 0.9391,
      "duration": 0.0615,
      "velocity": 84,
      "chip": "ym2612"
    },
    {
      "channel": 4,
      "note": 73,
      "start": 0.9408,
      "duration": 0.0599,
      "velocity": 84,
      "chip": "ym2612"
    },
    {
      "channel": 2,
      "note": 93,
      "start": 0.9434,
      "duration": 0.0574,
      "velocity": 127,
      "chip": "ym2612"
    },
    {
      "channel": 0,
      "note": 40,
      "start": 1.0587,
      "duration": 0.3931,
      "velocity": 105,
      "chip": "ym2612"
    },
    {
      "channel": 2,
      "note": 28,
      "start": 1.0615,
      "duration": 0.0602,
      "velocity": 127,
      "chip": "ym2612"
    },
    {
      "channel": 5,
      "note": 35,
      "start": 1.0638,
      "duration": 0.1207,
      "velocity": 120,
      "chip": "ym2612"
    },
    {
      "channel": 1,
      "note": 66,
      "start": 1.1796,
      "duration": 0.0612,
      "velocity": 84,
      "chip": "ym2612"
    },
    {
      "channel": 4,
      "note": 73,
      "start": 1.181,
      "duration": 0.0599,
      "velocity": 84,
      "chip": "ym2612"
    },
    {
      "channel": 2,
      "note": 28,
      "start": 1.1835,
      "duration": 0.2355,
      "velocity": 109,
      "chip": "ym2612"
    },
    {
      "channel": 1,
      "note": 66,
      "start": 1.437,
      "duration": 0.0611,
      "velocity": 84,
      "chip": "ym2612"
    },
    {
      "channel": 4,
      "note": 73,
      "start": 1.4387,
      "duration": 0.0595,
      "velocity": 84,
      "chip": "ym2612"
    },
    {
      "channel": 2,
      "note": 105,
      "start": 1.4401,
      "duration": 0.1163,
      "velocity": 109,
      "chip": "ym2612"
    },
    {
      "channel": 0,
      "note": 45,
      "start": 1.5581,
      "duration": 0.4026,
      "velocity": 105,
      "chip": "ym2612"
    },
    {
      "channel": 1,
      "note": 68,
      "start": 1.5599,
      "duration": 0.1497,
      "velocity": 84,
      "chip": "ym2612"
    },
    {
      "channel": 4,
      "note": 73,
      "start": 1.5614,
      "duration": 0.1484,
      "velocity": 84,
      "chip": "ym2612"
    },
    {
      "channel": 2,
      "note": 105,
      "start": 1.5629,
      "duration": 0.2376,
      "velocity": 109,
      "chip": "ym2612"
    },
    {
      "channel": 5,
      "note": 23,
      "start": 1.5655,
      "duration": 0.2452,
      "velocity": 120,
      "chip": "ym2612"
    },
    {
      "channel": 1,
      "note": 68,
      "start": 1.8027,
      "duration": 0.1471,
      "velocity": 84,
      "chip": "ym2612"
    },
    {
      "channel": 4,
      "note": 73,
      "start": 1.8044,
      "duration": 0.1456,
      "velocity": 84,
      "chip": "ym2612"
    },
    {
      "channel": 2,
      "note": 93,
      "start": 1.8069,
      "duration": 0.0581,
      "velocity": 127,
      "chip": "ym2612"
    },
    {
      "channel": 2,
      "note": 28,
      "start": 1.923,
      "duration": 0.0622,
      "velocity": 127,
      "chip": "ym2612"
    },
    {
      "channel": 0,
      "note": 52,
      "start": 2.0619,
      "duration": 0.402,
      "velocity": 105,
      "chip": "ym2612"
    },
    {
      "channel": 1,
      "note": 64,
      "start": 2.0636,
      "duration": 0.1493,
      "velocity": 84,
      "chip": "ym2612"
    },
    {
      "channel": 4,
      "note": 73,
      "start": 2.0653,
      "duration": 0.1478,
      "velocity": 84,
      "chip": "ym2612"
    },
    {
      "channel": 2,
      "note": 28,
      "start": 2.0679,
      "duration": 0.1139,
      "velocity": 109,
      "chip": "ym2612"
    },
    {
      "channel": 5,
      "note": 35,
      "start": 2.0706,
      "duration": 0.1175,
      "velocity": 120,
      "chip": "ym2612"
    },
    {
      "channel": 2,
      "note": 105,
      "start": 2.1872,
      "duration": 0.1165,
      "velocity": 127,
      "chip": "ym2612"
    },
    {
      "channel": 1,
      "note": 71,
      "start": 2.306,
      "duration": 0.147,
      "velocity": 84,
      "chip": "ym2612"
    },
    {
      "channel": 4,
      "note": 74,
      "start": 2.3074,
      "duration": 0.1457,
      "velocity": 84,
      "chip": "ym2612"
    },
    {
      "channel": 2,
      "note": 35,
      "start": 2.31,
      "duration": 0.1119,
      "velocity": 109,
      "chip": "ym2612"
    },
    {
      "channel": 2,
      "note": 105,
      "start": 2.4273,
      "duration": 0.1182,
      "velocity": 127,
      "chip": "ym2612"
    },
    {
      "channel": 0,
      "note": 47,
      "start": 2.5645,
      "duration": 0.3969,
      "velocity": 105,
      "chip": "ym2612"
    },
    {
      "channel": 1,
      "note": 71,
      "start": 2.5662,
      "duration": 0.0641,
      "velocity": 84,
      "chip": "ym2612"
    },
    {
      "channel": 4,
      "note": 74,
      "start": 2.5679,
      "duration": 0.0625,
      "velocity": 84,
      "chip": "ym2612"
    },
    {
      "channel": 2,
      "note": 35,
      "start": 2.5694,
      "duration": 0.1173,
      "velocity": 127,
      "chip": "ym2612"
    },
    {
      "channel": 5,
      "note": 23,
      "start": 2.5717,
      "duration": 0.1222,
      "velocity": 120,
      "chip": "ym2612"
    },
    {
      "channel": 1,
      "note": 69,
      "start": 2.6889,
      "duration": 0.0614,
      "velocity": 84,
      "chip": "ym2612"
    },
    {
      "channel": 4,
      "note": 74,
      "start": 2.6904,
      "duration": 0.0601,
      "velocity": 84,
      "chip": "ym2612"
    },
    {
      "channel": 2,
      "note": 35,
      "start": 2.6929,
      "duration": 0.112,
      "velocity": 109,
      "chip": "ym2612"
    },
    {
      "channel": 2,
      "note": 93,
      "start": 2.8093,
      "duration": 0.1175,
      "velocity": 109,
      "chip": "ym2612"
    },
    {
      "channel": 1,
      "note": 69,
      "start": 2.9291,
      "duration": 0.0615,
      "velocity": 84,
      "chip": "ym2612"
    },
    {
      "channel": 4,
      "note": 74,
      "start": 2.9308,
      "duration": 0.0598,
      "velocity": 84,
      "chip": "ym2612"
    },
    {
      "channel": 2,
      "note": 93,
      "start": 2.9333,
      "duration": 0.0575,
      "velocity": 127,
      "chip": "ym2612"
    },
    {
      "channel": 0,
      "note": 42,
      "start": 3.0486,
      "duration": 0.3931,
      "velocity": 105,
      "chip": "ym2612"
    },
    {
      "channel": 2,
      "note": 28,
      "start": 3.0513,
      "duration": 0.0603,
      "velocity": 127,
      "chip": "ym2612"
    },
    {
      "channel": 5,
      "note": 35,
      "start": 3.0537,
      "duration": 0.1156,
      "velocity": 120,
      "chip": "ym2612"
    },
    {
      "channel": 1,
      "note": 68,
      "start": 3.1866,
      "duration": 0.0612,
      "velocity": 84,
      "chip": "ym2612"
    },
    {
      "channel": 4,
      "note": 74,
      "start": 3.1882,
      "duration": 0.0598,
      "velocity": 84,
      "chip": "ym2612"
    },
    {
      "channel": 2,
      "note": 28,
      "start": 3.1906,
      "duration": 0.234,
      "velocity": 109,
      "chip": "ym2612"
    },
    {
      "channel": 1,
      "note": 68,
      "start": 3.4268,
      "duration": 0.0611,
      "velocity": 84,
      "chip": "ym2612"
    },
    {
      "channel": 4,
      "note": 74,
      "start": 3.4285,
      "duration": 0.0597,
      "velocity": 84,
      "chip": "ym2612"
    },
    {
      "channel": 2,
      "note": 105,
      "start": 3.43,
      "duration": 0.1163,
      "velocity": 109,
      "chip": "ym2612"
    },
    {
      "channel": 0,
      "note": 47,
      "start": 3.5481,
      "duration": 0.4025,
      "velocity": 105,
      "chip": "ym2612"
    },
    {
      "channel": 1,
      "note": 69,
      "start": 3.5498,
      "duration": 0.1498,
      "velocity": 84,
      "chip": "ym2612"
    },
    {
      "channel": 4,
      "note": 74,
      "start": 3.5513,
      "duration": 0.1485,
      "velocity": 84,
      "chip": "ym2612"
    },
    {
      "channel": 2,
      "note": 105,
      "start": 3.5529,
      "duration": 0.2449,
      "velocity": 109,
      "chip": "ym2612"
    },
    {
      "channel": 5,
      "note": 23,
      "start": 3.5554,
      "duration": 0.2426,
      "velocity": 120,
      "chip": "ym2612"
    },
    {
      "channel": 1,
      "note": 69,
      "start": 3.8097,
      "duration": 0.1471,
      "velocity": 84,
      "chip": "ym2612"
    },
    {
      "channel": 4,
      "note": 74,
      "start": 3.8115,
      "duration": 0.1456,
      "velocity": 84,
      "chip": "ym2612"
    },
    {
      "channel": 2,
      "note": 93,
      "start": 3.814,
      "duration": 0.0581,
      "velocity": 127,
      "chip": "ym2612"
    },
    {
      "channel": 2,
      "note": 28,
      "start": 3.9302,
      "duration": 0.0621,
      "velocity": 127,
      "chip": "ym2612"
    },
    {
      "channel": 0,
      "note": 54,
      "start": 4.0518,
      "duration": 0.299,
      "velocity": 105,
      "chip": "ym2612"
    },
    {
      "channel": 1,
      "note": 66,
      "start": 4.0536,
      "duration": 0.1492,
      "velocity": 84,
      "chip": "ym2612"
    },
    {
      "channel": 4,
      "note": 74,
      "start": 4.0552,
      "duration": 0.1477,
      "velocity": 84,
      "chip": "ym2612"
    },
    {
      "channel": 2,
      "note": 28,
      "start": 4.0577,
      "duration": 0.114,
      "velocity": 109,
      "chip": "ym2612"
    },
    {
      "channel": 5,
      "note": 35,
      "start": 4.0604,
      "duration": 0.1176,
      "velocity": 120,
      "chip": "ym2612"
    },
    {
      "channel": 2,
      "note": 105,
      "start": 4.1771,
      "duration": 0.1166,
      "velocity": 127,
      "chip": "ym2612"
    },
    {
      "channel": 1,
      "note": 71,
      "start": 4.2959,
      "duration": 0.147,
      "velocity": 84,
      "chip": "ym2612"
    },
    {
      "channel": 4,
      "note": 74,
      "start": 4.2974,
      "duration": 0.1457,
      "velocity": 84,
      "chip": "ym2612"
    },
    {
      "channel": 2,
      "note": 35,
      "start": 4.2999,
      "duration": 0.1154,
      "velocity": 109,
      "chip": "ym2612"
    },
    {
      "channel": 0,
      "note": 50,
      "start": 4.4318,
      "duration": 0.2965,
      "velocity": 105,
      "chip": "ym2612"
    },
    {
      "channel": 2,
      "note": 105,
      "start": 4.4356,
      "duration": 0.1162,
      "velocity": 127,
      "chip": "ym2612"
    },
    {
      "channel": 1,
      "note": 71,
      "start": 4.554,
      "duration": 0.0604,
      "velocity": 84,
      "chip": "ym2612"
    },
    {
      "channel": 4,
      "note": 74,
      "start": 4.5557,
      "duration": 0.0589,
      "velocity": 84,
      "chip": "ym2612"
    },
    {
      "channel": 2,
      "note": 35,
      "start": 4.5572,
      "duration": 0.1137,
      "velocity": 127,
      "chip": "ym2612"
    },
    {
      "channel": 5,
      "note": 23,
      "start": 4.5595,
      "duration": 0.1186,
      "velocity": 120,
      "chip": "ym2612"
    },
    {
      "channel": 1,
      "note": 69,
      "start": 4.6731,
      "duration": 0.0615,
      "velocity": 84,
      "chip": "ym2612"
    },
    {
      "channel": 4,
      "note": 74,
      "start": 4.6746,
      "duration": 0.06,
      "velocity": 84,
      "chip": "ym2612"
    },
    {
      "channel": 2,
      "note": 35,
      "start": 4.6771,
      "duration": 0.113,
      "velocity": 109,
      "chip": "ym2612"
    },
    {
      "channel": 0,
      "note": 45,
      "start": 4.792,
      "duration": 0.1937,
      "velocity": 105,
      "chip": "ym2612"
    },
    {
      "channel": 2,
      "note": 93,
      "start": 4.7947,
      "duration": 0.1181,
      "velocity": 109,
      "chip": "ym2612"
    },
    {
      "channel": 1,
      "note": 69,
      "start": 4.9304,
      "duration": 0.0615,
      "velocity": 84,
      "chip": "ym2612"
    },
    {
      "channel": 4,
      "note": 74,
      "start": 4.9321,
      "duration": 0.0599,
      "velocity": 84,
      "chip": "ym2612"
    },
    {
      "channel": 2,
      "note": 93,
      "start": 4.9347,
      "duration": 0.0574,
      "velocity": 127,
      "chip": "ym2612"
    },
    {
      "channel": 0,
      "note": 50,
      "start": 5.05,
      "duration": 0.2901,
      "velocity": 105,
      "chip": "ym2612"
    },
    {
      "channel": 2,
      "note": 28,
      "start": 5.0527,
      "duration": 0.0602,
      "velocity": 127,
      "chip": "ym2612"
    },
    {
      "channel": 5,
      "note": 35,
      "start": 5.0551,
      "duration": 0.1207,
      "velocity": 120,
      "chip": "ym2612"
    },
    {
      "channel": 1,
      "note": 68,
      "start": 5.1708,
      "duration": 0.0612,
      "velocity": 84,
      "chip": "ym2612"
    },
    {
      "channel": 4,
      "note": 74,
      "start": 5.1723,
      "duration": 0.0598,
      "velocity": 84,
      "chip": "ym2612"
    },
    {
      "channel": 2,
      "note": 28,
      "start": 5.1748,
      "duration": 0.2349,
      "velocity": 109,
      "chip": "ym2612"
    },
    {
      "channel": 0,
      "note": 52,
      "start": 5.4114,
      "duration": 0.289,
      "velocity": 105,
      "chip": "ym2612"
    },
    {
      "channel": 1,
      "note": 68,
      "start": 5.4131,
      "duration": 0.059,
      "velocity": 84,
      "chip": "ym2612"
    },
    {
      "channel": 4,
      "note": 74,
      "start": 5.4148,
      "duration": 0.0576,
      "velocity": 84,
      "chip": "ym2612"
    },
    {
      "channel": 2,
      "note": 105,
      "start": 5.4163,
      "duration": 0.1141,
      "velocity": 109,
      "chip": "ym2612"
    },
    {
      "channel": 1,
      "note": 69,
      "start": 5.549,
      "duration": 0.1461,
      "velocity": 84,
      "chip": "ym2612"
    },
    {
      "channel": 4,
      "note": 74,
      "start": 5.5506,
      "duration": 0.1448,
      "velocity": 84,
      "chip": "ym2612"
    },
    {
      "channel": 2,
      "note": 105,
      "start": 5.5521,
      "duration": 0.2349,
      "velocity": 109,
      "chip": "ym2612"
    },
    {
      "channel": 5,
      "note": 23,
      "start": 5.5546,
      "duration": 0.2408,
      "velocity": 120,
      "chip": "ym2612"
    },
    {
      "channel": 0,
      "note": 47,
      "start": 5.7886,
      "duration": 0.1919,
      "velocity": 105,
      "chip": "ym2612"
    },
    {
      "channel": 1,
      "note": 69,
      "start": 5.7903,
      "duration": 0.1451,
      "velocity": 84,
      "chip": "ym2612"
    },
    {
      "channel": 4,
      "note": 74,
      "start": 5.792,
      "duration": 0.1434,
      "velocity": 84,
      "chip": "ym2612"
    },
    {
      "channel": 2,
      "note": 93,
      "start": 5.7946,
      "duration": 0.0561,
      "velocity": 127,
      "chip": "ym2612"
    },
    {
      "channel": 2,
      "note": 28,
      "start": 5.9086,
      "duration": 0.0621,
      "velocity": 127,
      "chip": "ym2612"
    },
    {
      "channel": 0,
      "note": 52,
      "start": 6.0309,
      "duration": 0.1956,
      "velocity": 105,
      "chip": "ym2612"
    },
    {
      "channel": 1,
      "note": 66,
      "start": 6.0327,
      "duration": 0.1485,
      "velocity": 84,
      "chip": "ym2612"
    },
    {
      "channel": 4,
      "note": 74,
      "start": 6.0344,
      "duration": 0.1471,
      "velocity": 84,
      "chip": "ym2612"
    },
    {
      "channel": 2,
      "note": 28,
      "start": 6.037,
      "duration": 0.1166,
      "velocity": 109,
      "chip": "ym2612"
    },
    {
      "channel": 5,
      "note": 35,
      "start": 6.0397,
      "duration": 0.1141,
      "velocity": 120,
      "chip": "ym2612"
    },
    {
      "channel": 2,
      "note": 105,
      "start": 6.1727,
      "duration": 0.1175,
      "velocity": 127,
      "chip": "ym2612"
    },
    {
      "channel": 0,
      "note": 45,
      "start": 6.2919,
      "duration": 0.1919,
      "velocity": 105,
      "chip": "ym2612"
    },
    {
      "channel": 1,
      "note": 69,
      "start": 6.2934,
      "duration": 0.1451,
      "velocity": 84,
      "chip": "ym2612"
    },
    {
      "channel": 4,
      "note": 73,
      "start": 6.2949,
      "duration": 0.1438,
      "velocity": 84,
      "chip": "ym2612"
    },
    {
      "channel": 2,
      "note": 35,
      "start": 6.2975,
      "duration": 0.1101,
      "velocity": 109,
      "chip": "ym2612"
    },
    {
      "channel": 2,
      "note": 105,
      "start": 6.4129,
      "duration": 0.1182,
      "velocity": 127,
      "chip": "ym2612"
    },
    {
      "channel": 5,
      "note": 23,
      "start": 6.5321,
      "duration": 0.1184,
      "velocity": 120,
      "chip": "ym2612"
    },
    {
      "channel": 0,
      "note": 45,
      "start": 6.6522,
      "duration": 0.0889,
      "velocity": 105,
      "chip": "ym2612"
    },
    {
      "channel": 1,
      "note": 69,
      "start": 6.6537,
      "duration": 0.065,
      "velocity": 84,
      "chip": "ym2612"
    },
    {
      "channel": 4,
      "note": 73,
      "start": 6.6552,
      "duration": 0.0637,
      "velocity": 84,
      "chip": "ym2612"
    },
    {
      "channel": 5,
      "note": 46,
      "start": 6.6573,
      "duration": 0.1144,
      "velocity": 120,
      "chip": "ym2612"
    },
    {
      "channel": 5,
      "note": 46,
      "start": 6.7898,
      "duration": 0.1254,
      "velocity": 120,
      "chip": "ym2612"
    },
    {
      "channel": 0,
      "note": 45,
      "start": 6.9095,
      "duration": 0.0832,
      "velocity": 105,
      "chip": "ym2612"
    },
    {
      "channel": 1,
      "note": 69,
      "start": 6.911,
      "duration": 0.0594,
      "velocity": 84,
      "chip": "ym2612"
    },
    {
      "channel": 4,
      "note": 73,
      "start": 6.9125,
      "duration": 0.058,
      "velocity": 84,
      "chip": "ym2612"
    },
    {
      "channel": 2,
      "note": 35,
      "start": 6.9142,
      "duration": 0.0564,
      "velocity": 127,
      "chip": "ym2612"
    },
    {
      "channel": 0,
      "note": 45,
      "start": 7.0307,
      "duration": 0.1907,
      "velocity": 105,
      "chip": "ym2612"
    },
    {
      "channel": 1,
      "note": 69,
      "start": 7.0322,
      "duration": 0.144,
      "velocity": 84,
      "chip": "ym2612"
    },
    {
      "channel": 4,
      "note": 73,
      "start": 7.0337,
      "duration": 0.1427,
      "velocity": 84,
      "chip": "ym2612"
    },
    {
      "channel": 2,
      "note": 28,
      "start": 7.0352,
      "duration": 0.0562,
      "velocity": 127,
      "chip": "ym2612"
    },
    {
      "channel": 5,
      "note": 40,
      "start": 7.0367,
      "duration": 0.1085,
      "velocity": 120,
      "chip": "ym2612"
    },
    {
      "channel": 5,
      "note": 24,
      "start": 7.151,
      "duration": 0.2383,
      "velocity": 82,
      "chip": "ym2612"
    },
    {
      "channel": 5,
      "note": 35,
      "start": 7.4073,
      "duration": 0.1171,
      "velocity": 82,
      "chip": "ym2612"
    },
    {
      "channel": 0,
      "note": 45,
      "start": 7.526,
      "duration": 0.0556,
      "velocity": 105,
      "chip": "ym2612"
    },
    {
      "channel": 3,
      "note": 69,
      "start": 7.5286,
      "duration": 0.3623,
      "velocity": 91,
      "chip": "ym2612"
    },
    {
      "channel": 5,
      "note": 35,
      "start": 7.5321,
      "duration": 0.2311,
      "velocity": 82,
      "chip": "ym2612"
    },
    {
      "channel": 0,
      "note": 51,
      "start": 7.5939,
      "duration": 0.4268,
      "velocity": 105,
      "chip": "ym2612"
    },
    {
      "channel": 5,
      "note": 35,
      "start": 7.7679,
      "duration": 0.2394,
      "velocity": 82,
      "chip": "ym2612"
    },
    {
      "channel": 0,
      "note": 52,
      "start": 8.0284,
      "duration": 0.4052,
      "velocity": 105,
      "chip": "ym2612"
    },
    {
      "channel": 3,
      "note": 76,
      "start": 8.0301,
      "duration": 0.2532,
      "velocity": 91,
      "chip": "ym2612"
    },
    {
      "channel": 1,
      "note": 69,
      "start": 8.0318,
      "duration": 0.1511,
      "velocity": 84,
      "chip": "ym2612"
    },
    {
      "channel": 4,
      "note": 73,
      "start": 8.0333,
      "duration": 0.1498,
      "velocity": 84,
      "chip": "ym2612"
    },
    {
      "channel": 2,
      "note": 28,
      "start": 8.0358,
      "duration": 0.1161,
      "velocity": 109,
      "chip": "ym2612"
    },
    {
      "channel": 5,
      "note": 28,
      "start": 8.0386,
      "duration": 0.1197,
      "velocity": 120,
      "chip": "ym2612"
    },
    {
      "channel": 2,
      "note": 105,
      "start": 8.1574,
      "duration": 0.1168,
      "velocity": 127,
      "chip": "ym2612"
    },
    {
      "channel": 1,
      "note": 69,
      "start": 8.2768,
      "duration": 0.1466,
      "velocity": 84,
      "chip": "ym2612"
    },
    {
      "channel": 4,
      "note": 73,
      "start": 8.2783,
      "duration": 0.1452,
      "velocity": 84,
      "chip": "ym2612"
    },
    {
      "channel": 2,
      "note": 35,
      "start": 8.2808,
      "duration": 0.1122,
      "velocity": 109,
      "chip": "ym2612"
    },
    {
      "channel": 3,
      "note": 81,
      "start": 8.3952,
      "duration": 0.119,
      "velocity": 91,
      "chip": "ym2612"
    },
    {
      "channel": 2,
      "note": 105,
      "start": 8.3991,
      "duration": 0.1163,
      "velocity": 127,
      "chip": "ym2612"
    },
    {
      "channel": 0,
      "note": 45,
      "start": 8.5349,
      "duration": 0.402,
      "velocity": 105,
      "chip": "ym2612"
    },
    {
      "channel": 1,
      "note": 69,
      "start": 8.5372,
      "duration": 0.0632,
      "velocity": 84,
      "chip": "ym2612"
    },
    {
      "channel": 4,
      "note": 73,
      "start": 8.5389,
      "duration": 0.0616,
      "velocity": 84,
      "chip": "ym2612"
    },
    {
      "channel": 2,
      "note": 35,
      "start": 8.5404,
      "duration": 0.1166,
      "velocity": 127,
      "chip": "ym2612"
    },
    {
      "channel": 5,
      "note": 23,
      "start": 8.5427,
      "duration": 0.1218,
      "velocity": 120,
      "chip": "ym2612"
    },
    {
      "channel": 1,
      "note": 68,
      "start": 8.6595,
      "duration": 0.0612,
      "velocity": 84,
      "chip": "ym2612"
    },
    {
      "channel": 4,
      "note": 73,
      "start": 8.6611,
      "duration": 0.0599,
      "velocity": 84,
      "chip": "ym2612"
    },
    {
      "channel": 2,
      "note": 35,
      "start": 8.6636,
      "duration": 0.1115,
      "velocity": 109,
      "chip": "ym2612"
    },
    {
      "channel": 2,
      "note": 93,
      "start": 8.7796,
      "duration": 0.1177,
      "velocity": 109,
      "chip": "ym2612"
    },
    {
      "channel": 1,
      "note": 68,
      "start": 8.8999,
      "duration": 0.0608,
      "velocity": 84,
      "chip": "ym2612"
    },
    {
      "channel": 4,
      "note": 73,
      "start": 8.9016,
      "duration": 0.0593,
      "velocity": 84,
      "chip": "ym2612"
    },
    {
      "channel": 2,
      "note": 93,
      "start": 8.9042,
      "duration": 0.0569,
      "velocity": 127,
      "chip": "ym2612"
    },
    {
      "channel": 0,
      "note": 40,
      "start": 9.0359,
      "duration": 0.3927,
      "velocity": 105,
      "chip": "ym2612"
    },
    {
      "channel": 2,
      "note": 28,
      "start": 9.0391,
      "duration": 0.0599,
      "velocity": 127,
      "chip": "ym2612"
    },
    {
      "channel": 5,
      "note": 35,
      "start": 9.0415,
      "duration": 0.1207,
      "velocity": 120,
      "chip": "ym2612"
    },
    {
      "channel": 1,
      "note": 66,
      "start": 9.1573,
      "duration": 0.0607,
      "velocity": 84,
      "chip": "ym2612"
    },
    {
      "channel": 4,
      "note": 73,
      "start": 9.1588,
      "duration": 0.0593,
      "velocity": 84,
      "chip": "ym2612"
    },
    {
      "channel": 2,
      "note": 28,
      "start": 9.1612,
      "duration": 0.2337,
      "velocity": 109,
      "chip": "ym2612"
    },
    {
      "channel": 3,
      "note": 81,
      "start": 9.2755,
      "duration": 0.1207,
      "velocity": 91,
      "chip": "ym2612"
    },
    {
      "channel": 1,
      "note": 66,
      "start": 9.3972,
      "duration": 0.061,
      "velocity": 84,
      "chip": "ym2612"
    },
    {
      "channel": 4,
      "note": 73,
      "start": 9.3989,
      "duration": 0.0595,
      "velocity": 84,
      "chip": "ym2612"
    },
    {
      "channel": 2,
      "note": 105,
      "start": 9.4004,
      "duration": 0.1171,
      "velocity": 109,
      "chip": "ym2612"
    },
    {
      "channel": 0,
      "note": 45,
      "start": 9.5191,
      "duration": 0.3955,
      "velocity": 105,
      "chip": "ym2612"
    },
    {
      "channel": 3,
      "note": 76,
      "start": 9.5208,
      "duration": 0.1198,
      "velocity": 91,
      "chip": "ym2612"
    },
    {
      "channel": 1,
      "note": 68,
      "start": 9.5225,
      "duration": 0.1473,
      "velocity": 84,
      "chip": "ym2612"
    },
    {
      "channel": 4,
      "note": 73,
      "start": 9.524,
      "duration": 0.1459,
      "velocity": 84,
      "chip": "ym2612"
    },
    {
      "channel": 2,
      "note": 105,
      "start": 9.5256,
      "duration": 0.2366,
      "velocity": 109,
      "chip": "ym2612"
    },
    {
      "channel": 5,
      "note": 23,
      "start": 9.5282,
      "duration": 0.2343,
      "velocity": 120,
      "chip": "ym2612"
    },
    {
      "channel": 3,
      "note": 81,
      "start": 9.7808,
      "duration": 0.1171,
      "velocity": 91,
      "chip": "ym2612"
    },
    {
      "channel": 1,
      "note": 68,
      "start": 9.7826,
      "duration": 0.1445,
      "velocity": 84,
      "chip": "ym2612"
    },
    {
      "channel": 4,
      "note": 73,
      "start": 9.7843,
      "duration": 0.1429,
      "velocity": 84,
      "chip": "ym2612"
    },
    {
      "channel": 2,
      "note": 93,
      "start": 9.7868,
      "duration": 0.0555,
      "velocity": 127,
      "chip": "ym2612"
    },
    {
      "channel": 2,
      "note": 28,
      "start": 9.9,
      "duration": 0.0624,
      "velocity": 127,
      "chip": "ym2612"
    },
    {
      "channel": 0,
      "note": 40,
      "start": 10.0232,
      "duration": 0.406,
      "velocity": 105,
      "chip": "ym2612"
    },
    {
      "channel": 3,
      "note": 83,
      "start": 10.0249,
      "duration": 0.2448,
      "velocity": 91,
      "chip": "ym2612"
    },
    {
      "channel": 1,
      "note": 64,
      "start": 10.0266,
      "duration": 0.152,
      "velocity": 84,
      "chip": "ym2612"
    },
    {
      "channel": 4,
      "note": 73,
      "start": 10.0283,
      "duration": 0.1505,
      "velocity": 84,
      "chip": "ym2612"
    },
    {
      "channel": 2,
      "note": 28,
      "start": 10.0308,
      "duration": 0.1168,
      "velocity": 109,
      "chip": "ym2612"
    },
    {
      "channel": 5,
      "note": 35,
      "start": 10.0334,
      "duration": 0.1205,
      "velocity": 120,
      "chip": "ym2612"
    },
    {
      "channel": 2,
      "note": 105,
      "start": 10.1531,
      "duration": 0.1178,
      "velocity": 127,
      "chip": "ym2612"
    },
    {
      "channel": 3,
      "note": 85,
      "start": 10.2899,
      "duration": 0.1149,
      "velocity": 91,
      "chip": "ym2612"
    },
    {
      "channel": 1,
      "note": 69,
      "start": 10.2917,
      "duration": 0.1445,
      "velocity": 84,
      "chip": "ym2612"
    },
    {
      "channel": 4,
      "note": 73,
      "start": 10.2931,
      "duration": 0.1432,
      "velocity": 84,
      "chip": "ym2612"
    },
    {
      "channel": 2,
      "note": 35,
      "start": 10.2957,
      "duration": 0.1102,
      "velocity": 109,
      "chip": "ym2612"
    },
    {
      "channel": 3,
      "note": 86,
      "start": 10.408,
      "duration": 0.1232,
      "velocity": 91,
      "chip": "ym2612"
    },
    {
      "channel": 2,
      "note": 105,
      "start": 10.4119,
      "duration": 0.1168,
      "velocity": 127,
      "chip": "ym2612"
    },
    {
      "channel": 0,
      "note": 45,
      "start": 10.5304,
      "duration": 0.402,
      "velocity": 105,
      "chip": "ym2612"
    },
    {
      "channel": 1,
      "note": 69,
      "start": 10.5322,
      "duration": 0.0639,
      "velocity": 84,
      "chip": "ym2612"
    },
    {
      "channel": 4,
      "note": 73,
      "start": 10.5339,
      "duration": 0.0623,
      "velocity": 84,
      "chip": "ym2612"
    },
    {
      "channel": 2,
      "note": 35,
      "start": 10.5354,
      "duration": 0.118,
      "velocity": 127,
      "chip": "ym2612"
    },
    {
      "channel": 5,
      "note": 23,
      "start": 10.5378,
      "duration": 0.1245,
      "velocity": 120,
      "chip": "ym2612"
    },
    {
      "channel": 3,
      "note": 85,
      "start": 10.6555,
      "duration": 0.1151,
      "velocity": 91,
      "chip": "ym2612"
    },
    {
      "channel": 1,
      "note": 68,
      "start": 10.6573,
      "duration": 0.0588,
      "velocity": 84,
      "chip": "ym2612"
    },
    {
      "channel": 4,
      "note": 73,
      "start": 10.6588,
      "duration": 0.0576,
      "velocity": 84,
      "chip": "ym2612"
    },
    {
      "channel": 2,
      "note": 35,
      "start": 10.6613,
      "duration": 0.1104,
      "velocity": 109,
      "chip": "ym2612"
    },
    {
      "channel": 3,
      "note": 85,
      "start": 10.7739,
      "duration": 0.1191,
      "velocity": 91,
      "chip": "ym2612"
    },
    {
      "channel": 2,
      "note": 93,
      "start": 10.7766,
      "duration": 0.1176,
      "velocity": 109,
      "chip": "ym2612"
    },
    {
      "channel": 1,
      "note": 68,
      "start": 10.9129,
      "duration": 0.0606,
      "velocity": 84,
      "chip": "ym2612"
    },
    {
      "channel": 4,
      "note": 73,
      "start": 10.9145,
      "duration": 0.0591,
      "velocity": 84,
      "chip": "ym2612"
    },
    {
      "channel": 2,
      "note": 93,
      "start": 10.9171,
      "duration": 0.0567,
      "velocity": 127,
      "chip": "ym2612"
    },
    {
      "channel": 0,
      "note": 40,
      "start": 11.0326,
      "duration": 0.3974,
      "velocity": 105,
      "chip": "ym2612"
    },
    {
      "channel": 3,
      "note": 83,
      "start": 11.0342,
      "duration": 0.1175,
      "velocity": 91,
      "chip": "ym2612"
    },
    {
      "channel": 2,
      "note": 28,
      "start": 11.037,
      "duration": 0.0577,
      "velocity": 127,
      "chip": "ym2612"
    },
    {
      "channel": 5,
      "note": 35,
      "start": 11.0393,
      "duration": 0.1183,
      "velocity": 120,
      "chip": "ym2612"
    },
    {
      "channel": 1,
      "note": 66,
      "start": 11.1527,
      "duration": 0.061,
      "velocity": 84,
      "chip": "ym2612"
    },
    {
      "channel": 4,
      "note": 73,
      "start": 11.1542,
      "duration": 0.0596,
      "velocity": 84,
      "chip": "ym2612"
    },
    {
      "channel": 2,
      "note": 28,
      "start": 11.1567,
      "duration": 0.2349,
      "velocity": 109,
      "chip": "ym2612"
    },
    {
      "channel": 3,
      "note": 83,
      "start": 11.2712,
      "duration": 0.1192,
      "velocity": 91,
      "chip": "ym2612"
    },
    {
      "channel": 3,
      "note": 83,
      "start": 11.4107,
      "duration": 0.1214,
      "velocity": 91,
      "chip": "ym2612"
    },
    {
      "channel": 1,
      "note": 66,
      "start": 11.4124,
      "duration": 0.0586,
      "velocity": 84,
      "chip": "ym2612"
    },
    {
      "channel": 4,
      "note": 73,
      "start": 11.4141,
      "duration": 0.0571,
      "velocity": 84,
      "chip": "ym2612"
    },
    {
      "channel": 2,
      "note": 105,
      "start": 11.4156,
      "duration": 0.114,
      "velocity": 109,
      "chip": "ym2612"
    },
    {
      "channel": 0,
      "note": 45,
      "start": 11.5312,
      "duration": 0.0511,
      "velocity": 105,
      "chip": "ym2612"
    },
    {
      "channel": 1,
      "note": 68,
      "start": 11.5331,
      "duration": 0.1497,
      "velocity": 84,
      "chip": "ym2612"
    },
    {
      "channel": 4,
      "note": 73,
      "start": 11.5345,
      "duration": 0.1483,
      "velocity": 84,
      "chip": "ym2612"
    },
    {
      "channel": 2,
      "note": 105,
      "start": 11.5361,
      "duration": 0.2363,
      "velocity": 109,
      "chip": "ym2612"
    },
    {
      "channel": 5,
      "note": 23,
      "start": 11.5387,
      "duration": 0.2406,
      "velocity": 120,
      "chip": "ym2612"
    },
    {
      "channel": 0,
      "note": 51,
      "start": 11.5852,
      "duration": 0.428,
      "velocity": 105,
      "chip": "ym2612"
    },
    {
      "channel": 3,
      "note": 81,
      "start": 11.6543,
      "duration": 0.1171,
      "velocity": 91,
      "chip": "ym2612"
    },
    {
      "channel": 3,
      "note": 81,
      "start": 11.7746,
      "duration": 0.2387,
      "velocity": 91,
      "chip": "ym2612"
    },
    {
      "channel": 2,
      "note": 93,
      "start": 11.7784,
      "duration": 0.0595,
      "velocity": 127,
      "chip": "ym2612"
    },
    {
      "channel": 2,
      "note": 28,
      "start": 11.896,
      "duration": 0.062,
      "velocity": 127,
      "chip": "ym2612"
    },
    {
      "channel": 0,
      "note": 52,
      "start": 12.0361,
      "duration": 0.4003,
      "velocity": 105,
      "chip": "ym2612"
    },
    {
      "channel": 3,
      "note": 80,
      "start": 12.0377,
      "duration": 0.7457,
      "velocity": 91,
      "chip": "ym2612"
    },
    {
      "channel": 1,
      "note": 68,
      "start": 12.0394,
      "duration": 0.152,
      "velocity": 84,
      "chip": "ym2612"
    },
    {
      "channel": 4,
      "note": 73,
      "start": 12.0412,
      "duration": 0.1505,
      "velocity": 84,
      "chip": "ym2612"
    },
    {
      "channel": 2,
      "note": 28,
      "start": 12.0438,
      "duration": 0.1165,
      "velocity": 109,
      "chip": "ym2612"
    },
    {
      "channel": 5,
      "note": 35,
      "start": 12.0465,
      "duration": 0.1202,
      "velocity": 120,
      "chip": "ym2612"
    },
    {
      "channel": 2,
      "note": 105,
      "start": 12.1658,
      "duration": 0.1166,
      "velocity": 127,
      "chip": "ym2612"
    },
    {
      "channel": 1,
      "note": 71,
      "start": 12.285,
      "duration": 0.1466,
      "velocity": 84,
      "chip": "ym2612"
    },
    {
      "channel": 4,
      "note": 74,
      "start": 12.2865,
      "duration": 0.1452,
      "velocity": 84,
      "chip": "ym2612"
    },
    {
      "channel": 2,
      "note": 35,
      "start": 12.289,
      "duration": 0.1115,
      "velocity": 109,
      "chip": "ym2612"
    },
    {
      "channel": 2,
      "note": 105,
      "start": 12.406,
      "duration": 0.1183,
      "velocity": 127,
      "chip": "ym2612"
    },
    {
      "channel": 0,
      "note": 47,
      "start": 12.526,
      "duration": 0.4021,
      "velocity": 105,
      "chip": "ym2612"
    },
    {
      "channel": 1,
      "note": 71,
      "start": 12.5281,
      "duration": 0.0636,
      "velocity": 84,
      "chip": "ym2612"
    },
    {
      "channel": 4,
      "note": 74,
      "start": 12.5298,
      "duration": 0.0621,
      "velocity": 84,
      "chip": "ym2612"
    },
    {
      "channel": 2,
      "note": 35,
      "start": 12.5313,
      "duration": 0.1186,
      "velocity": 127,
      "chip": "ym2612"
    },
    {
      "channel": 5,
      "note": 23,
      "start": 12.5337,
      "duration": 0.1165,
      "velocity": 120,
      "chip": "ym2612"
    },
    {
      "channel": 1,
      "note": 69,
      "start": 12.6679,
      "duration": 0.0612,
      "velocity": 84,
      "chip": "ym2612"
    },
    {
      "channel": 4,
      "note": 74,
      "start": 12.6695,
      "duration": 0.0599,
      "velocity": 84,
      "chip": "ym2612"
    },
    {
      "channel": 2,
      "note": 35,
      "start": 12.672,
      "duration": 0.1125,
      "velocity": 109,
      "chip": "ym2612"
    },
    {
      "channel": 3,
      "note": 78,
      "start": 12.7867,
      "duration": 0.2379,
      "velocity": 91,
      "chip": "ym2612"
    },
    {
      "channel": 2,
      "note": 93,
      "start": 12.7894,
      "duration": 0.116,
      "velocity": 109,
      "chip": "ym2612"
    },
    {
      "channel": 1,
      "note": 69,
      "start": 12.9081,
      "duration": 0.0609,
      "velocity": 84,
      "chip": "ym2612"
    },
    {
      "channel": 4,
      "note": 74,
      "start": 12.9099,
      "duration": 0.0593,
      "velocity": 84,
      "chip": "ym2612"
    },
    {
      "channel": 2,
      "note": 93,
      "start": 12.9124,
      "duration": 0.057,
      "velocity": 127,
      "chip": "ym2612"
    },
    {
      "channel": 0,
      "note": 42,
      "start": 13.0282,
      "duration": 0.3973,
      "velocity": 105,
      "chip": "ym2612"
    },
    {
      "channel": 3,
      "note": 85,
      "start": 13.0299,
      "duration": 0.7393,
      "velocity": 91,
      "chip": "ym2612"
    },
    {
      "channel": 2,
      "note": 28,
      "start": 13.0326,
      "duration": 0.0576,
      "velocity": 127,
      "chip": "ym2612"
    },
    {
      "channel": 5,
      "note": 35,
      "start": 13.035,
      "duration": 0.1185,
      "velocity": 120,
      "chip": "ym2612"
    },
    {
      "channel": 1,
      "note": 68,
      "start": 13.1485,
      "duration": 0.0607,
      "velocity": 84,
      "chip": "ym2612"
    },
    {
      "channel": 4,
      "note": 74,
      "start": 13.1501,
      "duration": 0.0593,
      "velocity": 84,
      "chip": "ym2612"
    },
    {
      "channel": 2,
      "note": 28,
      "start": 13.1525,
      "duration": 0.2407,
      "velocity": 109,
      "chip": "ym2612"
    },
    {
      "channel": 1,
      "note": 68,
      "start": 13.406,
      "duration": 0.0607,
      "velocity": 84,
      "chip": "ym2612"
    },
    {
      "channel": 4,
      "note": 74,
      "start": 13.4076,
      "duration": 0.0592,
      "velocity": 84,
      "chip": "ym2612"
    },
    {
      "channel": 2,
      "note": 105,
      "start": 13.4092,
      "duration": 0.1158,
      "velocity": 109,
      "chip": "ym2612"
    },
    {
      "channel": 0,
      "note": 47,
      "start": 13.5266,
      "duration": 0.3964,
      "velocity": 105,
      "chip": "ym2612"
    },
    {
      "channel": 1,
      "note": 69,
      "start": 13.5288,
      "duration": 0.1494,
      "velocity": 84,
      "chip": "ym2612"
    },
    {
      "channel": 4,
      "note": 74,
      "start": 13.5303,
      "duration": 0.148,
      "velocity": 84,
      "chip": "ym2612"
    },
    {
      "channel": 2,
      "note": 105,
      "start": 13.5319,
      "duration": 0.2385,
      "velocity": 109,
      "chip": "ym2612"
    },
    {
      "channel": 5,
      "note": 23,
      "start": 13.5345,
      "duration": 0.236,
      "velocity": 120,
      "chip": "ym2612"
    },
    {
      "channel": 3,
      "note": 83,
      "start": 13.7893,
      "duration": 0.2382,
      "velocity": 91,
      "chip": "ym2612"
    },
    {
      "channel": 1,
      "note": 69,
      "start": 13.791,
      "duration": 0.1444,
      "velocity": 84,
      "chip": "ym2612"
    },
    {
      "channel": 4,
      "note": 74,
      "start": 13.7927,
      "duration": 0.1429,
      "velocity": 84,
      "chip": "ym2612"
    },
    {
      "channel": 2,
      "note": 93,
      "start": 13.7952,
      "duration": 0.0556,
      "velocity": 127,
      "chip": "ym2612"
    },
    {
      "channel": 2,
      "note": 28,
      "start": 13.9088,
      "duration": 0.062,
      "velocity": 127,
      "chip": "ym2612"
    },
    {
      "channel": 0,
      "note": 42,
      "start": 14.0314,
      "duration": 0.3949,
      "velocity": 105,
      "chip": "ym2612"
    },
    {
      "channel": 3,
      "note": 81,
      "start": 14.033,
      "duration": 0.2393,
      "velocity": 91,
      "chip": "ym2612"
    },
    {
      "channel": 1,
      "note": 66,
      "start": 14.0347,
      "duration": 0.1466,
      "velocity": 84,
      "chip": "ym2612"
    },
    {
      "channel": 4,
      "note": 74,
      "start": 14.0364,
      "duration": 0.1451,
      "velocity": 84,
      "chip": "ym2612"
    },
    {
      "channel": 2,
      "note": 28,
      "start": 14.0389,
      "duration": 0.1113,
      "velocity": 109,
      "chip": "ym2612"
    },
    {
      "channel": 5,
      "note": 35,
      "start": 14.0416,
      "duration": 0.115,
      "velocity": 120,
      "chip": "ym2612"
    },
    {
      "channel": 2,
      "note": 105,
      "start": 14.1557,
      "duration": 0.1176,
      "velocity": 127,
      "chip": "ym2612"
    },
    {
      "channel": 3,
      "note": 80,
      "start": 14.2754,
      "duration": 0.117,
      "velocity": 91,
      "chip": "ym2612"
    },
    {
      "channel": 1,
      "note": 71,
      "start": 14.2772,
      "duration": 0.1443,
      "velocity": 84,
      "chip": "ym2612"
    },
    {
      "channel": 4,
      "note": 74,
      "start": 14.2787,
      "duration": 0.143,
      "velocity": 84,
      "chip": "ym2612"
    },
    {
      "channel": 2,
      "note": 35,
      "start": 14.2812,
      "duration": 0.1124,
      "velocity": 109,
      "chip": "ym2612"
    },
    {
      "channel": 3,
      "note": 81,
      "start": 14.4107,
      "duration": 0.1224,
      "velocity": 91,
      "chip": "ym2612"
    },
    {
      "channel": 2,
      "note": 105,
      "start": 14.4145,
      "duration": 0.122,
      "velocity": 127,
      "chip": "ym2612"
    },
    {
      "channel": 0,
      "note": 40,
      "start": 14.5322,
      "duration": 0.3972,
      "velocity": 105,
      "chip": "ym2612"
    },
    {
      "channel": 1,
      "note": 71,
      "start": 14.5341,
      "duration": 0.059,
      "velocity": 84,
      "chip": "ym2612"
    },
    {
      "channel": 4,
      "note": 74,
      "start": 14.5357,
      "duration": 0.0575,
      "velocity": 84,
      "chip": "ym2612"
    },
    {
      "channel": 5,
      "note": 23,
      "start": 14.5374,
      "duration": 0.1132,
      "velocity": 120,
      "chip": "ym2612"
    },
    {
      "channel": 3,
      "note": 80,
      "start": 14.6528,
      "duration": 0.115,
      "velocity": 91,
      "chip": "ym2612"
    },
    {
      "channel": 1,
      "note": 69,
      "start": 14.6545,
      "duration": 0.0587,
      "velocity": 84,
      "chip": "ym2612"
    },
    {
      "channel": 4,
      "note": 74,
      "start": 14.656,
      "duration": 0.0573,
      "velocity": 84,
      "chip": "ym2612"
    },
    {
      "channel": 5,
      "note": 46,
      "start": 14.658,
      "duration": 0.1109,
      "velocity": 120,
      "chip": "ym2612"
    },
    {
      "channel": 3,
      "note": 80,
      "start": 14.771,
      "duration": 0.2447,
      "velocity": 91,
      "chip": "ym2612"
    },
    {
      "channel": 5,
      "note": 46,
      "start": 14.7744,
      "duration": 0.1225,
      "velocity": 120,
      "chip": "ym2612"
    },
    {
      "channel": 1,
      "note": 69,
      "start": 14.8925,
      "duration": 0.0607,
      "velocity": 84,
      "chip": "ym2612"
    },
    {
      "channel": 4,
      "note": 74,
      "start": 14.8942,
      "duration": 0.0592,
      "velocity": 84,
      "chip": "ym2612"
    },
    {
      "channel": 2,
      "note": 35,
      "start": 14.8959,
      "duration": 0.0576,
      "velocity": 127,
      "chip": "ym2612"
    },
    {
      "channel": 0,
      "note": 47,
      "start": 15.0298,
      "duration": 0.1913,
      "velocity": 105,
      "chip": "ym2612"
    },
    {
      "channel": 3,
      "note": 78,
      "start": 15.0314,
      "duration": 0.2416,
      "velocity": 91,
      "chip": "ym2612"
    },
    {
      "channel": 2,
      "note": 28,
      "start": 15.0341,
      "duration": 0.0575,
      "velocity": 127,
      "chip": "ym2612"
    },
    {
      "channel": 5,
      "note": 40,
      "start": 15.0357,
      "duration": 0.1115,
      "velocity": 120,
      "chip": "ym2612"
    },
    {
      "channel": 1,
      "note": 68,
      "start": 15.1499,
      "duration": 0.0607,
      "velocity": 84,
      "chip": "ym2612"
    },
    {
      "channel": 4,
      "note": 74,
      "start": 15.1514,
      "duration": 0.0593,
      "velocity": 84,
      "chip": "ym2612"
    },
    {
      "channel": 5,
      "note": 24,
      "start": 15.1544,
      "duration": 0.233,
      "velocity": 82,
      "chip": "ym2612"
    },
    {
      "channel": 0,
      "note": 52,
      "start": 15.2677,
      "duration": 0.1936,
      "velocity": 105,
      "chip": "ym2612"
    },
    {
      "channel": 1,
      "note": 68,
      "start": 15.3901,
      "duration": 0.0893,
      "velocity": 84,
      "chip": "ym2612"
    },
    {
      "channel": 4,
      "note": 74,
      "start": 15.3916,
      "duration": 0.0879,
      "velocity": 84,
      "chip": "ym2612"
    },
    {
      "channel": 5,
      "note": 35,
      "start": 15.3936,
      "duration": 0.1158,
      "velocity": 82,
      "chip": "ym2612"
    },
    {
      "channel": 0,
      "note": 52,
      "start": 15.5111,
      "duration": 0.1961,
      "velocity": 105,
      "chip": "ym2612"
    },
    {
      "channel": 3,
      "note": 76,
      "start": 15.5127,
      "duration": 0.3664,
      "velocity": 91,
      "chip": "ym2612"
    },
    {
      "channel": 1,
      "note": 68,
      "start": 15.5145,
      "duration": 0.3994,
      "velocity": 84,
      "chip": "ym2612"
    },
    {
      "channel": 4,
      "note": 74,
      "start": 15.5161,
      "duration": 0.398,
      "velocity": 84,
      "chip": "ym2612"
    },
    {
      "channel": 5,
      "note": 35,
      "start": 15.5182,
      "duration": 0.2429,
      "velocity": 82,
      "chip": "ym2612"
    },
    {
      "channel": 0,
      "note": 50,
      "start": 15.771,
      "duration": 0.1934,
      "velocity": 105,
      "chip": "ym2612"
    },
    {
      "channel": 5,
      "note": 35,
      "start": 15.7748,
      "duration": 0.239,
      "velocity": 82,
      "chip": "ym2612"
    },
    {
      "channel": 0,
      "note": 47,
      "start": 16.0163,
      "duration": 0.3998,
      "velocity": 105,
      "chip": "ym2612"
    },
    {
      "channel": 3,
      "note": 76,
      "start": 16.018,
      "duration": 0.2443,
      "velocity": 91,
      "chip": "ym2612"
    },
    {
      "channel": 1,
      "note": 69,
      "start": 16.0197,
      "duration": 0.1515,
      "velocity": 84,
      "chip": "ym2612"
    },
    {
      "channel": 4,
      "note": 74,
      "start": 16.0214,
      "duration": 0.15,
      "velocity": 84,
      "chip": "ym2612"
    },
    {
      "channel": 2,
      "note": 28,
      "start": 16.0239,
      "duration": 0.1198,
      "velocity": 109,
      "chip": "ym2612"
    },
    {
      "channel": 5,
      "note": 28,
      "start": 16.0267,
      "duration": 0.1172,
      "velocity": 120,
      "chip": "ym2612"
    },
    {
      "channel": 2,
      "note": 105,
      "start": 16.1627,
      "duration": 0.1168,
      "velocity": 127,
      "chip": "ym2612"
    },
    {
      "channel": 1,
      "note": 66,
      "start": 16.2822,
      "duration": 0.1466,
      "velocity": 84,
      "chip": "ym2612"
    },
    {
      "channel": 4,
      "note": 74,
      "start": 16.2837,
      "duration": 0.1452,
      "velocity": 84,
      "chip": "ym2612"
    },
    {
      "channel": 2,
      "note": 35,
      "start": 16.2863,
      "duration": 0.1122,
      "velocity": 109,
      "chip": "ym2612"
    },
    {
      "channel": 3,
      "note": 83,
      "start": 16.4006,
      "duration": 0.1233,
      "velocity": 91,
      "chip": "ym2612"
    },
    {
      "channel": 2,
      "note": 105,
      "start": 16.4045,
      "duration": 0.1168,
      "velocity": 127,
      "chip": "ym2612"
    },
    {
      "channel": 0,
      "note": 38,
      "start": 16.5231,
      "duration": 0.3963,
      "velocity": 105,
      "chip": "ym2612"
    },
    {
      "channel": 1,
      "note": 66,
      "start": 16.5249,
      "duration": 0.0639,
      "velocity": 84,
      "chip": "ym2612"
    },
    {
      "channel": 4,
      "note": 74,
      "start": 16.5266,
      "duration": 0.0623,
      "velocity": 84,
      "chip": "ym2612"
    },
    {
      "channel": 2,
      "note": 35,
      "start": 16.5283,
      "duration": 0.1168,
      "velocity": 127,
      "chip": "ym2612"
    },
    {
      "channel": 5,
      "note": 23,
      "start": 16.5307,
      "duration": 0.1221,
      "velocity": 120,
      "chip": "ym2612"
    },
    {
      "channel": 1,
      "note": 73,
      "start": 16.6478,
      "duration": 0.0609,
      "velocity": 84,
      "chip": "ym2612"
    },
    {
      "channel": 4,
      "note": 66,
      "start": 16.6493,
      "duration": 0.0596,
      "velocity": 84,
      "chip": "ym2612"
    },
    {
      "channel": 2,
      "note": 35,
      "start": 16.6518,
      "duration": 0.1151,
      "velocity": 109,
      "chip": "ym2612"
    },
    {
      "channel": 2,
      "note": 93,
      "start": 16.785,
      "duration": 0.1177,
      "velocity": 109,
      "chip": "ym2612"
    },
    {
      "channel": 1,
      "note": 73,
      "start": 16.9053,
      "duration": 0.0608,
      "velocity": 84,
      "chip": "ym2612"
    },
    {
      "channel": 4,
      "note": 66,
      "start": 16.9069,
      "duration": 0.0593,
      "velocity": 84,
      "chip": "ym2612"
    },
    {
      "channel": 2,
      "note": 93,
      "start": 16.9095,
      "duration": 0.0569,
      "velocity": 127,
      "chip": "ym2612"
    },
    {
      "channel": 0,
      "note": 45,
      "start": 17.0241,
      "duration": 0.3984,
      "velocity": 105,
      "chip": "ym2612"
    },
    {
      "channel": 2,
      "note": 28,
      "start": 17.0273,
      "duration": 0.0598,
      "velocity": 127,
      "chip": "ym2612"
    },
    {
      "channel": 5,
      "note": 35,
      "start": 17.0297,
      "duration": 0.1207,
      "velocity": 120,
      "chip": "ym2612"
    },
    {
      "channel": 1,
      "note": 71,
      "start": 17.1455,
      "duration": 0.0608,
      "velocity": 84,
      "chip": "ym2612"
    },
    {
      "channel": 4,
      "note": 66,
      "start": 17.147,
      "duration": 0.0594,
      "velocity": 84,
      "chip": "ym2612"
    },
    {
      "channel": 2,
      "note": 28,
      "start": 17.1495,
      "duration": 0.2408,
      "velocity": 109,
      "chip": "ym2612"
    },
    {
      "channel": 3,
      "note": 83,
      "start": 17.2637,
      "duration": 0.1193,
      "velocity": 91,
      "chip": "ym2612"
    },
    {
      "channel": 1,
      "note": 71,
      "start": 17.4032,
      "duration": 0.0603,
      "velocity": 84,
      "chip": "ym2612"
    },
    {
      "channel": 4,
      "note": 66,
      "start": 17.4049,
      "duration": 0.0588,
      "velocity": 84,
      "chip": "ym2612"
    },
    {
      "channel": 2,
      "note": 105,
      "start": 17.4064,
      "duration": 0.1165,
      "velocity": 109,
      "chip": "ym2612"
    },
    {
      "channel": 0,
      "note": 38,
      "start": 17.5246,
      "duration": 0.4011,
      "velocity": 105,
      "chip": "ym2612"
    },
    {
      "channel": 3,
      "note": 83,
      "start": 17.5263,
      "duration": 0.1198,
      "velocity": 91,
      "chip": "ym2612"
    },
    {
      "channel": 1,
      "note": 73,
      "start": 17.528,
      "duration": 0.1471,
      "velocity": 84,
      "chip": "ym2612"
    },
    {
      "channel": 4,
      "note": 66,
      "start": 17.5295,
      "duration": 0.1458,
      "velocity": 84,
      "chip": "ym2612"
    },
    {
      "channel": 2,
      "note": 105,
      "start": 17.531,
      "duration": 0.2358,
      "velocity": 109,
      "chip": "ym2612"
    },
    {
      "channel": 5,
      "note": 23,
      "start": 17.5336,
      "duration": 0.2456,
      "velocity": 120,
      "chip": "ym2612"
    },
    {
      "channel": 3,
      "note": 85,
      "start": 17.769,
      "duration": 0.1172,
      "velocity": 91,
      "chip": "ym2612"
    },
    {
      "channel": 1,
      "note": 73,
      "start": 17.7707,
      "duration": 0.1446,
      "velocity": 84,
      "chip": "ym2612"
    },
    {
      "channel": 4,
      "note": 66,
      "start": 17.7724,
      "duration": 0.1431,
      "velocity": 84,
      "chip": "ym2612"
    },
    {
      "channel": 2,
      "note": 93,
      "start": 17.775,
      "duration": 0.0556,
      "velocity": 127,
      "chip": "ym2612"
    },
    {
      "channel": 2,
      "note": 28,
      "start": 17.9059,
      "duration": 0.0618,
      "velocity": 127,
      "chip": "ym2612"
    },
    {
      "channel": 0,
      "note": 45,
      "start": 18.028,
      "duration": 0.1951,
      "velocity": 105,
      "chip": "ym2612"
    },
    {
      "channel": 3,
      "note": 86,
      "start": 18.0295,
      "duration": 0.2398,
      "velocity": 91,
      "chip": "ym2612"
    },
    {
      "channel": 1,
      "note": 69,
      "start": 18.0312,
      "duration": 0.1471,
      "velocity": 84,
      "chip": "ym2612"
    },
    {
      "channel": 4,
      "note": 66,
      "start": 18.0329,
      "duration": 0.1456,
      "velocity": 84,
      "chip": "ym2612"
    },
    {
      "channel": 2,
      "note": 28,
      "start": 18.0356,
      "duration": 0.1117,
      "velocity": 109,
      "chip": "ym2612"
    },
    {
      "channel": 5,
      "note": 35,
      "start": 18.0382,
      "duration": 0.1154,
      "velocity": 120,
      "chip": "ym2612"
    },
    {
      "channel": 2,
      "note": 105,
      "start": 18.1527,
      "duration": 0.1176,
      "velocity": 127,
      "chip": "ym2612"
    },
    {
      "channel": 0,
      "note": 45,
      "start": 18.272,
      "duration": 0.2027,
      "velocity": 105,
      "chip": "ym2612"
    },
    {
      "channel": 3,
      "note": 88,
      "start": 18.2737,
      "duration": 0.1215,
      "velocity": 91,
      "chip": "ym2612"
    },
    {
      "channel": 1,
      "note": 73,
      "start": 18.2754,
      "duration": 0.0631,
      "velocity": 84,
      "chip": "ym2612"
    },
    {
      "channel": 2,
      "note": 35,
      "start": 18.2786,
      "duration": 0.1176,
      "velocity": 109,
      "chip": "ym2612"
    },
    {
      "channel": 3,
      "note": 76,
      "start": 18.3983,
      "duration": 0.2427,
      "velocity": 91,
      "chip": "ym2612"
    },
    {
      "channel": 1,
      "note": 64,
      "start": 18.4001,
      "duration": 0.1505,
      "velocity": 84,
      "chip": "ym2612"
    },
    {
      "channel": 4,
      "note": 76,
      "start": 18.4017,
      "duration": 0.149,
      "velocity": 84,
      "chip": "ym2612"
    },
    {
      "channel": 2,
      "note": 105,
      "start": 18.4045,
      "duration": 0.1179,
      "velocity": 127,
      "chip": "ym2612"
    },
    {
      "channel": 0,
      "note": 57,
      "start": 18.5396,
      "duration": 0.1924,
      "velocity": 105,
      "chip": "ym2612"
    },
    {
      "channel": 2,
      "note": 35,
      "start": 18.5427,
      "duration": 0.1144,
      "velocity": 127,
      "chip": "ym2612"
    },
    {
      "channel": 5,
      "note": 23,
      "start": 18.5451,
      "duration": 0.119,
      "velocity": 120,
      "chip": "ym2612"
    },
    {
      "channel": 3,
      "note": 85,
      "start": 18.6593,
      "duration": 0.1185,
      "velocity": 91,
      "chip": "ym2612"
    },
    {
      "channel": 2,
      "note": 35,
      "start": 18.6631,
      "duration": 0.1158,
      "velocity": 109,
      "chip": "ym2612"
    },
    {
      "channel": 0,
      "note": 45,
      "start": 18.7806,
      "duration": 0.1915,
      "velocity": 105,
      "chip": "ym2612"
    },
    {
      "channel": 3,
      "note": 83,
      "start": 18.7822,
      "duration": 0.1163,
      "velocity": 91,
      "chip": "ym2612"
    },
    {
      "channel": 1,
      "note": 74,
      "start": 18.784,
      "duration": 0.0577,
      "velocity": 84,
      "chip": "ym2612"
    },
    {
      "channel": 2,
      "note": 93,
      "start": 18.7862,
      "duration": 0.1111,
      "velocity": 109,
      "chip": "ym2612"
    },
    {
      "channel": 4,
      "note": 71,
      "start": 18.9001,
      "duration": 0.0622,
      "velocity": 84,
      "chip": "ym2612"
    },
    {
      "channel": 2,
      "note": 93,
      "start": 18.9029,
      "duration": 0.0595,
      "velocity": 127,
      "chip": "ym2612"
    },
    {
      "channel": 0,
      "note": 56,
      "start": 19.0227,
      "duration": 0.1954,
      "velocity": 105,
      "chip": "ym2612"
    },
    {
      "channel": 3,
      "note": 85,
      "start": 19.0244,
      "duration": 0.2456,
      "velocity": 91,
      "chip": "ym2612"
    },
    {
      "channel": 1,
      "note": 64,
      "start": 19.0261,
      "duration": 0.1472,
      "velocity": 84,
      "chip": "ym2612"
    },
    {
      "channel": 4,
      "note": 64,
      "start": 19.0278,
      "duration": 0.1456,
      "velocity": 84,
      "chip": "ym2612"
    },
    {
      "channel": 2,
      "note": 28,
      "start": 19.0295,
      "duration": 0.0591,
      "velocity": 127,
      "chip": "ym2612"
    },
    {
      "channel": 5,
      "note": 35,
      "start": 19.0319,
      "duration": 0.1144,
      "velocity": 120,
      "chip": "ym2612"
    },
    {
      "channel": 2,
      "note": 28,
      "start": 19.1646,
      "duration": 0.238,
      "velocity": 109,
      "chip": "ym2612"
    },
    {
      "channel": 0,
      "note": 45,
      "start": 19.2832,
      "duration": 0.1922,
      "velocity": 105,
      "chip": "ym2612"
    },
    {
      "channel": 3,
      "note": 83,
      "start": 19.2849,
      "duration": 0.1167,
      "velocity": 91,
      "chip": "ym2612"
    },
    {
      "channel": 1,
      "note": 69,
      "start": 19.2866,
      "duration": 0.0582,
      "velocity": 84,
      "chip": "ym2612"
    },
    {
      "channel": 3,
      "note": 76,
      "start": 19.4048,
      "duration": 0.2357,
      "velocity": 91,
      "chip": "ym2612"
    },
    {
      "channel": 1,
      "note": 64,
      "start": 19.4066,
      "duration": 0.1898,
      "velocity": 84,
      "chip": "ym2612"
    },
    {
      "channel": 4,
      "note": 73,
      "start": 19.4082,
      "duration": 0.1883,
      "velocity": 84,
      "chip": "ym2612"
    },
    {
      "channel": 2,
      "note": 105,
      "start": 19.4099,
      "duration": 0.1114,
      "velocity": 109,
      "chip": "ym2612"
    },
    {
      "channel": 0,
      "note": 54,
      "start": 19.523,
      "duration": 0.0896,
      "velocity": 105,
      "chip": "ym2612"
    },
    {
      "channel": 2,
      "note": 105,
      "start": 19.5263,
      "duration": 0.2428,
      "velocity": 109,
      "chip": "ym2612"
    },
    {
      "channel": 5,
      "note": 23,
      "start": 19.5289,
      "duration": 0.2403,
      "velocity": 120,
      "chip": "ym2612"
    },
    {
      "channel": 0,
      "note": 52,
      "start": 19.6423,
      "duration": 0.0904,
      "velocity": 105,
      "chip": "ym2612"
    },
    {
      "channel": 3,
      "note": 83,
      "start": 19.6438,
      "duration": 0.118,
      "velocity": 91,
      "chip": "ym2612"
    },
    {
      "channel": 0,
      "note": 52,
      "start": 19.7804,
      "duration": 0.1924,
      "velocity": 105,
      "chip": "ym2612"
    },
    {
      "channel": 3,
      "note": 76,
      "start": 19.7819,
      "duration": 0.1148,
      "velocity": 91,
      "chip": "ym2612"
    },
    {
      "channel": 2,
      "note": 93,
      "start": 19.7857,
      "duration": 0.0576,
      "velocity": 127,
      "chip": "ym2612"
    },
    {
      "channel": 3,
      "note": 81,
      "start": 19.8998,
      "duration": 0.1209,
      "velocity": 91,
      "chip": "ym2612"
    },
    {
      "channel": 2,
      "note": 28,
      "start": 19.9026,
      "duration": 0.0609,
      "velocity": 127,
      "chip": "ym2612"
    },
    {
      "channel": 0,
      "note": 52,
      "start": 20.0246,
      "duration": 0.4001,
      "velocity": 105,
      "chip": "ym2612"
    },
    {
      "channel": 3,
      "note": 80,
      "start": 20.0262,
      "duration": 0.3703,
      "velocity": 91,
      "chip": "ym2612"
    },
    {
      "channel": 1,
      "note": 71,
      "start": 20.0279,
      "duration": 0.1517,
      "velocity": 84,
      "chip": "ym2612"
    },
    {
      "channel": 4,
      "note": 68,
      "start": 20.0295,
      "duration": 0.1504,
      "velocity": 84,
      "chip": "ym2612"
    },
    {
      "channel": 2,
      "note": 28,
      "start": 20.0321,
      "duration": 0.1165,
      "velocity": 109,
      "chip": "ym2612"
    },
    {
      "channel": 5,
      "note": 35,
      "start": 20.0348,
      "duration": 0.1202,
      "velocity": 120,
      "chip": "ym2612"
    },
    {
      "channel": 2,
      "note": 105,
      "start": 20.1541,
      "duration": 0.1181,
      "velocity": 127,
      "chip": "ym2612"
    },
    {
      "channel": 1,
      "note": 71,
      "start": 20.2904,
      "duration": 0.1468,
      "velocity": 84,
      "chip": "ym2612"
    },
    {
      "channel": 4,
      "note": 74,
      "start": 20.2919,
      "duration": 0.1454,
      "velocity": 84,
      "chip": "ym2612"
    },
    {
      "channel": 2,
      "note": 35,
      "start": 20.2944,
      "duration": 0.1125,
      "velocity": 109,
      "chip": "ym2612"
    },
    {
      "channel": 3,
      "note": 78,
      "start": 20.409,
      "duration": 0.3627,
      "velocity": 91,
      "chip": "ym2612"
    },
    {
      "channel": 2,
      "note": 105,
      "start": 20.4129,
      "duration": 0.1167,
      "velocity": 127,
      "chip": "ym2612"
    },
    {
      "channel": 0,
      "note": 47,
      "start": 20.5313,
      "duration": 0.3965,
      "velocity": 105,
      "chip": "ym2612"
    },
    {
      "channel": 1,
      "note": 71,
      "start": 20.5334,
      "duration": 0.0636,
      "velocity": 84,
      "chip": "ym2612"
    },
    {
      "channel": 4,
      "note": 74,
      "start": 20.5352,
      "duration": 0.062,
      "velocity": 84,
      "chip": "ym2612"
    },
    {
      "channel": 2,
      "note": 35,
      "start": 20.5366,
      "duration": 0.1169,
      "velocity": 127,
      "chip": "ym2612"
    },
    {
      "channel": 5,
      "note": 23,
      "start": 20.539,
      "duration": 0.1222,
      "velocity": 120,
      "chip": "ym2612"
    },
    {
      "channel": 1,
      "note": 69,
      "start": 20.6562,
      "duration": 0.0613,
      "velocity": 84,
      "chip": "ym2612"
    },
    {
      "channel": 4,
      "note": 74,
      "start": 20.6577,
      "duration": 0.0599,
      "velocity": 84,
      "chip": "ym2612"
    },
    {
      "channel": 2,
      "note": 35,
      "start": 20.6602,
      "duration": 0.1125,
      "velocity": 109,
      "chip": "ym2612"
    },
    {
      "channel": 3,
      "note": 80,
      "start": 20.7749,
      "duration": 0.2391,
      "velocity": 91,
      "chip": "ym2612"
    },
    {
      "channel": 2,
      "note": 93,
      "start": 20.7777,
      "duration": 0.1178,
      "velocity": 109,
      "chip": "ym2612"
    },
    {
      "channel": 1,
      "note": 69,
      "start": 20.9137,
      "duration": 0.0608,
      "velocity": 84,
      "chip": "ym2612"
    },
    {
      "channel": 4,
      "note": 74,
      "start": 20.9154,
      "duration": 0.0593,
      "velocity": 84,
      "chip": "ym2612"
    },
    {
      "channel": 2,
      "note": 93,
      "start": 20.918,
      "duration": 0.0569,
      "velocity": 127,
      "chip": "ym2612"
    },
    {
      "channel": 0,
      "note": 42,
      "start": 21.0337,
      "duration": 0.3916,
      "velocity": 105,
      "chip": "ym2612"
    },
    {
      "channel": 3,
      "note": 81,
      "start": 21.0353,
      "duration": 0.3559,
      "velocity": 91,
      "chip": "ym2612"
    },
    {
      "channel": 2,
      "note": 28,
      "start": 21.038,
      "duration": 0.0576,
      "velocity": 127,
      "chip": "ym2612"
    },
    {
      "channel": 5,
      "note": 35,
      "start": 21.0404,
      "duration": 0.1185,
      "velocity": 120,
      "chip": "ym2612"
    },
    {
      "channel": 1,
      "note": 68,
      "start": 21.1539,
      "duration": 0.0607,
      "velocity": 84,
      "chip": "ym2612"
    },
    {
      "channel": 4,
      "note": 74,
      "start": 21.1555,
      "duration": 0.0594,
      "velocity": 84,
      "chip": "ym2612"
    },
    {
      "channel": 2,
      "note": 28,
      "start": 21.158,
      "duration": 0.2344,
      "velocity": 109,
      "chip": "ym2612"
    },
    {
      "channel": 3,
      "note": 83,
      "start": 21.3945,
      "duration": 0.3686,
      "velocity": 91,
      "chip": "ym2612"
    },
    {
      "channel": 1,
      "note": 68,
      "start": 21.3962,
      "duration": 0.0586,
      "velocity": 84,
      "chip": "ym2612"
    },
    {
      "channel": 4,
      "note": 74,
      "start": 21.3979,
      "duration": 0.0571,
      "velocity": 84,
      "chip": "ym2612"
    },
    {
      "channel": 2,
      "note": 105,
      "start": 21.3994,
      "duration": 0.1136,
      "velocity": 109,
      "chip": "ym2612"
    },
    {
      "channel": 0,
      "note": 47,
      "start": 21.5323,
      "duration": 0.4018,
      "velocity": 105,
      "chip": "ym2612"
    },
    {
      "channel": 1,
      "note": 69,
      "start": 21.5344,
      "duration": 0.1491,
      "velocity": 84,
      "chip": "ym2612"
    },
    {
      "channel": 4,
      "note": 74,
      "start": 21.5359,
      "duration": 0.1478,
      "velocity": 84,
      "chip": "ym2612"
    },
    {
      "channel": 2,
      "note": 105,
      "start": 21.5375,
      "duration": 0.2378,
      "velocity": 109,
      "chip": "ym2612"
    },
    {
      "channel": 5,
      "note": 23,
      "start": 21.5401,
      "duration": 0.2476,
      "velocity": 120,
      "chip": "ym2612"
    },
    {
      "channel": 3,
      "note": 85,
      "start": 21.7775,
      "duration": 0.2378,
      "velocity": 91,
      "chip": "ym2612"
    },
    {
      "channel": 1,
      "note": 69,
      "start": 21.7792,
      "duration": 0.1444,
      "velocity": 84,
      "chip": "ym2612"
    },
    {
      "channel": 4,
      "note": 74,
      "start": 21.7809,
      "duration": 0.1429,
      "velocity": 84,
      "chip": "ym2612"
    },
    {
      "channel": 2,
      "note": 93,
      "start": 21.7834,
      "duration": 0.0556,
      "velocity": 127,
      "chip": "ym2612"
    },
    {
      "channel": 2,
      "note": 28,
      "start": 21.897,
      "duration": 0.062,
      "velocity": 127,
      "chip": "ym2612"
    },
    {
      "channel": 0,
      "note": 42,
      "start": 22.0193,
      "duration": 0.401,
      "velocity": 105,
      "chip": "ym2612"
    },
    {
      "channel": 3,
      "note": 81,
      "start": 22.0209,
      "duration": 0.7371,
      "velocity": 91,
      "chip": "ym2612"
    },
    {
      "channel": 1,
      "note": 66,
      "start": 22.0227,
      "duration": 0.1469,
      "velocity": 84,
      "chip": "ym2612"
    },
    {
      "channel": 4,
      "note": 74,
      "start": 22.0244,
      "duration": 0.1454,
      "velocity": 84,
      "chip": "ym2612"
    },
    {
      "channel": 2,
      "note": 28,
      "start": 22.0268,
      "duration": 0.1152,
      "velocity": 109,
      "chip": "ym2612"
    },
    {
      "channel": 5,
      "note": 35,
      "start": 22.0295,
      "duration": 0.1127,
      "velocity": 120,
      "chip": "ym2612"
    },
    {
      "channel": 2,
      "note": 105,
      "start": 22.1611,
      "duration": 0.1166,
      "velocity": 127,
      "chip": "ym2612"
    },
    {
      "channel": 1,
      "note": 71,
      "start": 22.2803,
      "duration": 0.1468,
      "velocity": 84,
      "chip": "ym2612"
    },
    {
      "channel": 4,
      "note": 74,
      "start": 22.2819,
      "duration": 0.1454,
      "velocity": 84,
      "chip": "ym2612"
    },
    {
      "channel": 2,
      "note": 35,
      "start": 22.2844,
      "duration": 0.1116,
      "velocity": 109,
      "chip": "ym2612"
    },
    {
      "channel": 2,
      "note": 105,
      "start": 22.4012,
      "duration": 0.1237,
      "velocity": 127,
      "chip": "ym2612"
    },
    {
      "channel": 0,
      "note": 40,
      "start": 22.5204,
      "duration": 0.3916,
      "velocity": 105,
      "chip": "ym2612"
    },
    {
      "channel": 1,
      "note": 71,
      "start": 22.5225,
      "duration": 0.0588,
      "velocity": 84,
      "chip": "ym2612"
    },
    {
      "channel": 4,
      "note": 74,
      "start": 22.5242,
      "duration": 0.0572,
      "velocity": 84,
      "chip": "ym2612"
    },
    {
      "channel": 5,
      "note": 23,
      "start": 22.5259,
      "duration": 0.1141,
      "velocity": 120,
      "chip": "ym2612"
    },
    {
      "channel": 1,
      "note": 69,
      "start": 22.6578,
      "duration": 0.0607,
      "velocity": 84,
      "chip": "ym2612"
    },
    {
      "channel": 4,
      "note": 74,
      "start": 22.6592,
      "duration": 0.0594,
      "velocity": 84,
      "chip": "ym2612"
    },
    {
      "channel": 5,
      "note": 46,
      "start": 22.6612,
      "duration": 0.1123,
      "velocity": 120,
      "chip": "ym2612"
    },
    {
      "channel": 5,
      "note": 46,
      "start": 22.7782,
      "duration": 0.1243,
      "velocity": 120,
      "chip": "ym2612"
    },
    {
      "channel": 1,
      "note": 69,
      "start": 22.8981,
      "duration": 0.0606,
      "velocity": 84,
      "chip": "ym2612"
    },
    {
      "channel": 4,
      "note": 74,
      "start": 22.8998,
      "duration": 0.0591,
      "velocity": 84,
      "chip": "ym2612"
    },
    {
      "channel": 2,
      "note": 35,
      "start": 22.9016,
      "duration": 0.0574,
      "velocity": 127,
      "chip": "ym2612"
    },
    {
      "channel": 0,
      "note": 47,
      "start": 23.0181,
      "duration": 0.1913,
      "velocity": 105,
      "chip": "ym2612"
    },
    {
      "channel": 3,
      "note": 83,
      "start": 23.0197,
      "duration": 0.9792,
      "velocity": 91,
      "chip": "ym2612"
    },
    {
      "channel": 2,
      "note": 28,
      "start": 23.0227,
      "duration": 0.0572,
      "velocity": 127,
      "chip": "ym2612"
    },
    {
      "channel": 5,
      "note": 40,
      "start": 23.0242,
      "duration": 0.1113,
      "velocity": 120,
      "chip": "ym2612"
    },
    {
      "channel": 1,
      "note": 68,
      "start": 23.1382,
      "duration": 0.1178,
      "velocity": 84,
      "chip": "ym2612"
    },
    {
      "channel": 4,
      "note": 74,
      "start": 23.1397,
      "duration": 0.1165,
      "velocity": 84,
      "chip": "ym2612"
    },
    {
      "channel": 5,
      "note": 24,
      "start": 23.1427,
      "duration": 0.2349,
      "velocity": 82,
      "chip": "ym2612"
    },
    {
      "channel": 0,
      "note": 52,
      "start": 23.2743,
      "duration": 0.1923,
      "velocity": 105,
      "chip": "ym2612"
    },
    {
      "channel": 1,
      "note": 68,
      "start": 23.2763,
      "duration": 0.0826,
      "velocity": 84,
      "chip": "ym2612"
    },
    {
      "channel": 4,
      "note": 74,
      "start": 23.2782,
      "duration": 0.0809,
      "velocity": 84,
      "chip": "ym2612"
    },
    {
      "channel": 1,
      "note": 85,
      "start": 23.3954,
      "duration": 0.0837,
      "velocity": 84,
      "chip": "ym2612"
    },
    {
      "channel": 4,
      "note": 88,
      "start": 23.3971,
      "duration": 0.0821,
      "velocity": 84,
      "chip": "ym2612"
    },
    {
      "channel": 5,
      "note": 35,
      "start": 23.3993,
      "duration": 0.1145,
      "velocity": 82,
      "chip": "ym2612"
    },
    {
      "channel": 0,
      "note": 52,
      "start": 23.5155,
      "duration": 0.1913,
      "velocity": 105,
      "chip": "ym2612"
    },
    {
      "channel": 1,
      "note": 86,
      "start": 23.5176,
      "duration": 0.0815,
      "velocity": 84,
      "chip": "ym2612"
    },
    {
      "channel": 4,
      "note": 90,
      "start": 23.5193,
      "duration": 0.0799,
      "velocity": 84,
      "chip": "ym2612"
    },
    {
      "channel": 5,
      "note": 35,
      "start": 23.5215,
      "duration": 0.2324,
      "velocity": 82,
      "chip": "ym2612"
    },
    {
      "channel": 1,
      "note": 88,
      "start": 23.6345,
      "duration": 0.0903,
      "velocity": 84,
      "chip": "ym2612"
    },
    {
      "channel": 4,
      "note": 92,
      "start": 23.6363,
      "duration": 0.0888,
      "velocity": 84,
      "chip": "ym2612"
    },
    {
      "channel": 0,
      "note": 50,
      "start": 23.7555,
      "duration": 0.1914,
      "velocity": 105,
      "chip": "ym2612"
    },
    {
      "channel": 1,
      "note": 90,
      "start": 23.7577,
      "duration": 0.0873,
      "velocity": 84,
      "chip": "ym2612"
    },
    {
      "channel": 4,
      "note": 93,
      "start": 23.7594,
      "duration": 0.0858,
      "velocity": 84,
      "chip": "ym2612"
    },
    {
      "channel": 5,
      "note": 35,
      "start": 23.7616,
      "duration": 0.2389,
      "velocity": 82,
      "chip": "ym2612"
    },
    {
      "channel": 1,
      "note": 88,
      "start": 23.8919,
      "duration": 0.0903,
      "velocity": 84,
      "chip": "ym2612"
    },
    {
      "channel": 4,
      "note": 92,
      "start": 23.8936,
      "duration": 0.0889,
      "velocity": 84,
      "chip": "ym2612"
    },
    {
      "channel": 0,
      "note": 47,
      "start": 24.0161,
      "duration": 0.4055,
      "velocity": 105,
      "chip": "ym2612"
    },
    {
      "channel": 3,
      "note": 76,
      "start": 24.0178,
      "duration": 0.2534,
      "velocity": 91,
      "chip": "ym2612"
    },
    {
      "channel": 1,
      "note": 86,
      "start": 24.0197,
      "duration": 0.1512,
      "velocity": 84,
      "chip": "ym2612"
    },
    {
      "channel": 4,
      "note": 90,
      "start": 24.0215,
      "duration": 0.1495,
      "velocity": 84,
      "chip": "ym2612"
    },
    {
      "channel": 2,
      "note": 28,
      "start": 24.0244,
      "duration": 0.1155,
      "velocity": 109,
      "chip": "ym2612"
    },
    {
      "channel": 5,
      "note": 28,
      "start": 24.0272,
      "duration": 0.119,
      "velocity": 120,
      "chip": "ym2612"
    },
    {
      "channel": 2,
      "note": 105,
      "start": 24.1453,
      "duration": 0.1168,
      "velocity": 127,
      "chip": "ym2612"
    },
    {
      "channel": 1,
      "note": 69,
      "start": 24.2647,
      "duration": 0.1521,
      "velocity": 84,
      "chip": "ym2612"
    },
    {
      "channel": 4,
      "note": 73,
      "start": 24.2662,
      "duration": 0.1507,
      "velocity": 84,
      "chip": "ym2612"
    },
    {
      "channel": 2,
      "note": 35,
      "start": 24.2688,
      "duration": 0.1122,
      "velocity": 109,
      "chip": "ym2612"
    },
    {
      "channel": 3,
      "note": 81,
      "start": 24.3831,
      "duration": 0.119,
      "velocity": 91,
      "chip": "ym2612"
    },
    {
      "channel": 2,
      "note": 105,
      "start": 24.387,
      "duration": 0.1162,
      "velocity": 127,
      "chip": "ym2612"
    },
    {
      "channel": 0,
      "note": 45,
      "start": 24.5228,
      "duration": 0.3963,
      "velocity": 105,
      "chip": "ym2612"
    },
    {
      "channel": 1,
      "note": 69,
      "start": 24.5251,
      "duration": 0.0632,
      "velocity": 84,
      "chip": "ym2612"
    },
    {
      "channel": 4,
      "note": 73,
      "start": 24.5268,
      "duration": 0.0616,
      "velocity": 84,
      "chip": "ym2612"
    },
    {
      "channel": 2,
      "note": 35,
      "start": 24.5283,
      "duration": 0.1166,
      "velocity": 127,
      "chip": "ym2612"
    },
    {
      "channel": 5,
      "note": 23,
      "start": 24.5307,
      "duration": 0.1218,
      "velocity": 120,
      "chip": "ym2612"
    },
    {
      "channel": 1,
      "note": 68,
      "start": 24.6475,
      "duration": 0.0612,
      "velocity": 84,
      "chip": "ym2612"
    },
    {
      "channel": 4,
      "note": 73,
      "start": 24.649,
      "duration": 0.0599,
      "velocity": 84,
      "chip": "ym2612"
    },
    {
      "channel": 2,
      "note": 35,
      "start": 24.6515,
      "duration": 0.1115,
      "velocity": 109,
      "chip": "ym2612"
    },
    {
      "channel": 2,
      "note": 93,
      "start": 24.7675,
      "duration": 0.1177,
      "velocity": 109,
      "chip": "ym2612"
    },
    {
      "channel": 1,
      "note": 68,
      "start": 24.8878,
      "duration": 0.0608,
      "velocity": 84,
      "chip": "ym2612"
    },
    {
      "channel": 4,
      "note": 73,
      "start": 24.8895,
      "duration": 0.0593,
      "velocity": 84,
      "chip": "ym2612"
    },
    {
      "channel": 2,
      "note": 93,
      "start": 24.8921,
      "duration": 0.0569,
      "velocity": 127,
      "chip": "ym2612"
    },
    {
      "channel": 0,
      "note": 40,
      "start": 25.0239,
      "duration": 0.3927,
      "velocity": 105,
      "chip": "ym2612"
    },
    {
      "channel": 2,
      "note": 28,
      "start": 25.027,
      "duration": 0.0599,
      "velocity": 127,
      "chip": "ym2612"
    },
    {
      "channel": 5,
      "note": 35,
      "start": 25.0294,
      "duration": 0.1207,
      "velocity": 120,
      "chip": "ym2612"
    },
    {
      "channel": 1,
      "note": 66,
      "start": 25.1452,
      "duration": 0.0607,
      "velocity": 84,
      "chip": "ym2612"
    },
    {
      "channel": 4,
      "note": 73,
      "start": 25.1467,
      "duration": 0.0593,
      "velocity": 84,
      "chip": "ym2612"
    },
    {
      "channel": 2,
      "note": 28,
      "start": 25.1492,
      "duration": 0.2337,
      "velocity": 109,
      "chip": "ym2612"
    },
    {
      "channel": 3,
      "note": 81,
      "start": 25.2634,
      "duration": 0.1207,
      "velocity": 91,
      "chip": "ym2612"
    },
    {
      "channel": 1,
      "note": 66,
      "start": 25.3851,
      "duration": 0.061,
      "velocity": 84,
      "chip": "ym2612"
    },
    {
      "channel": 4,
      "note": 73,
      "start": 25.3868,
      "duration": 0.0595,
      "velocity": 84,
      "chip": "ym2612"
    },
    {
      "channel": 2,
      "note": 105,
      "start": 25.3883,
      "duration": 0.1171,
      "velocity": 109,
      "chip": "ym2612"
    },
    {
      "channel": 0,
      "note": 45,
      "start": 25.5071,
      "duration": 0.4012,
      "velocity": 105,
      "chip": "ym2612"
    },
    {
      "channel": 3,
      "note": 76,
      "start": 25.5087,
      "duration": 0.1198,
      "velocity": 91,
      "chip": "ym2612"
    },
    {
      "channel": 1,
      "note": 68,
      "start": 25.5104,
      "duration": 0.1473,
      "velocity": 84,
      "chip": "ym2612"
    },
    {
      "channel": 4,
      "note": 73,
      "start": 25.512,
      "duration": 0.1459,
      "velocity": 84,
      "chip": "ym2612"
    },
    {
      "channel": 2,
      "note": 105,
      "start": 25.5135,
      "duration": 0.2366,
      "velocity": 109,
      "chip": "ym2612"
    },
    {
      "channel": 5,
      "note": 23,
      "start": 25.5161,
      "duration": 0.2343,
      "velocity": 120,
      "chip": "ym2612"
    },
    {
      "channel": 3,
      "note": 81,
      "start": 25.7688,
      "duration": 0.1171,
      "velocity": 91,
      "chip": "ym2612"
    },
    {
      "channel": 1,
      "note": 68,
      "start": 25.7705,
      "duration": 0.1445,
      "velocity": 84,
      "chip": "ym2612"
    },
    {
      "channel": 4,
      "note": 73,
      "start": 25.7722,
      "duration": 0.1429,
      "velocity": 84,
      "chip": "ym2612"
    },
    {
      "channel": 2,
      "note": 93,
      "start": 25.7747,
      "duration": 0.0555,
      "velocity": 127,
      "chip": "ym2612"
    },
    {
      "channel": 2,
      "note": 28,
      "start": 25.8879,
      "duration": 0.0624,
      "velocity": 127,
      "chip": "ym2612"
    },
    {
      "channel": 0,
      "note": 40,
      "start": 26.0111,
      "duration": 0.406,
      "velocity": 105,
      "chip": "ym2612"
    },
    {
      "channel": 3,
      "note": 83,
      "start": 26.0128,
      "duration": 0.2505,
      "velocity": 91,
      "chip": "ym2612"
    },
    {
      "channel": 1,
      "note": 64,
      "start": 26.0145,
      "duration": 0.152,
      "velocity": 84,
      "chip": "ym2612"
    },
    {
      "channel": 4,
      "note": 73,
      "start": 26.0162,
      "duration": 0.1505,
      "velocity": 84,
      "chip": "ym2612"
    },
    {
      "channel": 2,
      "note": 28,
      "start": 26.0187,
      "duration": 0.1168,
      "velocity": 109,
      "chip": "ym2612"
    },
    {
      "channel": 5,
      "note": 35,
      "start": 26.0214,
      "duration": 0.1205,
      "velocity": 120,
      "chip": "ym2612"
    },
    {
      "channel": 2,
      "note": 105,
      "start": 26.141,
      "duration": 0.1181,
      "velocity": 127,
      "chip": "ym2612"
    },
    {
      "channel": 3,
      "note": 85,
      "start": 26.2778,
      "duration": 0.1149,
      "velocity": 91,
      "chip": "ym2612"
    },
    {
      "channel": 1,
      "note": 69,
      "start": 26.2796,
      "duration": 0.1445,
      "velocity": 84,
      "chip": "ym2612"
    },
    {
      "channel": 4,
      "note": 73,
      "start": 26.281,
      "duration": 0.1432,
      "velocity": 84,
      "chip": "ym2612"
    },
    {
      "channel": 2,
      "note": 35,
      "start": 26.2836,
      "duration": 0.1102,
      "velocity": 109,
      "chip": "ym2612"
    },
    {
      "channel": 3,
      "note": 86,
      "start": 26.3959,
      "duration": 0.1232,
      "velocity": 91,
      "chip": "ym2612"
    },
    {
      "channel": 2,
      "note": 105,
      "start": 26.3998,
      "duration": 0.1168,
      "velocity": 127,
      "chip": "ym2612"
    },
    {
      "channel": 0,
      "note": 45,
      "start": 26.5183,
      "duration": 0.4021,
      "velocity": 105,
      "chip": "ym2612"
    },
    {
      "channel": 1,
      "note": 69,
      "start": 26.5201,
      "duration": 0.0639,
      "velocity": 84,
      "chip": "ym2612"
    },
    {
      "channel": 4,
      "note": 73,
      "start": 26.5218,
      "duration": 0.0623,
      "velocity": 84,
      "chip": "ym2612"
    },
    {
      "channel": 2,
      "note": 35,
      "start": 26.5233,
      "duration": 0.118,
      "velocity": 127,
      "chip": "ym2612"
    },
    {
      "channel": 5,
      "note": 23,
      "start": 26.5257,
      "duration": 0.1245,
      "velocity": 120,
      "chip": "ym2612"
    },
    {
      "channel": 3,
      "note": 85,
      "start": 26.6434,
      "duration": 0.1173,
      "velocity": 91,
      "chip": "ym2612"
    },
    {
      "channel": 1,
      "note": 68,
      "start": 26.6452,
      "duration": 0.0588,
      "velocity": 84,
      "chip": "ym2612"
    },
    {
      "channel": 4,
      "note": 73,
      "start": 26.6467,
      "duration": 0.0576,
      "velocity": 84,
      "chip": "ym2612"
    },
    {
      "channel": 2,
      "note": 35,
      "start": 26.6492,
      "duration": 0.1127,
      "velocity": 109,
      "chip": "ym2612"
    },
    {
      "channel": 3,
      "note": 85,
      "start": 26.7789,
      "duration": 0.1203,
      "velocity": 91,
      "chip": "ym2612"
    },
    {
      "channel": 2,
      "note": 93,
      "start": 26.7817,
      "duration": 0.1162,
      "velocity": 109,
      "chip": "ym2612"
    },
    {
      "channel": 1,
      "note": 68,
      "start": 26.9002,
      "duration": 0.0613,
      "velocity": 84,
      "chip": "ym2612"
    },
    {
      "channel": 4,
      "note": 73,
      "start": 26.9019,
      "duration": 0.0597,
      "velocity": 84,
      "chip": "ym2612"
    },
    {
      "channel": 2,
      "note": 93,
      "start": 26.9044,
      "duration": 0.0573,
      "velocity": 127,
      "chip": "ym2612"
    },
    {
      "channel": 0,
      "note": 40,
      "start": 27.0204,
      "duration": 0.3918,
      "velocity": 105,
      "chip": "ym2612"
    },
    {
      "channel": 3,
      "note": 83,
      "start": 27.0221,
      "duration": 0.1175,
      "velocity": 91,
      "chip": "ym2612"
    },
    {
      "channel": 2,
      "note": 28,
      "start": 27.0248,
      "duration": 0.0578,
      "velocity": 127,
      "chip": "ym2612"
    },
    {
      "channel": 5,
      "note": 35,
      "start": 27.0272,
      "duration": 0.1183,
      "velocity": 120,
      "chip": "ym2612"
    },
    {
      "channel": 1,
      "note": 66,
      "start": 27.1405,
      "duration": 0.0611,
      "velocity": 84,
      "chip": "ym2612"
    },
    {
      "channel": 4,
      "note": 73,
      "start": 27.142,
      "duration": 0.0597,
      "velocity": 84,
      "chip": "ym2612"
    },
    {
      "channel": 2,
      "note": 28,
      "start": 27.1445,
      "duration": 0.235,
      "velocity": 109,
      "chip": "ym2612"
    },
    {
      "channel": 3,
      "note": 83,
      "start": 27.259,
      "duration": 0.1193,
      "velocity": 91,
      "chip": "ym2612"
    },
    {
      "channel": 3,
      "note": 83,
      "start": 27.3986,
      "duration": 0.1214,
      "velocity": 91,
      "chip": "ym2612"
    },
    {
      "channel": 1,
      "note": 66,
      "start": 27.4003,
      "duration": 0.0586,
      "velocity": 84,
      "chip": "ym2612"
    },
    {
      "channel": 4,
      "note": 73,
      "start": 27.402,
      "duration": 0.0571,
      "velocity": 84,
      "chip": "ym2612"
    },
    {
      "channel": 2,
      "note": 105,
      "start": 27.4035,
      "duration": 0.114,
      "velocity": 109,
      "chip": "ym2612"
    },
    {
      "channel": 0,
      "note": 45,
      "start": 27.5191,
      "duration": 0.0511,
      "velocity": 105,
      "chip": "ym2612"
    },
    {
      "channel": 1,
      "note": 68,
      "start": 27.521,
      "duration": 0.1497,
      "velocity": 84,
      "chip": "ym2612"
    },
    {
      "channel": 4,
      "note": 73,
      "start": 27.5224,
      "duration": 0.1483,
      "velocity": 84,
      "chip": "ym2612"
    },
    {
      "channel": 2,
      "note": 105,
      "start": 27.524,
      "duration": 0.2363,
      "velocity": 109,
      "chip": "ym2612"
    },
    {
      "channel": 5,
      "note": 23,
      "start": 27.5266,
      "duration": 0.2406,
      "velocity": 120,
      "chip": "ym2612"
    },
    {
      "channel": 0,
      "note": 51,
      "start": 27.5731,
      "duration": 0.428,
      "velocity": 105,
      "chip": "ym2612"
    },
    {
      "channel": 3,
      "note": 81,
      "start": 27.6422,
      "duration": 0.1171,
      "velocity": 91,
      "chip": "ym2612"
    },
    {
      "channel": 3,
      "note": 81,
      "start": 27.7625,
      "duration": 0.2387,
      "velocity": 91,
      "chip": "ym2612"
    },
    {
      "channel": 2,
      "note": 93,
      "start": 27.7663,
      "duration": 0.0595,
      "velocity": 127,
      "chip": "ym2612"
    },
    {
      "channel": 2,
      "note": 28,
      "start": 27.8839,
      "duration": 0.062,
      "velocity": 127,
      "chip": "ym2612"
    },
    {
      "channel": 0,
      "note": 52,
      "start": 28.024,
      "duration": 0.406,
      "velocity": 105,
      "chip": "ym2612"
    },
    {
      "channel": 3,
      "note": 80,
      "start": 28.0256,
      "duration": 0.7457,
      "velocity": 91,
      "chip": "ym2612"
    },
    {
      "channel": 1,
      "note": 68,
      "start": 28.0273,
      "duration": 0.152,
      "velocity": 84,
      "chip": "ym2612"
    },
    {
      "channel": 4,
      "note": 73,
      "start": 28.0291,
      "duration": 0.1505,
      "velocity": 84,
      "chip": "ym2612"
    },
    {
      "channel": 2,
      "note": 28,
      "start": 28.0317,
      "duration": 0.1165,
      "velocity": 109,
      "chip": "ym2612"
    },
    {
      "channel": 5,
      "note": 35,
      "start": 28.0344,
      "duration": 0.1202,
      "velocity": 120,
      "chip": "ym2612"
    },
    {
      "channel": 2,
      "note": 105,
      "start": 28.1537,
      "duration": 0.1166,
      "velocity": 127,
      "chip": "ym2612"
    },
    {
      "channel": 1,
      "note": 71,
      "start": 28.2729,
      "duration": 0.1466,
      "velocity": 84,
      "chip": "ym2612"
    },
    {
      "channel": 4,
      "note": 74,
      "start": 28.2744,
      "duration": 0.1452,
      "velocity": 84,
      "chip": "ym2612"
    },
    {
      "channel": 2,
      "note": 35,
      "start": 28.277,
      "duration": 0.1115,
      "velocity": 109,
      "chip": "ym2612"
    },
    {
      "channel": 2,
      "note": 105,
      "start": 28.3939,
      "duration": 0.1183,
      "velocity": 127,
      "chip": "ym2612"
    },
    {
      "channel": 0,
      "note": 47,
      "start": 28.5139,
      "duration": 0.4021,
      "velocity": 105,
      "chip": "ym2612"
    },
    {
      "channel": 1,
      "note": 71,
      "start": 28.516,
      "duration": 0.0636,
      "velocity": 84,
      "chip": "ym2612"
    },
    {
      "channel": 4,
      "note": 74,
      "start": 28.5178,
      "duration": 0.0621,
      "velocity": 84,
      "chip": "ym2612"
    },
    {
      "channel": 2,
      "note": 35,
      "start": 28.5192,
      "duration": 0.1186,
      "velocity": 127,
      "chip": "ym2612"
    },
    {
      "channel": 5,
      "note": 23,
      "start": 28.5216,
      "duration": 0.1165,
      "velocity": 120,
      "chip": "ym2612"
    },
    {
      "channel": 1,
      "note": 69,
      "start": 28.6559,
      "duration": 0.0612,
      "velocity": 84,
      "chip": "ym2612"
    },
    {
      "channel": 4,
      "note": 74,
      "start": 28.6574,
      "duration": 0.0599,
      "velocity": 84,
      "chip": "ym2612"
    },
    {
      "channel": 2,
      "note": 35,
      "start": 28.6599,
      "duration": 0.1125,
      "velocity": 109,
      "chip": "ym2612"
    },
    {
      "channel": 3,
      "note": 78,
      "start": 28.7746,
      "duration": 0.2379,
      "velocity": 91,
      "chip": "ym2612"
    },
    {
      "channel": 2,
      "note": 93,
      "start": 28.7773,
      "duration": 0.116,
      "velocity": 109,
      "chip": "ym2612"
    },
    {
      "channel": 1,
      "note": 69,
      "start": 28.8961,
      "duration": 0.0609,
      "velocity": 84,
      "chip": "ym2612"
    },
    {
      "channel": 4,
      "note": 74,
      "start": 28.8977,
      "duration": 0.0594,
      "velocity": 84,
      "chip": "ym2612"
    },
    {
      "channel": 2,
      "note": 93,
      "start": 28.9003,
      "duration": 0.057,
      "velocity": 127,
      "chip": "ym2612"
    },
    {
      "channel": 0,
      "note": 42,
      "start": 29.0161,
      "duration": 0.3916,
      "velocity": 105,
      "chip": "ym2612"
    },
    {
      "channel": 3,
      "note": 85,
      "start": 29.0178,
      "duration": 0.7393,
      "velocity": 91,
      "chip": "ym2612"
    },
    {
      "channel": 2,
      "note": 28,
      "start": 29.0205,
      "duration": 0.0576,
      "velocity": 127,
      "chip": "ym2612"
    },
    {
      "channel": 5,
      "note": 35,
      "start": 29.0229,
      "duration": 0.1129,
      "velocity": 120,
      "chip": "ym2612"
    },
    {
      "channel": 1,
      "note": 68,
      "start": 29.1538,
      "duration": 0.0606,
      "velocity": 84,
      "chip": "ym2612"
    },
    {
      "channel": 4,
      "note": 74,
      "start": 29.1553,
      "duration": 0.0593,
      "velocity": 84,
      "chip": "ym2612"
    },
    {
      "channel": 2,
      "note": 28,
      "start": 29.1578,
      "duration": 0.2335,
      "velocity": 109,
      "chip": "ym2612"
    },
    {
      "channel": 1,
      "note": 68,
      "start": 29.3939,
      "duration": 0.0607,
      "velocity": 84,
      "chip": "ym2612"
    },
    {
      "channel": 4,
      "note": 74,
      "start": 29.3955,
      "duration": 0.0592,
      "velocity": 84,
      "chip": "ym2612"
    },
    {
      "channel": 2,
      "note": 105,
      "start": 29.3971,
      "duration": 0.1158,
      "velocity": 109,
      "chip": "ym2612"
    },
    {
      "channel": 0,
      "note": 47,
      "start": 29.5146,
      "duration": 0.3964,
      "velocity": 105,
      "chip": "ym2612"
    },
    {
      "channel": 1,
      "note": 69,
      "start": 29.5167,
      "duration": 0.1494,
      "velocity": 84,
      "chip": "ym2612"
    },
    {
      "channel": 4,
      "note": 74,
      "start": 29.5183,
      "duration": 0.148,
      "velocity": 84,
      "chip": "ym2612"
    },
    {
      "channel": 2,
      "note": 105,
      "start": 29.5198,
      "duration": 0.2385,
      "velocity": 109,
      "chip": "ym2612"
    },
    {
      "channel": 5,
      "note": 23,
      "start": 29.5224,
      "duration": 0.236,
      "velocity": 120,
      "chip": "ym2612"
    },
    {
      "channel": 3,
      "note": 83,
      "start": 29.7772,
      "duration": 0.2382,
      "velocity": 91,
      "chip": "ym2612"
    },
    {
      "channel": 1,
      "note": 69,
      "start": 29.7789,
      "duration": 0.1445,
      "velocity": 84,
      "chip": "ym2612"
    },
    {
      "channel": 4,
      "note": 74,
      "start": 29.7806,
      "duration": 0.1429,
      "velocity": 84,
      "chip": "ym2612"
    },
    {
      "channel": 2,
      "note": 93,
      "start": 29.7831,
      "duration": 0.0556,
      "velocity": 127,
      "chip": "ym2612"
    },
    {
      "channel": 2,
      "note": 28,
      "start": 29.8967,
      "duration": 0.062,
      "velocity": 127,
      "chip": "ym2612"
    },
    {
      "channel": 0,
      "note": 42,
      "start": 30.0192,
      "duration": 0.4007,
      "velocity": 105,
      "chip": "ym2612"
    },
    {
      "channel": 3,
      "note": 81,
      "start": 30.0209,
      "duration": 0.2393,
      "velocity": 91,
      "chip": "ym2612"
    },
    {
      "channel": 1,
      "note": 66,
      "start": 30.0226,
      "duration": 0.1466,
      "velocity": 84,
      "chip": "ym2612"
    },
    {
      "channel": 4,
      "note": 74,
      "start": 30.0242,
      "duration": 0.1452,
      "velocity": 84,
      "chip": "ym2612"
    },
    {
      "channel": 2,
      "note": 28,
      "start": 30.0267,
      "duration": 0.1115,
      "velocity": 109,
      "chip": "ym2612"
    },
    {
      "channel": 5,
      "note": 35,
      "start": 30.0294,
      "duration": 0.1151,
      "velocity": 120,
      "chip": "ym2612"
    },
    {
      "channel": 2,
      "note": 105,
      "start": 30.1436,
      "duration": 0.1176,
      "velocity": 127,
      "chip": "ym2612"
    },
    {
      "channel": 3,
      "note": 80,
      "start": 30.2634,
      "duration": 0.117,
      "velocity": 91,
      "chip": "ym2612"
    },
    {
      "channel": 1,
      "note": 71,
      "start": 30.2651,
      "duration": 0.1443,
      "velocity": 84,
      "chip": "ym2612"
    },
    {
      "channel": 4,
      "note": 74,
      "start": 30.2666,
      "duration": 0.143,
      "velocity": 84,
      "chip": "ym2612"
    },
    {
      "channel": 2,
      "note": 35,
      "start": 30.2691,
      "duration": 0.1124,
      "velocity": 109,
      "chip": "ym2612"
    },
    {
      "channel": 3,
      "note": 81,
      "start": 30.3986,
      "duration": 0.1233,
      "velocity": 91,
      "chip": "ym2612"
    },
    {
      "channel": 2,
      "note": 105,
      "start": 30.4024,
      "duration": 0.1169,
      "velocity": 127,
      "chip": "ym2612"
    },
    {
      "channel": 0,
      "note": 40,
      "start": 30.521,
      "duration": 0.402,
      "velocity": 105,
      "chip": "ym2612"
    },
    {
      "channel": 1,
      "note": 71,
      "start": 30.5228,
      "duration": 0.0639,
      "velocity": 84,
      "chip": "ym2612"
    },
    {
      "channel": 4,
      "note": 74,
      "start": 30.5246,
      "duration": 0.0623,
      "velocity": 84,
      "chip": "ym2612"
    },
    {
      "channel": 2,
      "note": 35,
      "start": 30.5261,
      "duration": 0.1179,
      "velocity": 127,
      "chip": "ym2612"
    },
    {
      "channel": 5,
      "note": 23,
      "start": 30.5284,
      "duration": 0.1244,
      "velocity": 120,
      "chip": "ym2612"
    },
    {
      "channel": 3,
      "note": 80,
      "start": 30.6461,
      "duration": 0.1152,
      "velocity": 91,
      "chip": "ym2612"
    },
    {
      "channel": 1,
      "note": 69,
      "start": 30.6479,
      "duration": 0.0589,
      "velocity": 84,
      "chip": "ym2612"
    },
    {
      "channel": 4,
      "note": 74,
      "start": 30.6494,
      "duration": 0.0576,
      "velocity": 84,
      "chip": "ym2612"
    },
    {
      "channel": 2,
      "note": 35,
      "start": 30.6519,
      "duration": 0.1104,
      "velocity": 109,
      "chip": "ym2612"
    },
    {
      "channel": 3,
      "note": 80,
      "start": 30.7645,
      "duration": 0.2449,
      "velocity": 91,
      "chip": "ym2612"
    },
    {
      "channel": 2,
      "note": 93,
      "start": 30.7672,
      "duration": 0.116,
      "velocity": 109,
      "chip": "ym2612"
    },
    {
      "channel": 1,
      "note": 69,
      "start": 30.8859,
      "duration": 0.0609,
      "velocity": 84,
      "chip": "ym2612"
    },
    {
      "channel": 4,
      "note": 74,
      "start": 30.8877,
      "duration": 0.0594,
      "velocity": 84,
      "chip": "ym2612"
    },
    {
      "channel": 2,
      "note": 93,
      "start": 30.8902,
      "duration": 0.057,
      "velocity": 127,
      "chip": "ym2612"
    },
    {
      "channel": 0,
      "note": 47,
      "start": 31.0232,
      "duration": 0.1915,
      "velocity": 105,
      "chip": "ym2612"
    },
    {
      "channel": 3,
      "note": 78,
      "start": 31.0249,
      "duration": 0.2418,
      "velocity": 91,
      "chip": "ym2612"
    },
    {
      "channel": 2,
      "note": 28,
      "start": 31.0276,
      "duration": 0.0632,
      "velocity": 127,
      "chip": "ym2612"
    },
    {
      "channel": 5,
      "note": 35,
      "start": 31.03,
      "duration": 0.1185,
      "velocity": 120,
      "chip": "ym2612"
    },
    {
      "channel": 1,
      "note": 68,
      "start": 31.1435,
      "duration": 0.0607,
      "velocity": 84,
      "chip": "ym2612"
    },
    {
      "channel": 4,
      "note": 74,
      "start": 31.145,
      "duration": 0.0593,
      "velocity": 84,
      "chip": "ym2612"
    },
    {
      "channel": 2,
      "note": 28,
      "start": 31.1475,
      "duration": 0.2336,
      "velocity": 109,
      "chip": "ym2612"
    },
    {
      "channel": 0,
      "note": 52,
      "start": 31.2612,
      "duration": 0.1937,
      "velocity": 105,
      "chip": "ym2612"
    },
    {
      "channel": 1,
      "note": 68,
      "start": 31.3837,
      "duration": 0.0837,
      "velocity": 84,
      "chip": "ym2612"
    },
    {
      "channel": 4,
      "note": 74,
      "start": 31.3852,
      "duration": 0.0823,
      "velocity": 84,
      "chip": "ym2612"
    },
    {
      "channel": 2,
      "note": 105,
      "start": 31.3868,
      "duration": 0.1159,
      "velocity": 109,
      "chip": "ym2612"
    },
    {
      "channel": 0,
      "note": 52,
      "start": 31.5229,
      "duration": 0.195,
      "velocity": 105,
      "chip": "ym2612"
    },
    {
      "channel": 3,
      "note": 76,
      "start": 31.5246,
      "duration": 0.3654,
      "velocity": 91,
      "chip": "ym2612"
    },
    {
      "channel": 1,
      "note": 68,
      "start": 31.5263,
      "duration": 0.3927,
      "velocity": 84,
      "chip": "ym2612"
    },
    {
      "channel": 4,
      "note": 74,
      "start": 31.5279,
      "duration": 0.3912,
      "velocity": 84,
      "chip": "ym2612"
    },
    {
      "channel": 2,
      "note": 105,
      "start": 31.5295,
      "duration": 0.2334,
      "velocity": 109,
      "chip": "ym2612"
    },
    {
      "channel": 5,
      "note": 23,
      "start": 31.5321,
      "duration": 0.2377,
      "velocity": 120,
      "chip": "ym2612"
    },
    {
      "channel": 0,
      "note": 50,
      "start": 31.7646,
      "duration": 0.1934,
      "velocity": 105,
      "chip": "ym2612"
    },
    {
      "channel": 2,
      "note": 93,
      "start": 31.7689,
      "duration": 0.06,
      "velocity": 127,
      "chip": "ym2612"
    },
    {
      "channel": 2,
      "note": 28,
      "start": 31.8866,
      "duration": 0.0621,
      "velocity": 127,
      "chip": "ym2612"
    },
    {
      "channel": 0,
      "note": 47,
      "start": 32.0095,
      "duration": 0.4003,
      "velocity": 105,
      "chip": "ym2612"
    },
    {
      "channel": 3,
      "note": 76,
      "start": 32.0111,
      "duration": 0.2448,
      "velocity": 91,
      "chip": "ym2612"
    },
    {
      "channel": 1,
      "note": 69,
      "start": 32.0129,
      "duration": 0.152,
      "velocity": 84,
      "chip": "ym2612"
    },
    {
      "channel": 4,
      "note": 74,
      "start": 32.0146,
      "duration": 0.1505,
      "velocity": 84,
      "chip": "ym2612"
    },
    {
      "channel": 2,
      "note": 28,
      "start": 32.0171,
      "duration": 0.1203,
      "velocity": 109,
      "chip": "ym2612"
    },
    {
      "channel": 5,
      "note": 35,
      "start": 32.0197,
      "duration": 0.1178,
      "velocity": 120,
      "chip": "ym2612"
    },
    {
      "channel": 2,
      "note": 105,
      "start": 32.1563,
      "duration": 0.1169,
      "velocity": 127,
      "chip": "ym2612"
    },
    {
      "channel": 1,
      "note": 66,
      "start": 32.2758,
      "duration": 0.1466,
      "velocity": 84,
      "chip": "ym2612"
    },
    {
      "channel": 4,
      "note": 74,
      "start": 32.2773,
      "duration": 0.1452,
      "velocity": 84,
      "chip": "ym2612"
    },
    {
      "channel": 2,
      "note": 35,
      "start": 32.2799,
      "duration": 0.1122,
      "velocity": 109,
      "chip": "ym2612"
    },
    {
      "channel": 3,
      "note": 83,
      "start": 32.3942,
      "duration": 0.1233,
      "velocity": 91,
      "chip": "ym2612"
    },
    {
      "channel": 2,
      "note": 105,
      "start": 32.3981,
      "duration": 0.1169,
      "velocity": 127,
      "chip": "ym2612"
    },
    {
      "channel": 0,
      "note": 38,
      "start": 32.5167,
      "duration": 0.402,
      "velocity": 105,
      "chip": "ym2612"
    },
    {
      "channel": 1,
      "note": 66,
      "start": 32.5185,
      "duration": 0.0639,
      "velocity": 84,
      "chip": "ym2612"
    },
    {
      "channel": 4,
      "note": 74,
      "start": 32.5202,
      "duration": 0.0623,
      "velocity": 84,
      "chip": "ym2612"
    },
    {
      "channel": 2,
      "note": 35,
      "start": 32.522,
      "duration": 0.1168,
      "velocity": 127,
      "chip": "ym2612"
    },
    {
      "channel": 5,
      "note": 23,
      "start": 32.5243,
      "duration": 0.1221,
      "velocity": 120,
      "chip": "ym2612"
    },
    {
      "channel": 1,
      "note": 73,
      "start": 32.6414,
      "duration": 0.061,
      "velocity": 84,
      "chip": "ym2612"
    },
    {
      "channel": 4,
      "note": 66,
      "start": 32.6429,
      "duration": 0.0596,
      "velocity": 84,
      "chip": "ym2612"
    },
    {
      "channel": 2,
      "note": 35,
      "start": 32.6454,
      "duration": 0.1151,
      "velocity": 109,
      "chip": "ym2612"
    },
    {
      "channel": 2,
      "note": 93,
      "start": 32.7786,
      "duration": 0.1177,
      "velocity": 109,
      "chip": "ym2612"
    },
    {
      "channel": 1,
      "note": 73,
      "start": 32.8989,
      "duration": 0.0608,
      "velocity": 84,
      "chip": "ym2612"
    },
    {
      "channel": 4,
      "note": 66,
      "start": 32.9006,
      "duration": 0.0594,
      "velocity": 84,
      "chip": "ym2612"
    },
    {
      "channel": 2,
      "note": 93,
      "start": 32.9032,
      "duration": 0.0569,
      "velocity": 127,
      "chip": "ym2612"
    },
    {
      "channel": 0,
      "note": 45,
      "start": 33.0178,
      "duration": 0.3984,
      "velocity": 105,
      "chip": "ym2612"
    },
    {
      "channel": 2,
      "note": 28,
      "start": 33.021,
      "duration": 0.0598,
      "velocity": 127,
      "chip": "ym2612"
    },
    {
      "channel": 5,
      "note": 35,
      "start": 33.0233,
      "duration": 0.1207,
      "velocity": 120,
      "chip": "ym2612"
    },
    {
      "channel": 1,
      "note": 71,
      "start": 33.1391,
      "duration": 0.0608,
      "velocity": 84,
      "chip": "ym2612"
    },
    {
      "channel": 4,
      "note": 66,
      "start": 33.1406,
      "duration": 0.0594,
      "velocity": 84,
      "chip": "ym2612"
    },
    {
      "channel": 2,
      "note": 28,
      "start": 33.1431,
      "duration": 0.2408,
      "velocity": 109,
      "chip": "ym2612"
    },
    {
      "channel": 3,
      "note": 83,
      "start": 33.2574,
      "duration": 0.1193,
      "velocity": 91,
      "chip": "ym2612"
    },
    {
      "channel": 1,
      "note": 71,
      "start": 33.3969,
      "duration": 0.0602,
      "velocity": 84,
      "chip": "ym2612"
    },
    {
      "channel": 4,
      "note": 66,
      "start": 33.3985,
      "duration": 0.0588,
      "velocity": 84,
      "chip": "ym2612"
    },
    {
      "channel": 2,
      "note": 105,
      "start": 33.4001,
      "duration": 0.1165,
      "velocity": 109,
      "chip": "ym2612"
    },
    {
      "channel": 0,
      "note": 38,
      "start": 33.5183,
      "duration": 0.3954,
      "velocity": 105,
      "chip": "ym2612"
    },
    {
      "channel": 3,
      "note": 83,
      "start": 33.5199,
      "duration": 0.1198,
      "velocity": 91,
      "chip": "ym2612"
    },
    {
      "channel": 1,
      "note": 73,
      "start": 33.5216,
      "duration": 0.1471,
      "velocity": 84,
      "chip": "ym2612"
    },
    {
      "channel": 4,
      "note": 66,
      "start": 33.5232,
      "duration": 0.1458,
      "velocity": 84,
      "chip": "ym2612"
    },
    {
      "channel": 2,
      "note": 105,
      "start": 33.5247,
      "duration": 0.2358,
      "velocity": 109,
      "chip": "ym2612"
    },
    {
      "channel": 5,
      "note": 23,
      "start": 33.5272,
      "duration": 0.2423,
      "velocity": 120,
      "chip": "ym2612"
    },
    {
      "channel": 3,
      "note": 85,
      "start": 33.7627,
      "duration": 0.1172,
      "velocity": 91,
      "chip": "ym2612"
    },
    {
      "channel": 1,
      "note": 73,
      "start": 33.7644,
      "duration": 0.1446,
      "velocity": 84,
      "chip": "ym2612"
    },
    {
      "channel": 4,
      "note": 66,
      "start": 33.766,
      "duration": 0.1431,
      "velocity": 84,
      "chip": "ym2612"
    },
    {
      "channel": 2,
      "note": 93,
      "start": 33.7686,
      "duration": 0.0556,
      "velocity": 127,
      "chip": "ym2612"
    },
    {
      "channel": 2,
      "note": 28,
      "start": 33.8995,
      "duration": 0.0618,
      "velocity": 127,
      "chip": "ym2612"
    },
    {
      "channel": 0,
      "note": 45,
      "start": 34.0216,
      "duration": 0.1951,
      "velocity": 105,
      "chip": "ym2612"
    },
    {
      "channel": 3,
      "note": 86,
      "start": 34.0231,
      "duration": 0.2398,
      "velocity": 91,
      "chip": "ym2612"
    },
    {
      "channel": 1,
      "note": 69,
      "start": 34.0248,
      "duration": 0.1471,
      "velocity": 84,
      "chip": "ym2612"
    },
    {
      "channel": 4,
      "note": 66,
      "start": 34.0265,
      "duration": 0.1455,
      "velocity": 84,
      "chip": "ym2612"
    },
    {
      "channel": 2,
      "note": 28,
      "start": 34.0292,
      "duration": 0.1116,
      "velocity": 109,
      "chip": "ym2612"
    },
    {
      "channel": 5,
      "note": 35,
      "start": 34.0319,
      "duration": 0.1153,
      "velocity": 120,
      "chip": "ym2612"
    },
    {
      "channel": 2,
      "note": 105,
      "start": 34.1463,
      "duration": 0.1177,
      "velocity": 127,
      "chip": "ym2612"
    },
    {
      "channel": 0,
      "note": 45,
      "start": 34.2656,
      "duration": 0.2027,
      "velocity": 105,
      "chip": "ym2612"
    },
    {
      "channel": 3,
      "note": 88,
      "start": 34.2673,
      "duration": 0.1214,
      "velocity": 91,
      "chip": "ym2612"
    },
    {
      "channel": 1,
      "note": 73,
      "start": 34.269,
      "duration": 0.0631,
      "velocity": 84,
      "chip": "ym2612"
    },
    {
      "channel": 2,
      "note": 35,
      "start": 34.2723,
      "duration": 0.1176,
      "velocity": 109,
      "chip": "ym2612"
    },
    {
      "channel": 3,
      "note": 76,
      "start": 34.392,
      "duration": 0.2426,
      "velocity": 91,
      "chip": "ym2612"
    },
    {
      "channel": 1,
      "note": 64,
      "start": 34.3937,
      "duration": 0.1505,
      "velocity": 84,
      "chip": "ym2612"
    },
    {
      "channel": 4,
      "note": 76,
      "start": 34.3954,
      "duration": 0.149,
      "velocity": 84,
      "chip": "ym2612"
    },
    {
      "channel": 2,
      "note": 105,
      "start": 34.3982,
      "duration": 0.1179,
      "velocity": 127,
      "chip": "ym2612"
    },
    {
      "channel": 0,
      "note": 57,
      "start": 34.5332,
      "duration": 0.1924,
      "velocity": 105,
      "chip": "ym2612"
    },
    {
      "channel": 2,
      "note": 35,
      "start": 34.5364,
      "duration": 0.1144,
      "velocity": 127,
      "chip": "ym2612"
    },
    {
      "channel": 5,
      "note": 23,
      "start": 34.5387,
      "duration": 0.119,
      "velocity": 120,
      "chip": "ym2612"
    },
    {
      "channel": 3,
      "note": 85,
      "start": 34.653,
      "duration": 0.1184,
      "velocity": 91,
      "chip": "ym2612"
    },
    {
      "channel": 2,
      "note": 35,
      "start": 34.6567,
      "duration": 0.1158,
      "velocity": 109,
      "chip": "ym2612"
    },
    {
      "channel": 0,
      "note": 45,
      "start": 34.7742,
      "duration": 0.1916,
      "velocity": 105,
      "chip": "ym2612"
    },
    {
      "channel": 3,
      "note": 83,
      "start": 34.7758,
      "duration": 0.1164,
      "velocity": 91,
      "chip": "ym2612"
    },
    {
      "channel": 1,
      "note": 74,
      "start": 34.7776,
      "duration": 0.0578,
      "velocity": 84,
      "chip": "ym2612"
    },
    {
      "channel": 2,
      "note": 93,
      "start": 34.7798,
      "duration": 0.1111,
      "velocity": 109,
      "chip": "ym2612"
    },
    {
      "channel": 4,
      "note": 71,
      "start": 34.8938,
      "duration": 0.0622,
      "velocity": 84,
      "chip": "ym2612"
    },
    {
      "channel": 2,
      "note": 93,
      "start": 34.8965,
      "duration": 0.0595,
      "velocity": 127,
      "chip": "ym2612"
    },
    {
      "channel": 0,
      "note": 56,
      "start": 35.0163,
      "duration": 0.1954,
      "velocity": 105,
      "chip": "ym2612"
    },
    {
      "channel": 3,
      "note": 85,
      "start": 35.018,
      "duration": 0.2456,
      "velocity": 91,
      "chip": "ym2612"
    },
    {
      "channel": 1,
      "note": 64,
      "start": 35.0197,
      "duration": 0.1472,
      "velocity": 84,
      "chip": "ym2612"
    },
    {
      "channel": 4,
      "note": 64,
      "start": 35.0214,
      "duration": 0.1456,
      "velocity": 84,
      "chip": "ym2612"
    },
    {
      "channel": 2,
      "note": 28,
      "start": 35.0232,
      "duration": 0.0591,
      "velocity": 127,
      "chip": "ym2612"
    },
    {
      "channel": 5,
      "note": 35,
      "start": 35.0255,
      "duration": 0.1144,
      "velocity": 120,
      "chip": "ym2612"
    },
    {
      "channel": 2,
      "note": 28,
      "start": 35.1583,
      "duration": 0.238,
      "velocity": 109,
      "chip": "ym2612"
    },
    {
      "channel": 0,
      "note": 45,
      "start": 35.2768,
      "duration": 0.1922,
      "velocity": 105,
      "chip": "ym2612"
    },
    {
      "channel": 3,
      "note": 83,
      "start": 35.2785,
      "duration": 0.1167,
      "velocity": 91,
      "chip": "ym2612"
    },
    {
      "channel": 1,
      "note": 69,
      "start": 35.2803,
      "duration": 0.0582,
      "velocity": 84,
      "chip": "ym2612"
    },
    {
      "channel": 3,
      "note": 76,
      "start": 35.3985,
      "duration": 0.2425,
      "velocity": 91,
      "chip": "ym2612"
    },
    {
      "channel": 1,
      "note": 64,
      "start": 35.4002,
      "duration": 0.1898,
      "velocity": 84,
      "chip": "ym2612"
    },
    {
      "channel": 4,
      "note": 73,
      "start": 35.4018,
      "duration": 0.1884,
      "velocity": 84,
      "chip": "ym2612"
    },
    {
      "channel": 2,
      "note": 105,
      "start": 35.4036,
      "duration": 0.1115,
      "velocity": 109,
      "chip": "ym2612"
    },
    {
      "channel": 0,
      "note": 54,
      "start": 35.5167,
      "duration": 0.0838,
      "velocity": 105,
      "chip": "ym2612"
    },
    {
      "channel": 2,
      "note": 105,
      "start": 35.5199,
      "duration": 0.237,
      "velocity": 109,
      "chip": "ym2612"
    },
    {
      "channel": 5,
      "note": 23,
      "start": 35.5225,
      "duration": 0.2345,
      "velocity": 120,
      "chip": "ym2612"
    },
    {
      "channel": 0,
      "note": 52,
      "start": 35.6531,
      "duration": 0.0846,
      "velocity": 105,
      "chip": "ym2612"
    },
    {
      "channel": 3,
      "note": 83,
      "start": 35.6546,
      "duration": 0.1167,
      "velocity": 91,
      "chip": "ym2612"
    },
    {
      "channel": 0,
      "note": 52,
      "start": 35.774,
      "duration": 0.1924,
      "velocity": 105,
      "chip": "ym2612"
    },
    {
      "channel": 3,
      "note": 76,
      "start": 35.7755,
      "duration": 0.1147,
      "velocity": 91,
      "chip": "ym2612"
    },
    {
      "channel": 2,
      "note": 93,
      "start": 35.7794,
      "duration": 0.0576,
      "velocity": 127,
      "chip": "ym2612"
    },
    {
      "channel": 3,
      "note": 81,
      "start": 35.8934,
      "duration": 0.1209,
      "velocity": 91,
      "chip": "ym2612"
    },
    {
      "channel": 2,
      "note": 28,
      "start": 35.8962,
      "duration": 0.0609,
      "velocity": 127,
      "chip": "ym2612"
    },
    {
      "channel": 0,
      "note": 52,
      "start": 36.0182,
      "duration": 0.4973,
      "velocity": 105,
      "chip": "ym2612"
    },
    {
      "channel": 3,
      "note": 80,
      "start": 36.0198,
      "duration": 0.3703,
      "velocity": 91,
      "chip": "ym2612"
    },
    {
      "channel": 1,
      "note": 71,
      "start": 36.0216,
      "duration": 0.1975,
      "velocity": 84,
      "chip": "ym2612"
    },
    {
      "channel": 4,
      "note": 68,
      "start": 36.0233,
      "duration": 0.1959,
      "velocity": 84,
      "chip": "ym2612"
    },
    {
      "channel": 2,
      "note": 28,
      "start": 36.0259,
      "duration": 0.1163,
      "velocity": 109,
      "chip": "ym2612"
    },
    {
      "channel": 5,
      "note": 35,
      "start": 36.0286,
      "duration": 0.12,
      "velocity": 120,
      "chip": "ym2612"
    },
    {
      "channel": 2,
      "note": 105,
      "start": 36.1477,
      "duration": 0.1181,
      "velocity": 127,
      "chip": "ym2612"
    },
    {
      "channel": 1,
      "note": 62,
      "start": 36.284,
      "duration": 0.1924,
      "velocity": 84,
      "chip": "ym2612"
    },
    {
      "channel": 4,
      "note": 69,
      "start": 36.2856,
      "duration": 0.191,
      "velocity": 84,
      "chip": "ym2612"
    },
    {
      "channel": 2,
      "note": 35,
      "start": 36.288,
      "duration": 0.1125,
      "velocity": 109,
      "chip": "ym2612"
    },
    {
      "channel": 3,
      "note": 78,
      "start": 36.4027,
      "duration": 0.3569,
      "velocity": 91,
      "chip": "ym2612"
    },
    {
      "channel": 2,
      "note": 105,
      "start": 36.4066,
      "duration": 0.1145,
      "velocity": 127,
      "chip": "ym2612"
    },
    {
      "channel": 0,
      "note": 38,
      "start": 36.5227,
      "duration": 0.4902,
      "velocity": 105,
      "chip": "ym2612"
    },
    {
      "channel": 2,
      "note": 35,
      "start": 36.5259,
      "duration": 0.1156,
      "velocity": 127,
      "chip": "ym2612"
    },
    {
      "channel": 5,
      "note": 23,
      "start": 36.5283,
      "duration": 0.1209,
      "velocity": 120,
      "chip": "ym2612"
    },
    {
      "channel": 1,
      "note": 62,
      "start": 36.6441,
      "duration": 0.0838,
      "velocity": 84,
      "chip": "ym2612"
    },
    {
      "channel": 4,
      "note": 69,
      "start": 36.6457,
      "duration": 0.0825,
      "velocity": 84,
      "chip": "ym2612"
    },
    {
      "channel": 2,
      "note": 35,
      "start": 36.6482,
      "duration": 0.1125,
      "velocity": 109,
      "chip": "ym2612"
    },
    {
      "channel": 3,
      "note": 81,
      "start": 36.7629,
      "duration": 0.2448,
      "velocity": 91,
      "chip": "ym2612"
    },
    {
      "channel": 2,
      "note": 93,
      "start": 36.7656,
      "duration": 0.1178,
      "velocity": 109,
      "chip": "ym2612"
    },
    {
      "channel": 1,
      "note": 62,
      "start": 36.9017,
      "duration": 0.0893,
      "velocity": 84,
      "chip": "ym2612"
    },
    {
      "channel": 4,
      "note": 69,
      "start": 36.9031,
      "duration": 0.088,
      "velocity": 84,
      "chip": "ym2612"
    },
    {
      "channel": 2,
      "note": 93,
      "start": 36.9057,
      "duration": 0.0578,
      "velocity": 127,
      "chip": "ym2612"
    },
    {
      "channel": 0,
      "note": 45,
      "start": 37.0231,
      "duration": 0.2471,
      "velocity": 105,
      "chip": "ym2612"
    },
    {
      "channel": 3,
      "note": 85,
      "start": 37.0247,
      "duration": 0.2456,
      "velocity": 91,
      "chip": "ym2612"
    },
    {
      "channel": 1,
      "note": 62,
      "start": 37.0265,
      "duration": 0.1933,
      "velocity": 84,
      "chip": "ym2612"
    },
    {
      "channel": 4,
      "note": 69,
      "start": 37.0282,
      "duration": 0.1917,
      "velocity": 84,
      "chip": "ym2612"
    },
    {
      "channel": 2,
      "note": 28,
      "start": 37.0299,
      "duration": 0.0594,
      "velocity": 127,
      "chip": "ym2612"
    },
    {
      "channel": 5,
      "note": 35,
      "start": 37.0322,
      "duration": 0.117,
      "velocity": 120,
      "chip": "ym2612"
    },
    {
      "channel": 2,
      "note": 28,
      "start": 37.1483,
      "duration": 0.2349,
      "velocity": 109,
      "chip": "ym2612"
    },
    {
      "channel": 2,
      "note": 105,
      "start": 37.3873,
      "duration": 0.1193,
      "velocity": 109,
      "chip": "ym2612"
    },
    {
      "channel": 0,
      "note": 40,
      "start": 37.5268,
      "duration": 0.0501,
      "velocity": 105,
      "chip": "ym2612"
    },
    {
      "channel": 3,
      "note": 83,
      "start": 37.5285,
      "duration": 0.4913,
      "velocity": 91,
      "chip": "ym2612"
    },
    {
      "channel": 1,
      "note": 64,
      "start": 37.5302,
      "duration": 0.1927,
      "velocity": 84,
      "chip": "ym2612"
    },
    {
      "channel": 4,
      "note": 71,
      "start": 37.5319,
      "duration": 0.1912,
      "velocity": 84,
      "chip": "ym2612"
    },
    {
      "channel": 2,
      "note": 105,
      "start": 37.5337,
      "duration": 0.2326,
      "velocity": 109,
      "chip": "ym2612"
    },
    {
      "channel": 5,
      "note": 23,
      "start": 37.5363,
      "duration": 0.2397,
      "velocity": 120,
      "chip": "ym2612"
    },
    {
      "channel": 0,
      "note": 46,
      "start": 37.5798,
      "duration": 0.4281,
      "velocity": 105,
      "chip": "ym2612"
    },
    {
      "channel": 2,
      "note": 93,
      "start": 37.7716,
      "duration": 0.0614,
      "velocity": 127,
      "chip": "ym2612"
    },
    {
      "channel": 2,
      "note": 28,
      "start": 37.8906,
      "duration": 0.062,
      "velocity": 127,
      "chip": "ym2612"
    },
    {
      "channel": 0,
      "note": 47,
      "start": 38.0301,
      "duration": 0.195,
      "velocity": 105,
      "chip": "ym2612"
    },
    {
      "channel": 3,
      "note": 85,
      "start": 38.0318,
      "duration": 0.1195,
      "velocity": 91,
      "chip": "ym2612"
    },
    {
      "channel": 1,
      "note": 69,
      "start": 38.0335,
      "duration": 0.1469,
      "velocity": 84,
      "chip": "ym2612"
    },
    {
      "channel": 4,
      "note": 73,
      "start": 38.0351,
      "duration": 0.1455,
      "velocity": 84,
      "chip": "ym2612"
    },
    {
      "channel": 2,
      "note": 28,
      "start": 38.0377,
      "duration": 0.1117,
      "velocity": 109,
      "chip": "ym2612"
    },
    {
      "channel": 5,
      "note": 35,
      "start": 38.0404,
      "duration": 0.1149,
      "velocity": 120,
      "chip": "ym2612"
    },
    {
      "channel": 2,
      "note": 105,
      "start": 38.1544,
      "duration": 0.1188,
      "velocity": 127,
      "chip": "ym2612"
    },
    {
      "channel": 0,
      "note": 45,
      "start": 38.2748,
      "duration": 0.1962,
      "velocity": 105,
      "chip": "ym2612"
    },
    {
      "channel": 3,
      "note": 81,
      "start": 38.2763,
      "duration": 0.1209,
      "velocity": 91,
      "chip": "ym2612"
    },
    {
      "channel": 1,
      "note": 69,
      "start": 38.278,
      "duration": 0.1483,
      "velocity": 84,
      "chip": "ym2612"
    },
    {
      "channel": 4,
      "note": 64,
      "start": 38.2795,
      "duration": 0.1469,
      "velocity": 84,
      "chip": "ym2612"
    },
    {
      "channel": 2,
      "note": 35,
      "start": 38.2821,
      "duration": 0.1133,
      "velocity": 109,
      "chip": "ym2612"
    },
    {
      "channel": 2,
      "note": 105,
      "start": 38.4002,
      "duration": 0.1186,
      "velocity": 127,
      "chip": "ym2612"
    },
    {
      "channel": 5,
      "note": 23,
      "start": 38.5198,
      "duration": 0.1195,
      "velocity": 120,
      "chip": "ym2612"
    },
    {
      "channel": 0,
      "note": 45,
      "start": 38.6581,
      "duration": 0.0874,
      "velocity": 105,
      "chip": "ym2612"
    },
    {
      "channel": 3,
      "note": 81,
      "start": 38.6595,
      "duration": 0.1207,
      "velocity": 91,
      "chip": "ym2612"
    },
    {
      "channel": 1,
      "note": 69,
      "start": 38.6613,
      "duration": 0.0623,
      "velocity": 84,
      "chip": "ym2612"
    },
    {
      "channel": 4,
      "note": 64,
      "start": 38.6628,
      "duration": 0.061,
      "velocity": 84,
      "chip": "ym2612"
    },
    {
      "channel": 5,
      "note": 46,
      "start": 38.6648,
      "duration": 0.1139,
      "velocity": 120,
      "chip": "ym2612"
    },
    {
      "channel": 5,
      "note": 46,
      "start": 38.7828,
      "duration": 0.1283,
      "velocity": 120,
      "chip": "ym2612"
    },
    {
      "channel": 0,
      "note": 45,
      "start": 38.9037,
      "duration": 0.0876,
      "velocity": 105,
      "chip": "ym2612"
    },
    {
      "channel": 3,
      "note": 81,
      "start": 38.9052,
      "duration": 0.1218,
      "velocity": 91,
      "chip": "ym2612"
    },
    {
      "channel": 1,
      "note": 69,
      "start": 38.907,
      "duration": 0.0625,
      "velocity": 84,
      "chip": "ym2612"
    },
    {
      "channel": 4,
      "note": 64,
      "start": 38.9085,
      "duration": 0.0612,
      "velocity": 84,
      "chip": "ym2612"
    },
    {
      "channel": 2,
      "note": 35,
      "start": 38.9102,
      "duration": 0.0596,
      "velocity": 127,
      "chip": "ym2612"
    },
    {
      "channel": 0,
      "note": 45,
      "start": 39.0307,
      "duration": 0.1952,
      "velocity": 105,
      "chip": "ym2612"
    },
    {
      "channel": 3,
      "note": 81,
      "start": 39.0321,
      "duration": 0.1198,
      "velocity": 91,
      "chip": "ym2612"
    },
    {
      "channel": 1,
      "note": 69,
      "start": 39.0339,
      "duration": 0.1471,
      "velocity": 84,
      "chip": "ym2612"
    },
    {
      "channel": 4,
      "note": 64,
      "start": 39.0354,
      "duration": 0.1459,
      "velocity": 84,
      "chip": "ym2612"
    },
    {
      "channel": 2,
      "note": 28,
      "start": 39.0369,
      "duration": 0.0595,
      "velocity": 127,
      "chip": "ym2612"
    },
    {
      "channel": 5,
      "note": 40,
      "start": 39.0384,
      "duration": 0.1118,
      "velocity": 120,
      "chip": "ym2612"
    },
    {
      "channel": 5,
      "note": 24,
      "start": 39.1556,
      "duration": 0.2443,
      "velocity": 82,
      "chip": "ym2612"
    },
    {
      "channel": 1,
      "note": 69,
      "start": 39.291,
      "duration": 0.0901,
      "velocity": 84,
      "chip": "ym2612"
    },
    {
      "channel": 4,
      "note": 64,
      "start": 39.2927,
      "duration": 0.0886,
      "velocity": 84,
      "chip": "ym2612"
    },
    {
      "channel": 1,
      "note": 85,
      "start": 39.4119,
      "duration": 0.0894,
      "velocity": 84,
      "chip": "ym2612"
    },
    {
      "channel": 4,
      "note": 88,
      "start": 39.4136,
      "duration": 0.0878,
      "velocity": 84,
      "chip": "ym2612"
    },
    {
      "channel": 5,
      "note": 35,
      "start": 39.4158,
      "duration": 0.1149,
      "velocity": 82,
      "chip": "ym2612"
    },
    {
      "channel": 0,
      "note": 45,
      "start": 39.5323,
      "duration": 0.0538,
      "velocity": 105,
      "chip": "ym2612"
    },
    {
      "channel": 1,
      "note": 83,
      "start": 39.5345,
      "duration": 0.0868,
      "velocity": 84,
      "chip": "ym2612"
    },
    {
      "channel": 4,
      "note": 86,
      "start": 39.5362,
      "duration": 0.0852,
      "velocity": 84,
      "chip": "ym2612"
    },
    {
      "channel": 5,
      "note": 35,
      "start": 39.5383,
      "duration": 0.2311,
      "velocity": 82,
      "chip": "ym2612"
    },
    {
      "channel": 0,
      "note": 51,
      "start": 39.5983,
      "duration": 0.4265,
      "velocity": 105,
      "chip": "ym2612"
    },
    {
      "channel": 1,
      "note": 81,
      "start": 39.6511,
      "duration": 0.0903,
      "velocity": 84,
      "chip": "ym2612"
    },
    {
      "channel": 4,
      "note": 85,
      "start": 39.6527,
      "duration": 0.0889,
      "velocity": 84,
      "chip": "ym2612"
    },
    {
      "channel": 1,
      "note": 79,
      "start": 39.7721,
      "duration": 0.0894,
      "velocity": 84,
      "chip": "ym2612"
    },
    {
      "channel": 4,
      "note": 83,
      "start": 39.7738,
      "duration": 0.0878,
      "velocity": 84,
      "chip": "ym2612"
    },
    {
      "channel": 5,
      "note": 35,
      "start": 39.776,
      "duration": 0.2414,
      "velocity": 82,
      "chip": "ym2612"
    },
    {
      "channel": 1,
      "note": 78,
      "start": 39.9086,
      "duration": 0.0901,
      "velocity": 84,
      "chip": "ym2612"
    },
    {
      "channel": 4,
      "note": 81,
      "start": 39.9102,
      "duration": 0.0886,
      "velocity": 84,
      "chip": "ym2612"
    },
    {
      "channel": 0,
      "note": 52,
      "start": 40.0316,
      "duration": 0.1949,
      "velocity": 105,
      "chip": "ym2612"
    },
    {
      "channel": 3,
      "note": 81,
      "start": 40.0342,
      "duration": 0.3643,
      "velocity": 107,
      "chip": "ym2612"
    },
    {
      "channel": 1,
      "note": 76,
      "start": 40.036,
      "duration": 0.1172,
      "velocity": 84,
      "chip": "ym2612"
    },
    {
      "channel": 2,
      "note": 28,
      "start": 40.0394,
      "duration": 0.1113,
      "velocity": 109,
      "chip": "ym2612"
    },
    {
      "channel": 5,
      "note": 28,
      "start": 40.0422,
      "duration": 0.1144,
      "velocity": 120,
      "chip": "ym2612"
    },
    {
      "channel": 2,
      "note": 105,
      "start": 40.1557,
      "duration": 0.1171,
      "velocity": 127,
      "chip": "ym2612"
    },
    {
      "channel": 4,
      "note": 79,
      "start": 40.2759,
      "duration": 0.1179,
      "velocity": 84,
      "chip": "ym2612"
    },
    {
      "channel": 2,
      "note": 35,
      "start": 40.2788,
      "duration": 0.1152,
      "velocity": 109,
      "chip": "ym2612"
    },
    {
      "channel": 5,
      "note": 24,
      "start": 40.2814,
      "duration": 0.1127,
      "velocity": 120,
      "chip": "ym2612"
    },
    {
      "channel": 3,
      "note": 90,
      "start": 40.4109,
      "duration": 0.2392,
      "velocity": 107,
      "chip": "ym2612"
    },
    {
      "channel": 2,
      "note": 105,
      "start": 40.4147,
      "duration": 0.1159,
      "velocity": 127,
      "chip": "ym2612"
    },
    {
      "channel": 0,
      "note": 38,
      "start": 40.5322,
      "duration": 0.1917,
      "velocity": 105,
      "chip": "ym2612"
    },
    {
      "channel": 1,
      "note": 78,
      "start": 40.5345,
      "duration": 0.1159,
      "velocity": 84,
      "chip": "ym2612"
    },
    {
      "channel": 2,
      "note": 35,
      "start": 40.5366,
      "duration": 0.1117,
      "velocity": 127,
      "chip": "ym2612"
    },
    {
      "channel": 5,
      "note": 35,
      "start": 40.539,
      "duration": 0.1147,
      "velocity": 120,
      "chip": "ym2612"
    },
    {
      "channel": 2,
      "note": 35,
      "start": 40.6528,
      "duration": 0.1185,
      "velocity": 109,
      "chip": "ym2612"
    },
    {
      "channel": 3,
      "note": 86,
      "start": 40.7735,
      "duration": 0.2369,
      "velocity": 107,
      "chip": "ym2612"
    },
    {
      "channel": 4,
      "note": 81,
      "start": 40.7757,
      "duration": 0.0526,
      "velocity": 84,
      "chip": "ym2612"
    },
    {
      "channel": 2,
      "note": 93,
      "start": 40.7774,
      "duration": 0.1116,
      "velocity": 109,
      "chip": "ym2612"
    },
    {
      "channel": 5,
      "note": 24,
      "start": 40.7798,
      "duration": 0.1161,
      "velocity": 120,
      "chip": "ym2612"
    },
    {
      "channel": 1,
      "note": 86,
      "start": 40.8917,
      "duration": 0.0562,
      "velocity": 84,
      "chip": "ym2612"
    },
    {
      "channel": 2,
      "note": 93,
      "start": 40.895,
      "duration": 0.0596,
      "velocity": 127,
      "chip": "ym2612"
    },
    {
      "channel": 0,
      "note": 45,
      "start": 41.0293,
      "duration": 0.0835,
      "velocity": 105,
      "chip": "ym2612"
    },
    {
      "channel": 2,
      "note": 28,
      "start": 41.0324,
      "duration": 0.0597,
      "velocity": 127,
      "chip": "ym2612"
    },
    {
      "channel": 5,
      "note": 35,
      "start": 41.0347,
      "duration": 0.1227,
      "velocity": 120,
      "chip": "ym2612"
    },
    {
      "channel": 0,
      "note": 50,
      "start": 41.1501,
      "duration": 0.0828,
      "velocity": 105,
      "chip": "ym2612"
    },
    {
      "channel": 3,
      "note": 81,
      "start": 41.1515,
      "duration": 0.1176,
      "velocity": 107,
      "chip": "ym2612"
    },
    {
      "channel": 4,
      "note": 78,
      "start": 41.1537,
      "duration": 0.052,
      "velocity": 84,
      "chip": "ym2612"
    },
    {
      "channel": 2,
      "note": 28,
      "start": 41.1564,
      "duration": 0.1139,
      "velocity": 109,
      "chip": "ym2612"
    },
    {
      "channel": 0,
      "note": 50,
      "start": 41.2684,
      "duration": 0.0845,
      "velocity": 105,
      "chip": "ym2612"
    },
    {
      "channel": 5,
      "note": 24,
      "start": 41.2721,
      "duration": 0.1241,
      "velocity": 120,
      "chip": "ym2612"
    },
    {
      "channel": 0,
      "note": 50,
      "start": 41.3902,
      "duration": 0.1915,
      "velocity": 105,
      "chip": "ym2612"
    },
    {
      "channel": 3,
      "note": 78,
      "start": 41.3917,
      "duration": 0.115,
      "velocity": 107,
      "chip": "ym2612"
    },
    {
      "channel": 1,
      "note": 81,
      "start": 41.3934,
      "duration": 0.052,
      "velocity": 84,
      "chip": "ym2612"
    },
    {
      "channel": 2,
      "note": 105,
      "start": 41.3956,
      "duration": 0.113,
      "velocity": 109,
      "chip": "ym2612"
    },
    {
      "channel": 3,
      "note": 78,
      "start": 41.5107,
      "duration": 0.243,
      "velocity": 107,
      "chip": "ym2612"
    },
    {
      "channel": 4,
      "note": 86,
      "start": 41.513,
      "duration": 0.116,
      "velocity": 84,
      "chip": "ym2612"
    },
    {
      "channel": 2,
      "note": 105,
      "start": 41.5148,
      "duration": 0.1143,
      "velocity": 109,
      "chip": "ym2612"
    },
    {
      "channel": 5,
      "note": 35,
      "start": 41.5173,
      "duration": 0.112,
      "velocity": 120,
      "chip": "ym2612"
    },
    {
      "channel": 0,
      "note": 50,
      "start": 41.6454,
      "duration": 0.0907,
      "velocity": 105,
      "chip": "ym2612"
    },
    {
      "channel": 0,
      "note": 49,
      "start": 41.7687,
      "duration": 0.1961,
      "velocity": 105,
      "chip": "ym2612"
    },
    {
      "channel": 3,
      "note": 86,
      "start": 41.7704,
      "duration": 0.2408,
      "velocity": 107,
      "chip": "ym2612"
    },
    {
      "channel": 1,
      "note": 78,
      "start": 41.7721,
      "duration": 0.1194,
      "velocity": 84,
      "chip": "ym2612"
    },
    {
      "channel": 2,
      "note": 93,
      "start": 41.7754,
      "duration": 0.0599,
      "velocity": 127,
      "chip": "ym2612"
    },
    {
      "channel": 5,
      "note": 24,
      "start": 41.7779,
      "duration": 0.1157,
      "velocity": 120,
      "chip": "ym2612"
    },
    {
      "channel": 2,
      "note": 28,
      "start": 41.8929,
      "duration": 0.0624,
      "velocity": 127,
      "chip": "ym2612"
    },
    {
      "channel": 0,
      "note": 47,
      "start": 42.0151,
      "duration": 0.1956,
      "velocity": 105,
      "chip": "ym2612"
    },
    {
      "channel": 3,
      "note": 90,
      "start": 42.0167,
      "duration": 0.366,
      "velocity": 107,
      "chip": "ym2612"
    },
    {
      "channel": 4,
      "note": 81,
      "start": 42.019,
      "duration": 0.1189,
      "velocity": 84,
      "chip": "ym2612"
    },
    {
      "channel": 2,
      "note": 28,
      "start": 42.0216,
      "duration": 0.1132,
      "velocity": 109,
      "chip": "ym2612"
    },
    {
      "channel": 5,
      "note": 35,
      "start": 42.0243,
      "duration": 0.1165,
      "velocity": 120,
      "chip": "ym2612"
    },
    {
      "channel": 2,
      "note": 105,
      "start": 42.14,
      "duration": 0.1184,
      "velocity": 127,
      "chip": "ym2612"
    },
    {
      "channel": 1,
      "note": 86,
      "start": 42.2767,
      "duration": 0.1192,
      "velocity": 84,
      "chip": "ym2612"
    },
    {
      "channel": 2,
      "note": 35,
      "start": 42.28,
      "duration": 0.1129,
      "velocity": 109,
      "chip": "ym2612"
    },
    {
      "channel": 5,
      "note": 24,
      "start": 42.2826,
      "duration": 0.1168,
      "velocity": 120,
      "chip": "ym2612"
    },
    {
      "channel": 3,
      "note": 88,
      "start": 42.395,
      "duration": 0.2393,
      "velocity": 107,
      "chip": "ym2612"
    },
    {
      "channel": 2,
      "note": 105,
      "start": 42.3985,
      "duration": 0.1163,
      "velocity": 127,
      "chip": "ym2612"
    },
    {
      "channel": 0,
      "note": 45,
      "start": 42.5165,
      "duration": 0.1917,
      "velocity": 105,
      "chip": "ym2612"
    },
    {
      "channel": 4,
      "note": 76,
      "start": 42.5191,
      "duration": 0.1159,
      "velocity": 84,
      "chip": "ym2612"
    },
    {
      "channel": 2,
      "note": 35,
      "start": 42.5209,
      "duration": 0.1116,
      "velocity": 127,
      "chip": "ym2612"
    },
    {
      "channel": 5,
      "note": 35,
      "start": 42.5232,
      "duration": 0.1148,
      "velocity": 120,
      "chip": "ym2612"
    },
    {
      "channel": 2,
      "note": 35,
      "start": 42.637,
      "duration": 0.1188,
      "velocity": 109,
      "chip": "ym2612"
    },
    {
      "channel": 3,
      "note": 85,
      "start": 42.7747,
      "duration": 0.2395,
      "velocity": 107,
      "chip": "ym2612"
    },
    {
      "channel": 1,
      "note": 81,
      "start": 42.7765,
      "duration": 0.0527,
      "velocity": 84,
      "chip": "ym2612"
    },
    {
      "channel": 2,
      "note": 93,
      "start": 42.7787,
      "duration": 0.1118,
      "velocity": 109,
      "chip": "ym2612"
    },
    {
      "channel": 5,
      "note": 24,
      "start": 42.781,
      "duration": 0.1163,
      "velocity": 120,
      "chip": "ym2612"
    },
    {
      "channel": 4,
      "note": 85,
      "start": 42.8936,
      "duration": 0.0562,
      "velocity": 84,
      "chip": "ym2612"
    },
    {
      "channel": 2,
      "note": 93,
      "start": 42.8964,
      "duration": 0.0595,
      "velocity": 127,
      "chip": "ym2612"
    },
    {
      "channel": 0,
      "note": 40,
      "start": 43.0134,
      "duration": 0.0836,
      "velocity": 105,
      "chip": "ym2612"
    },
    {
      "channel": 2,
      "note": 28,
      "start": 43.0163,
      "duration": 0.0598,
      "velocity": 127,
      "chip": "ym2612"
    },
    {
      "channel": 5,
      "note": 35,
      "start": 43.0186,
      "duration": 0.121,
      "velocity": 120,
      "chip": "ym2612"
    },
    {
      "channel": 0,
      "note": 45,
      "start": 43.1334,
      "duration": 0.0836,
      "velocity": 105,
      "chip": "ym2612"
    },
    {
      "channel": 1,
      "note": 76,
      "start": 43.1354,
      "duration": 0.0541,
      "velocity": 84,
      "chip": "ym2612"
    },
    {
      "channel": 2,
      "note": 28,
      "start": 43.1387,
      "duration": 0.1183,
      "velocity": 80,
      "chip": "ym2612"
    },
    {
      "channel": 0,
      "note": 45,
      "start": 43.2537,
      "duration": 0.0834,
      "velocity": 105,
      "chip": "ym2612"
    },
    {
      "channel": 4,
      "note": 81,
      "start": 43.2562,
      "duration": 0.0538,
      "velocity": 84,
      "chip": "ym2612"
    },
    {
      "channel": 5,
      "note": 24,
      "start": 43.2588,
      "duration": 0.1151,
      "velocity": 120,
      "chip": "ym2612"
    },
    {
      "channel": 0,
      "note": 45,
      "start": 43.3896,
      "duration": 0.0848,
      "velocity": 105,
      "chip": "ym2612"
    },
    {
      "channel": 2,
      "note": 116,
      "start": 43.3926,
      "duration": 0.1177,
      "velocity": 80,
      "chip": "ym2612"
    },
    {
      "channel": 3,
      "note": 81,
      "start": 43.5124,
      "duration": 0.5,
      "velocity": 107,
      "chip": "ym2612"
    },
    {
      "channel": 1,
      "note": 85,
      "start": 43.5142,
      "duration": 0.0583,
      "velocity": 84,
      "chip": "ym2612"
    },
    {
      "channel": 2,
      "note": 117,
      "start": 43.5161,
      "duration": 0.1234,
      "velocity": 80,
      "chip": "ym2612"
    },
    {
      "channel": 5,
      "note": 35,
      "start": 43.5188,
      "duration": 0.1209,
      "velocity": 120,
      "chip": "ym2612"
    },
    {
      "channel": 0,
      "note": 45,
      "start": 43.636,
      "duration": 0.09,
      "velocity": 105,
      "chip": "ym2612"
    },
    {
      "channel": 4,
      "note": 81,
      "start": 43.6387,
      "duration": 0.0545,
      "velocity": 84,
      "chip": "ym2612"
    },
    {
      "channel": 0,
      "note": 43,
      "start": 43.7581,
      "duration": 0.1966,
      "velocity": 105,
      "chip": "ym2612"
    },
    {
      "channel": 1,
      "note": 85,
      "start": 43.7602,
      "duration": 0.1211,
      "velocity": 84,
      "chip": "ym2612"
    },
    {
      "channel": 2,
      "note": 116,
      "start": 43.7624,
      "duration": 0.1165,
      "velocity": 80,
      "chip": "ym2612"
    },
    {
      "channel": 5,
      "note": 24,
      "start": 43.7649,
      "duration": 0.1199,
      "velocity": 120,
      "chip": "ym2612"
    },
    {
      "channel": 2,
      "note": 117,
      "start": 43.8839,
      "duration": 0.0613,
      "velocity": 127,
      "chip": "ym2612"
    },
    {
      "channel": 0,
      "note": 42,
      "start": 44.022,
      "duration": 0.1957,
      "velocity": 105,
      "chip": "ym2612"
    },
    {
      "channel": 3,
      "note": 80,
      "start": 44.0237,
      "duration": 0.3582,
      "velocity": 107,
      "chip": "ym2612"
    },
    {
      "channel": 4,
      "note": 85,
      "start": 44.0259,
      "duration": 0.119,
      "velocity": 84,
      "chip": "ym2612"
    },
    {
      "channel": 2,
      "note": 28,
      "start": 44.0285,
      "duration": 0.1133,
      "velocity": 109,
      "chip": "ym2612"
    },
    {
      "channel": 5,
      "note": 35,
      "start": 44.0312,
      "duration": 0.1167,
      "velocity": 120,
      "chip": "ym2612"
    },
    {
      "channel": 2,
      "note": 105,
      "start": 44.147,
      "duration": 0.117,
      "velocity": 127,
      "chip": "ym2612"
    },
    {
      "channel": 1,
      "note": 76,
      "start": 44.2666,
      "duration": 0.1193,
      "velocity": 84,
      "chip": "ym2612"
    },
    {
      "channel": 2,
      "note": 35,
      "start": 44.2698,
      "duration": 0.113,
      "velocity": 109,
      "chip": "ym2612"
    },
    {
      "channel": 5,
      "note": 24,
      "start": 44.2725,
      "duration": 0.1168,
      "velocity": 120,
      "chip": "ym2612"
    },
    {
      "channel": 3,
      "note": 90,
      "start": 44.385,
      "duration": 0.2393,
      "velocity": 107,
      "chip": "ym2612"
    },
    {
      "channel": 2,
      "note": 105,
      "start": 44.3885,
      "duration": 0.1172,
      "velocity": 127,
      "chip": "ym2612"
    },
    {
      "channel": 0,
      "note": 38,
      "start": 44.5238,
      "duration": 0.1914,
      "velocity": 105,
      "chip": "ym2612"
    },
    {
      "channel": 4,
      "note": 78,
      "start": 44.5264,
      "duration": 0.116,
      "velocity": 84,
      "chip": "ym2612"
    },
    {
      "channel": 2,
      "note": 35,
      "start": 44.5281,
      "duration": 0.1115,
      "velocity": 127,
      "chip": "ym2612"
    },
    {
      "channel": 5,
      "note": 35,
      "start": 44.5305,
      "duration": 0.1149,
      "velocity": 120,
      "chip": "ym2612"
    },
    {
      "channel": 2,
      "note": 35,
      "start": 44.6443,
      "duration": 0.1181,
      "velocity": 109,
      "chip": "ym2612"
    },
    {
      "channel": 3,
      "note": 86,
      "start": 44.7646,
      "duration": 0.2396,
      "velocity": 107,
      "chip": "ym2612"
    },
    {
      "channel": 1,
      "note": 81,
      "start": 44.7663,
      "duration": 0.0527,
      "velocity": 84,
      "chip": "ym2612"
    },
    {
      "channel": 2,
      "note": 93,
      "start": 44.7685,
      "duration": 0.1118,
      "velocity": 109,
      "chip": "ym2612"
    },
    {
      "channel": 5,
      "note": 24,
      "start": 44.7709,
      "duration": 0.1163,
      "velocity": 120,
      "chip": "ym2612"
    },
    {
      "channel": 4,
      "note": 86,
      "start": 44.8835,
      "duration": 0.0562,
      "velocity": 84,
      "chip": "ym2612"
    },
    {
      "channel": 2,
      "note": 93,
      "start": 44.8863,
      "duration": 0.0596,
      "velocity": 127,
      "chip": "ym2612"
    },
    {
      "channel": 0,
      "note": 45,
      "start": 45.0034,
      "duration": 0.0835,
      "velocity": 105,
      "chip": "ym2612"
    },
    {
      "channel": 2,
      "note": 28,
      "start": 45.0062,
      "duration": 0.0597,
      "velocity": 127,
      "chip": "ym2612"
    },
    {
      "channel": 5,
      "note": 35,
      "start": 45.0086,
      "duration": 0.1151,
      "velocity": 120,
      "chip": "ym2612"
    },
    {
      "channel": 0,
      "note": 50,
      "start": 45.1413,
      "duration": 0.0828,
      "velocity": 105,
      "chip": "ym2612"
    },
    {
      "channel": 3,
      "note": 81,
      "start": 45.1428,
      "duration": 0.1176,
      "velocity": 107,
      "chip": "ym2612"
    },
    {
      "channel": 1,
      "note": 78,
      "start": 45.1445,
      "duration": 0.052,
      "velocity": 84,
      "chip": "ym2612"
    },
    {
      "channel": 2,
      "note": 28,
      "start": 45.1477,
      "duration": 0.1139,
      "velocity": 109,
      "chip": "ym2612"
    },
    {
      "channel": 0,
      "note": 50,
      "start": 45.2597,
      "duration": 0.0845,
      "velocity": 105,
      "chip": "ym2612"
    },
    {
      "channel": 5,
      "note": 24,
      "start": 45.2634,
      "duration": 0.1241,
      "velocity": 120,
      "chip": "ym2612"
    },
    {
      "channel": 0,
      "note": 50,
      "start": 45.3814,
      "duration": 0.1915,
      "velocity": 105,
      "chip": "ym2612"
    },
    {
      "channel": 3,
      "note": 78,
      "start": 45.3829,
      "duration": 0.115,
      "velocity": 107,
      "chip": "ym2612"
    },
    {
      "channel": 4,
      "note": 81,
      "start": 45.3851,
      "duration": 0.052,
      "velocity": 84,
      "chip": "ym2612"
    },
    {
      "channel": 2,
      "note": 105,
      "start": 45.3868,
      "duration": 0.113,
      "velocity": 109,
      "chip": "ym2612"
    },
    {
      "channel": 3,
      "note": 78,
      "start": 45.502,
      "duration": 0.2373,
      "velocity": 107,
      "chip": "ym2612"
    },
    {
      "channel": 1,
      "note": 86,
      "start": 45.5037,
      "duration": 0.1172,
      "velocity": 84,
      "chip": "ym2612"
    },
    {
      "channel": 2,
      "note": 105,
      "start": 45.5059,
      "duration": 0.1156,
      "velocity": 109,
      "chip": "ym2612"
    },
    {
      "channel": 5,
      "note": 35,
      "start": 45.5085,
      "duration": 0.1132,
      "velocity": 120,
      "chip": "ym2612"
    },
    {
      "channel": 0,
      "note": 50,
      "start": 45.6195,
      "duration": 0.0849,
      "velocity": 105,
      "chip": "ym2612"
    },
    {
      "channel": 0,
      "note": 49,
      "start": 45.76,
      "duration": 0.1961,
      "velocity": 105,
      "chip": "ym2612"
    },
    {
      "channel": 3,
      "note": 86,
      "start": 45.7616,
      "duration": 0.2397,
      "velocity": 107,
      "chip": "ym2612"
    },
    {
      "channel": 4,
      "note": 78,
      "start": 45.7639,
      "duration": 0.1194,
      "velocity": 84,
      "chip": "ym2612"
    },
    {
      "channel": 2,
      "note": 93,
      "start": 45.7667,
      "duration": 0.0599,
      "velocity": 127,
      "chip": "ym2612"
    },
    {
      "channel": 5,
      "note": 24,
      "start": 45.7692,
      "duration": 0.1157,
      "velocity": 120,
      "chip": "ym2612"
    },
    {
      "channel": 2,
      "note": 28,
      "start": 45.8842,
      "duration": 0.0623,
      "velocity": 127,
      "chip": "ym2612"
    },
    {
      "channel": 0,
      "note": 47,
      "start": 46.0052,
      "duration": 0.1968,
      "velocity": 105,
      "chip": "ym2612"
    },
    {
      "channel": 3,
      "note": 90,
      "start": 46.0069,
      "duration": 0.9847,
      "velocity": 107,
      "chip": "ym2612"
    },
    {
      "channel": 2,
      "note": 28,
      "start": 46.0106,
      "duration": 0.1155,
      "velocity": 109,
      "chip": "ym2612"
    },
    {
      "channel": 5,
      "note": 35,
      "start": 46.0132,
      "duration": 0.1192,
      "velocity": 120,
      "chip": "ym2612"
    },
    {
      "channel": 2,
      "note": 105,
      "start": 46.1315,
      "duration": 0.1168,
      "velocity": 127,
      "chip": "ym2612"
    },
    {
      "channel": 1,
      "note": 81,
      "start": 46.251,
      "duration": 0.1178,
      "velocity": 84,
      "chip": "ym2612"
    },
    {
      "channel": 2,
      "note": 35,
      "start": 46.2541,
      "duration": 0.1153,
      "velocity": 109,
      "chip": "ym2612"
    },
    {
      "channel": 5,
      "note": 24,
      "start": 46.2568,
      "duration": 0.1128,
      "velocity": 120,
      "chip": "ym2612"
    },
    {
      "channel": 2,
      "note": 105,
      "start": 46.3888,
      "duration": 0.1173,
      "velocity": 127,
      "chip": "ym2612"
    },
    {
      "channel": 0,
      "note": 45,
      "start": 46.5078,
      "duration": 0.1917,
      "velocity": 105,
      "chip": "ym2612"
    },
    {
      "channel": 4,
      "note": 86,
      "start": 46.5104,
      "duration": 0.1161,
      "velocity": 84,
      "chip": "ym2612"
    },
    {
      "channel": 2,
      "note": 35,
      "start": 46.5122,
      "duration": 0.1115,
      "velocity": 127,
      "chip": "ym2612"
    },
    {
      "channel": 5,
      "note": 35,
      "start": 46.5145,
      "duration": 0.115,
      "velocity": 120,
      "chip": "ym2612"
    },
    {
      "channel": 2,
      "note": 35,
      "start": 46.6285,
      "duration": 0.1171,
      "velocity": 109,
      "chip": "ym2612"
    },
    {
      "channel": 1,
      "note": 86,
      "start": 46.7483,
      "duration": 0.1179,
      "velocity": 84,
      "chip": "ym2612"
    },
    {
      "channel": 2,
      "note": 93,
      "start": 46.7505,
      "duration": 0.1163,
      "velocity": 109,
      "chip": "ym2612"
    },
    {
      "channel": 5,
      "note": 24,
      "start": 46.7529,
      "duration": 0.1141,
      "velocity": 120,
      "chip": "ym2612"
    },
    {
      "channel": 2,
      "note": 93,
      "start": 46.8863,
      "duration": 0.0609,
      "velocity": 127,
      "chip": "ym2612"
    },
    {
      "channel": 0,
      "note": 40,
      "start": 47.0055,
      "duration": 0.0828,
      "velocity": 105,
      "chip": "ym2612"
    },
    {
      "channel": 4,
      "note": 85,
      "start": 47.0082,
      "duration": 0.1171,
      "velocity": 84,
      "chip": "ym2612"
    },
    {
      "channel": 2,
      "note": 28,
      "start": 47.0099,
      "duration": 0.0574,
      "velocity": 127,
      "chip": "ym2612"
    },
    {
      "channel": 5,
      "note": 35,
      "start": 47.0123,
      "duration": 0.1159,
      "velocity": 120,
      "chip": "ym2612"
    },
    {
      "channel": 0,
      "note": 45,
      "start": 47.1237,
      "duration": 0.0847,
      "velocity": 105,
      "chip": "ym2612"
    },
    {
      "channel": 2,
      "note": 28,
      "start": 47.1272,
      "duration": 0.121,
      "velocity": 109,
      "chip": "ym2612"
    },
    {
      "channel": 0,
      "note": 45,
      "start": 47.2446,
      "duration": 0.0838,
      "velocity": 105,
      "chip": "ym2612"
    },
    {
      "channel": 1,
      "note": 83,
      "start": 47.2469,
      "duration": 0.1179,
      "velocity": 84,
      "chip": "ym2612"
    },
    {
      "channel": 5,
      "note": 24,
      "start": 47.2501,
      "duration": 0.1168,
      "velocity": 120,
      "chip": "ym2612"
    },
    {
      "channel": 0,
      "note": 45,
      "start": 47.3636,
      "duration": 0.0849,
      "velocity": 105,
      "chip": "ym2612"
    },
    {
      "channel": 2,
      "note": 105,
      "start": 47.3662,
      "duration": 0.1186,
      "velocity": 109,
      "chip": "ym2612"
    },
    {
      "channel": 4,
      "note": 81,
      "start": 47.5034,
      "duration": 0.1193,
      "velocity": 84,
      "chip": "ym2612"
    },
    {
      "channel": 2,
      "note": 105,
      "start": 47.5051,
      "duration": 0.1178,
      "velocity": 109,
      "chip": "ym2612"
    },
    {
      "channel": 5,
      "note": 35,
      "start": 47.5078,
      "duration": 0.1153,
      "velocity": 120,
      "chip": "ym2612"
    },
    {
      "channel": 0,
      "note": 45,
      "start": 47.6209,
      "duration": 0.0849,
      "velocity": 105,
      "chip": "ym2612"
    },
    {
      "channel": 0,
      "note": 43,
      "start": 47.7433,
      "duration": 0.197,
      "velocity": 105,
      "chip": "ym2612"
    },
    {
      "channel": 1,
      "note": 80,
      "start": 47.7454,
      "duration": 0.1216,
      "velocity": 84,
      "chip": "ym2612"
    },
    {
      "channel": 2,
      "note": 93,
      "start": 47.7487,
      "duration": 0.0621,
      "velocity": 127,
      "chip": "ym2612"
    },
    {
      "channel": 5,
      "note": 24,
      "start": 47.7512,
      "duration": 0.1179,
      "velocity": 120,
      "chip": "ym2612"
    },
    {
      "channel": 2,
      "note": 28,
      "start": 47.8684,
      "duration": 0.0624,
      "velocity": 127,
      "chip": "ym2612"
    },
    {
      "channel": 0,
      "note": 42,
      "start": 47.991,
      "duration": 0.1951,
      "velocity": 105,
      "chip": "ym2612"
    },
    {
      "channel": 3,
      "note": 88,
      "start": 47.9926,
      "duration": 0.3656,
      "velocity": 107,
      "chip": "ym2612"
    },
    {
      "channel": 4,
      "note": 78,
      "start": 47.9949,
      "duration": 0.1184,
      "velocity": 84,
      "chip": "ym2612"
    },
    {
      "channel": 2,
      "note": 28,
      "start": 47.9975,
      "duration": 0.116,
      "velocity": 109,
      "chip": "ym2612"
    },
    {
      "channel": 5,
      "note": 35,
      "start": 48.0002,
      "duration": 0.1134,
      "velocity": 120,
      "chip": "ym2612"
    },
    {
      "channel": 2,
      "note": 105,
      "start": 48.1328,
      "duration": 0.1167,
      "velocity": 127,
      "chip": "ym2612"
    },
    {
      "channel": 1,
      "note": 76,
      "start": 48.2522,
      "duration": 0.1192,
      "velocity": 84,
      "chip": "ym2612"
    },
    {
      "channel": 2,
      "note": 35,
      "start": 48.2554,
      "duration": 0.1129,
      "velocity": 109,
      "chip": "ym2612"
    },
    {
      "channel": 5,
      "note": 24,
      "start": 48.2581,
      "duration": 0.1168,
      "velocity": 120,
      "chip": "ym2612"
    },
    {
      "channel": 3,
      "note": 86,
      "start": 48.3705,
      "duration": 0.245,
      "velocity": 107,
      "chip": "ym2612"
    },
    {
      "channel": 2,
      "note": 105,
      "start": 48.374,
      "duration": 0.1163,
      "velocity": 127,
      "chip": "ym2612"
    },
    {
      "channel": 0,
      "note": 40,
      "start": 48.4919,
      "duration": 0.1917,
      "velocity": 105,
      "chip": "ym2612"
    },
    {
      "channel": 4,
      "note": 76,
      "start": 48.4946,
      "duration": 0.116,
      "velocity": 84,
      "chip": "ym2612"
    },
    {
      "channel": 2,
      "note": 35,
      "start": 48.4963,
      "duration": 0.1117,
      "velocity": 127,
      "chip": "ym2612"
    },
    {
      "channel": 5,
      "note": 35,
      "start": 48.4987,
      "duration": 0.115,
      "velocity": 120,
      "chip": "ym2612"
    },
    {
      "channel": 2,
      "note": 35,
      "start": 48.6127,
      "duration": 0.1186,
      "velocity": 109,
      "chip": "ym2612"
    },
    {
      "channel": 3,
      "note": 83,
      "start": 48.7502,
      "duration": 0.246,
      "velocity": 107,
      "chip": "ym2612"
    },
    {
      "channel": 1,
      "note": 80,
      "start": 48.7519,
      "duration": 0.0527,
      "velocity": 84,
      "chip": "ym2612"
    },
    {
      "channel": 2,
      "note": 93,
      "start": 48.7541,
      "duration": 0.1118,
      "velocity": 109,
      "chip": "ym2612"
    },
    {
      "channel": 5,
      "note": 24,
      "start": 48.7565,
      "duration": 0.1163,
      "velocity": 120,
      "chip": "ym2612"
    },
    {
      "channel": 4,
      "note": 83,
      "start": 48.8691,
      "duration": 0.0562,
      "velocity": 84,
      "chip": "ym2612"
    },
    {
      "channel": 2,
      "note": 93,
      "start": 48.8719,
      "duration": 0.0595,
      "velocity": 127,
      "chip": "ym2612"
    },
    {
      "channel": 0,
      "note": 47,
      "start": 48.9889,
      "duration": 0.0835,
      "velocity": 105,
      "chip": "ym2612"
    },
    {
      "channel": 2,
      "note": 28,
      "start": 48.992,
      "duration": 0.0595,
      "velocity": 127,
      "chip": "ym2612"
    },
    {
      "channel": 5,
      "note": 35,
      "start": 48.9944,
      "duration": 0.1227,
      "velocity": 120,
      "chip": "ym2612"
    },
    {
      "channel": 0,
      "note": 52,
      "start": 49.1098,
      "duration": 0.0828,
      "velocity": 105,
      "chip": "ym2612"
    },
    {
      "channel": 3,
      "note": 80,
      "start": 49.1112,
      "duration": 0.1161,
      "velocity": 107,
      "chip": "ym2612"
    },
    {
      "channel": 1,
      "note": 76,
      "start": 49.113,
      "duration": 0.0519,
      "velocity": 84,
      "chip": "ym2612"
    },
    {
      "channel": 2,
      "note": 28,
      "start": 49.1161,
      "duration": 0.1124,
      "velocity": 109,
      "chip": "ym2612"
    },
    {
      "channel": 0,
      "note": 52,
      "start": 49.2453,
      "duration": 0.0845,
      "velocity": 105,
      "chip": "ym2612"
    },
    {
      "channel": 5,
      "note": 24,
      "start": 49.2499,
      "duration": 0.1232,
      "velocity": 120,
      "chip": "ym2612"
    },
    {
      "channel": 0,
      "note": 52,
      "start": 49.3671,
      "duration": 0.1914,
      "velocity": 105,
      "chip": "ym2612"
    },
    {
      "channel": 3,
      "note": 76,
      "start": 49.3685,
      "duration": 0.1149,
      "velocity": 107,
      "chip": "ym2612"
    },
    {
      "channel": 4,
      "note": 80,
      "start": 49.3707,
      "duration": 0.052,
      "velocity": 84,
      "chip": "ym2612"
    },
    {
      "channel": 2,
      "note": 105,
      "start": 49.3724,
      "duration": 0.113,
      "velocity": 109,
      "chip": "ym2612"
    },
    {
      "channel": 3,
      "note": 76,
      "start": 49.4876,
      "duration": 0.2372,
      "velocity": 107,
      "chip": "ym2612"
    },
    {
      "channel": 1,
      "note": 83,
      "start": 49.4893,
      "duration": 0.0361,
      "velocity": 84,
      "chip": "ym2612"
    },
    {
      "channel": 2,
      "note": 105,
      "start": 49.4915,
      "duration": 0.1159,
      "velocity": 109,
      "chip": "ym2612"
    },
    {
      "channel": 5,
      "note": 35,
      "start": 49.4941,
      "duration": 0.1136,
      "velocity": 120,
      "chip": "ym2612"
    },
    {
      "channel": 0,
      "note": 52,
      "start": 49.6051,
      "duration": 0.0849,
      "velocity": 105,
      "chip": "ym2612"
    },
    {
      "channel": 0,
      "note": 50,
      "start": 49.7284,
      "duration": 0.196,
      "velocity": 105,
      "chip": "ym2612"
    },
    {
      "channel": 3,
      "note": 83,
      "start": 49.7301,
      "duration": 0.2406,
      "velocity": 107,
      "chip": "ym2612"
    },
    {
      "channel": 4,
      "note": 76,
      "start": 49.7323,
      "duration": 0.1193,
      "velocity": 84,
      "chip": "ym2612"
    },
    {
      "channel": 2,
      "note": 93,
      "start": 49.7351,
      "duration": 0.0599,
      "velocity": 127,
      "chip": "ym2612"
    },
    {
      "channel": 5,
      "note": 24,
      "start": 49.7377,
      "duration": 0.1146,
      "velocity": 120,
      "chip": "ym2612"
    },
    {
      "channel": 2,
      "note": 28,
      "start": 49.87,
      "duration": 0.0621,
      "velocity": 127,
      "chip": "ym2612"
    },
    {
      "channel": 0,
      "note": 47,
      "start": 49.9918,
      "duration": 0.1957,
      "velocity": 105,
      "chip": "ym2612"
    },
    {
      "channel": 3,
      "note": 86,
      "start": 49.9934,
      "duration": 0.3583,
      "velocity": 107,
      "chip": "ym2612"
    },
    {
      "channel": 1,
      "note": 80,
      "start": 49.9952,
      "duration": 0.119,
      "velocity": 84,
      "chip": "ym2612"
    },
    {
      "channel": 2,
      "note": 28,
      "start": 49.9983,
      "duration": 0.1132,
      "velocity": 109,
      "chip": "ym2612"
    },
    {
      "channel": 5,
      "note": 35,
      "start": 50.001,
      "duration": 0.1166,
      "velocity": 120,
      "chip": "ym2612"
    },
    {
      "channel": 2,
      "note": 105,
      "start": 50.1167,
      "duration": 0.1161,
      "velocity": 127,
      "chip": "ym2612"
    },
    {
      "channel": 4,
      "note": 86,
      "start": 50.236,
      "duration": 0.1203,
      "velocity": 84,
      "chip": "ym2612"
    },
    {
      "channel": 2,
      "note": 35,
      "start": 50.2387,
      "duration": 0.114,
      "velocity": 109,
      "chip": "ym2612"
    },
    {
      "channel": 3,
      "note": 85,
      "start": 50.3549,
      "duration": 0.119,
      "velocity": 107,
      "chip": "ym2612"
    },
    {
      "channel": 2,
      "note": 105,
      "start": 50.3584,
      "duration": 0.1167,
      "velocity": 127,
      "chip": "ym2612"
    },
    {
      "channel": 0,
      "note": 45,
      "start": 50.4926,
      "duration": 0.1924,
      "velocity": 105,
      "chip": "ym2612"
    },
    {
      "channel": 1,
      "note": 76,
      "start": 50.495,
      "duration": 0.1166,
      "velocity": 84,
      "chip": "ym2612"
    },
    {
      "channel": 5,
      "note": 23,
      "start": 50.4976,
      "duration": 0.1115,
      "velocity": 120,
      "chip": "ym2612"
    },
    {
      "channel": 5,
      "note": 46,
      "start": 50.6135,
      "duration": 0.1178,
      "velocity": 120,
      "chip": "ym2612"
    },
    {
      "channel": 3,
      "note": 88,
      "start": 50.7334,
      "duration": 0.2462,
      "velocity": 107,
      "chip": "ym2612"
    },
    {
      "channel": 4,
      "note": 81,
      "start": 50.7357,
      "duration": 0.0537,
      "velocity": 84,
      "chip": "ym2612"
    },
    {
      "channel": 5,
      "note": 46,
      "start": 50.7379,
      "duration": 0.1183,
      "velocity": 120,
      "chip": "ym2612"
    },
    {
      "channel": 1,
      "note": 85,
      "start": 50.8529,
      "duration": 0.0561,
      "velocity": 84,
      "chip": "ym2612"
    },
    {
      "channel": 2,
      "note": 35,
      "start": 50.8554,
      "duration": 0.0603,
      "velocity": 127,
      "chip": "ym2612"
    },
    {
      "channel": 0,
      "note": 40,
      "start": 50.9733,
      "duration": 0.089,
      "velocity": 105,
      "chip": "ym2612"
    },
    {
      "channel": 2,
      "note": 28,
      "start": 50.9764,
      "duration": 0.0654,
      "velocity": 127,
      "chip": "ym2612"
    },
    {
      "channel": 5,
      "note": 40,
      "start": 50.9779,
      "duration": 0.1155,
      "velocity": 120,
      "chip": "ym2612"
    },
    {
      "channel": 0,
      "note": 45,
      "start": 51.1102,
      "duration": 0.0837,
      "velocity": 105,
      "chip": "ym2612"
    },
    {
      "channel": 4,
      "note": 76,
      "start": 51.1127,
      "duration": 0.0541,
      "velocity": 84,
      "chip": "ym2612"
    },
    {
      "channel": 5,
      "note": 24,
      "start": 51.116,
      "duration": 0.2318,
      "velocity": 82,
      "chip": "ym2612"
    },
    {
      "channel": 0,
      "note": 45,
      "start": 51.2295,
      "duration": 0.0844,
      "velocity": 105,
      "chip": "ym2612"
    },
    {
      "channel": 1,
      "note": 81,
      "start": 51.2314,
      "duration": 0.0549,
      "velocity": 84,
      "chip": "ym2612"
    },
    {
      "channel": 0,
      "note": 45,
      "start": 51.3495,
      "duration": 0.0846,
      "velocity": 105,
      "chip": "ym2612"
    },
    {
      "channel": 5,
      "note": 35,
      "start": 51.3531,
      "duration": 0.1159,
      "velocity": 82,
      "chip": "ym2612"
    },
    {
      "channel": 3,
      "note": 81,
      "start": 51.4711,
      "duration": 0.4895,
      "velocity": 107,
      "chip": "ym2612"
    },
    {
      "channel": 4,
      "note": 85,
      "start": 51.4733,
      "duration": 0.0536,
      "velocity": 84,
      "chip": "ym2612"
    },
    {
      "channel": 5,
      "note": 35,
      "start": 51.4754,
      "duration": 0.2356,
      "velocity": 82,
      "chip": "ym2612"
    },
    {
      "channel": 0,
      "note": 45,
      "start": 51.6069,
      "duration": 0.0845,
      "velocity": 105,
      "chip": "ym2612"
    },
    {
      "channel": 1,
      "note": 81,
      "start": 51.609,
      "duration": 0.0547,
      "velocity": 84,
      "chip": "ym2612"
    },
    {
      "channel": 0,
      "note": 47,
      "start": 51.7279,
      "duration": 0.1922,
      "velocity": 105,
      "chip": "ym2612"
    },
    {
      "channel": 4,
      "note": 85,
      "start": 51.7306,
      "duration": 0.1166,
      "velocity": 84,
      "chip": "ym2612"
    },
    {
      "channel": 5,
      "note": 35,
      "start": 51.7328,
      "duration": 0.2347,
      "velocity": 82,
      "chip": "ym2612"
    },
    {
      "channel": 0,
      "note": 49,
      "start": 51.9701,
      "duration": 0.1959,
      "velocity": 105,
      "chip": "ym2612"
    },
    {
      "channel": 3,
      "note": 80,
      "start": 51.9717,
      "duration": 0.3662,
      "velocity": 107,
      "chip": "ym2612"
    },
    {
      "channel": 1,
      "note": 85,
      "start": 51.9735,
      "duration": 0.1191,
      "velocity": 84,
      "chip": "ym2612"
    },
    {
      "channel": 2,
      "note": 28,
      "start": 51.9766,
      "duration": 0.1134,
      "velocity": 109,
      "chip": "ym2612"
    },
    {
      "channel": 5,
      "note": 28,
      "start": 51.9795,
      "duration": 0.1166,
      "velocity": 120,
      "chip": "ym2612"
    },
    {
      "channel": 2,
      "note": 105,
      "start": 52.0952,
      "duration": 0.1185,
      "velocity": 127,
      "chip": "ym2612"
    },
    {
      "channel": 4,
      "note": 76,
      "start": 52.2326,
      "duration": 0.1191,
      "velocity": 84,
      "chip": "ym2612"
    },
    {
      "channel": 2,
      "note": 35,
      "start": 52.2352,
      "duration": 0.1129,
      "velocity": 109,
      "chip": "ym2612"
    },
    {
      "channel": 5,
      "note": 24,
      "start": 52.2379,
      "duration": 0.1167,
      "velocity": 120,
      "chip": "ym2612"
    },
    {
      "channel": 3,
      "note": 78,
      "start": 52.3502,
      "duration": 0.3585,
      "velocity": 107,
      "chip": "ym2612"
    },
    {
      "channel": 2,
      "note": 105,
      "start": 52.3537,
      "duration": 0.1163,
      "velocity": 127,
      "chip": "ym2612"
    },
    {
      "channel": 0,
      "note": 47,
      "start": 52.4717,
      "duration": 0.1917,
      "velocity": 105,
      "chip": "ym2612"
    },
    {
      "channel": 1,
      "note": 78,
      "start": 52.4739,
      "duration": 0.1161,
      "velocity": 84,
      "chip": "ym2612"
    },
    {
      "channel": 2,
      "note": 35,
      "start": 52.4761,
      "duration": 0.1115,
      "velocity": 127,
      "chip": "ym2612"
    },
    {
      "channel": 5,
      "note": 35,
      "start": 52.4785,
      "duration": 0.115,
      "velocity": 120,
      "chip": "ym2612"
    },
    {
      "channel": 2,
      "note": 35,
      "start": 52.5926,
      "duration": 0.1181,
      "velocity": 109,
      "chip": "ym2612"
    },
    {
      "channel": 3,
      "note": 80,
      "start": 52.7129,
      "duration": 0.2427,
      "velocity": 107,
      "chip": "ym2612"
    },
    {
      "channel": 4,
      "note": 81,
      "start": 52.7151,
      "duration": 0.0527,
      "velocity": 84,
      "chip": "ym2612"
    },
    {
      "channel": 2,
      "note": 93,
      "start": 52.7168,
      "duration": 0.1145,
      "velocity": 109,
      "chip": "ym2612"
    },
    {
      "channel": 5,
      "note": 24,
      "start": 52.7191,
      "duration": 0.1123,
      "velocity": 120,
      "chip": "ym2612"
    },
    {
      "channel": 1,
      "note": 86,
      "start": 52.8485,
      "duration": 0.056,
      "velocity": 84,
      "chip": "ym2612"
    },
    {
      "channel": 2,
      "note": 93,
      "start": 52.8518,
      "duration": 0.0595,
      "velocity": 127,
      "chip": "ym2612"
    },
    {
      "channel": 0,
      "note": 42,
      "start": 52.9695,
      "duration": 0.0885,
      "velocity": 105,
      "chip": "ym2612"
    },
    {
      "channel": 3,
      "note": 81,
      "start": 52.9712,
      "duration": 0.1183,
      "velocity": 107,
      "chip": "ym2612"
    },
    {
      "channel": 2,
      "note": 28,
      "start": 52.9739,
      "duration": 0.0575,
      "velocity": 127,
      "chip": "ym2612"
    },
    {
      "channel": 5,
      "note": 35,
      "start": 52.9763,
      "duration": 0.1183,
      "velocity": 120,
      "chip": "ym2612"
    },
    {
      "channel": 0,
      "note": 47,
      "start": 53.0887,
      "duration": 0.0893,
      "velocity": 105,
      "chip": "ym2612"
    },
    {
      "channel": 4,
      "note": 78,
      "start": 53.0909,
      "duration": 0.0543,
      "velocity": 84,
      "chip": "ym2612"
    },
    {
      "channel": 2,
      "note": 28,
      "start": 53.0936,
      "duration": 0.1187,
      "velocity": 109,
      "chip": "ym2612"
    },
    {
      "channel": 0,
      "note": 47,
      "start": 53.2088,
      "duration": 0.0836,
      "velocity": 105,
      "chip": "ym2612"
    },
    {
      "channel": 3,
      "note": 83,
      "start": 53.2103,
      "duration": 0.237,
      "velocity": 107,
      "chip": "ym2612"
    },
    {
      "channel": 5,
      "note": 24,
      "start": 53.2141,
      "duration": 0.1151,
      "velocity": 120,
      "chip": "ym2612"
    },
    {
      "channel": 0,
      "note": 47,
      "start": 53.3461,
      "duration": 0.1922,
      "velocity": 105,
      "chip": "ym2612"
    },
    {
      "channel": 1,
      "note": 81,
      "start": 53.348,
      "duration": 0.054,
      "velocity": 84,
      "chip": "ym2612"
    },
    {
      "channel": 2,
      "note": 105,
      "start": 53.3502,
      "duration": 0.1149,
      "velocity": 109,
      "chip": "ym2612"
    },
    {
      "channel": 3,
      "note": 78,
      "start": 53.4673,
      "duration": 0.2372,
      "velocity": 107,
      "chip": "ym2612"
    },
    {
      "channel": 4,
      "note": 86,
      "start": 53.4695,
      "duration": 0.1172,
      "velocity": 84,
      "chip": "ym2612"
    },
    {
      "channel": 2,
      "note": 105,
      "start": 53.4713,
      "duration": 0.1156,
      "velocity": 109,
      "chip": "ym2612"
    },
    {
      "channel": 5,
      "note": 35,
      "start": 53.4739,
      "duration": 0.1132,
      "velocity": 120,
      "chip": "ym2612"
    },
    {
      "channel": 0,
      "note": 47,
      "start": 53.5849,
      "duration": 0.085,
      "velocity": 105,
      "chip": "ym2612"
    },
    {
      "channel": 0,
      "note": 49,
      "start": 53.7081,
      "duration": 0.1961,
      "velocity": 105,
      "chip": "ym2612"
    },
    {
      "channel": 3,
      "note": 80,
      "start": 53.7098,
      "duration": 0.2407,
      "velocity": 107,
      "chip": "ym2612"
    },
    {
      "channel": 1,
      "note": 78,
      "start": 53.7115,
      "duration": 0.1195,
      "velocity": 84,
      "chip": "ym2612"
    },
    {
      "channel": 2,
      "note": 93,
      "start": 53.7148,
      "duration": 0.06,
      "velocity": 127,
      "chip": "ym2612"
    },
    {
      "channel": 5,
      "note": 24,
      "start": 53.7174,
      "duration": 0.1158,
      "velocity": 120,
      "chip": "ym2612"
    },
    {
      "channel": 2,
      "note": 28,
      "start": 53.8324,
      "duration": 0.0623,
      "velocity": 127,
      "chip": "ym2612"
    },
    {
      "channel": 0,
      "note": 50,
      "start": 53.9717,
      "duration": 0.1956,
      "velocity": 105,
      "chip": "ym2612"
    },
    {
      "channel": 3,
      "note": 81,
      "start": 53.9733,
      "duration": 0.7368,
      "velocity": 107,
      "chip": "ym2612"
    },
    {
      "channel": 4,
      "note": 81,
      "start": 53.9756,
      "duration": 0.1189,
      "velocity": 84,
      "chip": "ym2612"
    },
    {
      "channel": 2,
      "note": 28,
      "start": 53.9784,
      "duration": 0.113,
      "velocity": 109,
      "chip": "ym2612"
    },
    {
      "channel": 5,
      "note": 35,
      "start": 53.981,
      "duration": 0.1164,
      "velocity": 120,
      "chip": "ym2612"
    },
    {
      "channel": 2,
      "note": 105,
      "start": 54.0966,
      "duration": 0.1161,
      "velocity": 127,
      "chip": "ym2612"
    },
    {
      "channel": 1,
      "note": 86,
      "start": 54.2153,
      "duration": 0.1189,
      "velocity": 84,
      "chip": "ym2612"
    },
    {
      "channel": 2,
      "note": 35,
      "start": 54.2186,
      "duration": 0.113,
      "velocity": 109,
      "chip": "ym2612"
    },
    {
      "channel": 2,
      "note": 105,
      "start": 54.3367,
      "duration": 0.1219,
      "velocity": 127,
      "chip": "ym2612"
    },
    {
      "channel": 0,
      "note": 40,
      "start": 54.4551,
      "duration": 0.1925,
      "velocity": 105,
      "chip": "ym2612"
    },
    {
      "channel": 4,
      "note": 76,
      "start": 54.4578,
      "duration": 0.1171,
      "velocity": 84,
      "chip": "ym2612"
    },
    {
      "channel": 5,
      "note": 23,
      "start": 54.4596,
      "duration": 0.1159,
      "velocity": 120,
      "chip": "ym2612"
    },
    {
      "channel": 5,
      "note": 46,
      "start": 54.5938,
      "duration": 0.1174,
      "velocity": 120,
      "chip": "ym2612"
    },
    {
      "channel": 3,
      "note": 83,
      "start": 54.7134,
      "duration": 0.1167,
      "velocity": 107,
      "chip": "ym2612"
    },
    {
      "channel": 1,
      "note": 83,
      "start": 54.7151,
      "duration": 0.0536,
      "velocity": 84,
      "chip": "ym2612"
    },
    {
      "channel": 5,
      "note": 46,
      "start": 54.7176,
      "duration": 0.1207,
      "velocity": 120,
      "chip": "ym2612"
    },
    {
      "channel": 3,
      "note": 80,
      "start": 54.8332,
      "duration": 0.1169,
      "velocity": 107,
      "chip": "ym2612"
    },
    {
      "channel": 4,
      "note": 88,
      "start": 54.8354,
      "duration": 0.1214,
      "velocity": 84,
      "chip": "ym2612"
    },
    {
      "channel": 2,
      "note": 35,
      "start": 54.8374,
      "duration": 0.0581,
      "velocity": 127,
      "chip": "ym2612"
    },
    {
      "channel": 0,
      "note": 47,
      "start": 54.9537,
      "duration": 0.0885,
      "velocity": 105,
      "chip": "ym2612"
    },
    {
      "channel": 3,
      "note": 78,
      "start": 54.9554,
      "duration": 0.2417,
      "velocity": 107,
      "chip": "ym2612"
    },
    {
      "channel": 2,
      "note": 28,
      "start": 54.9578,
      "duration": 0.0578,
      "velocity": 127,
      "chip": "ym2612"
    },
    {
      "channel": 5,
      "note": 40,
      "start": 54.9593,
      "duration": 0.1199,
      "velocity": 120,
      "chip": "ym2612"
    },
    {
      "channel": 0,
      "note": 52,
      "start": 55.0729,
      "duration": 0.0894,
      "velocity": 105,
      "chip": "ym2612"
    },
    {
      "channel": 1,
      "note": 83,
      "start": 55.0749,
      "duration": 0.0541,
      "velocity": 84,
      "chip": "ym2612"
    },
    {
      "channel": 2,
      "note": 28,
      "start": 55.0782,
      "duration": 0.1146,
      "velocity": 80,
      "chip": "ym2612"
    },
    {
      "channel": 0,
      "note": 52,
      "start": 55.2095,
      "duration": 0.09,
      "velocity": 105,
      "chip": "ym2612"
    },
    {
      "channel": 4,
      "note": 80,
      "start": 55.2119,
      "duration": 0.119,
      "velocity": 84,
      "chip": "ym2612"
    },
    {
      "channel": 0,
      "note": 52,
      "start": 55.3293,
      "duration": 0.1933,
      "velocity": 105,
      "chip": "ym2612"
    },
    {
      "channel": 2,
      "note": 116,
      "start": 55.3319,
      "duration": 0.117,
      "velocity": 80,
      "chip": "ym2612"
    },
    {
      "channel": 3,
      "note": 76,
      "start": 55.4511,
      "duration": 0.4837,
      "velocity": 107,
      "chip": "ym2612"
    },
    {
      "channel": 1,
      "note": 76,
      "start": 55.4528,
      "duration": 0.1176,
      "velocity": 84,
      "chip": "ym2612"
    },
    {
      "channel": 2,
      "note": 117,
      "start": 55.455,
      "duration": 0.1161,
      "velocity": 80,
      "chip": "ym2612"
    },
    {
      "channel": 0,
      "note": 52,
      "start": 55.5691,
      "duration": 0.0849,
      "velocity": 105,
      "chip": "ym2612"
    },
    {
      "channel": 0,
      "note": 50,
      "start": 55.7074,
      "duration": 0.1925,
      "velocity": 105,
      "chip": "ym2612"
    },
    {
      "channel": 4,
      "note": 80,
      "start": 55.7101,
      "duration": 0.1169,
      "velocity": 84,
      "chip": "ym2612"
    },
    {
      "channel": 2,
      "note": 116,
      "start": 55.7118,
      "duration": 0.1124,
      "velocity": 80,
      "chip": "ym2612"
    },
    {
      "channel": 2,
      "note": 117,
      "start": 55.8291,
      "duration": 0.0615,
      "velocity": 127,
      "chip": "ym2612"
    },
    {
      "channel": 0,
      "note": 47,
      "start": 55.952,
      "duration": 0.0909,
      "velocity": 105,
      "chip": "ym2612"
    },
    {
      "channel": 3,
      "note": 76,
      "start": 55.9544,
      "duration": 0.1975,
      "velocity": 91,
      "chip": "ym2612"
    },
    {
      "channel": 1,
      "note": 83,
      "start": 55.9563,
      "duration": 0.1503,
      "velocity": 84,
      "chip": "ym2612"
    },
    {
      "channel": 4,
      "note": 76,
      "start": 55.9581,
      "duration": 0.1488,
      "velocity": 84,
      "chip": "ym2612"
    },
    {
      "channel": 2,
      "note": 28,
      "start": 55.9607,
      "duration": 0.1158,
      "velocity": 109,
      "chip": "ym2612"
    },
    {
      "channel": 5,
      "note": 23,
      "start": 55.9625,
      "duration": 0.1207,
      "velocity": 120,
      "chip": "ym2612"
    },
    {
      "channel": 0,
      "note": 45,
      "start": 56.0782,
      "duration": 0.0847,
      "velocity": 105,
      "chip": "ym2612"
    },
    {
      "channel": 2,
      "note": 105,
      "start": 56.0823,
      "duration": 0.1165,
      "velocity": 127,
      "chip": "ym2612"
    },
    {
      "channel": 3,
      "note": 81,
      "start": 56.201,
      "duration": 0.0882,
      "velocity": 91,
      "chip": "ym2612"
    },
    {
      "channel": 1,
      "note": 69,
      "start": 56.2027,
      "duration": 0.1499,
      "velocity": 84,
      "chip": "ym2612"
    },
    {
      "channel": 4,
      "note": 73,
      "start": 56.2043,
      "duration": 0.1485,
      "velocity": 84,
      "chip": "ym2612"
    },
    {
      "channel": 2,
      "note": 35,
      "start": 56.2068,
      "duration": 0.1182,
      "velocity": 109,
      "chip": "ym2612"
    },
    {
      "channel": 3,
      "note": 81,
      "start": 56.3418,
      "duration": 0.0847,
      "velocity": 91,
      "chip": "ym2612"
    },
    {
      "channel": 2,
      "note": 105,
      "start": 56.3457,
      "duration": 0.116,
      "velocity": 127,
      "chip": "ym2612"
    },
    {
      "channel": 1,
      "note": 69,
      "start": 56.4643,
      "duration": 0.0599,
      "velocity": 84,
      "chip": "ym2612"
    },
    {
      "channel": 4,
      "note": 73,
      "start": 56.466,
      "duration": 0.0583,
      "velocity": 84,
      "chip": "ym2612"
    },
    {
      "channel": 2,
      "note": 35,
      "start": 56.4675,
      "duration": 0.1141,
      "velocity": 127,
      "chip": "ym2612"
    },
    {
      "channel": 5,
      "note": 23,
      "start": 56.4698,
      "duration": 0.1207,
      "velocity": 120,
      "chip": "ym2612"
    },
    {
      "channel": 3,
      "note": 81,
      "start": 56.5837,
      "duration": 0.116,
      "velocity": 91,
      "chip": "ym2612"
    },
    {
      "channel": 1,
      "note": 68,
      "start": 56.5856,
      "duration": 0.0587,
      "velocity": 84,
      "chip": "ym2612"
    },
    {
      "channel": 4,
      "note": 73,
      "start": 56.5871,
      "duration": 0.0574,
      "velocity": 84,
      "chip": "ym2612"
    },
    {
      "channel": 2,
      "note": 35,
      "start": 56.5896,
      "duration": 0.1111,
      "velocity": 109,
      "chip": "ym2612"
    },
    {
      "channel": 0,
      "note": 45,
      "start": 56.7025,
      "duration": 0.0837,
      "velocity": 105,
      "chip": "ym2612"
    },
    {
      "channel": 3,
      "note": 81,
      "start": 56.7041,
      "duration": 0.9803,
      "velocity": 91,
      "chip": "ym2612"
    },
    {
      "channel": 2,
      "note": 93,
      "start": 56.7069,
      "duration": 0.1147,
      "velocity": 109,
      "chip": "ym2612"
    },
    {
      "channel": 0,
      "note": 49,
      "start": 56.8233,
      "duration": 0.0887,
      "velocity": 105,
      "chip": "ym2612"
    },
    {
      "channel": 1,
      "note": 68,
      "start": 56.8253,
      "duration": 0.059,
      "velocity": 84,
      "chip": "ym2612"
    },
    {
      "channel": 4,
      "note": 73,
      "start": 56.827,
      "duration": 0.0576,
      "velocity": 84,
      "chip": "ym2612"
    },
    {
      "channel": 2,
      "note": 93,
      "start": 56.8296,
      "duration": 0.0551,
      "velocity": 127,
      "chip": "ym2612"
    },
    {
      "channel": 0,
      "note": 49,
      "start": 56.9596,
      "duration": 0.0896,
      "velocity": 105,
      "chip": "ym2612"
    },
    {
      "channel": 2,
      "note": 28,
      "start": 56.9629,
      "duration": 0.0598,
      "velocity": 127,
      "chip": "ym2612"
    },
    {
      "channel": 5,
      "note": 35,
      "start": 56.9652,
      "duration": 0.1227,
      "velocity": 120,
      "chip": "ym2612"
    },
    {
      "channel": 0,
      "note": 40,
      "start": 57.081,
      "duration": 0.0884,
      "velocity": 105,
      "chip": "ym2612"
    },
    {
      "channel": 1,
      "note": 66,
      "start": 57.0829,
      "duration": 0.0589,
      "velocity": 84,
      "chip": "ym2612"
    },
    {
      "channel": 4,
      "note": 73,
      "start": 57.0844,
      "duration": 0.0576,
      "velocity": 84,
      "chip": "ym2612"
    },
    {
      "channel": 2,
      "note": 28,
      "start": 57.0869,
      "duration": 0.2316,
      "velocity": 109,
      "chip": "ym2612"
    },
    {
      "channel": 1,
      "note": 66,
      "start": 57.3212,
      "duration": 0.0609,
      "velocity": 84,
      "chip": "ym2612"
    },
    {
      "channel": 4,
      "note": 73,
      "start": 57.3228,
      "duration": 0.0594,
      "velocity": 84,
      "chip": "ym2612"
    },
    {
      "channel": 2,
      "note": 105,
      "start": 57.3244,
      "duration": 0.115,
      "velocity": 109,
      "chip": "ym2612"
    },
    {
      "channel": 1,
      "note": 68,
      "start": 57.442,
      "duration": 0.1457,
      "velocity": 84,
      "chip": "ym2612"
    },
    {
      "channel": 4,
      "note": 73,
      "start": 57.4435,
      "duration": 0.1444,
      "velocity": 84,
      "chip": "ym2612"
    },
    {
      "channel": 2,
      "note": 105,
      "start": 57.4451,
      "duration": 0.2405,
      "velocity": 109,
      "chip": "ym2612"
    },
    {
      "channel": 5,
      "note": 23,
      "start": 57.4476,
      "duration": 0.2382,
      "velocity": 120,
      "chip": "ym2612"
    },
    {
      "channel": 3,
      "note": 85,
      "start": 57.6988,
      "duration": 0.2382,
      "velocity": 91,
      "chip": "ym2612"
    },
    {
      "channel": 1,
      "note": 68,
      "start": 57.7008,
      "duration": 0.1443,
      "velocity": 84,
      "chip": "ym2612"
    },
    {
      "channel": 4,
      "note": 73,
      "start": 57.7025,
      "duration": 0.1427,
      "velocity": 84,
      "chip": "ym2612"
    },
    {
      "channel": 2,
      "note": 93,
      "start": 57.705,
      "duration": 0.0554,
      "velocity": 127,
      "chip": "ym2612"
    },
    {
      "channel": 2,
      "note": 28,
      "start": 57.8183,
      "duration": 0.062,
      "velocity": 127,
      "chip": "ym2612"
    },
    {
      "channel": 0,
      "note": 40,
      "start": 57.941,
      "duration": 0.0861,
      "velocity": 105,
      "chip": "ym2612"
    },
    {
      "channel": 3,
      "note": 76,
      "start": 57.9426,
      "duration": 0.1936,
      "velocity": 91,
      "chip": "ym2612"
    },
    {
      "channel": 1,
      "note": 64,
      "start": 57.9443,
      "duration": 0.1466,
      "velocity": 84,
      "chip": "ym2612"
    },
    {
      "channel": 4,
      "note": 73,
      "start": 57.946,
      "duration": 0.1451,
      "velocity": 84,
      "chip": "ym2612"
    },
    {
      "channel": 2,
      "note": 28,
      "start": 57.9487,
      "duration": 0.1148,
      "velocity": 109,
      "chip": "ym2612"
    },
    {
      "channel": 5,
      "note": 35,
      "start": 57.9513,
      "duration": 0.1122,
      "velocity": 120,
      "chip": "ym2612"
    },
    {
      "channel": 0,
      "note": 47,
      "start": 58.0798,
      "duration": 0.0844,
      "velocity": 105,
      "chip": "ym2612"
    },
    {
      "channel": 2,
      "note": 105,
      "start": 58.0839,
      "duration": 0.1163,
      "velocity": 127,
      "chip": "ym2612"
    },
    {
      "channel": 3,
      "note": 83,
      "start": 58.2024,
      "duration": 0.0882,
      "velocity": 91,
      "chip": "ym2612"
    },
    {
      "channel": 1,
      "note": 71,
      "start": 58.2041,
      "duration": 0.15,
      "velocity": 84,
      "chip": "ym2612"
    },
    {
      "channel": 4,
      "note": 74,
      "start": 58.2057,
      "duration": 0.1487,
      "velocity": 84,
      "chip": "ym2612"
    },
    {
      "channel": 2,
      "note": 35,
      "start": 58.2082,
      "duration": 0.1156,
      "velocity": 109,
      "chip": "ym2612"
    },
    {
      "channel": 3,
      "note": 83,
      "start": 58.326,
      "duration": 0.0846,
      "velocity": 91,
      "chip": "ym2612"
    },
    {
      "channel": 2,
      "note": 105,
      "start": 58.3299,
      "duration": 0.116,
      "velocity": 127,
      "chip": "ym2612"
    },
    {
      "channel": 1,
      "note": 71,
      "start": 58.4485,
      "duration": 0.0599,
      "velocity": 84,
      "chip": "ym2612"
    },
    {
      "channel": 4,
      "note": 74,
      "start": 58.4501,
      "duration": 0.0584,
      "velocity": 84,
      "chip": "ym2612"
    },
    {
      "channel": 2,
      "note": 35,
      "start": 58.4517,
      "duration": 0.1141,
      "velocity": 127,
      "chip": "ym2612"
    },
    {
      "channel": 5,
      "note": 23,
      "start": 58.454,
      "duration": 0.1206,
      "velocity": 120,
      "chip": "ym2612"
    },
    {
      "channel": 3,
      "note": 83,
      "start": 58.5679,
      "duration": 0.1172,
      "velocity": 91,
      "chip": "ym2612"
    },
    {
      "channel": 1,
      "note": 69,
      "start": 58.5696,
      "duration": 0.0588,
      "velocity": 84,
      "chip": "ym2612"
    },
    {
      "channel": 4,
      "note": 74,
      "start": 58.5711,
      "duration": 0.0575,
      "velocity": 84,
      "chip": "ym2612"
    },
    {
      "channel": 2,
      "note": 35,
      "start": 58.5737,
      "duration": 0.1127,
      "velocity": 109,
      "chip": "ym2612"
    },
    {
      "channel": 0,
      "note": 47,
      "start": 58.7038,
      "duration": 0.0837,
      "velocity": 105,
      "chip": "ym2612"
    },
    {
      "channel": 3,
      "note": 83,
      "start": 58.7055,
      "duration": 0.9743,
      "velocity": 91,
      "chip": "ym2612"
    },
    {
      "channel": 2,
      "note": 93,
      "start": 58.7083,
      "duration": 0.1147,
      "velocity": 109,
      "chip": "ym2612"
    },
    {
      "channel": 0,
      "note": 45,
      "start": 58.8247,
      "duration": 0.083,
      "velocity": 105,
      "chip": "ym2612"
    },
    {
      "channel": 1,
      "note": 69,
      "start": 58.8266,
      "duration": 0.0591,
      "velocity": 84,
      "chip": "ym2612"
    },
    {
      "channel": 4,
      "note": 74,
      "start": 58.8284,
      "duration": 0.0575,
      "velocity": 84,
      "chip": "ym2612"
    },
    {
      "channel": 2,
      "note": 93,
      "start": 58.831,
      "duration": 0.0551,
      "velocity": 127,
      "chip": "ym2612"
    },
    {
      "channel": 0,
      "note": 45,
      "start": 58.9439,
      "duration": 0.0838,
      "velocity": 105,
      "chip": "ym2612"
    },
    {
      "channel": 2,
      "note": 28,
      "start": 58.9471,
      "duration": 0.0601,
      "velocity": 127,
      "chip": "ym2612"
    },
    {
      "channel": 5,
      "note": 35,
      "start": 58.9494,
      "duration": 0.1226,
      "velocity": 120,
      "chip": "ym2612"
    },
    {
      "channel": 0,
      "note": 42,
      "start": 59.0651,
      "duration": 0.0884,
      "velocity": 105,
      "chip": "ym2612"
    },
    {
      "channel": 1,
      "note": 68,
      "start": 59.0671,
      "duration": 0.0588,
      "velocity": 84,
      "chip": "ym2612"
    },
    {
      "channel": 4,
      "note": 74,
      "start": 59.0686,
      "duration": 0.0574,
      "velocity": 84,
      "chip": "ym2612"
    },
    {
      "channel": 2,
      "note": 28,
      "start": 59.071,
      "duration": 0.2388,
      "velocity": 109,
      "chip": "ym2612"
    },
    {
      "channel": 1,
      "note": 68,
      "start": 59.3226,
      "duration": 0.0609,
      "velocity": 84,
      "chip": "ym2612"
    },
    {
      "channel": 4,
      "note": 74,
      "start": 59.3242,
      "duration": 0.0594,
      "velocity": 84,
      "chip": "ym2612"
    },
    {
      "channel": 2,
      "note": 105,
      "start": 59.3258,
      "duration": 0.1149,
      "velocity": 109,
      "chip": "ym2612"
    },
    {
      "channel": 1,
      "note": 69,
      "start": 59.4434,
      "duration": 0.1457,
      "velocity": 84,
      "chip": "ym2612"
    },
    {
      "channel": 4,
      "note": 74,
      "start": 59.4449,
      "duration": 0.1444,
      "velocity": 84,
      "chip": "ym2612"
    },
    {
      "channel": 2,
      "note": 105,
      "start": 59.4464,
      "duration": 0.2344,
      "velocity": 109,
      "chip": "ym2612"
    },
    {
      "channel": 5,
      "note": 23,
      "start": 59.449,
      "duration": 0.2443,
      "velocity": 120,
      "chip": "ym2612"
    },
    {
      "channel": 3,
      "note": 86,
      "start": 59.683,
      "duration": 0.1148,
      "velocity": 91,
      "chip": "ym2612"
    },
    {
      "channel": 1,
      "note": 69,
      "start": 59.6848,
      "duration": 0.1501,
      "velocity": 84,
      "chip": "ym2612"
    },
    {
      "channel": 4,
      "note": 74,
      "start": 59.6864,
      "duration": 0.1486,
      "velocity": 84,
      "chip": "ym2612"
    },
    {
      "channel": 2,
      "note": 93,
      "start": 59.689,
      "duration": 0.0555,
      "velocity": 127,
      "chip": "ym2612"
    },
    {
      "channel": 3,
      "note": 85,
      "start": 59.801,
      "duration": 0.1192,
      "velocity": 91,
      "chip": "ym2612"
    },
    {
      "channel": 2,
      "note": 28,
      "start": 59.8037,
      "duration": 0.0666,
      "velocity": 127,
      "chip": "ym2612"
    },
    {
      "channel": 0,
      "note": 42,
      "start": 59.9426,
      "duration": 0.0915,
      "velocity": 105,
      "chip": "ym2612"
    },
    {
      "channel": 3,
      "note": 86,
      "start": 59.9442,
      "duration": 0.1261,
      "velocity": 91,
      "chip": "ym2612"
    },
    {
      "channel": 1,
      "note": 66,
      "start": 59.9461,
      "duration": 0.1519,
      "velocity": 84,
      "chip": "ym2612"
    },
    {
      "channel": 4,
      "note": 74,
      "start": 59.9478,
      "duration": 0.1504,
      "velocity": 84,
      "chip": "ym2612"
    },
    {
      "channel": 2,
      "note": 28,
      "start": 59.9505,
      "duration": 0.1175,
      "velocity": 109,
      "chip": "ym2612"
    },
    {
      "channel": 5,
      "note": 35,
      "start": 59.9531,
      "duration": 0.1211,
      "velocity": 120,
      "chip": "ym2612"
    },
    {
      "channel": 0,
      "note": 45,
      "start": 60.0696,
      "duration": 0.0846,
      "velocity": 105,
      "chip": "ym2612"
    },
    {
      "channel": 2,
      "note": 105,
      "start": 60.0733,
      "duration": 0.1167,
      "velocity": 127,
      "chip": "ym2612"
    },
    {
      "channel": 3,
      "note": 88,
      "start": 60.1922,
      "duration": 0.1205,
      "velocity": 91,
      "chip": "ym2612"
    },
    {
      "channel": 1,
      "note": 69,
      "start": 60.1941,
      "duration": 0.15,
      "velocity": 84,
      "chip": "ym2612"
    },
    {
      "channel": 4,
      "note": 73,
      "start": 60.1956,
      "duration": 0.1486,
      "velocity": 84,
      "chip": "ym2612"
    },
    {
      "channel": 2,
      "note": 35,
      "start": 60.1982,
      "duration": 0.1156,
      "velocity": 109,
      "chip": "ym2612"
    },
    {
      "channel": 3,
      "note": 85,
      "start": 60.3159,
      "duration": 0.2391,
      "velocity": 91,
      "chip": "ym2612"
    },
    {
      "channel": 2,
      "note": 105,
      "start": 60.3198,
      "duration": 0.1167,
      "velocity": 127,
      "chip": "ym2612"
    },
    {
      "channel": 1,
      "note": 69,
      "start": 60.4556,
      "duration": 0.0599,
      "velocity": 84,
      "chip": "ym2612"
    },
    {
      "channel": 4,
      "note": 73,
      "start": 60.4573,
      "duration": 0.0583,
      "velocity": 84,
      "chip": "ym2612"
    },
    {
      "channel": 2,
      "note": 35,
      "start": 60.4588,
      "duration": 0.1141,
      "velocity": 127,
      "chip": "ym2612"
    },
    {
      "channel": 5,
      "note": 23,
      "start": 60.4611,
      "duration": 0.1206,
      "velocity": 120,
      "chip": "ym2612"
    },
    {
      "channel": 3,
      "note": 86,
      "start": 60.575,
      "duration": 0.116,
      "velocity": 91,
      "chip": "ym2612"
    },
    {
      "channel": 1,
      "note": 68,
      "start": 60.5768,
      "duration": 0.0587,
      "velocity": 84,
      "chip": "ym2612"
    },
    {
      "channel": 4,
      "note": 73,
      "start": 60.5782,
      "duration": 0.0575,
      "velocity": 84,
      "chip": "ym2612"
    },
    {
      "channel": 2,
      "note": 35,
      "start": 60.5808,
      "duration": 0.1112,
      "velocity": 109,
      "chip": "ym2612"
    },
    {
      "channel": 0,
      "note": 45,
      "start": 60.6937,
      "duration": 0.0838,
      "velocity": 105,
      "chip": "ym2612"
    },
    {
      "channel": 3,
      "note": 83,
      "start": 60.6954,
      "duration": 0.12,
      "velocity": 91,
      "chip": "ym2612"
    },
    {
      "channel": 2,
      "note": 93,
      "start": 60.6983,
      "duration": 0.1148,
      "velocity": 109,
      "chip": "ym2612"
    },
    {
      "channel": 0,
      "note": 49,
      "start": 60.8147,
      "duration": 0.0829,
      "velocity": 105,
      "chip": "ym2612"
    },
    {
      "channel": 1,
      "note": 68,
      "start": 60.8163,
      "duration": 0.0593,
      "velocity": 84,
      "chip": "ym2612"
    },
    {
      "channel": 4,
      "note": 73,
      "start": 60.8181,
      "duration": 0.0578,
      "velocity": 84,
      "chip": "ym2612"
    },
    {
      "channel": 2,
      "note": 93,
      "start": 60.8206,
      "duration": 0.0554,
      "velocity": 127,
      "chip": "ym2612"
    },
    {
      "channel": 0,
      "note": 49,
      "start": 60.9347,
      "duration": 0.0829,
      "velocity": 105,
      "chip": "ym2612"
    },
    {
      "channel": 3,
      "note": 85,
      "start": 60.9363,
      "duration": 0.1161,
      "velocity": 91,
      "chip": "ym2612"
    },
    {
      "channel": 2,
      "note": 28,
      "start": 60.9393,
      "duration": 0.0576,
      "velocity": 127,
      "chip": "ym2612"
    },
    {
      "channel": 5,
      "note": 35,
      "start": 60.9416,
      "duration": 0.1124,
      "velocity": 120,
      "chip": "ym2612"
    },
    {
      "channel": 0,
      "note": 40,
      "start": 61.0732,
      "duration": 0.0874,
      "velocity": 105,
      "chip": "ym2612"
    },
    {
      "channel": 3,
      "note": 81,
      "start": 61.0746,
      "duration": 0.2408,
      "velocity": 91,
      "chip": "ym2612"
    },
    {
      "channel": 1,
      "note": 66,
      "start": 61.0763,
      "duration": 0.0624,
      "velocity": 84,
      "chip": "ym2612"
    },
    {
      "channel": 4,
      "note": 73,
      "start": 61.0779,
      "duration": 0.0611,
      "velocity": 84,
      "chip": "ym2612"
    },
    {
      "channel": 2,
      "note": 28,
      "start": 61.0803,
      "duration": 0.2362,
      "velocity": 109,
      "chip": "ym2612"
    },
    {
      "channel": 0,
      "note": 40,
      "start": 61.1957,
      "duration": 0.1936,
      "velocity": 105,
      "chip": "ym2612"
    },
    {
      "channel": 3,
      "note": 83,
      "start": 61.3187,
      "duration": 0.1167,
      "velocity": 91,
      "chip": "ym2612"
    },
    {
      "channel": 1,
      "note": 66,
      "start": 61.3204,
      "duration": 0.0585,
      "velocity": 84,
      "chip": "ym2612"
    },
    {
      "channel": 4,
      "note": 73,
      "start": 61.3221,
      "duration": 0.0569,
      "velocity": 84,
      "chip": "ym2612"
    },
    {
      "channel": 2,
      "note": 105,
      "start": 61.3236,
      "duration": 0.1137,
      "velocity": 109,
      "chip": "ym2612"
    },
    {
      "channel": 3,
      "note": 80,
      "start": 61.4395,
      "duration": 0.1218,
      "velocity": 91,
      "chip": "ym2612"
    },
    {
      "channel": 1,
      "note": 68,
      "start": 61.4413,
      "duration": 0.1492,
      "velocity": 84,
      "chip": "ym2612"
    },
    {
      "channel": 4,
      "note": 73,
      "start": 61.4427,
      "duration": 0.1479,
      "velocity": 84,
      "chip": "ym2612"
    },
    {
      "channel": 2,
      "note": 105,
      "start": 61.4443,
      "duration": 0.2443,
      "velocity": 109,
      "chip": "ym2612"
    },
    {
      "channel": 5,
      "note": 23,
      "start": 61.4469,
      "duration": 0.2419,
      "velocity": 120,
      "chip": "ym2612"
    },
    {
      "channel": 0,
      "note": 52,
      "start": 61.7019,
      "duration": 0.1963,
      "velocity": 105,
      "chip": "ym2612"
    },
    {
      "channel": 3,
      "note": 81,
      "start": 61.7034,
      "duration": 0.121,
      "velocity": 91,
      "chip": "ym2612"
    },
    {
      "channel": 1,
      "note": 68,
      "start": 61.7051,
      "duration": 0.1483,
      "velocity": 84,
      "chip": "ym2612"
    },
    {
      "channel": 4,
      "note": 73,
      "start": 61.7068,
      "duration": 0.1469,
      "velocity": 84,
      "chip": "ym2612"
    },
    {
      "channel": 2,
      "note": 93,
      "start": 61.7094,
      "duration": 0.0593,
      "velocity": 127,
      "chip": "ym2612"
    },
    {
      "channel": 2,
      "note": 28,
      "start": 61.8264,
      "duration": 0.0624,
      "velocity": 127,
      "chip": "ym2612"
    },
    {
      "channel": 0,
      "note": 52,
      "start": 61.9494,
      "duration": 0.0919,
      "velocity": 105,
      "chip": "ym2612"
    },
    {
      "channel": 3,
      "note": 78,
      "start": 61.951,
      "duration": 0.1206,
      "velocity": 91,
      "chip": "ym2612"
    },
    {
      "channel": 1,
      "note": 64,
      "start": 61.9527,
      "duration": 0.1924,
      "velocity": 84,
      "chip": "ym2612"
    },
    {
      "channel": 4,
      "note": 73,
      "start": 61.9544,
      "duration": 0.1908,
      "velocity": 84,
      "chip": "ym2612"
    },
    {
      "channel": 2,
      "note": 28,
      "start": 61.9571,
      "duration": 0.1122,
      "velocity": 109,
      "chip": "ym2612"
    },
    {
      "channel": 5,
      "note": 35,
      "start": 61.9598,
      "duration": 0.1158,
      "velocity": 120,
      "chip": "ym2612"
    },
    {
      "channel": 0,
      "note": 40,
      "start": 62.0709,
      "duration": 0.0846,
      "velocity": 105,
      "chip": "ym2612"
    },
    {
      "channel": 2,
      "note": 105,
      "start": 62.0747,
      "duration": 0.1172,
      "velocity": 127,
      "chip": "ym2612"
    },
    {
      "channel": 3,
      "note": 80,
      "start": 62.2108,
      "duration": 0.1223,
      "velocity": 91,
      "chip": "ym2612"
    },
    {
      "channel": 1,
      "note": 71,
      "start": 62.2126,
      "duration": 0.0869,
      "velocity": 84,
      "chip": "ym2612"
    },
    {
      "channel": 4,
      "note": 76,
      "start": 62.2141,
      "duration": 0.0856,
      "velocity": 84,
      "chip": "ym2612"
    },
    {
      "channel": 2,
      "note": 35,
      "start": 62.2166,
      "duration": 0.1176,
      "velocity": 109,
      "chip": "ym2612"
    },
    {
      "channel": 3,
      "note": 80,
      "start": 62.3364,
      "duration": 0.117,
      "velocity": 91,
      "chip": "ym2612"
    },
    {
      "channel": 1,
      "note": 71,
      "start": 62.3381,
      "duration": 0.0815,
      "velocity": 84,
      "chip": "ym2612"
    },
    {
      "channel": 4,
      "note": 76,
      "start": 62.3398,
      "duration": 0.08,
      "velocity": 84,
      "chip": "ym2612"
    },
    {
      "channel": 2,
      "note": 105,
      "start": 62.3424,
      "duration": 0.1122,
      "velocity": 127,
      "chip": "ym2612"
    },
    {
      "channel": 5,
      "note": 23,
      "start": 62.4555,
      "duration": 0.1188,
      "velocity": 120,
      "chip": "ym2612"
    },
    {
      "channel": 3,
      "note": 81,
      "start": 62.5765,
      "duration": 0.1161,
      "velocity": 91,
      "chip": "ym2612"
    },
    {
      "channel": 1,
      "note": 69,
      "start": 62.5782,
      "duration": 0.0815,
      "velocity": 84,
      "chip": "ym2612"
    },
    {
      "channel": 4,
      "note": 76,
      "start": 62.5797,
      "duration": 0.0802,
      "velocity": 84,
      "chip": "ym2612"
    },
    {
      "channel": 5,
      "note": 46,
      "start": 62.5817,
      "duration": 0.112,
      "velocity": 120,
      "chip": "ym2612"
    },
    {
      "channel": 0,
      "note": 40,
      "start": 62.6954,
      "duration": 0.0835,
      "velocity": 105,
      "chip": "ym2612"
    },
    {
      "channel": 3,
      "note": 81,
      "start": 62.697,
      "duration": 0.7341,
      "velocity": 91,
      "chip": "ym2612"
    },
    {
      "channel": 5,
      "note": 46,
      "start": 62.7005,
      "duration": 0.1152,
      "velocity": 120,
      "chip": "ym2612"
    },
    {
      "channel": 0,
      "note": 47,
      "start": 62.8335,
      "duration": 0.0825,
      "velocity": 105,
      "chip": "ym2612"
    },
    {
      "channel": 1,
      "note": 69,
      "start": 62.8354,
      "duration": 0.0813,
      "velocity": 84,
      "chip": "ym2612"
    },
    {
      "channel": 4,
      "note": 76,
      "start": 62.8371,
      "duration": 0.0798,
      "velocity": 84,
      "chip": "ym2612"
    },
    {
      "channel": 2,
      "note": 35,
      "start": 62.8389,
      "duration": 0.0563,
      "velocity": 127,
      "chip": "ym2612"
    },
    {
      "channel": 0,
      "note": 47,
      "start": 62.9525,
      "duration": 0.0837,
      "velocity": 105,
      "chip": "ym2612"
    },
    {
      "channel": 2,
      "note": 28,
      "start": 62.9557,
      "duration": 0.0595,
      "velocity": 127,
      "chip": "ym2612"
    },
    {
      "channel": 5,
      "note": 40,
      "start": 62.9573,
      "duration": 0.1194,
      "velocity": 120,
      "chip": "ym2612"
    },
    {
      "channel": 0,
      "note": 52,
      "start": 63.0716,
      "duration": 0.0846,
      "velocity": 105,
      "chip": "ym2612"
    },
    {
      "channel": 2,
      "note": 28,
      "start": 63.0757,
      "duration": 0.1205,
      "velocity": 80,
      "chip": "ym2612"
    },
    {
      "channel": 1,
      "note": 68,
      "start": 63.1933,
      "duration": 0.084,
      "velocity": 84,
      "chip": "ym2612"
    },
    {
      "channel": 4,
      "note": 76,
      "start": 63.1951,
      "duration": 0.0823,
      "velocity": 84,
      "chip": "ym2612"
    },
    {
      "channel": 0,
      "note": 52,
      "start": 63.3139,
      "duration": 0.0824,
      "velocity": 105,
      "chip": "ym2612"
    },
    {
      "channel": 1,
      "note": 85,
      "start": 63.3159,
      "duration": 0.0812,
      "velocity": 84,
      "chip": "ym2612"
    },
    {
      "channel": 4,
      "note": 88,
      "start": 63.3176,
      "duration": 0.0796,
      "velocity": 84,
      "chip": "ym2612"
    },
    {
      "channel": 2,
      "note": 116,
      "start": 63.3193,
      "duration": 0.1131,
      "velocity": 80,
      "chip": "ym2612"
    },
    {
      "channel": 0,
      "note": 52,
      "start": 63.4516,
      "duration": 0.0934,
      "velocity": 105,
      "chip": "ym2612"
    },
    {
      "channel": 3,
      "note": 83,
      "start": 63.4532,
      "duration": 0.4828,
      "velocity": 91,
      "chip": "ym2612"
    },
    {
      "channel": 1,
      "note": 86,
      "start": 63.455,
      "duration": 0.0907,
      "velocity": 84,
      "chip": "ym2612"
    },
    {
      "channel": 4,
      "note": 90,
      "start": 63.4567,
      "duration": 0.0892,
      "velocity": 84,
      "chip": "ym2612"
    },
    {
      "channel": 2,
      "note": 117,
      "start": 63.4584,
      "duration": 0.1222,
      "velocity": 80,
      "chip": "ym2612"
    },
    {
      "channel": 0,
      "note": 50,
      "start": 63.5758,
      "duration": 0.0893,
      "velocity": 105,
      "chip": "ym2612"
    },
    {
      "channel": 1,
      "note": 88,
      "start": 63.578,
      "duration": 0.0879,
      "velocity": 84,
      "chip": "ym2612"
    },
    {
      "channel": 4,
      "note": 92,
      "start": 63.5797,
      "duration": 0.0864,
      "velocity": 84,
      "chip": "ym2612"
    },
    {
      "channel": 0,
      "note": 49,
      "start": 63.6969,
      "duration": 0.1912,
      "velocity": 105,
      "chip": "ym2612"
    },
    {
      "channel": 1,
      "note": 90,
      "start": 63.6991,
      "duration": 0.0871,
      "velocity": 84,
      "chip": "ym2612"
    },
    {
      "channel": 4,
      "note": 93,
      "start": 63.7008,
      "duration": 0.0856,
      "velocity": 84,
      "chip": "ym2612"
    },
    {
      "channel": 2,
      "note": 116,
      "start": 63.7025,
      "duration": 0.1118,
      "velocity": 80,
      "chip": "ym2612"
    },
    {
      "channel": 1,
      "note": 88,
      "start": 63.817,
      "duration": 0.0893,
      "velocity": 84,
      "chip": "ym2612"
    },
    {
      "channel": 4,
      "note": 92,
      "start": 63.8187,
      "duration": 0.0878,
      "velocity": 84,
      "chip": "ym2612"
    },
    {
      "channel": 2,
      "note": 117,
      "start": 63.8214,
      "duration": 0.0573,
      "velocity": 127,
      "chip": "ym2612"
    },
    {
      "channel": 0,
      "note": 47,
      "start": 63.94,
      "duration": 0.4056,
      "velocity": 105,
      "chip": "ym2612"
    },
    {
      "channel": 3,
      "note": 76,
      "start": 63.9417,
      "duration": 0.1985,
      "velocity": 91,
      "chip": "ym2612"
    },
    {
      "channel": 1,
      "note": 86,
      "start": 63.9436,
      "duration": 0.1513,
      "velocity": 84,
      "chip": "ym2612"
    },
    {
      "channel": 4,
      "note": 90,
      "start": 63.9454,
      "duration": 0.1497,
      "velocity": 84,
      "chip": "ym2612"
    },
    {
      "channel": 2,
      "note": 28,
      "start": 63.9483,
      "duration": 0.1192,
      "velocity": 109,
      "chip": "ym2612"
    },
    {
      "channel": 5,
      "note": 23,
      "start": 63.9501,
      "duration": 0.1176,
      "velocity": 120,
      "chip": "ym2612"
    },
    {
      "channel": 2,
      "note": 105,
      "start": 64.0864,
      "duration": 0.1177,
      "velocity": 127,
      "chip": "ym2612"
    },
    {
      "channel": 3,
      "note": 81,
      "start": 64.2063,
      "duration": 0.0883,
      "velocity": 91,
      "chip": "ym2612"
    },
    {
      "channel": 1,
      "note": 69,
      "start": 64.208,
      "duration": 0.15,
      "velocity": 84,
      "chip": "ym2612"
    },
    {
      "channel": 4,
      "note": 73,
      "start": 64.2095,
      "duration": 0.1486,
      "velocity": 84,
      "chip": "ym2612"
    },
    {
      "channel": 2,
      "note": 35,
      "start": 64.2121,
      "duration": 0.1101,
      "velocity": 109,
      "chip": "ym2612"
    },
    {
      "channel": 3,
      "note": 81,
      "start": 64.3244,
      "duration": 0.0846,
      "velocity": 91,
      "chip": "ym2612"
    },
    {
      "channel": 2,
      "note": 105,
      "start": 64.3282,
      "duration": 0.1169,
      "velocity": 127,
      "chip": "ym2612"
    },
    {
      "channel": 0,
      "note": 45,
      "start": 64.4468,
      "duration": 0.3962,
      "velocity": 105,
      "chip": "ym2612"
    },
    {
      "channel": 1,
      "note": 69,
      "start": 64.4489,
      "duration": 0.0635,
      "velocity": 84,
      "chip": "ym2612"
    },
    {
      "channel": 4,
      "note": 73,
      "start": 64.4506,
      "duration": 0.062,
      "velocity": 84,
      "chip": "ym2612"
    },
    {
      "channel": 2,
      "note": 35,
      "start": 64.4521,
      "duration": 0.1185,
      "velocity": 127,
      "chip": "ym2612"
    },
    {
      "channel": 5,
      "note": 23,
      "start": 64.4544,
      "duration": 0.1163,
      "velocity": 120,
      "chip": "ym2612"
    },
    {
      "channel": 3,
      "note": 81,
      "start": 64.5892,
      "duration": 0.115,
      "velocity": 91,
      "chip": "ym2612"
    },
    {
      "channel": 1,
      "note": 68,
      "start": 64.591,
      "duration": 0.0586,
      "velocity": 84,
      "chip": "ym2612"
    },
    {
      "channel": 4,
      "note": 73,
      "start": 64.5926,
      "duration": 0.0572,
      "velocity": 84,
      "chip": "ym2612"
    },
    {
      "channel": 2,
      "note": 35,
      "start": 64.5951,
      "duration": 0.1101,
      "velocity": 109,
      "chip": "ym2612"
    },
    {
      "channel": 3,
      "note": 81,
      "start": 64.7074,
      "duration": 0.9822,
      "velocity": 91,
      "chip": "ym2612"
    },
    {
      "channel": 2,
      "note": 93,
      "start": 64.7102,
      "duration": 0.116,
      "velocity": 109,
      "chip": "ym2612"
    },
    {
      "channel": 1,
      "note": 68,
      "start": 64.8288,
      "duration": 0.0609,
      "velocity": 84,
      "chip": "ym2612"
    },
    {
      "channel": 4,
      "note": 73,
      "start": 64.8305,
      "duration": 0.0594,
      "velocity": 84,
      "chip": "ym2612"
    },
    {
      "channel": 2,
      "note": 93,
      "start": 64.8331,
      "duration": 0.057,
      "velocity": 127,
      "chip": "ym2612"
    },
    {
      "channel": 0,
      "note": 40,
      "start": 64.9479,
      "duration": 0.3926,
      "velocity": 105,
      "chip": "ym2612"
    },
    {
      "channel": 2,
      "note": 28,
      "start": 64.9511,
      "duration": 0.0602,
      "velocity": 127,
      "chip": "ym2612"
    },
    {
      "channel": 5,
      "note": 35,
      "start": 64.9534,
      "duration": 0.1207,
      "velocity": 120,
      "chip": "ym2612"
    },
    {
      "channel": 1,
      "note": 66,
      "start": 65.0692,
      "duration": 0.0607,
      "velocity": 84,
      "chip": "ym2612"
    },
    {
      "channel": 4,
      "note": 73,
      "start": 65.0707,
      "duration": 0.0594,
      "velocity": 84,
      "chip": "ym2612"
    },
    {
      "channel": 2,
      "note": 28,
      "start": 65.0732,
      "duration": 0.2351,
      "velocity": 109,
      "chip": "ym2612"
    },
    {
      "channel": 1,
      "note": 66,
      "start": 65.3266,
      "duration": 0.0608,
      "velocity": 84,
      "chip": "ym2612"
    },
    {
      "channel": 4,
      "note": 73,
      "start": 65.3283,
      "duration": 0.0594,
      "velocity": 84,
      "chip": "ym2612"
    },
    {
      "channel": 2,
      "note": 105,
      "start": 65.3298,
      "duration": 0.1158,
      "velocity": 109,
      "chip": "ym2612"
    },
    {
      "channel": 0,
      "note": 45,
      "start": 65.4473,
      "duration": 0.4021,
      "velocity": 105,
      "chip": "ym2612"
    },
    {
      "channel": 1,
      "note": 68,
      "start": 65.4495,
      "duration": 0.1494,
      "velocity": 84,
      "chip": "ym2612"
    },
    {
      "channel": 4,
      "note": 73,
      "start": 65.451,
      "duration": 0.148,
      "velocity": 84,
      "chip": "ym2612"
    },
    {
      "channel": 2,
      "note": 105,
      "start": 65.4526,
      "duration": 0.238,
      "velocity": 109,
      "chip": "ym2612"
    },
    {
      "channel": 5,
      "note": 23,
      "start": 65.4551,
      "duration": 0.2447,
      "velocity": 120,
      "chip": "ym2612"
    },
    {
      "channel": 3,
      "note": 85,
      "start": 65.6928,
      "duration": 0.2429,
      "velocity": 91,
      "chip": "ym2612"
    },
    {
      "channel": 1,
      "note": 68,
      "start": 65.6947,
      "duration": 0.1443,
      "velocity": 84,
      "chip": "ym2612"
    },
    {
      "channel": 4,
      "note": 73,
      "start": 65.6964,
      "duration": 0.1427,
      "velocity": 84,
      "chip": "ym2612"
    },
    {
      "channel": 2,
      "note": 93,
      "start": 65.699,
      "duration": 0.0554,
      "velocity": 127,
      "chip": "ym2612"
    },
    {
      "channel": 2,
      "note": 28,
      "start": 65.8294,
      "duration": 0.0622,
      "velocity": 127,
      "chip": "ym2612"
    },
    {
      "channel": 0,
      "note": 52,
      "start": 65.952,
      "duration": 0.4006,
      "velocity": 105,
      "chip": "ym2612"
    },
    {
      "channel": 3,
      "note": 76,
      "start": 65.9537,
      "duration": 0.1936,
      "velocity": 91,
      "chip": "ym2612"
    },
    {
      "channel": 1,
      "note": 64,
      "start": 65.9554,
      "duration": 0.1466,
      "velocity": 84,
      "chip": "ym2612"
    },
    {
      "channel": 4,
      "note": 73,
      "start": 65.9571,
      "duration": 0.1451,
      "velocity": 84,
      "chip": "ym2612"
    },
    {
      "channel": 2,
      "note": 28,
      "start": 65.9597,
      "duration": 0.1112,
      "velocity": 109,
      "chip": "ym2612"
    },
    {
      "channel": 5,
      "note": 35,
      "start": 65.9624,
      "duration": 0.1149,
      "velocity": 120,
      "chip": "ym2612"
    },
    {
      "channel": 2,
      "note": 105,
      "start": 66.0764,
      "duration": 0.1176,
      "velocity": 127,
      "chip": "ym2612"
    },
    {
      "channel": 3,
      "note": 83,
      "start": 66.1961,
      "duration": 0.0884,
      "velocity": 91,
      "chip": "ym2612"
    },
    {
      "channel": 1,
      "note": 71,
      "start": 66.1978,
      "duration": 0.1445,
      "velocity": 84,
      "chip": "ym2612"
    },
    {
      "channel": 4,
      "note": 74,
      "start": 66.1994,
      "duration": 0.1432,
      "velocity": 84,
      "chip": "ym2612"
    },
    {
      "channel": 2,
      "note": 35,
      "start": 66.2019,
      "duration": 0.1102,
      "velocity": 109,
      "chip": "ym2612"
    },
    {
      "channel": 3,
      "note": 83,
      "start": 66.3142,
      "duration": 0.0903,
      "velocity": 91,
      "chip": "ym2612"
    },
    {
      "channel": 2,
      "note": 105,
      "start": 66.3181,
      "duration": 0.1166,
      "velocity": 127,
      "chip": "ym2612"
    },
    {
      "channel": 0,
      "note": 47,
      "start": 66.4538,
      "duration": 0.402,
      "velocity": 105,
      "chip": "ym2612"
    },
    {
      "channel": 1,
      "note": 71,
      "start": 66.4562,
      "duration": 0.069,
      "velocity": 84,
      "chip": "ym2612"
    },
    {
      "channel": 4,
      "note": 74,
      "start": 66.4579,
      "duration": 0.0675,
      "velocity": 84,
      "chip": "ym2612"
    },
    {
      "channel": 2,
      "note": 35,
      "start": 66.4593,
      "duration": 0.1176,
      "velocity": 127,
      "chip": "ym2612"
    },
    {
      "channel": 5,
      "note": 23,
      "start": 66.4617,
      "duration": 0.1241,
      "velocity": 120,
      "chip": "ym2612"
    },
    {
      "channel": 3,
      "note": 83,
      "start": 66.5791,
      "duration": 0.115,
      "velocity": 91,
      "chip": "ym2612"
    },
    {
      "channel": 1,
      "note": 69,
      "start": 66.5808,
      "duration": 0.0588,
      "velocity": 84,
      "chip": "ym2612"
    },
    {
      "channel": 4,
      "note": 74,
      "start": 66.5823,
      "duration": 0.0574,
      "velocity": 84,
      "chip": "ym2612"
    },
    {
      "channel": 2,
      "note": 35,
      "start": 66.5849,
      "duration": 0.1102,
      "velocity": 109,
      "chip": "ym2612"
    },
    {
      "channel": 3,
      "note": 83,
      "start": 66.6973,
      "duration": 0.9882,
      "velocity": 91,
      "chip": "ym2612"
    },
    {
      "channel": 2,
      "note": 93,
      "start": 66.7001,
      "duration": 0.116,
      "velocity": 109,
      "chip": "ym2612"
    },
    {
      "channel": 1,
      "note": 69,
      "start": 66.8188,
      "duration": 0.061,
      "velocity": 84,
      "chip": "ym2612"
    },
    {
      "channel": 4,
      "note": 74,
      "start": 66.8204,
      "duration": 0.0594,
      "velocity": 84,
      "chip": "ym2612"
    },
    {
      "channel": 2,
      "note": 93,
      "start": 66.823,
      "duration": 0.057,
      "velocity": 127,
      "chip": "ym2612"
    },
    {
      "channel": 0,
      "note": 42,
      "start": 66.9549,
      "duration": 0.3927,
      "velocity": 105,
      "chip": "ym2612"
    },
    {
      "channel": 2,
      "note": 28,
      "start": 66.9581,
      "duration": 0.0598,
      "velocity": 127,
      "chip": "ym2612"
    },
    {
      "channel": 5,
      "note": 35,
      "start": 66.9605,
      "duration": 0.1207,
      "velocity": 120,
      "chip": "ym2612"
    },
    {
      "channel": 1,
      "note": 68,
      "start": 67.0763,
      "duration": 0.0608,
      "velocity": 84,
      "chip": "ym2612"
    },
    {
      "channel": 4,
      "note": 74,
      "start": 67.0778,
      "duration": 0.0595,
      "velocity": 84,
      "chip": "ym2612"
    },
    {
      "channel": 2,
      "note": 28,
      "start": 67.0803,
      "duration": 0.2335,
      "velocity": 109,
      "chip": "ym2612"
    },
    {
      "channel": 1,
      "note": 68,
      "start": 67.3165,
      "duration": 0.061,
      "velocity": 84,
      "chip": "ym2612"
    },
    {
      "channel": 4,
      "note": 74,
      "start": 67.3181,
      "duration": 0.0595,
      "velocity": 84,
      "chip": "ym2612"
    },
    {
      "channel": 2,
      "note": 105,
      "start": 67.3197,
      "duration": 0.1159,
      "velocity": 109,
      "chip": "ym2612"
    },
    {
      "channel": 0,
      "note": 47,
      "start": 67.4373,
      "duration": 0.3964,
      "velocity": 105,
      "chip": "ym2612"
    },
    {
      "channel": 1,
      "note": 69,
      "start": 67.4394,
      "duration": 0.1493,
      "velocity": 84,
      "chip": "ym2612"
    },
    {
      "channel": 4,
      "note": 74,
      "start": 67.441,
      "duration": 0.148,
      "velocity": 84,
      "chip": "ym2612"
    },
    {
      "channel": 2,
      "note": 105,
      "start": 67.4425,
      "duration": 0.2388,
      "velocity": 109,
      "chip": "ym2612"
    },
    {
      "channel": 5,
      "note": 23,
      "start": 67.4451,
      "duration": 0.2364,
      "velocity": 120,
      "chip": "ym2612"
    },
    {
      "channel": 3,
      "note": 86,
      "start": 67.6999,
      "duration": 0.1148,
      "velocity": 91,
      "chip": "ym2612"
    },
    {
      "channel": 1,
      "note": 69,
      "start": 67.7016,
      "duration": 0.1446,
      "velocity": 84,
      "chip": "ym2612"
    },
    {
      "channel": 4,
      "note": 74,
      "start": 67.7033,
      "duration": 0.1431,
      "velocity": 84,
      "chip": "ym2612"
    },
    {
      "channel": 2,
      "note": 93,
      "start": 67.7059,
      "duration": 0.0555,
      "velocity": 127,
      "chip": "ym2612"
    },
    {
      "channel": 3,
      "note": 85,
      "start": 67.8178,
      "duration": 0.1205,
      "velocity": 91,
      "chip": "ym2612"
    },
    {
      "channel": 2,
      "note": 28,
      "start": 67.8206,
      "duration": 0.0608,
      "velocity": 127,
      "chip": "ym2612"
    },
    {
      "channel": 0,
      "note": 54,
      "start": 67.9422,
      "duration": 0.3089,
      "velocity": 105,
      "chip": "ym2612"
    },
    {
      "channel": 3,
      "note": 86,
      "start": 67.9438,
      "duration": 0.1247,
      "velocity": 91,
      "chip": "ym2612"
    },
    {
      "channel": 1,
      "note": 66,
      "start": 67.9457,
      "duration": 0.152,
      "velocity": 84,
      "chip": "ym2612"
    },
    {
      "channel": 4,
      "note": 74,
      "start": 67.9474,
      "duration": 0.1504,
      "velocity": 84,
      "chip": "ym2612"
    },
    {
      "channel": 2,
      "note": 28,
      "start": 67.9499,
      "duration": 0.1169,
      "velocity": 109,
      "chip": "ym2612"
    },
    {
      "channel": 5,
      "note": 35,
      "start": 67.9525,
      "duration": 0.12,
      "velocity": 120,
      "chip": "ym2612"
    },
    {
      "channel": 2,
      "note": 105,
      "start": 68.0717,
      "duration": 0.1185,
      "velocity": 127,
      "chip": "ym2612"
    },
    {
      "channel": 3,
      "note": 88,
      "start": 68.2089,
      "duration": 0.1216,
      "velocity": 91,
      "chip": "ym2612"
    },
    {
      "channel": 1,
      "note": 71,
      "start": 68.2108,
      "duration": 0.1501,
      "velocity": 84,
      "chip": "ym2612"
    },
    {
      "channel": 4,
      "note": 74,
      "start": 68.2123,
      "duration": 0.1487,
      "velocity": 84,
      "chip": "ym2612"
    },
    {
      "channel": 2,
      "note": 35,
      "start": 68.2148,
      "duration": 0.1167,
      "velocity": 109,
      "chip": "ym2612"
    },
    {
      "channel": 0,
      "note": 50,
      "start": 68.3332,
      "duration": 0.2953,
      "velocity": 105,
      "chip": "ym2612"
    },
    {
      "channel": 3,
      "note": 85,
      "start": 68.3349,
      "duration": 0.2455,
      "velocity": 91,
      "chip": "ym2612"
    },
    {
      "channel": 2,
      "note": 105,
      "start": 68.3387,
      "duration": 0.1137,
      "velocity": 127,
      "chip": "ym2612"
    },
    {
      "channel": 1,
      "note": 71,
      "start": 68.4551,
      "duration": 0.06,
      "velocity": 84,
      "chip": "ym2612"
    },
    {
      "channel": 4,
      "note": 74,
      "start": 68.4567,
      "duration": 0.0585,
      "velocity": 84,
      "chip": "ym2612"
    },
    {
      "channel": 2,
      "note": 35,
      "start": 68.4583,
      "duration": 0.1135,
      "velocity": 127,
      "chip": "ym2612"
    },
    {
      "channel": 5,
      "note": 23,
      "start": 68.4606,
      "duration": 0.1188,
      "velocity": 120,
      "chip": "ym2612"
    },
    {
      "channel": 1,
      "note": 69,
      "start": 68.5744,
      "duration": 0.0607,
      "velocity": 84,
      "chip": "ym2612"
    },
    {
      "channel": 4,
      "note": 74,
      "start": 68.5759,
      "duration": 0.0594,
      "velocity": 84,
      "chip": "ym2612"
    },
    {
      "channel": 2,
      "note": 35,
      "start": 68.5784,
      "duration": 0.1133,
      "velocity": 109,
      "chip": "ym2612"
    },
    {
      "channel": 0,
      "note": 45,
      "start": 68.6934,
      "duration": 0.1924,
      "velocity": 105,
      "chip": "ym2612"
    },
    {
      "channel": 3,
      "note": 86,
      "start": 68.695,
      "duration": 0.1169,
      "velocity": 91,
      "chip": "ym2612"
    },
    {
      "channel": 2,
      "note": 93,
      "start": 68.6978,
      "duration": 0.1153,
      "velocity": 109,
      "chip": "ym2612"
    },
    {
      "channel": 3,
      "note": 83,
      "start": 68.832,
      "duration": 0.1195,
      "velocity": 91,
      "chip": "ym2612"
    },
    {
      "channel": 1,
      "note": 69,
      "start": 68.8338,
      "duration": 0.0587,
      "velocity": 84,
      "chip": "ym2612"
    },
    {
      "channel": 4,
      "note": 74,
      "start": 68.8356,
      "duration": 0.0571,
      "velocity": 84,
      "chip": "ym2612"
    },
    {
      "channel": 2,
      "note": 93,
      "start": 68.8382,
      "duration": 0.0546,
      "velocity": 127,
      "chip": "ym2612"
    },
    {
      "channel": 0,
      "note": 50,
      "start": 68.9507,
      "duration": 0.2896,
      "velocity": 105,
      "chip": "ym2612"
    },
    {
      "channel": 2,
      "note": 28,
      "start": 68.9536,
      "duration": 0.0601,
      "velocity": 127,
      "chip": "ym2612"
    },
    {
      "channel": 5,
      "note": 35,
      "start": 68.9559,
      "duration": 0.1233,
      "velocity": 120,
      "chip": "ym2612"
    },
    {
      "channel": 3,
      "note": 85,
      "start": 69.0723,
      "duration": 0.115,
      "velocity": 91,
      "chip": "ym2612"
    },
    {
      "channel": 1,
      "note": 68,
      "start": 69.0742,
      "duration": 0.0585,
      "velocity": 84,
      "chip": "ym2612"
    },
    {
      "channel": 4,
      "note": 74,
      "start": 69.0758,
      "duration": 0.0571,
      "velocity": 84,
      "chip": "ym2612"
    },
    {
      "channel": 2,
      "note": 28,
      "start": 69.0782,
      "duration": 0.2324,
      "velocity": 109,
      "chip": "ym2612"
    },
    {
      "channel": 3,
      "note": 81,
      "start": 69.1901,
      "duration": 0.1193,
      "velocity": 91,
      "chip": "ym2612"
    },
    {
      "channel": 0,
      "note": 52,
      "start": 69.3293,
      "duration": 0.2941,
      "velocity": 105,
      "chip": "ym2612"
    },
    {
      "channel": 1,
      "note": 68,
      "start": 69.3317,
      "duration": 0.0583,
      "velocity": 84,
      "chip": "ym2612"
    },
    {
      "channel": 4,
      "note": 74,
      "start": 69.3334,
      "duration": 0.0567,
      "velocity": 84,
      "chip": "ym2612"
    },
    {
      "channel": 2,
      "note": 105,
      "start": 69.3349,
      "duration": 0.1135,
      "velocity": 109,
      "chip": "ym2612"
    },
    {
      "channel": 3,
      "note": 83,
      "start": 69.4506,
      "duration": 0.1219,
      "velocity": 91,
      "chip": "ym2612"
    },
    {
      "channel": 1,
      "note": 69,
      "start": 69.4524,
      "duration": 0.1492,
      "velocity": 84,
      "chip": "ym2612"
    },
    {
      "channel": 4,
      "note": 74,
      "start": 69.4538,
      "duration": 0.1479,
      "velocity": 84,
      "chip": "ym2612"
    },
    {
      "channel": 2,
      "note": 105,
      "start": 69.4554,
      "duration": 0.2389,
      "velocity": 109,
      "chip": "ym2612"
    },
    {
      "channel": 5,
      "note": 23,
      "start": 69.458,
      "duration": 0.2466,
      "velocity": 120,
      "chip": "ym2612"
    },
    {
      "channel": 0,
      "note": 47,
      "start": 69.6959,
      "duration": 0.1963,
      "velocity": 105,
      "chip": "ym2612"
    },
    {
      "channel": 3,
      "note": 83,
      "start": 69.6976,
      "duration": 0.2408,
      "velocity": 91,
      "chip": "ym2612"
    },
    {
      "channel": 1,
      "note": 69,
      "start": 69.6994,
      "duration": 0.148,
      "velocity": 84,
      "chip": "ym2612"
    },
    {
      "channel": 4,
      "note": 74,
      "start": 69.701,
      "duration": 0.1465,
      "velocity": 84,
      "chip": "ym2612"
    },
    {
      "channel": 2,
      "note": 93,
      "start": 69.7036,
      "duration": 0.0591,
      "velocity": 127,
      "chip": "ym2612"
    },
    {
      "channel": 2,
      "note": 28,
      "start": 69.8207,
      "duration": 0.062,
      "velocity": 127,
      "chip": "ym2612"
    },
    {
      "channel": 0,
      "note": 52,
      "start": 69.9609,
      "duration": 0.2,
      "velocity": 105,
      "chip": "ym2612"
    },
    {
      "channel": 3,
      "note": 85,
      "start": 69.9626,
      "duration": 0.1245,
      "velocity": 91,
      "chip": "ym2612"
    },
    {
      "channel": 1,
      "note": 66,
      "start": 69.9643,
      "duration": 0.1519,
      "velocity": 84,
      "chip": "ym2612"
    },
    {
      "channel": 4,
      "note": 74,
      "start": 69.966,
      "duration": 0.1503,
      "velocity": 84,
      "chip": "ym2612"
    },
    {
      "channel": 2,
      "note": 28,
      "start": 69.9687,
      "duration": 0.1165,
      "velocity": 109,
      "chip": "ym2612"
    },
    {
      "channel": 5,
      "note": 35,
      "start": 69.9714,
      "duration": 0.1197,
      "velocity": 120,
      "chip": "ym2612"
    },
    {
      "channel": 2,
      "note": 105,
      "start": 70.0902,
      "duration": 0.1187,
      "velocity": 127,
      "chip": "ym2612"
    },
    {
      "channel": 0,
      "note": 45,
      "start": 70.2106,
      "duration": 0.1962,
      "velocity": 105,
      "chip": "ym2612"
    },
    {
      "channel": 3,
      "note": 81,
      "start": 70.212,
      "duration": 0.1209,
      "velocity": 91,
      "chip": "ym2612"
    },
    {
      "channel": 1,
      "note": 69,
      "start": 70.2138,
      "duration": 0.1483,
      "velocity": 84,
      "chip": "ym2612"
    },
    {
      "channel": 4,
      "note": 73,
      "start": 70.2153,
      "duration": 0.147,
      "velocity": 84,
      "chip": "ym2612"
    },
    {
      "channel": 2,
      "note": 35,
      "start": 70.2178,
      "duration": 0.1134,
      "velocity": 109,
      "chip": "ym2612"
    },
    {
      "channel": 2,
      "note": 105,
      "start": 70.3361,
      "duration": 0.1185,
      "velocity": 127,
      "chip": "ym2612"
    },
    {
      "channel": 5,
      "note": 23,
      "start": 70.4556,
      "duration": 0.1195,
      "velocity": 120,
      "chip": "ym2612"
    },
    {
      "channel": 0,
      "note": 45,
      "start": 70.5939,
      "duration": 0.0931,
      "velocity": 105,
      "chip": "ym2612"
    },
    {
      "channel": 3,
      "note": 81,
      "start": 70.5954,
      "duration": 0.1207,
      "velocity": 91,
      "chip": "ym2612"
    },
    {
      "channel": 1,
      "note": 69,
      "start": 70.5971,
      "duration": 0.0623,
      "velocity": 84,
      "chip": "ym2612"
    },
    {
      "channel": 4,
      "note": 73,
      "start": 70.5986,
      "duration": 0.061,
      "velocity": 84,
      "chip": "ym2612"
    },
    {
      "channel": 5,
      "note": 46,
      "start": 70.6006,
      "duration": 0.1138,
      "velocity": 120,
      "chip": "ym2612"
    },
    {
      "channel": 5,
      "note": 46,
      "start": 70.7186,
      "duration": 0.1283,
      "velocity": 120,
      "chip": "ym2612"
    },
    {
      "channel": 0,
      "note": 45,
      "start": 70.8396,
      "duration": 0.0933,
      "velocity": 105,
      "chip": "ym2612"
    },
    {
      "channel": 3,
      "note": 81,
      "start": 70.841,
      "duration": 0.1218,
      "velocity": 91,
      "chip": "ym2612"
    },
    {
      "channel": 1,
      "note": 69,
      "start": 70.8428,
      "duration": 0.0625,
      "velocity": 84,
      "chip": "ym2612"
    },
    {
      "channel": 4,
      "note": 73,
      "start": 70.8443,
      "duration": 0.0612,
      "velocity": 84,
      "chip": "ym2612"
    },
    {
      "channel": 2,
      "note": 35,
      "start": 70.8461,
      "duration": 0.0595,
      "velocity": 127,
      "chip": "ym2612"
    },
    {
      "channel": 0,
      "note": 45,
      "start": 70.9665,
      "duration": 0.1952,
      "velocity": 105,
      "chip": "ym2612"
    },
    {
      "channel": 3,
      "note": 81,
      "start": 70.9679,
      "duration": 0.1198,
      "velocity": 91,
      "chip": "ym2612"
    },
    {
      "channel": 1,
      "note": 69,
      "start": 70.9697,
      "duration": 0.1471,
      "velocity": 84,
      "chip": "ym2612"
    },
    {
      "channel": 4,
      "note": 73,
      "start": 70.9712,
      "duration": 0.1459,
      "velocity": 84,
      "chip": "ym2612"
    },
    {
      "channel": 2,
      "note": 28,
      "start": 70.9727,
      "duration": 0.0594,
      "velocity": 127,
      "chip": "ym2612"
    },
    {
      "channel": 5,
      "note": 40,
      "start": 70.9742,
      "duration": 0.1152,
      "velocity": 120,
      "chip": "ym2612"
    },
    {
      "channel": 5,
      "note": 24,
      "start": 71.109,
      "duration": 0.2341,
      "velocity": 82,
      "chip": "ym2612"
    },
    {
      "channel": 5,
      "note": 35,
      "start": 71.348,
      "duration": 0.1174,
      "velocity": 82,
      "chip": "ym2612"
    },
    {
      "channel": 0,
      "note": 45,
      "start": 71.4671,
      "duration": 0.0547,
      "velocity": 105,
      "chip": "ym2612"
    },
    {
      "channel": 3,
      "note": 81,
      "start": 71.4688,
      "duration": 0.3623,
      "velocity": 91,
      "chip": "ym2612"
    },
    {
      "channel": 5,
      "note": 35,
      "start": 71.4721,
      "duration": 0.2352,
      "velocity": 82,
      "chip": "ym2612"
    },
    {
      "channel": 0,
      "note": 51,
      "start": 71.5341,
      "duration": 0.4268,
      "velocity": 105,
      "chip": "ym2612"
    },
    {
      "channel": 5,
      "note": 35,
      "start": 71.7254,
      "duration": 0.2408,
      "velocity": 82,
      "chip": "ym2612"
    },
    {
      "channel": 0,
      "note": 52,
      "start": 71.9688,
      "duration": 0.3994,
      "velocity": 105,
      "chip": "ym2612"
    },
    {
      "channel": 3,
      "note": 76,
      "start": 71.9704,
      "duration": 0.2453,
      "velocity": 91,
      "chip": "ym2612"
    },
    {
      "channel": 1,
      "note": 69,
      "start": 71.9721,
      "duration": 0.1511,
      "velocity": 84,
      "chip": "ym2612"
    },
    {
      "channel": 4,
      "note": 73,
      "start": 71.9737,
      "duration": 0.1498,
      "velocity": 84,
      "chip": "ym2612"
    },
    {
      "channel": 2,
      "note": 28,
      "start": 71.9761,
      "duration": 0.116,
      "velocity": 109,
      "chip": "ym2612"
    },
    {
      "channel": 5,
      "note": 28,
      "start": 71.9789,
      "duration": 0.1196,
      "velocity": 120,
      "chip": "ym2612"
    },
    {
      "channel": 2,
      "note": 105,
      "start": 72.0976,
      "duration": 0.1167,
      "velocity": 127,
      "chip": "ym2612"
    },
    {
      "channel": 1,
      "note": 69,
      "start": 72.2167,
      "duration": 0.1468,
      "velocity": 84,
      "chip": "ym2612"
    },
    {
      "channel": 4,
      "note": 73,
      "start": 72.2182,
      "duration": 0.1454,
      "velocity": 84,
      "chip": "ym2612"
    },
    {
      "channel": 2,
      "note": 35,
      "start": 72.2207,
      "duration": 0.1151,
      "velocity": 109,
      "chip": "ym2612"
    },
    {
      "channel": 3,
      "note": 81,
      "start": 72.3526,
      "duration": 0.1233,
      "velocity": 91,
      "chip": "ym2612"
    },
    {
      "channel": 2,
      "note": 105,
      "start": 72.3565,
      "duration": 0.1168,
      "velocity": 127,
      "chip": "ym2612"
    },
    {
      "channel": 0,
      "note": 45,
      "start": 72.4751,
      "duration": 0.402,
      "velocity": 105,
      "chip": "ym2612"
    },
    {
      "channel": 1,
      "note": 69,
      "start": 72.4768,
      "duration": 0.0639,
      "velocity": 84,
      "chip": "ym2612"
    },
    {
      "channel": 4,
      "note": 73,
      "start": 72.4785,
      "duration": 0.0623,
      "velocity": 84,
      "chip": "ym2612"
    },
    {
      "channel": 2,
      "note": 35,
      "start": 72.4801,
      "duration": 0.117,
      "velocity": 127,
      "chip": "ym2612"
    },
    {
      "channel": 5,
      "note": 23,
      "start": 72.4824,
      "duration": 0.1223,
      "velocity": 120,
      "chip": "ym2612"
    },
    {
      "channel": 1,
      "note": 68,
      "start": 72.5998,
      "duration": 0.0609,
      "velocity": 84,
      "chip": "ym2612"
    },
    {
      "channel": 4,
      "note": 73,
      "start": 72.6013,
      "duration": 0.0596,
      "velocity": 84,
      "chip": "ym2612"
    },
    {
      "channel": 2,
      "note": 35,
      "start": 72.6037,
      "duration": 0.1117,
      "velocity": 109,
      "chip": "ym2612"
    },
    {
      "channel": 2,
      "note": 93,
      "start": 72.7197,
      "duration": 0.1175,
      "velocity": 109,
      "chip": "ym2612"
    },
    {
      "channel": 1,
      "note": 68,
      "start": 72.84,
      "duration": 0.0609,
      "velocity": 84,
      "chip": "ym2612"
    },
    {
      "channel": 4,
      "note": 73,
      "start": 72.8416,
      "duration": 0.0594,
      "velocity": 84,
      "chip": "ym2612"
    },
    {
      "channel": 2,
      "note": 93,
      "start": 72.8442,
      "duration": 0.057,
      "velocity": 127,
      "chip": "ym2612"
    },
    {
      "channel": 0,
      "note": 40,
      "start": 72.9761,
      "duration": 0.3985,
      "velocity": 105,
      "chip": "ym2612"
    },
    {
      "channel": 2,
      "note": 28,
      "start": 72.9793,
      "duration": 0.0598,
      "velocity": 127,
      "chip": "ym2612"
    },
    {
      "channel": 5,
      "note": 35,
      "start": 72.9817,
      "duration": 0.1207,
      "velocity": 120,
      "chip": "ym2612"
    },
    {
      "channel": 1,
      "note": 66,
      "start": 73.0975,
      "duration": 0.0608,
      "velocity": 84,
      "chip": "ym2612"
    },
    {
      "channel": 4,
      "note": 73,
      "start": 73.099,
      "duration": 0.0594,
      "velocity": 84,
      "chip": "ym2612"
    },
    {
      "channel": 2,
      "note": 28,
      "start": 73.1015,
      "duration": 0.2337,
      "velocity": 109,
      "chip": "ym2612"
    },
    {
      "channel": 3,
      "note": 81,
      "start": 73.2157,
      "duration": 0.1207,
      "velocity": 91,
      "chip": "ym2612"
    },
    {
      "channel": 1,
      "note": 66,
      "start": 73.3374,
      "duration": 0.061,
      "velocity": 84,
      "chip": "ym2612"
    },
    {
      "channel": 4,
      "note": 73,
      "start": 73.3391,
      "duration": 0.0595,
      "velocity": 84,
      "chip": "ym2612"
    },
    {
      "channel": 2,
      "note": 105,
      "start": 73.3406,
      "duration": 0.116,
      "velocity": 109,
      "chip": "ym2612"
    }
  ]
}