{
  "track_name": "03 - Golden Warrior",
  "duration_sec": 78.027,
  "sample_rate": 44100,
  "note_count": 1193,
  "unique_pitches": 43,
  "pitch_range": 74,
  "avg_note_duration": 0.2693,
  "reconstruction_stats": {
    "notes_reconstructed": 1193,
    "keyon_events": 1193,
    "keyoff_events": 1190,
    "orphan_keyons": 3,
    "unique_pitches": 43,
    "pitch_range": 74,
    "avg_duration_sec": 0.2693
  },
  "metadata": {
    "source": "M\\Master of Monsters\\03 - Golden Warrior.vgz"
  },
  "notes": [
    {
      "channel": 0,
      "note": 68,
      "start": 0.0,
      "duration": 1.3727,
      "velocity": 112,
      "chip": "ym2612"
    },
    {
      "channel": 4,
      "note": 37,
      "start": 0.0103,
      "duration": 0.1042,
      "velocity": 111,
      "chip": "ym2612"
    },
    {
      "channel": 5,
      "note": 64,
      "start": 0.0127,
      "duration": 0.1272,
      "velocity": 127,
      "chip": "ym2612"
    },
    {
      "channel": 4,
      "note": 49,
      "start": 0.1396,
      "duration": 0.1177,
      "velocity": 111,
      "chip": "ym2612"
    },
    {
      "channel": 5,
      "note": 64,
      "start": 0.1401,
      "duration": 0.1425,
      "velocity": 127,
      "chip": "ym2612"
    },
    {
      "channel": 1,
      "note": 68,
      "start": 0.1862,
      "duration": 1.3769,
      "velocity": 112,
      "chip": "ym2612"
    },
    {
      "channel": 4,
      "note": 37,
      "start": 0.2823,
      "duration": 0.1177,
      "velocity": 111,
      "chip": "ym2612"
    },
    {
      "channel": 5,
      "note": 64,
      "start": 0.2829,
      "duration": 0.1426,
      "velocity": 123,
      "chip": "ym2612"
    },
    {
      "channel": 5,
      "note": 57,
      "start": 0.4257,
      "duration": 0.1431,
      "velocity": 127,
      "chip": "ym2612"
    },
    {
      "channel": 4,
      "note": 49,
      "start": 0.567,
      "duration": 0.1187,
      "velocity": 111,
      "chip": "ym2612"
    },
    {
      "channel": 5,
      "note": 64,
      "start": 0.569,
      "duration": 0.1422,
      "velocity": 123,
      "chip": "ym2612"
    },
    {
      "channel": 5,
      "note": 57,
      "start": 0.7115,
      "duration": 0.1428,
      "velocity": 127,
      "chip": "ym2612"
    },
    {
      "channel": 4,
      "note": 47,
      "start": 0.8526,
      "duration": 0.1185,
      "velocity": 111,
      "chip": "ym2612"
    },
    {
      "channel": 5,
      "note": 64,
      "start": 0.8545,
      "duration": 0.1408,
      "velocity": 127,
      "chip": "ym2612"
    },
    {
      "channel": 4,
      "note": 47,
      "start": 0.9951,
      "duration": 0.1186,
      "velocity": 111,
      "chip": "ym2612"
    },
    {
      "channel": 5,
      "note": 64,
      "start": 0.9956,
      "duration": 0.1449,
      "velocity": 127,
      "chip": "ym2612"
    },
    {
      "channel": 2,
      "note": 49,
      "start": 1.1361,
      "duration": 0.1185,
      "velocity": 106,
      "chip": "ym2612"
    },
    {
      "channel": 3,
      "note": 47,
      "start": 1.138,
      "duration": 0.1181,
      "velocity": 106,
      "chip": "ym2612"
    },
    {
      "channel": 4,
      "note": 49,
      "start": 1.1386,
      "duration": 0.1178,
      "velocity": 111,
      "chip": "ym2612"
    },
    {
      "channel": 5,
      "note": 64,
      "start": 1.1406,
      "duration": 0.1419,
      "velocity": 123,
      "chip": "ym2612"
    },
    {
      "channel": 2,
      "note": 49,
      "start": 1.2785,
      "duration": 0.1186,
      "velocity": 106,
      "chip": "ym2612"
    },
    {
      "channel": 3,
      "note": 47,
      "start": 1.2804,
      "duration": 0.1184,
      "velocity": 106,
      "chip": "ym2612"
    },
    {
      "channel": 5,
      "note": 57,
      "start": 1.2827,
      "duration": 0.1438,
      "velocity": 127,
      "chip": "ym2612"
    },
    {
      "channel": 0,
      "note": 61,
      "start": 1.4206,
      "duration": 0.2376,
      "velocity": 112,
      "chip": "ym2612"
    },
    {
      "channel": 2,
      "note": 49,
      "start": 1.4218,
      "duration": 0.118,
      "velocity": 106,
      "chip": "ym2612"
    },
    {
      "channel": 3,
      "note": 47,
      "start": 1.4241,
      "duration": 0.1172,
      "velocity": 106,
      "chip": "ym2612"
    },
    {
      "channel": 4,
      "note": 37,
      "start": 1.4247,
      "duration": 0.2593,
      "velocity": 111,
      "chip": "ym2612"
    },
    {
      "channel": 5,
      "note": 64,
      "start": 1.4267,
      "duration": 0.1411,
      "velocity": 123,
      "chip": "ym2612"
    },
    {
      "channel": 2,
      "note": 49,
      "start": 1.5638,
      "duration": 0.1186,
      "velocity": 106,
      "chip": "ym2612"
    },
    {
      "channel": 3,
      "note": 47,
      "start": 1.5658,
      "duration": 0.118,
      "velocity": 106,
      "chip": "ym2612"
    },
    {
      "channel": 5,
      "note": 57,
      "start": 1.568,
      "duration": 0.1442,
      "velocity": 127,
      "chip": "ym2612"
    },
    {
      "channel": 1,
      "note": 61,
      "start": 1.6109,
      "duration": 0.2376,
      "velocity": 112,
      "chip": "ym2612"
    },
    {
      "channel": 0,
      "note": 63,
      "start": 1.7059,
      "duration": 0.2373,
      "velocity": 112,
      "chip": "ym2612"
    },
    {
      "channel": 2,
      "note": 49,
      "start": 1.7073,
      "duration": 0.1177,
      "velocity": 106,
      "chip": "ym2612"
    },
    {
      "channel": 3,
      "note": 47,
      "start": 1.71,
      "duration": 0.1162,
      "velocity": 106,
      "chip": "ym2612"
    },
    {
      "channel": 5,
      "note": 59,
      "start": 1.7124,
      "duration": 0.2849,
      "velocity": 123,
      "chip": "ym2612"
    },
    {
      "channel": 2,
      "note": 49,
      "start": 1.8493,
      "duration": 0.1184,
      "velocity": 106,
      "chip": "ym2612"
    },
    {
      "channel": 3,
      "note": 47,
      "start": 1.8515,
      "duration": 0.1176,
      "velocity": 106,
      "chip": "ym2612"
    },
    {
      "channel": 1,
      "note": 63,
      "start": 1.8963,
      "duration": 0.2375,
      "velocity": 112,
      "chip": "ym2612"
    },
    {
      "channel": 0,
      "note": 64,
      "start": 1.9912,
      "duration": 0.2375,
      "velocity": 112,
      "chip": "ym2612"
    },
    {
      "channel": 2,
      "note": 49,
      "start": 1.9925,
      "duration": 0.1178,
      "velocity": 106,
      "chip": "ym2612"
    },
    {
      "channel": 3,
      "note": 47,
      "start": 1.9953,
      "duration": 0.1163,
      "velocity": 106,
      "chip": "ym2612"
    },
    {
      "channel": 5,
      "note": 59,
      "start": 1.9974,
      "duration": 0.1399,
      "velocity": 123,
      "chip": "ym2612"
    },
    {
      "channel": 2,
      "note": 49,
      "start": 2.1345,
      "duration": 0.1184,
      "velocity": 106,
      "chip": "ym2612"
    },
    {
      "channel": 3,
      "note": 47,
      "start": 2.1367,
      "duration": 0.1176,
      "velocity": 106,
      "chip": "ym2612"
    },
    {
      "channel": 5,
      "note": 59,
      "start": 2.1375,
      "duration": 0.1447,
      "velocity": 123,
      "chip": "ym2612"
    },
    {
      "channel": 1,
      "note": 64,
      "start": 2.1815,
      "duration": 0.2375,
      "velocity": 112,
      "chip": "ym2612"
    },
    {
      "channel": 0,
      "note": 67,
      "start": 2.2764,
      "duration": 1.664,
      "velocity": 112,
      "chip": "ym2612"
    },
    {
      "channel": 5,
      "note": 57,
      "start": 2.2824,
      "duration": 0.1407,
      "velocity": 127,
      "chip": "ym2612"
    },
    {
      "channel": 4,
      "note": 49,
      "start": 2.4214,
      "duration": 0.1184,
      "velocity": 111,
      "chip": "ym2612"
    },
    {
      "channel": 5,
      "note": 64,
      "start": 2.4234,
      "duration": 0.1413,
      "velocity": 127,
      "chip": "ym2612"
    },
    {
      "channel": 1,
      "note": 67,
      "start": 2.4668,
      "duration": 1.6641,
      "velocity": 112,
      "chip": "ym2612"
    },
    {
      "channel": 4,
      "note": 37,
      "start": 2.5643,
      "duration": 0.1182,
      "velocity": 111,
      "chip": "ym2612"
    },
    {
      "channel": 5,
      "note": 64,
      "start": 2.5649,
      "duration": 0.1432,
      "velocity": 123,
      "chip": "ym2612"
    },
    {
      "channel": 5,
      "note": 57,
      "start": 2.7083,
      "duration": 0.1429,
      "velocity": 127,
      "chip": "ym2612"
    },
    {
      "channel": 4,
      "note": 49,
      "start": 2.8495,
      "duration": 0.1187,
      "velocity": 111,
      "chip": "ym2612"
    },
    {
      "channel": 5,
      "note": 64,
      "start": 2.8515,
      "duration": 0.1422,
      "velocity": 123,
      "chip": "ym2612"
    },
    {
      "channel": 5,
      "note": 57,
      "start": 2.994,
      "duration": 0.1427,
      "velocity": 127,
      "chip": "ym2612"
    },
    {
      "channel": 4,
      "note": 47,
      "start": 3.135,
      "duration": 0.1183,
      "velocity": 111,
      "chip": "ym2612"
    },
    {
      "channel": 5,
      "note": 64,
      "start": 3.137,
      "duration": 0.1408,
      "velocity": 127,
      "chip": "ym2612"
    },
    {
      "channel": 4,
      "note": 47,
      "start": 3.2775,
      "duration": 0.1186,
      "velocity": 111,
      "chip": "ym2612"
    },
    {
      "channel": 5,
      "note": 64,
      "start": 3.278,
      "duration": 0.1448,
      "velocity": 127,
      "chip": "ym2612"
    },
    {
      "channel": 2,
      "note": 49,
      "start": 3.4186,
      "duration": 0.1184,
      "velocity": 106,
      "chip": "ym2612"
    },
    {
      "channel": 3,
      "note": 46,
      "start": 3.4205,
      "duration": 0.118,
      "velocity": 106,
      "chip": "ym2612"
    },
    {
      "channel": 4,
      "note": 49,
      "start": 3.4211,
      "duration": 0.1178,
      "velocity": 111,
      "chip": "ym2612"
    },
    {
      "channel": 5,
      "note": 64,
      "start": 3.423,
      "duration": 0.141,
      "velocity": 127,
      "chip": "ym2612"
    },
    {
      "channel": 2,
      "note": 49,
      "start": 3.5611,
      "duration": 0.1187,
      "velocity": 106,
      "chip": "ym2612"
    },
    {
      "channel": 3,
      "note": 46,
      "start": 3.563,
      "duration": 0.1183,
      "velocity": 106,
      "chip": "ym2612"
    },
    {
      "channel": 4,
      "note": 35,
      "start": 3.5636,
      "duration": 0.1179,
      "velocity": 111,
      "chip": "ym2612"
    },
    {
      "channel": 5,
      "note": 64,
      "start": 3.5641,
      "duration": 0.1424,
      "velocity": 127,
      "chip": "ym2612"
    },
    {
      "channel": 2,
      "note": 49,
      "start": 3.7037,
      "duration": 0.1187,
      "velocity": 106,
      "chip": "ym2612"
    },
    {
      "channel": 3,
      "note": 46,
      "start": 3.7057,
      "duration": 0.1182,
      "velocity": 106,
      "chip": "ym2612"
    },
    {
      "channel": 4,
      "note": 37,
      "start": 3.7063,
      "duration": 0.2606,
      "velocity": 111,
      "chip": "ym2612"
    },
    {
      "channel": 5,
      "note": 64,
      "start": 3.7068,
      "duration": 0.1439,
      "velocity": 123,
      "chip": "ym2612"
    },
    {
      "channel": 2,
      "note": 49,
      "start": 3.8467,
      "duration": 0.1184,
      "velocity": 106,
      "chip": "ym2612"
    },
    {
      "channel": 3,
      "note": 46,
      "start": 3.8488,
      "duration": 0.1178,
      "velocity": 106,
      "chip": "ym2612"
    },
    {
      "channel": 5,
      "note": 57,
      "start": 3.8509,
      "duration": 0.1434,
      "velocity": 127,
      "chip": "ym2612"
    },
    {
      "channel": 0,
      "note": 69,
      "start": 3.9883,
      "duration": 0.5229,
      "velocity": 112,
      "chip": "ym2612"
    },
    {
      "channel": 2,
      "note": 49,
      "start": 3.9897,
      "duration": 0.1178,
      "velocity": 106,
      "chip": "ym2612"
    },
    {
      "channel": 3,
      "note": 46,
      "start": 3.9923,
      "duration": 0.1167,
      "velocity": 106,
      "chip": "ym2612"
    },
    {
      "channel": 5,
      "note": 59,
      "start": 3.9946,
      "duration": 0.2841,
      "velocity": 123,
      "chip": "ym2612"
    },
    {
      "channel": 2,
      "note": 49,
      "start": 4.1318,
      "duration": 0.1185,
      "velocity": 106,
      "chip": "ym2612"
    },
    {
      "channel": 3,
      "note": 46,
      "start": 4.1341,
      "duration": 0.1175,
      "velocity": 106,
      "chip": "ym2612"
    },
    {
      "channel": 1,
      "note": 69,
      "start": 4.1788,
      "duration": 0.5227,
      "velocity": 112,
      "chip": "ym2612"
    },
    {
      "channel": 2,
      "note": 49,
      "start": 4.2745,
      "duration": 0.1183,
      "velocity": 106,
      "chip": "ym2612"
    },
    {
      "channel": 3,
      "note": 46,
      "start": 4.2768,
      "duration": 0.1173,
      "velocity": 106,
      "chip": "ym2612"
    },
    {
      "channel": 5,
      "note": 59,
      "start": 4.279,
      "duration": 0.1403,
      "velocity": 123,
      "chip": "ym2612"
    },
    {
      "channel": 2,
      "note": 49,
      "start": 4.4169,
      "duration": 0.1185,
      "velocity": 106,
      "chip": "ym2612"
    },
    {
      "channel": 3,
      "note": 46,
      "start": 4.4187,
      "duration": 0.1182,
      "velocity": 106,
      "chip": "ym2612"
    },
    {
      "channel": 5,
      "note": 59,
      "start": 4.4195,
      "duration": 0.145,
      "velocity": 127,
      "chip": "ym2612"
    },
    {
      "channel": 0,
      "note": 68,
      "start": 4.5589,
      "duration": 1.3788,
      "velocity": 112,
      "chip": "ym2612"
    },
    {
      "channel": 4,
      "note": 37,
      "start": 4.5629,
      "duration": 0.1171,
      "velocity": 111,
      "chip": "ym2612"
    },
    {
      "channel": 5,
      "note": 64,
      "start": 4.5648,
      "duration": 0.1398,
      "velocity": 127,
      "chip": "ym2612"
    },
    {
      "channel": 4,
      "note": 49,
      "start": 4.7042,
      "duration": 0.1183,
      "velocity": 111,
      "chip": "ym2612"
    },
    {
      "channel": 5,
      "note": 64,
      "start": 4.7047,
      "duration": 0.1424,
      "velocity": 127,
      "chip": "ym2612"
    },
    {
      "channel": 1,
      "note": 68,
      "start": 4.7493,
      "duration": 1.3788,
      "velocity": 112,
      "chip": "ym2612"
    },
    {
      "channel": 4,
      "note": 37,
      "start": 4.8468,
      "duration": 0.1182,
      "velocity": 111,
      "chip": "ym2612"
    },
    {
      "channel": 5,
      "note": 64,
      "start": 4.8473,
      "duration": 0.143,
      "velocity": 123,
      "chip": "ym2612"
    },
    {
      "channel": 5,
      "note": 57,
      "start": 4.9905,
      "duration": 0.1432,
      "velocity": 127,
      "chip": "ym2612"
    },
    {
      "channel": 4,
      "note": 49,
      "start": 5.132,
      "duration": 0.1188,
      "velocity": 111,
      "chip": "ym2612"
    },
    {
      "channel": 5,
      "note": 64,
      "start": 5.1339,
      "duration": 0.1423,
      "velocity": 123,
      "chip": "ym2612"
    },
    {
      "channel": 5,
      "note": 57,
      "start": 5.2765,
      "duration": 0.1428,
      "velocity": 127,
      "chip": "ym2612"
    },
    {
      "channel": 4,
      "note": 47,
      "start": 5.4176,
      "duration": 0.1182,
      "velocity": 111,
      "chip": "ym2612"
    },
    {
      "channel": 5,
      "note": 64,
      "start": 5.4196,
      "duration": 0.1408,
      "velocity": 127,
      "chip": "ym2612"
    },
    {
      "channel": 4,
      "note": 47,
      "start": 5.56,
      "duration": 0.1186,
      "velocity": 111,
      "chip": "ym2612"
    },
    {
      "channel": 5,
      "note": 64,
      "start": 5.5605,
      "duration": 0.1446,
      "velocity": 127,
      "chip": "ym2612"
    },
    {
      "channel": 2,
      "note": 49,
      "start": 5.7009,
      "duration": 0.1186,
      "velocity": 106,
      "chip": "ym2612"
    },
    {
      "channel": 3,
      "note": 47,
      "start": 5.7028,
      "duration": 0.1183,
      "velocity": 106,
      "chip": "ym2612"
    },
    {
      "channel": 4,
      "note": 49,
      "start": 5.7033,
      "duration": 0.1179,
      "velocity": 111,
      "chip": "ym2612"
    },
    {
      "channel": 5,
      "note": 64,
      "start": 5.7054,
      "duration": 0.142,
      "velocity": 123,
      "chip": "ym2612"
    },
    {
      "channel": 2,
      "note": 49,
      "start": 5.8435,
      "duration": 0.1186,
      "velocity": 106,
      "chip": "ym2612"
    },
    {
      "channel": 3,
      "note": 47,
      "start": 5.8453,
      "duration": 0.1183,
      "velocity": 106,
      "chip": "ym2612"
    },
    {
      "channel": 5,
      "note": 57,
      "start": 5.8476,
      "duration": 0.1437,
      "velocity": 127,
      "chip": "ym2612"
    },
    {
      "channel": 0,
      "note": 67,
      "start": 5.9855,
      "duration": 0.2374,
      "velocity": 112,
      "chip": "ym2612"
    },
    {
      "channel": 2,
      "note": 49,
      "start": 5.9866,
      "duration": 0.1181,
      "velocity": 106,
      "chip": "ym2612"
    },
    {
      "channel": 3,
      "note": 47,
      "start": 5.9889,
      "duration": 0.1174,
      "velocity": 106,
      "chip": "ym2612"
    },
    {
      "channel": 4,
      "note": 37,
      "start": 5.9895,
      "duration": 0.2595,
      "velocity": 111,
      "chip": "ym2612"
    },
    {
      "channel": 5,
      "note": 64,
      "start": 5.9915,
      "duration": 0.1412,
      "velocity": 123,
      "chip": "ym2612"
    },
    {
      "channel": 2,
      "note": 49,
      "start": 6.1287,
      "duration": 0.1187,
      "velocity": 106,
      "chip": "ym2612"
    },
    {
      "channel": 3,
      "note": 47,
      "start": 6.1307,
      "duration": 0.1181,
      "velocity": 106,
      "chip": "ym2612"
    },
    {
      "channel": 5,
      "note": 57,
      "start": 6.1329,
      "duration": 0.1441,
      "velocity": 127,
      "chip": "ym2612"
    },
    {
      "channel": 1,
      "note": 67,
      "start": 6.1759,
      "duration": 0.2375,
      "velocity": 112,
      "chip": "ym2612"
    },
    {
      "channel": 0,
      "note": 68,
      "start": 6.2706,
      "duration": 0.2377,
      "velocity": 112,
      "chip": "ym2612"
    },
    {
      "channel": 2,
      "note": 49,
      "start": 6.2721,
      "duration": 0.1179,
      "velocity": 106,
      "chip": "ym2612"
    },
    {
      "channel": 3,
      "note": 47,
      "start": 6.2748,
      "duration": 0.1165,
      "velocity": 106,
      "chip": "ym2612"
    },
    {
      "channel": 5,
      "note": 59,
      "start": 6.2772,
      "duration": 0.285,
      "velocity": 123,
      "chip": "ym2612"
    },
    {
      "channel": 2,
      "note": 49,
      "start": 6.4141,
      "duration": 0.1185,
      "velocity": 106,
      "chip": "ym2612"
    },
    {
      "channel": 3,
      "note": 47,
      "start": 6.4163,
      "duration": 0.1176,
      "velocity": 106,
      "chip": "ym2612"
    },
    {
      "channel": 1,
      "note": 68,
      "start": 6.4611,
      "duration": 0.2376,
      "velocity": 112,
      "chip": "ym2612"
    },
    {
      "channel": 0,
      "note": 71,
      "start": 6.5561,
      "duration": 0.2375,
      "velocity": 112,
      "chip": "ym2612"
    },
    {
      "channel": 2,
      "note": 49,
      "start": 6.5575,
      "duration": 0.1176,
      "velocity": 106,
      "chip": "ym2612"
    },
    {
      "channel": 3,
      "note": 47,
      "start": 6.5602,
      "duration": 0.1162,
      "velocity": 106,
      "chip": "ym2612"
    },
    {
      "channel": 5,
      "note": 57,
      "start": 6.5624,
      "duration": 0.1398,
      "velocity": 123,
      "chip": "ym2612"
    },
    {
      "channel": 2,
      "note": 49,
      "start": 6.6994,
      "duration": 0.1185,
      "velocity": 106,
      "chip": "ym2612"
    },
    {
      "channel": 3,
      "note": 47,
      "start": 6.7017,
      "duration": 0.1176,
      "velocity": 106,
      "chip": "ym2612"
    },
    {
      "channel": 5,
      "note": 57,
      "start": 6.7024,
      "duration": 0.1448,
      "velocity": 123,
      "chip": "ym2612"
    },
    {
      "channel": 1,
      "note": 71,
      "start": 6.7464,
      "duration": 0.2376,
      "velocity": 112,
      "chip": "ym2612"
    },
    {
      "channel": 0,
      "note": 70,
      "start": 6.8414,
      "duration": 2.2346,
      "velocity": 112,
      "chip": "ym2612"
    },
    {
      "channel": 5,
      "note": 57,
      "start": 6.8474,
      "duration": 0.1389,
      "velocity": 123,
      "chip": "ym2612"
    },
    {
      "channel": 5,
      "note": 57,
      "start": 6.9866,
      "duration": 0.1439,
      "velocity": 123,
      "chip": "ym2612"
    },
    {
      "channel": 1,
      "note": 70,
      "start": 7.0317,
      "duration": 2.2347,
      "velocity": 112,
      "chip": "ym2612"
    },
    {
      "channel": 5,
      "note": 57,
      "start": 7.1307,
      "duration": 0.1424,
      "velocity": 127,
      "chip": "ym2612"
    },
    {
      "channel": 4,
      "note": 47,
      "start": 7.2713,
      "duration": 0.1187,
      "velocity": 111,
      "chip": "ym2612"
    },
    {
      "channel": 5,
      "note": 64,
      "start": 7.2733,
      "duration": 0.1427,
      "velocity": 123,
      "chip": "ym2612"
    },
    {
      "channel": 4,
      "note": 49,
      "start": 7.4143,
      "duration": 0.1186,
      "velocity": 111,
      "chip": "ym2612"
    },
    {
      "channel": 5,
      "note": 57,
      "start": 7.4163,
      "duration": 0.1424,
      "velocity": 127,
      "chip": "ym2612"
    },
    {
      "channel": 4,
      "note": 35,
      "start": 7.5571,
      "duration": 0.1186,
      "velocity": 111,
      "chip": "ym2612"
    },
    {
      "channel": 5,
      "note": 64,
      "start": 7.559,
      "duration": 0.1427,
      "velocity": 123,
      "chip": "ym2612"
    },
    {
      "channel": 4,
      "note": 37,
      "start": 7.6999,
      "duration": 0.1184,
      "velocity": 111,
      "chip": "ym2612"
    },
    {
      "channel": 5,
      "note": 57,
      "start": 7.7019,
      "duration": 0.1421,
      "velocity": 127,
      "chip": "ym2612"
    },
    {
      "channel": 4,
      "note": 49,
      "start": 7.8423,
      "duration": 0.1188,
      "velocity": 111,
      "chip": "ym2612"
    },
    {
      "channel": 5,
      "note": 64,
      "start": 7.8442,
      "duration": 0.142,
      "velocity": 127,
      "chip": "ym2612"
    },
    {
      "channel": 2,
      "note": 51,
      "start": 7.9834,
      "duration": 0.1185,
      "velocity": 106,
      "chip": "ym2612"
    },
    {
      "channel": 3,
      "note": 47,
      "start": 7.9853,
      "duration": 0.1181,
      "velocity": 106,
      "chip": "ym2612"
    },
    {
      "channel": 4,
      "note": 50,
      "start": 7.9859,
      "duration": 0.1178,
      "velocity": 111,
      "chip": "ym2612"
    },
    {
      "channel": 5,
      "note": 64,
      "start": 7.9865,
      "duration": 0.1422,
      "velocity": 127,
      "chip": "ym2612"
    },
    {
      "channel": 2,
      "note": 45,
      "start": 8.126,
      "duration": 0.1186,
      "velocity": 106,
      "chip": "ym2612"
    },
    {
      "channel": 4,
      "note": 36,
      "start": 8.1283,
      "duration": 0.1181,
      "velocity": 111,
      "chip": "ym2612"
    },
    {
      "channel": 5,
      "note": 64,
      "start": 8.1288,
      "duration": 0.1426,
      "velocity": 127,
      "chip": "ym2612"
    },
    {
      "channel": 2,
      "note": 44,
      "start": 8.2687,
      "duration": 0.1186,
      "velocity": 106,
      "chip": "ym2612"
    },
    {
      "channel": 3,
      "note": 47,
      "start": 8.2706,
      "duration": 0.1183,
      "velocity": 106,
      "chip": "ym2612"
    },
    {
      "channel": 4,
      "note": 38,
      "start": 8.2712,
      "duration": 0.1179,
      "velocity": 111,
      "chip": "ym2612"
    },
    {
      "channel": 5,
      "note": 64,
      "start": 8.2717,
      "duration": 0.1434,
      "velocity": 123,
      "chip": "ym2612"
    },
    {
      "channel": 2,
      "note": 45,
      "start": 8.4113,
      "duration": 0.1187,
      "velocity": 106,
      "chip": "ym2612"
    },
    {
      "channel": 5,
      "note": 57,
      "start": 8.4152,
      "duration": 0.143,
      "velocity": 127,
      "chip": "ym2612"
    },
    {
      "channel": 2,
      "note": 44,
      "start": 8.554,
      "duration": 0.1186,
      "velocity": 106,
      "chip": "ym2612"
    },
    {
      "channel": 3,
      "note": 35,
      "start": 8.5559,
      "duration": 0.1181,
      "velocity": 106,
      "chip": "ym2612"
    },
    {
      "channel": 4,
      "note": 35,
      "start": 8.5565,
      "duration": 0.1178,
      "velocity": 111,
      "chip": "ym2612"
    },
    {
      "channel": 5,
      "note": 59,
      "start": 8.5585,
      "duration": 0.2837,
      "velocity": 127,
      "chip": "ym2612"
    },
    {
      "channel": 2,
      "note": 40,
      "start": 8.6965,
      "duration": 0.1188,
      "velocity": 106,
      "chip": "ym2612"
    },
    {
      "channel": 4,
      "note": 47,
      "start": 8.6987,
      "duration": 0.1183,
      "velocity": 111,
      "chip": "ym2612"
    },
    {
      "channel": 2,
      "note": 39,
      "start": 8.8393,
      "duration": 0.1184,
      "velocity": 106,
      "chip": "ym2612"
    },
    {
      "channel": 3,
      "note": 35,
      "start": 8.8412,
      "duration": 0.1181,
      "velocity": 106,
      "chip": "ym2612"
    },
    {
      "channel": 4,
      "note": 36,
      "start": 8.8418,
      "duration": 0.1177,
      "velocity": 111,
      "chip": "ym2612"
    },
    {
      "channel": 5,
      "note": 59,
      "start": 8.8424,
      "duration": 0.142,
      "velocity": 127,
      "chip": "ym2612"
    },
    {
      "channel": 2,
      "note": 35,
      "start": 8.9819,
      "duration": 0.1186,
      "velocity": 106,
      "chip": "ym2612"
    },
    {
      "channel": 4,
      "note": 48,
      "start": 8.9841,
      "duration": 0.1182,
      "velocity": 111,
      "chip": "ym2612"
    },
    {
      "channel": 5,
      "note": 59,
      "start": 8.9847,
      "duration": 0.1451,
      "velocity": 127,
      "chip": "ym2612"
    },
    {
      "channel": 0,
      "note": 68,
      "start": 9.1239,
      "duration": 1.3787,
      "velocity": 112,
      "chip": "ym2612"
    },
    {
      "channel": 2,
      "note": 37,
      "start": 9.1251,
      "duration": 0.118,
      "velocity": 106,
      "chip": "ym2612"
    },
    {
      "channel": 3,
      "note": 35,
      "start": 9.1275,
      "duration": 0.1171,
      "velocity": 106,
      "chip": "ym2612"
    },
    {
      "channel": 4,
      "note": 37,
      "start": 9.1281,
      "duration": 0.1168,
      "velocity": 111,
      "chip": "ym2612"
    },
    {
      "channel": 5,
      "note": 64,
      "start": 9.13,
      "duration": 0.1406,
      "velocity": 127,
      "chip": "ym2612"
    },
    {
      "channel": 2,
      "note": 37,
      "start": 9.2673,
      "duration": 0.1184,
      "velocity": 106,
      "chip": "ym2612"
    },
    {
      "channel": 3,
      "note": 35,
      "start": 9.2697,
      "duration": 0.1174,
      "velocity": 106,
      "chip": "ym2612"
    },
    {
      "channel": 4,
      "note": 49,
      "start": 9.2703,
      "duration": 0.1171,
      "velocity": 111,
      "chip": "ym2612"
    },
    {
      "channel": 5,
      "note": 64,
      "start": 9.2708,
      "duration": 0.1423,
      "velocity": 127,
      "chip": "ym2612"
    },
    {
      "channel": 1,
      "note": 68,
      "start": 9.3141,
      "duration": 1.3788,
      "velocity": 112,
      "chip": "ym2612"
    },
    {
      "channel": 2,
      "note": 37,
      "start": 9.4098,
      "duration": 0.1185,
      "velocity": 106,
      "chip": "ym2612"
    },
    {
      "channel": 3,
      "note": 35,
      "start": 9.4121,
      "duration": 0.1174,
      "velocity": 106,
      "chip": "ym2612"
    },
    {
      "channel": 4,
      "note": 37,
      "start": 9.4127,
      "duration": 0.1171,
      "velocity": 111,
      "chip": "ym2612"
    },
    {
      "channel": 5,
      "note": 64,
      "start": 9.4133,
      "duration": 0.1432,
      "velocity": 123,
      "chip": "ym2612"
    },
    {
      "channel": 2,
      "note": 37,
      "start": 9.5526,
      "duration": 0.1183,
      "velocity": 106,
      "chip": "ym2612"
    },
    {
      "channel": 3,
      "note": 35,
      "start": 9.5544,
      "duration": 0.1179,
      "velocity": 106,
      "chip": "ym2612"
    },
    {
      "channel": 5,
      "note": 57,
      "start": 9.5568,
      "duration": 0.1431,
      "velocity": 127,
      "chip": "ym2612"
    },
    {
      "channel": 4,
      "note": 49,
      "start": 9.6981,
      "duration": 0.1174,
      "velocity": 111,
      "chip": "ym2612"
    },
    {
      "channel": 5,
      "note": 64,
      "start": 9.7001,
      "duration": 0.141,
      "velocity": 123,
      "chip": "ym2612"
    },
    {
      "channel": 5,
      "note": 57,
      "start": 9.8414,
      "duration": 0.1427,
      "velocity": 127,
      "chip": "ym2612"
    },
    {
      "channel": 4,
      "note": 47,
      "start": 9.9823,
      "duration": 0.1184,
      "velocity": 111,
      "chip": "ym2612"
    },
    {
      "channel": 5,
      "note": 64,
      "start": 9.9843,
      "duration": 0.1411,
      "velocity": 127,
      "chip": "ym2612"
    },
    {
      "channel": 4,
      "note": 47,
      "start": 10.125,
      "duration": 0.1184,
      "velocity": 111,
      "chip": "ym2612"
    },
    {
      "channel": 5,
      "note": 64,
      "start": 10.1255,
      "duration": 0.1445,
      "velocity": 127,
      "chip": "ym2612"
    },
    {
      "channel": 2,
      "note": 49,
      "start": 10.2658,
      "duration": 0.1186,
      "velocity": 106,
      "chip": "ym2612"
    },
    {
      "channel": 3,
      "note": 47,
      "start": 10.2676,
      "duration": 0.1183,
      "velocity": 106,
      "chip": "ym2612"
    },
    {
      "channel": 4,
      "note": 49,
      "start": 10.2682,
      "duration": 0.118,
      "velocity": 111,
      "chip": "ym2612"
    },
    {
      "channel": 5,
      "note": 64,
      "start": 10.2702,
      "duration": 0.1421,
      "velocity": 123,
      "chip": "ym2612"
    },
    {
      "channel": 2,
      "note": 49,
      "start": 10.4084,
      "duration": 0.1187,
      "velocity": 106,
      "chip": "ym2612"
    },
    {
      "channel": 3,
      "note": 47,
      "start": 10.4102,
      "duration": 0.1185,
      "velocity": 106,
      "chip": "ym2612"
    },
    {
      "channel": 5,
      "note": 57,
      "start": 10.4126,
      "duration": 0.1436,
      "velocity": 127,
      "chip": "ym2612"
    },
    {
      "channel": 0,
      "note": 61,
      "start": 10.5503,
      "duration": 0.2375,
      "velocity": 112,
      "chip": "ym2612"
    },
    {
      "channel": 2,
      "note": 49,
      "start": 10.5515,
      "duration": 0.1181,
      "velocity": 106,
      "chip": "ym2612"
    },
    {
      "channel": 3,
      "note": 47,
      "start": 10.5537,
      "duration": 0.1174,
      "velocity": 106,
      "chip": "ym2612"
    },
    {
      "channel": 4,
      "note": 37,
      "start": 10.5544,
      "duration": 0.2595,
      "velocity": 111,
      "chip": "ym2612"
    },
    {
      "channel": 5,
      "note": 64,
      "start": 10.5564,
      "duration": 0.1412,
      "velocity": 123,
      "chip": "ym2612"
    },
    {
      "channel": 2,
      "note": 49,
      "start": 10.6936,
      "duration": 0.1186,
      "velocity": 106,
      "chip": "ym2612"
    },
    {
      "channel": 3,
      "note": 47,
      "start": 10.6956,
      "duration": 0.118,
      "velocity": 106,
      "chip": "ym2612"
    },
    {
      "channel": 5,
      "note": 57,
      "start": 10.6978,
      "duration": 0.1442,
      "velocity": 127,
      "chip": "ym2612"
    },
    {
      "channel": 1,
      "note": 61,
      "start": 10.7408,
      "duration": 0.2375,
      "velocity": 112,
      "chip": "ym2612"
    },
    {
      "channel": 0,
      "note": 63,
      "start": 10.8356,
      "duration": 0.2373,
      "velocity": 112,
      "chip": "ym2612"
    },
    {
      "channel": 2,
      "note": 49,
      "start": 10.8371,
      "duration": 0.1177,
      "velocity": 106,
      "chip": "ym2612"
    },
    {
      "channel": 3,
      "note": 47,
      "start": 10.8398,
      "duration": 0.1163,
      "velocity": 106,
      "chip": "ym2612"
    },
    {
      "channel": 5,
      "note": 59,
      "start": 10.8422,
      "duration": 0.2848,
      "velocity": 123,
      "chip": "ym2612"
    },
    {
      "channel": 2,
      "note": 49,
      "start": 10.979,
      "duration": 0.1185,
      "velocity": 106,
      "chip": "ym2612"
    },
    {
      "channel": 3,
      "note": 47,
      "start": 10.9812,
      "duration": 0.1177,
      "velocity": 106,
      "chip": "ym2612"
    },
    {
      "channel": 1,
      "note": 63,
      "start": 11.026,
      "duration": 0.2378,
      "velocity": 112,
      "chip": "ym2612"
    },
    {
      "channel": 0,
      "note": 64,
      "start": 11.121,
      "duration": 0.2374,
      "velocity": 112,
      "chip": "ym2612"
    },
    {
      "channel": 2,
      "note": 49,
      "start": 11.1224,
      "duration": 0.1176,
      "velocity": 106,
      "chip": "ym2612"
    },
    {
      "channel": 3,
      "note": 47,
      "start": 11.125,
      "duration": 0.1163,
      "velocity": 106,
      "chip": "ym2612"
    },
    {
      "channel": 5,
      "note": 59,
      "start": 11.1272,
      "duration": 0.1401,
      "velocity": 123,
      "chip": "ym2612"
    },
    {
      "channel": 2,
      "note": 49,
      "start": 11.2645,
      "duration": 0.1183,
      "velocity": 106,
      "chip": "ym2612"
    },
    {
      "channel": 3,
      "note": 47,
      "start": 11.2667,
      "duration": 0.1174,
      "velocity": 106,
      "chip": "ym2612"
    },
    {
      "channel": 5,
      "note": 59,
      "start": 11.2675,
      "duration": 0.1445,
      "velocity": 123,
      "chip": "ym2612"
    },
    {
      "channel": 1,
      "note": 64,
      "start": 11.3114,
      "duration": 0.2373,
      "velocity": 112,
      "chip": "ym2612"
    },
    {
      "channel": 0,
      "note": 67,
      "start": 11.4061,
      "duration": 1.6641,
      "velocity": 112,
      "chip": "ym2612"
    },
    {
      "channel": 5,
      "note": 57,
      "start": 11.4122,
      "duration": 0.1407,
      "velocity": 127,
      "chip": "ym2612"
    },
    {
      "channel": 4,
      "note": 49,
      "start": 11.5512,
      "duration": 0.1184,
      "velocity": 111,
      "chip": "ym2612"
    },
    {
      "channel": 5,
      "note": 64,
      "start": 11.5531,
      "duration": 0.1413,
      "velocity": 127,
      "chip": "ym2612"
    },
    {
      "channel": 1,
      "note": 67,
      "start": 11.5967,
      "duration": 1.664,
      "velocity": 112,
      "chip": "ym2612"
    },
    {
      "channel": 4,
      "note": 37,
      "start": 11.6941,
      "duration": 0.1181,
      "velocity": 111,
      "chip": "ym2612"
    },
    {
      "channel": 5,
      "note": 64,
      "start": 11.6947,
      "duration": 0.1431,
      "velocity": 123,
      "chip": "ym2612"
    },
    {
      "channel": 5,
      "note": 57,
      "start": 11.8379,
      "duration": 0.1432,
      "velocity": 127,
      "chip": "ym2612"
    },
    {
      "channel": 4,
      "note": 49,
      "start": 11.9794,
      "duration": 0.1184,
      "velocity": 111,
      "chip": "ym2612"
    },
    {
      "channel": 5,
      "note": 64,
      "start": 11.9814,
      "duration": 0.1422,
      "velocity": 123,
      "chip": "ym2612"
    },
    {
      "channel": 5,
      "note": 57,
      "start": 12.1238,
      "duration": 0.1426,
      "velocity": 127,
      "chip": "ym2612"
    },
    {
      "channel": 4,
      "note": 47,
      "start": 12.2647,
      "duration": 0.1184,
      "velocity": 111,
      "chip": "ym2612"
    },
    {
      "channel": 5,
      "note": 64,
      "start": 12.2667,
      "duration": 0.1409,
      "velocity": 127,
      "chip": "ym2612"
    },
    {
      "channel": 4,
      "note": 47,
      "start": 12.4073,
      "duration": 0.1186,
      "velocity": 111,
      "chip": "ym2612"
    },
    {
      "channel": 5,
      "note": 64,
      "start": 12.4078,
      "duration": 0.1447,
      "velocity": 127,
      "chip": "ym2612"
    },
    {
      "channel": 2,
      "note": 49,
      "start": 12.5483,
      "duration": 0.1184,
      "velocity": 106,
      "chip": "ym2612"
    },
    {
      "channel": 3,
      "note": 46,
      "start": 12.5502,
      "duration": 0.118,
      "velocity": 106,
      "chip": "ym2612"
    },
    {
      "channel": 4,
      "note": 49,
      "start": 12.5508,
      "duration": 0.1177,
      "velocity": 111,
      "chip": "ym2612"
    },
    {
      "channel": 5,
      "note": 64,
      "start": 12.5527,
      "duration": 0.141,
      "velocity": 127,
      "chip": "ym2612"
    },
    {
      "channel": 2,
      "note": 49,
      "start": 12.6909,
      "duration": 0.1186,
      "velocity": 106,
      "chip": "ym2612"
    },
    {
      "channel": 3,
      "note": 46,
      "start": 12.6927,
      "duration": 0.1183,
      "velocity": 106,
      "chip": "ym2612"
    },
    {
      "channel": 4,
      "note": 35,
      "start": 12.6934,
      "duration": 0.1179,
      "velocity": 111,
      "chip": "ym2612"
    },
    {
      "channel": 5,
      "note": 64,
      "start": 12.6939,
      "duration": 0.1424,
      "velocity": 127,
      "chip": "ym2612"
    },
    {
      "channel": 2,
      "note": 49,
      "start": 12.8335,
      "duration": 0.1186,
      "velocity": 106,
      "chip": "ym2612"
    },
    {
      "channel": 3,
      "note": 46,
      "start": 12.8353,
      "duration": 0.1182,
      "velocity": 106,
      "chip": "ym2612"
    },
    {
      "channel": 4,
      "note": 37,
      "start": 12.8359,
      "duration": 0.2606,
      "velocity": 111,
      "chip": "ym2612"
    },
    {
      "channel": 5,
      "note": 64,
      "start": 12.8365,
      "duration": 0.1439,
      "velocity": 123,
      "chip": "ym2612"
    },
    {
      "channel": 2,
      "note": 49,
      "start": 12.9764,
      "duration": 0.1184,
      "velocity": 106,
      "chip": "ym2612"
    },
    {
      "channel": 3,
      "note": 46,
      "start": 12.9785,
      "duration": 0.1178,
      "velocity": 106,
      "chip": "ym2612"
    },
    {
      "channel": 5,
      "note": 57,
      "start": 12.9806,
      "duration": 0.1434,
      "velocity": 127,
      "chip": "ym2612"
    },
    {
      "channel": 0,
      "note": 64,
      "start": 13.1179,
      "duration": 0.5229,
      "velocity": 112,
      "chip": "ym2612"
    },
    {
      "channel": 2,
      "note": 49,
      "start": 13.1194,
      "duration": 0.118,
      "velocity": 106,
      "chip": "ym2612"
    },
    {
      "channel": 3,
      "note": 46,
      "start": 13.1219,
      "duration": 0.117,
      "velocity": 106,
      "chip": "ym2612"
    },
    {
      "channel": 5,
      "note": 59,
      "start": 13.1242,
      "duration": 0.2841,
      "velocity": 123,
      "chip": "ym2612"
    },
    {
      "channel": 2,
      "note": 49,
      "start": 13.2615,
      "duration": 0.1184,
      "velocity": 106,
      "chip": "ym2612"
    },
    {
      "channel": 3,
      "note": 46,
      "start": 13.2638,
      "duration": 0.1175,
      "velocity": 106,
      "chip": "ym2612"
    },
    {
      "channel": 1,
      "note": 64,
      "start": 13.3085,
      "duration": 0.5228,
      "velocity": 112,
      "chip": "ym2612"
    },
    {
      "channel": 2,
      "note": 49,
      "start": 13.4041,
      "duration": 0.1184,
      "velocity": 106,
      "chip": "ym2612"
    },
    {
      "channel": 3,
      "note": 46,
      "start": 13.4063,
      "duration": 0.1176,
      "velocity": 106,
      "chip": "ym2612"
    },
    {
      "channel": 5,
      "note": 59,
      "start": 13.4085,
      "duration": 0.1407,
      "velocity": 123,
      "chip": "ym2612"
    },
    {
      "channel": 2,
      "note": 49,
      "start": 13.5468,
      "duration": 0.1184,
      "velocity": 106,
      "chip": "ym2612"
    },
    {
      "channel": 3,
      "note": 46,
      "start": 13.5486,
      "duration": 0.118,
      "velocity": 106,
      "chip": "ym2612"
    },
    {
      "channel": 5,
      "note": 59,
      "start": 13.5493,
      "duration": 0.1449,
      "velocity": 123,
      "chip": "ym2612"
    },
    {
      "channel": 0,
      "note": 66,
      "start": 13.6888,
      "duration": 1.6639,
      "velocity": 112,
      "chip": "ym2612"
    },
    {
      "channel": 5,
      "note": 57,
      "start": 13.6944,
      "duration": 0.1395,
      "velocity": 123,
      "chip": "ym2612"
    },
    {
      "channel": 5,
      "note": 57,
      "start": 13.8341,
      "duration": 0.1437,
      "velocity": 123,
      "chip": "ym2612"
    },
    {
      "channel": 1,
      "note": 66,
      "start": 13.879,
      "duration": 1.6641,
      "velocity": 112,
      "chip": "ym2612"
    },
    {
      "channel": 5,
      "note": 57,
      "start": 13.978,
      "duration": 0.1423,
      "velocity": 127,
      "chip": "ym2612"
    },
    {
      "channel": 4,
      "note": 45,
      "start": 14.1186,
      "duration": 0.1188,
      "velocity": 111,
      "chip": "ym2612"
    },
    {
      "channel": 5,
      "note": 64,
      "start": 14.1205,
      "duration": 0.1429,
      "velocity": 123,
      "chip": "ym2612"
    },
    {
      "channel": 4,
      "note": 47,
      "start": 14.2616,
      "duration": 0.1187,
      "velocity": 111,
      "chip": "ym2612"
    },
    {
      "channel": 5,
      "note": 57,
      "start": 14.2637,
      "duration": 0.1425,
      "velocity": 127,
      "chip": "ym2612"
    },
    {
      "channel": 4,
      "note": 33,
      "start": 14.4044,
      "duration": 0.1187,
      "velocity": 111,
      "chip": "ym2612"
    },
    {
      "channel": 5,
      "note": 64,
      "start": 14.4063,
      "duration": 0.1426,
      "velocity": 123,
      "chip": "ym2612"
    },
    {
      "channel": 4,
      "note": 35,
      "start": 14.5471,
      "duration": 0.1185,
      "velocity": 111,
      "chip": "ym2612"
    },
    {
      "channel": 5,
      "note": 57,
      "start": 14.5491,
      "duration": 0.1424,
      "velocity": 127,
      "chip": "ym2612"
    },
    {
      "channel": 4,
      "note": 47,
      "start": 14.6898,
      "duration": 0.1185,
      "velocity": 111,
      "chip": "ym2612"
    },
    {
      "channel": 5,
      "note": 64,
      "start": 14.6917,
      "duration": 0.1422,
      "velocity": 127,
      "chip": "ym2612"
    },
    {
      "channel": 2,
      "note": 47,
      "start": 14.8308,
      "duration": 0.1185,
      "velocity": 106,
      "chip": "ym2612"
    },
    {
      "channel": 3,
      "note": 45,
      "start": 14.8328,
      "duration": 0.118,
      "velocity": 106,
      "chip": "ym2612"
    },
    {
      "channel": 4,
      "note": 36,
      "start": 14.8334,
      "duration": 0.1176,
      "velocity": 111,
      "chip": "ym2612"
    },
    {
      "channel": 5,
      "note": 64,
      "start": 14.8341,
      "duration": 0.1423,
      "velocity": 127,
      "chip": "ym2612"
    },
    {
      "channel": 2,
      "note": 47,
      "start": 14.9734,
      "duration": 0.1185,
      "velocity": 106,
      "chip": "ym2612"
    },
    {
      "channel": 3,
      "note": 45,
      "start": 14.9755,
      "duration": 0.118,
      "velocity": 106,
      "chip": "ym2612"
    },
    {
      "channel": 4,
      "note": 33,
      "start": 14.9761,
      "duration": 0.1177,
      "velocity": 111,
      "chip": "ym2612"
    },
    {
      "channel": 5,
      "note": 64,
      "start": 14.9766,
      "duration": 0.1426,
      "velocity": 127,
      "chip": "ym2612"
    },
    {
      "channel": 2,
      "note": 47,
      "start": 15.1162,
      "duration": 0.1184,
      "velocity": 106,
      "chip": "ym2612"
    },
    {
      "channel": 3,
      "note": 45,
      "start": 15.1183,
      "duration": 0.1178,
      "velocity": 106,
      "chip": "ym2612"
    },
    {
      "channel": 4,
      "note": 35,
      "start": 15.1189,
      "duration": 0.2602,
      "velocity": 111,
      "chip": "ym2612"
    },
    {
      "channel": 5,
      "note": 64,
      "start": 15.1194,
      "duration": 0.1434,
      "velocity": 123,
      "chip": "ym2612"
    },
    {
      "channel": 2,
      "note": 47,
      "start": 15.2588,
      "duration": 0.1185,
      "velocity": 106,
      "chip": "ym2612"
    },
    {
      "channel": 3,
      "note": 45,
      "start": 15.2608,
      "duration": 0.1179,
      "velocity": 106,
      "chip": "ym2612"
    },
    {
      "channel": 5,
      "note": 57,
      "start": 15.263,
      "duration": 0.144,
      "velocity": 127,
      "chip": "ym2612"
    },
    {
      "channel": 0,
      "note": 65,
      "start": 15.4004,
      "duration": 0.5228,
      "velocity": 112,
      "chip": "ym2612"
    },
    {
      "channel": 2,
      "note": 47,
      "start": 15.4021,
      "duration": 0.1177,
      "velocity": 106,
      "chip": "ym2612"
    },
    {
      "channel": 3,
      "note": 45,
      "start": 15.4049,
      "duration": 0.1165,
      "velocity": 106,
      "chip": "ym2612"
    },
    {
      "channel": 5,
      "note": 59,
      "start": 15.4072,
      "duration": 0.2826,
      "velocity": 127,
      "chip": "ym2612"
    },
    {
      "channel": 2,
      "note": 47,
      "start": 15.5441,
      "duration": 0.1184,
      "velocity": 106,
      "chip": "ym2612"
    },
    {
      "channel": 3,
      "note": 45,
      "start": 15.5463,
      "duration": 0.1175,
      "velocity": 106,
      "chip": "ym2612"
    },
    {
      "channel": 1,
      "note": 65,
      "start": 15.591,
      "duration": 0.5227,
      "velocity": 112,
      "chip": "ym2612"
    },
    {
      "channel": 2,
      "note": 47,
      "start": 15.6867,
      "duration": 0.1184,
      "velocity": 106,
      "chip": "ym2612"
    },
    {
      "channel": 3,
      "note": 45,
      "start": 15.6889,
      "duration": 0.1176,
      "velocity": 106,
      "chip": "ym2612"
    },
    {
      "channel": 4,
      "note": 35,
      "start": 15.6895,
      "duration": 0.2598,
      "velocity": 111,
      "chip": "ym2612"
    },
    {
      "channel": 5,
      "note": 59,
      "start": 15.69,
      "duration": 0.1417,
      "velocity": 127,
      "chip": "ym2612"
    },
    {
      "channel": 2,
      "note": 47,
      "start": 15.8294,
      "duration": 0.1183,
      "velocity": 106,
      "chip": "ym2612"
    },
    {
      "channel": 3,
      "note": 45,
      "start": 15.8311,
      "duration": 0.1179,
      "velocity": 106,
      "chip": "ym2612"
    },
    {
      "channel": 5,
      "note": 59,
      "start": 15.8319,
      "duration": 0.1455,
      "velocity": 127,
      "chip": "ym2612"
    },
    {
      "channel": 0,
      "note": 61,
      "start": 15.9712,
      "duration": 4.5171,
      "velocity": 112,
      "chip": "ym2612"
    },
    {
      "channel": 4,
      "note": 37,
      "start": 15.9756,
      "duration": 0.1165,
      "velocity": 111,
      "chip": "ym2612"
    },
    {
      "channel": 5,
      "note": 64,
      "start": 15.9776,
      "duration": 0.1391,
      "velocity": 127,
      "chip": "ym2612"
    },
    {
      "channel": 4,
      "note": 49,
      "start": 16.1164,
      "duration": 0.1183,
      "velocity": 111,
      "chip": "ym2612"
    },
    {
      "channel": 5,
      "note": 64,
      "start": 16.1169,
      "duration": 0.1436,
      "velocity": 123,
      "chip": "ym2612"
    },
    {
      "channel": 1,
      "note": 61,
      "start": 16.1615,
      "duration": 4.5172,
      "velocity": 112,
      "chip": "ym2612"
    },
    {
      "channel": 4,
      "note": 37,
      "start": 16.2588,
      "duration": 0.1182,
      "velocity": 111,
      "chip": "ym2612"
    },
    {
      "channel": 5,
      "note": 57,
      "start": 16.2608,
      "duration": 0.1403,
      "velocity": 123,
      "chip": "ym2612"
    },
    {
      "channel": 5,
      "note": 57,
      "start": 16.4014,
      "duration": 0.1445,
      "velocity": 127,
      "chip": "ym2612"
    },
    {
      "channel": 4,
      "note": 49,
      "start": 16.5442,
      "duration": 0.1186,
      "velocity": 111,
      "chip": "ym2612"
    },
    {
      "channel": 5,
      "note": 59,
      "start": 16.5461,
      "duration": 0.2851,
      "velocity": 123,
      "chip": "ym2612"
    },
    {
      "channel": 4,
      "note": 47,
      "start": 16.8295,
      "duration": 0.1186,
      "velocity": 111,
      "chip": "ym2612"
    },
    {
      "channel": 5,
      "note": 57,
      "start": 16.8315,
      "duration": 0.141,
      "velocity": 123,
      "chip": "ym2612"
    },
    {
      "channel": 4,
      "note": 47,
      "start": 16.9721,
      "duration": 0.1188,
      "velocity": 111,
      "chip": "ym2612"
    },
    {
      "channel": 5,
      "note": 57,
      "start": 16.9727,
      "duration": 0.1446,
      "velocity": 127,
      "chip": "ym2612"
    },
    {
      "channel": 2,
      "note": 49,
      "start": 17.113,
      "duration": 0.1186,
      "velocity": 106,
      "chip": "ym2612"
    },
    {
      "channel": 3,
      "note": 47,
      "start": 17.1149,
      "duration": 0.1183,
      "velocity": 106,
      "chip": "ym2612"
    },
    {
      "channel": 4,
      "note": 49,
      "start": 17.1155,
      "duration": 0.1179,
      "velocity": 111,
      "chip": "ym2612"
    },
    {
      "channel": 5,
      "note": 64,
      "start": 17.1175,
      "duration": 0.1407,
      "velocity": 127,
      "chip": "ym2612"
    },
    {
      "channel": 2,
      "note": 49,
      "start": 17.2556,
      "duration": 0.1187,
      "velocity": 106,
      "chip": "ym2612"
    },
    {
      "channel": 3,
      "note": 47,
      "start": 17.2575,
      "duration": 0.1184,
      "velocity": 106,
      "chip": "ym2612"
    },
    {
      "channel": 5,
      "note": 64,
      "start": 17.2584,
      "duration": 0.1446,
      "velocity": 123,
      "chip": "ym2612"
    },
    {
      "channel": 2,
      "note": 49,
      "start": 17.3986,
      "duration": 0.1184,
      "velocity": 106,
      "chip": "ym2612"
    },
    {
      "channel": 3,
      "note": 47,
      "start": 17.4007,
      "duration": 0.1178,
      "velocity": 106,
      "chip": "ym2612"
    },
    {
      "channel": 4,
      "note": 37,
      "start": 17.4014,
      "duration": 0.26,
      "velocity": 111,
      "chip": "ym2612"
    },
    {
      "channel": 5,
      "note": 57,
      "start": 17.4033,
      "duration": 0.1405,
      "velocity": 123,
      "chip": "ym2612"
    },
    {
      "channel": 2,
      "note": 49,
      "start": 17.5412,
      "duration": 0.1185,
      "velocity": 106,
      "chip": "ym2612"
    },
    {
      "channel": 3,
      "note": 47,
      "start": 17.5432,
      "duration": 0.1179,
      "velocity": 106,
      "chip": "ym2612"
    },
    {
      "channel": 5,
      "note": 57,
      "start": 17.544,
      "duration": 0.1443,
      "velocity": 127,
      "chip": "ym2612"
    },
    {
      "channel": 2,
      "note": 49,
      "start": 17.6841,
      "duration": 0.1181,
      "velocity": 106,
      "chip": "ym2612"
    },
    {
      "channel": 3,
      "note": 47,
      "start": 17.6862,
      "duration": 0.1175,
      "velocity": 106,
      "chip": "ym2612"
    },
    {
      "channel": 5,
      "note": 59,
      "start": 17.6885,
      "duration": 0.285,
      "velocity": 123,
      "chip": "ym2612"
    },
    {
      "channel": 2,
      "note": 49,
      "start": 17.8265,
      "duration": 0.1185,
      "velocity": 106,
      "chip": "ym2612"
    },
    {
      "channel": 3,
      "note": 47,
      "start": 17.8285,
      "duration": 0.1179,
      "velocity": 106,
      "chip": "ym2612"
    },
    {
      "channel": 2,
      "note": 49,
      "start": 17.9693,
      "duration": 0.1185,
      "velocity": 106,
      "chip": "ym2612"
    },
    {
      "channel": 3,
      "note": 47,
      "start": 17.9714,
      "duration": 0.1179,
      "velocity": 106,
      "chip": "ym2612"
    },
    {
      "channel": 5,
      "note": 57,
      "start": 17.9737,
      "duration": 0.1408,
      "velocity": 123,
      "chip": "ym2612"
    },
    {
      "channel": 2,
      "note": 49,
      "start": 18.1119,
      "duration": 0.1183,
      "velocity": 106,
      "chip": "ym2612"
    },
    {
      "channel": 3,
      "note": 47,
      "start": 18.114,
      "duration": 0.1178,
      "velocity": 106,
      "chip": "ym2612"
    },
    {
      "channel": 5,
      "note": 57,
      "start": 18.1147,
      "duration": 0.144,
      "velocity": 127,
      "chip": "ym2612"
    },
    {
      "channel": 4,
      "note": 37,
      "start": 18.257,
      "duration": 0.1176,
      "velocity": 111,
      "chip": "ym2612"
    },
    {
      "channel": 5,
      "note": 64,
      "start": 18.2589,
      "duration": 0.1401,
      "velocity": 127,
      "chip": "ym2612"
    },
    {
      "channel": 4,
      "note": 49,
      "start": 18.3988,
      "duration": 0.1185,
      "velocity": 111,
      "chip": "ym2612"
    },
    {
      "channel": 5,
      "note": 64,
      "start": 18.3993,
      "duration": 0.1439,
      "velocity": 123,
      "chip": "ym2612"
    },
    {
      "channel": 4,
      "note": 37,
      "start": 18.5415,
      "duration": 0.1185,
      "velocity": 111,
      "chip": "ym2612"
    },
    {
      "channel": 5,
      "note": 57,
      "start": 18.5435,
      "duration": 0.1406,
      "velocity": 123,
      "chip": "ym2612"
    },
    {
      "channel": 5,
      "note": 57,
      "start": 18.6843,
      "duration": 0.1441,
      "velocity": 127,
      "chip": "ym2612"
    },
    {
      "channel": 4,
      "note": 49,
      "start": 18.8268,
      "duration": 0.1183,
      "velocity": 111,
      "chip": "ym2612"
    },
    {
      "channel": 5,
      "note": 59,
      "start": 18.8287,
      "duration": 0.2851,
      "velocity": 123,
      "chip": "ym2612"
    },
    {
      "channel": 4,
      "note": 47,
      "start": 19.112,
      "duration": 0.1184,
      "velocity": 111,
      "chip": "ym2612"
    },
    {
      "channel": 5,
      "note": 57,
      "start": 19.114,
      "duration": 0.1422,
      "velocity": 127,
      "chip": "ym2612"
    },
    {
      "channel": 4,
      "note": 47,
      "start": 19.2545,
      "duration": 0.1188,
      "velocity": 111,
      "chip": "ym2612"
    },
    {
      "channel": 5,
      "note": 59,
      "start": 19.2565,
      "duration": 0.1433,
      "velocity": 123,
      "chip": "ym2612"
    },
    {
      "channel": 2,
      "note": 49,
      "start": 19.3955,
      "duration": 0.1187,
      "velocity": 106,
      "chip": "ym2612"
    },
    {
      "channel": 3,
      "note": 47,
      "start": 19.3974,
      "duration": 0.1183,
      "velocity": 106,
      "chip": "ym2612"
    },
    {
      "channel": 4,
      "note": 49,
      "start": 19.398,
      "duration": 0.118,
      "velocity": 111,
      "chip": "ym2612"
    },
    {
      "channel": 5,
      "note": 57,
      "start": 19.4,
      "duration": 0.1422,
      "velocity": 127,
      "chip": "ym2612"
    },
    {
      "channel": 2,
      "note": 49,
      "start": 19.5381,
      "duration": 0.1186,
      "velocity": 106,
      "chip": "ym2612"
    },
    {
      "channel": 3,
      "note": 47,
      "start": 19.54,
      "duration": 0.1181,
      "velocity": 106,
      "chip": "ym2612"
    },
    {
      "channel": 5,
      "note": 59,
      "start": 19.5423,
      "duration": 0.1434,
      "velocity": 127,
      "chip": "ym2612"
    },
    {
      "channel": 2,
      "note": 49,
      "start": 19.6811,
      "duration": 0.1183,
      "velocity": 106,
      "chip": "ym2612"
    },
    {
      "channel": 3,
      "note": 47,
      "start": 19.6832,
      "duration": 0.1177,
      "velocity": 106,
      "chip": "ym2612"
    },
    {
      "channel": 4,
      "note": 37,
      "start": 19.6839,
      "duration": 0.26,
      "velocity": 111,
      "chip": "ym2612"
    },
    {
      "channel": 5,
      "note": 62,
      "start": 19.686,
      "duration": 0.0202,
      "velocity": 127,
      "chip": "ym2612"
    },
    {
      "channel": 5,
      "note": 62,
      "start": 19.7064,
      "duration": 0.12,
      "velocity": 127,
      "chip": "ym2612"
    },
    {
      "channel": 2,
      "note": 49,
      "start": 19.8238,
      "duration": 0.1183,
      "velocity": 106,
      "chip": "ym2612"
    },
    {
      "channel": 3,
      "note": 47,
      "start": 19.8258,
      "duration": 0.1178,
      "velocity": 106,
      "chip": "ym2612"
    },
    {
      "channel": 5,
      "note": 62,
      "start": 19.8266,
      "duration": 0.0221,
      "velocity": 127,
      "chip": "ym2612"
    },
    {
      "channel": 5,
      "note": 62,
      "start": 19.849,
      "duration": 0.1218,
      "velocity": 127,
      "chip": "ym2612"
    },
    {
      "channel": 2,
      "note": 49,
      "start": 19.9665,
      "duration": 0.1182,
      "velocity": 106,
      "chip": "ym2612"
    },
    {
      "channel": 3,
      "note": 47,
      "start": 19.9686,
      "duration": 0.1176,
      "velocity": 106,
      "chip": "ym2612"
    },
    {
      "channel": 5,
      "note": 59,
      "start": 19.971,
      "duration": 0.1407,
      "velocity": 127,
      "chip": "ym2612"
    },
    {
      "channel": 2,
      "note": 49,
      "start": 20.109,
      "duration": 0.1183,
      "velocity": 106,
      "chip": "ym2612"
    },
    {
      "channel": 3,
      "note": 47,
      "start": 20.111,
      "duration": 0.1177,
      "velocity": 106,
      "chip": "ym2612"
    },
    {
      "channel": 5,
      "note": 59,
      "start": 20.1118,
      "duration": 0.1429,
      "velocity": 127,
      "chip": "ym2612"
    },
    {
      "channel": 2,
      "note": 49,
      "start": 20.2517,
      "duration": 0.1184,
      "velocity": 106,
      "chip": "ym2612"
    },
    {
      "channel": 3,
      "note": 47,
      "start": 20.2538,
      "duration": 0.1177,
      "velocity": 106,
      "chip": "ym2612"
    },
    {
      "channel": 4,
      "note": 37,
      "start": 20.2544,
      "duration": 0.2601,
      "velocity": 111,
      "chip": "ym2612"
    },
    {
      "channel": 5,
      "note": 59,
      "start": 20.2549,
      "duration": 0.1421,
      "velocity": 127,
      "chip": "ym2612"
    },
    {
      "channel": 2,
      "note": 49,
      "start": 20.3944,
      "duration": 0.1183,
      "velocity": 106,
      "chip": "ym2612"
    },
    {
      "channel": 3,
      "note": 47,
      "start": 20.3964,
      "duration": 0.1178,
      "velocity": 106,
      "chip": "ym2612"
    },
    {
      "channel": 5,
      "note": 59,
      "start": 20.3972,
      "duration": 0.1449,
      "velocity": 127,
      "chip": "ym2612"
    },
    {
      "channel": 0,
      "note": 68,
      "start": 20.536,
      "duration": 1.3788,
      "velocity": 112,
      "chip": "ym2612"
    },
    {
      "channel": 4,
      "note": 37,
      "start": 20.5404,
      "duration": 0.1165,
      "velocity": 111,
      "chip": "ym2612"
    },
    {
      "channel": 5,
      "note": 64,
      "start": 20.5423,
      "duration": 0.1395,
      "velocity": 127,
      "chip": "ym2612"
    },
    {
      "channel": 4,
      "note": 49,
      "start": 20.6815,
      "duration": 0.118,
      "velocity": 111,
      "chip": "ym2612"
    },
    {
      "channel": 5,
      "note": 64,
      "start": 20.682,
      "duration": 0.1436,
      "velocity": 123,
      "chip": "ym2612"
    },
    {
      "channel": 1,
      "note": 68,
      "start": 20.7264,
      "duration": 1.3786,
      "velocity": 112,
      "chip": "ym2612"
    },
    {
      "channel": 4,
      "note": 37,
      "start": 20.8239,
      "duration": 0.118,
      "velocity": 111,
      "chip": "ym2612"
    },
    {
      "channel": 5,
      "note": 68,
      "start": 20.8259,
      "duration": 0.1416,
      "velocity": 127,
      "chip": "ym2612"
    },
    {
      "channel": 5,
      "note": 64,
      "start": 20.9677,
      "duration": 0.1431,
      "velocity": 127,
      "chip": "ym2612"
    },
    {
      "channel": 4,
      "note": 49,
      "start": 21.1091,
      "duration": 0.1185,
      "velocity": 111,
      "chip": "ym2612"
    },
    {
      "channel": 5,
      "note": 59,
      "start": 21.111,
      "duration": 0.2852,
      "velocity": 123,
      "chip": "ym2612"
    },
    {
      "channel": 4,
      "note": 47,
      "start": 21.3945,
      "duration": 0.1185,
      "velocity": 111,
      "chip": "ym2612"
    },
    {
      "channel": 5,
      "note": 68,
      "start": 21.3965,
      "duration": 0.1423,
      "velocity": 127,
      "chip": "ym2612"
    },
    {
      "channel": 4,
      "note": 47,
      "start": 21.5371,
      "duration": 0.1186,
      "velocity": 111,
      "chip": "ym2612"
    },
    {
      "channel": 5,
      "note": 64,
      "start": 21.539,
      "duration": 0.1432,
      "velocity": 123,
      "chip": "ym2612"
    },
    {
      "channel": 2,
      "note": 49,
      "start": 21.678,
      "duration": 0.1186,
      "velocity": 106,
      "chip": "ym2612"
    },
    {
      "channel": 3,
      "note": 47,
      "start": 21.6799,
      "duration": 0.1183,
      "velocity": 106,
      "chip": "ym2612"
    },
    {
      "channel": 4,
      "note": 49,
      "start": 21.6804,
      "duration": 0.1179,
      "velocity": 111,
      "chip": "ym2612"
    },
    {
      "channel": 5,
      "note": 57,
      "start": 21.6824,
      "duration": 0.1421,
      "velocity": 127,
      "chip": "ym2612"
    },
    {
      "channel": 2,
      "note": 49,
      "start": 21.8205,
      "duration": 0.1188,
      "velocity": 106,
      "chip": "ym2612"
    },
    {
      "channel": 3,
      "note": 47,
      "start": 21.8224,
      "duration": 0.1184,
      "velocity": 106,
      "chip": "ym2612"
    },
    {
      "channel": 5,
      "note": 64,
      "start": 21.8247,
      "duration": 0.1436,
      "velocity": 123,
      "chip": "ym2612"
    },
    {
      "channel": 0,
      "note": 61,
      "start": 21.9626,
      "duration": 0.2375,
      "velocity": 112,
      "chip": "ym2612"
    },
    {
      "channel": 2,
      "note": 49,
      "start": 21.9637,
      "duration": 0.118,
      "velocity": 106,
      "chip": "ym2612"
    },
    {
      "channel": 3,
      "note": 47,
      "start": 21.966,
      "duration": 0.1173,
      "velocity": 106,
      "chip": "ym2612"
    },
    {
      "channel": 4,
      "note": 37,
      "start": 21.9666,
      "duration": 0.2594,
      "velocity": 111,
      "chip": "ym2612"
    },
    {
      "channel": 5,
      "note": 68,
      "start": 21.9685,
      "duration": 0.1412,
      "velocity": 127,
      "chip": "ym2612"
    },
    {
      "channel": 2,
      "note": 49,
      "start": 22.1058,
      "duration": 0.1186,
      "velocity": 106,
      "chip": "ym2612"
    },
    {
      "channel": 3,
      "note": 47,
      "start": 22.1078,
      "duration": 0.1179,
      "velocity": 106,
      "chip": "ym2612"
    },
    {
      "channel": 5,
      "note": 64,
      "start": 22.11,
      "duration": 0.144,
      "velocity": 127,
      "chip": "ym2612"
    },
    {
      "channel": 1,
      "note": 61,
      "start": 22.1529,
      "duration": 0.2375,
      "velocity": 112,
      "chip": "ym2612"
    },
    {
      "channel": 0,
      "note": 63,
      "start": 22.2478,
      "duration": 0.2375,
      "velocity": 112,
      "chip": "ym2612"
    },
    {
      "channel": 2,
      "note": 49,
      "start": 22.2492,
      "duration": 0.1177,
      "velocity": 106,
      "chip": "ym2612"
    },
    {
      "channel": 3,
      "note": 47,
      "start": 22.2519,
      "duration": 0.1163,
      "velocity": 106,
      "chip": "ym2612"
    },
    {
      "channel": 5,
      "note": 59,
      "start": 22.2542,
      "duration": 0.2849,
      "velocity": 123,
      "chip": "ym2612"
    },
    {
      "channel": 2,
      "note": 49,
      "start": 22.3912,
      "duration": 0.1184,
      "velocity": 106,
      "chip": "ym2612"
    },
    {
      "channel": 3,
      "note": 47,
      "start": 22.3935,
      "duration": 0.1176,
      "velocity": 106,
      "chip": "ym2612"
    },
    {
      "channel": 1,
      "note": 63,
      "start": 22.4383,
      "duration": 0.2375,
      "velocity": 112,
      "chip": "ym2612"
    },
    {
      "channel": 0,
      "note": 64,
      "start": 22.533,
      "duration": 0.2376,
      "velocity": 112,
      "chip": "ym2612"
    },
    {
      "channel": 2,
      "note": 49,
      "start": 22.5344,
      "duration": 0.1179,
      "velocity": 106,
      "chip": "ym2612"
    },
    {
      "channel": 3,
      "note": 47,
      "start": 22.5371,
      "duration": 0.1165,
      "velocity": 106,
      "chip": "ym2612"
    },
    {
      "channel": 5,
      "note": 68,
      "start": 22.5393,
      "duration": 0.1414,
      "velocity": 123,
      "chip": "ym2612"
    },
    {
      "channel": 2,
      "note": 49,
      "start": 22.6766,
      "duration": 0.1186,
      "velocity": 106,
      "chip": "ym2612"
    },
    {
      "channel": 3,
      "note": 47,
      "start": 22.6788,
      "duration": 0.1177,
      "velocity": 106,
      "chip": "ym2612"
    },
    {
      "channel": 5,
      "note": 57,
      "start": 22.681,
      "duration": 0.1432,
      "velocity": 127,
      "chip": "ym2612"
    },
    {
      "channel": 1,
      "note": 64,
      "start": 22.7236,
      "duration": 0.2377,
      "velocity": 112,
      "chip": "ym2612"
    },
    {
      "channel": 0,
      "note": 67,
      "start": 22.8183,
      "duration": 1.6641,
      "velocity": 112,
      "chip": "ym2612"
    },
    {
      "channel": 5,
      "note": 64,
      "start": 22.8244,
      "duration": 0.1396,
      "velocity": 127,
      "chip": "ym2612"
    },
    {
      "channel": 4,
      "note": 49,
      "start": 22.9637,
      "duration": 0.118,
      "velocity": 111,
      "chip": "ym2612"
    },
    {
      "channel": 5,
      "note": 64,
      "start": 22.9642,
      "duration": 0.1437,
      "velocity": 123,
      "chip": "ym2612"
    },
    {
      "channel": 1,
      "note": 67,
      "start": 23.0088,
      "duration": 1.6641,
      "velocity": 112,
      "chip": "ym2612"
    },
    {
      "channel": 4,
      "note": 37,
      "start": 23.1062,
      "duration": 0.1182,
      "velocity": 111,
      "chip": "ym2612"
    },
    {
      "channel": 5,
      "note": 68,
      "start": 23.1082,
      "duration": 0.1416,
      "velocity": 127,
      "chip": "ym2612"
    },
    {
      "channel": 5,
      "note": 64,
      "start": 23.25,
      "duration": 0.1433,
      "velocity": 127,
      "chip": "ym2612"
    },
    {
      "channel": 4,
      "note": 49,
      "start": 23.3915,
      "duration": 0.1186,
      "velocity": 111,
      "chip": "ym2612"
    },
    {
      "channel": 5,
      "note": 59,
      "start": 23.3935,
      "duration": 0.2852,
      "velocity": 123,
      "chip": "ym2612"
    },
    {
      "channel": 4,
      "note": 47,
      "start": 23.677,
      "duration": 0.1184,
      "velocity": 111,
      "chip": "ym2612"
    },
    {
      "channel": 5,
      "note": 68,
      "start": 23.679,
      "duration": 0.1422,
      "velocity": 127,
      "chip": "ym2612"
    },
    {
      "channel": 4,
      "note": 47,
      "start": 23.8195,
      "duration": 0.1188,
      "velocity": 111,
      "chip": "ym2612"
    },
    {
      "channel": 5,
      "note": 64,
      "start": 23.8214,
      "duration": 0.1432,
      "velocity": 123,
      "chip": "ym2612"
    },
    {
      "channel": 2,
      "note": 49,
      "start": 23.9604,
      "duration": 0.1187,
      "velocity": 106,
      "chip": "ym2612"
    },
    {
      "channel": 3,
      "note": 46,
      "start": 23.9623,
      "duration": 0.1183,
      "velocity": 106,
      "chip": "ym2612"
    },
    {
      "channel": 4,
      "note": 49,
      "start": 23.9629,
      "duration": 0.1179,
      "velocity": 111,
      "chip": "ym2612"
    },
    {
      "channel": 5,
      "note": 57,
      "start": 23.9649,
      "duration": 0.1424,
      "velocity": 127,
      "chip": "ym2612"
    },
    {
      "channel": 2,
      "note": 49,
      "start": 24.103,
      "duration": 0.1186,
      "velocity": 106,
      "chip": "ym2612"
    },
    {
      "channel": 3,
      "note": 46,
      "start": 24.1049,
      "duration": 0.1183,
      "velocity": 106,
      "chip": "ym2612"
    },
    {
      "channel": 4,
      "note": 35,
      "start": 24.1056,
      "duration": 0.1179,
      "velocity": 111,
      "chip": "ym2612"
    },
    {
      "channel": 5,
      "note": 64,
      "start": 24.1075,
      "duration": 0.1426,
      "velocity": 123,
      "chip": "ym2612"
    },
    {
      "channel": 2,
      "note": 49,
      "start": 24.2458,
      "duration": 0.1185,
      "velocity": 106,
      "chip": "ym2612"
    },
    {
      "channel": 3,
      "note": 46,
      "start": 24.2477,
      "duration": 0.1179,
      "velocity": 106,
      "chip": "ym2612"
    },
    {
      "channel": 4,
      "note": 37,
      "start": 24.2483,
      "duration": 0.2605,
      "velocity": 111,
      "chip": "ym2612"
    },
    {
      "channel": 5,
      "note": 68,
      "start": 24.2503,
      "duration": 0.1423,
      "velocity": 127,
      "chip": "ym2612"
    },
    {
      "channel": 2,
      "note": 49,
      "start": 24.3885,
      "duration": 0.1184,
      "velocity": 106,
      "chip": "ym2612"
    },
    {
      "channel": 3,
      "note": 46,
      "start": 24.3907,
      "duration": 0.1179,
      "velocity": 106,
      "chip": "ym2612"
    },
    {
      "channel": 5,
      "note": 64,
      "start": 24.3928,
      "duration": 0.1435,
      "velocity": 127,
      "chip": "ym2612"
    },
    {
      "channel": 0,
      "note": 69,
      "start": 24.5302,
      "duration": 0.5228,
      "velocity": 112,
      "chip": "ym2612"
    },
    {
      "channel": 2,
      "note": 49,
      "start": 24.5317,
      "duration": 0.1178,
      "velocity": 106,
      "chip": "ym2612"
    },
    {
      "channel": 3,
      "note": 46,
      "start": 24.5342,
      "duration": 0.1168,
      "velocity": 106,
      "chip": "ym2612"
    },
    {
      "channel": 5,
      "note": 59,
      "start": 24.5366,
      "duration": 0.284,
      "velocity": 123,
      "chip": "ym2612"
    },
    {
      "channel": 2,
      "note": 49,
      "start": 24.6737,
      "duration": 0.1185,
      "velocity": 106,
      "chip": "ym2612"
    },
    {
      "channel": 3,
      "note": 46,
      "start": 24.6761,
      "duration": 0.1176,
      "velocity": 106,
      "chip": "ym2612"
    },
    {
      "channel": 1,
      "note": 69,
      "start": 24.7208,
      "duration": 0.5227,
      "velocity": 112,
      "chip": "ym2612"
    },
    {
      "channel": 2,
      "note": 49,
      "start": 24.8164,
      "duration": 0.1184,
      "velocity": 106,
      "chip": "ym2612"
    },
    {
      "channel": 3,
      "note": 46,
      "start": 24.8187,
      "duration": 0.1174,
      "velocity": 106,
      "chip": "ym2612"
    },
    {
      "channel": 5,
      "note": 68,
      "start": 24.8208,
      "duration": 0.1419,
      "velocity": 127,
      "chip": "ym2612"
    },
    {
      "channel": 2,
      "note": 49,
      "start": 24.9589,
      "duration": 0.1186,
      "velocity": 106,
      "chip": "ym2612"
    },
    {
      "channel": 3,
      "note": 46,
      "start": 24.9607,
      "duration": 0.1183,
      "velocity": 106,
      "chip": "ym2612"
    },
    {
      "channel": 5,
      "note": 59,
      "start": 24.9629,
      "duration": 0.1437,
      "velocity": 127,
      "chip": "ym2612"
    },
    {
      "channel": 0,
      "note": 68,
      "start": 25.1009,
      "duration": 1.3788,
      "velocity": 112,
      "chip": "ym2612"
    },
    {
      "channel": 4,
      "note": 37,
      "start": 25.1048,
      "duration": 0.1169,
      "velocity": 111,
      "chip": "ym2612"
    },
    {
      "channel": 5,
      "note": 64,
      "start": 25.1068,
      "duration": 0.1397,
      "velocity": 127,
      "chip": "ym2612"
    },
    {
      "channel": 4,
      "note": 49,
      "start": 25.2461,
      "duration": 0.1181,
      "velocity": 111,
      "chip": "ym2612"
    },
    {
      "channel": 5,
      "note": 64,
      "start": 25.2467,
      "duration": 0.1437,
      "velocity": 123,
      "chip": "ym2612"
    },
    {
      "channel": 1,
      "note": 68,
      "start": 25.2913,
      "duration": 1.3787,
      "velocity": 112,
      "chip": "ym2612"
    },
    {
      "channel": 4,
      "note": 37,
      "start": 25.3886,
      "duration": 0.1183,
      "velocity": 111,
      "chip": "ym2612"
    },
    {
      "channel": 5,
      "note": 68,
      "start": 25.3906,
      "duration": 0.1416,
      "velocity": 127,
      "chip": "ym2612"
    },
    {
      "channel": 5,
      "note": 64,
      "start": 25.5325,
      "duration": 0.1432,
      "velocity": 127,
      "chip": "ym2612"
    },
    {
      "channel": 4,
      "note": 49,
      "start": 25.6739,
      "duration": 0.1186,
      "velocity": 111,
      "chip": "ym2612"
    },
    {
      "channel": 5,
      "note": 59,
      "start": 25.6759,
      "duration": 0.2852,
      "velocity": 123,
      "chip": "ym2612"
    },
    {
      "channel": 4,
      "note": 47,
      "start": 25.9594,
      "duration": 0.1184,
      "velocity": 111,
      "chip": "ym2612"
    },
    {
      "channel": 5,
      "note": 68,
      "start": 25.9614,
      "duration": 0.1422,
      "velocity": 127,
      "chip": "ym2612"
    },
    {
      "channel": 4,
      "note": 47,
      "start": 26.1019,
      "duration": 0.1187,
      "velocity": 111,
      "chip": "ym2612"
    },
    {
      "channel": 5,
      "note": 64,
      "start": 26.1038,
      "duration": 0.1432,
      "velocity": 123,
      "chip": "ym2612"
    },
    {
      "channel": 2,
      "note": 49,
      "start": 26.2428,
      "duration": 0.1187,
      "velocity": 106,
      "chip": "ym2612"
    },
    {
      "channel": 3,
      "note": 47,
      "start": 26.2447,
      "duration": 0.1183,
      "velocity": 106,
      "chip": "ym2612"
    },
    {
      "channel": 4,
      "note": 49,
      "start": 26.2453,
      "duration": 0.1179,
      "velocity": 111,
      "chip": "ym2612"
    },
    {
      "channel": 5,
      "note": 57,
      "start": 26.2473,
      "duration": 0.1422,
      "velocity": 127,
      "chip": "ym2612"
    },
    {
      "channel": 2,
      "note": 49,
      "start": 26.3855,
      "duration": 0.1187,
      "velocity": 106,
      "chip": "ym2612"
    },
    {
      "channel": 3,
      "note": 47,
      "start": 26.3874,
      "duration": 0.1185,
      "velocity": 106,
      "chip": "ym2612"
    },
    {
      "channel": 5,
      "note": 64,
      "start": 26.3897,
      "duration": 0.1434,
      "velocity": 123,
      "chip": "ym2612"
    },
    {
      "channel": 0,
      "note": 67,
      "start": 26.5273,
      "duration": 0.2377,
      "velocity": 112,
      "chip": "ym2612"
    },
    {
      "channel": 2,
      "note": 49,
      "start": 26.5285,
      "duration": 0.1182,
      "velocity": 106,
      "chip": "ym2612"
    },
    {
      "channel": 3,
      "note": 47,
      "start": 26.5307,
      "duration": 0.1175,
      "velocity": 106,
      "chip": "ym2612"
    },
    {
      "channel": 4,
      "note": 37,
      "start": 26.5313,
      "duration": 0.2598,
      "velocity": 111,
      "chip": "ym2612"
    },
    {
      "channel": 5,
      "note": 68,
      "start": 26.5333,
      "duration": 0.1414,
      "velocity": 127,
      "chip": "ym2612"
    },
    {
      "channel": 2,
      "note": 49,
      "start": 26.6706,
      "duration": 0.1188,
      "velocity": 106,
      "chip": "ym2612"
    },
    {
      "channel": 3,
      "note": 47,
      "start": 26.6728,
      "duration": 0.118,
      "velocity": 106,
      "chip": "ym2612"
    },
    {
      "channel": 5,
      "note": 64,
      "start": 26.6749,
      "duration": 0.144,
      "velocity": 127,
      "chip": "ym2612"
    },
    {
      "channel": 1,
      "note": 67,
      "start": 26.7179,
      "duration": 0.2373,
      "velocity": 112,
      "chip": "ym2612"
    },
    {
      "channel": 0,
      "note": 68,
      "start": 26.8127,
      "duration": 0.2375,
      "velocity": 112,
      "chip": "ym2612"
    },
    {
      "channel": 2,
      "note": 49,
      "start": 26.8141,
      "duration": 0.1176,
      "velocity": 106,
      "chip": "ym2612"
    },
    {
      "channel": 3,
      "note": 47,
      "start": 26.8168,
      "duration": 0.1162,
      "velocity": 106,
      "chip": "ym2612"
    },
    {
      "channel": 5,
      "note": 59,
      "start": 26.8191,
      "duration": 0.2849,
      "velocity": 123,
      "chip": "ym2612"
    },
    {
      "channel": 2,
      "note": 49,
      "start": 26.956,
      "duration": 0.1185,
      "velocity": 106,
      "chip": "ym2612"
    },
    {
      "channel": 3,
      "note": 47,
      "start": 26.9582,
      "duration": 0.1178,
      "velocity": 106,
      "chip": "ym2612"
    },
    {
      "channel": 1,
      "note": 68,
      "start": 27.0032,
      "duration": 0.2375,
      "velocity": 112,
      "chip": "ym2612"
    },
    {
      "channel": 0,
      "note": 71,
      "start": 27.0979,
      "duration": 0.2375,
      "velocity": 112,
      "chip": "ym2612"
    },
    {
      "channel": 2,
      "note": 49,
      "start": 27.0993,
      "duration": 0.1178,
      "velocity": 106,
      "chip": "ym2612"
    },
    {
      "channel": 3,
      "note": 47,
      "start": 27.1021,
      "duration": 0.1163,
      "velocity": 106,
      "chip": "ym2612"
    },
    {
      "channel": 5,
      "note": 68,
      "start": 27.1042,
      "duration": 0.1414,
      "velocity": 123,
      "chip": "ym2612"
    },
    {
      "channel": 2,
      "note": 49,
      "start": 27.2413,
      "duration": 0.1184,
      "velocity": 106,
      "chip": "ym2612"
    },
    {
      "channel": 3,
      "note": 47,
      "start": 27.2436,
      "duration": 0.1175,
      "velocity": 106,
      "chip": "ym2612"
    },
    {
      "channel": 5,
      "note": 57,
      "start": 27.2458,
      "duration": 0.1434,
      "velocity": 127,
      "chip": "ym2612"
    },
    {
      "channel": 1,
      "note": 71,
      "start": 27.2885,
      "duration": 0.2373,
      "velocity": 112,
      "chip": "ym2612"
    },
    {
      "channel": 0,
      "note": 70,
      "start": 27.3834,
      "duration": 2.2346,
      "velocity": 112,
      "chip": "ym2612"
    },
    {
      "channel": 5,
      "note": 64,
      "start": 27.3894,
      "duration": 0.1388,
      "velocity": 127,
      "chip": "ym2612"
    },
    {
      "channel": 5,
      "note": 64,
      "start": 27.5284,
      "duration": 0.1441,
      "velocity": 123,
      "chip": "ym2612"
    },
    {
      "channel": 1,
      "note": 70,
      "start": 27.5736,
      "duration": 2.2348,
      "velocity": 112,
      "chip": "ym2612"
    },
    {
      "channel": 5,
      "note": 68,
      "start": 27.6727,
      "duration": 0.1424,
      "velocity": 127,
      "chip": "ym2612"
    },
    {
      "channel": 4,
      "note": 47,
      "start": 27.8134,
      "duration": 0.1186,
      "velocity": 111,
      "chip": "ym2612"
    },
    {
      "channel": 5,
      "note": 64,
      "start": 27.8154,
      "duration": 0.1428,
      "velocity": 127,
      "chip": "ym2612"
    },
    {
      "channel": 4,
      "note": 49,
      "start": 27.9563,
      "duration": 0.1187,
      "velocity": 111,
      "chip": "ym2612"
    },
    {
      "channel": 5,
      "note": 59,
      "start": 27.9583,
      "duration": 0.2852,
      "velocity": 127,
      "chip": "ym2612"
    },
    {
      "channel": 4,
      "note": 35,
      "start": 28.0991,
      "duration": 0.1185,
      "velocity": 111,
      "chip": "ym2612"
    },
    {
      "channel": 4,
      "note": 37,
      "start": 28.2418,
      "duration": 0.1185,
      "velocity": 111,
      "chip": "ym2612"
    },
    {
      "channel": 5,
      "note": 59,
      "start": 28.2438,
      "duration": 0.1424,
      "velocity": 123,
      "chip": "ym2612"
    },
    {
      "channel": 4,
      "note": 49,
      "start": 28.3844,
      "duration": 0.1187,
      "velocity": 111,
      "chip": "ym2612"
    },
    {
      "channel": 5,
      "note": 57,
      "start": 28.3863,
      "duration": 0.0457,
      "velocity": 123,
      "chip": "ym2612"
    },
    {
      "channel": 5,
      "note": 57,
      "start": 28.4323,
      "duration": 0.0471,
      "velocity": 123,
      "chip": "ym2612"
    },
    {
      "channel": 5,
      "note": 57,
      "start": 28.4796,
      "duration": 0.0499,
      "velocity": 127,
      "chip": "ym2612"
    },
    {
      "channel": 2,
      "note": 51,
      "start": 28.5254,
      "duration": 0.1186,
      "velocity": 106,
      "chip": "ym2612"
    },
    {
      "channel": 3,
      "note": 47,
      "start": 28.5272,
      "duration": 0.1183,
      "velocity": 106,
      "chip": "ym2612"
    },
    {
      "channel": 4,
      "note": 50,
      "start": 28.5278,
      "duration": 0.118,
      "velocity": 111,
      "chip": "ym2612"
    },
    {
      "channel": 5,
      "note": 59,
      "start": 28.5297,
      "duration": 0.1408,
      "velocity": 127,
      "chip": "ym2612"
    },
    {
      "channel": 2,
      "note": 45,
      "start": 28.6679,
      "duration": 0.1186,
      "velocity": 106,
      "chip": "ym2612"
    },
    {
      "channel": 4,
      "note": 36,
      "start": 28.6702,
      "duration": 0.118,
      "velocity": 111,
      "chip": "ym2612"
    },
    {
      "channel": 5,
      "note": 59,
      "start": 28.6708,
      "duration": 0.1429,
      "velocity": 127,
      "chip": "ym2612"
    },
    {
      "channel": 2,
      "note": 44,
      "start": 28.8108,
      "duration": 0.1183,
      "velocity": 106,
      "chip": "ym2612"
    },
    {
      "channel": 3,
      "note": 47,
      "start": 28.8127,
      "duration": 0.1178,
      "velocity": 106,
      "chip": "ym2612"
    },
    {
      "channel": 4,
      "note": 38,
      "start": 28.8133,
      "duration": 0.1175,
      "velocity": 111,
      "chip": "ym2612"
    },
    {
      "channel": 5,
      "note": 59,
      "start": 28.8139,
      "duration": 0.1432,
      "velocity": 127,
      "chip": "ym2612"
    },
    {
      "channel": 2,
      "note": 45,
      "start": 28.9533,
      "duration": 0.1186,
      "velocity": 106,
      "chip": "ym2612"
    },
    {
      "channel": 5,
      "note": 64,
      "start": 28.9573,
      "duration": 0.0452,
      "velocity": 127,
      "chip": "ym2612"
    },
    {
      "channel": 5,
      "note": 64,
      "start": 29.0028,
      "duration": 0.0473,
      "velocity": 127,
      "chip": "ym2612"
    },
    {
      "channel": 5,
      "note": 64,
      "start": 29.0502,
      "duration": 0.0486,
      "velocity": 127,
      "chip": "ym2612"
    },
    {
      "channel": 2,
      "note": 44,
      "start": 29.096,
      "duration": 0.1185,
      "velocity": 106,
      "chip": "ym2612"
    },
    {
      "channel": 3,
      "note": 35,
      "start": 29.0979,
      "duration": 0.118,
      "velocity": 106,
      "chip": "ym2612"
    },
    {
      "channel": 4,
      "note": 35,
      "start": 29.0985,
      "duration": 0.1177,
      "velocity": 111,
      "chip": "ym2612"
    },
    {
      "channel": 5,
      "note": 64,
      "start": 29.0991,
      "duration": 0.1421,
      "velocity": 127,
      "chip": "ym2612"
    },
    {
      "channel": 2,
      "note": 40,
      "start": 29.2385,
      "duration": 0.1185,
      "velocity": 106,
      "chip": "ym2612"
    },
    {
      "channel": 4,
      "note": 47,
      "start": 29.2408,
      "duration": 0.118,
      "velocity": 111,
      "chip": "ym2612"
    },
    {
      "channel": 5,
      "note": 59,
      "start": 29.2414,
      "duration": 0.1427,
      "velocity": 127,
      "chip": "ym2612"
    },
    {
      "channel": 2,
      "note": 39,
      "start": 29.3812,
      "duration": 0.1186,
      "velocity": 106,
      "chip": "ym2612"
    },
    {
      "channel": 3,
      "note": 35,
      "start": 29.383,
      "duration": 0.1182,
      "velocity": 106,
      "chip": "ym2612"
    },
    {
      "channel": 4,
      "note": 36,
      "start": 29.3837,
      "duration": 0.1178,
      "velocity": 111,
      "chip": "ym2612"
    },
    {
      "channel": 5,
      "note": 56,
      "start": 29.3844,
      "duration": 0.0222,
      "velocity": 127,
      "chip": "ym2612"
    },
    {
      "channel": 5,
      "note": 56,
      "start": 29.4068,
      "duration": 0.1198,
      "velocity": 127,
      "chip": "ym2612"
    },
    {
      "channel": 2,
      "note": 35,
      "start": 29.5239,
      "duration": 0.1186,
      "velocity": 106,
      "chip": "ym2612"
    },
    {
      "channel": 4,
      "note": 48,
      "start": 29.5261,
      "duration": 0.1182,
      "velocity": 111,
      "chip": "ym2612"
    },
    {
      "channel": 5,
      "note": 56,
      "start": 29.5268,
      "duration": 0.0225,
      "velocity": 127,
      "chip": "ym2612"
    },
    {
      "channel": 5,
      "note": 56,
      "start": 29.5495,
      "duration": 0.1224,
      "velocity": 127,
      "chip": "ym2612"
    },
    {
      "channel": 0,
      "note": 68,
      "start": 29.6657,
      "duration": 1.3788,
      "velocity": 112,
      "chip": "ym2612"
    },
    {
      "channel": 2,
      "note": 37,
      "start": 29.667,
      "duration": 0.1179,
      "velocity": 106,
      "chip": "ym2612"
    },
    {
      "channel": 3,
      "note": 35,
      "start": 29.6694,
      "duration": 0.117,
      "velocity": 106,
      "chip": "ym2612"
    },
    {
      "channel": 4,
      "note": 37,
      "start": 29.67,
      "duration": 0.1166,
      "velocity": 111,
      "chip": "ym2612"
    },
    {
      "channel": 5,
      "note": 64,
      "start": 29.6722,
      "duration": 0.1405,
      "velocity": 127,
      "chip": "ym2612"
    },
    {
      "channel": 2,
      "note": 37,
      "start": 29.8093,
      "duration": 0.1182,
      "velocity": 106,
      "chip": "ym2612"
    },
    {
      "channel": 3,
      "note": 35,
      "start": 29.8117,
      "duration": 0.1172,
      "velocity": 106,
      "chip": "ym2612"
    },
    {
      "channel": 4,
      "note": 49,
      "start": 29.8123,
      "duration": 0.1168,
      "velocity": 111,
      "chip": "ym2612"
    },
    {
      "channel": 5,
      "note": 64,
      "start": 29.8128,
      "duration": 0.1438,
      "velocity": 123,
      "chip": "ym2612"
    },
    {
      "channel": 1,
      "note": 68,
      "start": 29.8562,
      "duration": 1.3786,
      "velocity": 112,
      "chip": "ym2612"
    },
    {
      "channel": 2,
      "note": 37,
      "start": 29.9519,
      "duration": 0.1183,
      "velocity": 106,
      "chip": "ym2612"
    },
    {
      "channel": 3,
      "note": 35,
      "start": 29.9542,
      "duration": 0.1173,
      "velocity": 106,
      "chip": "ym2612"
    },
    {
      "channel": 4,
      "note": 37,
      "start": 29.9547,
      "duration": 0.117,
      "velocity": 111,
      "chip": "ym2612"
    },
    {
      "channel": 5,
      "note": 68,
      "start": 29.9568,
      "duration": 0.1415,
      "velocity": 127,
      "chip": "ym2612"
    },
    {
      "channel": 2,
      "note": 37,
      "start": 30.0944,
      "duration": 0.1185,
      "velocity": 106,
      "chip": "ym2612"
    },
    {
      "channel": 3,
      "note": 35,
      "start": 30.0962,
      "duration": 0.1181,
      "velocity": 106,
      "chip": "ym2612"
    },
    {
      "channel": 5,
      "note": 64,
      "start": 30.0985,
      "duration": 0.1434,
      "velocity": 127,
      "chip": "ym2612"
    },
    {
      "channel": 4,
      "note": 49,
      "start": 30.2401,
      "duration": 0.1173,
      "velocity": 111,
      "chip": "ym2612"
    },
    {
      "channel": 5,
      "note": 59,
      "start": 30.2421,
      "duration": 0.2839,
      "velocity": 123,
      "chip": "ym2612"
    },
    {
      "channel": 4,
      "note": 47,
      "start": 30.5243,
      "duration": 0.1185,
      "velocity": 111,
      "chip": "ym2612"
    },
    {
      "channel": 5,
      "note": 68,
      "start": 30.5262,
      "duration": 0.1422,
      "velocity": 127,
      "chip": "ym2612"
    },
    {
      "channel": 4,
      "note": 47,
      "start": 30.6668,
      "duration": 0.1187,
      "velocity": 111,
      "chip": "ym2612"
    },
    {
      "channel": 5,
      "note": 64,
      "start": 30.6687,
      "duration": 0.1433,
      "velocity": 123,
      "chip": "ym2612"
    },
    {
      "channel": 2,
      "note": 49,
      "start": 30.8077,
      "duration": 0.1185,
      "velocity": 106,
      "chip": "ym2612"
    },
    {
      "channel": 3,
      "note": 47,
      "start": 30.8096,
      "duration": 0.1181,
      "velocity": 106,
      "chip": "ym2612"
    },
    {
      "channel": 4,
      "note": 49,
      "start": 30.8102,
      "duration": 0.1178,
      "velocity": 111,
      "chip": "ym2612"
    },
    {
      "channel": 5,
      "note": 57,
      "start": 30.8122,
      "duration": 0.142,
      "velocity": 127,
      "chip": "ym2612"
    },
    {
      "channel": 2,
      "note": 49,
      "start": 30.9503,
      "duration": 0.1188,
      "velocity": 106,
      "chip": "ym2612"
    },
    {
      "channel": 3,
      "note": 47,
      "start": 30.9522,
      "duration": 0.1184,
      "velocity": 106,
      "chip": "ym2612"
    },
    {
      "channel": 5,
      "note": 64,
      "start": 30.9544,
      "duration": 0.1436,
      "velocity": 123,
      "chip": "ym2612"
    },
    {
      "channel": 0,
      "note": 61,
      "start": 31.0922,
      "duration": 0.2375,
      "velocity": 112,
      "chip": "ym2612"
    },
    {
      "channel": 2,
      "note": 49,
      "start": 31.0934,
      "duration": 0.118,
      "velocity": 106,
      "chip": "ym2612"
    },
    {
      "channel": 3,
      "note": 47,
      "start": 31.0956,
      "duration": 0.1173,
      "velocity": 106,
      "chip": "ym2612"
    },
    {
      "channel": 4,
      "note": 37,
      "start": 31.0963,
      "duration": 0.2595,
      "velocity": 111,
      "chip": "ym2612"
    },
    {
      "channel": 5,
      "note": 68,
      "start": 31.0982,
      "duration": 0.1413,
      "velocity": 127,
      "chip": "ym2612"
    },
    {
      "channel": 2,
      "note": 49,
      "start": 31.2355,
      "duration": 0.1186,
      "velocity": 106,
      "chip": "ym2612"
    },
    {
      "channel": 3,
      "note": 47,
      "start": 31.2375,
      "duration": 0.118,
      "velocity": 106,
      "chip": "ym2612"
    },
    {
      "channel": 5,
      "note": 64,
      "start": 31.2397,
      "duration": 0.144,
      "velocity": 127,
      "chip": "ym2612"
    },
    {
      "channel": 1,
      "note": 61,
      "start": 31.2826,
      "duration": 0.2375,
      "velocity": 112,
      "chip": "ym2612"
    },
    {
      "channel": 0,
      "note": 63,
      "start": 31.3774,
      "duration": 0.2376,
      "velocity": 112,
      "chip": "ym2612"
    },
    {
      "channel": 2,
      "note": 49,
      "start": 31.3788,
      "duration": 0.1178,
      "velocity": 106,
      "chip": "ym2612"
    },
    {
      "channel": 3,
      "note": 47,
      "start": 31.3816,
      "duration": 0.1163,
      "velocity": 106,
      "chip": "ym2612"
    },
    {
      "channel": 5,
      "note": 59,
      "start": 31.3839,
      "duration": 0.285,
      "velocity": 123,
      "chip": "ym2612"
    },
    {
      "channel": 2,
      "note": 49,
      "start": 31.5209,
      "duration": 0.1186,
      "velocity": 106,
      "chip": "ym2612"
    },
    {
      "channel": 3,
      "note": 47,
      "start": 31.5231,
      "duration": 0.1177,
      "velocity": 106,
      "chip": "ym2612"
    },
    {
      "channel": 1,
      "note": 63,
      "start": 31.5681,
      "duration": 0.2375,
      "velocity": 112,
      "chip": "ym2612"
    },
    {
      "channel": 0,
      "note": 64,
      "start": 31.6628,
      "duration": 0.2375,
      "velocity": 112,
      "chip": "ym2612"
    },
    {
      "channel": 2,
      "note": 49,
      "start": 31.6641,
      "duration": 0.1179,
      "velocity": 106,
      "chip": "ym2612"
    },
    {
      "channel": 3,
      "note": 47,
      "start": 31.6669,
      "duration": 0.1165,
      "velocity": 106,
      "chip": "ym2612"
    },
    {
      "channel": 5,
      "note": 68,
      "start": 31.669,
      "duration": 0.1414,
      "velocity": 123,
      "chip": "ym2612"
    },
    {
      "channel": 2,
      "note": 49,
      "start": 31.8063,
      "duration": 0.1185,
      "velocity": 106,
      "chip": "ym2612"
    },
    {
      "channel": 3,
      "note": 47,
      "start": 31.8085,
      "duration": 0.1176,
      "velocity": 106,
      "chip": "ym2612"
    },
    {
      "channel": 5,
      "note": 57,
      "start": 31.8107,
      "duration": 0.1432,
      "velocity": 127,
      "chip": "ym2612"
    },
    {
      "channel": 1,
      "note": 64,
      "start": 31.8533,
      "duration": 0.2375,
      "velocity": 112,
      "chip": "ym2612"
    },
    {
      "channel": 0,
      "note": 67,
      "start": 31.9481,
      "duration": 1.6641,
      "velocity": 112,
      "chip": "ym2612"
    },
    {
      "channel": 5,
      "note": 64,
      "start": 31.9542,
      "duration": 0.1394,
      "velocity": 127,
      "chip": "ym2612"
    },
    {
      "channel": 4,
      "note": 49,
      "start": 32.0933,
      "duration": 0.1182,
      "velocity": 111,
      "chip": "ym2612"
    },
    {
      "channel": 5,
      "note": 64,
      "start": 32.0938,
      "duration": 0.144,
      "velocity": 123,
      "chip": "ym2612"
    },
    {
      "channel": 1,
      "note": 67,
      "start": 32.1386,
      "duration": 1.664,
      "velocity": 112,
      "chip": "ym2612"
    },
    {
      "channel": 4,
      "note": 37,
      "start": 32.236,
      "duration": 0.1181,
      "velocity": 111,
      "chip": "ym2612"
    },
    {
      "channel": 5,
      "note": 68,
      "start": 32.238,
      "duration": 0.1417,
      "velocity": 127,
      "chip": "ym2612"
    },
    {
      "channel": 5,
      "note": 64,
      "start": 32.3799,
      "duration": 0.1431,
      "velocity": 127,
      "chip": "ym2612"
    },
    {
      "channel": 4,
      "note": 49,
      "start": 32.5212,
      "duration": 0.1187,
      "velocity": 111,
      "chip": "ym2612"
    },
    {
      "channel": 5,
      "note": 59,
      "start": 32.5232,
      "duration": 0.2852,
      "velocity": 123,
      "chip": "ym2612"
    },
    {
      "channel": 4,
      "note": 47,
      "start": 32.8067,
      "duration": 0.1184,
      "velocity": 111,
      "chip": "ym2612"
    },
    {
      "channel": 5,
      "note": 68,
      "start": 32.8087,
      "duration": 0.1422,
      "velocity": 127,
      "chip": "ym2612"
    },
    {
      "channel": 4,
      "note": 47,
      "start": 32.9491,
      "duration": 0.1187,
      "velocity": 111,
      "chip": "ym2612"
    },
    {
      "channel": 5,
      "note": 64,
      "start": 32.951,
      "duration": 0.1433,
      "velocity": 123,
      "chip": "ym2612"
    },
    {
      "channel": 2,
      "note": 49,
      "start": 33.0901,
      "duration": 0.1186,
      "velocity": 106,
      "chip": "ym2612"
    },
    {
      "channel": 3,
      "note": 46,
      "start": 33.092,
      "duration": 0.1182,
      "velocity": 106,
      "chip": "ym2612"
    },
    {
      "channel": 4,
      "note": 49,
      "start": 33.0926,
      "duration": 0.1179,
      "velocity": 111,
      "chip": "ym2612"
    },
    {
      "channel": 5,
      "note": 57,
      "start": 33.0946,
      "duration": 0.1424,
      "velocity": 127,
      "chip": "ym2612"
    },
    {
      "channel": 2,
      "note": 49,
      "start": 33.2328,
      "duration": 0.1186,
      "velocity": 106,
      "chip": "ym2612"
    },
    {
      "channel": 3,
      "note": 46,
      "start": 33.2346,
      "duration": 0.1182,
      "velocity": 106,
      "chip": "ym2612"
    },
    {
      "channel": 4,
      "note": 35,
      "start": 33.2353,
      "duration": 0.1178,
      "velocity": 111,
      "chip": "ym2612"
    },
    {
      "channel": 5,
      "note": 64,
      "start": 33.2372,
      "duration": 0.1425,
      "velocity": 123,
      "chip": "ym2612"
    },
    {
      "channel": 2,
      "note": 49,
      "start": 33.3755,
      "duration": 0.1185,
      "velocity": 106,
      "chip": "ym2612"
    },
    {
      "channel": 3,
      "note": 46,
      "start": 33.3773,
      "duration": 0.1182,
      "velocity": 106,
      "chip": "ym2612"
    },
    {
      "channel": 4,
      "note": 37,
      "start": 33.3779,
      "duration": 0.2606,
      "velocity": 111,
      "chip": "ym2612"
    },
    {
      "channel": 5,
      "note": 68,
      "start": 33.3799,
      "duration": 0.1425,
      "velocity": 127,
      "chip": "ym2612"
    },
    {
      "channel": 2,
      "note": 49,
      "start": 33.5183,
      "duration": 0.1183,
      "velocity": 106,
      "chip": "ym2612"
    },
    {
      "channel": 3,
      "note": 46,
      "start": 33.5204,
      "duration": 0.1179,
      "velocity": 106,
      "chip": "ym2612"
    },
    {
      "channel": 5,
      "note": 64,
      "start": 33.5226,
      "duration": 0.1434,
      "velocity": 127,
      "chip": "ym2612"
    },
    {
      "channel": 0,
      "note": 64,
      "start": 33.66,
      "duration": 0.5228,
      "velocity": 112,
      "chip": "ym2612"
    },
    {
      "channel": 2,
      "note": 49,
      "start": 33.6614,
      "duration": 0.1179,
      "velocity": 106,
      "chip": "ym2612"
    },
    {
      "channel": 3,
      "note": 46,
      "start": 33.6639,
      "duration": 0.1169,
      "velocity": 106,
      "chip": "ym2612"
    },
    {
      "channel": 5,
      "note": 59,
      "start": 33.6662,
      "duration": 0.2841,
      "velocity": 123,
      "chip": "ym2612"
    },
    {
      "channel": 2,
      "note": 49,
      "start": 33.8035,
      "duration": 0.1184,
      "velocity": 106,
      "chip": "ym2612"
    },
    {
      "channel": 3,
      "note": 46,
      "start": 33.8059,
      "duration": 0.1174,
      "velocity": 106,
      "chip": "ym2612"
    },
    {
      "channel": 1,
      "note": 64,
      "start": 33.8504,
      "duration": 0.5229,
      "velocity": 112,
      "chip": "ym2612"
    },
    {
      "channel": 2,
      "note": 49,
      "start": 33.9461,
      "duration": 0.1185,
      "velocity": 106,
      "chip": "ym2612"
    },
    {
      "channel": 3,
      "note": 46,
      "start": 33.9483,
      "duration": 0.1176,
      "velocity": 106,
      "chip": "ym2612"
    },
    {
      "channel": 5,
      "note": 68,
      "start": 33.9505,
      "duration": 0.142,
      "velocity": 123,
      "chip": "ym2612"
    },
    {
      "channel": 2,
      "note": 49,
      "start": 34.0888,
      "duration": 0.1183,
      "velocity": 106,
      "chip": "ym2612"
    },
    {
      "channel": 3,
      "note": 46,
      "start": 34.0905,
      "duration": 0.118,
      "velocity": 106,
      "chip": "ym2612"
    },
    {
      "channel": 5,
      "note": 57,
      "start": 34.0927,
      "duration": 0.1433,
      "velocity": 127,
      "chip": "ym2612"
    },
    {
      "channel": 0,
      "note": 66,
      "start": 34.2306,
      "duration": 1.6639,
      "velocity": 112,
      "chip": "ym2612"
    },
    {
      "channel": 5,
      "note": 64,
      "start": 34.2363,
      "duration": 0.1396,
      "velocity": 127,
      "chip": "ym2612"
    },
    {
      "channel": 5,
      "note": 64,
      "start": 34.3761,
      "duration": 0.1436,
      "velocity": 123,
      "chip": "ym2612"
    },
    {
      "channel": 1,
      "note": 66,
      "start": 34.4211,
      "duration": 1.664,
      "velocity": 112,
      "chip": "ym2612"
    },
    {
      "channel": 5,
      "note": 68,
      "start": 34.5199,
      "duration": 0.1426,
      "velocity": 127,
      "chip": "ym2612"
    },
    {
      "channel": 4,
      "note": 45,
      "start": 34.6608,
      "duration": 0.1186,
      "velocity": 111,
      "chip": "ym2612"
    },
    {
      "channel": 5,
      "note": 64,
      "start": 34.6627,
      "duration": 0.1427,
      "velocity": 127,
      "chip": "ym2612"
    },
    {
      "channel": 4,
      "note": 47,
      "start": 34.8037,
      "duration": 0.1187,
      "velocity": 111,
      "chip": "ym2612"
    },
    {
      "channel": 5,
      "note": 59,
      "start": 34.8057,
      "duration": 0.2852,
      "velocity": 123,
      "chip": "ym2612"
    },
    {
      "channel": 4,
      "note": 33,
      "start": 34.9463,
      "duration": 0.1186,
      "velocity": 111,
      "chip": "ym2612"
    },
    {
      "channel": 4,
      "note": 35,
      "start": 35.0892,
      "duration": 0.1184,
      "velocity": 111,
      "chip": "ym2612"
    },
    {
      "channel": 5,
      "note": 68,
      "start": 35.0911,
      "duration": 0.1422,
      "velocity": 127,
      "chip": "ym2612"
    },
    {
      "channel": 4,
      "note": 47,
      "start": 35.2317,
      "duration": 0.1187,
      "velocity": 111,
      "chip": "ym2612"
    },
    {
      "channel": 5,
      "note": 64,
      "start": 35.2336,
      "duration": 0.1435,
      "velocity": 123,
      "chip": "ym2612"
    },
    {
      "channel": 2,
      "note": 47,
      "start": 35.3727,
      "duration": 0.1184,
      "velocity": 106,
      "chip": "ym2612"
    },
    {
      "channel": 3,
      "note": 45,
      "start": 35.3747,
      "duration": 0.118,
      "velocity": 106,
      "chip": "ym2612"
    },
    {
      "channel": 4,
      "note": 36,
      "start": 35.3753,
      "duration": 0.1177,
      "velocity": 111,
      "chip": "ym2612"
    },
    {
      "channel": 5,
      "note": 57,
      "start": 35.3773,
      "duration": 0.1424,
      "velocity": 127,
      "chip": "ym2612"
    },
    {
      "channel": 2,
      "note": 47,
      "start": 35.5154,
      "duration": 0.1183,
      "velocity": 106,
      "chip": "ym2612"
    },
    {
      "channel": 3,
      "note": 45,
      "start": 35.5175,
      "duration": 0.1178,
      "velocity": 106,
      "chip": "ym2612"
    },
    {
      "channel": 4,
      "note": 33,
      "start": 35.518,
      "duration": 0.1175,
      "velocity": 111,
      "chip": "ym2612"
    },
    {
      "channel": 5,
      "note": 64,
      "start": 35.5199,
      "duration": 0.1427,
      "velocity": 123,
      "chip": "ym2612"
    },
    {
      "channel": 2,
      "note": 47,
      "start": 35.6582,
      "duration": 0.1182,
      "velocity": 106,
      "chip": "ym2612"
    },
    {
      "channel": 3,
      "note": 45,
      "start": 35.6603,
      "duration": 0.1176,
      "velocity": 106,
      "chip": "ym2612"
    },
    {
      "channel": 4,
      "note": 35,
      "start": 35.6609,
      "duration": 0.26,
      "velocity": 111,
      "chip": "ym2612"
    },
    {
      "channel": 5,
      "note": 68,
      "start": 35.6629,
      "duration": 0.1417,
      "velocity": 127,
      "chip": "ym2612"
    },
    {
      "channel": 2,
      "note": 47,
      "start": 35.8007,
      "duration": 0.1183,
      "velocity": 106,
      "chip": "ym2612"
    },
    {
      "channel": 3,
      "note": 45,
      "start": 35.8027,
      "duration": 0.1179,
      "velocity": 106,
      "chip": "ym2612"
    },
    {
      "channel": 5,
      "note": 64,
      "start": 35.8049,
      "duration": 0.144,
      "velocity": 127,
      "chip": "ym2612"
    },
    {
      "channel": 0,
      "note": 65,
      "start": 35.9424,
      "duration": 0.5229,
      "velocity": 112,
      "chip": "ym2612"
    },
    {
      "channel": 2,
      "note": 47,
      "start": 35.9441,
      "duration": 0.1177,
      "velocity": 106,
      "chip": "ym2612"
    },
    {
      "channel": 3,
      "note": 45,
      "start": 35.9468,
      "duration": 0.1165,
      "velocity": 106,
      "chip": "ym2612"
    },
    {
      "channel": 5,
      "note": 59,
      "start": 35.9491,
      "duration": 0.284,
      "velocity": 123,
      "chip": "ym2612"
    },
    {
      "channel": 2,
      "note": 47,
      "start": 36.086,
      "duration": 0.1183,
      "velocity": 106,
      "chip": "ym2612"
    },
    {
      "channel": 3,
      "note": 45,
      "start": 36.0883,
      "duration": 0.1174,
      "velocity": 106,
      "chip": "ym2612"
    },
    {
      "channel": 1,
      "note": 65,
      "start": 36.1329,
      "duration": 0.5228,
      "velocity": 112,
      "chip": "ym2612"
    },
    {
      "channel": 2,
      "note": 47,
      "start": 36.2286,
      "duration": 0.1184,
      "velocity": 106,
      "chip": "ym2612"
    },
    {
      "channel": 3,
      "note": 45,
      "start": 36.2307,
      "duration": 0.1176,
      "velocity": 106,
      "chip": "ym2612"
    },
    {
      "channel": 4,
      "note": 35,
      "start": 36.2313,
      "duration": 0.2601,
      "velocity": 111,
      "chip": "ym2612"
    },
    {
      "channel": 5,
      "note": 68,
      "start": 36.2333,
      "duration": 0.1418,
      "velocity": 127,
      "chip": "ym2612"
    },
    {
      "channel": 2,
      "note": 47,
      "start": 36.3712,
      "duration": 0.1185,
      "velocity": 106,
      "chip": "ym2612"
    },
    {
      "channel": 3,
      "note": 45,
      "start": 36.3731,
      "duration": 0.118,
      "velocity": 106,
      "chip": "ym2612"
    },
    {
      "channel": 5,
      "note": 59,
      "start": 36.3753,
      "duration": 0.1439,
      "velocity": 127,
      "chip": "ym2612"
    },
    {
      "channel": 0,
      "note": 61,
      "start": 36.5131,
      "duration": 4.5171,
      "velocity": 112,
      "chip": "ym2612"
    },
    {
      "channel": 4,
      "note": 37,
      "start": 36.5175,
      "duration": 0.1165,
      "velocity": 111,
      "chip": "ym2612"
    },
    {
      "channel": 5,
      "note": 64,
      "start": 36.5194,
      "duration": 0.1393,
      "velocity": 127,
      "chip": "ym2612"
    },
    {
      "channel": 4,
      "note": 49,
      "start": 36.6584,
      "duration": 0.1181,
      "velocity": 111,
      "chip": "ym2612"
    },
    {
      "channel": 5,
      "note": 64,
      "start": 36.6589,
      "duration": 0.1433,
      "velocity": 123,
      "chip": "ym2612"
    },
    {
      "channel": 1,
      "note": 61,
      "start": 36.7035,
      "duration": 4.5171,
      "velocity": 112,
      "chip": "ym2612"
    },
    {
      "channel": 5,
      "note": 68,
      "start": 36.8024,
      "duration": 0.1424,
      "velocity": 127,
      "chip": "ym2612"
    },
    {
      "channel": 4,
      "note": 49,
      "start": 36.9431,
      "duration": 0.1187,
      "velocity": 111,
      "chip": "ym2612"
    },
    {
      "channel": 5,
      "note": 64,
      "start": 36.945,
      "duration": 0.1425,
      "velocity": 127,
      "chip": "ym2612"
    },
    {
      "channel": 5,
      "note": 59,
      "start": 37.0878,
      "duration": 0.2854,
      "velocity": 123,
      "chip": "ym2612"
    },
    {
      "channel": 4,
      "note": 49,
      "start": 37.2287,
      "duration": 0.1186,
      "velocity": 111,
      "chip": "ym2612"
    },
    {
      "channel": 4,
      "note": 47,
      "start": 37.3715,
      "duration": 0.1186,
      "velocity": 111,
      "chip": "ym2612"
    },
    {
      "channel": 5,
      "note": 68,
      "start": 37.3735,
      "duration": 0.1422,
      "velocity": 127,
      "chip": "ym2612"
    },
    {
      "channel": 4,
      "note": 49,
      "start": 37.514,
      "duration": 0.1188,
      "velocity": 111,
      "chip": "ym2612"
    },
    {
      "channel": 5,
      "note": 64,
      "start": 37.5159,
      "duration": 0.1434,
      "velocity": 123,
      "chip": "ym2612"
    },
    {
      "channel": 2,
      "note": 49,
      "start": 37.6551,
      "duration": 0.1186,
      "velocity": 106,
      "chip": "ym2612"
    },
    {
      "channel": 3,
      "note": 47,
      "start": 37.657,
      "duration": 0.1181,
      "velocity": 106,
      "chip": "ym2612"
    },
    {
      "channel": 4,
      "note": 50,
      "start": 37.6575,
      "duration": 0.1178,
      "velocity": 111,
      "chip": "ym2612"
    },
    {
      "channel": 5,
      "note": 57,
      "start": 37.6595,
      "duration": 0.1421,
      "velocity": 127,
      "chip": "ym2612"
    },
    {
      "channel": 2,
      "note": 49,
      "start": 37.7977,
      "duration": 0.1186,
      "velocity": 106,
      "chip": "ym2612"
    },
    {
      "channel": 3,
      "note": 47,
      "start": 37.7996,
      "duration": 0.1183,
      "velocity": 106,
      "chip": "ym2612"
    },
    {
      "channel": 5,
      "note": 64,
      "start": 37.8018,
      "duration": 0.1432,
      "velocity": 123,
      "chip": "ym2612"
    },
    {
      "channel": 2,
      "note": 49,
      "start": 37.9405,
      "duration": 0.1185,
      "velocity": 106,
      "chip": "ym2612"
    },
    {
      "channel": 3,
      "note": 47,
      "start": 37.9427,
      "duration": 0.1177,
      "velocity": 106,
      "chip": "ym2612"
    },
    {
      "channel": 4,
      "note": 47,
      "start": 37.9433,
      "duration": 0.1174,
      "velocity": 111,
      "chip": "ym2612"
    },
    {
      "channel": 5,
      "note": 68,
      "start": 37.9453,
      "duration": 0.142,
      "velocity": 127,
      "chip": "ym2612"
    },
    {
      "channel": 2,
      "note": 49,
      "start": 38.0832,
      "duration": 0.1185,
      "velocity": 106,
      "chip": "ym2612"
    },
    {
      "channel": 3,
      "note": 47,
      "start": 38.0852,
      "duration": 0.1179,
      "velocity": 106,
      "chip": "ym2612"
    },
    {
      "channel": 5,
      "note": 64,
      "start": 38.0875,
      "duration": 0.143,
      "velocity": 127,
      "chip": "ym2612"
    },
    {
      "channel": 2,
      "note": 49,
      "start": 38.2259,
      "duration": 0.1183,
      "velocity": 106,
      "chip": "ym2612"
    },
    {
      "channel": 3,
      "note": 47,
      "start": 38.2281,
      "duration": 0.1176,
      "velocity": 106,
      "chip": "ym2612"
    },
    {
      "channel": 4,
      "note": 49,
      "start": 38.2287,
      "duration": 0.2599,
      "velocity": 111,
      "chip": "ym2612"
    },
    {
      "channel": 5,
      "note": 59,
      "start": 38.2307,
      "duration": 0.2849,
      "velocity": 123,
      "chip": "ym2612"
    },
    {
      "channel": 2,
      "note": 49,
      "start": 38.3685,
      "duration": 0.1183,
      "velocity": 106,
      "chip": "ym2612"
    },
    {
      "channel": 3,
      "note": 47,
      "start": 38.3706,
      "duration": 0.1178,
      "velocity": 106,
      "chip": "ym2612"
    },
    {
      "channel": 2,
      "note": 49,
      "start": 38.5113,
      "duration": 0.1182,
      "velocity": 106,
      "chip": "ym2612"
    },
    {
      "channel": 3,
      "note": 47,
      "start": 38.5134,
      "duration": 0.1175,
      "velocity": 106,
      "chip": "ym2612"
    },
    {
      "channel": 5,
      "note": 68,
      "start": 38.5159,
      "duration": 0.1422,
      "velocity": 123,
      "chip": "ym2612"
    },
    {
      "channel": 2,
      "note": 49,
      "start": 38.6539,
      "duration": 0.1184,
      "velocity": 106,
      "chip": "ym2612"
    },
    {
      "channel": 3,
      "note": 47,
      "start": 38.656,
      "duration": 0.1178,
      "velocity": 106,
      "chip": "ym2612"
    },
    {
      "channel": 5,
      "note": 57,
      "start": 38.6584,
      "duration": 0.1422,
      "velocity": 127,
      "chip": "ym2612"
    },
    {
      "channel": 4,
      "note": 37,
      "start": 38.799,
      "duration": 0.1175,
      "velocity": 111,
      "chip": "ym2612"
    },
    {
      "channel": 5,
      "note": 64,
      "start": 38.8009,
      "duration": 0.1415,
      "velocity": 127,
      "chip": "ym2612"
    },
    {
      "channel": 4,
      "note": 49,
      "start": 38.9406,
      "duration": 0.1186,
      "velocity": 111,
      "chip": "ym2612"
    },
    {
      "channel": 5,
      "note": 66,
      "start": 38.9426,
      "duration": 0.0217,
      "velocity": 127,
      "chip": "ym2612"
    },
    {
      "channel": 5,
      "note": 66,
      "start": 38.9645,
      "duration": 0.1203,
      "velocity": 123,
      "chip": "ym2612"
    },
    {
      "channel": 5,
      "note": 68,
      "start": 39.0851,
      "duration": 0.1426,
      "velocity": 127,
      "chip": "ym2612"
    },
    {
      "channel": 4,
      "note": 49,
      "start": 39.2259,
      "duration": 0.1185,
      "velocity": 111,
      "chip": "ym2612"
    },
    {
      "channel": 5,
      "note": 66,
      "start": 39.2279,
      "duration": 0.0217,
      "velocity": 127,
      "chip": "ym2612"
    },
    {
      "channel": 5,
      "note": 66,
      "start": 39.2498,
      "duration": 0.1203,
      "velocity": 127,
      "chip": "ym2612"
    },
    {
      "channel": 5,
      "note": 59,
      "start": 39.3704,
      "duration": 0.1426,
      "velocity": 127,
      "chip": "ym2612"
    },
    {
      "channel": 4,
      "note": 49,
      "start": 39.5112,
      "duration": 0.1186,
      "velocity": 111,
      "chip": "ym2612"
    },
    {
      "channel": 5,
      "note": 62,
      "start": 39.5131,
      "duration": 0.0457,
      "velocity": 127,
      "chip": "ym2612"
    },
    {
      "channel": 5,
      "note": 62,
      "start": 39.5591,
      "duration": 0.0473,
      "velocity": 127,
      "chip": "ym2612"
    },
    {
      "channel": 5,
      "note": 62,
      "start": 39.6066,
      "duration": 0.0476,
      "velocity": 127,
      "chip": "ym2612"
    },
    {
      "channel": 4,
      "note": 47,
      "start": 39.654,
      "duration": 0.1185,
      "velocity": 111,
      "chip": "ym2612"
    },
    {
      "channel": 5,
      "note": 62,
      "start": 39.6545,
      "duration": 0.1423,
      "velocity": 127,
      "chip": "ym2612"
    },
    {
      "channel": 4,
      "note": 49,
      "start": 39.7965,
      "duration": 0.1186,
      "velocity": 111,
      "chip": "ym2612"
    },
    {
      "channel": 5,
      "note": 62,
      "start": 39.7971,
      "duration": 0.1447,
      "velocity": 127,
      "chip": "ym2612"
    },
    {
      "channel": 2,
      "note": 49,
      "start": 39.9375,
      "duration": 0.1187,
      "velocity": 106,
      "chip": "ym2612"
    },
    {
      "channel": 3,
      "note": 47,
      "start": 39.9394,
      "duration": 0.1183,
      "velocity": 106,
      "chip": "ym2612"
    },
    {
      "channel": 4,
      "note": 51,
      "start": 39.94,
      "duration": 0.0468,
      "velocity": 111,
      "chip": "ym2612"
    },
    {
      "channel": 5,
      "note": 59,
      "start": 39.942,
      "duration": 0.142,
      "velocity": 127,
      "chip": "ym2612"
    },
    {
      "channel": 4,
      "note": 54,
      "start": 40.0104,
      "duration": 0.1901,
      "velocity": 111,
      "chip": "ym2612"
    },
    {
      "channel": 2,
      "note": 49,
      "start": 40.0802,
      "duration": 0.1186,
      "velocity": 106,
      "chip": "ym2612"
    },
    {
      "channel": 3,
      "note": 47,
      "start": 40.082,
      "duration": 0.1182,
      "velocity": 106,
      "chip": "ym2612"
    },
    {
      "channel": 5,
      "note": 59,
      "start": 40.0842,
      "duration": 0.0214,
      "velocity": 127,
      "chip": "ym2612"
    },
    {
      "channel": 5,
      "note": 59,
      "start": 40.1058,
      "duration": 0.1218,
      "velocity": 123,
      "chip": "ym2612"
    },
    {
      "channel": 2,
      "note": 49,
      "start": 40.2232,
      "duration": 0.1183,
      "velocity": 106,
      "chip": "ym2612"
    },
    {
      "channel": 3,
      "note": 47,
      "start": 40.2254,
      "duration": 0.1176,
      "velocity": 106,
      "chip": "ym2612"
    },
    {
      "channel": 4,
      "note": 53,
      "start": 40.2259,
      "duration": 0.1173,
      "velocity": 111,
      "chip": "ym2612"
    },
    {
      "channel": 5,
      "note": 68,
      "start": 40.2279,
      "duration": 0.142,
      "velocity": 127,
      "chip": "ym2612"
    },
    {
      "channel": 2,
      "note": 49,
      "start": 40.3657,
      "duration": 0.1183,
      "velocity": 106,
      "chip": "ym2612"
    },
    {
      "channel": 3,
      "note": 47,
      "start": 40.3678,
      "duration": 0.1177,
      "velocity": 106,
      "chip": "ym2612"
    },
    {
      "channel": 5,
      "note": 59,
      "start": 40.3701,
      "duration": 0.0208,
      "velocity": 127,
      "chip": "ym2612"
    },
    {
      "channel": 5,
      "note": 59,
      "start": 40.3911,
      "duration": 0.1207,
      "velocity": 127,
      "chip": "ym2612"
    },
    {
      "channel": 2,
      "note": 49,
      "start": 40.5083,
      "duration": 0.1183,
      "velocity": 106,
      "chip": "ym2612"
    },
    {
      "channel": 3,
      "note": 47,
      "start": 40.5104,
      "duration": 0.1177,
      "velocity": 106,
      "chip": "ym2612"
    },
    {
      "channel": 4,
      "note": 49,
      "start": 40.5111,
      "duration": 0.26,
      "velocity": 111,
      "chip": "ym2612"
    },
    {
      "channel": 5,
      "note": 62,
      "start": 40.512,
      "duration": 0.0216,
      "velocity": 127,
      "chip": "ym2612"
    },
    {
      "channel": 5,
      "note": 62,
      "start": 40.5337,
      "duration": 0.1199,
      "velocity": 127,
      "chip": "ym2612"
    },
    {
      "channel": 2,
      "note": 49,
      "start": 40.6509,
      "duration": 0.1184,
      "velocity": 106,
      "chip": "ym2612"
    },
    {
      "channel": 3,
      "note": 47,
      "start": 40.653,
      "duration": 0.1178,
      "velocity": 106,
      "chip": "ym2612"
    },
    {
      "channel": 5,
      "note": 62,
      "start": 40.6539,
      "duration": 0.0222,
      "velocity": 127,
      "chip": "ym2612"
    },
    {
      "channel": 5,
      "note": 62,
      "start": 40.6764,
      "duration": 0.1204,
      "velocity": 127,
      "chip": "ym2612"
    },
    {
      "channel": 2,
      "note": 49,
      "start": 40.7937,
      "duration": 0.1183,
      "velocity": 106,
      "chip": "ym2612"
    },
    {
      "channel": 3,
      "note": 47,
      "start": 40.7958,
      "duration": 0.1177,
      "velocity": 106,
      "chip": "ym2612"
    },
    {
      "channel": 5,
      "note": 57,
      "start": 40.797,
      "duration": 0.0219,
      "velocity": 127,
      "chip": "ym2612"
    },
    {
      "channel": 5,
      "note": 57,
      "start": 40.8191,
      "duration": 0.1202,
      "velocity": 127,
      "chip": "ym2612"
    },
    {
      "channel": 2,
      "note": 49,
      "start": 40.9362,
      "duration": 0.1184,
      "velocity": 106,
      "chip": "ym2612"
    },
    {
      "channel": 3,
      "note": 47,
      "start": 40.9383,
      "duration": 0.118,
      "velocity": 106,
      "chip": "ym2612"
    },
    {
      "channel": 5,
      "note": 57,
      "start": 40.9395,
      "duration": 0.0221,
      "velocity": 127,
      "chip": "ym2612"
    },
    {
      "channel": 5,
      "note": 57,
      "start": 40.9618,
      "duration": 0.1251,
      "velocity": 127,
      "chip": "ym2612"
    },
    {
      "channel": 0,
      "note": 44,
      "start": 41.0795,
      "duration": 1.6625,
      "velocity": 97,
      "chip": "ym2612"
    },
    {
      "channel": 4,
      "note": 42,
      "start": 41.0846,
      "duration": 0.5418,
      "velocity": 111,
      "chip": "ym2612"
    },
    {
      "channel": 5,
      "note": 64,
      "start": 41.0871,
      "duration": 0.1383,
      "velocity": 123,
      "chip": "ym2612"
    },
    {
      "channel": 5,
      "note": 57,
      "start": 41.2257,
      "duration": 0.1422,
      "velocity": 124,
      "chip": "ym2612"
    },
    {
      "channel": 1,
      "note": 44,
      "start": 41.27,
      "duration": 1.6623,
      "velocity": 97,
      "chip": "ym2612"
    },
    {
      "channel": 5,
      "note": 107,
      "start": 41.3682,
      "duration": 0.2851,
      "velocity": 127,
      "chip": "ym2612"
    },
    {
      "channel": 4,
      "note": 54,
      "start": 41.6514,
      "duration": 0.1177,
      "velocity": 111,
      "chip": "ym2612"
    },
    {
      "channel": 5,
      "note": 64,
      "start": 41.6536,
      "duration": 0.1421,
      "velocity": 123,
      "chip": "ym2612"
    },
    {
      "channel": 5,
      "note": 57,
      "start": 41.796,
      "duration": 0.1424,
      "velocity": 124,
      "chip": "ym2612"
    },
    {
      "channel": 5,
      "note": 107,
      "start": 41.9385,
      "duration": 0.2853,
      "velocity": 127,
      "chip": "ym2612"
    },
    {
      "channel": 5,
      "note": 64,
      "start": 42.2241,
      "duration": 0.1422,
      "velocity": 123,
      "chip": "ym2612"
    },
    {
      "channel": 5,
      "note": 57,
      "start": 42.3666,
      "duration": 0.1426,
      "velocity": 124,
      "chip": "ym2612"
    },
    {
      "channel": 5,
      "note": 107,
      "start": 42.5094,
      "duration": 0.2853,
      "velocity": 127,
      "chip": "ym2612"
    },
    {
      "channel": 0,
      "note": 40,
      "start": 42.7897,
      "duration": 0.5229,
      "velocity": 97,
      "chip": "ym2612"
    },
    {
      "channel": 5,
      "note": 64,
      "start": 42.7949,
      "duration": 0.1424,
      "velocity": 123,
      "chip": "ym2612"
    },
    {
      "channel": 4,
      "note": 36,
      "start": 42.9355,
      "duration": 0.4029,
      "velocity": 111,
      "chip": "ym2612"
    },
    {
      "channel": 5,
      "note": 57,
      "start": 42.9374,
      "duration": 0.142,
      "velocity": 124,
      "chip": "ym2612"
    },
    {
      "channel": 1,
      "note": 40,
      "start": 42.9801,
      "duration": 0.5229,
      "velocity": 97,
      "chip": "ym2612"
    },
    {
      "channel": 5,
      "note": 107,
      "start": 43.0797,
      "duration": 0.2862,
      "velocity": 127,
      "chip": "ym2612"
    },
    {
      "channel": 0,
      "note": 39,
      "start": 43.3604,
      "duration": 2.2345,
      "velocity": 97,
      "chip": "ym2612"
    },
    {
      "channel": 4,
      "note": 35,
      "start": 43.3639,
      "duration": 0.545,
      "velocity": 111,
      "chip": "ym2612"
    },
    {
      "channel": 5,
      "note": 64,
      "start": 43.3661,
      "duration": 0.1416,
      "velocity": 123,
      "chip": "ym2612"
    },
    {
      "channel": 5,
      "note": 57,
      "start": 43.5078,
      "duration": 0.1421,
      "velocity": 124,
      "chip": "ym2612"
    },
    {
      "channel": 1,
      "note": 39,
      "start": 43.5507,
      "duration": 2.2348,
      "velocity": 97,
      "chip": "ym2612"
    },
    {
      "channel": 5,
      "note": 107,
      "start": 43.6502,
      "duration": 0.2856,
      "velocity": 127,
      "chip": "ym2612"
    },
    {
      "channel": 4,
      "note": 47,
      "start": 43.9339,
      "duration": 0.1177,
      "velocity": 111,
      "chip": "ym2612"
    },
    {
      "channel": 5,
      "note": 64,
      "start": 43.936,
      "duration": 0.1422,
      "velocity": 123,
      "chip": "ym2612"
    },
    {
      "channel": 5,
      "note": 57,
      "start": 44.0784,
      "duration": 0.1424,
      "velocity": 124,
      "chip": "ym2612"
    },
    {
      "channel": 5,
      "note": 107,
      "start": 44.221,
      "duration": 0.2853,
      "velocity": 127,
      "chip": "ym2612"
    },
    {
      "channel": 5,
      "note": 64,
      "start": 44.5066,
      "duration": 0.1422,
      "velocity": 123,
      "chip": "ym2612"
    },
    {
      "channel": 5,
      "note": 57,
      "start": 44.649,
      "duration": 0.1425,
      "velocity": 124,
      "chip": "ym2612"
    },
    {
      "channel": 5,
      "note": 107,
      "start": 44.7918,
      "duration": 0.2851,
      "velocity": 127,
      "chip": "ym2612"
    },
    {
      "channel": 5,
      "note": 64,
      "start": 45.0771,
      "duration": 0.1424,
      "velocity": 123,
      "chip": "ym2612"
    },
    {
      "channel": 5,
      "note": 57,
      "start": 45.2197,
      "duration": 0.1424,
      "velocity": 124,
      "chip": "ym2612"
    },
    {
      "channel": 5,
      "note": 107,
      "start": 45.3624,
      "duration": 0.286,
      "velocity": 127,
      "chip": "ym2612"
    },
    {
      "channel": 0,
      "note": 42,
      "start": 45.6427,
      "duration": 1.6641,
      "velocity": 97,
      "chip": "ym2612"
    },
    {
      "channel": 4,
      "note": 40,
      "start": 45.6465,
      "duration": 0.5449,
      "velocity": 111,
      "chip": "ym2612"
    },
    {
      "channel": 5,
      "note": 64,
      "start": 45.6486,
      "duration": 0.1417,
      "velocity": 123,
      "chip": "ym2612"
    },
    {
      "channel": 5,
      "note": 57,
      "start": 45.7905,
      "duration": 0.1419,
      "velocity": 124,
      "chip": "ym2612"
    },
    {
      "channel": 1,
      "note": 42,
      "start": 45.8332,
      "duration": 1.664,
      "velocity": 97,
      "chip": "ym2612"
    },
    {
      "channel": 5,
      "note": 107,
      "start": 45.9327,
      "duration": 0.2856,
      "velocity": 127,
      "chip": "ym2612"
    },
    {
      "channel": 4,
      "note": 52,
      "start": 46.2163,
      "duration": 0.1177,
      "velocity": 111,
      "chip": "ym2612"
    },
    {
      "channel": 5,
      "note": 64,
      "start": 46.2185,
      "duration": 0.1423,
      "velocity": 123,
      "chip": "ym2612"
    },
    {
      "channel": 5,
      "note": 57,
      "start": 46.361,
      "duration": 0.1422,
      "velocity": 124,
      "chip": "ym2612"
    },
    {
      "channel": 5,
      "note": 107,
      "start": 46.5035,
      "duration": 0.2852,
      "velocity": 127,
      "chip": "ym2612"
    },
    {
      "channel": 5,
      "note": 64,
      "start": 46.789,
      "duration": 0.1422,
      "velocity": 123,
      "chip": "ym2612"
    },
    {
      "channel": 5,
      "note": 57,
      "start": 46.9314,
      "duration": 0.1426,
      "velocity": 124,
      "chip": "ym2612"
    },
    {
      "channel": 5,
      "note": 107,
      "start": 47.0743,
      "duration": 0.2854,
      "velocity": 127,
      "chip": "ym2612"
    },
    {
      "channel": 0,
      "note": 38,
      "start": 47.3546,
      "duration": 0.5228,
      "velocity": 97,
      "chip": "ym2612"
    },
    {
      "channel": 5,
      "note": 64,
      "start": 47.3598,
      "duration": 0.1422,
      "velocity": 123,
      "chip": "ym2612"
    },
    {
      "channel": 4,
      "note": 34,
      "start": 47.5003,
      "duration": 0.4029,
      "velocity": 111,
      "chip": "ym2612"
    },
    {
      "channel": 5,
      "note": 57,
      "start": 47.5022,
      "duration": 0.1421,
      "velocity": 124,
      "chip": "ym2612"
    },
    {
      "channel": 1,
      "note": 38,
      "start": 47.5451,
      "duration": 0.5228,
      "velocity": 97,
      "chip": "ym2612"
    },
    {
      "channel": 5,
      "note": 107,
      "start": 47.6446,
      "duration": 0.2861,
      "velocity": 127,
      "chip": "ym2612"
    },
    {
      "channel": 0,
      "note": 37,
      "start": 47.9253,
      "duration": 2.2347,
      "velocity": 97,
      "chip": "ym2612"
    },
    {
      "channel": 4,
      "note": 33,
      "start": 47.9288,
      "duration": 0.545,
      "velocity": 111,
      "chip": "ym2612"
    },
    {
      "channel": 5,
      "note": 64,
      "start": 47.931,
      "duration": 0.1415,
      "velocity": 123,
      "chip": "ym2612"
    },
    {
      "channel": 5,
      "note": 57,
      "start": 48.0727,
      "duration": 0.1424,
      "velocity": 124,
      "chip": "ym2612"
    },
    {
      "channel": 1,
      "note": 37,
      "start": 48.1157,
      "duration": 2.2347,
      "velocity": 97,
      "chip": "ym2612"
    },
    {
      "channel": 5,
      "note": 107,
      "start": 48.2153,
      "duration": 0.2856,
      "velocity": 127,
      "chip": "ym2612"
    },
    {
      "channel": 4,
      "note": 45,
      "start": 48.499,
      "duration": 0.1175,
      "velocity": 111,
      "chip": "ym2612"
    },
    {
      "channel": 5,
      "note": 64,
      "start": 48.5011,
      "duration": 0.1421,
      "velocity": 123,
      "chip": "ym2612"
    },
    {
      "channel": 5,
      "note": 57,
      "start": 48.6435,
      "duration": 0.1424,
      "velocity": 124,
      "chip": "ym2612"
    },
    {
      "channel": 5,
      "note": 107,
      "start": 48.786,
      "duration": 0.2855,
      "velocity": 127,
      "chip": "ym2612"
    },
    {
      "channel": 5,
      "note": 64,
      "start": 49.0718,
      "duration": 0.142,
      "velocity": 123,
      "chip": "ym2612"
    },
    {
      "channel": 5,
      "note": 57,
      "start": 49.214,
      "duration": 0.1429,
      "velocity": 127,
      "chip": "ym2612"
    },
    {
      "channel": 4,
      "note": 45,
      "start": 49.3551,
      "duration": 0.2602,
      "velocity": 111,
      "chip": "ym2612"
    },
    {
      "channel": 5,
      "note": 59,
      "start": 49.3571,
      "duration": 0.1406,
      "velocity": 127,
      "chip": "ym2612"
    },
    {
      "channel": 5,
      "note": 59,
      "start": 49.4979,
      "duration": 0.1443,
      "velocity": 123,
      "chip": "ym2612"
    },
    {
      "channel": 4,
      "note": 45,
      "start": 49.6404,
      "duration": 0.1175,
      "velocity": 111,
      "chip": "ym2612"
    },
    {
      "channel": 5,
      "note": 68,
      "start": 49.6424,
      "duration": 0.1424,
      "velocity": 127,
      "chip": "ym2612"
    },
    {
      "channel": 4,
      "note": 44,
      "start": 49.7831,
      "duration": 0.403,
      "velocity": 111,
      "chip": "ym2612"
    },
    {
      "channel": 5,
      "note": 59,
      "start": 49.7851,
      "duration": 0.2832,
      "velocity": 127,
      "chip": "ym2612"
    },
    {
      "channel": 5,
      "note": 59,
      "start": 50.0684,
      "duration": 0.147,
      "velocity": 127,
      "chip": "ym2612"
    },
    {
      "channel": 0,
      "note": 49,
      "start": 50.2078,
      "duration": 1.0934,
      "velocity": 97,
      "chip": "ym2612"
    },
    {
      "channel": 2,
      "note": 40,
      "start": 50.2104,
      "duration": 1.0677,
      "velocity": 97,
      "chip": "ym2612"
    },
    {
      "channel": 4,
      "note": 42,
      "start": 50.2134,
      "duration": 0.5429,
      "velocity": 111,
      "chip": "ym2612"
    },
    {
      "channel": 5,
      "note": 64,
      "start": 50.2157,
      "duration": 0.1415,
      "velocity": 123,
      "chip": "ym2612"
    },
    {
      "channel": 3,
      "note": 40,
      "start": 50.3551,
      "duration": 1.0666,
      "velocity": 97,
      "chip": "ym2612"
    },
    {
      "channel": 5,
      "note": 57,
      "start": 50.3573,
      "duration": 0.1401,
      "velocity": 124,
      "chip": "ym2612"
    },
    {
      "channel": 1,
      "note": 49,
      "start": 50.3981,
      "duration": 1.0934,
      "velocity": 97,
      "chip": "ym2612"
    },
    {
      "channel": 5,
      "note": 107,
      "start": 50.4977,
      "duration": 0.2855,
      "velocity": 127,
      "chip": "ym2612"
    },
    {
      "channel": 4,
      "note": 54,
      "start": 50.7813,
      "duration": 0.1176,
      "velocity": 111,
      "chip": "ym2612"
    },
    {
      "channel": 5,
      "note": 64,
      "start": 50.7834,
      "duration": 0.1424,
      "velocity": 123,
      "chip": "ym2612"
    },
    {
      "channel": 5,
      "note": 57,
      "start": 50.9259,
      "duration": 0.1426,
      "velocity": 124,
      "chip": "ym2612"
    },
    {
      "channel": 5,
      "note": 107,
      "start": 51.0687,
      "duration": 0.2857,
      "velocity": 127,
      "chip": "ym2612"
    },
    {
      "channel": 0,
      "note": 52,
      "start": 51.3488,
      "duration": 1.0935,
      "velocity": 97,
      "chip": "ym2612"
    },
    {
      "channel": 2,
      "note": 49,
      "start": 51.3499,
      "duration": 1.0694,
      "velocity": 97,
      "chip": "ym2612"
    },
    {
      "channel": 5,
      "note": 64,
      "start": 51.3546,
      "duration": 0.1418,
      "velocity": 123,
      "chip": "ym2612"
    },
    {
      "channel": 3,
      "note": 49,
      "start": 51.4944,
      "duration": 1.0685,
      "velocity": 97,
      "chip": "ym2612"
    },
    {
      "channel": 5,
      "note": 57,
      "start": 51.4967,
      "duration": 0.142,
      "velocity": 124,
      "chip": "ym2612"
    },
    {
      "channel": 1,
      "note": 52,
      "start": 51.5394,
      "duration": 1.0932,
      "velocity": 97,
      "chip": "ym2612"
    },
    {
      "channel": 5,
      "note": 107,
      "start": 51.6389,
      "duration": 0.2851,
      "velocity": 127,
      "chip": "ym2612"
    },
    {
      "channel": 5,
      "note": 64,
      "start": 51.9242,
      "duration": 0.143,
      "velocity": 123,
      "chip": "ym2612"
    },
    {
      "channel": 4,
      "note": 36,
      "start": 52.0654,
      "duration": 0.4034,
      "velocity": 111,
      "chip": "ym2612"
    },
    {
      "channel": 5,
      "note": 57,
      "start": 52.0674,
      "duration": 0.1422,
      "velocity": 124,
      "chip": "ym2612"
    },
    {
      "channel": 5,
      "note": 107,
      "start": 52.2099,
      "duration": 0.2862,
      "velocity": 127,
      "chip": "ym2612"
    },
    {
      "channel": 0,
      "note": 54,
      "start": 52.4901,
      "duration": 1.0935,
      "velocity": 97,
      "chip": "ym2612"
    },
    {
      "channel": 2,
      "note": 51,
      "start": 52.4911,
      "duration": 1.0695,
      "velocity": 97,
      "chip": "ym2612"
    },
    {
      "channel": 4,
      "note": 35,
      "start": 52.4942,
      "duration": 0.5447,
      "velocity": 111,
      "chip": "ym2612"
    },
    {
      "channel": 5,
      "note": 64,
      "start": 52.4963,
      "duration": 0.1413,
      "velocity": 123,
      "chip": "ym2612"
    },
    {
      "channel": 3,
      "note": 51,
      "start": 52.6356,
      "duration": 1.0685,
      "velocity": 97,
      "chip": "ym2612"
    },
    {
      "channel": 5,
      "note": 57,
      "start": 52.6379,
      "duration": 0.1419,
      "velocity": 124,
      "chip": "ym2612"
    },
    {
      "channel": 1,
      "note": 54,
      "start": 52.6806,
      "duration": 1.0933,
      "velocity": 97,
      "chip": "ym2612"
    },
    {
      "channel": 5,
      "note": 107,
      "start": 52.78,
      "duration": 0.2857,
      "velocity": 127,
      "chip": "ym2612"
    },
    {
      "channel": 4,
      "note": 47,
      "start": 53.0638,
      "duration": 0.1175,
      "velocity": 111,
      "chip": "ym2612"
    },
    {
      "channel": 5,
      "note": 64,
      "start": 53.0659,
      "duration": 0.1423,
      "velocity": 123,
      "chip": "ym2612"
    },
    {
      "channel": 5,
      "note": 57,
      "start": 53.2084,
      "duration": 0.1424,
      "velocity": 124,
      "chip": "ym2612"
    },
    {
      "channel": 5,
      "note": 107,
      "start": 53.351,
      "duration": 0.2858,
      "velocity": 127,
      "chip": "ym2612"
    },
    {
      "channel": 0,
      "note": 51,
      "start": 53.6313,
      "duration": 0.5228,
      "velocity": 97,
      "chip": "ym2612"
    },
    {
      "channel": 2,
      "note": 42,
      "start": 53.6323,
      "duration": 0.4985,
      "velocity": 97,
      "chip": "ym2612"
    },
    {
      "channel": 5,
      "note": 64,
      "start": 53.6371,
      "duration": 0.1419,
      "velocity": 123,
      "chip": "ym2612"
    },
    {
      "channel": 3,
      "note": 42,
      "start": 53.7769,
      "duration": 0.4976,
      "velocity": 97,
      "chip": "ym2612"
    },
    {
      "channel": 5,
      "note": 57,
      "start": 53.7791,
      "duration": 0.1422,
      "velocity": 124,
      "chip": "ym2612"
    },
    {
      "channel": 1,
      "note": 51,
      "start": 53.8218,
      "duration": 0.5228,
      "velocity": 97,
      "chip": "ym2612"
    },
    {
      "channel": 4,
      "note": 41,
      "start": 53.9195,
      "duration": 0.2605,
      "velocity": 111,
      "chip": "ym2612"
    },
    {
      "channel": 5,
      "note": 107,
      "start": 53.9215,
      "duration": 0.2862,
      "velocity": 127,
      "chip": "ym2612"
    },
    {
      "channel": 0,
      "note": 47,
      "start": 54.202,
      "duration": 0.5227,
      "velocity": 97,
      "chip": "ym2612"
    },
    {
      "channel": 2,
      "note": 39,
      "start": 54.2029,
      "duration": 0.4985,
      "velocity": 97,
      "chip": "ym2612"
    },
    {
      "channel": 4,
      "note": 45,
      "start": 54.2058,
      "duration": 0.2594,
      "velocity": 111,
      "chip": "ym2612"
    },
    {
      "channel": 5,
      "note": 64,
      "start": 54.2079,
      "duration": 0.1416,
      "velocity": 123,
      "chip": "ym2612"
    },
    {
      "channel": 3,
      "note": 39,
      "start": 54.3472,
      "duration": 0.4978,
      "velocity": 97,
      "chip": "ym2612"
    },
    {
      "channel": 5,
      "note": 57,
      "start": 54.3498,
      "duration": 0.1423,
      "velocity": 124,
      "chip": "ym2612"
    },
    {
      "channel": 1,
      "note": 47,
      "start": 54.3924,
      "duration": 0.5228,
      "velocity": 97,
      "chip": "ym2612"
    },
    {
      "channel": 4,
      "note": 45,
      "start": 54.4902,
      "duration": 0.2602,
      "velocity": 111,
      "chip": "ym2612"
    },
    {
      "channel": 5,
      "note": 107,
      "start": 54.4923,
      "duration": 0.2859,
      "velocity": 127,
      "chip": "ym2612"
    },
    {
      "channel": 0,
      "note": 50,
      "start": 54.7725,
      "duration": 1.0934,
      "velocity": 97,
      "chip": "ym2612"
    },
    {
      "channel": 2,
      "note": 42,
      "start": 54.7734,
      "duration": 1.0696,
      "velocity": 97,
      "chip": "ym2612"
    },
    {
      "channel": 4,
      "note": 40,
      "start": 54.7763,
      "duration": 0.5449,
      "velocity": 111,
      "chip": "ym2612"
    },
    {
      "channel": 5,
      "note": 64,
      "start": 54.7785,
      "duration": 0.1416,
      "velocity": 123,
      "chip": "ym2612"
    },
    {
      "channel": 3,
      "note": 42,
      "start": 54.918,
      "duration": 1.0685,
      "velocity": 97,
      "chip": "ym2612"
    },
    {
      "channel": 5,
      "note": 57,
      "start": 54.9202,
      "duration": 0.1419,
      "velocity": 124,
      "chip": "ym2612"
    },
    {
      "channel": 1,
      "note": 50,
      "start": 54.963,
      "duration": 1.0934,
      "velocity": 97,
      "chip": "ym2612"
    },
    {
      "channel": 5,
      "note": 107,
      "start": 55.0624,
      "duration": 0.2857,
      "velocity": 127,
      "chip": "ym2612"
    },
    {
      "channel": 4,
      "note": 52,
      "start": 55.3461,
      "duration": 0.1177,
      "velocity": 111,
      "chip": "ym2612"
    },
    {
      "channel": 5,
      "note": 64,
      "start": 55.3483,
      "duration": 0.1424,
      "velocity": 123,
      "chip": "ym2612"
    },
    {
      "channel": 5,
      "note": 57,
      "start": 55.4908,
      "duration": 0.1424,
      "velocity": 124,
      "chip": "ym2612"
    },
    {
      "channel": 5,
      "note": 107,
      "start": 55.6334,
      "duration": 0.2858,
      "velocity": 127,
      "chip": "ym2612"
    },
    {
      "channel": 0,
      "note": 52,
      "start": 55.9137,
      "duration": 1.0935,
      "velocity": 97,
      "chip": "ym2612"
    },
    {
      "channel": 2,
      "note": 44,
      "start": 55.9147,
      "duration": 1.0695,
      "velocity": 97,
      "chip": "ym2612"
    },
    {
      "channel": 5,
      "note": 64,
      "start": 55.9195,
      "duration": 0.1418,
      "velocity": 123,
      "chip": "ym2612"
    },
    {
      "channel": 3,
      "note": 44,
      "start": 56.0593,
      "duration": 1.0685,
      "velocity": 97,
      "chip": "ym2612"
    },
    {
      "channel": 5,
      "note": 57,
      "start": 56.0615,
      "duration": 0.142,
      "velocity": 124,
      "chip": "ym2612"
    },
    {
      "channel": 1,
      "note": 52,
      "start": 56.1044,
      "duration": 1.0933,
      "velocity": 97,
      "chip": "ym2612"
    },
    {
      "channel": 5,
      "note": 107,
      "start": 56.2037,
      "duration": 0.2856,
      "velocity": 127,
      "chip": "ym2612"
    },
    {
      "channel": 4,
      "note": 35,
      "start": 56.4874,
      "duration": 0.1176,
      "velocity": 111,
      "chip": "ym2612"
    },
    {
      "channel": 5,
      "note": 64,
      "start": 56.4895,
      "duration": 0.1423,
      "velocity": 123,
      "chip": "ym2612"
    },
    {
      "channel": 4,
      "note": 34,
      "start": 56.6301,
      "duration": 0.4036,
      "velocity": 111,
      "chip": "ym2612"
    },
    {
      "channel": 5,
      "note": 57,
      "start": 56.6321,
      "duration": 0.1425,
      "velocity": 124,
      "chip": "ym2612"
    },
    {
      "channel": 5,
      "note": 107,
      "start": 56.7748,
      "duration": 0.2864,
      "velocity": 127,
      "chip": "ym2612"
    },
    {
      "channel": 0,
      "note": 49,
      "start": 57.0549,
      "duration": 2.2347,
      "velocity": 97,
      "chip": "ym2612"
    },
    {
      "channel": 2,
      "note": 40,
      "start": 57.056,
      "duration": 2.2106,
      "velocity": 97,
      "chip": "ym2612"
    },
    {
      "channel": 4,
      "note": 33,
      "start": 57.0591,
      "duration": 0.5445,
      "velocity": 111,
      "chip": "ym2612"
    },
    {
      "channel": 5,
      "note": 64,
      "start": 57.0614,
      "duration": 0.1414,
      "velocity": 123,
      "chip": "ym2612"
    },
    {
      "channel": 3,
      "note": 40,
      "start": 57.2007,
      "duration": 2.0671,
      "velocity": 97,
      "chip": "ym2612"
    },
    {
      "channel": 5,
      "note": 57,
      "start": 57.2029,
      "duration": 0.1402,
      "velocity": 123,
      "chip": "ym2612"
    },
    {
      "channel": 1,
      "note": 49,
      "start": 57.2453,
      "duration": 2.2348,
      "velocity": 97,
      "chip": "ym2612"
    },
    {
      "channel": 5,
      "note": 57,
      "start": 57.3434,
      "duration": 0.1426,
      "velocity": 123,
      "chip": "ym2612"
    },
    {
      "channel": 5,
      "note": 57,
      "start": 57.4862,
      "duration": 0.1442,
      "velocity": 127,
      "chip": "ym2612"
    },
    {
      "channel": 4,
      "note": 45,
      "start": 57.6286,
      "duration": 0.1176,
      "velocity": 111,
      "chip": "ym2612"
    },
    {
      "channel": 5,
      "note": 59,
      "start": 57.6306,
      "duration": 0.2851,
      "velocity": 123,
      "chip": "ym2612"
    },
    {
      "channel": 5,
      "note": 57,
      "start": 57.9159,
      "duration": 0.1415,
      "velocity": 123,
      "chip": "ym2612"
    },
    {
      "channel": 5,
      "note": 57,
      "start": 58.0576,
      "duration": 0.1437,
      "velocity": 127,
      "chip": "ym2612"
    },
    {
      "channel": 5,
      "note": 64,
      "start": 58.2015,
      "duration": 0.1424,
      "velocity": 123,
      "chip": "ym2612"
    },
    {
      "channel": 5,
      "note": 57,
      "start": 58.3442,
      "duration": 0.1427,
      "velocity": 127,
      "chip": "ym2612"
    },
    {
      "channel": 4,
      "note": 33,
      "start": 58.4851,
      "duration": 0.2605,
      "velocity": 111,
      "chip": "ym2612"
    },
    {
      "channel": 5,
      "note": 59,
      "start": 58.4871,
      "duration": 0.142,
      "velocity": 123,
      "chip": "ym2612"
    },
    {
      "channel": 5,
      "note": 57,
      "start": 58.6294,
      "duration": 0.1428,
      "velocity": 127,
      "chip": "ym2612"
    },
    {
      "channel": 4,
      "note": 33,
      "start": 58.7703,
      "duration": 0.1178,
      "velocity": 111,
      "chip": "ym2612"
    },
    {
      "channel": 5,
      "note": 59,
      "start": 58.7724,
      "duration": 0.1411,
      "velocity": 127,
      "chip": "ym2612"
    },
    {
      "channel": 4,
      "note": 33,
      "start": 58.9131,
      "duration": 0.4029,
      "velocity": 111,
      "chip": "ym2612"
    },
    {
      "channel": 5,
      "note": 59,
      "start": 58.9137,
      "duration": 0.1436,
      "velocity": 123,
      "chip": "ym2612"
    },
    {
      "channel": 5,
      "note": 57,
      "start": 59.0575,
      "duration": 0.1423,
      "velocity": 127,
      "chip": "ym2612"
    },
    {
      "channel": 5,
      "note": 59,
      "start": 59.2,
      "duration": 0.1491,
      "velocity": 127,
      "chip": "ym2612"
    },
    {
      "channel": 0,
      "note": 56,
      "start": 59.3389,
      "duration": 1.6627,
      "velocity": 101,
      "chip": "ym2612"
    },
    {
      "channel": 2,
      "note": 85,
      "start": 59.342,
      "duration": 0.1387,
      "velocity": 109,
      "chip": "ym2612"
    },
    {
      "channel": 3,
      "note": 85,
      "start": 59.3469,
      "duration": 0.1364,
      "velocity": 109,
      "chip": "ym2612"
    },
    {
      "channel": 4,
      "note": 37,
      "start": 59.3475,
      "duration": 0.2531,
      "velocity": 111,
      "chip": "ym2612"
    },
    {
      "channel": 5,
      "note": 64,
      "start": 59.3494,
      "duration": 0.1361,
      "velocity": 123,
      "chip": "ym2612"
    },
    {
      "channel": 2,
      "note": 78,
      "start": 59.4808,
      "duration": 0.1421,
      "velocity": 109,
      "chip": "ym2612"
    },
    {
      "channel": 3,
      "note": 78,
      "start": 59.4835,
      "duration": 0.142,
      "velocity": 109,
      "chip": "ym2612"
    },
    {
      "channel": 5,
      "note": 57,
      "start": 59.4856,
      "duration": 0.1423,
      "velocity": 127,
      "chip": "ym2612"
    },
    {
      "channel": 1,
      "note": 56,
      "start": 59.5292,
      "duration": 1.6627,
      "velocity": 101,
      "chip": "ym2612"
    },
    {
      "channel": 2,
      "note": 80,
      "start": 59.6231,
      "duration": 0.1424,
      "velocity": 109,
      "chip": "ym2612"
    },
    {
      "channel": 3,
      "note": 80,
      "start": 59.6257,
      "duration": 0.1419,
      "velocity": 109,
      "chip": "ym2612"
    },
    {
      "channel": 4,
      "note": 37,
      "start": 59.6262,
      "duration": 0.1171,
      "velocity": 111,
      "chip": "ym2612"
    },
    {
      "channel": 5,
      "note": 64,
      "start": 59.6281,
      "duration": 0.1405,
      "velocity": 127,
      "chip": "ym2612"
    },
    {
      "channel": 2,
      "note": 76,
      "start": 59.7658,
      "duration": 0.1424,
      "velocity": 109,
      "chip": "ym2612"
    },
    {
      "channel": 3,
      "note": 76,
      "start": 59.7678,
      "duration": 0.1427,
      "velocity": 109,
      "chip": "ym2612"
    },
    {
      "channel": 4,
      "note": 37,
      "start": 59.7683,
      "duration": 0.2602,
      "velocity": 111,
      "chip": "ym2612"
    },
    {
      "channel": 5,
      "note": 64,
      "start": 59.7689,
      "duration": 0.1437,
      "velocity": 127,
      "chip": "ym2612"
    },
    {
      "channel": 2,
      "note": 78,
      "start": 59.9084,
      "duration": 0.1427,
      "velocity": 109,
      "chip": "ym2612"
    },
    {
      "channel": 3,
      "note": 78,
      "start": 59.9107,
      "duration": 0.1424,
      "velocity": 109,
      "chip": "ym2612"
    },
    {
      "channel": 5,
      "note": 64,
      "start": 59.9129,
      "duration": 0.1426,
      "velocity": 123,
      "chip": "ym2612"
    },
    {
      "channel": 2,
      "note": 80,
      "start": 60.0514,
      "duration": 0.1424,
      "velocity": 109,
      "chip": "ym2612"
    },
    {
      "channel": 3,
      "note": 80,
      "start": 60.0533,
      "duration": 0.1428,
      "velocity": 109,
      "chip": "ym2612"
    },
    {
      "channel": 5,
      "note": 57,
      "start": 60.0556,
      "duration": 0.1426,
      "velocity": 123,
      "chip": "ym2612"
    },
    {
      "channel": 2,
      "note": 73,
      "start": 60.194,
      "duration": 0.1429,
      "velocity": 109,
      "chip": "ym2612"
    },
    {
      "channel": 3,
      "note": 73,
      "start": 60.1963,
      "duration": 0.1429,
      "velocity": 109,
      "chip": "ym2612"
    },
    {
      "channel": 5,
      "note": 68,
      "start": 60.1984,
      "duration": 0.2858,
      "velocity": 127,
      "chip": "ym2612"
    },
    {
      "channel": 2,
      "note": 73,
      "start": 60.3371,
      "duration": 0.1424,
      "velocity": 109,
      "chip": "ym2612"
    },
    {
      "channel": 3,
      "note": 73,
      "start": 60.3395,
      "duration": 0.1426,
      "velocity": 109,
      "chip": "ym2612"
    },
    {
      "channel": 2,
      "note": 73,
      "start": 60.4798,
      "duration": 0.1423,
      "velocity": 109,
      "chip": "ym2612"
    },
    {
      "channel": 3,
      "note": 73,
      "start": 60.4823,
      "duration": 0.1422,
      "velocity": 109,
      "chip": "ym2612"
    },
    {
      "channel": 5,
      "note": 64,
      "start": 60.4845,
      "duration": 0.1422,
      "velocity": 123,
      "chip": "ym2612"
    },
    {
      "channel": 2,
      "note": 73,
      "start": 60.6224,
      "duration": 0.1424,
      "velocity": 109,
      "chip": "ym2612"
    },
    {
      "channel": 3,
      "note": 73,
      "start": 60.6247,
      "duration": 0.1426,
      "velocity": 109,
      "chip": "ym2612"
    },
    {
      "channel": 5,
      "note": 57,
      "start": 60.6269,
      "duration": 0.1426,
      "velocity": 123,
      "chip": "ym2612"
    },
    {
      "channel": 2,
      "note": 73,
      "start": 60.7649,
      "duration": 0.1426,
      "velocity": 109,
      "chip": "ym2612"
    },
    {
      "channel": 3,
      "note": 73,
      "start": 60.7675,
      "duration": 0.1421,
      "velocity": 109,
      "chip": "ym2612"
    },
    {
      "channel": 5,
      "note": 68,
      "start": 60.7696,
      "duration": 0.2841,
      "velocity": 127,
      "chip": "ym2612"
    },
    {
      "channel": 0,
      "note": 49,
      "start": 61.0493,
      "duration": 0.5228,
      "velocity": 101,
      "chip": "ym2612"
    },
    {
      "channel": 5,
      "note": 64,
      "start": 61.0539,
      "duration": 0.1419,
      "velocity": 123,
      "chip": "ym2612"
    },
    {
      "channel": 5,
      "note": 57,
      "start": 61.196,
      "duration": 0.1426,
      "velocity": 123,
      "chip": "ym2612"
    },
    {
      "channel": 1,
      "note": 49,
      "start": 61.2397,
      "duration": 0.5228,
      "velocity": 101,
      "chip": "ym2612"
    },
    {
      "channel": 5,
      "note": 68,
      "start": 61.3388,
      "duration": 0.2868,
      "velocity": 123,
      "chip": "ym2612"
    },
    {
      "channel": 0,
      "note": 55,
      "start": 61.6199,
      "duration": 1.6641,
      "velocity": 101,
      "chip": "ym2612"
    },
    {
      "channel": 5,
      "note": 57,
      "start": 61.6258,
      "duration": 0.1391,
      "velocity": 123,
      "chip": "ym2612"
    },
    {
      "channel": 5,
      "note": 57,
      "start": 61.765,
      "duration": 0.1444,
      "velocity": 127,
      "chip": "ym2612"
    },
    {
      "channel": 1,
      "note": 55,
      "start": 61.8103,
      "duration": 1.6641,
      "velocity": 101,
      "chip": "ym2612"
    },
    {
      "channel": 4,
      "note": 35,
      "start": 61.9077,
      "duration": 0.2607,
      "velocity": 111,
      "chip": "ym2612"
    },
    {
      "channel": 5,
      "note": 64,
      "start": 61.9096,
      "duration": 0.1419,
      "velocity": 123,
      "chip": "ym2612"
    },
    {
      "channel": 5,
      "note": 57,
      "start": 62.0517,
      "duration": 0.143,
      "velocity": 127,
      "chip": "ym2612"
    },
    {
      "channel": 4,
      "note": 35,
      "start": 62.193,
      "duration": 0.1182,
      "velocity": 111,
      "chip": "ym2612"
    },
    {
      "channel": 5,
      "note": 64,
      "start": 62.1949,
      "duration": 0.141,
      "velocity": 127,
      "chip": "ym2612"
    },
    {
      "channel": 4,
      "note": 37,
      "start": 62.3355,
      "duration": 0.2611,
      "velocity": 111,
      "chip": "ym2612"
    },
    {
      "channel": 5,
      "note": 64,
      "start": 62.3361,
      "duration": 0.1438,
      "velocity": 123,
      "chip": "ym2612"
    },
    {
      "channel": 5,
      "note": 68,
      "start": 62.4801,
      "duration": 0.2853,
      "velocity": 127,
      "chip": "ym2612"
    },
    {
      "channel": 4,
      "note": 37,
      "start": 62.6211,
      "duration": 0.2609,
      "velocity": 111,
      "chip": "ym2612"
    },
    {
      "channel": 5,
      "note": 64,
      "start": 62.7656,
      "duration": 0.1422,
      "velocity": 123,
      "chip": "ym2612"
    },
    {
      "channel": 5,
      "note": 57,
      "start": 62.908,
      "duration": 0.1427,
      "velocity": 123,
      "chip": "ym2612"
    },
    {
      "channel": 5,
      "note": 68,
      "start": 63.051,
      "duration": 0.2853,
      "velocity": 127,
      "chip": "ym2612"
    },
    {
      "channel": 0,
      "note": 57,
      "start": 63.3317,
      "duration": 0.5228,
      "velocity": 101,
      "chip": "ym2612"
    },
    {
      "channel": 5,
      "note": 64,
      "start": 63.3365,
      "duration": 0.1417,
      "velocity": 123,
      "chip": "ym2612"
    },
    {
      "channel": 5,
      "note": 57,
      "start": 63.4785,
      "duration": 0.1424,
      "velocity": 123,
      "chip": "ym2612"
    },
    {
      "channel": 1,
      "note": 57,
      "start": 63.5222,
      "duration": 0.5228,
      "velocity": 101,
      "chip": "ym2612"
    },
    {
      "channel": 5,
      "note": 68,
      "start": 63.6212,
      "duration": 0.2863,
      "velocity": 127,
      "chip": "ym2612"
    },
    {
      "channel": 0,
      "note": 56,
      "start": 63.9022,
      "duration": 1.6642,
      "velocity": 101,
      "chip": "ym2612"
    },
    {
      "channel": 4,
      "note": 37,
      "start": 63.9057,
      "duration": 0.1173,
      "velocity": 111,
      "chip": "ym2612"
    },
    {
      "channel": 5,
      "note": 64,
      "start": 63.9077,
      "duration": 0.1401,
      "velocity": 127,
      "chip": "ym2612"
    },
    {
      "channel": 4,
      "note": 37,
      "start": 64.0473,
      "duration": 0.2608,
      "velocity": 111,
      "chip": "ym2612"
    },
    {
      "channel": 5,
      "note": 64,
      "start": 64.0479,
      "duration": 0.1437,
      "velocity": 123,
      "chip": "ym2612"
    },
    {
      "channel": 1,
      "note": 56,
      "start": 64.0927,
      "duration": 1.664,
      "velocity": 101,
      "chip": "ym2612"
    },
    {
      "channel": 5,
      "note": 57,
      "start": 64.1918,
      "duration": 0.1424,
      "velocity": 127,
      "chip": "ym2612"
    },
    {
      "channel": 4,
      "note": 37,
      "start": 64.3325,
      "duration": 0.2611,
      "velocity": 111,
      "chip": "ym2612"
    },
    {
      "channel": 5,
      "note": 64,
      "start": 64.3344,
      "duration": 0.1424,
      "velocity": 127,
      "chip": "ym2612"
    },
    {
      "channel": 5,
      "note": 64,
      "start": 64.4771,
      "duration": 0.1424,
      "velocity": 123,
      "chip": "ym2612"
    },
    {
      "channel": 5,
      "note": 57,
      "start": 64.6196,
      "duration": 0.1426,
      "velocity": 123,
      "chip": "ym2612"
    },
    {
      "channel": 5,
      "note": 68,
      "start": 64.7625,
      "duration": 0.2852,
      "velocity": 127,
      "chip": "ym2612"
    },
    {
      "channel": 5,
      "note": 64,
      "start": 65.048,
      "duration": 0.1421,
      "velocity": 123,
      "chip": "ym2612"
    },
    {
      "channel": 5,
      "note": 57,
      "start": 65.1903,
      "duration": 0.1427,
      "velocity": 123,
      "chip": "ym2612"
    },
    {
      "channel": 5,
      "note": 68,
      "start": 65.3332,
      "duration": 0.2855,
      "velocity": 127,
      "chip": "ym2612"
    },
    {
      "channel": 0,
      "note": 59,
      "start": 65.6142,
      "duration": 0.5227,
      "velocity": 101,
      "chip": "ym2612"
    },
    {
      "channel": 5,
      "note": 64,
      "start": 65.6189,
      "duration": 0.1417,
      "velocity": 123,
      "chip": "ym2612"
    },
    {
      "channel": 5,
      "note": 57,
      "start": 65.7608,
      "duration": 0.1427,
      "velocity": 123,
      "chip": "ym2612"
    },
    {
      "channel": 1,
      "note": 59,
      "start": 65.8047,
      "duration": 0.5228,
      "velocity": 101,
      "chip": "ym2612"
    },
    {
      "channel": 5,
      "note": 68,
      "start": 65.9037,
      "duration": 0.286,
      "velocity": 127,
      "chip": "ym2612"
    },
    {
      "channel": 0,
      "note": 57,
      "start": 66.1848,
      "duration": 2.2345,
      "velocity": 101,
      "chip": "ym2612"
    },
    {
      "channel": 5,
      "note": 64,
      "start": 66.19,
      "duration": 0.1412,
      "velocity": 123,
      "chip": "ym2612"
    },
    {
      "channel": 5,
      "note": 57,
      "start": 66.3313,
      "duration": 0.1427,
      "velocity": 123,
      "chip": "ym2612"
    },
    {
      "channel": 1,
      "note": 57,
      "start": 66.3751,
      "duration": 2.2348,
      "velocity": 101,
      "chip": "ym2612"
    },
    {
      "channel": 5,
      "note": 68,
      "start": 66.4742,
      "duration": 0.2852,
      "velocity": 127,
      "chip": "ym2612"
    },
    {
      "channel": 5,
      "note": 64,
      "start": 66.7596,
      "duration": 0.1422,
      "velocity": 123,
      "chip": "ym2612"
    },
    {
      "channel": 5,
      "note": 57,
      "start": 66.902,
      "duration": 0.1429,
      "velocity": 123,
      "chip": "ym2612"
    },
    {
      "channel": 5,
      "note": 68,
      "start": 67.0451,
      "duration": 0.2853,
      "velocity": 127,
      "chip": "ym2612"
    },
    {
      "channel": 5,
      "note": 64,
      "start": 67.3306,
      "duration": 0.1422,
      "velocity": 123,
      "chip": "ym2612"
    },
    {
      "channel": 5,
      "note": 57,
      "start": 67.4729,
      "duration": 0.1426,
      "velocity": 123,
      "chip": "ym2612"
    },
    {
      "channel": 5,
      "note": 68,
      "start": 67.6157,
      "duration": 0.2854,
      "velocity": 127,
      "chip": "ym2612"
    },
    {
      "channel": 4,
      "note": 43,
      "start": 67.8994,
      "duration": 0.2607,
      "velocity": 111,
      "chip": "ym2612"
    },
    {
      "channel": 5,
      "note": 64,
      "start": 67.9014,
      "duration": 0.1408,
      "velocity": 127,
      "chip": "ym2612"
    },
    {
      "channel": 5,
      "note": 64,
      "start": 68.0424,
      "duration": 0.1442,
      "velocity": 127,
      "chip": "ym2612"
    },
    {
      "channel": 4,
      "note": 38,
      "start": 68.1849,
      "duration": 0.2607,
      "velocity": 111,
      "chip": "ym2612"
    },
    {
      "channel": 5,
      "note": 59,
      "start": 68.1868,
      "duration": 0.1404,
      "velocity": 127,
      "chip": "ym2612"
    },
    {
      "channel": 5,
      "note": 59,
      "start": 68.3274,
      "duration": 0.1456,
      "velocity": 127,
      "chip": "ym2612"
    },
    {
      "channel": 0,
      "note": 56,
      "start": 68.4673,
      "duration": 1.6639,
      "velocity": 101,
      "chip": "ym2612"
    },
    {
      "channel": 2,
      "note": 85,
      "start": 68.4683,
      "duration": 0.1421,
      "velocity": 109,
      "chip": "ym2612"
    },
    {
      "channel": 3,
      "note": 85,
      "start": 68.4708,
      "duration": 0.1417,
      "velocity": 109,
      "chip": "ym2612"
    },
    {
      "channel": 4,
      "note": 37,
      "start": 68.4713,
      "duration": 0.2592,
      "velocity": 111,
      "chip": "ym2612"
    },
    {
      "channel": 5,
      "note": 64,
      "start": 68.4733,
      "duration": 0.1413,
      "velocity": 123,
      "chip": "ym2612"
    },
    {
      "channel": 2,
      "note": 78,
      "start": 68.6106,
      "duration": 0.1422,
      "velocity": 109,
      "chip": "ym2612"
    },
    {
      "channel": 3,
      "note": 78,
      "start": 68.6126,
      "duration": 0.1425,
      "velocity": 109,
      "chip": "ym2612"
    },
    {
      "channel": 5,
      "note": 57,
      "start": 68.6148,
      "duration": 0.1428,
      "velocity": 127,
      "chip": "ym2612"
    },
    {
      "channel": 1,
      "note": 56,
      "start": 68.6576,
      "duration": 1.6641,
      "velocity": 101,
      "chip": "ym2612"
    },
    {
      "channel": 2,
      "note": 80,
      "start": 68.753,
      "duration": 0.1424,
      "velocity": 109,
      "chip": "ym2612"
    },
    {
      "channel": 3,
      "note": 80,
      "start": 68.7554,
      "duration": 0.142,
      "velocity": 109,
      "chip": "ym2612"
    },
    {
      "channel": 4,
      "note": 37,
      "start": 68.7559,
      "duration": 0.1172,
      "velocity": 111,
      "chip": "ym2612"
    },
    {
      "channel": 5,
      "note": 64,
      "start": 68.7578,
      "duration": 0.1407,
      "velocity": 127,
      "chip": "ym2612"
    },
    {
      "channel": 2,
      "note": 76,
      "start": 68.8956,
      "duration": 0.1425,
      "velocity": 109,
      "chip": "ym2612"
    },
    {
      "channel": 3,
      "note": 76,
      "start": 68.8976,
      "duration": 0.1428,
      "velocity": 109,
      "chip": "ym2612"
    },
    {
      "channel": 4,
      "note": 37,
      "start": 68.8982,
      "duration": 0.2603,
      "velocity": 111,
      "chip": "ym2612"
    },
    {
      "channel": 5,
      "note": 64,
      "start": 68.8988,
      "duration": 0.1439,
      "velocity": 127,
      "chip": "ym2612"
    },
    {
      "channel": 2,
      "note": 78,
      "start": 69.0383,
      "duration": 0.1425,
      "velocity": 109,
      "chip": "ym2612"
    },
    {
      "channel": 3,
      "note": 78,
      "start": 69.0407,
      "duration": 0.142,
      "velocity": 109,
      "chip": "ym2612"
    },
    {
      "channel": 5,
      "note": 64,
      "start": 69.0428,
      "duration": 0.1422,
      "velocity": 123,
      "chip": "ym2612"
    },
    {
      "channel": 2,
      "note": 80,
      "start": 69.181,
      "duration": 0.1424,
      "velocity": 109,
      "chip": "ym2612"
    },
    {
      "channel": 3,
      "note": 80,
      "start": 69.183,
      "duration": 0.1428,
      "velocity": 109,
      "chip": "ym2612"
    },
    {
      "channel": 5,
      "note": 57,
      "start": 69.1853,
      "duration": 0.1426,
      "velocity": 123,
      "chip": "ym2612"
    },
    {
      "channel": 2,
      "note": 73,
      "start": 69.3237,
      "duration": 0.143,
      "velocity": 109,
      "chip": "ym2612"
    },
    {
      "channel": 3,
      "note": 73,
      "start": 69.3259,
      "duration": 0.143,
      "velocity": 109,
      "chip": "ym2612"
    },
    {
      "channel": 5,
      "note": 68,
      "start": 69.3281,
      "duration": 0.2859,
      "velocity": 127,
      "chip": "ym2612"
    },
    {
      "channel": 2,
      "note": 73,
      "start": 69.4669,
      "duration": 0.1424,
      "velocity": 109,
      "chip": "ym2612"
    },
    {
      "channel": 3,
      "note": 73,
      "start": 69.4692,
      "duration": 0.1427,
      "velocity": 109,
      "chip": "ym2612"
    },
    {
      "channel": 2,
      "note": 73,
      "start": 69.6096,
      "duration": 0.1425,
      "velocity": 109,
      "chip": "ym2612"
    },
    {
      "channel": 3,
      "note": 73,
      "start": 69.612,
      "duration": 0.1423,
      "velocity": 109,
      "chip": "ym2612"
    },
    {
      "channel": 5,
      "note": 64,
      "start": 69.6143,
      "duration": 0.1423,
      "velocity": 123,
      "chip": "ym2612"
    },
    {
      "channel": 2,
      "note": 73,
      "start": 69.7523,
      "duration": 0.1424,
      "velocity": 109,
      "chip": "ym2612"
    },
    {
      "channel": 3,
      "note": 73,
      "start": 69.7545,
      "duration": 0.1426,
      "velocity": 109,
      "chip": "ym2612"
    },
    {
      "channel": 5,
      "note": 57,
      "start": 69.7568,
      "duration": 0.1426,
      "velocity": 123,
      "chip": "ym2612"
    },
    {
      "channel": 2,
      "note": 73,
      "start": 69.8949,
      "duration": 0.1423,
      "velocity": 109,
      "chip": "ym2612"
    },
    {
      "channel": 3,
      "note": 73,
      "start": 69.8974,
      "duration": 0.1419,
      "velocity": 109,
      "chip": "ym2612"
    },
    {
      "channel": 5,
      "note": 68,
      "start": 69.8996,
      "duration": 0.284,
      "velocity": 127,
      "chip": "ym2612"
    },
    {
      "channel": 0,
      "note": 49,
      "start": 70.1791,
      "duration": 0.5228,
      "velocity": 101,
      "chip": "ym2612"
    },
    {
      "channel": 5,
      "note": 64,
      "start": 70.1837,
      "duration": 0.1419,
      "velocity": 123,
      "chip": "ym2612"
    },
    {
      "channel": 5,
      "note": 57,
      "start": 70.3258,
      "duration": 0.1426,
      "velocity": 123,
      "chip": "ym2612"
    },
    {
      "channel": 1,
      "note": 49,
      "start": 70.3694,
      "duration": 0.5228,
      "velocity": 101,
      "chip": "ym2612"
    },
    {
      "channel": 5,
      "note": 68,
      "start": 70.4686,
      "duration": 0.2868,
      "velocity": 123,
      "chip": "ym2612"
    },
    {
      "channel": 0,
      "note": 55,
      "start": 70.7496,
      "duration": 1.0933,
      "velocity": 101,
      "chip": "ym2612"
    },
    {
      "channel": 5,
      "note": 57,
      "start": 70.7556,
      "duration": 0.1389,
      "velocity": 123,
      "chip": "ym2612"
    },
    {
      "channel": 5,
      "note": 57,
      "start": 70.8947,
      "duration": 0.1445,
      "velocity": 127,
      "chip": "ym2612"
    },
    {
      "channel": 1,
      "note": 55,
      "start": 70.94,
      "duration": 1.0934,
      "velocity": 101,
      "chip": "ym2612"
    },
    {
      "channel": 4,
      "note": 35,
      "start": 71.0375,
      "duration": 0.2606,
      "velocity": 111,
      "chip": "ym2612"
    },
    {
      "channel": 5,
      "note": 64,
      "start": 71.0395,
      "duration": 0.1418,
      "velocity": 123,
      "chip": "ym2612"
    },
    {
      "channel": 5,
      "note": 57,
      "start": 71.1815,
      "duration": 0.1429,
      "velocity": 127,
      "chip": "ym2612"
    },
    {
      "channel": 4,
      "note": 35,
      "start": 71.3228,
      "duration": 0.1181,
      "velocity": 111,
      "chip": "ym2612"
    },
    {
      "channel": 5,
      "note": 64,
      "start": 71.3247,
      "duration": 0.1409,
      "velocity": 127,
      "chip": "ym2612"
    },
    {
      "channel": 4,
      "note": 37,
      "start": 71.4653,
      "duration": 0.2612,
      "velocity": 111,
      "chip": "ym2612"
    },
    {
      "channel": 5,
      "note": 64,
      "start": 71.4659,
      "duration": 0.1438,
      "velocity": 123,
      "chip": "ym2612"
    },
    {
      "channel": 5,
      "note": 68,
      "start": 71.6099,
      "duration": 0.2855,
      "velocity": 127,
      "chip": "ym2612"
    },
    {
      "channel": 4,
      "note": 37,
      "start": 71.7509,
      "duration": 0.2607,
      "velocity": 111,
      "chip": "ym2612"
    },
    {
      "channel": 0,
      "note": 52,
      "start": 71.8907,
      "duration": 1.0936,
      "velocity": 101,
      "chip": "ym2612"
    },
    {
      "channel": 5,
      "note": 64,
      "start": 71.8956,
      "duration": 0.1419,
      "velocity": 123,
      "chip": "ym2612"
    },
    {
      "channel": 5,
      "note": 57,
      "start": 72.0377,
      "duration": 0.1424,
      "velocity": 123,
      "chip": "ym2612"
    },
    {
      "channel": 1,
      "note": 52,
      "start": 72.0813,
      "duration": 1.0934,
      "velocity": 101,
      "chip": "ym2612"
    },
    {
      "channel": 5,
      "note": 68,
      "start": 72.1802,
      "duration": 0.2852,
      "velocity": 127,
      "chip": "ym2612"
    },
    {
      "channel": 5,
      "note": 64,
      "start": 72.4657,
      "duration": 0.1422,
      "velocity": 123,
      "chip": "ym2612"
    },
    {
      "channel": 5,
      "note": 57,
      "start": 72.6082,
      "duration": 0.1428,
      "velocity": 123,
      "chip": "ym2612"
    },
    {
      "channel": 5,
      "note": 68,
      "start": 72.7512,
      "duration": 0.2861,
      "velocity": 127,
      "chip": "ym2612"
    },
    {
      "channel": 0,
      "note": 54,
      "start": 73.0322,
      "duration": 1.0933,
      "velocity": 101,
      "chip": "ym2612"
    },
    {
      "channel": 5,
      "note": 64,
      "start": 73.0374,
      "duration": 0.1412,
      "velocity": 123,
      "chip": "ym2612"
    },
    {
      "channel": 5,
      "note": 57,
      "start": 73.1788,
      "duration": 0.1426,
      "velocity": 123,
      "chip": "ym2612"
    },
    {
      "channel": 1,
      "note": 54,
      "start": 73.2225,
      "duration": 1.0934,
      "velocity": 101,
      "chip": "ym2612"
    },
    {
      "channel": 5,
      "note": 68,
      "start": 73.3217,
      "duration": 0.2849,
      "velocity": 127,
      "chip": "ym2612"
    },
    {
      "channel": 5,
      "note": 64,
      "start": 73.6068,
      "duration": 0.1423,
      "velocity": 123,
      "chip": "ym2612"
    },
    {
      "channel": 5,
      "note": 57,
      "start": 73.7493,
      "duration": 0.1428,
      "velocity": 123,
      "chip": "ym2612"
    },
    {
      "channel": 5,
      "note": 68,
      "start": 73.8923,
      "duration": 0.2854,
      "velocity": 127,
      "chip": "ym2612"
    },
    {
      "channel": 0,
      "note": 47,
      "start": 74.1732,
      "duration": 1.0934,
      "velocity": 101,
      "chip": "ym2612"
    },
    {
      "channel": 5,
      "note": 64,
      "start": 74.1779,
      "duration": 0.1419,
      "velocity": 123,
      "chip": "ym2612"
    },
    {
      "channel": 5,
      "note": 57,
      "start": 74.32,
      "duration": 0.1426,
      "velocity": 123,
      "chip": "ym2612"
    },
    {
      "channel": 1,
      "note": 47,
      "start": 74.3637,
      "duration": 1.0936,
      "velocity": 101,
      "chip": "ym2612"
    },
    {
      "channel": 5,
      "note": 68,
      "start": 74.4628,
      "duration": 0.285,
      "velocity": 127,
      "chip": "ym2612"
    },
    {
      "channel": 5,
      "note": 64,
      "start": 74.748,
      "duration": 0.1423,
      "velocity": 123,
      "chip": "ym2612"
    },
    {
      "channel": 5,
      "note": 57,
      "start": 74.8905,
      "duration": 0.1429,
      "velocity": 123,
      "chip": "ym2612"
    },
    {
      "channel": 5,
      "note": 68,
      "start": 75.0336,
      "duration": 0.286,
      "velocity": 127,
      "chip": "ym2612"
    },
    {
      "channel": 0,
      "note": 49,
      "start": 75.3145,
      "duration": 2.2346,
      "velocity": 101,
      "chip": "ym2612"
    },
    {
      "channel": 5,
      "note": 64,
      "start": 75.3198,
      "duration": 0.1413,
      "velocity": 123,
      "chip": "ym2612"
    },
    {
      "channel": 5,
      "note": 57,
      "start": 75.4613,
      "duration": 0.1424,
      "velocity": 123,
      "chip": "ym2612"
    },
    {
      "channel": 1,
      "note": 49,
      "start": 75.5049,
      "duration": 2.2347,
      "velocity": 101,
      "chip": "ym2612"
    },
    {
      "channel": 5,
      "note": 68,
      "start": 75.6039,
      "duration": 0.2853,
      "velocity": 127,
      "chip": "ym2612"
    },
    {
      "channel": 5,
      "note": 64,
      "start": 75.8893,
      "duration": 0.1421,
      "velocity": 123,
      "chip": "ym2612"
    },
    {
      "channel": 5,
      "note": 57,
      "start": 76.0317,
      "duration": 0.1429,
      "velocity": 123,
      "chip": "ym2612"
    },
    {
      "channel": 5,
      "note": 68,
      "start": 76.1748,
      "duration": 0.2853,
      "velocity": 127,
      "chip": "ym2612"
    },
    {
      "channel": 5,
      "note": 64,
      "start": 76.4603,
      "duration": 0.142,
      "velocity": 123,
      "chip": "ym2612"
    },
    {
      "channel": 5,
      "note": 57,
      "start": 76.6025,
      "duration": 0.1427,
      "velocity": 123,
      "chip": "ym2612"
    },
    {
      "channel": 5,
      "note": 68,
      "start": 76.7454,
      "duration": 0.2855,
      "velocity": 127,
      "chip": "ym2612"
    },
    {
      "channel": 4,
      "note": 47,
      "start": 77.0292,
      "duration": 0.2608,
      "velocity": 111,
      "chip": "ym2612"
    },
    {
      "channel": 5,
      "note": 64,
      "start": 77.0312,
      "duration": 0.1421,
      "velocity": 127,
      "chip": "ym2612"
    },
    {
      "channel": 5,
      "note": 59,
      "start": 77.1735,
      "duration": 0.1414,
      "velocity": 127,
      "chip": "ym2612"
    },
    {
      "channel": 4,
      "note": 42,
      "start": 77.3145,
      "duration": 0.2607,
      "velocity": 111,
      "chip": "ym2612"
    },
    {
      "channel": 5,
      "note": 59,
      "start": 77.3151,
      "duration": 0.1421,
      "velocity": 127,
      "chip": "ym2612"
    },
    {
      "channel": 5,
      "note": 59,
      "start": 77.4575,
      "duration": 0.1517,
      "velocity": 127,
      "chip": "ym2612"
    },
    {
      "channel": 0,
      "note": 68,
      "start": 77.5988,
      "duration": 0.4283,
      "velocity": 112,
      "chip": "ym2612"
    },
    {
      "channel": 4,
      "note": 37,
      "start": 77.6074,
      "duration": 0.1102,
      "velocity": 111,
      "chip": "ym2612"
    },
    {
      "channel": 5,
      "note": 64,
      "start": 77.6094,
      "duration": 0.1338,
      "velocity": 127,
      "chip": "ym2612"
    },
    {
      "channel": 4,
      "note": 49,
      "start": 77.7428,
      "duration": 0.1173,
      "velocity": 111,
      "chip": "ym2612"
    },
    {
      "channel": 5,
      "note": 64,
      "start": 77.7434,
      "duration": 0.1423,
      "velocity": 127,
      "chip": "ym2612"
    },
    {
      "channel": 1,
      "note": 68,
      "start": 77.7893,
      "duration": 0.2378,
      "velocity": 112,
      "chip": "ym2612"
    },
    {
      "channel": 4,
      "note": 37,
      "start": 77.8853,
      "duration": 0.1177,
      "velocity": 111,
      "chip": "ym2612"
    },
    {
      "channel": 5,
      "note": 64,
      "start": 77.8859,
      "duration": 0.1412,
      "velocity": 127,
      "chip": "ym2612"
    }
  ]
}