{
  "track_name": "03 - Lunar Land",
  "duration_sec": 109.649,
  "sample_rate": 44100,
  "note_count": 2315,
  "unique_pitches": 57,
  "pitch_range": 79,
  "avg_note_duration": 0.284,
  "reconstruction_stats": {
    "notes_reconstructed": 2315,
    "keyon_events": 2315,
    "keyoff_events": 2309,
    "orphan_keyons": 6,
    "unique_pitches": 57,
    "pitch_range": 79,
    "avg_duration_sec": 0.284
  },
  "metadata": {
    "source": "W\\Wiz 'n' Liz\\03 - Lunar Land.vgz"
  },
  "notes": [
    {
      "channel": 0,
      "note": 79,
      "start": 0.0,
      "duration": 0.0527,
      "velocity": 117,
      "chip": "ym2612"
    },
    {
      "channel": 1,
      "note": 79,
      "start": 0.0,
      "duration": 0.0549,
      "velocity": 102,
      "chip": "ym2612"
    },
    {
      "channel": 2,
      "note": 79,
      "start": 0.0,
      "duration": 0.057,
      "velocity": 102,
      "chip": "ym2612"
    },
    {
      "channel": 3,
      "note": 79,
      "start": 0.0,
      "duration": 4.8585,
      "velocity": 120,
      "chip": "ym2612"
    },
    {
      "channel": 4,
      "note": 79,
      "start": 0.0,
      "duration": 6.2157,
      "velocity": 102,
      "chip": "ym2612"
    },
    {
      "channel": 5,
      "note": 79,
      "start": 0.0,
      "duration": 0.2406,
      "velocity": 93,
      "chip": "ym2612"
    },
    {
      "channel": 0,
      "note": 64,
      "start": 0.0529,
      "duration": 0.2834,
      "velocity": 117,
      "chip": "ym2612"
    },
    {
      "channel": 1,
      "note": 40,
      "start": 0.055,
      "duration": 0.1828,
      "velocity": 120,
      "chip": "ym2612"
    },
    {
      "channel": 2,
      "note": 64,
      "start": 0.0571,
      "duration": 0.1812,
      "velocity": 102,
      "chip": "ym2612"
    },
    {
      "channel": 1,
      "note": 50,
      "start": 0.238,
      "duration": 0.0987,
      "velocity": 120,
      "chip": "ym2612"
    },
    {
      "channel": 2,
      "note": 76,
      "start": 0.2385,
      "duration": 0.0988,
      "velocity": 102,
      "chip": "ym2612"
    },
    {
      "channel": 5,
      "note": 110,
      "start": 0.2408,
      "duration": 0.3843,
      "velocity": 93,
      "chip": "ym2612"
    },
    {
      "channel": 0,
      "note": 64,
      "start": 0.3363,
      "duration": 0.2854,
      "velocity": 117,
      "chip": "ym2612"
    },
    {
      "channel": 1,
      "note": 62,
      "start": 0.3369,
      "duration": 0.0994,
      "velocity": 120,
      "chip": "ym2612"
    },
    {
      "channel": 2,
      "note": 73,
      "start": 0.3375,
      "duration": 0.0993,
      "velocity": 102,
      "chip": "ym2612"
    },
    {
      "channel": 1,
      "note": 50,
      "start": 0.4364,
      "duration": 0.1874,
      "velocity": 102,
      "chip": "ym2612"
    },
    {
      "channel": 2,
      "note": 71,
      "start": 0.437,
      "duration": 0.0848,
      "velocity": 102,
      "chip": "ym2612"
    },
    {
      "channel": 2,
      "note": 76,
      "start": 0.522,
      "duration": 0.1024,
      "velocity": 102,
      "chip": "ym2612"
    },
    {
      "channel": 0,
      "note": 59,
      "start": 0.6219,
      "duration": 0.0998,
      "velocity": 117,
      "chip": "ym2612"
    },
    {
      "channel": 1,
      "note": 52,
      "start": 0.624,
      "duration": 0.1998,
      "velocity": 120,
      "chip": "ym2612"
    },
    {
      "channel": 2,
      "note": 73,
      "start": 0.6246,
      "duration": 0.0978,
      "velocity": 102,
      "chip": "ym2612"
    },
    {
      "channel": 5,
      "note": 110,
      "start": 0.6253,
      "duration": 0.3839,
      "velocity": 93,
      "chip": "ym2612"
    },
    {
      "channel": 0,
      "note": 61,
      "start": 0.7219,
      "duration": 0.0998,
      "velocity": 117,
      "chip": "ym2612"
    },
    {
      "channel": 2,
      "note": 71,
      "start": 0.7224,
      "duration": 0.1035,
      "velocity": 102,
      "chip": "ym2612"
    },
    {
      "channel": 0,
      "note": 64,
      "start": 0.8218,
      "duration": 0.2845,
      "velocity": 117,
      "chip": "ym2612"
    },
    {
      "channel": 1,
      "note": 62,
      "start": 0.824,
      "duration": 0.1839,
      "velocity": 102,
      "chip": "ym2612"
    },
    {
      "channel": 2,
      "note": 64,
      "start": 0.8261,
      "duration": 0.1824,
      "velocity": 102,
      "chip": "ym2612"
    },
    {
      "channel": 1,
      "note": 40,
      "start": 1.008,
      "duration": 0.2833,
      "velocity": 102,
      "chip": "ym2612"
    },
    {
      "channel": 2,
      "note": 76,
      "start": 1.0086,
      "duration": 0.0983,
      "velocity": 102,
      "chip": "ym2612"
    },
    {
      "channel": 5,
      "note": 110,
      "start": 1.0093,
      "duration": 0.3854,
      "velocity": 93,
      "chip": "ym2612"
    },
    {
      "channel": 0,
      "note": 64,
      "start": 1.1065,
      "duration": 0.2849,
      "velocity": 117,
      "chip": "ym2612"
    },
    {
      "channel": 2,
      "note": 73,
      "start": 1.107,
      "duration": 0.0993,
      "velocity": 102,
      "chip": "ym2612"
    },
    {
      "channel": 2,
      "note": 71,
      "start": 1.2065,
      "duration": 0.0854,
      "velocity": 102,
      "chip": "ym2612"
    },
    {
      "channel": 1,
      "note": 52,
      "start": 1.2916,
      "duration": 0.1018,
      "velocity": 120,
      "chip": "ym2612"
    },
    {
      "channel": 2,
      "note": 76,
      "start": 1.2921,
      "duration": 0.1019,
      "velocity": 102,
      "chip": "ym2612"
    },
    {
      "channel": 0,
      "note": 59,
      "start": 1.3914,
      "duration": 0.0999,
      "velocity": 117,
      "chip": "ym2612"
    },
    {
      "channel": 1,
      "note": 50,
      "start": 1.3936,
      "duration": 0.1998,
      "velocity": 102,
      "chip": "ym2612"
    },
    {
      "channel": 2,
      "note": 73,
      "start": 1.3942,
      "duration": 0.0978,
      "velocity": 102,
      "chip": "ym2612"
    },
    {
      "channel": 5,
      "note": 110,
      "start": 1.3949,
      "duration": 0.3838,
      "velocity": 93,
      "chip": "ym2612"
    },
    {
      "channel": 0,
      "note": 61,
      "start": 1.4915,
      "duration": 0.0998,
      "velocity": 117,
      "chip": "ym2612"
    },
    {
      "channel": 2,
      "note": 71,
      "start": 1.4921,
      "duration": 0.1035,
      "velocity": 102,
      "chip": "ym2612"
    },
    {
      "channel": 0,
      "note": 64,
      "start": 1.5914,
      "duration": 0.2845,
      "velocity": 117,
      "chip": "ym2612"
    },
    {
      "channel": 1,
      "note": 38,
      "start": 1.5936,
      "duration": 0.1839,
      "velocity": 120,
      "chip": "ym2612"
    },
    {
      "channel": 2,
      "note": 62,
      "start": 1.5957,
      "duration": 0.1823,
      "velocity": 102,
      "chip": "ym2612"
    },
    {
      "channel": 1,
      "note": 62,
      "start": 1.7776,
      "duration": 0.0988,
      "velocity": 120,
      "chip": "ym2612"
    },
    {
      "channel": 2,
      "note": 74,
      "start": 1.7782,
      "duration": 0.0988,
      "velocity": 102,
      "chip": "ym2612"
    },
    {
      "channel": 5,
      "note": 110,
      "start": 1.7789,
      "duration": 0.3852,
      "velocity": 93,
      "chip": "ym2612"
    },
    {
      "channel": 0,
      "note": 64,
      "start": 1.8761,
      "duration": 0.2847,
      "velocity": 117,
      "chip": "ym2612"
    },
    {
      "channel": 1,
      "note": 50,
      "start": 1.8766,
      "duration": 0.0994,
      "velocity": 120,
      "chip": "ym2612"
    },
    {
      "channel": 2,
      "note": 71,
      "start": 1.8772,
      "duration": 0.0994,
      "velocity": 102,
      "chip": "ym2612"
    },
    {
      "channel": 1,
      "note": 62,
      "start": 1.9761,
      "duration": 0.1867,
      "velocity": 102,
      "chip": "ym2612"
    },
    {
      "channel": 2,
      "note": 69,
      "start": 1.9766,
      "duration": 0.0842,
      "velocity": 102,
      "chip": "ym2612"
    },
    {
      "channel": 2,
      "note": 74,
      "start": 2.061,
      "duration": 0.1024,
      "velocity": 102,
      "chip": "ym2612"
    },
    {
      "channel": 0,
      "note": 59,
      "start": 2.1609,
      "duration": 0.0999,
      "velocity": 117,
      "chip": "ym2612"
    },
    {
      "channel": 1,
      "note": 50,
      "start": 2.163,
      "duration": 0.1998,
      "velocity": 120,
      "chip": "ym2612"
    },
    {
      "channel": 2,
      "note": 71,
      "start": 2.1635,
      "duration": 0.0978,
      "velocity": 102,
      "chip": "ym2612"
    },
    {
      "channel": 5,
      "note": 110,
      "start": 2.1642,
      "duration": 0.3849,
      "velocity": 93,
      "chip": "ym2612"
    },
    {
      "channel": 0,
      "note": 61,
      "start": 2.2609,
      "duration": 0.0998,
      "velocity": 117,
      "chip": "ym2612"
    },
    {
      "channel": 2,
      "note": 69,
      "start": 2.2615,
      "duration": 0.1034,
      "velocity": 102,
      "chip": "ym2612"
    },
    {
      "channel": 0,
      "note": 64,
      "start": 2.3609,
      "duration": 0.2854,
      "velocity": 117,
      "chip": "ym2612"
    },
    {
      "channel": 1,
      "note": 50,
      "start": 2.363,
      "duration": 0.1849,
      "velocity": 102,
      "chip": "ym2612"
    },
    {
      "channel": 2,
      "note": 62,
      "start": 2.3651,
      "duration": 0.1833,
      "velocity": 102,
      "chip": "ym2612"
    },
    {
      "channel": 1,
      "note": 38,
      "start": 2.5481,
      "duration": 0.2819,
      "velocity": 102,
      "chip": "ym2612"
    },
    {
      "channel": 2,
      "note": 74,
      "start": 2.5486,
      "duration": 0.0983,
      "velocity": 102,
      "chip": "ym2612"
    },
    {
      "channel": 5,
      "note": 110,
      "start": 2.5493,
      "duration": 0.3839,
      "velocity": 93,
      "chip": "ym2612"
    },
    {
      "channel": 0,
      "note": 64,
      "start": 2.6465,
      "duration": 0.2834,
      "velocity": 117,
      "chip": "ym2612"
    },
    {
      "channel": 2,
      "note": 71,
      "start": 2.6471,
      "duration": 0.0993,
      "velocity": 102,
      "chip": "ym2612"
    },
    {
      "channel": 2,
      "note": 69,
      "start": 2.7466,
      "duration": 0.0839,
      "velocity": 102,
      "chip": "ym2612"
    },
    {
      "channel": 1,
      "note": 50,
      "start": 2.8301,
      "duration": 0.1018,
      "velocity": 120,
      "chip": "ym2612"
    },
    {
      "channel": 2,
      "note": 74,
      "start": 2.8306,
      "duration": 0.1019,
      "velocity": 102,
      "chip": "ym2612"
    },
    {
      "channel": 0,
      "note": 59,
      "start": 2.93,
      "duration": 0.0999,
      "velocity": 117,
      "chip": "ym2612"
    },
    {
      "channel": 1,
      "note": 62,
      "start": 2.9322,
      "duration": 0.1998,
      "velocity": 102,
      "chip": "ym2612"
    },
    {
      "channel": 2,
      "note": 71,
      "start": 2.9327,
      "duration": 0.0977,
      "velocity": 102,
      "chip": "ym2612"
    },
    {
      "channel": 5,
      "note": 110,
      "start": 2.9334,
      "duration": 0.3839,
      "velocity": 93,
      "chip": "ym2612"
    },
    {
      "channel": 0,
      "note": 61,
      "start": 3.03,
      "duration": 0.0999,
      "velocity": 117,
      "chip": "ym2612"
    },
    {
      "channel": 2,
      "note": 69,
      "start": 3.0306,
      "duration": 0.1035,
      "velocity": 102,
      "chip": "ym2612"
    },
    {
      "channel": 0,
      "note": 57,
      "start": 3.13,
      "duration": 0.2845,
      "velocity": 117,
      "chip": "ym2612"
    },
    {
      "channel": 1,
      "note": 33,
      "start": 3.1322,
      "duration": 0.1839,
      "velocity": 120,
      "chip": "ym2612"
    },
    {
      "channel": 2,
      "note": 57,
      "start": 3.1342,
      "duration": 0.1824,
      "velocity": 102,
      "chip": "ym2612"
    },
    {
      "channel": 1,
      "note": 50,
      "start": 3.3162,
      "duration": 0.0988,
      "velocity": 120,
      "chip": "ym2612"
    },
    {
      "channel": 2,
      "note": 69,
      "start": 3.3168,
      "duration": 0.0988,
      "velocity": 102,
      "chip": "ym2612"
    },
    {
      "channel": 5,
      "note": 110,
      "start": 3.3175,
      "duration": 0.3859,
      "velocity": 93,
      "chip": "ym2612"
    },
    {
      "channel": 0,
      "note": 57,
      "start": 3.4146,
      "duration": 0.2853,
      "velocity": 117,
      "chip": "ym2612"
    },
    {
      "channel": 1,
      "note": 62,
      "start": 3.4152,
      "duration": 0.0994,
      "velocity": 120,
      "chip": "ym2612"
    },
    {
      "channel": 2,
      "note": 66,
      "start": 3.4157,
      "duration": 0.0993,
      "velocity": 102,
      "chip": "ym2612"
    },
    {
      "channel": 1,
      "note": 50,
      "start": 3.5146,
      "duration": 0.1874,
      "velocity": 102,
      "chip": "ym2612"
    },
    {
      "channel": 2,
      "note": 64,
      "start": 3.5152,
      "duration": 0.0848,
      "velocity": 102,
      "chip": "ym2612"
    },
    {
      "channel": 2,
      "note": 69,
      "start": 3.6002,
      "duration": 0.1024,
      "velocity": 102,
      "chip": "ym2612"
    },
    {
      "channel": 0,
      "note": 52,
      "start": 3.7,
      "duration": 0.0999,
      "velocity": 117,
      "chip": "ym2612"
    },
    {
      "channel": 1,
      "note": 45,
      "start": 3.7022,
      "duration": 0.1998,
      "velocity": 120,
      "chip": "ym2612"
    },
    {
      "channel": 2,
      "note": 66,
      "start": 3.7028,
      "duration": 0.0978,
      "velocity": 102,
      "chip": "ym2612"
    },
    {
      "channel": 5,
      "note": 110,
      "start": 3.7035,
      "duration": 0.3839,
      "velocity": 93,
      "chip": "ym2612"
    },
    {
      "channel": 0,
      "note": 54,
      "start": 3.8001,
      "duration": 0.0998,
      "velocity": 117,
      "chip": "ym2612"
    },
    {
      "channel": 2,
      "note": 64,
      "start": 3.8007,
      "duration": 0.1035,
      "velocity": 102,
      "chip": "ym2612"
    },
    {
      "channel": 0,
      "note": 57,
      "start": 3.9,
      "duration": 0.2845,
      "velocity": 117,
      "chip": "ym2612"
    },
    {
      "channel": 1,
      "note": 62,
      "start": 3.9022,
      "duration": 0.1839,
      "velocity": 102,
      "chip": "ym2612"
    },
    {
      "channel": 2,
      "note": 57,
      "start": 3.9043,
      "duration": 0.1824,
      "velocity": 102,
      "chip": "ym2612"
    },
    {
      "channel": 1,
      "note": 33,
      "start": 4.0863,
      "duration": 0.2833,
      "velocity": 102,
      "chip": "ym2612"
    },
    {
      "channel": 2,
      "note": 69,
      "start": 4.0868,
      "duration": 0.0983,
      "velocity": 102,
      "chip": "ym2612"
    },
    {
      "channel": 5,
      "note": 110,
      "start": 4.0875,
      "duration": 0.3854,
      "velocity": 93,
      "chip": "ym2612"
    },
    {
      "channel": 0,
      "note": 57,
      "start": 4.1847,
      "duration": 0.2849,
      "velocity": 117,
      "chip": "ym2612"
    },
    {
      "channel": 2,
      "note": 66,
      "start": 4.1853,
      "duration": 0.0993,
      "velocity": 102,
      "chip": "ym2612"
    },
    {
      "channel": 2,
      "note": 64,
      "start": 4.2848,
      "duration": 0.0854,
      "velocity": 102,
      "chip": "ym2612"
    },
    {
      "channel": 1,
      "note": 45,
      "start": 4.3698,
      "duration": 0.1018,
      "velocity": 120,
      "chip": "ym2612"
    },
    {
      "channel": 2,
      "note": 69,
      "start": 4.3704,
      "duration": 0.1019,
      "velocity": 102,
      "chip": "ym2612"
    },
    {
      "channel": 0,
      "note": 52,
      "start": 4.4697,
      "duration": 0.0999,
      "velocity": 117,
      "chip": "ym2612"
    },
    {
      "channel": 1,
      "note": 50,
      "start": 4.4718,
      "duration": 0.1998,
      "velocity": 102,
      "chip": "ym2612"
    },
    {
      "channel": 2,
      "note": 66,
      "start": 4.4724,
      "duration": 0.0978,
      "velocity": 102,
      "chip": "ym2612"
    },
    {
      "channel": 5,
      "note": 110,
      "start": 4.4731,
      "duration": 0.386,
      "velocity": 93,
      "chip": "ym2612"
    },
    {
      "channel": 0,
      "note": 54,
      "start": 4.5697,
      "duration": 0.0998,
      "velocity": 117,
      "chip": "ym2612"
    },
    {
      "channel": 2,
      "note": 64,
      "start": 4.5703,
      "duration": 0.1035,
      "velocity": 102,
      "chip": "ym2612"
    },
    {
      "channel": 0,
      "note": 57,
      "start": 4.6697,
      "duration": 0.2845,
      "velocity": 117,
      "chip": "ym2612"
    },
    {
      "channel": 1,
      "note": 36,
      "start": 4.6718,
      "duration": 0.1839,
      "velocity": 120,
      "chip": "ym2612"
    },
    {
      "channel": 2,
      "note": 60,
      "start": 4.6739,
      "duration": 0.1824,
      "velocity": 102,
      "chip": "ym2612"
    },
    {
      "channel": 1,
      "note": 62,
      "start": 4.8559,
      "duration": 0.0988,
      "velocity": 120,
      "chip": "ym2612"
    },
    {
      "channel": 2,
      "note": 72,
      "start": 4.8565,
      "duration": 0.0988,
      "velocity": 102,
      "chip": "ym2612"
    },
    {
      "channel": 3,
      "note": 31,
      "start": 4.8586,
      "duration": 0.2811,
      "velocity": 120,
      "chip": "ym2612"
    },
    {
      "channel": 5,
      "note": 110,
      "start": 4.8592,
      "duration": 0.3832,
      "velocity": 93,
      "chip": "ym2612"
    },
    {
      "channel": 0,
      "note": 57,
      "start": 4.9543,
      "duration": 0.2847,
      "velocity": 117,
      "chip": "ym2612"
    },
    {
      "channel": 1,
      "note": 50,
      "start": 4.9549,
      "duration": 0.0993,
      "velocity": 120,
      "chip": "ym2612"
    },
    {
      "channel": 2,
      "note": 69,
      "start": 4.9554,
      "duration": 0.0993,
      "velocity": 102,
      "chip": "ym2612"
    },
    {
      "channel": 1,
      "note": 62,
      "start": 5.0543,
      "duration": 0.1869,
      "velocity": 102,
      "chip": "ym2612"
    },
    {
      "channel": 2,
      "note": 67,
      "start": 5.0549,
      "duration": 0.0843,
      "velocity": 102,
      "chip": "ym2612"
    },
    {
      "channel": 2,
      "note": 72,
      "start": 5.1393,
      "duration": 0.1024,
      "velocity": 102,
      "chip": "ym2612"
    },
    {
      "channel": 3,
      "note": 31,
      "start": 5.1398,
      "duration": 0.304,
      "velocity": 120,
      "chip": "ym2612"
    },
    {
      "channel": 0,
      "note": 52,
      "start": 5.2392,
      "duration": 0.0998,
      "velocity": 117,
      "chip": "ym2612"
    },
    {
      "channel": 1,
      "note": 48,
      "start": 5.2413,
      "duration": 0.1999,
      "velocity": 120,
      "chip": "ym2612"
    },
    {
      "channel": 2,
      "note": 69,
      "start": 5.2419,
      "duration": 0.0978,
      "velocity": 102,
      "chip": "ym2612"
    },
    {
      "channel": 5,
      "note": 110,
      "start": 5.2426,
      "duration": 0.3842,
      "velocity": 93,
      "chip": "ym2612"
    },
    {
      "channel": 0,
      "note": 54,
      "start": 5.3392,
      "duration": 0.0998,
      "velocity": 117,
      "chip": "ym2612"
    },
    {
      "channel": 2,
      "note": 67,
      "start": 5.3398,
      "duration": 0.1035,
      "velocity": 102,
      "chip": "ym2612"
    },
    {
      "channel": 0,
      "note": 57,
      "start": 5.4392,
      "duration": 0.2847,
      "velocity": 117,
      "chip": "ym2612"
    },
    {
      "channel": 1,
      "note": 50,
      "start": 5.4413,
      "duration": 0.1843,
      "velocity": 102,
      "chip": "ym2612"
    },
    {
      "channel": 2,
      "note": 60,
      "start": 5.4435,
      "duration": 0.1826,
      "velocity": 102,
      "chip": "ym2612"
    },
    {
      "channel": 3,
      "note": 31,
      "start": 5.444,
      "duration": 0.0801,
      "velocity": 120,
      "chip": "ym2612"
    },
    {
      "channel": 3,
      "note": 31,
      "start": 5.5243,
      "duration": 0.2008,
      "velocity": 120,
      "chip": "ym2612"
    },
    {
      "channel": 1,
      "note": 36,
      "start": 5.6257,
      "duration": 0.2835,
      "velocity": 102,
      "chip": "ym2612"
    },
    {
      "channel": 2,
      "note": 72,
      "start": 5.6263,
      "duration": 0.0983,
      "velocity": 102,
      "chip": "ym2612"
    },
    {
      "channel": 5,
      "note": 110,
      "start": 5.627,
      "duration": 0.386,
      "velocity": 93,
      "chip": "ym2612"
    },
    {
      "channel": 0,
      "note": 57,
      "start": 5.7241,
      "duration": 0.285,
      "velocity": 117,
      "chip": "ym2612"
    },
    {
      "channel": 2,
      "note": 69,
      "start": 5.7247,
      "duration": 0.0993,
      "velocity": 102,
      "chip": "ym2612"
    },
    {
      "channel": 3,
      "note": 31,
      "start": 5.7253,
      "duration": 0.185,
      "velocity": 120,
      "chip": "ym2612"
    },
    {
      "channel": 2,
      "note": 67,
      "start": 5.8242,
      "duration": 0.0855,
      "velocity": 102,
      "chip": "ym2612"
    },
    {
      "channel": 1,
      "note": 48,
      "start": 5.9093,
      "duration": 0.1019,
      "velocity": 120,
      "chip": "ym2612"
    },
    {
      "channel": 2,
      "note": 72,
      "start": 5.9099,
      "duration": 0.1019,
      "velocity": 102,
      "chip": "ym2612"
    },
    {
      "channel": 3,
      "note": 31,
      "start": 5.9105,
      "duration": 0.1018,
      "velocity": 120,
      "chip": "ym2612"
    },
    {
      "channel": 0,
      "note": 52,
      "start": 6.0093,
      "duration": 0.0999,
      "velocity": 117,
      "chip": "ym2612"
    },
    {
      "channel": 1,
      "note": 62,
      "start": 6.0114,
      "duration": 0.0983,
      "velocity": 120,
      "chip": "ym2612"
    },
    {
      "channel": 2,
      "note": 69,
      "start": 6.0119,
      "duration": 0.0983,
      "velocity": 102,
      "chip": "ym2612"
    },
    {
      "channel": 3,
      "note": 31,
      "start": 6.0125,
      "duration": 0.0983,
      "velocity": 120,
      "chip": "ym2612"
    },
    {
      "channel": 5,
      "note": 110,
      "start": 6.0131,
      "duration": 0.3838,
      "velocity": 93,
      "chip": "ym2612"
    },
    {
      "channel": 0,
      "note": 54,
      "start": 6.1093,
      "duration": 0.0999,
      "velocity": 117,
      "chip": "ym2612"
    },
    {
      "channel": 1,
      "note": 50,
      "start": 6.1098,
      "duration": 0.1015,
      "velocity": 102,
      "chip": "ym2612"
    },
    {
      "channel": 2,
      "note": 67,
      "start": 6.1104,
      "duration": 0.103,
      "velocity": 99,
      "chip": "ym2612"
    },
    {
      "channel": 3,
      "note": 31,
      "start": 6.111,
      "duration": 0.4853,
      "velocity": 100,
      "chip": "ym2612"
    },
    {
      "channel": 0,
      "note": 64,
      "start": 6.2094,
      "duration": 0.2846,
      "velocity": 117,
      "chip": "ym2612"
    },
    {
      "channel": 1,
      "note": 40,
      "start": 6.2115,
      "duration": 0.184,
      "velocity": 120,
      "chip": "ym2612"
    },
    {
      "channel": 2,
      "note": 88,
      "start": 6.2137,
      "duration": 1.3368,
      "velocity": 99,
      "chip": "ym2612"
    },
    {
      "channel": 4,
      "note": 64,
      "start": 6.2159,
      "duration": 0.1804,
      "velocity": 102,
      "chip": "ym2612"
    },
    {
      "channel": 1,
      "note": 50,
      "start": 6.3958,
      "duration": 0.0988,
      "velocity": 120,
      "chip": "ym2612"
    },
    {
      "channel": 4,
      "note": 76,
      "start": 6.3964,
      "duration": 0.0988,
      "velocity": 102,
      "chip": "ym2612"
    },
    {
      "channel": 5,
      "note": 110,
      "start": 6.397,
      "duration": 0.3851,
      "velocity": 93,
      "chip": "ym2612"
    },
    {
      "channel": 0,
      "note": 64,
      "start": 6.4942,
      "duration": 0.2846,
      "velocity": 117,
      "chip": "ym2612"
    },
    {
      "channel": 1,
      "note": 62,
      "start": 6.4947,
      "duration": 0.0994,
      "velocity": 120,
      "chip": "ym2612"
    },
    {
      "channel": 4,
      "note": 73,
      "start": 6.4954,
      "duration": 0.1014,
      "velocity": 102,
      "chip": "ym2612"
    },
    {
      "channel": 1,
      "note": 50,
      "start": 6.5942,
      "duration": 0.1866,
      "velocity": 102,
      "chip": "ym2612"
    },
    {
      "channel": 3,
      "note": 88,
      "start": 6.5964,
      "duration": 1.3393,
      "velocity": 100,
      "chip": "ym2612"
    },
    {
      "channel": 4,
      "note": 71,
      "start": 6.597,
      "duration": 0.082,
      "velocity": 102,
      "chip": "ym2612"
    },
    {
      "channel": 4,
      "note": 76,
      "start": 6.6791,
      "duration": 0.1024,
      "velocity": 102,
      "chip": "ym2612"
    },
    {
      "channel": 0,
      "note": 59,
      "start": 6.7788,
      "duration": 0.0999,
      "velocity": 117,
      "chip": "ym2612"
    },
    {
      "channel": 1,
      "note": 52,
      "start": 6.781,
      "duration": 0.1998,
      "velocity": 120,
      "chip": "ym2612"
    },
    {
      "channel": 4,
      "note": 73,
      "start": 6.7817,
      "duration": 0.0977,
      "velocity": 102,
      "chip": "ym2612"
    },
    {
      "channel": 5,
      "note": 110,
      "start": 6.7823,
      "duration": 0.3832,
      "velocity": 93,
      "chip": "ym2612"
    },
    {
      "channel": 0,
      "note": 61,
      "start": 6.8789,
      "duration": 0.0998,
      "velocity": 117,
      "chip": "ym2612"
    },
    {
      "channel": 4,
      "note": 71,
      "start": 6.8796,
      "duration": 0.1035,
      "velocity": 102,
      "chip": "ym2612"
    },
    {
      "channel": 0,
      "note": 64,
      "start": 6.9788,
      "duration": 0.2838,
      "velocity": 117,
      "chip": "ym2612"
    },
    {
      "channel": 1,
      "note": 62,
      "start": 6.981,
      "duration": 0.1832,
      "velocity": 102,
      "chip": "ym2612"
    },
    {
      "channel": 4,
      "note": 64,
      "start": 6.9833,
      "duration": 0.1816,
      "velocity": 102,
      "chip": "ym2612"
    },
    {
      "channel": 1,
      "note": 40,
      "start": 7.1644,
      "duration": 0.2834,
      "velocity": 102,
      "chip": "ym2612"
    },
    {
      "channel": 4,
      "note": 76,
      "start": 7.1651,
      "duration": 0.0983,
      "velocity": 102,
      "chip": "ym2612"
    },
    {
      "channel": 5,
      "note": 110,
      "start": 7.1656,
      "duration": 0.386,
      "velocity": 93,
      "chip": "ym2612"
    },
    {
      "channel": 0,
      "note": 64,
      "start": 7.2628,
      "duration": 0.2849,
      "velocity": 117,
      "chip": "ym2612"
    },
    {
      "channel": 4,
      "note": 73,
      "start": 7.2635,
      "duration": 0.0993,
      "velocity": 102,
      "chip": "ym2612"
    },
    {
      "channel": 4,
      "note": 71,
      "start": 7.363,
      "duration": 0.0855,
      "velocity": 102,
      "chip": "ym2612"
    },
    {
      "channel": 1,
      "note": 52,
      "start": 7.448,
      "duration": 0.1019,
      "velocity": 120,
      "chip": "ym2612"
    },
    {
      "channel": 4,
      "note": 76,
      "start": 7.4486,
      "duration": 0.1024,
      "velocity": 102,
      "chip": "ym2612"
    },
    {
      "channel": 0,
      "note": 59,
      "start": 7.5479,
      "duration": 0.0998,
      "velocity": 117,
      "chip": "ym2612"
    },
    {
      "channel": 1,
      "note": 50,
      "start": 7.5501,
      "duration": 0.1998,
      "velocity": 102,
      "chip": "ym2612"
    },
    {
      "channel": 2,
      "note": 86,
      "start": 7.5506,
      "duration": 0.0978,
      "velocity": 99,
      "chip": "ym2612"
    },
    {
      "channel": 4,
      "note": 73,
      "start": 7.5512,
      "duration": 0.0977,
      "velocity": 102,
      "chip": "ym2612"
    },
    {
      "channel": 5,
      "note": 110,
      "start": 7.5518,
      "duration": 0.385,
      "velocity": 93,
      "chip": "ym2612"
    },
    {
      "channel": 0,
      "note": 61,
      "start": 7.6479,
      "duration": 0.0998,
      "velocity": 117,
      "chip": "ym2612"
    },
    {
      "channel": 2,
      "note": 85,
      "start": 7.6485,
      "duration": 0.1019,
      "velocity": 99,
      "chip": "ym2612"
    },
    {
      "channel": 4,
      "note": 71,
      "start": 7.6492,
      "duration": 0.1035,
      "velocity": 102,
      "chip": "ym2612"
    },
    {
      "channel": 0,
      "note": 64,
      "start": 7.7479,
      "duration": 0.2851,
      "velocity": 117,
      "chip": "ym2612"
    },
    {
      "channel": 1,
      "note": 38,
      "start": 7.75,
      "duration": 0.1845,
      "velocity": 120,
      "chip": "ym2612"
    },
    {
      "channel": 2,
      "note": 86,
      "start": 7.7506,
      "duration": 0.1845,
      "velocity": 99,
      "chip": "ym2612"
    },
    {
      "channel": 4,
      "note": 62,
      "start": 7.7528,
      "duration": 0.1834,
      "velocity": 102,
      "chip": "ym2612"
    },
    {
      "channel": 1,
      "note": 62,
      "start": 7.9348,
      "duration": 0.0988,
      "velocity": 120,
      "chip": "ym2612"
    },
    {
      "channel": 2,
      "note": 85,
      "start": 7.9353,
      "duration": 0.1983,
      "velocity": 99,
      "chip": "ym2612"
    },
    {
      "channel": 3,
      "note": 86,
      "start": 7.9359,
      "duration": 0.0983,
      "velocity": 100,
      "chip": "ym2612"
    },
    {
      "channel": 4,
      "note": 74,
      "start": 7.9364,
      "duration": 0.0983,
      "velocity": 102,
      "chip": "ym2612"
    },
    {
      "channel": 5,
      "note": 110,
      "start": 7.937,
      "duration": 0.3841,
      "velocity": 93,
      "chip": "ym2612"
    },
    {
      "channel": 0,
      "note": 64,
      "start": 8.0332,
      "duration": 0.2836,
      "velocity": 117,
      "chip": "ym2612"
    },
    {
      "channel": 1,
      "note": 50,
      "start": 8.0337,
      "duration": 0.0994,
      "velocity": 120,
      "chip": "ym2612"
    },
    {
      "channel": 3,
      "note": 85,
      "start": 8.0343,
      "duration": 0.0998,
      "velocity": 100,
      "chip": "ym2612"
    },
    {
      "channel": 4,
      "note": 71,
      "start": 8.0349,
      "duration": 0.0998,
      "velocity": 102,
      "chip": "ym2612"
    },
    {
      "channel": 1,
      "note": 62,
      "start": 8.1332,
      "duration": 0.1856,
      "velocity": 102,
      "chip": "ym2612"
    },
    {
      "channel": 2,
      "note": 83,
      "start": 8.1337,
      "duration": 0.1857,
      "velocity": 99,
      "chip": "ym2612"
    },
    {
      "channel": 3,
      "note": 86,
      "start": 8.1343,
      "duration": 0.1857,
      "velocity": 100,
      "chip": "ym2612"
    },
    {
      "channel": 4,
      "note": 69,
      "start": 8.1349,
      "duration": 0.082,
      "velocity": 102,
      "chip": "ym2612"
    },
    {
      "channel": 4,
      "note": 74,
      "start": 8.2171,
      "duration": 0.1034,
      "velocity": 102,
      "chip": "ym2612"
    },
    {
      "channel": 0,
      "note": 59,
      "start": 8.3169,
      "duration": 0.0999,
      "velocity": 117,
      "chip": "ym2612"
    },
    {
      "channel": 1,
      "note": 50,
      "start": 8.319,
      "duration": 0.1998,
      "velocity": 120,
      "chip": "ym2612"
    },
    {
      "channel": 2,
      "note": 81,
      "start": 8.3196,
      "duration": 0.7696,
      "velocity": 99,
      "chip": "ym2612"
    },
    {
      "channel": 3,
      "note": 85,
      "start": 8.3202,
      "duration": 0.1993,
      "velocity": 100,
      "chip": "ym2612"
    },
    {
      "channel": 4,
      "note": 71,
      "start": 8.3207,
      "duration": 0.0967,
      "velocity": 102,
      "chip": "ym2612"
    },
    {
      "channel": 5,
      "note": 110,
      "start": 8.3213,
      "duration": 0.3836,
      "velocity": 93,
      "chip": "ym2612"
    },
    {
      "channel": 0,
      "note": 61,
      "start": 8.4169,
      "duration": 0.0998,
      "velocity": 117,
      "chip": "ym2612"
    },
    {
      "channel": 4,
      "note": 69,
      "start": 8.4176,
      "duration": 0.1039,
      "velocity": 102,
      "chip": "ym2612"
    },
    {
      "channel": 0,
      "note": 64,
      "start": 8.5169,
      "duration": 0.2847,
      "velocity": 117,
      "chip": "ym2612"
    },
    {
      "channel": 1,
      "note": 50,
      "start": 8.519,
      "duration": 0.1841,
      "velocity": 102,
      "chip": "ym2612"
    },
    {
      "channel": 3,
      "note": 83,
      "start": 8.5196,
      "duration": 0.1841,
      "velocity": 100,
      "chip": "ym2612"
    },
    {
      "channel": 4,
      "note": 62,
      "start": 8.5218,
      "duration": 0.1825,
      "velocity": 102,
      "chip": "ym2612"
    },
    {
      "channel": 1,
      "note": 38,
      "start": 8.7032,
      "duration": 0.2833,
      "velocity": 102,
      "chip": "ym2612"
    },
    {
      "channel": 3,
      "note": 81,
      "start": 8.7039,
      "duration": 0.77,
      "velocity": 100,
      "chip": "ym2612"
    },
    {
      "channel": 4,
      "note": 74,
      "start": 8.7045,
      "duration": 0.0978,
      "velocity": 102,
      "chip": "ym2612"
    },
    {
      "channel": 5,
      "note": 110,
      "start": 8.705,
      "duration": 0.3854,
      "velocity": 93,
      "chip": "ym2612"
    },
    {
      "channel": 0,
      "note": 64,
      "start": 8.8017,
      "duration": 0.2849,
      "velocity": 117,
      "chip": "ym2612"
    },
    {
      "channel": 4,
      "note": 71,
      "start": 8.8024,
      "duration": 0.0992,
      "velocity": 102,
      "chip": "ym2612"
    },
    {
      "channel": 4,
      "note": 69,
      "start": 8.9019,
      "duration": 0.0854,
      "velocity": 102,
      "chip": "ym2612"
    },
    {
      "channel": 1,
      "note": 50,
      "start": 8.9868,
      "duration": 0.1019,
      "velocity": 120,
      "chip": "ym2612"
    },
    {
      "channel": 4,
      "note": 74,
      "start": 8.9874,
      "duration": 0.1024,
      "velocity": 102,
      "chip": "ym2612"
    },
    {
      "channel": 0,
      "note": 59,
      "start": 9.0867,
      "duration": 0.0998,
      "velocity": 117,
      "chip": "ym2612"
    },
    {
      "channel": 1,
      "note": 62,
      "start": 9.0888,
      "duration": 0.1999,
      "velocity": 102,
      "chip": "ym2612"
    },
    {
      "channel": 2,
      "note": 81,
      "start": 9.0894,
      "duration": 0.0978,
      "velocity": 99,
      "chip": "ym2612"
    },
    {
      "channel": 4,
      "note": 71,
      "start": 9.09,
      "duration": 0.0978,
      "velocity": 102,
      "chip": "ym2612"
    },
    {
      "channel": 5,
      "note": 110,
      "start": 9.0906,
      "duration": 0.3844,
      "velocity": 93,
      "chip": "ym2612"
    },
    {
      "channel": 0,
      "note": 61,
      "start": 9.1867,
      "duration": 0.0998,
      "velocity": 117,
      "chip": "ym2612"
    },
    {
      "channel": 2,
      "note": 83,
      "start": 9.1873,
      "duration": 0.1019,
      "velocity": 99,
      "chip": "ym2612"
    },
    {
      "channel": 4,
      "note": 69,
      "start": 9.1879,
      "duration": 0.1035,
      "velocity": 102,
      "chip": "ym2612"
    },
    {
      "channel": 0,
      "note": 57,
      "start": 9.2867,
      "duration": 0.2845,
      "velocity": 117,
      "chip": "ym2612"
    },
    {
      "channel": 1,
      "note": 33,
      "start": 9.2889,
      "duration": 0.1839,
      "velocity": 120,
      "chip": "ym2612"
    },
    {
      "channel": 2,
      "note": 85,
      "start": 9.2894,
      "duration": 0.184,
      "velocity": 99,
      "chip": "ym2612"
    },
    {
      "channel": 4,
      "note": 57,
      "start": 9.2916,
      "duration": 0.1828,
      "velocity": 102,
      "chip": "ym2612"
    },
    {
      "channel": 1,
      "note": 50,
      "start": 9.4729,
      "duration": 0.0987,
      "velocity": 120,
      "chip": "ym2612"
    },
    {
      "channel": 2,
      "note": 81,
      "start": 9.4735,
      "duration": 0.1983,
      "velocity": 99,
      "chip": "ym2612"
    },
    {
      "channel": 3,
      "note": 81,
      "start": 9.474,
      "duration": 0.0983,
      "velocity": 100,
      "chip": "ym2612"
    },
    {
      "channel": 4,
      "note": 69,
      "start": 9.4746,
      "duration": 0.0983,
      "velocity": 102,
      "chip": "ym2612"
    },
    {
      "channel": 5,
      "note": 110,
      "start": 9.4752,
      "duration": 0.3841,
      "velocity": 93,
      "chip": "ym2612"
    },
    {
      "channel": 0,
      "note": 57,
      "start": 9.5713,
      "duration": 0.2837,
      "velocity": 117,
      "chip": "ym2612"
    },
    {
      "channel": 1,
      "note": 62,
      "start": 9.5719,
      "duration": 0.0994,
      "velocity": 120,
      "chip": "ym2612"
    },
    {
      "channel": 3,
      "note": 83,
      "start": 9.5725,
      "duration": 0.0998,
      "velocity": 100,
      "chip": "ym2612"
    },
    {
      "channel": 4,
      "note": 66,
      "start": 9.5731,
      "duration": 0.0998,
      "velocity": 102,
      "chip": "ym2612"
    },
    {
      "channel": 1,
      "note": 50,
      "start": 9.6714,
      "duration": 0.1857,
      "velocity": 102,
      "chip": "ym2612"
    },
    {
      "channel": 2,
      "note": 78,
      "start": 9.6719,
      "duration": 0.1857,
      "velocity": 99,
      "chip": "ym2612"
    },
    {
      "channel": 3,
      "note": 85,
      "start": 9.6725,
      "duration": 0.1856,
      "velocity": 100,
      "chip": "ym2612"
    },
    {
      "channel": 4,
      "note": 64,
      "start": 9.6731,
      "duration": 0.082,
      "velocity": 102,
      "chip": "ym2612"
    },
    {
      "channel": 4,
      "note": 69,
      "start": 9.7553,
      "duration": 0.1034,
      "velocity": 102,
      "chip": "ym2612"
    },
    {
      "channel": 0,
      "note": 52,
      "start": 9.8551,
      "duration": 0.0999,
      "velocity": 117,
      "chip": "ym2612"
    },
    {
      "channel": 1,
      "note": 45,
      "start": 9.8572,
      "duration": 0.1998,
      "velocity": 120,
      "chip": "ym2612"
    },
    {
      "channel": 2,
      "note": 76,
      "start": 9.8577,
      "duration": 0.9696,
      "velocity": 99,
      "chip": "ym2612"
    },
    {
      "channel": 3,
      "note": 81,
      "start": 9.8583,
      "duration": 0.1994,
      "velocity": 100,
      "chip": "ym2612"
    },
    {
      "channel": 4,
      "note": 66,
      "start": 9.8589,
      "duration": 0.0967,
      "velocity": 102,
      "chip": "ym2612"
    },
    {
      "channel": 5,
      "note": 110,
      "start": 9.8595,
      "duration": 0.3836,
      "velocity": 93,
      "chip": "ym2612"
    },
    {
      "channel": 0,
      "note": 54,
      "start": 9.9551,
      "duration": 0.0998,
      "velocity": 117,
      "chip": "ym2612"
    },
    {
      "channel": 4,
      "note": 64,
      "start": 9.9558,
      "duration": 0.1039,
      "velocity": 102,
      "chip": "ym2612"
    },
    {
      "channel": 0,
      "note": 57,
      "start": 10.0551,
      "duration": 0.2846,
      "velocity": 117,
      "chip": "ym2612"
    },
    {
      "channel": 1,
      "note": 62,
      "start": 10.0572,
      "duration": 0.1841,
      "velocity": 102,
      "chip": "ym2612"
    },
    {
      "channel": 3,
      "note": 78,
      "start": 10.0578,
      "duration": 0.1841,
      "velocity": 100,
      "chip": "ym2612"
    },
    {
      "channel": 4,
      "note": 57,
      "start": 10.06,
      "duration": 0.1825,
      "velocity": 102,
      "chip": "ym2612"
    },
    {
      "channel": 1,
      "note": 33,
      "start": 10.2414,
      "duration": 0.2833,
      "velocity": 102,
      "chip": "ym2612"
    },
    {
      "channel": 3,
      "note": 76,
      "start": 10.242,
      "duration": 0.9685,
      "velocity": 100,
      "chip": "ym2612"
    },
    {
      "channel": 4,
      "note": 69,
      "start": 10.2426,
      "duration": 0.0978,
      "velocity": 102,
      "chip": "ym2612"
    },
    {
      "channel": 5,
      "note": 110,
      "start": 10.2432,
      "duration": 0.3849,
      "velocity": 93,
      "chip": "ym2612"
    },
    {
      "channel": 0,
      "note": 57,
      "start": 10.3398,
      "duration": 0.2849,
      "velocity": 117,
      "chip": "ym2612"
    },
    {
      "channel": 4,
      "note": 66,
      "start": 10.3406,
      "duration": 0.0992,
      "velocity": 102,
      "chip": "ym2612"
    },
    {
      "channel": 4,
      "note": 64,
      "start": 10.44,
      "duration": 0.0854,
      "velocity": 102,
      "chip": "ym2612"
    },
    {
      "channel": 1,
      "note": 45,
      "start": 10.5249,
      "duration": 0.1018,
      "velocity": 120,
      "chip": "ym2612"
    },
    {
      "channel": 4,
      "note": 69,
      "start": 10.5256,
      "duration": 0.1018,
      "velocity": 102,
      "chip": "ym2612"
    },
    {
      "channel": 0,
      "note": 52,
      "start": 10.6249,
      "duration": 0.0998,
      "velocity": 117,
      "chip": "ym2612"
    },
    {
      "channel": 1,
      "note": 50,
      "start": 10.627,
      "duration": 0.1999,
      "velocity": 102,
      "chip": "ym2612"
    },
    {
      "channel": 4,
      "note": 66,
      "start": 10.6277,
      "duration": 0.0977,
      "velocity": 102,
      "chip": "ym2612"
    },
    {
      "channel": 5,
      "note": 110,
      "start": 10.6282,
      "duration": 0.385,
      "velocity": 93,
      "chip": "ym2612"
    },
    {
      "channel": 0,
      "note": 54,
      "start": 10.7249,
      "duration": 0.0998,
      "velocity": 117,
      "chip": "ym2612"
    },
    {
      "channel": 4,
      "note": 64,
      "start": 10.7256,
      "duration": 0.104,
      "velocity": 102,
      "chip": "ym2612"
    },
    {
      "channel": 0,
      "note": 57,
      "start": 10.8249,
      "duration": 0.285,
      "velocity": 117,
      "chip": "ym2612"
    },
    {
      "channel": 1,
      "note": 36,
      "start": 10.827,
      "duration": 0.1845,
      "velocity": 120,
      "chip": "ym2612"
    },
    {
      "channel": 2,
      "note": 79,
      "start": 10.8275,
      "duration": 0.0824,
      "velocity": 99,
      "chip": "ym2612"
    },
    {
      "channel": 4,
      "note": 60,
      "start": 10.8298,
      "duration": 0.1829,
      "velocity": 102,
      "chip": "ym2612"
    },
    {
      "channel": 2,
      "note": 78,
      "start": 10.9102,
      "duration": 0.1018,
      "velocity": 99,
      "chip": "ym2612"
    },
    {
      "channel": 1,
      "note": 62,
      "start": 11.0116,
      "duration": 0.0988,
      "velocity": 120,
      "chip": "ym2612"
    },
    {
      "channel": 2,
      "note": 76,
      "start": 11.0122,
      "duration": 0.3856,
      "velocity": 99,
      "chip": "ym2612"
    },
    {
      "channel": 4,
      "note": 72,
      "start": 11.0128,
      "duration": 0.0983,
      "velocity": 102,
      "chip": "ym2612"
    },
    {
      "channel": 5,
      "note": 110,
      "start": 11.0134,
      "duration": 0.3861,
      "velocity": 93,
      "chip": "ym2612"
    },
    {
      "channel": 0,
      "note": 57,
      "start": 11.11,
      "duration": 0.2851,
      "velocity": 117,
      "chip": "ym2612"
    },
    {
      "channel": 1,
      "note": 50,
      "start": 11.1106,
      "duration": 0.0993,
      "velocity": 120,
      "chip": "ym2612"
    },
    {
      "channel": 4,
      "note": 69,
      "start": 11.1112,
      "duration": 0.0999,
      "velocity": 102,
      "chip": "ym2612"
    },
    {
      "channel": 1,
      "note": 62,
      "start": 11.2101,
      "duration": 0.1871,
      "velocity": 102,
      "chip": "ym2612"
    },
    {
      "channel": 3,
      "note": 79,
      "start": 11.2107,
      "duration": 0.0845,
      "velocity": 100,
      "chip": "ym2612"
    },
    {
      "channel": 4,
      "note": 67,
      "start": 11.2113,
      "duration": 0.0845,
      "velocity": 102,
      "chip": "ym2612"
    },
    {
      "channel": 3,
      "note": 78,
      "start": 11.2955,
      "duration": 0.1029,
      "velocity": 100,
      "chip": "ym2612"
    },
    {
      "channel": 4,
      "note": 72,
      "start": 11.296,
      "duration": 0.103,
      "velocity": 102,
      "chip": "ym2612"
    },
    {
      "channel": 0,
      "note": 52,
      "start": 11.3953,
      "duration": 0.0998,
      "velocity": 117,
      "chip": "ym2612"
    },
    {
      "channel": 1,
      "note": 48,
      "start": 11.3974,
      "duration": 0.1997,
      "velocity": 120,
      "chip": "ym2612"
    },
    {
      "channel": 2,
      "note": 78,
      "start": 11.398,
      "duration": 0.3832,
      "velocity": 99,
      "chip": "ym2612"
    },
    {
      "channel": 3,
      "note": 76,
      "start": 11.3986,
      "duration": 0.3832,
      "velocity": 100,
      "chip": "ym2612"
    },
    {
      "channel": 4,
      "note": 69,
      "start": 11.3991,
      "duration": 0.0967,
      "velocity": 102,
      "chip": "ym2612"
    },
    {
      "channel": 5,
      "note": 110,
      "start": 11.3997,
      "duration": 0.3832,
      "velocity": 93,
      "chip": "ym2612"
    },
    {
      "channel": 0,
      "note": 54,
      "start": 11.4953,
      "duration": 0.0998,
      "velocity": 117,
      "chip": "ym2612"
    },
    {
      "channel": 4,
      "note": 67,
      "start": 11.496,
      "duration": 0.1034,
      "velocity": 102,
      "chip": "ym2612"
    },
    {
      "channel": 0,
      "note": 57,
      "start": 11.5952,
      "duration": 0.2839,
      "velocity": 117,
      "chip": "ym2612"
    },
    {
      "channel": 1,
      "note": 50,
      "start": 11.5974,
      "duration": 0.1833,
      "velocity": 102,
      "chip": "ym2612"
    },
    {
      "channel": 4,
      "note": 60,
      "start": 11.5997,
      "duration": 0.1827,
      "velocity": 102,
      "chip": "ym2612"
    },
    {
      "channel": 1,
      "note": 36,
      "start": 11.7808,
      "duration": 0.2833,
      "velocity": 102,
      "chip": "ym2612"
    },
    {
      "channel": 2,
      "note": 74,
      "start": 11.7814,
      "duration": 0.3854,
      "velocity": 99,
      "chip": "ym2612"
    },
    {
      "channel": 3,
      "note": 78,
      "start": 11.7819,
      "duration": 0.3854,
      "velocity": 100,
      "chip": "ym2612"
    },
    {
      "channel": 4,
      "note": 72,
      "start": 11.7825,
      "duration": 0.0973,
      "velocity": 102,
      "chip": "ym2612"
    },
    {
      "channel": 5,
      "note": 110,
      "start": 11.7831,
      "duration": 0.3854,
      "velocity": 93,
      "chip": "ym2612"
    },
    {
      "channel": 0,
      "note": 57,
      "start": 11.8793,
      "duration": 0.2849,
      "velocity": 117,
      "chip": "ym2612"
    },
    {
      "channel": 4,
      "note": 69,
      "start": 11.88,
      "duration": 0.0992,
      "velocity": 102,
      "chip": "ym2612"
    },
    {
      "channel": 4,
      "note": 67,
      "start": 11.9794,
      "duration": 0.0854,
      "velocity": 102,
      "chip": "ym2612"
    },
    {
      "channel": 1,
      "note": 48,
      "start": 12.0643,
      "duration": 0.1019,
      "velocity": 120,
      "chip": "ym2612"
    },
    {
      "channel": 4,
      "note": 72,
      "start": 12.065,
      "duration": 0.1029,
      "velocity": 102,
      "chip": "ym2612"
    },
    {
      "channel": 0,
      "note": 52,
      "start": 12.1642,
      "duration": 0.0999,
      "velocity": 117,
      "chip": "ym2612"
    },
    {
      "channel": 1,
      "note": 62,
      "start": 12.1664,
      "duration": 0.0983,
      "velocity": 120,
      "chip": "ym2612"
    },
    {
      "channel": 2,
      "note": 76,
      "start": 12.167,
      "duration": 1.5371,
      "velocity": 99,
      "chip": "ym2612"
    },
    {
      "channel": 3,
      "note": 74,
      "start": 12.1675,
      "duration": 0.1994,
      "velocity": 100,
      "chip": "ym2612"
    },
    {
      "channel": 4,
      "note": 69,
      "start": 12.168,
      "duration": 0.0973,
      "velocity": 102,
      "chip": "ym2612"
    },
    {
      "channel": 5,
      "note": 110,
      "start": 12.1686,
      "duration": 0.3834,
      "velocity": 93,
      "chip": "ym2612"
    },
    {
      "channel": 0,
      "note": 54,
      "start": 12.2643,
      "duration": 0.0999,
      "velocity": 117,
      "chip": "ym2612"
    },
    {
      "channel": 1,
      "note": 50,
      "start": 12.2649,
      "duration": 0.1014,
      "velocity": 102,
      "chip": "ym2612"
    },
    {
      "channel": 4,
      "note": 67,
      "start": 12.2655,
      "duration": 0.1036,
      "velocity": 102,
      "chip": "ym2612"
    },
    {
      "channel": 0,
      "note": 64,
      "start": 12.3643,
      "duration": 0.2848,
      "velocity": 117,
      "chip": "ym2612"
    },
    {
      "channel": 1,
      "note": 40,
      "start": 12.3664,
      "duration": 0.1842,
      "velocity": 120,
      "chip": "ym2612"
    },
    {
      "channel": 3,
      "note": 76,
      "start": 12.3671,
      "duration": 1.7217,
      "velocity": 100,
      "chip": "ym2612"
    },
    {
      "channel": 4,
      "note": 64,
      "start": 12.3693,
      "duration": 0.1821,
      "velocity": 102,
      "chip": "ym2612"
    },
    {
      "channel": 1,
      "note": 50,
      "start": 12.5508,
      "duration": 0.0988,
      "velocity": 120,
      "chip": "ym2612"
    },
    {
      "channel": 4,
      "note": 76,
      "start": 12.5515,
      "duration": 0.0988,
      "velocity": 102,
      "chip": "ym2612"
    },
    {
      "channel": 5,
      "note": 110,
      "start": 12.5521,
      "duration": 0.3852,
      "velocity": 93,
      "chip": "ym2612"
    },
    {
      "channel": 0,
      "note": 64,
      "start": 12.6492,
      "duration": 0.2847,
      "velocity": 117,
      "chip": "ym2612"
    },
    {
      "channel": 1,
      "note": 62,
      "start": 12.6498,
      "duration": 0.0994,
      "velocity": 120,
      "chip": "ym2612"
    },
    {
      "channel": 4,
      "note": 73,
      "start": 12.6505,
      "duration": 0.0993,
      "velocity": 102,
      "chip": "ym2612"
    },
    {
      "channel": 1,
      "note": 50,
      "start": 12.7492,
      "duration": 0.1868,
      "velocity": 102,
      "chip": "ym2612"
    },
    {
      "channel": 4,
      "note": 71,
      "start": 12.7499,
      "duration": 0.0842,
      "velocity": 102,
      "chip": "ym2612"
    },
    {
      "channel": 4,
      "note": 76,
      "start": 12.8343,
      "duration": 0.1024,
      "velocity": 102,
      "chip": "ym2612"
    },
    {
      "channel": 0,
      "note": 59,
      "start": 12.9341,
      "duration": 0.0999,
      "velocity": 117,
      "chip": "ym2612"
    },
    {
      "channel": 1,
      "note": 52,
      "start": 12.9362,
      "duration": 0.1998,
      "velocity": 120,
      "chip": "ym2612"
    },
    {
      "channel": 4,
      "note": 73,
      "start": 12.9369,
      "duration": 0.0977,
      "velocity": 102,
      "chip": "ym2612"
    },
    {
      "channel": 5,
      "note": 110,
      "start": 12.9375,
      "duration": 0.3832,
      "velocity": 93,
      "chip": "ym2612"
    },
    {
      "channel": 0,
      "note": 61,
      "start": 13.0341,
      "duration": 0.0999,
      "velocity": 117,
      "chip": "ym2612"
    },
    {
      "channel": 4,
      "note": 71,
      "start": 13.0348,
      "duration": 0.1035,
      "velocity": 102,
      "chip": "ym2612"
    },
    {
      "channel": 0,
      "note": 64,
      "start": 13.1341,
      "duration": 0.2838,
      "velocity": 117,
      "chip": "ym2612"
    },
    {
      "channel": 1,
      "note": 62,
      "start": 13.1362,
      "duration": 0.1832,
      "velocity": 102,
      "chip": "ym2612"
    },
    {
      "channel": 4,
      "note": 64,
      "start": 13.1385,
      "duration": 0.1816,
      "velocity": 102,
      "chip": "ym2612"
    },
    {
      "channel": 1,
      "note": 40,
      "start": 13.3196,
      "duration": 0.2819,
      "velocity": 102,
      "chip": "ym2612"
    },
    {
      "channel": 4,
      "note": 76,
      "start": 13.3203,
      "duration": 0.0983,
      "velocity": 102,
      "chip": "ym2612"
    },
    {
      "channel": 5,
      "note": 110,
      "start": 13.3209,
      "duration": 0.3845,
      "velocity": 93,
      "chip": "ym2612"
    },
    {
      "channel": 0,
      "note": 64,
      "start": 13.418,
      "duration": 0.2834,
      "velocity": 117,
      "chip": "ym2612"
    },
    {
      "channel": 4,
      "note": 73,
      "start": 13.4188,
      "duration": 0.0993,
      "velocity": 102,
      "chip": "ym2612"
    },
    {
      "channel": 4,
      "note": 71,
      "start": 13.5183,
      "duration": 0.0839,
      "velocity": 102,
      "chip": "ym2612"
    },
    {
      "channel": 1,
      "note": 52,
      "start": 13.6016,
      "duration": 0.1019,
      "velocity": 120,
      "chip": "ym2612"
    },
    {
      "channel": 4,
      "note": 76,
      "start": 13.6023,
      "duration": 0.1025,
      "velocity": 102,
      "chip": "ym2612"
    },
    {
      "channel": 0,
      "note": 59,
      "start": 13.7016,
      "duration": 0.0998,
      "velocity": 117,
      "chip": "ym2612"
    },
    {
      "channel": 1,
      "note": 50,
      "start": 13.7037,
      "duration": 0.1999,
      "velocity": 102,
      "chip": "ym2612"
    },
    {
      "channel": 2,
      "note": 76,
      "start": 13.7043,
      "duration": 0.0977,
      "velocity": 99,
      "chip": "ym2612"
    },
    {
      "channel": 4,
      "note": 73,
      "start": 13.7049,
      "duration": 0.0977,
      "velocity": 102,
      "chip": "ym2612"
    },
    {
      "channel": 5,
      "note": 110,
      "start": 13.7055,
      "duration": 0.3844,
      "velocity": 93,
      "chip": "ym2612"
    },
    {
      "channel": 0,
      "note": 61,
      "start": 13.8016,
      "duration": 0.0999,
      "velocity": 117,
      "chip": "ym2612"
    },
    {
      "channel": 2,
      "note": 78,
      "start": 13.8022,
      "duration": 0.1019,
      "velocity": 99,
      "chip": "ym2612"
    },
    {
      "channel": 4,
      "note": 71,
      "start": 13.8028,
      "duration": 0.1035,
      "velocity": 102,
      "chip": "ym2612"
    },
    {
      "channel": 0,
      "note": 64,
      "start": 13.9016,
      "duration": 0.2845,
      "velocity": 117,
      "chip": "ym2612"
    },
    {
      "channel": 1,
      "note": 38,
      "start": 13.9037,
      "duration": 0.1839,
      "velocity": 120,
      "chip": "ym2612"
    },
    {
      "channel": 2,
      "note": 80,
      "start": 13.9042,
      "duration": 0.184,
      "velocity": 99,
      "chip": "ym2612"
    },
    {
      "channel": 4,
      "note": 62,
      "start": 13.9065,
      "duration": 0.1829,
      "velocity": 102,
      "chip": "ym2612"
    },
    {
      "channel": 1,
      "note": 62,
      "start": 14.0878,
      "duration": 0.0988,
      "velocity": 120,
      "chip": "ym2612"
    },
    {
      "channel": 2,
      "note": 81,
      "start": 14.0884,
      "duration": 0.1983,
      "velocity": 99,
      "chip": "ym2612"
    },
    {
      "channel": 3,
      "note": 76,
      "start": 14.089,
      "duration": 0.0982,
      "velocity": 100,
      "chip": "ym2612"
    },
    {
      "channel": 4,
      "note": 74,
      "start": 14.0896,
      "duration": 0.0982,
      "velocity": 102,
      "chip": "ym2612"
    },
    {
      "channel": 5,
      "note": 110,
      "start": 14.0901,
      "duration": 0.384,
      "velocity": 93,
      "chip": "ym2612"
    },
    {
      "channel": 0,
      "note": 64,
      "start": 14.1863,
      "duration": 0.2836,
      "velocity": 117,
      "chip": "ym2612"
    },
    {
      "channel": 1,
      "note": 50,
      "start": 14.1868,
      "duration": 0.0994,
      "velocity": 120,
      "chip": "ym2612"
    },
    {
      "channel": 3,
      "note": 78,
      "start": 14.1874,
      "duration": 0.0998,
      "velocity": 100,
      "chip": "ym2612"
    },
    {
      "channel": 4,
      "note": 71,
      "start": 14.188,
      "duration": 0.0998,
      "velocity": 102,
      "chip": "ym2612"
    },
    {
      "channel": 1,
      "note": 62,
      "start": 14.2863,
      "duration": 0.1857,
      "velocity": 102,
      "chip": "ym2612"
    },
    {
      "channel": 2,
      "note": 80,
      "start": 14.2868,
      "duration": 0.1857,
      "velocity": 99,
      "chip": "ym2612"
    },
    {
      "channel": 3,
      "note": 80,
      "start": 14.2874,
      "duration": 0.1856,
      "velocity": 100,
      "chip": "ym2612"
    },
    {
      "channel": 4,
      "note": 69,
      "start": 14.288,
      "duration": 0.082,
      "velocity": 102,
      "chip": "ym2612"
    },
    {
      "channel": 4,
      "note": 74,
      "start": 14.3702,
      "duration": 0.1034,
      "velocity": 102,
      "chip": "ym2612"
    },
    {
      "channel": 0,
      "note": 59,
      "start": 14.47,
      "duration": 0.0999,
      "velocity": 117,
      "chip": "ym2612"
    },
    {
      "channel": 1,
      "note": 50,
      "start": 14.4721,
      "duration": 0.1998,
      "velocity": 120,
      "chip": "ym2612"
    },
    {
      "channel": 2,
      "note": 76,
      "start": 14.4726,
      "duration": 0.3841,
      "velocity": 99,
      "chip": "ym2612"
    },
    {
      "channel": 3,
      "note": 81,
      "start": 14.4732,
      "duration": 0.1994,
      "velocity": 100,
      "chip": "ym2612"
    },
    {
      "channel": 4,
      "note": 71,
      "start": 14.4738,
      "duration": 0.0967,
      "velocity": 102,
      "chip": "ym2612"
    },
    {
      "channel": 5,
      "note": 110,
      "start": 14.4744,
      "duration": 0.3841,
      "velocity": 93,
      "chip": "ym2612"
    },
    {
      "channel": 0,
      "note": 61,
      "start": 14.57,
      "duration": 0.0998,
      "velocity": 117,
      "chip": "ym2612"
    },
    {
      "channel": 4,
      "note": 69,
      "start": 14.5707,
      "duration": 0.1039,
      "velocity": 102,
      "chip": "ym2612"
    },
    {
      "channel": 0,
      "note": 64,
      "start": 14.67,
      "duration": 0.2846,
      "velocity": 117,
      "chip": "ym2612"
    },
    {
      "channel": 1,
      "note": 50,
      "start": 14.6721,
      "duration": 0.1841,
      "velocity": 102,
      "chip": "ym2612"
    },
    {
      "channel": 3,
      "note": 80,
      "start": 14.6727,
      "duration": 0.1846,
      "velocity": 100,
      "chip": "ym2612"
    },
    {
      "channel": 4,
      "note": 62,
      "start": 14.6749,
      "duration": 0.183,
      "velocity": 102,
      "chip": "ym2612"
    },
    {
      "channel": 1,
      "note": 38,
      "start": 14.8564,
      "duration": 0.2831,
      "velocity": 102,
      "chip": "ym2612"
    },
    {
      "channel": 2,
      "note": 73,
      "start": 14.8569,
      "duration": 0.1978,
      "velocity": 99,
      "chip": "ym2612"
    },
    {
      "channel": 3,
      "note": 76,
      "start": 14.8575,
      "duration": 0.3847,
      "velocity": 100,
      "chip": "ym2612"
    },
    {
      "channel": 4,
      "note": 74,
      "start": 14.858,
      "duration": 0.0973,
      "velocity": 102,
      "chip": "ym2612"
    },
    {
      "channel": 5,
      "note": 110,
      "start": 14.8586,
      "duration": 0.3846,
      "velocity": 93,
      "chip": "ym2612"
    },
    {
      "channel": 0,
      "note": 64,
      "start": 14.9548,
      "duration": 0.2846,
      "velocity": 117,
      "chip": "ym2612"
    },
    {
      "channel": 4,
      "note": 71,
      "start": 14.9555,
      "duration": 0.0998,
      "velocity": 102,
      "chip": "ym2612"
    },
    {
      "channel": 2,
      "note": 71,
      "start": 15.0548,
      "duration": 0.3873,
      "velocity": 99,
      "chip": "ym2612"
    },
    {
      "channel": 4,
      "note": 69,
      "start": 15.0554,
      "duration": 0.0847,
      "velocity": 102,
      "chip": "ym2612"
    },
    {
      "channel": 1,
      "note": 50,
      "start": 15.1396,
      "duration": 0.1019,
      "velocity": 120,
      "chip": "ym2612"
    },
    {
      "channel": 4,
      "note": 74,
      "start": 15.1403,
      "duration": 0.1024,
      "velocity": 102,
      "chip": "ym2612"
    },
    {
      "channel": 0,
      "note": 59,
      "start": 15.2395,
      "duration": 0.0998,
      "velocity": 117,
      "chip": "ym2612"
    },
    {
      "channel": 1,
      "note": 62,
      "start": 15.2417,
      "duration": 0.1998,
      "velocity": 102,
      "chip": "ym2612"
    },
    {
      "channel": 3,
      "note": 73,
      "start": 15.2423,
      "duration": 0.2004,
      "velocity": 100,
      "chip": "ym2612"
    },
    {
      "channel": 4,
      "note": 71,
      "start": 15.2429,
      "duration": 0.0973,
      "velocity": 102,
      "chip": "ym2612"
    },
    {
      "channel": 5,
      "note": 110,
      "start": 15.2434,
      "duration": 0.3845,
      "velocity": 93,
      "chip": "ym2612"
    },
    {
      "channel": 0,
      "note": 61,
      "start": 15.3395,
      "duration": 0.0999,
      "velocity": 117,
      "chip": "ym2612"
    },
    {
      "channel": 4,
      "note": 69,
      "start": 15.3403,
      "duration": 0.1044,
      "velocity": 102,
      "chip": "ym2612"
    },
    {
      "channel": 0,
      "note": 57,
      "start": 15.4395,
      "duration": 0.285,
      "velocity": 117,
      "chip": "ym2612"
    },
    {
      "channel": 1,
      "note": 33,
      "start": 15.4417,
      "duration": 0.1845,
      "velocity": 120,
      "chip": "ym2612"
    },
    {
      "channel": 2,
      "note": 69,
      "start": 15.4423,
      "duration": 0.0824,
      "velocity": 99,
      "chip": "ym2612"
    },
    {
      "channel": 3,
      "note": 71,
      "start": 15.4429,
      "duration": 0.3824,
      "velocity": 100,
      "chip": "ym2612"
    },
    {
      "channel": 4,
      "note": 57,
      "start": 15.445,
      "duration": 0.1824,
      "velocity": 102,
      "chip": "ym2612"
    },
    {
      "channel": 2,
      "note": 73,
      "start": 15.5249,
      "duration": 0.1018,
      "velocity": 99,
      "chip": "ym2612"
    },
    {
      "channel": 1,
      "note": 50,
      "start": 15.6263,
      "duration": 0.0988,
      "velocity": 120,
      "chip": "ym2612"
    },
    {
      "channel": 2,
      "note": 76,
      "start": 15.6269,
      "duration": 0.0988,
      "velocity": 99,
      "chip": "ym2612"
    },
    {
      "channel": 4,
      "note": 69,
      "start": 15.6276,
      "duration": 0.0987,
      "velocity": 102,
      "chip": "ym2612"
    },
    {
      "channel": 5,
      "note": 110,
      "start": 15.6281,
      "duration": 0.3848,
      "velocity": 93,
      "chip": "ym2612"
    },
    {
      "channel": 0,
      "note": 57,
      "start": 15.7247,
      "duration": 0.2843,
      "velocity": 117,
      "chip": "ym2612"
    },
    {
      "channel": 1,
      "note": 62,
      "start": 15.7253,
      "duration": 0.0994,
      "velocity": 120,
      "chip": "ym2612"
    },
    {
      "channel": 2,
      "note": 81,
      "start": 15.7258,
      "duration": 1.2559,
      "velocity": 99,
      "chip": "ym2612"
    },
    {
      "channel": 4,
      "note": 66,
      "start": 15.7265,
      "duration": 0.0994,
      "velocity": 102,
      "chip": "ym2612"
    },
    {
      "channel": 1,
      "note": 50,
      "start": 15.8248,
      "duration": 0.1864,
      "velocity": 102,
      "chip": "ym2612"
    },
    {
      "channel": 3,
      "note": 69,
      "start": 15.8254,
      "duration": 0.0838,
      "velocity": 100,
      "chip": "ym2612"
    },
    {
      "channel": 4,
      "note": 64,
      "start": 15.826,
      "duration": 0.0838,
      "velocity": 102,
      "chip": "ym2612"
    },
    {
      "channel": 3,
      "note": 73,
      "start": 15.9094,
      "duration": 0.1025,
      "velocity": 100,
      "chip": "ym2612"
    },
    {
      "channel": 4,
      "note": 69,
      "start": 15.91,
      "duration": 0.1024,
      "velocity": 102,
      "chip": "ym2612"
    },
    {
      "channel": 0,
      "note": 52,
      "start": 16.0093,
      "duration": 0.0998,
      "velocity": 117,
      "chip": "ym2612"
    },
    {
      "channel": 1,
      "note": 45,
      "start": 16.0114,
      "duration": 0.1998,
      "velocity": 120,
      "chip": "ym2612"
    },
    {
      "channel": 3,
      "note": 76,
      "start": 16.012,
      "duration": 0.0978,
      "velocity": 100,
      "chip": "ym2612"
    },
    {
      "channel": 4,
      "note": 66,
      "start": 16.0126,
      "duration": 0.0978,
      "velocity": 102,
      "chip": "ym2612"
    },
    {
      "channel": 5,
      "note": 110,
      "start": 16.0131,
      "duration": 0.3837,
      "velocity": 93,
      "chip": "ym2612"
    },
    {
      "channel": 0,
      "note": 54,
      "start": 16.1093,
      "duration": 0.0998,
      "velocity": 117,
      "chip": "ym2612"
    },
    {
      "channel": 3,
      "note": 81,
      "start": 16.11,
      "duration": 1.0559,
      "velocity": 100,
      "chip": "ym2612"
    },
    {
      "channel": 4,
      "note": 64,
      "start": 16.1105,
      "duration": 0.103,
      "velocity": 102,
      "chip": "ym2612"
    },
    {
      "channel": 0,
      "note": 57,
      "start": 16.2093,
      "duration": 0.2847,
      "velocity": 117,
      "chip": "ym2612"
    },
    {
      "channel": 1,
      "note": 62,
      "start": 16.2114,
      "duration": 0.1841,
      "velocity": 102,
      "chip": "ym2612"
    },
    {
      "channel": 4,
      "note": 57,
      "start": 16.2137,
      "duration": 0.1826,
      "velocity": 102,
      "chip": "ym2612"
    },
    {
      "channel": 1,
      "note": 33,
      "start": 16.3957,
      "duration": 0.2834,
      "velocity": 102,
      "chip": "ym2612"
    },
    {
      "channel": 4,
      "note": 69,
      "start": 16.3963,
      "duration": 0.0983,
      "velocity": 102,
      "chip": "ym2612"
    },
    {
      "channel": 5,
      "note": 110,
      "start": 16.3969,
      "duration": 0.3855,
      "velocity": 93,
      "chip": "ym2612"
    },
    {
      "channel": 0,
      "note": 57,
      "start": 16.4941,
      "duration": 0.2849,
      "velocity": 117,
      "chip": "ym2612"
    },
    {
      "channel": 4,
      "note": 66,
      "start": 16.4948,
      "duration": 0.0993,
      "velocity": 102,
      "chip": "ym2612"
    },
    {
      "channel": 4,
      "note": 64,
      "start": 16.5943,
      "duration": 0.0855,
      "velocity": 102,
      "chip": "ym2612"
    },
    {
      "channel": 1,
      "note": 45,
      "start": 16.6793,
      "duration": 0.1018,
      "velocity": 120,
      "chip": "ym2612"
    },
    {
      "channel": 4,
      "note": 69,
      "start": 16.6799,
      "duration": 0.1019,
      "velocity": 102,
      "chip": "ym2612"
    },
    {
      "channel": 0,
      "note": 52,
      "start": 16.7791,
      "duration": 0.0999,
      "velocity": 117,
      "chip": "ym2612"
    },
    {
      "channel": 1,
      "note": 50,
      "start": 16.7813,
      "duration": 0.1999,
      "velocity": 102,
      "chip": "ym2612"
    },
    {
      "channel": 4,
      "note": 66,
      "start": 16.782,
      "duration": 0.0977,
      "velocity": 102,
      "chip": "ym2612"
    },
    {
      "channel": 5,
      "note": 110,
      "start": 16.7826,
      "duration": 0.3844,
      "velocity": 93,
      "chip": "ym2612"
    },
    {
      "channel": 0,
      "note": 54,
      "start": 16.8792,
      "duration": 0.0998,
      "velocity": 117,
      "chip": "ym2612"
    },
    {
      "channel": 4,
      "note": 64,
      "start": 16.8799,
      "duration": 0.104,
      "velocity": 102,
      "chip": "ym2612"
    },
    {
      "channel": 0,
      "note": 57,
      "start": 16.9792,
      "duration": 0.2845,
      "velocity": 117,
      "chip": "ym2612"
    },
    {
      "channel": 1,
      "note": 36,
      "start": 16.9814,
      "duration": 0.1839,
      "velocity": 120,
      "chip": "ym2612"
    },
    {
      "channel": 2,
      "note": 84,
      "start": 16.9819,
      "duration": 0.2829,
      "velocity": 99,
      "chip": "ym2612"
    },
    {
      "channel": 4,
      "note": 60,
      "start": 16.9841,
      "duration": 0.1823,
      "velocity": 102,
      "chip": "ym2612"
    },
    {
      "channel": 1,
      "note": 62,
      "start": 17.1654,
      "duration": 0.0989,
      "velocity": 120,
      "chip": "ym2612"
    },
    {
      "channel": 3,
      "note": 84,
      "start": 17.166,
      "duration": 0.282,
      "velocity": 100,
      "chip": "ym2612"
    },
    {
      "channel": 4,
      "note": 72,
      "start": 17.1666,
      "duration": 0.0988,
      "velocity": 102,
      "chip": "ym2612"
    },
    {
      "channel": 5,
      "note": 110,
      "start": 17.1672,
      "duration": 0.3846,
      "velocity": 93,
      "chip": "ym2612"
    },
    {
      "channel": 0,
      "note": 57,
      "start": 17.2639,
      "duration": 0.284,
      "velocity": 117,
      "chip": "ym2612"
    },
    {
      "channel": 1,
      "note": 50,
      "start": 17.2644,
      "duration": 0.0993,
      "velocity": 120,
      "chip": "ym2612"
    },
    {
      "channel": 2,
      "note": 83,
      "start": 17.265,
      "duration": 0.2856,
      "velocity": 99,
      "chip": "ym2612"
    },
    {
      "channel": 4,
      "note": 69,
      "start": 17.2656,
      "duration": 0.0988,
      "velocity": 102,
      "chip": "ym2612"
    },
    {
      "channel": 1,
      "note": 62,
      "start": 17.3639,
      "duration": 0.1861,
      "velocity": 102,
      "chip": "ym2612"
    },
    {
      "channel": 4,
      "note": 67,
      "start": 17.3646,
      "duration": 0.084,
      "velocity": 102,
      "chip": "ym2612"
    },
    {
      "channel": 3,
      "note": 83,
      "start": 17.4482,
      "duration": 0.3023,
      "velocity": 100,
      "chip": "ym2612"
    },
    {
      "channel": 4,
      "note": 72,
      "start": 17.4487,
      "duration": 0.1025,
      "velocity": 102,
      "chip": "ym2612"
    },
    {
      "channel": 0,
      "note": 52,
      "start": 17.548,
      "duration": 0.0998,
      "velocity": 117,
      "chip": "ym2612"
    },
    {
      "channel": 1,
      "note": 48,
      "start": 17.5502,
      "duration": 0.1998,
      "velocity": 120,
      "chip": "ym2612"
    },
    {
      "channel": 2,
      "note": 81,
      "start": 17.5507,
      "duration": 0.2824,
      "velocity": 99,
      "chip": "ym2612"
    },
    {
      "channel": 4,
      "note": 69,
      "start": 17.5513,
      "duration": 0.0973,
      "velocity": 102,
      "chip": "ym2612"
    },
    {
      "channel": 5,
      "note": 110,
      "start": 17.5519,
      "duration": 0.384,
      "velocity": 93,
      "chip": "ym2612"
    },
    {
      "channel": 0,
      "note": 54,
      "start": 17.648,
      "duration": 0.0998,
      "velocity": 117,
      "chip": "ym2612"
    },
    {
      "channel": 4,
      "note": 67,
      "start": 17.6488,
      "duration": 0.1039,
      "velocity": 102,
      "chip": "ym2612"
    },
    {
      "channel": 0,
      "note": 57,
      "start": 17.748,
      "duration": 0.285,
      "velocity": 117,
      "chip": "ym2612"
    },
    {
      "channel": 1,
      "note": 50,
      "start": 17.7501,
      "duration": 0.1845,
      "velocity": 102,
      "chip": "ym2612"
    },
    {
      "channel": 3,
      "note": 81,
      "start": 17.7507,
      "duration": 0.2829,
      "velocity": 100,
      "chip": "ym2612"
    },
    {
      "channel": 4,
      "note": 60,
      "start": 17.7529,
      "duration": 0.1824,
      "velocity": 102,
      "chip": "ym2612"
    },
    {
      "channel": 2,
      "note": 79,
      "start": 17.8334,
      "duration": 0.2997,
      "velocity": 99,
      "chip": "ym2612"
    },
    {
      "channel": 1,
      "note": 36,
      "start": 17.9348,
      "duration": 0.283,
      "velocity": 102,
      "chip": "ym2612"
    },
    {
      "channel": 4,
      "note": 72,
      "start": 17.9355,
      "duration": 0.0988,
      "velocity": 102,
      "chip": "ym2612"
    },
    {
      "channel": 5,
      "note": 110,
      "start": 17.936,
      "duration": 0.3861,
      "velocity": 93,
      "chip": "ym2612"
    },
    {
      "channel": 0,
      "note": 57,
      "start": 18.0332,
      "duration": 0.2846,
      "velocity": 117,
      "chip": "ym2612"
    },
    {
      "channel": 3,
      "note": 79,
      "start": 18.0339,
      "duration": 0.2871,
      "velocity": 100,
      "chip": "ym2612"
    },
    {
      "channel": 4,
      "note": 69,
      "start": 18.0344,
      "duration": 0.0993,
      "velocity": 102,
      "chip": "ym2612"
    },
    {
      "channel": 2,
      "note": 76,
      "start": 18.1333,
      "duration": 0.1871,
      "velocity": 99,
      "chip": "ym2612"
    },
    {
      "channel": 4,
      "note": 67,
      "start": 18.1339,
      "duration": 0.0845,
      "velocity": 102,
      "chip": "ym2612"
    },
    {
      "channel": 1,
      "note": 48,
      "start": 18.2179,
      "duration": 0.1019,
      "velocity": 120,
      "chip": "ym2612"
    },
    {
      "channel": 4,
      "note": 72,
      "start": 18.2186,
      "duration": 0.1029,
      "velocity": 102,
      "chip": "ym2612"
    },
    {
      "channel": 0,
      "note": 52,
      "start": 18.3179,
      "duration": 0.0998,
      "velocity": 117,
      "chip": "ym2612"
    },
    {
      "channel": 1,
      "note": 62,
      "start": 18.32,
      "duration": 0.0983,
      "velocity": 120,
      "chip": "ym2612"
    },
    {
      "channel": 2,
      "note": 74,
      "start": 18.3206,
      "duration": 0.1999,
      "velocity": 99,
      "chip": "ym2612"
    },
    {
      "channel": 3,
      "note": 76,
      "start": 18.3212,
      "duration": 0.2,
      "velocity": 100,
      "chip": "ym2612"
    },
    {
      "channel": 4,
      "note": 69,
      "start": 18.3217,
      "duration": 0.0973,
      "velocity": 102,
      "chip": "ym2612"
    },
    {
      "channel": 5,
      "note": 110,
      "start": 18.3223,
      "duration": 0.3852,
      "velocity": 93,
      "chip": "ym2612"
    },
    {
      "channel": 0,
      "note": 54,
      "start": 18.4179,
      "duration": 0.0999,
      "velocity": 117,
      "chip": "ym2612"
    },
    {
      "channel": 1,
      "note": 50,
      "start": 18.4185,
      "duration": 0.1014,
      "velocity": 102,
      "chip": "ym2612"
    },
    {
      "channel": 4,
      "note": 67,
      "start": 18.4191,
      "duration": 0.1041,
      "velocity": 102,
      "chip": "ym2612"
    },
    {
      "channel": 0,
      "note": 64,
      "start": 18.518,
      "duration": 0.2861,
      "velocity": 117,
      "chip": "ym2612"
    },
    {
      "channel": 1,
      "note": 40,
      "start": 18.5201,
      "duration": 0.1856,
      "velocity": 120,
      "chip": "ym2612"
    },
    {
      "channel": 2,
      "note": 76,
      "start": 18.5207,
      "duration": 2.9638,
      "velocity": 100,
      "chip": "ym2612"
    },
    {
      "channel": 3,
      "note": 74,
      "start": 18.5213,
      "duration": 0.185,
      "velocity": 100,
      "chip": "ym2612"
    },
    {
      "channel": 4,
      "note": 64,
      "start": 18.5235,
      "duration": 0.1834,
      "velocity": 102,
      "chip": "ym2612"
    },
    {
      "channel": 1,
      "note": 50,
      "start": 18.7058,
      "duration": 0.0988,
      "velocity": 120,
      "chip": "ym2612"
    },
    {
      "channel": 3,
      "note": 76,
      "start": 18.7065,
      "duration": 2.7801,
      "velocity": 99,
      "chip": "ym2612"
    },
    {
      "channel": 4,
      "note": 76,
      "start": 18.7071,
      "duration": 0.0983,
      "velocity": 102,
      "chip": "ym2612"
    },
    {
      "channel": 5,
      "note": 110,
      "start": 18.7077,
      "duration": 0.368,
      "velocity": 93,
      "chip": "ym2612"
    },
    {
      "channel": 0,
      "note": 64,
      "start": 18.8042,
      "duration": 0.2681,
      "velocity": 117,
      "chip": "ym2612"
    },
    {
      "channel": 1,
      "note": 62,
      "start": 18.8048,
      "duration": 0.0993,
      "velocity": 120,
      "chip": "ym2612"
    },
    {
      "channel": 4,
      "note": 73,
      "start": 18.8055,
      "duration": 0.0993,
      "velocity": 102,
      "chip": "ym2612"
    },
    {
      "channel": 1,
      "note": 50,
      "start": 18.9043,
      "duration": 0.1701,
      "velocity": 102,
      "chip": "ym2612"
    },
    {
      "channel": 4,
      "note": 71,
      "start": 18.9049,
      "duration": 0.0723,
      "velocity": 102,
      "chip": "ym2612"
    },
    {
      "channel": 4,
      "note": 76,
      "start": 18.9775,
      "duration": 0.0977,
      "velocity": 102,
      "chip": "ym2612"
    },
    {
      "channel": 0,
      "note": 59,
      "start": 19.0724,
      "duration": 0.0999,
      "velocity": 117,
      "chip": "ym2612"
    },
    {
      "channel": 1,
      "note": 52,
      "start": 19.0746,
      "duration": 0.1998,
      "velocity": 120,
      "chip": "ym2612"
    },
    {
      "channel": 4,
      "note": 73,
      "start": 19.0753,
      "duration": 0.0977,
      "velocity": 102,
      "chip": "ym2612"
    },
    {
      "channel": 5,
      "note": 110,
      "start": 19.0759,
      "duration": 0.3832,
      "velocity": 93,
      "chip": "ym2612"
    },
    {
      "channel": 0,
      "note": 61,
      "start": 19.1725,
      "duration": 0.0998,
      "velocity": 117,
      "chip": "ym2612"
    },
    {
      "channel": 4,
      "note": 71,
      "start": 19.1732,
      "duration": 0.1035,
      "velocity": 102,
      "chip": "ym2612"
    },
    {
      "channel": 0,
      "note": 64,
      "start": 19.2724,
      "duration": 0.2838,
      "velocity": 117,
      "chip": "ym2612"
    },
    {
      "channel": 1,
      "note": 62,
      "start": 19.2746,
      "duration": 0.1832,
      "velocity": 102,
      "chip": "ym2612"
    },
    {
      "channel": 4,
      "note": 64,
      "start": 19.2769,
      "duration": 0.1816,
      "velocity": 102,
      "chip": "ym2612"
    },
    {
      "channel": 1,
      "note": 40,
      "start": 19.458,
      "duration": 0.2724,
      "velocity": 102,
      "chip": "ym2612"
    },
    {
      "channel": 4,
      "note": 76,
      "start": 19.4587,
      "duration": 0.0983,
      "velocity": 102,
      "chip": "ym2612"
    },
    {
      "channel": 5,
      "note": 110,
      "start": 19.4593,
      "duration": 0.3705,
      "velocity": 93,
      "chip": "ym2612"
    },
    {
      "channel": 0,
      "note": 64,
      "start": 19.5564,
      "duration": 0.2699,
      "velocity": 117,
      "chip": "ym2612"
    },
    {
      "channel": 4,
      "note": 73,
      "start": 19.5571,
      "duration": 0.0993,
      "velocity": 102,
      "chip": "ym2612"
    },
    {
      "channel": 4,
      "note": 71,
      "start": 19.6566,
      "duration": 0.0745,
      "velocity": 102,
      "chip": "ym2612"
    },
    {
      "channel": 1,
      "note": 52,
      "start": 19.7307,
      "duration": 0.0978,
      "velocity": 120,
      "chip": "ym2612"
    },
    {
      "channel": 4,
      "note": 76,
      "start": 19.7313,
      "duration": 0.0978,
      "velocity": 102,
      "chip": "ym2612"
    },
    {
      "channel": 0,
      "note": 59,
      "start": 19.8265,
      "duration": 0.0998,
      "velocity": 117,
      "chip": "ym2612"
    },
    {
      "channel": 1,
      "note": 50,
      "start": 19.8286,
      "duration": 0.1732,
      "velocity": 102,
      "chip": "ym2612"
    },
    {
      "channel": 4,
      "note": 73,
      "start": 19.8293,
      "duration": 0.0977,
      "velocity": 102,
      "chip": "ym2612"
    },
    {
      "channel": 5,
      "note": 110,
      "start": 19.8299,
      "duration": 0.3575,
      "velocity": 93,
      "chip": "ym2612"
    },
    {
      "channel": 0,
      "note": 61,
      "start": 19.9265,
      "duration": 0.0733,
      "velocity": 117,
      "chip": "ym2612"
    },
    {
      "channel": 4,
      "note": 71,
      "start": 19.9272,
      "duration": 0.0769,
      "velocity": 102,
      "chip": "ym2612"
    },
    {
      "channel": 0,
      "note": 64,
      "start": 19.9999,
      "duration": 0.2847,
      "velocity": 117,
      "chip": "ym2612"
    },
    {
      "channel": 1,
      "note": 38,
      "start": 20.0021,
      "duration": 0.1841,
      "velocity": 120,
      "chip": "ym2612"
    },
    {
      "channel": 4,
      "note": 62,
      "start": 20.0043,
      "duration": 0.1826,
      "velocity": 102,
      "chip": "ym2612"
    },
    {
      "channel": 1,
      "note": 62,
      "start": 20.1863,
      "duration": 0.0988,
      "velocity": 120,
      "chip": "ym2612"
    },
    {
      "channel": 4,
      "note": 74,
      "start": 20.187,
      "duration": 0.0988,
      "velocity": 102,
      "chip": "ym2612"
    },
    {
      "channel": 5,
      "note": 110,
      "start": 20.1876,
      "duration": 0.3687,
      "velocity": 93,
      "chip": "ym2612"
    },
    {
      "channel": 0,
      "note": 64,
      "start": 20.2847,
      "duration": 0.2681,
      "velocity": 117,
      "chip": "ym2612"
    },
    {
      "channel": 1,
      "note": 50,
      "start": 20.2853,
      "duration": 0.0994,
      "velocity": 120,
      "chip": "ym2612"
    },
    {
      "channel": 4,
      "note": 71,
      "start": 20.286,
      "duration": 0.0993,
      "velocity": 102,
      "chip": "ym2612"
    },
    {
      "channel": 1,
      "note": 62,
      "start": 20.3847,
      "duration": 0.1702,
      "velocity": 102,
      "chip": "ym2612"
    },
    {
      "channel": 4,
      "note": 69,
      "start": 20.3854,
      "duration": 0.0724,
      "velocity": 102,
      "chip": "ym2612"
    },
    {
      "channel": 4,
      "note": 74,
      "start": 20.458,
      "duration": 0.0977,
      "velocity": 102,
      "chip": "ym2612"
    },
    {
      "channel": 0,
      "note": 59,
      "start": 20.553,
      "duration": 0.0999,
      "velocity": 117,
      "chip": "ym2612"
    },
    {
      "channel": 1,
      "note": 50,
      "start": 20.5552,
      "duration": 0.1998,
      "velocity": 120,
      "chip": "ym2612"
    },
    {
      "channel": 4,
      "note": 71,
      "start": 20.5559,
      "duration": 0.0977,
      "velocity": 102,
      "chip": "ym2612"
    },
    {
      "channel": 5,
      "note": 110,
      "start": 20.5564,
      "duration": 0.3832,
      "velocity": 93,
      "chip": "ym2612"
    },
    {
      "channel": 0,
      "note": 61,
      "start": 20.6531,
      "duration": 0.0998,
      "velocity": 117,
      "chip": "ym2612"
    },
    {
      "channel": 4,
      "note": 69,
      "start": 20.6538,
      "duration": 0.1035,
      "velocity": 102,
      "chip": "ym2612"
    },
    {
      "channel": 0,
      "note": 64,
      "start": 20.753,
      "duration": 0.2838,
      "velocity": 117,
      "chip": "ym2612"
    },
    {
      "channel": 1,
      "note": 50,
      "start": 20.7552,
      "duration": 0.1832,
      "velocity": 102,
      "chip": "ym2612"
    },
    {
      "channel": 4,
      "note": 62,
      "start": 20.7575,
      "duration": 0.1816,
      "velocity": 102,
      "chip": "ym2612"
    },
    {
      "channel": 1,
      "note": 38,
      "start": 20.9386,
      "duration": 0.2724,
      "velocity": 102,
      "chip": "ym2612"
    },
    {
      "channel": 4,
      "note": 74,
      "start": 20.9392,
      "duration": 0.0983,
      "velocity": 102,
      "chip": "ym2612"
    },
    {
      "channel": 5,
      "note": 110,
      "start": 20.9398,
      "duration": 0.3704,
      "velocity": 93,
      "chip": "ym2612"
    },
    {
      "channel": 0,
      "note": 64,
      "start": 21.0369,
      "duration": 0.2699,
      "velocity": 117,
      "chip": "ym2612"
    },
    {
      "channel": 4,
      "note": 71,
      "start": 21.0377,
      "duration": 0.0993,
      "velocity": 102,
      "chip": "ym2612"
    },
    {
      "channel": 4,
      "note": 69,
      "start": 21.1372,
      "duration": 0.0745,
      "velocity": 102,
      "chip": "ym2612"
    },
    {
      "channel": 1,
      "note": 50,
      "start": 21.2112,
      "duration": 0.0978,
      "velocity": 120,
      "chip": "ym2612"
    },
    {
      "channel": 4,
      "note": 74,
      "start": 21.2118,
      "duration": 0.0978,
      "velocity": 102,
      "chip": "ym2612"
    },
    {
      "channel": 0,
      "note": 59,
      "start": 21.3069,
      "duration": 0.0999,
      "velocity": 117,
      "chip": "ym2612"
    },
    {
      "channel": 1,
      "note": 62,
      "start": 21.3091,
      "duration": 0.1733,
      "velocity": 102,
      "chip": "ym2612"
    },
    {
      "channel": 4,
      "note": 71,
      "start": 21.3098,
      "duration": 0.0977,
      "velocity": 102,
      "chip": "ym2612"
    },
    {
      "channel": 5,
      "note": 110,
      "start": 21.3104,
      "duration": 0.3567,
      "velocity": 93,
      "chip": "ym2612"
    },
    {
      "channel": 0,
      "note": 61,
      "start": 21.407,
      "duration": 0.0732,
      "velocity": 117,
      "chip": "ym2612"
    },
    {
      "channel": 4,
      "note": 69,
      "start": 21.4077,
      "duration": 0.081,
      "velocity": 102,
      "chip": "ym2612"
    },
    {
      "channel": 0,
      "note": 57,
      "start": 21.4804,
      "duration": 0.2839,
      "velocity": 117,
      "chip": "ym2612"
    },
    {
      "channel": 1,
      "note": 33,
      "start": 21.4825,
      "duration": 0.1833,
      "velocity": 120,
      "chip": "ym2612"
    },
    {
      "channel": 2,
      "note": 76,
      "start": 21.4847,
      "duration": 0.2807,
      "velocity": 100,
      "chip": "ym2612"
    },
    {
      "channel": 3,
      "note": 80,
      "start": 21.4868,
      "duration": 0.2792,
      "velocity": 99,
      "chip": "ym2612"
    },
    {
      "channel": 4,
      "note": 57,
      "start": 21.4889,
      "duration": 0.1776,
      "velocity": 102,
      "chip": "ym2612"
    },
    {
      "channel": 1,
      "note": 50,
      "start": 21.666,
      "duration": 0.0988,
      "velocity": 120,
      "chip": "ym2612"
    },
    {
      "channel": 4,
      "note": 69,
      "start": 21.6667,
      "duration": 0.0999,
      "velocity": 102,
      "chip": "ym2612"
    },
    {
      "channel": 5,
      "note": 110,
      "start": 21.6673,
      "duration": 0.3689,
      "velocity": 93,
      "chip": "ym2612"
    },
    {
      "channel": 0,
      "note": 57,
      "start": 21.7644,
      "duration": 0.2674,
      "velocity": 117,
      "chip": "ym2612"
    },
    {
      "channel": 1,
      "note": 62,
      "start": 21.765,
      "duration": 0.0994,
      "velocity": 120,
      "chip": "ym2612"
    },
    {
      "channel": 2,
      "note": 78,
      "start": 21.7656,
      "duration": 0.2689,
      "velocity": 100,
      "chip": "ym2612"
    },
    {
      "channel": 3,
      "note": 81,
      "start": 21.7662,
      "duration": 0.2688,
      "velocity": 99,
      "chip": "ym2612"
    },
    {
      "channel": 4,
      "note": 66,
      "start": 21.7667,
      "duration": 0.0984,
      "velocity": 102,
      "chip": "ym2612"
    },
    {
      "channel": 1,
      "note": 50,
      "start": 21.8646,
      "duration": 0.1693,
      "velocity": 102,
      "chip": "ym2612"
    },
    {
      "channel": 4,
      "note": 64,
      "start": 21.8652,
      "duration": 0.0714,
      "velocity": 102,
      "chip": "ym2612"
    },
    {
      "channel": 4,
      "note": 69,
      "start": 21.9368,
      "duration": 0.0988,
      "velocity": 102,
      "chip": "ym2612"
    },
    {
      "channel": 0,
      "note": 52,
      "start": 22.0319,
      "duration": 0.0999,
      "velocity": 117,
      "chip": "ym2612"
    },
    {
      "channel": 1,
      "note": 45,
      "start": 22.0341,
      "duration": 0.1998,
      "velocity": 120,
      "chip": "ym2612"
    },
    {
      "channel": 2,
      "note": 80,
      "start": 22.0346,
      "duration": 0.1999,
      "velocity": 100,
      "chip": "ym2612"
    },
    {
      "channel": 3,
      "note": 83,
      "start": 22.0352,
      "duration": 0.1999,
      "velocity": 99,
      "chip": "ym2612"
    },
    {
      "channel": 4,
      "note": 66,
      "start": 22.0358,
      "duration": 0.0967,
      "velocity": 102,
      "chip": "ym2612"
    },
    {
      "channel": 5,
      "note": 110,
      "start": 22.0363,
      "duration": 0.385,
      "velocity": 93,
      "chip": "ym2612"
    },
    {
      "channel": 0,
      "note": 54,
      "start": 22.1319,
      "duration": 0.0999,
      "velocity": 117,
      "chip": "ym2612"
    },
    {
      "channel": 4,
      "note": 64,
      "start": 22.1327,
      "duration": 0.1044,
      "velocity": 102,
      "chip": "ym2612"
    },
    {
      "channel": 0,
      "note": 57,
      "start": 22.2319,
      "duration": 0.2856,
      "velocity": 117,
      "chip": "ym2612"
    },
    {
      "channel": 1,
      "note": 62,
      "start": 22.2341,
      "duration": 0.185,
      "velocity": 102,
      "chip": "ym2612"
    },
    {
      "channel": 2,
      "note": 81,
      "start": 22.2347,
      "duration": 0.083,
      "velocity": 100,
      "chip": "ym2612"
    },
    {
      "channel": 3,
      "note": 85,
      "start": 22.2352,
      "duration": 0.083,
      "velocity": 99,
      "chip": "ym2612"
    },
    {
      "channel": 4,
      "note": 57,
      "start": 22.2373,
      "duration": 0.1834,
      "velocity": 102,
      "chip": "ym2612"
    },
    {
      "channel": 2,
      "note": 76,
      "start": 22.3178,
      "duration": 0.1018,
      "velocity": 100,
      "chip": "ym2612"
    },
    {
      "channel": 3,
      "note": 81,
      "start": 22.3183,
      "duration": 0.1018,
      "velocity": 99,
      "chip": "ym2612"
    },
    {
      "channel": 1,
      "note": 33,
      "start": 22.4193,
      "duration": 0.2737,
      "velocity": 102,
      "chip": "ym2612"
    },
    {
      "channel": 2,
      "note": 73,
      "start": 22.4198,
      "duration": 0.0983,
      "velocity": 100,
      "chip": "ym2612"
    },
    {
      "channel": 3,
      "note": 78,
      "start": 22.4204,
      "duration": 0.0983,
      "velocity": 99,
      "chip": "ym2612"
    },
    {
      "channel": 4,
      "note": 69,
      "start": 22.421,
      "duration": 0.0983,
      "velocity": 102,
      "chip": "ym2612"
    },
    {
      "channel": 5,
      "note": 110,
      "start": 22.4215,
      "duration": 0.3707,
      "velocity": 93,
      "chip": "ym2612"
    },
    {
      "channel": 0,
      "note": 57,
      "start": 22.5177,
      "duration": 0.2712,
      "velocity": 117,
      "chip": "ym2612"
    },
    {
      "channel": 2,
      "note": 69,
      "start": 22.5183,
      "duration": 1.1992,
      "velocity": 120,
      "chip": "ym2612"
    },
    {
      "channel": 3,
      "note": 76,
      "start": 22.5189,
      "duration": 1.2007,
      "velocity": 93,
      "chip": "ym2612"
    },
    {
      "channel": 4,
      "note": 66,
      "start": 22.5194,
      "duration": 0.0983,
      "velocity": 102,
      "chip": "ym2612"
    },
    {
      "channel": 4,
      "note": 64,
      "start": 22.6179,
      "duration": 0.0758,
      "velocity": 102,
      "chip": "ym2612"
    },
    {
      "channel": 1,
      "note": 45,
      "start": 22.6932,
      "duration": 0.0978,
      "velocity": 120,
      "chip": "ym2612"
    },
    {
      "channel": 4,
      "note": 69,
      "start": 22.6938,
      "duration": 0.0978,
      "velocity": 102,
      "chip": "ym2612"
    },
    {
      "channel": 0,
      "note": 52,
      "start": 22.789,
      "duration": 0.0999,
      "velocity": 117,
      "chip": "ym2612"
    },
    {
      "channel": 1,
      "note": 50,
      "start": 22.7912,
      "duration": 0.1732,
      "velocity": 102,
      "chip": "ym2612"
    },
    {
      "channel": 4,
      "note": 66,
      "start": 22.7919,
      "duration": 0.0977,
      "velocity": 102,
      "chip": "ym2612"
    },
    {
      "channel": 5,
      "note": 110,
      "start": 22.7924,
      "duration": 1.7728,
      "velocity": 93,
      "chip": "ym2612"
    },
    {
      "channel": 0,
      "note": 54,
      "start": 22.889,
      "duration": 0.0733,
      "velocity": 117,
      "chip": "ym2612"
    },
    {
      "channel": 4,
      "note": 64,
      "start": 22.8898,
      "duration": 0.0769,
      "velocity": 102,
      "chip": "ym2612"
    },
    {
      "channel": 0,
      "note": 60,
      "start": 22.9624,
      "duration": 0.1846,
      "velocity": 117,
      "chip": "ym2612"
    },
    {
      "channel": 1,
      "note": 36,
      "start": 22.9646,
      "duration": 0.366,
      "velocity": 102,
      "chip": "ym2612"
    },
    {
      "channel": 4,
      "note": 60,
      "start": 22.9668,
      "duration": 0.1809,
      "velocity": 102,
      "chip": "ym2612"
    },
    {
      "channel": 0,
      "note": 72,
      "start": 23.1472,
      "duration": 0.3834,
      "velocity": 117,
      "chip": "ym2612"
    },
    {
      "channel": 4,
      "note": 72,
      "start": 23.1479,
      "duration": 0.0994,
      "velocity": 102,
      "chip": "ym2612"
    },
    {
      "channel": 4,
      "note": 69,
      "start": 23.2475,
      "duration": 0.0838,
      "velocity": 102,
      "chip": "ym2612"
    },
    {
      "channel": 1,
      "note": 48,
      "start": 23.3308,
      "duration": 0.2003,
      "velocity": 102,
      "chip": "ym2612"
    },
    {
      "channel": 4,
      "note": 67,
      "start": 23.3314,
      "duration": 0.0994,
      "velocity": 102,
      "chip": "ym2612"
    },
    {
      "channel": 4,
      "note": 72,
      "start": 23.4309,
      "duration": 0.1009,
      "velocity": 102,
      "chip": "ym2612"
    },
    {
      "channel": 0,
      "note": 62,
      "start": 23.5307,
      "duration": 0.1845,
      "velocity": 117,
      "chip": "ym2612"
    },
    {
      "channel": 1,
      "note": 38,
      "start": 23.5313,
      "duration": 0.3539,
      "velocity": 102,
      "chip": "ym2612"
    },
    {
      "channel": 4,
      "note": 69,
      "start": 23.532,
      "duration": 0.0835,
      "velocity": 102,
      "chip": "ym2612"
    },
    {
      "channel": 4,
      "note": 67,
      "start": 23.6156,
      "duration": 0.1061,
      "velocity": 102,
      "chip": "ym2612"
    },
    {
      "channel": 0,
      "note": 74,
      "start": 23.7154,
      "duration": 0.3699,
      "velocity": 117,
      "chip": "ym2612"
    },
    {
      "channel": 2,
      "note": 55,
      "start": 23.7176,
      "duration": 0.0737,
      "velocity": 120,
      "chip": "ym2612"
    },
    {
      "channel": 3,
      "note": 110,
      "start": 23.7198,
      "duration": 0.3667,
      "velocity": 93,
      "chip": "ym2612"
    },
    {
      "channel": 4,
      "note": 60,
      "start": 23.7219,
      "duration": 0.1645,
      "velocity": 102,
      "chip": "ym2612"
    },
    {
      "channel": 2,
      "note": 67,
      "start": 23.7915,
      "duration": 0.0943,
      "velocity": 120,
      "chip": "ym2612"
    },
    {
      "channel": 1,
      "note": 50,
      "start": 23.8854,
      "duration": 0.2004,
      "velocity": 102,
      "chip": "ym2612"
    },
    {
      "channel": 2,
      "note": 55,
      "start": 23.886,
      "duration": 0.0993,
      "velocity": 120,
      "chip": "ym2612"
    },
    {
      "channel": 4,
      "note": 72,
      "start": 23.8866,
      "duration": 0.0994,
      "velocity": 102,
      "chip": "ym2612"
    },
    {
      "channel": 2,
      "note": 67,
      "start": 23.9855,
      "duration": 0.1723,
      "velocity": 120,
      "chip": "ym2612"
    },
    {
      "channel": 4,
      "note": 69,
      "start": 23.9861,
      "duration": 0.1009,
      "velocity": 102,
      "chip": "ym2612"
    },
    {
      "channel": 0,
      "note": 63,
      "start": 24.0854,
      "duration": 0.1466,
      "velocity": 117,
      "chip": "ym2612"
    },
    {
      "channel": 1,
      "note": 39,
      "start": 24.086,
      "duration": 0.1466,
      "velocity": 102,
      "chip": "ym2612"
    },
    {
      "channel": 3,
      "note": 110,
      "start": 24.0866,
      "duration": 0.2981,
      "velocity": 107,
      "chip": "ym2612"
    },
    {
      "channel": 4,
      "note": 67,
      "start": 24.0872,
      "duration": 0.0712,
      "velocity": 102,
      "chip": "ym2612"
    },
    {
      "channel": 2,
      "note": 55,
      "start": 24.158,
      "duration": 0.0752,
      "velocity": 120,
      "chip": "ym2612"
    },
    {
      "channel": 4,
      "note": 72,
      "start": 24.1586,
      "duration": 0.0751,
      "velocity": 102,
      "chip": "ym2612"
    },
    {
      "channel": 0,
      "note": 75,
      "start": 24.2322,
      "duration": 0.1461,
      "velocity": 117,
      "chip": "ym2612"
    },
    {
      "channel": 1,
      "note": 51,
      "start": 24.2328,
      "duration": 0.1477,
      "velocity": 107,
      "chip": "ym2612"
    },
    {
      "channel": 2,
      "note": 67,
      "start": 24.2333,
      "duration": 0.0728,
      "velocity": 120,
      "chip": "ym2612"
    },
    {
      "channel": 4,
      "note": 69,
      "start": 24.2339,
      "duration": 0.0728,
      "velocity": 102,
      "chip": "ym2612"
    },
    {
      "channel": 2,
      "note": 67,
      "start": 24.3063,
      "duration": 0.0762,
      "velocity": 107,
      "chip": "ym2612"
    },
    {
      "channel": 4,
      "note": 67,
      "start": 24.3069,
      "duration": 0.2577,
      "velocity": 102,
      "chip": "ym2612"
    },
    {
      "channel": 0,
      "note": 65,
      "start": 24.3785,
      "duration": 0.3843,
      "velocity": 117,
      "chip": "ym2612"
    },
    {
      "channel": 1,
      "note": 72,
      "start": 24.3806,
      "duration": 1.4775,
      "velocity": 107,
      "chip": "ym2612"
    },
    {
      "channel": 2,
      "note": 65,
      "start": 24.3827,
      "duration": 1.476,
      "velocity": 107,
      "chip": "ym2612"
    },
    {
      "channel": 3,
      "note": 69,
      "start": 24.3849,
      "duration": 1.4744,
      "velocity": 107,
      "chip": "ym2612"
    },
    {
      "channel": 4,
      "note": 41,
      "start": 24.5648,
      "duration": 0.5673,
      "velocity": 102,
      "chip": "ym2612"
    },
    {
      "channel": 5,
      "note": 110,
      "start": 24.5654,
      "duration": 0.3673,
      "velocity": 93,
      "chip": "ym2612"
    },
    {
      "channel": 0,
      "note": 53,
      "start": 24.763,
      "duration": 0.1689,
      "velocity": 117,
      "chip": "ym2612"
    },
    {
      "channel": 0,
      "note": 63,
      "start": 24.932,
      "duration": 0.3863,
      "velocity": 117,
      "chip": "ym2612"
    },
    {
      "channel": 5,
      "note": 110,
      "start": 24.9328,
      "duration": 0.3863,
      "velocity": 93,
      "chip": "ym2612"
    },
    {
      "channel": 4,
      "note": 53,
      "start": 25.1323,
      "duration": 0.2863,
      "velocity": 102,
      "chip": "ym2612"
    },
    {
      "channel": 0,
      "note": 60,
      "start": 25.3185,
      "duration": 0.1998,
      "velocity": 117,
      "chip": "ym2612"
    },
    {
      "channel": 5,
      "note": 110,
      "start": 25.3193,
      "duration": 0.3675,
      "velocity": 93,
      "chip": "ym2612"
    },
    {
      "channel": 4,
      "note": 41,
      "start": 25.4188,
      "duration": 0.2674,
      "velocity": 102,
      "chip": "ym2612"
    },
    {
      "channel": 0,
      "note": 58,
      "start": 25.5185,
      "duration": 0.1669,
      "velocity": 117,
      "chip": "ym2612"
    },
    {
      "channel": 0,
      "note": 60,
      "start": 25.6856,
      "duration": 0.172,
      "velocity": 117,
      "chip": "ym2612"
    },
    {
      "channel": 4,
      "note": 39,
      "start": 25.6864,
      "duration": 0.0993,
      "velocity": 102,
      "chip": "ym2612"
    },
    {
      "channel": 5,
      "note": 110,
      "start": 25.6869,
      "duration": 0.3559,
      "velocity": 93,
      "chip": "ym2612"
    },
    {
      "channel": 4,
      "note": 41,
      "start": 25.7859,
      "duration": 0.074,
      "velocity": 102,
      "chip": "ym2612"
    },
    {
      "channel": 0,
      "note": 65,
      "start": 25.8578,
      "duration": 0.3842,
      "velocity": 117,
      "chip": "ym2612"
    },
    {
      "channel": 1,
      "note": 67,
      "start": 25.8583,
      "duration": 1.4802,
      "velocity": 107,
      "chip": "ym2612"
    },
    {
      "channel": 2,
      "note": 75,
      "start": 25.8589,
      "duration": 1.4801,
      "velocity": 107,
      "chip": "ym2612"
    },
    {
      "channel": 3,
      "note": 70,
      "start": 25.8595,
      "duration": 1.4801,
      "velocity": 107,
      "chip": "ym2612"
    },
    {
      "channel": 4,
      "note": 53,
      "start": 25.86,
      "duration": 0.1823,
      "velocity": 102,
      "chip": "ym2612"
    },
    {
      "channel": 4,
      "note": 41,
      "start": 26.0424,
      "duration": 0.5719,
      "velocity": 102,
      "chip": "ym2612"
    },
    {
      "channel": 5,
      "note": 110,
      "start": 26.043,
      "duration": 0.3713,
      "velocity": 93,
      "chip": "ym2612"
    },
    {
      "channel": 0,
      "note": 53,
      "start": 26.2422,
      "duration": 0.1713,
      "velocity": 117,
      "chip": "ym2612"
    },
    {
      "channel": 0,
      "note": 65,
      "start": 26.4136,
      "duration": 0.1999,
      "velocity": 117,
      "chip": "ym2612"
    },
    {
      "channel": 5,
      "note": 110,
      "start": 26.4144,
      "duration": 0.3849,
      "velocity": 93,
      "chip": "ym2612"
    },
    {
      "channel": 0,
      "note": 63,
      "start": 26.6137,
      "duration": 0.1849,
      "velocity": 117,
      "chip": "ym2612"
    },
    {
      "channel": 4,
      "note": 53,
      "start": 26.6144,
      "duration": 0.2844,
      "velocity": 102,
      "chip": "ym2612"
    },
    {
      "channel": 0,
      "note": 60,
      "start": 26.7987,
      "duration": 0.1999,
      "velocity": 117,
      "chip": "ym2612"
    },
    {
      "channel": 5,
      "note": 110,
      "start": 26.7995,
      "duration": 0.3675,
      "velocity": 93,
      "chip": "ym2612"
    },
    {
      "channel": 4,
      "note": 41,
      "start": 26.899,
      "duration": 0.2674,
      "velocity": 102,
      "chip": "ym2612"
    },
    {
      "channel": 0,
      "note": 58,
      "start": 26.9988,
      "duration": 0.1669,
      "velocity": 117,
      "chip": "ym2612"
    },
    {
      "channel": 0,
      "note": 60,
      "start": 27.1659,
      "duration": 0.1721,
      "velocity": 117,
      "chip": "ym2612"
    },
    {
      "channel": 4,
      "note": 53,
      "start": 27.1666,
      "duration": 0.3565,
      "velocity": 102,
      "chip": "ym2612"
    },
    {
      "channel": 5,
      "note": 110,
      "start": 27.1672,
      "duration": 0.3565,
      "velocity": 93,
      "chip": "ym2612"
    },
    {
      "channel": 0,
      "note": 63,
      "start": 27.3381,
      "duration": 0.3847,
      "velocity": 117,
      "chip": "ym2612"
    },
    {
      "channel": 1,
      "note": 75,
      "start": 27.3387,
      "duration": 1.4816,
      "velocity": 107,
      "chip": "ym2612"
    },
    {
      "channel": 2,
      "note": 68,
      "start": 27.3392,
      "duration": 1.4816,
      "velocity": 107,
      "chip": "ym2612"
    },
    {
      "channel": 3,
      "note": 70,
      "start": 27.3398,
      "duration": 1.4816,
      "velocity": 107,
      "chip": "ym2612"
    },
    {
      "channel": 4,
      "note": 39,
      "start": 27.5232,
      "duration": 0.5709,
      "velocity": 102,
      "chip": "ym2612"
    },
    {
      "channel": 5,
      "note": 110,
      "start": 27.5238,
      "duration": 0.3709,
      "velocity": 93,
      "chip": "ym2612"
    },
    {
      "channel": 0,
      "note": 51,
      "start": 27.723,
      "duration": 0.171,
      "velocity": 117,
      "chip": "ym2612"
    },
    {
      "channel": 0,
      "note": 61,
      "start": 27.8941,
      "duration": 0.3863,
      "velocity": 117,
      "chip": "ym2612"
    },
    {
      "channel": 5,
      "note": 110,
      "start": 27.8949,
      "duration": 0.3863,
      "velocity": 93,
      "chip": "ym2612"
    },
    {
      "channel": 4,
      "note": 51,
      "start": 28.0943,
      "duration": 0.2863,
      "velocity": 102,
      "chip": "ym2612"
    },
    {
      "channel": 0,
      "note": 58,
      "start": 28.2805,
      "duration": 0.1999,
      "velocity": 117,
      "chip": "ym2612"
    },
    {
      "channel": 5,
      "note": 110,
      "start": 28.2813,
      "duration": 0.3675,
      "velocity": 93,
      "chip": "ym2612"
    },
    {
      "channel": 4,
      "note": 39,
      "start": 28.3808,
      "duration": 0.2675,
      "velocity": 102,
      "chip": "ym2612"
    },
    {
      "channel": 0,
      "note": 56,
      "start": 28.4806,
      "duration": 0.167,
      "velocity": 117,
      "chip": "ym2612"
    },
    {
      "channel": 0,
      "note": 58,
      "start": 28.6477,
      "duration": 0.172,
      "velocity": 117,
      "chip": "ym2612"
    },
    {
      "channel": 4,
      "note": 37,
      "start": 28.6485,
      "duration": 0.0993,
      "velocity": 102,
      "chip": "ym2612"
    },
    {
      "channel": 5,
      "note": 110,
      "start": 28.649,
      "duration": 0.3557,
      "velocity": 93,
      "chip": "ym2612"
    },
    {
      "channel": 4,
      "note": 39,
      "start": 28.748,
      "duration": 0.074,
      "velocity": 102,
      "chip": "ym2612"
    },
    {
      "channel": 0,
      "note": 63,
      "start": 28.8199,
      "duration": 0.384,
      "velocity": 117,
      "chip": "ym2612"
    },
    {
      "channel": 1,
      "note": 58,
      "start": 28.8205,
      "duration": 1.4607,
      "velocity": 107,
      "chip": "ym2612"
    },
    {
      "channel": 2,
      "note": 67,
      "start": 28.821,
      "duration": 1.4608,
      "velocity": 107,
      "chip": "ym2612"
    },
    {
      "channel": 3,
      "note": 63,
      "start": 28.8216,
      "duration": 1.4609,
      "velocity": 107,
      "chip": "ym2612"
    },
    {
      "channel": 4,
      "note": 51,
      "start": 28.8221,
      "duration": 0.1821,
      "velocity": 102,
      "chip": "ym2612"
    },
    {
      "channel": 4,
      "note": 39,
      "start": 29.0043,
      "duration": 0.5719,
      "velocity": 102,
      "chip": "ym2612"
    },
    {
      "channel": 5,
      "note": 110,
      "start": 29.0049,
      "duration": 0.3713,
      "velocity": 93,
      "chip": "ym2612"
    },
    {
      "channel": 0,
      "note": 51,
      "start": 29.2041,
      "duration": 0.1714,
      "velocity": 117,
      "chip": "ym2612"
    },
    {
      "channel": 0,
      "note": 63,
      "start": 29.3756,
      "duration": 0.1999,
      "velocity": 117,
      "chip": "ym2612"
    },
    {
      "channel": 5,
      "note": 110,
      "start": 29.3764,
      "duration": 0.3849,
      "velocity": 93,
      "chip": "ym2612"
    },
    {
      "channel": 0,
      "note": 61,
      "start": 29.5756,
      "duration": 0.1849,
      "velocity": 117,
      "chip": "ym2612"
    },
    {
      "channel": 4,
      "note": 51,
      "start": 29.5764,
      "duration": 0.2844,
      "velocity": 102,
      "chip": "ym2612"
    },
    {
      "channel": 0,
      "note": 58,
      "start": 29.7607,
      "duration": 0.1999,
      "velocity": 117,
      "chip": "ym2612"
    },
    {
      "channel": 5,
      "note": 110,
      "start": 29.7615,
      "duration": 0.3465,
      "velocity": 93,
      "chip": "ym2612"
    },
    {
      "channel": 4,
      "note": 39,
      "start": 29.861,
      "duration": 0.2464,
      "velocity": 102,
      "chip": "ym2612"
    },
    {
      "channel": 0,
      "note": 56,
      "start": 29.9607,
      "duration": 0.1459,
      "velocity": 117,
      "chip": "ym2612"
    },
    {
      "channel": 0,
      "note": 58,
      "start": 30.1068,
      "duration": 0.1738,
      "velocity": 117,
      "chip": "ym2612"
    },
    {
      "channel": 4,
      "note": 51,
      "start": 30.1076,
      "duration": 0.3573,
      "velocity": 102,
      "chip": "ym2612"
    },
    {
      "channel": 5,
      "note": 110,
      "start": 30.1082,
      "duration": 0.3573,
      "velocity": 93,
      "chip": "ym2612"
    },
    {
      "channel": 0,
      "note": 63,
      "start": 30.2808,
      "duration": 0.3839,
      "velocity": 117,
      "chip": "ym2612"
    },
    {
      "channel": 1,
      "note": 68,
      "start": 30.2814,
      "duration": 1.4787,
      "velocity": 107,
      "chip": "ym2612"
    },
    {
      "channel": 2,
      "note": 70,
      "start": 30.282,
      "duration": 1.4787,
      "velocity": 107,
      "chip": "ym2612"
    },
    {
      "channel": 3,
      "note": 75,
      "start": 30.2826,
      "duration": 1.4787,
      "velocity": 107,
      "chip": "ym2612"
    },
    {
      "channel": 4,
      "note": 39,
      "start": 30.4651,
      "duration": 0.5709,
      "velocity": 102,
      "chip": "ym2612"
    },
    {
      "channel": 5,
      "note": 110,
      "start": 30.4657,
      "duration": 0.3708,
      "velocity": 93,
      "chip": "ym2612"
    },
    {
      "channel": 0,
      "note": 51,
      "start": 30.6648,
      "duration": 0.171,
      "velocity": 117,
      "chip": "ym2612"
    },
    {
      "channel": 0,
      "note": 61,
      "start": 30.8359,
      "duration": 0.3844,
      "velocity": 117,
      "chip": "ym2612"
    },
    {
      "channel": 5,
      "note": 110,
      "start": 30.8367,
      "duration": 0.3844,
      "velocity": 93,
      "chip": "ym2612"
    },
    {
      "channel": 4,
      "note": 51,
      "start": 31.0361,
      "duration": 0.2844,
      "velocity": 102,
      "chip": "ym2612"
    },
    {
      "channel": 0,
      "note": 58,
      "start": 31.2204,
      "duration": 0.1999,
      "velocity": 117,
      "chip": "ym2612"
    },
    {
      "channel": 5,
      "note": 110,
      "start": 31.2212,
      "duration": 0.3675,
      "velocity": 93,
      "chip": "ym2612"
    },
    {
      "channel": 4,
      "note": 39,
      "start": 31.3207,
      "duration": 0.2674,
      "velocity": 102,
      "chip": "ym2612"
    },
    {
      "channel": 0,
      "note": 56,
      "start": 31.4205,
      "duration": 0.1669,
      "velocity": 117,
      "chip": "ym2612"
    },
    {
      "channel": 0,
      "note": 58,
      "start": 31.5876,
      "duration": 0.172,
      "velocity": 117,
      "chip": "ym2612"
    },
    {
      "channel": 4,
      "note": 37,
      "start": 31.5883,
      "duration": 0.0993,
      "velocity": 102,
      "chip": "ym2612"
    },
    {
      "channel": 5,
      "note": 110,
      "start": 31.5889,
      "duration": 0.3559,
      "velocity": 93,
      "chip": "ym2612"
    },
    {
      "channel": 4,
      "note": 39,
      "start": 31.6878,
      "duration": 0.074,
      "velocity": 102,
      "chip": "ym2612"
    },
    {
      "channel": 0,
      "note": 63,
      "start": 31.7598,
      "duration": 0.3842,
      "velocity": 117,
      "chip": "ym2612"
    },
    {
      "channel": 1,
      "note": 77,
      "start": 31.7603,
      "duration": 1.4795,
      "velocity": 107,
      "chip": "ym2612"
    },
    {
      "channel": 2,
      "note": 73,
      "start": 31.7609,
      "duration": 1.4795,
      "velocity": 107,
      "chip": "ym2612"
    },
    {
      "channel": 3,
      "note": 68,
      "start": 31.7615,
      "duration": 1.4795,
      "velocity": 107,
      "chip": "ym2612"
    },
    {
      "channel": 4,
      "note": 51,
      "start": 31.762,
      "duration": 0.1823,
      "velocity": 102,
      "chip": "ym2612"
    },
    {
      "channel": 4,
      "note": 39,
      "start": 31.9444,
      "duration": 0.5715,
      "velocity": 102,
      "chip": "ym2612"
    },
    {
      "channel": 5,
      "note": 110,
      "start": 31.9449,
      "duration": 0.3709,
      "velocity": 93,
      "chip": "ym2612"
    },
    {
      "channel": 0,
      "note": 51,
      "start": 32.1441,
      "duration": 0.171,
      "velocity": 117,
      "chip": "ym2612"
    },
    {
      "channel": 0,
      "note": 63,
      "start": 32.3152,
      "duration": 0.1999,
      "velocity": 117,
      "chip": "ym2612"
    },
    {
      "channel": 5,
      "note": 110,
      "start": 32.316,
      "duration": 0.3846,
      "velocity": 93,
      "chip": "ym2612"
    },
    {
      "channel": 0,
      "note": 61,
      "start": 32.5153,
      "duration": 0.1846,
      "velocity": 117,
      "chip": "ym2612"
    },
    {
      "channel": 4,
      "note": 51,
      "start": 32.516,
      "duration": 0.2841,
      "velocity": 102,
      "chip": "ym2612"
    },
    {
      "channel": 0,
      "note": 58,
      "start": 32.7,
      "duration": 0.1999,
      "velocity": 117,
      "chip": "ym2612"
    },
    {
      "channel": 5,
      "note": 110,
      "start": 32.7008,
      "duration": 0.3675,
      "velocity": 93,
      "chip": "ym2612"
    },
    {
      "channel": 4,
      "note": 39,
      "start": 32.8003,
      "duration": 0.2675,
      "velocity": 102,
      "chip": "ym2612"
    },
    {
      "channel": 0,
      "note": 56,
      "start": 32.9001,
      "duration": 0.167,
      "velocity": 117,
      "chip": "ym2612"
    },
    {
      "channel": 0,
      "note": 58,
      "start": 33.0672,
      "duration": 0.1721,
      "velocity": 117,
      "chip": "ym2612"
    },
    {
      "channel": 4,
      "note": 51,
      "start": 33.068,
      "duration": 0.3564,
      "velocity": 102,
      "chip": "ym2612"
    },
    {
      "channel": 5,
      "note": 110,
      "start": 33.0685,
      "duration": 0.3565,
      "velocity": 93,
      "chip": "ym2612"
    },
    {
      "channel": 0,
      "note": 61,
      "start": 33.2395,
      "duration": 0.3847,
      "velocity": 117,
      "chip": "ym2612"
    },
    {
      "channel": 1,
      "note": 73,
      "start": 33.24,
      "duration": 1.4797,
      "velocity": 107,
      "chip": "ym2612"
    },
    {
      "channel": 2,
      "note": 78,
      "start": 33.2406,
      "duration": 1.4797,
      "velocity": 107,
      "chip": "ym2612"
    },
    {
      "channel": 3,
      "note": 68,
      "start": 33.2411,
      "duration": 1.4797,
      "velocity": 107,
      "chip": "ym2612"
    },
    {
      "channel": 4,
      "note": 37,
      "start": 33.4246,
      "duration": 0.571,
      "velocity": 102,
      "chip": "ym2612"
    },
    {
      "channel": 5,
      "note": 110,
      "start": 33.4252,
      "duration": 0.3709,
      "velocity": 93,
      "chip": "ym2612"
    },
    {
      "channel": 0,
      "note": 49,
      "start": 33.6244,
      "duration": 0.171,
      "velocity": 117,
      "chip": "ym2612"
    },
    {
      "channel": 0,
      "note": 59,
      "start": 33.7954,
      "duration": 0.3844,
      "velocity": 117,
      "chip": "ym2612"
    },
    {
      "channel": 5,
      "note": 110,
      "start": 33.7963,
      "duration": 0.3844,
      "velocity": 93,
      "chip": "ym2612"
    },
    {
      "channel": 4,
      "note": 49,
      "start": 33.9957,
      "duration": 0.2844,
      "velocity": 102,
      "chip": "ym2612"
    },
    {
      "channel": 0,
      "note": 56,
      "start": 34.18,
      "duration": 0.1999,
      "velocity": 117,
      "chip": "ym2612"
    },
    {
      "channel": 5,
      "note": 110,
      "start": 34.1808,
      "duration": 0.3675,
      "velocity": 93,
      "chip": "ym2612"
    },
    {
      "channel": 4,
      "note": 37,
      "start": 34.2803,
      "duration": 0.2674,
      "velocity": 102,
      "chip": "ym2612"
    },
    {
      "channel": 0,
      "note": 54,
      "start": 34.3801,
      "duration": 0.1669,
      "velocity": 117,
      "chip": "ym2612"
    },
    {
      "channel": 0,
      "note": 56,
      "start": 34.5472,
      "duration": 0.172,
      "velocity": 117,
      "chip": "ym2612"
    },
    {
      "channel": 4,
      "note": 35,
      "start": 34.5479,
      "duration": 0.0993,
      "velocity": 102,
      "chip": "ym2612"
    },
    {
      "channel": 5,
      "note": 110,
      "start": 34.5485,
      "duration": 0.3559,
      "velocity": 93,
      "chip": "ym2612"
    },
    {
      "channel": 4,
      "note": 37,
      "start": 34.6474,
      "duration": 0.074,
      "velocity": 102,
      "chip": "ym2612"
    },
    {
      "channel": 0,
      "note": 61,
      "start": 34.7193,
      "duration": 0.3842,
      "velocity": 117,
      "chip": "ym2612"
    },
    {
      "channel": 1,
      "note": 77,
      "start": 34.7199,
      "duration": 1.4623,
      "velocity": 99,
      "chip": "ym2612"
    },
    {
      "channel": 2,
      "note": 73,
      "start": 34.7205,
      "duration": 1.8466,
      "velocity": 100,
      "chip": "ym2612"
    },
    {
      "channel": 3,
      "note": 68,
      "start": 34.7211,
      "duration": 1.4618,
      "velocity": 107,
      "chip": "ym2612"
    },
    {
      "channel": 4,
      "note": 49,
      "start": 34.7216,
      "duration": 0.1822,
      "velocity": 102,
      "chip": "ym2612"
    },
    {
      "channel": 4,
      "note": 37,
      "start": 34.904,
      "duration": 0.5715,
      "velocity": 102,
      "chip": "ym2612"
    },
    {
      "channel": 5,
      "note": 110,
      "start": 34.9045,
      "duration": 0.371,
      "velocity": 93,
      "chip": "ym2612"
    },
    {
      "channel": 0,
      "note": 49,
      "start": 35.1037,
      "duration": 0.171,
      "velocity": 117,
      "chip": "ym2612"
    },
    {
      "channel": 0,
      "note": 61,
      "start": 35.2749,
      "duration": 0.1999,
      "velocity": 117,
      "chip": "ym2612"
    },
    {
      "channel": 5,
      "note": 110,
      "start": 35.2757,
      "duration": 0.3846,
      "velocity": 93,
      "chip": "ym2612"
    },
    {
      "channel": 0,
      "note": 59,
      "start": 35.4749,
      "duration": 0.1846,
      "velocity": 117,
      "chip": "ym2612"
    },
    {
      "channel": 4,
      "note": 49,
      "start": 35.4757,
      "duration": 0.2841,
      "velocity": 102,
      "chip": "ym2612"
    },
    {
      "channel": 0,
      "note": 56,
      "start": 35.6597,
      "duration": 0.1999,
      "velocity": 117,
      "chip": "ym2612"
    },
    {
      "channel": 5,
      "note": 110,
      "start": 35.6605,
      "duration": 0.3466,
      "velocity": 93,
      "chip": "ym2612"
    },
    {
      "channel": 4,
      "note": 37,
      "start": 35.76,
      "duration": 0.2465,
      "velocity": 102,
      "chip": "ym2612"
    },
    {
      "channel": 0,
      "note": 54,
      "start": 35.8597,
      "duration": 0.146,
      "velocity": 117,
      "chip": "ym2612"
    },
    {
      "channel": 0,
      "note": 56,
      "start": 36.0059,
      "duration": 0.1742,
      "velocity": 117,
      "chip": "ym2612"
    },
    {
      "channel": 4,
      "note": 49,
      "start": 36.0066,
      "duration": 0.3579,
      "velocity": 102,
      "chip": "ym2612"
    },
    {
      "channel": 5,
      "note": 110,
      "start": 36.0072,
      "duration": 0.358,
      "velocity": 93,
      "chip": "ym2612"
    },
    {
      "channel": 0,
      "note": 65,
      "start": 36.1802,
      "duration": 0.3842,
      "velocity": 117,
      "chip": "ym2612"
    },
    {
      "channel": 1,
      "note": 77,
      "start": 36.1824,
      "duration": 0.3826,
      "velocity": 99,
      "chip": "ym2612"
    },
    {
      "channel": 3,
      "note": 65,
      "start": 36.183,
      "duration": 0.7513,
      "velocity": 107,
      "chip": "ym2612"
    },
    {
      "channel": 4,
      "note": 41,
      "start": 36.3648,
      "duration": 0.5701,
      "velocity": 102,
      "chip": "ym2612"
    },
    {
      "channel": 5,
      "note": 110,
      "start": 36.3654,
      "duration": 0.3695,
      "velocity": 93,
      "chip": "ym2612"
    },
    {
      "channel": 0,
      "note": 53,
      "start": 36.5646,
      "duration": 0.169,
      "velocity": 117,
      "chip": "ym2612"
    },
    {
      "channel": 1,
      "note": 79,
      "start": 36.5651,
      "duration": 0.1691,
      "velocity": 99,
      "chip": "ym2612"
    },
    {
      "channel": 2,
      "note": 77,
      "start": 36.5673,
      "duration": 0.3665,
      "velocity": 100,
      "chip": "ym2612"
    },
    {
      "channel": 0,
      "note": 63,
      "start": 36.7338,
      "duration": 0.3846,
      "velocity": 117,
      "chip": "ym2612"
    },
    {
      "channel": 1,
      "note": 81,
      "start": 36.7344,
      "duration": 0.3846,
      "velocity": 99,
      "chip": "ym2612"
    },
    {
      "channel": 5,
      "note": 110,
      "start": 36.7351,
      "duration": 0.385,
      "velocity": 93,
      "chip": "ym2612"
    },
    {
      "channel": 2,
      "note": 79,
      "start": 36.9339,
      "duration": 0.1855,
      "velocity": 100,
      "chip": "ym2612"
    },
    {
      "channel": 3,
      "note": 67,
      "start": 36.9345,
      "duration": 0.7276,
      "velocity": 107,
      "chip": "ym2612"
    },
    {
      "channel": 4,
      "note": 53,
      "start": 36.9351,
      "duration": 0.2835,
      "velocity": 102,
      "chip": "ym2612"
    },
    {
      "channel": 0,
      "note": 60,
      "start": 37.1185,
      "duration": 0.1998,
      "velocity": 117,
      "chip": "ym2612"
    },
    {
      "channel": 1,
      "note": 79,
      "start": 37.1191,
      "duration": 0.1998,
      "velocity": 99,
      "chip": "ym2612"
    },
    {
      "channel": 2,
      "note": 81,
      "start": 37.1196,
      "duration": 0.3681,
      "velocity": 100,
      "chip": "ym2612"
    },
    {
      "channel": 5,
      "note": 110,
      "start": 37.1203,
      "duration": 0.3686,
      "velocity": 93,
      "chip": "ym2612"
    },
    {
      "channel": 4,
      "note": 41,
      "start": 37.2188,
      "duration": 0.2696,
      "velocity": 102,
      "chip": "ym2612"
    },
    {
      "channel": 0,
      "note": 58,
      "start": 37.3185,
      "duration": 0.1687,
      "velocity": 117,
      "chip": "ym2612"
    },
    {
      "channel": 1,
      "note": 77,
      "start": 37.3191,
      "duration": 0.3419,
      "velocity": 99,
      "chip": "ym2612"
    },
    {
      "channel": 0,
      "note": 60,
      "start": 37.4873,
      "duration": 0.1731,
      "velocity": 117,
      "chip": "ym2612"
    },
    {
      "channel": 2,
      "note": 79,
      "start": 37.4879,
      "duration": 0.1736,
      "velocity": 100,
      "chip": "ym2612"
    },
    {
      "channel": 4,
      "note": 39,
      "start": 37.4886,
      "duration": 0.0988,
      "velocity": 102,
      "chip": "ym2612"
    },
    {
      "channel": 5,
      "note": 110,
      "start": 37.4892,
      "duration": 0.3577,
      "velocity": 93,
      "chip": "ym2612"
    },
    {
      "channel": 4,
      "note": 41,
      "start": 37.5876,
      "duration": 0.0751,
      "velocity": 102,
      "chip": "ym2612"
    },
    {
      "channel": 0,
      "note": 65,
      "start": 37.6606,
      "duration": 0.385,
      "velocity": 117,
      "chip": "ym2612"
    },
    {
      "channel": 1,
      "note": 79,
      "start": 37.6612,
      "duration": 0.0846,
      "velocity": 99,
      "chip": "ym2612"
    },
    {
      "channel": 2,
      "note": 77,
      "start": 37.6617,
      "duration": 0.3845,
      "velocity": 100,
      "chip": "ym2612"
    },
    {
      "channel": 3,
      "note": 69,
      "start": 37.6623,
      "duration": 0.7543,
      "velocity": 107,
      "chip": "ym2612"
    },
    {
      "channel": 4,
      "note": 53,
      "start": 37.6628,
      "duration": 0.1835,
      "velocity": 102,
      "chip": "ym2612"
    },
    {
      "channel": 1,
      "note": 75,
      "start": 37.7459,
      "duration": 0.0997,
      "velocity": 99,
      "chip": "ym2612"
    },
    {
      "channel": 1,
      "note": 72,
      "start": 37.8458,
      "duration": 0.0998,
      "velocity": 99,
      "chip": "ym2612"
    },
    {
      "channel": 4,
      "note": 41,
      "start": 37.8464,
      "duration": 0.5707,
      "velocity": 102,
      "chip": "ym2612"
    },
    {
      "channel": 5,
      "note": 110,
      "start": 37.847,
      "duration": 0.3701,
      "velocity": 93,
      "chip": "ym2612"
    },
    {
      "channel": 1,
      "note": 70,
      "start": 37.9458,
      "duration": 1.0219,
      "velocity": 99,
      "chip": "ym2612"
    },
    {
      "channel": 0,
      "note": 53,
      "start": 38.0457,
      "duration": 0.17,
      "velocity": 117,
      "chip": "ym2612"
    },
    {
      "channel": 2,
      "note": 79,
      "start": 38.0464,
      "duration": 0.0737,
      "velocity": 100,
      "chip": "ym2612"
    },
    {
      "channel": 2,
      "note": 75,
      "start": 38.1203,
      "duration": 0.0961,
      "velocity": 100,
      "chip": "ym2612"
    },
    {
      "channel": 0,
      "note": 65,
      "start": 38.2159,
      "duration": 0.1999,
      "velocity": 117,
      "chip": "ym2612"
    },
    {
      "channel": 2,
      "note": 72,
      "start": 38.2165,
      "duration": 0.0994,
      "velocity": 100,
      "chip": "ym2612"
    },
    {
      "channel": 5,
      "note": 110,
      "start": 38.2172,
      "duration": 0.3835,
      "velocity": 93,
      "chip": "ym2612"
    },
    {
      "channel": 2,
      "note": 70,
      "start": 38.3161,
      "duration": 1.01,
      "velocity": 100,
      "chip": "ym2612"
    },
    {
      "channel": 0,
      "note": 63,
      "start": 38.416,
      "duration": 0.184,
      "velocity": 117,
      "chip": "ym2612"
    },
    {
      "channel": 3,
      "note": 70,
      "start": 38.4167,
      "duration": 0.7258,
      "velocity": 107,
      "chip": "ym2612"
    },
    {
      "channel": 4,
      "note": 53,
      "start": 38.4172,
      "duration": 0.283,
      "velocity": 102,
      "chip": "ym2612"
    },
    {
      "channel": 0,
      "note": 60,
      "start": 38.6001,
      "duration": 0.1999,
      "velocity": 117,
      "chip": "ym2612"
    },
    {
      "channel": 5,
      "note": 110,
      "start": 38.601,
      "duration": 0.368,
      "velocity": 93,
      "chip": "ym2612"
    },
    {
      "channel": 4,
      "note": 41,
      "start": 38.7005,
      "duration": 0.2679,
      "velocity": 102,
      "chip": "ym2612"
    },
    {
      "channel": 0,
      "note": 58,
      "start": 38.8002,
      "duration": 0.167,
      "velocity": 117,
      "chip": "ym2612"
    },
    {
      "channel": 0,
      "note": 60,
      "start": 38.9673,
      "duration": 0.174,
      "velocity": 117,
      "chip": "ym2612"
    },
    {
      "channel": 1,
      "note": 69,
      "start": 38.9679,
      "duration": 0.0994,
      "velocity": 99,
      "chip": "ym2612"
    },
    {
      "channel": 4,
      "note": 53,
      "start": 38.9686,
      "duration": 0.3582,
      "velocity": 102,
      "chip": "ym2612"
    },
    {
      "channel": 5,
      "note": 110,
      "start": 38.9691,
      "duration": 0.3582,
      "velocity": 93,
      "chip": "ym2612"
    },
    {
      "channel": 1,
      "note": 70,
      "start": 39.0673,
      "duration": 0.0745,
      "velocity": 99,
      "chip": "ym2612"
    },
    {
      "channel": 0,
      "note": 63,
      "start": 39.1415,
      "duration": 0.3841,
      "velocity": 117,
      "chip": "ym2612"
    },
    {
      "channel": 1,
      "note": 75,
      "start": 39.142,
      "duration": 0.1836,
      "velocity": 99,
      "chip": "ym2612"
    },
    {
      "channel": 3,
      "note": 72,
      "start": 39.1426,
      "duration": 1.3076,
      "velocity": 107,
      "chip": "ym2612"
    },
    {
      "channel": 1,
      "note": 77,
      "start": 39.3257,
      "duration": 0.2003,
      "velocity": 99,
      "chip": "ym2612"
    },
    {
      "channel": 2,
      "note": 69,
      "start": 39.3263,
      "duration": 0.0994,
      "velocity": 100,
      "chip": "ym2612"
    },
    {
      "channel": 4,
      "note": 39,
      "start": 39.327,
      "duration": 0.57,
      "velocity": 102,
      "chip": "ym2612"
    },
    {
      "channel": 5,
      "note": 110,
      "start": 39.3275,
      "duration": 0.37,
      "velocity": 93,
      "chip": "ym2612"
    },
    {
      "channel": 2,
      "note": 70,
      "start": 39.4258,
      "duration": 0.1008,
      "velocity": 100,
      "chip": "ym2612"
    },
    {
      "channel": 0,
      "note": 51,
      "start": 39.5257,
      "duration": 0.1701,
      "velocity": 117,
      "chip": "ym2612"
    },
    {
      "channel": 1,
      "note": 79,
      "start": 39.5263,
      "duration": 0.17,
      "velocity": 99,
      "chip": "ym2612"
    },
    {
      "channel": 2,
      "note": 75,
      "start": 39.5268,
      "duration": 0.1701,
      "velocity": 100,
      "chip": "ym2612"
    },
    {
      "channel": 0,
      "note": 61,
      "start": 39.6959,
      "duration": 0.3851,
      "velocity": 117,
      "chip": "ym2612"
    },
    {
      "channel": 1,
      "note": 80,
      "start": 39.6965,
      "duration": 0.1994,
      "velocity": 99,
      "chip": "ym2612"
    },
    {
      "channel": 2,
      "note": 77,
      "start": 39.6971,
      "duration": 0.1993,
      "velocity": 100,
      "chip": "ym2612"
    },
    {
      "channel": 5,
      "note": 110,
      "start": 39.6978,
      "duration": 0.385,
      "velocity": 93,
      "chip": "ym2612"
    },
    {
      "channel": 1,
      "note": 82,
      "start": 39.896,
      "duration": 0.1855,
      "velocity": 99,
      "chip": "ym2612"
    },
    {
      "channel": 2,
      "note": 79,
      "start": 39.8966,
      "duration": 0.1855,
      "velocity": 100,
      "chip": "ym2612"
    },
    {
      "channel": 4,
      "note": 51,
      "start": 39.8972,
      "duration": 0.284,
      "velocity": 102,
      "chip": "ym2612"
    },
    {
      "channel": 0,
      "note": 58,
      "start": 40.0811,
      "duration": 0.1999,
      "velocity": 117,
      "chip": "ym2612"
    },
    {
      "channel": 1,
      "note": 84,
      "start": 40.0817,
      "duration": 0.1999,
      "velocity": 99,
      "chip": "ym2612"
    },
    {
      "channel": 2,
      "note": 80,
      "start": 40.0823,
      "duration": 0.1999,
      "velocity": 100,
      "chip": "ym2612"
    },
    {
      "channel": 5,
      "note": 110,
      "start": 40.083,
      "duration": 0.3683,
      "velocity": 93,
      "chip": "ym2612"
    },
    {
      "channel": 4,
      "note": 39,
      "start": 40.1814,
      "duration": 0.2693,
      "velocity": 102,
      "chip": "ym2612"
    },
    {
      "channel": 0,
      "note": 56,
      "start": 40.2812,
      "duration": 0.1673,
      "velocity": 117,
      "chip": "ym2612"
    },
    {
      "channel": 1,
      "note": 87,
      "start": 40.2817,
      "duration": 0.1673,
      "velocity": 99,
      "chip": "ym2612"
    },
    {
      "channel": 2,
      "note": 82,
      "start": 40.2823,
      "duration": 0.1673,
      "velocity": 100,
      "chip": "ym2612"
    },
    {
      "channel": 0,
      "note": 58,
      "start": 40.4486,
      "duration": 0.1721,
      "velocity": 117,
      "chip": "ym2612"
    },
    {
      "channel": 1,
      "note": 91,
      "start": 40.4492,
      "duration": 1.6316,
      "velocity": 99,
      "chip": "ym2612"
    },
    {
      "channel": 2,
      "note": 84,
      "start": 40.4498,
      "duration": 0.1715,
      "velocity": 100,
      "chip": "ym2612"
    },
    {
      "channel": 3,
      "note": 67,
      "start": 40.4504,
      "duration": 0.0983,
      "velocity": 107,
      "chip": "ym2612"
    },
    {
      "channel": 4,
      "note": 37,
      "start": 40.4509,
      "duration": 0.0984,
      "velocity": 102,
      "chip": "ym2612"
    },
    {
      "channel": 5,
      "note": 110,
      "start": 40.4515,
      "duration": 0.3542,
      "velocity": 93,
      "chip": "ym2612"
    },
    {
      "channel": 3,
      "note": 65,
      "start": 40.5489,
      "duration": 0.073,
      "velocity": 107,
      "chip": "ym2612"
    },
    {
      "channel": 4,
      "note": 39,
      "start": 40.5494,
      "duration": 0.073,
      "velocity": 102,
      "chip": "ym2612"
    },
    {
      "channel": 0,
      "note": 63,
      "start": 40.6208,
      "duration": 0.3835,
      "velocity": 117,
      "chip": "ym2612"
    },
    {
      "channel": 2,
      "note": 87,
      "start": 40.6215,
      "duration": 0.183,
      "velocity": 100,
      "chip": "ym2612"
    },
    {
      "channel": 3,
      "note": 67,
      "start": 40.6221,
      "duration": 0.5541,
      "velocity": 107,
      "chip": "ym2612"
    },
    {
      "channel": 4,
      "note": 51,
      "start": 40.6226,
      "duration": 0.1825,
      "velocity": 102,
      "chip": "ym2612"
    },
    {
      "channel": 2,
      "note": 91,
      "start": 40.8047,
      "duration": 1.6601,
      "velocity": 100,
      "chip": "ym2612"
    },
    {
      "channel": 4,
      "note": 39,
      "start": 40.8053,
      "duration": 0.5714,
      "velocity": 102,
      "chip": "ym2612"
    },
    {
      "channel": 5,
      "note": 110,
      "start": 40.8059,
      "duration": 0.3709,
      "velocity": 93,
      "chip": "ym2612"
    },
    {
      "channel": 0,
      "note": 51,
      "start": 41.0045,
      "duration": 0.171,
      "velocity": 117,
      "chip": "ym2612"
    },
    {
      "channel": 0,
      "note": 63,
      "start": 41.1756,
      "duration": 0.1999,
      "velocity": 117,
      "chip": "ym2612"
    },
    {
      "channel": 3,
      "note": 79,
      "start": 41.1763,
      "duration": 0.0993,
      "velocity": 107,
      "chip": "ym2612"
    },
    {
      "channel": 5,
      "note": 110,
      "start": 41.177,
      "duration": 0.3839,
      "velocity": 93,
      "chip": "ym2612"
    },
    {
      "channel": 3,
      "note": 77,
      "start": 41.2758,
      "duration": 0.1003,
      "velocity": 107,
      "chip": "ym2612"
    },
    {
      "channel": 0,
      "note": 61,
      "start": 41.3756,
      "duration": 0.1844,
      "velocity": 117,
      "chip": "ym2612"
    },
    {
      "channel": 3,
      "note": 79,
      "start": 41.3763,
      "duration": 0.7052,
      "velocity": 107,
      "chip": "ym2612"
    },
    {
      "channel": 4,
      "note": 51,
      "start": 41.3769,
      "duration": 0.2834,
      "velocity": 102,
      "chip": "ym2612"
    },
    {
      "channel": 0,
      "note": 58,
      "start": 41.5602,
      "duration": 0.1999,
      "velocity": 117,
      "chip": "ym2612"
    },
    {
      "channel": 5,
      "note": 110,
      "start": 41.561,
      "duration": 0.3466,
      "velocity": 93,
      "chip": "ym2612"
    },
    {
      "channel": 4,
      "note": 39,
      "start": 41.6605,
      "duration": 0.2465,
      "velocity": 102,
      "chip": "ym2612"
    },
    {
      "channel": 0,
      "note": 56,
      "start": 41.7602,
      "duration": 0.146,
      "velocity": 117,
      "chip": "ym2612"
    },
    {
      "channel": 0,
      "note": 58,
      "start": 41.9064,
      "duration": 0.1738,
      "velocity": 117,
      "chip": "ym2612"
    },
    {
      "channel": 4,
      "note": 51,
      "start": 41.9072,
      "duration": 0.3577,
      "velocity": 102,
      "chip": "ym2612"
    },
    {
      "channel": 5,
      "note": 110,
      "start": 41.9078,
      "duration": 0.3578,
      "velocity": 93,
      "chip": "ym2612"
    },
    {
      "channel": 0,
      "note": 63,
      "start": 42.0804,
      "duration": 0.3837,
      "velocity": 117,
      "chip": "ym2612"
    },
    {
      "channel": 1,
      "note": 82,
      "start": 42.081,
      "duration": 0.0832,
      "velocity": 99,
      "chip": "ym2612"
    },
    {
      "channel": 3,
      "note": 80,
      "start": 42.0817,
      "duration": 0.7531,
      "velocity": 107,
      "chip": "ym2612"
    },
    {
      "channel": 1,
      "note": 80,
      "start": 42.1643,
      "duration": 0.0998,
      "velocity": 99,
      "chip": "ym2612"
    },
    {
      "channel": 1,
      "note": 79,
      "start": 42.2643,
      "duration": 0.0998,
      "velocity": 99,
      "chip": "ym2612"
    },
    {
      "channel": 4,
      "note": 39,
      "start": 42.2651,
      "duration": 0.5703,
      "velocity": 102,
      "chip": "ym2612"
    },
    {
      "channel": 5,
      "note": 110,
      "start": 42.2657,
      "duration": 0.3702,
      "velocity": 93,
      "chip": "ym2612"
    },
    {
      "channel": 1,
      "note": 75,
      "start": 42.3643,
      "duration": 1.1949,
      "velocity": 99,
      "chip": "ym2612"
    },
    {
      "channel": 0,
      "note": 51,
      "start": 42.4642,
      "duration": 0.1703,
      "velocity": 117,
      "chip": "ym2612"
    },
    {
      "channel": 2,
      "note": 82,
      "start": 42.4649,
      "duration": 0.0743,
      "velocity": 100,
      "chip": "ym2612"
    },
    {
      "channel": 2,
      "note": 80,
      "start": 42.5394,
      "duration": 0.0958,
      "velocity": 100,
      "chip": "ym2612"
    },
    {
      "channel": 0,
      "note": 61,
      "start": 42.6347,
      "duration": 0.3846,
      "velocity": 117,
      "chip": "ym2612"
    },
    {
      "channel": 2,
      "note": 79,
      "start": 42.6353,
      "duration": 0.0994,
      "velocity": 100,
      "chip": "ym2612"
    },
    {
      "channel": 5,
      "note": 110,
      "start": 42.636,
      "duration": 0.3841,
      "velocity": 93,
      "chip": "ym2612"
    },
    {
      "channel": 2,
      "note": 75,
      "start": 42.7349,
      "duration": 1.2086,
      "velocity": 100,
      "chip": "ym2612"
    },
    {
      "channel": 3,
      "note": 82,
      "start": 42.8349,
      "duration": 0.7249,
      "velocity": 107,
      "chip": "ym2612"
    },
    {
      "channel": 4,
      "note": 51,
      "start": 42.8355,
      "duration": 0.2841,
      "velocity": 102,
      "chip": "ym2612"
    },
    {
      "channel": 0,
      "note": 58,
      "start": 43.0195,
      "duration": 0.1999,
      "velocity": 117,
      "chip": "ym2612"
    },
    {
      "channel": 5,
      "note": 110,
      "start": 43.0203,
      "duration": 0.3675,
      "velocity": 93,
      "chip": "ym2612"
    },
    {
      "channel": 4,
      "note": 39,
      "start": 43.1198,
      "duration": 0.2674,
      "velocity": 102,
      "chip": "ym2612"
    },
    {
      "channel": 0,
      "note": 56,
      "start": 43.2196,
      "duration": 0.1669,
      "velocity": 117,
      "chip": "ym2612"
    },
    {
      "channel": 0,
      "note": 58,
      "start": 43.3867,
      "duration": 0.172,
      "velocity": 117,
      "chip": "ym2612"
    },
    {
      "channel": 4,
      "note": 37,
      "start": 43.3874,
      "duration": 0.0993,
      "velocity": 102,
      "chip": "ym2612"
    },
    {
      "channel": 5,
      "note": 110,
      "start": 43.388,
      "duration": 0.3561,
      "velocity": 93,
      "chip": "ym2612"
    },
    {
      "channel": 4,
      "note": 39,
      "start": 43.4869,
      "duration": 0.0734,
      "velocity": 102,
      "chip": "ym2612"
    },
    {
      "channel": 0,
      "note": 63,
      "start": 43.5588,
      "duration": 0.3836,
      "velocity": 117,
      "chip": "ym2612"
    },
    {
      "channel": 1,
      "note": 87,
      "start": 43.5593,
      "duration": 0.1831,
      "velocity": 99,
      "chip": "ym2612"
    },
    {
      "channel": 3,
      "note": 79,
      "start": 43.56,
      "duration": 0.183,
      "velocity": 107,
      "chip": "ym2612"
    },
    {
      "channel": 4,
      "note": 51,
      "start": 43.5606,
      "duration": 0.183,
      "velocity": 102,
      "chip": "ym2612"
    },
    {
      "channel": 1,
      "note": 84,
      "start": 43.7425,
      "duration": 0.2004,
      "velocity": 99,
      "chip": "ym2612"
    },
    {
      "channel": 3,
      "note": 75,
      "start": 43.7432,
      "duration": 0.2009,
      "velocity": 107,
      "chip": "ym2612"
    },
    {
      "channel": 4,
      "note": 39,
      "start": 43.7438,
      "duration": 0.57,
      "velocity": 102,
      "chip": "ym2612"
    },
    {
      "channel": 5,
      "note": 110,
      "start": 43.7443,
      "duration": 0.37,
      "velocity": 93,
      "chip": "ym2612"
    },
    {
      "channel": 0,
      "note": 51,
      "start": 43.9425,
      "duration": 0.17,
      "velocity": 117,
      "chip": "ym2612"
    },
    {
      "channel": 1,
      "note": 82,
      "start": 43.9431,
      "duration": 0.17,
      "velocity": 99,
      "chip": "ym2612"
    },
    {
      "channel": 2,
      "note": 87,
      "start": 43.9436,
      "duration": 0.17,
      "velocity": 100,
      "chip": "ym2612"
    },
    {
      "channel": 3,
      "note": 70,
      "start": 43.9442,
      "duration": 1.093,
      "velocity": 107,
      "chip": "ym2612"
    },
    {
      "channel": 0,
      "note": 63,
      "start": 44.1128,
      "duration": 0.1998,
      "velocity": 117,
      "chip": "ym2612"
    },
    {
      "channel": 1,
      "note": 75,
      "start": 44.1133,
      "duration": 0.9233,
      "velocity": 99,
      "chip": "ym2612"
    },
    {
      "channel": 2,
      "note": 84,
      "start": 44.1139,
      "duration": 0.1993,
      "velocity": 100,
      "chip": "ym2612"
    },
    {
      "channel": 5,
      "note": 110,
      "start": 44.1146,
      "duration": 0.3837,
      "velocity": 93,
      "chip": "ym2612"
    },
    {
      "channel": 0,
      "note": 61,
      "start": 44.3127,
      "duration": 0.1842,
      "velocity": 117,
      "chip": "ym2612"
    },
    {
      "channel": 2,
      "note": 82,
      "start": 44.3133,
      "duration": 0.1842,
      "velocity": 100,
      "chip": "ym2612"
    },
    {
      "channel": 4,
      "note": 51,
      "start": 44.314,
      "duration": 0.2832,
      "velocity": 102,
      "chip": "ym2612"
    },
    {
      "channel": 0,
      "note": 58,
      "start": 44.4971,
      "duration": 0.1998,
      "velocity": 117,
      "chip": "ym2612"
    },
    {
      "channel": 2,
      "note": 75,
      "start": 44.4977,
      "duration": 0.9246,
      "velocity": 100,
      "chip": "ym2612"
    },
    {
      "channel": 5,
      "note": 110,
      "start": 44.4984,
      "duration": 0.367,
      "velocity": 93,
      "chip": "ym2612"
    },
    {
      "channel": 4,
      "note": 39,
      "start": 44.5973,
      "duration": 0.2675,
      "velocity": 102,
      "chip": "ym2612"
    },
    {
      "channel": 0,
      "note": 56,
      "start": 44.6971,
      "duration": 0.167,
      "velocity": 117,
      "chip": "ym2612"
    },
    {
      "channel": 0,
      "note": 58,
      "start": 44.8642,
      "duration": 0.1718,
      "velocity": 117,
      "chip": "ym2612"
    },
    {
      "channel": 4,
      "note": 51,
      "start": 44.865,
      "duration": 0.357,
      "velocity": 102,
      "chip": "ym2612"
    },
    {
      "channel": 5,
      "note": 110,
      "start": 44.8656,
      "duration": 0.357,
      "velocity": 93,
      "chip": "ym2612"
    },
    {
      "channel": 0,
      "note": 61,
      "start": 45.0362,
      "duration": 0.3851,
      "velocity": 117,
      "chip": "ym2612"
    },
    {
      "channel": 1,
      "note": 73,
      "start": 45.0368,
      "duration": 0.1845,
      "velocity": 99,
      "chip": "ym2612"
    },
    {
      "channel": 3,
      "note": 73,
      "start": 45.0374,
      "duration": 0.7551,
      "velocity": 107,
      "chip": "ym2612"
    },
    {
      "channel": 1,
      "note": 77,
      "start": 45.2215,
      "duration": 0.2003,
      "velocity": 99,
      "chip": "ym2612"
    },
    {
      "channel": 4,
      "note": 37,
      "start": 45.2222,
      "duration": 0.5708,
      "velocity": 102,
      "chip": "ym2612"
    },
    {
      "channel": 5,
      "note": 110,
      "start": 45.2227,
      "duration": 0.3703,
      "velocity": 93,
      "chip": "ym2612"
    },
    {
      "channel": 0,
      "note": 49,
      "start": 45.4214,
      "duration": 0.1699,
      "velocity": 117,
      "chip": "ym2612"
    },
    {
      "channel": 1,
      "note": 80,
      "start": 45.422,
      "duration": 0.1698,
      "velocity": 99,
      "chip": "ym2612"
    },
    {
      "channel": 2,
      "note": 73,
      "start": 45.4225,
      "duration": 0.1698,
      "velocity": 100,
      "chip": "ym2612"
    },
    {
      "channel": 0,
      "note": 59,
      "start": 45.5914,
      "duration": 0.3856,
      "velocity": 117,
      "chip": "ym2612"
    },
    {
      "channel": 1,
      "note": 85,
      "start": 45.592,
      "duration": 0.1994,
      "velocity": 99,
      "chip": "ym2612"
    },
    {
      "channel": 2,
      "note": 77,
      "start": 45.5925,
      "duration": 0.1994,
      "velocity": 100,
      "chip": "ym2612"
    },
    {
      "channel": 5,
      "note": 110,
      "start": 45.5932,
      "duration": 0.3855,
      "velocity": 93,
      "chip": "ym2612"
    },
    {
      "channel": 1,
      "note": 89,
      "start": 45.7915,
      "duration": 0.186,
      "velocity": 99,
      "chip": "ym2612"
    },
    {
      "channel": 2,
      "note": 80,
      "start": 45.7921,
      "duration": 0.186,
      "velocity": 100,
      "chip": "ym2612"
    },
    {
      "channel": 3,
      "note": 77,
      "start": 45.7926,
      "duration": 0.7293,
      "velocity": 107,
      "chip": "ym2612"
    },
    {
      "channel": 4,
      "note": 49,
      "start": 45.7932,
      "duration": 0.2841,
      "velocity": 102,
      "chip": "ym2612"
    },
    {
      "channel": 0,
      "note": 56,
      "start": 45.9771,
      "duration": 0.1999,
      "velocity": 117,
      "chip": "ym2612"
    },
    {
      "channel": 1,
      "note": 92,
      "start": 45.9777,
      "duration": 0.1999,
      "velocity": 99,
      "chip": "ym2612"
    },
    {
      "channel": 2,
      "note": 85,
      "start": 45.9783,
      "duration": 0.1999,
      "velocity": 100,
      "chip": "ym2612"
    },
    {
      "channel": 5,
      "note": 110,
      "start": 45.979,
      "duration": 0.3686,
      "velocity": 93,
      "chip": "ym2612"
    },
    {
      "channel": 4,
      "note": 37,
      "start": 46.0774,
      "duration": 0.2696,
      "velocity": 102,
      "chip": "ym2612"
    },
    {
      "channel": 0,
      "note": 54,
      "start": 46.1772,
      "duration": 0.1681,
      "velocity": 117,
      "chip": "ym2612"
    },
    {
      "channel": 1,
      "note": 97,
      "start": 46.1777,
      "duration": 0.1681,
      "velocity": 99,
      "chip": "ym2612"
    },
    {
      "channel": 2,
      "note": 89,
      "start": 46.1783,
      "duration": 0.1682,
      "velocity": 100,
      "chip": "ym2612"
    },
    {
      "channel": 0,
      "note": 56,
      "start": 46.3455,
      "duration": 0.1752,
      "velocity": 117,
      "chip": "ym2612"
    },
    {
      "channel": 1,
      "note": 101,
      "start": 46.3461,
      "duration": 1.6371,
      "velocity": 107,
      "chip": "ym2612"
    },
    {
      "channel": 2,
      "note": 92,
      "start": 46.3466,
      "duration": 0.1748,
      "velocity": 100,
      "chip": "ym2612"
    },
    {
      "channel": 4,
      "note": 35,
      "start": 46.3472,
      "duration": 0.0983,
      "velocity": 102,
      "chip": "ym2612"
    },
    {
      "channel": 5,
      "note": 110,
      "start": 46.3478,
      "duration": 0.3591,
      "velocity": 93,
      "chip": "ym2612"
    },
    {
      "channel": 4,
      "note": 37,
      "start": 46.4457,
      "duration": 0.0767,
      "velocity": 102,
      "chip": "ym2612"
    },
    {
      "channel": 0,
      "note": 61,
      "start": 46.5209,
      "duration": 0.3846,
      "velocity": 117,
      "chip": "ym2612"
    },
    {
      "channel": 2,
      "note": 97,
      "start": 46.5215,
      "duration": 0.1842,
      "velocity": 100,
      "chip": "ym2612"
    },
    {
      "channel": 3,
      "note": 68,
      "start": 46.5221,
      "duration": 1.4638,
      "velocity": 107,
      "chip": "ym2612"
    },
    {
      "channel": 4,
      "note": 49,
      "start": 46.5226,
      "duration": 0.1837,
      "velocity": 102,
      "chip": "ym2612"
    },
    {
      "channel": 2,
      "note": 101,
      "start": 46.7058,
      "duration": 1.2794,
      "velocity": 107,
      "chip": "ym2612"
    },
    {
      "channel": 4,
      "note": 37,
      "start": 46.7065,
      "duration": 0.5713,
      "velocity": 102,
      "chip": "ym2612"
    },
    {
      "channel": 5,
      "note": 110,
      "start": 46.707,
      "duration": 0.3707,
      "velocity": 93,
      "chip": "ym2612"
    },
    {
      "channel": 0,
      "note": 49,
      "start": 46.9056,
      "duration": 0.1713,
      "velocity": 117,
      "chip": "ym2612"
    },
    {
      "channel": 0,
      "note": 61,
      "start": 47.0771,
      "duration": 0.1999,
      "velocity": 117,
      "chip": "ym2612"
    },
    {
      "channel": 5,
      "note": 110,
      "start": 47.0779,
      "duration": 0.3837,
      "velocity": 93,
      "chip": "ym2612"
    },
    {
      "channel": 0,
      "note": 59,
      "start": 47.2772,
      "duration": 0.1837,
      "velocity": 117,
      "chip": "ym2612"
    },
    {
      "channel": 4,
      "note": 49,
      "start": 47.2779,
      "duration": 0.2832,
      "velocity": 102,
      "chip": "ym2612"
    },
    {
      "channel": 0,
      "note": 56,
      "start": 47.461,
      "duration": 0.1999,
      "velocity": 117,
      "chip": "ym2612"
    },
    {
      "channel": 5,
      "note": 110,
      "start": 47.4618,
      "duration": 0.3465,
      "velocity": 93,
      "chip": "ym2612"
    },
    {
      "channel": 4,
      "note": 37,
      "start": 47.5613,
      "duration": 0.2464,
      "velocity": 102,
      "chip": "ym2612"
    },
    {
      "channel": 0,
      "note": 54,
      "start": 47.6611,
      "duration": 0.1459,
      "velocity": 117,
      "chip": "ym2612"
    },
    {
      "channel": 0,
      "note": 56,
      "start": 47.8072,
      "duration": 0.1738,
      "velocity": 117,
      "chip": "ym2612"
    },
    {
      "channel": 4,
      "note": 49,
      "start": 47.808,
      "duration": 0.3575,
      "velocity": 102,
      "chip": "ym2612"
    },
    {
      "channel": 5,
      "note": 110,
      "start": 47.8085,
      "duration": 0.3576,
      "velocity": 93,
      "chip": "ym2612"
    },
    {
      "channel": 0,
      "note": 65,
      "start": 47.9811,
      "duration": 0.3841,
      "velocity": 117,
      "chip": "ym2612"
    },
    {
      "channel": 1,
      "note": 72,
      "start": 47.9833,
      "duration": 1.4793,
      "velocity": 107,
      "chip": "ym2612"
    },
    {
      "channel": 2,
      "note": 65,
      "start": 47.9854,
      "duration": 1.4778,
      "velocity": 107,
      "chip": "ym2612"
    },
    {
      "channel": 3,
      "note": 69,
      "start": 47.986,
      "duration": 1.4777,
      "velocity": 107,
      "chip": "ym2612"
    },
    {
      "channel": 4,
      "note": 41,
      "start": 48.1657,
      "duration": 0.5708,
      "velocity": 102,
      "chip": "ym2612"
    },
    {
      "channel": 5,
      "note": 110,
      "start": 48.1663,
      "duration": 0.3708,
      "velocity": 93,
      "chip": "ym2612"
    },
    {
      "channel": 0,
      "note": 53,
      "start": 48.3654,
      "duration": 0.171,
      "velocity": 117,
      "chip": "ym2612"
    },
    {
      "channel": 0,
      "note": 63,
      "start": 48.5364,
      "duration": 0.3863,
      "velocity": 117,
      "chip": "ym2612"
    },
    {
      "channel": 5,
      "note": 110,
      "start": 48.5373,
      "duration": 0.3863,
      "velocity": 93,
      "chip": "ym2612"
    },
    {
      "channel": 4,
      "note": 53,
      "start": 48.7367,
      "duration": 0.2863,
      "velocity": 102,
      "chip": "ym2612"
    },
    {
      "channel": 0,
      "note": 60,
      "start": 48.9229,
      "duration": 0.1999,
      "velocity": 117,
      "chip": "ym2612"
    },
    {
      "channel": 5,
      "note": 110,
      "start": 48.9237,
      "duration": 0.3675,
      "velocity": 93,
      "chip": "ym2612"
    },
    {
      "channel": 4,
      "note": 41,
      "start": 49.0232,
      "duration": 0.2674,
      "velocity": 102,
      "chip": "ym2612"
    },
    {
      "channel": 0,
      "note": 58,
      "start": 49.1229,
      "duration": 0.1669,
      "velocity": 117,
      "chip": "ym2612"
    },
    {
      "channel": 0,
      "note": 60,
      "start": 49.29,
      "duration": 0.1721,
      "velocity": 117,
      "chip": "ym2612"
    },
    {
      "channel": 4,
      "note": 39,
      "start": 49.2908,
      "duration": 0.0993,
      "velocity": 102,
      "chip": "ym2612"
    },
    {
      "channel": 5,
      "note": 110,
      "start": 49.2914,
      "duration": 0.3557,
      "velocity": 93,
      "chip": "ym2612"
    },
    {
      "channel": 4,
      "note": 41,
      "start": 49.3903,
      "duration": 0.0741,
      "velocity": 102,
      "chip": "ym2612"
    },
    {
      "channel": 0,
      "note": 65,
      "start": 49.4622,
      "duration": 0.384,
      "velocity": 117,
      "chip": "ym2612"
    },
    {
      "channel": 1,
      "note": 67,
      "start": 49.4628,
      "duration": 1.4775,
      "velocity": 107,
      "chip": "ym2612"
    },
    {
      "channel": 2,
      "note": 75,
      "start": 49.4634,
      "duration": 1.4774,
      "velocity": 107,
      "chip": "ym2612"
    },
    {
      "channel": 3,
      "note": 70,
      "start": 49.464,
      "duration": 1.4774,
      "velocity": 107,
      "chip": "ym2612"
    },
    {
      "channel": 4,
      "note": 53,
      "start": 49.4645,
      "duration": 0.182,
      "velocity": 102,
      "chip": "ym2612"
    },
    {
      "channel": 4,
      "note": 41,
      "start": 49.6467,
      "duration": 0.5695,
      "velocity": 102,
      "chip": "ym2612"
    },
    {
      "channel": 5,
      "note": 110,
      "start": 49.6472,
      "duration": 0.3689,
      "velocity": 93,
      "chip": "ym2612"
    },
    {
      "channel": 0,
      "note": 53,
      "start": 49.8465,
      "duration": 0.1689,
      "velocity": 117,
      "chip": "ym2612"
    },
    {
      "channel": 0,
      "note": 65,
      "start": 50.0155,
      "duration": 0.1999,
      "velocity": 117,
      "chip": "ym2612"
    },
    {
      "channel": 5,
      "note": 110,
      "start": 50.0163,
      "duration": 0.3846,
      "velocity": 93,
      "chip": "ym2612"
    },
    {
      "channel": 0,
      "note": 63,
      "start": 50.2156,
      "duration": 0.1846,
      "velocity": 117,
      "chip": "ym2612"
    },
    {
      "channel": 4,
      "note": 53,
      "start": 50.2163,
      "duration": 0.2841,
      "velocity": 102,
      "chip": "ym2612"
    },
    {
      "channel": 0,
      "note": 60,
      "start": 50.4003,
      "duration": 0.1999,
      "velocity": 117,
      "chip": "ym2612"
    },
    {
      "channel": 5,
      "note": 110,
      "start": 50.4011,
      "duration": 0.3675,
      "velocity": 93,
      "chip": "ym2612"
    },
    {
      "channel": 4,
      "note": 41,
      "start": 50.5006,
      "duration": 0.2674,
      "velocity": 102,
      "chip": "ym2612"
    },
    {
      "channel": 0,
      "note": 58,
      "start": 50.6004,
      "duration": 0.1669,
      "velocity": 117,
      "chip": "ym2612"
    },
    {
      "channel": 0,
      "note": 60,
      "start": 50.7675,
      "duration": 0.1722,
      "velocity": 117,
      "chip": "ym2612"
    },
    {
      "channel": 4,
      "note": 53,
      "start": 50.7683,
      "duration": 0.3566,
      "velocity": 102,
      "chip": "ym2612"
    },
    {
      "channel": 5,
      "note": 110,
      "start": 50.7688,
      "duration": 0.3566,
      "velocity": 93,
      "chip": "ym2612"
    },
    {
      "channel": 0,
      "note": 63,
      "start": 50.9399,
      "duration": 0.3847,
      "velocity": 117,
      "chip": "ym2612"
    },
    {
      "channel": 1,
      "note": 75,
      "start": 50.9405,
      "duration": 1.4819,
      "velocity": 107,
      "chip": "ym2612"
    },
    {
      "channel": 2,
      "note": 68,
      "start": 50.941,
      "duration": 1.482,
      "velocity": 107,
      "chip": "ym2612"
    },
    {
      "channel": 3,
      "note": 70,
      "start": 50.9415,
      "duration": 1.482,
      "velocity": 107,
      "chip": "ym2612"
    },
    {
      "channel": 4,
      "note": 39,
      "start": 51.125,
      "duration": 0.5713,
      "velocity": 102,
      "chip": "ym2612"
    },
    {
      "channel": 5,
      "note": 110,
      "start": 51.1256,
      "duration": 0.3713,
      "velocity": 93,
      "chip": "ym2612"
    },
    {
      "channel": 0,
      "note": 51,
      "start": 51.3248,
      "duration": 0.1713,
      "velocity": 117,
      "chip": "ym2612"
    },
    {
      "channel": 0,
      "note": 61,
      "start": 51.4963,
      "duration": 0.3863,
      "velocity": 117,
      "chip": "ym2612"
    },
    {
      "channel": 5,
      "note": 110,
      "start": 51.4971,
      "duration": 0.3863,
      "velocity": 93,
      "chip": "ym2612"
    },
    {
      "channel": 4,
      "note": 51,
      "start": 51.6965,
      "duration": 0.2863,
      "velocity": 102,
      "chip": "ym2612"
    },
    {
      "channel": 0,
      "note": 58,
      "start": 51.8827,
      "duration": 0.1999,
      "velocity": 117,
      "chip": "ym2612"
    },
    {
      "channel": 5,
      "note": 110,
      "start": 51.8835,
      "duration": 0.3675,
      "velocity": 93,
      "chip": "ym2612"
    },
    {
      "channel": 4,
      "note": 39,
      "start": 51.983,
      "duration": 0.2674,
      "velocity": 102,
      "chip": "ym2612"
    },
    {
      "channel": 0,
      "note": 56,
      "start": 52.0827,
      "duration": 0.1669,
      "velocity": 117,
      "chip": "ym2612"
    },
    {
      "channel": 0,
      "note": 58,
      "start": 52.2498,
      "duration": 0.172,
      "velocity": 117,
      "chip": "ym2612"
    },
    {
      "channel": 4,
      "note": 37,
      "start": 52.2506,
      "duration": 0.0993,
      "velocity": 102,
      "chip": "ym2612"
    },
    {
      "channel": 5,
      "note": 110,
      "start": 52.2512,
      "duration": 0.3557,
      "velocity": 93,
      "chip": "ym2612"
    },
    {
      "channel": 4,
      "note": 39,
      "start": 52.3501,
      "duration": 0.074,
      "velocity": 102,
      "chip": "ym2612"
    },
    {
      "channel": 0,
      "note": 63,
      "start": 52.422,
      "duration": 0.384,
      "velocity": 117,
      "chip": "ym2612"
    },
    {
      "channel": 1,
      "note": 58,
      "start": 52.4226,
      "duration": 1.4603,
      "velocity": 107,
      "chip": "ym2612"
    },
    {
      "channel": 2,
      "note": 67,
      "start": 52.4232,
      "duration": 1.4604,
      "velocity": 107,
      "chip": "ym2612"
    },
    {
      "channel": 3,
      "note": 63,
      "start": 52.4237,
      "duration": 1.4605,
      "velocity": 107,
      "chip": "ym2612"
    },
    {
      "channel": 4,
      "note": 51,
      "start": 52.4242,
      "duration": 0.1821,
      "velocity": 102,
      "chip": "ym2612"
    },
    {
      "channel": 4,
      "note": 39,
      "start": 52.6064,
      "duration": 0.5715,
      "velocity": 102,
      "chip": "ym2612"
    },
    {
      "channel": 5,
      "note": 110,
      "start": 52.607,
      "duration": 0.3709,
      "velocity": 93,
      "chip": "ym2612"
    },
    {
      "channel": 0,
      "note": 51,
      "start": 52.8062,
      "duration": 0.171,
      "velocity": 117,
      "chip": "ym2612"
    },
    {
      "channel": 0,
      "note": 63,
      "start": 52.9773,
      "duration": 0.1999,
      "velocity": 117,
      "chip": "ym2612"
    },
    {
      "channel": 5,
      "note": 110,
      "start": 52.9781,
      "duration": 0.3849,
      "velocity": 93,
      "chip": "ym2612"
    },
    {
      "channel": 0,
      "note": 61,
      "start": 53.1773,
      "duration": 0.1849,
      "velocity": 117,
      "chip": "ym2612"
    },
    {
      "channel": 4,
      "note": 51,
      "start": 53.1781,
      "duration": 0.2844,
      "velocity": 102,
      "chip": "ym2612"
    },
    {
      "channel": 0,
      "note": 58,
      "start": 53.3623,
      "duration": 0.1999,
      "velocity": 117,
      "chip": "ym2612"
    },
    {
      "channel": 5,
      "note": 110,
      "start": 53.3632,
      "duration": 0.3465,
      "velocity": 93,
      "chip": "ym2612"
    },
    {
      "channel": 4,
      "note": 39,
      "start": 53.4627,
      "duration": 0.2464,
      "velocity": 102,
      "chip": "ym2612"
    },
    {
      "channel": 0,
      "note": 56,
      "start": 53.5624,
      "duration": 0.1459,
      "velocity": 117,
      "chip": "ym2612"
    },
    {
      "channel": 0,
      "note": 58,
      "start": 53.7085,
      "duration": 0.1738,
      "velocity": 117,
      "chip": "ym2612"
    },
    {
      "channel": 4,
      "note": 51,
      "start": 53.7093,
      "duration": 0.3571,
      "velocity": 102,
      "chip": "ym2612"
    },
    {
      "channel": 5,
      "note": 110,
      "start": 53.7098,
      "duration": 0.3572,
      "velocity": 93,
      "chip": "ym2612"
    },
    {
      "channel": 0,
      "note": 63,
      "start": 53.8824,
      "duration": 0.3837,
      "velocity": 117,
      "chip": "ym2612"
    },
    {
      "channel": 1,
      "note": 68,
      "start": 53.8831,
      "duration": 1.4834,
      "velocity": 107,
      "chip": "ym2612"
    },
    {
      "channel": 2,
      "note": 70,
      "start": 53.8837,
      "duration": 1.4833,
      "velocity": 107,
      "chip": "ym2612"
    },
    {
      "channel": 3,
      "note": 75,
      "start": 53.8843,
      "duration": 1.4833,
      "velocity": 107,
      "chip": "ym2612"
    },
    {
      "channel": 4,
      "note": 39,
      "start": 54.0666,
      "duration": 0.5708,
      "velocity": 102,
      "chip": "ym2612"
    },
    {
      "channel": 5,
      "note": 110,
      "start": 54.0672,
      "duration": 0.3708,
      "velocity": 93,
      "chip": "ym2612"
    },
    {
      "channel": 0,
      "note": 51,
      "start": 54.2663,
      "duration": 0.171,
      "velocity": 117,
      "chip": "ym2612"
    },
    {
      "channel": 0,
      "note": 61,
      "start": 54.4374,
      "duration": 0.3863,
      "velocity": 117,
      "chip": "ym2612"
    },
    {
      "channel": 5,
      "note": 110,
      "start": 54.4382,
      "duration": 0.3863,
      "velocity": 93,
      "chip": "ym2612"
    },
    {
      "channel": 4,
      "note": 51,
      "start": 54.6376,
      "duration": 0.2863,
      "velocity": 102,
      "chip": "ym2612"
    },
    {
      "channel": 0,
      "note": 58,
      "start": 54.8238,
      "duration": 0.1999,
      "velocity": 117,
      "chip": "ym2612"
    },
    {
      "channel": 5,
      "note": 110,
      "start": 54.8246,
      "duration": 0.3705,
      "velocity": 93,
      "chip": "ym2612"
    },
    {
      "channel": 4,
      "note": 39,
      "start": 54.9241,
      "duration": 0.2704,
      "velocity": 102,
      "chip": "ym2612"
    },
    {
      "channel": 0,
      "note": 56,
      "start": 55.0239,
      "duration": 0.1699,
      "velocity": 117,
      "chip": "ym2612"
    },
    {
      "channel": 0,
      "note": 58,
      "start": 55.1939,
      "duration": 0.172,
      "velocity": 117,
      "chip": "ym2612"
    },
    {
      "channel": 4,
      "note": 37,
      "start": 55.1946,
      "duration": 0.0994,
      "velocity": 102,
      "chip": "ym2612"
    },
    {
      "channel": 5,
      "note": 110,
      "start": 55.1952,
      "duration": 0.3557,
      "velocity": 93,
      "chip": "ym2612"
    },
    {
      "channel": 4,
      "note": 39,
      "start": 55.2942,
      "duration": 0.074,
      "velocity": 102,
      "chip": "ym2612"
    },
    {
      "channel": 0,
      "note": 63,
      "start": 55.3661,
      "duration": 0.384,
      "velocity": 117,
      "chip": "ym2612"
    },
    {
      "channel": 1,
      "note": 77,
      "start": 55.3667,
      "duration": 1.4798,
      "velocity": 107,
      "chip": "ym2612"
    },
    {
      "channel": 2,
      "note": 73,
      "start": 55.3673,
      "duration": 1.4797,
      "velocity": 107,
      "chip": "ym2612"
    },
    {
      "channel": 3,
      "note": 68,
      "start": 55.3678,
      "duration": 1.4797,
      "velocity": 107,
      "chip": "ym2612"
    },
    {
      "channel": 4,
      "note": 51,
      "start": 55.3683,
      "duration": 0.1821,
      "velocity": 102,
      "chip": "ym2612"
    },
    {
      "channel": 4,
      "note": 39,
      "start": 55.5505,
      "duration": 0.5715,
      "velocity": 102,
      "chip": "ym2612"
    },
    {
      "channel": 5,
      "note": 110,
      "start": 55.5511,
      "duration": 0.371,
      "velocity": 93,
      "chip": "ym2612"
    },
    {
      "channel": 0,
      "note": 51,
      "start": 55.7503,
      "duration": 0.171,
      "velocity": 117,
      "chip": "ym2612"
    },
    {
      "channel": 0,
      "note": 63,
      "start": 55.9214,
      "duration": 0.1999,
      "velocity": 117,
      "chip": "ym2612"
    },
    {
      "channel": 5,
      "note": 110,
      "start": 55.9222,
      "duration": 0.3849,
      "velocity": 93,
      "chip": "ym2612"
    },
    {
      "channel": 0,
      "note": 61,
      "start": 56.1215,
      "duration": 0.1849,
      "velocity": 117,
      "chip": "ym2612"
    },
    {
      "channel": 4,
      "note": 51,
      "start": 56.1222,
      "duration": 0.2844,
      "velocity": 102,
      "chip": "ym2612"
    },
    {
      "channel": 0,
      "note": 58,
      "start": 56.3065,
      "duration": 0.1999,
      "velocity": 117,
      "chip": "ym2612"
    },
    {
      "channel": 5,
      "note": 110,
      "start": 56.3073,
      "duration": 0.3675,
      "velocity": 93,
      "chip": "ym2612"
    },
    {
      "channel": 4,
      "note": 39,
      "start": 56.4068,
      "duration": 0.2674,
      "velocity": 102,
      "chip": "ym2612"
    },
    {
      "channel": 0,
      "note": 56,
      "start": 56.5065,
      "duration": 0.1669,
      "velocity": 117,
      "chip": "ym2612"
    },
    {
      "channel": 0,
      "note": 58,
      "start": 56.6736,
      "duration": 0.1722,
      "velocity": 117,
      "chip": "ym2612"
    },
    {
      "channel": 4,
      "note": 51,
      "start": 56.6744,
      "duration": 0.3566,
      "velocity": 102,
      "chip": "ym2612"
    },
    {
      "channel": 5,
      "note": 110,
      "start": 56.675,
      "duration": 0.3566,
      "velocity": 93,
      "chip": "ym2612"
    },
    {
      "channel": 0,
      "note": 61,
      "start": 56.846,
      "duration": 0.3847,
      "velocity": 117,
      "chip": "ym2612"
    },
    {
      "channel": 1,
      "note": 73,
      "start": 56.8466,
      "duration": 1.4833,
      "velocity": 107,
      "chip": "ym2612"
    },
    {
      "channel": 2,
      "note": 78,
      "start": 56.8471,
      "duration": 1.4833,
      "velocity": 107,
      "chip": "ym2612"
    },
    {
      "channel": 3,
      "note": 68,
      "start": 56.8477,
      "duration": 1.4833,
      "velocity": 107,
      "chip": "ym2612"
    },
    {
      "channel": 4,
      "note": 37,
      "start": 57.0312,
      "duration": 0.5713,
      "velocity": 102,
      "chip": "ym2612"
    },
    {
      "channel": 5,
      "note": 110,
      "start": 57.0317,
      "duration": 0.3713,
      "velocity": 93,
      "chip": "ym2612"
    },
    {
      "channel": 0,
      "note": 49,
      "start": 57.2309,
      "duration": 0.1713,
      "velocity": 117,
      "chip": "ym2612"
    },
    {
      "channel": 0,
      "note": 59,
      "start": 57.4024,
      "duration": 0.3844,
      "velocity": 117,
      "chip": "ym2612"
    },
    {
      "channel": 5,
      "note": 110,
      "start": 57.4032,
      "duration": 0.3844,
      "velocity": 93,
      "chip": "ym2612"
    },
    {
      "channel": 4,
      "note": 49,
      "start": 57.6026,
      "duration": 0.2844,
      "velocity": 102,
      "chip": "ym2612"
    },
    {
      "channel": 0,
      "note": 56,
      "start": 57.787,
      "duration": 0.1999,
      "velocity": 117,
      "chip": "ym2612"
    },
    {
      "channel": 5,
      "note": 110,
      "start": 57.7878,
      "duration": 0.3675,
      "velocity": 93,
      "chip": "ym2612"
    },
    {
      "channel": 4,
      "note": 37,
      "start": 57.8873,
      "duration": 0.2674,
      "velocity": 102,
      "chip": "ym2612"
    },
    {
      "channel": 0,
      "note": 54,
      "start": 57.987,
      "duration": 0.1669,
      "velocity": 117,
      "chip": "ym2612"
    },
    {
      "channel": 0,
      "note": 56,
      "start": 58.1541,
      "duration": 0.1753,
      "velocity": 117,
      "chip": "ym2612"
    },
    {
      "channel": 4,
      "note": 35,
      "start": 58.1549,
      "duration": 0.0993,
      "velocity": 102,
      "chip": "ym2612"
    },
    {
      "channel": 5,
      "note": 110,
      "start": 58.1554,
      "duration": 1.7779,
      "velocity": 93,
      "chip": "ym2612"
    },
    {
      "channel": 4,
      "note": 37,
      "start": 58.2544,
      "duration": 0.0772,
      "velocity": 102,
      "chip": "ym2612"
    },
    {
      "channel": 0,
      "note": 61,
      "start": 58.3295,
      "duration": 0.3685,
      "velocity": 117,
      "chip": "ym2612"
    },
    {
      "channel": 1,
      "note": 77,
      "start": 58.33,
      "duration": 1.4177,
      "velocity": 102,
      "chip": "ym2612"
    },
    {
      "channel": 2,
      "note": 73,
      "start": 58.3306,
      "duration": 1.4192,
      "velocity": 99,
      "chip": "ym2612"
    },
    {
      "channel": 3,
      "note": 68,
      "start": 58.3312,
      "duration": 1.8015,
      "velocity": 100,
      "chip": "ym2612"
    },
    {
      "channel": 4,
      "note": 49,
      "start": 58.3318,
      "duration": 0.1824,
      "velocity": 102,
      "chip": "ym2612"
    },
    {
      "channel": 4,
      "note": 37,
      "start": 58.5143,
      "duration": 0.569,
      "velocity": 102,
      "chip": "ym2612"
    },
    {
      "channel": 0,
      "note": 49,
      "start": 58.6981,
      "duration": 0.1999,
      "velocity": 117,
      "chip": "ym2612"
    },
    {
      "channel": 0,
      "note": 61,
      "start": 58.8982,
      "duration": 0.1844,
      "velocity": 117,
      "chip": "ym2612"
    },
    {
      "channel": 0,
      "note": 59,
      "start": 59.0828,
      "duration": 0.1695,
      "velocity": 117,
      "chip": "ym2612"
    },
    {
      "channel": 4,
      "note": 49,
      "start": 59.0835,
      "duration": 0.269,
      "velocity": 102,
      "chip": "ym2612"
    },
    {
      "channel": 0,
      "note": 56,
      "start": 59.2524,
      "duration": 0.1999,
      "velocity": 117,
      "chip": "ym2612"
    },
    {
      "channel": 4,
      "note": 37,
      "start": 59.3527,
      "duration": 0.2465,
      "velocity": 102,
      "chip": "ym2612"
    },
    {
      "channel": 0,
      "note": 54,
      "start": 59.4525,
      "duration": 0.1459,
      "velocity": 117,
      "chip": "ym2612"
    },
    {
      "channel": 0,
      "note": 56,
      "start": 59.5986,
      "duration": 0.147,
      "velocity": 117,
      "chip": "ym2612"
    },
    {
      "channel": 4,
      "note": 49,
      "start": 59.5993,
      "duration": 0.1528,
      "velocity": 102,
      "chip": "ym2612"
    },
    {
      "channel": 0,
      "note": 64,
      "start": 59.7458,
      "duration": 0.2846,
      "velocity": 117,
      "chip": "ym2612"
    },
    {
      "channel": 1,
      "note": 40,
      "start": 59.7479,
      "duration": 0.184,
      "velocity": 120,
      "chip": "ym2612"
    },
    {
      "channel": 2,
      "note": 88,
      "start": 59.75,
      "duration": 1.3051,
      "velocity": 99,
      "chip": "ym2612"
    },
    {
      "channel": 4,
      "note": 64,
      "start": 59.7523,
      "duration": 0.1804,
      "velocity": 102,
      "chip": "ym2612"
    },
    {
      "channel": 1,
      "note": 50,
      "start": 59.9322,
      "duration": 0.0988,
      "velocity": 120,
      "chip": "ym2612"
    },
    {
      "channel": 4,
      "note": 76,
      "start": 59.9328,
      "duration": 0.0988,
      "velocity": 102,
      "chip": "ym2612"
    },
    {
      "channel": 5,
      "note": 110,
      "start": 59.9334,
      "duration": 0.3685,
      "velocity": 93,
      "chip": "ym2612"
    },
    {
      "channel": 0,
      "note": 64,
      "start": 60.0306,
      "duration": 0.268,
      "velocity": 117,
      "chip": "ym2612"
    },
    {
      "channel": 1,
      "note": 62,
      "start": 60.0311,
      "duration": 0.0994,
      "velocity": 120,
      "chip": "ym2612"
    },
    {
      "channel": 4,
      "note": 73,
      "start": 60.0318,
      "duration": 0.1015,
      "velocity": 102,
      "chip": "ym2612"
    },
    {
      "channel": 1,
      "note": 50,
      "start": 60.1306,
      "duration": 0.17,
      "velocity": 102,
      "chip": "ym2612"
    },
    {
      "channel": 3,
      "note": 88,
      "start": 60.1329,
      "duration": 1.2794,
      "velocity": 100,
      "chip": "ym2612"
    },
    {
      "channel": 4,
      "note": 71,
      "start": 60.1334,
      "duration": 0.0703,
      "velocity": 102,
      "chip": "ym2612"
    },
    {
      "channel": 4,
      "note": 76,
      "start": 60.2038,
      "duration": 0.0975,
      "velocity": 102,
      "chip": "ym2612"
    },
    {
      "channel": 0,
      "note": 59,
      "start": 60.2986,
      "duration": 0.0999,
      "velocity": 117,
      "chip": "ym2612"
    },
    {
      "channel": 1,
      "note": 52,
      "start": 60.3008,
      "duration": 0.1998,
      "velocity": 120,
      "chip": "ym2612"
    },
    {
      "channel": 4,
      "note": 73,
      "start": 60.3015,
      "duration": 0.0977,
      "velocity": 102,
      "chip": "ym2612"
    },
    {
      "channel": 5,
      "note": 110,
      "start": 60.3021,
      "duration": 0.3832,
      "velocity": 93,
      "chip": "ym2612"
    },
    {
      "channel": 0,
      "note": 61,
      "start": 60.3987,
      "duration": 0.0998,
      "velocity": 117,
      "chip": "ym2612"
    },
    {
      "channel": 4,
      "note": 71,
      "start": 60.3994,
      "duration": 0.1035,
      "velocity": 102,
      "chip": "ym2612"
    },
    {
      "channel": 0,
      "note": 64,
      "start": 60.4986,
      "duration": 0.2838,
      "velocity": 117,
      "chip": "ym2612"
    },
    {
      "channel": 1,
      "note": 62,
      "start": 60.5008,
      "duration": 0.1832,
      "velocity": 102,
      "chip": "ym2612"
    },
    {
      "channel": 4,
      "note": 64,
      "start": 60.5031,
      "duration": 0.1816,
      "velocity": 102,
      "chip": "ym2612"
    },
    {
      "channel": 1,
      "note": 40,
      "start": 60.6842,
      "duration": 0.2724,
      "velocity": 102,
      "chip": "ym2612"
    },
    {
      "channel": 4,
      "note": 76,
      "start": 60.6849,
      "duration": 0.0983,
      "velocity": 102,
      "chip": "ym2612"
    },
    {
      "channel": 5,
      "note": 110,
      "start": 60.6854,
      "duration": 0.371,
      "velocity": 93,
      "chip": "ym2612"
    },
    {
      "channel": 0,
      "note": 64,
      "start": 60.7826,
      "duration": 0.2699,
      "velocity": 117,
      "chip": "ym2612"
    },
    {
      "channel": 4,
      "note": 73,
      "start": 60.7833,
      "duration": 0.0993,
      "velocity": 102,
      "chip": "ym2612"
    },
    {
      "channel": 4,
      "note": 71,
      "start": 60.8828,
      "duration": 0.0745,
      "velocity": 102,
      "chip": "ym2612"
    },
    {
      "channel": 1,
      "note": 52,
      "start": 60.9568,
      "duration": 0.0978,
      "velocity": 120,
      "chip": "ym2612"
    },
    {
      "channel": 4,
      "note": 76,
      "start": 60.9575,
      "duration": 0.0983,
      "velocity": 102,
      "chip": "ym2612"
    },
    {
      "channel": 0,
      "note": 59,
      "start": 61.0527,
      "duration": 0.0998,
      "velocity": 117,
      "chip": "ym2612"
    },
    {
      "channel": 1,
      "note": 50,
      "start": 61.0548,
      "duration": 0.1722,
      "velocity": 102,
      "chip": "ym2612"
    },
    {
      "channel": 2,
      "note": 86,
      "start": 61.0554,
      "duration": 0.0978,
      "velocity": 99,
      "chip": "ym2612"
    },
    {
      "channel": 4,
      "note": 73,
      "start": 61.056,
      "duration": 0.0978,
      "velocity": 102,
      "chip": "ym2612"
    },
    {
      "channel": 5,
      "note": 110,
      "start": 61.0566,
      "duration": 0.3568,
      "velocity": 93,
      "chip": "ym2612"
    },
    {
      "channel": 0,
      "note": 61,
      "start": 61.1527,
      "duration": 0.0722,
      "velocity": 117,
      "chip": "ym2612"
    },
    {
      "channel": 2,
      "note": 85,
      "start": 61.1533,
      "duration": 0.0742,
      "velocity": 99,
      "chip": "ym2612"
    },
    {
      "channel": 4,
      "note": 71,
      "start": 61.1539,
      "duration": 0.0758,
      "velocity": 102,
      "chip": "ym2612"
    },
    {
      "channel": 0,
      "note": 64,
      "start": 61.2251,
      "duration": 0.2845,
      "velocity": 117,
      "chip": "ym2612"
    },
    {
      "channel": 1,
      "note": 38,
      "start": 61.2272,
      "duration": 0.184,
      "velocity": 120,
      "chip": "ym2612"
    },
    {
      "channel": 2,
      "note": 86,
      "start": 61.2278,
      "duration": 0.184,
      "velocity": 99,
      "chip": "ym2612"
    },
    {
      "channel": 4,
      "note": 62,
      "start": 61.2299,
      "duration": 0.1829,
      "velocity": 102,
      "chip": "ym2612"
    },
    {
      "channel": 1,
      "note": 62,
      "start": 61.4114,
      "duration": 0.0987,
      "velocity": 120,
      "chip": "ym2612"
    },
    {
      "channel": 2,
      "note": 85,
      "start": 61.4119,
      "duration": 0.1983,
      "velocity": 99,
      "chip": "ym2612"
    },
    {
      "channel": 3,
      "note": 86,
      "start": 61.4124,
      "duration": 0.0983,
      "velocity": 100,
      "chip": "ym2612"
    },
    {
      "channel": 4,
      "note": 74,
      "start": 61.413,
      "duration": 0.0983,
      "velocity": 102,
      "chip": "ym2612"
    },
    {
      "channel": 5,
      "note": 110,
      "start": 61.4136,
      "duration": 0.3678,
      "velocity": 93,
      "chip": "ym2612"
    },
    {
      "channel": 0,
      "note": 64,
      "start": 61.5097,
      "duration": 0.2673,
      "velocity": 117,
      "chip": "ym2612"
    },
    {
      "channel": 1,
      "note": 50,
      "start": 61.5103,
      "duration": 0.0994,
      "velocity": 120,
      "chip": "ym2612"
    },
    {
      "channel": 3,
      "note": 85,
      "start": 61.5109,
      "duration": 0.0998,
      "velocity": 100,
      "chip": "ym2612"
    },
    {
      "channel": 4,
      "note": 71,
      "start": 61.5115,
      "duration": 0.0998,
      "velocity": 102,
      "chip": "ym2612"
    },
    {
      "channel": 1,
      "note": 62,
      "start": 61.6098,
      "duration": 0.1694,
      "velocity": 102,
      "chip": "ym2612"
    },
    {
      "channel": 2,
      "note": 83,
      "start": 61.6103,
      "duration": 0.1694,
      "velocity": 99,
      "chip": "ym2612"
    },
    {
      "channel": 3,
      "note": 86,
      "start": 61.6109,
      "duration": 0.1694,
      "velocity": 100,
      "chip": "ym2612"
    },
    {
      "channel": 4,
      "note": 69,
      "start": 61.6115,
      "duration": 0.0708,
      "velocity": 102,
      "chip": "ym2612"
    },
    {
      "channel": 4,
      "note": 74,
      "start": 61.6824,
      "duration": 0.0984,
      "velocity": 102,
      "chip": "ym2612"
    },
    {
      "channel": 0,
      "note": 59,
      "start": 61.7772,
      "duration": 0.0999,
      "velocity": 117,
      "chip": "ym2612"
    },
    {
      "channel": 1,
      "note": 50,
      "start": 61.7793,
      "duration": 0.1998,
      "velocity": 120,
      "chip": "ym2612"
    },
    {
      "channel": 2,
      "note": 81,
      "start": 61.7799,
      "duration": 0.7545,
      "velocity": 99,
      "chip": "ym2612"
    },
    {
      "channel": 3,
      "note": 85,
      "start": 61.7805,
      "duration": 0.1993,
      "velocity": 100,
      "chip": "ym2612"
    },
    {
      "channel": 4,
      "note": 71,
      "start": 61.781,
      "duration": 0.0967,
      "velocity": 102,
      "chip": "ym2612"
    },
    {
      "channel": 5,
      "note": 110,
      "start": 61.7816,
      "duration": 0.3836,
      "velocity": 93,
      "chip": "ym2612"
    },
    {
      "channel": 0,
      "note": 61,
      "start": 61.8772,
      "duration": 0.0998,
      "velocity": 117,
      "chip": "ym2612"
    },
    {
      "channel": 4,
      "note": 69,
      "start": 61.8779,
      "duration": 0.1039,
      "velocity": 102,
      "chip": "ym2612"
    },
    {
      "channel": 0,
      "note": 64,
      "start": 61.9772,
      "duration": 0.2846,
      "velocity": 117,
      "chip": "ym2612"
    },
    {
      "channel": 1,
      "note": 50,
      "start": 61.9793,
      "duration": 0.1841,
      "velocity": 102,
      "chip": "ym2612"
    },
    {
      "channel": 3,
      "note": 83,
      "start": 61.9799,
      "duration": 0.1841,
      "velocity": 100,
      "chip": "ym2612"
    },
    {
      "channel": 4,
      "note": 62,
      "start": 61.9821,
      "duration": 0.1825,
      "velocity": 102,
      "chip": "ym2612"
    },
    {
      "channel": 1,
      "note": 38,
      "start": 62.1635,
      "duration": 0.2724,
      "velocity": 102,
      "chip": "ym2612"
    },
    {
      "channel": 3,
      "note": 81,
      "start": 62.1641,
      "duration": 0.7273,
      "velocity": 100,
      "chip": "ym2612"
    },
    {
      "channel": 4,
      "note": 74,
      "start": 62.1647,
      "duration": 0.0978,
      "velocity": 102,
      "chip": "ym2612"
    },
    {
      "channel": 5,
      "note": 110,
      "start": 62.1653,
      "duration": 0.3703,
      "velocity": 93,
      "chip": "ym2612"
    },
    {
      "channel": 0,
      "note": 64,
      "start": 62.2619,
      "duration": 0.2698,
      "velocity": 117,
      "chip": "ym2612"
    },
    {
      "channel": 4,
      "note": 71,
      "start": 62.2627,
      "duration": 0.0992,
      "velocity": 102,
      "chip": "ym2612"
    },
    {
      "channel": 4,
      "note": 69,
      "start": 62.3621,
      "duration": 0.0745,
      "velocity": 102,
      "chip": "ym2612"
    },
    {
      "channel": 1,
      "note": 50,
      "start": 62.4361,
      "duration": 0.0978,
      "velocity": 120,
      "chip": "ym2612"
    },
    {
      "channel": 4,
      "note": 74,
      "start": 62.4367,
      "duration": 0.0983,
      "velocity": 102,
      "chip": "ym2612"
    },
    {
      "channel": 0,
      "note": 59,
      "start": 62.532,
      "duration": 0.0998,
      "velocity": 117,
      "chip": "ym2612"
    },
    {
      "channel": 1,
      "note": 62,
      "start": 62.5341,
      "duration": 0.1722,
      "velocity": 102,
      "chip": "ym2612"
    },
    {
      "channel": 2,
      "note": 81,
      "start": 62.5346,
      "duration": 0.0978,
      "velocity": 99,
      "chip": "ym2612"
    },
    {
      "channel": 4,
      "note": 71,
      "start": 62.5353,
      "duration": 0.0978,
      "velocity": 102,
      "chip": "ym2612"
    },
    {
      "channel": 5,
      "note": 110,
      "start": 62.5358,
      "duration": 0.3568,
      "velocity": 93,
      "chip": "ym2612"
    },
    {
      "channel": 0,
      "note": 61,
      "start": 62.632,
      "duration": 0.0722,
      "velocity": 117,
      "chip": "ym2612"
    },
    {
      "channel": 2,
      "note": 83,
      "start": 62.6326,
      "duration": 0.0742,
      "velocity": 99,
      "chip": "ym2612"
    },
    {
      "channel": 4,
      "note": 69,
      "start": 62.6332,
      "duration": 0.0758,
      "velocity": 102,
      "chip": "ym2612"
    },
    {
      "channel": 0,
      "note": 57,
      "start": 62.7043,
      "duration": 0.2845,
      "velocity": 117,
      "chip": "ym2612"
    },
    {
      "channel": 1,
      "note": 33,
      "start": 62.7064,
      "duration": 0.184,
      "velocity": 120,
      "chip": "ym2612"
    },
    {
      "channel": 2,
      "note": 85,
      "start": 62.707,
      "duration": 0.184,
      "velocity": 99,
      "chip": "ym2612"
    },
    {
      "channel": 4,
      "note": 57,
      "start": 62.7092,
      "duration": 0.1829,
      "velocity": 102,
      "chip": "ym2612"
    },
    {
      "channel": 1,
      "note": 50,
      "start": 62.8906,
      "duration": 0.0988,
      "velocity": 120,
      "chip": "ym2612"
    },
    {
      "channel": 2,
      "note": 81,
      "start": 62.8911,
      "duration": 0.1983,
      "velocity": 99,
      "chip": "ym2612"
    },
    {
      "channel": 3,
      "note": 81,
      "start": 62.8917,
      "duration": 0.0983,
      "velocity": 100,
      "chip": "ym2612"
    },
    {
      "channel": 4,
      "note": 69,
      "start": 62.8923,
      "duration": 0.0983,
      "velocity": 102,
      "chip": "ym2612"
    },
    {
      "channel": 5,
      "note": 110,
      "start": 62.8928,
      "duration": 0.3678,
      "velocity": 93,
      "chip": "ym2612"
    },
    {
      "channel": 0,
      "note": 57,
      "start": 62.989,
      "duration": 0.2673,
      "velocity": 117,
      "chip": "ym2612"
    },
    {
      "channel": 1,
      "note": 62,
      "start": 62.9895,
      "duration": 0.0994,
      "velocity": 120,
      "chip": "ym2612"
    },
    {
      "channel": 3,
      "note": 83,
      "start": 62.9902,
      "duration": 0.0998,
      "velocity": 100,
      "chip": "ym2612"
    },
    {
      "channel": 4,
      "note": 66,
      "start": 62.9907,
      "duration": 0.0998,
      "velocity": 102,
      "chip": "ym2612"
    },
    {
      "channel": 1,
      "note": 50,
      "start": 63.089,
      "duration": 0.1694,
      "velocity": 102,
      "chip": "ym2612"
    },
    {
      "channel": 2,
      "note": 78,
      "start": 63.0896,
      "duration": 0.1694,
      "velocity": 99,
      "chip": "ym2612"
    },
    {
      "channel": 3,
      "note": 85,
      "start": 63.0902,
      "duration": 0.1694,
      "velocity": 100,
      "chip": "ym2612"
    },
    {
      "channel": 4,
      "note": 64,
      "start": 63.0907,
      "duration": 0.0708,
      "velocity": 102,
      "chip": "ym2612"
    },
    {
      "channel": 4,
      "note": 69,
      "start": 63.1617,
      "duration": 0.0984,
      "velocity": 102,
      "chip": "ym2612"
    },
    {
      "channel": 0,
      "note": 52,
      "start": 63.2564,
      "duration": 0.0999,
      "velocity": 117,
      "chip": "ym2612"
    },
    {
      "channel": 1,
      "note": 45,
      "start": 63.2586,
      "duration": 0.1998,
      "velocity": 120,
      "chip": "ym2612"
    },
    {
      "channel": 2,
      "note": 76,
      "start": 63.2592,
      "duration": 0.928,
      "velocity": 99,
      "chip": "ym2612"
    },
    {
      "channel": 3,
      "note": 81,
      "start": 63.2597,
      "duration": 0.1993,
      "velocity": 100,
      "chip": "ym2612"
    },
    {
      "channel": 4,
      "note": 66,
      "start": 63.2602,
      "duration": 0.0967,
      "velocity": 102,
      "chip": "ym2612"
    },
    {
      "channel": 5,
      "note": 110,
      "start": 63.2608,
      "duration": 0.3836,
      "velocity": 93,
      "chip": "ym2612"
    },
    {
      "channel": 0,
      "note": 54,
      "start": 63.3565,
      "duration": 0.0998,
      "velocity": 117,
      "chip": "ym2612"
    },
    {
      "channel": 4,
      "note": 64,
      "start": 63.3572,
      "duration": 0.1039,
      "velocity": 102,
      "chip": "ym2612"
    },
    {
      "channel": 0,
      "note": 57,
      "start": 63.4564,
      "duration": 0.2846,
      "velocity": 117,
      "chip": "ym2612"
    },
    {
      "channel": 1,
      "note": 62,
      "start": 63.4586,
      "duration": 0.1841,
      "velocity": 102,
      "chip": "ym2612"
    },
    {
      "channel": 3,
      "note": 78,
      "start": 63.4592,
      "duration": 0.1841,
      "velocity": 100,
      "chip": "ym2612"
    },
    {
      "channel": 4,
      "note": 57,
      "start": 63.4613,
      "duration": 0.1825,
      "velocity": 102,
      "chip": "ym2612"
    },
    {
      "channel": 1,
      "note": 33,
      "start": 63.6428,
      "duration": 0.2724,
      "velocity": 102,
      "chip": "ym2612"
    },
    {
      "channel": 3,
      "note": 76,
      "start": 63.6434,
      "duration": 0.9263,
      "velocity": 100,
      "chip": "ym2612"
    },
    {
      "channel": 4,
      "note": 69,
      "start": 63.644,
      "duration": 0.0978,
      "velocity": 102,
      "chip": "ym2612"
    },
    {
      "channel": 5,
      "note": 110,
      "start": 63.6446,
      "duration": 0.3698,
      "velocity": 93,
      "chip": "ym2612"
    },
    {
      "channel": 0,
      "note": 57,
      "start": 63.7412,
      "duration": 0.2698,
      "velocity": 117,
      "chip": "ym2612"
    },
    {
      "channel": 4,
      "note": 66,
      "start": 63.742,
      "duration": 0.0992,
      "velocity": 102,
      "chip": "ym2612"
    },
    {
      "channel": 4,
      "note": 64,
      "start": 63.8414,
      "duration": 0.0745,
      "velocity": 102,
      "chip": "ym2612"
    },
    {
      "channel": 1,
      "note": 45,
      "start": 63.9154,
      "duration": 0.0978,
      "velocity": 120,
      "chip": "ym2612"
    },
    {
      "channel": 4,
      "note": 69,
      "start": 63.916,
      "duration": 0.0978,
      "velocity": 102,
      "chip": "ym2612"
    },
    {
      "channel": 0,
      "note": 52,
      "start": 64.0111,
      "duration": 0.0999,
      "velocity": 117,
      "chip": "ym2612"
    },
    {
      "channel": 1,
      "note": 50,
      "start": 64.0133,
      "duration": 0.1732,
      "velocity": 102,
      "chip": "ym2612"
    },
    {
      "channel": 4,
      "note": 66,
      "start": 64.014,
      "duration": 0.0977,
      "velocity": 102,
      "chip": "ym2612"
    },
    {
      "channel": 5,
      "note": 110,
      "start": 64.0146,
      "duration": 0.3578,
      "velocity": 93,
      "chip": "ym2612"
    },
    {
      "channel": 0,
      "note": 54,
      "start": 64.1112,
      "duration": 0.0733,
      "velocity": 117,
      "chip": "ym2612"
    },
    {
      "channel": 4,
      "note": 64,
      "start": 64.1119,
      "duration": 0.0774,
      "velocity": 102,
      "chip": "ym2612"
    },
    {
      "channel": 0,
      "note": 57,
      "start": 64.1846,
      "duration": 0.2844,
      "velocity": 117,
      "chip": "ym2612"
    },
    {
      "channel": 1,
      "note": 36,
      "start": 64.1868,
      "duration": 0.1839,
      "velocity": 120,
      "chip": "ym2612"
    },
    {
      "channel": 2,
      "note": 79,
      "start": 64.1873,
      "duration": 0.0819,
      "velocity": 99,
      "chip": "ym2612"
    },
    {
      "channel": 4,
      "note": 60,
      "start": 64.1895,
      "duration": 0.1823,
      "velocity": 102,
      "chip": "ym2612"
    },
    {
      "channel": 2,
      "note": 78,
      "start": 64.2693,
      "duration": 0.1018,
      "velocity": 99,
      "chip": "ym2612"
    },
    {
      "channel": 1,
      "note": 62,
      "start": 64.3708,
      "duration": 0.0988,
      "velocity": 120,
      "chip": "ym2612"
    },
    {
      "channel": 2,
      "note": 76,
      "start": 64.3714,
      "duration": 0.3701,
      "velocity": 99,
      "chip": "ym2612"
    },
    {
      "channel": 4,
      "note": 72,
      "start": 64.372,
      "duration": 0.0983,
      "velocity": 102,
      "chip": "ym2612"
    },
    {
      "channel": 5,
      "note": 110,
      "start": 64.3726,
      "duration": 0.3706,
      "velocity": 93,
      "chip": "ym2612"
    },
    {
      "channel": 0,
      "note": 57,
      "start": 64.4692,
      "duration": 0.2696,
      "velocity": 117,
      "chip": "ym2612"
    },
    {
      "channel": 1,
      "note": 50,
      "start": 64.4698,
      "duration": 0.0993,
      "velocity": 120,
      "chip": "ym2612"
    },
    {
      "channel": 4,
      "note": 69,
      "start": 64.4704,
      "duration": 0.0999,
      "velocity": 102,
      "chip": "ym2612"
    },
    {
      "channel": 1,
      "note": 62,
      "start": 64.5693,
      "duration": 0.1716,
      "velocity": 102,
      "chip": "ym2612"
    },
    {
      "channel": 3,
      "note": 79,
      "start": 64.5699,
      "duration": 0.0738,
      "velocity": 100,
      "chip": "ym2612"
    },
    {
      "channel": 4,
      "note": 67,
      "start": 64.5705,
      "duration": 0.0738,
      "velocity": 102,
      "chip": "ym2612"
    },
    {
      "channel": 3,
      "note": 78,
      "start": 64.6439,
      "duration": 0.0981,
      "velocity": 100,
      "chip": "ym2612"
    },
    {
      "channel": 4,
      "note": 72,
      "start": 64.6445,
      "duration": 0.0981,
      "velocity": 102,
      "chip": "ym2612"
    },
    {
      "channel": 0,
      "note": 52,
      "start": 64.7389,
      "duration": 0.0999,
      "velocity": 117,
      "chip": "ym2612"
    },
    {
      "channel": 1,
      "note": 48,
      "start": 64.7411,
      "duration": 0.1997,
      "velocity": 120,
      "chip": "ym2612"
    },
    {
      "channel": 2,
      "note": 78,
      "start": 64.7416,
      "duration": 0.3832,
      "velocity": 99,
      "chip": "ym2612"
    },
    {
      "channel": 3,
      "note": 76,
      "start": 64.7422,
      "duration": 0.3832,
      "velocity": 100,
      "chip": "ym2612"
    },
    {
      "channel": 4,
      "note": 69,
      "start": 64.7427,
      "duration": 0.0967,
      "velocity": 102,
      "chip": "ym2612"
    },
    {
      "channel": 5,
      "note": 110,
      "start": 64.7433,
      "duration": 0.3832,
      "velocity": 93,
      "chip": "ym2612"
    },
    {
      "channel": 0,
      "note": 54,
      "start": 64.839,
      "duration": 0.0998,
      "velocity": 117,
      "chip": "ym2612"
    },
    {
      "channel": 4,
      "note": 67,
      "start": 64.8397,
      "duration": 0.1034,
      "velocity": 102,
      "chip": "ym2612"
    },
    {
      "channel": 0,
      "note": 57,
      "start": 64.9388,
      "duration": 0.2839,
      "velocity": 117,
      "chip": "ym2612"
    },
    {
      "channel": 1,
      "note": 50,
      "start": 64.941,
      "duration": 0.1833,
      "velocity": 102,
      "chip": "ym2612"
    },
    {
      "channel": 4,
      "note": 60,
      "start": 64.9433,
      "duration": 0.1827,
      "velocity": 102,
      "chip": "ym2612"
    },
    {
      "channel": 1,
      "note": 36,
      "start": 65.1245,
      "duration": 0.2737,
      "velocity": 102,
      "chip": "ym2612"
    },
    {
      "channel": 2,
      "note": 74,
      "start": 65.125,
      "duration": 0.3487,
      "velocity": 99,
      "chip": "ym2612"
    },
    {
      "channel": 3,
      "note": 78,
      "start": 65.1256,
      "duration": 0.3486,
      "velocity": 100,
      "chip": "ym2612"
    },
    {
      "channel": 4,
      "note": 72,
      "start": 65.1261,
      "duration": 0.0973,
      "velocity": 102,
      "chip": "ym2612"
    },
    {
      "channel": 5,
      "note": 110,
      "start": 65.1267,
      "duration": 0.3486,
      "velocity": 93,
      "chip": "ym2612"
    },
    {
      "channel": 0,
      "note": 57,
      "start": 65.2229,
      "duration": 0.248,
      "velocity": 117,
      "chip": "ym2612"
    },
    {
      "channel": 4,
      "note": 69,
      "start": 65.2236,
      "duration": 0.0992,
      "velocity": 102,
      "chip": "ym2612"
    },
    {
      "channel": 4,
      "note": 67,
      "start": 65.323,
      "duration": 0.0759,
      "velocity": 102,
      "chip": "ym2612"
    },
    {
      "channel": 1,
      "note": 48,
      "start": 65.3984,
      "duration": 0.0747,
      "velocity": 120,
      "chip": "ym2612"
    },
    {
      "channel": 4,
      "note": 72,
      "start": 65.399,
      "duration": 0.0757,
      "velocity": 102,
      "chip": "ym2612"
    },
    {
      "channel": 0,
      "note": 52,
      "start": 65.4711,
      "duration": 0.0998,
      "velocity": 117,
      "chip": "ym2612"
    },
    {
      "channel": 1,
      "note": 62,
      "start": 65.4733,
      "duration": 0.0982,
      "velocity": 120,
      "chip": "ym2612"
    },
    {
      "channel": 2,
      "note": 76,
      "start": 65.4738,
      "duration": 1.4795,
      "velocity": 99,
      "chip": "ym2612"
    },
    {
      "channel": 3,
      "note": 74,
      "start": 65.4744,
      "duration": 0.172,
      "velocity": 100,
      "chip": "ym2612"
    },
    {
      "channel": 4,
      "note": 69,
      "start": 65.4749,
      "duration": 0.0973,
      "velocity": 102,
      "chip": "ym2612"
    },
    {
      "channel": 5,
      "note": 110,
      "start": 65.4755,
      "duration": 0.3555,
      "velocity": 93,
      "chip": "ym2612"
    },
    {
      "channel": 0,
      "note": 54,
      "start": 65.5711,
      "duration": 0.0724,
      "velocity": 117,
      "chip": "ym2612"
    },
    {
      "channel": 1,
      "note": 50,
      "start": 65.5717,
      "duration": 0.0739,
      "velocity": 102,
      "chip": "ym2612"
    },
    {
      "channel": 4,
      "note": 67,
      "start": 65.5723,
      "duration": 0.0761,
      "velocity": 102,
      "chip": "ym2612"
    },
    {
      "channel": 0,
      "note": 64,
      "start": 65.6437,
      "duration": 0.2844,
      "velocity": 117,
      "chip": "ym2612"
    },
    {
      "channel": 1,
      "note": 40,
      "start": 65.6458,
      "duration": 0.1839,
      "velocity": 120,
      "chip": "ym2612"
    },
    {
      "channel": 3,
      "note": 76,
      "start": 65.6465,
      "duration": 1.6639,
      "velocity": 100,
      "chip": "ym2612"
    },
    {
      "channel": 4,
      "note": 64,
      "start": 65.6486,
      "duration": 0.1818,
      "velocity": 102,
      "chip": "ym2612"
    },
    {
      "channel": 1,
      "note": 50,
      "start": 65.8299,
      "duration": 0.0988,
      "velocity": 120,
      "chip": "ym2612"
    },
    {
      "channel": 4,
      "note": 76,
      "start": 65.8305,
      "duration": 0.0988,
      "velocity": 102,
      "chip": "ym2612"
    },
    {
      "channel": 5,
      "note": 110,
      "start": 65.8312,
      "duration": 0.3688,
      "velocity": 93,
      "chip": "ym2612"
    },
    {
      "channel": 0,
      "note": 64,
      "start": 65.9283,
      "duration": 0.2683,
      "velocity": 117,
      "chip": "ym2612"
    },
    {
      "channel": 1,
      "note": 62,
      "start": 65.9288,
      "duration": 0.0994,
      "velocity": 120,
      "chip": "ym2612"
    },
    {
      "channel": 4,
      "note": 73,
      "start": 65.9295,
      "duration": 0.0993,
      "velocity": 102,
      "chip": "ym2612"
    },
    {
      "channel": 1,
      "note": 50,
      "start": 66.0283,
      "duration": 0.1703,
      "velocity": 102,
      "chip": "ym2612"
    },
    {
      "channel": 4,
      "note": 71,
      "start": 66.029,
      "duration": 0.0724,
      "velocity": 102,
      "chip": "ym2612"
    },
    {
      "channel": 4,
      "note": 76,
      "start": 66.1016,
      "duration": 0.0978,
      "velocity": 102,
      "chip": "ym2612"
    },
    {
      "channel": 0,
      "note": 59,
      "start": 66.1967,
      "duration": 0.0998,
      "velocity": 117,
      "chip": "ym2612"
    },
    {
      "channel": 1,
      "note": 52,
      "start": 66.1988,
      "duration": 0.1998,
      "velocity": 120,
      "chip": "ym2612"
    },
    {
      "channel": 4,
      "note": 73,
      "start": 66.1995,
      "duration": 0.0977,
      "velocity": 102,
      "chip": "ym2612"
    },
    {
      "channel": 5,
      "note": 110,
      "start": 66.2001,
      "duration": 0.3832,
      "velocity": 93,
      "chip": "ym2612"
    },
    {
      "channel": 0,
      "note": 61,
      "start": 66.2967,
      "duration": 0.0998,
      "velocity": 117,
      "chip": "ym2612"
    },
    {
      "channel": 4,
      "note": 71,
      "start": 66.2974,
      "duration": 0.1035,
      "velocity": 102,
      "chip": "ym2612"
    },
    {
      "channel": 0,
      "note": 64,
      "start": 66.3967,
      "duration": 0.2838,
      "velocity": 117,
      "chip": "ym2612"
    },
    {
      "channel": 1,
      "note": 62,
      "start": 66.3988,
      "duration": 0.1832,
      "velocity": 102,
      "chip": "ym2612"
    },
    {
      "channel": 4,
      "note": 64,
      "start": 66.4011,
      "duration": 0.1816,
      "velocity": 102,
      "chip": "ym2612"
    },
    {
      "channel": 1,
      "note": 40,
      "start": 66.5822,
      "duration": 0.2724,
      "velocity": 102,
      "chip": "ym2612"
    },
    {
      "channel": 4,
      "note": 76,
      "start": 66.5829,
      "duration": 0.0983,
      "velocity": 102,
      "chip": "ym2612"
    },
    {
      "channel": 5,
      "note": 110,
      "start": 66.5835,
      "duration": 0.371,
      "velocity": 93,
      "chip": "ym2612"
    },
    {
      "channel": 0,
      "note": 64,
      "start": 66.6807,
      "duration": 0.2699,
      "velocity": 117,
      "chip": "ym2612"
    },
    {
      "channel": 4,
      "note": 73,
      "start": 66.6814,
      "duration": 0.0993,
      "velocity": 102,
      "chip": "ym2612"
    },
    {
      "channel": 4,
      "note": 71,
      "start": 66.7809,
      "duration": 0.0745,
      "velocity": 102,
      "chip": "ym2612"
    },
    {
      "channel": 1,
      "note": 52,
      "start": 66.8549,
      "duration": 0.0978,
      "velocity": 120,
      "chip": "ym2612"
    },
    {
      "channel": 4,
      "note": 76,
      "start": 66.8555,
      "duration": 0.0984,
      "velocity": 102,
      "chip": "ym2612"
    },
    {
      "channel": 0,
      "note": 59,
      "start": 66.9507,
      "duration": 0.0998,
      "velocity": 117,
      "chip": "ym2612"
    },
    {
      "channel": 1,
      "note": 50,
      "start": 66.9529,
      "duration": 0.1721,
      "velocity": 102,
      "chip": "ym2612"
    },
    {
      "channel": 2,
      "note": 76,
      "start": 66.9535,
      "duration": 0.0977,
      "velocity": 99,
      "chip": "ym2612"
    },
    {
      "channel": 4,
      "note": 73,
      "start": 66.9541,
      "duration": 0.0977,
      "velocity": 102,
      "chip": "ym2612"
    },
    {
      "channel": 5,
      "note": 110,
      "start": 66.9547,
      "duration": 0.3568,
      "velocity": 93,
      "chip": "ym2612"
    },
    {
      "channel": 0,
      "note": 61,
      "start": 67.0507,
      "duration": 0.0722,
      "velocity": 117,
      "chip": "ym2612"
    },
    {
      "channel": 2,
      "note": 78,
      "start": 67.0514,
      "duration": 0.0742,
      "velocity": 99,
      "chip": "ym2612"
    },
    {
      "channel": 4,
      "note": 71,
      "start": 67.052,
      "duration": 0.0758,
      "velocity": 102,
      "chip": "ym2612"
    },
    {
      "channel": 0,
      "note": 64,
      "start": 67.1231,
      "duration": 0.2845,
      "velocity": 117,
      "chip": "ym2612"
    },
    {
      "channel": 1,
      "note": 38,
      "start": 67.1252,
      "duration": 0.184,
      "velocity": 120,
      "chip": "ym2612"
    },
    {
      "channel": 2,
      "note": 80,
      "start": 67.1258,
      "duration": 0.184,
      "velocity": 99,
      "chip": "ym2612"
    },
    {
      "channel": 4,
      "note": 62,
      "start": 67.1279,
      "duration": 0.183,
      "velocity": 102,
      "chip": "ym2612"
    },
    {
      "channel": 1,
      "note": 62,
      "start": 67.3094,
      "duration": 0.0987,
      "velocity": 120,
      "chip": "ym2612"
    },
    {
      "channel": 2,
      "note": 81,
      "start": 67.3099,
      "duration": 0.1983,
      "velocity": 99,
      "chip": "ym2612"
    },
    {
      "channel": 3,
      "note": 76,
      "start": 67.3105,
      "duration": 0.0982,
      "velocity": 100,
      "chip": "ym2612"
    },
    {
      "channel": 4,
      "note": 74,
      "start": 67.3111,
      "duration": 0.0982,
      "velocity": 102,
      "chip": "ym2612"
    },
    {
      "channel": 5,
      "note": 110,
      "start": 67.3117,
      "duration": 0.3678,
      "velocity": 93,
      "chip": "ym2612"
    },
    {
      "channel": 0,
      "note": 64,
      "start": 67.4077,
      "duration": 0.2673,
      "velocity": 117,
      "chip": "ym2612"
    },
    {
      "channel": 1,
      "note": 50,
      "start": 67.4083,
      "duration": 0.0994,
      "velocity": 120,
      "chip": "ym2612"
    },
    {
      "channel": 3,
      "note": 78,
      "start": 67.409,
      "duration": 0.0998,
      "velocity": 100,
      "chip": "ym2612"
    },
    {
      "channel": 4,
      "note": 71,
      "start": 67.4095,
      "duration": 0.0998,
      "velocity": 102,
      "chip": "ym2612"
    },
    {
      "channel": 1,
      "note": 62,
      "start": 67.5078,
      "duration": 0.1694,
      "velocity": 102,
      "chip": "ym2612"
    },
    {
      "channel": 2,
      "note": 80,
      "start": 67.5084,
      "duration": 0.1694,
      "velocity": 99,
      "chip": "ym2612"
    },
    {
      "channel": 3,
      "note": 80,
      "start": 67.509,
      "duration": 0.1694,
      "velocity": 100,
      "chip": "ym2612"
    },
    {
      "channel": 4,
      "note": 69,
      "start": 67.5095,
      "duration": 0.0708,
      "velocity": 102,
      "chip": "ym2612"
    },
    {
      "channel": 4,
      "note": 74,
      "start": 67.5805,
      "duration": 0.0984,
      "velocity": 102,
      "chip": "ym2612"
    },
    {
      "channel": 0,
      "note": 59,
      "start": 67.6752,
      "duration": 0.0999,
      "velocity": 117,
      "chip": "ym2612"
    },
    {
      "channel": 1,
      "note": 50,
      "start": 67.6774,
      "duration": 0.1998,
      "velocity": 120,
      "chip": "ym2612"
    },
    {
      "channel": 2,
      "note": 76,
      "start": 67.6779,
      "duration": 0.3841,
      "velocity": 99,
      "chip": "ym2612"
    },
    {
      "channel": 3,
      "note": 81,
      "start": 67.6785,
      "duration": 0.1993,
      "velocity": 100,
      "chip": "ym2612"
    },
    {
      "channel": 4,
      "note": 71,
      "start": 67.679,
      "duration": 0.0967,
      "velocity": 102,
      "chip": "ym2612"
    },
    {
      "channel": 5,
      "note": 110,
      "start": 67.6796,
      "duration": 0.3841,
      "velocity": 93,
      "chip": "ym2612"
    },
    {
      "channel": 0,
      "note": 61,
      "start": 67.7753,
      "duration": 0.0998,
      "velocity": 117,
      "chip": "ym2612"
    },
    {
      "channel": 4,
      "note": 69,
      "start": 67.776,
      "duration": 0.1039,
      "velocity": 102,
      "chip": "ym2612"
    },
    {
      "channel": 0,
      "note": 64,
      "start": 67.8752,
      "duration": 0.2846,
      "velocity": 117,
      "chip": "ym2612"
    },
    {
      "channel": 1,
      "note": 50,
      "start": 67.8774,
      "duration": 0.1841,
      "velocity": 102,
      "chip": "ym2612"
    },
    {
      "channel": 3,
      "note": 80,
      "start": 67.8779,
      "duration": 0.1846,
      "velocity": 100,
      "chip": "ym2612"
    },
    {
      "channel": 4,
      "note": 62,
      "start": 67.8801,
      "duration": 0.183,
      "velocity": 102,
      "chip": "ym2612"
    },
    {
      "channel": 1,
      "note": 38,
      "start": 68.0616,
      "duration": 0.2712,
      "velocity": 102,
      "chip": "ym2612"
    },
    {
      "channel": 2,
      "note": 73,
      "start": 68.0621,
      "duration": 0.1978,
      "velocity": 99,
      "chip": "ym2612"
    },
    {
      "channel": 3,
      "note": 76,
      "start": 68.0627,
      "duration": 0.3679,
      "velocity": 100,
      "chip": "ym2612"
    },
    {
      "channel": 4,
      "note": 74,
      "start": 68.0633,
      "duration": 0.0973,
      "velocity": 102,
      "chip": "ym2612"
    },
    {
      "channel": 5,
      "note": 110,
      "start": 68.0638,
      "duration": 0.3679,
      "velocity": 93,
      "chip": "ym2612"
    },
    {
      "channel": 0,
      "note": 64,
      "start": 68.16,
      "duration": 0.2678,
      "velocity": 117,
      "chip": "ym2612"
    },
    {
      "channel": 4,
      "note": 71,
      "start": 68.1607,
      "duration": 0.0998,
      "velocity": 102,
      "chip": "ym2612"
    },
    {
      "channel": 2,
      "note": 71,
      "start": 68.26,
      "duration": 0.3451,
      "velocity": 99,
      "chip": "ym2612"
    },
    {
      "channel": 4,
      "note": 69,
      "start": 68.2607,
      "duration": 0.0729,
      "velocity": 102,
      "chip": "ym2612"
    },
    {
      "channel": 1,
      "note": 50,
      "start": 68.333,
      "duration": 0.097,
      "velocity": 120,
      "chip": "ym2612"
    },
    {
      "channel": 4,
      "note": 74,
      "start": 68.3337,
      "duration": 0.0974,
      "velocity": 102,
      "chip": "ym2612"
    },
    {
      "channel": 0,
      "note": 59,
      "start": 68.428,
      "duration": 0.0998,
      "velocity": 117,
      "chip": "ym2612"
    },
    {
      "channel": 1,
      "note": 62,
      "start": 68.4302,
      "duration": 0.1745,
      "velocity": 102,
      "chip": "ym2612"
    },
    {
      "channel": 3,
      "note": 73,
      "start": 68.4308,
      "duration": 0.175,
      "velocity": 100,
      "chip": "ym2612"
    },
    {
      "channel": 4,
      "note": 71,
      "start": 68.4314,
      "duration": 0.0973,
      "velocity": 102,
      "chip": "ym2612"
    },
    {
      "channel": 5,
      "note": 110,
      "start": 68.4319,
      "duration": 0.3576,
      "velocity": 93,
      "chip": "ym2612"
    },
    {
      "channel": 0,
      "note": 61,
      "start": 68.528,
      "duration": 0.0745,
      "velocity": 117,
      "chip": "ym2612"
    },
    {
      "channel": 4,
      "note": 69,
      "start": 68.5288,
      "duration": 0.0791,
      "velocity": 102,
      "chip": "ym2612"
    },
    {
      "channel": 0,
      "note": 57,
      "start": 68.6027,
      "duration": 0.2835,
      "velocity": 117,
      "chip": "ym2612"
    },
    {
      "channel": 1,
      "note": 33,
      "start": 68.6048,
      "duration": 0.183,
      "velocity": 120,
      "chip": "ym2612"
    },
    {
      "channel": 2,
      "note": 69,
      "start": 68.6054,
      "duration": 0.081,
      "velocity": 99,
      "chip": "ym2612"
    },
    {
      "channel": 3,
      "note": 71,
      "start": 68.6059,
      "duration": 0.381,
      "velocity": 100,
      "chip": "ym2612"
    },
    {
      "channel": 4,
      "note": 57,
      "start": 68.6081,
      "duration": 0.1809,
      "velocity": 102,
      "chip": "ym2612"
    },
    {
      "channel": 2,
      "note": 73,
      "start": 68.6865,
      "duration": 0.1018,
      "velocity": 99,
      "chip": "ym2612"
    },
    {
      "channel": 1,
      "note": 50,
      "start": 68.788,
      "duration": 0.0988,
      "velocity": 120,
      "chip": "ym2612"
    },
    {
      "channel": 2,
      "note": 76,
      "start": 68.7885,
      "duration": 0.0988,
      "velocity": 99,
      "chip": "ym2612"
    },
    {
      "channel": 4,
      "note": 69,
      "start": 68.7892,
      "duration": 0.0987,
      "velocity": 102,
      "chip": "ym2612"
    },
    {
      "channel": 5,
      "note": 110,
      "start": 68.7898,
      "duration": 0.3684,
      "velocity": 93,
      "chip": "ym2612"
    },
    {
      "channel": 0,
      "note": 57,
      "start": 68.8864,
      "duration": 0.2679,
      "velocity": 117,
      "chip": "ym2612"
    },
    {
      "channel": 1,
      "note": 62,
      "start": 68.8869,
      "duration": 0.0994,
      "velocity": 120,
      "chip": "ym2612"
    },
    {
      "channel": 2,
      "note": 81,
      "start": 68.8875,
      "duration": 1.1977,
      "velocity": 99,
      "chip": "ym2612"
    },
    {
      "channel": 4,
      "note": 66,
      "start": 68.8881,
      "duration": 0.0994,
      "velocity": 102,
      "chip": "ym2612"
    },
    {
      "channel": 1,
      "note": 50,
      "start": 68.9864,
      "duration": 0.17,
      "velocity": 102,
      "chip": "ym2612"
    },
    {
      "channel": 3,
      "note": 69,
      "start": 68.9871,
      "duration": 0.0724,
      "velocity": 100,
      "chip": "ym2612"
    },
    {
      "channel": 4,
      "note": 64,
      "start": 68.9876,
      "duration": 0.0724,
      "velocity": 102,
      "chip": "ym2612"
    },
    {
      "channel": 3,
      "note": 73,
      "start": 69.0597,
      "duration": 0.0974,
      "velocity": 100,
      "chip": "ym2612"
    },
    {
      "channel": 4,
      "note": 69,
      "start": 69.0602,
      "duration": 0.0973,
      "velocity": 102,
      "chip": "ym2612"
    },
    {
      "channel": 0,
      "note": 52,
      "start": 69.1544,
      "duration": 0.0998,
      "velocity": 117,
      "chip": "ym2612"
    },
    {
      "channel": 1,
      "note": 45,
      "start": 69.1566,
      "duration": 0.1998,
      "velocity": 120,
      "chip": "ym2612"
    },
    {
      "channel": 3,
      "note": 76,
      "start": 69.1572,
      "duration": 0.0978,
      "velocity": 100,
      "chip": "ym2612"
    },
    {
      "channel": 4,
      "note": 66,
      "start": 69.1578,
      "duration": 0.0978,
      "velocity": 102,
      "chip": "ym2612"
    },
    {
      "channel": 5,
      "note": 110,
      "start": 69.1583,
      "duration": 0.3837,
      "velocity": 93,
      "chip": "ym2612"
    },
    {
      "channel": 0,
      "note": 54,
      "start": 69.2544,
      "duration": 0.0999,
      "velocity": 117,
      "chip": "ym2612"
    },
    {
      "channel": 3,
      "note": 81,
      "start": 69.2551,
      "duration": 1.0141,
      "velocity": 100,
      "chip": "ym2612"
    },
    {
      "channel": 4,
      "note": 64,
      "start": 69.2557,
      "duration": 0.103,
      "velocity": 102,
      "chip": "ym2612"
    },
    {
      "channel": 0,
      "note": 57,
      "start": 69.3544,
      "duration": 0.2847,
      "velocity": 117,
      "chip": "ym2612"
    },
    {
      "channel": 1,
      "note": 62,
      "start": 69.3566,
      "duration": 0.1841,
      "velocity": 102,
      "chip": "ym2612"
    },
    {
      "channel": 4,
      "note": 57,
      "start": 69.3588,
      "duration": 0.1826,
      "velocity": 102,
      "chip": "ym2612"
    },
    {
      "channel": 1,
      "note": 33,
      "start": 69.5409,
      "duration": 0.2724,
      "velocity": 102,
      "chip": "ym2612"
    },
    {
      "channel": 4,
      "note": 69,
      "start": 69.5415,
      "duration": 0.0983,
      "velocity": 102,
      "chip": "ym2612"
    },
    {
      "channel": 5,
      "note": 110,
      "start": 69.5421,
      "duration": 0.3704,
      "velocity": 93,
      "chip": "ym2612"
    },
    {
      "channel": 0,
      "note": 57,
      "start": 69.6393,
      "duration": 0.2698,
      "velocity": 117,
      "chip": "ym2612"
    },
    {
      "channel": 4,
      "note": 66,
      "start": 69.64,
      "duration": 0.0993,
      "velocity": 102,
      "chip": "ym2612"
    },
    {
      "channel": 4,
      "note": 64,
      "start": 69.7395,
      "duration": 0.0745,
      "velocity": 102,
      "chip": "ym2612"
    },
    {
      "channel": 1,
      "note": 45,
      "start": 69.8135,
      "duration": 0.0978,
      "velocity": 120,
      "chip": "ym2612"
    },
    {
      "channel": 4,
      "note": 69,
      "start": 69.8141,
      "duration": 0.0978,
      "velocity": 102,
      "chip": "ym2612"
    },
    {
      "channel": 0,
      "note": 52,
      "start": 69.9093,
      "duration": 0.0998,
      "velocity": 117,
      "chip": "ym2612"
    },
    {
      "channel": 1,
      "note": 50,
      "start": 69.9114,
      "duration": 0.1732,
      "velocity": 102,
      "chip": "ym2612"
    },
    {
      "channel": 4,
      "note": 66,
      "start": 69.9121,
      "duration": 0.0977,
      "velocity": 102,
      "chip": "ym2612"
    },
    {
      "channel": 5,
      "note": 110,
      "start": 69.9127,
      "duration": 0.3578,
      "velocity": 93,
      "chip": "ym2612"
    },
    {
      "channel": 0,
      "note": 54,
      "start": 70.0093,
      "duration": 0.0733,
      "velocity": 117,
      "chip": "ym2612"
    },
    {
      "channel": 4,
      "note": 64,
      "start": 70.01,
      "duration": 0.0773,
      "velocity": 102,
      "chip": "ym2612"
    },
    {
      "channel": 0,
      "note": 57,
      "start": 70.0827,
      "duration": 0.2845,
      "velocity": 117,
      "chip": "ym2612"
    },
    {
      "channel": 1,
      "note": 36,
      "start": 70.0848,
      "duration": 0.1839,
      "velocity": 120,
      "chip": "ym2612"
    },
    {
      "channel": 2,
      "note": 84,
      "start": 70.0853,
      "duration": 0.2829,
      "velocity": 99,
      "chip": "ym2612"
    },
    {
      "channel": 4,
      "note": 60,
      "start": 70.0876,
      "duration": 0.1823,
      "velocity": 102,
      "chip": "ym2612"
    },
    {
      "channel": 1,
      "note": 62,
      "start": 70.2688,
      "duration": 0.0989,
      "velocity": 120,
      "chip": "ym2612"
    },
    {
      "channel": 3,
      "note": 84,
      "start": 70.2695,
      "duration": 0.272,
      "velocity": 100,
      "chip": "ym2612"
    },
    {
      "channel": 4,
      "note": 72,
      "start": 70.2701,
      "duration": 0.0988,
      "velocity": 102,
      "chip": "ym2612"
    },
    {
      "channel": 5,
      "note": 110,
      "start": 70.2706,
      "duration": 0.3698,
      "velocity": 93,
      "chip": "ym2612"
    },
    {
      "channel": 0,
      "note": 57,
      "start": 70.3673,
      "duration": 0.2692,
      "velocity": 117,
      "chip": "ym2612"
    },
    {
      "channel": 1,
      "note": 50,
      "start": 70.3678,
      "duration": 0.0993,
      "velocity": 120,
      "chip": "ym2612"
    },
    {
      "channel": 2,
      "note": 83,
      "start": 70.3684,
      "duration": 0.2708,
      "velocity": 99,
      "chip": "ym2612"
    },
    {
      "channel": 4,
      "note": 69,
      "start": 70.369,
      "duration": 0.0988,
      "velocity": 102,
      "chip": "ym2612"
    },
    {
      "channel": 1,
      "note": 62,
      "start": 70.4673,
      "duration": 0.1713,
      "velocity": 102,
      "chip": "ym2612"
    },
    {
      "channel": 4,
      "note": 67,
      "start": 70.468,
      "duration": 0.074,
      "velocity": 102,
      "chip": "ym2612"
    },
    {
      "channel": 3,
      "note": 83,
      "start": 70.5417,
      "duration": 0.2976,
      "velocity": 100,
      "chip": "ym2612"
    },
    {
      "channel": 4,
      "note": 72,
      "start": 70.5422,
      "duration": 0.0976,
      "velocity": 102,
      "chip": "ym2612"
    },
    {
      "channel": 0,
      "note": 52,
      "start": 70.6366,
      "duration": 0.0998,
      "velocity": 117,
      "chip": "ym2612"
    },
    {
      "channel": 1,
      "note": 48,
      "start": 70.6388,
      "duration": 0.1998,
      "velocity": 120,
      "chip": "ym2612"
    },
    {
      "channel": 2,
      "note": 81,
      "start": 70.6394,
      "duration": 0.282,
      "velocity": 99,
      "chip": "ym2612"
    },
    {
      "channel": 4,
      "note": 69,
      "start": 70.64,
      "duration": 0.0973,
      "velocity": 102,
      "chip": "ym2612"
    },
    {
      "channel": 5,
      "note": 110,
      "start": 70.6405,
      "duration": 0.3836,
      "velocity": 93,
      "chip": "ym2612"
    },
    {
      "channel": 0,
      "note": 54,
      "start": 70.7366,
      "duration": 0.0998,
      "velocity": 117,
      "chip": "ym2612"
    },
    {
      "channel": 4,
      "note": 67,
      "start": 70.7374,
      "duration": 0.1039,
      "velocity": 102,
      "chip": "ym2612"
    },
    {
      "channel": 0,
      "note": 57,
      "start": 70.8366,
      "duration": 0.2846,
      "velocity": 117,
      "chip": "ym2612"
    },
    {
      "channel": 1,
      "note": 50,
      "start": 70.8388,
      "duration": 0.1841,
      "velocity": 102,
      "chip": "ym2612"
    },
    {
      "channel": 3,
      "note": 81,
      "start": 70.8394,
      "duration": 0.2825,
      "velocity": 100,
      "chip": "ym2612"
    },
    {
      "channel": 4,
      "note": 60,
      "start": 70.8415,
      "duration": 0.182,
      "velocity": 102,
      "chip": "ym2612"
    },
    {
      "channel": 2,
      "note": 79,
      "start": 70.9216,
      "duration": 0.2997,
      "velocity": 99,
      "chip": "ym2612"
    },
    {
      "channel": 1,
      "note": 36,
      "start": 71.023,
      "duration": 0.2729,
      "velocity": 102,
      "chip": "ym2612"
    },
    {
      "channel": 4,
      "note": 72,
      "start": 71.0237,
      "duration": 0.0988,
      "velocity": 102,
      "chip": "ym2612"
    },
    {
      "channel": 5,
      "note": 110,
      "start": 71.0243,
      "duration": 0.3482,
      "velocity": 93,
      "chip": "ym2612"
    },
    {
      "channel": 0,
      "note": 57,
      "start": 71.1214,
      "duration": 0.2467,
      "velocity": 117,
      "chip": "ym2612"
    },
    {
      "channel": 3,
      "note": 79,
      "start": 71.1221,
      "duration": 0.2492,
      "velocity": 100,
      "chip": "ym2612"
    },
    {
      "channel": 4,
      "note": 69,
      "start": 71.1227,
      "duration": 0.0993,
      "velocity": 102,
      "chip": "ym2612"
    },
    {
      "channel": 2,
      "note": 76,
      "start": 71.2215,
      "duration": 0.1493,
      "velocity": 99,
      "chip": "ym2612"
    },
    {
      "channel": 4,
      "note": 67,
      "start": 71.2222,
      "duration": 0.0744,
      "velocity": 102,
      "chip": "ym2612"
    },
    {
      "channel": 1,
      "note": 48,
      "start": 71.2961,
      "duration": 0.0741,
      "velocity": 120,
      "chip": "ym2612"
    },
    {
      "channel": 4,
      "note": 72,
      "start": 71.2968,
      "duration": 0.0751,
      "velocity": 102,
      "chip": "ym2612"
    },
    {
      "channel": 0,
      "note": 52,
      "start": 71.3683,
      "duration": 0.0998,
      "velocity": 117,
      "chip": "ym2612"
    },
    {
      "channel": 1,
      "note": 62,
      "start": 71.3704,
      "duration": 0.0982,
      "velocity": 120,
      "chip": "ym2612"
    },
    {
      "channel": 2,
      "note": 74,
      "start": 71.3709,
      "duration": 0.1723,
      "velocity": 99,
      "chip": "ym2612"
    },
    {
      "channel": 3,
      "note": 76,
      "start": 71.3715,
      "duration": 0.5537,
      "velocity": 100,
      "chip": "ym2612"
    },
    {
      "channel": 4,
      "note": 69,
      "start": 71.3721,
      "duration": 0.0973,
      "velocity": 102,
      "chip": "ym2612"
    },
    {
      "channel": 5,
      "note": 110,
      "start": 71.3727,
      "duration": 0.3547,
      "velocity": 93,
      "chip": "ym2612"
    },
    {
      "channel": 0,
      "note": 54,
      "start": 71.4683,
      "duration": 0.0722,
      "velocity": 117,
      "chip": "ym2612"
    },
    {
      "channel": 1,
      "note": 50,
      "start": 71.4688,
      "duration": 0.0738,
      "velocity": 102,
      "chip": "ym2612"
    },
    {
      "channel": 4,
      "note": 67,
      "start": 71.4695,
      "duration": 0.076,
      "velocity": 102,
      "chip": "ym2612"
    },
    {
      "channel": 0,
      "note": 64,
      "start": 71.5407,
      "duration": 0.2837,
      "velocity": 117,
      "chip": "ym2612"
    },
    {
      "channel": 1,
      "note": 40,
      "start": 71.5428,
      "duration": 0.1832,
      "velocity": 120,
      "chip": "ym2612"
    },
    {
      "channel": 2,
      "note": 88,
      "start": 71.5434,
      "duration": 1.3056,
      "velocity": 99,
      "chip": "ym2612"
    },
    {
      "channel": 4,
      "note": 64,
      "start": 71.5456,
      "duration": 0.1811,
      "velocity": 102,
      "chip": "ym2612"
    },
    {
      "channel": 1,
      "note": 50,
      "start": 71.7262,
      "duration": 0.0988,
      "velocity": 120,
      "chip": "ym2612"
    },
    {
      "channel": 4,
      "note": 76,
      "start": 71.7268,
      "duration": 0.0988,
      "velocity": 102,
      "chip": "ym2612"
    },
    {
      "channel": 5,
      "note": 110,
      "start": 71.7275,
      "duration": 0.3682,
      "velocity": 93,
      "chip": "ym2612"
    },
    {
      "channel": 0,
      "note": 64,
      "start": 71.8246,
      "duration": 0.2677,
      "velocity": 117,
      "chip": "ym2612"
    },
    {
      "channel": 1,
      "note": 62,
      "start": 71.8251,
      "duration": 0.0994,
      "velocity": 120,
      "chip": "ym2612"
    },
    {
      "channel": 4,
      "note": 73,
      "start": 71.8258,
      "duration": 0.0999,
      "velocity": 102,
      "chip": "ym2612"
    },
    {
      "channel": 1,
      "note": 50,
      "start": 71.9247,
      "duration": 0.1697,
      "velocity": 102,
      "chip": "ym2612"
    },
    {
      "channel": 3,
      "note": 88,
      "start": 71.9254,
      "duration": 1.2806,
      "velocity": 100,
      "chip": "ym2612"
    },
    {
      "channel": 4,
      "note": 71,
      "start": 71.9259,
      "duration": 0.0713,
      "velocity": 102,
      "chip": "ym2612"
    },
    {
      "channel": 4,
      "note": 76,
      "start": 71.9973,
      "duration": 0.0978,
      "velocity": 102,
      "chip": "ym2612"
    },
    {
      "channel": 0,
      "note": 59,
      "start": 72.0924,
      "duration": 0.0999,
      "velocity": 117,
      "chip": "ym2612"
    },
    {
      "channel": 1,
      "note": 52,
      "start": 72.0946,
      "duration": 0.1998,
      "velocity": 120,
      "chip": "ym2612"
    },
    {
      "channel": 4,
      "note": 73,
      "start": 72.0953,
      "duration": 0.0977,
      "velocity": 102,
      "chip": "ym2612"
    },
    {
      "channel": 5,
      "note": 110,
      "start": 72.0959,
      "duration": 0.3832,
      "velocity": 93,
      "chip": "ym2612"
    },
    {
      "channel": 0,
      "note": 61,
      "start": 72.1925,
      "duration": 0.0998,
      "velocity": 117,
      "chip": "ym2612"
    },
    {
      "channel": 4,
      "note": 71,
      "start": 72.1932,
      "duration": 0.1035,
      "velocity": 102,
      "chip": "ym2612"
    },
    {
      "channel": 0,
      "note": 64,
      "start": 72.2924,
      "duration": 0.2838,
      "velocity": 117,
      "chip": "ym2612"
    },
    {
      "channel": 1,
      "note": 62,
      "start": 72.2946,
      "duration": 0.1832,
      "velocity": 102,
      "chip": "ym2612"
    },
    {
      "channel": 4,
      "note": 64,
      "start": 72.2969,
      "duration": 0.1816,
      "velocity": 102,
      "chip": "ym2612"
    },
    {
      "channel": 1,
      "note": 40,
      "start": 72.478,
      "duration": 0.2724,
      "velocity": 102,
      "chip": "ym2612"
    },
    {
      "channel": 4,
      "note": 76,
      "start": 72.4786,
      "duration": 0.0983,
      "velocity": 102,
      "chip": "ym2612"
    },
    {
      "channel": 5,
      "note": 110,
      "start": 72.4792,
      "duration": 0.3709,
      "velocity": 93,
      "chip": "ym2612"
    },
    {
      "channel": 0,
      "note": 64,
      "start": 72.5763,
      "duration": 0.2699,
      "velocity": 117,
      "chip": "ym2612"
    },
    {
      "channel": 4,
      "note": 73,
      "start": 72.5771,
      "duration": 0.0993,
      "velocity": 102,
      "chip": "ym2612"
    },
    {
      "channel": 4,
      "note": 71,
      "start": 72.6766,
      "duration": 0.0745,
      "velocity": 102,
      "chip": "ym2612"
    },
    {
      "channel": 1,
      "note": 52,
      "start": 72.7506,
      "duration": 0.0978,
      "velocity": 120,
      "chip": "ym2612"
    },
    {
      "channel": 4,
      "note": 76,
      "start": 72.7512,
      "duration": 0.0983,
      "velocity": 102,
      "chip": "ym2612"
    },
    {
      "channel": 0,
      "note": 59,
      "start": 72.8464,
      "duration": 0.0998,
      "velocity": 117,
      "chip": "ym2612"
    },
    {
      "channel": 1,
      "note": 50,
      "start": 72.8486,
      "duration": 0.1721,
      "velocity": 102,
      "chip": "ym2612"
    },
    {
      "channel": 2,
      "note": 86,
      "start": 72.8491,
      "duration": 0.0978,
      "velocity": 99,
      "chip": "ym2612"
    },
    {
      "channel": 4,
      "note": 73,
      "start": 72.8497,
      "duration": 0.0978,
      "velocity": 102,
      "chip": "ym2612"
    },
    {
      "channel": 5,
      "note": 110,
      "start": 72.8503,
      "duration": 0.3568,
      "velocity": 93,
      "chip": "ym2612"
    },
    {
      "channel": 0,
      "note": 61,
      "start": 72.9464,
      "duration": 0.0722,
      "velocity": 117,
      "chip": "ym2612"
    },
    {
      "channel": 2,
      "note": 85,
      "start": 72.9471,
      "duration": 0.0742,
      "velocity": 99,
      "chip": "ym2612"
    },
    {
      "channel": 4,
      "note": 71,
      "start": 72.9476,
      "duration": 0.0758,
      "velocity": 102,
      "chip": "ym2612"
    },
    {
      "channel": 0,
      "note": 64,
      "start": 73.0188,
      "duration": 0.2845,
      "velocity": 117,
      "chip": "ym2612"
    },
    {
      "channel": 1,
      "note": 38,
      "start": 73.0209,
      "duration": 0.184,
      "velocity": 120,
      "chip": "ym2612"
    },
    {
      "channel": 2,
      "note": 86,
      "start": 73.0215,
      "duration": 0.184,
      "velocity": 99,
      "chip": "ym2612"
    },
    {
      "channel": 4,
      "note": 62,
      "start": 73.0236,
      "duration": 0.1829,
      "velocity": 102,
      "chip": "ym2612"
    },
    {
      "channel": 1,
      "note": 62,
      "start": 73.2051,
      "duration": 0.0988,
      "velocity": 120,
      "chip": "ym2612"
    },
    {
      "channel": 2,
      "note": 85,
      "start": 73.2056,
      "duration": 0.1983,
      "velocity": 99,
      "chip": "ym2612"
    },
    {
      "channel": 3,
      "note": 86,
      "start": 73.2062,
      "duration": 0.0983,
      "velocity": 100,
      "chip": "ym2612"
    },
    {
      "channel": 4,
      "note": 74,
      "start": 73.2067,
      "duration": 0.0983,
      "velocity": 102,
      "chip": "ym2612"
    },
    {
      "channel": 5,
      "note": 110,
      "start": 73.2073,
      "duration": 0.3682,
      "velocity": 93,
      "chip": "ym2612"
    },
    {
      "channel": 0,
      "note": 64,
      "start": 73.3035,
      "duration": 0.2677,
      "velocity": 117,
      "chip": "ym2612"
    },
    {
      "channel": 1,
      "note": 50,
      "start": 73.304,
      "duration": 0.0994,
      "velocity": 120,
      "chip": "ym2612"
    },
    {
      "channel": 3,
      "note": 85,
      "start": 73.3046,
      "duration": 0.0998,
      "velocity": 100,
      "chip": "ym2612"
    },
    {
      "channel": 4,
      "note": 71,
      "start": 73.3052,
      "duration": 0.0998,
      "velocity": 102,
      "chip": "ym2612"
    },
    {
      "channel": 1,
      "note": 62,
      "start": 73.4035,
      "duration": 0.1698,
      "velocity": 102,
      "chip": "ym2612"
    },
    {
      "channel": 2,
      "note": 83,
      "start": 73.4041,
      "duration": 0.1698,
      "velocity": 99,
      "chip": "ym2612"
    },
    {
      "channel": 3,
      "note": 86,
      "start": 73.4046,
      "duration": 0.1698,
      "velocity": 100,
      "chip": "ym2612"
    },
    {
      "channel": 4,
      "note": 69,
      "start": 73.4052,
      "duration": 0.071,
      "velocity": 102,
      "chip": "ym2612"
    },
    {
      "channel": 4,
      "note": 74,
      "start": 73.4763,
      "duration": 0.0986,
      "velocity": 102,
      "chip": "ym2612"
    },
    {
      "channel": 0,
      "note": 59,
      "start": 73.5713,
      "duration": 0.0998,
      "velocity": 117,
      "chip": "ym2612"
    },
    {
      "channel": 1,
      "note": 50,
      "start": 73.5734,
      "duration": 0.1998,
      "velocity": 120,
      "chip": "ym2612"
    },
    {
      "channel": 2,
      "note": 81,
      "start": 73.574,
      "duration": 0.755,
      "velocity": 99,
      "chip": "ym2612"
    },
    {
      "channel": 3,
      "note": 85,
      "start": 73.5746,
      "duration": 0.1992,
      "velocity": 100,
      "chip": "ym2612"
    },
    {
      "channel": 4,
      "note": 71,
      "start": 73.5751,
      "duration": 0.0967,
      "velocity": 102,
      "chip": "ym2612"
    },
    {
      "channel": 5,
      "note": 110,
      "start": 73.5757,
      "duration": 0.384,
      "velocity": 93,
      "chip": "ym2612"
    },
    {
      "channel": 0,
      "note": 61,
      "start": 73.6713,
      "duration": 0.0998,
      "velocity": 117,
      "chip": "ym2612"
    },
    {
      "channel": 4,
      "note": 69,
      "start": 73.672,
      "duration": 0.1039,
      "velocity": 102,
      "chip": "ym2612"
    },
    {
      "channel": 0,
      "note": 64,
      "start": 73.7713,
      "duration": 0.285,
      "velocity": 117,
      "chip": "ym2612"
    },
    {
      "channel": 1,
      "note": 50,
      "start": 73.7734,
      "duration": 0.1845,
      "velocity": 102,
      "chip": "ym2612"
    },
    {
      "channel": 3,
      "note": 83,
      "start": 73.774,
      "duration": 0.1845,
      "velocity": 100,
      "chip": "ym2612"
    },
    {
      "channel": 4,
      "note": 62,
      "start": 73.7762,
      "duration": 0.1829,
      "velocity": 102,
      "chip": "ym2612"
    },
    {
      "channel": 1,
      "note": 38,
      "start": 73.958,
      "duration": 0.2724,
      "velocity": 102,
      "chip": "ym2612"
    },
    {
      "channel": 3,
      "note": 81,
      "start": 73.9587,
      "duration": 0.7274,
      "velocity": 100,
      "chip": "ym2612"
    },
    {
      "channel": 4,
      "note": 74,
      "start": 73.9593,
      "duration": 0.0978,
      "velocity": 102,
      "chip": "ym2612"
    },
    {
      "channel": 5,
      "note": 110,
      "start": 73.9598,
      "duration": 0.3704,
      "velocity": 93,
      "chip": "ym2612"
    },
    {
      "channel": 0,
      "note": 64,
      "start": 74.0564,
      "duration": 0.2699,
      "velocity": 117,
      "chip": "ym2612"
    },
    {
      "channel": 4,
      "note": 71,
      "start": 74.0572,
      "duration": 0.0992,
      "velocity": 102,
      "chip": "ym2612"
    },
    {
      "channel": 4,
      "note": 69,
      "start": 74.1566,
      "duration": 0.0745,
      "velocity": 102,
      "chip": "ym2612"
    },
    {
      "channel": 1,
      "note": 50,
      "start": 74.2307,
      "duration": 0.0978,
      "velocity": 120,
      "chip": "ym2612"
    },
    {
      "channel": 4,
      "note": 74,
      "start": 74.2313,
      "duration": 0.0983,
      "velocity": 102,
      "chip": "ym2612"
    },
    {
      "channel": 0,
      "note": 59,
      "start": 74.3265,
      "duration": 0.0998,
      "velocity": 117,
      "chip": "ym2612"
    },
    {
      "channel": 1,
      "note": 62,
      "start": 74.3287,
      "duration": 0.1721,
      "velocity": 102,
      "chip": "ym2612"
    },
    {
      "channel": 2,
      "note": 81,
      "start": 74.3292,
      "duration": 0.0978,
      "velocity": 99,
      "chip": "ym2612"
    },
    {
      "channel": 4,
      "note": 71,
      "start": 74.3298,
      "duration": 0.0978,
      "velocity": 102,
      "chip": "ym2612"
    },
    {
      "channel": 5,
      "note": 110,
      "start": 74.3304,
      "duration": 0.3568,
      "velocity": 93,
      "chip": "ym2612"
    },
    {
      "channel": 0,
      "note": 61,
      "start": 74.4265,
      "duration": 0.0722,
      "velocity": 117,
      "chip": "ym2612"
    },
    {
      "channel": 2,
      "note": 83,
      "start": 74.4271,
      "duration": 0.0742,
      "velocity": 99,
      "chip": "ym2612"
    },
    {
      "channel": 4,
      "note": 69,
      "start": 74.4277,
      "duration": 0.0758,
      "velocity": 102,
      "chip": "ym2612"
    },
    {
      "channel": 0,
      "note": 57,
      "start": 74.4989,
      "duration": 0.2845,
      "velocity": 117,
      "chip": "ym2612"
    },
    {
      "channel": 1,
      "note": 33,
      "start": 74.501,
      "duration": 0.184,
      "velocity": 120,
      "chip": "ym2612"
    },
    {
      "channel": 2,
      "note": 85,
      "start": 74.5016,
      "duration": 0.184,
      "velocity": 99,
      "chip": "ym2612"
    },
    {
      "channel": 4,
      "note": 57,
      "start": 74.5037,
      "duration": 0.1829,
      "velocity": 102,
      "chip": "ym2612"
    },
    {
      "channel": 1,
      "note": 50,
      "start": 74.6852,
      "duration": 0.0988,
      "velocity": 120,
      "chip": "ym2612"
    },
    {
      "channel": 2,
      "note": 81,
      "start": 74.6857,
      "duration": 0.1983,
      "velocity": 99,
      "chip": "ym2612"
    },
    {
      "channel": 3,
      "note": 81,
      "start": 74.6863,
      "duration": 0.0983,
      "velocity": 100,
      "chip": "ym2612"
    },
    {
      "channel": 4,
      "note": 69,
      "start": 74.6868,
      "duration": 0.0983,
      "velocity": 102,
      "chip": "ym2612"
    },
    {
      "channel": 5,
      "note": 110,
      "start": 74.6874,
      "duration": 0.3678,
      "velocity": 93,
      "chip": "ym2612"
    },
    {
      "channel": 0,
      "note": 57,
      "start": 74.7836,
      "duration": 0.2673,
      "velocity": 117,
      "chip": "ym2612"
    },
    {
      "channel": 1,
      "note": 62,
      "start": 74.7841,
      "duration": 0.0994,
      "velocity": 120,
      "chip": "ym2612"
    },
    {
      "channel": 3,
      "note": 83,
      "start": 74.7847,
      "duration": 0.0998,
      "velocity": 100,
      "chip": "ym2612"
    },
    {
      "channel": 4,
      "note": 66,
      "start": 74.7853,
      "duration": 0.0998,
      "velocity": 102,
      "chip": "ym2612"
    },
    {
      "channel": 1,
      "note": 50,
      "start": 74.8836,
      "duration": 0.1694,
      "velocity": 102,
      "chip": "ym2612"
    },
    {
      "channel": 2,
      "note": 78,
      "start": 74.8841,
      "duration": 0.1694,
      "velocity": 99,
      "chip": "ym2612"
    },
    {
      "channel": 3,
      "note": 85,
      "start": 74.8847,
      "duration": 0.1694,
      "velocity": 100,
      "chip": "ym2612"
    },
    {
      "channel": 4,
      "note": 64,
      "start": 74.8853,
      "duration": 0.0708,
      "velocity": 102,
      "chip": "ym2612"
    },
    {
      "channel": 4,
      "note": 69,
      "start": 74.9563,
      "duration": 0.0984,
      "velocity": 102,
      "chip": "ym2612"
    },
    {
      "channel": 0,
      "note": 52,
      "start": 75.051,
      "duration": 0.0999,
      "velocity": 117,
      "chip": "ym2612"
    },
    {
      "channel": 1,
      "note": 45,
      "start": 75.0532,
      "duration": 0.1998,
      "velocity": 120,
      "chip": "ym2612"
    },
    {
      "channel": 2,
      "note": 76,
      "start": 75.0537,
      "duration": 0.9251,
      "velocity": 99,
      "chip": "ym2612"
    },
    {
      "channel": 3,
      "note": 81,
      "start": 75.0543,
      "duration": 0.1993,
      "velocity": 100,
      "chip": "ym2612"
    },
    {
      "channel": 4,
      "note": 66,
      "start": 75.0548,
      "duration": 0.0967,
      "velocity": 102,
      "chip": "ym2612"
    },
    {
      "channel": 5,
      "note": 110,
      "start": 75.0554,
      "duration": 0.3836,
      "velocity": 93,
      "chip": "ym2612"
    },
    {
      "channel": 0,
      "note": 54,
      "start": 75.151,
      "duration": 0.0998,
      "velocity": 117,
      "chip": "ym2612"
    },
    {
      "channel": 4,
      "note": 64,
      "start": 75.1517,
      "duration": 0.1039,
      "velocity": 102,
      "chip": "ym2612"
    },
    {
      "channel": 0,
      "note": 57,
      "start": 75.251,
      "duration": 0.2846,
      "velocity": 117,
      "chip": "ym2612"
    },
    {
      "channel": 1,
      "note": 62,
      "start": 75.2532,
      "duration": 0.1841,
      "velocity": 102,
      "chip": "ym2612"
    },
    {
      "channel": 3,
      "note": 78,
      "start": 75.2537,
      "duration": 0.1841,
      "velocity": 100,
      "chip": "ym2612"
    },
    {
      "channel": 4,
      "note": 57,
      "start": 75.2559,
      "duration": 0.1825,
      "velocity": 102,
      "chip": "ym2612"
    },
    {
      "channel": 1,
      "note": 33,
      "start": 75.4373,
      "duration": 0.2699,
      "velocity": 102,
      "chip": "ym2612"
    },
    {
      "channel": 3,
      "note": 76,
      "start": 75.438,
      "duration": 0.9235,
      "velocity": 100,
      "chip": "ym2612"
    },
    {
      "channel": 4,
      "note": 69,
      "start": 75.4385,
      "duration": 0.0978,
      "velocity": 102,
      "chip": "ym2612"
    },
    {
      "channel": 5,
      "note": 110,
      "start": 75.4391,
      "duration": 0.367,
      "velocity": 93,
      "chip": "ym2612"
    },
    {
      "channel": 0,
      "note": 57,
      "start": 75.5357,
      "duration": 0.267,
      "velocity": 117,
      "chip": "ym2612"
    },
    {
      "channel": 4,
      "note": 66,
      "start": 75.5365,
      "duration": 0.0992,
      "velocity": 102,
      "chip": "ym2612"
    },
    {
      "channel": 4,
      "note": 64,
      "start": 75.6359,
      "duration": 0.0719,
      "velocity": 102,
      "chip": "ym2612"
    },
    {
      "channel": 1,
      "note": 45,
      "start": 75.7074,
      "duration": 0.0975,
      "velocity": 120,
      "chip": "ym2612"
    },
    {
      "channel": 4,
      "note": 69,
      "start": 75.7081,
      "duration": 0.0975,
      "velocity": 102,
      "chip": "ym2612"
    },
    {
      "channel": 0,
      "note": 52,
      "start": 75.8029,
      "duration": 0.0999,
      "velocity": 117,
      "chip": "ym2612"
    },
    {
      "channel": 1,
      "note": 50,
      "start": 75.8051,
      "duration": 0.1732,
      "velocity": 102,
      "chip": "ym2612"
    },
    {
      "channel": 4,
      "note": 66,
      "start": 75.8058,
      "duration": 0.0977,
      "velocity": 102,
      "chip": "ym2612"
    },
    {
      "channel": 5,
      "note": 110,
      "start": 75.8063,
      "duration": 0.3578,
      "velocity": 93,
      "chip": "ym2612"
    },
    {
      "channel": 0,
      "note": 54,
      "start": 75.9029,
      "duration": 0.0733,
      "velocity": 117,
      "chip": "ym2612"
    },
    {
      "channel": 4,
      "note": 64,
      "start": 75.9037,
      "duration": 0.0774,
      "velocity": 102,
      "chip": "ym2612"
    },
    {
      "channel": 0,
      "note": 57,
      "start": 75.9763,
      "duration": 0.2844,
      "velocity": 117,
      "chip": "ym2612"
    },
    {
      "channel": 1,
      "note": 36,
      "start": 75.9785,
      "duration": 0.1839,
      "velocity": 120,
      "chip": "ym2612"
    },
    {
      "channel": 2,
      "note": 79,
      "start": 75.979,
      "duration": 0.0819,
      "velocity": 99,
      "chip": "ym2612"
    },
    {
      "channel": 4,
      "note": 60,
      "start": 75.9812,
      "duration": 0.1823,
      "velocity": 102,
      "chip": "ym2612"
    },
    {
      "channel": 2,
      "note": 78,
      "start": 76.0611,
      "duration": 0.1018,
      "velocity": 99,
      "chip": "ym2612"
    },
    {
      "channel": 1,
      "note": 62,
      "start": 76.1625,
      "duration": 0.0988,
      "velocity": 120,
      "chip": "ym2612"
    },
    {
      "channel": 2,
      "note": 76,
      "start": 76.1631,
      "duration": 0.3701,
      "velocity": 99,
      "chip": "ym2612"
    },
    {
      "channel": 4,
      "note": 72,
      "start": 76.1637,
      "duration": 0.0983,
      "velocity": 102,
      "chip": "ym2612"
    },
    {
      "channel": 5,
      "note": 110,
      "start": 76.1643,
      "duration": 0.3706,
      "velocity": 93,
      "chip": "ym2612"
    },
    {
      "channel": 0,
      "note": 57,
      "start": 76.2609,
      "duration": 0.2696,
      "velocity": 117,
      "chip": "ym2612"
    },
    {
      "channel": 1,
      "note": 50,
      "start": 76.2615,
      "duration": 0.0993,
      "velocity": 120,
      "chip": "ym2612"
    },
    {
      "channel": 4,
      "note": 69,
      "start": 76.2622,
      "duration": 0.0999,
      "velocity": 102,
      "chip": "ym2612"
    },
    {
      "channel": 1,
      "note": 62,
      "start": 76.361,
      "duration": 0.1717,
      "velocity": 102,
      "chip": "ym2612"
    },
    {
      "channel": 3,
      "note": 79,
      "start": 76.3616,
      "duration": 0.0739,
      "velocity": 100,
      "chip": "ym2612"
    },
    {
      "channel": 4,
      "note": 67,
      "start": 76.3622,
      "duration": 0.0739,
      "velocity": 102,
      "chip": "ym2612"
    },
    {
      "channel": 3,
      "note": 78,
      "start": 76.4357,
      "duration": 0.0981,
      "velocity": 100,
      "chip": "ym2612"
    },
    {
      "channel": 4,
      "note": 72,
      "start": 76.4363,
      "duration": 0.0981,
      "velocity": 102,
      "chip": "ym2612"
    },
    {
      "channel": 0,
      "note": 52,
      "start": 76.5307,
      "duration": 0.0999,
      "velocity": 117,
      "chip": "ym2612"
    },
    {
      "channel": 1,
      "note": 48,
      "start": 76.5329,
      "duration": 0.1997,
      "velocity": 120,
      "chip": "ym2612"
    },
    {
      "channel": 2,
      "note": 78,
      "start": 76.5334,
      "duration": 0.3832,
      "velocity": 99,
      "chip": "ym2612"
    },
    {
      "channel": 3,
      "note": 76,
      "start": 76.534,
      "duration": 0.3832,
      "velocity": 100,
      "chip": "ym2612"
    },
    {
      "channel": 4,
      "note": 69,
      "start": 76.5345,
      "duration": 0.0967,
      "velocity": 102,
      "chip": "ym2612"
    },
    {
      "channel": 5,
      "note": 110,
      "start": 76.5351,
      "duration": 0.3832,
      "velocity": 93,
      "chip": "ym2612"
    },
    {
      "channel": 0,
      "note": 54,
      "start": 76.6307,
      "duration": 0.0998,
      "velocity": 117,
      "chip": "ym2612"
    },
    {
      "channel": 4,
      "note": 67,
      "start": 76.6315,
      "duration": 0.1034,
      "velocity": 102,
      "chip": "ym2612"
    },
    {
      "channel": 0,
      "note": 57,
      "start": 76.7306,
      "duration": 0.2839,
      "velocity": 117,
      "chip": "ym2612"
    },
    {
      "channel": 1,
      "note": 50,
      "start": 76.7328,
      "duration": 0.1833,
      "velocity": 102,
      "chip": "ym2612"
    },
    {
      "channel": 4,
      "note": 60,
      "start": 76.7351,
      "duration": 0.1827,
      "velocity": 102,
      "chip": "ym2612"
    },
    {
      "channel": 1,
      "note": 36,
      "start": 76.9163,
      "duration": 0.2727,
      "velocity": 102,
      "chip": "ym2612"
    },
    {
      "channel": 2,
      "note": 74,
      "start": 76.9168,
      "duration": 0.3476,
      "velocity": 99,
      "chip": "ym2612"
    },
    {
      "channel": 3,
      "note": 78,
      "start": 76.9173,
      "duration": 0.3476,
      "velocity": 100,
      "chip": "ym2612"
    },
    {
      "channel": 4,
      "note": 72,
      "start": 76.9179,
      "duration": 0.0973,
      "velocity": 102,
      "chip": "ym2612"
    },
    {
      "channel": 5,
      "note": 110,
      "start": 76.9185,
      "duration": 0.3476,
      "velocity": 93,
      "chip": "ym2612"
    },
    {
      "channel": 0,
      "note": 57,
      "start": 77.0147,
      "duration": 0.247,
      "velocity": 117,
      "chip": "ym2612"
    },
    {
      "channel": 4,
      "note": 69,
      "start": 77.0154,
      "duration": 0.0992,
      "velocity": 102,
      "chip": "ym2612"
    },
    {
      "channel": 4,
      "note": 67,
      "start": 77.1148,
      "duration": 0.0749,
      "velocity": 102,
      "chip": "ym2612"
    },
    {
      "channel": 1,
      "note": 48,
      "start": 77.1892,
      "duration": 0.0747,
      "velocity": 120,
      "chip": "ym2612"
    },
    {
      "channel": 4,
      "note": 72,
      "start": 77.1898,
      "duration": 0.0757,
      "velocity": 102,
      "chip": "ym2612"
    },
    {
      "channel": 0,
      "note": 52,
      "start": 77.2619,
      "duration": 0.0999,
      "velocity": 117,
      "chip": "ym2612"
    },
    {
      "channel": 1,
      "note": 62,
      "start": 77.264,
      "duration": 0.0982,
      "velocity": 120,
      "chip": "ym2612"
    },
    {
      "channel": 2,
      "note": 76,
      "start": 77.2646,
      "duration": 1.4807,
      "velocity": 99,
      "chip": "ym2612"
    },
    {
      "channel": 3,
      "note": 74,
      "start": 77.2651,
      "duration": 0.173,
      "velocity": 100,
      "chip": "ym2612"
    },
    {
      "channel": 4,
      "note": 69,
      "start": 77.2657,
      "duration": 0.0973,
      "velocity": 102,
      "chip": "ym2612"
    },
    {
      "channel": 5,
      "note": 110,
      "start": 77.2663,
      "duration": 0.3569,
      "velocity": 93,
      "chip": "ym2612"
    },
    {
      "channel": 0,
      "note": 54,
      "start": 77.3619,
      "duration": 0.0735,
      "velocity": 117,
      "chip": "ym2612"
    },
    {
      "channel": 1,
      "note": 50,
      "start": 77.3624,
      "duration": 0.075,
      "velocity": 102,
      "chip": "ym2612"
    },
    {
      "channel": 4,
      "note": 67,
      "start": 77.3632,
      "duration": 0.0772,
      "velocity": 102,
      "chip": "ym2612"
    },
    {
      "channel": 0,
      "note": 64,
      "start": 77.4356,
      "duration": 0.2847,
      "velocity": 117,
      "chip": "ym2612"
    },
    {
      "channel": 1,
      "note": 40,
      "start": 77.4376,
      "duration": 0.1842,
      "velocity": 120,
      "chip": "ym2612"
    },
    {
      "channel": 3,
      "note": 76,
      "start": 77.4383,
      "duration": 1.664,
      "velocity": 100,
      "chip": "ym2612"
    },
    {
      "channel": 4,
      "note": 64,
      "start": 77.4405,
      "duration": 0.1821,
      "velocity": 102,
      "chip": "ym2612"
    },
    {
      "channel": 1,
      "note": 50,
      "start": 77.622,
      "duration": 0.0987,
      "velocity": 120,
      "chip": "ym2612"
    },
    {
      "channel": 4,
      "note": 76,
      "start": 77.6227,
      "duration": 0.0988,
      "velocity": 102,
      "chip": "ym2612"
    },
    {
      "channel": 5,
      "note": 110,
      "start": 77.6233,
      "duration": 0.3686,
      "velocity": 93,
      "chip": "ym2612"
    },
    {
      "channel": 0,
      "note": 64,
      "start": 77.7204,
      "duration": 0.2682,
      "velocity": 117,
      "chip": "ym2612"
    },
    {
      "channel": 1,
      "note": 62,
      "start": 77.721,
      "duration": 0.0994,
      "velocity": 120,
      "chip": "ym2612"
    },
    {
      "channel": 4,
      "note": 73,
      "start": 77.7217,
      "duration": 0.0993,
      "velocity": 102,
      "chip": "ym2612"
    },
    {
      "channel": 1,
      "note": 50,
      "start": 77.8205,
      "duration": 0.1701,
      "velocity": 102,
      "chip": "ym2612"
    },
    {
      "channel": 4,
      "note": 71,
      "start": 77.8211,
      "duration": 0.0723,
      "velocity": 102,
      "chip": "ym2612"
    },
    {
      "channel": 4,
      "note": 76,
      "start": 77.8937,
      "duration": 0.0977,
      "velocity": 102,
      "chip": "ym2612"
    },
    {
      "channel": 0,
      "note": 59,
      "start": 77.9887,
      "duration": 0.0998,
      "velocity": 117,
      "chip": "ym2612"
    },
    {
      "channel": 1,
      "note": 52,
      "start": 77.9908,
      "duration": 0.1998,
      "velocity": 120,
      "chip": "ym2612"
    },
    {
      "channel": 4,
      "note": 73,
      "start": 77.9915,
      "duration": 0.0977,
      "velocity": 102,
      "chip": "ym2612"
    },
    {
      "channel": 5,
      "note": 110,
      "start": 77.9921,
      "duration": 0.3832,
      "velocity": 93,
      "chip": "ym2612"
    },
    {
      "channel": 0,
      "note": 61,
      "start": 78.0886,
      "duration": 0.0999,
      "velocity": 117,
      "chip": "ym2612"
    },
    {
      "channel": 4,
      "note": 71,
      "start": 78.0894,
      "duration": 0.1035,
      "velocity": 102,
      "chip": "ym2612"
    },
    {
      "channel": 0,
      "note": 64,
      "start": 78.1887,
      "duration": 0.2837,
      "velocity": 117,
      "chip": "ym2612"
    },
    {
      "channel": 1,
      "note": 62,
      "start": 78.1908,
      "duration": 0.1832,
      "velocity": 102,
      "chip": "ym2612"
    },
    {
      "channel": 4,
      "note": 64,
      "start": 78.1931,
      "duration": 0.1816,
      "velocity": 102,
      "chip": "ym2612"
    },
    {
      "channel": 1,
      "note": 40,
      "start": 78.3742,
      "duration": 0.2724,
      "velocity": 102,
      "chip": "ym2612"
    },
    {
      "channel": 4,
      "note": 76,
      "start": 78.3749,
      "duration": 0.0983,
      "velocity": 102,
      "chip": "ym2612"
    },
    {
      "channel": 5,
      "note": 110,
      "start": 78.3754,
      "duration": 0.371,
      "velocity": 93,
      "chip": "ym2612"
    },
    {
      "channel": 0,
      "note": 64,
      "start": 78.4726,
      "duration": 0.2699,
      "velocity": 117,
      "chip": "ym2612"
    },
    {
      "channel": 4,
      "note": 73,
      "start": 78.4733,
      "duration": 0.0993,
      "velocity": 102,
      "chip": "ym2612"
    },
    {
      "channel": 4,
      "note": 71,
      "start": 78.5728,
      "duration": 0.0745,
      "velocity": 102,
      "chip": "ym2612"
    },
    {
      "channel": 1,
      "note": 52,
      "start": 78.6468,
      "duration": 0.0978,
      "velocity": 120,
      "chip": "ym2612"
    },
    {
      "channel": 4,
      "note": 76,
      "start": 78.6475,
      "duration": 0.0984,
      "velocity": 102,
      "chip": "ym2612"
    },
    {
      "channel": 0,
      "note": 59,
      "start": 78.7427,
      "duration": 0.0998,
      "velocity": 117,
      "chip": "ym2612"
    },
    {
      "channel": 1,
      "note": 50,
      "start": 78.7449,
      "duration": 0.1721,
      "velocity": 102,
      "chip": "ym2612"
    },
    {
      "channel": 2,
      "note": 76,
      "start": 78.7454,
      "duration": 0.0977,
      "velocity": 99,
      "chip": "ym2612"
    },
    {
      "channel": 4,
      "note": 73,
      "start": 78.7461,
      "duration": 0.0977,
      "velocity": 102,
      "chip": "ym2612"
    },
    {
      "channel": 5,
      "note": 110,
      "start": 78.7466,
      "duration": 0.3568,
      "velocity": 93,
      "chip": "ym2612"
    },
    {
      "channel": 0,
      "note": 61,
      "start": 78.8427,
      "duration": 0.0722,
      "velocity": 117,
      "chip": "ym2612"
    },
    {
      "channel": 2,
      "note": 78,
      "start": 78.8433,
      "duration": 0.0742,
      "velocity": 99,
      "chip": "ym2612"
    },
    {
      "channel": 4,
      "note": 71,
      "start": 78.8439,
      "duration": 0.0758,
      "velocity": 102,
      "chip": "ym2612"
    },
    {
      "channel": 0,
      "note": 64,
      "start": 78.9151,
      "duration": 0.2845,
      "velocity": 117,
      "chip": "ym2612"
    },
    {
      "channel": 1,
      "note": 38,
      "start": 78.9172,
      "duration": 0.184,
      "velocity": 120,
      "chip": "ym2612"
    },
    {
      "channel": 2,
      "note": 80,
      "start": 78.9178,
      "duration": 0.184,
      "velocity": 99,
      "chip": "ym2612"
    },
    {
      "channel": 4,
      "note": 62,
      "start": 78.9199,
      "duration": 0.183,
      "velocity": 102,
      "chip": "ym2612"
    },
    {
      "channel": 1,
      "note": 62,
      "start": 79.1014,
      "duration": 0.0987,
      "velocity": 120,
      "chip": "ym2612"
    },
    {
      "channel": 2,
      "note": 81,
      "start": 79.1019,
      "duration": 0.1983,
      "velocity": 99,
      "chip": "ym2612"
    },
    {
      "channel": 3,
      "note": 76,
      "start": 79.1025,
      "duration": 0.0982,
      "velocity": 100,
      "chip": "ym2612"
    },
    {
      "channel": 4,
      "note": 74,
      "start": 79.1031,
      "duration": 0.0982,
      "velocity": 102,
      "chip": "ym2612"
    },
    {
      "channel": 5,
      "note": 110,
      "start": 79.1037,
      "duration": 0.3678,
      "velocity": 93,
      "chip": "ym2612"
    },
    {
      "channel": 0,
      "note": 64,
      "start": 79.1997,
      "duration": 0.2673,
      "velocity": 117,
      "chip": "ym2612"
    },
    {
      "channel": 1,
      "note": 50,
      "start": 79.2003,
      "duration": 0.0994,
      "velocity": 120,
      "chip": "ym2612"
    },
    {
      "channel": 3,
      "note": 78,
      "start": 79.2009,
      "duration": 0.0998,
      "velocity": 100,
      "chip": "ym2612"
    },
    {
      "channel": 4,
      "note": 71,
      "start": 79.2015,
      "duration": 0.0998,
      "velocity": 102,
      "chip": "ym2612"
    },
    {
      "channel": 1,
      "note": 62,
      "start": 79.2998,
      "duration": 0.1694,
      "velocity": 102,
      "chip": "ym2612"
    },
    {
      "channel": 2,
      "note": 80,
      "start": 79.3003,
      "duration": 0.1694,
      "velocity": 99,
      "chip": "ym2612"
    },
    {
      "channel": 3,
      "note": 80,
      "start": 79.3009,
      "duration": 0.1694,
      "velocity": 100,
      "chip": "ym2612"
    },
    {
      "channel": 4,
      "note": 69,
      "start": 79.3015,
      "duration": 0.0708,
      "velocity": 102,
      "chip": "ym2612"
    },
    {
      "channel": 4,
      "note": 74,
      "start": 79.3724,
      "duration": 0.0984,
      "velocity": 102,
      "chip": "ym2612"
    },
    {
      "channel": 0,
      "note": 59,
      "start": 79.4672,
      "duration": 0.0999,
      "velocity": 117,
      "chip": "ym2612"
    },
    {
      "channel": 1,
      "note": 50,
      "start": 79.4693,
      "duration": 0.1998,
      "velocity": 120,
      "chip": "ym2612"
    },
    {
      "channel": 2,
      "note": 76,
      "start": 79.4699,
      "duration": 0.3841,
      "velocity": 99,
      "chip": "ym2612"
    },
    {
      "channel": 3,
      "note": 81,
      "start": 79.4705,
      "duration": 0.1993,
      "velocity": 100,
      "chip": "ym2612"
    },
    {
      "channel": 4,
      "note": 71,
      "start": 79.471,
      "duration": 0.0967,
      "velocity": 102,
      "chip": "ym2612"
    },
    {
      "channel": 5,
      "note": 110,
      "start": 79.4716,
      "duration": 0.3841,
      "velocity": 93,
      "chip": "ym2612"
    },
    {
      "channel": 0,
      "note": 61,
      "start": 79.5672,
      "duration": 0.0998,
      "velocity": 117,
      "chip": "ym2612"
    },
    {
      "channel": 4,
      "note": 69,
      "start": 79.5679,
      "duration": 0.1039,
      "velocity": 102,
      "chip": "ym2612"
    },
    {
      "channel": 0,
      "note": 64,
      "start": 79.6672,
      "duration": 0.2846,
      "velocity": 117,
      "chip": "ym2612"
    },
    {
      "channel": 1,
      "note": 50,
      "start": 79.6693,
      "duration": 0.1841,
      "velocity": 102,
      "chip": "ym2612"
    },
    {
      "channel": 3,
      "note": 80,
      "start": 79.6699,
      "duration": 0.1846,
      "velocity": 100,
      "chip": "ym2612"
    },
    {
      "channel": 4,
      "note": 62,
      "start": 79.6721,
      "duration": 0.183,
      "velocity": 102,
      "chip": "ym2612"
    },
    {
      "channel": 1,
      "note": 38,
      "start": 79.8536,
      "duration": 0.2712,
      "velocity": 102,
      "chip": "ym2612"
    },
    {
      "channel": 2,
      "note": 73,
      "start": 79.8541,
      "duration": 0.1978,
      "velocity": 99,
      "chip": "ym2612"
    },
    {
      "channel": 3,
      "note": 76,
      "start": 79.8547,
      "duration": 0.3679,
      "velocity": 100,
      "chip": "ym2612"
    },
    {
      "channel": 4,
      "note": 74,
      "start": 79.8552,
      "duration": 0.0973,
      "velocity": 102,
      "chip": "ym2612"
    },
    {
      "channel": 5,
      "note": 110,
      "start": 79.8558,
      "duration": 0.3679,
      "velocity": 93,
      "chip": "ym2612"
    },
    {
      "channel": 0,
      "note": 64,
      "start": 79.952,
      "duration": 0.2679,
      "velocity": 117,
      "chip": "ym2612"
    },
    {
      "channel": 4,
      "note": 71,
      "start": 79.9527,
      "duration": 0.0998,
      "velocity": 102,
      "chip": "ym2612"
    },
    {
      "channel": 2,
      "note": 71,
      "start": 80.052,
      "duration": 0.3451,
      "velocity": 99,
      "chip": "ym2612"
    },
    {
      "channel": 4,
      "note": 69,
      "start": 80.0526,
      "duration": 0.0729,
      "velocity": 102,
      "chip": "ym2612"
    },
    {
      "channel": 1,
      "note": 50,
      "start": 80.125,
      "duration": 0.097,
      "velocity": 120,
      "chip": "ym2612"
    },
    {
      "channel": 4,
      "note": 74,
      "start": 80.1257,
      "duration": 0.0974,
      "velocity": 102,
      "chip": "ym2612"
    },
    {
      "channel": 0,
      "note": 59,
      "start": 80.22,
      "duration": 0.0998,
      "velocity": 117,
      "chip": "ym2612"
    },
    {
      "channel": 1,
      "note": 62,
      "start": 80.2222,
      "duration": 0.1745,
      "velocity": 102,
      "chip": "ym2612"
    },
    {
      "channel": 3,
      "note": 73,
      "start": 80.2228,
      "duration": 0.1749,
      "velocity": 100,
      "chip": "ym2612"
    },
    {
      "channel": 4,
      "note": 71,
      "start": 80.2234,
      "duration": 0.0973,
      "velocity": 102,
      "chip": "ym2612"
    },
    {
      "channel": 5,
      "note": 110,
      "start": 80.2239,
      "duration": 0.3598,
      "velocity": 93,
      "chip": "ym2612"
    },
    {
      "channel": 0,
      "note": 61,
      "start": 80.32,
      "duration": 0.0744,
      "velocity": 117,
      "chip": "ym2612"
    },
    {
      "channel": 4,
      "note": 69,
      "start": 80.3208,
      "duration": 0.0791,
      "velocity": 102,
      "chip": "ym2612"
    },
    {
      "channel": 0,
      "note": 57,
      "start": 80.3947,
      "duration": 0.2857,
      "velocity": 117,
      "chip": "ym2612"
    },
    {
      "channel": 1,
      "note": 33,
      "start": 80.3968,
      "duration": 0.1852,
      "velocity": 120,
      "chip": "ym2612"
    },
    {
      "channel": 2,
      "note": 69,
      "start": 80.3973,
      "duration": 0.0832,
      "velocity": 99,
      "chip": "ym2612"
    },
    {
      "channel": 3,
      "note": 71,
      "start": 80.3979,
      "duration": 0.3832,
      "velocity": 100,
      "chip": "ym2612"
    },
    {
      "channel": 4,
      "note": 57,
      "start": 80.4,
      "duration": 0.1832,
      "velocity": 102,
      "chip": "ym2612"
    },
    {
      "channel": 2,
      "note": 73,
      "start": 80.4807,
      "duration": 0.1018,
      "velocity": 99,
      "chip": "ym2612"
    },
    {
      "channel": 1,
      "note": 50,
      "start": 80.5822,
      "duration": 0.0988,
      "velocity": 120,
      "chip": "ym2612"
    },
    {
      "channel": 2,
      "note": 76,
      "start": 80.5827,
      "duration": 0.0988,
      "velocity": 99,
      "chip": "ym2612"
    },
    {
      "channel": 4,
      "note": 69,
      "start": 80.5833,
      "duration": 0.0988,
      "velocity": 102,
      "chip": "ym2612"
    },
    {
      "channel": 5,
      "note": 110,
      "start": 80.5839,
      "duration": 0.3685,
      "velocity": 93,
      "chip": "ym2612"
    },
    {
      "channel": 0,
      "note": 57,
      "start": 80.6806,
      "duration": 0.2679,
      "velocity": 117,
      "chip": "ym2612"
    },
    {
      "channel": 1,
      "note": 62,
      "start": 80.6811,
      "duration": 0.0994,
      "velocity": 120,
      "chip": "ym2612"
    },
    {
      "channel": 2,
      "note": 81,
      "start": 80.6817,
      "duration": 1.1979,
      "velocity": 99,
      "chip": "ym2612"
    },
    {
      "channel": 4,
      "note": 66,
      "start": 80.6823,
      "duration": 0.0994,
      "velocity": 102,
      "chip": "ym2612"
    },
    {
      "channel": 1,
      "note": 50,
      "start": 80.7806,
      "duration": 0.17,
      "velocity": 102,
      "chip": "ym2612"
    },
    {
      "channel": 3,
      "note": 69,
      "start": 80.7813,
      "duration": 0.0724,
      "velocity": 100,
      "chip": "ym2612"
    },
    {
      "channel": 4,
      "note": 64,
      "start": 80.7818,
      "duration": 0.0724,
      "velocity": 102,
      "chip": "ym2612"
    },
    {
      "channel": 3,
      "note": 73,
      "start": 80.8539,
      "duration": 0.0974,
      "velocity": 100,
      "chip": "ym2612"
    },
    {
      "channel": 4,
      "note": 69,
      "start": 80.8544,
      "duration": 0.0973,
      "velocity": 102,
      "chip": "ym2612"
    },
    {
      "channel": 0,
      "note": 52,
      "start": 80.9486,
      "duration": 0.0998,
      "velocity": 117,
      "chip": "ym2612"
    },
    {
      "channel": 1,
      "note": 45,
      "start": 80.9508,
      "duration": 0.1998,
      "velocity": 120,
      "chip": "ym2612"
    },
    {
      "channel": 3,
      "note": 76,
      "start": 80.9514,
      "duration": 0.0978,
      "velocity": 100,
      "chip": "ym2612"
    },
    {
      "channel": 4,
      "note": 66,
      "start": 80.952,
      "duration": 0.0978,
      "velocity": 102,
      "chip": "ym2612"
    },
    {
      "channel": 5,
      "note": 110,
      "start": 80.9525,
      "duration": 0.3837,
      "velocity": 93,
      "chip": "ym2612"
    },
    {
      "channel": 0,
      "note": 54,
      "start": 81.0486,
      "duration": 0.0998,
      "velocity": 117,
      "chip": "ym2612"
    },
    {
      "channel": 3,
      "note": 81,
      "start": 81.0493,
      "duration": 1.0143,
      "velocity": 100,
      "chip": "ym2612"
    },
    {
      "channel": 4,
      "note": 64,
      "start": 81.0499,
      "duration": 0.103,
      "velocity": 102,
      "chip": "ym2612"
    },
    {
      "channel": 0,
      "note": 57,
      "start": 81.1486,
      "duration": 0.2847,
      "velocity": 117,
      "chip": "ym2612"
    },
    {
      "channel": 1,
      "note": 62,
      "start": 81.1508,
      "duration": 0.1841,
      "velocity": 102,
      "chip": "ym2612"
    },
    {
      "channel": 4,
      "note": 57,
      "start": 81.153,
      "duration": 0.1826,
      "velocity": 102,
      "chip": "ym2612"
    },
    {
      "channel": 1,
      "note": 33,
      "start": 81.3351,
      "duration": 0.2725,
      "velocity": 102,
      "chip": "ym2612"
    },
    {
      "channel": 4,
      "note": 69,
      "start": 81.3357,
      "duration": 0.0983,
      "velocity": 102,
      "chip": "ym2612"
    },
    {
      "channel": 5,
      "note": 110,
      "start": 81.3363,
      "duration": 0.3705,
      "velocity": 93,
      "chip": "ym2612"
    },
    {
      "channel": 0,
      "note": 57,
      "start": 81.4335,
      "duration": 0.2699,
      "velocity": 117,
      "chip": "ym2612"
    },
    {
      "channel": 4,
      "note": 66,
      "start": 81.4342,
      "duration": 0.0993,
      "velocity": 102,
      "chip": "ym2612"
    },
    {
      "channel": 4,
      "note": 64,
      "start": 81.5337,
      "duration": 0.0746,
      "velocity": 102,
      "chip": "ym2612"
    },
    {
      "channel": 1,
      "note": 45,
      "start": 81.6078,
      "duration": 0.0978,
      "velocity": 120,
      "chip": "ym2612"
    },
    {
      "channel": 4,
      "note": 69,
      "start": 81.6084,
      "duration": 0.0978,
      "velocity": 102,
      "chip": "ym2612"
    },
    {
      "channel": 0,
      "note": 52,
      "start": 81.7036,
      "duration": 0.0998,
      "velocity": 117,
      "chip": "ym2612"
    },
    {
      "channel": 1,
      "note": 50,
      "start": 81.7057,
      "duration": 0.1732,
      "velocity": 102,
      "chip": "ym2612"
    },
    {
      "channel": 4,
      "note": 66,
      "start": 81.7064,
      "duration": 0.0977,
      "velocity": 102,
      "chip": "ym2612"
    },
    {
      "channel": 5,
      "note": 110,
      "start": 81.707,
      "duration": 0.3578,
      "velocity": 93,
      "chip": "ym2612"
    },
    {
      "channel": 0,
      "note": 54,
      "start": 81.8036,
      "duration": 0.0733,
      "velocity": 117,
      "chip": "ym2612"
    },
    {
      "channel": 4,
      "note": 64,
      "start": 81.8043,
      "duration": 0.0774,
      "velocity": 102,
      "chip": "ym2612"
    },
    {
      "channel": 0,
      "note": 57,
      "start": 81.877,
      "duration": 0.2845,
      "velocity": 117,
      "chip": "ym2612"
    },
    {
      "channel": 1,
      "note": 36,
      "start": 81.8792,
      "duration": 0.1839,
      "velocity": 120,
      "chip": "ym2612"
    },
    {
      "channel": 2,
      "note": 84,
      "start": 81.8797,
      "duration": 0.2829,
      "velocity": 99,
      "chip": "ym2612"
    },
    {
      "channel": 4,
      "note": 60,
      "start": 81.8819,
      "duration": 0.1823,
      "velocity": 102,
      "chip": "ym2612"
    },
    {
      "channel": 1,
      "note": 62,
      "start": 82.0632,
      "duration": 0.0989,
      "velocity": 120,
      "chip": "ym2612"
    },
    {
      "channel": 3,
      "note": 84,
      "start": 82.0638,
      "duration": 0.2702,
      "velocity": 100,
      "chip": "ym2612"
    },
    {
      "channel": 4,
      "note": 72,
      "start": 82.0644,
      "duration": 0.0988,
      "velocity": 102,
      "chip": "ym2612"
    },
    {
      "channel": 5,
      "note": 110,
      "start": 82.065,
      "duration": 0.368,
      "velocity": 93,
      "chip": "ym2612"
    },
    {
      "channel": 0,
      "note": 57,
      "start": 82.1617,
      "duration": 0.2674,
      "velocity": 117,
      "chip": "ym2612"
    },
    {
      "channel": 1,
      "note": 50,
      "start": 82.1622,
      "duration": 0.0993,
      "velocity": 120,
      "chip": "ym2612"
    },
    {
      "channel": 2,
      "note": 83,
      "start": 82.1627,
      "duration": 0.269,
      "velocity": 99,
      "chip": "ym2612"
    },
    {
      "channel": 4,
      "note": 69,
      "start": 82.1634,
      "duration": 0.0988,
      "velocity": 102,
      "chip": "ym2612"
    },
    {
      "channel": 1,
      "note": 62,
      "start": 82.2617,
      "duration": 0.1695,
      "velocity": 102,
      "chip": "ym2612"
    },
    {
      "channel": 4,
      "note": 67,
      "start": 82.2624,
      "duration": 0.0722,
      "velocity": 102,
      "chip": "ym2612"
    },
    {
      "channel": 3,
      "note": 83,
      "start": 82.3342,
      "duration": 0.2975,
      "velocity": 100,
      "chip": "ym2612"
    },
    {
      "channel": 4,
      "note": 72,
      "start": 82.3348,
      "duration": 0.0976,
      "velocity": 102,
      "chip": "ym2612"
    },
    {
      "channel": 0,
      "note": 52,
      "start": 82.4292,
      "duration": 0.0998,
      "velocity": 117,
      "chip": "ym2612"
    },
    {
      "channel": 1,
      "note": 48,
      "start": 82.4314,
      "duration": 0.1998,
      "velocity": 120,
      "chip": "ym2612"
    },
    {
      "channel": 2,
      "note": 81,
      "start": 82.432,
      "duration": 0.2824,
      "velocity": 99,
      "chip": "ym2612"
    },
    {
      "channel": 4,
      "note": 69,
      "start": 82.4325,
      "duration": 0.0973,
      "velocity": 102,
      "chip": "ym2612"
    },
    {
      "channel": 5,
      "note": 110,
      "start": 82.4331,
      "duration": 0.384,
      "velocity": 93,
      "chip": "ym2612"
    },
    {
      "channel": 0,
      "note": 54,
      "start": 82.5292,
      "duration": 0.0998,
      "velocity": 117,
      "chip": "ym2612"
    },
    {
      "channel": 4,
      "note": 67,
      "start": 82.53,
      "duration": 0.1039,
      "velocity": 102,
      "chip": "ym2612"
    },
    {
      "channel": 0,
      "note": 57,
      "start": 82.6292,
      "duration": 0.2851,
      "velocity": 117,
      "chip": "ym2612"
    },
    {
      "channel": 1,
      "note": 50,
      "start": 82.6313,
      "duration": 0.1845,
      "velocity": 102,
      "chip": "ym2612"
    },
    {
      "channel": 3,
      "note": 81,
      "start": 82.632,
      "duration": 0.2829,
      "velocity": 100,
      "chip": "ym2612"
    },
    {
      "channel": 4,
      "note": 60,
      "start": 82.6341,
      "duration": 0.1824,
      "velocity": 102,
      "chip": "ym2612"
    },
    {
      "channel": 2,
      "note": 79,
      "start": 82.7145,
      "duration": 0.2998,
      "velocity": 99,
      "chip": "ym2612"
    },
    {
      "channel": 1,
      "note": 36,
      "start": 82.816,
      "duration": 0.2729,
      "velocity": 102,
      "chip": "ym2612"
    },
    {
      "channel": 4,
      "note": 72,
      "start": 82.8167,
      "duration": 0.0988,
      "velocity": 102,
      "chip": "ym2612"
    },
    {
      "channel": 5,
      "note": 110,
      "start": 82.8172,
      "duration": 0.3482,
      "velocity": 93,
      "chip": "ym2612"
    },
    {
      "channel": 0,
      "note": 57,
      "start": 82.9144,
      "duration": 0.2467,
      "velocity": 117,
      "chip": "ym2612"
    },
    {
      "channel": 3,
      "note": 79,
      "start": 82.9151,
      "duration": 0.2492,
      "velocity": 100,
      "chip": "ym2612"
    },
    {
      "channel": 4,
      "note": 69,
      "start": 82.9156,
      "duration": 0.0993,
      "velocity": 102,
      "chip": "ym2612"
    },
    {
      "channel": 2,
      "note": 76,
      "start": 83.0145,
      "duration": 0.1492,
      "velocity": 99,
      "chip": "ym2612"
    },
    {
      "channel": 4,
      "note": 67,
      "start": 83.0151,
      "duration": 0.0744,
      "velocity": 102,
      "chip": "ym2612"
    },
    {
      "channel": 1,
      "note": 48,
      "start": 83.0891,
      "duration": 0.0741,
      "velocity": 120,
      "chip": "ym2612"
    },
    {
      "channel": 4,
      "note": 72,
      "start": 83.0897,
      "duration": 0.0751,
      "velocity": 102,
      "chip": "ym2612"
    },
    {
      "channel": 0,
      "note": 52,
      "start": 83.1612,
      "duration": 0.0999,
      "velocity": 117,
      "chip": "ym2612"
    },
    {
      "channel": 1,
      "note": 62,
      "start": 83.1634,
      "duration": 0.0982,
      "velocity": 120,
      "chip": "ym2612"
    },
    {
      "channel": 2,
      "note": 74,
      "start": 83.1639,
      "duration": 0.1735,
      "velocity": 99,
      "chip": "ym2612"
    },
    {
      "channel": 3,
      "note": 76,
      "start": 83.1644,
      "duration": 0.1736,
      "velocity": 100,
      "chip": "ym2612"
    },
    {
      "channel": 4,
      "note": 69,
      "start": 83.165,
      "duration": 0.0973,
      "velocity": 102,
      "chip": "ym2612"
    },
    {
      "channel": 5,
      "note": 110,
      "start": 83.1656,
      "duration": 0.3588,
      "velocity": 93,
      "chip": "ym2612"
    },
    {
      "channel": 0,
      "note": 54,
      "start": 83.2612,
      "duration": 0.0735,
      "velocity": 117,
      "chip": "ym2612"
    },
    {
      "channel": 1,
      "note": 50,
      "start": 83.2618,
      "duration": 0.075,
      "velocity": 102,
      "chip": "ym2612"
    },
    {
      "channel": 4,
      "note": 67,
      "start": 83.2625,
      "duration": 0.0777,
      "velocity": 102,
      "chip": "ym2612"
    },
    {
      "channel": 0,
      "note": 64,
      "start": 83.3349,
      "duration": 0.2861,
      "velocity": 117,
      "chip": "ym2612"
    },
    {
      "channel": 1,
      "note": 40,
      "start": 83.337,
      "duration": 0.1856,
      "velocity": 120,
      "chip": "ym2612"
    },
    {
      "channel": 2,
      "note": 76,
      "start": 83.3376,
      "duration": 2.9609,
      "velocity": 100,
      "chip": "ym2612"
    },
    {
      "channel": 3,
      "note": 74,
      "start": 83.3382,
      "duration": 0.185,
      "velocity": 100,
      "chip": "ym2612"
    },
    {
      "channel": 4,
      "note": 64,
      "start": 83.3403,
      "duration": 0.1834,
      "velocity": 102,
      "chip": "ym2612"
    },
    {
      "channel": 1,
      "note": 50,
      "start": 83.5227,
      "duration": 0.0988,
      "velocity": 120,
      "chip": "ym2612"
    },
    {
      "channel": 3,
      "note": 76,
      "start": 83.5233,
      "duration": 2.7773,
      "velocity": 99,
      "chip": "ym2612"
    },
    {
      "channel": 4,
      "note": 76,
      "start": 83.5239,
      "duration": 0.0983,
      "velocity": 102,
      "chip": "ym2612"
    },
    {
      "channel": 5,
      "note": 110,
      "start": 83.5246,
      "duration": 0.368,
      "velocity": 93,
      "chip": "ym2612"
    },
    {
      "channel": 0,
      "note": 64,
      "start": 83.6211,
      "duration": 0.2681,
      "velocity": 117,
      "chip": "ym2612"
    },
    {
      "channel": 1,
      "note": 62,
      "start": 83.6217,
      "duration": 0.0993,
      "velocity": 120,
      "chip": "ym2612"
    },
    {
      "channel": 4,
      "note": 73,
      "start": 83.6223,
      "duration": 0.0993,
      "velocity": 102,
      "chip": "ym2612"
    },
    {
      "channel": 1,
      "note": 50,
      "start": 83.7211,
      "duration": 0.1702,
      "velocity": 102,
      "chip": "ym2612"
    },
    {
      "channel": 4,
      "note": 71,
      "start": 83.7218,
      "duration": 0.0723,
      "velocity": 102,
      "chip": "ym2612"
    },
    {
      "channel": 4,
      "note": 76,
      "start": 83.7943,
      "duration": 0.0977,
      "velocity": 102,
      "chip": "ym2612"
    },
    {
      "channel": 0,
      "note": 59,
      "start": 83.8893,
      "duration": 0.0999,
      "velocity": 117,
      "chip": "ym2612"
    },
    {
      "channel": 1,
      "note": 52,
      "start": 83.8915,
      "duration": 0.1998,
      "velocity": 120,
      "chip": "ym2612"
    },
    {
      "channel": 4,
      "note": 73,
      "start": 83.8922,
      "duration": 0.0977,
      "velocity": 102,
      "chip": "ym2612"
    },
    {
      "channel": 5,
      "note": 110,
      "start": 83.8927,
      "duration": 0.3832,
      "velocity": 93,
      "chip": "ym2612"
    },
    {
      "channel": 0,
      "note": 61,
      "start": 83.9894,
      "duration": 0.0998,
      "velocity": 117,
      "chip": "ym2612"
    },
    {
      "channel": 4,
      "note": 71,
      "start": 83.9901,
      "duration": 0.1035,
      "velocity": 102,
      "chip": "ym2612"
    },
    {
      "channel": 0,
      "note": 64,
      "start": 84.0893,
      "duration": 0.2838,
      "velocity": 117,
      "chip": "ym2612"
    },
    {
      "channel": 1,
      "note": 62,
      "start": 84.0915,
      "duration": 0.1832,
      "velocity": 102,
      "chip": "ym2612"
    },
    {
      "channel": 4,
      "note": 64,
      "start": 84.0938,
      "duration": 0.1816,
      "velocity": 102,
      "chip": "ym2612"
    },
    {
      "channel": 1,
      "note": 40,
      "start": 84.2749,
      "duration": 0.2724,
      "velocity": 102,
      "chip": "ym2612"
    },
    {
      "channel": 4,
      "note": 76,
      "start": 84.2755,
      "duration": 0.0983,
      "velocity": 102,
      "chip": "ym2612"
    },
    {
      "channel": 5,
      "note": 110,
      "start": 84.2761,
      "duration": 0.3704,
      "velocity": 93,
      "chip": "ym2612"
    },
    {
      "channel": 0,
      "note": 64,
      "start": 84.3733,
      "duration": 0.2698,
      "velocity": 117,
      "chip": "ym2612"
    },
    {
      "channel": 4,
      "note": 73,
      "start": 84.374,
      "duration": 0.0993,
      "velocity": 102,
      "chip": "ym2612"
    },
    {
      "channel": 4,
      "note": 71,
      "start": 84.4735,
      "duration": 0.0745,
      "velocity": 102,
      "chip": "ym2612"
    },
    {
      "channel": 1,
      "note": 52,
      "start": 84.5475,
      "duration": 0.0978,
      "velocity": 120,
      "chip": "ym2612"
    },
    {
      "channel": 4,
      "note": 76,
      "start": 84.5481,
      "duration": 0.0978,
      "velocity": 102,
      "chip": "ym2612"
    },
    {
      "channel": 0,
      "note": 59,
      "start": 84.6432,
      "duration": 0.0999,
      "velocity": 117,
      "chip": "ym2612"
    },
    {
      "channel": 1,
      "note": 50,
      "start": 84.6454,
      "duration": 0.1732,
      "velocity": 102,
      "chip": "ym2612"
    },
    {
      "channel": 4,
      "note": 73,
      "start": 84.6461,
      "duration": 0.0977,
      "velocity": 102,
      "chip": "ym2612"
    },
    {
      "channel": 5,
      "note": 110,
      "start": 84.6467,
      "duration": 0.3575,
      "velocity": 93,
      "chip": "ym2612"
    },
    {
      "channel": 0,
      "note": 61,
      "start": 84.7433,
      "duration": 0.0733,
      "velocity": 117,
      "chip": "ym2612"
    },
    {
      "channel": 4,
      "note": 71,
      "start": 84.744,
      "duration": 0.0769,
      "velocity": 102,
      "chip": "ym2612"
    },
    {
      "channel": 0,
      "note": 64,
      "start": 84.8167,
      "duration": 0.2847,
      "velocity": 117,
      "chip": "ym2612"
    },
    {
      "channel": 1,
      "note": 38,
      "start": 84.8189,
      "duration": 0.1841,
      "velocity": 120,
      "chip": "ym2612"
    },
    {
      "channel": 4,
      "note": 62,
      "start": 84.8211,
      "duration": 0.1826,
      "velocity": 102,
      "chip": "ym2612"
    },
    {
      "channel": 1,
      "note": 62,
      "start": 85.0031,
      "duration": 0.0988,
      "velocity": 120,
      "chip": "ym2612"
    },
    {
      "channel": 4,
      "note": 74,
      "start": 85.0038,
      "duration": 0.0988,
      "velocity": 102,
      "chip": "ym2612"
    },
    {
      "channel": 5,
      "note": 110,
      "start": 85.0044,
      "duration": 0.3686,
      "velocity": 93,
      "chip": "ym2612"
    },
    {
      "channel": 0,
      "note": 64,
      "start": 85.1015,
      "duration": 0.2681,
      "velocity": 117,
      "chip": "ym2612"
    },
    {
      "channel": 1,
      "note": 50,
      "start": 85.1021,
      "duration": 0.0994,
      "velocity": 120,
      "chip": "ym2612"
    },
    {
      "channel": 4,
      "note": 71,
      "start": 85.1028,
      "duration": 0.0993,
      "velocity": 102,
      "chip": "ym2612"
    },
    {
      "channel": 1,
      "note": 62,
      "start": 85.2015,
      "duration": 0.1702,
      "velocity": 102,
      "chip": "ym2612"
    },
    {
      "channel": 4,
      "note": 69,
      "start": 85.2022,
      "duration": 0.0723,
      "velocity": 102,
      "chip": "ym2612"
    },
    {
      "channel": 4,
      "note": 74,
      "start": 85.2747,
      "duration": 0.0977,
      "velocity": 102,
      "chip": "ym2612"
    },
    {
      "channel": 0,
      "note": 59,
      "start": 85.3697,
      "duration": 0.0999,
      "velocity": 117,
      "chip": "ym2612"
    },
    {
      "channel": 1,
      "note": 50,
      "start": 85.3719,
      "duration": 0.1998,
      "velocity": 120,
      "chip": "ym2612"
    },
    {
      "channel": 4,
      "note": 71,
      "start": 85.3726,
      "duration": 0.0977,
      "velocity": 102,
      "chip": "ym2612"
    },
    {
      "channel": 5,
      "note": 110,
      "start": 85.3732,
      "duration": 0.3832,
      "velocity": 93,
      "chip": "ym2612"
    },
    {
      "channel": 0,
      "note": 61,
      "start": 85.4697,
      "duration": 0.0999,
      "velocity": 117,
      "chip": "ym2612"
    },
    {
      "channel": 4,
      "note": 69,
      "start": 85.4705,
      "duration": 0.1035,
      "velocity": 102,
      "chip": "ym2612"
    },
    {
      "channel": 0,
      "note": 64,
      "start": 85.5697,
      "duration": 0.2838,
      "velocity": 117,
      "chip": "ym2612"
    },
    {
      "channel": 1,
      "note": 50,
      "start": 85.5719,
      "duration": 0.1832,
      "velocity": 102,
      "chip": "ym2612"
    },
    {
      "channel": 4,
      "note": 62,
      "start": 85.5742,
      "duration": 0.1816,
      "velocity": 102,
      "chip": "ym2612"
    },
    {
      "channel": 1,
      "note": 38,
      "start": 85.7553,
      "duration": 0.27,
      "velocity": 102,
      "chip": "ym2612"
    },
    {
      "channel": 4,
      "note": 74,
      "start": 85.7559,
      "duration": 0.0983,
      "velocity": 102,
      "chip": "ym2612"
    },
    {
      "channel": 5,
      "note": 110,
      "start": 85.7565,
      "duration": 0.3676,
      "velocity": 93,
      "chip": "ym2612"
    },
    {
      "channel": 0,
      "note": 64,
      "start": 85.8537,
      "duration": 0.2671,
      "velocity": 117,
      "chip": "ym2612"
    },
    {
      "channel": 4,
      "note": 71,
      "start": 85.8544,
      "duration": 0.0993,
      "velocity": 102,
      "chip": "ym2612"
    },
    {
      "channel": 4,
      "note": 69,
      "start": 85.9539,
      "duration": 0.0719,
      "velocity": 102,
      "chip": "ym2612"
    },
    {
      "channel": 1,
      "note": 50,
      "start": 86.0254,
      "duration": 0.0975,
      "velocity": 120,
      "chip": "ym2612"
    },
    {
      "channel": 4,
      "note": 74,
      "start": 86.0261,
      "duration": 0.0975,
      "velocity": 102,
      "chip": "ym2612"
    },
    {
      "channel": 0,
      "note": 59,
      "start": 86.1209,
      "duration": 0.0999,
      "velocity": 117,
      "chip": "ym2612"
    },
    {
      "channel": 1,
      "note": 62,
      "start": 86.123,
      "duration": 0.1733,
      "velocity": 102,
      "chip": "ym2612"
    },
    {
      "channel": 4,
      "note": 71,
      "start": 86.1237,
      "duration": 0.0977,
      "velocity": 102,
      "chip": "ym2612"
    },
    {
      "channel": 5,
      "note": 110,
      "start": 86.1243,
      "duration": 0.3568,
      "velocity": 93,
      "chip": "ym2612"
    },
    {
      "channel": 0,
      "note": 61,
      "start": 86.2209,
      "duration": 0.0733,
      "velocity": 117,
      "chip": "ym2612"
    },
    {
      "channel": 4,
      "note": 69,
      "start": 86.2216,
      "duration": 0.0811,
      "velocity": 102,
      "chip": "ym2612"
    },
    {
      "channel": 0,
      "note": 57,
      "start": 86.2944,
      "duration": 0.284,
      "velocity": 117,
      "chip": "ym2612"
    },
    {
      "channel": 1,
      "note": 33,
      "start": 86.2965,
      "duration": 0.1834,
      "velocity": 120,
      "chip": "ym2612"
    },
    {
      "channel": 2,
      "note": 76,
      "start": 86.2986,
      "duration": 0.2808,
      "velocity": 100,
      "chip": "ym2612"
    },
    {
      "channel": 3,
      "note": 80,
      "start": 86.3008,
      "duration": 0.2792,
      "velocity": 99,
      "chip": "ym2612"
    },
    {
      "channel": 4,
      "note": 57,
      "start": 86.3029,
      "duration": 0.1777,
      "velocity": 102,
      "chip": "ym2612"
    },
    {
      "channel": 1,
      "note": 50,
      "start": 86.4801,
      "duration": 0.0989,
      "velocity": 120,
      "chip": "ym2612"
    },
    {
      "channel": 4,
      "note": 69,
      "start": 86.4807,
      "duration": 0.0999,
      "velocity": 102,
      "chip": "ym2612"
    },
    {
      "channel": 5,
      "note": 110,
      "start": 86.4813,
      "duration": 0.3689,
      "velocity": 93,
      "chip": "ym2612"
    },
    {
      "channel": 0,
      "note": 57,
      "start": 86.5785,
      "duration": 0.2673,
      "velocity": 117,
      "chip": "ym2612"
    },
    {
      "channel": 1,
      "note": 62,
      "start": 86.579,
      "duration": 0.0994,
      "velocity": 120,
      "chip": "ym2612"
    },
    {
      "channel": 2,
      "note": 78,
      "start": 86.5796,
      "duration": 0.2688,
      "velocity": 100,
      "chip": "ym2612"
    },
    {
      "channel": 3,
      "note": 81,
      "start": 86.5802,
      "duration": 0.2689,
      "velocity": 99,
      "chip": "ym2612"
    },
    {
      "channel": 4,
      "note": 66,
      "start": 86.5808,
      "duration": 0.0983,
      "velocity": 102,
      "chip": "ym2612"
    },
    {
      "channel": 1,
      "note": 50,
      "start": 86.6786,
      "duration": 0.1693,
      "velocity": 102,
      "chip": "ym2612"
    },
    {
      "channel": 4,
      "note": 64,
      "start": 86.6793,
      "duration": 0.0714,
      "velocity": 102,
      "chip": "ym2612"
    },
    {
      "channel": 4,
      "note": 69,
      "start": 86.7508,
      "duration": 0.0988,
      "velocity": 102,
      "chip": "ym2612"
    },
    {
      "channel": 0,
      "note": 52,
      "start": 86.8459,
      "duration": 0.0999,
      "velocity": 117,
      "chip": "ym2612"
    },
    {
      "channel": 1,
      "note": 45,
      "start": 86.8481,
      "duration": 0.1998,
      "velocity": 120,
      "chip": "ym2612"
    },
    {
      "channel": 2,
      "note": 80,
      "start": 86.8487,
      "duration": 0.1998,
      "velocity": 100,
      "chip": "ym2612"
    },
    {
      "channel": 3,
      "note": 83,
      "start": 86.8493,
      "duration": 0.1998,
      "velocity": 99,
      "chip": "ym2612"
    },
    {
      "channel": 4,
      "note": 66,
      "start": 86.8498,
      "duration": 0.0967,
      "velocity": 102,
      "chip": "ym2612"
    },
    {
      "channel": 5,
      "note": 110,
      "start": 86.8503,
      "duration": 0.385,
      "velocity": 93,
      "chip": "ym2612"
    },
    {
      "channel": 0,
      "note": 54,
      "start": 86.946,
      "duration": 0.0998,
      "velocity": 117,
      "chip": "ym2612"
    },
    {
      "channel": 4,
      "note": 64,
      "start": 86.9467,
      "duration": 0.1044,
      "velocity": 102,
      "chip": "ym2612"
    },
    {
      "channel": 0,
      "note": 57,
      "start": 87.0459,
      "duration": 0.2856,
      "velocity": 117,
      "chip": "ym2612"
    },
    {
      "channel": 1,
      "note": 62,
      "start": 87.0481,
      "duration": 0.185,
      "velocity": 102,
      "chip": "ym2612"
    },
    {
      "channel": 2,
      "note": 81,
      "start": 87.0487,
      "duration": 0.083,
      "velocity": 100,
      "chip": "ym2612"
    },
    {
      "channel": 3,
      "note": 85,
      "start": 87.0493,
      "duration": 0.0829,
      "velocity": 99,
      "chip": "ym2612"
    },
    {
      "channel": 4,
      "note": 57,
      "start": 87.0514,
      "duration": 0.1834,
      "velocity": 102,
      "chip": "ym2612"
    },
    {
      "channel": 2,
      "note": 76,
      "start": 87.1318,
      "duration": 0.1019,
      "velocity": 100,
      "chip": "ym2612"
    },
    {
      "channel": 3,
      "note": 81,
      "start": 87.1324,
      "duration": 0.1018,
      "velocity": 99,
      "chip": "ym2612"
    },
    {
      "channel": 1,
      "note": 33,
      "start": 87.2333,
      "duration": 0.2736,
      "velocity": 102,
      "chip": "ym2612"
    },
    {
      "channel": 2,
      "note": 73,
      "start": 87.2338,
      "duration": 0.0983,
      "velocity": 100,
      "chip": "ym2612"
    },
    {
      "channel": 3,
      "note": 78,
      "start": 87.2344,
      "duration": 0.0983,
      "velocity": 99,
      "chip": "ym2612"
    },
    {
      "channel": 4,
      "note": 69,
      "start": 87.235,
      "duration": 0.0983,
      "velocity": 102,
      "chip": "ym2612"
    },
    {
      "channel": 5,
      "note": 110,
      "start": 87.2355,
      "duration": 0.3706,
      "velocity": 93,
      "chip": "ym2612"
    },
    {
      "channel": 0,
      "note": 57,
      "start": 87.3317,
      "duration": 0.2711,
      "velocity": 117,
      "chip": "ym2612"
    },
    {
      "channel": 2,
      "note": 69,
      "start": 87.3323,
      "duration": 1.2014,
      "velocity": 120,
      "chip": "ym2612"
    },
    {
      "channel": 3,
      "note": 76,
      "start": 87.3329,
      "duration": 1.2029,
      "velocity": 93,
      "chip": "ym2612"
    },
    {
      "channel": 4,
      "note": 66,
      "start": 87.3334,
      "duration": 0.0983,
      "velocity": 102,
      "chip": "ym2612"
    },
    {
      "channel": 4,
      "note": 64,
      "start": 87.4319,
      "duration": 0.0757,
      "velocity": 102,
      "chip": "ym2612"
    },
    {
      "channel": 1,
      "note": 45,
      "start": 87.5071,
      "duration": 0.0978,
      "velocity": 120,
      "chip": "ym2612"
    },
    {
      "channel": 4,
      "note": 69,
      "start": 87.5078,
      "duration": 0.0978,
      "velocity": 102,
      "chip": "ym2612"
    },
    {
      "channel": 0,
      "note": 52,
      "start": 87.6029,
      "duration": 0.0999,
      "velocity": 117,
      "chip": "ym2612"
    },
    {
      "channel": 1,
      "note": 50,
      "start": 87.6051,
      "duration": 0.1732,
      "velocity": 102,
      "chip": "ym2612"
    },
    {
      "channel": 4,
      "note": 66,
      "start": 87.6058,
      "duration": 0.0977,
      "velocity": 102,
      "chip": "ym2612"
    },
    {
      "channel": 5,
      "note": 110,
      "start": 87.6063,
      "duration": 1.7759,
      "velocity": 93,
      "chip": "ym2612"
    },
    {
      "channel": 0,
      "note": 54,
      "start": 87.703,
      "duration": 0.0732,
      "velocity": 117,
      "chip": "ym2612"
    },
    {
      "channel": 4,
      "note": 64,
      "start": 87.7037,
      "duration": 0.0768,
      "velocity": 102,
      "chip": "ym2612"
    },
    {
      "channel": 0,
      "note": 60,
      "start": 87.7763,
      "duration": 0.1846,
      "velocity": 117,
      "chip": "ym2612"
    },
    {
      "channel": 1,
      "note": 36,
      "start": 87.7785,
      "duration": 0.3683,
      "velocity": 102,
      "chip": "ym2612"
    },
    {
      "channel": 4,
      "note": 60,
      "start": 87.7807,
      "duration": 0.1809,
      "velocity": 102,
      "chip": "ym2612"
    },
    {
      "channel": 0,
      "note": 72,
      "start": 87.961,
      "duration": 0.3858,
      "velocity": 117,
      "chip": "ym2612"
    },
    {
      "channel": 4,
      "note": 72,
      "start": 87.9618,
      "duration": 0.0994,
      "velocity": 102,
      "chip": "ym2612"
    },
    {
      "channel": 4,
      "note": 69,
      "start": 88.0614,
      "duration": 0.0862,
      "velocity": 102,
      "chip": "ym2612"
    },
    {
      "channel": 1,
      "note": 48,
      "start": 88.147,
      "duration": 0.2004,
      "velocity": 102,
      "chip": "ym2612"
    },
    {
      "channel": 4,
      "note": 67,
      "start": 88.1477,
      "duration": 0.0993,
      "velocity": 102,
      "chip": "ym2612"
    },
    {
      "channel": 4,
      "note": 72,
      "start": 88.2471,
      "duration": 0.1009,
      "velocity": 102,
      "chip": "ym2612"
    },
    {
      "channel": 0,
      "note": 62,
      "start": 88.347,
      "duration": 0.1844,
      "velocity": 117,
      "chip": "ym2612"
    },
    {
      "channel": 1,
      "note": 38,
      "start": 88.3475,
      "duration": 0.3539,
      "velocity": 102,
      "chip": "ym2612"
    },
    {
      "channel": 4,
      "note": 69,
      "start": 88.3482,
      "duration": 0.0835,
      "velocity": 102,
      "chip": "ym2612"
    },
    {
      "channel": 4,
      "note": 67,
      "start": 88.4318,
      "duration": 0.1061,
      "velocity": 102,
      "chip": "ym2612"
    },
    {
      "channel": 0,
      "note": 74,
      "start": 88.5316,
      "duration": 0.3699,
      "velocity": 117,
      "chip": "ym2612"
    },
    {
      "channel": 2,
      "note": 55,
      "start": 88.5338,
      "duration": 0.0737,
      "velocity": 120,
      "chip": "ym2612"
    },
    {
      "channel": 3,
      "note": 110,
      "start": 88.536,
      "duration": 0.3667,
      "velocity": 93,
      "chip": "ym2612"
    },
    {
      "channel": 4,
      "note": 60,
      "start": 88.5381,
      "duration": 0.1644,
      "velocity": 102,
      "chip": "ym2612"
    },
    {
      "channel": 2,
      "note": 67,
      "start": 88.6077,
      "duration": 0.0943,
      "velocity": 120,
      "chip": "ym2612"
    },
    {
      "channel": 1,
      "note": 50,
      "start": 88.7016,
      "duration": 0.2005,
      "velocity": 102,
      "chip": "ym2612"
    },
    {
      "channel": 2,
      "note": 55,
      "start": 88.7021,
      "duration": 0.0994,
      "velocity": 120,
      "chip": "ym2612"
    },
    {
      "channel": 4,
      "note": 72,
      "start": 88.7028,
      "duration": 0.0994,
      "velocity": 102,
      "chip": "ym2612"
    },
    {
      "channel": 2,
      "note": 67,
      "start": 88.8017,
      "duration": 0.1723,
      "velocity": 120,
      "chip": "ym2612"
    },
    {
      "channel": 4,
      "note": 69,
      "start": 88.8022,
      "duration": 0.101,
      "velocity": 102,
      "chip": "ym2612"
    },
    {
      "channel": 0,
      "note": 63,
      "start": 88.9017,
      "duration": 0.1469,
      "velocity": 117,
      "chip": "ym2612"
    },
    {
      "channel": 1,
      "note": 39,
      "start": 88.9022,
      "duration": 0.147,
      "velocity": 102,
      "chip": "ym2612"
    },
    {
      "channel": 3,
      "note": 110,
      "start": 88.9028,
      "duration": 0.6787,
      "velocity": 100,
      "chip": "ym2612"
    },
    {
      "channel": 4,
      "note": 67,
      "start": 88.9034,
      "duration": 0.0712,
      "velocity": 102,
      "chip": "ym2612"
    },
    {
      "channel": 2,
      "note": 55,
      "start": 88.9742,
      "duration": 0.0755,
      "velocity": 120,
      "chip": "ym2612"
    },
    {
      "channel": 4,
      "note": 72,
      "start": 88.9748,
      "duration": 0.0755,
      "velocity": 102,
      "chip": "ym2612"
    },
    {
      "channel": 0,
      "note": 75,
      "start": 89.0488,
      "duration": 0.1461,
      "velocity": 117,
      "chip": "ym2612"
    },
    {
      "channel": 1,
      "note": 51,
      "start": 89.0493,
      "duration": 0.1461,
      "velocity": 102,
      "chip": "ym2612"
    },
    {
      "channel": 2,
      "note": 67,
      "start": 89.0498,
      "duration": 0.0728,
      "velocity": 120,
      "chip": "ym2612"
    },
    {
      "channel": 4,
      "note": 69,
      "start": 89.0505,
      "duration": 0.0728,
      "velocity": 102,
      "chip": "ym2612"
    },
    {
      "channel": 2,
      "note": 67,
      "start": 89.1229,
      "duration": 0.0747,
      "velocity": 99,
      "chip": "ym2612"
    },
    {
      "channel": 4,
      "note": 67,
      "start": 89.1234,
      "duration": 0.0763,
      "velocity": 102,
      "chip": "ym2612"
    },
    {
      "channel": 0,
      "note": 64,
      "start": 89.195,
      "duration": 0.9394,
      "velocity": 117,
      "chip": "ym2612"
    },
    {
      "channel": 1,
      "note": 40,
      "start": 89.1956,
      "duration": 0.1852,
      "velocity": 120,
      "chip": "ym2612"
    },
    {
      "channel": 2,
      "note": 80,
      "start": 89.1977,
      "duration": 2.2323,
      "velocity": 99,
      "chip": "ym2612"
    },
    {
      "channel": 4,
      "note": 64,
      "start": 89.2,
      "duration": 0.1816,
      "velocity": 102,
      "chip": "ym2612"
    },
    {
      "channel": 1,
      "note": 50,
      "start": 89.3811,
      "duration": 0.0982,
      "velocity": 120,
      "chip": "ym2612"
    },
    {
      "channel": 4,
      "note": 76,
      "start": 89.3817,
      "duration": 0.0983,
      "velocity": 102,
      "chip": "ym2612"
    },
    {
      "channel": 5,
      "note": 110,
      "start": 89.3823,
      "duration": 0.3685,
      "velocity": 93,
      "chip": "ym2612"
    },
    {
      "channel": 1,
      "note": 62,
      "start": 89.4795,
      "duration": 0.0999,
      "velocity": 120,
      "chip": "ym2612"
    },
    {
      "channel": 4,
      "note": 73,
      "start": 89.4802,
      "duration": 0.1019,
      "velocity": 102,
      "chip": "ym2612"
    },
    {
      "channel": 1,
      "note": 50,
      "start": 89.5795,
      "duration": 0.1701,
      "velocity": 102,
      "chip": "ym2612"
    },
    {
      "channel": 3,
      "note": 80,
      "start": 89.5817,
      "duration": 2.2319,
      "velocity": 100,
      "chip": "ym2612"
    },
    {
      "channel": 4,
      "note": 71,
      "start": 89.5823,
      "duration": 0.0709,
      "velocity": 102,
      "chip": "ym2612"
    },
    {
      "channel": 4,
      "note": 76,
      "start": 89.6533,
      "duration": 0.097,
      "velocity": 102,
      "chip": "ym2612"
    },
    {
      "channel": 1,
      "note": 52,
      "start": 89.7498,
      "duration": 0.1998,
      "velocity": 120,
      "chip": "ym2612"
    },
    {
      "channel": 4,
      "note": 73,
      "start": 89.7504,
      "duration": 0.0978,
      "velocity": 102,
      "chip": "ym2612"
    },
    {
      "channel": 5,
      "note": 110,
      "start": 89.751,
      "duration": 0.3868,
      "velocity": 93,
      "chip": "ym2612"
    },
    {
      "channel": 4,
      "note": 71,
      "start": 89.8484,
      "duration": 0.1034,
      "velocity": 102,
      "chip": "ym2612"
    },
    {
      "channel": 1,
      "note": 62,
      "start": 89.9498,
      "duration": 0.1867,
      "velocity": 102,
      "chip": "ym2612"
    },
    {
      "channel": 4,
      "note": 64,
      "start": 89.952,
      "duration": 0.1852,
      "velocity": 102,
      "chip": "ym2612"
    },
    {
      "channel": 0,
      "note": 59,
      "start": 90.1345,
      "duration": 0.1998,
      "velocity": 117,
      "chip": "ym2612"
    },
    {
      "channel": 1,
      "note": 40,
      "start": 90.1367,
      "duration": 0.2711,
      "velocity": 102,
      "chip": "ym2612"
    },
    {
      "channel": 4,
      "note": 76,
      "start": 90.1374,
      "duration": 0.0972,
      "velocity": 102,
      "chip": "ym2612"
    },
    {
      "channel": 5,
      "note": 110,
      "start": 90.138,
      "duration": 0.3687,
      "velocity": 93,
      "chip": "ym2612"
    },
    {
      "channel": 4,
      "note": 73,
      "start": 90.2348,
      "duration": 0.1003,
      "velocity": 102,
      "chip": "ym2612"
    },
    {
      "channel": 0,
      "note": 64,
      "start": 90.3345,
      "duration": 0.1687,
      "velocity": 117,
      "chip": "ym2612"
    },
    {
      "channel": 4,
      "note": 71,
      "start": 90.3353,
      "duration": 0.0732,
      "velocity": 102,
      "chip": "ym2612"
    },
    {
      "channel": 1,
      "note": 52,
      "start": 90.408,
      "duration": 0.0973,
      "velocity": 120,
      "chip": "ym2612"
    },
    {
      "channel": 4,
      "note": 76,
      "start": 90.4087,
      "duration": 0.0974,
      "velocity": 102,
      "chip": "ym2612"
    },
    {
      "channel": 0,
      "note": 62,
      "start": 90.5034,
      "duration": 0.3558,
      "velocity": 117,
      "chip": "ym2612"
    },
    {
      "channel": 1,
      "note": 50,
      "start": 90.5056,
      "duration": 0.1717,
      "velocity": 102,
      "chip": "ym2612"
    },
    {
      "channel": 4,
      "note": 73,
      "start": 90.5063,
      "duration": 0.0973,
      "velocity": 102,
      "chip": "ym2612"
    },
    {
      "channel": 5,
      "note": 110,
      "start": 90.5068,
      "duration": 0.3558,
      "velocity": 93,
      "chip": "ym2612"
    },
    {
      "channel": 4,
      "note": 71,
      "start": 90.6037,
      "duration": 0.0759,
      "velocity": 102,
      "chip": "ym2612"
    },
    {
      "channel": 1,
      "note": 38,
      "start": 90.6774,
      "duration": 0.1839,
      "velocity": 120,
      "chip": "ym2612"
    },
    {
      "channel": 4,
      "note": 62,
      "start": 90.6797,
      "duration": 0.1823,
      "velocity": 102,
      "chip": "ym2612"
    },
    {
      "channel": 0,
      "note": 61,
      "start": 90.8594,
      "duration": 0.3685,
      "velocity": 117,
      "chip": "ym2612"
    },
    {
      "channel": 1,
      "note": 62,
      "start": 90.8615,
      "duration": 0.0978,
      "velocity": 120,
      "chip": "ym2612"
    },
    {
      "channel": 4,
      "note": 74,
      "start": 90.8622,
      "duration": 0.0977,
      "velocity": 102,
      "chip": "ym2612"
    },
    {
      "channel": 5,
      "note": 110,
      "start": 90.8628,
      "duration": 0.3685,
      "velocity": 93,
      "chip": "ym2612"
    },
    {
      "channel": 1,
      "note": 50,
      "start": 90.9594,
      "duration": 0.0998,
      "velocity": 120,
      "chip": "ym2612"
    },
    {
      "channel": 4,
      "note": 71,
      "start": 90.9601,
      "duration": 0.0998,
      "velocity": 102,
      "chip": "ym2612"
    },
    {
      "channel": 1,
      "note": 62,
      "start": 91.0594,
      "duration": 0.1705,
      "velocity": 102,
      "chip": "ym2612"
    },
    {
      "channel": 4,
      "note": 69,
      "start": 91.0601,
      "duration": 0.0726,
      "velocity": 102,
      "chip": "ym2612"
    },
    {
      "channel": 4,
      "note": 74,
      "start": 91.1329,
      "duration": 0.0977,
      "velocity": 102,
      "chip": "ym2612"
    },
    {
      "channel": 0,
      "note": 59,
      "start": 91.228,
      "duration": 0.3844,
      "velocity": 117,
      "chip": "ym2612"
    },
    {
      "channel": 1,
      "note": 50,
      "start": 91.2301,
      "duration": 0.1994,
      "velocity": 120,
      "chip": "ym2612"
    },
    {
      "channel": 4,
      "note": 71,
      "start": 91.2308,
      "duration": 0.0973,
      "velocity": 102,
      "chip": "ym2612"
    },
    {
      "channel": 5,
      "note": 110,
      "start": 91.2314,
      "duration": 0.3849,
      "velocity": 93,
      "chip": "ym2612"
    },
    {
      "channel": 4,
      "note": 69,
      "start": 91.3282,
      "duration": 0.104,
      "velocity": 102,
      "chip": "ym2612"
    },
    {
      "channel": 1,
      "note": 50,
      "start": 91.4296,
      "duration": 0.1849,
      "velocity": 102,
      "chip": "ym2612"
    },
    {
      "channel": 2,
      "note": 81,
      "start": 91.4302,
      "duration": 0.1849,
      "velocity": 99,
      "chip": "ym2612"
    },
    {
      "channel": 4,
      "note": 62,
      "start": 91.4324,
      "duration": 0.1834,
      "velocity": 102,
      "chip": "ym2612"
    },
    {
      "channel": 0,
      "note": 61,
      "start": 91.6126,
      "duration": 0.1998,
      "velocity": 117,
      "chip": "ym2612"
    },
    {
      "channel": 1,
      "note": 38,
      "start": 91.6147,
      "duration": 0.2732,
      "velocity": 102,
      "chip": "ym2612"
    },
    {
      "channel": 2,
      "note": 80,
      "start": 91.6153,
      "duration": 0.1978,
      "velocity": 99,
      "chip": "ym2612"
    },
    {
      "channel": 4,
      "note": 74,
      "start": 91.6159,
      "duration": 0.0968,
      "velocity": 102,
      "chip": "ym2612"
    },
    {
      "channel": 5,
      "note": 110,
      "start": 91.6165,
      "duration": 0.3707,
      "velocity": 93,
      "chip": "ym2612"
    },
    {
      "channel": 4,
      "note": 71,
      "start": 91.7128,
      "duration": 0.1013,
      "velocity": 102,
      "chip": "ym2612"
    },
    {
      "channel": 0,
      "note": 64,
      "start": 91.8126,
      "duration": 0.1702,
      "velocity": 117,
      "chip": "ym2612"
    },
    {
      "channel": 2,
      "note": 78,
      "start": 91.8132,
      "duration": 0.1722,
      "velocity": 99,
      "chip": "ym2612"
    },
    {
      "channel": 3,
      "note": 81,
      "start": 91.8138,
      "duration": 0.1722,
      "velocity": 100,
      "chip": "ym2612"
    },
    {
      "channel": 4,
      "note": 69,
      "start": 91.8143,
      "duration": 0.0743,
      "velocity": 102,
      "chip": "ym2612"
    },
    {
      "channel": 1,
      "note": 50,
      "start": 91.8881,
      "duration": 0.0968,
      "velocity": 120,
      "chip": "ym2612"
    },
    {
      "channel": 4,
      "note": 74,
      "start": 91.8888,
      "duration": 0.0978,
      "velocity": 102,
      "chip": "ym2612"
    },
    {
      "channel": 0,
      "note": 57,
      "start": 91.9829,
      "duration": 1.1109,
      "velocity": 117,
      "chip": "ym2612"
    },
    {
      "channel": 1,
      "note": 62,
      "start": 91.9851,
      "duration": 0.171,
      "velocity": 102,
      "chip": "ym2612"
    },
    {
      "channel": 2,
      "note": 76,
      "start": 91.9856,
      "duration": 8.9645,
      "velocity": 107,
      "chip": "ym2612"
    },
    {
      "channel": 3,
      "note": 80,
      "start": 91.9862,
      "duration": 0.1706,
      "velocity": 100,
      "chip": "ym2612"
    },
    {
      "channel": 4,
      "note": 71,
      "start": 91.9868,
      "duration": 0.0963,
      "velocity": 102,
      "chip": "ym2612"
    },
    {
      "channel": 5,
      "note": 110,
      "start": 91.9873,
      "duration": 0.3548,
      "velocity": 93,
      "chip": "ym2612"
    },
    {
      "channel": 4,
      "note": 69,
      "start": 92.0832,
      "duration": 0.0757,
      "velocity": 102,
      "chip": "ym2612"
    },
    {
      "channel": 1,
      "note": 33,
      "start": 92.1563,
      "duration": 0.1841,
      "velocity": 120,
      "chip": "ym2612"
    },
    {
      "channel": 3,
      "note": 78,
      "start": 92.157,
      "duration": 0.184,
      "velocity": 100,
      "chip": "ym2612"
    },
    {
      "channel": 4,
      "note": 57,
      "start": 92.1591,
      "duration": 0.1825,
      "velocity": 102,
      "chip": "ym2612"
    },
    {
      "channel": 1,
      "note": 50,
      "start": 92.3405,
      "duration": 0.0983,
      "velocity": 120,
      "chip": "ym2612"
    },
    {
      "channel": 3,
      "note": 76,
      "start": 92.3412,
      "duration": 8.6111,
      "velocity": 107,
      "chip": "ym2612"
    },
    {
      "channel": 4,
      "note": 69,
      "start": 92.3417,
      "duration": 0.0977,
      "velocity": 102,
      "chip": "ym2612"
    },
    {
      "channel": 5,
      "note": 110,
      "start": 92.3423,
      "duration": 0.3679,
      "velocity": 93,
      "chip": "ym2612"
    },
    {
      "channel": 1,
      "note": 62,
      "start": 92.4389,
      "duration": 0.0998,
      "velocity": 120,
      "chip": "ym2612"
    },
    {
      "channel": 4,
      "note": 66,
      "start": 92.4396,
      "duration": 0.0998,
      "velocity": 102,
      "chip": "ym2612"
    },
    {
      "channel": 1,
      "note": 50,
      "start": 92.5389,
      "duration": 0.17,
      "velocity": 102,
      "chip": "ym2612"
    },
    {
      "channel": 4,
      "note": 64,
      "start": 92.5396,
      "duration": 0.0726,
      "velocity": 102,
      "chip": "ym2612"
    },
    {
      "channel": 4,
      "note": 69,
      "start": 92.6125,
      "duration": 0.0972,
      "velocity": 102,
      "chip": "ym2612"
    },
    {
      "channel": 1,
      "note": 45,
      "start": 92.7092,
      "duration": 0.1998,
      "velocity": 120,
      "chip": "ym2612"
    },
    {
      "channel": 4,
      "note": 66,
      "start": 92.7098,
      "duration": 0.0978,
      "velocity": 102,
      "chip": "ym2612"
    },
    {
      "channel": 5,
      "note": 110,
      "start": 92.7104,
      "duration": 0.3868,
      "velocity": 93,
      "chip": "ym2612"
    },
    {
      "channel": 4,
      "note": 64,
      "start": 92.8078,
      "duration": 0.1034,
      "velocity": 102,
      "chip": "ym2612"
    },
    {
      "channel": 1,
      "note": 62,
      "start": 92.9092,
      "duration": 0.1867,
      "velocity": 102,
      "chip": "ym2612"
    },
    {
      "channel": 4,
      "note": 57,
      "start": 92.9114,
      "duration": 0.1852,
      "velocity": 102,
      "chip": "ym2612"
    },
    {
      "channel": 0,
      "note": 57,
      "start": 93.094,
      "duration": 0.1998,
      "velocity": 117,
      "chip": "ym2612"
    },
    {
      "channel": 1,
      "note": 33,
      "start": 93.0961,
      "duration": 0.2711,
      "velocity": 102,
      "chip": "ym2612"
    },
    {
      "channel": 4,
      "note": 69,
      "start": 93.0968,
      "duration": 0.0972,
      "velocity": 102,
      "chip": "ym2612"
    },
    {
      "channel": 5,
      "note": 110,
      "start": 93.0973,
      "duration": 0.3687,
      "velocity": 93,
      "chip": "ym2612"
    },
    {
      "channel": 4,
      "note": 66,
      "start": 93.1942,
      "duration": 0.1003,
      "velocity": 102,
      "chip": "ym2612"
    },
    {
      "channel": 0,
      "note": 59,
      "start": 93.2939,
      "duration": 0.1687,
      "velocity": 117,
      "chip": "ym2612"
    },
    {
      "channel": 4,
      "note": 64,
      "start": 93.2947,
      "duration": 0.0732,
      "velocity": 102,
      "chip": "ym2612"
    },
    {
      "channel": 1,
      "note": 45,
      "start": 93.3674,
      "duration": 0.0973,
      "velocity": 120,
      "chip": "ym2612"
    },
    {
      "channel": 4,
      "note": 69,
      "start": 93.368,
      "duration": 0.0974,
      "velocity": 102,
      "chip": "ym2612"
    },
    {
      "channel": 0,
      "note": 60,
      "start": 93.4628,
      "duration": 0.3551,
      "velocity": 117,
      "chip": "ym2612"
    },
    {
      "channel": 1,
      "note": 50,
      "start": 93.4649,
      "duration": 0.171,
      "velocity": 102,
      "chip": "ym2612"
    },
    {
      "channel": 4,
      "note": 66,
      "start": 93.4656,
      "duration": 0.0973,
      "velocity": 102,
      "chip": "ym2612"
    },
    {
      "channel": 5,
      "note": 110,
      "start": 93.4662,
      "duration": 0.3551,
      "velocity": 93,
      "chip": "ym2612"
    },
    {
      "channel": 4,
      "note": 64,
      "start": 93.5631,
      "duration": 0.0752,
      "velocity": 102,
      "chip": "ym2612"
    },
    {
      "channel": 1,
      "note": 36,
      "start": 93.6361,
      "duration": 0.1839,
      "velocity": 120,
      "chip": "ym2612"
    },
    {
      "channel": 4,
      "note": 60,
      "start": 93.6384,
      "duration": 0.1823,
      "velocity": 102,
      "chip": "ym2612"
    },
    {
      "channel": 0,
      "note": 59,
      "start": 93.818,
      "duration": 0.1999,
      "velocity": 117,
      "chip": "ym2612"
    },
    {
      "channel": 1,
      "note": 62,
      "start": 93.8202,
      "duration": 0.0978,
      "velocity": 120,
      "chip": "ym2612"
    },
    {
      "channel": 4,
      "note": 72,
      "start": 93.8209,
      "duration": 0.0977,
      "velocity": 102,
      "chip": "ym2612"
    },
    {
      "channel": 5,
      "note": 110,
      "start": 93.8215,
      "duration": 0.368,
      "velocity": 93,
      "chip": "ym2612"
    },
    {
      "channel": 1,
      "note": 50,
      "start": 93.9181,
      "duration": 0.1003,
      "velocity": 120,
      "chip": "ym2612"
    },
    {
      "channel": 4,
      "note": 69,
      "start": 93.9188,
      "duration": 0.1003,
      "velocity": 102,
      "chip": "ym2612"
    },
    {
      "channel": 0,
      "note": 57,
      "start": 94.018,
      "duration": 0.168,
      "velocity": 117,
      "chip": "ym2612"
    },
    {
      "channel": 1,
      "note": 62,
      "start": 94.0186,
      "duration": 0.1695,
      "velocity": 102,
      "chip": "ym2612"
    },
    {
      "channel": 4,
      "note": 67,
      "start": 94.0193,
      "duration": 0.072,
      "velocity": 102,
      "chip": "ym2612"
    },
    {
      "channel": 4,
      "note": 72,
      "start": 94.0915,
      "duration": 0.0974,
      "velocity": 102,
      "chip": "ym2612"
    },
    {
      "channel": 0,
      "note": 62,
      "start": 94.1862,
      "duration": 0.3863,
      "velocity": 117,
      "chip": "ym2612"
    },
    {
      "channel": 1,
      "note": 48,
      "start": 94.1884,
      "duration": 0.1993,
      "velocity": 120,
      "chip": "ym2612"
    },
    {
      "channel": 4,
      "note": 69,
      "start": 94.1891,
      "duration": 0.0973,
      "velocity": 102,
      "chip": "ym2612"
    },
    {
      "channel": 5,
      "note": 110,
      "start": 94.1897,
      "duration": 0.3862,
      "velocity": 93,
      "chip": "ym2612"
    },
    {
      "channel": 4,
      "note": 67,
      "start": 94.2865,
      "duration": 0.1034,
      "velocity": 102,
      "chip": "ym2612"
    },
    {
      "channel": 1,
      "note": 50,
      "start": 94.3879,
      "duration": 0.1867,
      "velocity": 102,
      "chip": "ym2612"
    },
    {
      "channel": 4,
      "note": 60,
      "start": 94.3901,
      "duration": 0.1852,
      "velocity": 102,
      "chip": "ym2612"
    },
    {
      "channel": 0,
      "note": 60,
      "start": 94.5726,
      "duration": 0.1998,
      "velocity": 117,
      "chip": "ym2612"
    },
    {
      "channel": 1,
      "note": 36,
      "start": 94.5748,
      "duration": 0.2723,
      "velocity": 102,
      "chip": "ym2612"
    },
    {
      "channel": 4,
      "note": 72,
      "start": 94.5755,
      "duration": 0.0973,
      "velocity": 102,
      "chip": "ym2612"
    },
    {
      "channel": 5,
      "note": 110,
      "start": 94.5761,
      "duration": 0.346,
      "velocity": 93,
      "chip": "ym2612"
    },
    {
      "channel": 4,
      "note": 69,
      "start": 94.6729,
      "duration": 0.1003,
      "velocity": 102,
      "chip": "ym2612"
    },
    {
      "channel": 0,
      "note": 59,
      "start": 94.7726,
      "duration": 0.32,
      "velocity": 117,
      "chip": "ym2612"
    },
    {
      "channel": 4,
      "note": 67,
      "start": 94.7734,
      "duration": 0.0744,
      "velocity": 102,
      "chip": "ym2612"
    },
    {
      "channel": 1,
      "note": 48,
      "start": 94.8473,
      "duration": 0.0735,
      "velocity": 120,
      "chip": "ym2612"
    },
    {
      "channel": 4,
      "note": 72,
      "start": 94.848,
      "duration": 0.0735,
      "velocity": 102,
      "chip": "ym2612"
    },
    {
      "channel": 1,
      "note": 62,
      "start": 94.921,
      "duration": 0.0983,
      "velocity": 120,
      "chip": "ym2612"
    },
    {
      "channel": 4,
      "note": 69,
      "start": 94.9217,
      "duration": 0.0982,
      "velocity": 102,
      "chip": "ym2612"
    },
    {
      "channel": 5,
      "note": 110,
      "start": 94.9222,
      "duration": 0.3586,
      "velocity": 93,
      "chip": "ym2612"
    },
    {
      "channel": 1,
      "note": 50,
      "start": 95.0194,
      "duration": 0.0754,
      "velocity": 102,
      "chip": "ym2612"
    },
    {
      "channel": 4,
      "note": 67,
      "start": 95.0201,
      "duration": 0.077,
      "velocity": 102,
      "chip": "ym2612"
    },
    {
      "channel": 0,
      "note": 64,
      "start": 95.0929,
      "duration": 0.2851,
      "velocity": 117,
      "chip": "ym2612"
    },
    {
      "channel": 1,
      "note": 40,
      "start": 95.0949,
      "duration": 0.1846,
      "velocity": 120,
      "chip": "ym2612"
    },
    {
      "channel": 4,
      "note": 64,
      "start": 95.0972,
      "duration": 0.183,
      "velocity": 102,
      "chip": "ym2612"
    },
    {
      "channel": 1,
      "note": 50,
      "start": 95.2797,
      "duration": 0.0988,
      "velocity": 120,
      "chip": "ym2612"
    },
    {
      "channel": 4,
      "note": 76,
      "start": 95.2804,
      "duration": 0.0988,
      "velocity": 102,
      "chip": "ym2612"
    },
    {
      "channel": 5,
      "note": 110,
      "start": 95.281,
      "duration": 0.3687,
      "velocity": 93,
      "chip": "ym2612"
    },
    {
      "channel": 0,
      "note": 64,
      "start": 95.3781,
      "duration": 0.2681,
      "velocity": 117,
      "chip": "ym2612"
    },
    {
      "channel": 1,
      "note": 62,
      "start": 95.3787,
      "duration": 0.0994,
      "velocity": 120,
      "chip": "ym2612"
    },
    {
      "channel": 4,
      "note": 73,
      "start": 95.3794,
      "duration": 0.0993,
      "velocity": 102,
      "chip": "ym2612"
    },
    {
      "channel": 1,
      "note": 50,
      "start": 95.4781,
      "duration": 0.1702,
      "velocity": 102,
      "chip": "ym2612"
    },
    {
      "channel": 4,
      "note": 71,
      "start": 95.4788,
      "duration": 0.0724,
      "velocity": 102,
      "chip": "ym2612"
    },
    {
      "channel": 4,
      "note": 76,
      "start": 95.5514,
      "duration": 0.0977,
      "velocity": 102,
      "chip": "ym2612"
    },
    {
      "channel": 0,
      "note": 59,
      "start": 95.6465,
      "duration": 0.0998,
      "velocity": 117,
      "chip": "ym2612"
    },
    {
      "channel": 1,
      "note": 52,
      "start": 95.6486,
      "duration": 0.1998,
      "velocity": 120,
      "chip": "ym2612"
    },
    {
      "channel": 4,
      "note": 73,
      "start": 95.6493,
      "duration": 0.0977,
      "velocity": 102,
      "chip": "ym2612"
    },
    {
      "channel": 5,
      "note": 110,
      "start": 95.6498,
      "duration": 0.3832,
      "velocity": 93,
      "chip": "ym2612"
    },
    {
      "channel": 0,
      "note": 61,
      "start": 95.7464,
      "duration": 0.0999,
      "velocity": 117,
      "chip": "ym2612"
    },
    {
      "channel": 4,
      "note": 71,
      "start": 95.7472,
      "duration": 0.1035,
      "velocity": 102,
      "chip": "ym2612"
    },
    {
      "channel": 0,
      "note": 64,
      "start": 95.8464,
      "duration": 0.2838,
      "velocity": 117,
      "chip": "ym2612"
    },
    {
      "channel": 1,
      "note": 62,
      "start": 95.8486,
      "duration": 0.1832,
      "velocity": 102,
      "chip": "ym2612"
    },
    {
      "channel": 4,
      "note": 64,
      "start": 95.8509,
      "duration": 0.1816,
      "velocity": 102,
      "chip": "ym2612"
    },
    {
      "channel": 1,
      "note": 40,
      "start": 96.032,
      "duration": 0.2699,
      "velocity": 102,
      "chip": "ym2612"
    },
    {
      "channel": 4,
      "note": 76,
      "start": 96.0326,
      "duration": 0.0983,
      "velocity": 102,
      "chip": "ym2612"
    },
    {
      "channel": 5,
      "note": 110,
      "start": 96.0332,
      "duration": 0.3676,
      "velocity": 93,
      "chip": "ym2612"
    },
    {
      "channel": 0,
      "note": 64,
      "start": 96.1304,
      "duration": 0.267,
      "velocity": 117,
      "chip": "ym2612"
    },
    {
      "channel": 4,
      "note": 73,
      "start": 96.1311,
      "duration": 0.0993,
      "velocity": 102,
      "chip": "ym2612"
    },
    {
      "channel": 4,
      "note": 71,
      "start": 96.2306,
      "duration": 0.0719,
      "velocity": 102,
      "chip": "ym2612"
    },
    {
      "channel": 1,
      "note": 52,
      "start": 96.302,
      "duration": 0.0975,
      "velocity": 120,
      "chip": "ym2612"
    },
    {
      "channel": 4,
      "note": 76,
      "start": 96.3027,
      "duration": 0.0975,
      "velocity": 102,
      "chip": "ym2612"
    },
    {
      "channel": 0,
      "note": 59,
      "start": 96.3975,
      "duration": 0.0999,
      "velocity": 117,
      "chip": "ym2612"
    },
    {
      "channel": 1,
      "note": 50,
      "start": 96.3997,
      "duration": 0.1733,
      "velocity": 102,
      "chip": "ym2612"
    },
    {
      "channel": 4,
      "note": 73,
      "start": 96.4004,
      "duration": 0.0977,
      "velocity": 102,
      "chip": "ym2612"
    },
    {
      "channel": 5,
      "note": 110,
      "start": 96.401,
      "duration": 0.3576,
      "velocity": 93,
      "chip": "ym2612"
    },
    {
      "channel": 0,
      "note": 61,
      "start": 96.4975,
      "duration": 0.0734,
      "velocity": 117,
      "chip": "ym2612"
    },
    {
      "channel": 4,
      "note": 71,
      "start": 96.4983,
      "duration": 0.0769,
      "velocity": 102,
      "chip": "ym2612"
    },
    {
      "channel": 0,
      "note": 64,
      "start": 96.571,
      "duration": 0.2847,
      "velocity": 117,
      "chip": "ym2612"
    },
    {
      "channel": 1,
      "note": 38,
      "start": 96.5732,
      "duration": 0.1841,
      "velocity": 120,
      "chip": "ym2612"
    },
    {
      "channel": 4,
      "note": 62,
      "start": 96.5754,
      "duration": 0.1826,
      "velocity": 102,
      "chip": "ym2612"
    },
    {
      "channel": 1,
      "note": 62,
      "start": 96.7575,
      "duration": 0.0988,
      "velocity": 120,
      "chip": "ym2612"
    },
    {
      "channel": 4,
      "note": 74,
      "start": 96.7581,
      "duration": 0.0988,
      "velocity": 102,
      "chip": "ym2612"
    },
    {
      "channel": 5,
      "note": 110,
      "start": 96.7587,
      "duration": 0.3688,
      "velocity": 93,
      "chip": "ym2612"
    },
    {
      "channel": 0,
      "note": 64,
      "start": 96.8559,
      "duration": 0.2682,
      "velocity": 117,
      "chip": "ym2612"
    },
    {
      "channel": 1,
      "note": 50,
      "start": 96.8564,
      "duration": 0.0994,
      "velocity": 120,
      "chip": "ym2612"
    },
    {
      "channel": 4,
      "note": 71,
      "start": 96.8571,
      "duration": 0.0993,
      "velocity": 102,
      "chip": "ym2612"
    },
    {
      "channel": 1,
      "note": 62,
      "start": 96.9559,
      "duration": 0.1703,
      "velocity": 102,
      "chip": "ym2612"
    },
    {
      "channel": 4,
      "note": 69,
      "start": 96.9566,
      "duration": 0.0724,
      "velocity": 102,
      "chip": "ym2612"
    },
    {
      "channel": 4,
      "note": 74,
      "start": 97.0291,
      "duration": 0.0978,
      "velocity": 102,
      "chip": "ym2612"
    },
    {
      "channel": 0,
      "note": 59,
      "start": 97.1242,
      "duration": 0.0999,
      "velocity": 117,
      "chip": "ym2612"
    },
    {
      "channel": 1,
      "note": 50,
      "start": 97.1264,
      "duration": 0.1998,
      "velocity": 120,
      "chip": "ym2612"
    },
    {
      "channel": 4,
      "note": 71,
      "start": 97.1271,
      "duration": 0.0977,
      "velocity": 102,
      "chip": "ym2612"
    },
    {
      "channel": 5,
      "note": 110,
      "start": 97.1277,
      "duration": 0.3832,
      "velocity": 93,
      "chip": "ym2612"
    },
    {
      "channel": 0,
      "note": 61,
      "start": 97.2243,
      "duration": 0.0998,
      "velocity": 117,
      "chip": "ym2612"
    },
    {
      "channel": 4,
      "note": 69,
      "start": 97.225,
      "duration": 0.1035,
      "velocity": 102,
      "chip": "ym2612"
    },
    {
      "channel": 0,
      "note": 64,
      "start": 97.3242,
      "duration": 0.2838,
      "velocity": 117,
      "chip": "ym2612"
    },
    {
      "channel": 1,
      "note": 50,
      "start": 97.3264,
      "duration": 0.1832,
      "velocity": 102,
      "chip": "ym2612"
    },
    {
      "channel": 4,
      "note": 62,
      "start": 97.3287,
      "duration": 0.1816,
      "velocity": 102,
      "chip": "ym2612"
    },
    {
      "channel": 1,
      "note": 38,
      "start": 97.5098,
      "duration": 0.2724,
      "velocity": 102,
      "chip": "ym2612"
    },
    {
      "channel": 4,
      "note": 74,
      "start": 97.5104,
      "duration": 0.0983,
      "velocity": 102,
      "chip": "ym2612"
    },
    {
      "channel": 5,
      "note": 110,
      "start": 97.511,
      "duration": 0.3704,
      "velocity": 93,
      "chip": "ym2612"
    },
    {
      "channel": 0,
      "note": 64,
      "start": 97.6082,
      "duration": 0.2698,
      "velocity": 117,
      "chip": "ym2612"
    },
    {
      "channel": 4,
      "note": 71,
      "start": 97.6089,
      "duration": 0.0993,
      "velocity": 102,
      "chip": "ym2612"
    },
    {
      "channel": 4,
      "note": 69,
      "start": 97.7084,
      "duration": 0.0745,
      "velocity": 102,
      "chip": "ym2612"
    },
    {
      "channel": 1,
      "note": 50,
      "start": 97.7824,
      "duration": 0.0978,
      "velocity": 120,
      "chip": "ym2612"
    },
    {
      "channel": 4,
      "note": 74,
      "start": 97.783,
      "duration": 0.0978,
      "velocity": 102,
      "chip": "ym2612"
    },
    {
      "channel": 0,
      "note": 59,
      "start": 97.8782,
      "duration": 0.0999,
      "velocity": 117,
      "chip": "ym2612"
    },
    {
      "channel": 1,
      "note": 62,
      "start": 97.8803,
      "duration": 0.1732,
      "velocity": 102,
      "chip": "ym2612"
    },
    {
      "channel": 4,
      "note": 71,
      "start": 97.881,
      "duration": 0.0977,
      "velocity": 102,
      "chip": "ym2612"
    },
    {
      "channel": 5,
      "note": 110,
      "start": 97.8816,
      "duration": 0.3576,
      "velocity": 93,
      "chip": "ym2612"
    },
    {
      "channel": 0,
      "note": 61,
      "start": 97.9782,
      "duration": 0.0733,
      "velocity": 117,
      "chip": "ym2612"
    },
    {
      "channel": 4,
      "note": 69,
      "start": 97.9789,
      "duration": 0.0769,
      "velocity": 102,
      "chip": "ym2612"
    },
    {
      "channel": 0,
      "note": 57,
      "start": 98.0516,
      "duration": 0.2847,
      "velocity": 117,
      "chip": "ym2612"
    },
    {
      "channel": 1,
      "note": 33,
      "start": 98.0538,
      "duration": 0.1841,
      "velocity": 120,
      "chip": "ym2612"
    },
    {
      "channel": 4,
      "note": 57,
      "start": 98.056,
      "duration": 0.1826,
      "velocity": 102,
      "chip": "ym2612"
    },
    {
      "channel": 1,
      "note": 50,
      "start": 98.2381,
      "duration": 0.0987,
      "velocity": 120,
      "chip": "ym2612"
    },
    {
      "channel": 4,
      "note": 69,
      "start": 98.2388,
      "duration": 0.0988,
      "velocity": 102,
      "chip": "ym2612"
    },
    {
      "channel": 5,
      "note": 110,
      "start": 98.2393,
      "duration": 0.3687,
      "velocity": 93,
      "chip": "ym2612"
    },
    {
      "channel": 0,
      "note": 57,
      "start": 98.3365,
      "duration": 0.2682,
      "velocity": 117,
      "chip": "ym2612"
    },
    {
      "channel": 1,
      "note": 62,
      "start": 98.3371,
      "duration": 0.0994,
      "velocity": 120,
      "chip": "ym2612"
    },
    {
      "channel": 4,
      "note": 66,
      "start": 98.3378,
      "duration": 0.0993,
      "velocity": 102,
      "chip": "ym2612"
    },
    {
      "channel": 1,
      "note": 50,
      "start": 98.4365,
      "duration": 0.1702,
      "velocity": 102,
      "chip": "ym2612"
    },
    {
      "channel": 4,
      "note": 64,
      "start": 98.4372,
      "duration": 0.0724,
      "velocity": 102,
      "chip": "ym2612"
    },
    {
      "channel": 4,
      "note": 69,
      "start": 98.5098,
      "duration": 0.0977,
      "velocity": 102,
      "chip": "ym2612"
    },
    {
      "channel": 0,
      "note": 52,
      "start": 98.6048,
      "duration": 0.0999,
      "velocity": 117,
      "chip": "ym2612"
    },
    {
      "channel": 1,
      "note": 45,
      "start": 98.607,
      "duration": 0.1998,
      "velocity": 120,
      "chip": "ym2612"
    },
    {
      "channel": 4,
      "note": 66,
      "start": 98.6077,
      "duration": 0.0977,
      "velocity": 102,
      "chip": "ym2612"
    },
    {
      "channel": 5,
      "note": 110,
      "start": 98.6082,
      "duration": 0.3832,
      "velocity": 93,
      "chip": "ym2612"
    },
    {
      "channel": 0,
      "note": 54,
      "start": 98.7049,
      "duration": 0.0998,
      "velocity": 117,
      "chip": "ym2612"
    },
    {
      "channel": 4,
      "note": 64,
      "start": 98.7056,
      "duration": 0.1035,
      "velocity": 102,
      "chip": "ym2612"
    },
    {
      "channel": 0,
      "note": 57,
      "start": 98.8048,
      "duration": 0.2838,
      "velocity": 117,
      "chip": "ym2612"
    },
    {
      "channel": 1,
      "note": 62,
      "start": 98.807,
      "duration": 0.1832,
      "velocity": 102,
      "chip": "ym2612"
    },
    {
      "channel": 4,
      "note": 57,
      "start": 98.8093,
      "duration": 0.1816,
      "velocity": 102,
      "chip": "ym2612"
    },
    {
      "channel": 1,
      "note": 33,
      "start": 98.9904,
      "duration": 0.2724,
      "velocity": 102,
      "chip": "ym2612"
    },
    {
      "channel": 4,
      "note": 69,
      "start": 98.991,
      "duration": 0.0983,
      "velocity": 102,
      "chip": "ym2612"
    },
    {
      "channel": 5,
      "note": 110,
      "start": 98.9916,
      "duration": 0.3705,
      "velocity": 93,
      "chip": "ym2612"
    },
    {
      "channel": 0,
      "note": 57,
      "start": 99.0888,
      "duration": 0.2699,
      "velocity": 117,
      "chip": "ym2612"
    },
    {
      "channel": 4,
      "note": 66,
      "start": 99.0895,
      "duration": 0.0993,
      "velocity": 102,
      "chip": "ym2612"
    },
    {
      "channel": 4,
      "note": 64,
      "start": 99.189,
      "duration": 0.0745,
      "velocity": 102,
      "chip": "ym2612"
    },
    {
      "channel": 1,
      "note": 45,
      "start": 99.263,
      "duration": 0.0978,
      "velocity": 120,
      "chip": "ym2612"
    },
    {
      "channel": 4,
      "note": 69,
      "start": 99.2636,
      "duration": 0.0978,
      "velocity": 102,
      "chip": "ym2612"
    },
    {
      "channel": 0,
      "note": 52,
      "start": 99.3588,
      "duration": 0.0998,
      "velocity": 117,
      "chip": "ym2612"
    },
    {
      "channel": 1,
      "note": 50,
      "start": 99.361,
      "duration": 0.1732,
      "velocity": 102,
      "chip": "ym2612"
    },
    {
      "channel": 4,
      "note": 66,
      "start": 99.3617,
      "duration": 0.0977,
      "velocity": 102,
      "chip": "ym2612"
    },
    {
      "channel": 5,
      "note": 110,
      "start": 99.3622,
      "duration": 1.7707,
      "velocity": 93,
      "chip": "ym2612"
    },
    {
      "channel": 0,
      "note": 54,
      "start": 99.4588,
      "duration": 0.0733,
      "velocity": 117,
      "chip": "ym2612"
    },
    {
      "channel": 4,
      "note": 64,
      "start": 99.4595,
      "duration": 0.0769,
      "velocity": 102,
      "chip": "ym2612"
    },
    {
      "channel": 0,
      "note": 60,
      "start": 99.5322,
      "duration": 0.1846,
      "velocity": 117,
      "chip": "ym2612"
    },
    {
      "channel": 1,
      "note": 36,
      "start": 99.5344,
      "duration": 0.366,
      "velocity": 102,
      "chip": "ym2612"
    },
    {
      "channel": 4,
      "note": 60,
      "start": 99.5366,
      "duration": 0.1809,
      "velocity": 102,
      "chip": "ym2612"
    },
    {
      "channel": 0,
      "note": 72,
      "start": 99.717,
      "duration": 0.3834,
      "velocity": 117,
      "chip": "ym2612"
    },
    {
      "channel": 4,
      "note": 72,
      "start": 99.7177,
      "duration": 0.0994,
      "velocity": 102,
      "chip": "ym2612"
    },
    {
      "channel": 4,
      "note": 69,
      "start": 99.8173,
      "duration": 0.0838,
      "velocity": 102,
      "chip": "ym2612"
    },
    {
      "channel": 1,
      "note": 48,
      "start": 99.9006,
      "duration": 0.2003,
      "velocity": 102,
      "chip": "ym2612"
    },
    {
      "channel": 4,
      "note": 67,
      "start": 99.9013,
      "duration": 0.0993,
      "velocity": 102,
      "chip": "ym2612"
    },
    {
      "channel": 4,
      "note": 72,
      "start": 100.0007,
      "duration": 0.1009,
      "velocity": 102,
      "chip": "ym2612"
    },
    {
      "channel": 0,
      "note": 62,
      "start": 100.1005,
      "duration": 0.1844,
      "velocity": 117,
      "chip": "ym2612"
    },
    {
      "channel": 1,
      "note": 38,
      "start": 100.1011,
      "duration": 0.3518,
      "velocity": 102,
      "chip": "ym2612"
    },
    {
      "channel": 4,
      "note": 69,
      "start": 100.1018,
      "duration": 0.0834,
      "velocity": 102,
      "chip": "ym2612"
    },
    {
      "channel": 4,
      "note": 67,
      "start": 100.1854,
      "duration": 0.1019,
      "velocity": 102,
      "chip": "ym2612"
    },
    {
      "channel": 0,
      "note": 74,
      "start": 100.2851,
      "duration": 0.3678,
      "velocity": 117,
      "chip": "ym2612"
    },
    {
      "channel": 4,
      "note": 60,
      "start": 100.2874,
      "duration": 0.1661,
      "velocity": 102,
      "chip": "ym2612"
    },
    {
      "channel": 1,
      "note": 50,
      "start": 100.453,
      "duration": 0.2004,
      "velocity": 102,
      "chip": "ym2612"
    },
    {
      "channel": 4,
      "note": 72,
      "start": 100.4537,
      "duration": 0.0993,
      "velocity": 102,
      "chip": "ym2612"
    },
    {
      "channel": 4,
      "note": 69,
      "start": 100.5532,
      "duration": 0.1009,
      "velocity": 102,
      "chip": "ym2612"
    },
    {
      "channel": 0,
      "note": 63,
      "start": 100.653,
      "duration": 0.1472,
      "velocity": 117,
      "chip": "ym2612"
    },
    {
      "channel": 1,
      "note": 39,
      "start": 100.6536,
      "duration": 0.1472,
      "velocity": 102,
      "chip": "ym2612"
    },
    {
      "channel": 4,
      "note": 67,
      "start": 100.6543,
      "duration": 0.072,
      "velocity": 102,
      "chip": "ym2612"
    },
    {
      "channel": 4,
      "note": 72,
      "start": 100.7265,
      "duration": 0.0749,
      "velocity": 102,
      "chip": "ym2612"
    },
    {
      "channel": 0,
      "note": 75,
      "start": 100.8004,
      "duration": 0.1455,
      "velocity": 117,
      "chip": "ym2612"
    },
    {
      "channel": 1,
      "note": 51,
      "start": 100.8009,
      "duration": 0.1471,
      "velocity": 107,
      "chip": "ym2612"
    },
    {
      "channel": 4,
      "note": 69,
      "start": 100.8016,
      "duration": 0.072,
      "velocity": 102,
      "chip": "ym2612"
    },
    {
      "channel": 4,
      "note": 67,
      "start": 100.8737,
      "duration": 0.2586,
      "velocity": 102,
      "chip": "ym2612"
    },
    {
      "channel": 0,
      "note": 65,
      "start": 100.946,
      "duration": 0.3845,
      "velocity": 117,
      "chip": "ym2612"
    },
    {
      "channel": 1,
      "note": 72,
      "start": 100.9482,
      "duration": 8.701,
      "velocity": 107,
      "chip": "ym2612"
    },
    {
      "channel": 2,
      "note": 65,
      "start": 100.9503,
      "duration": 8.6989,
      "velocity": 107,
      "chip": "ym2612"
    },
    {
      "channel": 3,
      "note": 69,
      "start": 100.9524,
      "duration": 8.6967,
      "velocity": 107,
      "chip": "ym2612"
    },
    {
      "channel": 4,
      "note": 41,
      "start": 101.1325,
      "duration": 8.5166,
      "velocity": 102,
      "chip": "ym2612"
    },
    {
      "channel": 5,
      "note": 110,
      "start": 101.1332,
      "duration": 0.3673,
      "velocity": 93,
      "chip": "ym2612"
    },
    {
      "channel": 0,
      "note": 53,
      "start": 101.3307,
      "duration": 0.1689,
      "velocity": 117,
      "chip": "ym2612"
    },
    {
      "channel": 0,
      "note": 63,
      "start": 101.4998,
      "duration": 8.1494,
      "velocity": 117,
      "chip": "ym2612"
    },
    {
      "channel": 5,
      "note": 110,
      "start": 101.5006,
      "duration": 8.1486,
      "velocity": 93,
      "chip": "ym2612"
    }
  ]
}