{
  "track_name": "03 - Big Top, Big Hop",
  "duration_sec": 51.599,
  "sample_rate": 44100,
  "note_count": 694,
  "unique_pitches": 44,
  "pitch_range": 64,
  "avg_note_duration": 0.2269,
  "reconstruction_stats": {
    "notes_reconstructed": 694,
    "keyon_events": 694,
    "keyoff_events": 694,
    "orphan_keyons": 0,
    "unique_pitches": 44,
    "pitch_range": 64,
    "avg_duration_sec": 0.2269
  },
  "metadata": {
    "source": "J\\James Pond II - Codename RoboCod\\03 - Big Top, Big Hop.vgz"
  },
  "notes": [
    {
      "channel": 0,
      "note": 79,
      "start": 0.0,
      "duration": 0.0,
      "velocity": 86,
      "chip": "ym2612"
    },
    {
      "channel": 0,
      "note": 75,
      "start": 0.0,
      "duration": 0.0,
      "velocity": 86,
      "chip": "ym2612"
    },
    {
      "channel": 0,
      "note": 70,
      "start": 0.0,
      "duration": 0.0,
      "velocity": 86,
      "chip": "ym2612"
    },
    {
      "channel": 0,
      "note": 79,
      "start": 0.0,
      "duration": 0.0,
      "velocity": 86,
      "chip": "ym2612"
    },
    {
      "channel": 0,
      "note": 77,
      "start": 0.0,
      "duration": 0.0,
      "velocity": 1,
      "chip": "ym2612"
    },
    {
      "channel": 1,
      "note": 39,
      "start": 0.0,
      "duration": 0.0,
      "velocity": 98,
      "chip": "ym2612"
    },
    {
      "channel": 1,
      "note": 82,
      "start": 0.0,
      "duration": 0.0,
      "velocity": 1,
      "chip": "ym2612"
    },
    {
      "channel": 2,
      "note": 74,
      "start": 0.0,
      "duration": 0.0,
      "velocity": 98,
      "chip": "ym2612"
    },
    {
      "channel": 3,
      "note": 94,
      "start": 0.0,
      "duration": 0.0,
      "velocity": 100,
      "chip": "ym2612"
    },
    {
      "channel": 3,
      "note": 89,
      "start": 0.0,
      "duration": 0.0,
      "velocity": 1,
      "chip": "ym2612"
    },
    {
      "channel": 0,
      "note": 74,
      "start": 0.0033,
      "duration": 0.3815,
      "velocity": 86,
      "chip": "ym2612"
    },
    {
      "channel": 2,
      "note": 75,
      "start": 0.0061,
      "duration": 0.1788,
      "velocity": 100,
      "chip": "ym2612"
    },
    {
      "channel": 2,
      "note": 45,
      "start": 0.2029,
      "duration": 0.1821,
      "velocity": 98,
      "chip": "ym2612"
    },
    {
      "channel": 3,
      "note": 94,
      "start": 0.2032,
      "duration": 0.1819,
      "velocity": 98,
      "chip": "ym2612"
    },
    {
      "channel": 0,
      "note": 73,
      "start": 0.3991,
      "duration": 0.1856,
      "velocity": 86,
      "chip": "ym2612"
    },
    {
      "channel": 2,
      "note": 81,
      "start": 0.4032,
      "duration": 0.1817,
      "velocity": 100,
      "chip": "ym2612"
    },
    {
      "channel": 0,
      "note": 69,
      "start": 0.6016,
      "duration": 0.1832,
      "velocity": 86,
      "chip": "ym2612"
    },
    {
      "channel": 2,
      "note": 40,
      "start": 0.6032,
      "duration": 0.1817,
      "velocity": 98,
      "chip": "ym2612"
    },
    {
      "channel": 3,
      "note": 73,
      "start": 0.6034,
      "duration": 0.1816,
      "velocity": 98,
      "chip": "ym2612"
    },
    {
      "channel": 0,
      "note": 76,
      "start": 0.8016,
      "duration": 0.3832,
      "velocity": 86,
      "chip": "ym2612"
    },
    {
      "channel": 2,
      "note": 81,
      "start": 0.8032,
      "duration": 0.1817,
      "velocity": 100,
      "chip": "ym2612"
    },
    {
      "channel": 2,
      "note": 45,
      "start": 1.003,
      "duration": 0.1819,
      "velocity": 98,
      "chip": "ym2612"
    },
    {
      "channel": 3,
      "note": 73,
      "start": 1.0032,
      "duration": 0.1817,
      "velocity": 98,
      "chip": "ym2612"
    },
    {
      "channel": 0,
      "note": 73,
      "start": 1.2016,
      "duration": 0.1832,
      "velocity": 86,
      "chip": "ym2612"
    },
    {
      "channel": 2,
      "note": 81,
      "start": 1.2032,
      "duration": 0.1817,
      "velocity": 100,
      "chip": "ym2612"
    },
    {
      "channel": 0,
      "note": 69,
      "start": 1.4016,
      "duration": 0.1832,
      "velocity": 86,
      "chip": "ym2612"
    },
    {
      "channel": 2,
      "note": 40,
      "start": 1.4032,
      "duration": 0.1817,
      "velocity": 98,
      "chip": "ym2612"
    },
    {
      "channel": 3,
      "note": 73,
      "start": 1.4034,
      "duration": 0.1816,
      "velocity": 98,
      "chip": "ym2612"
    },
    {
      "channel": 0,
      "note": 76,
      "start": 1.6016,
      "duration": 0.3832,
      "velocity": 86,
      "chip": "ym2612"
    },
    {
      "channel": 2,
      "note": 81,
      "start": 1.6032,
      "duration": 0.1817,
      "velocity": 100,
      "chip": "ym2612"
    },
    {
      "channel": 2,
      "note": 44,
      "start": 1.8029,
      "duration": 0.1821,
      "velocity": 98,
      "chip": "ym2612"
    },
    {
      "channel": 3,
      "note": 73,
      "start": 1.8032,
      "duration": 0.1819,
      "velocity": 98,
      "chip": "ym2612"
    },
    {
      "channel": 0,
      "note": 74,
      "start": 2.0016,
      "duration": 0.1832,
      "velocity": 86,
      "chip": "ym2612"
    },
    {
      "channel": 2,
      "note": 80,
      "start": 2.0032,
      "duration": 0.1817,
      "velocity": 100,
      "chip": "ym2612"
    },
    {
      "channel": 0,
      "note": 71,
      "start": 2.2016,
      "duration": 0.1833,
      "velocity": 86,
      "chip": "ym2612"
    },
    {
      "channel": 2,
      "note": 40,
      "start": 2.2032,
      "duration": 0.1819,
      "velocity": 98,
      "chip": "ym2612"
    },
    {
      "channel": 3,
      "note": 74,
      "start": 2.2034,
      "duration": 0.1818,
      "velocity": 98,
      "chip": "ym2612"
    },
    {
      "channel": 0,
      "note": 76,
      "start": 2.4017,
      "duration": 0.3833,
      "velocity": 86,
      "chip": "ym2612"
    },
    {
      "channel": 2,
      "note": 80,
      "start": 2.4033,
      "duration": 0.1817,
      "velocity": 100,
      "chip": "ym2612"
    },
    {
      "channel": 2,
      "note": 44,
      "start": 2.6031,
      "duration": 0.1821,
      "velocity": 98,
      "chip": "ym2612"
    },
    {
      "channel": 3,
      "note": 74,
      "start": 2.6034,
      "duration": 0.1819,
      "velocity": 98,
      "chip": "ym2612"
    },
    {
      "channel": 0,
      "note": 74,
      "start": 2.8018,
      "duration": 0.1832,
      "velocity": 86,
      "chip": "ym2612"
    },
    {
      "channel": 2,
      "note": 80,
      "start": 2.8034,
      "duration": 0.1818,
      "velocity": 100,
      "chip": "ym2612"
    },
    {
      "channel": 0,
      "note": 71,
      "start": 3.0017,
      "duration": 0.1832,
      "velocity": 86,
      "chip": "ym2612"
    },
    {
      "channel": 2,
      "note": 40,
      "start": 3.0034,
      "duration": 0.1818,
      "velocity": 98,
      "chip": "ym2612"
    },
    {
      "channel": 3,
      "note": 74,
      "start": 3.0035,
      "duration": 0.1817,
      "velocity": 98,
      "chip": "ym2612"
    },
    {
      "channel": 0,
      "note": 76,
      "start": 3.2017,
      "duration": 0.3833,
      "velocity": 86,
      "chip": "ym2612"
    },
    {
      "channel": 2,
      "note": 80,
      "start": 3.2034,
      "duration": 0.1817,
      "velocity": 100,
      "chip": "ym2612"
    },
    {
      "channel": 2,
      "note": 44,
      "start": 3.4031,
      "duration": 0.1821,
      "velocity": 98,
      "chip": "ym2612"
    },
    {
      "channel": 3,
      "note": 74,
      "start": 3.4034,
      "duration": 0.1819,
      "velocity": 98,
      "chip": "ym2612"
    },
    {
      "channel": 0,
      "note": 74,
      "start": 3.6018,
      "duration": 0.1832,
      "velocity": 86,
      "chip": "ym2612"
    },
    {
      "channel": 2,
      "note": 80,
      "start": 3.6034,
      "duration": 0.1817,
      "velocity": 100,
      "chip": "ym2612"
    },
    {
      "channel": 0,
      "note": 71,
      "start": 3.8017,
      "duration": 0.1832,
      "velocity": 86,
      "chip": "ym2612"
    },
    {
      "channel": 2,
      "note": 40,
      "start": 3.8033,
      "duration": 0.1818,
      "velocity": 98,
      "chip": "ym2612"
    },
    {
      "channel": 3,
      "note": 74,
      "start": 3.8035,
      "duration": 0.1816,
      "velocity": 98,
      "chip": "ym2612"
    },
    {
      "channel": 0,
      "note": 76,
      "start": 4.0018,
      "duration": 0.3832,
      "velocity": 86,
      "chip": "ym2612"
    },
    {
      "channel": 2,
      "note": 80,
      "start": 4.0034,
      "duration": 0.1817,
      "velocity": 100,
      "chip": "ym2612"
    },
    {
      "channel": 2,
      "note": 44,
      "start": 4.2031,
      "duration": 0.1821,
      "velocity": 98,
      "chip": "ym2612"
    },
    {
      "channel": 3,
      "note": 74,
      "start": 4.2034,
      "duration": 0.1819,
      "velocity": 98,
      "chip": "ym2612"
    },
    {
      "channel": 0,
      "note": 74,
      "start": 4.4018,
      "duration": 0.1832,
      "velocity": 86,
      "chip": "ym2612"
    },
    {
      "channel": 2,
      "note": 80,
      "start": 4.4034,
      "duration": 0.1817,
      "velocity": 100,
      "chip": "ym2612"
    },
    {
      "channel": 0,
      "note": 71,
      "start": 4.6017,
      "duration": 0.1832,
      "velocity": 86,
      "chip": "ym2612"
    },
    {
      "channel": 2,
      "note": 40,
      "start": 4.6033,
      "duration": 0.1818,
      "velocity": 98,
      "chip": "ym2612"
    },
    {
      "channel": 3,
      "note": 74,
      "start": 4.6035,
      "duration": 0.1816,
      "velocity": 98,
      "chip": "ym2612"
    },
    {
      "channel": 0,
      "note": 76,
      "start": 4.8018,
      "duration": 0.3832,
      "velocity": 86,
      "chip": "ym2612"
    },
    {
      "channel": 2,
      "note": 80,
      "start": 4.8034,
      "duration": 0.1817,
      "velocity": 100,
      "chip": "ym2612"
    },
    {
      "channel": 2,
      "note": 45,
      "start": 5.0031,
      "duration": 0.1821,
      "velocity": 98,
      "chip": "ym2612"
    },
    {
      "channel": 3,
      "note": 74,
      "start": 5.0034,
      "duration": 0.1819,
      "velocity": 98,
      "chip": "ym2612"
    },
    {
      "channel": 0,
      "note": 73,
      "start": 5.2018,
      "duration": 0.1832,
      "velocity": 86,
      "chip": "ym2612"
    },
    {
      "channel": 2,
      "note": 81,
      "start": 5.2034,
      "duration": 0.1817,
      "velocity": 100,
      "chip": "ym2612"
    },
    {
      "channel": 0,
      "note": 69,
      "start": 5.4017,
      "duration": 0.1832,
      "velocity": 86,
      "chip": "ym2612"
    },
    {
      "channel": 2,
      "note": 40,
      "start": 5.4033,
      "duration": 0.1818,
      "velocity": 98,
      "chip": "ym2612"
    },
    {
      "channel": 3,
      "note": 73,
      "start": 5.4035,
      "duration": 0.1816,
      "velocity": 98,
      "chip": "ym2612"
    },
    {
      "channel": 0,
      "note": 76,
      "start": 5.6018,
      "duration": 0.1832,
      "velocity": 86,
      "chip": "ym2612"
    },
    {
      "channel": 2,
      "note": 81,
      "start": 5.6034,
      "duration": 0.1817,
      "velocity": 100,
      "chip": "ym2612"
    },
    {
      "channel": 3,
      "note": 73,
      "start": 5.6036,
      "duration": 0.1817,
      "velocity": 98,
      "chip": "ym2612"
    },
    {
      "channel": 0,
      "note": 73,
      "start": 5.8018,
      "duration": 0.1832,
      "velocity": 86,
      "chip": "ym2612"
    },
    {
      "channel": 2,
      "note": 45,
      "start": 5.8021,
      "duration": 0.183,
      "velocity": 100,
      "chip": "ym2612"
    },
    {
      "channel": 3,
      "note": 69,
      "start": 5.8023,
      "duration": 0.1829,
      "velocity": 98,
      "chip": "ym2612"
    },
    {
      "channel": 0,
      "note": 68,
      "start": 6.0017,
      "duration": 0.1833,
      "velocity": 86,
      "chip": "ym2612"
    },
    {
      "channel": 2,
      "note": 40,
      "start": 6.002,
      "duration": 0.1831,
      "velocity": 100,
      "chip": "ym2612"
    },
    {
      "channel": 3,
      "note": 76,
      "start": 6.0022,
      "duration": 0.183,
      "velocity": 98,
      "chip": "ym2612"
    },
    {
      "channel": 0,
      "note": 69,
      "start": 6.2017,
      "duration": 0.1833,
      "velocity": 86,
      "chip": "ym2612"
    },
    {
      "channel": 2,
      "note": 42,
      "start": 6.202,
      "duration": 0.1832,
      "velocity": 100,
      "chip": "ym2612"
    },
    {
      "channel": 3,
      "note": 75,
      "start": 6.2022,
      "duration": 0.1831,
      "velocity": 98,
      "chip": "ym2612"
    },
    {
      "channel": 0,
      "note": 71,
      "start": 6.402,
      "duration": 0.383,
      "velocity": 86,
      "chip": "ym2612"
    },
    {
      "channel": 2,
      "note": 44,
      "start": 6.4036,
      "duration": 0.1815,
      "velocity": 100,
      "chip": "ym2612"
    },
    {
      "channel": 2,
      "note": 45,
      "start": 6.6031,
      "duration": 0.1821,
      "velocity": 98,
      "chip": "ym2612"
    },
    {
      "channel": 3,
      "note": 74,
      "start": 6.6034,
      "duration": 0.1819,
      "velocity": 98,
      "chip": "ym2612"
    },
    {
      "channel": 0,
      "note": 73,
      "start": 6.8017,
      "duration": 0.1832,
      "velocity": 86,
      "chip": "ym2612"
    },
    {
      "channel": 2,
      "note": 81,
      "start": 6.8034,
      "duration": 0.1817,
      "velocity": 100,
      "chip": "ym2612"
    },
    {
      "channel": 0,
      "note": 69,
      "start": 7.0017,
      "duration": 0.1832,
      "velocity": 86,
      "chip": "ym2612"
    },
    {
      "channel": 2,
      "note": 40,
      "start": 7.0033,
      "duration": 0.1818,
      "velocity": 98,
      "chip": "ym2612"
    },
    {
      "channel": 3,
      "note": 73,
      "start": 7.0035,
      "duration": 0.1816,
      "velocity": 98,
      "chip": "ym2612"
    },
    {
      "channel": 0,
      "note": 76,
      "start": 7.2018,
      "duration": 0.3832,
      "velocity": 86,
      "chip": "ym2612"
    },
    {
      "channel": 2,
      "note": 81,
      "start": 7.2034,
      "duration": 0.1817,
      "velocity": 100,
      "chip": "ym2612"
    },
    {
      "channel": 2,
      "note": 45,
      "start": 7.4031,
      "duration": 0.1821,
      "velocity": 98,
      "chip": "ym2612"
    },
    {
      "channel": 3,
      "note": 73,
      "start": 7.4034,
      "duration": 0.1819,
      "velocity": 98,
      "chip": "ym2612"
    },
    {
      "channel": 0,
      "note": 73,
      "start": 7.6018,
      "duration": 0.1832,
      "velocity": 86,
      "chip": "ym2612"
    },
    {
      "channel": 2,
      "note": 81,
      "start": 7.6034,
      "duration": 0.1817,
      "velocity": 100,
      "chip": "ym2612"
    },
    {
      "channel": 0,
      "note": 69,
      "start": 7.8017,
      "duration": 0.1832,
      "velocity": 86,
      "chip": "ym2612"
    },
    {
      "channel": 2,
      "note": 40,
      "start": 7.8033,
      "duration": 0.1818,
      "velocity": 98,
      "chip": "ym2612"
    },
    {
      "channel": 3,
      "note": 73,
      "start": 7.8035,
      "duration": 0.1816,
      "velocity": 98,
      "chip": "ym2612"
    },
    {
      "channel": 0,
      "note": 76,
      "start": 8.0018,
      "duration": 0.3832,
      "velocity": 86,
      "chip": "ym2612"
    },
    {
      "channel": 2,
      "note": 81,
      "start": 8.0034,
      "duration": 0.1817,
      "velocity": 100,
      "chip": "ym2612"
    },
    {
      "channel": 2,
      "note": 44,
      "start": 8.2031,
      "duration": 0.1821,
      "velocity": 98,
      "chip": "ym2612"
    },
    {
      "channel": 3,
      "note": 73,
      "start": 8.2034,
      "duration": 0.1819,
      "velocity": 98,
      "chip": "ym2612"
    },
    {
      "channel": 0,
      "note": 74,
      "start": 8.4018,
      "duration": 0.1832,
      "velocity": 86,
      "chip": "ym2612"
    },
    {
      "channel": 2,
      "note": 80,
      "start": 8.4034,
      "duration": 0.1817,
      "velocity": 100,
      "chip": "ym2612"
    },
    {
      "channel": 0,
      "note": 71,
      "start": 8.6017,
      "duration": 0.1832,
      "velocity": 86,
      "chip": "ym2612"
    },
    {
      "channel": 2,
      "note": 40,
      "start": 8.6033,
      "duration": 0.1818,
      "velocity": 98,
      "chip": "ym2612"
    },
    {
      "channel": 3,
      "note": 74,
      "start": 8.6035,
      "duration": 0.1816,
      "velocity": 98,
      "chip": "ym2612"
    },
    {
      "channel": 0,
      "note": 76,
      "start": 8.8018,
      "duration": 0.3832,
      "velocity": 86,
      "chip": "ym2612"
    },
    {
      "channel": 2,
      "note": 80,
      "start": 8.8034,
      "duration": 0.1817,
      "velocity": 100,
      "chip": "ym2612"
    },
    {
      "channel": 2,
      "note": 44,
      "start": 9.0031,
      "duration": 0.1821,
      "velocity": 98,
      "chip": "ym2612"
    },
    {
      "channel": 3,
      "note": 74,
      "start": 9.0034,
      "duration": 0.1819,
      "velocity": 98,
      "chip": "ym2612"
    },
    {
      "channel": 0,
      "note": 74,
      "start": 9.2018,
      "duration": 0.1832,
      "velocity": 86,
      "chip": "ym2612"
    },
    {
      "channel": 2,
      "note": 80,
      "start": 9.2034,
      "duration": 0.1817,
      "velocity": 100,
      "chip": "ym2612"
    },
    {
      "channel": 0,
      "note": 71,
      "start": 9.4017,
      "duration": 0.1832,
      "velocity": 86,
      "chip": "ym2612"
    },
    {
      "channel": 2,
      "note": 40,
      "start": 9.4033,
      "duration": 0.1819,
      "velocity": 98,
      "chip": "ym2612"
    },
    {
      "channel": 3,
      "note": 74,
      "start": 9.4035,
      "duration": 0.1817,
      "velocity": 98,
      "chip": "ym2612"
    },
    {
      "channel": 0,
      "note": 76,
      "start": 9.6019,
      "duration": 0.3832,
      "velocity": 86,
      "chip": "ym2612"
    },
    {
      "channel": 2,
      "note": 80,
      "start": 9.6035,
      "duration": 0.1816,
      "velocity": 100,
      "chip": "ym2612"
    },
    {
      "channel": 2,
      "note": 44,
      "start": 9.8031,
      "duration": 0.1821,
      "velocity": 98,
      "chip": "ym2612"
    },
    {
      "channel": 3,
      "note": 74,
      "start": 9.8034,
      "duration": 0.1819,
      "velocity": 98,
      "chip": "ym2612"
    },
    {
      "channel": 0,
      "note": 74,
      "start": 10.0017,
      "duration": 0.1832,
      "velocity": 86,
      "chip": "ym2612"
    },
    {
      "channel": 2,
      "note": 80,
      "start": 10.0034,
      "duration": 0.1817,
      "velocity": 100,
      "chip": "ym2612"
    },
    {
      "channel": 0,
      "note": 71,
      "start": 10.2017,
      "duration": 0.1832,
      "velocity": 86,
      "chip": "ym2612"
    },
    {
      "channel": 2,
      "note": 40,
      "start": 10.2033,
      "duration": 0.1818,
      "velocity": 98,
      "chip": "ym2612"
    },
    {
      "channel": 3,
      "note": 74,
      "start": 10.2035,
      "duration": 0.1816,
      "velocity": 98,
      "chip": "ym2612"
    },
    {
      "channel": 0,
      "note": 76,
      "start": 10.4018,
      "duration": 0.3832,
      "velocity": 86,
      "chip": "ym2612"
    },
    {
      "channel": 2,
      "note": 80,
      "start": 10.4034,
      "duration": 0.1817,
      "velocity": 100,
      "chip": "ym2612"
    },
    {
      "channel": 2,
      "note": 44,
      "start": 10.6031,
      "duration": 0.1821,
      "velocity": 98,
      "chip": "ym2612"
    },
    {
      "channel": 3,
      "note": 74,
      "start": 10.6034,
      "duration": 0.1819,
      "velocity": 98,
      "chip": "ym2612"
    },
    {
      "channel": 0,
      "note": 74,
      "start": 10.8018,
      "duration": 0.1832,
      "velocity": 86,
      "chip": "ym2612"
    },
    {
      "channel": 2,
      "note": 80,
      "start": 10.8034,
      "duration": 0.1817,
      "velocity": 100,
      "chip": "ym2612"
    },
    {
      "channel": 0,
      "note": 71,
      "start": 11.0017,
      "duration": 0.1832,
      "velocity": 86,
      "chip": "ym2612"
    },
    {
      "channel": 2,
      "note": 40,
      "start": 11.0033,
      "duration": 0.1818,
      "velocity": 98,
      "chip": "ym2612"
    },
    {
      "channel": 3,
      "note": 74,
      "start": 11.0035,
      "duration": 0.1816,
      "velocity": 98,
      "chip": "ym2612"
    },
    {
      "channel": 0,
      "note": 76,
      "start": 11.2018,
      "duration": 0.1832,
      "velocity": 86,
      "chip": "ym2612"
    },
    {
      "channel": 2,
      "note": 80,
      "start": 11.2034,
      "duration": 0.1817,
      "velocity": 100,
      "chip": "ym2612"
    },
    {
      "channel": 3,
      "note": 74,
      "start": 11.2036,
      "duration": 0.1817,
      "velocity": 98,
      "chip": "ym2612"
    },
    {
      "channel": 0,
      "note": 69,
      "start": 11.4018,
      "duration": 0.1832,
      "velocity": 86,
      "chip": "ym2612"
    },
    {
      "channel": 2,
      "note": 45,
      "start": 11.4021,
      "duration": 0.183,
      "velocity": 100,
      "chip": "ym2612"
    },
    {
      "channel": 3,
      "note": 81,
      "start": 11.4023,
      "duration": 0.1829,
      "velocity": 98,
      "chip": "ym2612"
    },
    {
      "channel": 0,
      "note": 78,
      "start": 11.6017,
      "duration": 0.1833,
      "velocity": 86,
      "chip": "ym2612"
    },
    {
      "channel": 2,
      "note": 42,
      "start": 11.602,
      "duration": 0.1831,
      "velocity": 100,
      "chip": "ym2612"
    },
    {
      "channel": 3,
      "note": 78,
      "start": 11.6022,
      "duration": 0.183,
      "velocity": 98,
      "chip": "ym2612"
    },
    {
      "channel": 0,
      "note": 76,
      "start": 11.8017,
      "duration": 0.1833,
      "velocity": 86,
      "chip": "ym2612"
    },
    {
      "channel": 2,
      "note": 40,
      "start": 11.802,
      "duration": 0.1831,
      "velocity": 100,
      "chip": "ym2612"
    },
    {
      "channel": 3,
      "note": 76,
      "start": 11.8023,
      "duration": 0.1829,
      "velocity": 98,
      "chip": "ym2612"
    },
    {
      "channel": 0,
      "note": 73,
      "start": 12.002,
      "duration": 0.383,
      "velocity": 86,
      "chip": "ym2612"
    },
    {
      "channel": 2,
      "note": 37,
      "start": 12.0022,
      "duration": 0.3829,
      "velocity": 100,
      "chip": "ym2612"
    },
    {
      "channel": 3,
      "note": 73,
      "start": 12.0024,
      "duration": 0.3828,
      "velocity": 98,
      "chip": "ym2612"
    },
    {
      "channel": 2,
      "note": 33,
      "start": 12.4019,
      "duration": 0.3832,
      "velocity": 100,
      "chip": "ym2612"
    },
    {
      "channel": 3,
      "note": 73,
      "start": 12.4021,
      "duration": 0.3831,
      "velocity": 98,
      "chip": "ym2612"
    },
    {
      "channel": 0,
      "note": 69,
      "start": 12.8021,
      "duration": 0.3828,
      "velocity": 86,
      "chip": "ym2612"
    },
    {
      "channel": 1,
      "note": 38,
      "start": 12.8037,
      "duration": 0.0814,
      "velocity": 100,
      "chip": "ym2612"
    },
    {
      "channel": 2,
      "note": 45,
      "start": 12.8051,
      "duration": 0.1799,
      "velocity": 100,
      "chip": "ym2612"
    },
    {
      "channel": 1,
      "note": 81,
      "start": 12.9017,
      "duration": 0.0833,
      "velocity": 100,
      "chip": "ym2612"
    },
    {
      "channel": 1,
      "note": 80,
      "start": 13.0019,
      "duration": 0.0831,
      "velocity": 100,
      "chip": "ym2612"
    },
    {
      "channel": 2,
      "note": 45,
      "start": 13.0034,
      "duration": 0.1818,
      "velocity": 98,
      "chip": "ym2612"
    },
    {
      "channel": 3,
      "note": 73,
      "start": 13.0036,
      "duration": 0.1816,
      "velocity": 98,
      "chip": "ym2612"
    },
    {
      "channel": 1,
      "note": 81,
      "start": 13.1017,
      "duration": 0.0833,
      "velocity": 100,
      "chip": "ym2612"
    },
    {
      "channel": 0,
      "note": 73,
      "start": 13.202,
      "duration": 0.1831,
      "velocity": 86,
      "chip": "ym2612"
    },
    {
      "channel": 1,
      "note": 80,
      "start": 13.2021,
      "duration": 0.3829,
      "velocity": 100,
      "chip": "ym2612"
    },
    {
      "channel": 2,
      "note": 81,
      "start": 13.2037,
      "duration": 0.1815,
      "velocity": 100,
      "chip": "ym2612"
    },
    {
      "channel": 0,
      "note": 69,
      "start": 13.4018,
      "duration": 0.1832,
      "velocity": 86,
      "chip": "ym2612"
    },
    {
      "channel": 2,
      "note": 40,
      "start": 13.4034,
      "duration": 0.1818,
      "velocity": 98,
      "chip": "ym2612"
    },
    {
      "channel": 3,
      "note": 73,
      "start": 13.4036,
      "duration": 0.1817,
      "velocity": 98,
      "chip": "ym2612"
    },
    {
      "channel": 0,
      "note": 76,
      "start": 13.6018,
      "duration": 0.3832,
      "velocity": 86,
      "chip": "ym2612"
    },
    {
      "channel": 1,
      "note": 81,
      "start": 13.602,
      "duration": 0.1829,
      "velocity": 100,
      "chip": "ym2612"
    },
    {
      "channel": 2,
      "note": 81,
      "start": 13.6035,
      "duration": 0.1815,
      "velocity": 100,
      "chip": "ym2612"
    },
    {
      "channel": 1,
      "note": 81,
      "start": 13.8019,
      "duration": 0.1832,
      "velocity": 100,
      "chip": "ym2612"
    },
    {
      "channel": 2,
      "note": 45,
      "start": 13.8034,
      "duration": 0.1819,
      "velocity": 98,
      "chip": "ym2612"
    },
    {
      "channel": 3,
      "note": 73,
      "start": 13.8036,
      "duration": 0.1817,
      "velocity": 98,
      "chip": "ym2612"
    },
    {
      "channel": 0,
      "note": 73,
      "start": 14.0018,
      "duration": 0.1832,
      "velocity": 86,
      "chip": "ym2612"
    },
    {
      "channel": 1,
      "note": 81,
      "start": 14.0021,
      "duration": 0.183,
      "velocity": 100,
      "chip": "ym2612"
    },
    {
      "channel": 2,
      "note": 81,
      "start": 14.0036,
      "duration": 0.1815,
      "velocity": 100,
      "chip": "ym2612"
    },
    {
      "channel": 0,
      "note": 69,
      "start": 14.2017,
      "duration": 0.1833,
      "velocity": 86,
      "chip": "ym2612"
    },
    {
      "channel": 2,
      "note": 40,
      "start": 14.2034,
      "duration": 0.1819,
      "velocity": 98,
      "chip": "ym2612"
    },
    {
      "channel": 3,
      "note": 73,
      "start": 14.2036,
      "duration": 0.1817,
      "velocity": 98,
      "chip": "ym2612"
    },
    {
      "channel": 0,
      "note": 76,
      "start": 14.4018,
      "duration": 0.3832,
      "velocity": 86,
      "chip": "ym2612"
    },
    {
      "channel": 1,
      "note": 81,
      "start": 14.4021,
      "duration": 0.083,
      "velocity": 100,
      "chip": "ym2612"
    },
    {
      "channel": 2,
      "note": 81,
      "start": 14.4035,
      "duration": 0.1816,
      "velocity": 100,
      "chip": "ym2612"
    },
    {
      "channel": 1,
      "note": 80,
      "start": 14.5017,
      "duration": 0.0834,
      "velocity": 100,
      "chip": "ym2612"
    },
    {
      "channel": 1,
      "note": 79,
      "start": 14.6018,
      "duration": 0.0832,
      "velocity": 100,
      "chip": "ym2612"
    },
    {
      "channel": 2,
      "note": 44,
      "start": 14.6034,
      "duration": 0.1818,
      "velocity": 98,
      "chip": "ym2612"
    },
    {
      "channel": 3,
      "note": 73,
      "start": 14.6035,
      "duration": 0.1817,
      "velocity": 98,
      "chip": "ym2612"
    },
    {
      "channel": 1,
      "note": 80,
      "start": 14.7017,
      "duration": 0.0833,
      "velocity": 100,
      "chip": "ym2612"
    },
    {
      "channel": 0,
      "note": 74,
      "start": 14.8019,
      "duration": 0.1832,
      "velocity": 86,
      "chip": "ym2612"
    },
    {
      "channel": 1,
      "note": 79,
      "start": 14.8021,
      "duration": 0.3829,
      "velocity": 100,
      "chip": "ym2612"
    },
    {
      "channel": 2,
      "note": 80,
      "start": 14.8036,
      "duration": 0.1815,
      "velocity": 100,
      "chip": "ym2612"
    },
    {
      "channel": 0,
      "note": 71,
      "start": 15.0017,
      "duration": 0.1832,
      "velocity": 86,
      "chip": "ym2612"
    },
    {
      "channel": 2,
      "note": 40,
      "start": 15.0034,
      "duration": 0.1818,
      "velocity": 98,
      "chip": "ym2612"
    },
    {
      "channel": 3,
      "note": 74,
      "start": 15.0035,
      "duration": 0.1817,
      "velocity": 98,
      "chip": "ym2612"
    },
    {
      "channel": 0,
      "note": 76,
      "start": 15.202,
      "duration": 0.383,
      "velocity": 86,
      "chip": "ym2612"
    },
    {
      "channel": 1,
      "note": 80,
      "start": 15.2021,
      "duration": 0.1829,
      "velocity": 100,
      "chip": "ym2612"
    },
    {
      "channel": 2,
      "note": 80,
      "start": 15.2037,
      "duration": 0.1815,
      "velocity": 100,
      "chip": "ym2612"
    },
    {
      "channel": 1,
      "note": 80,
      "start": 15.4018,
      "duration": 0.1832,
      "velocity": 100,
      "chip": "ym2612"
    },
    {
      "channel": 2,
      "note": 44,
      "start": 15.4034,
      "duration": 0.1818,
      "velocity": 98,
      "chip": "ym2612"
    },
    {
      "channel": 3,
      "note": 74,
      "start": 15.4035,
      "duration": 0.1817,
      "velocity": 98,
      "chip": "ym2612"
    },
    {
      "channel": 0,
      "note": 74,
      "start": 15.6017,
      "duration": 0.1833,
      "velocity": 86,
      "chip": "ym2612"
    },
    {
      "channel": 1,
      "note": 80,
      "start": 15.602,
      "duration": 0.1831,
      "velocity": 100,
      "chip": "ym2612"
    },
    {
      "channel": 2,
      "note": 80,
      "start": 15.6035,
      "duration": 0.1817,
      "velocity": 100,
      "chip": "ym2612"
    },
    {
      "channel": 0,
      "note": 71,
      "start": 15.8018,
      "duration": 0.1832,
      "velocity": 86,
      "chip": "ym2612"
    },
    {
      "channel": 2,
      "note": 40,
      "start": 15.8034,
      "duration": 0.1817,
      "velocity": 98,
      "chip": "ym2612"
    },
    {
      "channel": 3,
      "note": 74,
      "start": 15.8037,
      "duration": 0.1815,
      "velocity": 98,
      "chip": "ym2612"
    },
    {
      "channel": 0,
      "note": 76,
      "start": 16.002,
      "duration": 0.3829,
      "velocity": 86,
      "chip": "ym2612"
    },
    {
      "channel": 1,
      "note": 80,
      "start": 16.0023,
      "duration": 0.0828,
      "velocity": 100,
      "chip": "ym2612"
    },
    {
      "channel": 2,
      "note": 80,
      "start": 16.0038,
      "duration": 0.1814,
      "velocity": 100,
      "chip": "ym2612"
    },
    {
      "channel": 1,
      "note": 81,
      "start": 16.1017,
      "duration": 0.0833,
      "velocity": 100,
      "chip": "ym2612"
    },
    {
      "channel": 1,
      "note": 80,
      "start": 16.2018,
      "duration": 0.0832,
      "velocity": 100,
      "chip": "ym2612"
    },
    {
      "channel": 2,
      "note": 45,
      "start": 16.2034,
      "duration": 0.1818,
      "velocity": 98,
      "chip": "ym2612"
    },
    {
      "channel": 3,
      "note": 74,
      "start": 16.2035,
      "duration": 0.1817,
      "velocity": 98,
      "chip": "ym2612"
    },
    {
      "channel": 1,
      "note": 81,
      "start": 16.3017,
      "duration": 0.0833,
      "velocity": 100,
      "chip": "ym2612"
    },
    {
      "channel": 0,
      "note": 73,
      "start": 16.4019,
      "duration": 0.1832,
      "velocity": 86,
      "chip": "ym2612"
    },
    {
      "channel": 1,
      "note": 80,
      "start": 16.4021,
      "duration": 0.3829,
      "velocity": 100,
      "chip": "ym2612"
    },
    {
      "channel": 2,
      "note": 81,
      "start": 16.4036,
      "duration": 0.1815,
      "velocity": 100,
      "chip": "ym2612"
    },
    {
      "channel": 0,
      "note": 69,
      "start": 16.6017,
      "duration": 0.1832,
      "velocity": 86,
      "chip": "ym2612"
    },
    {
      "channel": 2,
      "note": 40,
      "start": 16.6034,
      "duration": 0.1818,
      "velocity": 98,
      "chip": "ym2612"
    },
    {
      "channel": 3,
      "note": 73,
      "start": 16.6035,
      "duration": 0.1817,
      "velocity": 98,
      "chip": "ym2612"
    },
    {
      "channel": 0,
      "note": 76,
      "start": 16.8019,
      "duration": 0.3831,
      "velocity": 86,
      "chip": "ym2612"
    },
    {
      "channel": 1,
      "note": 81,
      "start": 16.8021,
      "duration": 0.1829,
      "velocity": 100,
      "chip": "ym2612"
    },
    {
      "channel": 2,
      "note": 81,
      "start": 16.8037,
      "duration": 0.1815,
      "velocity": 100,
      "chip": "ym2612"
    },
    {
      "channel": 1,
      "note": 81,
      "start": 17.0018,
      "duration": 0.1832,
      "velocity": 100,
      "chip": "ym2612"
    },
    {
      "channel": 2,
      "note": 45,
      "start": 17.0034,
      "duration": 0.1818,
      "velocity": 98,
      "chip": "ym2612"
    },
    {
      "channel": 3,
      "note": 73,
      "start": 17.0035,
      "duration": 0.1817,
      "velocity": 98,
      "chip": "ym2612"
    },
    {
      "channel": 0,
      "note": 73,
      "start": 17.2017,
      "duration": 0.1833,
      "velocity": 86,
      "chip": "ym2612"
    },
    {
      "channel": 1,
      "note": 81,
      "start": 17.202,
      "duration": 0.1831,
      "velocity": 100,
      "chip": "ym2612"
    },
    {
      "channel": 2,
      "note": 81,
      "start": 17.2035,
      "duration": 0.1817,
      "velocity": 100,
      "chip": "ym2612"
    },
    {
      "channel": 0,
      "note": 69,
      "start": 17.4018,
      "duration": 0.1832,
      "velocity": 86,
      "chip": "ym2612"
    },
    {
      "channel": 2,
      "note": 40,
      "start": 17.4034,
      "duration": 0.1817,
      "velocity": 98,
      "chip": "ym2612"
    },
    {
      "channel": 3,
      "note": 73,
      "start": 17.4037,
      "duration": 0.1815,
      "velocity": 98,
      "chip": "ym2612"
    },
    {
      "channel": 0,
      "note": 76,
      "start": 17.6019,
      "duration": 0.3832,
      "velocity": 86,
      "chip": "ym2612"
    },
    {
      "channel": 1,
      "note": 81,
      "start": 17.6021,
      "duration": 0.0828,
      "velocity": 100,
      "chip": "ym2612"
    },
    {
      "channel": 2,
      "note": 81,
      "start": 17.6036,
      "duration": 0.1815,
      "velocity": 100,
      "chip": "ym2612"
    },
    {
      "channel": 1,
      "note": 80,
      "start": 17.7017,
      "duration": 0.0833,
      "velocity": 100,
      "chip": "ym2612"
    },
    {
      "channel": 1,
      "note": 79,
      "start": 17.8017,
      "duration": 0.0833,
      "velocity": 100,
      "chip": "ym2612"
    },
    {
      "channel": 2,
      "note": 44,
      "start": 17.8033,
      "duration": 0.1819,
      "velocity": 98,
      "chip": "ym2612"
    },
    {
      "channel": 3,
      "note": 73,
      "start": 17.8035,
      "duration": 0.1817,
      "velocity": 98,
      "chip": "ym2612"
    },
    {
      "channel": 1,
      "note": 80,
      "start": 17.9017,
      "duration": 0.0834,
      "velocity": 100,
      "chip": "ym2612"
    },
    {
      "channel": 0,
      "note": 74,
      "start": 18.0018,
      "duration": 0.1832,
      "velocity": 86,
      "chip": "ym2612"
    },
    {
      "channel": 1,
      "note": 79,
      "start": 18.0021,
      "duration": 0.3831,
      "velocity": 100,
      "chip": "ym2612"
    },
    {
      "channel": 2,
      "note": 80,
      "start": 18.0036,
      "duration": 0.1815,
      "velocity": 100,
      "chip": "ym2612"
    },
    {
      "channel": 0,
      "note": 71,
      "start": 18.2017,
      "duration": 0.1833,
      "velocity": 86,
      "chip": "ym2612"
    },
    {
      "channel": 2,
      "note": 40,
      "start": 18.2033,
      "duration": 0.1819,
      "velocity": 98,
      "chip": "ym2612"
    },
    {
      "channel": 3,
      "note": 74,
      "start": 18.2035,
      "duration": 0.1818,
      "velocity": 98,
      "chip": "ym2612"
    },
    {
      "channel": 0,
      "note": 76,
      "start": 18.4019,
      "duration": 0.383,
      "velocity": 86,
      "chip": "ym2612"
    },
    {
      "channel": 1,
      "note": 80,
      "start": 18.4021,
      "duration": 0.1829,
      "velocity": 100,
      "chip": "ym2612"
    },
    {
      "channel": 2,
      "note": 80,
      "start": 18.4036,
      "duration": 0.1815,
      "velocity": 100,
      "chip": "ym2612"
    },
    {
      "channel": 1,
      "note": 80,
      "start": 18.6017,
      "duration": 0.1833,
      "velocity": 100,
      "chip": "ym2612"
    },
    {
      "channel": 2,
      "note": 44,
      "start": 18.6033,
      "duration": 0.1818,
      "velocity": 98,
      "chip": "ym2612"
    },
    {
      "channel": 3,
      "note": 74,
      "start": 18.6035,
      "duration": 0.1817,
      "velocity": 98,
      "chip": "ym2612"
    },
    {
      "channel": 0,
      "note": 74,
      "start": 18.8019,
      "duration": 0.1831,
      "velocity": 86,
      "chip": "ym2612"
    },
    {
      "channel": 1,
      "note": 80,
      "start": 18.8021,
      "duration": 0.183,
      "velocity": 100,
      "chip": "ym2612"
    },
    {
      "channel": 2,
      "note": 80,
      "start": 18.8036,
      "duration": 0.1815,
      "velocity": 100,
      "chip": "ym2612"
    },
    {
      "channel": 0,
      "note": 71,
      "start": 19.0017,
      "duration": 0.1833,
      "velocity": 86,
      "chip": "ym2612"
    },
    {
      "channel": 2,
      "note": 40,
      "start": 19.0034,
      "duration": 0.1819,
      "velocity": 98,
      "chip": "ym2612"
    },
    {
      "channel": 3,
      "note": 74,
      "start": 19.0036,
      "duration": 0.1817,
      "velocity": 98,
      "chip": "ym2612"
    },
    {
      "channel": 0,
      "note": 76,
      "start": 19.202,
      "duration": 0.383,
      "velocity": 86,
      "chip": "ym2612"
    },
    {
      "channel": 1,
      "note": 80,
      "start": 19.2022,
      "duration": 0.0828,
      "velocity": 100,
      "chip": "ym2612"
    },
    {
      "channel": 2,
      "note": 80,
      "start": 19.2037,
      "duration": 0.1814,
      "velocity": 100,
      "chip": "ym2612"
    },
    {
      "channel": 1,
      "note": 81,
      "start": 19.3017,
      "duration": 0.0832,
      "velocity": 100,
      "chip": "ym2612"
    },
    {
      "channel": 1,
      "note": 80,
      "start": 19.4017,
      "duration": 0.0833,
      "velocity": 100,
      "chip": "ym2612"
    },
    {
      "channel": 2,
      "note": 45,
      "start": 19.4033,
      "duration": 0.1819,
      "velocity": 98,
      "chip": "ym2612"
    },
    {
      "channel": 3,
      "note": 74,
      "start": 19.4035,
      "duration": 0.1818,
      "velocity": 98,
      "chip": "ym2612"
    },
    {
      "channel": 1,
      "note": 81,
      "start": 19.5017,
      "duration": 0.0834,
      "velocity": 100,
      "chip": "ym2612"
    },
    {
      "channel": 0,
      "note": 73,
      "start": 19.6018,
      "duration": 0.1831,
      "velocity": 86,
      "chip": "ym2612"
    },
    {
      "channel": 1,
      "note": 80,
      "start": 19.6021,
      "duration": 0.383,
      "velocity": 100,
      "chip": "ym2612"
    },
    {
      "channel": 2,
      "note": 81,
      "start": 19.6035,
      "duration": 0.1815,
      "velocity": 100,
      "chip": "ym2612"
    },
    {
      "channel": 0,
      "note": 69,
      "start": 19.8018,
      "duration": 0.1832,
      "velocity": 86,
      "chip": "ym2612"
    },
    {
      "channel": 2,
      "note": 40,
      "start": 19.8034,
      "duration": 0.1819,
      "velocity": 98,
      "chip": "ym2612"
    },
    {
      "channel": 3,
      "note": 73,
      "start": 19.8036,
      "duration": 0.1817,
      "velocity": 98,
      "chip": "ym2612"
    },
    {
      "channel": 0,
      "note": 76,
      "start": 20.0018,
      "duration": 0.3832,
      "velocity": 86,
      "chip": "ym2612"
    },
    {
      "channel": 1,
      "note": 81,
      "start": 20.0021,
      "duration": 0.1829,
      "velocity": 100,
      "chip": "ym2612"
    },
    {
      "channel": 2,
      "note": 81,
      "start": 20.0036,
      "duration": 0.1815,
      "velocity": 100,
      "chip": "ym2612"
    },
    {
      "channel": 1,
      "note": 81,
      "start": 20.2017,
      "duration": 0.1834,
      "velocity": 100,
      "chip": "ym2612"
    },
    {
      "channel": 2,
      "note": 45,
      "start": 20.2033,
      "duration": 0.1819,
      "velocity": 98,
      "chip": "ym2612"
    },
    {
      "channel": 3,
      "note": 73,
      "start": 20.2035,
      "duration": 0.1819,
      "velocity": 98,
      "chip": "ym2612"
    },
    {
      "channel": 0,
      "note": 73,
      "start": 20.4019,
      "duration": 0.1831,
      "velocity": 86,
      "chip": "ym2612"
    },
    {
      "channel": 1,
      "note": 81,
      "start": 20.4021,
      "duration": 0.183,
      "velocity": 100,
      "chip": "ym2612"
    },
    {
      "channel": 2,
      "note": 81,
      "start": 20.4036,
      "duration": 0.1815,
      "velocity": 100,
      "chip": "ym2612"
    },
    {
      "channel": 0,
      "note": 69,
      "start": 20.6017,
      "duration": 0.1833,
      "velocity": 86,
      "chip": "ym2612"
    },
    {
      "channel": 2,
      "note": 40,
      "start": 20.6034,
      "duration": 0.1819,
      "velocity": 98,
      "chip": "ym2612"
    },
    {
      "channel": 3,
      "note": 73,
      "start": 20.6036,
      "duration": 0.1817,
      "velocity": 98,
      "chip": "ym2612"
    },
    {
      "channel": 0,
      "note": 76,
      "start": 20.8018,
      "duration": 0.3832,
      "velocity": 86,
      "chip": "ym2612"
    },
    {
      "channel": 1,
      "note": 81,
      "start": 20.8021,
      "duration": 0.083,
      "velocity": 100,
      "chip": "ym2612"
    },
    {
      "channel": 2,
      "note": 81,
      "start": 20.8036,
      "duration": 0.1815,
      "velocity": 100,
      "chip": "ym2612"
    },
    {
      "channel": 1,
      "note": 80,
      "start": 20.9017,
      "duration": 0.0832,
      "velocity": 100,
      "chip": "ym2612"
    },
    {
      "channel": 1,
      "note": 79,
      "start": 21.0019,
      "duration": 0.0831,
      "velocity": 100,
      "chip": "ym2612"
    },
    {
      "channel": 2,
      "note": 44,
      "start": 21.0034,
      "duration": 0.1817,
      "velocity": 98,
      "chip": "ym2612"
    },
    {
      "channel": 3,
      "note": 73,
      "start": 21.0036,
      "duration": 0.1816,
      "velocity": 98,
      "chip": "ym2612"
    },
    {
      "channel": 1,
      "note": 80,
      "start": 21.1017,
      "duration": 0.0833,
      "velocity": 100,
      "chip": "ym2612"
    },
    {
      "channel": 0,
      "note": 74,
      "start": 21.202,
      "duration": 0.1831,
      "velocity": 86,
      "chip": "ym2612"
    },
    {
      "channel": 1,
      "note": 79,
      "start": 21.2021,
      "duration": 0.3829,
      "velocity": 100,
      "chip": "ym2612"
    },
    {
      "channel": 2,
      "note": 80,
      "start": 21.2037,
      "duration": 0.1815,
      "velocity": 100,
      "chip": "ym2612"
    },
    {
      "channel": 0,
      "note": 71,
      "start": 21.4018,
      "duration": 0.1832,
      "velocity": 86,
      "chip": "ym2612"
    },
    {
      "channel": 2,
      "note": 40,
      "start": 21.4034,
      "duration": 0.1818,
      "velocity": 98,
      "chip": "ym2612"
    },
    {
      "channel": 3,
      "note": 74,
      "start": 21.4035,
      "duration": 0.1817,
      "velocity": 98,
      "chip": "ym2612"
    },
    {
      "channel": 0,
      "note": 76,
      "start": 21.6018,
      "duration": 0.3832,
      "velocity": 86,
      "chip": "ym2612"
    },
    {
      "channel": 1,
      "note": 80,
      "start": 21.602,
      "duration": 0.1831,
      "velocity": 100,
      "chip": "ym2612"
    },
    {
      "channel": 2,
      "note": 80,
      "start": 21.6035,
      "duration": 0.1816,
      "velocity": 100,
      "chip": "ym2612"
    },
    {
      "channel": 1,
      "note": 80,
      "start": 21.8018,
      "duration": 0.1833,
      "velocity": 100,
      "chip": "ym2612"
    },
    {
      "channel": 2,
      "note": 44,
      "start": 21.8034,
      "duration": 0.1818,
      "velocity": 98,
      "chip": "ym2612"
    },
    {
      "channel": 3,
      "note": 74,
      "start": 21.8036,
      "duration": 0.1817,
      "velocity": 98,
      "chip": "ym2612"
    },
    {
      "channel": 0,
      "note": 74,
      "start": 22.0018,
      "duration": 0.1832,
      "velocity": 86,
      "chip": "ym2612"
    },
    {
      "channel": 1,
      "note": 80,
      "start": 22.002,
      "duration": 0.1831,
      "velocity": 100,
      "chip": "ym2612"
    },
    {
      "channel": 2,
      "note": 80,
      "start": 22.0035,
      "duration": 0.1817,
      "velocity": 100,
      "chip": "ym2612"
    },
    {
      "channel": 0,
      "note": 71,
      "start": 22.2017,
      "duration": 0.1833,
      "velocity": 86,
      "chip": "ym2612"
    },
    {
      "channel": 2,
      "note": 40,
      "start": 22.2033,
      "duration": 0.1819,
      "velocity": 98,
      "chip": "ym2612"
    },
    {
      "channel": 3,
      "note": 74,
      "start": 22.2035,
      "duration": 0.1817,
      "velocity": 98,
      "chip": "ym2612"
    },
    {
      "channel": 0,
      "note": 76,
      "start": 22.4019,
      "duration": 0.3832,
      "velocity": 86,
      "chip": "ym2612"
    },
    {
      "channel": 1,
      "note": 80,
      "start": 22.4021,
      "duration": 0.0828,
      "velocity": 100,
      "chip": "ym2612"
    },
    {
      "channel": 2,
      "note": 80,
      "start": 22.4036,
      "duration": 0.1815,
      "velocity": 100,
      "chip": "ym2612"
    },
    {
      "channel": 1,
      "note": 80,
      "start": 22.5017,
      "duration": 0.0833,
      "velocity": 100,
      "chip": "ym2612"
    },
    {
      "channel": 1,
      "note": 79,
      "start": 22.6017,
      "duration": 0.0833,
      "velocity": 100,
      "chip": "ym2612"
    },
    {
      "channel": 2,
      "note": 44,
      "start": 22.6033,
      "duration": 0.1819,
      "velocity": 98,
      "chip": "ym2612"
    },
    {
      "channel": 3,
      "note": 74,
      "start": 22.6035,
      "duration": 0.1817,
      "velocity": 98,
      "chip": "ym2612"
    },
    {
      "channel": 1,
      "note": 80,
      "start": 22.7017,
      "duration": 0.0834,
      "velocity": 100,
      "chip": "ym2612"
    },
    {
      "channel": 0,
      "note": 74,
      "start": 22.8018,
      "duration": 0.1831,
      "velocity": 86,
      "chip": "ym2612"
    },
    {
      "channel": 1,
      "note": 79,
      "start": 22.8021,
      "duration": 0.383,
      "velocity": 100,
      "chip": "ym2612"
    },
    {
      "channel": 2,
      "note": 80,
      "start": 22.8035,
      "duration": 0.1815,
      "velocity": 100,
      "chip": "ym2612"
    },
    {
      "channel": 0,
      "note": 71,
      "start": 23.0018,
      "duration": 0.1832,
      "velocity": 86,
      "chip": "ym2612"
    },
    {
      "channel": 2,
      "note": 40,
      "start": 23.0034,
      "duration": 0.1818,
      "velocity": 98,
      "chip": "ym2612"
    },
    {
      "channel": 3,
      "note": 74,
      "start": 23.0036,
      "duration": 0.1817,
      "velocity": 98,
      "chip": "ym2612"
    },
    {
      "channel": 0,
      "note": 76,
      "start": 23.2018,
      "duration": 0.3832,
      "velocity": 86,
      "chip": "ym2612"
    },
    {
      "channel": 1,
      "note": 80,
      "start": 23.2021,
      "duration": 0.1829,
      "velocity": 100,
      "chip": "ym2612"
    },
    {
      "channel": 2,
      "note": 80,
      "start": 23.2036,
      "duration": 0.1815,
      "velocity": 100,
      "chip": "ym2612"
    },
    {
      "channel": 1,
      "note": 80,
      "start": 23.4017,
      "duration": 0.1834,
      "velocity": 100,
      "chip": "ym2612"
    },
    {
      "channel": 2,
      "note": 44,
      "start": 23.4033,
      "duration": 0.1819,
      "velocity": 98,
      "chip": "ym2612"
    },
    {
      "channel": 3,
      "note": 74,
      "start": 23.4035,
      "duration": 0.1819,
      "velocity": 98,
      "chip": "ym2612"
    },
    {
      "channel": 0,
      "note": 74,
      "start": 23.6019,
      "duration": 0.1831,
      "velocity": 86,
      "chip": "ym2612"
    },
    {
      "channel": 1,
      "note": 80,
      "start": 23.6021,
      "duration": 0.183,
      "velocity": 100,
      "chip": "ym2612"
    },
    {
      "channel": 2,
      "note": 80,
      "start": 23.6036,
      "duration": 0.1815,
      "velocity": 100,
      "chip": "ym2612"
    },
    {
      "channel": 0,
      "note": 71,
      "start": 23.8017,
      "duration": 0.1833,
      "velocity": 86,
      "chip": "ym2612"
    },
    {
      "channel": 2,
      "note": 40,
      "start": 23.8034,
      "duration": 0.1819,
      "velocity": 98,
      "chip": "ym2612"
    },
    {
      "channel": 3,
      "note": 74,
      "start": 23.8036,
      "duration": 0.1817,
      "velocity": 98,
      "chip": "ym2612"
    },
    {
      "channel": 0,
      "note": 76,
      "start": 24.0018,
      "duration": 0.1832,
      "velocity": 86,
      "chip": "ym2612"
    },
    {
      "channel": 1,
      "note": 80,
      "start": 24.0021,
      "duration": 0.183,
      "velocity": 100,
      "chip": "ym2612"
    },
    {
      "channel": 2,
      "note": 80,
      "start": 24.0036,
      "duration": 0.1815,
      "velocity": 100,
      "chip": "ym2612"
    },
    {
      "channel": 3,
      "note": 74,
      "start": 24.0038,
      "duration": 0.1814,
      "velocity": 98,
      "chip": "ym2612"
    },
    {
      "channel": 0,
      "note": 69,
      "start": 24.2017,
      "duration": 0.1832,
      "velocity": 86,
      "chip": "ym2612"
    },
    {
      "channel": 1,
      "note": 81,
      "start": 24.202,
      "duration": 0.183,
      "velocity": 100,
      "chip": "ym2612"
    },
    {
      "channel": 2,
      "note": 45,
      "start": 24.2022,
      "duration": 0.1829,
      "velocity": 100,
      "chip": "ym2612"
    },
    {
      "channel": 3,
      "note": 81,
      "start": 24.2024,
      "duration": 0.1828,
      "velocity": 98,
      "chip": "ym2612"
    },
    {
      "channel": 0,
      "note": 78,
      "start": 24.4017,
      "duration": 0.1832,
      "velocity": 86,
      "chip": "ym2612"
    },
    {
      "channel": 1,
      "note": 78,
      "start": 24.402,
      "duration": 0.183,
      "velocity": 100,
      "chip": "ym2612"
    },
    {
      "channel": 2,
      "note": 42,
      "start": 24.4022,
      "duration": 0.1829,
      "velocity": 100,
      "chip": "ym2612"
    },
    {
      "channel": 3,
      "note": 78,
      "start": 24.4024,
      "duration": 0.1828,
      "velocity": 98,
      "chip": "ym2612"
    },
    {
      "channel": 0,
      "note": 76,
      "start": 24.6017,
      "duration": 0.1832,
      "velocity": 86,
      "chip": "ym2612"
    },
    {
      "channel": 1,
      "note": 76,
      "start": 24.602,
      "duration": 0.183,
      "velocity": 100,
      "chip": "ym2612"
    },
    {
      "channel": 2,
      "note": 40,
      "start": 24.6022,
      "duration": 0.1829,
      "velocity": 100,
      "chip": "ym2612"
    },
    {
      "channel": 3,
      "note": 76,
      "start": 24.6024,
      "duration": 0.1828,
      "velocity": 98,
      "chip": "ym2612"
    },
    {
      "channel": 0,
      "note": 73,
      "start": 24.8019,
      "duration": 0.3831,
      "velocity": 86,
      "chip": "ym2612"
    },
    {
      "channel": 1,
      "note": 73,
      "start": 24.8021,
      "duration": 0.3829,
      "velocity": 100,
      "chip": "ym2612"
    },
    {
      "channel": 2,
      "note": 37,
      "start": 24.8023,
      "duration": 0.3828,
      "velocity": 100,
      "chip": "ym2612"
    },
    {
      "channel": 3,
      "note": 73,
      "start": 24.8026,
      "duration": 0.3826,
      "velocity": 98,
      "chip": "ym2612"
    },
    {
      "channel": 2,
      "note": 33,
      "start": 25.2018,
      "duration": 0.3834,
      "velocity": 100,
      "chip": "ym2612"
    },
    {
      "channel": 3,
      "note": 73,
      "start": 25.2021,
      "duration": 0.3832,
      "velocity": 98,
      "chip": "ym2612"
    },
    {
      "channel": 0,
      "note": 69,
      "start": 25.6035,
      "duration": 0.3814,
      "velocity": 121,
      "chip": "ym2612"
    },
    {
      "channel": 1,
      "note": 69,
      "start": 25.6051,
      "duration": 0.3801,
      "velocity": 121,
      "chip": "ym2612"
    },
    {
      "channel": 2,
      "note": 45,
      "start": 25.6065,
      "duration": 0.1788,
      "velocity": 100,
      "chip": "ym2612"
    },
    {
      "channel": 2,
      "note": 45,
      "start": 25.8034,
      "duration": 0.182,
      "velocity": 98,
      "chip": "ym2612"
    },
    {
      "channel": 3,
      "note": 73,
      "start": 25.8036,
      "duration": 0.1818,
      "velocity": 98,
      "chip": "ym2612"
    },
    {
      "channel": 0,
      "note": 97,
      "start": 26.0018,
      "duration": 0.1832,
      "velocity": 121,
      "chip": "ym2612"
    },
    {
      "channel": 1,
      "note": 88,
      "start": 26.0021,
      "duration": 0.1832,
      "velocity": 121,
      "chip": "ym2612"
    },
    {
      "channel": 2,
      "note": 81,
      "start": 26.0036,
      "duration": 0.1818,
      "velocity": 100,
      "chip": "ym2612"
    },
    {
      "channel": 0,
      "note": 93,
      "start": 26.2017,
      "duration": 0.1833,
      "velocity": 121,
      "chip": "ym2612"
    },
    {
      "channel": 1,
      "note": 85,
      "start": 26.202,
      "duration": 0.1833,
      "velocity": 121,
      "chip": "ym2612"
    },
    {
      "channel": 2,
      "note": 40,
      "start": 26.2035,
      "duration": 0.182,
      "velocity": 98,
      "chip": "ym2612"
    },
    {
      "channel": 3,
      "note": 73,
      "start": 26.2037,
      "duration": 0.1818,
      "velocity": 98,
      "chip": "ym2612"
    },
    {
      "channel": 0,
      "note": 88,
      "start": 26.4018,
      "duration": 0.3832,
      "velocity": 121,
      "chip": "ym2612"
    },
    {
      "channel": 1,
      "note": 81,
      "start": 26.402,
      "duration": 0.3832,
      "velocity": 121,
      "chip": "ym2612"
    },
    {
      "channel": 2,
      "note": 81,
      "start": 26.4035,
      "duration": 0.1817,
      "velocity": 100,
      "chip": "ym2612"
    },
    {
      "channel": 2,
      "note": 45,
      "start": 26.6034,
      "duration": 0.182,
      "velocity": 98,
      "chip": "ym2612"
    },
    {
      "channel": 3,
      "note": 73,
      "start": 26.6035,
      "duration": 0.182,
      "velocity": 98,
      "chip": "ym2612"
    },
    {
      "channel": 0,
      "note": 97,
      "start": 26.802,
      "duration": 0.183,
      "velocity": 121,
      "chip": "ym2612"
    },
    {
      "channel": 1,
      "note": 88,
      "start": 26.8021,
      "duration": 0.183,
      "velocity": 121,
      "chip": "ym2612"
    },
    {
      "channel": 2,
      "note": 81,
      "start": 26.8037,
      "duration": 0.1817,
      "velocity": 100,
      "chip": "ym2612"
    },
    {
      "channel": 0,
      "note": 93,
      "start": 27.0018,
      "duration": 0.1832,
      "velocity": 121,
      "chip": "ym2612"
    },
    {
      "channel": 1,
      "note": 85,
      "start": 27.0021,
      "duration": 0.1832,
      "velocity": 121,
      "chip": "ym2612"
    },
    {
      "channel": 2,
      "note": 40,
      "start": 27.0036,
      "duration": 0.1818,
      "velocity": 98,
      "chip": "ym2612"
    },
    {
      "channel": 3,
      "note": 73,
      "start": 27.0038,
      "duration": 0.1817,
      "velocity": 98,
      "chip": "ym2612"
    },
    {
      "channel": 0,
      "note": 88,
      "start": 27.2019,
      "duration": 0.3832,
      "velocity": 121,
      "chip": "ym2612"
    },
    {
      "channel": 1,
      "note": 81,
      "start": 27.2021,
      "duration": 0.3831,
      "velocity": 121,
      "chip": "ym2612"
    },
    {
      "channel": 2,
      "note": 81,
      "start": 27.2036,
      "duration": 0.1816,
      "velocity": 100,
      "chip": "ym2612"
    },
    {
      "channel": 2,
      "note": 44,
      "start": 27.4034,
      "duration": 0.182,
      "velocity": 98,
      "chip": "ym2612"
    },
    {
      "channel": 3,
      "note": 73,
      "start": 27.4037,
      "duration": 0.1818,
      "velocity": 98,
      "chip": "ym2612"
    },
    {
      "channel": 0,
      "note": 95,
      "start": 27.6019,
      "duration": 0.1832,
      "velocity": 121,
      "chip": "ym2612"
    },
    {
      "channel": 1,
      "note": 88,
      "start": 27.6021,
      "duration": 0.1832,
      "velocity": 121,
      "chip": "ym2612"
    },
    {
      "channel": 2,
      "note": 80,
      "start": 27.6036,
      "duration": 0.1818,
      "velocity": 100,
      "chip": "ym2612"
    },
    {
      "channel": 0,
      "note": 92,
      "start": 27.8018,
      "duration": 0.1832,
      "velocity": 121,
      "chip": "ym2612"
    },
    {
      "channel": 1,
      "note": 83,
      "start": 27.802,
      "duration": 0.1831,
      "velocity": 121,
      "chip": "ym2612"
    },
    {
      "channel": 2,
      "note": 40,
      "start": 27.8035,
      "duration": 0.1818,
      "velocity": 98,
      "chip": "ym2612"
    },
    {
      "channel": 3,
      "note": 74,
      "start": 27.8037,
      "duration": 0.1817,
      "velocity": 98,
      "chip": "ym2612"
    },
    {
      "channel": 0,
      "note": 88,
      "start": 28.0019,
      "duration": 0.3832,
      "velocity": 121,
      "chip": "ym2612"
    },
    {
      "channel": 1,
      "note": 80,
      "start": 28.0021,
      "duration": 0.3832,
      "velocity": 121,
      "chip": "ym2612"
    },
    {
      "channel": 2,
      "note": 80,
      "start": 28.0036,
      "duration": 0.1817,
      "velocity": 100,
      "chip": "ym2612"
    },
    {
      "channel": 2,
      "note": 44,
      "start": 28.2034,
      "duration": 0.1821,
      "velocity": 98,
      "chip": "ym2612"
    },
    {
      "channel": 3,
      "note": 74,
      "start": 28.2035,
      "duration": 0.182,
      "velocity": 98,
      "chip": "ym2612"
    },
    {
      "channel": 0,
      "note": 95,
      "start": 28.4018,
      "duration": 0.1832,
      "velocity": 121,
      "chip": "ym2612"
    },
    {
      "channel": 1,
      "note": 88,
      "start": 28.402,
      "duration": 0.1831,
      "velocity": 121,
      "chip": "ym2612"
    },
    {
      "channel": 2,
      "note": 80,
      "start": 28.4035,
      "duration": 0.1818,
      "velocity": 100,
      "chip": "ym2612"
    },
    {
      "channel": 0,
      "note": 92,
      "start": 28.6019,
      "duration": 0.1832,
      "velocity": 121,
      "chip": "ym2612"
    },
    {
      "channel": 1,
      "note": 83,
      "start": 28.6021,
      "duration": 0.1832,
      "velocity": 121,
      "chip": "ym2612"
    },
    {
      "channel": 2,
      "note": 40,
      "start": 28.6036,
      "duration": 0.1818,
      "velocity": 98,
      "chip": "ym2612"
    },
    {
      "channel": 3,
      "note": 74,
      "start": 28.6038,
      "duration": 0.1817,
      "velocity": 98,
      "chip": "ym2612"
    },
    {
      "channel": 0,
      "note": 88,
      "start": 28.8019,
      "duration": 0.3832,
      "velocity": 121,
      "chip": "ym2612"
    },
    {
      "channel": 1,
      "note": 80,
      "start": 28.8021,
      "duration": 0.3831,
      "velocity": 121,
      "chip": "ym2612"
    },
    {
      "channel": 2,
      "note": 80,
      "start": 28.8036,
      "duration": 0.1816,
      "velocity": 100,
      "chip": "ym2612"
    },
    {
      "channel": 2,
      "note": 44,
      "start": 29.0034,
      "duration": 0.182,
      "velocity": 98,
      "chip": "ym2612"
    },
    {
      "channel": 3,
      "note": 74,
      "start": 29.0037,
      "duration": 0.1818,
      "velocity": 98,
      "chip": "ym2612"
    },
    {
      "channel": 0,
      "note": 95,
      "start": 29.2019,
      "duration": 0.1832,
      "velocity": 121,
      "chip": "ym2612"
    },
    {
      "channel": 1,
      "note": 88,
      "start": 29.2021,
      "duration": 0.1832,
      "velocity": 121,
      "chip": "ym2612"
    },
    {
      "channel": 2,
      "note": 80,
      "start": 29.2036,
      "duration": 0.1818,
      "velocity": 100,
      "chip": "ym2612"
    },
    {
      "channel": 0,
      "note": 92,
      "start": 29.4017,
      "duration": 0.1832,
      "velocity": 121,
      "chip": "ym2612"
    },
    {
      "channel": 1,
      "note": 83,
      "start": 29.402,
      "duration": 0.1831,
      "velocity": 121,
      "chip": "ym2612"
    },
    {
      "channel": 2,
      "note": 40,
      "start": 29.4035,
      "duration": 0.1818,
      "velocity": 98,
      "chip": "ym2612"
    },
    {
      "channel": 3,
      "note": 74,
      "start": 29.4037,
      "duration": 0.1817,
      "velocity": 98,
      "chip": "ym2612"
    },
    {
      "channel": 0,
      "note": 88,
      "start": 29.6018,
      "duration": 0.3833,
      "velocity": 121,
      "chip": "ym2612"
    },
    {
      "channel": 1,
      "note": 80,
      "start": 29.6021,
      "duration": 0.3832,
      "velocity": 121,
      "chip": "ym2612"
    },
    {
      "channel": 2,
      "note": 80,
      "start": 29.6035,
      "duration": 0.1817,
      "velocity": 100,
      "chip": "ym2612"
    },
    {
      "channel": 2,
      "note": 44,
      "start": 29.8034,
      "duration": 0.1821,
      "velocity": 98,
      "chip": "ym2612"
    },
    {
      "channel": 3,
      "note": 74,
      "start": 29.8035,
      "duration": 0.182,
      "velocity": 98,
      "chip": "ym2612"
    },
    {
      "channel": 0,
      "note": 95,
      "start": 30.0018,
      "duration": 0.1832,
      "velocity": 121,
      "chip": "ym2612"
    },
    {
      "channel": 1,
      "note": 88,
      "start": 30.0021,
      "duration": 0.1832,
      "velocity": 121,
      "chip": "ym2612"
    },
    {
      "channel": 2,
      "note": 80,
      "start": 30.0035,
      "duration": 0.1819,
      "velocity": 100,
      "chip": "ym2612"
    },
    {
      "channel": 0,
      "note": 92,
      "start": 30.2017,
      "duration": 0.1833,
      "velocity": 121,
      "chip": "ym2612"
    },
    {
      "channel": 1,
      "note": 83,
      "start": 30.202,
      "duration": 0.1833,
      "velocity": 121,
      "chip": "ym2612"
    },
    {
      "channel": 2,
      "note": 40,
      "start": 30.2035,
      "duration": 0.182,
      "velocity": 98,
      "chip": "ym2612"
    },
    {
      "channel": 3,
      "note": 74,
      "start": 30.2037,
      "duration": 0.1818,
      "velocity": 98,
      "chip": "ym2612"
    },
    {
      "channel": 0,
      "note": 88,
      "start": 30.4018,
      "duration": 0.3832,
      "velocity": 121,
      "chip": "ym2612"
    },
    {
      "channel": 1,
      "note": 80,
      "start": 30.402,
      "duration": 0.3832,
      "velocity": 121,
      "chip": "ym2612"
    },
    {
      "channel": 2,
      "note": 80,
      "start": 30.4035,
      "duration": 0.1817,
      "velocity": 100,
      "chip": "ym2612"
    },
    {
      "channel": 2,
      "note": 45,
      "start": 30.6033,
      "duration": 0.1821,
      "velocity": 98,
      "chip": "ym2612"
    },
    {
      "channel": 3,
      "note": 74,
      "start": 30.6035,
      "duration": 0.182,
      "velocity": 98,
      "chip": "ym2612"
    },
    {
      "channel": 0,
      "note": 97,
      "start": 30.802,
      "duration": 0.183,
      "velocity": 121,
      "chip": "ym2612"
    },
    {
      "channel": 1,
      "note": 88,
      "start": 30.8021,
      "duration": 0.183,
      "velocity": 121,
      "chip": "ym2612"
    },
    {
      "channel": 2,
      "note": 81,
      "start": 30.8037,
      "duration": 0.1817,
      "velocity": 100,
      "chip": "ym2612"
    },
    {
      "channel": 0,
      "note": 93,
      "start": 31.0018,
      "duration": 0.1832,
      "velocity": 121,
      "chip": "ym2612"
    },
    {
      "channel": 1,
      "note": 85,
      "start": 31.0021,
      "duration": 0.1832,
      "velocity": 121,
      "chip": "ym2612"
    },
    {
      "channel": 2,
      "note": 40,
      "start": 31.0036,
      "duration": 0.1818,
      "velocity": 98,
      "chip": "ym2612"
    },
    {
      "channel": 3,
      "note": 73,
      "start": 31.0038,
      "duration": 0.1817,
      "velocity": 98,
      "chip": "ym2612"
    },
    {
      "channel": 0,
      "note": 88,
      "start": 31.2019,
      "duration": 0.1832,
      "velocity": 121,
      "chip": "ym2612"
    },
    {
      "channel": 1,
      "note": 81,
      "start": 31.2021,
      "duration": 0.1832,
      "velocity": 121,
      "chip": "ym2612"
    },
    {
      "channel": 2,
      "note": 81,
      "start": 31.2036,
      "duration": 0.1819,
      "velocity": 100,
      "chip": "ym2612"
    },
    {
      "channel": 3,
      "note": 73,
      "start": 31.2039,
      "duration": 0.1817,
      "velocity": 98,
      "chip": "ym2612"
    },
    {
      "channel": 0,
      "note": 97,
      "start": 31.4018,
      "duration": 0.1833,
      "velocity": 121,
      "chip": "ym2612"
    },
    {
      "channel": 1,
      "note": 88,
      "start": 31.4021,
      "duration": 0.1832,
      "velocity": 121,
      "chip": "ym2612"
    },
    {
      "channel": 2,
      "note": 45,
      "start": 31.4023,
      "duration": 0.1832,
      "velocity": 100,
      "chip": "ym2612"
    },
    {
      "channel": 3,
      "note": 69,
      "start": 31.4025,
      "duration": 0.183,
      "velocity": 98,
      "chip": "ym2612"
    },
    {
      "channel": 0,
      "note": 92,
      "start": 31.6018,
      "duration": 0.1833,
      "velocity": 121,
      "chip": "ym2612"
    },
    {
      "channel": 1,
      "note": 83,
      "start": 31.602,
      "duration": 0.1833,
      "velocity": 121,
      "chip": "ym2612"
    },
    {
      "channel": 2,
      "note": 40,
      "start": 31.6023,
      "duration": 0.1832,
      "velocity": 100,
      "chip": "ym2612"
    },
    {
      "channel": 3,
      "note": 76,
      "start": 31.6024,
      "duration": 0.1831,
      "velocity": 98,
      "chip": "ym2612"
    },
    {
      "channel": 0,
      "note": 93,
      "start": 31.8018,
      "duration": 0.1833,
      "velocity": 121,
      "chip": "ym2612"
    },
    {
      "channel": 1,
      "note": 85,
      "start": 31.8021,
      "duration": 0.1832,
      "velocity": 121,
      "chip": "ym2612"
    },
    {
      "channel": 2,
      "note": 42,
      "start": 31.8023,
      "duration": 0.1832,
      "velocity": 100,
      "chip": "ym2612"
    },
    {
      "channel": 3,
      "note": 75,
      "start": 31.8025,
      "duration": 0.183,
      "velocity": 98,
      "chip": "ym2612"
    },
    {
      "channel": 0,
      "note": 95,
      "start": 32.0021,
      "duration": 0.383,
      "velocity": 121,
      "chip": "ym2612"
    },
    {
      "channel": 1,
      "note": 86,
      "start": 32.0023,
      "duration": 0.3829,
      "velocity": 121,
      "chip": "ym2612"
    },
    {
      "channel": 2,
      "note": 44,
      "start": 32.0038,
      "duration": 0.1815,
      "velocity": 100,
      "chip": "ym2612"
    },
    {
      "channel": 2,
      "note": 45,
      "start": 32.2034,
      "duration": 0.1821,
      "velocity": 98,
      "chip": "ym2612"
    },
    {
      "channel": 3,
      "note": 74,
      "start": 32.2036,
      "duration": 0.1819,
      "velocity": 98,
      "chip": "ym2612"
    },
    {
      "channel": 0,
      "note": 97,
      "start": 32.4018,
      "duration": 0.1832,
      "velocity": 121,
      "chip": "ym2612"
    },
    {
      "channel": 1,
      "note": 88,
      "start": 32.402,
      "duration": 0.1831,
      "velocity": 121,
      "chip": "ym2612"
    },
    {
      "channel": 2,
      "note": 81,
      "start": 32.4035,
      "duration": 0.1818,
      "velocity": 100,
      "chip": "ym2612"
    },
    {
      "channel": 0,
      "note": 93,
      "start": 32.6019,
      "duration": 0.1832,
      "velocity": 121,
      "chip": "ym2612"
    },
    {
      "channel": 1,
      "note": 85,
      "start": 32.6021,
      "duration": 0.1832,
      "velocity": 121,
      "chip": "ym2612"
    },
    {
      "channel": 2,
      "note": 40,
      "start": 32.6036,
      "duration": 0.1818,
      "velocity": 98,
      "chip": "ym2612"
    },
    {
      "channel": 3,
      "note": 73,
      "start": 32.6038,
      "duration": 0.1817,
      "velocity": 98,
      "chip": "ym2612"
    },
    {
      "channel": 0,
      "note": 88,
      "start": 32.8019,
      "duration": 0.3832,
      "velocity": 121,
      "chip": "ym2612"
    },
    {
      "channel": 1,
      "note": 81,
      "start": 32.8021,
      "duration": 0.3831,
      "velocity": 121,
      "chip": "ym2612"
    },
    {
      "channel": 2,
      "note": 81,
      "start": 32.8037,
      "duration": 0.1815,
      "velocity": 100,
      "chip": "ym2612"
    },
    {
      "channel": 2,
      "note": 45,
      "start": 33.0033,
      "duration": 0.1821,
      "velocity": 98,
      "chip": "ym2612"
    },
    {
      "channel": 3,
      "note": 73,
      "start": 33.0035,
      "duration": 0.1819,
      "velocity": 98,
      "chip": "ym2612"
    },
    {
      "channel": 0,
      "note": 97,
      "start": 33.2019,
      "duration": 0.1831,
      "velocity": 121,
      "chip": "ym2612"
    },
    {
      "channel": 1,
      "note": 88,
      "start": 33.2021,
      "duration": 0.183,
      "velocity": 121,
      "chip": "ym2612"
    },
    {
      "channel": 2,
      "note": 81,
      "start": 33.2037,
      "duration": 0.1817,
      "velocity": 100,
      "chip": "ym2612"
    },
    {
      "channel": 0,
      "note": 93,
      "start": 33.4018,
      "duration": 0.1832,
      "velocity": 121,
      "chip": "ym2612"
    },
    {
      "channel": 1,
      "note": 85,
      "start": 33.4021,
      "duration": 0.1832,
      "velocity": 121,
      "chip": "ym2612"
    },
    {
      "channel": 2,
      "note": 40,
      "start": 33.4036,
      "duration": 0.1818,
      "velocity": 98,
      "chip": "ym2612"
    },
    {
      "channel": 3,
      "note": 73,
      "start": 33.4038,
      "duration": 0.1817,
      "velocity": 98,
      "chip": "ym2612"
    },
    {
      "channel": 0,
      "note": 88,
      "start": 33.6019,
      "duration": 0.3832,
      "velocity": 121,
      "chip": "ym2612"
    },
    {
      "channel": 1,
      "note": 81,
      "start": 33.6021,
      "duration": 0.3831,
      "velocity": 121,
      "chip": "ym2612"
    },
    {
      "channel": 2,
      "note": 81,
      "start": 33.6036,
      "duration": 0.1816,
      "velocity": 100,
      "chip": "ym2612"
    },
    {
      "channel": 2,
      "note": 44,
      "start": 33.8034,
      "duration": 0.182,
      "velocity": 98,
      "chip": "ym2612"
    },
    {
      "channel": 3,
      "note": 73,
      "start": 33.8037,
      "duration": 0.1818,
      "velocity": 98,
      "chip": "ym2612"
    },
    {
      "channel": 0,
      "note": 95,
      "start": 34.0019,
      "duration": 0.1832,
      "velocity": 121,
      "chip": "ym2612"
    },
    {
      "channel": 1,
      "note": 88,
      "start": 34.0021,
      "duration": 0.1832,
      "velocity": 121,
      "chip": "ym2612"
    },
    {
      "channel": 2,
      "note": 80,
      "start": 34.0036,
      "duration": 0.1818,
      "velocity": 100,
      "chip": "ym2612"
    },
    {
      "channel": 0,
      "note": 92,
      "start": 34.2018,
      "duration": 0.1832,
      "velocity": 121,
      "chip": "ym2612"
    },
    {
      "channel": 1,
      "note": 83,
      "start": 34.202,
      "duration": 0.1831,
      "velocity": 121,
      "chip": "ym2612"
    },
    {
      "channel": 2,
      "note": 40,
      "start": 34.2035,
      "duration": 0.1818,
      "velocity": 98,
      "chip": "ym2612"
    },
    {
      "channel": 3,
      "note": 74,
      "start": 34.2037,
      "duration": 0.1817,
      "velocity": 98,
      "chip": "ym2612"
    },
    {
      "channel": 0,
      "note": 88,
      "start": 34.4018,
      "duration": 0.3833,
      "velocity": 121,
      "chip": "ym2612"
    },
    {
      "channel": 1,
      "note": 80,
      "start": 34.4021,
      "duration": 0.3832,
      "velocity": 121,
      "chip": "ym2612"
    },
    {
      "channel": 2,
      "note": 80,
      "start": 34.4035,
      "duration": 0.1817,
      "velocity": 100,
      "chip": "ym2612"
    },
    {
      "channel": 2,
      "note": 44,
      "start": 34.6034,
      "duration": 0.1821,
      "velocity": 98,
      "chip": "ym2612"
    },
    {
      "channel": 3,
      "note": 74,
      "start": 34.6035,
      "duration": 0.182,
      "velocity": 98,
      "chip": "ym2612"
    },
    {
      "channel": 0,
      "note": 95,
      "start": 34.8018,
      "duration": 0.1832,
      "velocity": 121,
      "chip": "ym2612"
    },
    {
      "channel": 1,
      "note": 88,
      "start": 34.802,
      "duration": 0.1831,
      "velocity": 121,
      "chip": "ym2612"
    },
    {
      "channel": 2,
      "note": 80,
      "start": 34.8035,
      "duration": 0.1818,
      "velocity": 100,
      "chip": "ym2612"
    },
    {
      "channel": 0,
      "note": 92,
      "start": 35.0019,
      "duration": 0.1832,
      "velocity": 121,
      "chip": "ym2612"
    },
    {
      "channel": 1,
      "note": 83,
      "start": 35.0021,
      "duration": 0.1832,
      "velocity": 121,
      "chip": "ym2612"
    },
    {
      "channel": 2,
      "note": 40,
      "start": 35.0036,
      "duration": 0.1818,
      "velocity": 98,
      "chip": "ym2612"
    },
    {
      "channel": 3,
      "note": 74,
      "start": 35.0038,
      "duration": 0.1817,
      "velocity": 98,
      "chip": "ym2612"
    },
    {
      "channel": 0,
      "note": 88,
      "start": 35.202,
      "duration": 0.3831,
      "velocity": 121,
      "chip": "ym2612"
    },
    {
      "channel": 1,
      "note": 80,
      "start": 35.2021,
      "duration": 0.3831,
      "velocity": 121,
      "chip": "ym2612"
    },
    {
      "channel": 2,
      "note": 80,
      "start": 35.2037,
      "duration": 0.1815,
      "velocity": 100,
      "chip": "ym2612"
    },
    {
      "channel": 2,
      "note": 44,
      "start": 35.4033,
      "duration": 0.1821,
      "velocity": 98,
      "chip": "ym2612"
    },
    {
      "channel": 3,
      "note": 74,
      "start": 35.4035,
      "duration": 0.1819,
      "velocity": 98,
      "chip": "ym2612"
    },
    {
      "channel": 0,
      "note": 95,
      "start": 35.6019,
      "duration": 0.1832,
      "velocity": 121,
      "chip": "ym2612"
    },
    {
      "channel": 1,
      "note": 88,
      "start": 35.6021,
      "duration": 0.1832,
      "velocity": 121,
      "chip": "ym2612"
    },
    {
      "channel": 2,
      "note": 80,
      "start": 35.6036,
      "duration": 0.1819,
      "velocity": 100,
      "chip": "ym2612"
    },
    {
      "channel": 0,
      "note": 92,
      "start": 35.8018,
      "duration": 0.1832,
      "velocity": 121,
      "chip": "ym2612"
    },
    {
      "channel": 1,
      "note": 83,
      "start": 35.8021,
      "duration": 0.1832,
      "velocity": 121,
      "chip": "ym2612"
    },
    {
      "channel": 2,
      "note": 40,
      "start": 35.8035,
      "duration": 0.1818,
      "velocity": 98,
      "chip": "ym2612"
    },
    {
      "channel": 3,
      "note": 74,
      "start": 35.8038,
      "duration": 0.1817,
      "velocity": 98,
      "chip": "ym2612"
    },
    {
      "channel": 0,
      "note": 88,
      "start": 36.0019,
      "duration": 0.3831,
      "velocity": 121,
      "chip": "ym2612"
    },
    {
      "channel": 1,
      "note": 80,
      "start": 36.0021,
      "duration": 0.3831,
      "velocity": 121,
      "chip": "ym2612"
    },
    {
      "channel": 2,
      "note": 80,
      "start": 36.0036,
      "duration": 0.1817,
      "velocity": 100,
      "chip": "ym2612"
    },
    {
      "channel": 2,
      "note": 44,
      "start": 36.2034,
      "duration": 0.182,
      "velocity": 98,
      "chip": "ym2612"
    },
    {
      "channel": 3,
      "note": 74,
      "start": 36.2036,
      "duration": 0.1818,
      "velocity": 98,
      "chip": "ym2612"
    },
    {
      "channel": 0,
      "note": 95,
      "start": 36.4018,
      "duration": 0.1832,
      "velocity": 121,
      "chip": "ym2612"
    },
    {
      "channel": 1,
      "note": 88,
      "start": 36.4021,
      "duration": 0.1832,
      "velocity": 121,
      "chip": "ym2612"
    },
    {
      "channel": 2,
      "note": 80,
      "start": 36.4036,
      "duration": 0.1818,
      "velocity": 100,
      "chip": "ym2612"
    },
    {
      "channel": 0,
      "note": 92,
      "start": 36.6017,
      "duration": 0.1833,
      "velocity": 121,
      "chip": "ym2612"
    },
    {
      "channel": 1,
      "note": 83,
      "start": 36.602,
      "duration": 0.1833,
      "velocity": 121,
      "chip": "ym2612"
    },
    {
      "channel": 2,
      "note": 40,
      "start": 36.6035,
      "duration": 0.182,
      "velocity": 98,
      "chip": "ym2612"
    },
    {
      "channel": 3,
      "note": 74,
      "start": 36.6037,
      "duration": 0.1818,
      "velocity": 98,
      "chip": "ym2612"
    },
    {
      "channel": 0,
      "note": 88,
      "start": 36.802,
      "duration": 0.1831,
      "velocity": 121,
      "chip": "ym2612"
    },
    {
      "channel": 1,
      "note": 80,
      "start": 36.8021,
      "duration": 0.183,
      "velocity": 121,
      "chip": "ym2612"
    },
    {
      "channel": 2,
      "note": 80,
      "start": 36.8037,
      "duration": 0.1817,
      "velocity": 100,
      "chip": "ym2612"
    },
    {
      "channel": 3,
      "note": 74,
      "start": 36.8039,
      "duration": 0.1815,
      "velocity": 98,
      "chip": "ym2612"
    },
    {
      "channel": 0,
      "note": 93,
      "start": 37.0017,
      "duration": 0.1833,
      "velocity": 121,
      "chip": "ym2612"
    },
    {
      "channel": 1,
      "note": 81,
      "start": 37.002,
      "duration": 0.1833,
      "velocity": 121,
      "chip": "ym2612"
    },
    {
      "channel": 2,
      "note": 45,
      "start": 37.0022,
      "duration": 0.1832,
      "velocity": 100,
      "chip": "ym2612"
    },
    {
      "channel": 3,
      "note": 81,
      "start": 37.0024,
      "duration": 0.1831,
      "velocity": 98,
      "chip": "ym2612"
    },
    {
      "channel": 0,
      "note": 90,
      "start": 37.2017,
      "duration": 0.1833,
      "velocity": 121,
      "chip": "ym2612"
    },
    {
      "channel": 1,
      "note": 90,
      "start": 37.202,
      "duration": 0.1833,
      "velocity": 121,
      "chip": "ym2612"
    },
    {
      "channel": 2,
      "note": 42,
      "start": 37.2022,
      "duration": 0.1832,
      "velocity": 100,
      "chip": "ym2612"
    },
    {
      "channel": 3,
      "note": 78,
      "start": 37.2024,
      "duration": 0.1831,
      "velocity": 98,
      "chip": "ym2612"
    },
    {
      "channel": 0,
      "note": 88,
      "start": 37.4017,
      "duration": 0.1833,
      "velocity": 121,
      "chip": "ym2612"
    },
    {
      "channel": 1,
      "note": 88,
      "start": 37.402,
      "duration": 0.1833,
      "velocity": 121,
      "chip": "ym2612"
    },
    {
      "channel": 2,
      "note": 40,
      "start": 37.4022,
      "duration": 0.1832,
      "velocity": 100,
      "chip": "ym2612"
    },
    {
      "channel": 3,
      "note": 76,
      "start": 37.4024,
      "duration": 0.1831,
      "velocity": 98,
      "chip": "ym2612"
    },
    {
      "channel": 0,
      "note": 85,
      "start": 37.6019,
      "duration": 0.3831,
      "velocity": 121,
      "chip": "ym2612"
    },
    {
      "channel": 1,
      "note": 85,
      "start": 37.6021,
      "duration": 0.383,
      "velocity": 121,
      "chip": "ym2612"
    },
    {
      "channel": 2,
      "note": 37,
      "start": 37.6023,
      "duration": 0.383,
      "velocity": 100,
      "chip": "ym2612"
    },
    {
      "channel": 3,
      "note": 73,
      "start": 37.6026,
      "duration": 0.3828,
      "velocity": 98,
      "chip": "ym2612"
    },
    {
      "channel": 2,
      "note": 33,
      "start": 38.0019,
      "duration": 0.3836,
      "velocity": 100,
      "chip": "ym2612"
    },
    {
      "channel": 3,
      "note": 73,
      "start": 38.0021,
      "duration": 0.3834,
      "velocity": 98,
      "chip": "ym2612"
    },
    {
      "channel": 0,
      "note": 81,
      "start": 38.4035,
      "duration": 1.1816,
      "velocity": 86,
      "chip": "ym2612"
    },
    {
      "channel": 1,
      "note": 81,
      "start": 38.405,
      "duration": 1.1802,
      "velocity": 96,
      "chip": "ym2612"
    },
    {
      "channel": 2,
      "note": 45,
      "start": 38.4065,
      "duration": 0.1788,
      "velocity": 100,
      "chip": "ym2612"
    },
    {
      "channel": 2,
      "note": 38,
      "start": 38.6034,
      "duration": 0.1819,
      "velocity": 98,
      "chip": "ym2612"
    },
    {
      "channel": 3,
      "note": 73,
      "start": 38.6036,
      "duration": 0.1817,
      "velocity": 98,
      "chip": "ym2612"
    },
    {
      "channel": 2,
      "note": 81,
      "start": 38.8034,
      "duration": 0.1819,
      "velocity": 100,
      "chip": "ym2612"
    },
    {
      "channel": 2,
      "note": 45,
      "start": 39.0034,
      "duration": 0.182,
      "velocity": 98,
      "chip": "ym2612"
    },
    {
      "channel": 3,
      "note": 78,
      "start": 39.0036,
      "duration": 0.1818,
      "velocity": 98,
      "chip": "ym2612"
    },
    {
      "channel": 2,
      "note": 81,
      "start": 39.2033,
      "duration": 0.182,
      "velocity": 100,
      "chip": "ym2612"
    },
    {
      "channel": 2,
      "note": 38,
      "start": 39.4034,
      "duration": 0.182,
      "velocity": 98,
      "chip": "ym2612"
    },
    {
      "channel": 3,
      "note": 78,
      "start": 39.4035,
      "duration": 0.182,
      "velocity": 98,
      "chip": "ym2612"
    },
    {
      "channel": 0,
      "note": 81,
      "start": 39.602,
      "duration": 0.3831,
      "velocity": 86,
      "chip": "ym2612"
    },
    {
      "channel": 1,
      "note": 66,
      "start": 39.6021,
      "duration": 0.3831,
      "velocity": 96,
      "chip": "ym2612"
    },
    {
      "channel": 2,
      "note": 81,
      "start": 39.6037,
      "duration": 0.1815,
      "velocity": 100,
      "chip": "ym2612"
    },
    {
      "channel": 2,
      "note": 45,
      "start": 39.8033,
      "duration": 0.1821,
      "velocity": 98,
      "chip": "ym2612"
    },
    {
      "channel": 3,
      "note": 78,
      "start": 39.8035,
      "duration": 0.1819,
      "velocity": 98,
      "chip": "ym2612"
    },
    {
      "channel": 0,
      "note": 78,
      "start": 40.0019,
      "duration": 1.1832,
      "velocity": 86,
      "chip": "ym2612"
    },
    {
      "channel": 1,
      "note": 62,
      "start": 40.0021,
      "duration": 1.1831,
      "velocity": 96,
      "chip": "ym2612"
    },
    {
      "channel": 2,
      "note": 81,
      "start": 40.0036,
      "duration": 0.1817,
      "velocity": 100,
      "chip": "ym2612"
    },
    {
      "channel": 2,
      "note": 45,
      "start": 40.2034,
      "duration": 0.1819,
      "velocity": 98,
      "chip": "ym2612"
    },
    {
      "channel": 3,
      "note": 78,
      "start": 40.2036,
      "duration": 0.1817,
      "velocity": 98,
      "chip": "ym2612"
    },
    {
      "channel": 2,
      "note": 81,
      "start": 40.4034,
      "duration": 0.1819,
      "velocity": 100,
      "chip": "ym2612"
    },
    {
      "channel": 2,
      "note": 40,
      "start": 40.6034,
      "duration": 0.182,
      "velocity": 98,
      "chip": "ym2612"
    },
    {
      "channel": 3,
      "note": 73,
      "start": 40.6036,
      "duration": 0.1818,
      "velocity": 98,
      "chip": "ym2612"
    },
    {
      "channel": 2,
      "note": 81,
      "start": 40.8033,
      "duration": 0.182,
      "velocity": 100,
      "chip": "ym2612"
    },
    {
      "channel": 2,
      "note": 45,
      "start": 41.0034,
      "duration": 0.182,
      "velocity": 98,
      "chip": "ym2612"
    },
    {
      "channel": 3,
      "note": 73,
      "start": 41.0035,
      "duration": 0.182,
      "velocity": 98,
      "chip": "ym2612"
    },
    {
      "channel": 0,
      "note": 76,
      "start": 41.202,
      "duration": 0.3831,
      "velocity": 86,
      "chip": "ym2612"
    },
    {
      "channel": 1,
      "note": 61,
      "start": 41.2021,
      "duration": 0.3831,
      "velocity": 96,
      "chip": "ym2612"
    },
    {
      "channel": 2,
      "note": 81,
      "start": 41.2037,
      "duration": 0.1815,
      "velocity": 100,
      "chip": "ym2612"
    },
    {
      "channel": 2,
      "note": 40,
      "start": 41.4033,
      "duration": 0.1821,
      "velocity": 98,
      "chip": "ym2612"
    },
    {
      "channel": 3,
      "note": 73,
      "start": 41.4035,
      "duration": 0.1819,
      "velocity": 98,
      "chip": "ym2612"
    },
    {
      "channel": 0,
      "note": 73,
      "start": 41.6019,
      "duration": 1.1832,
      "velocity": 86,
      "chip": "ym2612"
    },
    {
      "channel": 1,
      "note": 57,
      "start": 41.6021,
      "duration": 1.1832,
      "velocity": 96,
      "chip": "ym2612"
    },
    {
      "channel": 2,
      "note": 81,
      "start": 41.6037,
      "duration": 0.1815,
      "velocity": 100,
      "chip": "ym2612"
    },
    {
      "channel": 2,
      "note": 40,
      "start": 41.8033,
      "duration": 0.182,
      "velocity": 98,
      "chip": "ym2612"
    },
    {
      "channel": 3,
      "note": 73,
      "start": 41.8035,
      "duration": 0.1819,
      "velocity": 98,
      "chip": "ym2612"
    },
    {
      "channel": 2,
      "note": 80,
      "start": 42.0034,
      "duration": 0.1819,
      "velocity": 100,
      "chip": "ym2612"
    },
    {
      "channel": 2,
      "note": 47,
      "start": 42.2034,
      "duration": 0.1819,
      "velocity": 98,
      "chip": "ym2612"
    },
    {
      "channel": 3,
      "note": 71,
      "start": 42.2037,
      "duration": 0.1817,
      "velocity": 98,
      "chip": "ym2612"
    },
    {
      "channel": 2,
      "note": 80,
      "start": 42.4034,
      "duration": 0.1819,
      "velocity": 100,
      "chip": "ym2612"
    },
    {
      "channel": 2,
      "note": 40,
      "start": 42.6034,
      "duration": 0.1821,
      "velocity": 98,
      "chip": "ym2612"
    },
    {
      "channel": 3,
      "note": 71,
      "start": 42.6036,
      "duration": 0.1819,
      "velocity": 98,
      "chip": "ym2612"
    },
    {
      "channel": 0,
      "note": 74,
      "start": 42.8018,
      "duration": 0.3832,
      "velocity": 86,
      "chip": "ym2612"
    },
    {
      "channel": 1,
      "note": 59,
      "start": 42.802,
      "duration": 0.3832,
      "velocity": 96,
      "chip": "ym2612"
    },
    {
      "channel": 2,
      "note": 80,
      "start": 42.8035,
      "duration": 0.1817,
      "velocity": 100,
      "chip": "ym2612"
    },
    {
      "channel": 2,
      "note": 47,
      "start": 43.0034,
      "duration": 0.182,
      "velocity": 98,
      "chip": "ym2612"
    },
    {
      "channel": 3,
      "note": 71,
      "start": 43.0035,
      "duration": 0.182,
      "velocity": 98,
      "chip": "ym2612"
    },
    {
      "channel": 0,
      "note": 71,
      "start": 43.2018,
      "duration": 0.3832,
      "velocity": 86,
      "chip": "ym2612"
    },
    {
      "channel": 1,
      "note": 52,
      "start": 43.202,
      "duration": 0.3832,
      "velocity": 96,
      "chip": "ym2612"
    },
    {
      "channel": 2,
      "note": 80,
      "start": 43.2035,
      "duration": 0.1817,
      "velocity": 100,
      "chip": "ym2612"
    },
    {
      "channel": 2,
      "note": 45,
      "start": 43.4033,
      "duration": 0.1821,
      "velocity": 98,
      "chip": "ym2612"
    },
    {
      "channel": 3,
      "note": 71,
      "start": 43.4035,
      "duration": 0.1819,
      "velocity": 98,
      "chip": "ym2612"
    },
    {
      "channel": 0,
      "note": 73,
      "start": 43.6017,
      "duration": 0.3833,
      "velocity": 86,
      "chip": "ym2612"
    },
    {
      "channel": 1,
      "note": 57,
      "start": 43.602,
      "duration": 0.3832,
      "velocity": 96,
      "chip": "ym2612"
    },
    {
      "channel": 2,
      "note": 81,
      "start": 43.6035,
      "duration": 0.1817,
      "velocity": 100,
      "chip": "ym2612"
    },
    {
      "channel": 2,
      "note": 40,
      "start": 43.8034,
      "duration": 0.182,
      "velocity": 98,
      "chip": "ym2612"
    },
    {
      "channel": 3,
      "note": 73,
      "start": 43.8037,
      "duration": 0.1818,
      "velocity": 98,
      "chip": "ym2612"
    },
    {
      "channel": 0,
      "note": 74,
      "start": 44.0017,
      "duration": 0.3832,
      "velocity": 86,
      "chip": "ym2612"
    },
    {
      "channel": 1,
      "note": 59,
      "start": 44.002,
      "duration": 0.3832,
      "velocity": 96,
      "chip": "ym2612"
    },
    {
      "channel": 2,
      "note": 81,
      "start": 44.0035,
      "duration": 0.1819,
      "velocity": 100,
      "chip": "ym2612"
    },
    {
      "channel": 2,
      "note": 45,
      "start": 44.2034,
      "duration": 0.182,
      "velocity": 98,
      "chip": "ym2612"
    },
    {
      "channel": 3,
      "note": 73,
      "start": 44.2036,
      "duration": 0.1818,
      "velocity": 98,
      "chip": "ym2612"
    },
    {
      "channel": 0,
      "note": 75,
      "start": 44.4018,
      "duration": 0.3833,
      "velocity": 86,
      "chip": "ym2612"
    },
    {
      "channel": 1,
      "note": 60,
      "start": 44.4021,
      "duration": 0.3832,
      "velocity": 96,
      "chip": "ym2612"
    },
    {
      "channel": 2,
      "note": 81,
      "start": 44.4036,
      "duration": 0.1817,
      "velocity": 100,
      "chip": "ym2612"
    },
    {
      "channel": 2,
      "note": 40,
      "start": 44.6034,
      "duration": 0.1821,
      "velocity": 98,
      "chip": "ym2612"
    },
    {
      "channel": 3,
      "note": 73,
      "start": 44.6035,
      "duration": 0.182,
      "velocity": 98,
      "chip": "ym2612"
    },
    {
      "channel": 0,
      "note": 76,
      "start": 44.8021,
      "duration": 1.183,
      "velocity": 86,
      "chip": "ym2612"
    },
    {
      "channel": 1,
      "note": 61,
      "start": 44.8023,
      "duration": 1.1829,
      "velocity": 96,
      "chip": "ym2612"
    },
    {
      "channel": 2,
      "note": 81,
      "start": 44.8038,
      "duration": 0.1815,
      "velocity": 100,
      "chip": "ym2612"
    },
    {
      "channel": 2,
      "note": 38,
      "start": 45.0034,
      "duration": 0.182,
      "velocity": 98,
      "chip": "ym2612"
    },
    {
      "channel": 3,
      "note": 73,
      "start": 45.0035,
      "duration": 0.1819,
      "velocity": 98,
      "chip": "ym2612"
    },
    {
      "channel": 2,
      "note": 81,
      "start": 45.2034,
      "duration": 0.1819,
      "velocity": 100,
      "chip": "ym2612"
    },
    {
      "channel": 2,
      "note": 45,
      "start": 45.4033,
      "duration": 0.182,
      "velocity": 98,
      "chip": "ym2612"
    },
    {
      "channel": 3,
      "note": 78,
      "start": 45.4035,
      "duration": 0.1819,
      "velocity": 98,
      "chip": "ym2612"
    },
    {
      "channel": 2,
      "note": 81,
      "start": 45.6034,
      "duration": 0.1819,
      "velocity": 100,
      "chip": "ym2612"
    },
    {
      "channel": 2,
      "note": 38,
      "start": 45.8034,
      "duration": 0.182,
      "velocity": 98,
      "chip": "ym2612"
    },
    {
      "channel": 3,
      "note": 78,
      "start": 45.8037,
      "duration": 0.1818,
      "velocity": 98,
      "chip": "ym2612"
    },
    {
      "channel": 0,
      "note": 81,
      "start": 46.0019,
      "duration": 0.3832,
      "velocity": 86,
      "chip": "ym2612"
    },
    {
      "channel": 1,
      "note": 66,
      "start": 46.0021,
      "duration": 0.3831,
      "velocity": 96,
      "chip": "ym2612"
    },
    {
      "channel": 2,
      "note": 81,
      "start": 46.0036,
      "duration": 0.1816,
      "velocity": 100,
      "chip": "ym2612"
    },
    {
      "channel": 2,
      "note": 45,
      "start": 46.2034,
      "duration": 0.182,
      "velocity": 98,
      "chip": "ym2612"
    },
    {
      "channel": 3,
      "note": 78,
      "start": 46.2037,
      "duration": 0.1818,
      "velocity": 98,
      "chip": "ym2612"
    },
    {
      "channel": 0,
      "note": 78,
      "start": 46.4019,
      "duration": 1.1832,
      "velocity": 86,
      "chip": "ym2612"
    },
    {
      "channel": 1,
      "note": 62,
      "start": 46.4021,
      "duration": 1.1832,
      "velocity": 96,
      "chip": "ym2612"
    },
    {
      "channel": 2,
      "note": 81,
      "start": 46.4036,
      "duration": 0.1817,
      "velocity": 100,
      "chip": "ym2612"
    },
    {
      "channel": 2,
      "note": 45,
      "start": 46.6034,
      "duration": 0.1818,
      "velocity": 98,
      "chip": "ym2612"
    },
    {
      "channel": 3,
      "note": 78,
      "start": 46.6036,
      "duration": 0.1817,
      "velocity": 98,
      "chip": "ym2612"
    },
    {
      "channel": 2,
      "note": 81,
      "start": 46.8033,
      "duration": 0.182,
      "velocity": 100,
      "chip": "ym2612"
    },
    {
      "channel": 2,
      "note": 40,
      "start": 47.0034,
      "duration": 0.1819,
      "velocity": 98,
      "chip": "ym2612"
    },
    {
      "channel": 3,
      "note": 73,
      "start": 47.0036,
      "duration": 0.1817,
      "velocity": 98,
      "chip": "ym2612"
    },
    {
      "channel": 2,
      "note": 81,
      "start": 47.2033,
      "duration": 0.182,
      "velocity": 100,
      "chip": "ym2612"
    },
    {
      "channel": 2,
      "note": 45,
      "start": 47.4034,
      "duration": 0.182,
      "velocity": 98,
      "chip": "ym2612"
    },
    {
      "channel": 3,
      "note": 73,
      "start": 47.4035,
      "duration": 0.182,
      "velocity": 98,
      "chip": "ym2612"
    },
    {
      "channel": 0,
      "note": 76,
      "start": 47.602,
      "duration": 0.3831,
      "velocity": 86,
      "chip": "ym2612"
    },
    {
      "channel": 1,
      "note": 61,
      "start": 47.6021,
      "duration": 0.3831,
      "velocity": 96,
      "chip": "ym2612"
    },
    {
      "channel": 2,
      "note": 81,
      "start": 47.6037,
      "duration": 0.1815,
      "velocity": 100,
      "chip": "ym2612"
    },
    {
      "channel": 2,
      "note": 40,
      "start": 47.8034,
      "duration": 0.182,
      "velocity": 98,
      "chip": "ym2612"
    },
    {
      "channel": 3,
      "note": 73,
      "start": 47.8037,
      "duration": 0.1818,
      "velocity": 98,
      "chip": "ym2612"
    },
    {
      "channel": 0,
      "note": 73,
      "start": 48.0019,
      "duration": 1.1832,
      "velocity": 86,
      "chip": "ym2612"
    },
    {
      "channel": 1,
      "note": 57,
      "start": 48.0021,
      "duration": 1.1832,
      "velocity": 96,
      "chip": "ym2612"
    },
    {
      "channel": 2,
      "note": 81,
      "start": 48.0036,
      "duration": 0.1817,
      "velocity": 100,
      "chip": "ym2612"
    },
    {
      "channel": 2,
      "note": 35,
      "start": 48.2034,
      "duration": 0.1819,
      "velocity": 98,
      "chip": "ym2612"
    },
    {
      "channel": 3,
      "note": 73,
      "start": 48.2036,
      "duration": 0.1817,
      "velocity": 98,
      "chip": "ym2612"
    },
    {
      "channel": 2,
      "note": 81,
      "start": 48.4034,
      "duration": 0.1819,
      "velocity": 100,
      "chip": "ym2612"
    },
    {
      "channel": 2,
      "note": 42,
      "start": 48.6034,
      "duration": 0.182,
      "velocity": 98,
      "chip": "ym2612"
    },
    {
      "channel": 3,
      "note": 75,
      "start": 48.6036,
      "duration": 0.1818,
      "velocity": 98,
      "chip": "ym2612"
    },
    {
      "channel": 2,
      "note": 81,
      "start": 48.8033,
      "duration": 0.182,
      "velocity": 100,
      "chip": "ym2612"
    },
    {
      "channel": 2,
      "note": 35,
      "start": 49.0034,
      "duration": 0.182,
      "velocity": 98,
      "chip": "ym2612"
    },
    {
      "channel": 3,
      "note": 75,
      "start": 49.0035,
      "duration": 0.182,
      "velocity": 98,
      "chip": "ym2612"
    },
    {
      "channel": 0,
      "note": 75,
      "start": 49.202,
      "duration": 0.3831,
      "velocity": 86,
      "chip": "ym2612"
    },
    {
      "channel": 1,
      "note": 59,
      "start": 49.2021,
      "duration": 0.3831,
      "velocity": 96,
      "chip": "ym2612"
    },
    {
      "channel": 2,
      "note": 81,
      "start": 49.2037,
      "duration": 0.1815,
      "velocity": 100,
      "chip": "ym2612"
    },
    {
      "channel": 2,
      "note": 39,
      "start": 49.4033,
      "duration": 0.1821,
      "velocity": 98,
      "chip": "ym2612"
    },
    {
      "channel": 3,
      "note": 75,
      "start": 49.4035,
      "duration": 0.1819,
      "velocity": 98,
      "chip": "ym2612"
    },
    {
      "channel": 0,
      "note": 71,
      "start": 49.6017,
      "duration": 0.3833,
      "velocity": 86,
      "chip": "ym2612"
    },
    {
      "channel": 1,
      "note": 57,
      "start": 49.602,
      "duration": 0.3832,
      "velocity": 96,
      "chip": "ym2612"
    },
    {
      "channel": 2,
      "note": 81,
      "start": 49.6035,
      "duration": 0.1817,
      "velocity": 100,
      "chip": "ym2612"
    },
    {
      "channel": 2,
      "note": 40,
      "start": 49.8034,
      "duration": 0.182,
      "velocity": 98,
      "chip": "ym2612"
    },
    {
      "channel": 3,
      "note": 75,
      "start": 49.8037,
      "duration": 0.1818,
      "velocity": 98,
      "chip": "ym2612"
    },
    {
      "channel": 0,
      "note": 76,
      "start": 50.0017,
      "duration": 0.3833,
      "velocity": 86,
      "chip": "ym2612"
    },
    {
      "channel": 1,
      "note": 56,
      "start": 50.002,
      "duration": 0.3833,
      "velocity": 96,
      "chip": "ym2612"
    },
    {
      "channel": 2,
      "note": 80,
      "start": 50.0035,
      "duration": 0.1818,
      "velocity": 100,
      "chip": "ym2612"
    },
    {
      "channel": 2,
      "note": 35,
      "start": 50.2034,
      "duration": 0.1821,
      "velocity": 98,
      "chip": "ym2612"
    },
    {
      "channel": 3,
      "note": 76,
      "start": 50.2036,
      "duration": 0.1819,
      "velocity": 98,
      "chip": "ym2612"
    },
    {
      "channel": 0,
      "note": 78,
      "start": 50.4018,
      "duration": 0.3832,
      "velocity": 86,
      "chip": "ym2612"
    },
    {
      "channel": 1,
      "note": 57,
      "start": 50.402,
      "duration": 0.3832,
      "velocity": 96,
      "chip": "ym2612"
    },
    {
      "channel": 2,
      "note": 80,
      "start": 50.4035,
      "duration": 0.1817,
      "velocity": 100,
      "chip": "ym2612"
    },
    {
      "channel": 2,
      "note": 40,
      "start": 50.6034,
      "duration": 0.182,
      "velocity": 98,
      "chip": "ym2612"
    },
    {
      "channel": 3,
      "note": 76,
      "start": 50.6035,
      "duration": 0.182,
      "velocity": 98,
      "chip": "ym2612"
    },
    {
      "channel": 0,
      "note": 79,
      "start": 50.8017,
      "duration": 0.3833,
      "velocity": 86,
      "chip": "ym2612"
    },
    {
      "channel": 1,
      "note": 58,
      "start": 50.802,
      "duration": 0.3832,
      "velocity": 96,
      "chip": "ym2612"
    },
    {
      "channel": 2,
      "note": 80,
      "start": 50.8035,
      "duration": 0.1817,
      "velocity": 100,
      "chip": "ym2612"
    },
    {
      "channel": 2,
      "note": 40,
      "start": 51.0033,
      "duration": 0.1821,
      "velocity": 98,
      "chip": "ym2612"
    },
    {
      "channel": 3,
      "note": 74,
      "start": 51.0035,
      "duration": 0.1819,
      "velocity": 98,
      "chip": "ym2612"
    },
    {
      "channel": 0,
      "note": 80,
      "start": 51.2036,
      "duration": 0.3814,
      "velocity": 86,
      "chip": "ym2612"
    },
    {
      "channel": 2,
      "note": 80,
      "start": 51.2065,
      "duration": 0.1786,
      "velocity": 100,
      "chip": "ym2612"
    },
    {
      "channel": 2,
      "note": 45,
      "start": 51.4031,
      "duration": 0.1821,
      "velocity": 98,
      "chip": "ym2612"
    },
    {
      "channel": 3,
      "note": 74,
      "start": 51.4034,
      "duration": 0.1819,
      "velocity": 98,
      "chip": "ym2612"
    }
  ]
}