{
  "track_name": "03 - Adventure Mode Main Theme",
  "duration_sec": 38.859,
  "sample_rate": 44100,
  "note_count": 548,
  "unique_pitches": 30,
  "pitch_range": 55,
  "avg_note_duration": 0.3297,
  "reconstruction_stats": {
    "notes_reconstructed": 548,
    "keyon_events": 548,
    "keyoff_events": 544,
    "orphan_keyons": 4,
    "unique_pitches": 30,
    "pitch_range": 55,
    "avg_duration_sec": 0.3297
  },
  "metadata": {
    "source": "S\\Shougi no Hoshi\\03 - Adventure Mode Main Theme.vgz"
  },
  "notes": [
    {
      "channel": 0,
      "note": 54,
      "start": 0.0113,
      "duration": 0.3986,
      "velocity": 90,
      "chip": "ym2612"
    },
    {
      "channel": 1,
      "note": 76,
      "start": 0.0152,
      "duration": 0.3955,
      "velocity": 101,
      "chip": "ym2612"
    },
    {
      "channel": 3,
      "note": 76,
      "start": 0.2137,
      "duration": 0.3972,
      "velocity": 101,
      "chip": "ym2612"
    },
    {
      "channel": 4,
      "note": 85,
      "start": 0.2145,
      "duration": 0.1973,
      "velocity": 85,
      "chip": "ym2612"
    },
    {
      "channel": 0,
      "note": 54,
      "start": 0.4105,
      "duration": 0.4,
      "velocity": 90,
      "chip": "ym2612"
    },
    {
      "channel": 1,
      "note": 76,
      "start": 0.4113,
      "duration": 0.3999,
      "velocity": 101,
      "chip": "ym2612"
    },
    {
      "channel": 5,
      "note": 85,
      "start": 0.4127,
      "duration": 0.1997,
      "velocity": 85,
      "chip": "ym2612"
    },
    {
      "channel": 3,
      "note": 76,
      "start": 0.6115,
      "duration": 0.4003,
      "velocity": 101,
      "chip": "ym2612"
    },
    {
      "channel": 4,
      "note": 85,
      "start": 0.6123,
      "duration": 0.2,
      "velocity": 85,
      "chip": "ym2612"
    },
    {
      "channel": 0,
      "note": 54,
      "start": 0.8111,
      "duration": 0.3999,
      "velocity": 90,
      "chip": "ym2612"
    },
    {
      "channel": 1,
      "note": 76,
      "start": 0.8118,
      "duration": 0.1993,
      "velocity": 101,
      "chip": "ym2612"
    },
    {
      "channel": 5,
      "note": 85,
      "start": 0.8132,
      "duration": 0.2001,
      "velocity": 85,
      "chip": "ym2612"
    },
    {
      "channel": 1,
      "note": 78,
      "start": 1.0117,
      "duration": 0.2,
      "velocity": 101,
      "chip": "ym2612"
    },
    {
      "channel": 3,
      "note": 76,
      "start": 1.0124,
      "duration": 0.2,
      "velocity": 101,
      "chip": "ym2612"
    },
    {
      "channel": 4,
      "note": 85,
      "start": 1.0132,
      "duration": 0.2,
      "velocity": 85,
      "chip": "ym2612"
    },
    {
      "channel": 0,
      "note": 54,
      "start": 1.2116,
      "duration": 0.3999,
      "velocity": 90,
      "chip": "ym2612"
    },
    {
      "channel": 1,
      "note": 80,
      "start": 1.2123,
      "duration": 0.1993,
      "velocity": 101,
      "chip": "ym2612"
    },
    {
      "channel": 3,
      "note": 78,
      "start": 1.2131,
      "duration": 0.1993,
      "velocity": 101,
      "chip": "ym2612"
    },
    {
      "channel": 5,
      "note": 85,
      "start": 1.2141,
      "duration": 0.1998,
      "velocity": 85,
      "chip": "ym2612"
    },
    {
      "channel": 1,
      "note": 81,
      "start": 1.4122,
      "duration": 0.3999,
      "velocity": 101,
      "chip": "ym2612"
    },
    {
      "channel": 3,
      "note": 80,
      "start": 1.413,
      "duration": 0.1996,
      "velocity": 101,
      "chip": "ym2612"
    },
    {
      "channel": 4,
      "note": 85,
      "start": 1.4137,
      "duration": 0.3995,
      "velocity": 85,
      "chip": "ym2612"
    },
    {
      "channel": 0,
      "note": 50,
      "start": 1.6121,
      "duration": 0.4,
      "velocity": 90,
      "chip": "ym2612"
    },
    {
      "channel": 3,
      "note": 81,
      "start": 1.6132,
      "duration": 0.3999,
      "velocity": 101,
      "chip": "ym2612"
    },
    {
      "channel": 5,
      "note": 85,
      "start": 1.6143,
      "duration": 0.3998,
      "velocity": 85,
      "chip": "ym2612"
    },
    {
      "channel": 1,
      "note": 81,
      "start": 1.8127,
      "duration": 0.3999,
      "velocity": 101,
      "chip": "ym2612"
    },
    {
      "channel": 4,
      "note": 90,
      "start": 1.8138,
      "duration": 0.2,
      "velocity": 85,
      "chip": "ym2612"
    },
    {
      "channel": 0,
      "note": 50,
      "start": 2.0126,
      "duration": 0.4,
      "velocity": 90,
      "chip": "ym2612"
    },
    {
      "channel": 3,
      "note": 81,
      "start": 2.0137,
      "duration": 0.4003,
      "velocity": 101,
      "chip": "ym2612"
    },
    {
      "channel": 5,
      "note": 90,
      "start": 2.0148,
      "duration": 0.1997,
      "velocity": 85,
      "chip": "ym2612"
    },
    {
      "channel": 1,
      "note": 81,
      "start": 2.2132,
      "duration": 0.2,
      "velocity": 101,
      "chip": "ym2612"
    },
    {
      "channel": 4,
      "note": 90,
      "start": 2.2144,
      "duration": 0.2005,
      "velocity": 85,
      "chip": "ym2612"
    },
    {
      "channel": 0,
      "note": 50,
      "start": 2.4131,
      "duration": 0.4,
      "velocity": 90,
      "chip": "ym2612"
    },
    {
      "channel": 1,
      "note": 81,
      "start": 2.4139,
      "duration": 0.1993,
      "velocity": 101,
      "chip": "ym2612"
    },
    {
      "channel": 3,
      "note": 81,
      "start": 2.4146,
      "duration": 0.1993,
      "velocity": 101,
      "chip": "ym2612"
    },
    {
      "channel": 4,
      "note": 90,
      "start": 2.4154,
      "duration": 0.1993,
      "velocity": 85,
      "chip": "ym2612"
    },
    {
      "channel": 5,
      "note": 90,
      "start": 2.4162,
      "duration": 0.1993,
      "velocity": 85,
      "chip": "ym2612"
    },
    {
      "channel": 1,
      "note": 80,
      "start": 2.6137,
      "duration": 0.2,
      "velocity": 101,
      "chip": "ym2612"
    },
    {
      "channel": 3,
      "note": 81,
      "start": 2.6145,
      "duration": 0.2,
      "velocity": 101,
      "chip": "ym2612"
    },
    {
      "channel": 4,
      "note": 85,
      "start": 2.6153,
      "duration": 0.2,
      "velocity": 85,
      "chip": "ym2612"
    },
    {
      "channel": 5,
      "note": 90,
      "start": 2.616,
      "duration": 0.2,
      "velocity": 85,
      "chip": "ym2612"
    },
    {
      "channel": 0,
      "note": 50,
      "start": 2.8137,
      "duration": 0.3999,
      "velocity": 90,
      "chip": "ym2612"
    },
    {
      "channel": 1,
      "note": 78,
      "start": 2.8144,
      "duration": 0.1993,
      "velocity": 101,
      "chip": "ym2612"
    },
    {
      "channel": 3,
      "note": 80,
      "start": 2.8151,
      "duration": 0.1993,
      "velocity": 101,
      "chip": "ym2612"
    },
    {
      "channel": 4,
      "note": 83,
      "start": 2.8159,
      "duration": 0.1993,
      "velocity": 85,
      "chip": "ym2612"
    },
    {
      "channel": 5,
      "note": 85,
      "start": 2.8166,
      "duration": 0.1993,
      "velocity": 85,
      "chip": "ym2612"
    },
    {
      "channel": 1,
      "note": 76,
      "start": 3.0143,
      "duration": 0.3999,
      "velocity": 101,
      "chip": "ym2612"
    },
    {
      "channel": 3,
      "note": 78,
      "start": 3.015,
      "duration": 0.2,
      "velocity": 101,
      "chip": "ym2612"
    },
    {
      "channel": 4,
      "note": 85,
      "start": 3.0158,
      "duration": 0.2,
      "velocity": 85,
      "chip": "ym2612"
    },
    {
      "channel": 5,
      "note": 83,
      "start": 3.0165,
      "duration": 0.2,
      "velocity": 85,
      "chip": "ym2612"
    },
    {
      "channel": 0,
      "note": 49,
      "start": 3.2141,
      "duration": 0.4,
      "velocity": 90,
      "chip": "ym2612"
    },
    {
      "channel": 3,
      "note": 76,
      "start": 3.2156,
      "duration": 0.3996,
      "velocity": 101,
      "chip": "ym2612"
    },
    {
      "channel": 4,
      "note": 85,
      "start": 3.2163,
      "duration": 0.1993,
      "velocity": 85,
      "chip": "ym2612"
    },
    {
      "channel": 5,
      "note": 85,
      "start": 3.2171,
      "duration": 0.1993,
      "velocity": 85,
      "chip": "ym2612"
    },
    {
      "channel": 1,
      "note": 76,
      "start": 3.4148,
      "duration": 0.3999,
      "velocity": 101,
      "chip": "ym2612"
    },
    {
      "channel": 4,
      "note": 80,
      "start": 3.4162,
      "duration": 0.1997,
      "velocity": 85,
      "chip": "ym2612"
    },
    {
      "channel": 5,
      "note": 85,
      "start": 3.417,
      "duration": 0.1993,
      "velocity": 85,
      "chip": "ym2612"
    },
    {
      "channel": 0,
      "note": 49,
      "start": 3.6147,
      "duration": 0.4,
      "velocity": 90,
      "chip": "ym2612"
    },
    {
      "channel": 3,
      "note": 76,
      "start": 3.6158,
      "duration": 0.4003,
      "velocity": 101,
      "chip": "ym2612"
    },
    {
      "channel": 5,
      "note": 80,
      "start": 3.6168,
      "duration": 0.1997,
      "velocity": 85,
      "chip": "ym2612"
    },
    {
      "channel": 1,
      "note": 76,
      "start": 3.8153,
      "duration": 0.2,
      "velocity": 101,
      "chip": "ym2612"
    },
    {
      "channel": 4,
      "note": 92,
      "start": 3.8164,
      "duration": 0.2004,
      "velocity": 85,
      "chip": "ym2612"
    },
    {
      "channel": 0,
      "note": 49,
      "start": 4.0152,
      "duration": 0.3999,
      "velocity": 90,
      "chip": "ym2612"
    },
    {
      "channel": 1,
      "note": 76,
      "start": 4.0159,
      "duration": 0.1993,
      "velocity": 101,
      "chip": "ym2612"
    },
    {
      "channel": 3,
      "note": 76,
      "start": 4.0167,
      "duration": 0.1993,
      "velocity": 101,
      "chip": "ym2612"
    },
    {
      "channel": 5,
      "note": 92,
      "start": 4.0178,
      "duration": 0.1997,
      "velocity": 85,
      "chip": "ym2612"
    },
    {
      "channel": 1,
      "note": 73,
      "start": 4.2158,
      "duration": 0.2,
      "velocity": 101,
      "chip": "ym2612"
    },
    {
      "channel": 3,
      "note": 76,
      "start": 4.2166,
      "duration": 0.2,
      "velocity": 101,
      "chip": "ym2612"
    },
    {
      "channel": 4,
      "note": 80,
      "start": 4.2173,
      "duration": 0.2,
      "velocity": 85,
      "chip": "ym2612"
    },
    {
      "channel": 0,
      "note": 49,
      "start": 4.4157,
      "duration": 0.4,
      "velocity": 90,
      "chip": "ym2612"
    },
    {
      "channel": 1,
      "note": 71,
      "start": 4.4164,
      "duration": 0.1993,
      "velocity": 101,
      "chip": "ym2612"
    },
    {
      "channel": 3,
      "note": 73,
      "start": 4.4172,
      "duration": 0.1993,
      "velocity": 101,
      "chip": "ym2612"
    },
    {
      "channel": 5,
      "note": 80,
      "start": 4.4183,
      "duration": 0.1998,
      "velocity": 85,
      "chip": "ym2612"
    },
    {
      "channel": 1,
      "note": 73,
      "start": 4.6163,
      "duration": 1.8021,
      "velocity": 101,
      "chip": "ym2612"
    },
    {
      "channel": 3,
      "note": 71,
      "start": 4.6171,
      "duration": 0.2,
      "velocity": 101,
      "chip": "ym2612"
    },
    {
      "channel": 4,
      "note": 92,
      "start": 4.6178,
      "duration": 0.3995,
      "velocity": 85,
      "chip": "ym2612"
    },
    {
      "channel": 0,
      "note": 50,
      "start": 4.8162,
      "duration": 0.4,
      "velocity": 90,
      "chip": "ym2612"
    },
    {
      "channel": 3,
      "note": 73,
      "start": 4.8177,
      "duration": 1.801,
      "velocity": 101,
      "chip": "ym2612"
    },
    {
      "channel": 5,
      "note": 92,
      "start": 4.8188,
      "duration": 0.3991,
      "velocity": 85,
      "chip": "ym2612"
    },
    {
      "channel": 4,
      "note": 90,
      "start": 5.0179,
      "duration": 0.1997,
      "velocity": 85,
      "chip": "ym2612"
    },
    {
      "channel": 0,
      "note": 50,
      "start": 5.2167,
      "duration": 0.3999,
      "velocity": 90,
      "chip": "ym2612"
    },
    {
      "channel": 5,
      "note": 90,
      "start": 5.2185,
      "duration": 0.1997,
      "velocity": 85,
      "chip": "ym2612"
    },
    {
      "channel": 4,
      "note": 90,
      "start": 5.418,
      "duration": 0.2,
      "velocity": 85,
      "chip": "ym2612"
    },
    {
      "channel": 0,
      "note": 50,
      "start": 5.6173,
      "duration": 0.3999,
      "velocity": 90,
      "chip": "ym2612"
    },
    {
      "channel": 4,
      "note": 90,
      "start": 5.6187,
      "duration": 0.1993,
      "velocity": 85,
      "chip": "ym2612"
    },
    {
      "channel": 5,
      "note": 90,
      "start": 5.6195,
      "duration": 0.1993,
      "velocity": 85,
      "chip": "ym2612"
    },
    {
      "channel": 4,
      "note": 85,
      "start": 5.8186,
      "duration": 0.2,
      "velocity": 85,
      "chip": "ym2612"
    },
    {
      "channel": 5,
      "note": 90,
      "start": 5.8193,
      "duration": 0.2,
      "velocity": 85,
      "chip": "ym2612"
    },
    {
      "channel": 0,
      "note": 50,
      "start": 6.0178,
      "duration": 0.4,
      "velocity": 90,
      "chip": "ym2612"
    },
    {
      "channel": 4,
      "note": 83,
      "start": 6.0192,
      "duration": 0.1993,
      "velocity": 85,
      "chip": "ym2612"
    },
    {
      "channel": 5,
      "note": 85,
      "start": 6.02,
      "duration": 0.1993,
      "velocity": 85,
      "chip": "ym2612"
    },
    {
      "channel": 4,
      "note": 85,
      "start": 6.2191,
      "duration": 0.2005,
      "velocity": 85,
      "chip": "ym2612"
    },
    {
      "channel": 5,
      "note": 83,
      "start": 6.2198,
      "duration": 0.2005,
      "velocity": 85,
      "chip": "ym2612"
    },
    {
      "channel": 0,
      "note": 49,
      "start": 6.4183,
      "duration": 0.6002,
      "velocity": 90,
      "chip": "ym2612"
    },
    {
      "channel": 1,
      "note": 76,
      "start": 6.419,
      "duration": 0.3995,
      "velocity": 101,
      "chip": "ym2612"
    },
    {
      "channel": 4,
      "note": 85,
      "start": 6.4202,
      "duration": 0.3995,
      "velocity": 85,
      "chip": "ym2612"
    },
    {
      "channel": 5,
      "note": 85,
      "start": 6.4209,
      "duration": 0.1988,
      "velocity": 85,
      "chip": "ym2612"
    },
    {
      "channel": 3,
      "note": 76,
      "start": 6.6193,
      "duration": 0.4003,
      "velocity": 101,
      "chip": "ym2612"
    },
    {
      "channel": 5,
      "note": 85,
      "start": 6.6204,
      "duration": 0.4003,
      "velocity": 85,
      "chip": "ym2612"
    },
    {
      "channel": 1,
      "note": 76,
      "start": 6.8192,
      "duration": 0.4003,
      "velocity": 101,
      "chip": "ym2612"
    },
    {
      "channel": 4,
      "note": 85,
      "start": 6.8202,
      "duration": 0.4003,
      "velocity": 85,
      "chip": "ym2612"
    },
    {
      "channel": 0,
      "note": 49,
      "start": 7.0191,
      "duration": 0.1997,
      "velocity": 90,
      "chip": "ym2612"
    },
    {
      "channel": 3,
      "note": 76,
      "start": 7.0202,
      "duration": 0.3999,
      "velocity": 101,
      "chip": "ym2612"
    },
    {
      "channel": 5,
      "note": 85,
      "start": 7.0213,
      "duration": 0.4003,
      "velocity": 85,
      "chip": "ym2612"
    },
    {
      "channel": 0,
      "note": 49,
      "start": 7.2193,
      "duration": 0.6002,
      "velocity": 90,
      "chip": "ym2612"
    },
    {
      "channel": 1,
      "note": 76,
      "start": 7.2201,
      "duration": 0.1993,
      "velocity": 101,
      "chip": "ym2612"
    },
    {
      "channel": 4,
      "note": 85,
      "start": 7.2212,
      "duration": 0.1996,
      "velocity": 85,
      "chip": "ym2612"
    },
    {
      "channel": 1,
      "note": 78,
      "start": 7.4199,
      "duration": 0.1997,
      "velocity": 101,
      "chip": "ym2612"
    },
    {
      "channel": 3,
      "note": 76,
      "start": 7.4207,
      "duration": 0.1997,
      "velocity": 101,
      "chip": "ym2612"
    },
    {
      "channel": 4,
      "note": 85,
      "start": 7.4215,
      "duration": 0.1996,
      "velocity": 85,
      "chip": "ym2612"
    },
    {
      "channel": 5,
      "note": 85,
      "start": 7.4222,
      "duration": 0.1996,
      "velocity": 85,
      "chip": "ym2612"
    },
    {
      "channel": 1,
      "note": 80,
      "start": 7.6202,
      "duration": 0.2001,
      "velocity": 101,
      "chip": "ym2612"
    },
    {
      "channel": 3,
      "note": 78,
      "start": 7.6209,
      "duration": 0.2001,
      "velocity": 101,
      "chip": "ym2612"
    },
    {
      "channel": 4,
      "note": 88,
      "start": 7.6217,
      "duration": 0.2,
      "velocity": 85,
      "chip": "ym2612"
    },
    {
      "channel": 5,
      "note": 85,
      "start": 7.6224,
      "duration": 0.2001,
      "velocity": 85,
      "chip": "ym2612"
    },
    {
      "channel": 0,
      "note": 50,
      "start": 7.8201,
      "duration": 0.3999,
      "velocity": 90,
      "chip": "ym2612"
    },
    {
      "channel": 1,
      "note": 81,
      "start": 7.8208,
      "duration": 0.1993,
      "velocity": 101,
      "chip": "ym2612"
    },
    {
      "channel": 3,
      "note": 80,
      "start": 7.8216,
      "duration": 0.1988,
      "velocity": 101,
      "chip": "ym2612"
    },
    {
      "channel": 4,
      "note": 90,
      "start": 7.8224,
      "duration": 0.1988,
      "velocity": 85,
      "chip": "ym2612"
    },
    {
      "channel": 5,
      "note": 88,
      "start": 7.8231,
      "duration": 0.1984,
      "velocity": 85,
      "chip": "ym2612"
    },
    {
      "channel": 3,
      "note": 81,
      "start": 8.021,
      "duration": 0.2005,
      "velocity": 101,
      "chip": "ym2612"
    },
    {
      "channel": 5,
      "note": 90,
      "start": 8.0221,
      "duration": 0.2005,
      "velocity": 85,
      "chip": "ym2612"
    },
    {
      "channel": 0,
      "note": 62,
      "start": 8.2206,
      "duration": 0.3999,
      "velocity": 90,
      "chip": "ym2612"
    },
    {
      "channel": 1,
      "note": 81,
      "start": 8.2214,
      "duration": 0.1993,
      "velocity": 101,
      "chip": "ym2612"
    },
    {
      "channel": 4,
      "note": 90,
      "start": 8.2224,
      "duration": 0.1993,
      "velocity": 85,
      "chip": "ym2612"
    },
    {
      "channel": 3,
      "note": 81,
      "start": 8.4215,
      "duration": 0.2005,
      "velocity": 101,
      "chip": "ym2612"
    },
    {
      "channel": 5,
      "note": 90,
      "start": 8.4226,
      "duration": 0.2005,
      "velocity": 85,
      "chip": "ym2612"
    },
    {
      "channel": 0,
      "note": 62,
      "start": 8.6211,
      "duration": 0.1997,
      "velocity": 90,
      "chip": "ym2612"
    },
    {
      "channel": 1,
      "note": 81,
      "start": 8.6219,
      "duration": 0.1997,
      "velocity": 101,
      "chip": "ym2612"
    },
    {
      "channel": 4,
      "note": 90,
      "start": 8.623,
      "duration": 0.2001,
      "velocity": 85,
      "chip": "ym2612"
    },
    {
      "channel": 0,
      "note": 62,
      "start": 8.8214,
      "duration": 0.6002,
      "velocity": 90,
      "chip": "ym2612"
    },
    {
      "channel": 1,
      "note": 85,
      "start": 8.8222,
      "duration": 0.3995,
      "velocity": 101,
      "chip": "ym2612"
    },
    {
      "channel": 3,
      "note": 81,
      "start": 8.8229,
      "duration": 0.1988,
      "velocity": 101,
      "chip": "ym2612"
    },
    {
      "channel": 4,
      "note": 93,
      "start": 8.8237,
      "duration": 0.3991,
      "velocity": 85,
      "chip": "ym2612"
    },
    {
      "channel": 5,
      "note": 90,
      "start": 8.8245,
      "duration": 0.1984,
      "velocity": 85,
      "chip": "ym2612"
    },
    {
      "channel": 3,
      "note": 85,
      "start": 9.0224,
      "duration": 0.4007,
      "velocity": 101,
      "chip": "ym2612"
    },
    {
      "channel": 5,
      "note": 93,
      "start": 9.0235,
      "duration": 0.4011,
      "velocity": 85,
      "chip": "ym2612"
    },
    {
      "channel": 1,
      "note": 81,
      "start": 9.2223,
      "duration": 0.2,
      "velocity": 101,
      "chip": "ym2612"
    },
    {
      "channel": 4,
      "note": 90,
      "start": 9.2234,
      "duration": 0.2004,
      "velocity": 85,
      "chip": "ym2612"
    },
    {
      "channel": 0,
      "note": 47,
      "start": 9.4222,
      "duration": 0.3999,
      "velocity": 90,
      "chip": "ym2612"
    },
    {
      "channel": 1,
      "note": 80,
      "start": 9.4229,
      "duration": 0.1993,
      "velocity": 101,
      "chip": "ym2612"
    },
    {
      "channel": 3,
      "note": 81,
      "start": 9.4237,
      "duration": 0.1988,
      "velocity": 101,
      "chip": "ym2612"
    },
    {
      "channel": 4,
      "note": 88,
      "start": 9.4244,
      "duration": 0.1988,
      "velocity": 85,
      "chip": "ym2612"
    },
    {
      "channel": 5,
      "note": 90,
      "start": 9.4252,
      "duration": 0.1983,
      "velocity": 85,
      "chip": "ym2612"
    },
    {
      "channel": 3,
      "note": 80,
      "start": 9.6231,
      "duration": 0.2005,
      "velocity": 101,
      "chip": "ym2612"
    },
    {
      "channel": 5,
      "note": 88,
      "start": 9.6241,
      "duration": 0.2005,
      "velocity": 85,
      "chip": "ym2612"
    },
    {
      "channel": 0,
      "note": 47,
      "start": 9.8227,
      "duration": 0.4,
      "velocity": 90,
      "chip": "ym2612"
    },
    {
      "channel": 1,
      "note": 81,
      "start": 9.8234,
      "duration": 0.1993,
      "velocity": 101,
      "chip": "ym2612"
    },
    {
      "channel": 4,
      "note": 90,
      "start": 9.8245,
      "duration": 0.1993,
      "velocity": 85,
      "chip": "ym2612"
    },
    {
      "channel": 3,
      "note": 81,
      "start": 10.0236,
      "duration": 0.2005,
      "velocity": 101,
      "chip": "ym2612"
    },
    {
      "channel": 5,
      "note": 90,
      "start": 10.0247,
      "duration": 0.2005,
      "velocity": 85,
      "chip": "ym2612"
    },
    {
      "channel": 0,
      "note": 47,
      "start": 10.2232,
      "duration": 0.1997,
      "velocity": 90,
      "chip": "ym2612"
    },
    {
      "channel": 1,
      "note": 81,
      "start": 10.2239,
      "duration": 0.1997,
      "velocity": 101,
      "chip": "ym2612"
    },
    {
      "channel": 4,
      "note": 90,
      "start": 10.225,
      "duration": 0.2001,
      "velocity": 85,
      "chip": "ym2612"
    },
    {
      "channel": 0,
      "note": 47,
      "start": 10.4234,
      "duration": 0.8005,
      "velocity": 90,
      "chip": "ym2612"
    },
    {
      "channel": 1,
      "note": 85,
      "start": 10.4242,
      "duration": 0.3995,
      "velocity": 101,
      "chip": "ym2612"
    },
    {
      "channel": 3,
      "note": 81,
      "start": 10.425,
      "duration": 0.1988,
      "velocity": 101,
      "chip": "ym2612"
    },
    {
      "channel": 4,
      "note": 93,
      "start": 10.4258,
      "duration": 0.3991,
      "velocity": 85,
      "chip": "ym2612"
    },
    {
      "channel": 5,
      "note": 90,
      "start": 10.4265,
      "duration": 0.1984,
      "velocity": 85,
      "chip": "ym2612"
    },
    {
      "channel": 3,
      "note": 85,
      "start": 10.6244,
      "duration": 0.4003,
      "velocity": 101,
      "chip": "ym2612"
    },
    {
      "channel": 5,
      "note": 93,
      "start": 10.6256,
      "duration": 0.4007,
      "velocity": 85,
      "chip": "ym2612"
    },
    {
      "channel": 1,
      "note": 81,
      "start": 10.8243,
      "duration": 0.1997,
      "velocity": 101,
      "chip": "ym2612"
    },
    {
      "channel": 4,
      "note": 90,
      "start": 10.8255,
      "duration": 0.2,
      "velocity": 85,
      "chip": "ym2612"
    },
    {
      "channel": 1,
      "note": 80,
      "start": 11.0246,
      "duration": 0.2,
      "velocity": 101,
      "chip": "ym2612"
    },
    {
      "channel": 3,
      "note": 81,
      "start": 11.0254,
      "duration": 0.2,
      "velocity": 101,
      "chip": "ym2612"
    },
    {
      "channel": 4,
      "note": 88,
      "start": 11.0261,
      "duration": 1.0007,
      "velocity": 85,
      "chip": "ym2612"
    },
    {
      "channel": 5,
      "note": 90,
      "start": 11.0269,
      "duration": 0.2,
      "velocity": 85,
      "chip": "ym2612"
    },
    {
      "channel": 0,
      "note": 52,
      "start": 11.2245,
      "duration": 0.8005,
      "velocity": 90,
      "chip": "ym2612"
    },
    {
      "channel": 1,
      "note": 80,
      "start": 11.2252,
      "duration": 0.8004,
      "velocity": 101,
      "chip": "ym2612"
    },
    {
      "channel": 3,
      "note": 80,
      "start": 11.226,
      "duration": 0.1988,
      "velocity": 101,
      "chip": "ym2612"
    },
    {
      "channel": 5,
      "note": 88,
      "start": 11.2275,
      "duration": 0.9995,
      "velocity": 85,
      "chip": "ym2612"
    },
    {
      "channel": 3,
      "note": 80,
      "start": 11.4254,
      "duration": 0.8004,
      "velocity": 101,
      "chip": "ym2612"
    },
    {
      "channel": 0,
      "note": 53,
      "start": 12.0255,
      "duration": 0.8005,
      "velocity": 90,
      "chip": "ym2612"
    },
    {
      "channel": 1,
      "note": 81,
      "start": 12.0263,
      "duration": 0.3995,
      "velocity": 101,
      "chip": "ym2612"
    },
    {
      "channel": 4,
      "note": 97,
      "start": 12.0274,
      "duration": 0.3995,
      "velocity": 85,
      "chip": "ym2612"
    },
    {
      "channel": 3,
      "note": 81,
      "start": 12.2265,
      "duration": 0.3999,
      "velocity": 101,
      "chip": "ym2612"
    },
    {
      "channel": 5,
      "note": 97,
      "start": 12.2276,
      "duration": 0.3999,
      "velocity": 85,
      "chip": "ym2612"
    },
    {
      "channel": 1,
      "note": 80,
      "start": 12.4264,
      "duration": 0.4003,
      "velocity": 101,
      "chip": "ym2612"
    },
    {
      "channel": 4,
      "note": 95,
      "start": 12.4275,
      "duration": 0.4003,
      "velocity": 85,
      "chip": "ym2612"
    },
    {
      "channel": 3,
      "note": 80,
      "start": 12.627,
      "duration": 0.3999,
      "velocity": 101,
      "chip": "ym2612"
    },
    {
      "channel": 5,
      "note": 95,
      "start": 12.6281,
      "duration": 0.3999,
      "velocity": 85,
      "chip": "ym2612"
    },
    {
      "channel": 0,
      "note": 54,
      "start": 12.8266,
      "duration": 0.3999,
      "velocity": 90,
      "chip": "ym2612"
    },
    {
      "channel": 1,
      "note": 80,
      "start": 12.8273,
      "duration": 0.1993,
      "velocity": 101,
      "chip": "ym2612"
    },
    {
      "channel": 4,
      "note": 85,
      "start": 12.8284,
      "duration": 1.4016,
      "velocity": 85,
      "chip": "ym2612"
    },
    {
      "channel": 3,
      "note": 80,
      "start": 13.0275,
      "duration": 0.2005,
      "velocity": 101,
      "chip": "ym2612"
    },
    {
      "channel": 5,
      "note": 85,
      "start": 13.0286,
      "duration": 1.4012,
      "velocity": 85,
      "chip": "ym2612"
    },
    {
      "channel": 0,
      "note": 49,
      "start": 13.2271,
      "duration": 0.3999,
      "velocity": 90,
      "chip": "ym2612"
    },
    {
      "channel": 1,
      "note": 81,
      "start": 13.2278,
      "duration": 0.1993,
      "velocity": 101,
      "chip": "ym2612"
    },
    {
      "channel": 3,
      "note": 81,
      "start": 13.428,
      "duration": 0.2005,
      "velocity": 101,
      "chip": "ym2612"
    },
    {
      "channel": 0,
      "note": 54,
      "start": 13.6276,
      "duration": 0.3999,
      "velocity": 90,
      "chip": "ym2612"
    },
    {
      "channel": 1,
      "note": 80,
      "start": 13.6283,
      "duration": 0.1993,
      "velocity": 101,
      "chip": "ym2612"
    },
    {
      "channel": 3,
      "note": 80,
      "start": 13.8285,
      "duration": 0.2005,
      "velocity": 101,
      "chip": "ym2612"
    },
    {
      "channel": 0,
      "note": 49,
      "start": 14.0281,
      "duration": 0.1997,
      "velocity": 90,
      "chip": "ym2612"
    },
    {
      "channel": 1,
      "note": 81,
      "start": 14.0288,
      "duration": 0.1996,
      "velocity": 101,
      "chip": "ym2612"
    },
    {
      "channel": 0,
      "note": 50,
      "start": 14.2283,
      "duration": 0.1997,
      "velocity": 90,
      "chip": "ym2612"
    },
    {
      "channel": 1,
      "note": 83,
      "start": 14.2291,
      "duration": 0.3999,
      "velocity": 101,
      "chip": "ym2612"
    },
    {
      "channel": 3,
      "note": 81,
      "start": 14.2299,
      "duration": 0.1988,
      "velocity": 101,
      "chip": "ym2612"
    },
    {
      "channel": 4,
      "note": 90,
      "start": 14.2306,
      "duration": 1.601,
      "velocity": 85,
      "chip": "ym2612"
    },
    {
      "channel": 3,
      "note": 83,
      "start": 14.4293,
      "duration": 0.4007,
      "velocity": 101,
      "chip": "ym2612"
    },
    {
      "channel": 5,
      "note": 90,
      "start": 14.4304,
      "duration": 1.6027,
      "velocity": 85,
      "chip": "ym2612"
    },
    {
      "channel": 0,
      "note": 50,
      "start": 14.6288,
      "duration": 0.1997,
      "velocity": 90,
      "chip": "ym2612"
    },
    {
      "channel": 1,
      "note": 83,
      "start": 14.6296,
      "duration": 0.1997,
      "velocity": 101,
      "chip": "ym2612"
    },
    {
      "channel": 0,
      "note": 45,
      "start": 14.8291,
      "duration": 0.3999,
      "velocity": 90,
      "chip": "ym2612"
    },
    {
      "channel": 1,
      "note": 85,
      "start": 14.8299,
      "duration": 0.3999,
      "velocity": 101,
      "chip": "ym2612"
    },
    {
      "channel": 3,
      "note": 83,
      "start": 14.8307,
      "duration": 0.1988,
      "velocity": 101,
      "chip": "ym2612"
    },
    {
      "channel": 3,
      "note": 85,
      "start": 15.0301,
      "duration": 0.4003,
      "velocity": 101,
      "chip": "ym2612"
    },
    {
      "channel": 0,
      "note": 50,
      "start": 15.2296,
      "duration": 0.4,
      "velocity": 90,
      "chip": "ym2612"
    },
    {
      "channel": 1,
      "note": 83,
      "start": 15.2304,
      "duration": 0.1993,
      "velocity": 101,
      "chip": "ym2612"
    },
    {
      "channel": 1,
      "note": 85,
      "start": 15.4302,
      "duration": 0.2,
      "velocity": 101,
      "chip": "ym2612"
    },
    {
      "channel": 3,
      "note": 83,
      "start": 15.431,
      "duration": 0.2,
      "velocity": 101,
      "chip": "ym2612"
    },
    {
      "channel": 0,
      "note": 45,
      "start": 15.6301,
      "duration": 0.4,
      "velocity": 90,
      "chip": "ym2612"
    },
    {
      "channel": 1,
      "note": 83,
      "start": 15.6309,
      "duration": 0.1993,
      "velocity": 101,
      "chip": "ym2612"
    },
    {
      "channel": 3,
      "note": 85,
      "start": 15.6317,
      "duration": 0.1993,
      "velocity": 101,
      "chip": "ym2612"
    },
    {
      "channel": 1,
      "note": 81,
      "start": 15.8308,
      "duration": 0.2,
      "velocity": 101,
      "chip": "ym2612"
    },
    {
      "channel": 3,
      "note": 83,
      "start": 15.8315,
      "duration": 0.2001,
      "velocity": 101,
      "chip": "ym2612"
    },
    {
      "channel": 4,
      "note": 85,
      "start": 15.8323,
      "duration": 0.0653,
      "velocity": 85,
      "chip": "ym2612"
    },
    {
      "channel": 4,
      "note": 83,
      "start": 15.8982,
      "duration": 0.0662,
      "velocity": 85,
      "chip": "ym2612"
    },
    {
      "channel": 4,
      "note": 81,
      "start": 15.965,
      "duration": 0.0674,
      "velocity": 85,
      "chip": "ym2612"
    },
    {
      "channel": 0,
      "note": 54,
      "start": 16.0307,
      "duration": 0.3999,
      "velocity": 90,
      "chip": "ym2612"
    },
    {
      "channel": 1,
      "note": 80,
      "start": 16.0314,
      "duration": 0.1993,
      "velocity": 101,
      "chip": "ym2612"
    },
    {
      "channel": 3,
      "note": 81,
      "start": 16.0322,
      "duration": 0.1988,
      "velocity": 101,
      "chip": "ym2612"
    },
    {
      "channel": 4,
      "note": 85,
      "start": 16.0329,
      "duration": 1.8012,
      "velocity": 85,
      "chip": "ym2612"
    },
    {
      "channel": 5,
      "note": 85,
      "start": 16.0337,
      "duration": 0.0645,
      "velocity": 85,
      "chip": "ym2612"
    },
    {
      "channel": 5,
      "note": 83,
      "start": 16.0988,
      "duration": 0.0661,
      "velocity": 85,
      "chip": "ym2612"
    },
    {
      "channel": 5,
      "note": 81,
      "start": 16.1656,
      "duration": 0.0665,
      "velocity": 85,
      "chip": "ym2612"
    },
    {
      "channel": 3,
      "note": 80,
      "start": 16.2316,
      "duration": 0.2005,
      "velocity": 101,
      "chip": "ym2612"
    },
    {
      "channel": 5,
      "note": 85,
      "start": 16.2327,
      "duration": 1.8021,
      "velocity": 85,
      "chip": "ym2612"
    },
    {
      "channel": 0,
      "note": 49,
      "start": 16.4312,
      "duration": 0.3999,
      "velocity": 90,
      "chip": "ym2612"
    },
    {
      "channel": 1,
      "note": 81,
      "start": 16.4319,
      "duration": 0.1993,
      "velocity": 101,
      "chip": "ym2612"
    },
    {
      "channel": 3,
      "note": 81,
      "start": 16.6321,
      "duration": 0.2005,
      "velocity": 101,
      "chip": "ym2612"
    },
    {
      "channel": 0,
      "note": 54,
      "start": 16.8317,
      "duration": 0.4,
      "velocity": 90,
      "chip": "ym2612"
    },
    {
      "channel": 1,
      "note": 80,
      "start": 16.8324,
      "duration": 0.1993,
      "velocity": 101,
      "chip": "ym2612"
    },
    {
      "channel": 3,
      "note": 80,
      "start": 17.0326,
      "duration": 0.2005,
      "velocity": 101,
      "chip": "ym2612"
    },
    {
      "channel": 0,
      "note": 49,
      "start": 17.2322,
      "duration": 0.1997,
      "velocity": 90,
      "chip": "ym2612"
    },
    {
      "channel": 1,
      "note": 81,
      "start": 17.233,
      "duration": 0.1996,
      "velocity": 101,
      "chip": "ym2612"
    },
    {
      "channel": 0,
      "note": 50,
      "start": 17.4325,
      "duration": 0.1997,
      "velocity": 90,
      "chip": "ym2612"
    },
    {
      "channel": 1,
      "note": 83,
      "start": 17.4332,
      "duration": 1.8017,
      "velocity": 101,
      "chip": "ym2612"
    },
    {
      "channel": 3,
      "note": 81,
      "start": 17.434,
      "duration": 0.1992,
      "velocity": 101,
      "chip": "ym2612"
    },
    {
      "channel": 3,
      "note": 83,
      "start": 17.6338,
      "duration": 1.8013,
      "velocity": 101,
      "chip": "ym2612"
    },
    {
      "channel": 0,
      "note": 50,
      "start": 17.833,
      "duration": 0.1997,
      "velocity": 90,
      "chip": "ym2612"
    },
    {
      "channel": 4,
      "note": 88,
      "start": 17.8348,
      "duration": 0.1993,
      "velocity": 85,
      "chip": "ym2612"
    },
    {
      "channel": 0,
      "note": 45,
      "start": 18.0332,
      "duration": 0.3999,
      "velocity": 90,
      "chip": "ym2612"
    },
    {
      "channel": 4,
      "note": 85,
      "start": 18.0347,
      "duration": 0.1993,
      "velocity": 85,
      "chip": "ym2612"
    },
    {
      "channel": 5,
      "note": 88,
      "start": 18.0355,
      "duration": 0.1993,
      "velocity": 85,
      "chip": "ym2612"
    },
    {
      "channel": 4,
      "note": 83,
      "start": 18.2346,
      "duration": 0.2,
      "velocity": 85,
      "chip": "ym2612"
    },
    {
      "channel": 5,
      "note": 85,
      "start": 18.2353,
      "duration": 0.2,
      "velocity": 85,
      "chip": "ym2612"
    },
    {
      "channel": 0,
      "note": 50,
      "start": 18.4337,
      "duration": 0.4,
      "velocity": 90,
      "chip": "ym2612"
    },
    {
      "channel": 4,
      "note": 85,
      "start": 18.4352,
      "duration": 0.1993,
      "velocity": 85,
      "chip": "ym2612"
    },
    {
      "channel": 5,
      "note": 83,
      "start": 18.436,
      "duration": 0.1993,
      "velocity": 85,
      "chip": "ym2612"
    },
    {
      "channel": 4,
      "note": 88,
      "start": 18.6351,
      "duration": 0.2,
      "velocity": 85,
      "chip": "ym2612"
    },
    {
      "channel": 5,
      "note": 85,
      "start": 18.6358,
      "duration": 0.2,
      "velocity": 85,
      "chip": "ym2612"
    },
    {
      "channel": 0,
      "note": 45,
      "start": 18.8343,
      "duration": 0.4,
      "velocity": 90,
      "chip": "ym2612"
    },
    {
      "channel": 4,
      "note": 85,
      "start": 18.8357,
      "duration": 0.1993,
      "velocity": 85,
      "chip": "ym2612"
    },
    {
      "channel": 5,
      "note": 88,
      "start": 18.8365,
      "duration": 0.1993,
      "velocity": 85,
      "chip": "ym2612"
    },
    {
      "channel": 4,
      "note": 83,
      "start": 19.0356,
      "duration": 0.2005,
      "velocity": 85,
      "chip": "ym2612"
    },
    {
      "channel": 5,
      "note": 85,
      "start": 19.0363,
      "duration": 0.2005,
      "velocity": 85,
      "chip": "ym2612"
    },
    {
      "channel": 0,
      "note": 47,
      "start": 19.2348,
      "duration": 0.3999,
      "velocity": 90,
      "chip": "ym2612"
    },
    {
      "channel": 1,
      "note": 80,
      "start": 19.2356,
      "duration": 0.1993,
      "velocity": 101,
      "chip": "ym2612"
    },
    {
      "channel": 4,
      "note": 85,
      "start": 19.2367,
      "duration": 0.1992,
      "velocity": 85,
      "chip": "ym2612"
    },
    {
      "channel": 5,
      "note": 83,
      "start": 19.2374,
      "duration": 0.1988,
      "velocity": 85,
      "chip": "ym2612"
    },
    {
      "channel": 3,
      "note": 80,
      "start": 19.4357,
      "duration": 0.2005,
      "velocity": 101,
      "chip": "ym2612"
    },
    {
      "channel": 5,
      "note": 85,
      "start": 19.4368,
      "duration": 0.2005,
      "velocity": 85,
      "chip": "ym2612"
    },
    {
      "channel": 0,
      "note": 47,
      "start": 19.6353,
      "duration": 0.3999,
      "velocity": 90,
      "chip": "ym2612"
    },
    {
      "channel": 1,
      "note": 81,
      "start": 19.6361,
      "duration": 0.1993,
      "velocity": 101,
      "chip": "ym2612"
    },
    {
      "channel": 4,
      "note": 86,
      "start": 19.6371,
      "duration": 0.1993,
      "velocity": 85,
      "chip": "ym2612"
    },
    {
      "channel": 3,
      "note": 81,
      "start": 19.8363,
      "duration": 0.2005,
      "velocity": 101,
      "chip": "ym2612"
    },
    {
      "channel": 5,
      "note": 86,
      "start": 19.8373,
      "duration": 0.2005,
      "velocity": 85,
      "chip": "ym2612"
    },
    {
      "channel": 0,
      "note": 47,
      "start": 20.0358,
      "duration": 0.4,
      "velocity": 90,
      "chip": "ym2612"
    },
    {
      "channel": 1,
      "note": 80,
      "start": 20.0366,
      "duration": 0.1993,
      "velocity": 101,
      "chip": "ym2612"
    },
    {
      "channel": 4,
      "note": 85,
      "start": 20.0376,
      "duration": 0.1993,
      "velocity": 85,
      "chip": "ym2612"
    },
    {
      "channel": 3,
      "note": 80,
      "start": 20.2368,
      "duration": 0.2005,
      "velocity": 101,
      "chip": "ym2612"
    },
    {
      "channel": 5,
      "note": 85,
      "start": 20.2378,
      "duration": 0.2005,
      "velocity": 85,
      "chip": "ym2612"
    },
    {
      "channel": 0,
      "note": 47,
      "start": 20.4363,
      "duration": 0.1997,
      "velocity": 90,
      "chip": "ym2612"
    },
    {
      "channel": 1,
      "note": 81,
      "start": 20.4371,
      "duration": 0.1997,
      "velocity": 101,
      "chip": "ym2612"
    },
    {
      "channel": 4,
      "note": 86,
      "start": 20.4382,
      "duration": 0.2001,
      "velocity": 85,
      "chip": "ym2612"
    },
    {
      "channel": 0,
      "note": 49,
      "start": 20.6366,
      "duration": 0.6002,
      "velocity": 90,
      "chip": "ym2612"
    },
    {
      "channel": 1,
      "note": 83,
      "start": 20.6374,
      "duration": 0.3995,
      "velocity": 101,
      "chip": "ym2612"
    },
    {
      "channel": 3,
      "note": 81,
      "start": 20.6381,
      "duration": 0.1988,
      "velocity": 101,
      "chip": "ym2612"
    },
    {
      "channel": 4,
      "note": 88,
      "start": 20.6389,
      "duration": 0.1988,
      "velocity": 85,
      "chip": "ym2612"
    },
    {
      "channel": 5,
      "note": 86,
      "start": 20.6396,
      "duration": 0.1988,
      "velocity": 85,
      "chip": "ym2612"
    },
    {
      "channel": 3,
      "note": 83,
      "start": 20.8376,
      "duration": 0.4007,
      "velocity": 101,
      "chip": "ym2612"
    },
    {
      "channel": 4,
      "note": 88,
      "start": 20.8383,
      "duration": 0.1996,
      "velocity": 85,
      "chip": "ym2612"
    },
    {
      "channel": 5,
      "note": 88,
      "start": 20.8391,
      "duration": 0.1997,
      "velocity": 85,
      "chip": "ym2612"
    },
    {
      "channel": 1,
      "note": 83,
      "start": 21.0375,
      "duration": 0.2,
      "velocity": 101,
      "chip": "ym2612"
    },
    {
      "channel": 4,
      "note": 88,
      "start": 21.0386,
      "duration": 0.2005,
      "velocity": 85,
      "chip": "ym2612"
    },
    {
      "channel": 5,
      "note": 88,
      "start": 21.0393,
      "duration": 0.2005,
      "velocity": 85,
      "chip": "ym2612"
    },
    {
      "channel": 0,
      "note": 49,
      "start": 21.2374,
      "duration": 0.3999,
      "velocity": 90,
      "chip": "ym2612"
    },
    {
      "channel": 1,
      "note": 85,
      "start": 21.2381,
      "duration": 0.3999,
      "velocity": 101,
      "chip": "ym2612"
    },
    {
      "channel": 3,
      "note": 83,
      "start": 21.2389,
      "duration": 0.1988,
      "velocity": 101,
      "chip": "ym2612"
    },
    {
      "channel": 4,
      "note": 90,
      "start": 21.2397,
      "duration": 0.3995,
      "velocity": 85,
      "chip": "ym2612"
    },
    {
      "channel": 5,
      "note": 88,
      "start": 21.2404,
      "duration": 0.1984,
      "velocity": 85,
      "chip": "ym2612"
    },
    {
      "channel": 3,
      "note": 85,
      "start": 21.4383,
      "duration": 0.4003,
      "velocity": 101,
      "chip": "ym2612"
    },
    {
      "channel": 5,
      "note": 90,
      "start": 21.4395,
      "duration": 0.4007,
      "velocity": 85,
      "chip": "ym2612"
    },
    {
      "channel": 0,
      "note": 49,
      "start": 21.6379,
      "duration": 0.4,
      "velocity": 90,
      "chip": "ym2612"
    },
    {
      "channel": 1,
      "note": 83,
      "start": 21.6386,
      "duration": 0.1993,
      "velocity": 101,
      "chip": "ym2612"
    },
    {
      "channel": 4,
      "note": 88,
      "start": 21.6398,
      "duration": 0.1997,
      "velocity": 85,
      "chip": "ym2612"
    },
    {
      "channel": 1,
      "note": 85,
      "start": 21.8385,
      "duration": 0.2,
      "velocity": 101,
      "chip": "ym2612"
    },
    {
      "channel": 3,
      "note": 83,
      "start": 21.8393,
      "duration": 0.2,
      "velocity": 101,
      "chip": "ym2612"
    },
    {
      "channel": 4,
      "note": 90,
      "start": 21.84,
      "duration": 0.2,
      "velocity": 85,
      "chip": "ym2612"
    },
    {
      "channel": 5,
      "note": 88,
      "start": 21.8408,
      "duration": 0.2,
      "velocity": 85,
      "chip": "ym2612"
    },
    {
      "channel": 0,
      "note": 49,
      "start": 22.0384,
      "duration": 0.4,
      "velocity": 90,
      "chip": "ym2612"
    },
    {
      "channel": 1,
      "note": 83,
      "start": 22.0391,
      "duration": 0.1993,
      "velocity": 101,
      "chip": "ym2612"
    },
    {
      "channel": 3,
      "note": 85,
      "start": 22.0399,
      "duration": 0.1993,
      "velocity": 101,
      "chip": "ym2612"
    },
    {
      "channel": 4,
      "note": 88,
      "start": 22.0407,
      "duration": 0.1993,
      "velocity": 85,
      "chip": "ym2612"
    },
    {
      "channel": 5,
      "note": 90,
      "start": 22.0414,
      "duration": 0.1993,
      "velocity": 85,
      "chip": "ym2612"
    },
    {
      "channel": 1,
      "note": 81,
      "start": 22.239,
      "duration": 0.2,
      "velocity": 101,
      "chip": "ym2612"
    },
    {
      "channel": 3,
      "note": 83,
      "start": 22.2398,
      "duration": 0.2001,
      "velocity": 101,
      "chip": "ym2612"
    },
    {
      "channel": 4,
      "note": 86,
      "start": 22.2405,
      "duration": 0.2,
      "velocity": 85,
      "chip": "ym2612"
    },
    {
      "channel": 5,
      "note": 88,
      "start": 22.2413,
      "duration": 0.2001,
      "velocity": 85,
      "chip": "ym2612"
    },
    {
      "channel": 0,
      "note": 50,
      "start": 22.4389,
      "duration": 0.3999,
      "velocity": 90,
      "chip": "ym2612"
    },
    {
      "channel": 1,
      "note": 90,
      "start": 22.4397,
      "duration": 0.5998,
      "velocity": 101,
      "chip": "ym2612"
    },
    {
      "channel": 3,
      "note": 81,
      "start": 22.4405,
      "duration": 0.1988,
      "velocity": 101,
      "chip": "ym2612"
    },
    {
      "channel": 4,
      "note": 92,
      "start": 22.4412,
      "duration": 0.5993,
      "velocity": 85,
      "chip": "ym2612"
    },
    {
      "channel": 5,
      "note": 86,
      "start": 22.442,
      "duration": 0.1984,
      "velocity": 85,
      "chip": "ym2612"
    },
    {
      "channel": 3,
      "note": 90,
      "start": 22.6399,
      "duration": 0.601,
      "velocity": 101,
      "chip": "ym2612"
    },
    {
      "channel": 5,
      "note": 92,
      "start": 22.641,
      "duration": 0.6014,
      "velocity": 85,
      "chip": "ym2612"
    },
    {
      "channel": 0,
      "note": 50,
      "start": 22.8394,
      "duration": 0.3999,
      "velocity": 90,
      "chip": "ym2612"
    },
    {
      "channel": 1,
      "note": 85,
      "start": 23.0401,
      "duration": 0.0995,
      "velocity": 101,
      "chip": "ym2612"
    },
    {
      "channel": 4,
      "note": 90,
      "start": 23.0412,
      "duration": 0.0995,
      "velocity": 85,
      "chip": "ym2612"
    },
    {
      "channel": 1,
      "note": 83,
      "start": 23.1402,
      "duration": 0.0999,
      "velocity": 101,
      "chip": "ym2612"
    },
    {
      "channel": 4,
      "note": 88,
      "start": 23.1413,
      "duration": 0.1003,
      "velocity": 85,
      "chip": "ym2612"
    },
    {
      "channel": 0,
      "note": 50,
      "start": 23.2399,
      "duration": 0.4,
      "velocity": 90,
      "chip": "ym2612"
    },
    {
      "channel": 1,
      "note": 81,
      "start": 23.2407,
      "duration": 0.8004,
      "velocity": 101,
      "chip": "ym2612"
    },
    {
      "channel": 3,
      "note": 85,
      "start": 23.2415,
      "duration": 0.0987,
      "velocity": 101,
      "chip": "ym2612"
    },
    {
      "channel": 4,
      "note": 98,
      "start": 23.2423,
      "duration": 0.5989,
      "velocity": 85,
      "chip": "ym2612"
    },
    {
      "channel": 5,
      "note": 90,
      "start": 23.243,
      "duration": 0.0983,
      "velocity": 85,
      "chip": "ym2612"
    },
    {
      "channel": 3,
      "note": 83,
      "start": 23.3408,
      "duration": 0.0995,
      "velocity": 101,
      "chip": "ym2612"
    },
    {
      "channel": 5,
      "note": 88,
      "start": 23.3419,
      "duration": 0.0995,
      "velocity": 85,
      "chip": "ym2612"
    },
    {
      "channel": 3,
      "note": 81,
      "start": 23.4409,
      "duration": 0.8008,
      "velocity": 101,
      "chip": "ym2612"
    },
    {
      "channel": 5,
      "note": 98,
      "start": 23.4421,
      "duration": 0.601,
      "velocity": 85,
      "chip": "ym2612"
    },
    {
      "channel": 0,
      "note": 50,
      "start": 23.6405,
      "duration": 0.4,
      "velocity": 90,
      "chip": "ym2612"
    },
    {
      "channel": 4,
      "note": 97,
      "start": 23.8418,
      "duration": 0.0995,
      "velocity": 85,
      "chip": "ym2612"
    },
    {
      "channel": 4,
      "note": 95,
      "start": 23.9419,
      "duration": 0.1003,
      "velocity": 85,
      "chip": "ym2612"
    },
    {
      "channel": 0,
      "note": 52,
      "start": 24.041,
      "duration": 0.1997,
      "velocity": 90,
      "chip": "ym2612"
    },
    {
      "channel": 1,
      "note": 83,
      "start": 24.0417,
      "duration": 1.6015,
      "velocity": 101,
      "chip": "ym2612"
    },
    {
      "channel": 4,
      "note": 88,
      "start": 24.0429,
      "duration": 1.6014,
      "velocity": 85,
      "chip": "ym2612"
    },
    {
      "channel": 5,
      "note": 97,
      "start": 24.0437,
      "duration": 0.0983,
      "velocity": 85,
      "chip": "ym2612"
    },
    {
      "channel": 5,
      "note": 95,
      "start": 24.1425,
      "duration": 0.1003,
      "velocity": 85,
      "chip": "ym2612"
    },
    {
      "channel": 0,
      "note": 52,
      "start": 24.2412,
      "duration": 0.1997,
      "velocity": 90,
      "chip": "ym2612"
    },
    {
      "channel": 3,
      "note": 83,
      "start": 24.2423,
      "duration": 1.6015,
      "velocity": 101,
      "chip": "ym2612"
    },
    {
      "channel": 5,
      "note": 88,
      "start": 24.2435,
      "duration": 1.6014,
      "velocity": 85,
      "chip": "ym2612"
    },
    {
      "channel": 0,
      "note": 52,
      "start": 24.4415,
      "duration": 0.1997,
      "velocity": 90,
      "chip": "ym2612"
    },
    {
      "channel": 0,
      "note": 52,
      "start": 24.6417,
      "duration": 0.1997,
      "velocity": 90,
      "chip": "ym2612"
    },
    {
      "channel": 0,
      "note": 54,
      "start": 24.842,
      "duration": 0.3999,
      "velocity": 90,
      "chip": "ym2612"
    },
    {
      "channel": 0,
      "note": 52,
      "start": 25.2425,
      "duration": 0.4,
      "velocity": 90,
      "chip": "ym2612"
    },
    {
      "channel": 0,
      "note": 50,
      "start": 25.6431,
      "duration": 0.1997,
      "velocity": 90,
      "chip": "ym2612"
    },
    {
      "channel": 1,
      "note": 81,
      "start": 25.6438,
      "duration": 0.6002,
      "velocity": 101,
      "chip": "ym2612"
    },
    {
      "channel": 4,
      "note": 85,
      "start": 25.6449,
      "duration": 0.6001,
      "velocity": 85,
      "chip": "ym2612"
    },
    {
      "channel": 0,
      "note": 50,
      "start": 25.8433,
      "duration": 0.1997,
      "velocity": 90,
      "chip": "ym2612"
    },
    {
      "channel": 3,
      "note": 81,
      "start": 25.8444,
      "duration": 0.6006,
      "velocity": 101,
      "chip": "ym2612"
    },
    {
      "channel": 5,
      "note": 85,
      "start": 25.8455,
      "duration": 0.601,
      "velocity": 85,
      "chip": "ym2612"
    },
    {
      "channel": 0,
      "note": 50,
      "start": 26.0436,
      "duration": 0.1997,
      "velocity": 90,
      "chip": "ym2612"
    },
    {
      "channel": 0,
      "note": 50,
      "start": 26.2438,
      "duration": 0.1997,
      "velocity": 90,
      "chip": "ym2612"
    },
    {
      "channel": 1,
      "note": 86,
      "start": 26.2446,
      "duration": 0.1996,
      "velocity": 101,
      "chip": "ym2612"
    },
    {
      "channel": 4,
      "note": 90,
      "start": 26.2457,
      "duration": 0.2,
      "velocity": 85,
      "chip": "ym2612"
    },
    {
      "channel": 0,
      "note": 52,
      "start": 26.4441,
      "duration": 0.1997,
      "velocity": 90,
      "chip": "ym2612"
    },
    {
      "channel": 1,
      "note": 80,
      "start": 26.4448,
      "duration": 0.6002,
      "velocity": 101,
      "chip": "ym2612"
    },
    {
      "channel": 3,
      "note": 86,
      "start": 26.4456,
      "duration": 0.1992,
      "velocity": 101,
      "chip": "ym2612"
    },
    {
      "channel": 4,
      "note": 83,
      "start": 26.4464,
      "duration": 0.5998,
      "velocity": 85,
      "chip": "ym2612"
    },
    {
      "channel": 5,
      "note": 90,
      "start": 26.4471,
      "duration": 0.1988,
      "velocity": 85,
      "chip": "ym2612"
    },
    {
      "channel": 0,
      "note": 52,
      "start": 26.6443,
      "duration": 0.1997,
      "velocity": 90,
      "chip": "ym2612"
    },
    {
      "channel": 3,
      "note": 80,
      "start": 26.6454,
      "duration": 0.6002,
      "velocity": 101,
      "chip": "ym2612"
    },
    {
      "channel": 5,
      "note": 83,
      "start": 26.6466,
      "duration": 0.6001,
      "velocity": 85,
      "chip": "ym2612"
    },
    {
      "channel": 0,
      "note": 52,
      "start": 26.8446,
      "duration": 0.1997,
      "velocity": 90,
      "chip": "ym2612"
    },
    {
      "channel": 0,
      "note": 54,
      "start": 27.0449,
      "duration": 0.3999,
      "velocity": 90,
      "chip": "ym2612"
    },
    {
      "channel": 1,
      "note": 88,
      "start": 27.0456,
      "duration": 1.8017,
      "velocity": 101,
      "chip": "ym2612"
    },
    {
      "channel": 4,
      "note": 80,
      "start": 27.0467,
      "duration": 0.1996,
      "velocity": 85,
      "chip": "ym2612"
    },
    {
      "channel": 3,
      "note": 88,
      "start": 27.2462,
      "duration": 1.8017,
      "velocity": 101,
      "chip": "ym2612"
    },
    {
      "channel": 5,
      "note": 80,
      "start": 27.2473,
      "duration": 0.2001,
      "velocity": 85,
      "chip": "ym2612"
    },
    {
      "channel": 0,
      "note": 54,
      "start": 27.4454,
      "duration": 0.1997,
      "velocity": 90,
      "chip": "ym2612"
    },
    {
      "channel": 4,
      "note": 92,
      "start": 27.4472,
      "duration": 0.1993,
      "velocity": 85,
      "chip": "ym2612"
    },
    {
      "channel": 0,
      "note": 54,
      "start": 27.6456,
      "duration": 0.1997,
      "velocity": 90,
      "chip": "ym2612"
    },
    {
      "channel": 4,
      "note": 93,
      "start": 27.6471,
      "duration": 0.1996,
      "velocity": 85,
      "chip": "ym2612"
    },
    {
      "channel": 5,
      "note": 92,
      "start": 27.6478,
      "duration": 0.1997,
      "velocity": 85,
      "chip": "ym2612"
    },
    {
      "channel": 0,
      "note": 54,
      "start": 27.8459,
      "duration": 0.1997,
      "velocity": 90,
      "chip": "ym2612"
    },
    {
      "channel": 4,
      "note": 95,
      "start": 27.8473,
      "duration": 0.1997,
      "velocity": 85,
      "chip": "ym2612"
    },
    {
      "channel": 5,
      "note": 93,
      "start": 27.8481,
      "duration": 0.1997,
      "velocity": 85,
      "chip": "ym2612"
    },
    {
      "channel": 0,
      "note": 54,
      "start": 28.0461,
      "duration": 0.1997,
      "velocity": 90,
      "chip": "ym2612"
    },
    {
      "channel": 4,
      "note": 97,
      "start": 28.0476,
      "duration": 0.8008,
      "velocity": 85,
      "chip": "ym2612"
    },
    {
      "channel": 5,
      "note": 95,
      "start": 28.0484,
      "duration": 0.1992,
      "velocity": 85,
      "chip": "ym2612"
    },
    {
      "channel": 0,
      "note": 54,
      "start": 28.2464,
      "duration": 0.1997,
      "velocity": 90,
      "chip": "ym2612"
    },
    {
      "channel": 5,
      "note": 97,
      "start": 28.2482,
      "duration": 0.8008,
      "velocity": 85,
      "chip": "ym2612"
    },
    {
      "channel": 0,
      "note": 54,
      "start": 28.4466,
      "duration": 0.1997,
      "velocity": 90,
      "chip": "ym2612"
    },
    {
      "channel": 0,
      "note": 54,
      "start": 28.6469,
      "duration": 0.1997,
      "velocity": 90,
      "chip": "ym2612"
    },
    {
      "channel": 0,
      "note": 50,
      "start": 28.8472,
      "duration": 0.1997,
      "velocity": 90,
      "chip": "ym2612"
    },
    {
      "channel": 1,
      "note": 90,
      "start": 28.8479,
      "duration": 0.3999,
      "velocity": 101,
      "chip": "ym2612"
    },
    {
      "channel": 4,
      "note": 85,
      "start": 28.8491,
      "duration": 0.3999,
      "velocity": 85,
      "chip": "ym2612"
    },
    {
      "channel": 0,
      "note": 50,
      "start": 29.0474,
      "duration": 0.1997,
      "velocity": 90,
      "chip": "ym2612"
    },
    {
      "channel": 3,
      "note": 90,
      "start": 29.0485,
      "duration": 0.3999,
      "velocity": 101,
      "chip": "ym2612"
    },
    {
      "channel": 5,
      "note": 85,
      "start": 29.0497,
      "duration": 0.3999,
      "velocity": 85,
      "chip": "ym2612"
    },
    {
      "channel": 0,
      "note": 50,
      "start": 29.2477,
      "duration": 0.1997,
      "velocity": 90,
      "chip": "ym2612"
    },
    {
      "channel": 1,
      "note": 90,
      "start": 29.2484,
      "duration": 0.3999,
      "velocity": 101,
      "chip": "ym2612"
    },
    {
      "channel": 4,
      "note": 85,
      "start": 29.2495,
      "duration": 0.6006,
      "velocity": 85,
      "chip": "ym2612"
    },
    {
      "channel": 0,
      "note": 50,
      "start": 29.4479,
      "duration": 0.1997,
      "velocity": 90,
      "chip": "ym2612"
    },
    {
      "channel": 3,
      "note": 90,
      "start": 29.449,
      "duration": 0.4003,
      "velocity": 101,
      "chip": "ym2612"
    },
    {
      "channel": 5,
      "note": 85,
      "start": 29.4502,
      "duration": 0.601,
      "velocity": 85,
      "chip": "ym2612"
    },
    {
      "channel": 0,
      "note": 52,
      "start": 29.6482,
      "duration": 0.1997,
      "velocity": 90,
      "chip": "ym2612"
    },
    {
      "channel": 1,
      "note": 90,
      "start": 29.649,
      "duration": 0.1997,
      "velocity": 101,
      "chip": "ym2612"
    },
    {
      "channel": 0,
      "note": 52,
      "start": 29.8485,
      "duration": 0.1997,
      "velocity": 90,
      "chip": "ym2612"
    },
    {
      "channel": 1,
      "note": 85,
      "start": 29.8492,
      "duration": 0.1997,
      "velocity": 101,
      "chip": "ym2612"
    },
    {
      "channel": 3,
      "note": 90,
      "start": 29.85,
      "duration": 0.1996,
      "velocity": 101,
      "chip": "ym2612"
    },
    {
      "channel": 4,
      "note": 83,
      "start": 29.8507,
      "duration": 0.1996,
      "velocity": 85,
      "chip": "ym2612"
    },
    {
      "channel": 0,
      "note": 52,
      "start": 30.0487,
      "duration": 0.1997,
      "velocity": 90,
      "chip": "ym2612"
    },
    {
      "channel": 1,
      "note": 83,
      "start": 30.0495,
      "duration": 0.1997,
      "velocity": 101,
      "chip": "ym2612"
    },
    {
      "channel": 3,
      "note": 85,
      "start": 30.0502,
      "duration": 0.1997,
      "velocity": 101,
      "chip": "ym2612"
    },
    {
      "channel": 4,
      "note": 83,
      "start": 30.051,
      "duration": 0.3995,
      "velocity": 85,
      "chip": "ym2612"
    },
    {
      "channel": 5,
      "note": 83,
      "start": 30.0518,
      "duration": 0.1992,
      "velocity": 85,
      "chip": "ym2612"
    },
    {
      "channel": 0,
      "note": 45,
      "start": 30.249,
      "duration": 0.3999,
      "velocity": 90,
      "chip": "ym2612"
    },
    {
      "channel": 1,
      "note": 81,
      "start": 30.2497,
      "duration": 1.8017,
      "velocity": 101,
      "chip": "ym2612"
    },
    {
      "channel": 3,
      "note": 83,
      "start": 30.2505,
      "duration": 0.1992,
      "velocity": 101,
      "chip": "ym2612"
    },
    {
      "channel": 5,
      "note": 83,
      "start": 30.2516,
      "duration": 0.3999,
      "velocity": 85,
      "chip": "ym2612"
    },
    {
      "channel": 3,
      "note": 81,
      "start": 30.4503,
      "duration": 1.8017,
      "velocity": 101,
      "chip": "ym2612"
    },
    {
      "channel": 4,
      "note": 100,
      "start": 30.4511,
      "duration": 0.1996,
      "velocity": 85,
      "chip": "ym2612"
    },
    {
      "channel": 0,
      "note": 45,
      "start": 30.6495,
      "duration": 0.1997,
      "velocity": 90,
      "chip": "ym2612"
    },
    {
      "channel": 4,
      "note": 100,
      "start": 30.6513,
      "duration": 0.1993,
      "velocity": 85,
      "chip": "ym2612"
    },
    {
      "channel": 5,
      "note": 100,
      "start": 30.6521,
      "duration": 0.1993,
      "velocity": 85,
      "chip": "ym2612"
    },
    {
      "channel": 0,
      "note": 45,
      "start": 30.8498,
      "duration": 0.1997,
      "velocity": 90,
      "chip": "ym2612"
    },
    {
      "channel": 4,
      "note": 100,
      "start": 30.8512,
      "duration": 0.0991,
      "velocity": 85,
      "chip": "ym2612"
    },
    {
      "channel": 5,
      "note": 100,
      "start": 30.852,
      "duration": 0.1996,
      "velocity": 85,
      "chip": "ym2612"
    },
    {
      "channel": 4,
      "note": 97,
      "start": 30.951,
      "duration": 0.0999,
      "velocity": 85,
      "chip": "ym2612"
    },
    {
      "channel": 0,
      "note": 45,
      "start": 31.05,
      "duration": 0.1997,
      "velocity": 90,
      "chip": "ym2612"
    },
    {
      "channel": 4,
      "note": 95,
      "start": 31.0515,
      "duration": 0.0991,
      "velocity": 85,
      "chip": "ym2612"
    },
    {
      "channel": 5,
      "note": 100,
      "start": 31.0522,
      "duration": 0.0991,
      "velocity": 85,
      "chip": "ym2612"
    },
    {
      "channel": 4,
      "note": 93,
      "start": 31.1512,
      "duration": 0.5004,
      "velocity": 85,
      "chip": "ym2612"
    },
    {
      "channel": 5,
      "note": 97,
      "start": 31.152,
      "duration": 0.0995,
      "velocity": 85,
      "chip": "ym2612"
    },
    {
      "channel": 0,
      "note": 45,
      "start": 31.2502,
      "duration": 0.1997,
      "velocity": 90,
      "chip": "ym2612"
    },
    {
      "channel": 5,
      "note": 95,
      "start": 31.2521,
      "duration": 0.0991,
      "velocity": 85,
      "chip": "ym2612"
    },
    {
      "channel": 5,
      "note": 93,
      "start": 31.3518,
      "duration": 0.5008,
      "velocity": 85,
      "chip": "ym2612"
    },
    {
      "channel": 0,
      "note": 45,
      "start": 31.4505,
      "duration": 0.1997,
      "velocity": 90,
      "chip": "ym2612"
    },
    {
      "channel": 0,
      "note": 47,
      "start": 31.6508,
      "duration": 0.1997,
      "velocity": 90,
      "chip": "ym2612"
    },
    {
      "channel": 4,
      "note": 100,
      "start": 31.6522,
      "duration": 0.0991,
      "velocity": 85,
      "chip": "ym2612"
    },
    {
      "channel": 4,
      "note": 97,
      "start": 31.752,
      "duration": 0.0999,
      "velocity": 85,
      "chip": "ym2612"
    },
    {
      "channel": 0,
      "note": 49,
      "start": 31.851,
      "duration": 0.1997,
      "velocity": 90,
      "chip": "ym2612"
    },
    {
      "channel": 4,
      "note": 95,
      "start": 31.8525,
      "duration": 0.0991,
      "velocity": 85,
      "chip": "ym2612"
    },
    {
      "channel": 5,
      "note": 100,
      "start": 31.8533,
      "duration": 0.0991,
      "velocity": 85,
      "chip": "ym2612"
    },
    {
      "channel": 4,
      "note": 93,
      "start": 31.9522,
      "duration": 0.1003,
      "velocity": 85,
      "chip": "ym2612"
    },
    {
      "channel": 5,
      "note": 97,
      "start": 31.953,
      "duration": 0.1003,
      "velocity": 85,
      "chip": "ym2612"
    },
    {
      "channel": 0,
      "note": 50,
      "start": 32.0513,
      "duration": 0.8004,
      "velocity": 90,
      "chip": "ym2612"
    },
    {
      "channel": 1,
      "note": 81,
      "start": 32.0521,
      "duration": 0.1993,
      "velocity": 101,
      "chip": "ym2612"
    },
    {
      "channel": 4,
      "note": 81,
      "start": 32.0532,
      "duration": 0.6002,
      "velocity": 85,
      "chip": "ym2612"
    },
    {
      "channel": 5,
      "note": 95,
      "start": 32.0539,
      "duration": 0.0983,
      "velocity": 85,
      "chip": "ym2612"
    },
    {
      "channel": 5,
      "note": 93,
      "start": 32.1528,
      "duration": 0.1004,
      "velocity": 85,
      "chip": "ym2612"
    },
    {
      "channel": 1,
      "note": 81,
      "start": 32.2519,
      "duration": 0.1996,
      "velocity": 101,
      "chip": "ym2612"
    },
    {
      "channel": 3,
      "note": 81,
      "start": 32.2527,
      "duration": 0.1996,
      "velocity": 101,
      "chip": "ym2612"
    },
    {
      "channel": 5,
      "note": 81,
      "start": 32.2538,
      "duration": 0.6005,
      "velocity": 85,
      "chip": "ym2612"
    },
    {
      "channel": 1,
      "note": 80,
      "start": 32.4522,
      "duration": 0.0995,
      "velocity": 101,
      "chip": "ym2612"
    },
    {
      "channel": 3,
      "note": 81,
      "start": 32.4529,
      "duration": 0.1997,
      "velocity": 101,
      "chip": "ym2612"
    },
    {
      "channel": 1,
      "note": 81,
      "start": 32.5523,
      "duration": 0.0995,
      "velocity": 101,
      "chip": "ym2612"
    },
    {
      "channel": 1,
      "note": 86,
      "start": 32.6524,
      "duration": 0.0995,
      "velocity": 101,
      "chip": "ym2612"
    },
    {
      "channel": 3,
      "note": 80,
      "start": 32.6532,
      "duration": 0.0995,
      "velocity": 101,
      "chip": "ym2612"
    },
    {
      "channel": 4,
      "note": 83,
      "start": 32.654,
      "duration": 1.0011,
      "velocity": 85,
      "chip": "ym2612"
    },
    {
      "channel": 1,
      "note": 80,
      "start": 32.7526,
      "duration": 0.0999,
      "velocity": 101,
      "chip": "ym2612"
    },
    {
      "channel": 3,
      "note": 81,
      "start": 32.7533,
      "duration": 0.0999,
      "velocity": 101,
      "chip": "ym2612"
    },
    {
      "channel": 0,
      "note": 52,
      "start": 32.8523,
      "duration": 0.8005,
      "velocity": 90,
      "chip": "ym2612"
    },
    {
      "channel": 1,
      "note": 81,
      "start": 32.8531,
      "duration": 0.0992,
      "velocity": 101,
      "chip": "ym2612"
    },
    {
      "channel": 3,
      "note": 86,
      "start": 32.8538,
      "duration": 0.0991,
      "velocity": 101,
      "chip": "ym2612"
    },
    {
      "channel": 5,
      "note": 83,
      "start": 32.8549,
      "duration": 1.0007,
      "velocity": 85,
      "chip": "ym2612"
    },
    {
      "channel": 1,
      "note": 86,
      "start": 32.9528,
      "duration": 0.0995,
      "velocity": 101,
      "chip": "ym2612"
    },
    {
      "channel": 3,
      "note": 80,
      "start": 32.9536,
      "duration": 0.0995,
      "velocity": 101,
      "chip": "ym2612"
    },
    {
      "channel": 1,
      "note": 80,
      "start": 33.0529,
      "duration": 0.1997,
      "velocity": 101,
      "chip": "ym2612"
    },
    {
      "channel": 3,
      "note": 81,
      "start": 33.0537,
      "duration": 0.0991,
      "velocity": 101,
      "chip": "ym2612"
    },
    {
      "channel": 3,
      "note": 86,
      "start": 33.1534,
      "duration": 0.0999,
      "velocity": 101,
      "chip": "ym2612"
    },
    {
      "channel": 1,
      "note": 81,
      "start": 33.2532,
      "duration": 0.1997,
      "velocity": 101,
      "chip": "ym2612"
    },
    {
      "channel": 3,
      "note": 80,
      "start": 33.254,
      "duration": 0.1997,
      "velocity": 101,
      "chip": "ym2612"
    },
    {
      "channel": 1,
      "note": 86,
      "start": 33.4535,
      "duration": 0.2,
      "velocity": 101,
      "chip": "ym2612"
    },
    {
      "channel": 3,
      "note": 81,
      "start": 33.4542,
      "duration": 0.2001,
      "velocity": 101,
      "chip": "ym2612"
    },
    {
      "channel": 0,
      "note": 54,
      "start": 33.6534,
      "duration": 0.1997,
      "velocity": 90,
      "chip": "ym2612"
    },
    {
      "channel": 1,
      "note": 88,
      "start": 33.6541,
      "duration": 1.6015,
      "velocity": 101,
      "chip": "ym2612"
    },
    {
      "channel": 3,
      "note": 86,
      "start": 33.6549,
      "duration": 0.1992,
      "velocity": 101,
      "chip": "ym2612"
    },
    {
      "channel": 4,
      "note": 93,
      "start": 33.6557,
      "duration": 0.1992,
      "velocity": 85,
      "chip": "ym2612"
    },
    {
      "channel": 0,
      "note": 54,
      "start": 33.8536,
      "duration": 0.1997,
      "velocity": 90,
      "chip": "ym2612"
    },
    {
      "channel": 3,
      "note": 88,
      "start": 33.8547,
      "duration": 1.6015,
      "velocity": 101,
      "chip": "ym2612"
    },
    {
      "channel": 4,
      "note": 93,
      "start": 33.8555,
      "duration": 0.1992,
      "velocity": 85,
      "chip": "ym2612"
    },
    {
      "channel": 5,
      "note": 93,
      "start": 33.8563,
      "duration": 0.1992,
      "velocity": 85,
      "chip": "ym2612"
    },
    {
      "channel": 0,
      "note": 54,
      "start": 34.0539,
      "duration": 0.1997,
      "velocity": 90,
      "chip": "ym2612"
    },
    {
      "channel": 4,
      "note": 92,
      "start": 34.0553,
      "duration": 0.0991,
      "velocity": 85,
      "chip": "ym2612"
    },
    {
      "channel": 5,
      "note": 93,
      "start": 34.0561,
      "duration": 0.1996,
      "velocity": 85,
      "chip": "ym2612"
    },
    {
      "channel": 4,
      "note": 93,
      "start": 34.1551,
      "duration": 0.0999,
      "velocity": 85,
      "chip": "ym2612"
    },
    {
      "channel": 0,
      "note": 54,
      "start": 34.2541,
      "duration": 0.1997,
      "velocity": 90,
      "chip": "ym2612"
    },
    {
      "channel": 4,
      "note": 98,
      "start": 34.2556,
      "duration": 0.0991,
      "velocity": 85,
      "chip": "ym2612"
    },
    {
      "channel": 5,
      "note": 92,
      "start": 34.2563,
      "duration": 0.0991,
      "velocity": 85,
      "chip": "ym2612"
    },
    {
      "channel": 4,
      "note": 92,
      "start": 34.3553,
      "duration": 0.0999,
      "velocity": 85,
      "chip": "ym2612"
    },
    {
      "channel": 5,
      "note": 93,
      "start": 34.3561,
      "duration": 0.0999,
      "velocity": 85,
      "chip": "ym2612"
    },
    {
      "channel": 0,
      "note": 54,
      "start": 34.4544,
      "duration": 0.1997,
      "velocity": 90,
      "chip": "ym2612"
    },
    {
      "channel": 4,
      "note": 93,
      "start": 34.4559,
      "duration": 0.0991,
      "velocity": 85,
      "chip": "ym2612"
    },
    {
      "channel": 5,
      "note": 98,
      "start": 34.4566,
      "duration": 0.0991,
      "velocity": 85,
      "chip": "ym2612"
    },
    {
      "channel": 4,
      "note": 98,
      "start": 34.5556,
      "duration": 0.0999,
      "velocity": 85,
      "chip": "ym2612"
    },
    {
      "channel": 5,
      "note": 92,
      "start": 34.5563,
      "duration": 0.0999,
      "velocity": 85,
      "chip": "ym2612"
    },
    {
      "channel": 0,
      "note": 54,
      "start": 34.6546,
      "duration": 0.1997,
      "velocity": 90,
      "chip": "ym2612"
    },
    {
      "channel": 4,
      "note": 92,
      "start": 34.6561,
      "duration": 0.1996,
      "velocity": 85,
      "chip": "ym2612"
    },
    {
      "channel": 5,
      "note": 93,
      "start": 34.6569,
      "duration": 0.0987,
      "velocity": 85,
      "chip": "ym2612"
    },
    {
      "channel": 5,
      "note": 98,
      "start": 34.7562,
      "duration": 0.1003,
      "velocity": 85,
      "chip": "ym2612"
    },
    {
      "channel": 0,
      "note": 54,
      "start": 34.8549,
      "duration": 0.1997,
      "velocity": 90,
      "chip": "ym2612"
    },
    {
      "channel": 4,
      "note": 93,
      "start": 34.8563,
      "duration": 0.1997,
      "velocity": 85,
      "chip": "ym2612"
    },
    {
      "channel": 5,
      "note": 92,
      "start": 34.8571,
      "duration": 0.1996,
      "velocity": 85,
      "chip": "ym2612"
    },
    {
      "channel": 0,
      "note": 54,
      "start": 35.0551,
      "duration": 0.1997,
      "velocity": 90,
      "chip": "ym2612"
    },
    {
      "channel": 4,
      "note": 98,
      "start": 35.0566,
      "duration": 0.2001,
      "velocity": 85,
      "chip": "ym2612"
    },
    {
      "channel": 5,
      "note": 93,
      "start": 35.0574,
      "duration": 0.2001,
      "velocity": 85,
      "chip": "ym2612"
    },
    {
      "channel": 0,
      "note": 53,
      "start": 35.2554,
      "duration": 0.1997,
      "velocity": 90,
      "chip": "ym2612"
    },
    {
      "channel": 1,
      "note": 89,
      "start": 35.2562,
      "duration": 0.3999,
      "velocity": 101,
      "chip": "ym2612"
    },
    {
      "channel": 4,
      "note": 84,
      "start": 35.2573,
      "duration": 0.3999,
      "velocity": 85,
      "chip": "ym2612"
    },
    {
      "channel": 5,
      "note": 98,
      "start": 35.2581,
      "duration": 0.1992,
      "velocity": 85,
      "chip": "ym2612"
    },
    {
      "channel": 0,
      "note": 53,
      "start": 35.4557,
      "duration": 0.1997,
      "velocity": 90,
      "chip": "ym2612"
    },
    {
      "channel": 3,
      "note": 89,
      "start": 35.4568,
      "duration": 0.3999,
      "velocity": 101,
      "chip": "ym2612"
    },
    {
      "channel": 5,
      "note": 84,
      "start": 35.4579,
      "duration": 0.3999,
      "velocity": 85,
      "chip": "ym2612"
    },
    {
      "channel": 0,
      "note": 53,
      "start": 35.6559,
      "duration": 0.1997,
      "velocity": 90,
      "chip": "ym2612"
    },
    {
      "channel": 1,
      "note": 89,
      "start": 35.6567,
      "duration": 0.3999,
      "velocity": 101,
      "chip": "ym2612"
    },
    {
      "channel": 4,
      "note": 84,
      "start": 35.6578,
      "duration": 0.3999,
      "velocity": 85,
      "chip": "ym2612"
    },
    {
      "channel": 0,
      "note": 53,
      "start": 35.8562,
      "duration": 0.1997,
      "velocity": 90,
      "chip": "ym2612"
    },
    {
      "channel": 3,
      "note": 89,
      "start": 35.8573,
      "duration": 0.4003,
      "velocity": 101,
      "chip": "ym2612"
    },
    {
      "channel": 5,
      "note": 84,
      "start": 35.8584,
      "duration": 0.4008,
      "velocity": 85,
      "chip": "ym2612"
    },
    {
      "channel": 0,
      "note": 55,
      "start": 36.0564,
      "duration": 0.1997,
      "velocity": 90,
      "chip": "ym2612"
    },
    {
      "channel": 1,
      "note": 93,
      "start": 36.0572,
      "duration": 0.1996,
      "velocity": 101,
      "chip": "ym2612"
    },
    {
      "channel": 4,
      "note": 86,
      "start": 36.0583,
      "duration": 0.2,
      "velocity": 85,
      "chip": "ym2612"
    },
    {
      "channel": 0,
      "note": 55,
      "start": 36.2567,
      "duration": 0.1997,
      "velocity": 90,
      "chip": "ym2612"
    },
    {
      "channel": 1,
      "note": 84,
      "start": 36.2575,
      "duration": 0.1997,
      "velocity": 101,
      "chip": "ym2612"
    },
    {
      "channel": 3,
      "note": 93,
      "start": 36.2582,
      "duration": 0.1996,
      "velocity": 101,
      "chip": "ym2612"
    },
    {
      "channel": 4,
      "note": 86,
      "start": 36.259,
      "duration": 0.3999,
      "velocity": 85,
      "chip": "ym2612"
    },
    {
      "channel": 5,
      "note": 86,
      "start": 36.2598,
      "duration": 0.1992,
      "velocity": 85,
      "chip": "ym2612"
    },
    {
      "channel": 0,
      "note": 55,
      "start": 36.457,
      "duration": 0.1997,
      "velocity": 90,
      "chip": "ym2612"
    },
    {
      "channel": 1,
      "note": 83,
      "start": 36.4577,
      "duration": 0.1997,
      "velocity": 101,
      "chip": "ym2612"
    },
    {
      "channel": 3,
      "note": 84,
      "start": 36.4585,
      "duration": 0.1997,
      "velocity": 101,
      "chip": "ym2612"
    },
    {
      "channel": 5,
      "note": 86,
      "start": 36.4596,
      "duration": 0.3995,
      "velocity": 85,
      "chip": "ym2612"
    },
    {
      "channel": 0,
      "note": 57,
      "start": 36.6572,
      "duration": 0.3999,
      "velocity": 90,
      "chip": "ym2612"
    },
    {
      "channel": 1,
      "note": 81,
      "start": 36.658,
      "duration": 1.8021,
      "velocity": 101,
      "chip": "ym2612"
    },
    {
      "channel": 3,
      "note": 83,
      "start": 36.6588,
      "duration": 0.1992,
      "velocity": 101,
      "chip": "ym2612"
    },
    {
      "channel": 4,
      "note": 88,
      "start": 36.6595,
      "duration": 0.7996,
      "velocity": 85,
      "chip": "ym2612"
    },
    {
      "channel": 3,
      "note": 81,
      "start": 36.8586,
      "duration": 1.8016,
      "velocity": 101,
      "chip": "ym2612"
    },
    {
      "channel": 5,
      "note": 88,
      "start": 36.8597,
      "duration": 0.8005,
      "velocity": 85,
      "chip": "ym2612"
    },
    {
      "channel": 0,
      "note": 57,
      "start": 37.0578,
      "duration": 0.1997,
      "velocity": 90,
      "chip": "ym2612"
    },
    {
      "channel": 0,
      "note": 57,
      "start": 37.258,
      "duration": 0.1997,
      "velocity": 90,
      "chip": "ym2612"
    },
    {
      "channel": 0,
      "note": 57,
      "start": 37.4583,
      "duration": 0.1997,
      "velocity": 90,
      "chip": "ym2612"
    },
    {
      "channel": 4,
      "note": 88,
      "start": 37.4597,
      "duration": 0.1996,
      "velocity": 85,
      "chip": "ym2612"
    },
    {
      "channel": 0,
      "note": 57,
      "start": 37.6585,
      "duration": 0.3999,
      "velocity": 90,
      "chip": "ym2612"
    },
    {
      "channel": 4,
      "note": 88,
      "start": 37.66,
      "duration": 0.1993,
      "velocity": 85,
      "chip": "ym2612"
    },
    {
      "channel": 5,
      "note": 88,
      "start": 37.6607,
      "duration": 0.1992,
      "velocity": 85,
      "chip": "ym2612"
    },
    {
      "channel": 4,
      "note": 88,
      "start": 37.8598,
      "duration": 0.2,
      "velocity": 85,
      "chip": "ym2612"
    },
    {
      "channel": 5,
      "note": 88,
      "start": 37.8606,
      "duration": 0.2,
      "velocity": 85,
      "chip": "ym2612"
    },
    {
      "channel": 0,
      "note": 56,
      "start": 38.059,
      "duration": 0.4,
      "velocity": 90,
      "chip": "ym2612"
    },
    {
      "channel": 4,
      "note": 88,
      "start": 38.0605,
      "duration": 0.1993,
      "velocity": 85,
      "chip": "ym2612"
    },
    {
      "channel": 5,
      "note": 88,
      "start": 38.0612,
      "duration": 0.1993,
      "velocity": 85,
      "chip": "ym2612"
    },
    {
      "channel": 4,
      "note": 88,
      "start": 38.2603,
      "duration": 0.2011,
      "velocity": 85,
      "chip": "ym2612"
    },
    {
      "channel": 5,
      "note": 88,
      "start": 38.2611,
      "duration": 0.2006,
      "velocity": 85,
      "chip": "ym2612"
    },
    {
      "channel": 0,
      "note": 54,
      "start": 38.4596,
      "duration": 0.3999,
      "velocity": 90,
      "chip": "ym2612"
    },
    {
      "channel": 1,
      "note": 76,
      "start": 38.4606,
      "duration": 0.3988,
      "velocity": 101,
      "chip": "ym2612"
    },
    {
      "channel": 5,
      "note": 88,
      "start": 38.4623,
      "duration": 0.1996,
      "velocity": 85,
      "chip": "ym2612"
    },
    {
      "channel": 3,
      "note": 76,
      "start": 38.6608,
      "duration": 0.1987,
      "velocity": 101,
      "chip": "ym2612"
    },
    {
      "channel": 4,
      "note": 85,
      "start": 38.6615,
      "duration": 0.1979,
      "velocity": 85,
      "chip": "ym2612"
    }
  ]
}