{
  "track_name": "03 - Halftime",
  "duration_sec": 36.482,
  "sample_rate": 44100,
  "note_count": 616,
  "unique_pitches": 13,
  "pitch_range": 47,
  "avg_note_duration": 0.0756,
  "reconstruction_stats": {
    "notes_reconstructed": 616,
    "keyon_events": 616,
    "keyoff_events": 616,
    "orphan_keyons": 0,
    "unique_pitches": 13,
    "pitch_range": 47,
    "avg_duration_sec": 0.0756
  },
  "metadata": {
    "source": "N\\NBA Jam\\03 - Halftime.vgz"
  },
  "notes": [
    {
      "channel": 0,
      "note": 33,
      "start": 0.0,
      "duration": 0.2087,
      "velocity": 113,
      "chip": "ym2612"
    },
    {
      "channel": 1,
      "note": 56,
      "start": 0.01,
      "duration": 0.1154,
      "velocity": 108,
      "chip": "ym2612"
    },
    {
      "channel": 3,
      "note": 68,
      "start": 0.0164,
      "duration": 0.0591,
      "velocity": 95,
      "chip": "ym2612"
    },
    {
      "channel": 2,
      "note": 56,
      "start": 0.0266,
      "duration": 0.1157,
      "velocity": 117,
      "chip": "ym2612"
    },
    {
      "channel": 3,
      "note": 73,
      "start": 0.1122,
      "duration": 0.0632,
      "velocity": 95,
      "chip": "ym2612"
    },
    {
      "channel": 3,
      "note": 75,
      "start": 0.2325,
      "duration": 0.0257,
      "velocity": 95,
      "chip": "ym2612"
    },
    {
      "channel": 3,
      "note": 68,
      "start": 0.2801,
      "duration": 0.0312,
      "velocity": 95,
      "chip": "ym2612"
    },
    {
      "channel": 3,
      "note": 73,
      "start": 0.3335,
      "duration": 0.0256,
      "velocity": 95,
      "chip": "ym2612"
    },
    {
      "channel": 3,
      "note": 75,
      "start": 0.374,
      "duration": 0.0278,
      "velocity": 95,
      "chip": "ym2612"
    },
    {
      "channel": 3,
      "note": 68,
      "start": 0.4193,
      "duration": 0.0632,
      "velocity": 95,
      "chip": "ym2612"
    },
    {
      "channel": 1,
      "note": 56,
      "start": 0.5361,
      "duration": 0.0629,
      "velocity": 108,
      "chip": "ym2612"
    },
    {
      "channel": 3,
      "note": 73,
      "start": 0.5388,
      "duration": 0.0604,
      "velocity": 95,
      "chip": "ym2612"
    },
    {
      "channel": 2,
      "note": 56,
      "start": 0.5534,
      "duration": 0.0624,
      "velocity": 117,
      "chip": "ym2612"
    },
    {
      "channel": 0,
      "note": 33,
      "start": 0.636,
      "duration": 0.1796,
      "velocity": 113,
      "chip": "ym2612"
    },
    {
      "channel": 3,
      "note": 78,
      "start": 0.6389,
      "duration": 0.0769,
      "velocity": 95,
      "chip": "ym2612"
    },
    {
      "channel": 1,
      "note": 56,
      "start": 0.7529,
      "duration": 0.0628,
      "velocity": 108,
      "chip": "ym2612"
    },
    {
      "channel": 3,
      "note": 68,
      "start": 0.7556,
      "duration": 0.0768,
      "velocity": 95,
      "chip": "ym2612"
    },
    {
      "channel": 2,
      "note": 56,
      "start": 0.7694,
      "duration": 0.0799,
      "velocity": 117,
      "chip": "ym2612"
    },
    {
      "channel": 3,
      "note": 73,
      "start": 0.8692,
      "duration": 0.0799,
      "velocity": 95,
      "chip": "ym2612"
    },
    {
      "channel": 1,
      "note": 56,
      "start": 0.9861,
      "duration": 0.0629,
      "velocity": 108,
      "chip": "ym2612"
    },
    {
      "channel": 3,
      "note": 68,
      "start": 0.9888,
      "duration": 0.0604,
      "velocity": 95,
      "chip": "ym2612"
    },
    {
      "channel": 2,
      "note": 56,
      "start": 1.0029,
      "duration": 0.063,
      "velocity": 117,
      "chip": "ym2612"
    },
    {
      "channel": 1,
      "note": 56,
      "start": 1.1058,
      "duration": 0.0236,
      "velocity": 108,
      "chip": "ym2612"
    },
    {
      "channel": 3,
      "note": 80,
      "start": 1.1083,
      "duration": 0.0212,
      "velocity": 95,
      "chip": "ym2612"
    },
    {
      "channel": 2,
      "note": 56,
      "start": 1.1148,
      "duration": 0.0207,
      "velocity": 117,
      "chip": "ym2612"
    },
    {
      "channel": 3,
      "note": 68,
      "start": 1.1449,
      "duration": 0.028,
      "velocity": 95,
      "chip": "ym2612"
    },
    {
      "channel": 0,
      "note": 33,
      "start": 1.1873,
      "duration": 0.0736,
      "velocity": 113,
      "chip": "ym2612"
    },
    {
      "channel": 1,
      "note": 56,
      "start": 1.1901,
      "duration": 0.0876,
      "velocity": 108,
      "chip": "ym2612"
    },
    {
      "channel": 3,
      "note": 73,
      "start": 1.1944,
      "duration": 0.0668,
      "velocity": 95,
      "chip": "ym2612"
    },
    {
      "channel": 2,
      "note": 56,
      "start": 1.1997,
      "duration": 0.0948,
      "velocity": 117,
      "chip": "ym2612"
    },
    {
      "channel": 3,
      "note": 75,
      "start": 1.2979,
      "duration": 0.0798,
      "velocity": 95,
      "chip": "ym2612"
    },
    {
      "channel": 0,
      "note": 33,
      "start": 1.4142,
      "duration": 0.1134,
      "velocity": 113,
      "chip": "ym2612"
    },
    {
      "channel": 1,
      "note": 58,
      "start": 1.4173,
      "duration": 0.1104,
      "velocity": 108,
      "chip": "ym2612"
    },
    {
      "channel": 3,
      "note": 68,
      "start": 1.4199,
      "duration": 0.0577,
      "velocity": 95,
      "chip": "ym2612"
    },
    {
      "channel": 2,
      "note": 58,
      "start": 1.4317,
      "duration": 0.1128,
      "velocity": 117,
      "chip": "ym2612"
    },
    {
      "channel": 3,
      "note": 73,
      "start": 1.5314,
      "duration": 0.063,
      "velocity": 95,
      "chip": "ym2612"
    },
    {
      "channel": 3,
      "note": 75,
      "start": 1.6312,
      "duration": 0.0798,
      "velocity": 95,
      "chip": "ym2612"
    },
    {
      "channel": 3,
      "note": 68,
      "start": 1.7479,
      "duration": 0.0798,
      "velocity": 95,
      "chip": "ym2612"
    },
    {
      "channel": 3,
      "note": 73,
      "start": 1.8678,
      "duration": 0.027,
      "velocity": 95,
      "chip": "ym2612"
    },
    {
      "channel": 3,
      "note": 75,
      "start": 1.9109,
      "duration": 0.0206,
      "velocity": 95,
      "chip": "ym2612"
    },
    {
      "channel": 3,
      "note": 68,
      "start": 1.9587,
      "duration": 0.0632,
      "velocity": 95,
      "chip": "ym2612"
    },
    {
      "channel": 1,
      "note": 58,
      "start": 2.0588,
      "duration": 0.063,
      "velocity": 108,
      "chip": "ym2612"
    },
    {
      "channel": 3,
      "note": 73,
      "start": 2.0615,
      "duration": 0.077,
      "velocity": 95,
      "chip": "ym2612"
    },
    {
      "channel": 2,
      "note": 58,
      "start": 2.0925,
      "duration": 0.0627,
      "velocity": 117,
      "chip": "ym2612"
    },
    {
      "channel": 0,
      "note": 33,
      "start": 2.1748,
      "duration": 0.1303,
      "velocity": 113,
      "chip": "ym2612"
    },
    {
      "channel": 3,
      "note": 78,
      "start": 2.1778,
      "duration": 0.0774,
      "velocity": 95,
      "chip": "ym2612"
    },
    {
      "channel": 1,
      "note": 58,
      "start": 2.2919,
      "duration": 0.0465,
      "velocity": 108,
      "chip": "ym2612"
    },
    {
      "channel": 3,
      "note": 68,
      "start": 2.2945,
      "duration": 0.0773,
      "velocity": 95,
      "chip": "ym2612"
    },
    {
      "channel": 2,
      "note": 58,
      "start": 2.3094,
      "duration": 0.0625,
      "velocity": 117,
      "chip": "ym2612"
    },
    {
      "channel": 3,
      "note": 75,
      "start": 2.4087,
      "duration": 0.0632,
      "velocity": 95,
      "chip": "ym2612"
    },
    {
      "channel": 1,
      "note": 58,
      "start": 2.526,
      "duration": 0.0625,
      "velocity": 108,
      "chip": "ym2612"
    },
    {
      "channel": 3,
      "note": 68,
      "start": 2.5286,
      "duration": 0.06,
      "velocity": 95,
      "chip": "ym2612"
    },
    {
      "channel": 2,
      "note": 58,
      "start": 2.5426,
      "duration": 0.0627,
      "velocity": 117,
      "chip": "ym2612"
    },
    {
      "channel": 1,
      "note": 58,
      "start": 2.6285,
      "duration": 0.0294,
      "velocity": 108,
      "chip": "ym2612"
    },
    {
      "channel": 3,
      "note": 73,
      "start": 2.631,
      "duration": 0.0271,
      "velocity": 95,
      "chip": "ym2612"
    },
    {
      "channel": 2,
      "note": 58,
      "start": 2.6375,
      "duration": 0.0267,
      "velocity": 117,
      "chip": "ym2612"
    },
    {
      "channel": 3,
      "note": 68,
      "start": 2.6733,
      "duration": 0.0273,
      "velocity": 95,
      "chip": "ym2612"
    },
    {
      "channel": 1,
      "note": 58,
      "start": 2.7201,
      "duration": 0.113,
      "velocity": 108,
      "chip": "ym2612"
    },
    {
      "channel": 3,
      "note": 73,
      "start": 2.7227,
      "duration": 0.0605,
      "velocity": 95,
      "chip": "ym2612"
    },
    {
      "channel": 2,
      "note": 58,
      "start": 2.7369,
      "duration": 0.113,
      "velocity": 117,
      "chip": "ym2612"
    },
    {
      "channel": 3,
      "note": 75,
      "start": 2.8368,
      "duration": 0.063,
      "velocity": 95,
      "chip": "ym2612"
    },
    {
      "channel": 0,
      "note": 33,
      "start": 2.9528,
      "duration": 0.1469,
      "velocity": 113,
      "chip": "ym2612"
    },
    {
      "channel": 1,
      "note": 59,
      "start": 2.956,
      "duration": 0.1439,
      "velocity": 108,
      "chip": "ym2612"
    },
    {
      "channel": 3,
      "note": 68,
      "start": 2.9586,
      "duration": 0.0578,
      "velocity": 95,
      "chip": "ym2612"
    },
    {
      "channel": 2,
      "note": 59,
      "start": 2.9705,
      "duration": 0.1629,
      "velocity": 117,
      "chip": "ym2612"
    },
    {
      "channel": 3,
      "note": 73,
      "start": 3.0534,
      "duration": 0.0798,
      "velocity": 95,
      "chip": "ym2612"
    },
    {
      "channel": 3,
      "note": 75,
      "start": 3.1738,
      "duration": 0.0325,
      "velocity": 95,
      "chip": "ym2612"
    },
    {
      "channel": 3,
      "note": 68,
      "start": 3.2278,
      "duration": 0.0248,
      "velocity": 95,
      "chip": "ym2612"
    },
    {
      "channel": 3,
      "note": 73,
      "start": 3.282,
      "duration": 0.0205,
      "velocity": 95,
      "chip": "ym2612"
    },
    {
      "channel": 3,
      "note": 75,
      "start": 3.3231,
      "duration": 0.0229,
      "velocity": 95,
      "chip": "ym2612"
    },
    {
      "channel": 3,
      "note": 73,
      "start": 3.3602,
      "duration": 0.0723,
      "velocity": 95,
      "chip": "ym2612"
    },
    {
      "channel": 1,
      "note": 59,
      "start": 3.4696,
      "duration": 0.063,
      "velocity": 108,
      "chip": "ym2612"
    },
    {
      "channel": 3,
      "note": 68,
      "start": 3.4723,
      "duration": 0.077,
      "velocity": 95,
      "chip": "ym2612"
    },
    {
      "channel": 2,
      "note": 59,
      "start": 3.4867,
      "duration": 0.0629,
      "velocity": 117,
      "chip": "ym2612"
    },
    {
      "channel": 0,
      "note": 33,
      "start": 3.5857,
      "duration": 0.1634,
      "velocity": 113,
      "chip": "ym2612"
    },
    {
      "channel": 3,
      "note": 78,
      "start": 3.5887,
      "duration": 0.0606,
      "velocity": 95,
      "chip": "ym2612"
    },
    {
      "channel": 1,
      "note": 59,
      "start": 3.7027,
      "duration": 0.0466,
      "velocity": 108,
      "chip": "ym2612"
    },
    {
      "channel": 3,
      "note": 68,
      "start": 3.7053,
      "duration": 0.0606,
      "velocity": 95,
      "chip": "ym2612"
    },
    {
      "channel": 2,
      "note": 59,
      "start": 3.7197,
      "duration": 0.0464,
      "velocity": 117,
      "chip": "ym2612"
    },
    {
      "channel": 3,
      "note": 73,
      "start": 3.8195,
      "duration": 0.0632,
      "velocity": 95,
      "chip": "ym2612"
    },
    {
      "channel": 1,
      "note": 59,
      "start": 3.9195,
      "duration": 0.063,
      "velocity": 108,
      "chip": "ym2612"
    },
    {
      "channel": 3,
      "note": 68,
      "start": 3.9221,
      "duration": 0.0772,
      "velocity": 95,
      "chip": "ym2612"
    },
    {
      "channel": 2,
      "note": 59,
      "start": 3.9369,
      "duration": 0.0627,
      "velocity": 117,
      "chip": "ym2612"
    },
    {
      "channel": 1,
      "note": 59,
      "start": 4.0397,
      "duration": 0.0296,
      "velocity": 108,
      "chip": "ym2612"
    },
    {
      "channel": 3,
      "note": 80,
      "start": 4.0422,
      "duration": 0.0271,
      "velocity": 95,
      "chip": "ym2612"
    },
    {
      "channel": 2,
      "note": 59,
      "start": 4.0487,
      "duration": 0.033,
      "velocity": 117,
      "chip": "ym2612"
    },
    {
      "channel": 3,
      "note": 68,
      "start": 4.0849,
      "duration": 0.0221,
      "velocity": 95,
      "chip": "ym2612"
    },
    {
      "channel": 0,
      "note": 33,
      "start": 4.1318,
      "duration": 0.0632,
      "velocity": 113,
      "chip": "ym2612"
    },
    {
      "channel": 1,
      "note": 59,
      "start": 4.1348,
      "duration": 0.0768,
      "velocity": 108,
      "chip": "ym2612"
    },
    {
      "channel": 3,
      "note": 73,
      "start": 4.1374,
      "duration": 0.0578,
      "velocity": 95,
      "chip": "ym2612"
    },
    {
      "channel": 2,
      "note": 59,
      "start": 4.1487,
      "duration": 0.0798,
      "velocity": 117,
      "chip": "ym2612"
    },
    {
      "channel": 3,
      "note": 75,
      "start": 4.232,
      "duration": 0.0798,
      "velocity": 95,
      "chip": "ym2612"
    },
    {
      "channel": 0,
      "note": 33,
      "start": 4.3481,
      "duration": 0.1135,
      "velocity": 113,
      "chip": "ym2612"
    },
    {
      "channel": 1,
      "note": 51,
      "start": 4.3512,
      "duration": 0.1438,
      "velocity": 108,
      "chip": "ym2612"
    },
    {
      "channel": 3,
      "note": 68,
      "start": 4.3539,
      "duration": 0.0744,
      "velocity": 95,
      "chip": "ym2612"
    },
    {
      "channel": 2,
      "note": 51,
      "start": 4.3656,
      "duration": 0.1462,
      "velocity": 117,
      "chip": "ym2612"
    },
    {
      "channel": 3,
      "note": 73,
      "start": 4.4653,
      "duration": 0.0797,
      "velocity": 95,
      "chip": "ym2612"
    },
    {
      "channel": 3,
      "note": 75,
      "start": 4.5819,
      "duration": 0.0632,
      "velocity": 95,
      "chip": "ym2612"
    },
    {
      "channel": 3,
      "note": 68,
      "start": 4.6986,
      "duration": 0.0632,
      "velocity": 95,
      "chip": "ym2612"
    },
    {
      "channel": 3,
      "note": 73,
      "start": 4.8019,
      "duration": 0.0273,
      "velocity": 95,
      "chip": "ym2612"
    },
    {
      "channel": 3,
      "note": 75,
      "start": 4.8454,
      "duration": 0.0269,
      "velocity": 95,
      "chip": "ym2612"
    },
    {
      "channel": 3,
      "note": 73,
      "start": 4.8936,
      "duration": 0.0799,
      "velocity": 95,
      "chip": "ym2612"
    },
    {
      "channel": 1,
      "note": 51,
      "start": 5.0105,
      "duration": 0.0629,
      "velocity": 108,
      "chip": "ym2612"
    },
    {
      "channel": 3,
      "note": 68,
      "start": 5.0131,
      "duration": 0.0605,
      "velocity": 95,
      "chip": "ym2612"
    },
    {
      "channel": 2,
      "note": 51,
      "start": 5.0275,
      "duration": 0.0794,
      "velocity": 117,
      "chip": "ym2612"
    },
    {
      "channel": 0,
      "note": 33,
      "start": 5.1265,
      "duration": 0.0635,
      "velocity": 113,
      "chip": "ym2612"
    },
    {
      "channel": 3,
      "note": 78,
      "start": 5.1294,
      "duration": 0.0608,
      "velocity": 95,
      "chip": "ym2612"
    },
    {
      "channel": 1,
      "note": 51,
      "start": 5.2268,
      "duration": 0.0799,
      "velocity": 108,
      "chip": "ym2612"
    },
    {
      "channel": 3,
      "note": 68,
      "start": 5.2295,
      "duration": 0.0774,
      "velocity": 95,
      "chip": "ym2612"
    },
    {
      "channel": 2,
      "note": 51,
      "start": 5.2604,
      "duration": 0.0632,
      "velocity": 117,
      "chip": "ym2612"
    },
    {
      "channel": 3,
      "note": 75,
      "start": 5.3436,
      "duration": 0.0799,
      "velocity": 95,
      "chip": "ym2612"
    },
    {
      "channel": 1,
      "note": 51,
      "start": 5.4604,
      "duration": 0.0796,
      "velocity": 108,
      "chip": "ym2612"
    },
    {
      "channel": 3,
      "note": 68,
      "start": 5.463,
      "duration": 0.0771,
      "velocity": 95,
      "chip": "ym2612"
    },
    {
      "channel": 2,
      "note": 51,
      "start": 5.4773,
      "duration": 0.0796,
      "velocity": 117,
      "chip": "ym2612"
    },
    {
      "channel": 1,
      "note": 51,
      "start": 5.581,
      "duration": 0.018,
      "velocity": 108,
      "chip": "ym2612"
    },
    {
      "channel": 3,
      "note": 73,
      "start": 5.5833,
      "duration": 0.021,
      "velocity": 95,
      "chip": "ym2612"
    },
    {
      "channel": 2,
      "note": 51,
      "start": 5.5899,
      "duration": 0.0145,
      "velocity": 117,
      "chip": "ym2612"
    },
    {
      "channel": 3,
      "note": 68,
      "start": 5.6252,
      "duration": 0.0217,
      "velocity": 95,
      "chip": "ym2612"
    },
    {
      "channel": 1,
      "note": 51,
      "start": 5.6654,
      "duration": 0.0292,
      "velocity": 108,
      "chip": "ym2612"
    },
    {
      "channel": 3,
      "note": 73,
      "start": 5.6679,
      "duration": 0.0268,
      "velocity": 95,
      "chip": "ym2612"
    },
    {
      "channel": 2,
      "note": 51,
      "start": 5.6791,
      "duration": 0.0271,
      "velocity": 117,
      "chip": "ym2612"
    },
    {
      "channel": 3,
      "note": 75,
      "start": 5.7092,
      "duration": 0.0286,
      "velocity": 95,
      "chip": "ym2612"
    },
    {
      "channel": 0,
      "note": 33,
      "start": 5.7544,
      "duration": 0.1958,
      "velocity": 113,
      "chip": "ym2612"
    },
    {
      "channel": 1,
      "note": 56,
      "start": 5.7586,
      "duration": 0.1415,
      "velocity": 108,
      "chip": "ym2612"
    },
    {
      "channel": 3,
      "note": 68,
      "start": 5.7612,
      "duration": 0.0723,
      "velocity": 95,
      "chip": "ym2612"
    },
    {
      "channel": 2,
      "note": 56,
      "start": 5.7709,
      "duration": 0.1462,
      "velocity": 117,
      "chip": "ym2612"
    },
    {
      "channel": 3,
      "note": 73,
      "start": 5.8705,
      "duration": 0.0631,
      "velocity": 95,
      "chip": "ym2612"
    },
    {
      "channel": 3,
      "note": 75,
      "start": 5.9907,
      "duration": 0.0258,
      "velocity": 95,
      "chip": "ym2612"
    },
    {
      "channel": 3,
      "note": 68,
      "start": 6.0385,
      "duration": 0.0314,
      "velocity": 95,
      "chip": "ym2612"
    },
    {
      "channel": 3,
      "note": 73,
      "start": 6.0917,
      "duration": 0.0253,
      "velocity": 95,
      "chip": "ym2612"
    },
    {
      "channel": 3,
      "note": 75,
      "start": 6.1318,
      "duration": 0.028,
      "velocity": 95,
      "chip": "ym2612"
    },
    {
      "channel": 3,
      "note": 73,
      "start": 6.1775,
      "duration": 0.0632,
      "velocity": 95,
      "chip": "ym2612"
    },
    {
      "channel": 1,
      "note": 56,
      "start": 6.2944,
      "duration": 0.0629,
      "velocity": 108,
      "chip": "ym2612"
    },
    {
      "channel": 3,
      "note": 68,
      "start": 6.297,
      "duration": 0.0605,
      "velocity": 95,
      "chip": "ym2612"
    },
    {
      "channel": 2,
      "note": 56,
      "start": 6.3114,
      "duration": 0.0627,
      "velocity": 117,
      "chip": "ym2612"
    },
    {
      "channel": 0,
      "note": 33,
      "start": 6.3937,
      "duration": 0.1802,
      "velocity": 113,
      "chip": "ym2612"
    },
    {
      "channel": 3,
      "note": 80,
      "start": 6.3966,
      "duration": 0.0774,
      "velocity": 95,
      "chip": "ym2612"
    },
    {
      "channel": 1,
      "note": 56,
      "start": 6.511,
      "duration": 0.063,
      "velocity": 108,
      "chip": "ym2612"
    },
    {
      "channel": 3,
      "note": 68,
      "start": 6.5136,
      "duration": 0.077,
      "velocity": 95,
      "chip": "ym2612"
    },
    {
      "channel": 2,
      "note": 56,
      "start": 6.5278,
      "duration": 0.0631,
      "velocity": 117,
      "chip": "ym2612"
    },
    {
      "channel": 3,
      "note": 73,
      "start": 6.6275,
      "duration": 0.0799,
      "velocity": 95,
      "chip": "ym2612"
    },
    {
      "channel": 1,
      "note": 56,
      "start": 6.7442,
      "duration": 0.0463,
      "velocity": 108,
      "chip": "ym2612"
    },
    {
      "channel": 3,
      "note": 68,
      "start": 6.7468,
      "duration": 0.0605,
      "velocity": 95,
      "chip": "ym2612"
    },
    {
      "channel": 2,
      "note": 56,
      "start": 6.7612,
      "duration": 0.0464,
      "velocity": 117,
      "chip": "ym2612"
    },
    {
      "channel": 1,
      "note": 56,
      "start": 6.8643,
      "duration": 0.0293,
      "velocity": 108,
      "chip": "ym2612"
    },
    {
      "channel": 3,
      "note": 75,
      "start": 6.8666,
      "duration": 0.0213,
      "velocity": 95,
      "chip": "ym2612"
    },
    {
      "channel": 2,
      "note": 56,
      "start": 6.8733,
      "duration": 0.0266,
      "velocity": 117,
      "chip": "ym2612"
    },
    {
      "channel": 3,
      "note": 68,
      "start": 6.903,
      "duration": 0.028,
      "velocity": 95,
      "chip": "ym2612"
    },
    {
      "channel": 0,
      "note": 33,
      "start": 6.9455,
      "duration": 0.0735,
      "velocity": 113,
      "chip": "ym2612"
    },
    {
      "channel": 1,
      "note": 56,
      "start": 6.9497,
      "duration": 0.0693,
      "velocity": 108,
      "chip": "ym2612"
    },
    {
      "channel": 3,
      "note": 73,
      "start": 6.9523,
      "duration": 0.0668,
      "velocity": 95,
      "chip": "ym2612"
    },
    {
      "channel": 2,
      "note": 56,
      "start": 6.958,
      "duration": 0.0778,
      "velocity": 117,
      "chip": "ym2612"
    },
    {
      "channel": 3,
      "note": 78,
      "start": 7.0559,
      "duration": 0.0798,
      "velocity": 95,
      "chip": "ym2612"
    },
    {
      "channel": 0,
      "note": 33,
      "start": 7.1722,
      "duration": 0.1134,
      "velocity": 113,
      "chip": "ym2612"
    },
    {
      "channel": 1,
      "note": 58,
      "start": 7.1753,
      "duration": 0.1104,
      "velocity": 108,
      "chip": "ym2612"
    },
    {
      "channel": 3,
      "note": 68,
      "start": 7.1779,
      "duration": 0.0577,
      "velocity": 95,
      "chip": "ym2612"
    },
    {
      "channel": 2,
      "note": 58,
      "start": 7.1897,
      "duration": 0.1128,
      "velocity": 117,
      "chip": "ym2612"
    },
    {
      "channel": 3,
      "note": 73,
      "start": 7.2893,
      "duration": 0.063,
      "velocity": 95,
      "chip": "ym2612"
    },
    {
      "channel": 3,
      "note": 75,
      "start": 7.3892,
      "duration": 0.0798,
      "velocity": 95,
      "chip": "ym2612"
    },
    {
      "channel": 3,
      "note": 68,
      "start": 7.5059,
      "duration": 0.0798,
      "velocity": 95,
      "chip": "ym2612"
    },
    {
      "channel": 3,
      "note": 73,
      "start": 7.6258,
      "duration": 0.021,
      "velocity": 95,
      "chip": "ym2612"
    },
    {
      "channel": 3,
      "note": 75,
      "start": 7.6688,
      "duration": 0.0206,
      "velocity": 95,
      "chip": "ym2612"
    },
    {
      "channel": 3,
      "note": 73,
      "start": 7.7167,
      "duration": 0.0632,
      "velocity": 95,
      "chip": "ym2612"
    },
    {
      "channel": 1,
      "note": 58,
      "start": 7.8168,
      "duration": 0.0797,
      "velocity": 108,
      "chip": "ym2612"
    },
    {
      "channel": 3,
      "note": 68,
      "start": 7.8195,
      "duration": 0.0772,
      "velocity": 95,
      "chip": "ym2612"
    },
    {
      "channel": 2,
      "note": 58,
      "start": 7.8339,
      "duration": 0.0793,
      "velocity": 117,
      "chip": "ym2612"
    },
    {
      "channel": 0,
      "note": 33,
      "start": 7.9328,
      "duration": 0.1303,
      "velocity": 113,
      "chip": "ym2612"
    },
    {
      "channel": 3,
      "note": 78,
      "start": 7.9357,
      "duration": 0.0774,
      "velocity": 95,
      "chip": "ym2612"
    },
    {
      "channel": 1,
      "note": 58,
      "start": 8.05,
      "duration": 0.0464,
      "velocity": 108,
      "chip": "ym2612"
    },
    {
      "channel": 3,
      "note": 68,
      "start": 8.0526,
      "duration": 0.0605,
      "velocity": 95,
      "chip": "ym2612"
    },
    {
      "channel": 2,
      "note": 58,
      "start": 8.0671,
      "duration": 0.0462,
      "velocity": 117,
      "chip": "ym2612"
    },
    {
      "channel": 3,
      "note": 75,
      "start": 8.1666,
      "duration": 0.0632,
      "velocity": 95,
      "chip": "ym2612"
    },
    {
      "channel": 1,
      "note": 58,
      "start": 8.2835,
      "duration": 0.0629,
      "velocity": 108,
      "chip": "ym2612"
    },
    {
      "channel": 3,
      "note": 68,
      "start": 8.2861,
      "duration": 0.0605,
      "velocity": 95,
      "chip": "ym2612"
    },
    {
      "channel": 2,
      "note": 58,
      "start": 8.3005,
      "duration": 0.0794,
      "velocity": 117,
      "chip": "ym2612"
    },
    {
      "channel": 1,
      "note": 58,
      "start": 8.3866,
      "duration": 0.03,
      "velocity": 108,
      "chip": "ym2612"
    },
    {
      "channel": 3,
      "note": 73,
      "start": 8.3891,
      "duration": 0.0275,
      "velocity": 95,
      "chip": "ym2612"
    },
    {
      "channel": 2,
      "note": 58,
      "start": 8.3961,
      "duration": 0.0269,
      "velocity": 117,
      "chip": "ym2612"
    },
    {
      "channel": 3,
      "note": 68,
      "start": 8.4322,
      "duration": 0.0276,
      "velocity": 95,
      "chip": "ym2612"
    },
    {
      "channel": 1,
      "note": 58,
      "start": 8.4796,
      "duration": 0.0961,
      "velocity": 108,
      "chip": "ym2612"
    },
    {
      "channel": 3,
      "note": 73,
      "start": 8.4822,
      "duration": 0.0602,
      "velocity": 95,
      "chip": "ym2612"
    },
    {
      "channel": 2,
      "note": 58,
      "start": 8.4966,
      "duration": 0.0958,
      "velocity": 117,
      "chip": "ym2612"
    },
    {
      "channel": 3,
      "note": 75,
      "start": 8.5959,
      "duration": 0.0632,
      "velocity": 95,
      "chip": "ym2612"
    },
    {
      "channel": 0,
      "note": 33,
      "start": 8.7123,
      "duration": 0.1466,
      "velocity": 113,
      "chip": "ym2612"
    },
    {
      "channel": 1,
      "note": 59,
      "start": 8.7155,
      "duration": 0.1601,
      "velocity": 108,
      "chip": "ym2612"
    },
    {
      "channel": 3,
      "note": 68,
      "start": 8.7181,
      "duration": 0.0576,
      "velocity": 95,
      "chip": "ym2612"
    },
    {
      "channel": 2,
      "note": 59,
      "start": 8.7295,
      "duration": 0.1631,
      "velocity": 117,
      "chip": "ym2612"
    },
    {
      "channel": 3,
      "note": 73,
      "start": 8.8124,
      "duration": 0.08,
      "velocity": 95,
      "chip": "ym2612"
    },
    {
      "channel": 3,
      "note": 75,
      "start": 8.9326,
      "duration": 0.0327,
      "velocity": 95,
      "chip": "ym2612"
    },
    {
      "channel": 3,
      "note": 68,
      "start": 8.9865,
      "duration": 0.0243,
      "velocity": 95,
      "chip": "ym2612"
    },
    {
      "channel": 3,
      "note": 73,
      "start": 9.0407,
      "duration": 0.0205,
      "velocity": 95,
      "chip": "ym2612"
    },
    {
      "channel": 3,
      "note": 75,
      "start": 9.0813,
      "duration": 0.023,
      "velocity": 95,
      "chip": "ym2612"
    },
    {
      "channel": 3,
      "note": 73,
      "start": 9.1185,
      "duration": 0.0724,
      "velocity": 95,
      "chip": "ym2612"
    },
    {
      "channel": 1,
      "note": 59,
      "start": 9.2279,
      "duration": 0.0463,
      "velocity": 108,
      "chip": "ym2612"
    },
    {
      "channel": 3,
      "note": 68,
      "start": 9.2305,
      "duration": 0.0771,
      "velocity": 95,
      "chip": "ym2612"
    },
    {
      "channel": 2,
      "note": 59,
      "start": 9.2448,
      "duration": 0.0795,
      "velocity": 117,
      "chip": "ym2612"
    },
    {
      "channel": 0,
      "note": 33,
      "start": 9.3439,
      "duration": 0.1636,
      "velocity": 113,
      "chip": "ym2612"
    },
    {
      "channel": 3,
      "note": 80,
      "start": 9.3468,
      "duration": 0.0608,
      "velocity": 95,
      "chip": "ym2612"
    },
    {
      "channel": 1,
      "note": 59,
      "start": 9.461,
      "duration": 0.0466,
      "velocity": 108,
      "chip": "ym2612"
    },
    {
      "channel": 3,
      "note": 68,
      "start": 9.4636,
      "duration": 0.0605,
      "velocity": 95,
      "chip": "ym2612"
    },
    {
      "channel": 2,
      "note": 59,
      "start": 9.478,
      "duration": 0.0464,
      "velocity": 117,
      "chip": "ym2612"
    },
    {
      "channel": 3,
      "note": 78,
      "start": 9.561,
      "duration": 0.0799,
      "velocity": 95,
      "chip": "ym2612"
    },
    {
      "channel": 1,
      "note": 59,
      "start": 9.6778,
      "duration": 0.063,
      "velocity": 108,
      "chip": "ym2612"
    },
    {
      "channel": 3,
      "note": 68,
      "start": 9.6804,
      "duration": 0.077,
      "velocity": 95,
      "chip": "ym2612"
    },
    {
      "channel": 2,
      "note": 59,
      "start": 9.6949,
      "duration": 0.0794,
      "velocity": 117,
      "chip": "ym2612"
    },
    {
      "channel": 1,
      "note": 59,
      "start": 9.7976,
      "duration": 0.0354,
      "velocity": 108,
      "chip": "ym2612"
    },
    {
      "channel": 3,
      "note": 75,
      "start": 9.8001,
      "duration": 0.0269,
      "velocity": 95,
      "chip": "ym2612"
    },
    {
      "channel": 2,
      "note": 59,
      "start": 9.8068,
      "duration": 0.0397,
      "velocity": 117,
      "chip": "ym2612"
    },
    {
      "channel": 3,
      "note": 68,
      "start": 9.8423,
      "duration": 0.0219,
      "velocity": 95,
      "chip": "ym2612"
    },
    {
      "channel": 0,
      "note": 33,
      "start": 9.8884,
      "duration": 0.0634,
      "velocity": 113,
      "chip": "ym2612"
    },
    {
      "channel": 1,
      "note": 59,
      "start": 9.8914,
      "duration": 0.0606,
      "velocity": 108,
      "chip": "ym2612"
    },
    {
      "channel": 3,
      "note": 73,
      "start": 9.894,
      "duration": 0.0581,
      "velocity": 95,
      "chip": "ym2612"
    },
    {
      "channel": 2,
      "note": 59,
      "start": 9.9061,
      "duration": 0.0793,
      "velocity": 117,
      "chip": "ym2612"
    },
    {
      "channel": 3,
      "note": 75,
      "start": 9.989,
      "duration": 0.0798,
      "velocity": 95,
      "chip": "ym2612"
    },
    {
      "channel": 0,
      "note": 33,
      "start": 10.1051,
      "duration": 0.1135,
      "velocity": 113,
      "chip": "ym2612"
    },
    {
      "channel": 1,
      "note": 51,
      "start": 10.1086,
      "duration": 0.1267,
      "velocity": 108,
      "chip": "ym2612"
    },
    {
      "channel": 3,
      "note": 68,
      "start": 10.1112,
      "duration": 0.074,
      "velocity": 95,
      "chip": "ym2612"
    },
    {
      "channel": 2,
      "note": 51,
      "start": 10.1227,
      "duration": 0.1461,
      "velocity": 117,
      "chip": "ym2612"
    },
    {
      "channel": 3,
      "note": 73,
      "start": 10.2223,
      "duration": 0.0797,
      "velocity": 95,
      "chip": "ym2612"
    },
    {
      "channel": 3,
      "note": 75,
      "start": 10.3389,
      "duration": 0.0632,
      "velocity": 95,
      "chip": "ym2612"
    },
    {
      "channel": 3,
      "note": 68,
      "start": 10.4556,
      "duration": 0.0632,
      "velocity": 95,
      "chip": "ym2612"
    },
    {
      "channel": 3,
      "note": 73,
      "start": 10.5589,
      "duration": 0.0273,
      "velocity": 95,
      "chip": "ym2612"
    },
    {
      "channel": 3,
      "note": 75,
      "start": 10.6023,
      "duration": 0.0269,
      "velocity": 95,
      "chip": "ym2612"
    },
    {
      "channel": 3,
      "note": 73,
      "start": 10.6505,
      "duration": 0.0799,
      "velocity": 95,
      "chip": "ym2612"
    },
    {
      "channel": 1,
      "note": 51,
      "start": 10.7674,
      "duration": 0.0629,
      "velocity": 108,
      "chip": "ym2612"
    },
    {
      "channel": 3,
      "note": 68,
      "start": 10.77,
      "duration": 0.0605,
      "velocity": 95,
      "chip": "ym2612"
    },
    {
      "channel": 2,
      "note": 51,
      "start": 10.7844,
      "duration": 0.0794,
      "velocity": 117,
      "chip": "ym2612"
    },
    {
      "channel": 0,
      "note": 33,
      "start": 10.8834,
      "duration": 0.0635,
      "velocity": 113,
      "chip": "ym2612"
    },
    {
      "channel": 3,
      "note": 78,
      "start": 10.8863,
      "duration": 0.0608,
      "velocity": 95,
      "chip": "ym2612"
    },
    {
      "channel": 1,
      "note": 51,
      "start": 10.9839,
      "duration": 0.063,
      "velocity": 108,
      "chip": "ym2612"
    },
    {
      "channel": 3,
      "note": 68,
      "start": 10.9866,
      "duration": 0.0771,
      "velocity": 95,
      "chip": "ym2612"
    },
    {
      "channel": 2,
      "note": 51,
      "start": 11.0173,
      "duration": 0.0632,
      "velocity": 117,
      "chip": "ym2612"
    },
    {
      "channel": 3,
      "note": 75,
      "start": 11.1005,
      "duration": 0.0799,
      "velocity": 95,
      "chip": "ym2612"
    },
    {
      "channel": 1,
      "note": 51,
      "start": 11.2175,
      "duration": 0.0795,
      "velocity": 108,
      "chip": "ym2612"
    },
    {
      "channel": 3,
      "note": 68,
      "start": 11.2201,
      "duration": 0.077,
      "velocity": 95,
      "chip": "ym2612"
    },
    {
      "channel": 2,
      "note": 51,
      "start": 11.2342,
      "duration": 0.0796,
      "velocity": 117,
      "chip": "ym2612"
    },
    {
      "channel": 1,
      "note": 51,
      "start": 11.3373,
      "duration": 0.0115,
      "velocity": 108,
      "chip": "ym2612"
    },
    {
      "channel": 3,
      "note": 73,
      "start": 11.3396,
      "duration": 0.0213,
      "velocity": 95,
      "chip": "ym2612"
    },
    {
      "channel": 2,
      "note": 51,
      "start": 11.3463,
      "duration": 0.0096,
      "velocity": 117,
      "chip": "ym2612"
    },
    {
      "channel": 3,
      "note": 68,
      "start": 11.3821,
      "duration": 0.0217,
      "velocity": 95,
      "chip": "ym2612"
    },
    {
      "channel": 1,
      "note": 51,
      "start": 11.4223,
      "duration": 0.0344,
      "velocity": 108,
      "chip": "ym2612"
    },
    {
      "channel": 3,
      "note": 73,
      "start": 11.4248,
      "duration": 0.0267,
      "velocity": 95,
      "chip": "ym2612"
    },
    {
      "channel": 2,
      "note": 51,
      "start": 11.4361,
      "duration": 0.0366,
      "velocity": 117,
      "chip": "ym2612"
    },
    {
      "channel": 3,
      "note": 75,
      "start": 11.4702,
      "duration": 0.0259,
      "velocity": 95,
      "chip": "ym2612"
    },
    {
      "channel": 0,
      "note": 33,
      "start": 11.513,
      "duration": 0.1249,
      "velocity": 113,
      "chip": "ym2612"
    },
    {
      "channel": 1,
      "note": 52,
      "start": 11.518,
      "duration": 0.0867,
      "velocity": 108,
      "chip": "ym2612"
    },
    {
      "channel": 3,
      "note": 68,
      "start": 11.5214,
      "duration": 0.021,
      "velocity": 95,
      "chip": "ym2612"
    },
    {
      "channel": 2,
      "note": 52,
      "start": 11.5266,
      "duration": 0.1116,
      "velocity": 117,
      "chip": "ym2612"
    },
    {
      "channel": 3,
      "note": 73,
      "start": 11.5584,
      "duration": 0.0631,
      "velocity": 95,
      "chip": "ym2612"
    },
    {
      "channel": 3,
      "note": 75,
      "start": 11.6785,
      "duration": 0.0258,
      "velocity": 95,
      "chip": "ym2612"
    },
    {
      "channel": 3,
      "note": 68,
      "start": 11.7263,
      "duration": 0.0314,
      "velocity": 95,
      "chip": "ym2612"
    },
    {
      "channel": 3,
      "note": 73,
      "start": 11.78,
      "duration": 0.0256,
      "velocity": 95,
      "chip": "ym2612"
    },
    {
      "channel": 3,
      "note": 75,
      "start": 11.8207,
      "duration": 0.0284,
      "velocity": 95,
      "chip": "ym2612"
    },
    {
      "channel": 3,
      "note": 73,
      "start": 11.8664,
      "duration": 0.0632,
      "velocity": 95,
      "chip": "ym2612"
    },
    {
      "channel": 1,
      "note": 52,
      "start": 11.9833,
      "duration": 0.0629,
      "velocity": 108,
      "chip": "ym2612"
    },
    {
      "channel": 3,
      "note": 68,
      "start": 11.9859,
      "duration": 0.0605,
      "velocity": 95,
      "chip": "ym2612"
    },
    {
      "channel": 2,
      "note": 52,
      "start": 12.0003,
      "duration": 0.0627,
      "velocity": 117,
      "chip": "ym2612"
    },
    {
      "channel": 0,
      "note": 33,
      "start": 12.0826,
      "duration": 0.1802,
      "velocity": 113,
      "chip": "ym2612"
    },
    {
      "channel": 3,
      "note": 78,
      "start": 12.0856,
      "duration": 0.0774,
      "velocity": 95,
      "chip": "ym2612"
    },
    {
      "channel": 1,
      "note": 52,
      "start": 12.1999,
      "duration": 0.063,
      "velocity": 108,
      "chip": "ym2612"
    },
    {
      "channel": 3,
      "note": 68,
      "start": 12.2025,
      "duration": 0.077,
      "velocity": 95,
      "chip": "ym2612"
    },
    {
      "channel": 2,
      "note": 52,
      "start": 12.2167,
      "duration": 0.0631,
      "velocity": 117,
      "chip": "ym2612"
    },
    {
      "channel": 3,
      "note": 75,
      "start": 12.3164,
      "duration": 0.0799,
      "velocity": 95,
      "chip": "ym2612"
    },
    {
      "channel": 1,
      "note": 52,
      "start": 12.4332,
      "duration": 0.0463,
      "velocity": 108,
      "chip": "ym2612"
    },
    {
      "channel": 3,
      "note": 68,
      "start": 12.4358,
      "duration": 0.0605,
      "velocity": 95,
      "chip": "ym2612"
    },
    {
      "channel": 2,
      "note": 52,
      "start": 12.4501,
      "duration": 0.0464,
      "velocity": 117,
      "chip": "ym2612"
    },
    {
      "channel": 1,
      "note": 52,
      "start": 12.5532,
      "duration": 0.0293,
      "velocity": 108,
      "chip": "ym2612"
    },
    {
      "channel": 3,
      "note": 73,
      "start": 12.5555,
      "duration": 0.0213,
      "velocity": 95,
      "chip": "ym2612"
    },
    {
      "channel": 2,
      "note": 52,
      "start": 12.5622,
      "duration": 0.0266,
      "velocity": 117,
      "chip": "ym2612"
    },
    {
      "channel": 3,
      "note": 68,
      "start": 12.5919,
      "duration": 0.0279,
      "velocity": 95,
      "chip": "ym2612"
    },
    {
      "channel": 0,
      "note": 33,
      "start": 12.6344,
      "duration": 0.0736,
      "velocity": 113,
      "chip": "ym2612"
    },
    {
      "channel": 1,
      "note": 52,
      "start": 12.6371,
      "duration": 0.071,
      "velocity": 108,
      "chip": "ym2612"
    },
    {
      "channel": 3,
      "note": 73,
      "start": 12.6414,
      "duration": 0.0668,
      "velocity": 95,
      "chip": "ym2612"
    },
    {
      "channel": 2,
      "note": 52,
      "start": 12.6467,
      "duration": 0.0781,
      "velocity": 117,
      "chip": "ym2612"
    },
    {
      "channel": 3,
      "note": 75,
      "start": 12.7449,
      "duration": 0.0632,
      "velocity": 95,
      "chip": "ym2612"
    },
    {
      "channel": 0,
      "note": 33,
      "start": 12.8612,
      "duration": 0.1134,
      "velocity": 113,
      "chip": "ym2612"
    },
    {
      "channel": 1,
      "note": 54,
      "start": 12.8647,
      "duration": 0.1433,
      "velocity": 108,
      "chip": "ym2612"
    },
    {
      "channel": 3,
      "note": 68,
      "start": 12.8673,
      "duration": 0.0573,
      "velocity": 95,
      "chip": "ym2612"
    },
    {
      "channel": 2,
      "note": 54,
      "start": 12.879,
      "duration": 0.1459,
      "velocity": 117,
      "chip": "ym2612"
    },
    {
      "channel": 3,
      "note": 73,
      "start": 12.9783,
      "duration": 0.0631,
      "velocity": 95,
      "chip": "ym2612"
    },
    {
      "channel": 3,
      "note": 75,
      "start": 13.0783,
      "duration": 0.0798,
      "velocity": 95,
      "chip": "ym2612"
    },
    {
      "channel": 3,
      "note": 68,
      "start": 13.1949,
      "duration": 0.0798,
      "velocity": 95,
      "chip": "ym2612"
    },
    {
      "channel": 3,
      "note": 73,
      "start": 13.3149,
      "duration": 0.021,
      "velocity": 95,
      "chip": "ym2612"
    },
    {
      "channel": 3,
      "note": 75,
      "start": 13.3578,
      "duration": 0.0206,
      "velocity": 95,
      "chip": "ym2612"
    },
    {
      "channel": 3,
      "note": 73,
      "start": 13.4057,
      "duration": 0.0632,
      "velocity": 95,
      "chip": "ym2612"
    },
    {
      "channel": 1,
      "note": 54,
      "start": 13.5058,
      "duration": 0.063,
      "velocity": 108,
      "chip": "ym2612"
    },
    {
      "channel": 3,
      "note": 68,
      "start": 13.5084,
      "duration": 0.077,
      "velocity": 95,
      "chip": "ym2612"
    },
    {
      "channel": 2,
      "note": 54,
      "start": 13.5229,
      "duration": 0.0629,
      "velocity": 117,
      "chip": "ym2612"
    },
    {
      "channel": 0,
      "note": 33,
      "start": 13.6218,
      "duration": 0.1302,
      "velocity": 113,
      "chip": "ym2612"
    },
    {
      "channel": 3,
      "note": 80,
      "start": 13.6247,
      "duration": 0.0774,
      "velocity": 95,
      "chip": "ym2612"
    },
    {
      "channel": 1,
      "note": 54,
      "start": 13.7388,
      "duration": 0.0465,
      "velocity": 108,
      "chip": "ym2612"
    },
    {
      "channel": 3,
      "note": 68,
      "start": 13.7414,
      "duration": 0.0607,
      "velocity": 95,
      "chip": "ym2612"
    },
    {
      "channel": 2,
      "note": 54,
      "start": 13.7559,
      "duration": 0.0465,
      "velocity": 117,
      "chip": "ym2612"
    },
    {
      "channel": 3,
      "note": 78,
      "start": 13.8556,
      "duration": 0.0632,
      "velocity": 95,
      "chip": "ym2612"
    },
    {
      "channel": 1,
      "note": 54,
      "start": 13.9724,
      "duration": 0.0464,
      "velocity": 108,
      "chip": "ym2612"
    },
    {
      "channel": 3,
      "note": 68,
      "start": 13.975,
      "duration": 0.0604,
      "velocity": 95,
      "chip": "ym2612"
    },
    {
      "channel": 2,
      "note": 54,
      "start": 13.9893,
      "duration": 0.0464,
      "velocity": 117,
      "chip": "ym2612"
    },
    {
      "channel": 1,
      "note": 54,
      "start": 14.0755,
      "duration": 0.0294,
      "velocity": 108,
      "chip": "ym2612"
    },
    {
      "channel": 3,
      "note": 75,
      "start": 14.0778,
      "duration": 0.0272,
      "velocity": 95,
      "chip": "ym2612"
    },
    {
      "channel": 2,
      "note": 54,
      "start": 14.0846,
      "duration": 0.0327,
      "velocity": 117,
      "chip": "ym2612"
    },
    {
      "channel": 3,
      "note": 68,
      "start": 14.1203,
      "duration": 0.0273,
      "velocity": 95,
      "chip": "ym2612"
    },
    {
      "channel": 1,
      "note": 54,
      "start": 14.167,
      "duration": 0.0964,
      "velocity": 108,
      "chip": "ym2612"
    },
    {
      "channel": 3,
      "note": 73,
      "start": 14.1696,
      "duration": 0.0605,
      "velocity": 95,
      "chip": "ym2612"
    },
    {
      "channel": 2,
      "note": 54,
      "start": 14.1838,
      "duration": 0.0966,
      "velocity": 117,
      "chip": "ym2612"
    },
    {
      "channel": 3,
      "note": 75,
      "start": 14.2838,
      "duration": 0.063,
      "velocity": 95,
      "chip": "ym2612"
    },
    {
      "channel": 0,
      "note": 33,
      "start": 14.3835,
      "duration": 0.1632,
      "velocity": 113,
      "chip": "ym2612"
    },
    {
      "channel": 1,
      "note": 52,
      "start": 14.3866,
      "duration": 0.1767,
      "velocity": 108,
      "chip": "ym2612"
    },
    {
      "channel": 3,
      "note": 68,
      "start": 14.3892,
      "duration": 0.0742,
      "velocity": 95,
      "chip": "ym2612"
    },
    {
      "channel": 2,
      "note": 52,
      "start": 14.4174,
      "duration": 0.1795,
      "velocity": 117,
      "chip": "ym2612"
    },
    {
      "channel": 3,
      "note": 73,
      "start": 14.5004,
      "duration": 0.0798,
      "velocity": 95,
      "chip": "ym2612"
    },
    {
      "channel": 3,
      "note": 75,
      "start": 14.6205,
      "duration": 0.0323,
      "velocity": 95,
      "chip": "ym2612"
    },
    {
      "channel": 3,
      "note": 68,
      "start": 14.6739,
      "duration": 0.0243,
      "velocity": 95,
      "chip": "ym2612"
    },
    {
      "channel": 3,
      "note": 73,
      "start": 14.7281,
      "duration": 0.0205,
      "velocity": 95,
      "chip": "ym2612"
    },
    {
      "channel": 3,
      "note": 75,
      "start": 14.7628,
      "duration": 0.029,
      "velocity": 95,
      "chip": "ym2612"
    },
    {
      "channel": 3,
      "note": 73,
      "start": 14.806,
      "duration": 0.0724,
      "velocity": 95,
      "chip": "ym2612"
    },
    {
      "channel": 1,
      "note": 52,
      "start": 14.9159,
      "duration": 0.0459,
      "velocity": 108,
      "chip": "ym2612"
    },
    {
      "channel": 3,
      "note": 68,
      "start": 14.9185,
      "duration": 0.0767,
      "velocity": 95,
      "chip": "ym2612"
    },
    {
      "channel": 2,
      "note": 52,
      "start": 14.9328,
      "duration": 0.0626,
      "velocity": 117,
      "chip": "ym2612"
    },
    {
      "channel": 0,
      "note": 33,
      "start": 15.0316,
      "duration": 0.1634,
      "velocity": 113,
      "chip": "ym2612"
    },
    {
      "channel": 3,
      "note": 78,
      "start": 15.0345,
      "duration": 0.0606,
      "velocity": 95,
      "chip": "ym2612"
    },
    {
      "channel": 1,
      "note": 52,
      "start": 15.1485,
      "duration": 0.0466,
      "velocity": 108,
      "chip": "ym2612"
    },
    {
      "channel": 3,
      "note": 68,
      "start": 15.1511,
      "duration": 0.0606,
      "velocity": 95,
      "chip": "ym2612"
    },
    {
      "channel": 2,
      "note": 52,
      "start": 15.1655,
      "duration": 0.0464,
      "velocity": 117,
      "chip": "ym2612"
    },
    {
      "channel": 3,
      "note": 75,
      "start": 15.2486,
      "duration": 0.0799,
      "velocity": 95,
      "chip": "ym2612"
    },
    {
      "channel": 1,
      "note": 52,
      "start": 15.3653,
      "duration": 0.063,
      "velocity": 108,
      "chip": "ym2612"
    },
    {
      "channel": 3,
      "note": 68,
      "start": 15.3679,
      "duration": 0.0771,
      "velocity": 95,
      "chip": "ym2612"
    },
    {
      "channel": 2,
      "note": 52,
      "start": 15.3824,
      "duration": 0.0794,
      "velocity": 117,
      "chip": "ym2612"
    },
    {
      "channel": 1,
      "note": 52,
      "start": 15.4852,
      "duration": 0.029,
      "velocity": 108,
      "chip": "ym2612"
    },
    {
      "channel": 3,
      "note": 73,
      "start": 15.4875,
      "duration": 0.0268,
      "velocity": 95,
      "chip": "ym2612"
    },
    {
      "channel": 2,
      "note": 52,
      "start": 15.494,
      "duration": 0.0265,
      "velocity": 117,
      "chip": "ym2612"
    },
    {
      "channel": 3,
      "note": 68,
      "start": 15.5296,
      "duration": 0.0217,
      "velocity": 95,
      "chip": "ym2612"
    },
    {
      "channel": 0,
      "note": 33,
      "start": 15.5755,
      "duration": 0.0634,
      "velocity": 113,
      "chip": "ym2612"
    },
    {
      "channel": 1,
      "note": 52,
      "start": 15.5785,
      "duration": 0.0439,
      "velocity": 108,
      "chip": "ym2612"
    },
    {
      "channel": 3,
      "note": 73,
      "start": 15.5811,
      "duration": 0.058,
      "velocity": 95,
      "chip": "ym2612"
    },
    {
      "channel": 2,
      "note": 52,
      "start": 15.5928,
      "duration": 0.0465,
      "velocity": 117,
      "chip": "ym2612"
    },
    {
      "channel": 3,
      "note": 75,
      "start": 15.676,
      "duration": 0.0798,
      "velocity": 95,
      "chip": "ym2612"
    },
    {
      "channel": 0,
      "note": 33,
      "start": 15.7923,
      "duration": 0.1134,
      "velocity": 113,
      "chip": "ym2612"
    },
    {
      "channel": 1,
      "note": 54,
      "start": 15.7954,
      "duration": 0.0936,
      "velocity": 108,
      "chip": "ym2612"
    },
    {
      "channel": 3,
      "note": 68,
      "start": 15.798,
      "duration": 0.0745,
      "velocity": 95,
      "chip": "ym2612"
    },
    {
      "channel": 2,
      "note": 54,
      "start": 15.8097,
      "duration": 0.0963,
      "velocity": 117,
      "chip": "ym2612"
    },
    {
      "channel": 3,
      "note": 73,
      "start": 15.9094,
      "duration": 0.0797,
      "velocity": 95,
      "chip": "ym2612"
    },
    {
      "channel": 3,
      "note": 75,
      "start": 16.026,
      "duration": 0.0632,
      "velocity": 95,
      "chip": "ym2612"
    },
    {
      "channel": 3,
      "note": 68,
      "start": 16.1427,
      "duration": 0.0632,
      "velocity": 95,
      "chip": "ym2612"
    },
    {
      "channel": 3,
      "note": 73,
      "start": 16.246,
      "duration": 0.0273,
      "velocity": 95,
      "chip": "ym2612"
    },
    {
      "channel": 3,
      "note": 75,
      "start": 16.2894,
      "duration": 0.027,
      "velocity": 95,
      "chip": "ym2612"
    },
    {
      "channel": 3,
      "note": 73,
      "start": 16.3377,
      "duration": 0.0799,
      "velocity": 95,
      "chip": "ym2612"
    },
    {
      "channel": 1,
      "note": 54,
      "start": 16.4546,
      "duration": 0.0463,
      "velocity": 108,
      "chip": "ym2612"
    },
    {
      "channel": 3,
      "note": 68,
      "start": 16.4572,
      "duration": 0.0603,
      "velocity": 95,
      "chip": "ym2612"
    },
    {
      "channel": 2,
      "note": 54,
      "start": 16.4716,
      "duration": 0.0627,
      "velocity": 117,
      "chip": "ym2612"
    },
    {
      "channel": 0,
      "note": 33,
      "start": 16.5706,
      "duration": 0.0635,
      "velocity": 113,
      "chip": "ym2612"
    },
    {
      "channel": 3,
      "note": 78,
      "start": 16.5735,
      "duration": 0.0607,
      "velocity": 95,
      "chip": "ym2612"
    },
    {
      "channel": 1,
      "note": 54,
      "start": 16.6713,
      "duration": 0.0629,
      "velocity": 108,
      "chip": "ym2612"
    },
    {
      "channel": 3,
      "note": 68,
      "start": 16.6739,
      "duration": 0.0769,
      "velocity": 95,
      "chip": "ym2612"
    },
    {
      "channel": 2,
      "note": 54,
      "start": 16.7051,
      "duration": 0.046,
      "velocity": 117,
      "chip": "ym2612"
    },
    {
      "channel": 3,
      "note": 75,
      "start": 16.7877,
      "duration": 0.0799,
      "velocity": 95,
      "chip": "ym2612"
    },
    {
      "channel": 1,
      "note": 54,
      "start": 16.9045,
      "duration": 0.0464,
      "velocity": 108,
      "chip": "ym2612"
    },
    {
      "channel": 3,
      "note": 68,
      "start": 16.9071,
      "duration": 0.0772,
      "velocity": 95,
      "chip": "ym2612"
    },
    {
      "channel": 2,
      "note": 54,
      "start": 16.9215,
      "duration": 0.0795,
      "velocity": 117,
      "chip": "ym2612"
    },
    {
      "channel": 1,
      "note": 54,
      "start": 17.0245,
      "duration": 0.0486,
      "velocity": 108,
      "chip": "ym2612"
    },
    {
      "channel": 3,
      "note": 80,
      "start": 17.0268,
      "duration": 0.0212,
      "velocity": 95,
      "chip": "ym2612"
    },
    {
      "channel": 2,
      "note": 54,
      "start": 17.0335,
      "duration": 0.0456,
      "velocity": 117,
      "chip": "ym2612"
    },
    {
      "channel": 3,
      "note": 68,
      "start": 17.0692,
      "duration": 0.0219,
      "velocity": 95,
      "chip": "ym2612"
    },
    {
      "channel": 1,
      "note": 54,
      "start": 17.1095,
      "duration": 0.0292,
      "velocity": 108,
      "chip": "ym2612"
    },
    {
      "channel": 3,
      "note": 75,
      "start": 17.112,
      "duration": 0.0268,
      "velocity": 95,
      "chip": "ym2612"
    },
    {
      "channel": 2,
      "note": 54,
      "start": 17.1233,
      "duration": 0.021,
      "velocity": 117,
      "chip": "ym2612"
    },
    {
      "channel": 3,
      "note": 78,
      "start": 17.1532,
      "duration": 0.0288,
      "velocity": 95,
      "chip": "ym2612"
    },
    {
      "channel": 0,
      "note": 33,
      "start": 17.1987,
      "duration": 0.1957,
      "velocity": 113,
      "chip": "ym2612"
    },
    {
      "channel": 1,
      "note": 56,
      "start": 17.2033,
      "duration": 0.1412,
      "velocity": 108,
      "chip": "ym2612"
    },
    {
      "channel": 3,
      "note": 68,
      "start": 17.2059,
      "duration": 0.072,
      "velocity": 95,
      "chip": "ym2612"
    },
    {
      "channel": 2,
      "note": 56,
      "start": 17.2152,
      "duration": 0.1462,
      "velocity": 117,
      "chip": "ym2612"
    },
    {
      "channel": 3,
      "note": 73,
      "start": 17.3146,
      "duration": 0.0632,
      "velocity": 95,
      "chip": "ym2612"
    },
    {
      "channel": 3,
      "note": 75,
      "start": 17.4349,
      "duration": 0.0258,
      "velocity": 95,
      "chip": "ym2612"
    },
    {
      "channel": 3,
      "note": 68,
      "start": 17.4827,
      "duration": 0.0314,
      "velocity": 95,
      "chip": "ym2612"
    },
    {
      "channel": 3,
      "note": 73,
      "start": 17.5366,
      "duration": 0.0256,
      "velocity": 95,
      "chip": "ym2612"
    },
    {
      "channel": 3,
      "note": 75,
      "start": 17.5768,
      "duration": 0.0222,
      "velocity": 95,
      "chip": "ym2612"
    },
    {
      "channel": 3,
      "note": 73,
      "start": 17.6227,
      "duration": 0.0632,
      "velocity": 95,
      "chip": "ym2612"
    },
    {
      "channel": 1,
      "note": 56,
      "start": 17.7395,
      "duration": 0.0629,
      "velocity": 108,
      "chip": "ym2612"
    },
    {
      "channel": 3,
      "note": 68,
      "start": 17.7421,
      "duration": 0.0605,
      "velocity": 95,
      "chip": "ym2612"
    },
    {
      "channel": 2,
      "note": 56,
      "start": 17.7566,
      "duration": 0.0627,
      "velocity": 117,
      "chip": "ym2612"
    },
    {
      "channel": 0,
      "note": 33,
      "start": 17.8389,
      "duration": 0.1802,
      "velocity": 113,
      "chip": "ym2612"
    },
    {
      "channel": 3,
      "note": 78,
      "start": 17.8418,
      "duration": 0.0774,
      "velocity": 95,
      "chip": "ym2612"
    },
    {
      "channel": 1,
      "note": 56,
      "start": 17.9561,
      "duration": 0.0631,
      "velocity": 108,
      "chip": "ym2612"
    },
    {
      "channel": 3,
      "note": 68,
      "start": 17.9587,
      "duration": 0.0771,
      "velocity": 95,
      "chip": "ym2612"
    },
    {
      "channel": 2,
      "note": 56,
      "start": 17.9733,
      "duration": 0.0628,
      "velocity": 117,
      "chip": "ym2612"
    },
    {
      "channel": 3,
      "note": 75,
      "start": 18.0727,
      "duration": 0.0632,
      "velocity": 95,
      "chip": "ym2612"
    },
    {
      "channel": 1,
      "note": 56,
      "start": 18.19,
      "duration": 0.0625,
      "velocity": 108,
      "chip": "ym2612"
    },
    {
      "channel": 3,
      "note": 68,
      "start": 18.1926,
      "duration": 0.06,
      "velocity": 95,
      "chip": "ym2612"
    },
    {
      "channel": 2,
      "note": 56,
      "start": 18.2066,
      "duration": 0.0627,
      "velocity": 117,
      "chip": "ym2612"
    },
    {
      "channel": 1,
      "note": 56,
      "start": 18.3093,
      "duration": 0.0293,
      "velocity": 108,
      "chip": "ym2612"
    },
    {
      "channel": 3,
      "note": 73,
      "start": 18.3116,
      "duration": 0.0213,
      "velocity": 95,
      "chip": "ym2612"
    },
    {
      "channel": 2,
      "note": 56,
      "start": 18.3183,
      "duration": 0.0266,
      "velocity": 117,
      "chip": "ym2612"
    },
    {
      "channel": 3,
      "note": 68,
      "start": 18.348,
      "duration": 0.0279,
      "velocity": 95,
      "chip": "ym2612"
    },
    {
      "channel": 0,
      "note": 33,
      "start": 18.3905,
      "duration": 0.0736,
      "velocity": 113,
      "chip": "ym2612"
    },
    {
      "channel": 1,
      "note": 56,
      "start": 18.3932,
      "duration": 0.071,
      "velocity": 108,
      "chip": "ym2612"
    },
    {
      "channel": 3,
      "note": 73,
      "start": 18.3975,
      "duration": 0.0668,
      "velocity": 95,
      "chip": "ym2612"
    },
    {
      "channel": 2,
      "note": 56,
      "start": 18.4028,
      "duration": 0.0781,
      "velocity": 117,
      "chip": "ym2612"
    },
    {
      "channel": 3,
      "note": 75,
      "start": 18.501,
      "duration": 0.0632,
      "velocity": 95,
      "chip": "ym2612"
    },
    {
      "channel": 0,
      "note": 33,
      "start": 18.6173,
      "duration": 0.1135,
      "velocity": 113,
      "chip": "ym2612"
    },
    {
      "channel": 1,
      "note": 58,
      "start": 18.6205,
      "duration": 0.077,
      "velocity": 108,
      "chip": "ym2612"
    },
    {
      "channel": 3,
      "note": 68,
      "start": 18.6231,
      "duration": 0.0577,
      "velocity": 95,
      "chip": "ym2612"
    },
    {
      "channel": 2,
      "note": 58,
      "start": 18.6348,
      "duration": 0.1128,
      "velocity": 117,
      "chip": "ym2612"
    },
    {
      "channel": 3,
      "note": 73,
      "start": 18.7345,
      "duration": 0.063,
      "velocity": 95,
      "chip": "ym2612"
    },
    {
      "channel": 3,
      "note": 75,
      "start": 18.8344,
      "duration": 0.0798,
      "velocity": 95,
      "chip": "ym2612"
    },
    {
      "channel": 3,
      "note": 68,
      "start": 18.951,
      "duration": 0.0798,
      "velocity": 95,
      "chip": "ym2612"
    },
    {
      "channel": 3,
      "note": 73,
      "start": 19.071,
      "duration": 0.021,
      "velocity": 95,
      "chip": "ym2612"
    },
    {
      "channel": 3,
      "note": 75,
      "start": 19.1141,
      "duration": 0.0206,
      "velocity": 95,
      "chip": "ym2612"
    },
    {
      "channel": 3,
      "note": 73,
      "start": 19.162,
      "duration": 0.0632,
      "velocity": 95,
      "chip": "ym2612"
    },
    {
      "channel": 1,
      "note": 58,
      "start": 19.2621,
      "duration": 0.063,
      "velocity": 108,
      "chip": "ym2612"
    },
    {
      "channel": 3,
      "note": 68,
      "start": 19.2647,
      "duration": 0.077,
      "velocity": 95,
      "chip": "ym2612"
    },
    {
      "channel": 2,
      "note": 58,
      "start": 19.2791,
      "duration": 0.0793,
      "velocity": 117,
      "chip": "ym2612"
    },
    {
      "channel": 0,
      "note": 33,
      "start": 19.3781,
      "duration": 0.1303,
      "velocity": 113,
      "chip": "ym2612"
    },
    {
      "channel": 3,
      "note": 80,
      "start": 19.381,
      "duration": 0.0774,
      "velocity": 95,
      "chip": "ym2612"
    },
    {
      "channel": 1,
      "note": 58,
      "start": 19.4951,
      "duration": 0.0465,
      "velocity": 108,
      "chip": "ym2612"
    },
    {
      "channel": 3,
      "note": 68,
      "start": 19.4977,
      "duration": 0.0607,
      "velocity": 95,
      "chip": "ym2612"
    },
    {
      "channel": 2,
      "note": 58,
      "start": 19.5127,
      "duration": 0.046,
      "velocity": 117,
      "chip": "ym2612"
    },
    {
      "channel": 3,
      "note": 78,
      "start": 19.612,
      "duration": 0.1799,
      "velocity": 95,
      "chip": "ym2612"
    },
    {
      "channel": 1,
      "note": 58,
      "start": 19.7124,
      "duration": 0.0793,
      "velocity": 108,
      "chip": "ym2612"
    },
    {
      "channel": 4,
      "note": 68,
      "start": 19.7154,
      "duration": 0.0766,
      "velocity": 95,
      "chip": "ym2612"
    },
    {
      "channel": 2,
      "note": 58,
      "start": 19.7457,
      "duration": 0.0628,
      "velocity": 117,
      "chip": "ym2612"
    },
    {
      "channel": 1,
      "note": 58,
      "start": 19.832,
      "duration": 0.0296,
      "velocity": 108,
      "chip": "ym2612"
    },
    {
      "channel": 3,
      "note": 75,
      "start": 19.8344,
      "duration": 0.0272,
      "velocity": 95,
      "chip": "ym2612"
    },
    {
      "channel": 2,
      "note": 58,
      "start": 19.8412,
      "duration": 0.0328,
      "velocity": 117,
      "chip": "ym2612"
    },
    {
      "channel": 3,
      "note": 68,
      "start": 19.877,
      "duration": 0.0271,
      "velocity": 95,
      "chip": "ym2612"
    },
    {
      "channel": 1,
      "note": 58,
      "start": 19.9236,
      "duration": 0.0964,
      "velocity": 108,
      "chip": "ym2612"
    },
    {
      "channel": 3,
      "note": 73,
      "start": 19.9262,
      "duration": 0.0605,
      "velocity": 95,
      "chip": "ym2612"
    },
    {
      "channel": 2,
      "note": 58,
      "start": 19.9403,
      "duration": 0.0964,
      "velocity": 117,
      "chip": "ym2612"
    },
    {
      "channel": 3,
      "note": 75,
      "start": 20.0403,
      "duration": 0.0632,
      "velocity": 95,
      "chip": "ym2612"
    },
    {
      "channel": 0,
      "note": 33,
      "start": 20.14,
      "duration": 0.1633,
      "velocity": 113,
      "chip": "ym2612"
    },
    {
      "channel": 1,
      "note": 59,
      "start": 20.1431,
      "duration": 0.1268,
      "velocity": 108,
      "chip": "ym2612"
    },
    {
      "channel": 3,
      "note": 68,
      "start": 20.1457,
      "duration": 0.0744,
      "velocity": 95,
      "chip": "ym2612"
    },
    {
      "channel": 2,
      "note": 59,
      "start": 20.174,
      "duration": 0.1296,
      "velocity": 117,
      "chip": "ym2612"
    },
    {
      "channel": 3,
      "note": 73,
      "start": 20.2568,
      "duration": 0.0799,
      "velocity": 95,
      "chip": "ym2612"
    },
    {
      "channel": 3,
      "note": 75,
      "start": 20.3775,
      "duration": 0.0317,
      "velocity": 95,
      "chip": "ym2612"
    },
    {
      "channel": 3,
      "note": 68,
      "start": 20.4305,
      "duration": 0.0244,
      "velocity": 95,
      "chip": "ym2612"
    },
    {
      "channel": 3,
      "note": 73,
      "start": 20.4855,
      "duration": 0.0209,
      "velocity": 95,
      "chip": "ym2612"
    },
    {
      "channel": 3,
      "note": 75,
      "start": 20.5202,
      "duration": 0.0291,
      "velocity": 95,
      "chip": "ym2612"
    },
    {
      "channel": 3,
      "note": 73,
      "start": 20.5631,
      "duration": 0.0724,
      "velocity": 95,
      "chip": "ym2612"
    },
    {
      "channel": 1,
      "note": 59,
      "start": 20.6724,
      "duration": 0.0463,
      "velocity": 108,
      "chip": "ym2612"
    },
    {
      "channel": 3,
      "note": 68,
      "start": 20.6751,
      "duration": 0.077,
      "velocity": 95,
      "chip": "ym2612"
    },
    {
      "channel": 2,
      "note": 59,
      "start": 20.6894,
      "duration": 0.0629,
      "velocity": 117,
      "chip": "ym2612"
    },
    {
      "channel": 0,
      "note": 33,
      "start": 20.7885,
      "duration": 0.1634,
      "velocity": 113,
      "chip": "ym2612"
    },
    {
      "channel": 3,
      "note": 78,
      "start": 20.7915,
      "duration": 0.0606,
      "velocity": 95,
      "chip": "ym2612"
    },
    {
      "channel": 1,
      "note": 59,
      "start": 20.9055,
      "duration": 0.0466,
      "velocity": 108,
      "chip": "ym2612"
    },
    {
      "channel": 3,
      "note": 68,
      "start": 20.9081,
      "duration": 0.0606,
      "velocity": 95,
      "chip": "ym2612"
    },
    {
      "channel": 2,
      "note": 59,
      "start": 20.9225,
      "duration": 0.0464,
      "velocity": 117,
      "chip": "ym2612"
    },
    {
      "channel": 3,
      "note": 75,
      "start": 21.0056,
      "duration": 0.0799,
      "velocity": 95,
      "chip": "ym2612"
    },
    {
      "channel": 1,
      "note": 59,
      "start": 21.1223,
      "duration": 0.063,
      "velocity": 108,
      "chip": "ym2612"
    },
    {
      "channel": 3,
      "note": 68,
      "start": 21.1249,
      "duration": 0.0771,
      "velocity": 95,
      "chip": "ym2612"
    },
    {
      "channel": 2,
      "note": 59,
      "start": 21.1395,
      "duration": 0.0627,
      "velocity": 117,
      "chip": "ym2612"
    },
    {
      "channel": 1,
      "note": 59,
      "start": 21.2426,
      "duration": 0.0356,
      "velocity": 108,
      "chip": "ym2612"
    },
    {
      "channel": 3,
      "note": 73,
      "start": 21.245,
      "duration": 0.027,
      "velocity": 95,
      "chip": "ym2612"
    },
    {
      "channel": 2,
      "note": 59,
      "start": 21.2516,
      "duration": 0.0329,
      "velocity": 117,
      "chip": "ym2612"
    },
    {
      "channel": 3,
      "note": 68,
      "start": 21.2877,
      "duration": 0.0221,
      "velocity": 95,
      "chip": "ym2612"
    },
    {
      "channel": 0,
      "note": 33,
      "start": 21.3343,
      "duration": 0.0635,
      "velocity": 113,
      "chip": "ym2612"
    },
    {
      "channel": 1,
      "note": 59,
      "start": 21.3373,
      "duration": 0.0606,
      "velocity": 108,
      "chip": "ym2612"
    },
    {
      "channel": 3,
      "note": 73,
      "start": 21.3399,
      "duration": 0.0581,
      "velocity": 95,
      "chip": "ym2612"
    },
    {
      "channel": 2,
      "note": 59,
      "start": 21.3517,
      "duration": 0.0798,
      "velocity": 117,
      "chip": "ym2612"
    },
    {
      "channel": 3,
      "note": 75,
      "start": 21.4349,
      "duration": 0.0798,
      "velocity": 95,
      "chip": "ym2612"
    },
    {
      "channel": 0,
      "note": 33,
      "start": 21.551,
      "duration": 0.1135,
      "velocity": 113,
      "chip": "ym2612"
    },
    {
      "channel": 1,
      "note": 51,
      "start": 21.5542,
      "duration": 0.1604,
      "velocity": 108,
      "chip": "ym2612"
    },
    {
      "channel": 3,
      "note": 68,
      "start": 21.5568,
      "duration": 0.0744,
      "velocity": 95,
      "chip": "ym2612"
    },
    {
      "channel": 2,
      "note": 51,
      "start": 21.5685,
      "duration": 0.1798,
      "velocity": 117,
      "chip": "ym2612"
    },
    {
      "channel": 3,
      "note": 73,
      "start": 21.6682,
      "duration": 0.0798,
      "velocity": 95,
      "chip": "ym2612"
    },
    {
      "channel": 3,
      "note": 75,
      "start": 21.7851,
      "duration": 0.0628,
      "velocity": 95,
      "chip": "ym2612"
    },
    {
      "channel": 3,
      "note": 68,
      "start": 21.9016,
      "duration": 0.1302,
      "velocity": 95,
      "chip": "ym2612"
    },
    {
      "channel": 4,
      "note": 73,
      "start": 22.0048,
      "duration": 0.0271,
      "velocity": 95,
      "chip": "ym2612"
    },
    {
      "channel": 3,
      "note": 75,
      "start": 22.0478,
      "duration": 0.0266,
      "velocity": 95,
      "chip": "ym2612"
    },
    {
      "channel": 3,
      "note": 73,
      "start": 22.0957,
      "duration": 0.0798,
      "velocity": 95,
      "chip": "ym2612"
    },
    {
      "channel": 1,
      "note": 51,
      "start": 22.2125,
      "duration": 0.0629,
      "velocity": 108,
      "chip": "ym2612"
    },
    {
      "channel": 3,
      "note": 68,
      "start": 22.2151,
      "duration": 0.0604,
      "velocity": 95,
      "chip": "ym2612"
    },
    {
      "channel": 2,
      "note": 51,
      "start": 22.2294,
      "duration": 0.0629,
      "velocity": 117,
      "chip": "ym2612"
    },
    {
      "channel": 0,
      "note": 33,
      "start": 22.3285,
      "duration": 0.0635,
      "velocity": 113,
      "chip": "ym2612"
    },
    {
      "channel": 3,
      "note": 80,
      "start": 22.3314,
      "duration": 0.0608,
      "velocity": 95,
      "chip": "ym2612"
    },
    {
      "channel": 1,
      "note": 51,
      "start": 22.429,
      "duration": 0.0631,
      "velocity": 108,
      "chip": "ym2612"
    },
    {
      "channel": 3,
      "note": 68,
      "start": 22.4316,
      "duration": 0.0771,
      "velocity": 95,
      "chip": "ym2612"
    },
    {
      "channel": 2,
      "note": 51,
      "start": 22.4624,
      "duration": 0.0632,
      "velocity": 117,
      "chip": "ym2612"
    },
    {
      "channel": 3,
      "note": 78,
      "start": 22.5456,
      "duration": 0.08,
      "velocity": 95,
      "chip": "ym2612"
    },
    {
      "channel": 1,
      "note": 51,
      "start": 22.6624,
      "duration": 0.0796,
      "velocity": 108,
      "chip": "ym2612"
    },
    {
      "channel": 3,
      "note": 68,
      "start": 22.6651,
      "duration": 0.0771,
      "velocity": 95,
      "chip": "ym2612"
    },
    {
      "channel": 2,
      "note": 51,
      "start": 22.6793,
      "duration": 0.0796,
      "velocity": 117,
      "chip": "ym2612"
    },
    {
      "channel": 1,
      "note": 51,
      "start": 22.7827,
      "duration": 0.0239,
      "velocity": 108,
      "chip": "ym2612"
    },
    {
      "channel": 3,
      "note": 75,
      "start": 22.7852,
      "duration": 0.0215,
      "velocity": 95,
      "chip": "ym2612"
    },
    {
      "channel": 2,
      "note": 51,
      "start": 22.7919,
      "duration": 0.0327,
      "velocity": 117,
      "chip": "ym2612"
    },
    {
      "channel": 3,
      "note": 68,
      "start": 22.8278,
      "duration": 0.0225,
      "velocity": 95,
      "chip": "ym2612"
    },
    {
      "channel": 1,
      "note": 51,
      "start": 22.8686,
      "duration": 0.0294,
      "velocity": 108,
      "chip": "ym2612"
    },
    {
      "channel": 3,
      "note": 73,
      "start": 22.8711,
      "duration": 0.027,
      "velocity": 95,
      "chip": "ym2612"
    },
    {
      "channel": 2,
      "note": 51,
      "start": 22.8759,
      "duration": 0.0337,
      "velocity": 117,
      "chip": "ym2612"
    },
    {
      "channel": 3,
      "note": 68,
      "start": 22.9161,
      "duration": 0.0262,
      "velocity": 95,
      "chip": "ym2612"
    },
    {
      "channel": 0,
      "note": 33,
      "start": 22.9591,
      "duration": 0.1252,
      "velocity": 113,
      "chip": "ym2612"
    },
    {
      "channel": 1,
      "note": 56,
      "start": 22.9639,
      "duration": 0.0378,
      "velocity": 108,
      "chip": "ym2612"
    },
    {
      "channel": 3,
      "note": 68,
      "start": 22.9676,
      "duration": 0.0158,
      "velocity": 95,
      "chip": "ym2612"
    },
    {
      "channel": 4,
      "note": 44,
      "start": 22.9705,
      "duration": 5.6718,
      "velocity": 106,
      "chip": "ym2612"
    },
    {
      "channel": 2,
      "note": 56,
      "start": 22.9764,
      "duration": 0.0415,
      "velocity": 117,
      "chip": "ym2612"
    },
    {
      "channel": 3,
      "note": 73,
      "start": 23.0054,
      "duration": 0.0623,
      "velocity": 95,
      "chip": "ym2612"
    },
    {
      "channel": 3,
      "note": 75,
      "start": 23.1247,
      "duration": 0.0257,
      "velocity": 95,
      "chip": "ym2612"
    },
    {
      "channel": 3,
      "note": 68,
      "start": 23.1722,
      "duration": 0.031,
      "velocity": 95,
      "chip": "ym2612"
    },
    {
      "channel": 3,
      "note": 73,
      "start": 23.2254,
      "duration": 0.0259,
      "velocity": 95,
      "chip": "ym2612"
    },
    {
      "channel": 3,
      "note": 80,
      "start": 23.2656,
      "duration": 0.022,
      "velocity": 95,
      "chip": "ym2612"
    },
    {
      "channel": 3,
      "note": 73,
      "start": 23.3113,
      "duration": 0.0632,
      "velocity": 95,
      "chip": "ym2612"
    },
    {
      "channel": 1,
      "note": 56,
      "start": 23.4282,
      "duration": 0.0629,
      "velocity": 108,
      "chip": "ym2612"
    },
    {
      "channel": 3,
      "note": 68,
      "start": 23.4309,
      "duration": 0.0604,
      "velocity": 95,
      "chip": "ym2612"
    },
    {
      "channel": 2,
      "note": 56,
      "start": 23.4453,
      "duration": 0.0628,
      "velocity": 117,
      "chip": "ym2612"
    },
    {
      "channel": 0,
      "note": 33,
      "start": 23.5278,
      "duration": 0.18,
      "velocity": 113,
      "chip": "ym2612"
    },
    {
      "channel": 3,
      "note": 75,
      "start": 23.5307,
      "duration": 0.0772,
      "velocity": 95,
      "chip": "ym2612"
    },
    {
      "channel": 1,
      "note": 56,
      "start": 23.6449,
      "duration": 0.063,
      "velocity": 108,
      "chip": "ym2612"
    },
    {
      "channel": 3,
      "note": 68,
      "start": 23.6475,
      "duration": 0.0771,
      "velocity": 95,
      "chip": "ym2612"
    },
    {
      "channel": 2,
      "note": 56,
      "start": 23.6617,
      "duration": 0.0631,
      "velocity": 117,
      "chip": "ym2612"
    },
    {
      "channel": 3,
      "note": 73,
      "start": 23.7615,
      "duration": 0.0632,
      "velocity": 95,
      "chip": "ym2612"
    },
    {
      "channel": 1,
      "note": 56,
      "start": 23.8782,
      "duration": 0.0462,
      "velocity": 108,
      "chip": "ym2612"
    },
    {
      "channel": 3,
      "note": 68,
      "start": 23.8809,
      "duration": 0.0604,
      "velocity": 95,
      "chip": "ym2612"
    },
    {
      "channel": 2,
      "note": 56,
      "start": 23.8951,
      "duration": 0.0464,
      "velocity": 117,
      "chip": "ym2612"
    },
    {
      "channel": 1,
      "note": 56,
      "start": 23.9979,
      "duration": 0.0293,
      "velocity": 108,
      "chip": "ym2612"
    },
    {
      "channel": 3,
      "note": 78,
      "start": 24.0003,
      "duration": 0.0212,
      "velocity": 95,
      "chip": "ym2612"
    },
    {
      "channel": 2,
      "note": 56,
      "start": 24.007,
      "duration": 0.0266,
      "velocity": 117,
      "chip": "ym2612"
    },
    {
      "channel": 3,
      "note": 68,
      "start": 24.0366,
      "duration": 0.0279,
      "velocity": 95,
      "chip": "ym2612"
    },
    {
      "channel": 0,
      "note": 33,
      "start": 24.079,
      "duration": 0.0734,
      "velocity": 113,
      "chip": "ym2612"
    },
    {
      "channel": 1,
      "note": 56,
      "start": 24.0816,
      "duration": 0.0876,
      "velocity": 108,
      "chip": "ym2612"
    },
    {
      "channel": 3,
      "note": 73,
      "start": 24.0855,
      "duration": 0.0671,
      "velocity": 95,
      "chip": "ym2612"
    },
    {
      "channel": 2,
      "note": 56,
      "start": 24.0911,
      "duration": 0.0949,
      "velocity": 117,
      "chip": "ym2612"
    },
    {
      "channel": 3,
      "note": 75,
      "start": 24.1894,
      "duration": 0.0631,
      "velocity": 95,
      "chip": "ym2612"
    },
    {
      "channel": 0,
      "note": 33,
      "start": 24.3056,
      "duration": 0.0969,
      "velocity": 113,
      "chip": "ym2612"
    },
    {
      "channel": 1,
      "note": 56,
      "start": 24.3091,
      "duration": 0.1268,
      "velocity": 108,
      "chip": "ym2612"
    },
    {
      "channel": 3,
      "note": 68,
      "start": 24.3121,
      "duration": 0.0572,
      "velocity": 95,
      "chip": "ym2612"
    },
    {
      "channel": 2,
      "note": 56,
      "start": 24.3231,
      "duration": 0.1296,
      "velocity": 117,
      "chip": "ym2612"
    },
    {
      "channel": 3,
      "note": 73,
      "start": 24.4061,
      "duration": 0.0796,
      "velocity": 95,
      "chip": "ym2612"
    },
    {
      "channel": 3,
      "note": 75,
      "start": 24.5227,
      "duration": 0.0798,
      "velocity": 95,
      "chip": "ym2612"
    },
    {
      "channel": 3,
      "note": 68,
      "start": 24.6393,
      "duration": 0.0798,
      "velocity": 95,
      "chip": "ym2612"
    },
    {
      "channel": 3,
      "note": 73,
      "start": 24.7592,
      "duration": 0.0215,
      "velocity": 95,
      "chip": "ym2612"
    },
    {
      "channel": 3,
      "note": 78,
      "start": 24.8031,
      "duration": 0.0208,
      "velocity": 95,
      "chip": "ym2612"
    },
    {
      "channel": 3,
      "note": 73,
      "start": 24.8405,
      "duration": 0.0739,
      "velocity": 95,
      "chip": "ym2612"
    },
    {
      "channel": 1,
      "note": 56,
      "start": 24.9513,
      "duration": 0.0797,
      "velocity": 108,
      "chip": "ym2612"
    },
    {
      "channel": 3,
      "note": 68,
      "start": 24.9539,
      "duration": 0.0771,
      "velocity": 95,
      "chip": "ym2612"
    },
    {
      "channel": 2,
      "note": 56,
      "start": 24.9683,
      "duration": 0.0795,
      "velocity": 117,
      "chip": "ym2612"
    },
    {
      "channel": 0,
      "note": 33,
      "start": 25.0673,
      "duration": 0.1303,
      "velocity": 113,
      "chip": "ym2612"
    },
    {
      "channel": 3,
      "note": 80,
      "start": 25.0702,
      "duration": 0.0774,
      "velocity": 95,
      "chip": "ym2612"
    },
    {
      "channel": 1,
      "note": 56,
      "start": 25.1845,
      "duration": 0.0464,
      "velocity": 108,
      "chip": "ym2612"
    },
    {
      "channel": 3,
      "note": 68,
      "start": 25.1871,
      "duration": 0.0605,
      "velocity": 95,
      "chip": "ym2612"
    },
    {
      "channel": 2,
      "note": 56,
      "start": 25.2015,
      "duration": 0.0463,
      "velocity": 117,
      "chip": "ym2612"
    },
    {
      "channel": 3,
      "note": 73,
      "start": 25.3012,
      "duration": 0.0632,
      "velocity": 95,
      "chip": "ym2612"
    },
    {
      "channel": 1,
      "note": 56,
      "start": 25.4012,
      "duration": 0.063,
      "velocity": 108,
      "chip": "ym2612"
    },
    {
      "channel": 3,
      "note": 68,
      "start": 25.4039,
      "duration": 0.0772,
      "velocity": 95,
      "chip": "ym2612"
    },
    {
      "channel": 2,
      "note": 56,
      "start": 25.4349,
      "duration": 0.0464,
      "velocity": 117,
      "chip": "ym2612"
    },
    {
      "channel": 1,
      "note": 56,
      "start": 25.5211,
      "duration": 0.0355,
      "velocity": 108,
      "chip": "ym2612"
    },
    {
      "channel": 3,
      "note": 78,
      "start": 25.5234,
      "duration": 0.0271,
      "velocity": 95,
      "chip": "ym2612"
    },
    {
      "channel": 2,
      "note": 56,
      "start": 25.53,
      "duration": 0.0328,
      "velocity": 117,
      "chip": "ym2612"
    },
    {
      "channel": 3,
      "note": 68,
      "start": 25.5658,
      "duration": 0.0271,
      "velocity": 95,
      "chip": "ym2612"
    },
    {
      "channel": 1,
      "note": 56,
      "start": 25.6124,
      "duration": 0.063,
      "velocity": 108,
      "chip": "ym2612"
    },
    {
      "channel": 3,
      "note": 75,
      "start": 25.615,
      "duration": 0.0605,
      "velocity": 95,
      "chip": "ym2612"
    },
    {
      "channel": 2,
      "note": 56,
      "start": 25.6292,
      "duration": 0.0797,
      "velocity": 117,
      "chip": "ym2612"
    },
    {
      "channel": 3,
      "note": 75,
      "start": 25.729,
      "duration": 0.0631,
      "velocity": 95,
      "chip": "ym2612"
    },
    {
      "channel": 0,
      "note": 33,
      "start": 25.8288,
      "duration": 0.1633,
      "velocity": 113,
      "chip": "ym2612"
    },
    {
      "channel": 1,
      "note": 56,
      "start": 25.8323,
      "duration": 0.1265,
      "velocity": 108,
      "chip": "ym2612"
    },
    {
      "channel": 3,
      "note": 68,
      "start": 25.8354,
      "duration": 0.19,
      "velocity": 95,
      "chip": "ym2612"
    },
    {
      "channel": 2,
      "note": 56,
      "start": 25.8632,
      "duration": 0.1293,
      "velocity": 117,
      "chip": "ym2612"
    },
    {
      "channel": 5,
      "note": 73,
      "start": 25.9459,
      "duration": 0.0797,
      "velocity": 95,
      "chip": "ym2612"
    },
    {
      "channel": 3,
      "note": 75,
      "start": 26.0657,
      "duration": 0.0326,
      "velocity": 95,
      "chip": "ym2612"
    },
    {
      "channel": 3,
      "note": 68,
      "start": 26.1197,
      "duration": 0.0243,
      "velocity": 95,
      "chip": "ym2612"
    },
    {
      "channel": 3,
      "note": 73,
      "start": 26.1744,
      "duration": 0.0207,
      "velocity": 95,
      "chip": "ym2612"
    },
    {
      "channel": 3,
      "note": 75,
      "start": 26.2095,
      "duration": 0.0287,
      "velocity": 95,
      "chip": "ym2612"
    },
    {
      "channel": 3,
      "note": 73,
      "start": 26.2523,
      "duration": 0.0723,
      "velocity": 95,
      "chip": "ym2612"
    },
    {
      "channel": 1,
      "note": 56,
      "start": 26.3616,
      "duration": 0.0462,
      "velocity": 108,
      "chip": "ym2612"
    },
    {
      "channel": 3,
      "note": 68,
      "start": 26.3642,
      "duration": 0.077,
      "velocity": 95,
      "chip": "ym2612"
    },
    {
      "channel": 2,
      "note": 56,
      "start": 26.3786,
      "duration": 0.0795,
      "velocity": 117,
      "chip": "ym2612"
    },
    {
      "channel": 0,
      "note": 33,
      "start": 26.4777,
      "duration": 0.1635,
      "velocity": 113,
      "chip": "ym2612"
    },
    {
      "channel": 3,
      "note": 78,
      "start": 26.4808,
      "duration": 0.177,
      "velocity": 95,
      "chip": "ym2612"
    },
    {
      "channel": 1,
      "note": 56,
      "start": 26.5948,
      "duration": 0.0466,
      "velocity": 108,
      "chip": "ym2612"
    },
    {
      "channel": 5,
      "note": 68,
      "start": 26.5976,
      "duration": 0.0604,
      "velocity": 95,
      "chip": "ym2612"
    },
    {
      "channel": 2,
      "note": 56,
      "start": 26.6117,
      "duration": 0.0464,
      "velocity": 117,
      "chip": "ym2612"
    },
    {
      "channel": 3,
      "note": 73,
      "start": 26.6948,
      "duration": 0.0798,
      "velocity": 95,
      "chip": "ym2612"
    },
    {
      "channel": 1,
      "note": 56,
      "start": 26.8116,
      "duration": 0.0797,
      "velocity": 108,
      "chip": "ym2612"
    },
    {
      "channel": 3,
      "note": 68,
      "start": 26.8142,
      "duration": 0.0771,
      "velocity": 95,
      "chip": "ym2612"
    },
    {
      "channel": 2,
      "note": 56,
      "start": 26.8286,
      "duration": 0.0795,
      "velocity": 117,
      "chip": "ym2612"
    },
    {
      "channel": 1,
      "note": 56,
      "start": 26.9314,
      "duration": 0.0298,
      "velocity": 108,
      "chip": "ym2612"
    },
    {
      "channel": 3,
      "note": 80,
      "start": 26.934,
      "duration": 0.0272,
      "velocity": 95,
      "chip": "ym2612"
    },
    {
      "channel": 2,
      "note": 56,
      "start": 26.9407,
      "duration": 0.0329,
      "velocity": 117,
      "chip": "ym2612"
    },
    {
      "channel": 3,
      "note": 68,
      "start": 26.9768,
      "duration": 0.0221,
      "velocity": 95,
      "chip": "ym2612"
    },
    {
      "channel": 0,
      "note": 33,
      "start": 27.0235,
      "duration": 0.0635,
      "velocity": 113,
      "chip": "ym2612"
    },
    {
      "channel": 1,
      "note": 56,
      "start": 27.0263,
      "duration": 0.0607,
      "velocity": 108,
      "chip": "ym2612"
    },
    {
      "channel": 3,
      "note": 73,
      "start": 27.029,
      "duration": 0.0583,
      "velocity": 95,
      "chip": "ym2612"
    },
    {
      "channel": 2,
      "note": 56,
      "start": 27.0408,
      "duration": 0.0798,
      "velocity": 117,
      "chip": "ym2612"
    },
    {
      "channel": 3,
      "note": 75,
      "start": 27.1241,
      "duration": 0.0797,
      "velocity": 95,
      "chip": "ym2612"
    },
    {
      "channel": 0,
      "note": 33,
      "start": 27.2402,
      "duration": 0.1136,
      "velocity": 113,
      "chip": "ym2612"
    },
    {
      "channel": 1,
      "note": 56,
      "start": 27.2434,
      "duration": 0.1105,
      "velocity": 108,
      "chip": "ym2612"
    },
    {
      "channel": 3,
      "note": 68,
      "start": 27.246,
      "duration": 0.0744,
      "velocity": 95,
      "chip": "ym2612"
    },
    {
      "channel": 2,
      "note": 56,
      "start": 27.2581,
      "duration": 0.1125,
      "velocity": 117,
      "chip": "ym2612"
    },
    {
      "channel": 3,
      "note": 73,
      "start": 27.3575,
      "duration": 0.0796,
      "velocity": 95,
      "chip": "ym2612"
    },
    {
      "channel": 3,
      "note": 75,
      "start": 27.4739,
      "duration": 0.0632,
      "velocity": 95,
      "chip": "ym2612"
    },
    {
      "channel": 3,
      "note": 68,
      "start": 27.5907,
      "duration": 0.0631,
      "velocity": 95,
      "chip": "ym2612"
    },
    {
      "channel": 3,
      "note": 73,
      "start": 27.6938,
      "duration": 0.0276,
      "velocity": 95,
      "chip": "ym2612"
    },
    {
      "channel": 3,
      "note": 75,
      "start": 27.7374,
      "duration": 0.027,
      "velocity": 95,
      "chip": "ym2612"
    },
    {
      "channel": 3,
      "note": 73,
      "start": 27.7856,
      "duration": 0.0632,
      "velocity": 95,
      "chip": "ym2612"
    },
    {
      "channel": 1,
      "note": 56,
      "start": 27.9029,
      "duration": 0.0625,
      "velocity": 108,
      "chip": "ym2612"
    },
    {
      "channel": 3,
      "note": 68,
      "start": 27.9055,
      "duration": 0.06,
      "velocity": 95,
      "chip": "ym2612"
    },
    {
      "channel": 2,
      "note": 56,
      "start": 27.9194,
      "duration": 0.0628,
      "velocity": 117,
      "chip": "ym2612"
    },
    {
      "channel": 0,
      "note": 33,
      "start": 28.0184,
      "duration": 0.0635,
      "velocity": 113,
      "chip": "ym2612"
    },
    {
      "channel": 3,
      "note": 78,
      "start": 28.0214,
      "duration": 0.1772,
      "velocity": 95,
      "chip": "ym2612"
    },
    {
      "channel": 1,
      "note": 56,
      "start": 28.119,
      "duration": 0.063,
      "velocity": 108,
      "chip": "ym2612"
    },
    {
      "channel": 5,
      "note": 68,
      "start": 28.122,
      "duration": 0.0769,
      "velocity": 95,
      "chip": "ym2612"
    },
    {
      "channel": 2,
      "note": 56,
      "start": 28.1358,
      "duration": 0.0797,
      "velocity": 117,
      "chip": "ym2612"
    },
    {
      "channel": 3,
      "note": 75,
      "start": 28.236,
      "duration": 0.0794,
      "velocity": 95,
      "chip": "ym2612"
    },
    {
      "channel": 1,
      "note": 56,
      "start": 28.3525,
      "duration": 0.0629,
      "velocity": 108,
      "chip": "ym2612"
    },
    {
      "channel": 3,
      "note": 68,
      "start": 28.3551,
      "duration": 0.0604,
      "velocity": 95,
      "chip": "ym2612"
    },
    {
      "channel": 2,
      "note": 56,
      "start": 28.3691,
      "duration": 0.0797,
      "velocity": 117,
      "chip": "ym2612"
    },
    {
      "channel": 1,
      "note": 56,
      "start": 28.4724,
      "duration": 0.0415,
      "velocity": 108,
      "chip": "ym2612"
    },
    {
      "channel": 3,
      "note": 73,
      "start": 28.4747,
      "duration": 0.0213,
      "velocity": 95,
      "chip": "ym2612"
    },
    {
      "channel": 2,
      "note": 56,
      "start": 28.4815,
      "duration": 0.0398,
      "velocity": 117,
      "chip": "ym2612"
    },
    {
      "channel": 3,
      "note": 68,
      "start": 28.5171,
      "duration": 0.0219,
      "velocity": 95,
      "chip": "ym2612"
    },
    {
      "channel": 1,
      "note": 56,
      "start": 28.5575,
      "duration": 0.0341,
      "velocity": 108,
      "chip": "ym2612"
    },
    {
      "channel": 3,
      "note": 73,
      "start": 28.56,
      "duration": 0.0265,
      "velocity": 95,
      "chip": "ym2612"
    },
    {
      "channel": 2,
      "note": 56,
      "start": 28.5656,
      "duration": 0.0324,
      "velocity": 117,
      "chip": "ym2612"
    },
    {
      "channel": 3,
      "note": 75,
      "start": 28.601,
      "duration": 0.0287,
      "velocity": 95,
      "chip": "ym2612"
    },
    {
      "channel": 0,
      "note": 33,
      "start": 28.6465,
      "duration": 0.1955,
      "velocity": 113,
      "chip": "ym2612"
    },
    {
      "channel": 1,
      "note": 56,
      "start": 28.6521,
      "duration": 0.1234,
      "velocity": 108,
      "chip": "ym2612"
    },
    {
      "channel": 3,
      "note": 68,
      "start": 28.6561,
      "duration": 0.0527,
      "velocity": 95,
      "chip": "ym2612"
    },
    {
      "channel": 2,
      "note": 56,
      "start": 28.6651,
      "duration": 0.1272,
      "velocity": 117,
      "chip": "ym2612"
    },
    {
      "channel": 3,
      "note": 73,
      "start": 28.7623,
      "duration": 0.0632,
      "velocity": 95,
      "chip": "ym2612"
    }
  ]
}