{
  "track_name": "03 - Game Won",
  "duration_sec": 168.758,
  "sample_rate": 44100,
  "note_count": 2650,
  "unique_pitches": 45,
  "pitch_range": 73,
  "avg_note_duration": 0.1204,
  "reconstruction_stats": {
    "notes_reconstructed": 2650,
    "keyon_events": 2650,
    "keyoff_events": 2648,
    "orphan_keyons": 2,
    "unique_pitches": 45,
    "pitch_range": 73,
    "avg_duration_sec": 0.1204
  },
  "metadata": {
    "source": "W\\Waterworld\\Waterworld (Mega Drive, Genesis)\\03 - Game Won.vgz"
  },
  "notes": [
    {
      "channel": 0,
      "note": -1,
      "start": 0.0163,
      "duration": 0.0095,
      "velocity": 107,
      "chip": "ym2612"
    },
    {
      "channel": 2,
      "note": -1,
      "start": 0.019,
      "duration": 0.2243,
      "velocity": 106,
      "chip": "ym2612"
    },
    {
      "channel": 4,
      "note": -1,
      "start": 0.0218,
      "duration": 0.0001,
      "velocity": 1,
      "chip": "ym2612"
    },
    {
      "channel": 0,
      "note": 42,
      "start": 0.0627,
      "duration": 0.0085,
      "velocity": 107,
      "chip": "ym2612"
    },
    {
      "channel": 3,
      "note": -1,
      "start": 0.0659,
      "duration": 0.2295,
      "velocity": 106,
      "chip": "ym2612"
    },
    {
      "channel": 4,
      "note": 78,
      "start": 0.0687,
      "duration": 0.0001,
      "velocity": 1,
      "chip": "ym2612"
    },
    {
      "channel": 0,
      "note": 42,
      "start": 0.0935,
      "duration": 0.0053,
      "velocity": 107,
      "chip": "ym2612"
    },
    {
      "channel": 0,
      "note": 42,
      "start": 0.1217,
      "duration": 0.0104,
      "velocity": 107,
      "chip": "ym2612"
    },
    {
      "channel": 1,
      "note": -1,
      "start": 0.1243,
      "duration": 0.0329,
      "velocity": 125,
      "chip": "ym2612"
    },
    {
      "channel": 4,
      "note": 78,
      "start": 0.1281,
      "duration": 0.0001,
      "velocity": 1,
      "chip": "ym2612"
    },
    {
      "channel": 0,
      "note": 54,
      "start": 0.1561,
      "duration": 0.0044,
      "velocity": 107,
      "chip": "ym2612"
    },
    {
      "channel": 0,
      "note": 42,
      "start": 0.1834,
      "duration": 0.0079,
      "velocity": 107,
      "chip": "ym2612"
    },
    {
      "channel": 4,
      "note": 78,
      "start": 0.1874,
      "duration": 0.0001,
      "velocity": 1,
      "chip": "ym2612"
    },
    {
      "channel": 0,
      "note": 42,
      "start": 0.2136,
      "duration": 0.0063,
      "velocity": 107,
      "chip": "ym2612"
    },
    {
      "channel": 4,
      "note": 78,
      "start": 0.2173,
      "duration": 0.0001,
      "velocity": 1,
      "chip": "ym2612"
    },
    {
      "channel": 0,
      "note": 54,
      "start": 0.2424,
      "duration": 0.0055,
      "velocity": 107,
      "chip": "ym2612"
    },
    {
      "channel": 4,
      "note": 78,
      "start": 0.2703,
      "duration": 0.0001,
      "velocity": 1,
      "chip": "ym2612"
    },
    {
      "channel": 0,
      "note": 42,
      "start": 0.2941,
      "duration": 0.0063,
      "velocity": 107,
      "chip": "ym2612"
    },
    {
      "channel": 4,
      "note": 78,
      "start": 0.2979,
      "duration": 0.0001,
      "velocity": 1,
      "chip": "ym2612"
    },
    {
      "channel": 0,
      "note": 42,
      "start": 0.3243,
      "duration": 0.0076,
      "velocity": 107,
      "chip": "ym2612"
    },
    {
      "channel": 4,
      "note": 78,
      "start": 0.3279,
      "duration": 0.0001,
      "velocity": 1,
      "chip": "ym2612"
    },
    {
      "channel": 0,
      "note": 42,
      "start": 0.3561,
      "duration": 0.0124,
      "velocity": 107,
      "chip": "ym2612"
    },
    {
      "channel": 1,
      "note": 22,
      "start": 0.3588,
      "duration": 0.0349,
      "velocity": 125,
      "chip": "ym2612"
    },
    {
      "channel": 2,
      "note": 78,
      "start": 0.3614,
      "duration": 0.1267,
      "velocity": 106,
      "chip": "ym2612"
    },
    {
      "channel": 4,
      "note": 78,
      "start": 0.3646,
      "duration": 0.0001,
      "velocity": 1,
      "chip": "ym2612"
    },
    {
      "channel": 0,
      "note": 54,
      "start": 0.3925,
      "duration": 0.0046,
      "velocity": 107,
      "chip": "ym2612"
    },
    {
      "channel": 0,
      "note": 42,
      "start": 0.4205,
      "duration": 0.0102,
      "velocity": 107,
      "chip": "ym2612"
    },
    {
      "channel": 3,
      "note": 78,
      "start": 0.4239,
      "duration": 0.1185,
      "velocity": 106,
      "chip": "ym2612"
    },
    {
      "channel": 4,
      "note": 78,
      "start": 0.4267,
      "duration": 0.0001,
      "velocity": 1,
      "chip": "ym2612"
    },
    {
      "channel": 0,
      "note": 42,
      "start": 0.4554,
      "duration": 0.0077,
      "velocity": 107,
      "chip": "ym2612"
    },
    {
      "channel": 4,
      "note": 78,
      "start": 0.4592,
      "duration": 0.0001,
      "velocity": 1,
      "chip": "ym2612"
    },
    {
      "channel": 0,
      "note": 54,
      "start": 0.4871,
      "duration": 0.0099,
      "velocity": 107,
      "chip": "ym2612"
    },
    {
      "channel": 2,
      "note": 80,
      "start": 0.4898,
      "duration": 0.1749,
      "velocity": 106,
      "chip": "ym2612"
    },
    {
      "channel": 4,
      "note": 73,
      "start": 0.493,
      "duration": 0.0001,
      "velocity": 1,
      "chip": "ym2612"
    },
    {
      "channel": 0,
      "note": 37,
      "start": 0.5409,
      "duration": 0.0085,
      "velocity": 107,
      "chip": "ym2612"
    },
    {
      "channel": 3,
      "note": 80,
      "start": 0.5441,
      "duration": 0.18,
      "velocity": 106,
      "chip": "ym2612"
    },
    {
      "channel": 4,
      "note": 73,
      "start": 0.5469,
      "duration": 0.0001,
      "velocity": 1,
      "chip": "ym2612"
    },
    {
      "channel": 0,
      "note": 37,
      "start": 0.5709,
      "duration": 0.0052,
      "velocity": 107,
      "chip": "ym2612"
    },
    {
      "channel": 0,
      "note": 37,
      "start": 0.5991,
      "duration": 0.0104,
      "velocity": 107,
      "chip": "ym2612"
    },
    {
      "channel": 1,
      "note": 22,
      "start": 0.6018,
      "duration": 0.0332,
      "velocity": 125,
      "chip": "ym2612"
    },
    {
      "channel": 4,
      "note": 73,
      "start": 0.6056,
      "duration": 0.0001,
      "velocity": 1,
      "chip": "ym2612"
    },
    {
      "channel": 0,
      "note": 49,
      "start": 0.6339,
      "duration": 0.0068,
      "velocity": 107,
      "chip": "ym2612"
    },
    {
      "channel": 4,
      "note": 73,
      "start": 0.6382,
      "duration": 0.0001,
      "velocity": 1,
      "chip": "ym2612"
    },
    {
      "channel": 0,
      "note": 37,
      "start": 0.6636,
      "duration": 0.0078,
      "velocity": 107,
      "chip": "ym2612"
    },
    {
      "channel": 2,
      "note": 77,
      "start": 0.6664,
      "duration": 0.176,
      "velocity": 106,
      "chip": "ym2612"
    },
    {
      "channel": 0,
      "note": 37,
      "start": 0.6935,
      "duration": 0.0063,
      "velocity": 107,
      "chip": "ym2612"
    },
    {
      "channel": 4,
      "note": 73,
      "start": 0.6972,
      "duration": 0.0001,
      "velocity": 1,
      "chip": "ym2612"
    },
    {
      "channel": 0,
      "note": 49,
      "start": 0.7227,
      "duration": 0.0076,
      "velocity": 107,
      "chip": "ym2612"
    },
    {
      "channel": 3,
      "note": 77,
      "start": 0.7259,
      "duration": 0.179,
      "velocity": 106,
      "chip": "ym2612"
    },
    {
      "channel": 4,
      "note": 73,
      "start": 0.7528,
      "duration": 0.0001,
      "velocity": 1,
      "chip": "ym2612"
    },
    {
      "channel": 0,
      "note": 37,
      "start": 0.7765,
      "duration": 0.0063,
      "velocity": 107,
      "chip": "ym2612"
    },
    {
      "channel": 4,
      "note": 73,
      "start": 0.7803,
      "duration": 0.0001,
      "velocity": 1,
      "chip": "ym2612"
    },
    {
      "channel": 0,
      "note": 37,
      "start": 0.807,
      "duration": 0.0076,
      "velocity": 107,
      "chip": "ym2612"
    },
    {
      "channel": 4,
      "note": 73,
      "start": 0.8106,
      "duration": 0.0001,
      "velocity": 1,
      "chip": "ym2612"
    },
    {
      "channel": 0,
      "note": 37,
      "start": 0.8388,
      "duration": 0.0127,
      "velocity": 107,
      "chip": "ym2612"
    },
    {
      "channel": 1,
      "note": 22,
      "start": 0.8415,
      "duration": 0.035,
      "velocity": 125,
      "chip": "ym2612"
    },
    {
      "channel": 2,
      "note": 74,
      "start": 0.8441,
      "duration": 0.1337,
      "velocity": 106,
      "chip": "ym2612"
    },
    {
      "channel": 4,
      "note": 73,
      "start": 0.8475,
      "duration": 0.0001,
      "velocity": 1,
      "chip": "ym2612"
    },
    {
      "channel": 0,
      "note": 49,
      "start": 0.8754,
      "duration": 0.0045,
      "velocity": 107,
      "chip": "ym2612"
    },
    {
      "channel": 0,
      "note": 37,
      "start": 0.9032,
      "duration": 0.0101,
      "velocity": 107,
      "chip": "ym2612"
    },
    {
      "channel": 3,
      "note": 74,
      "start": 0.9066,
      "duration": 0.127,
      "velocity": 106,
      "chip": "ym2612"
    },
    {
      "channel": 4,
      "note": 73,
      "start": 0.9094,
      "duration": 0.0001,
      "velocity": 1,
      "chip": "ym2612"
    },
    {
      "channel": 0,
      "note": 37,
      "start": 0.9384,
      "duration": 0.0102,
      "velocity": 107,
      "chip": "ym2612"
    },
    {
      "channel": 1,
      "note": 22,
      "start": 0.9411,
      "duration": 0.0362,
      "velocity": 125,
      "chip": "ym2612"
    },
    {
      "channel": 4,
      "note": 73,
      "start": 0.9446,
      "duration": 0.0001,
      "velocity": 1,
      "chip": "ym2612"
    },
    {
      "channel": 0,
      "note": 49,
      "start": 0.9761,
      "duration": 0.0106,
      "velocity": 107,
      "chip": "ym2612"
    },
    {
      "channel": 2,
      "note": 68,
      "start": 0.9795,
      "duration": 0.2389,
      "velocity": 106,
      "chip": "ym2612"
    },
    {
      "channel": 4,
      "note": 76,
      "start": 0.9827,
      "duration": 0.0001,
      "velocity": 1,
      "chip": "ym2612"
    },
    {
      "channel": 0,
      "note": 40,
      "start": 1.032,
      "duration": 0.0086,
      "velocity": 107,
      "chip": "ym2612"
    },
    {
      "channel": 3,
      "note": 68,
      "start": 1.0354,
      "duration": 0.2351,
      "velocity": 106,
      "chip": "ym2612"
    },
    {
      "channel": 4,
      "note": 76,
      "start": 1.0382,
      "duration": 0.0001,
      "velocity": 1,
      "chip": "ym2612"
    },
    {
      "channel": 0,
      "note": 40,
      "start": 1.0657,
      "duration": 0.0052,
      "velocity": 107,
      "chip": "ym2612"
    },
    {
      "channel": 0,
      "note": 40,
      "start": 1.0939,
      "duration": 0.0104,
      "velocity": 107,
      "chip": "ym2612"
    },
    {
      "channel": 1,
      "note": 22,
      "start": 1.0966,
      "duration": 0.0332,
      "velocity": 125,
      "chip": "ym2612"
    },
    {
      "channel": 4,
      "note": 76,
      "start": 1.1003,
      "duration": 0.0001,
      "velocity": 1,
      "chip": "ym2612"
    },
    {
      "channel": 0,
      "note": 52,
      "start": 1.1287,
      "duration": 0.0068,
      "velocity": 107,
      "chip": "ym2612"
    },
    {
      "channel": 4,
      "note": 76,
      "start": 1.133,
      "duration": 0.0001,
      "velocity": 1,
      "chip": "ym2612"
    },
    {
      "channel": 0,
      "note": 40,
      "start": 1.1581,
      "duration": 0.0056,
      "velocity": 107,
      "chip": "ym2612"
    },
    {
      "channel": 0,
      "note": 40,
      "start": 1.1859,
      "duration": 0.0063,
      "velocity": 107,
      "chip": "ym2612"
    },
    {
      "channel": 4,
      "note": 76,
      "start": 1.1896,
      "duration": 0.0001,
      "velocity": 1,
      "chip": "ym2612"
    },
    {
      "channel": 0,
      "note": 52,
      "start": 1.2174,
      "duration": 0.0055,
      "velocity": 107,
      "chip": "ym2612"
    },
    {
      "channel": 4,
      "note": 76,
      "start": 1.2454,
      "duration": 0.0001,
      "velocity": 1,
      "chip": "ym2612"
    },
    {
      "channel": 0,
      "note": 40,
      "start": 1.2691,
      "duration": 0.0064,
      "velocity": 107,
      "chip": "ym2612"
    },
    {
      "channel": 4,
      "note": 76,
      "start": 1.2729,
      "duration": 0.0001,
      "velocity": 1,
      "chip": "ym2612"
    },
    {
      "channel": 0,
      "note": 40,
      "start": 1.2991,
      "duration": 0.0053,
      "velocity": 107,
      "chip": "ym2612"
    },
    {
      "channel": 0,
      "note": 40,
      "start": 1.3275,
      "duration": 0.0125,
      "velocity": 107,
      "chip": "ym2612"
    },
    {
      "channel": 1,
      "note": 22,
      "start": 1.3302,
      "duration": 0.0349,
      "velocity": 125,
      "chip": "ym2612"
    },
    {
      "channel": 2,
      "note": 76,
      "start": 1.3328,
      "duration": 0.1268,
      "velocity": 106,
      "chip": "ym2612"
    },
    {
      "channel": 4,
      "note": 76,
      "start": 1.336,
      "duration": 0.0001,
      "velocity": 1,
      "chip": "ym2612"
    },
    {
      "channel": 0,
      "note": 52,
      "start": 1.364,
      "duration": 0.0044,
      "velocity": 107,
      "chip": "ym2612"
    },
    {
      "channel": 0,
      "note": 40,
      "start": 1.392,
      "duration": 0.0101,
      "velocity": 107,
      "chip": "ym2612"
    },
    {
      "channel": 3,
      "note": 76,
      "start": 1.3954,
      "duration": 0.1185,
      "velocity": 106,
      "chip": "ym2612"
    },
    {
      "channel": 4,
      "note": 76,
      "start": 1.3981,
      "duration": 0.0001,
      "velocity": 1,
      "chip": "ym2612"
    },
    {
      "channel": 0,
      "note": 40,
      "start": 1.4269,
      "duration": 0.0077,
      "velocity": 107,
      "chip": "ym2612"
    },
    {
      "channel": 4,
      "note": 76,
      "start": 1.4307,
      "duration": 0.0001,
      "velocity": 1,
      "chip": "ym2612"
    },
    {
      "channel": 0,
      "note": 52,
      "start": 1.4585,
      "duration": 0.01,
      "velocity": 107,
      "chip": "ym2612"
    },
    {
      "channel": 2,
      "note": 78,
      "start": 1.4613,
      "duration": 0.1775,
      "velocity": 106,
      "chip": "ym2612"
    },
    {
      "channel": 4,
      "note": 71,
      "start": 1.4645,
      "duration": 0.0001,
      "velocity": 1,
      "chip": "ym2612"
    },
    {
      "channel": 0,
      "note": 47,
      "start": 1.5124,
      "duration": 0.0085,
      "velocity": 107,
      "chip": "ym2612"
    },
    {
      "channel": 3,
      "note": 78,
      "start": 1.5156,
      "duration": 0.1854,
      "velocity": 106,
      "chip": "ym2612"
    },
    {
      "channel": 4,
      "note": 71,
      "start": 1.5184,
      "duration": 0.0001,
      "velocity": 1,
      "chip": "ym2612"
    },
    {
      "channel": 0,
      "note": 47,
      "start": 1.5452,
      "duration": 0.0052,
      "velocity": 107,
      "chip": "ym2612"
    },
    {
      "channel": 0,
      "note": 47,
      "start": 1.5734,
      "duration": 0.0104,
      "velocity": 107,
      "chip": "ym2612"
    },
    {
      "channel": 1,
      "note": 22,
      "start": 1.5761,
      "duration": 0.0333,
      "velocity": 125,
      "chip": "ym2612"
    },
    {
      "channel": 4,
      "note": 71,
      "start": 1.5798,
      "duration": 0.0001,
      "velocity": 1,
      "chip": "ym2612"
    },
    {
      "channel": 0,
      "note": 59,
      "start": 1.6082,
      "duration": 0.0068,
      "velocity": 107,
      "chip": "ym2612"
    },
    {
      "channel": 4,
      "note": 71,
      "start": 1.6125,
      "duration": 0.0001,
      "velocity": 1,
      "chip": "ym2612"
    },
    {
      "channel": 0,
      "note": 47,
      "start": 1.6376,
      "duration": 0.0078,
      "velocity": 107,
      "chip": "ym2612"
    },
    {
      "channel": 2,
      "note": 75,
      "start": 1.6405,
      "duration": 0.1788,
      "velocity": 106,
      "chip": "ym2612"
    },
    {
      "channel": 0,
      "note": 47,
      "start": 1.6676,
      "duration": 0.0064,
      "velocity": 107,
      "chip": "ym2612"
    },
    {
      "channel": 4,
      "note": 71,
      "start": 1.6714,
      "duration": 0.0001,
      "velocity": 1,
      "chip": "ym2612"
    },
    {
      "channel": 0,
      "note": 59,
      "start": 1.6995,
      "duration": 0.0076,
      "velocity": 107,
      "chip": "ym2612"
    },
    {
      "channel": 3,
      "note": 75,
      "start": 1.7028,
      "duration": 0.1841,
      "velocity": 106,
      "chip": "ym2612"
    },
    {
      "channel": 4,
      "note": 71,
      "start": 1.7298,
      "duration": 0.0001,
      "velocity": 1,
      "chip": "ym2612"
    },
    {
      "channel": 0,
      "note": 47,
      "start": 1.7534,
      "duration": 0.0064,
      "velocity": 107,
      "chip": "ym2612"
    },
    {
      "channel": 4,
      "note": 71,
      "start": 1.7573,
      "duration": 0.0001,
      "velocity": 1,
      "chip": "ym2612"
    },
    {
      "channel": 0,
      "note": 47,
      "start": 1.7838,
      "duration": 0.0076,
      "velocity": 107,
      "chip": "ym2612"
    },
    {
      "channel": 4,
      "note": 71,
      "start": 1.7875,
      "duration": 0.0001,
      "velocity": 1,
      "chip": "ym2612"
    },
    {
      "channel": 0,
      "note": 47,
      "start": 1.8156,
      "duration": 0.0127,
      "velocity": 107,
      "chip": "ym2612"
    },
    {
      "channel": 1,
      "note": 22,
      "start": 1.8183,
      "duration": 0.0351,
      "velocity": 125,
      "chip": "ym2612"
    },
    {
      "channel": 2,
      "note": 74,
      "start": 1.8209,
      "duration": 0.1416,
      "velocity": 106,
      "chip": "ym2612"
    },
    {
      "channel": 4,
      "note": 71,
      "start": 1.8243,
      "duration": 0.0001,
      "velocity": 1,
      "chip": "ym2612"
    },
    {
      "channel": 0,
      "note": 59,
      "start": 1.8523,
      "duration": 0.0046,
      "velocity": 107,
      "chip": "ym2612"
    },
    {
      "channel": 0,
      "note": 47,
      "start": 1.8828,
      "duration": 0.0125,
      "velocity": 107,
      "chip": "ym2612"
    },
    {
      "channel": 1,
      "note": 22,
      "start": 1.8855,
      "duration": 0.0386,
      "velocity": 125,
      "chip": "ym2612"
    },
    {
      "channel": 3,
      "note": 74,
      "start": 1.8886,
      "duration": 0.1298,
      "velocity": 106,
      "chip": "ym2612"
    },
    {
      "channel": 4,
      "note": 71,
      "start": 1.8914,
      "duration": 0.0001,
      "velocity": 1,
      "chip": "ym2612"
    },
    {
      "channel": 0,
      "note": 47,
      "start": 1.9231,
      "duration": 0.0102,
      "velocity": 107,
      "chip": "ym2612"
    },
    {
      "channel": 1,
      "note": 28,
      "start": 1.9258,
      "duration": 0.0361,
      "velocity": 125,
      "chip": "ym2612"
    },
    {
      "channel": 4,
      "note": 71,
      "start": 1.9293,
      "duration": 0.0001,
      "velocity": 1,
      "chip": "ym2612"
    },
    {
      "channel": 0,
      "note": 59,
      "start": 1.9608,
      "duration": 0.0106,
      "velocity": 107,
      "chip": "ym2612"
    },
    {
      "channel": 2,
      "note": 71,
      "start": 1.9642,
      "duration": 0.1773,
      "velocity": 106,
      "chip": "ym2612"
    },
    {
      "channel": 4,
      "note": 78,
      "start": 1.9674,
      "duration": 0.0001,
      "velocity": 1,
      "chip": "ym2612"
    },
    {
      "channel": 0,
      "note": 42,
      "start": 2.0168,
      "duration": 0.0086,
      "velocity": 107,
      "chip": "ym2612"
    },
    {
      "channel": 3,
      "note": 71,
      "start": 2.0202,
      "duration": 0.1832,
      "velocity": 106,
      "chip": "ym2612"
    },
    {
      "channel": 4,
      "note": 78,
      "start": 2.0229,
      "duration": 0.0001,
      "velocity": 1,
      "chip": "ym2612"
    },
    {
      "channel": 0,
      "note": 42,
      "start": 2.0504,
      "duration": 0.0053,
      "velocity": 107,
      "chip": "ym2612"
    },
    {
      "channel": 0,
      "note": 42,
      "start": 2.0786,
      "duration": 0.0104,
      "velocity": 107,
      "chip": "ym2612"
    },
    {
      "channel": 1,
      "note": 22,
      "start": 2.0813,
      "duration": 0.0328,
      "velocity": 125,
      "chip": "ym2612"
    },
    {
      "channel": 4,
      "note": 78,
      "start": 2.0851,
      "duration": 0.0001,
      "velocity": 1,
      "chip": "ym2612"
    },
    {
      "channel": 0,
      "note": 54,
      "start": 2.113,
      "duration": 0.0045,
      "velocity": 107,
      "chip": "ym2612"
    },
    {
      "channel": 0,
      "note": 42,
      "start": 2.1403,
      "duration": 0.0102,
      "velocity": 107,
      "chip": "ym2612"
    },
    {
      "channel": 2,
      "note": 71,
      "start": 2.1432,
      "duration": 0.1785,
      "velocity": 106,
      "chip": "ym2612"
    },
    {
      "channel": 4,
      "note": 78,
      "start": 2.1466,
      "duration": 0.0001,
      "velocity": 1,
      "chip": "ym2612"
    },
    {
      "channel": 0,
      "note": 42,
      "start": 2.1727,
      "duration": 0.0063,
      "velocity": 107,
      "chip": "ym2612"
    },
    {
      "channel": 4,
      "note": 78,
      "start": 2.1765,
      "duration": 0.0001,
      "velocity": 1,
      "chip": "ym2612"
    },
    {
      "channel": 0,
      "note": 54,
      "start": 2.2019,
      "duration": 0.0076,
      "velocity": 107,
      "chip": "ym2612"
    },
    {
      "channel": 3,
      "note": 71,
      "start": 2.2051,
      "duration": 0.1789,
      "velocity": 106,
      "chip": "ym2612"
    },
    {
      "channel": 4,
      "note": 78,
      "start": 2.2319,
      "duration": 0.0001,
      "velocity": 1,
      "chip": "ym2612"
    },
    {
      "channel": 0,
      "note": 42,
      "start": 2.2556,
      "duration": 0.0063,
      "velocity": 107,
      "chip": "ym2612"
    },
    {
      "channel": 4,
      "note": 78,
      "start": 2.2595,
      "duration": 0.0001,
      "velocity": 1,
      "chip": "ym2612"
    },
    {
      "channel": 0,
      "note": 42,
      "start": 2.2862,
      "duration": 0.0076,
      "velocity": 107,
      "chip": "ym2612"
    },
    {
      "channel": 4,
      "note": 78,
      "start": 2.2898,
      "duration": 0.0001,
      "velocity": 1,
      "chip": "ym2612"
    },
    {
      "channel": 0,
      "note": 42,
      "start": 2.318,
      "duration": 0.0127,
      "velocity": 107,
      "chip": "ym2612"
    },
    {
      "channel": 1,
      "note": 22,
      "start": 2.3207,
      "duration": 0.0351,
      "velocity": 125,
      "chip": "ym2612"
    },
    {
      "channel": 2,
      "note": 74,
      "start": 2.3233,
      "duration": 0.131,
      "velocity": 106,
      "chip": "ym2612"
    },
    {
      "channel": 4,
      "note": 78,
      "start": 2.3267,
      "duration": 0.0001,
      "velocity": 1,
      "chip": "ym2612"
    },
    {
      "channel": 0,
      "note": 54,
      "start": 2.3546,
      "duration": 0.0045,
      "velocity": 107,
      "chip": "ym2612"
    },
    {
      "channel": 0,
      "note": 42,
      "start": 2.3824,
      "duration": 0.0124,
      "velocity": 107,
      "chip": "ym2612"
    },
    {
      "channel": 3,
      "note": 74,
      "start": 2.3858,
      "duration": 0.1226,
      "velocity": 106,
      "chip": "ym2612"
    },
    {
      "channel": 4,
      "note": 78,
      "start": 2.3885,
      "duration": 0.0001,
      "velocity": 1,
      "chip": "ym2612"
    },
    {
      "channel": 0,
      "note": 42,
      "start": 2.4215,
      "duration": 0.0078,
      "velocity": 107,
      "chip": "ym2612"
    },
    {
      "channel": 4,
      "note": 78,
      "start": 2.4253,
      "duration": 0.0001,
      "velocity": 1,
      "chip": "ym2612"
    },
    {
      "channel": 0,
      "note": 54,
      "start": 2.4532,
      "duration": 0.0099,
      "velocity": 107,
      "chip": "ym2612"
    },
    {
      "channel": 2,
      "note": 78,
      "start": 2.4559,
      "duration": 0.1752,
      "velocity": 106,
      "chip": "ym2612"
    },
    {
      "channel": 4,
      "note": 73,
      "start": 2.4592,
      "duration": 0.0001,
      "velocity": 1,
      "chip": "ym2612"
    },
    {
      "channel": 0,
      "note": 37,
      "start": 2.5069,
      "duration": 0.0085,
      "velocity": 107,
      "chip": "ym2612"
    },
    {
      "channel": 3,
      "note": 78,
      "start": 2.5102,
      "duration": 0.1832,
      "velocity": 106,
      "chip": "ym2612"
    },
    {
      "channel": 4,
      "note": 73,
      "start": 2.5129,
      "duration": 0.0001,
      "velocity": 1,
      "chip": "ym2612"
    },
    {
      "channel": 0,
      "note": 37,
      "start": 2.5373,
      "duration": 0.0052,
      "velocity": 107,
      "chip": "ym2612"
    },
    {
      "channel": 0,
      "note": 37,
      "start": 2.5655,
      "duration": 0.0104,
      "velocity": 107,
      "chip": "ym2612"
    },
    {
      "channel": 1,
      "note": 22,
      "start": 2.5681,
      "duration": 0.0333,
      "velocity": 125,
      "chip": "ym2612"
    },
    {
      "channel": 4,
      "note": 73,
      "start": 2.572,
      "duration": 0.0001,
      "velocity": 1,
      "chip": "ym2612"
    },
    {
      "channel": 0,
      "note": 49,
      "start": 2.6003,
      "duration": 0.0068,
      "velocity": 107,
      "chip": "ym2612"
    },
    {
      "channel": 4,
      "note": 73,
      "start": 2.6046,
      "duration": 0.0001,
      "velocity": 1,
      "chip": "ym2612"
    },
    {
      "channel": 0,
      "note": 37,
      "start": 2.63,
      "duration": 0.0078,
      "velocity": 107,
      "chip": "ym2612"
    },
    {
      "channel": 2,
      "note": 77,
      "start": 2.6328,
      "duration": 0.2407,
      "velocity": 106,
      "chip": "ym2612"
    },
    {
      "channel": 0,
      "note": 37,
      "start": 2.6599,
      "duration": 0.0063,
      "velocity": 107,
      "chip": "ym2612"
    },
    {
      "channel": 4,
      "note": 73,
      "start": 2.6637,
      "duration": 0.0001,
      "velocity": 1,
      "chip": "ym2612"
    },
    {
      "channel": 0,
      "note": 49,
      "start": 2.6918,
      "duration": 0.0076,
      "velocity": 107,
      "chip": "ym2612"
    },
    {
      "channel": 3,
      "note": 77,
      "start": 2.6951,
      "duration": 0.2547,
      "velocity": 106,
      "chip": "ym2612"
    },
    {
      "channel": 4,
      "note": 73,
      "start": 2.722,
      "duration": 0.0001,
      "velocity": 1,
      "chip": "ym2612"
    },
    {
      "channel": 0,
      "note": 37,
      "start": 2.7459,
      "duration": 0.0064,
      "velocity": 107,
      "chip": "ym2612"
    },
    {
      "channel": 4,
      "note": 73,
      "start": 2.7498,
      "duration": 0.0001,
      "velocity": 1,
      "chip": "ym2612"
    },
    {
      "channel": 0,
      "note": 37,
      "start": 2.7762,
      "duration": 0.0076,
      "velocity": 107,
      "chip": "ym2612"
    },
    {
      "channel": 4,
      "note": 73,
      "start": 2.7798,
      "duration": 0.0001,
      "velocity": 1,
      "chip": "ym2612"
    },
    {
      "channel": 0,
      "note": 37,
      "start": 2.8078,
      "duration": 0.0104,
      "velocity": 107,
      "chip": "ym2612"
    },
    {
      "channel": 1,
      "note": 22,
      "start": 2.8105,
      "duration": 0.0329,
      "velocity": 125,
      "chip": "ym2612"
    },
    {
      "channel": 4,
      "note": 73,
      "start": 2.8143,
      "duration": 0.0001,
      "velocity": 1,
      "chip": "ym2612"
    },
    {
      "channel": 0,
      "note": 49,
      "start": 2.8423,
      "duration": 0.0044,
      "velocity": 107,
      "chip": "ym2612"
    },
    {
      "channel": 0,
      "note": 37,
      "start": 2.8724,
      "duration": 0.0101,
      "velocity": 107,
      "chip": "ym2612"
    },
    {
      "channel": 2,
      "note": 81,
      "start": 2.8752,
      "duration": 0.0719,
      "velocity": 106,
      "chip": "ym2612"
    },
    {
      "channel": 4,
      "note": 73,
      "start": 2.8784,
      "duration": 0.0001,
      "velocity": 1,
      "chip": "ym2612"
    },
    {
      "channel": 0,
      "note": 37,
      "start": 2.9075,
      "duration": 0.0102,
      "velocity": 107,
      "chip": "ym2612"
    },
    {
      "channel": 1,
      "note": 22,
      "start": 2.9101,
      "duration": 0.0363,
      "velocity": 125,
      "chip": "ym2612"
    },
    {
      "channel": 4,
      "note": 73,
      "start": 2.9137,
      "duration": 0.0001,
      "velocity": 1,
      "chip": "ym2612"
    },
    {
      "channel": 0,
      "note": 49,
      "start": 2.9454,
      "duration": 0.0129,
      "velocity": 107,
      "chip": "ym2612"
    },
    {
      "channel": 2,
      "note": 73,
      "start": 2.9487,
      "duration": 0.2385,
      "velocity": 106,
      "chip": "ym2612"
    },
    {
      "channel": 3,
      "note": 81,
      "start": 2.9515,
      "duration": 0.0537,
      "velocity": 106,
      "chip": "ym2612"
    },
    {
      "channel": 4,
      "note": 76,
      "start": 2.9543,
      "duration": 0.0001,
      "velocity": 1,
      "chip": "ym2612"
    },
    {
      "channel": 0,
      "note": 40,
      "start": 3.0035,
      "duration": 0.0086,
      "velocity": 107,
      "chip": "ym2612"
    },
    {
      "channel": 3,
      "note": 73,
      "start": 3.0069,
      "duration": 0.2325,
      "velocity": 106,
      "chip": "ym2612"
    },
    {
      "channel": 4,
      "note": 76,
      "start": 3.0097,
      "duration": 0.0001,
      "velocity": 1,
      "chip": "ym2612"
    },
    {
      "channel": 0,
      "note": 40,
      "start": 3.0346,
      "duration": 0.0052,
      "velocity": 107,
      "chip": "ym2612"
    },
    {
      "channel": 0,
      "note": 40,
      "start": 3.0628,
      "duration": 0.0104,
      "velocity": 107,
      "chip": "ym2612"
    },
    {
      "channel": 1,
      "note": 22,
      "start": 3.0654,
      "duration": 0.0332,
      "velocity": 125,
      "chip": "ym2612"
    },
    {
      "channel": 4,
      "note": 76,
      "start": 3.0692,
      "duration": 0.0001,
      "velocity": 1,
      "chip": "ym2612"
    },
    {
      "channel": 0,
      "note": 52,
      "start": 3.0976,
      "duration": 0.0068,
      "velocity": 107,
      "chip": "ym2612"
    },
    {
      "channel": 4,
      "note": 76,
      "start": 3.1019,
      "duration": 0.0001,
      "velocity": 1,
      "chip": "ym2612"
    },
    {
      "channel": 0,
      "note": 40,
      "start": 3.127,
      "duration": 0.0056,
      "velocity": 107,
      "chip": "ym2612"
    },
    {
      "channel": 0,
      "note": 40,
      "start": 3.1548,
      "duration": 0.0063,
      "velocity": 107,
      "chip": "ym2612"
    },
    {
      "channel": 4,
      "note": 76,
      "start": 3.1586,
      "duration": 0.0001,
      "velocity": 1,
      "chip": "ym2612"
    },
    {
      "channel": 0,
      "note": 52,
      "start": 3.1863,
      "duration": 0.0055,
      "velocity": 107,
      "chip": "ym2612"
    },
    {
      "channel": 4,
      "note": 76,
      "start": 3.2143,
      "duration": 0.0001,
      "velocity": 1,
      "chip": "ym2612"
    },
    {
      "channel": 0,
      "note": 40,
      "start": 3.238,
      "duration": 0.0064,
      "velocity": 107,
      "chip": "ym2612"
    },
    {
      "channel": 4,
      "note": 76,
      "start": 3.2418,
      "duration": 0.0001,
      "velocity": 1,
      "chip": "ym2612"
    },
    {
      "channel": 0,
      "note": 40,
      "start": 3.268,
      "duration": 0.0052,
      "velocity": 107,
      "chip": "ym2612"
    },
    {
      "channel": 0,
      "note": 40,
      "start": 3.2964,
      "duration": 0.0125,
      "velocity": 107,
      "chip": "ym2612"
    },
    {
      "channel": 1,
      "note": 22,
      "start": 3.2991,
      "duration": 0.0349,
      "velocity": 125,
      "chip": "ym2612"
    },
    {
      "channel": 2,
      "note": 76,
      "start": 3.3017,
      "duration": 0.0605,
      "velocity": 106,
      "chip": "ym2612"
    },
    {
      "channel": 4,
      "note": 76,
      "start": 3.3049,
      "duration": 0.0001,
      "velocity": 1,
      "chip": "ym2612"
    },
    {
      "channel": 0,
      "note": 52,
      "start": 3.3329,
      "duration": 0.0044,
      "velocity": 107,
      "chip": "ym2612"
    },
    {
      "channel": 0,
      "note": 40,
      "start": 3.361,
      "duration": 0.0123,
      "velocity": 107,
      "chip": "ym2612"
    },
    {
      "channel": 2,
      "note": 75,
      "start": 3.3639,
      "duration": 0.0675,
      "velocity": 106,
      "chip": "ym2612"
    },
    {
      "channel": 3,
      "note": 76,
      "start": 3.3666,
      "duration": 0.0675,
      "velocity": 106,
      "chip": "ym2612"
    },
    {
      "channel": 4,
      "note": 76,
      "start": 3.3694,
      "duration": 0.0001,
      "velocity": 1,
      "chip": "ym2612"
    },
    {
      "channel": 0,
      "note": 40,
      "start": 3.3985,
      "duration": 0.0077,
      "velocity": 107,
      "chip": "ym2612"
    },
    {
      "channel": 4,
      "note": 76,
      "start": 3.4023,
      "duration": 0.0001,
      "velocity": 1,
      "chip": "ym2612"
    },
    {
      "channel": 0,
      "note": 52,
      "start": 3.4304,
      "duration": 0.0122,
      "velocity": 107,
      "chip": "ym2612"
    },
    {
      "channel": 2,
      "note": 73,
      "start": 3.4331,
      "duration": 0.2363,
      "velocity": 106,
      "chip": "ym2612"
    },
    {
      "channel": 3,
      "note": 75,
      "start": 3.4359,
      "duration": 0.0521,
      "velocity": 106,
      "chip": "ym2612"
    },
    {
      "channel": 4,
      "note": 71,
      "start": 3.4386,
      "duration": 0.0001,
      "velocity": 1,
      "chip": "ym2612"
    },
    {
      "channel": 0,
      "note": 47,
      "start": 3.4865,
      "duration": 0.0085,
      "velocity": 107,
      "chip": "ym2612"
    },
    {
      "channel": 3,
      "note": 73,
      "start": 3.4897,
      "duration": 0.2318,
      "velocity": 106,
      "chip": "ym2612"
    },
    {
      "channel": 4,
      "note": 71,
      "start": 3.4925,
      "duration": 0.0001,
      "velocity": 1,
      "chip": "ym2612"
    },
    {
      "channel": 0,
      "note": 47,
      "start": 3.5166,
      "duration": 0.0053,
      "velocity": 107,
      "chip": "ym2612"
    },
    {
      "channel": 0,
      "note": 47,
      "start": 3.5448,
      "duration": 0.0104,
      "velocity": 107,
      "chip": "ym2612"
    },
    {
      "channel": 1,
      "note": 22,
      "start": 3.5475,
      "duration": 0.0334,
      "velocity": 125,
      "chip": "ym2612"
    },
    {
      "channel": 4,
      "note": 71,
      "start": 3.5513,
      "duration": 0.0001,
      "velocity": 1,
      "chip": "ym2612"
    },
    {
      "channel": 0,
      "note": 59,
      "start": 3.5797,
      "duration": 0.0068,
      "velocity": 107,
      "chip": "ym2612"
    },
    {
      "channel": 4,
      "note": 71,
      "start": 3.584,
      "duration": 0.0001,
      "velocity": 1,
      "chip": "ym2612"
    },
    {
      "channel": 0,
      "note": 47,
      "start": 3.6091,
      "duration": 0.0057,
      "velocity": 107,
      "chip": "ym2612"
    },
    {
      "channel": 0,
      "note": 47,
      "start": 3.637,
      "duration": 0.0063,
      "velocity": 107,
      "chip": "ym2612"
    },
    {
      "channel": 4,
      "note": 71,
      "start": 3.6408,
      "duration": 0.0001,
      "velocity": 1,
      "chip": "ym2612"
    },
    {
      "channel": 0,
      "note": 59,
      "start": 3.6684,
      "duration": 0.0055,
      "velocity": 107,
      "chip": "ym2612"
    },
    {
      "channel": 4,
      "note": 71,
      "start": 3.6965,
      "duration": 0.0001,
      "velocity": 1,
      "chip": "ym2612"
    },
    {
      "channel": 0,
      "note": 47,
      "start": 3.7201,
      "duration": 0.0063,
      "velocity": 107,
      "chip": "ym2612"
    },
    {
      "channel": 4,
      "note": 71,
      "start": 3.724,
      "duration": 0.0001,
      "velocity": 1,
      "chip": "ym2612"
    },
    {
      "channel": 0,
      "note": 47,
      "start": 3.7502,
      "duration": 0.0076,
      "velocity": 107,
      "chip": "ym2612"
    },
    {
      "channel": 4,
      "note": 71,
      "start": 3.7539,
      "duration": 0.0001,
      "velocity": 1,
      "chip": "ym2612"
    },
    {
      "channel": 0,
      "note": 47,
      "start": 3.7819,
      "duration": 0.0102,
      "velocity": 107,
      "chip": "ym2612"
    },
    {
      "channel": 1,
      "note": 22,
      "start": 3.7845,
      "duration": 0.0326,
      "velocity": 125,
      "chip": "ym2612"
    },
    {
      "channel": 4,
      "note": 71,
      "start": 3.7881,
      "duration": 0.0001,
      "velocity": 1,
      "chip": "ym2612"
    },
    {
      "channel": 0,
      "note": 59,
      "start": 3.816,
      "duration": 0.0046,
      "velocity": 107,
      "chip": "ym2612"
    },
    {
      "channel": 0,
      "note": 47,
      "start": 3.8437,
      "duration": 0.0125,
      "velocity": 107,
      "chip": "ym2612"
    },
    {
      "channel": 1,
      "note": 22,
      "start": 3.8463,
      "duration": 0.0401,
      "velocity": 125,
      "chip": "ym2612"
    },
    {
      "channel": 4,
      "note": 71,
      "start": 3.8499,
      "duration": 0.0001,
      "velocity": 1,
      "chip": "ym2612"
    },
    {
      "channel": 0,
      "note": 47,
      "start": 3.8855,
      "duration": 0.0102,
      "velocity": 107,
      "chip": "ym2612"
    },
    {
      "channel": 1,
      "note": 28,
      "start": 3.8881,
      "duration": 0.0362,
      "velocity": 125,
      "chip": "ym2612"
    },
    {
      "channel": 4,
      "note": 71,
      "start": 3.8917,
      "duration": 0.0001,
      "velocity": 1,
      "chip": "ym2612"
    },
    {
      "channel": 0,
      "note": 59,
      "start": 3.9232,
      "duration": 0.0106,
      "velocity": 107,
      "chip": "ym2612"
    },
    {
      "channel": 2,
      "note": 72,
      "start": 3.9266,
      "duration": 0.2392,
      "velocity": 106,
      "chip": "ym2612"
    },
    {
      "channel": 4,
      "note": 78,
      "start": 3.9298,
      "duration": 0.0001,
      "velocity": 1,
      "chip": "ym2612"
    },
    {
      "channel": 0,
      "note": 42,
      "start": 3.9793,
      "duration": 0.0086,
      "velocity": 107,
      "chip": "ym2612"
    },
    {
      "channel": 3,
      "note": 72,
      "start": 3.9827,
      "duration": 0.2372,
      "velocity": 106,
      "chip": "ym2612"
    },
    {
      "channel": 4,
      "note": 78,
      "start": 3.9855,
      "duration": 0.0001,
      "velocity": 1,
      "chip": "ym2612"
    },
    {
      "channel": 0,
      "note": 42,
      "start": 4.0128,
      "duration": 0.0052,
      "velocity": 107,
      "chip": "ym2612"
    },
    {
      "channel": 0,
      "note": 42,
      "start": 4.0411,
      "duration": 0.0104,
      "velocity": 107,
      "chip": "ym2612"
    },
    {
      "channel": 1,
      "note": 22,
      "start": 4.0438,
      "duration": 0.0329,
      "velocity": 125,
      "chip": "ym2612"
    },
    {
      "channel": 4,
      "note": 78,
      "start": 4.0476,
      "duration": 0.0001,
      "velocity": 1,
      "chip": "ym2612"
    },
    {
      "channel": 0,
      "note": 54,
      "start": 4.0756,
      "duration": 0.0046,
      "velocity": 107,
      "chip": "ym2612"
    },
    {
      "channel": 0,
      "note": 42,
      "start": 4.1055,
      "duration": 0.008,
      "velocity": 107,
      "chip": "ym2612"
    },
    {
      "channel": 4,
      "note": 78,
      "start": 4.1095,
      "duration": 0.0001,
      "velocity": 1,
      "chip": "ym2612"
    },
    {
      "channel": 0,
      "note": 42,
      "start": 4.1358,
      "duration": 0.0063,
      "velocity": 107,
      "chip": "ym2612"
    },
    {
      "channel": 4,
      "note": 78,
      "start": 4.1396,
      "duration": 0.0001,
      "velocity": 1,
      "chip": "ym2612"
    },
    {
      "channel": 0,
      "note": 54,
      "start": 4.1648,
      "duration": 0.0056,
      "velocity": 107,
      "chip": "ym2612"
    },
    {
      "channel": 4,
      "note": 78,
      "start": 4.1947,
      "duration": 0.0001,
      "velocity": 1,
      "chip": "ym2612"
    },
    {
      "channel": 0,
      "note": 42,
      "start": 4.2185,
      "duration": 0.0064,
      "velocity": 107,
      "chip": "ym2612"
    },
    {
      "channel": 4,
      "note": 78,
      "start": 4.2224,
      "duration": 0.0001,
      "velocity": 1,
      "chip": "ym2612"
    },
    {
      "channel": 0,
      "note": 42,
      "start": 4.2485,
      "duration": 0.0076,
      "velocity": 107,
      "chip": "ym2612"
    },
    {
      "channel": 4,
      "note": 78,
      "start": 4.2522,
      "duration": 0.0001,
      "velocity": 1,
      "chip": "ym2612"
    },
    {
      "channel": 0,
      "note": 42,
      "start": 4.2803,
      "duration": 0.0125,
      "velocity": 107,
      "chip": "ym2612"
    },
    {
      "channel": 1,
      "note": 22,
      "start": 4.283,
      "duration": 0.0351,
      "velocity": 125,
      "chip": "ym2612"
    },
    {
      "channel": 2,
      "note": 90,
      "start": 4.2856,
      "duration": 0.1294,
      "velocity": 106,
      "chip": "ym2612"
    },
    {
      "channel": 4,
      "note": 78,
      "start": 4.2888,
      "duration": 0.0001,
      "velocity": 1,
      "chip": "ym2612"
    },
    {
      "channel": 0,
      "note": 54,
      "start": 4.317,
      "duration": 0.0046,
      "velocity": 107,
      "chip": "ym2612"
    },
    {
      "channel": 0,
      "note": 42,
      "start": 4.3474,
      "duration": 0.0102,
      "velocity": 107,
      "chip": "ym2612"
    },
    {
      "channel": 3,
      "note": 90,
      "start": 4.3507,
      "duration": 0.1188,
      "velocity": 106,
      "chip": "ym2612"
    },
    {
      "channel": 4,
      "note": 78,
      "start": 4.3536,
      "duration": 0.0001,
      "velocity": 1,
      "chip": "ym2612"
    },
    {
      "channel": 0,
      "note": 42,
      "start": 4.3823,
      "duration": 0.0078,
      "velocity": 107,
      "chip": "ym2612"
    },
    {
      "channel": 4,
      "note": 78,
      "start": 4.3861,
      "duration": 0.0001,
      "velocity": 1,
      "chip": "ym2612"
    },
    {
      "channel": 0,
      "note": 54,
      "start": 4.414,
      "duration": 0.01,
      "velocity": 107,
      "chip": "ym2612"
    },
    {
      "channel": 2,
      "note": 92,
      "start": 4.4167,
      "duration": 0.1803,
      "velocity": 106,
      "chip": "ym2612"
    },
    {
      "channel": 4,
      "note": 73,
      "start": 4.4199,
      "duration": 0.0001,
      "velocity": 1,
      "chip": "ym2612"
    },
    {
      "channel": 0,
      "note": 37,
      "start": 4.4681,
      "duration": 0.0085,
      "velocity": 107,
      "chip": "ym2612"
    },
    {
      "channel": 3,
      "note": 92,
      "start": 4.4713,
      "duration": 0.1879,
      "velocity": 106,
      "chip": "ym2612"
    },
    {
      "channel": 4,
      "note": 73,
      "start": 4.4741,
      "duration": 0.0001,
      "velocity": 1,
      "chip": "ym2612"
    },
    {
      "channel": 0,
      "note": 37,
      "start": 4.5006,
      "duration": 0.0053,
      "velocity": 107,
      "chip": "ym2612"
    },
    {
      "channel": 0,
      "note": 37,
      "start": 4.5288,
      "duration": 0.0104,
      "velocity": 107,
      "chip": "ym2612"
    },
    {
      "channel": 1,
      "note": 22,
      "start": 4.5315,
      "duration": 0.0334,
      "velocity": 125,
      "chip": "ym2612"
    },
    {
      "channel": 4,
      "note": 73,
      "start": 4.5353,
      "duration": 0.0001,
      "velocity": 1,
      "chip": "ym2612"
    },
    {
      "channel": 0,
      "note": 49,
      "start": 4.5637,
      "duration": 0.0069,
      "velocity": 107,
      "chip": "ym2612"
    },
    {
      "channel": 4,
      "note": 73,
      "start": 4.568,
      "duration": 0.0001,
      "velocity": 1,
      "chip": "ym2612"
    },
    {
      "channel": 0,
      "note": 37,
      "start": 4.5958,
      "duration": 0.0078,
      "velocity": 107,
      "chip": "ym2612"
    },
    {
      "channel": 2,
      "note": 89,
      "start": 4.5986,
      "duration": 0.1788,
      "velocity": 106,
      "chip": "ym2612"
    },
    {
      "channel": 0,
      "note": 37,
      "start": 4.626,
      "duration": 0.0063,
      "velocity": 107,
      "chip": "ym2612"
    },
    {
      "channel": 4,
      "note": 73,
      "start": 4.6298,
      "duration": 0.0001,
      "velocity": 1,
      "chip": "ym2612"
    },
    {
      "channel": 0,
      "note": 49,
      "start": 4.6578,
      "duration": 0.0076,
      "velocity": 107,
      "chip": "ym2612"
    },
    {
      "channel": 3,
      "note": 89,
      "start": 4.661,
      "duration": 0.1815,
      "velocity": 106,
      "chip": "ym2612"
    },
    {
      "channel": 4,
      "note": 73,
      "start": 4.6881,
      "duration": 0.0001,
      "velocity": 1,
      "chip": "ym2612"
    },
    {
      "channel": 0,
      "note": 37,
      "start": 4.7119,
      "duration": 0.0064,
      "velocity": 107,
      "chip": "ym2612"
    },
    {
      "channel": 4,
      "note": 73,
      "start": 4.7158,
      "duration": 0.0001,
      "velocity": 1,
      "chip": "ym2612"
    },
    {
      "channel": 0,
      "note": 37,
      "start": 4.7421,
      "duration": 0.0076,
      "velocity": 107,
      "chip": "ym2612"
    },
    {
      "channel": 4,
      "note": 73,
      "start": 4.7457,
      "duration": 0.0001,
      "velocity": 1,
      "chip": "ym2612"
    },
    {
      "channel": 0,
      "note": 37,
      "start": 4.7739,
      "duration": 0.0127,
      "velocity": 107,
      "chip": "ym2612"
    },
    {
      "channel": 1,
      "note": 22,
      "start": 4.7766,
      "duration": 0.0352,
      "velocity": 125,
      "chip": "ym2612"
    },
    {
      "channel": 2,
      "note": 86,
      "start": 4.7792,
      "duration": 0.1341,
      "velocity": 106,
      "chip": "ym2612"
    },
    {
      "channel": 4,
      "note": 73,
      "start": 4.7826,
      "duration": 0.0001,
      "velocity": 1,
      "chip": "ym2612"
    },
    {
      "channel": 0,
      "note": 49,
      "start": 4.8107,
      "duration": 0.0044,
      "velocity": 107,
      "chip": "ym2612"
    },
    {
      "channel": 0,
      "note": 37,
      "start": 4.8409,
      "duration": 0.0102,
      "velocity": 107,
      "chip": "ym2612"
    },
    {
      "channel": 3,
      "note": 86,
      "start": 4.8443,
      "duration": 0.1267,
      "velocity": 106,
      "chip": "ym2612"
    },
    {
      "channel": 4,
      "note": 73,
      "start": 4.8471,
      "duration": 0.0001,
      "velocity": 1,
      "chip": "ym2612"
    },
    {
      "channel": 0,
      "note": 37,
      "start": 4.876,
      "duration": 0.0102,
      "velocity": 107,
      "chip": "ym2612"
    },
    {
      "channel": 1,
      "note": 22,
      "start": 4.8787,
      "duration": 0.034,
      "velocity": 125,
      "chip": "ym2612"
    },
    {
      "channel": 4,
      "note": 73,
      "start": 4.8822,
      "duration": 0.0001,
      "velocity": 1,
      "chip": "ym2612"
    },
    {
      "channel": 0,
      "note": 49,
      "start": 4.9116,
      "duration": 0.0106,
      "velocity": 107,
      "chip": "ym2612"
    },
    {
      "channel": 2,
      "note": 80,
      "start": 4.915,
      "duration": 0.2404,
      "velocity": 106,
      "chip": "ym2612"
    },
    {
      "channel": 4,
      "note": 76,
      "start": 4.9182,
      "duration": 0.0001,
      "velocity": 1,
      "chip": "ym2612"
    },
    {
      "channel": 0,
      "note": 40,
      "start": 4.9694,
      "duration": 0.0087,
      "velocity": 107,
      "chip": "ym2612"
    },
    {
      "channel": 3,
      "note": 80,
      "start": 4.9728,
      "duration": 0.235,
      "velocity": 106,
      "chip": "ym2612"
    },
    {
      "channel": 4,
      "note": 76,
      "start": 4.9756,
      "duration": 0.0001,
      "velocity": 1,
      "chip": "ym2612"
    },
    {
      "channel": 0,
      "note": 40,
      "start": 5.0029,
      "duration": 0.0052,
      "velocity": 107,
      "chip": "ym2612"
    },
    {
      "channel": 0,
      "note": 40,
      "start": 5.0311,
      "duration": 0.0104,
      "velocity": 107,
      "chip": "ym2612"
    },
    {
      "channel": 1,
      "note": 22,
      "start": 5.0337,
      "duration": 0.0334,
      "velocity": 125,
      "chip": "ym2612"
    },
    {
      "channel": 4,
      "note": 76,
      "start": 5.0376,
      "duration": 0.0001,
      "velocity": 1,
      "chip": "ym2612"
    },
    {
      "channel": 0,
      "note": 52,
      "start": 5.0661,
      "duration": 0.0068,
      "velocity": 107,
      "chip": "ym2612"
    },
    {
      "channel": 4,
      "note": 76,
      "start": 5.0704,
      "duration": 0.0001,
      "velocity": 1,
      "chip": "ym2612"
    },
    {
      "channel": 0,
      "note": 40,
      "start": 5.0951,
      "duration": 0.0057,
      "velocity": 107,
      "chip": "ym2612"
    },
    {
      "channel": 0,
      "note": 40,
      "start": 5.123,
      "duration": 0.0064,
      "velocity": 107,
      "chip": "ym2612"
    },
    {
      "channel": 4,
      "note": 76,
      "start": 5.1268,
      "duration": 0.0001,
      "velocity": 1,
      "chip": "ym2612"
    },
    {
      "channel": 0,
      "note": 52,
      "start": 5.1544,
      "duration": 0.0055,
      "velocity": 107,
      "chip": "ym2612"
    },
    {
      "channel": 4,
      "note": 76,
      "start": 5.1825,
      "duration": 0.0001,
      "velocity": 1,
      "chip": "ym2612"
    },
    {
      "channel": 0,
      "note": 40,
      "start": 5.2064,
      "duration": 0.0063,
      "velocity": 107,
      "chip": "ym2612"
    },
    {
      "channel": 4,
      "note": 76,
      "start": 5.2102,
      "duration": 0.0001,
      "velocity": 1,
      "chip": "ym2612"
    },
    {
      "channel": 0,
      "note": 40,
      "start": 5.2361,
      "duration": 0.0054,
      "velocity": 107,
      "chip": "ym2612"
    },
    {
      "channel": 0,
      "note": 40,
      "start": 5.2645,
      "duration": 0.0124,
      "velocity": 107,
      "chip": "ym2612"
    },
    {
      "channel": 1,
      "note": 22,
      "start": 5.2671,
      "duration": 0.035,
      "velocity": 125,
      "chip": "ym2612"
    },
    {
      "channel": 2,
      "note": 88,
      "start": 5.2698,
      "duration": 0.1266,
      "velocity": 106,
      "chip": "ym2612"
    },
    {
      "channel": 4,
      "note": 76,
      "start": 5.273,
      "duration": 0.0001,
      "velocity": 1,
      "chip": "ym2612"
    },
    {
      "channel": 0,
      "note": 52,
      "start": 5.301,
      "duration": 0.0046,
      "velocity": 107,
      "chip": "ym2612"
    },
    {
      "channel": 0,
      "note": 40,
      "start": 5.3287,
      "duration": 0.0102,
      "velocity": 107,
      "chip": "ym2612"
    },
    {
      "channel": 3,
      "note": 88,
      "start": 5.332,
      "duration": 0.1189,
      "velocity": 106,
      "chip": "ym2612"
    },
    {
      "channel": 4,
      "note": 76,
      "start": 5.3348,
      "duration": 0.0001,
      "velocity": 1,
      "chip": "ym2612"
    },
    {
      "channel": 0,
      "note": 40,
      "start": 5.3636,
      "duration": 0.0078,
      "velocity": 107,
      "chip": "ym2612"
    },
    {
      "channel": 4,
      "note": 76,
      "start": 5.3674,
      "duration": 0.0001,
      "velocity": 1,
      "chip": "ym2612"
    },
    {
      "channel": 0,
      "note": 52,
      "start": 5.3953,
      "duration": 0.01,
      "velocity": 107,
      "chip": "ym2612"
    },
    {
      "channel": 2,
      "note": 90,
      "start": 5.398,
      "duration": 0.1803,
      "velocity": 106,
      "chip": "ym2612"
    },
    {
      "channel": 4,
      "note": 71,
      "start": 5.4012,
      "duration": 0.0001,
      "velocity": 1,
      "chip": "ym2612"
    },
    {
      "channel": 0,
      "note": 47,
      "start": 5.4495,
      "duration": 0.0085,
      "velocity": 107,
      "chip": "ym2612"
    },
    {
      "channel": 3,
      "note": 90,
      "start": 5.4527,
      "duration": 0.1879,
      "velocity": 106,
      "chip": "ym2612"
    },
    {
      "channel": 4,
      "note": 71,
      "start": 5.4555,
      "duration": 0.0001,
      "velocity": 1,
      "chip": "ym2612"
    },
    {
      "channel": 0,
      "note": 47,
      "start": 5.4818,
      "duration": 0.0053,
      "velocity": 107,
      "chip": "ym2612"
    },
    {
      "channel": 0,
      "note": 47,
      "start": 5.5101,
      "duration": 0.0105,
      "velocity": 107,
      "chip": "ym2612"
    },
    {
      "channel": 1,
      "note": 22,
      "start": 5.5127,
      "duration": 0.0334,
      "velocity": 125,
      "chip": "ym2612"
    },
    {
      "channel": 4,
      "note": 71,
      "start": 5.5166,
      "duration": 0.0001,
      "velocity": 1,
      "chip": "ym2612"
    },
    {
      "channel": 0,
      "note": 59,
      "start": 5.5451,
      "duration": 0.0069,
      "velocity": 107,
      "chip": "ym2612"
    },
    {
      "channel": 4,
      "note": 71,
      "start": 5.5494,
      "duration": 0.0001,
      "velocity": 1,
      "chip": "ym2612"
    },
    {
      "channel": 0,
      "note": 47,
      "start": 5.5771,
      "duration": 0.008,
      "velocity": 107,
      "chip": "ym2612"
    },
    {
      "channel": 2,
      "note": 87,
      "start": 5.58,
      "duration": 0.1788,
      "velocity": 106,
      "chip": "ym2612"
    },
    {
      "channel": 0,
      "note": 47,
      "start": 5.6074,
      "duration": 0.0063,
      "velocity": 107,
      "chip": "ym2612"
    },
    {
      "channel": 4,
      "note": 71,
      "start": 5.6112,
      "duration": 0.0001,
      "velocity": 1,
      "chip": "ym2612"
    },
    {
      "channel": 0,
      "note": 59,
      "start": 5.6391,
      "duration": 0.0077,
      "velocity": 107,
      "chip": "ym2612"
    },
    {
      "channel": 3,
      "note": 87,
      "start": 5.6423,
      "duration": 0.184,
      "velocity": 106,
      "chip": "ym2612"
    },
    {
      "channel": 4,
      "note": 71,
      "start": 5.6694,
      "duration": 0.0001,
      "velocity": 1,
      "chip": "ym2612"
    },
    {
      "channel": 0,
      "note": 47,
      "start": 5.6933,
      "duration": 0.0065,
      "velocity": 107,
      "chip": "ym2612"
    },
    {
      "channel": 4,
      "note": 71,
      "start": 5.6972,
      "duration": 0.0001,
      "velocity": 1,
      "chip": "ym2612"
    },
    {
      "channel": 0,
      "note": 47,
      "start": 5.7234,
      "duration": 0.0076,
      "velocity": 107,
      "chip": "ym2612"
    },
    {
      "channel": 4,
      "note": 71,
      "start": 5.727,
      "duration": 0.0001,
      "velocity": 1,
      "chip": "ym2612"
    },
    {
      "channel": 0,
      "note": 47,
      "start": 5.7551,
      "duration": 0.0127,
      "velocity": 107,
      "chip": "ym2612"
    },
    {
      "channel": 1,
      "note": 22,
      "start": 5.7578,
      "duration": 0.0353,
      "velocity": 125,
      "chip": "ym2612"
    },
    {
      "channel": 2,
      "note": 86,
      "start": 5.7604,
      "duration": 0.1413,
      "velocity": 106,
      "chip": "ym2612"
    },
    {
      "channel": 4,
      "note": 71,
      "start": 5.7639,
      "duration": 0.0001,
      "velocity": 1,
      "chip": "ym2612"
    },
    {
      "channel": 0,
      "note": 59,
      "start": 5.792,
      "duration": 0.0044,
      "velocity": 107,
      "chip": "ym2612"
    },
    {
      "channel": 0,
      "note": 47,
      "start": 5.8223,
      "duration": 0.0126,
      "velocity": 107,
      "chip": "ym2612"
    },
    {
      "channel": 1,
      "note": 22,
      "start": 5.825,
      "duration": 0.0386,
      "velocity": 125,
      "chip": "ym2612"
    },
    {
      "channel": 3,
      "note": 86,
      "start": 5.8281,
      "duration": 0.1299,
      "velocity": 106,
      "chip": "ym2612"
    },
    {
      "channel": 4,
      "note": 71,
      "start": 5.8309,
      "duration": 0.0001,
      "velocity": 1,
      "chip": "ym2612"
    },
    {
      "channel": 0,
      "note": 47,
      "start": 5.8625,
      "duration": 0.0102,
      "velocity": 107,
      "chip": "ym2612"
    },
    {
      "channel": 1,
      "note": 28,
      "start": 5.8652,
      "duration": 0.0359,
      "velocity": 125,
      "chip": "ym2612"
    },
    {
      "channel": 4,
      "note": 71,
      "start": 5.8688,
      "duration": 0.0001,
      "velocity": 1,
      "chip": "ym2612"
    },
    {
      "channel": 0,
      "note": 59,
      "start": 5.9,
      "duration": 0.0106,
      "velocity": 107,
      "chip": "ym2612"
    },
    {
      "channel": 2,
      "note": 83,
      "start": 5.9034,
      "duration": 0.1801,
      "velocity": 106,
      "chip": "ym2612"
    },
    {
      "channel": 4,
      "note": 78,
      "start": 5.9066,
      "duration": 0.0001,
      "velocity": 1,
      "chip": "ym2612"
    },
    {
      "channel": 0,
      "note": 42,
      "start": 5.9563,
      "duration": 0.0086,
      "velocity": 107,
      "chip": "ym2612"
    },
    {
      "channel": 3,
      "note": 83,
      "start": 5.9597,
      "duration": 0.1885,
      "velocity": 106,
      "chip": "ym2612"
    },
    {
      "channel": 4,
      "note": 78,
      "start": 5.9625,
      "duration": 0.0001,
      "velocity": 1,
      "chip": "ym2612"
    },
    {
      "channel": 0,
      "note": 42,
      "start": 5.9896,
      "duration": 0.0053,
      "velocity": 107,
      "chip": "ym2612"
    },
    {
      "channel": 0,
      "note": 42,
      "start": 6.0178,
      "duration": 0.0104,
      "velocity": 107,
      "chip": "ym2612"
    },
    {
      "channel": 1,
      "note": 22,
      "start": 6.0205,
      "duration": 0.033,
      "velocity": 125,
      "chip": "ym2612"
    },
    {
      "channel": 4,
      "note": 78,
      "start": 6.0243,
      "duration": 0.0001,
      "velocity": 1,
      "chip": "ym2612"
    },
    {
      "channel": 0,
      "note": 54,
      "start": 6.0524,
      "duration": 0.0046,
      "velocity": 107,
      "chip": "ym2612"
    },
    {
      "channel": 0,
      "note": 42,
      "start": 6.0824,
      "duration": 0.0102,
      "velocity": 107,
      "chip": "ym2612"
    },
    {
      "channel": 2,
      "note": 83,
      "start": 6.0852,
      "duration": 0.1813,
      "velocity": 106,
      "chip": "ym2612"
    },
    {
      "channel": 4,
      "note": 78,
      "start": 6.0886,
      "duration": 0.0001,
      "velocity": 1,
      "chip": "ym2612"
    },
    {
      "channel": 0,
      "note": 42,
      "start": 6.115,
      "duration": 0.0063,
      "velocity": 107,
      "chip": "ym2612"
    },
    {
      "channel": 4,
      "note": 78,
      "start": 6.1188,
      "duration": 0.0001,
      "velocity": 1,
      "chip": "ym2612"
    },
    {
      "channel": 0,
      "note": 54,
      "start": 6.1468,
      "duration": 0.0076,
      "velocity": 107,
      "chip": "ym2612"
    },
    {
      "channel": 3,
      "note": 83,
      "start": 6.15,
      "duration": 0.1815,
      "velocity": 106,
      "chip": "ym2612"
    },
    {
      "channel": 4,
      "note": 78,
      "start": 6.177,
      "duration": 0.0001,
      "velocity": 1,
      "chip": "ym2612"
    },
    {
      "channel": 0,
      "note": 42,
      "start": 6.2009,
      "duration": 0.0063,
      "velocity": 107,
      "chip": "ym2612"
    },
    {
      "channel": 4,
      "note": 78,
      "start": 6.2048,
      "duration": 0.0001,
      "velocity": 1,
      "chip": "ym2612"
    },
    {
      "channel": 0,
      "note": 42,
      "start": 6.231,
      "duration": 0.0076,
      "velocity": 107,
      "chip": "ym2612"
    },
    {
      "channel": 4,
      "note": 78,
      "start": 6.2347,
      "duration": 0.0001,
      "velocity": 1,
      "chip": "ym2612"
    },
    {
      "channel": 0,
      "note": 42,
      "start": 6.2628,
      "duration": 0.0127,
      "velocity": 107,
      "chip": "ym2612"
    },
    {
      "channel": 1,
      "note": 22,
      "start": 6.2655,
      "duration": 0.0352,
      "velocity": 125,
      "chip": "ym2612"
    },
    {
      "channel": 2,
      "note": 86,
      "start": 6.2681,
      "duration": 0.1294,
      "velocity": 106,
      "chip": "ym2612"
    },
    {
      "channel": 4,
      "note": 78,
      "start": 6.2716,
      "duration": 0.0001,
      "velocity": 1,
      "chip": "ym2612"
    },
    {
      "channel": 0,
      "note": 54,
      "start": 6.2996,
      "duration": 0.0044,
      "velocity": 107,
      "chip": "ym2612"
    },
    {
      "channel": 0,
      "note": 42,
      "start": 6.3299,
      "duration": 0.0102,
      "velocity": 107,
      "chip": "ym2612"
    },
    {
      "channel": 3,
      "note": 86,
      "start": 6.3332,
      "duration": 0.1188,
      "velocity": 106,
      "chip": "ym2612"
    },
    {
      "channel": 4,
      "note": 78,
      "start": 6.336,
      "duration": 0.0001,
      "velocity": 1,
      "chip": "ym2612"
    },
    {
      "channel": 0,
      "note": 42,
      "start": 6.3649,
      "duration": 0.0078,
      "velocity": 107,
      "chip": "ym2612"
    },
    {
      "channel": 4,
      "note": 78,
      "start": 6.3687,
      "duration": 0.0001,
      "velocity": 1,
      "chip": "ym2612"
    },
    {
      "channel": 0,
      "note": 54,
      "start": 6.3965,
      "duration": 0.0099,
      "velocity": 107,
      "chip": "ym2612"
    },
    {
      "channel": 2,
      "note": 90,
      "start": 6.3992,
      "duration": 0.1802,
      "velocity": 106,
      "chip": "ym2612"
    },
    {
      "channel": 4,
      "note": 73,
      "start": 6.4024,
      "duration": 0.0001,
      "velocity": 1,
      "chip": "ym2612"
    },
    {
      "channel": 0,
      "note": 37,
      "start": 6.4505,
      "duration": 0.0085,
      "velocity": 107,
      "chip": "ym2612"
    },
    {
      "channel": 3,
      "note": 90,
      "start": 6.4538,
      "duration": 0.1879,
      "velocity": 106,
      "chip": "ym2612"
    },
    {
      "channel": 4,
      "note": 73,
      "start": 6.4566,
      "duration": 0.0001,
      "velocity": 1,
      "chip": "ym2612"
    },
    {
      "channel": 0,
      "note": 37,
      "start": 6.4832,
      "duration": 0.0052,
      "velocity": 107,
      "chip": "ym2612"
    },
    {
      "channel": 0,
      "note": 37,
      "start": 6.5114,
      "duration": 0.0104,
      "velocity": 107,
      "chip": "ym2612"
    },
    {
      "channel": 1,
      "note": 22,
      "start": 6.514,
      "duration": 0.0334,
      "velocity": 125,
      "chip": "ym2612"
    },
    {
      "channel": 4,
      "note": 73,
      "start": 6.5178,
      "duration": 0.0001,
      "velocity": 1,
      "chip": "ym2612"
    },
    {
      "channel": 0,
      "note": 49,
      "start": 6.5463,
      "duration": 0.0068,
      "velocity": 107,
      "chip": "ym2612"
    },
    {
      "channel": 4,
      "note": 73,
      "start": 6.5506,
      "duration": 0.0001,
      "velocity": 1,
      "chip": "ym2612"
    },
    {
      "channel": 0,
      "note": 37,
      "start": 6.5783,
      "duration": 0.008,
      "velocity": 107,
      "chip": "ym2612"
    },
    {
      "channel": 2,
      "note": 89,
      "start": 6.5811,
      "duration": 0.2408,
      "velocity": 106,
      "chip": "ym2612"
    },
    {
      "channel": 0,
      "note": 37,
      "start": 6.6085,
      "duration": 0.0063,
      "velocity": 107,
      "chip": "ym2612"
    },
    {
      "channel": 4,
      "note": 73,
      "start": 6.6123,
      "duration": 0.0001,
      "velocity": 1,
      "chip": "ym2612"
    },
    {
      "channel": 0,
      "note": 49,
      "start": 6.6402,
      "duration": 0.0077,
      "velocity": 107,
      "chip": "ym2612"
    },
    {
      "channel": 3,
      "note": 89,
      "start": 6.6435,
      "duration": 0.2547,
      "velocity": 106,
      "chip": "ym2612"
    },
    {
      "channel": 4,
      "note": 73,
      "start": 6.6707,
      "duration": 0.0001,
      "velocity": 1,
      "chip": "ym2612"
    },
    {
      "channel": 0,
      "note": 37,
      "start": 6.6946,
      "duration": 0.0065,
      "velocity": 107,
      "chip": "ym2612"
    },
    {
      "channel": 4,
      "note": 73,
      "start": 6.6985,
      "duration": 0.0001,
      "velocity": 1,
      "chip": "ym2612"
    },
    {
      "channel": 0,
      "note": 37,
      "start": 6.7246,
      "duration": 0.0076,
      "velocity": 107,
      "chip": "ym2612"
    },
    {
      "channel": 4,
      "note": 73,
      "start": 6.7282,
      "duration": 0.0001,
      "velocity": 1,
      "chip": "ym2612"
    },
    {
      "channel": 0,
      "note": 37,
      "start": 6.7562,
      "duration": 0.0105,
      "velocity": 107,
      "chip": "ym2612"
    },
    {
      "channel": 1,
      "note": 22,
      "start": 6.7589,
      "duration": 0.0332,
      "velocity": 125,
      "chip": "ym2612"
    },
    {
      "channel": 4,
      "note": 73,
      "start": 6.7627,
      "duration": 0.0001,
      "velocity": 1,
      "chip": "ym2612"
    },
    {
      "channel": 0,
      "note": 49,
      "start": 6.791,
      "duration": 0.0044,
      "velocity": 107,
      "chip": "ym2612"
    },
    {
      "channel": 0,
      "note": 37,
      "start": 6.8207,
      "duration": 0.0101,
      "velocity": 107,
      "chip": "ym2612"
    },
    {
      "channel": 2,
      "note": 93,
      "start": 6.8236,
      "duration": 0.0719,
      "velocity": 106,
      "chip": "ym2612"
    },
    {
      "channel": 4,
      "note": 73,
      "start": 6.8268,
      "duration": 0.0001,
      "velocity": 1,
      "chip": "ym2612"
    },
    {
      "channel": 0,
      "note": 37,
      "start": 6.8558,
      "duration": 0.0102,
      "velocity": 107,
      "chip": "ym2612"
    },
    {
      "channel": 1,
      "note": 22,
      "start": 6.8585,
      "duration": 0.0364,
      "velocity": 125,
      "chip": "ym2612"
    },
    {
      "channel": 4,
      "note": 73,
      "start": 6.8621,
      "duration": 0.0001,
      "velocity": 1,
      "chip": "ym2612"
    },
    {
      "channel": 0,
      "note": 49,
      "start": 6.8938,
      "duration": 0.0129,
      "velocity": 107,
      "chip": "ym2612"
    },
    {
      "channel": 2,
      "note": 85,
      "start": 6.8971,
      "duration": 0.2416,
      "velocity": 106,
      "chip": "ym2612"
    },
    {
      "channel": 3,
      "note": 93,
      "start": 6.8999,
      "duration": 0.054,
      "velocity": 106,
      "chip": "ym2612"
    },
    {
      "channel": 4,
      "note": 76,
      "start": 6.9027,
      "duration": 0.0001,
      "velocity": 1,
      "chip": "ym2612"
    },
    {
      "channel": 0,
      "note": 40,
      "start": 6.9523,
      "duration": 0.0086,
      "velocity": 107,
      "chip": "ym2612"
    },
    {
      "channel": 3,
      "note": 85,
      "start": 6.9557,
      "duration": 0.2354,
      "velocity": 106,
      "chip": "ym2612"
    },
    {
      "channel": 4,
      "note": 76,
      "start": 6.9585,
      "duration": 0.0001,
      "velocity": 1,
      "chip": "ym2612"
    },
    {
      "channel": 0,
      "note": 40,
      "start": 6.9862,
      "duration": 0.0053,
      "velocity": 107,
      "chip": "ym2612"
    },
    {
      "channel": 0,
      "note": 40,
      "start": 7.0144,
      "duration": 0.0104,
      "velocity": 107,
      "chip": "ym2612"
    },
    {
      "channel": 1,
      "note": 22,
      "start": 7.0171,
      "duration": 0.0334,
      "velocity": 125,
      "chip": "ym2612"
    },
    {
      "channel": 4,
      "note": 76,
      "start": 7.021,
      "duration": 0.0001,
      "velocity": 1,
      "chip": "ym2612"
    },
    {
      "channel": 0,
      "note": 52,
      "start": 7.0495,
      "duration": 0.0068,
      "velocity": 107,
      "chip": "ym2612"
    },
    {
      "channel": 4,
      "note": 76,
      "start": 7.0538,
      "duration": 0.0001,
      "velocity": 1,
      "chip": "ym2612"
    },
    {
      "channel": 0,
      "note": 40,
      "start": 7.0785,
      "duration": 0.0057,
      "velocity": 107,
      "chip": "ym2612"
    },
    {
      "channel": 0,
      "note": 40,
      "start": 7.1063,
      "duration": 0.0063,
      "velocity": 107,
      "chip": "ym2612"
    },
    {
      "channel": 4,
      "note": 76,
      "start": 7.1101,
      "duration": 0.0001,
      "velocity": 1,
      "chip": "ym2612"
    },
    {
      "channel": 0,
      "note": 52,
      "start": 7.1378,
      "duration": 0.0055,
      "velocity": 107,
      "chip": "ym2612"
    },
    {
      "channel": 4,
      "note": 76,
      "start": 7.1659,
      "duration": 0.0001,
      "velocity": 1,
      "chip": "ym2612"
    },
    {
      "channel": 0,
      "note": 40,
      "start": 7.1897,
      "duration": 0.0064,
      "velocity": 107,
      "chip": "ym2612"
    },
    {
      "channel": 4,
      "note": 76,
      "start": 7.1936,
      "duration": 0.0001,
      "velocity": 1,
      "chip": "ym2612"
    },
    {
      "channel": 0,
      "note": 40,
      "start": 7.2194,
      "duration": 0.0053,
      "velocity": 107,
      "chip": "ym2612"
    },
    {
      "channel": 0,
      "note": 40,
      "start": 7.2478,
      "duration": 0.0125,
      "velocity": 107,
      "chip": "ym2612"
    },
    {
      "channel": 1,
      "note": 22,
      "start": 7.2504,
      "duration": 0.035,
      "velocity": 125,
      "chip": "ym2612"
    },
    {
      "channel": 2,
      "note": 88,
      "start": 7.2531,
      "duration": 0.0631,
      "velocity": 106,
      "chip": "ym2612"
    },
    {
      "channel": 4,
      "note": 76,
      "start": 7.2563,
      "duration": 0.0001,
      "velocity": 1,
      "chip": "ym2612"
    },
    {
      "channel": 0,
      "note": 52,
      "start": 7.2843,
      "duration": 0.0046,
      "velocity": 107,
      "chip": "ym2612"
    },
    {
      "channel": 0,
      "note": 40,
      "start": 7.315,
      "duration": 0.0123,
      "velocity": 107,
      "chip": "ym2612"
    },
    {
      "channel": 2,
      "note": 87,
      "start": 7.3178,
      "duration": 0.0672,
      "velocity": 106,
      "chip": "ym2612"
    },
    {
      "channel": 3,
      "note": 88,
      "start": 7.3206,
      "duration": 0.0671,
      "velocity": 106,
      "chip": "ym2612"
    },
    {
      "channel": 4,
      "note": 76,
      "start": 7.3234,
      "duration": 0.0001,
      "velocity": 1,
      "chip": "ym2612"
    },
    {
      "channel": 0,
      "note": 40,
      "start": 7.3524,
      "duration": 0.0078,
      "velocity": 107,
      "chip": "ym2612"
    },
    {
      "channel": 4,
      "note": 76,
      "start": 7.3562,
      "duration": 0.0001,
      "velocity": 1,
      "chip": "ym2612"
    },
    {
      "channel": 0,
      "note": 52,
      "start": 7.384,
      "duration": 0.0122,
      "velocity": 107,
      "chip": "ym2612"
    },
    {
      "channel": 2,
      "note": 85,
      "start": 7.3867,
      "duration": 0.242,
      "velocity": 106,
      "chip": "ym2612"
    },
    {
      "channel": 3,
      "note": 87,
      "start": 7.3895,
      "duration": 0.0525,
      "velocity": 106,
      "chip": "ym2612"
    },
    {
      "channel": 4,
      "note": 71,
      "start": 7.3922,
      "duration": 0.0001,
      "velocity": 1,
      "chip": "ym2612"
    },
    {
      "channel": 0,
      "note": 47,
      "start": 7.4405,
      "duration": 0.0085,
      "velocity": 107,
      "chip": "ym2612"
    },
    {
      "channel": 3,
      "note": 85,
      "start": 7.4437,
      "duration": 0.2376,
      "velocity": 106,
      "chip": "ym2612"
    },
    {
      "channel": 4,
      "note": 71,
      "start": 7.4465,
      "duration": 0.0001,
      "velocity": 1,
      "chip": "ym2612"
    },
    {
      "channel": 0,
      "note": 47,
      "start": 7.4733,
      "duration": 0.0052,
      "velocity": 107,
      "chip": "ym2612"
    },
    {
      "channel": 0,
      "note": 47,
      "start": 7.5015,
      "duration": 0.0105,
      "velocity": 107,
      "chip": "ym2612"
    },
    {
      "channel": 1,
      "note": 22,
      "start": 7.5042,
      "duration": 0.0335,
      "velocity": 125,
      "chip": "ym2612"
    },
    {
      "channel": 4,
      "note": 71,
      "start": 7.508,
      "duration": 0.0001,
      "velocity": 1,
      "chip": "ym2612"
    },
    {
      "channel": 0,
      "note": 59,
      "start": 7.5366,
      "duration": 0.0069,
      "velocity": 107,
      "chip": "ym2612"
    },
    {
      "channel": 4,
      "note": 71,
      "start": 7.5409,
      "duration": 0.0001,
      "velocity": 1,
      "chip": "ym2612"
    },
    {
      "channel": 0,
      "note": 47,
      "start": 7.5684,
      "duration": 0.0057,
      "velocity": 107,
      "chip": "ym2612"
    },
    {
      "channel": 0,
      "note": 47,
      "start": 7.5964,
      "duration": 0.0064,
      "velocity": 107,
      "chip": "ym2612"
    },
    {
      "channel": 4,
      "note": 71,
      "start": 7.6002,
      "duration": 0.0001,
      "velocity": 1,
      "chip": "ym2612"
    },
    {
      "channel": 0,
      "note": 59,
      "start": 7.6277,
      "duration": 0.0056,
      "velocity": 107,
      "chip": "ym2612"
    },
    {
      "channel": 4,
      "note": 71,
      "start": 7.656,
      "duration": 0.0001,
      "velocity": 1,
      "chip": "ym2612"
    },
    {
      "channel": 0,
      "note": 47,
      "start": 7.68,
      "duration": 0.0064,
      "velocity": 107,
      "chip": "ym2612"
    },
    {
      "channel": 4,
      "note": 71,
      "start": 7.6838,
      "duration": 0.0001,
      "velocity": 1,
      "chip": "ym2612"
    },
    {
      "channel": 0,
      "note": 47,
      "start": 7.7097,
      "duration": 0.0077,
      "velocity": 107,
      "chip": "ym2612"
    },
    {
      "channel": 4,
      "note": 71,
      "start": 7.7134,
      "duration": 0.0001,
      "velocity": 1,
      "chip": "ym2612"
    },
    {
      "channel": 0,
      "note": 47,
      "start": 7.7414,
      "duration": 0.0102,
      "velocity": 107,
      "chip": "ym2612"
    },
    {
      "channel": 1,
      "note": 22,
      "start": 7.744,
      "duration": 0.0328,
      "velocity": 125,
      "chip": "ym2612"
    },
    {
      "channel": 4,
      "note": 71,
      "start": 7.7476,
      "duration": 0.0001,
      "velocity": 1,
      "chip": "ym2612"
    },
    {
      "channel": 0,
      "note": 59,
      "start": 7.7757,
      "duration": 0.0046,
      "velocity": 107,
      "chip": "ym2612"
    },
    {
      "channel": 0,
      "note": 47,
      "start": 7.8059,
      "duration": 0.0102,
      "velocity": 107,
      "chip": "ym2612"
    },
    {
      "channel": 1,
      "note": 22,
      "start": 7.8085,
      "duration": 0.036,
      "velocity": 125,
      "chip": "ym2612"
    },
    {
      "channel": 4,
      "note": 71,
      "start": 7.8121,
      "duration": 0.0001,
      "velocity": 1,
      "chip": "ym2612"
    },
    {
      "channel": 0,
      "note": 47,
      "start": 7.8436,
      "duration": 0.0102,
      "velocity": 107,
      "chip": "ym2612"
    },
    {
      "channel": 1,
      "note": 28,
      "start": 7.8463,
      "duration": 0.036,
      "velocity": 125,
      "chip": "ym2612"
    },
    {
      "channel": 4,
      "note": 71,
      "start": 7.8498,
      "duration": 0.0001,
      "velocity": 1,
      "chip": "ym2612"
    },
    {
      "channel": 0,
      "note": 59,
      "start": 7.8811,
      "duration": 0.0105,
      "velocity": 107,
      "chip": "ym2612"
    },
    {
      "channel": 2,
      "note": 84,
      "start": 7.8845,
      "duration": 0.2288,
      "velocity": 106,
      "chip": "ym2612"
    },
    {
      "channel": 4,
      "note": 78,
      "start": 7.8877,
      "duration": 0.0001,
      "velocity": 1,
      "chip": "ym2612"
    },
    {
      "channel": 0,
      "note": 42,
      "start": 7.9371,
      "duration": 0.0086,
      "velocity": 107,
      "chip": "ym2612"
    },
    {
      "channel": 3,
      "note": 84,
      "start": 7.9404,
      "duration": 0.2278,
      "velocity": 106,
      "chip": "ym2612"
    },
    {
      "channel": 4,
      "note": 78,
      "start": 7.9432,
      "duration": 0.0001,
      "velocity": 1,
      "chip": "ym2612"
    },
    {
      "channel": 0,
      "note": 42,
      "start": 7.996,
      "duration": 0.0104,
      "velocity": 107,
      "chip": "ym2612"
    },
    {
      "channel": 1,
      "note": 22,
      "start": 7.9986,
      "duration": 0.0332,
      "velocity": 125,
      "chip": "ym2612"
    },
    {
      "channel": 4,
      "note": 78,
      "start": 8.0024,
      "duration": 0.0001,
      "velocity": 1,
      "chip": "ym2612"
    },
    {
      "channel": 0,
      "note": 42,
      "start": 8.0307,
      "duration": 0.0067,
      "velocity": 107,
      "chip": "ym2612"
    },
    {
      "channel": 4,
      "note": 78,
      "start": 8.035,
      "duration": 0.0001,
      "velocity": 1,
      "chip": "ym2612"
    },
    {
      "channel": 0,
      "note": 42,
      "start": 8.0851,
      "duration": 0.0063,
      "velocity": 107,
      "chip": "ym2612"
    },
    {
      "channel": 4,
      "note": 78,
      "start": 8.0888,
      "duration": 0.0001,
      "velocity": 1,
      "chip": "ym2612"
    },
    {
      "channel": 0,
      "note": 42,
      "start": 8.1395,
      "duration": 0.006,
      "velocity": 107,
      "chip": "ym2612"
    },
    {
      "channel": 4,
      "note": 78,
      "start": 8.1431,
      "duration": 0.0001,
      "velocity": 1,
      "chip": "ym2612"
    },
    {
      "channel": 0,
      "note": 42,
      "start": 8.1669,
      "duration": 0.0064,
      "velocity": 107,
      "chip": "ym2612"
    },
    {
      "channel": 4,
      "note": 78,
      "start": 8.1707,
      "duration": 0.0001,
      "velocity": 1,
      "chip": "ym2612"
    },
    {
      "channel": 0,
      "note": 42,
      "start": 8.197,
      "duration": 0.0076,
      "velocity": 107,
      "chip": "ym2612"
    },
    {
      "channel": 4,
      "note": 78,
      "start": 8.2006,
      "duration": 0.0001,
      "velocity": 1,
      "chip": "ym2612"
    },
    {
      "channel": 0,
      "note": 42,
      "start": 8.2286,
      "duration": 0.0102,
      "velocity": 107,
      "chip": "ym2612"
    },
    {
      "channel": 1,
      "note": 22,
      "start": 8.2313,
      "duration": 0.0294,
      "velocity": 125,
      "chip": "ym2612"
    },
    {
      "channel": 4,
      "note": 78,
      "start": 8.2348,
      "duration": 0.0001,
      "velocity": 1,
      "chip": "ym2612"
    },
    {
      "channel": 0,
      "note": 42,
      "start": 8.2878,
      "duration": 0.0077,
      "velocity": 107,
      "chip": "ym2612"
    },
    {
      "channel": 4,
      "note": 78,
      "start": 8.2915,
      "duration": 0.0001,
      "velocity": 1,
      "chip": "ym2612"
    },
    {
      "channel": 0,
      "note": 40,
      "start": 8.3193,
      "duration": 0.0077,
      "velocity": 107,
      "chip": "ym2612"
    },
    {
      "channel": 4,
      "note": 78,
      "start": 8.3231,
      "duration": 0.0001,
      "velocity": 1,
      "chip": "ym2612"
    },
    {
      "channel": 0,
      "note": 40,
      "start": 8.35,
      "duration": 0.0076,
      "velocity": 107,
      "chip": "ym2612"
    },
    {
      "channel": 4,
      "note": 78,
      "start": 8.3537,
      "duration": 0.0001,
      "velocity": 1,
      "chip": "ym2612"
    },
    {
      "channel": 0,
      "note": 42,
      "start": 8.4026,
      "duration": 0.0061,
      "velocity": 107,
      "chip": "ym2612"
    },
    {
      "channel": 4,
      "note": 78,
      "start": 8.4063,
      "duration": 0.0001,
      "velocity": 1,
      "chip": "ym2612"
    },
    {
      "channel": 0,
      "note": 42,
      "start": 8.456,
      "duration": 0.0102,
      "velocity": 107,
      "chip": "ym2612"
    },
    {
      "channel": 1,
      "note": 22,
      "start": 8.4587,
      "duration": 0.0329,
      "velocity": 125,
      "chip": "ym2612"
    },
    {
      "channel": 4,
      "note": 78,
      "start": 8.4622,
      "duration": 0.0001,
      "velocity": 1,
      "chip": "ym2612"
    },
    {
      "channel": 0,
      "note": 42,
      "start": 8.4905,
      "duration": 0.0069,
      "velocity": 107,
      "chip": "ym2612"
    },
    {
      "channel": 4,
      "note": 78,
      "start": 8.4949,
      "duration": 0.0001,
      "velocity": 1,
      "chip": "ym2612"
    },
    {
      "channel": 0,
      "note": 42,
      "start": 8.5451,
      "duration": 0.0063,
      "velocity": 107,
      "chip": "ym2612"
    },
    {
      "channel": 4,
      "note": 78,
      "start": 8.5488,
      "duration": 0.0001,
      "velocity": 1,
      "chip": "ym2612"
    },
    {
      "channel": 0,
      "note": 42,
      "start": 8.5994,
      "duration": 0.006,
      "velocity": 107,
      "chip": "ym2612"
    },
    {
      "channel": 4,
      "note": 78,
      "start": 8.603,
      "duration": 0.0001,
      "velocity": 1,
      "chip": "ym2612"
    },
    {
      "channel": 0,
      "note": 42,
      "start": 8.6268,
      "duration": 0.0061,
      "velocity": 107,
      "chip": "ym2612"
    },
    {
      "channel": 4,
      "note": 78,
      "start": 8.6305,
      "duration": 0.0001,
      "velocity": 1,
      "chip": "ym2612"
    },
    {
      "channel": 0,
      "note": 45,
      "start": 8.6571,
      "duration": 0.0076,
      "velocity": 107,
      "chip": "ym2612"
    },
    {
      "channel": 4,
      "note": 78,
      "start": 8.6608,
      "duration": 0.0001,
      "velocity": 1,
      "chip": "ym2612"
    },
    {
      "channel": 0,
      "note": 45,
      "start": 8.6888,
      "duration": 0.0102,
      "velocity": 107,
      "chip": "ym2612"
    },
    {
      "channel": 1,
      "note": 22,
      "start": 8.6915,
      "duration": 0.0295,
      "velocity": 125,
      "chip": "ym2612"
    },
    {
      "channel": 4,
      "note": 78,
      "start": 8.695,
      "duration": 0.0001,
      "velocity": 1,
      "chip": "ym2612"
    },
    {
      "channel": 0,
      "note": 45,
      "start": 8.748,
      "duration": 0.0077,
      "velocity": 107,
      "chip": "ym2612"
    },
    {
      "channel": 4,
      "note": 66,
      "start": 8.7517,
      "duration": 0.0001,
      "velocity": 1,
      "chip": "ym2612"
    },
    {
      "channel": 0,
      "note": 40,
      "start": 8.7796,
      "duration": 0.0102,
      "velocity": 107,
      "chip": "ym2612"
    },
    {
      "channel": 1,
      "note": 22,
      "start": 8.7823,
      "duration": 0.0334,
      "velocity": 125,
      "chip": "ym2612"
    },
    {
      "channel": 4,
      "note": 66,
      "start": 8.7859,
      "duration": 0.0001,
      "velocity": 1,
      "chip": "ym2612"
    },
    {
      "channel": 0,
      "note": 40,
      "start": 8.8146,
      "duration": 0.0082,
      "velocity": 107,
      "chip": "ym2612"
    },
    {
      "channel": 4,
      "note": 78,
      "start": 8.8189,
      "duration": 0.0001,
      "velocity": 1,
      "chip": "ym2612"
    },
    {
      "channel": 0,
      "note": 42,
      "start": 8.8677,
      "duration": 0.0063,
      "velocity": 107,
      "chip": "ym2612"
    },
    {
      "channel": 4,
      "note": 78,
      "start": 8.8715,
      "duration": 0.0001,
      "velocity": 1,
      "chip": "ym2612"
    },
    {
      "channel": 0,
      "note": 42,
      "start": 8.924,
      "duration": 0.0102,
      "velocity": 107,
      "chip": "ym2612"
    },
    {
      "channel": 1,
      "note": 22,
      "start": 8.9267,
      "duration": 0.033,
      "velocity": 125,
      "chip": "ym2612"
    },
    {
      "channel": 4,
      "note": 78,
      "start": 8.9303,
      "duration": 0.0001,
      "velocity": 1,
      "chip": "ym2612"
    },
    {
      "channel": 0,
      "note": 42,
      "start": 8.9586,
      "duration": 0.0068,
      "velocity": 107,
      "chip": "ym2612"
    },
    {
      "channel": 4,
      "note": 78,
      "start": 8.9629,
      "duration": 0.0001,
      "velocity": 1,
      "chip": "ym2612"
    },
    {
      "channel": 0,
      "note": 42,
      "start": 9.013,
      "duration": 0.0063,
      "velocity": 107,
      "chip": "ym2612"
    },
    {
      "channel": 4,
      "note": 78,
      "start": 9.0168,
      "duration": 0.0001,
      "velocity": 1,
      "chip": "ym2612"
    },
    {
      "channel": 0,
      "note": 42,
      "start": 9.0673,
      "duration": 0.0061,
      "velocity": 107,
      "chip": "ym2612"
    },
    {
      "channel": 4,
      "note": 78,
      "start": 9.0709,
      "duration": 0.0001,
      "velocity": 1,
      "chip": "ym2612"
    },
    {
      "channel": 0,
      "note": 42,
      "start": 9.0949,
      "duration": 0.0061,
      "velocity": 107,
      "chip": "ym2612"
    },
    {
      "channel": 4,
      "note": 78,
      "start": 9.0985,
      "duration": 0.0001,
      "velocity": 1,
      "chip": "ym2612"
    },
    {
      "channel": 0,
      "note": 42,
      "start": 9.1251,
      "duration": 0.0076,
      "velocity": 107,
      "chip": "ym2612"
    },
    {
      "channel": 4,
      "note": 78,
      "start": 9.1288,
      "duration": 0.0001,
      "velocity": 1,
      "chip": "ym2612"
    },
    {
      "channel": 0,
      "note": 42,
      "start": 9.1568,
      "duration": 0.0102,
      "velocity": 107,
      "chip": "ym2612"
    },
    {
      "channel": 1,
      "note": 22,
      "start": 9.1594,
      "duration": 0.0295,
      "velocity": 125,
      "chip": "ym2612"
    },
    {
      "channel": 4,
      "note": 78,
      "start": 9.163,
      "duration": 0.0001,
      "velocity": 1,
      "chip": "ym2612"
    },
    {
      "channel": 0,
      "note": 42,
      "start": 9.216,
      "duration": 0.0077,
      "velocity": 107,
      "chip": "ym2612"
    },
    {
      "channel": 4,
      "note": 78,
      "start": 9.2198,
      "duration": 0.0001,
      "velocity": 1,
      "chip": "ym2612"
    },
    {
      "channel": 0,
      "note": 40,
      "start": 9.2475,
      "duration": 0.0077,
      "velocity": 107,
      "chip": "ym2612"
    },
    {
      "channel": 4,
      "note": 78,
      "start": 9.2512,
      "duration": 0.0001,
      "velocity": 1,
      "chip": "ym2612"
    },
    {
      "channel": 0,
      "note": 40,
      "start": 9.279,
      "duration": 0.0076,
      "velocity": 107,
      "chip": "ym2612"
    },
    {
      "channel": 4,
      "note": 78,
      "start": 9.2827,
      "duration": 0.0001,
      "velocity": 1,
      "chip": "ym2612"
    },
    {
      "channel": 0,
      "note": 42,
      "start": 9.33,
      "duration": 0.0061,
      "velocity": 107,
      "chip": "ym2612"
    },
    {
      "channel": 4,
      "note": 78,
      "start": 9.3336,
      "duration": 0.0001,
      "velocity": 1,
      "chip": "ym2612"
    },
    {
      "channel": 0,
      "note": 42,
      "start": 9.3834,
      "duration": 0.0102,
      "velocity": 107,
      "chip": "ym2612"
    },
    {
      "channel": 1,
      "note": 22,
      "start": 9.386,
      "duration": 0.0329,
      "velocity": 125,
      "chip": "ym2612"
    },
    {
      "channel": 4,
      "note": 78,
      "start": 9.3896,
      "duration": 0.0001,
      "velocity": 1,
      "chip": "ym2612"
    },
    {
      "channel": 0,
      "note": 42,
      "start": 9.4178,
      "duration": 0.0068,
      "velocity": 107,
      "chip": "ym2612"
    },
    {
      "channel": 4,
      "note": 78,
      "start": 9.4221,
      "duration": 0.0001,
      "velocity": 1,
      "chip": "ym2612"
    },
    {
      "channel": 0,
      "note": 42,
      "start": 9.4723,
      "duration": 0.0062,
      "velocity": 107,
      "chip": "ym2612"
    },
    {
      "channel": 4,
      "note": 78,
      "start": 9.4761,
      "duration": 0.0001,
      "velocity": 1,
      "chip": "ym2612"
    },
    {
      "channel": 0,
      "note": 42,
      "start": 9.5266,
      "duration": 0.0061,
      "velocity": 107,
      "chip": "ym2612"
    },
    {
      "channel": 4,
      "note": 78,
      "start": 9.5302,
      "duration": 0.0001,
      "velocity": 1,
      "chip": "ym2612"
    },
    {
      "channel": 0,
      "note": 45,
      "start": 9.5542,
      "duration": 0.0062,
      "velocity": 107,
      "chip": "ym2612"
    },
    {
      "channel": 4,
      "note": 78,
      "start": 9.5579,
      "duration": 0.0001,
      "velocity": 1,
      "chip": "ym2612"
    },
    {
      "channel": 0,
      "note": 45,
      "start": 9.5844,
      "duration": 0.0076,
      "velocity": 107,
      "chip": "ym2612"
    },
    {
      "channel": 4,
      "note": 78,
      "start": 9.588,
      "duration": 0.0001,
      "velocity": 1,
      "chip": "ym2612"
    },
    {
      "channel": 0,
      "note": 45,
      "start": 9.616,
      "duration": 0.0102,
      "velocity": 107,
      "chip": "ym2612"
    },
    {
      "channel": 1,
      "note": 22,
      "start": 9.6187,
      "duration": 0.0294,
      "velocity": 125,
      "chip": "ym2612"
    },
    {
      "channel": 4,
      "note": 78,
      "start": 9.6222,
      "duration": 0.0001,
      "velocity": 1,
      "chip": "ym2612"
    },
    {
      "channel": 0,
      "note": 40,
      "start": 9.6753,
      "duration": 0.0102,
      "velocity": 107,
      "chip": "ym2612"
    },
    {
      "channel": 1,
      "note": 22,
      "start": 9.678,
      "duration": 0.036,
      "velocity": 125,
      "chip": "ym2612"
    },
    {
      "channel": 4,
      "note": 66,
      "start": 9.6815,
      "duration": 0.0001,
      "velocity": 1,
      "chip": "ym2612"
    },
    {
      "channel": 0,
      "note": 40,
      "start": 9.713,
      "duration": 0.0102,
      "velocity": 107,
      "chip": "ym2612"
    },
    {
      "channel": 1,
      "note": 28,
      "start": 9.7157,
      "duration": 0.0362,
      "velocity": 125,
      "chip": "ym2612"
    },
    {
      "channel": 4,
      "note": 66,
      "start": 9.7193,
      "duration": 0.0001,
      "velocity": 1,
      "chip": "ym2612"
    },
    {
      "channel": 0,
      "note": 40,
      "start": 9.7508,
      "duration": 0.0105,
      "velocity": 107,
      "chip": "ym2612"
    },
    {
      "channel": 2,
      "note": 78,
      "start": 9.7541,
      "duration": 0.2259,
      "velocity": 106,
      "chip": "ym2612"
    },
    {
      "channel": 4,
      "note": 78,
      "start": 9.7573,
      "duration": 0.0001,
      "velocity": 1,
      "chip": "ym2612"
    },
    {
      "channel": 0,
      "note": 42,
      "start": 9.8064,
      "duration": 0.0086,
      "velocity": 107,
      "chip": "ym2612"
    },
    {
      "channel": 3,
      "note": 78,
      "start": 9.8097,
      "duration": 0.2251,
      "velocity": 106,
      "chip": "ym2612"
    },
    {
      "channel": 4,
      "note": 78,
      "start": 9.8125,
      "duration": 0.0001,
      "velocity": 1,
      "chip": "ym2612"
    },
    {
      "channel": 0,
      "note": 42,
      "start": 9.8628,
      "duration": 0.0104,
      "velocity": 107,
      "chip": "ym2612"
    },
    {
      "channel": 1,
      "note": 22,
      "start": 9.8655,
      "duration": 0.033,
      "velocity": 125,
      "chip": "ym2612"
    },
    {
      "channel": 4,
      "note": 78,
      "start": 9.8692,
      "duration": 0.0001,
      "velocity": 1,
      "chip": "ym2612"
    },
    {
      "channel": 0,
      "note": 42,
      "start": 9.8974,
      "duration": 0.0068,
      "velocity": 107,
      "chip": "ym2612"
    },
    {
      "channel": 4,
      "note": 78,
      "start": 9.9016,
      "duration": 0.0001,
      "velocity": 1,
      "chip": "ym2612"
    },
    {
      "channel": 0,
      "note": 42,
      "start": 9.9519,
      "duration": 0.0063,
      "velocity": 107,
      "chip": "ym2612"
    },
    {
      "channel": 4,
      "note": 78,
      "start": 9.9556,
      "duration": 0.0001,
      "velocity": 1,
      "chip": "ym2612"
    },
    {
      "channel": 0,
      "note": 42,
      "start": 10.0061,
      "duration": 0.006,
      "velocity": 107,
      "chip": "ym2612"
    },
    {
      "channel": 4,
      "note": 78,
      "start": 10.0097,
      "duration": 0.0001,
      "velocity": 1,
      "chip": "ym2612"
    },
    {
      "channel": 0,
      "note": 42,
      "start": 10.0335,
      "duration": 0.0063,
      "velocity": 107,
      "chip": "ym2612"
    },
    {
      "channel": 4,
      "note": 78,
      "start": 10.0373,
      "duration": 0.0001,
      "velocity": 1,
      "chip": "ym2612"
    },
    {
      "channel": 0,
      "note": 42,
      "start": 10.0639,
      "duration": 0.0076,
      "velocity": 107,
      "chip": "ym2612"
    },
    {
      "channel": 4,
      "note": 78,
      "start": 10.0675,
      "duration": 0.0001,
      "velocity": 1,
      "chip": "ym2612"
    },
    {
      "channel": 0,
      "note": 42,
      "start": 10.0956,
      "duration": 0.0102,
      "velocity": 107,
      "chip": "ym2612"
    },
    {
      "channel": 1,
      "note": 22,
      "start": 10.0982,
      "duration": 0.0294,
      "velocity": 125,
      "chip": "ym2612"
    },
    {
      "channel": 4,
      "note": 78,
      "start": 10.1017,
      "duration": 0.0001,
      "velocity": 1,
      "chip": "ym2612"
    },
    {
      "channel": 0,
      "note": 42,
      "start": 10.1548,
      "duration": 0.0077,
      "velocity": 107,
      "chip": "ym2612"
    },
    {
      "channel": 4,
      "note": 78,
      "start": 10.1585,
      "duration": 0.0001,
      "velocity": 1,
      "chip": "ym2612"
    },
    {
      "channel": 0,
      "note": 40,
      "start": 10.1863,
      "duration": 0.0077,
      "velocity": 107,
      "chip": "ym2612"
    },
    {
      "channel": 4,
      "note": 78,
      "start": 10.19,
      "duration": 0.0001,
      "velocity": 1,
      "chip": "ym2612"
    },
    {
      "channel": 0,
      "note": 40,
      "start": 10.2178,
      "duration": 0.0076,
      "velocity": 107,
      "chip": "ym2612"
    },
    {
      "channel": 4,
      "note": 78,
      "start": 10.2215,
      "duration": 0.0001,
      "velocity": 1,
      "chip": "ym2612"
    },
    {
      "channel": 0,
      "note": 42,
      "start": 10.2685,
      "duration": 0.0061,
      "velocity": 107,
      "chip": "ym2612"
    },
    {
      "channel": 4,
      "note": 78,
      "start": 10.2721,
      "duration": 0.0001,
      "velocity": 1,
      "chip": "ym2612"
    },
    {
      "channel": 0,
      "note": 42,
      "start": 10.3221,
      "duration": 0.0102,
      "velocity": 107,
      "chip": "ym2612"
    },
    {
      "channel": 1,
      "note": 22,
      "start": 10.3247,
      "duration": 0.0328,
      "velocity": 125,
      "chip": "ym2612"
    },
    {
      "channel": 4,
      "note": 78,
      "start": 10.3283,
      "duration": 0.0001,
      "velocity": 1,
      "chip": "ym2612"
    },
    {
      "channel": 0,
      "note": 42,
      "start": 10.3564,
      "duration": 0.0068,
      "velocity": 107,
      "chip": "ym2612"
    },
    {
      "channel": 4,
      "note": 78,
      "start": 10.3607,
      "duration": 0.0001,
      "velocity": 1,
      "chip": "ym2612"
    },
    {
      "channel": 0,
      "note": 42,
      "start": 10.411,
      "duration": 0.0061,
      "velocity": 107,
      "chip": "ym2612"
    },
    {
      "channel": 4,
      "note": 78,
      "start": 10.4147,
      "duration": 0.0001,
      "velocity": 1,
      "chip": "ym2612"
    },
    {
      "channel": 0,
      "note": 42,
      "start": 10.4652,
      "duration": 0.0061,
      "velocity": 107,
      "chip": "ym2612"
    },
    {
      "channel": 4,
      "note": 78,
      "start": 10.4688,
      "duration": 0.0001,
      "velocity": 1,
      "chip": "ym2612"
    },
    {
      "channel": 0,
      "note": 42,
      "start": 10.4926,
      "duration": 0.0061,
      "velocity": 107,
      "chip": "ym2612"
    },
    {
      "channel": 4,
      "note": 78,
      "start": 10.4962,
      "duration": 0.0001,
      "velocity": 1,
      "chip": "ym2612"
    },
    {
      "channel": 0,
      "note": 45,
      "start": 10.5232,
      "duration": 0.0076,
      "velocity": 107,
      "chip": "ym2612"
    },
    {
      "channel": 4,
      "note": 78,
      "start": 10.5268,
      "duration": 0.0001,
      "velocity": 1,
      "chip": "ym2612"
    },
    {
      "channel": 0,
      "note": 45,
      "start": 10.5548,
      "duration": 0.0102,
      "velocity": 107,
      "chip": "ym2612"
    },
    {
      "channel": 1,
      "note": 22,
      "start": 10.5575,
      "duration": 0.0293,
      "velocity": 125,
      "chip": "ym2612"
    },
    {
      "channel": 4,
      "note": 78,
      "start": 10.561,
      "duration": 0.0001,
      "velocity": 1,
      "chip": "ym2612"
    },
    {
      "channel": 0,
      "note": 45,
      "start": 10.6141,
      "duration": 0.0077,
      "velocity": 107,
      "chip": "ym2612"
    },
    {
      "channel": 4,
      "note": 66,
      "start": 10.6178,
      "duration": 0.0001,
      "velocity": 1,
      "chip": "ym2612"
    },
    {
      "channel": 0,
      "note": 40,
      "start": 10.6458,
      "duration": 0.0102,
      "velocity": 107,
      "chip": "ym2612"
    },
    {
      "channel": 1,
      "note": 22,
      "start": 10.6484,
      "duration": 0.0335,
      "velocity": 125,
      "chip": "ym2612"
    },
    {
      "channel": 4,
      "note": 66,
      "start": 10.652,
      "duration": 0.0001,
      "velocity": 1,
      "chip": "ym2612"
    },
    {
      "channel": 0,
      "note": 40,
      "start": 10.6808,
      "duration": 0.0083,
      "velocity": 107,
      "chip": "ym2612"
    },
    {
      "channel": 4,
      "note": 78,
      "start": 10.6851,
      "duration": 0.0001,
      "velocity": 1,
      "chip": "ym2612"
    },
    {
      "channel": 0,
      "note": 42,
      "start": 10.7336,
      "duration": 0.0063,
      "velocity": 107,
      "chip": "ym2612"
    },
    {
      "channel": 4,
      "note": 78,
      "start": 10.7373,
      "duration": 0.0001,
      "velocity": 1,
      "chip": "ym2612"
    },
    {
      "channel": 0,
      "note": 42,
      "start": 10.7877,
      "duration": 0.0102,
      "velocity": 107,
      "chip": "ym2612"
    },
    {
      "channel": 1,
      "note": 22,
      "start": 10.7904,
      "duration": 0.0328,
      "velocity": 125,
      "chip": "ym2612"
    },
    {
      "channel": 4,
      "note": 78,
      "start": 10.7939,
      "duration": 0.0001,
      "velocity": 1,
      "chip": "ym2612"
    },
    {
      "channel": 0,
      "note": 42,
      "start": 10.8221,
      "duration": 0.0068,
      "velocity": 107,
      "chip": "ym2612"
    },
    {
      "channel": 4,
      "note": 78,
      "start": 10.8264,
      "duration": 0.0001,
      "velocity": 1,
      "chip": "ym2612"
    },
    {
      "channel": 0,
      "note": 42,
      "start": 10.8767,
      "duration": 0.0063,
      "velocity": 107,
      "chip": "ym2612"
    },
    {
      "channel": 4,
      "note": 78,
      "start": 10.8804,
      "duration": 0.0001,
      "velocity": 1,
      "chip": "ym2612"
    },
    {
      "channel": 0,
      "note": 42,
      "start": 10.9309,
      "duration": 0.0061,
      "velocity": 107,
      "chip": "ym2612"
    },
    {
      "channel": 4,
      "note": 78,
      "start": 10.9345,
      "duration": 0.0001,
      "velocity": 1,
      "chip": "ym2612"
    },
    {
      "channel": 0,
      "note": 42,
      "start": 10.9583,
      "duration": 0.0061,
      "velocity": 107,
      "chip": "ym2612"
    },
    {
      "channel": 4,
      "note": 78,
      "start": 10.9619,
      "duration": 0.0001,
      "velocity": 1,
      "chip": "ym2612"
    },
    {
      "channel": 0,
      "note": 42,
      "start": 10.9861,
      "duration": 0.0076,
      "velocity": 107,
      "chip": "ym2612"
    },
    {
      "channel": 4,
      "note": 78,
      "start": 10.9898,
      "duration": 0.0001,
      "velocity": 1,
      "chip": "ym2612"
    },
    {
      "channel": 0,
      "note": 42,
      "start": 11.0177,
      "duration": 0.0102,
      "velocity": 107,
      "chip": "ym2612"
    },
    {
      "channel": 1,
      "note": 22,
      "start": 11.0204,
      "duration": 0.0293,
      "velocity": 125,
      "chip": "ym2612"
    },
    {
      "channel": 4,
      "note": 78,
      "start": 11.0239,
      "duration": 0.0001,
      "velocity": 1,
      "chip": "ym2612"
    },
    {
      "channel": 0,
      "note": 42,
      "start": 11.077,
      "duration": 0.0077,
      "velocity": 107,
      "chip": "ym2612"
    },
    {
      "channel": 4,
      "note": 78,
      "start": 11.0808,
      "duration": 0.0001,
      "velocity": 1,
      "chip": "ym2612"
    },
    {
      "channel": 0,
      "note": 40,
      "start": 11.1085,
      "duration": 0.0077,
      "velocity": 107,
      "chip": "ym2612"
    },
    {
      "channel": 4,
      "note": 78,
      "start": 11.1123,
      "duration": 0.0001,
      "velocity": 1,
      "chip": "ym2612"
    },
    {
      "channel": 0,
      "note": 40,
      "start": 11.14,
      "duration": 0.0076,
      "velocity": 107,
      "chip": "ym2612"
    },
    {
      "channel": 4,
      "note": 78,
      "start": 11.1437,
      "duration": 0.0001,
      "velocity": 1,
      "chip": "ym2612"
    },
    {
      "channel": 0,
      "note": 42,
      "start": 11.1906,
      "duration": 0.006,
      "velocity": 107,
      "chip": "ym2612"
    },
    {
      "channel": 4,
      "note": 78,
      "start": 11.1942,
      "duration": 0.0001,
      "velocity": 1,
      "chip": "ym2612"
    },
    {
      "channel": 0,
      "note": 42,
      "start": 11.2443,
      "duration": 0.0102,
      "velocity": 107,
      "chip": "ym2612"
    },
    {
      "channel": 1,
      "note": 22,
      "start": 11.2469,
      "duration": 0.0328,
      "velocity": 125,
      "chip": "ym2612"
    },
    {
      "channel": 4,
      "note": 78,
      "start": 11.2505,
      "duration": 0.0001,
      "velocity": 1,
      "chip": "ym2612"
    },
    {
      "channel": 0,
      "note": 42,
      "start": 11.2787,
      "duration": 0.0068,
      "velocity": 107,
      "chip": "ym2612"
    },
    {
      "channel": 4,
      "note": 78,
      "start": 11.283,
      "duration": 0.0001,
      "velocity": 1,
      "chip": "ym2612"
    },
    {
      "channel": 0,
      "note": 42,
      "start": 11.3332,
      "duration": 0.0061,
      "velocity": 107,
      "chip": "ym2612"
    },
    {
      "channel": 4,
      "note": 78,
      "start": 11.3369,
      "duration": 0.0001,
      "velocity": 1,
      "chip": "ym2612"
    },
    {
      "channel": 0,
      "note": 42,
      "start": 11.3874,
      "duration": 0.0061,
      "velocity": 107,
      "chip": "ym2612"
    },
    {
      "channel": 4,
      "note": 78,
      "start": 11.391,
      "duration": 0.0001,
      "velocity": 1,
      "chip": "ym2612"
    },
    {
      "channel": 0,
      "note": 45,
      "start": 11.4149,
      "duration": 0.0061,
      "velocity": 107,
      "chip": "ym2612"
    },
    {
      "channel": 4,
      "note": 78,
      "start": 11.4185,
      "duration": 0.0001,
      "velocity": 1,
      "chip": "ym2612"
    },
    {
      "channel": 0,
      "note": 45,
      "start": 11.4454,
      "duration": 0.0076,
      "velocity": 107,
      "chip": "ym2612"
    },
    {
      "channel": 4,
      "note": 78,
      "start": 11.449,
      "duration": 0.0001,
      "velocity": 1,
      "chip": "ym2612"
    },
    {
      "channel": 0,
      "note": 45,
      "start": 11.4771,
      "duration": 0.0102,
      "velocity": 107,
      "chip": "ym2612"
    },
    {
      "channel": 1,
      "note": 22,
      "start": 11.4797,
      "duration": 0.0292,
      "velocity": 125,
      "chip": "ym2612"
    },
    {
      "channel": 4,
      "note": 78,
      "start": 11.4832,
      "duration": 0.0001,
      "velocity": 1,
      "chip": "ym2612"
    },
    {
      "channel": 0,
      "note": 40,
      "start": 11.5364,
      "duration": 0.0101,
      "velocity": 107,
      "chip": "ym2612"
    },
    {
      "channel": 1,
      "note": 22,
      "start": 11.539,
      "duration": 0.0334,
      "velocity": 125,
      "chip": "ym2612"
    },
    {
      "channel": 4,
      "note": 66,
      "start": 11.5425,
      "duration": 0.0001,
      "velocity": 1,
      "chip": "ym2612"
    },
    {
      "channel": 0,
      "note": 40,
      "start": 11.5715,
      "duration": 0.0102,
      "velocity": 107,
      "chip": "ym2612"
    },
    {
      "channel": 1,
      "note": 28,
      "start": 11.5741,
      "duration": 0.0362,
      "velocity": 125,
      "chip": "ym2612"
    },
    {
      "channel": 4,
      "note": 66,
      "start": 11.5777,
      "duration": 0.0001,
      "velocity": 1,
      "chip": "ym2612"
    },
    {
      "channel": 0,
      "note": 40,
      "start": 11.6092,
      "duration": 0.0105,
      "velocity": 107,
      "chip": "ym2612"
    },
    {
      "channel": 2,
      "note": 66,
      "start": 11.6126,
      "duration": 0.0273,
      "velocity": 95,
      "chip": "ym2612"
    },
    {
      "channel": 4,
      "note": 78,
      "start": 11.6157,
      "duration": 0.0001,
      "velocity": 1,
      "chip": "ym2612"
    },
    {
      "channel": 3,
      "note": 66,
      "start": 11.6427,
      "duration": 0.0289,
      "velocity": 95,
      "chip": "ym2612"
    },
    {
      "channel": 0,
      "note": 42,
      "start": 11.6679,
      "duration": 0.0087,
      "velocity": 107,
      "chip": "ym2612"
    },
    {
      "channel": 2,
      "note": 78,
      "start": 11.6707,
      "duration": 0.0293,
      "velocity": 95,
      "chip": "ym2612"
    },
    {
      "channel": 4,
      "note": 78,
      "start": 11.6741,
      "duration": 0.0001,
      "velocity": 1,
      "chip": "ym2612"
    },
    {
      "channel": 3,
      "note": 78,
      "start": 11.7029,
      "duration": 0.0335,
      "velocity": 95,
      "chip": "ym2612"
    },
    {
      "channel": 0,
      "note": 42,
      "start": 11.7302,
      "duration": 0.0127,
      "velocity": 107,
      "chip": "ym2612"
    },
    {
      "channel": 1,
      "note": 22,
      "start": 11.7328,
      "duration": 0.0362,
      "velocity": 125,
      "chip": "ym2612"
    },
    {
      "channel": 2,
      "note": 76,
      "start": 11.7354,
      "duration": 0.0342,
      "velocity": 95,
      "chip": "ym2612"
    },
    {
      "channel": 4,
      "note": 78,
      "start": 11.7388,
      "duration": 0.0001,
      "velocity": 1,
      "chip": "ym2612"
    },
    {
      "channel": 0,
      "note": 42,
      "start": 11.7679,
      "duration": 0.0113,
      "velocity": 107,
      "chip": "ym2612"
    },
    {
      "channel": 2,
      "note": 78,
      "start": 11.7713,
      "duration": 0.0286,
      "velocity": 95,
      "chip": "ym2612"
    },
    {
      "channel": 3,
      "note": 76,
      "start": 11.7741,
      "duration": 0.0266,
      "velocity": 95,
      "chip": "ym2612"
    },
    {
      "channel": 4,
      "note": 78,
      "start": 11.7768,
      "duration": 0.0001,
      "velocity": 1,
      "chip": "ym2612"
    },
    {
      "channel": 3,
      "note": 78,
      "start": 11.8028,
      "duration": 0.0303,
      "velocity": 95,
      "chip": "ym2612"
    },
    {
      "channel": 0,
      "note": 42,
      "start": 11.8294,
      "duration": 0.0088,
      "velocity": 107,
      "chip": "ym2612"
    },
    {
      "channel": 2,
      "note": 73,
      "start": 11.8322,
      "duration": 0.0269,
      "velocity": 95,
      "chip": "ym2612"
    },
    {
      "channel": 4,
      "note": 78,
      "start": 11.8356,
      "duration": 0.0001,
      "velocity": 1,
      "chip": "ym2612"
    },
    {
      "channel": 3,
      "note": 73,
      "start": 11.862,
      "duration": 0.0297,
      "velocity": 95,
      "chip": "ym2612"
    },
    {
      "channel": 0,
      "note": 42,
      "start": 11.8881,
      "duration": 0.0085,
      "velocity": 107,
      "chip": "ym2612"
    },
    {
      "channel": 2,
      "note": 78,
      "start": 11.8908,
      "duration": 0.0291,
      "velocity": 95,
      "chip": "ym2612"
    },
    {
      "channel": 4,
      "note": 78,
      "start": 11.8942,
      "duration": 0.0001,
      "velocity": 1,
      "chip": "ym2612"
    },
    {
      "channel": 0,
      "note": 42,
      "start": 11.9189,
      "duration": 0.0107,
      "velocity": 107,
      "chip": "ym2612"
    },
    {
      "channel": 2,
      "note": 78,
      "start": 11.9216,
      "duration": 0.0339,
      "velocity": 95,
      "chip": "ym2612"
    },
    {
      "channel": 3,
      "note": 78,
      "start": 11.9243,
      "duration": 0.0338,
      "velocity": 95,
      "chip": "ym2612"
    },
    {
      "channel": 4,
      "note": 78,
      "start": 11.9271,
      "duration": 0.0001,
      "velocity": 1,
      "chip": "ym2612"
    },
    {
      "channel": 0,
      "note": 42,
      "start": 11.9544,
      "duration": 0.0122,
      "velocity": 107,
      "chip": "ym2612"
    },
    {
      "channel": 2,
      "note": 76,
      "start": 11.9571,
      "duration": 0.0388,
      "velocity": 95,
      "chip": "ym2612"
    },
    {
      "channel": 3,
      "note": 78,
      "start": 11.9599,
      "duration": 0.0387,
      "velocity": 95,
      "chip": "ym2612"
    },
    {
      "channel": 4,
      "note": 78,
      "start": 11.9627,
      "duration": 0.0001,
      "velocity": 1,
      "chip": "ym2612"
    },
    {
      "channel": 0,
      "note": 42,
      "start": 11.9923,
      "duration": 0.0148,
      "velocity": 107,
      "chip": "ym2612"
    },
    {
      "channel": 1,
      "note": 22,
      "start": 11.995,
      "duration": 0.0345,
      "velocity": 125,
      "chip": "ym2612"
    },
    {
      "channel": 2,
      "note": 78,
      "start": 11.9976,
      "duration": 0.0324,
      "velocity": 95,
      "chip": "ym2612"
    },
    {
      "channel": 3,
      "note": 76,
      "start": 12.0003,
      "duration": 0.0308,
      "velocity": 95,
      "chip": "ym2612"
    },
    {
      "channel": 4,
      "note": 78,
      "start": 12.0031,
      "duration": 0.0001,
      "velocity": 1,
      "chip": "ym2612"
    },
    {
      "channel": 3,
      "note": 78,
      "start": 12.0329,
      "duration": 0.0301,
      "velocity": 95,
      "chip": "ym2612"
    },
    {
      "channel": 0,
      "note": 42,
      "start": 12.0592,
      "duration": 0.0101,
      "velocity": 107,
      "chip": "ym2612"
    },
    {
      "channel": 2,
      "note": 71,
      "start": 12.062,
      "duration": 0.0337,
      "velocity": 95,
      "chip": "ym2612"
    },
    {
      "channel": 4,
      "note": 78,
      "start": 12.0654,
      "duration": 0.0001,
      "velocity": 1,
      "chip": "ym2612"
    },
    {
      "channel": 0,
      "note": 40,
      "start": 12.0945,
      "duration": 0.0123,
      "velocity": 107,
      "chip": "ym2612"
    },
    {
      "channel": 2,
      "note": 71,
      "start": 12.0973,
      "duration": 0.0359,
      "velocity": 95,
      "chip": "ym2612"
    },
    {
      "channel": 3,
      "note": 71,
      "start": 12.1001,
      "duration": 0.0358,
      "velocity": 95,
      "chip": "ym2612"
    },
    {
      "channel": 4,
      "note": 78,
      "start": 12.1029,
      "duration": 0.0001,
      "velocity": 1,
      "chip": "ym2612"
    },
    {
      "channel": 0,
      "note": 40,
      "start": 12.1322,
      "duration": 0.0122,
      "velocity": 107,
      "chip": "ym2612"
    },
    {
      "channel": 2,
      "note": 73,
      "start": 12.1349,
      "duration": 0.0289,
      "velocity": 95,
      "chip": "ym2612"
    },
    {
      "channel": 3,
      "note": 71,
      "start": 12.1377,
      "duration": 0.0268,
      "velocity": 95,
      "chip": "ym2612"
    },
    {
      "channel": 4,
      "note": 78,
      "start": 12.1404,
      "duration": 0.0001,
      "velocity": 1,
      "chip": "ym2612"
    },
    {
      "channel": 3,
      "note": 73,
      "start": 12.1667,
      "duration": 0.028,
      "velocity": 95,
      "chip": "ym2612"
    },
    {
      "channel": 0,
      "note": 42,
      "start": 12.1911,
      "duration": 0.0085,
      "velocity": 107,
      "chip": "ym2612"
    },
    {
      "channel": 2,
      "note": 78,
      "start": 12.1938,
      "duration": 0.0261,
      "velocity": 95,
      "chip": "ym2612"
    },
    {
      "channel": 4,
      "note": 78,
      "start": 12.1972,
      "duration": 0.0001,
      "velocity": 1,
      "chip": "ym2612"
    },
    {
      "channel": 3,
      "note": 78,
      "start": 12.2227,
      "duration": 0.0335,
      "velocity": 95,
      "chip": "ym2612"
    },
    {
      "channel": 0,
      "note": 42,
      "start": 12.25,
      "duration": 0.0127,
      "velocity": 107,
      "chip": "ym2612"
    },
    {
      "channel": 1,
      "note": 22,
      "start": 12.2527,
      "duration": 0.0362,
      "velocity": 125,
      "chip": "ym2612"
    },
    {
      "channel": 2,
      "note": 76,
      "start": 12.2553,
      "duration": 0.0342,
      "velocity": 95,
      "chip": "ym2612"
    },
    {
      "channel": 4,
      "note": 78,
      "start": 12.2587,
      "duration": 0.0001,
      "velocity": 1,
      "chip": "ym2612"
    },
    {
      "channel": 0,
      "note": 42,
      "start": 12.2878,
      "duration": 0.0114,
      "velocity": 107,
      "chip": "ym2612"
    },
    {
      "channel": 2,
      "note": 78,
      "start": 12.2911,
      "duration": 0.0289,
      "velocity": 95,
      "chip": "ym2612"
    },
    {
      "channel": 3,
      "note": 76,
      "start": 12.2939,
      "duration": 0.0269,
      "velocity": 95,
      "chip": "ym2612"
    },
    {
      "channel": 4,
      "note": 78,
      "start": 12.2966,
      "duration": 0.0001,
      "velocity": 1,
      "chip": "ym2612"
    },
    {
      "channel": 3,
      "note": 78,
      "start": 12.3229,
      "duration": 0.0304,
      "velocity": 95,
      "chip": "ym2612"
    },
    {
      "channel": 0,
      "note": 42,
      "start": 12.3496,
      "duration": 0.0087,
      "velocity": 107,
      "chip": "ym2612"
    },
    {
      "channel": 2,
      "note": 73,
      "start": 12.3524,
      "duration": 0.0269,
      "velocity": 95,
      "chip": "ym2612"
    },
    {
      "channel": 4,
      "note": 78,
      "start": 12.3558,
      "duration": 0.0001,
      "velocity": 1,
      "chip": "ym2612"
    },
    {
      "channel": 3,
      "note": 73,
      "start": 12.3822,
      "duration": 0.0296,
      "velocity": 95,
      "chip": "ym2612"
    },
    {
      "channel": 0,
      "note": 42,
      "start": 12.4082,
      "duration": 0.0085,
      "velocity": 107,
      "chip": "ym2612"
    },
    {
      "channel": 2,
      "note": 78,
      "start": 12.4109,
      "duration": 0.0291,
      "velocity": 95,
      "chip": "ym2612"
    },
    {
      "channel": 4,
      "note": 78,
      "start": 12.4142,
      "duration": 0.0001,
      "velocity": 1,
      "chip": "ym2612"
    },
    {
      "channel": 0,
      "note": 42,
      "start": 12.439,
      "duration": 0.0107,
      "velocity": 107,
      "chip": "ym2612"
    },
    {
      "channel": 2,
      "note": 78,
      "start": 12.4417,
      "duration": 0.0339,
      "velocity": 95,
      "chip": "ym2612"
    },
    {
      "channel": 3,
      "note": 78,
      "start": 12.4444,
      "duration": 0.0338,
      "velocity": 95,
      "chip": "ym2612"
    },
    {
      "channel": 4,
      "note": 78,
      "start": 12.4472,
      "duration": 0.0001,
      "velocity": 1,
      "chip": "ym2612"
    },
    {
      "channel": 0,
      "note": 45,
      "start": 12.4745,
      "duration": 0.0122,
      "velocity": 107,
      "chip": "ym2612"
    },
    {
      "channel": 2,
      "note": 76,
      "start": 12.4772,
      "duration": 0.0388,
      "velocity": 95,
      "chip": "ym2612"
    },
    {
      "channel": 3,
      "note": 78,
      "start": 12.48,
      "duration": 0.0387,
      "velocity": 95,
      "chip": "ym2612"
    },
    {
      "channel": 4,
      "note": 78,
      "start": 12.4827,
      "duration": 0.0001,
      "velocity": 1,
      "chip": "ym2612"
    },
    {
      "channel": 0,
      "note": 45,
      "start": 12.5124,
      "duration": 0.0148,
      "velocity": 107,
      "chip": "ym2612"
    },
    {
      "channel": 1,
      "note": 22,
      "start": 12.5151,
      "duration": 0.0345,
      "velocity": 125,
      "chip": "ym2612"
    },
    {
      "channel": 2,
      "note": 78,
      "start": 12.5177,
      "duration": 0.0324,
      "velocity": 95,
      "chip": "ym2612"
    },
    {
      "channel": 3,
      "note": 76,
      "start": 12.5204,
      "duration": 0.0308,
      "velocity": 95,
      "chip": "ym2612"
    },
    {
      "channel": 4,
      "note": 78,
      "start": 12.5232,
      "duration": 0.0001,
      "velocity": 1,
      "chip": "ym2612"
    },
    {
      "channel": 3,
      "note": 78,
      "start": 12.5529,
      "duration": 0.03,
      "velocity": 95,
      "chip": "ym2612"
    },
    {
      "channel": 0,
      "note": 45,
      "start": 12.5792,
      "duration": 0.0102,
      "velocity": 107,
      "chip": "ym2612"
    },
    {
      "channel": 2,
      "note": 69,
      "start": 12.582,
      "duration": 0.0361,
      "velocity": 95,
      "chip": "ym2612"
    },
    {
      "channel": 4,
      "note": 66,
      "start": 12.5854,
      "duration": 0.0001,
      "velocity": 1,
      "chip": "ym2612"
    },
    {
      "channel": 0,
      "note": 40,
      "start": 12.6146,
      "duration": 0.0148,
      "velocity": 107,
      "chip": "ym2612"
    },
    {
      "channel": 1,
      "note": 22,
      "start": 12.6173,
      "duration": 0.0386,
      "velocity": 125,
      "chip": "ym2612"
    },
    {
      "channel": 2,
      "note": 69,
      "start": 12.6199,
      "duration": 0.0366,
      "velocity": 95,
      "chip": "ym2612"
    },
    {
      "channel": 3,
      "note": 69,
      "start": 12.6226,
      "duration": 0.0365,
      "velocity": 95,
      "chip": "ym2612"
    },
    {
      "channel": 4,
      "note": 66,
      "start": 12.6254,
      "duration": 0.0001,
      "velocity": 1,
      "chip": "ym2612"
    },
    {
      "channel": 0,
      "note": 40,
      "start": 12.6547,
      "duration": 0.0151,
      "velocity": 107,
      "chip": "ym2612"
    },
    {
      "channel": 2,
      "note": 71,
      "start": 12.6581,
      "duration": 0.0338,
      "velocity": 95,
      "chip": "ym2612"
    },
    {
      "channel": 3,
      "note": 69,
      "start": 12.6609,
      "duration": 0.0317,
      "velocity": 95,
      "chip": "ym2612"
    },
    {
      "channel": 4,
      "note": 78,
      "start": 12.6636,
      "duration": 0.0001,
      "velocity": 1,
      "chip": "ym2612"
    },
    {
      "channel": 3,
      "note": 71,
      "start": 12.6948,
      "duration": 0.0288,
      "velocity": 95,
      "chip": "ym2612"
    },
    {
      "channel": 0,
      "note": 42,
      "start": 12.7198,
      "duration": 0.0087,
      "velocity": 107,
      "chip": "ym2612"
    },
    {
      "channel": 2,
      "note": 78,
      "start": 12.7226,
      "duration": 0.0269,
      "velocity": 95,
      "chip": "ym2612"
    },
    {
      "channel": 4,
      "note": 78,
      "start": 12.726,
      "duration": 0.0001,
      "velocity": 1,
      "chip": "ym2612"
    },
    {
      "channel": 3,
      "note": 78,
      "start": 12.7524,
      "duration": 0.0335,
      "velocity": 95,
      "chip": "ym2612"
    },
    {
      "channel": 0,
      "note": 42,
      "start": 12.7797,
      "duration": 0.0127,
      "velocity": 107,
      "chip": "ym2612"
    },
    {
      "channel": 1,
      "note": 22,
      "start": 12.7823,
      "duration": 0.0362,
      "velocity": 125,
      "chip": "ym2612"
    },
    {
      "channel": 2,
      "note": 76,
      "start": 12.785,
      "duration": 0.0341,
      "velocity": 95,
      "chip": "ym2612"
    },
    {
      "channel": 4,
      "note": 78,
      "start": 12.7883,
      "duration": 0.0001,
      "velocity": 1,
      "chip": "ym2612"
    },
    {
      "channel": 0,
      "note": 42,
      "start": 12.8174,
      "duration": 0.0114,
      "velocity": 107,
      "chip": "ym2612"
    },
    {
      "channel": 2,
      "note": 78,
      "start": 12.8208,
      "duration": 0.0286,
      "velocity": 95,
      "chip": "ym2612"
    },
    {
      "channel": 3,
      "note": 76,
      "start": 12.8236,
      "duration": 0.0266,
      "velocity": 95,
      "chip": "ym2612"
    },
    {
      "channel": 4,
      "note": 78,
      "start": 12.8263,
      "duration": 0.0001,
      "velocity": 1,
      "chip": "ym2612"
    },
    {
      "channel": 3,
      "note": 78,
      "start": 12.8523,
      "duration": 0.0303,
      "velocity": 95,
      "chip": "ym2612"
    },
    {
      "channel": 0,
      "note": 42,
      "start": 12.8789,
      "duration": 0.0087,
      "velocity": 107,
      "chip": "ym2612"
    },
    {
      "channel": 2,
      "note": 73,
      "start": 12.8817,
      "duration": 0.0269,
      "velocity": 95,
      "chip": "ym2612"
    },
    {
      "channel": 4,
      "note": 78,
      "start": 12.8851,
      "duration": 0.0001,
      "velocity": 1,
      "chip": "ym2612"
    },
    {
      "channel": 3,
      "note": 73,
      "start": 12.9115,
      "duration": 0.0298,
      "velocity": 95,
      "chip": "ym2612"
    },
    {
      "channel": 0,
      "note": 42,
      "start": 12.9376,
      "duration": 0.0085,
      "velocity": 107,
      "chip": "ym2612"
    },
    {
      "channel": 2,
      "note": 78,
      "start": 12.9402,
      "duration": 0.0291,
      "velocity": 95,
      "chip": "ym2612"
    },
    {
      "channel": 4,
      "note": 78,
      "start": 12.9437,
      "duration": 0.0001,
      "velocity": 1,
      "chip": "ym2612"
    },
    {
      "channel": 0,
      "note": 42,
      "start": 12.9683,
      "duration": 0.0107,
      "velocity": 107,
      "chip": "ym2612"
    },
    {
      "channel": 2,
      "note": 78,
      "start": 12.971,
      "duration": 0.0337,
      "velocity": 95,
      "chip": "ym2612"
    },
    {
      "channel": 3,
      "note": 78,
      "start": 12.9738,
      "duration": 0.0336,
      "velocity": 95,
      "chip": "ym2612"
    },
    {
      "channel": 4,
      "note": 78,
      "start": 12.9766,
      "duration": 0.0001,
      "velocity": 1,
      "chip": "ym2612"
    },
    {
      "channel": 0,
      "note": 42,
      "start": 13.0037,
      "duration": 0.0122,
      "velocity": 107,
      "chip": "ym2612"
    },
    {
      "channel": 2,
      "note": 76,
      "start": 13.0064,
      "duration": 0.0387,
      "velocity": 95,
      "chip": "ym2612"
    },
    {
      "channel": 3,
      "note": 78,
      "start": 13.0092,
      "duration": 0.0387,
      "velocity": 95,
      "chip": "ym2612"
    },
    {
      "channel": 4,
      "note": 78,
      "start": 13.012,
      "duration": 0.0001,
      "velocity": 1,
      "chip": "ym2612"
    },
    {
      "channel": 0,
      "note": 42,
      "start": 13.0416,
      "duration": 0.0148,
      "velocity": 107,
      "chip": "ym2612"
    },
    {
      "channel": 1,
      "note": 22,
      "start": 13.0442,
      "duration": 0.0344,
      "velocity": 125,
      "chip": "ym2612"
    },
    {
      "channel": 2,
      "note": 78,
      "start": 13.0468,
      "duration": 0.0323,
      "velocity": 95,
      "chip": "ym2612"
    },
    {
      "channel": 3,
      "note": 76,
      "start": 13.0496,
      "duration": 0.0307,
      "velocity": 95,
      "chip": "ym2612"
    },
    {
      "channel": 4,
      "note": 78,
      "start": 13.0524,
      "duration": 0.0001,
      "velocity": 1,
      "chip": "ym2612"
    },
    {
      "channel": 3,
      "note": 78,
      "start": 13.082,
      "duration": 0.0302,
      "velocity": 95,
      "chip": "ym2612"
    },
    {
      "channel": 0,
      "note": 42,
      "start": 13.1085,
      "duration": 0.0102,
      "velocity": 107,
      "chip": "ym2612"
    },
    {
      "channel": 2,
      "note": 71,
      "start": 13.1113,
      "duration": 0.0336,
      "velocity": 95,
      "chip": "ym2612"
    },
    {
      "channel": 4,
      "note": 78,
      "start": 13.1147,
      "duration": 0.0001,
      "velocity": 1,
      "chip": "ym2612"
    },
    {
      "channel": 0,
      "note": 40,
      "start": 13.1438,
      "duration": 0.0123,
      "velocity": 107,
      "chip": "ym2612"
    },
    {
      "channel": 2,
      "note": 71,
      "start": 13.1466,
      "duration": 0.0359,
      "velocity": 95,
      "chip": "ym2612"
    },
    {
      "channel": 3,
      "note": 71,
      "start": 13.1494,
      "duration": 0.0358,
      "velocity": 95,
      "chip": "ym2612"
    },
    {
      "channel": 4,
      "note": 78,
      "start": 13.1521,
      "duration": 0.0001,
      "velocity": 1,
      "chip": "ym2612"
    },
    {
      "channel": 0,
      "note": 40,
      "start": 13.1815,
      "duration": 0.0122,
      "velocity": 107,
      "chip": "ym2612"
    },
    {
      "channel": 2,
      "note": 73,
      "start": 13.1842,
      "duration": 0.0289,
      "velocity": 95,
      "chip": "ym2612"
    },
    {
      "channel": 3,
      "note": 71,
      "start": 13.1869,
      "duration": 0.0268,
      "velocity": 95,
      "chip": "ym2612"
    },
    {
      "channel": 4,
      "note": 78,
      "start": 13.1897,
      "duration": 0.0001,
      "velocity": 1,
      "chip": "ym2612"
    },
    {
      "channel": 3,
      "note": 73,
      "start": 13.216,
      "duration": 0.028,
      "velocity": 95,
      "chip": "ym2612"
    },
    {
      "channel": 0,
      "note": 42,
      "start": 13.2404,
      "duration": 0.0086,
      "velocity": 107,
      "chip": "ym2612"
    },
    {
      "channel": 2,
      "note": 78,
      "start": 13.2431,
      "duration": 0.026,
      "velocity": 95,
      "chip": "ym2612"
    },
    {
      "channel": 4,
      "note": 78,
      "start": 13.2465,
      "duration": 0.0001,
      "velocity": 1,
      "chip": "ym2612"
    },
    {
      "channel": 3,
      "note": 78,
      "start": 13.272,
      "duration": 0.0334,
      "velocity": 95,
      "chip": "ym2612"
    },
    {
      "channel": 0,
      "note": 42,
      "start": 13.2992,
      "duration": 0.0126,
      "velocity": 107,
      "chip": "ym2612"
    },
    {
      "channel": 1,
      "note": 22,
      "start": 13.3019,
      "duration": 0.0362,
      "velocity": 125,
      "chip": "ym2612"
    },
    {
      "channel": 2,
      "note": 76,
      "start": 13.3045,
      "duration": 0.0342,
      "velocity": 95,
      "chip": "ym2612"
    },
    {
      "channel": 4,
      "note": 78,
      "start": 13.3079,
      "duration": 0.0001,
      "velocity": 1,
      "chip": "ym2612"
    },
    {
      "channel": 0,
      "note": 42,
      "start": 13.337,
      "duration": 0.0114,
      "velocity": 107,
      "chip": "ym2612"
    },
    {
      "channel": 2,
      "note": 78,
      "start": 13.3404,
      "duration": 0.0289,
      "velocity": 95,
      "chip": "ym2612"
    },
    {
      "channel": 3,
      "note": 76,
      "start": 13.3431,
      "duration": 0.0269,
      "velocity": 95,
      "chip": "ym2612"
    },
    {
      "channel": 4,
      "note": 78,
      "start": 13.3459,
      "duration": 0.0001,
      "velocity": 1,
      "chip": "ym2612"
    },
    {
      "channel": 3,
      "note": 78,
      "start": 13.3722,
      "duration": 0.0304,
      "velocity": 95,
      "chip": "ym2612"
    },
    {
      "channel": 0,
      "note": 42,
      "start": 13.3988,
      "duration": 0.0087,
      "velocity": 107,
      "chip": "ym2612"
    },
    {
      "channel": 2,
      "note": 73,
      "start": 13.4016,
      "duration": 0.0269,
      "velocity": 95,
      "chip": "ym2612"
    },
    {
      "channel": 4,
      "note": 78,
      "start": 13.405,
      "duration": 0.0001,
      "velocity": 1,
      "chip": "ym2612"
    },
    {
      "channel": 3,
      "note": 73,
      "start": 13.4314,
      "duration": 0.0297,
      "velocity": 95,
      "chip": "ym2612"
    },
    {
      "channel": 0,
      "note": 42,
      "start": 13.4575,
      "duration": 0.0085,
      "velocity": 107,
      "chip": "ym2612"
    },
    {
      "channel": 2,
      "note": 78,
      "start": 13.4602,
      "duration": 0.0291,
      "velocity": 95,
      "chip": "ym2612"
    },
    {
      "channel": 4,
      "note": 78,
      "start": 13.4636,
      "duration": 0.0001,
      "velocity": 1,
      "chip": "ym2612"
    },
    {
      "channel": 0,
      "note": 45,
      "start": 13.4883,
      "duration": 0.0108,
      "velocity": 107,
      "chip": "ym2612"
    },
    {
      "channel": 2,
      "note": 78,
      "start": 13.491,
      "duration": 0.0337,
      "velocity": 95,
      "chip": "ym2612"
    },
    {
      "channel": 3,
      "note": 78,
      "start": 13.4937,
      "duration": 0.0337,
      "velocity": 95,
      "chip": "ym2612"
    },
    {
      "channel": 4,
      "note": 78,
      "start": 13.4965,
      "duration": 0.0001,
      "velocity": 1,
      "chip": "ym2612"
    },
    {
      "channel": 0,
      "note": 45,
      "start": 13.5237,
      "duration": 0.0122,
      "velocity": 107,
      "chip": "ym2612"
    },
    {
      "channel": 2,
      "note": 76,
      "start": 13.5264,
      "duration": 0.0388,
      "velocity": 95,
      "chip": "ym2612"
    },
    {
      "channel": 3,
      "note": 78,
      "start": 13.5291,
      "duration": 0.0388,
      "velocity": 95,
      "chip": "ym2612"
    },
    {
      "channel": 4,
      "note": 78,
      "start": 13.5319,
      "duration": 0.0001,
      "velocity": 1,
      "chip": "ym2612"
    },
    {
      "channel": 0,
      "note": 45,
      "start": 13.5616,
      "duration": 0.0148,
      "velocity": 107,
      "chip": "ym2612"
    },
    {
      "channel": 1,
      "note": 22,
      "start": 13.5643,
      "duration": 0.0345,
      "velocity": 125,
      "chip": "ym2612"
    },
    {
      "channel": 2,
      "note": 78,
      "start": 13.5669,
      "duration": 0.0324,
      "velocity": 95,
      "chip": "ym2612"
    },
    {
      "channel": 3,
      "note": 76,
      "start": 13.5697,
      "duration": 0.0308,
      "velocity": 95,
      "chip": "ym2612"
    },
    {
      "channel": 4,
      "note": 78,
      "start": 13.5724,
      "duration": 0.0001,
      "velocity": 1,
      "chip": "ym2612"
    },
    {
      "channel": 3,
      "note": 78,
      "start": 13.6022,
      "duration": 0.0324,
      "velocity": 95,
      "chip": "ym2612"
    },
    {
      "channel": 0,
      "note": 40,
      "start": 13.6284,
      "duration": 0.0127,
      "velocity": 107,
      "chip": "ym2612"
    },
    {
      "channel": 1,
      "note": 22,
      "start": 13.6311,
      "duration": 0.0366,
      "velocity": 125,
      "chip": "ym2612"
    },
    {
      "channel": 2,
      "note": 81,
      "start": 13.6337,
      "duration": 0.0367,
      "velocity": 95,
      "chip": "ym2612"
    },
    {
      "channel": 4,
      "note": 66,
      "start": 13.6371,
      "duration": 0.0001,
      "velocity": 1,
      "chip": "ym2612"
    },
    {
      "channel": 0,
      "note": 40,
      "start": 13.6668,
      "duration": 0.0147,
      "velocity": 107,
      "chip": "ym2612"
    },
    {
      "channel": 1,
      "note": 28,
      "start": 13.6694,
      "duration": 0.0401,
      "velocity": 125,
      "chip": "ym2612"
    },
    {
      "channel": 2,
      "note": 78,
      "start": 13.6721,
      "duration": 0.038,
      "velocity": 95,
      "chip": "ym2612"
    },
    {
      "channel": 3,
      "note": 81,
      "start": 13.6748,
      "duration": 0.0379,
      "velocity": 95,
      "chip": "ym2612"
    },
    {
      "channel": 4,
      "note": 66,
      "start": 13.6776,
      "duration": 0.0001,
      "velocity": 1,
      "chip": "ym2612"
    },
    {
      "channel": 0,
      "note": 40,
      "start": 13.7084,
      "duration": 0.0107,
      "velocity": 107,
      "chip": "ym2612"
    },
    {
      "channel": 2,
      "note": 76,
      "start": 13.7118,
      "duration": 0.0276,
      "velocity": 95,
      "chip": "ym2612"
    },
    {
      "channel": 4,
      "note": 78,
      "start": 13.7151,
      "duration": 0.0001,
      "velocity": 1,
      "chip": "ym2612"
    },
    {
      "channel": 3,
      "note": 78,
      "start": 13.7423,
      "duration": 0.0288,
      "velocity": 95,
      "chip": "ym2612"
    },
    {
      "channel": 0,
      "note": 42,
      "start": 13.7673,
      "duration": 0.0087,
      "velocity": 107,
      "chip": "ym2612"
    },
    {
      "channel": 2,
      "note": 78,
      "start": 13.7701,
      "duration": 0.029,
      "velocity": 95,
      "chip": "ym2612"
    },
    {
      "channel": 4,
      "note": 78,
      "start": 13.7735,
      "duration": 0.0001,
      "velocity": 1,
      "chip": "ym2612"
    },
    {
      "channel": 3,
      "note": 78,
      "start": 13.8021,
      "duration": 0.0335,
      "velocity": 95,
      "chip": "ym2612"
    },
    {
      "channel": 0,
      "note": 42,
      "start": 13.8293,
      "duration": 0.0127,
      "velocity": 107,
      "chip": "ym2612"
    },
    {
      "channel": 1,
      "note": 22,
      "start": 13.832,
      "duration": 0.0362,
      "velocity": 125,
      "chip": "ym2612"
    },
    {
      "channel": 2,
      "note": 76,
      "start": 13.8346,
      "duration": 0.0342,
      "velocity": 95,
      "chip": "ym2612"
    },
    {
      "channel": 4,
      "note": 78,
      "start": 13.838,
      "duration": 0.0001,
      "velocity": 1,
      "chip": "ym2612"
    },
    {
      "channel": 0,
      "note": 42,
      "start": 13.8671,
      "duration": 0.0114,
      "velocity": 107,
      "chip": "ym2612"
    },
    {
      "channel": 2,
      "note": 78,
      "start": 13.8704,
      "duration": 0.0286,
      "velocity": 95,
      "chip": "ym2612"
    },
    {
      "channel": 3,
      "note": 76,
      "start": 13.8732,
      "duration": 0.0265,
      "velocity": 95,
      "chip": "ym2612"
    },
    {
      "channel": 4,
      "note": 78,
      "start": 13.876,
      "duration": 0.0001,
      "velocity": 1,
      "chip": "ym2612"
    },
    {
      "channel": 3,
      "note": 78,
      "start": 13.9019,
      "duration": 0.0304,
      "velocity": 95,
      "chip": "ym2612"
    },
    {
      "channel": 0,
      "note": 42,
      "start": 13.9285,
      "duration": 0.0088,
      "velocity": 107,
      "chip": "ym2612"
    },
    {
      "channel": 2,
      "note": 73,
      "start": 13.9313,
      "duration": 0.0269,
      "velocity": 95,
      "chip": "ym2612"
    },
    {
      "channel": 4,
      "note": 78,
      "start": 13.9347,
      "duration": 0.0001,
      "velocity": 1,
      "chip": "ym2612"
    },
    {
      "channel": 3,
      "note": 73,
      "start": 13.9611,
      "duration": 0.0297,
      "velocity": 95,
      "chip": "ym2612"
    },
    {
      "channel": 0,
      "note": 42,
      "start": 13.9871,
      "duration": 0.0085,
      "velocity": 107,
      "chip": "ym2612"
    },
    {
      "channel": 2,
      "note": 78,
      "start": 13.9898,
      "duration": 0.0291,
      "velocity": 95,
      "chip": "ym2612"
    },
    {
      "channel": 4,
      "note": 78,
      "start": 13.9932,
      "duration": 0.0001,
      "velocity": 1,
      "chip": "ym2612"
    },
    {
      "channel": 0,
      "note": 42,
      "start": 14.0179,
      "duration": 0.0107,
      "velocity": 107,
      "chip": "ym2612"
    },
    {
      "channel": 2,
      "note": 78,
      "start": 14.0206,
      "duration": 0.0338,
      "velocity": 95,
      "chip": "ym2612"
    },
    {
      "channel": 3,
      "note": 78,
      "start": 14.0233,
      "duration": 0.0337,
      "velocity": 95,
      "chip": "ym2612"
    },
    {
      "channel": 4,
      "note": 78,
      "start": 14.0261,
      "duration": 0.0001,
      "velocity": 1,
      "chip": "ym2612"
    },
    {
      "channel": 0,
      "note": 42,
      "start": 14.0534,
      "duration": 0.0122,
      "velocity": 107,
      "chip": "ym2612"
    },
    {
      "channel": 2,
      "note": 76,
      "start": 14.0561,
      "duration": 0.0388,
      "velocity": 95,
      "chip": "ym2612"
    },
    {
      "channel": 3,
      "note": 78,
      "start": 14.0588,
      "duration": 0.0387,
      "velocity": 95,
      "chip": "ym2612"
    },
    {
      "channel": 4,
      "note": 78,
      "start": 14.0616,
      "duration": 0.0001,
      "velocity": 1,
      "chip": "ym2612"
    },
    {
      "channel": 0,
      "note": 42,
      "start": 14.0912,
      "duration": 0.0148,
      "velocity": 107,
      "chip": "ym2612"
    },
    {
      "channel": 1,
      "note": 22,
      "start": 14.0939,
      "duration": 0.0345,
      "velocity": 125,
      "chip": "ym2612"
    },
    {
      "channel": 2,
      "note": 78,
      "start": 14.0965,
      "duration": 0.0324,
      "velocity": 95,
      "chip": "ym2612"
    },
    {
      "channel": 3,
      "note": 76,
      "start": 14.0993,
      "duration": 0.0308,
      "velocity": 95,
      "chip": "ym2612"
    },
    {
      "channel": 4,
      "note": 78,
      "start": 14.102,
      "duration": 0.0001,
      "velocity": 1,
      "chip": "ym2612"
    },
    {
      "channel": 3,
      "note": 78,
      "start": 14.1318,
      "duration": 0.0301,
      "velocity": 95,
      "chip": "ym2612"
    },
    {
      "channel": 0,
      "note": 42,
      "start": 14.1582,
      "duration": 0.0101,
      "velocity": 107,
      "chip": "ym2612"
    },
    {
      "channel": 2,
      "note": 71,
      "start": 14.161,
      "duration": 0.0337,
      "velocity": 95,
      "chip": "ym2612"
    },
    {
      "channel": 4,
      "note": 78,
      "start": 14.1644,
      "duration": 0.0001,
      "velocity": 1,
      "chip": "ym2612"
    },
    {
      "channel": 0,
      "note": 40,
      "start": 14.1935,
      "duration": 0.0123,
      "velocity": 107,
      "chip": "ym2612"
    },
    {
      "channel": 2,
      "note": 71,
      "start": 14.1963,
      "duration": 0.0359,
      "velocity": 95,
      "chip": "ym2612"
    },
    {
      "channel": 3,
      "note": 71,
      "start": 14.1991,
      "duration": 0.0359,
      "velocity": 95,
      "chip": "ym2612"
    },
    {
      "channel": 4,
      "note": 78,
      "start": 14.2018,
      "duration": 0.0001,
      "velocity": 1,
      "chip": "ym2612"
    },
    {
      "channel": 0,
      "note": 40,
      "start": 14.2312,
      "duration": 0.0122,
      "velocity": 107,
      "chip": "ym2612"
    },
    {
      "channel": 2,
      "note": 73,
      "start": 14.2339,
      "duration": 0.0289,
      "velocity": 95,
      "chip": "ym2612"
    },
    {
      "channel": 3,
      "note": 71,
      "start": 14.2367,
      "duration": 0.0268,
      "velocity": 95,
      "chip": "ym2612"
    },
    {
      "channel": 4,
      "note": 78,
      "start": 14.2395,
      "duration": 0.0001,
      "velocity": 1,
      "chip": "ym2612"
    },
    {
      "channel": 3,
      "note": 73,
      "start": 14.2657,
      "duration": 0.028,
      "velocity": 95,
      "chip": "ym2612"
    },
    {
      "channel": 0,
      "note": 42,
      "start": 14.2901,
      "duration": 0.0086,
      "velocity": 107,
      "chip": "ym2612"
    },
    {
      "channel": 2,
      "note": 78,
      "start": 14.2928,
      "duration": 0.026,
      "velocity": 95,
      "chip": "ym2612"
    },
    {
      "channel": 4,
      "note": 78,
      "start": 14.2962,
      "duration": 0.0001,
      "velocity": 1,
      "chip": "ym2612"
    },
    {
      "channel": 3,
      "note": 78,
      "start": 14.3217,
      "duration": 0.0334,
      "velocity": 95,
      "chip": "ym2612"
    },
    {
      "channel": 0,
      "note": 42,
      "start": 14.349,
      "duration": 0.0127,
      "velocity": 107,
      "chip": "ym2612"
    },
    {
      "channel": 1,
      "note": 22,
      "start": 14.3516,
      "duration": 0.0363,
      "velocity": 125,
      "chip": "ym2612"
    },
    {
      "channel": 2,
      "note": 76,
      "start": 14.3543,
      "duration": 0.0342,
      "velocity": 95,
      "chip": "ym2612"
    },
    {
      "channel": 4,
      "note": 78,
      "start": 14.3576,
      "duration": 0.0001,
      "velocity": 1,
      "chip": "ym2612"
    },
    {
      "channel": 0,
      "note": 42,
      "start": 14.3868,
      "duration": 0.0114,
      "velocity": 107,
      "chip": "ym2612"
    },
    {
      "channel": 2,
      "note": 78,
      "start": 14.3902,
      "duration": 0.0286,
      "velocity": 95,
      "chip": "ym2612"
    },
    {
      "channel": 3,
      "note": 76,
      "start": 14.3929,
      "duration": 0.0265,
      "velocity": 95,
      "chip": "ym2612"
    },
    {
      "channel": 4,
      "note": 78,
      "start": 14.3957,
      "duration": 0.0001,
      "velocity": 1,
      "chip": "ym2612"
    },
    {
      "channel": 3,
      "note": 78,
      "start": 14.4216,
      "duration": 0.0303,
      "velocity": 95,
      "chip": "ym2612"
    },
    {
      "channel": 0,
      "note": 42,
      "start": 14.4482,
      "duration": 0.0087,
      "velocity": 107,
      "chip": "ym2612"
    },
    {
      "channel": 2,
      "note": 73,
      "start": 14.451,
      "duration": 0.0269,
      "velocity": 95,
      "chip": "ym2612"
    },
    {
      "channel": 4,
      "note": 78,
      "start": 14.4544,
      "duration": 0.0001,
      "velocity": 1,
      "chip": "ym2612"
    },
    {
      "channel": 3,
      "note": 73,
      "start": 14.4808,
      "duration": 0.0297,
      "velocity": 95,
      "chip": "ym2612"
    },
    {
      "channel": 0,
      "note": 42,
      "start": 14.5068,
      "duration": 0.0085,
      "velocity": 107,
      "chip": "ym2612"
    },
    {
      "channel": 2,
      "note": 78,
      "start": 14.5095,
      "duration": 0.0291,
      "velocity": 95,
      "chip": "ym2612"
    },
    {
      "channel": 4,
      "note": 78,
      "start": 14.5129,
      "duration": 0.0001,
      "velocity": 1,
      "chip": "ym2612"
    },
    {
      "channel": 0,
      "note": 42,
      "start": 14.5376,
      "duration": 0.0107,
      "velocity": 107,
      "chip": "ym2612"
    },
    {
      "channel": 2,
      "note": 78,
      "start": 14.5403,
      "duration": 0.0339,
      "velocity": 95,
      "chip": "ym2612"
    },
    {
      "channel": 3,
      "note": 78,
      "start": 14.5431,
      "duration": 0.0338,
      "velocity": 95,
      "chip": "ym2612"
    },
    {
      "channel": 4,
      "note": 78,
      "start": 14.5458,
      "duration": 0.0001,
      "velocity": 1,
      "chip": "ym2612"
    },
    {
      "channel": 0,
      "note": 45,
      "start": 14.5732,
      "duration": 0.0122,
      "velocity": 107,
      "chip": "ym2612"
    },
    {
      "channel": 2,
      "note": 76,
      "start": 14.5759,
      "duration": 0.0387,
      "velocity": 95,
      "chip": "ym2612"
    },
    {
      "channel": 3,
      "note": 78,
      "start": 14.5786,
      "duration": 0.0386,
      "velocity": 95,
      "chip": "ym2612"
    },
    {
      "channel": 4,
      "note": 78,
      "start": 14.5814,
      "duration": 0.0001,
      "velocity": 1,
      "chip": "ym2612"
    },
    {
      "channel": 0,
      "note": 45,
      "start": 14.611,
      "duration": 0.0148,
      "velocity": 107,
      "chip": "ym2612"
    },
    {
      "channel": 1,
      "note": 22,
      "start": 14.6136,
      "duration": 0.0345,
      "velocity": 125,
      "chip": "ym2612"
    },
    {
      "channel": 2,
      "note": 78,
      "start": 14.6163,
      "duration": 0.0324,
      "velocity": 95,
      "chip": "ym2612"
    },
    {
      "channel": 3,
      "note": 76,
      "start": 14.619,
      "duration": 0.0308,
      "velocity": 95,
      "chip": "ym2612"
    },
    {
      "channel": 4,
      "note": 78,
      "start": 14.6218,
      "duration": 0.0001,
      "velocity": 1,
      "chip": "ym2612"
    },
    {
      "channel": 3,
      "note": 78,
      "start": 14.6516,
      "duration": 0.0301,
      "velocity": 95,
      "chip": "ym2612"
    },
    {
      "channel": 0,
      "note": 45,
      "start": 14.6779,
      "duration": 0.0102,
      "velocity": 107,
      "chip": "ym2612"
    },
    {
      "channel": 2,
      "note": 69,
      "start": 14.6807,
      "duration": 0.0362,
      "velocity": 95,
      "chip": "ym2612"
    },
    {
      "channel": 4,
      "note": 66,
      "start": 14.6841,
      "duration": 0.0001,
      "velocity": 1,
      "chip": "ym2612"
    },
    {
      "channel": 0,
      "note": 40,
      "start": 14.7133,
      "duration": 0.0148,
      "velocity": 107,
      "chip": "ym2612"
    },
    {
      "channel": 1,
      "note": 22,
      "start": 14.7159,
      "duration": 0.0385,
      "velocity": 125,
      "chip": "ym2612"
    },
    {
      "channel": 2,
      "note": 69,
      "start": 14.7186,
      "duration": 0.0365,
      "velocity": 95,
      "chip": "ym2612"
    },
    {
      "channel": 3,
      "note": 69,
      "start": 14.7213,
      "duration": 0.0364,
      "velocity": 95,
      "chip": "ym2612"
    },
    {
      "channel": 4,
      "note": 66,
      "start": 14.7241,
      "duration": 0.0001,
      "velocity": 1,
      "chip": "ym2612"
    },
    {
      "channel": 0,
      "note": 40,
      "start": 14.7534,
      "duration": 0.0128,
      "velocity": 107,
      "chip": "ym2612"
    },
    {
      "channel": 2,
      "note": 71,
      "start": 14.7568,
      "duration": 0.0297,
      "velocity": 95,
      "chip": "ym2612"
    },
    {
      "channel": 3,
      "note": 69,
      "start": 14.7595,
      "duration": 0.0276,
      "velocity": 95,
      "chip": "ym2612"
    },
    {
      "channel": 4,
      "note": 78,
      "start": 14.7623,
      "duration": 0.0001,
      "velocity": 1,
      "chip": "ym2612"
    },
    {
      "channel": 3,
      "note": 71,
      "start": 14.7894,
      "duration": 0.0288,
      "velocity": 95,
      "chip": "ym2612"
    },
    {
      "channel": 0,
      "note": 42,
      "start": 14.8144,
      "duration": 0.0087,
      "velocity": 107,
      "chip": "ym2612"
    },
    {
      "channel": 2,
      "note": 78,
      "start": 14.8172,
      "duration": 0.0265,
      "velocity": 95,
      "chip": "ym2612"
    },
    {
      "channel": 4,
      "note": 78,
      "start": 14.8206,
      "duration": 0.0001,
      "velocity": 1,
      "chip": "ym2612"
    },
    {
      "channel": 3,
      "note": 78,
      "start": 14.8466,
      "duration": 0.0335,
      "velocity": 95,
      "chip": "ym2612"
    },
    {
      "channel": 0,
      "note": 42,
      "start": 14.8739,
      "duration": 0.0127,
      "velocity": 107,
      "chip": "ym2612"
    },
    {
      "channel": 1,
      "note": 22,
      "start": 14.8766,
      "duration": 0.0363,
      "velocity": 125,
      "chip": "ym2612"
    },
    {
      "channel": 2,
      "note": 76,
      "start": 14.8792,
      "duration": 0.0342,
      "velocity": 95,
      "chip": "ym2612"
    },
    {
      "channel": 4,
      "note": 78,
      "start": 14.8826,
      "duration": 0.0001,
      "velocity": 1,
      "chip": "ym2612"
    },
    {
      "channel": 0,
      "note": 42,
      "start": 14.9117,
      "duration": 0.0114,
      "velocity": 107,
      "chip": "ym2612"
    },
    {
      "channel": 2,
      "note": 78,
      "start": 14.9151,
      "duration": 0.0286,
      "velocity": 95,
      "chip": "ym2612"
    },
    {
      "channel": 3,
      "note": 76,
      "start": 14.9178,
      "duration": 0.0265,
      "velocity": 95,
      "chip": "ym2612"
    },
    {
      "channel": 4,
      "note": 78,
      "start": 14.9206,
      "duration": 0.0001,
      "velocity": 1,
      "chip": "ym2612"
    },
    {
      "channel": 3,
      "note": 78,
      "start": 14.9466,
      "duration": 0.0304,
      "velocity": 95,
      "chip": "ym2612"
    },
    {
      "channel": 0,
      "note": 42,
      "start": 14.9732,
      "duration": 0.0087,
      "velocity": 107,
      "chip": "ym2612"
    },
    {
      "channel": 2,
      "note": 73,
      "start": 14.976,
      "duration": 0.0269,
      "velocity": 95,
      "chip": "ym2612"
    },
    {
      "channel": 4,
      "note": 78,
      "start": 14.9794,
      "duration": 0.0001,
      "velocity": 1,
      "chip": "ym2612"
    },
    {
      "channel": 3,
      "note": 73,
      "start": 15.0058,
      "duration": 0.0296,
      "velocity": 95,
      "chip": "ym2612"
    },
    {
      "channel": 0,
      "note": 42,
      "start": 15.0318,
      "duration": 0.0085,
      "velocity": 107,
      "chip": "ym2612"
    },
    {
      "channel": 2,
      "note": 78,
      "start": 15.0345,
      "duration": 0.029,
      "velocity": 95,
      "chip": "ym2612"
    },
    {
      "channel": 4,
      "note": 78,
      "start": 15.0379,
      "duration": 0.0001,
      "velocity": 1,
      "chip": "ym2612"
    },
    {
      "channel": 0,
      "note": 42,
      "start": 15.0625,
      "duration": 0.0108,
      "velocity": 107,
      "chip": "ym2612"
    },
    {
      "channel": 2,
      "note": 78,
      "start": 15.0652,
      "duration": 0.0338,
      "velocity": 95,
      "chip": "ym2612"
    },
    {
      "channel": 3,
      "note": 78,
      "start": 15.0679,
      "duration": 0.0337,
      "velocity": 95,
      "chip": "ym2612"
    },
    {
      "channel": 4,
      "note": 78,
      "start": 15.0707,
      "duration": 0.0001,
      "velocity": 1,
      "chip": "ym2612"
    },
    {
      "channel": 0,
      "note": 42,
      "start": 15.098,
      "duration": 0.0122,
      "velocity": 107,
      "chip": "ym2612"
    },
    {
      "channel": 2,
      "note": 76,
      "start": 15.1007,
      "duration": 0.0388,
      "velocity": 95,
      "chip": "ym2612"
    },
    {
      "channel": 3,
      "note": 78,
      "start": 15.1034,
      "duration": 0.0387,
      "velocity": 95,
      "chip": "ym2612"
    },
    {
      "channel": 4,
      "note": 78,
      "start": 15.1062,
      "duration": 0.0001,
      "velocity": 1,
      "chip": "ym2612"
    },
    {
      "channel": 0,
      "note": 42,
      "start": 15.1358,
      "duration": 0.0148,
      "velocity": 107,
      "chip": "ym2612"
    },
    {
      "channel": 1,
      "note": 22,
      "start": 15.1385,
      "duration": 0.0346,
      "velocity": 125,
      "chip": "ym2612"
    },
    {
      "channel": 2,
      "note": 78,
      "start": 15.1411,
      "duration": 0.0324,
      "velocity": 95,
      "chip": "ym2612"
    },
    {
      "channel": 3,
      "note": 76,
      "start": 15.1439,
      "duration": 0.0309,
      "velocity": 95,
      "chip": "ym2612"
    },
    {
      "channel": 4,
      "note": 78,
      "start": 15.1466,
      "duration": 0.0001,
      "velocity": 1,
      "chip": "ym2612"
    },
    {
      "channel": 3,
      "note": 78,
      "start": 15.1765,
      "duration": 0.0301,
      "velocity": 95,
      "chip": "ym2612"
    },
    {
      "channel": 0,
      "note": 42,
      "start": 15.2028,
      "duration": 0.0102,
      "velocity": 107,
      "chip": "ym2612"
    },
    {
      "channel": 2,
      "note": 71,
      "start": 15.2056,
      "duration": 0.0336,
      "velocity": 95,
      "chip": "ym2612"
    },
    {
      "channel": 4,
      "note": 78,
      "start": 15.209,
      "duration": 0.0001,
      "velocity": 1,
      "chip": "ym2612"
    },
    {
      "channel": 0,
      "note": 40,
      "start": 15.238,
      "duration": 0.0123,
      "velocity": 107,
      "chip": "ym2612"
    },
    {
      "channel": 2,
      "note": 71,
      "start": 15.2408,
      "duration": 0.0359,
      "velocity": 95,
      "chip": "ym2612"
    },
    {
      "channel": 3,
      "note": 71,
      "start": 15.2436,
      "duration": 0.0359,
      "velocity": 95,
      "chip": "ym2612"
    },
    {
      "channel": 4,
      "note": 78,
      "start": 15.2464,
      "duration": 0.0001,
      "velocity": 1,
      "chip": "ym2612"
    },
    {
      "channel": 0,
      "note": 40,
      "start": 15.2758,
      "duration": 0.0122,
      "velocity": 107,
      "chip": "ym2612"
    },
    {
      "channel": 2,
      "note": 73,
      "start": 15.2785,
      "duration": 0.0289,
      "velocity": 95,
      "chip": "ym2612"
    },
    {
      "channel": 3,
      "note": 71,
      "start": 15.2812,
      "duration": 0.0268,
      "velocity": 95,
      "chip": "ym2612"
    },
    {
      "channel": 4,
      "note": 78,
      "start": 15.284,
      "duration": 0.0001,
      "velocity": 1,
      "chip": "ym2612"
    },
    {
      "channel": 3,
      "note": 73,
      "start": 15.3102,
      "duration": 0.028,
      "velocity": 95,
      "chip": "ym2612"
    },
    {
      "channel": 0,
      "note": 42,
      "start": 15.3346,
      "duration": 0.0086,
      "velocity": 107,
      "chip": "ym2612"
    },
    {
      "channel": 2,
      "note": 78,
      "start": 15.3373,
      "duration": 0.0261,
      "velocity": 95,
      "chip": "ym2612"
    },
    {
      "channel": 4,
      "note": 78,
      "start": 15.3407,
      "duration": 0.0001,
      "velocity": 1,
      "chip": "ym2612"
    },
    {
      "channel": 3,
      "note": 78,
      "start": 15.3663,
      "duration": 0.0335,
      "velocity": 95,
      "chip": "ym2612"
    },
    {
      "channel": 0,
      "note": 42,
      "start": 15.3935,
      "duration": 0.0127,
      "velocity": 107,
      "chip": "ym2612"
    },
    {
      "channel": 1,
      "note": 22,
      "start": 15.3962,
      "duration": 0.0362,
      "velocity": 125,
      "chip": "ym2612"
    },
    {
      "channel": 2,
      "note": 76,
      "start": 15.3988,
      "duration": 0.0341,
      "velocity": 95,
      "chip": "ym2612"
    },
    {
      "channel": 4,
      "note": 78,
      "start": 15.4022,
      "duration": 0.0001,
      "velocity": 1,
      "chip": "ym2612"
    },
    {
      "channel": 0,
      "note": 42,
      "start": 15.4312,
      "duration": 0.0114,
      "velocity": 107,
      "chip": "ym2612"
    },
    {
      "channel": 2,
      "note": 78,
      "start": 15.4346,
      "duration": 0.0286,
      "velocity": 95,
      "chip": "ym2612"
    },
    {
      "channel": 3,
      "note": 76,
      "start": 15.4374,
      "duration": 0.0265,
      "velocity": 95,
      "chip": "ym2612"
    },
    {
      "channel": 4,
      "note": 78,
      "start": 15.4402,
      "duration": 0.0001,
      "velocity": 1,
      "chip": "ym2612"
    },
    {
      "channel": 3,
      "note": 78,
      "start": 15.4661,
      "duration": 0.0303,
      "velocity": 95,
      "chip": "ym2612"
    },
    {
      "channel": 0,
      "note": 42,
      "start": 15.4927,
      "duration": 0.0088,
      "velocity": 107,
      "chip": "ym2612"
    },
    {
      "channel": 2,
      "note": 73,
      "start": 15.4955,
      "duration": 0.0269,
      "velocity": 95,
      "chip": "ym2612"
    },
    {
      "channel": 4,
      "note": 78,
      "start": 15.4989,
      "duration": 0.0001,
      "velocity": 1,
      "chip": "ym2612"
    },
    {
      "channel": 3,
      "note": 73,
      "start": 15.5253,
      "duration": 0.0296,
      "velocity": 95,
      "chip": "ym2612"
    },
    {
      "channel": 0,
      "note": 42,
      "start": 15.5513,
      "duration": 0.0086,
      "velocity": 107,
      "chip": "ym2612"
    },
    {
      "channel": 2,
      "note": 78,
      "start": 15.554,
      "duration": 0.0292,
      "velocity": 95,
      "chip": "ym2612"
    },
    {
      "channel": 4,
      "note": 78,
      "start": 15.5574,
      "duration": 0.0001,
      "velocity": 1,
      "chip": "ym2612"
    },
    {
      "channel": 0,
      "note": 45,
      "start": 15.5821,
      "duration": 0.0107,
      "velocity": 107,
      "chip": "ym2612"
    },
    {
      "channel": 2,
      "note": 78,
      "start": 15.5848,
      "duration": 0.0338,
      "velocity": 95,
      "chip": "ym2612"
    },
    {
      "channel": 3,
      "note": 78,
      "start": 15.5876,
      "duration": 0.0337,
      "velocity": 95,
      "chip": "ym2612"
    },
    {
      "channel": 4,
      "note": 78,
      "start": 15.5904,
      "duration": 0.0001,
      "velocity": 1,
      "chip": "ym2612"
    },
    {
      "channel": 0,
      "note": 45,
      "start": 15.6176,
      "duration": 0.0122,
      "velocity": 107,
      "chip": "ym2612"
    },
    {
      "channel": 2,
      "note": 76,
      "start": 15.6203,
      "duration": 0.0387,
      "velocity": 95,
      "chip": "ym2612"
    },
    {
      "channel": 3,
      "note": 78,
      "start": 15.623,
      "duration": 0.0387,
      "velocity": 95,
      "chip": "ym2612"
    },
    {
      "channel": 4,
      "note": 78,
      "start": 15.6258,
      "duration": 0.0001,
      "velocity": 1,
      "chip": "ym2612"
    },
    {
      "channel": 0,
      "note": 45,
      "start": 15.6554,
      "duration": 0.0148,
      "velocity": 107,
      "chip": "ym2612"
    },
    {
      "channel": 1,
      "note": 22,
      "start": 15.6581,
      "duration": 0.0345,
      "velocity": 125,
      "chip": "ym2612"
    },
    {
      "channel": 2,
      "note": 78,
      "start": 15.6607,
      "duration": 0.0324,
      "velocity": 95,
      "chip": "ym2612"
    },
    {
      "channel": 3,
      "note": 76,
      "start": 15.6634,
      "duration": 0.0308,
      "velocity": 95,
      "chip": "ym2612"
    },
    {
      "channel": 4,
      "note": 78,
      "start": 15.6662,
      "duration": 0.0001,
      "velocity": 1,
      "chip": "ym2612"
    },
    {
      "channel": 3,
      "note": 78,
      "start": 15.696,
      "duration": 0.0324,
      "velocity": 95,
      "chip": "ym2612"
    },
    {
      "channel": 0,
      "note": 40,
      "start": 15.7222,
      "duration": 0.0127,
      "velocity": 107,
      "chip": "ym2612"
    },
    {
      "channel": 1,
      "note": 22,
      "start": 15.7248,
      "duration": 0.0366,
      "velocity": 125,
      "chip": "ym2612"
    },
    {
      "channel": 2,
      "note": 81,
      "start": 15.7274,
      "duration": 0.0366,
      "velocity": 95,
      "chip": "ym2612"
    },
    {
      "channel": 4,
      "note": 66,
      "start": 15.7308,
      "duration": 0.0001,
      "velocity": 1,
      "chip": "ym2612"
    },
    {
      "channel": 0,
      "note": 40,
      "start": 15.7604,
      "duration": 0.0147,
      "velocity": 107,
      "chip": "ym2612"
    },
    {
      "channel": 1,
      "note": 28,
      "start": 15.7631,
      "duration": 0.04,
      "velocity": 125,
      "chip": "ym2612"
    },
    {
      "channel": 2,
      "note": 78,
      "start": 15.7657,
      "duration": 0.038,
      "velocity": 95,
      "chip": "ym2612"
    },
    {
      "channel": 3,
      "note": 81,
      "start": 15.7685,
      "duration": 0.0378,
      "velocity": 95,
      "chip": "ym2612"
    },
    {
      "channel": 4,
      "note": 66,
      "start": 15.7712,
      "duration": 0.0001,
      "velocity": 1,
      "chip": "ym2612"
    },
    {
      "channel": 0,
      "note": 40,
      "start": 15.802,
      "duration": 0.0107,
      "velocity": 107,
      "chip": "ym2612"
    },
    {
      "channel": 2,
      "note": 76,
      "start": 15.8054,
      "duration": 0.2361,
      "velocity": 106,
      "chip": "ym2612"
    },
    {
      "channel": 4,
      "note": 78,
      "start": 15.8087,
      "duration": 0.0001,
      "velocity": 1,
      "chip": "ym2612"
    },
    {
      "channel": 0,
      "note": 42,
      "start": 15.8583,
      "duration": 0.0086,
      "velocity": 107,
      "chip": "ym2612"
    },
    {
      "channel": 3,
      "note": 78,
      "start": 15.8617,
      "duration": 0.2319,
      "velocity": 106,
      "chip": "ym2612"
    },
    {
      "channel": 4,
      "note": 78,
      "start": 15.8645,
      "duration": 0.0001,
      "velocity": 1,
      "chip": "ym2612"
    },
    {
      "channel": 0,
      "note": 42,
      "start": 15.8916,
      "duration": 0.0053,
      "velocity": 107,
      "chip": "ym2612"
    },
    {
      "channel": 0,
      "note": 42,
      "start": 15.9198,
      "duration": 0.0104,
      "velocity": 107,
      "chip": "ym2612"
    },
    {
      "channel": 1,
      "note": 22,
      "start": 15.9225,
      "duration": 0.0328,
      "velocity": 125,
      "chip": "ym2612"
    },
    {
      "channel": 4,
      "note": 78,
      "start": 15.9263,
      "duration": 0.0001,
      "velocity": 1,
      "chip": "ym2612"
    },
    {
      "channel": 0,
      "note": 54,
      "start": 15.9542,
      "duration": 0.0045,
      "velocity": 107,
      "chip": "ym2612"
    },
    {
      "channel": 0,
      "note": 42,
      "start": 15.9816,
      "duration": 0.0079,
      "velocity": 107,
      "chip": "ym2612"
    },
    {
      "channel": 4,
      "note": 78,
      "start": 15.9856,
      "duration": 0.0001,
      "velocity": 1,
      "chip": "ym2612"
    },
    {
      "channel": 0,
      "note": 42,
      "start": 16.0117,
      "duration": 0.0063,
      "velocity": 107,
      "chip": "ym2612"
    },
    {
      "channel": 4,
      "note": 78,
      "start": 16.0155,
      "duration": 0.0001,
      "velocity": 1,
      "chip": "ym2612"
    },
    {
      "channel": 0,
      "note": 54,
      "start": 16.0405,
      "duration": 0.0055,
      "velocity": 107,
      "chip": "ym2612"
    },
    {
      "channel": 4,
      "note": 78,
      "start": 16.0685,
      "duration": 0.0001,
      "velocity": 1,
      "chip": "ym2612"
    },
    {
      "channel": 0,
      "note": 42,
      "start": 16.0922,
      "duration": 0.0063,
      "velocity": 107,
      "chip": "ym2612"
    },
    {
      "channel": 4,
      "note": 78,
      "start": 16.096,
      "duration": 0.0001,
      "velocity": 1,
      "chip": "ym2612"
    },
    {
      "channel": 0,
      "note": 42,
      "start": 16.1224,
      "duration": 0.0076,
      "velocity": 107,
      "chip": "ym2612"
    },
    {
      "channel": 4,
      "note": 78,
      "start": 16.1261,
      "duration": 0.0001,
      "velocity": 1,
      "chip": "ym2612"
    },
    {
      "channel": 0,
      "note": 42,
      "start": 16.1542,
      "duration": 0.0124,
      "velocity": 107,
      "chip": "ym2612"
    },
    {
      "channel": 1,
      "note": 22,
      "start": 16.1569,
      "duration": 0.0349,
      "velocity": 125,
      "chip": "ym2612"
    },
    {
      "channel": 2,
      "note": 78,
      "start": 16.1595,
      "duration": 0.1268,
      "velocity": 106,
      "chip": "ym2612"
    },
    {
      "channel": 4,
      "note": 78,
      "start": 16.1627,
      "duration": 0.0001,
      "velocity": 1,
      "chip": "ym2612"
    },
    {
      "channel": 0,
      "note": 54,
      "start": 16.1907,
      "duration": 0.0046,
      "velocity": 107,
      "chip": "ym2612"
    },
    {
      "channel": 0,
      "note": 42,
      "start": 16.2187,
      "duration": 0.0102,
      "velocity": 107,
      "chip": "ym2612"
    },
    {
      "channel": 3,
      "note": 78,
      "start": 16.2221,
      "duration": 0.1185,
      "velocity": 106,
      "chip": "ym2612"
    },
    {
      "channel": 4,
      "note": 78,
      "start": 16.2249,
      "duration": 0.0001,
      "velocity": 1,
      "chip": "ym2612"
    },
    {
      "channel": 0,
      "note": 42,
      "start": 16.2537,
      "duration": 0.0077,
      "velocity": 107,
      "chip": "ym2612"
    },
    {
      "channel": 4,
      "note": 78,
      "start": 16.2574,
      "duration": 0.0001,
      "velocity": 1,
      "chip": "ym2612"
    },
    {
      "channel": 0,
      "note": 54,
      "start": 16.2853,
      "duration": 0.0099,
      "velocity": 107,
      "chip": "ym2612"
    },
    {
      "channel": 2,
      "note": 80,
      "start": 16.288,
      "duration": 0.1748,
      "velocity": 106,
      "chip": "ym2612"
    },
    {
      "channel": 4,
      "note": 73,
      "start": 16.2913,
      "duration": 0.0001,
      "velocity": 1,
      "chip": "ym2612"
    },
    {
      "channel": 0,
      "note": 37,
      "start": 16.3391,
      "duration": 0.0085,
      "velocity": 107,
      "chip": "ym2612"
    },
    {
      "channel": 3,
      "note": 80,
      "start": 16.3423,
      "duration": 0.1799,
      "velocity": 106,
      "chip": "ym2612"
    },
    {
      "channel": 4,
      "note": 73,
      "start": 16.3451,
      "duration": 0.0001,
      "velocity": 1,
      "chip": "ym2612"
    },
    {
      "channel": 0,
      "note": 37,
      "start": 16.369,
      "duration": 0.0053,
      "velocity": 107,
      "chip": "ym2612"
    },
    {
      "channel": 0,
      "note": 37,
      "start": 16.3973,
      "duration": 0.0104,
      "velocity": 107,
      "chip": "ym2612"
    },
    {
      "channel": 1,
      "note": 22,
      "start": 16.3999,
      "duration": 0.0332,
      "velocity": 125,
      "chip": "ym2612"
    },
    {
      "channel": 4,
      "note": 73,
      "start": 16.4037,
      "duration": 0.0001,
      "velocity": 1,
      "chip": "ym2612"
    },
    {
      "channel": 0,
      "note": 49,
      "start": 16.432,
      "duration": 0.0068,
      "velocity": 107,
      "chip": "ym2612"
    },
    {
      "channel": 4,
      "note": 73,
      "start": 16.4363,
      "duration": 0.0001,
      "velocity": 1,
      "chip": "ym2612"
    },
    {
      "channel": 0,
      "note": 37,
      "start": 16.4616,
      "duration": 0.0078,
      "velocity": 107,
      "chip": "ym2612"
    },
    {
      "channel": 2,
      "note": 77,
      "start": 16.4645,
      "duration": 0.176,
      "velocity": 106,
      "chip": "ym2612"
    },
    {
      "channel": 0,
      "note": 37,
      "start": 16.4916,
      "duration": 0.0064,
      "velocity": 107,
      "chip": "ym2612"
    },
    {
      "channel": 4,
      "note": 73,
      "start": 16.4954,
      "duration": 0.0001,
      "velocity": 1,
      "chip": "ym2612"
    },
    {
      "channel": 0,
      "note": 49,
      "start": 16.5208,
      "duration": 0.0076,
      "velocity": 107,
      "chip": "ym2612"
    },
    {
      "channel": 3,
      "note": 77,
      "start": 16.524,
      "duration": 0.1789,
      "velocity": 106,
      "chip": "ym2612"
    },
    {
      "channel": 4,
      "note": 73,
      "start": 16.5509,
      "duration": 0.0001,
      "velocity": 1,
      "chip": "ym2612"
    },
    {
      "channel": 0,
      "note": 37,
      "start": 16.5746,
      "duration": 0.0063,
      "velocity": 107,
      "chip": "ym2612"
    },
    {
      "channel": 4,
      "note": 73,
      "start": 16.5785,
      "duration": 0.0001,
      "velocity": 1,
      "chip": "ym2612"
    },
    {
      "channel": 0,
      "note": 37,
      "start": 16.6051,
      "duration": 0.0076,
      "velocity": 107,
      "chip": "ym2612"
    },
    {
      "channel": 4,
      "note": 73,
      "start": 16.6087,
      "duration": 0.0001,
      "velocity": 1,
      "chip": "ym2612"
    },
    {
      "channel": 0,
      "note": 37,
      "start": 16.6369,
      "duration": 0.0127,
      "velocity": 107,
      "chip": "ym2612"
    },
    {
      "channel": 1,
      "note": 22,
      "start": 16.6395,
      "duration": 0.0351,
      "velocity": 125,
      "chip": "ym2612"
    },
    {
      "channel": 2,
      "note": 74,
      "start": 16.6422,
      "duration": 0.1337,
      "velocity": 106,
      "chip": "ym2612"
    },
    {
      "channel": 4,
      "note": 73,
      "start": 16.6456,
      "duration": 0.0001,
      "velocity": 1,
      "chip": "ym2612"
    },
    {
      "channel": 0,
      "note": 49,
      "start": 16.6735,
      "duration": 0.0043,
      "velocity": 107,
      "chip": "ym2612"
    },
    {
      "channel": 0,
      "note": 37,
      "start": 16.7013,
      "duration": 0.01,
      "velocity": 107,
      "chip": "ym2612"
    },
    {
      "channel": 3,
      "note": 74,
      "start": 16.7046,
      "duration": 0.127,
      "velocity": 106,
      "chip": "ym2612"
    },
    {
      "channel": 4,
      "note": 73,
      "start": 16.7074,
      "duration": 0.0001,
      "velocity": 1,
      "chip": "ym2612"
    },
    {
      "channel": 0,
      "note": 37,
      "start": 16.7364,
      "duration": 0.0102,
      "velocity": 107,
      "chip": "ym2612"
    },
    {
      "channel": 1,
      "note": 22,
      "start": 16.7391,
      "duration": 0.0362,
      "velocity": 125,
      "chip": "ym2612"
    },
    {
      "channel": 4,
      "note": 73,
      "start": 16.7426,
      "duration": 0.0001,
      "velocity": 1,
      "chip": "ym2612"
    },
    {
      "channel": 0,
      "note": 49,
      "start": 16.7741,
      "duration": 0.0106,
      "velocity": 107,
      "chip": "ym2612"
    },
    {
      "channel": 2,
      "note": 68,
      "start": 16.7775,
      "duration": 0.2389,
      "velocity": 106,
      "chip": "ym2612"
    },
    {
      "channel": 4,
      "note": 76,
      "start": 16.7807,
      "duration": 0.0001,
      "velocity": 1,
      "chip": "ym2612"
    },
    {
      "channel": 0,
      "note": 40,
      "start": 16.83,
      "duration": 0.0086,
      "velocity": 107,
      "chip": "ym2612"
    },
    {
      "channel": 3,
      "note": 68,
      "start": 16.8334,
      "duration": 0.2351,
      "velocity": 106,
      "chip": "ym2612"
    },
    {
      "channel": 4,
      "note": 76,
      "start": 16.8362,
      "duration": 0.0001,
      "velocity": 1,
      "chip": "ym2612"
    },
    {
      "channel": 0,
      "note": 40,
      "start": 16.8638,
      "duration": 0.0052,
      "velocity": 107,
      "chip": "ym2612"
    },
    {
      "channel": 0,
      "note": 40,
      "start": 16.892,
      "duration": 0.0104,
      "velocity": 107,
      "chip": "ym2612"
    },
    {
      "channel": 1,
      "note": 22,
      "start": 16.8946,
      "duration": 0.0332,
      "velocity": 125,
      "chip": "ym2612"
    },
    {
      "channel": 4,
      "note": 76,
      "start": 16.8984,
      "duration": 0.0001,
      "velocity": 1,
      "chip": "ym2612"
    },
    {
      "channel": 0,
      "note": 52,
      "start": 16.9267,
      "duration": 0.0068,
      "velocity": 107,
      "chip": "ym2612"
    },
    {
      "channel": 4,
      "note": 76,
      "start": 16.931,
      "duration": 0.0001,
      "velocity": 1,
      "chip": "ym2612"
    },
    {
      "channel": 0,
      "note": 40,
      "start": 16.9562,
      "duration": 0.0056,
      "velocity": 107,
      "chip": "ym2612"
    },
    {
      "channel": 0,
      "note": 40,
      "start": 16.984,
      "duration": 0.0063,
      "velocity": 107,
      "chip": "ym2612"
    },
    {
      "channel": 4,
      "note": 76,
      "start": 16.9878,
      "duration": 0.0001,
      "velocity": 1,
      "chip": "ym2612"
    },
    {
      "channel": 0,
      "note": 52,
      "start": 17.0155,
      "duration": 0.0055,
      "velocity": 107,
      "chip": "ym2612"
    },
    {
      "channel": 4,
      "note": 76,
      "start": 17.0435,
      "duration": 0.0001,
      "velocity": 1,
      "chip": "ym2612"
    },
    {
      "channel": 0,
      "note": 40,
      "start": 17.0672,
      "duration": 0.0064,
      "velocity": 107,
      "chip": "ym2612"
    },
    {
      "channel": 4,
      "note": 76,
      "start": 17.071,
      "duration": 0.0001,
      "velocity": 1,
      "chip": "ym2612"
    },
    {
      "channel": 0,
      "note": 40,
      "start": 17.0972,
      "duration": 0.0052,
      "velocity": 107,
      "chip": "ym2612"
    },
    {
      "channel": 0,
      "note": 40,
      "start": 17.1256,
      "duration": 0.0125,
      "velocity": 107,
      "chip": "ym2612"
    },
    {
      "channel": 1,
      "note": 22,
      "start": 17.1283,
      "duration": 0.0349,
      "velocity": 125,
      "chip": "ym2612"
    },
    {
      "channel": 2,
      "note": 76,
      "start": 17.1309,
      "duration": 0.1269,
      "velocity": 106,
      "chip": "ym2612"
    },
    {
      "channel": 4,
      "note": 76,
      "start": 17.1341,
      "duration": 0.0001,
      "velocity": 1,
      "chip": "ym2612"
    },
    {
      "channel": 0,
      "note": 52,
      "start": 17.162,
      "duration": 0.0044,
      "velocity": 107,
      "chip": "ym2612"
    },
    {
      "channel": 0,
      "note": 40,
      "start": 17.19,
      "duration": 0.0101,
      "velocity": 107,
      "chip": "ym2612"
    },
    {
      "channel": 3,
      "note": 76,
      "start": 17.1934,
      "duration": 0.1186,
      "velocity": 106,
      "chip": "ym2612"
    },
    {
      "channel": 4,
      "note": 76,
      "start": 17.1962,
      "duration": 0.0001,
      "velocity": 1,
      "chip": "ym2612"
    },
    {
      "channel": 0,
      "note": 40,
      "start": 17.225,
      "duration": 0.0077,
      "velocity": 107,
      "chip": "ym2612"
    },
    {
      "channel": 4,
      "note": 76,
      "start": 17.2288,
      "duration": 0.0001,
      "velocity": 1,
      "chip": "ym2612"
    },
    {
      "channel": 0,
      "note": 52,
      "start": 17.2567,
      "duration": 0.0099,
      "velocity": 107,
      "chip": "ym2612"
    },
    {
      "channel": 2,
      "note": 78,
      "start": 17.2594,
      "duration": 0.1776,
      "velocity": 106,
      "chip": "ym2612"
    },
    {
      "channel": 4,
      "note": 71,
      "start": 17.2627,
      "duration": 0.0001,
      "velocity": 1,
      "chip": "ym2612"
    },
    {
      "channel": 0,
      "note": 47,
      "start": 17.3105,
      "duration": 0.0085,
      "velocity": 107,
      "chip": "ym2612"
    },
    {
      "channel": 3,
      "note": 78,
      "start": 17.3138,
      "duration": 0.1896,
      "velocity": 106,
      "chip": "ym2612"
    },
    {
      "channel": 4,
      "note": 71,
      "start": 17.3166,
      "duration": 0.0001,
      "velocity": 1,
      "chip": "ym2612"
    },
    {
      "channel": 0,
      "note": 47,
      "start": 17.3433,
      "duration": 0.0053,
      "velocity": 107,
      "chip": "ym2612"
    },
    {
      "channel": 0,
      "note": 47,
      "start": 17.3715,
      "duration": 0.0104,
      "velocity": 107,
      "chip": "ym2612"
    },
    {
      "channel": 1,
      "note": 22,
      "start": 17.3742,
      "duration": 0.0334,
      "velocity": 125,
      "chip": "ym2612"
    },
    {
      "channel": 4,
      "note": 71,
      "start": 17.378,
      "duration": 0.0001,
      "velocity": 1,
      "chip": "ym2612"
    },
    {
      "channel": 0,
      "note": 59,
      "start": 17.4065,
      "duration": 0.0068,
      "velocity": 107,
      "chip": "ym2612"
    },
    {
      "channel": 4,
      "note": 71,
      "start": 17.4108,
      "duration": 0.0001,
      "velocity": 1,
      "chip": "ym2612"
    },
    {
      "channel": 0,
      "note": 47,
      "start": 17.4359,
      "duration": 0.0102,
      "velocity": 107,
      "chip": "ym2612"
    },
    {
      "channel": 2,
      "note": 75,
      "start": 17.4387,
      "duration": 0.183,
      "velocity": 106,
      "chip": "ym2612"
    },
    {
      "channel": 0,
      "note": 47,
      "start": 17.47,
      "duration": 0.0062,
      "velocity": 107,
      "chip": "ym2612"
    },
    {
      "channel": 4,
      "note": 71,
      "start": 17.4738,
      "duration": 0.0001,
      "velocity": 1,
      "chip": "ym2612"
    },
    {
      "channel": 0,
      "note": 59,
      "start": 17.502,
      "duration": 0.0076,
      "velocity": 107,
      "chip": "ym2612"
    },
    {
      "channel": 3,
      "note": 75,
      "start": 17.5052,
      "duration": 0.1842,
      "velocity": 106,
      "chip": "ym2612"
    },
    {
      "channel": 4,
      "note": 71,
      "start": 17.5322,
      "duration": 0.0001,
      "velocity": 1,
      "chip": "ym2612"
    },
    {
      "channel": 0,
      "note": 47,
      "start": 17.5559,
      "duration": 0.0064,
      "velocity": 107,
      "chip": "ym2612"
    },
    {
      "channel": 4,
      "note": 71,
      "start": 17.5597,
      "duration": 0.0001,
      "velocity": 1,
      "chip": "ym2612"
    },
    {
      "channel": 0,
      "note": 47,
      "start": 17.5863,
      "duration": 0.0076,
      "velocity": 107,
      "chip": "ym2612"
    },
    {
      "channel": 4,
      "note": 71,
      "start": 17.5899,
      "duration": 0.0001,
      "velocity": 1,
      "chip": "ym2612"
    },
    {
      "channel": 0,
      "note": 47,
      "start": 17.6181,
      "duration": 0.0127,
      "velocity": 107,
      "chip": "ym2612"
    },
    {
      "channel": 1,
      "note": 22,
      "start": 17.6208,
      "duration": 0.0351,
      "velocity": 125,
      "chip": "ym2612"
    },
    {
      "channel": 2,
      "note": 74,
      "start": 17.6234,
      "duration": 0.1416,
      "velocity": 106,
      "chip": "ym2612"
    },
    {
      "channel": 4,
      "note": 71,
      "start": 17.6268,
      "duration": 0.0001,
      "velocity": 1,
      "chip": "ym2612"
    },
    {
      "channel": 0,
      "note": 59,
      "start": 17.6548,
      "duration": 0.0045,
      "velocity": 107,
      "chip": "ym2612"
    },
    {
      "channel": 0,
      "note": 47,
      "start": 17.6853,
      "duration": 0.0126,
      "velocity": 107,
      "chip": "ym2612"
    },
    {
      "channel": 1,
      "note": 22,
      "start": 17.6879,
      "duration": 0.0385,
      "velocity": 125,
      "chip": "ym2612"
    },
    {
      "channel": 3,
      "note": 74,
      "start": 17.6911,
      "duration": 0.1298,
      "velocity": 106,
      "chip": "ym2612"
    },
    {
      "channel": 4,
      "note": 71,
      "start": 17.6939,
      "duration": 0.0001,
      "velocity": 1,
      "chip": "ym2612"
    },
    {
      "channel": 0,
      "note": 47,
      "start": 17.7255,
      "duration": 0.0102,
      "velocity": 107,
      "chip": "ym2612"
    },
    {
      "channel": 1,
      "note": 28,
      "start": 17.7282,
      "duration": 0.0362,
      "velocity": 125,
      "chip": "ym2612"
    },
    {
      "channel": 4,
      "note": 71,
      "start": 17.7317,
      "duration": 0.0001,
      "velocity": 1,
      "chip": "ym2612"
    },
    {
      "channel": 0,
      "note": 59,
      "start": 17.7633,
      "duration": 0.0106,
      "velocity": 107,
      "chip": "ym2612"
    },
    {
      "channel": 2,
      "note": 71,
      "start": 17.7666,
      "duration": 0.1773,
      "velocity": 106,
      "chip": "ym2612"
    },
    {
      "channel": 4,
      "note": 78,
      "start": 17.7699,
      "duration": 0.0001,
      "velocity": 1,
      "chip": "ym2612"
    },
    {
      "channel": 0,
      "note": 42,
      "start": 17.8193,
      "duration": 0.0086,
      "velocity": 107,
      "chip": "ym2612"
    },
    {
      "channel": 3,
      "note": 71,
      "start": 17.8226,
      "duration": 0.1831,
      "velocity": 106,
      "chip": "ym2612"
    },
    {
      "channel": 4,
      "note": 78,
      "start": 17.8254,
      "duration": 0.0001,
      "velocity": 1,
      "chip": "ym2612"
    },
    {
      "channel": 0,
      "note": 42,
      "start": 17.8529,
      "duration": 0.0053,
      "velocity": 107,
      "chip": "ym2612"
    },
    {
      "channel": 0,
      "note": 42,
      "start": 17.8811,
      "duration": 0.0104,
      "velocity": 107,
      "chip": "ym2612"
    },
    {
      "channel": 1,
      "note": 22,
      "start": 17.8838,
      "duration": 0.0328,
      "velocity": 125,
      "chip": "ym2612"
    },
    {
      "channel": 4,
      "note": 78,
      "start": 17.8876,
      "duration": 0.0001,
      "velocity": 1,
      "chip": "ym2612"
    },
    {
      "channel": 0,
      "note": 54,
      "start": 17.9155,
      "duration": 0.0044,
      "velocity": 107,
      "chip": "ym2612"
    },
    {
      "channel": 0,
      "note": 42,
      "start": 17.9428,
      "duration": 0.0102,
      "velocity": 107,
      "chip": "ym2612"
    },
    {
      "channel": 2,
      "note": 71,
      "start": 17.9456,
      "duration": 0.1784,
      "velocity": 106,
      "chip": "ym2612"
    },
    {
      "channel": 4,
      "note": 78,
      "start": 17.949,
      "duration": 0.0001,
      "velocity": 1,
      "chip": "ym2612"
    },
    {
      "channel": 0,
      "note": 42,
      "start": 17.9751,
      "duration": 0.0063,
      "velocity": 107,
      "chip": "ym2612"
    },
    {
      "channel": 4,
      "note": 78,
      "start": 17.9789,
      "duration": 0.0001,
      "velocity": 1,
      "chip": "ym2612"
    },
    {
      "channel": 0,
      "note": 54,
      "start": 18.0043,
      "duration": 0.0076,
      "velocity": 107,
      "chip": "ym2612"
    },
    {
      "channel": 3,
      "note": 71,
      "start": 18.0075,
      "duration": 0.1789,
      "velocity": 106,
      "chip": "ym2612"
    },
    {
      "channel": 4,
      "note": 78,
      "start": 18.0344,
      "duration": 0.0001,
      "velocity": 1,
      "chip": "ym2612"
    },
    {
      "channel": 0,
      "note": 42,
      "start": 18.0581,
      "duration": 0.0064,
      "velocity": 107,
      "chip": "ym2612"
    },
    {
      "channel": 4,
      "note": 78,
      "start": 18.062,
      "duration": 0.0001,
      "velocity": 1,
      "chip": "ym2612"
    },
    {
      "channel": 0,
      "note": 42,
      "start": 18.0886,
      "duration": 0.0076,
      "velocity": 107,
      "chip": "ym2612"
    },
    {
      "channel": 4,
      "note": 78,
      "start": 18.0922,
      "duration": 0.0001,
      "velocity": 1,
      "chip": "ym2612"
    },
    {
      "channel": 0,
      "note": 42,
      "start": 18.1204,
      "duration": 0.0127,
      "velocity": 107,
      "chip": "ym2612"
    },
    {
      "channel": 1,
      "note": 22,
      "start": 18.1231,
      "duration": 0.035,
      "velocity": 125,
      "chip": "ym2612"
    },
    {
      "channel": 2,
      "note": 74,
      "start": 18.1257,
      "duration": 0.1268,
      "velocity": 106,
      "chip": "ym2612"
    },
    {
      "channel": 4,
      "note": 78,
      "start": 18.1291,
      "duration": 0.0001,
      "velocity": 1,
      "chip": "ym2612"
    },
    {
      "channel": 0,
      "note": 54,
      "start": 18.157,
      "duration": 0.0044,
      "velocity": 107,
      "chip": "ym2612"
    },
    {
      "channel": 0,
      "note": 42,
      "start": 18.1849,
      "duration": 0.0102,
      "velocity": 107,
      "chip": "ym2612"
    },
    {
      "channel": 3,
      "note": 74,
      "start": 18.1882,
      "duration": 0.1184,
      "velocity": 106,
      "chip": "ym2612"
    },
    {
      "channel": 4,
      "note": 78,
      "start": 18.191,
      "duration": 0.0001,
      "velocity": 1,
      "chip": "ym2612"
    },
    {
      "channel": 0,
      "note": 42,
      "start": 18.2199,
      "duration": 0.0077,
      "velocity": 107,
      "chip": "ym2612"
    },
    {
      "channel": 4,
      "note": 78,
      "start": 18.2236,
      "duration": 0.0001,
      "velocity": 1,
      "chip": "ym2612"
    },
    {
      "channel": 0,
      "note": 54,
      "start": 18.2515,
      "duration": 0.0099,
      "velocity": 107,
      "chip": "ym2612"
    },
    {
      "channel": 2,
      "note": 78,
      "start": 18.2542,
      "duration": 0.1753,
      "velocity": 106,
      "chip": "ym2612"
    },
    {
      "channel": 4,
      "note": 73,
      "start": 18.2574,
      "duration": 0.0001,
      "velocity": 1,
      "chip": "ym2612"
    },
    {
      "channel": 0,
      "note": 37,
      "start": 18.3052,
      "duration": 0.0085,
      "velocity": 107,
      "chip": "ym2612"
    },
    {
      "channel": 3,
      "note": 78,
      "start": 18.3084,
      "duration": 0.1833,
      "velocity": 106,
      "chip": "ym2612"
    },
    {
      "channel": 4,
      "note": 73,
      "start": 18.3112,
      "duration": 0.0001,
      "velocity": 1,
      "chip": "ym2612"
    },
    {
      "channel": 0,
      "note": 37,
      "start": 18.3356,
      "duration": 0.0052,
      "velocity": 107,
      "chip": "ym2612"
    },
    {
      "channel": 0,
      "note": 37,
      "start": 18.3639,
      "duration": 0.0104,
      "velocity": 107,
      "chip": "ym2612"
    },
    {
      "channel": 1,
      "note": 22,
      "start": 18.3666,
      "duration": 0.0332,
      "velocity": 125,
      "chip": "ym2612"
    },
    {
      "channel": 4,
      "note": 73,
      "start": 18.3704,
      "duration": 0.0001,
      "velocity": 1,
      "chip": "ym2612"
    },
    {
      "channel": 0,
      "note": 49,
      "start": 18.3987,
      "duration": 0.0068,
      "velocity": 107,
      "chip": "ym2612"
    },
    {
      "channel": 4,
      "note": 73,
      "start": 18.403,
      "duration": 0.0001,
      "velocity": 1,
      "chip": "ym2612"
    },
    {
      "channel": 0,
      "note": 37,
      "start": 18.4283,
      "duration": 0.0078,
      "velocity": 107,
      "chip": "ym2612"
    },
    {
      "channel": 2,
      "note": 77,
      "start": 18.4312,
      "duration": 0.2406,
      "velocity": 106,
      "chip": "ym2612"
    },
    {
      "channel": 0,
      "note": 37,
      "start": 18.4583,
      "duration": 0.0063,
      "velocity": 107,
      "chip": "ym2612"
    },
    {
      "channel": 4,
      "note": 73,
      "start": 18.4621,
      "duration": 0.0001,
      "velocity": 1,
      "chip": "ym2612"
    },
    {
      "channel": 0,
      "note": 49,
      "start": 18.4902,
      "duration": 0.0076,
      "velocity": 107,
      "chip": "ym2612"
    },
    {
      "channel": 3,
      "note": 77,
      "start": 18.4934,
      "duration": 0.2546,
      "velocity": 106,
      "chip": "ym2612"
    },
    {
      "channel": 4,
      "note": 73,
      "start": 18.5204,
      "duration": 0.0001,
      "velocity": 1,
      "chip": "ym2612"
    },
    {
      "channel": 0,
      "note": 37,
      "start": 18.5442,
      "duration": 0.0063,
      "velocity": 107,
      "chip": "ym2612"
    },
    {
      "channel": 4,
      "note": 73,
      "start": 18.5481,
      "duration": 0.0001,
      "velocity": 1,
      "chip": "ym2612"
    },
    {
      "channel": 0,
      "note": 37,
      "start": 18.5744,
      "duration": 0.0076,
      "velocity": 107,
      "chip": "ym2612"
    },
    {
      "channel": 4,
      "note": 73,
      "start": 18.5781,
      "duration": 0.0001,
      "velocity": 1,
      "chip": "ym2612"
    },
    {
      "channel": 0,
      "note": 37,
      "start": 18.6061,
      "duration": 0.0104,
      "velocity": 107,
      "chip": "ym2612"
    },
    {
      "channel": 1,
      "note": 22,
      "start": 18.6087,
      "duration": 0.033,
      "velocity": 125,
      "chip": "ym2612"
    },
    {
      "channel": 4,
      "note": 73,
      "start": 18.6125,
      "duration": 0.0001,
      "velocity": 1,
      "chip": "ym2612"
    },
    {
      "channel": 0,
      "note": 49,
      "start": 18.6406,
      "duration": 0.0044,
      "velocity": 107,
      "chip": "ym2612"
    },
    {
      "channel": 0,
      "note": 37,
      "start": 18.6706,
      "duration": 0.0101,
      "velocity": 107,
      "chip": "ym2612"
    },
    {
      "channel": 2,
      "note": 81,
      "start": 18.6734,
      "duration": 0.0719,
      "velocity": 106,
      "chip": "ym2612"
    },
    {
      "channel": 4,
      "note": 73,
      "start": 18.6767,
      "duration": 0.0001,
      "velocity": 1,
      "chip": "ym2612"
    },
    {
      "channel": 0,
      "note": 37,
      "start": 18.7057,
      "duration": 0.0102,
      "velocity": 107,
      "chip": "ym2612"
    },
    {
      "channel": 1,
      "note": 22,
      "start": 18.7084,
      "duration": 0.0363,
      "velocity": 125,
      "chip": "ym2612"
    },
    {
      "channel": 4,
      "note": 73,
      "start": 18.712,
      "duration": 0.0001,
      "velocity": 1,
      "chip": "ym2612"
    },
    {
      "channel": 0,
      "note": 49,
      "start": 18.7436,
      "duration": 0.0129,
      "velocity": 107,
      "chip": "ym2612"
    },
    {
      "channel": 2,
      "note": 73,
      "start": 18.747,
      "duration": 0.2386,
      "velocity": 106,
      "chip": "ym2612"
    },
    {
      "channel": 3,
      "note": 81,
      "start": 18.7498,
      "duration": 0.0537,
      "velocity": 106,
      "chip": "ym2612"
    },
    {
      "channel": 4,
      "note": 76,
      "start": 18.7525,
      "duration": 0.0001,
      "velocity": 1,
      "chip": "ym2612"
    },
    {
      "channel": 0,
      "note": 40,
      "start": 18.8019,
      "duration": 0.0086,
      "velocity": 107,
      "chip": "ym2612"
    },
    {
      "channel": 3,
      "note": 73,
      "start": 18.8052,
      "duration": 0.2325,
      "velocity": 106,
      "chip": "ym2612"
    },
    {
      "channel": 4,
      "note": 76,
      "start": 18.808,
      "duration": 0.0001,
      "velocity": 1,
      "chip": "ym2612"
    },
    {
      "channel": 0,
      "note": 40,
      "start": 18.8329,
      "duration": 0.0052,
      "velocity": 107,
      "chip": "ym2612"
    },
    {
      "channel": 0,
      "note": 40,
      "start": 18.861,
      "duration": 0.0104,
      "velocity": 107,
      "chip": "ym2612"
    },
    {
      "channel": 1,
      "note": 22,
      "start": 18.8637,
      "duration": 0.0332,
      "velocity": 125,
      "chip": "ym2612"
    },
    {
      "channel": 4,
      "note": 76,
      "start": 18.8675,
      "duration": 0.0001,
      "velocity": 1,
      "chip": "ym2612"
    },
    {
      "channel": 0,
      "note": 52,
      "start": 18.8958,
      "duration": 0.0068,
      "velocity": 107,
      "chip": "ym2612"
    },
    {
      "channel": 4,
      "note": 76,
      "start": 18.9001,
      "duration": 0.0001,
      "velocity": 1,
      "chip": "ym2612"
    },
    {
      "channel": 0,
      "note": 40,
      "start": 18.9253,
      "duration": 0.0056,
      "velocity": 107,
      "chip": "ym2612"
    },
    {
      "channel": 0,
      "note": 40,
      "start": 18.9531,
      "duration": 0.0062,
      "velocity": 107,
      "chip": "ym2612"
    },
    {
      "channel": 4,
      "note": 76,
      "start": 18.9569,
      "duration": 0.0001,
      "velocity": 1,
      "chip": "ym2612"
    },
    {
      "channel": 0,
      "note": 52,
      "start": 18.9846,
      "duration": 0.0055,
      "velocity": 107,
      "chip": "ym2612"
    },
    {
      "channel": 4,
      "note": 76,
      "start": 19.0126,
      "duration": 0.0001,
      "velocity": 1,
      "chip": "ym2612"
    },
    {
      "channel": 0,
      "note": 40,
      "start": 19.0363,
      "duration": 0.0062,
      "velocity": 107,
      "chip": "ym2612"
    },
    {
      "channel": 4,
      "note": 76,
      "start": 19.0402,
      "duration": 0.0001,
      "velocity": 1,
      "chip": "ym2612"
    },
    {
      "channel": 0,
      "note": 40,
      "start": 19.0663,
      "duration": 0.0053,
      "velocity": 107,
      "chip": "ym2612"
    },
    {
      "channel": 0,
      "note": 40,
      "start": 19.0947,
      "duration": 0.0124,
      "velocity": 107,
      "chip": "ym2612"
    },
    {
      "channel": 1,
      "note": 22,
      "start": 19.0973,
      "duration": 0.0349,
      "velocity": 125,
      "chip": "ym2612"
    },
    {
      "channel": 2,
      "note": 76,
      "start": 19.1,
      "duration": 0.0604,
      "velocity": 106,
      "chip": "ym2612"
    },
    {
      "channel": 4,
      "note": 76,
      "start": 19.1032,
      "duration": 0.0001,
      "velocity": 1,
      "chip": "ym2612"
    },
    {
      "channel": 0,
      "note": 52,
      "start": 19.1311,
      "duration": 0.0045,
      "velocity": 107,
      "chip": "ym2612"
    },
    {
      "channel": 0,
      "note": 40,
      "start": 19.1592,
      "duration": 0.0123,
      "velocity": 107,
      "chip": "ym2612"
    },
    {
      "channel": 2,
      "note": 75,
      "start": 19.1621,
      "duration": 0.0674,
      "velocity": 106,
      "chip": "ym2612"
    },
    {
      "channel": 3,
      "note": 76,
      "start": 19.1648,
      "duration": 0.0674,
      "velocity": 106,
      "chip": "ym2612"
    },
    {
      "channel": 4,
      "note": 76,
      "start": 19.1676,
      "duration": 0.0001,
      "velocity": 1,
      "chip": "ym2612"
    },
    {
      "channel": 0,
      "note": 40,
      "start": 19.1967,
      "duration": 0.0077,
      "velocity": 107,
      "chip": "ym2612"
    },
    {
      "channel": 4,
      "note": 76,
      "start": 19.2005,
      "duration": 0.0001,
      "velocity": 1,
      "chip": "ym2612"
    },
    {
      "channel": 0,
      "note": 52,
      "start": 19.2285,
      "duration": 0.0122,
      "velocity": 107,
      "chip": "ym2612"
    },
    {
      "channel": 2,
      "note": 73,
      "start": 19.2312,
      "duration": 0.2363,
      "velocity": 106,
      "chip": "ym2612"
    },
    {
      "channel": 3,
      "note": 75,
      "start": 19.2339,
      "duration": 0.0522,
      "velocity": 106,
      "chip": "ym2612"
    },
    {
      "channel": 4,
      "note": 71,
      "start": 19.2367,
      "duration": 0.0001,
      "velocity": 1,
      "chip": "ym2612"
    },
    {
      "channel": 0,
      "note": 47,
      "start": 19.2846,
      "duration": 0.0085,
      "velocity": 107,
      "chip": "ym2612"
    },
    {
      "channel": 3,
      "note": 73,
      "start": 19.2878,
      "duration": 0.2318,
      "velocity": 106,
      "chip": "ym2612"
    },
    {
      "channel": 4,
      "note": 71,
      "start": 19.2906,
      "duration": 0.0001,
      "velocity": 1,
      "chip": "ym2612"
    },
    {
      "channel": 0,
      "note": 47,
      "start": 19.3147,
      "duration": 0.0052,
      "velocity": 107,
      "chip": "ym2612"
    },
    {
      "channel": 0,
      "note": 47,
      "start": 19.3429,
      "duration": 0.0104,
      "velocity": 107,
      "chip": "ym2612"
    },
    {
      "channel": 1,
      "note": 22,
      "start": 19.3456,
      "duration": 0.0333,
      "velocity": 125,
      "chip": "ym2612"
    },
    {
      "channel": 4,
      "note": 71,
      "start": 19.3493,
      "duration": 0.0001,
      "velocity": 1,
      "chip": "ym2612"
    },
    {
      "channel": 0,
      "note": 59,
      "start": 19.3777,
      "duration": 0.0068,
      "velocity": 107,
      "chip": "ym2612"
    },
    {
      "channel": 4,
      "note": 71,
      "start": 19.382,
      "duration": 0.0001,
      "velocity": 1,
      "chip": "ym2612"
    },
    {
      "channel": 0,
      "note": 47,
      "start": 19.4071,
      "duration": 0.0057,
      "velocity": 107,
      "chip": "ym2612"
    },
    {
      "channel": 0,
      "note": 47,
      "start": 19.4349,
      "duration": 0.0063,
      "velocity": 107,
      "chip": "ym2612"
    },
    {
      "channel": 4,
      "note": 71,
      "start": 19.4387,
      "duration": 0.0001,
      "velocity": 1,
      "chip": "ym2612"
    },
    {
      "channel": 0,
      "note": 59,
      "start": 19.4665,
      "duration": 0.0055,
      "velocity": 107,
      "chip": "ym2612"
    },
    {
      "channel": 4,
      "note": 71,
      "start": 19.4946,
      "duration": 0.0001,
      "velocity": 1,
      "chip": "ym2612"
    },
    {
      "channel": 0,
      "note": 47,
      "start": 19.5183,
      "duration": 0.0064,
      "velocity": 107,
      "chip": "ym2612"
    },
    {
      "channel": 4,
      "note": 71,
      "start": 19.5221,
      "duration": 0.0001,
      "velocity": 1,
      "chip": "ym2612"
    },
    {
      "channel": 0,
      "note": 47,
      "start": 19.5483,
      "duration": 0.0076,
      "velocity": 107,
      "chip": "ym2612"
    },
    {
      "channel": 4,
      "note": 71,
      "start": 19.552,
      "duration": 0.0001,
      "velocity": 1,
      "chip": "ym2612"
    },
    {
      "channel": 0,
      "note": 47,
      "start": 19.58,
      "duration": 0.0102,
      "velocity": 107,
      "chip": "ym2612"
    },
    {
      "channel": 1,
      "note": 22,
      "start": 19.5827,
      "duration": 0.0326,
      "velocity": 125,
      "chip": "ym2612"
    },
    {
      "channel": 4,
      "note": 71,
      "start": 19.5862,
      "duration": 0.0001,
      "velocity": 1,
      "chip": "ym2612"
    },
    {
      "channel": 0,
      "note": 59,
      "start": 19.6141,
      "duration": 0.0046,
      "velocity": 107,
      "chip": "ym2612"
    },
    {
      "channel": 0,
      "note": 47,
      "start": 19.6418,
      "duration": 0.0124,
      "velocity": 107,
      "chip": "ym2612"
    },
    {
      "channel": 1,
      "note": 22,
      "start": 19.6445,
      "duration": 0.0402,
      "velocity": 125,
      "chip": "ym2612"
    },
    {
      "channel": 4,
      "note": 71,
      "start": 19.648,
      "duration": 0.0001,
      "velocity": 1,
      "chip": "ym2612"
    },
    {
      "channel": 0,
      "note": 47,
      "start": 19.6837,
      "duration": 0.0102,
      "velocity": 107,
      "chip": "ym2612"
    },
    {
      "channel": 1,
      "note": 28,
      "start": 19.6863,
      "duration": 0.0362,
      "velocity": 125,
      "chip": "ym2612"
    },
    {
      "channel": 4,
      "note": 71,
      "start": 19.6899,
      "duration": 0.0001,
      "velocity": 1,
      "chip": "ym2612"
    },
    {
      "channel": 0,
      "note": 59,
      "start": 19.7214,
      "duration": 0.0106,
      "velocity": 107,
      "chip": "ym2612"
    },
    {
      "channel": 2,
      "note": 72,
      "start": 19.7248,
      "duration": 0.2416,
      "velocity": 106,
      "chip": "ym2612"
    },
    {
      "channel": 4,
      "note": 78,
      "start": 19.728,
      "duration": 0.0001,
      "velocity": 1,
      "chip": "ym2612"
    },
    {
      "channel": 0,
      "note": 42,
      "start": 19.7775,
      "duration": 0.0086,
      "velocity": 107,
      "chip": "ym2612"
    },
    {
      "channel": 3,
      "note": 72,
      "start": 19.7809,
      "duration": 0.238,
      "velocity": 106,
      "chip": "ym2612"
    },
    {
      "channel": 4,
      "note": 78,
      "start": 19.7837,
      "duration": 0.0001,
      "velocity": 1,
      "chip": "ym2612"
    },
    {
      "channel": 0,
      "note": 42,
      "start": 19.811,
      "duration": 0.0052,
      "velocity": 107,
      "chip": "ym2612"
    },
    {
      "channel": 0,
      "note": 42,
      "start": 19.8392,
      "duration": 0.0105,
      "velocity": 107,
      "chip": "ym2612"
    },
    {
      "channel": 1,
      "note": 22,
      "start": 19.8419,
      "duration": 0.033,
      "velocity": 125,
      "chip": "ym2612"
    },
    {
      "channel": 4,
      "note": 78,
      "start": 19.8457,
      "duration": 0.0001,
      "velocity": 1,
      "chip": "ym2612"
    },
    {
      "channel": 0,
      "note": 54,
      "start": 19.8738,
      "duration": 0.0044,
      "velocity": 107,
      "chip": "ym2612"
    },
    {
      "channel": 0,
      "note": 42,
      "start": 19.9037,
      "duration": 0.008,
      "velocity": 107,
      "chip": "ym2612"
    },
    {
      "channel": 4,
      "note": 78,
      "start": 19.9078,
      "duration": 0.0001,
      "velocity": 1,
      "chip": "ym2612"
    },
    {
      "channel": 0,
      "note": 42,
      "start": 19.934,
      "duration": 0.0063,
      "velocity": 107,
      "chip": "ym2612"
    },
    {
      "channel": 4,
      "note": 78,
      "start": 19.9378,
      "duration": 0.0001,
      "velocity": 1,
      "chip": "ym2612"
    },
    {
      "channel": 0,
      "note": 54,
      "start": 19.9654,
      "duration": 0.0055,
      "velocity": 107,
      "chip": "ym2612"
    },
    {
      "channel": 4,
      "note": 78,
      "start": 19.9935,
      "duration": 0.0001,
      "velocity": 1,
      "chip": "ym2612"
    },
    {
      "channel": 0,
      "note": 42,
      "start": 20.0174,
      "duration": 0.0063,
      "velocity": 107,
      "chip": "ym2612"
    },
    {
      "channel": 4,
      "note": 78,
      "start": 20.0213,
      "duration": 0.0001,
      "velocity": 1,
      "chip": "ym2612"
    },
    {
      "channel": 0,
      "note": 42,
      "start": 20.0473,
      "duration": 0.0076,
      "velocity": 107,
      "chip": "ym2612"
    },
    {
      "channel": 4,
      "note": 78,
      "start": 20.051,
      "duration": 0.0001,
      "velocity": 1,
      "chip": "ym2612"
    },
    {
      "channel": 0,
      "note": 42,
      "start": 20.0791,
      "duration": 0.0124,
      "velocity": 107,
      "chip": "ym2612"
    },
    {
      "channel": 1,
      "note": 22,
      "start": 20.0817,
      "duration": 0.0351,
      "velocity": 125,
      "chip": "ym2612"
    },
    {
      "channel": 2,
      "note": 90,
      "start": 20.0844,
      "duration": 0.1294,
      "velocity": 106,
      "chip": "ym2612"
    },
    {
      "channel": 4,
      "note": 78,
      "start": 20.0876,
      "duration": 0.0001,
      "velocity": 1,
      "chip": "ym2612"
    },
    {
      "channel": 0,
      "note": 54,
      "start": 20.1158,
      "duration": 0.0046,
      "velocity": 107,
      "chip": "ym2612"
    },
    {
      "channel": 0,
      "note": 42,
      "start": 20.1461,
      "duration": 0.0102,
      "velocity": 107,
      "chip": "ym2612"
    },
    {
      "channel": 3,
      "note": 90,
      "start": 20.1495,
      "duration": 0.1189,
      "velocity": 106,
      "chip": "ym2612"
    },
    {
      "channel": 4,
      "note": 78,
      "start": 20.1523,
      "duration": 0.0001,
      "velocity": 1,
      "chip": "ym2612"
    },
    {
      "channel": 0,
      "note": 42,
      "start": 20.1811,
      "duration": 0.0078,
      "velocity": 107,
      "chip": "ym2612"
    },
    {
      "channel": 4,
      "note": 78,
      "start": 20.1849,
      "duration": 0.0001,
      "velocity": 1,
      "chip": "ym2612"
    },
    {
      "channel": 0,
      "note": 54,
      "start": 20.2127,
      "duration": 0.01,
      "velocity": 107,
      "chip": "ym2612"
    },
    {
      "channel": 2,
      "note": 92,
      "start": 20.2154,
      "duration": 0.1804,
      "velocity": 106,
      "chip": "ym2612"
    },
    {
      "channel": 4,
      "note": 73,
      "start": 20.2187,
      "duration": 0.0001,
      "velocity": 1,
      "chip": "ym2612"
    },
    {
      "channel": 0,
      "note": 37,
      "start": 20.2669,
      "duration": 0.0086,
      "velocity": 107,
      "chip": "ym2612"
    },
    {
      "channel": 3,
      "note": 92,
      "start": 20.2702,
      "duration": 0.1879,
      "velocity": 106,
      "chip": "ym2612"
    },
    {
      "channel": 4,
      "note": 73,
      "start": 20.2729,
      "duration": 0.0001,
      "velocity": 1,
      "chip": "ym2612"
    },
    {
      "channel": 0,
      "note": 37,
      "start": 20.2994,
      "duration": 0.0052,
      "velocity": 107,
      "chip": "ym2612"
    },
    {
      "channel": 0,
      "note": 37,
      "start": 20.3276,
      "duration": 0.0104,
      "velocity": 107,
      "chip": "ym2612"
    },
    {
      "channel": 1,
      "note": 22,
      "start": 20.3303,
      "duration": 0.0334,
      "velocity": 125,
      "chip": "ym2612"
    },
    {
      "channel": 4,
      "note": 73,
      "start": 20.3341,
      "duration": 0.0001,
      "velocity": 1,
      "chip": "ym2612"
    },
    {
      "channel": 0,
      "note": 49,
      "start": 20.3625,
      "duration": 0.0069,
      "velocity": 107,
      "chip": "ym2612"
    },
    {
      "channel": 4,
      "note": 73,
      "start": 20.3668,
      "duration": 0.0001,
      "velocity": 1,
      "chip": "ym2612"
    },
    {
      "channel": 0,
      "note": 37,
      "start": 20.3947,
      "duration": 0.0078,
      "velocity": 107,
      "chip": "ym2612"
    },
    {
      "channel": 2,
      "note": 89,
      "start": 20.3975,
      "duration": 0.1788,
      "velocity": 106,
      "chip": "ym2612"
    },
    {
      "channel": 0,
      "note": 37,
      "start": 20.4248,
      "duration": 0.0063,
      "velocity": 107,
      "chip": "ym2612"
    },
    {
      "channel": 4,
      "note": 73,
      "start": 20.4286,
      "duration": 0.0001,
      "velocity": 1,
      "chip": "ym2612"
    },
    {
      "channel": 0,
      "note": 49,
      "start": 20.4566,
      "duration": 0.0077,
      "velocity": 107,
      "chip": "ym2612"
    },
    {
      "channel": 3,
      "note": 89,
      "start": 20.4598,
      "duration": 0.1788,
      "velocity": 106,
      "chip": "ym2612"
    },
    {
      "channel": 4,
      "note": 73,
      "start": 20.487,
      "duration": 0.0001,
      "velocity": 1,
      "chip": "ym2612"
    },
    {
      "channel": 0,
      "note": 37,
      "start": 20.5107,
      "duration": 0.0064,
      "velocity": 107,
      "chip": "ym2612"
    },
    {
      "channel": 4,
      "note": 73,
      "start": 20.5146,
      "duration": 0.0001,
      "velocity": 1,
      "chip": "ym2612"
    },
    {
      "channel": 0,
      "note": 37,
      "start": 20.5409,
      "duration": 0.0076,
      "velocity": 107,
      "chip": "ym2612"
    },
    {
      "channel": 4,
      "note": 73,
      "start": 20.5446,
      "duration": 0.0001,
      "velocity": 1,
      "chip": "ym2612"
    },
    {
      "channel": 0,
      "note": 37,
      "start": 20.5727,
      "duration": 0.0127,
      "velocity": 107,
      "chip": "ym2612"
    },
    {
      "channel": 1,
      "note": 22,
      "start": 20.5753,
      "duration": 0.0352,
      "velocity": 125,
      "chip": "ym2612"
    },
    {
      "channel": 2,
      "note": 86,
      "start": 20.5779,
      "duration": 0.1355,
      "velocity": 106,
      "chip": "ym2612"
    },
    {
      "channel": 4,
      "note": 73,
      "start": 20.5814,
      "duration": 0.0001,
      "velocity": 1,
      "chip": "ym2612"
    },
    {
      "channel": 0,
      "note": 49,
      "start": 20.6094,
      "duration": 0.0044,
      "velocity": 107,
      "chip": "ym2612"
    },
    {
      "channel": 0,
      "note": 37,
      "start": 20.637,
      "duration": 0.0102,
      "velocity": 107,
      "chip": "ym2612"
    },
    {
      "channel": 3,
      "note": 86,
      "start": 20.6404,
      "duration": 0.1291,
      "velocity": 106,
      "chip": "ym2612"
    },
    {
      "channel": 4,
      "note": 73,
      "start": 20.6432,
      "duration": 0.0001,
      "velocity": 1,
      "chip": "ym2612"
    },
    {
      "channel": 0,
      "note": 37,
      "start": 20.674,
      "duration": 0.0102,
      "velocity": 107,
      "chip": "ym2612"
    },
    {
      "channel": 1,
      "note": 22,
      "start": 20.6766,
      "duration": 0.0362,
      "velocity": 125,
      "chip": "ym2612"
    },
    {
      "channel": 4,
      "note": 73,
      "start": 20.6802,
      "duration": 0.0001,
      "velocity": 1,
      "chip": "ym2612"
    },
    {
      "channel": 0,
      "note": 49,
      "start": 20.7117,
      "duration": 0.0106,
      "velocity": 107,
      "chip": "ym2612"
    },
    {
      "channel": 2,
      "note": 80,
      "start": 20.7151,
      "duration": 0.2388,
      "velocity": 106,
      "chip": "ym2612"
    },
    {
      "channel": 4,
      "note": 76,
      "start": 20.7184,
      "duration": 0.0001,
      "velocity": 1,
      "chip": "ym2612"
    },
    {
      "channel": 0,
      "note": 40,
      "start": 20.7679,
      "duration": 0.0087,
      "velocity": 107,
      "chip": "ym2612"
    },
    {
      "channel": 3,
      "note": 80,
      "start": 20.7712,
      "duration": 0.235,
      "velocity": 106,
      "chip": "ym2612"
    },
    {
      "channel": 4,
      "note": 76,
      "start": 20.774,
      "duration": 0.0001,
      "velocity": 1,
      "chip": "ym2612"
    },
    {
      "channel": 0,
      "note": 40,
      "start": 20.8013,
      "duration": 0.0053,
      "velocity": 107,
      "chip": "ym2612"
    },
    {
      "channel": 0,
      "note": 40,
      "start": 20.8295,
      "duration": 0.0104,
      "velocity": 107,
      "chip": "ym2612"
    },
    {
      "channel": 1,
      "note": 22,
      "start": 20.8322,
      "duration": 0.0335,
      "velocity": 125,
      "chip": "ym2612"
    },
    {
      "channel": 4,
      "note": 76,
      "start": 20.836,
      "duration": 0.0001,
      "velocity": 1,
      "chip": "ym2612"
    },
    {
      "channel": 0,
      "note": 52,
      "start": 20.8646,
      "duration": 0.0068,
      "velocity": 107,
      "chip": "ym2612"
    },
    {
      "channel": 4,
      "note": 76,
      "start": 20.8689,
      "duration": 0.0001,
      "velocity": 1,
      "chip": "ym2612"
    },
    {
      "channel": 0,
      "note": 40,
      "start": 20.8936,
      "duration": 0.0057,
      "velocity": 107,
      "chip": "ym2612"
    },
    {
      "channel": 0,
      "note": 40,
      "start": 20.9215,
      "duration": 0.0064,
      "velocity": 107,
      "chip": "ym2612"
    },
    {
      "channel": 4,
      "note": 76,
      "start": 20.9253,
      "duration": 0.0001,
      "velocity": 1,
      "chip": "ym2612"
    },
    {
      "channel": 0,
      "note": 52,
      "start": 20.9529,
      "duration": 0.0055,
      "velocity": 107,
      "chip": "ym2612"
    },
    {
      "channel": 4,
      "note": 76,
      "start": 20.9811,
      "duration": 0.0001,
      "velocity": 1,
      "chip": "ym2612"
    },
    {
      "channel": 0,
      "note": 40,
      "start": 21.0049,
      "duration": 0.0063,
      "velocity": 107,
      "chip": "ym2612"
    },
    {
      "channel": 4,
      "note": 76,
      "start": 21.0087,
      "duration": 0.0001,
      "velocity": 1,
      "chip": "ym2612"
    },
    {
      "channel": 0,
      "note": 40,
      "start": 21.0345,
      "duration": 0.0053,
      "velocity": 107,
      "chip": "ym2612"
    },
    {
      "channel": 0,
      "note": 40,
      "start": 21.0629,
      "duration": 0.0125,
      "velocity": 107,
      "chip": "ym2612"
    },
    {
      "channel": 1,
      "note": 22,
      "start": 21.0655,
      "duration": 0.035,
      "velocity": 125,
      "chip": "ym2612"
    },
    {
      "channel": 2,
      "note": 88,
      "start": 21.0682,
      "duration": 0.1266,
      "velocity": 106,
      "chip": "ym2612"
    },
    {
      "channel": 4,
      "note": 76,
      "start": 21.0714,
      "duration": 0.0001,
      "velocity": 1,
      "chip": "ym2612"
    },
    {
      "channel": 0,
      "note": 52,
      "start": 21.0995,
      "duration": 0.0046,
      "velocity": 107,
      "chip": "ym2612"
    },
    {
      "channel": 0,
      "note": 40,
      "start": 21.1271,
      "duration": 0.0102,
      "velocity": 107,
      "chip": "ym2612"
    },
    {
      "channel": 3,
      "note": 88,
      "start": 21.1305,
      "duration": 0.119,
      "velocity": 106,
      "chip": "ym2612"
    },
    {
      "channel": 4,
      "note": 76,
      "start": 21.1333,
      "duration": 0.0001,
      "velocity": 1,
      "chip": "ym2612"
    },
    {
      "channel": 0,
      "note": 40,
      "start": 21.162,
      "duration": 0.0078,
      "velocity": 107,
      "chip": "ym2612"
    },
    {
      "channel": 4,
      "note": 76,
      "start": 21.1659,
      "duration": 0.0001,
      "velocity": 1,
      "chip": "ym2612"
    },
    {
      "channel": 0,
      "note": 52,
      "start": 21.1937,
      "duration": 0.01,
      "velocity": 107,
      "chip": "ym2612"
    },
    {
      "channel": 2,
      "note": 90,
      "start": 21.1964,
      "duration": 0.1804,
      "velocity": 106,
      "chip": "ym2612"
    },
    {
      "channel": 4,
      "note": 71,
      "start": 21.1997,
      "duration": 0.0001,
      "velocity": 1,
      "chip": "ym2612"
    },
    {
      "channel": 0,
      "note": 47,
      "start": 21.248,
      "duration": 0.0085,
      "velocity": 107,
      "chip": "ym2612"
    },
    {
      "channel": 3,
      "note": 90,
      "start": 21.2512,
      "duration": 0.1878,
      "velocity": 106,
      "chip": "ym2612"
    },
    {
      "channel": 4,
      "note": 71,
      "start": 21.254,
      "duration": 0.0001,
      "velocity": 1,
      "chip": "ym2612"
    },
    {
      "channel": 0,
      "note": 47,
      "start": 21.2804,
      "duration": 0.0052,
      "velocity": 107,
      "chip": "ym2612"
    },
    {
      "channel": 0,
      "note": 47,
      "start": 21.3085,
      "duration": 0.0105,
      "velocity": 107,
      "chip": "ym2612"
    },
    {
      "channel": 1,
      "note": 22,
      "start": 21.3112,
      "duration": 0.0335,
      "velocity": 125,
      "chip": "ym2612"
    },
    {
      "channel": 4,
      "note": 71,
      "start": 21.3151,
      "duration": 0.0001,
      "velocity": 1,
      "chip": "ym2612"
    },
    {
      "channel": 0,
      "note": 59,
      "start": 21.3436,
      "duration": 0.0069,
      "velocity": 107,
      "chip": "ym2612"
    },
    {
      "channel": 4,
      "note": 71,
      "start": 21.3479,
      "duration": 0.0001,
      "velocity": 1,
      "chip": "ym2612"
    },
    {
      "channel": 0,
      "note": 47,
      "start": 21.3756,
      "duration": 0.0079,
      "velocity": 107,
      "chip": "ym2612"
    },
    {
      "channel": 2,
      "note": 87,
      "start": 21.3784,
      "duration": 0.1788,
      "velocity": 106,
      "chip": "ym2612"
    },
    {
      "channel": 0,
      "note": 47,
      "start": 21.4059,
      "duration": 0.0063,
      "velocity": 107,
      "chip": "ym2612"
    },
    {
      "channel": 4,
      "note": 71,
      "start": 21.4097,
      "duration": 0.0001,
      "velocity": 1,
      "chip": "ym2612"
    },
    {
      "channel": 0,
      "note": 59,
      "start": 21.4376,
      "duration": 0.0077,
      "velocity": 107,
      "chip": "ym2612"
    },
    {
      "channel": 3,
      "note": 87,
      "start": 21.4408,
      "duration": 0.1841,
      "velocity": 106,
      "chip": "ym2612"
    },
    {
      "channel": 4,
      "note": 71,
      "start": 21.4679,
      "duration": 0.0001,
      "velocity": 1,
      "chip": "ym2612"
    },
    {
      "channel": 0,
      "note": 47,
      "start": 21.4918,
      "duration": 0.0065,
      "velocity": 107,
      "chip": "ym2612"
    },
    {
      "channel": 4,
      "note": 71,
      "start": 21.4957,
      "duration": 0.0001,
      "velocity": 1,
      "chip": "ym2612"
    },
    {
      "channel": 0,
      "note": 47,
      "start": 21.5219,
      "duration": 0.0076,
      "velocity": 107,
      "chip": "ym2612"
    },
    {
      "channel": 4,
      "note": 71,
      "start": 21.5255,
      "duration": 0.0001,
      "velocity": 1,
      "chip": "ym2612"
    },
    {
      "channel": 0,
      "note": 47,
      "start": 21.5537,
      "duration": 0.0127,
      "velocity": 107,
      "chip": "ym2612"
    },
    {
      "channel": 1,
      "note": 22,
      "start": 21.5563,
      "duration": 0.0353,
      "velocity": 125,
      "chip": "ym2612"
    },
    {
      "channel": 2,
      "note": 86,
      "start": 21.559,
      "duration": 0.1413,
      "velocity": 106,
      "chip": "ym2612"
    },
    {
      "channel": 4,
      "note": 71,
      "start": 21.5624,
      "duration": 0.0001,
      "velocity": 1,
      "chip": "ym2612"
    },
    {
      "channel": 0,
      "note": 59,
      "start": 21.5905,
      "duration": 0.0045,
      "velocity": 107,
      "chip": "ym2612"
    },
    {
      "channel": 0,
      "note": 47,
      "start": 21.6208,
      "duration": 0.0127,
      "velocity": 107,
      "chip": "ym2612"
    },
    {
      "channel": 1,
      "note": 22,
      "start": 21.6235,
      "duration": 0.0385,
      "velocity": 125,
      "chip": "ym2612"
    },
    {
      "channel": 3,
      "note": 86,
      "start": 21.6266,
      "duration": 0.1298,
      "velocity": 106,
      "chip": "ym2612"
    },
    {
      "channel": 4,
      "note": 71,
      "start": 21.6294,
      "duration": 0.0001,
      "velocity": 1,
      "chip": "ym2612"
    },
    {
      "channel": 0,
      "note": 47,
      "start": 21.661,
      "duration": 0.0102,
      "velocity": 107,
      "chip": "ym2612"
    },
    {
      "channel": 1,
      "note": 28,
      "start": 21.6637,
      "duration": 0.036,
      "velocity": 125,
      "chip": "ym2612"
    },
    {
      "channel": 4,
      "note": 71,
      "start": 21.6673,
      "duration": 0.0001,
      "velocity": 1,
      "chip": "ym2612"
    },
    {
      "channel": 0,
      "note": 59,
      "start": 21.6986,
      "duration": 0.0106,
      "velocity": 107,
      "chip": "ym2612"
    },
    {
      "channel": 2,
      "note": 83,
      "start": 21.702,
      "duration": 0.18,
      "velocity": 106,
      "chip": "ym2612"
    },
    {
      "channel": 4,
      "note": 78,
      "start": 21.7052,
      "duration": 0.0001,
      "velocity": 1,
      "chip": "ym2612"
    },
    {
      "channel": 0,
      "note": 42,
      "start": 21.7548,
      "duration": 0.0086,
      "velocity": 107,
      "chip": "ym2612"
    },
    {
      "channel": 3,
      "note": 83,
      "start": 21.7582,
      "duration": 0.1885,
      "velocity": 106,
      "chip": "ym2612"
    },
    {
      "channel": 4,
      "note": 78,
      "start": 21.761,
      "duration": 0.0001,
      "velocity": 1,
      "chip": "ym2612"
    },
    {
      "channel": 0,
      "note": 42,
      "start": 21.7881,
      "duration": 0.0052,
      "velocity": 107,
      "chip": "ym2612"
    },
    {
      "channel": 0,
      "note": 42,
      "start": 21.8163,
      "duration": 0.0104,
      "velocity": 107,
      "chip": "ym2612"
    },
    {
      "channel": 1,
      "note": 22,
      "start": 21.819,
      "duration": 0.033,
      "velocity": 125,
      "chip": "ym2612"
    },
    {
      "channel": 4,
      "note": 78,
      "start": 21.8228,
      "duration": 0.0001,
      "velocity": 1,
      "chip": "ym2612"
    },
    {
      "channel": 0,
      "note": 54,
      "start": 21.8508,
      "duration": 0.0046,
      "velocity": 107,
      "chip": "ym2612"
    },
    {
      "channel": 0,
      "note": 42,
      "start": 21.8808,
      "duration": 0.0102,
      "velocity": 107,
      "chip": "ym2612"
    },
    {
      "channel": 2,
      "note": 83,
      "start": 21.8837,
      "duration": 0.1812,
      "velocity": 106,
      "chip": "ym2612"
    },
    {
      "channel": 4,
      "note": 78,
      "start": 21.8871,
      "duration": 0.0001,
      "velocity": 1,
      "chip": "ym2612"
    },
    {
      "channel": 0,
      "note": 42,
      "start": 21.9134,
      "duration": 0.0062,
      "velocity": 107,
      "chip": "ym2612"
    },
    {
      "channel": 4,
      "note": 78,
      "start": 21.9172,
      "duration": 0.0001,
      "velocity": 1,
      "chip": "ym2612"
    },
    {
      "channel": 0,
      "note": 54,
      "start": 21.9452,
      "duration": 0.0076,
      "velocity": 107,
      "chip": "ym2612"
    },
    {
      "channel": 3,
      "note": 83,
      "start": 21.9484,
      "duration": 0.1815,
      "velocity": 106,
      "chip": "ym2612"
    },
    {
      "channel": 4,
      "note": 78,
      "start": 21.9754,
      "duration": 0.0001,
      "velocity": 1,
      "chip": "ym2612"
    },
    {
      "channel": 0,
      "note": 42,
      "start": 21.9993,
      "duration": 0.0064,
      "velocity": 107,
      "chip": "ym2612"
    },
    {
      "channel": 4,
      "note": 78,
      "start": 22.0032,
      "duration": 0.0001,
      "velocity": 1,
      "chip": "ym2612"
    },
    {
      "channel": 0,
      "note": 42,
      "start": 22.0295,
      "duration": 0.0076,
      "velocity": 107,
      "chip": "ym2612"
    },
    {
      "channel": 4,
      "note": 78,
      "start": 22.0332,
      "duration": 0.0001,
      "velocity": 1,
      "chip": "ym2612"
    },
    {
      "channel": 0,
      "note": 42,
      "start": 22.0613,
      "duration": 0.0127,
      "velocity": 107,
      "chip": "ym2612"
    },
    {
      "channel": 1,
      "note": 22,
      "start": 22.0639,
      "duration": 0.0352,
      "velocity": 125,
      "chip": "ym2612"
    },
    {
      "channel": 2,
      "note": 86,
      "start": 22.0666,
      "duration": 0.1294,
      "velocity": 106,
      "chip": "ym2612"
    },
    {
      "channel": 4,
      "note": 78,
      "start": 22.07,
      "duration": 0.0001,
      "velocity": 1,
      "chip": "ym2612"
    },
    {
      "channel": 0,
      "note": 54,
      "start": 22.098,
      "duration": 0.0044,
      "velocity": 107,
      "chip": "ym2612"
    },
    {
      "channel": 0,
      "note": 42,
      "start": 22.1283,
      "duration": 0.0102,
      "velocity": 107,
      "chip": "ym2612"
    },
    {
      "channel": 3,
      "note": 86,
      "start": 22.1317,
      "duration": 0.1188,
      "velocity": 106,
      "chip": "ym2612"
    },
    {
      "channel": 4,
      "note": 78,
      "start": 22.1345,
      "duration": 0.0001,
      "velocity": 1,
      "chip": "ym2612"
    },
    {
      "channel": 0,
      "note": 42,
      "start": 22.1633,
      "duration": 0.0078,
      "velocity": 107,
      "chip": "ym2612"
    },
    {
      "channel": 4,
      "note": 78,
      "start": 22.1671,
      "duration": 0.0001,
      "velocity": 1,
      "chip": "ym2612"
    },
    {
      "channel": 0,
      "note": 54,
      "start": 22.1949,
      "duration": 0.01,
      "velocity": 107,
      "chip": "ym2612"
    },
    {
      "channel": 2,
      "note": 90,
      "start": 22.1976,
      "duration": 0.1804,
      "velocity": 106,
      "chip": "ym2612"
    },
    {
      "channel": 4,
      "note": 73,
      "start": 22.2009,
      "duration": 0.0001,
      "velocity": 1,
      "chip": "ym2612"
    },
    {
      "channel": 0,
      "note": 37,
      "start": 22.249,
      "duration": 0.0085,
      "velocity": 107,
      "chip": "ym2612"
    },
    {
      "channel": 3,
      "note": 90,
      "start": 22.2522,
      "duration": 0.1882,
      "velocity": 106,
      "chip": "ym2612"
    },
    {
      "channel": 4,
      "note": 73,
      "start": 22.255,
      "duration": 0.0001,
      "velocity": 1,
      "chip": "ym2612"
    },
    {
      "channel": 0,
      "note": 37,
      "start": 22.2816,
      "duration": 0.0053,
      "velocity": 107,
      "chip": "ym2612"
    },
    {
      "channel": 0,
      "note": 37,
      "start": 22.3098,
      "duration": 0.0104,
      "velocity": 107,
      "chip": "ym2612"
    },
    {
      "channel": 1,
      "note": 22,
      "start": 22.3125,
      "duration": 0.0335,
      "velocity": 125,
      "chip": "ym2612"
    },
    {
      "channel": 4,
      "note": 73,
      "start": 22.3163,
      "duration": 0.0001,
      "velocity": 1,
      "chip": "ym2612"
    },
    {
      "channel": 0,
      "note": 49,
      "start": 22.3449,
      "duration": 0.0068,
      "velocity": 107,
      "chip": "ym2612"
    },
    {
      "channel": 4,
      "note": 73,
      "start": 22.3492,
      "duration": 0.0001,
      "velocity": 1,
      "chip": "ym2612"
    },
    {
      "channel": 0,
      "note": 37,
      "start": 22.3769,
      "duration": 0.0079,
      "velocity": 107,
      "chip": "ym2612"
    },
    {
      "channel": 2,
      "note": 89,
      "start": 22.3797,
      "duration": 0.2408,
      "velocity": 106,
      "chip": "ym2612"
    },
    {
      "channel": 0,
      "note": 37,
      "start": 22.4071,
      "duration": 0.0063,
      "velocity": 107,
      "chip": "ym2612"
    },
    {
      "channel": 4,
      "note": 73,
      "start": 22.4109,
      "duration": 0.0001,
      "velocity": 1,
      "chip": "ym2612"
    },
    {
      "channel": 0,
      "note": 49,
      "start": 22.4388,
      "duration": 0.0077,
      "velocity": 107,
      "chip": "ym2612"
    },
    {
      "channel": 3,
      "note": 89,
      "start": 22.4421,
      "duration": 0.2547,
      "velocity": 106,
      "chip": "ym2612"
    },
    {
      "channel": 4,
      "note": 73,
      "start": 22.4693,
      "duration": 0.0001,
      "velocity": 1,
      "chip": "ym2612"
    },
    {
      "channel": 0,
      "note": 37,
      "start": 22.4932,
      "duration": 0.0065,
      "velocity": 107,
      "chip": "ym2612"
    },
    {
      "channel": 4,
      "note": 73,
      "start": 22.4971,
      "duration": 0.0001,
      "velocity": 1,
      "chip": "ym2612"
    },
    {
      "channel": 0,
      "note": 37,
      "start": 22.5232,
      "duration": 0.0076,
      "velocity": 107,
      "chip": "ym2612"
    },
    {
      "channel": 4,
      "note": 73,
      "start": 22.5268,
      "duration": 0.0001,
      "velocity": 1,
      "chip": "ym2612"
    },
    {
      "channel": 0,
      "note": 37,
      "start": 22.5548,
      "duration": 0.0105,
      "velocity": 107,
      "chip": "ym2612"
    },
    {
      "channel": 1,
      "note": 22,
      "start": 22.5575,
      "duration": 0.0332,
      "velocity": 125,
      "chip": "ym2612"
    },
    {
      "channel": 4,
      "note": 73,
      "start": 22.5614,
      "duration": 0.0001,
      "velocity": 1,
      "chip": "ym2612"
    },
    {
      "channel": 0,
      "note": 49,
      "start": 22.5895,
      "duration": 0.0044,
      "velocity": 107,
      "chip": "ym2612"
    },
    {
      "channel": 0,
      "note": 37,
      "start": 22.6194,
      "duration": 0.0101,
      "velocity": 107,
      "chip": "ym2612"
    },
    {
      "channel": 2,
      "note": 93,
      "start": 22.6222,
      "duration": 0.0719,
      "velocity": 106,
      "chip": "ym2612"
    },
    {
      "channel": 4,
      "note": 73,
      "start": 22.6255,
      "duration": 0.0001,
      "velocity": 1,
      "chip": "ym2612"
    },
    {
      "channel": 0,
      "note": 37,
      "start": 22.6545,
      "duration": 0.0102,
      "velocity": 107,
      "chip": "ym2612"
    },
    {
      "channel": 1,
      "note": 22,
      "start": 22.6572,
      "duration": 0.0363,
      "velocity": 125,
      "chip": "ym2612"
    },
    {
      "channel": 4,
      "note": 73,
      "start": 22.6607,
      "duration": 0.0001,
      "velocity": 1,
      "chip": "ym2612"
    },
    {
      "channel": 0,
      "note": 49,
      "start": 22.6924,
      "duration": 0.0129,
      "velocity": 107,
      "chip": "ym2612"
    },
    {
      "channel": 2,
      "note": 85,
      "start": 22.6957,
      "duration": 0.243,
      "velocity": 106,
      "chip": "ym2612"
    },
    {
      "channel": 3,
      "note": 93,
      "start": 22.6985,
      "duration": 0.0541,
      "velocity": 106,
      "chip": "ym2612"
    },
    {
      "channel": 4,
      "note": 76,
      "start": 22.7013,
      "duration": 0.0001,
      "velocity": 1,
      "chip": "ym2612"
    },
    {
      "channel": 0,
      "note": 40,
      "start": 22.751,
      "duration": 0.0086,
      "velocity": 107,
      "chip": "ym2612"
    },
    {
      "channel": 3,
      "note": 85,
      "start": 22.7543,
      "duration": 0.2368,
      "velocity": 106,
      "chip": "ym2612"
    },
    {
      "channel": 4,
      "note": 76,
      "start": 22.7571,
      "duration": 0.0001,
      "velocity": 1,
      "chip": "ym2612"
    },
    {
      "channel": 0,
      "note": 40,
      "start": 22.7849,
      "duration": 0.0052,
      "velocity": 107,
      "chip": "ym2612"
    },
    {
      "channel": 0,
      "note": 40,
      "start": 22.8126,
      "duration": 0.0105,
      "velocity": 107,
      "chip": "ym2612"
    },
    {
      "channel": 1,
      "note": 22,
      "start": 22.8153,
      "duration": 0.0352,
      "velocity": 125,
      "chip": "ym2612"
    },
    {
      "channel": 4,
      "note": 76,
      "start": 22.8191,
      "duration": 0.0001,
      "velocity": 1,
      "chip": "ym2612"
    },
    {
      "channel": 0,
      "note": 52,
      "start": 22.8493,
      "duration": 0.0068,
      "velocity": 107,
      "chip": "ym2612"
    },
    {
      "channel": 4,
      "note": 76,
      "start": 22.8537,
      "duration": 0.0001,
      "velocity": 1,
      "chip": "ym2612"
    },
    {
      "channel": 0,
      "note": 40,
      "start": 22.8784,
      "duration": 0.0056,
      "velocity": 107,
      "chip": "ym2612"
    },
    {
      "channel": 0,
      "note": 40,
      "start": 22.9064,
      "duration": 0.0063,
      "velocity": 107,
      "chip": "ym2612"
    },
    {
      "channel": 4,
      "note": 76,
      "start": 22.9102,
      "duration": 0.0001,
      "velocity": 1,
      "chip": "ym2612"
    },
    {
      "channel": 0,
      "note": 52,
      "start": 22.9378,
      "duration": 0.0055,
      "velocity": 107,
      "chip": "ym2612"
    },
    {
      "channel": 4,
      "note": 76,
      "start": 22.9659,
      "duration": 0.0001,
      "velocity": 1,
      "chip": "ym2612"
    },
    {
      "channel": 0,
      "note": 40,
      "start": 22.9898,
      "duration": 0.0064,
      "velocity": 107,
      "chip": "ym2612"
    },
    {
      "channel": 4,
      "note": 76,
      "start": 22.9937,
      "duration": 0.0001,
      "velocity": 1,
      "chip": "ym2612"
    },
    {
      "channel": 0,
      "note": 40,
      "start": 23.0195,
      "duration": 0.0053,
      "velocity": 107,
      "chip": "ym2612"
    },
    {
      "channel": 0,
      "note": 40,
      "start": 23.0479,
      "duration": 0.0124,
      "velocity": 107,
      "chip": "ym2612"
    },
    {
      "channel": 1,
      "note": 22,
      "start": 23.0505,
      "duration": 0.035,
      "velocity": 125,
      "chip": "ym2612"
    },
    {
      "channel": 2,
      "note": 88,
      "start": 23.0532,
      "duration": 0.063,
      "velocity": 106,
      "chip": "ym2612"
    },
    {
      "channel": 4,
      "note": 76,
      "start": 23.0564,
      "duration": 0.0001,
      "velocity": 1,
      "chip": "ym2612"
    },
    {
      "channel": 0,
      "note": 52,
      "start": 23.0844,
      "duration": 0.0046,
      "velocity": 107,
      "chip": "ym2612"
    },
    {
      "channel": 0,
      "note": 40,
      "start": 23.115,
      "duration": 0.0123,
      "velocity": 107,
      "chip": "ym2612"
    },
    {
      "channel": 2,
      "note": 87,
      "start": 23.1179,
      "duration": 0.0672,
      "velocity": 106,
      "chip": "ym2612"
    },
    {
      "channel": 3,
      "note": 88,
      "start": 23.1207,
      "duration": 0.0672,
      "velocity": 106,
      "chip": "ym2612"
    },
    {
      "channel": 4,
      "note": 76,
      "start": 23.1234,
      "duration": 0.0001,
      "velocity": 1,
      "chip": "ym2612"
    },
    {
      "channel": 0,
      "note": 40,
      "start": 23.1525,
      "duration": 0.0078,
      "velocity": 107,
      "chip": "ym2612"
    },
    {
      "channel": 4,
      "note": 76,
      "start": 23.1563,
      "duration": 0.0001,
      "velocity": 1,
      "chip": "ym2612"
    },
    {
      "channel": 0,
      "note": 52,
      "start": 23.1841,
      "duration": 0.0122,
      "velocity": 107,
      "chip": "ym2612"
    },
    {
      "channel": 2,
      "note": 85,
      "start": 23.1868,
      "duration": 0.2422,
      "velocity": 106,
      "chip": "ym2612"
    },
    {
      "channel": 3,
      "note": 87,
      "start": 23.1896,
      "duration": 0.0525,
      "velocity": 106,
      "chip": "ym2612"
    },
    {
      "channel": 4,
      "note": 71,
      "start": 23.1924,
      "duration": 0.0001,
      "velocity": 1,
      "chip": "ym2612"
    },
    {
      "channel": 0,
      "note": 47,
      "start": 23.2406,
      "duration": 0.0085,
      "velocity": 107,
      "chip": "ym2612"
    },
    {
      "channel": 3,
      "note": 85,
      "start": 23.2439,
      "duration": 0.2377,
      "velocity": 106,
      "chip": "ym2612"
    },
    {
      "channel": 4,
      "note": 71,
      "start": 23.2467,
      "duration": 0.0001,
      "velocity": 1,
      "chip": "ym2612"
    },
    {
      "channel": 0,
      "note": 47,
      "start": 23.2735,
      "duration": 0.0053,
      "velocity": 107,
      "chip": "ym2612"
    },
    {
      "channel": 0,
      "note": 47,
      "start": 23.3017,
      "duration": 0.0105,
      "velocity": 107,
      "chip": "ym2612"
    },
    {
      "channel": 1,
      "note": 22,
      "start": 23.3044,
      "duration": 0.0335,
      "velocity": 125,
      "chip": "ym2612"
    },
    {
      "channel": 4,
      "note": 71,
      "start": 23.3082,
      "duration": 0.0001,
      "velocity": 1,
      "chip": "ym2612"
    },
    {
      "channel": 0,
      "note": 59,
      "start": 23.3367,
      "duration": 0.0069,
      "velocity": 107,
      "chip": "ym2612"
    },
    {
      "channel": 4,
      "note": 71,
      "start": 23.3411,
      "duration": 0.0001,
      "velocity": 1,
      "chip": "ym2612"
    },
    {
      "channel": 0,
      "note": 47,
      "start": 23.3686,
      "duration": 0.0057,
      "velocity": 107,
      "chip": "ym2612"
    },
    {
      "channel": 0,
      "note": 47,
      "start": 23.3966,
      "duration": 0.0064,
      "velocity": 107,
      "chip": "ym2612"
    },
    {
      "channel": 4,
      "note": 71,
      "start": 23.4004,
      "duration": 0.0001,
      "velocity": 1,
      "chip": "ym2612"
    },
    {
      "channel": 0,
      "note": 59,
      "start": 23.428,
      "duration": 0.0056,
      "velocity": 107,
      "chip": "ym2612"
    },
    {
      "channel": 4,
      "note": 71,
      "start": 23.4562,
      "duration": 0.0001,
      "velocity": 1,
      "chip": "ym2612"
    },
    {
      "channel": 0,
      "note": 47,
      "start": 23.4802,
      "duration": 0.0063,
      "velocity": 107,
      "chip": "ym2612"
    },
    {
      "channel": 4,
      "note": 71,
      "start": 23.4841,
      "duration": 0.0001,
      "velocity": 1,
      "chip": "ym2612"
    },
    {
      "channel": 0,
      "note": 47,
      "start": 23.5099,
      "duration": 0.0077,
      "velocity": 107,
      "chip": "ym2612"
    },
    {
      "channel": 4,
      "note": 71,
      "start": 23.5136,
      "duration": 0.0001,
      "velocity": 1,
      "chip": "ym2612"
    },
    {
      "channel": 0,
      "note": 47,
      "start": 23.5416,
      "duration": 0.0102,
      "velocity": 107,
      "chip": "ym2612"
    },
    {
      "channel": 1,
      "note": 22,
      "start": 23.5443,
      "duration": 0.0329,
      "velocity": 125,
      "chip": "ym2612"
    },
    {
      "channel": 4,
      "note": 71,
      "start": 23.5478,
      "duration": 0.0001,
      "velocity": 1,
      "chip": "ym2612"
    },
    {
      "channel": 0,
      "note": 59,
      "start": 23.576,
      "duration": 0.0046,
      "velocity": 107,
      "chip": "ym2612"
    },
    {
      "channel": 0,
      "note": 47,
      "start": 23.6061,
      "duration": 0.0102,
      "velocity": 107,
      "chip": "ym2612"
    },
    {
      "channel": 1,
      "note": 22,
      "start": 23.6088,
      "duration": 0.036,
      "velocity": 125,
      "chip": "ym2612"
    },
    {
      "channel": 4,
      "note": 71,
      "start": 23.6124,
      "duration": 0.0001,
      "velocity": 1,
      "chip": "ym2612"
    },
    {
      "channel": 0,
      "note": 47,
      "start": 23.6439,
      "duration": 0.0102,
      "velocity": 107,
      "chip": "ym2612"
    },
    {
      "channel": 1,
      "note": 28,
      "start": 23.6466,
      "duration": 0.0359,
      "velocity": 125,
      "chip": "ym2612"
    },
    {
      "channel": 4,
      "note": 71,
      "start": 23.6501,
      "duration": 0.0001,
      "velocity": 1,
      "chip": "ym2612"
    },
    {
      "channel": 0,
      "note": 59,
      "start": 23.6814,
      "duration": 0.0106,
      "velocity": 107,
      "chip": "ym2612"
    },
    {
      "channel": 2,
      "note": 84,
      "start": 23.6848,
      "duration": 0.2414,
      "velocity": 106,
      "chip": "ym2612"
    },
    {
      "channel": 4,
      "note": 78,
      "start": 23.688,
      "duration": 0.0001,
      "velocity": 1,
      "chip": "ym2612"
    },
    {
      "channel": 0,
      "note": 44,
      "start": 23.7377,
      "duration": 0.0087,
      "velocity": 107,
      "chip": "ym2612"
    },
    {
      "channel": 3,
      "note": 84,
      "start": 23.7411,
      "duration": 0.2376,
      "velocity": 106,
      "chip": "ym2612"
    },
    {
      "channel": 4,
      "note": 78,
      "start": 23.7439,
      "duration": 0.0001,
      "velocity": 1,
      "chip": "ym2612"
    },
    {
      "channel": 0,
      "note": 44,
      "start": 23.7709,
      "duration": 0.0052,
      "velocity": 107,
      "chip": "ym2612"
    },
    {
      "channel": 0,
      "note": 44,
      "start": 23.799,
      "duration": 0.0105,
      "velocity": 107,
      "chip": "ym2612"
    },
    {
      "channel": 1,
      "note": 22,
      "start": 23.8017,
      "duration": 0.033,
      "velocity": 125,
      "chip": "ym2612"
    },
    {
      "channel": 4,
      "note": 78,
      "start": 23.8056,
      "duration": 0.0001,
      "velocity": 1,
      "chip": "ym2612"
    },
    {
      "channel": 0,
      "note": 56,
      "start": 23.8336,
      "duration": 0.0044,
      "velocity": 107,
      "chip": "ym2612"
    },
    {
      "channel": 0,
      "note": 44,
      "start": 23.8634,
      "duration": 0.008,
      "velocity": 107,
      "chip": "ym2612"
    },
    {
      "channel": 4,
      "note": 78,
      "start": 23.8675,
      "duration": 0.0001,
      "velocity": 1,
      "chip": "ym2612"
    },
    {
      "channel": 0,
      "note": 44,
      "start": 23.8939,
      "duration": 0.0063,
      "velocity": 107,
      "chip": "ym2612"
    },
    {
      "channel": 4,
      "note": 78,
      "start": 23.8977,
      "duration": 0.0001,
      "velocity": 1,
      "chip": "ym2612"
    },
    {
      "channel": 0,
      "note": 56,
      "start": 23.9252,
      "duration": 0.0055,
      "velocity": 107,
      "chip": "ym2612"
    },
    {
      "channel": 4,
      "note": 78,
      "start": 23.9534,
      "duration": 0.0001,
      "velocity": 1,
      "chip": "ym2612"
    },
    {
      "channel": 0,
      "note": 44,
      "start": 23.9773,
      "duration": 0.0064,
      "velocity": 107,
      "chip": "ym2612"
    },
    {
      "channel": 4,
      "note": 78,
      "start": 23.9812,
      "duration": 0.0001,
      "velocity": 1,
      "chip": "ym2612"
    },
    {
      "channel": 0,
      "note": 44,
      "start": 24.0071,
      "duration": 0.0077,
      "velocity": 107,
      "chip": "ym2612"
    },
    {
      "channel": 4,
      "note": 78,
      "start": 24.0108,
      "duration": 0.0001,
      "velocity": 1,
      "chip": "ym2612"
    },
    {
      "channel": 0,
      "note": 44,
      "start": 24.0389,
      "duration": 0.0125,
      "velocity": 107,
      "chip": "ym2612"
    },
    {
      "channel": 1,
      "note": 22,
      "start": 24.0416,
      "duration": 0.0351,
      "velocity": 125,
      "chip": "ym2612"
    },
    {
      "channel": 2,
      "note": 80,
      "start": 24.0442,
      "duration": 0.1295,
      "velocity": 106,
      "chip": "ym2612"
    },
    {
      "channel": 4,
      "note": 78,
      "start": 24.0474,
      "duration": 0.0001,
      "velocity": 1,
      "chip": "ym2612"
    },
    {
      "channel": 0,
      "note": 56,
      "start": 24.0756,
      "duration": 0.0046,
      "velocity": 107,
      "chip": "ym2612"
    },
    {
      "channel": 0,
      "note": 44,
      "start": 24.106,
      "duration": 0.0102,
      "velocity": 107,
      "chip": "ym2612"
    },
    {
      "channel": 3,
      "note": 80,
      "start": 24.1094,
      "duration": 0.1186,
      "velocity": 106,
      "chip": "ym2612"
    },
    {
      "channel": 4,
      "note": 78,
      "start": 24.1122,
      "duration": 0.0001,
      "velocity": 1,
      "chip": "ym2612"
    },
    {
      "channel": 0,
      "note": 44,
      "start": 24.141,
      "duration": 0.0078,
      "velocity": 107,
      "chip": "ym2612"
    },
    {
      "channel": 4,
      "note": 78,
      "start": 24.1448,
      "duration": 0.0001,
      "velocity": 1,
      "chip": "ym2612"
    },
    {
      "channel": 0,
      "note": 56,
      "start": 24.1727,
      "duration": 0.0099,
      "velocity": 107,
      "chip": "ym2612"
    },
    {
      "channel": 2,
      "note": 82,
      "start": 24.1754,
      "duration": 0.1776,
      "velocity": 106,
      "chip": "ym2612"
    },
    {
      "channel": 4,
      "note": 73,
      "start": 24.1786,
      "duration": 0.0001,
      "velocity": 1,
      "chip": "ym2612"
    },
    {
      "channel": 0,
      "note": 39,
      "start": 24.2265,
      "duration": 0.0085,
      "velocity": 107,
      "chip": "ym2612"
    },
    {
      "channel": 3,
      "note": 82,
      "start": 24.2297,
      "duration": 0.1828,
      "velocity": 106,
      "chip": "ym2612"
    },
    {
      "channel": 4,
      "note": 73,
      "start": 24.2325,
      "duration": 0.0001,
      "velocity": 1,
      "chip": "ym2612"
    },
    {
      "channel": 0,
      "note": 39,
      "start": 24.2593,
      "duration": 0.0052,
      "velocity": 107,
      "chip": "ym2612"
    },
    {
      "channel": 0,
      "note": 39,
      "start": 24.2875,
      "duration": 0.0104,
      "velocity": 107,
      "chip": "ym2612"
    },
    {
      "channel": 1,
      "note": 22,
      "start": 24.2901,
      "duration": 0.0332,
      "velocity": 125,
      "chip": "ym2612"
    },
    {
      "channel": 4,
      "note": 73,
      "start": 24.2939,
      "duration": 0.0001,
      "velocity": 1,
      "chip": "ym2612"
    },
    {
      "channel": 0,
      "note": 51,
      "start": 24.3223,
      "duration": 0.0068,
      "velocity": 107,
      "chip": "ym2612"
    },
    {
      "channel": 4,
      "note": 73,
      "start": 24.3266,
      "duration": 0.0001,
      "velocity": 1,
      "chip": "ym2612"
    },
    {
      "channel": 0,
      "note": 39,
      "start": 24.3518,
      "duration": 0.0078,
      "velocity": 107,
      "chip": "ym2612"
    },
    {
      "channel": 2,
      "note": 79,
      "start": 24.3547,
      "duration": 0.1761,
      "velocity": 106,
      "chip": "ym2612"
    },
    {
      "channel": 0,
      "note": 39,
      "start": 24.3818,
      "duration": 0.0063,
      "velocity": 107,
      "chip": "ym2612"
    },
    {
      "channel": 4,
      "note": 73,
      "start": 24.3856,
      "duration": 0.0001,
      "velocity": 1,
      "chip": "ym2612"
    },
    {
      "channel": 0,
      "note": 51,
      "start": 24.4111,
      "duration": 0.0076,
      "velocity": 107,
      "chip": "ym2612"
    },
    {
      "channel": 3,
      "note": 79,
      "start": 24.4143,
      "duration": 0.179,
      "velocity": 106,
      "chip": "ym2612"
    },
    {
      "channel": 4,
      "note": 73,
      "start": 24.4412,
      "duration": 0.0001,
      "velocity": 1,
      "chip": "ym2612"
    },
    {
      "channel": 0,
      "note": 39,
      "start": 24.4649,
      "duration": 0.0064,
      "velocity": 107,
      "chip": "ym2612"
    },
    {
      "channel": 4,
      "note": 73,
      "start": 24.4688,
      "duration": 0.0001,
      "velocity": 1,
      "chip": "ym2612"
    },
    {
      "channel": 0,
      "note": 39,
      "start": 24.4954,
      "duration": 0.0076,
      "velocity": 107,
      "chip": "ym2612"
    },
    {
      "channel": 4,
      "note": 73,
      "start": 24.499,
      "duration": 0.0001,
      "velocity": 1,
      "chip": "ym2612"
    },
    {
      "channel": 0,
      "note": 39,
      "start": 24.5272,
      "duration": 0.0127,
      "velocity": 107,
      "chip": "ym2612"
    },
    {
      "channel": 1,
      "note": 22,
      "start": 24.5299,
      "duration": 0.0351,
      "velocity": 125,
      "chip": "ym2612"
    },
    {
      "channel": 2,
      "note": 75,
      "start": 24.5325,
      "duration": 0.1337,
      "velocity": 106,
      "chip": "ym2612"
    },
    {
      "channel": 4,
      "note": 73,
      "start": 24.5359,
      "duration": 0.0001,
      "velocity": 1,
      "chip": "ym2612"
    },
    {
      "channel": 0,
      "note": 51,
      "start": 24.5639,
      "duration": 0.0044,
      "velocity": 107,
      "chip": "ym2612"
    },
    {
      "channel": 0,
      "note": 39,
      "start": 24.5917,
      "duration": 0.0102,
      "velocity": 107,
      "chip": "ym2612"
    },
    {
      "channel": 3,
      "note": 75,
      "start": 24.595,
      "duration": 0.1269,
      "velocity": 106,
      "chip": "ym2612"
    },
    {
      "channel": 4,
      "note": 73,
      "start": 24.5978,
      "duration": 0.0001,
      "velocity": 1,
      "chip": "ym2612"
    },
    {
      "channel": 0,
      "note": 39,
      "start": 24.6267,
      "duration": 0.0102,
      "velocity": 107,
      "chip": "ym2612"
    },
    {
      "channel": 1,
      "note": 22,
      "start": 24.6294,
      "duration": 0.0362,
      "velocity": 125,
      "chip": "ym2612"
    },
    {
      "channel": 4,
      "note": 73,
      "start": 24.6329,
      "duration": 0.0001,
      "velocity": 1,
      "chip": "ym2612"
    },
    {
      "channel": 0,
      "note": 51,
      "start": 24.6644,
      "duration": 0.0106,
      "velocity": 107,
      "chip": "ym2612"
    },
    {
      "channel": 2,
      "note": 70,
      "start": 24.6678,
      "duration": 0.2389,
      "velocity": 106,
      "chip": "ym2612"
    },
    {
      "channel": 4,
      "note": 76,
      "start": 24.6711,
      "duration": 0.0001,
      "velocity": 1,
      "chip": "ym2612"
    },
    {
      "channel": 0,
      "note": 42,
      "start": 24.7203,
      "duration": 0.0086,
      "velocity": 107,
      "chip": "ym2612"
    },
    {
      "channel": 3,
      "note": 70,
      "start": 24.7237,
      "duration": 0.2352,
      "velocity": 106,
      "chip": "ym2612"
    },
    {
      "channel": 4,
      "note": 76,
      "start": 24.7264,
      "duration": 0.0001,
      "velocity": 1,
      "chip": "ym2612"
    },
    {
      "channel": 0,
      "note": 42,
      "start": 24.754,
      "duration": 0.0053,
      "velocity": 107,
      "chip": "ym2612"
    },
    {
      "channel": 0,
      "note": 42,
      "start": 24.7822,
      "duration": 0.0104,
      "velocity": 107,
      "chip": "ym2612"
    },
    {
      "channel": 1,
      "note": 22,
      "start": 24.7849,
      "duration": 0.0332,
      "velocity": 125,
      "chip": "ym2612"
    },
    {
      "channel": 4,
      "note": 76,
      "start": 24.7887,
      "duration": 0.0001,
      "velocity": 1,
      "chip": "ym2612"
    },
    {
      "channel": 0,
      "note": 54,
      "start": 24.817,
      "duration": 0.0068,
      "velocity": 107,
      "chip": "ym2612"
    },
    {
      "channel": 4,
      "note": 76,
      "start": 24.8213,
      "duration": 0.0001,
      "velocity": 1,
      "chip": "ym2612"
    },
    {
      "channel": 0,
      "note": 42,
      "start": 24.8465,
      "duration": 0.0056,
      "velocity": 107,
      "chip": "ym2612"
    },
    {
      "channel": 0,
      "note": 42,
      "start": 24.8742,
      "duration": 0.0063,
      "velocity": 107,
      "chip": "ym2612"
    },
    {
      "channel": 4,
      "note": 76,
      "start": 24.878,
      "duration": 0.0001,
      "velocity": 1,
      "chip": "ym2612"
    },
    {
      "channel": 0,
      "note": 54,
      "start": 24.9058,
      "duration": 0.0055,
      "velocity": 107,
      "chip": "ym2612"
    },
    {
      "channel": 4,
      "note": 76,
      "start": 24.9337,
      "duration": 0.0001,
      "velocity": 1,
      "chip": "ym2612"
    },
    {
      "channel": 0,
      "note": 42,
      "start": 24.9574,
      "duration": 0.0064,
      "velocity": 107,
      "chip": "ym2612"
    },
    {
      "channel": 4,
      "note": 76,
      "start": 24.9613,
      "duration": 0.0001,
      "velocity": 1,
      "chip": "ym2612"
    },
    {
      "channel": 0,
      "note": 42,
      "start": 24.9875,
      "duration": 0.0053,
      "velocity": 107,
      "chip": "ym2612"
    },
    {
      "channel": 0,
      "note": 42,
      "start": 25.0159,
      "duration": 0.0125,
      "velocity": 107,
      "chip": "ym2612"
    },
    {
      "channel": 1,
      "note": 22,
      "start": 25.0185,
      "duration": 0.0349,
      "velocity": 125,
      "chip": "ym2612"
    },
    {
      "channel": 2,
      "note": 78,
      "start": 25.0212,
      "duration": 0.1267,
      "velocity": 106,
      "chip": "ym2612"
    },
    {
      "channel": 4,
      "note": 76,
      "start": 25.0244,
      "duration": 0.0001,
      "velocity": 1,
      "chip": "ym2612"
    },
    {
      "channel": 0,
      "note": 54,
      "start": 25.0523,
      "duration": 0.0046,
      "velocity": 107,
      "chip": "ym2612"
    },
    {
      "channel": 0,
      "note": 42,
      "start": 25.0803,
      "duration": 0.0102,
      "velocity": 107,
      "chip": "ym2612"
    },
    {
      "channel": 3,
      "note": 78,
      "start": 25.0837,
      "duration": 0.1187,
      "velocity": 106,
      "chip": "ym2612"
    },
    {
      "channel": 4,
      "note": 76,
      "start": 25.0865,
      "duration": 0.0001,
      "velocity": 1,
      "chip": "ym2612"
    },
    {
      "channel": 0,
      "note": 42,
      "start": 25.1152,
      "duration": 0.0077,
      "velocity": 107,
      "chip": "ym2612"
    },
    {
      "channel": 4,
      "note": 76,
      "start": 25.119,
      "duration": 0.0001,
      "velocity": 1,
      "chip": "ym2612"
    },
    {
      "channel": 0,
      "note": 54,
      "start": 25.1468,
      "duration": 0.01,
      "velocity": 107,
      "chip": "ym2612"
    },
    {
      "channel": 2,
      "note": 80,
      "start": 25.1496,
      "duration": 0.1775,
      "velocity": 106,
      "chip": "ym2612"
    },
    {
      "channel": 4,
      "note": 71,
      "start": 25.1528,
      "duration": 0.0001,
      "velocity": 1,
      "chip": "ym2612"
    },
    {
      "channel": 0,
      "note": 49,
      "start": 25.2009,
      "duration": 0.0085,
      "velocity": 107,
      "chip": "ym2612"
    },
    {
      "channel": 3,
      "note": 80,
      "start": 25.2041,
      "duration": 0.1852,
      "velocity": 106,
      "chip": "ym2612"
    },
    {
      "channel": 4,
      "note": 71,
      "start": 25.2069,
      "duration": 0.0001,
      "velocity": 1,
      "chip": "ym2612"
    },
    {
      "channel": 0,
      "note": 49,
      "start": 25.2334,
      "duration": 0.0052,
      "velocity": 107,
      "chip": "ym2612"
    },
    {
      "channel": 0,
      "note": 49,
      "start": 25.2617,
      "duration": 0.0104,
      "velocity": 107,
      "chip": "ym2612"
    },
    {
      "channel": 1,
      "note": 22,
      "start": 25.2644,
      "duration": 0.0333,
      "velocity": 125,
      "chip": "ym2612"
    },
    {
      "channel": 4,
      "note": 71,
      "start": 25.2681,
      "duration": 0.0001,
      "velocity": 1,
      "chip": "ym2612"
    },
    {
      "channel": 0,
      "note": 61,
      "start": 25.2965,
      "duration": 0.0068,
      "velocity": 107,
      "chip": "ym2612"
    },
    {
      "channel": 4,
      "note": 71,
      "start": 25.3008,
      "duration": 0.0001,
      "velocity": 1,
      "chip": "ym2612"
    },
    {
      "channel": 0,
      "note": 49,
      "start": 25.3259,
      "duration": 0.0078,
      "velocity": 107,
      "chip": "ym2612"
    },
    {
      "channel": 2,
      "note": 77,
      "start": 25.3288,
      "duration": 0.1788,
      "velocity": 106,
      "chip": "ym2612"
    },
    {
      "channel": 0,
      "note": 49,
      "start": 25.356,
      "duration": 0.0063,
      "velocity": 107,
      "chip": "ym2612"
    },
    {
      "channel": 4,
      "note": 71,
      "start": 25.3598,
      "duration": 0.0001,
      "velocity": 1,
      "chip": "ym2612"
    },
    {
      "channel": 0,
      "note": 61,
      "start": 25.3878,
      "duration": 0.0076,
      "velocity": 107,
      "chip": "ym2612"
    },
    {
      "channel": 3,
      "note": 77,
      "start": 25.3911,
      "duration": 0.1841,
      "velocity": 106,
      "chip": "ym2612"
    },
    {
      "channel": 4,
      "note": 71,
      "start": 25.4181,
      "duration": 0.0001,
      "velocity": 1,
      "chip": "ym2612"
    },
    {
      "channel": 0,
      "note": 49,
      "start": 25.4417,
      "duration": 0.0064,
      "velocity": 107,
      "chip": "ym2612"
    },
    {
      "channel": 4,
      "note": 71,
      "start": 25.4456,
      "duration": 0.0001,
      "velocity": 1,
      "chip": "ym2612"
    },
    {
      "channel": 0,
      "note": 49,
      "start": 25.4721,
      "duration": 0.0076,
      "velocity": 107,
      "chip": "ym2612"
    },
    {
      "channel": 4,
      "note": 71,
      "start": 25.4758,
      "duration": 0.0001,
      "velocity": 1,
      "chip": "ym2612"
    },
    {
      "channel": 0,
      "note": 49,
      "start": 25.5039,
      "duration": 0.0126,
      "velocity": 107,
      "chip": "ym2612"
    },
    {
      "channel": 1,
      "note": 22,
      "start": 25.5066,
      "duration": 0.0352,
      "velocity": 125,
      "chip": "ym2612"
    },
    {
      "channel": 2,
      "note": 75,
      "start": 25.5093,
      "duration": 0.1416,
      "velocity": 106,
      "chip": "ym2612"
    },
    {
      "channel": 4,
      "note": 71,
      "start": 25.5127,
      "duration": 0.0001,
      "velocity": 1,
      "chip": "ym2612"
    },
    {
      "channel": 0,
      "note": 61,
      "start": 25.5407,
      "duration": 0.0044,
      "velocity": 107,
      "chip": "ym2612"
    },
    {
      "channel": 0,
      "note": 49,
      "start": 25.5711,
      "duration": 0.0125,
      "velocity": 107,
      "chip": "ym2612"
    },
    {
      "channel": 1,
      "note": 22,
      "start": 25.5738,
      "duration": 0.0386,
      "velocity": 125,
      "chip": "ym2612"
    },
    {
      "channel": 3,
      "note": 75,
      "start": 25.577,
      "duration": 0.13,
      "velocity": 106,
      "chip": "ym2612"
    },
    {
      "channel": 4,
      "note": 71,
      "start": 25.5797,
      "duration": 0.0001,
      "velocity": 1,
      "chip": "ym2612"
    },
    {
      "channel": 0,
      "note": 49,
      "start": 25.6114,
      "duration": 0.0102,
      "velocity": 107,
      "chip": "ym2612"
    },
    {
      "channel": 1,
      "note": 28,
      "start": 25.6141,
      "duration": 0.0362,
      "velocity": 125,
      "chip": "ym2612"
    },
    {
      "channel": 4,
      "note": 71,
      "start": 25.6176,
      "duration": 0.0001,
      "velocity": 1,
      "chip": "ym2612"
    },
    {
      "channel": 0,
      "note": 61,
      "start": 25.6491,
      "duration": 0.0106,
      "velocity": 107,
      "chip": "ym2612"
    },
    {
      "channel": 2,
      "note": 73,
      "start": 25.6525,
      "duration": 0.1801,
      "velocity": 106,
      "chip": "ym2612"
    },
    {
      "channel": 4,
      "note": 78,
      "start": 25.6557,
      "duration": 0.0001,
      "velocity": 1,
      "chip": "ym2612"
    },
    {
      "channel": 0,
      "note": 44,
      "start": 25.7053,
      "duration": 0.0086,
      "velocity": 107,
      "chip": "ym2612"
    },
    {
      "channel": 3,
      "note": 73,
      "start": 25.7087,
      "duration": 0.1887,
      "velocity": 106,
      "chip": "ym2612"
    },
    {
      "channel": 4,
      "note": 78,
      "start": 25.7115,
      "duration": 0.0001,
      "velocity": 1,
      "chip": "ym2612"
    },
    {
      "channel": 0,
      "note": 44,
      "start": 25.7387,
      "duration": 0.0053,
      "velocity": 107,
      "chip": "ym2612"
    },
    {
      "channel": 0,
      "note": 44,
      "start": 25.7669,
      "duration": 0.0104,
      "velocity": 107,
      "chip": "ym2612"
    },
    {
      "channel": 1,
      "note": 22,
      "start": 25.7696,
      "duration": 0.033,
      "velocity": 125,
      "chip": "ym2612"
    },
    {
      "channel": 4,
      "note": 78,
      "start": 25.7734,
      "duration": 0.0001,
      "velocity": 1,
      "chip": "ym2612"
    },
    {
      "channel": 0,
      "note": 56,
      "start": 25.8014,
      "duration": 0.0045,
      "velocity": 107,
      "chip": "ym2612"
    },
    {
      "channel": 0,
      "note": 44,
      "start": 25.8315,
      "duration": 0.0102,
      "velocity": 107,
      "chip": "ym2612"
    },
    {
      "channel": 2,
      "note": 73,
      "start": 25.8343,
      "duration": 0.1813,
      "velocity": 106,
      "chip": "ym2612"
    },
    {
      "channel": 4,
      "note": 78,
      "start": 25.8377,
      "duration": 0.0001,
      "velocity": 1,
      "chip": "ym2612"
    },
    {
      "channel": 0,
      "note": 44,
      "start": 25.864,
      "duration": 0.0062,
      "velocity": 107,
      "chip": "ym2612"
    },
    {
      "channel": 4,
      "note": 78,
      "start": 25.8678,
      "duration": 0.0001,
      "velocity": 1,
      "chip": "ym2612"
    },
    {
      "channel": 0,
      "note": 56,
      "start": 25.8959,
      "duration": 0.0076,
      "velocity": 107,
      "chip": "ym2612"
    },
    {
      "channel": 3,
      "note": 73,
      "start": 25.8992,
      "duration": 0.1816,
      "velocity": 106,
      "chip": "ym2612"
    },
    {
      "channel": 4,
      "note": 78,
      "start": 25.9261,
      "duration": 0.0001,
      "velocity": 1,
      "chip": "ym2612"
    },
    {
      "channel": 0,
      "note": 44,
      "start": 25.9499,
      "duration": 0.0063,
      "velocity": 107,
      "chip": "ym2612"
    },
    {
      "channel": 4,
      "note": 78,
      "start": 25.9538,
      "duration": 0.0001,
      "velocity": 1,
      "chip": "ym2612"
    },
    {
      "channel": 0,
      "note": 44,
      "start": 25.9802,
      "duration": 0.0076,
      "velocity": 107,
      "chip": "ym2612"
    },
    {
      "channel": 4,
      "note": 78,
      "start": 25.9838,
      "duration": 0.0001,
      "velocity": 1,
      "chip": "ym2612"
    },
    {
      "channel": 0,
      "note": 44,
      "start": 26.012,
      "duration": 0.0127,
      "velocity": 107,
      "chip": "ym2612"
    },
    {
      "channel": 1,
      "note": 22,
      "start": 26.0147,
      "duration": 0.0352,
      "velocity": 125,
      "chip": "ym2612"
    },
    {
      "channel": 2,
      "note": 75,
      "start": 26.0173,
      "duration": 0.1294,
      "velocity": 106,
      "chip": "ym2612"
    },
    {
      "channel": 4,
      "note": 78,
      "start": 26.0207,
      "duration": 0.0001,
      "velocity": 1,
      "chip": "ym2612"
    },
    {
      "channel": 0,
      "note": 56,
      "start": 26.0488,
      "duration": 0.0046,
      "velocity": 107,
      "chip": "ym2612"
    },
    {
      "channel": 0,
      "note": 44,
      "start": 26.0791,
      "duration": 0.0102,
      "velocity": 107,
      "chip": "ym2612"
    },
    {
      "channel": 3,
      "note": 75,
      "start": 26.0825,
      "duration": 0.1184,
      "velocity": 106,
      "chip": "ym2612"
    },
    {
      "channel": 4,
      "note": 78,
      "start": 26.0853,
      "duration": 0.0001,
      "velocity": 1,
      "chip": "ym2612"
    },
    {
      "channel": 0,
      "note": 44,
      "start": 26.114,
      "duration": 0.0078,
      "velocity": 107,
      "chip": "ym2612"
    },
    {
      "channel": 4,
      "note": 78,
      "start": 26.1178,
      "duration": 0.0001,
      "velocity": 1,
      "chip": "ym2612"
    },
    {
      "channel": 0,
      "note": 56,
      "start": 26.1456,
      "duration": 0.0098,
      "velocity": 107,
      "chip": "ym2612"
    },
    {
      "channel": 2,
      "note": 80,
      "start": 26.1483,
      "duration": 0.1748,
      "velocity": 106,
      "chip": "ym2612"
    },
    {
      "channel": 4,
      "note": 73,
      "start": 26.1516,
      "duration": 0.0001,
      "velocity": 1,
      "chip": "ym2612"
    },
    {
      "channel": 0,
      "note": 39,
      "start": 26.1994,
      "duration": 0.0085,
      "velocity": 107,
      "chip": "ym2612"
    },
    {
      "channel": 3,
      "note": 80,
      "start": 26.2026,
      "duration": 0.1827,
      "velocity": 106,
      "chip": "ym2612"
    },
    {
      "channel": 4,
      "note": 73,
      "start": 26.2054,
      "duration": 0.0001,
      "velocity": 1,
      "chip": "ym2612"
    },
    {
      "channel": 0,
      "note": 39,
      "start": 26.2294,
      "duration": 0.0052,
      "velocity": 107,
      "chip": "ym2612"
    },
    {
      "channel": 0,
      "note": 39,
      "start": 26.2576,
      "duration": 0.0104,
      "velocity": 107,
      "chip": "ym2612"
    },
    {
      "channel": 1,
      "note": 22,
      "start": 26.2603,
      "duration": 0.0332,
      "velocity": 125,
      "chip": "ym2612"
    },
    {
      "channel": 4,
      "note": 73,
      "start": 26.2641,
      "duration": 0.0001,
      "velocity": 1,
      "chip": "ym2612"
    },
    {
      "channel": 0,
      "note": 51,
      "start": 26.2924,
      "duration": 0.0068,
      "velocity": 107,
      "chip": "ym2612"
    },
    {
      "channel": 4,
      "note": 73,
      "start": 26.2967,
      "duration": 0.0001,
      "velocity": 1,
      "chip": "ym2612"
    },
    {
      "channel": 0,
      "note": 39,
      "start": 26.322,
      "duration": 0.0078,
      "velocity": 107,
      "chip": "ym2612"
    },
    {
      "channel": 2,
      "note": 79,
      "start": 26.3248,
      "duration": 0.2408,
      "velocity": 106,
      "chip": "ym2612"
    },
    {
      "channel": 0,
      "note": 39,
      "start": 26.352,
      "duration": 0.0063,
      "velocity": 107,
      "chip": "ym2612"
    },
    {
      "channel": 4,
      "note": 73,
      "start": 26.3558,
      "duration": 0.0001,
      "velocity": 1,
      "chip": "ym2612"
    },
    {
      "channel": 0,
      "note": 51,
      "start": 26.3839,
      "duration": 0.0076,
      "velocity": 107,
      "chip": "ym2612"
    },
    {
      "channel": 3,
      "note": 79,
      "start": 26.3871,
      "duration": 0.2548,
      "velocity": 106,
      "chip": "ym2612"
    },
    {
      "channel": 4,
      "note": 73,
      "start": 26.4141,
      "duration": 0.0001,
      "velocity": 1,
      "chip": "ym2612"
    },
    {
      "channel": 0,
      "note": 39,
      "start": 26.438,
      "duration": 0.0064,
      "velocity": 107,
      "chip": "ym2612"
    },
    {
      "channel": 4,
      "note": 73,
      "start": 26.4419,
      "duration": 0.0001,
      "velocity": 1,
      "chip": "ym2612"
    },
    {
      "channel": 0,
      "note": 39,
      "start": 26.4665,
      "duration": 0.0076,
      "velocity": 107,
      "chip": "ym2612"
    },
    {
      "channel": 4,
      "note": 73,
      "start": 26.4701,
      "duration": 0.0001,
      "velocity": 1,
      "chip": "ym2612"
    },
    {
      "channel": 0,
      "note": 39,
      "start": 26.4999,
      "duration": 0.0105,
      "velocity": 107,
      "chip": "ym2612"
    },
    {
      "channel": 1,
      "note": 22,
      "start": 26.5026,
      "duration": 0.0331,
      "velocity": 125,
      "chip": "ym2612"
    },
    {
      "channel": 4,
      "note": 73,
      "start": 26.5064,
      "duration": 0.0001,
      "velocity": 1,
      "chip": "ym2612"
    },
    {
      "channel": 0,
      "note": 51,
      "start": 26.5346,
      "duration": 0.0044,
      "velocity": 107,
      "chip": "ym2612"
    },
    {
      "channel": 0,
      "note": 39,
      "start": 26.5645,
      "duration": 0.0101,
      "velocity": 107,
      "chip": "ym2612"
    },
    {
      "channel": 2,
      "note": 83,
      "start": 26.5673,
      "duration": 0.0719,
      "velocity": 106,
      "chip": "ym2612"
    },
    {
      "channel": 4,
      "note": 73,
      "start": 26.5706,
      "duration": 0.0001,
      "velocity": 1,
      "chip": "ym2612"
    },
    {
      "channel": 0,
      "note": 39,
      "start": 26.5996,
      "duration": 0.0102,
      "velocity": 107,
      "chip": "ym2612"
    },
    {
      "channel": 1,
      "note": 22,
      "start": 26.6023,
      "duration": 0.0363,
      "velocity": 125,
      "chip": "ym2612"
    },
    {
      "channel": 4,
      "note": 73,
      "start": 26.6058,
      "duration": 0.0001,
      "velocity": 1,
      "chip": "ym2612"
    },
    {
      "channel": 0,
      "note": 51,
      "start": 26.6375,
      "duration": 0.0129,
      "velocity": 107,
      "chip": "ym2612"
    },
    {
      "channel": 2,
      "note": 75,
      "start": 26.6409,
      "duration": 0.2386,
      "velocity": 106,
      "chip": "ym2612"
    },
    {
      "channel": 3,
      "note": 83,
      "start": 26.6436,
      "duration": 0.0536,
      "velocity": 106,
      "chip": "ym2612"
    },
    {
      "channel": 4,
      "note": 76,
      "start": 26.6464,
      "duration": 0.0001,
      "velocity": 1,
      "chip": "ym2612"
    },
    {
      "channel": 0,
      "note": 42,
      "start": 26.6956,
      "duration": 0.0087,
      "velocity": 107,
      "chip": "ym2612"
    },
    {
      "channel": 3,
      "note": 75,
      "start": 26.699,
      "duration": 0.2326,
      "velocity": 106,
      "chip": "ym2612"
    },
    {
      "channel": 4,
      "note": 76,
      "start": 26.7017,
      "duration": 0.0001,
      "velocity": 1,
      "chip": "ym2612"
    },
    {
      "channel": 0,
      "note": 42,
      "start": 26.7267,
      "duration": 0.0053,
      "velocity": 107,
      "chip": "ym2612"
    },
    {
      "channel": 0,
      "note": 42,
      "start": 26.7549,
      "duration": 0.0104,
      "velocity": 107,
      "chip": "ym2612"
    },
    {
      "channel": 1,
      "note": 22,
      "start": 26.7576,
      "duration": 0.0332,
      "velocity": 125,
      "chip": "ym2612"
    },
    {
      "channel": 4,
      "note": 76,
      "start": 26.7614,
      "duration": 0.0001,
      "velocity": 1,
      "chip": "ym2612"
    },
    {
      "channel": 0,
      "note": 54,
      "start": 26.7897,
      "duration": 0.0068,
      "velocity": 107,
      "chip": "ym2612"
    },
    {
      "channel": 4,
      "note": 76,
      "start": 26.794,
      "duration": 0.0001,
      "velocity": 1,
      "chip": "ym2612"
    },
    {
      "channel": 0,
      "note": 42,
      "start": 26.8191,
      "duration": 0.0056,
      "velocity": 107,
      "chip": "ym2612"
    },
    {
      "channel": 0,
      "note": 42,
      "start": 26.8469,
      "duration": 0.0063,
      "velocity": 107,
      "chip": "ym2612"
    },
    {
      "channel": 4,
      "note": 76,
      "start": 26.8507,
      "duration": 0.0001,
      "velocity": 1,
      "chip": "ym2612"
    },
    {
      "channel": 0,
      "note": 54,
      "start": 26.8785,
      "duration": 0.0055,
      "velocity": 107,
      "chip": "ym2612"
    },
    {
      "channel": 4,
      "note": 76,
      "start": 26.9065,
      "duration": 0.0001,
      "velocity": 1,
      "chip": "ym2612"
    },
    {
      "channel": 0,
      "note": 42,
      "start": 26.9302,
      "duration": 0.0063,
      "velocity": 107,
      "chip": "ym2612"
    },
    {
      "channel": 4,
      "note": 76,
      "start": 26.934,
      "duration": 0.0001,
      "velocity": 1,
      "chip": "ym2612"
    },
    {
      "channel": 0,
      "note": 42,
      "start": 26.9602,
      "duration": 0.0052,
      "velocity": 107,
      "chip": "ym2612"
    },
    {
      "channel": 0,
      "note": 42,
      "start": 26.9885,
      "duration": 0.0125,
      "velocity": 107,
      "chip": "ym2612"
    },
    {
      "channel": 1,
      "note": 22,
      "start": 26.9912,
      "duration": 0.0349,
      "velocity": 125,
      "chip": "ym2612"
    },
    {
      "channel": 2,
      "note": 78,
      "start": 26.9938,
      "duration": 0.0604,
      "velocity": 106,
      "chip": "ym2612"
    },
    {
      "channel": 4,
      "note": 76,
      "start": 26.997,
      "duration": 0.0001,
      "velocity": 1,
      "chip": "ym2612"
    },
    {
      "channel": 0,
      "note": 54,
      "start": 27.0249,
      "duration": 0.0044,
      "velocity": 107,
      "chip": "ym2612"
    },
    {
      "channel": 0,
      "note": 42,
      "start": 27.053,
      "duration": 0.0123,
      "velocity": 107,
      "chip": "ym2612"
    },
    {
      "channel": 2,
      "note": 77,
      "start": 27.0558,
      "duration": 0.0675,
      "velocity": 106,
      "chip": "ym2612"
    },
    {
      "channel": 3,
      "note": 78,
      "start": 27.0586,
      "duration": 0.0674,
      "velocity": 106,
      "chip": "ym2612"
    },
    {
      "channel": 4,
      "note": 76,
      "start": 27.0614,
      "duration": 0.0001,
      "velocity": 1,
      "chip": "ym2612"
    },
    {
      "channel": 0,
      "note": 42,
      "start": 27.0904,
      "duration": 0.0077,
      "velocity": 107,
      "chip": "ym2612"
    },
    {
      "channel": 4,
      "note": 76,
      "start": 27.0942,
      "duration": 0.0001,
      "velocity": 1,
      "chip": "ym2612"
    },
    {
      "channel": 0,
      "note": 54,
      "start": 27.1222,
      "duration": 0.0122,
      "velocity": 107,
      "chip": "ym2612"
    },
    {
      "channel": 2,
      "note": 75,
      "start": 27.125,
      "duration": 0.2363,
      "velocity": 106,
      "chip": "ym2612"
    },
    {
      "channel": 3,
      "note": 77,
      "start": 27.1277,
      "duration": 0.0522,
      "velocity": 106,
      "chip": "ym2612"
    },
    {
      "channel": 4,
      "note": 71,
      "start": 27.1305,
      "duration": 0.0001,
      "velocity": 1,
      "chip": "ym2612"
    },
    {
      "channel": 0,
      "note": 49,
      "start": 27.1784,
      "duration": 0.0085,
      "velocity": 107,
      "chip": "ym2612"
    },
    {
      "channel": 3,
      "note": 75,
      "start": 27.1817,
      "duration": 0.2318,
      "velocity": 106,
      "chip": "ym2612"
    },
    {
      "channel": 4,
      "note": 71,
      "start": 27.1844,
      "duration": 0.0001,
      "velocity": 1,
      "chip": "ym2612"
    },
    {
      "channel": 0,
      "note": 49,
      "start": 27.2085,
      "duration": 0.0053,
      "velocity": 107,
      "chip": "ym2612"
    },
    {
      "channel": 0,
      "note": 49,
      "start": 27.2367,
      "duration": 0.0104,
      "velocity": 107,
      "chip": "ym2612"
    },
    {
      "channel": 1,
      "note": 22,
      "start": 27.2394,
      "duration": 0.0333,
      "velocity": 125,
      "chip": "ym2612"
    },
    {
      "channel": 4,
      "note": 71,
      "start": 27.2432,
      "duration": 0.0001,
      "velocity": 1,
      "chip": "ym2612"
    },
    {
      "channel": 0,
      "note": 61,
      "start": 27.2716,
      "duration": 0.0068,
      "velocity": 107,
      "chip": "ym2612"
    },
    {
      "channel": 4,
      "note": 71,
      "start": 27.2759,
      "duration": 0.0001,
      "velocity": 1,
      "chip": "ym2612"
    },
    {
      "channel": 0,
      "note": 49,
      "start": 27.301,
      "duration": 0.0057,
      "velocity": 107,
      "chip": "ym2612"
    },
    {
      "channel": 0,
      "note": 49,
      "start": 27.3288,
      "duration": 0.0062,
      "velocity": 107,
      "chip": "ym2612"
    },
    {
      "channel": 4,
      "note": 71,
      "start": 27.3326,
      "duration": 0.0001,
      "velocity": 1,
      "chip": "ym2612"
    },
    {
      "channel": 0,
      "note": 61,
      "start": 27.3602,
      "duration": 0.0055,
      "velocity": 107,
      "chip": "ym2612"
    },
    {
      "channel": 4,
      "note": 71,
      "start": 27.3883,
      "duration": 0.0001,
      "velocity": 1,
      "chip": "ym2612"
    },
    {
      "channel": 0,
      "note": 49,
      "start": 27.412,
      "duration": 0.0064,
      "velocity": 107,
      "chip": "ym2612"
    },
    {
      "channel": 4,
      "note": 71,
      "start": 27.4159,
      "duration": 0.0001,
      "velocity": 1,
      "chip": "ym2612"
    },
    {
      "channel": 0,
      "note": 49,
      "start": 27.4421,
      "duration": 0.0077,
      "velocity": 107,
      "chip": "ym2612"
    },
    {
      "channel": 4,
      "note": 71,
      "start": 27.4458,
      "duration": 0.0001,
      "velocity": 1,
      "chip": "ym2612"
    },
    {
      "channel": 0,
      "note": 49,
      "start": 27.4738,
      "duration": 0.0102,
      "velocity": 107,
      "chip": "ym2612"
    },
    {
      "channel": 1,
      "note": 22,
      "start": 27.4765,
      "duration": 0.0327,
      "velocity": 125,
      "chip": "ym2612"
    },
    {
      "channel": 4,
      "note": 71,
      "start": 27.4801,
      "duration": 0.0001,
      "velocity": 1,
      "chip": "ym2612"
    },
    {
      "channel": 0,
      "note": 61,
      "start": 27.508,
      "duration": 0.0046,
      "velocity": 107,
      "chip": "ym2612"
    },
    {
      "channel": 0,
      "note": 49,
      "start": 27.5384,
      "duration": 0.0102,
      "velocity": 107,
      "chip": "ym2612"
    },
    {
      "channel": 1,
      "note": 22,
      "start": 27.5411,
      "duration": 0.0361,
      "velocity": 125,
      "chip": "ym2612"
    },
    {
      "channel": 4,
      "note": 71,
      "start": 27.5446,
      "duration": 0.0001,
      "velocity": 1,
      "chip": "ym2612"
    },
    {
      "channel": 0,
      "note": 49,
      "start": 27.5762,
      "duration": 0.0102,
      "velocity": 107,
      "chip": "ym2612"
    },
    {
      "channel": 1,
      "note": 28,
      "start": 27.5789,
      "duration": 0.0362,
      "velocity": 125,
      "chip": "ym2612"
    },
    {
      "channel": 4,
      "note": 71,
      "start": 27.5824,
      "duration": 0.0001,
      "velocity": 1,
      "chip": "ym2612"
    },
    {
      "channel": 0,
      "note": 61,
      "start": 27.614,
      "duration": 0.0106,
      "velocity": 107,
      "chip": "ym2612"
    },
    {
      "channel": 2,
      "note": 74,
      "start": 27.6174,
      "duration": 0.2415,
      "velocity": 106,
      "chip": "ym2612"
    },
    {
      "channel": 4,
      "note": 78,
      "start": 27.6206,
      "duration": 0.0001,
      "velocity": 1,
      "chip": "ym2612"
    },
    {
      "channel": 0,
      "note": 44,
      "start": 27.6703,
      "duration": 0.0087,
      "velocity": 107,
      "chip": "ym2612"
    },
    {
      "channel": 3,
      "note": 74,
      "start": 27.6737,
      "duration": 0.238,
      "velocity": 106,
      "chip": "ym2612"
    },
    {
      "channel": 4,
      "note": 78,
      "start": 27.6766,
      "duration": 0.0001,
      "velocity": 1,
      "chip": "ym2612"
    },
    {
      "channel": 0,
      "note": 44,
      "start": 27.7035,
      "duration": 0.0052,
      "velocity": 107,
      "chip": "ym2612"
    },
    {
      "channel": 0,
      "note": 44,
      "start": 27.7317,
      "duration": 0.0105,
      "velocity": 107,
      "chip": "ym2612"
    },
    {
      "channel": 1,
      "note": 22,
      "start": 27.7344,
      "duration": 0.0333,
      "velocity": 125,
      "chip": "ym2612"
    },
    {
      "channel": 4,
      "note": 78,
      "start": 27.7382,
      "duration": 0.0001,
      "velocity": 1,
      "chip": "ym2612"
    },
    {
      "channel": 0,
      "note": 56,
      "start": 27.7665,
      "duration": 0.0045,
      "velocity": 107,
      "chip": "ym2612"
    },
    {
      "channel": 0,
      "note": 44,
      "start": 27.7961,
      "duration": 0.008,
      "velocity": 107,
      "chip": "ym2612"
    },
    {
      "channel": 4,
      "note": 78,
      "start": 27.8002,
      "duration": 0.0001,
      "velocity": 1,
      "chip": "ym2612"
    },
    {
      "channel": 0,
      "note": 44,
      "start": 27.8267,
      "duration": 0.0064,
      "velocity": 107,
      "chip": "ym2612"
    },
    {
      "channel": 4,
      "note": 78,
      "start": 27.8305,
      "duration": 0.0001,
      "velocity": 1,
      "chip": "ym2612"
    },
    {
      "channel": 0,
      "note": 56,
      "start": 27.8579,
      "duration": 0.0056,
      "velocity": 107,
      "chip": "ym2612"
    },
    {
      "channel": 4,
      "note": 78,
      "start": 27.8862,
      "duration": 0.0001,
      "velocity": 1,
      "chip": "ym2612"
    },
    {
      "channel": 0,
      "note": 44,
      "start": 27.9103,
      "duration": 0.0064,
      "velocity": 107,
      "chip": "ym2612"
    },
    {
      "channel": 4,
      "note": 78,
      "start": 27.9142,
      "duration": 0.0001,
      "velocity": 1,
      "chip": "ym2612"
    },
    {
      "channel": 0,
      "note": 44,
      "start": 27.9398,
      "duration": 0.0077,
      "velocity": 107,
      "chip": "ym2612"
    },
    {
      "channel": 4,
      "note": 78,
      "start": 27.9435,
      "duration": 0.0001,
      "velocity": 1,
      "chip": "ym2612"
    },
    {
      "channel": 0,
      "note": 44,
      "start": 27.9715,
      "duration": 0.0126,
      "velocity": 107,
      "chip": "ym2612"
    },
    {
      "channel": 1,
      "note": 22,
      "start": 27.9742,
      "duration": 0.0352,
      "velocity": 125,
      "chip": "ym2612"
    },
    {
      "channel": 2,
      "note": 92,
      "start": 27.9768,
      "duration": 0.1292,
      "velocity": 106,
      "chip": "ym2612"
    },
    {
      "channel": 4,
      "note": 78,
      "start": 27.9801,
      "duration": 0.0001,
      "velocity": 1,
      "chip": "ym2612"
    },
    {
      "channel": 0,
      "note": 56,
      "start": 28.0083,
      "duration": 0.0046,
      "velocity": 107,
      "chip": "ym2612"
    },
    {
      "channel": 0,
      "note": 44,
      "start": 28.0385,
      "duration": 0.0102,
      "velocity": 107,
      "chip": "ym2612"
    },
    {
      "channel": 3,
      "note": 92,
      "start": 28.0419,
      "duration": 0.1188,
      "velocity": 106,
      "chip": "ym2612"
    },
    {
      "channel": 4,
      "note": 78,
      "start": 28.0447,
      "duration": 0.0001,
      "velocity": 1,
      "chip": "ym2612"
    },
    {
      "channel": 0,
      "note": 44,
      "start": 28.0735,
      "duration": 0.0078,
      "velocity": 107,
      "chip": "ym2612"
    },
    {
      "channel": 4,
      "note": 78,
      "start": 28.0773,
      "duration": 0.0001,
      "velocity": 1,
      "chip": "ym2612"
    },
    {
      "channel": 0,
      "note": 56,
      "start": 28.105,
      "duration": 0.01,
      "velocity": 107,
      "chip": "ym2612"
    },
    {
      "channel": 2,
      "note": 94,
      "start": 28.1077,
      "duration": 0.1804,
      "velocity": 106,
      "chip": "ym2612"
    },
    {
      "channel": 4,
      "note": 73,
      "start": 28.111,
      "duration": 0.0001,
      "velocity": 1,
      "chip": "ym2612"
    },
    {
      "channel": 0,
      "note": 39,
      "start": 28.1593,
      "duration": 0.0085,
      "velocity": 107,
      "chip": "ym2612"
    },
    {
      "channel": 3,
      "note": 94,
      "start": 28.1625,
      "duration": 0.1879,
      "velocity": 106,
      "chip": "ym2612"
    },
    {
      "channel": 4,
      "note": 73,
      "start": 28.1653,
      "duration": 0.0001,
      "velocity": 1,
      "chip": "ym2612"
    },
    {
      "channel": 0,
      "note": 39,
      "start": 28.1916,
      "duration": 0.0052,
      "velocity": 107,
      "chip": "ym2612"
    },
    {
      "channel": 0,
      "note": 39,
      "start": 28.2199,
      "duration": 0.0104,
      "velocity": 107,
      "chip": "ym2612"
    },
    {
      "channel": 1,
      "note": 22,
      "start": 28.2226,
      "duration": 0.0334,
      "velocity": 125,
      "chip": "ym2612"
    },
    {
      "channel": 4,
      "note": 73,
      "start": 28.2264,
      "duration": 0.0001,
      "velocity": 1,
      "chip": "ym2612"
    },
    {
      "channel": 0,
      "note": 51,
      "start": 28.2549,
      "duration": 0.0068,
      "velocity": 107,
      "chip": "ym2612"
    },
    {
      "channel": 4,
      "note": 73,
      "start": 28.2593,
      "duration": 0.0001,
      "velocity": 1,
      "chip": "ym2612"
    },
    {
      "channel": 0,
      "note": 39,
      "start": 28.2869,
      "duration": 0.0078,
      "velocity": 107,
      "chip": "ym2612"
    },
    {
      "channel": 2,
      "note": 91,
      "start": 28.2898,
      "duration": 0.1788,
      "velocity": 106,
      "chip": "ym2612"
    },
    {
      "channel": 0,
      "note": 39,
      "start": 28.3171,
      "duration": 0.0063,
      "velocity": 107,
      "chip": "ym2612"
    },
    {
      "channel": 4,
      "note": 73,
      "start": 28.3209,
      "duration": 0.0001,
      "velocity": 1,
      "chip": "ym2612"
    },
    {
      "channel": 0,
      "note": 51,
      "start": 28.3489,
      "duration": 0.0077,
      "velocity": 107,
      "chip": "ym2612"
    },
    {
      "channel": 3,
      "note": 91,
      "start": 28.3521,
      "duration": 0.1815,
      "velocity": 106,
      "chip": "ym2612"
    },
    {
      "channel": 4,
      "note": 73,
      "start": 28.3792,
      "duration": 0.0001,
      "velocity": 1,
      "chip": "ym2612"
    },
    {
      "channel": 0,
      "note": 39,
      "start": 28.403,
      "duration": 0.0064,
      "velocity": 107,
      "chip": "ym2612"
    },
    {
      "channel": 4,
      "note": 73,
      "start": 28.4069,
      "duration": 0.0001,
      "velocity": 1,
      "chip": "ym2612"
    },
    {
      "channel": 0,
      "note": 39,
      "start": 28.4332,
      "duration": 0.0076,
      "velocity": 107,
      "chip": "ym2612"
    },
    {
      "channel": 4,
      "note": 73,
      "start": 28.4368,
      "duration": 0.0001,
      "velocity": 1,
      "chip": "ym2612"
    },
    {
      "channel": 0,
      "note": 39,
      "start": 28.465,
      "duration": 0.0127,
      "velocity": 107,
      "chip": "ym2612"
    },
    {
      "channel": 1,
      "note": 22,
      "start": 28.4676,
      "duration": 0.0352,
      "velocity": 125,
      "chip": "ym2612"
    },
    {
      "channel": 2,
      "note": 87,
      "start": 28.4702,
      "duration": 0.1362,
      "velocity": 106,
      "chip": "ym2612"
    },
    {
      "channel": 4,
      "note": 73,
      "start": 28.4737,
      "duration": 0.0001,
      "velocity": 1,
      "chip": "ym2612"
    },
    {
      "channel": 0,
      "note": 51,
      "start": 28.5017,
      "duration": 0.0045,
      "velocity": 107,
      "chip": "ym2612"
    },
    {
      "channel": 0,
      "note": 39,
      "start": 28.532,
      "duration": 0.0102,
      "velocity": 107,
      "chip": "ym2612"
    },
    {
      "channel": 3,
      "note": 87,
      "start": 28.5354,
      "duration": 0.1273,
      "velocity": 106,
      "chip": "ym2612"
    },
    {
      "channel": 4,
      "note": 73,
      "start": 28.5382,
      "duration": 0.0001,
      "velocity": 1,
      "chip": "ym2612"
    },
    {
      "channel": 0,
      "note": 39,
      "start": 28.5671,
      "duration": 0.0102,
      "velocity": 107,
      "chip": "ym2612"
    },
    {
      "channel": 1,
      "note": 22,
      "start": 28.5697,
      "duration": 0.0362,
      "velocity": 125,
      "chip": "ym2612"
    },
    {
      "channel": 4,
      "note": 73,
      "start": 28.5733,
      "duration": 0.0001,
      "velocity": 1,
      "chip": "ym2612"
    },
    {
      "channel": 0,
      "note": 51,
      "start": 28.6048,
      "duration": 0.0106,
      "velocity": 107,
      "chip": "ym2612"
    },
    {
      "channel": 2,
      "note": 82,
      "start": 28.6082,
      "duration": 0.2387,
      "velocity": 106,
      "chip": "ym2612"
    },
    {
      "channel": 4,
      "note": 76,
      "start": 28.6114,
      "duration": 0.0001,
      "velocity": 1,
      "chip": "ym2612"
    },
    {
      "channel": 0,
      "note": 42,
      "start": 28.661,
      "duration": 0.0087,
      "velocity": 107,
      "chip": "ym2612"
    },
    {
      "channel": 3,
      "note": 82,
      "start": 28.6644,
      "duration": 0.2349,
      "velocity": 106,
      "chip": "ym2612"
    },
    {
      "channel": 4,
      "note": 76,
      "start": 28.6672,
      "duration": 0.0001,
      "velocity": 1,
      "chip": "ym2612"
    },
    {
      "channel": 0,
      "note": 42,
      "start": 28.6944,
      "duration": 0.0052,
      "velocity": 107,
      "chip": "ym2612"
    },
    {
      "channel": 0,
      "note": 42,
      "start": 28.7226,
      "duration": 0.0104,
      "velocity": 107,
      "chip": "ym2612"
    },
    {
      "channel": 1,
      "note": 22,
      "start": 28.7253,
      "duration": 0.0334,
      "velocity": 125,
      "chip": "ym2612"
    },
    {
      "channel": 4,
      "note": 76,
      "start": 28.7291,
      "duration": 0.0001,
      "velocity": 1,
      "chip": "ym2612"
    },
    {
      "channel": 0,
      "note": 54,
      "start": 28.7576,
      "duration": 0.0068,
      "velocity": 107,
      "chip": "ym2612"
    },
    {
      "channel": 4,
      "note": 76,
      "start": 28.7619,
      "duration": 0.0001,
      "velocity": 1,
      "chip": "ym2612"
    },
    {
      "channel": 0,
      "note": 42,
      "start": 28.7866,
      "duration": 0.0057,
      "velocity": 107,
      "chip": "ym2612"
    },
    {
      "channel": 0,
      "note": 42,
      "start": 28.8145,
      "duration": 0.0063,
      "velocity": 107,
      "chip": "ym2612"
    },
    {
      "channel": 4,
      "note": 76,
      "start": 28.8183,
      "duration": 0.0001,
      "velocity": 1,
      "chip": "ym2612"
    },
    {
      "channel": 0,
      "note": 54,
      "start": 28.8459,
      "duration": 0.0055,
      "velocity": 107,
      "chip": "ym2612"
    },
    {
      "channel": 4,
      "note": 76,
      "start": 28.874,
      "duration": 0.0001,
      "velocity": 1,
      "chip": "ym2612"
    },
    {
      "channel": 0,
      "note": 42,
      "start": 28.8979,
      "duration": 0.0064,
      "velocity": 107,
      "chip": "ym2612"
    },
    {
      "channel": 4,
      "note": 76,
      "start": 28.9018,
      "duration": 0.0001,
      "velocity": 1,
      "chip": "ym2612"
    },
    {
      "channel": 0,
      "note": 42,
      "start": 28.9276,
      "duration": 0.0054,
      "velocity": 107,
      "chip": "ym2612"
    },
    {
      "channel": 0,
      "note": 42,
      "start": 28.956,
      "duration": 0.0124,
      "velocity": 107,
      "chip": "ym2612"
    },
    {
      "channel": 1,
      "note": 22,
      "start": 28.9586,
      "duration": 0.0351,
      "velocity": 125,
      "chip": "ym2612"
    },
    {
      "channel": 2,
      "note": 90,
      "start": 28.9612,
      "duration": 0.1294,
      "velocity": 106,
      "chip": "ym2612"
    },
    {
      "channel": 4,
      "note": 76,
      "start": 28.9645,
      "duration": 0.0001,
      "velocity": 1,
      "chip": "ym2612"
    },
    {
      "channel": 0,
      "note": 54,
      "start": 28.9926,
      "duration": 0.0046,
      "velocity": 107,
      "chip": "ym2612"
    },
    {
      "channel": 0,
      "note": 42,
      "start": 29.023,
      "duration": 0.0102,
      "velocity": 107,
      "chip": "ym2612"
    },
    {
      "channel": 3,
      "note": 90,
      "start": 29.0264,
      "duration": 0.119,
      "velocity": 106,
      "chip": "ym2612"
    },
    {
      "channel": 4,
      "note": 76,
      "start": 29.0292,
      "duration": 0.0001,
      "velocity": 1,
      "chip": "ym2612"
    },
    {
      "channel": 0,
      "note": 42,
      "start": 29.058,
      "duration": 0.0078,
      "velocity": 107,
      "chip": "ym2612"
    },
    {
      "channel": 4,
      "note": 76,
      "start": 29.0617,
      "duration": 0.0001,
      "velocity": 1,
      "chip": "ym2612"
    },
    {
      "channel": 0,
      "note": 54,
      "start": 29.0896,
      "duration": 0.01,
      "velocity": 107,
      "chip": "ym2612"
    },
    {
      "channel": 2,
      "note": 92,
      "start": 29.0923,
      "duration": 0.1802,
      "velocity": 106,
      "chip": "ym2612"
    },
    {
      "channel": 4,
      "note": 71,
      "start": 29.0956,
      "duration": 0.0001,
      "velocity": 1,
      "chip": "ym2612"
    },
    {
      "channel": 0,
      "note": 49,
      "start": 29.1439,
      "duration": 0.0085,
      "velocity": 107,
      "chip": "ym2612"
    },
    {
      "channel": 3,
      "note": 92,
      "start": 29.1472,
      "duration": 0.1876,
      "velocity": 106,
      "chip": "ym2612"
    },
    {
      "channel": 4,
      "note": 71,
      "start": 29.15,
      "duration": 0.0001,
      "velocity": 1,
      "chip": "ym2612"
    },
    {
      "channel": 0,
      "note": 49,
      "start": 29.1762,
      "duration": 0.0054,
      "velocity": 107,
      "chip": "ym2612"
    },
    {
      "channel": 0,
      "note": 49,
      "start": 29.2044,
      "duration": 0.0105,
      "velocity": 107,
      "chip": "ym2612"
    },
    {
      "channel": 1,
      "note": 22,
      "start": 29.2071,
      "duration": 0.0334,
      "velocity": 125,
      "chip": "ym2612"
    },
    {
      "channel": 4,
      "note": 71,
      "start": 29.2109,
      "duration": 0.0001,
      "velocity": 1,
      "chip": "ym2612"
    },
    {
      "channel": 0,
      "note": 61,
      "start": 29.2394,
      "duration": 0.0069,
      "velocity": 107,
      "chip": "ym2612"
    },
    {
      "channel": 4,
      "note": 71,
      "start": 29.2437,
      "duration": 0.0001,
      "velocity": 1,
      "chip": "ym2612"
    },
    {
      "channel": 0,
      "note": 49,
      "start": 29.2714,
      "duration": 0.0079,
      "velocity": 107,
      "chip": "ym2612"
    },
    {
      "channel": 2,
      "note": 89,
      "start": 29.2742,
      "duration": 0.1787,
      "velocity": 106,
      "chip": "ym2612"
    },
    {
      "channel": 0,
      "note": 49,
      "start": 29.3016,
      "duration": 0.0063,
      "velocity": 107,
      "chip": "ym2612"
    },
    {
      "channel": 4,
      "note": 71,
      "start": 29.3054,
      "duration": 0.0001,
      "velocity": 1,
      "chip": "ym2612"
    },
    {
      "channel": 0,
      "note": 61,
      "start": 29.3333,
      "duration": 0.0077,
      "velocity": 107,
      "chip": "ym2612"
    },
    {
      "channel": 3,
      "note": 89,
      "start": 29.3366,
      "duration": 0.184,
      "velocity": 106,
      "chip": "ym2612"
    },
    {
      "channel": 4,
      "note": 71,
      "start": 29.3636,
      "duration": 0.0001,
      "velocity": 1,
      "chip": "ym2612"
    },
    {
      "channel": 0,
      "note": 49,
      "start": 29.3876,
      "duration": 0.0063,
      "velocity": 107,
      "chip": "ym2612"
    },
    {
      "channel": 4,
      "note": 71,
      "start": 29.3915,
      "duration": 0.0001,
      "velocity": 1,
      "chip": "ym2612"
    },
    {
      "channel": 0,
      "note": 49,
      "start": 29.4176,
      "duration": 0.0076,
      "velocity": 107,
      "chip": "ym2612"
    },
    {
      "channel": 4,
      "note": 71,
      "start": 29.4212,
      "duration": 0.0001,
      "velocity": 1,
      "chip": "ym2612"
    },
    {
      "channel": 0,
      "note": 49,
      "start": 29.4493,
      "duration": 0.0127,
      "velocity": 107,
      "chip": "ym2612"
    },
    {
      "channel": 1,
      "note": 22,
      "start": 29.452,
      "duration": 0.0353,
      "velocity": 125,
      "chip": "ym2612"
    },
    {
      "channel": 2,
      "note": 87,
      "start": 29.4546,
      "duration": 0.1413,
      "velocity": 106,
      "chip": "ym2612"
    },
    {
      "channel": 4,
      "note": 71,
      "start": 29.4581,
      "duration": 0.0001,
      "velocity": 1,
      "chip": "ym2612"
    },
    {
      "channel": 0,
      "note": 61,
      "start": 29.4862,
      "duration": 0.0044,
      "velocity": 107,
      "chip": "ym2612"
    },
    {
      "channel": 0,
      "note": 49,
      "start": 29.5164,
      "duration": 0.0127,
      "velocity": 107,
      "chip": "ym2612"
    },
    {
      "channel": 1,
      "note": 22,
      "start": 29.5191,
      "duration": 0.0385,
      "velocity": 125,
      "chip": "ym2612"
    },
    {
      "channel": 3,
      "note": 87,
      "start": 29.5223,
      "duration": 0.1301,
      "velocity": 106,
      "chip": "ym2612"
    },
    {
      "channel": 4,
      "note": 71,
      "start": 29.5251,
      "duration": 0.0001,
      "velocity": 1,
      "chip": "ym2612"
    },
    {
      "channel": 0,
      "note": 49,
      "start": 29.5567,
      "duration": 0.0102,
      "velocity": 107,
      "chip": "ym2612"
    },
    {
      "channel": 1,
      "note": 28,
      "start": 29.5593,
      "duration": 0.036,
      "velocity": 125,
      "chip": "ym2612"
    },
    {
      "channel": 4,
      "note": 71,
      "start": 29.5629,
      "duration": 0.0001,
      "velocity": 1,
      "chip": "ym2612"
    },
    {
      "channel": 0,
      "note": 61,
      "start": 29.5942,
      "duration": 0.0106,
      "velocity": 107,
      "chip": "ym2612"
    },
    {
      "channel": 2,
      "note": 85,
      "start": 29.5976,
      "duration": 0.1801,
      "velocity": 106,
      "chip": "ym2612"
    },
    {
      "channel": 4,
      "note": 78,
      "start": 29.6009,
      "duration": 0.0001,
      "velocity": 1,
      "chip": "ym2612"
    },
    {
      "channel": 0,
      "note": 44,
      "start": 29.6507,
      "duration": 0.0086,
      "velocity": 107,
      "chip": "ym2612"
    },
    {
      "channel": 3,
      "note": 85,
      "start": 29.6541,
      "duration": 0.1884,
      "velocity": 106,
      "chip": "ym2612"
    },
    {
      "channel": 4,
      "note": 78,
      "start": 29.6569,
      "duration": 0.0001,
      "velocity": 1,
      "chip": "ym2612"
    },
    {
      "channel": 0,
      "note": 44,
      "start": 29.6838,
      "duration": 0.0052,
      "velocity": 107,
      "chip": "ym2612"
    },
    {
      "channel": 0,
      "note": 44,
      "start": 29.712,
      "duration": 0.0105,
      "velocity": 107,
      "chip": "ym2612"
    },
    {
      "channel": 1,
      "note": 22,
      "start": 29.7147,
      "duration": 0.0331,
      "velocity": 125,
      "chip": "ym2612"
    },
    {
      "channel": 4,
      "note": 78,
      "start": 29.7185,
      "duration": 0.0001,
      "velocity": 1,
      "chip": "ym2612"
    },
    {
      "channel": 0,
      "note": 56,
      "start": 29.7466,
      "duration": 0.0046,
      "velocity": 107,
      "chip": "ym2612"
    },
    {
      "channel": 0,
      "note": 44,
      "start": 29.7766,
      "duration": 0.0103,
      "velocity": 107,
      "chip": "ym2612"
    },
    {
      "channel": 2,
      "note": 85,
      "start": 29.7794,
      "duration": 0.1814,
      "velocity": 106,
      "chip": "ym2612"
    },
    {
      "channel": 4,
      "note": 78,
      "start": 29.7828,
      "duration": 0.0001,
      "velocity": 1,
      "chip": "ym2612"
    },
    {
      "channel": 0,
      "note": 44,
      "start": 29.8093,
      "duration": 0.0063,
      "velocity": 107,
      "chip": "ym2612"
    },
    {
      "channel": 4,
      "note": 78,
      "start": 29.8131,
      "duration": 0.0001,
      "velocity": 1,
      "chip": "ym2612"
    },
    {
      "channel": 0,
      "note": 56,
      "start": 29.841,
      "duration": 0.0077,
      "velocity": 107,
      "chip": "ym2612"
    },
    {
      "channel": 3,
      "note": 85,
      "start": 29.8442,
      "duration": 0.1815,
      "velocity": 106,
      "chip": "ym2612"
    },
    {
      "channel": 4,
      "note": 78,
      "start": 29.8713,
      "duration": 0.0001,
      "velocity": 1,
      "chip": "ym2612"
    },
    {
      "channel": 0,
      "note": 44,
      "start": 29.8954,
      "duration": 0.0064,
      "velocity": 107,
      "chip": "ym2612"
    },
    {
      "channel": 4,
      "note": 78,
      "start": 29.8993,
      "duration": 0.0001,
      "velocity": 1,
      "chip": "ym2612"
    },
    {
      "channel": 0,
      "note": 44,
      "start": 29.9254,
      "duration": 0.0077,
      "velocity": 107,
      "chip": "ym2612"
    },
    {
      "channel": 4,
      "note": 78,
      "start": 29.929,
      "duration": 0.0001,
      "velocity": 1,
      "chip": "ym2612"
    },
    {
      "channel": 0,
      "note": 44,
      "start": 29.9571,
      "duration": 0.0128,
      "velocity": 107,
      "chip": "ym2612"
    },
    {
      "channel": 1,
      "note": 22,
      "start": 29.9598,
      "duration": 0.0354,
      "velocity": 125,
      "chip": "ym2612"
    },
    {
      "channel": 2,
      "note": 87,
      "start": 29.9624,
      "duration": 0.1291,
      "velocity": 106,
      "chip": "ym2612"
    },
    {
      "channel": 4,
      "note": 78,
      "start": 29.9659,
      "duration": 0.0001,
      "velocity": 1,
      "chip": "ym2612"
    },
    {
      "channel": 0,
      "note": 56,
      "start": 29.9941,
      "duration": 0.0045,
      "velocity": 107,
      "chip": "ym2612"
    },
    {
      "channel": 0,
      "note": 44,
      "start": 30.0241,
      "duration": 0.0102,
      "velocity": 107,
      "chip": "ym2612"
    },
    {
      "channel": 3,
      "note": 87,
      "start": 30.0275,
      "duration": 0.1185,
      "velocity": 106,
      "chip": "ym2612"
    },
    {
      "channel": 4,
      "note": 78,
      "start": 30.0303,
      "duration": 0.0001,
      "velocity": 1,
      "chip": "ym2612"
    },
    {
      "channel": 0,
      "note": 44,
      "start": 30.0591,
      "duration": 0.0078,
      "velocity": 107,
      "chip": "ym2612"
    },
    {
      "channel": 4,
      "note": 78,
      "start": 30.0629,
      "duration": 0.0001,
      "velocity": 1,
      "chip": "ym2612"
    },
    {
      "channel": 0,
      "note": 56,
      "start": 30.0905,
      "duration": 0.01,
      "velocity": 107,
      "chip": "ym2612"
    },
    {
      "channel": 2,
      "note": 92,
      "start": 30.0932,
      "duration": 0.1802,
      "velocity": 106,
      "chip": "ym2612"
    },
    {
      "channel": 4,
      "note": 73,
      "start": 30.0965,
      "duration": 0.0001,
      "velocity": 1,
      "chip": "ym2612"
    },
    {
      "channel": 0,
      "note": 39,
      "start": 30.1446,
      "duration": 0.0085,
      "velocity": 107,
      "chip": "ym2612"
    },
    {
      "channel": 3,
      "note": 92,
      "start": 30.1478,
      "duration": 0.1879,
      "velocity": 106,
      "chip": "ym2612"
    },
    {
      "channel": 4,
      "note": 73,
      "start": 30.1506,
      "duration": 0.0001,
      "velocity": 1,
      "chip": "ym2612"
    },
    {
      "channel": 0,
      "note": 39,
      "start": 30.1771,
      "duration": 0.0052,
      "velocity": 107,
      "chip": "ym2612"
    },
    {
      "channel": 0,
      "note": 39,
      "start": 30.2053,
      "duration": 0.0104,
      "velocity": 107,
      "chip": "ym2612"
    },
    {
      "channel": 1,
      "note": 22,
      "start": 30.208,
      "duration": 0.0334,
      "velocity": 125,
      "chip": "ym2612"
    },
    {
      "channel": 4,
      "note": 73,
      "start": 30.2118,
      "duration": 0.0001,
      "velocity": 1,
      "chip": "ym2612"
    },
    {
      "channel": 0,
      "note": 51,
      "start": 30.2403,
      "duration": 0.0068,
      "velocity": 107,
      "chip": "ym2612"
    },
    {
      "channel": 4,
      "note": 73,
      "start": 30.2446,
      "duration": 0.0001,
      "velocity": 1,
      "chip": "ym2612"
    },
    {
      "channel": 0,
      "note": 39,
      "start": 30.2723,
      "duration": 0.0079,
      "velocity": 107,
      "chip": "ym2612"
    },
    {
      "channel": 2,
      "note": 91,
      "start": 30.2751,
      "duration": 0.2408,
      "velocity": 106,
      "chip": "ym2612"
    },
    {
      "channel": 0,
      "note": 39,
      "start": 30.3025,
      "duration": 0.0064,
      "velocity": 107,
      "chip": "ym2612"
    },
    {
      "channel": 4,
      "note": 73,
      "start": 30.3063,
      "duration": 0.0001,
      "velocity": 1,
      "chip": "ym2612"
    },
    {
      "channel": 0,
      "note": 51,
      "start": 30.3342,
      "duration": 0.0077,
      "velocity": 107,
      "chip": "ym2612"
    },
    {
      "channel": 3,
      "note": 91,
      "start": 30.3375,
      "duration": 0.2546,
      "velocity": 106,
      "chip": "ym2612"
    },
    {
      "channel": 4,
      "note": 73,
      "start": 30.3647,
      "duration": 0.0001,
      "velocity": 1,
      "chip": "ym2612"
    },
    {
      "channel": 0,
      "note": 39,
      "start": 30.3887,
      "duration": 0.0064,
      "velocity": 107,
      "chip": "ym2612"
    },
    {
      "channel": 4,
      "note": 73,
      "start": 30.3926,
      "duration": 0.0001,
      "velocity": 1,
      "chip": "ym2612"
    },
    {
      "channel": 0,
      "note": 39,
      "start": 30.4185,
      "duration": 0.0076,
      "velocity": 107,
      "chip": "ym2612"
    },
    {
      "channel": 4,
      "note": 73,
      "start": 30.4222,
      "duration": 0.0001,
      "velocity": 1,
      "chip": "ym2612"
    },
    {
      "channel": 0,
      "note": 39,
      "start": 30.4502,
      "duration": 0.0105,
      "velocity": 107,
      "chip": "ym2612"
    },
    {
      "channel": 1,
      "note": 22,
      "start": 30.4529,
      "duration": 0.0332,
      "velocity": 125,
      "chip": "ym2612"
    },
    {
      "channel": 4,
      "note": 73,
      "start": 30.4567,
      "duration": 0.0001,
      "velocity": 1,
      "chip": "ym2612"
    },
    {
      "channel": 0,
      "note": 51,
      "start": 30.4849,
      "duration": 0.0044,
      "velocity": 107,
      "chip": "ym2612"
    },
    {
      "channel": 0,
      "note": 39,
      "start": 30.5147,
      "duration": 0.0101,
      "velocity": 107,
      "chip": "ym2612"
    },
    {
      "channel": 2,
      "note": 95,
      "start": 30.5176,
      "duration": 0.0718,
      "velocity": 106,
      "chip": "ym2612"
    },
    {
      "channel": 4,
      "note": 73,
      "start": 30.5208,
      "duration": 0.0001,
      "velocity": 1,
      "chip": "ym2612"
    },
    {
      "channel": 0,
      "note": 39,
      "start": 30.5498,
      "duration": 0.0102,
      "velocity": 107,
      "chip": "ym2612"
    },
    {
      "channel": 1,
      "note": 22,
      "start": 30.5525,
      "duration": 0.0363,
      "velocity": 125,
      "chip": "ym2612"
    },
    {
      "channel": 4,
      "note": 73,
      "start": 30.5561,
      "duration": 0.0001,
      "velocity": 1,
      "chip": "ym2612"
    },
    {
      "channel": 0,
      "note": 51,
      "start": 30.5877,
      "duration": 0.0129,
      "velocity": 107,
      "chip": "ym2612"
    },
    {
      "channel": 2,
      "note": 87,
      "start": 30.591,
      "duration": 0.2416,
      "velocity": 106,
      "chip": "ym2612"
    },
    {
      "channel": 3,
      "note": 95,
      "start": 30.5938,
      "duration": 0.054,
      "velocity": 106,
      "chip": "ym2612"
    },
    {
      "channel": 4,
      "note": 76,
      "start": 30.5966,
      "duration": 0.0001,
      "velocity": 1,
      "chip": "ym2612"
    },
    {
      "channel": 0,
      "note": 42,
      "start": 30.6462,
      "duration": 0.0086,
      "velocity": 107,
      "chip": "ym2612"
    },
    {
      "channel": 3,
      "note": 87,
      "start": 30.6496,
      "duration": 0.2355,
      "velocity": 106,
      "chip": "ym2612"
    },
    {
      "channel": 4,
      "note": 76,
      "start": 30.6524,
      "duration": 0.0001,
      "velocity": 1,
      "chip": "ym2612"
    },
    {
      "channel": 0,
      "note": 42,
      "start": 30.6801,
      "duration": 0.0052,
      "velocity": 107,
      "chip": "ym2612"
    },
    {
      "channel": 0,
      "note": 42,
      "start": 30.7083,
      "duration": 0.0105,
      "velocity": 107,
      "chip": "ym2612"
    },
    {
      "channel": 1,
      "note": 22,
      "start": 30.711,
      "duration": 0.0335,
      "velocity": 125,
      "chip": "ym2612"
    },
    {
      "channel": 4,
      "note": 76,
      "start": 30.7148,
      "duration": 0.0001,
      "velocity": 1,
      "chip": "ym2612"
    },
    {
      "channel": 0,
      "note": 54,
      "start": 30.7434,
      "duration": 0.0068,
      "velocity": 107,
      "chip": "ym2612"
    },
    {
      "channel": 4,
      "note": 76,
      "start": 30.7477,
      "duration": 0.0001,
      "velocity": 1,
      "chip": "ym2612"
    },
    {
      "channel": 0,
      "note": 42,
      "start": 30.7724,
      "duration": 0.0057,
      "velocity": 107,
      "chip": "ym2612"
    },
    {
      "channel": 0,
      "note": 42,
      "start": 30.8003,
      "duration": 0.0064,
      "velocity": 107,
      "chip": "ym2612"
    },
    {
      "channel": 4,
      "note": 76,
      "start": 30.8041,
      "duration": 0.0001,
      "velocity": 1,
      "chip": "ym2612"
    },
    {
      "channel": 0,
      "note": 54,
      "start": 30.8317,
      "duration": 0.0055,
      "velocity": 107,
      "chip": "ym2612"
    },
    {
      "channel": 4,
      "note": 76,
      "start": 30.8598,
      "duration": 0.0001,
      "velocity": 1,
      "chip": "ym2612"
    },
    {
      "channel": 0,
      "note": 42,
      "start": 30.8837,
      "duration": 0.0064,
      "velocity": 107,
      "chip": "ym2612"
    },
    {
      "channel": 4,
      "note": 76,
      "start": 30.8876,
      "duration": 0.0001,
      "velocity": 1,
      "chip": "ym2612"
    },
    {
      "channel": 0,
      "note": 42,
      "start": 30.9134,
      "duration": 0.0054,
      "velocity": 107,
      "chip": "ym2612"
    },
    {
      "channel": 0,
      "note": 42,
      "start": 30.9417,
      "duration": 0.0125,
      "velocity": 107,
      "chip": "ym2612"
    },
    {
      "channel": 1,
      "note": 22,
      "start": 30.9444,
      "duration": 0.035,
      "velocity": 125,
      "chip": "ym2612"
    },
    {
      "channel": 2,
      "note": 90,
      "start": 30.947,
      "duration": 0.063,
      "velocity": 106,
      "chip": "ym2612"
    },
    {
      "channel": 4,
      "note": 76,
      "start": 30.9502,
      "duration": 0.0001,
      "velocity": 1,
      "chip": "ym2612"
    },
    {
      "channel": 0,
      "note": 54,
      "start": 30.9783,
      "duration": 0.0046,
      "velocity": 107,
      "chip": "ym2612"
    },
    {
      "channel": 0,
      "note": 42,
      "start": 31.0089,
      "duration": 0.0123,
      "velocity": 107,
      "chip": "ym2612"
    },
    {
      "channel": 2,
      "note": 89,
      "start": 31.0117,
      "duration": 0.0672,
      "velocity": 106,
      "chip": "ym2612"
    },
    {
      "channel": 3,
      "note": 90,
      "start": 31.0145,
      "duration": 0.0672,
      "velocity": 106,
      "chip": "ym2612"
    },
    {
      "channel": 4,
      "note": 76,
      "start": 31.0173,
      "duration": 0.0001,
      "velocity": 1,
      "chip": "ym2612"
    },
    {
      "channel": 0,
      "note": 42,
      "start": 31.0464,
      "duration": 0.0078,
      "velocity": 107,
      "chip": "ym2612"
    },
    {
      "channel": 4,
      "note": 76,
      "start": 31.0502,
      "duration": 0.0001,
      "velocity": 1,
      "chip": "ym2612"
    },
    {
      "channel": 0,
      "note": 54,
      "start": 31.0779,
      "duration": 0.0122,
      "velocity": 107,
      "chip": "ym2612"
    },
    {
      "channel": 2,
      "note": 87,
      "start": 31.0807,
      "duration": 0.2398,
      "velocity": 106,
      "chip": "ym2612"
    },
    {
      "channel": 3,
      "note": 89,
      "start": 31.0834,
      "duration": 0.0525,
      "velocity": 106,
      "chip": "ym2612"
    },
    {
      "channel": 4,
      "note": 71,
      "start": 31.0862,
      "duration": 0.0001,
      "velocity": 1,
      "chip": "ym2612"
    },
    {
      "channel": 0,
      "note": 49,
      "start": 31.1344,
      "duration": 0.0085,
      "velocity": 107,
      "chip": "ym2612"
    },
    {
      "channel": 3,
      "note": 87,
      "start": 31.1376,
      "duration": 0.2372,
      "velocity": 106,
      "chip": "ym2612"
    },
    {
      "channel": 4,
      "note": 71,
      "start": 31.1404,
      "duration": 0.0001,
      "velocity": 1,
      "chip": "ym2612"
    },
    {
      "channel": 0,
      "note": 49,
      "start": 31.1673,
      "duration": 0.0053,
      "velocity": 107,
      "chip": "ym2612"
    },
    {
      "channel": 0,
      "note": 49,
      "start": 31.1955,
      "duration": 0.0105,
      "velocity": 107,
      "chip": "ym2612"
    },
    {
      "channel": 1,
      "note": 22,
      "start": 31.1982,
      "duration": 0.0334,
      "velocity": 125,
      "chip": "ym2612"
    },
    {
      "channel": 4,
      "note": 71,
      "start": 31.202,
      "duration": 0.0001,
      "velocity": 1,
      "chip": "ym2612"
    },
    {
      "channel": 0,
      "note": 61,
      "start": 31.2305,
      "duration": 0.0069,
      "velocity": 107,
      "chip": "ym2612"
    },
    {
      "channel": 4,
      "note": 71,
      "start": 31.2348,
      "duration": 0.0001,
      "velocity": 1,
      "chip": "ym2612"
    },
    {
      "channel": 0,
      "note": 49,
      "start": 31.2624,
      "duration": 0.0057,
      "velocity": 107,
      "chip": "ym2612"
    },
    {
      "channel": 0,
      "note": 49,
      "start": 31.2904,
      "duration": 0.0064,
      "velocity": 107,
      "chip": "ym2612"
    },
    {
      "channel": 4,
      "note": 71,
      "start": 31.2942,
      "duration": 0.0001,
      "velocity": 1,
      "chip": "ym2612"
    },
    {
      "channel": 0,
      "note": 61,
      "start": 31.3195,
      "duration": 0.0056,
      "velocity": 107,
      "chip": "ym2612"
    },
    {
      "channel": 4,
      "note": 71,
      "start": 31.3494,
      "duration": 0.0001,
      "velocity": 1,
      "chip": "ym2612"
    },
    {
      "channel": 0,
      "note": 49,
      "start": 31.3734,
      "duration": 0.0063,
      "velocity": 107,
      "chip": "ym2612"
    },
    {
      "channel": 4,
      "note": 71,
      "start": 31.3773,
      "duration": 0.0001,
      "velocity": 1,
      "chip": "ym2612"
    },
    {
      "channel": 0,
      "note": 49,
      "start": 31.4032,
      "duration": 0.0077,
      "velocity": 107,
      "chip": "ym2612"
    },
    {
      "channel": 4,
      "note": 71,
      "start": 31.4068,
      "duration": 0.0001,
      "velocity": 1,
      "chip": "ym2612"
    },
    {
      "channel": 0,
      "note": 49,
      "start": 31.4348,
      "duration": 0.0102,
      "velocity": 107,
      "chip": "ym2612"
    },
    {
      "channel": 1,
      "note": 22,
      "start": 31.4375,
      "duration": 0.0329,
      "velocity": 125,
      "chip": "ym2612"
    },
    {
      "channel": 4,
      "note": 71,
      "start": 31.4411,
      "duration": 0.0001,
      "velocity": 1,
      "chip": "ym2612"
    },
    {
      "channel": 0,
      "note": 61,
      "start": 31.4693,
      "duration": 0.0046,
      "velocity": 107,
      "chip": "ym2612"
    },
    {
      "channel": 0,
      "note": 49,
      "start": 31.4994,
      "duration": 0.0102,
      "velocity": 107,
      "chip": "ym2612"
    },
    {
      "channel": 1,
      "note": 22,
      "start": 31.5021,
      "duration": 0.0361,
      "velocity": 125,
      "chip": "ym2612"
    },
    {
      "channel": 4,
      "note": 71,
      "start": 31.5056,
      "duration": 0.0001,
      "velocity": 1,
      "chip": "ym2612"
    },
    {
      "channel": 0,
      "note": 49,
      "start": 31.5372,
      "duration": 0.0102,
      "velocity": 107,
      "chip": "ym2612"
    },
    {
      "channel": 1,
      "note": 28,
      "start": 31.5398,
      "duration": 0.036,
      "velocity": 125,
      "chip": "ym2612"
    },
    {
      "channel": 4,
      "note": 71,
      "start": 31.5434,
      "duration": 0.0001,
      "velocity": 1,
      "chip": "ym2612"
    },
    {
      "channel": 0,
      "note": 61,
      "start": 31.5747,
      "duration": 0.0106,
      "velocity": 107,
      "chip": "ym2612"
    },
    {
      "channel": 2,
      "note": 86,
      "start": 31.5781,
      "duration": 0.2284,
      "velocity": 106,
      "chip": "ym2612"
    },
    {
      "channel": 4,
      "note": 78,
      "start": 31.5813,
      "duration": 0.0001,
      "velocity": 1,
      "chip": "ym2612"
    },
    {
      "channel": 0,
      "note": 44,
      "start": 31.6311,
      "duration": 0.0087,
      "velocity": 107,
      "chip": "ym2612"
    },
    {
      "channel": 3,
      "note": 86,
      "start": 31.6344,
      "duration": 0.2278,
      "velocity": 106,
      "chip": "ym2612"
    },
    {
      "channel": 4,
      "note": 78,
      "start": 31.6373,
      "duration": 0.0001,
      "velocity": 1,
      "chip": "ym2612"
    },
    {
      "channel": 0,
      "note": 44,
      "start": 31.6894,
      "duration": 0.0105,
      "velocity": 107,
      "chip": "ym2612"
    },
    {
      "channel": 1,
      "note": 22,
      "start": 31.692,
      "duration": 0.0335,
      "velocity": 125,
      "chip": "ym2612"
    },
    {
      "channel": 4,
      "note": 78,
      "start": 31.6959,
      "duration": 0.0001,
      "velocity": 1,
      "chip": "ym2612"
    },
    {
      "channel": 0,
      "note": 44,
      "start": 31.7244,
      "duration": 0.0069,
      "velocity": 107,
      "chip": "ym2612"
    },
    {
      "channel": 4,
      "note": 78,
      "start": 31.7287,
      "duration": 0.0001,
      "velocity": 1,
      "chip": "ym2612"
    },
    {
      "channel": 0,
      "note": 44,
      "start": 31.7787,
      "duration": 0.0064,
      "velocity": 107,
      "chip": "ym2612"
    },
    {
      "channel": 4,
      "note": 78,
      "start": 31.7825,
      "duration": 0.0001,
      "velocity": 1,
      "chip": "ym2612"
    },
    {
      "channel": 0,
      "note": 44,
      "start": 31.8329,
      "duration": 0.0061,
      "velocity": 107,
      "chip": "ym2612"
    },
    {
      "channel": 4,
      "note": 78,
      "start": 31.8366,
      "duration": 0.0001,
      "velocity": 1,
      "chip": "ym2612"
    },
    {
      "channel": 0,
      "note": 44,
      "start": 31.8608,
      "duration": 0.0064,
      "velocity": 107,
      "chip": "ym2612"
    },
    {
      "channel": 4,
      "note": 78,
      "start": 31.8647,
      "duration": 0.0001,
      "velocity": 1,
      "chip": "ym2612"
    },
    {
      "channel": 0,
      "note": 44,
      "start": 31.8902,
      "duration": 0.0077,
      "velocity": 107,
      "chip": "ym2612"
    },
    {
      "channel": 4,
      "note": 78,
      "start": 31.8939,
      "duration": 0.0001,
      "velocity": 1,
      "chip": "ym2612"
    },
    {
      "channel": 0,
      "note": 44,
      "start": 31.9218,
      "duration": 0.0102,
      "velocity": 107,
      "chip": "ym2612"
    },
    {
      "channel": 1,
      "note": 22,
      "start": 31.9245,
      "duration": 0.0297,
      "velocity": 125,
      "chip": "ym2612"
    },
    {
      "channel": 4,
      "note": 78,
      "start": 31.9281,
      "duration": 0.0001,
      "velocity": 1,
      "chip": "ym2612"
    },
    {
      "channel": 0,
      "note": 44,
      "start": 31.981,
      "duration": 0.0078,
      "velocity": 107,
      "chip": "ym2612"
    },
    {
      "channel": 4,
      "note": 78,
      "start": 31.9848,
      "duration": 0.0001,
      "velocity": 1,
      "chip": "ym2612"
    },
    {
      "channel": 0,
      "note": 42,
      "start": 32.0126,
      "duration": 0.0078,
      "velocity": 107,
      "chip": "ym2612"
    },
    {
      "channel": 4,
      "note": 78,
      "start": 32.0164,
      "duration": 0.0001,
      "velocity": 1,
      "chip": "ym2612"
    },
    {
      "channel": 0,
      "note": 42,
      "start": 32.0441,
      "duration": 0.0077,
      "velocity": 107,
      "chip": "ym2612"
    },
    {
      "channel": 4,
      "note": 78,
      "start": 32.0478,
      "duration": 0.0001,
      "velocity": 1,
      "chip": "ym2612"
    },
    {
      "channel": 0,
      "note": 44,
      "start": 32.0957,
      "duration": 0.0061,
      "velocity": 107,
      "chip": "ym2612"
    },
    {
      "channel": 4,
      "note": 78,
      "start": 32.0994,
      "duration": 0.0001,
      "velocity": 1,
      "chip": "ym2612"
    },
    {
      "channel": 0,
      "note": 44,
      "start": 32.151,
      "duration": 0.0102,
      "velocity": 107,
      "chip": "ym2612"
    },
    {
      "channel": 1,
      "note": 22,
      "start": 32.1537,
      "duration": 0.0332,
      "velocity": 125,
      "chip": "ym2612"
    },
    {
      "channel": 4,
      "note": 78,
      "start": 32.1572,
      "duration": 0.0001,
      "velocity": 1,
      "chip": "ym2612"
    },
    {
      "channel": 0,
      "note": 44,
      "start": 32.1858,
      "duration": 0.0069,
      "velocity": 107,
      "chip": "ym2612"
    },
    {
      "channel": 4,
      "note": 78,
      "start": 32.1902,
      "duration": 0.0001,
      "velocity": 1,
      "chip": "ym2612"
    },
    {
      "channel": 0,
      "note": 44,
      "start": 32.2403,
      "duration": 0.0064,
      "velocity": 107,
      "chip": "ym2612"
    },
    {
      "channel": 4,
      "note": 78,
      "start": 32.2442,
      "duration": 0.0001,
      "velocity": 1,
      "chip": "ym2612"
    },
    {
      "channel": 0,
      "note": 44,
      "start": 32.2946,
      "duration": 0.0061,
      "velocity": 107,
      "chip": "ym2612"
    },
    {
      "channel": 4,
      "note": 78,
      "start": 32.2982,
      "duration": 0.0001,
      "velocity": 1,
      "chip": "ym2612"
    },
    {
      "channel": 0,
      "note": 44,
      "start": 32.3224,
      "duration": 0.0063,
      "velocity": 107,
      "chip": "ym2612"
    },
    {
      "channel": 4,
      "note": 78,
      "start": 32.3261,
      "duration": 0.0001,
      "velocity": 1,
      "chip": "ym2612"
    },
    {
      "channel": 0,
      "note": 47,
      "start": 32.3522,
      "duration": 0.0076,
      "velocity": 107,
      "chip": "ym2612"
    },
    {
      "channel": 4,
      "note": 78,
      "start": 32.3558,
      "duration": 0.0001,
      "velocity": 1,
      "chip": "ym2612"
    },
    {
      "channel": 0,
      "note": 47,
      "start": 32.3838,
      "duration": 0.0103,
      "velocity": 107,
      "chip": "ym2612"
    },
    {
      "channel": 1,
      "note": 22,
      "start": 32.3865,
      "duration": 0.0297,
      "velocity": 125,
      "chip": "ym2612"
    },
    {
      "channel": 4,
      "note": 78,
      "start": 32.3901,
      "duration": 0.0001,
      "velocity": 1,
      "chip": "ym2612"
    },
    {
      "channel": 0,
      "note": 47,
      "start": 32.443,
      "duration": 0.0077,
      "velocity": 107,
      "chip": "ym2612"
    },
    {
      "channel": 4,
      "note": 66,
      "start": 32.4468,
      "duration": 0.0001,
      "velocity": 1,
      "chip": "ym2612"
    },
    {
      "channel": 0,
      "note": 42,
      "start": 32.4747,
      "duration": 0.0102,
      "velocity": 107,
      "chip": "ym2612"
    },
    {
      "channel": 1,
      "note": 22,
      "start": 32.4773,
      "duration": 0.0361,
      "velocity": 125,
      "chip": "ym2612"
    },
    {
      "channel": 4,
      "note": 66,
      "start": 32.4809,
      "duration": 0.0001,
      "velocity": 1,
      "chip": "ym2612"
    },
    {
      "channel": 0,
      "note": 42,
      "start": 32.5123,
      "duration": 0.0084,
      "velocity": 107,
      "chip": "ym2612"
    },
    {
      "channel": 4,
      "note": 78,
      "start": 32.5167,
      "duration": 0.0001,
      "velocity": 1,
      "chip": "ym2612"
    },
    {
      "channel": 0,
      "note": 44,
      "start": 32.5661,
      "duration": 0.0063,
      "velocity": 107,
      "chip": "ym2612"
    },
    {
      "channel": 4,
      "note": 78,
      "start": 32.5699,
      "duration": 0.0001,
      "velocity": 1,
      "chip": "ym2612"
    },
    {
      "channel": 0,
      "note": 44,
      "start": 32.6218,
      "duration": 0.0103,
      "velocity": 107,
      "chip": "ym2612"
    },
    {
      "channel": 1,
      "note": 22,
      "start": 32.6245,
      "duration": 0.0332,
      "velocity": 125,
      "chip": "ym2612"
    },
    {
      "channel": 4,
      "note": 78,
      "start": 32.6281,
      "duration": 0.0001,
      "velocity": 1,
      "chip": "ym2612"
    },
    {
      "channel": 0,
      "note": 44,
      "start": 32.6566,
      "duration": 0.0069,
      "velocity": 107,
      "chip": "ym2612"
    },
    {
      "channel": 4,
      "note": 78,
      "start": 32.6609,
      "duration": 0.0001,
      "velocity": 1,
      "chip": "ym2612"
    },
    {
      "channel": 0,
      "note": 44,
      "start": 32.7111,
      "duration": 0.0063,
      "velocity": 107,
      "chip": "ym2612"
    },
    {
      "channel": 4,
      "note": 78,
      "start": 32.7149,
      "duration": 0.0001,
      "velocity": 1,
      "chip": "ym2612"
    },
    {
      "channel": 0,
      "note": 44,
      "start": 32.7653,
      "duration": 0.0063,
      "velocity": 107,
      "chip": "ym2612"
    },
    {
      "channel": 4,
      "note": 78,
      "start": 32.769,
      "duration": 0.0001,
      "velocity": 1,
      "chip": "ym2612"
    },
    {
      "channel": 0,
      "note": 44,
      "start": 32.7932,
      "duration": 0.0061,
      "velocity": 107,
      "chip": "ym2612"
    },
    {
      "channel": 4,
      "note": 78,
      "start": 32.7969,
      "duration": 0.0001,
      "velocity": 1,
      "chip": "ym2612"
    },
    {
      "channel": 0,
      "note": 44,
      "start": 32.8229,
      "duration": 0.0077,
      "velocity": 107,
      "chip": "ym2612"
    },
    {
      "channel": 4,
      "note": 78,
      "start": 32.8266,
      "duration": 0.0001,
      "velocity": 1,
      "chip": "ym2612"
    },
    {
      "channel": 0,
      "note": 44,
      "start": 32.8546,
      "duration": 0.0102,
      "velocity": 107,
      "chip": "ym2612"
    },
    {
      "channel": 1,
      "note": 22,
      "start": 32.8572,
      "duration": 0.0297,
      "velocity": 125,
      "chip": "ym2612"
    },
    {
      "channel": 4,
      "note": 78,
      "start": 32.8608,
      "duration": 0.0001,
      "velocity": 1,
      "chip": "ym2612"
    },
    {
      "channel": 0,
      "note": 44,
      "start": 32.9139,
      "duration": 0.0078,
      "velocity": 107,
      "chip": "ym2612"
    },
    {
      "channel": 4,
      "note": 78,
      "start": 32.9177,
      "duration": 0.0001,
      "velocity": 1,
      "chip": "ym2612"
    },
    {
      "channel": 0,
      "note": 42,
      "start": 32.9454,
      "duration": 0.0078,
      "velocity": 107,
      "chip": "ym2612"
    },
    {
      "channel": 4,
      "note": 78,
      "start": 32.9492,
      "duration": 0.0001,
      "velocity": 1,
      "chip": "ym2612"
    },
    {
      "channel": 0,
      "note": 42,
      "start": 32.9769,
      "duration": 0.0077,
      "velocity": 107,
      "chip": "ym2612"
    },
    {
      "channel": 4,
      "note": 78,
      "start": 32.9806,
      "duration": 0.0001,
      "velocity": 1,
      "chip": "ym2612"
    },
    {
      "channel": 0,
      "note": 44,
      "start": 33.0285,
      "duration": 0.0061,
      "velocity": 107,
      "chip": "ym2612"
    },
    {
      "channel": 4,
      "note": 78,
      "start": 33.0322,
      "duration": 0.0001,
      "velocity": 1,
      "chip": "ym2612"
    },
    {
      "channel": 0,
      "note": 44,
      "start": 33.0834,
      "duration": 0.0102,
      "velocity": 107,
      "chip": "ym2612"
    },
    {
      "channel": 1,
      "note": 22,
      "start": 33.0861,
      "duration": 0.0333,
      "velocity": 125,
      "chip": "ym2612"
    },
    {
      "channel": 4,
      "note": 78,
      "start": 33.0897,
      "duration": 0.0001,
      "velocity": 1,
      "chip": "ym2612"
    },
    {
      "channel": 0,
      "note": 44,
      "start": 33.1182,
      "duration": 0.0069,
      "velocity": 107,
      "chip": "ym2612"
    },
    {
      "channel": 4,
      "note": 78,
      "start": 33.1226,
      "duration": 0.0001,
      "velocity": 1,
      "chip": "ym2612"
    },
    {
      "channel": 0,
      "note": 44,
      "start": 33.1728,
      "duration": 0.0064,
      "velocity": 107,
      "chip": "ym2612"
    },
    {
      "channel": 4,
      "note": 78,
      "start": 33.1766,
      "duration": 0.0001,
      "velocity": 1,
      "chip": "ym2612"
    },
    {
      "channel": 0,
      "note": 44,
      "start": 33.2271,
      "duration": 0.0063,
      "velocity": 107,
      "chip": "ym2612"
    },
    {
      "channel": 4,
      "note": 78,
      "start": 33.2308,
      "duration": 0.0001,
      "velocity": 1,
      "chip": "ym2612"
    },
    {
      "channel": 0,
      "note": 47,
      "start": 33.255,
      "duration": 0.0061,
      "velocity": 107,
      "chip": "ym2612"
    },
    {
      "channel": 4,
      "note": 78,
      "start": 33.2587,
      "duration": 0.0001,
      "velocity": 1,
      "chip": "ym2612"
    },
    {
      "channel": 0,
      "note": 47,
      "start": 33.2846,
      "duration": 0.0076,
      "velocity": 107,
      "chip": "ym2612"
    },
    {
      "channel": 4,
      "note": 78,
      "start": 33.2883,
      "duration": 0.0001,
      "velocity": 1,
      "chip": "ym2612"
    },
    {
      "channel": 0,
      "note": 47,
      "start": 33.3163,
      "duration": 0.0102,
      "velocity": 107,
      "chip": "ym2612"
    },
    {
      "channel": 1,
      "note": 22,
      "start": 33.3189,
      "duration": 0.0296,
      "velocity": 125,
      "chip": "ym2612"
    },
    {
      "channel": 4,
      "note": 78,
      "start": 33.3225,
      "duration": 0.0001,
      "velocity": 1,
      "chip": "ym2612"
    },
    {
      "channel": 0,
      "note": 42,
      "start": 33.3756,
      "duration": 0.0102,
      "velocity": 107,
      "chip": "ym2612"
    },
    {
      "channel": 1,
      "note": 22,
      "start": 33.3782,
      "duration": 0.036,
      "velocity": 125,
      "chip": "ym2612"
    },
    {
      "channel": 4,
      "note": 66,
      "start": 33.3818,
      "duration": 0.0001,
      "velocity": 1,
      "chip": "ym2612"
    },
    {
      "channel": 0,
      "note": 42,
      "start": 33.4132,
      "duration": 0.0102,
      "velocity": 107,
      "chip": "ym2612"
    },
    {
      "channel": 1,
      "note": 28,
      "start": 33.4159,
      "duration": 0.0361,
      "velocity": 125,
      "chip": "ym2612"
    },
    {
      "channel": 4,
      "note": 66,
      "start": 33.4195,
      "duration": 0.0001,
      "velocity": 1,
      "chip": "ym2612"
    },
    {
      "channel": 0,
      "note": 42,
      "start": 33.4509,
      "duration": 0.0084,
      "velocity": 107,
      "chip": "ym2612"
    },
    {
      "channel": 4,
      "note": 78,
      "start": 33.4552,
      "duration": 0.0001,
      "velocity": 1,
      "chip": "ym2612"
    },
    {
      "channel": 0,
      "note": 44,
      "start": 33.5046,
      "duration": 0.0064,
      "velocity": 107,
      "chip": "ym2612"
    },
    {
      "channel": 4,
      "note": 78,
      "start": 33.5084,
      "duration": 0.0001,
      "velocity": 1,
      "chip": "ym2612"
    },
    {
      "channel": 0,
      "note": 44,
      "start": 33.5602,
      "duration": 0.0103,
      "velocity": 107,
      "chip": "ym2612"
    },
    {
      "channel": 1,
      "note": 22,
      "start": 33.5629,
      "duration": 0.0332,
      "velocity": 125,
      "chip": "ym2612"
    },
    {
      "channel": 4,
      "note": 78,
      "start": 33.5665,
      "duration": 0.0001,
      "velocity": 1,
      "chip": "ym2612"
    },
    {
      "channel": 0,
      "note": 44,
      "start": 33.5949,
      "duration": 0.0069,
      "velocity": 107,
      "chip": "ym2612"
    },
    {
      "channel": 4,
      "note": 78,
      "start": 33.5993,
      "duration": 0.0001,
      "velocity": 1,
      "chip": "ym2612"
    },
    {
      "channel": 0,
      "note": 44,
      "start": 33.6494,
      "duration": 0.0064,
      "velocity": 107,
      "chip": "ym2612"
    },
    {
      "channel": 4,
      "note": 78,
      "start": 33.6532,
      "duration": 0.0001,
      "velocity": 1,
      "chip": "ym2612"
    },
    {
      "channel": 0,
      "note": 44,
      "start": 33.701,
      "duration": 0.0058,
      "velocity": 107,
      "chip": "ym2612"
    },
    {
      "channel": 4,
      "note": 78,
      "start": 33.7043,
      "duration": 0.0001,
      "velocity": 1,
      "chip": "ym2612"
    },
    {
      "channel": 0,
      "note": 44,
      "start": 33.7259,
      "duration": 0.0061,
      "velocity": 107,
      "chip": "ym2612"
    },
    {
      "channel": 4,
      "note": 78,
      "start": 33.7295,
      "duration": 0.0001,
      "velocity": 1,
      "chip": "ym2612"
    },
    {
      "channel": 0,
      "note": 44,
      "start": 33.7487,
      "duration": 0.0092,
      "velocity": 107,
      "chip": "ym2612"
    },
    {
      "channel": 4,
      "note": 78,
      "start": 33.7516,
      "duration": 0.0001,
      "velocity": 1,
      "chip": "ym2612"
    },
    {
      "channel": 0,
      "note": 44,
      "start": 33.7795,
      "duration": 0.0095,
      "velocity": 107,
      "chip": "ym2612"
    },
    {
      "channel": 1,
      "note": 22,
      "start": 33.7822,
      "duration": 0.0248,
      "velocity": 125,
      "chip": "ym2612"
    },
    {
      "channel": 4,
      "note": 78,
      "start": 33.785,
      "duration": 0.0001,
      "velocity": 1,
      "chip": "ym2612"
    },
    {
      "channel": 0,
      "note": 44,
      "start": 33.8275,
      "duration": 0.007,
      "velocity": 107,
      "chip": "ym2612"
    },
    {
      "channel": 4,
      "note": 78,
      "start": 33.8305,
      "duration": 0.0001,
      "velocity": 1,
      "chip": "ym2612"
    },
    {
      "channel": 0,
      "note": 42,
      "start": 33.8539,
      "duration": 0.0071,
      "velocity": 107,
      "chip": "ym2612"
    },
    {
      "channel": 4,
      "note": 78,
      "start": 33.8569,
      "duration": 0.0001,
      "velocity": 1,
      "chip": "ym2612"
    },
    {
      "channel": 0,
      "note": 42,
      "start": 33.8805,
      "duration": 0.0068,
      "velocity": 107,
      "chip": "ym2612"
    },
    {
      "channel": 4,
      "note": 78,
      "start": 33.8833,
      "duration": 0.0001,
      "velocity": 1,
      "chip": "ym2612"
    },
    {
      "channel": 0,
      "note": 44,
      "start": 33.9188,
      "duration": 0.0054,
      "velocity": 107,
      "chip": "ym2612"
    },
    {
      "channel": 4,
      "note": 78,
      "start": 33.9217,
      "duration": 0.0001,
      "velocity": 1,
      "chip": "ym2612"
    },
    {
      "channel": 0,
      "note": 44,
      "start": 33.9601,
      "duration": 0.0094,
      "velocity": 107,
      "chip": "ym2612"
    },
    {
      "channel": 1,
      "note": 22,
      "start": 33.9627,
      "duration": 0.0285,
      "velocity": 125,
      "chip": "ym2612"
    },
    {
      "channel": 4,
      "note": 78,
      "start": 33.9656,
      "duration": 0.0001,
      "velocity": 1,
      "chip": "ym2612"
    },
    {
      "channel": 0,
      "note": 44,
      "start": 33.9901,
      "duration": 0.0061,
      "velocity": 107,
      "chip": "ym2612"
    },
    {
      "channel": 4,
      "note": 78,
      "start": 33.9937,
      "duration": 0.0001,
      "velocity": 1,
      "chip": "ym2612"
    },
    {
      "channel": 0,
      "note": 44,
      "start": 34.0312,
      "duration": 0.0055,
      "velocity": 107,
      "chip": "ym2612"
    },
    {
      "channel": 4,
      "note": 78,
      "start": 34.0342,
      "duration": 0.0001,
      "velocity": 1,
      "chip": "ym2612"
    },
    {
      "channel": 0,
      "note": 44,
      "start": 34.0724,
      "duration": 0.0054,
      "velocity": 107,
      "chip": "ym2612"
    },
    {
      "channel": 4,
      "note": 78,
      "start": 34.0753,
      "duration": 0.0001,
      "velocity": 1,
      "chip": "ym2612"
    },
    {
      "channel": 0,
      "note": 44,
      "start": 34.0937,
      "duration": 0.0054,
      "velocity": 107,
      "chip": "ym2612"
    },
    {
      "channel": 4,
      "note": 78,
      "start": 34.0966,
      "duration": 0.0001,
      "velocity": 1,
      "chip": "ym2612"
    },
    {
      "channel": 0,
      "note": 47,
      "start": 34.1183,
      "duration": 0.0068,
      "velocity": 107,
      "chip": "ym2612"
    },
    {
      "channel": 4,
      "note": 78,
      "start": 34.1212,
      "duration": 0.0001,
      "velocity": 1,
      "chip": "ym2612"
    },
    {
      "channel": 0,
      "note": 47,
      "start": 34.1448,
      "duration": 0.0094,
      "velocity": 107,
      "chip": "ym2612"
    },
    {
      "channel": 1,
      "note": 22,
      "start": 34.1474,
      "duration": 0.025,
      "velocity": 125,
      "chip": "ym2612"
    },
    {
      "channel": 4,
      "note": 78,
      "start": 34.1502,
      "duration": 0.0001,
      "velocity": 1,
      "chip": "ym2612"
    },
    {
      "channel": 0,
      "note": 47,
      "start": 34.1925,
      "duration": 0.0071,
      "velocity": 107,
      "chip": "ym2612"
    },
    {
      "channel": 4,
      "note": 66,
      "start": 34.1955,
      "duration": 0.0001,
      "velocity": 1,
      "chip": "ym2612"
    },
    {
      "channel": 0,
      "note": 42,
      "start": 34.2189,
      "duration": 0.0095,
      "velocity": 107,
      "chip": "ym2612"
    },
    {
      "channel": 1,
      "note": 22,
      "start": 34.2216,
      "duration": 0.0296,
      "velocity": 125,
      "chip": "ym2612"
    },
    {
      "channel": 4,
      "note": 66,
      "start": 34.2244,
      "duration": 0.0001,
      "velocity": 1,
      "chip": "ym2612"
    },
    {
      "channel": 0,
      "note": 42,
      "start": 34.25,
      "duration": 0.0076,
      "velocity": 107,
      "chip": "ym2612"
    },
    {
      "channel": 4,
      "note": 78,
      "start": 34.2536,
      "duration": 0.0001,
      "velocity": 1,
      "chip": "ym2612"
    },
    {
      "channel": 0,
      "note": 44,
      "start": 34.2909,
      "duration": 0.0056,
      "velocity": 107,
      "chip": "ym2612"
    },
    {
      "channel": 4,
      "note": 78,
      "start": 34.2939,
      "duration": 0.0001,
      "velocity": 1,
      "chip": "ym2612"
    },
    {
      "channel": 0,
      "note": 44,
      "start": 34.3339,
      "duration": 0.0094,
      "velocity": 107,
      "chip": "ym2612"
    },
    {
      "channel": 1,
      "note": 22,
      "start": 34.3365,
      "duration": 0.0285,
      "velocity": 125,
      "chip": "ym2612"
    },
    {
      "channel": 4,
      "note": 78,
      "start": 34.3393,
      "duration": 0.0001,
      "velocity": 1,
      "chip": "ym2612"
    },
    {
      "channel": 0,
      "note": 44,
      "start": 34.3639,
      "duration": 0.0061,
      "velocity": 107,
      "chip": "ym2612"
    },
    {
      "channel": 4,
      "note": 78,
      "start": 34.3675,
      "duration": 0.0001,
      "velocity": 1,
      "chip": "ym2612"
    },
    {
      "channel": 0,
      "note": 44,
      "start": 34.405,
      "duration": 0.0055,
      "velocity": 107,
      "chip": "ym2612"
    },
    {
      "channel": 4,
      "note": 78,
      "start": 34.408,
      "duration": 0.0001,
      "velocity": 1,
      "chip": "ym2612"
    },
    {
      "channel": 0,
      "note": 44,
      "start": 34.4461,
      "duration": 0.0054,
      "velocity": 107,
      "chip": "ym2612"
    },
    {
      "channel": 4,
      "note": 78,
      "start": 34.449,
      "duration": 0.0001,
      "velocity": 1,
      "chip": "ym2612"
    },
    {
      "channel": 0,
      "note": 44,
      "start": 34.4673,
      "duration": 0.0054,
      "velocity": 107,
      "chip": "ym2612"
    },
    {
      "channel": 4,
      "note": 78,
      "start": 34.4702,
      "duration": 0.0001,
      "velocity": 1,
      "chip": "ym2612"
    },
    {
      "channel": 0,
      "note": 44,
      "start": 34.4919,
      "duration": 0.0068,
      "velocity": 107,
      "chip": "ym2612"
    },
    {
      "channel": 4,
      "note": 78,
      "start": 34.4948,
      "duration": 0.0001,
      "velocity": 1,
      "chip": "ym2612"
    },
    {
      "channel": 0,
      "note": 44,
      "start": 34.5184,
      "duration": 0.0094,
      "velocity": 107,
      "chip": "ym2612"
    },
    {
      "channel": 1,
      "note": 22,
      "start": 34.5211,
      "duration": 0.0249,
      "velocity": 125,
      "chip": "ym2612"
    },
    {
      "channel": 4,
      "note": 78,
      "start": 34.5239,
      "duration": 0.0001,
      "velocity": 1,
      "chip": "ym2612"
    },
    {
      "channel": 0,
      "note": 44,
      "start": 34.5667,
      "duration": 0.0071,
      "velocity": 107,
      "chip": "ym2612"
    },
    {
      "channel": 4,
      "note": 78,
      "start": 34.5697,
      "duration": 0.0001,
      "velocity": 1,
      "chip": "ym2612"
    },
    {
      "channel": 0,
      "note": 42,
      "start": 34.5929,
      "duration": 0.0071,
      "velocity": 107,
      "chip": "ym2612"
    },
    {
      "channel": 4,
      "note": 78,
      "start": 34.596,
      "duration": 0.0001,
      "velocity": 1,
      "chip": "ym2612"
    },
    {
      "channel": 0,
      "note": 42,
      "start": 34.6196,
      "duration": 0.0069,
      "velocity": 107,
      "chip": "ym2612"
    },
    {
      "channel": 4,
      "note": 78,
      "start": 34.6225,
      "duration": 0.0001,
      "velocity": 1,
      "chip": "ym2612"
    },
    {
      "channel": 0,
      "note": 44,
      "start": 34.6579,
      "duration": 0.0055,
      "velocity": 107,
      "chip": "ym2612"
    },
    {
      "channel": 4,
      "note": 78,
      "start": 34.6608,
      "duration": 0.0001,
      "velocity": 1,
      "chip": "ym2612"
    },
    {
      "channel": 0,
      "note": 44,
      "start": 34.6992,
      "duration": 0.0095,
      "velocity": 107,
      "chip": "ym2612"
    },
    {
      "channel": 1,
      "note": 22,
      "start": 34.7019,
      "duration": 0.0285,
      "velocity": 125,
      "chip": "ym2612"
    },
    {
      "channel": 4,
      "note": 78,
      "start": 34.7047,
      "duration": 0.0001,
      "velocity": 1,
      "chip": "ym2612"
    },
    {
      "channel": 0,
      "note": 44,
      "start": 34.7293,
      "duration": 0.006,
      "velocity": 107,
      "chip": "ym2612"
    },
    {
      "channel": 4,
      "note": 78,
      "start": 34.7328,
      "duration": 0.0001,
      "velocity": 1,
      "chip": "ym2612"
    },
    {
      "channel": 0,
      "note": 44,
      "start": 34.7704,
      "duration": 0.0055,
      "velocity": 107,
      "chip": "ym2612"
    },
    {
      "channel": 4,
      "note": 78,
      "start": 34.7734,
      "duration": 0.0001,
      "velocity": 1,
      "chip": "ym2612"
    },
    {
      "channel": 0,
      "note": 44,
      "start": 34.8114,
      "duration": 0.0054,
      "velocity": 107,
      "chip": "ym2612"
    },
    {
      "channel": 4,
      "note": 78,
      "start": 34.8142,
      "duration": 0.0001,
      "velocity": 1,
      "chip": "ym2612"
    },
    {
      "channel": 0,
      "note": 47,
      "start": 34.8328,
      "duration": 0.0054,
      "velocity": 107,
      "chip": "ym2612"
    },
    {
      "channel": 4,
      "note": 78,
      "start": 34.8357,
      "duration": 0.0001,
      "velocity": 1,
      "chip": "ym2612"
    },
    {
      "channel": 0,
      "note": 47,
      "start": 34.8574,
      "duration": 0.0068,
      "velocity": 107,
      "chip": "ym2612"
    },
    {
      "channel": 4,
      "note": 78,
      "start": 34.8603,
      "duration": 0.0001,
      "velocity": 1,
      "chip": "ym2612"
    },
    {
      "channel": 0,
      "note": 47,
      "start": 34.884,
      "duration": 0.0094,
      "velocity": 107,
      "chip": "ym2612"
    },
    {
      "channel": 1,
      "note": 22,
      "start": 34.8866,
      "duration": 0.0248,
      "velocity": 125,
      "chip": "ym2612"
    },
    {
      "channel": 4,
      "note": 78,
      "start": 34.8894,
      "duration": 0.0001,
      "velocity": 1,
      "chip": "ym2612"
    },
    {
      "channel": 0,
      "note": 42,
      "start": 34.9319,
      "duration": 0.0094,
      "velocity": 107,
      "chip": "ym2612"
    },
    {
      "channel": 1,
      "note": 22,
      "start": 34.9346,
      "duration": 0.0295,
      "velocity": 125,
      "chip": "ym2612"
    },
    {
      "channel": 4,
      "note": 66,
      "start": 34.9374,
      "duration": 0.0001,
      "velocity": 1,
      "chip": "ym2612"
    },
    {
      "channel": 0,
      "note": 42,
      "start": 34.9631,
      "duration": 0.0094,
      "velocity": 107,
      "chip": "ym2612"
    },
    {
      "channel": 1,
      "note": 28,
      "start": 34.9657,
      "duration": 0.0334,
      "velocity": 125,
      "chip": "ym2612"
    },
    {
      "channel": 4,
      "note": 66,
      "start": 34.9685,
      "duration": 0.0001,
      "velocity": 1,
      "chip": "ym2612"
    },
    {
      "channel": 0,
      "note": 42,
      "start": 34.9981,
      "duration": 0.0102,
      "velocity": 107,
      "chip": "ym2612"
    },
    {
      "channel": 2,
      "note": 84,
      "start": 35.0015,
      "duration": 0.2224,
      "velocity": 106,
      "chip": "ym2612"
    },
    {
      "channel": 4,
      "note": 78,
      "start": 35.0043,
      "duration": 0.0001,
      "velocity": 1,
      "chip": "ym2612"
    },
    {
      "channel": 0,
      "note": 44,
      "start": 35.0485,
      "duration": 0.0086,
      "velocity": 107,
      "chip": "ym2612"
    },
    {
      "channel": 3,
      "note": 84,
      "start": 35.0519,
      "duration": 0.2268,
      "velocity": 106,
      "chip": "ym2612"
    },
    {
      "channel": 4,
      "note": 78,
      "start": 35.0546,
      "duration": 0.0001,
      "velocity": 1,
      "chip": "ym2612"
    },
    {
      "channel": 0,
      "note": 44,
      "start": 35.1066,
      "duration": 0.0104,
      "velocity": 107,
      "chip": "ym2612"
    },
    {
      "channel": 1,
      "note": 22,
      "start": 35.1092,
      "duration": 0.0331,
      "velocity": 125,
      "chip": "ym2612"
    },
    {
      "channel": 4,
      "note": 78,
      "start": 35.113,
      "duration": 0.0001,
      "velocity": 1,
      "chip": "ym2612"
    },
    {
      "channel": 0,
      "note": 44,
      "start": 35.1412,
      "duration": 0.0067,
      "velocity": 107,
      "chip": "ym2612"
    },
    {
      "channel": 4,
      "note": 78,
      "start": 35.1455,
      "duration": 0.0001,
      "velocity": 1,
      "chip": "ym2612"
    },
    {
      "channel": 0,
      "note": 44,
      "start": 35.1958,
      "duration": 0.0061,
      "velocity": 107,
      "chip": "ym2612"
    },
    {
      "channel": 4,
      "note": 78,
      "start": 35.1995,
      "duration": 0.0001,
      "velocity": 1,
      "chip": "ym2612"
    },
    {
      "channel": 0,
      "note": 44,
      "start": 35.2498,
      "duration": 0.0061,
      "velocity": 107,
      "chip": "ym2612"
    },
    {
      "channel": 4,
      "note": 78,
      "start": 35.2534,
      "duration": 0.0001,
      "velocity": 1,
      "chip": "ym2612"
    },
    {
      "channel": 0,
      "note": 44,
      "start": 35.2773,
      "duration": 0.0064,
      "velocity": 107,
      "chip": "ym2612"
    },
    {
      "channel": 4,
      "note": 78,
      "start": 35.2811,
      "duration": 0.0001,
      "velocity": 1,
      "chip": "ym2612"
    },
    {
      "channel": 0,
      "note": 44,
      "start": 35.3076,
      "duration": 0.0076,
      "velocity": 107,
      "chip": "ym2612"
    },
    {
      "channel": 4,
      "note": 78,
      "start": 35.3112,
      "duration": 0.0001,
      "velocity": 1,
      "chip": "ym2612"
    },
    {
      "channel": 0,
      "note": 44,
      "start": 35.3392,
      "duration": 0.0102,
      "velocity": 107,
      "chip": "ym2612"
    },
    {
      "channel": 1,
      "note": 22,
      "start": 35.3419,
      "duration": 0.0293,
      "velocity": 125,
      "chip": "ym2612"
    },
    {
      "channel": 4,
      "note": 78,
      "start": 35.3454,
      "duration": 0.0001,
      "velocity": 1,
      "chip": "ym2612"
    },
    {
      "channel": 0,
      "note": 44,
      "start": 35.3984,
      "duration": 0.0077,
      "velocity": 107,
      "chip": "ym2612"
    },
    {
      "channel": 4,
      "note": 78,
      "start": 35.4021,
      "duration": 0.0001,
      "velocity": 1,
      "chip": "ym2612"
    },
    {
      "channel": 0,
      "note": 42,
      "start": 35.4299,
      "duration": 0.0077,
      "velocity": 107,
      "chip": "ym2612"
    },
    {
      "channel": 4,
      "note": 78,
      "start": 35.4336,
      "duration": 0.0001,
      "velocity": 1,
      "chip": "ym2612"
    },
    {
      "channel": 0,
      "note": 42,
      "start": 35.4615,
      "duration": 0.0076,
      "velocity": 107,
      "chip": "ym2612"
    },
    {
      "channel": 4,
      "note": 78,
      "start": 35.4651,
      "duration": 0.0001,
      "velocity": 1,
      "chip": "ym2612"
    },
    {
      "channel": 0,
      "note": 44,
      "start": 35.5122,
      "duration": 0.0062,
      "velocity": 107,
      "chip": "ym2612"
    },
    {
      "channel": 4,
      "note": 78,
      "start": 35.5159,
      "duration": 0.0001,
      "velocity": 1,
      "chip": "ym2612"
    },
    {
      "channel": 0,
      "note": 44,
      "start": 35.5658,
      "duration": 0.0102,
      "velocity": 107,
      "chip": "ym2612"
    },
    {
      "channel": 1,
      "note": 22,
      "start": 35.5685,
      "duration": 0.0328,
      "velocity": 125,
      "chip": "ym2612"
    },
    {
      "channel": 4,
      "note": 78,
      "start": 35.572,
      "duration": 0.0001,
      "velocity": 1,
      "chip": "ym2612"
    },
    {
      "channel": 0,
      "note": 44,
      "start": 35.6001,
      "duration": 0.0069,
      "velocity": 107,
      "chip": "ym2612"
    },
    {
      "channel": 4,
      "note": 78,
      "start": 35.6044,
      "duration": 0.0001,
      "velocity": 1,
      "chip": "ym2612"
    },
    {
      "channel": 0,
      "note": 44,
      "start": 35.6547,
      "duration": 0.0063,
      "velocity": 107,
      "chip": "ym2612"
    },
    {
      "channel": 4,
      "note": 78,
      "start": 35.6585,
      "duration": 0.0001,
      "velocity": 1,
      "chip": "ym2612"
    },
    {
      "channel": 0,
      "note": 44,
      "start": 35.709,
      "duration": 0.006,
      "velocity": 107,
      "chip": "ym2612"
    },
    {
      "channel": 4,
      "note": 78,
      "start": 35.7126,
      "duration": 0.0001,
      "velocity": 1,
      "chip": "ym2612"
    },
    {
      "channel": 0,
      "note": 44,
      "start": 35.7364,
      "duration": 0.0061,
      "velocity": 107,
      "chip": "ym2612"
    },
    {
      "channel": 4,
      "note": 78,
      "start": 35.74,
      "duration": 0.0001,
      "velocity": 1,
      "chip": "ym2612"
    },
    {
      "channel": 0,
      "note": 47,
      "start": 35.7669,
      "duration": 0.0076,
      "velocity": 107,
      "chip": "ym2612"
    },
    {
      "channel": 4,
      "note": 78,
      "start": 35.7705,
      "duration": 0.0001,
      "velocity": 1,
      "chip": "ym2612"
    },
    {
      "channel": 0,
      "note": 47,
      "start": 35.7986,
      "duration": 0.0102,
      "velocity": 107,
      "chip": "ym2612"
    },
    {
      "channel": 1,
      "note": 22,
      "start": 35.8012,
      "duration": 0.0293,
      "velocity": 125,
      "chip": "ym2612"
    },
    {
      "channel": 4,
      "note": 78,
      "start": 35.8048,
      "duration": 0.0001,
      "velocity": 1,
      "chip": "ym2612"
    },
    {
      "channel": 0,
      "note": 47,
      "start": 35.8578,
      "duration": 0.0077,
      "velocity": 107,
      "chip": "ym2612"
    },
    {
      "channel": 4,
      "note": 66,
      "start": 35.8615,
      "duration": 0.0001,
      "velocity": 1,
      "chip": "ym2612"
    },
    {
      "channel": 0,
      "note": 42,
      "start": 35.8895,
      "duration": 0.0102,
      "velocity": 107,
      "chip": "ym2612"
    },
    {
      "channel": 1,
      "note": 22,
      "start": 35.8921,
      "duration": 0.0332,
      "velocity": 125,
      "chip": "ym2612"
    },
    {
      "channel": 4,
      "note": 66,
      "start": 35.8957,
      "duration": 0.0001,
      "velocity": 1,
      "chip": "ym2612"
    },
    {
      "channel": 0,
      "note": 42,
      "start": 35.9242,
      "duration": 0.0083,
      "velocity": 107,
      "chip": "ym2612"
    },
    {
      "channel": 4,
      "note": 78,
      "start": 35.9284,
      "duration": 0.0001,
      "velocity": 1,
      "chip": "ym2612"
    },
    {
      "channel": 0,
      "note": 44,
      "start": 35.9771,
      "duration": 0.0063,
      "velocity": 107,
      "chip": "ym2612"
    },
    {
      "channel": 4,
      "note": 78,
      "start": 35.9808,
      "duration": 0.0001,
      "velocity": 1,
      "chip": "ym2612"
    },
    {
      "channel": 0,
      "note": 44,
      "start": 36.0309,
      "duration": 0.0102,
      "velocity": 107,
      "chip": "ym2612"
    },
    {
      "channel": 1,
      "note": 22,
      "start": 36.0336,
      "duration": 0.0329,
      "velocity": 125,
      "chip": "ym2612"
    },
    {
      "channel": 4,
      "note": 78,
      "start": 36.0371,
      "duration": 0.0001,
      "velocity": 1,
      "chip": "ym2612"
    },
    {
      "channel": 0,
      "note": 44,
      "start": 36.0654,
      "duration": 0.0068,
      "velocity": 107,
      "chip": "ym2612"
    },
    {
      "channel": 4,
      "note": 78,
      "start": 36.0696,
      "duration": 0.0001,
      "velocity": 1,
      "chip": "ym2612"
    },
    {
      "channel": 0,
      "note": 44,
      "start": 36.1198,
      "duration": 0.0063,
      "velocity": 107,
      "chip": "ym2612"
    },
    {
      "channel": 4,
      "note": 78,
      "start": 36.1235,
      "duration": 0.0001,
      "velocity": 1,
      "chip": "ym2612"
    },
    {
      "channel": 0,
      "note": 44,
      "start": 36.174,
      "duration": 0.0061,
      "velocity": 107,
      "chip": "ym2612"
    },
    {
      "channel": 4,
      "note": 78,
      "start": 36.1777,
      "duration": 0.0001,
      "velocity": 1,
      "chip": "ym2612"
    },
    {
      "channel": 0,
      "note": 44,
      "start": 36.2015,
      "duration": 0.0061,
      "velocity": 107,
      "chip": "ym2612"
    },
    {
      "channel": 4,
      "note": 78,
      "start": 36.2051,
      "duration": 0.0001,
      "velocity": 1,
      "chip": "ym2612"
    },
    {
      "channel": 0,
      "note": 44,
      "start": 36.2321,
      "duration": 0.0076,
      "velocity": 107,
      "chip": "ym2612"
    },
    {
      "channel": 4,
      "note": 78,
      "start": 36.2357,
      "duration": 0.0001,
      "velocity": 1,
      "chip": "ym2612"
    },
    {
      "channel": 0,
      "note": 44,
      "start": 36.2637,
      "duration": 0.0102,
      "velocity": 107,
      "chip": "ym2612"
    },
    {
      "channel": 1,
      "note": 22,
      "start": 36.2664,
      "duration": 0.0293,
      "velocity": 125,
      "chip": "ym2612"
    },
    {
      "channel": 4,
      "note": 78,
      "start": 36.2699,
      "duration": 0.0001,
      "velocity": 1,
      "chip": "ym2612"
    },
    {
      "channel": 0,
      "note": 44,
      "start": 36.3229,
      "duration": 0.0077,
      "velocity": 107,
      "chip": "ym2612"
    },
    {
      "channel": 4,
      "note": 78,
      "start": 36.3267,
      "duration": 0.0001,
      "velocity": 1,
      "chip": "ym2612"
    },
    {
      "channel": 0,
      "note": 42,
      "start": 36.3544,
      "duration": 0.0077,
      "velocity": 107,
      "chip": "ym2612"
    },
    {
      "channel": 4,
      "note": 78,
      "start": 36.3581,
      "duration": 0.0001,
      "velocity": 1,
      "chip": "ym2612"
    },
    {
      "channel": 0,
      "note": 42,
      "start": 36.3859,
      "duration": 0.0076,
      "velocity": 107,
      "chip": "ym2612"
    },
    {
      "channel": 4,
      "note": 78,
      "start": 36.3896,
      "duration": 0.0001,
      "velocity": 1,
      "chip": "ym2612"
    },
    {
      "channel": 0,
      "note": 44,
      "start": 36.4366,
      "duration": 0.0061,
      "velocity": 107,
      "chip": "ym2612"
    },
    {
      "channel": 4,
      "note": 78,
      "start": 36.4402,
      "duration": 0.0001,
      "velocity": 1,
      "chip": "ym2612"
    },
    {
      "channel": 0,
      "note": 44,
      "start": 36.4901,
      "duration": 0.0102,
      "velocity": 107,
      "chip": "ym2612"
    },
    {
      "channel": 1,
      "note": 22,
      "start": 36.4928,
      "duration": 0.0329,
      "velocity": 125,
      "chip": "ym2612"
    },
    {
      "channel": 4,
      "note": 78,
      "start": 36.4963,
      "duration": 0.0001,
      "velocity": 1,
      "chip": "ym2612"
    },
    {
      "channel": 0,
      "note": 44,
      "start": 36.5245,
      "duration": 0.0069,
      "velocity": 107,
      "chip": "ym2612"
    },
    {
      "channel": 4,
      "note": 78,
      "start": 36.5288,
      "duration": 0.0001,
      "velocity": 1,
      "chip": "ym2612"
    },
    {
      "channel": 0,
      "note": 44,
      "start": 36.5791,
      "duration": 0.0063,
      "velocity": 107,
      "chip": "ym2612"
    },
    {
      "channel": 4,
      "note": 78,
      "start": 36.5828,
      "duration": 0.0001,
      "velocity": 1,
      "chip": "ym2612"
    },
    {
      "channel": 0,
      "note": 44,
      "start": 36.6334,
      "duration": 0.006,
      "velocity": 107,
      "chip": "ym2612"
    },
    {
      "channel": 4,
      "note": 78,
      "start": 36.637,
      "duration": 0.0001,
      "velocity": 1,
      "chip": "ym2612"
    },
    {
      "channel": 0,
      "note": 47,
      "start": 36.6609,
      "duration": 0.0062,
      "velocity": 107,
      "chip": "ym2612"
    },
    {
      "channel": 4,
      "note": 78,
      "start": 36.6646,
      "duration": 0.0001,
      "velocity": 1,
      "chip": "ym2612"
    },
    {
      "channel": 0,
      "note": 47,
      "start": 36.6913,
      "duration": 0.0076,
      "velocity": 107,
      "chip": "ym2612"
    },
    {
      "channel": 4,
      "note": 78,
      "start": 36.6949,
      "duration": 0.0001,
      "velocity": 1,
      "chip": "ym2612"
    },
    {
      "channel": 0,
      "note": 47,
      "start": 36.7229,
      "duration": 0.0102,
      "velocity": 107,
      "chip": "ym2612"
    },
    {
      "channel": 1,
      "note": 22,
      "start": 36.7256,
      "duration": 0.0292,
      "velocity": 125,
      "chip": "ym2612"
    },
    {
      "channel": 4,
      "note": 78,
      "start": 36.7291,
      "duration": 0.0001,
      "velocity": 1,
      "chip": "ym2612"
    },
    {
      "channel": 0,
      "note": 42,
      "start": 36.7824,
      "duration": 0.0101,
      "velocity": 107,
      "chip": "ym2612"
    },
    {
      "channel": 1,
      "note": 22,
      "start": 36.785,
      "duration": 0.0334,
      "velocity": 125,
      "chip": "ym2612"
    },
    {
      "channel": 4,
      "note": 66,
      "start": 36.7885,
      "duration": 0.0001,
      "velocity": 1,
      "chip": "ym2612"
    },
    {
      "channel": 0,
      "note": 42,
      "start": 36.8175,
      "duration": 0.0102,
      "velocity": 107,
      "chip": "ym2612"
    },
    {
      "channel": 1,
      "note": 28,
      "start": 36.8201,
      "duration": 0.0361,
      "velocity": 125,
      "chip": "ym2612"
    },
    {
      "channel": 4,
      "note": 66,
      "start": 36.8237,
      "duration": 0.0001,
      "velocity": 1,
      "chip": "ym2612"
    },
    {
      "channel": 0,
      "note": 42,
      "start": 36.8551,
      "duration": 0.0082,
      "velocity": 107,
      "chip": "ym2612"
    },
    {
      "channel": 4,
      "note": 78,
      "start": 36.8593,
      "duration": 0.0001,
      "velocity": 1,
      "chip": "ym2612"
    },
    {
      "channel": 0,
      "note": 44,
      "start": 36.908,
      "duration": 0.0063,
      "velocity": 107,
      "chip": "ym2612"
    },
    {
      "channel": 4,
      "note": 78,
      "start": 36.9118,
      "duration": 0.0001,
      "velocity": 1,
      "chip": "ym2612"
    },
    {
      "channel": 0,
      "note": 44,
      "start": 36.9617,
      "duration": 0.0102,
      "velocity": 107,
      "chip": "ym2612"
    },
    {
      "channel": 1,
      "note": 22,
      "start": 36.9644,
      "duration": 0.0328,
      "velocity": 125,
      "chip": "ym2612"
    },
    {
      "channel": 4,
      "note": 78,
      "start": 36.968,
      "duration": 0.0001,
      "velocity": 1,
      "chip": "ym2612"
    },
    {
      "channel": 0,
      "note": 44,
      "start": 36.9961,
      "duration": 0.0068,
      "velocity": 107,
      "chip": "ym2612"
    },
    {
      "channel": 4,
      "note": 78,
      "start": 37.0004,
      "duration": 0.0001,
      "velocity": 1,
      "chip": "ym2612"
    },
    {
      "channel": 0,
      "note": 44,
      "start": 37.0506,
      "duration": 0.0063,
      "velocity": 107,
      "chip": "ym2612"
    },
    {
      "channel": 4,
      "note": 78,
      "start": 37.0544,
      "duration": 0.0001,
      "velocity": 1,
      "chip": "ym2612"
    },
    {
      "channel": 0,
      "note": 44,
      "start": 37.1022,
      "duration": 0.0058,
      "velocity": 107,
      "chip": "ym2612"
    },
    {
      "channel": 4,
      "note": 78,
      "start": 37.1055,
      "duration": 0.0001,
      "velocity": 1,
      "chip": "ym2612"
    },
    {
      "channel": 0,
      "note": 44,
      "start": 37.127,
      "duration": 0.0061,
      "velocity": 107,
      "chip": "ym2612"
    },
    {
      "channel": 4,
      "note": 78,
      "start": 37.1306,
      "duration": 0.0001,
      "velocity": 1,
      "chip": "ym2612"
    },
    {
      "channel": 0,
      "note": 44,
      "start": 37.1503,
      "duration": 0.0068,
      "velocity": 107,
      "chip": "ym2612"
    },
    {
      "channel": 4,
      "note": 78,
      "start": 37.1532,
      "duration": 0.0001,
      "velocity": 1,
      "chip": "ym2612"
    },
    {
      "channel": 0,
      "note": 44,
      "start": 37.1767,
      "duration": 0.0094,
      "velocity": 107,
      "chip": "ym2612"
    },
    {
      "channel": 1,
      "note": 22,
      "start": 37.1794,
      "duration": 0.0249,
      "velocity": 125,
      "chip": "ym2612"
    },
    {
      "channel": 4,
      "note": 78,
      "start": 37.1822,
      "duration": 0.0001,
      "velocity": 1,
      "chip": "ym2612"
    },
    {
      "channel": 0,
      "note": 44,
      "start": 37.2249,
      "duration": 0.0071,
      "velocity": 107,
      "chip": "ym2612"
    },
    {
      "channel": 4,
      "note": 78,
      "start": 37.2279,
      "duration": 0.0001,
      "velocity": 1,
      "chip": "ym2612"
    },
    {
      "channel": 0,
      "note": 42,
      "start": 37.2512,
      "duration": 0.0069,
      "velocity": 107,
      "chip": "ym2612"
    },
    {
      "channel": 4,
      "note": 78,
      "start": 37.2542,
      "duration": 0.0001,
      "velocity": 1,
      "chip": "ym2612"
    },
    {
      "channel": 0,
      "note": 42,
      "start": 37.2779,
      "duration": 0.0069,
      "velocity": 107,
      "chip": "ym2612"
    },
    {
      "channel": 4,
      "note": 78,
      "start": 37.2808,
      "duration": 0.0001,
      "velocity": 1,
      "chip": "ym2612"
    },
    {
      "channel": 0,
      "note": 44,
      "start": 37.3161,
      "duration": 0.0055,
      "velocity": 107,
      "chip": "ym2612"
    },
    {
      "channel": 4,
      "note": 78,
      "start": 37.319,
      "duration": 0.0001,
      "velocity": 1,
      "chip": "ym2612"
    },
    {
      "channel": 0,
      "note": 44,
      "start": 37.3614,
      "duration": 0.0094,
      "velocity": 107,
      "chip": "ym2612"
    },
    {
      "channel": 1,
      "note": 22,
      "start": 37.3641,
      "duration": 0.0285,
      "velocity": 125,
      "chip": "ym2612"
    },
    {
      "channel": 4,
      "note": 78,
      "start": 37.3669,
      "duration": 0.0001,
      "velocity": 1,
      "chip": "ym2612"
    },
    {
      "channel": 0,
      "note": 44,
      "start": 37.3914,
      "duration": 0.0061,
      "velocity": 107,
      "chip": "ym2612"
    },
    {
      "channel": 4,
      "note": 78,
      "start": 37.395,
      "duration": 0.0001,
      "velocity": 1,
      "chip": "ym2612"
    },
    {
      "channel": 0,
      "note": 44,
      "start": 37.4327,
      "duration": 0.0055,
      "velocity": 107,
      "chip": "ym2612"
    },
    {
      "channel": 4,
      "note": 78,
      "start": 37.4357,
      "duration": 0.0001,
      "velocity": 1,
      "chip": "ym2612"
    },
    {
      "channel": 0,
      "note": 44,
      "start": 37.4737,
      "duration": 0.0054,
      "velocity": 107,
      "chip": "ym2612"
    },
    {
      "channel": 4,
      "note": 78,
      "start": 37.4766,
      "duration": 0.0001,
      "velocity": 1,
      "chip": "ym2612"
    },
    {
      "channel": 0,
      "note": 44,
      "start": 37.4949,
      "duration": 0.0054,
      "velocity": 107,
      "chip": "ym2612"
    },
    {
      "channel": 4,
      "note": 78,
      "start": 37.4978,
      "duration": 0.0001,
      "velocity": 1,
      "chip": "ym2612"
    },
    {
      "channel": 0,
      "note": 47,
      "start": 37.5196,
      "duration": 0.0068,
      "velocity": 107,
      "chip": "ym2612"
    },
    {
      "channel": 4,
      "note": 78,
      "start": 37.5225,
      "duration": 0.0001,
      "velocity": 1,
      "chip": "ym2612"
    },
    {
      "channel": 0,
      "note": 47,
      "start": 37.5461,
      "duration": 0.0094,
      "velocity": 107,
      "chip": "ym2612"
    },
    {
      "channel": 1,
      "note": 22,
      "start": 37.5488,
      "duration": 0.025,
      "velocity": 125,
      "chip": "ym2612"
    },
    {
      "channel": 4,
      "note": 78,
      "start": 37.5516,
      "duration": 0.0001,
      "velocity": 1,
      "chip": "ym2612"
    },
    {
      "channel": 0,
      "note": 47,
      "start": 37.5939,
      "duration": 0.0093,
      "velocity": 107,
      "chip": "ym2612"
    },
    {
      "channel": 4,
      "note": 66,
      "start": 37.5969,
      "duration": 0.0001,
      "velocity": 1,
      "chip": "ym2612"
    },
    {
      "channel": 0,
      "note": 42,
      "start": 37.6247,
      "duration": 0.0094,
      "velocity": 107,
      "chip": "ym2612"
    },
    {
      "channel": 1,
      "note": 22,
      "start": 37.6273,
      "duration": 0.0298,
      "velocity": 125,
      "chip": "ym2612"
    },
    {
      "channel": 4,
      "note": 66,
      "start": 37.6301,
      "duration": 0.0001,
      "velocity": 1,
      "chip": "ym2612"
    },
    {
      "channel": 0,
      "note": 42,
      "start": 37.656,
      "duration": 0.0076,
      "velocity": 107,
      "chip": "ym2612"
    },
    {
      "channel": 4,
      "note": 78,
      "start": 37.6596,
      "duration": 0.0001,
      "velocity": 1,
      "chip": "ym2612"
    },
    {
      "channel": 0,
      "note": 44,
      "start": 37.6969,
      "duration": 0.0056,
      "velocity": 107,
      "chip": "ym2612"
    },
    {
      "channel": 4,
      "note": 78,
      "start": 37.7,
      "duration": 0.0001,
      "velocity": 1,
      "chip": "ym2612"
    },
    {
      "channel": 0,
      "note": 44,
      "start": 37.74,
      "duration": 0.0094,
      "velocity": 107,
      "chip": "ym2612"
    },
    {
      "channel": 1,
      "note": 22,
      "start": 37.7426,
      "duration": 0.0285,
      "velocity": 125,
      "chip": "ym2612"
    },
    {
      "channel": 4,
      "note": 78,
      "start": 37.7454,
      "duration": 0.0001,
      "velocity": 1,
      "chip": "ym2612"
    },
    {
      "channel": 0,
      "note": 44,
      "start": 37.77,
      "duration": 0.0061,
      "velocity": 107,
      "chip": "ym2612"
    },
    {
      "channel": 4,
      "note": 78,
      "start": 37.7736,
      "duration": 0.0001,
      "velocity": 1,
      "chip": "ym2612"
    },
    {
      "channel": 0,
      "note": 44,
      "start": 37.8115,
      "duration": 0.0055,
      "velocity": 107,
      "chip": "ym2612"
    },
    {
      "channel": 4,
      "note": 78,
      "start": 37.8145,
      "duration": 0.0001,
      "velocity": 1,
      "chip": "ym2612"
    },
    {
      "channel": 0,
      "note": 44,
      "start": 37.8525,
      "duration": 0.0054,
      "velocity": 107,
      "chip": "ym2612"
    },
    {
      "channel": 4,
      "note": 78,
      "start": 37.8554,
      "duration": 0.0001,
      "velocity": 1,
      "chip": "ym2612"
    },
    {
      "channel": 0,
      "note": 44,
      "start": 37.8737,
      "duration": 0.0054,
      "velocity": 107,
      "chip": "ym2612"
    },
    {
      "channel": 4,
      "note": 78,
      "start": 37.8766,
      "duration": 0.0001,
      "velocity": 1,
      "chip": "ym2612"
    },
    {
      "channel": 0,
      "note": 44,
      "start": 37.8984,
      "duration": 0.0068,
      "velocity": 107,
      "chip": "ym2612"
    },
    {
      "channel": 4,
      "note": 78,
      "start": 37.9013,
      "duration": 0.0001,
      "velocity": 1,
      "chip": "ym2612"
    },
    {
      "channel": 0,
      "note": 44,
      "start": 37.925,
      "duration": 0.0095,
      "velocity": 107,
      "chip": "ym2612"
    },
    {
      "channel": 1,
      "note": 22,
      "start": 37.9277,
      "duration": 0.025,
      "velocity": 125,
      "chip": "ym2612"
    },
    {
      "channel": 4,
      "note": 78,
      "start": 37.9305,
      "duration": 0.0001,
      "velocity": 1,
      "chip": "ym2612"
    },
    {
      "channel": 0,
      "note": 44,
      "start": 37.9731,
      "duration": 0.0071,
      "velocity": 107,
      "chip": "ym2612"
    },
    {
      "channel": 4,
      "note": 78,
      "start": 37.9761,
      "duration": 0.0001,
      "velocity": 1,
      "chip": "ym2612"
    },
    {
      "channel": 0,
      "note": 42,
      "start": 37.9994,
      "duration": 0.0071,
      "velocity": 107,
      "chip": "ym2612"
    },
    {
      "channel": 4,
      "note": 78,
      "start": 38.0024,
      "duration": 0.0001,
      "velocity": 1,
      "chip": "ym2612"
    },
    {
      "channel": 0,
      "note": 42,
      "start": 38.0261,
      "duration": 0.0068,
      "velocity": 107,
      "chip": "ym2612"
    },
    {
      "channel": 4,
      "note": 78,
      "start": 38.029,
      "duration": 0.0001,
      "velocity": 1,
      "chip": "ym2612"
    },
    {
      "channel": 0,
      "note": 44,
      "start": 38.0642,
      "duration": 0.0054,
      "velocity": 107,
      "chip": "ym2612"
    },
    {
      "channel": 4,
      "note": 78,
      "start": 38.0671,
      "duration": 0.0001,
      "velocity": 1,
      "chip": "ym2612"
    },
    {
      "channel": 0,
      "note": 44,
      "start": 38.1055,
      "duration": 0.0095,
      "velocity": 107,
      "chip": "ym2612"
    },
    {
      "channel": 1,
      "note": 22,
      "start": 38.1082,
      "duration": 0.0285,
      "velocity": 125,
      "chip": "ym2612"
    },
    {
      "channel": 4,
      "note": 78,
      "start": 38.111,
      "duration": 0.0001,
      "velocity": 1,
      "chip": "ym2612"
    },
    {
      "channel": 0,
      "note": 44,
      "start": 38.1356,
      "duration": 0.0061,
      "velocity": 107,
      "chip": "ym2612"
    },
    {
      "channel": 4,
      "note": 78,
      "start": 38.1391,
      "duration": 0.0001,
      "velocity": 1,
      "chip": "ym2612"
    },
    {
      "channel": 0,
      "note": 44,
      "start": 38.1767,
      "duration": 0.0055,
      "velocity": 107,
      "chip": "ym2612"
    },
    {
      "channel": 4,
      "note": 78,
      "start": 38.1797,
      "duration": 0.0001,
      "velocity": 1,
      "chip": "ym2612"
    },
    {
      "channel": 0,
      "note": 44,
      "start": 38.2179,
      "duration": 0.0054,
      "velocity": 107,
      "chip": "ym2612"
    },
    {
      "channel": 4,
      "note": 78,
      "start": 38.2207,
      "duration": 0.0001,
      "velocity": 1,
      "chip": "ym2612"
    },
    {
      "channel": 0,
      "note": 47,
      "start": 38.2393,
      "duration": 0.0054,
      "velocity": 107,
      "chip": "ym2612"
    },
    {
      "channel": 4,
      "note": 78,
      "start": 38.2422,
      "duration": 0.0001,
      "velocity": 1,
      "chip": "ym2612"
    },
    {
      "channel": 0,
      "note": 47,
      "start": 38.2638,
      "duration": 0.0069,
      "velocity": 107,
      "chip": "ym2612"
    },
    {
      "channel": 4,
      "note": 78,
      "start": 38.2667,
      "duration": 0.0001,
      "velocity": 1,
      "chip": "ym2612"
    },
    {
      "channel": 0,
      "note": 47,
      "start": 38.2902,
      "duration": 0.0094,
      "velocity": 107,
      "chip": "ym2612"
    },
    {
      "channel": 1,
      "note": 22,
      "start": 38.2929,
      "duration": 0.0248,
      "velocity": 125,
      "chip": "ym2612"
    },
    {
      "channel": 4,
      "note": 78,
      "start": 38.2957,
      "duration": 0.0001,
      "velocity": 1,
      "chip": "ym2612"
    },
    {
      "channel": 0,
      "note": 42,
      "start": 38.3381,
      "duration": 0.0094,
      "velocity": 107,
      "chip": "ym2612"
    },
    {
      "channel": 1,
      "note": 22,
      "start": 38.3408,
      "duration": 0.0297,
      "velocity": 125,
      "chip": "ym2612"
    },
    {
      "channel": 4,
      "note": 66,
      "start": 38.3436,
      "duration": 0.0001,
      "velocity": 1,
      "chip": "ym2612"
    },
    {
      "channel": 0,
      "note": 42,
      "start": 38.3695,
      "duration": 0.0094,
      "velocity": 107,
      "chip": "ym2612"
    },
    {
      "channel": 1,
      "note": 28,
      "start": 38.3722,
      "duration": 0.0304,
      "velocity": 125,
      "chip": "ym2612"
    },
    {
      "channel": 4,
      "note": 66,
      "start": 38.375,
      "duration": 0.0001,
      "velocity": 1,
      "chip": "ym2612"
    },
    {
      "channel": 4,
      "note": 78,
      "start": 38.4055,
      "duration": 0.0001,
      "velocity": 1,
      "chip": "ym2612"
    },
    {
      "channel": 4,
      "note": 78,
      "start": 38.4421,
      "duration": 0.0001,
      "velocity": 1,
      "chip": "ym2612"
    },
    {
      "channel": 1,
      "note": 22,
      "start": 38.4751,
      "duration": 0.0215,
      "velocity": 125,
      "chip": "ym2612"
    },
    {
      "channel": 4,
      "note": 78,
      "start": 38.4779,
      "duration": 0.0001,
      "velocity": 1,
      "chip": "ym2612"
    },
    {
      "channel": 4,
      "note": 78,
      "start": 38.4995,
      "duration": 0.0001,
      "velocity": 1,
      "chip": "ym2612"
    },
    {
      "channel": 4,
      "note": 78,
      "start": 38.5324,
      "duration": 0.0001,
      "velocity": 1,
      "chip": "ym2612"
    },
    {
      "channel": 4,
      "note": 78,
      "start": 38.5648,
      "duration": 0.0001,
      "velocity": 1,
      "chip": "ym2612"
    },
    {
      "channel": 4,
      "note": 78,
      "start": 38.581,
      "duration": 0.0001,
      "velocity": 1,
      "chip": "ym2612"
    },
    {
      "channel": 4,
      "note": 78,
      "start": 38.5982,
      "duration": 0.0001,
      "velocity": 1,
      "chip": "ym2612"
    },
    {
      "channel": 1,
      "note": 22,
      "start": 38.6174,
      "duration": 0.0207,
      "velocity": 125,
      "chip": "ym2612"
    },
    {
      "channel": 4,
      "note": 78,
      "start": 38.6202,
      "duration": 0.0001,
      "velocity": 1,
      "chip": "ym2612"
    },
    {
      "channel": 4,
      "note": 78,
      "start": 38.6588,
      "duration": 0.0001,
      "velocity": 1,
      "chip": "ym2612"
    },
    {
      "channel": 4,
      "note": 78,
      "start": 38.678,
      "duration": 0.0001,
      "velocity": 1,
      "chip": "ym2612"
    },
    {
      "channel": 4,
      "note": 78,
      "start": 38.697,
      "duration": 0.0001,
      "velocity": 1,
      "chip": "ym2612"
    },
    {
      "channel": 4,
      "note": 78,
      "start": 38.7277,
      "duration": 0.0001,
      "velocity": 1,
      "chip": "ym2612"
    },
    {
      "channel": 1,
      "note": 22,
      "start": 38.7608,
      "duration": 0.0215,
      "velocity": 125,
      "chip": "ym2612"
    },
    {
      "channel": 4,
      "note": 78,
      "start": 38.7636,
      "duration": 0.0001,
      "velocity": 1,
      "chip": "ym2612"
    },
    {
      "channel": 4,
      "note": 78,
      "start": 38.7852,
      "duration": 0.0001,
      "velocity": 1,
      "chip": "ym2612"
    },
    {
      "channel": 4,
      "note": 78,
      "start": 38.8181,
      "duration": 0.0001,
      "velocity": 1,
      "chip": "ym2612"
    },
    {
      "channel": 4,
      "note": 78,
      "start": 38.8505,
      "duration": 0.0001,
      "velocity": 1,
      "chip": "ym2612"
    },
    {
      "channel": 4,
      "note": 78,
      "start": 38.8666,
      "duration": 0.0001,
      "velocity": 1,
      "chip": "ym2612"
    },
    {
      "channel": 4,
      "note": 78,
      "start": 38.8834,
      "duration": 0.0001,
      "velocity": 1,
      "chip": "ym2612"
    },
    {
      "channel": 1,
      "note": 22,
      "start": 38.903,
      "duration": 0.0206,
      "velocity": 125,
      "chip": "ym2612"
    },
    {
      "channel": 4,
      "note": 78,
      "start": 38.9058,
      "duration": 0.0001,
      "velocity": 1,
      "chip": "ym2612"
    },
    {
      "channel": 4,
      "note": 66,
      "start": 38.9441,
      "duration": 0.0001,
      "velocity": 1,
      "chip": "ym2612"
    },
    {
      "channel": 1,
      "note": 22,
      "start": 38.9636,
      "duration": 0.0242,
      "velocity": 125,
      "chip": "ym2612"
    },
    {
      "channel": 4,
      "note": 66,
      "start": 38.9664,
      "duration": 0.0001,
      "velocity": 1,
      "chip": "ym2612"
    },
    {
      "channel": 4,
      "note": 78,
      "start": 38.9907,
      "duration": 0.0001,
      "velocity": 1,
      "chip": "ym2612"
    },
    {
      "channel": 4,
      "note": 78,
      "start": 39.0227,
      "duration": 0.0001,
      "velocity": 1,
      "chip": "ym2612"
    },
    {
      "channel": 1,
      "note": 22,
      "start": 39.0564,
      "duration": 0.0214,
      "velocity": 125,
      "chip": "ym2612"
    },
    {
      "channel": 4,
      "note": 78,
      "start": 39.0592,
      "duration": 0.0001,
      "velocity": 1,
      "chip": "ym2612"
    },
    {
      "channel": 4,
      "note": 78,
      "start": 39.0806,
      "duration": 0.0001,
      "velocity": 1,
      "chip": "ym2612"
    },
    {
      "channel": 4,
      "note": 78,
      "start": 39.1138,
      "duration": 0.0001,
      "velocity": 1,
      "chip": "ym2612"
    },
    {
      "channel": 4,
      "note": 78,
      "start": 39.1503,
      "duration": 0.0001,
      "velocity": 1,
      "chip": "ym2612"
    },
    {
      "channel": 4,
      "note": 78,
      "start": 39.1665,
      "duration": 0.0001,
      "velocity": 1,
      "chip": "ym2612"
    },
    {
      "channel": 4,
      "note": 78,
      "start": 39.1833,
      "duration": 0.0001,
      "velocity": 1,
      "chip": "ym2612"
    },
    {
      "channel": 1,
      "note": 22,
      "start": 39.2027,
      "duration": 0.0208,
      "velocity": 125,
      "chip": "ym2612"
    },
    {
      "channel": 4,
      "note": 78,
      "start": 39.2056,
      "duration": 0.0001,
      "velocity": 1,
      "chip": "ym2612"
    },
    {
      "channel": 4,
      "note": 78,
      "start": 39.2442,
      "duration": 0.0001,
      "velocity": 1,
      "chip": "ym2612"
    },
    {
      "channel": 4,
      "note": 78,
      "start": 39.2635,
      "duration": 0.0001,
      "velocity": 1,
      "chip": "ym2612"
    },
    {
      "channel": 4,
      "note": 78,
      "start": 39.2825,
      "duration": 0.0001,
      "velocity": 1,
      "chip": "ym2612"
    },
    {
      "channel": 4,
      "note": 78,
      "start": 39.3133,
      "duration": 0.0001,
      "velocity": 1,
      "chip": "ym2612"
    },
    {
      "channel": 1,
      "note": 22,
      "start": 39.3463,
      "duration": 0.0215,
      "velocity": 125,
      "chip": "ym2612"
    },
    {
      "channel": 4,
      "note": 78,
      "start": 39.3491,
      "duration": 0.0001,
      "velocity": 1,
      "chip": "ym2612"
    },
    {
      "channel": 4,
      "note": 78,
      "start": 39.3708,
      "duration": 0.0001,
      "velocity": 1,
      "chip": "ym2612"
    },
    {
      "channel": 4,
      "note": 78,
      "start": 39.4037,
      "duration": 0.0001,
      "velocity": 1,
      "chip": "ym2612"
    },
    {
      "channel": 4,
      "note": 78,
      "start": 39.4361,
      "duration": 0.0001,
      "velocity": 1,
      "chip": "ym2612"
    },
    {
      "channel": 4,
      "note": 78,
      "start": 39.4523,
      "duration": 0.0001,
      "velocity": 1,
      "chip": "ym2612"
    },
    {
      "channel": 4,
      "note": 78,
      "start": 39.469,
      "duration": 0.0001,
      "velocity": 1,
      "chip": "ym2612"
    },
    {
      "channel": 1,
      "note": 22,
      "start": 39.4885,
      "duration": 0.0206,
      "velocity": 125,
      "chip": "ym2612"
    },
    {
      "channel": 4,
      "note": 78,
      "start": 39.4913,
      "duration": 0.0001,
      "velocity": 1,
      "chip": "ym2612"
    },
    {
      "channel": 1,
      "note": 22,
      "start": 39.5298,
      "duration": 0.0242,
      "velocity": 125,
      "chip": "ym2612"
    },
    {
      "channel": 4,
      "note": 66,
      "start": 39.5326,
      "duration": 0.0001,
      "velocity": 1,
      "chip": "ym2612"
    },
    {
      "channel": 1,
      "note": 28,
      "start": 39.5561,
      "duration": 0.024,
      "velocity": 125,
      "chip": "ym2612"
    },
    {
      "channel": 4,
      "note": 66,
      "start": 39.5589,
      "duration": 0.0001,
      "velocity": 1,
      "chip": "ym2612"
    },
    {
      "channel": 4,
      "note": 78,
      "start": 39.583,
      "duration": 0.0001,
      "velocity": 1,
      "chip": "ym2612"
    },
    {
      "channel": 4,
      "note": 78,
      "start": 39.6152,
      "duration": 0.0001,
      "velocity": 1,
      "chip": "ym2612"
    },
    {
      "channel": 1,
      "note": 22,
      "start": 39.6488,
      "duration": 0.0215,
      "velocity": 125,
      "chip": "ym2612"
    },
    {
      "channel": 4,
      "note": 78,
      "start": 39.6516,
      "duration": 0.0001,
      "velocity": 1,
      "chip": "ym2612"
    },
    {
      "channel": 4,
      "note": 78,
      "start": 39.6731,
      "duration": 0.0001,
      "velocity": 1,
      "chip": "ym2612"
    },
    {
      "channel": 4,
      "note": 78,
      "start": 39.7061,
      "duration": 0.0001,
      "velocity": 1,
      "chip": "ym2612"
    },
    {
      "channel": 4,
      "note": 78,
      "start": 39.7387,
      "duration": 0.0001,
      "velocity": 1,
      "chip": "ym2612"
    },
    {
      "channel": 4,
      "note": 78,
      "start": 39.7549,
      "duration": 0.0001,
      "velocity": 1,
      "chip": "ym2612"
    },
    {
      "channel": 4,
      "note": 78,
      "start": 39.7717,
      "duration": 0.0001,
      "velocity": 1,
      "chip": "ym2612"
    },
    {
      "channel": 1,
      "note": 22,
      "start": 39.791,
      "duration": 0.0206,
      "velocity": 125,
      "chip": "ym2612"
    },
    {
      "channel": 4,
      "note": 78,
      "start": 39.7938,
      "duration": 0.0001,
      "velocity": 1,
      "chip": "ym2612"
    },
    {
      "channel": 4,
      "note": 78,
      "start": 39.8322,
      "duration": 0.0001,
      "velocity": 1,
      "chip": "ym2612"
    },
    {
      "channel": 4,
      "note": 78,
      "start": 39.8516,
      "duration": 0.0001,
      "velocity": 1,
      "chip": "ym2612"
    },
    {
      "channel": 4,
      "note": 78,
      "start": 39.8705,
      "duration": 0.0001,
      "velocity": 1,
      "chip": "ym2612"
    },
    {
      "channel": 4,
      "note": 78,
      "start": 39.9014,
      "duration": 0.0001,
      "velocity": 1,
      "chip": "ym2612"
    },
    {
      "channel": 1,
      "note": 22,
      "start": 39.9345,
      "duration": 0.0215,
      "velocity": 125,
      "chip": "ym2612"
    },
    {
      "channel": 4,
      "note": 78,
      "start": 39.9373,
      "duration": 0.0001,
      "velocity": 1,
      "chip": "ym2612"
    },
    {
      "channel": 4,
      "note": 78,
      "start": 39.959,
      "duration": 0.0001,
      "velocity": 1,
      "chip": "ym2612"
    },
    {
      "channel": 4,
      "note": 78,
      "start": 39.9918,
      "duration": 0.0001,
      "velocity": 1,
      "chip": "ym2612"
    },
    {
      "channel": 4,
      "note": 78,
      "start": 40.0242,
      "duration": 0.0001,
      "velocity": 1,
      "chip": "ym2612"
    },
    {
      "channel": 4,
      "note": 78,
      "start": 40.0403,
      "duration": 0.0001,
      "velocity": 1,
      "chip": "ym2612"
    },
    {
      "channel": 4,
      "note": 78,
      "start": 40.0571,
      "duration": 0.0001,
      "velocity": 1,
      "chip": "ym2612"
    },
    {
      "channel": 1,
      "note": 22,
      "start": 40.0765,
      "duration": 0.0206,
      "velocity": 125,
      "chip": "ym2612"
    },
    {
      "channel": 4,
      "note": 78,
      "start": 40.0793,
      "duration": 0.0001,
      "velocity": 1,
      "chip": "ym2612"
    },
    {
      "channel": 4,
      "note": 66,
      "start": 40.1176,
      "duration": 0.0001,
      "velocity": 1,
      "chip": "ym2612"
    },
    {
      "channel": 1,
      "note": 22,
      "start": 40.137,
      "duration": 0.0243,
      "velocity": 125,
      "chip": "ym2612"
    },
    {
      "channel": 4,
      "note": 66,
      "start": 40.1398,
      "duration": 0.0001,
      "velocity": 1,
      "chip": "ym2612"
    },
    {
      "channel": 4,
      "note": 78,
      "start": 40.1642,
      "duration": 0.0001,
      "velocity": 1,
      "chip": "ym2612"
    },
    {
      "channel": 4,
      "note": 78,
      "start": 40.1963,
      "duration": 0.0001,
      "velocity": 1,
      "chip": "ym2612"
    },
    {
      "channel": 1,
      "note": 22,
      "start": 40.2339,
      "duration": 0.0214,
      "velocity": 125,
      "chip": "ym2612"
    },
    {
      "channel": 4,
      "note": 78,
      "start": 40.2367,
      "duration": 0.0001,
      "velocity": 1,
      "chip": "ym2612"
    },
    {
      "channel": 4,
      "note": 78,
      "start": 40.2582,
      "duration": 0.0001,
      "velocity": 1,
      "chip": "ym2612"
    },
    {
      "channel": 4,
      "note": 78,
      "start": 40.2913,
      "duration": 0.0001,
      "velocity": 1,
      "chip": "ym2612"
    },
    {
      "channel": 4,
      "note": 78,
      "start": 40.3237,
      "duration": 0.0001,
      "velocity": 1,
      "chip": "ym2612"
    },
    {
      "channel": 4,
      "note": 78,
      "start": 40.34,
      "duration": 0.0001,
      "velocity": 1,
      "chip": "ym2612"
    },
    {
      "channel": 4,
      "note": 78,
      "start": 40.3567,
      "duration": 0.0001,
      "velocity": 1,
      "chip": "ym2612"
    },
    {
      "channel": 1,
      "note": 22,
      "start": 40.376,
      "duration": 0.0206,
      "velocity": 125,
      "chip": "ym2612"
    },
    {
      "channel": 4,
      "note": 78,
      "start": 40.3788,
      "duration": 0.0001,
      "velocity": 1,
      "chip": "ym2612"
    },
    {
      "channel": 4,
      "note": 78,
      "start": 40.4172,
      "duration": 0.0001,
      "velocity": 1,
      "chip": "ym2612"
    },
    {
      "channel": 4,
      "note": 78,
      "start": 40.4365,
      "duration": 0.0001,
      "velocity": 1,
      "chip": "ym2612"
    },
    {
      "channel": 4,
      "note": 78,
      "start": 40.4554,
      "duration": 0.0001,
      "velocity": 1,
      "chip": "ym2612"
    },
    {
      "channel": 4,
      "note": 78,
      "start": 40.4861,
      "duration": 0.0001,
      "velocity": 1,
      "chip": "ym2612"
    },
    {
      "channel": 1,
      "note": 22,
      "start": 40.5191,
      "duration": 0.0215,
      "velocity": 125,
      "chip": "ym2612"
    },
    {
      "channel": 4,
      "note": 78,
      "start": 40.522,
      "duration": 0.0001,
      "velocity": 1,
      "chip": "ym2612"
    },
    {
      "channel": 4,
      "note": 78,
      "start": 40.5435,
      "duration": 0.0001,
      "velocity": 1,
      "chip": "ym2612"
    },
    {
      "channel": 4,
      "note": 78,
      "start": 40.5766,
      "duration": 0.0001,
      "velocity": 1,
      "chip": "ym2612"
    },
    {
      "channel": 4,
      "note": 78,
      "start": 40.6091,
      "duration": 0.0001,
      "velocity": 1,
      "chip": "ym2612"
    },
    {
      "channel": 4,
      "note": 78,
      "start": 40.6252,
      "duration": 0.0001,
      "velocity": 1,
      "chip": "ym2612"
    },
    {
      "channel": 4,
      "note": 78,
      "start": 40.642,
      "duration": 0.0001,
      "velocity": 1,
      "chip": "ym2612"
    },
    {
      "channel": 1,
      "note": 22,
      "start": 40.6614,
      "duration": 0.0206,
      "velocity": 125,
      "chip": "ym2612"
    },
    {
      "channel": 4,
      "note": 78,
      "start": 40.6642,
      "duration": 0.0001,
      "velocity": 1,
      "chip": "ym2612"
    },
    {
      "channel": 1,
      "note": 22,
      "start": 40.7027,
      "duration": 0.0242,
      "velocity": 125,
      "chip": "ym2612"
    },
    {
      "channel": 4,
      "note": 66,
      "start": 40.7055,
      "duration": 0.0001,
      "velocity": 1,
      "chip": "ym2612"
    },
    {
      "channel": 1,
      "note": 28,
      "start": 40.729,
      "duration": 0.0282,
      "velocity": 125,
      "chip": "ym2612"
    },
    {
      "channel": 4,
      "note": 66,
      "start": 40.7318,
      "duration": 0.0001,
      "velocity": 1,
      "chip": "ym2612"
    },
    {
      "channel": 0,
      "note": 42,
      "start": 40.7561,
      "duration": 0.0102,
      "velocity": 107,
      "chip": "ym2612"
    },
    {
      "channel": 2,
      "note": 56,
      "start": 40.7594,
      "duration": 127.9984,
      "velocity": 106,
      "chip": "ym2612"
    },
    {
      "channel": 4,
      "note": 78,
      "start": 40.7622,
      "duration": 0.0001,
      "velocity": 1,
      "chip": "ym2612"
    },
    {
      "channel": 0,
      "note": 42,
      "start": 40.8066,
      "duration": 0.0086,
      "velocity": 107,
      "chip": "ym2612"
    },
    {
      "channel": 3,
      "note": 56,
      "start": 40.8099,
      "duration": 127.9479,
      "velocity": 106,
      "chip": "ym2612"
    },
    {
      "channel": 4,
      "note": 78,
      "start": 40.8127,
      "duration": 0.0001,
      "velocity": 1,
      "chip": "ym2612"
    }
  ]
}