{
  "track_name": "03 - Bank Menu 1",
  "duration_sec": 15.508,
  "sample_rate": 44100,
  "note_count": 259,
  "unique_pitches": 22,
  "pitch_range": 48,
  "avg_note_duration": 0.3235,
  "reconstruction_stats": {
    "notes_reconstructed": 259,
    "keyon_events": 259,
    "keyoff_events": 253,
    "orphan_keyons": 6,
    "unique_pitches": 22,
    "pitch_range": 48,
    "avg_duration_sec": 0.3235
  },
  "metadata": {
    "source": "M\\Mega Anser\\03 - Bank Menu 1.vgz"
  },
  "notes": [
    {
      "channel": 2,
      "note": 30,
      "start": 0.0016,
      "duration": 0.0783,
      "velocity": 119,
      "chip": "ym2612"
    },
    {
      "channel": 2,
      "note": 30,
      "start": 0.0848,
      "duration": 0.1055,
      "velocity": 119,
      "chip": "ym2612"
    },
    {
      "channel": 2,
      "note": 72,
      "start": 0.1949,
      "duration": 0.1056,
      "velocity": 120,
      "chip": "ym2612"
    },
    {
      "channel": 2,
      "note": 72,
      "start": 0.3053,
      "duration": 0.1056,
      "velocity": 120,
      "chip": "ym2612"
    },
    {
      "channel": 2,
      "note": 72,
      "start": 0.4157,
      "duration": 0.0898,
      "velocity": 120,
      "chip": "ym2612"
    },
    {
      "channel": 2,
      "note": 72,
      "start": 0.5103,
      "duration": 0.1055,
      "velocity": 120,
      "chip": "ym2612"
    },
    {
      "channel": 2,
      "note": 72,
      "start": 0.6206,
      "duration": 0.2252,
      "velocity": 120,
      "chip": "ym2612"
    },
    {
      "channel": 2,
      "note": 30,
      "start": 0.8507,
      "duration": 0.0803,
      "velocity": 119,
      "chip": "ym2612"
    },
    {
      "channel": 2,
      "note": 72,
      "start": 0.9358,
      "duration": 0.1056,
      "velocity": 120,
      "chip": "ym2612"
    },
    {
      "channel": 2,
      "note": 72,
      "start": 1.0462,
      "duration": 0.1055,
      "velocity": 120,
      "chip": "ym2612"
    },
    {
      "channel": 2,
      "note": 72,
      "start": 1.1565,
      "duration": 0.1055,
      "velocity": 120,
      "chip": "ym2612"
    },
    {
      "channel": 2,
      "note": 30,
      "start": 1.2669,
      "duration": 0.0898,
      "velocity": 119,
      "chip": "ym2612"
    },
    {
      "channel": 2,
      "note": 72,
      "start": 1.3614,
      "duration": 0.1056,
      "velocity": 120,
      "chip": "ym2612"
    },
    {
      "channel": 2,
      "note": 72,
      "start": 1.4717,
      "duration": 0.1056,
      "velocity": 120,
      "chip": "ym2612"
    },
    {
      "channel": 2,
      "note": 72,
      "start": 1.5821,
      "duration": 0.1057,
      "velocity": 120,
      "chip": "ym2612"
    },
    {
      "channel": 0,
      "note": 78,
      "start": 1.6912,
      "duration": 0.2069,
      "velocity": 80,
      "chip": "ym2612"
    },
    {
      "channel": 1,
      "note": 47,
      "start": 1.6918,
      "duration": 0.2069,
      "velocity": 107,
      "chip": "ym2612"
    },
    {
      "channel": 3,
      "note": 66,
      "start": 1.6925,
      "duration": 1.7018,
      "velocity": 80,
      "chip": "ym2612"
    },
    {
      "channel": 4,
      "note": 71,
      "start": 1.6932,
      "duration": 1.7017,
      "velocity": 80,
      "chip": "ym2612"
    },
    {
      "channel": 5,
      "note": 75,
      "start": 1.6939,
      "duration": 1.7017,
      "velocity": 80,
      "chip": "ym2612"
    },
    {
      "channel": 2,
      "note": 30,
      "start": 1.6947,
      "duration": 0.0875,
      "velocity": 119,
      "chip": "ym2612"
    },
    {
      "channel": 2,
      "note": 69,
      "start": 1.7871,
      "duration": 0.1081,
      "velocity": 127,
      "chip": "ym2612"
    },
    {
      "channel": 0,
      "note": 76,
      "start": 1.8986,
      "duration": 0.2174,
      "velocity": 80,
      "chip": "ym2612"
    },
    {
      "channel": 1,
      "note": 59,
      "start": 1.8993,
      "duration": 0.2174,
      "velocity": 107,
      "chip": "ym2612"
    },
    {
      "channel": 2,
      "note": 30,
      "start": 1.9009,
      "duration": 0.102,
      "velocity": 119,
      "chip": "ym2612"
    },
    {
      "channel": 2,
      "note": 69,
      "start": 2.0077,
      "duration": 0.1055,
      "velocity": 127,
      "chip": "ym2612"
    },
    {
      "channel": 0,
      "note": 75,
      "start": 2.1165,
      "duration": 0.2045,
      "velocity": 80,
      "chip": "ym2612"
    },
    {
      "channel": 1,
      "note": 47,
      "start": 2.1172,
      "duration": 0.2045,
      "velocity": 107,
      "chip": "ym2612"
    },
    {
      "channel": 2,
      "note": 72,
      "start": 2.1188,
      "duration": 0.089,
      "velocity": 120,
      "chip": "ym2612"
    },
    {
      "channel": 2,
      "note": 69,
      "start": 2.2127,
      "duration": 0.1055,
      "velocity": 127,
      "chip": "ym2612"
    },
    {
      "channel": 0,
      "note": 73,
      "start": 2.3215,
      "duration": 0.6457,
      "velocity": 80,
      "chip": "ym2612"
    },
    {
      "channel": 1,
      "note": 59,
      "start": 2.3222,
      "duration": 0.2169,
      "velocity": 107,
      "chip": "ym2612"
    },
    {
      "channel": 2,
      "note": 69,
      "start": 2.3238,
      "duration": 0.1166,
      "velocity": 127,
      "chip": "ym2612"
    },
    {
      "channel": 2,
      "note": 69,
      "start": 2.4453,
      "duration": 0.1881,
      "velocity": 127,
      "chip": "ym2612"
    },
    {
      "channel": 1,
      "note": 47,
      "start": 2.5396,
      "duration": 0.2072,
      "velocity": 107,
      "chip": "ym2612"
    },
    {
      "channel": 2,
      "note": 69,
      "start": 2.6384,
      "duration": 0.1053,
      "velocity": 127,
      "chip": "ym2612"
    },
    {
      "channel": 1,
      "note": 59,
      "start": 2.7473,
      "duration": 0.2206,
      "velocity": 107,
      "chip": "ym2612"
    },
    {
      "channel": 2,
      "note": 69,
      "start": 2.749,
      "duration": 0.1051,
      "velocity": 127,
      "chip": "ym2612"
    },
    {
      "channel": 2,
      "note": 69,
      "start": 2.859,
      "duration": 0.1054,
      "velocity": 127,
      "chip": "ym2612"
    },
    {
      "channel": 0,
      "note": 75,
      "start": 2.9677,
      "duration": 0.4252,
      "velocity": 80,
      "chip": "ym2612"
    },
    {
      "channel": 1,
      "note": 47,
      "start": 2.9684,
      "duration": 0.2039,
      "velocity": 107,
      "chip": "ym2612"
    },
    {
      "channel": 2,
      "note": 72,
      "start": 2.97,
      "duration": 0.089,
      "velocity": 120,
      "chip": "ym2612"
    },
    {
      "channel": 2,
      "note": 69,
      "start": 3.0639,
      "duration": 0.1055,
      "velocity": 127,
      "chip": "ym2612"
    },
    {
      "channel": 1,
      "note": 59,
      "start": 3.1729,
      "duration": 0.2207,
      "velocity": 107,
      "chip": "ym2612"
    },
    {
      "channel": 2,
      "note": 30,
      "start": 3.1746,
      "duration": 0.105,
      "velocity": 119,
      "chip": "ym2612"
    },
    {
      "channel": 2,
      "note": 69,
      "start": 3.2845,
      "duration": 0.1056,
      "velocity": 127,
      "chip": "ym2612"
    },
    {
      "channel": 0,
      "note": 76,
      "start": 3.3935,
      "duration": 0.6298,
      "velocity": 80,
      "chip": "ym2612"
    },
    {
      "channel": 1,
      "note": 46,
      "start": 3.3941,
      "duration": 0.2038,
      "velocity": 107,
      "chip": "ym2612"
    },
    {
      "channel": 3,
      "note": 66,
      "start": 3.3948,
      "duration": 1.7017,
      "velocity": 80,
      "chip": "ym2612"
    },
    {
      "channel": 4,
      "note": 71,
      "start": 3.3955,
      "duration": 1.7017,
      "velocity": 80,
      "chip": "ym2612"
    },
    {
      "channel": 5,
      "note": 75,
      "start": 3.3962,
      "duration": 1.7018,
      "velocity": 80,
      "chip": "ym2612"
    },
    {
      "channel": 2,
      "note": 30,
      "start": 3.397,
      "duration": 0.0929,
      "velocity": 119,
      "chip": "ym2612"
    },
    {
      "channel": 2,
      "note": 69,
      "start": 3.4948,
      "duration": 0.1001,
      "velocity": 127,
      "chip": "ym2612"
    },
    {
      "channel": 1,
      "note": 58,
      "start": 3.5985,
      "duration": 0.2202,
      "velocity": 107,
      "chip": "ym2612"
    },
    {
      "channel": 2,
      "note": 30,
      "start": 3.6001,
      "duration": 0.1051,
      "velocity": 119,
      "chip": "ym2612"
    },
    {
      "channel": 2,
      "note": 69,
      "start": 3.7101,
      "duration": 0.1055,
      "velocity": 127,
      "chip": "ym2612"
    },
    {
      "channel": 1,
      "note": 46,
      "start": 3.8192,
      "duration": 0.2048,
      "velocity": 107,
      "chip": "ym2612"
    },
    {
      "channel": 2,
      "note": 72,
      "start": 3.8208,
      "duration": 0.0895,
      "velocity": 120,
      "chip": "ym2612"
    },
    {
      "channel": 2,
      "note": 69,
      "start": 3.9151,
      "duration": 0.1053,
      "velocity": 127,
      "chip": "ym2612"
    },
    {
      "channel": 0,
      "note": 75,
      "start": 4.0238,
      "duration": 0.6457,
      "velocity": 80,
      "chip": "ym2612"
    },
    {
      "channel": 1,
      "note": 58,
      "start": 4.0245,
      "duration": 0.2171,
      "velocity": 107,
      "chip": "ym2612"
    },
    {
      "channel": 2,
      "note": 69,
      "start": 4.0262,
      "duration": 0.1046,
      "velocity": 127,
      "chip": "ym2612"
    },
    {
      "channel": 2,
      "note": 69,
      "start": 4.1357,
      "duration": 0.2,
      "velocity": 127,
      "chip": "ym2612"
    },
    {
      "channel": 1,
      "note": 46,
      "start": 4.2421,
      "duration": 0.2071,
      "velocity": 107,
      "chip": "ym2612"
    },
    {
      "channel": 2,
      "note": 69,
      "start": 4.3407,
      "duration": 0.1055,
      "velocity": 127,
      "chip": "ym2612"
    },
    {
      "channel": 1,
      "note": 58,
      "start": 4.4497,
      "duration": 0.2205,
      "velocity": 107,
      "chip": "ym2612"
    },
    {
      "channel": 2,
      "note": 69,
      "start": 4.4515,
      "duration": 0.105,
      "velocity": 127,
      "chip": "ym2612"
    },
    {
      "channel": 2,
      "note": 69,
      "start": 4.5614,
      "duration": 0.1054,
      "velocity": 127,
      "chip": "ym2612"
    },
    {
      "channel": 0,
      "note": 73,
      "start": 4.6701,
      "duration": 0.4251,
      "velocity": 80,
      "chip": "ym2612"
    },
    {
      "channel": 1,
      "note": 46,
      "start": 4.6708,
      "duration": 0.204,
      "velocity": 107,
      "chip": "ym2612"
    },
    {
      "channel": 2,
      "note": 72,
      "start": 4.6723,
      "duration": 0.089,
      "velocity": 120,
      "chip": "ym2612"
    },
    {
      "channel": 2,
      "note": 69,
      "start": 4.7662,
      "duration": 0.1056,
      "velocity": 127,
      "chip": "ym2612"
    },
    {
      "channel": 1,
      "note": 58,
      "start": 4.8753,
      "duration": 0.2206,
      "velocity": 107,
      "chip": "ym2612"
    },
    {
      "channel": 2,
      "note": 30,
      "start": 4.877,
      "duration": 0.1051,
      "velocity": 119,
      "chip": "ym2612"
    },
    {
      "channel": 2,
      "note": 69,
      "start": 4.987,
      "duration": 0.1054,
      "velocity": 127,
      "chip": "ym2612"
    },
    {
      "channel": 0,
      "note": 78,
      "start": 5.0958,
      "duration": 0.2043,
      "velocity": 80,
      "chip": "ym2612"
    },
    {
      "channel": 1,
      "note": 44,
      "start": 5.0964,
      "duration": 0.2044,
      "velocity": 107,
      "chip": "ym2612"
    },
    {
      "channel": 3,
      "note": 68,
      "start": 5.0971,
      "duration": 1.7018,
      "velocity": 80,
      "chip": "ym2612"
    },
    {
      "channel": 4,
      "note": 71,
      "start": 5.0978,
      "duration": 1.7018,
      "velocity": 80,
      "chip": "ym2612"
    },
    {
      "channel": 5,
      "note": 76,
      "start": 5.0985,
      "duration": 1.7018,
      "velocity": 80,
      "chip": "ym2612"
    },
    {
      "channel": 2,
      "note": 30,
      "start": 5.0992,
      "duration": 0.0878,
      "velocity": 119,
      "chip": "ym2612"
    },
    {
      "channel": 2,
      "note": 69,
      "start": 5.1919,
      "duration": 0.1054,
      "velocity": 127,
      "chip": "ym2612"
    },
    {
      "channel": 0,
      "note": 76,
      "start": 5.3007,
      "duration": 0.22,
      "velocity": 80,
      "chip": "ym2612"
    },
    {
      "channel": 1,
      "note": 56,
      "start": 5.3013,
      "duration": 0.2201,
      "velocity": 107,
      "chip": "ym2612"
    },
    {
      "channel": 2,
      "note": 30,
      "start": 5.303,
      "duration": 0.1046,
      "velocity": 119,
      "chip": "ym2612"
    },
    {
      "channel": 2,
      "note": 69,
      "start": 5.4125,
      "duration": 0.1054,
      "velocity": 127,
      "chip": "ym2612"
    },
    {
      "channel": 0,
      "note": 75,
      "start": 5.5213,
      "duration": 0.2044,
      "velocity": 80,
      "chip": "ym2612"
    },
    {
      "channel": 1,
      "note": 44,
      "start": 5.5219,
      "duration": 0.2044,
      "velocity": 107,
      "chip": "ym2612"
    },
    {
      "channel": 2,
      "note": 72,
      "start": 5.5234,
      "duration": 0.0891,
      "velocity": 120,
      "chip": "ym2612"
    },
    {
      "channel": 2,
      "note": 69,
      "start": 5.6175,
      "duration": 0.1054,
      "velocity": 127,
      "chip": "ym2612"
    },
    {
      "channel": 0,
      "note": 73,
      "start": 5.7263,
      "duration": 0.6457,
      "velocity": 80,
      "chip": "ym2612"
    },
    {
      "channel": 1,
      "note": 56,
      "start": 5.7269,
      "duration": 0.2169,
      "velocity": 107,
      "chip": "ym2612"
    },
    {
      "channel": 2,
      "note": 69,
      "start": 5.7286,
      "duration": 0.1046,
      "velocity": 127,
      "chip": "ym2612"
    },
    {
      "channel": 2,
      "note": 69,
      "start": 5.8381,
      "duration": 0.1999,
      "velocity": 127,
      "chip": "ym2612"
    },
    {
      "channel": 1,
      "note": 44,
      "start": 5.9443,
      "duration": 0.2072,
      "velocity": 107,
      "chip": "ym2612"
    },
    {
      "channel": 2,
      "note": 69,
      "start": 6.043,
      "duration": 0.1055,
      "velocity": 127,
      "chip": "ym2612"
    },
    {
      "channel": 1,
      "note": 56,
      "start": 6.152,
      "duration": 0.2206,
      "velocity": 107,
      "chip": "ym2612"
    },
    {
      "channel": 2,
      "note": 69,
      "start": 6.1537,
      "duration": 0.105,
      "velocity": 127,
      "chip": "ym2612"
    },
    {
      "channel": 2,
      "note": 69,
      "start": 6.2637,
      "duration": 0.1055,
      "velocity": 127,
      "chip": "ym2612"
    },
    {
      "channel": 0,
      "note": 71,
      "start": 6.3725,
      "duration": 0.4251,
      "velocity": 80,
      "chip": "ym2612"
    },
    {
      "channel": 1,
      "note": 44,
      "start": 6.3731,
      "duration": 0.209,
      "velocity": 107,
      "chip": "ym2612"
    },
    {
      "channel": 2,
      "note": 72,
      "start": 6.3747,
      "duration": 0.089,
      "velocity": 120,
      "chip": "ym2612"
    },
    {
      "channel": 2,
      "note": 69,
      "start": 6.4686,
      "duration": 0.1105,
      "velocity": 127,
      "chip": "ym2612"
    },
    {
      "channel": 1,
      "note": 56,
      "start": 6.5827,
      "duration": 0.2156,
      "velocity": 107,
      "chip": "ym2612"
    },
    {
      "channel": 2,
      "note": 30,
      "start": 6.5843,
      "duration": 0.1,
      "velocity": 119,
      "chip": "ym2612"
    },
    {
      "channel": 2,
      "note": 69,
      "start": 6.6892,
      "duration": 0.1055,
      "velocity": 127,
      "chip": "ym2612"
    },
    {
      "channel": 0,
      "note": 73,
      "start": 6.7981,
      "duration": 1.7018,
      "velocity": 80,
      "chip": "ym2612"
    },
    {
      "channel": 1,
      "note": 42,
      "start": 6.7988,
      "duration": 0.2039,
      "velocity": 107,
      "chip": "ym2612"
    },
    {
      "channel": 3,
      "note": 68,
      "start": 6.7995,
      "duration": 1.7018,
      "velocity": 80,
      "chip": "ym2612"
    },
    {
      "channel": 4,
      "note": 73,
      "start": 6.8001,
      "duration": 1.7019,
      "velocity": 80,
      "chip": "ym2612"
    },
    {
      "channel": 5,
      "note": 76,
      "start": 6.8008,
      "duration": 1.7019,
      "velocity": 80,
      "chip": "ym2612"
    },
    {
      "channel": 2,
      "note": 30,
      "start": 6.8016,
      "duration": 0.0877,
      "velocity": 119,
      "chip": "ym2612"
    },
    {
      "channel": 2,
      "note": 69,
      "start": 6.8942,
      "duration": 0.1054,
      "velocity": 127,
      "chip": "ym2612"
    },
    {
      "channel": 1,
      "note": 54,
      "start": 7.0032,
      "duration": 0.2202,
      "velocity": 107,
      "chip": "ym2612"
    },
    {
      "channel": 2,
      "note": 30,
      "start": 7.0048,
      "duration": 0.1052,
      "velocity": 119,
      "chip": "ym2612"
    },
    {
      "channel": 2,
      "note": 69,
      "start": 7.1264,
      "duration": 0.0938,
      "velocity": 127,
      "chip": "ym2612"
    },
    {
      "channel": 1,
      "note": 42,
      "start": 7.2238,
      "duration": 0.2044,
      "velocity": 107,
      "chip": "ym2612"
    },
    {
      "channel": 2,
      "note": 72,
      "start": 7.2254,
      "duration": 0.0895,
      "velocity": 120,
      "chip": "ym2612"
    },
    {
      "channel": 2,
      "note": 69,
      "start": 7.3198,
      "duration": 0.1054,
      "velocity": 127,
      "chip": "ym2612"
    },
    {
      "channel": 1,
      "note": 54,
      "start": 7.4287,
      "duration": 0.228,
      "velocity": 107,
      "chip": "ym2612"
    },
    {
      "channel": 2,
      "note": 69,
      "start": 7.4305,
      "duration": 0.1051,
      "velocity": 127,
      "chip": "ym2612"
    },
    {
      "channel": 2,
      "note": 69,
      "start": 7.5404,
      "duration": 0.2001,
      "velocity": 127,
      "chip": "ym2612"
    },
    {
      "channel": 1,
      "note": 42,
      "start": 7.6573,
      "duration": 0.1966,
      "velocity": 107,
      "chip": "ym2612"
    },
    {
      "channel": 2,
      "note": 69,
      "start": 7.7454,
      "duration": 0.1054,
      "velocity": 127,
      "chip": "ym2612"
    },
    {
      "channel": 1,
      "note": 54,
      "start": 7.8544,
      "duration": 0.2202,
      "velocity": 107,
      "chip": "ym2612"
    },
    {
      "channel": 2,
      "note": 69,
      "start": 7.856,
      "duration": 0.1051,
      "velocity": 127,
      "chip": "ym2612"
    },
    {
      "channel": 2,
      "note": 69,
      "start": 7.9661,
      "duration": 0.1053,
      "velocity": 127,
      "chip": "ym2612"
    },
    {
      "channel": 1,
      "note": 42,
      "start": 8.075,
      "duration": 0.2044,
      "velocity": 107,
      "chip": "ym2612"
    },
    {
      "channel": 2,
      "note": 72,
      "start": 8.0766,
      "duration": 0.0971,
      "velocity": 120,
      "chip": "ym2612"
    },
    {
      "channel": 2,
      "note": 69,
      "start": 8.1785,
      "duration": 0.0978,
      "velocity": 127,
      "chip": "ym2612"
    },
    {
      "channel": 1,
      "note": 54,
      "start": 8.2799,
      "duration": 0.2207,
      "velocity": 107,
      "chip": "ym2612"
    },
    {
      "channel": 2,
      "note": 30,
      "start": 8.2816,
      "duration": 0.1052,
      "velocity": 119,
      "chip": "ym2612"
    },
    {
      "channel": 2,
      "note": 69,
      "start": 8.3917,
      "duration": 0.1055,
      "velocity": 127,
      "chip": "ym2612"
    },
    {
      "channel": 0,
      "note": 71,
      "start": 8.5005,
      "duration": 0.2042,
      "velocity": 80,
      "chip": "ym2612"
    },
    {
      "channel": 1,
      "note": 40,
      "start": 8.5012,
      "duration": 0.2042,
      "velocity": 107,
      "chip": "ym2612"
    },
    {
      "channel": 3,
      "note": 68,
      "start": 8.5019,
      "duration": 1.7018,
      "velocity": 80,
      "chip": "ym2612"
    },
    {
      "channel": 4,
      "note": 73,
      "start": 8.5025,
      "duration": 1.7019,
      "velocity": 80,
      "chip": "ym2612"
    },
    {
      "channel": 5,
      "note": 76,
      "start": 8.5032,
      "duration": 1.7019,
      "velocity": 80,
      "chip": "ym2612"
    },
    {
      "channel": 2,
      "note": 30,
      "start": 8.504,
      "duration": 0.0877,
      "velocity": 119,
      "chip": "ym2612"
    },
    {
      "channel": 2,
      "note": 69,
      "start": 8.5966,
      "duration": 0.1054,
      "velocity": 127,
      "chip": "ym2612"
    },
    {
      "channel": 0,
      "note": 73,
      "start": 8.7053,
      "duration": 0.2202,
      "velocity": 80,
      "chip": "ym2612"
    },
    {
      "channel": 1,
      "note": 52,
      "start": 8.7059,
      "duration": 0.2203,
      "velocity": 107,
      "chip": "ym2612"
    },
    {
      "channel": 2,
      "note": 30,
      "start": 8.7076,
      "duration": 0.1047,
      "velocity": 119,
      "chip": "ym2612"
    },
    {
      "channel": 2,
      "note": 69,
      "start": 8.8172,
      "duration": 0.1055,
      "velocity": 127,
      "chip": "ym2612"
    },
    {
      "channel": 0,
      "note": 75,
      "start": 8.926,
      "duration": 0.2043,
      "velocity": 80,
      "chip": "ym2612"
    },
    {
      "channel": 1,
      "note": 40,
      "start": 8.9267,
      "duration": 0.2043,
      "velocity": 107,
      "chip": "ym2612"
    },
    {
      "channel": 2,
      "note": 72,
      "start": 8.9282,
      "duration": 0.0891,
      "velocity": 120,
      "chip": "ym2612"
    },
    {
      "channel": 2,
      "note": 69,
      "start": 9.0222,
      "duration": 0.1053,
      "velocity": 127,
      "chip": "ym2612"
    },
    {
      "channel": 0,
      "note": 76,
      "start": 9.1309,
      "duration": 0.6458,
      "velocity": 80,
      "chip": "ym2612"
    },
    {
      "channel": 1,
      "note": 52,
      "start": 9.1315,
      "duration": 0.217,
      "velocity": 107,
      "chip": "ym2612"
    },
    {
      "channel": 2,
      "note": 69,
      "start": 9.1332,
      "duration": 0.1047,
      "velocity": 127,
      "chip": "ym2612"
    },
    {
      "channel": 2,
      "note": 69,
      "start": 9.2428,
      "duration": 0.2001,
      "velocity": 127,
      "chip": "ym2612"
    },
    {
      "channel": 1,
      "note": 40,
      "start": 9.349,
      "duration": 0.2072,
      "velocity": 107,
      "chip": "ym2612"
    },
    {
      "channel": 2,
      "note": 69,
      "start": 9.4478,
      "duration": 0.1054,
      "velocity": 127,
      "chip": "ym2612"
    },
    {
      "channel": 1,
      "note": 52,
      "start": 9.5567,
      "duration": 0.2206,
      "velocity": 107,
      "chip": "ym2612"
    },
    {
      "channel": 2,
      "note": 69,
      "start": 9.5584,
      "duration": 0.1051,
      "velocity": 127,
      "chip": "ym2612"
    },
    {
      "channel": 2,
      "note": 69,
      "start": 9.6684,
      "duration": 0.1054,
      "velocity": 127,
      "chip": "ym2612"
    },
    {
      "channel": 0,
      "note": 75,
      "start": 9.7771,
      "duration": 0.4252,
      "velocity": 80,
      "chip": "ym2612"
    },
    {
      "channel": 1,
      "note": 40,
      "start": 9.7778,
      "duration": 0.2041,
      "velocity": 107,
      "chip": "ym2612"
    },
    {
      "channel": 2,
      "note": 72,
      "start": 9.7794,
      "duration": 0.089,
      "velocity": 120,
      "chip": "ym2612"
    },
    {
      "channel": 2,
      "note": 69,
      "start": 9.8733,
      "duration": 0.1055,
      "velocity": 127,
      "chip": "ym2612"
    },
    {
      "channel": 1,
      "note": 52,
      "start": 9.9824,
      "duration": 0.2207,
      "velocity": 107,
      "chip": "ym2612"
    },
    {
      "channel": 2,
      "note": 30,
      "start": 9.984,
      "duration": 0.105,
      "velocity": 119,
      "chip": "ym2612"
    },
    {
      "channel": 2,
      "note": 69,
      "start": 10.0939,
      "duration": 0.1056,
      "velocity": 127,
      "chip": "ym2612"
    },
    {
      "channel": 0,
      "note": 73,
      "start": 10.2029,
      "duration": 0.6298,
      "velocity": 80,
      "chip": "ym2612"
    },
    {
      "channel": 1,
      "note": 39,
      "start": 10.2035,
      "duration": 0.2039,
      "velocity": 107,
      "chip": "ym2612"
    },
    {
      "channel": 3,
      "note": 68,
      "start": 10.2042,
      "duration": 1.7017,
      "velocity": 80,
      "chip": "ym2612"
    },
    {
      "channel": 4,
      "note": 73,
      "start": 10.2049,
      "duration": 1.7017,
      "velocity": 80,
      "chip": "ym2612"
    },
    {
      "channel": 5,
      "note": 75,
      "start": 10.2056,
      "duration": 1.7017,
      "velocity": 80,
      "chip": "ym2612"
    },
    {
      "channel": 2,
      "note": 30,
      "start": 10.2063,
      "duration": 0.0876,
      "velocity": 119,
      "chip": "ym2612"
    },
    {
      "channel": 2,
      "note": 69,
      "start": 10.2988,
      "duration": 0.1055,
      "velocity": 127,
      "chip": "ym2612"
    },
    {
      "channel": 1,
      "note": 51,
      "start": 10.4079,
      "duration": 0.2202,
      "velocity": 107,
      "chip": "ym2612"
    },
    {
      "channel": 2,
      "note": 30,
      "start": 10.4096,
      "duration": 0.105,
      "velocity": 119,
      "chip": "ym2612"
    },
    {
      "channel": 2,
      "note": 69,
      "start": 10.5195,
      "duration": 0.1055,
      "velocity": 127,
      "chip": "ym2612"
    },
    {
      "channel": 1,
      "note": 39,
      "start": 10.6286,
      "duration": 0.2048,
      "velocity": 107,
      "chip": "ym2612"
    },
    {
      "channel": 2,
      "note": 72,
      "start": 10.6301,
      "duration": 0.0894,
      "velocity": 120,
      "chip": "ym2612"
    },
    {
      "channel": 2,
      "note": 69,
      "start": 10.7245,
      "duration": 0.1054,
      "velocity": 127,
      "chip": "ym2612"
    },
    {
      "channel": 0,
      "note": 71,
      "start": 10.8332,
      "duration": 0.6458,
      "velocity": 80,
      "chip": "ym2612"
    },
    {
      "channel": 1,
      "note": 51,
      "start": 10.8339,
      "duration": 0.217,
      "velocity": 107,
      "chip": "ym2612"
    },
    {
      "channel": 2,
      "note": 69,
      "start": 10.8355,
      "duration": 0.1047,
      "velocity": 127,
      "chip": "ym2612"
    },
    {
      "channel": 2,
      "note": 69,
      "start": 10.9452,
      "duration": 0.2,
      "velocity": 127,
      "chip": "ym2612"
    },
    {
      "channel": 1,
      "note": 39,
      "start": 11.0514,
      "duration": 0.2142,
      "velocity": 107,
      "chip": "ym2612"
    },
    {
      "channel": 2,
      "note": 69,
      "start": 11.1501,
      "duration": 0.1124,
      "velocity": 127,
      "chip": "ym2612"
    },
    {
      "channel": 1,
      "note": 51,
      "start": 11.2661,
      "duration": 0.2136,
      "velocity": 107,
      "chip": "ym2612"
    },
    {
      "channel": 2,
      "note": 69,
      "start": 11.2678,
      "duration": 0.0981,
      "velocity": 127,
      "chip": "ym2612"
    },
    {
      "channel": 2,
      "note": 69,
      "start": 11.3708,
      "duration": 0.1054,
      "velocity": 127,
      "chip": "ym2612"
    },
    {
      "channel": 0,
      "note": 68,
      "start": 11.4795,
      "duration": 0.4252,
      "velocity": 80,
      "chip": "ym2612"
    },
    {
      "channel": 1,
      "note": 39,
      "start": 11.4802,
      "duration": 0.204,
      "velocity": 107,
      "chip": "ym2612"
    },
    {
      "channel": 2,
      "note": 72,
      "start": 11.4817,
      "duration": 0.089,
      "velocity": 120,
      "chip": "ym2612"
    },
    {
      "channel": 2,
      "note": 69,
      "start": 11.5756,
      "duration": 0.1055,
      "velocity": 127,
      "chip": "ym2612"
    },
    {
      "channel": 1,
      "note": 51,
      "start": 11.6847,
      "duration": 0.2205,
      "velocity": 107,
      "chip": "ym2612"
    },
    {
      "channel": 2,
      "note": 30,
      "start": 11.6864,
      "duration": 0.1093,
      "velocity": 119,
      "chip": "ym2612"
    },
    {
      "channel": 2,
      "note": 69,
      "start": 11.8005,
      "duration": 0.1013,
      "velocity": 127,
      "chip": "ym2612"
    },
    {
      "channel": 0,
      "note": 68,
      "start": 11.9051,
      "duration": 0.2043,
      "velocity": 80,
      "chip": "ym2612"
    },
    {
      "channel": 1,
      "note": 40,
      "start": 11.9058,
      "duration": 0.2043,
      "velocity": 107,
      "chip": "ym2612"
    },
    {
      "channel": 3,
      "note": 68,
      "start": 11.9064,
      "duration": 1.702,
      "velocity": 80,
      "chip": "ym2612"
    },
    {
      "channel": 4,
      "note": 71,
      "start": 11.9071,
      "duration": 1.702,
      "velocity": 80,
      "chip": "ym2612"
    },
    {
      "channel": 5,
      "note": 76,
      "start": 11.9078,
      "duration": 1.702,
      "velocity": 80,
      "chip": "ym2612"
    },
    {
      "channel": 2,
      "note": 30,
      "start": 11.9086,
      "duration": 0.0877,
      "velocity": 119,
      "chip": "ym2612"
    },
    {
      "channel": 2,
      "note": 69,
      "start": 12.0012,
      "duration": 0.1054,
      "velocity": 127,
      "chip": "ym2612"
    },
    {
      "channel": 0,
      "note": 71,
      "start": 12.11,
      "duration": 0.2317,
      "velocity": 80,
      "chip": "ym2612"
    },
    {
      "channel": 1,
      "note": 52,
      "start": 12.1106,
      "duration": 0.2317,
      "velocity": 107,
      "chip": "ym2612"
    },
    {
      "channel": 2,
      "note": 30,
      "start": 12.1123,
      "duration": 0.1048,
      "velocity": 119,
      "chip": "ym2612"
    },
    {
      "channel": 2,
      "note": 69,
      "start": 12.222,
      "duration": 0.1053,
      "velocity": 127,
      "chip": "ym2612"
    },
    {
      "channel": 0,
      "note": 73,
      "start": 12.3422,
      "duration": 0.1929,
      "velocity": 80,
      "chip": "ym2612"
    },
    {
      "channel": 1,
      "note": 40,
      "start": 12.3428,
      "duration": 0.193,
      "velocity": 107,
      "chip": "ym2612"
    },
    {
      "channel": 2,
      "note": 72,
      "start": 12.3444,
      "duration": 0.0776,
      "velocity": 120,
      "chip": "ym2612"
    },
    {
      "channel": 2,
      "note": 69,
      "start": 12.4268,
      "duration": 0.1055,
      "velocity": 127,
      "chip": "ym2612"
    },
    {
      "channel": 0,
      "note": 75,
      "start": 12.5357,
      "duration": 0.6457,
      "velocity": 80,
      "chip": "ym2612"
    },
    {
      "channel": 1,
      "note": 52,
      "start": 12.5363,
      "duration": 0.2169,
      "velocity": 107,
      "chip": "ym2612"
    },
    {
      "channel": 2,
      "note": 69,
      "start": 12.538,
      "duration": 0.1046,
      "velocity": 127,
      "chip": "ym2612"
    },
    {
      "channel": 2,
      "note": 69,
      "start": 12.6476,
      "duration": 0.209,
      "velocity": 127,
      "chip": "ym2612"
    },
    {
      "channel": 1,
      "note": 40,
      "start": 12.7537,
      "duration": 0.2072,
      "velocity": 107,
      "chip": "ym2612"
    },
    {
      "channel": 2,
      "note": 69,
      "start": 12.8616,
      "duration": 0.0964,
      "velocity": 127,
      "chip": "ym2612"
    },
    {
      "channel": 1,
      "note": 52,
      "start": 12.9615,
      "duration": 0.2205,
      "velocity": 107,
      "chip": "ym2612"
    },
    {
      "channel": 2,
      "note": 69,
      "start": 12.9632,
      "duration": 0.1049,
      "velocity": 127,
      "chip": "ym2612"
    },
    {
      "channel": 2,
      "note": 69,
      "start": 13.0731,
      "duration": 0.1055,
      "velocity": 127,
      "chip": "ym2612"
    },
    {
      "channel": 0,
      "note": 76,
      "start": 13.1819,
      "duration": 0.4252,
      "velocity": 80,
      "chip": "ym2612"
    },
    {
      "channel": 1,
      "note": 40,
      "start": 13.1825,
      "duration": 0.2039,
      "velocity": 107,
      "chip": "ym2612"
    },
    {
      "channel": 2,
      "note": 72,
      "start": 13.1841,
      "duration": 0.089,
      "velocity": 120,
      "chip": "ym2612"
    },
    {
      "channel": 2,
      "note": 69,
      "start": 13.278,
      "duration": 0.1054,
      "velocity": 127,
      "chip": "ym2612"
    },
    {
      "channel": 1,
      "note": 52,
      "start": 13.387,
      "duration": 0.2207,
      "velocity": 107,
      "chip": "ym2612"
    },
    {
      "channel": 2,
      "note": 30,
      "start": 13.3887,
      "duration": 0.1051,
      "velocity": 119,
      "chip": "ym2612"
    },
    {
      "channel": 2,
      "note": 69,
      "start": 13.4986,
      "duration": 0.1056,
      "velocity": 127,
      "chip": "ym2612"
    },
    {
      "channel": 0,
      "note": 78,
      "start": 13.6076,
      "duration": 1.7018,
      "velocity": 80,
      "chip": "ym2612"
    },
    {
      "channel": 1,
      "note": 42,
      "start": 13.6083,
      "duration": 0.2038,
      "velocity": 107,
      "chip": "ym2612"
    },
    {
      "channel": 3,
      "note": 68,
      "start": 13.609,
      "duration": 1.702,
      "velocity": 80,
      "chip": "ym2612"
    },
    {
      "channel": 4,
      "note": 73,
      "start": 13.6096,
      "duration": 1.702,
      "velocity": 80,
      "chip": "ym2612"
    },
    {
      "channel": 5,
      "note": 76,
      "start": 13.6103,
      "duration": 1.7022,
      "velocity": 80,
      "chip": "ym2612"
    },
    {
      "channel": 2,
      "note": 30,
      "start": 13.6111,
      "duration": 0.0876,
      "velocity": 119,
      "chip": "ym2612"
    },
    {
      "channel": 2,
      "note": 69,
      "start": 13.7036,
      "duration": 0.1054,
      "velocity": 127,
      "chip": "ym2612"
    },
    {
      "channel": 1,
      "note": 54,
      "start": 13.8126,
      "duration": 0.2202,
      "velocity": 107,
      "chip": "ym2612"
    },
    {
      "channel": 2,
      "note": 30,
      "start": 13.8142,
      "duration": 0.1051,
      "velocity": 119,
      "chip": "ym2612"
    },
    {
      "channel": 2,
      "note": 69,
      "start": 13.9242,
      "duration": 0.1054,
      "velocity": 127,
      "chip": "ym2612"
    },
    {
      "channel": 1,
      "note": 42,
      "start": 14.0332,
      "duration": 0.2045,
      "velocity": 107,
      "chip": "ym2612"
    },
    {
      "channel": 2,
      "note": 72,
      "start": 14.0348,
      "duration": 0.0895,
      "velocity": 120,
      "chip": "ym2612"
    },
    {
      "channel": 2,
      "note": 72,
      "start": 14.129,
      "duration": 0.1056,
      "velocity": 120,
      "chip": "ym2612"
    },
    {
      "channel": 1,
      "note": 54,
      "start": 14.2382,
      "duration": 0.2201,
      "velocity": 107,
      "chip": "ym2612"
    },
    {
      "channel": 2,
      "note": 72,
      "start": 14.2398,
      "duration": 0.1052,
      "velocity": 120,
      "chip": "ym2612"
    },
    {
      "channel": 2,
      "note": 72,
      "start": 14.3498,
      "duration": 0.1055,
      "velocity": 120,
      "chip": "ym2612"
    },
    {
      "channel": 1,
      "note": 42,
      "start": 14.4588,
      "duration": 0.2044,
      "velocity": 107,
      "chip": "ym2612"
    },
    {
      "channel": 2,
      "note": 30,
      "start": 14.4605,
      "duration": 0.0894,
      "velocity": 119,
      "chip": "ym2612"
    },
    {
      "channel": 2,
      "note": 30,
      "start": 14.5547,
      "duration": 0.1055,
      "velocity": 119,
      "chip": "ym2612"
    },
    {
      "channel": 1,
      "note": 54,
      "start": 14.6637,
      "duration": 0.2202,
      "velocity": 107,
      "chip": "ym2612"
    },
    {
      "channel": 2,
      "note": 30,
      "start": 14.6654,
      "duration": 0.1052,
      "velocity": 119,
      "chip": "ym2612"
    },
    {
      "channel": 2,
      "note": 30,
      "start": 14.7754,
      "duration": 0.1055,
      "velocity": 119,
      "chip": "ym2612"
    },
    {
      "channel": 1,
      "note": 42,
      "start": 14.8845,
      "duration": 0.2044,
      "velocity": 107,
      "chip": "ym2612"
    },
    {
      "channel": 2,
      "note": 72,
      "start": 14.8861,
      "duration": 0.0894,
      "velocity": 120,
      "chip": "ym2612"
    },
    {
      "channel": 2,
      "note": 72,
      "start": 14.9802,
      "duration": 0.1055,
      "velocity": 120,
      "chip": "ym2612"
    },
    {
      "channel": 1,
      "note": 54,
      "start": 15.0894,
      "duration": 0.2209,
      "velocity": 107,
      "chip": "ym2612"
    },
    {
      "channel": 2,
      "note": 69,
      "start": 15.0911,
      "duration": 0.105,
      "velocity": 127,
      "chip": "ym2612"
    },
    {
      "channel": 2,
      "note": 69,
      "start": 15.2011,
      "duration": 0.1055,
      "velocity": 127,
      "chip": "ym2612"
    },
    {
      "channel": 0,
      "note": 78,
      "start": 15.31,
      "duration": 0.1978,
      "velocity": 80,
      "chip": "ym2612"
    },
    {
      "channel": 1,
      "note": 47,
      "start": 15.3107,
      "duration": 0.197,
      "velocity": 107,
      "chip": "ym2612"
    },
    {
      "channel": 3,
      "note": 66,
      "start": 15.3115,
      "duration": 0.1962,
      "velocity": 80,
      "chip": "ym2612"
    },
    {
      "channel": 4,
      "note": 71,
      "start": 15.3123,
      "duration": 0.1955,
      "velocity": 80,
      "chip": "ym2612"
    },
    {
      "channel": 5,
      "note": 75,
      "start": 15.313,
      "duration": 0.1947,
      "velocity": 80,
      "chip": "ym2612"
    },
    {
      "channel": 2,
      "note": 30,
      "start": 15.3138,
      "duration": 0.0872,
      "velocity": 119,
      "chip": "ym2612"
    },
    {
      "channel": 2,
      "note": 69,
      "start": 15.4059,
      "duration": 0.1018,
      "velocity": 127,
      "chip": "ym2612"
    }
  ]
}