{
  "track_name": "03 - Alleycat Blues",
  "duration_sec": 42.166,
  "sample_rate": 44100,
  "note_count": 959,
  "unique_pitches": 43,
  "pitch_range": 55,
  "avg_note_duration": 0.0705,
  "reconstruction_stats": {
    "notes_reconstructed": 959,
    "keyon_events": 959,
    "keyoff_events": 958,
    "orphan_keyons": 1,
    "unique_pitches": 43,
    "pitch_range": 55,
    "avg_duration_sec": 0.0705
  },
  "metadata": {
    "source": "T\\Teenage Mutant Ninja Turtles - The Hyperstone Heist\\03 - Alleycat Blues.vgz"
  },
  "notes": [
    {
      "channel": 0,
      "note": 50,
      "start": 0.0,
      "duration": 0.0459,
      "velocity": 111,
      "chip": "ym2612"
    },
    {
      "channel": 1,
      "note": 62,
      "start": 0.0022,
      "duration": 0.0284,
      "velocity": 86,
      "chip": "ym2612"
    },
    {
      "channel": 2,
      "note": 50,
      "start": 0.0042,
      "duration": 0.0265,
      "velocity": 108,
      "chip": "ym2612"
    },
    {
      "channel": 3,
      "note": 86,
      "start": 0.0068,
      "duration": 0.0242,
      "velocity": 103,
      "chip": "ym2612"
    },
    {
      "channel": 1,
      "note": 62,
      "start": 0.0351,
      "duration": 0.011,
      "velocity": 86,
      "chip": "ym2612"
    },
    {
      "channel": 2,
      "note": 50,
      "start": 0.0356,
      "duration": 0.0107,
      "velocity": 108,
      "chip": "ym2612"
    },
    {
      "channel": 3,
      "note": 50,
      "start": 0.0444,
      "duration": 0.0156,
      "velocity": 108,
      "chip": "ym2612"
    },
    {
      "channel": 1,
      "note": 65,
      "start": 0.0508,
      "duration": 0.1027,
      "velocity": 86,
      "chip": "ym2612"
    },
    {
      "channel": 2,
      "note": 53,
      "start": 0.0513,
      "duration": 0.1024,
      "velocity": 108,
      "chip": "ym2612"
    },
    {
      "channel": 4,
      "note": 81,
      "start": 0.0521,
      "duration": 0.0684,
      "velocity": 127,
      "chip": "ym2612"
    },
    {
      "channel": 3,
      "note": 50,
      "start": 0.0704,
      "duration": 0.0834,
      "velocity": 108,
      "chip": "ym2612"
    },
    {
      "channel": 1,
      "note": 62,
      "start": 0.1706,
      "duration": 0.0667,
      "velocity": 86,
      "chip": "ym2612"
    },
    {
      "channel": 2,
      "note": 50,
      "start": 0.1711,
      "duration": 0.0663,
      "velocity": 108,
      "chip": "ym2612"
    },
    {
      "channel": 3,
      "note": 53,
      "start": 0.1718,
      "duration": 0.1663,
      "velocity": 108,
      "chip": "ym2612"
    },
    {
      "channel": 1,
      "note": 66,
      "start": 0.2712,
      "duration": 0.1671,
      "velocity": 86,
      "chip": "ym2612"
    },
    {
      "channel": 2,
      "note": 54,
      "start": 0.2717,
      "duration": 0.1669,
      "velocity": 108,
      "chip": "ym2612"
    },
    {
      "channel": 3,
      "note": 50,
      "start": 0.3554,
      "duration": 0.0834,
      "velocity": 108,
      "chip": "ym2612"
    },
    {
      "channel": 1,
      "note": 62,
      "start": 0.4555,
      "duration": 0.0667,
      "velocity": 86,
      "chip": "ym2612"
    },
    {
      "channel": 2,
      "note": 50,
      "start": 0.456,
      "duration": 0.0663,
      "velocity": 108,
      "chip": "ym2612"
    },
    {
      "channel": 3,
      "note": 54,
      "start": 0.4566,
      "duration": 0.1664,
      "velocity": 108,
      "chip": "ym2612"
    },
    {
      "channel": 1,
      "note": 60,
      "start": 0.5561,
      "duration": 0.1672,
      "velocity": 86,
      "chip": "ym2612"
    },
    {
      "channel": 2,
      "note": 48,
      "start": 0.5566,
      "duration": 0.1668,
      "velocity": 108,
      "chip": "ym2612"
    },
    {
      "channel": 4,
      "note": 81,
      "start": 0.5574,
      "duration": 0.1329,
      "velocity": 127,
      "chip": "ym2612"
    },
    {
      "channel": 3,
      "note": 50,
      "start": 0.6402,
      "duration": 0.0834,
      "velocity": 108,
      "chip": "ym2612"
    },
    {
      "channel": 1,
      "note": 62,
      "start": 0.7404,
      "duration": 0.0667,
      "velocity": 86,
      "chip": "ym2612"
    },
    {
      "channel": 2,
      "note": 50,
      "start": 0.7409,
      "duration": 0.0663,
      "velocity": 108,
      "chip": "ym2612"
    },
    {
      "channel": 3,
      "note": 48,
      "start": 0.7416,
      "duration": 0.1664,
      "velocity": 108,
      "chip": "ym2612"
    },
    {
      "channel": 1,
      "note": 62,
      "start": 0.8412,
      "duration": 0.1669,
      "velocity": 86,
      "chip": "ym2612"
    },
    {
      "channel": 2,
      "note": 50,
      "start": 0.8417,
      "duration": 0.1666,
      "velocity": 108,
      "chip": "ym2612"
    },
    {
      "channel": 3,
      "note": 50,
      "start": 0.9252,
      "duration": 0.0834,
      "velocity": 108,
      "chip": "ym2612"
    },
    {
      "channel": 1,
      "note": 62,
      "start": 1.0253,
      "duration": 0.0667,
      "velocity": 86,
      "chip": "ym2612"
    },
    {
      "channel": 2,
      "note": 50,
      "start": 1.0259,
      "duration": 0.0663,
      "velocity": 108,
      "chip": "ym2612"
    },
    {
      "channel": 3,
      "note": 50,
      "start": 1.0265,
      "duration": 0.1665,
      "velocity": 108,
      "chip": "ym2612"
    },
    {
      "channel": 1,
      "note": 65,
      "start": 1.126,
      "duration": 0.1672,
      "velocity": 86,
      "chip": "ym2612"
    },
    {
      "channel": 2,
      "note": 53,
      "start": 1.1265,
      "duration": 0.1669,
      "velocity": 108,
      "chip": "ym2612"
    },
    {
      "channel": 4,
      "note": 81,
      "start": 1.1273,
      "duration": 0.1329,
      "velocity": 127,
      "chip": "ym2612"
    },
    {
      "channel": 3,
      "note": 50,
      "start": 1.2269,
      "duration": 0.0667,
      "velocity": 108,
      "chip": "ym2612"
    },
    {
      "channel": 1,
      "note": 62,
      "start": 1.3103,
      "duration": 0.0667,
      "velocity": 86,
      "chip": "ym2612"
    },
    {
      "channel": 2,
      "note": 50,
      "start": 1.3109,
      "duration": 0.0663,
      "velocity": 108,
      "chip": "ym2612"
    },
    {
      "channel": 3,
      "note": 53,
      "start": 1.3115,
      "duration": 0.1664,
      "velocity": 108,
      "chip": "ym2612"
    },
    {
      "channel": 1,
      "note": 65,
      "start": 1.411,
      "duration": 0.1672,
      "velocity": 86,
      "chip": "ym2612"
    },
    {
      "channel": 2,
      "note": 53,
      "start": 1.4115,
      "duration": 0.1668,
      "velocity": 108,
      "chip": "ym2612"
    },
    {
      "channel": 3,
      "note": 50,
      "start": 1.5119,
      "duration": 0.0667,
      "velocity": 108,
      "chip": "ym2612"
    },
    {
      "channel": 1,
      "note": 66,
      "start": 1.5953,
      "duration": 0.0834,
      "velocity": 86,
      "chip": "ym2612"
    },
    {
      "channel": 2,
      "note": 54,
      "start": 1.5958,
      "duration": 0.0831,
      "velocity": 108,
      "chip": "ym2612"
    },
    {
      "channel": 3,
      "note": 53,
      "start": 1.5968,
      "duration": 0.1661,
      "velocity": 108,
      "chip": "ym2612"
    },
    {
      "channel": 1,
      "note": 69,
      "start": 1.6959,
      "duration": 0.1676,
      "velocity": 86,
      "chip": "ym2612"
    },
    {
      "channel": 2,
      "note": 57,
      "start": 1.6968,
      "duration": 0.1668,
      "velocity": 108,
      "chip": "ym2612"
    },
    {
      "channel": 4,
      "note": 81,
      "start": 1.6976,
      "duration": 0.1329,
      "velocity": 127,
      "chip": "ym2612"
    },
    {
      "channel": 3,
      "note": 54,
      "start": 1.7971,
      "duration": 0.0667,
      "velocity": 108,
      "chip": "ym2612"
    },
    {
      "channel": 1,
      "note": 72,
      "start": 1.8805,
      "duration": 0.0835,
      "velocity": 86,
      "chip": "ym2612"
    },
    {
      "channel": 2,
      "note": 60,
      "start": 1.8811,
      "duration": 0.0832,
      "velocity": 108,
      "chip": "ym2612"
    },
    {
      "channel": 3,
      "note": 57,
      "start": 1.8817,
      "duration": 0.1665,
      "velocity": 108,
      "chip": "ym2612"
    },
    {
      "channel": 1,
      "note": 62,
      "start": 1.9816,
      "duration": 0.1668,
      "velocity": 86,
      "chip": "ym2612"
    },
    {
      "channel": 2,
      "note": 50,
      "start": 1.9821,
      "duration": 0.1665,
      "velocity": 108,
      "chip": "ym2612"
    },
    {
      "channel": 3,
      "note": 60,
      "start": 2.0822,
      "duration": 0.0666,
      "velocity": 108,
      "chip": "ym2612"
    },
    {
      "channel": 1,
      "note": 62,
      "start": 2.1655,
      "duration": 0.0834,
      "velocity": 86,
      "chip": "ym2612"
    },
    {
      "channel": 2,
      "note": 50,
      "start": 2.1661,
      "duration": 0.0831,
      "velocity": 108,
      "chip": "ym2612"
    },
    {
      "channel": 3,
      "note": 50,
      "start": 2.1667,
      "duration": 0.0827,
      "velocity": 108,
      "chip": "ym2612"
    },
    {
      "channel": 0,
      "note": 50,
      "start": 2.2661,
      "duration": 0.0387,
      "velocity": 111,
      "chip": "ym2612"
    },
    {
      "channel": 1,
      "note": 65,
      "start": 2.2666,
      "duration": 0.024,
      "velocity": 86,
      "chip": "ym2612"
    },
    {
      "channel": 2,
      "note": 53,
      "start": 2.2671,
      "duration": 0.0236,
      "velocity": 108,
      "chip": "ym2612"
    },
    {
      "channel": 3,
      "note": 86,
      "start": 2.2692,
      "duration": 0.0293,
      "velocity": 103,
      "chip": "ym2612"
    },
    {
      "channel": 4,
      "note": 81,
      "start": 2.2697,
      "duration": 0.0192,
      "velocity": 127,
      "chip": "ym2612"
    },
    {
      "channel": 1,
      "note": 62,
      "start": 2.2931,
      "duration": 0.0118,
      "velocity": 86,
      "chip": "ym2612"
    },
    {
      "channel": 2,
      "note": 50,
      "start": 2.2936,
      "duration": 0.0115,
      "velocity": 108,
      "chip": "ym2612"
    },
    {
      "channel": 1,
      "note": 66,
      "start": 2.3079,
      "duration": 0.0963,
      "velocity": 86,
      "chip": "ym2612"
    },
    {
      "channel": 2,
      "note": 54,
      "start": 2.3085,
      "duration": 0.0959,
      "velocity": 108,
      "chip": "ym2612"
    },
    {
      "channel": 3,
      "note": 53,
      "start": 2.3104,
      "duration": 0.0942,
      "velocity": 108,
      "chip": "ym2612"
    },
    {
      "channel": 1,
      "note": 62,
      "start": 2.4381,
      "duration": 0.0666,
      "velocity": 86,
      "chip": "ym2612"
    },
    {
      "channel": 2,
      "note": 50,
      "start": 2.4386,
      "duration": 0.0663,
      "velocity": 108,
      "chip": "ym2612"
    },
    {
      "channel": 3,
      "note": 50,
      "start": 2.4393,
      "duration": 0.0659,
      "velocity": 108,
      "chip": "ym2612"
    },
    {
      "channel": 0,
      "note": 50,
      "start": 2.5218,
      "duration": 0.0383,
      "velocity": 111,
      "chip": "ym2612"
    },
    {
      "channel": 1,
      "note": 60,
      "start": 2.5223,
      "duration": 0.0232,
      "velocity": 86,
      "chip": "ym2612"
    },
    {
      "channel": 2,
      "note": 48,
      "start": 2.5228,
      "duration": 0.0228,
      "velocity": 108,
      "chip": "ym2612"
    },
    {
      "channel": 3,
      "note": 86,
      "start": 2.5249,
      "duration": 0.029,
      "velocity": 103,
      "chip": "ym2612"
    },
    {
      "channel": 4,
      "note": 81,
      "start": 2.5255,
      "duration": 0.0188,
      "velocity": 127,
      "chip": "ym2612"
    },
    {
      "channel": 1,
      "note": 62,
      "start": 2.55,
      "duration": 0.0103,
      "velocity": 86,
      "chip": "ym2612"
    },
    {
      "channel": 2,
      "note": 50,
      "start": 2.5507,
      "duration": 0.0098,
      "velocity": 108,
      "chip": "ym2612"
    },
    {
      "channel": 0,
      "note": 50,
      "start": 2.5643,
      "duration": 0.027,
      "velocity": 111,
      "chip": "ym2612"
    },
    {
      "channel": 1,
      "note": 86,
      "start": 2.5666,
      "duration": 0.0249,
      "velocity": 103,
      "chip": "ym2612"
    },
    {
      "channel": 2,
      "note": 62,
      "start": 2.5677,
      "duration": 0.0241,
      "velocity": 108,
      "chip": "ym2612"
    },
    {
      "channel": 3,
      "note": 48,
      "start": 2.5696,
      "duration": 0.0163,
      "velocity": 108,
      "chip": "ym2612"
    },
    {
      "channel": 3,
      "note": 50,
      "start": 2.5902,
      "duration": 0.0093,
      "velocity": 108,
      "chip": "ym2612"
    },
    {
      "channel": 0,
      "note": 50,
      "start": 2.5958,
      "duration": 0.0113,
      "velocity": 111,
      "chip": "ym2612"
    },
    {
      "channel": 1,
      "note": 86,
      "start": 2.5964,
      "duration": 0.011,
      "velocity": 103,
      "chip": "ym2612"
    },
    {
      "channel": 2,
      "note": 62,
      "start": 2.597,
      "duration": 0.0106,
      "velocity": 108,
      "chip": "ym2612"
    },
    {
      "channel": 3,
      "note": 86,
      "start": 2.6057,
      "duration": 0.0217,
      "velocity": 103,
      "chip": "ym2612"
    },
    {
      "channel": 0,
      "note": 53,
      "start": 2.61,
      "duration": 0.0224,
      "velocity": 111,
      "chip": "ym2612"
    },
    {
      "channel": 1,
      "note": 89,
      "start": 2.6106,
      "duration": 0.022,
      "velocity": 103,
      "chip": "ym2612"
    },
    {
      "channel": 2,
      "note": 65,
      "start": 2.6112,
      "duration": 0.0216,
      "velocity": 108,
      "chip": "ym2612"
    },
    {
      "channel": 3,
      "note": 86,
      "start": 2.6314,
      "duration": 0.0094,
      "velocity": 103,
      "chip": "ym2612"
    },
    {
      "channel": 0,
      "note": 50,
      "start": 2.6368,
      "duration": 0.0092,
      "velocity": 111,
      "chip": "ym2612"
    },
    {
      "channel": 1,
      "note": 86,
      "start": 2.6374,
      "duration": 0.0088,
      "velocity": 103,
      "chip": "ym2612"
    },
    {
      "channel": 2,
      "note": 62,
      "start": 2.638,
      "duration": 0.0085,
      "velocity": 108,
      "chip": "ym2612"
    },
    {
      "channel": 3,
      "note": 89,
      "start": 2.6446,
      "duration": 0.0249,
      "velocity": 103,
      "chip": "ym2612"
    },
    {
      "channel": 0,
      "note": 48,
      "start": 2.6488,
      "duration": 0.0248,
      "velocity": 111,
      "chip": "ym2612"
    },
    {
      "channel": 1,
      "note": 84,
      "start": 2.6493,
      "duration": 0.0244,
      "velocity": 103,
      "chip": "ym2612"
    },
    {
      "channel": 2,
      "note": 60,
      "start": 2.6499,
      "duration": 0.0243,
      "velocity": 108,
      "chip": "ym2612"
    },
    {
      "channel": 3,
      "note": 86,
      "start": 2.6725,
      "duration": 0.01,
      "velocity": 103,
      "chip": "ym2612"
    },
    {
      "channel": 0,
      "note": 45,
      "start": 2.6785,
      "duration": 0.0097,
      "velocity": 111,
      "chip": "ym2612"
    },
    {
      "channel": 1,
      "note": 81,
      "start": 2.6791,
      "duration": 0.0092,
      "velocity": 103,
      "chip": "ym2612"
    },
    {
      "channel": 2,
      "note": 57,
      "start": 2.6796,
      "duration": 0.0089,
      "velocity": 108,
      "chip": "ym2612"
    },
    {
      "channel": 3,
      "note": 84,
      "start": 2.6871,
      "duration": 0.023,
      "velocity": 103,
      "chip": "ym2612"
    },
    {
      "channel": 0,
      "note": 43,
      "start": 2.6915,
      "duration": 0.0228,
      "velocity": 111,
      "chip": "ym2612"
    },
    {
      "channel": 1,
      "note": 79,
      "start": 2.6923,
      "duration": 0.0221,
      "velocity": 103,
      "chip": "ym2612"
    },
    {
      "channel": 2,
      "note": 55,
      "start": 2.693,
      "duration": 0.0216,
      "velocity": 108,
      "chip": "ym2612"
    },
    {
      "channel": 3,
      "note": 81,
      "start": 2.7127,
      "duration": 0.0115,
      "velocity": 103,
      "chip": "ym2612"
    },
    {
      "channel": 0,
      "note": 45,
      "start": 2.7199,
      "duration": 0.0102,
      "velocity": 111,
      "chip": "ym2612"
    },
    {
      "channel": 1,
      "note": 81,
      "start": 2.7205,
      "duration": 0.0098,
      "velocity": 103,
      "chip": "ym2612"
    },
    {
      "channel": 2,
      "note": 57,
      "start": 2.7211,
      "duration": 0.0094,
      "velocity": 108,
      "chip": "ym2612"
    },
    {
      "channel": 3,
      "note": 79,
      "start": 2.7287,
      "duration": 0.0021,
      "velocity": 103,
      "chip": "ym2612"
    },
    {
      "channel": 0,
      "note": 50,
      "start": 2.7352,
      "duration": 0.0347,
      "velocity": 111,
      "chip": "ym2612"
    },
    {
      "channel": 1,
      "note": 81,
      "start": 2.7368,
      "duration": 0.0532,
      "velocity": 103,
      "chip": "ym2612"
    },
    {
      "channel": 2,
      "note": 50,
      "start": 2.7383,
      "duration": 0.0212,
      "velocity": 108,
      "chip": "ym2612"
    },
    {
      "channel": 0,
      "note": 50,
      "start": 2.787,
      "duration": 0.01,
      "velocity": 111,
      "chip": "ym2612"
    },
    {
      "channel": 2,
      "note": 50,
      "start": 2.7877,
      "duration": 0.0097,
      "velocity": 108,
      "chip": "ym2612"
    },
    {
      "channel": 3,
      "note": 79,
      "start": 2.7914,
      "duration": 0.0403,
      "velocity": 103,
      "chip": "ym2612"
    },
    {
      "channel": 0,
      "note": 50,
      "start": 2.8023,
      "duration": 0.0253,
      "velocity": 111,
      "chip": "ym2612"
    },
    {
      "channel": 1,
      "note": 86,
      "start": 2.803,
      "duration": 0.0203,
      "velocity": 103,
      "chip": "ym2612"
    },
    {
      "channel": 2,
      "note": 50,
      "start": 2.8037,
      "duration": 0.0174,
      "velocity": 108,
      "chip": "ym2612"
    },
    {
      "channel": 0,
      "note": 50,
      "start": 2.8304,
      "duration": 0.0366,
      "velocity": 111,
      "chip": "ym2612"
    },
    {
      "channel": 1,
      "note": 84,
      "start": 2.831,
      "duration": 0.0361,
      "velocity": 103,
      "chip": "ym2612"
    },
    {
      "channel": 2,
      "note": 50,
      "start": 2.8315,
      "duration": 0.0363,
      "velocity": 108,
      "chip": "ym2612"
    },
    {
      "channel": 3,
      "note": 86,
      "start": 2.8351,
      "duration": 0.0805,
      "velocity": 103,
      "chip": "ym2612"
    },
    {
      "channel": 0,
      "note": 50,
      "start": 2.901,
      "duration": 0.0343,
      "velocity": 111,
      "chip": "ym2612"
    },
    {
      "channel": 1,
      "note": 83,
      "start": 2.9016,
      "duration": 0.0539,
      "velocity": 103,
      "chip": "ym2612"
    },
    {
      "channel": 2,
      "note": 50,
      "start": 2.9022,
      "duration": 0.0181,
      "velocity": 108,
      "chip": "ym2612"
    },
    {
      "channel": 3,
      "note": 84,
      "start": 2.9211,
      "duration": 0.0322,
      "velocity": 103,
      "chip": "ym2612"
    },
    {
      "channel": 0,
      "note": 50,
      "start": 2.9524,
      "duration": 0.0101,
      "velocity": 111,
      "chip": "ym2612"
    },
    {
      "channel": 2,
      "note": 50,
      "start": 2.9531,
      "duration": 0.0098,
      "velocity": 108,
      "chip": "ym2612"
    },
    {
      "channel": 3,
      "note": 83,
      "start": 2.9566,
      "duration": 0.0328,
      "velocity": 103,
      "chip": "ym2612"
    },
    {
      "channel": 0,
      "note": 50,
      "start": 2.9675,
      "duration": 0.0187,
      "velocity": 111,
      "chip": "ym2612"
    },
    {
      "channel": 1,
      "note": 81,
      "start": 2.9682,
      "duration": 0.0065,
      "velocity": 103,
      "chip": "ym2612"
    },
    {
      "channel": 2,
      "note": 50,
      "start": 2.9688,
      "duration": 0.013,
      "velocity": 108,
      "chip": "ym2612"
    },
    {
      "channel": 0,
      "note": 50,
      "start": 2.988,
      "duration": 0.043,
      "velocity": 111,
      "chip": "ym2612"
    },
    {
      "channel": 1,
      "note": 79,
      "start": 2.9886,
      "duration": 0.0932,
      "velocity": 103,
      "chip": "ym2612"
    },
    {
      "channel": 2,
      "note": 50,
      "start": 2.9892,
      "duration": 0.0426,
      "velocity": 108,
      "chip": "ym2612"
    },
    {
      "channel": 3,
      "note": 81,
      "start": 2.999,
      "duration": 0.0329,
      "velocity": 103,
      "chip": "ym2612"
    },
    {
      "channel": 0,
      "note": 50,
      "start": 3.0651,
      "duration": 0.0363,
      "velocity": 111,
      "chip": "ym2612"
    },
    {
      "channel": 2,
      "note": 50,
      "start": 3.066,
      "duration": 0.0161,
      "velocity": 108,
      "chip": "ym2612"
    },
    {
      "channel": 3,
      "note": 79,
      "start": 3.083,
      "duration": 0.0685,
      "velocity": 103,
      "chip": "ym2612"
    },
    {
      "channel": 0,
      "note": 50,
      "start": 3.1184,
      "duration": 0.0112,
      "velocity": 111,
      "chip": "ym2612"
    },
    {
      "channel": 1,
      "note": 86,
      "start": 3.1191,
      "duration": 0.0108,
      "velocity": 103,
      "chip": "ym2612"
    },
    {
      "channel": 2,
      "note": 50,
      "start": 3.1196,
      "duration": 0.0105,
      "velocity": 108,
      "chip": "ym2612"
    },
    {
      "channel": 0,
      "note": 50,
      "start": 3.134,
      "duration": 0.0269,
      "velocity": 111,
      "chip": "ym2612"
    },
    {
      "channel": 1,
      "note": 86,
      "start": 3.135,
      "duration": 0.0215,
      "velocity": 103,
      "chip": "ym2612"
    },
    {
      "channel": 2,
      "note": 57,
      "start": 3.1359,
      "duration": 0.0178,
      "velocity": 108,
      "chip": "ym2612"
    },
    {
      "channel": 3,
      "note": 86,
      "start": 3.1546,
      "duration": 0.0108,
      "velocity": 103,
      "chip": "ym2612"
    },
    {
      "channel": 0,
      "note": 50,
      "start": 3.1637,
      "duration": 0.0521,
      "velocity": 111,
      "chip": "ym2612"
    },
    {
      "channel": 1,
      "note": 84,
      "start": 3.1643,
      "duration": 0.0517,
      "velocity": 103,
      "chip": "ym2612"
    },
    {
      "channel": 2,
      "note": 50,
      "start": 3.1652,
      "duration": 0.0515,
      "velocity": 108,
      "chip": "ym2612"
    },
    {
      "channel": 3,
      "note": 86,
      "start": 3.1704,
      "duration": 0.0805,
      "velocity": 103,
      "chip": "ym2612"
    },
    {
      "channel": 0,
      "note": 48,
      "start": 3.233,
      "duration": 0.0346,
      "velocity": 111,
      "chip": "ym2612"
    },
    {
      "channel": 1,
      "note": 83,
      "start": 3.2337,
      "duration": 0.0219,
      "velocity": 103,
      "chip": "ym2612"
    },
    {
      "channel": 2,
      "note": 55,
      "start": 3.2345,
      "duration": 0.0183,
      "velocity": 108,
      "chip": "ym2612"
    },
    {
      "channel": 3,
      "note": 84,
      "start": 3.2536,
      "duration": 0.0329,
      "velocity": 103,
      "chip": "ym2612"
    },
    {
      "channel": 0,
      "note": 48,
      "start": 3.2848,
      "duration": 0.0137,
      "velocity": 111,
      "chip": "ym2612"
    },
    {
      "channel": 1,
      "note": 81,
      "start": 3.2855,
      "duration": 0.0329,
      "velocity": 103,
      "chip": "ym2612"
    },
    {
      "channel": 2,
      "note": 48,
      "start": 3.2863,
      "duration": 0.013,
      "velocity": 108,
      "chip": "ym2612"
    },
    {
      "channel": 3,
      "note": 83,
      "start": 3.2924,
      "duration": 0.0263,
      "velocity": 103,
      "chip": "ym2612"
    },
    {
      "channel": 0,
      "note": 49,
      "start": 3.3018,
      "duration": 0.0254,
      "velocity": 111,
      "chip": "ym2612"
    },
    {
      "channel": 2,
      "note": 56,
      "start": 3.303,
      "duration": 0.0176,
      "velocity": 108,
      "chip": "ym2612"
    },
    {
      "channel": 3,
      "note": 81,
      "start": 3.3214,
      "duration": 0.0871,
      "velocity": 103,
      "chip": "ym2612"
    },
    {
      "channel": 0,
      "note": 49,
      "start": 3.3303,
      "duration": 0.0527,
      "velocity": 111,
      "chip": "ym2612"
    },
    {
      "channel": 1,
      "note": 74,
      "start": 3.3309,
      "duration": 0.1213,
      "velocity": 103,
      "chip": "ym2612"
    },
    {
      "channel": 2,
      "note": 49,
      "start": 3.3317,
      "duration": 0.0519,
      "velocity": 108,
      "chip": "ym2612"
    },
    {
      "channel": 0,
      "note": 50,
      "start": 3.4001,
      "duration": 0.0348,
      "velocity": 111,
      "chip": "ym2612"
    },
    {
      "channel": 2,
      "note": 50,
      "start": 3.4009,
      "duration": 0.0162,
      "velocity": 108,
      "chip": "ym2612"
    },
    {
      "channel": 3,
      "note": 74,
      "start": 3.4178,
      "duration": 0.0793,
      "velocity": 103,
      "chip": "ym2612"
    },
    {
      "channel": 0,
      "note": 50,
      "start": 3.4521,
      "duration": 0.0115,
      "velocity": 111,
      "chip": "ym2612"
    },
    {
      "channel": 2,
      "note": 50,
      "start": 3.4529,
      "duration": 0.011,
      "velocity": 108,
      "chip": "ym2612"
    },
    {
      "channel": 0,
      "note": 50,
      "start": 3.466,
      "duration": 0.0249,
      "velocity": 111,
      "chip": "ym2612"
    },
    {
      "channel": 1,
      "note": 86,
      "start": 3.4667,
      "duration": 0.0223,
      "velocity": 103,
      "chip": "ym2612"
    },
    {
      "channel": 2,
      "note": 50,
      "start": 3.4673,
      "duration": 0.0174,
      "velocity": 108,
      "chip": "ym2612"
    },
    {
      "channel": 0,
      "note": 50,
      "start": 3.4957,
      "duration": 0.0518,
      "velocity": 111,
      "chip": "ym2612"
    },
    {
      "channel": 1,
      "note": 84,
      "start": 3.4963,
      "duration": 0.0515,
      "velocity": 103,
      "chip": "ym2612"
    },
    {
      "channel": 2,
      "note": 50,
      "start": 3.4969,
      "duration": 0.0517,
      "velocity": 108,
      "chip": "ym2612"
    },
    {
      "channel": 3,
      "note": 86,
      "start": 3.5005,
      "duration": 0.0817,
      "velocity": 103,
      "chip": "ym2612"
    },
    {
      "channel": 0,
      "note": 50,
      "start": 3.5648,
      "duration": 0.0351,
      "velocity": 111,
      "chip": "ym2612"
    },
    {
      "channel": 1,
      "note": 83,
      "start": 3.5655,
      "duration": 0.0719,
      "velocity": 103,
      "chip": "ym2612"
    },
    {
      "channel": 2,
      "note": 50,
      "start": 3.566,
      "duration": 0.0183,
      "velocity": 108,
      "chip": "ym2612"
    },
    {
      "channel": 3,
      "note": 84,
      "start": 3.5852,
      "duration": 0.0495,
      "velocity": 103,
      "chip": "ym2612"
    },
    {
      "channel": 0,
      "note": 50,
      "start": 3.6338,
      "duration": 0.0096,
      "velocity": 111,
      "chip": "ym2612"
    },
    {
      "channel": 2,
      "note": 50,
      "start": 3.6345,
      "duration": 0.0093,
      "velocity": 108,
      "chip": "ym2612"
    },
    {
      "channel": 3,
      "note": 83,
      "start": 3.6384,
      "duration": 0.0325,
      "velocity": 103,
      "chip": "ym2612"
    },
    {
      "channel": 0,
      "note": 50,
      "start": 3.6464,
      "duration": 0.0194,
      "velocity": 111,
      "chip": "ym2612"
    },
    {
      "channel": 2,
      "note": 50,
      "start": 3.6474,
      "duration": 0.0137,
      "velocity": 108,
      "chip": "ym2612"
    },
    {
      "channel": 0,
      "note": 50,
      "start": 3.6693,
      "duration": 0.0593,
      "velocity": 111,
      "chip": "ym2612"
    },
    {
      "channel": 1,
      "note": 81,
      "start": 3.6702,
      "duration": 0.0919,
      "velocity": 103,
      "chip": "ym2612"
    },
    {
      "channel": 2,
      "note": 50,
      "start": 3.6707,
      "duration": 0.0591,
      "velocity": 108,
      "chip": "ym2612"
    },
    {
      "channel": 0,
      "note": 50,
      "start": 3.7461,
      "duration": 0.0359,
      "velocity": 111,
      "chip": "ym2612"
    },
    {
      "channel": 2,
      "note": 50,
      "start": 3.7471,
      "duration": 0.0153,
      "velocity": 108,
      "chip": "ym2612"
    },
    {
      "channel": 3,
      "note": 81,
      "start": 3.7633,
      "duration": 0.083,
      "velocity": 103,
      "chip": "ym2612"
    },
    {
      "channel": 0,
      "note": 50,
      "start": 3.8159,
      "duration": 0.0106,
      "velocity": 111,
      "chip": "ym2612"
    },
    {
      "channel": 1,
      "note": 86,
      "start": 3.8164,
      "duration": 0.0103,
      "velocity": 103,
      "chip": "ym2612"
    },
    {
      "channel": 2,
      "note": 50,
      "start": 3.817,
      "duration": 0.01,
      "velocity": 108,
      "chip": "ym2612"
    },
    {
      "channel": 0,
      "note": 53,
      "start": 3.8287,
      "duration": 0.0269,
      "velocity": 111,
      "chip": "ym2612"
    },
    {
      "channel": 1,
      "note": 86,
      "start": 3.8294,
      "duration": 0.0238,
      "velocity": 103,
      "chip": "ym2612"
    },
    {
      "channel": 2,
      "note": 65,
      "start": 3.8303,
      "duration": 0.0256,
      "velocity": 108,
      "chip": "ym2612"
    },
    {
      "channel": 3,
      "note": 86,
      "start": 3.8513,
      "duration": 0.01,
      "velocity": 103,
      "chip": "ym2612"
    },
    {
      "channel": 0,
      "note": 50,
      "start": 3.86,
      "duration": 0.0504,
      "velocity": 111,
      "chip": "ym2612"
    },
    {
      "channel": 1,
      "note": 84,
      "start": 3.8606,
      "duration": 0.0499,
      "velocity": 103,
      "chip": "ym2612"
    },
    {
      "channel": 2,
      "note": 62,
      "start": 3.8611,
      "duration": 0.0502,
      "velocity": 108,
      "chip": "ym2612"
    },
    {
      "channel": 3,
      "note": 86,
      "start": 3.8642,
      "duration": 0.0805,
      "velocity": 103,
      "chip": "ym2612"
    },
    {
      "channel": 0,
      "note": 48,
      "start": 3.9275,
      "duration": 0.0348,
      "velocity": 111,
      "chip": "ym2612"
    },
    {
      "channel": 1,
      "note": 83,
      "start": 3.9282,
      "duration": 0.0231,
      "velocity": 103,
      "chip": "ym2612"
    },
    {
      "channel": 2,
      "note": 60,
      "start": 3.9287,
      "duration": 0.034,
      "velocity": 108,
      "chip": "ym2612"
    },
    {
      "channel": 3,
      "note": 84,
      "start": 3.9494,
      "duration": 0.0481,
      "velocity": 103,
      "chip": "ym2612"
    },
    {
      "channel": 0,
      "note": 45,
      "start": 3.9962,
      "duration": 0.0112,
      "velocity": 111,
      "chip": "ym2612"
    },
    {
      "channel": 1,
      "note": 81,
      "start": 3.9968,
      "duration": 0.0221,
      "velocity": 103,
      "chip": "ym2612"
    },
    {
      "channel": 2,
      "note": 57,
      "start": 3.9974,
      "duration": 0.011,
      "velocity": 108,
      "chip": "ym2612"
    },
    {
      "channel": 3,
      "note": 83,
      "start": 4.0015,
      "duration": 0.0238,
      "velocity": 103,
      "chip": "ym2612"
    },
    {
      "channel": 0,
      "note": 43,
      "start": 4.0129,
      "duration": 0.0234,
      "velocity": 111,
      "chip": "ym2612"
    },
    {
      "channel": 2,
      "note": 55,
      "start": 4.0136,
      "duration": 0.0229,
      "velocity": 108,
      "chip": "ym2612"
    },
    {
      "channel": 3,
      "note": 81,
      "start": 4.0299,
      "duration": 0.0826,
      "velocity": 103,
      "chip": "ym2612"
    },
    {
      "channel": 0,
      "note": 45,
      "start": 4.0394,
      "duration": 0.0376,
      "velocity": 111,
      "chip": "ym2612"
    },
    {
      "channel": 2,
      "note": 57,
      "start": 4.04,
      "duration": 0.0373,
      "velocity": 108,
      "chip": "ym2612"
    },
    {
      "channel": 0,
      "note": 48,
      "start": 4.111,
      "duration": 0.0361,
      "velocity": 111,
      "chip": "ym2612"
    },
    {
      "channel": 2,
      "note": 48,
      "start": 4.1124,
      "duration": 0.0139,
      "velocity": 108,
      "chip": "ym2612"
    },
    {
      "channel": 0,
      "note": 48,
      "start": 4.1643,
      "duration": 0.0101,
      "velocity": 111,
      "chip": "ym2612"
    },
    {
      "channel": 1,
      "note": 89,
      "start": 4.1649,
      "duration": 0.0304,
      "velocity": 103,
      "chip": "ym2612"
    },
    {
      "channel": 2,
      "note": 48,
      "start": 4.1654,
      "duration": 0.0099,
      "velocity": 108,
      "chip": "ym2612"
    },
    {
      "channel": 0,
      "note": 48,
      "start": 4.1793,
      "duration": 0.023,
      "velocity": 111,
      "chip": "ym2612"
    },
    {
      "channel": 2,
      "note": 48,
      "start": 4.1803,
      "duration": 0.0152,
      "velocity": 108,
      "chip": "ym2612"
    },
    {
      "channel": 3,
      "note": 89,
      "start": 4.1963,
      "duration": 0.0422,
      "velocity": 103,
      "chip": "ym2612"
    },
    {
      "channel": 0,
      "note": 48,
      "start": 4.2055,
      "duration": 0.0115,
      "velocity": 111,
      "chip": "ym2612"
    },
    {
      "channel": 1,
      "note": 84,
      "start": 4.2062,
      "duration": 0.0111,
      "velocity": 103,
      "chip": "ym2612"
    },
    {
      "channel": 2,
      "note": 48,
      "start": 4.2067,
      "duration": 0.0113,
      "velocity": 108,
      "chip": "ym2612"
    },
    {
      "channel": 0,
      "note": 48,
      "start": 4.2235,
      "duration": 0.0352,
      "velocity": 111,
      "chip": "ym2612"
    },
    {
      "channel": 1,
      "note": 81,
      "start": 4.2242,
      "duration": 0.021,
      "velocity": 103,
      "chip": "ym2612"
    },
    {
      "channel": 2,
      "note": 48,
      "start": 4.2247,
      "duration": 0.0179,
      "velocity": 108,
      "chip": "ym2612"
    },
    {
      "channel": 3,
      "note": 84,
      "start": 4.2437,
      "duration": 0.0339,
      "velocity": 103,
      "chip": "ym2612"
    },
    {
      "channel": 0,
      "note": 48,
      "start": 4.2759,
      "duration": 0.0117,
      "velocity": 111,
      "chip": "ym2612"
    },
    {
      "channel": 1,
      "note": 84,
      "start": 4.2769,
      "duration": 0.0112,
      "velocity": 103,
      "chip": "ym2612"
    },
    {
      "channel": 2,
      "note": 48,
      "start": 4.2774,
      "duration": 0.0109,
      "velocity": 108,
      "chip": "ym2612"
    },
    {
      "channel": 3,
      "note": 81,
      "start": 4.2837,
      "duration": 0.0229,
      "velocity": 103,
      "chip": "ym2612"
    },
    {
      "channel": 0,
      "note": 48,
      "start": 4.2935,
      "duration": 0.021,
      "velocity": 111,
      "chip": "ym2612"
    },
    {
      "channel": 2,
      "note": 48,
      "start": 4.2945,
      "duration": 0.0138,
      "velocity": 108,
      "chip": "ym2612"
    },
    {
      "channel": 3,
      "note": 84,
      "start": 4.3091,
      "duration": 0.0088,
      "velocity": 103,
      "chip": "ym2612"
    },
    {
      "channel": 0,
      "note": 48,
      "start": 4.3171,
      "duration": 0.0402,
      "velocity": 111,
      "chip": "ym2612"
    },
    {
      "channel": 2,
      "note": 48,
      "start": 4.3177,
      "duration": 0.04,
      "velocity": 108,
      "chip": "ym2612"
    },
    {
      "channel": 0,
      "note": 48,
      "start": 4.3914,
      "duration": 0.0338,
      "velocity": 111,
      "chip": "ym2612"
    },
    {
      "channel": 2,
      "note": 48,
      "start": 4.3923,
      "duration": 0.0129,
      "velocity": 108,
      "chip": "ym2612"
    },
    {
      "channel": 0,
      "note": 48,
      "start": 4.4423,
      "duration": 0.0112,
      "velocity": 111,
      "chip": "ym2612"
    },
    {
      "channel": 1,
      "note": 84,
      "start": 4.4429,
      "duration": 0.0289,
      "velocity": 103,
      "chip": "ym2612"
    },
    {
      "channel": 2,
      "note": 48,
      "start": 4.4434,
      "duration": 0.0105,
      "velocity": 108,
      "chip": "ym2612"
    },
    {
      "channel": 0,
      "note": 48,
      "start": 4.4563,
      "duration": 0.0226,
      "velocity": 111,
      "chip": "ym2612"
    },
    {
      "channel": 2,
      "note": 48,
      "start": 4.4571,
      "duration": 0.0149,
      "velocity": 108,
      "chip": "ym2612"
    },
    {
      "channel": 3,
      "note": 84,
      "start": 4.4729,
      "duration": 0.099,
      "velocity": 103,
      "chip": "ym2612"
    },
    {
      "channel": 0,
      "note": 48,
      "start": 4.4811,
      "duration": 0.0571,
      "velocity": 111,
      "chip": "ym2612"
    },
    {
      "channel": 1,
      "note": 84,
      "start": 4.4817,
      "duration": 0.0566,
      "velocity": 103,
      "chip": "ym2612"
    },
    {
      "channel": 2,
      "note": 48,
      "start": 4.4822,
      "duration": 0.0566,
      "velocity": 108,
      "chip": "ym2612"
    },
    {
      "channel": 0,
      "note": 48,
      "start": 4.5554,
      "duration": 0.0357,
      "velocity": 111,
      "chip": "ym2612"
    },
    {
      "channel": 1,
      "note": 81,
      "start": 4.556,
      "duration": 0.0229,
      "velocity": 103,
      "chip": "ym2612"
    },
    {
      "channel": 2,
      "note": 48,
      "start": 4.5566,
      "duration": 0.0174,
      "velocity": 108,
      "chip": "ym2612"
    },
    {
      "channel": 3,
      "note": 84,
      "start": 4.5748,
      "duration": 0.0348,
      "velocity": 103,
      "chip": "ym2612"
    },
    {
      "channel": 0,
      "note": 48,
      "start": 4.6083,
      "duration": 0.0126,
      "velocity": 111,
      "chip": "ym2612"
    },
    {
      "channel": 1,
      "note": 84,
      "start": 4.6089,
      "duration": 0.0322,
      "velocity": 103,
      "chip": "ym2612"
    },
    {
      "channel": 2,
      "note": 48,
      "start": 4.6094,
      "duration": 0.0119,
      "velocity": 108,
      "chip": "ym2612"
    },
    {
      "channel": 3,
      "note": 81,
      "start": 4.6152,
      "duration": 0.0241,
      "velocity": 103,
      "chip": "ym2612"
    },
    {
      "channel": 0,
      "note": 48,
      "start": 4.6242,
      "duration": 0.0238,
      "velocity": 111,
      "chip": "ym2612"
    },
    {
      "channel": 2,
      "note": 48,
      "start": 4.625,
      "duration": 0.0165,
      "velocity": 108,
      "chip": "ym2612"
    },
    {
      "channel": 3,
      "note": 84,
      "start": 4.6423,
      "duration": 0.0979,
      "velocity": 103,
      "chip": "ym2612"
    },
    {
      "channel": 0,
      "note": 48,
      "start": 4.6502,
      "duration": 0.0571,
      "velocity": 111,
      "chip": "ym2612"
    },
    {
      "channel": 1,
      "note": 84,
      "start": 4.6507,
      "duration": 0.0567,
      "velocity": 103,
      "chip": "ym2612"
    },
    {
      "channel": 2,
      "note": 48,
      "start": 4.6513,
      "duration": 0.0564,
      "velocity": 108,
      "chip": "ym2612"
    },
    {
      "channel": 0,
      "note": 55,
      "start": 4.7246,
      "duration": 0.0334,
      "velocity": 111,
      "chip": "ym2612"
    },
    {
      "channel": 1,
      "note": 84,
      "start": 4.7252,
      "duration": 0.2605,
      "velocity": 103,
      "chip": "ym2612"
    },
    {
      "channel": 2,
      "note": 55,
      "start": 4.726,
      "duration": 0.0158,
      "velocity": 108,
      "chip": "ym2612"
    },
    {
      "channel": 3,
      "note": 84,
      "start": 4.7426,
      "duration": 0.0502,
      "velocity": 103,
      "chip": "ym2612"
    },
    {
      "channel": 0,
      "note": 55,
      "start": 4.7919,
      "duration": 0.0106,
      "velocity": 111,
      "chip": "ym2612"
    },
    {
      "channel": 2,
      "note": 55,
      "start": 4.7926,
      "duration": 0.0103,
      "velocity": 108,
      "chip": "ym2612"
    },
    {
      "channel": 3,
      "note": 84,
      "start": 4.7959,
      "duration": 0.3196,
      "velocity": 103,
      "chip": "ym2612"
    },
    {
      "channel": 0,
      "note": 55,
      "start": 4.8051,
      "duration": 0.021,
      "velocity": 111,
      "chip": "ym2612"
    },
    {
      "channel": 2,
      "note": 55,
      "start": 4.806,
      "duration": 0.0145,
      "velocity": 108,
      "chip": "ym2612"
    },
    {
      "channel": 0,
      "note": 55,
      "start": 4.831,
      "duration": 0.0563,
      "velocity": 111,
      "chip": "ym2612"
    },
    {
      "channel": 2,
      "note": 55,
      "start": 4.8318,
      "duration": 0.0559,
      "velocity": 108,
      "chip": "ym2612"
    },
    {
      "channel": 0,
      "note": 55,
      "start": 4.9045,
      "duration": 0.0355,
      "velocity": 111,
      "chip": "ym2612"
    },
    {
      "channel": 2,
      "note": 55,
      "start": 4.9053,
      "duration": 0.0168,
      "velocity": 108,
      "chip": "ym2612"
    },
    {
      "channel": 0,
      "note": 55,
      "start": 4.9739,
      "duration": 0.0089,
      "velocity": 111,
      "chip": "ym2612"
    },
    {
      "channel": 2,
      "note": 55,
      "start": 4.9746,
      "duration": 0.0086,
      "velocity": 108,
      "chip": "ym2612"
    },
    {
      "channel": 0,
      "note": 55,
      "start": 4.9856,
      "duration": 0.0218,
      "velocity": 111,
      "chip": "ym2612"
    },
    {
      "channel": 2,
      "note": 55,
      "start": 4.9863,
      "duration": 0.0151,
      "velocity": 108,
      "chip": "ym2612"
    },
    {
      "channel": 0,
      "note": 55,
      "start": 5.0118,
      "duration": 0.0549,
      "velocity": 111,
      "chip": "ym2612"
    },
    {
      "channel": 2,
      "note": 55,
      "start": 5.0125,
      "duration": 0.0546,
      "velocity": 108,
      "chip": "ym2612"
    },
    {
      "channel": 0,
      "note": 55,
      "start": 5.0841,
      "duration": 0.0265,
      "velocity": 111,
      "chip": "ym2612"
    },
    {
      "channel": 1,
      "note": 86,
      "start": 5.0847,
      "duration": 0.0329,
      "velocity": 103,
      "chip": "ym2612"
    },
    {
      "channel": 2,
      "note": 55,
      "start": 5.0857,
      "duration": 0.0139,
      "velocity": 108,
      "chip": "ym2612"
    },
    {
      "channel": 2,
      "note": 55,
      "start": 5.1022,
      "duration": 0.0088,
      "velocity": 108,
      "chip": "ym2612"
    },
    {
      "channel": 0,
      "note": 55,
      "start": 5.1146,
      "duration": 0.0098,
      "velocity": 111,
      "chip": "ym2612"
    },
    {
      "channel": 2,
      "note": 55,
      "start": 5.1154,
      "duration": 0.0094,
      "velocity": 108,
      "chip": "ym2612"
    },
    {
      "channel": 3,
      "note": 86,
      "start": 5.1188,
      "duration": 0.039,
      "velocity": 103,
      "chip": "ym2612"
    },
    {
      "channel": 0,
      "note": 67,
      "start": 5.1283,
      "duration": 0.0396,
      "velocity": 111,
      "chip": "ym2612"
    },
    {
      "channel": 1,
      "note": 91,
      "start": 5.1289,
      "duration": 0.0313,
      "velocity": 103,
      "chip": "ym2612"
    },
    {
      "channel": 2,
      "note": 62,
      "start": 5.1297,
      "duration": 0.0388,
      "velocity": 108,
      "chip": "ym2612"
    },
    {
      "channel": 3,
      "note": 91,
      "start": 5.1613,
      "duration": 0.0439,
      "velocity": 103,
      "chip": "ym2612"
    },
    {
      "channel": 0,
      "note": 55,
      "start": 5.1744,
      "duration": 0.0273,
      "velocity": 111,
      "chip": "ym2612"
    },
    {
      "channel": 1,
      "note": 89,
      "start": 5.175,
      "duration": 0.0319,
      "velocity": 103,
      "chip": "ym2612"
    },
    {
      "channel": 2,
      "note": 55,
      "start": 5.1761,
      "duration": 0.0122,
      "velocity": 108,
      "chip": "ym2612"
    },
    {
      "channel": 2,
      "note": 55,
      "start": 5.1911,
      "duration": 0.011,
      "velocity": 108,
      "chip": "ym2612"
    },
    {
      "channel": 0,
      "note": 55,
      "start": 5.2043,
      "duration": 0.0098,
      "velocity": 111,
      "chip": "ym2612"
    },
    {
      "channel": 2,
      "note": 55,
      "start": 5.205,
      "duration": 0.0095,
      "velocity": 108,
      "chip": "ym2612"
    },
    {
      "channel": 3,
      "note": 89,
      "start": 5.208,
      "duration": 0.0441,
      "velocity": 103,
      "chip": "ym2612"
    },
    {
      "channel": 0,
      "note": 67,
      "start": 5.2217,
      "duration": 0.0426,
      "velocity": 111,
      "chip": "ym2612"
    },
    {
      "channel": 1,
      "note": 88,
      "start": 5.2223,
      "duration": 0.0331,
      "velocity": 103,
      "chip": "ym2612"
    },
    {
      "channel": 2,
      "note": 62,
      "start": 5.2231,
      "duration": 0.0418,
      "velocity": 108,
      "chip": "ym2612"
    },
    {
      "channel": 3,
      "note": 88,
      "start": 5.2565,
      "duration": 0.0677,
      "velocity": 103,
      "chip": "ym2612"
    },
    {
      "channel": 0,
      "note": 50,
      "start": 5.2713,
      "duration": 0.0349,
      "velocity": 111,
      "chip": "ym2612"
    },
    {
      "channel": 1,
      "note": 84,
      "start": 5.272,
      "duration": 0.055,
      "velocity": 103,
      "chip": "ym2612"
    },
    {
      "channel": 2,
      "note": 50,
      "start": 5.2733,
      "duration": 0.0191,
      "velocity": 108,
      "chip": "ym2612"
    },
    {
      "channel": 0,
      "note": 50,
      "start": 5.3234,
      "duration": 0.0111,
      "velocity": 111,
      "chip": "ym2612"
    },
    {
      "channel": 2,
      "note": 50,
      "start": 5.3241,
      "duration": 0.0108,
      "velocity": 108,
      "chip": "ym2612"
    },
    {
      "channel": 3,
      "note": 84,
      "start": 5.3284,
      "duration": 0.0416,
      "velocity": 103,
      "chip": "ym2612"
    },
    {
      "channel": 0,
      "note": 50,
      "start": 5.3398,
      "duration": 0.0264,
      "velocity": 111,
      "chip": "ym2612"
    },
    {
      "channel": 1,
      "note": 86,
      "start": 5.3405,
      "duration": 0.0218,
      "velocity": 103,
      "chip": "ym2612"
    },
    {
      "channel": 2,
      "note": 50,
      "start": 5.3412,
      "duration": 0.0189,
      "velocity": 108,
      "chip": "ym2612"
    },
    {
      "channel": 0,
      "note": 50,
      "start": 5.3686,
      "duration": 0.0371,
      "velocity": 111,
      "chip": "ym2612"
    },
    {
      "channel": 1,
      "note": 84,
      "start": 5.3693,
      "duration": 0.0366,
      "velocity": 103,
      "chip": "ym2612"
    },
    {
      "channel": 2,
      "note": 50,
      "start": 5.3698,
      "duration": 0.0367,
      "velocity": 108,
      "chip": "ym2612"
    },
    {
      "channel": 3,
      "note": 86,
      "start": 5.3759,
      "duration": 0.0816,
      "velocity": 103,
      "chip": "ym2612"
    },
    {
      "channel": 0,
      "note": 50,
      "start": 5.4397,
      "duration": 0.0337,
      "velocity": 111,
      "chip": "ym2612"
    },
    {
      "channel": 1,
      "note": 83,
      "start": 5.4404,
      "duration": 0.0563,
      "velocity": 103,
      "chip": "ym2612"
    },
    {
      "channel": 2,
      "note": 50,
      "start": 5.441,
      "duration": 0.0184,
      "velocity": 108,
      "chip": "ym2612"
    },
    {
      "channel": 3,
      "note": 84,
      "start": 5.4602,
      "duration": 0.0313,
      "velocity": 103,
      "chip": "ym2612"
    },
    {
      "channel": 0,
      "note": 50,
      "start": 5.4906,
      "duration": 0.0109,
      "velocity": 111,
      "chip": "ym2612"
    },
    {
      "channel": 2,
      "note": 50,
      "start": 5.4913,
      "duration": 0.0105,
      "velocity": 108,
      "chip": "ym2612"
    },
    {
      "channel": 3,
      "note": 83,
      "start": 5.4976,
      "duration": 0.0377,
      "velocity": 103,
      "chip": "ym2612"
    },
    {
      "channel": 0,
      "note": 50,
      "start": 5.5067,
      "duration": 0.0249,
      "velocity": 111,
      "chip": "ym2612"
    },
    {
      "channel": 1,
      "note": 81,
      "start": 5.5073,
      "duration": 0.009,
      "velocity": 103,
      "chip": "ym2612"
    },
    {
      "channel": 2,
      "note": 50,
      "start": 5.508,
      "duration": 0.0175,
      "velocity": 108,
      "chip": "ym2612"
    },
    {
      "channel": 0,
      "note": 50,
      "start": 5.5339,
      "duration": 0.0536,
      "velocity": 111,
      "chip": "ym2612"
    },
    {
      "channel": 1,
      "note": 79,
      "start": 5.5346,
      "duration": 0.0859,
      "velocity": 103,
      "chip": "ym2612"
    },
    {
      "channel": 2,
      "note": 50,
      "start": 5.5352,
      "duration": 0.0532,
      "velocity": 108,
      "chip": "ym2612"
    },
    {
      "channel": 3,
      "note": 81,
      "start": 5.5412,
      "duration": 0.0474,
      "velocity": 103,
      "chip": "ym2612"
    },
    {
      "channel": 0,
      "note": 50,
      "start": 5.6048,
      "duration": 0.0343,
      "velocity": 111,
      "chip": "ym2612"
    },
    {
      "channel": 2,
      "note": 50,
      "start": 5.6058,
      "duration": 0.0149,
      "velocity": 108,
      "chip": "ym2612"
    },
    {
      "channel": 3,
      "note": 79,
      "start": 5.6216,
      "duration": 0.0666,
      "velocity": 103,
      "chip": "ym2612"
    },
    {
      "channel": 0,
      "note": 50,
      "start": 5.6562,
      "duration": 0.0123,
      "velocity": 111,
      "chip": "ym2612"
    },
    {
      "channel": 1,
      "note": 86,
      "start": 5.6568,
      "duration": 0.0119,
      "velocity": 103,
      "chip": "ym2612"
    },
    {
      "channel": 2,
      "note": 50,
      "start": 5.6574,
      "duration": 0.0116,
      "velocity": 108,
      "chip": "ym2612"
    },
    {
      "channel": 0,
      "note": 50,
      "start": 5.6712,
      "duration": 0.0262,
      "velocity": 111,
      "chip": "ym2612"
    },
    {
      "channel": 1,
      "note": 86,
      "start": 5.6719,
      "duration": 0.0235,
      "velocity": 103,
      "chip": "ym2612"
    },
    {
      "channel": 2,
      "note": 57,
      "start": 5.6727,
      "duration": 0.0175,
      "velocity": 108,
      "chip": "ym2612"
    },
    {
      "channel": 3,
      "note": 86,
      "start": 5.691,
      "duration": 0.0105,
      "velocity": 103,
      "chip": "ym2612"
    },
    {
      "channel": 0,
      "note": 50,
      "start": 5.6998,
      "duration": 0.053,
      "velocity": 111,
      "chip": "ym2612"
    },
    {
      "channel": 1,
      "note": 84,
      "start": 5.7005,
      "duration": 0.0526,
      "velocity": 103,
      "chip": "ym2612"
    },
    {
      "channel": 2,
      "note": 50,
      "start": 5.7013,
      "duration": 0.0524,
      "velocity": 108,
      "chip": "ym2612"
    },
    {
      "channel": 3,
      "note": 86,
      "start": 5.7074,
      "duration": 0.0805,
      "velocity": 103,
      "chip": "ym2612"
    },
    {
      "channel": 0,
      "note": 48,
      "start": 5.7701,
      "duration": 0.0342,
      "velocity": 111,
      "chip": "ym2612"
    },
    {
      "channel": 1,
      "note": 83,
      "start": 5.7706,
      "duration": 0.0242,
      "velocity": 103,
      "chip": "ym2612"
    },
    {
      "channel": 2,
      "note": 55,
      "start": 5.7715,
      "duration": 0.0187,
      "velocity": 108,
      "chip": "ym2612"
    },
    {
      "channel": 3,
      "note": 84,
      "start": 5.791,
      "duration": 0.0325,
      "velocity": 103,
      "chip": "ym2612"
    },
    {
      "channel": 0,
      "note": 48,
      "start": 5.8215,
      "duration": 0.0149,
      "velocity": 111,
      "chip": "ym2612"
    },
    {
      "channel": 1,
      "note": 81,
      "start": 5.8221,
      "duration": 0.0352,
      "velocity": 103,
      "chip": "ym2612"
    },
    {
      "channel": 2,
      "note": 48,
      "start": 5.8233,
      "duration": 0.0141,
      "velocity": 108,
      "chip": "ym2612"
    },
    {
      "channel": 3,
      "note": 83,
      "start": 5.8301,
      "duration": 0.0277,
      "velocity": 103,
      "chip": "ym2612"
    },
    {
      "channel": 0,
      "note": 49,
      "start": 5.8397,
      "duration": 0.0282,
      "velocity": 111,
      "chip": "ym2612"
    },
    {
      "channel": 2,
      "note": 56,
      "start": 5.8413,
      "duration": 0.0186,
      "velocity": 108,
      "chip": "ym2612"
    },
    {
      "channel": 3,
      "note": 81,
      "start": 5.8608,
      "duration": 0.0885,
      "velocity": 103,
      "chip": "ym2612"
    },
    {
      "channel": 0,
      "note": 49,
      "start": 5.873,
      "duration": 0.05,
      "velocity": 111,
      "chip": "ym2612"
    },
    {
      "channel": 1,
      "note": 74,
      "start": 5.8736,
      "duration": 0.1361,
      "velocity": 103,
      "chip": "ym2612"
    },
    {
      "channel": 2,
      "note": 49,
      "start": 5.8745,
      "duration": 0.0494,
      "velocity": 108,
      "chip": "ym2612"
    },
    {
      "channel": 0,
      "note": 50,
      "start": 5.9403,
      "duration": 0.0354,
      "velocity": 111,
      "chip": "ym2612"
    },
    {
      "channel": 2,
      "note": 50,
      "start": 5.9412,
      "duration": 0.0167,
      "velocity": 108,
      "chip": "ym2612"
    },
    {
      "channel": 3,
      "note": 74,
      "start": 5.9587,
      "duration": 0.094,
      "velocity": 103,
      "chip": "ym2612"
    },
    {
      "channel": 0,
      "note": 50,
      "start": 6.0096,
      "duration": 0.009,
      "velocity": 111,
      "chip": "ym2612"
    },
    {
      "channel": 2,
      "note": 50,
      "start": 6.0103,
      "duration": 0.0087,
      "velocity": 108,
      "chip": "ym2612"
    },
    {
      "channel": 0,
      "note": 50,
      "start": 6.0209,
      "duration": 0.0256,
      "velocity": 111,
      "chip": "ym2612"
    },
    {
      "channel": 1,
      "note": 86,
      "start": 6.0215,
      "duration": 0.0226,
      "velocity": 103,
      "chip": "ym2612"
    },
    {
      "channel": 2,
      "note": 50,
      "start": 6.0221,
      "duration": 0.0182,
      "velocity": 108,
      "chip": "ym2612"
    },
    {
      "channel": 0,
      "note": 50,
      "start": 6.0513,
      "duration": 0.0517,
      "velocity": 111,
      "chip": "ym2612"
    },
    {
      "channel": 1,
      "note": 84,
      "start": 6.052,
      "duration": 0.0512,
      "velocity": 103,
      "chip": "ym2612"
    },
    {
      "channel": 2,
      "note": 50,
      "start": 6.0525,
      "duration": 0.0515,
      "velocity": 108,
      "chip": "ym2612"
    },
    {
      "channel": 3,
      "note": 86,
      "start": 6.0559,
      "duration": 0.0812,
      "velocity": 103,
      "chip": "ym2612"
    },
    {
      "channel": 0,
      "note": 50,
      "start": 6.1203,
      "duration": 0.0347,
      "velocity": 111,
      "chip": "ym2612"
    },
    {
      "channel": 1,
      "note": 83,
      "start": 6.1208,
      "duration": 0.0715,
      "velocity": 103,
      "chip": "ym2612"
    },
    {
      "channel": 2,
      "note": 50,
      "start": 6.1215,
      "duration": 0.0178,
      "velocity": 108,
      "chip": "ym2612"
    },
    {
      "channel": 3,
      "note": 84,
      "start": 6.1401,
      "duration": 0.0496,
      "velocity": 103,
      "chip": "ym2612"
    },
    {
      "channel": 0,
      "note": 50,
      "start": 6.1888,
      "duration": 0.0102,
      "velocity": 111,
      "chip": "ym2612"
    },
    {
      "channel": 2,
      "note": 50,
      "start": 6.1895,
      "duration": 0.0099,
      "velocity": 108,
      "chip": "ym2612"
    },
    {
      "channel": 3,
      "note": 83,
      "start": 6.1934,
      "duration": 0.0322,
      "velocity": 103,
      "chip": "ym2612"
    },
    {
      "channel": 0,
      "note": 50,
      "start": 6.202,
      "duration": 0.0184,
      "velocity": 111,
      "chip": "ym2612"
    },
    {
      "channel": 2,
      "note": 50,
      "start": 6.2029,
      "duration": 0.0142,
      "velocity": 108,
      "chip": "ym2612"
    },
    {
      "channel": 0,
      "note": 50,
      "start": 6.2242,
      "duration": 0.0588,
      "velocity": 111,
      "chip": "ym2612"
    },
    {
      "channel": 1,
      "note": 81,
      "start": 6.2248,
      "duration": 0.0928,
      "velocity": 103,
      "chip": "ym2612"
    },
    {
      "channel": 2,
      "note": 50,
      "start": 6.2253,
      "duration": 0.0585,
      "velocity": 108,
      "chip": "ym2612"
    },
    {
      "channel": 0,
      "note": 50,
      "start": 6.3002,
      "duration": 0.0349,
      "velocity": 111,
      "chip": "ym2612"
    },
    {
      "channel": 2,
      "note": 50,
      "start": 6.3012,
      "duration": 0.0166,
      "velocity": 108,
      "chip": "ym2612"
    },
    {
      "channel": 3,
      "note": 81,
      "start": 6.3186,
      "duration": 0.082,
      "velocity": 103,
      "chip": "ym2612"
    },
    {
      "channel": 0,
      "note": 50,
      "start": 6.369,
      "duration": 0.0108,
      "velocity": 111,
      "chip": "ym2612"
    },
    {
      "channel": 1,
      "note": 86,
      "start": 6.3697,
      "duration": 0.0104,
      "velocity": 103,
      "chip": "ym2612"
    },
    {
      "channel": 2,
      "note": 50,
      "start": 6.3702,
      "duration": 0.0102,
      "velocity": 108,
      "chip": "ym2612"
    },
    {
      "channel": 0,
      "note": 53,
      "start": 6.3842,
      "duration": 0.0276,
      "velocity": 111,
      "chip": "ym2612"
    },
    {
      "channel": 1,
      "note": 86,
      "start": 6.3849,
      "duration": 0.0226,
      "velocity": 103,
      "chip": "ym2612"
    },
    {
      "channel": 2,
      "note": 65,
      "start": 6.3858,
      "duration": 0.0264,
      "velocity": 108,
      "chip": "ym2612"
    },
    {
      "channel": 3,
      "note": 86,
      "start": 6.4056,
      "duration": 0.0107,
      "velocity": 103,
      "chip": "ym2612"
    },
    {
      "channel": 0,
      "note": 50,
      "start": 6.4146,
      "duration": 0.036,
      "velocity": 111,
      "chip": "ym2612"
    },
    {
      "channel": 1,
      "note": 84,
      "start": 6.4151,
      "duration": 0.0357,
      "velocity": 103,
      "chip": "ym2612"
    },
    {
      "channel": 2,
      "note": 62,
      "start": 6.416,
      "duration": 0.0358,
      "velocity": 108,
      "chip": "ym2612"
    },
    {
      "channel": 3,
      "note": 86,
      "start": 6.4195,
      "duration": 0.081,
      "velocity": 103,
      "chip": "ym2612"
    },
    {
      "channel": 0,
      "note": 48,
      "start": 6.4846,
      "duration": 0.0364,
      "velocity": 111,
      "chip": "ym2612"
    },
    {
      "channel": 1,
      "note": 83,
      "start": 6.4855,
      "duration": 0.0224,
      "velocity": 103,
      "chip": "ym2612"
    },
    {
      "channel": 2,
      "note": 60,
      "start": 6.486,
      "duration": 0.0354,
      "velocity": 108,
      "chip": "ym2612"
    },
    {
      "channel": 3,
      "note": 84,
      "start": 6.506,
      "duration": 0.0334,
      "velocity": 103,
      "chip": "ym2612"
    },
    {
      "channel": 0,
      "note": 45,
      "start": 6.5381,
      "duration": 0.0118,
      "velocity": 111,
      "chip": "ym2612"
    },
    {
      "channel": 1,
      "note": 81,
      "start": 6.5387,
      "duration": 0.0239,
      "velocity": 103,
      "chip": "ym2612"
    },
    {
      "channel": 2,
      "note": 57,
      "start": 6.5393,
      "duration": 0.0114,
      "velocity": 108,
      "chip": "ym2612"
    },
    {
      "channel": 3,
      "note": 83,
      "start": 6.5434,
      "duration": 0.0242,
      "velocity": 103,
      "chip": "ym2612"
    },
    {
      "channel": 0,
      "note": 43,
      "start": 6.5549,
      "duration": 0.023,
      "velocity": 111,
      "chip": "ym2612"
    },
    {
      "channel": 2,
      "note": 55,
      "start": 6.5556,
      "duration": 0.0225,
      "velocity": 108,
      "chip": "ym2612"
    },
    {
      "channel": 3,
      "note": 81,
      "start": 6.5716,
      "duration": 0.0821,
      "velocity": 103,
      "chip": "ym2612"
    },
    {
      "channel": 0,
      "note": 45,
      "start": 6.5805,
      "duration": 0.0376,
      "velocity": 111,
      "chip": "ym2612"
    },
    {
      "channel": 2,
      "note": 57,
      "start": 6.5812,
      "duration": 0.0372,
      "velocity": 108,
      "chip": "ym2612"
    },
    {
      "channel": 0,
      "note": 48,
      "start": 6.6521,
      "duration": 0.0358,
      "velocity": 111,
      "chip": "ym2612"
    },
    {
      "channel": 2,
      "note": 48,
      "start": 6.6535,
      "duration": 0.0138,
      "velocity": 108,
      "chip": "ym2612"
    },
    {
      "channel": 0,
      "note": 48,
      "start": 6.705,
      "duration": 0.0102,
      "velocity": 111,
      "chip": "ym2612"
    },
    {
      "channel": 1,
      "note": 89,
      "start": 6.7056,
      "duration": 0.0309,
      "velocity": 103,
      "chip": "ym2612"
    },
    {
      "channel": 2,
      "note": 48,
      "start": 6.7062,
      "duration": 0.0096,
      "velocity": 108,
      "chip": "ym2612"
    },
    {
      "channel": 0,
      "note": 48,
      "start": 6.7195,
      "duration": 0.0218,
      "velocity": 111,
      "chip": "ym2612"
    },
    {
      "channel": 2,
      "note": 48,
      "start": 6.7204,
      "duration": 0.014,
      "velocity": 108,
      "chip": "ym2612"
    },
    {
      "channel": 3,
      "note": 89,
      "start": 6.7352,
      "duration": 0.0384,
      "velocity": 103,
      "chip": "ym2612"
    },
    {
      "channel": 0,
      "note": 48,
      "start": 6.7448,
      "duration": 0.0105,
      "velocity": 111,
      "chip": "ym2612"
    },
    {
      "channel": 1,
      "note": 91,
      "start": 6.7455,
      "duration": 0.01,
      "velocity": 103,
      "chip": "ym2612"
    },
    {
      "channel": 2,
      "note": 48,
      "start": 6.746,
      "duration": 0.0101,
      "velocity": 108,
      "chip": "ym2612"
    },
    {
      "channel": 0,
      "note": 48,
      "start": 6.7603,
      "duration": 0.0356,
      "velocity": 111,
      "chip": "ym2612"
    },
    {
      "channel": 1,
      "note": 89,
      "start": 6.7609,
      "duration": 0.0351,
      "velocity": 103,
      "chip": "ym2612"
    },
    {
      "channel": 2,
      "note": 48,
      "start": 6.7615,
      "duration": 0.0184,
      "velocity": 108,
      "chip": "ym2612"
    },
    {
      "channel": 3,
      "note": 91,
      "start": 6.7808,
      "duration": 0.0335,
      "velocity": 103,
      "chip": "ym2612"
    },
    {
      "channel": 0,
      "note": 48,
      "start": 6.813,
      "duration": 0.015,
      "velocity": 111,
      "chip": "ym2612"
    },
    {
      "channel": 1,
      "note": 91,
      "start": 6.8136,
      "duration": 0.0146,
      "velocity": 103,
      "chip": "ym2612"
    },
    {
      "channel": 2,
      "note": 48,
      "start": 6.8142,
      "duration": 0.0143,
      "velocity": 108,
      "chip": "ym2612"
    },
    {
      "channel": 3,
      "note": 89,
      "start": 6.821,
      "duration": 0.0238,
      "velocity": 103,
      "chip": "ym2612"
    },
    {
      "channel": 0,
      "note": 48,
      "start": 6.831,
      "duration": 0.0214,
      "velocity": 111,
      "chip": "ym2612"
    },
    {
      "channel": 2,
      "note": 48,
      "start": 6.8319,
      "duration": 0.015,
      "velocity": 108,
      "chip": "ym2612"
    },
    {
      "channel": 3,
      "note": 91,
      "start": 6.8477,
      "duration": 0.0079,
      "velocity": 103,
      "chip": "ym2612"
    },
    {
      "channel": 0,
      "note": 48,
      "start": 6.8548,
      "duration": 0.0562,
      "velocity": 111,
      "chip": "ym2612"
    },
    {
      "channel": 2,
      "note": 48,
      "start": 6.8554,
      "duration": 0.0562,
      "velocity": 108,
      "chip": "ym2612"
    },
    {
      "channel": 0,
      "note": 48,
      "start": 6.9283,
      "duration": 0.0344,
      "velocity": 111,
      "chip": "ym2612"
    },
    {
      "channel": 2,
      "note": 48,
      "start": 6.9289,
      "duration": 0.0129,
      "velocity": 108,
      "chip": "ym2612"
    },
    {
      "channel": 1,
      "note": 91,
      "start": 6.9633,
      "duration": 0.0473,
      "velocity": 103,
      "chip": "ym2612"
    },
    {
      "channel": 0,
      "note": 48,
      "start": 6.9798,
      "duration": 0.0117,
      "velocity": 111,
      "chip": "ym2612"
    },
    {
      "channel": 2,
      "note": 48,
      "start": 6.981,
      "duration": 0.0112,
      "velocity": 108,
      "chip": "ym2612"
    },
    {
      "channel": 0,
      "note": 48,
      "start": 6.9944,
      "duration": 0.0225,
      "velocity": 111,
      "chip": "ym2612"
    },
    {
      "channel": 2,
      "note": 48,
      "start": 6.9953,
      "duration": 0.0156,
      "velocity": 108,
      "chip": "ym2612"
    },
    {
      "channel": 3,
      "note": 91,
      "start": 7.0087,
      "duration": 0.0939,
      "velocity": 103,
      "chip": "ym2612"
    },
    {
      "channel": 1,
      "note": 91,
      "start": 7.0177,
      "duration": 0.0249,
      "velocity": 103,
      "chip": "ym2612"
    },
    {
      "channel": 0,
      "note": 48,
      "start": 7.0196,
      "duration": 0.0564,
      "velocity": 111,
      "chip": "ym2612"
    },
    {
      "channel": 2,
      "note": 48,
      "start": 7.0207,
      "duration": 0.0561,
      "velocity": 108,
      "chip": "ym2612"
    },
    {
      "channel": 1,
      "note": 89,
      "start": 7.0766,
      "duration": 0.0388,
      "velocity": 103,
      "chip": "ym2612"
    },
    {
      "channel": 0,
      "note": 48,
      "start": 7.0931,
      "duration": 0.034,
      "velocity": 111,
      "chip": "ym2612"
    },
    {
      "channel": 2,
      "note": 48,
      "start": 7.0943,
      "duration": 0.0172,
      "velocity": 108,
      "chip": "ym2612"
    },
    {
      "channel": 3,
      "note": 91,
      "start": 7.1099,
      "duration": 0.0183,
      "velocity": 103,
      "chip": "ym2612"
    },
    {
      "channel": 1,
      "note": 93,
      "start": 7.1279,
      "duration": 0.0405,
      "velocity": 103,
      "chip": "ym2612"
    },
    {
      "channel": 0,
      "note": 48,
      "start": 7.1611,
      "duration": 0.0127,
      "velocity": 111,
      "chip": "ym2612"
    },
    {
      "channel": 2,
      "note": 48,
      "start": 7.1622,
      "duration": 0.0124,
      "velocity": 108,
      "chip": "ym2612"
    },
    {
      "channel": 3,
      "note": 89,
      "start": 7.163,
      "duration": 0.0267,
      "velocity": 103,
      "chip": "ym2612"
    },
    {
      "channel": 1,
      "note": 91,
      "start": 7.1745,
      "duration": 0.0364,
      "velocity": 103,
      "chip": "ym2612"
    },
    {
      "channel": 0,
      "note": 48,
      "start": 7.1775,
      "duration": 0.0255,
      "velocity": 111,
      "chip": "ym2612"
    },
    {
      "channel": 2,
      "note": 48,
      "start": 7.1787,
      "duration": 0.0175,
      "velocity": 108,
      "chip": "ym2612"
    },
    {
      "channel": 3,
      "note": 93,
      "start": 7.1946,
      "duration": 0.0089,
      "velocity": 103,
      "chip": "ym2612"
    },
    {
      "channel": 0,
      "note": 48,
      "start": 7.2078,
      "duration": 0.0501,
      "velocity": 111,
      "chip": "ym2612"
    },
    {
      "channel": 2,
      "note": 48,
      "start": 7.2085,
      "duration": 0.0503,
      "velocity": 108,
      "chip": "ym2612"
    },
    {
      "channel": 3,
      "note": 91,
      "start": 7.2093,
      "duration": 0.0906,
      "velocity": 103,
      "chip": "ym2612"
    },
    {
      "channel": 1,
      "note": 89,
      "start": 7.2586,
      "duration": 0.218,
      "velocity": 103,
      "chip": "ym2612"
    },
    {
      "channel": 0,
      "note": 55,
      "start": 7.2752,
      "duration": 0.0356,
      "velocity": 111,
      "chip": "ym2612"
    },
    {
      "channel": 2,
      "note": 55,
      "start": 7.2766,
      "duration": 0.0189,
      "velocity": 108,
      "chip": "ym2612"
    },
    {
      "channel": 0,
      "note": 55,
      "start": 7.3448,
      "duration": 0.0107,
      "velocity": 111,
      "chip": "ym2612"
    },
    {
      "channel": 2,
      "note": 55,
      "start": 7.3455,
      "duration": 0.0104,
      "velocity": 108,
      "chip": "ym2612"
    },
    {
      "channel": 3,
      "note": 89,
      "start": 7.3463,
      "duration": 0.2028,
      "velocity": 103,
      "chip": "ym2612"
    },
    {
      "channel": 0,
      "note": 55,
      "start": 7.3587,
      "duration": 0.0215,
      "velocity": 111,
      "chip": "ym2612"
    },
    {
      "channel": 2,
      "note": 55,
      "start": 7.3594,
      "duration": 0.0147,
      "velocity": 108,
      "chip": "ym2612"
    },
    {
      "channel": 0,
      "note": 55,
      "start": 7.3844,
      "duration": 0.0554,
      "velocity": 111,
      "chip": "ym2612"
    },
    {
      "channel": 2,
      "note": 55,
      "start": 7.3851,
      "duration": 0.0551,
      "velocity": 108,
      "chip": "ym2612"
    },
    {
      "channel": 0,
      "note": 55,
      "start": 7.457,
      "duration": 0.0357,
      "velocity": 111,
      "chip": "ym2612"
    },
    {
      "channel": 2,
      "note": 55,
      "start": 7.4578,
      "duration": 0.0191,
      "velocity": 108,
      "chip": "ym2612"
    },
    {
      "channel": 0,
      "note": 55,
      "start": 7.5266,
      "duration": 0.0093,
      "velocity": 111,
      "chip": "ym2612"
    },
    {
      "channel": 2,
      "note": 55,
      "start": 7.5273,
      "duration": 0.0094,
      "velocity": 108,
      "chip": "ym2612"
    },
    {
      "channel": 1,
      "note": 86,
      "start": 7.5366,
      "duration": 0.0028,
      "velocity": 103,
      "chip": "ym2612"
    },
    {
      "channel": 0,
      "note": 50,
      "start": 7.5392,
      "duration": 0.014,
      "velocity": 111,
      "chip": "ym2612"
    },
    {
      "channel": 2,
      "note": 55,
      "start": 7.5402,
      "duration": 0.0222,
      "velocity": 108,
      "chip": "ym2612"
    },
    {
      "channel": 1,
      "note": 86,
      "start": 7.5464,
      "duration": 0.0019,
      "velocity": 103,
      "chip": "ym2612"
    },
    {
      "channel": 1,
      "note": 89,
      "start": 7.5539,
      "duration": 0.0027,
      "velocity": 103,
      "chip": "ym2612"
    },
    {
      "channel": 0,
      "note": 52,
      "start": 7.5564,
      "duration": 0.0105,
      "velocity": 111,
      "chip": "ym2612"
    },
    {
      "channel": 1,
      "note": 91,
      "start": 7.5622,
      "duration": 0.0022,
      "velocity": 103,
      "chip": "ym2612"
    },
    {
      "channel": 1,
      "note": 93,
      "start": 7.5676,
      "duration": 0.0049,
      "velocity": 103,
      "chip": "ym2612"
    },
    {
      "channel": 0,
      "note": 53,
      "start": 7.5724,
      "duration": 0.0498,
      "velocity": 111,
      "chip": "ym2612"
    },
    {
      "channel": 2,
      "note": 55,
      "start": 7.5739,
      "duration": 0.0496,
      "velocity": 108,
      "chip": "ym2612"
    },
    {
      "channel": 3,
      "note": 86,
      "start": 7.5748,
      "duration": 0.0026,
      "velocity": 103,
      "chip": "ym2612"
    },
    {
      "channel": 1,
      "note": 96,
      "start": 7.5767,
      "duration": 0.0289,
      "velocity": 103,
      "chip": "ym2612"
    },
    {
      "channel": 3,
      "note": 86,
      "start": 7.6074,
      "duration": 0.0163,
      "velocity": 103,
      "chip": "ym2612"
    },
    {
      "channel": 1,
      "note": 97,
      "start": 7.6234,
      "duration": 0.2731,
      "velocity": 103,
      "chip": "ym2612"
    },
    {
      "channel": 0,
      "note": 55,
      "start": 7.6565,
      "duration": 0.0348,
      "velocity": 111,
      "chip": "ym2612"
    },
    {
      "channel": 2,
      "note": 55,
      "start": 7.6581,
      "duration": 0.0125,
      "velocity": 108,
      "chip": "ym2612"
    },
    {
      "channel": 3,
      "note": 89,
      "start": 7.6589,
      "duration": 0.0039,
      "velocity": 103,
      "chip": "ym2612"
    },
    {
      "channel": 3,
      "note": 91,
      "start": 7.6663,
      "duration": 0.0046,
      "velocity": 103,
      "chip": "ym2612"
    },
    {
      "channel": 2,
      "note": 55,
      "start": 7.6733,
      "duration": 0.0185,
      "velocity": 108,
      "chip": "ym2612"
    },
    {
      "channel": 3,
      "note": 93,
      "start": 7.6741,
      "duration": 0.0041,
      "velocity": 103,
      "chip": "ym2612"
    },
    {
      "channel": 3,
      "note": 96,
      "start": 7.681,
      "duration": 0.011,
      "velocity": 103,
      "chip": "ym2612"
    },
    {
      "channel": 0,
      "note": 55,
      "start": 7.7085,
      "duration": 0.0098,
      "velocity": 111,
      "chip": "ym2612"
    },
    {
      "channel": 2,
      "note": 55,
      "start": 7.7093,
      "duration": 0.0094,
      "velocity": 108,
      "chip": "ym2612"
    },
    {
      "channel": 3,
      "note": 97,
      "start": 7.7103,
      "duration": 0.1866,
      "velocity": 103,
      "chip": "ym2612"
    },
    {
      "channel": 0,
      "note": 55,
      "start": 7.7235,
      "duration": 0.0199,
      "velocity": 111,
      "chip": "ym2612"
    },
    {
      "channel": 2,
      "note": 62,
      "start": 7.7244,
      "duration": 0.0633,
      "velocity": 108,
      "chip": "ym2612"
    },
    {
      "channel": 0,
      "note": 55,
      "start": 7.7456,
      "duration": 0.0418,
      "velocity": 111,
      "chip": "ym2612"
    },
    {
      "channel": 0,
      "note": 55,
      "start": 7.8213,
      "duration": 0.0256,
      "velocity": 111,
      "chip": "ym2612"
    },
    {
      "channel": 2,
      "note": 55,
      "start": 7.8225,
      "duration": 0.0103,
      "velocity": 108,
      "chip": "ym2612"
    },
    {
      "channel": 2,
      "note": 55,
      "start": 7.8364,
      "duration": 0.011,
      "velocity": 108,
      "chip": "ym2612"
    },
    {
      "channel": 0,
      "note": 55,
      "start": 7.8509,
      "duration": 0.0099,
      "velocity": 111,
      "chip": "ym2612"
    },
    {
      "channel": 2,
      "note": 55,
      "start": 7.8516,
      "duration": 0.0095,
      "velocity": 108,
      "chip": "ym2612"
    },
    {
      "channel": 0,
      "note": 56,
      "start": 7.8651,
      "duration": 0.022,
      "velocity": 111,
      "chip": "ym2612"
    },
    {
      "channel": 2,
      "note": 62,
      "start": 7.866,
      "duration": 0.0336,
      "velocity": 108,
      "chip": "ym2612"
    },
    {
      "channel": 0,
      "note": 56,
      "start": 7.8896,
      "duration": 0.0083,
      "velocity": 111,
      "chip": "ym2612"
    },
    {
      "channel": 1,
      "note": 98,
      "start": 7.8995,
      "duration": 0.006,
      "velocity": 103,
      "chip": "ym2612"
    },
    {
      "channel": 0,
      "note": 57,
      "start": 7.9053,
      "duration": 0.0352,
      "velocity": 111,
      "chip": "ym2612"
    },
    {
      "channel": 2,
      "note": 57,
      "start": 7.9081,
      "duration": 0.3119,
      "velocity": 105,
      "chip": "ym2612"
    },
    {
      "channel": 1,
      "note": 87,
      "start": 7.9131,
      "duration": 0.256,
      "velocity": 103,
      "chip": "ym2612"
    },
    {
      "channel": 0,
      "note": 57,
      "start": 7.9576,
      "duration": 0.0093,
      "velocity": 111,
      "chip": "ym2612"
    },
    {
      "channel": 3,
      "note": 98,
      "start": 7.9593,
      "duration": 0.0038,
      "velocity": 103,
      "chip": "ym2612"
    },
    {
      "channel": 3,
      "note": 87,
      "start": 7.9659,
      "duration": 0.2926,
      "velocity": 103,
      "chip": "ym2612"
    },
    {
      "channel": 0,
      "note": 57,
      "start": 7.9724,
      "duration": 0.0239,
      "velocity": 111,
      "chip": "ym2612"
    },
    {
      "channel": 0,
      "note": 57,
      "start": 7.999,
      "duration": 0.0531,
      "velocity": 111,
      "chip": "ym2612"
    },
    {
      "channel": 0,
      "note": 57,
      "start": 8.0694,
      "duration": 0.0356,
      "velocity": 111,
      "chip": "ym2612"
    },
    {
      "channel": 0,
      "note": 57,
      "start": 8.1224,
      "duration": 0.0126,
      "velocity": 111,
      "chip": "ym2612"
    },
    {
      "channel": 0,
      "note": 57,
      "start": 8.1376,
      "duration": 0.0225,
      "velocity": 111,
      "chip": "ym2612"
    },
    {
      "channel": 0,
      "note": 57,
      "start": 8.1627,
      "duration": 0.0565,
      "velocity": 111,
      "chip": "ym2612"
    },
    {
      "channel": 1,
      "note": 88,
      "start": 8.2198,
      "duration": 0.0382,
      "velocity": 103,
      "chip": "ym2612"
    },
    {
      "channel": 0,
      "note": 57,
      "start": 8.2363,
      "duration": 0.0104,
      "velocity": 111,
      "chip": "ym2612"
    },
    {
      "channel": 2,
      "note": 64,
      "start": 8.2373,
      "duration": 0.3329,
      "velocity": 105,
      "chip": "ym2612"
    },
    {
      "channel": 0,
      "note": 69,
      "start": 8.2515,
      "duration": 0.0205,
      "velocity": 111,
      "chip": "ym2612"
    },
    {
      "channel": 1,
      "note": 88,
      "start": 8.2728,
      "duration": 0.0245,
      "velocity": 103,
      "chip": "ym2612"
    },
    {
      "channel": 0,
      "note": 57,
      "start": 8.2893,
      "duration": 0.0119,
      "velocity": 111,
      "chip": "ym2612"
    },
    {
      "channel": 3,
      "note": 88,
      "start": 8.2908,
      "duration": 0.0241,
      "velocity": 103,
      "chip": "ym2612"
    },
    {
      "channel": 1,
      "note": 86,
      "start": 8.3019,
      "duration": 0.0253,
      "velocity": 103,
      "chip": "ym2612"
    },
    {
      "channel": 0,
      "note": 55,
      "start": 8.3038,
      "duration": 0.0259,
      "velocity": 111,
      "chip": "ym2612"
    },
    {
      "channel": 3,
      "note": 88,
      "start": 8.3206,
      "duration": 0.0101,
      "velocity": 103,
      "chip": "ym2612"
    },
    {
      "channel": 1,
      "note": 85,
      "start": 8.3304,
      "duration": 0.0211,
      "velocity": 103,
      "chip": "ym2612"
    },
    {
      "channel": 0,
      "note": 69,
      "start": 8.3354,
      "duration": 0.0494,
      "velocity": 111,
      "chip": "ym2612"
    },
    {
      "channel": 3,
      "note": 86,
      "start": 8.3369,
      "duration": 0.0759,
      "velocity": 103,
      "chip": "ym2612"
    },
    {
      "channel": 0,
      "note": 57,
      "start": 8.402,
      "duration": 0.0349,
      "velocity": 111,
      "chip": "ym2612"
    },
    {
      "channel": 3,
      "note": 85,
      "start": 8.4178,
      "duration": 0.0202,
      "velocity": 103,
      "chip": "ym2612"
    },
    {
      "channel": 1,
      "note": 81,
      "start": 8.4376,
      "duration": 0.0379,
      "velocity": 103,
      "chip": "ym2612"
    },
    {
      "channel": 0,
      "note": 69,
      "start": 8.4709,
      "duration": 0.0081,
      "velocity": 111,
      "chip": "ym2612"
    },
    {
      "channel": 1,
      "note": 81,
      "start": 8.4796,
      "duration": 0.0259,
      "velocity": 103,
      "chip": "ym2612"
    },
    {
      "channel": 0,
      "note": 59,
      "start": 8.4817,
      "duration": 0.0261,
      "velocity": 111,
      "chip": "ym2612"
    },
    {
      "channel": 3,
      "note": 81,
      "start": 8.4989,
      "duration": 0.01,
      "velocity": 103,
      "chip": "ym2612"
    },
    {
      "channel": 1,
      "note": 84,
      "start": 8.5086,
      "duration": 0.0112,
      "velocity": 103,
      "chip": "ym2612"
    },
    {
      "channel": 0,
      "note": 71,
      "start": 8.5129,
      "duration": 0.0571,
      "velocity": 111,
      "chip": "ym2612"
    },
    {
      "channel": 3,
      "note": 81,
      "start": 8.5143,
      "duration": 0.0845,
      "velocity": 103,
      "chip": "ym2612"
    },
    {
      "channel": 0,
      "note": 60,
      "start": 8.5872,
      "duration": 0.0344,
      "velocity": 111,
      "chip": "ym2612"
    },
    {
      "channel": 2,
      "note": 60,
      "start": 8.5878,
      "duration": 0.3248,
      "velocity": 105,
      "chip": "ym2612"
    },
    {
      "channel": 3,
      "note": 84,
      "start": 8.6017,
      "duration": 0.0072,
      "velocity": 103,
      "chip": "ym2612"
    },
    {
      "channel": 0,
      "note": 60,
      "start": 8.6555,
      "duration": 0.0075,
      "velocity": 111,
      "chip": "ym2612"
    },
    {
      "channel": 1,
      "note": 86,
      "start": 8.6612,
      "duration": 0.002,
      "velocity": 103,
      "chip": "ym2612"
    },
    {
      "channel": 0,
      "note": 60,
      "start": 8.6654,
      "duration": 0.0235,
      "velocity": 111,
      "chip": "ym2612"
    },
    {
      "channel": 1,
      "note": 90,
      "start": 8.6661,
      "duration": 0.2296,
      "velocity": 103,
      "chip": "ym2612"
    },
    {
      "channel": 3,
      "note": 86,
      "start": 8.6904,
      "duration": 0.0044,
      "velocity": 103,
      "chip": "ym2612"
    },
    {
      "channel": 0,
      "note": 60,
      "start": 8.6938,
      "duration": 0.0526,
      "velocity": 111,
      "chip": "ym2612"
    },
    {
      "channel": 3,
      "note": 90,
      "start": 8.6977,
      "duration": 0.285,
      "velocity": 103,
      "chip": "ym2612"
    },
    {
      "channel": 0,
      "note": 60,
      "start": 8.7641,
      "duration": 0.0359,
      "velocity": 111,
      "chip": "ym2612"
    },
    {
      "channel": 0,
      "note": 60,
      "start": 8.8339,
      "duration": 0.0091,
      "velocity": 111,
      "chip": "ym2612"
    },
    {
      "channel": 0,
      "note": 60,
      "start": 8.8475,
      "duration": 0.0215,
      "velocity": 111,
      "chip": "ym2612"
    },
    {
      "channel": 0,
      "note": 60,
      "start": 8.8715,
      "duration": 0.0408,
      "velocity": 111,
      "chip": "ym2612"
    },
    {
      "channel": 0,
      "note": 60,
      "start": 8.9462,
      "duration": 0.0359,
      "velocity": 111,
      "chip": "ym2612"
    },
    {
      "channel": 1,
      "note": 91,
      "start": 8.9469,
      "duration": 0.0355,
      "velocity": 103,
      "chip": "ym2612"
    },
    {
      "channel": 2,
      "note": 67,
      "start": 8.9474,
      "duration": 0.2735,
      "velocity": 105,
      "chip": "ym2612"
    },
    {
      "channel": 0,
      "note": 60,
      "start": 8.9993,
      "duration": 0.0095,
      "velocity": 111,
      "chip": "ym2612"
    },
    {
      "channel": 1,
      "note": 91,
      "start": 8.9999,
      "duration": 0.009,
      "velocity": 103,
      "chip": "ym2612"
    },
    {
      "channel": 3,
      "note": 91,
      "start": 9.003,
      "duration": 0.0253,
      "velocity": 103,
      "chip": "ym2612"
    },
    {
      "channel": 0,
      "note": 59,
      "start": 9.0138,
      "duration": 0.0256,
      "velocity": 111,
      "chip": "ym2612"
    },
    {
      "channel": 1,
      "note": 89,
      "start": 9.0144,
      "duration": 0.0253,
      "velocity": 103,
      "chip": "ym2612"
    },
    {
      "channel": 3,
      "note": 91,
      "start": 9.0331,
      "duration": 0.0103,
      "velocity": 103,
      "chip": "ym2612"
    },
    {
      "channel": 0,
      "note": 59,
      "start": 9.0423,
      "duration": 0.0358,
      "velocity": 111,
      "chip": "ym2612"
    },
    {
      "channel": 1,
      "note": 88,
      "start": 9.043,
      "duration": 0.0354,
      "velocity": 103,
      "chip": "ym2612"
    },
    {
      "channel": 3,
      "note": 89,
      "start": 9.0468,
      "duration": 0.0803,
      "velocity": 103,
      "chip": "ym2612"
    },
    {
      "channel": 0,
      "note": 60,
      "start": 9.112,
      "duration": 0.0337,
      "velocity": 111,
      "chip": "ym2612"
    },
    {
      "channel": 1,
      "note": 89,
      "start": 9.1127,
      "duration": 0.0334,
      "velocity": 103,
      "chip": "ym2612"
    },
    {
      "channel": 3,
      "note": 88,
      "start": 9.1324,
      "duration": 0.0315,
      "velocity": 103,
      "chip": "ym2612"
    },
    {
      "channel": 0,
      "note": 60,
      "start": 9.1629,
      "duration": 0.0109,
      "velocity": 111,
      "chip": "ym2612"
    },
    {
      "channel": 1,
      "note": 88,
      "start": 9.1636,
      "duration": 0.0104,
      "velocity": 103,
      "chip": "ym2612"
    },
    {
      "channel": 3,
      "note": 89,
      "start": 9.1696,
      "duration": 0.0277,
      "velocity": 103,
      "chip": "ym2612"
    },
    {
      "channel": 0,
      "note": 61,
      "start": 9.1797,
      "duration": 0.0265,
      "velocity": 111,
      "chip": "ym2612"
    },
    {
      "channel": 1,
      "note": 84,
      "start": 9.1803,
      "duration": 0.0261,
      "velocity": 103,
      "chip": "ym2612"
    },
    {
      "channel": 3,
      "note": 88,
      "start": 9.2002,
      "duration": 0.0094,
      "velocity": 103,
      "chip": "ym2612"
    },
    {
      "channel": 0,
      "note": 61,
      "start": 9.2086,
      "duration": 0.0116,
      "velocity": 111,
      "chip": "ym2612"
    },
    {
      "channel": 1,
      "note": 82,
      "start": 9.2093,
      "duration": 0.0111,
      "velocity": 103,
      "chip": "ym2612"
    },
    {
      "channel": 3,
      "note": 84,
      "start": 9.2161,
      "duration": 0.0265,
      "velocity": 103,
      "chip": "ym2612"
    },
    {
      "channel": 0,
      "note": 50,
      "start": 9.226,
      "duration": 0.0353,
      "velocity": 111,
      "chip": "ym2612"
    },
    {
      "channel": 2,
      "note": 50,
      "start": 9.2284,
      "duration": 0.0334,
      "velocity": 108,
      "chip": "ym2612"
    },
    {
      "channel": 3,
      "note": 82,
      "start": 9.2457,
      "duration": 0.0355,
      "velocity": 103,
      "chip": "ym2612"
    },
    {
      "channel": 0,
      "note": 50,
      "start": 9.2788,
      "duration": 0.0134,
      "velocity": 111,
      "chip": "ym2612"
    },
    {
      "channel": 1,
      "note": 84,
      "start": 9.2805,
      "duration": 0.0119,
      "velocity": 102,
      "chip": "ym2612"
    },
    {
      "channel": 2,
      "note": 50,
      "start": 9.2811,
      "duration": 0.0116,
      "velocity": 108,
      "chip": "ym2612"
    },
    {
      "channel": 0,
      "note": 53,
      "start": 9.2948,
      "duration": 0.026,
      "velocity": 111,
      "chip": "ym2612"
    },
    {
      "channel": 1,
      "note": 86,
      "start": 9.2954,
      "duration": 0.0256,
      "velocity": 102,
      "chip": "ym2612"
    },
    {
      "channel": 2,
      "note": 53,
      "start": 9.296,
      "duration": 0.0252,
      "velocity": 108,
      "chip": "ym2612"
    },
    {
      "channel": 3,
      "note": 84,
      "start": 9.3143,
      "duration": 0.0106,
      "velocity": 102,
      "chip": "ym2612"
    },
    {
      "channel": 0,
      "note": 50,
      "start": 9.3236,
      "duration": 0.0517,
      "velocity": 111,
      "chip": "ym2612"
    },
    {
      "channel": 1,
      "note": 89,
      "start": 9.3243,
      "duration": 0.0512,
      "velocity": 102,
      "chip": "ym2612"
    },
    {
      "channel": 2,
      "note": 50,
      "start": 9.3249,
      "duration": 0.0512,
      "velocity": 108,
      "chip": "ym2612"
    },
    {
      "channel": 3,
      "note": 86,
      "start": 9.3307,
      "duration": 0.0794,
      "velocity": 102,
      "chip": "ym2612"
    },
    {
      "channel": 0,
      "note": 54,
      "start": 9.3925,
      "duration": 0.0338,
      "velocity": 111,
      "chip": "ym2612"
    },
    {
      "channel": 1,
      "note": 86,
      "start": 9.393,
      "duration": 0.0334,
      "velocity": 102,
      "chip": "ym2612"
    },
    {
      "channel": 2,
      "note": 54,
      "start": 9.3937,
      "duration": 0.0329,
      "velocity": 108,
      "chip": "ym2612"
    },
    {
      "channel": 3,
      "note": 89,
      "start": 9.4126,
      "duration": 0.0322,
      "velocity": 102,
      "chip": "ym2612"
    },
    {
      "channel": 0,
      "note": 50,
      "start": 9.4434,
      "duration": 0.0133,
      "velocity": 111,
      "chip": "ym2612"
    },
    {
      "channel": 1,
      "note": 90,
      "start": 9.4441,
      "duration": 0.0128,
      "velocity": 102,
      "chip": "ym2612"
    },
    {
      "channel": 2,
      "note": 50,
      "start": 9.4446,
      "duration": 0.0128,
      "velocity": 108,
      "chip": "ym2612"
    },
    {
      "channel": 3,
      "note": 86,
      "start": 9.4505,
      "duration": 0.0277,
      "velocity": 102,
      "chip": "ym2612"
    },
    {
      "channel": 0,
      "note": 48,
      "start": 9.46,
      "duration": 0.0271,
      "velocity": 111,
      "chip": "ym2612"
    },
    {
      "channel": 1,
      "note": 86,
      "start": 9.4606,
      "duration": 0.0267,
      "velocity": 102,
      "chip": "ym2612"
    },
    {
      "channel": 2,
      "note": 48,
      "start": 9.4612,
      "duration": 0.0263,
      "velocity": 108,
      "chip": "ym2612"
    },
    {
      "channel": 3,
      "note": 90,
      "start": 9.4812,
      "duration": 0.0098,
      "velocity": 102,
      "chip": "ym2612"
    },
    {
      "channel": 0,
      "note": 50,
      "start": 9.4896,
      "duration": 0.052,
      "velocity": 111,
      "chip": "ym2612"
    },
    {
      "channel": 1,
      "note": 84,
      "start": 9.4902,
      "duration": 0.0516,
      "velocity": 102,
      "chip": "ym2612"
    },
    {
      "channel": 2,
      "note": 50,
      "start": 9.4908,
      "duration": 0.0513,
      "velocity": 108,
      "chip": "ym2612"
    },
    {
      "channel": 3,
      "note": 86,
      "start": 9.4968,
      "duration": 0.0774,
      "velocity": 102,
      "chip": "ym2612"
    },
    {
      "channel": 0,
      "note": 50,
      "start": 9.5588,
      "duration": 0.0345,
      "velocity": 111,
      "chip": "ym2612"
    },
    {
      "channel": 2,
      "note": 50,
      "start": 9.5598,
      "duration": 0.0338,
      "velocity": 108,
      "chip": "ym2612"
    },
    {
      "channel": 3,
      "note": 84,
      "start": 9.577,
      "duration": 0.0516,
      "velocity": 102,
      "chip": "ym2612"
    },
    {
      "channel": 0,
      "note": 50,
      "start": 9.6272,
      "duration": 0.0084,
      "velocity": 111,
      "chip": "ym2612"
    },
    {
      "channel": 1,
      "note": 86,
      "start": 9.6278,
      "duration": 0.008,
      "velocity": 102,
      "chip": "ym2612"
    },
    {
      "channel": 2,
      "note": 50,
      "start": 9.6284,
      "duration": 0.0077,
      "velocity": 108,
      "chip": "ym2612"
    },
    {
      "channel": 0,
      "note": 50,
      "start": 9.6377,
      "duration": 0.026,
      "velocity": 111,
      "chip": "ym2612"
    },
    {
      "channel": 1,
      "note": 86,
      "start": 9.6384,
      "duration": 0.0256,
      "velocity": 102,
      "chip": "ym2612"
    },
    {
      "channel": 2,
      "note": 62,
      "start": 9.6391,
      "duration": 0.0394,
      "velocity": 108,
      "chip": "ym2612"
    },
    {
      "channel": 3,
      "note": 86,
      "start": 9.6575,
      "duration": 0.0114,
      "velocity": 102,
      "chip": "ym2612"
    },
    {
      "channel": 0,
      "note": 50,
      "start": 9.668,
      "duration": 0.0098,
      "velocity": 111,
      "chip": "ym2612"
    },
    {
      "channel": 1,
      "note": 89,
      "start": 9.6686,
      "duration": 0.0094,
      "velocity": 102,
      "chip": "ym2612"
    },
    {
      "channel": 3,
      "note": 86,
      "start": 9.672,
      "duration": 0.0279,
      "velocity": 102,
      "chip": "ym2612"
    },
    {
      "channel": 0,
      "note": 50,
      "start": 9.6806,
      "duration": 0.0352,
      "velocity": 111,
      "chip": "ym2612"
    },
    {
      "channel": 1,
      "note": 86,
      "start": 9.6813,
      "duration": 0.0347,
      "velocity": 102,
      "chip": "ym2612"
    },
    {
      "channel": 2,
      "note": 50,
      "start": 9.682,
      "duration": 0.0343,
      "velocity": 108,
      "chip": "ym2612"
    },
    {
      "channel": 3,
      "note": 89,
      "start": 9.7027,
      "duration": 0.0488,
      "velocity": 102,
      "chip": "ym2612"
    },
    {
      "channel": 0,
      "note": 50,
      "start": 9.7498,
      "duration": 0.0113,
      "velocity": 111,
      "chip": "ym2612"
    },
    {
      "channel": 1,
      "note": 89,
      "start": 9.7504,
      "duration": 0.0108,
      "velocity": 102,
      "chip": "ym2612"
    },
    {
      "channel": 2,
      "note": 50,
      "start": 9.751,
      "duration": 0.0109,
      "velocity": 108,
      "chip": "ym2612"
    },
    {
      "channel": 3,
      "note": 86,
      "start": 9.7546,
      "duration": 0.028,
      "velocity": 102,
      "chip": "ym2612"
    },
    {
      "channel": 0,
      "note": 45,
      "start": 9.7643,
      "duration": 0.0279,
      "velocity": 111,
      "chip": "ym2612"
    },
    {
      "channel": 1,
      "note": 90,
      "start": 9.7653,
      "duration": 0.0271,
      "velocity": 102,
      "chip": "ym2612"
    },
    {
      "channel": 2,
      "note": 62,
      "start": 9.7661,
      "duration": 0.0424,
      "velocity": 108,
      "chip": "ym2612"
    },
    {
      "channel": 3,
      "note": 89,
      "start": 9.7855,
      "duration": 0.0127,
      "velocity": 102,
      "chip": "ym2612"
    },
    {
      "channel": 0,
      "note": 48,
      "start": 9.7973,
      "duration": 0.0105,
      "velocity": 111,
      "chip": "ym2612"
    },
    {
      "channel": 1,
      "note": 93,
      "start": 9.7979,
      "duration": 0.0101,
      "velocity": 102,
      "chip": "ym2612"
    },
    {
      "channel": 3,
      "note": 90,
      "start": 9.801,
      "duration": 0.0262,
      "velocity": 102,
      "chip": "ym2612"
    },
    {
      "channel": 0,
      "note": 50,
      "start": 9.811,
      "duration": 0.0354,
      "velocity": 111,
      "chip": "ym2612"
    },
    {
      "channel": 2,
      "note": 50,
      "start": 9.8122,
      "duration": 0.0346,
      "velocity": 108,
      "chip": "ym2612"
    },
    {
      "channel": 3,
      "note": 93,
      "start": 9.8317,
      "duration": 0.05,
      "velocity": 102,
      "chip": "ym2612"
    },
    {
      "channel": 0,
      "note": 50,
      "start": 9.8803,
      "duration": 0.0095,
      "velocity": 111,
      "chip": "ym2612"
    },
    {
      "channel": 1,
      "note": 96,
      "start": 9.881,
      "duration": 0.009,
      "velocity": 102,
      "chip": "ym2612"
    },
    {
      "channel": 2,
      "note": 50,
      "start": 9.8816,
      "duration": 0.0089,
      "velocity": 108,
      "chip": "ym2612"
    },
    {
      "channel": 0,
      "note": 53,
      "start": 9.8922,
      "duration": 0.0267,
      "velocity": 111,
      "chip": "ym2612"
    },
    {
      "channel": 1,
      "note": 86,
      "start": 9.8928,
      "duration": 0.0263,
      "velocity": 102,
      "chip": "ym2612"
    },
    {
      "channel": 2,
      "note": 53,
      "start": 9.8934,
      "duration": 0.0259,
      "velocity": 108,
      "chip": "ym2612"
    },
    {
      "channel": 3,
      "note": 96,
      "start": 9.9142,
      "duration": 0.0114,
      "velocity": 102,
      "chip": "ym2612"
    },
    {
      "channel": 0,
      "note": 50,
      "start": 9.9243,
      "duration": 0.0501,
      "velocity": 111,
      "chip": "ym2612"
    },
    {
      "channel": 1,
      "note": 89,
      "start": 9.9249,
      "duration": 0.0497,
      "velocity": 102,
      "chip": "ym2612"
    },
    {
      "channel": 2,
      "note": 50,
      "start": 9.9255,
      "duration": 0.0496,
      "velocity": 108,
      "chip": "ym2612"
    },
    {
      "channel": 3,
      "note": 86,
      "start": 9.929,
      "duration": 0.0947,
      "velocity": 102,
      "chip": "ym2612"
    },
    {
      "channel": 0,
      "note": 54,
      "start": 10.0083,
      "duration": 0.0343,
      "velocity": 111,
      "chip": "ym2612"
    },
    {
      "channel": 1,
      "note": 86,
      "start": 10.0089,
      "duration": 0.0339,
      "velocity": 102,
      "chip": "ym2612"
    },
    {
      "channel": 2,
      "note": 54,
      "start": 10.0095,
      "duration": 0.0335,
      "velocity": 108,
      "chip": "ym2612"
    },
    {
      "channel": 3,
      "note": 89,
      "start": 10.028,
      "duration": 0.0332,
      "velocity": 102,
      "chip": "ym2612"
    },
    {
      "channel": 0,
      "note": 50,
      "start": 10.0597,
      "duration": 0.0111,
      "velocity": 111,
      "chip": "ym2612"
    },
    {
      "channel": 1,
      "note": 90,
      "start": 10.0603,
      "duration": 0.0107,
      "velocity": 102,
      "chip": "ym2612"
    },
    {
      "channel": 2,
      "note": 50,
      "start": 10.0609,
      "duration": 0.0107,
      "velocity": 108,
      "chip": "ym2612"
    },
    {
      "channel": 3,
      "note": 86,
      "start": 10.0643,
      "duration": 0.0276,
      "velocity": 102,
      "chip": "ym2612"
    },
    {
      "channel": 0,
      "note": 48,
      "start": 10.0765,
      "duration": 0.0261,
      "velocity": 111,
      "chip": "ym2612"
    },
    {
      "channel": 1,
      "note": 86,
      "start": 10.0772,
      "duration": 0.0256,
      "velocity": 102,
      "chip": "ym2612"
    },
    {
      "channel": 2,
      "note": 48,
      "start": 10.0777,
      "duration": 0.0253,
      "velocity": 108,
      "chip": "ym2612"
    },
    {
      "channel": 3,
      "note": 90,
      "start": 10.0966,
      "duration": 0.0099,
      "velocity": 102,
      "chip": "ym2612"
    },
    {
      "channel": 0,
      "note": 50,
      "start": 10.1051,
      "duration": 0.0351,
      "velocity": 111,
      "chip": "ym2612"
    },
    {
      "channel": 1,
      "note": 84,
      "start": 10.1057,
      "duration": 0.0347,
      "velocity": 102,
      "chip": "ym2612"
    },
    {
      "channel": 2,
      "note": 50,
      "start": 10.1063,
      "duration": 0.0346,
      "velocity": 108,
      "chip": "ym2612"
    },
    {
      "channel": 3,
      "note": 86,
      "start": 10.1099,
      "duration": 0.0771,
      "velocity": 102,
      "chip": "ym2612"
    },
    {
      "channel": 0,
      "note": 50,
      "start": 10.1741,
      "duration": 0.0351,
      "velocity": 111,
      "chip": "ym2612"
    },
    {
      "channel": 2,
      "note": 57,
      "start": 10.175,
      "duration": 0.0344,
      "velocity": 108,
      "chip": "ym2612"
    },
    {
      "channel": 3,
      "note": 84,
      "start": 10.1919,
      "duration": 0.0359,
      "velocity": 102,
      "chip": "ym2612"
    },
    {
      "channel": 0,
      "note": 50,
      "start": 10.2262,
      "duration": 0.0095,
      "velocity": 111,
      "chip": "ym2612"
    },
    {
      "channel": 1,
      "note": 86,
      "start": 10.2269,
      "duration": 0.009,
      "velocity": 102,
      "chip": "ym2612"
    },
    {
      "channel": 2,
      "note": 50,
      "start": 10.2275,
      "duration": 0.0085,
      "velocity": 108,
      "chip": "ym2612"
    },
    {
      "channel": 0,
      "note": 53,
      "start": 10.2394,
      "duration": 0.0271,
      "velocity": 111,
      "chip": "ym2612"
    },
    {
      "channel": 1,
      "note": 86,
      "start": 10.24,
      "duration": 0.0267,
      "velocity": 102,
      "chip": "ym2612"
    },
    {
      "channel": 2,
      "note": 65,
      "start": 10.2407,
      "duration": 0.0262,
      "velocity": 108,
      "chip": "ym2612"
    },
    {
      "channel": 3,
      "note": 86,
      "start": 10.2604,
      "duration": 0.0102,
      "velocity": 102,
      "chip": "ym2612"
    },
    {
      "channel": 0,
      "note": 50,
      "start": 10.2689,
      "duration": 0.037,
      "velocity": 111,
      "chip": "ym2612"
    },
    {
      "channel": 1,
      "note": 89,
      "start": 10.2695,
      "duration": 0.0366,
      "velocity": 102,
      "chip": "ym2612"
    },
    {
      "channel": 2,
      "note": 65,
      "start": 10.2704,
      "duration": 0.0362,
      "velocity": 108,
      "chip": "ym2612"
    },
    {
      "channel": 3,
      "note": 86,
      "start": 10.2756,
      "duration": 0.0839,
      "velocity": 102,
      "chip": "ym2612"
    },
    {
      "channel": 0,
      "note": 48,
      "start": 10.3398,
      "duration": 0.0304,
      "velocity": 111,
      "chip": "ym2612"
    },
    {
      "channel": 1,
      "note": 86,
      "start": 10.3408,
      "duration": 0.0134,
      "velocity": 102,
      "chip": "ym2612"
    },
    {
      "channel": 2,
      "note": 60,
      "start": 10.3414,
      "duration": 0.0296,
      "velocity": 108,
      "chip": "ym2612"
    },
    {
      "channel": 1,
      "note": 86,
      "start": 10.3591,
      "duration": 0.0113,
      "velocity": 102,
      "chip": "ym2612"
    },
    {
      "channel": 3,
      "note": 89,
      "start": 10.3627,
      "duration": 0.0128,
      "velocity": 102,
      "chip": "ym2612"
    },
    {
      "channel": 0,
      "note": 45,
      "start": 10.374,
      "duration": 0.0115,
      "velocity": 111,
      "chip": "ym2612"
    },
    {
      "channel": 1,
      "note": 89,
      "start": 10.3747,
      "duration": 0.011,
      "velocity": 102,
      "chip": "ym2612"
    },
    {
      "channel": 2,
      "note": 57,
      "start": 10.3753,
      "duration": 0.011,
      "velocity": 108,
      "chip": "ym2612"
    },
    {
      "channel": 3,
      "note": 86,
      "start": 10.3814,
      "duration": 0.0108,
      "velocity": 102,
      "chip": "ym2612"
    },
    {
      "channel": 0,
      "note": 43,
      "start": 10.3908,
      "duration": 0.0301,
      "velocity": 111,
      "chip": "ym2612"
    },
    {
      "channel": 1,
      "note": 93,
      "start": 10.3914,
      "duration": 0.0119,
      "velocity": 102,
      "chip": "ym2612"
    },
    {
      "channel": 2,
      "note": 55,
      "start": 10.3921,
      "duration": 0.0297,
      "velocity": 108,
      "chip": "ym2612"
    },
    {
      "channel": 3,
      "note": 86,
      "start": 10.3965,
      "duration": 0.0137,
      "velocity": 102,
      "chip": "ym2612"
    },
    {
      "channel": 1,
      "note": 89,
      "start": 10.4098,
      "duration": 0.0113,
      "velocity": 102,
      "chip": "ym2612"
    },
    {
      "channel": 3,
      "note": 89,
      "start": 10.4141,
      "duration": 0.011,
      "velocity": 102,
      "chip": "ym2612"
    },
    {
      "channel": 0,
      "note": 45,
      "start": 10.4237,
      "duration": 0.0136,
      "velocity": 111,
      "chip": "ym2612"
    },
    {
      "channel": 1,
      "note": 93,
      "start": 10.4244,
      "duration": 0.0132,
      "velocity": 102,
      "chip": "ym2612"
    },
    {
      "channel": 2,
      "note": 57,
      "start": 10.425,
      "duration": 0.0131,
      "velocity": 108,
      "chip": "ym2612"
    },
    {
      "channel": 3,
      "note": 93,
      "start": 10.4315,
      "duration": 0.0132,
      "velocity": 102,
      "chip": "ym2612"
    },
    {
      "channel": 0,
      "note": 57,
      "start": 10.4407,
      "duration": 0.0331,
      "velocity": 111,
      "chip": "ym2612"
    },
    {
      "channel": 1,
      "note": 98,
      "start": 10.4426,
      "duration": 0.0057,
      "velocity": 103,
      "chip": "ym2612"
    },
    {
      "channel": 2,
      "note": 57,
      "start": 10.4444,
      "duration": 0.3142,
      "velocity": 105,
      "chip": "ym2612"
    },
    {
      "channel": 3,
      "note": 89,
      "start": 10.4497,
      "duration": 0.013,
      "velocity": 102,
      "chip": "ym2612"
    },
    {
      "channel": 1,
      "note": 87,
      "start": 10.4543,
      "duration": 0.0197,
      "velocity": 103,
      "chip": "ym2612"
    },
    {
      "channel": 3,
      "note": 93,
      "start": 10.466,
      "duration": 0.026,
      "velocity": 102,
      "chip": "ym2612"
    },
    {
      "channel": 0,
      "note": 57,
      "start": 10.491,
      "duration": 0.0133,
      "velocity": 111,
      "chip": "ym2612"
    },
    {
      "channel": 1,
      "note": 88,
      "start": 10.4916,
      "duration": 0.0129,
      "velocity": 103,
      "chip": "ym2612"
    },
    {
      "channel": 3,
      "note": 98,
      "start": 10.4982,
      "duration": 0.002,
      "velocity": 103,
      "chip": "ym2612"
    },
    {
      "channel": 3,
      "note": 87,
      "start": 10.5056,
      "duration": 0.0219,
      "velocity": 103,
      "chip": "ym2612"
    },
    {
      "channel": 0,
      "note": 57,
      "start": 10.5078,
      "duration": 0.0294,
      "velocity": 111,
      "chip": "ym2612"
    },
    {
      "channel": 1,
      "note": 88,
      "start": 10.5084,
      "duration": 0.0128,
      "velocity": 103,
      "chip": "ym2612"
    },
    {
      "channel": 1,
      "note": 93,
      "start": 10.5272,
      "duration": 0.0101,
      "velocity": 103,
      "chip": "ym2612"
    },
    {
      "channel": 3,
      "note": 88,
      "start": 10.5304,
      "duration": 0.0102,
      "velocity": 103,
      "chip": "ym2612"
    },
    {
      "channel": 0,
      "note": 57,
      "start": 10.5396,
      "duration": 0.05,
      "velocity": 111,
      "chip": "ym2612"
    },
    {
      "channel": 1,
      "note": 91,
      "start": 10.5402,
      "duration": 0.0495,
      "velocity": 103,
      "chip": "ym2612"
    },
    {
      "channel": 3,
      "note": 88,
      "start": 10.5459,
      "duration": 0.0621,
      "velocity": 103,
      "chip": "ym2612"
    },
    {
      "channel": 0,
      "note": 57,
      "start": 10.6068,
      "duration": 0.0349,
      "velocity": 111,
      "chip": "ym2612"
    },
    {
      "channel": 1,
      "note": 88,
      "start": 10.6075,
      "duration": 0.0064,
      "velocity": 103,
      "chip": "ym2612"
    },
    {
      "channel": 3,
      "note": 93,
      "start": 10.6154,
      "duration": 0.011,
      "velocity": 103,
      "chip": "ym2612"
    },
    {
      "channel": 1,
      "note": 87,
      "start": 10.6177,
      "duration": 0.0242,
      "velocity": 103,
      "chip": "ym2612"
    },
    {
      "channel": 3,
      "note": 91,
      "start": 10.63,
      "duration": 0.0298,
      "velocity": 103,
      "chip": "ym2612"
    },
    {
      "channel": 0,
      "note": 57,
      "start": 10.6589,
      "duration": 0.0146,
      "velocity": 111,
      "chip": "ym2612"
    },
    {
      "channel": 1,
      "note": 88,
      "start": 10.6595,
      "duration": 0.0143,
      "velocity": 103,
      "chip": "ym2612"
    },
    {
      "channel": 3,
      "note": 88,
      "start": 10.6667,
      "duration": 0.0022,
      "velocity": 103,
      "chip": "ym2612"
    },
    {
      "channel": 3,
      "note": 87,
      "start": 10.6747,
      "duration": 0.0204,
      "velocity": 103,
      "chip": "ym2612"
    },
    {
      "channel": 0,
      "note": 57,
      "start": 10.6766,
      "duration": 0.0272,
      "velocity": 111,
      "chip": "ym2612"
    },
    {
      "channel": 1,
      "note": 88,
      "start": 10.6772,
      "duration": 0.0114,
      "velocity": 103,
      "chip": "ym2612"
    },
    {
      "channel": 1,
      "note": 93,
      "start": 10.6948,
      "duration": 0.0091,
      "velocity": 103,
      "chip": "ym2612"
    },
    {
      "channel": 3,
      "note": 88,
      "start": 10.698,
      "duration": 0.0117,
      "velocity": 103,
      "chip": "ym2612"
    },
    {
      "channel": 0,
      "note": 57,
      "start": 10.7087,
      "duration": 0.0491,
      "velocity": 111,
      "chip": "ym2612"
    },
    {
      "channel": 1,
      "note": 91,
      "start": 10.7094,
      "duration": 0.0486,
      "velocity": 103,
      "chip": "ym2612"
    },
    {
      "channel": 3,
      "note": 88,
      "start": 10.7128,
      "duration": 0.0637,
      "velocity": 103,
      "chip": "ym2612"
    },
    {
      "channel": 0,
      "note": 57,
      "start": 10.775,
      "duration": 0.0355,
      "velocity": 111,
      "chip": "ym2612"
    },
    {
      "channel": 1,
      "note": 88,
      "start": 10.7757,
      "duration": 0.0069,
      "velocity": 103,
      "chip": "ym2612"
    },
    {
      "channel": 2,
      "note": 64,
      "start": 10.7763,
      "duration": 0.3452,
      "velocity": 105,
      "chip": "ym2612"
    },
    {
      "channel": 3,
      "note": 93,
      "start": 10.7841,
      "duration": 0.0113,
      "velocity": 103,
      "chip": "ym2612"
    },
    {
      "channel": 1,
      "note": 87,
      "start": 10.7864,
      "duration": 0.1537,
      "velocity": 103,
      "chip": "ym2612"
    },
    {
      "channel": 3,
      "note": 91,
      "start": 10.7994,
      "duration": 0.046,
      "velocity": 103,
      "chip": "ym2612"
    },
    {
      "channel": 0,
      "note": 57,
      "start": 10.8448,
      "duration": 0.0095,
      "velocity": 111,
      "chip": "ym2612"
    },
    {
      "channel": 3,
      "note": 88,
      "start": 10.8486,
      "duration": 0.0019,
      "velocity": 103,
      "chip": "ym2612"
    },
    {
      "channel": 3,
      "note": 87,
      "start": 10.8555,
      "duration": 0.1718,
      "velocity": 103,
      "chip": "ym2612"
    },
    {
      "channel": 0,
      "note": 55,
      "start": 10.8577,
      "duration": 0.0256,
      "velocity": 111,
      "chip": "ym2612"
    },
    {
      "channel": 0,
      "note": 69,
      "start": 10.8868,
      "duration": 0.0531,
      "velocity": 111,
      "chip": "ym2612"
    },
    {
      "channel": 0,
      "note": 57,
      "start": 10.9571,
      "duration": 0.0352,
      "velocity": 111,
      "chip": "ym2612"
    },
    {
      "channel": 1,
      "note": 88,
      "start": 10.9577,
      "duration": 0.0348,
      "velocity": 103,
      "chip": "ym2612"
    },
    {
      "channel": 0,
      "note": 69,
      "start": 11.0263,
      "duration": 0.0106,
      "velocity": 111,
      "chip": "ym2612"
    },
    {
      "channel": 1,
      "note": 91,
      "start": 11.0269,
      "duration": 0.0102,
      "velocity": 103,
      "chip": "ym2612"
    },
    {
      "channel": 3,
      "note": 88,
      "start": 11.0306,
      "duration": 0.0273,
      "velocity": 103,
      "chip": "ym2612"
    },
    {
      "channel": 0,
      "note": 59,
      "start": 11.0397,
      "duration": 0.0278,
      "velocity": 111,
      "chip": "ym2612"
    },
    {
      "channel": 1,
      "note": 88,
      "start": 11.0404,
      "duration": 0.0273,
      "velocity": 103,
      "chip": "ym2612"
    },
    {
      "channel": 3,
      "note": 91,
      "start": 11.0632,
      "duration": 0.0099,
      "velocity": 103,
      "chip": "ym2612"
    },
    {
      "channel": 0,
      "note": 71,
      "start": 11.0721,
      "duration": 0.0487,
      "velocity": 111,
      "chip": "ym2612"
    },
    {
      "channel": 1,
      "note": 86,
      "start": 11.0727,
      "duration": 0.0482,
      "velocity": 103,
      "chip": "ym2612"
    },
    {
      "channel": 3,
      "note": 88,
      "start": 11.076,
      "duration": 0.0807,
      "velocity": 103,
      "chip": "ym2612"
    },
    {
      "channel": 0,
      "note": 60,
      "start": 11.138,
      "duration": 0.0354,
      "velocity": 111,
      "chip": "ym2612"
    },
    {
      "channel": 1,
      "note": 88,
      "start": 11.1388,
      "duration": 0.0069,
      "velocity": 103,
      "chip": "ym2612"
    },
    {
      "channel": 2,
      "note": 60,
      "start": 11.1393,
      "duration": 0.3158,
      "velocity": 105,
      "chip": "ym2612"
    },
    {
      "channel": 1,
      "note": 90,
      "start": 11.1493,
      "duration": 0.0243,
      "velocity": 103,
      "chip": "ym2612"
    },
    {
      "channel": 3,
      "note": 86,
      "start": 11.1624,
      "duration": 0.0458,
      "velocity": 103,
      "chip": "ym2612"
    },
    {
      "channel": 0,
      "note": 60,
      "start": 11.2073,
      "duration": 0.0099,
      "velocity": 111,
      "chip": "ym2612"
    },
    {
      "channel": 1,
      "note": 91,
      "start": 11.2079,
      "duration": 0.0095,
      "velocity": 103,
      "chip": "ym2612"
    },
    {
      "channel": 3,
      "note": 88,
      "start": 11.2117,
      "duration": 0.004,
      "velocity": 103,
      "chip": "ym2612"
    },
    {
      "channel": 3,
      "note": 90,
      "start": 11.2184,
      "duration": 0.0202,
      "velocity": 103,
      "chip": "ym2612"
    },
    {
      "channel": 0,
      "note": 60,
      "start": 11.2222,
      "duration": 0.0281,
      "velocity": 111,
      "chip": "ym2612"
    },
    {
      "channel": 1,
      "note": 91,
      "start": 11.2228,
      "duration": 0.012,
      "velocity": 103,
      "chip": "ym2612"
    },
    {
      "channel": 1,
      "note": 96,
      "start": 11.2382,
      "duration": 0.0122,
      "velocity": 103,
      "chip": "ym2612"
    },
    {
      "channel": 3,
      "note": 91,
      "start": 11.2439,
      "duration": 0.0099,
      "velocity": 103,
      "chip": "ym2612"
    },
    {
      "channel": 0,
      "note": 60,
      "start": 11.2527,
      "duration": 0.0329,
      "velocity": 111,
      "chip": "ym2612"
    },
    {
      "channel": 1,
      "note": 94,
      "start": 11.2534,
      "duration": 0.0324,
      "velocity": 103,
      "chip": "ym2612"
    },
    {
      "channel": 3,
      "note": 91,
      "start": 11.2569,
      "duration": 0.0639,
      "velocity": 103,
      "chip": "ym2612"
    },
    {
      "channel": 0,
      "note": 60,
      "start": 11.3195,
      "duration": 0.0346,
      "velocity": 111,
      "chip": "ym2612"
    },
    {
      "channel": 1,
      "note": 91,
      "start": 11.3203,
      "duration": 0.0041,
      "velocity": 103,
      "chip": "ym2612"
    },
    {
      "channel": 3,
      "note": 96,
      "start": 11.3258,
      "duration": 0.0107,
      "velocity": 103,
      "chip": "ym2612"
    },
    {
      "channel": 1,
      "note": 90,
      "start": 11.3277,
      "duration": 0.0267,
      "velocity": 103,
      "chip": "ym2612"
    },
    {
      "channel": 3,
      "note": 94,
      "start": 11.3426,
      "duration": 0.0297,
      "velocity": 103,
      "chip": "ym2612"
    },
    {
      "channel": 0,
      "note": 60,
      "start": 11.3713,
      "duration": 0.0118,
      "velocity": 111,
      "chip": "ym2612"
    },
    {
      "channel": 1,
      "note": 91,
      "start": 11.372,
      "duration": 0.0114,
      "velocity": 103,
      "chip": "ym2612"
    },
    {
      "channel": 3,
      "note": 91,
      "start": 11.3768,
      "duration": 0.0047,
      "velocity": 103,
      "chip": "ym2612"
    },
    {
      "channel": 3,
      "note": 90,
      "start": 11.3844,
      "duration": 0.0203,
      "velocity": 103,
      "chip": "ym2612"
    },
    {
      "channel": 0,
      "note": 60,
      "start": 11.3891,
      "duration": 0.0271,
      "velocity": 111,
      "chip": "ym2612"
    },
    {
      "channel": 1,
      "note": 91,
      "start": 11.3898,
      "duration": 0.0114,
      "velocity": 103,
      "chip": "ym2612"
    },
    {
      "channel": 1,
      "note": 96,
      "start": 11.4043,
      "duration": 0.012,
      "velocity": 103,
      "chip": "ym2612"
    },
    {
      "channel": 3,
      "note": 91,
      "start": 11.4107,
      "duration": 0.0096,
      "velocity": 103,
      "chip": "ym2612"
    },
    {
      "channel": 0,
      "note": 60,
      "start": 11.419,
      "duration": 0.0351,
      "velocity": 111,
      "chip": "ym2612"
    },
    {
      "channel": 1,
      "note": 94,
      "start": 11.4199,
      "duration": 0.0343,
      "velocity": 103,
      "chip": "ym2612"
    },
    {
      "channel": 3,
      "note": 91,
      "start": 11.4232,
      "duration": 0.0665,
      "velocity": 103,
      "chip": "ym2612"
    },
    {
      "channel": 0,
      "note": 60,
      "start": 11.4883,
      "duration": 0.0346,
      "velocity": 111,
      "chip": "ym2612"
    },
    {
      "channel": 1,
      "note": 91,
      "start": 11.489,
      "duration": 0.0126,
      "velocity": 103,
      "chip": "ym2612"
    },
    {
      "channel": 2,
      "note": 60,
      "start": 11.4896,
      "duration": 0.1122,
      "velocity": 105,
      "chip": "ym2612"
    },
    {
      "channel": 3,
      "note": 96,
      "start": 11.4947,
      "duration": 0.0104,
      "velocity": 103,
      "chip": "ym2612"
    },
    {
      "channel": 1,
      "note": 89,
      "start": 11.5047,
      "duration": 0.0183,
      "velocity": 103,
      "chip": "ym2612"
    },
    {
      "channel": 3,
      "note": 94,
      "start": 11.5116,
      "duration": 0.0294,
      "velocity": 103,
      "chip": "ym2612"
    },
    {
      "channel": 0,
      "note": 60,
      "start": 11.54,
      "duration": 0.0106,
      "velocity": 111,
      "chip": "ym2612"
    },
    {
      "channel": 1,
      "note": 88,
      "start": 11.5406,
      "duration": 0.0102,
      "velocity": 103,
      "chip": "ym2612"
    },
    {
      "channel": 3,
      "note": 91,
      "start": 11.5468,
      "duration": 0.0102,
      "velocity": 103,
      "chip": "ym2612"
    },
    {
      "channel": 0,
      "note": 59,
      "start": 11.556,
      "duration": 0.0315,
      "velocity": 111,
      "chip": "ym2612"
    },
    {
      "channel": 1,
      "note": 89,
      "start": 11.5566,
      "duration": 0.0136,
      "velocity": 103,
      "chip": "ym2612"
    },
    {
      "channel": 3,
      "note": 89,
      "start": 11.563,
      "duration": 0.014,
      "velocity": 103,
      "chip": "ym2612"
    },
    {
      "channel": 1,
      "note": 91,
      "start": 11.5766,
      "duration": 0.0111,
      "velocity": 103,
      "chip": "ym2612"
    },
    {
      "channel": 3,
      "note": 88,
      "start": 11.5802,
      "duration": 0.0116,
      "velocity": 103,
      "chip": "ym2612"
    },
    {
      "channel": 0,
      "note": 59,
      "start": 11.5907,
      "duration": 0.0103,
      "velocity": 111,
      "chip": "ym2612"
    },
    {
      "channel": 1,
      "note": 93,
      "start": 11.5913,
      "duration": 0.0099,
      "velocity": 103,
      "chip": "ym2612"
    },
    {
      "channel": 3,
      "note": 89,
      "start": 11.5973,
      "duration": 0.0112,
      "velocity": 103,
      "chip": "ym2612"
    },
    {
      "channel": 0,
      "note": 48,
      "start": 11.6071,
      "duration": 0.0143,
      "velocity": 111,
      "chip": "ym2612"
    },
    {
      "channel": 1,
      "note": 94,
      "start": 11.6077,
      "duration": 0.0139,
      "velocity": 103,
      "chip": "ym2612"
    },
    {
      "channel": 2,
      "note": 60,
      "start": 11.6083,
      "duration": 0.0497,
      "velocity": 105,
      "chip": "ym2612"
    },
    {
      "channel": 3,
      "note": 91,
      "start": 11.615,
      "duration": 0.0132,
      "velocity": 103,
      "chip": "ym2612"
    },
    {
      "channel": 0,
      "note": 48,
      "start": 11.6271,
      "duration": 0.013,
      "velocity": 111,
      "chip": "ym2612"
    },
    {
      "channel": 1,
      "note": 96,
      "start": 11.6277,
      "duration": 0.0126,
      "velocity": 103,
      "chip": "ym2612"
    },
    {
      "channel": 3,
      "note": 93,
      "start": 11.634,
      "duration": 0.01,
      "velocity": 103,
      "chip": "ym2612"
    },
    {
      "channel": 0,
      "note": 48,
      "start": 11.643,
      "duration": 0.0146,
      "velocity": 111,
      "chip": "ym2612"
    },
    {
      "channel": 1,
      "note": 96,
      "start": 11.6436,
      "duration": 0.0141,
      "velocity": 103,
      "chip": "ym2612"
    },
    {
      "channel": 3,
      "note": 94,
      "start": 11.6516,
      "duration": 0.0103,
      "velocity": 103,
      "chip": "ym2612"
    },
    {
      "channel": 0,
      "note": 49,
      "start": 11.6605,
      "duration": 0.0395,
      "velocity": 111,
      "chip": "ym2612"
    },
    {
      "channel": 1,
      "note": 96,
      "start": 11.6611,
      "duration": 0.039,
      "velocity": 103,
      "chip": "ym2612"
    },
    {
      "channel": 2,
      "note": 61,
      "start": 11.6617,
      "duration": 0.0386,
      "velocity": 105,
      "chip": "ym2612"
    },
    {
      "channel": 3,
      "note": 96,
      "start": 11.6664,
      "duration": 0.0131,
      "velocity": 103,
      "chip": "ym2612"
    },
    {
      "channel": 3,
      "note": 96,
      "start": 11.6825,
      "duration": 0.0077,
      "velocity": 103,
      "chip": "ym2612"
    },
    {
      "channel": 3,
      "note": 96,
      "start": 11.6946,
      "duration": 0.0622,
      "velocity": 103,
      "chip": "ym2612"
    },
    {
      "channel": 0,
      "note": 50,
      "start": 11.7029,
      "duration": 0.0353,
      "velocity": 111,
      "chip": "ym2612"
    },
    {
      "channel": 1,
      "note": 97,
      "start": 11.704,
      "duration": 0.0126,
      "velocity": 103,
      "chip": "ym2612"
    },
    {
      "channel": 2,
      "note": 62,
      "start": 11.7049,
      "duration": 0.0123,
      "velocity": 105,
      "chip": "ym2612"
    },
    {
      "channel": 1,
      "note": 86,
      "start": 11.7215,
      "duration": 0.0171,
      "velocity": 103,
      "chip": "ym2612"
    },
    {
      "channel": 2,
      "note": 62,
      "start": 11.722,
      "duration": 0.0167,
      "velocity": 105,
      "chip": "ym2612"
    },
    {
      "channel": 0,
      "note": 50,
      "start": 11.7554,
      "duration": 0.0137,
      "velocity": 111,
      "chip": "ym2612"
    },
    {
      "channel": 1,
      "note": 86,
      "start": 11.7561,
      "duration": 0.0132,
      "velocity": 103,
      "chip": "ym2612"
    },
    {
      "channel": 2,
      "note": 62,
      "start": 11.7568,
      "duration": 0.0128,
      "velocity": 105,
      "chip": "ym2612"
    },
    {
      "channel": 3,
      "note": 97,
      "start": 11.763,
      "duration": 0.0107,
      "velocity": 103,
      "chip": "ym2612"
    },
    {
      "channel": 0,
      "note": 50,
      "start": 11.7722,
      "duration": 0.0264,
      "velocity": 111,
      "chip": "ym2612"
    },
    {
      "channel": 1,
      "note": 86,
      "start": 11.7729,
      "duration": 0.0817,
      "velocity": 103,
      "chip": "ym2612"
    },
    {
      "channel": 2,
      "note": 62,
      "start": 11.7736,
      "duration": 0.0812,
      "velocity": 105,
      "chip": "ym2612"
    },
    {
      "channel": 3,
      "note": 86,
      "start": 11.7812,
      "duration": 0.009,
      "velocity": 103,
      "chip": "ym2612"
    },
    {
      "channel": 3,
      "note": 86,
      "start": 11.7933,
      "duration": 0.0083,
      "velocity": 103,
      "chip": "ym2612"
    },
    {
      "channel": 0,
      "note": 50,
      "start": 11.8011,
      "duration": 0.0534,
      "velocity": 111,
      "chip": "ym2612"
    },
    {
      "channel": 3,
      "note": 86,
      "start": 11.8056,
      "duration": 0.1372,
      "velocity": 103,
      "chip": "ym2612"
    },
    {
      "channel": 0,
      "note": 48,
      "start": 11.8716,
      "duration": 0.0358,
      "velocity": 111,
      "chip": "ym2612"
    },
    {
      "channel": 1,
      "note": 86,
      "start": 11.8727,
      "duration": 0.0109,
      "velocity": 103,
      "chip": "ym2612"
    },
    {
      "channel": 2,
      "note": 60,
      "start": 11.8732,
      "duration": 0.0113,
      "velocity": 105,
      "chip": "ym2612"
    },
    {
      "channel": 1,
      "note": 84,
      "start": 11.8889,
      "duration": 0.0187,
      "velocity": 103,
      "chip": "ym2612"
    },
    {
      "channel": 2,
      "note": 60,
      "start": 11.8895,
      "duration": 0.0183,
      "velocity": 105,
      "chip": "ym2612"
    },
    {
      "channel": 0,
      "note": 48,
      "start": 11.9413,
      "duration": 0.0114,
      "velocity": 111,
      "chip": "ym2612"
    },
    {
      "channel": 1,
      "note": 84,
      "start": 11.9421,
      "duration": 0.0109,
      "velocity": 103,
      "chip": "ym2612"
    },
    {
      "channel": 2,
      "note": 60,
      "start": 11.9427,
      "duration": 0.0105,
      "velocity": 105,
      "chip": "ym2612"
    },
    {
      "channel": 3,
      "note": 86,
      "start": 11.9467,
      "duration": 0.0103,
      "velocity": 103,
      "chip": "ym2612"
    },
    {
      "channel": 0,
      "note": 48,
      "start": 11.9556,
      "duration": 0.0265,
      "velocity": 111,
      "chip": "ym2612"
    },
    {
      "channel": 1,
      "note": 84,
      "start": 11.9563,
      "duration": 0.0822,
      "velocity": 103,
      "chip": "ym2612"
    },
    {
      "channel": 2,
      "note": 60,
      "start": 11.9568,
      "duration": 0.0819,
      "velocity": 105,
      "chip": "ym2612"
    },
    {
      "channel": 3,
      "note": 84,
      "start": 11.9646,
      "duration": 0.0084,
      "velocity": 103,
      "chip": "ym2612"
    },
    {
      "channel": 3,
      "note": 84,
      "start": 11.9759,
      "duration": 0.0105,
      "velocity": 103,
      "chip": "ym2612"
    },
    {
      "channel": 0,
      "note": 48,
      "start": 11.9859,
      "duration": 0.0524,
      "velocity": 111,
      "chip": "ym2612"
    },
    {
      "channel": 3,
      "note": 84,
      "start": 11.9892,
      "duration": 0.1367,
      "velocity": 103,
      "chip": "ym2612"
    },
    {
      "channel": 0,
      "note": 50,
      "start": 12.0554,
      "duration": 0.035,
      "velocity": 111,
      "chip": "ym2612"
    },
    {
      "channel": 1,
      "note": 84,
      "start": 12.0561,
      "duration": 0.0125,
      "velocity": 103,
      "chip": "ym2612"
    },
    {
      "channel": 2,
      "note": 62,
      "start": 12.0567,
      "duration": 0.0124,
      "velocity": 105,
      "chip": "ym2612"
    },
    {
      "channel": 1,
      "note": 86,
      "start": 12.0716,
      "duration": 0.0191,
      "velocity": 103,
      "chip": "ym2612"
    },
    {
      "channel": 2,
      "note": 62,
      "start": 12.0721,
      "duration": 0.0187,
      "velocity": 105,
      "chip": "ym2612"
    },
    {
      "channel": 0,
      "note": 50,
      "start": 12.1244,
      "duration": 0.0114,
      "velocity": 111,
      "chip": "ym2612"
    },
    {
      "channel": 1,
      "note": 86,
      "start": 12.1251,
      "duration": 0.011,
      "velocity": 103,
      "chip": "ym2612"
    },
    {
      "channel": 2,
      "note": 62,
      "start": 12.1257,
      "duration": 0.0105,
      "velocity": 105,
      "chip": "ym2612"
    },
    {
      "channel": 3,
      "note": 84,
      "start": 12.1297,
      "duration": 0.0102,
      "velocity": 103,
      "chip": "ym2612"
    },
    {
      "channel": 0,
      "note": 50,
      "start": 12.1385,
      "duration": 0.0272,
      "velocity": 111,
      "chip": "ym2612"
    },
    {
      "channel": 1,
      "note": 86,
      "start": 12.1392,
      "duration": 0.0826,
      "velocity": 103,
      "chip": "ym2612"
    },
    {
      "channel": 2,
      "note": 62,
      "start": 12.1398,
      "duration": 0.0822,
      "velocity": 105,
      "chip": "ym2612"
    },
    {
      "channel": 3,
      "note": 86,
      "start": 12.1478,
      "duration": 0.0087,
      "velocity": 103,
      "chip": "ym2612"
    },
    {
      "channel": 3,
      "note": 86,
      "start": 12.1595,
      "duration": 0.0105,
      "velocity": 103,
      "chip": "ym2612"
    },
    {
      "channel": 0,
      "note": 50,
      "start": 12.1694,
      "duration": 0.0522,
      "velocity": 111,
      "chip": "ym2612"
    },
    {
      "channel": 3,
      "note": 86,
      "start": 12.1724,
      "duration": 0.0993,
      "velocity": 103,
      "chip": "ym2612"
    },
    {
      "channel": 0,
      "note": 53,
      "start": 12.2387,
      "duration": 0.0273,
      "velocity": 111,
      "chip": "ym2612"
    },
    {
      "channel": 1,
      "note": 86,
      "start": 12.2394,
      "duration": 0.0138,
      "velocity": 103,
      "chip": "ym2612"
    },
    {
      "channel": 2,
      "note": 65,
      "start": 12.24,
      "duration": 0.0138,
      "velocity": 105,
      "chip": "ym2612"
    },
    {
      "channel": 1,
      "note": 89,
      "start": 12.2563,
      "duration": 0.0098,
      "velocity": 103,
      "chip": "ym2612"
    },
    {
      "channel": 2,
      "note": 65,
      "start": 12.2568,
      "duration": 0.0095,
      "velocity": 105,
      "chip": "ym2612"
    },
    {
      "channel": 0,
      "note": 53,
      "start": 12.2702,
      "duration": 0.0118,
      "velocity": 111,
      "chip": "ym2612"
    },
    {
      "channel": 1,
      "note": 89,
      "start": 12.271,
      "duration": 0.0112,
      "velocity": 103,
      "chip": "ym2612"
    },
    {
      "channel": 2,
      "note": 65,
      "start": 12.2716,
      "duration": 0.0109,
      "velocity": 105,
      "chip": "ym2612"
    },
    {
      "channel": 3,
      "note": 86,
      "start": 12.2759,
      "duration": 0.0105,
      "velocity": 103,
      "chip": "ym2612"
    },
    {
      "channel": 0,
      "note": 53,
      "start": 12.2849,
      "duration": 0.0273,
      "velocity": 111,
      "chip": "ym2612"
    },
    {
      "channel": 1,
      "note": 89,
      "start": 12.2857,
      "duration": 0.0821,
      "velocity": 103,
      "chip": "ym2612"
    },
    {
      "channel": 2,
      "note": 65,
      "start": 12.2863,
      "duration": 0.0817,
      "velocity": 105,
      "chip": "ym2612"
    },
    {
      "channel": 3,
      "note": 89,
      "start": 12.2944,
      "duration": 0.009,
      "velocity": 103,
      "chip": "ym2612"
    },
    {
      "channel": 3,
      "note": 89,
      "start": 12.308,
      "duration": 0.008,
      "velocity": 103,
      "chip": "ym2612"
    },
    {
      "channel": 0,
      "note": 53,
      "start": 12.3155,
      "duration": 0.0521,
      "velocity": 111,
      "chip": "ym2612"
    },
    {
      "channel": 3,
      "note": 89,
      "start": 12.3188,
      "duration": 0.1365,
      "velocity": 103,
      "chip": "ym2612"
    },
    {
      "channel": 0,
      "note": 50,
      "start": 12.4015,
      "duration": 0.0347,
      "velocity": 111,
      "chip": "ym2612"
    },
    {
      "channel": 1,
      "note": 89,
      "start": 12.4022,
      "duration": 0.0105,
      "velocity": 103,
      "chip": "ym2612"
    },
    {
      "channel": 2,
      "note": 62,
      "start": 12.4028,
      "duration": 0.0105,
      "velocity": 105,
      "chip": "ym2612"
    },
    {
      "channel": 1,
      "note": 86,
      "start": 12.4154,
      "duration": 0.0212,
      "velocity": 103,
      "chip": "ym2612"
    },
    {
      "channel": 2,
      "note": 62,
      "start": 12.4159,
      "duration": 0.0208,
      "velocity": 105,
      "chip": "ym2612"
    },
    {
      "channel": 0,
      "note": 50,
      "start": 12.4534,
      "duration": 0.0117,
      "velocity": 111,
      "chip": "ym2612"
    },
    {
      "channel": 1,
      "note": 86,
      "start": 12.4542,
      "duration": 0.0111,
      "velocity": 103,
      "chip": "ym2612"
    },
    {
      "channel": 2,
      "note": 62,
      "start": 12.4551,
      "duration": 0.0104,
      "velocity": 105,
      "chip": "ym2612"
    },
    {
      "channel": 3,
      "note": 89,
      "start": 12.4591,
      "duration": 0.0128,
      "velocity": 103,
      "chip": "ym2612"
    },
    {
      "channel": 0,
      "note": 50,
      "start": 12.4701,
      "duration": 0.0271,
      "velocity": 111,
      "chip": "ym2612"
    },
    {
      "channel": 1,
      "note": 86,
      "start": 12.4711,
      "duration": 0.0652,
      "velocity": 103,
      "chip": "ym2612"
    },
    {
      "channel": 2,
      "note": 62,
      "start": 12.4718,
      "duration": 0.0648,
      "velocity": 105,
      "chip": "ym2612"
    },
    {
      "channel": 3,
      "note": 86,
      "start": 12.4775,
      "duration": 0.0091,
      "velocity": 103,
      "chip": "ym2612"
    },
    {
      "channel": 3,
      "note": 86,
      "start": 12.4917,
      "duration": 0.0083,
      "velocity": 103,
      "chip": "ym2612"
    },
    {
      "channel": 0,
      "note": 50,
      "start": 12.4993,
      "duration": 0.0368,
      "velocity": 111,
      "chip": "ym2612"
    },
    {
      "channel": 3,
      "note": 86,
      "start": 12.5022,
      "duration": 0.1212,
      "velocity": 103,
      "chip": "ym2612"
    },
    {
      "channel": 0,
      "note": 48,
      "start": 12.5701,
      "duration": 0.0346,
      "velocity": 111,
      "chip": "ym2612"
    },
    {
      "channel": 1,
      "note": 86,
      "start": 12.5708,
      "duration": 0.0107,
      "velocity": 103,
      "chip": "ym2612"
    },
    {
      "channel": 2,
      "note": 60,
      "start": 12.5714,
      "duration": 0.0107,
      "velocity": 105,
      "chip": "ym2612"
    },
    {
      "channel": 1,
      "note": 84,
      "start": 12.5845,
      "duration": 0.0204,
      "velocity": 103,
      "chip": "ym2612"
    },
    {
      "channel": 2,
      "note": 60,
      "start": 12.5852,
      "duration": 0.0199,
      "velocity": 105,
      "chip": "ym2612"
    },
    {
      "channel": 0,
      "note": 48,
      "start": 12.6218,
      "duration": 0.011,
      "velocity": 111,
      "chip": "ym2612"
    },
    {
      "channel": 1,
      "note": 84,
      "start": 12.6226,
      "duration": 0.0105,
      "velocity": 103,
      "chip": "ym2612"
    },
    {
      "channel": 2,
      "note": 60,
      "start": 12.6232,
      "duration": 0.0101,
      "velocity": 105,
      "chip": "ym2612"
    },
    {
      "channel": 3,
      "note": 86,
      "start": 12.6272,
      "duration": 0.0118,
      "velocity": 103,
      "chip": "ym2612"
    },
    {
      "channel": 0,
      "note": 48,
      "start": 12.6376,
      "duration": 0.0256,
      "velocity": 111,
      "chip": "ym2612"
    },
    {
      "channel": 1,
      "note": 84,
      "start": 12.6383,
      "duration": 0.0312,
      "velocity": 103,
      "chip": "ym2612"
    },
    {
      "channel": 2,
      "note": 60,
      "start": 12.6389,
      "duration": 0.0308,
      "velocity": 105,
      "chip": "ym2612"
    },
    {
      "channel": 3,
      "note": 84,
      "start": 12.6447,
      "duration": 0.0086,
      "velocity": 103,
      "chip": "ym2612"
    },
    {
      "channel": 3,
      "note": 84,
      "start": 12.658,
      "duration": 0.0078,
      "velocity": 103,
      "chip": "ym2612"
    },
    {
      "channel": 0,
      "note": 48,
      "start": 12.6652,
      "duration": 0.0376,
      "velocity": 111,
      "chip": "ym2612"
    },
    {
      "channel": 3,
      "note": 84,
      "start": 12.6705,
      "duration": 0.0897,
      "velocity": 103,
      "chip": "ym2612"
    },
    {
      "channel": 0,
      "note": 51,
      "start": 12.7367,
      "duration": 0.0116,
      "velocity": 111,
      "chip": "ym2612"
    },
    {
      "channel": 1,
      "note": 84,
      "start": 12.7375,
      "duration": 0.0111,
      "velocity": 103,
      "chip": "ym2612"
    },
    {
      "channel": 2,
      "note": 62,
      "start": 12.7381,
      "duration": 0.011,
      "velocity": 105,
      "chip": "ym2612"
    },
    {
      "channel": 0,
      "note": 48,
      "start": 12.7531,
      "duration": 0.0102,
      "velocity": 111,
      "chip": "ym2612"
    },
    {
      "channel": 1,
      "note": 86,
      "start": 12.7538,
      "duration": 0.0097,
      "velocity": 103,
      "chip": "ym2612"
    },
    {
      "channel": 2,
      "note": 60,
      "start": 12.7545,
      "duration": 0.0096,
      "velocity": 105,
      "chip": "ym2612"
    },
    {
      "channel": 0,
      "note": 50,
      "start": 12.7662,
      "duration": 0.0117,
      "velocity": 111,
      "chip": "ym2612"
    },
    {
      "channel": 1,
      "note": 84,
      "start": 12.7669,
      "duration": 0.0113,
      "velocity": 103,
      "chip": "ym2612"
    },
    {
      "channel": 2,
      "note": 62,
      "start": 12.7676,
      "duration": 0.0112,
      "velocity": 105,
      "chip": "ym2612"
    },
    {
      "channel": 3,
      "note": 84,
      "start": 12.7734,
      "duration": 0.0116,
      "velocity": 103,
      "chip": "ym2612"
    },
    {
      "channel": 0,
      "note": 53,
      "start": 12.7835,
      "duration": 0.0145,
      "velocity": 111,
      "chip": "ym2612"
    },
    {
      "channel": 1,
      "note": 86,
      "start": 12.7843,
      "duration": 0.0139,
      "velocity": 103,
      "chip": "ym2612"
    },
    {
      "channel": 2,
      "note": 65,
      "start": 12.7849,
      "duration": 0.0139,
      "velocity": 105,
      "chip": "ym2612"
    },
    {
      "channel": 3,
      "note": 86,
      "start": 12.7911,
      "duration": 0.014,
      "velocity": 103,
      "chip": "ym2612"
    },
    {
      "channel": 0,
      "note": 55,
      "start": 12.8036,
      "duration": 0.0128,
      "velocity": 111,
      "chip": "ym2612"
    },
    {
      "channel": 1,
      "note": 89,
      "start": 12.8043,
      "duration": 0.0122,
      "velocity": 103,
      "chip": "ym2612"
    },
    {
      "channel": 2,
      "note": 67,
      "start": 12.8049,
      "duration": 0.0122,
      "velocity": 105,
      "chip": "ym2612"
    },
    {
      "channel": 3,
      "note": 84,
      "start": 12.8092,
      "duration": 0.0115,
      "velocity": 103,
      "chip": "ym2612"
    },
    {
      "channel": 0,
      "note": 56,
      "start": 12.8192,
      "duration": 0.0146,
      "velocity": 111,
      "chip": "ym2612"
    },
    {
      "channel": 1,
      "note": 91,
      "start": 12.8199,
      "duration": 0.0141,
      "velocity": 103,
      "chip": "ym2612"
    },
    {
      "channel": 2,
      "note": 68,
      "start": 12.8205,
      "duration": 0.0138,
      "velocity": 105,
      "chip": "ym2612"
    },
    {
      "channel": 3,
      "note": 86,
      "start": 12.8273,
      "duration": 0.013,
      "velocity": 103,
      "chip": "ym2612"
    },
    {
      "channel": 0,
      "note": 57,
      "start": 12.8369,
      "duration": 0.7785,
      "velocity": 111,
      "chip": "ym2612"
    },
    {
      "channel": 1,
      "note": 92,
      "start": 12.838,
      "duration": 0.8278,
      "velocity": 103,
      "chip": "ym2612"
    },
    {
      "channel": 2,
      "note": 57,
      "start": 12.8402,
      "duration": 0.8261,
      "velocity": 108,
      "chip": "ym2612"
    },
    {
      "channel": 3,
      "note": 89,
      "start": 12.8454,
      "duration": 0.0122,
      "velocity": 103,
      "chip": "ym2612"
    },
    {
      "channel": 3,
      "note": 91,
      "start": 12.861,
      "duration": 0.0093,
      "velocity": 103,
      "chip": "ym2612"
    },
    {
      "channel": 3,
      "note": 92,
      "start": 12.8758,
      "duration": 0.7909,
      "velocity": 103,
      "chip": "ym2612"
    },
    {
      "channel": 0,
      "note": 50,
      "start": 13.6833,
      "duration": 0.0433,
      "velocity": 111,
      "chip": "ym2612"
    },
    {
      "channel": 1,
      "note": 62,
      "start": 13.6859,
      "duration": 0.0269,
      "velocity": 86,
      "chip": "ym2612"
    },
    {
      "channel": 2,
      "note": 50,
      "start": 13.6874,
      "duration": 0.0256,
      "velocity": 108,
      "chip": "ym2612"
    },
    {
      "channel": 3,
      "note": 86,
      "start": 13.6893,
      "duration": 0.0239,
      "velocity": 103,
      "chip": "ym2612"
    },
    {
      "channel": 1,
      "note": 62,
      "start": 13.7163,
      "duration": 0.0104,
      "velocity": 86,
      "chip": "ym2612"
    },
    {
      "channel": 2,
      "note": 50,
      "start": 13.7169,
      "duration": 0.0101,
      "velocity": 108,
      "chip": "ym2612"
    },
    {
      "channel": 3,
      "note": 50,
      "start": 13.7238,
      "duration": 28.4422,
      "velocity": 108,
      "chip": "ym2612"
    }
  ]
}