{
  "track_name": "03 - Sewers",
  "duration_sec": 105.016,
  "sample_rate": 44100,
  "note_count": 1404,
  "unique_pitches": 23,
  "pitch_range": 52,
  "avg_note_duration": 0.1566,
  "reconstruction_stats": {
    "notes_reconstructed": 1404,
    "keyon_events": 1404,
    "keyoff_events": 1404,
    "orphan_keyons": 0,
    "unique_pitches": 23,
    "pitch_range": 52,
    "avg_duration_sec": 0.1566
  },
  "metadata": {
    "source": "S\\Spider-Man - The Animated Series\\03 - Sewers.vgm"
  },
  "notes": [
    {
      "channel": 5,
      "note": 50,
      "start": 0.0022,
      "duration": 0.4435,
      "velocity": 114,
      "chip": "ym2612"
    },
    {
      "channel": 1,
      "note": 33,
      "start": 0.0105,
      "duration": 0.1351,
      "velocity": 67,
      "chip": "ym2612"
    },
    {
      "channel": 2,
      "note": 39,
      "start": 0.0158,
      "duration": 0.024,
      "velocity": 119,
      "chip": "ym2612"
    },
    {
      "channel": 0,
      "note": 68,
      "start": 0.0217,
      "duration": 0.0405,
      "velocity": 111,
      "chip": "ym2612"
    },
    {
      "channel": 3,
      "note": 49,
      "start": 0.0274,
      "duration": 0.0683,
      "velocity": 120,
      "chip": "ym2612"
    },
    {
      "channel": 4,
      "note": 73,
      "start": 0.0335,
      "duration": 4.5454,
      "velocity": 99,
      "chip": "ym2612"
    },
    {
      "channel": 2,
      "note": 39,
      "start": 0.3152,
      "duration": 0.0306,
      "velocity": 119,
      "chip": "ym2612"
    },
    {
      "channel": 3,
      "note": 49,
      "start": 0.3186,
      "duration": 0.0437,
      "velocity": 120,
      "chip": "ym2612"
    },
    {
      "channel": 5,
      "note": 47,
      "start": 0.4826,
      "duration": 0.1298,
      "velocity": 114,
      "chip": "ym2612"
    },
    {
      "channel": 1,
      "note": 33,
      "start": 0.4851,
      "duration": 0.1604,
      "velocity": 67,
      "chip": "ym2612"
    },
    {
      "channel": 2,
      "note": 39,
      "start": 0.4878,
      "duration": 0.0247,
      "velocity": 119,
      "chip": "ym2612"
    },
    {
      "channel": 3,
      "note": 49,
      "start": 0.4907,
      "duration": 0.0884,
      "velocity": 120,
      "chip": "ym2612"
    },
    {
      "channel": 5,
      "note": 50,
      "start": 0.649,
      "duration": 0.2966,
      "velocity": 114,
      "chip": "ym2612"
    },
    {
      "channel": 0,
      "note": 51,
      "start": 0.6519,
      "duration": 0.0116,
      "velocity": 107,
      "chip": "ym2612"
    },
    {
      "channel": 2,
      "note": 39,
      "start": 0.6545,
      "duration": 0.0093,
      "velocity": 119,
      "chip": "ym2612"
    },
    {
      "channel": 3,
      "note": 68,
      "start": 0.6575,
      "duration": 0.0715,
      "velocity": 111,
      "chip": "ym2612"
    },
    {
      "channel": 1,
      "note": 49,
      "start": 0.6605,
      "duration": 0.1185,
      "velocity": 120,
      "chip": "ym2612"
    },
    {
      "channel": 5,
      "note": 49,
      "start": 0.9659,
      "duration": 0.1465,
      "velocity": 114,
      "chip": "ym2612"
    },
    {
      "channel": 0,
      "note": 33,
      "start": 0.9692,
      "duration": 0.1597,
      "velocity": 67,
      "chip": "ym2612"
    },
    {
      "channel": 2,
      "note": 39,
      "start": 0.9716,
      "duration": 0.0242,
      "velocity": 119,
      "chip": "ym2612"
    },
    {
      "channel": 1,
      "note": 49,
      "start": 0.9746,
      "duration": 0.0544,
      "velocity": 120,
      "chip": "ym2612"
    },
    {
      "channel": 1,
      "note": 49,
      "start": 1.116,
      "duration": 0.1296,
      "velocity": 120,
      "chip": "ym2612"
    },
    {
      "channel": 2,
      "note": 39,
      "start": 1.132,
      "duration": 0.0305,
      "velocity": 119,
      "chip": "ym2612"
    },
    {
      "channel": 2,
      "note": 39,
      "start": 1.2986,
      "duration": 0.0305,
      "velocity": 119,
      "chip": "ym2612"
    },
    {
      "channel": 3,
      "note": 68,
      "start": 1.3014,
      "duration": 0.0776,
      "velocity": 111,
      "chip": "ym2612"
    },
    {
      "channel": 1,
      "note": 49,
      "start": 1.3041,
      "duration": 0.1247,
      "velocity": 120,
      "chip": "ym2612"
    },
    {
      "channel": 2,
      "note": 39,
      "start": 1.6321,
      "duration": 0.0137,
      "velocity": 119,
      "chip": "ym2612"
    },
    {
      "channel": 1,
      "note": 49,
      "start": 1.6354,
      "duration": 0.0436,
      "velocity": 120,
      "chip": "ym2612"
    },
    {
      "channel": 1,
      "note": 49,
      "start": 1.766,
      "duration": 0.1297,
      "velocity": 120,
      "chip": "ym2612"
    },
    {
      "channel": 2,
      "note": 39,
      "start": 1.7985,
      "duration": 0.0139,
      "velocity": 119,
      "chip": "ym2612"
    },
    {
      "channel": 1,
      "note": 49,
      "start": 1.9326,
      "duration": 0.163,
      "velocity": 120,
      "chip": "ym2612"
    },
    {
      "channel": 5,
      "note": 51,
      "start": 1.966,
      "duration": 0.0131,
      "velocity": 107,
      "chip": "ym2612"
    },
    {
      "channel": 2,
      "note": 39,
      "start": 1.9685,
      "duration": 0.0106,
      "velocity": 119,
      "chip": "ym2612"
    },
    {
      "channel": 3,
      "note": 68,
      "start": 1.9717,
      "duration": 0.0572,
      "velocity": 111,
      "chip": "ym2612"
    },
    {
      "channel": 2,
      "note": 39,
      "start": 2.282,
      "duration": 0.0304,
      "velocity": 119,
      "chip": "ym2612"
    },
    {
      "channel": 1,
      "note": 49,
      "start": 2.2849,
      "duration": 0.0773,
      "velocity": 120,
      "chip": "ym2612"
    },
    {
      "channel": 1,
      "note": 49,
      "start": 2.416,
      "duration": 0.1463,
      "velocity": 120,
      "chip": "ym2612"
    },
    {
      "channel": 2,
      "note": 39,
      "start": 2.4485,
      "duration": 0.0306,
      "velocity": 119,
      "chip": "ym2612"
    },
    {
      "channel": 1,
      "note": 49,
      "start": 2.5826,
      "duration": 0.163,
      "velocity": 120,
      "chip": "ym2612"
    },
    {
      "channel": 2,
      "note": 39,
      "start": 2.6156,
      "duration": 0.0301,
      "velocity": 119,
      "chip": "ym2612"
    },
    {
      "channel": 3,
      "note": 68,
      "start": 2.6185,
      "duration": 0.0772,
      "velocity": 111,
      "chip": "ym2612"
    },
    {
      "channel": 1,
      "note": 49,
      "start": 2.9163,
      "duration": 0.1127,
      "velocity": 120,
      "chip": "ym2612"
    },
    {
      "channel": 0,
      "note": 33,
      "start": 2.9486,
      "duration": 0.1469,
      "velocity": 67,
      "chip": "ym2612"
    },
    {
      "channel": 2,
      "note": 39,
      "start": 2.951,
      "duration": 0.0115,
      "velocity": 119,
      "chip": "ym2612"
    },
    {
      "channel": 1,
      "note": 49,
      "start": 3.0824,
      "duration": 0.1298,
      "velocity": 120,
      "chip": "ym2612"
    },
    {
      "channel": 2,
      "note": 39,
      "start": 3.0985,
      "duration": 0.0306,
      "velocity": 119,
      "chip": "ym2612"
    },
    {
      "channel": 1,
      "note": 49,
      "start": 3.2493,
      "duration": 0.1629,
      "velocity": 120,
      "chip": "ym2612"
    },
    {
      "channel": 2,
      "note": 39,
      "start": 3.2653,
      "duration": 0.0305,
      "velocity": 119,
      "chip": "ym2612"
    },
    {
      "channel": 3,
      "note": 68,
      "start": 3.2681,
      "duration": 0.0775,
      "velocity": 111,
      "chip": "ym2612"
    },
    {
      "channel": 1,
      "note": 49,
      "start": 3.5659,
      "duration": 0.113,
      "velocity": 120,
      "chip": "ym2612"
    },
    {
      "channel": 0,
      "note": 33,
      "start": 3.5985,
      "duration": 0.1637,
      "velocity": 67,
      "chip": "ym2612"
    },
    {
      "channel": 2,
      "note": 39,
      "start": 3.601,
      "duration": 0.0282,
      "velocity": 119,
      "chip": "ym2612"
    },
    {
      "channel": 1,
      "note": 49,
      "start": 3.7324,
      "duration": 0.1632,
      "velocity": 120,
      "chip": "ym2612"
    },
    {
      "channel": 2,
      "note": 39,
      "start": 3.7653,
      "duration": 0.0138,
      "velocity": 119,
      "chip": "ym2612"
    },
    {
      "channel": 1,
      "note": 49,
      "start": 3.8994,
      "duration": 0.1962,
      "velocity": 120,
      "chip": "ym2612"
    },
    {
      "channel": 2,
      "note": 39,
      "start": 3.932,
      "duration": 0.0138,
      "velocity": 119,
      "chip": "ym2612"
    },
    {
      "channel": 3,
      "note": 68,
      "start": 3.9348,
      "duration": 0.0774,
      "velocity": 111,
      "chip": "ym2612"
    },
    {
      "channel": 1,
      "note": 49,
      "start": 4.233,
      "duration": 0.096,
      "velocity": 120,
      "chip": "ym2612"
    },
    {
      "channel": 0,
      "note": 33,
      "start": 4.2485,
      "duration": 0.1637,
      "velocity": 67,
      "chip": "ym2612"
    },
    {
      "channel": 2,
      "note": 39,
      "start": 4.251,
      "duration": 0.0283,
      "velocity": 119,
      "chip": "ym2612"
    },
    {
      "channel": 1,
      "note": 49,
      "start": 4.3992,
      "duration": 0.1298,
      "velocity": 120,
      "chip": "ym2612"
    },
    {
      "channel": 2,
      "note": 39,
      "start": 4.4153,
      "duration": 0.0305,
      "velocity": 119,
      "chip": "ym2612"
    },
    {
      "channel": 1,
      "note": 49,
      "start": 4.5493,
      "duration": 0.1963,
      "velocity": 120,
      "chip": "ym2612"
    },
    {
      "channel": 2,
      "note": 39,
      "start": 4.5823,
      "duration": 0.0302,
      "velocity": 119,
      "chip": "ym2612"
    },
    {
      "channel": 3,
      "note": 68,
      "start": 4.5853,
      "duration": 0.077,
      "velocity": 111,
      "chip": "ym2612"
    },
    {
      "channel": 4,
      "note": 66,
      "start": 4.6334,
      "duration": 0.5456,
      "velocity": 99,
      "chip": "ym2612"
    },
    {
      "channel": 1,
      "note": 49,
      "start": 4.8826,
      "duration": 0.113,
      "velocity": 120,
      "chip": "ym2612"
    },
    {
      "channel": 5,
      "note": 51,
      "start": 4.9154,
      "duration": 0.0137,
      "velocity": 107,
      "chip": "ym2612"
    },
    {
      "channel": 3,
      "note": 61,
      "start": 4.9185,
      "duration": 0.0772,
      "velocity": 111,
      "chip": "ym2612"
    },
    {
      "channel": 1,
      "note": 49,
      "start": 5.0491,
      "duration": 0.1298,
      "velocity": 120,
      "chip": "ym2612"
    },
    {
      "channel": 5,
      "note": 51,
      "start": 5.082,
      "duration": 0.0138,
      "velocity": 107,
      "chip": "ym2612"
    },
    {
      "channel": 1,
      "note": 49,
      "start": 5.216,
      "duration": 0.163,
      "velocity": 120,
      "chip": "ym2612"
    },
    {
      "channel": 4,
      "note": 73,
      "start": 5.2195,
      "duration": 5.1595,
      "velocity": 99,
      "chip": "ym2612"
    },
    {
      "channel": 0,
      "note": 50,
      "start": 5.2323,
      "duration": 0.4632,
      "velocity": 114,
      "chip": "ym2612"
    },
    {
      "channel": 2,
      "note": 33,
      "start": 5.2353,
      "duration": 0.1605,
      "velocity": 67,
      "chip": "ym2612"
    },
    {
      "channel": 3,
      "note": 68,
      "start": 5.2388,
      "duration": 0.0735,
      "velocity": 111,
      "chip": "ym2612"
    },
    {
      "channel": 1,
      "note": 49,
      "start": 5.5497,
      "duration": 0.0959,
      "velocity": 120,
      "chip": "ym2612"
    },
    {
      "channel": 2,
      "note": 39,
      "start": 5.5653,
      "duration": 0.0304,
      "velocity": 119,
      "chip": "ym2612"
    },
    {
      "channel": 1,
      "note": 49,
      "start": 5.6992,
      "duration": 0.1632,
      "velocity": 120,
      "chip": "ym2612"
    },
    {
      "channel": 0,
      "note": 47,
      "start": 5.7322,
      "duration": 0.13,
      "velocity": 114,
      "chip": "ym2612"
    },
    {
      "channel": 5,
      "note": 33,
      "start": 5.7349,
      "duration": 0.1608,
      "velocity": 67,
      "chip": "ym2612"
    },
    {
      "channel": 2,
      "note": 39,
      "start": 5.7372,
      "duration": 0.0252,
      "velocity": 119,
      "chip": "ym2612"
    },
    {
      "channel": 1,
      "note": 49,
      "start": 5.8662,
      "duration": 0.1961,
      "velocity": 120,
      "chip": "ym2612"
    },
    {
      "channel": 0,
      "note": 50,
      "start": 5.8993,
      "duration": 0.2962,
      "velocity": 114,
      "chip": "ym2612"
    },
    {
      "channel": 3,
      "note": 51,
      "start": 5.902,
      "duration": 0.0104,
      "velocity": 107,
      "chip": "ym2612"
    },
    {
      "channel": 2,
      "note": 39,
      "start": 5.9045,
      "duration": 0.0081,
      "velocity": 119,
      "chip": "ym2612"
    },
    {
      "channel": 5,
      "note": 68,
      "start": 5.9075,
      "duration": 0.0716,
      "velocity": 111,
      "chip": "ym2612"
    },
    {
      "channel": 0,
      "note": 49,
      "start": 6.2323,
      "duration": 0.13,
      "velocity": 114,
      "chip": "ym2612"
    },
    {
      "channel": 3,
      "note": 33,
      "start": 6.2353,
      "duration": 0.1437,
      "velocity": 67,
      "chip": "ym2612"
    },
    {
      "channel": 2,
      "note": 39,
      "start": 6.2377,
      "duration": 0.0081,
      "velocity": 119,
      "chip": "ym2612"
    },
    {
      "channel": 1,
      "note": 49,
      "start": 6.2407,
      "duration": 0.0549,
      "velocity": 120,
      "chip": "ym2612"
    },
    {
      "channel": 1,
      "note": 49,
      "start": 6.366,
      "duration": 0.1629,
      "velocity": 120,
      "chip": "ym2612"
    },
    {
      "channel": 2,
      "note": 39,
      "start": 6.3819,
      "duration": 0.0306,
      "velocity": 119,
      "chip": "ym2612"
    },
    {
      "channel": 1,
      "note": 49,
      "start": 6.5326,
      "duration": 0.1464,
      "velocity": 120,
      "chip": "ym2612"
    },
    {
      "channel": 2,
      "note": 39,
      "start": 6.5486,
      "duration": 0.0305,
      "velocity": 119,
      "chip": "ym2612"
    },
    {
      "channel": 5,
      "note": 68,
      "start": 6.5515,
      "duration": 0.0776,
      "velocity": 111,
      "chip": "ym2612"
    },
    {
      "channel": 1,
      "note": 49,
      "start": 6.8496,
      "duration": 0.1126,
      "velocity": 120,
      "chip": "ym2612"
    },
    {
      "channel": 2,
      "note": 39,
      "start": 6.882,
      "duration": 0.0305,
      "velocity": 119,
      "chip": "ym2612"
    },
    {
      "channel": 1,
      "note": 49,
      "start": 7.0158,
      "duration": 0.1298,
      "velocity": 120,
      "chip": "ym2612"
    },
    {
      "channel": 2,
      "note": 39,
      "start": 7.0485,
      "duration": 0.0139,
      "velocity": 119,
      "chip": "ym2612"
    },
    {
      "channel": 1,
      "note": 49,
      "start": 7.1826,
      "duration": 0.1629,
      "velocity": 120,
      "chip": "ym2612"
    },
    {
      "channel": 0,
      "note": 51,
      "start": 7.2155,
      "duration": 0.0135,
      "velocity": 107,
      "chip": "ym2612"
    },
    {
      "channel": 2,
      "note": 39,
      "start": 7.2184,
      "duration": 0.0109,
      "velocity": 119,
      "chip": "ym2612"
    },
    {
      "channel": 5,
      "note": 68,
      "start": 7.2213,
      "duration": 0.0744,
      "velocity": 111,
      "chip": "ym2612"
    },
    {
      "channel": 2,
      "note": 39,
      "start": 7.532,
      "duration": 0.0305,
      "velocity": 119,
      "chip": "ym2612"
    },
    {
      "channel": 1,
      "note": 49,
      "start": 7.5349,
      "duration": 0.0773,
      "velocity": 120,
      "chip": "ym2612"
    },
    {
      "channel": 1,
      "note": 49,
      "start": 7.6825,
      "duration": 0.1296,
      "velocity": 120,
      "chip": "ym2612"
    },
    {
      "channel": 2,
      "note": 39,
      "start": 7.6985,
      "duration": 0.0306,
      "velocity": 119,
      "chip": "ym2612"
    },
    {
      "channel": 2,
      "note": 39,
      "start": 7.8652,
      "duration": 0.0306,
      "velocity": 119,
      "chip": "ym2612"
    },
    {
      "channel": 5,
      "note": 68,
      "start": 7.8681,
      "duration": 0.0776,
      "velocity": 111,
      "chip": "ym2612"
    },
    {
      "channel": 1,
      "note": 49,
      "start": 7.8714,
      "duration": 0.1574,
      "velocity": 120,
      "chip": "ym2612"
    },
    {
      "channel": 3,
      "note": 33,
      "start": 8.1986,
      "duration": 0.1637,
      "velocity": 67,
      "chip": "ym2612"
    },
    {
      "channel": 2,
      "note": 39,
      "start": 8.2011,
      "duration": 0.0115,
      "velocity": 119,
      "chip": "ym2612"
    },
    {
      "channel": 1,
      "note": 49,
      "start": 8.204,
      "duration": 0.0749,
      "velocity": 120,
      "chip": "ym2612"
    },
    {
      "channel": 1,
      "note": 49,
      "start": 8.3326,
      "duration": 0.1629,
      "velocity": 120,
      "chip": "ym2612"
    },
    {
      "channel": 2,
      "note": 39,
      "start": 8.3653,
      "duration": 0.0138,
      "velocity": 119,
      "chip": "ym2612"
    },
    {
      "channel": 2,
      "note": 39,
      "start": 8.5153,
      "duration": 0.0305,
      "velocity": 119,
      "chip": "ym2612"
    },
    {
      "channel": 5,
      "note": 68,
      "start": 8.5182,
      "duration": 0.0776,
      "velocity": 111,
      "chip": "ym2612"
    },
    {
      "channel": 1,
      "note": 49,
      "start": 8.5209,
      "duration": 0.158,
      "velocity": 120,
      "chip": "ym2612"
    },
    {
      "channel": 3,
      "note": 33,
      "start": 8.8485,
      "duration": 0.1638,
      "velocity": 67,
      "chip": "ym2612"
    },
    {
      "channel": 2,
      "note": 39,
      "start": 8.851,
      "duration": 0.028,
      "velocity": 119,
      "chip": "ym2612"
    },
    {
      "channel": 1,
      "note": 49,
      "start": 8.8539,
      "duration": 0.0749,
      "velocity": 120,
      "chip": "ym2612"
    },
    {
      "channel": 2,
      "note": 39,
      "start": 9.0153,
      "duration": 0.0305,
      "velocity": 119,
      "chip": "ym2612"
    },
    {
      "channel": 1,
      "note": 49,
      "start": 9.0181,
      "duration": 0.0941,
      "velocity": 120,
      "chip": "ym2612"
    },
    {
      "channel": 2,
      "note": 39,
      "start": 9.1823,
      "duration": 0.0135,
      "velocity": 119,
      "chip": "ym2612"
    },
    {
      "channel": 5,
      "note": 68,
      "start": 9.1852,
      "duration": 0.0773,
      "velocity": 111,
      "chip": "ym2612"
    },
    {
      "channel": 1,
      "note": 49,
      "start": 9.1884,
      "duration": 0.1238,
      "velocity": 120,
      "chip": "ym2612"
    },
    {
      "channel": 3,
      "note": 33,
      "start": 9.499,
      "duration": 0.1632,
      "velocity": 67,
      "chip": "ym2612"
    },
    {
      "channel": 2,
      "note": 39,
      "start": 9.5015,
      "duration": 0.0276,
      "velocity": 119,
      "chip": "ym2612"
    },
    {
      "channel": 1,
      "note": 49,
      "start": 9.5045,
      "duration": 0.0744,
      "velocity": 120,
      "chip": "ym2612"
    },
    {
      "channel": 2,
      "note": 39,
      "start": 9.6652,
      "duration": 0.0305,
      "velocity": 119,
      "chip": "ym2612"
    },
    {
      "channel": 1,
      "note": 49,
      "start": 9.668,
      "duration": 0.1443,
      "velocity": 120,
      "chip": "ym2612"
    },
    {
      "channel": 2,
      "note": 39,
      "start": 9.832,
      "duration": 0.0305,
      "velocity": 119,
      "chip": "ym2612"
    },
    {
      "channel": 5,
      "note": 68,
      "start": 9.8353,
      "duration": 0.0771,
      "velocity": 111,
      "chip": "ym2612"
    },
    {
      "channel": 1,
      "note": 49,
      "start": 9.8382,
      "duration": 0.1573,
      "velocity": 120,
      "chip": "ym2612"
    },
    {
      "channel": 0,
      "note": 51,
      "start": 10.1651,
      "duration": 0.0137,
      "velocity": 107,
      "chip": "ym2612"
    },
    {
      "channel": 5,
      "note": 61,
      "start": 10.1683,
      "duration": 0.0776,
      "velocity": 111,
      "chip": "ym2612"
    },
    {
      "channel": 1,
      "note": 49,
      "start": 10.1711,
      "duration": 0.0911,
      "velocity": 120,
      "chip": "ym2612"
    },
    {
      "channel": 0,
      "note": 51,
      "start": 10.3318,
      "duration": 0.0137,
      "velocity": 107,
      "chip": "ym2612"
    },
    {
      "channel": 1,
      "note": 49,
      "start": 10.3349,
      "duration": 0.1274,
      "velocity": 120,
      "chip": "ym2612"
    },
    {
      "channel": 4,
      "note": 71,
      "start": 10.4333,
      "duration": 5.3291,
      "velocity": 99,
      "chip": "ym2612"
    },
    {
      "channel": 3,
      "note": 50,
      "start": 10.499,
      "duration": 0.4466,
      "velocity": 114,
      "chip": "ym2612"
    },
    {
      "channel": 2,
      "note": 33,
      "start": 10.502,
      "duration": 0.1438,
      "velocity": 67,
      "chip": "ym2612"
    },
    {
      "channel": 5,
      "note": 68,
      "start": 10.5057,
      "duration": 0.0567,
      "velocity": 111,
      "chip": "ym2612"
    },
    {
      "channel": 1,
      "note": 49,
      "start": 10.5088,
      "duration": 0.0867,
      "velocity": 120,
      "chip": "ym2612"
    },
    {
      "channel": 2,
      "note": 39,
      "start": 10.8152,
      "duration": 0.0306,
      "velocity": 119,
      "chip": "ym2612"
    },
    {
      "channel": 1,
      "note": 49,
      "start": 10.8182,
      "duration": 0.0606,
      "velocity": 120,
      "chip": "ym2612"
    },
    {
      "channel": 3,
      "note": 47,
      "start": 10.9823,
      "duration": 0.1301,
      "velocity": 114,
      "chip": "ym2612"
    },
    {
      "channel": 0,
      "note": 33,
      "start": 10.985,
      "duration": 0.1605,
      "velocity": 67,
      "chip": "ym2612"
    },
    {
      "channel": 2,
      "note": 39,
      "start": 10.9873,
      "duration": 0.0252,
      "velocity": 119,
      "chip": "ym2612"
    },
    {
      "channel": 1,
      "note": 49,
      "start": 10.9901,
      "duration": 0.1056,
      "velocity": 120,
      "chip": "ym2612"
    },
    {
      "channel": 3,
      "note": 50,
      "start": 11.1489,
      "duration": 0.2967,
      "velocity": 114,
      "chip": "ym2612"
    },
    {
      "channel": 5,
      "note": 51,
      "start": 11.152,
      "duration": 0.027,
      "velocity": 107,
      "chip": "ym2612"
    },
    {
      "channel": 2,
      "note": 39,
      "start": 11.1546,
      "duration": 0.0246,
      "velocity": 119,
      "chip": "ym2612"
    },
    {
      "channel": 1,
      "note": 68,
      "start": 11.1576,
      "duration": 0.0713,
      "velocity": 111,
      "chip": "ym2612"
    },
    {
      "channel": 0,
      "note": 49,
      "start": 11.1606,
      "duration": 0.1182,
      "velocity": 120,
      "chip": "ym2612"
    },
    {
      "channel": 3,
      "note": 49,
      "start": 11.4828,
      "duration": 0.1296,
      "velocity": 114,
      "chip": "ym2612"
    },
    {
      "channel": 5,
      "note": 33,
      "start": 11.4858,
      "duration": 0.1433,
      "velocity": 67,
      "chip": "ym2612"
    },
    {
      "channel": 2,
      "note": 39,
      "start": 11.4882,
      "duration": 0.0076,
      "velocity": 119,
      "chip": "ym2612"
    },
    {
      "channel": 0,
      "note": 49,
      "start": 11.4911,
      "duration": 0.0377,
      "velocity": 120,
      "chip": "ym2612"
    },
    {
      "channel": 0,
      "note": 49,
      "start": 11.616,
      "duration": 0.1295,
      "velocity": 120,
      "chip": "ym2612"
    },
    {
      "channel": 2,
      "note": 39,
      "start": 11.632,
      "duration": 0.0305,
      "velocity": 119,
      "chip": "ym2612"
    },
    {
      "channel": 2,
      "note": 39,
      "start": 11.799,
      "duration": 0.0302,
      "velocity": 119,
      "chip": "ym2612"
    },
    {
      "channel": 1,
      "note": 68,
      "start": 11.8018,
      "duration": 0.0772,
      "velocity": 111,
      "chip": "ym2612"
    },
    {
      "channel": 0,
      "note": 49,
      "start": 11.8048,
      "duration": 0.1407,
      "velocity": 120,
      "chip": "ym2612"
    },
    {
      "channel": 2,
      "note": 39,
      "start": 12.132,
      "duration": 0.0305,
      "velocity": 119,
      "chip": "ym2612"
    },
    {
      "channel": 0,
      "note": 49,
      "start": 12.1349,
      "duration": 0.0439,
      "velocity": 120,
      "chip": "ym2612"
    },
    {
      "channel": 0,
      "note": 49,
      "start": 12.2659,
      "duration": 0.1296,
      "velocity": 120,
      "chip": "ym2612"
    },
    {
      "channel": 2,
      "note": 39,
      "start": 12.2985,
      "duration": 0.0139,
      "velocity": 119,
      "chip": "ym2612"
    },
    {
      "channel": 0,
      "note": 49,
      "start": 12.4325,
      "duration": 0.1631,
      "velocity": 120,
      "chip": "ym2612"
    },
    {
      "channel": 3,
      "note": 51,
      "start": 12.4655,
      "duration": 0.0135,
      "velocity": 107,
      "chip": "ym2612"
    },
    {
      "channel": 2,
      "note": 39,
      "start": 12.4681,
      "duration": 0.0112,
      "velocity": 119,
      "chip": "ym2612"
    },
    {
      "channel": 1,
      "note": 68,
      "start": 12.4709,
      "duration": 0.0747,
      "velocity": 111,
      "chip": "ym2612"
    },
    {
      "channel": 2,
      "note": 39,
      "start": 12.782,
      "duration": 0.0305,
      "velocity": 119,
      "chip": "ym2612"
    },
    {
      "channel": 0,
      "note": 49,
      "start": 12.7849,
      "duration": 0.0773,
      "velocity": 120,
      "chip": "ym2612"
    },
    {
      "channel": 0,
      "note": 49,
      "start": 12.9325,
      "duration": 0.1298,
      "velocity": 120,
      "chip": "ym2612"
    },
    {
      "channel": 2,
      "note": 39,
      "start": 12.9485,
      "duration": 0.0306,
      "velocity": 119,
      "chip": "ym2612"
    },
    {
      "channel": 0,
      "note": 49,
      "start": 13.083,
      "duration": 0.1625,
      "velocity": 120,
      "chip": "ym2612"
    },
    {
      "channel": 2,
      "note": 39,
      "start": 13.1153,
      "duration": 0.0305,
      "velocity": 119,
      "chip": "ym2612"
    },
    {
      "channel": 1,
      "note": 68,
      "start": 13.118,
      "duration": 0.0776,
      "velocity": 111,
      "chip": "ym2612"
    },
    {
      "channel": 0,
      "note": 49,
      "start": 13.4159,
      "duration": 0.113,
      "velocity": 120,
      "chip": "ym2612"
    },
    {
      "channel": 5,
      "note": 33,
      "start": 13.4488,
      "duration": 0.1637,
      "velocity": 67,
      "chip": "ym2612"
    },
    {
      "channel": 2,
      "note": 39,
      "start": 13.4512,
      "duration": 0.0112,
      "velocity": 119,
      "chip": "ym2612"
    },
    {
      "channel": 0,
      "note": 49,
      "start": 13.5824,
      "duration": 0.1298,
      "velocity": 120,
      "chip": "ym2612"
    },
    {
      "channel": 2,
      "note": 39,
      "start": 13.6153,
      "duration": 0.0138,
      "velocity": 119,
      "chip": "ym2612"
    },
    {
      "channel": 0,
      "note": 49,
      "start": 13.7493,
      "duration": 0.163,
      "velocity": 120,
      "chip": "ym2612"
    },
    {
      "channel": 2,
      "note": 39,
      "start": 13.7657,
      "duration": 0.03,
      "velocity": 119,
      "chip": "ym2612"
    },
    {
      "channel": 1,
      "note": 68,
      "start": 13.7685,
      "duration": 0.0772,
      "velocity": 111,
      "chip": "ym2612"
    },
    {
      "channel": 0,
      "note": 49,
      "start": 14.0826,
      "duration": 0.0962,
      "velocity": 120,
      "chip": "ym2612"
    },
    {
      "channel": 5,
      "note": 33,
      "start": 14.0986,
      "duration": 0.1638,
      "velocity": 67,
      "chip": "ym2612"
    },
    {
      "channel": 2,
      "note": 39,
      "start": 14.1011,
      "duration": 0.028,
      "velocity": 119,
      "chip": "ym2612"
    },
    {
      "channel": 0,
      "note": 49,
      "start": 14.2324,
      "duration": 0.1632,
      "velocity": 120,
      "chip": "ym2612"
    },
    {
      "channel": 2,
      "note": 39,
      "start": 14.2653,
      "duration": 0.0305,
      "velocity": 119,
      "chip": "ym2612"
    },
    {
      "channel": 0,
      "note": 49,
      "start": 14.3997,
      "duration": 0.1959,
      "velocity": 120,
      "chip": "ym2612"
    },
    {
      "channel": 2,
      "note": 39,
      "start": 14.4321,
      "duration": 0.0137,
      "velocity": 119,
      "chip": "ym2612"
    },
    {
      "channel": 1,
      "note": 68,
      "start": 14.4348,
      "duration": 0.0774,
      "velocity": 111,
      "chip": "ym2612"
    },
    {
      "channel": 0,
      "note": 49,
      "start": 14.7326,
      "duration": 0.0962,
      "velocity": 120,
      "chip": "ym2612"
    },
    {
      "channel": 5,
      "note": 33,
      "start": 14.7655,
      "duration": 0.147,
      "velocity": 67,
      "chip": "ym2612"
    },
    {
      "channel": 2,
      "note": 39,
      "start": 14.7679,
      "duration": 0.0112,
      "velocity": 119,
      "chip": "ym2612"
    },
    {
      "channel": 0,
      "note": 49,
      "start": 14.899,
      "duration": 0.1299,
      "velocity": 120,
      "chip": "ym2612"
    },
    {
      "channel": 2,
      "note": 39,
      "start": 14.9153,
      "duration": 0.0305,
      "velocity": 119,
      "chip": "ym2612"
    },
    {
      "channel": 0,
      "note": 49,
      "start": 15.0659,
      "duration": 0.1796,
      "velocity": 120,
      "chip": "ym2612"
    },
    {
      "channel": 2,
      "note": 39,
      "start": 15.082,
      "duration": 0.0305,
      "velocity": 119,
      "chip": "ym2612"
    },
    {
      "channel": 1,
      "note": 68,
      "start": 15.0849,
      "duration": 0.0775,
      "velocity": 111,
      "chip": "ym2612"
    },
    {
      "channel": 0,
      "note": 49,
      "start": 15.3825,
      "duration": 0.113,
      "velocity": 120,
      "chip": "ym2612"
    },
    {
      "channel": 3,
      "note": 51,
      "start": 15.4152,
      "duration": 0.0303,
      "velocity": 107,
      "chip": "ym2612"
    },
    {
      "channel": 1,
      "note": 61,
      "start": 15.4181,
      "duration": 0.0776,
      "velocity": 111,
      "chip": "ym2612"
    },
    {
      "channel": 0,
      "note": 49,
      "start": 15.549,
      "duration": 0.1298,
      "velocity": 120,
      "chip": "ym2612"
    },
    {
      "channel": 3,
      "note": 51,
      "start": 15.582,
      "duration": 0.0137,
      "velocity": 107,
      "chip": "ym2612"
    },
    {
      "channel": 0,
      "note": 49,
      "start": 15.7162,
      "duration": 0.1626,
      "velocity": 120,
      "chip": "ym2612"
    },
    {
      "channel": 5,
      "note": 50,
      "start": 15.749,
      "duration": 0.4634,
      "velocity": 114,
      "chip": "ym2612"
    },
    {
      "channel": 2,
      "note": 33,
      "start": 15.7519,
      "duration": 0.1438,
      "velocity": 67,
      "chip": "ym2612"
    },
    {
      "channel": 1,
      "note": 68,
      "start": 15.7554,
      "duration": 0.0736,
      "velocity": 111,
      "chip": "ym2612"
    },
    {
      "channel": 4,
      "note": 69,
      "start": 15.8339,
      "duration": 5.0451,
      "velocity": 99,
      "chip": "ym2612"
    },
    {
      "channel": 0,
      "note": 49,
      "start": 16.0492,
      "duration": 0.0963,
      "velocity": 120,
      "chip": "ym2612"
    },
    {
      "channel": 2,
      "note": 39,
      "start": 16.0654,
      "duration": 0.0304,
      "velocity": 119,
      "chip": "ym2612"
    },
    {
      "channel": 0,
      "note": 49,
      "start": 16.2157,
      "duration": 0.1465,
      "velocity": 120,
      "chip": "ym2612"
    },
    {
      "channel": 5,
      "note": 47,
      "start": 16.2324,
      "duration": 0.1301,
      "velocity": 114,
      "chip": "ym2612"
    },
    {
      "channel": 3,
      "note": 33,
      "start": 16.2351,
      "duration": 0.1606,
      "velocity": 67,
      "chip": "ym2612"
    },
    {
      "channel": 2,
      "note": 39,
      "start": 16.2374,
      "duration": 0.0251,
      "velocity": 119,
      "chip": "ym2612"
    },
    {
      "channel": 0,
      "note": 49,
      "start": 16.3661,
      "duration": 0.1961,
      "velocity": 120,
      "chip": "ym2612"
    },
    {
      "channel": 5,
      "note": 50,
      "start": 16.3991,
      "duration": 0.2966,
      "velocity": 114,
      "chip": "ym2612"
    },
    {
      "channel": 1,
      "note": 51,
      "start": 16.4019,
      "duration": 0.0271,
      "velocity": 107,
      "chip": "ym2612"
    },
    {
      "channel": 2,
      "note": 39,
      "start": 16.4048,
      "duration": 0.0245,
      "velocity": 119,
      "chip": "ym2612"
    },
    {
      "channel": 3,
      "note": 68,
      "start": 16.4077,
      "duration": 0.0712,
      "velocity": 111,
      "chip": "ym2612"
    },
    {
      "channel": 5,
      "note": 49,
      "start": 16.7329,
      "duration": 0.1295,
      "velocity": 114,
      "chip": "ym2612"
    },
    {
      "channel": 1,
      "note": 33,
      "start": 16.7363,
      "duration": 0.1594,
      "velocity": 67,
      "chip": "ym2612"
    },
    {
      "channel": 2,
      "note": 39,
      "start": 16.7387,
      "duration": 0.0071,
      "velocity": 119,
      "chip": "ym2612"
    },
    {
      "channel": 0,
      "note": 49,
      "start": 16.7416,
      "duration": 0.0706,
      "velocity": 120,
      "chip": "ym2612"
    },
    {
      "channel": 0,
      "note": 49,
      "start": 16.8663,
      "duration": 0.1625,
      "velocity": 120,
      "chip": "ym2612"
    },
    {
      "channel": 2,
      "note": 39,
      "start": 16.8986,
      "duration": 0.0139,
      "velocity": 119,
      "chip": "ym2612"
    },
    {
      "channel": 0,
      "note": 49,
      "start": 17.0325,
      "duration": 0.163,
      "velocity": 120,
      "chip": "ym2612"
    },
    {
      "channel": 2,
      "note": 39,
      "start": 17.0487,
      "duration": 0.0304,
      "velocity": 119,
      "chip": "ym2612"
    },
    {
      "channel": 3,
      "note": 68,
      "start": 17.0519,
      "duration": 0.0772,
      "velocity": 111,
      "chip": "ym2612"
    },
    {
      "channel": 0,
      "note": 49,
      "start": 17.3491,
      "duration": 0.1132,
      "velocity": 120,
      "chip": "ym2612"
    },
    {
      "channel": 2,
      "note": 39,
      "start": 17.3819,
      "duration": 0.0306,
      "velocity": 119,
      "chip": "ym2612"
    },
    {
      "channel": 0,
      "note": 49,
      "start": 17.5157,
      "duration": 0.1298,
      "velocity": 120,
      "chip": "ym2612"
    },
    {
      "channel": 2,
      "note": 39,
      "start": 17.5485,
      "duration": 0.0307,
      "velocity": 119,
      "chip": "ym2612"
    },
    {
      "channel": 0,
      "note": 49,
      "start": 17.6826,
      "duration": 0.163,
      "velocity": 120,
      "chip": "ym2612"
    },
    {
      "channel": 5,
      "note": 51,
      "start": 17.7156,
      "duration": 0.0135,
      "velocity": 107,
      "chip": "ym2612"
    },
    {
      "channel": 2,
      "note": 39,
      "start": 17.7181,
      "duration": 0.0111,
      "velocity": 119,
      "chip": "ym2612"
    },
    {
      "channel": 3,
      "note": 68,
      "start": 17.7209,
      "duration": 0.0747,
      "velocity": 111,
      "chip": "ym2612"
    },
    {
      "channel": 2,
      "note": 39,
      "start": 18.0319,
      "duration": 0.0305,
      "velocity": 119,
      "chip": "ym2612"
    },
    {
      "channel": 0,
      "note": 49,
      "start": 18.0348,
      "duration": 0.0774,
      "velocity": 120,
      "chip": "ym2612"
    },
    {
      "channel": 0,
      "note": 49,
      "start": 18.1829,
      "duration": 0.1293,
      "velocity": 120,
      "chip": "ym2612"
    },
    {
      "channel": 2,
      "note": 39,
      "start": 18.1985,
      "duration": 0.0307,
      "velocity": 119,
      "chip": "ym2612"
    },
    {
      "channel": 2,
      "note": 39,
      "start": 18.3656,
      "duration": 0.0302,
      "velocity": 119,
      "chip": "ym2612"
    },
    {
      "channel": 3,
      "note": 68,
      "start": 18.3685,
      "duration": 0.0771,
      "velocity": 111,
      "chip": "ym2612"
    },
    {
      "channel": 0,
      "note": 49,
      "start": 18.3713,
      "duration": 0.1576,
      "velocity": 120,
      "chip": "ym2612"
    },
    {
      "channel": 1,
      "note": 33,
      "start": 18.6987,
      "duration": 0.1636,
      "velocity": 67,
      "chip": "ym2612"
    },
    {
      "channel": 2,
      "note": 39,
      "start": 18.7011,
      "duration": 0.0114,
      "velocity": 119,
      "chip": "ym2612"
    },
    {
      "channel": 0,
      "note": 49,
      "start": 18.704,
      "duration": 0.0749,
      "velocity": 120,
      "chip": "ym2612"
    },
    {
      "channel": 0,
      "note": 49,
      "start": 18.8326,
      "duration": 0.163,
      "velocity": 120,
      "chip": "ym2612"
    },
    {
      "channel": 2,
      "note": 39,
      "start": 18.8652,
      "duration": 0.0139,
      "velocity": 119,
      "chip": "ym2612"
    },
    {
      "channel": 2,
      "note": 39,
      "start": 19.0321,
      "duration": 0.0137,
      "velocity": 119,
      "chip": "ym2612"
    },
    {
      "channel": 3,
      "note": 68,
      "start": 19.0349,
      "duration": 0.0607,
      "velocity": 111,
      "chip": "ym2612"
    },
    {
      "channel": 0,
      "note": 49,
      "start": 19.0375,
      "duration": 0.1414,
      "velocity": 120,
      "chip": "ym2612"
    },
    {
      "channel": 1,
      "note": 33,
      "start": 19.3485,
      "duration": 0.1638,
      "velocity": 67,
      "chip": "ym2612"
    },
    {
      "channel": 2,
      "note": 39,
      "start": 19.351,
      "duration": 0.0281,
      "velocity": 119,
      "chip": "ym2612"
    },
    {
      "channel": 0,
      "note": 49,
      "start": 19.3538,
      "duration": 0.075,
      "velocity": 120,
      "chip": "ym2612"
    },
    {
      "channel": 2,
      "note": 39,
      "start": 19.5153,
      "duration": 0.0305,
      "velocity": 119,
      "chip": "ym2612"
    },
    {
      "channel": 0,
      "note": 49,
      "start": 19.5184,
      "duration": 0.1105,
      "velocity": 120,
      "chip": "ym2612"
    },
    {
      "channel": 2,
      "note": 39,
      "start": 19.682,
      "duration": 0.0304,
      "velocity": 119,
      "chip": "ym2612"
    },
    {
      "channel": 3,
      "note": 68,
      "start": 19.6848,
      "duration": 0.0775,
      "velocity": 111,
      "chip": "ym2612"
    },
    {
      "channel": 0,
      "note": 49,
      "start": 19.6876,
      "duration": 0.1246,
      "velocity": 120,
      "chip": "ym2612"
    },
    {
      "channel": 1,
      "note": 33,
      "start": 20.0153,
      "duration": 0.1469,
      "velocity": 67,
      "chip": "ym2612"
    },
    {
      "channel": 2,
      "note": 39,
      "start": 20.0178,
      "duration": 0.0114,
      "velocity": 119,
      "chip": "ym2612"
    },
    {
      "channel": 0,
      "note": 49,
      "start": 20.0207,
      "duration": 0.0749,
      "velocity": 120,
      "chip": "ym2612"
    },
    {
      "channel": 2,
      "note": 39,
      "start": 20.1652,
      "duration": 0.0305,
      "velocity": 119,
      "chip": "ym2612"
    },
    {
      "channel": 0,
      "note": 49,
      "start": 20.1679,
      "duration": 0.1443,
      "velocity": 120,
      "chip": "ym2612"
    },
    {
      "channel": 2,
      "note": 39,
      "start": 20.332,
      "duration": 0.0305,
      "velocity": 119,
      "chip": "ym2612"
    },
    {
      "channel": 3,
      "note": 68,
      "start": 20.3349,
      "duration": 0.0774,
      "velocity": 111,
      "chip": "ym2612"
    },
    {
      "channel": 0,
      "note": 49,
      "start": 20.3377,
      "duration": 0.1578,
      "velocity": 120,
      "chip": "ym2612"
    },
    {
      "channel": 5,
      "note": 51,
      "start": 20.6653,
      "duration": 0.0304,
      "velocity": 107,
      "chip": "ym2612"
    },
    {
      "channel": 3,
      "note": 61,
      "start": 20.6684,
      "duration": 0.0773,
      "velocity": 111,
      "chip": "ym2612"
    },
    {
      "channel": 0,
      "note": 49,
      "start": 20.6712,
      "duration": 0.1078,
      "velocity": 120,
      "chip": "ym2612"
    },
    {
      "channel": 5,
      "note": 51,
      "start": 20.8324,
      "duration": 0.0134,
      "velocity": 107,
      "chip": "ym2612"
    },
    {
      "channel": 0,
      "note": 49,
      "start": 20.8358,
      "duration": 0.1265,
      "velocity": 120,
      "chip": "ym2612"
    },
    {
      "channel": 4,
      "note": 67,
      "start": 20.9668,
      "duration": 5.1956,
      "velocity": 99,
      "chip": "ym2612"
    },
    {
      "channel": 1,
      "note": 50,
      "start": 20.999,
      "duration": 0.4632,
      "velocity": 114,
      "chip": "ym2612"
    },
    {
      "channel": 2,
      "note": 33,
      "start": 21.002,
      "duration": 0.1605,
      "velocity": 67,
      "chip": "ym2612"
    },
    {
      "channel": 3,
      "note": 68,
      "start": 21.0059,
      "duration": 0.073,
      "velocity": 111,
      "chip": "ym2612"
    },
    {
      "channel": 0,
      "note": 49,
      "start": 21.0087,
      "duration": 0.0868,
      "velocity": 120,
      "chip": "ym2612"
    },
    {
      "channel": 2,
      "note": 39,
      "start": 21.3153,
      "duration": 0.0305,
      "velocity": 119,
      "chip": "ym2612"
    },
    {
      "channel": 0,
      "note": 49,
      "start": 21.3182,
      "duration": 0.0606,
      "velocity": 120,
      "chip": "ym2612"
    },
    {
      "channel": 1,
      "note": 47,
      "start": 21.4821,
      "duration": 0.1302,
      "velocity": 114,
      "chip": "ym2612"
    },
    {
      "channel": 5,
      "note": 33,
      "start": 21.4849,
      "duration": 0.1608,
      "velocity": 67,
      "chip": "ym2612"
    },
    {
      "channel": 2,
      "note": 39,
      "start": 21.4872,
      "duration": 0.0253,
      "velocity": 119,
      "chip": "ym2612"
    },
    {
      "channel": 0,
      "note": 49,
      "start": 21.49,
      "duration": 0.1055,
      "velocity": 120,
      "chip": "ym2612"
    },
    {
      "channel": 1,
      "note": 49,
      "start": 21.6486,
      "duration": 0.1303,
      "velocity": 114,
      "chip": "ym2612"
    },
    {
      "channel": 3,
      "note": 51,
      "start": 21.6513,
      "duration": 0.0276,
      "velocity": 107,
      "chip": "ym2612"
    },
    {
      "channel": 2,
      "note": 39,
      "start": 21.6539,
      "duration": 0.0253,
      "velocity": 119,
      "chip": "ym2612"
    },
    {
      "channel": 0,
      "note": 68,
      "start": 21.6569,
      "duration": 0.072,
      "velocity": 111,
      "chip": "ym2612"
    },
    {
      "channel": 5,
      "note": 49,
      "start": 21.6599,
      "duration": 0.1192,
      "velocity": 120,
      "chip": "ym2612"
    },
    {
      "channel": 1,
      "note": 50,
      "start": 21.8151,
      "duration": 0.1305,
      "velocity": 114,
      "chip": "ym2612"
    },
    {
      "channel": 1,
      "note": 52,
      "start": 21.9823,
      "duration": 0.2966,
      "velocity": 114,
      "chip": "ym2612"
    },
    {
      "channel": 3,
      "note": 33,
      "start": 21.9853,
      "duration": 0.1602,
      "velocity": 67,
      "chip": "ym2612"
    },
    {
      "channel": 2,
      "note": 39,
      "start": 21.9878,
      "duration": 0.0079,
      "velocity": 119,
      "chip": "ym2612"
    },
    {
      "channel": 5,
      "note": 49,
      "start": 21.9908,
      "duration": 0.0382,
      "velocity": 120,
      "chip": "ym2612"
    },
    {
      "channel": 5,
      "note": 49,
      "start": 22.1165,
      "duration": 0.1293,
      "velocity": 120,
      "chip": "ym2612"
    },
    {
      "channel": 2,
      "note": 39,
      "start": 22.1485,
      "duration": 0.0139,
      "velocity": 119,
      "chip": "ym2612"
    },
    {
      "channel": 2,
      "note": 39,
      "start": 22.2987,
      "duration": 0.0305,
      "velocity": 119,
      "chip": "ym2612"
    },
    {
      "channel": 0,
      "note": 68,
      "start": 22.3013,
      "duration": 0.0776,
      "velocity": 111,
      "chip": "ym2612"
    },
    {
      "channel": 5,
      "note": 49,
      "start": 22.3042,
      "duration": 0.1415,
      "velocity": 120,
      "chip": "ym2612"
    },
    {
      "channel": 2,
      "note": 39,
      "start": 22.632,
      "duration": 0.0304,
      "velocity": 119,
      "chip": "ym2612"
    },
    {
      "channel": 5,
      "note": 49,
      "start": 22.6351,
      "duration": 0.0439,
      "velocity": 120,
      "chip": "ym2612"
    },
    {
      "channel": 5,
      "note": 49,
      "start": 22.766,
      "duration": 0.1464,
      "velocity": 120,
      "chip": "ym2612"
    },
    {
      "channel": 2,
      "note": 39,
      "start": 22.7985,
      "duration": 0.0307,
      "velocity": 119,
      "chip": "ym2612"
    },
    {
      "channel": 5,
      "note": 49,
      "start": 22.9328,
      "duration": 0.1629,
      "velocity": 120,
      "chip": "ym2612"
    },
    {
      "channel": 3,
      "note": 51,
      "start": 22.9656,
      "duration": 0.0133,
      "velocity": 107,
      "chip": "ym2612"
    },
    {
      "channel": 2,
      "note": 39,
      "start": 22.9685,
      "duration": 0.0107,
      "velocity": 119,
      "chip": "ym2612"
    },
    {
      "channel": 0,
      "note": 68,
      "start": 22.9712,
      "duration": 0.0744,
      "velocity": 111,
      "chip": "ym2612"
    },
    {
      "channel": 2,
      "note": 39,
      "start": 23.2987,
      "duration": 0.0137,
      "velocity": 119,
      "chip": "ym2612"
    },
    {
      "channel": 5,
      "note": 49,
      "start": 23.3019,
      "duration": 0.0605,
      "velocity": 120,
      "chip": "ym2612"
    },
    {
      "channel": 5,
      "note": 49,
      "start": 23.4331,
      "duration": 0.1293,
      "velocity": 120,
      "chip": "ym2612"
    },
    {
      "channel": 2,
      "note": 39,
      "start": 23.4485,
      "duration": 0.0305,
      "velocity": 119,
      "chip": "ym2612"
    },
    {
      "channel": 5,
      "note": 49,
      "start": 23.5995,
      "duration": 0.1462,
      "velocity": 120,
      "chip": "ym2612"
    },
    {
      "channel": 2,
      "note": 39,
      "start": 23.6153,
      "duration": 0.0304,
      "velocity": 119,
      "chip": "ym2612"
    },
    {
      "channel": 0,
      "note": 68,
      "start": 23.618,
      "duration": 0.0775,
      "velocity": 111,
      "chip": "ym2612"
    },
    {
      "channel": 5,
      "note": 49,
      "start": 23.916,
      "duration": 0.1131,
      "velocity": 120,
      "chip": "ym2612"
    },
    {
      "channel": 1,
      "note": 33,
      "start": 23.9489,
      "duration": 0.1634,
      "velocity": 67,
      "chip": "ym2612"
    },
    {
      "channel": 2,
      "note": 39,
      "start": 23.9513,
      "duration": 0.0279,
      "velocity": 119,
      "chip": "ym2612"
    },
    {
      "channel": 5,
      "note": 49,
      "start": 24.0826,
      "duration": 0.1298,
      "velocity": 120,
      "chip": "ym2612"
    },
    {
      "channel": 2,
      "note": 39,
      "start": 24.1153,
      "duration": 0.0138,
      "velocity": 119,
      "chip": "ym2612"
    },
    {
      "channel": 5,
      "note": 49,
      "start": 24.2494,
      "duration": 0.163,
      "velocity": 120,
      "chip": "ym2612"
    },
    {
      "channel": 2,
      "note": 39,
      "start": 24.282,
      "duration": 0.0138,
      "velocity": 119,
      "chip": "ym2612"
    },
    {
      "channel": 0,
      "note": 68,
      "start": 24.2846,
      "duration": 0.0776,
      "velocity": 111,
      "chip": "ym2612"
    },
    {
      "channel": 5,
      "note": 49,
      "start": 24.5832,
      "duration": 0.096,
      "velocity": 120,
      "chip": "ym2612"
    },
    {
      "channel": 1,
      "note": 33,
      "start": 24.5989,
      "duration": 0.1634,
      "velocity": 67,
      "chip": "ym2612"
    },
    {
      "channel": 2,
      "note": 39,
      "start": 24.6013,
      "duration": 0.0277,
      "velocity": 119,
      "chip": "ym2612"
    },
    {
      "channel": 5,
      "note": 49,
      "start": 24.7493,
      "duration": 0.1465,
      "velocity": 120,
      "chip": "ym2612"
    },
    {
      "channel": 2,
      "note": 39,
      "start": 24.7653,
      "duration": 0.0305,
      "velocity": 119,
      "chip": "ym2612"
    },
    {
      "channel": 5,
      "note": 49,
      "start": 24.8996,
      "duration": 0.1961,
      "velocity": 120,
      "chip": "ym2612"
    },
    {
      "channel": 2,
      "note": 39,
      "start": 24.932,
      "duration": 0.0305,
      "velocity": 119,
      "chip": "ym2612"
    },
    {
      "channel": 0,
      "note": 68,
      "start": 24.9346,
      "duration": 0.0776,
      "velocity": 111,
      "chip": "ym2612"
    },
    {
      "channel": 5,
      "note": 49,
      "start": 25.2328,
      "duration": 0.113,
      "velocity": 120,
      "chip": "ym2612"
    },
    {
      "channel": 1,
      "note": 33,
      "start": 25.2653,
      "duration": 0.1636,
      "velocity": 67,
      "chip": "ym2612"
    },
    {
      "channel": 2,
      "note": 39,
      "start": 25.2681,
      "duration": 0.0111,
      "velocity": 119,
      "chip": "ym2612"
    },
    {
      "channel": 5,
      "note": 49,
      "start": 25.3993,
      "duration": 0.1298,
      "velocity": 120,
      "chip": "ym2612"
    },
    {
      "channel": 2,
      "note": 39,
      "start": 25.432,
      "duration": 0.0138,
      "velocity": 119,
      "chip": "ym2612"
    },
    {
      "channel": 5,
      "note": 49,
      "start": 25.5662,
      "duration": 0.1796,
      "velocity": 120,
      "chip": "ym2612"
    },
    {
      "channel": 2,
      "note": 39,
      "start": 25.582,
      "duration": 0.0305,
      "velocity": 119,
      "chip": "ym2612"
    },
    {
      "channel": 0,
      "note": 68,
      "start": 25.5852,
      "duration": 0.077,
      "velocity": 111,
      "chip": "ym2612"
    },
    {
      "channel": 5,
      "note": 49,
      "start": 25.8831,
      "duration": 0.1128,
      "velocity": 120,
      "chip": "ym2612"
    },
    {
      "channel": 3,
      "note": 51,
      "start": 25.9152,
      "duration": 0.0305,
      "velocity": 107,
      "chip": "ym2612"
    },
    {
      "channel": 0,
      "note": 61,
      "start": 25.9181,
      "duration": 0.0775,
      "velocity": 111,
      "chip": "ym2612"
    },
    {
      "channel": 5,
      "note": 49,
      "start": 26.0492,
      "duration": 0.1298,
      "velocity": 120,
      "chip": "ym2612"
    },
    {
      "channel": 3,
      "note": 51,
      "start": 26.082,
      "duration": 0.0303,
      "velocity": 107,
      "chip": "ym2612"
    },
    {
      "channel": 5,
      "note": 49,
      "start": 26.2161,
      "duration": 0.163,
      "velocity": 120,
      "chip": "ym2612"
    },
    {
      "channel": 4,
      "note": 69,
      "start": 26.2195,
      "duration": 4.5094,
      "velocity": 99,
      "chip": "ym2612"
    },
    {
      "channel": 1,
      "note": 50,
      "start": 26.249,
      "duration": 0.4632,
      "velocity": 114,
      "chip": "ym2612"
    },
    {
      "channel": 2,
      "note": 33,
      "start": 26.252,
      "duration": 0.1604,
      "velocity": 67,
      "chip": "ym2612"
    },
    {
      "channel": 0,
      "note": 68,
      "start": 26.2554,
      "duration": 0.0735,
      "velocity": 111,
      "chip": "ym2612"
    },
    {
      "channel": 5,
      "note": 49,
      "start": 26.5494,
      "duration": 0.0963,
      "velocity": 120,
      "chip": "ym2612"
    },
    {
      "channel": 2,
      "note": 39,
      "start": 26.5653,
      "duration": 0.0305,
      "velocity": 119,
      "chip": "ym2612"
    },
    {
      "channel": 5,
      "note": 49,
      "start": 26.716,
      "duration": 0.1631,
      "velocity": 120,
      "chip": "ym2612"
    },
    {
      "channel": 1,
      "note": 47,
      "start": 26.7325,
      "duration": 0.1464,
      "velocity": 114,
      "chip": "ym2612"
    },
    {
      "channel": 3,
      "note": 33,
      "start": 26.7353,
      "duration": 0.1604,
      "velocity": 67,
      "chip": "ym2612"
    },
    {
      "channel": 2,
      "note": 39,
      "start": 26.7375,
      "duration": 0.025,
      "velocity": 119,
      "chip": "ym2612"
    },
    {
      "channel": 5,
      "note": 49,
      "start": 26.8829,
      "duration": 0.1795,
      "velocity": 120,
      "chip": "ym2612"
    },
    {
      "channel": 1,
      "note": 50,
      "start": 26.8989,
      "duration": 0.2967,
      "velocity": 114,
      "chip": "ym2612"
    },
    {
      "channel": 0,
      "note": 51,
      "start": 26.9017,
      "duration": 0.0272,
      "velocity": 107,
      "chip": "ym2612"
    },
    {
      "channel": 2,
      "note": 39,
      "start": 26.9042,
      "duration": 0.0251,
      "velocity": 119,
      "chip": "ym2612"
    },
    {
      "channel": 3,
      "note": 68,
      "start": 26.9072,
      "duration": 0.0717,
      "velocity": 111,
      "chip": "ym2612"
    },
    {
      "channel": 1,
      "note": 49,
      "start": 27.2323,
      "duration": 0.1299,
      "velocity": 114,
      "chip": "ym2612"
    },
    {
      "channel": 0,
      "note": 33,
      "start": 27.2353,
      "duration": 0.1602,
      "velocity": 67,
      "chip": "ym2612"
    },
    {
      "channel": 2,
      "note": 39,
      "start": 27.2377,
      "duration": 0.0081,
      "velocity": 119,
      "chip": "ym2612"
    },
    {
      "channel": 5,
      "note": 49,
      "start": 27.2412,
      "duration": 0.0712,
      "velocity": 120,
      "chip": "ym2612"
    },
    {
      "channel": 5,
      "note": 49,
      "start": 27.3662,
      "duration": 0.1629,
      "velocity": 120,
      "chip": "ym2612"
    },
    {
      "channel": 2,
      "note": 39,
      "start": 27.3985,
      "duration": 0.0139,
      "velocity": 119,
      "chip": "ym2612"
    },
    {
      "channel": 5,
      "note": 49,
      "start": 27.5328,
      "duration": 0.163,
      "velocity": 120,
      "chip": "ym2612"
    },
    {
      "channel": 2,
      "note": 39,
      "start": 27.5657,
      "duration": 0.0134,
      "velocity": 119,
      "chip": "ym2612"
    },
    {
      "channel": 3,
      "note": 68,
      "start": 27.5685,
      "duration": 0.0604,
      "velocity": 111,
      "chip": "ym2612"
    },
    {
      "channel": 5,
      "note": 49,
      "start": 27.8662,
      "duration": 0.0962,
      "velocity": 120,
      "chip": "ym2612"
    },
    {
      "channel": 2,
      "note": 39,
      "start": 27.8819,
      "duration": 0.0306,
      "velocity": 119,
      "chip": "ym2612"
    },
    {
      "channel": 5,
      "note": 49,
      "start": 28.016,
      "duration": 0.1464,
      "velocity": 120,
      "chip": "ym2612"
    },
    {
      "channel": 2,
      "note": 39,
      "start": 28.0484,
      "duration": 0.0307,
      "velocity": 119,
      "chip": "ym2612"
    },
    {
      "channel": 5,
      "note": 49,
      "start": 28.1827,
      "duration": 0.163,
      "velocity": 120,
      "chip": "ym2612"
    },
    {
      "channel": 1,
      "note": 51,
      "start": 28.2156,
      "duration": 0.03,
      "velocity": 107,
      "chip": "ym2612"
    },
    {
      "channel": 2,
      "note": 39,
      "start": 28.2181,
      "duration": 0.0277,
      "velocity": 119,
      "chip": "ym2612"
    },
    {
      "channel": 3,
      "note": 68,
      "start": 28.221,
      "duration": 0.0746,
      "velocity": 111,
      "chip": "ym2612"
    },
    {
      "channel": 2,
      "note": 39,
      "start": 28.5486,
      "duration": 0.0139,
      "velocity": 119,
      "chip": "ym2612"
    },
    {
      "channel": 5,
      "note": 49,
      "start": 28.552,
      "duration": 0.077,
      "velocity": 120,
      "chip": "ym2612"
    },
    {
      "channel": 5,
      "note": 49,
      "start": 28.6828,
      "duration": 0.1297,
      "velocity": 120,
      "chip": "ym2612"
    },
    {
      "channel": 2,
      "note": 39,
      "start": 28.6985,
      "duration": 0.0307,
      "velocity": 119,
      "chip": "ym2612"
    },
    {
      "channel": 2,
      "note": 39,
      "start": 28.8652,
      "duration": 0.0307,
      "velocity": 119,
      "chip": "ym2612"
    },
    {
      "channel": 3,
      "note": 68,
      "start": 28.8681,
      "duration": 0.0776,
      "velocity": 111,
      "chip": "ym2612"
    },
    {
      "channel": 5,
      "note": 49,
      "start": 28.8711,
      "duration": 0.158,
      "velocity": 120,
      "chip": "ym2612"
    },
    {
      "channel": 0,
      "note": 33,
      "start": 29.1987,
      "duration": 0.1636,
      "velocity": 67,
      "chip": "ym2612"
    },
    {
      "channel": 2,
      "note": 39,
      "start": 29.2011,
      "duration": 0.028,
      "velocity": 119,
      "chip": "ym2612"
    },
    {
      "channel": 5,
      "note": 49,
      "start": 29.2042,
      "duration": 0.0748,
      "velocity": 120,
      "chip": "ym2612"
    },
    {
      "channel": 5,
      "note": 49,
      "start": 29.3328,
      "duration": 0.163,
      "velocity": 120,
      "chip": "ym2612"
    },
    {
      "channel": 2,
      "note": 39,
      "start": 29.3653,
      "duration": 0.0138,
      "velocity": 119,
      "chip": "ym2612"
    },
    {
      "channel": 2,
      "note": 39,
      "start": 29.532,
      "duration": 0.0139,
      "velocity": 119,
      "chip": "ym2612"
    },
    {
      "channel": 3,
      "note": 68,
      "start": 29.5347,
      "duration": 0.0776,
      "velocity": 111,
      "chip": "ym2612"
    },
    {
      "channel": 5,
      "note": 49,
      "start": 29.5376,
      "duration": 0.1582,
      "velocity": 120,
      "chip": "ym2612"
    },
    {
      "channel": 0,
      "note": 33,
      "start": 29.8484,
      "duration": 0.1638,
      "velocity": 67,
      "chip": "ym2612"
    },
    {
      "channel": 2,
      "note": 39,
      "start": 29.8512,
      "duration": 0.0279,
      "velocity": 119,
      "chip": "ym2612"
    },
    {
      "channel": 5,
      "note": 49,
      "start": 29.8547,
      "duration": 0.0744,
      "velocity": 120,
      "chip": "ym2612"
    },
    {
      "channel": 2,
      "note": 39,
      "start": 30.0152,
      "duration": 0.0305,
      "velocity": 119,
      "chip": "ym2612"
    },
    {
      "channel": 5,
      "note": 49,
      "start": 30.0182,
      "duration": 0.1109,
      "velocity": 120,
      "chip": "ym2612"
    },
    {
      "channel": 2,
      "note": 39,
      "start": 30.182,
      "duration": 0.0305,
      "velocity": 119,
      "chip": "ym2612"
    },
    {
      "channel": 3,
      "note": 68,
      "start": 30.1848,
      "duration": 0.0776,
      "velocity": 111,
      "chip": "ym2612"
    },
    {
      "channel": 5,
      "note": 49,
      "start": 30.1878,
      "duration": 0.1246,
      "velocity": 120,
      "chip": "ym2612"
    },
    {
      "channel": 0,
      "note": 33,
      "start": 30.5152,
      "duration": 0.1637,
      "velocity": 67,
      "chip": "ym2612"
    },
    {
      "channel": 2,
      "note": 39,
      "start": 30.5177,
      "duration": 0.0114,
      "velocity": 119,
      "chip": "ym2612"
    },
    {
      "channel": 5,
      "note": 49,
      "start": 30.5207,
      "duration": 0.075,
      "velocity": 120,
      "chip": "ym2612"
    },
    {
      "channel": 2,
      "note": 39,
      "start": 30.6819,
      "duration": 0.0139,
      "velocity": 119,
      "chip": "ym2612"
    },
    {
      "channel": 5,
      "note": 49,
      "start": 30.6849,
      "duration": 0.1275,
      "velocity": 120,
      "chip": "ym2612"
    },
    {
      "channel": 4,
      "note": 66,
      "start": 30.7664,
      "duration": 0.6959,
      "velocity": 99,
      "chip": "ym2612"
    },
    {
      "channel": 2,
      "note": 39,
      "start": 30.8321,
      "duration": 0.0305,
      "velocity": 119,
      "chip": "ym2612"
    },
    {
      "channel": 3,
      "note": 68,
      "start": 30.835,
      "duration": 0.0773,
      "velocity": 111,
      "chip": "ym2612"
    },
    {
      "channel": 5,
      "note": 49,
      "start": 30.838,
      "duration": 0.1577,
      "velocity": 120,
      "chip": "ym2612"
    },
    {
      "channel": 1,
      "note": 51,
      "start": 31.1656,
      "duration": 0.03,
      "velocity": 107,
      "chip": "ym2612"
    },
    {
      "channel": 3,
      "note": 61,
      "start": 31.1686,
      "duration": 0.077,
      "velocity": 111,
      "chip": "ym2612"
    },
    {
      "channel": 5,
      "note": 49,
      "start": 31.172,
      "duration": 0.1071,
      "velocity": 120,
      "chip": "ym2612"
    },
    {
      "channel": 1,
      "note": 51,
      "start": 31.332,
      "duration": 0.0302,
      "velocity": 107,
      "chip": "ym2612"
    },
    {
      "channel": 5,
      "note": 49,
      "start": 31.3351,
      "duration": 0.1273,
      "velocity": 120,
      "chip": "ym2612"
    },
    {
      "channel": 4,
      "note": 73,
      "start": 31.4672,
      "duration": 5.2285,
      "velocity": 99,
      "chip": "ym2612"
    },
    {
      "channel": 0,
      "note": 50,
      "start": 31.4991,
      "duration": 0.4631,
      "velocity": 114,
      "chip": "ym2612"
    },
    {
      "channel": 2,
      "note": 33,
      "start": 31.5021,
      "duration": 0.1604,
      "velocity": 67,
      "chip": "ym2612"
    },
    {
      "channel": 3,
      "note": 68,
      "start": 31.5056,
      "duration": 0.0734,
      "velocity": 111,
      "chip": "ym2612"
    },
    {
      "channel": 5,
      "note": 49,
      "start": 31.5086,
      "duration": 0.0871,
      "velocity": 120,
      "chip": "ym2612"
    },
    {
      "channel": 2,
      "note": 39,
      "start": 31.832,
      "duration": 0.0139,
      "velocity": 119,
      "chip": "ym2612"
    },
    {
      "channel": 5,
      "note": 49,
      "start": 31.8351,
      "duration": 0.044,
      "velocity": 120,
      "chip": "ym2612"
    },
    {
      "channel": 0,
      "note": 47,
      "start": 31.9821,
      "duration": 0.1469,
      "velocity": 114,
      "chip": "ym2612"
    },
    {
      "channel": 1,
      "note": 33,
      "start": 31.9851,
      "duration": 0.1605,
      "velocity": 67,
      "chip": "ym2612"
    },
    {
      "channel": 2,
      "note": 39,
      "start": 31.9874,
      "duration": 0.0251,
      "velocity": 119,
      "chip": "ym2612"
    },
    {
      "channel": 5,
      "note": 49,
      "start": 31.9904,
      "duration": 0.1053,
      "velocity": 120,
      "chip": "ym2612"
    },
    {
      "channel": 0,
      "note": 49,
      "start": 32.1489,
      "duration": 0.13,
      "velocity": 114,
      "chip": "ym2612"
    },
    {
      "channel": 3,
      "note": 51,
      "start": 32.1517,
      "duration": 0.0272,
      "velocity": 107,
      "chip": "ym2612"
    },
    {
      "channel": 2,
      "note": 39,
      "start": 32.1546,
      "duration": 0.0245,
      "velocity": 119,
      "chip": "ym2612"
    },
    {
      "channel": 5,
      "note": 68,
      "start": 32.158,
      "duration": 0.0711,
      "velocity": 111,
      "chip": "ym2612"
    },
    {
      "channel": 1,
      "note": 49,
      "start": 32.161,
      "duration": 0.118,
      "velocity": 120,
      "chip": "ym2612"
    },
    {
      "channel": 0,
      "note": 50,
      "start": 32.3151,
      "duration": 0.1304,
      "velocity": 114,
      "chip": "ym2612"
    },
    {
      "channel": 0,
      "note": 52,
      "start": 32.4823,
      "duration": 0.2966,
      "velocity": 114,
      "chip": "ym2612"
    },
    {
      "channel": 3,
      "note": 33,
      "start": 32.4853,
      "duration": 0.1603,
      "velocity": 67,
      "chip": "ym2612"
    },
    {
      "channel": 2,
      "note": 39,
      "start": 32.4877,
      "duration": 0.0247,
      "velocity": 119,
      "chip": "ym2612"
    },
    {
      "channel": 1,
      "note": 49,
      "start": 32.4911,
      "duration": 0.0378,
      "velocity": 120,
      "chip": "ym2612"
    },
    {
      "channel": 1,
      "note": 49,
      "start": 32.616,
      "duration": 0.1296,
      "velocity": 120,
      "chip": "ym2612"
    },
    {
      "channel": 2,
      "note": 39,
      "start": 32.6485,
      "duration": 0.0139,
      "velocity": 119,
      "chip": "ym2612"
    },
    {
      "channel": 2,
      "note": 39,
      "start": 32.8153,
      "duration": 0.0139,
      "velocity": 119,
      "chip": "ym2612"
    },
    {
      "channel": 5,
      "note": 68,
      "start": 32.8182,
      "duration": 0.0776,
      "velocity": 111,
      "chip": "ym2612"
    },
    {
      "channel": 1,
      "note": 49,
      "start": 32.8209,
      "duration": 0.1246,
      "velocity": 120,
      "chip": "ym2612"
    },
    {
      "channel": 2,
      "note": 39,
      "start": 33.132,
      "duration": 0.0305,
      "velocity": 119,
      "chip": "ym2612"
    },
    {
      "channel": 1,
      "note": 49,
      "start": 33.1349,
      "duration": 0.0606,
      "velocity": 120,
      "chip": "ym2612"
    },
    {
      "channel": 1,
      "note": 49,
      "start": 33.2826,
      "duration": 0.1297,
      "velocity": 120,
      "chip": "ym2612"
    },
    {
      "channel": 2,
      "note": 39,
      "start": 33.2985,
      "duration": 0.0306,
      "velocity": 119,
      "chip": "ym2612"
    },
    {
      "channel": 1,
      "note": 49,
      "start": 33.4326,
      "duration": 0.163,
      "velocity": 120,
      "chip": "ym2612"
    },
    {
      "channel": 3,
      "note": 51,
      "start": 33.4656,
      "duration": 0.0301,
      "velocity": 107,
      "chip": "ym2612"
    },
    {
      "channel": 2,
      "note": 39,
      "start": 33.4681,
      "duration": 0.0278,
      "velocity": 119,
      "chip": "ym2612"
    },
    {
      "channel": 5,
      "note": 68,
      "start": 33.4711,
      "duration": 0.0746,
      "velocity": 111,
      "chip": "ym2612"
    },
    {
      "channel": 2,
      "note": 39,
      "start": 33.7987,
      "duration": 0.0137,
      "velocity": 119,
      "chip": "ym2612"
    },
    {
      "channel": 1,
      "note": 49,
      "start": 33.802,
      "duration": 0.0768,
      "velocity": 120,
      "chip": "ym2612"
    },
    {
      "channel": 1,
      "note": 49,
      "start": 33.9326,
      "duration": 0.1296,
      "velocity": 120,
      "chip": "ym2612"
    },
    {
      "channel": 2,
      "note": 39,
      "start": 33.9652,
      "duration": 0.0139,
      "velocity": 119,
      "chip": "ym2612"
    },
    {
      "channel": 1,
      "note": 49,
      "start": 34.0993,
      "duration": 0.1629,
      "velocity": 120,
      "chip": "ym2612"
    },
    {
      "channel": 2,
      "note": 39,
      "start": 34.1153,
      "duration": 0.0305,
      "velocity": 119,
      "chip": "ym2612"
    },
    {
      "channel": 5,
      "note": 68,
      "start": 34.1182,
      "duration": 0.0776,
      "velocity": 111,
      "chip": "ym2612"
    },
    {
      "channel": 1,
      "note": 49,
      "start": 34.4159,
      "duration": 0.113,
      "velocity": 120,
      "chip": "ym2612"
    },
    {
      "channel": 0,
      "note": 33,
      "start": 34.4489,
      "duration": 0.1634,
      "velocity": 67,
      "chip": "ym2612"
    },
    {
      "channel": 2,
      "note": 39,
      "start": 34.4517,
      "duration": 0.0276,
      "velocity": 119,
      "chip": "ym2612"
    },
    {
      "channel": 1,
      "note": 49,
      "start": 34.5824,
      "duration": 0.1298,
      "velocity": 120,
      "chip": "ym2612"
    },
    {
      "channel": 2,
      "note": 39,
      "start": 34.6153,
      "duration": 0.0305,
      "velocity": 119,
      "chip": "ym2612"
    },
    {
      "channel": 1,
      "note": 49,
      "start": 34.7496,
      "duration": 0.1627,
      "velocity": 120,
      "chip": "ym2612"
    },
    {
      "channel": 2,
      "note": 39,
      "start": 34.7819,
      "duration": 0.0139,
      "velocity": 119,
      "chip": "ym2612"
    },
    {
      "channel": 5,
      "note": 68,
      "start": 34.7848,
      "duration": 0.0776,
      "velocity": 111,
      "chip": "ym2612"
    },
    {
      "channel": 1,
      "note": 49,
      "start": 35.0826,
      "duration": 0.0963,
      "velocity": 120,
      "chip": "ym2612"
    },
    {
      "channel": 0,
      "note": 33,
      "start": 35.0985,
      "duration": 0.1637,
      "velocity": 67,
      "chip": "ym2612"
    },
    {
      "channel": 2,
      "note": 39,
      "start": 35.101,
      "duration": 0.0282,
      "velocity": 119,
      "chip": "ym2612"
    },
    {
      "channel": 1,
      "note": 49,
      "start": 35.249,
      "duration": 0.1632,
      "velocity": 120,
      "chip": "ym2612"
    },
    {
      "channel": 2,
      "note": 39,
      "start": 35.2653,
      "duration": 0.0305,
      "velocity": 119,
      "chip": "ym2612"
    },
    {
      "channel": 1,
      "note": 49,
      "start": 35.416,
      "duration": 0.1795,
      "velocity": 120,
      "chip": "ym2612"
    },
    {
      "channel": 2,
      "note": 39,
      "start": 35.4321,
      "duration": 0.0304,
      "velocity": 119,
      "chip": "ym2612"
    },
    {
      "channel": 5,
      "note": 68,
      "start": 35.4349,
      "duration": 0.0774,
      "velocity": 111,
      "chip": "ym2612"
    },
    {
      "channel": 1,
      "note": 49,
      "start": 35.7326,
      "duration": 0.113,
      "velocity": 120,
      "chip": "ym2612"
    },
    {
      "channel": 0,
      "note": 33,
      "start": 35.7653,
      "duration": 0.1636,
      "velocity": 67,
      "chip": "ym2612"
    },
    {
      "channel": 2,
      "note": 39,
      "start": 35.7677,
      "duration": 0.0115,
      "velocity": 119,
      "chip": "ym2612"
    },
    {
      "channel": 1,
      "note": 49,
      "start": 35.8991,
      "duration": 0.1298,
      "velocity": 120,
      "chip": "ym2612"
    },
    {
      "channel": 2,
      "note": 39,
      "start": 35.932,
      "duration": 0.0138,
      "velocity": 119,
      "chip": "ym2612"
    },
    {
      "channel": 1,
      "note": 49,
      "start": 36.0663,
      "duration": 0.1793,
      "velocity": 120,
      "chip": "ym2612"
    },
    {
      "channel": 2,
      "note": 39,
      "start": 36.0987,
      "duration": 0.0139,
      "velocity": 119,
      "chip": "ym2612"
    },
    {
      "channel": 5,
      "note": 68,
      "start": 36.1017,
      "duration": 0.0606,
      "velocity": 111,
      "chip": "ym2612"
    },
    {
      "channel": 1,
      "note": 49,
      "start": 36.3993,
      "duration": 0.0962,
      "velocity": 120,
      "chip": "ym2612"
    },
    {
      "channel": 3,
      "note": 49,
      "start": 36.4157,
      "duration": 0.1299,
      "velocity": 114,
      "chip": "ym2612"
    },
    {
      "channel": 0,
      "note": 51,
      "start": 36.4185,
      "duration": 0.0271,
      "velocity": 107,
      "chip": "ym2612"
    },
    {
      "channel": 5,
      "note": 61,
      "start": 36.4216,
      "duration": 0.0742,
      "velocity": 111,
      "chip": "ym2612"
    },
    {
      "channel": 1,
      "note": 49,
      "start": 36.5492,
      "duration": 0.1464,
      "velocity": 120,
      "chip": "ym2612"
    },
    {
      "channel": 3,
      "note": 50,
      "start": 36.5819,
      "duration": 0.1305,
      "velocity": 114,
      "chip": "ym2612"
    },
    {
      "channel": 0,
      "note": 51,
      "start": 36.5844,
      "duration": 0.0279,
      "velocity": 107,
      "chip": "ym2612"
    },
    {
      "channel": 4,
      "note": 74,
      "start": 36.7001,
      "duration": 5.2955,
      "velocity": 99,
      "chip": "ym2612"
    },
    {
      "channel": 1,
      "note": 49,
      "start": 36.7161,
      "duration": 0.1629,
      "velocity": 120,
      "chip": "ym2612"
    },
    {
      "channel": 3,
      "note": 52,
      "start": 36.7489,
      "duration": 0.6302,
      "velocity": 114,
      "chip": "ym2612"
    },
    {
      "channel": 2,
      "note": 33,
      "start": 36.7519,
      "duration": 0.1605,
      "velocity": 67,
      "chip": "ym2612"
    },
    {
      "channel": 5,
      "note": 68,
      "start": 36.7559,
      "duration": 0.0733,
      "velocity": 111,
      "chip": "ym2612"
    },
    {
      "channel": 1,
      "note": 49,
      "start": 37.0492,
      "duration": 0.1131,
      "velocity": 120,
      "chip": "ym2612"
    },
    {
      "channel": 2,
      "note": 39,
      "start": 37.082,
      "duration": 0.0138,
      "velocity": 119,
      "chip": "ym2612"
    },
    {
      "channel": 1,
      "note": 49,
      "start": 37.2158,
      "duration": 0.1632,
      "velocity": 120,
      "chip": "ym2612"
    },
    {
      "channel": 0,
      "note": 33,
      "start": 37.232,
      "duration": 0.1636,
      "velocity": 67,
      "chip": "ym2612"
    },
    {
      "channel": 2,
      "note": 39,
      "start": 37.2343,
      "duration": 0.0282,
      "velocity": 119,
      "chip": "ym2612"
    },
    {
      "channel": 1,
      "note": 49,
      "start": 37.3832,
      "duration": 0.1791,
      "velocity": 120,
      "chip": "ym2612"
    },
    {
      "channel": 3,
      "note": 54,
      "start": 37.399,
      "duration": 0.2967,
      "velocity": 114,
      "chip": "ym2612"
    },
    {
      "channel": 5,
      "note": 51,
      "start": 37.4017,
      "duration": 0.0273,
      "velocity": 107,
      "chip": "ym2612"
    },
    {
      "channel": 2,
      "note": 39,
      "start": 37.4043,
      "duration": 0.0249,
      "velocity": 119,
      "chip": "ym2612"
    },
    {
      "channel": 0,
      "note": 68,
      "start": 37.4073,
      "duration": 0.0716,
      "velocity": 111,
      "chip": "ym2612"
    },
    {
      "channel": 3,
      "note": 50,
      "start": 37.7327,
      "duration": 0.1295,
      "velocity": 114,
      "chip": "ym2612"
    },
    {
      "channel": 5,
      "note": 33,
      "start": 37.7358,
      "duration": 0.1599,
      "velocity": 67,
      "chip": "ym2612"
    },
    {
      "channel": 2,
      "note": 39,
      "start": 37.7382,
      "duration": 0.0243,
      "velocity": 119,
      "chip": "ym2612"
    },
    {
      "channel": 1,
      "note": 49,
      "start": 37.7412,
      "duration": 0.0711,
      "velocity": 120,
      "chip": "ym2612"
    },
    {
      "channel": 1,
      "note": 49,
      "start": 37.866,
      "duration": 0.163,
      "velocity": 120,
      "chip": "ym2612"
    },
    {
      "channel": 2,
      "note": 39,
      "start": 37.8985,
      "duration": 0.0139,
      "velocity": 119,
      "chip": "ym2612"
    },
    {
      "channel": 1,
      "note": 49,
      "start": 38.0326,
      "duration": 0.163,
      "velocity": 120,
      "chip": "ym2612"
    },
    {
      "channel": 2,
      "note": 39,
      "start": 38.0653,
      "duration": 0.0138,
      "velocity": 119,
      "chip": "ym2612"
    },
    {
      "channel": 0,
      "note": 68,
      "start": 38.0681,
      "duration": 0.0775,
      "velocity": 111,
      "chip": "ym2612"
    },
    {
      "channel": 1,
      "note": 49,
      "start": 38.366,
      "duration": 0.0963,
      "velocity": 120,
      "chip": "ym2612"
    },
    {
      "channel": 2,
      "note": 39,
      "start": 38.382,
      "duration": 0.0305,
      "velocity": 119,
      "chip": "ym2612"
    },
    {
      "channel": 1,
      "note": 49,
      "start": 38.5324,
      "duration": 0.1298,
      "velocity": 120,
      "chip": "ym2612"
    },
    {
      "channel": 2,
      "note": 39,
      "start": 38.5485,
      "duration": 0.0306,
      "velocity": 119,
      "chip": "ym2612"
    },
    {
      "channel": 1,
      "note": 49,
      "start": 38.6829,
      "duration": 0.1627,
      "velocity": 120,
      "chip": "ym2612"
    },
    {
      "channel": 3,
      "note": 51,
      "start": 38.7159,
      "duration": 0.0298,
      "velocity": 107,
      "chip": "ym2612"
    },
    {
      "channel": 2,
      "note": 39,
      "start": 38.7185,
      "duration": 0.0274,
      "velocity": 119,
      "chip": "ym2612"
    },
    {
      "channel": 0,
      "note": 68,
      "start": 38.7211,
      "duration": 0.0744,
      "velocity": 111,
      "chip": "ym2612"
    },
    {
      "channel": 2,
      "note": 39,
      "start": 39.0489,
      "duration": 0.0135,
      "velocity": 119,
      "chip": "ym2612"
    },
    {
      "channel": 1,
      "note": 49,
      "start": 39.0519,
      "duration": 0.077,
      "velocity": 120,
      "chip": "ym2612"
    },
    {
      "channel": 1,
      "note": 49,
      "start": 39.1825,
      "duration": 0.1297,
      "velocity": 120,
      "chip": "ym2612"
    },
    {
      "channel": 2,
      "note": 39,
      "start": 39.2151,
      "duration": 0.0139,
      "velocity": 119,
      "chip": "ym2612"
    },
    {
      "channel": 2,
      "note": 39,
      "start": 39.3653,
      "duration": 0.0305,
      "velocity": 119,
      "chip": "ym2612"
    },
    {
      "channel": 0,
      "note": 68,
      "start": 39.368,
      "duration": 0.0776,
      "velocity": 111,
      "chip": "ym2612"
    },
    {
      "channel": 1,
      "note": 49,
      "start": 39.3709,
      "duration": 0.158,
      "velocity": 120,
      "chip": "ym2612"
    },
    {
      "channel": 5,
      "note": 52,
      "start": 39.6991,
      "duration": 0.2968,
      "velocity": 114,
      "chip": "ym2612"
    },
    {
      "channel": 3,
      "note": 33,
      "start": 39.7024,
      "duration": 0.1599,
      "velocity": 67,
      "chip": "ym2612"
    },
    {
      "channel": 2,
      "note": 39,
      "start": 39.7049,
      "duration": 0.0243,
      "velocity": 119,
      "chip": "ym2612"
    },
    {
      "channel": 1,
      "note": 49,
      "start": 39.7078,
      "duration": 0.071,
      "velocity": 120,
      "chip": "ym2612"
    },
    {
      "channel": 1,
      "note": 49,
      "start": 39.8326,
      "duration": 0.163,
      "velocity": 120,
      "chip": "ym2612"
    },
    {
      "channel": 2,
      "note": 39,
      "start": 39.8652,
      "duration": 0.0305,
      "velocity": 119,
      "chip": "ym2612"
    },
    {
      "channel": 5,
      "note": 49,
      "start": 40.0323,
      "duration": 0.6301,
      "velocity": 114,
      "chip": "ym2612"
    },
    {
      "channel": 2,
      "note": 39,
      "start": 40.035,
      "duration": 0.0107,
      "velocity": 119,
      "chip": "ym2612"
    },
    {
      "channel": 0,
      "note": 68,
      "start": 40.0377,
      "duration": 0.0745,
      "velocity": 111,
      "chip": "ym2612"
    },
    {
      "channel": 1,
      "note": 49,
      "start": 40.0408,
      "duration": 0.1548,
      "velocity": 120,
      "chip": "ym2612"
    },
    {
      "channel": 3,
      "note": 33,
      "start": 40.3652,
      "duration": 0.1471,
      "velocity": 67,
      "chip": "ym2612"
    },
    {
      "channel": 2,
      "note": 39,
      "start": 40.3677,
      "duration": 0.0115,
      "velocity": 119,
      "chip": "ym2612"
    },
    {
      "channel": 1,
      "note": 49,
      "start": 40.3706,
      "duration": 0.0582,
      "velocity": 120,
      "chip": "ym2612"
    },
    {
      "channel": 2,
      "note": 39,
      "start": 40.5153,
      "duration": 0.0305,
      "velocity": 119,
      "chip": "ym2612"
    },
    {
      "channel": 1,
      "note": 49,
      "start": 40.5181,
      "duration": 0.1107,
      "velocity": 120,
      "chip": "ym2612"
    },
    {
      "channel": 5,
      "note": 50,
      "start": 40.6821,
      "duration": 0.1304,
      "velocity": 114,
      "chip": "ym2612"
    },
    {
      "channel": 2,
      "note": 39,
      "start": 40.6847,
      "duration": 0.0277,
      "velocity": 119,
      "chip": "ym2612"
    },
    {
      "channel": 0,
      "note": 68,
      "start": 40.6879,
      "duration": 0.0744,
      "velocity": 111,
      "chip": "ym2612"
    },
    {
      "channel": 1,
      "note": 49,
      "start": 40.6907,
      "duration": 0.1216,
      "velocity": 120,
      "chip": "ym2612"
    },
    {
      "channel": 3,
      "note": 33,
      "start": 41.0153,
      "duration": 0.1637,
      "velocity": 67,
      "chip": "ym2612"
    },
    {
      "channel": 2,
      "note": 39,
      "start": 41.0181,
      "duration": 0.0277,
      "velocity": 119,
      "chip": "ym2612"
    },
    {
      "channel": 1,
      "note": 49,
      "start": 41.0211,
      "duration": 0.0746,
      "velocity": 120,
      "chip": "ym2612"
    },
    {
      "channel": 2,
      "note": 39,
      "start": 41.182,
      "duration": 0.0139,
      "velocity": 119,
      "chip": "ym2612"
    },
    {
      "channel": 1,
      "note": 49,
      "start": 41.1848,
      "duration": 0.1273,
      "velocity": 120,
      "chip": "ym2612"
    },
    {
      "channel": 5,
      "note": 50,
      "start": 41.3487,
      "duration": 0.1304,
      "velocity": 114,
      "chip": "ym2612"
    },
    {
      "channel": 2,
      "note": 39,
      "start": 41.3513,
      "duration": 0.0111,
      "velocity": 119,
      "chip": "ym2612"
    },
    {
      "channel": 0,
      "note": 68,
      "start": 41.3541,
      "duration": 0.0747,
      "velocity": 111,
      "chip": "ym2612"
    },
    {
      "channel": 1,
      "note": 49,
      "start": 41.3574,
      "duration": 0.1382,
      "velocity": 120,
      "chip": "ym2612"
    },
    {
      "channel": 3,
      "note": 51,
      "start": 41.6655,
      "duration": 0.0302,
      "velocity": 107,
      "chip": "ym2612"
    },
    {
      "channel": 0,
      "note": 61,
      "start": 41.6684,
      "duration": 0.0771,
      "velocity": 111,
      "chip": "ym2612"
    },
    {
      "channel": 1,
      "note": 49,
      "start": 41.6712,
      "duration": 0.1076,
      "velocity": 120,
      "chip": "ym2612"
    },
    {
      "channel": 3,
      "note": 51,
      "start": 41.832,
      "duration": 0.0304,
      "velocity": 107,
      "chip": "ym2612"
    },
    {
      "channel": 1,
      "note": 49,
      "start": 41.835,
      "duration": 0.1273,
      "velocity": 120,
      "chip": "ym2612"
    },
    {
      "channel": 5,
      "note": 50,
      "start": 41.999,
      "duration": 0.4633,
      "velocity": 114,
      "chip": "ym2612"
    },
    {
      "channel": 2,
      "note": 33,
      "start": 42.002,
      "duration": 0.1604,
      "velocity": 67,
      "chip": "ym2612"
    },
    {
      "channel": 0,
      "note": 68,
      "start": 42.0054,
      "duration": 0.0734,
      "velocity": 111,
      "chip": "ym2612"
    },
    {
      "channel": 1,
      "note": 49,
      "start": 42.0083,
      "duration": 0.104,
      "velocity": 120,
      "chip": "ym2612"
    },
    {
      "channel": 4,
      "note": 76,
      "start": 42.0117,
      "duration": 5.2006,
      "velocity": 99,
      "chip": "ym2612"
    },
    {
      "channel": 2,
      "note": 39,
      "start": 42.332,
      "duration": 0.0138,
      "velocity": 119,
      "chip": "ym2612"
    },
    {
      "channel": 1,
      "note": 49,
      "start": 42.3349,
      "duration": 0.044,
      "velocity": 120,
      "chip": "ym2612"
    },
    {
      "channel": 5,
      "note": 47,
      "start": 42.4994,
      "duration": 0.1297,
      "velocity": 114,
      "chip": "ym2612"
    },
    {
      "channel": 3,
      "note": 33,
      "start": 42.5021,
      "duration": 0.1434,
      "velocity": 67,
      "chip": "ym2612"
    },
    {
      "channel": 2,
      "note": 39,
      "start": 42.5044,
      "duration": 0.0081,
      "velocity": 119,
      "chip": "ym2612"
    },
    {
      "channel": 1,
      "note": 49,
      "start": 42.5072,
      "duration": 0.0884,
      "velocity": 120,
      "chip": "ym2612"
    },
    {
      "channel": 5,
      "note": 50,
      "start": 42.649,
      "duration": 0.2966,
      "velocity": 114,
      "chip": "ym2612"
    },
    {
      "channel": 0,
      "note": 51,
      "start": 42.6518,
      "duration": 0.0271,
      "velocity": 107,
      "chip": "ym2612"
    },
    {
      "channel": 2,
      "note": 39,
      "start": 42.6543,
      "duration": 0.0249,
      "velocity": 119,
      "chip": "ym2612"
    },
    {
      "channel": 1,
      "note": 68,
      "start": 42.6573,
      "duration": 0.0717,
      "velocity": 111,
      "chip": "ym2612"
    },
    {
      "channel": 3,
      "note": 49,
      "start": 42.6607,
      "duration": 0.1349,
      "velocity": 120,
      "chip": "ym2612"
    },
    {
      "channel": 5,
      "note": 49,
      "start": 42.9824,
      "duration": 0.1299,
      "velocity": 114,
      "chip": "ym2612"
    },
    {
      "channel": 0,
      "note": 33,
      "start": 42.9854,
      "duration": 0.1602,
      "velocity": 67,
      "chip": "ym2612"
    },
    {
      "channel": 2,
      "note": 39,
      "start": 42.9879,
      "duration": 0.0245,
      "velocity": 119,
      "chip": "ym2612"
    },
    {
      "channel": 3,
      "note": 49,
      "start": 42.9909,
      "duration": 0.0381,
      "velocity": 120,
      "chip": "ym2612"
    },
    {
      "channel": 3,
      "note": 49,
      "start": 43.116,
      "duration": 0.1296,
      "velocity": 120,
      "chip": "ym2612"
    },
    {
      "channel": 2,
      "note": 39,
      "start": 43.1486,
      "duration": 0.0305,
      "velocity": 119,
      "chip": "ym2612"
    },
    {
      "channel": 2,
      "note": 39,
      "start": 43.3153,
      "duration": 0.0138,
      "velocity": 119,
      "chip": "ym2612"
    },
    {
      "channel": 1,
      "note": 68,
      "start": 43.318,
      "duration": 0.0776,
      "velocity": 111,
      "chip": "ym2612"
    },
    {
      "channel": 3,
      "note": 49,
      "start": 43.3207,
      "duration": 0.1248,
      "velocity": 120,
      "chip": "ym2612"
    },
    {
      "channel": 2,
      "note": 39,
      "start": 43.6323,
      "duration": 0.0301,
      "velocity": 119,
      "chip": "ym2612"
    },
    {
      "channel": 3,
      "note": 49,
      "start": 43.6353,
      "duration": 0.0604,
      "velocity": 120,
      "chip": "ym2612"
    },
    {
      "channel": 3,
      "note": 49,
      "start": 43.7827,
      "duration": 0.1296,
      "velocity": 120,
      "chip": "ym2612"
    },
    {
      "channel": 2,
      "note": 39,
      "start": 43.7985,
      "duration": 0.0307,
      "velocity": 119,
      "chip": "ym2612"
    },
    {
      "channel": 3,
      "note": 49,
      "start": 43.9497,
      "duration": 0.146,
      "velocity": 120,
      "chip": "ym2612"
    },
    {
      "channel": 5,
      "note": 51,
      "start": 43.9655,
      "duration": 0.0302,
      "velocity": 107,
      "chip": "ym2612"
    },
    {
      "channel": 2,
      "note": 39,
      "start": 43.9681,
      "duration": 0.0277,
      "velocity": 119,
      "chip": "ym2612"
    },
    {
      "channel": 1,
      "note": 68,
      "start": 43.9709,
      "duration": 0.0747,
      "velocity": 111,
      "chip": "ym2612"
    },
    {
      "channel": 2,
      "note": 39,
      "start": 44.2986,
      "duration": 0.0139,
      "velocity": 119,
      "chip": "ym2612"
    },
    {
      "channel": 3,
      "note": 49,
      "start": 44.3017,
      "duration": 0.0773,
      "velocity": 120,
      "chip": "ym2612"
    },
    {
      "channel": 3,
      "note": 49,
      "start": 44.4328,
      "duration": 0.1295,
      "velocity": 120,
      "chip": "ym2612"
    },
    {
      "channel": 2,
      "note": 39,
      "start": 44.4652,
      "duration": 0.0139,
      "velocity": 119,
      "chip": "ym2612"
    },
    {
      "channel": 3,
      "note": 49,
      "start": 44.5994,
      "duration": 0.1629,
      "velocity": 120,
      "chip": "ym2612"
    },
    {
      "channel": 2,
      "note": 39,
      "start": 44.632,
      "duration": 0.0137,
      "velocity": 119,
      "chip": "ym2612"
    },
    {
      "channel": 1,
      "note": 68,
      "start": 44.6348,
      "duration": 0.0607,
      "velocity": 111,
      "chip": "ym2612"
    },
    {
      "channel": 3,
      "note": 49,
      "start": 44.9327,
      "duration": 0.0962,
      "velocity": 120,
      "chip": "ym2612"
    },
    {
      "channel": 0,
      "note": 33,
      "start": 44.9486,
      "duration": 0.1635,
      "velocity": 67,
      "chip": "ym2612"
    },
    {
      "channel": 2,
      "note": 39,
      "start": 44.9511,
      "duration": 0.028,
      "velocity": 119,
      "chip": "ym2612"
    },
    {
      "channel": 3,
      "note": 49,
      "start": 45.0829,
      "duration": 0.1461,
      "velocity": 120,
      "chip": "ym2612"
    },
    {
      "channel": 2,
      "note": 39,
      "start": 45.1152,
      "duration": 0.0305,
      "velocity": 119,
      "chip": "ym2612"
    },
    {
      "channel": 3,
      "note": 49,
      "start": 45.2493,
      "duration": 0.1629,
      "velocity": 120,
      "chip": "ym2612"
    },
    {
      "channel": 2,
      "note": 39,
      "start": 45.282,
      "duration": 0.0305,
      "velocity": 119,
      "chip": "ym2612"
    },
    {
      "channel": 1,
      "note": 68,
      "start": 45.2847,
      "duration": 0.0776,
      "velocity": 111,
      "chip": "ym2612"
    },
    {
      "channel": 3,
      "note": 49,
      "start": 45.5826,
      "duration": 0.1131,
      "velocity": 120,
      "chip": "ym2612"
    },
    {
      "channel": 0,
      "note": 33,
      "start": 45.6151,
      "duration": 0.147,
      "velocity": 67,
      "chip": "ym2612"
    },
    {
      "channel": 2,
      "note": 39,
      "start": 45.6179,
      "duration": 0.0112,
      "velocity": 119,
      "chip": "ym2612"
    },
    {
      "channel": 3,
      "note": 49,
      "start": 45.7492,
      "duration": 0.1631,
      "velocity": 120,
      "chip": "ym2612"
    },
    {
      "channel": 2,
      "note": 39,
      "start": 45.7653,
      "duration": 0.0305,
      "velocity": 119,
      "chip": "ym2612"
    },
    {
      "channel": 3,
      "note": 49,
      "start": 45.916,
      "duration": 0.1796,
      "velocity": 120,
      "chip": "ym2612"
    },
    {
      "channel": 2,
      "note": 39,
      "start": 45.932,
      "duration": 0.0305,
      "velocity": 119,
      "chip": "ym2612"
    },
    {
      "channel": 1,
      "note": 68,
      "start": 45.9347,
      "duration": 0.0776,
      "velocity": 111,
      "chip": "ym2612"
    },
    {
      "channel": 3,
      "note": 49,
      "start": 46.2326,
      "duration": 0.1131,
      "velocity": 120,
      "chip": "ym2612"
    },
    {
      "channel": 0,
      "note": 33,
      "start": 46.2653,
      "duration": 0.1636,
      "velocity": 67,
      "chip": "ym2612"
    },
    {
      "channel": 2,
      "note": 39,
      "start": 46.2678,
      "duration": 0.028,
      "velocity": 119,
      "chip": "ym2612"
    },
    {
      "channel": 3,
      "note": 49,
      "start": 46.3996,
      "duration": 0.1293,
      "velocity": 120,
      "chip": "ym2612"
    },
    {
      "channel": 2,
      "note": 39,
      "start": 46.432,
      "duration": 0.0139,
      "velocity": 119,
      "chip": "ym2612"
    },
    {
      "channel": 3,
      "note": 49,
      "start": 46.566,
      "duration": 0.1963,
      "velocity": 120,
      "chip": "ym2612"
    },
    {
      "channel": 2,
      "note": 39,
      "start": 46.5986,
      "duration": 0.0139,
      "velocity": 119,
      "chip": "ym2612"
    },
    {
      "channel": 1,
      "note": 68,
      "start": 46.6015,
      "duration": 0.0774,
      "velocity": 111,
      "chip": "ym2612"
    },
    {
      "channel": 3,
      "note": 49,
      "start": 46.8994,
      "duration": 0.0964,
      "velocity": 120,
      "chip": "ym2612"
    },
    {
      "channel": 5,
      "note": 51,
      "start": 46.9154,
      "duration": 0.0303,
      "velocity": 107,
      "chip": "ym2612"
    },
    {
      "channel": 1,
      "note": 61,
      "start": 46.9184,
      "duration": 0.0772,
      "velocity": 111,
      "chip": "ym2612"
    },
    {
      "channel": 3,
      "note": 49,
      "start": 47.0659,
      "duration": 0.1296,
      "velocity": 120,
      "chip": "ym2612"
    },
    {
      "channel": 5,
      "note": 51,
      "start": 47.0821,
      "duration": 0.0303,
      "velocity": 107,
      "chip": "ym2612"
    },
    {
      "channel": 3,
      "note": 49,
      "start": 47.2161,
      "duration": 0.1629,
      "velocity": 120,
      "chip": "ym2612"
    },
    {
      "channel": 0,
      "note": 50,
      "start": 47.249,
      "duration": 0.4633,
      "velocity": 114,
      "chip": "ym2612"
    },
    {
      "channel": 2,
      "note": 33,
      "start": 47.2523,
      "duration": 0.1601,
      "velocity": 67,
      "chip": "ym2612"
    },
    {
      "channel": 1,
      "note": 68,
      "start": 47.2561,
      "duration": 0.0729,
      "velocity": 111,
      "chip": "ym2612"
    },
    {
      "channel": 4,
      "note": 78,
      "start": 47.2601,
      "duration": 5.269,
      "velocity": 99,
      "chip": "ym2612"
    },
    {
      "channel": 3,
      "note": 49,
      "start": 47.5493,
      "duration": 0.113,
      "velocity": 120,
      "chip": "ym2612"
    },
    {
      "channel": 2,
      "note": 39,
      "start": 47.5821,
      "duration": 0.0137,
      "velocity": 119,
      "chip": "ym2612"
    },
    {
      "channel": 3,
      "note": 49,
      "start": 47.7163,
      "duration": 0.1627,
      "velocity": 120,
      "chip": "ym2612"
    },
    {
      "channel": 0,
      "note": 47,
      "start": 47.7487,
      "duration": 0.1301,
      "velocity": 114,
      "chip": "ym2612"
    },
    {
      "channel": 5,
      "note": 33,
      "start": 47.7514,
      "duration": 0.1443,
      "velocity": 67,
      "chip": "ym2612"
    },
    {
      "channel": 2,
      "note": 39,
      "start": 47.7537,
      "duration": 0.0088,
      "velocity": 119,
      "chip": "ym2612"
    },
    {
      "channel": 3,
      "note": 49,
      "start": 47.8828,
      "duration": 0.1795,
      "velocity": 120,
      "chip": "ym2612"
    },
    {
      "channel": 0,
      "note": 50,
      "start": 47.8992,
      "duration": 0.3131,
      "velocity": 114,
      "chip": "ym2612"
    },
    {
      "channel": 1,
      "note": 51,
      "start": 47.902,
      "duration": 0.027,
      "velocity": 107,
      "chip": "ym2612"
    },
    {
      "channel": 2,
      "note": 39,
      "start": 47.9045,
      "duration": 0.0248,
      "velocity": 119,
      "chip": "ym2612"
    },
    {
      "channel": 5,
      "note": 68,
      "start": 47.9075,
      "duration": 0.0716,
      "velocity": 111,
      "chip": "ym2612"
    },
    {
      "channel": 0,
      "note": 49,
      "start": 48.2323,
      "duration": 0.13,
      "velocity": 114,
      "chip": "ym2612"
    },
    {
      "channel": 1,
      "note": 33,
      "start": 48.2353,
      "duration": 0.1603,
      "velocity": 67,
      "chip": "ym2612"
    },
    {
      "channel": 2,
      "note": 39,
      "start": 48.2381,
      "duration": 0.0243,
      "velocity": 119,
      "chip": "ym2612"
    },
    {
      "channel": 3,
      "note": 49,
      "start": 48.2411,
      "duration": 0.0712,
      "velocity": 120,
      "chip": "ym2612"
    },
    {
      "channel": 3,
      "note": 49,
      "start": 48.3661,
      "duration": 0.1629,
      "velocity": 120,
      "chip": "ym2612"
    },
    {
      "channel": 2,
      "note": 39,
      "start": 48.3987,
      "duration": 0.0305,
      "velocity": 119,
      "chip": "ym2612"
    },
    {
      "channel": 3,
      "note": 49,
      "start": 48.5327,
      "duration": 0.1629,
      "velocity": 120,
      "chip": "ym2612"
    },
    {
      "channel": 2,
      "note": 39,
      "start": 48.5653,
      "duration": 0.0139,
      "velocity": 119,
      "chip": "ym2612"
    },
    {
      "channel": 5,
      "note": 68,
      "start": 48.5682,
      "duration": 0.0775,
      "velocity": 111,
      "chip": "ym2612"
    },
    {
      "channel": 3,
      "note": 49,
      "start": 48.866,
      "duration": 0.0964,
      "velocity": 120,
      "chip": "ym2612"
    },
    {
      "channel": 2,
      "note": 39,
      "start": 48.8986,
      "duration": 0.0139,
      "velocity": 119,
      "chip": "ym2612"
    },
    {
      "channel": 3,
      "note": 49,
      "start": 49.0329,
      "duration": 0.1294,
      "velocity": 120,
      "chip": "ym2612"
    },
    {
      "channel": 2,
      "note": 39,
      "start": 49.0484,
      "duration": 0.0307,
      "velocity": 119,
      "chip": "ym2612"
    },
    {
      "channel": 3,
      "note": 49,
      "start": 49.1994,
      "duration": 0.1463,
      "velocity": 120,
      "chip": "ym2612"
    },
    {
      "channel": 0,
      "note": 51,
      "start": 49.2159,
      "duration": 0.0297,
      "velocity": 107,
      "chip": "ym2612"
    },
    {
      "channel": 2,
      "note": 39,
      "start": 49.2184,
      "duration": 0.0276,
      "velocity": 119,
      "chip": "ym2612"
    },
    {
      "channel": 5,
      "note": 68,
      "start": 49.2213,
      "duration": 0.0744,
      "velocity": 111,
      "chip": "ym2612"
    },
    {
      "channel": 2,
      "note": 39,
      "start": 49.5487,
      "duration": 0.0305,
      "velocity": 119,
      "chip": "ym2612"
    },
    {
      "channel": 3,
      "note": 49,
      "start": 49.5517,
      "duration": 0.0774,
      "velocity": 120,
      "chip": "ym2612"
    },
    {
      "channel": 3,
      "note": 49,
      "start": 49.6826,
      "duration": 0.1297,
      "velocity": 120,
      "chip": "ym2612"
    },
    {
      "channel": 2,
      "note": 39,
      "start": 49.7151,
      "duration": 0.014,
      "velocity": 119,
      "chip": "ym2612"
    },
    {
      "channel": 2,
      "note": 39,
      "start": 49.882,
      "duration": 0.0139,
      "velocity": 119,
      "chip": "ym2612"
    },
    {
      "channel": 5,
      "note": 68,
      "start": 49.8848,
      "duration": 0.0776,
      "velocity": 111,
      "chip": "ym2612"
    },
    {
      "channel": 3,
      "note": 49,
      "start": 49.8877,
      "duration": 0.1412,
      "velocity": 120,
      "chip": "ym2612"
    },
    {
      "channel": 1,
      "note": 33,
      "start": 50.1986,
      "duration": 0.1637,
      "velocity": 67,
      "chip": "ym2612"
    },
    {
      "channel": 2,
      "note": 39,
      "start": 50.2014,
      "duration": 0.0277,
      "velocity": 119,
      "chip": "ym2612"
    },
    {
      "channel": 3,
      "note": 49,
      "start": 50.2044,
      "duration": 0.0746,
      "velocity": 120,
      "chip": "ym2612"
    },
    {
      "channel": 3,
      "note": 49,
      "start": 50.3498,
      "duration": 0.1459,
      "velocity": 120,
      "chip": "ym2612"
    },
    {
      "channel": 2,
      "note": 39,
      "start": 50.3653,
      "duration": 0.0305,
      "velocity": 119,
      "chip": "ym2612"
    },
    {
      "channel": 2,
      "note": 39,
      "start": 50.532,
      "duration": 0.0305,
      "velocity": 119,
      "chip": "ym2612"
    },
    {
      "channel": 5,
      "note": 68,
      "start": 50.5349,
      "duration": 0.0776,
      "velocity": 111,
      "chip": "ym2612"
    },
    {
      "channel": 3,
      "note": 49,
      "start": 50.5376,
      "duration": 0.1581,
      "velocity": 120,
      "chip": "ym2612"
    },
    {
      "channel": 1,
      "note": 33,
      "start": 50.8651,
      "duration": 0.1639,
      "velocity": 67,
      "chip": "ym2612"
    },
    {
      "channel": 2,
      "note": 39,
      "start": 50.8676,
      "duration": 0.0116,
      "velocity": 119,
      "chip": "ym2612"
    },
    {
      "channel": 3,
      "note": 49,
      "start": 50.8705,
      "duration": 0.0751,
      "velocity": 120,
      "chip": "ym2612"
    },
    {
      "channel": 2,
      "note": 39,
      "start": 51.032,
      "duration": 0.0138,
      "velocity": 119,
      "chip": "ym2612"
    },
    {
      "channel": 3,
      "note": 49,
      "start": 51.0349,
      "duration": 0.0941,
      "velocity": 120,
      "chip": "ym2612"
    },
    {
      "channel": 2,
      "note": 39,
      "start": 51.182,
      "duration": 0.0304,
      "velocity": 119,
      "chip": "ym2612"
    },
    {
      "channel": 5,
      "note": 68,
      "start": 51.1849,
      "duration": 0.0775,
      "velocity": 111,
      "chip": "ym2612"
    },
    {
      "channel": 3,
      "note": 49,
      "start": 51.1879,
      "duration": 0.1411,
      "velocity": 120,
      "chip": "ym2612"
    },
    {
      "channel": 1,
      "note": 33,
      "start": 51.5153,
      "duration": 0.1636,
      "velocity": 67,
      "chip": "ym2612"
    },
    {
      "channel": 2,
      "note": 39,
      "start": 51.5178,
      "duration": 0.028,
      "velocity": 119,
      "chip": "ym2612"
    },
    {
      "channel": 3,
      "note": 49,
      "start": 51.5208,
      "duration": 0.0748,
      "velocity": 120,
      "chip": "ym2612"
    },
    {
      "channel": 2,
      "note": 39,
      "start": 51.682,
      "duration": 0.0305,
      "velocity": 119,
      "chip": "ym2612"
    },
    {
      "channel": 3,
      "note": 49,
      "start": 51.6852,
      "duration": 0.127,
      "velocity": 120,
      "chip": "ym2612"
    },
    {
      "channel": 2,
      "note": 39,
      "start": 51.8486,
      "duration": 0.0139,
      "velocity": 119,
      "chip": "ym2612"
    },
    {
      "channel": 5,
      "note": 68,
      "start": 51.8517,
      "duration": 0.0774,
      "velocity": 111,
      "chip": "ym2612"
    },
    {
      "channel": 3,
      "note": 49,
      "start": 51.8545,
      "duration": 0.1578,
      "velocity": 120,
      "chip": "ym2612"
    },
    {
      "channel": 0,
      "note": 51,
      "start": 52.1651,
      "duration": 0.0303,
      "velocity": 107,
      "chip": "ym2612"
    },
    {
      "channel": 5,
      "note": 61,
      "start": 52.1683,
      "duration": 0.0774,
      "velocity": 111,
      "chip": "ym2612"
    },
    {
      "channel": 3,
      "note": 49,
      "start": 52.1712,
      "duration": 0.1078,
      "velocity": 120,
      "chip": "ym2612"
    },
    {
      "channel": 1,
      "note": 83,
      "start": 52.1742,
      "duration": 0.3214,
      "velocity": 114,
      "chip": "ym2612"
    },
    {
      "channel": 0,
      "note": 51,
      "start": 52.3318,
      "duration": 0.0303,
      "velocity": 107,
      "chip": "ym2612"
    },
    {
      "channel": 3,
      "note": 49,
      "start": 52.3349,
      "duration": 0.144,
      "velocity": 120,
      "chip": "ym2612"
    },
    {
      "channel": 2,
      "note": 50,
      "start": 52.4993,
      "duration": 0.4632,
      "velocity": 114,
      "chip": "ym2612"
    },
    {
      "channel": 5,
      "note": 33,
      "start": 52.5022,
      "duration": 0.1602,
      "velocity": 67,
      "chip": "ym2612"
    },
    {
      "channel": 0,
      "note": 68,
      "start": 52.5059,
      "duration": 0.0729,
      "velocity": 111,
      "chip": "ym2612"
    },
    {
      "channel": 3,
      "note": 49,
      "start": 52.5088,
      "duration": 0.1035,
      "velocity": 120,
      "chip": "ym2612"
    },
    {
      "channel": 1,
      "note": 85,
      "start": 52.5124,
      "duration": 4.9165,
      "velocity": 114,
      "chip": "ym2612"
    },
    {
      "channel": 3,
      "note": 49,
      "start": 52.8335,
      "duration": 0.0455,
      "velocity": 120,
      "chip": "ym2612"
    },
    {
      "channel": 2,
      "note": 47,
      "start": 52.9991,
      "duration": 0.13,
      "velocity": 114,
      "chip": "ym2612"
    },
    {
      "channel": 5,
      "note": 33,
      "start": 53.0018,
      "duration": 0.1606,
      "velocity": 67,
      "chip": "ym2612"
    },
    {
      "channel": 3,
      "note": 49,
      "start": 53.0055,
      "duration": 0.0901,
      "velocity": 120,
      "chip": "ym2612"
    },
    {
      "channel": 2,
      "note": 50,
      "start": 53.1659,
      "duration": 0.2965,
      "velocity": 114,
      "chip": "ym2612"
    },
    {
      "channel": 4,
      "note": 51,
      "start": 53.1686,
      "duration": 0.0104,
      "velocity": 107,
      "chip": "ym2612"
    },
    {
      "channel": 0,
      "note": 68,
      "start": 53.1721,
      "duration": 0.0567,
      "velocity": 111,
      "chip": "ym2612"
    },
    {
      "channel": 3,
      "note": 49,
      "start": 53.1749,
      "duration": 0.1207,
      "velocity": 120,
      "chip": "ym2612"
    },
    {
      "channel": 2,
      "note": 49,
      "start": 53.4829,
      "duration": 0.1295,
      "velocity": 114,
      "chip": "ym2612"
    },
    {
      "channel": 5,
      "note": 33,
      "start": 53.4858,
      "duration": 0.1599,
      "velocity": 67,
      "chip": "ym2612"
    },
    {
      "channel": 3,
      "note": 49,
      "start": 53.4895,
      "duration": 0.0562,
      "velocity": 120,
      "chip": "ym2612"
    },
    {
      "channel": 3,
      "note": 49,
      "start": 53.616,
      "duration": 0.1463,
      "velocity": 120,
      "chip": "ym2612"
    },
    {
      "channel": 2,
      "note": 39,
      "start": 53.6485,
      "duration": 0.0305,
      "velocity": 119,
      "chip": "ym2612"
    },
    {
      "channel": 2,
      "note": 39,
      "start": 53.8153,
      "duration": 0.0305,
      "velocity": 119,
      "chip": "ym2612"
    },
    {
      "channel": 0,
      "note": 68,
      "start": 53.818,
      "duration": 0.0776,
      "velocity": 111,
      "chip": "ym2612"
    },
    {
      "channel": 3,
      "note": 49,
      "start": 53.8207,
      "duration": 0.1249,
      "velocity": 120,
      "chip": "ym2612"
    },
    {
      "channel": 2,
      "note": 39,
      "start": 54.1487,
      "duration": 0.0138,
      "velocity": 119,
      "chip": "ym2612"
    },
    {
      "channel": 3,
      "note": 49,
      "start": 54.1517,
      "duration": 0.044,
      "velocity": 120,
      "chip": "ym2612"
    },
    {
      "channel": 3,
      "note": 49,
      "start": 54.283,
      "duration": 0.1293,
      "velocity": 120,
      "chip": "ym2612"
    },
    {
      "channel": 2,
      "note": 39,
      "start": 54.2985,
      "duration": 0.0306,
      "velocity": 119,
      "chip": "ym2612"
    },
    {
      "channel": 3,
      "note": 49,
      "start": 54.4494,
      "duration": 0.163,
      "velocity": 120,
      "chip": "ym2612"
    },
    {
      "channel": 4,
      "note": 51,
      "start": 54.4654,
      "duration": 0.0303,
      "velocity": 107,
      "chip": "ym2612"
    },
    {
      "channel": 2,
      "note": 39,
      "start": 54.4679,
      "duration": 0.028,
      "velocity": 119,
      "chip": "ym2612"
    },
    {
      "channel": 0,
      "note": 68,
      "start": 54.4706,
      "duration": 0.075,
      "velocity": 111,
      "chip": "ym2612"
    },
    {
      "channel": 2,
      "note": 39,
      "start": 54.799,
      "duration": 0.03,
      "velocity": 119,
      "chip": "ym2612"
    },
    {
      "channel": 3,
      "note": 49,
      "start": 54.8021,
      "duration": 0.0769,
      "velocity": 120,
      "chip": "ym2612"
    },
    {
      "channel": 3,
      "note": 49,
      "start": 54.9326,
      "duration": 0.1296,
      "velocity": 120,
      "chip": "ym2612"
    },
    {
      "channel": 2,
      "note": 39,
      "start": 54.9651,
      "duration": 0.0139,
      "velocity": 119,
      "chip": "ym2612"
    },
    {
      "channel": 3,
      "note": 49,
      "start": 55.0993,
      "duration": 0.1631,
      "velocity": 120,
      "chip": "ym2612"
    },
    {
      "channel": 2,
      "note": 39,
      "start": 55.132,
      "duration": 0.0138,
      "velocity": 119,
      "chip": "ym2612"
    },
    {
      "channel": 0,
      "note": 68,
      "start": 55.1347,
      "duration": 0.0775,
      "velocity": 111,
      "chip": "ym2612"
    },
    {
      "channel": 3,
      "note": 49,
      "start": 55.433,
      "duration": 0.096,
      "velocity": 120,
      "chip": "ym2612"
    },
    {
      "channel": 5,
      "note": 33,
      "start": 55.4493,
      "duration": 0.1632,
      "velocity": 67,
      "chip": "ym2612"
    },
    {
      "channel": 2,
      "note": 39,
      "start": 55.4517,
      "duration": 0.0276,
      "velocity": 119,
      "chip": "ym2612"
    },
    {
      "channel": 3,
      "note": 49,
      "start": 55.5992,
      "duration": 0.1298,
      "velocity": 120,
      "chip": "ym2612"
    },
    {
      "channel": 2,
      "note": 39,
      "start": 55.6153,
      "duration": 0.0305,
      "velocity": 119,
      "chip": "ym2612"
    },
    {
      "channel": 3,
      "note": 49,
      "start": 55.7493,
      "duration": 0.1629,
      "velocity": 120,
      "chip": "ym2612"
    },
    {
      "channel": 2,
      "note": 39,
      "start": 55.782,
      "duration": 0.0305,
      "velocity": 119,
      "chip": "ym2612"
    },
    {
      "channel": 0,
      "note": 68,
      "start": 55.7851,
      "duration": 0.0771,
      "velocity": 111,
      "chip": "ym2612"
    },
    {
      "channel": 3,
      "note": 49,
      "start": 56.0826,
      "duration": 0.1131,
      "velocity": 120,
      "chip": "ym2612"
    },
    {
      "channel": 5,
      "note": 33,
      "start": 56.1154,
      "duration": 0.1636,
      "velocity": 67,
      "chip": "ym2612"
    },
    {
      "channel": 2,
      "note": 39,
      "start": 56.1178,
      "duration": 0.0113,
      "velocity": 119,
      "chip": "ym2612"
    },
    {
      "channel": 3,
      "note": 49,
      "start": 56.2492,
      "duration": 0.163,
      "velocity": 120,
      "chip": "ym2612"
    },
    {
      "channel": 2,
      "note": 39,
      "start": 56.2818,
      "duration": 0.0139,
      "velocity": 119,
      "chip": "ym2612"
    },
    {
      "channel": 3,
      "note": 49,
      "start": 56.416,
      "duration": 0.1797,
      "velocity": 120,
      "chip": "ym2612"
    },
    {
      "channel": 2,
      "note": 39,
      "start": 56.432,
      "duration": 0.0304,
      "velocity": 119,
      "chip": "ym2612"
    },
    {
      "channel": 0,
      "note": 68,
      "start": 56.4347,
      "duration": 0.0776,
      "velocity": 111,
      "chip": "ym2612"
    },
    {
      "channel": 3,
      "note": 49,
      "start": 56.7496,
      "duration": 0.0959,
      "velocity": 120,
      "chip": "ym2612"
    },
    {
      "channel": 5,
      "note": 33,
      "start": 56.7654,
      "duration": 0.1636,
      "velocity": 67,
      "chip": "ym2612"
    },
    {
      "channel": 2,
      "note": 39,
      "start": 56.7679,
      "duration": 0.0279,
      "velocity": 119,
      "chip": "ym2612"
    },
    {
      "channel": 3,
      "note": 49,
      "start": 56.8992,
      "duration": 0.1465,
      "velocity": 120,
      "chip": "ym2612"
    },
    {
      "channel": 2,
      "note": 39,
      "start": 56.9323,
      "duration": 0.0302,
      "velocity": 119,
      "chip": "ym2612"
    },
    {
      "channel": 3,
      "note": 49,
      "start": 57.066,
      "duration": 0.1963,
      "velocity": 120,
      "chip": "ym2612"
    },
    {
      "channel": 2,
      "note": 39,
      "start": 57.0986,
      "duration": 0.0139,
      "velocity": 119,
      "chip": "ym2612"
    },
    {
      "channel": 0,
      "note": 68,
      "start": 57.1015,
      "duration": 0.0774,
      "velocity": 111,
      "chip": "ym2612"
    },
    {
      "channel": 3,
      "note": 49,
      "start": 57.3993,
      "duration": 0.0964,
      "velocity": 120,
      "chip": "ym2612"
    },
    {
      "channel": 4,
      "note": 51,
      "start": 57.432,
      "duration": 0.0137,
      "velocity": 107,
      "chip": "ym2612"
    },
    {
      "channel": 0,
      "note": 61,
      "start": 57.4349,
      "duration": 0.0606,
      "velocity": 111,
      "chip": "ym2612"
    },
    {
      "channel": 1,
      "note": 83,
      "start": 57.4379,
      "duration": 0.3076,
      "velocity": 114,
      "chip": "ym2612"
    },
    {
      "channel": 3,
      "note": 49,
      "start": 57.5659,
      "duration": 0.1298,
      "velocity": 120,
      "chip": "ym2612"
    },
    {
      "channel": 4,
      "note": 51,
      "start": 57.582,
      "duration": 0.0304,
      "velocity": 107,
      "chip": "ym2612"
    },
    {
      "channel": 3,
      "note": 49,
      "start": 57.7327,
      "duration": 0.1463,
      "velocity": 120,
      "chip": "ym2612"
    },
    {
      "channel": 5,
      "note": 50,
      "start": 57.7491,
      "duration": 0.4633,
      "velocity": 114,
      "chip": "ym2612"
    },
    {
      "channel": 2,
      "note": 33,
      "start": 57.752,
      "duration": 0.1604,
      "velocity": 67,
      "chip": "ym2612"
    },
    {
      "channel": 0,
      "note": 68,
      "start": 57.7555,
      "duration": 0.0734,
      "velocity": 111,
      "chip": "ym2612"
    },
    {
      "channel": 1,
      "note": 85,
      "start": 57.7584,
      "duration": 0.9704,
      "velocity": 114,
      "chip": "ym2612"
    },
    {
      "channel": 3,
      "note": 49,
      "start": 58.0497,
      "duration": 0.1125,
      "velocity": 120,
      "chip": "ym2612"
    },
    {
      "channel": 2,
      "note": 39,
      "start": 58.082,
      "duration": 0.0305,
      "velocity": 119,
      "chip": "ym2612"
    },
    {
      "channel": 3,
      "note": 49,
      "start": 58.216,
      "duration": 0.1631,
      "velocity": 120,
      "chip": "ym2612"
    },
    {
      "channel": 5,
      "note": 47,
      "start": 58.249,
      "duration": 0.1302,
      "velocity": 114,
      "chip": "ym2612"
    },
    {
      "channel": 4,
      "note": 33,
      "start": 58.2518,
      "duration": 0.1605,
      "velocity": 67,
      "chip": "ym2612"
    },
    {
      "channel": 2,
      "note": 39,
      "start": 58.2541,
      "duration": 0.0084,
      "velocity": 119,
      "chip": "ym2612"
    },
    {
      "channel": 3,
      "note": 49,
      "start": 58.3829,
      "duration": 0.1793,
      "velocity": 120,
      "chip": "ym2612"
    },
    {
      "channel": 5,
      "note": 50,
      "start": 58.4156,
      "duration": 0.2968,
      "velocity": 114,
      "chip": "ym2612"
    },
    {
      "channel": 0,
      "note": 51,
      "start": 58.4188,
      "duration": 0.0101,
      "velocity": 107,
      "chip": "ym2612"
    },
    {
      "channel": 2,
      "note": 39,
      "start": 58.4213,
      "duration": 0.0079,
      "velocity": 119,
      "chip": "ym2612"
    },
    {
      "channel": 4,
      "note": 68,
      "start": 58.4242,
      "duration": 0.0715,
      "velocity": 111,
      "chip": "ym2612"
    },
    {
      "channel": 5,
      "note": 49,
      "start": 58.7328,
      "duration": 0.1462,
      "velocity": 114,
      "chip": "ym2612"
    },
    {
      "channel": 0,
      "note": 33,
      "start": 58.7359,
      "duration": 0.1596,
      "velocity": 67,
      "chip": "ym2612"
    },
    {
      "channel": 2,
      "note": 39,
      "start": 58.7383,
      "duration": 0.0242,
      "velocity": 119,
      "chip": "ym2612"
    },
    {
      "channel": 3,
      "note": 49,
      "start": 58.7414,
      "duration": 0.0709,
      "velocity": 120,
      "chip": "ym2612"
    },
    {
      "channel": 1,
      "note": 83,
      "start": 58.7441,
      "duration": 0.6514,
      "velocity": 114,
      "chip": "ym2612"
    },
    {
      "channel": 3,
      "note": 49,
      "start": 58.8828,
      "duration": 0.1462,
      "velocity": 120,
      "chip": "ym2612"
    },
    {
      "channel": 2,
      "note": 39,
      "start": 58.8985,
      "duration": 0.0305,
      "velocity": 119,
      "chip": "ym2612"
    },
    {
      "channel": 3,
      "note": 49,
      "start": 59.0326,
      "duration": 0.163,
      "velocity": 120,
      "chip": "ym2612"
    },
    {
      "channel": 2,
      "note": 39,
      "start": 59.0653,
      "duration": 0.0305,
      "velocity": 119,
      "chip": "ym2612"
    },
    {
      "channel": 4,
      "note": 68,
      "start": 59.0682,
      "duration": 0.0774,
      "velocity": 111,
      "chip": "ym2612"
    },
    {
      "channel": 3,
      "note": 49,
      "start": 59.3664,
      "duration": 0.1125,
      "velocity": 120,
      "chip": "ym2612"
    },
    {
      "channel": 2,
      "note": 39,
      "start": 59.3991,
      "duration": 0.0133,
      "velocity": 119,
      "chip": "ym2612"
    },
    {
      "channel": 1,
      "note": 81,
      "start": 59.4025,
      "duration": 0.3098,
      "velocity": 114,
      "chip": "ym2612"
    },
    {
      "channel": 3,
      "note": 49,
      "start": 59.5325,
      "duration": 0.1298,
      "velocity": 120,
      "chip": "ym2612"
    },
    {
      "channel": 2,
      "note": 39,
      "start": 59.5652,
      "duration": 0.0139,
      "velocity": 119,
      "chip": "ym2612"
    },
    {
      "channel": 3,
      "note": 49,
      "start": 59.6993,
      "duration": 0.163,
      "velocity": 120,
      "chip": "ym2612"
    },
    {
      "channel": 5,
      "note": 51,
      "start": 59.7156,
      "duration": 0.03,
      "velocity": 107,
      "chip": "ym2612"
    },
    {
      "channel": 2,
      "note": 39,
      "start": 59.7182,
      "duration": 0.0276,
      "velocity": 119,
      "chip": "ym2612"
    },
    {
      "channel": 4,
      "note": 68,
      "start": 59.7211,
      "duration": 0.0746,
      "velocity": 111,
      "chip": "ym2612"
    },
    {
      "channel": 1,
      "note": 80,
      "start": 59.7243,
      "duration": 2.9546,
      "velocity": 114,
      "chip": "ym2612"
    },
    {
      "channel": 2,
      "note": 39,
      "start": 60.0487,
      "duration": 0.0304,
      "velocity": 119,
      "chip": "ym2612"
    },
    {
      "channel": 3,
      "note": 49,
      "start": 60.0517,
      "duration": 0.0773,
      "velocity": 120,
      "chip": "ym2612"
    },
    {
      "channel": 3,
      "note": 49,
      "start": 60.1826,
      "duration": 0.1297,
      "velocity": 120,
      "chip": "ym2612"
    },
    {
      "channel": 2,
      "note": 39,
      "start": 60.2152,
      "duration": 0.0305,
      "velocity": 119,
      "chip": "ym2612"
    },
    {
      "channel": 2,
      "note": 39,
      "start": 60.382,
      "duration": 0.0138,
      "velocity": 119,
      "chip": "ym2612"
    },
    {
      "channel": 4,
      "note": 68,
      "start": 60.3849,
      "duration": 0.0775,
      "velocity": 111,
      "chip": "ym2612"
    },
    {
      "channel": 3,
      "note": 49,
      "start": 60.3878,
      "duration": 0.1579,
      "velocity": 120,
      "chip": "ym2612"
    },
    {
      "channel": 0,
      "note": 33,
      "start": 60.6986,
      "duration": 0.1636,
      "velocity": 67,
      "chip": "ym2612"
    },
    {
      "channel": 2,
      "note": 39,
      "start": 60.701,
      "duration": 0.0282,
      "velocity": 119,
      "chip": "ym2612"
    },
    {
      "channel": 3,
      "note": 49,
      "start": 60.7044,
      "duration": 0.0746,
      "velocity": 120,
      "chip": "ym2612"
    },
    {
      "channel": 3,
      "note": 49,
      "start": 60.8493,
      "duration": 0.1631,
      "velocity": 120,
      "chip": "ym2612"
    },
    {
      "channel": 2,
      "note": 39,
      "start": 60.8653,
      "duration": 0.0305,
      "velocity": 119,
      "chip": "ym2612"
    },
    {
      "channel": 2,
      "note": 39,
      "start": 61.032,
      "duration": 0.0305,
      "velocity": 119,
      "chip": "ym2612"
    },
    {
      "channel": 4,
      "note": 68,
      "start": 61.0348,
      "duration": 0.0776,
      "velocity": 111,
      "chip": "ym2612"
    },
    {
      "channel": 3,
      "note": 49,
      "start": 61.0376,
      "duration": 0.158,
      "velocity": 120,
      "chip": "ym2612"
    },
    {
      "channel": 0,
      "note": 33,
      "start": 61.3651,
      "duration": 0.1637,
      "velocity": 67,
      "chip": "ym2612"
    },
    {
      "channel": 2,
      "note": 39,
      "start": 61.3676,
      "duration": 0.0116,
      "velocity": 119,
      "chip": "ym2612"
    },
    {
      "channel": 3,
      "note": 49,
      "start": 61.3705,
      "duration": 0.0751,
      "velocity": 120,
      "chip": "ym2612"
    },
    {
      "channel": 2,
      "note": 39,
      "start": 61.5323,
      "duration": 0.0134,
      "velocity": 119,
      "chip": "ym2612"
    },
    {
      "channel": 3,
      "note": 49,
      "start": 61.5352,
      "duration": 0.0937,
      "velocity": 120,
      "chip": "ym2612"
    },
    {
      "channel": 2,
      "note": 39,
      "start": 61.6987,
      "duration": 0.0137,
      "velocity": 119,
      "chip": "ym2612"
    },
    {
      "channel": 4,
      "note": 68,
      "start": 61.7015,
      "duration": 0.0608,
      "velocity": 111,
      "chip": "ym2612"
    },
    {
      "channel": 3,
      "note": 49,
      "start": 61.7045,
      "duration": 0.1246,
      "velocity": 120,
      "chip": "ym2612"
    },
    {
      "channel": 0,
      "note": 33,
      "start": 62.0152,
      "duration": 0.1636,
      "velocity": 67,
      "chip": "ym2612"
    },
    {
      "channel": 2,
      "note": 39,
      "start": 62.0176,
      "duration": 0.0282,
      "velocity": 119,
      "chip": "ym2612"
    },
    {
      "channel": 3,
      "note": 49,
      "start": 62.021,
      "duration": 0.0746,
      "velocity": 120,
      "chip": "ym2612"
    },
    {
      "channel": 2,
      "note": 39,
      "start": 62.1819,
      "duration": 0.0305,
      "velocity": 119,
      "chip": "ym2612"
    },
    {
      "channel": 3,
      "note": 49,
      "start": 62.1847,
      "duration": 0.1276,
      "velocity": 120,
      "chip": "ym2612"
    },
    {
      "channel": 2,
      "note": 39,
      "start": 62.3486,
      "duration": 0.0305,
      "velocity": 119,
      "chip": "ym2612"
    },
    {
      "channel": 4,
      "note": 68,
      "start": 62.3516,
      "duration": 0.0774,
      "velocity": 111,
      "chip": "ym2612"
    },
    {
      "channel": 3,
      "note": 49,
      "start": 62.3545,
      "duration": 0.1578,
      "velocity": 120,
      "chip": "ym2612"
    },
    {
      "channel": 5,
      "note": 51,
      "start": 62.6821,
      "duration": 0.0137,
      "velocity": 107,
      "chip": "ym2612"
    },
    {
      "channel": 4,
      "note": 61,
      "start": 62.6851,
      "duration": 0.0773,
      "velocity": 111,
      "chip": "ym2612"
    },
    {
      "channel": 3,
      "note": 49,
      "start": 62.688,
      "duration": 0.091,
      "velocity": 120,
      "chip": "ym2612"
    },
    {
      "channel": 1,
      "note": 78,
      "start": 62.6909,
      "duration": 0.3047,
      "velocity": 114,
      "chip": "ym2612"
    },
    {
      "channel": 5,
      "note": 51,
      "start": 62.832,
      "duration": 0.0304,
      "velocity": 107,
      "chip": "ym2612"
    },
    {
      "channel": 3,
      "note": 49,
      "start": 62.8351,
      "duration": 0.1439,
      "velocity": 120,
      "chip": "ym2612"
    },
    {
      "channel": 0,
      "note": 50,
      "start": 62.9993,
      "duration": 0.463,
      "velocity": 114,
      "chip": "ym2612"
    },
    {
      "channel": 2,
      "note": 33,
      "start": 63.0026,
      "duration": 0.1598,
      "velocity": 67,
      "chip": "ym2612"
    },
    {
      "channel": 4,
      "note": 68,
      "start": 63.0065,
      "duration": 0.0725,
      "velocity": 111,
      "chip": "ym2612"
    },
    {
      "channel": 3,
      "note": 49,
      "start": 63.0094,
      "duration": 0.1029,
      "velocity": 120,
      "chip": "ym2612"
    },
    {
      "channel": 1,
      "note": 80,
      "start": 63.0123,
      "duration": 0.9666,
      "velocity": 114,
      "chip": "ym2612"
    },
    {
      "channel": 2,
      "note": 39,
      "start": 63.3321,
      "duration": 0.0304,
      "velocity": 119,
      "chip": "ym2612"
    },
    {
      "channel": 3,
      "note": 49,
      "start": 63.3354,
      "duration": 0.0435,
      "velocity": 120,
      "chip": "ym2612"
    },
    {
      "channel": 0,
      "note": 47,
      "start": 63.4989,
      "duration": 0.1301,
      "velocity": 114,
      "chip": "ym2612"
    },
    {
      "channel": 5,
      "note": 33,
      "start": 63.5016,
      "duration": 0.1608,
      "velocity": 67,
      "chip": "ym2612"
    },
    {
      "channel": 2,
      "note": 39,
      "start": 63.5039,
      "duration": 0.0087,
      "velocity": 119,
      "chip": "ym2612"
    },
    {
      "channel": 3,
      "note": 49,
      "start": 63.5068,
      "duration": 0.0889,
      "velocity": 120,
      "chip": "ym2612"
    },
    {
      "channel": 0,
      "note": 50,
      "start": 63.6655,
      "duration": 0.2967,
      "velocity": 114,
      "chip": "ym2612"
    },
    {
      "channel": 4,
      "note": 51,
      "start": 63.6683,
      "duration": 0.0118,
      "velocity": 107,
      "chip": "ym2612"
    },
    {
      "channel": 2,
      "note": 39,
      "start": 63.6708,
      "duration": 0.0094,
      "velocity": 119,
      "chip": "ym2612"
    },
    {
      "channel": 3,
      "note": 68,
      "start": 63.6738,
      "duration": 0.0718,
      "velocity": 111,
      "chip": "ym2612"
    },
    {
      "channel": 5,
      "note": 49,
      "start": 63.6769,
      "duration": 0.1189,
      "velocity": 120,
      "chip": "ym2612"
    },
    {
      "channel": 0,
      "note": 49,
      "start": 63.9823,
      "duration": 0.1465,
      "velocity": 114,
      "chip": "ym2612"
    },
    {
      "channel": 4,
      "note": 33,
      "start": 63.9854,
      "duration": 0.1602,
      "velocity": 67,
      "chip": "ym2612"
    },
    {
      "channel": 2,
      "note": 39,
      "start": 63.9882,
      "duration": 0.0244,
      "velocity": 119,
      "chip": "ym2612"
    },
    {
      "channel": 5,
      "note": 49,
      "start": 63.9913,
      "duration": 0.0544,
      "velocity": 120,
      "chip": "ym2612"
    },
    {
      "channel": 1,
      "note": 78,
      "start": 63.9941,
      "duration": 0.6515,
      "velocity": 114,
      "chip": "ym2612"
    },
    {
      "channel": 5,
      "note": 49,
      "start": 64.1328,
      "duration": 0.1296,
      "velocity": 120,
      "chip": "ym2612"
    },
    {
      "channel": 2,
      "note": 39,
      "start": 64.1485,
      "duration": 0.0307,
      "velocity": 119,
      "chip": "ym2612"
    },
    {
      "channel": 2,
      "note": 39,
      "start": 64.3153,
      "duration": 0.0306,
      "velocity": 119,
      "chip": "ym2612"
    },
    {
      "channel": 3,
      "note": 68,
      "start": 64.3181,
      "duration": 0.0776,
      "velocity": 111,
      "chip": "ym2612"
    },
    {
      "channel": 5,
      "note": 49,
      "start": 64.3209,
      "duration": 0.1248,
      "velocity": 120,
      "chip": "ym2612"
    },
    {
      "channel": 2,
      "note": 39,
      "start": 64.6487,
      "duration": 0.0137,
      "velocity": 119,
      "chip": "ym2612"
    },
    {
      "channel": 5,
      "note": 49,
      "start": 64.6522,
      "duration": 0.0435,
      "velocity": 120,
      "chip": "ym2612"
    },
    {
      "channel": 1,
      "note": 76,
      "start": 64.6554,
      "duration": 0.3068,
      "velocity": 114,
      "chip": "ym2612"
    },
    {
      "channel": 5,
      "note": 49,
      "start": 64.7828,
      "duration": 0.1296,
      "velocity": 120,
      "chip": "ym2612"
    },
    {
      "channel": 2,
      "note": 39,
      "start": 64.8151,
      "duration": 0.014,
      "velocity": 119,
      "chip": "ym2612"
    },
    {
      "channel": 5,
      "note": 49,
      "start": 64.9494,
      "duration": 0.163,
      "velocity": 120,
      "chip": "ym2612"
    },
    {
      "channel": 0,
      "note": 51,
      "start": 64.9656,
      "duration": 0.0299,
      "velocity": 107,
      "chip": "ym2612"
    },
    {
      "channel": 2,
      "note": 39,
      "start": 64.9682,
      "duration": 0.0277,
      "velocity": 119,
      "chip": "ym2612"
    },
    {
      "channel": 3,
      "note": 68,
      "start": 64.971,
      "duration": 0.0746,
      "velocity": 111,
      "chip": "ym2612"
    },
    {
      "channel": 1,
      "note": 75,
      "start": 64.9742,
      "duration": 2.9546,
      "velocity": 114,
      "chip": "ym2612"
    },
    {
      "channel": 2,
      "note": 39,
      "start": 65.2987,
      "duration": 0.0304,
      "velocity": 119,
      "chip": "ym2612"
    },
    {
      "channel": 5,
      "note": 49,
      "start": 65.3018,
      "duration": 0.0773,
      "velocity": 120,
      "chip": "ym2612"
    },
    {
      "channel": 5,
      "note": 49,
      "start": 65.4327,
      "duration": 0.1464,
      "velocity": 120,
      "chip": "ym2612"
    },
    {
      "channel": 2,
      "note": 39,
      "start": 65.4651,
      "duration": 0.0307,
      "velocity": 119,
      "chip": "ym2612"
    },
    {
      "channel": 5,
      "note": 49,
      "start": 65.5998,
      "duration": 0.1627,
      "velocity": 120,
      "chip": "ym2612"
    },
    {
      "channel": 2,
      "note": 39,
      "start": 65.632,
      "duration": 0.0137,
      "velocity": 119,
      "chip": "ym2612"
    },
    {
      "channel": 3,
      "note": 68,
      "start": 65.6348,
      "duration": 0.0775,
      "velocity": 111,
      "chip": "ym2612"
    },
    {
      "channel": 5,
      "note": 49,
      "start": 65.9327,
      "duration": 0.0963,
      "velocity": 120,
      "chip": "ym2612"
    },
    {
      "channel": 4,
      "note": 33,
      "start": 65.9654,
      "duration": 0.147,
      "velocity": 67,
      "chip": "ym2612"
    },
    {
      "channel": 2,
      "note": 39,
      "start": 65.9679,
      "duration": 0.0113,
      "velocity": 119,
      "chip": "ym2612"
    },
    {
      "channel": 5,
      "note": 49,
      "start": 66.0993,
      "duration": 0.1299,
      "velocity": 120,
      "chip": "ym2612"
    },
    {
      "channel": 2,
      "note": 39,
      "start": 66.1156,
      "duration": 0.0302,
      "velocity": 119,
      "chip": "ym2612"
    },
    {
      "channel": 5,
      "note": 49,
      "start": 66.2661,
      "duration": 0.1463,
      "velocity": 120,
      "chip": "ym2612"
    },
    {
      "channel": 2,
      "note": 39,
      "start": 66.282,
      "duration": 0.0305,
      "velocity": 119,
      "chip": "ym2612"
    },
    {
      "channel": 3,
      "note": 68,
      "start": 66.2847,
      "duration": 0.0776,
      "velocity": 111,
      "chip": "ym2612"
    },
    {
      "channel": 5,
      "note": 49,
      "start": 66.5827,
      "duration": 0.113,
      "velocity": 120,
      "chip": "ym2612"
    },
    {
      "channel": 4,
      "note": 33,
      "start": 66.6152,
      "duration": 0.1638,
      "velocity": 67,
      "chip": "ym2612"
    },
    {
      "channel": 2,
      "note": 39,
      "start": 66.6177,
      "duration": 0.028,
      "velocity": 119,
      "chip": "ym2612"
    },
    {
      "channel": 5,
      "note": 49,
      "start": 66.7493,
      "duration": 0.1631,
      "velocity": 120,
      "chip": "ym2612"
    },
    {
      "channel": 2,
      "note": 39,
      "start": 66.7819,
      "duration": 0.0139,
      "velocity": 119,
      "chip": "ym2612"
    },
    {
      "channel": 5,
      "note": 49,
      "start": 66.9166,
      "duration": 0.1792,
      "velocity": 120,
      "chip": "ym2612"
    },
    {
      "channel": 2,
      "note": 39,
      "start": 66.9485,
      "duration": 0.0139,
      "velocity": 119,
      "chip": "ym2612"
    },
    {
      "channel": 3,
      "note": 68,
      "start": 66.9514,
      "duration": 0.0776,
      "velocity": 111,
      "chip": "ym2612"
    },
    {
      "channel": 5,
      "note": 49,
      "start": 67.2495,
      "duration": 0.0962,
      "velocity": 120,
      "chip": "ym2612"
    },
    {
      "channel": 4,
      "note": 33,
      "start": 67.2655,
      "duration": 0.1636,
      "velocity": 67,
      "chip": "ym2612"
    },
    {
      "channel": 2,
      "note": 39,
      "start": 67.2679,
      "duration": 0.0279,
      "velocity": 119,
      "chip": "ym2612"
    },
    {
      "channel": 5,
      "note": 49,
      "start": 67.4159,
      "duration": 0.1298,
      "velocity": 120,
      "chip": "ym2612"
    },
    {
      "channel": 2,
      "note": 39,
      "start": 67.432,
      "duration": 0.0305,
      "velocity": 119,
      "chip": "ym2612"
    },
    {
      "channel": 5,
      "note": 49,
      "start": 67.5661,
      "duration": 0.1963,
      "velocity": 120,
      "chip": "ym2612"
    },
    {
      "channel": 2,
      "note": 39,
      "start": 67.5987,
      "duration": 0.0303,
      "velocity": 119,
      "chip": "ym2612"
    },
    {
      "channel": 3,
      "note": 68,
      "start": 67.6017,
      "duration": 0.0774,
      "velocity": 111,
      "chip": "ym2612"
    },
    {
      "channel": 5,
      "note": 49,
      "start": 67.8995,
      "duration": 0.113,
      "velocity": 120,
      "chip": "ym2612"
    },
    {
      "channel": 0,
      "note": 51,
      "start": 67.9319,
      "duration": 0.0136,
      "velocity": 107,
      "chip": "ym2612"
    },
    {
      "channel": 3,
      "note": 61,
      "start": 67.9349,
      "duration": 0.0774,
      "velocity": 111,
      "chip": "ym2612"
    },
    {
      "channel": 1,
      "note": 71,
      "start": 67.9379,
      "duration": 0.3077,
      "velocity": 114,
      "chip": "ym2612"
    },
    {
      "channel": 5,
      "note": 49,
      "start": 68.066,
      "duration": 0.1297,
      "velocity": 120,
      "chip": "ym2612"
    },
    {
      "channel": 0,
      "note": 51,
      "start": 68.0989,
      "duration": 0.0133,
      "velocity": 107,
      "chip": "ym2612"
    },
    {
      "channel": 5,
      "note": 49,
      "start": 68.2332,
      "duration": 0.1626,
      "velocity": 120,
      "chip": "ym2612"
    },
    {
      "channel": 4,
      "note": 50,
      "start": 68.2495,
      "duration": 0.4628,
      "velocity": 114,
      "chip": "ym2612"
    },
    {
      "channel": 2,
      "note": 33,
      "start": 68.2525,
      "duration": 0.16,
      "velocity": 67,
      "chip": "ym2612"
    },
    {
      "channel": 3,
      "note": 68,
      "start": 68.256,
      "duration": 0.073,
      "velocity": 111,
      "chip": "ym2612"
    },
    {
      "channel": 1,
      "note": 73,
      "start": 68.2592,
      "duration": 5.2363,
      "velocity": 114,
      "chip": "ym2612"
    },
    {
      "channel": 5,
      "note": 49,
      "start": 68.5494,
      "duration": 0.113,
      "velocity": 120,
      "chip": "ym2612"
    },
    {
      "channel": 2,
      "note": 39,
      "start": 68.5824,
      "duration": 0.03,
      "velocity": 119,
      "chip": "ym2612"
    },
    {
      "channel": 5,
      "note": 49,
      "start": 68.716,
      "duration": 0.1632,
      "velocity": 120,
      "chip": "ym2612"
    },
    {
      "channel": 4,
      "note": 47,
      "start": 68.749,
      "duration": 0.13,
      "velocity": 114,
      "chip": "ym2612"
    },
    {
      "channel": 0,
      "note": 33,
      "start": 68.7517,
      "duration": 0.1606,
      "velocity": 67,
      "chip": "ym2612"
    },
    {
      "channel": 2,
      "note": 39,
      "start": 68.754,
      "duration": 0.0251,
      "velocity": 119,
      "chip": "ym2612"
    },
    {
      "channel": 5,
      "note": 49,
      "start": 68.8829,
      "duration": 0.1962,
      "velocity": 120,
      "chip": "ym2612"
    },
    {
      "channel": 4,
      "note": 50,
      "start": 68.9157,
      "duration": 0.2966,
      "velocity": 114,
      "chip": "ym2612"
    },
    {
      "channel": 3,
      "note": 51,
      "start": 68.9185,
      "duration": 0.0105,
      "velocity": 107,
      "chip": "ym2612"
    },
    {
      "channel": 2,
      "note": 39,
      "start": 68.9211,
      "duration": 0.0081,
      "velocity": 119,
      "chip": "ym2612"
    },
    {
      "channel": 0,
      "note": 68,
      "start": 68.924,
      "duration": 0.0715,
      "velocity": 111,
      "chip": "ym2612"
    },
    {
      "channel": 4,
      "note": 49,
      "start": 69.2324,
      "duration": 0.1466,
      "velocity": 114,
      "chip": "ym2612"
    },
    {
      "channel": 3,
      "note": 33,
      "start": 69.2358,
      "duration": 0.1598,
      "velocity": 67,
      "chip": "ym2612"
    },
    {
      "channel": 2,
      "note": 39,
      "start": 69.2382,
      "duration": 0.0242,
      "velocity": 119,
      "chip": "ym2612"
    },
    {
      "channel": 5,
      "note": 49,
      "start": 69.2413,
      "duration": 0.0711,
      "velocity": 120,
      "chip": "ym2612"
    },
    {
      "channel": 5,
      "note": 49,
      "start": 69.3828,
      "duration": 0.163,
      "velocity": 120,
      "chip": "ym2612"
    },
    {
      "channel": 2,
      "note": 39,
      "start": 69.3985,
      "duration": 0.0306,
      "velocity": 119,
      "chip": "ym2612"
    },
    {
      "channel": 5,
      "note": 49,
      "start": 69.5498,
      "duration": 0.1459,
      "velocity": 120,
      "chip": "ym2612"
    },
    {
      "channel": 2,
      "note": 39,
      "start": 69.5654,
      "duration": 0.0303,
      "velocity": 119,
      "chip": "ym2612"
    },
    {
      "channel": 0,
      "note": 68,
      "start": 69.5681,
      "duration": 0.0775,
      "velocity": 111,
      "chip": "ym2612"
    },
    {
      "channel": 5,
      "note": 49,
      "start": 69.8661,
      "duration": 0.113,
      "velocity": 120,
      "chip": "ym2612"
    },
    {
      "channel": 2,
      "note": 39,
      "start": 69.8987,
      "duration": 0.0137,
      "velocity": 119,
      "chip": "ym2612"
    },
    {
      "channel": 5,
      "note": 49,
      "start": 70.0326,
      "duration": 0.1297,
      "velocity": 120,
      "chip": "ym2612"
    },
    {
      "channel": 2,
      "note": 39,
      "start": 70.0652,
      "duration": 0.0139,
      "velocity": 119,
      "chip": "ym2612"
    },
    {
      "channel": 5,
      "note": 49,
      "start": 70.1994,
      "duration": 0.163,
      "velocity": 120,
      "chip": "ym2612"
    },
    {
      "channel": 4,
      "note": 51,
      "start": 70.2323,
      "duration": 0.0134,
      "velocity": 107,
      "chip": "ym2612"
    },
    {
      "channel": 2,
      "note": 39,
      "start": 70.2347,
      "duration": 0.0111,
      "velocity": 119,
      "chip": "ym2612"
    },
    {
      "channel": 0,
      "note": 68,
      "start": 70.2375,
      "duration": 0.0581,
      "velocity": 111,
      "chip": "ym2612"
    },
    {
      "channel": 2,
      "note": 39,
      "start": 70.5486,
      "duration": 0.0304,
      "velocity": 119,
      "chip": "ym2612"
    },
    {
      "channel": 5,
      "note": 49,
      "start": 70.5517,
      "duration": 0.0773,
      "velocity": 120,
      "chip": "ym2612"
    },
    {
      "channel": 5,
      "note": 49,
      "start": 70.6828,
      "duration": 0.1462,
      "velocity": 120,
      "chip": "ym2612"
    },
    {
      "channel": 2,
      "note": 39,
      "start": 70.7155,
      "duration": 0.0303,
      "velocity": 119,
      "chip": "ym2612"
    },
    {
      "channel": 2,
      "note": 39,
      "start": 70.882,
      "duration": 0.0305,
      "velocity": 119,
      "chip": "ym2612"
    },
    {
      "channel": 0,
      "note": 68,
      "start": 70.8851,
      "duration": 0.0772,
      "velocity": 111,
      "chip": "ym2612"
    },
    {
      "channel": 5,
      "note": 49,
      "start": 70.8884,
      "duration": 0.1573,
      "velocity": 120,
      "chip": "ym2612"
    },
    {
      "channel": 3,
      "note": 33,
      "start": 71.2153,
      "duration": 0.147,
      "velocity": 67,
      "chip": "ym2612"
    },
    {
      "channel": 2,
      "note": 39,
      "start": 71.2178,
      "duration": 0.0113,
      "velocity": 119,
      "chip": "ym2612"
    },
    {
      "channel": 5,
      "note": 49,
      "start": 71.2209,
      "duration": 0.0748,
      "velocity": 120,
      "chip": "ym2612"
    },
    {
      "channel": 5,
      "note": 49,
      "start": 71.3495,
      "duration": 0.1629,
      "velocity": 120,
      "chip": "ym2612"
    },
    {
      "channel": 2,
      "note": 39,
      "start": 71.3653,
      "duration": 0.0305,
      "velocity": 119,
      "chip": "ym2612"
    },
    {
      "channel": 2,
      "note": 39,
      "start": 71.532,
      "duration": 0.0306,
      "velocity": 119,
      "chip": "ym2612"
    },
    {
      "channel": 0,
      "note": 68,
      "start": 71.5346,
      "duration": 0.0776,
      "velocity": 111,
      "chip": "ym2612"
    },
    {
      "channel": 5,
      "note": 49,
      "start": 71.5375,
      "duration": 0.1582,
      "velocity": 120,
      "chip": "ym2612"
    },
    {
      "channel": 3,
      "note": 33,
      "start": 71.8652,
      "duration": 0.1637,
      "velocity": 67,
      "chip": "ym2612"
    },
    {
      "channel": 2,
      "note": 39,
      "start": 71.8676,
      "duration": 0.0283,
      "velocity": 119,
      "chip": "ym2612"
    },
    {
      "channel": 5,
      "note": 49,
      "start": 71.8708,
      "duration": 0.0749,
      "velocity": 120,
      "chip": "ym2612"
    },
    {
      "channel": 2,
      "note": 39,
      "start": 72.032,
      "duration": 0.0139,
      "velocity": 119,
      "chip": "ym2612"
    },
    {
      "channel": 5,
      "note": 49,
      "start": 72.0349,
      "duration": 0.0943,
      "velocity": 120,
      "chip": "ym2612"
    },
    {
      "channel": 2,
      "note": 39,
      "start": 72.1987,
      "duration": 0.0137,
      "velocity": 119,
      "chip": "ym2612"
    },
    {
      "channel": 0,
      "note": 68,
      "start": 72.2014,
      "duration": 0.0775,
      "velocity": 111,
      "chip": "ym2612"
    },
    {
      "channel": 5,
      "note": 49,
      "start": 72.2048,
      "duration": 0.1244,
      "velocity": 120,
      "chip": "ym2612"
    },
    {
      "channel": 3,
      "note": 33,
      "start": 72.5153,
      "duration": 0.1637,
      "velocity": 67,
      "chip": "ym2612"
    },
    {
      "channel": 2,
      "note": 39,
      "start": 72.5178,
      "duration": 0.028,
      "velocity": 119,
      "chip": "ym2612"
    },
    {
      "channel": 5,
      "note": 49,
      "start": 72.5209,
      "duration": 0.0749,
      "velocity": 120,
      "chip": "ym2612"
    },
    {
      "channel": 2,
      "note": 39,
      "start": 72.6819,
      "duration": 0.0305,
      "velocity": 119,
      "chip": "ym2612"
    },
    {
      "channel": 5,
      "note": 49,
      "start": 72.6849,
      "duration": 0.1275,
      "velocity": 120,
      "chip": "ym2612"
    },
    {
      "channel": 2,
      "note": 39,
      "start": 72.849,
      "duration": 0.0302,
      "velocity": 119,
      "chip": "ym2612"
    },
    {
      "channel": 0,
      "note": 68,
      "start": 72.8519,
      "duration": 0.0771,
      "velocity": 111,
      "chip": "ym2612"
    },
    {
      "channel": 5,
      "note": 49,
      "start": 72.8549,
      "duration": 0.1575,
      "velocity": 120,
      "chip": "ym2612"
    },
    {
      "channel": 4,
      "note": 51,
      "start": 73.182,
      "duration": 0.0137,
      "velocity": 107,
      "chip": "ym2612"
    },
    {
      "channel": 0,
      "note": 61,
      "start": 73.1849,
      "duration": 0.0773,
      "velocity": 111,
      "chip": "ym2612"
    },
    {
      "channel": 5,
      "note": 49,
      "start": 73.1879,
      "duration": 0.0912,
      "velocity": 120,
      "chip": "ym2612"
    },
    {
      "channel": 4,
      "note": 51,
      "start": 73.3487,
      "duration": 0.0137,
      "velocity": 107,
      "chip": "ym2612"
    },
    {
      "channel": 5,
      "note": 49,
      "start": 73.3519,
      "duration": 0.1272,
      "velocity": 120,
      "chip": "ym2612"
    },
    {
      "channel": 3,
      "note": 50,
      "start": 73.4991,
      "duration": 0.4632,
      "velocity": 114,
      "chip": "ym2612"
    },
    {
      "channel": 2,
      "note": 33,
      "start": 73.502,
      "duration": 0.1603,
      "velocity": 67,
      "chip": "ym2612"
    },
    {
      "channel": 0,
      "note": 68,
      "start": 73.5055,
      "duration": 0.0734,
      "velocity": 111,
      "chip": "ym2612"
    },
    {
      "channel": 5,
      "note": 49,
      "start": 73.5088,
      "duration": 0.1036,
      "velocity": 120,
      "chip": "ym2612"
    },
    {
      "channel": 2,
      "note": 39,
      "start": 73.832,
      "duration": 0.0306,
      "velocity": 119,
      "chip": "ym2612"
    },
    {
      "channel": 5,
      "note": 49,
      "start": 73.8351,
      "duration": 0.0439,
      "velocity": 120,
      "chip": "ym2612"
    },
    {
      "channel": 3,
      "note": 47,
      "start": 73.9993,
      "duration": 0.1297,
      "velocity": 114,
      "chip": "ym2612"
    },
    {
      "channel": 4,
      "note": 33,
      "start": 74.002,
      "duration": 0.1602,
      "velocity": 67,
      "chip": "ym2612"
    },
    {
      "channel": 2,
      "note": 39,
      "start": 74.0043,
      "duration": 0.0249,
      "velocity": 119,
      "chip": "ym2612"
    },
    {
      "channel": 5,
      "note": 49,
      "start": 74.0073,
      "duration": 0.105,
      "velocity": 120,
      "chip": "ym2612"
    },
    {
      "channel": 3,
      "note": 50,
      "start": 74.1656,
      "duration": 0.2967,
      "velocity": 114,
      "chip": "ym2612"
    },
    {
      "channel": 1,
      "note": 51,
      "start": 74.1684,
      "duration": 0.0113,
      "velocity": 107,
      "chip": "ym2612"
    },
    {
      "channel": 2,
      "note": 39,
      "start": 74.1709,
      "duration": 0.009,
      "velocity": 119,
      "chip": "ym2612"
    },
    {
      "channel": 0,
      "note": 68,
      "start": 74.1737,
      "duration": 0.0718,
      "velocity": 111,
      "chip": "ym2612"
    },
    {
      "channel": 5,
      "note": 49,
      "start": 74.1767,
      "duration": 0.1191,
      "velocity": 120,
      "chip": "ym2612"
    },
    {
      "channel": 3,
      "note": 49,
      "start": 74.499,
      "duration": 0.1299,
      "velocity": 114,
      "chip": "ym2612"
    },
    {
      "channel": 4,
      "note": 33,
      "start": 74.502,
      "duration": 0.1438,
      "velocity": 67,
      "chip": "ym2612"
    },
    {
      "channel": 2,
      "note": 39,
      "start": 74.5044,
      "duration": 0.008,
      "velocity": 119,
      "chip": "ym2612"
    },
    {
      "channel": 5,
      "note": 49,
      "start": 74.5075,
      "duration": 0.0382,
      "velocity": 120,
      "chip": "ym2612"
    },
    {
      "channel": 5,
      "note": 49,
      "start": 74.6332,
      "duration": 0.1292,
      "velocity": 120,
      "chip": "ym2612"
    },
    {
      "channel": 2,
      "note": 39,
      "start": 74.6486,
      "duration": 0.0305,
      "velocity": 119,
      "chip": "ym2612"
    },
    {
      "channel": 2,
      "note": 39,
      "start": 74.8153,
      "duration": 0.0305,
      "velocity": 119,
      "chip": "ym2612"
    },
    {
      "channel": 0,
      "note": 68,
      "start": 74.818,
      "duration": 0.0775,
      "velocity": 111,
      "chip": "ym2612"
    },
    {
      "channel": 5,
      "note": 49,
      "start": 74.8209,
      "duration": 0.1249,
      "velocity": 120,
      "chip": "ym2612"
    },
    {
      "channel": 2,
      "note": 39,
      "start": 75.1487,
      "duration": 0.0304,
      "velocity": 119,
      "chip": "ym2612"
    },
    {
      "channel": 5,
      "note": 49,
      "start": 75.1518,
      "duration": 0.044,
      "velocity": 120,
      "chip": "ym2612"
    },
    {
      "channel": 5,
      "note": 49,
      "start": 75.2828,
      "duration": 0.1296,
      "velocity": 120,
      "chip": "ym2612"
    },
    {
      "channel": 2,
      "note": 39,
      "start": 75.3155,
      "duration": 0.0136,
      "velocity": 119,
      "chip": "ym2612"
    },
    {
      "channel": 5,
      "note": 49,
      "start": 75.4494,
      "duration": 0.1629,
      "velocity": 120,
      "chip": "ym2612"
    },
    {
      "channel": 1,
      "note": 51,
      "start": 75.482,
      "duration": 0.0136,
      "velocity": 107,
      "chip": "ym2612"
    },
    {
      "channel": 2,
      "note": 39,
      "start": 75.4845,
      "duration": 0.0114,
      "velocity": 119,
      "chip": "ym2612"
    },
    {
      "channel": 0,
      "note": 68,
      "start": 75.4872,
      "duration": 0.0749,
      "velocity": 111,
      "chip": "ym2612"
    },
    {
      "channel": 2,
      "note": 39,
      "start": 75.7987,
      "duration": 0.0304,
      "velocity": 119,
      "chip": "ym2612"
    },
    {
      "channel": 5,
      "note": 49,
      "start": 75.8018,
      "duration": 0.0773,
      "velocity": 120,
      "chip": "ym2612"
    },
    {
      "channel": 5,
      "note": 49,
      "start": 75.9498,
      "duration": 0.1292,
      "velocity": 120,
      "chip": "ym2612"
    },
    {
      "channel": 2,
      "note": 39,
      "start": 75.9652,
      "duration": 0.0305,
      "velocity": 119,
      "chip": "ym2612"
    },
    {
      "channel": 5,
      "note": 49,
      "start": 76.0995,
      "duration": 0.1629,
      "velocity": 120,
      "chip": "ym2612"
    },
    {
      "channel": 2,
      "note": 39,
      "start": 76.132,
      "duration": 0.0305,
      "velocity": 119,
      "chip": "ym2612"
    },
    {
      "channel": 0,
      "note": 68,
      "start": 76.1347,
      "duration": 0.0776,
      "velocity": 111,
      "chip": "ym2612"
    },
    {
      "channel": 5,
      "note": 49,
      "start": 76.4327,
      "duration": 0.1131,
      "velocity": 120,
      "chip": "ym2612"
    },
    {
      "channel": 4,
      "note": 33,
      "start": 76.4655,
      "duration": 0.1636,
      "velocity": 67,
      "chip": "ym2612"
    },
    {
      "channel": 2,
      "note": 39,
      "start": 76.4679,
      "duration": 0.0112,
      "velocity": 119,
      "chip": "ym2612"
    },
    {
      "channel": 5,
      "note": 49,
      "start": 76.5993,
      "duration": 0.1298,
      "velocity": 120,
      "chip": "ym2612"
    },
    {
      "channel": 2,
      "note": 39,
      "start": 76.632,
      "duration": 0.0138,
      "velocity": 119,
      "chip": "ym2612"
    },
    {
      "channel": 5,
      "note": 49,
      "start": 76.7661,
      "duration": 0.1629,
      "velocity": 120,
      "chip": "ym2612"
    },
    {
      "channel": 2,
      "note": 39,
      "start": 76.782,
      "duration": 0.0304,
      "velocity": 119,
      "chip": "ym2612"
    },
    {
      "channel": 0,
      "note": 68,
      "start": 76.7847,
      "duration": 0.0775,
      "velocity": 111,
      "chip": "ym2612"
    },
    {
      "channel": 5,
      "note": 49,
      "start": 77.0828,
      "duration": 0.113,
      "velocity": 120,
      "chip": "ym2612"
    },
    {
      "channel": 4,
      "note": 33,
      "start": 77.1153,
      "duration": 0.1636,
      "velocity": 67,
      "chip": "ym2612"
    },
    {
      "channel": 2,
      "note": 39,
      "start": 77.1178,
      "duration": 0.028,
      "velocity": 119,
      "chip": "ym2612"
    },
    {
      "channel": 5,
      "note": 49,
      "start": 77.2496,
      "duration": 0.1628,
      "velocity": 120,
      "chip": "ym2612"
    },
    {
      "channel": 2,
      "note": 39,
      "start": 77.2819,
      "duration": 0.0306,
      "velocity": 119,
      "chip": "ym2612"
    },
    {
      "channel": 5,
      "note": 49,
      "start": 77.4161,
      "duration": 0.1963,
      "velocity": 120,
      "chip": "ym2612"
    },
    {
      "channel": 2,
      "note": 39,
      "start": 77.449,
      "duration": 0.0135,
      "velocity": 119,
      "chip": "ym2612"
    },
    {
      "channel": 0,
      "note": 68,
      "start": 77.4517,
      "duration": 0.0773,
      "velocity": 111,
      "chip": "ym2612"
    },
    {
      "channel": 5,
      "note": 49,
      "start": 77.7495,
      "duration": 0.0962,
      "velocity": 120,
      "chip": "ym2612"
    },
    {
      "channel": 4,
      "note": 33,
      "start": 77.7659,
      "duration": 0.1632,
      "velocity": 67,
      "chip": "ym2612"
    },
    {
      "channel": 2,
      "note": 39,
      "start": 77.7683,
      "duration": 0.0276,
      "velocity": 119,
      "chip": "ym2612"
    },
    {
      "channel": 5,
      "note": 49,
      "start": 77.916,
      "duration": 0.1297,
      "velocity": 120,
      "chip": "ym2612"
    },
    {
      "channel": 2,
      "note": 39,
      "start": 77.932,
      "duration": 0.0305,
      "velocity": 119,
      "chip": "ym2612"
    },
    {
      "channel": 5,
      "note": 49,
      "start": 78.0828,
      "duration": 0.1796,
      "velocity": 120,
      "chip": "ym2612"
    },
    {
      "channel": 2,
      "note": 39,
      "start": 78.0987,
      "duration": 0.0304,
      "velocity": 119,
      "chip": "ym2612"
    },
    {
      "channel": 0,
      "note": 68,
      "start": 78.1015,
      "duration": 0.0774,
      "velocity": 111,
      "chip": "ym2612"
    },
    {
      "channel": 5,
      "note": 49,
      "start": 78.3994,
      "duration": 0.1131,
      "velocity": 120,
      "chip": "ym2612"
    },
    {
      "channel": 1,
      "note": 51,
      "start": 78.4323,
      "duration": 0.0134,
      "velocity": 107,
      "chip": "ym2612"
    },
    {
      "channel": 0,
      "note": 61,
      "start": 78.4356,
      "duration": 0.0766,
      "velocity": 111,
      "chip": "ym2612"
    },
    {
      "channel": 3,
      "note": 83,
      "start": 78.4391,
      "duration": 0.3232,
      "velocity": 114,
      "chip": "ym2612"
    },
    {
      "channel": 5,
      "note": 49,
      "start": 78.5663,
      "duration": 0.1294,
      "velocity": 120,
      "chip": "ym2612"
    },
    {
      "channel": 1,
      "note": 51,
      "start": 78.5985,
      "duration": 0.0137,
      "velocity": 107,
      "chip": "ym2612"
    },
    {
      "channel": 5,
      "note": 49,
      "start": 78.7328,
      "duration": 0.1629,
      "velocity": 120,
      "chip": "ym2612"
    },
    {
      "channel": 4,
      "note": 50,
      "start": 78.7658,
      "duration": 0.4466,
      "velocity": 114,
      "chip": "ym2612"
    },
    {
      "channel": 2,
      "note": 33,
      "start": 78.7688,
      "duration": 0.1436,
      "velocity": 67,
      "chip": "ym2612"
    },
    {
      "channel": 0,
      "note": 68,
      "start": 78.7722,
      "duration": 0.0567,
      "velocity": 111,
      "chip": "ym2612"
    },
    {
      "channel": 3,
      "note": 85,
      "start": 78.7754,
      "duration": 4.9035,
      "velocity": 114,
      "chip": "ym2612"
    },
    {
      "channel": 5,
      "note": 49,
      "start": 79.066,
      "duration": 0.0963,
      "velocity": 120,
      "chip": "ym2612"
    },
    {
      "channel": 2,
      "note": 39,
      "start": 79.082,
      "duration": 0.0305,
      "velocity": 119,
      "chip": "ym2612"
    },
    {
      "channel": 5,
      "note": 49,
      "start": 79.216,
      "duration": 0.163,
      "velocity": 120,
      "chip": "ym2612"
    },
    {
      "channel": 4,
      "note": 47,
      "start": 79.249,
      "duration": 0.13,
      "velocity": 114,
      "chip": "ym2612"
    },
    {
      "channel": 1,
      "note": 33,
      "start": 79.2517,
      "duration": 0.1606,
      "velocity": 67,
      "chip": "ym2612"
    },
    {
      "channel": 2,
      "note": 39,
      "start": 79.254,
      "duration": 0.0251,
      "velocity": 119,
      "chip": "ym2612"
    },
    {
      "channel": 5,
      "note": 49,
      "start": 79.3829,
      "duration": 0.1962,
      "velocity": 120,
      "chip": "ym2612"
    },
    {
      "channel": 4,
      "note": 50,
      "start": 79.416,
      "duration": 0.2963,
      "velocity": 114,
      "chip": "ym2612"
    },
    {
      "channel": 0,
      "note": 51,
      "start": 79.4188,
      "duration": 0.0267,
      "velocity": 107,
      "chip": "ym2612"
    },
    {
      "channel": 2,
      "note": 39,
      "start": 79.4214,
      "duration": 0.0245,
      "velocity": 119,
      "chip": "ym2612"
    },
    {
      "channel": 1,
      "note": 68,
      "start": 79.4243,
      "duration": 0.0713,
      "velocity": 111,
      "chip": "ym2612"
    },
    {
      "channel": 4,
      "note": 49,
      "start": 79.749,
      "duration": 0.13,
      "velocity": 114,
      "chip": "ym2612"
    },
    {
      "channel": 0,
      "note": 33,
      "start": 79.752,
      "duration": 0.1435,
      "velocity": 67,
      "chip": "ym2612"
    },
    {
      "channel": 2,
      "note": 39,
      "start": 79.7545,
      "duration": 0.0079,
      "velocity": 119,
      "chip": "ym2612"
    },
    {
      "channel": 5,
      "note": 49,
      "start": 79.7576,
      "duration": 0.0716,
      "velocity": 120,
      "chip": "ym2612"
    },
    {
      "channel": 5,
      "note": 49,
      "start": 79.8832,
      "duration": 0.1626,
      "velocity": 120,
      "chip": "ym2612"
    },
    {
      "channel": 2,
      "note": 39,
      "start": 79.8989,
      "duration": 0.0303,
      "velocity": 119,
      "chip": "ym2612"
    },
    {
      "channel": 5,
      "note": 49,
      "start": 80.0494,
      "duration": 0.163,
      "velocity": 120,
      "chip": "ym2612"
    },
    {
      "channel": 2,
      "note": 39,
      "start": 80.0653,
      "duration": 0.0305,
      "velocity": 119,
      "chip": "ym2612"
    },
    {
      "channel": 1,
      "note": 68,
      "start": 80.0681,
      "duration": 0.0776,
      "velocity": 111,
      "chip": "ym2612"
    },
    {
      "channel": 5,
      "note": 49,
      "start": 80.3661,
      "duration": 0.113,
      "velocity": 120,
      "chip": "ym2612"
    },
    {
      "channel": 2,
      "note": 39,
      "start": 80.3987,
      "duration": 0.0305,
      "velocity": 119,
      "chip": "ym2612"
    },
    {
      "channel": 5,
      "note": 49,
      "start": 80.5326,
      "duration": 0.1298,
      "velocity": 120,
      "chip": "ym2612"
    },
    {
      "channel": 2,
      "note": 39,
      "start": 80.5652,
      "duration": 0.0139,
      "velocity": 119,
      "chip": "ym2612"
    },
    {
      "channel": 5,
      "note": 49,
      "start": 80.6995,
      "duration": 0.163,
      "velocity": 120,
      "chip": "ym2612"
    },
    {
      "channel": 4,
      "note": 51,
      "start": 80.7323,
      "duration": 0.0134,
      "velocity": 107,
      "chip": "ym2612"
    },
    {
      "channel": 2,
      "note": 39,
      "start": 80.7347,
      "duration": 0.0111,
      "velocity": 119,
      "chip": "ym2612"
    },
    {
      "channel": 1,
      "note": 68,
      "start": 80.7375,
      "duration": 0.0748,
      "velocity": 111,
      "chip": "ym2612"
    },
    {
      "channel": 2,
      "note": 39,
      "start": 81.0487,
      "duration": 0.0305,
      "velocity": 119,
      "chip": "ym2612"
    },
    {
      "channel": 5,
      "note": 49,
      "start": 81.0518,
      "duration": 0.0773,
      "velocity": 120,
      "chip": "ym2612"
    },
    {
      "channel": 5,
      "note": 49,
      "start": 81.1998,
      "duration": 0.1293,
      "velocity": 120,
      "chip": "ym2612"
    },
    {
      "channel": 2,
      "note": 39,
      "start": 81.2152,
      "duration": 0.0305,
      "velocity": 119,
      "chip": "ym2612"
    },
    {
      "channel": 2,
      "note": 39,
      "start": 81.382,
      "duration": 0.0304,
      "velocity": 119,
      "chip": "ym2612"
    },
    {
      "channel": 1,
      "note": 68,
      "start": 81.3847,
      "duration": 0.0775,
      "velocity": 111,
      "chip": "ym2612"
    },
    {
      "channel": 5,
      "note": 49,
      "start": 81.3877,
      "duration": 0.158,
      "velocity": 120,
      "chip": "ym2612"
    },
    {
      "channel": 0,
      "note": 33,
      "start": 81.7153,
      "duration": 0.1635,
      "velocity": 67,
      "chip": "ym2612"
    },
    {
      "channel": 2,
      "note": 39,
      "start": 81.7177,
      "duration": 0.0115,
      "velocity": 119,
      "chip": "ym2612"
    },
    {
      "channel": 5,
      "note": 49,
      "start": 81.7208,
      "duration": 0.075,
      "velocity": 120,
      "chip": "ym2612"
    },
    {
      "channel": 5,
      "note": 49,
      "start": 81.8495,
      "duration": 0.1629,
      "velocity": 120,
      "chip": "ym2612"
    },
    {
      "channel": 2,
      "note": 39,
      "start": 81.8819,
      "duration": 0.0139,
      "velocity": 119,
      "chip": "ym2612"
    },
    {
      "channel": 2,
      "note": 39,
      "start": 82.0323,
      "duration": 0.0301,
      "velocity": 119,
      "chip": "ym2612"
    },
    {
      "channel": 1,
      "note": 68,
      "start": 82.0351,
      "duration": 0.0772,
      "velocity": 111,
      "chip": "ym2612"
    },
    {
      "channel": 5,
      "note": 49,
      "start": 82.0379,
      "duration": 0.1579,
      "velocity": 120,
      "chip": "ym2612"
    },
    {
      "channel": 0,
      "note": 33,
      "start": 82.3651,
      "duration": 0.1638,
      "velocity": 67,
      "chip": "ym2612"
    },
    {
      "channel": 2,
      "note": 39,
      "start": 82.3676,
      "duration": 0.0282,
      "velocity": 119,
      "chip": "ym2612"
    },
    {
      "channel": 5,
      "note": 49,
      "start": 82.371,
      "duration": 0.0747,
      "velocity": 120,
      "chip": "ym2612"
    },
    {
      "channel": 2,
      "note": 39,
      "start": 82.532,
      "duration": 0.0305,
      "velocity": 119,
      "chip": "ym2612"
    },
    {
      "channel": 5,
      "note": 49,
      "start": 82.5349,
      "duration": 0.1108,
      "velocity": 120,
      "chip": "ym2612"
    },
    {
      "channel": 2,
      "note": 39,
      "start": 82.6987,
      "duration": 0.0137,
      "velocity": 119,
      "chip": "ym2612"
    },
    {
      "channel": 1,
      "note": 68,
      "start": 82.7015,
      "duration": 0.0773,
      "velocity": 111,
      "chip": "ym2612"
    },
    {
      "channel": 5,
      "note": 49,
      "start": 82.7045,
      "duration": 0.1246,
      "velocity": 120,
      "chip": "ym2612"
    },
    {
      "channel": 0,
      "note": 33,
      "start": 83.032,
      "duration": 0.1469,
      "velocity": 67,
      "chip": "ym2612"
    },
    {
      "channel": 2,
      "note": 39,
      "start": 83.0344,
      "duration": 0.0114,
      "velocity": 119,
      "chip": "ym2612"
    },
    {
      "channel": 5,
      "note": 49,
      "start": 83.0375,
      "duration": 0.0582,
      "velocity": 120,
      "chip": "ym2612"
    },
    {
      "channel": 2,
      "note": 39,
      "start": 83.1819,
      "duration": 0.0305,
      "velocity": 119,
      "chip": "ym2612"
    },
    {
      "channel": 5,
      "note": 49,
      "start": 83.1849,
      "duration": 0.1441,
      "velocity": 120,
      "chip": "ym2612"
    },
    {
      "channel": 2,
      "note": 39,
      "start": 83.3487,
      "duration": 0.0305,
      "velocity": 119,
      "chip": "ym2612"
    },
    {
      "channel": 1,
      "note": 68,
      "start": 83.3516,
      "duration": 0.0774,
      "velocity": 111,
      "chip": "ym2612"
    },
    {
      "channel": 5,
      "note": 49,
      "start": 83.3546,
      "duration": 0.1578,
      "velocity": 120,
      "chip": "ym2612"
    },
    {
      "channel": 4,
      "note": 51,
      "start": 83.6821,
      "duration": 0.0303,
      "velocity": 107,
      "chip": "ym2612"
    },
    {
      "channel": 1,
      "note": 61,
      "start": 83.6851,
      "duration": 0.0772,
      "velocity": 111,
      "chip": "ym2612"
    },
    {
      "channel": 5,
      "note": 49,
      "start": 83.6884,
      "duration": 0.0906,
      "velocity": 120,
      "chip": "ym2612"
    },
    {
      "channel": 3,
      "note": 83,
      "start": 83.6913,
      "duration": 0.321,
      "velocity": 114,
      "chip": "ym2612"
    },
    {
      "channel": 4,
      "note": 51,
      "start": 83.8486,
      "duration": 0.0137,
      "velocity": 107,
      "chip": "ym2612"
    },
    {
      "channel": 5,
      "note": 49,
      "start": 83.8518,
      "duration": 0.1272,
      "velocity": 120,
      "chip": "ym2612"
    },
    {
      "channel": 0,
      "note": 50,
      "start": 84.0158,
      "duration": 0.4631,
      "velocity": 114,
      "chip": "ym2612"
    },
    {
      "channel": 2,
      "note": 33,
      "start": 84.0188,
      "duration": 0.1436,
      "velocity": 67,
      "chip": "ym2612"
    },
    {
      "channel": 1,
      "note": 68,
      "start": 84.0222,
      "duration": 0.0734,
      "velocity": 111,
      "chip": "ym2612"
    },
    {
      "channel": 5,
      "note": 49,
      "start": 84.0253,
      "duration": 0.0871,
      "velocity": 120,
      "chip": "ym2612"
    },
    {
      "channel": 3,
      "note": 85,
      "start": 84.0281,
      "duration": 0.9675,
      "velocity": 114,
      "chip": "ym2612"
    },
    {
      "channel": 2,
      "note": 39,
      "start": 84.332,
      "duration": 0.0305,
      "velocity": 119,
      "chip": "ym2612"
    },
    {
      "channel": 5,
      "note": 49,
      "start": 84.3351,
      "duration": 0.0606,
      "velocity": 120,
      "chip": "ym2612"
    },
    {
      "channel": 0,
      "note": 47,
      "start": 84.4987,
      "duration": 0.1301,
      "velocity": 114,
      "chip": "ym2612"
    },
    {
      "channel": 4,
      "note": 33,
      "start": 84.5015,
      "duration": 0.1609,
      "velocity": 67,
      "chip": "ym2612"
    },
    {
      "channel": 2,
      "note": 39,
      "start": 84.5041,
      "duration": 0.0249,
      "velocity": 119,
      "chip": "ym2612"
    },
    {
      "channel": 5,
      "note": 49,
      "start": 84.5071,
      "duration": 0.1053,
      "velocity": 120,
      "chip": "ym2612"
    },
    {
      "channel": 0,
      "note": 50,
      "start": 84.6656,
      "duration": 0.2967,
      "velocity": 114,
      "chip": "ym2612"
    },
    {
      "channel": 1,
      "note": 51,
      "start": 84.6683,
      "duration": 0.0272,
      "velocity": 107,
      "chip": "ym2612"
    },
    {
      "channel": 2,
      "note": 39,
      "start": 84.6709,
      "duration": 0.025,
      "velocity": 119,
      "chip": "ym2612"
    },
    {
      "channel": 5,
      "note": 68,
      "start": 84.6739,
      "duration": 0.0719,
      "velocity": 111,
      "chip": "ym2612"
    },
    {
      "channel": 4,
      "note": 49,
      "start": 84.677,
      "duration": 0.1187,
      "velocity": 120,
      "chip": "ym2612"
    },
    {
      "channel": 0,
      "note": 49,
      "start": 84.9994,
      "duration": 0.1296,
      "velocity": 114,
      "chip": "ym2612"
    },
    {
      "channel": 1,
      "note": 33,
      "start": 85.0027,
      "duration": 0.1595,
      "velocity": 67,
      "chip": "ym2612"
    },
    {
      "channel": 2,
      "note": 39,
      "start": 85.0052,
      "duration": 0.0093,
      "velocity": 119,
      "chip": "ym2612"
    },
    {
      "channel": 4,
      "note": 49,
      "start": 85.0086,
      "duration": 0.0371,
      "velocity": 120,
      "chip": "ym2612"
    },
    {
      "channel": 3,
      "note": 83,
      "start": 85.0115,
      "duration": 0.634,
      "velocity": 114,
      "chip": "ym2612"
    },
    {
      "channel": 4,
      "note": 49,
      "start": 85.1329,
      "duration": 0.1294,
      "velocity": 120,
      "chip": "ym2612"
    },
    {
      "channel": 2,
      "note": 39,
      "start": 85.1653,
      "duration": 0.0139,
      "velocity": 119,
      "chip": "ym2612"
    },
    {
      "channel": 2,
      "note": 39,
      "start": 85.3153,
      "duration": 0.0306,
      "velocity": 119,
      "chip": "ym2612"
    },
    {
      "channel": 5,
      "note": 68,
      "start": 85.3182,
      "duration": 0.0775,
      "velocity": 111,
      "chip": "ym2612"
    },
    {
      "channel": 4,
      "note": 49,
      "start": 85.3211,
      "duration": 0.1413,
      "velocity": 120,
      "chip": "ym2612"
    },
    {
      "channel": 2,
      "note": 39,
      "start": 85.6487,
      "duration": 0.0305,
      "velocity": 119,
      "chip": "ym2612"
    },
    {
      "channel": 4,
      "note": 49,
      "start": 85.6517,
      "duration": 0.044,
      "velocity": 120,
      "chip": "ym2612"
    },
    {
      "channel": 3,
      "note": 81,
      "start": 85.655,
      "duration": 0.324,
      "velocity": 114,
      "chip": "ym2612"
    },
    {
      "channel": 4,
      "note": 49,
      "start": 85.7828,
      "duration": 0.1295,
      "velocity": 120,
      "chip": "ym2612"
    },
    {
      "channel": 2,
      "note": 39,
      "start": 85.8152,
      "duration": 0.0305,
      "velocity": 119,
      "chip": "ym2612"
    },
    {
      "channel": 4,
      "note": 49,
      "start": 85.9494,
      "duration": 0.163,
      "velocity": 120,
      "chip": "ym2612"
    },
    {
      "channel": 0,
      "note": 51,
      "start": 85.9827,
      "duration": 0.0128,
      "velocity": 107,
      "chip": "ym2612"
    },
    {
      "channel": 2,
      "note": 39,
      "start": 85.9852,
      "duration": 0.0106,
      "velocity": 119,
      "chip": "ym2612"
    },
    {
      "channel": 5,
      "note": 68,
      "start": 85.9885,
      "duration": 0.0739,
      "velocity": 111,
      "chip": "ym2612"
    },
    {
      "channel": 3,
      "note": 80,
      "start": 85.9917,
      "duration": 2.9372,
      "velocity": 114,
      "chip": "ym2612"
    },
    {
      "channel": 2,
      "note": 39,
      "start": 86.2987,
      "duration": 0.0304,
      "velocity": 119,
      "chip": "ym2612"
    },
    {
      "channel": 4,
      "note": 49,
      "start": 86.3021,
      "duration": 0.0768,
      "velocity": 120,
      "chip": "ym2612"
    },
    {
      "channel": 4,
      "note": 49,
      "start": 86.4493,
      "duration": 0.1297,
      "velocity": 120,
      "chip": "ym2612"
    },
    {
      "channel": 2,
      "note": 39,
      "start": 86.4652,
      "duration": 0.0307,
      "velocity": 119,
      "chip": "ym2612"
    },
    {
      "channel": 4,
      "note": 49,
      "start": 86.616,
      "duration": 0.1464,
      "velocity": 120,
      "chip": "ym2612"
    },
    {
      "channel": 2,
      "note": 39,
      "start": 86.6323,
      "duration": 0.0302,
      "velocity": 119,
      "chip": "ym2612"
    },
    {
      "channel": 5,
      "note": 68,
      "start": 86.6352,
      "duration": 0.0772,
      "velocity": 111,
      "chip": "ym2612"
    },
    {
      "channel": 4,
      "note": 49,
      "start": 86.9327,
      "duration": 0.113,
      "velocity": 120,
      "chip": "ym2612"
    },
    {
      "channel": 1,
      "note": 33,
      "start": 86.9654,
      "duration": 0.1636,
      "velocity": 67,
      "chip": "ym2612"
    },
    {
      "channel": 2,
      "note": 39,
      "start": 86.9678,
      "duration": 0.0113,
      "velocity": 119,
      "chip": "ym2612"
    },
    {
      "channel": 4,
      "note": 49,
      "start": 87.0993,
      "duration": 0.1297,
      "velocity": 120,
      "chip": "ym2612"
    },
    {
      "channel": 2,
      "note": 39,
      "start": 87.132,
      "duration": 0.0137,
      "velocity": 119,
      "chip": "ym2612"
    },
    {
      "channel": 4,
      "note": 49,
      "start": 87.266,
      "duration": 0.163,
      "velocity": 120,
      "chip": "ym2612"
    },
    {
      "channel": 2,
      "note": 39,
      "start": 87.2987,
      "duration": 0.0139,
      "velocity": 119,
      "chip": "ym2612"
    },
    {
      "channel": 5,
      "note": 68,
      "start": 87.3015,
      "duration": 0.0608,
      "velocity": 111,
      "chip": "ym2612"
    },
    {
      "channel": 4,
      "note": 49,
      "start": 87.5998,
      "duration": 0.0959,
      "velocity": 120,
      "chip": "ym2612"
    },
    {
      "channel": 1,
      "note": 33,
      "start": 87.6152,
      "duration": 0.1637,
      "velocity": 67,
      "chip": "ym2612"
    },
    {
      "channel": 2,
      "note": 39,
      "start": 87.6176,
      "duration": 0.0283,
      "velocity": 119,
      "chip": "ym2612"
    },
    {
      "channel": 4,
      "note": 49,
      "start": 87.7493,
      "duration": 0.163,
      "velocity": 120,
      "chip": "ym2612"
    },
    {
      "channel": 2,
      "note": 39,
      "start": 87.782,
      "duration": 0.0305,
      "velocity": 119,
      "chip": "ym2612"
    },
    {
      "channel": 4,
      "note": 49,
      "start": 87.9161,
      "duration": 0.1963,
      "velocity": 120,
      "chip": "ym2612"
    },
    {
      "channel": 2,
      "note": 39,
      "start": 87.9487,
      "duration": 0.0305,
      "velocity": 119,
      "chip": "ym2612"
    },
    {
      "channel": 5,
      "note": 68,
      "start": 87.9516,
      "duration": 0.0775,
      "velocity": 111,
      "chip": "ym2612"
    },
    {
      "channel": 4,
      "note": 49,
      "start": 88.2493,
      "duration": 0.1131,
      "velocity": 120,
      "chip": "ym2612"
    },
    {
      "channel": 1,
      "note": 33,
      "start": 88.282,
      "duration": 0.147,
      "velocity": 67,
      "chip": "ym2612"
    },
    {
      "channel": 2,
      "note": 39,
      "start": 88.2844,
      "duration": 0.0115,
      "velocity": 119,
      "chip": "ym2612"
    },
    {
      "channel": 4,
      "note": 49,
      "start": 88.4159,
      "duration": 0.1298,
      "velocity": 120,
      "chip": "ym2612"
    },
    {
      "channel": 2,
      "note": 39,
      "start": 88.432,
      "duration": 0.0305,
      "velocity": 119,
      "chip": "ym2612"
    },
    {
      "channel": 4,
      "note": 49,
      "start": 88.5827,
      "duration": 0.1796,
      "velocity": 120,
      "chip": "ym2612"
    },
    {
      "channel": 2,
      "note": 39,
      "start": 88.599,
      "duration": 0.0301,
      "velocity": 119,
      "chip": "ym2612"
    },
    {
      "channel": 5,
      "note": 68,
      "start": 88.6021,
      "duration": 0.0769,
      "velocity": 111,
      "chip": "ym2612"
    },
    {
      "channel": 4,
      "note": 49,
      "start": 88.8998,
      "duration": 0.1125,
      "velocity": 120,
      "chip": "ym2612"
    },
    {
      "channel": 0,
      "note": 51,
      "start": 88.932,
      "duration": 0.0303,
      "velocity": 107,
      "chip": "ym2612"
    },
    {
      "channel": 5,
      "note": 61,
      "start": 88.9351,
      "duration": 0.0774,
      "velocity": 111,
      "chip": "ym2612"
    },
    {
      "channel": 3,
      "note": 78,
      "start": 88.938,
      "duration": 0.3243,
      "velocity": 114,
      "chip": "ym2612"
    },
    {
      "channel": 4,
      "note": 49,
      "start": 89.0659,
      "duration": 0.1298,
      "velocity": 120,
      "chip": "ym2612"
    },
    {
      "channel": 0,
      "note": 51,
      "start": 89.0985,
      "duration": 0.0138,
      "velocity": 107,
      "chip": "ym2612"
    },
    {
      "channel": 4,
      "note": 49,
      "start": 89.2327,
      "duration": 0.163,
      "velocity": 120,
      "chip": "ym2612"
    },
    {
      "channel": 1,
      "note": 50,
      "start": 89.2659,
      "duration": 0.463,
      "velocity": 114,
      "chip": "ym2612"
    },
    {
      "channel": 2,
      "note": 33,
      "start": 89.2688,
      "duration": 0.1604,
      "velocity": 67,
      "chip": "ym2612"
    },
    {
      "channel": 5,
      "note": 68,
      "start": 89.2725,
      "duration": 0.0732,
      "velocity": 111,
      "chip": "ym2612"
    },
    {
      "channel": 3,
      "note": 80,
      "start": 89.2754,
      "duration": 0.9702,
      "velocity": 114,
      "chip": "ym2612"
    },
    {
      "channel": 4,
      "note": 49,
      "start": 89.566,
      "duration": 0.0963,
      "velocity": 120,
      "chip": "ym2612"
    },
    {
      "channel": 2,
      "note": 39,
      "start": 89.582,
      "duration": 0.0306,
      "velocity": 119,
      "chip": "ym2612"
    },
    {
      "channel": 4,
      "note": 49,
      "start": 89.7326,
      "duration": 0.1464,
      "velocity": 120,
      "chip": "ym2612"
    },
    {
      "channel": 1,
      "note": 47,
      "start": 89.7488,
      "duration": 0.1301,
      "velocity": 114,
      "chip": "ym2612"
    },
    {
      "channel": 0,
      "note": 33,
      "start": 89.7515,
      "duration": 0.1606,
      "velocity": 67,
      "chip": "ym2612"
    },
    {
      "channel": 2,
      "note": 39,
      "start": 89.7538,
      "duration": 0.0252,
      "velocity": 119,
      "chip": "ym2612"
    },
    {
      "channel": 4,
      "note": 49,
      "start": 89.8828,
      "duration": 0.1961,
      "velocity": 120,
      "chip": "ym2612"
    },
    {
      "channel": 1,
      "note": 50,
      "start": 89.9156,
      "duration": 0.2966,
      "velocity": 114,
      "chip": "ym2612"
    },
    {
      "channel": 5,
      "note": 51,
      "start": 89.9183,
      "duration": 0.0274,
      "velocity": 107,
      "chip": "ym2612"
    },
    {
      "channel": 2,
      "note": 39,
      "start": 89.9209,
      "duration": 0.025,
      "velocity": 119,
      "chip": "ym2612"
    },
    {
      "channel": 0,
      "note": 68,
      "start": 89.9239,
      "duration": 0.0717,
      "velocity": 111,
      "chip": "ym2612"
    },
    {
      "channel": 1,
      "note": 49,
      "start": 90.249,
      "duration": 0.1298,
      "velocity": 114,
      "chip": "ym2612"
    },
    {
      "channel": 5,
      "note": 33,
      "start": 90.252,
      "duration": 0.1603,
      "velocity": 67,
      "chip": "ym2612"
    },
    {
      "channel": 2,
      "note": 39,
      "start": 90.2545,
      "duration": 0.0097,
      "velocity": 119,
      "chip": "ym2612"
    },
    {
      "channel": 4,
      "note": 49,
      "start": 90.258,
      "duration": 0.0711,
      "velocity": 120,
      "chip": "ym2612"
    },
    {
      "channel": 3,
      "note": 78,
      "start": 90.2612,
      "duration": 0.6344,
      "velocity": 114,
      "chip": "ym2612"
    },
    {
      "channel": 4,
      "note": 49,
      "start": 90.3828,
      "duration": 0.1629,
      "velocity": 120,
      "chip": "ym2612"
    },
    {
      "channel": 2,
      "note": 39,
      "start": 90.4152,
      "duration": 0.0139,
      "velocity": 119,
      "chip": "ym2612"
    },
    {
      "channel": 4,
      "note": 49,
      "start": 90.5493,
      "duration": 0.1631,
      "velocity": 120,
      "chip": "ym2612"
    },
    {
      "channel": 2,
      "note": 39,
      "start": 90.5653,
      "duration": 0.0304,
      "velocity": 119,
      "chip": "ym2612"
    },
    {
      "channel": 0,
      "note": 68,
      "start": 90.5681,
      "duration": 0.0776,
      "velocity": 111,
      "chip": "ym2612"
    },
    {
      "channel": 4,
      "note": 49,
      "start": 90.8828,
      "duration": 0.0962,
      "velocity": 120,
      "chip": "ym2612"
    },
    {
      "channel": 2,
      "note": 39,
      "start": 90.8987,
      "duration": 0.0305,
      "velocity": 119,
      "chip": "ym2612"
    },
    {
      "channel": 3,
      "note": 76,
      "start": 90.9018,
      "duration": 0.3272,
      "velocity": 114,
      "chip": "ym2612"
    },
    {
      "channel": 4,
      "note": 49,
      "start": 91.0326,
      "duration": 0.1463,
      "velocity": 120,
      "chip": "ym2612"
    },
    {
      "channel": 2,
      "note": 39,
      "start": 91.0652,
      "duration": 0.0307,
      "velocity": 119,
      "chip": "ym2612"
    },
    {
      "channel": 4,
      "note": 49,
      "start": 91.1994,
      "duration": 0.163,
      "velocity": 120,
      "chip": "ym2612"
    },
    {
      "channel": 1,
      "note": 51,
      "start": 91.2324,
      "duration": 0.0132,
      "velocity": 107,
      "chip": "ym2612"
    },
    {
      "channel": 2,
      "note": 39,
      "start": 91.2353,
      "duration": 0.0106,
      "velocity": 119,
      "chip": "ym2612"
    },
    {
      "channel": 0,
      "note": 68,
      "start": 91.238,
      "duration": 0.0741,
      "velocity": 111,
      "chip": "ym2612"
    },
    {
      "channel": 3,
      "note": 75,
      "start": 91.2413,
      "duration": 2.9377,
      "velocity": 114,
      "chip": "ym2612"
    },
    {
      "channel": 2,
      "note": 39,
      "start": 91.5654,
      "duration": 0.0137,
      "velocity": 119,
      "chip": "ym2612"
    },
    {
      "channel": 4,
      "note": 49,
      "start": 91.5688,
      "duration": 0.0602,
      "velocity": 120,
      "chip": "ym2612"
    },
    {
      "channel": 4,
      "note": 49,
      "start": 91.6994,
      "duration": 0.1297,
      "velocity": 120,
      "chip": "ym2612"
    },
    {
      "channel": 2,
      "note": 39,
      "start": 91.7151,
      "duration": 0.0307,
      "velocity": 119,
      "chip": "ym2612"
    },
    {
      "channel": 2,
      "note": 39,
      "start": 91.882,
      "duration": 0.0305,
      "velocity": 119,
      "chip": "ym2612"
    },
    {
      "channel": 0,
      "note": 68,
      "start": 91.8847,
      "duration": 0.0774,
      "velocity": 111,
      "chip": "ym2612"
    },
    {
      "channel": 4,
      "note": 49,
      "start": 91.8877,
      "duration": 0.158,
      "velocity": 120,
      "chip": "ym2612"
    },
    {
      "channel": 5,
      "note": 33,
      "start": 92.2155,
      "duration": 0.1637,
      "velocity": 67,
      "chip": "ym2612"
    },
    {
      "channel": 2,
      "note": 39,
      "start": 92.2179,
      "duration": 0.0279,
      "velocity": 119,
      "chip": "ym2612"
    },
    {
      "channel": 4,
      "note": 49,
      "start": 92.221,
      "duration": 0.0746,
      "velocity": 120,
      "chip": "ym2612"
    },
    {
      "channel": 4,
      "note": 49,
      "start": 92.3494,
      "duration": 0.1629,
      "velocity": 120,
      "chip": "ym2612"
    },
    {
      "channel": 2,
      "note": 39,
      "start": 92.382,
      "duration": 0.0138,
      "velocity": 119,
      "chip": "ym2612"
    },
    {
      "channel": 2,
      "note": 39,
      "start": 92.5486,
      "duration": 0.0139,
      "velocity": 119,
      "chip": "ym2612"
    },
    {
      "channel": 0,
      "note": 68,
      "start": 92.5513,
      "duration": 0.0777,
      "velocity": 111,
      "chip": "ym2612"
    },
    {
      "channel": 4,
      "note": 49,
      "start": 92.5545,
      "duration": 0.1412,
      "velocity": 120,
      "chip": "ym2612"
    },
    {
      "channel": 5,
      "note": 33,
      "start": 92.8653,
      "duration": 0.1638,
      "velocity": 67,
      "chip": "ym2612"
    },
    {
      "channel": 2,
      "note": 39,
      "start": 92.8678,
      "duration": 0.028,
      "velocity": 119,
      "chip": "ym2612"
    },
    {
      "channel": 4,
      "note": 49,
      "start": 92.8708,
      "duration": 0.0749,
      "velocity": 120,
      "chip": "ym2612"
    },
    {
      "channel": 2,
      "note": 39,
      "start": 93.032,
      "duration": 0.0304,
      "velocity": 119,
      "chip": "ym2612"
    },
    {
      "channel": 4,
      "note": 49,
      "start": 93.0349,
      "duration": 0.1108,
      "velocity": 120,
      "chip": "ym2612"
    },
    {
      "channel": 2,
      "note": 39,
      "start": 93.199,
      "duration": 0.0302,
      "velocity": 119,
      "chip": "ym2612"
    },
    {
      "channel": 0,
      "note": 68,
      "start": 93.2017,
      "duration": 0.0771,
      "velocity": 111,
      "chip": "ym2612"
    },
    {
      "channel": 4,
      "note": 49,
      "start": 93.2046,
      "duration": 0.1244,
      "velocity": 120,
      "chip": "ym2612"
    },
    {
      "channel": 5,
      "note": 33,
      "start": 93.5326,
      "duration": 0.1632,
      "velocity": 67,
      "chip": "ym2612"
    },
    {
      "channel": 2,
      "note": 39,
      "start": 93.535,
      "duration": 0.0109,
      "velocity": 119,
      "chip": "ym2612"
    },
    {
      "channel": 4,
      "note": 49,
      "start": 93.538,
      "duration": 0.0744,
      "velocity": 120,
      "chip": "ym2612"
    },
    {
      "channel": 2,
      "note": 39,
      "start": 93.6987,
      "duration": 0.0138,
      "velocity": 119,
      "chip": "ym2612"
    },
    {
      "channel": 4,
      "note": 49,
      "start": 93.7016,
      "duration": 0.1275,
      "velocity": 120,
      "chip": "ym2612"
    },
    {
      "channel": 2,
      "note": 39,
      "start": 93.8486,
      "duration": 0.0305,
      "velocity": 119,
      "chip": "ym2612"
    },
    {
      "channel": 0,
      "note": 68,
      "start": 93.8519,
      "duration": 0.077,
      "velocity": 111,
      "chip": "ym2612"
    },
    {
      "channel": 4,
      "note": 49,
      "start": 93.8552,
      "duration": 0.1572,
      "velocity": 120,
      "chip": "ym2612"
    },
    {
      "channel": 1,
      "note": 51,
      "start": 94.182,
      "duration": 0.0302,
      "velocity": 107,
      "chip": "ym2612"
    },
    {
      "channel": 0,
      "note": 61,
      "start": 94.1849,
      "duration": 0.0773,
      "velocity": 111,
      "chip": "ym2612"
    },
    {
      "channel": 4,
      "note": 49,
      "start": 94.1879,
      "duration": 0.1078,
      "velocity": 120,
      "chip": "ym2612"
    },
    {
      "channel": 3,
      "note": 71,
      "start": 94.1907,
      "duration": 0.3216,
      "velocity": 114,
      "chip": "ym2612"
    },
    {
      "channel": 1,
      "note": 51,
      "start": 94.3485,
      "duration": 0.0303,
      "velocity": 107,
      "chip": "ym2612"
    },
    {
      "channel": 4,
      "note": 49,
      "start": 94.3517,
      "duration": 0.1273,
      "velocity": 120,
      "chip": "ym2612"
    },
    {
      "channel": 5,
      "note": 50,
      "start": 94.5161,
      "duration": 0.463,
      "velocity": 114,
      "chip": "ym2612"
    },
    {
      "channel": 2,
      "note": 33,
      "start": 94.5191,
      "duration": 0.16,
      "velocity": 67,
      "chip": "ym2612"
    },
    {
      "channel": 0,
      "note": 68,
      "start": 94.5225,
      "duration": 0.0731,
      "velocity": 111,
      "chip": "ym2612"
    },
    {
      "channel": 4,
      "note": 49,
      "start": 94.5254,
      "duration": 0.087,
      "velocity": 120,
      "chip": "ym2612"
    },
    {
      "channel": 3,
      "note": 73,
      "start": 94.529,
      "duration": 5.2333,
      "velocity": 114,
      "chip": "ym2612"
    },
    {
      "channel": 2,
      "note": 39,
      "start": 94.832,
      "duration": 0.0305,
      "velocity": 119,
      "chip": "ym2612"
    },
    {
      "channel": 4,
      "note": 49,
      "start": 94.8351,
      "duration": 0.0606,
      "velocity": 120,
      "chip": "ym2612"
    },
    {
      "channel": 5,
      "note": 47,
      "start": 94.9989,
      "duration": 0.1468,
      "velocity": 114,
      "chip": "ym2612"
    },
    {
      "channel": 1,
      "note": 33,
      "start": 95.0017,
      "duration": 0.1606,
      "velocity": 67,
      "chip": "ym2612"
    },
    {
      "channel": 2,
      "note": 39,
      "start": 95.0039,
      "duration": 0.0252,
      "velocity": 119,
      "chip": "ym2612"
    },
    {
      "channel": 4,
      "note": 49,
      "start": 95.0069,
      "duration": 0.1055,
      "velocity": 120,
      "chip": "ym2612"
    },
    {
      "channel": 5,
      "note": 50,
      "start": 95.1657,
      "duration": 0.2967,
      "velocity": 114,
      "chip": "ym2612"
    },
    {
      "channel": 0,
      "note": 51,
      "start": 95.1688,
      "duration": 0.0266,
      "velocity": 107,
      "chip": "ym2612"
    },
    {
      "channel": 2,
      "note": 39,
      "start": 95.1713,
      "duration": 0.0246,
      "velocity": 119,
      "chip": "ym2612"
    },
    {
      "channel": 4,
      "note": 68,
      "start": 95.1743,
      "duration": 0.0714,
      "velocity": 111,
      "chip": "ym2612"
    },
    {
      "channel": 1,
      "note": 49,
      "start": 95.1777,
      "duration": 0.1178,
      "velocity": 120,
      "chip": "ym2612"
    },
    {
      "channel": 5,
      "note": 49,
      "start": 95.4992,
      "duration": 0.1298,
      "velocity": 114,
      "chip": "ym2612"
    },
    {
      "channel": 0,
      "note": 33,
      "start": 95.5022,
      "duration": 0.16,
      "velocity": 67,
      "chip": "ym2612"
    },
    {
      "channel": 2,
      "note": 39,
      "start": 95.5046,
      "duration": 0.0078,
      "velocity": 119,
      "chip": "ym2612"
    },
    {
      "channel": 1,
      "note": 49,
      "start": 95.5076,
      "duration": 0.038,
      "velocity": 120,
      "chip": "ym2612"
    },
    {
      "channel": 1,
      "note": 49,
      "start": 95.6327,
      "duration": 0.1296,
      "velocity": 120,
      "chip": "ym2612"
    },
    {
      "channel": 2,
      "note": 39,
      "start": 95.6653,
      "duration": 0.0139,
      "velocity": 119,
      "chip": "ym2612"
    },
    {
      "channel": 2,
      "note": 39,
      "start": 95.8324,
      "duration": 0.0134,
      "velocity": 119,
      "chip": "ym2612"
    },
    {
      "channel": 4,
      "note": 68,
      "start": 95.8353,
      "duration": 0.0605,
      "velocity": 111,
      "chip": "ym2612"
    },
    {
      "channel": 1,
      "note": 49,
      "start": 95.838,
      "duration": 0.1242,
      "velocity": 120,
      "chip": "ym2612"
    },
    {
      "channel": 2,
      "note": 39,
      "start": 96.1487,
      "duration": 0.0305,
      "velocity": 119,
      "chip": "ym2612"
    },
    {
      "channel": 1,
      "note": 49,
      "start": 96.1517,
      "duration": 0.0606,
      "velocity": 120,
      "chip": "ym2612"
    },
    {
      "channel": 1,
      "note": 49,
      "start": 96.2826,
      "duration": 0.1464,
      "velocity": 120,
      "chip": "ym2612"
    },
    {
      "channel": 2,
      "note": 39,
      "start": 96.3152,
      "duration": 0.0305,
      "velocity": 119,
      "chip": "ym2612"
    },
    {
      "channel": 1,
      "note": 49,
      "start": 96.4496,
      "duration": 0.1626,
      "velocity": 120,
      "chip": "ym2612"
    },
    {
      "channel": 5,
      "note": 51,
      "start": 96.4823,
      "duration": 0.0301,
      "velocity": 107,
      "chip": "ym2612"
    },
    {
      "channel": 2,
      "note": 39,
      "start": 96.4848,
      "duration": 0.0277,
      "velocity": 119,
      "chip": "ym2612"
    },
    {
      "channel": 4,
      "note": 68,
      "start": 96.4877,
      "duration": 0.0747,
      "velocity": 111,
      "chip": "ym2612"
    },
    {
      "channel": 2,
      "note": 39,
      "start": 96.8152,
      "duration": 0.0138,
      "velocity": 119,
      "chip": "ym2612"
    },
    {
      "channel": 1,
      "note": 49,
      "start": 96.8182,
      "duration": 0.0773,
      "velocity": 120,
      "chip": "ym2612"
    },
    {
      "channel": 1,
      "note": 49,
      "start": 96.9493,
      "duration": 0.1296,
      "velocity": 120,
      "chip": "ym2612"
    },
    {
      "channel": 2,
      "note": 39,
      "start": 96.9651,
      "duration": 0.0307,
      "velocity": 119,
      "chip": "ym2612"
    },
    {
      "channel": 1,
      "note": 49,
      "start": 97.1159,
      "duration": 0.163,
      "velocity": 120,
      "chip": "ym2612"
    },
    {
      "channel": 2,
      "note": 39,
      "start": 97.132,
      "duration": 0.0306,
      "velocity": 119,
      "chip": "ym2612"
    },
    {
      "channel": 4,
      "note": 68,
      "start": 97.1348,
      "duration": 0.0776,
      "velocity": 111,
      "chip": "ym2612"
    },
    {
      "channel": 1,
      "note": 49,
      "start": 97.4326,
      "duration": 0.1129,
      "velocity": 120,
      "chip": "ym2612"
    },
    {
      "channel": 0,
      "note": 33,
      "start": 97.4653,
      "duration": 0.1636,
      "velocity": 67,
      "chip": "ym2612"
    },
    {
      "channel": 2,
      "note": 39,
      "start": 97.4678,
      "duration": 0.028,
      "velocity": 119,
      "chip": "ym2612"
    },
    {
      "channel": 1,
      "note": 49,
      "start": 97.5991,
      "duration": 0.1298,
      "velocity": 120,
      "chip": "ym2612"
    },
    {
      "channel": 2,
      "note": 39,
      "start": 97.632,
      "duration": 0.0138,
      "velocity": 119,
      "chip": "ym2612"
    },
    {
      "channel": 1,
      "note": 49,
      "start": 97.7663,
      "duration": 0.1627,
      "velocity": 120,
      "chip": "ym2612"
    },
    {
      "channel": 2,
      "note": 39,
      "start": 97.799,
      "duration": 0.0134,
      "velocity": 119,
      "chip": "ym2612"
    },
    {
      "channel": 4,
      "note": 68,
      "start": 97.8019,
      "duration": 0.0772,
      "velocity": 111,
      "chip": "ym2612"
    },
    {
      "channel": 1,
      "note": 49,
      "start": 98.0993,
      "duration": 0.0964,
      "velocity": 120,
      "chip": "ym2612"
    },
    {
      "channel": 0,
      "note": 33,
      "start": 98.1151,
      "duration": 0.1637,
      "velocity": 67,
      "chip": "ym2612"
    },
    {
      "channel": 2,
      "note": 39,
      "start": 98.1176,
      "duration": 0.0282,
      "velocity": 119,
      "chip": "ym2612"
    },
    {
      "channel": 1,
      "note": 49,
      "start": 98.2658,
      "duration": 0.1465,
      "velocity": 120,
      "chip": "ym2612"
    },
    {
      "channel": 2,
      "note": 39,
      "start": 98.2819,
      "duration": 0.0305,
      "velocity": 119,
      "chip": "ym2612"
    },
    {
      "channel": 1,
      "note": 49,
      "start": 98.416,
      "duration": 0.1963,
      "velocity": 120,
      "chip": "ym2612"
    },
    {
      "channel": 2,
      "note": 39,
      "start": 98.4486,
      "duration": 0.0305,
      "velocity": 119,
      "chip": "ym2612"
    },
    {
      "channel": 4,
      "note": 68,
      "start": 98.4515,
      "duration": 0.0776,
      "velocity": 111,
      "chip": "ym2612"
    },
    {
      "channel": 1,
      "note": 49,
      "start": 98.7492,
      "duration": 0.1131,
      "velocity": 120,
      "chip": "ym2612"
    },
    {
      "channel": 0,
      "note": 33,
      "start": 98.782,
      "duration": 0.1636,
      "velocity": 67,
      "chip": "ym2612"
    },
    {
      "channel": 2,
      "note": 39,
      "start": 98.7844,
      "duration": 0.0115,
      "velocity": 119,
      "chip": "ym2612"
    },
    {
      "channel": 1,
      "note": 49,
      "start": 98.9158,
      "duration": 0.1298,
      "velocity": 120,
      "chip": "ym2612"
    },
    {
      "channel": 2,
      "note": 39,
      "start": 98.9486,
      "duration": 0.0139,
      "velocity": 119,
      "chip": "ym2612"
    },
    {
      "channel": 1,
      "note": 49,
      "start": 99.083,
      "duration": 0.1792,
      "velocity": 120,
      "chip": "ym2612"
    },
    {
      "channel": 2,
      "note": 39,
      "start": 99.0986,
      "duration": 0.0305,
      "velocity": 119,
      "chip": "ym2612"
    },
    {
      "channel": 4,
      "note": 68,
      "start": 99.1016,
      "duration": 0.0774,
      "velocity": 111,
      "chip": "ym2612"
    },
    {
      "channel": 1,
      "note": 49,
      "start": 99.4159,
      "duration": 0.0963,
      "velocity": 120,
      "chip": "ym2612"
    },
    {
      "channel": 5,
      "note": 51,
      "start": 99.432,
      "duration": 0.0305,
      "velocity": 107,
      "chip": "ym2612"
    },
    {
      "channel": 4,
      "note": 61,
      "start": 99.4351,
      "duration": 0.0773,
      "velocity": 111,
      "chip": "ym2612"
    },
    {
      "channel": 1,
      "note": 49,
      "start": 99.5658,
      "duration": 0.1464,
      "velocity": 120,
      "chip": "ym2612"
    },
    {
      "channel": 5,
      "note": 51,
      "start": 99.5987,
      "duration": 0.0304,
      "velocity": 107,
      "chip": "ym2612"
    },
    {
      "channel": 1,
      "note": 49,
      "start": 99.7326,
      "duration": 0.1629,
      "velocity": 120,
      "chip": "ym2612"
    },
    {
      "channel": 0,
      "note": 50,
      "start": 99.7658,
      "duration": 0.463,
      "velocity": 114,
      "chip": "ym2612"
    },
    {
      "channel": 2,
      "note": 33,
      "start": 99.7687,
      "duration": 0.1604,
      "velocity": 67,
      "chip": "ym2612"
    },
    {
      "channel": 4,
      "note": 68,
      "start": 99.7723,
      "duration": 0.0734,
      "velocity": 111,
      "chip": "ym2612"
    },
    {
      "channel": 1,
      "note": 49,
      "start": 100.066,
      "duration": 0.0963,
      "velocity": 120,
      "chip": "ym2612"
    },
    {
      "channel": 2,
      "note": 39,
      "start": 100.0986,
      "duration": 0.0139,
      "velocity": 119,
      "chip": "ym2612"
    },
    {
      "channel": 1,
      "note": 49,
      "start": 100.2325,
      "duration": 0.1632,
      "velocity": 120,
      "chip": "ym2612"
    },
    {
      "channel": 0,
      "note": 47,
      "start": 100.2492,
      "duration": 0.1464,
      "velocity": 114,
      "chip": "ym2612"
    },
    {
      "channel": 5,
      "note": 33,
      "start": 100.2519,
      "duration": 0.1605,
      "velocity": 67,
      "chip": "ym2612"
    },
    {
      "channel": 2,
      "note": 39,
      "start": 100.2542,
      "duration": 0.025,
      "velocity": 119,
      "chip": "ym2612"
    },
    {
      "channel": 1,
      "note": 49,
      "start": 100.3998,
      "duration": 0.1791,
      "velocity": 120,
      "chip": "ym2612"
    },
    {
      "channel": 0,
      "note": 50,
      "start": 100.4155,
      "duration": 0.2966,
      "velocity": 114,
      "chip": "ym2612"
    },
    {
      "channel": 3,
      "note": 51,
      "start": 100.4183,
      "duration": 0.0274,
      "velocity": 107,
      "chip": "ym2612"
    },
    {
      "channel": 2,
      "note": 39,
      "start": 100.4212,
      "duration": 0.0247,
      "velocity": 119,
      "chip": "ym2612"
    },
    {
      "channel": 4,
      "note": 68,
      "start": 100.4241,
      "duration": 0.0716,
      "velocity": 111,
      "chip": "ym2612"
    },
    {
      "channel": 0,
      "note": 49,
      "start": 100.7489,
      "duration": 0.13,
      "velocity": 114,
      "chip": "ym2612"
    },
    {
      "channel": 5,
      "note": 33,
      "start": 100.7522,
      "duration": 0.1603,
      "velocity": 67,
      "chip": "ym2612"
    },
    {
      "channel": 2,
      "note": 39,
      "start": 100.7546,
      "duration": 0.0246,
      "velocity": 119,
      "chip": "ym2612"
    },
    {
      "channel": 1,
      "note": 49,
      "start": 100.7576,
      "duration": 0.0712,
      "velocity": 120,
      "chip": "ym2612"
    },
    {
      "channel": 1,
      "note": 49,
      "start": 100.8827,
      "duration": 0.1628,
      "velocity": 120,
      "chip": "ym2612"
    },
    {
      "channel": 2,
      "note": 39,
      "start": 100.9153,
      "duration": 0.0138,
      "velocity": 119,
      "chip": "ym2612"
    },
    {
      "channel": 1,
      "note": 49,
      "start": 101.0491,
      "duration": 0.1632,
      "velocity": 120,
      "chip": "ym2612"
    },
    {
      "channel": 2,
      "note": 39,
      "start": 101.0819,
      "duration": 0.0139,
      "velocity": 119,
      "chip": "ym2612"
    },
    {
      "channel": 4,
      "note": 68,
      "start": 101.0851,
      "duration": 0.0772,
      "velocity": 111,
      "chip": "ym2612"
    },
    {
      "channel": 1,
      "note": 49,
      "start": 101.3826,
      "duration": 0.0963,
      "velocity": 120,
      "chip": "ym2612"
    },
    {
      "channel": 2,
      "note": 39,
      "start": 101.3986,
      "duration": 0.0304,
      "velocity": 119,
      "chip": "ym2612"
    },
    {
      "channel": 1,
      "note": 49,
      "start": 101.5491,
      "duration": 0.1298,
      "velocity": 120,
      "chip": "ym2612"
    },
    {
      "channel": 2,
      "note": 39,
      "start": 101.5651,
      "duration": 0.0307,
      "velocity": 119,
      "chip": "ym2612"
    },
    {
      "channel": 1,
      "note": 49,
      "start": 101.6997,
      "duration": 0.1626,
      "velocity": 120,
      "chip": "ym2612"
    },
    {
      "channel": 3,
      "note": 51,
      "start": 101.7321,
      "duration": 0.0302,
      "velocity": 107,
      "chip": "ym2612"
    },
    {
      "channel": 2,
      "note": 39,
      "start": 101.7347,
      "duration": 0.0279,
      "velocity": 119,
      "chip": "ym2612"
    },
    {
      "channel": 4,
      "note": 68,
      "start": 101.7375,
      "duration": 0.0748,
      "velocity": 111,
      "chip": "ym2612"
    },
    {
      "channel": 2,
      "note": 39,
      "start": 102.0653,
      "duration": 0.0138,
      "velocity": 119,
      "chip": "ym2612"
    },
    {
      "channel": 1,
      "note": 49,
      "start": 102.0683,
      "duration": 0.0773,
      "velocity": 120,
      "chip": "ym2612"
    },
    {
      "channel": 1,
      "note": 49,
      "start": 102.1993,
      "duration": 0.1297,
      "velocity": 120,
      "chip": "ym2612"
    },
    {
      "channel": 2,
      "note": 39,
      "start": 102.2318,
      "duration": 0.0139,
      "velocity": 119,
      "chip": "ym2612"
    },
    {
      "channel": 2,
      "note": 39,
      "start": 102.3823,
      "duration": 0.0301,
      "velocity": 119,
      "chip": "ym2612"
    },
    {
      "channel": 4,
      "note": 68,
      "start": 102.3851,
      "duration": 0.0772,
      "velocity": 111,
      "chip": "ym2612"
    },
    {
      "channel": 1,
      "note": 49,
      "start": 102.388,
      "duration": 0.1576,
      "velocity": 120,
      "chip": "ym2612"
    },
    {
      "channel": 5,
      "note": 33,
      "start": 102.7155,
      "duration": 0.1635,
      "velocity": 67,
      "chip": "ym2612"
    },
    {
      "channel": 2,
      "note": 39,
      "start": 102.7179,
      "duration": 0.0279,
      "velocity": 119,
      "chip": "ym2612"
    },
    {
      "channel": 1,
      "note": 49,
      "start": 102.7209,
      "duration": 0.0746,
      "velocity": 120,
      "chip": "ym2612"
    },
    {
      "channel": 1,
      "note": 49,
      "start": 102.8496,
      "duration": 0.1627,
      "velocity": 120,
      "chip": "ym2612"
    },
    {
      "channel": 2,
      "note": 39,
      "start": 102.882,
      "duration": 0.0305,
      "velocity": 119,
      "chip": "ym2612"
    },
    {
      "channel": 2,
      "note": 39,
      "start": 103.0487,
      "duration": 0.0137,
      "velocity": 119,
      "chip": "ym2612"
    },
    {
      "channel": 4,
      "note": 68,
      "start": 103.0515,
      "duration": 0.0776,
      "velocity": 111,
      "chip": "ym2612"
    },
    {
      "channel": 1,
      "note": 49,
      "start": 103.0542,
      "duration": 0.1581,
      "velocity": 120,
      "chip": "ym2612"
    },
    {
      "channel": 5,
      "note": 33,
      "start": 103.3653,
      "duration": 0.1637,
      "velocity": 67,
      "chip": "ym2612"
    },
    {
      "channel": 2,
      "note": 39,
      "start": 103.3678,
      "duration": 0.028,
      "velocity": 119,
      "chip": "ym2612"
    },
    {
      "channel": 1,
      "note": 49,
      "start": 103.3707,
      "duration": 0.0748,
      "velocity": 120,
      "chip": "ym2612"
    },
    {
      "channel": 2,
      "note": 39,
      "start": 103.5319,
      "duration": 0.0306,
      "velocity": 119,
      "chip": "ym2612"
    },
    {
      "channel": 1,
      "note": 49,
      "start": 103.5347,
      "duration": 0.1109,
      "velocity": 120,
      "chip": "ym2612"
    },
    {
      "channel": 2,
      "note": 39,
      "start": 103.6985,
      "duration": 0.0305,
      "velocity": 119,
      "chip": "ym2612"
    },
    {
      "channel": 4,
      "note": 68,
      "start": 103.7014,
      "duration": 0.0776,
      "velocity": 111,
      "chip": "ym2612"
    },
    {
      "channel": 1,
      "note": 49,
      "start": 103.7043,
      "duration": 0.1246,
      "velocity": 120,
      "chip": "ym2612"
    },
    {
      "channel": 5,
      "note": 33,
      "start": 104.0322,
      "duration": 0.1636,
      "velocity": 67,
      "chip": "ym2612"
    },
    {
      "channel": 2,
      "note": 39,
      "start": 104.0346,
      "duration": 0.0111,
      "velocity": 119,
      "chip": "ym2612"
    },
    {
      "channel": 1,
      "note": 49,
      "start": 104.0375,
      "duration": 0.0746,
      "velocity": 120,
      "chip": "ym2612"
    },
    {
      "channel": 2,
      "note": 39,
      "start": 104.1987,
      "duration": 0.0138,
      "velocity": 119,
      "chip": "ym2612"
    },
    {
      "channel": 1,
      "note": 49,
      "start": 104.2019,
      "duration": 0.127,
      "velocity": 120,
      "chip": "ym2612"
    },
    {
      "channel": 2,
      "note": 39,
      "start": 104.3652,
      "duration": 0.0139,
      "velocity": 119,
      "chip": "ym2612"
    },
    {
      "channel": 4,
      "note": 68,
      "start": 104.3682,
      "duration": 0.0607,
      "velocity": 111,
      "chip": "ym2612"
    },
    {
      "channel": 1,
      "note": 49,
      "start": 104.3711,
      "duration": 0.1412,
      "velocity": 120,
      "chip": "ym2612"
    },
    {
      "channel": 3,
      "note": 51,
      "start": 104.682,
      "duration": 0.0303,
      "velocity": 107,
      "chip": "ym2612"
    },
    {
      "channel": 4,
      "note": 61,
      "start": 104.6851,
      "duration": 0.0773,
      "velocity": 111,
      "chip": "ym2612"
    },
    {
      "channel": 1,
      "note": 49,
      "start": 104.6879,
      "duration": 0.1077,
      "velocity": 120,
      "chip": "ym2612"
    },
    {
      "channel": 3,
      "note": 51,
      "start": 104.8484,
      "duration": 0.0305,
      "velocity": 107,
      "chip": "ym2612"
    },
    {
      "channel": 1,
      "note": 49,
      "start": 104.8514,
      "duration": 0.1275,
      "velocity": 120,
      "chip": "ym2612"
    }
  ]
}