{
  "track_name": "03 - Stage 1- Wolfship",
  "duration_sec": 102.4,
  "sample_rate": 44100,
  "note_count": 2407,
  "unique_pitches": 33,
  "pitch_range": 78,
  "avg_note_duration": 0.2421,
  "reconstruction_stats": {
    "notes_reconstructed": 2407,
    "keyon_events": 2407,
    "keyoff_events": 2251,
    "orphan_keyons": 6,
    "unique_pitches": 33,
    "pitch_range": 78,
    "avg_duration_sec": 0.2421
  },
  "metadata": {
    "source": "W\\Wolfchild\\03 - Stage 1- Wolfship.vgz"
  },
  "notes": [
    {
      "channel": 1,
      "note": 58,
      "start": 0.0,
      "duration": 0.198,
      "velocity": 107,
      "chip": "ym2612"
    },
    {
      "channel": 5,
      "note": 34,
      "start": 0.0023,
      "duration": 6.4115,
      "velocity": 108,
      "chip": "ym2612"
    },
    {
      "channel": 1,
      "note": 58,
      "start": 0.1983,
      "duration": 0.2014,
      "velocity": 107,
      "chip": "ym2612"
    },
    {
      "channel": 2,
      "note": 58,
      "start": 0.2003,
      "duration": 0.2978,
      "velocity": 96,
      "chip": "ym2612"
    },
    {
      "channel": 1,
      "note": 58,
      "start": 0.3998,
      "duration": 0.1999,
      "velocity": 107,
      "chip": "ym2612"
    },
    {
      "channel": 2,
      "note": 58,
      "start": 0.4983,
      "duration": 0.3003,
      "velocity": 96,
      "chip": "ym2612"
    },
    {
      "channel": 1,
      "note": 65,
      "start": 0.5998,
      "duration": 0.1982,
      "velocity": 107,
      "chip": "ym2612"
    },
    {
      "channel": 1,
      "note": 70,
      "start": 0.7983,
      "duration": 0.1998,
      "velocity": 107,
      "chip": "ym2612"
    },
    {
      "channel": 2,
      "note": 58,
      "start": 0.7988,
      "duration": 0.2993,
      "velocity": 96,
      "chip": "ym2612"
    },
    {
      "channel": 1,
      "note": 70,
      "start": 0.9982,
      "duration": 0.2015,
      "velocity": 107,
      "chip": "ym2612"
    },
    {
      "channel": 2,
      "note": 58,
      "start": 1.0983,
      "duration": 0.3019,
      "velocity": 96,
      "chip": "ym2612"
    },
    {
      "channel": 1,
      "note": 70,
      "start": 1.1998,
      "duration": 0.1998,
      "velocity": 107,
      "chip": "ym2612"
    },
    {
      "channel": 1,
      "note": 65,
      "start": 1.3998,
      "duration": 0.1982,
      "velocity": 107,
      "chip": "ym2612"
    },
    {
      "channel": 2,
      "note": 56,
      "start": 1.4004,
      "duration": 0.0977,
      "velocity": 96,
      "chip": "ym2612"
    },
    {
      "channel": 2,
      "note": 56,
      "start": 1.4983,
      "duration": 0.1003,
      "velocity": 96,
      "chip": "ym2612"
    },
    {
      "channel": 1,
      "note": 58,
      "start": 1.5983,
      "duration": 0.1998,
      "velocity": 107,
      "chip": "ym2612"
    },
    {
      "channel": 2,
      "note": 56,
      "start": 1.5988,
      "duration": 0.0993,
      "velocity": 96,
      "chip": "ym2612"
    },
    {
      "channel": 2,
      "note": 58,
      "start": 1.6983,
      "duration": 0.1003,
      "velocity": 96,
      "chip": "ym2612"
    },
    {
      "channel": 1,
      "note": 58,
      "start": 1.7983,
      "duration": 0.2014,
      "velocity": 107,
      "chip": "ym2612"
    },
    {
      "channel": 2,
      "note": 58,
      "start": 1.7988,
      "duration": 0.2993,
      "velocity": 96,
      "chip": "ym2612"
    },
    {
      "channel": 1,
      "note": 58,
      "start": 1.9998,
      "duration": 0.1999,
      "velocity": 107,
      "chip": "ym2612"
    },
    {
      "channel": 2,
      "note": 58,
      "start": 2.0983,
      "duration": 0.3003,
      "velocity": 96,
      "chip": "ym2612"
    },
    {
      "channel": 1,
      "note": 65,
      "start": 2.1998,
      "duration": 0.1982,
      "velocity": 107,
      "chip": "ym2612"
    },
    {
      "channel": 1,
      "note": 70,
      "start": 2.3983,
      "duration": 0.1998,
      "velocity": 107,
      "chip": "ym2612"
    },
    {
      "channel": 2,
      "note": 58,
      "start": 2.3988,
      "duration": 0.2993,
      "velocity": 96,
      "chip": "ym2612"
    },
    {
      "channel": 1,
      "note": 70,
      "start": 2.5982,
      "duration": 0.2015,
      "velocity": 107,
      "chip": "ym2612"
    },
    {
      "channel": 2,
      "note": 58,
      "start": 2.6983,
      "duration": 0.7003,
      "velocity": 96,
      "chip": "ym2612"
    },
    {
      "channel": 1,
      "note": 70,
      "start": 2.7998,
      "duration": 0.1998,
      "velocity": 107,
      "chip": "ym2612"
    },
    {
      "channel": 1,
      "note": 65,
      "start": 2.9998,
      "duration": 0.1983,
      "velocity": 107,
      "chip": "ym2612"
    },
    {
      "channel": 1,
      "note": 58,
      "start": 3.1982,
      "duration": 0.1999,
      "velocity": 107,
      "chip": "ym2612"
    },
    {
      "channel": 1,
      "note": 58,
      "start": 3.3983,
      "duration": 0.2014,
      "velocity": 107,
      "chip": "ym2612"
    },
    {
      "channel": 2,
      "note": 58,
      "start": 3.3988,
      "duration": 0.2993,
      "velocity": 96,
      "chip": "ym2612"
    },
    {
      "channel": 1,
      "note": 58,
      "start": 3.5998,
      "duration": 0.1999,
      "velocity": 107,
      "chip": "ym2612"
    },
    {
      "channel": 2,
      "note": 58,
      "start": 3.6983,
      "duration": 0.3003,
      "velocity": 96,
      "chip": "ym2612"
    },
    {
      "channel": 1,
      "note": 65,
      "start": 3.7998,
      "duration": 0.1982,
      "velocity": 107,
      "chip": "ym2612"
    },
    {
      "channel": 1,
      "note": 70,
      "start": 3.9983,
      "duration": 0.1998,
      "velocity": 107,
      "chip": "ym2612"
    },
    {
      "channel": 2,
      "note": 58,
      "start": 3.9988,
      "duration": 0.2993,
      "velocity": 96,
      "chip": "ym2612"
    },
    {
      "channel": 1,
      "note": 70,
      "start": 4.1982,
      "duration": 0.2015,
      "velocity": 107,
      "chip": "ym2612"
    },
    {
      "channel": 2,
      "note": 58,
      "start": 4.2983,
      "duration": 0.3019,
      "velocity": 96,
      "chip": "ym2612"
    },
    {
      "channel": 1,
      "note": 70,
      "start": 4.3998,
      "duration": 0.1998,
      "velocity": 107,
      "chip": "ym2612"
    },
    {
      "channel": 1,
      "note": 65,
      "start": 4.5998,
      "duration": 0.1982,
      "velocity": 107,
      "chip": "ym2612"
    },
    {
      "channel": 2,
      "note": 56,
      "start": 4.6004,
      "duration": 0.0977,
      "velocity": 96,
      "chip": "ym2612"
    },
    {
      "channel": 2,
      "note": 56,
      "start": 4.6983,
      "duration": 0.1003,
      "velocity": 96,
      "chip": "ym2612"
    },
    {
      "channel": 1,
      "note": 58,
      "start": 4.7983,
      "duration": 0.1998,
      "velocity": 107,
      "chip": "ym2612"
    },
    {
      "channel": 2,
      "note": 56,
      "start": 4.7988,
      "duration": 0.0993,
      "velocity": 96,
      "chip": "ym2612"
    },
    {
      "channel": 2,
      "note": 58,
      "start": 4.8983,
      "duration": 0.1003,
      "velocity": 96,
      "chip": "ym2612"
    },
    {
      "channel": 1,
      "note": 58,
      "start": 4.9983,
      "duration": 0.2014,
      "velocity": 107,
      "chip": "ym2612"
    },
    {
      "channel": 2,
      "note": 58,
      "start": 4.9988,
      "duration": 0.2993,
      "velocity": 96,
      "chip": "ym2612"
    },
    {
      "channel": 1,
      "note": 58,
      "start": 5.1998,
      "duration": 0.1999,
      "velocity": 107,
      "chip": "ym2612"
    },
    {
      "channel": 2,
      "note": 58,
      "start": 5.2983,
      "duration": 0.3003,
      "velocity": 96,
      "chip": "ym2612"
    },
    {
      "channel": 1,
      "note": 65,
      "start": 5.3998,
      "duration": 0.1982,
      "velocity": 107,
      "chip": "ym2612"
    },
    {
      "channel": 1,
      "note": 70,
      "start": 5.5983,
      "duration": 0.1998,
      "velocity": 107,
      "chip": "ym2612"
    },
    {
      "channel": 2,
      "note": 58,
      "start": 5.5988,
      "duration": 0.2993,
      "velocity": 96,
      "chip": "ym2612"
    },
    {
      "channel": 1,
      "note": 70,
      "start": 5.7982,
      "duration": 0.2015,
      "velocity": 107,
      "chip": "ym2612"
    },
    {
      "channel": 2,
      "note": 58,
      "start": 5.8983,
      "duration": 0.2674,
      "velocity": 96,
      "chip": "ym2612"
    },
    {
      "channel": 1,
      "note": 70,
      "start": 5.9998,
      "duration": 0.1654,
      "velocity": 107,
      "chip": "ym2612"
    },
    {
      "channel": 1,
      "note": 65,
      "start": 6.1653,
      "duration": 0.1659,
      "velocity": 107,
      "chip": "ym2612"
    },
    {
      "channel": 2,
      "note": 56,
      "start": 6.1659,
      "duration": 0.0804,
      "velocity": 96,
      "chip": "ym2612"
    },
    {
      "channel": 2,
      "note": 56,
      "start": 6.2465,
      "duration": 0.2682,
      "velocity": 96,
      "chip": "ym2612"
    },
    {
      "channel": 0,
      "note": 46,
      "start": 6.3307,
      "duration": 0.1828,
      "velocity": 119,
      "chip": "ym2612"
    },
    {
      "channel": 1,
      "note": 58,
      "start": 6.3313,
      "duration": 0.1827,
      "velocity": 107,
      "chip": "ym2612"
    },
    {
      "channel": 5,
      "note": 110,
      "start": 6.414,
      "duration": 0.1014,
      "velocity": 108,
      "chip": "ym2612"
    },
    {
      "channel": 0,
      "note": 46,
      "start": 6.5137,
      "duration": 0.2812,
      "velocity": 119,
      "chip": "ym2612"
    },
    {
      "channel": 1,
      "note": 58,
      "start": 6.5142,
      "duration": 0.1992,
      "velocity": 107,
      "chip": "ym2612"
    },
    {
      "channel": 2,
      "note": 58,
      "start": 6.5148,
      "duration": 0.2807,
      "velocity": 96,
      "chip": "ym2612"
    },
    {
      "channel": 5,
      "note": 112,
      "start": 6.5155,
      "duration": 0.0967,
      "velocity": 108,
      "chip": "ym2612"
    },
    {
      "channel": 5,
      "note": 108,
      "start": 6.6124,
      "duration": 0.1838,
      "velocity": 108,
      "chip": "ym2612"
    },
    {
      "channel": 1,
      "note": 58,
      "start": 6.7137,
      "duration": 0.1849,
      "velocity": 107,
      "chip": "ym2612"
    },
    {
      "channel": 0,
      "note": 46,
      "start": 6.795,
      "duration": 0.1013,
      "velocity": 102,
      "chip": "ym2612"
    },
    {
      "channel": 2,
      "note": 58,
      "start": 6.7957,
      "duration": 0.2851,
      "velocity": 96,
      "chip": "ym2612"
    },
    {
      "channel": 5,
      "note": 110,
      "start": 6.7963,
      "duration": 0.182,
      "velocity": 108,
      "chip": "ym2612"
    },
    {
      "channel": 0,
      "note": 46,
      "start": 6.8966,
      "duration": 0.1831,
      "velocity": 119,
      "chip": "ym2612"
    },
    {
      "channel": 1,
      "note": 65,
      "start": 6.8986,
      "duration": 0.1816,
      "velocity": 107,
      "chip": "ym2612"
    },
    {
      "channel": 5,
      "note": 112,
      "start": 6.9785,
      "duration": 0.103,
      "velocity": 108,
      "chip": "ym2612"
    },
    {
      "channel": 0,
      "note": 46,
      "start": 7.0799,
      "duration": 0.1998,
      "velocity": 102,
      "chip": "ym2612"
    },
    {
      "channel": 1,
      "note": 70,
      "start": 7.0804,
      "duration": 0.1998,
      "velocity": 107,
      "chip": "ym2612"
    },
    {
      "channel": 2,
      "note": 58,
      "start": 7.081,
      "duration": 0.2802,
      "velocity": 96,
      "chip": "ym2612"
    },
    {
      "channel": 5,
      "note": 108,
      "start": 7.0816,
      "duration": 0.0968,
      "velocity": 108,
      "chip": "ym2612"
    },
    {
      "channel": 5,
      "note": 110,
      "start": 7.1786,
      "duration": 0.1832,
      "velocity": 108,
      "chip": "ym2612"
    },
    {
      "channel": 0,
      "note": 46,
      "start": 7.2798,
      "duration": 0.2639,
      "velocity": 102,
      "chip": "ym2612"
    },
    {
      "channel": 1,
      "note": 70,
      "start": 7.2804,
      "duration": 0.1823,
      "velocity": 107,
      "chip": "ym2612"
    },
    {
      "channel": 2,
      "note": 58,
      "start": 7.3613,
      "duration": 0.2698,
      "velocity": 96,
      "chip": "ym2612"
    },
    {
      "channel": 5,
      "note": 112,
      "start": 7.362,
      "duration": 0.2699,
      "velocity": 108,
      "chip": "ym2612"
    },
    {
      "channel": 1,
      "note": 70,
      "start": 7.4628,
      "duration": 0.1678,
      "velocity": 107,
      "chip": "ym2612"
    },
    {
      "channel": 0,
      "note": 44,
      "start": 7.5439,
      "duration": 0.0846,
      "velocity": 119,
      "chip": "ym2612"
    },
    {
      "channel": 0,
      "note": 46,
      "start": 7.6286,
      "duration": 0.1998,
      "velocity": 102,
      "chip": "ym2612"
    },
    {
      "channel": 1,
      "note": 65,
      "start": 7.6307,
      "duration": 0.1983,
      "velocity": 107,
      "chip": "ym2612"
    },
    {
      "channel": 2,
      "note": 56,
      "start": 7.6313,
      "duration": 0.0957,
      "velocity": 96,
      "chip": "ym2612"
    },
    {
      "channel": 5,
      "note": 108,
      "start": 7.632,
      "duration": 0.0957,
      "velocity": 108,
      "chip": "ym2612"
    },
    {
      "channel": 2,
      "note": 56,
      "start": 7.7272,
      "duration": 0.1024,
      "velocity": 96,
      "chip": "ym2612"
    },
    {
      "channel": 5,
      "note": 110,
      "start": 7.7279,
      "duration": 0.1829,
      "velocity": 108,
      "chip": "ym2612"
    },
    {
      "channel": 0,
      "note": 46,
      "start": 7.8286,
      "duration": 0.1828,
      "velocity": 119,
      "chip": "ym2612"
    },
    {
      "channel": 1,
      "note": 58,
      "start": 7.8292,
      "duration": 0.1829,
      "velocity": 107,
      "chip": "ym2612"
    },
    {
      "channel": 2,
      "note": 56,
      "start": 7.8297,
      "duration": 0.0803,
      "velocity": 96,
      "chip": "ym2612"
    },
    {
      "channel": 2,
      "note": 58,
      "start": 7.9102,
      "duration": 0.1025,
      "velocity": 96,
      "chip": "ym2612"
    },
    {
      "channel": 5,
      "note": 112,
      "start": 7.9108,
      "duration": 0.1025,
      "velocity": 108,
      "chip": "ym2612"
    },
    {
      "channel": 0,
      "note": 44,
      "start": 8.0117,
      "duration": 0.2811,
      "velocity": 119,
      "chip": "ym2612"
    },
    {
      "channel": 1,
      "note": 58,
      "start": 8.0122,
      "duration": 0.1992,
      "velocity": 107,
      "chip": "ym2612"
    },
    {
      "channel": 2,
      "note": 58,
      "start": 8.0128,
      "duration": 0.2807,
      "velocity": 96,
      "chip": "ym2612"
    },
    {
      "channel": 5,
      "note": 110,
      "start": 8.0134,
      "duration": 0.0968,
      "velocity": 108,
      "chip": "ym2612"
    },
    {
      "channel": 5,
      "note": 108,
      "start": 8.1104,
      "duration": 0.1837,
      "velocity": 108,
      "chip": "ym2612"
    },
    {
      "channel": 1,
      "note": 58,
      "start": 8.2117,
      "duration": 0.1848,
      "velocity": 107,
      "chip": "ym2612"
    },
    {
      "channel": 0,
      "note": 44,
      "start": 8.293,
      "duration": 0.1013,
      "velocity": 102,
      "chip": "ym2612"
    },
    {
      "channel": 2,
      "note": 58,
      "start": 8.2936,
      "duration": 0.2852,
      "velocity": 96,
      "chip": "ym2612"
    },
    {
      "channel": 5,
      "note": 110,
      "start": 8.2943,
      "duration": 0.1821,
      "velocity": 108,
      "chip": "ym2612"
    },
    {
      "channel": 0,
      "note": 46,
      "start": 8.3945,
      "duration": 0.1832,
      "velocity": 119,
      "chip": "ym2612"
    },
    {
      "channel": 1,
      "note": 65,
      "start": 8.3966,
      "duration": 0.1817,
      "velocity": 107,
      "chip": "ym2612"
    },
    {
      "channel": 5,
      "note": 108,
      "start": 8.4765,
      "duration": 0.103,
      "velocity": 108,
      "chip": "ym2612"
    },
    {
      "channel": 0,
      "note": 44,
      "start": 8.5779,
      "duration": 0.1998,
      "velocity": 102,
      "chip": "ym2612"
    },
    {
      "channel": 1,
      "note": 70,
      "start": 8.5784,
      "duration": 0.1998,
      "velocity": 107,
      "chip": "ym2612"
    },
    {
      "channel": 2,
      "note": 58,
      "start": 8.579,
      "duration": 0.2802,
      "velocity": 96,
      "chip": "ym2612"
    },
    {
      "channel": 5,
      "note": 110,
      "start": 8.5796,
      "duration": 0.0968,
      "velocity": 108,
      "chip": "ym2612"
    },
    {
      "channel": 5,
      "note": 112,
      "start": 8.6766,
      "duration": 0.1832,
      "velocity": 108,
      "chip": "ym2612"
    },
    {
      "channel": 0,
      "note": 46,
      "start": 8.7778,
      "duration": 0.2639,
      "velocity": 102,
      "chip": "ym2612"
    },
    {
      "channel": 1,
      "note": 70,
      "start": 8.7784,
      "duration": 0.1823,
      "velocity": 107,
      "chip": "ym2612"
    },
    {
      "channel": 2,
      "note": 58,
      "start": 8.8593,
      "duration": 0.6512,
      "velocity": 96,
      "chip": "ym2612"
    },
    {
      "channel": 5,
      "note": 110,
      "start": 8.86,
      "duration": 0.2693,
      "velocity": 108,
      "chip": "ym2612"
    },
    {
      "channel": 1,
      "note": 70,
      "start": 8.9608,
      "duration": 0.1678,
      "velocity": 107,
      "chip": "ym2612"
    },
    {
      "channel": 0,
      "note": 44,
      "start": 9.0419,
      "duration": 0.0846,
      "velocity": 119,
      "chip": "ym2612"
    },
    {
      "channel": 0,
      "note": 44,
      "start": 9.1266,
      "duration": 0.1998,
      "velocity": 102,
      "chip": "ym2612"
    },
    {
      "channel": 1,
      "note": 65,
      "start": 9.1287,
      "duration": 0.1982,
      "velocity": 107,
      "chip": "ym2612"
    },
    {
      "channel": 5,
      "note": 112,
      "start": 9.1295,
      "duration": 0.0957,
      "velocity": 108,
      "chip": "ym2612"
    },
    {
      "channel": 5,
      "note": 108,
      "start": 9.2253,
      "duration": 0.1828,
      "velocity": 108,
      "chip": "ym2612"
    },
    {
      "channel": 0,
      "note": 46,
      "start": 9.3266,
      "duration": 0.1828,
      "velocity": 119,
      "chip": "ym2612"
    },
    {
      "channel": 1,
      "note": 58,
      "start": 9.3271,
      "duration": 0.1828,
      "velocity": 107,
      "chip": "ym2612"
    },
    {
      "channel": 5,
      "note": 110,
      "start": 9.4083,
      "duration": 0.103,
      "velocity": 108,
      "chip": "ym2612"
    },
    {
      "channel": 0,
      "note": 46,
      "start": 9.5096,
      "duration": 0.2812,
      "velocity": 119,
      "chip": "ym2612"
    },
    {
      "channel": 1,
      "note": 58,
      "start": 9.5102,
      "duration": 0.1992,
      "velocity": 107,
      "chip": "ym2612"
    },
    {
      "channel": 2,
      "note": 58,
      "start": 9.5107,
      "duration": 0.2807,
      "velocity": 96,
      "chip": "ym2612"
    },
    {
      "channel": 5,
      "note": 112,
      "start": 9.5114,
      "duration": 0.0968,
      "velocity": 108,
      "chip": "ym2612"
    },
    {
      "channel": 5,
      "note": 108,
      "start": 9.6083,
      "duration": 0.1838,
      "velocity": 108,
      "chip": "ym2612"
    },
    {
      "channel": 1,
      "note": 58,
      "start": 9.7096,
      "duration": 0.1849,
      "velocity": 107,
      "chip": "ym2612"
    },
    {
      "channel": 0,
      "note": 46,
      "start": 9.791,
      "duration": 0.1013,
      "velocity": 102,
      "chip": "ym2612"
    },
    {
      "channel": 2,
      "note": 58,
      "start": 9.7916,
      "duration": 0.2852,
      "velocity": 96,
      "chip": "ym2612"
    },
    {
      "channel": 5,
      "note": 110,
      "start": 9.7923,
      "duration": 0.1821,
      "velocity": 108,
      "chip": "ym2612"
    },
    {
      "channel": 0,
      "note": 46,
      "start": 9.8925,
      "duration": 0.1832,
      "velocity": 119,
      "chip": "ym2612"
    },
    {
      "channel": 1,
      "note": 65,
      "start": 9.8946,
      "duration": 0.1817,
      "velocity": 107,
      "chip": "ym2612"
    },
    {
      "channel": 5,
      "note": 112,
      "start": 9.9745,
      "duration": 0.103,
      "velocity": 108,
      "chip": "ym2612"
    },
    {
      "channel": 0,
      "note": 46,
      "start": 10.0758,
      "duration": 0.1998,
      "velocity": 102,
      "chip": "ym2612"
    },
    {
      "channel": 1,
      "note": 70,
      "start": 10.0764,
      "duration": 0.1998,
      "velocity": 107,
      "chip": "ym2612"
    },
    {
      "channel": 2,
      "note": 58,
      "start": 10.0769,
      "duration": 0.2802,
      "velocity": 96,
      "chip": "ym2612"
    },
    {
      "channel": 5,
      "note": 110,
      "start": 10.0776,
      "duration": 0.0968,
      "velocity": 108,
      "chip": "ym2612"
    },
    {
      "channel": 5,
      "note": 108,
      "start": 10.1746,
      "duration": 0.1832,
      "velocity": 108,
      "chip": "ym2612"
    },
    {
      "channel": 0,
      "note": 46,
      "start": 10.2758,
      "duration": 0.2639,
      "velocity": 102,
      "chip": "ym2612"
    },
    {
      "channel": 1,
      "note": 70,
      "start": 10.2763,
      "duration": 0.1823,
      "velocity": 107,
      "chip": "ym2612"
    },
    {
      "channel": 2,
      "note": 58,
      "start": 10.3573,
      "duration": 0.2698,
      "velocity": 96,
      "chip": "ym2612"
    },
    {
      "channel": 5,
      "note": 110,
      "start": 10.358,
      "duration": 0.2699,
      "velocity": 108,
      "chip": "ym2612"
    },
    {
      "channel": 1,
      "note": 70,
      "start": 10.4588,
      "duration": 0.1678,
      "velocity": 107,
      "chip": "ym2612"
    },
    {
      "channel": 0,
      "note": 44,
      "start": 10.5398,
      "duration": 0.0846,
      "velocity": 119,
      "chip": "ym2612"
    },
    {
      "channel": 0,
      "note": 46,
      "start": 10.6246,
      "duration": 0.1998,
      "velocity": 102,
      "chip": "ym2612"
    },
    {
      "channel": 1,
      "note": 65,
      "start": 10.6267,
      "duration": 0.1983,
      "velocity": 107,
      "chip": "ym2612"
    },
    {
      "channel": 2,
      "note": 56,
      "start": 10.6273,
      "duration": 0.0957,
      "velocity": 96,
      "chip": "ym2612"
    },
    {
      "channel": 5,
      "note": 108,
      "start": 10.628,
      "duration": 0.0957,
      "velocity": 108,
      "chip": "ym2612"
    },
    {
      "channel": 2,
      "note": 56,
      "start": 10.7231,
      "duration": 0.1024,
      "velocity": 96,
      "chip": "ym2612"
    },
    {
      "channel": 5,
      "note": 110,
      "start": 10.7238,
      "duration": 0.1829,
      "velocity": 108,
      "chip": "ym2612"
    },
    {
      "channel": 0,
      "note": 46,
      "start": 10.8246,
      "duration": 0.1828,
      "velocity": 119,
      "chip": "ym2612"
    },
    {
      "channel": 1,
      "note": 58,
      "start": 10.8252,
      "duration": 0.1829,
      "velocity": 107,
      "chip": "ym2612"
    },
    {
      "channel": 2,
      "note": 56,
      "start": 10.8257,
      "duration": 0.0803,
      "velocity": 96,
      "chip": "ym2612"
    },
    {
      "channel": 2,
      "note": 58,
      "start": 10.9062,
      "duration": 0.1024,
      "velocity": 96,
      "chip": "ym2612"
    },
    {
      "channel": 5,
      "note": 112,
      "start": 10.9069,
      "duration": 0.1024,
      "velocity": 108,
      "chip": "ym2612"
    },
    {
      "channel": 0,
      "note": 44,
      "start": 11.0076,
      "duration": 0.2812,
      "velocity": 119,
      "chip": "ym2612"
    },
    {
      "channel": 1,
      "note": 58,
      "start": 11.0082,
      "duration": 0.1992,
      "velocity": 107,
      "chip": "ym2612"
    },
    {
      "channel": 2,
      "note": 58,
      "start": 11.0087,
      "duration": 0.2807,
      "velocity": 96,
      "chip": "ym2612"
    },
    {
      "channel": 5,
      "note": 110,
      "start": 11.0094,
      "duration": 0.0968,
      "velocity": 108,
      "chip": "ym2612"
    },
    {
      "channel": 5,
      "note": 112,
      "start": 11.1064,
      "duration": 0.1838,
      "velocity": 108,
      "chip": "ym2612"
    },
    {
      "channel": 1,
      "note": 58,
      "start": 11.2076,
      "duration": 0.1849,
      "velocity": 107,
      "chip": "ym2612"
    },
    {
      "channel": 0,
      "note": 44,
      "start": 11.289,
      "duration": 0.1013,
      "velocity": 102,
      "chip": "ym2612"
    },
    {
      "channel": 2,
      "note": 58,
      "start": 11.2896,
      "duration": 0.2852,
      "velocity": 96,
      "chip": "ym2612"
    },
    {
      "channel": 5,
      "note": 108,
      "start": 11.2903,
      "duration": 0.1821,
      "velocity": 108,
      "chip": "ym2612"
    },
    {
      "channel": 0,
      "note": 46,
      "start": 11.3905,
      "duration": 0.1832,
      "velocity": 119,
      "chip": "ym2612"
    },
    {
      "channel": 1,
      "note": 65,
      "start": 11.3926,
      "duration": 0.1817,
      "velocity": 107,
      "chip": "ym2612"
    },
    {
      "channel": 5,
      "note": 110,
      "start": 11.4725,
      "duration": 0.103,
      "velocity": 108,
      "chip": "ym2612"
    },
    {
      "channel": 0,
      "note": 44,
      "start": 11.5739,
      "duration": 0.1998,
      "velocity": 102,
      "chip": "ym2612"
    },
    {
      "channel": 1,
      "note": 70,
      "start": 11.5744,
      "duration": 0.1998,
      "velocity": 107,
      "chip": "ym2612"
    },
    {
      "channel": 2,
      "note": 58,
      "start": 11.575,
      "duration": 0.2802,
      "velocity": 96,
      "chip": "ym2612"
    },
    {
      "channel": 5,
      "note": 108,
      "start": 11.5756,
      "duration": 0.0968,
      "velocity": 108,
      "chip": "ym2612"
    },
    {
      "channel": 5,
      "note": 112,
      "start": 11.6726,
      "duration": 0.4364,
      "velocity": 108,
      "chip": "ym2612"
    },
    {
      "channel": 0,
      "note": 46,
      "start": 11.7738,
      "duration": 0.2471,
      "velocity": 102,
      "chip": "ym2612"
    },
    {
      "channel": 1,
      "note": 70,
      "start": 11.7744,
      "duration": 0.1653,
      "velocity": 107,
      "chip": "ym2612"
    },
    {
      "channel": 2,
      "note": 58,
      "start": 11.8553,
      "duration": 0.2529,
      "velocity": 96,
      "chip": "ym2612"
    },
    {
      "channel": 1,
      "note": 70,
      "start": 11.9399,
      "duration": 0.1679,
      "velocity": 107,
      "chip": "ym2612"
    },
    {
      "channel": 0,
      "note": 44,
      "start": 12.021,
      "duration": 0.0846,
      "velocity": 119,
      "chip": "ym2612"
    },
    {
      "channel": 0,
      "note": 44,
      "start": 12.1058,
      "duration": 0.1999,
      "velocity": 102,
      "chip": "ym2612"
    },
    {
      "channel": 1,
      "note": 65,
      "start": 12.1079,
      "duration": 0.1984,
      "velocity": 107,
      "chip": "ym2612"
    },
    {
      "channel": 2,
      "note": 56,
      "start": 12.1085,
      "duration": 0.0957,
      "velocity": 96,
      "chip": "ym2612"
    },
    {
      "channel": 5,
      "note": 110,
      "start": 12.1092,
      "duration": 0.0957,
      "velocity": 108,
      "chip": "ym2612"
    },
    {
      "channel": 2,
      "note": 56,
      "start": 12.2043,
      "duration": 0.1041,
      "velocity": 87,
      "chip": "ym2612"
    },
    {
      "channel": 5,
      "note": 111,
      "start": 12.205,
      "duration": 0.1832,
      "velocity": 108,
      "chip": "ym2612"
    },
    {
      "channel": 0,
      "note": 46,
      "start": 12.3059,
      "duration": 0.1834,
      "velocity": 119,
      "chip": "ym2612"
    },
    {
      "channel": 1,
      "note": 58,
      "start": 12.3065,
      "duration": 0.1834,
      "velocity": 107,
      "chip": "ym2612"
    },
    {
      "channel": 2,
      "note": 70,
      "start": 12.3086,
      "duration": 1.4982,
      "velocity": 87,
      "chip": "ym2612"
    },
    {
      "channel": 3,
      "note": 73,
      "start": 12.3108,
      "duration": 1.4966,
      "velocity": 102,
      "chip": "ym2612"
    },
    {
      "channel": 4,
      "note": 77,
      "start": 12.3129,
      "duration": 1.4949,
      "velocity": 102,
      "chip": "ym2612"
    },
    {
      "channel": 5,
      "note": 110,
      "start": 12.3884,
      "duration": 0.1022,
      "velocity": 108,
      "chip": "ym2612"
    },
    {
      "channel": 0,
      "note": 46,
      "start": 12.4895,
      "duration": 0.2811,
      "velocity": 119,
      "chip": "ym2612"
    },
    {
      "channel": 1,
      "note": 58,
      "start": 12.49,
      "duration": 0.1993,
      "velocity": 107,
      "chip": "ym2612"
    },
    {
      "channel": 5,
      "note": 112,
      "start": 12.4908,
      "duration": 0.0973,
      "velocity": 108,
      "chip": "ym2612"
    },
    {
      "channel": 5,
      "note": 108,
      "start": 12.5882,
      "duration": 0.1832,
      "velocity": 108,
      "chip": "ym2612"
    },
    {
      "channel": 1,
      "note": 58,
      "start": 12.6895,
      "duration": 0.1847,
      "velocity": 107,
      "chip": "ym2612"
    },
    {
      "channel": 0,
      "note": 46,
      "start": 12.7708,
      "duration": 0.1014,
      "velocity": 102,
      "chip": "ym2612"
    },
    {
      "channel": 5,
      "note": 110,
      "start": 12.7716,
      "duration": 0.1823,
      "velocity": 108,
      "chip": "ym2612"
    },
    {
      "channel": 0,
      "note": 46,
      "start": 12.8723,
      "duration": 0.1829,
      "velocity": 119,
      "chip": "ym2612"
    },
    {
      "channel": 1,
      "note": 65,
      "start": 12.8745,
      "duration": 0.1813,
      "velocity": 107,
      "chip": "ym2612"
    },
    {
      "channel": 5,
      "note": 112,
      "start": 12.9541,
      "duration": 0.1024,
      "velocity": 108,
      "chip": "ym2612"
    },
    {
      "channel": 0,
      "note": 46,
      "start": 13.0554,
      "duration": 0.1998,
      "velocity": 102,
      "chip": "ym2612"
    },
    {
      "channel": 1,
      "note": 70,
      "start": 13.0559,
      "duration": 0.1998,
      "velocity": 107,
      "chip": "ym2612"
    },
    {
      "channel": 5,
      "note": 108,
      "start": 13.0567,
      "duration": 0.0973,
      "velocity": 108,
      "chip": "ym2612"
    },
    {
      "channel": 5,
      "note": 110,
      "start": 13.1541,
      "duration": 0.1828,
      "velocity": 108,
      "chip": "ym2612"
    },
    {
      "channel": 0,
      "note": 46,
      "start": 13.2554,
      "duration": 0.2639,
      "velocity": 102,
      "chip": "ym2612"
    },
    {
      "channel": 1,
      "note": 70,
      "start": 13.2559,
      "duration": 0.1822,
      "velocity": 107,
      "chip": "ym2612"
    },
    {
      "channel": 5,
      "note": 112,
      "start": 13.337,
      "duration": 0.2698,
      "velocity": 108,
      "chip": "ym2612"
    },
    {
      "channel": 1,
      "note": 70,
      "start": 13.4384,
      "duration": 0.1677,
      "velocity": 107,
      "chip": "ym2612"
    },
    {
      "channel": 0,
      "note": 46,
      "start": 13.5195,
      "duration": 0.0844,
      "velocity": 119,
      "chip": "ym2612"
    },
    {
      "channel": 0,
      "note": 46,
      "start": 13.6041,
      "duration": 0.1999,
      "velocity": 102,
      "chip": "ym2612"
    },
    {
      "channel": 1,
      "note": 65,
      "start": 13.6063,
      "duration": 0.1984,
      "velocity": 107,
      "chip": "ym2612"
    },
    {
      "channel": 5,
      "note": 108,
      "start": 13.607,
      "duration": 0.0957,
      "velocity": 108,
      "chip": "ym2612"
    },
    {
      "channel": 5,
      "note": 110,
      "start": 13.7028,
      "duration": 0.1833,
      "velocity": 108,
      "chip": "ym2612"
    },
    {
      "channel": 0,
      "note": 44,
      "start": 13.8042,
      "duration": 0.1831,
      "velocity": 119,
      "chip": "ym2612"
    },
    {
      "channel": 1,
      "note": 61,
      "start": 13.8047,
      "duration": 0.1831,
      "velocity": 107,
      "chip": "ym2612"
    },
    {
      "channel": 2,
      "note": 73,
      "start": 13.8069,
      "duration": 0.7475,
      "velocity": 87,
      "chip": "ym2612"
    },
    {
      "channel": 3,
      "note": 72,
      "start": 13.8075,
      "duration": 1.4961,
      "velocity": 102,
      "chip": "ym2612"
    },
    {
      "channel": 4,
      "note": 75,
      "start": 13.808,
      "duration": 1.4961,
      "velocity": 102,
      "chip": "ym2612"
    },
    {
      "channel": 5,
      "note": 112,
      "start": 13.8863,
      "duration": 0.1023,
      "velocity": 108,
      "chip": "ym2612"
    },
    {
      "channel": 0,
      "note": 44,
      "start": 13.9875,
      "duration": 0.2812,
      "velocity": 119,
      "chip": "ym2612"
    },
    {
      "channel": 1,
      "note": 61,
      "start": 13.988,
      "duration": 0.1993,
      "velocity": 107,
      "chip": "ym2612"
    },
    {
      "channel": 5,
      "note": 110,
      "start": 13.9888,
      "duration": 0.0973,
      "velocity": 108,
      "chip": "ym2612"
    },
    {
      "channel": 5,
      "note": 108,
      "start": 14.0862,
      "duration": 0.1833,
      "velocity": 108,
      "chip": "ym2612"
    },
    {
      "channel": 1,
      "note": 61,
      "start": 14.1875,
      "duration": 0.1848,
      "velocity": 107,
      "chip": "ym2612"
    },
    {
      "channel": 0,
      "note": 44,
      "start": 14.2688,
      "duration": 0.1014,
      "velocity": 102,
      "chip": "ym2612"
    },
    {
      "channel": 5,
      "note": 110,
      "start": 14.2696,
      "duration": 0.1823,
      "velocity": 108,
      "chip": "ym2612"
    },
    {
      "channel": 0,
      "note": 44,
      "start": 14.3703,
      "duration": 0.1829,
      "velocity": 119,
      "chip": "ym2612"
    },
    {
      "channel": 1,
      "note": 68,
      "start": 14.3725,
      "duration": 0.1813,
      "velocity": 107,
      "chip": "ym2612"
    },
    {
      "channel": 5,
      "note": 108,
      "start": 14.4521,
      "duration": 0.103,
      "velocity": 108,
      "chip": "ym2612"
    },
    {
      "channel": 0,
      "note": 44,
      "start": 14.5534,
      "duration": 0.1998,
      "velocity": 102,
      "chip": "ym2612"
    },
    {
      "channel": 1,
      "note": 73,
      "start": 14.554,
      "duration": 0.1998,
      "velocity": 107,
      "chip": "ym2612"
    },
    {
      "channel": 2,
      "note": 70,
      "start": 14.5545,
      "duration": 0.7485,
      "velocity": 87,
      "chip": "ym2612"
    },
    {
      "channel": 5,
      "note": 110,
      "start": 14.5552,
      "duration": 0.0968,
      "velocity": 108,
      "chip": "ym2612"
    },
    {
      "channel": 5,
      "note": 112,
      "start": 14.6522,
      "duration": 0.1827,
      "velocity": 108,
      "chip": "ym2612"
    },
    {
      "channel": 0,
      "note": 44,
      "start": 14.7534,
      "duration": 0.2641,
      "velocity": 102,
      "chip": "ym2612"
    },
    {
      "channel": 1,
      "note": 73,
      "start": 14.7539,
      "duration": 0.1822,
      "velocity": 107,
      "chip": "ym2612"
    },
    {
      "channel": 5,
      "note": 110,
      "start": 14.835,
      "duration": 0.2698,
      "velocity": 108,
      "chip": "ym2612"
    },
    {
      "channel": 1,
      "note": 73,
      "start": 14.9364,
      "duration": 0.1676,
      "velocity": 107,
      "chip": "ym2612"
    },
    {
      "channel": 0,
      "note": 44,
      "start": 15.0177,
      "duration": 0.0842,
      "velocity": 119,
      "chip": "ym2612"
    },
    {
      "channel": 0,
      "note": 44,
      "start": 15.102,
      "duration": 0.1999,
      "velocity": 102,
      "chip": "ym2612"
    },
    {
      "channel": 1,
      "note": 68,
      "start": 15.1042,
      "duration": 0.1984,
      "velocity": 107,
      "chip": "ym2612"
    },
    {
      "channel": 5,
      "note": 112,
      "start": 15.105,
      "duration": 0.0957,
      "velocity": 108,
      "chip": "ym2612"
    },
    {
      "channel": 5,
      "note": 108,
      "start": 15.2008,
      "duration": 0.1833,
      "velocity": 108,
      "chip": "ym2612"
    },
    {
      "channel": 0,
      "note": 39,
      "start": 15.3021,
      "duration": 0.1832,
      "velocity": 119,
      "chip": "ym2612"
    },
    {
      "channel": 1,
      "note": 63,
      "start": 15.3027,
      "duration": 0.1832,
      "velocity": 107,
      "chip": "ym2612"
    },
    {
      "channel": 2,
      "note": 75,
      "start": 15.3032,
      "duration": 0.1841,
      "velocity": 87,
      "chip": "ym2612"
    },
    {
      "channel": 3,
      "note": 70,
      "start": 15.3038,
      "duration": 2.9801,
      "velocity": 102,
      "chip": "ym2612"
    },
    {
      "channel": 4,
      "note": 73,
      "start": 15.3044,
      "duration": 2.9802,
      "velocity": 102,
      "chip": "ym2612"
    },
    {
      "channel": 5,
      "note": 110,
      "start": 15.3843,
      "duration": 0.1025,
      "velocity": 108,
      "chip": "ym2612"
    },
    {
      "channel": 0,
      "note": 46,
      "start": 15.4855,
      "duration": 0.281,
      "velocity": 119,
      "chip": "ym2612"
    },
    {
      "channel": 1,
      "note": 63,
      "start": 15.486,
      "duration": 0.1992,
      "velocity": 107,
      "chip": "ym2612"
    },
    {
      "channel": 5,
      "note": 112,
      "start": 15.4869,
      "duration": 0.0971,
      "velocity": 108,
      "chip": "ym2612"
    },
    {
      "channel": 2,
      "note": 75,
      "start": 15.4873,
      "duration": 0.0127,
      "velocity": 87,
      "chip": "ym2612"
    },
    {
      "channel": 2,
      "note": 75,
      "start": 15.5,
      "duration": 0.0333,
      "velocity": 87,
      "chip": "ym2612"
    },
    {
      "channel": 2,
      "note": 75,
      "start": 15.5334,
      "duration": 0.0167,
      "velocity": 87,
      "chip": "ym2612"
    },
    {
      "channel": 2,
      "note": 76,
      "start": 15.55,
      "duration": 0.0167,
      "velocity": 87,
      "chip": "ym2612"
    },
    {
      "channel": 2,
      "note": 76,
      "start": 15.5667,
      "duration": 0.0179,
      "velocity": 87,
      "chip": "ym2612"
    },
    {
      "channel": 5,
      "note": 108,
      "start": 15.5842,
      "duration": 0.1831,
      "velocity": 108,
      "chip": "ym2612"
    },
    {
      "channel": 2,
      "note": 76,
      "start": 15.5846,
      "duration": 0.0154,
      "velocity": 87,
      "chip": "ym2612"
    },
    {
      "channel": 2,
      "note": 76,
      "start": 15.6,
      "duration": 0.0333,
      "velocity": 87,
      "chip": "ym2612"
    },
    {
      "channel": 2,
      "note": 76,
      "start": 15.6334,
      "duration": 0.0167,
      "velocity": 87,
      "chip": "ym2612"
    },
    {
      "channel": 2,
      "note": 76,
      "start": 15.65,
      "duration": 0.0167,
      "velocity": 87,
      "chip": "ym2612"
    },
    {
      "channel": 2,
      "note": 76,
      "start": 15.6667,
      "duration": 0.0192,
      "velocity": 87,
      "chip": "ym2612"
    },
    {
      "channel": 1,
      "note": 63,
      "start": 15.6855,
      "duration": 0.1846,
      "velocity": 107,
      "chip": "ym2612"
    },
    {
      "channel": 2,
      "note": 77,
      "start": 15.686,
      "duration": 1.8644,
      "velocity": 87,
      "chip": "ym2612"
    },
    {
      "channel": 0,
      "note": 46,
      "start": 15.7666,
      "duration": 0.1013,
      "velocity": 102,
      "chip": "ym2612"
    },
    {
      "channel": 5,
      "note": 110,
      "start": 15.7674,
      "duration": 0.1822,
      "velocity": 108,
      "chip": "ym2612"
    },
    {
      "channel": 0,
      "note": 39,
      "start": 15.8681,
      "duration": 0.1828,
      "velocity": 119,
      "chip": "ym2612"
    },
    {
      "channel": 1,
      "note": 70,
      "start": 15.8702,
      "duration": 0.1812,
      "velocity": 107,
      "chip": "ym2612"
    },
    {
      "channel": 5,
      "note": 112,
      "start": 15.9498,
      "duration": 0.1024,
      "velocity": 108,
      "chip": "ym2612"
    },
    {
      "channel": 0,
      "note": 46,
      "start": 16.051,
      "duration": 0.1998,
      "velocity": 102,
      "chip": "ym2612"
    },
    {
      "channel": 1,
      "note": 75,
      "start": 16.0516,
      "duration": 0.1998,
      "velocity": 107,
      "chip": "ym2612"
    },
    {
      "channel": 5,
      "note": 110,
      "start": 16.0524,
      "duration": 0.0973,
      "velocity": 108,
      "chip": "ym2612"
    },
    {
      "channel": 5,
      "note": 108,
      "start": 16.1498,
      "duration": 0.1828,
      "velocity": 108,
      "chip": "ym2612"
    },
    {
      "channel": 0,
      "note": 39,
      "start": 16.251,
      "duration": 0.2641,
      "velocity": 102,
      "chip": "ym2612"
    },
    {
      "channel": 1,
      "note": 75,
      "start": 16.2516,
      "duration": 0.1822,
      "velocity": 107,
      "chip": "ym2612"
    },
    {
      "channel": 5,
      "note": 110,
      "start": 16.3327,
      "duration": 0.2698,
      "velocity": 108,
      "chip": "ym2612"
    },
    {
      "channel": 1,
      "note": 75,
      "start": 16.434,
      "duration": 0.1676,
      "velocity": 107,
      "chip": "ym2612"
    },
    {
      "channel": 0,
      "note": 39,
      "start": 16.5153,
      "duration": 0.0842,
      "velocity": 119,
      "chip": "ym2612"
    },
    {
      "channel": 0,
      "note": 46,
      "start": 16.5997,
      "duration": 0.1998,
      "velocity": 102,
      "chip": "ym2612"
    },
    {
      "channel": 1,
      "note": 70,
      "start": 16.6018,
      "duration": 0.1982,
      "velocity": 107,
      "chip": "ym2612"
    },
    {
      "channel": 5,
      "note": 108,
      "start": 16.6026,
      "duration": 0.0957,
      "velocity": 108,
      "chip": "ym2612"
    },
    {
      "channel": 5,
      "note": 110,
      "start": 16.6984,
      "duration": 0.1829,
      "velocity": 108,
      "chip": "ym2612"
    },
    {
      "channel": 0,
      "note": 42,
      "start": 16.7997,
      "duration": 0.1828,
      "velocity": 119,
      "chip": "ym2612"
    },
    {
      "channel": 1,
      "note": 61,
      "start": 16.8002,
      "duration": 0.1828,
      "velocity": 107,
      "chip": "ym2612"
    },
    {
      "channel": 5,
      "note": 112,
      "start": 16.8814,
      "duration": 0.1024,
      "velocity": 108,
      "chip": "ym2612"
    },
    {
      "channel": 0,
      "note": 44,
      "start": 16.9827,
      "duration": 0.281,
      "velocity": 119,
      "chip": "ym2612"
    },
    {
      "channel": 1,
      "note": 61,
      "start": 16.9833,
      "duration": 0.1993,
      "velocity": 107,
      "chip": "ym2612"
    },
    {
      "channel": 5,
      "note": 110,
      "start": 16.984,
      "duration": 0.0973,
      "velocity": 108,
      "chip": "ym2612"
    },
    {
      "channel": 5,
      "note": 112,
      "start": 17.0814,
      "duration": 0.1831,
      "velocity": 108,
      "chip": "ym2612"
    },
    {
      "channel": 1,
      "note": 61,
      "start": 17.1828,
      "duration": 0.1846,
      "velocity": 107,
      "chip": "ym2612"
    },
    {
      "channel": 0,
      "note": 44,
      "start": 17.2639,
      "duration": 0.1014,
      "velocity": 102,
      "chip": "ym2612"
    },
    {
      "channel": 5,
      "note": 108,
      "start": 17.2647,
      "duration": 0.1824,
      "velocity": 108,
      "chip": "ym2612"
    },
    {
      "channel": 0,
      "note": 42,
      "start": 17.3654,
      "duration": 0.183,
      "velocity": 119,
      "chip": "ym2612"
    },
    {
      "channel": 1,
      "note": 68,
      "start": 17.3675,
      "duration": 0.1814,
      "velocity": 107,
      "chip": "ym2612"
    },
    {
      "channel": 5,
      "note": 110,
      "start": 17.4472,
      "duration": 0.1026,
      "velocity": 108,
      "chip": "ym2612"
    },
    {
      "channel": 0,
      "note": 44,
      "start": 17.5486,
      "duration": 0.1998,
      "velocity": 102,
      "chip": "ym2612"
    },
    {
      "channel": 1,
      "note": 73,
      "start": 17.5491,
      "duration": 0.1998,
      "velocity": 107,
      "chip": "ym2612"
    },
    {
      "channel": 5,
      "note": 108,
      "start": 17.55,
      "duration": 0.0971,
      "velocity": 108,
      "chip": "ym2612"
    },
    {
      "channel": 2,
      "note": 77,
      "start": 17.5504,
      "duration": 0.0127,
      "velocity": 87,
      "chip": "ym2612"
    },
    {
      "channel": 2,
      "note": 77,
      "start": 17.5631,
      "duration": 0.0333,
      "velocity": 87,
      "chip": "ym2612"
    },
    {
      "channel": 2,
      "note": 77,
      "start": 17.5965,
      "duration": 0.0167,
      "velocity": 87,
      "chip": "ym2612"
    },
    {
      "channel": 2,
      "note": 76,
      "start": 17.6131,
      "duration": 0.0167,
      "velocity": 87,
      "chip": "ym2612"
    },
    {
      "channel": 2,
      "note": 76,
      "start": 17.6298,
      "duration": 0.0179,
      "velocity": 87,
      "chip": "ym2612"
    },
    {
      "channel": 5,
      "note": 112,
      "start": 17.6473,
      "duration": 0.436,
      "velocity": 108,
      "chip": "ym2612"
    },
    {
      "channel": 2,
      "note": 76,
      "start": 17.6477,
      "duration": 0.0154,
      "velocity": 87,
      "chip": "ym2612"
    },
    {
      "channel": 2,
      "note": 76,
      "start": 17.6631,
      "duration": 0.0333,
      "velocity": 87,
      "chip": "ym2612"
    },
    {
      "channel": 2,
      "note": 76,
      "start": 17.6965,
      "duration": 0.0167,
      "velocity": 87,
      "chip": "ym2612"
    },
    {
      "channel": 2,
      "note": 76,
      "start": 17.7131,
      "duration": 0.0167,
      "velocity": 87,
      "chip": "ym2612"
    },
    {
      "channel": 2,
      "note": 76,
      "start": 17.7298,
      "duration": 0.0202,
      "velocity": 87,
      "chip": "ym2612"
    },
    {
      "channel": 0,
      "note": 42,
      "start": 17.7485,
      "duration": 0.2473,
      "velocity": 102,
      "chip": "ym2612"
    },
    {
      "channel": 1,
      "note": 73,
      "start": 17.7491,
      "duration": 0.1656,
      "velocity": 107,
      "chip": "ym2612"
    },
    {
      "channel": 2,
      "note": 75,
      "start": 17.75,
      "duration": 0.0108,
      "velocity": 87,
      "chip": "ym2612"
    },
    {
      "channel": 2,
      "note": 75,
      "start": 17.7608,
      "duration": 0.0273,
      "velocity": 87,
      "chip": "ym2612"
    },
    {
      "channel": 2,
      "note": 75,
      "start": 17.7881,
      "duration": 0.0138,
      "velocity": 87,
      "chip": "ym2612"
    },
    {
      "channel": 2,
      "note": 75,
      "start": 17.8019,
      "duration": 0.0137,
      "velocity": 87,
      "chip": "ym2612"
    },
    {
      "channel": 2,
      "note": 75,
      "start": 17.8156,
      "duration": 0.4678,
      "velocity": 87,
      "chip": "ym2612"
    },
    {
      "channel": 1,
      "note": 73,
      "start": 17.9149,
      "duration": 0.1677,
      "velocity": 107,
      "chip": "ym2612"
    },
    {
      "channel": 0,
      "note": 42,
      "start": 17.996,
      "duration": 0.0844,
      "velocity": 119,
      "chip": "ym2612"
    },
    {
      "channel": 0,
      "note": 44,
      "start": 18.0806,
      "duration": 0.1999,
      "velocity": 102,
      "chip": "ym2612"
    },
    {
      "channel": 1,
      "note": 68,
      "start": 18.0827,
      "duration": 0.1984,
      "velocity": 107,
      "chip": "ym2612"
    },
    {
      "channel": 5,
      "note": 110,
      "start": 18.0835,
      "duration": 0.0957,
      "velocity": 108,
      "chip": "ym2612"
    },
    {
      "channel": 5,
      "note": 111,
      "start": 18.1794,
      "duration": 0.1831,
      "velocity": 108,
      "chip": "ym2612"
    },
    {
      "channel": 0,
      "note": 46,
      "start": 18.2807,
      "duration": 0.1829,
      "velocity": 119,
      "chip": "ym2612"
    },
    {
      "channel": 1,
      "note": 58,
      "start": 18.2814,
      "duration": 0.1828,
      "velocity": 107,
      "chip": "ym2612"
    },
    {
      "channel": 2,
      "note": 75,
      "start": 18.2835,
      "duration": 0.1812,
      "velocity": 87,
      "chip": "ym2612"
    },
    {
      "channel": 3,
      "note": 73,
      "start": 18.2841,
      "duration": 1.4959,
      "velocity": 102,
      "chip": "ym2612"
    },
    {
      "channel": 4,
      "note": 77,
      "start": 18.2847,
      "duration": 1.4958,
      "velocity": 102,
      "chip": "ym2612"
    },
    {
      "channel": 5,
      "note": 110,
      "start": 18.3627,
      "duration": 0.1028,
      "velocity": 108,
      "chip": "ym2612"
    },
    {
      "channel": 0,
      "note": 46,
      "start": 18.4638,
      "duration": 0.281,
      "velocity": 119,
      "chip": "ym2612"
    },
    {
      "channel": 1,
      "note": 58,
      "start": 18.4644,
      "duration": 0.1992,
      "velocity": 107,
      "chip": "ym2612"
    },
    {
      "channel": 2,
      "note": 70,
      "start": 18.4649,
      "duration": 0.1993,
      "velocity": 87,
      "chip": "ym2612"
    },
    {
      "channel": 5,
      "note": 112,
      "start": 18.4656,
      "duration": 0.0968,
      "velocity": 108,
      "chip": "ym2612"
    },
    {
      "channel": 5,
      "note": 108,
      "start": 18.5625,
      "duration": 0.1831,
      "velocity": 108,
      "chip": "ym2612"
    },
    {
      "channel": 1,
      "note": 58,
      "start": 18.6638,
      "duration": 0.1846,
      "velocity": 107,
      "chip": "ym2612"
    },
    {
      "channel": 2,
      "note": 76,
      "start": 18.6644,
      "duration": 0.1846,
      "velocity": 87,
      "chip": "ym2612"
    },
    {
      "channel": 0,
      "note": 46,
      "start": 18.745,
      "duration": 0.1013,
      "velocity": 102,
      "chip": "ym2612"
    },
    {
      "channel": 5,
      "note": 110,
      "start": 18.7457,
      "duration": 0.1823,
      "velocity": 108,
      "chip": "ym2612"
    },
    {
      "channel": 0,
      "note": 46,
      "start": 18.8465,
      "duration": 0.1827,
      "velocity": 119,
      "chip": "ym2612"
    },
    {
      "channel": 1,
      "note": 65,
      "start": 18.8486,
      "duration": 0.1812,
      "velocity": 107,
      "chip": "ym2612"
    },
    {
      "channel": 2,
      "note": 77,
      "start": 18.8492,
      "duration": 0.3813,
      "velocity": 87,
      "chip": "ym2612"
    },
    {
      "channel": 5,
      "note": 112,
      "start": 18.9282,
      "duration": 0.1024,
      "velocity": 108,
      "chip": "ym2612"
    },
    {
      "channel": 0,
      "note": 46,
      "start": 19.0294,
      "duration": 0.1999,
      "velocity": 102,
      "chip": "ym2612"
    },
    {
      "channel": 1,
      "note": 70,
      "start": 19.03,
      "duration": 0.1999,
      "velocity": 107,
      "chip": "ym2612"
    },
    {
      "channel": 5,
      "note": 108,
      "start": 19.0307,
      "duration": 0.0973,
      "velocity": 108,
      "chip": "ym2612"
    },
    {
      "channel": 5,
      "note": 110,
      "start": 19.1281,
      "duration": 0.1829,
      "velocity": 108,
      "chip": "ym2612"
    },
    {
      "channel": 0,
      "note": 46,
      "start": 19.2295,
      "duration": 0.2641,
      "velocity": 102,
      "chip": "ym2612"
    },
    {
      "channel": 1,
      "note": 70,
      "start": 19.23,
      "duration": 0.1823,
      "velocity": 107,
      "chip": "ym2612"
    },
    {
      "channel": 2,
      "note": 73,
      "start": 19.2306,
      "duration": 0.1823,
      "velocity": 87,
      "chip": "ym2612"
    },
    {
      "channel": 5,
      "note": 112,
      "start": 19.3112,
      "duration": 0.2704,
      "velocity": 108,
      "chip": "ym2612"
    },
    {
      "channel": 1,
      "note": 70,
      "start": 19.4125,
      "duration": 0.1679,
      "velocity": 107,
      "chip": "ym2612"
    },
    {
      "channel": 2,
      "note": 70,
      "start": 19.4131,
      "duration": 0.1678,
      "velocity": 87,
      "chip": "ym2612"
    },
    {
      "channel": 0,
      "note": 46,
      "start": 19.4937,
      "duration": 0.0845,
      "velocity": 119,
      "chip": "ym2612"
    },
    {
      "channel": 0,
      "note": 46,
      "start": 19.5784,
      "duration": 0.1999,
      "velocity": 102,
      "chip": "ym2612"
    },
    {
      "channel": 1,
      "note": 65,
      "start": 19.5805,
      "duration": 0.1984,
      "velocity": 107,
      "chip": "ym2612"
    },
    {
      "channel": 2,
      "note": 65,
      "start": 19.5811,
      "duration": 0.1983,
      "velocity": 87,
      "chip": "ym2612"
    },
    {
      "channel": 5,
      "note": 108,
      "start": 19.5818,
      "duration": 0.0951,
      "velocity": 108,
      "chip": "ym2612"
    },
    {
      "channel": 5,
      "note": 110,
      "start": 19.6772,
      "duration": 0.1837,
      "velocity": 108,
      "chip": "ym2612"
    },
    {
      "channel": 0,
      "note": 44,
      "start": 19.7784,
      "duration": 0.1832,
      "velocity": 119,
      "chip": "ym2612"
    },
    {
      "channel": 1,
      "note": 61,
      "start": 19.779,
      "duration": 0.1832,
      "velocity": 107,
      "chip": "ym2612"
    },
    {
      "channel": 2,
      "note": 68,
      "start": 19.7796,
      "duration": 0.0806,
      "velocity": 87,
      "chip": "ym2612"
    },
    {
      "channel": 3,
      "note": 72,
      "start": 19.7802,
      "duration": 1.4973,
      "velocity": 102,
      "chip": "ym2612"
    },
    {
      "channel": 4,
      "note": 75,
      "start": 19.7807,
      "duration": 1.4973,
      "velocity": 102,
      "chip": "ym2612"
    },
    {
      "channel": 2,
      "note": 70,
      "start": 19.8604,
      "duration": 0.1024,
      "velocity": 87,
      "chip": "ym2612"
    },
    {
      "channel": 5,
      "note": 112,
      "start": 19.8611,
      "duration": 0.1024,
      "velocity": 108,
      "chip": "ym2612"
    },
    {
      "channel": 0,
      "note": 44,
      "start": 19.9618,
      "duration": 0.2809,
      "velocity": 119,
      "chip": "ym2612"
    },
    {
      "channel": 1,
      "note": 61,
      "start": 19.9624,
      "duration": 0.1992,
      "velocity": 107,
      "chip": "ym2612"
    },
    {
      "channel": 2,
      "note": 68,
      "start": 19.9629,
      "duration": 0.0973,
      "velocity": 87,
      "chip": "ym2612"
    },
    {
      "channel": 5,
      "note": 110,
      "start": 19.9636,
      "duration": 0.0973,
      "velocity": 108,
      "chip": "ym2612"
    },
    {
      "channel": 2,
      "note": 70,
      "start": 20.0603,
      "duration": 0.1019,
      "velocity": 87,
      "chip": "ym2612"
    },
    {
      "channel": 5,
      "note": 108,
      "start": 20.061,
      "duration": 0.183,
      "velocity": 108,
      "chip": "ym2612"
    },
    {
      "channel": 1,
      "note": 61,
      "start": 20.1618,
      "duration": 0.1846,
      "velocity": 107,
      "chip": "ym2612"
    },
    {
      "channel": 2,
      "note": 65,
      "start": 20.1624,
      "duration": 0.081,
      "velocity": 87,
      "chip": "ym2612"
    },
    {
      "channel": 0,
      "note": 44,
      "start": 20.2429,
      "duration": 0.1013,
      "velocity": 102,
      "chip": "ym2612"
    },
    {
      "channel": 2,
      "note": 68,
      "start": 20.2435,
      "duration": 0.1034,
      "velocity": 87,
      "chip": "ym2612"
    },
    {
      "channel": 5,
      "note": 110,
      "start": 20.2442,
      "duration": 0.1822,
      "velocity": 108,
      "chip": "ym2612"
    },
    {
      "channel": 0,
      "note": 44,
      "start": 20.3444,
      "duration": 0.1827,
      "velocity": 119,
      "chip": "ym2612"
    },
    {
      "channel": 1,
      "note": 68,
      "start": 20.3465,
      "duration": 0.1812,
      "velocity": 107,
      "chip": "ym2612"
    },
    {
      "channel": 2,
      "note": 65,
      "start": 20.3471,
      "duration": 0.0785,
      "velocity": 87,
      "chip": "ym2612"
    },
    {
      "channel": 2,
      "note": 68,
      "start": 20.4258,
      "duration": 0.1025,
      "velocity": 87,
      "chip": "ym2612"
    },
    {
      "channel": 5,
      "note": 108,
      "start": 20.4265,
      "duration": 0.1025,
      "velocity": 108,
      "chip": "ym2612"
    },
    {
      "channel": 0,
      "note": 44,
      "start": 20.5273,
      "duration": 0.1998,
      "velocity": 102,
      "chip": "ym2612"
    },
    {
      "channel": 1,
      "note": 73,
      "start": 20.5279,
      "duration": 0.1998,
      "velocity": 107,
      "chip": "ym2612"
    },
    {
      "channel": 2,
      "note": 63,
      "start": 20.5284,
      "duration": 0.0973,
      "velocity": 87,
      "chip": "ym2612"
    },
    {
      "channel": 5,
      "note": 110,
      "start": 20.5291,
      "duration": 0.0973,
      "velocity": 108,
      "chip": "ym2612"
    },
    {
      "channel": 2,
      "note": 65,
      "start": 20.6258,
      "duration": 0.1024,
      "velocity": 87,
      "chip": "ym2612"
    },
    {
      "channel": 5,
      "note": 112,
      "start": 20.6265,
      "duration": 0.1829,
      "velocity": 108,
      "chip": "ym2612"
    },
    {
      "channel": 0,
      "note": 44,
      "start": 20.7273,
      "duration": 0.2639,
      "velocity": 102,
      "chip": "ym2612"
    },
    {
      "channel": 1,
      "note": 73,
      "start": 20.7279,
      "duration": 0.1823,
      "velocity": 107,
      "chip": "ym2612"
    },
    {
      "channel": 2,
      "note": 63,
      "start": 20.7284,
      "duration": 0.0803,
      "velocity": 87,
      "chip": "ym2612"
    },
    {
      "channel": 2,
      "note": 65,
      "start": 20.8089,
      "duration": 0.1019,
      "velocity": 87,
      "chip": "ym2612"
    },
    {
      "channel": 5,
      "note": 110,
      "start": 20.8096,
      "duration": 0.2696,
      "velocity": 108,
      "chip": "ym2612"
    },
    {
      "channel": 1,
      "note": 73,
      "start": 20.9103,
      "duration": 0.1676,
      "velocity": 107,
      "chip": "ym2612"
    },
    {
      "channel": 2,
      "note": 61,
      "start": 20.9109,
      "duration": 0.0809,
      "velocity": 87,
      "chip": "ym2612"
    },
    {
      "channel": 0,
      "note": 44,
      "start": 20.9914,
      "duration": 0.0844,
      "velocity": 119,
      "chip": "ym2612"
    },
    {
      "channel": 2,
      "note": 63,
      "start": 20.992,
      "duration": 0.0865,
      "velocity": 87,
      "chip": "ym2612"
    },
    {
      "channel": 0,
      "note": 44,
      "start": 21.0759,
      "duration": 0.1999,
      "velocity": 102,
      "chip": "ym2612"
    },
    {
      "channel": 1,
      "note": 68,
      "start": 21.078,
      "duration": 0.1984,
      "velocity": 107,
      "chip": "ym2612"
    },
    {
      "channel": 2,
      "note": 61,
      "start": 21.0786,
      "duration": 0.0957,
      "velocity": 87,
      "chip": "ym2612"
    },
    {
      "channel": 5,
      "note": 112,
      "start": 21.0793,
      "duration": 0.0957,
      "velocity": 108,
      "chip": "ym2612"
    },
    {
      "channel": 2,
      "note": 63,
      "start": 21.1745,
      "duration": 0.1024,
      "velocity": 87,
      "chip": "ym2612"
    },
    {
      "channel": 5,
      "note": 108,
      "start": 21.1752,
      "duration": 0.1827,
      "velocity": 108,
      "chip": "ym2612"
    },
    {
      "channel": 0,
      "note": 39,
      "start": 21.2759,
      "duration": 0.1831,
      "velocity": 119,
      "chip": "ym2612"
    },
    {
      "channel": 1,
      "note": 63,
      "start": 21.2765,
      "duration": 0.1831,
      "velocity": 107,
      "chip": "ym2612"
    },
    {
      "channel": 2,
      "note": 58,
      "start": 21.2771,
      "duration": 2.9804,
      "velocity": 87,
      "chip": "ym2612"
    },
    {
      "channel": 3,
      "note": 70,
      "start": 21.2777,
      "duration": 2.9805,
      "velocity": 102,
      "chip": "ym2612"
    },
    {
      "channel": 4,
      "note": 73,
      "start": 21.2782,
      "duration": 2.9805,
      "velocity": 102,
      "chip": "ym2612"
    },
    {
      "channel": 5,
      "note": 110,
      "start": 21.3581,
      "duration": 0.1023,
      "velocity": 108,
      "chip": "ym2612"
    },
    {
      "channel": 0,
      "note": 46,
      "start": 21.4592,
      "duration": 0.2812,
      "velocity": 119,
      "chip": "ym2612"
    },
    {
      "channel": 1,
      "note": 63,
      "start": 21.4598,
      "duration": 0.1993,
      "velocity": 107,
      "chip": "ym2612"
    },
    {
      "channel": 5,
      "note": 112,
      "start": 21.4606,
      "duration": 0.0973,
      "velocity": 108,
      "chip": "ym2612"
    },
    {
      "channel": 5,
      "note": 108,
      "start": 21.558,
      "duration": 0.1833,
      "velocity": 108,
      "chip": "ym2612"
    },
    {
      "channel": 1,
      "note": 63,
      "start": 21.6593,
      "duration": 0.1848,
      "velocity": 107,
      "chip": "ym2612"
    },
    {
      "channel": 0,
      "note": 46,
      "start": 21.7406,
      "duration": 0.1014,
      "velocity": 102,
      "chip": "ym2612"
    },
    {
      "channel": 5,
      "note": 110,
      "start": 21.7414,
      "duration": 0.1823,
      "velocity": 108,
      "chip": "ym2612"
    },
    {
      "channel": 0,
      "note": 39,
      "start": 21.8421,
      "duration": 0.1829,
      "velocity": 119,
      "chip": "ym2612"
    },
    {
      "channel": 1,
      "note": 70,
      "start": 21.8443,
      "duration": 0.1813,
      "velocity": 107,
      "chip": "ym2612"
    },
    {
      "channel": 5,
      "note": 112,
      "start": 21.9239,
      "duration": 0.1024,
      "velocity": 108,
      "chip": "ym2612"
    },
    {
      "channel": 0,
      "note": 46,
      "start": 22.0251,
      "duration": 0.1998,
      "velocity": 102,
      "chip": "ym2612"
    },
    {
      "channel": 1,
      "note": 75,
      "start": 22.0257,
      "duration": 0.1998,
      "velocity": 107,
      "chip": "ym2612"
    },
    {
      "channel": 5,
      "note": 110,
      "start": 22.0265,
      "duration": 0.0973,
      "velocity": 108,
      "chip": "ym2612"
    },
    {
      "channel": 5,
      "note": 108,
      "start": 22.1239,
      "duration": 0.1828,
      "velocity": 108,
      "chip": "ym2612"
    },
    {
      "channel": 0,
      "note": 39,
      "start": 22.2251,
      "duration": 0.264,
      "velocity": 102,
      "chip": "ym2612"
    },
    {
      "channel": 1,
      "note": 75,
      "start": 22.2257,
      "duration": 0.1822,
      "velocity": 107,
      "chip": "ym2612"
    },
    {
      "channel": 5,
      "note": 110,
      "start": 22.3068,
      "duration": 0.2699,
      "velocity": 108,
      "chip": "ym2612"
    },
    {
      "channel": 1,
      "note": 75,
      "start": 22.4082,
      "duration": 0.1678,
      "velocity": 107,
      "chip": "ym2612"
    },
    {
      "channel": 0,
      "note": 39,
      "start": 22.4893,
      "duration": 0.0846,
      "velocity": 119,
      "chip": "ym2612"
    },
    {
      "channel": 0,
      "note": 46,
      "start": 22.5739,
      "duration": 0.1999,
      "velocity": 102,
      "chip": "ym2612"
    },
    {
      "channel": 1,
      "note": 70,
      "start": 22.5761,
      "duration": 0.1983,
      "velocity": 107,
      "chip": "ym2612"
    },
    {
      "channel": 5,
      "note": 108,
      "start": 22.5769,
      "duration": 0.0957,
      "velocity": 108,
      "chip": "ym2612"
    },
    {
      "channel": 5,
      "note": 110,
      "start": 22.6727,
      "duration": 0.1832,
      "velocity": 108,
      "chip": "ym2612"
    },
    {
      "channel": 0,
      "note": 42,
      "start": 22.774,
      "duration": 0.1831,
      "velocity": 119,
      "chip": "ym2612"
    },
    {
      "channel": 1,
      "note": 61,
      "start": 22.7746,
      "duration": 0.1831,
      "velocity": 107,
      "chip": "ym2612"
    },
    {
      "channel": 5,
      "note": 112,
      "start": 22.8561,
      "duration": 0.1024,
      "velocity": 108,
      "chip": "ym2612"
    },
    {
      "channel": 0,
      "note": 44,
      "start": 22.9573,
      "duration": 0.2811,
      "velocity": 119,
      "chip": "ym2612"
    },
    {
      "channel": 1,
      "note": 61,
      "start": 22.9579,
      "duration": 0.1993,
      "velocity": 107,
      "chip": "ym2612"
    },
    {
      "channel": 5,
      "note": 110,
      "start": 22.9586,
      "duration": 0.0973,
      "velocity": 108,
      "chip": "ym2612"
    },
    {
      "channel": 5,
      "note": 112,
      "start": 23.056,
      "duration": 0.1832,
      "velocity": 108,
      "chip": "ym2612"
    },
    {
      "channel": 1,
      "note": 61,
      "start": 23.1574,
      "duration": 0.1847,
      "velocity": 107,
      "chip": "ym2612"
    },
    {
      "channel": 0,
      "note": 44,
      "start": 23.2386,
      "duration": 0.1014,
      "velocity": 102,
      "chip": "ym2612"
    },
    {
      "channel": 5,
      "note": 108,
      "start": 23.2394,
      "duration": 0.1823,
      "velocity": 108,
      "chip": "ym2612"
    },
    {
      "channel": 0,
      "note": 42,
      "start": 23.3401,
      "duration": 0.1829,
      "velocity": 119,
      "chip": "ym2612"
    },
    {
      "channel": 1,
      "note": 68,
      "start": 23.3423,
      "duration": 0.1813,
      "velocity": 107,
      "chip": "ym2612"
    },
    {
      "channel": 5,
      "note": 110,
      "start": 23.4219,
      "duration": 0.1024,
      "velocity": 108,
      "chip": "ym2612"
    },
    {
      "channel": 0,
      "note": 44,
      "start": 23.5232,
      "duration": 0.1998,
      "velocity": 102,
      "chip": "ym2612"
    },
    {
      "channel": 1,
      "note": 73,
      "start": 23.5237,
      "duration": 0.1998,
      "velocity": 107,
      "chip": "ym2612"
    },
    {
      "channel": 5,
      "note": 108,
      "start": 23.5245,
      "duration": 0.0973,
      "velocity": 108,
      "chip": "ym2612"
    },
    {
      "channel": 5,
      "note": 112,
      "start": 23.6219,
      "duration": 0.4356,
      "velocity": 108,
      "chip": "ym2612"
    },
    {
      "channel": 0,
      "note": 42,
      "start": 23.7232,
      "duration": 0.2471,
      "velocity": 102,
      "chip": "ym2612"
    },
    {
      "channel": 1,
      "note": 73,
      "start": 23.7237,
      "duration": 0.1652,
      "velocity": 107,
      "chip": "ym2612"
    },
    {
      "channel": 1,
      "note": 73,
      "start": 23.8892,
      "duration": 0.1676,
      "velocity": 107,
      "chip": "ym2612"
    },
    {
      "channel": 0,
      "note": 42,
      "start": 23.9704,
      "duration": 0.0842,
      "velocity": 119,
      "chip": "ym2612"
    },
    {
      "channel": 0,
      "note": 44,
      "start": 24.0548,
      "duration": 0.1999,
      "velocity": 102,
      "chip": "ym2612"
    },
    {
      "channel": 1,
      "note": 68,
      "start": 24.0569,
      "duration": 0.1984,
      "velocity": 107,
      "chip": "ym2612"
    },
    {
      "channel": 5,
      "note": 110,
      "start": 24.0577,
      "duration": 0.0957,
      "velocity": 108,
      "chip": "ym2612"
    },
    {
      "channel": 5,
      "note": 111,
      "start": 24.1536,
      "duration": 0.1831,
      "velocity": 108,
      "chip": "ym2612"
    },
    {
      "channel": 0,
      "note": 46,
      "start": 24.2549,
      "duration": 0.1829,
      "velocity": 119,
      "chip": "ym2612"
    },
    {
      "channel": 1,
      "note": 58,
      "start": 24.2555,
      "duration": 0.1828,
      "velocity": 107,
      "chip": "ym2612"
    },
    {
      "channel": 2,
      "note": 70,
      "start": 24.2577,
      "duration": 1.4976,
      "velocity": 87,
      "chip": "ym2612"
    },
    {
      "channel": 3,
      "note": 73,
      "start": 24.2583,
      "duration": 1.4976,
      "velocity": 102,
      "chip": "ym2612"
    },
    {
      "channel": 4,
      "note": 77,
      "start": 24.2589,
      "duration": 1.4974,
      "velocity": 102,
      "chip": "ym2612"
    },
    {
      "channel": 5,
      "note": 110,
      "start": 24.3368,
      "duration": 0.1022,
      "velocity": 108,
      "chip": "ym2612"
    },
    {
      "channel": 0,
      "note": 46,
      "start": 24.4379,
      "duration": 0.2811,
      "velocity": 119,
      "chip": "ym2612"
    },
    {
      "channel": 1,
      "note": 58,
      "start": 24.4385,
      "duration": 0.1993,
      "velocity": 107,
      "chip": "ym2612"
    },
    {
      "channel": 5,
      "note": 112,
      "start": 24.4393,
      "duration": 0.0973,
      "velocity": 108,
      "chip": "ym2612"
    },
    {
      "channel": 5,
      "note": 108,
      "start": 24.5367,
      "duration": 0.1832,
      "velocity": 108,
      "chip": "ym2612"
    },
    {
      "channel": 1,
      "note": 58,
      "start": 24.638,
      "duration": 0.1847,
      "velocity": 107,
      "chip": "ym2612"
    },
    {
      "channel": 0,
      "note": 46,
      "start": 24.7193,
      "duration": 0.1014,
      "velocity": 102,
      "chip": "ym2612"
    },
    {
      "channel": 5,
      "note": 110,
      "start": 24.7201,
      "duration": 0.1824,
      "velocity": 108,
      "chip": "ym2612"
    },
    {
      "channel": 0,
      "note": 46,
      "start": 24.8208,
      "duration": 0.1829,
      "velocity": 119,
      "chip": "ym2612"
    },
    {
      "channel": 1,
      "note": 65,
      "start": 24.8229,
      "duration": 0.1813,
      "velocity": 107,
      "chip": "ym2612"
    },
    {
      "channel": 5,
      "note": 112,
      "start": 24.9026,
      "duration": 0.1024,
      "velocity": 108,
      "chip": "ym2612"
    },
    {
      "channel": 0,
      "note": 46,
      "start": 25.0038,
      "duration": 0.1998,
      "velocity": 102,
      "chip": "ym2612"
    },
    {
      "channel": 1,
      "note": 70,
      "start": 25.0044,
      "duration": 0.1998,
      "velocity": 107,
      "chip": "ym2612"
    },
    {
      "channel": 5,
      "note": 108,
      "start": 25.0052,
      "duration": 0.0973,
      "velocity": 108,
      "chip": "ym2612"
    },
    {
      "channel": 5,
      "note": 110,
      "start": 25.1026,
      "duration": 0.1828,
      "velocity": 108,
      "chip": "ym2612"
    },
    {
      "channel": 0,
      "note": 46,
      "start": 25.2038,
      "duration": 0.2639,
      "velocity": 102,
      "chip": "ym2612"
    },
    {
      "channel": 1,
      "note": 70,
      "start": 25.2044,
      "duration": 0.1822,
      "velocity": 107,
      "chip": "ym2612"
    },
    {
      "channel": 5,
      "note": 112,
      "start": 25.2855,
      "duration": 0.2698,
      "velocity": 108,
      "chip": "ym2612"
    },
    {
      "channel": 1,
      "note": 70,
      "start": 25.3868,
      "duration": 0.1677,
      "velocity": 107,
      "chip": "ym2612"
    },
    {
      "channel": 0,
      "note": 46,
      "start": 25.4679,
      "duration": 0.0845,
      "velocity": 119,
      "chip": "ym2612"
    },
    {
      "channel": 0,
      "note": 46,
      "start": 25.5526,
      "duration": 0.1999,
      "velocity": 102,
      "chip": "ym2612"
    },
    {
      "channel": 1,
      "note": 65,
      "start": 25.5547,
      "duration": 0.1984,
      "velocity": 107,
      "chip": "ym2612"
    },
    {
      "channel": 5,
      "note": 108,
      "start": 25.5555,
      "duration": 0.0957,
      "velocity": 108,
      "chip": "ym2612"
    },
    {
      "channel": 5,
      "note": 110,
      "start": 25.6513,
      "duration": 0.1833,
      "velocity": 108,
      "chip": "ym2612"
    },
    {
      "channel": 0,
      "note": 44,
      "start": 25.7526,
      "duration": 0.1831,
      "velocity": 119,
      "chip": "ym2612"
    },
    {
      "channel": 1,
      "note": 61,
      "start": 25.7532,
      "duration": 0.1831,
      "velocity": 107,
      "chip": "ym2612"
    },
    {
      "channel": 2,
      "note": 73,
      "start": 25.7554,
      "duration": 0.7474,
      "velocity": 87,
      "chip": "ym2612"
    },
    {
      "channel": 3,
      "note": 72,
      "start": 25.7559,
      "duration": 1.4961,
      "velocity": 102,
      "chip": "ym2612"
    },
    {
      "channel": 4,
      "note": 75,
      "start": 25.7565,
      "duration": 1.4961,
      "velocity": 102,
      "chip": "ym2612"
    },
    {
      "channel": 5,
      "note": 112,
      "start": 25.8348,
      "duration": 0.1023,
      "velocity": 108,
      "chip": "ym2612"
    },
    {
      "channel": 0,
      "note": 44,
      "start": 25.9359,
      "duration": 0.2811,
      "velocity": 119,
      "chip": "ym2612"
    },
    {
      "channel": 1,
      "note": 61,
      "start": 25.9365,
      "duration": 0.1993,
      "velocity": 107,
      "chip": "ym2612"
    },
    {
      "channel": 5,
      "note": 110,
      "start": 25.9373,
      "duration": 0.0973,
      "velocity": 108,
      "chip": "ym2612"
    },
    {
      "channel": 5,
      "note": 108,
      "start": 26.0346,
      "duration": 0.1832,
      "velocity": 108,
      "chip": "ym2612"
    },
    {
      "channel": 1,
      "note": 61,
      "start": 26.136,
      "duration": 0.1847,
      "velocity": 107,
      "chip": "ym2612"
    },
    {
      "channel": 0,
      "note": 44,
      "start": 26.2172,
      "duration": 0.1014,
      "velocity": 102,
      "chip": "ym2612"
    },
    {
      "channel": 5,
      "note": 110,
      "start": 26.218,
      "duration": 0.1823,
      "velocity": 108,
      "chip": "ym2612"
    },
    {
      "channel": 0,
      "note": 44,
      "start": 26.3188,
      "duration": 0.1829,
      "velocity": 119,
      "chip": "ym2612"
    },
    {
      "channel": 1,
      "note": 68,
      "start": 26.3209,
      "duration": 0.1813,
      "velocity": 107,
      "chip": "ym2612"
    },
    {
      "channel": 5,
      "note": 108,
      "start": 26.4005,
      "duration": 0.103,
      "velocity": 108,
      "chip": "ym2612"
    },
    {
      "channel": 0,
      "note": 44,
      "start": 26.5019,
      "duration": 0.1998,
      "velocity": 102,
      "chip": "ym2612"
    },
    {
      "channel": 1,
      "note": 73,
      "start": 26.5024,
      "duration": 0.1998,
      "velocity": 107,
      "chip": "ym2612"
    },
    {
      "channel": 2,
      "note": 70,
      "start": 26.5029,
      "duration": 0.7485,
      "velocity": 87,
      "chip": "ym2612"
    },
    {
      "channel": 5,
      "note": 110,
      "start": 26.5036,
      "duration": 0.0968,
      "velocity": 108,
      "chip": "ym2612"
    },
    {
      "channel": 5,
      "note": 112,
      "start": 26.6006,
      "duration": 0.1827,
      "velocity": 108,
      "chip": "ym2612"
    },
    {
      "channel": 0,
      "note": 44,
      "start": 26.7018,
      "duration": 0.2641,
      "velocity": 102,
      "chip": "ym2612"
    },
    {
      "channel": 1,
      "note": 73,
      "start": 26.7024,
      "duration": 0.1822,
      "velocity": 107,
      "chip": "ym2612"
    },
    {
      "channel": 5,
      "note": 110,
      "start": 26.7834,
      "duration": 0.2698,
      "velocity": 108,
      "chip": "ym2612"
    },
    {
      "channel": 1,
      "note": 73,
      "start": 26.8848,
      "duration": 0.1676,
      "velocity": 107,
      "chip": "ym2612"
    },
    {
      "channel": 0,
      "note": 44,
      "start": 26.9661,
      "duration": 0.0842,
      "velocity": 119,
      "chip": "ym2612"
    },
    {
      "channel": 0,
      "note": 44,
      "start": 27.0505,
      "duration": 0.1999,
      "velocity": 102,
      "chip": "ym2612"
    },
    {
      "channel": 1,
      "note": 68,
      "start": 27.0526,
      "duration": 0.1984,
      "velocity": 107,
      "chip": "ym2612"
    },
    {
      "channel": 5,
      "note": 112,
      "start": 27.0534,
      "duration": 0.0957,
      "velocity": 108,
      "chip": "ym2612"
    },
    {
      "channel": 5,
      "note": 108,
      "start": 27.1492,
      "duration": 0.1833,
      "velocity": 108,
      "chip": "ym2612"
    },
    {
      "channel": 0,
      "note": 39,
      "start": 27.2505,
      "duration": 0.1832,
      "velocity": 119,
      "chip": "ym2612"
    },
    {
      "channel": 1,
      "note": 63,
      "start": 27.2511,
      "duration": 0.1832,
      "velocity": 107,
      "chip": "ym2612"
    },
    {
      "channel": 2,
      "note": 75,
      "start": 27.2517,
      "duration": 0.1841,
      "velocity": 87,
      "chip": "ym2612"
    },
    {
      "channel": 3,
      "note": 70,
      "start": 27.2522,
      "duration": 2.98,
      "velocity": 102,
      "chip": "ym2612"
    },
    {
      "channel": 4,
      "note": 73,
      "start": 27.2528,
      "duration": 2.98,
      "velocity": 102,
      "chip": "ym2612"
    },
    {
      "channel": 5,
      "note": 110,
      "start": 27.3327,
      "duration": 0.1025,
      "velocity": 108,
      "chip": "ym2612"
    },
    {
      "channel": 0,
      "note": 46,
      "start": 27.4339,
      "duration": 0.2808,
      "velocity": 119,
      "chip": "ym2612"
    },
    {
      "channel": 1,
      "note": 63,
      "start": 27.4344,
      "duration": 0.1992,
      "velocity": 107,
      "chip": "ym2612"
    },
    {
      "channel": 5,
      "note": 112,
      "start": 27.4353,
      "duration": 0.0971,
      "velocity": 108,
      "chip": "ym2612"
    },
    {
      "channel": 2,
      "note": 75,
      "start": 27.4357,
      "duration": 0.0127,
      "velocity": 87,
      "chip": "ym2612"
    },
    {
      "channel": 2,
      "note": 75,
      "start": 27.4484,
      "duration": 0.0333,
      "velocity": 87,
      "chip": "ym2612"
    },
    {
      "channel": 2,
      "note": 75,
      "start": 27.4818,
      "duration": 0.0167,
      "velocity": 87,
      "chip": "ym2612"
    },
    {
      "channel": 2,
      "note": 76,
      "start": 27.4984,
      "duration": 0.0167,
      "velocity": 87,
      "chip": "ym2612"
    },
    {
      "channel": 2,
      "note": 76,
      "start": 27.5151,
      "duration": 0.0179,
      "velocity": 87,
      "chip": "ym2612"
    },
    {
      "channel": 5,
      "note": 108,
      "start": 27.5326,
      "duration": 0.1829,
      "velocity": 108,
      "chip": "ym2612"
    },
    {
      "channel": 2,
      "note": 76,
      "start": 27.533,
      "duration": 0.0154,
      "velocity": 87,
      "chip": "ym2612"
    },
    {
      "channel": 2,
      "note": 76,
      "start": 27.5484,
      "duration": 0.0333,
      "velocity": 87,
      "chip": "ym2612"
    },
    {
      "channel": 2,
      "note": 76,
      "start": 27.5818,
      "duration": 0.0167,
      "velocity": 87,
      "chip": "ym2612"
    },
    {
      "channel": 2,
      "note": 76,
      "start": 27.5984,
      "duration": 0.0167,
      "velocity": 87,
      "chip": "ym2612"
    },
    {
      "channel": 2,
      "note": 76,
      "start": 27.6151,
      "duration": 0.0192,
      "velocity": 87,
      "chip": "ym2612"
    },
    {
      "channel": 1,
      "note": 63,
      "start": 27.6339,
      "duration": 0.1845,
      "velocity": 107,
      "chip": "ym2612"
    },
    {
      "channel": 2,
      "note": 77,
      "start": 27.6344,
      "duration": 1.8643,
      "velocity": 87,
      "chip": "ym2612"
    },
    {
      "channel": 0,
      "note": 46,
      "start": 27.7149,
      "duration": 0.1013,
      "velocity": 102,
      "chip": "ym2612"
    },
    {
      "channel": 5,
      "note": 110,
      "start": 27.7157,
      "duration": 0.1822,
      "velocity": 108,
      "chip": "ym2612"
    },
    {
      "channel": 0,
      "note": 39,
      "start": 27.8164,
      "duration": 0.1828,
      "velocity": 119,
      "chip": "ym2612"
    },
    {
      "channel": 1,
      "note": 70,
      "start": 27.8185,
      "duration": 0.1812,
      "velocity": 107,
      "chip": "ym2612"
    },
    {
      "channel": 5,
      "note": 112,
      "start": 27.898,
      "duration": 0.1024,
      "velocity": 108,
      "chip": "ym2612"
    },
    {
      "channel": 0,
      "note": 46,
      "start": 27.9993,
      "duration": 0.1998,
      "velocity": 102,
      "chip": "ym2612"
    },
    {
      "channel": 1,
      "note": 75,
      "start": 27.9999,
      "duration": 0.1998,
      "velocity": 107,
      "chip": "ym2612"
    },
    {
      "channel": 5,
      "note": 110,
      "start": 28.0007,
      "duration": 0.0973,
      "velocity": 108,
      "chip": "ym2612"
    },
    {
      "channel": 5,
      "note": 108,
      "start": 28.098,
      "duration": 0.1828,
      "velocity": 108,
      "chip": "ym2612"
    },
    {
      "channel": 0,
      "note": 39,
      "start": 28.1993,
      "duration": 0.2641,
      "velocity": 102,
      "chip": "ym2612"
    },
    {
      "channel": 1,
      "note": 75,
      "start": 28.1999,
      "duration": 0.1822,
      "velocity": 107,
      "chip": "ym2612"
    },
    {
      "channel": 5,
      "note": 110,
      "start": 28.281,
      "duration": 0.2698,
      "velocity": 108,
      "chip": "ym2612"
    },
    {
      "channel": 1,
      "note": 75,
      "start": 28.3823,
      "duration": 0.1676,
      "velocity": 107,
      "chip": "ym2612"
    },
    {
      "channel": 0,
      "note": 39,
      "start": 28.4636,
      "duration": 0.0842,
      "velocity": 119,
      "chip": "ym2612"
    },
    {
      "channel": 0,
      "note": 46,
      "start": 28.548,
      "duration": 0.1999,
      "velocity": 102,
      "chip": "ym2612"
    },
    {
      "channel": 1,
      "note": 70,
      "start": 28.5502,
      "duration": 0.1982,
      "velocity": 107,
      "chip": "ym2612"
    },
    {
      "channel": 5,
      "note": 108,
      "start": 28.5509,
      "duration": 0.0957,
      "velocity": 108,
      "chip": "ym2612"
    },
    {
      "channel": 5,
      "note": 110,
      "start": 28.6467,
      "duration": 0.1828,
      "velocity": 108,
      "chip": "ym2612"
    },
    {
      "channel": 0,
      "note": 42,
      "start": 28.748,
      "duration": 0.1827,
      "velocity": 119,
      "chip": "ym2612"
    },
    {
      "channel": 1,
      "note": 61,
      "start": 28.7486,
      "duration": 0.1827,
      "velocity": 107,
      "chip": "ym2612"
    },
    {
      "channel": 5,
      "note": 112,
      "start": 28.8297,
      "duration": 0.1024,
      "velocity": 108,
      "chip": "ym2612"
    },
    {
      "channel": 0,
      "note": 44,
      "start": 28.9309,
      "duration": 0.2811,
      "velocity": 119,
      "chip": "ym2612"
    },
    {
      "channel": 1,
      "note": 61,
      "start": 28.9315,
      "duration": 0.1993,
      "velocity": 107,
      "chip": "ym2612"
    },
    {
      "channel": 5,
      "note": 110,
      "start": 28.9323,
      "duration": 0.0973,
      "velocity": 108,
      "chip": "ym2612"
    },
    {
      "channel": 5,
      "note": 112,
      "start": 29.0297,
      "duration": 0.1832,
      "velocity": 108,
      "chip": "ym2612"
    },
    {
      "channel": 1,
      "note": 61,
      "start": 29.131,
      "duration": 0.1847,
      "velocity": 107,
      "chip": "ym2612"
    },
    {
      "channel": 0,
      "note": 44,
      "start": 29.2122,
      "duration": 0.1014,
      "velocity": 102,
      "chip": "ym2612"
    },
    {
      "channel": 5,
      "note": 108,
      "start": 29.2131,
      "duration": 0.1823,
      "velocity": 108,
      "chip": "ym2612"
    },
    {
      "channel": 0,
      "note": 42,
      "start": 29.3138,
      "duration": 0.1829,
      "velocity": 119,
      "chip": "ym2612"
    },
    {
      "channel": 1,
      "note": 68,
      "start": 29.3159,
      "duration": 0.1813,
      "velocity": 107,
      "chip": "ym2612"
    },
    {
      "channel": 5,
      "note": 110,
      "start": 29.3955,
      "duration": 0.1026,
      "velocity": 108,
      "chip": "ym2612"
    },
    {
      "channel": 0,
      "note": 44,
      "start": 29.4969,
      "duration": 0.1998,
      "velocity": 102,
      "chip": "ym2612"
    },
    {
      "channel": 1,
      "note": 73,
      "start": 29.4974,
      "duration": 0.1998,
      "velocity": 107,
      "chip": "ym2612"
    },
    {
      "channel": 5,
      "note": 108,
      "start": 29.4983,
      "duration": 0.0971,
      "velocity": 108,
      "chip": "ym2612"
    },
    {
      "channel": 2,
      "note": 77,
      "start": 29.4987,
      "duration": 0.0127,
      "velocity": 87,
      "chip": "ym2612"
    },
    {
      "channel": 2,
      "note": 77,
      "start": 29.5114,
      "duration": 0.0333,
      "velocity": 87,
      "chip": "ym2612"
    },
    {
      "channel": 2,
      "note": 77,
      "start": 29.5448,
      "duration": 0.0167,
      "velocity": 87,
      "chip": "ym2612"
    },
    {
      "channel": 2,
      "note": 76,
      "start": 29.5614,
      "duration": 0.0167,
      "velocity": 87,
      "chip": "ym2612"
    },
    {
      "channel": 2,
      "note": 76,
      "start": 29.5781,
      "duration": 0.0179,
      "velocity": 87,
      "chip": "ym2612"
    },
    {
      "channel": 5,
      "note": 112,
      "start": 29.5956,
      "duration": 0.436,
      "velocity": 108,
      "chip": "ym2612"
    },
    {
      "channel": 2,
      "note": 76,
      "start": 29.596,
      "duration": 0.0154,
      "velocity": 87,
      "chip": "ym2612"
    },
    {
      "channel": 2,
      "note": 76,
      "start": 29.6114,
      "duration": 0.0333,
      "velocity": 87,
      "chip": "ym2612"
    },
    {
      "channel": 2,
      "note": 76,
      "start": 29.6448,
      "duration": 0.0167,
      "velocity": 87,
      "chip": "ym2612"
    },
    {
      "channel": 2,
      "note": 76,
      "start": 29.6614,
      "duration": 0.0167,
      "velocity": 87,
      "chip": "ym2612"
    },
    {
      "channel": 2,
      "note": 76,
      "start": 29.6781,
      "duration": 0.0202,
      "velocity": 87,
      "chip": "ym2612"
    },
    {
      "channel": 0,
      "note": 42,
      "start": 29.6968,
      "duration": 0.2472,
      "velocity": 102,
      "chip": "ym2612"
    },
    {
      "channel": 1,
      "note": 73,
      "start": 29.6974,
      "duration": 0.1655,
      "velocity": 107,
      "chip": "ym2612"
    },
    {
      "channel": 2,
      "note": 75,
      "start": 29.6983,
      "duration": 0.0108,
      "velocity": 87,
      "chip": "ym2612"
    },
    {
      "channel": 2,
      "note": 75,
      "start": 29.7091,
      "duration": 0.0273,
      "velocity": 87,
      "chip": "ym2612"
    },
    {
      "channel": 2,
      "note": 75,
      "start": 29.7364,
      "duration": 0.0137,
      "velocity": 87,
      "chip": "ym2612"
    },
    {
      "channel": 2,
      "note": 75,
      "start": 29.7501,
      "duration": 0.0137,
      "velocity": 87,
      "chip": "ym2612"
    },
    {
      "channel": 2,
      "note": 75,
      "start": 29.7638,
      "duration": 0.4677,
      "velocity": 87,
      "chip": "ym2612"
    },
    {
      "channel": 1,
      "note": 73,
      "start": 29.8631,
      "duration": 0.1677,
      "velocity": 107,
      "chip": "ym2612"
    },
    {
      "channel": 0,
      "note": 42,
      "start": 29.9442,
      "duration": 0.0845,
      "velocity": 119,
      "chip": "ym2612"
    },
    {
      "channel": 0,
      "note": 44,
      "start": 30.0288,
      "duration": 0.1999,
      "velocity": 102,
      "chip": "ym2612"
    },
    {
      "channel": 1,
      "note": 68,
      "start": 30.031,
      "duration": 0.1984,
      "velocity": 107,
      "chip": "ym2612"
    },
    {
      "channel": 5,
      "note": 110,
      "start": 30.0317,
      "duration": 0.0957,
      "velocity": 108,
      "chip": "ym2612"
    },
    {
      "channel": 5,
      "note": 111,
      "start": 30.1276,
      "duration": 0.1831,
      "velocity": 108,
      "chip": "ym2612"
    },
    {
      "channel": 0,
      "note": 46,
      "start": 30.229,
      "duration": 0.1829,
      "velocity": 119,
      "chip": "ym2612"
    },
    {
      "channel": 1,
      "note": 58,
      "start": 30.2296,
      "duration": 0.1829,
      "velocity": 107,
      "chip": "ym2612"
    },
    {
      "channel": 2,
      "note": 75,
      "start": 30.2317,
      "duration": 0.1813,
      "velocity": 87,
      "chip": "ym2612"
    },
    {
      "channel": 3,
      "note": 73,
      "start": 30.2323,
      "duration": 1.4956,
      "velocity": 102,
      "chip": "ym2612"
    },
    {
      "channel": 4,
      "note": 77,
      "start": 30.2329,
      "duration": 1.4956,
      "velocity": 102,
      "chip": "ym2612"
    },
    {
      "channel": 5,
      "note": 110,
      "start": 30.3109,
      "duration": 0.1028,
      "velocity": 108,
      "chip": "ym2612"
    },
    {
      "channel": 0,
      "note": 46,
      "start": 30.4121,
      "duration": 0.2809,
      "velocity": 119,
      "chip": "ym2612"
    },
    {
      "channel": 1,
      "note": 58,
      "start": 30.4126,
      "duration": 0.1992,
      "velocity": 107,
      "chip": "ym2612"
    },
    {
      "channel": 2,
      "note": 70,
      "start": 30.4132,
      "duration": 0.1993,
      "velocity": 87,
      "chip": "ym2612"
    },
    {
      "channel": 5,
      "note": 112,
      "start": 30.4138,
      "duration": 0.0968,
      "velocity": 108,
      "chip": "ym2612"
    },
    {
      "channel": 5,
      "note": 108,
      "start": 30.5108,
      "duration": 0.183,
      "velocity": 108,
      "chip": "ym2612"
    },
    {
      "channel": 1,
      "note": 58,
      "start": 30.6121,
      "duration": 0.1846,
      "velocity": 107,
      "chip": "ym2612"
    },
    {
      "channel": 2,
      "note": 76,
      "start": 30.6126,
      "duration": 0.1846,
      "velocity": 87,
      "chip": "ym2612"
    },
    {
      "channel": 0,
      "note": 46,
      "start": 30.6932,
      "duration": 0.1013,
      "velocity": 102,
      "chip": "ym2612"
    },
    {
      "channel": 5,
      "note": 110,
      "start": 30.6939,
      "duration": 0.1822,
      "velocity": 108,
      "chip": "ym2612"
    },
    {
      "channel": 0,
      "note": 46,
      "start": 30.7947,
      "duration": 0.1826,
      "velocity": 119,
      "chip": "ym2612"
    },
    {
      "channel": 1,
      "note": 65,
      "start": 30.7968,
      "duration": 0.1811,
      "velocity": 107,
      "chip": "ym2612"
    },
    {
      "channel": 2,
      "note": 77,
      "start": 30.7974,
      "duration": 0.3811,
      "velocity": 87,
      "chip": "ym2612"
    },
    {
      "channel": 5,
      "note": 112,
      "start": 30.8763,
      "duration": 0.1024,
      "velocity": 108,
      "chip": "ym2612"
    },
    {
      "channel": 0,
      "note": 46,
      "start": 30.9775,
      "duration": 0.1999,
      "velocity": 102,
      "chip": "ym2612"
    },
    {
      "channel": 1,
      "note": 70,
      "start": 30.9781,
      "duration": 0.1999,
      "velocity": 107,
      "chip": "ym2612"
    },
    {
      "channel": 5,
      "note": 108,
      "start": 30.9788,
      "duration": 0.0973,
      "velocity": 108,
      "chip": "ym2612"
    },
    {
      "channel": 5,
      "note": 110,
      "start": 31.0762,
      "duration": 0.1829,
      "velocity": 108,
      "chip": "ym2612"
    },
    {
      "channel": 0,
      "note": 46,
      "start": 31.1776,
      "duration": 0.264,
      "velocity": 102,
      "chip": "ym2612"
    },
    {
      "channel": 1,
      "note": 70,
      "start": 31.1781,
      "duration": 0.1823,
      "velocity": 107,
      "chip": "ym2612"
    },
    {
      "channel": 2,
      "note": 73,
      "start": 31.1787,
      "duration": 0.1823,
      "velocity": 87,
      "chip": "ym2612"
    },
    {
      "channel": 5,
      "note": 112,
      "start": 31.2593,
      "duration": 0.2703,
      "velocity": 108,
      "chip": "ym2612"
    },
    {
      "channel": 1,
      "note": 70,
      "start": 31.3606,
      "duration": 0.1678,
      "velocity": 107,
      "chip": "ym2612"
    },
    {
      "channel": 2,
      "note": 70,
      "start": 31.3612,
      "duration": 0.1677,
      "velocity": 87,
      "chip": "ym2612"
    },
    {
      "channel": 0,
      "note": 46,
      "start": 31.4417,
      "duration": 0.0845,
      "velocity": 119,
      "chip": "ym2612"
    },
    {
      "channel": 0,
      "note": 46,
      "start": 31.5264,
      "duration": 0.1999,
      "velocity": 102,
      "chip": "ym2612"
    },
    {
      "channel": 1,
      "note": 65,
      "start": 31.5285,
      "duration": 0.1984,
      "velocity": 107,
      "chip": "ym2612"
    },
    {
      "channel": 2,
      "note": 65,
      "start": 31.5291,
      "duration": 0.1983,
      "velocity": 87,
      "chip": "ym2612"
    },
    {
      "channel": 5,
      "note": 108,
      "start": 31.5298,
      "duration": 0.0951,
      "velocity": 108,
      "chip": "ym2612"
    },
    {
      "channel": 5,
      "note": 110,
      "start": 31.6252,
      "duration": 0.1837,
      "velocity": 108,
      "chip": "ym2612"
    },
    {
      "channel": 0,
      "note": 44,
      "start": 31.7264,
      "duration": 0.1832,
      "velocity": 119,
      "chip": "ym2612"
    },
    {
      "channel": 1,
      "note": 61,
      "start": 31.727,
      "duration": 0.1832,
      "velocity": 107,
      "chip": "ym2612"
    },
    {
      "channel": 2,
      "note": 68,
      "start": 31.7276,
      "duration": 0.0806,
      "velocity": 87,
      "chip": "ym2612"
    },
    {
      "channel": 3,
      "note": 72,
      "start": 31.7282,
      "duration": 1.4975,
      "velocity": 102,
      "chip": "ym2612"
    },
    {
      "channel": 4,
      "note": 75,
      "start": 31.7287,
      "duration": 1.4975,
      "velocity": 102,
      "chip": "ym2612"
    },
    {
      "channel": 2,
      "note": 70,
      "start": 31.8084,
      "duration": 0.1024,
      "velocity": 87,
      "chip": "ym2612"
    },
    {
      "channel": 5,
      "note": 112,
      "start": 31.8091,
      "duration": 0.1024,
      "velocity": 108,
      "chip": "ym2612"
    },
    {
      "channel": 0,
      "note": 44,
      "start": 31.9098,
      "duration": 0.2809,
      "velocity": 119,
      "chip": "ym2612"
    },
    {
      "channel": 1,
      "note": 61,
      "start": 31.9104,
      "duration": 0.1992,
      "velocity": 107,
      "chip": "ym2612"
    },
    {
      "channel": 2,
      "note": 68,
      "start": 31.9109,
      "duration": 0.0973,
      "velocity": 87,
      "chip": "ym2612"
    },
    {
      "channel": 5,
      "note": 110,
      "start": 31.9116,
      "duration": 0.0973,
      "velocity": 108,
      "chip": "ym2612"
    },
    {
      "channel": 2,
      "note": 70,
      "start": 32.0083,
      "duration": 0.1019,
      "velocity": 87,
      "chip": "ym2612"
    },
    {
      "channel": 5,
      "note": 108,
      "start": 32.009,
      "duration": 0.183,
      "velocity": 108,
      "chip": "ym2612"
    },
    {
      "channel": 1,
      "note": 61,
      "start": 32.1098,
      "duration": 0.1846,
      "velocity": 107,
      "chip": "ym2612"
    },
    {
      "channel": 2,
      "note": 65,
      "start": 32.1104,
      "duration": 0.081,
      "velocity": 87,
      "chip": "ym2612"
    },
    {
      "channel": 0,
      "note": 44,
      "start": 32.1909,
      "duration": 0.1013,
      "velocity": 102,
      "chip": "ym2612"
    },
    {
      "channel": 2,
      "note": 68,
      "start": 32.1915,
      "duration": 0.1034,
      "velocity": 87,
      "chip": "ym2612"
    },
    {
      "channel": 5,
      "note": 110,
      "start": 32.1922,
      "duration": 0.1822,
      "velocity": 108,
      "chip": "ym2612"
    },
    {
      "channel": 0,
      "note": 44,
      "start": 32.2924,
      "duration": 0.1827,
      "velocity": 119,
      "chip": "ym2612"
    },
    {
      "channel": 1,
      "note": 68,
      "start": 32.2945,
      "duration": 0.1812,
      "velocity": 107,
      "chip": "ym2612"
    },
    {
      "channel": 2,
      "note": 65,
      "start": 32.2951,
      "duration": 0.0785,
      "velocity": 87,
      "chip": "ym2612"
    },
    {
      "channel": 2,
      "note": 68,
      "start": 32.3738,
      "duration": 0.1024,
      "velocity": 87,
      "chip": "ym2612"
    },
    {
      "channel": 5,
      "note": 108,
      "start": 32.3745,
      "duration": 0.1024,
      "velocity": 108,
      "chip": "ym2612"
    },
    {
      "channel": 0,
      "note": 44,
      "start": 32.4753,
      "duration": 0.1998,
      "velocity": 102,
      "chip": "ym2612"
    },
    {
      "channel": 1,
      "note": 73,
      "start": 32.4759,
      "duration": 0.1998,
      "velocity": 107,
      "chip": "ym2612"
    },
    {
      "channel": 2,
      "note": 63,
      "start": 32.4764,
      "duration": 0.0973,
      "velocity": 87,
      "chip": "ym2612"
    },
    {
      "channel": 5,
      "note": 110,
      "start": 32.4771,
      "duration": 0.0973,
      "velocity": 108,
      "chip": "ym2612"
    },
    {
      "channel": 2,
      "note": 65,
      "start": 32.5738,
      "duration": 0.1024,
      "velocity": 87,
      "chip": "ym2612"
    },
    {
      "channel": 5,
      "note": 112,
      "start": 32.5745,
      "duration": 0.1829,
      "velocity": 108,
      "chip": "ym2612"
    },
    {
      "channel": 0,
      "note": 44,
      "start": 32.6753,
      "duration": 0.2641,
      "velocity": 102,
      "chip": "ym2612"
    },
    {
      "channel": 1,
      "note": 73,
      "start": 32.6759,
      "duration": 0.1823,
      "velocity": 107,
      "chip": "ym2612"
    },
    {
      "channel": 2,
      "note": 63,
      "start": 32.6764,
      "duration": 0.0803,
      "velocity": 87,
      "chip": "ym2612"
    },
    {
      "channel": 2,
      "note": 65,
      "start": 32.7569,
      "duration": 0.1019,
      "velocity": 87,
      "chip": "ym2612"
    },
    {
      "channel": 5,
      "note": 110,
      "start": 32.7576,
      "duration": 0.2698,
      "velocity": 108,
      "chip": "ym2612"
    },
    {
      "channel": 1,
      "note": 73,
      "start": 32.8583,
      "duration": 0.1678,
      "velocity": 107,
      "chip": "ym2612"
    },
    {
      "channel": 2,
      "note": 61,
      "start": 32.8589,
      "duration": 0.0811,
      "velocity": 87,
      "chip": "ym2612"
    },
    {
      "channel": 0,
      "note": 44,
      "start": 32.9396,
      "duration": 0.0844,
      "velocity": 119,
      "chip": "ym2612"
    },
    {
      "channel": 2,
      "note": 63,
      "start": 32.9401,
      "duration": 0.0865,
      "velocity": 87,
      "chip": "ym2612"
    },
    {
      "channel": 0,
      "note": 44,
      "start": 33.0242,
      "duration": 0.1999,
      "velocity": 102,
      "chip": "ym2612"
    },
    {
      "channel": 1,
      "note": 68,
      "start": 33.0263,
      "duration": 0.1984,
      "velocity": 107,
      "chip": "ym2612"
    },
    {
      "channel": 2,
      "note": 61,
      "start": 33.0268,
      "duration": 0.0957,
      "velocity": 87,
      "chip": "ym2612"
    },
    {
      "channel": 5,
      "note": 112,
      "start": 33.0276,
      "duration": 0.0957,
      "velocity": 108,
      "chip": "ym2612"
    },
    {
      "channel": 2,
      "note": 63,
      "start": 33.1227,
      "duration": 0.1024,
      "velocity": 87,
      "chip": "ym2612"
    },
    {
      "channel": 5,
      "note": 108,
      "start": 33.1234,
      "duration": 0.1827,
      "velocity": 108,
      "chip": "ym2612"
    },
    {
      "channel": 0,
      "note": 39,
      "start": 33.2242,
      "duration": 0.1831,
      "velocity": 119,
      "chip": "ym2612"
    },
    {
      "channel": 1,
      "note": 63,
      "start": 33.2247,
      "duration": 0.1831,
      "velocity": 107,
      "chip": "ym2612"
    },
    {
      "channel": 2,
      "note": 58,
      "start": 33.2253,
      "duration": 2.9806,
      "velocity": 99,
      "chip": "ym2612"
    },
    {
      "channel": 3,
      "note": 70,
      "start": 33.2259,
      "duration": 3.1637,
      "velocity": 99,
      "chip": "ym2612"
    },
    {
      "channel": 4,
      "note": 73,
      "start": 33.2265,
      "duration": 2.9832,
      "velocity": 104,
      "chip": "ym2612"
    },
    {
      "channel": 5,
      "note": 110,
      "start": 33.3063,
      "duration": 0.1023,
      "velocity": 108,
      "chip": "ym2612"
    },
    {
      "channel": 0,
      "note": 46,
      "start": 33.4075,
      "duration": 0.2811,
      "velocity": 119,
      "chip": "ym2612"
    },
    {
      "channel": 1,
      "note": 63,
      "start": 33.408,
      "duration": 0.1993,
      "velocity": 107,
      "chip": "ym2612"
    },
    {
      "channel": 5,
      "note": 112,
      "start": 33.4088,
      "duration": 0.0973,
      "velocity": 108,
      "chip": "ym2612"
    },
    {
      "channel": 5,
      "note": 108,
      "start": 33.5062,
      "duration": 0.1832,
      "velocity": 108,
      "chip": "ym2612"
    },
    {
      "channel": 1,
      "note": 63,
      "start": 33.6075,
      "duration": 0.1847,
      "velocity": 107,
      "chip": "ym2612"
    },
    {
      "channel": 0,
      "note": 46,
      "start": 33.6888,
      "duration": 0.1014,
      "velocity": 102,
      "chip": "ym2612"
    },
    {
      "channel": 5,
      "note": 110,
      "start": 33.6896,
      "duration": 0.1823,
      "velocity": 108,
      "chip": "ym2612"
    },
    {
      "channel": 0,
      "note": 39,
      "start": 33.7903,
      "duration": 0.1829,
      "velocity": 119,
      "chip": "ym2612"
    },
    {
      "channel": 1,
      "note": 70,
      "start": 33.7924,
      "duration": 0.1813,
      "velocity": 107,
      "chip": "ym2612"
    },
    {
      "channel": 5,
      "note": 112,
      "start": 33.8721,
      "duration": 0.1024,
      "velocity": 108,
      "chip": "ym2612"
    },
    {
      "channel": 0,
      "note": 46,
      "start": 33.9733,
      "duration": 0.1998,
      "velocity": 102,
      "chip": "ym2612"
    },
    {
      "channel": 1,
      "note": 75,
      "start": 33.9739,
      "duration": 0.1998,
      "velocity": 107,
      "chip": "ym2612"
    },
    {
      "channel": 5,
      "note": 110,
      "start": 33.9747,
      "duration": 0.0973,
      "velocity": 108,
      "chip": "ym2612"
    },
    {
      "channel": 5,
      "note": 108,
      "start": 34.0721,
      "duration": 0.1828,
      "velocity": 108,
      "chip": "ym2612"
    },
    {
      "channel": 0,
      "note": 39,
      "start": 34.1733,
      "duration": 0.2641,
      "velocity": 102,
      "chip": "ym2612"
    },
    {
      "channel": 1,
      "note": 75,
      "start": 34.1739,
      "duration": 0.1822,
      "velocity": 107,
      "chip": "ym2612"
    },
    {
      "channel": 5,
      "note": 110,
      "start": 34.255,
      "duration": 0.27,
      "velocity": 108,
      "chip": "ym2612"
    },
    {
      "channel": 1,
      "note": 75,
      "start": 34.3563,
      "duration": 0.1679,
      "velocity": 107,
      "chip": "ym2612"
    },
    {
      "channel": 0,
      "note": 39,
      "start": 34.4376,
      "duration": 0.0846,
      "velocity": 119,
      "chip": "ym2612"
    },
    {
      "channel": 0,
      "note": 46,
      "start": 34.5223,
      "duration": 0.1999,
      "velocity": 102,
      "chip": "ym2612"
    },
    {
      "channel": 1,
      "note": 70,
      "start": 34.5244,
      "duration": 0.1983,
      "velocity": 107,
      "chip": "ym2612"
    },
    {
      "channel": 5,
      "note": 108,
      "start": 34.5252,
      "duration": 0.0957,
      "velocity": 108,
      "chip": "ym2612"
    },
    {
      "channel": 5,
      "note": 110,
      "start": 34.621,
      "duration": 0.1832,
      "velocity": 108,
      "chip": "ym2612"
    },
    {
      "channel": 0,
      "note": 42,
      "start": 34.7224,
      "duration": 0.1831,
      "velocity": 119,
      "chip": "ym2612"
    },
    {
      "channel": 1,
      "note": 61,
      "start": 34.7229,
      "duration": 0.1831,
      "velocity": 107,
      "chip": "ym2612"
    },
    {
      "channel": 5,
      "note": 112,
      "start": 34.8044,
      "duration": 0.1024,
      "velocity": 108,
      "chip": "ym2612"
    },
    {
      "channel": 0,
      "note": 44,
      "start": 34.9056,
      "duration": 0.2811,
      "velocity": 119,
      "chip": "ym2612"
    },
    {
      "channel": 1,
      "note": 61,
      "start": 34.9062,
      "duration": 0.1993,
      "velocity": 107,
      "chip": "ym2612"
    },
    {
      "channel": 5,
      "note": 110,
      "start": 34.907,
      "duration": 0.0973,
      "velocity": 108,
      "chip": "ym2612"
    },
    {
      "channel": 5,
      "note": 112,
      "start": 35.0044,
      "duration": 0.1832,
      "velocity": 108,
      "chip": "ym2612"
    },
    {
      "channel": 1,
      "note": 61,
      "start": 35.1057,
      "duration": 0.1847,
      "velocity": 107,
      "chip": "ym2612"
    },
    {
      "channel": 0,
      "note": 44,
      "start": 35.187,
      "duration": 0.1014,
      "velocity": 102,
      "chip": "ym2612"
    },
    {
      "channel": 5,
      "note": 108,
      "start": 35.1878,
      "duration": 0.1823,
      "velocity": 108,
      "chip": "ym2612"
    },
    {
      "channel": 0,
      "note": 42,
      "start": 35.2885,
      "duration": 0.1829,
      "velocity": 119,
      "chip": "ym2612"
    },
    {
      "channel": 1,
      "note": 68,
      "start": 35.2906,
      "duration": 0.1813,
      "velocity": 107,
      "chip": "ym2612"
    },
    {
      "channel": 5,
      "note": 110,
      "start": 35.3702,
      "duration": 0.1024,
      "velocity": 108,
      "chip": "ym2612"
    },
    {
      "channel": 0,
      "note": 44,
      "start": 35.4715,
      "duration": 0.1998,
      "velocity": 102,
      "chip": "ym2612"
    },
    {
      "channel": 1,
      "note": 73,
      "start": 35.4721,
      "duration": 0.1998,
      "velocity": 107,
      "chip": "ym2612"
    },
    {
      "channel": 5,
      "note": 108,
      "start": 35.4729,
      "duration": 0.0973,
      "velocity": 108,
      "chip": "ym2612"
    },
    {
      "channel": 5,
      "note": 112,
      "start": 35.5702,
      "duration": 0.4357,
      "velocity": 108,
      "chip": "ym2612"
    },
    {
      "channel": 0,
      "note": 42,
      "start": 35.6715,
      "duration": 0.2471,
      "velocity": 102,
      "chip": "ym2612"
    },
    {
      "channel": 1,
      "note": 73,
      "start": 35.6721,
      "duration": 0.1652,
      "velocity": 107,
      "chip": "ym2612"
    },
    {
      "channel": 1,
      "note": 73,
      "start": 35.8375,
      "duration": 0.1676,
      "velocity": 107,
      "chip": "ym2612"
    },
    {
      "channel": 0,
      "note": 42,
      "start": 35.9188,
      "duration": 0.0842,
      "velocity": 119,
      "chip": "ym2612"
    },
    {
      "channel": 0,
      "note": 44,
      "start": 36.0032,
      "duration": 0.1999,
      "velocity": 102,
      "chip": "ym2612"
    },
    {
      "channel": 1,
      "note": 68,
      "start": 36.0054,
      "duration": 0.1984,
      "velocity": 107,
      "chip": "ym2612"
    },
    {
      "channel": 5,
      "note": 110,
      "start": 36.0061,
      "duration": 0.0957,
      "velocity": 108,
      "chip": "ym2612"
    },
    {
      "channel": 5,
      "note": 111,
      "start": 36.102,
      "duration": 0.1832,
      "velocity": 108,
      "chip": "ym2612"
    },
    {
      "channel": 0,
      "note": 46,
      "start": 36.2033,
      "duration": 0.183,
      "velocity": 119,
      "chip": "ym2612"
    },
    {
      "channel": 1,
      "note": 58,
      "start": 36.2039,
      "duration": 0.183,
      "velocity": 107,
      "chip": "ym2612"
    },
    {
      "channel": 2,
      "note": 56,
      "start": 36.2061,
      "duration": 0.1814,
      "velocity": 99,
      "chip": "ym2612"
    },
    {
      "channel": 4,
      "note": 46,
      "start": 36.2099,
      "duration": 5.9738,
      "velocity": 99,
      "chip": "ym2612"
    },
    {
      "channel": 5,
      "note": 110,
      "start": 36.2854,
      "duration": 0.1048,
      "velocity": 108,
      "chip": "ym2612"
    },
    {
      "channel": 0,
      "note": 46,
      "start": 36.3865,
      "duration": 0.281,
      "velocity": 119,
      "chip": "ym2612"
    },
    {
      "channel": 1,
      "note": 58,
      "start": 36.3871,
      "duration": 0.1993,
      "velocity": 107,
      "chip": "ym2612"
    },
    {
      "channel": 2,
      "note": 58,
      "start": 36.3876,
      "duration": 0.1993,
      "velocity": 99,
      "chip": "ym2612"
    },
    {
      "channel": 3,
      "note": 68,
      "start": 36.3898,
      "duration": 0.1977,
      "velocity": 99,
      "chip": "ym2612"
    },
    {
      "channel": 5,
      "note": 112,
      "start": 36.3904,
      "duration": 0.0946,
      "velocity": 108,
      "chip": "ym2612"
    },
    {
      "channel": 5,
      "note": 108,
      "start": 36.4852,
      "duration": 0.1841,
      "velocity": 108,
      "chip": "ym2612"
    },
    {
      "channel": 1,
      "note": 58,
      "start": 36.5866,
      "duration": 0.1846,
      "velocity": 107,
      "chip": "ym2612"
    },
    {
      "channel": 2,
      "note": 61,
      "start": 36.5871,
      "duration": 0.081,
      "velocity": 99,
      "chip": "ym2612"
    },
    {
      "channel": 3,
      "note": 67,
      "start": 36.5876,
      "duration": 0.081,
      "velocity": 99,
      "chip": "ym2612"
    },
    {
      "channel": 0,
      "note": 46,
      "start": 36.6676,
      "duration": 0.1013,
      "velocity": 102,
      "chip": "ym2612"
    },
    {
      "channel": 2,
      "note": 63,
      "start": 36.6683,
      "duration": 0.1034,
      "velocity": 99,
      "chip": "ym2612"
    },
    {
      "channel": 3,
      "note": 63,
      "start": 36.6688,
      "duration": 0.2848,
      "velocity": 99,
      "chip": "ym2612"
    },
    {
      "channel": 5,
      "note": 110,
      "start": 36.6695,
      "duration": 0.1811,
      "velocity": 108,
      "chip": "ym2612"
    },
    {
      "channel": 0,
      "note": 46,
      "start": 36.7692,
      "duration": 0.1827,
      "velocity": 119,
      "chip": "ym2612"
    },
    {
      "channel": 1,
      "note": 65,
      "start": 36.7713,
      "duration": 0.1812,
      "velocity": 107,
      "chip": "ym2612"
    },
    {
      "channel": 2,
      "note": 58,
      "start": 36.7719,
      "duration": 0.1811,
      "velocity": 99,
      "chip": "ym2612"
    },
    {
      "channel": 5,
      "note": 112,
      "start": 36.8508,
      "duration": 0.1034,
      "velocity": 108,
      "chip": "ym2612"
    },
    {
      "channel": 0,
      "note": 46,
      "start": 36.9521,
      "duration": 0.1998,
      "velocity": 102,
      "chip": "ym2612"
    },
    {
      "channel": 1,
      "note": 70,
      "start": 36.9527,
      "duration": 0.1998,
      "velocity": 107,
      "chip": "ym2612"
    },
    {
      "channel": 2,
      "note": 63,
      "start": 36.9532,
      "duration": 0.1998,
      "velocity": 99,
      "chip": "ym2612"
    },
    {
      "channel": 3,
      "note": 65,
      "start": 36.9538,
      "duration": 0.2802,
      "velocity": 99,
      "chip": "ym2612"
    },
    {
      "channel": 5,
      "note": 108,
      "start": 36.9544,
      "duration": 0.0962,
      "velocity": 108,
      "chip": "ym2612"
    },
    {
      "channel": 5,
      "note": 110,
      "start": 37.0508,
      "duration": 0.1839,
      "velocity": 108,
      "chip": "ym2612"
    },
    {
      "channel": 0,
      "note": 46,
      "start": 37.1521,
      "duration": 0.2639,
      "velocity": 102,
      "chip": "ym2612"
    },
    {
      "channel": 1,
      "note": 70,
      "start": 37.1527,
      "duration": 0.1823,
      "velocity": 107,
      "chip": "ym2612"
    },
    {
      "channel": 2,
      "note": 58,
      "start": 37.1532,
      "duration": 0.0803,
      "velocity": 99,
      "chip": "ym2612"
    },
    {
      "channel": 2,
      "note": 65,
      "start": 37.2337,
      "duration": 0.183,
      "velocity": 99,
      "chip": "ym2612"
    },
    {
      "channel": 3,
      "note": 58,
      "start": 37.2342,
      "duration": 0.1014,
      "velocity": 99,
      "chip": "ym2612"
    },
    {
      "channel": 5,
      "note": 112,
      "start": 37.2349,
      "duration": 0.2695,
      "velocity": 108,
      "chip": "ym2612"
    },
    {
      "channel": 1,
      "note": 70,
      "start": 37.3352,
      "duration": 0.1675,
      "velocity": 107,
      "chip": "ym2612"
    },
    {
      "channel": 3,
      "note": 63,
      "start": 37.3358,
      "duration": 0.0815,
      "velocity": 99,
      "chip": "ym2612"
    },
    {
      "channel": 0,
      "note": 44,
      "start": 37.4162,
      "duration": 0.0843,
      "velocity": 119,
      "chip": "ym2612"
    },
    {
      "channel": 2,
      "note": 58,
      "start": 37.4168,
      "duration": 0.0864,
      "velocity": 99,
      "chip": "ym2612"
    },
    {
      "channel": 3,
      "note": 65,
      "start": 37.4174,
      "duration": 0.0864,
      "velocity": 99,
      "chip": "ym2612"
    },
    {
      "channel": 0,
      "note": 46,
      "start": 37.5007,
      "duration": 0.1998,
      "velocity": 102,
      "chip": "ym2612"
    },
    {
      "channel": 1,
      "note": 65,
      "start": 37.5028,
      "duration": 0.1982,
      "velocity": 107,
      "chip": "ym2612"
    },
    {
      "channel": 2,
      "note": 68,
      "start": 37.5034,
      "duration": 0.0956,
      "velocity": 99,
      "chip": "ym2612"
    },
    {
      "channel": 3,
      "note": 68,
      "start": 37.504,
      "duration": 0.3812,
      "velocity": 99,
      "chip": "ym2612"
    },
    {
      "channel": 5,
      "note": 108,
      "start": 37.5046,
      "duration": 0.0952,
      "velocity": 108,
      "chip": "ym2612"
    },
    {
      "channel": 2,
      "note": 70,
      "start": 37.5992,
      "duration": 0.1024,
      "velocity": 99,
      "chip": "ym2612"
    },
    {
      "channel": 5,
      "note": 110,
      "start": 37.5999,
      "duration": 0.1823,
      "velocity": 108,
      "chip": "ym2612"
    },
    {
      "channel": 0,
      "note": 46,
      "start": 37.7007,
      "duration": 0.1828,
      "velocity": 119,
      "chip": "ym2612"
    },
    {
      "channel": 1,
      "note": 58,
      "start": 37.7012,
      "duration": 0.1829,
      "velocity": 107,
      "chip": "ym2612"
    },
    {
      "channel": 2,
      "note": 56,
      "start": 37.7018,
      "duration": 0.1829,
      "velocity": 99,
      "chip": "ym2612"
    },
    {
      "channel": 5,
      "note": 112,
      "start": 37.7824,
      "duration": 0.1034,
      "velocity": 108,
      "chip": "ym2612"
    },
    {
      "channel": 0,
      "note": 44,
      "start": 37.8837,
      "duration": 0.2809,
      "velocity": 119,
      "chip": "ym2612"
    },
    {
      "channel": 1,
      "note": 58,
      "start": 37.8843,
      "duration": 0.1993,
      "velocity": 107,
      "chip": "ym2612"
    },
    {
      "channel": 2,
      "note": 58,
      "start": 37.8849,
      "duration": 0.1993,
      "velocity": 99,
      "chip": "ym2612"
    },
    {
      "channel": 3,
      "note": 68,
      "start": 37.8854,
      "duration": 0.1993,
      "velocity": 99,
      "chip": "ym2612"
    },
    {
      "channel": 5,
      "note": 110,
      "start": 37.8861,
      "duration": 0.0962,
      "velocity": 108,
      "chip": "ym2612"
    },
    {
      "channel": 5,
      "note": 108,
      "start": 37.9824,
      "duration": 0.184,
      "velocity": 108,
      "chip": "ym2612"
    },
    {
      "channel": 1,
      "note": 58,
      "start": 38.0838,
      "duration": 0.1845,
      "velocity": 107,
      "chip": "ym2612"
    },
    {
      "channel": 2,
      "note": 61,
      "start": 38.0844,
      "duration": 0.0809,
      "velocity": 99,
      "chip": "ym2612"
    },
    {
      "channel": 3,
      "note": 67,
      "start": 38.0849,
      "duration": 0.0809,
      "velocity": 99,
      "chip": "ym2612"
    },
    {
      "channel": 0,
      "note": 44,
      "start": 38.1648,
      "duration": 0.1013,
      "velocity": 102,
      "chip": "ym2612"
    },
    {
      "channel": 2,
      "note": 63,
      "start": 38.1654,
      "duration": 0.1034,
      "velocity": 99,
      "chip": "ym2612"
    },
    {
      "channel": 3,
      "note": 63,
      "start": 38.166,
      "duration": 0.2848,
      "velocity": 99,
      "chip": "ym2612"
    },
    {
      "channel": 5,
      "note": 110,
      "start": 38.1666,
      "duration": 0.1811,
      "velocity": 108,
      "chip": "ym2612"
    },
    {
      "channel": 0,
      "note": 46,
      "start": 38.2663,
      "duration": 0.1827,
      "velocity": 119,
      "chip": "ym2612"
    },
    {
      "channel": 1,
      "note": 65,
      "start": 38.2685,
      "duration": 0.1812,
      "velocity": 107,
      "chip": "ym2612"
    },
    {
      "channel": 2,
      "note": 58,
      "start": 38.269,
      "duration": 0.1811,
      "velocity": 99,
      "chip": "ym2612"
    },
    {
      "channel": 5,
      "note": 108,
      "start": 38.3479,
      "duration": 0.1035,
      "velocity": 108,
      "chip": "ym2612"
    },
    {
      "channel": 0,
      "note": 44,
      "start": 38.4492,
      "duration": 0.1998,
      "velocity": 102,
      "chip": "ym2612"
    },
    {
      "channel": 1,
      "note": 70,
      "start": 38.4498,
      "duration": 0.1998,
      "velocity": 107,
      "chip": "ym2612"
    },
    {
      "channel": 2,
      "note": 65,
      "start": 38.4504,
      "duration": 0.1998,
      "velocity": 99,
      "chip": "ym2612"
    },
    {
      "channel": 3,
      "note": 65,
      "start": 38.451,
      "duration": 0.2802,
      "velocity": 99,
      "chip": "ym2612"
    },
    {
      "channel": 5,
      "note": 110,
      "start": 38.4516,
      "duration": 0.0962,
      "velocity": 108,
      "chip": "ym2612"
    },
    {
      "channel": 5,
      "note": 112,
      "start": 38.548,
      "duration": 0.1839,
      "velocity": 108,
      "chip": "ym2612"
    },
    {
      "channel": 0,
      "note": 46,
      "start": 38.6492,
      "duration": 0.2639,
      "velocity": 102,
      "chip": "ym2612"
    },
    {
      "channel": 1,
      "note": 70,
      "start": 38.6498,
      "duration": 0.1823,
      "velocity": 107,
      "chip": "ym2612"
    },
    {
      "channel": 2,
      "note": 58,
      "start": 38.6503,
      "duration": 0.0803,
      "velocity": 99,
      "chip": "ym2612"
    },
    {
      "channel": 2,
      "note": 68,
      "start": 38.7308,
      "duration": 0.183,
      "velocity": 99,
      "chip": "ym2612"
    },
    {
      "channel": 3,
      "note": 58,
      "start": 38.7314,
      "duration": 0.1014,
      "velocity": 99,
      "chip": "ym2612"
    },
    {
      "channel": 5,
      "note": 110,
      "start": 38.732,
      "duration": 0.2695,
      "velocity": 108,
      "chip": "ym2612"
    },
    {
      "channel": 1,
      "note": 70,
      "start": 38.8323,
      "duration": 0.1674,
      "velocity": 107,
      "chip": "ym2612"
    },
    {
      "channel": 3,
      "note": 63,
      "start": 38.8329,
      "duration": 0.0814,
      "velocity": 99,
      "chip": "ym2612"
    },
    {
      "channel": 0,
      "note": 44,
      "start": 38.9133,
      "duration": 0.0842,
      "velocity": 119,
      "chip": "ym2612"
    },
    {
      "channel": 2,
      "note": 63,
      "start": 38.914,
      "duration": 0.0863,
      "velocity": 99,
      "chip": "ym2612"
    },
    {
      "channel": 3,
      "note": 65,
      "start": 38.9145,
      "duration": 0.0863,
      "velocity": 99,
      "chip": "ym2612"
    },
    {
      "channel": 0,
      "note": 44,
      "start": 38.9978,
      "duration": 0.1998,
      "velocity": 102,
      "chip": "ym2612"
    },
    {
      "channel": 1,
      "note": 65,
      "start": 38.9999,
      "duration": 0.1982,
      "velocity": 107,
      "chip": "ym2612"
    },
    {
      "channel": 2,
      "note": 65,
      "start": 39.0005,
      "duration": 0.0956,
      "velocity": 99,
      "chip": "ym2612"
    },
    {
      "channel": 3,
      "note": 68,
      "start": 39.001,
      "duration": 0.0957,
      "velocity": 99,
      "chip": "ym2612"
    },
    {
      "channel": 5,
      "note": 112,
      "start": 39.0017,
      "duration": 0.0957,
      "velocity": 108,
      "chip": "ym2612"
    },
    {
      "channel": 2,
      "note": 68,
      "start": 39.0963,
      "duration": 0.1024,
      "velocity": 99,
      "chip": "ym2612"
    },
    {
      "channel": 3,
      "note": 70,
      "start": 39.0969,
      "duration": 0.2854,
      "velocity": 99,
      "chip": "ym2612"
    },
    {
      "channel": 5,
      "note": 108,
      "start": 39.0975,
      "duration": 0.1818,
      "velocity": 108,
      "chip": "ym2612"
    },
    {
      "channel": 0,
      "note": 46,
      "start": 39.1978,
      "duration": 0.1828,
      "velocity": 119,
      "chip": "ym2612"
    },
    {
      "channel": 1,
      "note": 58,
      "start": 39.1983,
      "duration": 0.1829,
      "velocity": 107,
      "chip": "ym2612"
    },
    {
      "channel": 2,
      "note": 56,
      "start": 39.1989,
      "duration": 0.1829,
      "velocity": 99,
      "chip": "ym2612"
    },
    {
      "channel": 5,
      "note": 110,
      "start": 39.2795,
      "duration": 0.1035,
      "velocity": 108,
      "chip": "ym2612"
    },
    {
      "channel": 0,
      "note": 46,
      "start": 39.3808,
      "duration": 0.281,
      "velocity": 119,
      "chip": "ym2612"
    },
    {
      "channel": 1,
      "note": 58,
      "start": 39.3814,
      "duration": 0.1993,
      "velocity": 107,
      "chip": "ym2612"
    },
    {
      "channel": 2,
      "note": 58,
      "start": 39.3819,
      "duration": 0.1993,
      "velocity": 99,
      "chip": "ym2612"
    },
    {
      "channel": 3,
      "note": 68,
      "start": 39.3825,
      "duration": 0.1993,
      "velocity": 99,
      "chip": "ym2612"
    },
    {
      "channel": 5,
      "note": 112,
      "start": 39.3832,
      "duration": 0.0962,
      "velocity": 108,
      "chip": "ym2612"
    },
    {
      "channel": 5,
      "note": 108,
      "start": 39.4795,
      "duration": 0.1841,
      "velocity": 108,
      "chip": "ym2612"
    },
    {
      "channel": 1,
      "note": 58,
      "start": 39.5809,
      "duration": 0.1846,
      "velocity": 107,
      "chip": "ym2612"
    },
    {
      "channel": 2,
      "note": 61,
      "start": 39.5814,
      "duration": 0.081,
      "velocity": 99,
      "chip": "ym2612"
    },
    {
      "channel": 3,
      "note": 67,
      "start": 39.5819,
      "duration": 0.081,
      "velocity": 99,
      "chip": "ym2612"
    },
    {
      "channel": 0,
      "note": 46,
      "start": 39.662,
      "duration": 0.1013,
      "velocity": 102,
      "chip": "ym2612"
    },
    {
      "channel": 2,
      "note": 63,
      "start": 39.6626,
      "duration": 0.1034,
      "velocity": 99,
      "chip": "ym2612"
    },
    {
      "channel": 3,
      "note": 63,
      "start": 39.6632,
      "duration": 0.2848,
      "velocity": 99,
      "chip": "ym2612"
    },
    {
      "channel": 5,
      "note": 110,
      "start": 39.6638,
      "duration": 0.1811,
      "velocity": 108,
      "chip": "ym2612"
    },
    {
      "channel": 0,
      "note": 46,
      "start": 39.7635,
      "duration": 0.1827,
      "velocity": 119,
      "chip": "ym2612"
    },
    {
      "channel": 1,
      "note": 65,
      "start": 39.7656,
      "duration": 0.1812,
      "velocity": 107,
      "chip": "ym2612"
    },
    {
      "channel": 2,
      "note": 58,
      "start": 39.7662,
      "duration": 0.1811,
      "velocity": 99,
      "chip": "ym2612"
    },
    {
      "channel": 5,
      "note": 112,
      "start": 39.8451,
      "duration": 0.1034,
      "velocity": 108,
      "chip": "ym2612"
    },
    {
      "channel": 0,
      "note": 46,
      "start": 39.9464,
      "duration": 0.1998,
      "velocity": 102,
      "chip": "ym2612"
    },
    {
      "channel": 1,
      "note": 70,
      "start": 39.947,
      "duration": 0.1998,
      "velocity": 107,
      "chip": "ym2612"
    },
    {
      "channel": 2,
      "note": 65,
      "start": 39.9475,
      "duration": 0.1998,
      "velocity": 99,
      "chip": "ym2612"
    },
    {
      "channel": 3,
      "note": 65,
      "start": 39.9481,
      "duration": 0.2802,
      "velocity": 99,
      "chip": "ym2612"
    },
    {
      "channel": 5,
      "note": 110,
      "start": 39.9488,
      "duration": 0.0962,
      "velocity": 108,
      "chip": "ym2612"
    },
    {
      "channel": 5,
      "note": 108,
      "start": 40.0451,
      "duration": 0.1839,
      "velocity": 108,
      "chip": "ym2612"
    },
    {
      "channel": 0,
      "note": 46,
      "start": 40.1464,
      "duration": 0.2639,
      "velocity": 102,
      "chip": "ym2612"
    },
    {
      "channel": 1,
      "note": 70,
      "start": 40.147,
      "duration": 0.1823,
      "velocity": 107,
      "chip": "ym2612"
    },
    {
      "channel": 2,
      "note": 58,
      "start": 40.1475,
      "duration": 0.0803,
      "velocity": 99,
      "chip": "ym2612"
    },
    {
      "channel": 2,
      "note": 68,
      "start": 40.228,
      "duration": 0.183,
      "velocity": 99,
      "chip": "ym2612"
    },
    {
      "channel": 3,
      "note": 58,
      "start": 40.2285,
      "duration": 0.1014,
      "velocity": 99,
      "chip": "ym2612"
    },
    {
      "channel": 5,
      "note": 110,
      "start": 40.2292,
      "duration": 0.2695,
      "velocity": 108,
      "chip": "ym2612"
    },
    {
      "channel": 1,
      "note": 70,
      "start": 40.3295,
      "duration": 0.1674,
      "velocity": 107,
      "chip": "ym2612"
    },
    {
      "channel": 3,
      "note": 63,
      "start": 40.3301,
      "duration": 0.0815,
      "velocity": 99,
      "chip": "ym2612"
    },
    {
      "channel": 0,
      "note": 44,
      "start": 40.4105,
      "duration": 0.0842,
      "velocity": 119,
      "chip": "ym2612"
    },
    {
      "channel": 2,
      "note": 65,
      "start": 40.4112,
      "duration": 0.0863,
      "velocity": 99,
      "chip": "ym2612"
    },
    {
      "channel": 3,
      "note": 65,
      "start": 40.4117,
      "duration": 0.0863,
      "velocity": 99,
      "chip": "ym2612"
    },
    {
      "channel": 0,
      "note": 46,
      "start": 40.4949,
      "duration": 0.1998,
      "velocity": 102,
      "chip": "ym2612"
    },
    {
      "channel": 1,
      "note": 65,
      "start": 40.4971,
      "duration": 0.1982,
      "velocity": 107,
      "chip": "ym2612"
    },
    {
      "channel": 2,
      "note": 68,
      "start": 40.4977,
      "duration": 0.0956,
      "velocity": 99,
      "chip": "ym2612"
    },
    {
      "channel": 3,
      "note": 68,
      "start": 40.4982,
      "duration": 0.3813,
      "velocity": 99,
      "chip": "ym2612"
    },
    {
      "channel": 5,
      "note": 108,
      "start": 40.4989,
      "duration": 0.0952,
      "velocity": 108,
      "chip": "ym2612"
    },
    {
      "channel": 2,
      "note": 70,
      "start": 40.5934,
      "duration": 0.1024,
      "velocity": 99,
      "chip": "ym2612"
    },
    {
      "channel": 5,
      "note": 110,
      "start": 40.5941,
      "duration": 0.1823,
      "velocity": 108,
      "chip": "ym2612"
    },
    {
      "channel": 0,
      "note": 46,
      "start": 40.6949,
      "duration": 0.1828,
      "velocity": 119,
      "chip": "ym2612"
    },
    {
      "channel": 1,
      "note": 58,
      "start": 40.6955,
      "duration": 0.1829,
      "velocity": 107,
      "chip": "ym2612"
    },
    {
      "channel": 2,
      "note": 56,
      "start": 40.696,
      "duration": 0.1829,
      "velocity": 99,
      "chip": "ym2612"
    },
    {
      "channel": 5,
      "note": 112,
      "start": 40.7767,
      "duration": 0.1034,
      "velocity": 108,
      "chip": "ym2612"
    },
    {
      "channel": 0,
      "note": 44,
      "start": 40.878,
      "duration": 0.281,
      "velocity": 119,
      "chip": "ym2612"
    },
    {
      "channel": 1,
      "note": 58,
      "start": 40.8785,
      "duration": 0.1993,
      "velocity": 107,
      "chip": "ym2612"
    },
    {
      "channel": 2,
      "note": 58,
      "start": 40.8791,
      "duration": 0.1993,
      "velocity": 99,
      "chip": "ym2612"
    },
    {
      "channel": 3,
      "note": 68,
      "start": 40.8797,
      "duration": 0.1993,
      "velocity": 99,
      "chip": "ym2612"
    },
    {
      "channel": 5,
      "note": 110,
      "start": 40.8803,
      "duration": 0.0962,
      "velocity": 108,
      "chip": "ym2612"
    },
    {
      "channel": 5,
      "note": 112,
      "start": 40.9767,
      "duration": 0.1841,
      "velocity": 108,
      "chip": "ym2612"
    },
    {
      "channel": 1,
      "note": 58,
      "start": 41.078,
      "duration": 0.1846,
      "velocity": 107,
      "chip": "ym2612"
    },
    {
      "channel": 2,
      "note": 61,
      "start": 41.0786,
      "duration": 0.081,
      "velocity": 99,
      "chip": "ym2612"
    },
    {
      "channel": 3,
      "note": 67,
      "start": 41.0791,
      "duration": 0.081,
      "velocity": 99,
      "chip": "ym2612"
    },
    {
      "channel": 0,
      "note": 44,
      "start": 41.1591,
      "duration": 0.1013,
      "velocity": 102,
      "chip": "ym2612"
    },
    {
      "channel": 2,
      "note": 63,
      "start": 41.1598,
      "duration": 0.1034,
      "velocity": 99,
      "chip": "ym2612"
    },
    {
      "channel": 3,
      "note": 63,
      "start": 41.1603,
      "duration": 0.2848,
      "velocity": 99,
      "chip": "ym2612"
    },
    {
      "channel": 5,
      "note": 108,
      "start": 41.161,
      "duration": 0.1811,
      "velocity": 108,
      "chip": "ym2612"
    },
    {
      "channel": 0,
      "note": 46,
      "start": 41.2606,
      "duration": 0.1827,
      "velocity": 119,
      "chip": "ym2612"
    },
    {
      "channel": 1,
      "note": 65,
      "start": 41.2628,
      "duration": 0.1812,
      "velocity": 107,
      "chip": "ym2612"
    },
    {
      "channel": 2,
      "note": 58,
      "start": 41.2634,
      "duration": 0.1811,
      "velocity": 99,
      "chip": "ym2612"
    },
    {
      "channel": 5,
      "note": 110,
      "start": 41.3423,
      "duration": 0.1034,
      "velocity": 108,
      "chip": "ym2612"
    },
    {
      "channel": 0,
      "note": 44,
      "start": 41.4436,
      "duration": 0.1998,
      "velocity": 102,
      "chip": "ym2612"
    },
    {
      "channel": 1,
      "note": 70,
      "start": 41.4441,
      "duration": 0.1998,
      "velocity": 107,
      "chip": "ym2612"
    },
    {
      "channel": 2,
      "note": 65,
      "start": 41.4447,
      "duration": 0.0972,
      "velocity": 99,
      "chip": "ym2612"
    },
    {
      "channel": 3,
      "note": 65,
      "start": 41.4453,
      "duration": 0.0972,
      "velocity": 99,
      "chip": "ym2612"
    },
    {
      "channel": 5,
      "note": 108,
      "start": 41.4459,
      "duration": 0.0973,
      "velocity": 108,
      "chip": "ym2612"
    },
    {
      "channel": 2,
      "note": 56,
      "start": 41.5421,
      "duration": 0.1024,
      "velocity": 99,
      "chip": "ym2612"
    },
    {
      "channel": 3,
      "note": 63,
      "start": 41.5427,
      "duration": 0.1024,
      "velocity": 99,
      "chip": "ym2612"
    },
    {
      "channel": 5,
      "note": 112,
      "start": 41.5433,
      "duration": 0.4362,
      "velocity": 108,
      "chip": "ym2612"
    },
    {
      "channel": 0,
      "note": 46,
      "start": 41.6436,
      "duration": 0.2473,
      "velocity": 102,
      "chip": "ym2612"
    },
    {
      "channel": 1,
      "note": 70,
      "start": 41.6441,
      "duration": 0.1655,
      "velocity": 107,
      "chip": "ym2612"
    },
    {
      "channel": 2,
      "note": 58,
      "start": 41.6447,
      "duration": 0.0802,
      "velocity": 99,
      "chip": "ym2612"
    },
    {
      "channel": 3,
      "note": 61,
      "start": 41.6453,
      "duration": 0.0802,
      "velocity": 99,
      "chip": "ym2612"
    },
    {
      "channel": 2,
      "note": 63,
      "start": 41.7251,
      "duration": 0.0851,
      "velocity": 99,
      "chip": "ym2612"
    },
    {
      "channel": 3,
      "note": 58,
      "start": 41.7257,
      "duration": 0.0851,
      "velocity": 99,
      "chip": "ym2612"
    },
    {
      "channel": 1,
      "note": 70,
      "start": 41.8099,
      "duration": 0.1679,
      "velocity": 107,
      "chip": "ym2612"
    },
    {
      "channel": 2,
      "note": 68,
      "start": 41.8104,
      "duration": 0.081,
      "velocity": 99,
      "chip": "ym2612"
    },
    {
      "channel": 3,
      "note": 63,
      "start": 41.8109,
      "duration": 0.0811,
      "velocity": 99,
      "chip": "ym2612"
    },
    {
      "channel": 0,
      "note": 44,
      "start": 41.891,
      "duration": 0.0845,
      "velocity": 119,
      "chip": "ym2612"
    },
    {
      "channel": 2,
      "note": 70,
      "start": 41.8917,
      "duration": 0.0866,
      "velocity": 99,
      "chip": "ym2612"
    },
    {
      "channel": 3,
      "note": 65,
      "start": 41.8922,
      "duration": 0.0866,
      "velocity": 99,
      "chip": "ym2612"
    },
    {
      "channel": 0,
      "note": 44,
      "start": 41.9758,
      "duration": 0.1999,
      "velocity": 117,
      "chip": "ym2612"
    },
    {
      "channel": 1,
      "note": 65,
      "start": 41.9779,
      "duration": 0.1999,
      "velocity": 1,
      "chip": "ym2612"
    },
    {
      "channel": 2,
      "note": 73,
      "start": 41.9785,
      "duration": 0.0957,
      "velocity": 99,
      "chip": "ym2612"
    },
    {
      "channel": 3,
      "note": 68,
      "start": 41.979,
      "duration": 0.3787,
      "velocity": 99,
      "chip": "ym2612"
    },
    {
      "channel": 5,
      "note": 110,
      "start": 41.9797,
      "duration": 0.0968,
      "velocity": 108,
      "chip": "ym2612"
    },
    {
      "channel": 2,
      "note": 75,
      "start": 42.0744,
      "duration": 0.1055,
      "velocity": 87,
      "chip": "ym2612"
    },
    {
      "channel": 5,
      "note": 111,
      "start": 42.0766,
      "duration": 0.1815,
      "velocity": 108,
      "chip": "ym2612"
    },
    {
      "channel": 0,
      "note": 58,
      "start": 42.1758,
      "duration": 0.5643,
      "velocity": 117,
      "chip": "ym2612"
    },
    {
      "channel": 1,
      "note": 67,
      "start": 42.1779,
      "duration": 0.3813,
      "velocity": 97,
      "chip": "ym2612"
    },
    {
      "channel": 2,
      "note": 70,
      "start": 42.1801,
      "duration": 1.496,
      "velocity": 87,
      "chip": "ym2612"
    },
    {
      "channel": 4,
      "note": 56,
      "start": 42.1839,
      "duration": 0.1744,
      "velocity": 99,
      "chip": "ym2612"
    },
    {
      "channel": 5,
      "note": 110,
      "start": 42.2582,
      "duration": 0.1007,
      "velocity": 108,
      "chip": "ym2612"
    },
    {
      "channel": 3,
      "note": 68,
      "start": 42.3579,
      "duration": 0.2019,
      "velocity": 99,
      "chip": "ym2612"
    },
    {
      "channel": 4,
      "note": 58,
      "start": 42.3585,
      "duration": 0.2019,
      "velocity": 99,
      "chip": "ym2612"
    },
    {
      "channel": 5,
      "note": 112,
      "start": 42.3591,
      "duration": 0.0988,
      "velocity": 108,
      "chip": "ym2612"
    },
    {
      "channel": 5,
      "note": 108,
      "start": 42.458,
      "duration": 0.1835,
      "velocity": 108,
      "chip": "ym2612"
    },
    {
      "channel": 1,
      "note": 70,
      "start": 42.5594,
      "duration": 1.4979,
      "velocity": 97,
      "chip": "ym2612"
    },
    {
      "channel": 3,
      "note": 67,
      "start": 42.56,
      "duration": 0.0804,
      "velocity": 99,
      "chip": "ym2612"
    },
    {
      "channel": 4,
      "note": 61,
      "start": 42.5605,
      "duration": 0.0804,
      "velocity": 99,
      "chip": "ym2612"
    },
    {
      "channel": 3,
      "note": 63,
      "start": 42.6405,
      "duration": 0.2829,
      "velocity": 99,
      "chip": "ym2612"
    },
    {
      "channel": 4,
      "note": 63,
      "start": 42.6411,
      "duration": 0.0998,
      "velocity": 99,
      "chip": "ym2612"
    },
    {
      "channel": 5,
      "note": 110,
      "start": 42.6417,
      "duration": 0.182,
      "velocity": 108,
      "chip": "ym2612"
    },
    {
      "channel": 0,
      "note": 58,
      "start": 42.7403,
      "duration": 0.3829,
      "velocity": 117,
      "chip": "ym2612"
    },
    {
      "channel": 4,
      "note": 58,
      "start": 42.7411,
      "duration": 0.1829,
      "velocity": 99,
      "chip": "ym2612"
    },
    {
      "channel": 5,
      "note": 112,
      "start": 42.8238,
      "duration": 0.1009,
      "velocity": 108,
      "chip": "ym2612"
    },
    {
      "channel": 3,
      "note": 65,
      "start": 42.9236,
      "duration": 0.2829,
      "velocity": 99,
      "chip": "ym2612"
    },
    {
      "channel": 4,
      "note": 63,
      "start": 42.9242,
      "duration": 0.1998,
      "velocity": 99,
      "chip": "ym2612"
    },
    {
      "channel": 5,
      "note": 108,
      "start": 42.9248,
      "duration": 0.0988,
      "velocity": 108,
      "chip": "ym2612"
    },
    {
      "channel": 5,
      "note": 110,
      "start": 43.0238,
      "duration": 0.1839,
      "velocity": 108,
      "chip": "ym2612"
    },
    {
      "channel": 0,
      "note": 58,
      "start": 43.1234,
      "duration": 0.2659,
      "velocity": 117,
      "chip": "ym2612"
    },
    {
      "channel": 4,
      "note": 58,
      "start": 43.1242,
      "duration": 0.0828,
      "velocity": 99,
      "chip": "ym2612"
    },
    {
      "channel": 3,
      "note": 58,
      "start": 43.2067,
      "duration": 0.1014,
      "velocity": 99,
      "chip": "ym2612"
    },
    {
      "channel": 4,
      "note": 65,
      "start": 43.2072,
      "duration": 0.1833,
      "velocity": 99,
      "chip": "ym2612"
    },
    {
      "channel": 5,
      "note": 112,
      "start": 43.2078,
      "duration": 0.2658,
      "velocity": 108,
      "chip": "ym2612"
    },
    {
      "channel": 3,
      "note": 63,
      "start": 43.3083,
      "duration": 0.0817,
      "velocity": 99,
      "chip": "ym2612"
    },
    {
      "channel": 0,
      "note": 53,
      "start": 43.3895,
      "duration": 0.2828,
      "velocity": 117,
      "chip": "ym2612"
    },
    {
      "channel": 3,
      "note": 65,
      "start": 43.3902,
      "duration": 0.0823,
      "velocity": 99,
      "chip": "ym2612"
    },
    {
      "channel": 4,
      "note": 58,
      "start": 43.3907,
      "duration": 0.0823,
      "velocity": 99,
      "chip": "ym2612"
    },
    {
      "channel": 3,
      "note": 68,
      "start": 43.4726,
      "duration": 0.3832,
      "velocity": 99,
      "chip": "ym2612"
    },
    {
      "channel": 4,
      "note": 68,
      "start": 43.4732,
      "duration": 0.0993,
      "velocity": 99,
      "chip": "ym2612"
    },
    {
      "channel": 5,
      "note": 108,
      "start": 43.4738,
      "duration": 0.0993,
      "velocity": 108,
      "chip": "ym2612"
    },
    {
      "channel": 4,
      "note": 70,
      "start": 43.5726,
      "duration": 0.1041,
      "velocity": 99,
      "chip": "ym2612"
    },
    {
      "channel": 5,
      "note": 110,
      "start": 43.5732,
      "duration": 0.1828,
      "velocity": 108,
      "chip": "ym2612"
    },
    {
      "channel": 0,
      "note": 56,
      "start": 43.6724,
      "duration": 0.5662,
      "velocity": 117,
      "chip": "ym2612"
    },
    {
      "channel": 2,
      "note": 73,
      "start": 43.6763,
      "duration": 0.7457,
      "velocity": 87,
      "chip": "ym2612"
    },
    {
      "channel": 4,
      "note": 56,
      "start": 43.6769,
      "duration": 0.1795,
      "velocity": 99,
      "chip": "ym2612"
    },
    {
      "channel": 5,
      "note": 112,
      "start": 43.7562,
      "duration": 0.1008,
      "velocity": 108,
      "chip": "ym2612"
    },
    {
      "channel": 3,
      "note": 68,
      "start": 43.856,
      "duration": 0.202,
      "velocity": 99,
      "chip": "ym2612"
    },
    {
      "channel": 4,
      "note": 58,
      "start": 43.8566,
      "duration": 0.202,
      "velocity": 99,
      "chip": "ym2612"
    },
    {
      "channel": 5,
      "note": 110,
      "start": 43.8571,
      "duration": 0.0988,
      "velocity": 108,
      "chip": "ym2612"
    },
    {
      "channel": 5,
      "note": 108,
      "start": 43.9561,
      "duration": 0.1839,
      "velocity": 108,
      "chip": "ym2612"
    },
    {
      "channel": 1,
      "note": 73,
      "start": 44.0575,
      "duration": 0.7473,
      "velocity": 97,
      "chip": "ym2612"
    },
    {
      "channel": 3,
      "note": 67,
      "start": 44.0581,
      "duration": 0.0807,
      "velocity": 99,
      "chip": "ym2612"
    },
    {
      "channel": 4,
      "note": 61,
      "start": 44.0587,
      "duration": 0.0807,
      "velocity": 99,
      "chip": "ym2612"
    },
    {
      "channel": 3,
      "note": 63,
      "start": 44.139,
      "duration": 0.2835,
      "velocity": 99,
      "chip": "ym2612"
    },
    {
      "channel": 4,
      "note": 63,
      "start": 44.1396,
      "duration": 0.0998,
      "velocity": 99,
      "chip": "ym2612"
    },
    {
      "channel": 5,
      "note": 110,
      "start": 44.1402,
      "duration": 0.182,
      "velocity": 108,
      "chip": "ym2612"
    },
    {
      "channel": 0,
      "note": 56,
      "start": 44.2388,
      "duration": 0.3829,
      "velocity": 117,
      "chip": "ym2612"
    },
    {
      "channel": 4,
      "note": 58,
      "start": 44.2396,
      "duration": 0.1835,
      "velocity": 99,
      "chip": "ym2612"
    },
    {
      "channel": 5,
      "note": 108,
      "start": 44.3223,
      "duration": 0.1014,
      "velocity": 108,
      "chip": "ym2612"
    },
    {
      "channel": 2,
      "note": 70,
      "start": 44.4222,
      "duration": 0.7492,
      "velocity": 87,
      "chip": "ym2612"
    },
    {
      "channel": 3,
      "note": 65,
      "start": 44.4227,
      "duration": 0.2822,
      "velocity": 99,
      "chip": "ym2612"
    },
    {
      "channel": 4,
      "note": 65,
      "start": 44.4233,
      "duration": 0.1992,
      "velocity": 99,
      "chip": "ym2612"
    },
    {
      "channel": 5,
      "note": 110,
      "start": 44.4239,
      "duration": 0.0983,
      "velocity": 108,
      "chip": "ym2612"
    },
    {
      "channel": 5,
      "note": 112,
      "start": 44.5224,
      "duration": 0.1837,
      "velocity": 108,
      "chip": "ym2612"
    },
    {
      "channel": 0,
      "note": 56,
      "start": 44.622,
      "duration": 0.2655,
      "velocity": 117,
      "chip": "ym2612"
    },
    {
      "channel": 4,
      "note": 58,
      "start": 44.6227,
      "duration": 0.0827,
      "velocity": 99,
      "chip": "ym2612"
    },
    {
      "channel": 3,
      "note": 58,
      "start": 44.7051,
      "duration": 0.1003,
      "velocity": 99,
      "chip": "ym2612"
    },
    {
      "channel": 4,
      "note": 68,
      "start": 44.7057,
      "duration": 0.1831,
      "velocity": 99,
      "chip": "ym2612"
    },
    {
      "channel": 5,
      "note": 110,
      "start": 44.7063,
      "duration": 0.2658,
      "velocity": 108,
      "chip": "ym2612"
    },
    {
      "channel": 1,
      "note": 70,
      "start": 44.805,
      "duration": 0.749,
      "velocity": 97,
      "chip": "ym2612"
    },
    {
      "channel": 3,
      "note": 63,
      "start": 44.8056,
      "duration": 0.0826,
      "velocity": 99,
      "chip": "ym2612"
    },
    {
      "channel": 0,
      "note": 53,
      "start": 44.8877,
      "duration": 0.283,
      "velocity": 117,
      "chip": "ym2612"
    },
    {
      "channel": 3,
      "note": 65,
      "start": 44.8884,
      "duration": 0.0825,
      "velocity": 99,
      "chip": "ym2612"
    },
    {
      "channel": 4,
      "note": 63,
      "start": 44.889,
      "duration": 0.0825,
      "velocity": 99,
      "chip": "ym2612"
    },
    {
      "channel": 3,
      "note": 68,
      "start": 44.9711,
      "duration": 0.0998,
      "velocity": 99,
      "chip": "ym2612"
    },
    {
      "channel": 4,
      "note": 65,
      "start": 44.9717,
      "duration": 0.0998,
      "velocity": 99,
      "chip": "ym2612"
    },
    {
      "channel": 5,
      "note": 112,
      "start": 44.9723,
      "duration": 0.0998,
      "velocity": 108,
      "chip": "ym2612"
    },
    {
      "channel": 3,
      "note": 70,
      "start": 45.071,
      "duration": 0.2832,
      "velocity": 99,
      "chip": "ym2612"
    },
    {
      "channel": 4,
      "note": 68,
      "start": 45.0716,
      "duration": 0.1004,
      "velocity": 99,
      "chip": "ym2612"
    },
    {
      "channel": 5,
      "note": 108,
      "start": 45.0722,
      "duration": 0.1821,
      "velocity": 108,
      "chip": "ym2612"
    },
    {
      "channel": 0,
      "note": 51,
      "start": 45.1709,
      "duration": 0.5658,
      "velocity": 117,
      "chip": "ym2612"
    },
    {
      "channel": 2,
      "note": 75,
      "start": 45.1716,
      "duration": 0.1844,
      "velocity": 87,
      "chip": "ym2612"
    },
    {
      "channel": 4,
      "note": 56,
      "start": 45.1722,
      "duration": 0.1827,
      "velocity": 99,
      "chip": "ym2612"
    },
    {
      "channel": 5,
      "note": 110,
      "start": 45.2545,
      "duration": 0.101,
      "velocity": 108,
      "chip": "ym2612"
    },
    {
      "channel": 3,
      "note": 68,
      "start": 45.3544,
      "duration": 0.2008,
      "velocity": 99,
      "chip": "ym2612"
    },
    {
      "channel": 4,
      "note": 58,
      "start": 45.355,
      "duration": 0.2008,
      "velocity": 99,
      "chip": "ym2612"
    },
    {
      "channel": 5,
      "note": 112,
      "start": 45.3556,
      "duration": 0.0987,
      "velocity": 108,
      "chip": "ym2612"
    },
    {
      "channel": 2,
      "note": 75,
      "start": 45.356,
      "duration": 0.0143,
      "velocity": 87,
      "chip": "ym2612"
    },
    {
      "channel": 2,
      "note": 75,
      "start": 45.3703,
      "duration": 0.0333,
      "velocity": 87,
      "chip": "ym2612"
    },
    {
      "channel": 2,
      "note": 75,
      "start": 45.4036,
      "duration": 0.0167,
      "velocity": 87,
      "chip": "ym2612"
    },
    {
      "channel": 2,
      "note": 76,
      "start": 45.4203,
      "duration": 0.0167,
      "velocity": 87,
      "chip": "ym2612"
    },
    {
      "channel": 2,
      "note": 76,
      "start": 45.437,
      "duration": 0.0179,
      "velocity": 87,
      "chip": "ym2612"
    },
    {
      "channel": 5,
      "note": 108,
      "start": 45.4545,
      "duration": 0.1836,
      "velocity": 108,
      "chip": "ym2612"
    },
    {
      "channel": 2,
      "note": 76,
      "start": 45.4549,
      "duration": 0.0154,
      "velocity": 87,
      "chip": "ym2612"
    },
    {
      "channel": 2,
      "note": 76,
      "start": 45.4703,
      "duration": 0.0333,
      "velocity": 87,
      "chip": "ym2612"
    },
    {
      "channel": 2,
      "note": 76,
      "start": 45.5036,
      "duration": 0.0167,
      "velocity": 87,
      "chip": "ym2612"
    },
    {
      "channel": 2,
      "note": 76,
      "start": 45.5203,
      "duration": 0.0167,
      "velocity": 87,
      "chip": "ym2612"
    },
    {
      "channel": 2,
      "note": 76,
      "start": 45.537,
      "duration": 0.0176,
      "velocity": 87,
      "chip": "ym2612"
    },
    {
      "channel": 1,
      "note": 75,
      "start": 45.5542,
      "duration": 0.1843,
      "velocity": 97,
      "chip": "ym2612"
    },
    {
      "channel": 2,
      "note": 77,
      "start": 45.5548,
      "duration": 1.8646,
      "velocity": 87,
      "chip": "ym2612"
    },
    {
      "channel": 3,
      "note": 67,
      "start": 45.5554,
      "duration": 0.0815,
      "velocity": 99,
      "chip": "ym2612"
    },
    {
      "channel": 4,
      "note": 61,
      "start": 45.5559,
      "duration": 0.0815,
      "velocity": 99,
      "chip": "ym2612"
    },
    {
      "channel": 3,
      "note": 63,
      "start": 45.6371,
      "duration": 0.2832,
      "velocity": 99,
      "chip": "ym2612"
    },
    {
      "channel": 4,
      "note": 63,
      "start": 45.6376,
      "duration": 0.1,
      "velocity": 99,
      "chip": "ym2612"
    },
    {
      "channel": 5,
      "note": 110,
      "start": 45.6382,
      "duration": 0.1816,
      "velocity": 108,
      "chip": "ym2612"
    },
    {
      "channel": 0,
      "note": 51,
      "start": 45.7369,
      "duration": 0.3826,
      "velocity": 117,
      "chip": "ym2612"
    },
    {
      "channel": 4,
      "note": 58,
      "start": 45.7378,
      "duration": 0.183,
      "velocity": 99,
      "chip": "ym2612"
    },
    {
      "channel": 1,
      "note": 75,
      "start": 45.7385,
      "duration": 0.0119,
      "velocity": 97,
      "chip": "ym2612"
    },
    {
      "channel": 1,
      "note": 75,
      "start": 45.7504,
      "duration": 0.0271,
      "velocity": 97,
      "chip": "ym2612"
    },
    {
      "channel": 1,
      "note": 75,
      "start": 45.7775,
      "duration": 0.0136,
      "velocity": 97,
      "chip": "ym2612"
    },
    {
      "channel": 1,
      "note": 76,
      "start": 45.7911,
      "duration": 0.0136,
      "velocity": 97,
      "chip": "ym2612"
    },
    {
      "channel": 1,
      "note": 76,
      "start": 45.8048,
      "duration": 0.0156,
      "velocity": 97,
      "chip": "ym2612"
    },
    {
      "channel": 5,
      "note": 112,
      "start": 45.8201,
      "duration": 0.1013,
      "velocity": 108,
      "chip": "ym2612"
    },
    {
      "channel": 1,
      "note": 76,
      "start": 45.8204,
      "duration": 0.0155,
      "velocity": 97,
      "chip": "ym2612"
    },
    {
      "channel": 1,
      "note": 76,
      "start": 45.8359,
      "duration": 0.0333,
      "velocity": 97,
      "chip": "ym2612"
    },
    {
      "channel": 1,
      "note": 76,
      "start": 45.8692,
      "duration": 0.0167,
      "velocity": 97,
      "chip": "ym2612"
    },
    {
      "channel": 1,
      "note": 76,
      "start": 45.8859,
      "duration": 0.0167,
      "velocity": 97,
      "chip": "ym2612"
    },
    {
      "channel": 1,
      "note": 76,
      "start": 45.9025,
      "duration": 0.0171,
      "velocity": 97,
      "chip": "ym2612"
    },
    {
      "channel": 1,
      "note": 77,
      "start": 45.9198,
      "duration": 1.867,
      "velocity": 97,
      "chip": "ym2612"
    },
    {
      "channel": 3,
      "note": 65,
      "start": 45.9204,
      "duration": 0.2822,
      "velocity": 99,
      "chip": "ym2612"
    },
    {
      "channel": 4,
      "note": 65,
      "start": 45.921,
      "duration": 0.1993,
      "velocity": 99,
      "chip": "ym2612"
    },
    {
      "channel": 5,
      "note": 110,
      "start": 45.9216,
      "duration": 0.0983,
      "velocity": 108,
      "chip": "ym2612"
    },
    {
      "channel": 5,
      "note": 108,
      "start": 46.0201,
      "duration": 0.1837,
      "velocity": 108,
      "chip": "ym2612"
    },
    {
      "channel": 0,
      "note": 51,
      "start": 46.1197,
      "duration": 0.2656,
      "velocity": 117,
      "chip": "ym2612"
    },
    {
      "channel": 4,
      "note": 58,
      "start": 46.1205,
      "duration": 0.0827,
      "velocity": 99,
      "chip": "ym2612"
    },
    {
      "channel": 3,
      "note": 58,
      "start": 46.2028,
      "duration": 0.0998,
      "velocity": 99,
      "chip": "ym2612"
    },
    {
      "channel": 4,
      "note": 68,
      "start": 46.2034,
      "duration": 0.1832,
      "velocity": 99,
      "chip": "ym2612"
    },
    {
      "channel": 5,
      "note": 110,
      "start": 46.204,
      "duration": 0.2657,
      "velocity": 108,
      "chip": "ym2612"
    },
    {
      "channel": 3,
      "note": 63,
      "start": 46.3027,
      "duration": 0.0832,
      "velocity": 99,
      "chip": "ym2612"
    },
    {
      "channel": 0,
      "note": 51,
      "start": 46.3855,
      "duration": 0.2829,
      "velocity": 117,
      "chip": "ym2612"
    },
    {
      "channel": 3,
      "note": 65,
      "start": 46.3862,
      "duration": 0.0824,
      "velocity": 99,
      "chip": "ym2612"
    },
    {
      "channel": 4,
      "note": 65,
      "start": 46.3867,
      "duration": 0.0824,
      "velocity": 99,
      "chip": "ym2612"
    },
    {
      "channel": 3,
      "note": 68,
      "start": 46.4688,
      "duration": 0.3827,
      "velocity": 99,
      "chip": "ym2612"
    },
    {
      "channel": 4,
      "note": 68,
      "start": 46.4693,
      "duration": 0.0993,
      "velocity": 99,
      "chip": "ym2612"
    },
    {
      "channel": 5,
      "note": 108,
      "start": 46.4699,
      "duration": 0.0993,
      "velocity": 108,
      "chip": "ym2612"
    },
    {
      "channel": 4,
      "note": 70,
      "start": 46.5688,
      "duration": 0.1003,
      "velocity": 99,
      "chip": "ym2612"
    },
    {
      "channel": 5,
      "note": 110,
      "start": 46.5693,
      "duration": 0.1823,
      "velocity": 108,
      "chip": "ym2612"
    },
    {
      "channel": 0,
      "note": 54,
      "start": 46.6685,
      "duration": 0.5657,
      "velocity": 117,
      "chip": "ym2612"
    },
    {
      "channel": 4,
      "note": 56,
      "start": 46.6693,
      "duration": 0.1828,
      "velocity": 99,
      "chip": "ym2612"
    },
    {
      "channel": 5,
      "note": 112,
      "start": 46.7518,
      "duration": 0.1009,
      "velocity": 108,
      "chip": "ym2612"
    },
    {
      "channel": 3,
      "note": 68,
      "start": 46.8517,
      "duration": 0.1998,
      "velocity": 99,
      "chip": "ym2612"
    },
    {
      "channel": 4,
      "note": 58,
      "start": 46.8522,
      "duration": 0.1998,
      "velocity": 99,
      "chip": "ym2612"
    },
    {
      "channel": 5,
      "note": 110,
      "start": 46.8528,
      "duration": 0.0988,
      "velocity": 108,
      "chip": "ym2612"
    },
    {
      "channel": 5,
      "note": 112,
      "start": 46.9518,
      "duration": 0.1837,
      "velocity": 108,
      "chip": "ym2612"
    },
    {
      "channel": 3,
      "note": 67,
      "start": 47.0517,
      "duration": 0.0827,
      "velocity": 99,
      "chip": "ym2612"
    },
    {
      "channel": 4,
      "note": 61,
      "start": 47.0522,
      "duration": 0.0827,
      "velocity": 99,
      "chip": "ym2612"
    },
    {
      "channel": 3,
      "note": 63,
      "start": 47.1345,
      "duration": 0.2832,
      "velocity": 99,
      "chip": "ym2612"
    },
    {
      "channel": 4,
      "note": 63,
      "start": 47.1351,
      "duration": 0.0999,
      "velocity": 99,
      "chip": "ym2612"
    },
    {
      "channel": 5,
      "note": 108,
      "start": 47.1357,
      "duration": 0.182,
      "velocity": 108,
      "chip": "ym2612"
    },
    {
      "channel": 0,
      "note": 54,
      "start": 47.2344,
      "duration": 0.383,
      "velocity": 117,
      "chip": "ym2612"
    },
    {
      "channel": 4,
      "note": 58,
      "start": 47.2351,
      "duration": 0.1832,
      "velocity": 99,
      "chip": "ym2612"
    },
    {
      "channel": 5,
      "note": 110,
      "start": 47.3178,
      "duration": 0.101,
      "velocity": 108,
      "chip": "ym2612"
    },
    {
      "channel": 3,
      "note": 65,
      "start": 47.4178,
      "duration": 0.0998,
      "velocity": 99,
      "chip": "ym2612"
    },
    {
      "channel": 4,
      "note": 65,
      "start": 47.4184,
      "duration": 0.0998,
      "velocity": 99,
      "chip": "ym2612"
    },
    {
      "channel": 5,
      "note": 108,
      "start": 47.419,
      "duration": 0.0997,
      "velocity": 108,
      "chip": "ym2612"
    },
    {
      "channel": 2,
      "note": 77,
      "start": 47.4194,
      "duration": 0.0143,
      "velocity": 87,
      "chip": "ym2612"
    },
    {
      "channel": 2,
      "note": 77,
      "start": 47.4337,
      "duration": 0.0333,
      "velocity": 87,
      "chip": "ym2612"
    },
    {
      "channel": 2,
      "note": 77,
      "start": 47.4671,
      "duration": 0.0167,
      "velocity": 87,
      "chip": "ym2612"
    },
    {
      "channel": 2,
      "note": 76,
      "start": 47.4837,
      "duration": 0.0167,
      "velocity": 87,
      "chip": "ym2612"
    },
    {
      "channel": 2,
      "note": 76,
      "start": 47.5004,
      "duration": 0.0189,
      "velocity": 87,
      "chip": "ym2612"
    },
    {
      "channel": 3,
      "note": 63,
      "start": 47.5178,
      "duration": 0.1003,
      "velocity": 99,
      "chip": "ym2612"
    },
    {
      "channel": 4,
      "note": 56,
      "start": 47.5183,
      "duration": 0.1003,
      "velocity": 99,
      "chip": "ym2612"
    },
    {
      "channel": 5,
      "note": 112,
      "start": 47.5189,
      "duration": 0.4317,
      "velocity": 108,
      "chip": "ym2612"
    },
    {
      "channel": 2,
      "note": 76,
      "start": 47.5193,
      "duration": 0.0144,
      "velocity": 87,
      "chip": "ym2612"
    },
    {
      "channel": 2,
      "note": 76,
      "start": 47.5337,
      "duration": 0.0333,
      "velocity": 87,
      "chip": "ym2612"
    },
    {
      "channel": 2,
      "note": 76,
      "start": 47.5671,
      "duration": 0.0167,
      "velocity": 87,
      "chip": "ym2612"
    },
    {
      "channel": 2,
      "note": 76,
      "start": 47.5837,
      "duration": 0.0167,
      "velocity": 87,
      "chip": "ym2612"
    },
    {
      "channel": 2,
      "note": 76,
      "start": 47.6004,
      "duration": 0.0192,
      "velocity": 87,
      "chip": "ym2612"
    },
    {
      "channel": 0,
      "note": 54,
      "start": 47.6176,
      "duration": 0.2487,
      "velocity": 117,
      "chip": "ym2612"
    },
    {
      "channel": 3,
      "note": 61,
      "start": 47.6183,
      "duration": 0.0826,
      "velocity": 99,
      "chip": "ym2612"
    },
    {
      "channel": 4,
      "note": 58,
      "start": 47.6189,
      "duration": 0.0826,
      "velocity": 99,
      "chip": "ym2612"
    },
    {
      "channel": 2,
      "note": 75,
      "start": 47.6196,
      "duration": 0.0116,
      "velocity": 87,
      "chip": "ym2612"
    },
    {
      "channel": 2,
      "note": 75,
      "start": 47.6313,
      "duration": 0.0273,
      "velocity": 87,
      "chip": "ym2612"
    },
    {
      "channel": 2,
      "note": 75,
      "start": 47.6585,
      "duration": 0.0136,
      "velocity": 87,
      "chip": "ym2612"
    },
    {
      "channel": 2,
      "note": 75,
      "start": 47.6722,
      "duration": 0.0137,
      "velocity": 87,
      "chip": "ym2612"
    },
    {
      "channel": 2,
      "note": 75,
      "start": 47.6859,
      "duration": 0.4674,
      "velocity": 87,
      "chip": "ym2612"
    },
    {
      "channel": 3,
      "note": 58,
      "start": 47.7011,
      "duration": 0.0843,
      "velocity": 99,
      "chip": "ym2612"
    },
    {
      "channel": 4,
      "note": 63,
      "start": 47.7017,
      "duration": 0.0843,
      "velocity": 99,
      "chip": "ym2612"
    },
    {
      "channel": 3,
      "note": 63,
      "start": 47.7856,
      "duration": 0.0814,
      "velocity": 99,
      "chip": "ym2612"
    },
    {
      "channel": 4,
      "note": 68,
      "start": 47.7861,
      "duration": 0.0814,
      "velocity": 99,
      "chip": "ym2612"
    },
    {
      "channel": 1,
      "note": 77,
      "start": 47.7868,
      "duration": 0.0106,
      "velocity": 97,
      "chip": "ym2612"
    },
    {
      "channel": 1,
      "note": 77,
      "start": 47.7975,
      "duration": 0.0274,
      "velocity": 97,
      "chip": "ym2612"
    },
    {
      "channel": 1,
      "note": 77,
      "start": 47.8249,
      "duration": 0.0136,
      "velocity": 97,
      "chip": "ym2612"
    },
    {
      "channel": 1,
      "note": 76,
      "start": 47.8384,
      "duration": 0.0137,
      "velocity": 97,
      "chip": "ym2612"
    },
    {
      "channel": 1,
      "note": 76,
      "start": 47.8521,
      "duration": 0.0164,
      "velocity": 97,
      "chip": "ym2612"
    },
    {
      "channel": 0,
      "note": 54,
      "start": 47.8665,
      "duration": 0.283,
      "velocity": 117,
      "chip": "ym2612"
    },
    {
      "channel": 3,
      "note": 65,
      "start": 47.8671,
      "duration": 0.0824,
      "velocity": 99,
      "chip": "ym2612"
    },
    {
      "channel": 4,
      "note": 70,
      "start": 47.8677,
      "duration": 0.0824,
      "velocity": 99,
      "chip": "ym2612"
    },
    {
      "channel": 1,
      "note": 76,
      "start": 47.8685,
      "duration": 0.0116,
      "velocity": 97,
      "chip": "ym2612"
    },
    {
      "channel": 1,
      "note": 76,
      "start": 47.88,
      "duration": 0.0274,
      "velocity": 97,
      "chip": "ym2612"
    },
    {
      "channel": 1,
      "note": 76,
      "start": 47.9074,
      "duration": 0.0136,
      "velocity": 97,
      "chip": "ym2612"
    },
    {
      "channel": 1,
      "note": 76,
      "start": 47.921,
      "duration": 0.0136,
      "velocity": 97,
      "chip": "ym2612"
    },
    {
      "channel": 1,
      "note": 76,
      "start": 47.9346,
      "duration": 0.0167,
      "velocity": 97,
      "chip": "ym2612"
    },
    {
      "channel": 3,
      "note": 68,
      "start": 47.9497,
      "duration": 0.3835,
      "velocity": 99,
      "chip": "ym2612"
    },
    {
      "channel": 4,
      "note": 73,
      "start": 47.9503,
      "duration": 0.101,
      "velocity": 99,
      "chip": "ym2612"
    },
    {
      "channel": 5,
      "note": 110,
      "start": 47.9509,
      "duration": 0.101,
      "velocity": 108,
      "chip": "ym2612"
    },
    {
      "channel": 1,
      "note": 75,
      "start": 47.9513,
      "duration": 0.0144,
      "velocity": 97,
      "chip": "ym2612"
    },
    {
      "channel": 1,
      "note": 75,
      "start": 47.9656,
      "duration": 0.0333,
      "velocity": 97,
      "chip": "ym2612"
    },
    {
      "channel": 1,
      "note": 75,
      "start": 47.999,
      "duration": 0.0167,
      "velocity": 97,
      "chip": "ym2612"
    },
    {
      "channel": 1,
      "note": 75,
      "start": 48.0156,
      "duration": 0.0167,
      "velocity": 97,
      "chip": "ym2612"
    },
    {
      "channel": 1,
      "note": 75,
      "start": 48.0323,
      "duration": 0.5019,
      "velocity": 97,
      "chip": "ym2612"
    },
    {
      "channel": 4,
      "note": 75,
      "start": 48.0515,
      "duration": 0.1041,
      "velocity": 99,
      "chip": "ym2612"
    },
    {
      "channel": 5,
      "note": 111,
      "start": 48.052,
      "duration": 0.1809,
      "velocity": 108,
      "chip": "ym2612"
    },
    {
      "channel": 0,
      "note": 58,
      "start": 48.1497,
      "duration": 0.5657,
      "velocity": 117,
      "chip": "ym2612"
    },
    {
      "channel": 2,
      "note": 75,
      "start": 48.1534,
      "duration": 0.1792,
      "velocity": 87,
      "chip": "ym2612"
    },
    {
      "channel": 4,
      "note": 56,
      "start": 48.1557,
      "duration": 0.1781,
      "velocity": 99,
      "chip": "ym2612"
    },
    {
      "channel": 5,
      "note": 110,
      "start": 48.2331,
      "duration": 0.1013,
      "velocity": 108,
      "chip": "ym2612"
    },
    {
      "channel": 2,
      "note": 70,
      "start": 48.3328,
      "duration": 0.2019,
      "velocity": 87,
      "chip": "ym2612"
    },
    {
      "channel": 3,
      "note": 68,
      "start": 48.3334,
      "duration": 0.2019,
      "velocity": 99,
      "chip": "ym2612"
    },
    {
      "channel": 4,
      "note": 58,
      "start": 48.334,
      "duration": 0.2018,
      "velocity": 99,
      "chip": "ym2612"
    },
    {
      "channel": 5,
      "note": 112,
      "start": 48.3346,
      "duration": 0.0982,
      "velocity": 108,
      "chip": "ym2612"
    },
    {
      "channel": 5,
      "note": 108,
      "start": 48.433,
      "duration": 0.1837,
      "velocity": 108,
      "chip": "ym2612"
    },
    {
      "channel": 1,
      "note": 75,
      "start": 48.5344,
      "duration": 0.1816,
      "velocity": 97,
      "chip": "ym2612"
    },
    {
      "channel": 2,
      "note": 76,
      "start": 48.5349,
      "duration": 0.1816,
      "velocity": 87,
      "chip": "ym2612"
    },
    {
      "channel": 3,
      "note": 67,
      "start": 48.5355,
      "duration": 0.08,
      "velocity": 99,
      "chip": "ym2612"
    },
    {
      "channel": 4,
      "note": 61,
      "start": 48.5361,
      "duration": 0.08,
      "velocity": 99,
      "chip": "ym2612"
    },
    {
      "channel": 3,
      "note": 63,
      "start": 48.6157,
      "duration": 0.2833,
      "velocity": 99,
      "chip": "ym2612"
    },
    {
      "channel": 4,
      "note": 63,
      "start": 48.6163,
      "duration": 0.1008,
      "velocity": 99,
      "chip": "ym2612"
    },
    {
      "channel": 5,
      "note": 110,
      "start": 48.6168,
      "duration": 0.1818,
      "velocity": 108,
      "chip": "ym2612"
    },
    {
      "channel": 0,
      "note": 58,
      "start": 48.7156,
      "duration": 0.3827,
      "velocity": 117,
      "chip": "ym2612"
    },
    {
      "channel": 1,
      "note": 70,
      "start": 48.7161,
      "duration": 0.1822,
      "velocity": 97,
      "chip": "ym2612"
    },
    {
      "channel": 2,
      "note": 77,
      "start": 48.7166,
      "duration": 0.3828,
      "velocity": 87,
      "chip": "ym2612"
    },
    {
      "channel": 4,
      "note": 58,
      "start": 48.7173,
      "duration": 0.1822,
      "velocity": 99,
      "chip": "ym2612"
    },
    {
      "channel": 5,
      "note": 112,
      "start": 48.7988,
      "duration": 0.1013,
      "velocity": 108,
      "chip": "ym2612"
    },
    {
      "channel": 1,
      "note": 76,
      "start": 48.8985,
      "duration": 0.2003,
      "velocity": 97,
      "chip": "ym2612"
    },
    {
      "channel": 3,
      "note": 65,
      "start": 48.8992,
      "duration": 0.2825,
      "velocity": 99,
      "chip": "ym2612"
    },
    {
      "channel": 4,
      "note": 63,
      "start": 48.8997,
      "duration": 0.2003,
      "velocity": 99,
      "chip": "ym2612"
    },
    {
      "channel": 5,
      "note": 108,
      "start": 48.9003,
      "duration": 0.0983,
      "velocity": 108,
      "chip": "ym2612"
    },
    {
      "channel": 5,
      "note": 110,
      "start": 48.9988,
      "duration": 0.184,
      "velocity": 108,
      "chip": "ym2612"
    },
    {
      "channel": 0,
      "note": 58,
      "start": 49.0985,
      "duration": 0.2657,
      "velocity": 117,
      "chip": "ym2612"
    },
    {
      "channel": 1,
      "note": 77,
      "start": 49.099,
      "duration": 0.3485,
      "velocity": 97,
      "chip": "ym2612"
    },
    {
      "channel": 2,
      "note": 73,
      "start": 49.0996,
      "duration": 0.182,
      "velocity": 87,
      "chip": "ym2612"
    },
    {
      "channel": 4,
      "note": 58,
      "start": 49.1002,
      "duration": 0.082,
      "velocity": 99,
      "chip": "ym2612"
    },
    {
      "channel": 3,
      "note": 58,
      "start": 49.1819,
      "duration": 0.1002,
      "velocity": 99,
      "chip": "ym2612"
    },
    {
      "channel": 4,
      "note": 65,
      "start": 49.1824,
      "duration": 0.183,
      "velocity": 99,
      "chip": "ym2612"
    },
    {
      "channel": 5,
      "note": 112,
      "start": 49.183,
      "duration": 0.2668,
      "velocity": 108,
      "chip": "ym2612"
    },
    {
      "channel": 2,
      "note": 70,
      "start": 49.2817,
      "duration": 0.1663,
      "velocity": 87,
      "chip": "ym2612"
    },
    {
      "channel": 3,
      "note": 63,
      "start": 49.2823,
      "duration": 0.0826,
      "velocity": 99,
      "chip": "ym2612"
    },
    {
      "channel": 0,
      "note": 53,
      "start": 49.3644,
      "duration": 0.283,
      "velocity": 117,
      "chip": "ym2612"
    },
    {
      "channel": 3,
      "note": 65,
      "start": 49.3651,
      "duration": 0.0835,
      "velocity": 99,
      "chip": "ym2612"
    },
    {
      "channel": 4,
      "note": 58,
      "start": 49.3657,
      "duration": 0.0836,
      "velocity": 99,
      "chip": "ym2612"
    },
    {
      "channel": 1,
      "note": 73,
      "start": 49.4477,
      "duration": 0.2003,
      "velocity": 97,
      "chip": "ym2612"
    },
    {
      "channel": 2,
      "note": 65,
      "start": 49.4483,
      "duration": 0.2002,
      "velocity": 87,
      "chip": "ym2612"
    },
    {
      "channel": 3,
      "note": 68,
      "start": 49.4488,
      "duration": 0.383,
      "velocity": 99,
      "chip": "ym2612"
    },
    {
      "channel": 4,
      "note": 68,
      "start": 49.4493,
      "duration": 0.0983,
      "velocity": 99,
      "chip": "ym2612"
    },
    {
      "channel": 5,
      "note": 108,
      "start": 49.45,
      "duration": 0.0983,
      "velocity": 108,
      "chip": "ym2612"
    },
    {
      "channel": 4,
      "note": 70,
      "start": 49.5478,
      "duration": 0.1013,
      "velocity": 99,
      "chip": "ym2612"
    },
    {
      "channel": 5,
      "note": 110,
      "start": 49.5484,
      "duration": 0.183,
      "velocity": 108,
      "chip": "ym2612"
    },
    {
      "channel": 0,
      "note": 56,
      "start": 49.6476,
      "duration": 0.5658,
      "velocity": 117,
      "chip": "ym2612"
    },
    {
      "channel": 1,
      "note": 70,
      "start": 49.6481,
      "duration": 0.1824,
      "velocity": 97,
      "chip": "ym2612"
    },
    {
      "channel": 2,
      "note": 68,
      "start": 49.6487,
      "duration": 0.082,
      "velocity": 87,
      "chip": "ym2612"
    },
    {
      "channel": 4,
      "note": 56,
      "start": 49.6493,
      "duration": 0.183,
      "velocity": 99,
      "chip": "ym2612"
    },
    {
      "channel": 2,
      "note": 70,
      "start": 49.7308,
      "duration": 0.1003,
      "velocity": 87,
      "chip": "ym2612"
    },
    {
      "channel": 5,
      "note": 112,
      "start": 49.7315,
      "duration": 0.1014,
      "velocity": 108,
      "chip": "ym2612"
    },
    {
      "channel": 1,
      "note": 65,
      "start": 49.8308,
      "duration": 0.1998,
      "velocity": 97,
      "chip": "ym2612"
    },
    {
      "channel": 2,
      "note": 68,
      "start": 49.8314,
      "duration": 0.0993,
      "velocity": 87,
      "chip": "ym2612"
    },
    {
      "channel": 3,
      "note": 68,
      "start": 49.8319,
      "duration": 0.1998,
      "velocity": 99,
      "chip": "ym2612"
    },
    {
      "channel": 4,
      "note": 58,
      "start": 49.8325,
      "duration": 0.1998,
      "velocity": 99,
      "chip": "ym2612"
    },
    {
      "channel": 5,
      "note": 110,
      "start": 49.8331,
      "duration": 0.0983,
      "velocity": 108,
      "chip": "ym2612"
    },
    {
      "channel": 2,
      "note": 70,
      "start": 49.9308,
      "duration": 0.1003,
      "velocity": 87,
      "chip": "ym2612"
    },
    {
      "channel": 5,
      "note": 108,
      "start": 49.9315,
      "duration": 0.1841,
      "velocity": 108,
      "chip": "ym2612"
    },
    {
      "channel": 1,
      "note": 68,
      "start": 50.0308,
      "duration": 0.0825,
      "velocity": 97,
      "chip": "ym2612"
    },
    {
      "channel": 2,
      "note": 65,
      "start": 50.0314,
      "duration": 0.0825,
      "velocity": 87,
      "chip": "ym2612"
    },
    {
      "channel": 3,
      "note": 67,
      "start": 50.0319,
      "duration": 0.0826,
      "velocity": 99,
      "chip": "ym2612"
    },
    {
      "channel": 4,
      "note": 61,
      "start": 50.0325,
      "duration": 0.0826,
      "velocity": 99,
      "chip": "ym2612"
    },
    {
      "channel": 1,
      "note": 70,
      "start": 50.1135,
      "duration": 0.1004,
      "velocity": 97,
      "chip": "ym2612"
    },
    {
      "channel": 2,
      "note": 68,
      "start": 50.1141,
      "duration": 0.1004,
      "velocity": 87,
      "chip": "ym2612"
    },
    {
      "channel": 3,
      "note": 63,
      "start": 50.1147,
      "duration": 0.2828,
      "velocity": 99,
      "chip": "ym2612"
    },
    {
      "channel": 4,
      "note": 63,
      "start": 50.1152,
      "duration": 0.0998,
      "velocity": 99,
      "chip": "ym2612"
    },
    {
      "channel": 5,
      "note": 110,
      "start": 50.1158,
      "duration": 0.1817,
      "velocity": 108,
      "chip": "ym2612"
    },
    {
      "channel": 0,
      "note": 56,
      "start": 50.2135,
      "duration": 0.3827,
      "velocity": 117,
      "chip": "ym2612"
    },
    {
      "channel": 1,
      "note": 68,
      "start": 50.214,
      "duration": 0.0822,
      "velocity": 97,
      "chip": "ym2612"
    },
    {
      "channel": 2,
      "note": 65,
      "start": 50.2146,
      "duration": 0.0822,
      "velocity": 87,
      "chip": "ym2612"
    },
    {
      "channel": 4,
      "note": 58,
      "start": 50.2152,
      "duration": 0.1828,
      "velocity": 99,
      "chip": "ym2612"
    },
    {
      "channel": 1,
      "note": 70,
      "start": 50.2965,
      "duration": 0.0998,
      "velocity": 97,
      "chip": "ym2612"
    },
    {
      "channel": 2,
      "note": 68,
      "start": 50.2971,
      "duration": 0.0998,
      "velocity": 87,
      "chip": "ym2612"
    },
    {
      "channel": 5,
      "note": 108,
      "start": 50.2978,
      "duration": 0.1009,
      "velocity": 108,
      "chip": "ym2612"
    },
    {
      "channel": 1,
      "note": 65,
      "start": 50.3965,
      "duration": 0.0998,
      "velocity": 97,
      "chip": "ym2612"
    },
    {
      "channel": 2,
      "note": 63,
      "start": 50.3971,
      "duration": 0.0998,
      "velocity": 87,
      "chip": "ym2612"
    },
    {
      "channel": 3,
      "note": 65,
      "start": 50.3976,
      "duration": 0.283,
      "velocity": 99,
      "chip": "ym2612"
    },
    {
      "channel": 4,
      "note": 65,
      "start": 50.3982,
      "duration": 0.1998,
      "velocity": 99,
      "chip": "ym2612"
    },
    {
      "channel": 5,
      "note": 110,
      "start": 50.3988,
      "duration": 0.0988,
      "velocity": 108,
      "chip": "ym2612"
    },
    {
      "channel": 1,
      "note": 68,
      "start": 50.4965,
      "duration": 0.1003,
      "velocity": 97,
      "chip": "ym2612"
    },
    {
      "channel": 2,
      "note": 65,
      "start": 50.4971,
      "duration": 0.1003,
      "velocity": 87,
      "chip": "ym2612"
    },
    {
      "channel": 5,
      "note": 112,
      "start": 50.4978,
      "duration": 0.184,
      "velocity": 108,
      "chip": "ym2612"
    },
    {
      "channel": 0,
      "note": 56,
      "start": 50.5964,
      "duration": 0.266,
      "velocity": 117,
      "chip": "ym2612"
    },
    {
      "channel": 1,
      "note": 65,
      "start": 50.597,
      "duration": 0.0825,
      "velocity": 97,
      "chip": "ym2612"
    },
    {
      "channel": 2,
      "note": 63,
      "start": 50.5976,
      "duration": 0.0825,
      "velocity": 87,
      "chip": "ym2612"
    },
    {
      "channel": 4,
      "note": 58,
      "start": 50.5982,
      "duration": 0.083,
      "velocity": 99,
      "chip": "ym2612"
    },
    {
      "channel": 1,
      "note": 68,
      "start": 50.6797,
      "duration": 0.0998,
      "velocity": 97,
      "chip": "ym2612"
    },
    {
      "channel": 2,
      "note": 65,
      "start": 50.6803,
      "duration": 0.0997,
      "velocity": 87,
      "chip": "ym2612"
    },
    {
      "channel": 3,
      "note": 58,
      "start": 50.6808,
      "duration": 0.0998,
      "velocity": 99,
      "chip": "ym2612"
    },
    {
      "channel": 4,
      "note": 68,
      "start": 50.6813,
      "duration": 0.1833,
      "velocity": 99,
      "chip": "ym2612"
    },
    {
      "channel": 5,
      "note": 110,
      "start": 50.682,
      "duration": 0.266,
      "velocity": 108,
      "chip": "ym2612"
    },
    {
      "channel": 1,
      "note": 63,
      "start": 50.7796,
      "duration": 0.0833,
      "velocity": 97,
      "chip": "ym2612"
    },
    {
      "channel": 2,
      "note": 61,
      "start": 50.7802,
      "duration": 0.0833,
      "velocity": 87,
      "chip": "ym2612"
    },
    {
      "channel": 3,
      "note": 63,
      "start": 50.7808,
      "duration": 0.0833,
      "velocity": 99,
      "chip": "ym2612"
    },
    {
      "channel": 0,
      "note": 53,
      "start": 50.8626,
      "duration": 0.283,
      "velocity": 117,
      "chip": "ym2612"
    },
    {
      "channel": 1,
      "note": 65,
      "start": 50.8631,
      "duration": 0.0826,
      "velocity": 97,
      "chip": "ym2612"
    },
    {
      "channel": 2,
      "note": 63,
      "start": 50.8637,
      "duration": 0.0826,
      "velocity": 87,
      "chip": "ym2612"
    },
    {
      "channel": 3,
      "note": 65,
      "start": 50.8642,
      "duration": 0.0826,
      "velocity": 99,
      "chip": "ym2612"
    },
    {
      "channel": 4,
      "note": 63,
      "start": 50.8648,
      "duration": 0.0826,
      "velocity": 99,
      "chip": "ym2612"
    },
    {
      "channel": 1,
      "note": 63,
      "start": 50.9459,
      "duration": 0.0998,
      "velocity": 97,
      "chip": "ym2612"
    },
    {
      "channel": 2,
      "note": 61,
      "start": 50.9465,
      "duration": 0.0997,
      "velocity": 87,
      "chip": "ym2612"
    },
    {
      "channel": 3,
      "note": 68,
      "start": 50.947,
      "duration": 0.0998,
      "velocity": 99,
      "chip": "ym2612"
    },
    {
      "channel": 4,
      "note": 65,
      "start": 50.9475,
      "duration": 0.0998,
      "velocity": 99,
      "chip": "ym2612"
    },
    {
      "channel": 5,
      "note": 112,
      "start": 50.9482,
      "duration": 0.0998,
      "velocity": 108,
      "chip": "ym2612"
    },
    {
      "channel": 1,
      "note": 65,
      "start": 51.0458,
      "duration": 0.1004,
      "velocity": 97,
      "chip": "ym2612"
    },
    {
      "channel": 2,
      "note": 63,
      "start": 51.0464,
      "duration": 0.1004,
      "velocity": 87,
      "chip": "ym2612"
    },
    {
      "channel": 3,
      "note": 70,
      "start": 51.047,
      "duration": 0.2822,
      "velocity": 99,
      "chip": "ym2612"
    },
    {
      "channel": 4,
      "note": 68,
      "start": 51.0475,
      "duration": 0.0998,
      "velocity": 99,
      "chip": "ym2612"
    },
    {
      "channel": 5,
      "note": 108,
      "start": 51.0481,
      "duration": 0.1812,
      "velocity": 108,
      "chip": "ym2612"
    },
    {
      "channel": 0,
      "note": 51,
      "start": 51.1458,
      "duration": 0.5656,
      "velocity": 117,
      "chip": "ym2612"
    },
    {
      "channel": 1,
      "note": 61,
      "start": 51.1463,
      "duration": 0.0822,
      "velocity": 97,
      "chip": "ym2612"
    },
    {
      "channel": 2,
      "note": 58,
      "start": 51.1469,
      "duration": 2.9821,
      "velocity": 87,
      "chip": "ym2612"
    },
    {
      "channel": 4,
      "note": 56,
      "start": 51.1475,
      "duration": 0.1822,
      "velocity": 99,
      "chip": "ym2612"
    },
    {
      "channel": 1,
      "note": 63,
      "start": 51.2288,
      "duration": 0.0998,
      "velocity": 97,
      "chip": "ym2612"
    },
    {
      "channel": 5,
      "note": 110,
      "start": 51.2295,
      "duration": 0.1008,
      "velocity": 108,
      "chip": "ym2612"
    },
    {
      "channel": 1,
      "note": 61,
      "start": 51.3288,
      "duration": 0.0998,
      "velocity": 97,
      "chip": "ym2612"
    },
    {
      "channel": 3,
      "note": 68,
      "start": 51.3294,
      "duration": 0.1998,
      "velocity": 99,
      "chip": "ym2612"
    },
    {
      "channel": 4,
      "note": 58,
      "start": 51.33,
      "duration": 0.1998,
      "velocity": 99,
      "chip": "ym2612"
    },
    {
      "channel": 5,
      "note": 112,
      "start": 51.3305,
      "duration": 0.0988,
      "velocity": 108,
      "chip": "ym2612"
    },
    {
      "channel": 1,
      "note": 63,
      "start": 51.4288,
      "duration": 0.0998,
      "velocity": 97,
      "chip": "ym2612"
    },
    {
      "channel": 5,
      "note": 108,
      "start": 51.4295,
      "duration": 0.1832,
      "velocity": 108,
      "chip": "ym2612"
    },
    {
      "channel": 1,
      "note": 58,
      "start": 51.5288,
      "duration": 2.5981,
      "velocity": 1,
      "chip": "ym2612"
    },
    {
      "channel": 3,
      "note": 67,
      "start": 51.5294,
      "duration": 0.0822,
      "velocity": 99,
      "chip": "ym2612"
    },
    {
      "channel": 4,
      "note": 61,
      "start": 51.53,
      "duration": 0.0822,
      "velocity": 99,
      "chip": "ym2612"
    },
    {
      "channel": 3,
      "note": 63,
      "start": 51.6118,
      "duration": 0.2829,
      "velocity": 99,
      "chip": "ym2612"
    },
    {
      "channel": 4,
      "note": 63,
      "start": 51.6123,
      "duration": 0.0998,
      "velocity": 99,
      "chip": "ym2612"
    },
    {
      "channel": 5,
      "note": 110,
      "start": 51.6129,
      "duration": 0.182,
      "velocity": 108,
      "chip": "ym2612"
    },
    {
      "channel": 0,
      "note": 51,
      "start": 51.7116,
      "duration": 0.3829,
      "velocity": 117,
      "chip": "ym2612"
    },
    {
      "channel": 4,
      "note": 58,
      "start": 51.7123,
      "duration": 0.1829,
      "velocity": 99,
      "chip": "ym2612"
    },
    {
      "channel": 5,
      "note": 112,
      "start": 51.795,
      "duration": 0.1009,
      "velocity": 108,
      "chip": "ym2612"
    },
    {
      "channel": 3,
      "note": 65,
      "start": 51.8949,
      "duration": 0.2829,
      "velocity": 99,
      "chip": "ym2612"
    },
    {
      "channel": 4,
      "note": 65,
      "start": 51.8955,
      "duration": 0.1998,
      "velocity": 99,
      "chip": "ym2612"
    },
    {
      "channel": 5,
      "note": 110,
      "start": 51.8961,
      "duration": 0.0988,
      "velocity": 108,
      "chip": "ym2612"
    },
    {
      "channel": 5,
      "note": 108,
      "start": 51.995,
      "duration": 0.1839,
      "velocity": 108,
      "chip": "ym2612"
    },
    {
      "channel": 0,
      "note": 51,
      "start": 52.0947,
      "duration": 0.2657,
      "velocity": 117,
      "chip": "ym2612"
    },
    {
      "channel": 4,
      "note": 58,
      "start": 52.0955,
      "duration": 0.0828,
      "velocity": 99,
      "chip": "ym2612"
    },
    {
      "channel": 3,
      "note": 58,
      "start": 52.1779,
      "duration": 0.0998,
      "velocity": 99,
      "chip": "ym2612"
    },
    {
      "channel": 4,
      "note": 68,
      "start": 52.1785,
      "duration": 0.1832,
      "velocity": 99,
      "chip": "ym2612"
    },
    {
      "channel": 5,
      "note": 110,
      "start": 52.1791,
      "duration": 0.2656,
      "velocity": 108,
      "chip": "ym2612"
    },
    {
      "channel": 3,
      "note": 63,
      "start": 52.2779,
      "duration": 0.0832,
      "velocity": 99,
      "chip": "ym2612"
    },
    {
      "channel": 0,
      "note": 51,
      "start": 52.3606,
      "duration": 0.2828,
      "velocity": 117,
      "chip": "ym2612"
    },
    {
      "channel": 3,
      "note": 65,
      "start": 52.3612,
      "duration": 0.0823,
      "velocity": 99,
      "chip": "ym2612"
    },
    {
      "channel": 4,
      "note": 65,
      "start": 52.3618,
      "duration": 0.0823,
      "velocity": 99,
      "chip": "ym2612"
    },
    {
      "channel": 3,
      "note": 68,
      "start": 52.4437,
      "duration": 0.3828,
      "velocity": 99,
      "chip": "ym2612"
    },
    {
      "channel": 4,
      "note": 68,
      "start": 52.4443,
      "duration": 0.0993,
      "velocity": 99,
      "chip": "ym2612"
    },
    {
      "channel": 5,
      "note": 108,
      "start": 52.4449,
      "duration": 0.0993,
      "velocity": 108,
      "chip": "ym2612"
    },
    {
      "channel": 4,
      "note": 70,
      "start": 52.5437,
      "duration": 0.102,
      "velocity": 99,
      "chip": "ym2612"
    },
    {
      "channel": 5,
      "note": 110,
      "start": 52.5443,
      "duration": 0.1824,
      "velocity": 108,
      "chip": "ym2612"
    },
    {
      "channel": 0,
      "note": 49,
      "start": 52.6436,
      "duration": 0.5655,
      "velocity": 117,
      "chip": "ym2612"
    },
    {
      "channel": 4,
      "note": 56,
      "start": 52.6459,
      "duration": 0.1812,
      "velocity": 99,
      "chip": "ym2612"
    },
    {
      "channel": 5,
      "note": 112,
      "start": 52.7269,
      "duration": 0.1008,
      "velocity": 108,
      "chip": "ym2612"
    },
    {
      "channel": 3,
      "note": 68,
      "start": 52.8267,
      "duration": 0.2015,
      "velocity": 99,
      "chip": "ym2612"
    },
    {
      "channel": 4,
      "note": 58,
      "start": 52.8273,
      "duration": 0.2015,
      "velocity": 99,
      "chip": "ym2612"
    },
    {
      "channel": 5,
      "note": 110,
      "start": 52.8278,
      "duration": 0.0988,
      "velocity": 108,
      "chip": "ym2612"
    },
    {
      "channel": 5,
      "note": 112,
      "start": 52.9268,
      "duration": 0.1836,
      "velocity": 108,
      "chip": "ym2612"
    },
    {
      "channel": 3,
      "note": 67,
      "start": 53.0283,
      "duration": 0.0809,
      "velocity": 99,
      "chip": "ym2612"
    },
    {
      "channel": 4,
      "note": 61,
      "start": 53.0289,
      "duration": 0.0809,
      "velocity": 99,
      "chip": "ym2612"
    },
    {
      "channel": 3,
      "note": 63,
      "start": 53.1094,
      "duration": 0.2829,
      "velocity": 99,
      "chip": "ym2612"
    },
    {
      "channel": 4,
      "note": 63,
      "start": 53.11,
      "duration": 0.0998,
      "velocity": 99,
      "chip": "ym2612"
    },
    {
      "channel": 5,
      "note": 108,
      "start": 53.1106,
      "duration": 0.182,
      "velocity": 108,
      "chip": "ym2612"
    },
    {
      "channel": 0,
      "note": 49,
      "start": 53.2093,
      "duration": 0.383,
      "velocity": 117,
      "chip": "ym2612"
    },
    {
      "channel": 4,
      "note": 58,
      "start": 53.21,
      "duration": 0.1829,
      "velocity": 99,
      "chip": "ym2612"
    },
    {
      "channel": 5,
      "note": 110,
      "start": 53.2927,
      "duration": 0.1009,
      "velocity": 108,
      "chip": "ym2612"
    },
    {
      "channel": 3,
      "note": 65,
      "start": 53.3926,
      "duration": 0.0998,
      "velocity": 99,
      "chip": "ym2612"
    },
    {
      "channel": 4,
      "note": 65,
      "start": 53.3932,
      "duration": 0.0998,
      "velocity": 99,
      "chip": "ym2612"
    },
    {
      "channel": 5,
      "note": 108,
      "start": 53.3937,
      "duration": 0.0999,
      "velocity": 108,
      "chip": "ym2612"
    },
    {
      "channel": 3,
      "note": 63,
      "start": 53.4926,
      "duration": 0.1004,
      "velocity": 99,
      "chip": "ym2612"
    },
    {
      "channel": 4,
      "note": 56,
      "start": 53.4932,
      "duration": 0.1004,
      "velocity": 99,
      "chip": "ym2612"
    },
    {
      "channel": 5,
      "note": 112,
      "start": 53.4937,
      "duration": 0.4322,
      "velocity": 108,
      "chip": "ym2612"
    },
    {
      "channel": 0,
      "note": 61,
      "start": 53.5924,
      "duration": 0.249,
      "velocity": 117,
      "chip": "ym2612"
    },
    {
      "channel": 3,
      "note": 61,
      "start": 53.5932,
      "duration": 0.0824,
      "velocity": 99,
      "chip": "ym2612"
    },
    {
      "channel": 4,
      "note": 58,
      "start": 53.5937,
      "duration": 0.0824,
      "velocity": 99,
      "chip": "ym2612"
    },
    {
      "channel": 3,
      "note": 58,
      "start": 53.6757,
      "duration": 0.0829,
      "velocity": 99,
      "chip": "ym2612"
    },
    {
      "channel": 4,
      "note": 63,
      "start": 53.6763,
      "duration": 0.0829,
      "velocity": 99,
      "chip": "ym2612"
    },
    {
      "channel": 3,
      "note": 63,
      "start": 53.7589,
      "duration": 0.0832,
      "velocity": 99,
      "chip": "ym2612"
    },
    {
      "channel": 4,
      "note": 68,
      "start": 53.7595,
      "duration": 0.0832,
      "velocity": 99,
      "chip": "ym2612"
    },
    {
      "channel": 0,
      "note": 49,
      "start": 53.8416,
      "duration": 0.2831,
      "velocity": 117,
      "chip": "ym2612"
    },
    {
      "channel": 3,
      "note": 65,
      "start": 53.8422,
      "duration": 0.0825,
      "velocity": 99,
      "chip": "ym2612"
    },
    {
      "channel": 4,
      "note": 70,
      "start": 53.8428,
      "duration": 0.0825,
      "velocity": 99,
      "chip": "ym2612"
    },
    {
      "channel": 3,
      "note": 68,
      "start": 53.9249,
      "duration": 0.3826,
      "velocity": 99,
      "chip": "ym2612"
    },
    {
      "channel": 4,
      "note": 73,
      "start": 53.9255,
      "duration": 0.1008,
      "velocity": 99,
      "chip": "ym2612"
    },
    {
      "channel": 5,
      "note": 110,
      "start": 53.9261,
      "duration": 0.1009,
      "velocity": 108,
      "chip": "ym2612"
    },
    {
      "channel": 4,
      "note": 75,
      "start": 54.0265,
      "duration": 0.1047,
      "velocity": 99,
      "chip": "ym2612"
    },
    {
      "channel": 5,
      "note": 111,
      "start": 54.0271,
      "duration": 0.1808,
      "velocity": 108,
      "chip": "ym2612"
    },
    {
      "channel": 0,
      "note": 58,
      "start": 54.1249,
      "duration": 0.5652,
      "velocity": 117,
      "chip": "ym2612"
    },
    {
      "channel": 1,
      "note": 67,
      "start": 54.127,
      "duration": 0.382,
      "velocity": 97,
      "chip": "ym2612"
    },
    {
      "channel": 2,
      "note": 70,
      "start": 54.1291,
      "duration": 1.4968,
      "velocity": 87,
      "chip": "ym2612"
    },
    {
      "channel": 4,
      "note": 56,
      "start": 54.1314,
      "duration": 0.1767,
      "velocity": 99,
      "chip": "ym2612"
    },
    {
      "channel": 5,
      "note": 110,
      "start": 54.208,
      "duration": 0.1007,
      "velocity": 108,
      "chip": "ym2612"
    },
    {
      "channel": 3,
      "note": 68,
      "start": 54.3077,
      "duration": 0.2019,
      "velocity": 99,
      "chip": "ym2612"
    },
    {
      "channel": 4,
      "note": 58,
      "start": 54.3083,
      "duration": 0.2019,
      "velocity": 99,
      "chip": "ym2612"
    },
    {
      "channel": 5,
      "note": 112,
      "start": 54.3089,
      "duration": 0.0988,
      "velocity": 108,
      "chip": "ym2612"
    },
    {
      "channel": 5,
      "note": 108,
      "start": 54.4078,
      "duration": 0.1836,
      "velocity": 108,
      "chip": "ym2612"
    },
    {
      "channel": 1,
      "note": 70,
      "start": 54.5092,
      "duration": 1.498,
      "velocity": 97,
      "chip": "ym2612"
    },
    {
      "channel": 3,
      "note": 67,
      "start": 54.5098,
      "duration": 0.0805,
      "velocity": 99,
      "chip": "ym2612"
    },
    {
      "channel": 4,
      "note": 61,
      "start": 54.5103,
      "duration": 0.0805,
      "velocity": 99,
      "chip": "ym2612"
    },
    {
      "channel": 3,
      "note": 63,
      "start": 54.5904,
      "duration": 0.2829,
      "velocity": 99,
      "chip": "ym2612"
    },
    {
      "channel": 4,
      "note": 63,
      "start": 54.591,
      "duration": 0.0998,
      "velocity": 99,
      "chip": "ym2612"
    },
    {
      "channel": 5,
      "note": 110,
      "start": 54.5916,
      "duration": 0.182,
      "velocity": 108,
      "chip": "ym2612"
    },
    {
      "channel": 0,
      "note": 58,
      "start": 54.6902,
      "duration": 0.3829,
      "velocity": 117,
      "chip": "ym2612"
    },
    {
      "channel": 4,
      "note": 58,
      "start": 54.691,
      "duration": 0.1829,
      "velocity": 99,
      "chip": "ym2612"
    },
    {
      "channel": 5,
      "note": 112,
      "start": 54.7737,
      "duration": 0.1009,
      "velocity": 108,
      "chip": "ym2612"
    },
    {
      "channel": 3,
      "note": 65,
      "start": 54.8736,
      "duration": 0.2828,
      "velocity": 99,
      "chip": "ym2612"
    },
    {
      "channel": 4,
      "note": 63,
      "start": 54.8741,
      "duration": 0.1998,
      "velocity": 99,
      "chip": "ym2612"
    },
    {
      "channel": 5,
      "note": 108,
      "start": 54.8747,
      "duration": 0.0988,
      "velocity": 108,
      "chip": "ym2612"
    },
    {
      "channel": 5,
      "note": 110,
      "start": 54.9737,
      "duration": 0.1838,
      "velocity": 108,
      "chip": "ym2612"
    },
    {
      "channel": 0,
      "note": 58,
      "start": 55.0734,
      "duration": 0.2658,
      "velocity": 117,
      "chip": "ym2612"
    },
    {
      "channel": 4,
      "note": 58,
      "start": 55.0741,
      "duration": 0.0827,
      "velocity": 99,
      "chip": "ym2612"
    },
    {
      "channel": 3,
      "note": 58,
      "start": 55.1565,
      "duration": 0.1014,
      "velocity": 99,
      "chip": "ym2612"
    },
    {
      "channel": 4,
      "note": 65,
      "start": 55.1571,
      "duration": 0.1833,
      "velocity": 99,
      "chip": "ym2612"
    },
    {
      "channel": 5,
      "note": 112,
      "start": 55.1577,
      "duration": 0.2658,
      "velocity": 108,
      "chip": "ym2612"
    },
    {
      "channel": 3,
      "note": 63,
      "start": 55.2581,
      "duration": 0.0817,
      "velocity": 99,
      "chip": "ym2612"
    },
    {
      "channel": 0,
      "note": 53,
      "start": 55.3393,
      "duration": 0.2828,
      "velocity": 117,
      "chip": "ym2612"
    },
    {
      "channel": 3,
      "note": 65,
      "start": 55.34,
      "duration": 0.0823,
      "velocity": 99,
      "chip": "ym2612"
    },
    {
      "channel": 4,
      "note": 58,
      "start": 55.3406,
      "duration": 0.0823,
      "velocity": 99,
      "chip": "ym2612"
    },
    {
      "channel": 3,
      "note": 68,
      "start": 55.4224,
      "duration": 0.3832,
      "velocity": 99,
      "chip": "ym2612"
    },
    {
      "channel": 4,
      "note": 68,
      "start": 55.423,
      "duration": 0.0993,
      "velocity": 99,
      "chip": "ym2612"
    },
    {
      "channel": 5,
      "note": 108,
      "start": 55.4237,
      "duration": 0.0993,
      "velocity": 108,
      "chip": "ym2612"
    },
    {
      "channel": 4,
      "note": 70,
      "start": 55.5225,
      "duration": 0.1041,
      "velocity": 99,
      "chip": "ym2612"
    },
    {
      "channel": 5,
      "note": 110,
      "start": 55.5231,
      "duration": 0.1828,
      "velocity": 108,
      "chip": "ym2612"
    },
    {
      "channel": 0,
      "note": 56,
      "start": 55.6223,
      "duration": 0.5661,
      "velocity": 117,
      "chip": "ym2612"
    },
    {
      "channel": 2,
      "note": 73,
      "start": 55.6261,
      "duration": 0.7456,
      "velocity": 87,
      "chip": "ym2612"
    },
    {
      "channel": 4,
      "note": 56,
      "start": 55.6268,
      "duration": 0.1795,
      "velocity": 99,
      "chip": "ym2612"
    },
    {
      "channel": 5,
      "note": 112,
      "start": 55.706,
      "duration": 0.1008,
      "velocity": 108,
      "chip": "ym2612"
    },
    {
      "channel": 3,
      "note": 68,
      "start": 55.8058,
      "duration": 0.202,
      "velocity": 99,
      "chip": "ym2612"
    },
    {
      "channel": 4,
      "note": 58,
      "start": 55.8064,
      "duration": 0.202,
      "velocity": 99,
      "chip": "ym2612"
    },
    {
      "channel": 5,
      "note": 110,
      "start": 55.807,
      "duration": 0.0988,
      "velocity": 108,
      "chip": "ym2612"
    },
    {
      "channel": 5,
      "note": 108,
      "start": 55.906,
      "duration": 0.1838,
      "velocity": 108,
      "chip": "ym2612"
    },
    {
      "channel": 1,
      "note": 73,
      "start": 56.0074,
      "duration": 0.7472,
      "velocity": 97,
      "chip": "ym2612"
    },
    {
      "channel": 3,
      "note": 67,
      "start": 56.008,
      "duration": 0.0806,
      "velocity": 99,
      "chip": "ym2612"
    },
    {
      "channel": 4,
      "note": 61,
      "start": 56.0086,
      "duration": 0.0806,
      "velocity": 99,
      "chip": "ym2612"
    },
    {
      "channel": 3,
      "note": 63,
      "start": 56.0888,
      "duration": 0.2835,
      "velocity": 99,
      "chip": "ym2612"
    },
    {
      "channel": 4,
      "note": 63,
      "start": 56.0893,
      "duration": 0.0998,
      "velocity": 99,
      "chip": "ym2612"
    },
    {
      "channel": 5,
      "note": 110,
      "start": 56.0899,
      "duration": 0.182,
      "velocity": 108,
      "chip": "ym2612"
    },
    {
      "channel": 0,
      "note": 56,
      "start": 56.1886,
      "duration": 0.3829,
      "velocity": 117,
      "chip": "ym2612"
    },
    {
      "channel": 4,
      "note": 58,
      "start": 56.1893,
      "duration": 0.1835,
      "velocity": 99,
      "chip": "ym2612"
    },
    {
      "channel": 5,
      "note": 108,
      "start": 56.272,
      "duration": 0.1014,
      "velocity": 108,
      "chip": "ym2612"
    },
    {
      "channel": 2,
      "note": 70,
      "start": 56.3719,
      "duration": 0.7492,
      "velocity": 87,
      "chip": "ym2612"
    },
    {
      "channel": 3,
      "note": 65,
      "start": 56.3725,
      "duration": 0.2822,
      "velocity": 99,
      "chip": "ym2612"
    },
    {
      "channel": 4,
      "note": 65,
      "start": 56.3731,
      "duration": 0.1992,
      "velocity": 99,
      "chip": "ym2612"
    },
    {
      "channel": 5,
      "note": 110,
      "start": 56.3736,
      "duration": 0.0983,
      "velocity": 108,
      "chip": "ym2612"
    },
    {
      "channel": 5,
      "note": 112,
      "start": 56.4721,
      "duration": 0.1837,
      "velocity": 108,
      "chip": "ym2612"
    },
    {
      "channel": 0,
      "note": 56,
      "start": 56.5717,
      "duration": 0.2656,
      "velocity": 117,
      "chip": "ym2612"
    },
    {
      "channel": 4,
      "note": 58,
      "start": 56.5725,
      "duration": 0.0828,
      "velocity": 99,
      "chip": "ym2612"
    },
    {
      "channel": 3,
      "note": 58,
      "start": 56.6549,
      "duration": 0.1003,
      "velocity": 99,
      "chip": "ym2612"
    },
    {
      "channel": 4,
      "note": 68,
      "start": 56.6554,
      "duration": 0.1831,
      "velocity": 99,
      "chip": "ym2612"
    },
    {
      "channel": 5,
      "note": 110,
      "start": 56.656,
      "duration": 0.2658,
      "velocity": 108,
      "chip": "ym2612"
    },
    {
      "channel": 1,
      "note": 70,
      "start": 56.7548,
      "duration": 0.749,
      "velocity": 97,
      "chip": "ym2612"
    },
    {
      "channel": 3,
      "note": 63,
      "start": 56.7554,
      "duration": 0.0826,
      "velocity": 99,
      "chip": "ym2612"
    },
    {
      "channel": 0,
      "note": 53,
      "start": 56.8375,
      "duration": 0.283,
      "velocity": 117,
      "chip": "ym2612"
    },
    {
      "channel": 3,
      "note": 65,
      "start": 56.8382,
      "duration": 0.0825,
      "velocity": 99,
      "chip": "ym2612"
    },
    {
      "channel": 4,
      "note": 63,
      "start": 56.8388,
      "duration": 0.0825,
      "velocity": 99,
      "chip": "ym2612"
    },
    {
      "channel": 3,
      "note": 68,
      "start": 56.9209,
      "duration": 0.0998,
      "velocity": 99,
      "chip": "ym2612"
    },
    {
      "channel": 4,
      "note": 65,
      "start": 56.9215,
      "duration": 0.0998,
      "velocity": 99,
      "chip": "ym2612"
    },
    {
      "channel": 5,
      "note": 112,
      "start": 56.922,
      "duration": 0.0998,
      "velocity": 108,
      "chip": "ym2612"
    },
    {
      "channel": 3,
      "note": 70,
      "start": 57.0208,
      "duration": 0.2832,
      "velocity": 99,
      "chip": "ym2612"
    },
    {
      "channel": 4,
      "note": 68,
      "start": 57.0214,
      "duration": 0.1004,
      "velocity": 99,
      "chip": "ym2612"
    },
    {
      "channel": 5,
      "note": 108,
      "start": 57.022,
      "duration": 0.1821,
      "velocity": 108,
      "chip": "ym2612"
    },
    {
      "channel": 0,
      "note": 51,
      "start": 57.1207,
      "duration": 0.5658,
      "velocity": 117,
      "chip": "ym2612"
    },
    {
      "channel": 2,
      "note": 75,
      "start": 57.1213,
      "duration": 0.1844,
      "velocity": 87,
      "chip": "ym2612"
    },
    {
      "channel": 4,
      "note": 56,
      "start": 57.122,
      "duration": 0.1826,
      "velocity": 99,
      "chip": "ym2612"
    },
    {
      "channel": 5,
      "note": 110,
      "start": 57.2042,
      "duration": 0.101,
      "velocity": 108,
      "chip": "ym2612"
    },
    {
      "channel": 3,
      "note": 68,
      "start": 57.3042,
      "duration": 0.2008,
      "velocity": 99,
      "chip": "ym2612"
    },
    {
      "channel": 4,
      "note": 58,
      "start": 57.3047,
      "duration": 0.2008,
      "velocity": 99,
      "chip": "ym2612"
    },
    {
      "channel": 5,
      "note": 112,
      "start": 57.3053,
      "duration": 0.0987,
      "velocity": 108,
      "chip": "ym2612"
    },
    {
      "channel": 2,
      "note": 75,
      "start": 57.3058,
      "duration": 0.0143,
      "velocity": 87,
      "chip": "ym2612"
    },
    {
      "channel": 2,
      "note": 75,
      "start": 57.3201,
      "duration": 0.0333,
      "velocity": 87,
      "chip": "ym2612"
    },
    {
      "channel": 2,
      "note": 75,
      "start": 57.3534,
      "duration": 0.0167,
      "velocity": 87,
      "chip": "ym2612"
    },
    {
      "channel": 2,
      "note": 76,
      "start": 57.3701,
      "duration": 0.0167,
      "velocity": 87,
      "chip": "ym2612"
    },
    {
      "channel": 2,
      "note": 76,
      "start": 57.3867,
      "duration": 0.0179,
      "velocity": 87,
      "chip": "ym2612"
    },
    {
      "channel": 5,
      "note": 108,
      "start": 57.4042,
      "duration": 0.1836,
      "velocity": 108,
      "chip": "ym2612"
    },
    {
      "channel": 2,
      "note": 76,
      "start": 57.4046,
      "duration": 0.0154,
      "velocity": 87,
      "chip": "ym2612"
    },
    {
      "channel": 2,
      "note": 76,
      "start": 57.4201,
      "duration": 0.0333,
      "velocity": 87,
      "chip": "ym2612"
    },
    {
      "channel": 2,
      "note": 76,
      "start": 57.4534,
      "duration": 0.0167,
      "velocity": 87,
      "chip": "ym2612"
    },
    {
      "channel": 2,
      "note": 76,
      "start": 57.4701,
      "duration": 0.0167,
      "velocity": 87,
      "chip": "ym2612"
    },
    {
      "channel": 2,
      "note": 76,
      "start": 57.4867,
      "duration": 0.0176,
      "velocity": 87,
      "chip": "ym2612"
    },
    {
      "channel": 1,
      "note": 75,
      "start": 57.504,
      "duration": 0.1843,
      "velocity": 97,
      "chip": "ym2612"
    },
    {
      "channel": 2,
      "note": 77,
      "start": 57.5046,
      "duration": 1.8646,
      "velocity": 87,
      "chip": "ym2612"
    },
    {
      "channel": 3,
      "note": 67,
      "start": 57.5051,
      "duration": 0.0815,
      "velocity": 99,
      "chip": "ym2612"
    },
    {
      "channel": 4,
      "note": 61,
      "start": 57.5057,
      "duration": 0.0815,
      "velocity": 99,
      "chip": "ym2612"
    },
    {
      "channel": 3,
      "note": 63,
      "start": 57.5868,
      "duration": 0.2831,
      "velocity": 99,
      "chip": "ym2612"
    },
    {
      "channel": 4,
      "note": 63,
      "start": 57.5874,
      "duration": 0.1,
      "velocity": 99,
      "chip": "ym2612"
    },
    {
      "channel": 5,
      "note": 110,
      "start": 57.588,
      "duration": 0.1816,
      "velocity": 108,
      "chip": "ym2612"
    },
    {
      "channel": 0,
      "note": 51,
      "start": 57.6867,
      "duration": 0.3826,
      "velocity": 117,
      "chip": "ym2612"
    },
    {
      "channel": 4,
      "note": 58,
      "start": 57.6876,
      "duration": 0.1829,
      "velocity": 99,
      "chip": "ym2612"
    },
    {
      "channel": 1,
      "note": 75,
      "start": 57.6883,
      "duration": 0.0119,
      "velocity": 97,
      "chip": "ym2612"
    },
    {
      "channel": 1,
      "note": 75,
      "start": 57.7002,
      "duration": 0.0271,
      "velocity": 97,
      "chip": "ym2612"
    },
    {
      "channel": 1,
      "note": 75,
      "start": 57.7272,
      "duration": 0.0136,
      "velocity": 97,
      "chip": "ym2612"
    },
    {
      "channel": 1,
      "note": 76,
      "start": 57.7409,
      "duration": 0.0137,
      "velocity": 97,
      "chip": "ym2612"
    },
    {
      "channel": 1,
      "note": 76,
      "start": 57.7545,
      "duration": 0.0156,
      "velocity": 97,
      "chip": "ym2612"
    },
    {
      "channel": 5,
      "note": 112,
      "start": 57.7698,
      "duration": 0.1013,
      "velocity": 108,
      "chip": "ym2612"
    },
    {
      "channel": 1,
      "note": 76,
      "start": 57.7702,
      "duration": 0.0154,
      "velocity": 97,
      "chip": "ym2612"
    },
    {
      "channel": 1,
      "note": 76,
      "start": 57.7856,
      "duration": 0.0333,
      "velocity": 97,
      "chip": "ym2612"
    },
    {
      "channel": 1,
      "note": 76,
      "start": 57.8189,
      "duration": 0.0167,
      "velocity": 97,
      "chip": "ym2612"
    },
    {
      "channel": 1,
      "note": 76,
      "start": 57.8356,
      "duration": 0.0167,
      "velocity": 97,
      "chip": "ym2612"
    },
    {
      "channel": 1,
      "note": 76,
      "start": 57.8522,
      "duration": 0.0171,
      "velocity": 97,
      "chip": "ym2612"
    },
    {
      "channel": 1,
      "note": 77,
      "start": 57.8695,
      "duration": 1.867,
      "velocity": 97,
      "chip": "ym2612"
    },
    {
      "channel": 3,
      "note": 65,
      "start": 57.8701,
      "duration": 0.2823,
      "velocity": 99,
      "chip": "ym2612"
    },
    {
      "channel": 4,
      "note": 65,
      "start": 57.8707,
      "duration": 0.1993,
      "velocity": 99,
      "chip": "ym2612"
    },
    {
      "channel": 5,
      "note": 110,
      "start": 57.8712,
      "duration": 0.0983,
      "velocity": 108,
      "chip": "ym2612"
    },
    {
      "channel": 5,
      "note": 108,
      "start": 57.9698,
      "duration": 0.1838,
      "velocity": 108,
      "chip": "ym2612"
    },
    {
      "channel": 0,
      "note": 51,
      "start": 58.0694,
      "duration": 0.2657,
      "velocity": 117,
      "chip": "ym2612"
    },
    {
      "channel": 4,
      "note": 58,
      "start": 58.0702,
      "duration": 0.0828,
      "velocity": 99,
      "chip": "ym2612"
    },
    {
      "channel": 3,
      "note": 58,
      "start": 58.1526,
      "duration": 0.0998,
      "velocity": 99,
      "chip": "ym2612"
    },
    {
      "channel": 4,
      "note": 68,
      "start": 58.1532,
      "duration": 0.1832,
      "velocity": 99,
      "chip": "ym2612"
    },
    {
      "channel": 5,
      "note": 110,
      "start": 58.1538,
      "duration": 0.2657,
      "velocity": 108,
      "chip": "ym2612"
    },
    {
      "channel": 3,
      "note": 63,
      "start": 58.2526,
      "duration": 0.0832,
      "velocity": 99,
      "chip": "ym2612"
    },
    {
      "channel": 0,
      "note": 51,
      "start": 58.3353,
      "duration": 0.2828,
      "velocity": 117,
      "chip": "ym2612"
    },
    {
      "channel": 3,
      "note": 65,
      "start": 58.3359,
      "duration": 0.0824,
      "velocity": 99,
      "chip": "ym2612"
    },
    {
      "channel": 4,
      "note": 65,
      "start": 58.3365,
      "duration": 0.0824,
      "velocity": 99,
      "chip": "ym2612"
    },
    {
      "channel": 3,
      "note": 68,
      "start": 58.4185,
      "duration": 0.3826,
      "velocity": 99,
      "chip": "ym2612"
    },
    {
      "channel": 4,
      "note": 68,
      "start": 58.4191,
      "duration": 0.0993,
      "velocity": 99,
      "chip": "ym2612"
    },
    {
      "channel": 5,
      "note": 108,
      "start": 58.4197,
      "duration": 0.0993,
      "velocity": 108,
      "chip": "ym2612"
    },
    {
      "channel": 4,
      "note": 70,
      "start": 58.5185,
      "duration": 0.1003,
      "velocity": 99,
      "chip": "ym2612"
    },
    {
      "channel": 5,
      "note": 110,
      "start": 58.5191,
      "duration": 0.1822,
      "velocity": 108,
      "chip": "ym2612"
    },
    {
      "channel": 0,
      "note": 54,
      "start": 58.6183,
      "duration": 0.5656,
      "velocity": 117,
      "chip": "ym2612"
    },
    {
      "channel": 4,
      "note": 56,
      "start": 58.619,
      "duration": 0.1827,
      "velocity": 99,
      "chip": "ym2612"
    },
    {
      "channel": 5,
      "note": 112,
      "start": 58.7015,
      "duration": 0.1009,
      "velocity": 108,
      "chip": "ym2612"
    },
    {
      "channel": 3,
      "note": 68,
      "start": 58.8013,
      "duration": 0.1998,
      "velocity": 99,
      "chip": "ym2612"
    },
    {
      "channel": 4,
      "note": 58,
      "start": 58.8019,
      "duration": 0.1998,
      "velocity": 99,
      "chip": "ym2612"
    },
    {
      "channel": 5,
      "note": 110,
      "start": 58.8025,
      "duration": 0.0988,
      "velocity": 108,
      "chip": "ym2612"
    },
    {
      "channel": 5,
      "note": 112,
      "start": 58.9015,
      "duration": 0.1837,
      "velocity": 108,
      "chip": "ym2612"
    },
    {
      "channel": 3,
      "note": 67,
      "start": 59.0013,
      "duration": 0.0827,
      "velocity": 99,
      "chip": "ym2612"
    },
    {
      "channel": 4,
      "note": 61,
      "start": 59.0019,
      "duration": 0.0827,
      "velocity": 99,
      "chip": "ym2612"
    },
    {
      "channel": 3,
      "note": 63,
      "start": 59.0842,
      "duration": 0.2832,
      "velocity": 99,
      "chip": "ym2612"
    },
    {
      "channel": 4,
      "note": 63,
      "start": 59.0848,
      "duration": 0.0999,
      "velocity": 99,
      "chip": "ym2612"
    },
    {
      "channel": 5,
      "note": 108,
      "start": 59.0854,
      "duration": 0.182,
      "velocity": 108,
      "chip": "ym2612"
    },
    {
      "channel": 0,
      "note": 54,
      "start": 59.1841,
      "duration": 0.383,
      "velocity": 117,
      "chip": "ym2612"
    },
    {
      "channel": 4,
      "note": 58,
      "start": 59.1848,
      "duration": 0.1832,
      "velocity": 99,
      "chip": "ym2612"
    },
    {
      "channel": 5,
      "note": 110,
      "start": 59.2675,
      "duration": 0.101,
      "velocity": 108,
      "chip": "ym2612"
    },
    {
      "channel": 3,
      "note": 65,
      "start": 59.3675,
      "duration": 0.0998,
      "velocity": 99,
      "chip": "ym2612"
    },
    {
      "channel": 4,
      "note": 65,
      "start": 59.3681,
      "duration": 0.0998,
      "velocity": 99,
      "chip": "ym2612"
    },
    {
      "channel": 5,
      "note": 108,
      "start": 59.3687,
      "duration": 0.0997,
      "velocity": 108,
      "chip": "ym2612"
    },
    {
      "channel": 2,
      "note": 77,
      "start": 59.3691,
      "duration": 0.0143,
      "velocity": 87,
      "chip": "ym2612"
    },
    {
      "channel": 2,
      "note": 77,
      "start": 59.3834,
      "duration": 0.0333,
      "velocity": 87,
      "chip": "ym2612"
    },
    {
      "channel": 2,
      "note": 77,
      "start": 59.4168,
      "duration": 0.0167,
      "velocity": 87,
      "chip": "ym2612"
    },
    {
      "channel": 2,
      "note": 76,
      "start": 59.4334,
      "duration": 0.0167,
      "velocity": 87,
      "chip": "ym2612"
    },
    {
      "channel": 2,
      "note": 76,
      "start": 59.4501,
      "duration": 0.0189,
      "velocity": 87,
      "chip": "ym2612"
    },
    {
      "channel": 3,
      "note": 63,
      "start": 59.4675,
      "duration": 0.1003,
      "velocity": 99,
      "chip": "ym2612"
    },
    {
      "channel": 4,
      "note": 56,
      "start": 59.468,
      "duration": 0.1003,
      "velocity": 99,
      "chip": "ym2612"
    },
    {
      "channel": 5,
      "note": 112,
      "start": 59.4686,
      "duration": 0.4316,
      "velocity": 108,
      "chip": "ym2612"
    },
    {
      "channel": 2,
      "note": 76,
      "start": 59.469,
      "duration": 0.0144,
      "velocity": 87,
      "chip": "ym2612"
    },
    {
      "channel": 2,
      "note": 76,
      "start": 59.4834,
      "duration": 0.0333,
      "velocity": 87,
      "chip": "ym2612"
    },
    {
      "channel": 2,
      "note": 76,
      "start": 59.5168,
      "duration": 0.0167,
      "velocity": 87,
      "chip": "ym2612"
    },
    {
      "channel": 2,
      "note": 76,
      "start": 59.5334,
      "duration": 0.0167,
      "velocity": 87,
      "chip": "ym2612"
    },
    {
      "channel": 2,
      "note": 76,
      "start": 59.5501,
      "duration": 0.0192,
      "velocity": 87,
      "chip": "ym2612"
    },
    {
      "channel": 0,
      "note": 54,
      "start": 59.5673,
      "duration": 0.2485,
      "velocity": 117,
      "chip": "ym2612"
    },
    {
      "channel": 3,
      "note": 61,
      "start": 59.568,
      "duration": 0.0826,
      "velocity": 99,
      "chip": "ym2612"
    },
    {
      "channel": 4,
      "note": 58,
      "start": 59.5685,
      "duration": 0.0826,
      "velocity": 99,
      "chip": "ym2612"
    },
    {
      "channel": 2,
      "note": 75,
      "start": 59.5693,
      "duration": 0.0116,
      "velocity": 87,
      "chip": "ym2612"
    },
    {
      "channel": 2,
      "note": 75,
      "start": 59.581,
      "duration": 0.0273,
      "velocity": 87,
      "chip": "ym2612"
    },
    {
      "channel": 2,
      "note": 75,
      "start": 59.6082,
      "duration": 0.0136,
      "velocity": 87,
      "chip": "ym2612"
    },
    {
      "channel": 2,
      "note": 75,
      "start": 59.6218,
      "duration": 0.0137,
      "velocity": 87,
      "chip": "ym2612"
    },
    {
      "channel": 2,
      "note": 75,
      "start": 59.6355,
      "duration": 0.4673,
      "velocity": 87,
      "chip": "ym2612"
    },
    {
      "channel": 3,
      "note": 58,
      "start": 59.6508,
      "duration": 0.0843,
      "velocity": 99,
      "chip": "ym2612"
    },
    {
      "channel": 4,
      "note": 63,
      "start": 59.6513,
      "duration": 0.0843,
      "velocity": 99,
      "chip": "ym2612"
    },
    {
      "channel": 3,
      "note": 63,
      "start": 59.7352,
      "duration": 0.0812,
      "velocity": 99,
      "chip": "ym2612"
    },
    {
      "channel": 4,
      "note": 68,
      "start": 59.7358,
      "duration": 0.0812,
      "velocity": 99,
      "chip": "ym2612"
    },
    {
      "channel": 1,
      "note": 77,
      "start": 59.7365,
      "duration": 0.0107,
      "velocity": 97,
      "chip": "ym2612"
    },
    {
      "channel": 1,
      "note": 77,
      "start": 59.7471,
      "duration": 0.0271,
      "velocity": 97,
      "chip": "ym2612"
    },
    {
      "channel": 1,
      "note": 77,
      "start": 59.7743,
      "duration": 0.0136,
      "velocity": 97,
      "chip": "ym2612"
    },
    {
      "channel": 1,
      "note": 76,
      "start": 59.7879,
      "duration": 0.0136,
      "velocity": 97,
      "chip": "ym2612"
    },
    {
      "channel": 1,
      "note": 76,
      "start": 59.8015,
      "duration": 0.0164,
      "velocity": 97,
      "chip": "ym2612"
    },
    {
      "channel": 0,
      "note": 54,
      "start": 59.8159,
      "duration": 0.283,
      "velocity": 117,
      "chip": "ym2612"
    },
    {
      "channel": 3,
      "note": 65,
      "start": 59.8166,
      "duration": 0.0825,
      "velocity": 99,
      "chip": "ym2612"
    },
    {
      "channel": 4,
      "note": 70,
      "start": 59.8171,
      "duration": 0.0825,
      "velocity": 99,
      "chip": "ym2612"
    },
    {
      "channel": 1,
      "note": 76,
      "start": 59.8179,
      "duration": 0.0116,
      "velocity": 97,
      "chip": "ym2612"
    },
    {
      "channel": 1,
      "note": 76,
      "start": 59.8295,
      "duration": 0.0274,
      "velocity": 97,
      "chip": "ym2612"
    },
    {
      "channel": 1,
      "note": 76,
      "start": 59.8569,
      "duration": 0.0137,
      "velocity": 97,
      "chip": "ym2612"
    },
    {
      "channel": 1,
      "note": 76,
      "start": 59.8705,
      "duration": 0.0136,
      "velocity": 97,
      "chip": "ym2612"
    },
    {
      "channel": 1,
      "note": 76,
      "start": 59.8841,
      "duration": 0.0166,
      "velocity": 97,
      "chip": "ym2612"
    },
    {
      "channel": 3,
      "note": 68,
      "start": 59.8992,
      "duration": 0.3835,
      "velocity": 99,
      "chip": "ym2612"
    },
    {
      "channel": 4,
      "note": 73,
      "start": 59.8998,
      "duration": 0.101,
      "velocity": 99,
      "chip": "ym2612"
    },
    {
      "channel": 5,
      "note": 110,
      "start": 59.9004,
      "duration": 0.101,
      "velocity": 108,
      "chip": "ym2612"
    },
    {
      "channel": 1,
      "note": 75,
      "start": 59.9008,
      "duration": 0.0144,
      "velocity": 97,
      "chip": "ym2612"
    },
    {
      "channel": 1,
      "note": 75,
      "start": 59.9151,
      "duration": 0.0333,
      "velocity": 97,
      "chip": "ym2612"
    },
    {
      "channel": 1,
      "note": 75,
      "start": 59.9485,
      "duration": 0.0167,
      "velocity": 97,
      "chip": "ym2612"
    },
    {
      "channel": 1,
      "note": 75,
      "start": 59.9651,
      "duration": 0.0167,
      "velocity": 97,
      "chip": "ym2612"
    },
    {
      "channel": 1,
      "note": 75,
      "start": 59.9818,
      "duration": 0.5019,
      "velocity": 97,
      "chip": "ym2612"
    },
    {
      "channel": 4,
      "note": 75,
      "start": 60.001,
      "duration": 0.1041,
      "velocity": 99,
      "chip": "ym2612"
    },
    {
      "channel": 5,
      "note": 111,
      "start": 60.0015,
      "duration": 0.1809,
      "velocity": 108,
      "chip": "ym2612"
    },
    {
      "channel": 0,
      "note": 58,
      "start": 60.0992,
      "duration": 0.5657,
      "velocity": 117,
      "chip": "ym2612"
    },
    {
      "channel": 2,
      "note": 75,
      "start": 60.1029,
      "duration": 0.1792,
      "velocity": 87,
      "chip": "ym2612"
    },
    {
      "channel": 4,
      "note": 56,
      "start": 60.1052,
      "duration": 0.1781,
      "velocity": 99,
      "chip": "ym2612"
    },
    {
      "channel": 5,
      "note": 110,
      "start": 60.1826,
      "duration": 0.1013,
      "velocity": 108,
      "chip": "ym2612"
    },
    {
      "channel": 2,
      "note": 70,
      "start": 60.2823,
      "duration": 0.2019,
      "velocity": 87,
      "chip": "ym2612"
    },
    {
      "channel": 3,
      "note": 68,
      "start": 60.2829,
      "duration": 0.2019,
      "velocity": 99,
      "chip": "ym2612"
    },
    {
      "channel": 4,
      "note": 58,
      "start": 60.2835,
      "duration": 0.2018,
      "velocity": 99,
      "chip": "ym2612"
    },
    {
      "channel": 5,
      "note": 112,
      "start": 60.2841,
      "duration": 0.0982,
      "velocity": 108,
      "chip": "ym2612"
    },
    {
      "channel": 5,
      "note": 108,
      "start": 60.3825,
      "duration": 0.1837,
      "velocity": 108,
      "chip": "ym2612"
    },
    {
      "channel": 1,
      "note": 75,
      "start": 60.4839,
      "duration": 0.1816,
      "velocity": 97,
      "chip": "ym2612"
    },
    {
      "channel": 2,
      "note": 76,
      "start": 60.4844,
      "duration": 0.1816,
      "velocity": 87,
      "chip": "ym2612"
    },
    {
      "channel": 3,
      "note": 67,
      "start": 60.485,
      "duration": 0.08,
      "velocity": 99,
      "chip": "ym2612"
    },
    {
      "channel": 4,
      "note": 61,
      "start": 60.4856,
      "duration": 0.08,
      "velocity": 99,
      "chip": "ym2612"
    },
    {
      "channel": 3,
      "note": 63,
      "start": 60.5652,
      "duration": 0.2834,
      "velocity": 99,
      "chip": "ym2612"
    },
    {
      "channel": 4,
      "note": 63,
      "start": 60.5657,
      "duration": 0.1008,
      "velocity": 99,
      "chip": "ym2612"
    },
    {
      "channel": 5,
      "note": 110,
      "start": 60.5663,
      "duration": 0.1819,
      "velocity": 108,
      "chip": "ym2612"
    },
    {
      "channel": 0,
      "note": 58,
      "start": 60.6651,
      "duration": 0.3828,
      "velocity": 117,
      "chip": "ym2612"
    },
    {
      "channel": 1,
      "note": 70,
      "start": 60.6656,
      "duration": 0.1824,
      "velocity": 97,
      "chip": "ym2612"
    },
    {
      "channel": 2,
      "note": 77,
      "start": 60.6661,
      "duration": 0.3829,
      "velocity": 87,
      "chip": "ym2612"
    },
    {
      "channel": 4,
      "note": 58,
      "start": 60.6668,
      "duration": 0.1824,
      "velocity": 99,
      "chip": "ym2612"
    },
    {
      "channel": 5,
      "note": 112,
      "start": 60.7484,
      "duration": 0.1013,
      "velocity": 108,
      "chip": "ym2612"
    },
    {
      "channel": 1,
      "note": 76,
      "start": 60.8481,
      "duration": 0.2003,
      "velocity": 97,
      "chip": "ym2612"
    },
    {
      "channel": 3,
      "note": 65,
      "start": 60.8488,
      "duration": 0.2825,
      "velocity": 99,
      "chip": "ym2612"
    },
    {
      "channel": 4,
      "note": 63,
      "start": 60.8493,
      "duration": 0.2003,
      "velocity": 99,
      "chip": "ym2612"
    },
    {
      "channel": 5,
      "note": 108,
      "start": 60.8499,
      "duration": 0.0983,
      "velocity": 108,
      "chip": "ym2612"
    },
    {
      "channel": 5,
      "note": 110,
      "start": 60.9484,
      "duration": 0.184,
      "velocity": 108,
      "chip": "ym2612"
    },
    {
      "channel": 0,
      "note": 58,
      "start": 61.048,
      "duration": 0.2657,
      "velocity": 117,
      "chip": "ym2612"
    },
    {
      "channel": 1,
      "note": 77,
      "start": 61.0486,
      "duration": 0.3485,
      "velocity": 97,
      "chip": "ym2612"
    },
    {
      "channel": 2,
      "note": 73,
      "start": 61.0492,
      "duration": 0.182,
      "velocity": 87,
      "chip": "ym2612"
    },
    {
      "channel": 4,
      "note": 58,
      "start": 61.0498,
      "duration": 0.082,
      "velocity": 99,
      "chip": "ym2612"
    },
    {
      "channel": 3,
      "note": 58,
      "start": 61.1315,
      "duration": 0.1002,
      "velocity": 99,
      "chip": "ym2612"
    },
    {
      "channel": 4,
      "note": 65,
      "start": 61.132,
      "duration": 0.183,
      "velocity": 99,
      "chip": "ym2612"
    },
    {
      "channel": 5,
      "note": 112,
      "start": 61.1326,
      "duration": 0.2668,
      "velocity": 108,
      "chip": "ym2612"
    },
    {
      "channel": 2,
      "note": 70,
      "start": 61.2313,
      "duration": 0.1664,
      "velocity": 87,
      "chip": "ym2612"
    },
    {
      "channel": 3,
      "note": 63,
      "start": 61.2319,
      "duration": 0.0826,
      "velocity": 99,
      "chip": "ym2612"
    },
    {
      "channel": 0,
      "note": 53,
      "start": 61.314,
      "duration": 0.283,
      "velocity": 117,
      "chip": "ym2612"
    },
    {
      "channel": 3,
      "note": 65,
      "start": 61.3147,
      "duration": 0.0836,
      "velocity": 99,
      "chip": "ym2612"
    },
    {
      "channel": 4,
      "note": 58,
      "start": 61.3153,
      "duration": 0.0836,
      "velocity": 99,
      "chip": "ym2612"
    },
    {
      "channel": 1,
      "note": 73,
      "start": 61.3973,
      "duration": 0.2003,
      "velocity": 97,
      "chip": "ym2612"
    },
    {
      "channel": 2,
      "note": 65,
      "start": 61.3978,
      "duration": 0.2003,
      "velocity": 87,
      "chip": "ym2612"
    },
    {
      "channel": 3,
      "note": 68,
      "start": 61.3984,
      "duration": 0.383,
      "velocity": 99,
      "chip": "ym2612"
    },
    {
      "channel": 4,
      "note": 68,
      "start": 61.399,
      "duration": 0.0983,
      "velocity": 99,
      "chip": "ym2612"
    },
    {
      "channel": 5,
      "note": 108,
      "start": 61.3996,
      "duration": 0.0983,
      "velocity": 108,
      "chip": "ym2612"
    },
    {
      "channel": 4,
      "note": 70,
      "start": 61.4975,
      "duration": 0.1013,
      "velocity": 99,
      "chip": "ym2612"
    },
    {
      "channel": 5,
      "note": 110,
      "start": 61.498,
      "duration": 0.183,
      "velocity": 108,
      "chip": "ym2612"
    },
    {
      "channel": 0,
      "note": 56,
      "start": 61.5972,
      "duration": 0.5658,
      "velocity": 117,
      "chip": "ym2612"
    },
    {
      "channel": 1,
      "note": 70,
      "start": 61.5978,
      "duration": 0.1824,
      "velocity": 97,
      "chip": "ym2612"
    },
    {
      "channel": 2,
      "note": 68,
      "start": 61.5983,
      "duration": 0.082,
      "velocity": 87,
      "chip": "ym2612"
    },
    {
      "channel": 4,
      "note": 56,
      "start": 61.599,
      "duration": 0.183,
      "velocity": 99,
      "chip": "ym2612"
    },
    {
      "channel": 2,
      "note": 70,
      "start": 61.6805,
      "duration": 0.1003,
      "velocity": 87,
      "chip": "ym2612"
    },
    {
      "channel": 5,
      "note": 112,
      "start": 61.6812,
      "duration": 0.1014,
      "velocity": 108,
      "chip": "ym2612"
    },
    {
      "channel": 1,
      "note": 65,
      "start": 61.7804,
      "duration": 0.1998,
      "velocity": 97,
      "chip": "ym2612"
    },
    {
      "channel": 2,
      "note": 68,
      "start": 61.781,
      "duration": 0.0993,
      "velocity": 87,
      "chip": "ym2612"
    },
    {
      "channel": 3,
      "note": 68,
      "start": 61.7816,
      "duration": 0.1998,
      "velocity": 99,
      "chip": "ym2612"
    },
    {
      "channel": 4,
      "note": 58,
      "start": 61.7821,
      "duration": 0.1998,
      "velocity": 99,
      "chip": "ym2612"
    },
    {
      "channel": 5,
      "note": 110,
      "start": 61.7827,
      "duration": 0.0983,
      "velocity": 108,
      "chip": "ym2612"
    },
    {
      "channel": 2,
      "note": 70,
      "start": 61.8805,
      "duration": 0.1003,
      "velocity": 87,
      "chip": "ym2612"
    },
    {
      "channel": 5,
      "note": 108,
      "start": 61.8812,
      "duration": 0.1841,
      "velocity": 108,
      "chip": "ym2612"
    },
    {
      "channel": 1,
      "note": 68,
      "start": 61.9804,
      "duration": 0.0825,
      "velocity": 97,
      "chip": "ym2612"
    },
    {
      "channel": 2,
      "note": 65,
      "start": 61.981,
      "duration": 0.0825,
      "velocity": 87,
      "chip": "ym2612"
    },
    {
      "channel": 3,
      "note": 67,
      "start": 61.9816,
      "duration": 0.0826,
      "velocity": 99,
      "chip": "ym2612"
    },
    {
      "channel": 4,
      "note": 61,
      "start": 61.9821,
      "duration": 0.0826,
      "velocity": 99,
      "chip": "ym2612"
    },
    {
      "channel": 1,
      "note": 70,
      "start": 62.0632,
      "duration": 0.1004,
      "velocity": 97,
      "chip": "ym2612"
    },
    {
      "channel": 2,
      "note": 68,
      "start": 62.0637,
      "duration": 0.1004,
      "velocity": 87,
      "chip": "ym2612"
    },
    {
      "channel": 3,
      "note": 63,
      "start": 62.0643,
      "duration": 0.2828,
      "velocity": 99,
      "chip": "ym2612"
    },
    {
      "channel": 4,
      "note": 63,
      "start": 62.0649,
      "duration": 0.0998,
      "velocity": 99,
      "chip": "ym2612"
    },
    {
      "channel": 5,
      "note": 110,
      "start": 62.0655,
      "duration": 0.1817,
      "velocity": 108,
      "chip": "ym2612"
    },
    {
      "channel": 0,
      "note": 56,
      "start": 62.1632,
      "duration": 0.3827,
      "velocity": 117,
      "chip": "ym2612"
    },
    {
      "channel": 1,
      "note": 68,
      "start": 62.1637,
      "duration": 0.0822,
      "velocity": 97,
      "chip": "ym2612"
    },
    {
      "channel": 2,
      "note": 65,
      "start": 62.1642,
      "duration": 0.0822,
      "velocity": 87,
      "chip": "ym2612"
    },
    {
      "channel": 4,
      "note": 58,
      "start": 62.1649,
      "duration": 0.1828,
      "velocity": 99,
      "chip": "ym2612"
    },
    {
      "channel": 1,
      "note": 70,
      "start": 62.2461,
      "duration": 0.0998,
      "velocity": 97,
      "chip": "ym2612"
    },
    {
      "channel": 2,
      "note": 68,
      "start": 62.2467,
      "duration": 0.0998,
      "velocity": 87,
      "chip": "ym2612"
    },
    {
      "channel": 5,
      "note": 108,
      "start": 62.2474,
      "duration": 0.1009,
      "velocity": 108,
      "chip": "ym2612"
    },
    {
      "channel": 1,
      "note": 65,
      "start": 62.3461,
      "duration": 0.0998,
      "velocity": 97,
      "chip": "ym2612"
    },
    {
      "channel": 2,
      "note": 63,
      "start": 62.3467,
      "duration": 0.0998,
      "velocity": 87,
      "chip": "ym2612"
    },
    {
      "channel": 3,
      "note": 65,
      "start": 62.3473,
      "duration": 0.283,
      "velocity": 99,
      "chip": "ym2612"
    },
    {
      "channel": 4,
      "note": 65,
      "start": 62.3478,
      "duration": 0.1998,
      "velocity": 99,
      "chip": "ym2612"
    },
    {
      "channel": 5,
      "note": 110,
      "start": 62.3484,
      "duration": 0.0988,
      "velocity": 108,
      "chip": "ym2612"
    },
    {
      "channel": 1,
      "note": 68,
      "start": 62.4461,
      "duration": 0.1003,
      "velocity": 97,
      "chip": "ym2612"
    },
    {
      "channel": 2,
      "note": 65,
      "start": 62.4467,
      "duration": 0.1003,
      "velocity": 87,
      "chip": "ym2612"
    },
    {
      "channel": 5,
      "note": 112,
      "start": 62.4474,
      "duration": 0.184,
      "velocity": 108,
      "chip": "ym2612"
    },
    {
      "channel": 0,
      "note": 56,
      "start": 62.5461,
      "duration": 0.266,
      "velocity": 117,
      "chip": "ym2612"
    },
    {
      "channel": 1,
      "note": 65,
      "start": 62.5466,
      "duration": 0.0825,
      "velocity": 97,
      "chip": "ym2612"
    },
    {
      "channel": 2,
      "note": 63,
      "start": 62.5472,
      "duration": 0.0825,
      "velocity": 87,
      "chip": "ym2612"
    },
    {
      "channel": 4,
      "note": 58,
      "start": 62.5478,
      "duration": 0.083,
      "velocity": 99,
      "chip": "ym2612"
    },
    {
      "channel": 1,
      "note": 68,
      "start": 62.6293,
      "duration": 0.0998,
      "velocity": 97,
      "chip": "ym2612"
    },
    {
      "channel": 2,
      "note": 65,
      "start": 62.6299,
      "duration": 0.0997,
      "velocity": 87,
      "chip": "ym2612"
    },
    {
      "channel": 3,
      "note": 58,
      "start": 62.6304,
      "duration": 0.0998,
      "velocity": 99,
      "chip": "ym2612"
    },
    {
      "channel": 4,
      "note": 68,
      "start": 62.631,
      "duration": 0.1833,
      "velocity": 99,
      "chip": "ym2612"
    },
    {
      "channel": 5,
      "note": 110,
      "start": 62.6316,
      "duration": 0.266,
      "velocity": 108,
      "chip": "ym2612"
    },
    {
      "channel": 1,
      "note": 63,
      "start": 62.7293,
      "duration": 0.0833,
      "velocity": 97,
      "chip": "ym2612"
    },
    {
      "channel": 2,
      "note": 61,
      "start": 62.7298,
      "duration": 0.0833,
      "velocity": 87,
      "chip": "ym2612"
    },
    {
      "channel": 3,
      "note": 63,
      "start": 62.7304,
      "duration": 0.0833,
      "velocity": 99,
      "chip": "ym2612"
    },
    {
      "channel": 0,
      "note": 53,
      "start": 62.8122,
      "duration": 0.283,
      "velocity": 117,
      "chip": "ym2612"
    },
    {
      "channel": 1,
      "note": 65,
      "start": 62.8127,
      "duration": 0.0826,
      "velocity": 97,
      "chip": "ym2612"
    },
    {
      "channel": 2,
      "note": 63,
      "start": 62.8133,
      "duration": 0.0826,
      "velocity": 87,
      "chip": "ym2612"
    },
    {
      "channel": 3,
      "note": 65,
      "start": 62.8139,
      "duration": 0.0826,
      "velocity": 99,
      "chip": "ym2612"
    },
    {
      "channel": 4,
      "note": 63,
      "start": 62.8144,
      "duration": 0.0826,
      "velocity": 99,
      "chip": "ym2612"
    },
    {
      "channel": 1,
      "note": 63,
      "start": 62.8955,
      "duration": 0.0998,
      "velocity": 97,
      "chip": "ym2612"
    },
    {
      "channel": 2,
      "note": 61,
      "start": 62.896,
      "duration": 0.0998,
      "velocity": 87,
      "chip": "ym2612"
    },
    {
      "channel": 3,
      "note": 68,
      "start": 62.8966,
      "duration": 0.0998,
      "velocity": 99,
      "chip": "ym2612"
    },
    {
      "channel": 4,
      "note": 65,
      "start": 62.8972,
      "duration": 0.0998,
      "velocity": 99,
      "chip": "ym2612"
    },
    {
      "channel": 5,
      "note": 112,
      "start": 62.8978,
      "duration": 0.0998,
      "velocity": 108,
      "chip": "ym2612"
    },
    {
      "channel": 1,
      "note": 65,
      "start": 62.9955,
      "duration": 0.1004,
      "velocity": 97,
      "chip": "ym2612"
    },
    {
      "channel": 2,
      "note": 63,
      "start": 62.996,
      "duration": 0.1004,
      "velocity": 87,
      "chip": "ym2612"
    },
    {
      "channel": 3,
      "note": 70,
      "start": 62.9966,
      "duration": 0.2823,
      "velocity": 99,
      "chip": "ym2612"
    },
    {
      "channel": 4,
      "note": 68,
      "start": 62.9972,
      "duration": 0.0998,
      "velocity": 99,
      "chip": "ym2612"
    },
    {
      "channel": 5,
      "note": 108,
      "start": 62.9978,
      "duration": 0.1812,
      "velocity": 108,
      "chip": "ym2612"
    },
    {
      "channel": 0,
      "note": 51,
      "start": 63.0955,
      "duration": 0.5656,
      "velocity": 117,
      "chip": "ym2612"
    },
    {
      "channel": 1,
      "note": 61,
      "start": 63.096,
      "duration": 0.0823,
      "velocity": 97,
      "chip": "ym2612"
    },
    {
      "channel": 2,
      "note": 58,
      "start": 63.0965,
      "duration": 2.9818,
      "velocity": 1,
      "chip": "ym2612"
    },
    {
      "channel": 4,
      "note": 56,
      "start": 63.0972,
      "duration": 0.1823,
      "velocity": 99,
      "chip": "ym2612"
    },
    {
      "channel": 1,
      "note": 63,
      "start": 63.1784,
      "duration": 0.0998,
      "velocity": 97,
      "chip": "ym2612"
    },
    {
      "channel": 5,
      "note": 110,
      "start": 63.1792,
      "duration": 0.1008,
      "velocity": 108,
      "chip": "ym2612"
    },
    {
      "channel": 1,
      "note": 61,
      "start": 63.2784,
      "duration": 0.0998,
      "velocity": 97,
      "chip": "ym2612"
    },
    {
      "channel": 3,
      "note": 68,
      "start": 63.2791,
      "duration": 0.1998,
      "velocity": 99,
      "chip": "ym2612"
    },
    {
      "channel": 4,
      "note": 58,
      "start": 63.2796,
      "duration": 0.1998,
      "velocity": 99,
      "chip": "ym2612"
    },
    {
      "channel": 5,
      "note": 112,
      "start": 63.2802,
      "duration": 0.0988,
      "velocity": 108,
      "chip": "ym2612"
    },
    {
      "channel": 1,
      "note": 63,
      "start": 63.3784,
      "duration": 0.0998,
      "velocity": 97,
      "chip": "ym2612"
    },
    {
      "channel": 5,
      "note": 108,
      "start": 63.3792,
      "duration": 0.1832,
      "velocity": 108,
      "chip": "ym2612"
    },
    {
      "channel": 1,
      "note": 58,
      "start": 63.4784,
      "duration": 2.5977,
      "velocity": 87,
      "chip": "ym2612"
    },
    {
      "channel": 3,
      "note": 67,
      "start": 63.4791,
      "duration": 0.0822,
      "velocity": 99,
      "chip": "ym2612"
    },
    {
      "channel": 4,
      "note": 61,
      "start": 63.4796,
      "duration": 0.0822,
      "velocity": 99,
      "chip": "ym2612"
    },
    {
      "channel": 3,
      "note": 63,
      "start": 63.5614,
      "duration": 0.2829,
      "velocity": 99,
      "chip": "ym2612"
    },
    {
      "channel": 4,
      "note": 63,
      "start": 63.562,
      "duration": 0.0998,
      "velocity": 99,
      "chip": "ym2612"
    },
    {
      "channel": 5,
      "note": 110,
      "start": 63.5626,
      "duration": 0.182,
      "velocity": 108,
      "chip": "ym2612"
    },
    {
      "channel": 0,
      "note": 51,
      "start": 63.6612,
      "duration": 0.3829,
      "velocity": 117,
      "chip": "ym2612"
    },
    {
      "channel": 4,
      "note": 58,
      "start": 63.662,
      "duration": 0.1829,
      "velocity": 99,
      "chip": "ym2612"
    },
    {
      "channel": 5,
      "note": 112,
      "start": 63.7447,
      "duration": 0.1009,
      "velocity": 108,
      "chip": "ym2612"
    },
    {
      "channel": 3,
      "note": 65,
      "start": 63.8446,
      "duration": 0.2828,
      "velocity": 99,
      "chip": "ym2612"
    },
    {
      "channel": 4,
      "note": 65,
      "start": 63.8451,
      "duration": 0.1998,
      "velocity": 99,
      "chip": "ym2612"
    },
    {
      "channel": 5,
      "note": 110,
      "start": 63.8457,
      "duration": 0.0988,
      "velocity": 108,
      "chip": "ym2612"
    },
    {
      "channel": 5,
      "note": 108,
      "start": 63.9447,
      "duration": 0.1838,
      "velocity": 108,
      "chip": "ym2612"
    },
    {
      "channel": 0,
      "note": 51,
      "start": 64.0444,
      "duration": 0.2655,
      "velocity": 117,
      "chip": "ym2612"
    },
    {
      "channel": 4,
      "note": 58,
      "start": 64.0451,
      "duration": 0.0827,
      "velocity": 99,
      "chip": "ym2612"
    },
    {
      "channel": 3,
      "note": 58,
      "start": 64.1275,
      "duration": 0.0998,
      "velocity": 99,
      "chip": "ym2612"
    },
    {
      "channel": 4,
      "note": 68,
      "start": 64.1281,
      "duration": 0.1831,
      "velocity": 99,
      "chip": "ym2612"
    },
    {
      "channel": 5,
      "note": 110,
      "start": 64.1287,
      "duration": 0.2655,
      "velocity": 108,
      "chip": "ym2612"
    },
    {
      "channel": 3,
      "note": 63,
      "start": 64.2274,
      "duration": 0.0832,
      "velocity": 99,
      "chip": "ym2612"
    },
    {
      "channel": 0,
      "note": 51,
      "start": 64.3101,
      "duration": 0.2827,
      "velocity": 117,
      "chip": "ym2612"
    },
    {
      "channel": 3,
      "note": 65,
      "start": 64.3108,
      "duration": 0.0822,
      "velocity": 99,
      "chip": "ym2612"
    },
    {
      "channel": 4,
      "note": 65,
      "start": 64.3114,
      "duration": 0.0822,
      "velocity": 99,
      "chip": "ym2612"
    },
    {
      "channel": 3,
      "note": 68,
      "start": 64.3932,
      "duration": 0.3828,
      "velocity": 99,
      "chip": "ym2612"
    },
    {
      "channel": 4,
      "note": 68,
      "start": 64.3938,
      "duration": 0.0993,
      "velocity": 99,
      "chip": "ym2612"
    },
    {
      "channel": 5,
      "note": 108,
      "start": 64.3944,
      "duration": 0.0993,
      "velocity": 108,
      "chip": "ym2612"
    },
    {
      "channel": 4,
      "note": 70,
      "start": 64.4932,
      "duration": 0.102,
      "velocity": 99,
      "chip": "ym2612"
    },
    {
      "channel": 5,
      "note": 110,
      "start": 64.4938,
      "duration": 0.1824,
      "velocity": 108,
      "chip": "ym2612"
    },
    {
      "channel": 0,
      "note": 49,
      "start": 64.593,
      "duration": 0.5655,
      "velocity": 117,
      "chip": "ym2612"
    },
    {
      "channel": 4,
      "note": 56,
      "start": 64.5953,
      "duration": 0.1812,
      "velocity": 99,
      "chip": "ym2612"
    },
    {
      "channel": 5,
      "note": 112,
      "start": 64.6764,
      "duration": 0.1008,
      "velocity": 108,
      "chip": "ym2612"
    },
    {
      "channel": 3,
      "note": 68,
      "start": 64.7762,
      "duration": 0.2015,
      "velocity": 99,
      "chip": "ym2612"
    },
    {
      "channel": 4,
      "note": 58,
      "start": 64.7768,
      "duration": 0.2015,
      "velocity": 99,
      "chip": "ym2612"
    },
    {
      "channel": 5,
      "note": 110,
      "start": 64.7773,
      "duration": 0.0988,
      "velocity": 108,
      "chip": "ym2612"
    },
    {
      "channel": 5,
      "note": 112,
      "start": 64.8763,
      "duration": 0.1836,
      "velocity": 108,
      "chip": "ym2612"
    },
    {
      "channel": 3,
      "note": 67,
      "start": 64.9778,
      "duration": 0.0809,
      "velocity": 99,
      "chip": "ym2612"
    },
    {
      "channel": 4,
      "note": 61,
      "start": 64.9784,
      "duration": 0.0809,
      "velocity": 99,
      "chip": "ym2612"
    },
    {
      "channel": 3,
      "note": 63,
      "start": 65.0589,
      "duration": 0.2829,
      "velocity": 99,
      "chip": "ym2612"
    },
    {
      "channel": 4,
      "note": 63,
      "start": 65.0595,
      "duration": 0.0998,
      "velocity": 99,
      "chip": "ym2612"
    },
    {
      "channel": 5,
      "note": 108,
      "start": 65.0601,
      "duration": 0.182,
      "velocity": 108,
      "chip": "ym2612"
    },
    {
      "channel": 0,
      "note": 49,
      "start": 65.1587,
      "duration": 0.383,
      "velocity": 117,
      "chip": "ym2612"
    },
    {
      "channel": 4,
      "note": 58,
      "start": 65.1595,
      "duration": 0.1829,
      "velocity": 99,
      "chip": "ym2612"
    },
    {
      "channel": 5,
      "note": 110,
      "start": 65.2422,
      "duration": 0.1009,
      "velocity": 108,
      "chip": "ym2612"
    },
    {
      "channel": 3,
      "note": 65,
      "start": 65.342,
      "duration": 0.0998,
      "velocity": 99,
      "chip": "ym2612"
    },
    {
      "channel": 4,
      "note": 65,
      "start": 65.3426,
      "duration": 0.0998,
      "velocity": 99,
      "chip": "ym2612"
    },
    {
      "channel": 5,
      "note": 108,
      "start": 65.3432,
      "duration": 0.0999,
      "velocity": 108,
      "chip": "ym2612"
    },
    {
      "channel": 3,
      "note": 63,
      "start": 65.442,
      "duration": 0.1004,
      "velocity": 99,
      "chip": "ym2612"
    },
    {
      "channel": 4,
      "note": 56,
      "start": 65.4426,
      "duration": 0.1004,
      "velocity": 99,
      "chip": "ym2612"
    },
    {
      "channel": 5,
      "note": 112,
      "start": 65.4432,
      "duration": 0.432,
      "velocity": 108,
      "chip": "ym2612"
    },
    {
      "channel": 0,
      "note": 61,
      "start": 65.5419,
      "duration": 0.249,
      "velocity": 117,
      "chip": "ym2612"
    },
    {
      "channel": 3,
      "note": 61,
      "start": 65.5426,
      "duration": 0.0824,
      "velocity": 99,
      "chip": "ym2612"
    },
    {
      "channel": 4,
      "note": 58,
      "start": 65.5432,
      "duration": 0.0824,
      "velocity": 99,
      "chip": "ym2612"
    },
    {
      "channel": 3,
      "note": 58,
      "start": 65.6252,
      "duration": 0.0829,
      "velocity": 99,
      "chip": "ym2612"
    },
    {
      "channel": 4,
      "note": 63,
      "start": 65.6258,
      "duration": 0.0829,
      "velocity": 99,
      "chip": "ym2612"
    },
    {
      "channel": 3,
      "note": 63,
      "start": 65.7083,
      "duration": 0.0832,
      "velocity": 99,
      "chip": "ym2612"
    },
    {
      "channel": 4,
      "note": 68,
      "start": 65.7089,
      "duration": 0.0832,
      "velocity": 99,
      "chip": "ym2612"
    },
    {
      "channel": 0,
      "note": 49,
      "start": 65.7911,
      "duration": 0.2829,
      "velocity": 117,
      "chip": "ym2612"
    },
    {
      "channel": 3,
      "note": 65,
      "start": 65.7917,
      "duration": 0.0823,
      "velocity": 99,
      "chip": "ym2612"
    },
    {
      "channel": 4,
      "note": 70,
      "start": 65.7923,
      "duration": 0.0823,
      "velocity": 99,
      "chip": "ym2612"
    },
    {
      "channel": 3,
      "note": 68,
      "start": 65.8742,
      "duration": 0.2062,
      "velocity": 96,
      "chip": "ym2612"
    },
    {
      "channel": 4,
      "note": 73,
      "start": 65.8748,
      "duration": 0.1008,
      "velocity": 99,
      "chip": "ym2612"
    },
    {
      "channel": 5,
      "note": 110,
      "start": 65.8754,
      "duration": 0.1009,
      "velocity": 108,
      "chip": "ym2612"
    },
    {
      "channel": 4,
      "note": 75,
      "start": 65.9758,
      "duration": 0.1068,
      "velocity": 99,
      "chip": "ym2612"
    },
    {
      "channel": 5,
      "note": 111,
      "start": 65.9764,
      "duration": 0.1823,
      "velocity": 108,
      "chip": "ym2612"
    },
    {
      "channel": 0,
      "note": 60,
      "start": 66.0742,
      "duration": 0.566,
      "velocity": 117,
      "chip": "ym2612"
    },
    {
      "channel": 1,
      "note": 72,
      "start": 66.0763,
      "duration": 0.3814,
      "velocity": 87,
      "chip": "ym2612"
    },
    {
      "channel": 2,
      "note": 73,
      "start": 66.0784,
      "duration": 0.3815,
      "velocity": 97,
      "chip": "ym2612"
    },
    {
      "channel": 3,
      "note": 65,
      "start": 66.0806,
      "duration": 0.0773,
      "velocity": 96,
      "chip": "ym2612"
    },
    {
      "channel": 4,
      "note": 84,
      "start": 66.0828,
      "duration": 0.1756,
      "velocity": 99,
      "chip": "ym2612"
    },
    {
      "channel": 3,
      "note": 67,
      "start": 66.1581,
      "duration": 0.0997,
      "velocity": 96,
      "chip": "ym2612"
    },
    {
      "channel": 5,
      "note": 110,
      "start": 66.1588,
      "duration": 0.1002,
      "velocity": 108,
      "chip": "ym2612"
    },
    {
      "channel": 3,
      "note": 70,
      "start": 66.258,
      "duration": 0.0998,
      "velocity": 96,
      "chip": "ym2612"
    },
    {
      "channel": 4,
      "note": 79,
      "start": 66.2586,
      "duration": 0.2041,
      "velocity": 99,
      "chip": "ym2612"
    },
    {
      "channel": 5,
      "note": 112,
      "start": 66.2592,
      "duration": 0.0994,
      "velocity": 108,
      "chip": "ym2612"
    },
    {
      "channel": 3,
      "note": 72,
      "start": 66.358,
      "duration": 0.1041,
      "velocity": 107,
      "chip": "ym2612"
    },
    {
      "channel": 5,
      "note": 108,
      "start": 66.3586,
      "duration": 0.1825,
      "velocity": 108,
      "chip": "ym2612"
    },
    {
      "channel": 1,
      "note": 75,
      "start": 66.458,
      "duration": 0.1828,
      "velocity": 87,
      "chip": "ym2612"
    },
    {
      "channel": 2,
      "note": 72,
      "start": 66.4601,
      "duration": 0.3639,
      "velocity": 97,
      "chip": "ym2612"
    },
    {
      "channel": 3,
      "note": 65,
      "start": 66.4623,
      "duration": 0.0782,
      "velocity": 107,
      "chip": "ym2612"
    },
    {
      "channel": 4,
      "note": 82,
      "start": 66.4629,
      "duration": 0.1791,
      "velocity": 99,
      "chip": "ym2612"
    },
    {
      "channel": 3,
      "note": 67,
      "start": 66.5406,
      "duration": 0.1008,
      "velocity": 107,
      "chip": "ym2612"
    },
    {
      "channel": 5,
      "note": 110,
      "start": 66.5412,
      "duration": 0.183,
      "velocity": 108,
      "chip": "ym2612"
    },
    {
      "channel": 0,
      "note": 60,
      "start": 66.6404,
      "duration": 0.3829,
      "velocity": 117,
      "chip": "ym2612"
    },
    {
      "channel": 1,
      "note": 72,
      "start": 66.641,
      "duration": 0.1824,
      "velocity": 87,
      "chip": "ym2612"
    },
    {
      "channel": 3,
      "note": 70,
      "start": 66.6416,
      "duration": 0.082,
      "velocity": 107,
      "chip": "ym2612"
    },
    {
      "channel": 4,
      "note": 84,
      "start": 66.6422,
      "duration": 2.4319,
      "velocity": 99,
      "chip": "ym2612"
    },
    {
      "channel": 3,
      "note": 72,
      "start": 66.7237,
      "duration": 0.1024,
      "velocity": 96,
      "chip": "ym2612"
    },
    {
      "channel": 5,
      "note": 112,
      "start": 66.7244,
      "duration": 0.1024,
      "velocity": 108,
      "chip": "ym2612"
    },
    {
      "channel": 1,
      "note": 77,
      "start": 66.8236,
      "duration": 0.3828,
      "velocity": 87,
      "chip": "ym2612"
    },
    {
      "channel": 2,
      "note": 75,
      "start": 66.8242,
      "duration": 0.1998,
      "velocity": 97,
      "chip": "ym2612"
    },
    {
      "channel": 3,
      "note": 65,
      "start": 66.8263,
      "duration": 0.0973,
      "velocity": 96,
      "chip": "ym2612"
    },
    {
      "channel": 5,
      "note": 108,
      "start": 66.827,
      "duration": 0.0972,
      "velocity": 108,
      "chip": "ym2612"
    },
    {
      "channel": 3,
      "note": 67,
      "start": 66.9237,
      "duration": 0.1008,
      "velocity": 96,
      "chip": "ym2612"
    },
    {
      "channel": 5,
      "note": 110,
      "start": 66.9244,
      "duration": 0.1828,
      "velocity": 108,
      "chip": "ym2612"
    },
    {
      "channel": 0,
      "note": 60,
      "start": 67.0235,
      "duration": 0.2654,
      "velocity": 117,
      "chip": "ym2612"
    },
    {
      "channel": 2,
      "note": 72,
      "start": 67.0242,
      "duration": 0.1828,
      "velocity": 97,
      "chip": "ym2612"
    },
    {
      "channel": 3,
      "note": 70,
      "start": 67.0247,
      "duration": 0.0818,
      "velocity": 96,
      "chip": "ym2612"
    },
    {
      "channel": 3,
      "note": 72,
      "start": 67.1067,
      "duration": 0.1024,
      "velocity": 107,
      "chip": "ym2612"
    },
    {
      "channel": 5,
      "note": 112,
      "start": 67.1073,
      "duration": 0.2661,
      "velocity": 108,
      "chip": "ym2612"
    },
    {
      "channel": 1,
      "note": 75,
      "start": 67.2066,
      "duration": 0.1656,
      "velocity": 87,
      "chip": "ym2612"
    },
    {
      "channel": 2,
      "note": 77,
      "start": 67.2071,
      "duration": 0.3661,
      "velocity": 97,
      "chip": "ym2612"
    },
    {
      "channel": 3,
      "note": 65,
      "start": 67.2092,
      "duration": 0.0804,
      "velocity": 107,
      "chip": "ym2612"
    },
    {
      "channel": 0,
      "note": 55,
      "start": 67.2891,
      "duration": 0.283,
      "velocity": 117,
      "chip": "ym2612"
    },
    {
      "channel": 3,
      "note": 67,
      "start": 67.2898,
      "duration": 0.083,
      "velocity": 107,
      "chip": "ym2612"
    },
    {
      "channel": 1,
      "note": 72,
      "start": 67.3724,
      "duration": 0.2003,
      "velocity": 87,
      "chip": "ym2612"
    },
    {
      "channel": 3,
      "note": 70,
      "start": 67.373,
      "duration": 0.0992,
      "velocity": 107,
      "chip": "ym2612"
    },
    {
      "channel": 5,
      "note": 108,
      "start": 67.3737,
      "duration": 0.0993,
      "velocity": 108,
      "chip": "ym2612"
    },
    {
      "channel": 3,
      "note": 72,
      "start": 67.4724,
      "duration": 0.103,
      "velocity": 96,
      "chip": "ym2612"
    },
    {
      "channel": 5,
      "note": 110,
      "start": 67.4731,
      "duration": 0.1834,
      "velocity": 108,
      "chip": "ym2612"
    },
    {
      "channel": 0,
      "note": 58,
      "start": 67.5723,
      "duration": 0.5658,
      "velocity": 117,
      "chip": "ym2612"
    },
    {
      "channel": 1,
      "note": 79,
      "start": 67.5729,
      "duration": 0.0823,
      "velocity": 87,
      "chip": "ym2612"
    },
    {
      "channel": 2,
      "note": 75,
      "start": 67.5735,
      "duration": 0.1823,
      "velocity": 97,
      "chip": "ym2612"
    },
    {
      "channel": 3,
      "note": 65,
      "start": 67.5756,
      "duration": 0.0802,
      "velocity": 96,
      "chip": "ym2612"
    },
    {
      "channel": 1,
      "note": 82,
      "start": 67.6554,
      "duration": 0.0998,
      "velocity": 87,
      "chip": "ym2612"
    },
    {
      "channel": 3,
      "note": 67,
      "start": 67.6561,
      "duration": 0.1003,
      "velocity": 96,
      "chip": "ym2612"
    },
    {
      "channel": 5,
      "note": 112,
      "start": 67.6567,
      "duration": 0.1003,
      "velocity": 108,
      "chip": "ym2612"
    },
    {
      "channel": 1,
      "note": 84,
      "start": 67.7554,
      "duration": 0.0998,
      "velocity": 87,
      "chip": "ym2612"
    },
    {
      "channel": 2,
      "note": 72,
      "start": 67.756,
      "duration": 0.1993,
      "velocity": 97,
      "chip": "ym2612"
    },
    {
      "channel": 3,
      "note": 70,
      "start": 67.7565,
      "duration": 0.0994,
      "velocity": 96,
      "chip": "ym2612"
    },
    {
      "channel": 5,
      "note": 110,
      "start": 67.7572,
      "duration": 0.0993,
      "velocity": 108,
      "chip": "ym2612"
    },
    {
      "channel": 1,
      "note": 77,
      "start": 67.8554,
      "duration": 0.2833,
      "velocity": 87,
      "chip": "ym2612"
    },
    {
      "channel": 3,
      "note": 72,
      "start": 67.8561,
      "duration": 0.1014,
      "velocity": 107,
      "chip": "ym2612"
    },
    {
      "channel": 5,
      "note": 108,
      "start": 67.8567,
      "duration": 0.1827,
      "velocity": 108,
      "chip": "ym2612"
    },
    {
      "channel": 2,
      "note": 79,
      "start": 67.9555,
      "duration": 0.0827,
      "velocity": 97,
      "chip": "ym2612"
    },
    {
      "channel": 3,
      "note": 65,
      "start": 67.9576,
      "duration": 0.0812,
      "velocity": 107,
      "chip": "ym2612"
    },
    {
      "channel": 2,
      "note": 82,
      "start": 68.0384,
      "duration": 0.1009,
      "velocity": 97,
      "chip": "ym2612"
    },
    {
      "channel": 3,
      "note": 67,
      "start": 68.0389,
      "duration": 0.1009,
      "velocity": 107,
      "chip": "ym2612"
    },
    {
      "channel": 5,
      "note": 110,
      "start": 68.0396,
      "duration": 0.1831,
      "velocity": 108,
      "chip": "ym2612"
    },
    {
      "channel": 0,
      "note": 58,
      "start": 68.1383,
      "duration": 0.3829,
      "velocity": 117,
      "chip": "ym2612"
    },
    {
      "channel": 1,
      "note": 75,
      "start": 68.1389,
      "duration": 0.1824,
      "velocity": 87,
      "chip": "ym2612"
    },
    {
      "channel": 2,
      "note": 84,
      "start": 68.1394,
      "duration": 0.082,
      "velocity": 97,
      "chip": "ym2612"
    },
    {
      "channel": 3,
      "note": 70,
      "start": 68.14,
      "duration": 0.0819,
      "velocity": 107,
      "chip": "ym2612"
    },
    {
      "channel": 2,
      "note": 77,
      "start": 68.2216,
      "duration": 0.3008,
      "velocity": 97,
      "chip": "ym2612"
    },
    {
      "channel": 3,
      "note": 72,
      "start": 68.2222,
      "duration": 0.1014,
      "velocity": 96,
      "chip": "ym2612"
    },
    {
      "channel": 5,
      "note": 108,
      "start": 68.2228,
      "duration": 0.1014,
      "velocity": 108,
      "chip": "ym2612"
    },
    {
      "channel": 1,
      "note": 79,
      "start": 68.3215,
      "duration": 0.0997,
      "velocity": 87,
      "chip": "ym2612"
    },
    {
      "channel": 3,
      "note": 65,
      "start": 68.3237,
      "duration": 0.0982,
      "velocity": 96,
      "chip": "ym2612"
    },
    {
      "channel": 5,
      "note": 110,
      "start": 68.3244,
      "duration": 0.0981,
      "velocity": 108,
      "chip": "ym2612"
    },
    {
      "channel": 1,
      "note": 77,
      "start": 68.4215,
      "duration": 0.1004,
      "velocity": 87,
      "chip": "ym2612"
    },
    {
      "channel": 3,
      "note": 67,
      "start": 68.4221,
      "duration": 0.1009,
      "velocity": 96,
      "chip": "ym2612"
    },
    {
      "channel": 5,
      "note": 112,
      "start": 68.4227,
      "duration": 0.183,
      "velocity": 108,
      "chip": "ym2612"
    },
    {
      "channel": 0,
      "note": 58,
      "start": 68.5215,
      "duration": 0.2656,
      "velocity": 117,
      "chip": "ym2612"
    },
    {
      "channel": 1,
      "note": 75,
      "start": 68.522,
      "duration": 0.0824,
      "velocity": 87,
      "chip": "ym2612"
    },
    {
      "channel": 2,
      "note": 75,
      "start": 68.5226,
      "duration": 0.1824,
      "velocity": 97,
      "chip": "ym2612"
    },
    {
      "channel": 3,
      "note": 70,
      "start": 68.5232,
      "duration": 0.0819,
      "velocity": 96,
      "chip": "ym2612"
    },
    {
      "channel": 1,
      "note": 72,
      "start": 68.6047,
      "duration": 0.0998,
      "velocity": 87,
      "chip": "ym2612"
    },
    {
      "channel": 3,
      "note": 72,
      "start": 68.6053,
      "duration": 0.1019,
      "velocity": 107,
      "chip": "ym2612"
    },
    {
      "channel": 5,
      "note": 110,
      "start": 68.6059,
      "duration": 0.2661,
      "velocity": 108,
      "chip": "ym2612"
    },
    {
      "channel": 1,
      "note": 77,
      "start": 68.7047,
      "duration": 0.0829,
      "velocity": 87,
      "chip": "ym2612"
    },
    {
      "channel": 2,
      "note": 79,
      "start": 68.7052,
      "duration": 0.0829,
      "velocity": 97,
      "chip": "ym2612"
    },
    {
      "channel": 3,
      "note": 65,
      "start": 68.7073,
      "duration": 0.0814,
      "velocity": 107,
      "chip": "ym2612"
    },
    {
      "channel": 0,
      "note": 55,
      "start": 68.7872,
      "duration": 0.283,
      "velocity": 117,
      "chip": "ym2612"
    },
    {
      "channel": 1,
      "note": 75,
      "start": 68.7878,
      "duration": 0.0824,
      "velocity": 87,
      "chip": "ym2612"
    },
    {
      "channel": 2,
      "note": 77,
      "start": 68.7884,
      "duration": 0.0824,
      "velocity": 97,
      "chip": "ym2612"
    },
    {
      "channel": 3,
      "note": 67,
      "start": 68.789,
      "duration": 0.0824,
      "velocity": 107,
      "chip": "ym2612"
    },
    {
      "channel": 1,
      "note": 72,
      "start": 68.8705,
      "duration": 0.0998,
      "velocity": 87,
      "chip": "ym2612"
    },
    {
      "channel": 2,
      "note": 75,
      "start": 68.871,
      "duration": 0.0998,
      "velocity": 97,
      "chip": "ym2612"
    },
    {
      "channel": 3,
      "note": 70,
      "start": 68.8716,
      "duration": 0.0998,
      "velocity": 107,
      "chip": "ym2612"
    },
    {
      "channel": 5,
      "note": 112,
      "start": 68.8722,
      "duration": 0.0998,
      "velocity": 108,
      "chip": "ym2612"
    },
    {
      "channel": 1,
      "note": 70,
      "start": 68.9705,
      "duration": 0.1004,
      "velocity": 87,
      "chip": "ym2612"
    },
    {
      "channel": 2,
      "note": 72,
      "start": 68.971,
      "duration": 0.1004,
      "velocity": 97,
      "chip": "ym2612"
    },
    {
      "channel": 3,
      "note": 72,
      "start": 68.9716,
      "duration": 0.1019,
      "velocity": 96,
      "chip": "ym2612"
    },
    {
      "channel": 5,
      "note": 108,
      "start": 68.9722,
      "duration": 0.1827,
      "velocity": 108,
      "chip": "ym2612"
    },
    {
      "channel": 0,
      "note": 53,
      "start": 69.0705,
      "duration": 0.5657,
      "velocity": 117,
      "chip": "ym2612"
    },
    {
      "channel": 1,
      "note": 65,
      "start": 69.071,
      "duration": 2.9806,
      "velocity": 87,
      "chip": "ym2612"
    },
    {
      "channel": 2,
      "note": 77,
      "start": 69.0715,
      "duration": 0.0822,
      "velocity": 97,
      "chip": "ym2612"
    },
    {
      "channel": 3,
      "note": 65,
      "start": 69.0737,
      "duration": 0.0806,
      "velocity": 96,
      "chip": "ym2612"
    },
    {
      "channel": 4,
      "note": 77,
      "start": 69.0743,
      "duration": 0.1805,
      "velocity": 99,
      "chip": "ym2612"
    },
    {
      "channel": 2,
      "note": 75,
      "start": 69.1539,
      "duration": 0.0998,
      "velocity": 97,
      "chip": "ym2612"
    },
    {
      "channel": 3,
      "note": 67,
      "start": 69.1545,
      "duration": 0.0998,
      "velocity": 96,
      "chip": "ym2612"
    },
    {
      "channel": 5,
      "note": 110,
      "start": 69.1551,
      "duration": 0.1003,
      "velocity": 108,
      "chip": "ym2612"
    },
    {
      "channel": 2,
      "note": 72,
      "start": 69.2539,
      "duration": 0.0998,
      "velocity": 97,
      "chip": "ym2612"
    },
    {
      "channel": 3,
      "note": 70,
      "start": 69.2544,
      "duration": 0.0998,
      "velocity": 96,
      "chip": "ym2612"
    },
    {
      "channel": 4,
      "note": 72,
      "start": 69.255,
      "duration": 0.2014,
      "velocity": 99,
      "chip": "ym2612"
    },
    {
      "channel": 5,
      "note": 112,
      "start": 69.2556,
      "duration": 0.0993,
      "velocity": 108,
      "chip": "ym2612"
    },
    {
      "channel": 2,
      "note": 70,
      "start": 69.3539,
      "duration": 0.0998,
      "velocity": 97,
      "chip": "ym2612"
    },
    {
      "channel": 3,
      "note": 72,
      "start": 69.3544,
      "duration": 0.1014,
      "velocity": 107,
      "chip": "ym2612"
    },
    {
      "channel": 5,
      "note": 108,
      "start": 69.3551,
      "duration": 0.1819,
      "velocity": 108,
      "chip": "ym2612"
    },
    {
      "channel": 2,
      "note": 65,
      "start": 69.4539,
      "duration": 2.9808,
      "velocity": 97,
      "chip": "ym2612"
    },
    {
      "channel": 3,
      "note": 65,
      "start": 69.456,
      "duration": 0.0804,
      "velocity": 107,
      "chip": "ym2612"
    },
    {
      "channel": 4,
      "note": 75,
      "start": 69.4565,
      "duration": 0.1809,
      "velocity": 99,
      "chip": "ym2612"
    },
    {
      "channel": 3,
      "note": 67,
      "start": 69.5365,
      "duration": 0.1003,
      "velocity": 107,
      "chip": "ym2612"
    },
    {
      "channel": 5,
      "note": 110,
      "start": 69.5371,
      "duration": 0.183,
      "velocity": 108,
      "chip": "ym2612"
    },
    {
      "channel": 0,
      "note": 53,
      "start": 69.6363,
      "duration": 0.3829,
      "velocity": 117,
      "chip": "ym2612"
    },
    {
      "channel": 3,
      "note": 70,
      "start": 69.637,
      "duration": 0.0824,
      "velocity": 107,
      "chip": "ym2612"
    },
    {
      "channel": 4,
      "note": 77,
      "start": 69.6376,
      "duration": 1.3178,
      "velocity": 99,
      "chip": "ym2612"
    },
    {
      "channel": 3,
      "note": 72,
      "start": 69.7197,
      "duration": 0.1013,
      "velocity": 96,
      "chip": "ym2612"
    },
    {
      "channel": 5,
      "note": 112,
      "start": 69.7203,
      "duration": 0.1013,
      "velocity": 108,
      "chip": "ym2612"
    },
    {
      "channel": 3,
      "note": 65,
      "start": 69.8212,
      "duration": 0.0982,
      "velocity": 96,
      "chip": "ym2612"
    },
    {
      "channel": 5,
      "note": 110,
      "start": 69.8218,
      "duration": 0.0982,
      "velocity": 108,
      "chip": "ym2612"
    },
    {
      "channel": 3,
      "note": 67,
      "start": 69.9196,
      "duration": 0.1003,
      "velocity": 96,
      "chip": "ym2612"
    },
    {
      "channel": 5,
      "note": 108,
      "start": 69.9202,
      "duration": 0.1829,
      "velocity": 108,
      "chip": "ym2612"
    },
    {
      "channel": 0,
      "note": 53,
      "start": 70.0194,
      "duration": 0.2655,
      "velocity": 117,
      "chip": "ym2612"
    },
    {
      "channel": 3,
      "note": 70,
      "start": 70.0201,
      "duration": 0.0823,
      "velocity": 96,
      "chip": "ym2612"
    },
    {
      "channel": 3,
      "note": 72,
      "start": 70.1026,
      "duration": 0.1014,
      "velocity": 107,
      "chip": "ym2612"
    },
    {
      "channel": 5,
      "note": 110,
      "start": 70.1032,
      "duration": 0.2657,
      "velocity": 108,
      "chip": "ym2612"
    },
    {
      "channel": 3,
      "note": 65,
      "start": 70.2042,
      "duration": 0.0814,
      "velocity": 107,
      "chip": "ym2612"
    },
    {
      "channel": 0,
      "note": 53,
      "start": 70.285,
      "duration": 0.283,
      "velocity": 117,
      "chip": "ym2612"
    },
    {
      "channel": 3,
      "note": 67,
      "start": 70.2857,
      "duration": 0.0824,
      "velocity": 107,
      "chip": "ym2612"
    },
    {
      "channel": 3,
      "note": 70,
      "start": 70.3684,
      "duration": 0.0998,
      "velocity": 107,
      "chip": "ym2612"
    },
    {
      "channel": 5,
      "note": 108,
      "start": 70.369,
      "duration": 0.0998,
      "velocity": 108,
      "chip": "ym2612"
    },
    {
      "channel": 3,
      "note": 72,
      "start": 70.4684,
      "duration": 0.1036,
      "velocity": 96,
      "chip": "ym2612"
    },
    {
      "channel": 5,
      "note": 110,
      "start": 70.469,
      "duration": 0.1832,
      "velocity": 108,
      "chip": "ym2612"
    },
    {
      "channel": 0,
      "note": 56,
      "start": 70.5683,
      "duration": 0.5657,
      "velocity": 117,
      "chip": "ym2612"
    },
    {
      "channel": 3,
      "note": 65,
      "start": 70.5721,
      "duration": 0.0795,
      "velocity": 96,
      "chip": "ym2612"
    },
    {
      "channel": 3,
      "note": 67,
      "start": 70.6518,
      "duration": 0.0998,
      "velocity": 96,
      "chip": "ym2612"
    },
    {
      "channel": 5,
      "note": 112,
      "start": 70.6524,
      "duration": 0.0998,
      "velocity": 108,
      "chip": "ym2612"
    },
    {
      "channel": 3,
      "note": 70,
      "start": 70.7517,
      "duration": 0.0998,
      "velocity": 96,
      "chip": "ym2612"
    },
    {
      "channel": 5,
      "note": 110,
      "start": 70.7524,
      "duration": 0.0998,
      "velocity": 108,
      "chip": "ym2612"
    },
    {
      "channel": 3,
      "note": 72,
      "start": 70.8517,
      "duration": 0.1031,
      "velocity": 107,
      "chip": "ym2612"
    },
    {
      "channel": 5,
      "note": 112,
      "start": 70.8524,
      "duration": 0.1824,
      "velocity": 108,
      "chip": "ym2612"
    },
    {
      "channel": 3,
      "note": 65,
      "start": 70.9549,
      "duration": 0.0793,
      "velocity": 107,
      "chip": "ym2612"
    },
    {
      "channel": 4,
      "note": 87,
      "start": 70.9555,
      "duration": 0.3637,
      "velocity": 99,
      "chip": "ym2612"
    },
    {
      "channel": 3,
      "note": 67,
      "start": 71.0344,
      "duration": 0.1002,
      "velocity": 107,
      "chip": "ym2612"
    },
    {
      "channel": 5,
      "note": 108,
      "start": 71.035,
      "duration": 0.1828,
      "velocity": 108,
      "chip": "ym2612"
    },
    {
      "channel": 0,
      "note": 56,
      "start": 71.1341,
      "duration": 0.3828,
      "velocity": 117,
      "chip": "ym2612"
    },
    {
      "channel": 3,
      "note": 70,
      "start": 71.1348,
      "duration": 0.0823,
      "velocity": 107,
      "chip": "ym2612"
    },
    {
      "channel": 3,
      "note": 72,
      "start": 71.2173,
      "duration": 0.1014,
      "velocity": 96,
      "chip": "ym2612"
    },
    {
      "channel": 5,
      "note": 110,
      "start": 71.2179,
      "duration": 0.102,
      "velocity": 108,
      "chip": "ym2612"
    },
    {
      "channel": 3,
      "note": 65,
      "start": 71.3189,
      "duration": 0.0982,
      "velocity": 96,
      "chip": "ym2612"
    },
    {
      "channel": 4,
      "note": 86,
      "start": 71.3194,
      "duration": 0.366,
      "velocity": 99,
      "chip": "ym2612"
    },
    {
      "channel": 5,
      "note": 108,
      "start": 71.32,
      "duration": 0.0978,
      "velocity": 108,
      "chip": "ym2612"
    },
    {
      "channel": 3,
      "note": 67,
      "start": 71.4173,
      "duration": 0.1003,
      "velocity": 96,
      "chip": "ym2612"
    },
    {
      "channel": 5,
      "note": 112,
      "start": 71.4179,
      "duration": 0.4322,
      "velocity": 108,
      "chip": "ym2612"
    },
    {
      "channel": 0,
      "note": 56,
      "start": 71.5171,
      "duration": 0.249,
      "velocity": 117,
      "chip": "ym2612"
    },
    {
      "channel": 3,
      "note": 70,
      "start": 71.5178,
      "duration": 0.0823,
      "velocity": 96,
      "chip": "ym2612"
    },
    {
      "channel": 3,
      "note": 72,
      "start": 71.6002,
      "duration": 0.0846,
      "velocity": 107,
      "chip": "ym2612"
    },
    {
      "channel": 3,
      "note": 65,
      "start": 71.6851,
      "duration": 0.0817,
      "velocity": 107,
      "chip": "ym2612"
    },
    {
      "channel": 4,
      "note": 82,
      "start": 71.6856,
      "duration": 0.3688,
      "velocity": 99,
      "chip": "ym2612"
    },
    {
      "channel": 0,
      "note": 56,
      "start": 71.7663,
      "duration": 0.2831,
      "velocity": 117,
      "chip": "ym2612"
    },
    {
      "channel": 3,
      "note": 67,
      "start": 71.7669,
      "duration": 0.0824,
      "velocity": 107,
      "chip": "ym2612"
    },
    {
      "channel": 3,
      "note": 70,
      "start": 71.8495,
      "duration": 0.0998,
      "velocity": 107,
      "chip": "ym2612"
    },
    {
      "channel": 5,
      "note": 110,
      "start": 71.8502,
      "duration": 0.0999,
      "velocity": 108,
      "chip": "ym2612"
    },
    {
      "channel": 3,
      "note": 72,
      "start": 71.9495,
      "duration": 0.1042,
      "velocity": 96,
      "chip": "ym2612"
    },
    {
      "channel": 5,
      "note": 111,
      "start": 71.9502,
      "duration": 0.1837,
      "velocity": 108,
      "chip": "ym2612"
    },
    {
      "channel": 0,
      "note": 60,
      "start": 72.0495,
      "duration": 0.5655,
      "velocity": 117,
      "chip": "ym2612"
    },
    {
      "channel": 1,
      "note": 72,
      "start": 72.0517,
      "duration": 0.0807,
      "velocity": 87,
      "chip": "ym2612"
    },
    {
      "channel": 3,
      "note": 65,
      "start": 72.0539,
      "duration": 0.0791,
      "velocity": 96,
      "chip": "ym2612"
    },
    {
      "channel": 4,
      "note": 84,
      "start": 72.0546,
      "duration": 0.1791,
      "velocity": 99,
      "chip": "ym2612"
    },
    {
      "channel": 1,
      "note": 70,
      "start": 72.1327,
      "duration": 0.0998,
      "velocity": 87,
      "chip": "ym2612"
    },
    {
      "channel": 3,
      "note": 67,
      "start": 72.1333,
      "duration": 0.0998,
      "velocity": 96,
      "chip": "ym2612"
    },
    {
      "channel": 5,
      "note": 110,
      "start": 72.134,
      "duration": 0.1003,
      "velocity": 108,
      "chip": "ym2612"
    },
    {
      "channel": 1,
      "note": 67,
      "start": 72.2327,
      "duration": 0.0998,
      "velocity": 87,
      "chip": "ym2612"
    },
    {
      "channel": 3,
      "note": 70,
      "start": 72.2333,
      "duration": 0.0998,
      "velocity": 96,
      "chip": "ym2612"
    },
    {
      "channel": 4,
      "note": 79,
      "start": 72.2339,
      "duration": 0.2035,
      "velocity": 99,
      "chip": "ym2612"
    },
    {
      "channel": 5,
      "note": 112,
      "start": 72.2344,
      "duration": 0.0993,
      "velocity": 108,
      "chip": "ym2612"
    },
    {
      "channel": 1,
      "note": 72,
      "start": 72.3327,
      "duration": 0.0998,
      "velocity": 87,
      "chip": "ym2612"
    },
    {
      "channel": 3,
      "note": 72,
      "start": 72.3333,
      "duration": 0.1035,
      "velocity": 107,
      "chip": "ym2612"
    },
    {
      "channel": 5,
      "note": 108,
      "start": 72.3339,
      "duration": 0.183,
      "velocity": 108,
      "chip": "ym2612"
    },
    {
      "channel": 1,
      "note": 70,
      "start": 72.4327,
      "duration": 0.0825,
      "velocity": 87,
      "chip": "ym2612"
    },
    {
      "channel": 2,
      "note": 72,
      "start": 72.4348,
      "duration": 0.0809,
      "velocity": 97,
      "chip": "ym2612"
    },
    {
      "channel": 3,
      "note": 65,
      "start": 72.437,
      "duration": 0.0793,
      "velocity": 107,
      "chip": "ym2612"
    },
    {
      "channel": 4,
      "note": 82,
      "start": 72.4376,
      "duration": 0.1798,
      "velocity": 99,
      "chip": "ym2612"
    },
    {
      "channel": 1,
      "note": 67,
      "start": 72.5153,
      "duration": 0.1003,
      "velocity": 87,
      "chip": "ym2612"
    },
    {
      "channel": 2,
      "note": 70,
      "start": 72.5159,
      "duration": 0.1004,
      "velocity": 97,
      "chip": "ym2612"
    },
    {
      "channel": 3,
      "note": 67,
      "start": 72.5164,
      "duration": 0.1004,
      "velocity": 107,
      "chip": "ym2612"
    },
    {
      "channel": 5,
      "note": 110,
      "start": 72.5171,
      "duration": 0.1831,
      "velocity": 108,
      "chip": "ym2612"
    },
    {
      "channel": 0,
      "note": 60,
      "start": 72.6153,
      "duration": 0.383,
      "velocity": 117,
      "chip": "ym2612"
    },
    {
      "channel": 1,
      "note": 72,
      "start": 72.6158,
      "duration": 0.0826,
      "velocity": 87,
      "chip": "ym2612"
    },
    {
      "channel": 2,
      "note": 67,
      "start": 72.6163,
      "duration": 0.0826,
      "velocity": 97,
      "chip": "ym2612"
    },
    {
      "channel": 3,
      "note": 70,
      "start": 72.6169,
      "duration": 0.0826,
      "velocity": 107,
      "chip": "ym2612"
    },
    {
      "channel": 4,
      "note": 84,
      "start": 72.6175,
      "duration": 2.4313,
      "velocity": 99,
      "chip": "ym2612"
    },
    {
      "channel": 1,
      "note": 70,
      "start": 72.6986,
      "duration": 0.0998,
      "velocity": 87,
      "chip": "ym2612"
    },
    {
      "channel": 2,
      "note": 72,
      "start": 72.6992,
      "duration": 0.0997,
      "velocity": 97,
      "chip": "ym2612"
    },
    {
      "channel": 3,
      "note": 72,
      "start": 72.6997,
      "duration": 0.1014,
      "velocity": 96,
      "chip": "ym2612"
    },
    {
      "channel": 5,
      "note": 112,
      "start": 72.7004,
      "duration": 0.1013,
      "velocity": 108,
      "chip": "ym2612"
    },
    {
      "channel": 1,
      "note": 67,
      "start": 72.7985,
      "duration": 0.0998,
      "velocity": 87,
      "chip": "ym2612"
    },
    {
      "channel": 2,
      "note": 70,
      "start": 72.7991,
      "duration": 0.0998,
      "velocity": 97,
      "chip": "ym2612"
    },
    {
      "channel": 3,
      "note": 65,
      "start": 72.8012,
      "duration": 0.0983,
      "velocity": 96,
      "chip": "ym2612"
    },
    {
      "channel": 5,
      "note": 108,
      "start": 72.8019,
      "duration": 0.0982,
      "velocity": 108,
      "chip": "ym2612"
    },
    {
      "channel": 1,
      "note": 72,
      "start": 72.8985,
      "duration": 0.1003,
      "velocity": 87,
      "chip": "ym2612"
    },
    {
      "channel": 2,
      "note": 67,
      "start": 72.8991,
      "duration": 0.1003,
      "velocity": 97,
      "chip": "ym2612"
    },
    {
      "channel": 3,
      "note": 67,
      "start": 72.8997,
      "duration": 0.1003,
      "velocity": 96,
      "chip": "ym2612"
    },
    {
      "channel": 5,
      "note": 110,
      "start": 72.9003,
      "duration": 0.183,
      "velocity": 108,
      "chip": "ym2612"
    },
    {
      "channel": 0,
      "note": 60,
      "start": 72.9985,
      "duration": 0.2656,
      "velocity": 117,
      "chip": "ym2612"
    },
    {
      "channel": 1,
      "note": 70,
      "start": 72.999,
      "duration": 0.0824,
      "velocity": 87,
      "chip": "ym2612"
    },
    {
      "channel": 2,
      "note": 72,
      "start": 72.9996,
      "duration": 0.0824,
      "velocity": 97,
      "chip": "ym2612"
    },
    {
      "channel": 3,
      "note": 70,
      "start": 73.0002,
      "duration": 0.0824,
      "velocity": 96,
      "chip": "ym2612"
    },
    {
      "channel": 1,
      "note": 67,
      "start": 73.0817,
      "duration": 0.0998,
      "velocity": 87,
      "chip": "ym2612"
    },
    {
      "channel": 2,
      "note": 70,
      "start": 73.0822,
      "duration": 0.0998,
      "velocity": 97,
      "chip": "ym2612"
    },
    {
      "channel": 3,
      "note": 72,
      "start": 73.0828,
      "duration": 0.1014,
      "velocity": 107,
      "chip": "ym2612"
    },
    {
      "channel": 5,
      "note": 112,
      "start": 73.0834,
      "duration": 0.2656,
      "velocity": 108,
      "chip": "ym2612"
    },
    {
      "channel": 1,
      "note": 72,
      "start": 73.1817,
      "duration": 0.0829,
      "velocity": 87,
      "chip": "ym2612"
    },
    {
      "channel": 2,
      "note": 67,
      "start": 73.1822,
      "duration": 0.0829,
      "velocity": 97,
      "chip": "ym2612"
    },
    {
      "channel": 3,
      "note": 65,
      "start": 73.1843,
      "duration": 0.0814,
      "velocity": 107,
      "chip": "ym2612"
    },
    {
      "channel": 0,
      "note": 55,
      "start": 73.2642,
      "duration": 0.2829,
      "velocity": 117,
      "chip": "ym2612"
    },
    {
      "channel": 1,
      "note": 70,
      "start": 73.2648,
      "duration": 0.0824,
      "velocity": 87,
      "chip": "ym2612"
    },
    {
      "channel": 2,
      "note": 72,
      "start": 73.2654,
      "duration": 0.0824,
      "velocity": 97,
      "chip": "ym2612"
    },
    {
      "channel": 3,
      "note": 67,
      "start": 73.266,
      "duration": 0.0824,
      "velocity": 107,
      "chip": "ym2612"
    },
    {
      "channel": 1,
      "note": 67,
      "start": 73.3475,
      "duration": 0.0998,
      "velocity": 87,
      "chip": "ym2612"
    },
    {
      "channel": 2,
      "note": 70,
      "start": 73.348,
      "duration": 0.0998,
      "velocity": 97,
      "chip": "ym2612"
    },
    {
      "channel": 3,
      "note": 70,
      "start": 73.3486,
      "duration": 0.0998,
      "velocity": 107,
      "chip": "ym2612"
    },
    {
      "channel": 5,
      "note": 108,
      "start": 73.3492,
      "duration": 0.0998,
      "velocity": 108,
      "chip": "ym2612"
    },
    {
      "channel": 1,
      "note": 72,
      "start": 73.4475,
      "duration": 0.1003,
      "velocity": 87,
      "chip": "ym2612"
    },
    {
      "channel": 2,
      "note": 67,
      "start": 73.448,
      "duration": 0.1003,
      "velocity": 97,
      "chip": "ym2612"
    },
    {
      "channel": 3,
      "note": 72,
      "start": 73.4486,
      "duration": 0.1019,
      "velocity": 96,
      "chip": "ym2612"
    },
    {
      "channel": 5,
      "note": 110,
      "start": 73.4492,
      "duration": 0.1828,
      "velocity": 108,
      "chip": "ym2612"
    },
    {
      "channel": 0,
      "note": 58,
      "start": 73.5474,
      "duration": 0.5654,
      "velocity": 117,
      "chip": "ym2612"
    },
    {
      "channel": 1,
      "note": 77,
      "start": 73.548,
      "duration": 0.0823,
      "velocity": 87,
      "chip": "ym2612"
    },
    {
      "channel": 2,
      "note": 72,
      "start": 73.5485,
      "duration": 0.0823,
      "velocity": 97,
      "chip": "ym2612"
    },
    {
      "channel": 3,
      "note": 65,
      "start": 73.5507,
      "duration": 0.0807,
      "velocity": 96,
      "chip": "ym2612"
    },
    {
      "channel": 1,
      "note": 75,
      "start": 73.6305,
      "duration": 0.0998,
      "velocity": 87,
      "chip": "ym2612"
    },
    {
      "channel": 2,
      "note": 70,
      "start": 73.631,
      "duration": 0.0998,
      "velocity": 97,
      "chip": "ym2612"
    },
    {
      "channel": 3,
      "note": 67,
      "start": 73.6316,
      "duration": 0.0998,
      "velocity": 96,
      "chip": "ym2612"
    },
    {
      "channel": 5,
      "note": 112,
      "start": 73.6322,
      "duration": 0.0998,
      "velocity": 108,
      "chip": "ym2612"
    },
    {
      "channel": 1,
      "note": 72,
      "start": 73.7305,
      "duration": 0.0998,
      "velocity": 87,
      "chip": "ym2612"
    },
    {
      "channel": 2,
      "note": 67,
      "start": 73.731,
      "duration": 0.0998,
      "velocity": 97,
      "chip": "ym2612"
    },
    {
      "channel": 3,
      "note": 70,
      "start": 73.7316,
      "duration": 0.0998,
      "velocity": 96,
      "chip": "ym2612"
    },
    {
      "channel": 5,
      "note": 110,
      "start": 73.7322,
      "duration": 0.0998,
      "velocity": 108,
      "chip": "ym2612"
    },
    {
      "channel": 1,
      "note": 77,
      "start": 73.8305,
      "duration": 0.0998,
      "velocity": 87,
      "chip": "ym2612"
    },
    {
      "channel": 2,
      "note": 72,
      "start": 73.831,
      "duration": 0.0998,
      "velocity": 97,
      "chip": "ym2612"
    },
    {
      "channel": 3,
      "note": 72,
      "start": 73.8316,
      "duration": 0.1014,
      "velocity": 107,
      "chip": "ym2612"
    },
    {
      "channel": 5,
      "note": 108,
      "start": 73.8322,
      "duration": 0.1824,
      "velocity": 108,
      "chip": "ym2612"
    },
    {
      "channel": 1,
      "note": 75,
      "start": 73.9305,
      "duration": 0.0824,
      "velocity": 87,
      "chip": "ym2612"
    },
    {
      "channel": 2,
      "note": 77,
      "start": 73.931,
      "duration": 0.0824,
      "velocity": 97,
      "chip": "ym2612"
    },
    {
      "channel": 3,
      "note": 65,
      "start": 73.9331,
      "duration": 0.0809,
      "velocity": 107,
      "chip": "ym2612"
    },
    {
      "channel": 1,
      "note": 72,
      "start": 74.0131,
      "duration": 0.1003,
      "velocity": 87,
      "chip": "ym2612"
    },
    {
      "channel": 2,
      "note": 75,
      "start": 74.0137,
      "duration": 0.1003,
      "velocity": 97,
      "chip": "ym2612"
    },
    {
      "channel": 3,
      "note": 67,
      "start": 74.0142,
      "duration": 0.1004,
      "velocity": 107,
      "chip": "ym2612"
    },
    {
      "channel": 5,
      "note": 110,
      "start": 74.0149,
      "duration": 0.183,
      "velocity": 108,
      "chip": "ym2612"
    },
    {
      "channel": 0,
      "note": 58,
      "start": 74.113,
      "duration": 0.3829,
      "velocity": 117,
      "chip": "ym2612"
    },
    {
      "channel": 1,
      "note": 77,
      "start": 74.1136,
      "duration": 0.0824,
      "velocity": 87,
      "chip": "ym2612"
    },
    {
      "channel": 2,
      "note": 72,
      "start": 74.1142,
      "duration": 0.0824,
      "velocity": 97,
      "chip": "ym2612"
    },
    {
      "channel": 3,
      "note": 70,
      "start": 74.1148,
      "duration": 0.0824,
      "velocity": 107,
      "chip": "ym2612"
    },
    {
      "channel": 1,
      "note": 75,
      "start": 74.1963,
      "duration": 0.0998,
      "velocity": 87,
      "chip": "ym2612"
    },
    {
      "channel": 2,
      "note": 77,
      "start": 74.1968,
      "duration": 0.0998,
      "velocity": 97,
      "chip": "ym2612"
    },
    {
      "channel": 3,
      "note": 72,
      "start": 74.1974,
      "duration": 0.1014,
      "velocity": 96,
      "chip": "ym2612"
    },
    {
      "channel": 5,
      "note": 108,
      "start": 74.198,
      "duration": 0.1014,
      "velocity": 108,
      "chip": "ym2612"
    },
    {
      "channel": 1,
      "note": 72,
      "start": 74.2963,
      "duration": 0.0998,
      "velocity": 87,
      "chip": "ym2612"
    },
    {
      "channel": 2,
      "note": 75,
      "start": 74.2968,
      "duration": 0.0998,
      "velocity": 97,
      "chip": "ym2612"
    },
    {
      "channel": 3,
      "note": 65,
      "start": 74.2989,
      "duration": 0.0983,
      "velocity": 96,
      "chip": "ym2612"
    },
    {
      "channel": 5,
      "note": 110,
      "start": 74.2996,
      "duration": 0.0982,
      "velocity": 108,
      "chip": "ym2612"
    },
    {
      "channel": 1,
      "note": 77,
      "start": 74.3963,
      "duration": 0.1003,
      "velocity": 87,
      "chip": "ym2612"
    },
    {
      "channel": 2,
      "note": 72,
      "start": 74.3968,
      "duration": 0.1003,
      "velocity": 97,
      "chip": "ym2612"
    },
    {
      "channel": 3,
      "note": 67,
      "start": 74.3974,
      "duration": 0.1003,
      "velocity": 96,
      "chip": "ym2612"
    },
    {
      "channel": 5,
      "note": 112,
      "start": 74.398,
      "duration": 0.183,
      "velocity": 108,
      "chip": "ym2612"
    },
    {
      "channel": 0,
      "note": 58,
      "start": 74.4962,
      "duration": 0.2656,
      "velocity": 117,
      "chip": "ym2612"
    },
    {
      "channel": 1,
      "note": 75,
      "start": 74.4968,
      "duration": 0.0824,
      "velocity": 87,
      "chip": "ym2612"
    },
    {
      "channel": 2,
      "note": 77,
      "start": 74.4973,
      "duration": 0.0824,
      "velocity": 97,
      "chip": "ym2612"
    },
    {
      "channel": 3,
      "note": 70,
      "start": 74.4979,
      "duration": 0.0824,
      "velocity": 96,
      "chip": "ym2612"
    },
    {
      "channel": 1,
      "note": 72,
      "start": 74.5794,
      "duration": 0.0998,
      "velocity": 87,
      "chip": "ym2612"
    },
    {
      "channel": 2,
      "note": 75,
      "start": 74.58,
      "duration": 0.0998,
      "velocity": 97,
      "chip": "ym2612"
    },
    {
      "channel": 3,
      "note": 72,
      "start": 74.5805,
      "duration": 0.1014,
      "velocity": 107,
      "chip": "ym2612"
    },
    {
      "channel": 5,
      "note": 110,
      "start": 74.5812,
      "duration": 0.2656,
      "velocity": 108,
      "chip": "ym2612"
    },
    {
      "channel": 1,
      "note": 77,
      "start": 74.6794,
      "duration": 0.0829,
      "velocity": 87,
      "chip": "ym2612"
    },
    {
      "channel": 2,
      "note": 72,
      "start": 74.68,
      "duration": 0.0829,
      "velocity": 97,
      "chip": "ym2612"
    },
    {
      "channel": 3,
      "note": 65,
      "start": 74.6821,
      "duration": 0.0814,
      "velocity": 107,
      "chip": "ym2612"
    },
    {
      "channel": 0,
      "note": 55,
      "start": 74.762,
      "duration": 0.283,
      "velocity": 117,
      "chip": "ym2612"
    },
    {
      "channel": 1,
      "note": 75,
      "start": 74.7625,
      "duration": 0.0824,
      "velocity": 87,
      "chip": "ym2612"
    },
    {
      "channel": 2,
      "note": 77,
      "start": 74.7631,
      "duration": 0.0824,
      "velocity": 97,
      "chip": "ym2612"
    },
    {
      "channel": 3,
      "note": 67,
      "start": 74.7637,
      "duration": 0.0824,
      "velocity": 107,
      "chip": "ym2612"
    },
    {
      "channel": 1,
      "note": 72,
      "start": 74.8452,
      "duration": 0.0998,
      "velocity": 87,
      "chip": "ym2612"
    },
    {
      "channel": 2,
      "note": 75,
      "start": 74.8458,
      "duration": 0.0998,
      "velocity": 97,
      "chip": "ym2612"
    },
    {
      "channel": 3,
      "note": 70,
      "start": 74.8463,
      "duration": 0.0998,
      "velocity": 107,
      "chip": "ym2612"
    },
    {
      "channel": 5,
      "note": 112,
      "start": 74.847,
      "duration": 0.0998,
      "velocity": 108,
      "chip": "ym2612"
    },
    {
      "channel": 1,
      "note": 77,
      "start": 74.9452,
      "duration": 0.1004,
      "velocity": 87,
      "chip": "ym2612"
    },
    {
      "channel": 2,
      "note": 72,
      "start": 74.9458,
      "duration": 0.1004,
      "velocity": 97,
      "chip": "ym2612"
    },
    {
      "channel": 3,
      "note": 72,
      "start": 74.9463,
      "duration": 0.1019,
      "velocity": 96,
      "chip": "ym2612"
    },
    {
      "channel": 5,
      "note": 108,
      "start": 74.947,
      "duration": 0.1827,
      "velocity": 108,
      "chip": "ym2612"
    },
    {
      "channel": 0,
      "note": 53,
      "start": 75.0452,
      "duration": 0.5658,
      "velocity": 117,
      "chip": "ym2612"
    },
    {
      "channel": 1,
      "note": 79,
      "start": 75.0457,
      "duration": 14.9254,
      "velocity": 107,
      "chip": "ym2612"
    },
    {
      "channel": 2,
      "note": 77,
      "start": 75.0463,
      "duration": 0.0822,
      "velocity": 97,
      "chip": "ym2612"
    },
    {
      "channel": 3,
      "note": 65,
      "start": 75.0484,
      "duration": 0.0806,
      "velocity": 96,
      "chip": "ym2612"
    },
    {
      "channel": 4,
      "note": 77,
      "start": 75.049,
      "duration": 0.1805,
      "velocity": 99,
      "chip": "ym2612"
    },
    {
      "channel": 2,
      "note": 75,
      "start": 75.1287,
      "duration": 0.0998,
      "velocity": 97,
      "chip": "ym2612"
    },
    {
      "channel": 3,
      "note": 67,
      "start": 75.1292,
      "duration": 0.0998,
      "velocity": 96,
      "chip": "ym2612"
    },
    {
      "channel": 5,
      "note": 110,
      "start": 75.1299,
      "duration": 0.1003,
      "velocity": 108,
      "chip": "ym2612"
    },
    {
      "channel": 2,
      "note": 72,
      "start": 75.2286,
      "duration": 0.0998,
      "velocity": 97,
      "chip": "ym2612"
    },
    {
      "channel": 3,
      "note": 70,
      "start": 75.2292,
      "duration": 0.0998,
      "velocity": 96,
      "chip": "ym2612"
    },
    {
      "channel": 4,
      "note": 72,
      "start": 75.2298,
      "duration": 0.2014,
      "velocity": 99,
      "chip": "ym2612"
    },
    {
      "channel": 5,
      "note": 112,
      "start": 75.2303,
      "duration": 0.0993,
      "velocity": 108,
      "chip": "ym2612"
    },
    {
      "channel": 2,
      "note": 77,
      "start": 75.3286,
      "duration": 0.0998,
      "velocity": 97,
      "chip": "ym2612"
    },
    {
      "channel": 3,
      "note": 72,
      "start": 75.3292,
      "duration": 0.1014,
      "velocity": 107,
      "chip": "ym2612"
    },
    {
      "channel": 5,
      "note": 108,
      "start": 75.3298,
      "duration": 0.182,
      "velocity": 108,
      "chip": "ym2612"
    },
    {
      "channel": 2,
      "note": 79,
      "start": 75.4286,
      "duration": 14.7252,
      "velocity": 96,
      "chip": "ym2612"
    },
    {
      "channel": 3,
      "note": 65,
      "start": 75.4307,
      "duration": 0.0805,
      "velocity": 107,
      "chip": "ym2612"
    },
    {
      "channel": 4,
      "note": 75,
      "start": 75.4313,
      "duration": 0.181,
      "velocity": 99,
      "chip": "ym2612"
    },
    {
      "channel": 3,
      "note": 67,
      "start": 75.5113,
      "duration": 0.1003,
      "velocity": 107,
      "chip": "ym2612"
    },
    {
      "channel": 5,
      "note": 110,
      "start": 75.512,
      "duration": 0.183,
      "velocity": 108,
      "chip": "ym2612"
    },
    {
      "channel": 0,
      "note": 53,
      "start": 75.6112,
      "duration": 0.3829,
      "velocity": 117,
      "chip": "ym2612"
    },
    {
      "channel": 3,
      "note": 70,
      "start": 75.6119,
      "duration": 0.0824,
      "velocity": 107,
      "chip": "ym2612"
    },
    {
      "channel": 4,
      "note": 77,
      "start": 75.6124,
      "duration": 1.3177,
      "velocity": 99,
      "chip": "ym2612"
    },
    {
      "channel": 3,
      "note": 72,
      "start": 75.6945,
      "duration": 0.1013,
      "velocity": 96,
      "chip": "ym2612"
    },
    {
      "channel": 5,
      "note": 112,
      "start": 75.6951,
      "duration": 0.1013,
      "velocity": 108,
      "chip": "ym2612"
    },
    {
      "channel": 3,
      "note": 65,
      "start": 75.796,
      "duration": 0.0982,
      "velocity": 96,
      "chip": "ym2612"
    },
    {
      "channel": 5,
      "note": 110,
      "start": 75.7967,
      "duration": 0.0982,
      "velocity": 108,
      "chip": "ym2612"
    },
    {
      "channel": 3,
      "note": 67,
      "start": 75.8944,
      "duration": 0.1003,
      "velocity": 96,
      "chip": "ym2612"
    },
    {
      "channel": 5,
      "note": 108,
      "start": 75.8951,
      "duration": 0.1829,
      "velocity": 108,
      "chip": "ym2612"
    },
    {
      "channel": 0,
      "note": 53,
      "start": 75.9942,
      "duration": 0.2655,
      "velocity": 117,
      "chip": "ym2612"
    },
    {
      "channel": 3,
      "note": 70,
      "start": 75.9949,
      "duration": 0.0823,
      "velocity": 96,
      "chip": "ym2612"
    },
    {
      "channel": 3,
      "note": 72,
      "start": 76.0774,
      "duration": 0.103,
      "velocity": 107,
      "chip": "ym2612"
    },
    {
      "channel": 5,
      "note": 110,
      "start": 76.078,
      "duration": 0.2657,
      "velocity": 108,
      "chip": "ym2612"
    },
    {
      "channel": 3,
      "note": 65,
      "start": 76.1806,
      "duration": 0.0798,
      "velocity": 107,
      "chip": "ym2612"
    },
    {
      "channel": 0,
      "note": 53,
      "start": 76.2599,
      "duration": 0.2829,
      "velocity": 117,
      "chip": "ym2612"
    },
    {
      "channel": 3,
      "note": 67,
      "start": 76.2605,
      "duration": 0.0824,
      "velocity": 107,
      "chip": "ym2612"
    },
    {
      "channel": 3,
      "note": 70,
      "start": 76.3432,
      "duration": 0.0998,
      "velocity": 107,
      "chip": "ym2612"
    },
    {
      "channel": 5,
      "note": 108,
      "start": 76.3438,
      "duration": 0.0998,
      "velocity": 108,
      "chip": "ym2612"
    },
    {
      "channel": 3,
      "note": 72,
      "start": 76.4432,
      "duration": 0.1036,
      "velocity": 96,
      "chip": "ym2612"
    },
    {
      "channel": 5,
      "note": 110,
      "start": 76.4438,
      "duration": 0.1832,
      "velocity": 108,
      "chip": "ym2612"
    },
    {
      "channel": 0,
      "note": 56,
      "start": 76.5431,
      "duration": 0.5657,
      "velocity": 117,
      "chip": "ym2612"
    },
    {
      "channel": 3,
      "note": 65,
      "start": 76.5469,
      "duration": 0.0795,
      "velocity": 96,
      "chip": "ym2612"
    },
    {
      "channel": 3,
      "note": 67,
      "start": 76.6266,
      "duration": 0.0998,
      "velocity": 96,
      "chip": "ym2612"
    },
    {
      "channel": 5,
      "note": 112,
      "start": 76.6272,
      "duration": 0.0998,
      "velocity": 108,
      "chip": "ym2612"
    },
    {
      "channel": 3,
      "note": 70,
      "start": 76.7265,
      "duration": 0.0998,
      "velocity": 96,
      "chip": "ym2612"
    },
    {
      "channel": 5,
      "note": 110,
      "start": 76.7272,
      "duration": 0.0998,
      "velocity": 108,
      "chip": "ym2612"
    },
    {
      "channel": 3,
      "note": 72,
      "start": 76.8265,
      "duration": 0.1031,
      "velocity": 107,
      "chip": "ym2612"
    },
    {
      "channel": 5,
      "note": 112,
      "start": 76.8272,
      "duration": 0.1825,
      "velocity": 108,
      "chip": "ym2612"
    },
    {
      "channel": 3,
      "note": 65,
      "start": 76.9297,
      "duration": 0.0793,
      "velocity": 107,
      "chip": "ym2612"
    },
    {
      "channel": 4,
      "note": 87,
      "start": 76.9303,
      "duration": 0.3637,
      "velocity": 99,
      "chip": "ym2612"
    },
    {
      "channel": 3,
      "note": 67,
      "start": 77.0092,
      "duration": 0.1002,
      "velocity": 107,
      "chip": "ym2612"
    },
    {
      "channel": 5,
      "note": 108,
      "start": 77.0098,
      "duration": 0.1828,
      "velocity": 108,
      "chip": "ym2612"
    },
    {
      "channel": 0,
      "note": 56,
      "start": 77.1089,
      "duration": 0.3828,
      "velocity": 117,
      "chip": "ym2612"
    },
    {
      "channel": 3,
      "note": 70,
      "start": 77.1096,
      "duration": 0.0822,
      "velocity": 107,
      "chip": "ym2612"
    },
    {
      "channel": 3,
      "note": 72,
      "start": 77.1921,
      "duration": 0.1014,
      "velocity": 96,
      "chip": "ym2612"
    },
    {
      "channel": 5,
      "note": 110,
      "start": 77.1927,
      "duration": 0.102,
      "velocity": 108,
      "chip": "ym2612"
    },
    {
      "channel": 3,
      "note": 65,
      "start": 77.2937,
      "duration": 0.0982,
      "velocity": 96,
      "chip": "ym2612"
    },
    {
      "channel": 4,
      "note": 86,
      "start": 77.2942,
      "duration": 0.3659,
      "velocity": 99,
      "chip": "ym2612"
    },
    {
      "channel": 5,
      "note": 108,
      "start": 77.2948,
      "duration": 0.0978,
      "velocity": 108,
      "chip": "ym2612"
    },
    {
      "channel": 3,
      "note": 67,
      "start": 77.3921,
      "duration": 0.1003,
      "velocity": 96,
      "chip": "ym2612"
    },
    {
      "channel": 5,
      "note": 112,
      "start": 77.3927,
      "duration": 0.432,
      "velocity": 108,
      "chip": "ym2612"
    },
    {
      "channel": 0,
      "note": 56,
      "start": 77.4919,
      "duration": 0.2489,
      "velocity": 117,
      "chip": "ym2612"
    },
    {
      "channel": 3,
      "note": 70,
      "start": 77.4926,
      "duration": 0.0822,
      "velocity": 96,
      "chip": "ym2612"
    },
    {
      "channel": 3,
      "note": 72,
      "start": 77.5749,
      "duration": 0.0846,
      "velocity": 107,
      "chip": "ym2612"
    },
    {
      "channel": 3,
      "note": 65,
      "start": 77.6597,
      "duration": 0.0817,
      "velocity": 107,
      "chip": "ym2612"
    },
    {
      "channel": 4,
      "note": 82,
      "start": 77.6603,
      "duration": 0.3667,
      "velocity": 99,
      "chip": "ym2612"
    },
    {
      "channel": 0,
      "note": 56,
      "start": 77.741,
      "duration": 0.2831,
      "velocity": 117,
      "chip": "ym2612"
    },
    {
      "channel": 3,
      "note": 67,
      "start": 77.7416,
      "duration": 0.0824,
      "velocity": 107,
      "chip": "ym2612"
    },
    {
      "channel": 3,
      "note": 70,
      "start": 77.8242,
      "duration": 0.0999,
      "velocity": 107,
      "chip": "ym2612"
    },
    {
      "channel": 5,
      "note": 110,
      "start": 77.8249,
      "duration": 0.0999,
      "velocity": 108,
      "chip": "ym2612"
    },
    {
      "channel": 3,
      "note": 72,
      "start": 77.9242,
      "duration": 0.1021,
      "velocity": 96,
      "chip": "ym2612"
    },
    {
      "channel": 5,
      "note": 111,
      "start": 77.9249,
      "duration": 0.183,
      "velocity": 108,
      "chip": "ym2612"
    },
    {
      "channel": 0,
      "note": 60,
      "start": 78.0242,
      "duration": 0.5654,
      "velocity": 117,
      "chip": "ym2612"
    },
    {
      "channel": 3,
      "note": 65,
      "start": 78.0265,
      "duration": 0.0806,
      "velocity": 96,
      "chip": "ym2612"
    },
    {
      "channel": 4,
      "note": 84,
      "start": 78.0271,
      "duration": 0.1805,
      "velocity": 99,
      "chip": "ym2612"
    },
    {
      "channel": 3,
      "note": 67,
      "start": 78.1073,
      "duration": 0.0998,
      "velocity": 96,
      "chip": "ym2612"
    },
    {
      "channel": 5,
      "note": 110,
      "start": 78.108,
      "duration": 0.1002,
      "velocity": 108,
      "chip": "ym2612"
    },
    {
      "channel": 3,
      "note": 70,
      "start": 78.2073,
      "duration": 0.0998,
      "velocity": 96,
      "chip": "ym2612"
    },
    {
      "channel": 4,
      "note": 79,
      "start": 78.2078,
      "duration": 0.2014,
      "velocity": 99,
      "chip": "ym2612"
    },
    {
      "channel": 5,
      "note": 112,
      "start": 78.2084,
      "duration": 0.0994,
      "velocity": 108,
      "chip": "ym2612"
    },
    {
      "channel": 3,
      "note": 72,
      "start": 78.3073,
      "duration": 0.1014,
      "velocity": 107,
      "chip": "ym2612"
    },
    {
      "channel": 5,
      "note": 108,
      "start": 78.3079,
      "duration": 0.1825,
      "velocity": 108,
      "chip": "ym2612"
    },
    {
      "channel": 3,
      "note": 65,
      "start": 78.4089,
      "duration": 0.0809,
      "velocity": 107,
      "chip": "ym2612"
    },
    {
      "channel": 4,
      "note": 82,
      "start": 78.4094,
      "duration": 0.1814,
      "velocity": 99,
      "chip": "ym2612"
    },
    {
      "channel": 3,
      "note": 67,
      "start": 78.4899,
      "duration": 0.1004,
      "velocity": 107,
      "chip": "ym2612"
    },
    {
      "channel": 5,
      "note": 110,
      "start": 78.4905,
      "duration": 0.183,
      "velocity": 108,
      "chip": "ym2612"
    },
    {
      "channel": 0,
      "note": 60,
      "start": 78.5898,
      "duration": 0.3829,
      "velocity": 117,
      "chip": "ym2612"
    },
    {
      "channel": 3,
      "note": 70,
      "start": 78.5905,
      "duration": 0.0824,
      "velocity": 107,
      "chip": "ym2612"
    },
    {
      "channel": 4,
      "note": 84,
      "start": 78.5911,
      "duration": 2.43,
      "velocity": 99,
      "chip": "ym2612"
    },
    {
      "channel": 3,
      "note": 72,
      "start": 78.6731,
      "duration": 0.1013,
      "velocity": 96,
      "chip": "ym2612"
    },
    {
      "channel": 5,
      "note": 112,
      "start": 78.6737,
      "duration": 0.1013,
      "velocity": 108,
      "chip": "ym2612"
    },
    {
      "channel": 3,
      "note": 65,
      "start": 78.7746,
      "duration": 0.0982,
      "velocity": 96,
      "chip": "ym2612"
    },
    {
      "channel": 5,
      "note": 108,
      "start": 78.7753,
      "duration": 0.0982,
      "velocity": 108,
      "chip": "ym2612"
    },
    {
      "channel": 3,
      "note": 67,
      "start": 78.873,
      "duration": 0.1003,
      "velocity": 96,
      "chip": "ym2612"
    },
    {
      "channel": 5,
      "note": 110,
      "start": 78.8737,
      "duration": 0.1828,
      "velocity": 108,
      "chip": "ym2612"
    },
    {
      "channel": 0,
      "note": 60,
      "start": 78.9728,
      "duration": 0.2653,
      "velocity": 117,
      "chip": "ym2612"
    },
    {
      "channel": 3,
      "note": 70,
      "start": 78.9735,
      "duration": 0.0822,
      "velocity": 96,
      "chip": "ym2612"
    },
    {
      "channel": 3,
      "note": 72,
      "start": 79.0559,
      "duration": 0.1014,
      "velocity": 107,
      "chip": "ym2612"
    },
    {
      "channel": 5,
      "note": 112,
      "start": 79.0565,
      "duration": 0.2656,
      "velocity": 108,
      "chip": "ym2612"
    },
    {
      "channel": 3,
      "note": 65,
      "start": 79.1575,
      "duration": 0.0812,
      "velocity": 107,
      "chip": "ym2612"
    },
    {
      "channel": 0,
      "note": 55,
      "start": 79.2382,
      "duration": 0.283,
      "velocity": 117,
      "chip": "ym2612"
    },
    {
      "channel": 3,
      "note": 67,
      "start": 79.2389,
      "duration": 0.0824,
      "velocity": 107,
      "chip": "ym2612"
    },
    {
      "channel": 3,
      "note": 70,
      "start": 79.3216,
      "duration": 0.0998,
      "velocity": 107,
      "chip": "ym2612"
    },
    {
      "channel": 5,
      "note": 108,
      "start": 79.3222,
      "duration": 0.0998,
      "velocity": 108,
      "chip": "ym2612"
    },
    {
      "channel": 3,
      "note": 72,
      "start": 79.4216,
      "duration": 0.1019,
      "velocity": 96,
      "chip": "ym2612"
    },
    {
      "channel": 5,
      "note": 110,
      "start": 79.4222,
      "duration": 0.1829,
      "velocity": 108,
      "chip": "ym2612"
    },
    {
      "channel": 0,
      "note": 58,
      "start": 79.5214,
      "duration": 0.5653,
      "velocity": 117,
      "chip": "ym2612"
    },
    {
      "channel": 3,
      "note": 65,
      "start": 79.5237,
      "duration": 0.0807,
      "velocity": 96,
      "chip": "ym2612"
    },
    {
      "channel": 3,
      "note": 67,
      "start": 79.6046,
      "duration": 0.0998,
      "velocity": 96,
      "chip": "ym2612"
    },
    {
      "channel": 5,
      "note": 112,
      "start": 79.6052,
      "duration": 0.0998,
      "velocity": 108,
      "chip": "ym2612"
    },
    {
      "channel": 3,
      "note": 70,
      "start": 79.7046,
      "duration": 0.0998,
      "velocity": 96,
      "chip": "ym2612"
    },
    {
      "channel": 5,
      "note": 110,
      "start": 79.7052,
      "duration": 0.0998,
      "velocity": 108,
      "chip": "ym2612"
    },
    {
      "channel": 3,
      "note": 72,
      "start": 79.8046,
      "duration": 0.1014,
      "velocity": 107,
      "chip": "ym2612"
    },
    {
      "channel": 5,
      "note": 108,
      "start": 79.8052,
      "duration": 0.1823,
      "velocity": 108,
      "chip": "ym2612"
    },
    {
      "channel": 3,
      "note": 65,
      "start": 79.9062,
      "duration": 0.0807,
      "velocity": 107,
      "chip": "ym2612"
    },
    {
      "channel": 3,
      "note": 67,
      "start": 79.9871,
      "duration": 0.1003,
      "velocity": 107,
      "chip": "ym2612"
    },
    {
      "channel": 5,
      "note": 110,
      "start": 79.9877,
      "duration": 0.1829,
      "velocity": 108,
      "chip": "ym2612"
    },
    {
      "channel": 0,
      "note": 58,
      "start": 80.0869,
      "duration": 0.3828,
      "velocity": 117,
      "chip": "ym2612"
    },
    {
      "channel": 3,
      "note": 70,
      "start": 80.0876,
      "duration": 0.0823,
      "velocity": 107,
      "chip": "ym2612"
    },
    {
      "channel": 3,
      "note": 72,
      "start": 80.17,
      "duration": 0.1014,
      "velocity": 96,
      "chip": "ym2612"
    },
    {
      "channel": 5,
      "note": 108,
      "start": 80.1707,
      "duration": 0.1014,
      "velocity": 108,
      "chip": "ym2612"
    },
    {
      "channel": 3,
      "note": 65,
      "start": 80.2717,
      "duration": 0.0982,
      "velocity": 96,
      "chip": "ym2612"
    },
    {
      "channel": 5,
      "note": 110,
      "start": 80.2723,
      "duration": 0.0982,
      "velocity": 108,
      "chip": "ym2612"
    },
    {
      "channel": 3,
      "note": 67,
      "start": 80.37,
      "duration": 0.1003,
      "velocity": 96,
      "chip": "ym2612"
    },
    {
      "channel": 5,
      "note": 112,
      "start": 80.3707,
      "duration": 0.1828,
      "velocity": 108,
      "chip": "ym2612"
    },
    {
      "channel": 0,
      "note": 58,
      "start": 80.4699,
      "duration": 0.2654,
      "velocity": 117,
      "chip": "ym2612"
    },
    {
      "channel": 3,
      "note": 70,
      "start": 80.4706,
      "duration": 0.0822,
      "velocity": 96,
      "chip": "ym2612"
    },
    {
      "channel": 3,
      "note": 72,
      "start": 80.5529,
      "duration": 0.1014,
      "velocity": 107,
      "chip": "ym2612"
    },
    {
      "channel": 5,
      "note": 110,
      "start": 80.5536,
      "duration": 0.2655,
      "velocity": 108,
      "chip": "ym2612"
    },
    {
      "channel": 3,
      "note": 65,
      "start": 80.6546,
      "duration": 0.0813,
      "velocity": 107,
      "chip": "ym2612"
    },
    {
      "channel": 0,
      "note": 55,
      "start": 80.7354,
      "duration": 0.2828,
      "velocity": 117,
      "chip": "ym2612"
    },
    {
      "channel": 3,
      "note": 67,
      "start": 80.7361,
      "duration": 0.0823,
      "velocity": 107,
      "chip": "ym2612"
    },
    {
      "channel": 3,
      "note": 70,
      "start": 80.8185,
      "duration": 0.0998,
      "velocity": 107,
      "chip": "ym2612"
    },
    {
      "channel": 5,
      "note": 112,
      "start": 80.8192,
      "duration": 0.0998,
      "velocity": 108,
      "chip": "ym2612"
    },
    {
      "channel": 3,
      "note": 72,
      "start": 80.9185,
      "duration": 0.102,
      "velocity": 96,
      "chip": "ym2612"
    },
    {
      "channel": 5,
      "note": 108,
      "start": 80.9192,
      "duration": 0.1828,
      "velocity": 108,
      "chip": "ym2612"
    },
    {
      "channel": 0,
      "note": 53,
      "start": 81.0184,
      "duration": 0.5654,
      "velocity": 117,
      "chip": "ym2612"
    },
    {
      "channel": 3,
      "note": 65,
      "start": 81.0207,
      "duration": 0.0807,
      "velocity": 96,
      "chip": "ym2612"
    },
    {
      "channel": 4,
      "note": 77,
      "start": 81.0212,
      "duration": 0.1807,
      "velocity": 99,
      "chip": "ym2612"
    },
    {
      "channel": 3,
      "note": 67,
      "start": 81.1016,
      "duration": 0.0998,
      "velocity": 96,
      "chip": "ym2612"
    },
    {
      "channel": 5,
      "note": 110,
      "start": 81.1022,
      "duration": 0.1003,
      "velocity": 108,
      "chip": "ym2612"
    },
    {
      "channel": 3,
      "note": 70,
      "start": 81.2015,
      "duration": 0.0998,
      "velocity": 96,
      "chip": "ym2612"
    },
    {
      "channel": 4,
      "note": 72,
      "start": 81.2021,
      "duration": 0.2014,
      "velocity": 99,
      "chip": "ym2612"
    },
    {
      "channel": 5,
      "note": 112,
      "start": 81.2027,
      "duration": 0.0994,
      "velocity": 108,
      "chip": "ym2612"
    },
    {
      "channel": 3,
      "note": 72,
      "start": 81.3015,
      "duration": 0.1014,
      "velocity": 107,
      "chip": "ym2612"
    },
    {
      "channel": 5,
      "note": 108,
      "start": 81.3021,
      "duration": 0.1825,
      "velocity": 108,
      "chip": "ym2612"
    },
    {
      "channel": 3,
      "note": 65,
      "start": 81.4031,
      "duration": 0.0809,
      "velocity": 107,
      "chip": "ym2612"
    },
    {
      "channel": 4,
      "note": 75,
      "start": 81.4037,
      "duration": 0.1814,
      "velocity": 99,
      "chip": "ym2612"
    },
    {
      "channel": 3,
      "note": 67,
      "start": 81.4841,
      "duration": 0.1004,
      "velocity": 107,
      "chip": "ym2612"
    },
    {
      "channel": 5,
      "note": 110,
      "start": 81.4848,
      "duration": 0.183,
      "velocity": 108,
      "chip": "ym2612"
    },
    {
      "channel": 0,
      "note": 53,
      "start": 81.584,
      "duration": 0.3829,
      "velocity": 117,
      "chip": "ym2612"
    },
    {
      "channel": 3,
      "note": 70,
      "start": 81.5847,
      "duration": 0.0824,
      "velocity": 107,
      "chip": "ym2612"
    },
    {
      "channel": 4,
      "note": 77,
      "start": 81.5853,
      "duration": 1.3155,
      "velocity": 99,
      "chip": "ym2612"
    },
    {
      "channel": 3,
      "note": 72,
      "start": 81.6673,
      "duration": 0.1013,
      "velocity": 96,
      "chip": "ym2612"
    },
    {
      "channel": 5,
      "note": 112,
      "start": 81.668,
      "duration": 0.1013,
      "velocity": 108,
      "chip": "ym2612"
    },
    {
      "channel": 3,
      "note": 65,
      "start": 81.7689,
      "duration": 0.0982,
      "velocity": 96,
      "chip": "ym2612"
    },
    {
      "channel": 5,
      "note": 110,
      "start": 81.7695,
      "duration": 0.0982,
      "velocity": 108,
      "chip": "ym2612"
    },
    {
      "channel": 3,
      "note": 67,
      "start": 81.8673,
      "duration": 0.1003,
      "velocity": 96,
      "chip": "ym2612"
    },
    {
      "channel": 5,
      "note": 108,
      "start": 81.8679,
      "duration": 0.1828,
      "velocity": 108,
      "chip": "ym2612"
    },
    {
      "channel": 0,
      "note": 53,
      "start": 81.9671,
      "duration": 0.2653,
      "velocity": 117,
      "chip": "ym2612"
    },
    {
      "channel": 3,
      "note": 70,
      "start": 81.9678,
      "duration": 0.0822,
      "velocity": 96,
      "chip": "ym2612"
    },
    {
      "channel": 3,
      "note": 72,
      "start": 82.0502,
      "duration": 0.1014,
      "velocity": 107,
      "chip": "ym2612"
    },
    {
      "channel": 5,
      "note": 110,
      "start": 82.0508,
      "duration": 0.2656,
      "velocity": 108,
      "chip": "ym2612"
    },
    {
      "channel": 3,
      "note": 65,
      "start": 82.1518,
      "duration": 0.0812,
      "velocity": 107,
      "chip": "ym2612"
    },
    {
      "channel": 0,
      "note": 53,
      "start": 82.2325,
      "duration": 0.283,
      "velocity": 117,
      "chip": "ym2612"
    },
    {
      "channel": 3,
      "note": 67,
      "start": 82.2332,
      "duration": 0.0824,
      "velocity": 107,
      "chip": "ym2612"
    },
    {
      "channel": 3,
      "note": 70,
      "start": 82.3158,
      "duration": 0.0998,
      "velocity": 107,
      "chip": "ym2612"
    },
    {
      "channel": 5,
      "note": 108,
      "start": 82.3165,
      "duration": 0.0998,
      "velocity": 108,
      "chip": "ym2612"
    },
    {
      "channel": 3,
      "note": 72,
      "start": 82.4158,
      "duration": 0.1019,
      "velocity": 96,
      "chip": "ym2612"
    },
    {
      "channel": 5,
      "note": 110,
      "start": 82.4165,
      "duration": 0.1829,
      "velocity": 108,
      "chip": "ym2612"
    },
    {
      "channel": 0,
      "note": 56,
      "start": 82.5156,
      "duration": 0.5656,
      "velocity": 117,
      "chip": "ym2612"
    },
    {
      "channel": 3,
      "note": 65,
      "start": 82.5179,
      "duration": 0.0807,
      "velocity": 96,
      "chip": "ym2612"
    },
    {
      "channel": 3,
      "note": 67,
      "start": 82.5988,
      "duration": 0.0998,
      "velocity": 96,
      "chip": "ym2612"
    },
    {
      "channel": 5,
      "note": 112,
      "start": 82.5995,
      "duration": 0.0998,
      "velocity": 108,
      "chip": "ym2612"
    },
    {
      "channel": 3,
      "note": 70,
      "start": 82.6988,
      "duration": 0.0998,
      "velocity": 96,
      "chip": "ym2612"
    },
    {
      "channel": 5,
      "note": 110,
      "start": 82.6995,
      "duration": 0.0998,
      "velocity": 108,
      "chip": "ym2612"
    },
    {
      "channel": 3,
      "note": 72,
      "start": 82.7988,
      "duration": 0.1014,
      "velocity": 107,
      "chip": "ym2612"
    },
    {
      "channel": 5,
      "note": 112,
      "start": 82.7995,
      "duration": 0.1826,
      "velocity": 108,
      "chip": "ym2612"
    },
    {
      "channel": 3,
      "note": 65,
      "start": 82.9005,
      "duration": 0.081,
      "velocity": 107,
      "chip": "ym2612"
    },
    {
      "channel": 4,
      "note": 87,
      "start": 82.901,
      "duration": 0.3655,
      "velocity": 99,
      "chip": "ym2612"
    },
    {
      "channel": 3,
      "note": 67,
      "start": 82.9816,
      "duration": 0.1003,
      "velocity": 107,
      "chip": "ym2612"
    },
    {
      "channel": 5,
      "note": 108,
      "start": 82.9822,
      "duration": 0.1829,
      "velocity": 108,
      "chip": "ym2612"
    },
    {
      "channel": 0,
      "note": 56,
      "start": 83.0814,
      "duration": 0.3828,
      "velocity": 117,
      "chip": "ym2612"
    },
    {
      "channel": 3,
      "note": 70,
      "start": 83.0821,
      "duration": 0.0823,
      "velocity": 107,
      "chip": "ym2612"
    },
    {
      "channel": 3,
      "note": 72,
      "start": 83.1646,
      "duration": 0.1014,
      "velocity": 96,
      "chip": "ym2612"
    },
    {
      "channel": 5,
      "note": 110,
      "start": 83.1652,
      "duration": 0.102,
      "velocity": 108,
      "chip": "ym2612"
    },
    {
      "channel": 3,
      "note": 65,
      "start": 83.2662,
      "duration": 0.0982,
      "velocity": 96,
      "chip": "ym2612"
    },
    {
      "channel": 4,
      "note": 86,
      "start": 83.2667,
      "duration": 0.3658,
      "velocity": 99,
      "chip": "ym2612"
    },
    {
      "channel": 5,
      "note": 108,
      "start": 83.2673,
      "duration": 0.0978,
      "velocity": 108,
      "chip": "ym2612"
    },
    {
      "channel": 3,
      "note": 67,
      "start": 83.3646,
      "duration": 0.1003,
      "velocity": 96,
      "chip": "ym2612"
    },
    {
      "channel": 5,
      "note": 112,
      "start": 83.3652,
      "duration": 0.4319,
      "velocity": 108,
      "chip": "ym2612"
    },
    {
      "channel": 0,
      "note": 56,
      "start": 83.4644,
      "duration": 0.2486,
      "velocity": 117,
      "chip": "ym2612"
    },
    {
      "channel": 3,
      "note": 70,
      "start": 83.4651,
      "duration": 0.0822,
      "velocity": 96,
      "chip": "ym2612"
    },
    {
      "channel": 3,
      "note": 72,
      "start": 83.5474,
      "duration": 0.0845,
      "velocity": 107,
      "chip": "ym2612"
    },
    {
      "channel": 3,
      "note": 65,
      "start": 83.6322,
      "duration": 0.0815,
      "velocity": 107,
      "chip": "ym2612"
    },
    {
      "channel": 4,
      "note": 82,
      "start": 83.6327,
      "duration": 0.3665,
      "velocity": 99,
      "chip": "ym2612"
    },
    {
      "channel": 0,
      "note": 56,
      "start": 83.7132,
      "duration": 0.2831,
      "velocity": 117,
      "chip": "ym2612"
    },
    {
      "channel": 3,
      "note": 67,
      "start": 83.7139,
      "duration": 0.0824,
      "velocity": 107,
      "chip": "ym2612"
    },
    {
      "channel": 3,
      "note": 70,
      "start": 83.7965,
      "duration": 0.0999,
      "velocity": 107,
      "chip": "ym2612"
    },
    {
      "channel": 5,
      "note": 110,
      "start": 83.7972,
      "duration": 0.0999,
      "velocity": 108,
      "chip": "ym2612"
    },
    {
      "channel": 3,
      "note": 72,
      "start": 83.8965,
      "duration": 0.1021,
      "velocity": 96,
      "chip": "ym2612"
    },
    {
      "channel": 5,
      "note": 111,
      "start": 83.8972,
      "duration": 0.183,
      "velocity": 108,
      "chip": "ym2612"
    },
    {
      "channel": 0,
      "note": 60,
      "start": 83.9965,
      "duration": 0.5654,
      "velocity": 117,
      "chip": "ym2612"
    },
    {
      "channel": 3,
      "note": 65,
      "start": 83.9988,
      "duration": 0.0807,
      "velocity": 96,
      "chip": "ym2612"
    },
    {
      "channel": 4,
      "note": 84,
      "start": 83.9995,
      "duration": 0.1805,
      "velocity": 99,
      "chip": "ym2612"
    },
    {
      "channel": 3,
      "note": 67,
      "start": 84.0796,
      "duration": 0.0998,
      "velocity": 96,
      "chip": "ym2612"
    },
    {
      "channel": 5,
      "note": 110,
      "start": 84.0804,
      "duration": 0.1002,
      "velocity": 108,
      "chip": "ym2612"
    },
    {
      "channel": 3,
      "note": 70,
      "start": 84.1796,
      "duration": 0.0998,
      "velocity": 96,
      "chip": "ym2612"
    },
    {
      "channel": 4,
      "note": 79,
      "start": 84.1802,
      "duration": 0.2014,
      "velocity": 99,
      "chip": "ym2612"
    },
    {
      "channel": 5,
      "note": 112,
      "start": 84.1807,
      "duration": 0.0994,
      "velocity": 108,
      "chip": "ym2612"
    },
    {
      "channel": 3,
      "note": 72,
      "start": 84.2796,
      "duration": 0.1014,
      "velocity": 107,
      "chip": "ym2612"
    },
    {
      "channel": 5,
      "note": 108,
      "start": 84.2802,
      "duration": 0.1825,
      "velocity": 108,
      "chip": "ym2612"
    },
    {
      "channel": 3,
      "note": 65,
      "start": 84.3812,
      "duration": 0.0809,
      "velocity": 107,
      "chip": "ym2612"
    },
    {
      "channel": 4,
      "note": 82,
      "start": 84.3818,
      "duration": 0.1814,
      "velocity": 99,
      "chip": "ym2612"
    },
    {
      "channel": 3,
      "note": 67,
      "start": 84.4622,
      "duration": 0.1004,
      "velocity": 107,
      "chip": "ym2612"
    },
    {
      "channel": 5,
      "note": 110,
      "start": 84.4629,
      "duration": 0.183,
      "velocity": 108,
      "chip": "ym2612"
    },
    {
      "channel": 0,
      "note": 60,
      "start": 84.5621,
      "duration": 0.3829,
      "velocity": 117,
      "chip": "ym2612"
    },
    {
      "channel": 3,
      "note": 70,
      "start": 84.5628,
      "duration": 0.0824,
      "velocity": 107,
      "chip": "ym2612"
    },
    {
      "channel": 4,
      "note": 84,
      "start": 84.5634,
      "duration": 2.4302,
      "velocity": 99,
      "chip": "ym2612"
    },
    {
      "channel": 3,
      "note": 72,
      "start": 84.6455,
      "duration": 0.1013,
      "velocity": 96,
      "chip": "ym2612"
    },
    {
      "channel": 5,
      "note": 112,
      "start": 84.6461,
      "duration": 0.1013,
      "velocity": 108,
      "chip": "ym2612"
    },
    {
      "channel": 3,
      "note": 65,
      "start": 84.747,
      "duration": 0.0982,
      "velocity": 96,
      "chip": "ym2612"
    },
    {
      "channel": 5,
      "note": 108,
      "start": 84.7476,
      "duration": 0.0982,
      "velocity": 108,
      "chip": "ym2612"
    },
    {
      "channel": 3,
      "note": 67,
      "start": 84.8454,
      "duration": 0.1003,
      "velocity": 96,
      "chip": "ym2612"
    },
    {
      "channel": 5,
      "note": 110,
      "start": 84.846,
      "duration": 0.1828,
      "velocity": 108,
      "chip": "ym2612"
    },
    {
      "channel": 0,
      "note": 60,
      "start": 84.9452,
      "duration": 0.2653,
      "velocity": 117,
      "chip": "ym2612"
    },
    {
      "channel": 3,
      "note": 70,
      "start": 84.9459,
      "duration": 0.0822,
      "velocity": 96,
      "chip": "ym2612"
    },
    {
      "channel": 3,
      "note": 72,
      "start": 85.0283,
      "duration": 0.1014,
      "velocity": 107,
      "chip": "ym2612"
    },
    {
      "channel": 5,
      "note": 112,
      "start": 85.0289,
      "duration": 0.2655,
      "velocity": 108,
      "chip": "ym2612"
    },
    {
      "channel": 3,
      "note": 65,
      "start": 85.1299,
      "duration": 0.0812,
      "velocity": 107,
      "chip": "ym2612"
    },
    {
      "channel": 0,
      "note": 55,
      "start": 85.2106,
      "duration": 0.2829,
      "velocity": 117,
      "chip": "ym2612"
    },
    {
      "channel": 3,
      "note": 67,
      "start": 85.2113,
      "duration": 0.0824,
      "velocity": 107,
      "chip": "ym2612"
    },
    {
      "channel": 3,
      "note": 70,
      "start": 85.2939,
      "duration": 0.0998,
      "velocity": 107,
      "chip": "ym2612"
    },
    {
      "channel": 5,
      "note": 108,
      "start": 85.2946,
      "duration": 0.0998,
      "velocity": 108,
      "chip": "ym2612"
    },
    {
      "channel": 3,
      "note": 72,
      "start": 85.3939,
      "duration": 0.1019,
      "velocity": 96,
      "chip": "ym2612"
    },
    {
      "channel": 5,
      "note": 110,
      "start": 85.3946,
      "duration": 0.1829,
      "velocity": 108,
      "chip": "ym2612"
    },
    {
      "channel": 0,
      "note": 58,
      "start": 85.4937,
      "duration": 0.5654,
      "velocity": 117,
      "chip": "ym2612"
    },
    {
      "channel": 3,
      "note": 65,
      "start": 85.496,
      "duration": 0.0807,
      "velocity": 96,
      "chip": "ym2612"
    },
    {
      "channel": 3,
      "note": 67,
      "start": 85.5769,
      "duration": 0.0998,
      "velocity": 96,
      "chip": "ym2612"
    },
    {
      "channel": 5,
      "note": 112,
      "start": 85.5776,
      "duration": 0.0998,
      "velocity": 108,
      "chip": "ym2612"
    },
    {
      "channel": 3,
      "note": 70,
      "start": 85.6769,
      "duration": 0.0998,
      "velocity": 96,
      "chip": "ym2612"
    },
    {
      "channel": 5,
      "note": 110,
      "start": 85.6776,
      "duration": 0.0998,
      "velocity": 108,
      "chip": "ym2612"
    },
    {
      "channel": 3,
      "note": 72,
      "start": 85.7769,
      "duration": 0.1014,
      "velocity": 107,
      "chip": "ym2612"
    },
    {
      "channel": 5,
      "note": 108,
      "start": 85.7776,
      "duration": 0.1824,
      "velocity": 108,
      "chip": "ym2612"
    },
    {
      "channel": 3,
      "note": 65,
      "start": 85.8785,
      "duration": 0.0808,
      "velocity": 107,
      "chip": "ym2612"
    },
    {
      "channel": 3,
      "note": 67,
      "start": 85.9595,
      "duration": 0.1003,
      "velocity": 107,
      "chip": "ym2612"
    },
    {
      "channel": 5,
      "note": 110,
      "start": 85.9602,
      "duration": 0.1828,
      "velocity": 108,
      "chip": "ym2612"
    },
    {
      "channel": 0,
      "note": 58,
      "start": 86.0594,
      "duration": 0.3827,
      "velocity": 117,
      "chip": "ym2612"
    },
    {
      "channel": 3,
      "note": 70,
      "start": 86.0601,
      "duration": 0.0822,
      "velocity": 107,
      "chip": "ym2612"
    },
    {
      "channel": 3,
      "note": 72,
      "start": 86.1424,
      "duration": 0.1014,
      "velocity": 96,
      "chip": "ym2612"
    },
    {
      "channel": 5,
      "note": 108,
      "start": 86.1431,
      "duration": 0.1014,
      "velocity": 108,
      "chip": "ym2612"
    },
    {
      "channel": 3,
      "note": 65,
      "start": 86.244,
      "duration": 0.0982,
      "velocity": 96,
      "chip": "ym2612"
    },
    {
      "channel": 5,
      "note": 110,
      "start": 86.2447,
      "duration": 0.0982,
      "velocity": 108,
      "chip": "ym2612"
    },
    {
      "channel": 3,
      "note": 67,
      "start": 86.3424,
      "duration": 0.1003,
      "velocity": 96,
      "chip": "ym2612"
    },
    {
      "channel": 5,
      "note": 112,
      "start": 86.3431,
      "duration": 0.1828,
      "velocity": 108,
      "chip": "ym2612"
    },
    {
      "channel": 0,
      "note": 58,
      "start": 86.4422,
      "duration": 0.2653,
      "velocity": 117,
      "chip": "ym2612"
    },
    {
      "channel": 3,
      "note": 70,
      "start": 86.4429,
      "duration": 0.0822,
      "velocity": 96,
      "chip": "ym2612"
    },
    {
      "channel": 3,
      "note": 72,
      "start": 86.5253,
      "duration": 0.1014,
      "velocity": 107,
      "chip": "ym2612"
    },
    {
      "channel": 5,
      "note": 110,
      "start": 86.526,
      "duration": 0.2656,
      "velocity": 108,
      "chip": "ym2612"
    },
    {
      "channel": 3,
      "note": 65,
      "start": 86.6269,
      "duration": 0.0812,
      "velocity": 107,
      "chip": "ym2612"
    },
    {
      "channel": 0,
      "note": 55,
      "start": 86.7077,
      "duration": 0.283,
      "velocity": 117,
      "chip": "ym2612"
    },
    {
      "channel": 3,
      "note": 67,
      "start": 86.7084,
      "duration": 0.0824,
      "velocity": 107,
      "chip": "ym2612"
    },
    {
      "channel": 3,
      "note": 70,
      "start": 86.791,
      "duration": 0.0998,
      "velocity": 107,
      "chip": "ym2612"
    },
    {
      "channel": 5,
      "note": 112,
      "start": 86.7916,
      "duration": 0.0998,
      "velocity": 108,
      "chip": "ym2612"
    },
    {
      "channel": 3,
      "note": 72,
      "start": 86.891,
      "duration": 0.102,
      "velocity": 96,
      "chip": "ym2612"
    },
    {
      "channel": 5,
      "note": 108,
      "start": 86.8916,
      "duration": 0.1829,
      "velocity": 108,
      "chip": "ym2612"
    },
    {
      "channel": 0,
      "note": 53,
      "start": 86.9909,
      "duration": 0.5654,
      "velocity": 117,
      "chip": "ym2612"
    },
    {
      "channel": 3,
      "note": 65,
      "start": 86.9931,
      "duration": 0.0807,
      "velocity": 96,
      "chip": "ym2612"
    },
    {
      "channel": 4,
      "note": 77,
      "start": 86.9937,
      "duration": 0.1807,
      "velocity": 99,
      "chip": "ym2612"
    },
    {
      "channel": 3,
      "note": 67,
      "start": 87.074,
      "duration": 0.0998,
      "velocity": 96,
      "chip": "ym2612"
    },
    {
      "channel": 5,
      "note": 110,
      "start": 87.0747,
      "duration": 0.1003,
      "velocity": 108,
      "chip": "ym2612"
    },
    {
      "channel": 3,
      "note": 70,
      "start": 87.174,
      "duration": 0.0998,
      "velocity": 96,
      "chip": "ym2612"
    },
    {
      "channel": 4,
      "note": 72,
      "start": 87.1746,
      "duration": 0.2014,
      "velocity": 99,
      "chip": "ym2612"
    },
    {
      "channel": 5,
      "note": 112,
      "start": 87.1751,
      "duration": 0.0994,
      "velocity": 108,
      "chip": "ym2612"
    },
    {
      "channel": 3,
      "note": 72,
      "start": 87.274,
      "duration": 0.1014,
      "velocity": 107,
      "chip": "ym2612"
    },
    {
      "channel": 5,
      "note": 108,
      "start": 87.2746,
      "duration": 0.1825,
      "velocity": 108,
      "chip": "ym2612"
    },
    {
      "channel": 3,
      "note": 65,
      "start": 87.3756,
      "duration": 0.0809,
      "velocity": 107,
      "chip": "ym2612"
    },
    {
      "channel": 4,
      "note": 75,
      "start": 87.3761,
      "duration": 0.1814,
      "velocity": 99,
      "chip": "ym2612"
    },
    {
      "channel": 3,
      "note": 67,
      "start": 87.4566,
      "duration": 0.1004,
      "velocity": 107,
      "chip": "ym2612"
    },
    {
      "channel": 5,
      "note": 110,
      "start": 87.4573,
      "duration": 0.183,
      "velocity": 108,
      "chip": "ym2612"
    },
    {
      "channel": 0,
      "note": 53,
      "start": 87.5565,
      "duration": 0.3829,
      "velocity": 117,
      "chip": "ym2612"
    },
    {
      "channel": 3,
      "note": 70,
      "start": 87.5572,
      "duration": 0.0824,
      "velocity": 107,
      "chip": "ym2612"
    },
    {
      "channel": 4,
      "note": 77,
      "start": 87.5578,
      "duration": 1.3156,
      "velocity": 99,
      "chip": "ym2612"
    },
    {
      "channel": 3,
      "note": 72,
      "start": 87.6398,
      "duration": 0.1013,
      "velocity": 96,
      "chip": "ym2612"
    },
    {
      "channel": 5,
      "note": 112,
      "start": 87.6405,
      "duration": 0.1013,
      "velocity": 108,
      "chip": "ym2612"
    },
    {
      "channel": 3,
      "note": 65,
      "start": 87.7414,
      "duration": 0.0982,
      "velocity": 96,
      "chip": "ym2612"
    },
    {
      "channel": 5,
      "note": 110,
      "start": 87.742,
      "duration": 0.0982,
      "velocity": 108,
      "chip": "ym2612"
    },
    {
      "channel": 3,
      "note": 67,
      "start": 87.8398,
      "duration": 0.1003,
      "velocity": 96,
      "chip": "ym2612"
    },
    {
      "channel": 5,
      "note": 108,
      "start": 87.8404,
      "duration": 0.1828,
      "velocity": 108,
      "chip": "ym2612"
    },
    {
      "channel": 0,
      "note": 53,
      "start": 87.9396,
      "duration": 0.2653,
      "velocity": 117,
      "chip": "ym2612"
    },
    {
      "channel": 3,
      "note": 70,
      "start": 87.9403,
      "duration": 0.0822,
      "velocity": 96,
      "chip": "ym2612"
    },
    {
      "channel": 3,
      "note": 72,
      "start": 88.0227,
      "duration": 0.1014,
      "velocity": 107,
      "chip": "ym2612"
    },
    {
      "channel": 5,
      "note": 110,
      "start": 88.0234,
      "duration": 0.2656,
      "velocity": 108,
      "chip": "ym2612"
    },
    {
      "channel": 3,
      "note": 65,
      "start": 88.1243,
      "duration": 0.0812,
      "velocity": 107,
      "chip": "ym2612"
    },
    {
      "channel": 0,
      "note": 53,
      "start": 88.2051,
      "duration": 0.283,
      "velocity": 117,
      "chip": "ym2612"
    },
    {
      "channel": 3,
      "note": 67,
      "start": 88.2058,
      "duration": 0.0824,
      "velocity": 107,
      "chip": "ym2612"
    },
    {
      "channel": 3,
      "note": 70,
      "start": 88.2884,
      "duration": 0.0998,
      "velocity": 107,
      "chip": "ym2612"
    },
    {
      "channel": 5,
      "note": 108,
      "start": 88.289,
      "duration": 0.0998,
      "velocity": 108,
      "chip": "ym2612"
    },
    {
      "channel": 3,
      "note": 72,
      "start": 88.3884,
      "duration": 0.1019,
      "velocity": 96,
      "chip": "ym2612"
    },
    {
      "channel": 5,
      "note": 110,
      "start": 88.389,
      "duration": 0.1829,
      "velocity": 108,
      "chip": "ym2612"
    },
    {
      "channel": 0,
      "note": 56,
      "start": 88.4882,
      "duration": 0.5655,
      "velocity": 117,
      "chip": "ym2612"
    },
    {
      "channel": 3,
      "note": 65,
      "start": 88.4905,
      "duration": 0.0807,
      "velocity": 96,
      "chip": "ym2612"
    },
    {
      "channel": 3,
      "note": 67,
      "start": 88.5714,
      "duration": 0.0998,
      "velocity": 96,
      "chip": "ym2612"
    },
    {
      "channel": 5,
      "note": 112,
      "start": 88.572,
      "duration": 0.0998,
      "velocity": 108,
      "chip": "ym2612"
    },
    {
      "channel": 3,
      "note": 70,
      "start": 88.6714,
      "duration": 0.0998,
      "velocity": 96,
      "chip": "ym2612"
    },
    {
      "channel": 5,
      "note": 110,
      "start": 88.672,
      "duration": 0.0998,
      "velocity": 108,
      "chip": "ym2612"
    },
    {
      "channel": 3,
      "note": 72,
      "start": 88.7714,
      "duration": 0.1014,
      "velocity": 107,
      "chip": "ym2612"
    },
    {
      "channel": 5,
      "note": 112,
      "start": 88.772,
      "duration": 0.1825,
      "velocity": 108,
      "chip": "ym2612"
    },
    {
      "channel": 3,
      "note": 65,
      "start": 88.873,
      "duration": 0.0809,
      "velocity": 107,
      "chip": "ym2612"
    },
    {
      "channel": 4,
      "note": 87,
      "start": 88.8736,
      "duration": 0.3653,
      "velocity": 99,
      "chip": "ym2612"
    },
    {
      "channel": 3,
      "note": 67,
      "start": 88.9541,
      "duration": 0.1003,
      "velocity": 107,
      "chip": "ym2612"
    },
    {
      "channel": 5,
      "note": 108,
      "start": 88.9547,
      "duration": 0.1828,
      "velocity": 108,
      "chip": "ym2612"
    },
    {
      "channel": 0,
      "note": 56,
      "start": 89.0539,
      "duration": 0.3827,
      "velocity": 117,
      "chip": "ym2612"
    },
    {
      "channel": 3,
      "note": 70,
      "start": 89.0546,
      "duration": 0.0822,
      "velocity": 107,
      "chip": "ym2612"
    },
    {
      "channel": 3,
      "note": 72,
      "start": 89.1369,
      "duration": 0.1014,
      "velocity": 96,
      "chip": "ym2612"
    },
    {
      "channel": 5,
      "note": 110,
      "start": 89.1376,
      "duration": 0.102,
      "velocity": 108,
      "chip": "ym2612"
    },
    {
      "channel": 3,
      "note": 65,
      "start": 89.2385,
      "duration": 0.0982,
      "velocity": 96,
      "chip": "ym2612"
    },
    {
      "channel": 4,
      "note": 86,
      "start": 89.2391,
      "duration": 0.3659,
      "velocity": 99,
      "chip": "ym2612"
    },
    {
      "channel": 5,
      "note": 108,
      "start": 89.2397,
      "duration": 0.0978,
      "velocity": 108,
      "chip": "ym2612"
    },
    {
      "channel": 3,
      "note": 67,
      "start": 89.3369,
      "duration": 0.1003,
      "velocity": 96,
      "chip": "ym2612"
    },
    {
      "channel": 5,
      "note": 112,
      "start": 89.3376,
      "duration": 0.4321,
      "velocity": 108,
      "chip": "ym2612"
    },
    {
      "channel": 0,
      "note": 56,
      "start": 89.4368,
      "duration": 0.2489,
      "velocity": 117,
      "chip": "ym2612"
    },
    {
      "channel": 3,
      "note": 70,
      "start": 89.4375,
      "duration": 0.0822,
      "velocity": 96,
      "chip": "ym2612"
    },
    {
      "channel": 3,
      "note": 72,
      "start": 89.5198,
      "duration": 0.0846,
      "velocity": 107,
      "chip": "ym2612"
    },
    {
      "channel": 3,
      "note": 65,
      "start": 89.6047,
      "duration": 0.0817,
      "velocity": 107,
      "chip": "ym2612"
    },
    {
      "channel": 4,
      "note": 82,
      "start": 89.6052,
      "duration": 0.3702,
      "velocity": 1,
      "chip": "ym2612"
    },
    {
      "channel": 0,
      "note": 56,
      "start": 89.6859,
      "duration": 0.2831,
      "velocity": 117,
      "chip": "ym2612"
    },
    {
      "channel": 3,
      "note": 67,
      "start": 89.6865,
      "duration": 0.0824,
      "velocity": 107,
      "chip": "ym2612"
    },
    {
      "channel": 3,
      "note": 70,
      "start": 89.7691,
      "duration": 0.0998,
      "velocity": 107,
      "chip": "ym2612"
    },
    {
      "channel": 5,
      "note": 110,
      "start": 89.7698,
      "duration": 0.0999,
      "velocity": 108,
      "chip": "ym2612"
    },
    {
      "channel": 3,
      "note": 72,
      "start": 89.8691,
      "duration": 0.1042,
      "velocity": 1,
      "chip": "ym2612"
    },
    {
      "channel": 5,
      "note": 111,
      "start": 89.8698,
      "duration": 0.1855,
      "velocity": 108,
      "chip": "ym2612"
    },
    {
      "channel": 0,
      "note": 58,
      "start": 89.9691,
      "duration": 5.9737,
      "velocity": 102,
      "chip": "ym2612"
    },
    {
      "channel": 1,
      "note": 58,
      "start": 89.9713,
      "duration": 0.1804,
      "velocity": 107,
      "chip": "ym2612"
    },
    {
      "channel": 3,
      "note": 79,
      "start": 89.9735,
      "duration": 12.4264,
      "velocity": 1,
      "chip": "ym2612"
    },
    {
      "channel": 4,
      "note": 79,
      "start": 89.9757,
      "duration": 12.4243,
      "velocity": 1,
      "chip": "ym2612"
    },
    {
      "channel": 5,
      "note": 110,
      "start": 90.0554,
      "duration": 0.0991,
      "velocity": 108,
      "chip": "ym2612"
    },
    {
      "channel": 1,
      "note": 58,
      "start": 90.1519,
      "duration": 0.2013,
      "velocity": 107,
      "chip": "ym2612"
    },
    {
      "channel": 2,
      "note": 58,
      "start": 90.154,
      "duration": 0.2805,
      "velocity": 96,
      "chip": "ym2612"
    },
    {
      "channel": 5,
      "note": 112,
      "start": 90.1547,
      "duration": 0.0972,
      "velocity": 108,
      "chip": "ym2612"
    },
    {
      "channel": 5,
      "note": 108,
      "start": 90.252,
      "duration": 0.1832,
      "velocity": 108,
      "chip": "ym2612"
    },
    {
      "channel": 1,
      "note": 58,
      "start": 90.3534,
      "duration": 0.1827,
      "velocity": 107,
      "chip": "ym2612"
    },
    {
      "channel": 2,
      "note": 58,
      "start": 90.4347,
      "duration": 0.2833,
      "velocity": 96,
      "chip": "ym2612"
    },
    {
      "channel": 5,
      "note": 110,
      "start": 90.4354,
      "duration": 0.1823,
      "velocity": 108,
      "chip": "ym2612"
    },
    {
      "channel": 1,
      "note": 65,
      "start": 90.5362,
      "duration": 0.1812,
      "velocity": 107,
      "chip": "ym2612"
    },
    {
      "channel": 5,
      "note": 112,
      "start": 90.6178,
      "duration": 0.1008,
      "velocity": 108,
      "chip": "ym2612"
    },
    {
      "channel": 1,
      "note": 70,
      "start": 90.7176,
      "duration": 0.1998,
      "velocity": 107,
      "chip": "ym2612"
    },
    {
      "channel": 2,
      "note": 58,
      "start": 90.7181,
      "duration": 0.2821,
      "velocity": 96,
      "chip": "ym2612"
    },
    {
      "channel": 5,
      "note": 108,
      "start": 90.7188,
      "duration": 0.0988,
      "velocity": 108,
      "chip": "ym2612"
    },
    {
      "channel": 5,
      "note": 110,
      "start": 90.8178,
      "duration": 0.1832,
      "velocity": 108,
      "chip": "ym2612"
    },
    {
      "channel": 1,
      "note": 70,
      "start": 90.9176,
      "duration": 0.1843,
      "velocity": 107,
      "chip": "ym2612"
    },
    {
      "channel": 2,
      "note": 58,
      "start": 91.0005,
      "duration": 0.2677,
      "velocity": 96,
      "chip": "ym2612"
    },
    {
      "channel": 5,
      "note": 112,
      "start": 91.0012,
      "duration": 0.2678,
      "velocity": 108,
      "chip": "ym2612"
    },
    {
      "channel": 1,
      "note": 70,
      "start": 91.102,
      "duration": 0.1656,
      "velocity": 107,
      "chip": "ym2612"
    },
    {
      "channel": 1,
      "note": 65,
      "start": 91.2678,
      "duration": 0.1982,
      "velocity": 107,
      "chip": "ym2612"
    },
    {
      "channel": 2,
      "note": 56,
      "start": 91.2683,
      "duration": 0.0977,
      "velocity": 96,
      "chip": "ym2612"
    },
    {
      "channel": 5,
      "note": 108,
      "start": 91.269,
      "duration": 0.0977,
      "velocity": 108,
      "chip": "ym2612"
    },
    {
      "channel": 2,
      "note": 56,
      "start": 91.3663,
      "duration": 0.1003,
      "velocity": 96,
      "chip": "ym2612"
    },
    {
      "channel": 5,
      "note": 110,
      "start": 91.3669,
      "duration": 0.1828,
      "velocity": 108,
      "chip": "ym2612"
    },
    {
      "channel": 1,
      "note": 58,
      "start": 91.4662,
      "duration": 0.1827,
      "velocity": 107,
      "chip": "ym2612"
    },
    {
      "channel": 2,
      "note": 56,
      "start": 91.4668,
      "duration": 0.0822,
      "velocity": 96,
      "chip": "ym2612"
    },
    {
      "channel": 2,
      "note": 58,
      "start": 91.5491,
      "duration": 0.1003,
      "velocity": 96,
      "chip": "ym2612"
    },
    {
      "channel": 5,
      "note": 112,
      "start": 91.5498,
      "duration": 0.1003,
      "velocity": 108,
      "chip": "ym2612"
    },
    {
      "channel": 1,
      "note": 58,
      "start": 91.6491,
      "duration": 0.2014,
      "velocity": 107,
      "chip": "ym2612"
    },
    {
      "channel": 2,
      "note": 58,
      "start": 91.6496,
      "duration": 0.2821,
      "velocity": 96,
      "chip": "ym2612"
    },
    {
      "channel": 5,
      "note": 110,
      "start": 91.6503,
      "duration": 0.0988,
      "velocity": 108,
      "chip": "ym2612"
    },
    {
      "channel": 5,
      "note": 108,
      "start": 91.7493,
      "duration": 0.1832,
      "velocity": 108,
      "chip": "ym2612"
    },
    {
      "channel": 1,
      "note": 58,
      "start": 91.8507,
      "duration": 0.1827,
      "velocity": 107,
      "chip": "ym2612"
    },
    {
      "channel": 2,
      "note": 58,
      "start": 91.932,
      "duration": 0.2833,
      "velocity": 96,
      "chip": "ym2612"
    },
    {
      "channel": 5,
      "note": 110,
      "start": 91.9327,
      "duration": 0.1823,
      "velocity": 108,
      "chip": "ym2612"
    },
    {
      "channel": 1,
      "note": 65,
      "start": 92.0335,
      "duration": 0.1812,
      "velocity": 107,
      "chip": "ym2612"
    },
    {
      "channel": 5,
      "note": 108,
      "start": 92.1151,
      "duration": 0.1008,
      "velocity": 108,
      "chip": "ym2612"
    },
    {
      "channel": 1,
      "note": 70,
      "start": 92.2149,
      "duration": 0.1998,
      "velocity": 107,
      "chip": "ym2612"
    },
    {
      "channel": 2,
      "note": 58,
      "start": 92.2154,
      "duration": 0.2821,
      "velocity": 96,
      "chip": "ym2612"
    },
    {
      "channel": 5,
      "note": 110,
      "start": 92.2161,
      "duration": 0.0988,
      "velocity": 108,
      "chip": "ym2612"
    },
    {
      "channel": 5,
      "note": 112,
      "start": 92.3151,
      "duration": 0.1832,
      "velocity": 108,
      "chip": "ym2612"
    },
    {
      "channel": 1,
      "note": 70,
      "start": 92.4149,
      "duration": 0.1843,
      "velocity": 107,
      "chip": "ym2612"
    },
    {
      "channel": 2,
      "note": 58,
      "start": 92.4978,
      "duration": 0.6489,
      "velocity": 96,
      "chip": "ym2612"
    },
    {
      "channel": 5,
      "note": 110,
      "start": 92.4984,
      "duration": 0.2671,
      "velocity": 108,
      "chip": "ym2612"
    },
    {
      "channel": 1,
      "note": 70,
      "start": 92.5993,
      "duration": 0.1655,
      "velocity": 107,
      "chip": "ym2612"
    },
    {
      "channel": 1,
      "note": 65,
      "start": 92.765,
      "duration": 0.1982,
      "velocity": 107,
      "chip": "ym2612"
    },
    {
      "channel": 5,
      "note": 112,
      "start": 92.7658,
      "duration": 0.0977,
      "velocity": 108,
      "chip": "ym2612"
    },
    {
      "channel": 5,
      "note": 108,
      "start": 92.8637,
      "duration": 0.1827,
      "velocity": 108,
      "chip": "ym2612"
    },
    {
      "channel": 1,
      "note": 58,
      "start": 92.9634,
      "duration": 0.1826,
      "velocity": 107,
      "chip": "ym2612"
    },
    {
      "channel": 5,
      "note": 110,
      "start": 93.0465,
      "duration": 0.1008,
      "velocity": 108,
      "chip": "ym2612"
    },
    {
      "channel": 1,
      "note": 58,
      "start": 93.1462,
      "duration": 0.2014,
      "velocity": 107,
      "chip": "ym2612"
    },
    {
      "channel": 2,
      "note": 58,
      "start": 93.1468,
      "duration": 0.2822,
      "velocity": 96,
      "chip": "ym2612"
    },
    {
      "channel": 5,
      "note": 112,
      "start": 93.1475,
      "duration": 0.0988,
      "velocity": 108,
      "chip": "ym2612"
    },
    {
      "channel": 5,
      "note": 108,
      "start": 93.2465,
      "duration": 0.1832,
      "velocity": 108,
      "chip": "ym2612"
    },
    {
      "channel": 1,
      "note": 58,
      "start": 93.3478,
      "duration": 0.1827,
      "velocity": 107,
      "chip": "ym2612"
    },
    {
      "channel": 2,
      "note": 58,
      "start": 93.4292,
      "duration": 0.2833,
      "velocity": 96,
      "chip": "ym2612"
    },
    {
      "channel": 5,
      "note": 110,
      "start": 93.4299,
      "duration": 0.1823,
      "velocity": 108,
      "chip": "ym2612"
    },
    {
      "channel": 1,
      "note": 65,
      "start": 93.5307,
      "duration": 0.1812,
      "velocity": 107,
      "chip": "ym2612"
    },
    {
      "channel": 5,
      "note": 112,
      "start": 93.6123,
      "duration": 0.1008,
      "velocity": 108,
      "chip": "ym2612"
    },
    {
      "channel": 1,
      "note": 70,
      "start": 93.7121,
      "duration": 0.1998,
      "velocity": 107,
      "chip": "ym2612"
    },
    {
      "channel": 2,
      "note": 58,
      "start": 93.7126,
      "duration": 0.2821,
      "velocity": 96,
      "chip": "ym2612"
    },
    {
      "channel": 5,
      "note": 110,
      "start": 93.7133,
      "duration": 0.0988,
      "velocity": 108,
      "chip": "ym2612"
    },
    {
      "channel": 5,
      "note": 108,
      "start": 93.8123,
      "duration": 0.1832,
      "velocity": 108,
      "chip": "ym2612"
    },
    {
      "channel": 1,
      "note": 70,
      "start": 93.9121,
      "duration": 0.1843,
      "velocity": 107,
      "chip": "ym2612"
    },
    {
      "channel": 2,
      "note": 58,
      "start": 93.995,
      "duration": 0.2676,
      "velocity": 96,
      "chip": "ym2612"
    },
    {
      "channel": 5,
      "note": 110,
      "start": 93.9956,
      "duration": 0.2677,
      "velocity": 108,
      "chip": "ym2612"
    },
    {
      "channel": 1,
      "note": 70,
      "start": 94.0965,
      "duration": 0.1656,
      "velocity": 107,
      "chip": "ym2612"
    },
    {
      "channel": 1,
      "note": 65,
      "start": 94.2622,
      "duration": 0.1982,
      "velocity": 107,
      "chip": "ym2612"
    },
    {
      "channel": 2,
      "note": 56,
      "start": 94.2628,
      "duration": 0.0977,
      "velocity": 96,
      "chip": "ym2612"
    },
    {
      "channel": 5,
      "note": 108,
      "start": 94.2635,
      "duration": 0.0977,
      "velocity": 108,
      "chip": "ym2612"
    },
    {
      "channel": 2,
      "note": 56,
      "start": 94.3607,
      "duration": 0.1003,
      "velocity": 96,
      "chip": "ym2612"
    },
    {
      "channel": 5,
      "note": 110,
      "start": 94.3614,
      "duration": 0.1827,
      "velocity": 108,
      "chip": "ym2612"
    },
    {
      "channel": 1,
      "note": 58,
      "start": 94.4606,
      "duration": 0.1827,
      "velocity": 107,
      "chip": "ym2612"
    },
    {
      "channel": 2,
      "note": 56,
      "start": 94.4612,
      "duration": 0.0822,
      "velocity": 96,
      "chip": "ym2612"
    },
    {
      "channel": 2,
      "note": 58,
      "start": 94.5436,
      "duration": 0.1003,
      "velocity": 96,
      "chip": "ym2612"
    },
    {
      "channel": 5,
      "note": 112,
      "start": 94.5443,
      "duration": 0.1003,
      "velocity": 108,
      "chip": "ym2612"
    },
    {
      "channel": 1,
      "note": 58,
      "start": 94.6435,
      "duration": 0.2014,
      "velocity": 107,
      "chip": "ym2612"
    },
    {
      "channel": 2,
      "note": 58,
      "start": 94.6441,
      "duration": 0.2822,
      "velocity": 96,
      "chip": "ym2612"
    },
    {
      "channel": 5,
      "note": 110,
      "start": 94.6448,
      "duration": 0.0988,
      "velocity": 108,
      "chip": "ym2612"
    },
    {
      "channel": 5,
      "note": 112,
      "start": 94.7438,
      "duration": 0.1832,
      "velocity": 108,
      "chip": "ym2612"
    },
    {
      "channel": 1,
      "note": 58,
      "start": 94.8451,
      "duration": 0.1827,
      "velocity": 107,
      "chip": "ym2612"
    },
    {
      "channel": 2,
      "note": 58,
      "start": 94.9265,
      "duration": 0.2833,
      "velocity": 96,
      "chip": "ym2612"
    },
    {
      "channel": 5,
      "note": 108,
      "start": 94.9271,
      "duration": 0.1823,
      "velocity": 108,
      "chip": "ym2612"
    },
    {
      "channel": 1,
      "note": 65,
      "start": 95.028,
      "duration": 0.1812,
      "velocity": 107,
      "chip": "ym2612"
    },
    {
      "channel": 5,
      "note": 110,
      "start": 95.1096,
      "duration": 0.1008,
      "velocity": 108,
      "chip": "ym2612"
    },
    {
      "channel": 1,
      "note": 70,
      "start": 95.2093,
      "duration": 0.1998,
      "velocity": 107,
      "chip": "ym2612"
    },
    {
      "channel": 2,
      "note": 58,
      "start": 95.2099,
      "duration": 0.2821,
      "velocity": 96,
      "chip": "ym2612"
    },
    {
      "channel": 5,
      "note": 108,
      "start": 95.2106,
      "duration": 0.0988,
      "velocity": 108,
      "chip": "ym2612"
    },
    {
      "channel": 5,
      "note": 112,
      "start": 95.3096,
      "duration": 0.4343,
      "velocity": 108,
      "chip": "ym2612"
    },
    {
      "channel": 1,
      "note": 70,
      "start": 95.4093,
      "duration": 0.1674,
      "velocity": 107,
      "chip": "ym2612"
    },
    {
      "channel": 2,
      "note": 58,
      "start": 95.4922,
      "duration": 0.251,
      "velocity": 96,
      "chip": "ym2612"
    },
    {
      "channel": 1,
      "note": 70,
      "start": 95.577,
      "duration": 0.1656,
      "velocity": 107,
      "chip": "ym2612"
    },
    {
      "channel": 1,
      "note": 65,
      "start": 95.7428,
      "duration": 6.6571,
      "velocity": 107,
      "chip": "ym2612"
    },
    {
      "channel": 2,
      "note": 56,
      "start": 95.7434,
      "duration": 0.0978,
      "velocity": 96,
      "chip": "ym2612"
    },
    {
      "channel": 5,
      "note": 110,
      "start": 95.7441,
      "duration": 0.0978,
      "velocity": 108,
      "chip": "ym2612"
    },
    {
      "channel": 2,
      "note": 56,
      "start": 95.8414,
      "duration": 6.5585,
      "velocity": 96,
      "chip": "ym2612"
    },
    {
      "channel": 5,
      "note": 111,
      "start": 95.8421,
      "duration": 6.5578,
      "velocity": 108,
      "chip": "ym2612"
    },
    {
      "channel": 0,
      "note": 46,
      "start": 95.9429,
      "duration": 6.457,
      "velocity": 102,
      "chip": "ym2612"
    }
  ]
}