{
  "track_name": "03 - Grenada",
  "duration_sec": 24.081,
  "sample_rate": 44100,
  "note_count": 324,
  "unique_pitches": 22,
  "pitch_range": 50,
  "avg_note_duration": 0.1724,
  "reconstruction_stats": {
    "notes_reconstructed": 324,
    "keyon_events": 324,
    "keyoff_events": 324,
    "orphan_keyons": 0,
    "unique_pitches": 22,
    "pitch_range": 50,
    "avg_duration_sec": 0.1724
  },
  "metadata": {
    "source": "G\\Greendog\\03 - Grenada.vgz"
  },
  "notes": [
    {
      "channel": 0,
      "note": 58,
      "start": 0.0057,
      "duration": 0.1988,
      "velocity": 99,
      "chip": "ym2612"
    },
    {
      "channel": 1,
      "note": 82,
      "start": 0.0114,
      "duration": 0.1763,
      "velocity": 122,
      "chip": "ym2612"
    },
    {
      "channel": 2,
      "note": 77,
      "start": 0.0137,
      "duration": 0.1745,
      "velocity": 122,
      "chip": "ym2612"
    },
    {
      "channel": 3,
      "note": 82,
      "start": 0.1912,
      "duration": 0.03,
      "velocity": 119,
      "chip": "ym2612"
    },
    {
      "channel": 4,
      "note": 89,
      "start": 0.1938,
      "duration": 0.0607,
      "velocity": 101,
      "chip": "ym2612"
    },
    {
      "channel": 0,
      "note": 50,
      "start": 0.2777,
      "duration": 0.5179,
      "velocity": 99,
      "chip": "ym2612"
    },
    {
      "channel": 1,
      "note": 84,
      "start": 0.2895,
      "duration": 0.1229,
      "velocity": 122,
      "chip": "ym2612"
    },
    {
      "channel": 2,
      "note": 79,
      "start": 0.2919,
      "duration": 0.1375,
      "velocity": 122,
      "chip": "ym2612"
    },
    {
      "channel": 3,
      "note": 82,
      "start": 0.2943,
      "duration": 0.0208,
      "velocity": 119,
      "chip": "ym2612"
    },
    {
      "channel": 4,
      "note": 94,
      "start": 0.3017,
      "duration": 0.0135,
      "velocity": 101,
      "chip": "ym2612"
    },
    {
      "channel": 3,
      "note": 86,
      "start": 0.349,
      "duration": 0.1967,
      "velocity": 119,
      "chip": "ym2612"
    },
    {
      "channel": 4,
      "note": 94,
      "start": 0.449,
      "duration": 0.0635,
      "velocity": 101,
      "chip": "ym2612"
    },
    {
      "channel": 1,
      "note": 86,
      "start": 0.5822,
      "duration": 0.0968,
      "velocity": 122,
      "chip": "ym2612"
    },
    {
      "channel": 2,
      "note": 82,
      "start": 0.5848,
      "duration": 0.1111,
      "velocity": 122,
      "chip": "ym2612"
    },
    {
      "channel": 3,
      "note": 89,
      "start": 0.5873,
      "duration": 0.0919,
      "velocity": 119,
      "chip": "ym2612"
    },
    {
      "channel": 4,
      "note": 89,
      "start": 0.5896,
      "duration": 0.0395,
      "velocity": 101,
      "chip": "ym2612"
    },
    {
      "channel": 0,
      "note": 51,
      "start": 0.8356,
      "duration": 0.4537,
      "velocity": 99,
      "chip": "ym2612"
    },
    {
      "channel": 1,
      "note": 82,
      "start": 0.8378,
      "duration": 0.2075,
      "velocity": 122,
      "chip": "ym2612"
    },
    {
      "channel": 2,
      "note": 87,
      "start": 0.8404,
      "duration": 0.2055,
      "velocity": 122,
      "chip": "ym2612"
    },
    {
      "channel": 3,
      "note": 87,
      "start": 0.8427,
      "duration": 0.2028,
      "velocity": 119,
      "chip": "ym2612"
    },
    {
      "channel": 4,
      "note": 91,
      "start": 0.846,
      "duration": 0.0161,
      "velocity": 101,
      "chip": "ym2612"
    },
    {
      "channel": 1,
      "note": 89,
      "start": 1.1488,
      "duration": 0.1714,
      "velocity": 122,
      "chip": "ym2612"
    },
    {
      "channel": 3,
      "note": 79,
      "start": 1.1513,
      "duration": 0.2176,
      "velocity": 119,
      "chip": "ym2612"
    },
    {
      "channel": 4,
      "note": 87,
      "start": 1.1538,
      "duration": 0.0749,
      "velocity": 101,
      "chip": "ym2612"
    },
    {
      "channel": 2,
      "note": 84,
      "start": 1.1653,
      "duration": 0.1499,
      "velocity": 122,
      "chip": "ym2612"
    },
    {
      "channel": 0,
      "note": 55,
      "start": 1.2968,
      "duration": 0.3387,
      "velocity": 99,
      "chip": "ym2612"
    },
    {
      "channel": 1,
      "note": 91,
      "start": 1.4386,
      "duration": 0.0969,
      "velocity": 122,
      "chip": "ym2612"
    },
    {
      "channel": 4,
      "note": 91,
      "start": 1.4411,
      "duration": 0.0779,
      "velocity": 101,
      "chip": "ym2612"
    },
    {
      "channel": 2,
      "note": 87,
      "start": 1.4556,
      "duration": 0.1137,
      "velocity": 122,
      "chip": "ym2612"
    },
    {
      "channel": 3,
      "note": 82,
      "start": 1.458,
      "duration": 0.1442,
      "velocity": 119,
      "chip": "ym2612"
    },
    {
      "channel": 0,
      "note": 53,
      "start": 1.6982,
      "duration": 0.271,
      "velocity": 99,
      "chip": "ym2612"
    },
    {
      "channel": 1,
      "note": 93,
      "start": 1.7041,
      "duration": 0.1818,
      "velocity": 122,
      "chip": "ym2612"
    },
    {
      "channel": 2,
      "note": 89,
      "start": 1.7064,
      "duration": 0.2133,
      "velocity": 122,
      "chip": "ym2612"
    },
    {
      "channel": 3,
      "note": 81,
      "start": 1.7096,
      "duration": 0.2598,
      "velocity": 119,
      "chip": "ym2612"
    },
    {
      "channel": 4,
      "note": 89,
      "start": 1.7145,
      "duration": 0.0383,
      "velocity": 101,
      "chip": "ym2612"
    },
    {
      "channel": 0,
      "note": 57,
      "start": 2.0092,
      "duration": 0.5515,
      "velocity": 99,
      "chip": "ym2612"
    },
    {
      "channel": 1,
      "note": 91,
      "start": 2.016,
      "duration": 0.0781,
      "velocity": 122,
      "chip": "ym2612"
    },
    {
      "channel": 2,
      "note": 89,
      "start": 2.0185,
      "duration": 0.1427,
      "velocity": 122,
      "chip": "ym2612"
    },
    {
      "channel": 4,
      "note": 84,
      "start": 2.0214,
      "duration": 0.0204,
      "velocity": 101,
      "chip": "ym2612"
    },
    {
      "channel": 3,
      "note": 79,
      "start": 2.0286,
      "duration": 0.2156,
      "velocity": 119,
      "chip": "ym2612"
    },
    {
      "channel": 1,
      "note": 93,
      "start": 2.3139,
      "duration": 0.0969,
      "velocity": 122,
      "chip": "ym2612"
    },
    {
      "channel": 2,
      "note": 89,
      "start": 2.3165,
      "duration": 0.1114,
      "velocity": 122,
      "chip": "ym2612"
    },
    {
      "channel": 3,
      "note": 81,
      "start": 2.3307,
      "duration": 0.1302,
      "velocity": 119,
      "chip": "ym2612"
    },
    {
      "channel": 4,
      "note": 87,
      "start": 2.3332,
      "duration": 0.061,
      "velocity": 101,
      "chip": "ym2612"
    },
    {
      "channel": 1,
      "note": 89,
      "start": 2.5847,
      "duration": 0.4018,
      "velocity": 122,
      "chip": "ym2612"
    },
    {
      "channel": 2,
      "note": 94,
      "start": 2.5875,
      "duration": 0.3661,
      "velocity": 122,
      "chip": "ym2612"
    },
    {
      "channel": 3,
      "note": 82,
      "start": 2.5897,
      "duration": 0.2373,
      "velocity": 119,
      "chip": "ym2612"
    },
    {
      "channel": 4,
      "note": 86,
      "start": 2.5931,
      "duration": 0.034,
      "velocity": 101,
      "chip": "ym2612"
    },
    {
      "channel": 0,
      "note": 58,
      "start": 2.5972,
      "duration": 0.2631,
      "velocity": 99,
      "chip": "ym2612"
    },
    {
      "channel": 0,
      "note": 53,
      "start": 2.9233,
      "duration": 0.3131,
      "velocity": 99,
      "chip": "ym2612"
    },
    {
      "channel": 3,
      "note": 77,
      "start": 2.926,
      "duration": 0.694,
      "velocity": 119,
      "chip": "ym2612"
    },
    {
      "channel": 4,
      "note": 82,
      "start": 2.9292,
      "duration": 0.0189,
      "velocity": 101,
      "chip": "ym2612"
    },
    {
      "channel": 0,
      "note": 55,
      "start": 3.2561,
      "duration": 0.0803,
      "velocity": 99,
      "chip": "ym2612"
    },
    {
      "channel": 0,
      "note": 53,
      "start": 3.3561,
      "duration": 0.0637,
      "velocity": 99,
      "chip": "ym2612"
    },
    {
      "channel": 0,
      "note": 58,
      "start": 3.4707,
      "duration": 0.3158,
      "velocity": 99,
      "chip": "ym2612"
    },
    {
      "channel": 1,
      "note": 82,
      "start": 3.4729,
      "duration": 0.2304,
      "velocity": 122,
      "chip": "ym2612"
    },
    {
      "channel": 2,
      "note": 77,
      "start": 3.4754,
      "duration": 0.2283,
      "velocity": 122,
      "chip": "ym2612"
    },
    {
      "channel": 4,
      "note": 89,
      "start": 3.69,
      "duration": 0.047,
      "velocity": 101,
      "chip": "ym2612"
    },
    {
      "channel": 3,
      "note": 82,
      "start": 3.7067,
      "duration": 0.03,
      "velocity": 119,
      "chip": "ym2612"
    },
    {
      "channel": 0,
      "note": 50,
      "start": 3.8098,
      "duration": 0.5349,
      "velocity": 99,
      "chip": "ym2612"
    },
    {
      "channel": 3,
      "note": 82,
      "start": 3.8122,
      "duration": 0.0251,
      "velocity": 119,
      "chip": "ym2612"
    },
    {
      "channel": 1,
      "note": 84,
      "start": 3.8176,
      "duration": 0.1105,
      "velocity": 122,
      "chip": "ym2612"
    },
    {
      "channel": 2,
      "note": 79,
      "start": 3.82,
      "duration": 0.1249,
      "velocity": 122,
      "chip": "ym2612"
    },
    {
      "channel": 4,
      "note": 94,
      "start": 3.8224,
      "duration": 0.0151,
      "velocity": 101,
      "chip": "ym2612"
    },
    {
      "channel": 3,
      "note": 86,
      "start": 3.8647,
      "duration": 0.1801,
      "velocity": 119,
      "chip": "ym2612"
    },
    {
      "channel": 4,
      "note": 94,
      "start": 3.9481,
      "duration": 0.0634,
      "velocity": 101,
      "chip": "ym2612"
    },
    {
      "channel": 1,
      "note": 86,
      "start": 4.0979,
      "duration": 0.0969,
      "velocity": 122,
      "chip": "ym2612"
    },
    {
      "channel": 2,
      "note": 82,
      "start": 4.1005,
      "duration": 0.1113,
      "velocity": 122,
      "chip": "ym2612"
    },
    {
      "channel": 3,
      "note": 89,
      "start": 4.103,
      "duration": 0.092,
      "velocity": 119,
      "chip": "ym2612"
    },
    {
      "channel": 4,
      "note": 89,
      "start": 4.1056,
      "duration": 0.0727,
      "velocity": 101,
      "chip": "ym2612"
    },
    {
      "channel": 1,
      "note": 82,
      "start": 4.3479,
      "duration": 0.2127,
      "velocity": 122,
      "chip": "ym2612"
    },
    {
      "channel": 2,
      "note": 87,
      "start": 4.3504,
      "duration": 0.2107,
      "velocity": 122,
      "chip": "ym2612"
    },
    {
      "channel": 3,
      "note": 87,
      "start": 4.3529,
      "duration": 0.2079,
      "velocity": 119,
      "chip": "ym2612"
    },
    {
      "channel": 4,
      "note": 91,
      "start": 4.3683,
      "duration": 0.0259,
      "velocity": 101,
      "chip": "ym2612"
    },
    {
      "channel": 0,
      "note": 51,
      "start": 4.3746,
      "duration": 0.386,
      "velocity": 99,
      "chip": "ym2612"
    },
    {
      "channel": 1,
      "note": 89,
      "start": 4.6636,
      "duration": 0.1719,
      "velocity": 122,
      "chip": "ym2612"
    },
    {
      "channel": 3,
      "note": 79,
      "start": 4.6666,
      "duration": 0.201,
      "velocity": 119,
      "chip": "ym2612"
    },
    {
      "channel": 2,
      "note": 84,
      "start": 4.6807,
      "duration": 0.1497,
      "velocity": 122,
      "chip": "ym2612"
    },
    {
      "channel": 4,
      "note": 87,
      "start": 4.6832,
      "duration": 0.0609,
      "velocity": 101,
      "chip": "ym2612"
    },
    {
      "channel": 0,
      "note": 55,
      "start": 4.8072,
      "duration": 0.3603,
      "velocity": 99,
      "chip": "ym2612"
    },
    {
      "channel": 1,
      "note": 91,
      "start": 4.9545,
      "duration": 0.0964,
      "velocity": 122,
      "chip": "ym2612"
    },
    {
      "channel": 2,
      "note": 87,
      "start": 4.9709,
      "duration": 0.1138,
      "velocity": 122,
      "chip": "ym2612"
    },
    {
      "channel": 3,
      "note": 82,
      "start": 4.9734,
      "duration": 0.1108,
      "velocity": 119,
      "chip": "ym2612"
    },
    {
      "channel": 4,
      "note": 91,
      "start": 4.9758,
      "duration": 0.0586,
      "velocity": 101,
      "chip": "ym2612"
    },
    {
      "channel": 0,
      "note": 53,
      "start": 5.2073,
      "duration": 0.2428,
      "velocity": 99,
      "chip": "ym2612"
    },
    {
      "channel": 3,
      "note": 81,
      "start": 5.2142,
      "duration": 0.2028,
      "velocity": 119,
      "chip": "ym2612"
    },
    {
      "channel": 1,
      "note": 93,
      "start": 5.22,
      "duration": 0.1636,
      "velocity": 122,
      "chip": "ym2612"
    },
    {
      "channel": 2,
      "note": 89,
      "start": 5.2225,
      "duration": 0.2112,
      "velocity": 122,
      "chip": "ym2612"
    },
    {
      "channel": 4,
      "note": 89,
      "start": 5.225,
      "duration": 0.042,
      "velocity": 101,
      "chip": "ym2612"
    },
    {
      "channel": 0,
      "note": 57,
      "start": 5.5402,
      "duration": 0.5705,
      "velocity": 99,
      "chip": "ym2612"
    },
    {
      "channel": 1,
      "note": 91,
      "start": 5.5423,
      "duration": 0.0661,
      "velocity": 122,
      "chip": "ym2612"
    },
    {
      "channel": 2,
      "note": 89,
      "start": 5.545,
      "duration": 0.1305,
      "velocity": 122,
      "chip": "ym2612"
    },
    {
      "channel": 4,
      "note": 84,
      "start": 5.5473,
      "duration": 0.0155,
      "velocity": 101,
      "chip": "ym2612"
    },
    {
      "channel": 3,
      "note": 79,
      "start": 5.5541,
      "duration": 0.1378,
      "velocity": 119,
      "chip": "ym2612"
    },
    {
      "channel": 4,
      "note": 87,
      "start": 5.8122,
      "duration": 0.0463,
      "velocity": 101,
      "chip": "ym2612"
    },
    {
      "channel": 1,
      "note": 93,
      "start": 5.8282,
      "duration": 0.0969,
      "velocity": 122,
      "chip": "ym2612"
    },
    {
      "channel": 2,
      "note": 89,
      "start": 5.8308,
      "duration": 0.1115,
      "velocity": 122,
      "chip": "ym2612"
    },
    {
      "channel": 3,
      "note": 81,
      "start": 5.8451,
      "duration": 0.13,
      "velocity": 119,
      "chip": "ym2612"
    },
    {
      "channel": 4,
      "note": 58,
      "start": 6.0986,
      "duration": 0.3835,
      "velocity": 99,
      "chip": "ym2612"
    },
    {
      "channel": 1,
      "note": 89,
      "start": 6.1009,
      "duration": 0.0069,
      "velocity": 122,
      "chip": "ym2612"
    },
    {
      "channel": 2,
      "note": 94,
      "start": 6.1034,
      "duration": 0.3735,
      "velocity": 122,
      "chip": "ym2612"
    },
    {
      "channel": 3,
      "note": 82,
      "start": 6.1059,
      "duration": 0.3025,
      "velocity": 119,
      "chip": "ym2612"
    },
    {
      "channel": 1,
      "note": 86,
      "start": 6.1094,
      "duration": 0.0156,
      "velocity": 101,
      "chip": "ym2612"
    },
    {
      "channel": 0,
      "note": 53,
      "start": 6.4854,
      "duration": 0.3695,
      "velocity": 99,
      "chip": "ym2612"
    },
    {
      "channel": 3,
      "note": 77,
      "start": 6.4876,
      "duration": 0.2614,
      "velocity": 119,
      "chip": "ym2612"
    },
    {
      "channel": 0,
      "note": 58,
      "start": 6.8751,
      "duration": 0.2975,
      "velocity": 99,
      "chip": "ym2612"
    },
    {
      "channel": 2,
      "note": 98,
      "start": 6.9188,
      "duration": 0.2043,
      "velocity": 122,
      "chip": "ym2612"
    },
    {
      "channel": 1,
      "note": 94,
      "start": 6.925,
      "duration": 0.1976,
      "velocity": 122,
      "chip": "ym2612"
    },
    {
      "channel": 3,
      "note": 82,
      "start": 7.0926,
      "duration": 0.0467,
      "velocity": 119,
      "chip": "ym2612"
    },
    {
      "channel": 4,
      "note": 89,
      "start": 7.1262,
      "duration": 0.0466,
      "velocity": 101,
      "chip": "ym2612"
    },
    {
      "channel": 0,
      "note": 50,
      "start": 7.2256,
      "duration": 0.5642,
      "velocity": 99,
      "chip": "ym2612"
    },
    {
      "channel": 3,
      "note": 82,
      "start": 7.2282,
      "duration": 0.038,
      "velocity": 119,
      "chip": "ym2612"
    },
    {
      "channel": 1,
      "note": 91,
      "start": 7.2456,
      "duration": 0.1185,
      "velocity": 122,
      "chip": "ym2612"
    },
    {
      "channel": 2,
      "note": 96,
      "start": 7.2524,
      "duration": 0.1287,
      "velocity": 122,
      "chip": "ym2612"
    },
    {
      "channel": 4,
      "note": 94,
      "start": 7.255,
      "duration": 0.0266,
      "velocity": 101,
      "chip": "ym2612"
    },
    {
      "channel": 3,
      "note": 86,
      "start": 7.2893,
      "duration": 0.1581,
      "velocity": 119,
      "chip": "ym2612"
    },
    {
      "channel": 4,
      "note": 94,
      "start": 7.4008,
      "duration": 0.0633,
      "velocity": 101,
      "chip": "ym2612"
    },
    {
      "channel": 3,
      "note": 89,
      "start": 7.4839,
      "duration": 0.1302,
      "velocity": 119,
      "chip": "ym2612"
    },
    {
      "channel": 1,
      "note": 89,
      "start": 7.5172,
      "duration": 0.1136,
      "velocity": 122,
      "chip": "ym2612"
    },
    {
      "channel": 2,
      "note": 94,
      "start": 7.534,
      "duration": 0.0971,
      "velocity": 122,
      "chip": "ym2612"
    },
    {
      "channel": 4,
      "note": 89,
      "start": 7.5367,
      "duration": 0.0778,
      "velocity": 101,
      "chip": "ym2612"
    },
    {
      "channel": 3,
      "note": 87,
      "start": 7.734,
      "duration": 0.2459,
      "velocity": 119,
      "chip": "ym2612"
    },
    {
      "channel": 4,
      "note": 91,
      "start": 7.787,
      "duration": 0.0429,
      "velocity": 101,
      "chip": "ym2612"
    },
    {
      "channel": 1,
      "note": 96,
      "start": 7.7935,
      "duration": 0.1529,
      "velocity": 122,
      "chip": "ym2612"
    },
    {
      "channel": 2,
      "note": 91,
      "start": 7.7959,
      "duration": 0.1343,
      "velocity": 122,
      "chip": "ym2612"
    },
    {
      "channel": 0,
      "note": 51,
      "start": 7.801,
      "duration": 0.4454,
      "velocity": 99,
      "chip": "ym2612"
    },
    {
      "channel": 4,
      "note": 87,
      "start": 8.0997,
      "duration": 0.0802,
      "velocity": 101,
      "chip": "ym2612"
    },
    {
      "channel": 1,
      "note": 87,
      "start": 8.1162,
      "duration": 0.2044,
      "velocity": 122,
      "chip": "ym2612"
    },
    {
      "channel": 2,
      "note": 91,
      "start": 8.1188,
      "duration": 0.163,
      "velocity": 122,
      "chip": "ym2612"
    },
    {
      "channel": 3,
      "note": 79,
      "start": 8.1217,
      "duration": 0.1498,
      "velocity": 119,
      "chip": "ym2612"
    },
    {
      "channel": 0,
      "note": 55,
      "start": 8.253,
      "duration": 0.3945,
      "velocity": 99,
      "chip": "ym2612"
    },
    {
      "channel": 1,
      "note": 94,
      "start": 8.3903,
      "duration": 0.1136,
      "velocity": 122,
      "chip": "ym2612"
    },
    {
      "channel": 2,
      "note": 89,
      "start": 8.4073,
      "duration": 0.1471,
      "velocity": 122,
      "chip": "ym2612"
    },
    {
      "channel": 4,
      "note": 91,
      "start": 8.4099,
      "duration": 0.0608,
      "velocity": 101,
      "chip": "ym2612"
    },
    {
      "channel": 3,
      "note": 82,
      "start": 8.4239,
      "duration": 0.1468,
      "velocity": 119,
      "chip": "ym2612"
    },
    {
      "channel": 0,
      "note": 53,
      "start": 8.6502,
      "duration": 0.2691,
      "velocity": 99,
      "chip": "ym2612"
    },
    {
      "channel": 1,
      "note": 89,
      "start": 8.6532,
      "duration": 0.2161,
      "velocity": 122,
      "chip": "ym2612"
    },
    {
      "channel": 2,
      "note": 93,
      "start": 8.6555,
      "duration": 0.2143,
      "velocity": 122,
      "chip": "ym2612"
    },
    {
      "channel": 4,
      "note": 89,
      "start": 8.659,
      "duration": 0.0438,
      "velocity": 101,
      "chip": "ym2612"
    },
    {
      "channel": 3,
      "note": 81,
      "start": 8.6725,
      "duration": 0.2135,
      "velocity": 119,
      "chip": "ym2612"
    },
    {
      "channel": 0,
      "note": 57,
      "start": 8.9389,
      "duration": 0.5833,
      "velocity": 99,
      "chip": "ym2612"
    },
    {
      "channel": 1,
      "note": 89,
      "start": 8.9658,
      "duration": 0.1805,
      "velocity": 122,
      "chip": "ym2612"
    },
    {
      "channel": 2,
      "note": 91,
      "start": 8.9776,
      "duration": 0.119,
      "velocity": 122,
      "chip": "ym2612"
    },
    {
      "channel": 3,
      "note": 79,
      "start": 8.9802,
      "duration": 0.1995,
      "velocity": 119,
      "chip": "ym2612"
    },
    {
      "channel": 4,
      "note": 84,
      "start": 8.9856,
      "duration": 0.0168,
      "velocity": 101,
      "chip": "ym2612"
    },
    {
      "channel": 1,
      "note": 89,
      "start": 9.2494,
      "duration": 0.1636,
      "velocity": 122,
      "chip": "ym2612"
    },
    {
      "channel": 2,
      "note": 93,
      "start": 9.2663,
      "duration": 0.097,
      "velocity": 122,
      "chip": "ym2612"
    },
    {
      "channel": 3,
      "note": 81,
      "start": 9.2688,
      "duration": 0.1609,
      "velocity": 119,
      "chip": "ym2612"
    },
    {
      "channel": 4,
      "note": 87,
      "start": 9.2829,
      "duration": 0.0635,
      "velocity": 101,
      "chip": "ym2612"
    },
    {
      "channel": 3,
      "note": 82,
      "start": 9.5195,
      "duration": 0.2595,
      "velocity": 119,
      "chip": "ym2612"
    },
    {
      "channel": 0,
      "note": 58,
      "start": 9.5259,
      "duration": 0.2696,
      "velocity": 99,
      "chip": "ym2612"
    },
    {
      "channel": 1,
      "note": 89,
      "start": 9.5283,
      "duration": 0.4604,
      "velocity": 122,
      "chip": "ym2612"
    },
    {
      "channel": 2,
      "note": 94,
      "start": 9.5307,
      "duration": 0.4153,
      "velocity": 122,
      "chip": "ym2612"
    },
    {
      "channel": 4,
      "note": 86,
      "start": 9.533,
      "duration": 0.0294,
      "velocity": 101,
      "chip": "ym2612"
    },
    {
      "channel": 0,
      "note": 53,
      "start": 9.8817,
      "duration": 0.2557,
      "velocity": 99,
      "chip": "ym2612"
    },
    {
      "channel": 3,
      "note": 77,
      "start": 9.8844,
      "duration": 0.078,
      "velocity": 119,
      "chip": "ym2612"
    },
    {
      "channel": 4,
      "note": 82,
      "start": 9.8872,
      "duration": 0.0585,
      "velocity": 101,
      "chip": "ym2612"
    },
    {
      "channel": 3,
      "note": 79,
      "start": 9.9855,
      "duration": 0.1854,
      "velocity": 119,
      "chip": "ym2612"
    },
    {
      "channel": 4,
      "note": 77,
      "start": 10.141,
      "duration": 0.1632,
      "velocity": 119,
      "chip": "ym2612"
    },
    {
      "channel": 0,
      "note": 55,
      "start": 10.1739,
      "duration": 0.0969,
      "velocity": 99,
      "chip": "ym2612"
    },
    {
      "channel": 0,
      "note": 53,
      "start": 10.2903,
      "duration": 0.0971,
      "velocity": 99,
      "chip": "ym2612"
    },
    {
      "channel": 0,
      "note": 58,
      "start": 10.3941,
      "duration": 0.3066,
      "velocity": 99,
      "chip": "ym2612"
    },
    {
      "channel": 1,
      "note": 82,
      "start": 10.4057,
      "duration": 0.2307,
      "velocity": 122,
      "chip": "ym2612"
    },
    {
      "channel": 2,
      "note": 77,
      "start": 10.4081,
      "duration": 0.2288,
      "velocity": 122,
      "chip": "ym2612"
    },
    {
      "channel": 3,
      "note": 82,
      "start": 10.5898,
      "duration": 0.0634,
      "velocity": 119,
      "chip": "ym2612"
    },
    {
      "channel": 4,
      "note": 89,
      "start": 10.6065,
      "duration": 0.0635,
      "velocity": 101,
      "chip": "ym2612"
    },
    {
      "channel": 3,
      "note": 82,
      "start": 10.7049,
      "duration": 0.031,
      "velocity": 119,
      "chip": "ym2612"
    },
    {
      "channel": 0,
      "note": 50,
      "start": 10.711,
      "duration": 0.5349,
      "velocity": 99,
      "chip": "ym2612"
    },
    {
      "channel": 1,
      "note": 79,
      "start": 10.7168,
      "duration": 0.1624,
      "velocity": 122,
      "chip": "ym2612"
    },
    {
      "channel": 2,
      "note": 84,
      "start": 10.7192,
      "duration": 0.1272,
      "velocity": 122,
      "chip": "ym2612"
    },
    {
      "channel": 4,
      "note": 94,
      "start": 10.7216,
      "duration": 0.0144,
      "velocity": 101,
      "chip": "ym2612"
    },
    {
      "channel": 3,
      "note": 86,
      "start": 10.7659,
      "duration": 0.1968,
      "velocity": 119,
      "chip": "ym2612"
    },
    {
      "channel": 4,
      "note": 94,
      "start": 10.8827,
      "duration": 0.0468,
      "velocity": 101,
      "chip": "ym2612"
    },
    {
      "channel": 3,
      "note": 89,
      "start": 10.9993,
      "duration": 0.1135,
      "velocity": 119,
      "chip": "ym2612"
    },
    {
      "channel": 1,
      "note": 86,
      "start": 11.0329,
      "duration": 0.0964,
      "velocity": 122,
      "chip": "ym2612"
    },
    {
      "channel": 2,
      "note": 82,
      "start": 11.0354,
      "duration": 0.111,
      "velocity": 122,
      "chip": "ym2612"
    },
    {
      "channel": 4,
      "note": 89,
      "start": 11.0379,
      "duration": 0.0415,
      "velocity": 101,
      "chip": "ym2612"
    },
    {
      "channel": 3,
      "note": 87,
      "start": 11.2493,
      "duration": 0.2464,
      "velocity": 119,
      "chip": "ym2612"
    },
    {
      "channel": 0,
      "note": 51,
      "start": 11.2857,
      "duration": 0.4098,
      "velocity": 99,
      "chip": "ym2612"
    },
    {
      "channel": 1,
      "note": 82,
      "start": 11.288,
      "duration": 0.2076,
      "velocity": 122,
      "chip": "ym2612"
    },
    {
      "channel": 2,
      "note": 87,
      "start": 11.2906,
      "duration": 0.2055,
      "velocity": 122,
      "chip": "ym2612"
    },
    {
      "channel": 4,
      "note": 91,
      "start": 11.2929,
      "duration": 0.0097,
      "velocity": 101,
      "chip": "ym2612"
    },
    {
      "channel": 1,
      "note": 89,
      "start": 11.5986,
      "duration": 0.1821,
      "velocity": 122,
      "chip": "ym2612"
    },
    {
      "channel": 4,
      "note": 87,
      "start": 11.6011,
      "duration": 0.0613,
      "velocity": 101,
      "chip": "ym2612"
    },
    {
      "channel": 2,
      "note": 84,
      "start": 11.6156,
      "duration": 0.1603,
      "velocity": 122,
      "chip": "ym2612"
    },
    {
      "channel": 3,
      "note": 79,
      "start": 11.6181,
      "duration": 0.2017,
      "velocity": 119,
      "chip": "ym2612"
    },
    {
      "channel": 0,
      "note": 55,
      "start": 11.7518,
      "duration": 0.3512,
      "velocity": 99,
      "chip": "ym2612"
    },
    {
      "channel": 1,
      "note": 91,
      "start": 11.8727,
      "duration": 0.1136,
      "velocity": 122,
      "chip": "ym2612"
    },
    {
      "channel": 4,
      "note": 91,
      "start": 11.8752,
      "duration": 0.0612,
      "velocity": 101,
      "chip": "ym2612"
    },
    {
      "channel": 2,
      "note": 87,
      "start": 11.9063,
      "duration": 0.1138,
      "velocity": 122,
      "chip": "ym2612"
    },
    {
      "channel": 3,
      "note": 82,
      "start": 11.9088,
      "duration": 0.111,
      "velocity": 119,
      "chip": "ym2612"
    },
    {
      "channel": 0,
      "note": 53,
      "start": 12.1434,
      "duration": 0.2917,
      "velocity": 99,
      "chip": "ym2612"
    },
    {
      "channel": 3,
      "note": 81,
      "start": 12.1458,
      "duration": 0.2227,
      "velocity": 119,
      "chip": "ym2612"
    },
    {
      "channel": 1,
      "note": 93,
      "start": 12.1557,
      "duration": 0.1627,
      "velocity": 122,
      "chip": "ym2612"
    },
    {
      "channel": 2,
      "note": 89,
      "start": 12.158,
      "duration": 0.2108,
      "velocity": 122,
      "chip": "ym2612"
    },
    {
      "channel": 4,
      "note": 89,
      "start": 12.1606,
      "duration": 0.0412,
      "velocity": 101,
      "chip": "ym2612"
    },
    {
      "channel": 0,
      "note": 57,
      "start": 12.4548,
      "duration": 0.5388,
      "velocity": 99,
      "chip": "ym2612"
    },
    {
      "channel": 1,
      "note": 91,
      "start": 12.475,
      "duration": 0.0687,
      "velocity": 122,
      "chip": "ym2612"
    },
    {
      "channel": 2,
      "note": 89,
      "start": 12.478,
      "duration": 0.1328,
      "velocity": 122,
      "chip": "ym2612"
    },
    {
      "channel": 3,
      "note": 79,
      "start": 12.4832,
      "duration": 0.2105,
      "velocity": 119,
      "chip": "ym2612"
    },
    {
      "channel": 4,
      "note": 91,
      "start": 12.4854,
      "duration": 0.0165,
      "velocity": 101,
      "chip": "ym2612"
    },
    {
      "channel": 4,
      "note": 93,
      "start": 12.7304,
      "duration": 0.0801,
      "velocity": 101,
      "chip": "ym2612"
    },
    {
      "channel": 1,
      "note": 93,
      "start": 12.7634,
      "duration": 0.097,
      "velocity": 122,
      "chip": "ym2612"
    },
    {
      "channel": 2,
      "note": 89,
      "start": 12.766,
      "duration": 0.1115,
      "velocity": 122,
      "chip": "ym2612"
    },
    {
      "channel": 3,
      "note": 81,
      "start": 12.7685,
      "duration": 0.1086,
      "velocity": 119,
      "chip": "ym2612"
    },
    {
      "channel": 3,
      "note": 82,
      "start": 13.0136,
      "duration": 0.2467,
      "velocity": 119,
      "chip": "ym2612"
    },
    {
      "channel": 1,
      "note": 89,
      "start": 13.0337,
      "duration": 0.4577,
      "velocity": 122,
      "chip": "ym2612"
    },
    {
      "channel": 2,
      "note": 94,
      "start": 13.0361,
      "duration": 0.4412,
      "velocity": 122,
      "chip": "ym2612"
    },
    {
      "channel": 4,
      "note": 94,
      "start": 13.0386,
      "duration": 0.0217,
      "velocity": 101,
      "chip": "ym2612"
    },
    {
      "channel": 0,
      "note": 58,
      "start": 13.0436,
      "duration": 0.3665,
      "velocity": 99,
      "chip": "ym2612"
    },
    {
      "channel": 3,
      "note": 79,
      "start": 13.3468,
      "duration": 0.2201,
      "velocity": 119,
      "chip": "ym2612"
    },
    {
      "channel": 5,
      "note": 55,
      "start": 13.3965,
      "duration": 0.0817,
      "velocity": 99,
      "chip": "ym2612"
    },
    {
      "channel": 3,
      "note": 77,
      "start": 13.6474,
      "duration": 0.0288,
      "velocity": 119,
      "chip": "ym2612"
    },
    {
      "channel": 0,
      "note": 53,
      "start": 13.6527,
      "duration": 0.1073,
      "velocity": 99,
      "chip": "ym2612"
    },
    {
      "channel": 0,
      "note": 51,
      "start": 13.8498,
      "duration": 0.259,
      "velocity": 99,
      "chip": "ym2612"
    },
    {
      "channel": 1,
      "note": 91,
      "start": 13.8519,
      "duration": 0.2068,
      "velocity": 122,
      "chip": "ym2612"
    },
    {
      "channel": 2,
      "note": 87,
      "start": 13.8546,
      "duration": 0.2213,
      "velocity": 122,
      "chip": "ym2612"
    },
    {
      "channel": 3,
      "note": 75,
      "start": 14.0288,
      "duration": 0.0468,
      "velocity": 119,
      "chip": "ym2612"
    },
    {
      "channel": 4,
      "note": 87,
      "start": 14.0623,
      "duration": 0.0799,
      "velocity": 101,
      "chip": "ym2612"
    },
    {
      "channel": 3,
      "note": 75,
      "start": 14.1489,
      "duration": 0.0327,
      "velocity": 119,
      "chip": "ym2612"
    },
    {
      "channel": 0,
      "note": 55,
      "start": 14.1555,
      "duration": 0.512,
      "velocity": 99,
      "chip": "ym2612"
    },
    {
      "channel": 1,
      "note": 84,
      "start": 14.1578,
      "duration": 0.3265,
      "velocity": 122,
      "chip": "ym2612"
    },
    {
      "channel": 2,
      "note": 89,
      "start": 14.1633,
      "duration": 0.2547,
      "velocity": 122,
      "chip": "ym2612"
    },
    {
      "channel": 4,
      "note": 82,
      "start": 14.1681,
      "duration": 0.0186,
      "velocity": 101,
      "chip": "ym2612"
    },
    {
      "channel": 3,
      "note": 79,
      "start": 14.1944,
      "duration": 0.1566,
      "velocity": 119,
      "chip": "ym2612"
    },
    {
      "channel": 4,
      "note": 87,
      "start": 14.3374,
      "duration": 0.0637,
      "velocity": 101,
      "chip": "ym2612"
    },
    {
      "channel": 3,
      "note": 82,
      "start": 14.421,
      "duration": 0.0967,
      "velocity": 119,
      "chip": "ym2612"
    },
    {
      "channel": 2,
      "note": 82,
      "start": 14.4376,
      "duration": 0.1469,
      "velocity": 122,
      "chip": "ym2612"
    },
    {
      "channel": 5,
      "note": 87,
      "start": 14.4401,
      "duration": 0.0779,
      "velocity": 122,
      "chip": "ym2612"
    },
    {
      "channel": 4,
      "note": 91,
      "start": 14.5714,
      "duration": 0.063,
      "velocity": 101,
      "chip": "ym2612"
    },
    {
      "channel": 3,
      "note": 81,
      "start": 14.7076,
      "duration": 0.2265,
      "velocity": 119,
      "chip": "ym2612"
    },
    {
      "channel": 4,
      "note": 89,
      "start": 14.7099,
      "duration": 0.0141,
      "velocity": 101,
      "chip": "ym2612"
    },
    {
      "channel": 0,
      "note": 53,
      "start": 14.7152,
      "duration": 0.2852,
      "velocity": 99,
      "chip": "ym2612"
    },
    {
      "channel": 1,
      "note": 93,
      "start": 14.7217,
      "duration": 0.2122,
      "velocity": 122,
      "chip": "ym2612"
    },
    {
      "channel": 2,
      "note": 89,
      "start": 14.7276,
      "duration": 0.2397,
      "velocity": 122,
      "chip": "ym2612"
    },
    {
      "channel": 0,
      "note": 57,
      "start": 15.0201,
      "duration": 0.3035,
      "velocity": 99,
      "chip": "ym2612"
    },
    {
      "channel": 4,
      "note": 84,
      "start": 15.0227,
      "duration": 0.0612,
      "velocity": 101,
      "chip": "ym2612"
    },
    {
      "channel": 3,
      "note": 79,
      "start": 15.0369,
      "duration": 0.2034,
      "velocity": 119,
      "chip": "ym2612"
    },
    {
      "channel": 1,
      "note": 87,
      "start": 15.0536,
      "duration": 0.2201,
      "velocity": 122,
      "chip": "ym2612"
    },
    {
      "channel": 2,
      "note": 91,
      "start": 15.0872,
      "duration": 0.1202,
      "velocity": 122,
      "chip": "ym2612"
    },
    {
      "channel": 4,
      "note": 89,
      "start": 15.2936,
      "duration": 0.0634,
      "velocity": 101,
      "chip": "ym2612"
    },
    {
      "channel": 0,
      "note": 53,
      "start": 15.3272,
      "duration": 0.2274,
      "velocity": 99,
      "chip": "ym2612"
    },
    {
      "channel": 1,
      "note": 84,
      "start": 15.3296,
      "duration": 0.1107,
      "velocity": 122,
      "chip": "ym2612"
    },
    {
      "channel": 3,
      "note": 77,
      "start": 15.3321,
      "duration": 0.1083,
      "velocity": 119,
      "chip": "ym2612"
    },
    {
      "channel": 2,
      "note": 89,
      "start": 15.3436,
      "duration": 0.0805,
      "velocity": 122,
      "chip": "ym2612"
    },
    {
      "channel": 3,
      "note": 79,
      "start": 15.5585,
      "duration": 0.249,
      "velocity": 119,
      "chip": "ym2612"
    },
    {
      "channel": 0,
      "note": 51,
      "start": 15.5668,
      "duration": 0.3073,
      "velocity": 99,
      "chip": "ym2612"
    },
    {
      "channel": 1,
      "note": 87,
      "start": 15.5693,
      "duration": 0.305,
      "velocity": 122,
      "chip": "ym2612"
    },
    {
      "channel": 2,
      "note": 91,
      "start": 15.5776,
      "duration": 0.2304,
      "velocity": 122,
      "chip": "ym2612"
    },
    {
      "channel": 4,
      "note": 87,
      "start": 15.7941,
      "duration": 0.0635,
      "velocity": 101,
      "chip": "ym2612"
    },
    {
      "channel": 0,
      "note": 55,
      "start": 15.8872,
      "duration": 0.5467,
      "velocity": 99,
      "chip": "ym2612"
    },
    {
      "channel": 1,
      "note": 84,
      "start": 15.8934,
      "duration": 0.3072,
      "velocity": 122,
      "chip": "ym2612"
    },
    {
      "channel": 2,
      "note": 89,
      "start": 15.8959,
      "duration": 0.2218,
      "velocity": 122,
      "chip": "ym2612"
    },
    {
      "channel": 3,
      "note": 82,
      "start": 15.8984,
      "duration": 0.169,
      "velocity": 119,
      "chip": "ym2612"
    },
    {
      "channel": 4,
      "note": 82,
      "start": 15.9067,
      "duration": 0.0125,
      "velocity": 101,
      "chip": "ym2612"
    },
    {
      "channel": 4,
      "note": 87,
      "start": 16.0706,
      "duration": 0.0635,
      "velocity": 101,
      "chip": "ym2612"
    },
    {
      "channel": 3,
      "note": 86,
      "start": 16.1872,
      "duration": 0.1634,
      "velocity": 119,
      "chip": "ym2612"
    },
    {
      "channel": 1,
      "note": 82,
      "start": 16.2038,
      "duration": 0.1136,
      "velocity": 122,
      "chip": "ym2612"
    },
    {
      "channel": 2,
      "note": 87,
      "start": 16.2068,
      "duration": 0.0606,
      "velocity": 122,
      "chip": "ym2612"
    },
    {
      "channel": 4,
      "note": 91,
      "start": 16.3039,
      "duration": 0.0635,
      "velocity": 101,
      "chip": "ym2612"
    },
    {
      "channel": 4,
      "note": 89,
      "start": 16.404,
      "duration": 0.0637,
      "velocity": 101,
      "chip": "ym2612"
    },
    {
      "channel": 0,
      "note": 53,
      "start": 16.4577,
      "duration": 0.2922,
      "velocity": 99,
      "chip": "ym2612"
    },
    {
      "channel": 3,
      "note": 84,
      "start": 16.4605,
      "duration": 0.2228,
      "velocity": 119,
      "chip": "ym2612"
    },
    {
      "channel": 1,
      "note": 93,
      "start": 16.4656,
      "duration": 0.301,
      "velocity": 122,
      "chip": "ym2612"
    },
    {
      "channel": 2,
      "note": 89,
      "start": 16.4706,
      "duration": 0.2798,
      "velocity": 122,
      "chip": "ym2612"
    },
    {
      "channel": 3,
      "note": 81,
      "start": 16.7733,
      "duration": 0.2015,
      "velocity": 119,
      "chip": "ym2612"
    },
    {
      "channel": 0,
      "note": 57,
      "start": 16.7848,
      "duration": 0.29,
      "velocity": 99,
      "chip": "ym2612"
    },
    {
      "channel": 4,
      "note": 53,
      "start": 17.0447,
      "duration": 0.2636,
      "velocity": 99,
      "chip": "ym2612"
    },
    {
      "channel": 3,
      "note": 77,
      "start": 17.0782,
      "duration": 0.1634,
      "velocity": 119,
      "chip": "ym2612"
    },
    {
      "channel": 0,
      "note": 51,
      "start": 17.3311,
      "duration": 0.2758,
      "velocity": 99,
      "chip": "ym2612"
    },
    {
      "channel": 1,
      "note": 91,
      "start": 17.3378,
      "duration": 0.2357,
      "velocity": 122,
      "chip": "ym2612"
    },
    {
      "channel": 2,
      "note": 87,
      "start": 17.3402,
      "duration": 0.2504,
      "velocity": 122,
      "chip": "ym2612"
    },
    {
      "channel": 3,
      "note": 75,
      "start": 17.5269,
      "duration": 0.0468,
      "velocity": 119,
      "chip": "ym2612"
    },
    {
      "channel": 4,
      "note": 87,
      "start": 17.5773,
      "duration": 0.0465,
      "velocity": 101,
      "chip": "ym2612"
    },
    {
      "channel": 0,
      "note": 55,
      "start": 17.6267,
      "duration": 0.5721,
      "velocity": 99,
      "chip": "ym2612"
    },
    {
      "channel": 1,
      "note": 84,
      "start": 17.66,
      "duration": 0.2888,
      "velocity": 122,
      "chip": "ym2612"
    },
    {
      "channel": 3,
      "note": 75,
      "start": 17.6625,
      "duration": 0.0418,
      "velocity": 119,
      "chip": "ym2612"
    },
    {
      "channel": 2,
      "note": 89,
      "start": 17.6805,
      "duration": 0.2521,
      "velocity": 122,
      "chip": "ym2612"
    },
    {
      "channel": 3,
      "note": 79,
      "start": 17.7183,
      "duration": 0.114,
      "velocity": 119,
      "chip": "ym2612"
    },
    {
      "channel": 4,
      "note": 91,
      "start": 17.7206,
      "duration": 0.0617,
      "velocity": 101,
      "chip": "ym2612"
    },
    {
      "channel": 2,
      "note": 82,
      "start": 17.9356,
      "duration": 0.1634,
      "velocity": 122,
      "chip": "ym2612"
    },
    {
      "channel": 5,
      "note": 87,
      "start": 17.9382,
      "duration": 0.0941,
      "velocity": 122,
      "chip": "ym2612"
    },
    {
      "channel": 3,
      "note": 82,
      "start": 17.9405,
      "duration": 0.1251,
      "velocity": 119,
      "chip": "ym2612"
    },
    {
      "channel": 4,
      "note": 94,
      "start": 17.9431,
      "duration": 0.0559,
      "velocity": 101,
      "chip": "ym2612"
    },
    {
      "channel": 3,
      "note": 81,
      "start": 18.1854,
      "duration": 0.2475,
      "velocity": 119,
      "chip": "ym2612"
    },
    {
      "channel": 4,
      "note": 93,
      "start": 18.1879,
      "duration": 0.0631,
      "velocity": 101,
      "chip": "ym2612"
    },
    {
      "channel": 0,
      "note": 53,
      "start": 18.2019,
      "duration": 0.2807,
      "velocity": 99,
      "chip": "ym2612"
    },
    {
      "channel": 1,
      "note": 93,
      "start": 18.2454,
      "duration": 0.1873,
      "velocity": 122,
      "chip": "ym2612"
    },
    {
      "channel": 2,
      "note": 89,
      "start": 18.2484,
      "duration": 0.2177,
      "velocity": 122,
      "chip": "ym2612"
    },
    {
      "channel": 0,
      "note": 57,
      "start": 18.5355,
      "duration": 0.2537,
      "velocity": 99,
      "chip": "ym2612"
    },
    {
      "channel": 3,
      "note": 79,
      "start": 18.5381,
      "duration": 0.1845,
      "velocity": 119,
      "chip": "ym2612"
    },
    {
      "channel": 4,
      "note": 91,
      "start": 18.5528,
      "duration": 0.0634,
      "velocity": 101,
      "chip": "ym2612"
    },
    {
      "channel": 1,
      "note": 87,
      "start": 18.5691,
      "duration": 0.2367,
      "velocity": 122,
      "chip": "ym2612"
    },
    {
      "channel": 2,
      "note": 91,
      "start": 18.5717,
      "duration": 0.2012,
      "velocity": 122,
      "chip": "ym2612"
    },
    {
      "channel": 0,
      "note": 53,
      "start": 18.7922,
      "duration": 0.2302,
      "velocity": 99,
      "chip": "ym2612"
    },
    {
      "channel": 1,
      "note": 84,
      "start": 18.8422,
      "duration": 0.0969,
      "velocity": 122,
      "chip": "ym2612"
    },
    {
      "channel": 3,
      "note": 77,
      "start": 18.8447,
      "duration": 0.0779,
      "velocity": 119,
      "chip": "ym2612"
    },
    {
      "channel": 4,
      "note": 89,
      "start": 18.8476,
      "duration": 0.0417,
      "velocity": 101,
      "chip": "ym2612"
    },
    {
      "channel": 2,
      "note": 89,
      "start": 18.8592,
      "duration": 0.0638,
      "velocity": 122,
      "chip": "ym2612"
    },
    {
      "channel": 0,
      "note": 48,
      "start": 19.0624,
      "duration": 0.3428,
      "velocity": 99,
      "chip": "ym2612"
    },
    {
      "channel": 3,
      "note": 79,
      "start": 19.0743,
      "duration": 0.2978,
      "velocity": 119,
      "chip": "ym2612"
    },
    {
      "channel": 1,
      "note": 91,
      "start": 19.0917,
      "duration": 0.2303,
      "velocity": 122,
      "chip": "ym2612"
    },
    {
      "channel": 2,
      "note": 87,
      "start": 19.0943,
      "duration": 0.2783,
      "velocity": 122,
      "chip": "ym2612"
    },
    {
      "channel": 4,
      "note": 87,
      "start": 19.3085,
      "duration": 0.0639,
      "velocity": 101,
      "chip": "ym2612"
    },
    {
      "channel": 1,
      "note": 84,
      "start": 19.4182,
      "duration": 0.2469,
      "velocity": 122,
      "chip": "ym2612"
    },
    {
      "channel": 2,
      "note": 89,
      "start": 19.4297,
      "duration": 0.2692,
      "velocity": 122,
      "chip": "ym2612"
    },
    {
      "channel": 4,
      "note": 82,
      "start": 19.4319,
      "duration": 0.0115,
      "velocity": 101,
      "chip": "ym2612"
    },
    {
      "channel": 0,
      "note": 50,
      "start": 19.4572,
      "duration": 0.3744,
      "velocity": 99,
      "chip": "ym2612"
    },
    {
      "channel": 4,
      "note": 87,
      "start": 19.6183,
      "duration": 0.047,
      "velocity": 101,
      "chip": "ym2612"
    },
    {
      "channel": 1,
      "note": 82,
      "start": 19.7182,
      "duration": 0.1136,
      "velocity": 122,
      "chip": "ym2612"
    },
    {
      "channel": 2,
      "note": 87,
      "start": 19.7208,
      "duration": 0.0781,
      "velocity": 122,
      "chip": "ym2612"
    },
    {
      "channel": 4,
      "note": 91,
      "start": 19.8351,
      "duration": 0.0633,
      "velocity": 101,
      "chip": "ym2612"
    },
    {
      "channel": 4,
      "note": 89,
      "start": 19.9519,
      "duration": 0.0456,
      "velocity": 101,
      "chip": "ym2612"
    },
    {
      "channel": 0,
      "note": 51,
      "start": 19.9716,
      "duration": 0.2424,
      "velocity": 99,
      "chip": "ym2612"
    },
    {
      "channel": 1,
      "note": 93,
      "start": 19.9742,
      "duration": 0.1565,
      "velocity": 122,
      "chip": "ym2612"
    },
    {
      "channel": 2,
      "note": 89,
      "start": 19.9844,
      "duration": 0.1966,
      "velocity": 122,
      "chip": "ym2612"
    },
    {
      "channel": 1,
      "note": 87,
      "start": 20.2838,
      "duration": 0.2882,
      "velocity": 122,
      "chip": "ym2612"
    },
    {
      "channel": 0,
      "note": 52,
      "start": 20.3206,
      "duration": 0.2513,
      "velocity": 99,
      "chip": "ym2612"
    },
    {
      "channel": 2,
      "note": 91,
      "start": 20.3231,
      "duration": 0.1657,
      "velocity": 122,
      "chip": "ym2612"
    },
    {
      "channel": 4,
      "note": 91,
      "start": 20.3255,
      "duration": 0.0211,
      "velocity": 101,
      "chip": "ym2612"
    },
    {
      "channel": 0,
      "note": 53,
      "start": 20.6116,
      "duration": 0.1186,
      "velocity": 99,
      "chip": "ym2612"
    },
    {
      "channel": 1,
      "note": 89,
      "start": 20.6138,
      "duration": 0.0999,
      "velocity": 122,
      "chip": "ym2612"
    },
    {
      "channel": 2,
      "note": 93,
      "start": 20.6163,
      "duration": 0.0978,
      "velocity": 122,
      "chip": "ym2612"
    },
    {
      "channel": 4,
      "note": 93,
      "start": 20.6188,
      "duration": 0.0147,
      "velocity": 101,
      "chip": "ym2612"
    }
  ]
}