{
  "track_name": "03 - An Old Sad Dance (Mook's Cabin)",
  "duration_sec": 118.446,
  "sample_rate": 44100,
  "note_count": 1370,
  "unique_pitches": 25,
  "pitch_range": 41,
  "avg_note_duration": 0.4356,
  "reconstruction_stats": {
    "notes_reconstructed": 1370,
    "keyon_events": 1370,
    "keyoff_events": 1366,
    "orphan_keyons": 4,
    "unique_pitches": 25,
    "pitch_range": 41,
    "avg_duration_sec": 0.4356
  },
  "metadata": {
    "source": "K\\King Colossus\\03 - An Old Sad Dance (Mook's Cabin).vgm"
  },
  "notes": [
    {
      "channel": 0,
      "note": 66,
      "start": 0.0,
      "duration": 0.0,
      "velocity": 98,
      "chip": "ym2612"
    },
    {
      "channel": 0,
      "note": 73,
      "start": 0.0,
      "duration": 0.0,
      "velocity": 98,
      "chip": "ym2612"
    },
    {
      "channel": 0,
      "note": 57,
      "start": 0.0,
      "duration": 0.0,
      "velocity": 110,
      "chip": "ym2612"
    },
    {
      "channel": 0,
      "note": 57,
      "start": 0.0,
      "duration": 0.0,
      "velocity": 1,
      "chip": "ym2612"
    },
    {
      "channel": 0,
      "note": 71,
      "start": 0.0,
      "duration": 0.0,
      "velocity": 127,
      "chip": "ym2612"
    },
    {
      "channel": 0,
      "note": 71,
      "start": 0.0,
      "duration": 0.0,
      "velocity": 127,
      "chip": "ym2612"
    },
    {
      "channel": 0,
      "note": 71,
      "start": 0.0,
      "duration": 0.0,
      "velocity": 127,
      "chip": "ym2612"
    },
    {
      "channel": 0,
      "note": 71,
      "start": 0.0,
      "duration": 0.0,
      "velocity": 1,
      "chip": "ym2612"
    },
    {
      "channel": 0,
      "note": 66,
      "start": 0.0,
      "duration": 0.018,
      "velocity": 1,
      "chip": "ym2612"
    },
    {
      "channel": 1,
      "note": 59,
      "start": 0.0,
      "duration": 0.0,
      "velocity": 98,
      "chip": "ym2612"
    },
    {
      "channel": 1,
      "note": 69,
      "start": 0.0,
      "duration": 0.0,
      "velocity": 98,
      "chip": "ym2612"
    },
    {
      "channel": 1,
      "note": 76,
      "start": 0.0,
      "duration": 0.0,
      "velocity": 98,
      "chip": "ym2612"
    },
    {
      "channel": 1,
      "note": 73,
      "start": 0.0,
      "duration": 0.0,
      "velocity": 98,
      "chip": "ym2612"
    },
    {
      "channel": 1,
      "note": 59,
      "start": 0.0,
      "duration": 0.0,
      "velocity": 98,
      "chip": "ym2612"
    },
    {
      "channel": 1,
      "note": 69,
      "start": 0.0,
      "duration": 0.0187,
      "velocity": 1,
      "chip": "ym2612"
    },
    {
      "channel": 2,
      "note": 59,
      "start": 0.0,
      "duration": 0.0,
      "velocity": 95,
      "chip": "ym2612"
    },
    {
      "channel": 2,
      "note": 59,
      "start": 0.0,
      "duration": 0.0,
      "velocity": 95,
      "chip": "ym2612"
    },
    {
      "channel": 2,
      "note": 59,
      "start": 0.0,
      "duration": 0.0,
      "velocity": 95,
      "chip": "ym2612"
    },
    {
      "channel": 2,
      "note": 59,
      "start": 0.0,
      "duration": 0.0,
      "velocity": 95,
      "chip": "ym2612"
    },
    {
      "channel": 2,
      "note": 59,
      "start": 0.0,
      "duration": 0.0191,
      "velocity": 1,
      "chip": "ym2612"
    },
    {
      "channel": 3,
      "note": 66,
      "start": 0.0,
      "duration": 0.0,
      "velocity": 95,
      "chip": "ym2612"
    },
    {
      "channel": 3,
      "note": 66,
      "start": 0.0,
      "duration": 0.0,
      "velocity": 95,
      "chip": "ym2612"
    },
    {
      "channel": 3,
      "note": 66,
      "start": 0.0,
      "duration": 0.0,
      "velocity": 95,
      "chip": "ym2612"
    },
    {
      "channel": 3,
      "note": 66,
      "start": 0.0,
      "duration": 0.0,
      "velocity": 95,
      "chip": "ym2612"
    },
    {
      "channel": 3,
      "note": 66,
      "start": 0.0,
      "duration": 0.0197,
      "velocity": 1,
      "chip": "ym2612"
    },
    {
      "channel": 4,
      "note": 83,
      "start": 0.0,
      "duration": 0.0,
      "velocity": 111,
      "chip": "ym2612"
    },
    {
      "channel": 4,
      "note": 85,
      "start": 0.0,
      "duration": 0.0,
      "velocity": 111,
      "chip": "ym2612"
    },
    {
      "channel": 4,
      "note": 86,
      "start": 0.0,
      "duration": 0.0,
      "velocity": 111,
      "chip": "ym2612"
    },
    {
      "channel": 4,
      "note": 85,
      "start": 0.0,
      "duration": 0.0,
      "velocity": 111,
      "chip": "ym2612"
    },
    {
      "channel": 4,
      "note": 86,
      "start": 0.0,
      "duration": 0.0,
      "velocity": 111,
      "chip": "ym2612"
    },
    {
      "channel": 4,
      "note": 85,
      "start": 0.0,
      "duration": 0.0,
      "velocity": 111,
      "chip": "ym2612"
    },
    {
      "channel": 4,
      "note": 83,
      "start": 0.0,
      "duration": 0.0,
      "velocity": 111,
      "chip": "ym2612"
    },
    {
      "channel": 4,
      "note": 81,
      "start": 0.0,
      "duration": 0.0,
      "velocity": 111,
      "chip": "ym2612"
    },
    {
      "channel": 4,
      "note": 83,
      "start": 0.0,
      "duration": 0.0203,
      "velocity": 1,
      "chip": "ym2612"
    },
    {
      "channel": 5,
      "note": 78,
      "start": 0.0,
      "duration": 0.0,
      "velocity": 111,
      "chip": "ym2612"
    },
    {
      "channel": 5,
      "note": 83,
      "start": 0.0,
      "duration": 0.0,
      "velocity": 111,
      "chip": "ym2612"
    },
    {
      "channel": 5,
      "note": 85,
      "start": 0.0,
      "duration": 0.0,
      "velocity": 111,
      "chip": "ym2612"
    },
    {
      "channel": 5,
      "note": 86,
      "start": 0.0,
      "duration": 0.0,
      "velocity": 111,
      "chip": "ym2612"
    },
    {
      "channel": 5,
      "note": 85,
      "start": 0.0,
      "duration": 0.0,
      "velocity": 111,
      "chip": "ym2612"
    },
    {
      "channel": 5,
      "note": 86,
      "start": 0.0,
      "duration": 0.0,
      "velocity": 111,
      "chip": "ym2612"
    },
    {
      "channel": 5,
      "note": 85,
      "start": 0.0,
      "duration": 0.0,
      "velocity": 111,
      "chip": "ym2612"
    },
    {
      "channel": 5,
      "note": 83,
      "start": 0.0,
      "duration": 0.0,
      "velocity": 111,
      "chip": "ym2612"
    },
    {
      "channel": 5,
      "note": 81,
      "start": 0.0,
      "duration": 0.0,
      "velocity": 111,
      "chip": "ym2612"
    },
    {
      "channel": 5,
      "note": 83,
      "start": 0.0,
      "duration": 0.021,
      "velocity": 1,
      "chip": "ym2612"
    },
    {
      "channel": 1,
      "note": 59,
      "start": 0.0242,
      "duration": 0.366,
      "velocity": 98,
      "chip": "ym2612"
    },
    {
      "channel": 2,
      "note": 59,
      "start": 0.0257,
      "duration": 0.6433,
      "velocity": 95,
      "chip": "ym2612"
    },
    {
      "channel": 3,
      "note": 66,
      "start": 0.0272,
      "duration": 0.6421,
      "velocity": 95,
      "chip": "ym2612"
    },
    {
      "channel": 0,
      "note": 66,
      "start": 0.2044,
      "duration": 0.3717,
      "velocity": 98,
      "chip": "ym2612"
    },
    {
      "channel": 1,
      "note": 69,
      "start": 0.3903,
      "duration": 0.3717,
      "velocity": 98,
      "chip": "ym2612"
    },
    {
      "channel": 0,
      "note": 73,
      "start": 0.5762,
      "duration": 0.3711,
      "velocity": 98,
      "chip": "ym2612"
    },
    {
      "channel": 1,
      "note": 76,
      "start": 0.762,
      "duration": 0.3713,
      "velocity": 98,
      "chip": "ym2612"
    },
    {
      "channel": 2,
      "note": 59,
      "start": 0.7623,
      "duration": 0.1231,
      "velocity": 95,
      "chip": "ym2612"
    },
    {
      "channel": 3,
      "note": 66,
      "start": 0.7625,
      "duration": 0.123,
      "velocity": 95,
      "chip": "ym2612"
    },
    {
      "channel": 0,
      "note": 69,
      "start": 1.133,
      "duration": 1.0988,
      "velocity": 98,
      "chip": "ym2612"
    },
    {
      "channel": 1,
      "note": 73,
      "start": 1.1333,
      "duration": 1.0988,
      "velocity": 98,
      "chip": "ym2612"
    },
    {
      "channel": 2,
      "note": 59,
      "start": 1.1336,
      "duration": 0.6341,
      "velocity": 95,
      "chip": "ym2612"
    },
    {
      "channel": 3,
      "note": 66,
      "start": 1.1339,
      "duration": 0.6339,
      "velocity": 95,
      "chip": "ym2612"
    },
    {
      "channel": 2,
      "note": 59,
      "start": 1.8609,
      "duration": 0.1237,
      "velocity": 95,
      "chip": "ym2612"
    },
    {
      "channel": 3,
      "note": 66,
      "start": 1.861,
      "duration": 0.1236,
      "velocity": 95,
      "chip": "ym2612"
    },
    {
      "channel": 1,
      "note": 59,
      "start": 2.2321,
      "duration": 0.3555,
      "velocity": 98,
      "chip": "ym2612"
    },
    {
      "channel": 2,
      "note": 59,
      "start": 2.2324,
      "duration": 0.6335,
      "velocity": 95,
      "chip": "ym2612"
    },
    {
      "channel": 3,
      "note": 66,
      "start": 2.2327,
      "duration": 0.6333,
      "velocity": 95,
      "chip": "ym2612"
    },
    {
      "channel": 0,
      "note": 66,
      "start": 2.4019,
      "duration": 0.3711,
      "velocity": 98,
      "chip": "ym2612"
    },
    {
      "channel": 1,
      "note": 69,
      "start": 2.5876,
      "duration": 0.3712,
      "velocity": 98,
      "chip": "ym2612"
    },
    {
      "channel": 0,
      "note": 73,
      "start": 2.7731,
      "duration": 0.3712,
      "velocity": 98,
      "chip": "ym2612"
    },
    {
      "channel": 1,
      "note": 76,
      "start": 2.9589,
      "duration": 0.3716,
      "velocity": 98,
      "chip": "ym2612"
    },
    {
      "channel": 2,
      "note": 59,
      "start": 2.9591,
      "duration": 0.1235,
      "velocity": 95,
      "chip": "ym2612"
    },
    {
      "channel": 3,
      "note": 66,
      "start": 2.9594,
      "duration": 0.1234,
      "velocity": 95,
      "chip": "ym2612"
    },
    {
      "channel": 0,
      "note": 69,
      "start": 3.3303,
      "duration": 1.0984,
      "velocity": 98,
      "chip": "ym2612"
    },
    {
      "channel": 1,
      "note": 73,
      "start": 3.3305,
      "duration": 1.0984,
      "velocity": 98,
      "chip": "ym2612"
    },
    {
      "channel": 2,
      "note": 59,
      "start": 3.3308,
      "duration": 0.6344,
      "velocity": 95,
      "chip": "ym2612"
    },
    {
      "channel": 3,
      "note": 66,
      "start": 3.331,
      "duration": 0.6342,
      "velocity": 95,
      "chip": "ym2612"
    },
    {
      "channel": 2,
      "note": 59,
      "start": 4.058,
      "duration": 0.1233,
      "velocity": 95,
      "chip": "ym2612"
    },
    {
      "channel": 3,
      "note": 66,
      "start": 4.0583,
      "duration": 0.1231,
      "velocity": 95,
      "chip": "ym2612"
    },
    {
      "channel": 4,
      "note": 78,
      "start": 4.0586,
      "duration": 0.3711,
      "velocity": 111,
      "chip": "ym2612"
    },
    {
      "channel": 5,
      "note": 78,
      "start": 4.3364,
      "duration": 0.3557,
      "velocity": 111,
      "chip": "ym2612"
    },
    {
      "channel": 1,
      "note": 59,
      "start": 4.4289,
      "duration": 0.3559,
      "velocity": 98,
      "chip": "ym2612"
    },
    {
      "channel": 2,
      "note": 59,
      "start": 4.4292,
      "duration": 0.6342,
      "velocity": 95,
      "chip": "ym2612"
    },
    {
      "channel": 3,
      "note": 66,
      "start": 4.4296,
      "duration": 0.634,
      "velocity": 95,
      "chip": "ym2612"
    },
    {
      "channel": 4,
      "note": 83,
      "start": 4.4298,
      "duration": 0.5412,
      "velocity": 111,
      "chip": "ym2612"
    },
    {
      "channel": 0,
      "note": 66,
      "start": 4.6146,
      "duration": 0.3559,
      "velocity": 98,
      "chip": "ym2612"
    },
    {
      "channel": 5,
      "note": 83,
      "start": 4.6922,
      "duration": 0.5571,
      "velocity": 111,
      "chip": "ym2612"
    },
    {
      "channel": 1,
      "note": 69,
      "start": 4.7849,
      "duration": 0.3714,
      "velocity": 98,
      "chip": "ym2612"
    },
    {
      "channel": 0,
      "note": 73,
      "start": 4.9705,
      "duration": 0.3713,
      "velocity": 98,
      "chip": "ym2612"
    },
    {
      "channel": 4,
      "note": 85,
      "start": 4.971,
      "duration": 0.186,
      "velocity": 111,
      "chip": "ym2612"
    },
    {
      "channel": 1,
      "note": 76,
      "start": 5.1563,
      "duration": 0.3715,
      "velocity": 98,
      "chip": "ym2612"
    },
    {
      "channel": 2,
      "note": 59,
      "start": 5.1566,
      "duration": 0.1233,
      "velocity": 95,
      "chip": "ym2612"
    },
    {
      "channel": 3,
      "note": 66,
      "start": 5.1568,
      "duration": 0.1232,
      "velocity": 95,
      "chip": "ym2612"
    },
    {
      "channel": 4,
      "note": 83,
      "start": 5.1571,
      "duration": 0.0611,
      "velocity": 111,
      "chip": "ym2612"
    },
    {
      "channel": 4,
      "note": 85,
      "start": 5.2183,
      "duration": 0.062,
      "velocity": 111,
      "chip": "ym2612"
    },
    {
      "channel": 5,
      "note": 85,
      "start": 5.2494,
      "duration": 0.1858,
      "velocity": 111,
      "chip": "ym2612"
    },
    {
      "channel": 4,
      "note": 83,
      "start": 5.2804,
      "duration": 0.2482,
      "velocity": 111,
      "chip": "ym2612"
    },
    {
      "channel": 5,
      "note": 83,
      "start": 5.4352,
      "duration": 0.0616,
      "velocity": 111,
      "chip": "ym2612"
    },
    {
      "channel": 5,
      "note": 85,
      "start": 5.4968,
      "duration": 0.062,
      "velocity": 111,
      "chip": "ym2612"
    },
    {
      "channel": 0,
      "note": 69,
      "start": 5.5276,
      "duration": 1.0982,
      "velocity": 98,
      "chip": "ym2612"
    },
    {
      "channel": 1,
      "note": 73,
      "start": 5.5278,
      "duration": 1.0982,
      "velocity": 98,
      "chip": "ym2612"
    },
    {
      "channel": 2,
      "note": 59,
      "start": 5.5281,
      "duration": 0.634,
      "velocity": 95,
      "chip": "ym2612"
    },
    {
      "channel": 3,
      "note": 66,
      "start": 5.5285,
      "duration": 0.6338,
      "velocity": 95,
      "chip": "ym2612"
    },
    {
      "channel": 4,
      "note": 78,
      "start": 5.5286,
      "duration": 0.5409,
      "velocity": 111,
      "chip": "ym2612"
    },
    {
      "channel": 5,
      "note": 83,
      "start": 5.5588,
      "duration": 0.2476,
      "velocity": 111,
      "chip": "ym2612"
    },
    {
      "channel": 5,
      "note": 78,
      "start": 5.8064,
      "duration": 0.5415,
      "velocity": 111,
      "chip": "ym2612"
    },
    {
      "channel": 2,
      "note": 59,
      "start": 6.2551,
      "duration": 0.1237,
      "velocity": 95,
      "chip": "ym2612"
    },
    {
      "channel": 3,
      "note": 66,
      "start": 6.2553,
      "duration": 0.1236,
      "velocity": 95,
      "chip": "ym2612"
    },
    {
      "channel": 4,
      "note": 78,
      "start": 6.2556,
      "duration": 0.3712,
      "velocity": 111,
      "chip": "ym2612"
    },
    {
      "channel": 5,
      "note": 78,
      "start": 6.5335,
      "duration": 0.371,
      "velocity": 111,
      "chip": "ym2612"
    },
    {
      "channel": 1,
      "note": 59,
      "start": 6.6261,
      "duration": 0.371,
      "velocity": 98,
      "chip": "ym2612"
    },
    {
      "channel": 2,
      "note": 59,
      "start": 6.6263,
      "duration": 0.6335,
      "velocity": 95,
      "chip": "ym2612"
    },
    {
      "channel": 3,
      "note": 66,
      "start": 6.6266,
      "duration": 0.6334,
      "velocity": 95,
      "chip": "ym2612"
    },
    {
      "channel": 4,
      "note": 83,
      "start": 6.6269,
      "duration": 0.3707,
      "velocity": 111,
      "chip": "ym2612"
    },
    {
      "channel": 0,
      "note": 66,
      "start": 6.8114,
      "duration": 0.3556,
      "velocity": 98,
      "chip": "ym2612"
    },
    {
      "channel": 5,
      "note": 83,
      "start": 6.9045,
      "duration": 0.3558,
      "velocity": 111,
      "chip": "ym2612"
    },
    {
      "channel": 1,
      "note": 69,
      "start": 6.997,
      "duration": 0.3556,
      "velocity": 98,
      "chip": "ym2612"
    },
    {
      "channel": 4,
      "note": 85,
      "start": 6.9976,
      "duration": 0.3558,
      "velocity": 111,
      "chip": "ym2612"
    },
    {
      "channel": 0,
      "note": 73,
      "start": 7.1671,
      "duration": 0.3712,
      "velocity": 98,
      "chip": "ym2612"
    },
    {
      "channel": 5,
      "note": 85,
      "start": 7.2603,
      "duration": 0.3713,
      "velocity": 111,
      "chip": "ym2612"
    },
    {
      "channel": 1,
      "note": 76,
      "start": 7.3527,
      "duration": 0.3717,
      "velocity": 98,
      "chip": "ym2612"
    },
    {
      "channel": 2,
      "note": 59,
      "start": 7.353,
      "duration": 0.1234,
      "velocity": 95,
      "chip": "ym2612"
    },
    {
      "channel": 3,
      "note": 66,
      "start": 7.3533,
      "duration": 0.1233,
      "velocity": 95,
      "chip": "ym2612"
    },
    {
      "channel": 4,
      "note": 86,
      "start": 7.3535,
      "duration": 0.3717,
      "velocity": 111,
      "chip": "ym2612"
    },
    {
      "channel": 5,
      "note": 86,
      "start": 7.6317,
      "duration": 0.3715,
      "velocity": 111,
      "chip": "ym2612"
    },
    {
      "channel": 0,
      "note": 69,
      "start": 7.7241,
      "duration": 1.0988,
      "velocity": 98,
      "chip": "ym2612"
    },
    {
      "channel": 1,
      "note": 73,
      "start": 7.7244,
      "duration": 1.0989,
      "velocity": 98,
      "chip": "ym2612"
    },
    {
      "channel": 2,
      "note": 59,
      "start": 7.7246,
      "duration": 0.6345,
      "velocity": 95,
      "chip": "ym2612"
    },
    {
      "channel": 3,
      "note": 66,
      "start": 7.725,
      "duration": 0.6342,
      "velocity": 95,
      "chip": "ym2612"
    },
    {
      "channel": 4,
      "note": 88,
      "start": 7.7252,
      "duration": 0.5411,
      "velocity": 111,
      "chip": "ym2612"
    },
    {
      "channel": 5,
      "note": 88,
      "start": 8.0032,
      "duration": 0.5417,
      "velocity": 111,
      "chip": "ym2612"
    },
    {
      "channel": 2,
      "note": 59,
      "start": 8.4521,
      "duration": 0.1233,
      "velocity": 95,
      "chip": "ym2612"
    },
    {
      "channel": 3,
      "note": 66,
      "start": 8.4523,
      "duration": 0.1232,
      "velocity": 95,
      "chip": "ym2612"
    },
    {
      "channel": 4,
      "note": 78,
      "start": 8.4526,
      "duration": 0.3718,
      "velocity": 111,
      "chip": "ym2612"
    },
    {
      "channel": 5,
      "note": 78,
      "start": 8.7305,
      "duration": 0.3714,
      "velocity": 111,
      "chip": "ym2612"
    },
    {
      "channel": 1,
      "note": 59,
      "start": 8.8234,
      "duration": 0.3711,
      "velocity": 98,
      "chip": "ym2612"
    },
    {
      "channel": 2,
      "note": 59,
      "start": 8.8237,
      "duration": 0.6334,
      "velocity": 95,
      "chip": "ym2612"
    },
    {
      "channel": 3,
      "note": 66,
      "start": 8.8241,
      "duration": 0.6331,
      "velocity": 95,
      "chip": "ym2612"
    },
    {
      "channel": 4,
      "note": 83,
      "start": 8.8244,
      "duration": 0.5405,
      "velocity": 111,
      "chip": "ym2612"
    },
    {
      "channel": 0,
      "note": 66,
      "start": 9.0085,
      "duration": 0.3558,
      "velocity": 98,
      "chip": "ym2612"
    },
    {
      "channel": 5,
      "note": 83,
      "start": 9.1021,
      "duration": 0.5411,
      "velocity": 111,
      "chip": "ym2612"
    },
    {
      "channel": 1,
      "note": 69,
      "start": 9.1945,
      "duration": 0.3556,
      "velocity": 98,
      "chip": "ym2612"
    },
    {
      "channel": 0,
      "note": 73,
      "start": 9.3644,
      "duration": 0.3712,
      "velocity": 98,
      "chip": "ym2612"
    },
    {
      "channel": 4,
      "note": 85,
      "start": 9.3649,
      "duration": 0.1862,
      "velocity": 111,
      "chip": "ym2612"
    },
    {
      "channel": 1,
      "note": 76,
      "start": 9.5502,
      "duration": 0.3714,
      "velocity": 98,
      "chip": "ym2612"
    },
    {
      "channel": 2,
      "note": 59,
      "start": 9.5505,
      "duration": 0.1234,
      "velocity": 95,
      "chip": "ym2612"
    },
    {
      "channel": 3,
      "note": 66,
      "start": 9.5509,
      "duration": 0.1231,
      "velocity": 95,
      "chip": "ym2612"
    },
    {
      "channel": 4,
      "note": 86,
      "start": 9.5512,
      "duration": 0.3713,
      "velocity": 111,
      "chip": "ym2612"
    },
    {
      "channel": 5,
      "note": 85,
      "start": 9.6431,
      "duration": 0.1857,
      "velocity": 111,
      "chip": "ym2612"
    },
    {
      "channel": 5,
      "note": 86,
      "start": 9.8288,
      "duration": 0.3712,
      "velocity": 111,
      "chip": "ym2612"
    },
    {
      "channel": 0,
      "note": 69,
      "start": 9.9213,
      "duration": 1.0977,
      "velocity": 98,
      "chip": "ym2612"
    },
    {
      "channel": 1,
      "note": 73,
      "start": 9.9217,
      "duration": 1.0976,
      "velocity": 98,
      "chip": "ym2612"
    },
    {
      "channel": 2,
      "note": 59,
      "start": 9.922,
      "duration": 0.6332,
      "velocity": 95,
      "chip": "ym2612"
    },
    {
      "channel": 3,
      "note": 66,
      "start": 9.9223,
      "duration": 0.6331,
      "velocity": 95,
      "chip": "ym2612"
    },
    {
      "channel": 4,
      "note": 85,
      "start": 9.9225,
      "duration": 0.0607,
      "velocity": 111,
      "chip": "ym2612"
    },
    {
      "channel": 4,
      "note": 86,
      "start": 9.9832,
      "duration": 0.0618,
      "velocity": 111,
      "chip": "ym2612"
    },
    {
      "channel": 4,
      "note": 85,
      "start": 10.0452,
      "duration": 0.4331,
      "velocity": 111,
      "chip": "ym2612"
    },
    {
      "channel": 5,
      "note": 85,
      "start": 10.2001,
      "duration": 0.0617,
      "velocity": 111,
      "chip": "ym2612"
    },
    {
      "channel": 5,
      "note": 86,
      "start": 10.2618,
      "duration": 0.062,
      "velocity": 111,
      "chip": "ym2612"
    },
    {
      "channel": 5,
      "note": 85,
      "start": 10.3238,
      "duration": 0.417,
      "velocity": 111,
      "chip": "ym2612"
    },
    {
      "channel": 4,
      "note": 83,
      "start": 10.4783,
      "duration": 0.1705,
      "velocity": 111,
      "chip": "ym2612"
    },
    {
      "channel": 2,
      "note": 59,
      "start": 10.6481,
      "duration": 0.1236,
      "velocity": 95,
      "chip": "ym2612"
    },
    {
      "channel": 3,
      "note": 66,
      "start": 10.6484,
      "duration": 0.1234,
      "velocity": 95,
      "chip": "ym2612"
    },
    {
      "channel": 4,
      "note": 81,
      "start": 10.6488,
      "duration": 0.3714,
      "velocity": 111,
      "chip": "ym2612"
    },
    {
      "channel": 5,
      "note": 83,
      "start": 10.7409,
      "duration": 0.1855,
      "velocity": 111,
      "chip": "ym2612"
    },
    {
      "channel": 5,
      "note": 81,
      "start": 10.9265,
      "duration": 0.371,
      "velocity": 111,
      "chip": "ym2612"
    },
    {
      "channel": 1,
      "note": 59,
      "start": 11.0194,
      "duration": 0.3705,
      "velocity": 98,
      "chip": "ym2612"
    },
    {
      "channel": 2,
      "note": 59,
      "start": 11.0197,
      "duration": 0.6331,
      "velocity": 95,
      "chip": "ym2612"
    },
    {
      "channel": 3,
      "note": 66,
      "start": 11.02,
      "duration": 0.633,
      "velocity": 95,
      "chip": "ym2612"
    },
    {
      "channel": 4,
      "note": 83,
      "start": 11.0202,
      "duration": 0.7267,
      "velocity": 111,
      "chip": "ym2612"
    },
    {
      "channel": 0,
      "note": 66,
      "start": 11.2046,
      "duration": 0.3708,
      "velocity": 98,
      "chip": "ym2612"
    },
    {
      "channel": 5,
      "note": 83,
      "start": 11.2977,
      "duration": 0.7269,
      "velocity": 111,
      "chip": "ym2612"
    },
    {
      "channel": 1,
      "note": 69,
      "start": 11.3899,
      "duration": 0.3559,
      "velocity": 98,
      "chip": "ym2612"
    },
    {
      "channel": 0,
      "note": 73,
      "start": 11.5754,
      "duration": 0.3561,
      "velocity": 98,
      "chip": "ym2612"
    },
    {
      "channel": 1,
      "note": 76,
      "start": 11.7459,
      "duration": 0.3714,
      "velocity": 98,
      "chip": "ym2612"
    },
    {
      "channel": 2,
      "note": 59,
      "start": 11.7463,
      "duration": 0.1234,
      "velocity": 95,
      "chip": "ym2612"
    },
    {
      "channel": 3,
      "note": 66,
      "start": 11.7466,
      "duration": 0.1232,
      "velocity": 95,
      "chip": "ym2612"
    },
    {
      "channel": 4,
      "note": 83,
      "start": 11.747,
      "duration": 0.3714,
      "velocity": 111,
      "chip": "ym2612"
    },
    {
      "channel": 5,
      "note": 83,
      "start": 12.0246,
      "duration": 0.3715,
      "velocity": 111,
      "chip": "ym2612"
    },
    {
      "channel": 0,
      "note": 69,
      "start": 12.1171,
      "duration": 1.0989,
      "velocity": 98,
      "chip": "ym2612"
    },
    {
      "channel": 1,
      "note": 73,
      "start": 12.1174,
      "duration": 1.0989,
      "velocity": 98,
      "chip": "ym2612"
    },
    {
      "channel": 2,
      "note": 59,
      "start": 12.1177,
      "duration": 0.6496,
      "velocity": 95,
      "chip": "ym2612"
    },
    {
      "channel": 3,
      "note": 66,
      "start": 12.1181,
      "duration": 0.6495,
      "velocity": 95,
      "chip": "ym2612"
    },
    {
      "channel": 4,
      "note": 83,
      "start": 12.1184,
      "duration": 0.5565,
      "velocity": 111,
      "chip": "ym2612"
    },
    {
      "channel": 5,
      "note": 83,
      "start": 12.3962,
      "duration": 0.5417,
      "velocity": 111,
      "chip": "ym2612"
    },
    {
      "channel": 2,
      "note": 59,
      "start": 12.8448,
      "duration": 0.1237,
      "velocity": 95,
      "chip": "ym2612"
    },
    {
      "channel": 3,
      "note": 66,
      "start": 12.8452,
      "duration": 0.1234,
      "velocity": 95,
      "chip": "ym2612"
    },
    {
      "channel": 4,
      "note": 78,
      "start": 12.8455,
      "duration": 0.3716,
      "velocity": 111,
      "chip": "ym2612"
    },
    {
      "channel": 5,
      "note": 78,
      "start": 13.1237,
      "duration": 0.3712,
      "velocity": 111,
      "chip": "ym2612"
    },
    {
      "channel": 1,
      "note": 59,
      "start": 13.2163,
      "duration": 0.3711,
      "velocity": 98,
      "chip": "ym2612"
    },
    {
      "channel": 2,
      "note": 59,
      "start": 13.2166,
      "duration": 0.649,
      "velocity": 95,
      "chip": "ym2612"
    },
    {
      "channel": 3,
      "note": 66,
      "start": 13.2169,
      "duration": 0.649,
      "velocity": 95,
      "chip": "ym2612"
    },
    {
      "channel": 4,
      "note": 83,
      "start": 13.2171,
      "duration": 0.5564,
      "velocity": 111,
      "chip": "ym2612"
    },
    {
      "channel": 0,
      "note": 66,
      "start": 13.4017,
      "duration": 0.3712,
      "velocity": 98,
      "chip": "ym2612"
    },
    {
      "channel": 5,
      "note": 83,
      "start": 13.4948,
      "duration": 0.541,
      "velocity": 111,
      "chip": "ym2612"
    },
    {
      "channel": 1,
      "note": 69,
      "start": 13.5874,
      "duration": 0.371,
      "velocity": 98,
      "chip": "ym2612"
    },
    {
      "channel": 0,
      "note": 73,
      "start": 13.7729,
      "duration": 0.3556,
      "velocity": 98,
      "chip": "ym2612"
    },
    {
      "channel": 4,
      "note": 85,
      "start": 13.7735,
      "duration": 0.1857,
      "velocity": 111,
      "chip": "ym2612"
    },
    {
      "channel": 1,
      "note": 76,
      "start": 13.9584,
      "duration": 0.3561,
      "velocity": 98,
      "chip": "ym2612"
    },
    {
      "channel": 2,
      "note": 59,
      "start": 13.9587,
      "duration": 0.1081,
      "velocity": 95,
      "chip": "ym2612"
    },
    {
      "channel": 3,
      "note": 66,
      "start": 13.959,
      "duration": 0.1078,
      "velocity": 95,
      "chip": "ym2612"
    },
    {
      "channel": 4,
      "note": 83,
      "start": 13.9593,
      "duration": 0.0458,
      "velocity": 111,
      "chip": "ym2612"
    },
    {
      "channel": 4,
      "note": 85,
      "start": 14.0051,
      "duration": 0.062,
      "velocity": 111,
      "chip": "ym2612"
    },
    {
      "channel": 5,
      "note": 85,
      "start": 14.0359,
      "duration": 0.1859,
      "velocity": 111,
      "chip": "ym2612"
    },
    {
      "channel": 4,
      "note": 83,
      "start": 14.0671,
      "duration": 0.2481,
      "velocity": 111,
      "chip": "ym2612"
    },
    {
      "channel": 5,
      "note": 83,
      "start": 14.2219,
      "duration": 0.0619,
      "velocity": 111,
      "chip": "ym2612"
    },
    {
      "channel": 5,
      "note": 85,
      "start": 14.2837,
      "duration": 0.0618,
      "velocity": 111,
      "chip": "ym2612"
    },
    {
      "channel": 0,
      "note": 69,
      "start": 14.3143,
      "duration": 1.0985,
      "velocity": 98,
      "chip": "ym2612"
    },
    {
      "channel": 1,
      "note": 73,
      "start": 14.3146,
      "duration": 1.0985,
      "velocity": 98,
      "chip": "ym2612"
    },
    {
      "channel": 2,
      "note": 59,
      "start": 14.3147,
      "duration": 0.6497,
      "velocity": 95,
      "chip": "ym2612"
    },
    {
      "channel": 3,
      "note": 66,
      "start": 14.3151,
      "duration": 0.6496,
      "velocity": 95,
      "chip": "ym2612"
    },
    {
      "channel": 4,
      "note": 78,
      "start": 14.3153,
      "duration": 0.5568,
      "velocity": 111,
      "chip": "ym2612"
    },
    {
      "channel": 5,
      "note": 83,
      "start": 14.3456,
      "duration": 0.2477,
      "velocity": 111,
      "chip": "ym2612"
    },
    {
      "channel": 5,
      "note": 78,
      "start": 14.5933,
      "duration": 0.5413,
      "velocity": 111,
      "chip": "ym2612"
    },
    {
      "channel": 2,
      "note": 59,
      "start": 15.0573,
      "duration": 0.108,
      "velocity": 95,
      "chip": "ym2612"
    },
    {
      "channel": 3,
      "note": 66,
      "start": 15.0576,
      "duration": 0.1078,
      "velocity": 95,
      "chip": "ym2612"
    },
    {
      "channel": 4,
      "note": 78,
      "start": 15.0579,
      "duration": 0.3559,
      "velocity": 111,
      "chip": "ym2612"
    },
    {
      "channel": 5,
      "note": 78,
      "start": 15.3202,
      "duration": 0.3714,
      "velocity": 111,
      "chip": "ym2612"
    },
    {
      "channel": 1,
      "note": 59,
      "start": 15.4131,
      "duration": 0.3712,
      "velocity": 98,
      "chip": "ym2612"
    },
    {
      "channel": 2,
      "note": 59,
      "start": 15.4133,
      "duration": 0.6495,
      "velocity": 95,
      "chip": "ym2612"
    },
    {
      "channel": 3,
      "note": 66,
      "start": 15.4136,
      "duration": 0.6494,
      "velocity": 95,
      "chip": "ym2612"
    },
    {
      "channel": 4,
      "note": 83,
      "start": 15.4138,
      "duration": 0.3712,
      "velocity": 111,
      "chip": "ym2612"
    },
    {
      "channel": 0,
      "note": 66,
      "start": 15.5983,
      "duration": 0.3718,
      "velocity": 98,
      "chip": "ym2612"
    },
    {
      "channel": 5,
      "note": 83,
      "start": 15.6916,
      "duration": 0.3717,
      "velocity": 111,
      "chip": "ym2612"
    },
    {
      "channel": 1,
      "note": 69,
      "start": 15.7844,
      "duration": 0.3711,
      "velocity": 98,
      "chip": "ym2612"
    },
    {
      "channel": 4,
      "note": 85,
      "start": 15.785,
      "duration": 0.3716,
      "velocity": 111,
      "chip": "ym2612"
    },
    {
      "channel": 0,
      "note": 73,
      "start": 15.9701,
      "duration": 0.3556,
      "velocity": 98,
      "chip": "ym2612"
    },
    {
      "channel": 5,
      "note": 85,
      "start": 16.0633,
      "duration": 0.3555,
      "velocity": 111,
      "chip": "ym2612"
    },
    {
      "channel": 1,
      "note": 76,
      "start": 16.1557,
      "duration": 0.3559,
      "velocity": 98,
      "chip": "ym2612"
    },
    {
      "channel": 2,
      "note": 59,
      "start": 16.1559,
      "duration": 0.1233,
      "velocity": 95,
      "chip": "ym2612"
    },
    {
      "channel": 3,
      "note": 66,
      "start": 16.1563,
      "duration": 0.123,
      "velocity": 95,
      "chip": "ym2612"
    },
    {
      "channel": 4,
      "note": 86,
      "start": 16.1566,
      "duration": 0.3557,
      "velocity": 111,
      "chip": "ym2612"
    },
    {
      "channel": 5,
      "note": 86,
      "start": 16.419,
      "duration": 0.3711,
      "velocity": 111,
      "chip": "ym2612"
    },
    {
      "channel": 0,
      "note": 69,
      "start": 16.5112,
      "duration": 1.0989,
      "velocity": 98,
      "chip": "ym2612"
    },
    {
      "channel": 1,
      "note": 73,
      "start": 16.5115,
      "duration": 1.0988,
      "velocity": 98,
      "chip": "ym2612"
    },
    {
      "channel": 2,
      "note": 59,
      "start": 16.5118,
      "duration": 0.6501,
      "velocity": 95,
      "chip": "ym2612"
    },
    {
      "channel": 3,
      "note": 66,
      "start": 16.5121,
      "duration": 0.6499,
      "velocity": 95,
      "chip": "ym2612"
    },
    {
      "channel": 4,
      "note": 88,
      "start": 16.5123,
      "duration": 0.5571,
      "velocity": 111,
      "chip": "ym2612"
    },
    {
      "channel": 5,
      "note": 88,
      "start": 16.7901,
      "duration": 0.5574,
      "velocity": 111,
      "chip": "ym2612"
    },
    {
      "channel": 2,
      "note": 59,
      "start": 17.2549,
      "duration": 0.1232,
      "velocity": 95,
      "chip": "ym2612"
    },
    {
      "channel": 3,
      "note": 66,
      "start": 17.2552,
      "duration": 0.123,
      "velocity": 95,
      "chip": "ym2612"
    },
    {
      "channel": 4,
      "note": 78,
      "start": 17.2555,
      "duration": 0.3558,
      "velocity": 111,
      "chip": "ym2612"
    },
    {
      "channel": 5,
      "note": 78,
      "start": 17.5178,
      "duration": 0.3708,
      "velocity": 111,
      "chip": "ym2612"
    },
    {
      "channel": 1,
      "note": 59,
      "start": 17.6105,
      "duration": 0.3706,
      "velocity": 98,
      "chip": "ym2612"
    },
    {
      "channel": 2,
      "note": 59,
      "start": 17.6107,
      "duration": 0.6485,
      "velocity": 95,
      "chip": "ym2612"
    },
    {
      "channel": 3,
      "note": 66,
      "start": 17.6111,
      "duration": 0.6483,
      "velocity": 95,
      "chip": "ym2612"
    },
    {
      "channel": 4,
      "note": 90,
      "start": 17.6113,
      "duration": 0.5559,
      "velocity": 111,
      "chip": "ym2612"
    },
    {
      "channel": 0,
      "note": 66,
      "start": 17.7956,
      "duration": 0.371,
      "velocity": 98,
      "chip": "ym2612"
    },
    {
      "channel": 5,
      "note": 90,
      "start": 17.8886,
      "duration": 0.5565,
      "velocity": 111,
      "chip": "ym2612"
    },
    {
      "channel": 1,
      "note": 69,
      "start": 17.9811,
      "duration": 0.3709,
      "velocity": 98,
      "chip": "ym2612"
    },
    {
      "channel": 0,
      "note": 73,
      "start": 18.1665,
      "duration": 0.3711,
      "velocity": 98,
      "chip": "ym2612"
    },
    {
      "channel": 4,
      "note": 88,
      "start": 18.1673,
      "duration": 0.1859,
      "velocity": 111,
      "chip": "ym2612"
    },
    {
      "channel": 1,
      "note": 76,
      "start": 18.3521,
      "duration": 0.3559,
      "velocity": 98,
      "chip": "ym2612"
    },
    {
      "channel": 2,
      "note": 59,
      "start": 18.3525,
      "duration": 0.1234,
      "velocity": 95,
      "chip": "ym2612"
    },
    {
      "channel": 3,
      "note": 66,
      "start": 18.3529,
      "duration": 0.1232,
      "velocity": 95,
      "chip": "ym2612"
    },
    {
      "channel": 4,
      "note": 90,
      "start": 18.3532,
      "duration": 0.3558,
      "velocity": 111,
      "chip": "ym2612"
    },
    {
      "channel": 5,
      "note": 88,
      "start": 18.4451,
      "duration": 0.1703,
      "velocity": 111,
      "chip": "ym2612"
    },
    {
      "channel": 5,
      "note": 90,
      "start": 18.6155,
      "duration": 0.3715,
      "velocity": 111,
      "chip": "ym2612"
    },
    {
      "channel": 0,
      "note": 69,
      "start": 18.7078,
      "duration": 1.0982,
      "velocity": 98,
      "chip": "ym2612"
    },
    {
      "channel": 1,
      "note": 73,
      "start": 18.7081,
      "duration": 1.0981,
      "velocity": 98,
      "chip": "ym2612"
    },
    {
      "channel": 2,
      "note": 59,
      "start": 18.7083,
      "duration": 0.6497,
      "velocity": 95,
      "chip": "ym2612"
    },
    {
      "channel": 3,
      "note": 66,
      "start": 18.7086,
      "duration": 0.6497,
      "velocity": 95,
      "chip": "ym2612"
    },
    {
      "channel": 4,
      "note": 88,
      "start": 18.709,
      "duration": 0.0608,
      "velocity": 111,
      "chip": "ym2612"
    },
    {
      "channel": 4,
      "note": 90,
      "start": 18.7698,
      "duration": 0.062,
      "velocity": 111,
      "chip": "ym2612"
    },
    {
      "channel": 4,
      "note": 88,
      "start": 18.8318,
      "duration": 0.4336,
      "velocity": 111,
      "chip": "ym2612"
    },
    {
      "channel": 5,
      "note": 88,
      "start": 18.9869,
      "duration": 0.0616,
      "velocity": 111,
      "chip": "ym2612"
    },
    {
      "channel": 5,
      "note": 90,
      "start": 19.0485,
      "duration": 0.0623,
      "velocity": 111,
      "chip": "ym2612"
    },
    {
      "channel": 5,
      "note": 88,
      "start": 19.1109,
      "duration": 0.4326,
      "velocity": 111,
      "chip": "ym2612"
    },
    {
      "channel": 4,
      "note": 86,
      "start": 19.2655,
      "duration": 0.1859,
      "velocity": 111,
      "chip": "ym2612"
    },
    {
      "channel": 2,
      "note": 59,
      "start": 19.4509,
      "duration": 0.1235,
      "velocity": 95,
      "chip": "ym2612"
    },
    {
      "channel": 3,
      "note": 66,
      "start": 19.4512,
      "duration": 0.1232,
      "velocity": 95,
      "chip": "ym2612"
    },
    {
      "channel": 4,
      "note": 85,
      "start": 19.4515,
      "duration": 0.3556,
      "velocity": 111,
      "chip": "ym2612"
    },
    {
      "channel": 5,
      "note": 86,
      "start": 19.5434,
      "duration": 0.1856,
      "velocity": 111,
      "chip": "ym2612"
    },
    {
      "channel": 5,
      "note": 85,
      "start": 19.729,
      "duration": 0.3557,
      "velocity": 111,
      "chip": "ym2612"
    },
    {
      "channel": 1,
      "note": 59,
      "start": 19.8063,
      "duration": 0.3713,
      "velocity": 98,
      "chip": "ym2612"
    },
    {
      "channel": 2,
      "note": 59,
      "start": 19.8065,
      "duration": 0.6499,
      "velocity": 95,
      "chip": "ym2612"
    },
    {
      "channel": 3,
      "note": 66,
      "start": 19.8068,
      "duration": 0.6498,
      "velocity": 95,
      "chip": "ym2612"
    },
    {
      "channel": 4,
      "note": 83,
      "start": 19.8072,
      "duration": 0.7427,
      "velocity": 111,
      "chip": "ym2612"
    },
    {
      "channel": 0,
      "note": 66,
      "start": 19.9918,
      "duration": 0.3717,
      "velocity": 98,
      "chip": "ym2612"
    },
    {
      "channel": 5,
      "note": 83,
      "start": 20.0848,
      "duration": 0.7428,
      "velocity": 111,
      "chip": "ym2612"
    },
    {
      "channel": 1,
      "note": 69,
      "start": 20.1776,
      "duration": 0.3715,
      "velocity": 98,
      "chip": "ym2612"
    },
    {
      "channel": 0,
      "note": 73,
      "start": 20.3635,
      "duration": 0.371,
      "velocity": 98,
      "chip": "ym2612"
    },
    {
      "channel": 1,
      "note": 76,
      "start": 20.5492,
      "duration": 0.3709,
      "velocity": 98,
      "chip": "ym2612"
    },
    {
      "channel": 2,
      "note": 59,
      "start": 20.5494,
      "duration": 0.1231,
      "velocity": 95,
      "chip": "ym2612"
    },
    {
      "channel": 3,
      "note": 66,
      "start": 20.5497,
      "duration": 0.123,
      "velocity": 95,
      "chip": "ym2612"
    },
    {
      "channel": 4,
      "note": 83,
      "start": 20.55,
      "duration": 0.3711,
      "velocity": 111,
      "chip": "ym2612"
    },
    {
      "channel": 5,
      "note": 83,
      "start": 20.8276,
      "duration": 0.3559,
      "velocity": 111,
      "chip": "ym2612"
    },
    {
      "channel": 0,
      "note": 69,
      "start": 20.92,
      "duration": 1.0989,
      "velocity": 98,
      "chip": "ym2612"
    },
    {
      "channel": 1,
      "note": 73,
      "start": 20.9203,
      "duration": 1.0989,
      "velocity": 98,
      "chip": "ym2612"
    },
    {
      "channel": 2,
      "note": 59,
      "start": 20.9205,
      "duration": 0.6344,
      "velocity": 95,
      "chip": "ym2612"
    },
    {
      "channel": 3,
      "note": 66,
      "start": 20.9208,
      "duration": 0.6342,
      "velocity": 95,
      "chip": "ym2612"
    },
    {
      "channel": 4,
      "note": 83,
      "start": 20.9211,
      "duration": 0.5411,
      "velocity": 111,
      "chip": "ym2612"
    },
    {
      "channel": 5,
      "note": 83,
      "start": 21.1836,
      "duration": 0.5573,
      "velocity": 111,
      "chip": "ym2612"
    },
    {
      "channel": 2,
      "note": 59,
      "start": 21.6479,
      "duration": 0.1236,
      "velocity": 95,
      "chip": "ym2612"
    },
    {
      "channel": 3,
      "note": 66,
      "start": 21.6482,
      "duration": 0.1235,
      "velocity": 95,
      "chip": "ym2612"
    },
    {
      "channel": 4,
      "note": 90,
      "start": 21.6486,
      "duration": 0.3714,
      "velocity": 111,
      "chip": "ym2612"
    },
    {
      "channel": 5,
      "note": 90,
      "start": 21.9266,
      "duration": 0.3555,
      "velocity": 111,
      "chip": "ym2612"
    },
    {
      "channel": 1,
      "note": 62,
      "start": 22.0192,
      "duration": 0.3553,
      "velocity": 98,
      "chip": "ym2612"
    },
    {
      "channel": 2,
      "note": 62,
      "start": 22.0195,
      "duration": 0.6335,
      "velocity": 95,
      "chip": "ym2612"
    },
    {
      "channel": 3,
      "note": 69,
      "start": 22.0198,
      "duration": 0.6333,
      "velocity": 95,
      "chip": "ym2612"
    },
    {
      "channel": 4,
      "note": 93,
      "start": 22.02,
      "duration": 0.7266,
      "velocity": 111,
      "chip": "ym2612"
    },
    {
      "channel": 0,
      "note": 69,
      "start": 22.1889,
      "duration": 0.3711,
      "velocity": 98,
      "chip": "ym2612"
    },
    {
      "channel": 5,
      "note": 93,
      "start": 22.2821,
      "duration": 0.7427,
      "velocity": 111,
      "chip": "ym2612"
    },
    {
      "channel": 1,
      "note": 71,
      "start": 22.3745,
      "duration": 0.3713,
      "velocity": 98,
      "chip": "ym2612"
    },
    {
      "channel": 0,
      "note": 73,
      "start": 22.5601,
      "duration": 0.3714,
      "velocity": 98,
      "chip": "ym2612"
    },
    {
      "channel": 1,
      "note": 74,
      "start": 22.7459,
      "duration": 0.3714,
      "velocity": 98,
      "chip": "ym2612"
    },
    {
      "channel": 2,
      "note": 62,
      "start": 22.7461,
      "duration": 0.1237,
      "velocity": 95,
      "chip": "ym2612"
    },
    {
      "channel": 3,
      "note": 69,
      "start": 22.7464,
      "duration": 0.1235,
      "velocity": 95,
      "chip": "ym2612"
    },
    {
      "channel": 4,
      "note": 90,
      "start": 22.7467,
      "duration": 0.3714,
      "velocity": 111,
      "chip": "ym2612"
    },
    {
      "channel": 0,
      "note": 76,
      "start": 22.9316,
      "duration": 0.3557,
      "velocity": 98,
      "chip": "ym2612"
    },
    {
      "channel": 5,
      "note": 90,
      "start": 23.0248,
      "duration": 0.3557,
      "velocity": 111,
      "chip": "ym2612"
    },
    {
      "channel": 1,
      "note": 67,
      "start": 23.1173,
      "duration": 0.3556,
      "velocity": 98,
      "chip": "ym2612"
    },
    {
      "channel": 2,
      "note": 62,
      "start": 23.1176,
      "duration": 0.6337,
      "velocity": 95,
      "chip": "ym2612"
    },
    {
      "channel": 3,
      "note": 69,
      "start": 23.1178,
      "duration": 0.6337,
      "velocity": 95,
      "chip": "ym2612"
    },
    {
      "channel": 4,
      "note": 88,
      "start": 23.1181,
      "duration": 0.5409,
      "velocity": 111,
      "chip": "ym2612"
    },
    {
      "channel": 0,
      "note": 71,
      "start": 23.2873,
      "duration": 0.3712,
      "velocity": 98,
      "chip": "ym2612"
    },
    {
      "channel": 5,
      "note": 88,
      "start": 23.3805,
      "duration": 0.5566,
      "velocity": 111,
      "chip": "ym2612"
    },
    {
      "channel": 1,
      "note": 73,
      "start": 23.473,
      "duration": 0.3711,
      "velocity": 98,
      "chip": "ym2612"
    },
    {
      "channel": 0,
      "note": 74,
      "start": 23.6585,
      "duration": 0.3711,
      "velocity": 98,
      "chip": "ym2612"
    },
    {
      "channel": 1,
      "note": 78,
      "start": 23.8442,
      "duration": 0.3713,
      "velocity": 98,
      "chip": "ym2612"
    },
    {
      "channel": 2,
      "note": 62,
      "start": 23.8445,
      "duration": 0.1234,
      "velocity": 95,
      "chip": "ym2612"
    },
    {
      "channel": 3,
      "note": 69,
      "start": 23.8447,
      "duration": 0.1232,
      "velocity": 95,
      "chip": "ym2612"
    },
    {
      "channel": 4,
      "note": 86,
      "start": 23.8451,
      "duration": 0.3712,
      "velocity": 111,
      "chip": "ym2612"
    },
    {
      "channel": 5,
      "note": 86,
      "start": 24.123,
      "duration": 0.3557,
      "velocity": 111,
      "chip": "ym2612"
    },
    {
      "channel": 1,
      "note": 62,
      "start": 24.2156,
      "duration": 0.3556,
      "velocity": 98,
      "chip": "ym2612"
    },
    {
      "channel": 2,
      "note": 59,
      "start": 24.2159,
      "duration": 0.6344,
      "velocity": 95,
      "chip": "ym2612"
    },
    {
      "channel": 3,
      "note": 66,
      "start": 24.2161,
      "duration": 0.6343,
      "velocity": 95,
      "chip": "ym2612"
    },
    {
      "channel": 4,
      "note": 90,
      "start": 24.2164,
      "duration": 0.7276,
      "velocity": 111,
      "chip": "ym2612"
    },
    {
      "channel": 0,
      "note": 69,
      "start": 24.401,
      "duration": 0.3561,
      "velocity": 98,
      "chip": "ym2612"
    },
    {
      "channel": 5,
      "note": 90,
      "start": 24.4787,
      "duration": 0.7431,
      "velocity": 111,
      "chip": "ym2612"
    },
    {
      "channel": 1,
      "note": 71,
      "start": 24.5712,
      "duration": 0.3719,
      "velocity": 98,
      "chip": "ym2612"
    },
    {
      "channel": 0,
      "note": 73,
      "start": 24.7571,
      "duration": 0.3715,
      "velocity": 98,
      "chip": "ym2612"
    },
    {
      "channel": 1,
      "note": 74,
      "start": 24.9432,
      "duration": 0.3711,
      "velocity": 98,
      "chip": "ym2612"
    },
    {
      "channel": 2,
      "note": 59,
      "start": 24.9435,
      "duration": 0.1233,
      "velocity": 95,
      "chip": "ym2612"
    },
    {
      "channel": 3,
      "note": 66,
      "start": 24.9438,
      "duration": 0.1231,
      "velocity": 95,
      "chip": "ym2612"
    },
    {
      "channel": 4,
      "note": 86,
      "start": 24.944,
      "duration": 0.3711,
      "velocity": 111,
      "chip": "ym2612"
    },
    {
      "channel": 0,
      "note": 76,
      "start": 25.1288,
      "duration": 0.3709,
      "velocity": 98,
      "chip": "ym2612"
    },
    {
      "channel": 5,
      "note": 86,
      "start": 25.2218,
      "duration": 0.3558,
      "velocity": 111,
      "chip": "ym2612"
    },
    {
      "channel": 1,
      "note": 67,
      "start": 25.3144,
      "duration": 0.3558,
      "velocity": 98,
      "chip": "ym2612"
    },
    {
      "channel": 2,
      "note": 59,
      "start": 25.3146,
      "duration": 0.6337,
      "velocity": 95,
      "chip": "ym2612"
    },
    {
      "channel": 3,
      "note": 66,
      "start": 25.315,
      "duration": 0.6335,
      "velocity": 95,
      "chip": "ym2612"
    },
    {
      "channel": 4,
      "note": 83,
      "start": 25.3152,
      "duration": 0.5408,
      "velocity": 111,
      "chip": "ym2612"
    },
    {
      "channel": 0,
      "note": 71,
      "start": 25.4998,
      "duration": 0.3557,
      "velocity": 98,
      "chip": "ym2612"
    },
    {
      "channel": 5,
      "note": 83,
      "start": 25.5776,
      "duration": 0.5565,
      "velocity": 111,
      "chip": "ym2612"
    },
    {
      "channel": 1,
      "note": 78,
      "start": 25.6702,
      "duration": 0.7424,
      "velocity": 98,
      "chip": "ym2612"
    },
    {
      "channel": 0,
      "note": 74,
      "start": 26.0411,
      "duration": 0.3712,
      "velocity": 98,
      "chip": "ym2612"
    },
    {
      "channel": 2,
      "note": 59,
      "start": 26.0416,
      "duration": 0.1233,
      "velocity": 95,
      "chip": "ym2612"
    },
    {
      "channel": 3,
      "note": 66,
      "start": 26.0419,
      "duration": 0.123,
      "velocity": 95,
      "chip": "ym2612"
    },
    {
      "channel": 4,
      "note": 90,
      "start": 26.0421,
      "duration": 0.3712,
      "velocity": 111,
      "chip": "ym2612"
    },
    {
      "channel": 5,
      "note": 90,
      "start": 26.32,
      "duration": 0.3712,
      "velocity": 111,
      "chip": "ym2612"
    },
    {
      "channel": 1,
      "note": 62,
      "start": 26.4126,
      "duration": 0.3556,
      "velocity": 98,
      "chip": "ym2612"
    },
    {
      "channel": 2,
      "note": 62,
      "start": 26.4129,
      "duration": 0.6339,
      "velocity": 95,
      "chip": "ym2612"
    },
    {
      "channel": 3,
      "note": 69,
      "start": 26.4132,
      "duration": 0.6337,
      "velocity": 95,
      "chip": "ym2612"
    },
    {
      "channel": 4,
      "note": 93,
      "start": 26.4134,
      "duration": 0.541,
      "velocity": 111,
      "chip": "ym2612"
    },
    {
      "channel": 0,
      "note": 69,
      "start": 26.5981,
      "duration": 0.3557,
      "velocity": 98,
      "chip": "ym2612"
    },
    {
      "channel": 5,
      "note": 93,
      "start": 26.6912,
      "duration": 0.5416,
      "velocity": 111,
      "chip": "ym2612"
    },
    {
      "channel": 1,
      "note": 71,
      "start": 26.7682,
      "duration": 0.3714,
      "velocity": 98,
      "chip": "ym2612"
    },
    {
      "channel": 0,
      "note": 73,
      "start": 26.9539,
      "duration": 0.3713,
      "velocity": 98,
      "chip": "ym2612"
    },
    {
      "channel": 4,
      "note": 92,
      "start": 26.9545,
      "duration": 0.186,
      "velocity": 111,
      "chip": "ym2612"
    },
    {
      "channel": 1,
      "note": 74,
      "start": 27.1396,
      "duration": 0.3714,
      "velocity": 98,
      "chip": "ym2612"
    },
    {
      "channel": 2,
      "note": 62,
      "start": 27.1399,
      "duration": 0.1237,
      "velocity": 95,
      "chip": "ym2612"
    },
    {
      "channel": 3,
      "note": 69,
      "start": 27.1403,
      "duration": 0.1234,
      "velocity": 95,
      "chip": "ym2612"
    },
    {
      "channel": 4,
      "note": 93,
      "start": 27.1405,
      "duration": 0.3713,
      "velocity": 111,
      "chip": "ym2612"
    },
    {
      "channel": 5,
      "note": 92,
      "start": 27.2328,
      "duration": 0.1855,
      "velocity": 111,
      "chip": "ym2612"
    },
    {
      "channel": 0,
      "note": 76,
      "start": 27.3252,
      "duration": 0.3712,
      "velocity": 98,
      "chip": "ym2612"
    },
    {
      "channel": 5,
      "note": 93,
      "start": 27.4183,
      "duration": 0.3713,
      "velocity": 111,
      "chip": "ym2612"
    },
    {
      "channel": 1,
      "note": 68,
      "start": 27.511,
      "duration": 0.371,
      "velocity": 98,
      "chip": "ym2612"
    },
    {
      "channel": 2,
      "note": 62,
      "start": 27.5113,
      "duration": 0.6333,
      "velocity": 95,
      "chip": "ym2612"
    },
    {
      "channel": 3,
      "note": 69,
      "start": 27.5116,
      "duration": 0.6332,
      "velocity": 95,
      "chip": "ym2612"
    },
    {
      "channel": 4,
      "note": 92,
      "start": 27.5118,
      "duration": 0.5406,
      "velocity": 111,
      "chip": "ym2612"
    },
    {
      "channel": 0,
      "note": 71,
      "start": 27.6965,
      "duration": 0.3553,
      "velocity": 98,
      "chip": "ym2612"
    },
    {
      "channel": 5,
      "note": 92,
      "start": 27.7896,
      "duration": 0.5409,
      "velocity": 111,
      "chip": "ym2612"
    },
    {
      "channel": 1,
      "note": 73,
      "start": 27.882,
      "duration": 0.3553,
      "velocity": 98,
      "chip": "ym2612"
    },
    {
      "channel": 0,
      "note": 74,
      "start": 28.052,
      "duration": 0.3709,
      "velocity": 98,
      "chip": "ym2612"
    },
    {
      "channel": 4,
      "note": 90,
      "start": 28.0525,
      "duration": 0.1856,
      "velocity": 111,
      "chip": "ym2612"
    },
    {
      "channel": 1,
      "note": 78,
      "start": 28.2374,
      "duration": 0.3711,
      "velocity": 98,
      "chip": "ym2612"
    },
    {
      "channel": 2,
      "note": 62,
      "start": 28.2377,
      "duration": 0.1234,
      "velocity": 95,
      "chip": "ym2612"
    },
    {
      "channel": 3,
      "note": 69,
      "start": 28.2379,
      "duration": 0.1233,
      "velocity": 95,
      "chip": "ym2612"
    },
    {
      "channel": 4,
      "note": 88,
      "start": 28.2381,
      "duration": 0.3712,
      "velocity": 111,
      "chip": "ym2612"
    },
    {
      "channel": 5,
      "note": 90,
      "start": 28.3305,
      "duration": 0.1854,
      "velocity": 111,
      "chip": "ym2612"
    },
    {
      "channel": 5,
      "note": 88,
      "start": 28.5159,
      "duration": 0.3713,
      "velocity": 111,
      "chip": "ym2612"
    },
    {
      "channel": 1,
      "note": 62,
      "start": 28.6086,
      "duration": 0.3711,
      "velocity": 98,
      "chip": "ym2612"
    },
    {
      "channel": 2,
      "note": 59,
      "start": 28.6089,
      "duration": 0.6337,
      "velocity": 95,
      "chip": "ym2612"
    },
    {
      "channel": 3,
      "note": 66,
      "start": 28.6092,
      "duration": 0.6336,
      "velocity": 95,
      "chip": "ym2612"
    },
    {
      "channel": 4,
      "note": 90,
      "start": 28.6094,
      "duration": 1.6388,
      "velocity": 111,
      "chip": "ym2612"
    },
    {
      "channel": 0,
      "note": 69,
      "start": 28.7941,
      "duration": 0.3557,
      "velocity": 98,
      "chip": "ym2612"
    },
    {
      "channel": 5,
      "note": 90,
      "start": 28.8872,
      "duration": 1.6393,
      "velocity": 111,
      "chip": "ym2612"
    },
    {
      "channel": 1,
      "note": 71,
      "start": 28.9797,
      "duration": 0.3559,
      "velocity": 98,
      "chip": "ym2612"
    },
    {
      "channel": 0,
      "note": 73,
      "start": 29.1499,
      "duration": 0.3713,
      "velocity": 98,
      "chip": "ym2612"
    },
    {
      "channel": 1,
      "note": 74,
      "start": 29.3356,
      "duration": 0.3711,
      "velocity": 98,
      "chip": "ym2612"
    },
    {
      "channel": 2,
      "note": 59,
      "start": 29.3359,
      "duration": 0.1233,
      "velocity": 95,
      "chip": "ym2612"
    },
    {
      "channel": 3,
      "note": 66,
      "start": 29.3361,
      "duration": 0.1232,
      "velocity": 95,
      "chip": "ym2612"
    },
    {
      "channel": 0,
      "note": 76,
      "start": 29.5213,
      "duration": 0.3708,
      "velocity": 98,
      "chip": "ym2612"
    },
    {
      "channel": 1,
      "note": 67,
      "start": 29.7068,
      "duration": 0.3709,
      "velocity": 98,
      "chip": "ym2612"
    },
    {
      "channel": 2,
      "note": 59,
      "start": 29.7071,
      "duration": 0.6336,
      "velocity": 95,
      "chip": "ym2612"
    },
    {
      "channel": 3,
      "note": 66,
      "start": 29.7073,
      "duration": 0.6334,
      "velocity": 95,
      "chip": "ym2612"
    },
    {
      "channel": 0,
      "note": 71,
      "start": 29.8921,
      "duration": 0.3557,
      "velocity": 98,
      "chip": "ym2612"
    },
    {
      "channel": 1,
      "note": 78,
      "start": 30.0776,
      "duration": 0.7272,
      "velocity": 98,
      "chip": "ym2612"
    },
    {
      "channel": 0,
      "note": 74,
      "start": 30.4335,
      "duration": 0.371,
      "velocity": 98,
      "chip": "ym2612"
    },
    {
      "channel": 2,
      "note": 59,
      "start": 30.434,
      "duration": 0.1233,
      "velocity": 95,
      "chip": "ym2612"
    },
    {
      "channel": 3,
      "note": 66,
      "start": 30.4342,
      "duration": 0.1233,
      "velocity": 95,
      "chip": "ym2612"
    },
    {
      "channel": 4,
      "note": 90,
      "start": 30.4345,
      "duration": 0.3711,
      "velocity": 111,
      "chip": "ym2612"
    },
    {
      "channel": 5,
      "note": 90,
      "start": 30.7122,
      "duration": 0.3712,
      "velocity": 111,
      "chip": "ym2612"
    },
    {
      "channel": 1,
      "note": 62,
      "start": 30.8048,
      "duration": 0.3709,
      "velocity": 98,
      "chip": "ym2612"
    },
    {
      "channel": 2,
      "note": 62,
      "start": 30.8051,
      "duration": 0.6339,
      "velocity": 95,
      "chip": "ym2612"
    },
    {
      "channel": 3,
      "note": 69,
      "start": 30.8054,
      "duration": 0.6337,
      "velocity": 95,
      "chip": "ym2612"
    },
    {
      "channel": 4,
      "note": 93,
      "start": 30.8056,
      "duration": 0.7268,
      "velocity": 111,
      "chip": "ym2612"
    },
    {
      "channel": 0,
      "note": 69,
      "start": 30.9903,
      "duration": 0.3711,
      "velocity": 98,
      "chip": "ym2612"
    },
    {
      "channel": 5,
      "note": 93,
      "start": 31.0834,
      "duration": 0.7268,
      "velocity": 111,
      "chip": "ym2612"
    },
    {
      "channel": 1,
      "note": 71,
      "start": 31.1758,
      "duration": 0.3559,
      "velocity": 98,
      "chip": "ym2612"
    },
    {
      "channel": 0,
      "note": 73,
      "start": 31.3615,
      "duration": 0.3555,
      "velocity": 98,
      "chip": "ym2612"
    },
    {
      "channel": 1,
      "note": 74,
      "start": 31.5317,
      "duration": 0.371,
      "velocity": 98,
      "chip": "ym2612"
    },
    {
      "channel": 2,
      "note": 62,
      "start": 31.532,
      "duration": 0.1233,
      "velocity": 95,
      "chip": "ym2612"
    },
    {
      "channel": 3,
      "note": 69,
      "start": 31.5323,
      "duration": 0.1231,
      "velocity": 95,
      "chip": "ym2612"
    },
    {
      "channel": 4,
      "note": 90,
      "start": 31.5325,
      "duration": 0.371,
      "velocity": 111,
      "chip": "ym2612"
    },
    {
      "channel": 0,
      "note": 76,
      "start": 31.7171,
      "duration": 0.3709,
      "velocity": 98,
      "chip": "ym2612"
    },
    {
      "channel": 5,
      "note": 90,
      "start": 31.8102,
      "duration": 0.3712,
      "velocity": 111,
      "chip": "ym2612"
    },
    {
      "channel": 1,
      "note": 67,
      "start": 31.9027,
      "duration": 0.3713,
      "velocity": 98,
      "chip": "ym2612"
    },
    {
      "channel": 2,
      "note": 62,
      "start": 31.903,
      "duration": 0.634,
      "velocity": 95,
      "chip": "ym2612"
    },
    {
      "channel": 3,
      "note": 69,
      "start": 31.9033,
      "duration": 0.6338,
      "velocity": 95,
      "chip": "ym2612"
    },
    {
      "channel": 4,
      "note": 88,
      "start": 31.9035,
      "duration": 0.5568,
      "velocity": 111,
      "chip": "ym2612"
    },
    {
      "channel": 0,
      "note": 71,
      "start": 32.088,
      "duration": 0.3717,
      "velocity": 98,
      "chip": "ym2612"
    },
    {
      "channel": 5,
      "note": 88,
      "start": 32.1814,
      "duration": 0.5414,
      "velocity": 111,
      "chip": "ym2612"
    },
    {
      "channel": 1,
      "note": 73,
      "start": 32.2741,
      "duration": 0.3558,
      "velocity": 98,
      "chip": "ym2612"
    },
    {
      "channel": 0,
      "note": 74,
      "start": 32.4598,
      "duration": 0.3554,
      "velocity": 98,
      "chip": "ym2612"
    },
    {
      "channel": 1,
      "note": 78,
      "start": 32.63,
      "duration": 0.3708,
      "velocity": 98,
      "chip": "ym2612"
    },
    {
      "channel": 2,
      "note": 62,
      "start": 32.6302,
      "duration": 0.1232,
      "velocity": 95,
      "chip": "ym2612"
    },
    {
      "channel": 3,
      "note": 69,
      "start": 32.6305,
      "duration": 0.123,
      "velocity": 95,
      "chip": "ym2612"
    },
    {
      "channel": 4,
      "note": 86,
      "start": 32.6307,
      "duration": 0.3709,
      "velocity": 111,
      "chip": "ym2612"
    },
    {
      "channel": 5,
      "note": 86,
      "start": 32.9084,
      "duration": 0.3708,
      "velocity": 111,
      "chip": "ym2612"
    },
    {
      "channel": 1,
      "note": 62,
      "start": 33.0008,
      "duration": 0.371,
      "velocity": 98,
      "chip": "ym2612"
    },
    {
      "channel": 2,
      "note": 59,
      "start": 33.0011,
      "duration": 0.649,
      "velocity": 95,
      "chip": "ym2612"
    },
    {
      "channel": 3,
      "note": 66,
      "start": 33.0014,
      "duration": 0.649,
      "velocity": 95,
      "chip": "ym2612"
    },
    {
      "channel": 4,
      "note": 90,
      "start": 33.0016,
      "duration": 0.7266,
      "velocity": 111,
      "chip": "ym2612"
    },
    {
      "channel": 0,
      "note": 69,
      "start": 33.1861,
      "duration": 0.3711,
      "velocity": 98,
      "chip": "ym2612"
    },
    {
      "channel": 5,
      "note": 90,
      "start": 33.2792,
      "duration": 0.7271,
      "velocity": 111,
      "chip": "ym2612"
    },
    {
      "channel": 1,
      "note": 71,
      "start": 33.3718,
      "duration": 0.3556,
      "velocity": 98,
      "chip": "ym2612"
    },
    {
      "channel": 0,
      "note": 73,
      "start": 33.5574,
      "duration": 0.3555,
      "velocity": 98,
      "chip": "ym2612"
    },
    {
      "channel": 1,
      "note": 74,
      "start": 33.7275,
      "duration": 0.3712,
      "velocity": 98,
      "chip": "ym2612"
    },
    {
      "channel": 2,
      "note": 59,
      "start": 33.7278,
      "duration": 0.1234,
      "velocity": 95,
      "chip": "ym2612"
    },
    {
      "channel": 3,
      "note": 66,
      "start": 33.728,
      "duration": 0.1232,
      "velocity": 95,
      "chip": "ym2612"
    },
    {
      "channel": 4,
      "note": 86,
      "start": 33.7283,
      "duration": 0.3712,
      "velocity": 111,
      "chip": "ym2612"
    },
    {
      "channel": 0,
      "note": 76,
      "start": 33.9131,
      "duration": 0.371,
      "velocity": 98,
      "chip": "ym2612"
    },
    {
      "channel": 5,
      "note": 86,
      "start": 34.0063,
      "duration": 0.3708,
      "velocity": 111,
      "chip": "ym2612"
    },
    {
      "channel": 1,
      "note": 67,
      "start": 34.0988,
      "duration": 0.371,
      "velocity": 98,
      "chip": "ym2612"
    },
    {
      "channel": 2,
      "note": 59,
      "start": 34.099,
      "duration": 0.6494,
      "velocity": 95,
      "chip": "ym2612"
    },
    {
      "channel": 3,
      "note": 66,
      "start": 34.0993,
      "duration": 0.6493,
      "velocity": 95,
      "chip": "ym2612"
    },
    {
      "channel": 4,
      "note": 83,
      "start": 34.0996,
      "duration": 0.5564,
      "velocity": 111,
      "chip": "ym2612"
    },
    {
      "channel": 0,
      "note": 71,
      "start": 34.2841,
      "duration": 0.3712,
      "velocity": 98,
      "chip": "ym2612"
    },
    {
      "channel": 5,
      "note": 83,
      "start": 34.3772,
      "duration": 0.5415,
      "velocity": 111,
      "chip": "ym2612"
    },
    {
      "channel": 1,
      "note": 78,
      "start": 34.4698,
      "duration": 0.7271,
      "velocity": 98,
      "chip": "ym2612"
    },
    {
      "channel": 0,
      "note": 74,
      "start": 34.8412,
      "duration": 0.3555,
      "velocity": 98,
      "chip": "ym2612"
    },
    {
      "channel": 2,
      "note": 59,
      "start": 34.8417,
      "duration": 0.1078,
      "velocity": 95,
      "chip": "ym2612"
    },
    {
      "channel": 3,
      "note": 66,
      "start": 34.842,
      "duration": 0.1076,
      "velocity": 95,
      "chip": "ym2612"
    },
    {
      "channel": 4,
      "note": 90,
      "start": 34.8422,
      "duration": 0.3555,
      "velocity": 111,
      "chip": "ym2612"
    },
    {
      "channel": 5,
      "note": 90,
      "start": 35.1042,
      "duration": 0.3712,
      "velocity": 111,
      "chip": "ym2612"
    },
    {
      "channel": 1,
      "note": 62,
      "start": 35.1969,
      "duration": 0.3711,
      "velocity": 98,
      "chip": "ym2612"
    },
    {
      "channel": 2,
      "note": 62,
      "start": 35.1972,
      "duration": 0.6493,
      "velocity": 95,
      "chip": "ym2612"
    },
    {
      "channel": 3,
      "note": 69,
      "start": 35.1974,
      "duration": 0.6493,
      "velocity": 95,
      "chip": "ym2612"
    },
    {
      "channel": 4,
      "note": 93,
      "start": 35.1977,
      "duration": 0.5566,
      "velocity": 111,
      "chip": "ym2612"
    },
    {
      "channel": 0,
      "note": 69,
      "start": 35.3824,
      "duration": 0.3712,
      "velocity": 98,
      "chip": "ym2612"
    },
    {
      "channel": 5,
      "note": 93,
      "start": 35.4754,
      "duration": 0.557,
      "velocity": 111,
      "chip": "ym2612"
    },
    {
      "channel": 1,
      "note": 71,
      "start": 35.5681,
      "duration": 0.3713,
      "velocity": 98,
      "chip": "ym2612"
    },
    {
      "channel": 0,
      "note": 73,
      "start": 35.7537,
      "duration": 0.3556,
      "velocity": 98,
      "chip": "ym2612"
    },
    {
      "channel": 4,
      "note": 92,
      "start": 35.7544,
      "duration": 0.1857,
      "velocity": 111,
      "chip": "ym2612"
    },
    {
      "channel": 1,
      "note": 74,
      "start": 35.9395,
      "duration": 0.3557,
      "velocity": 98,
      "chip": "ym2612"
    },
    {
      "channel": 2,
      "note": 62,
      "start": 35.9397,
      "duration": 0.1078,
      "velocity": 95,
      "chip": "ym2612"
    },
    {
      "channel": 3,
      "note": 69,
      "start": 35.9399,
      "duration": 0.1077,
      "velocity": 95,
      "chip": "ym2612"
    },
    {
      "channel": 4,
      "note": 93,
      "start": 35.9402,
      "duration": 0.3557,
      "velocity": 111,
      "chip": "ym2612"
    },
    {
      "channel": 5,
      "note": 92,
      "start": 36.0324,
      "duration": 0.1701,
      "velocity": 111,
      "chip": "ym2612"
    },
    {
      "channel": 0,
      "note": 76,
      "start": 36.1093,
      "duration": 0.3716,
      "velocity": 98,
      "chip": "ym2612"
    },
    {
      "channel": 5,
      "note": 93,
      "start": 36.2025,
      "duration": 0.3714,
      "velocity": 111,
      "chip": "ym2612"
    },
    {
      "channel": 1,
      "note": 68,
      "start": 36.2952,
      "duration": 0.3714,
      "velocity": 98,
      "chip": "ym2612"
    },
    {
      "channel": 2,
      "note": 62,
      "start": 36.2954,
      "duration": 0.6498,
      "velocity": 95,
      "chip": "ym2612"
    },
    {
      "channel": 3,
      "note": 69,
      "start": 36.2957,
      "duration": 0.6496,
      "velocity": 95,
      "chip": "ym2612"
    },
    {
      "channel": 4,
      "note": 95,
      "start": 36.2959,
      "duration": 0.5571,
      "velocity": 111,
      "chip": "ym2612"
    },
    {
      "channel": 0,
      "note": 71,
      "start": 36.4809,
      "duration": 0.3713,
      "velocity": 98,
      "chip": "ym2612"
    },
    {
      "channel": 5,
      "note": 95,
      "start": 36.574,
      "duration": 0.5572,
      "velocity": 111,
      "chip": "ym2612"
    },
    {
      "channel": 1,
      "note": 73,
      "start": 36.6666,
      "duration": 0.3713,
      "velocity": 98,
      "chip": "ym2612"
    },
    {
      "channel": 0,
      "note": 74,
      "start": 36.8523,
      "duration": 0.356,
      "velocity": 98,
      "chip": "ym2612"
    },
    {
      "channel": 4,
      "note": 93,
      "start": 36.8529,
      "duration": 0.1859,
      "velocity": 111,
      "chip": "ym2612"
    },
    {
      "channel": 1,
      "note": 78,
      "start": 37.038,
      "duration": 0.3559,
      "velocity": 98,
      "chip": "ym2612"
    },
    {
      "channel": 2,
      "note": 62,
      "start": 37.0383,
      "duration": 0.1233,
      "velocity": 95,
      "chip": "ym2612"
    },
    {
      "channel": 3,
      "note": 69,
      "start": 37.0386,
      "duration": 0.1232,
      "velocity": 95,
      "chip": "ym2612"
    },
    {
      "channel": 4,
      "note": 92,
      "start": 37.0388,
      "duration": 0.3559,
      "velocity": 111,
      "chip": "ym2612"
    },
    {
      "channel": 5,
      "note": 93,
      "start": 37.1312,
      "duration": 0.1701,
      "velocity": 111,
      "chip": "ym2612"
    },
    {
      "channel": 5,
      "note": 92,
      "start": 37.3014,
      "duration": 0.3712,
      "velocity": 111,
      "chip": "ym2612"
    },
    {
      "channel": 1,
      "note": 62,
      "start": 37.394,
      "duration": 0.371,
      "velocity": 98,
      "chip": "ym2612"
    },
    {
      "channel": 2,
      "note": 59,
      "start": 37.3943,
      "duration": 0.6491,
      "velocity": 95,
      "chip": "ym2612"
    },
    {
      "channel": 3,
      "note": 66,
      "start": 37.3945,
      "duration": 0.6491,
      "velocity": 95,
      "chip": "ym2612"
    },
    {
      "channel": 4,
      "note": 90,
      "start": 37.3948,
      "duration": 2.0255,
      "velocity": 111,
      "chip": "ym2612"
    },
    {
      "channel": 0,
      "note": 69,
      "start": 37.5794,
      "duration": 0.371,
      "velocity": 98,
      "chip": "ym2612"
    },
    {
      "channel": 5,
      "note": 90,
      "start": 37.6726,
      "duration": 2.0105,
      "velocity": 111,
      "chip": "ym2612"
    },
    {
      "channel": 1,
      "note": 71,
      "start": 37.765,
      "duration": 0.3712,
      "velocity": 98,
      "chip": "ym2612"
    },
    {
      "channel": 0,
      "note": 73,
      "start": 37.9505,
      "duration": 0.3713,
      "velocity": 98,
      "chip": "ym2612"
    },
    {
      "channel": 1,
      "note": 74,
      "start": 38.1363,
      "duration": 0.3557,
      "velocity": 98,
      "chip": "ym2612"
    },
    {
      "channel": 2,
      "note": 59,
      "start": 38.1366,
      "duration": 0.1234,
      "velocity": 95,
      "chip": "ym2612"
    },
    {
      "channel": 3,
      "note": 66,
      "start": 38.1368,
      "duration": 0.1233,
      "velocity": 95,
      "chip": "ym2612"
    },
    {
      "channel": 0,
      "note": 76,
      "start": 38.3219,
      "duration": 0.3556,
      "velocity": 98,
      "chip": "ym2612"
    },
    {
      "channel": 1,
      "note": 67,
      "start": 38.492,
      "duration": 0.3712,
      "velocity": 98,
      "chip": "ym2612"
    },
    {
      "channel": 2,
      "note": 59,
      "start": 38.4922,
      "duration": 0.6496,
      "velocity": 95,
      "chip": "ym2612"
    },
    {
      "channel": 3,
      "note": 66,
      "start": 38.4925,
      "duration": 0.6496,
      "velocity": 95,
      "chip": "ym2612"
    },
    {
      "channel": 0,
      "note": 71,
      "start": 38.6775,
      "duration": 0.3713,
      "velocity": 98,
      "chip": "ym2612"
    },
    {
      "channel": 1,
      "note": 78,
      "start": 38.8633,
      "duration": 0.7271,
      "velocity": 98,
      "chip": "ym2612"
    },
    {
      "channel": 0,
      "note": 74,
      "start": 39.2345,
      "duration": 0.3557,
      "velocity": 98,
      "chip": "ym2612"
    },
    {
      "channel": 2,
      "note": 59,
      "start": 39.2349,
      "duration": 0.1234,
      "velocity": 95,
      "chip": "ym2612"
    },
    {
      "channel": 3,
      "note": 66,
      "start": 39.2352,
      "duration": 0.1232,
      "velocity": 95,
      "chip": "ym2612"
    },
    {
      "channel": 1,
      "note": 59,
      "start": 39.5904,
      "duration": 0.3712,
      "velocity": 98,
      "chip": "ym2612"
    },
    {
      "channel": 2,
      "note": 59,
      "start": 39.5907,
      "duration": 0.6493,
      "velocity": 95,
      "chip": "ym2612"
    },
    {
      "channel": 3,
      "note": 66,
      "start": 39.5911,
      "duration": 0.6491,
      "velocity": 95,
      "chip": "ym2612"
    },
    {
      "channel": 0,
      "note": 66,
      "start": 39.7757,
      "duration": 0.3712,
      "velocity": 98,
      "chip": "ym2612"
    },
    {
      "channel": 1,
      "note": 69,
      "start": 39.9617,
      "duration": 0.3711,
      "velocity": 98,
      "chip": "ym2612"
    },
    {
      "channel": 0,
      "note": 73,
      "start": 40.147,
      "duration": 0.3711,
      "velocity": 98,
      "chip": "ym2612"
    },
    {
      "channel": 1,
      "note": 76,
      "start": 40.3327,
      "duration": 0.3559,
      "velocity": 98,
      "chip": "ym2612"
    },
    {
      "channel": 2,
      "note": 59,
      "start": 40.3331,
      "duration": 0.1233,
      "velocity": 95,
      "chip": "ym2612"
    },
    {
      "channel": 3,
      "note": 66,
      "start": 40.3334,
      "duration": 0.1232,
      "velocity": 95,
      "chip": "ym2612"
    },
    {
      "channel": 0,
      "note": 69,
      "start": 40.6885,
      "duration": 1.1145,
      "velocity": 98,
      "chip": "ym2612"
    },
    {
      "channel": 1,
      "note": 73,
      "start": 40.6887,
      "duration": 1.1145,
      "velocity": 98,
      "chip": "ym2612"
    },
    {
      "channel": 2,
      "note": 59,
      "start": 40.6889,
      "duration": 0.6501,
      "velocity": 95,
      "chip": "ym2612"
    },
    {
      "channel": 3,
      "note": 66,
      "start": 40.6892,
      "duration": 0.65,
      "velocity": 95,
      "chip": "ym2612"
    },
    {
      "channel": 2,
      "note": 59,
      "start": 41.432,
      "duration": 0.1234,
      "velocity": 95,
      "chip": "ym2612"
    },
    {
      "channel": 3,
      "note": 66,
      "start": 41.4323,
      "duration": 0.1232,
      "velocity": 95,
      "chip": "ym2612"
    },
    {
      "channel": 1,
      "note": 59,
      "start": 41.8033,
      "duration": 0.3554,
      "velocity": 98,
      "chip": "ym2612"
    },
    {
      "channel": 2,
      "note": 59,
      "start": 41.8036,
      "duration": 0.6335,
      "velocity": 95,
      "chip": "ym2612"
    },
    {
      "channel": 3,
      "note": 66,
      "start": 41.8039,
      "duration": 0.6334,
      "velocity": 95,
      "chip": "ym2612"
    },
    {
      "channel": 0,
      "note": 66,
      "start": 41.9729,
      "duration": 0.3711,
      "velocity": 98,
      "chip": "ym2612"
    },
    {
      "channel": 1,
      "note": 69,
      "start": 42.1587,
      "duration": 0.3714,
      "velocity": 98,
      "chip": "ym2612"
    },
    {
      "channel": 0,
      "note": 73,
      "start": 42.3441,
      "duration": 0.3713,
      "velocity": 98,
      "chip": "ym2612"
    },
    {
      "channel": 1,
      "note": 76,
      "start": 42.5301,
      "duration": 0.3714,
      "velocity": 98,
      "chip": "ym2612"
    },
    {
      "channel": 2,
      "note": 59,
      "start": 42.5304,
      "duration": 0.1234,
      "velocity": 95,
      "chip": "ym2612"
    },
    {
      "channel": 3,
      "note": 66,
      "start": 42.5307,
      "duration": 0.1233,
      "velocity": 95,
      "chip": "ym2612"
    },
    {
      "channel": 0,
      "note": 69,
      "start": 42.9012,
      "duration": 1.0979,
      "velocity": 98,
      "chip": "ym2612"
    },
    {
      "channel": 1,
      "note": 73,
      "start": 42.9015,
      "duration": 1.0978,
      "velocity": 98,
      "chip": "ym2612"
    },
    {
      "channel": 2,
      "note": 59,
      "start": 42.9018,
      "duration": 0.6334,
      "velocity": 95,
      "chip": "ym2612"
    },
    {
      "channel": 3,
      "note": 66,
      "start": 42.902,
      "duration": 0.6332,
      "velocity": 95,
      "chip": "ym2612"
    },
    {
      "channel": 2,
      "note": 59,
      "start": 43.628,
      "duration": 0.1238,
      "velocity": 95,
      "chip": "ym2612"
    },
    {
      "channel": 3,
      "note": 66,
      "start": 43.6284,
      "duration": 0.1235,
      "velocity": 95,
      "chip": "ym2612"
    },
    {
      "channel": 4,
      "note": 78,
      "start": 43.6288,
      "duration": 0.3713,
      "velocity": 111,
      "chip": "ym2612"
    },
    {
      "channel": 5,
      "note": 78,
      "start": 43.9066,
      "duration": 0.3557,
      "velocity": 111,
      "chip": "ym2612"
    },
    {
      "channel": 1,
      "note": 59,
      "start": 43.9993,
      "duration": 0.3555,
      "velocity": 98,
      "chip": "ym2612"
    },
    {
      "channel": 2,
      "note": 59,
      "start": 43.9996,
      "duration": 0.6336,
      "velocity": 95,
      "chip": "ym2612"
    },
    {
      "channel": 3,
      "note": 66,
      "start": 43.9998,
      "duration": 0.6335,
      "velocity": 95,
      "chip": "ym2612"
    },
    {
      "channel": 4,
      "note": 83,
      "start": 44.0,
      "duration": 0.541,
      "velocity": 111,
      "chip": "ym2612"
    },
    {
      "channel": 0,
      "note": 66,
      "start": 44.1693,
      "duration": 0.3712,
      "velocity": 98,
      "chip": "ym2612"
    },
    {
      "channel": 5,
      "note": 83,
      "start": 44.2624,
      "duration": 0.5566,
      "velocity": 111,
      "chip": "ym2612"
    },
    {
      "channel": 1,
      "note": 69,
      "start": 44.3549,
      "duration": 0.371,
      "velocity": 98,
      "chip": "ym2612"
    },
    {
      "channel": 0,
      "note": 73,
      "start": 44.5406,
      "duration": 0.3707,
      "velocity": 98,
      "chip": "ym2612"
    },
    {
      "channel": 4,
      "note": 85,
      "start": 44.5411,
      "duration": 0.1856,
      "velocity": 111,
      "chip": "ym2612"
    },
    {
      "channel": 1,
      "note": 76,
      "start": 44.7259,
      "duration": 0.3713,
      "velocity": 98,
      "chip": "ym2612"
    },
    {
      "channel": 2,
      "note": 59,
      "start": 44.7262,
      "duration": 0.1234,
      "velocity": 95,
      "chip": "ym2612"
    },
    {
      "channel": 3,
      "note": 66,
      "start": 44.7264,
      "duration": 0.1233,
      "velocity": 95,
      "chip": "ym2612"
    },
    {
      "channel": 4,
      "note": 83,
      "start": 44.7267,
      "duration": 0.0613,
      "velocity": 111,
      "chip": "ym2612"
    },
    {
      "channel": 4,
      "note": 85,
      "start": 44.788,
      "duration": 0.0619,
      "velocity": 111,
      "chip": "ym2612"
    },
    {
      "channel": 5,
      "note": 85,
      "start": 44.819,
      "duration": 0.1855,
      "velocity": 111,
      "chip": "ym2612"
    },
    {
      "channel": 4,
      "note": 83,
      "start": 44.85,
      "duration": 0.248,
      "velocity": 111,
      "chip": "ym2612"
    },
    {
      "channel": 5,
      "note": 83,
      "start": 45.0045,
      "duration": 0.0621,
      "velocity": 111,
      "chip": "ym2612"
    },
    {
      "channel": 5,
      "note": 85,
      "start": 45.0666,
      "duration": 0.0619,
      "velocity": 111,
      "chip": "ym2612"
    },
    {
      "channel": 0,
      "note": 69,
      "start": 45.0971,
      "duration": 1.0988,
      "velocity": 98,
      "chip": "ym2612"
    },
    {
      "channel": 1,
      "note": 73,
      "start": 45.0973,
      "duration": 1.0988,
      "velocity": 98,
      "chip": "ym2612"
    },
    {
      "channel": 2,
      "note": 59,
      "start": 45.0976,
      "duration": 0.6341,
      "velocity": 95,
      "chip": "ym2612"
    },
    {
      "channel": 3,
      "note": 66,
      "start": 45.0978,
      "duration": 0.634,
      "velocity": 95,
      "chip": "ym2612"
    },
    {
      "channel": 4,
      "note": 78,
      "start": 45.0982,
      "duration": 0.5409,
      "velocity": 111,
      "chip": "ym2612"
    },
    {
      "channel": 5,
      "note": 83,
      "start": 45.1285,
      "duration": 0.232,
      "velocity": 111,
      "chip": "ym2612"
    },
    {
      "channel": 5,
      "note": 78,
      "start": 45.3605,
      "duration": 0.5571,
      "velocity": 111,
      "chip": "ym2612"
    },
    {
      "channel": 2,
      "note": 59,
      "start": 45.8248,
      "duration": 0.1235,
      "velocity": 95,
      "chip": "ym2612"
    },
    {
      "channel": 3,
      "note": 66,
      "start": 45.825,
      "duration": 0.1233,
      "velocity": 95,
      "chip": "ym2612"
    },
    {
      "channel": 4,
      "note": 78,
      "start": 45.8254,
      "duration": 0.3716,
      "velocity": 111,
      "chip": "ym2612"
    },
    {
      "channel": 5,
      "note": 78,
      "start": 46.1034,
      "duration": 0.3712,
      "velocity": 111,
      "chip": "ym2612"
    },
    {
      "channel": 1,
      "note": 59,
      "start": 46.1961,
      "duration": 0.3557,
      "velocity": 98,
      "chip": "ym2612"
    },
    {
      "channel": 2,
      "note": 59,
      "start": 46.1965,
      "duration": 0.6335,
      "velocity": 95,
      "chip": "ym2612"
    },
    {
      "channel": 3,
      "note": 66,
      "start": 46.1967,
      "duration": 0.6333,
      "velocity": 95,
      "chip": "ym2612"
    },
    {
      "channel": 4,
      "note": 83,
      "start": 46.197,
      "duration": 0.3554,
      "velocity": 111,
      "chip": "ym2612"
    },
    {
      "channel": 0,
      "note": 66,
      "start": 46.3815,
      "duration": 0.3556,
      "velocity": 98,
      "chip": "ym2612"
    },
    {
      "channel": 5,
      "note": 83,
      "start": 46.4746,
      "duration": 0.3557,
      "velocity": 111,
      "chip": "ym2612"
    },
    {
      "channel": 1,
      "note": 69,
      "start": 46.5518,
      "duration": 0.3711,
      "velocity": 98,
      "chip": "ym2612"
    },
    {
      "channel": 4,
      "note": 85,
      "start": 46.5524,
      "duration": 0.3712,
      "velocity": 111,
      "chip": "ym2612"
    },
    {
      "channel": 0,
      "note": 73,
      "start": 46.7372,
      "duration": 0.3712,
      "velocity": 98,
      "chip": "ym2612"
    },
    {
      "channel": 5,
      "note": 85,
      "start": 46.8305,
      "duration": 0.3715,
      "velocity": 111,
      "chip": "ym2612"
    },
    {
      "channel": 1,
      "note": 76,
      "start": 46.923,
      "duration": 0.3716,
      "velocity": 98,
      "chip": "ym2612"
    },
    {
      "channel": 2,
      "note": 59,
      "start": 46.9232,
      "duration": 0.1236,
      "velocity": 95,
      "chip": "ym2612"
    },
    {
      "channel": 3,
      "note": 66,
      "start": 46.9234,
      "duration": 0.1235,
      "velocity": 95,
      "chip": "ym2612"
    },
    {
      "channel": 4,
      "note": 86,
      "start": 46.9237,
      "duration": 0.3717,
      "velocity": 111,
      "chip": "ym2612"
    },
    {
      "channel": 5,
      "note": 86,
      "start": 47.2019,
      "duration": 0.3715,
      "velocity": 111,
      "chip": "ym2612"
    },
    {
      "channel": 0,
      "note": 69,
      "start": 47.2944,
      "duration": 1.0983,
      "velocity": 98,
      "chip": "ym2612"
    },
    {
      "channel": 1,
      "note": 73,
      "start": 47.2946,
      "duration": 1.0983,
      "velocity": 98,
      "chip": "ym2612"
    },
    {
      "channel": 2,
      "note": 59,
      "start": 47.2949,
      "duration": 0.634,
      "velocity": 95,
      "chip": "ym2612"
    },
    {
      "channel": 3,
      "note": 66,
      "start": 47.2952,
      "duration": 0.6339,
      "velocity": 95,
      "chip": "ym2612"
    },
    {
      "channel": 4,
      "note": 88,
      "start": 47.2954,
      "duration": 0.5409,
      "velocity": 111,
      "chip": "ym2612"
    },
    {
      "channel": 5,
      "note": 88,
      "start": 47.5734,
      "duration": 0.5411,
      "velocity": 111,
      "chip": "ym2612"
    },
    {
      "channel": 2,
      "note": 59,
      "start": 48.0218,
      "duration": 0.1234,
      "velocity": 95,
      "chip": "ym2612"
    },
    {
      "channel": 3,
      "note": 66,
      "start": 48.0221,
      "duration": 0.1233,
      "velocity": 95,
      "chip": "ym2612"
    },
    {
      "channel": 4,
      "note": 78,
      "start": 48.0223,
      "duration": 0.3719,
      "velocity": 111,
      "chip": "ym2612"
    },
    {
      "channel": 5,
      "note": 78,
      "start": 48.3001,
      "duration": 0.3716,
      "velocity": 111,
      "chip": "ym2612"
    },
    {
      "channel": 1,
      "note": 59,
      "start": 48.3931,
      "duration": 0.3712,
      "velocity": 98,
      "chip": "ym2612"
    },
    {
      "channel": 2,
      "note": 59,
      "start": 48.3935,
      "duration": 0.6338,
      "velocity": 95,
      "chip": "ym2612"
    },
    {
      "channel": 3,
      "note": 66,
      "start": 48.3939,
      "duration": 0.6335,
      "velocity": 95,
      "chip": "ym2612"
    },
    {
      "channel": 4,
      "note": 83,
      "start": 48.3942,
      "duration": 0.5407,
      "velocity": 111,
      "chip": "ym2612"
    },
    {
      "channel": 0,
      "note": 66,
      "start": 48.5783,
      "duration": 0.356,
      "velocity": 98,
      "chip": "ym2612"
    },
    {
      "channel": 5,
      "note": 83,
      "start": 48.6717,
      "duration": 0.5415,
      "velocity": 111,
      "chip": "ym2612"
    },
    {
      "channel": 1,
      "note": 69,
      "start": 48.7644,
      "duration": 0.3556,
      "velocity": 98,
      "chip": "ym2612"
    },
    {
      "channel": 0,
      "note": 73,
      "start": 48.9344,
      "duration": 0.3712,
      "velocity": 98,
      "chip": "ym2612"
    },
    {
      "channel": 4,
      "note": 85,
      "start": 48.9349,
      "duration": 0.1861,
      "velocity": 111,
      "chip": "ym2612"
    },
    {
      "channel": 1,
      "note": 76,
      "start": 49.1201,
      "duration": 0.3709,
      "velocity": 98,
      "chip": "ym2612"
    },
    {
      "channel": 2,
      "note": 59,
      "start": 49.1204,
      "duration": 0.1232,
      "velocity": 95,
      "chip": "ym2612"
    },
    {
      "channel": 3,
      "note": 66,
      "start": 49.1208,
      "duration": 0.1229,
      "velocity": 95,
      "chip": "ym2612"
    },
    {
      "channel": 4,
      "note": 86,
      "start": 49.1211,
      "duration": 0.371,
      "velocity": 111,
      "chip": "ym2612"
    },
    {
      "channel": 5,
      "note": 85,
      "start": 49.2133,
      "duration": 0.1855,
      "velocity": 111,
      "chip": "ym2612"
    },
    {
      "channel": 5,
      "note": 86,
      "start": 49.3988,
      "duration": 0.3711,
      "velocity": 111,
      "chip": "ym2612"
    },
    {
      "channel": 0,
      "note": 69,
      "start": 49.4907,
      "duration": 1.0989,
      "velocity": 98,
      "chip": "ym2612"
    },
    {
      "channel": 1,
      "note": 73,
      "start": 49.4911,
      "duration": 1.0988,
      "velocity": 98,
      "chip": "ym2612"
    },
    {
      "channel": 2,
      "note": 59,
      "start": 49.4914,
      "duration": 0.6342,
      "velocity": 95,
      "chip": "ym2612"
    },
    {
      "channel": 3,
      "note": 66,
      "start": 49.4918,
      "duration": 0.6339,
      "velocity": 95,
      "chip": "ym2612"
    },
    {
      "channel": 4,
      "note": 85,
      "start": 49.4922,
      "duration": 0.0609,
      "velocity": 111,
      "chip": "ym2612"
    },
    {
      "channel": 4,
      "note": 86,
      "start": 49.5532,
      "duration": 0.0617,
      "velocity": 111,
      "chip": "ym2612"
    },
    {
      "channel": 4,
      "note": 85,
      "start": 49.6149,
      "duration": 0.418,
      "velocity": 111,
      "chip": "ym2612"
    },
    {
      "channel": 5,
      "note": 85,
      "start": 49.77,
      "duration": 0.0619,
      "velocity": 111,
      "chip": "ym2612"
    },
    {
      "channel": 5,
      "note": 86,
      "start": 49.8318,
      "duration": 0.0623,
      "velocity": 111,
      "chip": "ym2612"
    },
    {
      "channel": 5,
      "note": 85,
      "start": 49.8942,
      "duration": 0.4175,
      "velocity": 111,
      "chip": "ym2612"
    },
    {
      "channel": 4,
      "note": 83,
      "start": 50.0331,
      "duration": 0.1864,
      "velocity": 111,
      "chip": "ym2612"
    },
    {
      "channel": 2,
      "note": 59,
      "start": 50.2188,
      "duration": 0.1235,
      "velocity": 95,
      "chip": "ym2612"
    },
    {
      "channel": 3,
      "note": 66,
      "start": 50.2192,
      "duration": 0.1233,
      "velocity": 95,
      "chip": "ym2612"
    },
    {
      "channel": 4,
      "note": 81,
      "start": 50.2195,
      "duration": 0.3715,
      "velocity": 111,
      "chip": "ym2612"
    },
    {
      "channel": 5,
      "note": 83,
      "start": 50.3117,
      "duration": 0.1856,
      "velocity": 111,
      "chip": "ym2612"
    },
    {
      "channel": 5,
      "note": 81,
      "start": 50.4973,
      "duration": 0.3711,
      "velocity": 111,
      "chip": "ym2612"
    },
    {
      "channel": 1,
      "note": 59,
      "start": 50.59,
      "duration": 0.3709,
      "velocity": 98,
      "chip": "ym2612"
    },
    {
      "channel": 2,
      "note": 59,
      "start": 50.5904,
      "duration": 0.6332,
      "velocity": 95,
      "chip": "ym2612"
    },
    {
      "channel": 3,
      "note": 66,
      "start": 50.5908,
      "duration": 0.6329,
      "velocity": 95,
      "chip": "ym2612"
    },
    {
      "channel": 4,
      "note": 83,
      "start": 50.5911,
      "duration": 0.7265,
      "velocity": 111,
      "chip": "ym2612"
    },
    {
      "channel": 0,
      "note": 66,
      "start": 50.7752,
      "duration": 0.3555,
      "velocity": 98,
      "chip": "ym2612"
    },
    {
      "channel": 5,
      "note": 83,
      "start": 50.8685,
      "duration": 0.7271,
      "velocity": 111,
      "chip": "ym2612"
    },
    {
      "channel": 1,
      "note": 69,
      "start": 50.961,
      "duration": 0.3556,
      "velocity": 98,
      "chip": "ym2612"
    },
    {
      "channel": 0,
      "note": 73,
      "start": 51.1307,
      "duration": 0.3716,
      "velocity": 98,
      "chip": "ym2612"
    },
    {
      "channel": 1,
      "note": 76,
      "start": 51.3166,
      "duration": 0.3714,
      "velocity": 98,
      "chip": "ym2612"
    },
    {
      "channel": 2,
      "note": 59,
      "start": 51.317,
      "duration": 0.1236,
      "velocity": 95,
      "chip": "ym2612"
    },
    {
      "channel": 3,
      "note": 66,
      "start": 51.3173,
      "duration": 0.1234,
      "velocity": 95,
      "chip": "ym2612"
    },
    {
      "channel": 4,
      "note": 83,
      "start": 51.3176,
      "duration": 0.3715,
      "velocity": 111,
      "chip": "ym2612"
    },
    {
      "channel": 5,
      "note": 83,
      "start": 51.5956,
      "duration": 0.3711,
      "velocity": 111,
      "chip": "ym2612"
    },
    {
      "channel": 0,
      "note": 69,
      "start": 51.6878,
      "duration": 1.0982,
      "velocity": 98,
      "chip": "ym2612"
    },
    {
      "channel": 1,
      "note": 73,
      "start": 51.6881,
      "duration": 1.0981,
      "velocity": 98,
      "chip": "ym2612"
    },
    {
      "channel": 2,
      "note": 59,
      "start": 51.6885,
      "duration": 0.6339,
      "velocity": 95,
      "chip": "ym2612"
    },
    {
      "channel": 3,
      "note": 66,
      "start": 51.6888,
      "duration": 0.6336,
      "velocity": 95,
      "chip": "ym2612"
    },
    {
      "channel": 4,
      "note": 83,
      "start": 51.6892,
      "duration": 0.5563,
      "velocity": 111,
      "chip": "ym2612"
    },
    {
      "channel": 5,
      "note": 83,
      "start": 51.9668,
      "duration": 0.5416,
      "velocity": 111,
      "chip": "ym2612"
    },
    {
      "channel": 2,
      "note": 59,
      "start": 52.4154,
      "duration": 0.1234,
      "velocity": 95,
      "chip": "ym2612"
    },
    {
      "channel": 3,
      "note": 66,
      "start": 52.4158,
      "duration": 0.1232,
      "velocity": 95,
      "chip": "ym2612"
    },
    {
      "channel": 4,
      "note": 78,
      "start": 52.416,
      "duration": 0.3711,
      "velocity": 111,
      "chip": "ym2612"
    },
    {
      "channel": 5,
      "note": 78,
      "start": 52.6934,
      "duration": 0.3713,
      "velocity": 111,
      "chip": "ym2612"
    },
    {
      "channel": 1,
      "note": 59,
      "start": 52.7863,
      "duration": 0.371,
      "velocity": 98,
      "chip": "ym2612"
    },
    {
      "channel": 2,
      "note": 59,
      "start": 52.7866,
      "duration": 0.6494,
      "velocity": 95,
      "chip": "ym2612"
    },
    {
      "channel": 3,
      "note": 66,
      "start": 52.7869,
      "duration": 0.6493,
      "velocity": 95,
      "chip": "ym2612"
    },
    {
      "channel": 4,
      "note": 83,
      "start": 52.7871,
      "duration": 0.5566,
      "velocity": 111,
      "chip": "ym2612"
    },
    {
      "channel": 0,
      "note": 66,
      "start": 52.9717,
      "duration": 0.3713,
      "velocity": 98,
      "chip": "ym2612"
    },
    {
      "channel": 5,
      "note": 83,
      "start": 53.0647,
      "duration": 0.5419,
      "velocity": 111,
      "chip": "ym2612"
    },
    {
      "channel": 1,
      "note": 69,
      "start": 53.1573,
      "duration": 0.3561,
      "velocity": 98,
      "chip": "ym2612"
    },
    {
      "channel": 0,
      "note": 73,
      "start": 53.3431,
      "duration": 0.356,
      "velocity": 98,
      "chip": "ym2612"
    },
    {
      "channel": 4,
      "note": 85,
      "start": 53.3437,
      "duration": 0.1705,
      "velocity": 111,
      "chip": "ym2612"
    },
    {
      "channel": 1,
      "note": 76,
      "start": 53.5135,
      "duration": 0.3715,
      "velocity": 98,
      "chip": "ym2612"
    },
    {
      "channel": 2,
      "note": 59,
      "start": 53.5137,
      "duration": 0.1234,
      "velocity": 95,
      "chip": "ym2612"
    },
    {
      "channel": 3,
      "note": 66,
      "start": 53.514,
      "duration": 0.1232,
      "velocity": 95,
      "chip": "ym2612"
    },
    {
      "channel": 4,
      "note": 83,
      "start": 53.5143,
      "duration": 0.0612,
      "velocity": 111,
      "chip": "ym2612"
    },
    {
      "channel": 4,
      "note": 85,
      "start": 53.5755,
      "duration": 0.062,
      "velocity": 111,
      "chip": "ym2612"
    },
    {
      "channel": 5,
      "note": 85,
      "start": 53.6066,
      "duration": 0.1854,
      "velocity": 111,
      "chip": "ym2612"
    },
    {
      "channel": 4,
      "note": 83,
      "start": 53.6375,
      "duration": 0.2482,
      "velocity": 111,
      "chip": "ym2612"
    },
    {
      "channel": 5,
      "note": 83,
      "start": 53.7921,
      "duration": 0.0618,
      "velocity": 111,
      "chip": "ym2612"
    },
    {
      "channel": 5,
      "note": 85,
      "start": 53.854,
      "duration": 0.0618,
      "velocity": 111,
      "chip": "ym2612"
    },
    {
      "channel": 0,
      "note": 69,
      "start": 53.8847,
      "duration": 1.0983,
      "velocity": 98,
      "chip": "ym2612"
    },
    {
      "channel": 1,
      "note": 73,
      "start": 53.8849,
      "duration": 1.0983,
      "velocity": 98,
      "chip": "ym2612"
    },
    {
      "channel": 2,
      "note": 59,
      "start": 53.8852,
      "duration": 0.6495,
      "velocity": 95,
      "chip": "ym2612"
    },
    {
      "channel": 3,
      "note": 66,
      "start": 53.8855,
      "duration": 0.6494,
      "velocity": 95,
      "chip": "ym2612"
    },
    {
      "channel": 4,
      "note": 78,
      "start": 53.8858,
      "duration": 0.5565,
      "velocity": 111,
      "chip": "ym2612"
    },
    {
      "channel": 5,
      "note": 83,
      "start": 53.9158,
      "duration": 0.2479,
      "velocity": 111,
      "chip": "ym2612"
    },
    {
      "channel": 5,
      "note": 78,
      "start": 54.1637,
      "duration": 0.5412,
      "velocity": 111,
      "chip": "ym2612"
    },
    {
      "channel": 2,
      "note": 59,
      "start": 54.6122,
      "duration": 0.1236,
      "velocity": 95,
      "chip": "ym2612"
    },
    {
      "channel": 3,
      "note": 66,
      "start": 54.6125,
      "duration": 0.1234,
      "velocity": 95,
      "chip": "ym2612"
    },
    {
      "channel": 4,
      "note": 78,
      "start": 54.6127,
      "duration": 0.3713,
      "velocity": 111,
      "chip": "ym2612"
    },
    {
      "channel": 5,
      "note": 78,
      "start": 54.8905,
      "duration": 0.3714,
      "velocity": 111,
      "chip": "ym2612"
    },
    {
      "channel": 1,
      "note": 59,
      "start": 54.9832,
      "duration": 0.371,
      "velocity": 98,
      "chip": "ym2612"
    },
    {
      "channel": 2,
      "note": 59,
      "start": 54.9836,
      "duration": 0.6489,
      "velocity": 95,
      "chip": "ym2612"
    },
    {
      "channel": 3,
      "note": 66,
      "start": 54.9838,
      "duration": 0.6488,
      "velocity": 95,
      "chip": "ym2612"
    },
    {
      "channel": 4,
      "note": 83,
      "start": 54.984,
      "duration": 0.371,
      "velocity": 111,
      "chip": "ym2612"
    },
    {
      "channel": 0,
      "note": 66,
      "start": 55.1687,
      "duration": 0.3709,
      "velocity": 98,
      "chip": "ym2612"
    },
    {
      "channel": 5,
      "note": 83,
      "start": 55.262,
      "duration": 0.371,
      "velocity": 111,
      "chip": "ym2612"
    },
    {
      "channel": 1,
      "note": 69,
      "start": 55.3544,
      "duration": 0.3707,
      "velocity": 98,
      "chip": "ym2612"
    },
    {
      "channel": 4,
      "note": 85,
      "start": 55.355,
      "duration": 0.3712,
      "velocity": 111,
      "chip": "ym2612"
    },
    {
      "channel": 0,
      "note": 73,
      "start": 55.5397,
      "duration": 0.3555,
      "velocity": 98,
      "chip": "ym2612"
    },
    {
      "channel": 5,
      "note": 85,
      "start": 55.633,
      "duration": 0.3557,
      "velocity": 111,
      "chip": "ym2612"
    },
    {
      "channel": 1,
      "note": 76,
      "start": 55.7252,
      "duration": 0.3563,
      "velocity": 98,
      "chip": "ym2612"
    },
    {
      "channel": 2,
      "note": 59,
      "start": 55.7255,
      "duration": 0.108,
      "velocity": 95,
      "chip": "ym2612"
    },
    {
      "channel": 3,
      "note": 66,
      "start": 55.7258,
      "duration": 0.1078,
      "velocity": 95,
      "chip": "ym2612"
    },
    {
      "channel": 4,
      "note": 86,
      "start": 55.7261,
      "duration": 0.3561,
      "velocity": 111,
      "chip": "ym2612"
    },
    {
      "channel": 5,
      "note": 86,
      "start": 55.9887,
      "duration": 0.3715,
      "velocity": 111,
      "chip": "ym2612"
    },
    {
      "channel": 0,
      "note": 69,
      "start": 56.0811,
      "duration": 1.0989,
      "velocity": 98,
      "chip": "ym2612"
    },
    {
      "channel": 1,
      "note": 73,
      "start": 56.0815,
      "duration": 1.0988,
      "velocity": 98,
      "chip": "ym2612"
    },
    {
      "channel": 2,
      "note": 59,
      "start": 56.0817,
      "duration": 0.6498,
      "velocity": 95,
      "chip": "ym2612"
    },
    {
      "channel": 3,
      "note": 66,
      "start": 56.0821,
      "duration": 0.6497,
      "velocity": 95,
      "chip": "ym2612"
    },
    {
      "channel": 4,
      "note": 88,
      "start": 56.0823,
      "duration": 0.5568,
      "velocity": 111,
      "chip": "ym2612"
    },
    {
      "channel": 5,
      "note": 88,
      "start": 56.3602,
      "duration": 0.5571,
      "velocity": 111,
      "chip": "ym2612"
    },
    {
      "channel": 2,
      "note": 59,
      "start": 56.8245,
      "duration": 0.1081,
      "velocity": 95,
      "chip": "ym2612"
    },
    {
      "channel": 3,
      "note": 66,
      "start": 56.8249,
      "duration": 0.1079,
      "velocity": 95,
      "chip": "ym2612"
    },
    {
      "channel": 4,
      "note": 78,
      "start": 56.8253,
      "duration": 0.3559,
      "velocity": 111,
      "chip": "ym2612"
    },
    {
      "channel": 5,
      "note": 78,
      "start": 57.0876,
      "duration": 0.3712,
      "velocity": 111,
      "chip": "ym2612"
    },
    {
      "channel": 1,
      "note": 59,
      "start": 57.1805,
      "duration": 0.3707,
      "velocity": 98,
      "chip": "ym2612"
    },
    {
      "channel": 2,
      "note": 59,
      "start": 57.1806,
      "duration": 0.6493,
      "velocity": 95,
      "chip": "ym2612"
    },
    {
      "channel": 3,
      "note": 66,
      "start": 57.1809,
      "duration": 0.6492,
      "velocity": 95,
      "chip": "ym2612"
    },
    {
      "channel": 4,
      "note": 90,
      "start": 57.1813,
      "duration": 0.5563,
      "velocity": 111,
      "chip": "ym2612"
    },
    {
      "channel": 0,
      "note": 66,
      "start": 57.3655,
      "duration": 0.3715,
      "velocity": 98,
      "chip": "ym2612"
    },
    {
      "channel": 5,
      "note": 90,
      "start": 57.4588,
      "duration": 0.5571,
      "velocity": 111,
      "chip": "ym2612"
    },
    {
      "channel": 1,
      "note": 69,
      "start": 57.5512,
      "duration": 0.3717,
      "velocity": 98,
      "chip": "ym2612"
    },
    {
      "channel": 0,
      "note": 73,
      "start": 57.737,
      "duration": 0.3561,
      "velocity": 98,
      "chip": "ym2612"
    },
    {
      "channel": 4,
      "note": 88,
      "start": 57.7376,
      "duration": 0.1863,
      "velocity": 111,
      "chip": "ym2612"
    },
    {
      "channel": 1,
      "note": 76,
      "start": 57.9229,
      "duration": 0.356,
      "velocity": 98,
      "chip": "ym2612"
    },
    {
      "channel": 2,
      "note": 59,
      "start": 57.9233,
      "duration": 0.1232,
      "velocity": 95,
      "chip": "ym2612"
    },
    {
      "channel": 3,
      "note": 66,
      "start": 57.9237,
      "duration": 0.1229,
      "velocity": 95,
      "chip": "ym2612"
    },
    {
      "channel": 4,
      "note": 90,
      "start": 57.924,
      "duration": 0.3559,
      "velocity": 111,
      "chip": "ym2612"
    },
    {
      "channel": 5,
      "note": 88,
      "start": 58.0159,
      "duration": 0.1703,
      "velocity": 111,
      "chip": "ym2612"
    },
    {
      "channel": 5,
      "note": 90,
      "start": 58.1863,
      "duration": 0.3715,
      "velocity": 111,
      "chip": "ym2612"
    },
    {
      "channel": 0,
      "note": 69,
      "start": 58.2787,
      "duration": 1.0986,
      "velocity": 98,
      "chip": "ym2612"
    },
    {
      "channel": 1,
      "note": 73,
      "start": 58.279,
      "duration": 1.0985,
      "velocity": 98,
      "chip": "ym2612"
    },
    {
      "channel": 2,
      "note": 59,
      "start": 58.2793,
      "duration": 0.6497,
      "velocity": 95,
      "chip": "ym2612"
    },
    {
      "channel": 3,
      "note": 66,
      "start": 58.2796,
      "duration": 0.6496,
      "velocity": 95,
      "chip": "ym2612"
    },
    {
      "channel": 4,
      "note": 88,
      "start": 58.28,
      "duration": 0.0609,
      "velocity": 111,
      "chip": "ym2612"
    },
    {
      "channel": 4,
      "note": 90,
      "start": 58.3409,
      "duration": 0.0619,
      "velocity": 111,
      "chip": "ym2612"
    },
    {
      "channel": 4,
      "note": 88,
      "start": 58.4029,
      "duration": 0.4337,
      "velocity": 111,
      "chip": "ym2612"
    },
    {
      "channel": 5,
      "note": 88,
      "start": 58.5578,
      "duration": 0.062,
      "velocity": 111,
      "chip": "ym2612"
    },
    {
      "channel": 5,
      "note": 90,
      "start": 58.6199,
      "duration": 0.0622,
      "velocity": 111,
      "chip": "ym2612"
    },
    {
      "channel": 5,
      "note": 88,
      "start": 58.6821,
      "duration": 0.4325,
      "velocity": 111,
      "chip": "ym2612"
    },
    {
      "channel": 4,
      "note": 86,
      "start": 58.8366,
      "duration": 0.186,
      "velocity": 111,
      "chip": "ym2612"
    },
    {
      "channel": 2,
      "note": 59,
      "start": 59.0219,
      "duration": 0.1237,
      "velocity": 95,
      "chip": "ym2612"
    },
    {
      "channel": 3,
      "note": 66,
      "start": 59.0222,
      "duration": 0.1235,
      "velocity": 95,
      "chip": "ym2612"
    },
    {
      "channel": 4,
      "note": 85,
      "start": 59.0226,
      "duration": 0.3557,
      "velocity": 111,
      "chip": "ym2612"
    },
    {
      "channel": 5,
      "note": 86,
      "start": 59.1146,
      "duration": 0.1701,
      "velocity": 111,
      "chip": "ym2612"
    },
    {
      "channel": 5,
      "note": 85,
      "start": 59.2849,
      "duration": 0.3714,
      "velocity": 111,
      "chip": "ym2612"
    },
    {
      "channel": 1,
      "note": 59,
      "start": 59.3776,
      "duration": 0.3712,
      "velocity": 98,
      "chip": "ym2612"
    },
    {
      "channel": 2,
      "note": 59,
      "start": 59.3778,
      "duration": 0.6494,
      "velocity": 95,
      "chip": "ym2612"
    },
    {
      "channel": 3,
      "note": 66,
      "start": 59.3781,
      "duration": 0.6494,
      "velocity": 95,
      "chip": "ym2612"
    },
    {
      "channel": 4,
      "note": 83,
      "start": 59.3783,
      "duration": 0.7424,
      "velocity": 111,
      "chip": "ym2612"
    },
    {
      "channel": 0,
      "note": 66,
      "start": 59.5632,
      "duration": 0.3712,
      "velocity": 98,
      "chip": "ym2612"
    },
    {
      "channel": 5,
      "note": 83,
      "start": 59.6563,
      "duration": 0.7424,
      "velocity": 111,
      "chip": "ym2612"
    },
    {
      "channel": 1,
      "note": 69,
      "start": 59.7488,
      "duration": 0.371,
      "velocity": 98,
      "chip": "ym2612"
    },
    {
      "channel": 0,
      "note": 73,
      "start": 59.9345,
      "duration": 0.371,
      "velocity": 98,
      "chip": "ym2612"
    },
    {
      "channel": 1,
      "note": 76,
      "start": 60.1199,
      "duration": 0.3561,
      "velocity": 98,
      "chip": "ym2612"
    },
    {
      "channel": 2,
      "note": 59,
      "start": 60.1202,
      "duration": 0.1237,
      "velocity": 95,
      "chip": "ym2612"
    },
    {
      "channel": 3,
      "note": 66,
      "start": 60.1206,
      "duration": 0.1234,
      "velocity": 95,
      "chip": "ym2612"
    },
    {
      "channel": 4,
      "note": 83,
      "start": 60.1208,
      "duration": 0.3559,
      "velocity": 111,
      "chip": "ym2612"
    },
    {
      "channel": 5,
      "note": 83,
      "start": 60.3988,
      "duration": 0.3561,
      "velocity": 111,
      "chip": "ym2612"
    },
    {
      "channel": 0,
      "note": 69,
      "start": 60.4758,
      "duration": 1.0992,
      "velocity": 98,
      "chip": "ym2612"
    },
    {
      "channel": 1,
      "note": 73,
      "start": 60.4761,
      "duration": 1.0993,
      "velocity": 98,
      "chip": "ym2612"
    },
    {
      "channel": 2,
      "note": 59,
      "start": 60.4763,
      "duration": 0.6503,
      "velocity": 95,
      "chip": "ym2612"
    },
    {
      "channel": 3,
      "note": 66,
      "start": 60.4765,
      "duration": 0.6502,
      "velocity": 95,
      "chip": "ym2612"
    },
    {
      "channel": 4,
      "note": 83,
      "start": 60.4768,
      "duration": 0.5573,
      "velocity": 111,
      "chip": "ym2612"
    },
    {
      "channel": 5,
      "note": 83,
      "start": 60.7549,
      "duration": 0.5573,
      "velocity": 111,
      "chip": "ym2612"
    },
    {
      "channel": 2,
      "note": 59,
      "start": 61.2194,
      "duration": 0.1237,
      "velocity": 95,
      "chip": "ym2612"
    },
    {
      "channel": 3,
      "note": 66,
      "start": 61.2196,
      "duration": 0.1234,
      "velocity": 95,
      "chip": "ym2612"
    },
    {
      "channel": 4,
      "note": 90,
      "start": 61.2201,
      "duration": 0.3561,
      "velocity": 111,
      "chip": "ym2612"
    },
    {
      "channel": 5,
      "note": 90,
      "start": 61.4981,
      "duration": 0.3556,
      "velocity": 111,
      "chip": "ym2612"
    },
    {
      "channel": 1,
      "note": 62,
      "start": 61.5753,
      "duration": 0.3709,
      "velocity": 98,
      "chip": "ym2612"
    },
    {
      "channel": 2,
      "note": 62,
      "start": 61.5756,
      "duration": 0.649,
      "velocity": 95,
      "chip": "ym2612"
    },
    {
      "channel": 3,
      "note": 69,
      "start": 61.576,
      "duration": 0.6489,
      "velocity": 95,
      "chip": "ym2612"
    },
    {
      "channel": 4,
      "note": 93,
      "start": 61.5761,
      "duration": 0.7421,
      "velocity": 111,
      "chip": "ym2612"
    },
    {
      "channel": 0,
      "note": 69,
      "start": 61.7607,
      "duration": 0.3712,
      "velocity": 98,
      "chip": "ym2612"
    },
    {
      "channel": 5,
      "note": 93,
      "start": 61.8538,
      "duration": 0.7425,
      "velocity": 111,
      "chip": "ym2612"
    },
    {
      "channel": 1,
      "note": 71,
      "start": 61.9462,
      "duration": 0.3711,
      "velocity": 98,
      "chip": "ym2612"
    },
    {
      "channel": 0,
      "note": 73,
      "start": 62.132,
      "duration": 0.371,
      "velocity": 98,
      "chip": "ym2612"
    },
    {
      "channel": 1,
      "note": 74,
      "start": 62.3174,
      "duration": 0.3712,
      "velocity": 98,
      "chip": "ym2612"
    },
    {
      "channel": 2,
      "note": 62,
      "start": 62.3178,
      "duration": 0.1234,
      "velocity": 95,
      "chip": "ym2612"
    },
    {
      "channel": 3,
      "note": 69,
      "start": 62.318,
      "duration": 0.1233,
      "velocity": 95,
      "chip": "ym2612"
    },
    {
      "channel": 4,
      "note": 90,
      "start": 62.3183,
      "duration": 0.3712,
      "velocity": 111,
      "chip": "ym2612"
    },
    {
      "channel": 0,
      "note": 76,
      "start": 62.5032,
      "duration": 0.3556,
      "velocity": 98,
      "chip": "ym2612"
    },
    {
      "channel": 5,
      "note": 90,
      "start": 62.5963,
      "duration": 0.3556,
      "velocity": 111,
      "chip": "ym2612"
    },
    {
      "channel": 1,
      "note": 67,
      "start": 62.6887,
      "duration": 0.3557,
      "velocity": 98,
      "chip": "ym2612"
    },
    {
      "channel": 2,
      "note": 62,
      "start": 62.689,
      "duration": 0.6334,
      "velocity": 95,
      "chip": "ym2612"
    },
    {
      "channel": 3,
      "note": 69,
      "start": 62.6893,
      "duration": 0.6333,
      "velocity": 95,
      "chip": "ym2612"
    },
    {
      "channel": 4,
      "note": 88,
      "start": 62.6895,
      "duration": 0.5406,
      "velocity": 111,
      "chip": "ym2612"
    },
    {
      "channel": 0,
      "note": 71,
      "start": 62.8588,
      "duration": 0.3708,
      "velocity": 98,
      "chip": "ym2612"
    },
    {
      "channel": 5,
      "note": 88,
      "start": 62.952,
      "duration": 0.5562,
      "velocity": 111,
      "chip": "ym2612"
    },
    {
      "channel": 1,
      "note": 73,
      "start": 63.0445,
      "duration": 0.3709,
      "velocity": 98,
      "chip": "ym2612"
    },
    {
      "channel": 0,
      "note": 74,
      "start": 63.2297,
      "duration": 0.3712,
      "velocity": 98,
      "chip": "ym2612"
    },
    {
      "channel": 1,
      "note": 78,
      "start": 63.4154,
      "duration": 0.3714,
      "velocity": 98,
      "chip": "ym2612"
    },
    {
      "channel": 2,
      "note": 62,
      "start": 63.4156,
      "duration": 0.1235,
      "velocity": 95,
      "chip": "ym2612"
    },
    {
      "channel": 3,
      "note": 69,
      "start": 63.4159,
      "duration": 0.1234,
      "velocity": 95,
      "chip": "ym2612"
    },
    {
      "channel": 4,
      "note": 86,
      "start": 63.4161,
      "duration": 0.3715,
      "velocity": 111,
      "chip": "ym2612"
    },
    {
      "channel": 5,
      "note": 86,
      "start": 63.6942,
      "duration": 0.3558,
      "velocity": 111,
      "chip": "ym2612"
    },
    {
      "channel": 1,
      "note": 62,
      "start": 63.7869,
      "duration": 0.3557,
      "velocity": 98,
      "chip": "ym2612"
    },
    {
      "channel": 2,
      "note": 59,
      "start": 63.7872,
      "duration": 0.6338,
      "velocity": 95,
      "chip": "ym2612"
    },
    {
      "channel": 3,
      "note": 66,
      "start": 63.7875,
      "duration": 0.6337,
      "velocity": 95,
      "chip": "ym2612"
    },
    {
      "channel": 4,
      "note": 90,
      "start": 63.7877,
      "duration": 0.7268,
      "velocity": 111,
      "chip": "ym2612"
    },
    {
      "channel": 0,
      "note": 69,
      "start": 63.9569,
      "duration": 0.3712,
      "velocity": 98,
      "chip": "ym2612"
    },
    {
      "channel": 5,
      "note": 90,
      "start": 64.0501,
      "duration": 0.7424,
      "velocity": 111,
      "chip": "ym2612"
    },
    {
      "channel": 1,
      "note": 71,
      "start": 64.1426,
      "duration": 0.3711,
      "velocity": 98,
      "chip": "ym2612"
    },
    {
      "channel": 0,
      "note": 73,
      "start": 64.3282,
      "duration": 0.371,
      "velocity": 98,
      "chip": "ym2612"
    },
    {
      "channel": 1,
      "note": 74,
      "start": 64.5138,
      "duration": 0.3714,
      "velocity": 98,
      "chip": "ym2612"
    },
    {
      "channel": 2,
      "note": 59,
      "start": 64.514,
      "duration": 0.1233,
      "velocity": 95,
      "chip": "ym2612"
    },
    {
      "channel": 3,
      "note": 66,
      "start": 64.5143,
      "duration": 0.1232,
      "velocity": 95,
      "chip": "ym2612"
    },
    {
      "channel": 4,
      "note": 86,
      "start": 64.5145,
      "duration": 0.3714,
      "velocity": 111,
      "chip": "ym2612"
    },
    {
      "channel": 0,
      "note": 76,
      "start": 64.6993,
      "duration": 0.3556,
      "velocity": 98,
      "chip": "ym2612"
    },
    {
      "channel": 5,
      "note": 86,
      "start": 64.7926,
      "duration": 0.3556,
      "velocity": 111,
      "chip": "ym2612"
    },
    {
      "channel": 1,
      "note": 67,
      "start": 64.8851,
      "duration": 0.3558,
      "velocity": 98,
      "chip": "ym2612"
    },
    {
      "channel": 2,
      "note": 59,
      "start": 64.8854,
      "duration": 0.6341,
      "velocity": 95,
      "chip": "ym2612"
    },
    {
      "channel": 3,
      "note": 66,
      "start": 64.8857,
      "duration": 0.6339,
      "velocity": 95,
      "chip": "ym2612"
    },
    {
      "channel": 4,
      "note": 83,
      "start": 64.8859,
      "duration": 0.541,
      "velocity": 111,
      "chip": "ym2612"
    },
    {
      "channel": 0,
      "note": 71,
      "start": 65.0549,
      "duration": 0.3714,
      "velocity": 98,
      "chip": "ym2612"
    },
    {
      "channel": 5,
      "note": 83,
      "start": 65.1481,
      "duration": 0.5569,
      "velocity": 111,
      "chip": "ym2612"
    },
    {
      "channel": 1,
      "note": 78,
      "start": 65.241,
      "duration": 0.7421,
      "velocity": 98,
      "chip": "ym2612"
    },
    {
      "channel": 0,
      "note": 74,
      "start": 65.6121,
      "duration": 0.3707,
      "velocity": 98,
      "chip": "ym2612"
    },
    {
      "channel": 2,
      "note": 59,
      "start": 65.6126,
      "duration": 0.1229,
      "velocity": 95,
      "chip": "ym2612"
    },
    {
      "channel": 3,
      "note": 66,
      "start": 65.6128,
      "duration": 0.1228,
      "velocity": 95,
      "chip": "ym2612"
    },
    {
      "channel": 4,
      "note": 90,
      "start": 65.6131,
      "duration": 0.3709,
      "velocity": 111,
      "chip": "ym2612"
    },
    {
      "channel": 5,
      "note": 90,
      "start": 65.8907,
      "duration": 0.3555,
      "velocity": 111,
      "chip": "ym2612"
    },
    {
      "channel": 1,
      "note": 62,
      "start": 65.9831,
      "duration": 0.3556,
      "velocity": 98,
      "chip": "ym2612"
    },
    {
      "channel": 2,
      "note": 62,
      "start": 65.9834,
      "duration": 0.6338,
      "velocity": 95,
      "chip": "ym2612"
    },
    {
      "channel": 3,
      "note": 69,
      "start": 65.9837,
      "duration": 0.6336,
      "velocity": 95,
      "chip": "ym2612"
    },
    {
      "channel": 4,
      "note": 93,
      "start": 65.9839,
      "duration": 0.541,
      "velocity": 111,
      "chip": "ym2612"
    },
    {
      "channel": 0,
      "note": 69,
      "start": 66.1683,
      "duration": 0.3561,
      "velocity": 98,
      "chip": "ym2612"
    },
    {
      "channel": 5,
      "note": 93,
      "start": 66.2461,
      "duration": 0.5571,
      "velocity": 111,
      "chip": "ym2612"
    },
    {
      "channel": 1,
      "note": 71,
      "start": 66.3387,
      "duration": 0.3715,
      "velocity": 98,
      "chip": "ym2612"
    },
    {
      "channel": 0,
      "note": 73,
      "start": 66.5245,
      "duration": 0.3713,
      "velocity": 98,
      "chip": "ym2612"
    },
    {
      "channel": 4,
      "note": 92,
      "start": 66.525,
      "duration": 0.186,
      "velocity": 111,
      "chip": "ym2612"
    },
    {
      "channel": 1,
      "note": 74,
      "start": 66.7103,
      "duration": 0.371,
      "velocity": 98,
      "chip": "ym2612"
    },
    {
      "channel": 2,
      "note": 62,
      "start": 66.7105,
      "duration": 0.1234,
      "velocity": 95,
      "chip": "ym2612"
    },
    {
      "channel": 3,
      "note": 69,
      "start": 66.7108,
      "duration": 0.1234,
      "velocity": 95,
      "chip": "ym2612"
    },
    {
      "channel": 4,
      "note": 93,
      "start": 66.711,
      "duration": 0.371,
      "velocity": 111,
      "chip": "ym2612"
    },
    {
      "channel": 5,
      "note": 92,
      "start": 66.8033,
      "duration": 0.1856,
      "velocity": 111,
      "chip": "ym2612"
    },
    {
      "channel": 0,
      "note": 76,
      "start": 66.8958,
      "duration": 0.3709,
      "velocity": 98,
      "chip": "ym2612"
    },
    {
      "channel": 5,
      "note": 93,
      "start": 66.9889,
      "duration": 0.3709,
      "velocity": 111,
      "chip": "ym2612"
    },
    {
      "channel": 1,
      "note": 68,
      "start": 67.0813,
      "duration": 0.3556,
      "velocity": 98,
      "chip": "ym2612"
    },
    {
      "channel": 2,
      "note": 62,
      "start": 67.0816,
      "duration": 0.6335,
      "velocity": 95,
      "chip": "ym2612"
    },
    {
      "channel": 3,
      "note": 69,
      "start": 67.0819,
      "duration": 0.6334,
      "velocity": 95,
      "chip": "ym2612"
    },
    {
      "channel": 4,
      "note": 92,
      "start": 67.0822,
      "duration": 0.5408,
      "velocity": 111,
      "chip": "ym2612"
    },
    {
      "channel": 0,
      "note": 71,
      "start": 67.2668,
      "duration": 0.3556,
      "velocity": 98,
      "chip": "ym2612"
    },
    {
      "channel": 5,
      "note": 92,
      "start": 67.3599,
      "duration": 0.5412,
      "velocity": 111,
      "chip": "ym2612"
    },
    {
      "channel": 1,
      "note": 73,
      "start": 67.437,
      "duration": 0.3709,
      "velocity": 98,
      "chip": "ym2612"
    },
    {
      "channel": 0,
      "note": 74,
      "start": 67.6224,
      "duration": 0.3711,
      "velocity": 98,
      "chip": "ym2612"
    },
    {
      "channel": 4,
      "note": 90,
      "start": 67.6229,
      "duration": 0.1856,
      "velocity": 111,
      "chip": "ym2612"
    },
    {
      "channel": 1,
      "note": 78,
      "start": 67.8079,
      "duration": 0.3713,
      "velocity": 98,
      "chip": "ym2612"
    },
    {
      "channel": 2,
      "note": 62,
      "start": 67.8082,
      "duration": 0.1237,
      "velocity": 95,
      "chip": "ym2612"
    },
    {
      "channel": 3,
      "note": 69,
      "start": 67.8085,
      "duration": 0.1235,
      "velocity": 95,
      "chip": "ym2612"
    },
    {
      "channel": 4,
      "note": 88,
      "start": 67.8087,
      "duration": 0.3713,
      "velocity": 111,
      "chip": "ym2612"
    },
    {
      "channel": 5,
      "note": 90,
      "start": 67.901,
      "duration": 0.1857,
      "velocity": 111,
      "chip": "ym2612"
    },
    {
      "channel": 5,
      "note": 88,
      "start": 68.0868,
      "duration": 0.371,
      "velocity": 111,
      "chip": "ym2612"
    },
    {
      "channel": 1,
      "note": 62,
      "start": 68.1793,
      "duration": 0.371,
      "velocity": 98,
      "chip": "ym2612"
    },
    {
      "channel": 2,
      "note": 59,
      "start": 68.1796,
      "duration": 0.6338,
      "velocity": 95,
      "chip": "ym2612"
    },
    {
      "channel": 3,
      "note": 66,
      "start": 68.1799,
      "duration": 0.6337,
      "velocity": 95,
      "chip": "ym2612"
    },
    {
      "channel": 4,
      "note": 90,
      "start": 68.1801,
      "duration": 1.6392,
      "velocity": 111,
      "chip": "ym2612"
    },
    {
      "channel": 0,
      "note": 69,
      "start": 68.3649,
      "duration": 0.3554,
      "velocity": 98,
      "chip": "ym2612"
    },
    {
      "channel": 5,
      "note": 90,
      "start": 68.4579,
      "duration": 1.6399,
      "velocity": 111,
      "chip": "ym2612"
    },
    {
      "channel": 1,
      "note": 71,
      "start": 68.5503,
      "duration": 0.3559,
      "velocity": 98,
      "chip": "ym2612"
    },
    {
      "channel": 0,
      "note": 73,
      "start": 68.7205,
      "duration": 0.3712,
      "velocity": 98,
      "chip": "ym2612"
    },
    {
      "channel": 1,
      "note": 74,
      "start": 68.9062,
      "duration": 0.3711,
      "velocity": 98,
      "chip": "ym2612"
    },
    {
      "channel": 2,
      "note": 59,
      "start": 68.9066,
      "duration": 0.1233,
      "velocity": 95,
      "chip": "ym2612"
    },
    {
      "channel": 3,
      "note": 66,
      "start": 68.9068,
      "duration": 0.1231,
      "velocity": 95,
      "chip": "ym2612"
    },
    {
      "channel": 0,
      "note": 76,
      "start": 69.0917,
      "duration": 0.3712,
      "velocity": 98,
      "chip": "ym2612"
    },
    {
      "channel": 1,
      "note": 67,
      "start": 69.2773,
      "duration": 0.3715,
      "velocity": 98,
      "chip": "ym2612"
    },
    {
      "channel": 2,
      "note": 59,
      "start": 69.2776,
      "duration": 0.6343,
      "velocity": 95,
      "chip": "ym2612"
    },
    {
      "channel": 3,
      "note": 66,
      "start": 69.278,
      "duration": 0.6341,
      "velocity": 95,
      "chip": "ym2612"
    },
    {
      "channel": 0,
      "note": 71,
      "start": 69.4629,
      "duration": 0.356,
      "velocity": 98,
      "chip": "ym2612"
    },
    {
      "channel": 1,
      "note": 78,
      "start": 69.6488,
      "duration": 0.7269,
      "velocity": 98,
      "chip": "ym2612"
    },
    {
      "channel": 0,
      "note": 74,
      "start": 70.0046,
      "duration": 0.3709,
      "velocity": 98,
      "chip": "ym2612"
    },
    {
      "channel": 2,
      "note": 59,
      "start": 70.0051,
      "duration": 0.1232,
      "velocity": 95,
      "chip": "ym2612"
    },
    {
      "channel": 3,
      "note": 66,
      "start": 70.0054,
      "duration": 0.1229,
      "velocity": 95,
      "chip": "ym2612"
    },
    {
      "channel": 4,
      "note": 90,
      "start": 70.0056,
      "duration": 0.371,
      "velocity": 111,
      "chip": "ym2612"
    },
    {
      "channel": 5,
      "note": 90,
      "start": 70.2832,
      "duration": 0.3713,
      "velocity": 111,
      "chip": "ym2612"
    },
    {
      "channel": 1,
      "note": 62,
      "start": 70.3758,
      "duration": 0.371,
      "velocity": 98,
      "chip": "ym2612"
    },
    {
      "channel": 2,
      "note": 62,
      "start": 70.3761,
      "duration": 0.6333,
      "velocity": 95,
      "chip": "ym2612"
    },
    {
      "channel": 3,
      "note": 69,
      "start": 70.3764,
      "duration": 0.6332,
      "velocity": 95,
      "chip": "ym2612"
    },
    {
      "channel": 4,
      "note": 93,
      "start": 70.3767,
      "duration": 0.7266,
      "velocity": 111,
      "chip": "ym2612"
    },
    {
      "channel": 0,
      "note": 69,
      "start": 70.5612,
      "duration": 0.3555,
      "velocity": 98,
      "chip": "ym2612"
    },
    {
      "channel": 5,
      "note": 93,
      "start": 70.6544,
      "duration": 0.7269,
      "velocity": 111,
      "chip": "ym2612"
    },
    {
      "channel": 1,
      "note": 71,
      "start": 70.7468,
      "duration": 0.3556,
      "velocity": 98,
      "chip": "ym2612"
    },
    {
      "channel": 0,
      "note": 73,
      "start": 70.9168,
      "duration": 0.3711,
      "velocity": 98,
      "chip": "ym2612"
    },
    {
      "channel": 1,
      "note": 74,
      "start": 71.1024,
      "duration": 0.3715,
      "velocity": 98,
      "chip": "ym2612"
    },
    {
      "channel": 2,
      "note": 62,
      "start": 71.1027,
      "duration": 0.1236,
      "velocity": 95,
      "chip": "ym2612"
    },
    {
      "channel": 3,
      "note": 69,
      "start": 71.1031,
      "duration": 0.1233,
      "velocity": 95,
      "chip": "ym2612"
    },
    {
      "channel": 4,
      "note": 90,
      "start": 71.1033,
      "duration": 0.3714,
      "velocity": 111,
      "chip": "ym2612"
    },
    {
      "channel": 0,
      "note": 76,
      "start": 71.288,
      "duration": 0.3715,
      "velocity": 98,
      "chip": "ym2612"
    },
    {
      "channel": 5,
      "note": 90,
      "start": 71.3813,
      "duration": 0.3715,
      "velocity": 111,
      "chip": "ym2612"
    },
    {
      "channel": 1,
      "note": 67,
      "start": 71.4739,
      "duration": 0.3713,
      "velocity": 98,
      "chip": "ym2612"
    },
    {
      "channel": 2,
      "note": 62,
      "start": 71.4743,
      "duration": 0.6339,
      "velocity": 95,
      "chip": "ym2612"
    },
    {
      "channel": 3,
      "note": 69,
      "start": 71.4745,
      "duration": 0.6338,
      "velocity": 95,
      "chip": "ym2612"
    },
    {
      "channel": 4,
      "note": 88,
      "start": 71.4748,
      "duration": 0.5566,
      "velocity": 111,
      "chip": "ym2612"
    },
    {
      "channel": 0,
      "note": 71,
      "start": 71.6597,
      "duration": 0.3709,
      "velocity": 98,
      "chip": "ym2612"
    },
    {
      "channel": 5,
      "note": 88,
      "start": 71.7528,
      "duration": 0.5413,
      "velocity": 111,
      "chip": "ym2612"
    },
    {
      "channel": 1,
      "note": 73,
      "start": 71.8453,
      "duration": 0.3557,
      "velocity": 98,
      "chip": "ym2612"
    },
    {
      "channel": 0,
      "note": 74,
      "start": 72.0307,
      "duration": 0.3561,
      "velocity": 98,
      "chip": "ym2612"
    },
    {
      "channel": 1,
      "note": 78,
      "start": 72.201,
      "duration": 0.3716,
      "velocity": 98,
      "chip": "ym2612"
    },
    {
      "channel": 2,
      "note": 62,
      "start": 72.2013,
      "duration": 0.1236,
      "velocity": 95,
      "chip": "ym2612"
    },
    {
      "channel": 3,
      "note": 69,
      "start": 72.2017,
      "duration": 0.1234,
      "velocity": 95,
      "chip": "ym2612"
    },
    {
      "channel": 4,
      "note": 86,
      "start": 72.202,
      "duration": 0.3714,
      "velocity": 111,
      "chip": "ym2612"
    },
    {
      "channel": 5,
      "note": 86,
      "start": 72.4799,
      "duration": 0.3712,
      "velocity": 111,
      "chip": "ym2612"
    },
    {
      "channel": 1,
      "note": 62,
      "start": 72.5727,
      "duration": 0.3709,
      "velocity": 98,
      "chip": "ym2612"
    },
    {
      "channel": 2,
      "note": 59,
      "start": 72.5729,
      "duration": 0.6335,
      "velocity": 95,
      "chip": "ym2612"
    },
    {
      "channel": 3,
      "note": 66,
      "start": 72.5732,
      "duration": 0.6335,
      "velocity": 95,
      "chip": "ym2612"
    },
    {
      "channel": 4,
      "note": 90,
      "start": 72.5734,
      "duration": 0.7267,
      "velocity": 111,
      "chip": "ym2612"
    },
    {
      "channel": 0,
      "note": 69,
      "start": 72.758,
      "duration": 0.371,
      "velocity": 98,
      "chip": "ym2612"
    },
    {
      "channel": 5,
      "note": 90,
      "start": 72.8512,
      "duration": 0.7267,
      "velocity": 111,
      "chip": "ym2612"
    },
    {
      "channel": 1,
      "note": 71,
      "start": 72.9436,
      "duration": 0.3556,
      "velocity": 98,
      "chip": "ym2612"
    },
    {
      "channel": 0,
      "note": 73,
      "start": 73.1291,
      "duration": 0.3558,
      "velocity": 98,
      "chip": "ym2612"
    },
    {
      "channel": 1,
      "note": 74,
      "start": 73.2993,
      "duration": 0.371,
      "velocity": 98,
      "chip": "ym2612"
    },
    {
      "channel": 2,
      "note": 59,
      "start": 73.2997,
      "duration": 0.1233,
      "velocity": 95,
      "chip": "ym2612"
    },
    {
      "channel": 3,
      "note": 66,
      "start": 73.3,
      "duration": 0.1231,
      "velocity": 95,
      "chip": "ym2612"
    },
    {
      "channel": 4,
      "note": 86,
      "start": 73.3002,
      "duration": 0.371,
      "velocity": 111,
      "chip": "ym2612"
    },
    {
      "channel": 0,
      "note": 76,
      "start": 73.4849,
      "duration": 0.371,
      "velocity": 98,
      "chip": "ym2612"
    },
    {
      "channel": 5,
      "note": 86,
      "start": 73.5779,
      "duration": 0.3711,
      "velocity": 111,
      "chip": "ym2612"
    },
    {
      "channel": 1,
      "note": 67,
      "start": 73.6705,
      "duration": 0.371,
      "velocity": 98,
      "chip": "ym2612"
    },
    {
      "channel": 2,
      "note": 59,
      "start": 73.6707,
      "duration": 0.6494,
      "velocity": 95,
      "chip": "ym2612"
    },
    {
      "channel": 3,
      "note": 66,
      "start": 73.6709,
      "duration": 0.6493,
      "velocity": 95,
      "chip": "ym2612"
    },
    {
      "channel": 4,
      "note": 83,
      "start": 73.6712,
      "duration": 0.5566,
      "velocity": 111,
      "chip": "ym2612"
    },
    {
      "channel": 0,
      "note": 71,
      "start": 73.8559,
      "duration": 0.3712,
      "velocity": 98,
      "chip": "ym2612"
    },
    {
      "channel": 5,
      "note": 83,
      "start": 73.949,
      "duration": 0.5413,
      "velocity": 111,
      "chip": "ym2612"
    },
    {
      "channel": 1,
      "note": 78,
      "start": 74.0415,
      "duration": 0.7273,
      "velocity": 98,
      "chip": "ym2612"
    },
    {
      "channel": 0,
      "note": 74,
      "start": 74.3972,
      "duration": 0.3713,
      "velocity": 98,
      "chip": "ym2612"
    },
    {
      "channel": 2,
      "note": 59,
      "start": 74.3976,
      "duration": 0.1234,
      "velocity": 95,
      "chip": "ym2612"
    },
    {
      "channel": 3,
      "note": 66,
      "start": 74.3979,
      "duration": 0.1232,
      "velocity": 95,
      "chip": "ym2612"
    },
    {
      "channel": 4,
      "note": 90,
      "start": 74.3981,
      "duration": 0.3713,
      "velocity": 111,
      "chip": "ym2612"
    },
    {
      "channel": 5,
      "note": 90,
      "start": 74.6761,
      "duration": 0.3708,
      "velocity": 111,
      "chip": "ym2612"
    },
    {
      "channel": 1,
      "note": 62,
      "start": 74.7688,
      "duration": 0.3707,
      "velocity": 98,
      "chip": "ym2612"
    },
    {
      "channel": 2,
      "note": 62,
      "start": 74.769,
      "duration": 0.6486,
      "velocity": 95,
      "chip": "ym2612"
    },
    {
      "channel": 3,
      "note": 69,
      "start": 74.7693,
      "duration": 0.6486,
      "velocity": 95,
      "chip": "ym2612"
    },
    {
      "channel": 4,
      "note": 93,
      "start": 74.7695,
      "duration": 0.5559,
      "velocity": 111,
      "chip": "ym2612"
    },
    {
      "channel": 0,
      "note": 69,
      "start": 74.9539,
      "duration": 0.3708,
      "velocity": 98,
      "chip": "ym2612"
    },
    {
      "channel": 5,
      "note": 93,
      "start": 75.0469,
      "duration": 0.541,
      "velocity": 111,
      "chip": "ym2612"
    },
    {
      "channel": 1,
      "note": 71,
      "start": 75.1395,
      "duration": 0.3708,
      "velocity": 98,
      "chip": "ym2612"
    },
    {
      "channel": 0,
      "note": 73,
      "start": 75.3248,
      "duration": 0.3555,
      "velocity": 98,
      "chip": "ym2612"
    },
    {
      "channel": 4,
      "note": 92,
      "start": 75.3254,
      "duration": 0.1857,
      "velocity": 111,
      "chip": "ym2612"
    },
    {
      "channel": 1,
      "note": 74,
      "start": 75.5103,
      "duration": 0.3558,
      "velocity": 98,
      "chip": "ym2612"
    },
    {
      "channel": 2,
      "note": 62,
      "start": 75.5106,
      "duration": 0.1081,
      "velocity": 95,
      "chip": "ym2612"
    },
    {
      "channel": 3,
      "note": 69,
      "start": 75.5109,
      "duration": 0.1079,
      "velocity": 95,
      "chip": "ym2612"
    },
    {
      "channel": 4,
      "note": 93,
      "start": 75.5111,
      "duration": 0.3556,
      "velocity": 111,
      "chip": "ym2612"
    },
    {
      "channel": 5,
      "note": 92,
      "start": 75.588,
      "duration": 0.1854,
      "velocity": 111,
      "chip": "ym2612"
    },
    {
      "channel": 0,
      "note": 76,
      "start": 75.6804,
      "duration": 0.3714,
      "velocity": 98,
      "chip": "ym2612"
    },
    {
      "channel": 5,
      "note": 93,
      "start": 75.7734,
      "duration": 0.3716,
      "velocity": 111,
      "chip": "ym2612"
    },
    {
      "channel": 1,
      "note": 68,
      "start": 75.8661,
      "duration": 0.3713,
      "velocity": 98,
      "chip": "ym2612"
    },
    {
      "channel": 2,
      "note": 62,
      "start": 75.8663,
      "duration": 0.6496,
      "velocity": 95,
      "chip": "ym2612"
    },
    {
      "channel": 3,
      "note": 69,
      "start": 75.8665,
      "duration": 0.6495,
      "velocity": 95,
      "chip": "ym2612"
    },
    {
      "channel": 4,
      "note": 95,
      "start": 75.8668,
      "duration": 0.5569,
      "velocity": 111,
      "chip": "ym2612"
    },
    {
      "channel": 0,
      "note": 71,
      "start": 76.0519,
      "duration": 0.3712,
      "velocity": 98,
      "chip": "ym2612"
    },
    {
      "channel": 5,
      "note": 95,
      "start": 76.145,
      "duration": 0.5412,
      "velocity": 111,
      "chip": "ym2612"
    },
    {
      "channel": 1,
      "note": 73,
      "start": 76.2374,
      "duration": 0.3711,
      "velocity": 98,
      "chip": "ym2612"
    },
    {
      "channel": 0,
      "note": 74,
      "start": 76.4231,
      "duration": 0.3556,
      "velocity": 98,
      "chip": "ym2612"
    },
    {
      "channel": 4,
      "note": 93,
      "start": 76.4237,
      "duration": 0.1857,
      "velocity": 111,
      "chip": "ym2612"
    },
    {
      "channel": 1,
      "note": 78,
      "start": 76.6085,
      "duration": 0.356,
      "velocity": 98,
      "chip": "ym2612"
    },
    {
      "channel": 2,
      "note": 62,
      "start": 76.6088,
      "duration": 0.108,
      "velocity": 95,
      "chip": "ym2612"
    },
    {
      "channel": 3,
      "note": 69,
      "start": 76.6092,
      "duration": 0.1079,
      "velocity": 95,
      "chip": "ym2612"
    },
    {
      "channel": 4,
      "note": 92,
      "start": 76.6094,
      "duration": 0.3559,
      "velocity": 111,
      "chip": "ym2612"
    },
    {
      "channel": 5,
      "note": 93,
      "start": 76.6862,
      "duration": 0.1855,
      "velocity": 111,
      "chip": "ym2612"
    },
    {
      "channel": 5,
      "note": 92,
      "start": 76.8718,
      "duration": 0.3711,
      "velocity": 111,
      "chip": "ym2612"
    },
    {
      "channel": 1,
      "note": 62,
      "start": 76.9646,
      "duration": 0.3709,
      "velocity": 98,
      "chip": "ym2612"
    },
    {
      "channel": 2,
      "note": 59,
      "start": 76.9648,
      "duration": 0.6495,
      "velocity": 95,
      "chip": "ym2612"
    },
    {
      "channel": 3,
      "note": 66,
      "start": 76.9651,
      "duration": 0.6495,
      "velocity": 95,
      "chip": "ym2612"
    },
    {
      "channel": 4,
      "note": 90,
      "start": 76.9653,
      "duration": 2.0254,
      "velocity": 111,
      "chip": "ym2612"
    },
    {
      "channel": 0,
      "note": 69,
      "start": 77.1498,
      "duration": 0.3716,
      "velocity": 98,
      "chip": "ym2612"
    },
    {
      "channel": 5,
      "note": 90,
      "start": 77.2429,
      "duration": 2.0107,
      "velocity": 111,
      "chip": "ym2612"
    },
    {
      "channel": 1,
      "note": 71,
      "start": 77.3355,
      "duration": 0.3713,
      "velocity": 98,
      "chip": "ym2612"
    },
    {
      "channel": 0,
      "note": 73,
      "start": 77.5215,
      "duration": 0.3552,
      "velocity": 98,
      "chip": "ym2612"
    },
    {
      "channel": 1,
      "note": 74,
      "start": 77.7068,
      "duration": 0.3554,
      "velocity": 98,
      "chip": "ym2612"
    },
    {
      "channel": 2,
      "note": 59,
      "start": 77.7071,
      "duration": 0.1232,
      "velocity": 95,
      "chip": "ym2612"
    },
    {
      "channel": 3,
      "note": 66,
      "start": 77.7073,
      "duration": 0.1231,
      "velocity": 95,
      "chip": "ym2612"
    },
    {
      "channel": 0,
      "note": 76,
      "start": 77.8769,
      "duration": 0.371,
      "velocity": 98,
      "chip": "ym2612"
    },
    {
      "channel": 1,
      "note": 67,
      "start": 78.0623,
      "duration": 0.3712,
      "velocity": 98,
      "chip": "ym2612"
    },
    {
      "channel": 2,
      "note": 59,
      "start": 78.0625,
      "duration": 0.6495,
      "velocity": 95,
      "chip": "ym2612"
    },
    {
      "channel": 3,
      "note": 66,
      "start": 78.0628,
      "duration": 0.6494,
      "velocity": 95,
      "chip": "ym2612"
    },
    {
      "channel": 0,
      "note": 71,
      "start": 78.248,
      "duration": 0.3711,
      "velocity": 98,
      "chip": "ym2612"
    },
    {
      "channel": 1,
      "note": 78,
      "start": 78.4335,
      "duration": 0.7297,
      "velocity": 1,
      "chip": "ym2612"
    },
    {
      "channel": 0,
      "note": 74,
      "start": 78.8045,
      "duration": 0.3564,
      "velocity": 1,
      "chip": "ym2612"
    },
    {
      "channel": 2,
      "note": 59,
      "start": 78.805,
      "duration": 0.1232,
      "velocity": 95,
      "chip": "ym2612"
    },
    {
      "channel": 3,
      "note": 66,
      "start": 78.8052,
      "duration": 0.1231,
      "velocity": 95,
      "chip": "ym2612"
    },
    {
      "channel": 0,
      "note": 69,
      "start": 79.1627,
      "duration": 0.5546,
      "velocity": 100,
      "chip": "ym2612"
    },
    {
      "channel": 1,
      "note": 61,
      "start": 79.1647,
      "duration": 0.5528,
      "velocity": 100,
      "chip": "ym2612"
    },
    {
      "channel": 3,
      "note": 59,
      "start": 79.1651,
      "duration": 0.4598,
      "velocity": 95,
      "chip": "ym2612"
    },
    {
      "channel": 4,
      "note": 98,
      "start": 79.1654,
      "duration": 0.7382,
      "velocity": 111,
      "chip": "ym2612"
    },
    {
      "channel": 2,
      "note": 59,
      "start": 79.1914,
      "duration": 0.4646,
      "velocity": 95,
      "chip": "ym2612"
    },
    {
      "channel": 5,
      "note": 98,
      "start": 79.4397,
      "duration": 0.727,
      "velocity": 111,
      "chip": "ym2612"
    },
    {
      "channel": 0,
      "note": 69,
      "start": 79.7174,
      "duration": 0.1856,
      "velocity": 100,
      "chip": "ym2612"
    },
    {
      "channel": 1,
      "note": 61,
      "start": 79.7176,
      "duration": 0.1856,
      "velocity": 100,
      "chip": "ym2612"
    },
    {
      "channel": 3,
      "note": 59,
      "start": 79.7178,
      "duration": 0.1856,
      "velocity": 95,
      "chip": "ym2612"
    },
    {
      "channel": 2,
      "note": 59,
      "start": 79.7484,
      "duration": 0.1857,
      "velocity": 95,
      "chip": "ym2612"
    },
    {
      "channel": 0,
      "note": 69,
      "start": 79.9031,
      "duration": 0.3558,
      "velocity": 100,
      "chip": "ym2612"
    },
    {
      "channel": 1,
      "note": 61,
      "start": 79.9032,
      "duration": 0.356,
      "velocity": 100,
      "chip": "ym2612"
    },
    {
      "channel": 3,
      "note": 59,
      "start": 79.9034,
      "duration": 0.263,
      "velocity": 95,
      "chip": "ym2612"
    },
    {
      "channel": 4,
      "note": 98,
      "start": 79.9037,
      "duration": 0.3561,
      "velocity": 111,
      "chip": "ym2612"
    },
    {
      "channel": 2,
      "note": 59,
      "start": 79.9342,
      "duration": 0.2632,
      "velocity": 95,
      "chip": "ym2612"
    },
    {
      "channel": 5,
      "note": 98,
      "start": 80.1668,
      "duration": 0.3713,
      "velocity": 111,
      "chip": "ym2612"
    },
    {
      "channel": 0,
      "note": 69,
      "start": 80.2589,
      "duration": 0.5573,
      "velocity": 100,
      "chip": "ym2612"
    },
    {
      "channel": 1,
      "note": 59,
      "start": 80.2592,
      "duration": 0.5572,
      "velocity": 100,
      "chip": "ym2612"
    },
    {
      "channel": 3,
      "note": 59,
      "start": 80.2597,
      "duration": 0.464,
      "velocity": 95,
      "chip": "ym2612"
    },
    {
      "channel": 4,
      "note": 97,
      "start": 80.2599,
      "duration": 0.5571,
      "velocity": 111,
      "chip": "ym2612"
    },
    {
      "channel": 2,
      "note": 59,
      "start": 80.29,
      "duration": 0.4644,
      "velocity": 95,
      "chip": "ym2612"
    },
    {
      "channel": 5,
      "note": 97,
      "start": 80.5381,
      "duration": 0.5569,
      "velocity": 111,
      "chip": "ym2612"
    },
    {
      "channel": 0,
      "note": 69,
      "start": 80.8163,
      "duration": 0.1854,
      "velocity": 100,
      "chip": "ym2612"
    },
    {
      "channel": 1,
      "note": 59,
      "start": 80.8165,
      "duration": 0.1854,
      "velocity": 100,
      "chip": "ym2612"
    },
    {
      "channel": 3,
      "note": 59,
      "start": 80.8168,
      "duration": 0.1854,
      "velocity": 95,
      "chip": "ym2612"
    },
    {
      "channel": 4,
      "note": 95,
      "start": 80.8171,
      "duration": 0.1854,
      "velocity": 111,
      "chip": "ym2612"
    },
    {
      "channel": 2,
      "note": 59,
      "start": 80.8473,
      "duration": 0.1856,
      "velocity": 95,
      "chip": "ym2612"
    },
    {
      "channel": 0,
      "note": 69,
      "start": 81.0018,
      "duration": 0.3561,
      "velocity": 100,
      "chip": "ym2612"
    },
    {
      "channel": 1,
      "note": 59,
      "start": 81.0019,
      "duration": 0.3562,
      "velocity": 100,
      "chip": "ym2612"
    },
    {
      "channel": 3,
      "note": 59,
      "start": 81.0022,
      "duration": 0.2783,
      "velocity": 95,
      "chip": "ym2612"
    },
    {
      "channel": 4,
      "note": 93,
      "start": 81.0025,
      "duration": 0.2781,
      "velocity": 111,
      "chip": "ym2612"
    },
    {
      "channel": 2,
      "note": 59,
      "start": 81.0329,
      "duration": 0.2788,
      "velocity": 95,
      "chip": "ym2612"
    },
    {
      "channel": 5,
      "note": 95,
      "start": 81.0951,
      "duration": 0.1859,
      "velocity": 111,
      "chip": "ym2612"
    },
    {
      "channel": 5,
      "note": 93,
      "start": 81.2809,
      "duration": 0.263,
      "velocity": 111,
      "chip": "ym2612"
    },
    {
      "channel": 0,
      "note": 67,
      "start": 81.3579,
      "duration": 0.5569,
      "velocity": 100,
      "chip": "ym2612"
    },
    {
      "channel": 1,
      "note": 57,
      "start": 81.3582,
      "duration": 0.5568,
      "velocity": 100,
      "chip": "ym2612"
    },
    {
      "channel": 3,
      "note": 59,
      "start": 81.3586,
      "duration": 0.4638,
      "velocity": 95,
      "chip": "ym2612"
    },
    {
      "channel": 4,
      "note": 95,
      "start": 81.3589,
      "duration": 0.371,
      "velocity": 111,
      "chip": "ym2612"
    },
    {
      "channel": 2,
      "note": 59,
      "start": 81.3889,
      "duration": 0.4646,
      "velocity": 95,
      "chip": "ym2612"
    },
    {
      "channel": 5,
      "note": 95,
      "start": 81.6368,
      "duration": 0.3712,
      "velocity": 111,
      "chip": "ym2612"
    },
    {
      "channel": 4,
      "note": 97,
      "start": 81.7298,
      "duration": 0.3713,
      "velocity": 111,
      "chip": "ym2612"
    },
    {
      "channel": 0,
      "note": 67,
      "start": 81.9149,
      "duration": 0.1854,
      "velocity": 100,
      "chip": "ym2612"
    },
    {
      "channel": 1,
      "note": 57,
      "start": 81.9151,
      "duration": 0.1855,
      "velocity": 100,
      "chip": "ym2612"
    },
    {
      "channel": 3,
      "note": 59,
      "start": 81.9153,
      "duration": 0.1855,
      "velocity": 95,
      "chip": "ym2612"
    },
    {
      "channel": 2,
      "note": 59,
      "start": 81.9459,
      "duration": 0.1854,
      "velocity": 95,
      "chip": "ym2612"
    },
    {
      "channel": 5,
      "note": 97,
      "start": 82.008,
      "duration": 0.3714,
      "velocity": 111,
      "chip": "ym2612"
    },
    {
      "channel": 0,
      "note": 67,
      "start": 82.1005,
      "duration": 0.3712,
      "velocity": 100,
      "chip": "ym2612"
    },
    {
      "channel": 1,
      "note": 57,
      "start": 82.1006,
      "duration": 0.3714,
      "velocity": 100,
      "chip": "ym2612"
    },
    {
      "channel": 3,
      "note": 59,
      "start": 82.1009,
      "duration": 0.2783,
      "velocity": 95,
      "chip": "ym2612"
    },
    {
      "channel": 4,
      "note": 98,
      "start": 82.1012,
      "duration": 0.3714,
      "velocity": 111,
      "chip": "ym2612"
    },
    {
      "channel": 2,
      "note": 59,
      "start": 82.1314,
      "duration": 0.2786,
      "velocity": 95,
      "chip": "ym2612"
    },
    {
      "channel": 5,
      "note": 98,
      "start": 82.3795,
      "duration": 0.3556,
      "velocity": 111,
      "chip": "ym2612"
    },
    {
      "channel": 0,
      "note": 69,
      "start": 82.4717,
      "duration": 0.5413,
      "velocity": 100,
      "chip": "ym2612"
    },
    {
      "channel": 1,
      "note": 59,
      "start": 82.472,
      "duration": 0.5412,
      "velocity": 100,
      "chip": "ym2612"
    },
    {
      "channel": 3,
      "note": 59,
      "start": 82.4724,
      "duration": 0.4483,
      "velocity": 95,
      "chip": "ym2612"
    },
    {
      "channel": 4,
      "note": 97,
      "start": 82.4726,
      "duration": 0.0457,
      "velocity": 111,
      "chip": "ym2612"
    },
    {
      "channel": 2,
      "note": 59,
      "start": 82.4871,
      "duration": 0.4645,
      "velocity": 95,
      "chip": "ym2612"
    },
    {
      "channel": 4,
      "note": 98,
      "start": 82.5184,
      "duration": 0.0617,
      "velocity": 111,
      "chip": "ym2612"
    },
    {
      "channel": 4,
      "note": 97,
      "start": 82.5802,
      "duration": 0.4335,
      "velocity": 111,
      "chip": "ym2612"
    },
    {
      "channel": 5,
      "note": 97,
      "start": 82.7351,
      "duration": 0.0624,
      "velocity": 111,
      "chip": "ym2612"
    },
    {
      "channel": 5,
      "note": 98,
      "start": 82.7976,
      "duration": 0.0615,
      "velocity": 111,
      "chip": "ym2612"
    },
    {
      "channel": 5,
      "note": 97,
      "start": 82.8591,
      "duration": 0.4328,
      "velocity": 111,
      "chip": "ym2612"
    },
    {
      "channel": 0,
      "note": 69,
      "start": 83.0131,
      "duration": 0.1855,
      "velocity": 100,
      "chip": "ym2612"
    },
    {
      "channel": 1,
      "note": 59,
      "start": 83.0133,
      "duration": 0.1855,
      "velocity": 100,
      "chip": "ym2612"
    },
    {
      "channel": 3,
      "note": 59,
      "start": 83.0135,
      "duration": 0.1855,
      "velocity": 95,
      "chip": "ym2612"
    },
    {
      "channel": 4,
      "note": 95,
      "start": 83.0137,
      "duration": 0.1855,
      "velocity": 111,
      "chip": "ym2612"
    },
    {
      "channel": 2,
      "note": 59,
      "start": 83.0442,
      "duration": 0.1854,
      "velocity": 95,
      "chip": "ym2612"
    },
    {
      "channel": 0,
      "note": 69,
      "start": 83.1987,
      "duration": 0.3715,
      "velocity": 100,
      "chip": "ym2612"
    },
    {
      "channel": 1,
      "note": 59,
      "start": 83.1988,
      "duration": 0.3716,
      "velocity": 100,
      "chip": "ym2612"
    },
    {
      "channel": 3,
      "note": 59,
      "start": 83.199,
      "duration": 0.2785,
      "velocity": 95,
      "chip": "ym2612"
    },
    {
      "channel": 4,
      "note": 93,
      "start": 83.1993,
      "duration": 0.2783,
      "velocity": 111,
      "chip": "ym2612"
    },
    {
      "channel": 2,
      "note": 59,
      "start": 83.2297,
      "duration": 0.2788,
      "velocity": 95,
      "chip": "ym2612"
    },
    {
      "channel": 5,
      "note": 95,
      "start": 83.292,
      "duration": 0.1859,
      "velocity": 111,
      "chip": "ym2612"
    },
    {
      "channel": 5,
      "note": 93,
      "start": 83.4779,
      "duration": 0.2629,
      "velocity": 111,
      "chip": "ym2612"
    },
    {
      "channel": 0,
      "note": 71,
      "start": 83.5702,
      "duration": 0.5418,
      "velocity": 100,
      "chip": "ym2612"
    },
    {
      "channel": 1,
      "note": 61,
      "start": 83.5705,
      "duration": 0.5418,
      "velocity": 100,
      "chip": "ym2612"
    },
    {
      "channel": 3,
      "note": 59,
      "start": 83.5708,
      "duration": 0.4487,
      "velocity": 95,
      "chip": "ym2612"
    },
    {
      "channel": 4,
      "note": 98,
      "start": 83.5711,
      "duration": 0.727,
      "velocity": 111,
      "chip": "ym2612"
    },
    {
      "channel": 2,
      "note": 59,
      "start": 83.6012,
      "duration": 0.4491,
      "velocity": 95,
      "chip": "ym2612"
    },
    {
      "channel": 5,
      "note": 98,
      "start": 83.8338,
      "duration": 0.7428,
      "velocity": 111,
      "chip": "ym2612"
    },
    {
      "channel": 0,
      "note": 71,
      "start": 84.1121,
      "duration": 0.1854,
      "velocity": 100,
      "chip": "ym2612"
    },
    {
      "channel": 1,
      "note": 61,
      "start": 84.1123,
      "duration": 0.1854,
      "velocity": 100,
      "chip": "ym2612"
    },
    {
      "channel": 3,
      "note": 59,
      "start": 84.1125,
      "duration": 0.1854,
      "velocity": 95,
      "chip": "ym2612"
    },
    {
      "channel": 2,
      "note": 59,
      "start": 84.1431,
      "duration": 0.1856,
      "velocity": 95,
      "chip": "ym2612"
    },
    {
      "channel": 0,
      "note": 71,
      "start": 84.2976,
      "duration": 0.3712,
      "velocity": 100,
      "chip": "ym2612"
    },
    {
      "channel": 1,
      "note": 61,
      "start": 84.2977,
      "duration": 0.3713,
      "velocity": 100,
      "chip": "ym2612"
    },
    {
      "channel": 3,
      "note": 59,
      "start": 84.2979,
      "duration": 0.2784,
      "velocity": 95,
      "chip": "ym2612"
    },
    {
      "channel": 4,
      "note": 98,
      "start": 84.2982,
      "duration": 0.3715,
      "velocity": 111,
      "chip": "ym2612"
    },
    {
      "channel": 2,
      "note": 59,
      "start": 84.3287,
      "duration": 0.2788,
      "velocity": 95,
      "chip": "ym2612"
    },
    {
      "channel": 5,
      "note": 98,
      "start": 84.5766,
      "duration": 0.3557,
      "velocity": 111,
      "chip": "ym2612"
    },
    {
      "channel": 0,
      "note": 69,
      "start": 84.6689,
      "duration": 0.5416,
      "velocity": 100,
      "chip": "ym2612"
    },
    {
      "channel": 1,
      "note": 62,
      "start": 84.6691,
      "duration": 0.5416,
      "velocity": 100,
      "chip": "ym2612"
    },
    {
      "channel": 3,
      "note": 59,
      "start": 84.6695,
      "duration": 0.4485,
      "velocity": 95,
      "chip": "ym2612"
    },
    {
      "channel": 4,
      "note": 97,
      "start": 84.6697,
      "duration": 0.5415,
      "velocity": 111,
      "chip": "ym2612"
    },
    {
      "channel": 2,
      "note": 59,
      "start": 84.7,
      "duration": 0.4486,
      "velocity": 95,
      "chip": "ym2612"
    },
    {
      "channel": 5,
      "note": 97,
      "start": 84.9324,
      "duration": 0.5572,
      "velocity": 111,
      "chip": "ym2612"
    },
    {
      "channel": 0,
      "note": 69,
      "start": 85.2106,
      "duration": 0.1855,
      "velocity": 100,
      "chip": "ym2612"
    },
    {
      "channel": 1,
      "note": 62,
      "start": 85.2107,
      "duration": 0.1855,
      "velocity": 100,
      "chip": "ym2612"
    },
    {
      "channel": 3,
      "note": 59,
      "start": 85.2109,
      "duration": 0.1856,
      "velocity": 95,
      "chip": "ym2612"
    },
    {
      "channel": 4,
      "note": 95,
      "start": 85.2112,
      "duration": 0.1855,
      "velocity": 111,
      "chip": "ym2612"
    },
    {
      "channel": 2,
      "note": 59,
      "start": 85.2415,
      "duration": 0.1856,
      "velocity": 95,
      "chip": "ym2612"
    },
    {
      "channel": 0,
      "note": 69,
      "start": 85.3961,
      "duration": 0.3717,
      "velocity": 100,
      "chip": "ym2612"
    },
    {
      "channel": 1,
      "note": 62,
      "start": 85.3963,
      "duration": 0.3718,
      "velocity": 100,
      "chip": "ym2612"
    },
    {
      "channel": 3,
      "note": 59,
      "start": 85.3966,
      "duration": 0.2786,
      "velocity": 95,
      "chip": "ym2612"
    },
    {
      "channel": 4,
      "note": 93,
      "start": 85.3969,
      "duration": 0.2784,
      "velocity": 111,
      "chip": "ym2612"
    },
    {
      "channel": 2,
      "note": 59,
      "start": 85.4271,
      "duration": 0.2792,
      "velocity": 95,
      "chip": "ym2612"
    },
    {
      "channel": 5,
      "note": 95,
      "start": 85.4895,
      "duration": 0.1859,
      "velocity": 111,
      "chip": "ym2612"
    },
    {
      "channel": 5,
      "note": 93,
      "start": 85.6755,
      "duration": 0.2783,
      "velocity": 111,
      "chip": "ym2612"
    },
    {
      "channel": 0,
      "note": 68,
      "start": 85.7679,
      "duration": 0.5413,
      "velocity": 100,
      "chip": "ym2612"
    },
    {
      "channel": 1,
      "note": 59,
      "start": 85.7682,
      "duration": 0.5412,
      "velocity": 100,
      "chip": "ym2612"
    },
    {
      "channel": 3,
      "note": 59,
      "start": 85.7686,
      "duration": 0.4483,
      "velocity": 95,
      "chip": "ym2612"
    },
    {
      "channel": 4,
      "note": 95,
      "start": 85.7688,
      "duration": 0.7271,
      "velocity": 111,
      "chip": "ym2612"
    },
    {
      "channel": 2,
      "note": 59,
      "start": 85.799,
      "duration": 0.4488,
      "velocity": 95,
      "chip": "ym2612"
    },
    {
      "channel": 5,
      "note": 95,
      "start": 86.0313,
      "duration": 0.7431,
      "velocity": 111,
      "chip": "ym2612"
    },
    {
      "channel": 0,
      "note": 68,
      "start": 86.3093,
      "duration": 0.1857,
      "velocity": 100,
      "chip": "ym2612"
    },
    {
      "channel": 1,
      "note": 59,
      "start": 86.3095,
      "duration": 0.1859,
      "velocity": 100,
      "chip": "ym2612"
    },
    {
      "channel": 3,
      "note": 59,
      "start": 86.3097,
      "duration": 0.1858,
      "velocity": 95,
      "chip": "ym2612"
    },
    {
      "channel": 2,
      "note": 59,
      "start": 86.3405,
      "duration": 0.1857,
      "velocity": 95,
      "chip": "ym2612"
    },
    {
      "channel": 0,
      "note": 68,
      "start": 86.4952,
      "duration": 0.3715,
      "velocity": 100,
      "chip": "ym2612"
    },
    {
      "channel": 1,
      "note": 59,
      "start": 86.4954,
      "duration": 0.3716,
      "velocity": 100,
      "chip": "ym2612"
    },
    {
      "channel": 3,
      "note": 59,
      "start": 86.4956,
      "duration": 0.2785,
      "velocity": 95,
      "chip": "ym2612"
    },
    {
      "channel": 4,
      "note": 95,
      "start": 86.4959,
      "duration": 0.3717,
      "velocity": 111,
      "chip": "ym2612"
    },
    {
      "channel": 2,
      "note": 59,
      "start": 86.5262,
      "duration": 0.2787,
      "velocity": 95,
      "chip": "ym2612"
    },
    {
      "channel": 5,
      "note": 95,
      "start": 86.7744,
      "duration": 0.356,
      "velocity": 111,
      "chip": "ym2612"
    },
    {
      "channel": 0,
      "note": 68,
      "start": 86.8668,
      "duration": 0.5414,
      "velocity": 100,
      "chip": "ym2612"
    },
    {
      "channel": 1,
      "note": 59,
      "start": 86.8671,
      "duration": 0.5413,
      "velocity": 100,
      "chip": "ym2612"
    },
    {
      "channel": 3,
      "note": 59,
      "start": 86.8675,
      "duration": 0.4484,
      "velocity": 95,
      "chip": "ym2612"
    },
    {
      "channel": 4,
      "note": 95,
      "start": 86.8676,
      "duration": 1.0985,
      "velocity": 111,
      "chip": "ym2612"
    },
    {
      "channel": 2,
      "note": 59,
      "start": 86.8977,
      "duration": 0.4489,
      "velocity": 95,
      "chip": "ym2612"
    },
    {
      "channel": 5,
      "note": 95,
      "start": 87.1305,
      "duration": 1.1137,
      "velocity": 111,
      "chip": "ym2612"
    },
    {
      "channel": 0,
      "note": 68,
      "start": 87.4082,
      "duration": 0.1855,
      "velocity": 100,
      "chip": "ym2612"
    },
    {
      "channel": 1,
      "note": 59,
      "start": 87.4084,
      "duration": 0.1855,
      "velocity": 100,
      "chip": "ym2612"
    },
    {
      "channel": 3,
      "note": 59,
      "start": 87.4086,
      "duration": 0.1855,
      "velocity": 95,
      "chip": "ym2612"
    },
    {
      "channel": 2,
      "note": 59,
      "start": 87.4394,
      "duration": 0.1855,
      "velocity": 95,
      "chip": "ym2612"
    },
    {
      "channel": 0,
      "note": 68,
      "start": 87.5939,
      "duration": 0.3714,
      "velocity": 100,
      "chip": "ym2612"
    },
    {
      "channel": 1,
      "note": 59,
      "start": 87.594,
      "duration": 0.3715,
      "velocity": 100,
      "chip": "ym2612"
    },
    {
      "channel": 3,
      "note": 59,
      "start": 87.5942,
      "duration": 0.2786,
      "velocity": 95,
      "chip": "ym2612"
    },
    {
      "channel": 2,
      "note": 59,
      "start": 87.625,
      "duration": 0.2787,
      "velocity": 95,
      "chip": "ym2612"
    },
    {
      "channel": 0,
      "note": 69,
      "start": 87.9653,
      "duration": 0.5412,
      "velocity": 100,
      "chip": "ym2612"
    },
    {
      "channel": 1,
      "note": 61,
      "start": 87.9656,
      "duration": 0.5411,
      "velocity": 100,
      "chip": "ym2612"
    },
    {
      "channel": 3,
      "note": 59,
      "start": 87.966,
      "duration": 0.4482,
      "velocity": 95,
      "chip": "ym2612"
    },
    {
      "channel": 4,
      "note": 98,
      "start": 87.9662,
      "duration": 0.7264,
      "velocity": 111,
      "chip": "ym2612"
    },
    {
      "channel": 2,
      "note": 59,
      "start": 87.9963,
      "duration": 0.4484,
      "velocity": 95,
      "chip": "ym2612"
    },
    {
      "channel": 5,
      "note": 98,
      "start": 88.2443,
      "duration": 0.7269,
      "velocity": 111,
      "chip": "ym2612"
    },
    {
      "channel": 0,
      "note": 69,
      "start": 88.5066,
      "duration": 0.1853,
      "velocity": 100,
      "chip": "ym2612"
    },
    {
      "channel": 1,
      "note": 61,
      "start": 88.5068,
      "duration": 0.1854,
      "velocity": 100,
      "chip": "ym2612"
    },
    {
      "channel": 3,
      "note": 59,
      "start": 88.507,
      "duration": 0.1854,
      "velocity": 95,
      "chip": "ym2612"
    },
    {
      "channel": 2,
      "note": 59,
      "start": 88.5376,
      "duration": 0.1855,
      "velocity": 95,
      "chip": "ym2612"
    },
    {
      "channel": 0,
      "note": 69,
      "start": 88.692,
      "duration": 0.3715,
      "velocity": 100,
      "chip": "ym2612"
    },
    {
      "channel": 1,
      "note": 61,
      "start": 88.6922,
      "duration": 0.3716,
      "velocity": 100,
      "chip": "ym2612"
    },
    {
      "channel": 3,
      "note": 59,
      "start": 88.6924,
      "duration": 0.2784,
      "velocity": 95,
      "chip": "ym2612"
    },
    {
      "channel": 4,
      "note": 98,
      "start": 88.6927,
      "duration": 0.3717,
      "velocity": 111,
      "chip": "ym2612"
    },
    {
      "channel": 2,
      "note": 59,
      "start": 88.7231,
      "duration": 0.279,
      "velocity": 95,
      "chip": "ym2612"
    },
    {
      "channel": 5,
      "note": 98,
      "start": 88.9711,
      "duration": 0.3715,
      "velocity": 111,
      "chip": "ym2612"
    },
    {
      "channel": 0,
      "note": 69,
      "start": 89.0637,
      "duration": 0.5413,
      "velocity": 100,
      "chip": "ym2612"
    },
    {
      "channel": 1,
      "note": 59,
      "start": 89.0639,
      "duration": 0.5413,
      "velocity": 100,
      "chip": "ym2612"
    },
    {
      "channel": 3,
      "note": 59,
      "start": 89.0642,
      "duration": 0.4485,
      "velocity": 95,
      "chip": "ym2612"
    },
    {
      "channel": 4,
      "note": 97,
      "start": 89.0644,
      "duration": 0.5413,
      "velocity": 111,
      "chip": "ym2612"
    },
    {
      "channel": 2,
      "note": 59,
      "start": 89.0947,
      "duration": 0.4488,
      "velocity": 95,
      "chip": "ym2612"
    },
    {
      "channel": 5,
      "note": 97,
      "start": 89.3427,
      "duration": 0.5417,
      "velocity": 111,
      "chip": "ym2612"
    },
    {
      "channel": 0,
      "note": 69,
      "start": 89.6051,
      "duration": 0.1858,
      "velocity": 100,
      "chip": "ym2612"
    },
    {
      "channel": 1,
      "note": 59,
      "start": 89.6053,
      "duration": 0.1859,
      "velocity": 100,
      "chip": "ym2612"
    },
    {
      "channel": 3,
      "note": 59,
      "start": 89.6055,
      "duration": 0.1859,
      "velocity": 95,
      "chip": "ym2612"
    },
    {
      "channel": 4,
      "note": 95,
      "start": 89.6058,
      "duration": 0.186,
      "velocity": 111,
      "chip": "ym2612"
    },
    {
      "channel": 2,
      "note": 59,
      "start": 89.6362,
      "duration": 0.1857,
      "velocity": 95,
      "chip": "ym2612"
    },
    {
      "channel": 0,
      "note": 69,
      "start": 89.7911,
      "duration": 0.3711,
      "velocity": 100,
      "chip": "ym2612"
    },
    {
      "channel": 1,
      "note": 59,
      "start": 89.7912,
      "duration": 0.3712,
      "velocity": 100,
      "chip": "ym2612"
    },
    {
      "channel": 3,
      "note": 59,
      "start": 89.7914,
      "duration": 0.2782,
      "velocity": 95,
      "chip": "ym2612"
    },
    {
      "channel": 4,
      "note": 93,
      "start": 89.7917,
      "duration": 0.278,
      "velocity": 111,
      "chip": "ym2612"
    },
    {
      "channel": 2,
      "note": 59,
      "start": 89.822,
      "duration": 0.2786,
      "velocity": 95,
      "chip": "ym2612"
    },
    {
      "channel": 5,
      "note": 95,
      "start": 89.8844,
      "duration": 0.1857,
      "velocity": 111,
      "chip": "ym2612"
    },
    {
      "channel": 5,
      "note": 93,
      "start": 90.0701,
      "duration": 0.278,
      "velocity": 111,
      "chip": "ym2612"
    },
    {
      "channel": 0,
      "note": 67,
      "start": 90.1623,
      "duration": 0.5412,
      "velocity": 100,
      "chip": "ym2612"
    },
    {
      "channel": 1,
      "note": 57,
      "start": 90.1626,
      "duration": 0.5412,
      "velocity": 100,
      "chip": "ym2612"
    },
    {
      "channel": 3,
      "note": 59,
      "start": 90.1629,
      "duration": 0.4483,
      "velocity": 95,
      "chip": "ym2612"
    },
    {
      "channel": 4,
      "note": 95,
      "start": 90.163,
      "duration": 0.371,
      "velocity": 111,
      "chip": "ym2612"
    },
    {
      "channel": 2,
      "note": 59,
      "start": 90.1933,
      "duration": 0.4488,
      "velocity": 95,
      "chip": "ym2612"
    },
    {
      "channel": 5,
      "note": 95,
      "start": 90.4411,
      "duration": 0.3557,
      "velocity": 111,
      "chip": "ym2612"
    },
    {
      "channel": 4,
      "note": 97,
      "start": 90.5341,
      "duration": 0.3557,
      "velocity": 111,
      "chip": "ym2612"
    },
    {
      "channel": 0,
      "note": 67,
      "start": 90.7037,
      "duration": 0.1855,
      "velocity": 100,
      "chip": "ym2612"
    },
    {
      "channel": 1,
      "note": 57,
      "start": 90.7038,
      "duration": 0.1856,
      "velocity": 100,
      "chip": "ym2612"
    },
    {
      "channel": 3,
      "note": 59,
      "start": 90.704,
      "duration": 0.1856,
      "velocity": 95,
      "chip": "ym2612"
    },
    {
      "channel": 2,
      "note": 59,
      "start": 90.7347,
      "duration": 0.1856,
      "velocity": 95,
      "chip": "ym2612"
    },
    {
      "channel": 5,
      "note": 97,
      "start": 90.7967,
      "duration": 0.3717,
      "velocity": 111,
      "chip": "ym2612"
    },
    {
      "channel": 0,
      "note": 67,
      "start": 90.8893,
      "duration": 0.3715,
      "velocity": 100,
      "chip": "ym2612"
    },
    {
      "channel": 1,
      "note": 57,
      "start": 90.8893,
      "duration": 0.3717,
      "velocity": 100,
      "chip": "ym2612"
    },
    {
      "channel": 3,
      "note": 59,
      "start": 90.8896,
      "duration": 0.2785,
      "velocity": 95,
      "chip": "ym2612"
    },
    {
      "channel": 4,
      "note": 98,
      "start": 90.8898,
      "duration": 0.3718,
      "velocity": 111,
      "chip": "ym2612"
    },
    {
      "channel": 2,
      "note": 59,
      "start": 90.9204,
      "duration": 0.2786,
      "velocity": 95,
      "chip": "ym2612"
    },
    {
      "channel": 5,
      "note": 98,
      "start": 91.1684,
      "duration": 0.3713,
      "velocity": 111,
      "chip": "ym2612"
    },
    {
      "channel": 0,
      "note": 69,
      "start": 91.2609,
      "duration": 0.5417,
      "velocity": 100,
      "chip": "ym2612"
    },
    {
      "channel": 1,
      "note": 59,
      "start": 91.2611,
      "duration": 0.5417,
      "velocity": 100,
      "chip": "ym2612"
    },
    {
      "channel": 3,
      "note": 59,
      "start": 91.2615,
      "duration": 0.4641,
      "velocity": 95,
      "chip": "ym2612"
    },
    {
      "channel": 4,
      "note": 97,
      "start": 91.2617,
      "duration": 0.0612,
      "velocity": 111,
      "chip": "ym2612"
    },
    {
      "channel": 2,
      "note": 59,
      "start": 91.2917,
      "duration": 0.4648,
      "velocity": 95,
      "chip": "ym2612"
    },
    {
      "channel": 4,
      "note": 98,
      "start": 91.3229,
      "duration": 0.0619,
      "velocity": 111,
      "chip": "ym2612"
    },
    {
      "channel": 4,
      "note": 97,
      "start": 91.3848,
      "duration": 0.4184,
      "velocity": 111,
      "chip": "ym2612"
    },
    {
      "channel": 5,
      "note": 97,
      "start": 91.5398,
      "duration": 0.062,
      "velocity": 111,
      "chip": "ym2612"
    },
    {
      "channel": 5,
      "note": 98,
      "start": 91.6018,
      "duration": 0.0622,
      "velocity": 111,
      "chip": "ym2612"
    },
    {
      "channel": 5,
      "note": 97,
      "start": 91.664,
      "duration": 0.4175,
      "velocity": 111,
      "chip": "ym2612"
    },
    {
      "channel": 0,
      "note": 69,
      "start": 91.8026,
      "duration": 0.1856,
      "velocity": 100,
      "chip": "ym2612"
    },
    {
      "channel": 1,
      "note": 59,
      "start": 91.8028,
      "duration": 0.1856,
      "velocity": 100,
      "chip": "ym2612"
    },
    {
      "channel": 3,
      "note": 59,
      "start": 91.803,
      "duration": 0.1856,
      "velocity": 95,
      "chip": "ym2612"
    },
    {
      "channel": 4,
      "note": 95,
      "start": 91.8033,
      "duration": 0.1855,
      "velocity": 111,
      "chip": "ym2612"
    },
    {
      "channel": 2,
      "note": 59,
      "start": 91.8337,
      "duration": 0.1857,
      "velocity": 95,
      "chip": "ym2612"
    },
    {
      "channel": 0,
      "note": 69,
      "start": 91.9883,
      "duration": 0.3714,
      "velocity": 100,
      "chip": "ym2612"
    },
    {
      "channel": 1,
      "note": 59,
      "start": 91.9885,
      "duration": 0.3715,
      "velocity": 100,
      "chip": "ym2612"
    },
    {
      "channel": 3,
      "note": 59,
      "start": 91.9887,
      "duration": 0.2782,
      "velocity": 95,
      "chip": "ym2612"
    },
    {
      "channel": 4,
      "note": 93,
      "start": 91.9889,
      "duration": 0.2781,
      "velocity": 111,
      "chip": "ym2612"
    },
    {
      "channel": 2,
      "note": 59,
      "start": 92.0195,
      "duration": 0.2786,
      "velocity": 95,
      "chip": "ym2612"
    },
    {
      "channel": 5,
      "note": 95,
      "start": 92.0816,
      "duration": 0.1857,
      "velocity": 111,
      "chip": "ym2612"
    },
    {
      "channel": 5,
      "note": 93,
      "start": 92.2673,
      "duration": 0.2786,
      "velocity": 111,
      "chip": "ym2612"
    },
    {
      "channel": 0,
      "note": 71,
      "start": 92.3598,
      "duration": 0.5568,
      "velocity": 100,
      "chip": "ym2612"
    },
    {
      "channel": 1,
      "note": 61,
      "start": 92.36,
      "duration": 0.5568,
      "velocity": 100,
      "chip": "ym2612"
    },
    {
      "channel": 3,
      "note": 59,
      "start": 92.3604,
      "duration": 0.4636,
      "velocity": 95,
      "chip": "ym2612"
    },
    {
      "channel": 4,
      "note": 98,
      "start": 92.3606,
      "duration": 0.7267,
      "velocity": 111,
      "chip": "ym2612"
    },
    {
      "channel": 2,
      "note": 59,
      "start": 92.391,
      "duration": 0.4639,
      "velocity": 95,
      "chip": "ym2612"
    },
    {
      "channel": 5,
      "note": 98,
      "start": 92.6387,
      "duration": 0.7272,
      "velocity": 111,
      "chip": "ym2612"
    },
    {
      "channel": 0,
      "note": 71,
      "start": 92.9167,
      "duration": 0.1699,
      "velocity": 100,
      "chip": "ym2612"
    },
    {
      "channel": 1,
      "note": 61,
      "start": 92.9169,
      "duration": 0.1699,
      "velocity": 100,
      "chip": "ym2612"
    },
    {
      "channel": 3,
      "note": 59,
      "start": 92.9171,
      "duration": 0.17,
      "velocity": 95,
      "chip": "ym2612"
    },
    {
      "channel": 2,
      "note": 59,
      "start": 92.9322,
      "duration": 0.1854,
      "velocity": 95,
      "chip": "ym2612"
    },
    {
      "channel": 0,
      "note": 71,
      "start": 93.0867,
      "duration": 0.3713,
      "velocity": 100,
      "chip": "ym2612"
    },
    {
      "channel": 1,
      "note": 61,
      "start": 93.0868,
      "duration": 0.3715,
      "velocity": 100,
      "chip": "ym2612"
    },
    {
      "channel": 3,
      "note": 59,
      "start": 93.0872,
      "duration": 0.2784,
      "velocity": 95,
      "chip": "ym2612"
    },
    {
      "channel": 4,
      "note": 98,
      "start": 93.0874,
      "duration": 0.3715,
      "velocity": 111,
      "chip": "ym2612"
    },
    {
      "channel": 2,
      "note": 59,
      "start": 93.1176,
      "duration": 0.2789,
      "velocity": 95,
      "chip": "ym2612"
    },
    {
      "channel": 5,
      "note": 98,
      "start": 93.3659,
      "duration": 0.3712,
      "velocity": 111,
      "chip": "ym2612"
    },
    {
      "channel": 0,
      "note": 69,
      "start": 93.4581,
      "duration": 0.5572,
      "velocity": 100,
      "chip": "ym2612"
    },
    {
      "channel": 1,
      "note": 62,
      "start": 93.4584,
      "duration": 0.5572,
      "velocity": 100,
      "chip": "ym2612"
    },
    {
      "channel": 3,
      "note": 59,
      "start": 93.4587,
      "duration": 0.4641,
      "velocity": 95,
      "chip": "ym2612"
    },
    {
      "channel": 4,
      "note": 97,
      "start": 93.4589,
      "duration": 0.5572,
      "velocity": 111,
      "chip": "ym2612"
    },
    {
      "channel": 2,
      "note": 59,
      "start": 93.4891,
      "duration": 0.4647,
      "velocity": 95,
      "chip": "ym2612"
    },
    {
      "channel": 5,
      "note": 97,
      "start": 93.7371,
      "duration": 0.542,
      "velocity": 111,
      "chip": "ym2612"
    },
    {
      "channel": 0,
      "note": 69,
      "start": 94.0155,
      "duration": 0.1701,
      "velocity": 100,
      "chip": "ym2612"
    },
    {
      "channel": 1,
      "note": 62,
      "start": 94.0157,
      "duration": 0.1702,
      "velocity": 100,
      "chip": "ym2612"
    },
    {
      "channel": 3,
      "note": 59,
      "start": 94.0159,
      "duration": 0.1702,
      "velocity": 95,
      "chip": "ym2612"
    },
    {
      "channel": 4,
      "note": 95,
      "start": 94.0161,
      "duration": 0.1703,
      "velocity": 111,
      "chip": "ym2612"
    },
    {
      "channel": 2,
      "note": 59,
      "start": 94.0464,
      "duration": 0.1702,
      "velocity": 95,
      "chip": "ym2612"
    },
    {
      "channel": 0,
      "note": 69,
      "start": 94.1858,
      "duration": 0.3712,
      "velocity": 100,
      "chip": "ym2612"
    },
    {
      "channel": 1,
      "note": 62,
      "start": 94.1859,
      "duration": 0.3713,
      "velocity": 100,
      "chip": "ym2612"
    },
    {
      "channel": 3,
      "note": 59,
      "start": 94.1862,
      "duration": 0.2785,
      "velocity": 95,
      "chip": "ym2612"
    },
    {
      "channel": 4,
      "note": 93,
      "start": 94.1864,
      "duration": 0.3714,
      "velocity": 111,
      "chip": "ym2612"
    },
    {
      "channel": 2,
      "note": 59,
      "start": 94.2168,
      "duration": 0.2786,
      "velocity": 95,
      "chip": "ym2612"
    },
    {
      "channel": 5,
      "note": 95,
      "start": 94.2792,
      "duration": 0.1858,
      "velocity": 111,
      "chip": "ym2612"
    },
    {
      "channel": 5,
      "note": 93,
      "start": 94.465,
      "duration": 0.3707,
      "velocity": 111,
      "chip": "ym2612"
    },
    {
      "channel": 0,
      "note": 68,
      "start": 94.557,
      "duration": 0.5568,
      "velocity": 100,
      "chip": "ym2612"
    },
    {
      "channel": 1,
      "note": 59,
      "start": 94.5573,
      "duration": 0.5567,
      "velocity": 100,
      "chip": "ym2612"
    },
    {
      "channel": 3,
      "note": 59,
      "start": 94.5576,
      "duration": 0.4637,
      "velocity": 95,
      "chip": "ym2612"
    },
    {
      "channel": 4,
      "note": 95,
      "start": 94.5578,
      "duration": 2.0109,
      "velocity": 111,
      "chip": "ym2612"
    },
    {
      "channel": 2,
      "note": 59,
      "start": 94.5879,
      "duration": 0.4646,
      "velocity": 95,
      "chip": "ym2612"
    },
    {
      "channel": 5,
      "note": 95,
      "start": 94.8357,
      "duration": 2.0115,
      "velocity": 111,
      "chip": "ym2612"
    },
    {
      "channel": 0,
      "note": 68,
      "start": 95.1138,
      "duration": 0.17,
      "velocity": 100,
      "chip": "ym2612"
    },
    {
      "channel": 1,
      "note": 59,
      "start": 95.114,
      "duration": 0.17,
      "velocity": 100,
      "chip": "ym2612"
    },
    {
      "channel": 3,
      "note": 68,
      "start": 95.1143,
      "duration": 0.17,
      "velocity": 95,
      "chip": "ym2612"
    },
    {
      "channel": 2,
      "note": 59,
      "start": 95.145,
      "duration": 0.17,
      "velocity": 95,
      "chip": "ym2612"
    },
    {
      "channel": 0,
      "note": 68,
      "start": 95.2839,
      "duration": 0.3715,
      "velocity": 100,
      "chip": "ym2612"
    },
    {
      "channel": 1,
      "note": 59,
      "start": 95.284,
      "duration": 0.3716,
      "velocity": 100,
      "chip": "ym2612"
    },
    {
      "channel": 3,
      "note": 64,
      "start": 95.2843,
      "duration": 0.2784,
      "velocity": 95,
      "chip": "ym2612"
    },
    {
      "channel": 2,
      "note": 59,
      "start": 95.315,
      "duration": 0.2787,
      "velocity": 95,
      "chip": "ym2612"
    },
    {
      "channel": 0,
      "note": 68,
      "start": 95.6554,
      "duration": 0.557,
      "velocity": 100,
      "chip": "ym2612"
    },
    {
      "channel": 1,
      "note": 59,
      "start": 95.6557,
      "duration": 0.5569,
      "velocity": 100,
      "chip": "ym2612"
    },
    {
      "channel": 3,
      "note": 59,
      "start": 95.656,
      "duration": 1.1025,
      "velocity": 95,
      "chip": "ym2612"
    },
    {
      "channel": 2,
      "note": 59,
      "start": 95.6863,
      "duration": 0.4646,
      "velocity": 95,
      "chip": "ym2612"
    },
    {
      "channel": 0,
      "note": 68,
      "start": 96.2125,
      "duration": 0.1854,
      "velocity": 100,
      "chip": "ym2612"
    },
    {
      "channel": 1,
      "note": 59,
      "start": 96.2126,
      "duration": 0.1854,
      "velocity": 100,
      "chip": "ym2612"
    },
    {
      "channel": 2,
      "note": 59,
      "start": 96.2434,
      "duration": 0.17,
      "velocity": 95,
      "chip": "ym2612"
    },
    {
      "channel": 0,
      "note": 68,
      "start": 96.3979,
      "duration": 0.3566,
      "velocity": 1,
      "chip": "ym2612"
    },
    {
      "channel": 1,
      "note": 59,
      "start": 96.398,
      "duration": 0.3585,
      "velocity": 1,
      "chip": "ym2612"
    },
    {
      "channel": 2,
      "note": 59,
      "start": 96.4134,
      "duration": 0.2791,
      "velocity": 95,
      "chip": "ym2612"
    },
    {
      "channel": 1,
      "note": 59,
      "start": 96.758,
      "duration": 0.3675,
      "velocity": 98,
      "chip": "ym2612"
    },
    {
      "channel": 2,
      "note": 59,
      "start": 96.7583,
      "duration": 0.6455,
      "velocity": 95,
      "chip": "ym2612"
    },
    {
      "channel": 3,
      "note": 66,
      "start": 96.7585,
      "duration": 0.6455,
      "velocity": 95,
      "chip": "ym2612"
    },
    {
      "channel": 0,
      "note": 66,
      "start": 96.9398,
      "duration": 0.371,
      "velocity": 98,
      "chip": "ym2612"
    },
    {
      "channel": 1,
      "note": 69,
      "start": 97.1255,
      "duration": 0.3712,
      "velocity": 98,
      "chip": "ym2612"
    },
    {
      "channel": 0,
      "note": 73,
      "start": 97.3109,
      "duration": 0.3557,
      "velocity": 98,
      "chip": "ym2612"
    },
    {
      "channel": 1,
      "note": 76,
      "start": 97.4967,
      "duration": 0.356,
      "velocity": 98,
      "chip": "ym2612"
    },
    {
      "channel": 2,
      "note": 59,
      "start": 97.497,
      "duration": 0.1078,
      "velocity": 95,
      "chip": "ym2612"
    },
    {
      "channel": 3,
      "note": 66,
      "start": 97.4972,
      "duration": 0.1076,
      "velocity": 95,
      "chip": "ym2612"
    },
    {
      "channel": 0,
      "note": 69,
      "start": 97.8525,
      "duration": 1.0989,
      "velocity": 98,
      "chip": "ym2612"
    },
    {
      "channel": 1,
      "note": 73,
      "start": 97.8527,
      "duration": 1.0988,
      "velocity": 98,
      "chip": "ym2612"
    },
    {
      "channel": 2,
      "note": 59,
      "start": 97.8529,
      "duration": 0.6505,
      "velocity": 95,
      "chip": "ym2612"
    },
    {
      "channel": 3,
      "note": 66,
      "start": 97.8532,
      "duration": 0.6505,
      "velocity": 95,
      "chip": "ym2612"
    },
    {
      "channel": 2,
      "note": 59,
      "start": 98.5963,
      "duration": 0.1234,
      "velocity": 95,
      "chip": "ym2612"
    },
    {
      "channel": 3,
      "note": 66,
      "start": 98.5966,
      "duration": 0.1233,
      "velocity": 95,
      "chip": "ym2612"
    },
    {
      "channel": 1,
      "note": 59,
      "start": 98.9516,
      "duration": 0.3707,
      "velocity": 98,
      "chip": "ym2612"
    },
    {
      "channel": 2,
      "note": 59,
      "start": 98.9518,
      "duration": 0.649,
      "velocity": 95,
      "chip": "ym2612"
    },
    {
      "channel": 3,
      "note": 66,
      "start": 98.9521,
      "duration": 0.6489,
      "velocity": 95,
      "chip": "ym2612"
    },
    {
      "channel": 0,
      "note": 66,
      "start": 99.1368,
      "duration": 0.3711,
      "velocity": 98,
      "chip": "ym2612"
    },
    {
      "channel": 1,
      "note": 69,
      "start": 99.3224,
      "duration": 0.3712,
      "velocity": 98,
      "chip": "ym2612"
    },
    {
      "channel": 0,
      "note": 73,
      "start": 99.508,
      "duration": 0.3711,
      "velocity": 98,
      "chip": "ym2612"
    },
    {
      "channel": 1,
      "note": 76,
      "start": 99.6936,
      "duration": 0.3558,
      "velocity": 98,
      "chip": "ym2612"
    },
    {
      "channel": 2,
      "note": 59,
      "start": 99.6939,
      "duration": 0.1234,
      "velocity": 95,
      "chip": "ym2612"
    },
    {
      "channel": 3,
      "note": 66,
      "start": 99.6942,
      "duration": 0.1234,
      "velocity": 95,
      "chip": "ym2612"
    },
    {
      "channel": 0,
      "note": 69,
      "start": 100.0492,
      "duration": 1.0984,
      "velocity": 98,
      "chip": "ym2612"
    },
    {
      "channel": 1,
      "note": 73,
      "start": 100.0495,
      "duration": 1.0983,
      "velocity": 98,
      "chip": "ym2612"
    },
    {
      "channel": 2,
      "note": 59,
      "start": 100.0497,
      "duration": 0.6498,
      "velocity": 95,
      "chip": "ym2612"
    },
    {
      "channel": 3,
      "note": 66,
      "start": 100.0499,
      "duration": 0.6497,
      "velocity": 95,
      "chip": "ym2612"
    },
    {
      "channel": 2,
      "note": 59,
      "start": 100.7923,
      "duration": 0.1237,
      "velocity": 95,
      "chip": "ym2612"
    },
    {
      "channel": 3,
      "note": 66,
      "start": 100.7925,
      "duration": 0.1236,
      "velocity": 95,
      "chip": "ym2612"
    },
    {
      "channel": 4,
      "note": 78,
      "start": 100.7929,
      "duration": 0.3556,
      "velocity": 111,
      "chip": "ym2612"
    },
    {
      "channel": 5,
      "note": 78,
      "start": 101.071,
      "duration": 0.3552,
      "velocity": 111,
      "chip": "ym2612"
    },
    {
      "channel": 1,
      "note": 59,
      "start": 101.1478,
      "duration": 0.3707,
      "velocity": 98,
      "chip": "ym2612"
    },
    {
      "channel": 2,
      "note": 59,
      "start": 101.148,
      "duration": 0.649,
      "velocity": 95,
      "chip": "ym2612"
    },
    {
      "channel": 3,
      "note": 66,
      "start": 101.1483,
      "duration": 0.6489,
      "velocity": 95,
      "chip": "ym2612"
    },
    {
      "channel": 4,
      "note": 83,
      "start": 101.1485,
      "duration": 0.5562,
      "velocity": 111,
      "chip": "ym2612"
    },
    {
      "channel": 0,
      "note": 66,
      "start": 101.3332,
      "duration": 0.3708,
      "velocity": 98,
      "chip": "ym2612"
    },
    {
      "channel": 5,
      "note": 83,
      "start": 101.4262,
      "duration": 0.5568,
      "velocity": 111,
      "chip": "ym2612"
    },
    {
      "channel": 1,
      "note": 69,
      "start": 101.5186,
      "duration": 0.3712,
      "velocity": 98,
      "chip": "ym2612"
    },
    {
      "channel": 0,
      "note": 73,
      "start": 101.704,
      "duration": 0.3714,
      "velocity": 98,
      "chip": "ym2612"
    },
    {
      "channel": 4,
      "note": 85,
      "start": 101.7047,
      "duration": 0.1859,
      "velocity": 111,
      "chip": "ym2612"
    },
    {
      "channel": 1,
      "note": 76,
      "start": 101.8898,
      "duration": 0.3559,
      "velocity": 98,
      "chip": "ym2612"
    },
    {
      "channel": 2,
      "note": 59,
      "start": 101.8902,
      "duration": 0.1234,
      "velocity": 95,
      "chip": "ym2612"
    },
    {
      "channel": 3,
      "note": 66,
      "start": 101.8904,
      "duration": 0.1232,
      "velocity": 95,
      "chip": "ym2612"
    },
    {
      "channel": 4,
      "note": 83,
      "start": 101.8907,
      "duration": 0.0612,
      "velocity": 111,
      "chip": "ym2612"
    },
    {
      "channel": 4,
      "note": 85,
      "start": 101.9521,
      "duration": 0.0618,
      "velocity": 111,
      "chip": "ym2612"
    },
    {
      "channel": 5,
      "note": 85,
      "start": 101.983,
      "duration": 0.1856,
      "velocity": 111,
      "chip": "ym2612"
    },
    {
      "channel": 4,
      "note": 83,
      "start": 102.0139,
      "duration": 0.2325,
      "velocity": 111,
      "chip": "ym2612"
    },
    {
      "channel": 5,
      "note": 83,
      "start": 102.1686,
      "duration": 0.0619,
      "velocity": 111,
      "chip": "ym2612"
    },
    {
      "channel": 5,
      "note": 85,
      "start": 102.2305,
      "duration": 0.0463,
      "velocity": 111,
      "chip": "ym2612"
    },
    {
      "channel": 0,
      "note": 69,
      "start": 102.2456,
      "duration": 1.1142,
      "velocity": 98,
      "chip": "ym2612"
    },
    {
      "channel": 1,
      "note": 73,
      "start": 102.2458,
      "duration": 1.1142,
      "velocity": 98,
      "chip": "ym2612"
    },
    {
      "channel": 2,
      "note": 59,
      "start": 102.246,
      "duration": 0.6499,
      "velocity": 95,
      "chip": "ym2612"
    },
    {
      "channel": 3,
      "note": 66,
      "start": 102.2463,
      "duration": 0.6497,
      "velocity": 95,
      "chip": "ym2612"
    },
    {
      "channel": 4,
      "note": 78,
      "start": 102.2466,
      "duration": 0.5568,
      "velocity": 111,
      "chip": "ym2612"
    },
    {
      "channel": 5,
      "note": 83,
      "start": 102.2768,
      "duration": 0.2476,
      "velocity": 111,
      "chip": "ym2612"
    },
    {
      "channel": 5,
      "note": 78,
      "start": 102.5245,
      "duration": 0.5569,
      "velocity": 111,
      "chip": "ym2612"
    },
    {
      "channel": 2,
      "note": 59,
      "start": 102.9889,
      "duration": 0.1234,
      "velocity": 95,
      "chip": "ym2612"
    },
    {
      "channel": 3,
      "note": 66,
      "start": 102.9892,
      "duration": 0.1232,
      "velocity": 95,
      "chip": "ym2612"
    },
    {
      "channel": 4,
      "note": 78,
      "start": 102.9895,
      "duration": 0.3714,
      "velocity": 111,
      "chip": "ym2612"
    },
    {
      "channel": 5,
      "note": 78,
      "start": 103.2675,
      "duration": 0.3557,
      "velocity": 111,
      "chip": "ym2612"
    },
    {
      "channel": 1,
      "note": 59,
      "start": 103.36,
      "duration": 0.3556,
      "velocity": 98,
      "chip": "ym2612"
    },
    {
      "channel": 2,
      "note": 59,
      "start": 103.3603,
      "duration": 0.6339,
      "velocity": 95,
      "chip": "ym2612"
    },
    {
      "channel": 3,
      "note": 66,
      "start": 103.3607,
      "duration": 0.6337,
      "velocity": 95,
      "chip": "ym2612"
    },
    {
      "channel": 4,
      "note": 83,
      "start": 103.3609,
      "duration": 0.3554,
      "velocity": 111,
      "chip": "ym2612"
    },
    {
      "channel": 0,
      "note": 66,
      "start": 103.53,
      "duration": 0.3712,
      "velocity": 98,
      "chip": "ym2612"
    },
    {
      "channel": 5,
      "note": 83,
      "start": 103.6232,
      "duration": 0.3715,
      "velocity": 111,
      "chip": "ym2612"
    },
    {
      "channel": 1,
      "note": 69,
      "start": 103.7156,
      "duration": 0.3714,
      "velocity": 98,
      "chip": "ym2612"
    },
    {
      "channel": 4,
      "note": 85,
      "start": 103.7163,
      "duration": 0.3715,
      "velocity": 111,
      "chip": "ym2612"
    },
    {
      "channel": 0,
      "note": 73,
      "start": 103.9012,
      "duration": 0.3712,
      "velocity": 98,
      "chip": "ym2612"
    },
    {
      "channel": 5,
      "note": 85,
      "start": 103.9947,
      "duration": 0.371,
      "velocity": 111,
      "chip": "ym2612"
    },
    {
      "channel": 1,
      "note": 76,
      "start": 104.087,
      "duration": 0.3715,
      "velocity": 98,
      "chip": "ym2612"
    },
    {
      "channel": 2,
      "note": 59,
      "start": 104.0873,
      "duration": 0.1236,
      "velocity": 95,
      "chip": "ym2612"
    },
    {
      "channel": 3,
      "note": 66,
      "start": 104.0877,
      "duration": 0.1233,
      "velocity": 95,
      "chip": "ym2612"
    },
    {
      "channel": 4,
      "note": 86,
      "start": 104.0879,
      "duration": 0.3714,
      "velocity": 111,
      "chip": "ym2612"
    },
    {
      "channel": 5,
      "note": 86,
      "start": 104.3658,
      "duration": 0.3559,
      "velocity": 111,
      "chip": "ym2612"
    },
    {
      "channel": 0,
      "note": 69,
      "start": 104.4582,
      "duration": 1.0983,
      "velocity": 98,
      "chip": "ym2612"
    },
    {
      "channel": 1,
      "note": 73,
      "start": 104.4585,
      "duration": 1.0983,
      "velocity": 98,
      "chip": "ym2612"
    },
    {
      "channel": 2,
      "note": 59,
      "start": 104.4588,
      "duration": 0.6339,
      "velocity": 95,
      "chip": "ym2612"
    },
    {
      "channel": 3,
      "note": 66,
      "start": 104.4591,
      "duration": 0.6338,
      "velocity": 95,
      "chip": "ym2612"
    },
    {
      "channel": 4,
      "note": 88,
      "start": 104.4593,
      "duration": 0.5408,
      "velocity": 111,
      "chip": "ym2612"
    },
    {
      "channel": 5,
      "note": 88,
      "start": 104.7217,
      "duration": 0.5567,
      "velocity": 111,
      "chip": "ym2612"
    },
    {
      "channel": 2,
      "note": 59,
      "start": 105.1856,
      "duration": 0.1238,
      "velocity": 95,
      "chip": "ym2612"
    },
    {
      "channel": 3,
      "note": 66,
      "start": 105.186,
      "duration": 0.1235,
      "velocity": 95,
      "chip": "ym2612"
    },
    {
      "channel": 4,
      "note": 78,
      "start": 105.1862,
      "duration": 0.3716,
      "velocity": 111,
      "chip": "ym2612"
    },
    {
      "channel": 5,
      "note": 78,
      "start": 105.464,
      "duration": 0.3557,
      "velocity": 111,
      "chip": "ym2612"
    },
    {
      "channel": 1,
      "note": 59,
      "start": 105.5569,
      "duration": 0.3554,
      "velocity": 98,
      "chip": "ym2612"
    },
    {
      "channel": 2,
      "note": 59,
      "start": 105.5572,
      "duration": 0.6338,
      "velocity": 95,
      "chip": "ym2612"
    },
    {
      "channel": 3,
      "note": 66,
      "start": 105.5575,
      "duration": 0.6336,
      "velocity": 95,
      "chip": "ym2612"
    },
    {
      "channel": 4,
      "note": 83,
      "start": 105.5578,
      "duration": 0.5407,
      "velocity": 111,
      "chip": "ym2612"
    },
    {
      "channel": 0,
      "note": 66,
      "start": 105.7265,
      "duration": 0.3715,
      "velocity": 98,
      "chip": "ym2612"
    },
    {
      "channel": 5,
      "note": 83,
      "start": 105.8198,
      "duration": 0.5571,
      "velocity": 111,
      "chip": "ym2612"
    },
    {
      "channel": 1,
      "note": 69,
      "start": 105.9123,
      "duration": 0.3714,
      "velocity": 98,
      "chip": "ym2612"
    },
    {
      "channel": 0,
      "note": 73,
      "start": 106.098,
      "duration": 0.3713,
      "velocity": 98,
      "chip": "ym2612"
    },
    {
      "channel": 4,
      "note": 85,
      "start": 106.0985,
      "duration": 0.1864,
      "velocity": 111,
      "chip": "ym2612"
    },
    {
      "channel": 1,
      "note": 76,
      "start": 106.2838,
      "duration": 0.3715,
      "velocity": 98,
      "chip": "ym2612"
    },
    {
      "channel": 2,
      "note": 59,
      "start": 106.2841,
      "duration": 0.1232,
      "velocity": 95,
      "chip": "ym2612"
    },
    {
      "channel": 3,
      "note": 66,
      "start": 106.2845,
      "duration": 0.123,
      "velocity": 95,
      "chip": "ym2612"
    },
    {
      "channel": 4,
      "note": 86,
      "start": 106.2849,
      "duration": 0.3713,
      "velocity": 111,
      "chip": "ym2612"
    },
    {
      "channel": 5,
      "note": 85,
      "start": 106.3769,
      "duration": 0.1857,
      "velocity": 111,
      "chip": "ym2612"
    },
    {
      "channel": 5,
      "note": 86,
      "start": 106.5627,
      "duration": 0.3558,
      "velocity": 111,
      "chip": "ym2612"
    },
    {
      "channel": 0,
      "note": 69,
      "start": 106.6551,
      "duration": 1.0988,
      "velocity": 98,
      "chip": "ym2612"
    },
    {
      "channel": 1,
      "note": 73,
      "start": 106.6554,
      "duration": 1.0986,
      "velocity": 98,
      "chip": "ym2612"
    },
    {
      "channel": 2,
      "note": 59,
      "start": 106.6557,
      "duration": 0.6339,
      "velocity": 95,
      "chip": "ym2612"
    },
    {
      "channel": 3,
      "note": 66,
      "start": 106.656,
      "duration": 0.6337,
      "velocity": 95,
      "chip": "ym2612"
    },
    {
      "channel": 4,
      "note": 85,
      "start": 106.6563,
      "duration": 0.0609,
      "velocity": 111,
      "chip": "ym2612"
    },
    {
      "channel": 4,
      "note": 86,
      "start": 106.7172,
      "duration": 0.0618,
      "velocity": 111,
      "chip": "ym2612"
    },
    {
      "channel": 4,
      "note": 85,
      "start": 106.7791,
      "duration": 0.418,
      "velocity": 111,
      "chip": "ym2612"
    },
    {
      "channel": 5,
      "note": 85,
      "start": 106.9185,
      "duration": 0.0622,
      "velocity": 111,
      "chip": "ym2612"
    },
    {
      "channel": 5,
      "note": 86,
      "start": 106.9809,
      "duration": 0.0615,
      "velocity": 111,
      "chip": "ym2612"
    },
    {
      "channel": 5,
      "note": 85,
      "start": 107.0425,
      "duration": 0.433,
      "velocity": 111,
      "chip": "ym2612"
    },
    {
      "channel": 4,
      "note": 83,
      "start": 107.1971,
      "duration": 0.1861,
      "velocity": 111,
      "chip": "ym2612"
    },
    {
      "channel": 2,
      "note": 59,
      "start": 107.3826,
      "duration": 0.1237,
      "velocity": 95,
      "chip": "ym2612"
    },
    {
      "channel": 3,
      "note": 66,
      "start": 107.3829,
      "duration": 0.1233,
      "velocity": 95,
      "chip": "ym2612"
    },
    {
      "channel": 4,
      "note": 81,
      "start": 107.3833,
      "duration": 0.3719,
      "velocity": 111,
      "chip": "ym2612"
    },
    {
      "channel": 5,
      "note": 83,
      "start": 107.4756,
      "duration": 0.1857,
      "velocity": 111,
      "chip": "ym2612"
    },
    {
      "channel": 5,
      "note": 81,
      "start": 107.6613,
      "duration": 0.3712,
      "velocity": 111,
      "chip": "ym2612"
    },
    {
      "channel": 1,
      "note": 59,
      "start": 107.7542,
      "duration": 0.3552,
      "velocity": 98,
      "chip": "ym2612"
    },
    {
      "channel": 2,
      "note": 59,
      "start": 107.7545,
      "duration": 0.633,
      "velocity": 95,
      "chip": "ym2612"
    },
    {
      "channel": 3,
      "note": 66,
      "start": 107.7549,
      "duration": 0.6327,
      "velocity": 95,
      "chip": "ym2612"
    },
    {
      "channel": 4,
      "note": 83,
      "start": 107.7552,
      "duration": 0.726,
      "velocity": 111,
      "chip": "ym2612"
    },
    {
      "channel": 0,
      "note": 66,
      "start": 107.9393,
      "duration": 0.3555,
      "velocity": 98,
      "chip": "ym2612"
    },
    {
      "channel": 5,
      "note": 83,
      "start": 108.0324,
      "duration": 0.7268,
      "velocity": 111,
      "chip": "ym2612"
    },
    {
      "channel": 1,
      "note": 69,
      "start": 108.1095,
      "duration": 0.3706,
      "velocity": 98,
      "chip": "ym2612"
    },
    {
      "channel": 0,
      "note": 73,
      "start": 108.2948,
      "duration": 0.371,
      "velocity": 98,
      "chip": "ym2612"
    },
    {
      "channel": 1,
      "note": 76,
      "start": 108.4802,
      "duration": 0.3715,
      "velocity": 98,
      "chip": "ym2612"
    },
    {
      "channel": 2,
      "note": 59,
      "start": 108.4806,
      "duration": 0.1236,
      "velocity": 95,
      "chip": "ym2612"
    },
    {
      "channel": 3,
      "note": 66,
      "start": 108.4809,
      "duration": 0.1233,
      "velocity": 95,
      "chip": "ym2612"
    },
    {
      "channel": 4,
      "note": 83,
      "start": 108.4813,
      "duration": 0.3715,
      "velocity": 111,
      "chip": "ym2612"
    },
    {
      "channel": 5,
      "note": 83,
      "start": 108.7593,
      "duration": 0.3712,
      "velocity": 111,
      "chip": "ym2612"
    },
    {
      "channel": 0,
      "note": 69,
      "start": 108.8515,
      "duration": 9.595,
      "velocity": 98,
      "chip": "ym2612"
    },
    {
      "channel": 1,
      "note": 73,
      "start": 108.8518,
      "duration": 9.5946,
      "velocity": 98,
      "chip": "ym2612"
    },
    {
      "channel": 2,
      "note": 59,
      "start": 108.8521,
      "duration": 0.634,
      "velocity": 95,
      "chip": "ym2612"
    },
    {
      "channel": 3,
      "note": 66,
      "start": 108.8525,
      "duration": 0.6338,
      "velocity": 95,
      "chip": "ym2612"
    },
    {
      "channel": 4,
      "note": 83,
      "start": 108.8528,
      "duration": 0.541,
      "velocity": 111,
      "chip": "ym2612"
    },
    {
      "channel": 5,
      "note": 83,
      "start": 109.1305,
      "duration": 0.5413,
      "velocity": 111,
      "chip": "ym2612"
    },
    {
      "channel": 2,
      "note": 59,
      "start": 109.5791,
      "duration": 0.1234,
      "velocity": 95,
      "chip": "ym2612"
    },
    {
      "channel": 3,
      "note": 66,
      "start": 109.5794,
      "duration": 0.1231,
      "velocity": 95,
      "chip": "ym2612"
    },
    {
      "channel": 4,
      "note": 78,
      "start": 109.5797,
      "duration": 8.8667,
      "velocity": 111,
      "chip": "ym2612"
    },
    {
      "channel": 5,
      "note": 78,
      "start": 109.8576,
      "duration": 8.5889,
      "velocity": 111,
      "chip": "ym2612"
    }
  ]
}