{
  "track_name": "03 - Track 12",
  "duration_sec": 25.996,
  "sample_rate": 44100,
  "note_count": 669,
  "unique_pitches": 33,
  "pitch_range": 51,
  "avg_note_duration": 0.1465,
  "reconstruction_stats": {
    "notes_reconstructed": 669,
    "keyon_events": 669,
    "keyoff_events": 651,
    "orphan_keyons": 3,
    "unique_pitches": 33,
    "pitch_range": 51,
    "avg_duration_sec": 0.1465
  },
  "metadata": {
    "source": "T\\Tecmo Super Bowl III\\03 - Track 12.vgz"
  },
  "notes": [
    {
      "channel": 0,
      "note": 89,
      "start": 0.0008,
      "duration": 0.0994,
      "velocity": 101,
      "chip": "ym2612"
    },
    {
      "channel": 3,
      "note": 69,
      "start": 0.0023,
      "duration": 0.1983,
      "velocity": 127,
      "chip": "ym2612"
    },
    {
      "channel": 1,
      "note": 89,
      "start": 0.1507,
      "duration": 0.0997,
      "velocity": 101,
      "chip": "ym2612"
    },
    {
      "channel": 0,
      "note": 92,
      "start": 0.2004,
      "duration": 0.0998,
      "velocity": 101,
      "chip": "ym2612"
    },
    {
      "channel": 3,
      "note": 69,
      "start": 0.2011,
      "duration": 0.1996,
      "velocity": 127,
      "chip": "ym2612"
    },
    {
      "channel": 1,
      "note": 92,
      "start": 0.3504,
      "duration": 0.0999,
      "velocity": 101,
      "chip": "ym2612"
    },
    {
      "channel": 0,
      "note": 92,
      "start": 0.4004,
      "duration": 0.0998,
      "velocity": 101,
      "chip": "ym2612"
    },
    {
      "channel": 3,
      "note": 69,
      "start": 0.4011,
      "duration": 0.1996,
      "velocity": 127,
      "chip": "ym2612"
    },
    {
      "channel": 1,
      "note": 92,
      "start": 0.5504,
      "duration": 0.0999,
      "velocity": 101,
      "chip": "ym2612"
    },
    {
      "channel": 0,
      "note": 94,
      "start": 0.6004,
      "duration": 0.0998,
      "velocity": 101,
      "chip": "ym2612"
    },
    {
      "channel": 3,
      "note": 69,
      "start": 0.601,
      "duration": 0.0995,
      "velocity": 127,
      "chip": "ym2612"
    },
    {
      "channel": 3,
      "note": 69,
      "start": 0.7008,
      "duration": 0.0999,
      "velocity": 127,
      "chip": "ym2612"
    },
    {
      "channel": 1,
      "note": 94,
      "start": 0.7504,
      "duration": 0.0999,
      "velocity": 101,
      "chip": "ym2612"
    },
    {
      "channel": 0,
      "note": 89,
      "start": 0.8004,
      "duration": 0.0998,
      "velocity": 101,
      "chip": "ym2612"
    },
    {
      "channel": 3,
      "note": 69,
      "start": 0.8011,
      "duration": 0.1996,
      "velocity": 127,
      "chip": "ym2612"
    },
    {
      "channel": 0,
      "note": 87,
      "start": 0.9004,
      "duration": 0.0998,
      "velocity": 101,
      "chip": "ym2612"
    },
    {
      "channel": 1,
      "note": 89,
      "start": 0.9505,
      "duration": 0.0998,
      "velocity": 101,
      "chip": "ym2612"
    },
    {
      "channel": 0,
      "note": 82,
      "start": 1.0005,
      "duration": 0.1998,
      "velocity": 101,
      "chip": "ym2612"
    },
    {
      "channel": 3,
      "note": 69,
      "start": 1.0011,
      "duration": 0.1996,
      "velocity": 127,
      "chip": "ym2612"
    },
    {
      "channel": 1,
      "note": 87,
      "start": 1.0505,
      "duration": 0.0998,
      "velocity": 101,
      "chip": "ym2612"
    },
    {
      "channel": 1,
      "note": 82,
      "start": 1.1506,
      "duration": 0.1998,
      "velocity": 101,
      "chip": "ym2612"
    },
    {
      "channel": 0,
      "note": 85,
      "start": 1.2005,
      "duration": 0.2998,
      "velocity": 101,
      "chip": "ym2612"
    },
    {
      "channel": 3,
      "note": 69,
      "start": 1.2011,
      "duration": 0.1994,
      "velocity": 127,
      "chip": "ym2612"
    },
    {
      "channel": 1,
      "note": 85,
      "start": 1.3506,
      "duration": 0.2998,
      "velocity": 101,
      "chip": "ym2612"
    },
    {
      "channel": 3,
      "note": 69,
      "start": 1.4009,
      "duration": 0.2,
      "velocity": 127,
      "chip": "ym2612"
    },
    {
      "channel": 0,
      "note": 89,
      "start": 1.6005,
      "duration": 0.0998,
      "velocity": 101,
      "chip": "ym2612"
    },
    {
      "channel": 3,
      "note": 69,
      "start": 1.6014,
      "duration": 0.1991,
      "velocity": 127,
      "chip": "ym2612"
    },
    {
      "channel": 0,
      "note": 87,
      "start": 1.7005,
      "duration": 0.1998,
      "velocity": 101,
      "chip": "ym2612"
    },
    {
      "channel": 1,
      "note": 89,
      "start": 1.7506,
      "duration": 0.0998,
      "velocity": 101,
      "chip": "ym2612"
    },
    {
      "channel": 3,
      "note": 69,
      "start": 1.8009,
      "duration": 0.1998,
      "velocity": 127,
      "chip": "ym2612"
    },
    {
      "channel": 1,
      "note": 87,
      "start": 1.8506,
      "duration": 0.1998,
      "velocity": 101,
      "chip": "ym2612"
    },
    {
      "channel": 0,
      "note": 82,
      "start": 1.9005,
      "duration": 0.0998,
      "velocity": 101,
      "chip": "ym2612"
    },
    {
      "channel": 0,
      "note": 84,
      "start": 2.0005,
      "duration": 0.0164,
      "velocity": 101,
      "chip": "ym2612"
    },
    {
      "channel": 3,
      "note": 69,
      "start": 2.0011,
      "duration": 0.1996,
      "velocity": 127,
      "chip": "ym2612"
    },
    {
      "channel": 0,
      "note": 85,
      "start": 2.0171,
      "duration": 0.0831,
      "velocity": 101,
      "chip": "ym2612"
    },
    {
      "channel": 1,
      "note": 82,
      "start": 2.0506,
      "duration": 0.0996,
      "velocity": 101,
      "chip": "ym2612"
    },
    {
      "channel": 1,
      "note": 84,
      "start": 2.1505,
      "duration": 0.0164,
      "velocity": 101,
      "chip": "ym2612"
    },
    {
      "channel": 1,
      "note": 85,
      "start": 2.1671,
      "duration": 0.0832,
      "velocity": 101,
      "chip": "ym2612"
    },
    {
      "channel": 0,
      "note": 87,
      "start": 2.2004,
      "duration": 0.0998,
      "velocity": 101,
      "chip": "ym2612"
    },
    {
      "channel": 3,
      "note": 69,
      "start": 2.201,
      "duration": 0.0995,
      "velocity": 127,
      "chip": "ym2612"
    },
    {
      "channel": 3,
      "note": 69,
      "start": 2.3008,
      "duration": 0.1,
      "velocity": 127,
      "chip": "ym2612"
    },
    {
      "channel": 1,
      "note": 87,
      "start": 2.3504,
      "duration": 0.0999,
      "velocity": 101,
      "chip": "ym2612"
    },
    {
      "channel": 0,
      "note": 87,
      "start": 2.4004,
      "duration": 0.5502,
      "velocity": 101,
      "chip": "ym2612"
    },
    {
      "channel": 3,
      "note": 69,
      "start": 2.4012,
      "duration": 0.1993,
      "velocity": 127,
      "chip": "ym2612"
    },
    {
      "channel": 1,
      "note": 87,
      "start": 2.5505,
      "duration": 0.5501,
      "velocity": 101,
      "chip": "ym2612"
    },
    {
      "channel": 3,
      "note": 69,
      "start": 2.6009,
      "duration": 0.2001,
      "velocity": 127,
      "chip": "ym2612"
    },
    {
      "channel": 2,
      "note": 45,
      "start": 2.8009,
      "duration": 0.283,
      "velocity": 94,
      "chip": "ym2612"
    },
    {
      "channel": 3,
      "note": 69,
      "start": 2.8015,
      "duration": 0.1996,
      "velocity": 127,
      "chip": "ym2612"
    },
    {
      "channel": 4,
      "note": 57,
      "start": 2.8018,
      "duration": 0.4004,
      "velocity": 122,
      "chip": "ym2612"
    },
    {
      "channel": 0,
      "note": 82,
      "start": 2.9505,
      "duration": 0.0497,
      "velocity": 101,
      "chip": "ym2612"
    },
    {
      "channel": 3,
      "note": 69,
      "start": 3.0015,
      "duration": 0.2002,
      "velocity": 127,
      "chip": "ym2612"
    },
    {
      "channel": 2,
      "note": 43,
      "start": 3.0839,
      "duration": 0.0168,
      "velocity": 94,
      "chip": "ym2612"
    },
    {
      "channel": 1,
      "note": 82,
      "start": 3.1006,
      "duration": 0.0496,
      "velocity": 101,
      "chip": "ym2612"
    },
    {
      "channel": 0,
      "note": 82,
      "start": 3.2014,
      "duration": 0.1988,
      "velocity": 101,
      "chip": "ym2612"
    },
    {
      "channel": 3,
      "note": 69,
      "start": 3.2021,
      "duration": 0.1985,
      "velocity": 127,
      "chip": "ym2612"
    },
    {
      "channel": 4,
      "note": 54,
      "start": 3.2036,
      "duration": 0.3976,
      "velocity": 89,
      "chip": "ym2612"
    },
    {
      "channel": 1,
      "note": 82,
      "start": 3.3515,
      "duration": 0.1987,
      "velocity": 101,
      "chip": "ym2612"
    },
    {
      "channel": 0,
      "note": 85,
      "start": 3.4005,
      "duration": 0.0998,
      "velocity": 101,
      "chip": "ym2612"
    },
    {
      "channel": 3,
      "note": 69,
      "start": 3.4011,
      "duration": 0.1995,
      "velocity": 127,
      "chip": "ym2612"
    },
    {
      "channel": 1,
      "note": 85,
      "start": 3.5505,
      "duration": 0.0999,
      "velocity": 101,
      "chip": "ym2612"
    },
    {
      "channel": 0,
      "note": 85,
      "start": 3.6004,
      "duration": 0.0998,
      "velocity": 101,
      "chip": "ym2612"
    },
    {
      "channel": 3,
      "note": 69,
      "start": 3.6011,
      "duration": 0.1996,
      "velocity": 127,
      "chip": "ym2612"
    },
    {
      "channel": 4,
      "note": 54,
      "start": 3.6014,
      "duration": 0.3998,
      "velocity": 89,
      "chip": "ym2612"
    },
    {
      "channel": 1,
      "note": 85,
      "start": 3.7504,
      "duration": 0.0999,
      "velocity": 101,
      "chip": "ym2612"
    },
    {
      "channel": 0,
      "note": 82,
      "start": 3.8004,
      "duration": 0.0998,
      "velocity": 101,
      "chip": "ym2612"
    },
    {
      "channel": 3,
      "note": 69,
      "start": 3.801,
      "duration": 0.0995,
      "velocity": 127,
      "chip": "ym2612"
    },
    {
      "channel": 0,
      "note": 85,
      "start": 3.9004,
      "duration": 0.0998,
      "velocity": 101,
      "chip": "ym2612"
    },
    {
      "channel": 3,
      "note": 69,
      "start": 3.9009,
      "duration": 0.0998,
      "velocity": 127,
      "chip": "ym2612"
    },
    {
      "channel": 1,
      "note": 82,
      "start": 3.9505,
      "duration": 0.0998,
      "velocity": 101,
      "chip": "ym2612"
    },
    {
      "channel": 0,
      "note": 87,
      "start": 4.0004,
      "duration": 0.0998,
      "velocity": 101,
      "chip": "ym2612"
    },
    {
      "channel": 3,
      "note": 69,
      "start": 4.0011,
      "duration": 0.1996,
      "velocity": 127,
      "chip": "ym2612"
    },
    {
      "channel": 4,
      "note": 54,
      "start": 4.0015,
      "duration": 0.3997,
      "velocity": 89,
      "chip": "ym2612"
    },
    {
      "channel": 1,
      "note": 85,
      "start": 4.0505,
      "duration": 0.0997,
      "velocity": 101,
      "chip": "ym2612"
    },
    {
      "channel": 1,
      "note": 87,
      "start": 4.1504,
      "duration": 0.0999,
      "velocity": 101,
      "chip": "ym2612"
    },
    {
      "channel": 0,
      "note": 87,
      "start": 4.2005,
      "duration": 0.0164,
      "velocity": 101,
      "chip": "ym2612"
    },
    {
      "channel": 3,
      "note": 69,
      "start": 4.2011,
      "duration": 0.1996,
      "velocity": 127,
      "chip": "ym2612"
    },
    {
      "channel": 0,
      "note": 89,
      "start": 4.2171,
      "duration": 0.0831,
      "velocity": 101,
      "chip": "ym2612"
    },
    {
      "channel": 1,
      "note": 87,
      "start": 4.3505,
      "duration": 0.0164,
      "velocity": 101,
      "chip": "ym2612"
    },
    {
      "channel": 1,
      "note": 89,
      "start": 4.3671,
      "duration": 0.0832,
      "velocity": 101,
      "chip": "ym2612"
    },
    {
      "channel": 0,
      "note": 80,
      "start": 4.4005,
      "duration": 0.2998,
      "velocity": 101,
      "chip": "ym2612"
    },
    {
      "channel": 3,
      "note": 69,
      "start": 4.4011,
      "duration": 0.1994,
      "velocity": 127,
      "chip": "ym2612"
    },
    {
      "channel": 4,
      "note": 54,
      "start": 4.4015,
      "duration": 0.4,
      "velocity": 89,
      "chip": "ym2612"
    },
    {
      "channel": 1,
      "note": 80,
      "start": 4.5506,
      "duration": 0.2998,
      "velocity": 101,
      "chip": "ym2612"
    },
    {
      "channel": 3,
      "note": 69,
      "start": 4.6009,
      "duration": 0.2,
      "velocity": 127,
      "chip": "ym2612"
    },
    {
      "channel": 0,
      "note": 82,
      "start": 4.8005,
      "duration": 0.0997,
      "velocity": 101,
      "chip": "ym2612"
    },
    {
      "channel": 3,
      "note": 81,
      "start": 4.8015,
      "duration": 0.099,
      "velocity": 127,
      "chip": "ym2612"
    },
    {
      "channel": 4,
      "note": 54,
      "start": 4.8018,
      "duration": 0.3993,
      "velocity": 89,
      "chip": "ym2612"
    },
    {
      "channel": 3,
      "note": 57,
      "start": 4.903,
      "duration": 0.0976,
      "velocity": 122,
      "chip": "ym2612"
    },
    {
      "channel": 1,
      "note": 82,
      "start": 4.9505,
      "duration": 0.0999,
      "velocity": 101,
      "chip": "ym2612"
    },
    {
      "channel": 0,
      "note": 85,
      "start": 5.0005,
      "duration": 0.1498,
      "velocity": 101,
      "chip": "ym2612"
    },
    {
      "channel": 3,
      "note": 57,
      "start": 5.0011,
      "duration": 0.0994,
      "velocity": 122,
      "chip": "ym2612"
    },
    {
      "channel": 3,
      "note": 57,
      "start": 5.1007,
      "duration": 0.0999,
      "velocity": 122,
      "chip": "ym2612"
    },
    {
      "channel": 1,
      "note": 85,
      "start": 5.1507,
      "duration": 0.1498,
      "velocity": 101,
      "chip": "ym2612"
    },
    {
      "channel": 0,
      "note": 85,
      "start": 5.2005,
      "duration": 0.0998,
      "velocity": 101,
      "chip": "ym2612"
    },
    {
      "channel": 3,
      "note": 57,
      "start": 5.2011,
      "duration": 0.0996,
      "velocity": 122,
      "chip": "ym2612"
    },
    {
      "channel": 4,
      "note": 54,
      "start": 5.2013,
      "duration": 0.3999,
      "velocity": 89,
      "chip": "ym2612"
    },
    {
      "channel": 3,
      "note": 57,
      "start": 5.301,
      "duration": 0.0997,
      "velocity": 122,
      "chip": "ym2612"
    },
    {
      "channel": 1,
      "note": 85,
      "start": 5.3505,
      "duration": 0.0999,
      "velocity": 101,
      "chip": "ym2612"
    },
    {
      "channel": 0,
      "note": 85,
      "start": 5.4005,
      "duration": 0.0331,
      "velocity": 101,
      "chip": "ym2612"
    },
    {
      "channel": 3,
      "note": 57,
      "start": 5.4011,
      "duration": 0.0994,
      "velocity": 122,
      "chip": "ym2612"
    },
    {
      "channel": 0,
      "note": 87,
      "start": 5.4338,
      "duration": 0.1665,
      "velocity": 101,
      "chip": "ym2612"
    },
    {
      "channel": 3,
      "note": 57,
      "start": 5.5007,
      "duration": 0.1,
      "velocity": 122,
      "chip": "ym2612"
    },
    {
      "channel": 1,
      "note": 85,
      "start": 5.5506,
      "duration": 0.0331,
      "velocity": 101,
      "chip": "ym2612"
    },
    {
      "channel": 1,
      "note": 87,
      "start": 5.5839,
      "duration": 0.1664,
      "velocity": 101,
      "chip": "ym2612"
    },
    {
      "channel": 0,
      "note": 80,
      "start": 5.6005,
      "duration": 0.3682,
      "velocity": 101,
      "chip": "ym2612"
    },
    {
      "channel": 3,
      "note": 57,
      "start": 5.6011,
      "duration": 0.0994,
      "velocity": 122,
      "chip": "ym2612"
    },
    {
      "channel": 4,
      "note": 54,
      "start": 5.6015,
      "duration": 0.368,
      "velocity": 89,
      "chip": "ym2612"
    },
    {
      "channel": 3,
      "note": 57,
      "start": 5.7009,
      "duration": 0.0996,
      "velocity": 122,
      "chip": "ym2612"
    },
    {
      "channel": 1,
      "note": 80,
      "start": 5.7506,
      "duration": 0.2251,
      "velocity": 101,
      "chip": "ym2612"
    },
    {
      "channel": 3,
      "note": 57,
      "start": 5.8009,
      "duration": 0.0996,
      "velocity": 122,
      "chip": "ym2612"
    },
    {
      "channel": 3,
      "note": 57,
      "start": 5.9009,
      "duration": 0.0682,
      "velocity": 122,
      "chip": "ym2612"
    },
    {
      "channel": 3,
      "note": 57,
      "start": 5.9694,
      "duration": 0.017,
      "velocity": 122,
      "chip": "ym2612"
    },
    {
      "channel": 4,
      "note": 54,
      "start": 5.9696,
      "duration": 0.018,
      "velocity": 89,
      "chip": "ym2612"
    },
    {
      "channel": 0,
      "note": 77,
      "start": 5.986,
      "duration": 0.015,
      "velocity": 103,
      "chip": "ym2612"
    },
    {
      "channel": 2,
      "note": 49,
      "start": 5.9863,
      "duration": 0.015,
      "velocity": 94,
      "chip": "ym2612"
    },
    {
      "channel": 3,
      "note": 69,
      "start": 5.9875,
      "duration": 0.006,
      "velocity": 127,
      "chip": "ym2612"
    },
    {
      "channel": 4,
      "note": 54,
      "start": 5.9888,
      "duration": 0.0261,
      "velocity": 89,
      "chip": "ym2612"
    },
    {
      "channel": 3,
      "note": 57,
      "start": 5.9948,
      "duration": 0.0068,
      "velocity": 122,
      "chip": "ym2612"
    },
    {
      "channel": 1,
      "note": 77,
      "start": 5.9983,
      "duration": 0.0119,
      "velocity": 103,
      "chip": "ym2612"
    },
    {
      "channel": 0,
      "note": 80,
      "start": 6.0012,
      "duration": 0.0066,
      "velocity": 103,
      "chip": "ym2612"
    },
    {
      "channel": 2,
      "note": 49,
      "start": 6.0015,
      "duration": 0.0038,
      "velocity": 94,
      "chip": "ym2612"
    },
    {
      "channel": 3,
      "note": 69,
      "start": 6.0027,
      "duration": 0.0107,
      "velocity": 127,
      "chip": "ym2612"
    },
    {
      "channel": 2,
      "note": 49,
      "start": 6.008,
      "duration": 0.0024,
      "velocity": 94,
      "chip": "ym2612"
    },
    {
      "channel": 1,
      "note": 80,
      "start": 6.0103,
      "duration": 0.0073,
      "velocity": 103,
      "chip": "ym2612"
    },
    {
      "channel": 0,
      "note": 80,
      "start": 6.013,
      "duration": 0.0127,
      "velocity": 103,
      "chip": "ym2612"
    },
    {
      "channel": 2,
      "note": 49,
      "start": 6.0133,
      "duration": 0.0069,
      "velocity": 94,
      "chip": "ym2612"
    },
    {
      "channel": 3,
      "note": 57,
      "start": 6.0149,
      "duration": 0.0113,
      "velocity": 122,
      "chip": "ym2612"
    },
    {
      "channel": 4,
      "note": 54,
      "start": 6.0151,
      "duration": 0.0185,
      "velocity": 89,
      "chip": "ym2612"
    },
    {
      "channel": 2,
      "note": 49,
      "start": 6.0204,
      "duration": 0.0128,
      "velocity": 94,
      "chip": "ym2612"
    },
    {
      "channel": 1,
      "note": 80,
      "start": 6.023,
      "duration": 0.0141,
      "velocity": 103,
      "chip": "ym2612"
    },
    {
      "channel": 0,
      "note": 82,
      "start": 6.0259,
      "duration": 0.0071,
      "velocity": 103,
      "chip": "ym2612"
    },
    {
      "channel": 3,
      "note": 69,
      "start": 6.0273,
      "duration": 0.0129,
      "velocity": 127,
      "chip": "ym2612"
    },
    {
      "channel": 2,
      "note": 49,
      "start": 6.0334,
      "duration": 0.004,
      "velocity": 94,
      "chip": "ym2612"
    },
    {
      "channel": 4,
      "note": 57,
      "start": 6.0349,
      "duration": 0.0065,
      "velocity": 122,
      "chip": "ym2612"
    },
    {
      "channel": 1,
      "note": 82,
      "start": 6.0373,
      "duration": 0.0079,
      "velocity": 103,
      "chip": "ym2612"
    },
    {
      "channel": 0,
      "note": 77,
      "start": 6.0398,
      "duration": 0.0078,
      "velocity": 103,
      "chip": "ym2612"
    },
    {
      "channel": 2,
      "note": 49,
      "start": 6.0401,
      "duration": 0.0078,
      "velocity": 94,
      "chip": "ym2612"
    },
    {
      "channel": 3,
      "note": 69,
      "start": 6.0413,
      "duration": 0.0124,
      "velocity": 127,
      "chip": "ym2612"
    },
    {
      "channel": 4,
      "note": 54,
      "start": 6.0427,
      "duration": 0.0251,
      "velocity": 89,
      "chip": "ym2612"
    },
    {
      "channel": 0,
      "note": 75,
      "start": 6.0478,
      "duration": 0.0054,
      "velocity": 103,
      "chip": "ym2612"
    },
    {
      "channel": 2,
      "note": 49,
      "start": 6.0481,
      "duration": 0.0027,
      "velocity": 94,
      "chip": "ym2612"
    },
    {
      "channel": 1,
      "note": 77,
      "start": 6.0507,
      "duration": 0.0067,
      "velocity": 103,
      "chip": "ym2612"
    },
    {
      "channel": 0,
      "note": 70,
      "start": 6.0534,
      "duration": 0.0127,
      "velocity": 103,
      "chip": "ym2612"
    },
    {
      "channel": 2,
      "note": 49,
      "start": 6.0537,
      "duration": 0.0127,
      "velocity": 94,
      "chip": "ym2612"
    },
    {
      "channel": 3,
      "note": 69,
      "start": 6.0548,
      "duration": 0.0117,
      "velocity": 127,
      "chip": "ym2612"
    },
    {
      "channel": 1,
      "note": 75,
      "start": 6.0576,
      "duration": 0.0057,
      "velocity": 103,
      "chip": "ym2612"
    },
    {
      "channel": 1,
      "note": 70,
      "start": 6.0634,
      "duration": 0.0132,
      "velocity": 103,
      "chip": "ym2612"
    },
    {
      "channel": 0,
      "note": 73,
      "start": 6.0662,
      "duration": 0.143,
      "velocity": 103,
      "chip": "ym2612"
    },
    {
      "channel": 2,
      "note": 49,
      "start": 6.0666,
      "duration": 0.0429,
      "velocity": 94,
      "chip": "ym2612"
    },
    {
      "channel": 3,
      "note": 57,
      "start": 6.0677,
      "duration": 0.042,
      "velocity": 122,
      "chip": "ym2612"
    },
    {
      "channel": 4,
      "note": 54,
      "start": 6.0679,
      "duration": 0.142,
      "velocity": 89,
      "chip": "ym2612"
    },
    {
      "channel": 1,
      "note": 73,
      "start": 6.0768,
      "duration": 0.2826,
      "velocity": 103,
      "chip": "ym2612"
    },
    {
      "channel": 2,
      "note": 49,
      "start": 6.1097,
      "duration": 0.0498,
      "velocity": 94,
      "chip": "ym2612"
    },
    {
      "channel": 3,
      "note": 69,
      "start": 6.111,
      "duration": 0.199,
      "velocity": 127,
      "chip": "ym2612"
    },
    {
      "channel": 2,
      "note": 49,
      "start": 6.2097,
      "duration": 0.0496,
      "velocity": 94,
      "chip": "ym2612"
    },
    {
      "channel": 4,
      "note": 57,
      "start": 6.2114,
      "duration": 0.1,
      "velocity": 122,
      "chip": "ym2612"
    },
    {
      "channel": 0,
      "note": 77,
      "start": 6.3095,
      "duration": 0.0998,
      "velocity": 103,
      "chip": "ym2612"
    },
    {
      "channel": 2,
      "note": 49,
      "start": 6.3099,
      "duration": 0.1995,
      "velocity": 94,
      "chip": "ym2612"
    },
    {
      "channel": 3,
      "note": 69,
      "start": 6.3113,
      "duration": 0.0983,
      "velocity": 127,
      "chip": "ym2612"
    },
    {
      "channel": 4,
      "note": 54,
      "start": 6.3128,
      "duration": 0.3985,
      "velocity": 89,
      "chip": "ym2612"
    },
    {
      "channel": 0,
      "note": 75,
      "start": 6.4095,
      "duration": 0.1998,
      "velocity": 103,
      "chip": "ym2612"
    },
    {
      "channel": 3,
      "note": 57,
      "start": 6.4111,
      "duration": 0.0987,
      "velocity": 122,
      "chip": "ym2612"
    },
    {
      "channel": 1,
      "note": 77,
      "start": 6.4595,
      "duration": 0.0998,
      "velocity": 103,
      "chip": "ym2612"
    },
    {
      "channel": 2,
      "note": 49,
      "start": 6.5097,
      "duration": 0.05,
      "velocity": 94,
      "chip": "ym2612"
    },
    {
      "channel": 3,
      "note": 69,
      "start": 6.511,
      "duration": 0.1989,
      "velocity": 127,
      "chip": "ym2612"
    },
    {
      "channel": 1,
      "note": 75,
      "start": 6.5596,
      "duration": 0.1998,
      "velocity": 103,
      "chip": "ym2612"
    },
    {
      "channel": 0,
      "note": 70,
      "start": 6.6095,
      "duration": 0.0998,
      "velocity": 103,
      "chip": "ym2612"
    },
    {
      "channel": 2,
      "note": 49,
      "start": 6.6098,
      "duration": 0.0496,
      "velocity": 94,
      "chip": "ym2612"
    },
    {
      "channel": 0,
      "note": 73,
      "start": 6.7094,
      "duration": 0.0998,
      "velocity": 103,
      "chip": "ym2612"
    },
    {
      "channel": 2,
      "note": 49,
      "start": 6.7098,
      "duration": 0.0997,
      "velocity": 94,
      "chip": "ym2612"
    },
    {
      "channel": 3,
      "note": 57,
      "start": 6.7112,
      "duration": 0.1985,
      "velocity": 122,
      "chip": "ym2612"
    },
    {
      "channel": 4,
      "note": 54,
      "start": 6.7116,
      "duration": 0.2983,
      "velocity": 89,
      "chip": "ym2612"
    },
    {
      "channel": 1,
      "note": 70,
      "start": 6.7596,
      "duration": 0.0996,
      "velocity": 103,
      "chip": "ym2612"
    },
    {
      "channel": 2,
      "note": 49,
      "start": 6.8097,
      "duration": 0.1997,
      "velocity": 94,
      "chip": "ym2612"
    },
    {
      "channel": 1,
      "note": 73,
      "start": 6.8594,
      "duration": 0.0999,
      "velocity": 103,
      "chip": "ym2612"
    },
    {
      "channel": 0,
      "note": 75,
      "start": 6.9094,
      "duration": 0.0998,
      "velocity": 103,
      "chip": "ym2612"
    },
    {
      "channel": 3,
      "note": 69,
      "start": 6.9109,
      "duration": 0.199,
      "velocity": 127,
      "chip": "ym2612"
    },
    {
      "channel": 2,
      "note": 49,
      "start": 7.0097,
      "duration": 0.0499,
      "velocity": 94,
      "chip": "ym2612"
    },
    {
      "channel": 4,
      "note": 57,
      "start": 7.0114,
      "duration": 0.0999,
      "velocity": 122,
      "chip": "ym2612"
    },
    {
      "channel": 1,
      "note": 75,
      "start": 7.0594,
      "duration": 0.0999,
      "velocity": 103,
      "chip": "ym2612"
    },
    {
      "channel": 0,
      "note": 75,
      "start": 7.1093,
      "duration": 0.5668,
      "velocity": 103,
      "chip": "ym2612"
    },
    {
      "channel": 2,
      "note": 56,
      "start": 7.1099,
      "duration": 0.0994,
      "velocity": 94,
      "chip": "ym2612"
    },
    {
      "channel": 3,
      "note": 69,
      "start": 7.1112,
      "duration": 0.0984,
      "velocity": 127,
      "chip": "ym2612"
    },
    {
      "channel": 4,
      "note": 54,
      "start": 7.1127,
      "duration": 0.3987,
      "velocity": 89,
      "chip": "ym2612"
    },
    {
      "channel": 2,
      "note": 56,
      "start": 7.2096,
      "duration": 0.0501,
      "velocity": 94,
      "chip": "ym2612"
    },
    {
      "channel": 3,
      "note": 57,
      "start": 7.2111,
      "duration": 0.0986,
      "velocity": 122,
      "chip": "ym2612"
    },
    {
      "channel": 1,
      "note": 75,
      "start": 7.2595,
      "duration": 0.5667,
      "velocity": 103,
      "chip": "ym2612"
    },
    {
      "channel": 2,
      "note": 56,
      "start": 7.3097,
      "duration": 0.2,
      "velocity": 94,
      "chip": "ym2612"
    },
    {
      "channel": 3,
      "note": 69,
      "start": 7.311,
      "duration": 0.1989,
      "velocity": 127,
      "chip": "ym2612"
    },
    {
      "channel": 2,
      "note": 56,
      "start": 7.5098,
      "duration": 0.2004,
      "velocity": 94,
      "chip": "ym2612"
    },
    {
      "channel": 3,
      "note": 57,
      "start": 7.5112,
      "duration": 0.1993,
      "velocity": 122,
      "chip": "ym2612"
    },
    {
      "channel": 4,
      "note": 54,
      "start": 7.5116,
      "duration": 0.2002,
      "velocity": 89,
      "chip": "ym2612"
    },
    {
      "channel": 0,
      "note": 62,
      "start": 7.6761,
      "duration": 0.0331,
      "velocity": 103,
      "chip": "ym2612"
    },
    {
      "channel": 2,
      "note": 56,
      "start": 7.7105,
      "duration": 0.049,
      "velocity": 94,
      "chip": "ym2612"
    },
    {
      "channel": 3,
      "note": 69,
      "start": 7.7117,
      "duration": 0.1982,
      "velocity": 127,
      "chip": "ym2612"
    },
    {
      "channel": 4,
      "note": 54,
      "start": 7.7121,
      "duration": 0.0977,
      "velocity": 89,
      "chip": "ym2612"
    },
    {
      "channel": 2,
      "note": 56,
      "start": 7.8095,
      "duration": 0.0506,
      "velocity": 94,
      "chip": "ym2612"
    },
    {
      "channel": 4,
      "note": 57,
      "start": 7.8112,
      "duration": 0.1001,
      "velocity": 122,
      "chip": "ym2612"
    },
    {
      "channel": 1,
      "note": 62,
      "start": 7.8261,
      "duration": 0.0331,
      "velocity": 103,
      "chip": "ym2612"
    },
    {
      "channel": 0,
      "note": 70,
      "start": 7.9096,
      "duration": 0.1996,
      "velocity": 103,
      "chip": "ym2612"
    },
    {
      "channel": 2,
      "note": 54,
      "start": 7.9099,
      "duration": 0.1998,
      "velocity": 94,
      "chip": "ym2612"
    },
    {
      "channel": 3,
      "note": 69,
      "start": 7.9113,
      "duration": 0.0981,
      "velocity": 127,
      "chip": "ym2612"
    },
    {
      "channel": 4,
      "note": 54,
      "start": 7.9128,
      "duration": 0.3987,
      "velocity": 89,
      "chip": "ym2612"
    },
    {
      "channel": 3,
      "note": 57,
      "start": 8.0109,
      "duration": 0.099,
      "velocity": 122,
      "chip": "ym2612"
    },
    {
      "channel": 1,
      "note": 70,
      "start": 8.0597,
      "duration": 0.1998,
      "velocity": 103,
      "chip": "ym2612"
    },
    {
      "channel": 0,
      "note": 73,
      "start": 8.1095,
      "duration": 0.1498,
      "velocity": 103,
      "chip": "ym2612"
    },
    {
      "channel": 2,
      "note": 54,
      "start": 8.1099,
      "duration": 0.0495,
      "velocity": 94,
      "chip": "ym2612"
    },
    {
      "channel": 3,
      "note": 69,
      "start": 8.1112,
      "duration": 0.1987,
      "velocity": 127,
      "chip": "ym2612"
    },
    {
      "channel": 2,
      "note": 54,
      "start": 8.2097,
      "duration": 0.0501,
      "velocity": 94,
      "chip": "ym2612"
    },
    {
      "channel": 1,
      "note": 73,
      "start": 8.2597,
      "duration": 0.1496,
      "velocity": 103,
      "chip": "ym2612"
    },
    {
      "channel": 0,
      "note": 73,
      "start": 8.3095,
      "duration": 0.1498,
      "velocity": 103,
      "chip": "ym2612"
    },
    {
      "channel": 2,
      "note": 54,
      "start": 8.3099,
      "duration": 0.0996,
      "velocity": 94,
      "chip": "ym2612"
    },
    {
      "channel": 3,
      "note": 57,
      "start": 8.3114,
      "duration": 0.1983,
      "velocity": 122,
      "chip": "ym2612"
    },
    {
      "channel": 4,
      "note": 54,
      "start": 8.3117,
      "duration": 0.2983,
      "velocity": 89,
      "chip": "ym2612"
    },
    {
      "channel": 2,
      "note": 54,
      "start": 8.4098,
      "duration": 0.2,
      "velocity": 94,
      "chip": "ym2612"
    },
    {
      "channel": 1,
      "note": 73,
      "start": 8.4597,
      "duration": 0.1497,
      "velocity": 103,
      "chip": "ym2612"
    },
    {
      "channel": 0,
      "note": 70,
      "start": 8.5095,
      "duration": 0.0998,
      "velocity": 103,
      "chip": "ym2612"
    },
    {
      "channel": 3,
      "note": 69,
      "start": 8.511,
      "duration": 0.1989,
      "velocity": 127,
      "chip": "ym2612"
    },
    {
      "channel": 0,
      "note": 73,
      "start": 8.6094,
      "duration": 0.0998,
      "velocity": 103,
      "chip": "ym2612"
    },
    {
      "channel": 2,
      "note": 54,
      "start": 8.6099,
      "duration": 0.0498,
      "velocity": 94,
      "chip": "ym2612"
    },
    {
      "channel": 4,
      "note": 57,
      "start": 8.6116,
      "duration": 0.0996,
      "velocity": 122,
      "chip": "ym2612"
    },
    {
      "channel": 1,
      "note": 70,
      "start": 8.6596,
      "duration": 0.0998,
      "velocity": 103,
      "chip": "ym2612"
    },
    {
      "channel": 0,
      "note": 75,
      "start": 8.7095,
      "duration": 0.1498,
      "velocity": 103,
      "chip": "ym2612"
    },
    {
      "channel": 2,
      "note": 58,
      "start": 8.7098,
      "duration": 0.0996,
      "velocity": 94,
      "chip": "ym2612"
    },
    {
      "channel": 3,
      "note": 69,
      "start": 8.7112,
      "duration": 0.1987,
      "velocity": 127,
      "chip": "ym2612"
    },
    {
      "channel": 4,
      "note": 54,
      "start": 8.7126,
      "duration": 0.3987,
      "velocity": 89,
      "chip": "ym2612"
    },
    {
      "channel": 1,
      "note": 73,
      "start": 8.7595,
      "duration": 0.0999,
      "velocity": 103,
      "chip": "ym2612"
    },
    {
      "channel": 2,
      "note": 58,
      "start": 8.8097,
      "duration": 0.0501,
      "velocity": 94,
      "chip": "ym2612"
    },
    {
      "channel": 1,
      "note": 75,
      "start": 8.8597,
      "duration": 0.1497,
      "velocity": 103,
      "chip": "ym2612"
    },
    {
      "channel": 0,
      "note": 77,
      "start": 8.9095,
      "duration": 0.1998,
      "velocity": 103,
      "chip": "ym2612"
    },
    {
      "channel": 2,
      "note": 58,
      "start": 8.9098,
      "duration": 0.1998,
      "velocity": 94,
      "chip": "ym2612"
    },
    {
      "channel": 3,
      "note": 69,
      "start": 8.9112,
      "duration": 0.1987,
      "velocity": 127,
      "chip": "ym2612"
    },
    {
      "channel": 1,
      "note": 77,
      "start": 9.0596,
      "duration": 0.1998,
      "velocity": 103,
      "chip": "ym2612"
    },
    {
      "channel": 0,
      "note": 68,
      "start": 9.1095,
      "duration": 0.2998,
      "velocity": 103,
      "chip": "ym2612"
    },
    {
      "channel": 2,
      "note": 56,
      "start": 9.1098,
      "duration": 0.1996,
      "velocity": 94,
      "chip": "ym2612"
    },
    {
      "channel": 3,
      "note": 57,
      "start": 9.1112,
      "duration": 0.1985,
      "velocity": 122,
      "chip": "ym2612"
    },
    {
      "channel": 4,
      "note": 54,
      "start": 9.1116,
      "duration": 0.2984,
      "velocity": 89,
      "chip": "ym2612"
    },
    {
      "channel": 1,
      "note": 68,
      "start": 9.2596,
      "duration": 0.2998,
      "velocity": 103,
      "chip": "ym2612"
    },
    {
      "channel": 2,
      "note": 56,
      "start": 9.3097,
      "duration": 0.0498,
      "velocity": 94,
      "chip": "ym2612"
    },
    {
      "channel": 3,
      "note": 69,
      "start": 9.311,
      "duration": 0.1991,
      "velocity": 127,
      "chip": "ym2612"
    },
    {
      "channel": 2,
      "note": 56,
      "start": 9.4097,
      "duration": 0.0496,
      "velocity": 94,
      "chip": "ym2612"
    },
    {
      "channel": 4,
      "note": 57,
      "start": 9.4114,
      "duration": 0.1,
      "velocity": 122,
      "chip": "ym2612"
    },
    {
      "channel": 0,
      "note": 68,
      "start": 9.5094,
      "duration": 0.2,
      "velocity": 103,
      "chip": "ym2612"
    },
    {
      "channel": 2,
      "note": 54,
      "start": 9.51,
      "duration": 0.1995,
      "velocity": 94,
      "chip": "ym2612"
    },
    {
      "channel": 3,
      "note": 69,
      "start": 9.5114,
      "duration": 0.0981,
      "velocity": 127,
      "chip": "ym2612"
    },
    {
      "channel": 4,
      "note": 54,
      "start": 9.5128,
      "duration": 0.1984,
      "velocity": 89,
      "chip": "ym2612"
    },
    {
      "channel": 3,
      "note": 57,
      "start": 9.6109,
      "duration": 0.099,
      "velocity": 122,
      "chip": "ym2612"
    },
    {
      "channel": 1,
      "note": 68,
      "start": 9.6595,
      "duration": 0.2002,
      "velocity": 103,
      "chip": "ym2612"
    },
    {
      "channel": 0,
      "note": 73,
      "start": 9.7095,
      "duration": 0.1498,
      "velocity": 103,
      "chip": "ym2612"
    },
    {
      "channel": 2,
      "note": 54,
      "start": 9.7098,
      "duration": 0.0496,
      "velocity": 94,
      "chip": "ym2612"
    },
    {
      "channel": 3,
      "note": 69,
      "start": 9.7112,
      "duration": 0.1987,
      "velocity": 127,
      "chip": "ym2612"
    },
    {
      "channel": 4,
      "note": 57,
      "start": 9.7128,
      "duration": 0.0971,
      "velocity": 122,
      "chip": "ym2612"
    },
    {
      "channel": 2,
      "note": 54,
      "start": 9.8097,
      "duration": 0.0501,
      "velocity": 94,
      "chip": "ym2612"
    },
    {
      "channel": 4,
      "note": 57,
      "start": 9.8102,
      "duration": 0.1012,
      "velocity": 122,
      "chip": "ym2612"
    },
    {
      "channel": 1,
      "note": 73,
      "start": 9.8597,
      "duration": 0.1498,
      "velocity": 103,
      "chip": "ym2612"
    },
    {
      "channel": 0,
      "note": 73,
      "start": 9.9095,
      "duration": 0.0998,
      "velocity": 103,
      "chip": "ym2612"
    },
    {
      "channel": 2,
      "note": 55,
      "start": 9.9098,
      "duration": 0.0998,
      "velocity": 94,
      "chip": "ym2612"
    },
    {
      "channel": 3,
      "note": 57,
      "start": 9.9113,
      "duration": 0.0986,
      "velocity": 122,
      "chip": "ym2612"
    },
    {
      "channel": 4,
      "note": 54,
      "start": 9.9127,
      "duration": 0.0976,
      "velocity": 89,
      "chip": "ym2612"
    },
    {
      "channel": 2,
      "note": 55,
      "start": 10.0098,
      "duration": 0.1996,
      "velocity": 94,
      "chip": "ym2612"
    },
    {
      "channel": 3,
      "note": 57,
      "start": 10.0102,
      "duration": 0.0995,
      "velocity": 122,
      "chip": "ym2612"
    },
    {
      "channel": 4,
      "note": 54,
      "start": 10.0105,
      "duration": 0.1995,
      "velocity": 89,
      "chip": "ym2612"
    },
    {
      "channel": 1,
      "note": 73,
      "start": 10.0595,
      "duration": 0.0999,
      "velocity": 103,
      "chip": "ym2612"
    },
    {
      "channel": 0,
      "note": 75,
      "start": 10.1094,
      "duration": 0.0998,
      "velocity": 103,
      "chip": "ym2612"
    },
    {
      "channel": 2,
      "note": 55,
      "start": 10.2097,
      "duration": 0.0499,
      "velocity": 94,
      "chip": "ym2612"
    },
    {
      "channel": 3,
      "note": 57,
      "start": 10.21,
      "duration": 0.0999,
      "velocity": 122,
      "chip": "ym2612"
    },
    {
      "channel": 4,
      "note": 54,
      "start": 10.2104,
      "duration": 0.2996,
      "velocity": 89,
      "chip": "ym2612"
    },
    {
      "channel": 1,
      "note": 75,
      "start": 10.2594,
      "duration": 0.0999,
      "velocity": 103,
      "chip": "ym2612"
    },
    {
      "channel": 0,
      "note": 68,
      "start": 10.3095,
      "duration": 0.3998,
      "velocity": 103,
      "chip": "ym2612"
    },
    {
      "channel": 2,
      "note": 56,
      "start": 10.3098,
      "duration": 0.0995,
      "velocity": 94,
      "chip": "ym2612"
    },
    {
      "channel": 3,
      "note": 57,
      "start": 10.3103,
      "duration": 0.016,
      "velocity": 122,
      "chip": "ym2612"
    },
    {
      "channel": 3,
      "note": 57,
      "start": 10.3266,
      "duration": 0.1831,
      "velocity": 122,
      "chip": "ym2612"
    },
    {
      "channel": 2,
      "note": 56,
      "start": 10.4096,
      "duration": 0.0501,
      "velocity": 94,
      "chip": "ym2612"
    },
    {
      "channel": 1,
      "note": 68,
      "start": 10.4596,
      "duration": 0.3996,
      "velocity": 103,
      "chip": "ym2612"
    },
    {
      "channel": 2,
      "note": 56,
      "start": 10.5097,
      "duration": 0.1999,
      "velocity": 94,
      "chip": "ym2612"
    },
    {
      "channel": 4,
      "note": 54,
      "start": 10.5102,
      "duration": 0.4006,
      "velocity": 89,
      "chip": "ym2612"
    },
    {
      "channel": 2,
      "note": 56,
      "start": 10.7098,
      "duration": 0.0996,
      "velocity": 94,
      "chip": "ym2612"
    },
    {
      "channel": 3,
      "note": 57,
      "start": 10.71,
      "duration": 0.1995,
      "velocity": 122,
      "chip": "ym2612"
    },
    {
      "channel": 2,
      "note": 44,
      "start": 10.9095,
      "duration": 0.2002,
      "velocity": 94,
      "chip": "ym2612"
    },
    {
      "channel": 3,
      "note": 69,
      "start": 10.9107,
      "duration": 0.1992,
      "velocity": 127,
      "chip": "ym2612"
    },
    {
      "channel": 4,
      "note": 54,
      "start": 10.9111,
      "duration": 0.2002,
      "velocity": 89,
      "chip": "ym2612"
    },
    {
      "channel": 0,
      "note": 77,
      "start": 11.1095,
      "duration": 0.1997,
      "velocity": 103,
      "chip": "ym2612"
    },
    {
      "channel": 2,
      "note": 49,
      "start": 11.1099,
      "duration": 0.1998,
      "velocity": 94,
      "chip": "ym2612"
    },
    {
      "channel": 3,
      "note": 69,
      "start": 11.1112,
      "duration": 0.0982,
      "velocity": 127,
      "chip": "ym2612"
    },
    {
      "channel": 4,
      "note": 54,
      "start": 11.1128,
      "duration": 0.3987,
      "velocity": 89,
      "chip": "ym2612"
    },
    {
      "channel": 3,
      "note": 57,
      "start": 11.2109,
      "duration": 0.099,
      "velocity": 122,
      "chip": "ym2612"
    },
    {
      "channel": 1,
      "note": 77,
      "start": 11.2597,
      "duration": 0.1995,
      "velocity": 103,
      "chip": "ym2612"
    },
    {
      "channel": 0,
      "note": 80,
      "start": 11.3095,
      "duration": 0.0998,
      "velocity": 103,
      "chip": "ym2612"
    },
    {
      "channel": 2,
      "note": 49,
      "start": 11.3098,
      "duration": 0.0496,
      "velocity": 94,
      "chip": "ym2612"
    },
    {
      "channel": 3,
      "note": 69,
      "start": 11.3112,
      "duration": 0.1987,
      "velocity": 127,
      "chip": "ym2612"
    },
    {
      "channel": 2,
      "note": 49,
      "start": 11.4097,
      "duration": 0.0498,
      "velocity": 94,
      "chip": "ym2612"
    },
    {
      "channel": 1,
      "note": 80,
      "start": 11.4595,
      "duration": 0.0999,
      "velocity": 103,
      "chip": "ym2612"
    },
    {
      "channel": 0,
      "note": 80,
      "start": 11.5095,
      "duration": 0.1998,
      "velocity": 103,
      "chip": "ym2612"
    },
    {
      "channel": 2,
      "note": 49,
      "start": 11.5098,
      "duration": 0.0995,
      "velocity": 94,
      "chip": "ym2612"
    },
    {
      "channel": 3,
      "note": 57,
      "start": 11.5114,
      "duration": 0.1984,
      "velocity": 122,
      "chip": "ym2612"
    },
    {
      "channel": 4,
      "note": 54,
      "start": 11.5117,
      "duration": 0.2983,
      "velocity": 89,
      "chip": "ym2612"
    },
    {
      "channel": 2,
      "note": 49,
      "start": 11.6096,
      "duration": 0.1999,
      "velocity": 94,
      "chip": "ym2612"
    },
    {
      "channel": 1,
      "note": 80,
      "start": 11.6596,
      "duration": 0.1996,
      "velocity": 103,
      "chip": "ym2612"
    },
    {
      "channel": 0,
      "note": 82,
      "start": 11.7095,
      "duration": 0.0998,
      "velocity": 103,
      "chip": "ym2612"
    },
    {
      "channel": 3,
      "note": 69,
      "start": 11.711,
      "duration": 0.1989,
      "velocity": 127,
      "chip": "ym2612"
    },
    {
      "channel": 2,
      "note": 49,
      "start": 11.8097,
      "duration": 0.0498,
      "velocity": 94,
      "chip": "ym2612"
    },
    {
      "channel": 4,
      "note": 57,
      "start": 11.8114,
      "duration": 0.0998,
      "velocity": 122,
      "chip": "ym2612"
    },
    {
      "channel": 1,
      "note": 82,
      "start": 11.8595,
      "duration": 0.0999,
      "velocity": 103,
      "chip": "ym2612"
    },
    {
      "channel": 0,
      "note": 77,
      "start": 11.9094,
      "duration": 0.0998,
      "velocity": 103,
      "chip": "ym2612"
    },
    {
      "channel": 2,
      "note": 49,
      "start": 11.9098,
      "duration": 0.0997,
      "velocity": 94,
      "chip": "ym2612"
    },
    {
      "channel": 3,
      "note": 69,
      "start": 11.9111,
      "duration": 0.1988,
      "velocity": 127,
      "chip": "ym2612"
    },
    {
      "channel": 4,
      "note": 54,
      "start": 11.9126,
      "duration": 0.3987,
      "velocity": 89,
      "chip": "ym2612"
    },
    {
      "channel": 0,
      "note": 75,
      "start": 12.0094,
      "duration": 0.0998,
      "velocity": 103,
      "chip": "ym2612"
    },
    {
      "channel": 2,
      "note": 49,
      "start": 12.0097,
      "duration": 0.0499,
      "velocity": 94,
      "chip": "ym2612"
    },
    {
      "channel": 1,
      "note": 77,
      "start": 12.0595,
      "duration": 0.0998,
      "velocity": 103,
      "chip": "ym2612"
    },
    {
      "channel": 0,
      "note": 70,
      "start": 12.1095,
      "duration": 0.1998,
      "velocity": 103,
      "chip": "ym2612"
    },
    {
      "channel": 2,
      "note": 49,
      "start": 12.1098,
      "duration": 0.1998,
      "velocity": 94,
      "chip": "ym2612"
    },
    {
      "channel": 3,
      "note": 69,
      "start": 12.1112,
      "duration": 0.1987,
      "velocity": 127,
      "chip": "ym2612"
    },
    {
      "channel": 1,
      "note": 75,
      "start": 12.1595,
      "duration": 0.0998,
      "velocity": 103,
      "chip": "ym2612"
    },
    {
      "channel": 1,
      "note": 70,
      "start": 12.2596,
      "duration": 0.1998,
      "velocity": 103,
      "chip": "ym2612"
    },
    {
      "channel": 0,
      "note": 73,
      "start": 12.3095,
      "duration": 0.2998,
      "velocity": 103,
      "chip": "ym2612"
    },
    {
      "channel": 2,
      "note": 49,
      "start": 12.3098,
      "duration": 0.1996,
      "velocity": 94,
      "chip": "ym2612"
    },
    {
      "channel": 3,
      "note": 57,
      "start": 12.3112,
      "duration": 0.1985,
      "velocity": 122,
      "chip": "ym2612"
    },
    {
      "channel": 4,
      "note": 54,
      "start": 12.3116,
      "duration": 0.2984,
      "velocity": 89,
      "chip": "ym2612"
    },
    {
      "channel": 1,
      "note": 73,
      "start": 12.4596,
      "duration": 0.2998,
      "velocity": 103,
      "chip": "ym2612"
    },
    {
      "channel": 2,
      "note": 49,
      "start": 12.5097,
      "duration": 0.0498,
      "velocity": 94,
      "chip": "ym2612"
    },
    {
      "channel": 3,
      "note": 69,
      "start": 12.511,
      "duration": 0.199,
      "velocity": 127,
      "chip": "ym2612"
    },
    {
      "channel": 2,
      "note": 49,
      "start": 12.6097,
      "duration": 0.0496,
      "velocity": 94,
      "chip": "ym2612"
    },
    {
      "channel": 4,
      "note": 57,
      "start": 12.6114,
      "duration": 0.1,
      "velocity": 122,
      "chip": "ym2612"
    },
    {
      "channel": 0,
      "note": 77,
      "start": 12.7095,
      "duration": 0.0998,
      "velocity": 103,
      "chip": "ym2612"
    },
    {
      "channel": 2,
      "note": 49,
      "start": 12.7099,
      "duration": 0.1995,
      "velocity": 94,
      "chip": "ym2612"
    },
    {
      "channel": 3,
      "note": 69,
      "start": 12.7113,
      "duration": 0.0983,
      "velocity": 127,
      "chip": "ym2612"
    },
    {
      "channel": 4,
      "note": 54,
      "start": 12.7128,
      "duration": 0.3985,
      "velocity": 89,
      "chip": "ym2612"
    },
    {
      "channel": 0,
      "note": 75,
      "start": 12.8095,
      "duration": 0.1998,
      "velocity": 103,
      "chip": "ym2612"
    },
    {
      "channel": 3,
      "note": 57,
      "start": 12.8111,
      "duration": 0.0987,
      "velocity": 122,
      "chip": "ym2612"
    },
    {
      "channel": 1,
      "note": 77,
      "start": 12.8595,
      "duration": 0.0998,
      "velocity": 103,
      "chip": "ym2612"
    },
    {
      "channel": 2,
      "note": 49,
      "start": 12.9097,
      "duration": 0.05,
      "velocity": 94,
      "chip": "ym2612"
    },
    {
      "channel": 3,
      "note": 69,
      "start": 12.911,
      "duration": 0.1989,
      "velocity": 127,
      "chip": "ym2612"
    },
    {
      "channel": 1,
      "note": 75,
      "start": 12.9596,
      "duration": 0.1998,
      "velocity": 103,
      "chip": "ym2612"
    },
    {
      "channel": 0,
      "note": 70,
      "start": 13.0095,
      "duration": 0.0998,
      "velocity": 103,
      "chip": "ym2612"
    },
    {
      "channel": 2,
      "note": 49,
      "start": 13.0098,
      "duration": 0.0496,
      "velocity": 94,
      "chip": "ym2612"
    },
    {
      "channel": 0,
      "note": 73,
      "start": 13.1094,
      "duration": 0.0998,
      "velocity": 103,
      "chip": "ym2612"
    },
    {
      "channel": 2,
      "note": 49,
      "start": 13.1098,
      "duration": 0.0997,
      "velocity": 94,
      "chip": "ym2612"
    },
    {
      "channel": 3,
      "note": 57,
      "start": 13.1112,
      "duration": 0.1985,
      "velocity": 122,
      "chip": "ym2612"
    },
    {
      "channel": 4,
      "note": 54,
      "start": 13.1116,
      "duration": 0.2983,
      "velocity": 89,
      "chip": "ym2612"
    },
    {
      "channel": 1,
      "note": 70,
      "start": 13.1596,
      "duration": 0.0996,
      "velocity": 103,
      "chip": "ym2612"
    },
    {
      "channel": 2,
      "note": 49,
      "start": 13.2097,
      "duration": 0.1997,
      "velocity": 94,
      "chip": "ym2612"
    },
    {
      "channel": 1,
      "note": 73,
      "start": 13.2594,
      "duration": 0.0999,
      "velocity": 103,
      "chip": "ym2612"
    },
    {
      "channel": 0,
      "note": 75,
      "start": 13.3094,
      "duration": 0.0998,
      "velocity": 103,
      "chip": "ym2612"
    },
    {
      "channel": 3,
      "note": 69,
      "start": 13.3109,
      "duration": 0.199,
      "velocity": 127,
      "chip": "ym2612"
    },
    {
      "channel": 2,
      "note": 49,
      "start": 13.4097,
      "duration": 0.0499,
      "velocity": 94,
      "chip": "ym2612"
    },
    {
      "channel": 4,
      "note": 57,
      "start": 13.4114,
      "duration": 0.0999,
      "velocity": 122,
      "chip": "ym2612"
    },
    {
      "channel": 1,
      "note": 75,
      "start": 13.4594,
      "duration": 0.0999,
      "velocity": 103,
      "chip": "ym2612"
    },
    {
      "channel": 0,
      "note": 75,
      "start": 13.5093,
      "duration": 0.5668,
      "velocity": 103,
      "chip": "ym2612"
    },
    {
      "channel": 2,
      "note": 56,
      "start": 13.5099,
      "duration": 0.0994,
      "velocity": 94,
      "chip": "ym2612"
    },
    {
      "channel": 3,
      "note": 69,
      "start": 13.5112,
      "duration": 0.0984,
      "velocity": 127,
      "chip": "ym2612"
    },
    {
      "channel": 4,
      "note": 54,
      "start": 13.5127,
      "duration": 0.3987,
      "velocity": 89,
      "chip": "ym2612"
    },
    {
      "channel": 2,
      "note": 56,
      "start": 13.6096,
      "duration": 0.0501,
      "velocity": 94,
      "chip": "ym2612"
    },
    {
      "channel": 3,
      "note": 57,
      "start": 13.6111,
      "duration": 0.0986,
      "velocity": 122,
      "chip": "ym2612"
    },
    {
      "channel": 1,
      "note": 75,
      "start": 13.6595,
      "duration": 0.5667,
      "velocity": 103,
      "chip": "ym2612"
    },
    {
      "channel": 2,
      "note": 56,
      "start": 13.7097,
      "duration": 0.2,
      "velocity": 94,
      "chip": "ym2612"
    },
    {
      "channel": 3,
      "note": 69,
      "start": 13.711,
      "duration": 0.1989,
      "velocity": 127,
      "chip": "ym2612"
    },
    {
      "channel": 2,
      "note": 56,
      "start": 13.9098,
      "duration": 0.2004,
      "velocity": 94,
      "chip": "ym2612"
    },
    {
      "channel": 3,
      "note": 57,
      "start": 13.9112,
      "duration": 0.1993,
      "velocity": 122,
      "chip": "ym2612"
    },
    {
      "channel": 4,
      "note": 54,
      "start": 13.9116,
      "duration": 0.2002,
      "velocity": 89,
      "chip": "ym2612"
    },
    {
      "channel": 0,
      "note": 62,
      "start": 14.0761,
      "duration": 0.0331,
      "velocity": 103,
      "chip": "ym2612"
    },
    {
      "channel": 2,
      "note": 56,
      "start": 14.1105,
      "duration": 0.049,
      "velocity": 94,
      "chip": "ym2612"
    },
    {
      "channel": 3,
      "note": 69,
      "start": 14.1117,
      "duration": 0.1982,
      "velocity": 127,
      "chip": "ym2612"
    },
    {
      "channel": 4,
      "note": 54,
      "start": 14.1121,
      "duration": 0.0977,
      "velocity": 89,
      "chip": "ym2612"
    },
    {
      "channel": 2,
      "note": 56,
      "start": 14.2095,
      "duration": 0.0506,
      "velocity": 94,
      "chip": "ym2612"
    },
    {
      "channel": 4,
      "note": 57,
      "start": 14.2112,
      "duration": 0.1001,
      "velocity": 122,
      "chip": "ym2612"
    },
    {
      "channel": 1,
      "note": 62,
      "start": 14.2261,
      "duration": 0.0331,
      "velocity": 103,
      "chip": "ym2612"
    },
    {
      "channel": 0,
      "note": 70,
      "start": 14.3095,
      "duration": 0.0997,
      "velocity": 103,
      "chip": "ym2612"
    },
    {
      "channel": 2,
      "note": 54,
      "start": 14.3099,
      "duration": 0.1997,
      "velocity": 94,
      "chip": "ym2612"
    },
    {
      "channel": 3,
      "note": 69,
      "start": 14.3113,
      "duration": 0.0982,
      "velocity": 127,
      "chip": "ym2612"
    },
    {
      "channel": 4,
      "note": 54,
      "start": 14.3128,
      "duration": 0.3987,
      "velocity": 89,
      "chip": "ym2612"
    },
    {
      "channel": 3,
      "note": 57,
      "start": 14.411,
      "duration": 0.0989,
      "velocity": 122,
      "chip": "ym2612"
    },
    {
      "channel": 1,
      "note": 70,
      "start": 14.4595,
      "duration": 0.0998,
      "velocity": 103,
      "chip": "ym2612"
    },
    {
      "channel": 0,
      "note": 73,
      "start": 14.5094,
      "duration": 0.0998,
      "velocity": 103,
      "chip": "ym2612"
    },
    {
      "channel": 2,
      "note": 54,
      "start": 14.5098,
      "duration": 0.0497,
      "velocity": 94,
      "chip": "ym2612"
    },
    {
      "channel": 3,
      "note": 69,
      "start": 14.5112,
      "duration": 0.1987,
      "velocity": 127,
      "chip": "ym2612"
    },
    {
      "channel": 2,
      "note": 54,
      "start": 14.6096,
      "duration": 0.0499,
      "velocity": 94,
      "chip": "ym2612"
    },
    {
      "channel": 1,
      "note": 73,
      "start": 14.6594,
      "duration": 0.0999,
      "velocity": 103,
      "chip": "ym2612"
    },
    {
      "channel": 0,
      "note": 73,
      "start": 14.7094,
      "duration": 0.0998,
      "velocity": 103,
      "chip": "ym2612"
    },
    {
      "channel": 2,
      "note": 54,
      "start": 14.7098,
      "duration": 0.0996,
      "velocity": 94,
      "chip": "ym2612"
    },
    {
      "channel": 3,
      "note": 57,
      "start": 14.7114,
      "duration": 0.1984,
      "velocity": 122,
      "chip": "ym2612"
    },
    {
      "channel": 4,
      "note": 54,
      "start": 14.7117,
      "duration": 0.2981,
      "velocity": 89,
      "chip": "ym2612"
    },
    {
      "channel": 2,
      "note": 54,
      "start": 14.8097,
      "duration": 0.1998,
      "velocity": 94,
      "chip": "ym2612"
    },
    {
      "channel": 1,
      "note": 73,
      "start": 14.8594,
      "duration": 0.0999,
      "velocity": 103,
      "chip": "ym2612"
    },
    {
      "channel": 0,
      "note": 70,
      "start": 14.9095,
      "duration": 0.0831,
      "velocity": 103,
      "chip": "ym2612"
    },
    {
      "channel": 3,
      "note": 69,
      "start": 14.911,
      "duration": 0.1988,
      "velocity": 127,
      "chip": "ym2612"
    },
    {
      "channel": 0,
      "note": 73,
      "start": 14.9927,
      "duration": 0.0831,
      "velocity": 103,
      "chip": "ym2612"
    },
    {
      "channel": 2,
      "note": 54,
      "start": 15.0096,
      "duration": 0.0501,
      "velocity": 94,
      "chip": "ym2612"
    },
    {
      "channel": 4,
      "note": 57,
      "start": 15.0113,
      "duration": 0.0998,
      "velocity": 122,
      "chip": "ym2612"
    },
    {
      "channel": 1,
      "note": 70,
      "start": 15.0596,
      "duration": 0.0831,
      "velocity": 103,
      "chip": "ym2612"
    },
    {
      "channel": 0,
      "note": 75,
      "start": 15.0761,
      "duration": 0.1331,
      "velocity": 103,
      "chip": "ym2612"
    },
    {
      "channel": 2,
      "note": 58,
      "start": 15.1097,
      "duration": 0.0999,
      "velocity": 94,
      "chip": "ym2612"
    },
    {
      "channel": 3,
      "note": 69,
      "start": 15.111,
      "duration": 0.1989,
      "velocity": 127,
      "chip": "ym2612"
    },
    {
      "channel": 4,
      "note": 54,
      "start": 15.1124,
      "duration": 0.3989,
      "velocity": 89,
      "chip": "ym2612"
    },
    {
      "channel": 1,
      "note": 73,
      "start": 15.1429,
      "duration": 0.083,
      "velocity": 103,
      "chip": "ym2612"
    },
    {
      "channel": 2,
      "note": 58,
      "start": 15.2098,
      "duration": 0.0496,
      "velocity": 94,
      "chip": "ym2612"
    },
    {
      "channel": 1,
      "note": 75,
      "start": 15.2261,
      "duration": 0.1332,
      "velocity": 103,
      "chip": "ym2612"
    },
    {
      "channel": 0,
      "note": 77,
      "start": 15.3094,
      "duration": 0.0998,
      "velocity": 103,
      "chip": "ym2612"
    },
    {
      "channel": 2,
      "note": 58,
      "start": 15.3098,
      "duration": 0.1998,
      "velocity": 94,
      "chip": "ym2612"
    },
    {
      "channel": 3,
      "note": 69,
      "start": 15.3111,
      "duration": 0.1987,
      "velocity": 127,
      "chip": "ym2612"
    },
    {
      "channel": 1,
      "note": 77,
      "start": 15.4594,
      "duration": 0.0999,
      "velocity": 103,
      "chip": "ym2612"
    },
    {
      "channel": 0,
      "note": 80,
      "start": 15.5094,
      "duration": 0.0998,
      "velocity": 103,
      "chip": "ym2612"
    },
    {
      "channel": 2,
      "note": 56,
      "start": 15.5098,
      "duration": 0.1999,
      "velocity": 94,
      "chip": "ym2612"
    },
    {
      "channel": 3,
      "note": 57,
      "start": 15.5112,
      "duration": 0.1988,
      "velocity": 122,
      "chip": "ym2612"
    },
    {
      "channel": 4,
      "note": 54,
      "start": 15.5115,
      "duration": 0.2982,
      "velocity": 89,
      "chip": "ym2612"
    },
    {
      "channel": 1,
      "note": 80,
      "start": 15.6594,
      "duration": 0.0999,
      "velocity": 103,
      "chip": "ym2612"
    },
    {
      "channel": 0,
      "note": 80,
      "start": 15.7093,
      "duration": 0.1834,
      "velocity": 103,
      "chip": "ym2612"
    },
    {
      "channel": 2,
      "note": 56,
      "start": 15.7099,
      "duration": 0.0496,
      "velocity": 94,
      "chip": "ym2612"
    },
    {
      "channel": 3,
      "note": 69,
      "start": 15.7112,
      "duration": 0.1991,
      "velocity": 127,
      "chip": "ym2612"
    },
    {
      "channel": 2,
      "note": 56,
      "start": 15.8095,
      "duration": 0.0501,
      "velocity": 94,
      "chip": "ym2612"
    },
    {
      "channel": 4,
      "note": 57,
      "start": 15.8112,
      "duration": 0.1004,
      "velocity": 122,
      "chip": "ym2612"
    },
    {
      "channel": 1,
      "note": 80,
      "start": 15.8595,
      "duration": 0.1835,
      "velocity": 103,
      "chip": "ym2612"
    },
    {
      "channel": 0,
      "note": 79,
      "start": 15.8928,
      "duration": 0.0165,
      "velocity": 103,
      "chip": "ym2612"
    },
    {
      "channel": 0,
      "note": 79,
      "start": 15.9097,
      "duration": 0.0164,
      "velocity": 103,
      "chip": "ym2612"
    },
    {
      "channel": 2,
      "note": 54,
      "start": 15.9102,
      "duration": 0.1994,
      "velocity": 94,
      "chip": "ym2612"
    },
    {
      "channel": 3,
      "note": 69,
      "start": 15.9116,
      "duration": 0.0982,
      "velocity": 127,
      "chip": "ym2612"
    },
    {
      "channel": 4,
      "note": 54,
      "start": 15.913,
      "duration": 0.3983,
      "velocity": 89,
      "chip": "ym2612"
    },
    {
      "channel": 0,
      "note": 76,
      "start": 15.9261,
      "duration": 0.0831,
      "velocity": 103,
      "chip": "ym2612"
    },
    {
      "channel": 0,
      "note": 75,
      "start": 16.0095,
      "duration": 0.0498,
      "velocity": 103,
      "chip": "ym2612"
    },
    {
      "channel": 3,
      "note": 57,
      "start": 16.0112,
      "duration": 0.0987,
      "velocity": 122,
      "chip": "ym2612"
    },
    {
      "channel": 1,
      "note": 79,
      "start": 16.0429,
      "duration": 0.0165,
      "velocity": 103,
      "chip": "ym2612"
    },
    {
      "channel": 1,
      "note": 79,
      "start": 16.0598,
      "duration": 0.0163,
      "velocity": 103,
      "chip": "ym2612"
    },
    {
      "channel": 1,
      "note": 76,
      "start": 16.0761,
      "duration": 0.0832,
      "velocity": 103,
      "chip": "ym2612"
    },
    {
      "channel": 0,
      "note": 73,
      "start": 16.1095,
      "duration": 0.1998,
      "velocity": 103,
      "chip": "ym2612"
    },
    {
      "channel": 2,
      "note": 54,
      "start": 16.1098,
      "duration": 0.0498,
      "velocity": 94,
      "chip": "ym2612"
    },
    {
      "channel": 3,
      "note": 69,
      "start": 16.1112,
      "duration": 0.1987,
      "velocity": 127,
      "chip": "ym2612"
    },
    {
      "channel": 1,
      "note": 75,
      "start": 16.1596,
      "duration": 0.0498,
      "velocity": 103,
      "chip": "ym2612"
    },
    {
      "channel": 2,
      "note": 54,
      "start": 16.2097,
      "duration": 0.0499,
      "velocity": 94,
      "chip": "ym2612"
    },
    {
      "channel": 1,
      "note": 73,
      "start": 16.2596,
      "duration": 0.1996,
      "velocity": 103,
      "chip": "ym2612"
    },
    {
      "channel": 0,
      "note": 75,
      "start": 16.3095,
      "duration": 0.0998,
      "velocity": 103,
      "chip": "ym2612"
    },
    {
      "channel": 2,
      "note": 56,
      "start": 16.3098,
      "duration": 0.0997,
      "velocity": 94,
      "chip": "ym2612"
    },
    {
      "channel": 3,
      "note": 57,
      "start": 16.3112,
      "duration": 0.1985,
      "velocity": 122,
      "chip": "ym2612"
    },
    {
      "channel": 4,
      "note": 54,
      "start": 16.3116,
      "duration": 0.2983,
      "velocity": 89,
      "chip": "ym2612"
    },
    {
      "channel": 2,
      "note": 56,
      "start": 16.4097,
      "duration": 0.1997,
      "velocity": 94,
      "chip": "ym2612"
    },
    {
      "channel": 1,
      "note": 75,
      "start": 16.4595,
      "duration": 0.0999,
      "velocity": 103,
      "chip": "ym2612"
    },
    {
      "channel": 0,
      "note": 70,
      "start": 16.5094,
      "duration": 0.0998,
      "velocity": 103,
      "chip": "ym2612"
    },
    {
      "channel": 3,
      "note": 69,
      "start": 16.5109,
      "duration": 0.199,
      "velocity": 127,
      "chip": "ym2612"
    },
    {
      "channel": 2,
      "note": 56,
      "start": 16.6097,
      "duration": 0.0499,
      "velocity": 94,
      "chip": "ym2612"
    },
    {
      "channel": 4,
      "note": 57,
      "start": 16.6114,
      "duration": 0.0999,
      "velocity": 122,
      "chip": "ym2612"
    },
    {
      "channel": 1,
      "note": 70,
      "start": 16.6594,
      "duration": 0.0999,
      "velocity": 103,
      "chip": "ym2612"
    },
    {
      "channel": 0,
      "note": 70,
      "start": 16.7093,
      "duration": 0.0334,
      "velocity": 103,
      "chip": "ym2612"
    },
    {
      "channel": 2,
      "note": 49,
      "start": 16.7099,
      "duration": 0.0994,
      "velocity": 94,
      "chip": "ym2612"
    },
    {
      "channel": 3,
      "note": 69,
      "start": 16.7112,
      "duration": 0.0984,
      "velocity": 127,
      "chip": "ym2612"
    },
    {
      "channel": 4,
      "note": 54,
      "start": 16.7127,
      "duration": 0.1985,
      "velocity": 89,
      "chip": "ym2612"
    },
    {
      "channel": 0,
      "note": 73,
      "start": 16.7428,
      "duration": 0.3664,
      "velocity": 103,
      "chip": "ym2612"
    },
    {
      "channel": 2,
      "note": 49,
      "start": 16.8096,
      "duration": 0.0501,
      "velocity": 94,
      "chip": "ym2612"
    },
    {
      "channel": 3,
      "note": 57,
      "start": 16.8111,
      "duration": 0.0987,
      "velocity": 122,
      "chip": "ym2612"
    },
    {
      "channel": 1,
      "note": 70,
      "start": 16.8595,
      "duration": 0.0334,
      "velocity": 103,
      "chip": "ym2612"
    },
    {
      "channel": 1,
      "note": 73,
      "start": 16.8929,
      "duration": 0.3674,
      "velocity": 103,
      "chip": "ym2612"
    },
    {
      "channel": 2,
      "note": 49,
      "start": 16.9097,
      "duration": 0.2006,
      "velocity": 94,
      "chip": "ym2612"
    },
    {
      "channel": 3,
      "note": 69,
      "start": 16.9111,
      "duration": 0.1995,
      "velocity": 127,
      "chip": "ym2612"
    },
    {
      "channel": 4,
      "note": 57,
      "start": 16.9126,
      "duration": 0.0971,
      "velocity": 122,
      "chip": "ym2612"
    },
    {
      "channel": 4,
      "note": 57,
      "start": 17.01,
      "duration": 0.102,
      "velocity": 122,
      "chip": "ym2612"
    },
    {
      "channel": 0,
      "note": 49,
      "start": 17.1102,
      "duration": 0.0324,
      "velocity": 103,
      "chip": "ym2612"
    },
    {
      "channel": 2,
      "note": 49,
      "start": 17.1105,
      "duration": 0.2007,
      "velocity": 94,
      "chip": "ym2612"
    },
    {
      "channel": 3,
      "note": 57,
      "start": 17.112,
      "duration": 0.1995,
      "velocity": 122,
      "chip": "ym2612"
    },
    {
      "channel": 4,
      "note": 54,
      "start": 17.1134,
      "duration": 0.1987,
      "velocity": 89,
      "chip": "ym2612"
    },
    {
      "channel": 0,
      "note": 49,
      "start": 17.1602,
      "duration": 0.0324,
      "velocity": 103,
      "chip": "ym2612"
    },
    {
      "channel": 0,
      "note": 49,
      "start": 17.2102,
      "duration": 0.0324,
      "velocity": 103,
      "chip": "ym2612"
    },
    {
      "channel": 0,
      "note": 49,
      "start": 17.2602,
      "duration": 0.0324,
      "velocity": 103,
      "chip": "ym2612"
    },
    {
      "channel": 1,
      "note": 49,
      "start": 17.2612,
      "duration": 0.0316,
      "velocity": 103,
      "chip": "ym2612"
    },
    {
      "channel": 0,
      "note": 49,
      "start": 17.3102,
      "duration": 0.0324,
      "velocity": 103,
      "chip": "ym2612"
    },
    {
      "channel": 1,
      "note": 49,
      "start": 17.3112,
      "duration": 0.0316,
      "velocity": 103,
      "chip": "ym2612"
    },
    {
      "channel": 2,
      "note": 49,
      "start": 17.3114,
      "duration": 0.0498,
      "velocity": 94,
      "chip": "ym2612"
    },
    {
      "channel": 3,
      "note": 57,
      "start": 17.312,
      "duration": 0.0995,
      "velocity": 122,
      "chip": "ym2612"
    },
    {
      "channel": 4,
      "note": 54,
      "start": 17.3123,
      "duration": 0.2011,
      "velocity": 89,
      "chip": "ym2612"
    },
    {
      "channel": 0,
      "note": 49,
      "start": 17.3602,
      "duration": 0.0324,
      "velocity": 103,
      "chip": "ym2612"
    },
    {
      "channel": 1,
      "note": 49,
      "start": 17.3612,
      "duration": 0.0316,
      "velocity": 103,
      "chip": "ym2612"
    },
    {
      "channel": 0,
      "note": 49,
      "start": 17.4102,
      "duration": 0.0324,
      "velocity": 103,
      "chip": "ym2612"
    },
    {
      "channel": 1,
      "note": 49,
      "start": 17.4112,
      "duration": 0.0316,
      "velocity": 103,
      "chip": "ym2612"
    },
    {
      "channel": 2,
      "note": 49,
      "start": 17.4114,
      "duration": 0.0498,
      "velocity": 94,
      "chip": "ym2612"
    },
    {
      "channel": 3,
      "note": 57,
      "start": 17.4118,
      "duration": 0.1001,
      "velocity": 122,
      "chip": "ym2612"
    },
    {
      "channel": 0,
      "note": 49,
      "start": 17.4602,
      "duration": 0.0324,
      "velocity": 103,
      "chip": "ym2612"
    },
    {
      "channel": 1,
      "note": 49,
      "start": 17.4612,
      "duration": 0.0316,
      "velocity": 103,
      "chip": "ym2612"
    },
    {
      "channel": 0,
      "note": 73,
      "start": 17.5107,
      "duration": 0.1985,
      "velocity": 113,
      "chip": "ym2612"
    },
    {
      "channel": 1,
      "note": 49,
      "start": 17.5117,
      "duration": 0.031,
      "velocity": 103,
      "chip": "ym2612"
    },
    {
      "channel": 3,
      "note": 69,
      "start": 17.5133,
      "duration": 0.0971,
      "velocity": 127,
      "chip": "ym2612"
    },
    {
      "channel": 4,
      "note": 54,
      "start": 17.5147,
      "duration": 0.2951,
      "velocity": 89,
      "chip": "ym2612"
    },
    {
      "channel": 1,
      "note": 49,
      "start": 17.5603,
      "duration": 0.0324,
      "velocity": 103,
      "chip": "ym2612"
    },
    {
      "channel": 1,
      "note": 49,
      "start": 17.6103,
      "duration": 0.0324,
      "velocity": 103,
      "chip": "ym2612"
    },
    {
      "channel": 3,
      "note": 57,
      "start": 17.6118,
      "duration": 0.0979,
      "velocity": 122,
      "chip": "ym2612"
    },
    {
      "channel": 1,
      "note": 73,
      "start": 17.6607,
      "duration": 0.1987,
      "velocity": 113,
      "chip": "ym2612"
    },
    {
      "channel": 0,
      "note": 77,
      "start": 17.7095,
      "duration": 0.0997,
      "velocity": 113,
      "chip": "ym2612"
    },
    {
      "channel": 3,
      "note": 69,
      "start": 17.711,
      "duration": 0.1987,
      "velocity": 127,
      "chip": "ym2612"
    },
    {
      "channel": 0,
      "note": 68,
      "start": 17.8095,
      "duration": 0.0998,
      "velocity": 113,
      "chip": "ym2612"
    },
    {
      "channel": 4,
      "note": 57,
      "start": 17.8113,
      "duration": 0.0998,
      "velocity": 122,
      "chip": "ym2612"
    },
    {
      "channel": 1,
      "note": 77,
      "start": 17.8597,
      "duration": 0.0997,
      "velocity": 113,
      "chip": "ym2612"
    },
    {
      "channel": 0,
      "note": 69,
      "start": 17.9095,
      "duration": 0.0998,
      "velocity": 113,
      "chip": "ym2612"
    },
    {
      "channel": 3,
      "note": 57,
      "start": 17.9111,
      "duration": 0.0987,
      "velocity": 122,
      "chip": "ym2612"
    },
    {
      "channel": 4,
      "note": 54,
      "start": 17.9124,
      "duration": 0.2971,
      "velocity": 89,
      "chip": "ym2612"
    },
    {
      "channel": 1,
      "note": 68,
      "start": 17.9596,
      "duration": 0.0998,
      "velocity": 113,
      "chip": "ym2612"
    },
    {
      "channel": 0,
      "note": 70,
      "start": 18.0095,
      "duration": 0.0998,
      "velocity": 113,
      "chip": "ym2612"
    },
    {
      "channel": 3,
      "note": 57,
      "start": 18.01,
      "duration": 0.0996,
      "velocity": 122,
      "chip": "ym2612"
    },
    {
      "channel": 1,
      "note": 69,
      "start": 18.0596,
      "duration": 0.0998,
      "velocity": 113,
      "chip": "ym2612"
    },
    {
      "channel": 0,
      "note": 73,
      "start": 18.1095,
      "duration": 0.1998,
      "velocity": 113,
      "chip": "ym2612"
    },
    {
      "channel": 3,
      "note": 69,
      "start": 18.1109,
      "duration": 0.1988,
      "velocity": 127,
      "chip": "ym2612"
    },
    {
      "channel": 1,
      "note": 70,
      "start": 18.1596,
      "duration": 0.0998,
      "velocity": 113,
      "chip": "ym2612"
    },
    {
      "channel": 4,
      "note": 57,
      "start": 18.2111,
      "duration": 0.1,
      "velocity": 122,
      "chip": "ym2612"
    },
    {
      "channel": 1,
      "note": 73,
      "start": 18.2595,
      "duration": 0.1998,
      "velocity": 113,
      "chip": "ym2612"
    },
    {
      "channel": 0,
      "note": 77,
      "start": 18.3095,
      "duration": 0.0997,
      "velocity": 113,
      "chip": "ym2612"
    },
    {
      "channel": 3,
      "note": 69,
      "start": 18.311,
      "duration": 0.0987,
      "velocity": 127,
      "chip": "ym2612"
    },
    {
      "channel": 4,
      "note": 54,
      "start": 18.3124,
      "duration": 0.2973,
      "velocity": 89,
      "chip": "ym2612"
    },
    {
      "channel": 0,
      "note": 68,
      "start": 18.4095,
      "duration": 0.0998,
      "velocity": 113,
      "chip": "ym2612"
    },
    {
      "channel": 3,
      "note": 57,
      "start": 18.4112,
      "duration": 0.0984,
      "velocity": 122,
      "chip": "ym2612"
    },
    {
      "channel": 1,
      "note": 77,
      "start": 18.4597,
      "duration": 0.0997,
      "velocity": 113,
      "chip": "ym2612"
    },
    {
      "channel": 0,
      "note": 70,
      "start": 18.5094,
      "duration": 0.0998,
      "velocity": 113,
      "chip": "ym2612"
    },
    {
      "channel": 3,
      "note": 69,
      "start": 18.5109,
      "duration": 0.1989,
      "velocity": 127,
      "chip": "ym2612"
    },
    {
      "channel": 1,
      "note": 68,
      "start": 18.5596,
      "duration": 0.0998,
      "velocity": 113,
      "chip": "ym2612"
    },
    {
      "channel": 0,
      "note": 73,
      "start": 18.6094,
      "duration": 0.0998,
      "velocity": 113,
      "chip": "ym2612"
    },
    {
      "channel": 4,
      "note": 57,
      "start": 18.6112,
      "duration": 0.0999,
      "velocity": 122,
      "chip": "ym2612"
    },
    {
      "channel": 1,
      "note": 70,
      "start": 18.6595,
      "duration": 0.0998,
      "velocity": 113,
      "chip": "ym2612"
    },
    {
      "channel": 0,
      "note": 75,
      "start": 18.7095,
      "duration": 0.1997,
      "velocity": 113,
      "chip": "ym2612"
    },
    {
      "channel": 3,
      "note": 57,
      "start": 18.7111,
      "duration": 0.0983,
      "velocity": 122,
      "chip": "ym2612"
    },
    {
      "channel": 4,
      "note": 54,
      "start": 18.7125,
      "duration": 0.2971,
      "velocity": 89,
      "chip": "ym2612"
    },
    {
      "channel": 1,
      "note": 73,
      "start": 18.7595,
      "duration": 0.0998,
      "velocity": 113,
      "chip": "ym2612"
    },
    {
      "channel": 3,
      "note": 57,
      "start": 18.8098,
      "duration": 0.1,
      "velocity": 122,
      "chip": "ym2612"
    },
    {
      "channel": 1,
      "note": 75,
      "start": 18.8597,
      "duration": 0.1997,
      "velocity": 113,
      "chip": "ym2612"
    },
    {
      "channel": 0,
      "note": 65,
      "start": 18.9095,
      "duration": 0.1998,
      "velocity": 113,
      "chip": "ym2612"
    },
    {
      "channel": 3,
      "note": 69,
      "start": 18.9109,
      "duration": 0.199,
      "velocity": 127,
      "chip": "ym2612"
    },
    {
      "channel": 4,
      "note": 57,
      "start": 19.0111,
      "duration": 0.1003,
      "velocity": 122,
      "chip": "ym2612"
    },
    {
      "channel": 1,
      "note": 65,
      "start": 19.0596,
      "duration": 0.1998,
      "velocity": 113,
      "chip": "ym2612"
    },
    {
      "channel": 0,
      "note": 66,
      "start": 19.1096,
      "duration": 0.0996,
      "velocity": 113,
      "chip": "ym2612"
    },
    {
      "channel": 3,
      "note": 69,
      "start": 19.1113,
      "duration": 0.0984,
      "velocity": 127,
      "chip": "ym2612"
    },
    {
      "channel": 4,
      "note": 54,
      "start": 19.1128,
      "duration": 0.2969,
      "velocity": 89,
      "chip": "ym2612"
    },
    {
      "channel": 0,
      "note": 61,
      "start": 19.2095,
      "duration": 0.0998,
      "velocity": 113,
      "chip": "ym2612"
    },
    {
      "channel": 3,
      "note": 57,
      "start": 19.2112,
      "duration": 0.0984,
      "velocity": 122,
      "chip": "ym2612"
    },
    {
      "channel": 1,
      "note": 66,
      "start": 19.2597,
      "duration": 0.0997,
      "velocity": 113,
      "chip": "ym2612"
    },
    {
      "channel": 0,
      "note": 63,
      "start": 19.3094,
      "duration": 0.0998,
      "velocity": 113,
      "chip": "ym2612"
    },
    {
      "channel": 3,
      "note": 69,
      "start": 19.3109,
      "duration": 0.1989,
      "velocity": 127,
      "chip": "ym2612"
    },
    {
      "channel": 1,
      "note": 61,
      "start": 19.3596,
      "duration": 0.0998,
      "velocity": 113,
      "chip": "ym2612"
    },
    {
      "channel": 0,
      "note": 64,
      "start": 19.4094,
      "duration": 0.0998,
      "velocity": 113,
      "chip": "ym2612"
    },
    {
      "channel": 4,
      "note": 57,
      "start": 19.4112,
      "duration": 0.0999,
      "velocity": 122,
      "chip": "ym2612"
    },
    {
      "channel": 1,
      "note": 63,
      "start": 19.4595,
      "duration": 0.0998,
      "velocity": 113,
      "chip": "ym2612"
    },
    {
      "channel": 0,
      "note": 66,
      "start": 19.5095,
      "duration": 0.1997,
      "velocity": 113,
      "chip": "ym2612"
    },
    {
      "channel": 3,
      "note": 57,
      "start": 19.5111,
      "duration": 0.0983,
      "velocity": 122,
      "chip": "ym2612"
    },
    {
      "channel": 4,
      "note": 54,
      "start": 19.5125,
      "duration": 0.2971,
      "velocity": 89,
      "chip": "ym2612"
    },
    {
      "channel": 1,
      "note": 64,
      "start": 19.5595,
      "duration": 0.0998,
      "velocity": 113,
      "chip": "ym2612"
    },
    {
      "channel": 3,
      "note": 57,
      "start": 19.6098,
      "duration": 0.1,
      "velocity": 122,
      "chip": "ym2612"
    },
    {
      "channel": 1,
      "note": 66,
      "start": 19.6597,
      "duration": 0.1997,
      "velocity": 113,
      "chip": "ym2612"
    },
    {
      "channel": 0,
      "note": 65,
      "start": 19.7095,
      "duration": 0.1998,
      "velocity": 113,
      "chip": "ym2612"
    },
    {
      "channel": 3,
      "note": 69,
      "start": 19.7109,
      "duration": 0.1988,
      "velocity": 127,
      "chip": "ym2612"
    },
    {
      "channel": 4,
      "note": 57,
      "start": 19.8111,
      "duration": 0.1,
      "velocity": 122,
      "chip": "ym2612"
    },
    {
      "channel": 1,
      "note": 65,
      "start": 19.8596,
      "duration": 0.1998,
      "velocity": 113,
      "chip": "ym2612"
    },
    {
      "channel": 0,
      "note": 63,
      "start": 19.9095,
      "duration": 0.1998,
      "velocity": 113,
      "chip": "ym2612"
    },
    {
      "channel": 3,
      "note": 69,
      "start": 19.911,
      "duration": 0.0985,
      "velocity": 127,
      "chip": "ym2612"
    },
    {
      "channel": 4,
      "note": 54,
      "start": 19.9124,
      "duration": 0.2972,
      "velocity": 89,
      "chip": "ym2612"
    },
    {
      "channel": 3,
      "note": 57,
      "start": 20.0109,
      "duration": 0.0988,
      "velocity": 122,
      "chip": "ym2612"
    },
    {
      "channel": 1,
      "note": 63,
      "start": 20.0596,
      "duration": 0.1998,
      "velocity": 113,
      "chip": "ym2612"
    },
    {
      "channel": 0,
      "note": 61,
      "start": 20.1095,
      "duration": 0.1998,
      "velocity": 113,
      "chip": "ym2612"
    },
    {
      "channel": 3,
      "note": 69,
      "start": 20.1109,
      "duration": 0.1988,
      "velocity": 127,
      "chip": "ym2612"
    },
    {
      "channel": 4,
      "note": 57,
      "start": 20.2111,
      "duration": 0.1,
      "velocity": 122,
      "chip": "ym2612"
    },
    {
      "channel": 1,
      "note": 61,
      "start": 20.2596,
      "duration": 0.1998,
      "velocity": 113,
      "chip": "ym2612"
    },
    {
      "channel": 0,
      "note": 58,
      "start": 20.3095,
      "duration": 0.1998,
      "velocity": 113,
      "chip": "ym2612"
    },
    {
      "channel": 3,
      "note": 57,
      "start": 20.3111,
      "duration": 0.0984,
      "velocity": 122,
      "chip": "ym2612"
    },
    {
      "channel": 4,
      "note": 54,
      "start": 20.3125,
      "duration": 0.1985,
      "velocity": 89,
      "chip": "ym2612"
    },
    {
      "channel": 3,
      "note": 57,
      "start": 20.4098,
      "duration": 0.1,
      "velocity": 122,
      "chip": "ym2612"
    },
    {
      "channel": 1,
      "note": 58,
      "start": 20.4596,
      "duration": 0.1998,
      "velocity": 113,
      "chip": "ym2612"
    },
    {
      "channel": 0,
      "note": 56,
      "start": 20.5095,
      "duration": 0.1998,
      "velocity": 113,
      "chip": "ym2612"
    },
    {
      "channel": 3,
      "note": 69,
      "start": 20.5109,
      "duration": 0.199,
      "velocity": 127,
      "chip": "ym2612"
    },
    {
      "channel": 4,
      "note": 54,
      "start": 20.5112,
      "duration": 0.0983,
      "velocity": 89,
      "chip": "ym2612"
    },
    {
      "channel": 4,
      "note": 57,
      "start": 20.6111,
      "duration": 0.1003,
      "velocity": 122,
      "chip": "ym2612"
    },
    {
      "channel": 1,
      "note": 56,
      "start": 20.6596,
      "duration": 0.1998,
      "velocity": 113,
      "chip": "ym2612"
    },
    {
      "channel": 0,
      "note": 58,
      "start": 20.7095,
      "duration": 0.1997,
      "velocity": 113,
      "chip": "ym2612"
    },
    {
      "channel": 3,
      "note": 69,
      "start": 20.7112,
      "duration": 0.0982,
      "velocity": 127,
      "chip": "ym2612"
    },
    {
      "channel": 4,
      "note": 54,
      "start": 20.7128,
      "duration": 0.2968,
      "velocity": 89,
      "chip": "ym2612"
    },
    {
      "channel": 3,
      "note": 57,
      "start": 20.8109,
      "duration": 0.0988,
      "velocity": 122,
      "chip": "ym2612"
    },
    {
      "channel": 1,
      "note": 58,
      "start": 20.8596,
      "duration": 0.1998,
      "velocity": 113,
      "chip": "ym2612"
    },
    {
      "channel": 0,
      "note": 58,
      "start": 20.9095,
      "duration": 0.1998,
      "velocity": 113,
      "chip": "ym2612"
    },
    {
      "channel": 3,
      "note": 69,
      "start": 20.9109,
      "duration": 0.1988,
      "velocity": 127,
      "chip": "ym2612"
    },
    {
      "channel": 4,
      "note": 57,
      "start": 21.0111,
      "duration": 0.1,
      "velocity": 122,
      "chip": "ym2612"
    },
    {
      "channel": 1,
      "note": 58,
      "start": 21.0596,
      "duration": 0.1998,
      "velocity": 113,
      "chip": "ym2612"
    },
    {
      "channel": 0,
      "note": 61,
      "start": 21.1095,
      "duration": 0.1998,
      "velocity": 113,
      "chip": "ym2612"
    },
    {
      "channel": 3,
      "note": 57,
      "start": 21.1111,
      "duration": 0.0984,
      "velocity": 122,
      "chip": "ym2612"
    },
    {
      "channel": 4,
      "note": 54,
      "start": 21.1124,
      "duration": 0.2971,
      "velocity": 89,
      "chip": "ym2612"
    },
    {
      "channel": 3,
      "note": 57,
      "start": 21.2098,
      "duration": 0.1,
      "velocity": 122,
      "chip": "ym2612"
    },
    {
      "channel": 1,
      "note": 61,
      "start": 21.2596,
      "duration": 0.1998,
      "velocity": 113,
      "chip": "ym2612"
    },
    {
      "channel": 0,
      "note": 61,
      "start": 21.3095,
      "duration": 0.1998,
      "velocity": 113,
      "chip": "ym2612"
    },
    {
      "channel": 3,
      "note": 69,
      "start": 21.3109,
      "duration": 0.1988,
      "velocity": 127,
      "chip": "ym2612"
    },
    {
      "channel": 4,
      "note": 57,
      "start": 21.4111,
      "duration": 0.1,
      "velocity": 122,
      "chip": "ym2612"
    },
    {
      "channel": 1,
      "note": 61,
      "start": 21.4596,
      "duration": 0.1998,
      "velocity": 113,
      "chip": "ym2612"
    },
    {
      "channel": 0,
      "note": 58,
      "start": 21.5095,
      "duration": 0.0997,
      "velocity": 113,
      "chip": "ym2612"
    },
    {
      "channel": 3,
      "note": 69,
      "start": 21.511,
      "duration": 0.0987,
      "velocity": 127,
      "chip": "ym2612"
    },
    {
      "channel": 4,
      "note": 54,
      "start": 21.5124,
      "duration": 0.2973,
      "velocity": 89,
      "chip": "ym2612"
    },
    {
      "channel": 0,
      "note": 56,
      "start": 21.6095,
      "duration": 0.0998,
      "velocity": 113,
      "chip": "ym2612"
    },
    {
      "channel": 3,
      "note": 57,
      "start": 21.6112,
      "duration": 0.0984,
      "velocity": 122,
      "chip": "ym2612"
    },
    {
      "channel": 1,
      "note": 58,
      "start": 21.6597,
      "duration": 0.0997,
      "velocity": 113,
      "chip": "ym2612"
    },
    {
      "channel": 0,
      "note": 58,
      "start": 21.7094,
      "duration": 0.0998,
      "velocity": 113,
      "chip": "ym2612"
    },
    {
      "channel": 3,
      "note": 69,
      "start": 21.7109,
      "duration": 0.1987,
      "velocity": 127,
      "chip": "ym2612"
    },
    {
      "channel": 1,
      "note": 56,
      "start": 21.7596,
      "duration": 0.0998,
      "velocity": 113,
      "chip": "ym2612"
    },
    {
      "channel": 0,
      "note": 61,
      "start": 21.8094,
      "duration": 0.0831,
      "velocity": 113,
      "chip": "ym2612"
    },
    {
      "channel": 4,
      "note": 57,
      "start": 21.8113,
      "duration": 0.0998,
      "velocity": 122,
      "chip": "ym2612"
    },
    {
      "channel": 1,
      "note": 58,
      "start": 21.8595,
      "duration": 0.0998,
      "velocity": 113,
      "chip": "ym2612"
    },
    {
      "channel": 0,
      "note": 58,
      "start": 21.8928,
      "duration": 0.0164,
      "velocity": 113,
      "chip": "ym2612"
    },
    {
      "channel": 0,
      "note": 65,
      "start": 21.9094,
      "duration": 0.0165,
      "velocity": 113,
      "chip": "ym2612"
    },
    {
      "channel": 3,
      "note": 57,
      "start": 21.911,
      "duration": 0.0985,
      "velocity": 122,
      "chip": "ym2612"
    },
    {
      "channel": 4,
      "note": 54,
      "start": 21.9124,
      "duration": 0.2972,
      "velocity": 89,
      "chip": "ym2612"
    },
    {
      "channel": 0,
      "note": 70,
      "start": 21.9262,
      "duration": 0.183,
      "velocity": 113,
      "chip": "ym2612"
    },
    {
      "channel": 1,
      "note": 61,
      "start": 21.9595,
      "duration": 0.0832,
      "velocity": 113,
      "chip": "ym2612"
    },
    {
      "channel": 3,
      "note": 57,
      "start": 22.0098,
      "duration": 0.1,
      "velocity": 122,
      "chip": "ym2612"
    },
    {
      "channel": 1,
      "note": 58,
      "start": 22.0429,
      "duration": 0.0165,
      "velocity": 113,
      "chip": "ym2612"
    },
    {
      "channel": 1,
      "note": 65,
      "start": 22.0595,
      "duration": 0.0165,
      "velocity": 113,
      "chip": "ym2612"
    },
    {
      "channel": 1,
      "note": 70,
      "start": 22.0763,
      "duration": 0.183,
      "velocity": 113,
      "chip": "ym2612"
    },
    {
      "channel": 0,
      "note": 68,
      "start": 22.1095,
      "duration": 0.1998,
      "velocity": 113,
      "chip": "ym2612"
    },
    {
      "channel": 3,
      "note": 69,
      "start": 22.111,
      "duration": 0.199,
      "velocity": 127,
      "chip": "ym2612"
    },
    {
      "channel": 4,
      "note": 57,
      "start": 22.2111,
      "duration": 0.1004,
      "velocity": 122,
      "chip": "ym2612"
    },
    {
      "channel": 1,
      "note": 68,
      "start": 22.2597,
      "duration": 0.1997,
      "velocity": 113,
      "chip": "ym2612"
    },
    {
      "channel": 0,
      "note": 64,
      "start": 22.3097,
      "duration": 0.0995,
      "velocity": 113,
      "chip": "ym2612"
    },
    {
      "channel": 4,
      "note": 54,
      "start": 22.3129,
      "duration": 0.3971,
      "velocity": 89,
      "chip": "ym2612"
    },
    {
      "channel": 0,
      "note": 63,
      "start": 22.4095,
      "duration": 0.0998,
      "velocity": 113,
      "chip": "ym2612"
    },
    {
      "channel": 3,
      "note": 57,
      "start": 22.4105,
      "duration": 0.099,
      "velocity": 122,
      "chip": "ym2612"
    },
    {
      "channel": 1,
      "note": 64,
      "start": 22.4597,
      "duration": 0.0997,
      "velocity": 113,
      "chip": "ym2612"
    },
    {
      "channel": 0,
      "note": 61,
      "start": 22.5094,
      "duration": 0.0998,
      "velocity": 113,
      "chip": "ym2612"
    },
    {
      "channel": 3,
      "note": 57,
      "start": 22.5098,
      "duration": 0.0998,
      "velocity": 122,
      "chip": "ym2612"
    },
    {
      "channel": 1,
      "note": 63,
      "start": 22.5596,
      "duration": 0.0998,
      "velocity": 113,
      "chip": "ym2612"
    },
    {
      "channel": 0,
      "note": 73,
      "start": 22.6094,
      "duration": 0.0998,
      "velocity": 113,
      "chip": "ym2612"
    },
    {
      "channel": 3,
      "note": 57,
      "start": 22.61,
      "duration": 0.0998,
      "velocity": 122,
      "chip": "ym2612"
    },
    {
      "channel": 1,
      "note": 61,
      "start": 22.6595,
      "duration": 0.0998,
      "velocity": 113,
      "chip": "ym2612"
    },
    {
      "channel": 0,
      "note": 63,
      "start": 22.7095,
      "duration": 0.0998,
      "velocity": 113,
      "chip": "ym2612"
    },
    {
      "channel": 3,
      "note": 57,
      "start": 22.7099,
      "duration": 0.0998,
      "velocity": 122,
      "chip": "ym2612"
    },
    {
      "channel": 4,
      "note": 54,
      "start": 22.7102,
      "duration": 0.3999,
      "velocity": 89,
      "chip": "ym2612"
    },
    {
      "channel": 1,
      "note": 73,
      "start": 22.7595,
      "duration": 0.0998,
      "velocity": 113,
      "chip": "ym2612"
    },
    {
      "channel": 0,
      "note": 61,
      "start": 22.8095,
      "duration": 0.0998,
      "velocity": 113,
      "chip": "ym2612"
    },
    {
      "channel": 3,
      "note": 57,
      "start": 22.81,
      "duration": 0.0995,
      "velocity": 122,
      "chip": "ym2612"
    },
    {
      "channel": 1,
      "note": 63,
      "start": 22.8596,
      "duration": 0.0998,
      "velocity": 113,
      "chip": "ym2612"
    },
    {
      "channel": 0,
      "note": 58,
      "start": 22.9094,
      "duration": 0.0998,
      "velocity": 113,
      "chip": "ym2612"
    },
    {
      "channel": 3,
      "note": 57,
      "start": 22.9098,
      "duration": 0.0998,
      "velocity": 122,
      "chip": "ym2612"
    },
    {
      "channel": 1,
      "note": 61,
      "start": 22.9596,
      "duration": 0.0998,
      "velocity": 113,
      "chip": "ym2612"
    },
    {
      "channel": 0,
      "note": 73,
      "start": 23.0094,
      "duration": 0.0999,
      "velocity": 113,
      "chip": "ym2612"
    },
    {
      "channel": 3,
      "note": 57,
      "start": 23.01,
      "duration": 0.0998,
      "velocity": 122,
      "chip": "ym2612"
    },
    {
      "channel": 1,
      "note": 58,
      "start": 23.0595,
      "duration": 0.0998,
      "velocity": 113,
      "chip": "ym2612"
    },
    {
      "channel": 0,
      "note": 68,
      "start": 23.1095,
      "duration": 0.0997,
      "velocity": 113,
      "chip": "ym2612"
    },
    {
      "channel": 3,
      "note": 57,
      "start": 23.11,
      "duration": 0.0998,
      "velocity": 122,
      "chip": "ym2612"
    },
    {
      "channel": 4,
      "note": 54,
      "start": 23.1102,
      "duration": 0.3686,
      "velocity": 89,
      "chip": "ym2612"
    },
    {
      "channel": 1,
      "note": 73,
      "start": 23.1595,
      "duration": 0.0998,
      "velocity": 113,
      "chip": "ym2612"
    },
    {
      "channel": 0,
      "note": 67,
      "start": 23.2095,
      "duration": 0.0998,
      "velocity": 113,
      "chip": "ym2612"
    },
    {
      "channel": 3,
      "note": 57,
      "start": 23.21,
      "duration": 0.0999,
      "velocity": 122,
      "chip": "ym2612"
    },
    {
      "channel": 1,
      "note": 68,
      "start": 23.2596,
      "duration": 0.0998,
      "velocity": 113,
      "chip": "ym2612"
    },
    {
      "channel": 0,
      "note": 66,
      "start": 23.3094,
      "duration": 0.0998,
      "velocity": 113,
      "chip": "ym2612"
    },
    {
      "channel": 2,
      "note": 56,
      "start": 23.3098,
      "duration": 0.0498,
      "velocity": 94,
      "chip": "ym2612"
    },
    {
      "channel": 3,
      "note": 57,
      "start": 23.3101,
      "duration": 0.1003,
      "velocity": 122,
      "chip": "ym2612"
    },
    {
      "channel": 1,
      "note": 67,
      "start": 23.3596,
      "duration": 0.0998,
      "velocity": 113,
      "chip": "ym2612"
    },
    {
      "channel": 0,
      "note": 65,
      "start": 23.4094,
      "duration": 0.0684,
      "velocity": 113,
      "chip": "ym2612"
    },
    {
      "channel": 2,
      "note": 56,
      "start": 23.4103,
      "duration": 0.0493,
      "velocity": 94,
      "chip": "ym2612"
    },
    {
      "channel": 3,
      "note": 57,
      "start": 23.4107,
      "duration": 0.0678,
      "velocity": 122,
      "chip": "ym2612"
    },
    {
      "channel": 1,
      "note": 66,
      "start": 23.4595,
      "duration": 0.0221,
      "velocity": 113,
      "chip": "ym2612"
    },
    {
      "channel": 0,
      "note": 73,
      "start": 23.478,
      "duration": 0.0251,
      "velocity": 113,
      "chip": "ym2612"
    },
    {
      "channel": 2,
      "note": 56,
      "start": 23.4785,
      "duration": 0.0034,
      "velocity": 94,
      "chip": "ym2612"
    },
    {
      "channel": 3,
      "note": 57,
      "start": 23.4788,
      "duration": 0.0061,
      "velocity": 122,
      "chip": "ym2612"
    },
    {
      "channel": 4,
      "note": 54,
      "start": 23.479,
      "duration": 0.0125,
      "velocity": 89,
      "chip": "ym2612"
    },
    {
      "channel": 1,
      "note": 65,
      "start": 23.4818,
      "duration": 0.0061,
      "velocity": 113,
      "chip": "ym2612"
    },
    {
      "channel": 2,
      "note": 56,
      "start": 23.4849,
      "duration": 0.0034,
      "velocity": 94,
      "chip": "ym2612"
    },
    {
      "channel": 3,
      "note": 57,
      "start": 23.4852,
      "duration": 0.006,
      "velocity": 122,
      "chip": "ym2612"
    },
    {
      "channel": 1,
      "note": 73,
      "start": 23.4882,
      "duration": 0.029,
      "velocity": 113,
      "chip": "ym2612"
    },
    {
      "channel": 2,
      "note": 56,
      "start": 23.4912,
      "duration": 0.0032,
      "velocity": 94,
      "chip": "ym2612"
    },
    {
      "channel": 3,
      "note": 57,
      "start": 23.4915,
      "duration": 0.0062,
      "velocity": 122,
      "chip": "ym2612"
    },
    {
      "channel": 4,
      "note": 54,
      "start": 23.4917,
      "duration": 0.0145,
      "velocity": 89,
      "chip": "ym2612"
    },
    {
      "channel": 2,
      "note": 56,
      "start": 23.4976,
      "duration": 0.0032,
      "velocity": 94,
      "chip": "ym2612"
    },
    {
      "channel": 3,
      "note": 57,
      "start": 23.4979,
      "duration": 0.0071,
      "velocity": 122,
      "chip": "ym2612"
    },
    {
      "channel": 0,
      "note": 77,
      "start": 23.5045,
      "duration": 0.0167,
      "velocity": 103,
      "chip": "ym2612"
    },
    {
      "channel": 2,
      "note": 49,
      "start": 23.5049,
      "duration": 0.0165,
      "velocity": 94,
      "chip": "ym2612"
    },
    {
      "channel": 3,
      "note": 69,
      "start": 23.5062,
      "duration": 0.007,
      "velocity": 127,
      "chip": "ym2612"
    },
    {
      "channel": 4,
      "note": 54,
      "start": 23.5074,
      "duration": 2.4884,
      "velocity": 89,
      "chip": "ym2612"
    },
    {
      "channel": 3,
      "note": 57,
      "start": 23.5145,
      "duration": 0.0071,
      "velocity": 122,
      "chip": "ym2612"
    },
    {
      "channel": 1,
      "note": 77,
      "start": 23.5183,
      "duration": 0.0123,
      "velocity": 103,
      "chip": "ym2612"
    },
    {
      "channel": 0,
      "note": 80,
      "start": 23.5212,
      "duration": 0.0068,
      "velocity": 103,
      "chip": "ym2612"
    },
    {
      "channel": 2,
      "note": 49,
      "start": 23.5216,
      "duration": 0.0039,
      "velocity": 94,
      "chip": "ym2612"
    },
    {
      "channel": 3,
      "note": 69,
      "start": 23.5228,
      "duration": 2.473,
      "velocity": 127,
      "chip": "ym2612"
    },
    {
      "channel": 2,
      "note": 49,
      "start": 23.5284,
      "duration": 0.0024,
      "velocity": 94,
      "chip": "ym2612"
    },
    {
      "channel": 1,
      "note": 80,
      "start": 23.5308,
      "duration": 2.4651,
      "velocity": 103,
      "chip": "ym2612"
    }
  ]
}