{
  "track_name": "03 - Hall of Stairs",
  "duration_sec": 27.342,
  "sample_rate": 44100,
  "note_count": 372,
  "unique_pitches": 26,
  "pitch_range": 45,
  "avg_note_duration": 0.3561,
  "reconstruction_stats": {
    "notes_reconstructed": 372,
    "keyon_events": 372,
    "keyoff_events": 367,
    "orphan_keyons": 5,
    "unique_pitches": 26,
    "pitch_range": 45,
    "avg_duration_sec": 0.3561
  },
  "metadata": {
    "source": "T\\The Addams Family\\03 - Hall of Stairs.vgz"
  },
  "notes": [
    {
      "channel": 0,
      "note": 54,
      "start": 0.0,
      "duration": 0.4815,
      "velocity": 96,
      "chip": "ym2612"
    },
    {
      "channel": 1,
      "note": 78,
      "start": 0.0021,
      "duration": 0.3127,
      "velocity": 103,
      "chip": "ym2612"
    },
    {
      "channel": 2,
      "note": 82,
      "start": 0.0042,
      "duration": 0.3112,
      "velocity": 103,
      "chip": "ym2612"
    },
    {
      "channel": 3,
      "note": 78,
      "start": 0.0063,
      "duration": 0.3095,
      "velocity": 102,
      "chip": "ym2612"
    },
    {
      "channel": 1,
      "note": 82,
      "start": 0.315,
      "duration": 0.167,
      "velocity": 103,
      "chip": "ym2612"
    },
    {
      "channel": 2,
      "note": 85,
      "start": 0.3155,
      "duration": 0.1671,
      "velocity": 103,
      "chip": "ym2612"
    },
    {
      "channel": 3,
      "note": 82,
      "start": 0.3161,
      "duration": 0.1671,
      "velocity": 102,
      "chip": "ym2612"
    },
    {
      "channel": 0,
      "note": 58,
      "start": 0.4816,
      "duration": 0.4832,
      "velocity": 96,
      "chip": "ym2612"
    },
    {
      "channel": 1,
      "note": 78,
      "start": 0.4822,
      "duration": 0.316,
      "velocity": 103,
      "chip": "ym2612"
    },
    {
      "channel": 2,
      "note": 82,
      "start": 0.4827,
      "duration": 0.316,
      "velocity": 103,
      "chip": "ym2612"
    },
    {
      "channel": 3,
      "note": 73,
      "start": 0.4833,
      "duration": 0.165,
      "velocity": 102,
      "chip": "ym2612"
    },
    {
      "channel": 3,
      "note": 75,
      "start": 0.6484,
      "duration": 0.1508,
      "velocity": 102,
      "chip": "ym2612"
    },
    {
      "channel": 1,
      "note": 82,
      "start": 0.7983,
      "duration": 0.167,
      "velocity": 103,
      "chip": "ym2612"
    },
    {
      "channel": 2,
      "note": 85,
      "start": 0.7988,
      "duration": 0.1671,
      "velocity": 103,
      "chip": "ym2612"
    },
    {
      "channel": 3,
      "note": 77,
      "start": 0.7994,
      "duration": 0.1671,
      "velocity": 102,
      "chip": "ym2612"
    },
    {
      "channel": 0,
      "note": 59,
      "start": 0.9649,
      "duration": 0.4832,
      "velocity": 96,
      "chip": "ym2612"
    },
    {
      "channel": 1,
      "note": 75,
      "start": 0.9655,
      "duration": 0.316,
      "velocity": 103,
      "chip": "ym2612"
    },
    {
      "channel": 2,
      "note": 83,
      "start": 0.9661,
      "duration": 0.316,
      "velocity": 103,
      "chip": "ym2612"
    },
    {
      "channel": 3,
      "note": 78,
      "start": 0.9666,
      "duration": 0.3159,
      "velocity": 102,
      "chip": "ym2612"
    },
    {
      "channel": 1,
      "note": 83,
      "start": 1.2817,
      "duration": 0.167,
      "velocity": 103,
      "chip": "ym2612"
    },
    {
      "channel": 2,
      "note": 87,
      "start": 1.2822,
      "duration": 0.1671,
      "velocity": 103,
      "chip": "ym2612"
    },
    {
      "channel": 3,
      "note": 82,
      "start": 1.2827,
      "duration": 0.1671,
      "velocity": 102,
      "chip": "ym2612"
    },
    {
      "channel": 0,
      "note": 61,
      "start": 1.4483,
      "duration": 0.4665,
      "velocity": 96,
      "chip": "ym2612"
    },
    {
      "channel": 1,
      "note": 77,
      "start": 1.4488,
      "duration": 0.316,
      "velocity": 103,
      "chip": "ym2612"
    },
    {
      "channel": 2,
      "note": 80,
      "start": 1.4494,
      "duration": 0.316,
      "velocity": 103,
      "chip": "ym2612"
    },
    {
      "channel": 3,
      "note": 73,
      "start": 1.45,
      "duration": 0.1483,
      "velocity": 102,
      "chip": "ym2612"
    },
    {
      "channel": 3,
      "note": 75,
      "start": 1.5984,
      "duration": 0.1674,
      "velocity": 102,
      "chip": "ym2612"
    },
    {
      "channel": 1,
      "note": 85,
      "start": 1.765,
      "duration": 0.1503,
      "velocity": 103,
      "chip": "ym2612"
    },
    {
      "channel": 2,
      "note": 89,
      "start": 1.7655,
      "duration": 0.1504,
      "velocity": 103,
      "chip": "ym2612"
    },
    {
      "channel": 3,
      "note": 77,
      "start": 1.7661,
      "duration": 0.1504,
      "velocity": 102,
      "chip": "ym2612"
    },
    {
      "channel": 0,
      "note": 54,
      "start": 1.9149,
      "duration": 0.4831,
      "velocity": 96,
      "chip": "ym2612"
    },
    {
      "channel": 1,
      "note": 78,
      "start": 1.9155,
      "duration": 0.3326,
      "velocity": 103,
      "chip": "ym2612"
    },
    {
      "channel": 2,
      "note": 82,
      "start": 1.9161,
      "duration": 0.3326,
      "velocity": 103,
      "chip": "ym2612"
    },
    {
      "channel": 3,
      "note": 78,
      "start": 1.9166,
      "duration": 1.9349,
      "velocity": 101,
      "chip": "ym2612"
    },
    {
      "channel": 1,
      "note": 90,
      "start": 2.2483,
      "duration": 0.1504,
      "velocity": 103,
      "chip": "ym2612"
    },
    {
      "channel": 2,
      "note": 85,
      "start": 2.2488,
      "duration": 0.1503,
      "velocity": 103,
      "chip": "ym2612"
    },
    {
      "channel": 0,
      "note": 58,
      "start": 2.3983,
      "duration": 0.4831,
      "velocity": 96,
      "chip": "ym2612"
    },
    {
      "channel": 1,
      "note": 78,
      "start": 2.3988,
      "duration": 0.316,
      "velocity": 103,
      "chip": "ym2612"
    },
    {
      "channel": 2,
      "note": 82,
      "start": 2.3993,
      "duration": 0.316,
      "velocity": 103,
      "chip": "ym2612"
    },
    {
      "channel": 1,
      "note": 90,
      "start": 2.715,
      "duration": 0.167,
      "velocity": 103,
      "chip": "ym2612"
    },
    {
      "channel": 2,
      "note": 85,
      "start": 2.7156,
      "duration": 0.1669,
      "velocity": 103,
      "chip": "ym2612"
    },
    {
      "channel": 0,
      "note": 59,
      "start": 2.8816,
      "duration": 0.4831,
      "velocity": 96,
      "chip": "ym2612"
    },
    {
      "channel": 1,
      "note": 75,
      "start": 2.8821,
      "duration": 0.316,
      "velocity": 103,
      "chip": "ym2612"
    },
    {
      "channel": 2,
      "note": 83,
      "start": 2.8827,
      "duration": 0.316,
      "velocity": 103,
      "chip": "ym2612"
    },
    {
      "channel": 1,
      "note": 83,
      "start": 3.1983,
      "duration": 0.1671,
      "velocity": 103,
      "chip": "ym2612"
    },
    {
      "channel": 2,
      "note": 87,
      "start": 3.1988,
      "duration": 0.167,
      "velocity": 103,
      "chip": "ym2612"
    },
    {
      "channel": 0,
      "note": 61,
      "start": 3.3649,
      "duration": 0.4833,
      "velocity": 96,
      "chip": "ym2612"
    },
    {
      "channel": 1,
      "note": 77,
      "start": 3.3654,
      "duration": 0.3161,
      "velocity": 103,
      "chip": "ym2612"
    },
    {
      "channel": 2,
      "note": 80,
      "start": 3.366,
      "duration": 0.3161,
      "velocity": 103,
      "chip": "ym2612"
    },
    {
      "channel": 1,
      "note": 83,
      "start": 3.6817,
      "duration": 0.1671,
      "velocity": 103,
      "chip": "ym2612"
    },
    {
      "channel": 2,
      "note": 89,
      "start": 3.6823,
      "duration": 0.1672,
      "velocity": 103,
      "chip": "ym2612"
    },
    {
      "channel": 0,
      "note": 54,
      "start": 3.8484,
      "duration": 0.4664,
      "velocity": 96,
      "chip": "ym2612"
    },
    {
      "channel": 1,
      "note": 78,
      "start": 3.849,
      "duration": 0.3159,
      "velocity": 103,
      "chip": "ym2612"
    },
    {
      "channel": 2,
      "note": 82,
      "start": 3.8497,
      "duration": 0.3157,
      "velocity": 103,
      "chip": "ym2612"
    },
    {
      "channel": 3,
      "note": 78,
      "start": 3.8517,
      "duration": 0.3142,
      "velocity": 101,
      "chip": "ym2612"
    },
    {
      "channel": 1,
      "note": 85,
      "start": 4.165,
      "duration": 0.1504,
      "velocity": 103,
      "chip": "ym2612"
    },
    {
      "channel": 2,
      "note": 82,
      "start": 4.1656,
      "duration": 0.1503,
      "velocity": 103,
      "chip": "ym2612"
    },
    {
      "channel": 3,
      "note": 85,
      "start": 4.1661,
      "duration": 0.1503,
      "velocity": 101,
      "chip": "ym2612"
    },
    {
      "channel": 5,
      "note": 78,
      "start": 4.1683,
      "duration": 0.3135,
      "velocity": 95,
      "chip": "ym2612"
    },
    {
      "channel": 0,
      "note": 58,
      "start": 4.315,
      "duration": 0.4831,
      "velocity": 96,
      "chip": "ym2612"
    },
    {
      "channel": 1,
      "note": 78,
      "start": 4.3155,
      "duration": 0.3327,
      "velocity": 103,
      "chip": "ym2612"
    },
    {
      "channel": 2,
      "note": 82,
      "start": 4.3161,
      "duration": 0.3326,
      "velocity": 103,
      "chip": "ym2612"
    },
    {
      "channel": 3,
      "note": 82,
      "start": 4.3166,
      "duration": 0.3326,
      "velocity": 101,
      "chip": "ym2612"
    },
    {
      "channel": 5,
      "note": 85,
      "start": 4.482,
      "duration": 0.1679,
      "velocity": 95,
      "chip": "ym2612"
    },
    {
      "channel": 1,
      "note": 85,
      "start": 4.6483,
      "duration": 0.1504,
      "velocity": 103,
      "chip": "ym2612"
    },
    {
      "channel": 2,
      "note": 82,
      "start": 4.6489,
      "duration": 0.1503,
      "velocity": 103,
      "chip": "ym2612"
    },
    {
      "channel": 3,
      "note": 78,
      "start": 4.6495,
      "duration": 0.1503,
      "velocity": 101,
      "chip": "ym2612"
    },
    {
      "channel": 5,
      "note": 82,
      "start": 4.6501,
      "duration": 0.315,
      "velocity": 95,
      "chip": "ym2612"
    },
    {
      "channel": 0,
      "note": 59,
      "start": 4.7983,
      "duration": 0.4831,
      "velocity": 96,
      "chip": "ym2612"
    },
    {
      "channel": 1,
      "note": 75,
      "start": 4.7988,
      "duration": 0.316,
      "velocity": 103,
      "chip": "ym2612"
    },
    {
      "channel": 2,
      "note": 83,
      "start": 4.7994,
      "duration": 0.316,
      "velocity": 103,
      "chip": "ym2612"
    },
    {
      "channel": 3,
      "note": 75,
      "start": 4.8,
      "duration": 0.316,
      "velocity": 101,
      "chip": "ym2612"
    },
    {
      "channel": 5,
      "note": 78,
      "start": 4.9653,
      "duration": 0.1513,
      "velocity": 95,
      "chip": "ym2612"
    },
    {
      "channel": 1,
      "note": 87,
      "start": 5.115,
      "duration": 0.167,
      "velocity": 103,
      "chip": "ym2612"
    },
    {
      "channel": 2,
      "note": 83,
      "start": 5.1156,
      "duration": 0.167,
      "velocity": 103,
      "chip": "ym2612"
    },
    {
      "channel": 3,
      "note": 83,
      "start": 5.1161,
      "duration": 0.4832,
      "velocity": 101,
      "chip": "ym2612"
    },
    {
      "channel": 5,
      "note": 75,
      "start": 5.1168,
      "duration": 0.3317,
      "velocity": 95,
      "chip": "ym2612"
    },
    {
      "channel": 0,
      "note": 47,
      "start": 5.2817,
      "duration": 0.4831,
      "velocity": 96,
      "chip": "ym2612"
    },
    {
      "channel": 1,
      "note": 75,
      "start": 5.2822,
      "duration": 0.316,
      "velocity": 103,
      "chip": "ym2612"
    },
    {
      "channel": 2,
      "note": 83,
      "start": 5.2827,
      "duration": 0.316,
      "velocity": 103,
      "chip": "ym2612"
    },
    {
      "channel": 5,
      "note": 83,
      "start": 5.4486,
      "duration": 0.4665,
      "velocity": 95,
      "chip": "ym2612"
    },
    {
      "channel": 1,
      "note": 87,
      "start": 5.5983,
      "duration": 0.167,
      "velocity": 103,
      "chip": "ym2612"
    },
    {
      "channel": 2,
      "note": 83,
      "start": 5.5989,
      "duration": 0.167,
      "velocity": 103,
      "chip": "ym2612"
    },
    {
      "channel": 3,
      "note": 82,
      "start": 5.5995,
      "duration": 0.167,
      "velocity": 101,
      "chip": "ym2612"
    },
    {
      "channel": 0,
      "note": 49,
      "start": 5.7649,
      "duration": 0.4832,
      "velocity": 96,
      "chip": "ym2612"
    },
    {
      "channel": 1,
      "note": 77,
      "start": 5.7655,
      "duration": 0.316,
      "velocity": 103,
      "chip": "ym2612"
    },
    {
      "channel": 2,
      "note": 73,
      "start": 5.7661,
      "duration": 0.316,
      "velocity": 103,
      "chip": "ym2612"
    },
    {
      "channel": 3,
      "note": 80,
      "start": 5.7666,
      "duration": 0.316,
      "velocity": 101,
      "chip": "ym2612"
    },
    {
      "channel": 5,
      "note": 82,
      "start": 5.9153,
      "duration": 0.1679,
      "velocity": 95,
      "chip": "ym2612"
    },
    {
      "channel": 1,
      "note": 85,
      "start": 6.0817,
      "duration": 0.167,
      "velocity": 103,
      "chip": "ym2612"
    },
    {
      "channel": 2,
      "note": 89,
      "start": 6.0822,
      "duration": 0.167,
      "velocity": 103,
      "chip": "ym2612"
    },
    {
      "channel": 3,
      "note": 78,
      "start": 6.0828,
      "duration": 0.167,
      "velocity": 101,
      "chip": "ym2612"
    },
    {
      "channel": 5,
      "note": 80,
      "start": 6.0834,
      "duration": 0.315,
      "velocity": 95,
      "chip": "ym2612"
    },
    {
      "channel": 0,
      "note": 53,
      "start": 6.2483,
      "duration": 0.4665,
      "velocity": 96,
      "chip": "ym2612"
    },
    {
      "channel": 1,
      "note": 77,
      "start": 6.2488,
      "duration": 0.316,
      "velocity": 103,
      "chip": "ym2612"
    },
    {
      "channel": 2,
      "note": 73,
      "start": 6.2494,
      "duration": 0.316,
      "velocity": 103,
      "chip": "ym2612"
    },
    {
      "channel": 3,
      "note": 77,
      "start": 6.25,
      "duration": 0.316,
      "velocity": 101,
      "chip": "ym2612"
    },
    {
      "channel": 5,
      "note": 78,
      "start": 6.3986,
      "duration": 0.1679,
      "velocity": 95,
      "chip": "ym2612"
    },
    {
      "channel": 1,
      "note": 85,
      "start": 6.565,
      "duration": 0.1504,
      "velocity": 103,
      "chip": "ym2612"
    },
    {
      "channel": 2,
      "note": 89,
      "start": 6.5656,
      "duration": 0.1503,
      "velocity": 103,
      "chip": "ym2612"
    },
    {
      "channel": 3,
      "note": 78,
      "start": 6.5661,
      "duration": 1.1171,
      "velocity": 101,
      "chip": "ym2612"
    },
    {
      "channel": 5,
      "note": 77,
      "start": 6.5668,
      "duration": 0.315,
      "velocity": 95,
      "chip": "ym2612"
    },
    {
      "channel": 0,
      "note": 54,
      "start": 6.715,
      "duration": 0.4831,
      "velocity": 96,
      "chip": "ym2612"
    },
    {
      "channel": 1,
      "note": 78,
      "start": 6.7155,
      "duration": 0.3326,
      "velocity": 103,
      "chip": "ym2612"
    },
    {
      "channel": 2,
      "note": 82,
      "start": 6.7161,
      "duration": 0.3326,
      "velocity": 103,
      "chip": "ym2612"
    },
    {
      "channel": 5,
      "note": 78,
      "start": 6.8819,
      "duration": 1.118,
      "velocity": 95,
      "chip": "ym2612"
    },
    {
      "channel": 1,
      "note": 82,
      "start": 7.0483,
      "duration": 0.1503,
      "velocity": 103,
      "chip": "ym2612"
    },
    {
      "channel": 2,
      "note": 85,
      "start": 7.0489,
      "duration": 0.1502,
      "velocity": 103,
      "chip": "ym2612"
    },
    {
      "channel": 0,
      "note": 49,
      "start": 7.1983,
      "duration": 0.4833,
      "velocity": 96,
      "chip": "ym2612"
    },
    {
      "channel": 1,
      "note": 78,
      "start": 7.1988,
      "duration": 0.316,
      "velocity": 103,
      "chip": "ym2612"
    },
    {
      "channel": 2,
      "note": 82,
      "start": 7.1993,
      "duration": 0.316,
      "velocity": 103,
      "chip": "ym2612"
    },
    {
      "channel": 1,
      "note": 82,
      "start": 7.5149,
      "duration": 0.1671,
      "velocity": 103,
      "chip": "ym2612"
    },
    {
      "channel": 2,
      "note": 85,
      "start": 7.5155,
      "duration": 0.1671,
      "velocity": 103,
      "chip": "ym2612"
    },
    {
      "channel": 0,
      "note": 54,
      "start": 7.6817,
      "duration": 0.4831,
      "velocity": 96,
      "chip": "ym2612"
    },
    {
      "channel": 1,
      "note": 78,
      "start": 7.6822,
      "duration": 0.316,
      "velocity": 103,
      "chip": "ym2612"
    },
    {
      "channel": 2,
      "note": 82,
      "start": 7.6828,
      "duration": 0.3159,
      "velocity": 103,
      "chip": "ym2612"
    },
    {
      "channel": 3,
      "note": 78,
      "start": 7.6834,
      "duration": 0.3159,
      "velocity": 101,
      "chip": "ym2612"
    },
    {
      "channel": 1,
      "note": 85,
      "start": 7.9983,
      "duration": 0.167,
      "velocity": 103,
      "chip": "ym2612"
    },
    {
      "channel": 2,
      "note": 82,
      "start": 7.9989,
      "duration": 0.167,
      "velocity": 103,
      "chip": "ym2612"
    },
    {
      "channel": 3,
      "note": 85,
      "start": 7.9995,
      "duration": 0.167,
      "velocity": 101,
      "chip": "ym2612"
    },
    {
      "channel": 5,
      "note": 78,
      "start": 8.0001,
      "duration": 0.315,
      "velocity": 95,
      "chip": "ym2612"
    },
    {
      "channel": 0,
      "note": 58,
      "start": 8.165,
      "duration": 0.4831,
      "velocity": 96,
      "chip": "ym2612"
    },
    {
      "channel": 1,
      "note": 78,
      "start": 8.1655,
      "duration": 0.316,
      "velocity": 103,
      "chip": "ym2612"
    },
    {
      "channel": 2,
      "note": 82,
      "start": 8.1661,
      "duration": 0.316,
      "velocity": 103,
      "chip": "ym2612"
    },
    {
      "channel": 3,
      "note": 82,
      "start": 8.1666,
      "duration": 0.316,
      "velocity": 101,
      "chip": "ym2612"
    },
    {
      "channel": 5,
      "note": 85,
      "start": 8.3153,
      "duration": 0.1679,
      "velocity": 95,
      "chip": "ym2612"
    },
    {
      "channel": 1,
      "note": 85,
      "start": 8.4817,
      "duration": 0.167,
      "velocity": 103,
      "chip": "ym2612"
    },
    {
      "channel": 2,
      "note": 82,
      "start": 8.4822,
      "duration": 0.167,
      "velocity": 103,
      "chip": "ym2612"
    },
    {
      "channel": 3,
      "note": 78,
      "start": 8.4828,
      "duration": 0.167,
      "velocity": 101,
      "chip": "ym2612"
    },
    {
      "channel": 5,
      "note": 82,
      "start": 8.4834,
      "duration": 0.315,
      "velocity": 95,
      "chip": "ym2612"
    },
    {
      "channel": 0,
      "note": 59,
      "start": 8.6483,
      "duration": 0.4665,
      "velocity": 96,
      "chip": "ym2612"
    },
    {
      "channel": 1,
      "note": 75,
      "start": 8.6488,
      "duration": 0.316,
      "velocity": 103,
      "chip": "ym2612"
    },
    {
      "channel": 2,
      "note": 83,
      "start": 8.6494,
      "duration": 0.316,
      "velocity": 103,
      "chip": "ym2612"
    },
    {
      "channel": 3,
      "note": 87,
      "start": 8.65,
      "duration": 0.316,
      "velocity": 101,
      "chip": "ym2612"
    },
    {
      "channel": 5,
      "note": 78,
      "start": 8.7986,
      "duration": 0.1679,
      "velocity": 95,
      "chip": "ym2612"
    },
    {
      "channel": 1,
      "note": 87,
      "start": 8.965,
      "duration": 0.1504,
      "velocity": 103,
      "chip": "ym2612"
    },
    {
      "channel": 2,
      "note": 83,
      "start": 8.9656,
      "duration": 0.1503,
      "velocity": 103,
      "chip": "ym2612"
    },
    {
      "channel": 3,
      "note": 85,
      "start": 8.9661,
      "duration": 0.4832,
      "velocity": 101,
      "chip": "ym2612"
    },
    {
      "channel": 5,
      "note": 87,
      "start": 8.9668,
      "duration": 0.315,
      "velocity": 95,
      "chip": "ym2612"
    },
    {
      "channel": 0,
      "note": 47,
      "start": 9.115,
      "duration": 0.4831,
      "velocity": 96,
      "chip": "ym2612"
    },
    {
      "channel": 1,
      "note": 75,
      "start": 9.1155,
      "duration": 0.3327,
      "velocity": 103,
      "chip": "ym2612"
    },
    {
      "channel": 2,
      "note": 83,
      "start": 9.1161,
      "duration": 0.3326,
      "velocity": 103,
      "chip": "ym2612"
    },
    {
      "channel": 5,
      "note": 85,
      "start": 9.2819,
      "duration": 0.4837,
      "velocity": 95,
      "chip": "ym2612"
    },
    {
      "channel": 1,
      "note": 87,
      "start": 9.4483,
      "duration": 0.1503,
      "velocity": 103,
      "chip": "ym2612"
    },
    {
      "channel": 2,
      "note": 83,
      "start": 9.4489,
      "duration": 0.1503,
      "velocity": 103,
      "chip": "ym2612"
    },
    {
      "channel": 3,
      "note": 83,
      "start": 9.4495,
      "duration": 0.1503,
      "velocity": 101,
      "chip": "ym2612"
    },
    {
      "channel": 0,
      "note": 49,
      "start": 9.5983,
      "duration": 0.4832,
      "velocity": 96,
      "chip": "ym2612"
    },
    {
      "channel": 1,
      "note": 77,
      "start": 9.5988,
      "duration": 0.316,
      "velocity": 103,
      "chip": "ym2612"
    },
    {
      "channel": 2,
      "note": 85,
      "start": 9.5994,
      "duration": 0.316,
      "velocity": 103,
      "chip": "ym2612"
    },
    {
      "channel": 3,
      "note": 82,
      "start": 9.6,
      "duration": 0.165,
      "velocity": 101,
      "chip": "ym2612"
    },
    {
      "channel": 3,
      "note": 80,
      "start": 9.7652,
      "duration": 0.1508,
      "velocity": 101,
      "chip": "ym2612"
    },
    {
      "channel": 5,
      "note": 83,
      "start": 9.7658,
      "duration": 0.1508,
      "velocity": 95,
      "chip": "ym2612"
    },
    {
      "channel": 1,
      "note": 89,
      "start": 9.915,
      "duration": 0.167,
      "velocity": 103,
      "chip": "ym2612"
    },
    {
      "channel": 2,
      "note": 85,
      "start": 9.9156,
      "duration": 0.167,
      "velocity": 103,
      "chip": "ym2612"
    },
    {
      "channel": 3,
      "note": 78,
      "start": 9.9161,
      "duration": 0.167,
      "velocity": 101,
      "chip": "ym2612"
    },
    {
      "channel": 5,
      "note": 82,
      "start": 9.9168,
      "duration": 0.167,
      "velocity": 95,
      "chip": "ym2612"
    },
    {
      "channel": 0,
      "note": 53,
      "start": 10.0817,
      "duration": 0.4831,
      "velocity": 96,
      "chip": "ym2612"
    },
    {
      "channel": 1,
      "note": 80,
      "start": 10.0822,
      "duration": 0.316,
      "velocity": 103,
      "chip": "ym2612"
    },
    {
      "channel": 2,
      "note": 85,
      "start": 10.0827,
      "duration": 0.316,
      "velocity": 103,
      "chip": "ym2612"
    },
    {
      "channel": 3,
      "note": 77,
      "start": 10.0833,
      "duration": 0.316,
      "velocity": 101,
      "chip": "ym2612"
    },
    {
      "channel": 5,
      "note": 80,
      "start": 10.0839,
      "duration": 0.1645,
      "velocity": 95,
      "chip": "ym2612"
    },
    {
      "channel": 5,
      "note": 78,
      "start": 10.2486,
      "duration": 0.1513,
      "velocity": 95,
      "chip": "ym2612"
    },
    {
      "channel": 1,
      "note": 89,
      "start": 10.3983,
      "duration": 0.167,
      "velocity": 103,
      "chip": "ym2612"
    },
    {
      "channel": 2,
      "note": 85,
      "start": 10.3989,
      "duration": 0.167,
      "velocity": 103,
      "chip": "ym2612"
    },
    {
      "channel": 3,
      "note": 78,
      "start": 10.3995,
      "duration": 5.2832,
      "velocity": 101,
      "chip": "ym2612"
    },
    {
      "channel": 5,
      "note": 77,
      "start": 10.4001,
      "duration": 0.315,
      "velocity": 95,
      "chip": "ym2612"
    },
    {
      "channel": 0,
      "note": 54,
      "start": 10.565,
      "duration": 0.4831,
      "velocity": 96,
      "chip": "ym2612"
    },
    {
      "channel": 1,
      "note": 78,
      "start": 10.5655,
      "duration": 0.316,
      "velocity": 103,
      "chip": "ym2612"
    },
    {
      "channel": 2,
      "note": 73,
      "start": 10.5661,
      "duration": 0.316,
      "velocity": 103,
      "chip": "ym2612"
    },
    {
      "channel": 5,
      "note": 78,
      "start": 10.7152,
      "duration": 5.2833,
      "velocity": 95,
      "chip": "ym2612"
    },
    {
      "channel": 1,
      "note": 90,
      "start": 10.8817,
      "duration": 0.167,
      "velocity": 103,
      "chip": "ym2612"
    },
    {
      "channel": 2,
      "note": 85,
      "start": 10.8822,
      "duration": 0.1669,
      "velocity": 103,
      "chip": "ym2612"
    },
    {
      "channel": 0,
      "note": 49,
      "start": 11.0483,
      "duration": 0.4667,
      "velocity": 96,
      "chip": "ym2612"
    },
    {
      "channel": 1,
      "note": 78,
      "start": 11.0488,
      "duration": 0.3161,
      "velocity": 103,
      "chip": "ym2612"
    },
    {
      "channel": 2,
      "note": 73,
      "start": 11.0493,
      "duration": 0.3161,
      "velocity": 103,
      "chip": "ym2612"
    },
    {
      "channel": 1,
      "note": 90,
      "start": 11.365,
      "duration": 0.1505,
      "velocity": 103,
      "chip": "ym2612"
    },
    {
      "channel": 2,
      "note": 85,
      "start": 11.3656,
      "duration": 0.1505,
      "velocity": 103,
      "chip": "ym2612"
    },
    {
      "channel": 0,
      "note": 54,
      "start": 11.515,
      "duration": 0.483,
      "velocity": 96,
      "chip": "ym2612"
    },
    {
      "channel": 1,
      "note": 78,
      "start": 11.5157,
      "duration": 0.3324,
      "velocity": 103,
      "chip": "ym2612"
    },
    {
      "channel": 2,
      "note": 82,
      "start": 11.5163,
      "duration": 0.3323,
      "velocity": 103,
      "chip": "ym2612"
    },
    {
      "channel": 1,
      "note": 82,
      "start": 11.8483,
      "duration": 0.1504,
      "velocity": 103,
      "chip": "ym2612"
    },
    {
      "channel": 2,
      "note": 85,
      "start": 11.8488,
      "duration": 0.1503,
      "velocity": 103,
      "chip": "ym2612"
    },
    {
      "channel": 0,
      "note": 58,
      "start": 11.9983,
      "duration": 0.4831,
      "velocity": 96,
      "chip": "ym2612"
    },
    {
      "channel": 1,
      "note": 78,
      "start": 11.9988,
      "duration": 0.316,
      "velocity": 103,
      "chip": "ym2612"
    },
    {
      "channel": 2,
      "note": 82,
      "start": 11.9993,
      "duration": 0.316,
      "velocity": 103,
      "chip": "ym2612"
    },
    {
      "channel": 1,
      "note": 82,
      "start": 12.3149,
      "duration": 0.1671,
      "velocity": 103,
      "chip": "ym2612"
    },
    {
      "channel": 2,
      "note": 85,
      "start": 12.3155,
      "duration": 0.167,
      "velocity": 103,
      "chip": "ym2612"
    },
    {
      "channel": 0,
      "note": 59,
      "start": 12.4816,
      "duration": 0.4831,
      "velocity": 96,
      "chip": "ym2612"
    },
    {
      "channel": 1,
      "note": 75,
      "start": 12.4821,
      "duration": 0.316,
      "velocity": 103,
      "chip": "ym2612"
    },
    {
      "channel": 2,
      "note": 83,
      "start": 12.4827,
      "duration": 0.316,
      "velocity": 103,
      "chip": "ym2612"
    },
    {
      "channel": 1,
      "note": 83,
      "start": 12.7983,
      "duration": 0.1671,
      "velocity": 103,
      "chip": "ym2612"
    },
    {
      "channel": 2,
      "note": 87,
      "start": 12.7988,
      "duration": 0.167,
      "velocity": 103,
      "chip": "ym2612"
    },
    {
      "channel": 0,
      "note": 61,
      "start": 12.9649,
      "duration": 0.4831,
      "velocity": 96,
      "chip": "ym2612"
    },
    {
      "channel": 1,
      "note": 77,
      "start": 12.9654,
      "duration": 0.316,
      "velocity": 103,
      "chip": "ym2612"
    },
    {
      "channel": 2,
      "note": 80,
      "start": 12.966,
      "duration": 0.316,
      "velocity": 103,
      "chip": "ym2612"
    },
    {
      "channel": 1,
      "note": 85,
      "start": 13.2816,
      "duration": 0.1671,
      "velocity": 103,
      "chip": "ym2612"
    },
    {
      "channel": 2,
      "note": 89,
      "start": 13.2822,
      "duration": 0.167,
      "velocity": 103,
      "chip": "ym2612"
    },
    {
      "channel": 0,
      "note": 54,
      "start": 13.4483,
      "duration": 0.4665,
      "velocity": 96,
      "chip": "ym2612"
    },
    {
      "channel": 1,
      "note": 78,
      "start": 13.4488,
      "duration": 0.316,
      "velocity": 103,
      "chip": "ym2612"
    },
    {
      "channel": 2,
      "note": 82,
      "start": 13.4493,
      "duration": 0.316,
      "velocity": 103,
      "chip": "ym2612"
    },
    {
      "channel": 1,
      "note": 90,
      "start": 13.7649,
      "duration": 0.1504,
      "velocity": 103,
      "chip": "ym2612"
    },
    {
      "channel": 2,
      "note": 85,
      "start": 13.7655,
      "duration": 0.1503,
      "velocity": 103,
      "chip": "ym2612"
    },
    {
      "channel": 0,
      "note": 58,
      "start": 13.9149,
      "duration": 0.4831,
      "velocity": 96,
      "chip": "ym2612"
    },
    {
      "channel": 1,
      "note": 78,
      "start": 13.9154,
      "duration": 0.3327,
      "velocity": 103,
      "chip": "ym2612"
    },
    {
      "channel": 2,
      "note": 82,
      "start": 13.916,
      "duration": 0.3326,
      "velocity": 103,
      "chip": "ym2612"
    },
    {
      "channel": 1,
      "note": 90,
      "start": 14.2483,
      "duration": 0.1504,
      "velocity": 103,
      "chip": "ym2612"
    },
    {
      "channel": 2,
      "note": 85,
      "start": 14.2488,
      "duration": 0.1503,
      "velocity": 103,
      "chip": "ym2612"
    },
    {
      "channel": 0,
      "note": 59,
      "start": 14.3983,
      "duration": 0.4831,
      "velocity": 96,
      "chip": "ym2612"
    },
    {
      "channel": 1,
      "note": 75,
      "start": 14.3988,
      "duration": 0.316,
      "velocity": 103,
      "chip": "ym2612"
    },
    {
      "channel": 2,
      "note": 83,
      "start": 14.3993,
      "duration": 0.316,
      "velocity": 103,
      "chip": "ym2612"
    },
    {
      "channel": 1,
      "note": 83,
      "start": 14.7149,
      "duration": 0.1671,
      "velocity": 103,
      "chip": "ym2612"
    },
    {
      "channel": 2,
      "note": 87,
      "start": 14.7155,
      "duration": 0.167,
      "velocity": 103,
      "chip": "ym2612"
    },
    {
      "channel": 0,
      "note": 61,
      "start": 14.8816,
      "duration": 0.4833,
      "velocity": 96,
      "chip": "ym2612"
    },
    {
      "channel": 1,
      "note": 77,
      "start": 14.8821,
      "duration": 0.3161,
      "velocity": 103,
      "chip": "ym2612"
    },
    {
      "channel": 2,
      "note": 80,
      "start": 14.8827,
      "duration": 0.3161,
      "velocity": 103,
      "chip": "ym2612"
    },
    {
      "channel": 1,
      "note": 83,
      "start": 15.1984,
      "duration": 0.1671,
      "velocity": 103,
      "chip": "ym2612"
    },
    {
      "channel": 2,
      "note": 89,
      "start": 15.199,
      "duration": 0.1672,
      "velocity": 103,
      "chip": "ym2612"
    },
    {
      "channel": 0,
      "note": 56,
      "start": 15.365,
      "duration": 0.4831,
      "velocity": 96,
      "chip": "ym2612"
    },
    {
      "channel": 1,
      "note": 80,
      "start": 15.3657,
      "duration": 0.3158,
      "velocity": 103,
      "chip": "ym2612"
    },
    {
      "channel": 2,
      "note": 84,
      "start": 15.3663,
      "duration": 0.3157,
      "velocity": 103,
      "chip": "ym2612"
    },
    {
      "channel": 1,
      "note": 87,
      "start": 15.6817,
      "duration": 0.167,
      "velocity": 103,
      "chip": "ym2612"
    },
    {
      "channel": 2,
      "note": 84,
      "start": 15.6822,
      "duration": 0.1671,
      "velocity": 103,
      "chip": "ym2612"
    },
    {
      "channel": 3,
      "note": 87,
      "start": 15.6828,
      "duration": 0.4832,
      "velocity": 101,
      "chip": "ym2612"
    },
    {
      "channel": 0,
      "note": 60,
      "start": 15.8483,
      "duration": 0.4665,
      "velocity": 96,
      "chip": "ym2612"
    },
    {
      "channel": 1,
      "note": 80,
      "start": 15.8488,
      "duration": 0.316,
      "velocity": 103,
      "chip": "ym2612"
    },
    {
      "channel": 2,
      "note": 84,
      "start": 15.8494,
      "duration": 0.316,
      "velocity": 103,
      "chip": "ym2612"
    },
    {
      "channel": 5,
      "note": 87,
      "start": 15.9986,
      "duration": 0.4831,
      "velocity": 95,
      "chip": "ym2612"
    },
    {
      "channel": 1,
      "note": 87,
      "start": 16.165,
      "duration": 0.1503,
      "velocity": 103,
      "chip": "ym2612"
    },
    {
      "channel": 2,
      "note": 84,
      "start": 16.1656,
      "duration": 0.1503,
      "velocity": 103,
      "chip": "ym2612"
    },
    {
      "channel": 3,
      "note": 84,
      "start": 16.1661,
      "duration": 0.1503,
      "velocity": 101,
      "chip": "ym2612"
    },
    {
      "channel": 0,
      "note": 61,
      "start": 16.3149,
      "duration": 0.4832,
      "velocity": 96,
      "chip": "ym2612"
    },
    {
      "channel": 1,
      "note": 77,
      "start": 16.3155,
      "duration": 0.3326,
      "velocity": 103,
      "chip": "ym2612"
    },
    {
      "channel": 2,
      "note": 85,
      "start": 16.3161,
      "duration": 0.3326,
      "velocity": 103,
      "chip": "ym2612"
    },
    {
      "channel": 3,
      "note": 80,
      "start": 16.3166,
      "duration": 0.7992,
      "velocity": 101,
      "chip": "ym2612"
    },
    {
      "channel": 5,
      "note": 84,
      "start": 16.482,
      "duration": 0.1674,
      "velocity": 95,
      "chip": "ym2612"
    },
    {
      "channel": 1,
      "note": 89,
      "start": 16.6483,
      "duration": 0.1503,
      "velocity": 103,
      "chip": "ym2612"
    },
    {
      "channel": 2,
      "note": 85,
      "start": 16.6488,
      "duration": 0.1504,
      "velocity": 103,
      "chip": "ym2612"
    },
    {
      "channel": 5,
      "note": 80,
      "start": 16.6495,
      "duration": 0.7989,
      "velocity": 95,
      "chip": "ym2612"
    },
    {
      "channel": 0,
      "note": 49,
      "start": 16.7983,
      "duration": 0.4832,
      "velocity": 96,
      "chip": "ym2612"
    },
    {
      "channel": 1,
      "note": 77,
      "start": 16.7988,
      "duration": 0.316,
      "velocity": 103,
      "chip": "ym2612"
    },
    {
      "channel": 2,
      "note": 85,
      "start": 16.7994,
      "duration": 0.316,
      "velocity": 103,
      "chip": "ym2612"
    },
    {
      "channel": 1,
      "note": 89,
      "start": 17.115,
      "duration": 0.167,
      "velocity": 103,
      "chip": "ym2612"
    },
    {
      "channel": 2,
      "note": 85,
      "start": 17.1155,
      "duration": 0.1671,
      "velocity": 103,
      "chip": "ym2612"
    },
    {
      "channel": 3,
      "note": 82,
      "start": 17.1161,
      "duration": 0.4832,
      "velocity": 101,
      "chip": "ym2612"
    },
    {
      "channel": 0,
      "note": 51,
      "start": 17.2816,
      "duration": 0.4832,
      "velocity": 96,
      "chip": "ym2612"
    },
    {
      "channel": 1,
      "note": 79,
      "start": 17.2822,
      "duration": 0.316,
      "velocity": 103,
      "chip": "ym2612"
    },
    {
      "channel": 2,
      "note": 75,
      "start": 17.2827,
      "duration": 0.316,
      "velocity": 103,
      "chip": "ym2612"
    },
    {
      "channel": 5,
      "note": 82,
      "start": 17.4486,
      "duration": 0.4665,
      "velocity": 95,
      "chip": "ym2612"
    },
    {
      "channel": 1,
      "note": 87,
      "start": 17.5983,
      "duration": 0.167,
      "velocity": 103,
      "chip": "ym2612"
    },
    {
      "channel": 2,
      "note": 91,
      "start": 17.5989,
      "duration": 0.167,
      "velocity": 103,
      "chip": "ym2612"
    },
    {
      "channel": 3,
      "note": 84,
      "start": 17.5995,
      "duration": 0.4832,
      "velocity": 101,
      "chip": "ym2612"
    },
    {
      "channel": 0,
      "note": 55,
      "start": 17.7649,
      "duration": 0.4832,
      "velocity": 96,
      "chip": "ym2612"
    },
    {
      "channel": 1,
      "note": 79,
      "start": 17.7655,
      "duration": 0.316,
      "velocity": 103,
      "chip": "ym2612"
    },
    {
      "channel": 2,
      "note": 75,
      "start": 17.7661,
      "duration": 0.316,
      "velocity": 103,
      "chip": "ym2612"
    },
    {
      "channel": 5,
      "note": 84,
      "start": 17.9152,
      "duration": 0.4832,
      "velocity": 95,
      "chip": "ym2612"
    },
    {
      "channel": 1,
      "note": 87,
      "start": 18.0817,
      "duration": 0.167,
      "velocity": 103,
      "chip": "ym2612"
    },
    {
      "channel": 2,
      "note": 91,
      "start": 18.0822,
      "duration": 0.167,
      "velocity": 103,
      "chip": "ym2612"
    },
    {
      "channel": 3,
      "note": 85,
      "start": 18.0828,
      "duration": 0.167,
      "velocity": 101,
      "chip": "ym2612"
    },
    {
      "channel": 0,
      "note": 56,
      "start": 18.2483,
      "duration": 0.4665,
      "velocity": 96,
      "chip": "ym2612"
    },
    {
      "channel": 1,
      "note": 80,
      "start": 18.2488,
      "duration": 0.316,
      "velocity": 103,
      "chip": "ym2612"
    },
    {
      "channel": 2,
      "note": 84,
      "start": 18.2494,
      "duration": 0.316,
      "velocity": 103,
      "chip": "ym2612"
    },
    {
      "channel": 3,
      "note": 84,
      "start": 18.25,
      "duration": 1.2659,
      "velocity": 101,
      "chip": "ym2612"
    },
    {
      "channel": 5,
      "note": 85,
      "start": 18.3986,
      "duration": 0.1674,
      "velocity": 95,
      "chip": "ym2612"
    },
    {
      "channel": 1,
      "note": 84,
      "start": 18.565,
      "duration": 0.1503,
      "velocity": 103,
      "chip": "ym2612"
    },
    {
      "channel": 2,
      "note": 87,
      "start": 18.5655,
      "duration": 0.1504,
      "velocity": 103,
      "chip": "ym2612"
    },
    {
      "channel": 5,
      "note": 84,
      "start": 18.5662,
      "duration": 1.2822,
      "velocity": 95,
      "chip": "ym2612"
    },
    {
      "channel": 0,
      "note": 51,
      "start": 18.7149,
      "duration": 0.4832,
      "velocity": 96,
      "chip": "ym2612"
    },
    {
      "channel": 1,
      "note": 80,
      "start": 18.7155,
      "duration": 0.3326,
      "velocity": 103,
      "chip": "ym2612"
    },
    {
      "channel": 2,
      "note": 84,
      "start": 18.7161,
      "duration": 0.3326,
      "velocity": 103,
      "chip": "ym2612"
    },
    {
      "channel": 1,
      "note": 84,
      "start": 19.0483,
      "duration": 0.1504,
      "velocity": 103,
      "chip": "ym2612"
    },
    {
      "channel": 2,
      "note": 87,
      "start": 19.0488,
      "duration": 0.1504,
      "velocity": 103,
      "chip": "ym2612"
    },
    {
      "channel": 0,
      "note": 56,
      "start": 19.1983,
      "duration": 0.4831,
      "velocity": 96,
      "chip": "ym2612"
    },
    {
      "channel": 1,
      "note": 80,
      "start": 19.1988,
      "duration": 0.316,
      "velocity": 103,
      "chip": "ym2612"
    },
    {
      "channel": 2,
      "note": 84,
      "start": 19.1994,
      "duration": 0.316,
      "velocity": 103,
      "chip": "ym2612"
    },
    {
      "channel": 1,
      "note": 87,
      "start": 19.515,
      "duration": 0.167,
      "velocity": 103,
      "chip": "ym2612"
    },
    {
      "channel": 2,
      "note": 84,
      "start": 19.5155,
      "duration": 0.1671,
      "velocity": 103,
      "chip": "ym2612"
    },
    {
      "channel": 3,
      "note": 87,
      "start": 19.5161,
      "duration": 0.4832,
      "velocity": 101,
      "chip": "ym2612"
    },
    {
      "channel": 0,
      "note": 60,
      "start": 19.6816,
      "duration": 0.4832,
      "velocity": 96,
      "chip": "ym2612"
    },
    {
      "channel": 1,
      "note": 80,
      "start": 19.6822,
      "duration": 0.316,
      "velocity": 103,
      "chip": "ym2612"
    },
    {
      "channel": 2,
      "note": 84,
      "start": 19.6827,
      "duration": 0.316,
      "velocity": 103,
      "chip": "ym2612"
    },
    {
      "channel": 5,
      "note": 87,
      "start": 19.8486,
      "duration": 0.4665,
      "velocity": 95,
      "chip": "ym2612"
    },
    {
      "channel": 1,
      "note": 87,
      "start": 19.9983,
      "duration": 0.167,
      "velocity": 103,
      "chip": "ym2612"
    },
    {
      "channel": 2,
      "note": 84,
      "start": 19.9989,
      "duration": 0.167,
      "velocity": 103,
      "chip": "ym2612"
    },
    {
      "channel": 3,
      "note": 84,
      "start": 19.9995,
      "duration": 0.167,
      "velocity": 101,
      "chip": "ym2612"
    },
    {
      "channel": 0,
      "note": 61,
      "start": 20.1649,
      "duration": 0.4832,
      "velocity": 96,
      "chip": "ym2612"
    },
    {
      "channel": 1,
      "note": 77,
      "start": 20.1655,
      "duration": 0.316,
      "velocity": 103,
      "chip": "ym2612"
    },
    {
      "channel": 2,
      "note": 85,
      "start": 20.1661,
      "duration": 0.316,
      "velocity": 103,
      "chip": "ym2612"
    },
    {
      "channel": 3,
      "note": 80,
      "start": 20.1666,
      "duration": 0.7992,
      "velocity": 101,
      "chip": "ym2612"
    },
    {
      "channel": 5,
      "note": 84,
      "start": 20.3153,
      "duration": 0.1674,
      "velocity": 95,
      "chip": "ym2612"
    },
    {
      "channel": 1,
      "note": 89,
      "start": 20.4817,
      "duration": 0.167,
      "velocity": 103,
      "chip": "ym2612"
    },
    {
      "channel": 2,
      "note": 85,
      "start": 20.4822,
      "duration": 0.1671,
      "velocity": 103,
      "chip": "ym2612"
    },
    {
      "channel": 5,
      "note": 80,
      "start": 20.4829,
      "duration": 0.7989,
      "velocity": 95,
      "chip": "ym2612"
    },
    {
      "channel": 0,
      "note": 49,
      "start": 20.6483,
      "duration": 0.4665,
      "velocity": 96,
      "chip": "ym2612"
    },
    {
      "channel": 1,
      "note": 77,
      "start": 20.6488,
      "duration": 0.316,
      "velocity": 103,
      "chip": "ym2612"
    },
    {
      "channel": 2,
      "note": 85,
      "start": 20.6494,
      "duration": 0.316,
      "velocity": 103,
      "chip": "ym2612"
    },
    {
      "channel": 1,
      "note": 89,
      "start": 20.965,
      "duration": 0.1503,
      "velocity": 103,
      "chip": "ym2612"
    },
    {
      "channel": 2,
      "note": 85,
      "start": 20.9655,
      "duration": 0.1504,
      "velocity": 103,
      "chip": "ym2612"
    },
    {
      "channel": 3,
      "note": 82,
      "start": 20.9661,
      "duration": 0.4832,
      "velocity": 101,
      "chip": "ym2612"
    },
    {
      "channel": 0,
      "note": 51,
      "start": 21.1149,
      "duration": 0.4832,
      "velocity": 96,
      "chip": "ym2612"
    },
    {
      "channel": 1,
      "note": 79,
      "start": 21.1155,
      "duration": 0.3327,
      "velocity": 103,
      "chip": "ym2612"
    },
    {
      "channel": 2,
      "note": 87,
      "start": 21.1161,
      "duration": 0.3326,
      "velocity": 103,
      "chip": "ym2612"
    },
    {
      "channel": 5,
      "note": 82,
      "start": 21.2819,
      "duration": 0.4832,
      "velocity": 95,
      "chip": "ym2612"
    },
    {
      "channel": 1,
      "note": 91,
      "start": 21.4483,
      "duration": 0.1503,
      "velocity": 103,
      "chip": "ym2612"
    },
    {
      "channel": 2,
      "note": 87,
      "start": 21.4489,
      "duration": 0.1503,
      "velocity": 103,
      "chip": "ym2612"
    },
    {
      "channel": 3,
      "note": 84,
      "start": 21.4495,
      "duration": 0.4665,
      "velocity": 101,
      "chip": "ym2612"
    },
    {
      "channel": 0,
      "note": 55,
      "start": 21.5983,
      "duration": 0.4832,
      "velocity": 96,
      "chip": "ym2612"
    },
    {
      "channel": 1,
      "note": 82,
      "start": 21.5988,
      "duration": 0.316,
      "velocity": 103,
      "chip": "ym2612"
    },
    {
      "channel": 2,
      "note": 87,
      "start": 21.5994,
      "duration": 0.316,
      "velocity": 103,
      "chip": "ym2612"
    },
    {
      "channel": 5,
      "note": 84,
      "start": 21.7652,
      "duration": 0.4832,
      "velocity": 95,
      "chip": "ym2612"
    },
    {
      "channel": 1,
      "note": 91,
      "start": 21.915,
      "duration": 0.167,
      "velocity": 103,
      "chip": "ym2612"
    },
    {
      "channel": 2,
      "note": 87,
      "start": 21.9156,
      "duration": 0.167,
      "velocity": 103,
      "chip": "ym2612"
    },
    {
      "channel": 3,
      "note": 85,
      "start": 21.9161,
      "duration": 0.167,
      "velocity": 101,
      "chip": "ym2612"
    },
    {
      "channel": 0,
      "note": 56,
      "start": 22.0816,
      "duration": 0.4832,
      "velocity": 96,
      "chip": "ym2612"
    },
    {
      "channel": 1,
      "note": 80,
      "start": 22.0822,
      "duration": 0.316,
      "velocity": 103,
      "chip": "ym2612"
    },
    {
      "channel": 2,
      "note": 75,
      "start": 22.0827,
      "duration": 0.316,
      "velocity": 103,
      "chip": "ym2612"
    },
    {
      "channel": 3,
      "note": 84,
      "start": 22.0833,
      "duration": 4.8017,
      "velocity": 102,
      "chip": "ym2612"
    },
    {
      "channel": 5,
      "note": 85,
      "start": 22.2486,
      "duration": 0.1507,
      "velocity": 95,
      "chip": "ym2612"
    },
    {
      "channel": 1,
      "note": 92,
      "start": 22.3983,
      "duration": 0.167,
      "velocity": 103,
      "chip": "ym2612"
    },
    {
      "channel": 2,
      "note": 87,
      "start": 22.3988,
      "duration": 0.1671,
      "velocity": 103,
      "chip": "ym2612"
    },
    {
      "channel": 5,
      "note": 84,
      "start": 22.3995,
      "duration": 4.9427,
      "velocity": 95,
      "chip": "ym2612"
    },
    {
      "channel": 0,
      "note": 51,
      "start": 22.5649,
      "duration": 0.4833,
      "velocity": 96,
      "chip": "ym2612"
    },
    {
      "channel": 1,
      "note": 80,
      "start": 22.5655,
      "duration": 0.316,
      "velocity": 103,
      "chip": "ym2612"
    },
    {
      "channel": 2,
      "note": 75,
      "start": 22.5661,
      "duration": 0.316,
      "velocity": 103,
      "chip": "ym2612"
    },
    {
      "channel": 1,
      "note": 92,
      "start": 22.8817,
      "duration": 0.1671,
      "velocity": 103,
      "chip": "ym2612"
    },
    {
      "channel": 2,
      "note": 87,
      "start": 22.8823,
      "duration": 0.1672,
      "velocity": 103,
      "chip": "ym2612"
    },
    {
      "channel": 0,
      "note": 56,
      "start": 23.0484,
      "duration": 0.4663,
      "velocity": 96,
      "chip": "ym2612"
    },
    {
      "channel": 1,
      "note": 80,
      "start": 23.049,
      "duration": 0.3158,
      "velocity": 103,
      "chip": "ym2612"
    },
    {
      "channel": 2,
      "note": 84,
      "start": 23.0497,
      "duration": 0.3156,
      "velocity": 103,
      "chip": "ym2612"
    },
    {
      "channel": 1,
      "note": 87,
      "start": 23.3649,
      "duration": 0.1504,
      "velocity": 103,
      "chip": "ym2612"
    },
    {
      "channel": 2,
      "note": 84,
      "start": 23.3655,
      "duration": 0.1503,
      "velocity": 103,
      "chip": "ym2612"
    },
    {
      "channel": 0,
      "note": 60,
      "start": 23.5149,
      "duration": 0.4831,
      "velocity": 96,
      "chip": "ym2612"
    },
    {
      "channel": 1,
      "note": 80,
      "start": 23.5154,
      "duration": 0.3327,
      "velocity": 103,
      "chip": "ym2612"
    },
    {
      "channel": 2,
      "note": 84,
      "start": 23.516,
      "duration": 0.3326,
      "velocity": 103,
      "chip": "ym2612"
    },
    {
      "channel": 1,
      "note": 87,
      "start": 23.8483,
      "duration": 0.1504,
      "velocity": 103,
      "chip": "ym2612"
    },
    {
      "channel": 2,
      "note": 84,
      "start": 23.8488,
      "duration": 0.1503,
      "velocity": 103,
      "chip": "ym2612"
    },
    {
      "channel": 0,
      "note": 61,
      "start": 23.9983,
      "duration": 0.4831,
      "velocity": 96,
      "chip": "ym2612"
    },
    {
      "channel": 1,
      "note": 77,
      "start": 23.9988,
      "duration": 0.316,
      "velocity": 103,
      "chip": "ym2612"
    },
    {
      "channel": 2,
      "note": 85,
      "start": 23.9993,
      "duration": 0.316,
      "velocity": 103,
      "chip": "ym2612"
    },
    {
      "channel": 1,
      "note": 89,
      "start": 24.3149,
      "duration": 0.1671,
      "velocity": 103,
      "chip": "ym2612"
    },
    {
      "channel": 2,
      "note": 85,
      "start": 24.3155,
      "duration": 0.167,
      "velocity": 103,
      "chip": "ym2612"
    },
    {
      "channel": 0,
      "note": 49,
      "start": 24.4816,
      "duration": 0.4831,
      "velocity": 96,
      "chip": "ym2612"
    },
    {
      "channel": 1,
      "note": 77,
      "start": 24.4821,
      "duration": 0.316,
      "velocity": 103,
      "chip": "ym2612"
    },
    {
      "channel": 2,
      "note": 85,
      "start": 24.4827,
      "duration": 0.316,
      "velocity": 103,
      "chip": "ym2612"
    },
    {
      "channel": 1,
      "note": 89,
      "start": 24.7983,
      "duration": 0.1671,
      "velocity": 103,
      "chip": "ym2612"
    },
    {
      "channel": 2,
      "note": 85,
      "start": 24.7988,
      "duration": 0.167,
      "velocity": 103,
      "chip": "ym2612"
    },
    {
      "channel": 0,
      "note": 51,
      "start": 24.9649,
      "duration": 0.4831,
      "velocity": 96,
      "chip": "ym2612"
    },
    {
      "channel": 1,
      "note": 79,
      "start": 24.9654,
      "duration": 0.316,
      "velocity": 103,
      "chip": "ym2612"
    },
    {
      "channel": 2,
      "note": 75,
      "start": 24.966,
      "duration": 0.316,
      "velocity": 103,
      "chip": "ym2612"
    },
    {
      "channel": 1,
      "note": 87,
      "start": 25.2816,
      "duration": 0.1671,
      "velocity": 103,
      "chip": "ym2612"
    },
    {
      "channel": 2,
      "note": 91,
      "start": 25.2822,
      "duration": 0.167,
      "velocity": 103,
      "chip": "ym2612"
    },
    {
      "channel": 0,
      "note": 55,
      "start": 25.4483,
      "duration": 0.4665,
      "velocity": 96,
      "chip": "ym2612"
    },
    {
      "channel": 1,
      "note": 79,
      "start": 25.4488,
      "duration": 0.316,
      "velocity": 103,
      "chip": "ym2612"
    },
    {
      "channel": 2,
      "note": 75,
      "start": 25.4493,
      "duration": 0.316,
      "velocity": 103,
      "chip": "ym2612"
    },
    {
      "channel": 1,
      "note": 87,
      "start": 25.7649,
      "duration": 0.1504,
      "velocity": 103,
      "chip": "ym2612"
    },
    {
      "channel": 2,
      "note": 91,
      "start": 25.7655,
      "duration": 0.1503,
      "velocity": 103,
      "chip": "ym2612"
    },
    {
      "channel": 0,
      "note": 56,
      "start": 25.9149,
      "duration": 0.4831,
      "velocity": 96,
      "chip": "ym2612"
    },
    {
      "channel": 1,
      "note": 80,
      "start": 25.9154,
      "duration": 0.3327,
      "velocity": 103,
      "chip": "ym2612"
    },
    {
      "channel": 2,
      "note": 84,
      "start": 25.916,
      "duration": 0.3326,
      "velocity": 103,
      "chip": "ym2612"
    },
    {
      "channel": 1,
      "note": 84,
      "start": 26.2483,
      "duration": 0.1504,
      "velocity": 103,
      "chip": "ym2612"
    },
    {
      "channel": 2,
      "note": 87,
      "start": 26.2488,
      "duration": 0.1503,
      "velocity": 103,
      "chip": "ym2612"
    },
    {
      "channel": 0,
      "note": 51,
      "start": 26.3983,
      "duration": 0.4833,
      "velocity": 96,
      "chip": "ym2612"
    },
    {
      "channel": 1,
      "note": 80,
      "start": 26.3988,
      "duration": 0.3161,
      "velocity": 103,
      "chip": "ym2612"
    },
    {
      "channel": 2,
      "note": 84,
      "start": 26.3993,
      "duration": 0.3161,
      "velocity": 103,
      "chip": "ym2612"
    },
    {
      "channel": 1,
      "note": 84,
      "start": 26.715,
      "duration": 0.1672,
      "velocity": 103,
      "chip": "ym2612"
    },
    {
      "channel": 2,
      "note": 87,
      "start": 26.7156,
      "duration": 0.1673,
      "velocity": 103,
      "chip": "ym2612"
    },
    {
      "channel": 0,
      "note": 54,
      "start": 26.8818,
      "duration": 0.4605,
      "velocity": 96,
      "chip": "ym2612"
    },
    {
      "channel": 1,
      "note": 78,
      "start": 26.8824,
      "duration": 0.3157,
      "velocity": 103,
      "chip": "ym2612"
    },
    {
      "channel": 2,
      "note": 82,
      "start": 26.883,
      "duration": 0.3157,
      "velocity": 103,
      "chip": "ym2612"
    },
    {
      "channel": 3,
      "note": 78,
      "start": 26.8851,
      "duration": 0.3141,
      "velocity": 102,
      "chip": "ym2612"
    },
    {
      "channel": 1,
      "note": 82,
      "start": 27.1983,
      "duration": 0.1439,
      "velocity": 103,
      "chip": "ym2612"
    },
    {
      "channel": 2,
      "note": 85,
      "start": 27.1988,
      "duration": 0.1434,
      "velocity": 103,
      "chip": "ym2612"
    },
    {
      "channel": 3,
      "note": 82,
      "start": 27.1994,
      "duration": 0.1429,
      "velocity": 102,
      "chip": "ym2612"
    }
  ]
}