{
  "track_name": "04 - Missions 3 and 5",
  "duration_sec": 90.858,
  "sample_rate": 44100,
  "note_count": 2880,
  "unique_pitches": 41,
  "pitch_range": 77,
  "avg_note_duration": 0.1745,
  "reconstruction_stats": {
    "notes_reconstructed": 2880,
    "keyon_events": 2880,
    "keyoff_events": 2791,
    "orphan_keyons": 6,
    "unique_pitches": 41,
    "pitch_range": 77,
    "avg_duration_sec": 0.1745
  },
  "metadata": {
    "source": "R\\Rambo III\\04 - Missions 3 and 5.vgz"
  },
  "notes": [
    {
      "channel": 0,
      "note": 71,
      "start": 0.0,
      "duration": 0.0677,
      "velocity": 89,
      "chip": "ym2612"
    },
    {
      "channel": 1,
      "note": 64,
      "start": 0.0041,
      "duration": 0.0638,
      "velocity": 89,
      "chip": "ym2612"
    },
    {
      "channel": 3,
      "note": 71,
      "start": 0.0105,
      "duration": 0.0576,
      "velocity": 89,
      "chip": "ym2612"
    },
    {
      "channel": 2,
      "note": 64,
      "start": 0.0138,
      "duration": 0.0227,
      "velocity": 1,
      "chip": "ym2612"
    },
    {
      "channel": 5,
      "note": 64,
      "start": 0.0245,
      "duration": 0.0756,
      "velocity": 89,
      "chip": "ym2612"
    },
    {
      "channel": 2,
      "note": 73,
      "start": 0.0402,
      "duration": 0.0451,
      "velocity": 1,
      "chip": "ym2612"
    },
    {
      "channel": 0,
      "note": 73,
      "start": 0.0841,
      "duration": 0.0793,
      "velocity": 89,
      "chip": "ym2612"
    },
    {
      "channel": 1,
      "note": 66,
      "start": 0.0848,
      "duration": 0.0788,
      "velocity": 89,
      "chip": "ym2612"
    },
    {
      "channel": 3,
      "note": 73,
      "start": 0.0879,
      "duration": 0.0759,
      "velocity": 89,
      "chip": "ym2612"
    },
    {
      "channel": 4,
      "note": 71,
      "start": 0.0919,
      "duration": 0.0722,
      "velocity": 89,
      "chip": "ym2612"
    },
    {
      "channel": 2,
      "note": 77,
      "start": 0.0941,
      "duration": 0.0866,
      "velocity": 1,
      "chip": "ym2612"
    },
    {
      "channel": 5,
      "note": 66,
      "start": 0.1166,
      "duration": 0.0793,
      "velocity": 89,
      "chip": "ym2612"
    },
    {
      "channel": 0,
      "note": 66,
      "start": 0.1797,
      "duration": 0.0795,
      "velocity": 89,
      "chip": "ym2612"
    },
    {
      "channel": 1,
      "note": 59,
      "start": 0.1801,
      "duration": 0.0791,
      "velocity": 89,
      "chip": "ym2612"
    },
    {
      "channel": 3,
      "note": 66,
      "start": 0.1831,
      "duration": 0.0765,
      "velocity": 89,
      "chip": "ym2612"
    },
    {
      "channel": 4,
      "note": 73,
      "start": 0.1838,
      "duration": 0.076,
      "velocity": 89,
      "chip": "ym2612"
    },
    {
      "channel": 2,
      "note": 64,
      "start": 0.1859,
      "duration": 0.1866,
      "velocity": 1,
      "chip": "ym2612"
    },
    {
      "channel": 5,
      "note": 59,
      "start": 0.2121,
      "duration": 0.0794,
      "velocity": 89,
      "chip": "ym2612"
    },
    {
      "channel": 0,
      "note": 76,
      "start": 0.2754,
      "duration": 0.0795,
      "velocity": 89,
      "chip": "ym2612"
    },
    {
      "channel": 1,
      "note": 69,
      "start": 0.2759,
      "duration": 0.0791,
      "velocity": 89,
      "chip": "ym2612"
    },
    {
      "channel": 3,
      "note": 76,
      "start": 0.2764,
      "duration": 0.0788,
      "velocity": 89,
      "chip": "ym2612"
    },
    {
      "channel": 4,
      "note": 66,
      "start": 0.2769,
      "duration": 0.0786,
      "velocity": 89,
      "chip": "ym2612"
    },
    {
      "channel": 5,
      "note": 69,
      "start": 0.3078,
      "duration": 0.0795,
      "velocity": 89,
      "chip": "ym2612"
    },
    {
      "channel": 0,
      "note": 78,
      "start": 0.3713,
      "duration": 0.0793,
      "velocity": 89,
      "chip": "ym2612"
    },
    {
      "channel": 1,
      "note": 71,
      "start": 0.3719,
      "duration": 0.0788,
      "velocity": 89,
      "chip": "ym2612"
    },
    {
      "channel": 3,
      "note": 78,
      "start": 0.375,
      "duration": 0.076,
      "velocity": 89,
      "chip": "ym2612"
    },
    {
      "channel": 4,
      "note": 76,
      "start": 0.3755,
      "duration": 0.0757,
      "velocity": 89,
      "chip": "ym2612"
    },
    {
      "channel": 2,
      "note": 26,
      "start": 0.3777,
      "duration": 0.042,
      "velocity": 120,
      "chip": "ym2612"
    },
    {
      "channel": 5,
      "note": 71,
      "start": 0.4037,
      "duration": 0.0792,
      "velocity": 89,
      "chip": "ym2612"
    },
    {
      "channel": 0,
      "note": 70,
      "start": 0.467,
      "duration": 0.0952,
      "velocity": 89,
      "chip": "ym2612"
    },
    {
      "channel": 1,
      "note": 63,
      "start": 0.4676,
      "duration": 0.0948,
      "velocity": 89,
      "chip": "ym2612"
    },
    {
      "channel": 3,
      "note": 70,
      "start": 0.4683,
      "duration": 0.0943,
      "velocity": 89,
      "chip": "ym2612"
    },
    {
      "channel": 4,
      "note": 78,
      "start": 0.469,
      "duration": 0.0938,
      "velocity": 89,
      "chip": "ym2612"
    },
    {
      "channel": 5,
      "note": 63,
      "start": 0.5154,
      "duration": 0.0792,
      "velocity": 89,
      "chip": "ym2612"
    },
    {
      "channel": 0,
      "note": 71,
      "start": 0.5784,
      "duration": 0.0795,
      "velocity": 89,
      "chip": "ym2612"
    },
    {
      "channel": 1,
      "note": 64,
      "start": 0.5789,
      "duration": 0.0791,
      "velocity": 89,
      "chip": "ym2612"
    },
    {
      "channel": 3,
      "note": 71,
      "start": 0.5819,
      "duration": 0.0764,
      "velocity": 89,
      "chip": "ym2612"
    },
    {
      "channel": 4,
      "note": 70,
      "start": 0.5825,
      "duration": 0.076,
      "velocity": 89,
      "chip": "ym2612"
    },
    {
      "channel": 2,
      "note": 26,
      "start": 0.5846,
      "duration": 0.0425,
      "velocity": 120,
      "chip": "ym2612"
    },
    {
      "channel": 5,
      "note": 64,
      "start": 0.6108,
      "duration": 0.0795,
      "velocity": 89,
      "chip": "ym2612"
    },
    {
      "channel": 0,
      "note": 74,
      "start": 0.6741,
      "duration": 0.0795,
      "velocity": 89,
      "chip": "ym2612"
    },
    {
      "channel": 1,
      "note": 67,
      "start": 0.6746,
      "duration": 0.0792,
      "velocity": 89,
      "chip": "ym2612"
    },
    {
      "channel": 3,
      "note": 74,
      "start": 0.6752,
      "duration": 0.0789,
      "velocity": 89,
      "chip": "ym2612"
    },
    {
      "channel": 4,
      "note": 71,
      "start": 0.6757,
      "duration": 0.0786,
      "velocity": 89,
      "chip": "ym2612"
    },
    {
      "channel": 5,
      "note": 67,
      "start": 0.7066,
      "duration": 0.0795,
      "velocity": 89,
      "chip": "ym2612"
    },
    {
      "channel": 0,
      "note": 64,
      "start": 0.77,
      "duration": 0.0793,
      "velocity": 89,
      "chip": "ym2612"
    },
    {
      "channel": 1,
      "note": 57,
      "start": 0.7706,
      "duration": 0.0788,
      "velocity": 89,
      "chip": "ym2612"
    },
    {
      "channel": 3,
      "note": 64,
      "start": 0.7738,
      "duration": 0.0759,
      "velocity": 89,
      "chip": "ym2612"
    },
    {
      "channel": 4,
      "note": 74,
      "start": 0.7743,
      "duration": 0.0756,
      "velocity": 89,
      "chip": "ym2612"
    },
    {
      "channel": 2,
      "note": 64,
      "start": 0.7765,
      "duration": 0.3935,
      "velocity": 1,
      "chip": "ym2612"
    },
    {
      "channel": 5,
      "note": 57,
      "start": 0.8024,
      "duration": 0.0793,
      "velocity": 89,
      "chip": "ym2612"
    },
    {
      "channel": 0,
      "note": 74,
      "start": 0.8657,
      "duration": 0.0793,
      "velocity": 89,
      "chip": "ym2612"
    },
    {
      "channel": 1,
      "note": 67,
      "start": 0.8664,
      "duration": 0.0788,
      "velocity": 89,
      "chip": "ym2612"
    },
    {
      "channel": 3,
      "note": 74,
      "start": 0.8671,
      "duration": 0.0783,
      "velocity": 89,
      "chip": "ym2612"
    },
    {
      "channel": 4,
      "note": 64,
      "start": 0.8678,
      "duration": 0.0779,
      "velocity": 89,
      "chip": "ym2612"
    },
    {
      "channel": 5,
      "note": 67,
      "start": 0.8983,
      "duration": 0.0792,
      "velocity": 89,
      "chip": "ym2612"
    },
    {
      "channel": 0,
      "note": 76,
      "start": 0.9612,
      "duration": 0.0954,
      "velocity": 89,
      "chip": "ym2612"
    },
    {
      "channel": 1,
      "note": 69,
      "start": 0.9617,
      "duration": 0.0951,
      "velocity": 89,
      "chip": "ym2612"
    },
    {
      "channel": 3,
      "note": 76,
      "start": 0.9623,
      "duration": 0.0948,
      "velocity": 89,
      "chip": "ym2612"
    },
    {
      "channel": 4,
      "note": 74,
      "start": 0.9629,
      "duration": 0.0943,
      "velocity": 89,
      "chip": "ym2612"
    },
    {
      "channel": 5,
      "note": 69,
      "start": 0.9937,
      "duration": 0.0954,
      "velocity": 89,
      "chip": "ym2612"
    },
    {
      "channel": 0,
      "note": 78,
      "start": 1.0729,
      "duration": 0.0794,
      "velocity": 89,
      "chip": "ym2612"
    },
    {
      "channel": 1,
      "note": 71,
      "start": 1.0734,
      "duration": 0.0791,
      "velocity": 89,
      "chip": "ym2612"
    },
    {
      "channel": 3,
      "note": 78,
      "start": 1.0739,
      "duration": 0.0788,
      "velocity": 89,
      "chip": "ym2612"
    },
    {
      "channel": 4,
      "note": 76,
      "start": 1.0744,
      "duration": 0.0786,
      "velocity": 89,
      "chip": "ym2612"
    },
    {
      "channel": 5,
      "note": 71,
      "start": 1.1054,
      "duration": 0.0794,
      "velocity": 89,
      "chip": "ym2612"
    },
    {
      "channel": 0,
      "note": 77,
      "start": 1.1688,
      "duration": 0.0793,
      "velocity": 89,
      "chip": "ym2612"
    },
    {
      "channel": 1,
      "note": 70,
      "start": 1.1694,
      "duration": 0.0789,
      "velocity": 89,
      "chip": "ym2612"
    },
    {
      "channel": 3,
      "note": 77,
      "start": 1.1726,
      "duration": 0.076,
      "velocity": 89,
      "chip": "ym2612"
    },
    {
      "channel": 4,
      "note": 78,
      "start": 1.173,
      "duration": 0.0758,
      "velocity": 89,
      "chip": "ym2612"
    },
    {
      "channel": 2,
      "note": 26,
      "start": 1.1752,
      "duration": 0.0421,
      "velocity": 120,
      "chip": "ym2612"
    },
    {
      "channel": 5,
      "note": 70,
      "start": 1.2012,
      "duration": 0.0793,
      "velocity": 89,
      "chip": "ym2612"
    },
    {
      "channel": 0,
      "note": 62,
      "start": 1.2645,
      "duration": 0.0792,
      "velocity": 89,
      "chip": "ym2612"
    },
    {
      "channel": 1,
      "note": 55,
      "start": 1.2652,
      "duration": 0.0787,
      "velocity": 89,
      "chip": "ym2612"
    },
    {
      "channel": 3,
      "note": 62,
      "start": 1.2683,
      "duration": 0.0759,
      "velocity": 89,
      "chip": "ym2612"
    },
    {
      "channel": 4,
      "note": 77,
      "start": 1.269,
      "duration": 0.0754,
      "velocity": 89,
      "chip": "ym2612"
    },
    {
      "channel": 2,
      "note": 73,
      "start": 1.2712,
      "duration": 0.0902,
      "velocity": 1,
      "chip": "ym2612"
    },
    {
      "channel": 5,
      "note": 55,
      "start": 1.2969,
      "duration": 0.0793,
      "velocity": 89,
      "chip": "ym2612"
    },
    {
      "channel": 0,
      "note": 80,
      "start": 1.3602,
      "duration": 0.0793,
      "velocity": 89,
      "chip": "ym2612"
    },
    {
      "channel": 1,
      "note": 73,
      "start": 1.3608,
      "duration": 0.0788,
      "velocity": 89,
      "chip": "ym2612"
    },
    {
      "channel": 3,
      "note": 80,
      "start": 1.3622,
      "duration": 0.0777,
      "velocity": 89,
      "chip": "ym2612"
    },
    {
      "channel": 4,
      "note": 62,
      "start": 1.3629,
      "duration": 0.0772,
      "velocity": 89,
      "chip": "ym2612"
    },
    {
      "channel": 5,
      "note": 73,
      "start": 1.3927,
      "duration": 0.0793,
      "velocity": 89,
      "chip": "ym2612"
    },
    {
      "channel": 4,
      "note": 80,
      "start": 1.46,
      "duration": 0.0917,
      "velocity": 89,
      "chip": "ym2612"
    },
    {
      "channel": 2,
      "note": 64,
      "start": 1.4619,
      "duration": 0.1138,
      "velocity": 1,
      "chip": "ym2612"
    },
    {
      "channel": 0,
      "note": 71,
      "start": 1.5711,
      "duration": 0.7615,
      "velocity": 111,
      "chip": "ym2612"
    },
    {
      "channel": 1,
      "note": 54,
      "start": 1.5752,
      "duration": 1.5718,
      "velocity": 112,
      "chip": "ym2612"
    },
    {
      "channel": 3,
      "note": 74,
      "start": 1.582,
      "duration": 0.0651,
      "velocity": 106,
      "chip": "ym2612"
    },
    {
      "channel": 2,
      "note": 64,
      "start": 1.5853,
      "duration": 0.0302,
      "velocity": 1,
      "chip": "ym2612"
    },
    {
      "channel": 2,
      "note": 73,
      "start": 1.6193,
      "duration": 0.0441,
      "velocity": 1,
      "chip": "ym2612"
    },
    {
      "channel": 3,
      "note": 73,
      "start": 1.6658,
      "duration": 0.077,
      "velocity": 106,
      "chip": "ym2612"
    },
    {
      "channel": 4,
      "note": 71,
      "start": 1.6701,
      "duration": 0.7587,
      "velocity": 111,
      "chip": "ym2612"
    },
    {
      "channel": 5,
      "note": 54,
      "start": 1.6743,
      "duration": 1.5715,
      "velocity": 112,
      "chip": "ym2612"
    },
    {
      "channel": 2,
      "note": 77,
      "start": 1.6761,
      "duration": 0.0829,
      "velocity": 1,
      "chip": "ym2612"
    },
    {
      "channel": 3,
      "note": 66,
      "start": 1.7614,
      "duration": 0.0771,
      "velocity": 106,
      "chip": "ym2612"
    },
    {
      "channel": 2,
      "note": 103,
      "start": 1.7633,
      "duration": 0.0915,
      "velocity": 1,
      "chip": "ym2612"
    },
    {
      "channel": 3,
      "note": 73,
      "start": 1.8572,
      "duration": 0.077,
      "velocity": 106,
      "chip": "ym2612"
    },
    {
      "channel": 2,
      "note": 103,
      "start": 1.8591,
      "duration": 0.0914,
      "velocity": 1,
      "chip": "ym2612"
    },
    {
      "channel": 3,
      "note": 74,
      "start": 1.9532,
      "duration": 0.0927,
      "velocity": 106,
      "chip": "ym2612"
    },
    {
      "channel": 2,
      "note": 73,
      "start": 1.9553,
      "duration": 0.1068,
      "velocity": 1,
      "chip": "ym2612"
    },
    {
      "channel": 3,
      "note": 73,
      "start": 2.0645,
      "duration": 0.077,
      "velocity": 106,
      "chip": "ym2612"
    },
    {
      "channel": 2,
      "note": 103,
      "start": 2.0664,
      "duration": 0.0914,
      "velocity": 1,
      "chip": "ym2612"
    },
    {
      "channel": 3,
      "note": 66,
      "start": 2.1602,
      "duration": 0.0771,
      "velocity": 106,
      "chip": "ym2612"
    },
    {
      "channel": 2,
      "note": 64,
      "start": 2.1621,
      "duration": 0.0914,
      "velocity": 1,
      "chip": "ym2612"
    },
    {
      "channel": 3,
      "note": 73,
      "start": 2.2559,
      "duration": 0.0771,
      "velocity": 106,
      "chip": "ym2612"
    },
    {
      "channel": 2,
      "note": 64,
      "start": 2.2578,
      "duration": 0.0919,
      "velocity": 1,
      "chip": "ym2612"
    },
    {
      "channel": 0,
      "note": 73,
      "start": 2.349,
      "duration": 0.3665,
      "velocity": 111,
      "chip": "ym2612"
    },
    {
      "channel": 3,
      "note": 74,
      "start": 2.3523,
      "duration": 0.0763,
      "velocity": 106,
      "chip": "ym2612"
    },
    {
      "channel": 2,
      "note": 26,
      "start": 2.3547,
      "duration": 0.043,
      "velocity": 120,
      "chip": "ym2612"
    },
    {
      "channel": 3,
      "note": 73,
      "start": 2.4473,
      "duration": 0.0771,
      "velocity": 106,
      "chip": "ym2612"
    },
    {
      "channel": 4,
      "note": 73,
      "start": 2.4479,
      "duration": 0.3661,
      "velocity": 111,
      "chip": "ym2612"
    },
    {
      "channel": 2,
      "note": 26,
      "start": 2.4497,
      "duration": 0.0431,
      "velocity": 1,
      "chip": "ym2612"
    },
    {
      "channel": 2,
      "note": 103,
      "start": 2.4966,
      "duration": 0.06,
      "velocity": 1,
      "chip": "ym2612"
    },
    {
      "channel": 3,
      "note": 66,
      "start": 2.5589,
      "duration": 0.0771,
      "velocity": 106,
      "chip": "ym2612"
    },
    {
      "channel": 2,
      "note": 103,
      "start": 2.5608,
      "duration": 0.0915,
      "velocity": 1,
      "chip": "ym2612"
    },
    {
      "channel": 3,
      "note": 73,
      "start": 2.6547,
      "duration": 0.0776,
      "velocity": 106,
      "chip": "ym2612"
    },
    {
      "channel": 2,
      "note": 103,
      "start": 2.6566,
      "duration": 0.0915,
      "velocity": 1,
      "chip": "ym2612"
    },
    {
      "channel": 0,
      "note": 80,
      "start": 2.7318,
      "duration": 0.3983,
      "velocity": 111,
      "chip": "ym2612"
    },
    {
      "channel": 3,
      "note": 74,
      "start": 2.7508,
      "duration": 0.0767,
      "velocity": 106,
      "chip": "ym2612"
    },
    {
      "channel": 2,
      "note": 73,
      "start": 2.753,
      "duration": 0.027,
      "velocity": 1,
      "chip": "ym2612"
    },
    {
      "channel": 2,
      "note": 73,
      "start": 2.7838,
      "duration": 0.028,
      "velocity": 1,
      "chip": "ym2612"
    },
    {
      "channel": 2,
      "note": 73,
      "start": 2.8157,
      "duration": 0.028,
      "velocity": 1,
      "chip": "ym2612"
    },
    {
      "channel": 4,
      "note": 80,
      "start": 2.828,
      "duration": 0.3985,
      "velocity": 111,
      "chip": "ym2612"
    },
    {
      "channel": 3,
      "note": 73,
      "start": 2.8461,
      "duration": 0.077,
      "velocity": 106,
      "chip": "ym2612"
    },
    {
      "channel": 2,
      "note": 73,
      "start": 2.8481,
      "duration": 0.0913,
      "velocity": 1,
      "chip": "ym2612"
    },
    {
      "channel": 3,
      "note": 66,
      "start": 2.9418,
      "duration": 0.0771,
      "velocity": 106,
      "chip": "ym2612"
    },
    {
      "channel": 2,
      "note": 103,
      "start": 2.9437,
      "duration": 0.0915,
      "velocity": 1,
      "chip": "ym2612"
    },
    {
      "channel": 3,
      "note": 73,
      "start": 3.0375,
      "duration": 0.0931,
      "velocity": 106,
      "chip": "ym2612"
    },
    {
      "channel": 2,
      "note": 26,
      "start": 3.0393,
      "duration": 0.0441,
      "velocity": 120,
      "chip": "ym2612"
    },
    {
      "channel": 2,
      "note": 64,
      "start": 3.1027,
      "duration": 0.0449,
      "velocity": 1,
      "chip": "ym2612"
    },
    {
      "channel": 0,
      "note": 78,
      "start": 3.1465,
      "duration": 0.9571,
      "velocity": 111,
      "chip": "ym2612"
    },
    {
      "channel": 1,
      "note": 54,
      "start": 3.147,
      "duration": 1.5791,
      "velocity": 112,
      "chip": "ym2612"
    },
    {
      "channel": 3,
      "note": 74,
      "start": 3.1509,
      "duration": 0.0754,
      "velocity": 106,
      "chip": "ym2612"
    },
    {
      "channel": 2,
      "note": 64,
      "start": 3.1535,
      "duration": 0.0411,
      "velocity": 1,
      "chip": "ym2612"
    },
    {
      "channel": 2,
      "note": 73,
      "start": 3.1985,
      "duration": 0.044,
      "velocity": 1,
      "chip": "ym2612"
    },
    {
      "channel": 3,
      "note": 73,
      "start": 3.2448,
      "duration": 0.0771,
      "velocity": 106,
      "chip": "ym2612"
    },
    {
      "channel": 4,
      "note": 78,
      "start": 3.2453,
      "duration": 0.9543,
      "velocity": 111,
      "chip": "ym2612"
    },
    {
      "channel": 5,
      "note": 54,
      "start": 3.2458,
      "duration": 1.5791,
      "velocity": 112,
      "chip": "ym2612"
    },
    {
      "channel": 2,
      "note": 77,
      "start": 3.2476,
      "duration": 0.0906,
      "velocity": 1,
      "chip": "ym2612"
    },
    {
      "channel": 3,
      "note": 66,
      "start": 3.3405,
      "duration": 0.0771,
      "velocity": 106,
      "chip": "ym2612"
    },
    {
      "channel": 2,
      "note": 103,
      "start": 3.3425,
      "duration": 0.0914,
      "velocity": 1,
      "chip": "ym2612"
    },
    {
      "channel": 3,
      "note": 73,
      "start": 3.4362,
      "duration": 0.0771,
      "velocity": 106,
      "chip": "ym2612"
    },
    {
      "channel": 2,
      "note": 103,
      "start": 3.4381,
      "duration": 0.0915,
      "velocity": 1,
      "chip": "ym2612"
    },
    {
      "channel": 3,
      "note": 74,
      "start": 3.5324,
      "duration": 0.0926,
      "velocity": 106,
      "chip": "ym2612"
    },
    {
      "channel": 2,
      "note": 73,
      "start": 3.5344,
      "duration": 0.1068,
      "velocity": 1,
      "chip": "ym2612"
    },
    {
      "channel": 3,
      "note": 73,
      "start": 3.6436,
      "duration": 0.0771,
      "velocity": 106,
      "chip": "ym2612"
    },
    {
      "channel": 2,
      "note": 103,
      "start": 3.6455,
      "duration": 0.0914,
      "velocity": 1,
      "chip": "ym2612"
    },
    {
      "channel": 3,
      "note": 66,
      "start": 3.7393,
      "duration": 0.0771,
      "velocity": 106,
      "chip": "ym2612"
    },
    {
      "channel": 2,
      "note": 64,
      "start": 3.7412,
      "duration": 0.0915,
      "velocity": 1,
      "chip": "ym2612"
    },
    {
      "channel": 3,
      "note": 73,
      "start": 3.835,
      "duration": 0.0771,
      "velocity": 106,
      "chip": "ym2612"
    },
    {
      "channel": 2,
      "note": 64,
      "start": 3.8369,
      "duration": 0.0914,
      "velocity": 1,
      "chip": "ym2612"
    },
    {
      "channel": 3,
      "note": 74,
      "start": 3.931,
      "duration": 0.0768,
      "velocity": 106,
      "chip": "ym2612"
    },
    {
      "channel": 2,
      "note": 26,
      "start": 3.9332,
      "duration": 0.0435,
      "velocity": 120,
      "chip": "ym2612"
    },
    {
      "channel": 3,
      "note": 73,
      "start": 4.0264,
      "duration": 0.093,
      "velocity": 106,
      "chip": "ym2612"
    },
    {
      "channel": 2,
      "note": 26,
      "start": 4.0283,
      "duration": 0.0441,
      "velocity": 120,
      "chip": "ym2612"
    },
    {
      "channel": 2,
      "note": 103,
      "start": 4.0916,
      "duration": 0.0441,
      "velocity": 1,
      "chip": "ym2612"
    },
    {
      "channel": 0,
      "note": 78,
      "start": 4.1035,
      "duration": 0.6058,
      "velocity": 111,
      "chip": "ym2612"
    },
    {
      "channel": 3,
      "note": 66,
      "start": 4.1381,
      "duration": 0.0771,
      "velocity": 106,
      "chip": "ym2612"
    },
    {
      "channel": 2,
      "note": 103,
      "start": 4.14,
      "duration": 0.0915,
      "velocity": 1,
      "chip": "ym2612"
    },
    {
      "channel": 4,
      "note": 78,
      "start": 4.1997,
      "duration": 0.6059,
      "velocity": 111,
      "chip": "ym2612"
    },
    {
      "channel": 3,
      "note": 73,
      "start": 4.2338,
      "duration": 0.077,
      "velocity": 106,
      "chip": "ym2612"
    },
    {
      "channel": 2,
      "note": 103,
      "start": 4.2359,
      "duration": 0.0913,
      "velocity": 1,
      "chip": "ym2612"
    },
    {
      "channel": 3,
      "note": 74,
      "start": 4.3298,
      "duration": 0.0768,
      "velocity": 106,
      "chip": "ym2612"
    },
    {
      "channel": 2,
      "note": 73,
      "start": 4.332,
      "duration": 0.027,
      "velocity": 1,
      "chip": "ym2612"
    },
    {
      "channel": 2,
      "note": 73,
      "start": 4.3627,
      "duration": 0.0282,
      "velocity": 1,
      "chip": "ym2612"
    },
    {
      "channel": 2,
      "note": 73,
      "start": 4.3946,
      "duration": 0.0282,
      "velocity": 1,
      "chip": "ym2612"
    },
    {
      "channel": 3,
      "note": 73,
      "start": 4.4252,
      "duration": 0.0771,
      "velocity": 106,
      "chip": "ym2612"
    },
    {
      "channel": 2,
      "note": 73,
      "start": 4.4271,
      "duration": 0.0915,
      "velocity": 1,
      "chip": "ym2612"
    },
    {
      "channel": 3,
      "note": 66,
      "start": 4.5209,
      "duration": 0.093,
      "velocity": 106,
      "chip": "ym2612"
    },
    {
      "channel": 2,
      "note": 103,
      "start": 4.5228,
      "duration": 0.1074,
      "velocity": 1,
      "chip": "ym2612"
    },
    {
      "channel": 3,
      "note": 73,
      "start": 4.6326,
      "duration": 0.0771,
      "velocity": 106,
      "chip": "ym2612"
    },
    {
      "channel": 2,
      "note": 26,
      "start": 4.6345,
      "duration": 0.0435,
      "velocity": 1,
      "chip": "ym2612"
    },
    {
      "channel": 2,
      "note": 64,
      "start": 4.6818,
      "duration": 0.0449,
      "velocity": 1,
      "chip": "ym2612"
    },
    {
      "channel": 0,
      "note": 85,
      "start": 4.7256,
      "duration": 0.5739,
      "velocity": 111,
      "chip": "ym2612"
    },
    {
      "channel": 1,
      "note": 54,
      "start": 4.7261,
      "duration": 1.5788,
      "velocity": 112,
      "chip": "ym2612"
    },
    {
      "channel": 3,
      "note": 74,
      "start": 4.7299,
      "duration": 0.0754,
      "velocity": 106,
      "chip": "ym2612"
    },
    {
      "channel": 2,
      "note": 64,
      "start": 4.7326,
      "duration": 0.0412,
      "velocity": 1,
      "chip": "ym2612"
    },
    {
      "channel": 2,
      "note": 73,
      "start": 4.7775,
      "duration": 0.0441,
      "velocity": 1,
      "chip": "ym2612"
    },
    {
      "channel": 3,
      "note": 73,
      "start": 4.8239,
      "duration": 0.0771,
      "velocity": 106,
      "chip": "ym2612"
    },
    {
      "channel": 4,
      "note": 85,
      "start": 4.8244,
      "duration": 0.5713,
      "velocity": 111,
      "chip": "ym2612"
    },
    {
      "channel": 5,
      "note": 54,
      "start": 4.8249,
      "duration": 1.5788,
      "velocity": 112,
      "chip": "ym2612"
    },
    {
      "channel": 2,
      "note": 77,
      "start": 4.8267,
      "duration": 0.0906,
      "velocity": 1,
      "chip": "ym2612"
    },
    {
      "channel": 3,
      "note": 66,
      "start": 4.9196,
      "duration": 0.0771,
      "velocity": 106,
      "chip": "ym2612"
    },
    {
      "channel": 2,
      "note": 103,
      "start": 4.9215,
      "duration": 0.0915,
      "velocity": 1,
      "chip": "ym2612"
    },
    {
      "channel": 3,
      "note": 73,
      "start": 5.0154,
      "duration": 0.0929,
      "velocity": 106,
      "chip": "ym2612"
    },
    {
      "channel": 2,
      "note": 103,
      "start": 5.0173,
      "duration": 0.1073,
      "velocity": 1,
      "chip": "ym2612"
    },
    {
      "channel": 3,
      "note": 74,
      "start": 5.1273,
      "duration": 0.0768,
      "velocity": 106,
      "chip": "ym2612"
    },
    {
      "channel": 2,
      "note": 73,
      "start": 5.1295,
      "duration": 0.0909,
      "velocity": 1,
      "chip": "ym2612"
    },
    {
      "channel": 3,
      "note": 73,
      "start": 5.2227,
      "duration": 0.0772,
      "velocity": 106,
      "chip": "ym2612"
    },
    {
      "channel": 2,
      "note": 103,
      "start": 5.2246,
      "duration": 0.0918,
      "velocity": 1,
      "chip": "ym2612"
    },
    {
      "channel": 0,
      "note": 83,
      "start": 5.3157,
      "duration": 0.3666,
      "velocity": 111,
      "chip": "ym2612"
    },
    {
      "channel": 3,
      "note": 66,
      "start": 5.3188,
      "duration": 0.0767,
      "velocity": 106,
      "chip": "ym2612"
    },
    {
      "channel": 2,
      "note": 64,
      "start": 5.321,
      "duration": 0.0907,
      "velocity": 1,
      "chip": "ym2612"
    },
    {
      "channel": 3,
      "note": 73,
      "start": 5.4141,
      "duration": 0.0771,
      "velocity": 106,
      "chip": "ym2612"
    },
    {
      "channel": 4,
      "note": 83,
      "start": 5.4147,
      "duration": 0.3637,
      "velocity": 111,
      "chip": "ym2612"
    },
    {
      "channel": 2,
      "note": 64,
      "start": 5.4166,
      "duration": 0.0909,
      "velocity": 1,
      "chip": "ym2612"
    },
    {
      "channel": 3,
      "note": 74,
      "start": 5.5102,
      "duration": 0.0768,
      "velocity": 106,
      "chip": "ym2612"
    },
    {
      "channel": 2,
      "note": 26,
      "start": 5.5122,
      "duration": 0.0436,
      "velocity": 120,
      "chip": "ym2612"
    },
    {
      "channel": 3,
      "note": 73,
      "start": 5.6215,
      "duration": 0.0775,
      "velocity": 106,
      "chip": "ym2612"
    },
    {
      "channel": 2,
      "note": 26,
      "start": 5.6233,
      "duration": 0.0437,
      "velocity": 1,
      "chip": "ym2612"
    },
    {
      "channel": 2,
      "note": 103,
      "start": 5.6706,
      "duration": 0.0443,
      "velocity": 1,
      "chip": "ym2612"
    },
    {
      "channel": 0,
      "note": 80,
      "start": 5.6986,
      "duration": 0.3825,
      "velocity": 111,
      "chip": "ym2612"
    },
    {
      "channel": 3,
      "note": 66,
      "start": 5.7173,
      "duration": 0.077,
      "velocity": 106,
      "chip": "ym2612"
    },
    {
      "channel": 2,
      "note": 103,
      "start": 5.7193,
      "duration": 0.0913,
      "velocity": 1,
      "chip": "ym2612"
    },
    {
      "channel": 4,
      "note": 80,
      "start": 5.7948,
      "duration": 0.3985,
      "velocity": 111,
      "chip": "ym2612"
    },
    {
      "channel": 3,
      "note": 73,
      "start": 5.8129,
      "duration": 0.0771,
      "velocity": 106,
      "chip": "ym2612"
    },
    {
      "channel": 2,
      "note": 103,
      "start": 5.815,
      "duration": 0.0913,
      "velocity": 1,
      "chip": "ym2612"
    },
    {
      "channel": 3,
      "note": 74,
      "start": 5.9089,
      "duration": 0.0767,
      "velocity": 106,
      "chip": "ym2612"
    },
    {
      "channel": 2,
      "note": 73,
      "start": 5.911,
      "duration": 0.0271,
      "velocity": 1,
      "chip": "ym2612"
    },
    {
      "channel": 2,
      "note": 73,
      "start": 5.9418,
      "duration": 0.0282,
      "velocity": 1,
      "chip": "ym2612"
    },
    {
      "channel": 2,
      "note": 73,
      "start": 5.9737,
      "duration": 0.0283,
      "velocity": 1,
      "chip": "ym2612"
    },
    {
      "channel": 3,
      "note": 73,
      "start": 6.0043,
      "duration": 0.0772,
      "velocity": 106,
      "chip": "ym2612"
    },
    {
      "channel": 2,
      "note": 73,
      "start": 6.0062,
      "duration": 0.0919,
      "velocity": 1,
      "chip": "ym2612"
    },
    {
      "channel": 0,
      "note": 81,
      "start": 6.0974,
      "duration": 0.5739,
      "velocity": 111,
      "chip": "ym2612"
    },
    {
      "channel": 3,
      "note": 66,
      "start": 6.1004,
      "duration": 0.0926,
      "velocity": 106,
      "chip": "ym2612"
    },
    {
      "channel": 2,
      "note": 103,
      "start": 6.1027,
      "duration": 0.1067,
      "velocity": 1,
      "chip": "ym2612"
    },
    {
      "channel": 3,
      "note": 73,
      "start": 6.2116,
      "duration": 0.0772,
      "velocity": 106,
      "chip": "ym2612"
    },
    {
      "channel": 4,
      "note": 81,
      "start": 6.2121,
      "duration": 0.5552,
      "velocity": 111,
      "chip": "ym2612"
    },
    {
      "channel": 2,
      "note": 26,
      "start": 6.214,
      "duration": 0.0432,
      "velocity": 1,
      "chip": "ym2612"
    },
    {
      "channel": 2,
      "note": 64,
      "start": 6.2609,
      "duration": 0.0445,
      "velocity": 1,
      "chip": "ym2612"
    },
    {
      "channel": 1,
      "note": 54,
      "start": 6.3048,
      "duration": 1.5629,
      "velocity": 112,
      "chip": "ym2612"
    },
    {
      "channel": 3,
      "note": 74,
      "start": 6.3086,
      "duration": 0.0758,
      "velocity": 106,
      "chip": "ym2612"
    },
    {
      "channel": 2,
      "note": 26,
      "start": 6.3109,
      "duration": 0.026,
      "velocity": 1,
      "chip": "ym2612"
    },
    {
      "channel": 2,
      "note": 26,
      "start": 6.3405,
      "duration": 0.0447,
      "velocity": 120,
      "chip": "ym2612"
    },
    {
      "channel": 3,
      "note": 73,
      "start": 6.403,
      "duration": 0.0771,
      "velocity": 106,
      "chip": "ym2612"
    },
    {
      "channel": 5,
      "note": 54,
      "start": 6.4037,
      "duration": 1.5602,
      "velocity": 112,
      "chip": "ym2612"
    },
    {
      "channel": 2,
      "note": 64,
      "start": 6.4054,
      "duration": 0.091,
      "velocity": 1,
      "chip": "ym2612"
    },
    {
      "channel": 3,
      "note": 66,
      "start": 6.4988,
      "duration": 0.077,
      "velocity": 106,
      "chip": "ym2612"
    },
    {
      "channel": 2,
      "note": 73,
      "start": 6.5007,
      "duration": 0.0914,
      "velocity": 1,
      "chip": "ym2612"
    },
    {
      "channel": 3,
      "note": 73,
      "start": 6.5944,
      "duration": 0.0934,
      "velocity": 106,
      "chip": "ym2612"
    },
    {
      "channel": 2,
      "note": 103,
      "start": 6.5963,
      "duration": 0.1074,
      "velocity": 1,
      "chip": "ym2612"
    },
    {
      "channel": 0,
      "note": 80,
      "start": 6.6875,
      "duration": 0.3825,
      "velocity": 111,
      "chip": "ym2612"
    },
    {
      "channel": 3,
      "note": 74,
      "start": 6.7065,
      "duration": 0.0767,
      "velocity": 106,
      "chip": "ym2612"
    },
    {
      "channel": 2,
      "note": 26,
      "start": 6.7086,
      "duration": 0.0435,
      "velocity": 120,
      "chip": "ym2612"
    },
    {
      "channel": 4,
      "note": 80,
      "start": 6.7837,
      "duration": 0.3985,
      "velocity": 111,
      "chip": "ym2612"
    },
    {
      "channel": 3,
      "note": 73,
      "start": 6.8018,
      "duration": 0.0771,
      "velocity": 106,
      "chip": "ym2612"
    },
    {
      "channel": 2,
      "note": 103,
      "start": 6.8038,
      "duration": 0.0914,
      "velocity": 1,
      "chip": "ym2612"
    },
    {
      "channel": 3,
      "note": 66,
      "start": 6.8975,
      "duration": 0.0771,
      "velocity": 106,
      "chip": "ym2612"
    },
    {
      "channel": 2,
      "note": 73,
      "start": 6.8995,
      "duration": 0.0914,
      "velocity": 1,
      "chip": "ym2612"
    },
    {
      "channel": 3,
      "note": 73,
      "start": 6.9932,
      "duration": 0.0772,
      "velocity": 106,
      "chip": "ym2612"
    },
    {
      "channel": 2,
      "note": 103,
      "start": 6.9951,
      "duration": 0.0918,
      "velocity": 1,
      "chip": "ym2612"
    },
    {
      "channel": 0,
      "note": 76,
      "start": 7.0863,
      "duration": 0.3824,
      "velocity": 111,
      "chip": "ym2612"
    },
    {
      "channel": 3,
      "note": 74,
      "start": 7.0897,
      "duration": 0.0923,
      "velocity": 106,
      "chip": "ym2612"
    },
    {
      "channel": 2,
      "note": 64,
      "start": 7.092,
      "duration": 0.1063,
      "velocity": 1,
      "chip": "ym2612"
    },
    {
      "channel": 3,
      "note": 73,
      "start": 7.2007,
      "duration": 0.077,
      "velocity": 106,
      "chip": "ym2612"
    },
    {
      "channel": 4,
      "note": 76,
      "start": 7.2011,
      "duration": 0.3639,
      "velocity": 111,
      "chip": "ym2612"
    },
    {
      "channel": 2,
      "note": 103,
      "start": 7.203,
      "duration": 0.0909,
      "velocity": 1,
      "chip": "ym2612"
    },
    {
      "channel": 3,
      "note": 66,
      "start": 7.2963,
      "duration": 0.0771,
      "velocity": 106,
      "chip": "ym2612"
    },
    {
      "channel": 2,
      "note": 103,
      "start": 7.2983,
      "duration": 0.0914,
      "velocity": 1,
      "chip": "ym2612"
    },
    {
      "channel": 3,
      "note": 73,
      "start": 7.392,
      "duration": 0.0772,
      "velocity": 106,
      "chip": "ym2612"
    },
    {
      "channel": 2,
      "note": 103,
      "start": 7.3939,
      "duration": 0.0918,
      "velocity": 1,
      "chip": "ym2612"
    },
    {
      "channel": 0,
      "note": 78,
      "start": 7.485,
      "duration": 0.3825,
      "velocity": 111,
      "chip": "ym2612"
    },
    {
      "channel": 3,
      "note": 74,
      "start": 7.4884,
      "duration": 0.0765,
      "velocity": 106,
      "chip": "ym2612"
    },
    {
      "channel": 2,
      "note": 64,
      "start": 7.4908,
      "duration": 0.0265,
      "velocity": 1,
      "chip": "ym2612"
    },
    {
      "channel": 2,
      "note": 73,
      "start": 7.521,
      "duration": 0.0281,
      "velocity": 1,
      "chip": "ym2612"
    },
    {
      "channel": 2,
      "note": 64,
      "start": 7.553,
      "duration": 0.0281,
      "velocity": 1,
      "chip": "ym2612"
    },
    {
      "channel": 3,
      "note": 73,
      "start": 7.5835,
      "duration": 0.0929,
      "velocity": 106,
      "chip": "ym2612"
    },
    {
      "channel": 4,
      "note": 78,
      "start": 7.5839,
      "duration": 0.3798,
      "velocity": 111,
      "chip": "ym2612"
    },
    {
      "channel": 2,
      "note": 64,
      "start": 7.5859,
      "duration": 0.1069,
      "velocity": 1,
      "chip": "ym2612"
    },
    {
      "channel": 3,
      "note": 66,
      "start": 7.6951,
      "duration": 0.0771,
      "velocity": 106,
      "chip": "ym2612"
    },
    {
      "channel": 2,
      "note": 26,
      "start": 7.6969,
      "duration": 0.0441,
      "velocity": 120,
      "chip": "ym2612"
    },
    {
      "channel": 3,
      "note": 73,
      "start": 7.7907,
      "duration": 0.0772,
      "velocity": 106,
      "chip": "ym2612"
    },
    {
      "channel": 2,
      "note": 26,
      "start": 7.7926,
      "duration": 0.0441,
      "velocity": 120,
      "chip": "ym2612"
    },
    {
      "channel": 0,
      "note": 73,
      "start": 7.8838,
      "duration": 1.3715,
      "velocity": 111,
      "chip": "ym2612"
    },
    {
      "channel": 1,
      "note": 52,
      "start": 7.8845,
      "duration": 1.5789,
      "velocity": 112,
      "chip": "ym2612"
    },
    {
      "channel": 3,
      "note": 74,
      "start": 7.8883,
      "duration": 0.0752,
      "velocity": 106,
      "chip": "ym2612"
    },
    {
      "channel": 2,
      "note": 64,
      "start": 7.8909,
      "duration": 0.0411,
      "velocity": 1,
      "chip": "ym2612"
    },
    {
      "channel": 2,
      "note": 73,
      "start": 7.9359,
      "duration": 0.0439,
      "velocity": 1,
      "chip": "ym2612"
    },
    {
      "channel": 3,
      "note": 73,
      "start": 7.9822,
      "duration": 0.077,
      "velocity": 106,
      "chip": "ym2612"
    },
    {
      "channel": 4,
      "note": 73,
      "start": 7.9827,
      "duration": 1.3688,
      "velocity": 111,
      "chip": "ym2612"
    },
    {
      "channel": 5,
      "note": 52,
      "start": 7.9834,
      "duration": 1.5789,
      "velocity": 112,
      "chip": "ym2612"
    },
    {
      "channel": 2,
      "note": 77,
      "start": 7.9852,
      "duration": 0.0903,
      "velocity": 1,
      "chip": "ym2612"
    },
    {
      "channel": 3,
      "note": 66,
      "start": 8.0778,
      "duration": 0.0931,
      "velocity": 106,
      "chip": "ym2612"
    },
    {
      "channel": 2,
      "note": 103,
      "start": 8.0798,
      "duration": 0.1074,
      "velocity": 1,
      "chip": "ym2612"
    },
    {
      "channel": 3,
      "note": 73,
      "start": 8.1895,
      "duration": 0.0771,
      "velocity": 106,
      "chip": "ym2612"
    },
    {
      "channel": 2,
      "note": 103,
      "start": 8.1915,
      "duration": 0.0914,
      "velocity": 1,
      "chip": "ym2612"
    },
    {
      "channel": 3,
      "note": 74,
      "start": 8.2855,
      "duration": 0.0768,
      "velocity": 106,
      "chip": "ym2612"
    },
    {
      "channel": 2,
      "note": 73,
      "start": 8.2877,
      "duration": 0.0909,
      "velocity": 1,
      "chip": "ym2612"
    },
    {
      "channel": 3,
      "note": 73,
      "start": 8.381,
      "duration": 0.077,
      "velocity": 106,
      "chip": "ym2612"
    },
    {
      "channel": 2,
      "note": 103,
      "start": 8.3829,
      "duration": 0.0913,
      "velocity": 1,
      "chip": "ym2612"
    },
    {
      "channel": 3,
      "note": 66,
      "start": 8.4766,
      "duration": 0.0771,
      "velocity": 106,
      "chip": "ym2612"
    },
    {
      "channel": 2,
      "note": 64,
      "start": 8.4785,
      "duration": 0.0915,
      "velocity": 1,
      "chip": "ym2612"
    },
    {
      "channel": 3,
      "note": 73,
      "start": 8.5724,
      "duration": 0.077,
      "velocity": 106,
      "chip": "ym2612"
    },
    {
      "channel": 2,
      "note": 64,
      "start": 8.5743,
      "duration": 0.1075,
      "velocity": 1,
      "chip": "ym2612"
    },
    {
      "channel": 3,
      "note": 74,
      "start": 8.6844,
      "duration": 0.0767,
      "velocity": 106,
      "chip": "ym2612"
    },
    {
      "channel": 2,
      "note": 26,
      "start": 8.6864,
      "duration": 0.0435,
      "velocity": 120,
      "chip": "ym2612"
    },
    {
      "channel": 3,
      "note": 73,
      "start": 8.7797,
      "duration": 0.0771,
      "velocity": 106,
      "chip": "ym2612"
    },
    {
      "channel": 2,
      "note": 26,
      "start": 8.7817,
      "duration": 0.0436,
      "velocity": 1,
      "chip": "ym2612"
    },
    {
      "channel": 2,
      "note": 103,
      "start": 8.8288,
      "duration": 0.0442,
      "velocity": 1,
      "chip": "ym2612"
    },
    {
      "channel": 3,
      "note": 66,
      "start": 8.8754,
      "duration": 0.0771,
      "velocity": 106,
      "chip": "ym2612"
    },
    {
      "channel": 2,
      "note": 103,
      "start": 8.8773,
      "duration": 0.0914,
      "velocity": 1,
      "chip": "ym2612"
    },
    {
      "channel": 3,
      "note": 73,
      "start": 8.9711,
      "duration": 0.0772,
      "velocity": 106,
      "chip": "ym2612"
    },
    {
      "channel": 2,
      "note": 103,
      "start": 8.973,
      "duration": 0.0915,
      "velocity": 1,
      "chip": "ym2612"
    },
    {
      "channel": 3,
      "note": 74,
      "start": 9.0672,
      "duration": 0.0766,
      "velocity": 106,
      "chip": "ym2612"
    },
    {
      "channel": 2,
      "note": 73,
      "start": 9.0693,
      "duration": 0.027,
      "velocity": 1,
      "chip": "ym2612"
    },
    {
      "channel": 2,
      "note": 73,
      "start": 9.1001,
      "duration": 0.0282,
      "velocity": 1,
      "chip": "ym2612"
    },
    {
      "channel": 2,
      "note": 73,
      "start": 9.132,
      "duration": 0.0281,
      "velocity": 1,
      "chip": "ym2612"
    },
    {
      "channel": 3,
      "note": 73,
      "start": 9.1625,
      "duration": 0.0931,
      "velocity": 106,
      "chip": "ym2612"
    },
    {
      "channel": 2,
      "note": 73,
      "start": 9.1644,
      "duration": 0.1078,
      "velocity": 1,
      "chip": "ym2612"
    },
    {
      "channel": 0,
      "note": 71,
      "start": 9.2715,
      "duration": 0.0794,
      "velocity": 111,
      "chip": "ym2612"
    },
    {
      "channel": 3,
      "note": 66,
      "start": 9.2745,
      "duration": 0.0768,
      "velocity": 106,
      "chip": "ym2612"
    },
    {
      "channel": 2,
      "note": 103,
      "start": 9.2768,
      "duration": 0.0912,
      "velocity": 1,
      "chip": "ym2612"
    },
    {
      "channel": 0,
      "note": 73,
      "start": 9.3672,
      "duration": 0.0795,
      "velocity": 111,
      "chip": "ym2612"
    },
    {
      "channel": 3,
      "note": 73,
      "start": 9.3702,
      "duration": 0.0768,
      "velocity": 106,
      "chip": "ym2612"
    },
    {
      "channel": 4,
      "note": 71,
      "start": 9.3707,
      "duration": 0.0765,
      "velocity": 111,
      "chip": "ym2612"
    },
    {
      "channel": 2,
      "note": 26,
      "start": 9.3728,
      "duration": 0.0426,
      "velocity": 1,
      "chip": "ym2612"
    },
    {
      "channel": 2,
      "note": 64,
      "start": 9.4193,
      "duration": 0.0447,
      "velocity": 1,
      "chip": "ym2612"
    },
    {
      "channel": 0,
      "note": 76,
      "start": 9.4629,
      "duration": 0.5898,
      "velocity": 111,
      "chip": "ym2612"
    },
    {
      "channel": 1,
      "note": 52,
      "start": 9.4634,
      "duration": 1.5788,
      "velocity": 112,
      "chip": "ym2612"
    },
    {
      "channel": 3,
      "note": 74,
      "start": 9.4673,
      "duration": 0.0754,
      "velocity": 106,
      "chip": "ym2612"
    },
    {
      "channel": 4,
      "note": 73,
      "start": 9.4678,
      "duration": 0.0751,
      "velocity": 111,
      "chip": "ym2612"
    },
    {
      "channel": 2,
      "note": 64,
      "start": 9.4703,
      "duration": 0.0408,
      "velocity": 1,
      "chip": "ym2612"
    },
    {
      "channel": 2,
      "note": 73,
      "start": 9.5149,
      "duration": 0.044,
      "velocity": 1,
      "chip": "ym2612"
    },
    {
      "channel": 3,
      "note": 73,
      "start": 9.5613,
      "duration": 0.077,
      "velocity": 106,
      "chip": "ym2612"
    },
    {
      "channel": 4,
      "note": 76,
      "start": 9.5617,
      "duration": 0.5898,
      "velocity": 111,
      "chip": "ym2612"
    },
    {
      "channel": 5,
      "note": 52,
      "start": 9.5622,
      "duration": 1.5787,
      "velocity": 112,
      "chip": "ym2612"
    },
    {
      "channel": 2,
      "note": 77,
      "start": 9.564,
      "duration": 0.0906,
      "velocity": 1,
      "chip": "ym2612"
    },
    {
      "channel": 3,
      "note": 66,
      "start": 9.657,
      "duration": 0.0931,
      "velocity": 106,
      "chip": "ym2612"
    },
    {
      "channel": 2,
      "note": 103,
      "start": 9.6589,
      "duration": 0.1074,
      "velocity": 1,
      "chip": "ym2612"
    },
    {
      "channel": 3,
      "note": 73,
      "start": 9.7686,
      "duration": 0.0771,
      "velocity": 106,
      "chip": "ym2612"
    },
    {
      "channel": 2,
      "note": 103,
      "start": 9.7705,
      "duration": 0.0915,
      "velocity": 1,
      "chip": "ym2612"
    },
    {
      "channel": 3,
      "note": 74,
      "start": 9.8647,
      "duration": 0.0767,
      "velocity": 106,
      "chip": "ym2612"
    },
    {
      "channel": 2,
      "note": 73,
      "start": 9.8669,
      "duration": 0.0908,
      "velocity": 1,
      "chip": "ym2612"
    },
    {
      "channel": 3,
      "note": 73,
      "start": 9.96,
      "duration": 0.0771,
      "velocity": 106,
      "chip": "ym2612"
    },
    {
      "channel": 2,
      "note": 103,
      "start": 9.9619,
      "duration": 0.0915,
      "velocity": 1,
      "chip": "ym2612"
    },
    {
      "channel": 3,
      "note": 66,
      "start": 10.0558,
      "duration": 0.077,
      "velocity": 106,
      "chip": "ym2612"
    },
    {
      "channel": 2,
      "note": 64,
      "start": 10.0577,
      "duration": 0.0913,
      "velocity": 1,
      "chip": "ym2612"
    },
    {
      "channel": 0,
      "note": 83,
      "start": 10.069,
      "duration": 0.3666,
      "velocity": 111,
      "chip": "ym2612"
    },
    {
      "channel": 3,
      "note": 73,
      "start": 10.1514,
      "duration": 0.0931,
      "velocity": 106,
      "chip": "ym2612"
    },
    {
      "channel": 2,
      "note": 64,
      "start": 10.1535,
      "duration": 0.1072,
      "velocity": 1,
      "chip": "ym2612"
    },
    {
      "channel": 4,
      "note": 83,
      "start": 10.1652,
      "duration": 0.3666,
      "velocity": 111,
      "chip": "ym2612"
    },
    {
      "channel": 3,
      "note": 74,
      "start": 10.2634,
      "duration": 0.0767,
      "velocity": 106,
      "chip": "ym2612"
    },
    {
      "channel": 2,
      "note": 26,
      "start": 10.2656,
      "duration": 0.0435,
      "velocity": 120,
      "chip": "ym2612"
    },
    {
      "channel": 3,
      "note": 73,
      "start": 10.3588,
      "duration": 0.0772,
      "velocity": 106,
      "chip": "ym2612"
    },
    {
      "channel": 2,
      "note": 26,
      "start": 10.3607,
      "duration": 0.0436,
      "velocity": 1,
      "chip": "ym2612"
    },
    {
      "channel": 2,
      "note": 103,
      "start": 10.408,
      "duration": 0.0445,
      "velocity": 1,
      "chip": "ym2612"
    },
    {
      "channel": 0,
      "note": 81,
      "start": 10.4519,
      "duration": 0.3665,
      "velocity": 111,
      "chip": "ym2612"
    },
    {
      "channel": 3,
      "note": 66,
      "start": 10.4549,
      "duration": 0.0768,
      "velocity": 106,
      "chip": "ym2612"
    },
    {
      "channel": 2,
      "note": 103,
      "start": 10.4571,
      "duration": 0.0908,
      "velocity": 1,
      "chip": "ym2612"
    },
    {
      "channel": 3,
      "note": 73,
      "start": 10.5503,
      "duration": 0.077,
      "velocity": 106,
      "chip": "ym2612"
    },
    {
      "channel": 4,
      "note": 81,
      "start": 10.5508,
      "duration": 0.3638,
      "velocity": 111,
      "chip": "ym2612"
    },
    {
      "channel": 2,
      "note": 103,
      "start": 10.5527,
      "duration": 0.0909,
      "velocity": 1,
      "chip": "ym2612"
    },
    {
      "channel": 3,
      "note": 74,
      "start": 10.6462,
      "duration": 0.0927,
      "velocity": 106,
      "chip": "ym2612"
    },
    {
      "channel": 2,
      "note": 73,
      "start": 10.6484,
      "duration": 0.0271,
      "velocity": 1,
      "chip": "ym2612"
    },
    {
      "channel": 2,
      "note": 73,
      "start": 10.6792,
      "duration": 0.0441,
      "velocity": 1,
      "chip": "ym2612"
    },
    {
      "channel": 2,
      "note": 73,
      "start": 10.727,
      "duration": 0.0283,
      "velocity": 1,
      "chip": "ym2612"
    },
    {
      "channel": 3,
      "note": 73,
      "start": 10.7576,
      "duration": 0.0775,
      "velocity": 106,
      "chip": "ym2612"
    },
    {
      "channel": 2,
      "note": 73,
      "start": 10.7595,
      "duration": 0.0918,
      "velocity": 1,
      "chip": "ym2612"
    },
    {
      "channel": 0,
      "note": 77,
      "start": 10.8347,
      "duration": 0.0159,
      "velocity": 111,
      "chip": "ym2612"
    },
    {
      "channel": 0,
      "note": 78,
      "start": 10.8506,
      "duration": 0.9726,
      "velocity": 111,
      "chip": "ym2612"
    },
    {
      "channel": 3,
      "note": 66,
      "start": 10.8537,
      "duration": 0.0767,
      "velocity": 106,
      "chip": "ym2612"
    },
    {
      "channel": 2,
      "note": 103,
      "start": 10.8558,
      "duration": 0.0908,
      "velocity": 1,
      "chip": "ym2612"
    },
    {
      "channel": 4,
      "note": 77,
      "start": 10.9309,
      "duration": 0.0186,
      "velocity": 111,
      "chip": "ym2612"
    },
    {
      "channel": 3,
      "note": 73,
      "start": 10.949,
      "duration": 0.077,
      "velocity": 106,
      "chip": "ym2612"
    },
    {
      "channel": 4,
      "note": 78,
      "start": 10.9495,
      "duration": 0.97,
      "velocity": 111,
      "chip": "ym2612"
    },
    {
      "channel": 2,
      "note": 26,
      "start": 10.9514,
      "duration": 0.0431,
      "velocity": 1,
      "chip": "ym2612"
    },
    {
      "channel": 2,
      "note": 64,
      "start": 10.9983,
      "duration": 0.0444,
      "velocity": 1,
      "chip": "ym2612"
    },
    {
      "channel": 1,
      "note": 52,
      "start": 11.0422,
      "duration": 1.5795,
      "velocity": 112,
      "chip": "ym2612"
    },
    {
      "channel": 3,
      "note": 74,
      "start": 11.046,
      "duration": 0.0758,
      "velocity": 106,
      "chip": "ym2612"
    },
    {
      "channel": 2,
      "note": 64,
      "start": 11.0484,
      "duration": 0.0418,
      "velocity": 1,
      "chip": "ym2612"
    },
    {
      "channel": 2,
      "note": 73,
      "start": 11.0939,
      "duration": 0.0441,
      "velocity": 1,
      "chip": "ym2612"
    },
    {
      "channel": 3,
      "note": 73,
      "start": 11.1404,
      "duration": 0.0931,
      "velocity": 106,
      "chip": "ym2612"
    },
    {
      "channel": 5,
      "note": 52,
      "start": 11.1409,
      "duration": 1.5795,
      "velocity": 112,
      "chip": "ym2612"
    },
    {
      "channel": 2,
      "note": 77,
      "start": 11.1427,
      "duration": 0.1071,
      "velocity": 1,
      "chip": "ym2612"
    },
    {
      "channel": 3,
      "note": 66,
      "start": 11.252,
      "duration": 0.0771,
      "velocity": 106,
      "chip": "ym2612"
    },
    {
      "channel": 2,
      "note": 103,
      "start": 11.254,
      "duration": 0.0914,
      "velocity": 1,
      "chip": "ym2612"
    },
    {
      "channel": 3,
      "note": 73,
      "start": 11.3478,
      "duration": 0.0771,
      "velocity": 106,
      "chip": "ym2612"
    },
    {
      "channel": 2,
      "note": 103,
      "start": 11.3497,
      "duration": 0.0914,
      "velocity": 1,
      "chip": "ym2612"
    },
    {
      "channel": 3,
      "note": 74,
      "start": 11.4438,
      "duration": 0.0767,
      "velocity": 106,
      "chip": "ym2612"
    },
    {
      "channel": 2,
      "note": 73,
      "start": 11.4459,
      "duration": 0.0909,
      "velocity": 1,
      "chip": "ym2612"
    },
    {
      "channel": 3,
      "note": 73,
      "start": 11.5392,
      "duration": 0.0771,
      "velocity": 106,
      "chip": "ym2612"
    },
    {
      "channel": 2,
      "note": 103,
      "start": 11.5411,
      "duration": 0.0914,
      "velocity": 1,
      "chip": "ym2612"
    },
    {
      "channel": 3,
      "note": 66,
      "start": 11.6348,
      "duration": 0.0771,
      "velocity": 106,
      "chip": "ym2612"
    },
    {
      "channel": 2,
      "note": 64,
      "start": 11.6367,
      "duration": 0.1074,
      "velocity": 1,
      "chip": "ym2612"
    },
    {
      "channel": 3,
      "note": 73,
      "start": 11.7465,
      "duration": 0.0772,
      "velocity": 106,
      "chip": "ym2612"
    },
    {
      "channel": 2,
      "note": 64,
      "start": 11.7485,
      "duration": 0.0917,
      "velocity": 1,
      "chip": "ym2612"
    },
    {
      "channel": 0,
      "note": 85,
      "start": 11.8395,
      "duration": 0.2709,
      "velocity": 111,
      "chip": "ym2612"
    },
    {
      "channel": 3,
      "note": 74,
      "start": 11.8429,
      "duration": 0.0764,
      "velocity": 106,
      "chip": "ym2612"
    },
    {
      "channel": 2,
      "note": 26,
      "start": 11.8453,
      "duration": 0.043,
      "velocity": 120,
      "chip": "ym2612"
    },
    {
      "channel": 3,
      "note": 73,
      "start": 11.9379,
      "duration": 0.0772,
      "velocity": 106,
      "chip": "ym2612"
    },
    {
      "channel": 4,
      "note": 85,
      "start": 11.9384,
      "duration": 0.2682,
      "velocity": 111,
      "chip": "ym2612"
    },
    {
      "channel": 2,
      "note": 26,
      "start": 11.9402,
      "duration": 0.0432,
      "velocity": 1,
      "chip": "ym2612"
    },
    {
      "channel": 2,
      "note": 103,
      "start": 11.9872,
      "duration": 0.0441,
      "velocity": 1,
      "chip": "ym2612"
    },
    {
      "channel": 3,
      "note": 66,
      "start": 12.0337,
      "duration": 0.0771,
      "velocity": 106,
      "chip": "ym2612"
    },
    {
      "channel": 2,
      "note": 103,
      "start": 12.0356,
      "duration": 0.0917,
      "velocity": 1,
      "chip": "ym2612"
    },
    {
      "channel": 0,
      "note": 83,
      "start": 12.1267,
      "duration": 0.2868,
      "velocity": 111,
      "chip": "ym2612"
    },
    {
      "channel": 3,
      "note": 73,
      "start": 12.1297,
      "duration": 0.0767,
      "velocity": 106,
      "chip": "ym2612"
    },
    {
      "channel": 2,
      "note": 103,
      "start": 12.132,
      "duration": 0.0907,
      "velocity": 1,
      "chip": "ym2612"
    },
    {
      "channel": 3,
      "note": 74,
      "start": 12.2254,
      "duration": 0.0927,
      "velocity": 106,
      "chip": "ym2612"
    },
    {
      "channel": 4,
      "note": 83,
      "start": 12.2259,
      "duration": 0.2838,
      "velocity": 111,
      "chip": "ym2612"
    },
    {
      "channel": 2,
      "note": 73,
      "start": 12.2279,
      "duration": 0.0426,
      "velocity": 1,
      "chip": "ym2612"
    },
    {
      "channel": 2,
      "note": 73,
      "start": 12.2743,
      "duration": 0.0281,
      "velocity": 1,
      "chip": "ym2612"
    },
    {
      "channel": 2,
      "note": 73,
      "start": 12.3061,
      "duration": 0.0282,
      "velocity": 1,
      "chip": "ym2612"
    },
    {
      "channel": 3,
      "note": 73,
      "start": 12.3367,
      "duration": 0.0772,
      "velocity": 106,
      "chip": "ym2612"
    },
    {
      "channel": 2,
      "note": 73,
      "start": 12.3386,
      "duration": 0.0918,
      "velocity": 1,
      "chip": "ym2612"
    },
    {
      "channel": 0,
      "note": 78,
      "start": 12.4298,
      "duration": 0.1751,
      "velocity": 111,
      "chip": "ym2612"
    },
    {
      "channel": 3,
      "note": 66,
      "start": 12.4328,
      "duration": 0.0767,
      "velocity": 106,
      "chip": "ym2612"
    },
    {
      "channel": 2,
      "note": 103,
      "start": 12.435,
      "duration": 0.0907,
      "velocity": 1,
      "chip": "ym2612"
    },
    {
      "channel": 3,
      "note": 73,
      "start": 12.5281,
      "duration": 0.0772,
      "velocity": 106,
      "chip": "ym2612"
    },
    {
      "channel": 4,
      "note": 78,
      "start": 12.5286,
      "duration": 0.1724,
      "velocity": 111,
      "chip": "ym2612"
    },
    {
      "channel": 2,
      "note": 26,
      "start": 12.5304,
      "duration": 0.0431,
      "velocity": 1,
      "chip": "ym2612"
    },
    {
      "channel": 2,
      "note": 64,
      "start": 12.5774,
      "duration": 0.0448,
      "velocity": 1,
      "chip": "ym2612"
    },
    {
      "channel": 0,
      "note": 85,
      "start": 12.6212,
      "duration": 1.3714,
      "velocity": 111,
      "chip": "ym2612"
    },
    {
      "channel": 1,
      "note": 52,
      "start": 12.6216,
      "duration": 1.5625,
      "velocity": 112,
      "chip": "ym2612"
    },
    {
      "channel": 3,
      "note": 74,
      "start": 12.6254,
      "duration": 0.0754,
      "velocity": 106,
      "chip": "ym2612"
    },
    {
      "channel": 2,
      "note": 26,
      "start": 12.628,
      "duration": 0.0253,
      "velocity": 1,
      "chip": "ym2612"
    },
    {
      "channel": 2,
      "note": 26,
      "start": 12.6571,
      "duration": 0.0448,
      "velocity": 120,
      "chip": "ym2612"
    },
    {
      "channel": 3,
      "note": 73,
      "start": 12.7195,
      "duration": 0.093,
      "velocity": 106,
      "chip": "ym2612"
    },
    {
      "channel": 4,
      "note": 85,
      "start": 12.72,
      "duration": 1.3689,
      "velocity": 111,
      "chip": "ym2612"
    },
    {
      "channel": 5,
      "note": 52,
      "start": 12.7205,
      "duration": 1.5758,
      "velocity": 112,
      "chip": "ym2612"
    },
    {
      "channel": 2,
      "note": 64,
      "start": 12.7222,
      "duration": 0.1066,
      "velocity": 1,
      "chip": "ym2612"
    },
    {
      "channel": 3,
      "note": 66,
      "start": 12.8312,
      "duration": 0.077,
      "velocity": 106,
      "chip": "ym2612"
    },
    {
      "channel": 2,
      "note": 73,
      "start": 12.8331,
      "duration": 0.0914,
      "velocity": 1,
      "chip": "ym2612"
    },
    {
      "channel": 3,
      "note": 73,
      "start": 12.9268,
      "duration": 0.0771,
      "velocity": 106,
      "chip": "ym2612"
    },
    {
      "channel": 2,
      "note": 103,
      "start": 12.9288,
      "duration": 0.0914,
      "velocity": 1,
      "chip": "ym2612"
    },
    {
      "channel": 3,
      "note": 74,
      "start": 13.0229,
      "duration": 0.0768,
      "velocity": 106,
      "chip": "ym2612"
    },
    {
      "channel": 2,
      "note": 26,
      "start": 13.025,
      "duration": 0.0435,
      "velocity": 120,
      "chip": "ym2612"
    },
    {
      "channel": 3,
      "note": 73,
      "start": 13.1182,
      "duration": 0.0771,
      "velocity": 106,
      "chip": "ym2612"
    },
    {
      "channel": 2,
      "note": 103,
      "start": 13.1201,
      "duration": 0.0915,
      "velocity": 1,
      "chip": "ym2612"
    },
    {
      "channel": 3,
      "note": 66,
      "start": 13.214,
      "duration": 0.093,
      "velocity": 106,
      "chip": "ym2612"
    },
    {
      "channel": 2,
      "note": 73,
      "start": 13.2159,
      "duration": 0.1073,
      "velocity": 1,
      "chip": "ym2612"
    },
    {
      "channel": 3,
      "note": 73,
      "start": 13.3256,
      "duration": 0.0771,
      "velocity": 106,
      "chip": "ym2612"
    },
    {
      "channel": 2,
      "note": 103,
      "start": 13.3275,
      "duration": 0.0915,
      "velocity": 1,
      "chip": "ym2612"
    },
    {
      "channel": 3,
      "note": 74,
      "start": 13.4217,
      "duration": 0.0768,
      "velocity": 106,
      "chip": "ym2612"
    },
    {
      "channel": 2,
      "note": 64,
      "start": 13.4238,
      "duration": 0.091,
      "velocity": 1,
      "chip": "ym2612"
    },
    {
      "channel": 3,
      "note": 73,
      "start": 13.5171,
      "duration": 0.0771,
      "velocity": 106,
      "chip": "ym2612"
    },
    {
      "channel": 2,
      "note": 103,
      "start": 13.519,
      "duration": 0.0914,
      "velocity": 1,
      "chip": "ym2612"
    },
    {
      "channel": 3,
      "note": 66,
      "start": 13.6127,
      "duration": 0.0771,
      "velocity": 106,
      "chip": "ym2612"
    },
    {
      "channel": 2,
      "note": 103,
      "start": 13.6147,
      "duration": 0.0913,
      "velocity": 1,
      "chip": "ym2612"
    },
    {
      "channel": 3,
      "note": 73,
      "start": 13.7084,
      "duration": 0.093,
      "velocity": 106,
      "chip": "ym2612"
    },
    {
      "channel": 2,
      "note": 103,
      "start": 13.7103,
      "duration": 0.1074,
      "velocity": 1,
      "chip": "ym2612"
    },
    {
      "channel": 3,
      "note": 74,
      "start": 13.8204,
      "duration": 0.0768,
      "velocity": 106,
      "chip": "ym2612"
    },
    {
      "channel": 2,
      "note": 64,
      "start": 13.8226,
      "duration": 0.0271,
      "velocity": 1,
      "chip": "ym2612"
    },
    {
      "channel": 2,
      "note": 73,
      "start": 13.8533,
      "duration": 0.0283,
      "velocity": 1,
      "chip": "ym2612"
    },
    {
      "channel": 2,
      "note": 64,
      "start": 13.8853,
      "duration": 0.0282,
      "velocity": 1,
      "chip": "ym2612"
    },
    {
      "channel": 3,
      "note": 73,
      "start": 13.9159,
      "duration": 0.0771,
      "velocity": 106,
      "chip": "ym2612"
    },
    {
      "channel": 2,
      "note": 64,
      "start": 13.9178,
      "duration": 0.0917,
      "velocity": 1,
      "chip": "ym2612"
    },
    {
      "channel": 0,
      "note": 71,
      "start": 14.0088,
      "duration": 0.0795,
      "velocity": 111,
      "chip": "ym2612"
    },
    {
      "channel": 3,
      "note": 66,
      "start": 14.0119,
      "duration": 0.0768,
      "velocity": 106,
      "chip": "ym2612"
    },
    {
      "channel": 2,
      "note": 26,
      "start": 14.014,
      "duration": 0.0435,
      "velocity": 120,
      "chip": "ym2612"
    },
    {
      "channel": 0,
      "note": 73,
      "start": 14.1046,
      "duration": 0.0795,
      "velocity": 111,
      "chip": "ym2612"
    },
    {
      "channel": 3,
      "note": 73,
      "start": 14.1076,
      "duration": 0.0769,
      "velocity": 106,
      "chip": "ym2612"
    },
    {
      "channel": 4,
      "note": 71,
      "start": 14.108,
      "duration": 0.0766,
      "velocity": 111,
      "chip": "ym2612"
    },
    {
      "channel": 2,
      "note": 26,
      "start": 14.1101,
      "duration": 0.0431,
      "velocity": 120,
      "chip": "ym2612"
    },
    {
      "channel": 0,
      "note": 80,
      "start": 14.2002,
      "duration": 0.558,
      "velocity": 111,
      "chip": "ym2612"
    },
    {
      "channel": 1,
      "note": 50,
      "start": 14.2009,
      "duration": 1.5789,
      "velocity": 112,
      "chip": "ym2612"
    },
    {
      "channel": 3,
      "note": 74,
      "start": 14.2047,
      "duration": 0.0912,
      "velocity": 106,
      "chip": "ym2612"
    },
    {
      "channel": 4,
      "note": 73,
      "start": 14.2052,
      "duration": 0.091,
      "velocity": 111,
      "chip": "ym2612"
    },
    {
      "channel": 2,
      "note": 64,
      "start": 14.2078,
      "duration": 0.0406,
      "velocity": 1,
      "chip": "ym2612"
    },
    {
      "channel": 2,
      "note": 73,
      "start": 14.2523,
      "duration": 0.0599,
      "velocity": 1,
      "chip": "ym2612"
    },
    {
      "channel": 3,
      "note": 73,
      "start": 14.3146,
      "duration": 0.077,
      "velocity": 106,
      "chip": "ym2612"
    },
    {
      "channel": 4,
      "note": 80,
      "start": 14.3151,
      "duration": 0.5552,
      "velocity": 111,
      "chip": "ym2612"
    },
    {
      "channel": 5,
      "note": 50,
      "start": 14.3157,
      "duration": 1.5789,
      "velocity": 112,
      "chip": "ym2612"
    },
    {
      "channel": 2,
      "note": 77,
      "start": 14.3176,
      "duration": 0.0903,
      "velocity": 1,
      "chip": "ym2612"
    },
    {
      "channel": 3,
      "note": 66,
      "start": 14.4103,
      "duration": 0.077,
      "velocity": 106,
      "chip": "ym2612"
    },
    {
      "channel": 2,
      "note": 103,
      "start": 14.4122,
      "duration": 0.0914,
      "velocity": 1,
      "chip": "ym2612"
    },
    {
      "channel": 3,
      "note": 73,
      "start": 14.5059,
      "duration": 0.0771,
      "velocity": 106,
      "chip": "ym2612"
    },
    {
      "channel": 2,
      "note": 103,
      "start": 14.5079,
      "duration": 0.0915,
      "velocity": 1,
      "chip": "ym2612"
    },
    {
      "channel": 3,
      "note": 74,
      "start": 14.602,
      "duration": 0.0767,
      "velocity": 106,
      "chip": "ym2612"
    },
    {
      "channel": 2,
      "note": 73,
      "start": 14.6041,
      "duration": 0.0909,
      "velocity": 1,
      "chip": "ym2612"
    },
    {
      "channel": 3,
      "note": 73,
      "start": 14.6974,
      "duration": 0.0775,
      "velocity": 106,
      "chip": "ym2612"
    },
    {
      "channel": 2,
      "note": 103,
      "start": 14.6993,
      "duration": 0.1073,
      "velocity": 1,
      "chip": "ym2612"
    },
    {
      "channel": 0,
      "note": 78,
      "start": 14.7745,
      "duration": 0.2071,
      "velocity": 111,
      "chip": "ym2612"
    },
    {
      "channel": 3,
      "note": 66,
      "start": 14.809,
      "duration": 0.0771,
      "velocity": 106,
      "chip": "ym2612"
    },
    {
      "channel": 2,
      "note": 64,
      "start": 14.811,
      "duration": 0.0913,
      "velocity": 1,
      "chip": "ym2612"
    },
    {
      "channel": 4,
      "note": 78,
      "start": 14.8866,
      "duration": 0.1911,
      "velocity": 111,
      "chip": "ym2612"
    },
    {
      "channel": 3,
      "note": 73,
      "start": 14.9047,
      "duration": 0.0772,
      "velocity": 106,
      "chip": "ym2612"
    },
    {
      "channel": 2,
      "note": 64,
      "start": 14.9067,
      "duration": 0.0918,
      "velocity": 1,
      "chip": "ym2612"
    },
    {
      "channel": 0,
      "note": 73,
      "start": 14.9979,
      "duration": 0.5738,
      "velocity": 111,
      "chip": "ym2612"
    },
    {
      "channel": 3,
      "note": 74,
      "start": 15.0012,
      "duration": 0.0763,
      "velocity": 106,
      "chip": "ym2612"
    },
    {
      "channel": 2,
      "note": 26,
      "start": 15.0036,
      "duration": 0.0429,
      "velocity": 120,
      "chip": "ym2612"
    },
    {
      "channel": 3,
      "note": 73,
      "start": 15.0961,
      "duration": 0.0771,
      "velocity": 106,
      "chip": "ym2612"
    },
    {
      "channel": 4,
      "note": 73,
      "start": 15.0966,
      "duration": 0.5714,
      "velocity": 111,
      "chip": "ym2612"
    },
    {
      "channel": 2,
      "note": 26,
      "start": 15.0986,
      "duration": 0.0431,
      "velocity": 1,
      "chip": "ym2612"
    },
    {
      "channel": 2,
      "note": 103,
      "start": 15.1454,
      "duration": 0.0441,
      "velocity": 1,
      "chip": "ym2612"
    },
    {
      "channel": 3,
      "note": 66,
      "start": 15.1918,
      "duration": 0.0771,
      "velocity": 106,
      "chip": "ym2612"
    },
    {
      "channel": 2,
      "note": 103,
      "start": 15.1937,
      "duration": 0.0915,
      "velocity": 1,
      "chip": "ym2612"
    },
    {
      "channel": 3,
      "note": 73,
      "start": 15.2875,
      "duration": 0.0931,
      "velocity": 106,
      "chip": "ym2612"
    },
    {
      "channel": 2,
      "note": 103,
      "start": 15.2895,
      "duration": 0.1074,
      "velocity": 1,
      "chip": "ym2612"
    },
    {
      "channel": 3,
      "note": 74,
      "start": 15.3996,
      "duration": 0.0767,
      "velocity": 106,
      "chip": "ym2612"
    },
    {
      "channel": 2,
      "note": 73,
      "start": 15.4017,
      "duration": 0.0271,
      "velocity": 1,
      "chip": "ym2612"
    },
    {
      "channel": 2,
      "note": 73,
      "start": 15.4325,
      "duration": 0.0282,
      "velocity": 1,
      "chip": "ym2612"
    },
    {
      "channel": 2,
      "note": 73,
      "start": 15.4644,
      "duration": 0.0282,
      "velocity": 1,
      "chip": "ym2612"
    },
    {
      "channel": 3,
      "note": 73,
      "start": 15.4949,
      "duration": 0.0772,
      "velocity": 106,
      "chip": "ym2612"
    },
    {
      "channel": 2,
      "note": 73,
      "start": 15.4968,
      "duration": 0.0919,
      "velocity": 1,
      "chip": "ym2612"
    },
    {
      "channel": 0,
      "note": 71,
      "start": 15.5879,
      "duration": 0.0795,
      "velocity": 111,
      "chip": "ym2612"
    },
    {
      "channel": 3,
      "note": 66,
      "start": 15.5909,
      "duration": 0.0768,
      "velocity": 106,
      "chip": "ym2612"
    },
    {
      "channel": 2,
      "note": 103,
      "start": 15.5932,
      "duration": 0.0912,
      "velocity": 1,
      "chip": "ym2612"
    },
    {
      "channel": 0,
      "note": 73,
      "start": 15.6836,
      "duration": 0.0795,
      "velocity": 111,
      "chip": "ym2612"
    },
    {
      "channel": 3,
      "note": 73,
      "start": 15.6867,
      "duration": 0.0768,
      "velocity": 106,
      "chip": "ym2612"
    },
    {
      "channel": 4,
      "note": 71,
      "start": 15.6871,
      "duration": 0.0765,
      "velocity": 111,
      "chip": "ym2612"
    },
    {
      "channel": 2,
      "note": 26,
      "start": 15.6892,
      "duration": 0.0426,
      "velocity": 1,
      "chip": "ym2612"
    },
    {
      "channel": 2,
      "note": 64,
      "start": 15.7356,
      "duration": 0.0447,
      "velocity": 1,
      "chip": "ym2612"
    },
    {
      "channel": 0,
      "note": 79,
      "start": 15.7794,
      "duration": 0.0156,
      "velocity": 111,
      "chip": "ym2612"
    },
    {
      "channel": 1,
      "note": 50,
      "start": 15.7799,
      "duration": 1.595,
      "velocity": 112,
      "chip": "ym2612"
    },
    {
      "channel": 3,
      "note": 74,
      "start": 15.7837,
      "duration": 0.0913,
      "velocity": 106,
      "chip": "ym2612"
    },
    {
      "channel": 4,
      "note": 73,
      "start": 15.7842,
      "duration": 0.091,
      "velocity": 111,
      "chip": "ym2612"
    },
    {
      "channel": 2,
      "note": 64,
      "start": 15.7868,
      "duration": 0.0567,
      "velocity": 1,
      "chip": "ym2612"
    },
    {
      "channel": 0,
      "note": 80,
      "start": 15.8272,
      "duration": 0.542,
      "velocity": 111,
      "chip": "ym2612"
    },
    {
      "channel": 2,
      "note": 73,
      "start": 15.8472,
      "duration": 0.0441,
      "velocity": 1,
      "chip": "ym2612"
    },
    {
      "channel": 3,
      "note": 73,
      "start": 15.8937,
      "duration": 0.0771,
      "velocity": 106,
      "chip": "ym2612"
    },
    {
      "channel": 4,
      "note": 79,
      "start": 15.8941,
      "duration": 0.0129,
      "velocity": 111,
      "chip": "ym2612"
    },
    {
      "channel": 5,
      "note": 50,
      "start": 15.8946,
      "duration": 1.5791,
      "velocity": 112,
      "chip": "ym2612"
    },
    {
      "channel": 2,
      "note": 77,
      "start": 15.8964,
      "duration": 0.0906,
      "velocity": 1,
      "chip": "ym2612"
    },
    {
      "channel": 4,
      "note": 80,
      "start": 15.9233,
      "duration": 0.5421,
      "velocity": 111,
      "chip": "ym2612"
    },
    {
      "channel": 3,
      "note": 66,
      "start": 15.9893,
      "duration": 0.0771,
      "velocity": 106,
      "chip": "ym2612"
    },
    {
      "channel": 2,
      "note": 103,
      "start": 15.9913,
      "duration": 0.0914,
      "velocity": 1,
      "chip": "ym2612"
    },
    {
      "channel": 3,
      "note": 73,
      "start": 16.0851,
      "duration": 0.0771,
      "velocity": 106,
      "chip": "ym2612"
    },
    {
      "channel": 2,
      "note": 103,
      "start": 16.087,
      "duration": 0.0914,
      "velocity": 1,
      "chip": "ym2612"
    },
    {
      "channel": 3,
      "note": 74,
      "start": 16.1812,
      "duration": 0.0767,
      "velocity": 106,
      "chip": "ym2612"
    },
    {
      "channel": 2,
      "note": 73,
      "start": 16.1833,
      "duration": 0.0908,
      "velocity": 1,
      "chip": "ym2612"
    },
    {
      "channel": 3,
      "note": 73,
      "start": 16.2765,
      "duration": 0.0931,
      "velocity": 106,
      "chip": "ym2612"
    },
    {
      "channel": 2,
      "note": 103,
      "start": 16.2784,
      "duration": 0.1078,
      "velocity": 1,
      "chip": "ym2612"
    },
    {
      "channel": 0,
      "note": 78,
      "start": 16.3855,
      "duration": 0.1751,
      "velocity": 111,
      "chip": "ym2612"
    },
    {
      "channel": 3,
      "note": 66,
      "start": 16.3885,
      "duration": 0.0767,
      "velocity": 106,
      "chip": "ym2612"
    },
    {
      "channel": 2,
      "note": 64,
      "start": 16.3907,
      "duration": 0.0908,
      "velocity": 1,
      "chip": "ym2612"
    },
    {
      "channel": 3,
      "note": 73,
      "start": 16.4839,
      "duration": 0.0771,
      "velocity": 106,
      "chip": "ym2612"
    },
    {
      "channel": 4,
      "note": 78,
      "start": 16.4844,
      "duration": 0.1725,
      "velocity": 111,
      "chip": "ym2612"
    },
    {
      "channel": 2,
      "note": 64,
      "start": 16.4863,
      "duration": 0.0913,
      "velocity": 1,
      "chip": "ym2612"
    },
    {
      "channel": 0,
      "note": 80,
      "start": 16.5769,
      "duration": 0.2868,
      "velocity": 111,
      "chip": "ym2612"
    },
    {
      "channel": 3,
      "note": 74,
      "start": 16.5802,
      "duration": 0.0764,
      "velocity": 106,
      "chip": "ym2612"
    },
    {
      "channel": 2,
      "note": 26,
      "start": 16.5827,
      "duration": 0.0429,
      "velocity": 120,
      "chip": "ym2612"
    },
    {
      "channel": 3,
      "note": 73,
      "start": 16.6752,
      "duration": 0.0771,
      "velocity": 106,
      "chip": "ym2612"
    },
    {
      "channel": 4,
      "note": 80,
      "start": 16.6757,
      "duration": 0.2841,
      "velocity": 111,
      "chip": "ym2612"
    },
    {
      "channel": 2,
      "note": 26,
      "start": 16.6776,
      "duration": 0.0432,
      "velocity": 1,
      "chip": "ym2612"
    },
    {
      "channel": 2,
      "note": 103,
      "start": 16.7245,
      "duration": 0.0441,
      "velocity": 1,
      "chip": "ym2612"
    },
    {
      "channel": 3,
      "note": 66,
      "start": 16.771,
      "duration": 0.0931,
      "velocity": 106,
      "chip": "ym2612"
    },
    {
      "channel": 2,
      "note": 103,
      "start": 16.7729,
      "duration": 0.1078,
      "velocity": 1,
      "chip": "ym2612"
    },
    {
      "channel": 0,
      "note": 81,
      "start": 16.8799,
      "duration": 0.2709,
      "velocity": 111,
      "chip": "ym2612"
    },
    {
      "channel": 3,
      "note": 73,
      "start": 16.883,
      "duration": 0.0767,
      "velocity": 106,
      "chip": "ym2612"
    },
    {
      "channel": 2,
      "note": 103,
      "start": 16.8853,
      "duration": 0.0906,
      "velocity": 1,
      "chip": "ym2612"
    },
    {
      "channel": 3,
      "note": 74,
      "start": 16.9787,
      "duration": 0.0767,
      "velocity": 106,
      "chip": "ym2612"
    },
    {
      "channel": 4,
      "note": 81,
      "start": 16.9791,
      "duration": 0.2679,
      "velocity": 111,
      "chip": "ym2612"
    },
    {
      "channel": 2,
      "note": 73,
      "start": 16.9813,
      "duration": 0.0266,
      "velocity": 1,
      "chip": "ym2612"
    },
    {
      "channel": 2,
      "note": 73,
      "start": 17.0117,
      "duration": 0.028,
      "velocity": 1,
      "chip": "ym2612"
    },
    {
      "channel": 2,
      "note": 73,
      "start": 17.0435,
      "duration": 0.0282,
      "velocity": 1,
      "chip": "ym2612"
    },
    {
      "channel": 3,
      "note": 73,
      "start": 17.074,
      "duration": 0.0772,
      "velocity": 106,
      "chip": "ym2612"
    },
    {
      "channel": 2,
      "note": 73,
      "start": 17.0759,
      "duration": 0.0918,
      "velocity": 1,
      "chip": "ym2612"
    },
    {
      "channel": 0,
      "note": 83,
      "start": 17.1671,
      "duration": 0.191,
      "velocity": 111,
      "chip": "ym2612"
    },
    {
      "channel": 3,
      "note": 66,
      "start": 17.1701,
      "duration": 0.0767,
      "velocity": 106,
      "chip": "ym2612"
    },
    {
      "channel": 2,
      "note": 103,
      "start": 17.1723,
      "duration": 0.0908,
      "velocity": 1,
      "chip": "ym2612"
    },
    {
      "channel": 3,
      "note": 73,
      "start": 17.2655,
      "duration": 0.0931,
      "velocity": 106,
      "chip": "ym2612"
    },
    {
      "channel": 4,
      "note": 83,
      "start": 17.266,
      "duration": 0.1883,
      "velocity": 111,
      "chip": "ym2612"
    },
    {
      "channel": 2,
      "note": 26,
      "start": 17.2678,
      "duration": 0.0431,
      "velocity": 1,
      "chip": "ym2612"
    },
    {
      "channel": 2,
      "note": 64,
      "start": 17.3148,
      "duration": 0.0607,
      "velocity": 1,
      "chip": "ym2612"
    },
    {
      "channel": 0,
      "note": 80,
      "start": 17.3744,
      "duration": 0.6696,
      "velocity": 111,
      "chip": "ym2612"
    },
    {
      "channel": 1,
      "note": 50,
      "start": 17.3749,
      "duration": 1.5788,
      "velocity": 112,
      "chip": "ym2612"
    },
    {
      "channel": 3,
      "note": 74,
      "start": 17.3787,
      "duration": 0.0754,
      "velocity": 106,
      "chip": "ym2612"
    },
    {
      "channel": 2,
      "note": 64,
      "start": 17.3815,
      "duration": 0.0411,
      "velocity": 1,
      "chip": "ym2612"
    },
    {
      "channel": 2,
      "note": 73,
      "start": 17.4264,
      "duration": 0.044,
      "velocity": 1,
      "chip": "ym2612"
    },
    {
      "channel": 3,
      "note": 73,
      "start": 17.4727,
      "duration": 0.0771,
      "velocity": 106,
      "chip": "ym2612"
    },
    {
      "channel": 4,
      "note": 80,
      "start": 17.4732,
      "duration": 0.6671,
      "velocity": 111,
      "chip": "ym2612"
    },
    {
      "channel": 5,
      "note": 50,
      "start": 17.4737,
      "duration": 1.5788,
      "velocity": 112,
      "chip": "ym2612"
    },
    {
      "channel": 2,
      "note": 77,
      "start": 17.4755,
      "duration": 0.0906,
      "velocity": 1,
      "chip": "ym2612"
    },
    {
      "channel": 3,
      "note": 66,
      "start": 17.5685,
      "duration": 0.0771,
      "velocity": 106,
      "chip": "ym2612"
    },
    {
      "channel": 2,
      "note": 103,
      "start": 17.5704,
      "duration": 0.0914,
      "velocity": 1,
      "chip": "ym2612"
    },
    {
      "channel": 3,
      "note": 73,
      "start": 17.6641,
      "duration": 0.0771,
      "velocity": 106,
      "chip": "ym2612"
    },
    {
      "channel": 2,
      "note": 103,
      "start": 17.6661,
      "duration": 0.0914,
      "velocity": 1,
      "chip": "ym2612"
    },
    {
      "channel": 3,
      "note": 74,
      "start": 17.7602,
      "duration": 0.0768,
      "velocity": 106,
      "chip": "ym2612"
    },
    {
      "channel": 2,
      "note": 73,
      "start": 17.7623,
      "duration": 0.1069,
      "velocity": 1,
      "chip": "ym2612"
    },
    {
      "channel": 3,
      "note": 73,
      "start": 17.8715,
      "duration": 0.0771,
      "velocity": 106,
      "chip": "ym2612"
    },
    {
      "channel": 2,
      "note": 103,
      "start": 17.8734,
      "duration": 0.0915,
      "velocity": 1,
      "chip": "ym2612"
    },
    {
      "channel": 3,
      "note": 66,
      "start": 17.9673,
      "duration": 0.0771,
      "velocity": 106,
      "chip": "ym2612"
    },
    {
      "channel": 2,
      "note": 64,
      "start": 17.9693,
      "duration": 0.0917,
      "velocity": 1,
      "chip": "ym2612"
    },
    {
      "channel": 0,
      "note": 76,
      "start": 18.0603,
      "duration": 0.0156,
      "velocity": 111,
      "chip": "ym2612"
    },
    {
      "channel": 3,
      "note": 73,
      "start": 18.0633,
      "duration": 0.0768,
      "velocity": 106,
      "chip": "ym2612"
    },
    {
      "channel": 2,
      "note": 64,
      "start": 18.0656,
      "duration": 0.091,
      "velocity": 1,
      "chip": "ym2612"
    },
    {
      "channel": 0,
      "note": 77,
      "start": 18.0922,
      "duration": 0.0156,
      "velocity": 111,
      "chip": "ym2612"
    },
    {
      "channel": 0,
      "note": 77,
      "start": 18.1241,
      "duration": 0.0156,
      "velocity": 111,
      "chip": "ym2612"
    },
    {
      "channel": 0,
      "note": 78,
      "start": 18.156,
      "duration": 1.5628,
      "velocity": 111,
      "chip": "ym2612"
    },
    {
      "channel": 3,
      "note": 74,
      "start": 18.1594,
      "duration": 0.0763,
      "velocity": 106,
      "chip": "ym2612"
    },
    {
      "channel": 4,
      "note": 76,
      "start": 18.1598,
      "duration": 0.0122,
      "velocity": 111,
      "chip": "ym2612"
    },
    {
      "channel": 2,
      "note": 26,
      "start": 18.1621,
      "duration": 0.0426,
      "velocity": 120,
      "chip": "ym2612"
    },
    {
      "channel": 4,
      "note": 77,
      "start": 18.1883,
      "duration": 0.0156,
      "velocity": 111,
      "chip": "ym2612"
    },
    {
      "channel": 4,
      "note": 77,
      "start": 18.2202,
      "duration": 0.0157,
      "velocity": 111,
      "chip": "ym2612"
    },
    {
      "channel": 3,
      "note": 73,
      "start": 18.2544,
      "duration": 0.0772,
      "velocity": 106,
      "chip": "ym2612"
    },
    {
      "channel": 4,
      "note": 78,
      "start": 18.2548,
      "duration": 1.5603,
      "velocity": 111,
      "chip": "ym2612"
    },
    {
      "channel": 2,
      "note": 26,
      "start": 18.2567,
      "duration": 0.0431,
      "velocity": 1,
      "chip": "ym2612"
    },
    {
      "channel": 2,
      "note": 103,
      "start": 18.3036,
      "duration": 0.0441,
      "velocity": 1,
      "chip": "ym2612"
    },
    {
      "channel": 3,
      "note": 66,
      "start": 18.3501,
      "duration": 0.093,
      "velocity": 106,
      "chip": "ym2612"
    },
    {
      "channel": 2,
      "note": 103,
      "start": 18.352,
      "duration": 0.1074,
      "velocity": 1,
      "chip": "ym2612"
    },
    {
      "channel": 3,
      "note": 73,
      "start": 18.4617,
      "duration": 0.0771,
      "velocity": 106,
      "chip": "ym2612"
    },
    {
      "channel": 2,
      "note": 103,
      "start": 18.4637,
      "duration": 0.0914,
      "velocity": 1,
      "chip": "ym2612"
    },
    {
      "channel": 3,
      "note": 74,
      "start": 18.5577,
      "duration": 0.0768,
      "velocity": 106,
      "chip": "ym2612"
    },
    {
      "channel": 2,
      "note": 73,
      "start": 18.5598,
      "duration": 0.0271,
      "velocity": 1,
      "chip": "ym2612"
    },
    {
      "channel": 2,
      "note": 73,
      "start": 18.5906,
      "duration": 0.0283,
      "velocity": 1,
      "chip": "ym2612"
    },
    {
      "channel": 2,
      "note": 73,
      "start": 18.6226,
      "duration": 0.0282,
      "velocity": 1,
      "chip": "ym2612"
    },
    {
      "channel": 3,
      "note": 73,
      "start": 18.6531,
      "duration": 0.0771,
      "velocity": 106,
      "chip": "ym2612"
    },
    {
      "channel": 2,
      "note": 73,
      "start": 18.655,
      "duration": 0.0915,
      "velocity": 1,
      "chip": "ym2612"
    },
    {
      "channel": 3,
      "note": 66,
      "start": 18.7489,
      "duration": 0.077,
      "velocity": 106,
      "chip": "ym2612"
    },
    {
      "channel": 2,
      "note": 103,
      "start": 18.7508,
      "duration": 0.0914,
      "velocity": 1,
      "chip": "ym2612"
    },
    {
      "channel": 3,
      "note": 73,
      "start": 18.8445,
      "duration": 0.0931,
      "velocity": 106,
      "chip": "ym2612"
    },
    {
      "channel": 2,
      "note": 26,
      "start": 18.8464,
      "duration": 0.0441,
      "velocity": 120,
      "chip": "ym2612"
    },
    {
      "channel": 2,
      "note": 64,
      "start": 18.9096,
      "duration": 0.0445,
      "velocity": 1,
      "chip": "ym2612"
    },
    {
      "channel": 1,
      "note": 50,
      "start": 18.9537,
      "duration": 1.5629,
      "velocity": 112,
      "chip": "ym2612"
    },
    {
      "channel": 3,
      "note": 74,
      "start": 18.9574,
      "duration": 0.0758,
      "velocity": 106,
      "chip": "ym2612"
    },
    {
      "channel": 2,
      "note": 26,
      "start": 18.9598,
      "duration": 0.0259,
      "velocity": 1,
      "chip": "ym2612"
    },
    {
      "channel": 2,
      "note": 26,
      "start": 18.9893,
      "duration": 0.0448,
      "velocity": 120,
      "chip": "ym2612"
    },
    {
      "channel": 3,
      "note": 73,
      "start": 19.0519,
      "duration": 0.0771,
      "velocity": 106,
      "chip": "ym2612"
    },
    {
      "channel": 5,
      "note": 50,
      "start": 19.0524,
      "duration": 1.5603,
      "velocity": 112,
      "chip": "ym2612"
    },
    {
      "channel": 2,
      "note": 64,
      "start": 19.0542,
      "duration": 0.091,
      "velocity": 1,
      "chip": "ym2612"
    },
    {
      "channel": 3,
      "note": 66,
      "start": 19.1476,
      "duration": 0.0771,
      "velocity": 106,
      "chip": "ym2612"
    },
    {
      "channel": 2,
      "note": 73,
      "start": 19.1496,
      "duration": 0.0913,
      "velocity": 1,
      "chip": "ym2612"
    },
    {
      "channel": 3,
      "note": 73,
      "start": 19.2433,
      "duration": 0.0771,
      "velocity": 106,
      "chip": "ym2612"
    },
    {
      "channel": 2,
      "note": 103,
      "start": 19.2452,
      "duration": 0.0914,
      "velocity": 1,
      "chip": "ym2612"
    },
    {
      "channel": 3,
      "note": 74,
      "start": 19.3393,
      "duration": 0.0927,
      "velocity": 106,
      "chip": "ym2612"
    },
    {
      "channel": 2,
      "note": 26,
      "start": 19.3414,
      "duration": 0.0436,
      "velocity": 120,
      "chip": "ym2612"
    },
    {
      "channel": 3,
      "note": 73,
      "start": 19.4507,
      "duration": 0.077,
      "velocity": 106,
      "chip": "ym2612"
    },
    {
      "channel": 2,
      "note": 103,
      "start": 19.4527,
      "duration": 0.0913,
      "velocity": 1,
      "chip": "ym2612"
    },
    {
      "channel": 3,
      "note": 66,
      "start": 19.5463,
      "duration": 0.0771,
      "velocity": 106,
      "chip": "ym2612"
    },
    {
      "channel": 2,
      "note": 73,
      "start": 19.5483,
      "duration": 0.0914,
      "velocity": 1,
      "chip": "ym2612"
    },
    {
      "channel": 3,
      "note": 73,
      "start": 19.642,
      "duration": 0.0772,
      "velocity": 106,
      "chip": "ym2612"
    },
    {
      "channel": 2,
      "note": 103,
      "start": 19.644,
      "duration": 0.0918,
      "velocity": 1,
      "chip": "ym2612"
    },
    {
      "channel": 0,
      "note": 76,
      "start": 19.7351,
      "duration": 0.3825,
      "velocity": 111,
      "chip": "ym2612"
    },
    {
      "channel": 3,
      "note": 74,
      "start": 19.7385,
      "duration": 0.0765,
      "velocity": 106,
      "chip": "ym2612"
    },
    {
      "channel": 2,
      "note": 64,
      "start": 19.7409,
      "duration": 0.0903,
      "velocity": 1,
      "chip": "ym2612"
    },
    {
      "channel": 3,
      "note": 73,
      "start": 19.8335,
      "duration": 0.093,
      "velocity": 106,
      "chip": "ym2612"
    },
    {
      "channel": 4,
      "note": 76,
      "start": 19.834,
      "duration": 0.3798,
      "velocity": 111,
      "chip": "ym2612"
    },
    {
      "channel": 2,
      "note": 103,
      "start": 19.8359,
      "duration": 0.1069,
      "velocity": 1,
      "chip": "ym2612"
    },
    {
      "channel": 3,
      "note": 66,
      "start": 19.9451,
      "duration": 0.0771,
      "velocity": 106,
      "chip": "ym2612"
    },
    {
      "channel": 2,
      "note": 103,
      "start": 19.9471,
      "duration": 0.0914,
      "velocity": 1,
      "chip": "ym2612"
    },
    {
      "channel": 3,
      "note": 73,
      "start": 20.0408,
      "duration": 0.0772,
      "velocity": 106,
      "chip": "ym2612"
    },
    {
      "channel": 2,
      "note": 103,
      "start": 20.0427,
      "duration": 0.0919,
      "velocity": 1,
      "chip": "ym2612"
    },
    {
      "channel": 0,
      "note": 78,
      "start": 20.1339,
      "duration": 0.1751,
      "velocity": 111,
      "chip": "ym2612"
    },
    {
      "channel": 3,
      "note": 74,
      "start": 20.1373,
      "duration": 0.0763,
      "velocity": 106,
      "chip": "ym2612"
    },
    {
      "channel": 2,
      "note": 64,
      "start": 20.1396,
      "duration": 0.0265,
      "velocity": 1,
      "chip": "ym2612"
    },
    {
      "channel": 2,
      "note": 73,
      "start": 20.1699,
      "duration": 0.0282,
      "velocity": 1,
      "chip": "ym2612"
    },
    {
      "channel": 2,
      "note": 64,
      "start": 20.2018,
      "duration": 0.028,
      "velocity": 1,
      "chip": "ym2612"
    },
    {
      "channel": 3,
      "note": 73,
      "start": 20.2323,
      "duration": 0.0771,
      "velocity": 106,
      "chip": "ym2612"
    },
    {
      "channel": 4,
      "note": 78,
      "start": 20.2328,
      "duration": 0.1884,
      "velocity": 111,
      "chip": "ym2612"
    },
    {
      "channel": 2,
      "note": 64,
      "start": 20.2347,
      "duration": 0.0913,
      "velocity": 1,
      "chip": "ym2612"
    },
    {
      "channel": 0,
      "note": 71,
      "start": 20.3253,
      "duration": 0.0954,
      "velocity": 111,
      "chip": "ym2612"
    },
    {
      "channel": 3,
      "note": 66,
      "start": 20.3283,
      "duration": 0.0927,
      "velocity": 106,
      "chip": "ym2612"
    },
    {
      "channel": 2,
      "note": 26,
      "start": 20.3304,
      "duration": 0.0435,
      "velocity": 120,
      "chip": "ym2612"
    },
    {
      "channel": 0,
      "note": 73,
      "start": 20.4369,
      "duration": 0.0794,
      "velocity": 111,
      "chip": "ym2612"
    },
    {
      "channel": 3,
      "note": 73,
      "start": 20.4399,
      "duration": 0.0769,
      "velocity": 106,
      "chip": "ym2612"
    },
    {
      "channel": 4,
      "note": 71,
      "start": 20.4404,
      "duration": 0.0766,
      "velocity": 111,
      "chip": "ym2612"
    },
    {
      "channel": 2,
      "note": 26,
      "start": 20.4425,
      "duration": 0.0431,
      "velocity": 120,
      "chip": "ym2612"
    },
    {
      "channel": 0,
      "note": 80,
      "start": 20.5326,
      "duration": 0.5739,
      "velocity": 111,
      "chip": "ym2612"
    },
    {
      "channel": 1,
      "note": 52,
      "start": 20.5333,
      "duration": 1.5789,
      "velocity": 112,
      "chip": "ym2612"
    },
    {
      "channel": 3,
      "note": 74,
      "start": 20.5371,
      "duration": 0.0753,
      "velocity": 106,
      "chip": "ym2612"
    },
    {
      "channel": 4,
      "note": 73,
      "start": 20.5376,
      "duration": 0.075,
      "velocity": 111,
      "chip": "ym2612"
    },
    {
      "channel": 2,
      "note": 64,
      "start": 20.5402,
      "duration": 0.0406,
      "velocity": 1,
      "chip": "ym2612"
    },
    {
      "channel": 2,
      "note": 73,
      "start": 20.5846,
      "duration": 0.044,
      "velocity": 1,
      "chip": "ym2612"
    },
    {
      "channel": 3,
      "note": 73,
      "start": 20.631,
      "duration": 0.0771,
      "velocity": 106,
      "chip": "ym2612"
    },
    {
      "channel": 4,
      "note": 80,
      "start": 20.6315,
      "duration": 0.5712,
      "velocity": 111,
      "chip": "ym2612"
    },
    {
      "channel": 5,
      "note": 52,
      "start": 20.6322,
      "duration": 1.5788,
      "velocity": 112,
      "chip": "ym2612"
    },
    {
      "channel": 2,
      "note": 77,
      "start": 20.634,
      "duration": 0.0903,
      "velocity": 1,
      "chip": "ym2612"
    },
    {
      "channel": 3,
      "note": 66,
      "start": 20.7267,
      "duration": 0.0771,
      "velocity": 106,
      "chip": "ym2612"
    },
    {
      "channel": 2,
      "note": 103,
      "start": 20.7286,
      "duration": 0.0915,
      "velocity": 1,
      "chip": "ym2612"
    },
    {
      "channel": 3,
      "note": 73,
      "start": 20.8224,
      "duration": 0.0771,
      "velocity": 106,
      "chip": "ym2612"
    },
    {
      "channel": 2,
      "note": 103,
      "start": 20.8243,
      "duration": 0.1074,
      "velocity": 1,
      "chip": "ym2612"
    },
    {
      "channel": 3,
      "note": 74,
      "start": 20.9344,
      "duration": 0.0767,
      "velocity": 106,
      "chip": "ym2612"
    },
    {
      "channel": 2,
      "note": 73,
      "start": 20.9366,
      "duration": 0.0908,
      "velocity": 1,
      "chip": "ym2612"
    },
    {
      "channel": 3,
      "note": 73,
      "start": 21.0298,
      "duration": 0.0771,
      "velocity": 106,
      "chip": "ym2612"
    },
    {
      "channel": 2,
      "note": 103,
      "start": 21.0317,
      "duration": 0.0918,
      "velocity": 1,
      "chip": "ym2612"
    },
    {
      "channel": 0,
      "note": 78,
      "start": 21.1228,
      "duration": 0.1752,
      "velocity": 111,
      "chip": "ym2612"
    },
    {
      "channel": 3,
      "note": 66,
      "start": 21.1258,
      "duration": 0.0767,
      "velocity": 106,
      "chip": "ym2612"
    },
    {
      "channel": 2,
      "note": 64,
      "start": 21.128,
      "duration": 0.0908,
      "velocity": 1,
      "chip": "ym2612"
    },
    {
      "channel": 3,
      "note": 73,
      "start": 21.2212,
      "duration": 0.0772,
      "velocity": 106,
      "chip": "ym2612"
    },
    {
      "channel": 4,
      "note": 78,
      "start": 21.2217,
      "duration": 0.1725,
      "velocity": 111,
      "chip": "ym2612"
    },
    {
      "channel": 2,
      "note": 64,
      "start": 21.2236,
      "duration": 0.0914,
      "velocity": 1,
      "chip": "ym2612"
    },
    {
      "channel": 0,
      "note": 73,
      "start": 21.3142,
      "duration": 0.5739,
      "velocity": 111,
      "chip": "ym2612"
    },
    {
      "channel": 3,
      "note": 74,
      "start": 21.3177,
      "duration": 0.0763,
      "velocity": 106,
      "chip": "ym2612"
    },
    {
      "channel": 2,
      "note": 26,
      "start": 21.32,
      "duration": 0.0429,
      "velocity": 120,
      "chip": "ym2612"
    },
    {
      "channel": 3,
      "note": 73,
      "start": 21.4126,
      "duration": 0.0931,
      "velocity": 106,
      "chip": "ym2612"
    },
    {
      "channel": 4,
      "note": 73,
      "start": 21.4131,
      "duration": 0.5872,
      "velocity": 111,
      "chip": "ym2612"
    },
    {
      "channel": 2,
      "note": 26,
      "start": 21.415,
      "duration": 0.0436,
      "velocity": 120,
      "chip": "ym2612"
    },
    {
      "channel": 2,
      "note": 103,
      "start": 21.4778,
      "duration": 0.0441,
      "velocity": 1,
      "chip": "ym2612"
    },
    {
      "channel": 3,
      "note": 66,
      "start": 21.5242,
      "duration": 0.0771,
      "velocity": 106,
      "chip": "ym2612"
    },
    {
      "channel": 2,
      "note": 103,
      "start": 21.5261,
      "duration": 0.0915,
      "velocity": 1,
      "chip": "ym2612"
    },
    {
      "channel": 3,
      "note": 73,
      "start": 21.6199,
      "duration": 0.0771,
      "velocity": 106,
      "chip": "ym2612"
    },
    {
      "channel": 2,
      "note": 103,
      "start": 21.6219,
      "duration": 0.0914,
      "velocity": 1,
      "chip": "ym2612"
    },
    {
      "channel": 3,
      "note": 74,
      "start": 21.7161,
      "duration": 0.0767,
      "velocity": 106,
      "chip": "ym2612"
    },
    {
      "channel": 2,
      "note": 73,
      "start": 21.7182,
      "duration": 0.027,
      "velocity": 1,
      "chip": "ym2612"
    },
    {
      "channel": 2,
      "note": 73,
      "start": 21.749,
      "duration": 0.0281,
      "velocity": 1,
      "chip": "ym2612"
    },
    {
      "channel": 2,
      "note": 73,
      "start": 21.7807,
      "duration": 0.0283,
      "velocity": 1,
      "chip": "ym2612"
    },
    {
      "channel": 3,
      "note": 73,
      "start": 21.8113,
      "duration": 0.0772,
      "velocity": 106,
      "chip": "ym2612"
    },
    {
      "channel": 2,
      "note": 73,
      "start": 21.8133,
      "duration": 0.0918,
      "velocity": 1,
      "chip": "ym2612"
    },
    {
      "channel": 0,
      "note": 80,
      "start": 21.9044,
      "duration": 0.1911,
      "velocity": 111,
      "chip": "ym2612"
    },
    {
      "channel": 3,
      "note": 66,
      "start": 21.9074,
      "duration": 0.0927,
      "velocity": 106,
      "chip": "ym2612"
    },
    {
      "channel": 2,
      "note": 103,
      "start": 21.9096,
      "duration": 0.1067,
      "velocity": 1,
      "chip": "ym2612"
    },
    {
      "channel": 3,
      "note": 73,
      "start": 22.0187,
      "duration": 0.0772,
      "velocity": 106,
      "chip": "ym2612"
    },
    {
      "channel": 4,
      "note": 80,
      "start": 22.0192,
      "duration": 0.1725,
      "velocity": 111,
      "chip": "ym2612"
    },
    {
      "channel": 2,
      "note": 26,
      "start": 22.021,
      "duration": 0.0432,
      "velocity": 1,
      "chip": "ym2612"
    },
    {
      "channel": 2,
      "note": 64,
      "start": 22.068,
      "duration": 0.0447,
      "velocity": 1,
      "chip": "ym2612"
    },
    {
      "channel": 0,
      "note": 81,
      "start": 22.1117,
      "duration": 0.3665,
      "velocity": 111,
      "chip": "ym2612"
    },
    {
      "channel": 1,
      "note": 52,
      "start": 22.1122,
      "duration": 1.5791,
      "velocity": 112,
      "chip": "ym2612"
    },
    {
      "channel": 3,
      "note": 74,
      "start": 22.1161,
      "duration": 0.0755,
      "velocity": 106,
      "chip": "ym2612"
    },
    {
      "channel": 2,
      "note": 64,
      "start": 22.1188,
      "duration": 0.0411,
      "velocity": 1,
      "chip": "ym2612"
    },
    {
      "channel": 2,
      "note": 73,
      "start": 22.1637,
      "duration": 0.044,
      "velocity": 1,
      "chip": "ym2612"
    },
    {
      "channel": 3,
      "note": 73,
      "start": 22.2101,
      "duration": 0.0771,
      "velocity": 106,
      "chip": "ym2612"
    },
    {
      "channel": 4,
      "note": 81,
      "start": 22.2106,
      "duration": 0.3638,
      "velocity": 111,
      "chip": "ym2612"
    },
    {
      "channel": 5,
      "note": 52,
      "start": 22.211,
      "duration": 1.5791,
      "velocity": 112,
      "chip": "ym2612"
    },
    {
      "channel": 2,
      "note": 77,
      "start": 22.2129,
      "duration": 0.0906,
      "velocity": 1,
      "chip": "ym2612"
    },
    {
      "channel": 3,
      "note": 66,
      "start": 22.3058,
      "duration": 0.077,
      "velocity": 106,
      "chip": "ym2612"
    },
    {
      "channel": 2,
      "note": 103,
      "start": 22.3077,
      "duration": 0.0914,
      "velocity": 1,
      "chip": "ym2612"
    },
    {
      "channel": 3,
      "note": 73,
      "start": 22.4015,
      "duration": 0.0934,
      "velocity": 106,
      "chip": "ym2612"
    },
    {
      "channel": 2,
      "note": 103,
      "start": 22.4034,
      "duration": 0.1074,
      "velocity": 1,
      "chip": "ym2612"
    },
    {
      "channel": 0,
      "note": 83,
      "start": 22.4946,
      "duration": 0.3825,
      "velocity": 111,
      "chip": "ym2612"
    },
    {
      "channel": 3,
      "note": 74,
      "start": 22.5134,
      "duration": 0.0768,
      "velocity": 106,
      "chip": "ym2612"
    },
    {
      "channel": 2,
      "note": 73,
      "start": 22.5157,
      "duration": 0.0908,
      "velocity": 1,
      "chip": "ym2612"
    },
    {
      "channel": 4,
      "note": 83,
      "start": 22.5907,
      "duration": 0.3985,
      "velocity": 111,
      "chip": "ym2612"
    },
    {
      "channel": 3,
      "note": 73,
      "start": 22.6089,
      "duration": 0.0771,
      "velocity": 106,
      "chip": "ym2612"
    },
    {
      "channel": 2,
      "note": 103,
      "start": 22.6108,
      "duration": 0.0914,
      "velocity": 1,
      "chip": "ym2612"
    },
    {
      "channel": 3,
      "note": 66,
      "start": 22.7046,
      "duration": 0.0772,
      "velocity": 106,
      "chip": "ym2612"
    },
    {
      "channel": 2,
      "note": 64,
      "start": 22.7065,
      "duration": 0.0915,
      "velocity": 1,
      "chip": "ym2612"
    },
    {
      "channel": 3,
      "note": 73,
      "start": 22.8004,
      "duration": 0.0771,
      "velocity": 106,
      "chip": "ym2612"
    },
    {
      "channel": 2,
      "note": 64,
      "start": 22.8023,
      "duration": 0.0917,
      "velocity": 1,
      "chip": "ym2612"
    },
    {
      "channel": 0,
      "note": 85,
      "start": 22.8933,
      "duration": 0.1273,
      "velocity": 111,
      "chip": "ym2612"
    },
    {
      "channel": 3,
      "note": 74,
      "start": 22.8967,
      "duration": 0.0924,
      "velocity": 106,
      "chip": "ym2612"
    },
    {
      "channel": 2,
      "note": 26,
      "start": 22.8991,
      "duration": 0.0429,
      "velocity": 120,
      "chip": "ym2612"
    },
    {
      "channel": 3,
      "note": 73,
      "start": 23.0076,
      "duration": 0.0772,
      "velocity": 106,
      "chip": "ym2612"
    },
    {
      "channel": 4,
      "note": 85,
      "start": 23.0081,
      "duration": 0.1086,
      "velocity": 111,
      "chip": "ym2612"
    },
    {
      "channel": 2,
      "note": 26,
      "start": 23.01,
      "duration": 0.0432,
      "velocity": 1,
      "chip": "ym2612"
    },
    {
      "channel": 0,
      "note": 84,
      "start": 23.0369,
      "duration": 0.0475,
      "velocity": 111,
      "chip": "ym2612"
    },
    {
      "channel": 2,
      "note": 103,
      "start": 23.0569,
      "duration": 0.0445,
      "velocity": 1,
      "chip": "ym2612"
    },
    {
      "channel": 0,
      "note": 81,
      "start": 23.1007,
      "duration": 0.3825,
      "velocity": 111,
      "chip": "ym2612"
    },
    {
      "channel": 3,
      "note": 66,
      "start": 23.1037,
      "duration": 0.0767,
      "velocity": 106,
      "chip": "ym2612"
    },
    {
      "channel": 2,
      "note": 103,
      "start": 23.1059,
      "duration": 0.0908,
      "velocity": 1,
      "chip": "ym2612"
    },
    {
      "channel": 4,
      "note": 84,
      "start": 23.133,
      "duration": 0.0476,
      "velocity": 111,
      "chip": "ym2612"
    },
    {
      "channel": 3,
      "note": 73,
      "start": 23.1991,
      "duration": 0.0771,
      "velocity": 106,
      "chip": "ym2612"
    },
    {
      "channel": 4,
      "note": 81,
      "start": 23.1996,
      "duration": 0.3798,
      "velocity": 111,
      "chip": "ym2612"
    },
    {
      "channel": 2,
      "note": 103,
      "start": 23.2015,
      "duration": 0.0909,
      "velocity": 1,
      "chip": "ym2612"
    },
    {
      "channel": 3,
      "note": 74,
      "start": 23.2951,
      "duration": 0.0767,
      "velocity": 106,
      "chip": "ym2612"
    },
    {
      "channel": 2,
      "note": 73,
      "start": 23.2972,
      "duration": 0.0271,
      "velocity": 1,
      "chip": "ym2612"
    },
    {
      "channel": 2,
      "note": 73,
      "start": 23.328,
      "duration": 0.0283,
      "velocity": 1,
      "chip": "ym2612"
    },
    {
      "channel": 2,
      "note": 73,
      "start": 23.3599,
      "duration": 0.0282,
      "velocity": 1,
      "chip": "ym2612"
    },
    {
      "channel": 3,
      "note": 73,
      "start": 23.3904,
      "duration": 0.0931,
      "velocity": 106,
      "chip": "ym2612"
    },
    {
      "channel": 2,
      "note": 73,
      "start": 23.3923,
      "duration": 0.1078,
      "velocity": 1,
      "chip": "ym2612"
    },
    {
      "channel": 0,
      "note": 83,
      "start": 23.4995,
      "duration": 0.1751,
      "velocity": 111,
      "chip": "ym2612"
    },
    {
      "channel": 3,
      "note": 66,
      "start": 23.5024,
      "duration": 0.0767,
      "velocity": 106,
      "chip": "ym2612"
    },
    {
      "channel": 2,
      "note": 103,
      "start": 23.5047,
      "duration": 0.0908,
      "velocity": 1,
      "chip": "ym2612"
    },
    {
      "channel": 3,
      "note": 73,
      "start": 23.5979,
      "duration": 0.0771,
      "velocity": 106,
      "chip": "ym2612"
    },
    {
      "channel": 4,
      "note": 83,
      "start": 23.5984,
      "duration": 0.1724,
      "velocity": 111,
      "chip": "ym2612"
    },
    {
      "channel": 2,
      "note": 26,
      "start": 23.6002,
      "duration": 0.0431,
      "velocity": 1,
      "chip": "ym2612"
    },
    {
      "channel": 2,
      "note": 64,
      "start": 23.6471,
      "duration": 0.0448,
      "velocity": 1,
      "chip": "ym2612"
    },
    {
      "channel": 0,
      "note": 85,
      "start": 23.6909,
      "duration": 1.1641,
      "velocity": 111,
      "chip": "ym2612"
    },
    {
      "channel": 1,
      "note": 52,
      "start": 23.6913,
      "duration": 1.5791,
      "velocity": 112,
      "chip": "ym2612"
    },
    {
      "channel": 3,
      "note": 74,
      "start": 23.6951,
      "duration": 0.0755,
      "velocity": 106,
      "chip": "ym2612"
    },
    {
      "channel": 2,
      "note": 64,
      "start": 23.6979,
      "duration": 0.0412,
      "velocity": 1,
      "chip": "ym2612"
    },
    {
      "channel": 2,
      "note": 73,
      "start": 23.7428,
      "duration": 0.0441,
      "velocity": 1,
      "chip": "ym2612"
    },
    {
      "channel": 3,
      "note": 73,
      "start": 23.7892,
      "duration": 0.077,
      "velocity": 106,
      "chip": "ym2612"
    },
    {
      "channel": 4,
      "note": 85,
      "start": 23.7897,
      "duration": 1.1615,
      "velocity": 111,
      "chip": "ym2612"
    },
    {
      "channel": 5,
      "note": 52,
      "start": 23.7902,
      "duration": 1.5791,
      "velocity": 112,
      "chip": "ym2612"
    },
    {
      "channel": 2,
      "note": 77,
      "start": 23.792,
      "duration": 0.0906,
      "velocity": 1,
      "chip": "ym2612"
    },
    {
      "channel": 3,
      "note": 66,
      "start": 23.8849,
      "duration": 0.0771,
      "velocity": 106,
      "chip": "ym2612"
    },
    {
      "channel": 2,
      "note": 103,
      "start": 23.8868,
      "duration": 0.1074,
      "velocity": 1,
      "chip": "ym2612"
    },
    {
      "channel": 3,
      "note": 73,
      "start": 23.9965,
      "duration": 0.0771,
      "velocity": 106,
      "chip": "ym2612"
    },
    {
      "channel": 2,
      "note": 103,
      "start": 23.9986,
      "duration": 0.0913,
      "velocity": 1,
      "chip": "ym2612"
    },
    {
      "channel": 3,
      "note": 74,
      "start": 24.0926,
      "duration": 0.0768,
      "velocity": 106,
      "chip": "ym2612"
    },
    {
      "channel": 2,
      "note": 73,
      "start": 24.0947,
      "duration": 0.0909,
      "velocity": 1,
      "chip": "ym2612"
    },
    {
      "channel": 3,
      "note": 73,
      "start": 24.1879,
      "duration": 0.0772,
      "velocity": 106,
      "chip": "ym2612"
    },
    {
      "channel": 2,
      "note": 103,
      "start": 24.1899,
      "duration": 0.0915,
      "velocity": 1,
      "chip": "ym2612"
    },
    {
      "channel": 3,
      "note": 66,
      "start": 24.2837,
      "duration": 0.0771,
      "velocity": 106,
      "chip": "ym2612"
    },
    {
      "channel": 2,
      "note": 64,
      "start": 24.2856,
      "duration": 0.0914,
      "velocity": 1,
      "chip": "ym2612"
    },
    {
      "channel": 3,
      "note": 73,
      "start": 24.3794,
      "duration": 0.0771,
      "velocity": 106,
      "chip": "ym2612"
    },
    {
      "channel": 2,
      "note": 64,
      "start": 24.3813,
      "duration": 0.0914,
      "velocity": 1,
      "chip": "ym2612"
    },
    {
      "channel": 3,
      "note": 74,
      "start": 24.4754,
      "duration": 0.0927,
      "velocity": 106,
      "chip": "ym2612"
    },
    {
      "channel": 2,
      "note": 26,
      "start": 24.4775,
      "duration": 0.0436,
      "velocity": 120,
      "chip": "ym2612"
    },
    {
      "channel": 3,
      "note": 73,
      "start": 24.5867,
      "duration": 0.0771,
      "velocity": 106,
      "chip": "ym2612"
    },
    {
      "channel": 2,
      "note": 26,
      "start": 24.5886,
      "duration": 0.0436,
      "velocity": 1,
      "chip": "ym2612"
    },
    {
      "channel": 2,
      "note": 103,
      "start": 24.6359,
      "duration": 0.0441,
      "velocity": 1,
      "chip": "ym2612"
    },
    {
      "channel": 3,
      "note": 66,
      "start": 24.6825,
      "duration": 0.077,
      "velocity": 106,
      "chip": "ym2612"
    },
    {
      "channel": 2,
      "note": 103,
      "start": 24.6844,
      "duration": 0.0914,
      "velocity": 1,
      "chip": "ym2612"
    },
    {
      "channel": 3,
      "note": 73,
      "start": 24.7781,
      "duration": 0.0772,
      "velocity": 106,
      "chip": "ym2612"
    },
    {
      "channel": 2,
      "note": 103,
      "start": 24.7801,
      "duration": 0.0918,
      "velocity": 1,
      "chip": "ym2612"
    },
    {
      "channel": 0,
      "note": 86,
      "start": 24.8712,
      "duration": 0.3824,
      "velocity": 111,
      "chip": "ym2612"
    },
    {
      "channel": 3,
      "note": 74,
      "start": 24.8746,
      "duration": 0.0763,
      "velocity": 106,
      "chip": "ym2612"
    },
    {
      "channel": 2,
      "note": 73,
      "start": 24.8769,
      "duration": 0.0265,
      "velocity": 1,
      "chip": "ym2612"
    },
    {
      "channel": 2,
      "note": 73,
      "start": 24.9072,
      "duration": 0.0281,
      "velocity": 1,
      "chip": "ym2612"
    },
    {
      "channel": 2,
      "note": 73,
      "start": 24.9391,
      "duration": 0.0281,
      "velocity": 1,
      "chip": "ym2612"
    },
    {
      "channel": 3,
      "note": 73,
      "start": 24.9696,
      "duration": 0.093,
      "velocity": 106,
      "chip": "ym2612"
    },
    {
      "channel": 4,
      "note": 86,
      "start": 24.97,
      "duration": 0.3799,
      "velocity": 111,
      "chip": "ym2612"
    },
    {
      "channel": 2,
      "note": 73,
      "start": 24.9719,
      "duration": 0.1069,
      "velocity": 1,
      "chip": "ym2612"
    },
    {
      "channel": 3,
      "note": 66,
      "start": 25.0813,
      "duration": 0.077,
      "velocity": 106,
      "chip": "ym2612"
    },
    {
      "channel": 2,
      "note": 103,
      "start": 25.0832,
      "duration": 0.0914,
      "velocity": 1,
      "chip": "ym2612"
    },
    {
      "channel": 3,
      "note": 73,
      "start": 25.1769,
      "duration": 0.0772,
      "velocity": 106,
      "chip": "ym2612"
    },
    {
      "channel": 2,
      "note": 26,
      "start": 25.1788,
      "duration": 0.0436,
      "velocity": 1,
      "chip": "ym2612"
    },
    {
      "channel": 2,
      "note": 64,
      "start": 25.2261,
      "duration": 0.0449,
      "velocity": 1,
      "chip": "ym2612"
    },
    {
      "channel": 0,
      "note": 85,
      "start": 25.27,
      "duration": 1.0527,
      "velocity": 111,
      "chip": "ym2612"
    },
    {
      "channel": 1,
      "note": 52,
      "start": 25.2705,
      "duration": 1.5625,
      "velocity": 112,
      "chip": "ym2612"
    },
    {
      "channel": 3,
      "note": 74,
      "start": 25.2742,
      "duration": 0.0755,
      "velocity": 106,
      "chip": "ym2612"
    },
    {
      "channel": 2,
      "note": 26,
      "start": 25.2769,
      "duration": 0.0253,
      "velocity": 1,
      "chip": "ym2612"
    },
    {
      "channel": 2,
      "note": 26,
      "start": 25.3059,
      "duration": 0.0448,
      "velocity": 120,
      "chip": "ym2612"
    },
    {
      "channel": 3,
      "note": 73,
      "start": 25.3683,
      "duration": 0.0771,
      "velocity": 106,
      "chip": "ym2612"
    },
    {
      "channel": 4,
      "note": 85,
      "start": 25.3688,
      "duration": 1.05,
      "velocity": 111,
      "chip": "ym2612"
    },
    {
      "channel": 5,
      "note": 52,
      "start": 25.3693,
      "duration": 1.5599,
      "velocity": 112,
      "chip": "ym2612"
    },
    {
      "channel": 2,
      "note": 64,
      "start": 25.3711,
      "duration": 0.0906,
      "velocity": 1,
      "chip": "ym2612"
    },
    {
      "channel": 3,
      "note": 66,
      "start": 25.464,
      "duration": 0.093,
      "velocity": 106,
      "chip": "ym2612"
    },
    {
      "channel": 2,
      "note": 73,
      "start": 25.466,
      "duration": 0.1073,
      "velocity": 1,
      "chip": "ym2612"
    },
    {
      "channel": 3,
      "note": 73,
      "start": 25.5757,
      "duration": 0.0771,
      "velocity": 106,
      "chip": "ym2612"
    },
    {
      "channel": 2,
      "note": 103,
      "start": 25.5776,
      "duration": 0.0915,
      "velocity": 1,
      "chip": "ym2612"
    },
    {
      "channel": 3,
      "note": 74,
      "start": 25.6717,
      "duration": 0.0768,
      "velocity": 106,
      "chip": "ym2612"
    },
    {
      "channel": 2,
      "note": 26,
      "start": 25.6738,
      "duration": 0.0436,
      "velocity": 120,
      "chip": "ym2612"
    },
    {
      "channel": 3,
      "note": 73,
      "start": 25.7671,
      "duration": 0.077,
      "velocity": 106,
      "chip": "ym2612"
    },
    {
      "channel": 2,
      "note": 103,
      "start": 25.769,
      "duration": 0.0914,
      "velocity": 1,
      "chip": "ym2612"
    },
    {
      "channel": 3,
      "note": 66,
      "start": 25.8628,
      "duration": 0.0771,
      "velocity": 106,
      "chip": "ym2612"
    },
    {
      "channel": 2,
      "note": 73,
      "start": 25.8647,
      "duration": 0.0914,
      "velocity": 1,
      "chip": "ym2612"
    },
    {
      "channel": 3,
      "note": 73,
      "start": 25.9585,
      "duration": 0.093,
      "velocity": 106,
      "chip": "ym2612"
    },
    {
      "channel": 2,
      "note": 103,
      "start": 25.9604,
      "duration": 0.1074,
      "velocity": 1,
      "chip": "ym2612"
    },
    {
      "channel": 3,
      "note": 74,
      "start": 26.0705,
      "duration": 0.0768,
      "velocity": 106,
      "chip": "ym2612"
    },
    {
      "channel": 2,
      "note": 64,
      "start": 26.0726,
      "duration": 0.0909,
      "velocity": 1,
      "chip": "ym2612"
    },
    {
      "channel": 3,
      "note": 73,
      "start": 26.1659,
      "duration": 0.077,
      "velocity": 106,
      "chip": "ym2612"
    },
    {
      "channel": 2,
      "note": 103,
      "start": 26.1678,
      "duration": 0.0913,
      "velocity": 1,
      "chip": "ym2612"
    },
    {
      "channel": 3,
      "note": 66,
      "start": 26.2615,
      "duration": 0.0771,
      "velocity": 106,
      "chip": "ym2612"
    },
    {
      "channel": 2,
      "note": 103,
      "start": 26.2634,
      "duration": 0.0914,
      "velocity": 1,
      "chip": "ym2612"
    },
    {
      "channel": 0,
      "note": 85,
      "start": 26.3227,
      "duration": 0.5101,
      "velocity": 111,
      "chip": "ym2612"
    },
    {
      "channel": 3,
      "note": 73,
      "start": 26.3572,
      "duration": 0.0771,
      "velocity": 106,
      "chip": "ym2612"
    },
    {
      "channel": 2,
      "note": 103,
      "start": 26.3593,
      "duration": 0.0914,
      "velocity": 1,
      "chip": "ym2612"
    },
    {
      "channel": 4,
      "note": 85,
      "start": 26.4188,
      "duration": 0.5102,
      "velocity": 111,
      "chip": "ym2612"
    },
    {
      "channel": 3,
      "note": 74,
      "start": 26.4533,
      "duration": 0.0927,
      "velocity": 106,
      "chip": "ym2612"
    },
    {
      "channel": 2,
      "note": 64,
      "start": 26.4555,
      "duration": 0.027,
      "velocity": 1,
      "chip": "ym2612"
    },
    {
      "channel": 2,
      "note": 73,
      "start": 26.4862,
      "duration": 0.0282,
      "velocity": 1,
      "chip": "ym2612"
    },
    {
      "channel": 2,
      "note": 64,
      "start": 26.5182,
      "duration": 0.0441,
      "velocity": 1,
      "chip": "ym2612"
    },
    {
      "channel": 3,
      "note": 73,
      "start": 26.5647,
      "duration": 0.077,
      "velocity": 106,
      "chip": "ym2612"
    },
    {
      "channel": 2,
      "note": 64,
      "start": 26.5666,
      "duration": 0.0914,
      "velocity": 1,
      "chip": "ym2612"
    },
    {
      "channel": 3,
      "note": 66,
      "start": 26.6603,
      "duration": 0.0771,
      "velocity": 106,
      "chip": "ym2612"
    },
    {
      "channel": 2,
      "note": 26,
      "start": 26.6622,
      "duration": 0.0441,
      "velocity": 120,
      "chip": "ym2612"
    },
    {
      "channel": 3,
      "note": 73,
      "start": 26.756,
      "duration": 0.0772,
      "velocity": 106,
      "chip": "ym2612"
    },
    {
      "channel": 2,
      "note": 26,
      "start": 26.7579,
      "duration": 0.0441,
      "velocity": 120,
      "chip": "ym2612"
    },
    {
      "channel": 0,
      "note": 71,
      "start": 26.8494,
      "duration": 0.7809,
      "velocity": 111,
      "chip": "ym2612"
    },
    {
      "channel": 1,
      "note": 54,
      "start": 26.8535,
      "duration": 1.5751,
      "velocity": 112,
      "chip": "ym2612"
    },
    {
      "channel": 3,
      "note": 74,
      "start": 26.8573,
      "duration": 0.0715,
      "velocity": 106,
      "chip": "ym2612"
    },
    {
      "channel": 2,
      "note": 64,
      "start": 26.8604,
      "duration": 0.0368,
      "velocity": 1,
      "chip": "ym2612"
    },
    {
      "channel": 2,
      "note": 73,
      "start": 26.9011,
      "duration": 0.044,
      "velocity": 1,
      "chip": "ym2612"
    },
    {
      "channel": 3,
      "note": 73,
      "start": 26.9474,
      "duration": 0.0771,
      "velocity": 106,
      "chip": "ym2612"
    },
    {
      "channel": 4,
      "note": 71,
      "start": 26.9483,
      "duration": 0.7782,
      "velocity": 111,
      "chip": "ym2612"
    },
    {
      "channel": 5,
      "note": 54,
      "start": 26.9527,
      "duration": 1.5749,
      "velocity": 112,
      "chip": "ym2612"
    },
    {
      "channel": 2,
      "note": 77,
      "start": 26.9544,
      "duration": 0.1023,
      "velocity": 1,
      "chip": "ym2612"
    },
    {
      "channel": 3,
      "note": 66,
      "start": 27.0591,
      "duration": 0.0771,
      "velocity": 106,
      "chip": "ym2612"
    },
    {
      "channel": 2,
      "note": 103,
      "start": 27.061,
      "duration": 0.0915,
      "velocity": 1,
      "chip": "ym2612"
    },
    {
      "channel": 3,
      "note": 73,
      "start": 27.1547,
      "duration": 0.0771,
      "velocity": 106,
      "chip": "ym2612"
    },
    {
      "channel": 2,
      "note": 103,
      "start": 27.1567,
      "duration": 0.0915,
      "velocity": 1,
      "chip": "ym2612"
    },
    {
      "channel": 3,
      "note": 74,
      "start": 27.2509,
      "duration": 0.0766,
      "velocity": 106,
      "chip": "ym2612"
    },
    {
      "channel": 2,
      "note": 73,
      "start": 27.253,
      "duration": 0.0908,
      "velocity": 1,
      "chip": "ym2612"
    },
    {
      "channel": 3,
      "note": 73,
      "start": 27.3461,
      "duration": 0.0771,
      "velocity": 106,
      "chip": "ym2612"
    },
    {
      "channel": 2,
      "note": 103,
      "start": 27.3482,
      "duration": 0.0914,
      "velocity": 1,
      "chip": "ym2612"
    },
    {
      "channel": 3,
      "note": 66,
      "start": 27.4419,
      "duration": 0.0771,
      "velocity": 106,
      "chip": "ym2612"
    },
    {
      "channel": 2,
      "note": 64,
      "start": 27.4438,
      "duration": 0.0914,
      "velocity": 1,
      "chip": "ym2612"
    },
    {
      "channel": 3,
      "note": 73,
      "start": 27.5376,
      "duration": 0.0931,
      "velocity": 106,
      "chip": "ym2612"
    },
    {
      "channel": 2,
      "note": 64,
      "start": 27.5395,
      "duration": 0.1078,
      "velocity": 1,
      "chip": "ym2612"
    },
    {
      "channel": 0,
      "note": 73,
      "start": 27.6466,
      "duration": 0.3506,
      "velocity": 111,
      "chip": "ym2612"
    },
    {
      "channel": 3,
      "note": 74,
      "start": 27.65,
      "duration": 0.0763,
      "velocity": 106,
      "chip": "ym2612"
    },
    {
      "channel": 2,
      "note": 26,
      "start": 27.6524,
      "duration": 0.0429,
      "velocity": 120,
      "chip": "ym2612"
    },
    {
      "channel": 3,
      "note": 73,
      "start": 27.7449,
      "duration": 0.0771,
      "velocity": 106,
      "chip": "ym2612"
    },
    {
      "channel": 4,
      "note": 73,
      "start": 27.7455,
      "duration": 0.3661,
      "velocity": 111,
      "chip": "ym2612"
    },
    {
      "channel": 2,
      "note": 26,
      "start": 27.7473,
      "duration": 0.0431,
      "velocity": 1,
      "chip": "ym2612"
    },
    {
      "channel": 2,
      "note": 103,
      "start": 27.7942,
      "duration": 0.0441,
      "velocity": 1,
      "chip": "ym2612"
    },
    {
      "channel": 3,
      "note": 66,
      "start": 27.8406,
      "duration": 0.0771,
      "velocity": 106,
      "chip": "ym2612"
    },
    {
      "channel": 2,
      "note": 103,
      "start": 27.8426,
      "duration": 0.0914,
      "velocity": 1,
      "chip": "ym2612"
    },
    {
      "channel": 3,
      "note": 73,
      "start": 27.9363,
      "duration": 0.0775,
      "velocity": 106,
      "chip": "ym2612"
    },
    {
      "channel": 2,
      "note": 103,
      "start": 27.9383,
      "duration": 0.0914,
      "velocity": 1,
      "chip": "ym2612"
    },
    {
      "channel": 0,
      "note": 80,
      "start": 28.0134,
      "duration": 0.3985,
      "velocity": 111,
      "chip": "ym2612"
    },
    {
      "channel": 3,
      "note": 74,
      "start": 28.0325,
      "duration": 0.0926,
      "velocity": 106,
      "chip": "ym2612"
    },
    {
      "channel": 2,
      "note": 73,
      "start": 28.0346,
      "duration": 0.0429,
      "velocity": 1,
      "chip": "ym2612"
    },
    {
      "channel": 2,
      "note": 73,
      "start": 28.0814,
      "duration": 0.028,
      "velocity": 1,
      "chip": "ym2612"
    },
    {
      "channel": 2,
      "note": 73,
      "start": 28.1133,
      "duration": 0.028,
      "velocity": 1,
      "chip": "ym2612"
    },
    {
      "channel": 4,
      "note": 80,
      "start": 28.1256,
      "duration": 0.3825,
      "velocity": 111,
      "chip": "ym2612"
    },
    {
      "channel": 3,
      "note": 73,
      "start": 28.1437,
      "duration": 0.077,
      "velocity": 106,
      "chip": "ym2612"
    },
    {
      "channel": 2,
      "note": 73,
      "start": 28.1457,
      "duration": 0.0913,
      "velocity": 1,
      "chip": "ym2612"
    },
    {
      "channel": 3,
      "note": 66,
      "start": 28.2394,
      "duration": 0.0771,
      "velocity": 106,
      "chip": "ym2612"
    },
    {
      "channel": 2,
      "note": 103,
      "start": 28.2413,
      "duration": 0.0915,
      "velocity": 1,
      "chip": "ym2612"
    },
    {
      "channel": 3,
      "note": 73,
      "start": 28.3351,
      "duration": 0.0772,
      "velocity": 106,
      "chip": "ym2612"
    },
    {
      "channel": 2,
      "note": 26,
      "start": 28.337,
      "duration": 0.0437,
      "velocity": 1,
      "chip": "ym2612"
    },
    {
      "channel": 2,
      "note": 64,
      "start": 28.3844,
      "duration": 0.0449,
      "velocity": 1,
      "chip": "ym2612"
    },
    {
      "channel": 0,
      "note": 78,
      "start": 28.4281,
      "duration": 0.9571,
      "velocity": 111,
      "chip": "ym2612"
    },
    {
      "channel": 1,
      "note": 54,
      "start": 28.4287,
      "duration": 1.5791,
      "velocity": 112,
      "chip": "ym2612"
    },
    {
      "channel": 3,
      "note": 74,
      "start": 28.4325,
      "duration": 0.0754,
      "velocity": 106,
      "chip": "ym2612"
    },
    {
      "channel": 2,
      "note": 64,
      "start": 28.4352,
      "duration": 0.0411,
      "velocity": 1,
      "chip": "ym2612"
    },
    {
      "channel": 2,
      "note": 73,
      "start": 28.4801,
      "duration": 0.0441,
      "velocity": 1,
      "chip": "ym2612"
    },
    {
      "channel": 3,
      "note": 73,
      "start": 28.5265,
      "duration": 0.0931,
      "velocity": 106,
      "chip": "ym2612"
    },
    {
      "channel": 4,
      "note": 78,
      "start": 28.527,
      "duration": 0.9544,
      "velocity": 111,
      "chip": "ym2612"
    },
    {
      "channel": 5,
      "note": 54,
      "start": 28.5275,
      "duration": 1.5951,
      "velocity": 112,
      "chip": "ym2612"
    },
    {
      "channel": 2,
      "note": 77,
      "start": 28.5293,
      "duration": 0.1066,
      "velocity": 1,
      "chip": "ym2612"
    },
    {
      "channel": 3,
      "note": 66,
      "start": 28.6382,
      "duration": 0.077,
      "velocity": 106,
      "chip": "ym2612"
    },
    {
      "channel": 2,
      "note": 103,
      "start": 28.6401,
      "duration": 0.0915,
      "velocity": 1,
      "chip": "ym2612"
    },
    {
      "channel": 3,
      "note": 73,
      "start": 28.7339,
      "duration": 0.077,
      "velocity": 106,
      "chip": "ym2612"
    },
    {
      "channel": 2,
      "note": 103,
      "start": 28.7359,
      "duration": 0.0914,
      "velocity": 1,
      "chip": "ym2612"
    },
    {
      "channel": 3,
      "note": 74,
      "start": 28.8299,
      "duration": 0.0767,
      "velocity": 106,
      "chip": "ym2612"
    },
    {
      "channel": 2,
      "note": 73,
      "start": 28.8321,
      "duration": 0.0908,
      "velocity": 1,
      "chip": "ym2612"
    },
    {
      "channel": 3,
      "note": 73,
      "start": 28.9253,
      "duration": 0.0771,
      "velocity": 106,
      "chip": "ym2612"
    },
    {
      "channel": 2,
      "note": 103,
      "start": 28.9272,
      "duration": 0.0915,
      "velocity": 1,
      "chip": "ym2612"
    },
    {
      "channel": 3,
      "note": 66,
      "start": 29.021,
      "duration": 0.0931,
      "velocity": 106,
      "chip": "ym2612"
    },
    {
      "channel": 2,
      "note": 64,
      "start": 29.0229,
      "duration": 0.1074,
      "velocity": 1,
      "chip": "ym2612"
    },
    {
      "channel": 3,
      "note": 73,
      "start": 29.1327,
      "duration": 0.077,
      "velocity": 106,
      "chip": "ym2612"
    },
    {
      "channel": 2,
      "note": 64,
      "start": 29.1346,
      "duration": 0.0913,
      "velocity": 1,
      "chip": "ym2612"
    },
    {
      "channel": 3,
      "note": 74,
      "start": 29.2287,
      "duration": 0.0768,
      "velocity": 106,
      "chip": "ym2612"
    },
    {
      "channel": 2,
      "note": 26,
      "start": 29.2307,
      "duration": 0.0436,
      "velocity": 120,
      "chip": "ym2612"
    },
    {
      "channel": 3,
      "note": 73,
      "start": 29.3241,
      "duration": 0.0771,
      "velocity": 106,
      "chip": "ym2612"
    },
    {
      "channel": 2,
      "note": 26,
      "start": 29.3259,
      "duration": 0.0437,
      "velocity": 1,
      "chip": "ym2612"
    },
    {
      "channel": 2,
      "note": 103,
      "start": 29.3732,
      "duration": 0.0441,
      "velocity": 1,
      "chip": "ym2612"
    },
    {
      "channel": 0,
      "note": 78,
      "start": 29.3852,
      "duration": 0.6058,
      "velocity": 111,
      "chip": "ym2612"
    },
    {
      "channel": 3,
      "note": 66,
      "start": 29.4198,
      "duration": 0.0771,
      "velocity": 106,
      "chip": "ym2612"
    },
    {
      "channel": 2,
      "note": 103,
      "start": 29.4217,
      "duration": 0.0914,
      "velocity": 1,
      "chip": "ym2612"
    },
    {
      "channel": 4,
      "note": 78,
      "start": 29.4814,
      "duration": 0.6058,
      "velocity": 111,
      "chip": "ym2612"
    },
    {
      "channel": 3,
      "note": 73,
      "start": 29.5156,
      "duration": 0.0929,
      "velocity": 106,
      "chip": "ym2612"
    },
    {
      "channel": 2,
      "note": 103,
      "start": 29.5175,
      "duration": 0.1073,
      "velocity": 1,
      "chip": "ym2612"
    },
    {
      "channel": 3,
      "note": 74,
      "start": 29.6275,
      "duration": 0.0768,
      "velocity": 106,
      "chip": "ym2612"
    },
    {
      "channel": 2,
      "note": 73,
      "start": 29.6295,
      "duration": 0.0271,
      "velocity": 1,
      "chip": "ym2612"
    },
    {
      "channel": 2,
      "note": 73,
      "start": 29.6603,
      "duration": 0.0283,
      "velocity": 1,
      "chip": "ym2612"
    },
    {
      "channel": 2,
      "note": 73,
      "start": 29.6923,
      "duration": 0.0282,
      "velocity": 1,
      "chip": "ym2612"
    },
    {
      "channel": 3,
      "note": 73,
      "start": 29.7228,
      "duration": 0.0771,
      "velocity": 106,
      "chip": "ym2612"
    },
    {
      "channel": 2,
      "note": 73,
      "start": 29.7247,
      "duration": 0.0915,
      "velocity": 1,
      "chip": "ym2612"
    },
    {
      "channel": 3,
      "note": 66,
      "start": 29.8185,
      "duration": 0.077,
      "velocity": 106,
      "chip": "ym2612"
    },
    {
      "channel": 2,
      "note": 103,
      "start": 29.8205,
      "duration": 0.0914,
      "velocity": 1,
      "chip": "ym2612"
    },
    {
      "channel": 3,
      "note": 73,
      "start": 29.9142,
      "duration": 0.0772,
      "velocity": 106,
      "chip": "ym2612"
    },
    {
      "channel": 2,
      "note": 26,
      "start": 29.9161,
      "duration": 0.0436,
      "velocity": 1,
      "chip": "ym2612"
    },
    {
      "channel": 2,
      "note": 64,
      "start": 29.9634,
      "duration": 0.0449,
      "velocity": 1,
      "chip": "ym2612"
    },
    {
      "channel": 0,
      "note": 85,
      "start": 30.0073,
      "duration": 0.574,
      "velocity": 111,
      "chip": "ym2612"
    },
    {
      "channel": 1,
      "note": 54,
      "start": 30.0078,
      "duration": 1.5787,
      "velocity": 112,
      "chip": "ym2612"
    },
    {
      "channel": 3,
      "note": 74,
      "start": 30.0115,
      "duration": 0.0754,
      "velocity": 106,
      "chip": "ym2612"
    },
    {
      "channel": 2,
      "note": 64,
      "start": 30.0142,
      "duration": 0.0412,
      "velocity": 1,
      "chip": "ym2612"
    },
    {
      "channel": 2,
      "note": 73,
      "start": 30.0593,
      "duration": 0.06,
      "velocity": 1,
      "chip": "ym2612"
    },
    {
      "channel": 3,
      "note": 73,
      "start": 30.1216,
      "duration": 0.0771,
      "velocity": 106,
      "chip": "ym2612"
    },
    {
      "channel": 4,
      "note": 85,
      "start": 30.122,
      "duration": 0.5713,
      "velocity": 111,
      "chip": "ym2612"
    },
    {
      "channel": 5,
      "note": 54,
      "start": 30.1226,
      "duration": 1.5788,
      "velocity": 112,
      "chip": "ym2612"
    },
    {
      "channel": 2,
      "note": 77,
      "start": 30.1243,
      "duration": 0.0907,
      "velocity": 1,
      "chip": "ym2612"
    },
    {
      "channel": 3,
      "note": 66,
      "start": 30.2173,
      "duration": 0.077,
      "velocity": 106,
      "chip": "ym2612"
    },
    {
      "channel": 2,
      "note": 103,
      "start": 30.2193,
      "duration": 0.0914,
      "velocity": 1,
      "chip": "ym2612"
    },
    {
      "channel": 3,
      "note": 73,
      "start": 30.313,
      "duration": 0.0771,
      "velocity": 106,
      "chip": "ym2612"
    },
    {
      "channel": 2,
      "note": 103,
      "start": 30.315,
      "duration": 0.0913,
      "velocity": 1,
      "chip": "ym2612"
    },
    {
      "channel": 3,
      "note": 74,
      "start": 30.409,
      "duration": 0.0768,
      "velocity": 106,
      "chip": "ym2612"
    },
    {
      "channel": 2,
      "note": 73,
      "start": 30.4112,
      "duration": 0.0909,
      "velocity": 1,
      "chip": "ym2612"
    },
    {
      "channel": 3,
      "note": 73,
      "start": 30.5044,
      "duration": 0.0772,
      "velocity": 106,
      "chip": "ym2612"
    },
    {
      "channel": 2,
      "note": 103,
      "start": 30.5063,
      "duration": 0.0919,
      "velocity": 1,
      "chip": "ym2612"
    },
    {
      "channel": 0,
      "note": 83,
      "start": 30.5974,
      "duration": 0.3666,
      "velocity": 111,
      "chip": "ym2612"
    },
    {
      "channel": 3,
      "note": 66,
      "start": 30.6005,
      "duration": 0.0926,
      "velocity": 106,
      "chip": "ym2612"
    },
    {
      "channel": 2,
      "note": 64,
      "start": 30.6028,
      "duration": 0.1066,
      "velocity": 1,
      "chip": "ym2612"
    },
    {
      "channel": 3,
      "note": 73,
      "start": 30.7117,
      "duration": 0.0771,
      "velocity": 106,
      "chip": "ym2612"
    },
    {
      "channel": 4,
      "note": 83,
      "start": 30.7122,
      "duration": 0.3479,
      "velocity": 111,
      "chip": "ym2612"
    },
    {
      "channel": 2,
      "note": 64,
      "start": 30.7141,
      "duration": 0.091,
      "velocity": 1,
      "chip": "ym2612"
    },
    {
      "channel": 3,
      "note": 74,
      "start": 30.8078,
      "duration": 0.0768,
      "velocity": 106,
      "chip": "ym2612"
    },
    {
      "channel": 2,
      "note": 26,
      "start": 30.8098,
      "duration": 0.0436,
      "velocity": 120,
      "chip": "ym2612"
    },
    {
      "channel": 3,
      "note": 73,
      "start": 30.9032,
      "duration": 0.0775,
      "velocity": 106,
      "chip": "ym2612"
    },
    {
      "channel": 2,
      "note": 26,
      "start": 30.905,
      "duration": 0.0438,
      "velocity": 1,
      "chip": "ym2612"
    },
    {
      "channel": 2,
      "note": 103,
      "start": 30.9524,
      "duration": 0.0441,
      "velocity": 1,
      "chip": "ym2612"
    },
    {
      "channel": 0,
      "note": 80,
      "start": 30.9802,
      "duration": 0.3985,
      "velocity": 111,
      "chip": "ym2612"
    },
    {
      "channel": 3,
      "note": 66,
      "start": 30.999,
      "duration": 0.077,
      "velocity": 106,
      "chip": "ym2612"
    },
    {
      "channel": 2,
      "note": 103,
      "start": 31.0009,
      "duration": 0.0913,
      "velocity": 1,
      "chip": "ym2612"
    },
    {
      "channel": 4,
      "note": 80,
      "start": 31.0765,
      "duration": 0.3984,
      "velocity": 111,
      "chip": "ym2612"
    },
    {
      "channel": 3,
      "note": 73,
      "start": 31.0946,
      "duration": 0.0931,
      "velocity": 106,
      "chip": "ym2612"
    },
    {
      "channel": 2,
      "note": 103,
      "start": 31.0965,
      "duration": 0.1073,
      "velocity": 1,
      "chip": "ym2612"
    },
    {
      "channel": 3,
      "note": 74,
      "start": 31.2066,
      "duration": 0.0767,
      "velocity": 106,
      "chip": "ym2612"
    },
    {
      "channel": 2,
      "note": 73,
      "start": 31.2087,
      "duration": 0.0271,
      "velocity": 1,
      "chip": "ym2612"
    },
    {
      "channel": 2,
      "note": 73,
      "start": 31.2395,
      "duration": 0.0282,
      "velocity": 1,
      "chip": "ym2612"
    },
    {
      "channel": 2,
      "note": 73,
      "start": 31.2713,
      "duration": 0.0283,
      "velocity": 1,
      "chip": "ym2612"
    },
    {
      "channel": 3,
      "note": 73,
      "start": 31.302,
      "duration": 0.0772,
      "velocity": 106,
      "chip": "ym2612"
    },
    {
      "channel": 2,
      "note": 73,
      "start": 31.3039,
      "duration": 0.0918,
      "velocity": 1,
      "chip": "ym2612"
    },
    {
      "channel": 0,
      "note": 81,
      "start": 31.395,
      "duration": 0.5579,
      "velocity": 111,
      "chip": "ym2612"
    },
    {
      "channel": 3,
      "note": 66,
      "start": 31.3981,
      "duration": 0.0766,
      "velocity": 106,
      "chip": "ym2612"
    },
    {
      "channel": 2,
      "note": 103,
      "start": 31.4003,
      "duration": 0.0907,
      "velocity": 1,
      "chip": "ym2612"
    },
    {
      "channel": 3,
      "note": 73,
      "start": 31.4934,
      "duration": 0.0771,
      "velocity": 106,
      "chip": "ym2612"
    },
    {
      "channel": 4,
      "note": 81,
      "start": 31.4938,
      "duration": 0.5553,
      "velocity": 111,
      "chip": "ym2612"
    },
    {
      "channel": 2,
      "note": 26,
      "start": 31.4957,
      "duration": 0.0431,
      "velocity": 1,
      "chip": "ym2612"
    },
    {
      "channel": 2,
      "note": 64,
      "start": 31.5427,
      "duration": 0.0444,
      "velocity": 1,
      "chip": "ym2612"
    },
    {
      "channel": 1,
      "note": 54,
      "start": 31.5865,
      "duration": 1.5629,
      "velocity": 112,
      "chip": "ym2612"
    },
    {
      "channel": 3,
      "note": 74,
      "start": 31.5903,
      "duration": 0.0918,
      "velocity": 106,
      "chip": "ym2612"
    },
    {
      "channel": 2,
      "note": 26,
      "start": 31.5926,
      "duration": 0.026,
      "velocity": 1,
      "chip": "ym2612"
    },
    {
      "channel": 2,
      "note": 26,
      "start": 31.6222,
      "duration": 0.0446,
      "velocity": 120,
      "chip": "ym2612"
    },
    {
      "channel": 3,
      "note": 73,
      "start": 31.7007,
      "duration": 0.0771,
      "velocity": 106,
      "chip": "ym2612"
    },
    {
      "channel": 5,
      "note": 54,
      "start": 31.7014,
      "duration": 1.5602,
      "velocity": 112,
      "chip": "ym2612"
    },
    {
      "channel": 2,
      "note": 64,
      "start": 31.7031,
      "duration": 0.091,
      "velocity": 1,
      "chip": "ym2612"
    },
    {
      "channel": 3,
      "note": 66,
      "start": 31.7964,
      "duration": 0.0771,
      "velocity": 106,
      "chip": "ym2612"
    },
    {
      "channel": 2,
      "note": 73,
      "start": 31.7984,
      "duration": 0.0913,
      "velocity": 1,
      "chip": "ym2612"
    },
    {
      "channel": 3,
      "note": 73,
      "start": 31.8921,
      "duration": 0.0775,
      "velocity": 106,
      "chip": "ym2612"
    },
    {
      "channel": 2,
      "note": 103,
      "start": 31.894,
      "duration": 0.0915,
      "velocity": 1,
      "chip": "ym2612"
    },
    {
      "channel": 0,
      "note": 80,
      "start": 31.9692,
      "duration": 0.3985,
      "velocity": 111,
      "chip": "ym2612"
    },
    {
      "channel": 3,
      "note": 74,
      "start": 31.9881,
      "duration": 0.0768,
      "velocity": 106,
      "chip": "ym2612"
    },
    {
      "channel": 2,
      "note": 26,
      "start": 31.9903,
      "duration": 0.0436,
      "velocity": 120,
      "chip": "ym2612"
    },
    {
      "channel": 4,
      "note": 80,
      "start": 32.0655,
      "duration": 0.3983,
      "velocity": 111,
      "chip": "ym2612"
    },
    {
      "channel": 3,
      "note": 73,
      "start": 32.0836,
      "duration": 0.093,
      "velocity": 106,
      "chip": "ym2612"
    },
    {
      "channel": 2,
      "note": 103,
      "start": 32.0856,
      "duration": 0.1072,
      "velocity": 1,
      "chip": "ym2612"
    },
    {
      "channel": 3,
      "note": 66,
      "start": 32.1951,
      "duration": 0.0771,
      "velocity": 106,
      "chip": "ym2612"
    },
    {
      "channel": 2,
      "note": 73,
      "start": 32.1971,
      "duration": 0.0914,
      "velocity": 1,
      "chip": "ym2612"
    },
    {
      "channel": 3,
      "note": 73,
      "start": 32.2909,
      "duration": 0.0771,
      "velocity": 106,
      "chip": "ym2612"
    },
    {
      "channel": 2,
      "note": 103,
      "start": 32.2928,
      "duration": 0.0918,
      "velocity": 1,
      "chip": "ym2612"
    },
    {
      "channel": 0,
      "note": 76,
      "start": 32.3839,
      "duration": 0.3824,
      "velocity": 111,
      "chip": "ym2612"
    },
    {
      "channel": 3,
      "note": 74,
      "start": 32.3873,
      "duration": 0.0763,
      "velocity": 106,
      "chip": "ym2612"
    },
    {
      "channel": 2,
      "note": 64,
      "start": 32.3897,
      "duration": 0.0903,
      "velocity": 1,
      "chip": "ym2612"
    },
    {
      "channel": 3,
      "note": 73,
      "start": 32.4824,
      "duration": 0.077,
      "velocity": 106,
      "chip": "ym2612"
    },
    {
      "channel": 4,
      "note": 76,
      "start": 32.4829,
      "duration": 0.3798,
      "velocity": 111,
      "chip": "ym2612"
    },
    {
      "channel": 2,
      "note": 103,
      "start": 32.4847,
      "duration": 0.0909,
      "velocity": 1,
      "chip": "ym2612"
    },
    {
      "channel": 3,
      "note": 66,
      "start": 32.578,
      "duration": 0.0931,
      "velocity": 106,
      "chip": "ym2612"
    },
    {
      "channel": 2,
      "note": 103,
      "start": 32.5799,
      "duration": 0.1074,
      "velocity": 1,
      "chip": "ym2612"
    },
    {
      "channel": 3,
      "note": 73,
      "start": 32.6896,
      "duration": 0.0772,
      "velocity": 106,
      "chip": "ym2612"
    },
    {
      "channel": 2,
      "note": 103,
      "start": 32.6916,
      "duration": 0.0918,
      "velocity": 1,
      "chip": "ym2612"
    },
    {
      "channel": 0,
      "note": 78,
      "start": 32.7827,
      "duration": 0.3665,
      "velocity": 111,
      "chip": "ym2612"
    },
    {
      "channel": 3,
      "note": 74,
      "start": 32.786,
      "duration": 0.0764,
      "velocity": 106,
      "chip": "ym2612"
    },
    {
      "channel": 2,
      "note": 64,
      "start": 32.7885,
      "duration": 0.0265,
      "velocity": 1,
      "chip": "ym2612"
    },
    {
      "channel": 2,
      "note": 73,
      "start": 32.8187,
      "duration": 0.028,
      "velocity": 1,
      "chip": "ym2612"
    },
    {
      "channel": 2,
      "note": 64,
      "start": 32.8507,
      "duration": 0.028,
      "velocity": 1,
      "chip": "ym2612"
    },
    {
      "channel": 3,
      "note": 73,
      "start": 32.881,
      "duration": 0.0771,
      "velocity": 106,
      "chip": "ym2612"
    },
    {
      "channel": 4,
      "note": 78,
      "start": 32.8816,
      "duration": 0.3798,
      "velocity": 111,
      "chip": "ym2612"
    },
    {
      "channel": 2,
      "note": 64,
      "start": 32.8835,
      "duration": 0.0909,
      "velocity": 1,
      "chip": "ym2612"
    },
    {
      "channel": 3,
      "note": 66,
      "start": 32.9768,
      "duration": 0.0771,
      "velocity": 106,
      "chip": "ym2612"
    },
    {
      "channel": 2,
      "note": 26,
      "start": 32.9786,
      "duration": 0.0441,
      "velocity": 120,
      "chip": "ym2612"
    },
    {
      "channel": 3,
      "note": 73,
      "start": 33.0724,
      "duration": 0.0772,
      "velocity": 106,
      "chip": "ym2612"
    },
    {
      "channel": 2,
      "note": 26,
      "start": 33.0743,
      "duration": 0.0441,
      "velocity": 120,
      "chip": "ym2612"
    },
    {
      "channel": 0,
      "note": 73,
      "start": 33.1815,
      "duration": 1.3554,
      "velocity": 111,
      "chip": "ym2612"
    },
    {
      "channel": 1,
      "note": 52,
      "start": 33.1822,
      "duration": 1.5788,
      "velocity": 112,
      "chip": "ym2612"
    },
    {
      "channel": 3,
      "note": 74,
      "start": 33.186,
      "duration": 0.0752,
      "velocity": 106,
      "chip": "ym2612"
    },
    {
      "channel": 2,
      "note": 64,
      "start": 33.1886,
      "duration": 0.041,
      "velocity": 1,
      "chip": "ym2612"
    },
    {
      "channel": 2,
      "note": 73,
      "start": 33.2335,
      "duration": 0.044,
      "velocity": 1,
      "chip": "ym2612"
    },
    {
      "channel": 3,
      "note": 73,
      "start": 33.2798,
      "duration": 0.0771,
      "velocity": 106,
      "chip": "ym2612"
    },
    {
      "channel": 4,
      "note": 73,
      "start": 33.2803,
      "duration": 1.3529,
      "velocity": 111,
      "chip": "ym2612"
    },
    {
      "channel": 5,
      "note": 52,
      "start": 33.281,
      "duration": 1.5789,
      "velocity": 112,
      "chip": "ym2612"
    },
    {
      "channel": 2,
      "note": 77,
      "start": 33.2829,
      "duration": 0.0903,
      "velocity": 1,
      "chip": "ym2612"
    },
    {
      "channel": 3,
      "note": 66,
      "start": 33.3755,
      "duration": 0.0771,
      "velocity": 106,
      "chip": "ym2612"
    },
    {
      "channel": 2,
      "note": 103,
      "start": 33.3775,
      "duration": 0.0914,
      "velocity": 1,
      "chip": "ym2612"
    },
    {
      "channel": 3,
      "note": 73,
      "start": 33.4712,
      "duration": 0.0772,
      "velocity": 106,
      "chip": "ym2612"
    },
    {
      "channel": 2,
      "note": 103,
      "start": 33.4731,
      "duration": 0.0915,
      "velocity": 1,
      "chip": "ym2612"
    },
    {
      "channel": 3,
      "note": 74,
      "start": 33.5673,
      "duration": 0.0766,
      "velocity": 106,
      "chip": "ym2612"
    },
    {
      "channel": 2,
      "note": 73,
      "start": 33.5694,
      "duration": 0.0908,
      "velocity": 1,
      "chip": "ym2612"
    },
    {
      "channel": 3,
      "note": 73,
      "start": 33.6626,
      "duration": 0.093,
      "velocity": 106,
      "chip": "ym2612"
    },
    {
      "channel": 2,
      "note": 103,
      "start": 33.6646,
      "duration": 0.1073,
      "velocity": 1,
      "chip": "ym2612"
    },
    {
      "channel": 3,
      "note": 66,
      "start": 33.7743,
      "duration": 0.0771,
      "velocity": 106,
      "chip": "ym2612"
    },
    {
      "channel": 2,
      "note": 64,
      "start": 33.7762,
      "duration": 0.0915,
      "velocity": 1,
      "chip": "ym2612"
    },
    {
      "channel": 3,
      "note": 73,
      "start": 33.87,
      "duration": 0.0771,
      "velocity": 106,
      "chip": "ym2612"
    },
    {
      "channel": 2,
      "note": 64,
      "start": 33.8719,
      "duration": 0.0914,
      "velocity": 1,
      "chip": "ym2612"
    },
    {
      "channel": 3,
      "note": 74,
      "start": 33.9661,
      "duration": 0.0767,
      "velocity": 106,
      "chip": "ym2612"
    },
    {
      "channel": 2,
      "note": 26,
      "start": 33.9682,
      "duration": 0.0434,
      "velocity": 120,
      "chip": "ym2612"
    },
    {
      "channel": 3,
      "note": 73,
      "start": 34.0614,
      "duration": 0.0771,
      "velocity": 106,
      "chip": "ym2612"
    },
    {
      "channel": 2,
      "note": 26,
      "start": 34.0633,
      "duration": 0.0436,
      "velocity": 1,
      "chip": "ym2612"
    },
    {
      "channel": 2,
      "note": 103,
      "start": 34.1106,
      "duration": 0.0441,
      "velocity": 1,
      "chip": "ym2612"
    },
    {
      "channel": 3,
      "note": 66,
      "start": 34.1571,
      "duration": 0.093,
      "velocity": 106,
      "chip": "ym2612"
    },
    {
      "channel": 2,
      "note": 103,
      "start": 34.159,
      "duration": 0.1074,
      "velocity": 1,
      "chip": "ym2612"
    },
    {
      "channel": 3,
      "note": 73,
      "start": 34.2687,
      "duration": 0.0771,
      "velocity": 106,
      "chip": "ym2612"
    },
    {
      "channel": 2,
      "note": 103,
      "start": 34.2706,
      "duration": 0.0915,
      "velocity": 1,
      "chip": "ym2612"
    },
    {
      "channel": 3,
      "note": 74,
      "start": 34.3649,
      "duration": 0.0767,
      "velocity": 106,
      "chip": "ym2612"
    },
    {
      "channel": 2,
      "note": 73,
      "start": 34.367,
      "duration": 0.027,
      "velocity": 1,
      "chip": "ym2612"
    },
    {
      "channel": 2,
      "note": 73,
      "start": 34.3977,
      "duration": 0.0282,
      "velocity": 1,
      "chip": "ym2612"
    },
    {
      "channel": 2,
      "note": 73,
      "start": 34.4296,
      "duration": 0.0282,
      "velocity": 1,
      "chip": "ym2612"
    },
    {
      "channel": 3,
      "note": 73,
      "start": 34.4602,
      "duration": 0.0771,
      "velocity": 106,
      "chip": "ym2612"
    },
    {
      "channel": 2,
      "note": 73,
      "start": 34.4621,
      "duration": 0.0919,
      "velocity": 1,
      "chip": "ym2612"
    },
    {
      "channel": 0,
      "note": 71,
      "start": 34.5532,
      "duration": 0.0794,
      "velocity": 111,
      "chip": "ym2612"
    },
    {
      "channel": 3,
      "note": 66,
      "start": 34.5562,
      "duration": 0.0768,
      "velocity": 106,
      "chip": "ym2612"
    },
    {
      "channel": 2,
      "note": 103,
      "start": 34.5584,
      "duration": 0.0912,
      "velocity": 1,
      "chip": "ym2612"
    },
    {
      "channel": 0,
      "note": 73,
      "start": 34.6489,
      "duration": 0.0954,
      "velocity": 111,
      "chip": "ym2612"
    },
    {
      "channel": 3,
      "note": 73,
      "start": 34.652,
      "duration": 0.0927,
      "velocity": 106,
      "chip": "ym2612"
    },
    {
      "channel": 4,
      "note": 71,
      "start": 34.6524,
      "duration": 0.0925,
      "velocity": 111,
      "chip": "ym2612"
    },
    {
      "channel": 2,
      "note": 26,
      "start": 34.6545,
      "duration": 0.0432,
      "velocity": 120,
      "chip": "ym2612"
    },
    {
      "channel": 2,
      "note": 64,
      "start": 34.7169,
      "duration": 0.0447,
      "velocity": 1,
      "chip": "ym2612"
    },
    {
      "channel": 0,
      "note": 76,
      "start": 34.7605,
      "duration": 0.5899,
      "velocity": 111,
      "chip": "ym2612"
    },
    {
      "channel": 1,
      "note": 52,
      "start": 34.761,
      "duration": 1.5788,
      "velocity": 112,
      "chip": "ym2612"
    },
    {
      "channel": 3,
      "note": 74,
      "start": 34.7649,
      "duration": 0.0754,
      "velocity": 106,
      "chip": "ym2612"
    },
    {
      "channel": 4,
      "note": 73,
      "start": 34.7654,
      "duration": 0.0751,
      "velocity": 111,
      "chip": "ym2612"
    },
    {
      "channel": 2,
      "note": 64,
      "start": 34.768,
      "duration": 0.0407,
      "velocity": 1,
      "chip": "ym2612"
    },
    {
      "channel": 2,
      "note": 73,
      "start": 34.8125,
      "duration": 0.0441,
      "velocity": 1,
      "chip": "ym2612"
    },
    {
      "channel": 3,
      "note": 73,
      "start": 34.8589,
      "duration": 0.0771,
      "velocity": 106,
      "chip": "ym2612"
    },
    {
      "channel": 4,
      "note": 76,
      "start": 34.8594,
      "duration": 0.59,
      "velocity": 111,
      "chip": "ym2612"
    },
    {
      "channel": 5,
      "note": 52,
      "start": 34.8599,
      "duration": 1.5787,
      "velocity": 112,
      "chip": "ym2612"
    },
    {
      "channel": 2,
      "note": 77,
      "start": 34.8617,
      "duration": 0.0906,
      "velocity": 1,
      "chip": "ym2612"
    },
    {
      "channel": 3,
      "note": 66,
      "start": 34.9546,
      "duration": 0.0772,
      "velocity": 106,
      "chip": "ym2612"
    },
    {
      "channel": 2,
      "note": 103,
      "start": 34.9565,
      "duration": 0.0915,
      "velocity": 1,
      "chip": "ym2612"
    },
    {
      "channel": 3,
      "note": 73,
      "start": 35.0504,
      "duration": 0.077,
      "velocity": 106,
      "chip": "ym2612"
    },
    {
      "channel": 2,
      "note": 103,
      "start": 35.0523,
      "duration": 0.0914,
      "velocity": 1,
      "chip": "ym2612"
    },
    {
      "channel": 3,
      "note": 74,
      "start": 35.1463,
      "duration": 0.0927,
      "velocity": 106,
      "chip": "ym2612"
    },
    {
      "channel": 2,
      "note": 73,
      "start": 35.1486,
      "duration": 0.1067,
      "velocity": 1,
      "chip": "ym2612"
    },
    {
      "channel": 3,
      "note": 73,
      "start": 35.2577,
      "duration": 0.0771,
      "velocity": 106,
      "chip": "ym2612"
    },
    {
      "channel": 2,
      "note": 103,
      "start": 35.2596,
      "duration": 0.0915,
      "velocity": 1,
      "chip": "ym2612"
    },
    {
      "channel": 3,
      "note": 66,
      "start": 35.3535,
      "duration": 0.077,
      "velocity": 106,
      "chip": "ym2612"
    },
    {
      "channel": 2,
      "note": 64,
      "start": 35.3554,
      "duration": 0.0914,
      "velocity": 1,
      "chip": "ym2612"
    },
    {
      "channel": 0,
      "note": 83,
      "start": 35.3667,
      "duration": 0.3666,
      "velocity": 111,
      "chip": "ym2612"
    },
    {
      "channel": 3,
      "note": 73,
      "start": 35.4491,
      "duration": 0.077,
      "velocity": 106,
      "chip": "ym2612"
    },
    {
      "channel": 2,
      "note": 64,
      "start": 35.4512,
      "duration": 0.0912,
      "velocity": 1,
      "chip": "ym2612"
    },
    {
      "channel": 4,
      "note": 83,
      "start": 35.4628,
      "duration": 0.3666,
      "velocity": 111,
      "chip": "ym2612"
    },
    {
      "channel": 3,
      "note": 74,
      "start": 35.5451,
      "duration": 0.0767,
      "velocity": 106,
      "chip": "ym2612"
    },
    {
      "channel": 2,
      "note": 26,
      "start": 35.5472,
      "duration": 0.0436,
      "velocity": 120,
      "chip": "ym2612"
    },
    {
      "channel": 3,
      "note": 73,
      "start": 35.6405,
      "duration": 0.0931,
      "velocity": 106,
      "chip": "ym2612"
    },
    {
      "channel": 2,
      "note": 26,
      "start": 35.6423,
      "duration": 0.0437,
      "velocity": 1,
      "chip": "ym2612"
    },
    {
      "channel": 2,
      "note": 103,
      "start": 35.6897,
      "duration": 0.0605,
      "velocity": 1,
      "chip": "ym2612"
    },
    {
      "channel": 0,
      "note": 81,
      "start": 35.7495,
      "duration": 0.3506,
      "velocity": 111,
      "chip": "ym2612"
    },
    {
      "channel": 3,
      "note": 66,
      "start": 35.7525,
      "duration": 0.0767,
      "velocity": 106,
      "chip": "ym2612"
    },
    {
      "channel": 2,
      "note": 103,
      "start": 35.7547,
      "duration": 0.0908,
      "velocity": 1,
      "chip": "ym2612"
    },
    {
      "channel": 3,
      "note": 73,
      "start": 35.8479,
      "duration": 0.077,
      "velocity": 106,
      "chip": "ym2612"
    },
    {
      "channel": 4,
      "note": 81,
      "start": 35.8484,
      "duration": 0.3478,
      "velocity": 111,
      "chip": "ym2612"
    },
    {
      "channel": 2,
      "note": 103,
      "start": 35.8503,
      "duration": 0.0909,
      "velocity": 1,
      "chip": "ym2612"
    },
    {
      "channel": 3,
      "note": 74,
      "start": 35.9439,
      "duration": 0.0768,
      "velocity": 106,
      "chip": "ym2612"
    },
    {
      "channel": 2,
      "note": 73,
      "start": 35.946,
      "duration": 0.0271,
      "velocity": 1,
      "chip": "ym2612"
    },
    {
      "channel": 2,
      "note": 73,
      "start": 35.9768,
      "duration": 0.0282,
      "velocity": 1,
      "chip": "ym2612"
    },
    {
      "channel": 2,
      "note": 73,
      "start": 36.0087,
      "duration": 0.0283,
      "velocity": 1,
      "chip": "ym2612"
    },
    {
      "channel": 3,
      "note": 73,
      "start": 36.0393,
      "duration": 0.0774,
      "velocity": 106,
      "chip": "ym2612"
    },
    {
      "channel": 2,
      "note": 73,
      "start": 36.0412,
      "duration": 0.0918,
      "velocity": 1,
      "chip": "ym2612"
    },
    {
      "channel": 0,
      "note": 77,
      "start": 36.1164,
      "duration": 0.0159,
      "velocity": 111,
      "chip": "ym2612"
    },
    {
      "channel": 0,
      "note": 78,
      "start": 36.1323,
      "duration": 0.9727,
      "velocity": 111,
      "chip": "ym2612"
    },
    {
      "channel": 3,
      "note": 66,
      "start": 36.1353,
      "duration": 0.0767,
      "velocity": 106,
      "chip": "ym2612"
    },
    {
      "channel": 2,
      "note": 103,
      "start": 36.1376,
      "duration": 0.1067,
      "velocity": 1,
      "chip": "ym2612"
    },
    {
      "channel": 4,
      "note": 77,
      "start": 36.2126,
      "duration": 0.0157,
      "velocity": 111,
      "chip": "ym2612"
    },
    {
      "channel": 3,
      "note": 73,
      "start": 36.2466,
      "duration": 0.0771,
      "velocity": 106,
      "chip": "ym2612"
    },
    {
      "channel": 4,
      "note": 78,
      "start": 36.2471,
      "duration": 0.9541,
      "velocity": 111,
      "chip": "ym2612"
    },
    {
      "channel": 2,
      "note": 26,
      "start": 36.249,
      "duration": 0.0431,
      "velocity": 1,
      "chip": "ym2612"
    },
    {
      "channel": 2,
      "note": 64,
      "start": 36.2959,
      "duration": 0.0445,
      "velocity": 1,
      "chip": "ym2612"
    },
    {
      "channel": 1,
      "note": 52,
      "start": 36.3398,
      "duration": 1.5795,
      "velocity": 112,
      "chip": "ym2612"
    },
    {
      "channel": 3,
      "note": 74,
      "start": 36.3436,
      "duration": 0.0758,
      "velocity": 106,
      "chip": "ym2612"
    },
    {
      "channel": 2,
      "note": 64,
      "start": 36.346,
      "duration": 0.0419,
      "velocity": 1,
      "chip": "ym2612"
    },
    {
      "channel": 2,
      "note": 73,
      "start": 36.3915,
      "duration": 0.0441,
      "velocity": 1,
      "chip": "ym2612"
    },
    {
      "channel": 3,
      "note": 73,
      "start": 36.438,
      "duration": 0.0772,
      "velocity": 106,
      "chip": "ym2612"
    },
    {
      "channel": 5,
      "note": 52,
      "start": 36.4386,
      "duration": 1.5796,
      "velocity": 112,
      "chip": "ym2612"
    },
    {
      "channel": 2,
      "note": 77,
      "start": 36.4403,
      "duration": 0.0912,
      "velocity": 1,
      "chip": "ym2612"
    },
    {
      "channel": 3,
      "note": 66,
      "start": 36.5338,
      "duration": 0.077,
      "velocity": 106,
      "chip": "ym2612"
    },
    {
      "channel": 2,
      "note": 103,
      "start": 36.5357,
      "duration": 0.0914,
      "velocity": 1,
      "chip": "ym2612"
    },
    {
      "channel": 3,
      "note": 73,
      "start": 36.6294,
      "duration": 0.0771,
      "velocity": 106,
      "chip": "ym2612"
    },
    {
      "channel": 2,
      "note": 103,
      "start": 36.6314,
      "duration": 0.0914,
      "velocity": 1,
      "chip": "ym2612"
    },
    {
      "channel": 3,
      "note": 74,
      "start": 36.7255,
      "duration": 0.0927,
      "velocity": 106,
      "chip": "ym2612"
    },
    {
      "channel": 2,
      "note": 73,
      "start": 36.7276,
      "duration": 0.1069,
      "velocity": 1,
      "chip": "ym2612"
    },
    {
      "channel": 3,
      "note": 73,
      "start": 36.8368,
      "duration": 0.0771,
      "velocity": 106,
      "chip": "ym2612"
    },
    {
      "channel": 2,
      "note": 103,
      "start": 36.8387,
      "duration": 0.0914,
      "velocity": 1,
      "chip": "ym2612"
    },
    {
      "channel": 3,
      "note": 66,
      "start": 36.9325,
      "duration": 0.077,
      "velocity": 106,
      "chip": "ym2612"
    },
    {
      "channel": 2,
      "note": 64,
      "start": 36.9344,
      "duration": 0.0914,
      "velocity": 1,
      "chip": "ym2612"
    },
    {
      "channel": 3,
      "note": 73,
      "start": 37.0282,
      "duration": 0.0772,
      "velocity": 106,
      "chip": "ym2612"
    },
    {
      "channel": 2,
      "note": 64,
      "start": 37.0301,
      "duration": 0.0918,
      "velocity": 1,
      "chip": "ym2612"
    },
    {
      "channel": 0,
      "note": 85,
      "start": 37.1212,
      "duration": 0.2868,
      "velocity": 111,
      "chip": "ym2612"
    },
    {
      "channel": 3,
      "note": 74,
      "start": 37.1246,
      "duration": 0.0764,
      "velocity": 106,
      "chip": "ym2612"
    },
    {
      "channel": 2,
      "note": 26,
      "start": 37.1269,
      "duration": 0.043,
      "velocity": 120,
      "chip": "ym2612"
    },
    {
      "channel": 3,
      "note": 73,
      "start": 37.2196,
      "duration": 0.093,
      "velocity": 106,
      "chip": "ym2612"
    },
    {
      "channel": 4,
      "note": 85,
      "start": 37.2201,
      "duration": 0.2842,
      "velocity": 111,
      "chip": "ym2612"
    },
    {
      "channel": 2,
      "note": 26,
      "start": 37.2219,
      "duration": 0.0438,
      "velocity": 120,
      "chip": "ym2612"
    },
    {
      "channel": 2,
      "note": 103,
      "start": 37.2848,
      "duration": 0.0441,
      "velocity": 1,
      "chip": "ym2612"
    },
    {
      "channel": 3,
      "note": 66,
      "start": 37.3313,
      "duration": 0.0771,
      "velocity": 106,
      "chip": "ym2612"
    },
    {
      "channel": 2,
      "note": 103,
      "start": 37.3332,
      "duration": 0.0917,
      "velocity": 1,
      "chip": "ym2612"
    },
    {
      "channel": 0,
      "note": 83,
      "start": 37.4243,
      "duration": 0.2708,
      "velocity": 111,
      "chip": "ym2612"
    },
    {
      "channel": 3,
      "note": 73,
      "start": 37.4273,
      "duration": 0.0767,
      "velocity": 106,
      "chip": "ym2612"
    },
    {
      "channel": 2,
      "note": 103,
      "start": 37.4295,
      "duration": 0.0908,
      "velocity": 1,
      "chip": "ym2612"
    },
    {
      "channel": 3,
      "note": 74,
      "start": 37.523,
      "duration": 0.0767,
      "velocity": 106,
      "chip": "ym2612"
    },
    {
      "channel": 4,
      "note": 83,
      "start": 37.5235,
      "duration": 0.2838,
      "velocity": 111,
      "chip": "ym2612"
    },
    {
      "channel": 2,
      "note": 73,
      "start": 37.5255,
      "duration": 0.0267,
      "velocity": 1,
      "chip": "ym2612"
    },
    {
      "channel": 2,
      "note": 73,
      "start": 37.556,
      "duration": 0.0281,
      "velocity": 1,
      "chip": "ym2612"
    },
    {
      "channel": 2,
      "note": 73,
      "start": 37.5879,
      "duration": 0.0281,
      "velocity": 1,
      "chip": "ym2612"
    },
    {
      "channel": 3,
      "note": 73,
      "start": 37.6183,
      "duration": 0.0772,
      "velocity": 106,
      "chip": "ym2612"
    },
    {
      "channel": 2,
      "note": 73,
      "start": 37.6203,
      "duration": 0.0919,
      "velocity": 1,
      "chip": "ym2612"
    },
    {
      "channel": 0,
      "note": 78,
      "start": 37.7114,
      "duration": 0.1911,
      "velocity": 111,
      "chip": "ym2612"
    },
    {
      "channel": 3,
      "note": 66,
      "start": 37.7145,
      "duration": 0.0926,
      "velocity": 106,
      "chip": "ym2612"
    },
    {
      "channel": 2,
      "note": 103,
      "start": 37.7167,
      "duration": 0.1067,
      "velocity": 1,
      "chip": "ym2612"
    },
    {
      "channel": 3,
      "note": 73,
      "start": 37.8257,
      "duration": 0.0772,
      "velocity": 106,
      "chip": "ym2612"
    },
    {
      "channel": 4,
      "note": 78,
      "start": 37.8262,
      "duration": 0.1725,
      "velocity": 111,
      "chip": "ym2612"
    },
    {
      "channel": 2,
      "note": 26,
      "start": 37.8281,
      "duration": 0.0431,
      "velocity": 1,
      "chip": "ym2612"
    },
    {
      "channel": 2,
      "note": 64,
      "start": 37.875,
      "duration": 0.0449,
      "velocity": 1,
      "chip": "ym2612"
    },
    {
      "channel": 0,
      "note": 85,
      "start": 37.9188,
      "duration": 1.3555,
      "velocity": 111,
      "chip": "ym2612"
    },
    {
      "channel": 1,
      "note": 52,
      "start": 37.9193,
      "duration": 1.5625,
      "velocity": 112,
      "chip": "ym2612"
    },
    {
      "channel": 3,
      "note": 74,
      "start": 37.9231,
      "duration": 0.0754,
      "velocity": 106,
      "chip": "ym2612"
    },
    {
      "channel": 2,
      "note": 26,
      "start": 37.9257,
      "duration": 0.0253,
      "velocity": 1,
      "chip": "ym2612"
    },
    {
      "channel": 2,
      "note": 26,
      "start": 37.9547,
      "duration": 0.0448,
      "velocity": 120,
      "chip": "ym2612"
    },
    {
      "channel": 3,
      "note": 73,
      "start": 38.0172,
      "duration": 0.077,
      "velocity": 106,
      "chip": "ym2612"
    },
    {
      "channel": 4,
      "note": 85,
      "start": 38.0177,
      "duration": 1.3688,
      "velocity": 111,
      "chip": "ym2612"
    },
    {
      "channel": 5,
      "note": 52,
      "start": 38.0182,
      "duration": 1.5599,
      "velocity": 112,
      "chip": "ym2612"
    },
    {
      "channel": 2,
      "note": 64,
      "start": 38.02,
      "duration": 0.0905,
      "velocity": 1,
      "chip": "ym2612"
    },
    {
      "channel": 3,
      "note": 66,
      "start": 38.1128,
      "duration": 0.0771,
      "velocity": 106,
      "chip": "ym2612"
    },
    {
      "channel": 2,
      "note": 73,
      "start": 38.1148,
      "duration": 0.0914,
      "velocity": 1,
      "chip": "ym2612"
    },
    {
      "channel": 3,
      "note": 73,
      "start": 38.2085,
      "duration": 0.093,
      "velocity": 106,
      "chip": "ym2612"
    },
    {
      "channel": 2,
      "note": 103,
      "start": 38.2105,
      "duration": 0.1074,
      "velocity": 1,
      "chip": "ym2612"
    },
    {
      "channel": 3,
      "note": 74,
      "start": 38.3205,
      "duration": 0.0768,
      "velocity": 106,
      "chip": "ym2612"
    },
    {
      "channel": 2,
      "note": 26,
      "start": 38.3226,
      "duration": 0.0436,
      "velocity": 120,
      "chip": "ym2612"
    },
    {
      "channel": 3,
      "note": 73,
      "start": 38.4159,
      "duration": 0.077,
      "velocity": 106,
      "chip": "ym2612"
    },
    {
      "channel": 2,
      "note": 103,
      "start": 38.4178,
      "duration": 0.0914,
      "velocity": 1,
      "chip": "ym2612"
    },
    {
      "channel": 3,
      "note": 66,
      "start": 38.5116,
      "duration": 0.0771,
      "velocity": 106,
      "chip": "ym2612"
    },
    {
      "channel": 2,
      "note": 73,
      "start": 38.5135,
      "duration": 0.0914,
      "velocity": 1,
      "chip": "ym2612"
    },
    {
      "channel": 3,
      "note": 73,
      "start": 38.6073,
      "duration": 0.0771,
      "velocity": 106,
      "chip": "ym2612"
    },
    {
      "channel": 2,
      "note": 103,
      "start": 38.6092,
      "duration": 0.0915,
      "velocity": 1,
      "chip": "ym2612"
    },
    {
      "channel": 3,
      "note": 74,
      "start": 38.7033,
      "duration": 0.0927,
      "velocity": 106,
      "chip": "ym2612"
    },
    {
      "channel": 2,
      "note": 64,
      "start": 38.7054,
      "duration": 0.1069,
      "velocity": 1,
      "chip": "ym2612"
    },
    {
      "channel": 3,
      "note": 73,
      "start": 38.8147,
      "duration": 0.077,
      "velocity": 106,
      "chip": "ym2612"
    },
    {
      "channel": 2,
      "note": 103,
      "start": 38.8166,
      "duration": 0.0914,
      "velocity": 1,
      "chip": "ym2612"
    },
    {
      "channel": 3,
      "note": 66,
      "start": 38.9103,
      "duration": 0.0771,
      "velocity": 106,
      "chip": "ym2612"
    },
    {
      "channel": 2,
      "note": 103,
      "start": 38.9123,
      "duration": 0.0914,
      "velocity": 1,
      "chip": "ym2612"
    },
    {
      "channel": 3,
      "note": 73,
      "start": 39.0061,
      "duration": 0.0771,
      "velocity": 106,
      "chip": "ym2612"
    },
    {
      "channel": 2,
      "note": 103,
      "start": 39.008,
      "duration": 0.0914,
      "velocity": 1,
      "chip": "ym2612"
    },
    {
      "channel": 3,
      "note": 74,
      "start": 39.1021,
      "duration": 0.0767,
      "velocity": 106,
      "chip": "ym2612"
    },
    {
      "channel": 2,
      "note": 64,
      "start": 39.1042,
      "duration": 0.0272,
      "velocity": 1,
      "chip": "ym2612"
    },
    {
      "channel": 2,
      "note": 73,
      "start": 39.1351,
      "duration": 0.0281,
      "velocity": 1,
      "chip": "ym2612"
    },
    {
      "channel": 2,
      "note": 64,
      "start": 39.167,
      "duration": 0.0281,
      "velocity": 1,
      "chip": "ym2612"
    },
    {
      "channel": 3,
      "note": 73,
      "start": 39.1975,
      "duration": 0.0772,
      "velocity": 106,
      "chip": "ym2612"
    },
    {
      "channel": 2,
      "note": 64,
      "start": 39.1995,
      "duration": 0.1077,
      "velocity": 1,
      "chip": "ym2612"
    },
    {
      "channel": 0,
      "note": 71,
      "start": 39.3065,
      "duration": 0.0795,
      "velocity": 111,
      "chip": "ym2612"
    },
    {
      "channel": 3,
      "note": 66,
      "start": 39.3095,
      "duration": 0.0768,
      "velocity": 106,
      "chip": "ym2612"
    },
    {
      "channel": 2,
      "note": 26,
      "start": 39.3117,
      "duration": 0.0435,
      "velocity": 120,
      "chip": "ym2612"
    },
    {
      "channel": 0,
      "note": 73,
      "start": 39.4022,
      "duration": 0.0794,
      "velocity": 111,
      "chip": "ym2612"
    },
    {
      "channel": 3,
      "note": 73,
      "start": 39.4052,
      "duration": 0.0769,
      "velocity": 106,
      "chip": "ym2612"
    },
    {
      "channel": 4,
      "note": 71,
      "start": 39.4057,
      "duration": 0.0766,
      "velocity": 111,
      "chip": "ym2612"
    },
    {
      "channel": 2,
      "note": 26,
      "start": 39.4077,
      "duration": 0.0431,
      "velocity": 120,
      "chip": "ym2612"
    },
    {
      "channel": 0,
      "note": 80,
      "start": 39.4979,
      "duration": 0.5579,
      "velocity": 111,
      "chip": "ym2612"
    },
    {
      "channel": 1,
      "note": 50,
      "start": 39.4986,
      "duration": 1.5789,
      "velocity": 112,
      "chip": "ym2612"
    },
    {
      "channel": 3,
      "note": 74,
      "start": 39.5024,
      "duration": 0.0752,
      "velocity": 106,
      "chip": "ym2612"
    },
    {
      "channel": 4,
      "note": 73,
      "start": 39.5029,
      "duration": 0.0749,
      "velocity": 111,
      "chip": "ym2612"
    },
    {
      "channel": 2,
      "note": 64,
      "start": 39.5055,
      "duration": 0.0405,
      "velocity": 1,
      "chip": "ym2612"
    },
    {
      "channel": 2,
      "note": 73,
      "start": 39.5499,
      "duration": 0.0439,
      "velocity": 1,
      "chip": "ym2612"
    },
    {
      "channel": 3,
      "note": 73,
      "start": 39.5962,
      "duration": 0.0771,
      "velocity": 106,
      "chip": "ym2612"
    },
    {
      "channel": 4,
      "note": 80,
      "start": 39.5967,
      "duration": 0.5552,
      "velocity": 111,
      "chip": "ym2612"
    },
    {
      "channel": 5,
      "note": 50,
      "start": 39.5974,
      "duration": 1.5789,
      "velocity": 112,
      "chip": "ym2612"
    },
    {
      "channel": 2,
      "note": 77,
      "start": 39.5993,
      "duration": 0.0903,
      "velocity": 1,
      "chip": "ym2612"
    },
    {
      "channel": 3,
      "note": 66,
      "start": 39.692,
      "duration": 0.0771,
      "velocity": 106,
      "chip": "ym2612"
    },
    {
      "channel": 2,
      "note": 103,
      "start": 39.6939,
      "duration": 0.0914,
      "velocity": 1,
      "chip": "ym2612"
    },
    {
      "channel": 3,
      "note": 73,
      "start": 39.7876,
      "duration": 0.0931,
      "velocity": 106,
      "chip": "ym2612"
    },
    {
      "channel": 2,
      "note": 103,
      "start": 39.7895,
      "duration": 0.1074,
      "velocity": 1,
      "chip": "ym2612"
    },
    {
      "channel": 3,
      "note": 74,
      "start": 39.8997,
      "duration": 0.0767,
      "velocity": 106,
      "chip": "ym2612"
    },
    {
      "channel": 2,
      "note": 73,
      "start": 39.9018,
      "duration": 0.0908,
      "velocity": 1,
      "chip": "ym2612"
    },
    {
      "channel": 3,
      "note": 73,
      "start": 39.995,
      "duration": 0.0775,
      "velocity": 106,
      "chip": "ym2612"
    },
    {
      "channel": 2,
      "note": 103,
      "start": 39.9969,
      "duration": 0.0914,
      "velocity": 1,
      "chip": "ym2612"
    },
    {
      "channel": 0,
      "note": 78,
      "start": 40.0721,
      "duration": 0.1911,
      "velocity": 111,
      "chip": "ym2612"
    },
    {
      "channel": 3,
      "note": 66,
      "start": 40.0907,
      "duration": 0.0771,
      "velocity": 106,
      "chip": "ym2612"
    },
    {
      "channel": 2,
      "note": 64,
      "start": 40.0927,
      "duration": 0.0913,
      "velocity": 1,
      "chip": "ym2612"
    },
    {
      "channel": 4,
      "note": 78,
      "start": 40.1683,
      "duration": 0.2071,
      "velocity": 111,
      "chip": "ym2612"
    },
    {
      "channel": 3,
      "note": 73,
      "start": 40.1864,
      "duration": 0.0772,
      "velocity": 106,
      "chip": "ym2612"
    },
    {
      "channel": 2,
      "note": 64,
      "start": 40.1885,
      "duration": 0.0917,
      "velocity": 1,
      "chip": "ym2612"
    },
    {
      "channel": 0,
      "note": 73,
      "start": 40.2795,
      "duration": 0.5898,
      "velocity": 111,
      "chip": "ym2612"
    },
    {
      "channel": 3,
      "note": 74,
      "start": 40.2829,
      "duration": 0.0922,
      "velocity": 106,
      "chip": "ym2612"
    },
    {
      "channel": 2,
      "note": 26,
      "start": 40.2853,
      "duration": 0.0429,
      "velocity": 120,
      "chip": "ym2612"
    },
    {
      "channel": 3,
      "note": 73,
      "start": 40.3937,
      "duration": 0.0771,
      "velocity": 106,
      "chip": "ym2612"
    },
    {
      "channel": 4,
      "note": 73,
      "start": 40.3942,
      "duration": 0.5713,
      "velocity": 111,
      "chip": "ym2612"
    },
    {
      "channel": 2,
      "note": 26,
      "start": 40.3961,
      "duration": 0.0432,
      "velocity": 1,
      "chip": "ym2612"
    },
    {
      "channel": 2,
      "note": 103,
      "start": 40.443,
      "duration": 0.0441,
      "velocity": 1,
      "chip": "ym2612"
    },
    {
      "channel": 3,
      "note": 66,
      "start": 40.4895,
      "duration": 0.0771,
      "velocity": 106,
      "chip": "ym2612"
    },
    {
      "channel": 2,
      "note": 103,
      "start": 40.4914,
      "duration": 0.0915,
      "velocity": 1,
      "chip": "ym2612"
    },
    {
      "channel": 3,
      "note": 73,
      "start": 40.5851,
      "duration": 0.0771,
      "velocity": 106,
      "chip": "ym2612"
    },
    {
      "channel": 2,
      "note": 103,
      "start": 40.5871,
      "duration": 0.0914,
      "velocity": 1,
      "chip": "ym2612"
    },
    {
      "channel": 3,
      "note": 74,
      "start": 40.6813,
      "duration": 0.0766,
      "velocity": 106,
      "chip": "ym2612"
    },
    {
      "channel": 2,
      "note": 73,
      "start": 40.6834,
      "duration": 0.027,
      "velocity": 1,
      "chip": "ym2612"
    },
    {
      "channel": 2,
      "note": 73,
      "start": 40.7141,
      "duration": 0.0283,
      "velocity": 1,
      "chip": "ym2612"
    },
    {
      "channel": 2,
      "note": 73,
      "start": 40.746,
      "duration": 0.0282,
      "velocity": 1,
      "chip": "ym2612"
    },
    {
      "channel": 3,
      "note": 73,
      "start": 40.7766,
      "duration": 0.0931,
      "velocity": 106,
      "chip": "ym2612"
    },
    {
      "channel": 2,
      "note": 73,
      "start": 40.7785,
      "duration": 0.1078,
      "velocity": 1,
      "chip": "ym2612"
    },
    {
      "channel": 0,
      "note": 71,
      "start": 40.8856,
      "duration": 0.0795,
      "velocity": 111,
      "chip": "ym2612"
    },
    {
      "channel": 3,
      "note": 66,
      "start": 40.8886,
      "duration": 0.0768,
      "velocity": 106,
      "chip": "ym2612"
    },
    {
      "channel": 2,
      "note": 103,
      "start": 40.8908,
      "duration": 0.0912,
      "velocity": 1,
      "chip": "ym2612"
    },
    {
      "channel": 0,
      "note": 73,
      "start": 40.9813,
      "duration": 0.0794,
      "velocity": 111,
      "chip": "ym2612"
    },
    {
      "channel": 3,
      "note": 73,
      "start": 40.9844,
      "duration": 0.0767,
      "velocity": 106,
      "chip": "ym2612"
    },
    {
      "channel": 4,
      "note": 71,
      "start": 40.9849,
      "duration": 0.0764,
      "velocity": 111,
      "chip": "ym2612"
    },
    {
      "channel": 2,
      "note": 26,
      "start": 40.9869,
      "duration": 0.0425,
      "velocity": 1,
      "chip": "ym2612"
    },
    {
      "channel": 2,
      "note": 64,
      "start": 41.0333,
      "duration": 0.0447,
      "velocity": 1,
      "chip": "ym2612"
    },
    {
      "channel": 0,
      "note": 79,
      "start": 41.077,
      "duration": 0.0156,
      "velocity": 111,
      "chip": "ym2612"
    },
    {
      "channel": 1,
      "note": 50,
      "start": 41.0775,
      "duration": 1.5791,
      "velocity": 112,
      "chip": "ym2612"
    },
    {
      "channel": 3,
      "note": 74,
      "start": 41.0813,
      "duration": 0.0754,
      "velocity": 106,
      "chip": "ym2612"
    },
    {
      "channel": 4,
      "note": 73,
      "start": 41.0818,
      "duration": 0.0751,
      "velocity": 111,
      "chip": "ym2612"
    },
    {
      "channel": 2,
      "note": 64,
      "start": 41.0844,
      "duration": 0.0407,
      "velocity": 1,
      "chip": "ym2612"
    },
    {
      "channel": 0,
      "note": 80,
      "start": 41.1089,
      "duration": 0.542,
      "velocity": 111,
      "chip": "ym2612"
    },
    {
      "channel": 2,
      "note": 73,
      "start": 41.1289,
      "duration": 0.0441,
      "velocity": 1,
      "chip": "ym2612"
    },
    {
      "channel": 3,
      "note": 73,
      "start": 41.1754,
      "duration": 0.0771,
      "velocity": 106,
      "chip": "ym2612"
    },
    {
      "channel": 4,
      "note": 79,
      "start": 41.1759,
      "duration": 0.0129,
      "velocity": 111,
      "chip": "ym2612"
    },
    {
      "channel": 5,
      "note": 50,
      "start": 41.1763,
      "duration": 1.5791,
      "velocity": 112,
      "chip": "ym2612"
    },
    {
      "channel": 2,
      "note": 77,
      "start": 41.1781,
      "duration": 0.0906,
      "velocity": 1,
      "chip": "ym2612"
    },
    {
      "channel": 4,
      "note": 80,
      "start": 41.2051,
      "duration": 0.542,
      "velocity": 111,
      "chip": "ym2612"
    },
    {
      "channel": 3,
      "note": 66,
      "start": 41.271,
      "duration": 0.0931,
      "velocity": 106,
      "chip": "ym2612"
    },
    {
      "channel": 2,
      "note": 103,
      "start": 41.273,
      "duration": 0.1074,
      "velocity": 1,
      "chip": "ym2612"
    },
    {
      "channel": 3,
      "note": 73,
      "start": 41.3828,
      "duration": 0.077,
      "velocity": 106,
      "chip": "ym2612"
    },
    {
      "channel": 2,
      "note": 103,
      "start": 41.3847,
      "duration": 0.0914,
      "velocity": 1,
      "chip": "ym2612"
    },
    {
      "channel": 3,
      "note": 74,
      "start": 41.4787,
      "duration": 0.0768,
      "velocity": 106,
      "chip": "ym2612"
    },
    {
      "channel": 2,
      "note": 73,
      "start": 41.4809,
      "duration": 0.0909,
      "velocity": 1,
      "chip": "ym2612"
    },
    {
      "channel": 3,
      "note": 73,
      "start": 41.5741,
      "duration": 0.0772,
      "velocity": 106,
      "chip": "ym2612"
    },
    {
      "channel": 2,
      "note": 103,
      "start": 41.5761,
      "duration": 0.0918,
      "velocity": 1,
      "chip": "ym2612"
    },
    {
      "channel": 0,
      "note": 78,
      "start": 41.6671,
      "duration": 0.1911,
      "velocity": 111,
      "chip": "ym2612"
    },
    {
      "channel": 3,
      "note": 66,
      "start": 41.6702,
      "duration": 0.0767,
      "velocity": 106,
      "chip": "ym2612"
    },
    {
      "channel": 2,
      "note": 64,
      "start": 41.6724,
      "duration": 0.0907,
      "velocity": 1,
      "chip": "ym2612"
    },
    {
      "channel": 3,
      "note": 73,
      "start": 41.7656,
      "duration": 0.0931,
      "velocity": 106,
      "chip": "ym2612"
    },
    {
      "channel": 4,
      "note": 78,
      "start": 41.7661,
      "duration": 0.1884,
      "velocity": 111,
      "chip": "ym2612"
    },
    {
      "channel": 2,
      "note": 64,
      "start": 41.768,
      "duration": 0.1072,
      "velocity": 1,
      "chip": "ym2612"
    },
    {
      "channel": 0,
      "note": 80,
      "start": 41.8745,
      "duration": 0.2708,
      "velocity": 111,
      "chip": "ym2612"
    },
    {
      "channel": 3,
      "note": 74,
      "start": 41.8779,
      "duration": 0.0763,
      "velocity": 106,
      "chip": "ym2612"
    },
    {
      "channel": 2,
      "note": 26,
      "start": 41.8802,
      "duration": 0.0429,
      "velocity": 120,
      "chip": "ym2612"
    },
    {
      "channel": 3,
      "note": 73,
      "start": 41.9729,
      "duration": 0.0771,
      "velocity": 106,
      "chip": "ym2612"
    },
    {
      "channel": 4,
      "note": 80,
      "start": 41.9734,
      "duration": 0.2682,
      "velocity": 111,
      "chip": "ym2612"
    },
    {
      "channel": 2,
      "note": 26,
      "start": 41.9752,
      "duration": 0.0431,
      "velocity": 1,
      "chip": "ym2612"
    },
    {
      "channel": 2,
      "note": 103,
      "start": 42.0222,
      "duration": 0.0441,
      "velocity": 1,
      "chip": "ym2612"
    },
    {
      "channel": 3,
      "note": 66,
      "start": 42.0685,
      "duration": 0.0772,
      "velocity": 106,
      "chip": "ym2612"
    },
    {
      "channel": 2,
      "note": 103,
      "start": 42.0705,
      "duration": 0.0918,
      "velocity": 1,
      "chip": "ym2612"
    },
    {
      "channel": 0,
      "note": 81,
      "start": 42.1616,
      "duration": 0.2868,
      "velocity": 111,
      "chip": "ym2612"
    },
    {
      "channel": 3,
      "note": 73,
      "start": 42.1647,
      "duration": 0.0766,
      "velocity": 106,
      "chip": "ym2612"
    },
    {
      "channel": 2,
      "note": 103,
      "start": 42.167,
      "duration": 0.0907,
      "velocity": 1,
      "chip": "ym2612"
    },
    {
      "channel": 3,
      "note": 74,
      "start": 42.2603,
      "duration": 0.0767,
      "velocity": 106,
      "chip": "ym2612"
    },
    {
      "channel": 4,
      "note": 81,
      "start": 42.2608,
      "duration": 0.2838,
      "velocity": 111,
      "chip": "ym2612"
    },
    {
      "channel": 2,
      "note": 73,
      "start": 42.2629,
      "duration": 0.0267,
      "velocity": 1,
      "chip": "ym2612"
    },
    {
      "channel": 2,
      "note": 73,
      "start": 42.2934,
      "duration": 0.0281,
      "velocity": 1,
      "chip": "ym2612"
    },
    {
      "channel": 2,
      "note": 73,
      "start": 42.3252,
      "duration": 0.0441,
      "velocity": 1,
      "chip": "ym2612"
    },
    {
      "channel": 3,
      "note": 73,
      "start": 42.3717,
      "duration": 0.0772,
      "velocity": 106,
      "chip": "ym2612"
    },
    {
      "channel": 2,
      "note": 73,
      "start": 42.3736,
      "duration": 0.0919,
      "velocity": 1,
      "chip": "ym2612"
    },
    {
      "channel": 0,
      "note": 83,
      "start": 42.4647,
      "duration": 0.1751,
      "velocity": 111,
      "chip": "ym2612"
    },
    {
      "channel": 3,
      "note": 66,
      "start": 42.4678,
      "duration": 0.0767,
      "velocity": 106,
      "chip": "ym2612"
    },
    {
      "channel": 2,
      "note": 103,
      "start": 42.47,
      "duration": 0.0907,
      "velocity": 1,
      "chip": "ym2612"
    },
    {
      "channel": 3,
      "note": 73,
      "start": 42.5631,
      "duration": 0.0771,
      "velocity": 106,
      "chip": "ym2612"
    },
    {
      "channel": 4,
      "note": 83,
      "start": 42.5635,
      "duration": 0.1725,
      "velocity": 111,
      "chip": "ym2612"
    },
    {
      "channel": 2,
      "note": 26,
      "start": 42.5655,
      "duration": 0.0431,
      "velocity": 1,
      "chip": "ym2612"
    },
    {
      "channel": 2,
      "note": 64,
      "start": 42.6124,
      "duration": 0.0448,
      "velocity": 1,
      "chip": "ym2612"
    },
    {
      "channel": 0,
      "note": 80,
      "start": 42.6561,
      "duration": 0.6696,
      "velocity": 111,
      "chip": "ym2612"
    },
    {
      "channel": 1,
      "note": 50,
      "start": 42.6566,
      "duration": 1.5788,
      "velocity": 112,
      "chip": "ym2612"
    },
    {
      "channel": 3,
      "note": 74,
      "start": 42.6604,
      "duration": 0.0754,
      "velocity": 106,
      "chip": "ym2612"
    },
    {
      "channel": 2,
      "note": 64,
      "start": 42.6631,
      "duration": 0.0412,
      "velocity": 1,
      "chip": "ym2612"
    },
    {
      "channel": 2,
      "note": 73,
      "start": 42.708,
      "duration": 0.0441,
      "velocity": 1,
      "chip": "ym2612"
    },
    {
      "channel": 3,
      "note": 73,
      "start": 42.7544,
      "duration": 0.0772,
      "velocity": 106,
      "chip": "ym2612"
    },
    {
      "channel": 4,
      "note": 80,
      "start": 42.7549,
      "duration": 0.683,
      "velocity": 111,
      "chip": "ym2612"
    },
    {
      "channel": 5,
      "note": 50,
      "start": 42.7554,
      "duration": 1.5788,
      "velocity": 112,
      "chip": "ym2612"
    },
    {
      "channel": 2,
      "note": 77,
      "start": 42.7572,
      "duration": 0.0907,
      "velocity": 1,
      "chip": "ym2612"
    },
    {
      "channel": 3,
      "note": 66,
      "start": 42.8502,
      "duration": 0.093,
      "velocity": 106,
      "chip": "ym2612"
    },
    {
      "channel": 2,
      "note": 103,
      "start": 42.8521,
      "duration": 0.1073,
      "velocity": 1,
      "chip": "ym2612"
    },
    {
      "channel": 3,
      "note": 73,
      "start": 42.9618,
      "duration": 0.0771,
      "velocity": 106,
      "chip": "ym2612"
    },
    {
      "channel": 2,
      "note": 103,
      "start": 42.9637,
      "duration": 0.0915,
      "velocity": 1,
      "chip": "ym2612"
    },
    {
      "channel": 3,
      "note": 74,
      "start": 43.0579,
      "duration": 0.0767,
      "velocity": 106,
      "chip": "ym2612"
    },
    {
      "channel": 2,
      "note": 73,
      "start": 43.06,
      "duration": 0.0909,
      "velocity": 1,
      "chip": "ym2612"
    },
    {
      "channel": 3,
      "note": 73,
      "start": 43.1532,
      "duration": 0.0771,
      "velocity": 106,
      "chip": "ym2612"
    },
    {
      "channel": 2,
      "note": 103,
      "start": 43.1551,
      "duration": 0.0915,
      "velocity": 1,
      "chip": "ym2612"
    },
    {
      "channel": 3,
      "note": 66,
      "start": 43.249,
      "duration": 0.077,
      "velocity": 106,
      "chip": "ym2612"
    },
    {
      "channel": 2,
      "note": 64,
      "start": 43.2509,
      "duration": 0.0917,
      "velocity": 1,
      "chip": "ym2612"
    },
    {
      "channel": 0,
      "note": 76,
      "start": 43.342,
      "duration": 0.0156,
      "velocity": 111,
      "chip": "ym2612"
    },
    {
      "channel": 3,
      "note": 73,
      "start": 43.345,
      "duration": 0.0927,
      "velocity": 106,
      "chip": "ym2612"
    },
    {
      "channel": 2,
      "note": 64,
      "start": 43.3472,
      "duration": 0.1071,
      "velocity": 1,
      "chip": "ym2612"
    },
    {
      "channel": 0,
      "note": 77,
      "start": 43.3898,
      "duration": 0.0156,
      "velocity": 111,
      "chip": "ym2612"
    },
    {
      "channel": 0,
      "note": 77,
      "start": 43.4217,
      "duration": 0.0156,
      "velocity": 111,
      "chip": "ym2612"
    },
    {
      "channel": 0,
      "note": 78,
      "start": 43.4537,
      "duration": 1.5628,
      "velocity": 111,
      "chip": "ym2612"
    },
    {
      "channel": 3,
      "note": 74,
      "start": 43.457,
      "duration": 0.0763,
      "velocity": 106,
      "chip": "ym2612"
    },
    {
      "channel": 4,
      "note": 76,
      "start": 43.4575,
      "duration": 0.0122,
      "velocity": 111,
      "chip": "ym2612"
    },
    {
      "channel": 2,
      "note": 26,
      "start": 43.4598,
      "duration": 0.0426,
      "velocity": 120,
      "chip": "ym2612"
    },
    {
      "channel": 4,
      "note": 77,
      "start": 43.486,
      "duration": 0.0156,
      "velocity": 111,
      "chip": "ym2612"
    },
    {
      "channel": 4,
      "note": 77,
      "start": 43.5178,
      "duration": 0.0157,
      "velocity": 111,
      "chip": "ym2612"
    },
    {
      "channel": 3,
      "note": 73,
      "start": 43.552,
      "duration": 0.0771,
      "velocity": 106,
      "chip": "ym2612"
    },
    {
      "channel": 4,
      "note": 78,
      "start": 43.5524,
      "duration": 1.5602,
      "velocity": 111,
      "chip": "ym2612"
    },
    {
      "channel": 2,
      "note": 26,
      "start": 43.5543,
      "duration": 0.0432,
      "velocity": 1,
      "chip": "ym2612"
    },
    {
      "channel": 2,
      "note": 103,
      "start": 43.6014,
      "duration": 0.044,
      "velocity": 1,
      "chip": "ym2612"
    },
    {
      "channel": 3,
      "note": 66,
      "start": 43.6477,
      "duration": 0.0771,
      "velocity": 106,
      "chip": "ym2612"
    },
    {
      "channel": 2,
      "note": 103,
      "start": 43.6497,
      "duration": 0.0914,
      "velocity": 1,
      "chip": "ym2612"
    },
    {
      "channel": 3,
      "note": 73,
      "start": 43.7434,
      "duration": 0.0771,
      "velocity": 106,
      "chip": "ym2612"
    },
    {
      "channel": 2,
      "note": 103,
      "start": 43.7453,
      "duration": 0.0914,
      "velocity": 1,
      "chip": "ym2612"
    },
    {
      "channel": 3,
      "note": 74,
      "start": 43.8394,
      "duration": 0.0927,
      "velocity": 106,
      "chip": "ym2612"
    },
    {
      "channel": 2,
      "note": 73,
      "start": 43.8416,
      "duration": 0.0271,
      "velocity": 1,
      "chip": "ym2612"
    },
    {
      "channel": 2,
      "note": 73,
      "start": 43.8724,
      "duration": 0.0441,
      "velocity": 1,
      "chip": "ym2612"
    },
    {
      "channel": 2,
      "note": 73,
      "start": 43.9202,
      "duration": 0.0282,
      "velocity": 1,
      "chip": "ym2612"
    },
    {
      "channel": 3,
      "note": 73,
      "start": 43.9508,
      "duration": 0.077,
      "velocity": 106,
      "chip": "ym2612"
    },
    {
      "channel": 2,
      "note": 73,
      "start": 43.9527,
      "duration": 0.0914,
      "velocity": 1,
      "chip": "ym2612"
    },
    {
      "channel": 3,
      "note": 66,
      "start": 44.0465,
      "duration": 0.0771,
      "velocity": 106,
      "chip": "ym2612"
    },
    {
      "channel": 2,
      "note": 103,
      "start": 44.0484,
      "duration": 0.0914,
      "velocity": 1,
      "chip": "ym2612"
    },
    {
      "channel": 3,
      "note": 73,
      "start": 44.1422,
      "duration": 0.0771,
      "velocity": 106,
      "chip": "ym2612"
    },
    {
      "channel": 2,
      "note": 26,
      "start": 44.144,
      "duration": 0.0437,
      "velocity": 1,
      "chip": "ym2612"
    },
    {
      "channel": 2,
      "note": 64,
      "start": 44.1914,
      "duration": 0.0445,
      "velocity": 1,
      "chip": "ym2612"
    },
    {
      "channel": 1,
      "note": 50,
      "start": 44.2353,
      "duration": 1.563,
      "velocity": 112,
      "chip": "ym2612"
    },
    {
      "channel": 3,
      "note": 74,
      "start": 44.2391,
      "duration": 0.076,
      "velocity": 106,
      "chip": "ym2612"
    },
    {
      "channel": 2,
      "note": 26,
      "start": 44.2415,
      "duration": 0.0259,
      "velocity": 1,
      "chip": "ym2612"
    },
    {
      "channel": 2,
      "note": 26,
      "start": 44.271,
      "duration": 0.0449,
      "velocity": 120,
      "chip": "ym2612"
    },
    {
      "channel": 3,
      "note": 73,
      "start": 44.3336,
      "duration": 0.093,
      "velocity": 106,
      "chip": "ym2612"
    },
    {
      "channel": 5,
      "note": 50,
      "start": 44.3343,
      "duration": 1.5602,
      "velocity": 112,
      "chip": "ym2612"
    },
    {
      "channel": 2,
      "note": 64,
      "start": 44.3359,
      "duration": 0.1069,
      "velocity": 1,
      "chip": "ym2612"
    },
    {
      "channel": 3,
      "note": 66,
      "start": 44.4452,
      "duration": 0.0771,
      "velocity": 106,
      "chip": "ym2612"
    },
    {
      "channel": 2,
      "note": 73,
      "start": 44.4471,
      "duration": 0.0915,
      "velocity": 1,
      "chip": "ym2612"
    },
    {
      "channel": 3,
      "note": 73,
      "start": 44.5409,
      "duration": 0.0771,
      "velocity": 106,
      "chip": "ym2612"
    },
    {
      "channel": 2,
      "note": 103,
      "start": 44.5428,
      "duration": 0.0914,
      "velocity": 1,
      "chip": "ym2612"
    },
    {
      "channel": 3,
      "note": 74,
      "start": 44.6369,
      "duration": 0.0768,
      "velocity": 106,
      "chip": "ym2612"
    },
    {
      "channel": 2,
      "note": 26,
      "start": 44.639,
      "duration": 0.0436,
      "velocity": 120,
      "chip": "ym2612"
    },
    {
      "channel": 3,
      "note": 73,
      "start": 44.7324,
      "duration": 0.0771,
      "velocity": 106,
      "chip": "ym2612"
    },
    {
      "channel": 2,
      "note": 103,
      "start": 44.7343,
      "duration": 0.0913,
      "velocity": 1,
      "chip": "ym2612"
    },
    {
      "channel": 3,
      "note": 66,
      "start": 44.828,
      "duration": 0.0931,
      "velocity": 106,
      "chip": "ym2612"
    },
    {
      "channel": 2,
      "note": 73,
      "start": 44.8299,
      "duration": 0.1074,
      "velocity": 1,
      "chip": "ym2612"
    },
    {
      "channel": 3,
      "note": 73,
      "start": 44.9397,
      "duration": 0.0772,
      "velocity": 106,
      "chip": "ym2612"
    },
    {
      "channel": 2,
      "note": 103,
      "start": 44.9416,
      "duration": 0.0918,
      "velocity": 1,
      "chip": "ym2612"
    },
    {
      "channel": 0,
      "note": 76,
      "start": 45.0327,
      "duration": 0.3666,
      "velocity": 111,
      "chip": "ym2612"
    },
    {
      "channel": 3,
      "note": 74,
      "start": 45.0361,
      "duration": 0.0764,
      "velocity": 106,
      "chip": "ym2612"
    },
    {
      "channel": 2,
      "note": 64,
      "start": 45.0385,
      "duration": 0.0902,
      "velocity": 1,
      "chip": "ym2612"
    },
    {
      "channel": 3,
      "note": 73,
      "start": 45.1311,
      "duration": 0.0771,
      "velocity": 106,
      "chip": "ym2612"
    },
    {
      "channel": 4,
      "note": 76,
      "start": 45.1317,
      "duration": 0.3798,
      "velocity": 111,
      "chip": "ym2612"
    },
    {
      "channel": 2,
      "note": 103,
      "start": 45.1336,
      "duration": 0.0909,
      "velocity": 1,
      "chip": "ym2612"
    },
    {
      "channel": 3,
      "note": 66,
      "start": 45.2268,
      "duration": 0.0771,
      "velocity": 106,
      "chip": "ym2612"
    },
    {
      "channel": 2,
      "note": 103,
      "start": 45.2287,
      "duration": 0.0914,
      "velocity": 1,
      "chip": "ym2612"
    },
    {
      "channel": 3,
      "note": 73,
      "start": 45.3225,
      "duration": 0.0772,
      "velocity": 106,
      "chip": "ym2612"
    },
    {
      "channel": 2,
      "note": 103,
      "start": 45.3244,
      "duration": 0.1078,
      "velocity": 1,
      "chip": "ym2612"
    },
    {
      "channel": 0,
      "note": 78,
      "start": 45.4316,
      "duration": 0.1751,
      "velocity": 111,
      "chip": "ym2612"
    },
    {
      "channel": 3,
      "note": 74,
      "start": 45.435,
      "duration": 0.0763,
      "velocity": 106,
      "chip": "ym2612"
    },
    {
      "channel": 2,
      "note": 64,
      "start": 45.4373,
      "duration": 0.0264,
      "velocity": 1,
      "chip": "ym2612"
    },
    {
      "channel": 2,
      "note": 73,
      "start": 45.4676,
      "duration": 0.028,
      "velocity": 1,
      "chip": "ym2612"
    },
    {
      "channel": 2,
      "note": 64,
      "start": 45.4995,
      "duration": 0.028,
      "velocity": 1,
      "chip": "ym2612"
    },
    {
      "channel": 3,
      "note": 73,
      "start": 45.5299,
      "duration": 0.0772,
      "velocity": 106,
      "chip": "ym2612"
    },
    {
      "channel": 4,
      "note": 78,
      "start": 45.5303,
      "duration": 0.1726,
      "velocity": 111,
      "chip": "ym2612"
    },
    {
      "channel": 2,
      "note": 64,
      "start": 45.5324,
      "duration": 0.0912,
      "velocity": 1,
      "chip": "ym2612"
    },
    {
      "channel": 0,
      "note": 71,
      "start": 45.6229,
      "duration": 0.0794,
      "velocity": 111,
      "chip": "ym2612"
    },
    {
      "channel": 3,
      "note": 66,
      "start": 45.6259,
      "duration": 0.0768,
      "velocity": 106,
      "chip": "ym2612"
    },
    {
      "channel": 2,
      "note": 26,
      "start": 45.6281,
      "duration": 0.0435,
      "velocity": 120,
      "chip": "ym2612"
    },
    {
      "channel": 0,
      "note": 73,
      "start": 45.7186,
      "duration": 0.0795,
      "velocity": 111,
      "chip": "ym2612"
    },
    {
      "channel": 3,
      "note": 73,
      "start": 45.7216,
      "duration": 0.077,
      "velocity": 106,
      "chip": "ym2612"
    },
    {
      "channel": 4,
      "note": 71,
      "start": 45.7221,
      "duration": 0.0766,
      "velocity": 111,
      "chip": "ym2612"
    },
    {
      "channel": 2,
      "note": 26,
      "start": 45.7242,
      "duration": 0.0431,
      "velocity": 120,
      "chip": "ym2612"
    },
    {
      "channel": 0,
      "note": 80,
      "start": 45.8144,
      "duration": 0.5739,
      "velocity": 111,
      "chip": "ym2612"
    },
    {
      "channel": 1,
      "note": 52,
      "start": 45.8151,
      "duration": 1.5789,
      "velocity": 112,
      "chip": "ym2612"
    },
    {
      "channel": 3,
      "note": 74,
      "start": 45.8189,
      "duration": 0.0752,
      "velocity": 106,
      "chip": "ym2612"
    },
    {
      "channel": 4,
      "note": 73,
      "start": 45.8194,
      "duration": 0.0749,
      "velocity": 111,
      "chip": "ym2612"
    },
    {
      "channel": 2,
      "note": 64,
      "start": 45.8219,
      "duration": 0.0406,
      "velocity": 1,
      "chip": "ym2612"
    },
    {
      "channel": 2,
      "note": 73,
      "start": 45.8663,
      "duration": 0.044,
      "velocity": 1,
      "chip": "ym2612"
    },
    {
      "channel": 3,
      "note": 73,
      "start": 45.9127,
      "duration": 0.093,
      "velocity": 106,
      "chip": "ym2612"
    },
    {
      "channel": 4,
      "note": 80,
      "start": 45.9131,
      "duration": 0.5872,
      "velocity": 111,
      "chip": "ym2612"
    },
    {
      "channel": 5,
      "note": 52,
      "start": 45.9138,
      "duration": 1.5949,
      "velocity": 112,
      "chip": "ym2612"
    },
    {
      "channel": 2,
      "note": 77,
      "start": 45.9157,
      "duration": 0.1063,
      "velocity": 1,
      "chip": "ym2612"
    },
    {
      "channel": 3,
      "note": 66,
      "start": 46.0243,
      "duration": 0.0771,
      "velocity": 106,
      "chip": "ym2612"
    },
    {
      "channel": 2,
      "note": 103,
      "start": 46.0262,
      "duration": 0.0915,
      "velocity": 1,
      "chip": "ym2612"
    },
    {
      "channel": 3,
      "note": 73,
      "start": 46.12,
      "duration": 0.0771,
      "velocity": 106,
      "chip": "ym2612"
    },
    {
      "channel": 2,
      "note": 103,
      "start": 46.122,
      "duration": 0.0914,
      "velocity": 1,
      "chip": "ym2612"
    },
    {
      "channel": 3,
      "note": 74,
      "start": 46.2161,
      "duration": 0.0767,
      "velocity": 106,
      "chip": "ym2612"
    },
    {
      "channel": 2,
      "note": 73,
      "start": 46.2183,
      "duration": 0.0908,
      "velocity": 1,
      "chip": "ym2612"
    },
    {
      "channel": 3,
      "note": 73,
      "start": 46.3114,
      "duration": 0.0772,
      "velocity": 106,
      "chip": "ym2612"
    },
    {
      "channel": 2,
      "note": 103,
      "start": 46.3133,
      "duration": 0.0919,
      "velocity": 1,
      "chip": "ym2612"
    },
    {
      "channel": 0,
      "note": 78,
      "start": 46.4045,
      "duration": 0.1911,
      "velocity": 111,
      "chip": "ym2612"
    },
    {
      "channel": 3,
      "note": 66,
      "start": 46.4075,
      "duration": 0.0927,
      "velocity": 106,
      "chip": "ym2612"
    },
    {
      "channel": 2,
      "note": 64,
      "start": 46.4098,
      "duration": 0.1067,
      "velocity": 1,
      "chip": "ym2612"
    },
    {
      "channel": 3,
      "note": 73,
      "start": 46.5188,
      "duration": 0.0772,
      "velocity": 106,
      "chip": "ym2612"
    },
    {
      "channel": 4,
      "note": 78,
      "start": 46.5193,
      "duration": 0.1724,
      "velocity": 111,
      "chip": "ym2612"
    },
    {
      "channel": 2,
      "note": 64,
      "start": 46.5212,
      "duration": 0.0913,
      "velocity": 1,
      "chip": "ym2612"
    },
    {
      "channel": 0,
      "note": 73,
      "start": 46.6119,
      "duration": 0.5739,
      "velocity": 111,
      "chip": "ym2612"
    },
    {
      "channel": 3,
      "note": 74,
      "start": 46.6153,
      "duration": 0.0763,
      "velocity": 106,
      "chip": "ym2612"
    },
    {
      "channel": 2,
      "note": 26,
      "start": 46.6177,
      "duration": 0.0429,
      "velocity": 120,
      "chip": "ym2612"
    },
    {
      "channel": 3,
      "note": 73,
      "start": 46.7102,
      "duration": 0.0771,
      "velocity": 106,
      "chip": "ym2612"
    },
    {
      "channel": 4,
      "note": 73,
      "start": 46.7107,
      "duration": 0.5714,
      "velocity": 111,
      "chip": "ym2612"
    },
    {
      "channel": 2,
      "note": 26,
      "start": 46.7126,
      "duration": 0.0431,
      "velocity": 1,
      "chip": "ym2612"
    },
    {
      "channel": 2,
      "note": 103,
      "start": 46.7595,
      "duration": 0.0441,
      "velocity": 1,
      "chip": "ym2612"
    },
    {
      "channel": 3,
      "note": 66,
      "start": 46.8059,
      "duration": 0.0771,
      "velocity": 106,
      "chip": "ym2612"
    },
    {
      "channel": 2,
      "note": 103,
      "start": 46.8078,
      "duration": 0.0915,
      "velocity": 1,
      "chip": "ym2612"
    },
    {
      "channel": 3,
      "note": 73,
      "start": 46.9016,
      "duration": 0.093,
      "velocity": 106,
      "chip": "ym2612"
    },
    {
      "channel": 2,
      "note": 103,
      "start": 46.9035,
      "duration": 0.1074,
      "velocity": 1,
      "chip": "ym2612"
    },
    {
      "channel": 3,
      "note": 74,
      "start": 47.0136,
      "duration": 0.0768,
      "velocity": 106,
      "chip": "ym2612"
    },
    {
      "channel": 2,
      "note": 73,
      "start": 47.0158,
      "duration": 0.027,
      "velocity": 1,
      "chip": "ym2612"
    },
    {
      "channel": 2,
      "note": 73,
      "start": 47.0465,
      "duration": 0.0282,
      "velocity": 1,
      "chip": "ym2612"
    },
    {
      "channel": 2,
      "note": 73,
      "start": 47.0784,
      "duration": 0.0282,
      "velocity": 1,
      "chip": "ym2612"
    },
    {
      "channel": 3,
      "note": 73,
      "start": 47.1089,
      "duration": 0.0772,
      "velocity": 106,
      "chip": "ym2612"
    },
    {
      "channel": 2,
      "note": 73,
      "start": 47.1109,
      "duration": 0.0918,
      "velocity": 1,
      "chip": "ym2612"
    },
    {
      "channel": 0,
      "note": 80,
      "start": 47.202,
      "duration": 0.1751,
      "velocity": 111,
      "chip": "ym2612"
    },
    {
      "channel": 3,
      "note": 66,
      "start": 47.2051,
      "duration": 0.0768,
      "velocity": 106,
      "chip": "ym2612"
    },
    {
      "channel": 2,
      "note": 103,
      "start": 47.2072,
      "duration": 0.0909,
      "velocity": 1,
      "chip": "ym2612"
    },
    {
      "channel": 3,
      "note": 73,
      "start": 47.3004,
      "duration": 0.0772,
      "velocity": 106,
      "chip": "ym2612"
    },
    {
      "channel": 4,
      "note": 80,
      "start": 47.3009,
      "duration": 0.1883,
      "velocity": 111,
      "chip": "ym2612"
    },
    {
      "channel": 2,
      "note": 26,
      "start": 47.3028,
      "duration": 0.0431,
      "velocity": 1,
      "chip": "ym2612"
    },
    {
      "channel": 2,
      "note": 64,
      "start": 47.3498,
      "duration": 0.0447,
      "velocity": 1,
      "chip": "ym2612"
    },
    {
      "channel": 0,
      "note": 81,
      "start": 47.3934,
      "duration": 0.3665,
      "velocity": 111,
      "chip": "ym2612"
    },
    {
      "channel": 1,
      "note": 52,
      "start": 47.3939,
      "duration": 1.5791,
      "velocity": 112,
      "chip": "ym2612"
    },
    {
      "channel": 3,
      "note": 74,
      "start": 47.3978,
      "duration": 0.0913,
      "velocity": 106,
      "chip": "ym2612"
    },
    {
      "channel": 2,
      "note": 64,
      "start": 47.4005,
      "duration": 0.0411,
      "velocity": 1,
      "chip": "ym2612"
    },
    {
      "channel": 2,
      "note": 73,
      "start": 47.4454,
      "duration": 0.06,
      "velocity": 1,
      "chip": "ym2612"
    },
    {
      "channel": 3,
      "note": 73,
      "start": 47.5077,
      "duration": 0.0771,
      "velocity": 106,
      "chip": "ym2612"
    },
    {
      "channel": 4,
      "note": 81,
      "start": 47.5082,
      "duration": 0.3478,
      "velocity": 111,
      "chip": "ym2612"
    },
    {
      "channel": 5,
      "note": 52,
      "start": 47.5087,
      "duration": 1.5791,
      "velocity": 112,
      "chip": "ym2612"
    },
    {
      "channel": 2,
      "note": 77,
      "start": 47.5105,
      "duration": 0.0906,
      "velocity": 1,
      "chip": "ym2612"
    },
    {
      "channel": 3,
      "note": 66,
      "start": 47.6034,
      "duration": 0.0771,
      "velocity": 106,
      "chip": "ym2612"
    },
    {
      "channel": 2,
      "note": 103,
      "start": 47.6054,
      "duration": 0.0914,
      "velocity": 1,
      "chip": "ym2612"
    },
    {
      "channel": 3,
      "note": 73,
      "start": 47.6992,
      "duration": 0.0774,
      "velocity": 106,
      "chip": "ym2612"
    },
    {
      "channel": 2,
      "note": 103,
      "start": 47.7011,
      "duration": 0.0914,
      "velocity": 1,
      "chip": "ym2612"
    },
    {
      "channel": 0,
      "note": 83,
      "start": 47.7762,
      "duration": 0.3984,
      "velocity": 111,
      "chip": "ym2612"
    },
    {
      "channel": 3,
      "note": 74,
      "start": 47.7952,
      "duration": 0.0767,
      "velocity": 106,
      "chip": "ym2612"
    },
    {
      "channel": 2,
      "note": 73,
      "start": 47.7974,
      "duration": 0.0908,
      "velocity": 1,
      "chip": "ym2612"
    },
    {
      "channel": 4,
      "note": 83,
      "start": 47.8724,
      "duration": 0.3985,
      "velocity": 111,
      "chip": "ym2612"
    },
    {
      "channel": 3,
      "note": 73,
      "start": 47.8905,
      "duration": 0.093,
      "velocity": 106,
      "chip": "ym2612"
    },
    {
      "channel": 2,
      "note": 103,
      "start": 47.8925,
      "duration": 0.1073,
      "velocity": 1,
      "chip": "ym2612"
    },
    {
      "channel": 3,
      "note": 66,
      "start": 48.0022,
      "duration": 0.0771,
      "velocity": 106,
      "chip": "ym2612"
    },
    {
      "channel": 2,
      "note": 64,
      "start": 48.0041,
      "duration": 0.0915,
      "velocity": 1,
      "chip": "ym2612"
    },
    {
      "channel": 3,
      "note": 73,
      "start": 48.098,
      "duration": 0.077,
      "velocity": 106,
      "chip": "ym2612"
    },
    {
      "channel": 2,
      "note": 64,
      "start": 48.0999,
      "duration": 0.0917,
      "velocity": 1,
      "chip": "ym2612"
    },
    {
      "channel": 0,
      "note": 85,
      "start": 48.1909,
      "duration": 0.1113,
      "velocity": 111,
      "chip": "ym2612"
    },
    {
      "channel": 3,
      "note": 74,
      "start": 48.1943,
      "duration": 0.0764,
      "velocity": 106,
      "chip": "ym2612"
    },
    {
      "channel": 2,
      "note": 26,
      "start": 48.1967,
      "duration": 0.043,
      "velocity": 120,
      "chip": "ym2612"
    },
    {
      "channel": 3,
      "note": 73,
      "start": 48.2893,
      "duration": 0.0772,
      "velocity": 106,
      "chip": "ym2612"
    },
    {
      "channel": 4,
      "note": 85,
      "start": 48.2898,
      "duration": 0.1087,
      "velocity": 111,
      "chip": "ym2612"
    },
    {
      "channel": 2,
      "note": 26,
      "start": 48.2916,
      "duration": 0.0432,
      "velocity": 1,
      "chip": "ym2612"
    },
    {
      "channel": 0,
      "note": 84,
      "start": 48.3185,
      "duration": 0.0475,
      "velocity": 111,
      "chip": "ym2612"
    },
    {
      "channel": 2,
      "note": 103,
      "start": 48.3386,
      "duration": 0.0444,
      "velocity": 1,
      "chip": "ym2612"
    },
    {
      "channel": 0,
      "note": 81,
      "start": 48.3824,
      "duration": 0.3825,
      "velocity": 111,
      "chip": "ym2612"
    },
    {
      "channel": 3,
      "note": 66,
      "start": 48.3854,
      "duration": 0.0767,
      "velocity": 106,
      "chip": "ym2612"
    },
    {
      "channel": 2,
      "note": 103,
      "start": 48.3876,
      "duration": 0.1067,
      "velocity": 1,
      "chip": "ym2612"
    },
    {
      "channel": 4,
      "note": 84,
      "start": 48.4147,
      "duration": 0.0476,
      "velocity": 111,
      "chip": "ym2612"
    },
    {
      "channel": 3,
      "note": 73,
      "start": 48.4967,
      "duration": 0.0771,
      "velocity": 106,
      "chip": "ym2612"
    },
    {
      "channel": 4,
      "note": 81,
      "start": 48.4972,
      "duration": 0.3639,
      "velocity": 111,
      "chip": "ym2612"
    },
    {
      "channel": 2,
      "note": 103,
      "start": 48.4991,
      "duration": 0.091,
      "velocity": 1,
      "chip": "ym2612"
    },
    {
      "channel": 3,
      "note": 74,
      "start": 48.5927,
      "duration": 0.0767,
      "velocity": 106,
      "chip": "ym2612"
    },
    {
      "channel": 2,
      "note": 73,
      "start": 48.5948,
      "duration": 0.0271,
      "velocity": 1,
      "chip": "ym2612"
    },
    {
      "channel": 2,
      "note": 73,
      "start": 48.6256,
      "duration": 0.0283,
      "velocity": 1,
      "chip": "ym2612"
    },
    {
      "channel": 2,
      "note": 73,
      "start": 48.6576,
      "duration": 0.0282,
      "velocity": 1,
      "chip": "ym2612"
    },
    {
      "channel": 3,
      "note": 73,
      "start": 48.6881,
      "duration": 0.0772,
      "velocity": 106,
      "chip": "ym2612"
    },
    {
      "channel": 2,
      "note": 73,
      "start": 48.69,
      "duration": 0.0919,
      "velocity": 1,
      "chip": "ym2612"
    },
    {
      "channel": 0,
      "note": 83,
      "start": 48.7812,
      "duration": 0.1751,
      "velocity": 111,
      "chip": "ym2612"
    },
    {
      "channel": 3,
      "note": 66,
      "start": 48.7843,
      "duration": 0.0766,
      "velocity": 106,
      "chip": "ym2612"
    },
    {
      "channel": 2,
      "note": 103,
      "start": 48.7864,
      "duration": 0.0907,
      "velocity": 1,
      "chip": "ym2612"
    },
    {
      "channel": 3,
      "note": 73,
      "start": 48.8795,
      "duration": 0.0772,
      "velocity": 106,
      "chip": "ym2612"
    },
    {
      "channel": 4,
      "note": 83,
      "start": 48.88,
      "duration": 0.1884,
      "velocity": 111,
      "chip": "ym2612"
    },
    {
      "channel": 2,
      "note": 26,
      "start": 48.8819,
      "duration": 0.0431,
      "velocity": 1,
      "chip": "ym2612"
    },
    {
      "channel": 2,
      "note": 64,
      "start": 48.9288,
      "duration": 0.0448,
      "velocity": 1,
      "chip": "ym2612"
    },
    {
      "channel": 0,
      "note": 85,
      "start": 48.9726,
      "duration": 1.18,
      "velocity": 111,
      "chip": "ym2612"
    },
    {
      "channel": 1,
      "note": 52,
      "start": 48.973,
      "duration": 1.5951,
      "velocity": 112,
      "chip": "ym2612"
    },
    {
      "channel": 3,
      "note": 74,
      "start": 48.9768,
      "duration": 0.0914,
      "velocity": 106,
      "chip": "ym2612"
    },
    {
      "channel": 2,
      "note": 64,
      "start": 48.9795,
      "duration": 0.0572,
      "velocity": 1,
      "chip": "ym2612"
    },
    {
      "channel": 2,
      "note": 73,
      "start": 49.0404,
      "duration": 0.0441,
      "velocity": 1,
      "chip": "ym2612"
    },
    {
      "channel": 3,
      "note": 73,
      "start": 49.0868,
      "duration": 0.0771,
      "velocity": 106,
      "chip": "ym2612"
    },
    {
      "channel": 4,
      "note": 85,
      "start": 49.0873,
      "duration": 1.1615,
      "velocity": 111,
      "chip": "ym2612"
    },
    {
      "channel": 5,
      "note": 52,
      "start": 49.0878,
      "duration": 1.5792,
      "velocity": 112,
      "chip": "ym2612"
    },
    {
      "channel": 2,
      "note": 77,
      "start": 49.0896,
      "duration": 0.0906,
      "velocity": 1,
      "chip": "ym2612"
    },
    {
      "channel": 3,
      "note": 66,
      "start": 49.1826,
      "duration": 0.077,
      "velocity": 106,
      "chip": "ym2612"
    },
    {
      "channel": 2,
      "note": 103,
      "start": 49.1845,
      "duration": 0.0914,
      "velocity": 1,
      "chip": "ym2612"
    },
    {
      "channel": 3,
      "note": 73,
      "start": 49.2782,
      "duration": 0.0771,
      "velocity": 106,
      "chip": "ym2612"
    },
    {
      "channel": 2,
      "note": 103,
      "start": 49.2802,
      "duration": 0.0914,
      "velocity": 1,
      "chip": "ym2612"
    },
    {
      "channel": 3,
      "note": 74,
      "start": 49.3743,
      "duration": 0.0768,
      "velocity": 106,
      "chip": "ym2612"
    },
    {
      "channel": 2,
      "note": 73,
      "start": 49.3764,
      "duration": 0.0909,
      "velocity": 1,
      "chip": "ym2612"
    },
    {
      "channel": 3,
      "note": 73,
      "start": 49.4696,
      "duration": 0.0931,
      "velocity": 106,
      "chip": "ym2612"
    },
    {
      "channel": 2,
      "note": 103,
      "start": 49.4716,
      "duration": 0.1074,
      "velocity": 1,
      "chip": "ym2612"
    },
    {
      "channel": 3,
      "note": 66,
      "start": 49.5814,
      "duration": 0.077,
      "velocity": 106,
      "chip": "ym2612"
    },
    {
      "channel": 2,
      "note": 64,
      "start": 49.5833,
      "duration": 0.0913,
      "velocity": 1,
      "chip": "ym2612"
    },
    {
      "channel": 3,
      "note": 73,
      "start": 49.677,
      "duration": 0.0771,
      "velocity": 106,
      "chip": "ym2612"
    },
    {
      "channel": 2,
      "note": 64,
      "start": 49.6789,
      "duration": 0.0915,
      "velocity": 1,
      "chip": "ym2612"
    },
    {
      "channel": 3,
      "note": 74,
      "start": 49.7731,
      "duration": 0.0767,
      "velocity": 106,
      "chip": "ym2612"
    },
    {
      "channel": 2,
      "note": 26,
      "start": 49.7751,
      "duration": 0.0436,
      "velocity": 120,
      "chip": "ym2612"
    },
    {
      "channel": 3,
      "note": 73,
      "start": 49.8684,
      "duration": 0.0771,
      "velocity": 106,
      "chip": "ym2612"
    },
    {
      "channel": 2,
      "note": 26,
      "start": 49.8703,
      "duration": 0.0436,
      "velocity": 1,
      "chip": "ym2612"
    },
    {
      "channel": 2,
      "note": 103,
      "start": 49.9177,
      "duration": 0.0441,
      "velocity": 1,
      "chip": "ym2612"
    },
    {
      "channel": 3,
      "note": 66,
      "start": 49.9641,
      "duration": 0.0931,
      "velocity": 106,
      "chip": "ym2612"
    },
    {
      "channel": 2,
      "note": 103,
      "start": 49.9661,
      "duration": 0.1073,
      "velocity": 1,
      "chip": "ym2612"
    },
    {
      "channel": 3,
      "note": 73,
      "start": 50.0758,
      "duration": 0.0772,
      "velocity": 106,
      "chip": "ym2612"
    },
    {
      "channel": 2,
      "note": 103,
      "start": 50.0777,
      "duration": 0.0918,
      "velocity": 1,
      "chip": "ym2612"
    },
    {
      "channel": 0,
      "note": 86,
      "start": 50.1688,
      "duration": 0.3825,
      "velocity": 111,
      "chip": "ym2612"
    },
    {
      "channel": 3,
      "note": 74,
      "start": 50.1722,
      "duration": 0.0764,
      "velocity": 106,
      "chip": "ym2612"
    },
    {
      "channel": 2,
      "note": 73,
      "start": 50.1746,
      "duration": 0.0265,
      "velocity": 1,
      "chip": "ym2612"
    },
    {
      "channel": 2,
      "note": 73,
      "start": 50.2048,
      "duration": 0.0281,
      "velocity": 1,
      "chip": "ym2612"
    },
    {
      "channel": 2,
      "note": 73,
      "start": 50.2367,
      "duration": 0.0282,
      "velocity": 1,
      "chip": "ym2612"
    },
    {
      "channel": 3,
      "note": 73,
      "start": 50.2673,
      "duration": 0.077,
      "velocity": 106,
      "chip": "ym2612"
    },
    {
      "channel": 4,
      "note": 86,
      "start": 50.2678,
      "duration": 0.3798,
      "velocity": 111,
      "chip": "ym2612"
    },
    {
      "channel": 2,
      "note": 73,
      "start": 50.2697,
      "duration": 0.0908,
      "velocity": 1,
      "chip": "ym2612"
    },
    {
      "channel": 3,
      "note": 66,
      "start": 50.3629,
      "duration": 0.0771,
      "velocity": 106,
      "chip": "ym2612"
    },
    {
      "channel": 2,
      "note": 103,
      "start": 50.3649,
      "duration": 0.0914,
      "velocity": 1,
      "chip": "ym2612"
    },
    {
      "channel": 3,
      "note": 73,
      "start": 50.4585,
      "duration": 0.0932,
      "velocity": 106,
      "chip": "ym2612"
    },
    {
      "channel": 2,
      "note": 26,
      "start": 50.4605,
      "duration": 0.0436,
      "velocity": 1,
      "chip": "ym2612"
    },
    {
      "channel": 2,
      "note": 64,
      "start": 50.5078,
      "duration": 0.0609,
      "velocity": 1,
      "chip": "ym2612"
    },
    {
      "channel": 0,
      "note": 85,
      "start": 50.5676,
      "duration": 1.0527,
      "velocity": 111,
      "chip": "ym2612"
    },
    {
      "channel": 1,
      "note": 52,
      "start": 50.5681,
      "duration": 1.5625,
      "velocity": 112,
      "chip": "ym2612"
    },
    {
      "channel": 3,
      "note": 74,
      "start": 50.5719,
      "duration": 0.0755,
      "velocity": 106,
      "chip": "ym2612"
    },
    {
      "channel": 2,
      "note": 26,
      "start": 50.5745,
      "duration": 0.0252,
      "velocity": 1,
      "chip": "ym2612"
    },
    {
      "channel": 2,
      "note": 26,
      "start": 50.6035,
      "duration": 0.0449,
      "velocity": 120,
      "chip": "ym2612"
    },
    {
      "channel": 3,
      "note": 73,
      "start": 50.666,
      "duration": 0.077,
      "velocity": 106,
      "chip": "ym2612"
    },
    {
      "channel": 4,
      "note": 85,
      "start": 50.6665,
      "duration": 1.0499,
      "velocity": 111,
      "chip": "ym2612"
    },
    {
      "channel": 5,
      "note": 52,
      "start": 50.667,
      "duration": 1.5598,
      "velocity": 112,
      "chip": "ym2612"
    },
    {
      "channel": 2,
      "note": 64,
      "start": 50.6688,
      "duration": 0.0905,
      "velocity": 1,
      "chip": "ym2612"
    },
    {
      "channel": 3,
      "note": 66,
      "start": 50.7617,
      "duration": 0.077,
      "velocity": 106,
      "chip": "ym2612"
    },
    {
      "channel": 2,
      "note": 73,
      "start": 50.7636,
      "duration": 0.0914,
      "velocity": 1,
      "chip": "ym2612"
    },
    {
      "channel": 3,
      "note": 73,
      "start": 50.8573,
      "duration": 0.0771,
      "velocity": 106,
      "chip": "ym2612"
    },
    {
      "channel": 2,
      "note": 103,
      "start": 50.8593,
      "duration": 0.0915,
      "velocity": 1,
      "chip": "ym2612"
    },
    {
      "channel": 3,
      "note": 74,
      "start": 50.9534,
      "duration": 0.0927,
      "velocity": 106,
      "chip": "ym2612"
    },
    {
      "channel": 2,
      "note": 26,
      "start": 50.9554,
      "duration": 0.0436,
      "velocity": 120,
      "chip": "ym2612"
    },
    {
      "channel": 3,
      "note": 73,
      "start": 51.0648,
      "duration": 0.0771,
      "velocity": 106,
      "chip": "ym2612"
    },
    {
      "channel": 2,
      "note": 103,
      "start": 51.0667,
      "duration": 0.0914,
      "velocity": 1,
      "chip": "ym2612"
    },
    {
      "channel": 3,
      "note": 66,
      "start": 51.1604,
      "duration": 0.0771,
      "velocity": 106,
      "chip": "ym2612"
    },
    {
      "channel": 2,
      "note": 73,
      "start": 51.1623,
      "duration": 0.0915,
      "velocity": 1,
      "chip": "ym2612"
    },
    {
      "channel": 3,
      "note": 73,
      "start": 51.2561,
      "duration": 0.0771,
      "velocity": 106,
      "chip": "ym2612"
    },
    {
      "channel": 2,
      "note": 103,
      "start": 51.258,
      "duration": 0.0914,
      "velocity": 1,
      "chip": "ym2612"
    },
    {
      "channel": 3,
      "note": 74,
      "start": 51.3521,
      "duration": 0.0768,
      "velocity": 106,
      "chip": "ym2612"
    },
    {
      "channel": 2,
      "note": 64,
      "start": 51.3543,
      "duration": 0.0909,
      "velocity": 1,
      "chip": "ym2612"
    },
    {
      "channel": 3,
      "note": 73,
      "start": 51.4475,
      "duration": 0.0771,
      "velocity": 106,
      "chip": "ym2612"
    },
    {
      "channel": 2,
      "note": 103,
      "start": 51.4495,
      "duration": 0.1073,
      "velocity": 1,
      "chip": "ym2612"
    },
    {
      "channel": 3,
      "note": 66,
      "start": 51.5592,
      "duration": 0.0771,
      "velocity": 106,
      "chip": "ym2612"
    },
    {
      "channel": 2,
      "note": 103,
      "start": 51.5611,
      "duration": 0.0914,
      "velocity": 1,
      "chip": "ym2612"
    },
    {
      "channel": 0,
      "note": 85,
      "start": 51.6203,
      "duration": 0.5101,
      "velocity": 111,
      "chip": "ym2612"
    },
    {
      "channel": 3,
      "note": 73,
      "start": 51.6549,
      "duration": 0.0771,
      "velocity": 106,
      "chip": "ym2612"
    },
    {
      "channel": 2,
      "note": 103,
      "start": 51.6569,
      "duration": 0.0914,
      "velocity": 1,
      "chip": "ym2612"
    },
    {
      "channel": 4,
      "note": 85,
      "start": 51.7164,
      "duration": 0.5102,
      "velocity": 111,
      "chip": "ym2612"
    },
    {
      "channel": 3,
      "note": 74,
      "start": 51.751,
      "duration": 0.0767,
      "velocity": 106,
      "chip": "ym2612"
    },
    {
      "channel": 2,
      "note": 64,
      "start": 51.7532,
      "duration": 0.0269,
      "velocity": 1,
      "chip": "ym2612"
    },
    {
      "channel": 2,
      "note": 73,
      "start": 51.7839,
      "duration": 0.0281,
      "velocity": 1,
      "chip": "ym2612"
    },
    {
      "channel": 2,
      "note": 64,
      "start": 51.8158,
      "duration": 0.0281,
      "velocity": 1,
      "chip": "ym2612"
    },
    {
      "channel": 3,
      "note": 73,
      "start": 51.8463,
      "duration": 0.0771,
      "velocity": 106,
      "chip": "ym2612"
    },
    {
      "channel": 2,
      "note": 64,
      "start": 51.8483,
      "duration": 0.0914,
      "velocity": 1,
      "chip": "ym2612"
    },
    {
      "channel": 3,
      "note": 66,
      "start": 51.942,
      "duration": 0.0771,
      "velocity": 106,
      "chip": "ym2612"
    },
    {
      "channel": 2,
      "note": 26,
      "start": 51.9439,
      "duration": 0.0441,
      "velocity": 120,
      "chip": "ym2612"
    },
    {
      "channel": 3,
      "note": 73,
      "start": 52.0377,
      "duration": 0.0932,
      "velocity": 106,
      "chip": "ym2612"
    },
    {
      "channel": 2,
      "note": 26,
      "start": 52.0395,
      "duration": 0.0441,
      "velocity": 120,
      "chip": "ym2612"
    },
    {
      "channel": 0,
      "note": 83,
      "start": 52.1504,
      "duration": 1.1604,
      "velocity": 74,
      "chip": "ym2612"
    },
    {
      "channel": 1,
      "note": 54,
      "start": 52.1546,
      "duration": 1.5714,
      "velocity": 112,
      "chip": "ym2612"
    },
    {
      "channel": 3,
      "note": 74,
      "start": 52.1584,
      "duration": 0.0681,
      "velocity": 106,
      "chip": "ym2612"
    },
    {
      "channel": 2,
      "note": 64,
      "start": 52.1615,
      "duration": 0.0334,
      "velocity": 1,
      "chip": "ym2612"
    },
    {
      "channel": 2,
      "note": 73,
      "start": 52.1987,
      "duration": 0.044,
      "velocity": 1,
      "chip": "ym2612"
    },
    {
      "channel": 3,
      "note": 73,
      "start": 52.2451,
      "duration": 0.0771,
      "velocity": 106,
      "chip": "ym2612"
    },
    {
      "channel": 4,
      "note": 83,
      "start": 52.2494,
      "duration": 1.1576,
      "velocity": 74,
      "chip": "ym2612"
    },
    {
      "channel": 5,
      "note": 54,
      "start": 52.2537,
      "duration": 1.5711,
      "velocity": 112,
      "chip": "ym2612"
    },
    {
      "channel": 2,
      "note": 77,
      "start": 52.2555,
      "duration": 0.0829,
      "velocity": 1,
      "chip": "ym2612"
    },
    {
      "channel": 3,
      "note": 66,
      "start": 52.3407,
      "duration": 0.0771,
      "velocity": 106,
      "chip": "ym2612"
    },
    {
      "channel": 2,
      "note": 103,
      "start": 52.3427,
      "duration": 0.0915,
      "velocity": 1,
      "chip": "ym2612"
    },
    {
      "channel": 3,
      "note": 73,
      "start": 52.4365,
      "duration": 0.0771,
      "velocity": 106,
      "chip": "ym2612"
    },
    {
      "channel": 2,
      "note": 103,
      "start": 52.4384,
      "duration": 0.0914,
      "velocity": 1,
      "chip": "ym2612"
    },
    {
      "channel": 3,
      "note": 74,
      "start": 52.5326,
      "duration": 0.0926,
      "velocity": 106,
      "chip": "ym2612"
    },
    {
      "channel": 2,
      "note": 73,
      "start": 52.5347,
      "duration": 0.1068,
      "velocity": 1,
      "chip": "ym2612"
    },
    {
      "channel": 3,
      "note": 73,
      "start": 52.6438,
      "duration": 0.0771,
      "velocity": 106,
      "chip": "ym2612"
    },
    {
      "channel": 2,
      "note": 103,
      "start": 52.6458,
      "duration": 0.0914,
      "velocity": 1,
      "chip": "ym2612"
    },
    {
      "channel": 3,
      "note": 66,
      "start": 52.7395,
      "duration": 0.0771,
      "velocity": 106,
      "chip": "ym2612"
    },
    {
      "channel": 2,
      "note": 64,
      "start": 52.7415,
      "duration": 0.0914,
      "velocity": 1,
      "chip": "ym2612"
    },
    {
      "channel": 3,
      "note": 73,
      "start": 52.8352,
      "duration": 0.0771,
      "velocity": 106,
      "chip": "ym2612"
    },
    {
      "channel": 2,
      "note": 64,
      "start": 52.8371,
      "duration": 0.0915,
      "velocity": 1,
      "chip": "ym2612"
    },
    {
      "channel": 3,
      "note": 74,
      "start": 52.9313,
      "duration": 0.0767,
      "velocity": 106,
      "chip": "ym2612"
    },
    {
      "channel": 2,
      "note": 26,
      "start": 52.9334,
      "duration": 0.0435,
      "velocity": 120,
      "chip": "ym2612"
    },
    {
      "channel": 3,
      "note": 73,
      "start": 53.0266,
      "duration": 0.0931,
      "velocity": 106,
      "chip": "ym2612"
    },
    {
      "channel": 2,
      "note": 26,
      "start": 53.0285,
      "duration": 0.0442,
      "velocity": 120,
      "chip": "ym2612"
    },
    {
      "channel": 2,
      "note": 103,
      "start": 53.0918,
      "duration": 0.0442,
      "velocity": 1,
      "chip": "ym2612"
    },
    {
      "channel": 3,
      "note": 66,
      "start": 53.1383,
      "duration": 0.0771,
      "velocity": 106,
      "chip": "ym2612"
    },
    {
      "channel": 2,
      "note": 103,
      "start": 53.1402,
      "duration": 0.0915,
      "velocity": 1,
      "chip": "ym2612"
    },
    {
      "channel": 3,
      "note": 73,
      "start": 53.2341,
      "duration": 0.0771,
      "velocity": 106,
      "chip": "ym2612"
    },
    {
      "channel": 2,
      "note": 103,
      "start": 53.236,
      "duration": 0.0917,
      "velocity": 1,
      "chip": "ym2612"
    },
    {
      "channel": 0,
      "note": 81,
      "start": 53.3271,
      "duration": 0.1751,
      "velocity": 74,
      "chip": "ym2612"
    },
    {
      "channel": 3,
      "note": 74,
      "start": 53.3304,
      "duration": 0.0763,
      "velocity": 106,
      "chip": "ym2612"
    },
    {
      "channel": 2,
      "note": 73,
      "start": 53.3329,
      "duration": 0.0263,
      "velocity": 1,
      "chip": "ym2612"
    },
    {
      "channel": 2,
      "note": 73,
      "start": 53.3631,
      "duration": 0.028,
      "velocity": 1,
      "chip": "ym2612"
    },
    {
      "channel": 2,
      "note": 73,
      "start": 53.3949,
      "duration": 0.0281,
      "velocity": 1,
      "chip": "ym2612"
    },
    {
      "channel": 3,
      "note": 73,
      "start": 53.4254,
      "duration": 0.0772,
      "velocity": 106,
      "chip": "ym2612"
    },
    {
      "channel": 4,
      "note": 81,
      "start": 53.4259,
      "duration": 0.1885,
      "velocity": 74,
      "chip": "ym2612"
    },
    {
      "channel": 2,
      "note": 73,
      "start": 53.4278,
      "duration": 0.0913,
      "velocity": 1,
      "chip": "ym2612"
    },
    {
      "channel": 0,
      "note": 83,
      "start": 53.5185,
      "duration": 0.0954,
      "velocity": 74,
      "chip": "ym2612"
    },
    {
      "channel": 3,
      "note": 66,
      "start": 53.5215,
      "duration": 0.0927,
      "velocity": 106,
      "chip": "ym2612"
    },
    {
      "channel": 2,
      "note": 103,
      "start": 53.5237,
      "duration": 0.1071,
      "velocity": 1,
      "chip": "ym2612"
    },
    {
      "channel": 0,
      "note": 85,
      "start": 53.6301,
      "duration": 1.4513,
      "velocity": 74,
      "chip": "ym2612"
    },
    {
      "channel": 3,
      "note": 73,
      "start": 53.6332,
      "duration": 0.0767,
      "velocity": 106,
      "chip": "ym2612"
    },
    {
      "channel": 4,
      "note": 83,
      "start": 53.6337,
      "duration": 0.0763,
      "velocity": 74,
      "chip": "ym2612"
    },
    {
      "channel": 2,
      "note": 26,
      "start": 53.6358,
      "duration": 0.0425,
      "velocity": 1,
      "chip": "ym2612"
    },
    {
      "channel": 2,
      "note": 64,
      "start": 53.6821,
      "duration": 0.0444,
      "velocity": 1,
      "chip": "ym2612"
    },
    {
      "channel": 1,
      "note": 54,
      "start": 53.7259,
      "duration": 1.5795,
      "velocity": 112,
      "chip": "ym2612"
    },
    {
      "channel": 3,
      "note": 74,
      "start": 53.7298,
      "duration": 0.0758,
      "velocity": 106,
      "chip": "ym2612"
    },
    {
      "channel": 4,
      "note": 85,
      "start": 53.7302,
      "duration": 1.4632,
      "velocity": 74,
      "chip": "ym2612"
    },
    {
      "channel": 2,
      "note": 64,
      "start": 53.7327,
      "duration": 0.0413,
      "velocity": 1,
      "chip": "ym2612"
    },
    {
      "channel": 2,
      "note": 73,
      "start": 53.7778,
      "duration": 0.0441,
      "velocity": 1,
      "chip": "ym2612"
    },
    {
      "channel": 3,
      "note": 73,
      "start": 53.8241,
      "duration": 0.0771,
      "velocity": 106,
      "chip": "ym2612"
    },
    {
      "channel": 5,
      "note": 54,
      "start": 53.8248,
      "duration": 1.5795,
      "velocity": 112,
      "chip": "ym2612"
    },
    {
      "channel": 2,
      "note": 77,
      "start": 53.8265,
      "duration": 0.091,
      "velocity": 1,
      "chip": "ym2612"
    },
    {
      "channel": 3,
      "note": 66,
      "start": 53.9199,
      "duration": 0.0771,
      "velocity": 106,
      "chip": "ym2612"
    },
    {
      "channel": 2,
      "note": 103,
      "start": 53.9218,
      "duration": 0.0914,
      "velocity": 1,
      "chip": "ym2612"
    },
    {
      "channel": 3,
      "note": 73,
      "start": 54.0156,
      "duration": 0.093,
      "velocity": 106,
      "chip": "ym2612"
    },
    {
      "channel": 2,
      "note": 103,
      "start": 54.0175,
      "duration": 0.1074,
      "velocity": 1,
      "chip": "ym2612"
    },
    {
      "channel": 3,
      "note": 74,
      "start": 54.1276,
      "duration": 0.0767,
      "velocity": 106,
      "chip": "ym2612"
    },
    {
      "channel": 2,
      "note": 73,
      "start": 54.1297,
      "duration": 0.0909,
      "velocity": 1,
      "chip": "ym2612"
    },
    {
      "channel": 3,
      "note": 73,
      "start": 54.2229,
      "duration": 0.0771,
      "velocity": 106,
      "chip": "ym2612"
    },
    {
      "channel": 2,
      "note": 103,
      "start": 54.2249,
      "duration": 0.0915,
      "velocity": 1,
      "chip": "ym2612"
    },
    {
      "channel": 3,
      "note": 66,
      "start": 54.3186,
      "duration": 0.0771,
      "velocity": 106,
      "chip": "ym2612"
    },
    {
      "channel": 2,
      "note": 64,
      "start": 54.3206,
      "duration": 0.0914,
      "velocity": 1,
      "chip": "ym2612"
    },
    {
      "channel": 3,
      "note": 73,
      "start": 54.4144,
      "duration": 0.0771,
      "velocity": 106,
      "chip": "ym2612"
    },
    {
      "channel": 2,
      "note": 64,
      "start": 54.4163,
      "duration": 0.0913,
      "velocity": 1,
      "chip": "ym2612"
    },
    {
      "channel": 3,
      "note": 74,
      "start": 54.5104,
      "duration": 0.0767,
      "velocity": 106,
      "chip": "ym2612"
    },
    {
      "channel": 2,
      "note": 26,
      "start": 54.5124,
      "duration": 0.0436,
      "velocity": 120,
      "chip": "ym2612"
    },
    {
      "channel": 3,
      "note": 73,
      "start": 54.6217,
      "duration": 0.0771,
      "velocity": 106,
      "chip": "ym2612"
    },
    {
      "channel": 2,
      "note": 26,
      "start": 54.6236,
      "duration": 0.0437,
      "velocity": 1,
      "chip": "ym2612"
    },
    {
      "channel": 2,
      "note": 103,
      "start": 54.6709,
      "duration": 0.0442,
      "velocity": 1,
      "chip": "ym2612"
    },
    {
      "channel": 3,
      "note": 66,
      "start": 54.7175,
      "duration": 0.077,
      "velocity": 106,
      "chip": "ym2612"
    },
    {
      "channel": 2,
      "note": 103,
      "start": 54.7194,
      "duration": 0.0914,
      "velocity": 1,
      "chip": "ym2612"
    },
    {
      "channel": 3,
      "note": 73,
      "start": 54.8131,
      "duration": 0.0771,
      "velocity": 106,
      "chip": "ym2612"
    },
    {
      "channel": 2,
      "note": 103,
      "start": 54.8151,
      "duration": 0.0914,
      "velocity": 1,
      "chip": "ym2612"
    },
    {
      "channel": 3,
      "note": 74,
      "start": 54.9091,
      "duration": 0.0768,
      "velocity": 106,
      "chip": "ym2612"
    },
    {
      "channel": 2,
      "note": 73,
      "start": 54.9113,
      "duration": 0.027,
      "velocity": 1,
      "chip": "ym2612"
    },
    {
      "channel": 2,
      "note": 73,
      "start": 54.942,
      "duration": 0.0283,
      "velocity": 1,
      "chip": "ym2612"
    },
    {
      "channel": 2,
      "note": 73,
      "start": 54.9739,
      "duration": 0.0282,
      "velocity": 1,
      "chip": "ym2612"
    },
    {
      "channel": 3,
      "note": 73,
      "start": 55.0045,
      "duration": 0.0772,
      "velocity": 106,
      "chip": "ym2612"
    },
    {
      "channel": 2,
      "note": 73,
      "start": 55.0064,
      "duration": 0.0919,
      "velocity": 1,
      "chip": "ym2612"
    },
    {
      "channel": 0,
      "note": 88,
      "start": 55.0976,
      "duration": 0.1911,
      "velocity": 74,
      "chip": "ym2612"
    },
    {
      "channel": 3,
      "note": 66,
      "start": 55.1007,
      "duration": 0.0925,
      "velocity": 106,
      "chip": "ym2612"
    },
    {
      "channel": 2,
      "note": 103,
      "start": 55.1029,
      "duration": 0.1066,
      "velocity": 1,
      "chip": "ym2612"
    },
    {
      "channel": 3,
      "note": 73,
      "start": 55.2119,
      "duration": 0.0772,
      "velocity": 106,
      "chip": "ym2612"
    },
    {
      "channel": 4,
      "note": 88,
      "start": 55.2124,
      "duration": 0.1724,
      "velocity": 74,
      "chip": "ym2612"
    },
    {
      "channel": 2,
      "note": 26,
      "start": 55.2142,
      "duration": 0.0431,
      "velocity": 1,
      "chip": "ym2612"
    },
    {
      "channel": 2,
      "note": 64,
      "start": 55.2611,
      "duration": 0.0448,
      "velocity": 1,
      "chip": "ym2612"
    },
    {
      "channel": 0,
      "note": 86,
      "start": 55.3049,
      "duration": 0.3825,
      "velocity": 74,
      "chip": "ym2612"
    },
    {
      "channel": 1,
      "note": 54,
      "start": 55.3054,
      "duration": 1.5791,
      "velocity": 112,
      "chip": "ym2612"
    },
    {
      "channel": 3,
      "note": 74,
      "start": 55.3092,
      "duration": 0.0755,
      "velocity": 106,
      "chip": "ym2612"
    },
    {
      "channel": 2,
      "note": 64,
      "start": 55.3119,
      "duration": 0.0412,
      "velocity": 1,
      "chip": "ym2612"
    },
    {
      "channel": 2,
      "note": 73,
      "start": 55.3569,
      "duration": 0.044,
      "velocity": 1,
      "chip": "ym2612"
    },
    {
      "channel": 3,
      "note": 73,
      "start": 55.4033,
      "duration": 0.0771,
      "velocity": 106,
      "chip": "ym2612"
    },
    {
      "channel": 4,
      "note": 86,
      "start": 55.4038,
      "duration": 0.3798,
      "velocity": 74,
      "chip": "ym2612"
    },
    {
      "channel": 5,
      "note": 54,
      "start": 55.4042,
      "duration": 1.5792,
      "velocity": 112,
      "chip": "ym2612"
    },
    {
      "channel": 2,
      "note": 77,
      "start": 55.4061,
      "duration": 0.0906,
      "velocity": 1,
      "chip": "ym2612"
    },
    {
      "channel": 3,
      "note": 66,
      "start": 55.4991,
      "duration": 0.077,
      "velocity": 106,
      "chip": "ym2612"
    },
    {
      "channel": 2,
      "note": 103,
      "start": 55.501,
      "duration": 0.0913,
      "velocity": 1,
      "chip": "ym2612"
    },
    {
      "channel": 3,
      "note": 73,
      "start": 55.5947,
      "duration": 0.0931,
      "velocity": 106,
      "chip": "ym2612"
    },
    {
      "channel": 2,
      "note": 103,
      "start": 55.5966,
      "duration": 0.1078,
      "velocity": 1,
      "chip": "ym2612"
    },
    {
      "channel": 0,
      "note": 85,
      "start": 55.7037,
      "duration": 0.1752,
      "velocity": 74,
      "chip": "ym2612"
    },
    {
      "channel": 3,
      "note": 74,
      "start": 55.707,
      "duration": 0.0764,
      "velocity": 106,
      "chip": "ym2612"
    },
    {
      "channel": 2,
      "note": 73,
      "start": 55.7095,
      "duration": 0.0902,
      "velocity": 1,
      "chip": "ym2612"
    },
    {
      "channel": 3,
      "note": 73,
      "start": 55.802,
      "duration": 0.0772,
      "velocity": 106,
      "chip": "ym2612"
    },
    {
      "channel": 4,
      "note": 85,
      "start": 55.8025,
      "duration": 0.1725,
      "velocity": 74,
      "chip": "ym2612"
    },
    {
      "channel": 2,
      "note": 103,
      "start": 55.8044,
      "duration": 0.0914,
      "velocity": 1,
      "chip": "ym2612"
    },
    {
      "channel": 0,
      "note": 83,
      "start": 55.8951,
      "duration": 0.1751,
      "velocity": 74,
      "chip": "ym2612"
    },
    {
      "channel": 3,
      "note": 66,
      "start": 55.8982,
      "duration": 0.0767,
      "velocity": 106,
      "chip": "ym2612"
    },
    {
      "channel": 2,
      "note": 64,
      "start": 55.9004,
      "duration": 0.0907,
      "velocity": 1,
      "chip": "ym2612"
    },
    {
      "channel": 3,
      "note": 73,
      "start": 55.9934,
      "duration": 0.0772,
      "velocity": 106,
      "chip": "ym2612"
    },
    {
      "channel": 4,
      "note": 83,
      "start": 55.9939,
      "duration": 0.1885,
      "velocity": 74,
      "chip": "ym2612"
    },
    {
      "channel": 2,
      "note": 64,
      "start": 55.9958,
      "duration": 0.0914,
      "velocity": 1,
      "chip": "ym2612"
    },
    {
      "channel": 0,
      "note": 85,
      "start": 56.0865,
      "duration": 0.2868,
      "velocity": 74,
      "chip": "ym2612"
    },
    {
      "channel": 3,
      "note": 74,
      "start": 56.0899,
      "duration": 0.0924,
      "velocity": 106,
      "chip": "ym2612"
    },
    {
      "channel": 2,
      "note": 26,
      "start": 56.0923,
      "duration": 0.043,
      "velocity": 120,
      "chip": "ym2612"
    },
    {
      "channel": 3,
      "note": 73,
      "start": 56.2009,
      "duration": 0.077,
      "velocity": 106,
      "chip": "ym2612"
    },
    {
      "channel": 4,
      "note": 85,
      "start": 56.2014,
      "duration": 0.2682,
      "velocity": 74,
      "chip": "ym2612"
    },
    {
      "channel": 2,
      "note": 26,
      "start": 56.2032,
      "duration": 0.0431,
      "velocity": 1,
      "chip": "ym2612"
    },
    {
      "channel": 2,
      "note": 103,
      "start": 56.2501,
      "duration": 0.0441,
      "velocity": 1,
      "chip": "ym2612"
    },
    {
      "channel": 3,
      "note": 66,
      "start": 56.2965,
      "duration": 0.0772,
      "velocity": 106,
      "chip": "ym2612"
    },
    {
      "channel": 2,
      "note": 103,
      "start": 56.2985,
      "duration": 0.0917,
      "velocity": 1,
      "chip": "ym2612"
    },
    {
      "channel": 0,
      "note": 81,
      "start": 56.3895,
      "duration": 0.0794,
      "velocity": 74,
      "chip": "ym2612"
    },
    {
      "channel": 3,
      "note": 73,
      "start": 56.3926,
      "duration": 0.0768,
      "velocity": 106,
      "chip": "ym2612"
    },
    {
      "channel": 2,
      "note": 103,
      "start": 56.3948,
      "duration": 0.0912,
      "velocity": 1,
      "chip": "ym2612"
    },
    {
      "channel": 0,
      "note": 83,
      "start": 56.4853,
      "duration": 0.1911,
      "velocity": 74,
      "chip": "ym2612"
    },
    {
      "channel": 3,
      "note": 74,
      "start": 56.4886,
      "duration": 0.0764,
      "velocity": 106,
      "chip": "ym2612"
    },
    {
      "channel": 4,
      "note": 81,
      "start": 56.4891,
      "duration": 0.0761,
      "velocity": 74,
      "chip": "ym2612"
    },
    {
      "channel": 2,
      "note": 73,
      "start": 56.4914,
      "duration": 0.0261,
      "velocity": 1,
      "chip": "ym2612"
    },
    {
      "channel": 2,
      "note": 73,
      "start": 56.5213,
      "duration": 0.0281,
      "velocity": 1,
      "chip": "ym2612"
    },
    {
      "channel": 2,
      "note": 73,
      "start": 56.5532,
      "duration": 0.0282,
      "velocity": 1,
      "chip": "ym2612"
    },
    {
      "channel": 3,
      "note": 73,
      "start": 56.5837,
      "duration": 0.0931,
      "velocity": 106,
      "chip": "ym2612"
    },
    {
      "channel": 4,
      "note": 83,
      "start": 56.5842,
      "duration": 0.1884,
      "velocity": 74,
      "chip": "ym2612"
    },
    {
      "channel": 2,
      "note": 73,
      "start": 56.5861,
      "duration": 0.1072,
      "velocity": 1,
      "chip": "ym2612"
    },
    {
      "channel": 0,
      "note": 81,
      "start": 56.6926,
      "duration": 0.1752,
      "velocity": 74,
      "chip": "ym2612"
    },
    {
      "channel": 3,
      "note": 66,
      "start": 56.6956,
      "duration": 0.0767,
      "velocity": 106,
      "chip": "ym2612"
    },
    {
      "channel": 2,
      "note": 103,
      "start": 56.6979,
      "duration": 0.0907,
      "velocity": 1,
      "chip": "ym2612"
    },
    {
      "channel": 3,
      "note": 73,
      "start": 56.791,
      "duration": 0.0772,
      "velocity": 106,
      "chip": "ym2612"
    },
    {
      "channel": 4,
      "note": 81,
      "start": 56.7915,
      "duration": 0.1725,
      "velocity": 74,
      "chip": "ym2612"
    },
    {
      "channel": 2,
      "note": 26,
      "start": 56.7933,
      "duration": 0.0432,
      "velocity": 1,
      "chip": "ym2612"
    },
    {
      "channel": 2,
      "note": 64,
      "start": 56.8403,
      "duration": 0.0448,
      "velocity": 1,
      "chip": "ym2612"
    },
    {
      "channel": 0,
      "note": 80,
      "start": 56.884,
      "duration": 0.3825,
      "velocity": 74,
      "chip": "ym2612"
    },
    {
      "channel": 1,
      "note": 54,
      "start": 56.8845,
      "duration": 1.5625,
      "velocity": 112,
      "chip": "ym2612"
    },
    {
      "channel": 3,
      "note": 74,
      "start": 56.8883,
      "duration": 0.0754,
      "velocity": 106,
      "chip": "ym2612"
    },
    {
      "channel": 2,
      "note": 26,
      "start": 56.8909,
      "duration": 0.0253,
      "velocity": 1,
      "chip": "ym2612"
    },
    {
      "channel": 2,
      "note": 26,
      "start": 56.92,
      "duration": 0.0449,
      "velocity": 120,
      "chip": "ym2612"
    },
    {
      "channel": 3,
      "note": 73,
      "start": 56.9825,
      "duration": 0.077,
      "velocity": 106,
      "chip": "ym2612"
    },
    {
      "channel": 4,
      "note": 80,
      "start": 56.983,
      "duration": 0.3798,
      "velocity": 74,
      "chip": "ym2612"
    },
    {
      "channel": 5,
      "note": 54,
      "start": 56.9834,
      "duration": 1.5598,
      "velocity": 112,
      "chip": "ym2612"
    },
    {
      "channel": 2,
      "note": 64,
      "start": 56.9853,
      "duration": 0.0905,
      "velocity": 1,
      "chip": "ym2612"
    },
    {
      "channel": 3,
      "note": 66,
      "start": 57.0781,
      "duration": 0.0931,
      "velocity": 106,
      "chip": "ym2612"
    },
    {
      "channel": 2,
      "note": 73,
      "start": 57.08,
      "duration": 0.1074,
      "velocity": 1,
      "chip": "ym2612"
    },
    {
      "channel": 3,
      "note": 73,
      "start": 57.1897,
      "duration": 0.0772,
      "velocity": 106,
      "chip": "ym2612"
    },
    {
      "channel": 2,
      "note": 103,
      "start": 57.1916,
      "duration": 0.0918,
      "velocity": 1,
      "chip": "ym2612"
    },
    {
      "channel": 0,
      "note": 80,
      "start": 57.2827,
      "duration": 0.2709,
      "velocity": 74,
      "chip": "ym2612"
    },
    {
      "channel": 3,
      "note": 74,
      "start": 57.2861,
      "duration": 0.0765,
      "velocity": 106,
      "chip": "ym2612"
    },
    {
      "channel": 2,
      "note": 26,
      "start": 57.2884,
      "duration": 0.0432,
      "velocity": 120,
      "chip": "ym2612"
    },
    {
      "channel": 3,
      "note": 73,
      "start": 57.3812,
      "duration": 0.077,
      "velocity": 106,
      "chip": "ym2612"
    },
    {
      "channel": 4,
      "note": 80,
      "start": 57.3817,
      "duration": 0.2682,
      "velocity": 74,
      "chip": "ym2612"
    },
    {
      "channel": 2,
      "note": 103,
      "start": 57.3835,
      "duration": 0.091,
      "velocity": 1,
      "chip": "ym2612"
    },
    {
      "channel": 3,
      "note": 66,
      "start": 57.4768,
      "duration": 0.0772,
      "velocity": 106,
      "chip": "ym2612"
    },
    {
      "channel": 2,
      "note": 73,
      "start": 57.4788,
      "duration": 0.0918,
      "velocity": 1,
      "chip": "ym2612"
    },
    {
      "channel": 0,
      "note": 80,
      "start": 57.5699,
      "duration": 0.2868,
      "velocity": 74,
      "chip": "ym2612"
    },
    {
      "channel": 3,
      "note": 73,
      "start": 57.5729,
      "duration": 0.0767,
      "velocity": 106,
      "chip": "ym2612"
    },
    {
      "channel": 2,
      "note": 103,
      "start": 57.5752,
      "duration": 0.1067,
      "velocity": 1,
      "chip": "ym2612"
    },
    {
      "channel": 3,
      "note": 74,
      "start": 57.6846,
      "duration": 0.0766,
      "velocity": 106,
      "chip": "ym2612"
    },
    {
      "channel": 4,
      "note": 80,
      "start": 57.6851,
      "duration": 0.2678,
      "velocity": 74,
      "chip": "ym2612"
    },
    {
      "channel": 2,
      "note": 64,
      "start": 57.6872,
      "duration": 0.0904,
      "velocity": 1,
      "chip": "ym2612"
    },
    {
      "channel": 3,
      "note": 73,
      "start": 57.7799,
      "duration": 0.0772,
      "velocity": 106,
      "chip": "ym2612"
    },
    {
      "channel": 2,
      "note": 103,
      "start": 57.7819,
      "duration": 0.0917,
      "velocity": 1,
      "chip": "ym2612"
    },
    {
      "channel": 0,
      "note": 78,
      "start": 57.8729,
      "duration": 0.1753,
      "velocity": 74,
      "chip": "ym2612"
    },
    {
      "channel": 3,
      "note": 66,
      "start": 57.876,
      "duration": 0.0767,
      "velocity": 106,
      "chip": "ym2612"
    },
    {
      "channel": 2,
      "note": 103,
      "start": 57.8782,
      "duration": 0.0908,
      "velocity": 1,
      "chip": "ym2612"
    },
    {
      "channel": 3,
      "note": 73,
      "start": 57.9713,
      "duration": 0.0772,
      "velocity": 106,
      "chip": "ym2612"
    },
    {
      "channel": 4,
      "note": 78,
      "start": 57.9718,
      "duration": 0.1725,
      "velocity": 74,
      "chip": "ym2612"
    },
    {
      "channel": 2,
      "note": 103,
      "start": 57.9737,
      "duration": 0.0914,
      "velocity": 1,
      "chip": "ym2612"
    },
    {
      "channel": 0,
      "note": 76,
      "start": 58.0644,
      "duration": 0.1911,
      "velocity": 74,
      "chip": "ym2612"
    },
    {
      "channel": 3,
      "note": 74,
      "start": 58.0678,
      "duration": 0.0763,
      "velocity": 106,
      "chip": "ym2612"
    },
    {
      "channel": 2,
      "note": 64,
      "start": 58.0702,
      "duration": 0.0264,
      "velocity": 1,
      "chip": "ym2612"
    },
    {
      "channel": 2,
      "note": 73,
      "start": 58.1005,
      "duration": 0.028,
      "velocity": 1,
      "chip": "ym2612"
    },
    {
      "channel": 2,
      "note": 64,
      "start": 58.1324,
      "duration": 0.028,
      "velocity": 1,
      "chip": "ym2612"
    },
    {
      "channel": 3,
      "note": 73,
      "start": 58.1627,
      "duration": 0.0931,
      "velocity": 106,
      "chip": "ym2612"
    },
    {
      "channel": 4,
      "note": 76,
      "start": 58.1632,
      "duration": 0.1885,
      "velocity": 74,
      "chip": "ym2612"
    },
    {
      "channel": 2,
      "note": 64,
      "start": 58.1652,
      "duration": 0.1073,
      "velocity": 1,
      "chip": "ym2612"
    },
    {
      "channel": 0,
      "note": 78,
      "start": 58.2717,
      "duration": 0.1751,
      "velocity": 74,
      "chip": "ym2612"
    },
    {
      "channel": 3,
      "note": 66,
      "start": 58.2747,
      "duration": 0.0768,
      "velocity": 106,
      "chip": "ym2612"
    },
    {
      "channel": 2,
      "note": 26,
      "start": 58.2769,
      "duration": 0.0435,
      "velocity": 120,
      "chip": "ym2612"
    },
    {
      "channel": 3,
      "note": 73,
      "start": 58.3701,
      "duration": 0.0772,
      "velocity": 106,
      "chip": "ym2612"
    },
    {
      "channel": 4,
      "note": 78,
      "start": 58.3706,
      "duration": 0.1725,
      "velocity": 74,
      "chip": "ym2612"
    },
    {
      "channel": 2,
      "note": 26,
      "start": 58.3724,
      "duration": 0.0437,
      "velocity": 120,
      "chip": "ym2612"
    },
    {
      "channel": 0,
      "note": 80,
      "start": 58.4631,
      "duration": 0.1751,
      "velocity": 74,
      "chip": "ym2612"
    },
    {
      "channel": 1,
      "note": 52,
      "start": 58.4638,
      "duration": 1.579,
      "velocity": 112,
      "chip": "ym2612"
    },
    {
      "channel": 3,
      "note": 74,
      "start": 58.4677,
      "duration": 0.0752,
      "velocity": 106,
      "chip": "ym2612"
    },
    {
      "channel": 2,
      "note": 64,
      "start": 58.4704,
      "duration": 0.0409,
      "velocity": 1,
      "chip": "ym2612"
    },
    {
      "channel": 2,
      "note": 73,
      "start": 58.5152,
      "duration": 0.044,
      "velocity": 1,
      "chip": "ym2612"
    },
    {
      "channel": 3,
      "note": 73,
      "start": 58.5615,
      "duration": 0.0772,
      "velocity": 106,
      "chip": "ym2612"
    },
    {
      "channel": 4,
      "note": 80,
      "start": 58.5619,
      "duration": 0.1885,
      "velocity": 74,
      "chip": "ym2612"
    },
    {
      "channel": 5,
      "note": 52,
      "start": 58.5626,
      "duration": 1.5793,
      "velocity": 112,
      "chip": "ym2612"
    },
    {
      "channel": 2,
      "note": 77,
      "start": 58.5645,
      "duration": 0.0908,
      "velocity": 1,
      "chip": "ym2612"
    },
    {
      "channel": 0,
      "note": 76,
      "start": 58.6546,
      "duration": 0.7812,
      "velocity": 74,
      "chip": "ym2612"
    },
    {
      "channel": 3,
      "note": 66,
      "start": 58.6576,
      "duration": 0.0927,
      "velocity": 106,
      "chip": "ym2612"
    },
    {
      "channel": 2,
      "note": 103,
      "start": 58.6598,
      "duration": 0.1067,
      "velocity": 1,
      "chip": "ym2612"
    },
    {
      "channel": 3,
      "note": 73,
      "start": 58.7689,
      "duration": 0.0771,
      "velocity": 106,
      "chip": "ym2612"
    },
    {
      "channel": 4,
      "note": 76,
      "start": 58.7694,
      "duration": 0.7627,
      "velocity": 74,
      "chip": "ym2612"
    },
    {
      "channel": 2,
      "note": 103,
      "start": 58.7712,
      "duration": 0.091,
      "velocity": 1,
      "chip": "ym2612"
    },
    {
      "channel": 3,
      "note": 74,
      "start": 58.865,
      "duration": 0.0766,
      "velocity": 106,
      "chip": "ym2612"
    },
    {
      "channel": 2,
      "note": 73,
      "start": 58.8671,
      "duration": 0.0908,
      "velocity": 1,
      "chip": "ym2612"
    },
    {
      "channel": 3,
      "note": 73,
      "start": 58.9603,
      "duration": 0.0771,
      "velocity": 106,
      "chip": "ym2612"
    },
    {
      "channel": 2,
      "note": 103,
      "start": 58.9622,
      "duration": 0.0914,
      "velocity": 1,
      "chip": "ym2612"
    },
    {
      "channel": 3,
      "note": 66,
      "start": 59.0559,
      "duration": 0.0771,
      "velocity": 106,
      "chip": "ym2612"
    },
    {
      "channel": 2,
      "note": 64,
      "start": 59.0579,
      "duration": 0.0915,
      "velocity": 1,
      "chip": "ym2612"
    },
    {
      "channel": 3,
      "note": 73,
      "start": 59.1517,
      "duration": 0.093,
      "velocity": 106,
      "chip": "ym2612"
    },
    {
      "channel": 2,
      "note": 64,
      "start": 59.1536,
      "duration": 0.1074,
      "velocity": 1,
      "chip": "ym2612"
    },
    {
      "channel": 3,
      "note": 74,
      "start": 59.2637,
      "duration": 0.0768,
      "velocity": 106,
      "chip": "ym2612"
    },
    {
      "channel": 2,
      "note": 26,
      "start": 59.2658,
      "duration": 0.0434,
      "velocity": 120,
      "chip": "ym2612"
    },
    {
      "channel": 3,
      "note": 73,
      "start": 59.359,
      "duration": 0.0772,
      "velocity": 106,
      "chip": "ym2612"
    },
    {
      "channel": 2,
      "note": 26,
      "start": 59.3609,
      "duration": 0.0437,
      "velocity": 1,
      "chip": "ym2612"
    },
    {
      "channel": 2,
      "note": 103,
      "start": 59.4082,
      "duration": 0.0446,
      "velocity": 1,
      "chip": "ym2612"
    },
    {
      "channel": 0,
      "note": 71,
      "start": 59.4521,
      "duration": 0.0795,
      "velocity": 74,
      "chip": "ym2612"
    },
    {
      "channel": 3,
      "note": 66,
      "start": 59.4551,
      "duration": 0.0768,
      "velocity": 106,
      "chip": "ym2612"
    },
    {
      "channel": 2,
      "note": 103,
      "start": 59.4573,
      "duration": 0.0912,
      "velocity": 1,
      "chip": "ym2612"
    },
    {
      "channel": 0,
      "note": 73,
      "start": 59.5479,
      "duration": 0.0793,
      "velocity": 74,
      "chip": "ym2612"
    },
    {
      "channel": 3,
      "note": 73,
      "start": 59.5509,
      "duration": 0.0767,
      "velocity": 106,
      "chip": "ym2612"
    },
    {
      "channel": 4,
      "note": 71,
      "start": 59.5514,
      "duration": 0.0764,
      "velocity": 74,
      "chip": "ym2612"
    },
    {
      "channel": 2,
      "note": 103,
      "start": 59.5535,
      "duration": 0.0907,
      "velocity": 1,
      "chip": "ym2612"
    },
    {
      "channel": 0,
      "note": 74,
      "start": 59.6435,
      "duration": 0.0954,
      "velocity": 74,
      "chip": "ym2612"
    },
    {
      "channel": 3,
      "note": 74,
      "start": 59.6468,
      "duration": 0.0924,
      "velocity": 106,
      "chip": "ym2612"
    },
    {
      "channel": 4,
      "note": 73,
      "start": 59.6474,
      "duration": 0.092,
      "velocity": 74,
      "chip": "ym2612"
    },
    {
      "channel": 2,
      "note": 73,
      "start": 59.6497,
      "duration": 0.026,
      "velocity": 1,
      "chip": "ym2612"
    },
    {
      "channel": 2,
      "note": 73,
      "start": 59.6795,
      "duration": 0.044,
      "velocity": 1,
      "chip": "ym2612"
    },
    {
      "channel": 2,
      "note": 73,
      "start": 59.7273,
      "duration": 0.0285,
      "velocity": 1,
      "chip": "ym2612"
    },
    {
      "channel": 0,
      "note": 76,
      "start": 59.7551,
      "duration": 0.0795,
      "velocity": 74,
      "chip": "ym2612"
    },
    {
      "channel": 3,
      "note": 73,
      "start": 59.7581,
      "duration": 0.0768,
      "velocity": 106,
      "chip": "ym2612"
    },
    {
      "channel": 4,
      "note": 74,
      "start": 59.7586,
      "duration": 0.0765,
      "velocity": 74,
      "chip": "ym2612"
    },
    {
      "channel": 2,
      "note": 73,
      "start": 59.7607,
      "duration": 0.0908,
      "velocity": 1,
      "chip": "ym2612"
    },
    {
      "channel": 0,
      "note": 78,
      "start": 59.8509,
      "duration": 0.0794,
      "velocity": 74,
      "chip": "ym2612"
    },
    {
      "channel": 3,
      "note": 66,
      "start": 59.8539,
      "duration": 0.0768,
      "velocity": 106,
      "chip": "ym2612"
    },
    {
      "channel": 4,
      "note": 76,
      "start": 59.8544,
      "duration": 0.0765,
      "velocity": 74,
      "chip": "ym2612"
    },
    {
      "channel": 2,
      "note": 103,
      "start": 59.8565,
      "duration": 0.0908,
      "velocity": 1,
      "chip": "ym2612"
    },
    {
      "channel": 0,
      "note": 79,
      "start": 59.9465,
      "duration": 0.0156,
      "velocity": 74,
      "chip": "ym2612"
    },
    {
      "channel": 3,
      "note": 73,
      "start": 59.9497,
      "duration": 0.0767,
      "velocity": 106,
      "chip": "ym2612"
    },
    {
      "channel": 4,
      "note": 78,
      "start": 59.9501,
      "duration": 0.0765,
      "velocity": 74,
      "chip": "ym2612"
    },
    {
      "channel": 2,
      "note": 26,
      "start": 59.9522,
      "duration": 0.0425,
      "velocity": 1,
      "chip": "ym2612"
    },
    {
      "channel": 0,
      "note": 80,
      "start": 59.9785,
      "duration": 0.0475,
      "velocity": 74,
      "chip": "ym2612"
    },
    {
      "channel": 2,
      "note": 64,
      "start": 59.9986,
      "duration": 0.0447,
      "velocity": 1,
      "chip": "ym2612"
    },
    {
      "channel": 0,
      "note": 81,
      "start": 60.0423,
      "duration": 0.0794,
      "velocity": 74,
      "chip": "ym2612"
    },
    {
      "channel": 1,
      "note": 52,
      "start": 60.0427,
      "duration": 1.5791,
      "velocity": 112,
      "chip": "ym2612"
    },
    {
      "channel": 3,
      "note": 74,
      "start": 60.0465,
      "duration": 0.0755,
      "velocity": 106,
      "chip": "ym2612"
    },
    {
      "channel": 4,
      "note": 79,
      "start": 60.0471,
      "duration": 0.0112,
      "velocity": 74,
      "chip": "ym2612"
    },
    {
      "channel": 2,
      "note": 64,
      "start": 60.0497,
      "duration": 0.0408,
      "velocity": 1,
      "chip": "ym2612"
    },
    {
      "channel": 4,
      "note": 80,
      "start": 60.0746,
      "duration": 0.0477,
      "velocity": 74,
      "chip": "ym2612"
    },
    {
      "channel": 2,
      "note": 73,
      "start": 60.0942,
      "duration": 0.0445,
      "velocity": 1,
      "chip": "ym2612"
    },
    {
      "channel": 0,
      "note": 80,
      "start": 60.1379,
      "duration": 0.0954,
      "velocity": 74,
      "chip": "ym2612"
    },
    {
      "channel": 3,
      "note": 73,
      "start": 60.1409,
      "duration": 0.0928,
      "velocity": 106,
      "chip": "ym2612"
    },
    {
      "channel": 4,
      "note": 81,
      "start": 60.1415,
      "duration": 0.0924,
      "velocity": 74,
      "chip": "ym2612"
    },
    {
      "channel": 5,
      "note": 52,
      "start": 60.142,
      "duration": 1.5788,
      "velocity": 112,
      "chip": "ym2612"
    },
    {
      "channel": 2,
      "note": 77,
      "start": 60.1439,
      "duration": 0.1064,
      "velocity": 1,
      "chip": "ym2612"
    },
    {
      "channel": 0,
      "note": 83,
      "start": 60.2496,
      "duration": 0.0795,
      "velocity": 74,
      "chip": "ym2612"
    },
    {
      "channel": 3,
      "note": 66,
      "start": 60.2527,
      "duration": 0.0768,
      "velocity": 106,
      "chip": "ym2612"
    },
    {
      "channel": 4,
      "note": 80,
      "start": 60.2531,
      "duration": 0.0765,
      "velocity": 74,
      "chip": "ym2612"
    },
    {
      "channel": 2,
      "note": 103,
      "start": 60.2552,
      "duration": 0.0908,
      "velocity": 1,
      "chip": "ym2612"
    },
    {
      "channel": 0,
      "note": 81,
      "start": 60.3453,
      "duration": 0.0794,
      "velocity": 74,
      "chip": "ym2612"
    },
    {
      "channel": 3,
      "note": 73,
      "start": 60.3484,
      "duration": 0.0767,
      "velocity": 106,
      "chip": "ym2612"
    },
    {
      "channel": 4,
      "note": 83,
      "start": 60.3489,
      "duration": 0.0764,
      "velocity": 74,
      "chip": "ym2612"
    },
    {
      "channel": 2,
      "note": 103,
      "start": 60.351,
      "duration": 0.0907,
      "velocity": 1,
      "chip": "ym2612"
    },
    {
      "channel": 0,
      "note": 80,
      "start": 60.441,
      "duration": 0.0795,
      "velocity": 74,
      "chip": "ym2612"
    },
    {
      "channel": 3,
      "note": 74,
      "start": 60.4444,
      "duration": 0.0765,
      "velocity": 106,
      "chip": "ym2612"
    },
    {
      "channel": 4,
      "note": 81,
      "start": 60.4449,
      "duration": 0.0761,
      "velocity": 74,
      "chip": "ym2612"
    },
    {
      "channel": 2,
      "note": 73,
      "start": 60.4472,
      "duration": 0.0902,
      "velocity": 1,
      "chip": "ym2612"
    },
    {
      "channel": 0,
      "note": 78,
      "start": 60.5367,
      "duration": 0.0794,
      "velocity": 74,
      "chip": "ym2612"
    },
    {
      "channel": 3,
      "note": 73,
      "start": 60.5397,
      "duration": 0.0768,
      "velocity": 106,
      "chip": "ym2612"
    },
    {
      "channel": 4,
      "note": 80,
      "start": 60.5402,
      "duration": 0.0765,
      "velocity": 74,
      "chip": "ym2612"
    },
    {
      "channel": 2,
      "note": 103,
      "start": 60.5423,
      "duration": 0.0908,
      "velocity": 1,
      "chip": "ym2612"
    },
    {
      "channel": 0,
      "note": 80,
      "start": 60.6324,
      "duration": 0.0795,
      "velocity": 74,
      "chip": "ym2612"
    },
    {
      "channel": 3,
      "note": 66,
      "start": 60.6354,
      "duration": 0.0768,
      "velocity": 106,
      "chip": "ym2612"
    },
    {
      "channel": 4,
      "note": 78,
      "start": 60.6359,
      "duration": 0.0765,
      "velocity": 74,
      "chip": "ym2612"
    },
    {
      "channel": 2,
      "note": 64,
      "start": 60.638,
      "duration": 0.1068,
      "velocity": 1,
      "chip": "ym2612"
    },
    {
      "channel": 0,
      "note": 78,
      "start": 60.7441,
      "duration": 0.0795,
      "velocity": 74,
      "chip": "ym2612"
    },
    {
      "channel": 3,
      "note": 73,
      "start": 60.7471,
      "duration": 0.0768,
      "velocity": 106,
      "chip": "ym2612"
    },
    {
      "channel": 4,
      "note": 80,
      "start": 60.7476,
      "duration": 0.0765,
      "velocity": 74,
      "chip": "ym2612"
    },
    {
      "channel": 2,
      "note": 64,
      "start": 60.7498,
      "duration": 0.0907,
      "velocity": 1,
      "chip": "ym2612"
    },
    {
      "channel": 0,
      "note": 76,
      "start": 60.8398,
      "duration": 0.0794,
      "velocity": 74,
      "chip": "ym2612"
    },
    {
      "channel": 3,
      "note": 74,
      "start": 60.8432,
      "duration": 0.0764,
      "velocity": 106,
      "chip": "ym2612"
    },
    {
      "channel": 4,
      "note": 78,
      "start": 60.8436,
      "duration": 0.0761,
      "velocity": 74,
      "chip": "ym2612"
    },
    {
      "channel": 2,
      "note": 26,
      "start": 60.8458,
      "duration": 0.0426,
      "velocity": 120,
      "chip": "ym2612"
    },
    {
      "channel": 0,
      "note": 78,
      "start": 60.9355,
      "duration": 0.0795,
      "velocity": 74,
      "chip": "ym2612"
    },
    {
      "channel": 3,
      "note": 73,
      "start": 60.9385,
      "duration": 0.0768,
      "velocity": 106,
      "chip": "ym2612"
    },
    {
      "channel": 4,
      "note": 76,
      "start": 60.939,
      "duration": 0.0765,
      "velocity": 74,
      "chip": "ym2612"
    },
    {
      "channel": 2,
      "note": 26,
      "start": 60.9411,
      "duration": 0.0426,
      "velocity": 1,
      "chip": "ym2612"
    },
    {
      "channel": 2,
      "note": 103,
      "start": 60.9874,
      "duration": 0.0445,
      "velocity": 1,
      "chip": "ym2612"
    },
    {
      "channel": 0,
      "note": 80,
      "start": 61.0313,
      "duration": 0.0793,
      "velocity": 74,
      "chip": "ym2612"
    },
    {
      "channel": 3,
      "note": 66,
      "start": 61.0343,
      "duration": 0.0767,
      "velocity": 106,
      "chip": "ym2612"
    },
    {
      "channel": 4,
      "note": 78,
      "start": 61.0348,
      "duration": 0.0764,
      "velocity": 74,
      "chip": "ym2612"
    },
    {
      "channel": 2,
      "note": 103,
      "start": 61.0369,
      "duration": 0.0907,
      "velocity": 1,
      "chip": "ym2612"
    },
    {
      "channel": 0,
      "note": 81,
      "start": 61.1269,
      "duration": 0.0795,
      "velocity": 74,
      "chip": "ym2612"
    },
    {
      "channel": 3,
      "note": 73,
      "start": 61.1299,
      "duration": 0.0768,
      "velocity": 106,
      "chip": "ym2612"
    },
    {
      "channel": 4,
      "note": 80,
      "start": 61.1304,
      "duration": 0.0765,
      "velocity": 74,
      "chip": "ym2612"
    },
    {
      "channel": 2,
      "note": 103,
      "start": 61.1325,
      "duration": 0.0907,
      "velocity": 1,
      "chip": "ym2612"
    },
    {
      "channel": 0,
      "note": 83,
      "start": 61.2226,
      "duration": 0.0954,
      "velocity": 74,
      "chip": "ym2612"
    },
    {
      "channel": 3,
      "note": 74,
      "start": 61.226,
      "duration": 0.0924,
      "velocity": 106,
      "chip": "ym2612"
    },
    {
      "channel": 4,
      "note": 81,
      "start": 61.2264,
      "duration": 0.0921,
      "velocity": 74,
      "chip": "ym2612"
    },
    {
      "channel": 2,
      "note": 73,
      "start": 61.2287,
      "duration": 0.042,
      "velocity": 1,
      "chip": "ym2612"
    },
    {
      "channel": 2,
      "note": 73,
      "start": 61.2745,
      "duration": 0.0281,
      "velocity": 1,
      "chip": "ym2612"
    },
    {
      "channel": 2,
      "note": 73,
      "start": 61.3065,
      "duration": 0.0284,
      "velocity": 1,
      "chip": "ym2612"
    },
    {
      "channel": 0,
      "note": 85,
      "start": 61.3343,
      "duration": 0.0795,
      "velocity": 74,
      "chip": "ym2612"
    },
    {
      "channel": 3,
      "note": 73,
      "start": 61.3373,
      "duration": 0.0768,
      "velocity": 106,
      "chip": "ym2612"
    },
    {
      "channel": 4,
      "note": 83,
      "start": 61.3378,
      "duration": 0.0765,
      "velocity": 74,
      "chip": "ym2612"
    },
    {
      "channel": 2,
      "note": 73,
      "start": 61.3399,
      "duration": 0.0908,
      "velocity": 1,
      "chip": "ym2612"
    },
    {
      "channel": 0,
      "note": 86,
      "start": 61.4299,
      "duration": 0.0795,
      "velocity": 74,
      "chip": "ym2612"
    },
    {
      "channel": 3,
      "note": 66,
      "start": 61.433,
      "duration": 0.0767,
      "velocity": 106,
      "chip": "ym2612"
    },
    {
      "channel": 4,
      "note": 85,
      "start": 61.4335,
      "duration": 0.0765,
      "velocity": 74,
      "chip": "ym2612"
    },
    {
      "channel": 2,
      "note": 103,
      "start": 61.4356,
      "duration": 0.0907,
      "velocity": 1,
      "chip": "ym2612"
    },
    {
      "channel": 0,
      "note": 85,
      "start": 61.5257,
      "duration": 0.0794,
      "velocity": 74,
      "chip": "ym2612"
    },
    {
      "channel": 3,
      "note": 73,
      "start": 61.5287,
      "duration": 0.0768,
      "velocity": 106,
      "chip": "ym2612"
    },
    {
      "channel": 4,
      "note": 86,
      "start": 61.5292,
      "duration": 0.0765,
      "velocity": 74,
      "chip": "ym2612"
    },
    {
      "channel": 2,
      "note": 26,
      "start": 61.5313,
      "duration": 0.0426,
      "velocity": 1,
      "chip": "ym2612"
    },
    {
      "channel": 2,
      "note": 64,
      "start": 61.5776,
      "duration": 0.0449,
      "velocity": 1,
      "chip": "ym2612"
    },
    {
      "channel": 0,
      "note": 88,
      "start": 61.6213,
      "duration": 0.5739,
      "velocity": 74,
      "chip": "ym2612"
    },
    {
      "channel": 1,
      "note": 52,
      "start": 61.6219,
      "duration": 1.5788,
      "velocity": 112,
      "chip": "ym2612"
    },
    {
      "channel": 3,
      "note": 74,
      "start": 61.6257,
      "duration": 0.0754,
      "velocity": 106,
      "chip": "ym2612"
    },
    {
      "channel": 4,
      "note": 85,
      "start": 61.6261,
      "duration": 0.0752,
      "velocity": 74,
      "chip": "ym2612"
    },
    {
      "channel": 2,
      "note": 64,
      "start": 61.6287,
      "duration": 0.0408,
      "velocity": 1,
      "chip": "ym2612"
    },
    {
      "channel": 2,
      "note": 73,
      "start": 61.6733,
      "duration": 0.044,
      "velocity": 1,
      "chip": "ym2612"
    },
    {
      "channel": 3,
      "note": 73,
      "start": 61.7197,
      "duration": 0.0931,
      "velocity": 106,
      "chip": "ym2612"
    },
    {
      "channel": 4,
      "note": 88,
      "start": 61.7202,
      "duration": 0.5872,
      "velocity": 74,
      "chip": "ym2612"
    },
    {
      "channel": 5,
      "note": 52,
      "start": 61.7207,
      "duration": 1.5947,
      "velocity": 112,
      "chip": "ym2612"
    },
    {
      "channel": 2,
      "note": 77,
      "start": 61.7225,
      "duration": 0.1066,
      "velocity": 1,
      "chip": "ym2612"
    },
    {
      "channel": 3,
      "note": 66,
      "start": 61.8315,
      "duration": 0.077,
      "velocity": 106,
      "chip": "ym2612"
    },
    {
      "channel": 2,
      "note": 103,
      "start": 61.8334,
      "duration": 0.0914,
      "velocity": 1,
      "chip": "ym2612"
    },
    {
      "channel": 3,
      "note": 73,
      "start": 61.9271,
      "duration": 0.0771,
      "velocity": 106,
      "chip": "ym2612"
    },
    {
      "channel": 2,
      "note": 103,
      "start": 61.929,
      "duration": 0.0915,
      "velocity": 1,
      "chip": "ym2612"
    },
    {
      "channel": 3,
      "note": 74,
      "start": 62.0231,
      "duration": 0.0767,
      "velocity": 106,
      "chip": "ym2612"
    },
    {
      "channel": 2,
      "note": 73,
      "start": 62.0252,
      "duration": 0.0909,
      "velocity": 1,
      "chip": "ym2612"
    },
    {
      "channel": 3,
      "note": 73,
      "start": 62.1185,
      "duration": 0.0772,
      "velocity": 106,
      "chip": "ym2612"
    },
    {
      "channel": 2,
      "note": 103,
      "start": 62.1204,
      "duration": 0.0919,
      "velocity": 1,
      "chip": "ym2612"
    },
    {
      "channel": 0,
      "note": 86,
      "start": 62.2115,
      "duration": 0.3824,
      "velocity": 74,
      "chip": "ym2612"
    },
    {
      "channel": 3,
      "note": 66,
      "start": 62.2146,
      "duration": 0.0926,
      "velocity": 106,
      "chip": "ym2612"
    },
    {
      "channel": 2,
      "note": 64,
      "start": 62.2169,
      "duration": 0.1066,
      "velocity": 1,
      "chip": "ym2612"
    },
    {
      "channel": 3,
      "note": 73,
      "start": 62.3259,
      "duration": 0.0771,
      "velocity": 106,
      "chip": "ym2612"
    },
    {
      "channel": 4,
      "note": 86,
      "start": 62.3263,
      "duration": 0.3639,
      "velocity": 74,
      "chip": "ym2612"
    },
    {
      "channel": 2,
      "note": 64,
      "start": 62.3282,
      "duration": 0.091,
      "velocity": 1,
      "chip": "ym2612"
    },
    {
      "channel": 3,
      "note": 74,
      "start": 62.4219,
      "duration": 0.0768,
      "velocity": 106,
      "chip": "ym2612"
    },
    {
      "channel": 2,
      "note": 26,
      "start": 62.4239,
      "duration": 0.0435,
      "velocity": 120,
      "chip": "ym2612"
    },
    {
      "channel": 3,
      "note": 73,
      "start": 62.5173,
      "duration": 0.0771,
      "velocity": 106,
      "chip": "ym2612"
    },
    {
      "channel": 2,
      "note": 26,
      "start": 62.5192,
      "duration": 0.0436,
      "velocity": 1,
      "chip": "ym2612"
    },
    {
      "channel": 2,
      "note": 103,
      "start": 62.5665,
      "duration": 0.0445,
      "velocity": 1,
      "chip": "ym2612"
    },
    {
      "channel": 0,
      "note": 85,
      "start": 62.6103,
      "duration": 0.1911,
      "velocity": 74,
      "chip": "ym2612"
    },
    {
      "channel": 3,
      "note": 66,
      "start": 62.6133,
      "duration": 0.0767,
      "velocity": 106,
      "chip": "ym2612"
    },
    {
      "channel": 2,
      "note": 103,
      "start": 62.6156,
      "duration": 0.0906,
      "velocity": 1,
      "chip": "ym2612"
    },
    {
      "channel": 3,
      "note": 73,
      "start": 62.7086,
      "duration": 0.0931,
      "velocity": 106,
      "chip": "ym2612"
    },
    {
      "channel": 4,
      "note": 85,
      "start": 62.7091,
      "duration": 0.1884,
      "velocity": 74,
      "chip": "ym2612"
    },
    {
      "channel": 2,
      "note": 103,
      "start": 62.711,
      "duration": 0.1073,
      "velocity": 1,
      "chip": "ym2612"
    },
    {
      "channel": 0,
      "note": 83,
      "start": 62.8177,
      "duration": 0.1751,
      "velocity": 74,
      "chip": "ym2612"
    },
    {
      "channel": 3,
      "note": 74,
      "start": 62.821,
      "duration": 0.0763,
      "velocity": 106,
      "chip": "ym2612"
    },
    {
      "channel": 2,
      "note": 73,
      "start": 62.8234,
      "duration": 0.0265,
      "velocity": 1,
      "chip": "ym2612"
    },
    {
      "channel": 2,
      "note": 73,
      "start": 62.8537,
      "duration": 0.0282,
      "velocity": 1,
      "chip": "ym2612"
    },
    {
      "channel": 2,
      "note": 73,
      "start": 62.8856,
      "duration": 0.028,
      "velocity": 1,
      "chip": "ym2612"
    },
    {
      "channel": 3,
      "note": 73,
      "start": 62.9161,
      "duration": 0.0771,
      "velocity": 106,
      "chip": "ym2612"
    },
    {
      "channel": 4,
      "note": 83,
      "start": 62.9166,
      "duration": 0.1724,
      "velocity": 74,
      "chip": "ym2612"
    },
    {
      "channel": 2,
      "note": 73,
      "start": 62.9185,
      "duration": 0.0913,
      "velocity": 1,
      "chip": "ym2612"
    },
    {
      "channel": 0,
      "note": 85,
      "start": 63.0091,
      "duration": 0.3825,
      "velocity": 74,
      "chip": "ym2612"
    },
    {
      "channel": 3,
      "note": 66,
      "start": 63.0121,
      "duration": 0.0767,
      "velocity": 106,
      "chip": "ym2612"
    },
    {
      "channel": 2,
      "note": 103,
      "start": 63.0143,
      "duration": 0.0908,
      "velocity": 1,
      "chip": "ym2612"
    },
    {
      "channel": 3,
      "note": 73,
      "start": 63.1074,
      "duration": 0.0771,
      "velocity": 106,
      "chip": "ym2612"
    },
    {
      "channel": 4,
      "note": 85,
      "start": 63.1079,
      "duration": 0.3798,
      "velocity": 74,
      "chip": "ym2612"
    },
    {
      "channel": 2,
      "note": 26,
      "start": 63.1098,
      "duration": 0.0431,
      "velocity": 1,
      "chip": "ym2612"
    },
    {
      "channel": 2,
      "note": 64,
      "start": 63.1567,
      "duration": 0.0444,
      "velocity": 1,
      "chip": "ym2612"
    },
    {
      "channel": 1,
      "note": 52,
      "start": 63.2006,
      "duration": 1.5628,
      "velocity": 112,
      "chip": "ym2612"
    },
    {
      "channel": 3,
      "note": 74,
      "start": 63.2044,
      "duration": 0.0918,
      "velocity": 106,
      "chip": "ym2612"
    },
    {
      "channel": 2,
      "note": 26,
      "start": 63.2067,
      "duration": 0.026,
      "velocity": 1,
      "chip": "ym2612"
    },
    {
      "channel": 2,
      "note": 26,
      "start": 63.2363,
      "duration": 0.0448,
      "velocity": 120,
      "chip": "ym2612"
    },
    {
      "channel": 3,
      "note": 73,
      "start": 63.3149,
      "duration": 0.0771,
      "velocity": 106,
      "chip": "ym2612"
    },
    {
      "channel": 5,
      "note": 52,
      "start": 63.3154,
      "duration": 1.5603,
      "velocity": 112,
      "chip": "ym2612"
    },
    {
      "channel": 2,
      "note": 64,
      "start": 63.3171,
      "duration": 0.0914,
      "velocity": 1,
      "chip": "ym2612"
    },
    {
      "channel": 0,
      "note": 81,
      "start": 63.4078,
      "duration": 0.1752,
      "velocity": 74,
      "chip": "ym2612"
    },
    {
      "channel": 3,
      "note": 66,
      "start": 63.4108,
      "duration": 0.0767,
      "velocity": 106,
      "chip": "ym2612"
    },
    {
      "channel": 2,
      "note": 73,
      "start": 63.4131,
      "duration": 0.0908,
      "velocity": 1,
      "chip": "ym2612"
    },
    {
      "channel": 3,
      "note": 73,
      "start": 63.5062,
      "duration": 0.0771,
      "velocity": 106,
      "chip": "ym2612"
    },
    {
      "channel": 4,
      "note": 81,
      "start": 63.5066,
      "duration": 0.1725,
      "velocity": 74,
      "chip": "ym2612"
    },
    {
      "channel": 2,
      "note": 103,
      "start": 63.5085,
      "duration": 0.0914,
      "velocity": 1,
      "chip": "ym2612"
    },
    {
      "channel": 0,
      "note": 83,
      "start": 63.5992,
      "duration": 0.3825,
      "velocity": 74,
      "chip": "ym2612"
    },
    {
      "channel": 3,
      "note": 74,
      "start": 63.6026,
      "duration": 0.0764,
      "velocity": 106,
      "chip": "ym2612"
    },
    {
      "channel": 2,
      "note": 26,
      "start": 63.605,
      "duration": 0.043,
      "velocity": 120,
      "chip": "ym2612"
    },
    {
      "channel": 3,
      "note": 73,
      "start": 63.6976,
      "duration": 0.0771,
      "velocity": 106,
      "chip": "ym2612"
    },
    {
      "channel": 4,
      "note": 83,
      "start": 63.6981,
      "duration": 0.3798,
      "velocity": 74,
      "chip": "ym2612"
    },
    {
      "channel": 2,
      "note": 103,
      "start": 63.7,
      "duration": 0.1069,
      "velocity": 1,
      "chip": "ym2612"
    },
    {
      "channel": 3,
      "note": 66,
      "start": 63.8093,
      "duration": 0.0771,
      "velocity": 106,
      "chip": "ym2612"
    },
    {
      "channel": 2,
      "note": 73,
      "start": 63.8112,
      "duration": 0.0914,
      "velocity": 1,
      "chip": "ym2612"
    },
    {
      "channel": 3,
      "note": 73,
      "start": 63.9049,
      "duration": 0.0771,
      "velocity": 106,
      "chip": "ym2612"
    },
    {
      "channel": 2,
      "note": 103,
      "start": 63.9068,
      "duration": 0.0919,
      "velocity": 1,
      "chip": "ym2612"
    },
    {
      "channel": 0,
      "note": 85,
      "start": 63.9981,
      "duration": 0.3824,
      "velocity": 74,
      "chip": "ym2612"
    },
    {
      "channel": 3,
      "note": 74,
      "start": 64.0014,
      "duration": 0.0763,
      "velocity": 106,
      "chip": "ym2612"
    },
    {
      "channel": 2,
      "note": 64,
      "start": 64.0039,
      "duration": 0.0901,
      "velocity": 1,
      "chip": "ym2612"
    },
    {
      "channel": 3,
      "note": 73,
      "start": 64.0963,
      "duration": 0.0771,
      "velocity": 106,
      "chip": "ym2612"
    },
    {
      "channel": 4,
      "note": 85,
      "start": 64.0968,
      "duration": 0.3799,
      "velocity": 74,
      "chip": "ym2612"
    },
    {
      "channel": 2,
      "note": 103,
      "start": 64.0988,
      "duration": 0.091,
      "velocity": 1,
      "chip": "ym2612"
    },
    {
      "channel": 3,
      "note": 66,
      "start": 64.192,
      "duration": 0.0771,
      "velocity": 106,
      "chip": "ym2612"
    },
    {
      "channel": 2,
      "note": 103,
      "start": 64.194,
      "duration": 0.0914,
      "velocity": 1,
      "chip": "ym2612"
    },
    {
      "channel": 3,
      "note": 73,
      "start": 64.2878,
      "duration": 0.0931,
      "velocity": 106,
      "chip": "ym2612"
    },
    {
      "channel": 2,
      "note": 103,
      "start": 64.2897,
      "duration": 0.1078,
      "velocity": 1,
      "chip": "ym2612"
    },
    {
      "channel": 0,
      "note": 86,
      "start": 64.3967,
      "duration": 0.3666,
      "velocity": 74,
      "chip": "ym2612"
    },
    {
      "channel": 3,
      "note": 74,
      "start": 64.4002,
      "duration": 0.0763,
      "velocity": 106,
      "chip": "ym2612"
    },
    {
      "channel": 2,
      "note": 64,
      "start": 64.4026,
      "duration": 0.0264,
      "velocity": 1,
      "chip": "ym2612"
    },
    {
      "channel": 2,
      "note": 73,
      "start": 64.4328,
      "duration": 0.028,
      "velocity": 1,
      "chip": "ym2612"
    },
    {
      "channel": 2,
      "note": 64,
      "start": 64.4647,
      "duration": 0.028,
      "velocity": 1,
      "chip": "ym2612"
    },
    {
      "channel": 3,
      "note": 73,
      "start": 64.4951,
      "duration": 0.0771,
      "velocity": 106,
      "chip": "ym2612"
    },
    {
      "channel": 4,
      "note": 86,
      "start": 64.4956,
      "duration": 0.38,
      "velocity": 74,
      "chip": "ym2612"
    },
    {
      "channel": 2,
      "note": 64,
      "start": 64.4975,
      "duration": 0.091,
      "velocity": 1,
      "chip": "ym2612"
    },
    {
      "channel": 3,
      "note": 66,
      "start": 64.5908,
      "duration": 0.0771,
      "velocity": 106,
      "chip": "ym2612"
    },
    {
      "channel": 2,
      "note": 26,
      "start": 64.5927,
      "duration": 0.0441,
      "velocity": 120,
      "chip": "ym2612"
    },
    {
      "channel": 3,
      "note": 73,
      "start": 64.6866,
      "duration": 0.0772,
      "velocity": 106,
      "chip": "ym2612"
    },
    {
      "channel": 2,
      "note": 26,
      "start": 64.6884,
      "duration": 0.0441,
      "velocity": 120,
      "chip": "ym2612"
    },
    {
      "channel": 0,
      "note": 86,
      "start": 64.7795,
      "duration": 0.0954,
      "velocity": 74,
      "chip": "ym2612"
    },
    {
      "channel": 1,
      "note": 50,
      "start": 64.7802,
      "duration": 1.5945,
      "velocity": 112,
      "chip": "ym2612"
    },
    {
      "channel": 3,
      "note": 74,
      "start": 64.7841,
      "duration": 0.0912,
      "velocity": 106,
      "chip": "ym2612"
    },
    {
      "channel": 2,
      "note": 64,
      "start": 64.7868,
      "duration": 0.0569,
      "velocity": 1,
      "chip": "ym2612"
    },
    {
      "channel": 2,
      "note": 73,
      "start": 64.8475,
      "duration": 0.0444,
      "velocity": 1,
      "chip": "ym2612"
    },
    {
      "channel": 0,
      "note": 86,
      "start": 64.8911,
      "duration": 0.0795,
      "velocity": 74,
      "chip": "ym2612"
    },
    {
      "channel": 3,
      "note": 73,
      "start": 64.8942,
      "duration": 0.0768,
      "velocity": 106,
      "chip": "ym2612"
    },
    {
      "channel": 4,
      "note": 86,
      "start": 64.8947,
      "duration": 0.0765,
      "velocity": 74,
      "chip": "ym2612"
    },
    {
      "channel": 5,
      "note": 50,
      "start": 64.8953,
      "duration": 1.5782,
      "velocity": 112,
      "chip": "ym2612"
    },
    {
      "channel": 2,
      "note": 77,
      "start": 64.8973,
      "duration": 0.0903,
      "velocity": 1,
      "chip": "ym2612"
    },
    {
      "channel": 0,
      "note": 83,
      "start": 64.9869,
      "duration": 0.0794,
      "velocity": 74,
      "chip": "ym2612"
    },
    {
      "channel": 3,
      "note": 66,
      "start": 64.9899,
      "duration": 0.0768,
      "velocity": 106,
      "chip": "ym2612"
    },
    {
      "channel": 4,
      "note": 86,
      "start": 64.9904,
      "duration": 0.0766,
      "velocity": 74,
      "chip": "ym2612"
    },
    {
      "channel": 2,
      "note": 103,
      "start": 64.9925,
      "duration": 0.0908,
      "velocity": 1,
      "chip": "ym2612"
    },
    {
      "channel": 0,
      "note": 85,
      "start": 65.0826,
      "duration": 0.0795,
      "velocity": 74,
      "chip": "ym2612"
    },
    {
      "channel": 3,
      "note": 73,
      "start": 65.0856,
      "duration": 0.0768,
      "velocity": 106,
      "chip": "ym2612"
    },
    {
      "channel": 4,
      "note": 83,
      "start": 65.0861,
      "duration": 0.0765,
      "velocity": 74,
      "chip": "ym2612"
    },
    {
      "channel": 2,
      "note": 103,
      "start": 65.0882,
      "duration": 0.0908,
      "velocity": 1,
      "chip": "ym2612"
    },
    {
      "channel": 0,
      "note": 81,
      "start": 65.1783,
      "duration": 0.0795,
      "velocity": 74,
      "chip": "ym2612"
    },
    {
      "channel": 3,
      "note": 74,
      "start": 65.1818,
      "duration": 0.0764,
      "velocity": 106,
      "chip": "ym2612"
    },
    {
      "channel": 4,
      "note": 85,
      "start": 65.1822,
      "duration": 0.0761,
      "velocity": 74,
      "chip": "ym2612"
    },
    {
      "channel": 2,
      "note": 73,
      "start": 65.1845,
      "duration": 0.0902,
      "velocity": 1,
      "chip": "ym2612"
    },
    {
      "channel": 0,
      "note": 81,
      "start": 65.274,
      "duration": 0.0954,
      "velocity": 74,
      "chip": "ym2612"
    },
    {
      "channel": 3,
      "note": 73,
      "start": 65.2771,
      "duration": 0.0927,
      "velocity": 106,
      "chip": "ym2612"
    },
    {
      "channel": 4,
      "note": 81,
      "start": 65.2775,
      "duration": 0.0925,
      "velocity": 74,
      "chip": "ym2612"
    },
    {
      "channel": 2,
      "note": 103,
      "start": 65.2796,
      "duration": 0.1067,
      "velocity": 1,
      "chip": "ym2612"
    },
    {
      "channel": 0,
      "note": 85,
      "start": 65.3857,
      "duration": 0.0794,
      "velocity": 74,
      "chip": "ym2612"
    },
    {
      "channel": 3,
      "note": 66,
      "start": 65.3887,
      "duration": 0.0768,
      "velocity": 106,
      "chip": "ym2612"
    },
    {
      "channel": 4,
      "note": 81,
      "start": 65.3892,
      "duration": 0.0765,
      "velocity": 74,
      "chip": "ym2612"
    },
    {
      "channel": 2,
      "note": 64,
      "start": 65.3913,
      "duration": 0.0908,
      "velocity": 1,
      "chip": "ym2612"
    },
    {
      "channel": 0,
      "note": 86,
      "start": 65.4815,
      "duration": 0.0794,
      "velocity": 74,
      "chip": "ym2612"
    },
    {
      "channel": 3,
      "note": 73,
      "start": 65.4845,
      "duration": 0.0767,
      "velocity": 106,
      "chip": "ym2612"
    },
    {
      "channel": 4,
      "note": 85,
      "start": 65.485,
      "duration": 0.0765,
      "velocity": 74,
      "chip": "ym2612"
    },
    {
      "channel": 2,
      "note": 64,
      "start": 65.4871,
      "duration": 0.0907,
      "velocity": 1,
      "chip": "ym2612"
    },
    {
      "channel": 0,
      "note": 88,
      "start": 65.5771,
      "duration": 0.3506,
      "velocity": 74,
      "chip": "ym2612"
    },
    {
      "channel": 3,
      "note": 74,
      "start": 65.5805,
      "duration": 0.0763,
      "velocity": 106,
      "chip": "ym2612"
    },
    {
      "channel": 4,
      "note": 86,
      "start": 65.581,
      "duration": 0.0761,
      "velocity": 74,
      "chip": "ym2612"
    },
    {
      "channel": 2,
      "note": 26,
      "start": 65.5833,
      "duration": 0.0425,
      "velocity": 120,
      "chip": "ym2612"
    },
    {
      "channel": 3,
      "note": 73,
      "start": 65.6755,
      "duration": 0.077,
      "velocity": 106,
      "chip": "ym2612"
    },
    {
      "channel": 4,
      "note": 88,
      "start": 65.6759,
      "duration": 0.3479,
      "velocity": 74,
      "chip": "ym2612"
    },
    {
      "channel": 2,
      "note": 26,
      "start": 65.6778,
      "duration": 0.0431,
      "velocity": 1,
      "chip": "ym2612"
    },
    {
      "channel": 2,
      "note": 103,
      "start": 65.7247,
      "duration": 0.0441,
      "velocity": 1,
      "chip": "ym2612"
    },
    {
      "channel": 3,
      "note": 66,
      "start": 65.7712,
      "duration": 0.0931,
      "velocity": 106,
      "chip": "ym2612"
    },
    {
      "channel": 2,
      "note": 103,
      "start": 65.7731,
      "duration": 0.1074,
      "velocity": 1,
      "chip": "ym2612"
    },
    {
      "channel": 3,
      "note": 73,
      "start": 65.8829,
      "duration": 0.077,
      "velocity": 106,
      "chip": "ym2612"
    },
    {
      "channel": 2,
      "note": 103,
      "start": 65.8848,
      "duration": 0.0914,
      "velocity": 1,
      "chip": "ym2612"
    },
    {
      "channel": 0,
      "note": 86,
      "start": 65.944,
      "duration": 0.207,
      "velocity": 74,
      "chip": "ym2612"
    },
    {
      "channel": 3,
      "note": 74,
      "start": 65.9788,
      "duration": 0.0768,
      "velocity": 106,
      "chip": "ym2612"
    },
    {
      "channel": 2,
      "note": 73,
      "start": 65.9811,
      "duration": 0.027,
      "velocity": 1,
      "chip": "ym2612"
    },
    {
      "channel": 2,
      "note": 73,
      "start": 66.0119,
      "duration": 0.0281,
      "velocity": 1,
      "chip": "ym2612"
    },
    {
      "channel": 4,
      "note": 86,
      "start": 66.0425,
      "duration": 0.2048,
      "velocity": 74,
      "chip": "ym2612"
    },
    {
      "channel": 2,
      "note": 73,
      "start": 66.0442,
      "duration": 0.0277,
      "velocity": 1,
      "chip": "ym2612"
    },
    {
      "channel": 3,
      "note": 73,
      "start": 66.0742,
      "duration": 0.0771,
      "velocity": 106,
      "chip": "ym2612"
    },
    {
      "channel": 2,
      "note": 73,
      "start": 66.0762,
      "duration": 0.0917,
      "velocity": 1,
      "chip": "ym2612"
    },
    {
      "channel": 0,
      "note": 85,
      "start": 66.1673,
      "duration": 0.3825,
      "velocity": 74,
      "chip": "ym2612"
    },
    {
      "channel": 3,
      "note": 66,
      "start": 66.1703,
      "duration": 0.0767,
      "velocity": 106,
      "chip": "ym2612"
    },
    {
      "channel": 2,
      "note": 103,
      "start": 66.1725,
      "duration": 0.0908,
      "velocity": 1,
      "chip": "ym2612"
    },
    {
      "channel": 3,
      "note": 73,
      "start": 66.2657,
      "duration": 0.093,
      "velocity": 106,
      "chip": "ym2612"
    },
    {
      "channel": 4,
      "note": 85,
      "start": 66.2662,
      "duration": 0.3798,
      "velocity": 74,
      "chip": "ym2612"
    },
    {
      "channel": 2,
      "note": 26,
      "start": 66.268,
      "duration": 0.0431,
      "velocity": 1,
      "chip": "ym2612"
    },
    {
      "channel": 2,
      "note": 64,
      "start": 66.315,
      "duration": 0.0603,
      "velocity": 1,
      "chip": "ym2612"
    },
    {
      "channel": 1,
      "note": 50,
      "start": 66.3748,
      "duration": 1.5791,
      "velocity": 112,
      "chip": "ym2612"
    },
    {
      "channel": 3,
      "note": 74,
      "start": 66.3785,
      "duration": 0.0758,
      "velocity": 106,
      "chip": "ym2612"
    },
    {
      "channel": 2,
      "note": 64,
      "start": 66.381,
      "duration": 0.0419,
      "velocity": 1,
      "chip": "ym2612"
    },
    {
      "channel": 2,
      "note": 73,
      "start": 66.4265,
      "duration": 0.0441,
      "velocity": 1,
      "chip": "ym2612"
    },
    {
      "channel": 3,
      "note": 73,
      "start": 66.473,
      "duration": 0.0772,
      "velocity": 106,
      "chip": "ym2612"
    },
    {
      "channel": 5,
      "note": 50,
      "start": 66.4736,
      "duration": 1.5791,
      "velocity": 112,
      "chip": "ym2612"
    },
    {
      "channel": 2,
      "note": 77,
      "start": 66.4753,
      "duration": 0.0914,
      "velocity": 1,
      "chip": "ym2612"
    },
    {
      "channel": 0,
      "note": 81,
      "start": 66.5661,
      "duration": 0.1751,
      "velocity": 74,
      "chip": "ym2612"
    },
    {
      "channel": 3,
      "note": 66,
      "start": 66.569,
      "duration": 0.0767,
      "velocity": 106,
      "chip": "ym2612"
    },
    {
      "channel": 2,
      "note": 103,
      "start": 66.5713,
      "duration": 0.0908,
      "velocity": 1,
      "chip": "ym2612"
    },
    {
      "channel": 3,
      "note": 73,
      "start": 66.6644,
      "duration": 0.0771,
      "velocity": 106,
      "chip": "ym2612"
    },
    {
      "channel": 4,
      "note": 81,
      "start": 66.665,
      "duration": 0.1724,
      "velocity": 74,
      "chip": "ym2612"
    },
    {
      "channel": 2,
      "note": 103,
      "start": 66.6668,
      "duration": 0.0913,
      "velocity": 1,
      "chip": "ym2612"
    },
    {
      "channel": 0,
      "note": 78,
      "start": 66.7575,
      "duration": 0.1592,
      "velocity": 74,
      "chip": "ym2612"
    },
    {
      "channel": 3,
      "note": 74,
      "start": 66.7608,
      "duration": 0.0763,
      "velocity": 106,
      "chip": "ym2612"
    },
    {
      "channel": 2,
      "note": 73,
      "start": 66.7632,
      "duration": 0.1062,
      "velocity": 1,
      "chip": "ym2612"
    },
    {
      "channel": 3,
      "note": 73,
      "start": 66.8717,
      "duration": 0.0771,
      "velocity": 106,
      "chip": "ym2612"
    },
    {
      "channel": 4,
      "note": 78,
      "start": 66.8722,
      "duration": 0.1405,
      "velocity": 74,
      "chip": "ym2612"
    },
    {
      "channel": 2,
      "note": 103,
      "start": 66.8741,
      "duration": 0.091,
      "velocity": 1,
      "chip": "ym2612"
    },
    {
      "channel": 0,
      "note": 85,
      "start": 66.9329,
      "duration": 0.3985,
      "velocity": 74,
      "chip": "ym2612"
    },
    {
      "channel": 3,
      "note": 66,
      "start": 66.9675,
      "duration": 0.077,
      "velocity": 106,
      "chip": "ym2612"
    },
    {
      "channel": 2,
      "note": 64,
      "start": 66.9696,
      "duration": 0.0913,
      "velocity": 1,
      "chip": "ym2612"
    },
    {
      "channel": 4,
      "note": 85,
      "start": 67.029,
      "duration": 0.4144,
      "velocity": 74,
      "chip": "ym2612"
    },
    {
      "channel": 3,
      "note": 73,
      "start": 67.0631,
      "duration": 0.0771,
      "velocity": 106,
      "chip": "ym2612"
    },
    {
      "channel": 2,
      "note": 64,
      "start": 67.0652,
      "duration": 0.0913,
      "velocity": 1,
      "chip": "ym2612"
    },
    {
      "channel": 3,
      "note": 74,
      "start": 67.1592,
      "duration": 0.0768,
      "velocity": 106,
      "chip": "ym2612"
    },
    {
      "channel": 2,
      "note": 26,
      "start": 67.1612,
      "duration": 0.0436,
      "velocity": 120,
      "chip": "ym2612"
    },
    {
      "channel": 3,
      "note": 73,
      "start": 67.2546,
      "duration": 0.0772,
      "velocity": 106,
      "chip": "ym2612"
    },
    {
      "channel": 2,
      "note": 26,
      "start": 67.2565,
      "duration": 0.0436,
      "velocity": 1,
      "chip": "ym2612"
    },
    {
      "channel": 2,
      "note": 103,
      "start": 67.3037,
      "duration": 0.0447,
      "velocity": 1,
      "chip": "ym2612"
    },
    {
      "channel": 0,
      "note": 83,
      "start": 67.3476,
      "duration": 0.1911,
      "velocity": 74,
      "chip": "ym2612"
    },
    {
      "channel": 3,
      "note": 66,
      "start": 67.3507,
      "duration": 0.0926,
      "velocity": 106,
      "chip": "ym2612"
    },
    {
      "channel": 2,
      "note": 103,
      "start": 67.353,
      "duration": 0.1066,
      "velocity": 1,
      "chip": "ym2612"
    },
    {
      "channel": 3,
      "note": 73,
      "start": 67.4619,
      "duration": 0.0772,
      "velocity": 106,
      "chip": "ym2612"
    },
    {
      "channel": 4,
      "note": 83,
      "start": 67.4624,
      "duration": 0.1724,
      "velocity": 74,
      "chip": "ym2612"
    },
    {
      "channel": 2,
      "note": 103,
      "start": 67.4643,
      "duration": 0.0913,
      "velocity": 1,
      "chip": "ym2612"
    },
    {
      "channel": 0,
      "note": 81,
      "start": 67.555,
      "duration": 0.1751,
      "velocity": 74,
      "chip": "ym2612"
    },
    {
      "channel": 3,
      "note": 74,
      "start": 67.5584,
      "duration": 0.0763,
      "velocity": 106,
      "chip": "ym2612"
    },
    {
      "channel": 2,
      "note": 73,
      "start": 67.5607,
      "duration": 0.0265,
      "velocity": 1,
      "chip": "ym2612"
    },
    {
      "channel": 2,
      "note": 73,
      "start": 67.591,
      "duration": 0.0281,
      "velocity": 1,
      "chip": "ym2612"
    },
    {
      "channel": 2,
      "note": 73,
      "start": 67.6229,
      "duration": 0.0281,
      "velocity": 1,
      "chip": "ym2612"
    },
    {
      "channel": 3,
      "note": 73,
      "start": 67.6533,
      "duration": 0.0772,
      "velocity": 106,
      "chip": "ym2612"
    },
    {
      "channel": 4,
      "note": 81,
      "start": 67.6538,
      "duration": 0.1725,
      "velocity": 74,
      "chip": "ym2612"
    },
    {
      "channel": 2,
      "note": 73,
      "start": 67.6557,
      "duration": 0.0914,
      "velocity": 1,
      "chip": "ym2612"
    },
    {
      "channel": 0,
      "note": 80,
      "start": 67.7464,
      "duration": 0.5739,
      "velocity": 74,
      "chip": "ym2612"
    },
    {
      "channel": 3,
      "note": 66,
      "start": 67.7495,
      "duration": 0.0767,
      "velocity": 106,
      "chip": "ym2612"
    },
    {
      "channel": 2,
      "note": 103,
      "start": 67.7517,
      "duration": 0.0907,
      "velocity": 1,
      "chip": "ym2612"
    },
    {
      "channel": 3,
      "note": 73,
      "start": 67.8448,
      "duration": 0.0931,
      "velocity": 106,
      "chip": "ym2612"
    },
    {
      "channel": 4,
      "note": 80,
      "start": 67.8453,
      "duration": 0.5871,
      "velocity": 74,
      "chip": "ym2612"
    },
    {
      "channel": 2,
      "note": 26,
      "start": 67.8471,
      "duration": 0.0437,
      "velocity": 120,
      "chip": "ym2612"
    },
    {
      "channel": 2,
      "note": 64,
      "start": 67.91,
      "duration": 0.0445,
      "velocity": 1,
      "chip": "ym2612"
    },
    {
      "channel": 1,
      "note": 50,
      "start": 67.9539,
      "duration": 1.5791,
      "velocity": 112,
      "chip": "ym2612"
    },
    {
      "channel": 3,
      "note": 74,
      "start": 67.9577,
      "duration": 0.0758,
      "velocity": 106,
      "chip": "ym2612"
    },
    {
      "channel": 2,
      "note": 64,
      "start": 67.96,
      "duration": 0.0419,
      "velocity": 1,
      "chip": "ym2612"
    },
    {
      "channel": 2,
      "note": 73,
      "start": 68.0056,
      "duration": 0.0442,
      "velocity": 1,
      "chip": "ym2612"
    },
    {
      "channel": 3,
      "note": 73,
      "start": 68.0521,
      "duration": 0.0771,
      "velocity": 106,
      "chip": "ym2612"
    },
    {
      "channel": 5,
      "note": 50,
      "start": 68.0527,
      "duration": 1.5791,
      "velocity": 112,
      "chip": "ym2612"
    },
    {
      "channel": 2,
      "note": 77,
      "start": 68.0544,
      "duration": 0.091,
      "velocity": 1,
      "chip": "ym2612"
    },
    {
      "channel": 3,
      "note": 66,
      "start": 68.1479,
      "duration": 0.077,
      "velocity": 106,
      "chip": "ym2612"
    },
    {
      "channel": 2,
      "note": 103,
      "start": 68.1498,
      "duration": 0.0914,
      "velocity": 1,
      "chip": "ym2612"
    },
    {
      "channel": 3,
      "note": 73,
      "start": 68.2435,
      "duration": 0.0771,
      "velocity": 106,
      "chip": "ym2612"
    },
    {
      "channel": 2,
      "note": 103,
      "start": 68.2454,
      "duration": 0.0918,
      "velocity": 1,
      "chip": "ym2612"
    },
    {
      "channel": 0,
      "note": 80,
      "start": 68.3365,
      "duration": 0.1912,
      "velocity": 74,
      "chip": "ym2612"
    },
    {
      "channel": 3,
      "note": 74,
      "start": 68.3399,
      "duration": 0.0924,
      "velocity": 106,
      "chip": "ym2612"
    },
    {
      "channel": 2,
      "note": 73,
      "start": 68.3422,
      "duration": 0.1064,
      "velocity": 1,
      "chip": "ym2612"
    },
    {
      "channel": 3,
      "note": 73,
      "start": 68.4509,
      "duration": 0.0771,
      "velocity": 106,
      "chip": "ym2612"
    },
    {
      "channel": 4,
      "note": 80,
      "start": 68.4514,
      "duration": 0.1725,
      "velocity": 74,
      "chip": "ym2612"
    },
    {
      "channel": 2,
      "note": 103,
      "start": 68.4532,
      "duration": 0.0914,
      "velocity": 1,
      "chip": "ym2612"
    },
    {
      "channel": 0,
      "note": 83,
      "start": 68.5439,
      "duration": 0.3825,
      "velocity": 74,
      "chip": "ym2612"
    },
    {
      "channel": 3,
      "note": 66,
      "start": 68.5469,
      "duration": 0.0767,
      "velocity": 106,
      "chip": "ym2612"
    },
    {
      "channel": 2,
      "note": 64,
      "start": 68.5492,
      "duration": 0.0907,
      "velocity": 1,
      "chip": "ym2612"
    },
    {
      "channel": 3,
      "note": 73,
      "start": 68.6423,
      "duration": 0.0771,
      "velocity": 106,
      "chip": "ym2612"
    },
    {
      "channel": 4,
      "note": 83,
      "start": 68.6428,
      "duration": 0.3798,
      "velocity": 74,
      "chip": "ym2612"
    },
    {
      "channel": 2,
      "note": 64,
      "start": 68.6447,
      "duration": 0.0909,
      "velocity": 1,
      "chip": "ym2612"
    },
    {
      "channel": 3,
      "note": 74,
      "start": 68.7383,
      "duration": 0.0768,
      "velocity": 106,
      "chip": "ym2612"
    },
    {
      "channel": 2,
      "note": 26,
      "start": 68.7404,
      "duration": 0.0436,
      "velocity": 120,
      "chip": "ym2612"
    },
    {
      "channel": 3,
      "note": 73,
      "start": 68.8337,
      "duration": 0.0931,
      "velocity": 106,
      "chip": "ym2612"
    },
    {
      "channel": 2,
      "note": 26,
      "start": 68.8356,
      "duration": 0.0436,
      "velocity": 1,
      "chip": "ym2612"
    },
    {
      "channel": 2,
      "note": 103,
      "start": 68.8829,
      "duration": 0.0604,
      "velocity": 1,
      "chip": "ym2612"
    },
    {
      "channel": 0,
      "note": 81,
      "start": 68.9427,
      "duration": 0.3665,
      "velocity": 74,
      "chip": "ym2612"
    },
    {
      "channel": 3,
      "note": 66,
      "start": 68.9457,
      "duration": 0.0767,
      "velocity": 106,
      "chip": "ym2612"
    },
    {
      "channel": 2,
      "note": 103,
      "start": 68.948,
      "duration": 0.0907,
      "velocity": 1,
      "chip": "ym2612"
    },
    {
      "channel": 3,
      "note": 73,
      "start": 69.041,
      "duration": 0.0771,
      "velocity": 106,
      "chip": "ym2612"
    },
    {
      "channel": 4,
      "note": 81,
      "start": 69.0415,
      "duration": 0.3798,
      "velocity": 74,
      "chip": "ym2612"
    },
    {
      "channel": 2,
      "note": 103,
      "start": 69.0434,
      "duration": 0.091,
      "velocity": 1,
      "chip": "ym2612"
    },
    {
      "channel": 3,
      "note": 74,
      "start": 69.1371,
      "duration": 0.0768,
      "velocity": 106,
      "chip": "ym2612"
    },
    {
      "channel": 2,
      "note": 73,
      "start": 69.1392,
      "duration": 0.0271,
      "velocity": 1,
      "chip": "ym2612"
    },
    {
      "channel": 2,
      "note": 73,
      "start": 69.17,
      "duration": 0.0283,
      "velocity": 1,
      "chip": "ym2612"
    },
    {
      "channel": 2,
      "note": 73,
      "start": 69.202,
      "duration": 0.0282,
      "velocity": 1,
      "chip": "ym2612"
    },
    {
      "channel": 3,
      "note": 73,
      "start": 69.2325,
      "duration": 0.077,
      "velocity": 106,
      "chip": "ym2612"
    },
    {
      "channel": 2,
      "note": 73,
      "start": 69.2344,
      "duration": 0.0917,
      "velocity": 1,
      "chip": "ym2612"
    },
    {
      "channel": 0,
      "note": 85,
      "start": 69.3255,
      "duration": 0.5739,
      "velocity": 74,
      "chip": "ym2612"
    },
    {
      "channel": 3,
      "note": 66,
      "start": 69.3285,
      "duration": 0.0926,
      "velocity": 106,
      "chip": "ym2612"
    },
    {
      "channel": 2,
      "note": 103,
      "start": 69.3307,
      "duration": 0.1067,
      "velocity": 1,
      "chip": "ym2612"
    },
    {
      "channel": 3,
      "note": 73,
      "start": 69.4398,
      "duration": 0.0771,
      "velocity": 106,
      "chip": "ym2612"
    },
    {
      "channel": 4,
      "note": 85,
      "start": 69.4403,
      "duration": 0.5712,
      "velocity": 74,
      "chip": "ym2612"
    },
    {
      "channel": 2,
      "note": 26,
      "start": 69.4422,
      "duration": 0.0431,
      "velocity": 1,
      "chip": "ym2612"
    },
    {
      "channel": 2,
      "note": 64,
      "start": 69.489,
      "duration": 0.0445,
      "velocity": 1,
      "chip": "ym2612"
    },
    {
      "channel": 1,
      "note": 50,
      "start": 69.533,
      "duration": 1.5629,
      "velocity": 112,
      "chip": "ym2612"
    },
    {
      "channel": 3,
      "note": 74,
      "start": 69.5367,
      "duration": 0.0758,
      "velocity": 106,
      "chip": "ym2612"
    },
    {
      "channel": 2,
      "note": 26,
      "start": 69.5391,
      "duration": 0.026,
      "velocity": 1,
      "chip": "ym2612"
    },
    {
      "channel": 2,
      "note": 26,
      "start": 69.5687,
      "duration": 0.0447,
      "velocity": 120,
      "chip": "ym2612"
    },
    {
      "channel": 3,
      "note": 73,
      "start": 69.6313,
      "duration": 0.077,
      "velocity": 106,
      "chip": "ym2612"
    },
    {
      "channel": 5,
      "note": 50,
      "start": 69.6318,
      "duration": 1.5602,
      "velocity": 112,
      "chip": "ym2612"
    },
    {
      "channel": 2,
      "note": 64,
      "start": 69.6336,
      "duration": 0.091,
      "velocity": 1,
      "chip": "ym2612"
    },
    {
      "channel": 3,
      "note": 66,
      "start": 69.7269,
      "duration": 0.0771,
      "velocity": 106,
      "chip": "ym2612"
    },
    {
      "channel": 2,
      "note": 73,
      "start": 69.7288,
      "duration": 0.0914,
      "velocity": 1,
      "chip": "ym2612"
    },
    {
      "channel": 3,
      "note": 73,
      "start": 69.8226,
      "duration": 0.0772,
      "velocity": 106,
      "chip": "ym2612"
    },
    {
      "channel": 2,
      "note": 103,
      "start": 69.8245,
      "duration": 0.1079,
      "velocity": 1,
      "chip": "ym2612"
    },
    {
      "channel": 0,
      "note": 86,
      "start": 69.9317,
      "duration": 0.3665,
      "velocity": 74,
      "chip": "ym2612"
    },
    {
      "channel": 3,
      "note": 74,
      "start": 69.9351,
      "duration": 0.0763,
      "velocity": 106,
      "chip": "ym2612"
    },
    {
      "channel": 2,
      "note": 26,
      "start": 69.9374,
      "duration": 0.0429,
      "velocity": 120,
      "chip": "ym2612"
    },
    {
      "channel": 3,
      "note": 73,
      "start": 70.03,
      "duration": 0.077,
      "velocity": 106,
      "chip": "ym2612"
    },
    {
      "channel": 4,
      "note": 86,
      "start": 70.0304,
      "duration": 0.3639,
      "velocity": 74,
      "chip": "ym2612"
    },
    {
      "channel": 2,
      "note": 103,
      "start": 70.0324,
      "duration": 0.0909,
      "velocity": 1,
      "chip": "ym2612"
    },
    {
      "channel": 3,
      "note": 66,
      "start": 70.1257,
      "duration": 0.0771,
      "velocity": 106,
      "chip": "ym2612"
    },
    {
      "channel": 2,
      "note": 73,
      "start": 70.1276,
      "duration": 0.0915,
      "velocity": 1,
      "chip": "ym2612"
    },
    {
      "channel": 3,
      "note": 73,
      "start": 70.2213,
      "duration": 0.0772,
      "velocity": 106,
      "chip": "ym2612"
    },
    {
      "channel": 2,
      "note": 103,
      "start": 70.2233,
      "duration": 0.0919,
      "velocity": 1,
      "chip": "ym2612"
    },
    {
      "channel": 0,
      "note": 85,
      "start": 70.3145,
      "duration": 0.3824,
      "velocity": 74,
      "chip": "ym2612"
    },
    {
      "channel": 3,
      "note": 74,
      "start": 70.3178,
      "duration": 0.0763,
      "velocity": 106,
      "chip": "ym2612"
    },
    {
      "channel": 2,
      "note": 64,
      "start": 70.3203,
      "duration": 0.0902,
      "velocity": 1,
      "chip": "ym2612"
    },
    {
      "channel": 3,
      "note": 73,
      "start": 70.4128,
      "duration": 0.0931,
      "velocity": 106,
      "chip": "ym2612"
    },
    {
      "channel": 4,
      "note": 85,
      "start": 70.4133,
      "duration": 0.3798,
      "velocity": 74,
      "chip": "ym2612"
    },
    {
      "channel": 2,
      "note": 103,
      "start": 70.4152,
      "duration": 0.1069,
      "velocity": 1,
      "chip": "ym2612"
    },
    {
      "channel": 3,
      "note": 66,
      "start": 70.5245,
      "duration": 0.077,
      "velocity": 106,
      "chip": "ym2612"
    },
    {
      "channel": 2,
      "note": 103,
      "start": 70.5264,
      "duration": 0.0914,
      "velocity": 1,
      "chip": "ym2612"
    },
    {
      "channel": 3,
      "note": 73,
      "start": 70.6201,
      "duration": 0.0772,
      "velocity": 106,
      "chip": "ym2612"
    },
    {
      "channel": 2,
      "note": 103,
      "start": 70.622,
      "duration": 0.0918,
      "velocity": 1,
      "chip": "ym2612"
    },
    {
      "channel": 0,
      "note": 83,
      "start": 70.7132,
      "duration": 0.3825,
      "velocity": 74,
      "chip": "ym2612"
    },
    {
      "channel": 3,
      "note": 74,
      "start": 70.7166,
      "duration": 0.0763,
      "velocity": 106,
      "chip": "ym2612"
    },
    {
      "channel": 2,
      "note": 64,
      "start": 70.719,
      "duration": 0.0264,
      "velocity": 1,
      "chip": "ym2612"
    },
    {
      "channel": 2,
      "note": 73,
      "start": 70.7493,
      "duration": 0.028,
      "velocity": 1,
      "chip": "ym2612"
    },
    {
      "channel": 2,
      "note": 64,
      "start": 70.7811,
      "duration": 0.0281,
      "velocity": 1,
      "chip": "ym2612"
    },
    {
      "channel": 3,
      "note": 73,
      "start": 70.8115,
      "duration": 0.0771,
      "velocity": 106,
      "chip": "ym2612"
    },
    {
      "channel": 4,
      "note": 83,
      "start": 70.812,
      "duration": 0.3799,
      "velocity": 74,
      "chip": "ym2612"
    },
    {
      "channel": 2,
      "note": 64,
      "start": 70.8139,
      "duration": 0.091,
      "velocity": 1,
      "chip": "ym2612"
    },
    {
      "channel": 3,
      "note": 66,
      "start": 70.9072,
      "duration": 0.0931,
      "velocity": 106,
      "chip": "ym2612"
    },
    {
      "channel": 2,
      "note": 26,
      "start": 70.9091,
      "duration": 0.0441,
      "velocity": 120,
      "chip": "ym2612"
    },
    {
      "channel": 3,
      "note": 73,
      "start": 71.0189,
      "duration": 0.0772,
      "velocity": 106,
      "chip": "ym2612"
    },
    {
      "channel": 2,
      "note": 26,
      "start": 71.0208,
      "duration": 0.0441,
      "velocity": 120,
      "chip": "ym2612"
    },
    {
      "channel": 0,
      "note": 85,
      "start": 71.112,
      "duration": 0.5739,
      "velocity": 74,
      "chip": "ym2612"
    },
    {
      "channel": 1,
      "note": 52,
      "start": 71.1126,
      "duration": 1.5786,
      "velocity": 112,
      "chip": "ym2612"
    },
    {
      "channel": 3,
      "note": 74,
      "start": 71.1165,
      "duration": 0.0752,
      "velocity": 106,
      "chip": "ym2612"
    },
    {
      "channel": 2,
      "note": 64,
      "start": 71.1193,
      "duration": 0.0409,
      "velocity": 1,
      "chip": "ym2612"
    },
    {
      "channel": 2,
      "note": 73,
      "start": 71.1639,
      "duration": 0.0441,
      "velocity": 1,
      "chip": "ym2612"
    },
    {
      "channel": 3,
      "note": 73,
      "start": 71.2103,
      "duration": 0.0771,
      "velocity": 106,
      "chip": "ym2612"
    },
    {
      "channel": 4,
      "note": 85,
      "start": 71.2108,
      "duration": 0.5713,
      "velocity": 74,
      "chip": "ym2612"
    },
    {
      "channel": 5,
      "note": 52,
      "start": 71.2115,
      "duration": 1.5785,
      "velocity": 112,
      "chip": "ym2612"
    },
    {
      "channel": 2,
      "note": 77,
      "start": 71.2133,
      "duration": 0.0904,
      "velocity": 1,
      "chip": "ym2612"
    },
    {
      "channel": 3,
      "note": 66,
      "start": 71.306,
      "duration": 0.0771,
      "velocity": 106,
      "chip": "ym2612"
    },
    {
      "channel": 2,
      "note": 103,
      "start": 71.3079,
      "duration": 0.0915,
      "velocity": 1,
      "chip": "ym2612"
    },
    {
      "channel": 3,
      "note": 73,
      "start": 71.4017,
      "duration": 0.0931,
      "velocity": 106,
      "chip": "ym2612"
    },
    {
      "channel": 2,
      "note": 103,
      "start": 71.4037,
      "duration": 0.1074,
      "velocity": 1,
      "chip": "ym2612"
    },
    {
      "channel": 3,
      "note": 74,
      "start": 71.5137,
      "duration": 0.0768,
      "velocity": 106,
      "chip": "ym2612"
    },
    {
      "channel": 2,
      "note": 73,
      "start": 71.5159,
      "duration": 0.0908,
      "velocity": 1,
      "chip": "ym2612"
    },
    {
      "channel": 3,
      "note": 73,
      "start": 71.6091,
      "duration": 0.0772,
      "velocity": 106,
      "chip": "ym2612"
    },
    {
      "channel": 2,
      "note": 103,
      "start": 71.611,
      "duration": 0.0919,
      "velocity": 1,
      "chip": "ym2612"
    },
    {
      "channel": 0,
      "note": 83,
      "start": 71.7021,
      "duration": 0.3825,
      "velocity": 74,
      "chip": "ym2612"
    },
    {
      "channel": 3,
      "note": 66,
      "start": 71.7052,
      "duration": 0.0767,
      "velocity": 106,
      "chip": "ym2612"
    },
    {
      "channel": 2,
      "note": 64,
      "start": 71.7074,
      "duration": 0.0908,
      "velocity": 1,
      "chip": "ym2612"
    },
    {
      "channel": 3,
      "note": 73,
      "start": 71.8005,
      "duration": 0.077,
      "velocity": 106,
      "chip": "ym2612"
    },
    {
      "channel": 4,
      "note": 83,
      "start": 71.801,
      "duration": 0.3798,
      "velocity": 74,
      "chip": "ym2612"
    },
    {
      "channel": 2,
      "note": 64,
      "start": 71.803,
      "duration": 0.0909,
      "velocity": 1,
      "chip": "ym2612"
    },
    {
      "channel": 3,
      "note": 74,
      "start": 71.8965,
      "duration": 0.0927,
      "velocity": 106,
      "chip": "ym2612"
    },
    {
      "channel": 2,
      "note": 26,
      "start": 71.8986,
      "duration": 0.0435,
      "velocity": 120,
      "chip": "ym2612"
    },
    {
      "channel": 3,
      "note": 73,
      "start": 72.0079,
      "duration": 0.0771,
      "velocity": 106,
      "chip": "ym2612"
    },
    {
      "channel": 2,
      "note": 26,
      "start": 72.0097,
      "duration": 0.0436,
      "velocity": 1,
      "chip": "ym2612"
    },
    {
      "channel": 2,
      "note": 103,
      "start": 72.057,
      "duration": 0.0445,
      "velocity": 1,
      "chip": "ym2612"
    },
    {
      "channel": 0,
      "note": 81,
      "start": 72.1009,
      "duration": 0.1751,
      "velocity": 74,
      "chip": "ym2612"
    },
    {
      "channel": 3,
      "note": 66,
      "start": 72.1039,
      "duration": 0.0767,
      "velocity": 106,
      "chip": "ym2612"
    },
    {
      "channel": 2,
      "note": 103,
      "start": 72.1061,
      "duration": 0.0908,
      "velocity": 1,
      "chip": "ym2612"
    },
    {
      "channel": 3,
      "note": 73,
      "start": 72.1993,
      "duration": 0.0771,
      "velocity": 106,
      "chip": "ym2612"
    },
    {
      "channel": 4,
      "note": 81,
      "start": 72.1998,
      "duration": 0.1724,
      "velocity": 74,
      "chip": "ym2612"
    },
    {
      "channel": 2,
      "note": 103,
      "start": 72.2017,
      "duration": 0.0913,
      "velocity": 1,
      "chip": "ym2612"
    },
    {
      "channel": 0,
      "note": 83,
      "start": 72.2923,
      "duration": 0.1911,
      "velocity": 74,
      "chip": "ym2612"
    },
    {
      "channel": 3,
      "note": 74,
      "start": 72.2956,
      "duration": 0.0764,
      "velocity": 106,
      "chip": "ym2612"
    },
    {
      "channel": 2,
      "note": 73,
      "start": 72.2981,
      "duration": 0.0264,
      "velocity": 1,
      "chip": "ym2612"
    },
    {
      "channel": 2,
      "note": 73,
      "start": 72.3283,
      "duration": 0.0281,
      "velocity": 1,
      "chip": "ym2612"
    },
    {
      "channel": 2,
      "note": 73,
      "start": 72.3602,
      "duration": 0.0281,
      "velocity": 1,
      "chip": "ym2612"
    },
    {
      "channel": 3,
      "note": 73,
      "start": 72.3907,
      "duration": 0.0931,
      "velocity": 106,
      "chip": "ym2612"
    },
    {
      "channel": 4,
      "note": 83,
      "start": 72.3911,
      "duration": 0.1885,
      "velocity": 74,
      "chip": "ym2612"
    },
    {
      "channel": 2,
      "note": 73,
      "start": 72.393,
      "duration": 0.1073,
      "velocity": 1,
      "chip": "ym2612"
    },
    {
      "channel": 0,
      "note": 85,
      "start": 72.4997,
      "duration": 0.5739,
      "velocity": 74,
      "chip": "ym2612"
    },
    {
      "channel": 3,
      "note": 66,
      "start": 72.5027,
      "duration": 0.0767,
      "velocity": 106,
      "chip": "ym2612"
    },
    {
      "channel": 2,
      "note": 103,
      "start": 72.5049,
      "duration": 0.0907,
      "velocity": 1,
      "chip": "ym2612"
    },
    {
      "channel": 3,
      "note": 73,
      "start": 72.5981,
      "duration": 0.077,
      "velocity": 106,
      "chip": "ym2612"
    },
    {
      "channel": 4,
      "note": 85,
      "start": 72.5986,
      "duration": 0.5712,
      "velocity": 74,
      "chip": "ym2612"
    },
    {
      "channel": 2,
      "note": 26,
      "start": 72.6004,
      "duration": 0.0431,
      "velocity": 1,
      "chip": "ym2612"
    },
    {
      "channel": 2,
      "note": 64,
      "start": 72.6473,
      "duration": 0.0445,
      "velocity": 1,
      "chip": "ym2612"
    },
    {
      "channel": 1,
      "note": 52,
      "start": 72.6912,
      "duration": 1.5794,
      "velocity": 112,
      "chip": "ym2612"
    },
    {
      "channel": 3,
      "note": 74,
      "start": 72.695,
      "duration": 0.0758,
      "velocity": 106,
      "chip": "ym2612"
    },
    {
      "channel": 2,
      "note": 64,
      "start": 72.6974,
      "duration": 0.0419,
      "velocity": 1,
      "chip": "ym2612"
    },
    {
      "channel": 2,
      "note": 73,
      "start": 72.7429,
      "duration": 0.0441,
      "velocity": 1,
      "chip": "ym2612"
    },
    {
      "channel": 3,
      "note": 73,
      "start": 72.7894,
      "duration": 0.0771,
      "velocity": 106,
      "chip": "ym2612"
    },
    {
      "channel": 5,
      "note": 52,
      "start": 72.79,
      "duration": 1.5795,
      "velocity": 112,
      "chip": "ym2612"
    },
    {
      "channel": 2,
      "note": 77,
      "start": 72.7917,
      "duration": 0.0911,
      "velocity": 1,
      "chip": "ym2612"
    },
    {
      "channel": 3,
      "note": 66,
      "start": 72.8851,
      "duration": 0.077,
      "velocity": 106,
      "chip": "ym2612"
    },
    {
      "channel": 2,
      "note": 103,
      "start": 72.8871,
      "duration": 0.1074,
      "velocity": 1,
      "chip": "ym2612"
    },
    {
      "channel": 3,
      "note": 73,
      "start": 72.9968,
      "duration": 0.0772,
      "velocity": 106,
      "chip": "ym2612"
    },
    {
      "channel": 2,
      "note": 103,
      "start": 72.9988,
      "duration": 0.0917,
      "velocity": 1,
      "chip": "ym2612"
    },
    {
      "channel": 0,
      "note": 85,
      "start": 73.0898,
      "duration": 0.3666,
      "velocity": 74,
      "chip": "ym2612"
    },
    {
      "channel": 3,
      "note": 74,
      "start": 73.0932,
      "duration": 0.0764,
      "velocity": 106,
      "chip": "ym2612"
    },
    {
      "channel": 2,
      "note": 73,
      "start": 73.0955,
      "duration": 0.0904,
      "velocity": 1,
      "chip": "ym2612"
    },
    {
      "channel": 3,
      "note": 73,
      "start": 73.1882,
      "duration": 0.0771,
      "velocity": 106,
      "chip": "ym2612"
    },
    {
      "channel": 4,
      "note": 85,
      "start": 73.1886,
      "duration": 0.38,
      "velocity": 74,
      "chip": "ym2612"
    },
    {
      "channel": 2,
      "note": 103,
      "start": 73.1905,
      "duration": 0.0911,
      "velocity": 1,
      "chip": "ym2612"
    },
    {
      "channel": 3,
      "note": 66,
      "start": 73.2839,
      "duration": 0.077,
      "velocity": 106,
      "chip": "ym2612"
    },
    {
      "channel": 2,
      "note": 64,
      "start": 73.2859,
      "duration": 0.0914,
      "velocity": 1,
      "chip": "ym2612"
    },
    {
      "channel": 3,
      "note": 73,
      "start": 73.3796,
      "duration": 0.0772,
      "velocity": 106,
      "chip": "ym2612"
    },
    {
      "channel": 2,
      "note": 64,
      "start": 73.3816,
      "duration": 0.0917,
      "velocity": 1,
      "chip": "ym2612"
    },
    {
      "channel": 0,
      "note": 81,
      "start": 73.4727,
      "duration": 0.3506,
      "velocity": 74,
      "chip": "ym2612"
    },
    {
      "channel": 3,
      "note": 74,
      "start": 73.4761,
      "duration": 0.0923,
      "velocity": 106,
      "chip": "ym2612"
    },
    {
      "channel": 2,
      "note": 26,
      "start": 73.4784,
      "duration": 0.0429,
      "velocity": 120,
      "chip": "ym2612"
    },
    {
      "channel": 3,
      "note": 73,
      "start": 73.5869,
      "duration": 0.0771,
      "velocity": 106,
      "chip": "ym2612"
    },
    {
      "channel": 4,
      "note": 81,
      "start": 73.5874,
      "duration": 0.3319,
      "velocity": 74,
      "chip": "ym2612"
    },
    {
      "channel": 2,
      "note": 26,
      "start": 73.5893,
      "duration": 0.0432,
      "velocity": 1,
      "chip": "ym2612"
    },
    {
      "channel": 2,
      "note": 103,
      "start": 73.6362,
      "duration": 0.0441,
      "velocity": 1,
      "chip": "ym2612"
    },
    {
      "channel": 3,
      "note": 66,
      "start": 73.6827,
      "duration": 0.0771,
      "velocity": 106,
      "chip": "ym2612"
    },
    {
      "channel": 2,
      "note": 103,
      "start": 73.6846,
      "duration": 0.0913,
      "velocity": 1,
      "chip": "ym2612"
    },
    {
      "channel": 3,
      "note": 73,
      "start": 73.7783,
      "duration": 0.0771,
      "velocity": 106,
      "chip": "ym2612"
    },
    {
      "channel": 2,
      "note": 103,
      "start": 73.7802,
      "duration": 0.0915,
      "velocity": 1,
      "chip": "ym2612"
    },
    {
      "channel": 0,
      "note": 88,
      "start": 73.8395,
      "duration": 0.4144,
      "velocity": 74,
      "chip": "ym2612"
    },
    {
      "channel": 3,
      "note": 74,
      "start": 73.8744,
      "duration": 0.0768,
      "velocity": 106,
      "chip": "ym2612"
    },
    {
      "channel": 2,
      "note": 73,
      "start": 73.8766,
      "duration": 0.027,
      "velocity": 1,
      "chip": "ym2612"
    },
    {
      "channel": 2,
      "note": 73,
      "start": 73.9074,
      "duration": 0.0281,
      "velocity": 1,
      "chip": "ym2612"
    },
    {
      "channel": 4,
      "note": 88,
      "start": 73.938,
      "duration": 0.4121,
      "velocity": 74,
      "chip": "ym2612"
    },
    {
      "channel": 2,
      "note": 73,
      "start": 73.9397,
      "duration": 0.0277,
      "velocity": 1,
      "chip": "ym2612"
    },
    {
      "channel": 3,
      "note": 73,
      "start": 73.9698,
      "duration": 0.0931,
      "velocity": 106,
      "chip": "ym2612"
    },
    {
      "channel": 2,
      "note": 73,
      "start": 73.9718,
      "duration": 0.1073,
      "velocity": 1,
      "chip": "ym2612"
    },
    {
      "channel": 3,
      "note": 66,
      "start": 74.0815,
      "duration": 0.077,
      "velocity": 106,
      "chip": "ym2612"
    },
    {
      "channel": 2,
      "note": 103,
      "start": 74.0834,
      "duration": 0.0914,
      "velocity": 1,
      "chip": "ym2612"
    },
    {
      "channel": 3,
      "note": 73,
      "start": 74.1771,
      "duration": 0.0771,
      "velocity": 106,
      "chip": "ym2612"
    },
    {
      "channel": 2,
      "note": 26,
      "start": 74.179,
      "duration": 0.0436,
      "velocity": 1,
      "chip": "ym2612"
    },
    {
      "channel": 2,
      "note": 64,
      "start": 74.2263,
      "duration": 0.0449,
      "velocity": 1,
      "chip": "ym2612"
    },
    {
      "channel": 0,
      "note": 90,
      "start": 74.2702,
      "duration": 0.5739,
      "velocity": 74,
      "chip": "ym2612"
    },
    {
      "channel": 1,
      "note": 52,
      "start": 74.2706,
      "duration": 1.5791,
      "velocity": 112,
      "chip": "ym2612"
    },
    {
      "channel": 3,
      "note": 74,
      "start": 74.2745,
      "duration": 0.0754,
      "velocity": 106,
      "chip": "ym2612"
    },
    {
      "channel": 2,
      "note": 64,
      "start": 74.2771,
      "duration": 0.0412,
      "velocity": 1,
      "chip": "ym2612"
    },
    {
      "channel": 2,
      "note": 73,
      "start": 74.3221,
      "duration": 0.0441,
      "velocity": 1,
      "chip": "ym2612"
    },
    {
      "channel": 3,
      "note": 73,
      "start": 74.3685,
      "duration": 0.0771,
      "velocity": 106,
      "chip": "ym2612"
    },
    {
      "channel": 4,
      "note": 90,
      "start": 74.369,
      "duration": 0.5712,
      "velocity": 74,
      "chip": "ym2612"
    },
    {
      "channel": 5,
      "note": 52,
      "start": 74.3695,
      "duration": 1.5792,
      "velocity": 112,
      "chip": "ym2612"
    },
    {
      "channel": 2,
      "note": 77,
      "start": 74.3713,
      "duration": 0.0905,
      "velocity": 1,
      "chip": "ym2612"
    },
    {
      "channel": 3,
      "note": 66,
      "start": 74.4642,
      "duration": 0.0931,
      "velocity": 106,
      "chip": "ym2612"
    },
    {
      "channel": 2,
      "note": 103,
      "start": 74.4662,
      "duration": 0.1074,
      "velocity": 1,
      "chip": "ym2612"
    },
    {
      "channel": 3,
      "note": 73,
      "start": 74.5759,
      "duration": 0.0771,
      "velocity": 106,
      "chip": "ym2612"
    },
    {
      "channel": 2,
      "note": 103,
      "start": 74.5778,
      "duration": 0.0914,
      "velocity": 1,
      "chip": "ym2612"
    },
    {
      "channel": 3,
      "note": 74,
      "start": 74.6719,
      "duration": 0.0768,
      "velocity": 106,
      "chip": "ym2612"
    },
    {
      "channel": 2,
      "note": 73,
      "start": 74.6741,
      "duration": 0.091,
      "velocity": 1,
      "chip": "ym2612"
    },
    {
      "channel": 3,
      "note": 73,
      "start": 74.7673,
      "duration": 0.0771,
      "velocity": 106,
      "chip": "ym2612"
    },
    {
      "channel": 2,
      "note": 103,
      "start": 74.7693,
      "duration": 0.0917,
      "velocity": 1,
      "chip": "ym2612"
    },
    {
      "channel": 0,
      "note": 88,
      "start": 74.8603,
      "duration": 0.5739,
      "velocity": 74,
      "chip": "ym2612"
    },
    {
      "channel": 3,
      "note": 66,
      "start": 74.8633,
      "duration": 0.0768,
      "velocity": 106,
      "chip": "ym2612"
    },
    {
      "channel": 2,
      "note": 64,
      "start": 74.8657,
      "duration": 0.0906,
      "velocity": 1,
      "chip": "ym2612"
    },
    {
      "channel": 3,
      "note": 73,
      "start": 74.9587,
      "duration": 0.0931,
      "velocity": 106,
      "chip": "ym2612"
    },
    {
      "channel": 4,
      "note": 88,
      "start": 74.9592,
      "duration": 0.5872,
      "velocity": 74,
      "chip": "ym2612"
    },
    {
      "channel": 2,
      "note": 64,
      "start": 74.9611,
      "duration": 0.1069,
      "velocity": 1,
      "chip": "ym2612"
    },
    {
      "channel": 3,
      "note": 74,
      "start": 75.0707,
      "duration": 0.0767,
      "velocity": 106,
      "chip": "ym2612"
    },
    {
      "channel": 2,
      "note": 26,
      "start": 75.0727,
      "duration": 0.0436,
      "velocity": 120,
      "chip": "ym2612"
    },
    {
      "channel": 3,
      "note": 73,
      "start": 75.1661,
      "duration": 0.0771,
      "velocity": 106,
      "chip": "ym2612"
    },
    {
      "channel": 2,
      "note": 26,
      "start": 75.168,
      "duration": 0.0435,
      "velocity": 1,
      "chip": "ym2612"
    },
    {
      "channel": 2,
      "note": 103,
      "start": 75.2153,
      "duration": 0.0441,
      "velocity": 1,
      "chip": "ym2612"
    },
    {
      "channel": 3,
      "note": 66,
      "start": 75.2617,
      "duration": 0.0771,
      "velocity": 106,
      "chip": "ym2612"
    },
    {
      "channel": 2,
      "note": 103,
      "start": 75.2637,
      "duration": 0.0914,
      "velocity": 1,
      "chip": "ym2612"
    },
    {
      "channel": 3,
      "note": 73,
      "start": 75.3575,
      "duration": 0.0772,
      "velocity": 106,
      "chip": "ym2612"
    },
    {
      "channel": 2,
      "note": 103,
      "start": 75.3594,
      "duration": 0.0918,
      "velocity": 1,
      "chip": "ym2612"
    },
    {
      "channel": 0,
      "note": 86,
      "start": 75.4505,
      "duration": 0.3824,
      "velocity": 74,
      "chip": "ym2612"
    },
    {
      "channel": 3,
      "note": 74,
      "start": 75.4539,
      "duration": 0.0923,
      "velocity": 106,
      "chip": "ym2612"
    },
    {
      "channel": 2,
      "note": 73,
      "start": 75.4563,
      "duration": 0.0265,
      "velocity": 1,
      "chip": "ym2612"
    },
    {
      "channel": 2,
      "note": 73,
      "start": 75.4866,
      "duration": 0.0282,
      "velocity": 1,
      "chip": "ym2612"
    },
    {
      "channel": 2,
      "note": 73,
      "start": 75.5185,
      "duration": 0.044,
      "velocity": 1,
      "chip": "ym2612"
    },
    {
      "channel": 3,
      "note": 73,
      "start": 75.5649,
      "duration": 0.077,
      "velocity": 106,
      "chip": "ym2612"
    },
    {
      "channel": 4,
      "note": 86,
      "start": 75.5654,
      "duration": 0.3639,
      "velocity": 74,
      "chip": "ym2612"
    },
    {
      "channel": 2,
      "note": 73,
      "start": 75.5673,
      "duration": 0.0909,
      "velocity": 1,
      "chip": "ym2612"
    },
    {
      "channel": 3,
      "note": 66,
      "start": 75.6605,
      "duration": 0.0771,
      "velocity": 106,
      "chip": "ym2612"
    },
    {
      "channel": 2,
      "note": 103,
      "start": 75.6624,
      "duration": 0.0915,
      "velocity": 1,
      "chip": "ym2612"
    },
    {
      "channel": 3,
      "note": 73,
      "start": 75.7562,
      "duration": 0.0772,
      "velocity": 106,
      "chip": "ym2612"
    },
    {
      "channel": 2,
      "note": 26,
      "start": 75.7581,
      "duration": 0.0436,
      "velocity": 1,
      "chip": "ym2612"
    },
    {
      "channel": 2,
      "note": 64,
      "start": 75.8054,
      "duration": 0.0449,
      "velocity": 1,
      "chip": "ym2612"
    },
    {
      "channel": 0,
      "note": 85,
      "start": 75.8493,
      "duration": 0.2868,
      "velocity": 74,
      "chip": "ym2612"
    },
    {
      "channel": 1,
      "note": 52,
      "start": 75.8498,
      "duration": 1.5625,
      "velocity": 112,
      "chip": "ym2612"
    },
    {
      "channel": 3,
      "note": 74,
      "start": 75.8536,
      "duration": 0.0754,
      "velocity": 106,
      "chip": "ym2612"
    },
    {
      "channel": 2,
      "note": 26,
      "start": 75.8562,
      "duration": 0.0254,
      "velocity": 1,
      "chip": "ym2612"
    },
    {
      "channel": 2,
      "note": 26,
      "start": 75.8853,
      "duration": 0.0448,
      "velocity": 120,
      "chip": "ym2612"
    },
    {
      "channel": 3,
      "note": 73,
      "start": 75.9476,
      "duration": 0.0771,
      "velocity": 106,
      "chip": "ym2612"
    },
    {
      "channel": 4,
      "note": 85,
      "start": 75.9482,
      "duration": 0.2842,
      "velocity": 74,
      "chip": "ym2612"
    },
    {
      "channel": 5,
      "note": 52,
      "start": 75.9487,
      "duration": 1.5598,
      "velocity": 112,
      "chip": "ym2612"
    },
    {
      "channel": 2,
      "note": 64,
      "start": 75.9505,
      "duration": 0.1065,
      "velocity": 1,
      "chip": "ym2612"
    },
    {
      "channel": 3,
      "note": 66,
      "start": 76.0593,
      "duration": 0.0772,
      "velocity": 106,
      "chip": "ym2612"
    },
    {
      "channel": 2,
      "note": 73,
      "start": 76.0612,
      "duration": 0.0918,
      "velocity": 1,
      "chip": "ym2612"
    },
    {
      "channel": 0,
      "note": 84,
      "start": 76.1523,
      "duration": 0.0795,
      "velocity": 74,
      "chip": "ym2612"
    },
    {
      "channel": 3,
      "note": 73,
      "start": 76.1554,
      "duration": 0.0768,
      "velocity": 106,
      "chip": "ym2612"
    },
    {
      "channel": 2,
      "note": 103,
      "start": 76.1576,
      "duration": 0.0912,
      "velocity": 1,
      "chip": "ym2612"
    },
    {
      "channel": 0,
      "note": 83,
      "start": 76.2481,
      "duration": 0.0794,
      "velocity": 74,
      "chip": "ym2612"
    },
    {
      "channel": 3,
      "note": 74,
      "start": 76.2515,
      "duration": 0.0763,
      "velocity": 106,
      "chip": "ym2612"
    },
    {
      "channel": 4,
      "note": 84,
      "start": 76.252,
      "duration": 0.076,
      "velocity": 74,
      "chip": "ym2612"
    },
    {
      "channel": 2,
      "note": 26,
      "start": 76.2542,
      "duration": 0.0425,
      "velocity": 120,
      "chip": "ym2612"
    },
    {
      "channel": 0,
      "note": 81,
      "start": 76.3437,
      "duration": 0.0795,
      "velocity": 74,
      "chip": "ym2612"
    },
    {
      "channel": 3,
      "note": 73,
      "start": 76.3468,
      "duration": 0.0768,
      "velocity": 106,
      "chip": "ym2612"
    },
    {
      "channel": 4,
      "note": 83,
      "start": 76.3472,
      "duration": 0.0765,
      "velocity": 74,
      "chip": "ym2612"
    },
    {
      "channel": 2,
      "note": 103,
      "start": 76.3495,
      "duration": 0.0907,
      "velocity": 1,
      "chip": "ym2612"
    },
    {
      "channel": 0,
      "note": 80,
      "start": 76.4395,
      "duration": 0.0794,
      "velocity": 74,
      "chip": "ym2612"
    },
    {
      "channel": 3,
      "note": 66,
      "start": 76.4425,
      "duration": 0.0768,
      "velocity": 106,
      "chip": "ym2612"
    },
    {
      "channel": 4,
      "note": 81,
      "start": 76.443,
      "duration": 0.0765,
      "velocity": 74,
      "chip": "ym2612"
    },
    {
      "channel": 2,
      "note": 73,
      "start": 76.4451,
      "duration": 0.0908,
      "velocity": 1,
      "chip": "ym2612"
    },
    {
      "channel": 0,
      "note": 78,
      "start": 76.5351,
      "duration": 0.0954,
      "velocity": 74,
      "chip": "ym2612"
    },
    {
      "channel": 3,
      "note": 73,
      "start": 76.5381,
      "duration": 0.0928,
      "velocity": 106,
      "chip": "ym2612"
    },
    {
      "channel": 4,
      "note": 80,
      "start": 76.5386,
      "duration": 0.0926,
      "velocity": 74,
      "chip": "ym2612"
    },
    {
      "channel": 2,
      "note": 103,
      "start": 76.5407,
      "duration": 0.1067,
      "velocity": 1,
      "chip": "ym2612"
    },
    {
      "channel": 0,
      "note": 77,
      "start": 76.6468,
      "duration": 0.0795,
      "velocity": 74,
      "chip": "ym2612"
    },
    {
      "channel": 3,
      "note": 74,
      "start": 76.6502,
      "duration": 0.0764,
      "velocity": 106,
      "chip": "ym2612"
    },
    {
      "channel": 4,
      "note": 78,
      "start": 76.6507,
      "duration": 0.0761,
      "velocity": 74,
      "chip": "ym2612"
    },
    {
      "channel": 2,
      "note": 64,
      "start": 76.653,
      "duration": 0.0902,
      "velocity": 1,
      "chip": "ym2612"
    },
    {
      "channel": 0,
      "note": 75,
      "start": 76.7425,
      "duration": 0.0795,
      "velocity": 74,
      "chip": "ym2612"
    },
    {
      "channel": 3,
      "note": 73,
      "start": 76.7455,
      "duration": 0.0768,
      "velocity": 106,
      "chip": "ym2612"
    },
    {
      "channel": 4,
      "note": 77,
      "start": 76.746,
      "duration": 0.0765,
      "velocity": 74,
      "chip": "ym2612"
    },
    {
      "channel": 2,
      "note": 103,
      "start": 76.7482,
      "duration": 0.0907,
      "velocity": 1,
      "chip": "ym2612"
    },
    {
      "channel": 0,
      "note": 74,
      "start": 76.8382,
      "duration": 0.0795,
      "velocity": 74,
      "chip": "ym2612"
    },
    {
      "channel": 3,
      "note": 66,
      "start": 76.8412,
      "duration": 0.0768,
      "velocity": 106,
      "chip": "ym2612"
    },
    {
      "channel": 4,
      "note": 75,
      "start": 76.8417,
      "duration": 0.0765,
      "velocity": 74,
      "chip": "ym2612"
    },
    {
      "channel": 2,
      "note": 103,
      "start": 76.8438,
      "duration": 0.0908,
      "velocity": 1,
      "chip": "ym2612"
    },
    {
      "channel": 0,
      "note": 71,
      "start": 76.9339,
      "duration": 0.0794,
      "velocity": 74,
      "chip": "ym2612"
    },
    {
      "channel": 3,
      "note": 73,
      "start": 76.9369,
      "duration": 0.0768,
      "velocity": 106,
      "chip": "ym2612"
    },
    {
      "channel": 4,
      "note": 74,
      "start": 76.9374,
      "duration": 0.0765,
      "velocity": 74,
      "chip": "ym2612"
    },
    {
      "channel": 2,
      "note": 103,
      "start": 76.9395,
      "duration": 0.0908,
      "velocity": 1,
      "chip": "ym2612"
    },
    {
      "channel": 0,
      "note": 70,
      "start": 77.0296,
      "duration": 0.0954,
      "velocity": 74,
      "chip": "ym2612"
    },
    {
      "channel": 3,
      "note": 74,
      "start": 77.033,
      "duration": 0.0924,
      "velocity": 106,
      "chip": "ym2612"
    },
    {
      "channel": 4,
      "note": 71,
      "start": 77.0336,
      "duration": 0.092,
      "velocity": 74,
      "chip": "ym2612"
    },
    {
      "channel": 2,
      "note": 64,
      "start": 77.0359,
      "duration": 0.0419,
      "velocity": 1,
      "chip": "ym2612"
    },
    {
      "channel": 2,
      "note": 73,
      "start": 77.0817,
      "duration": 0.028,
      "velocity": 1,
      "chip": "ym2612"
    },
    {
      "channel": 2,
      "note": 64,
      "start": 77.1134,
      "duration": 0.0285,
      "velocity": 1,
      "chip": "ym2612"
    },
    {
      "channel": 0,
      "note": 68,
      "start": 77.1412,
      "duration": 0.0795,
      "velocity": 74,
      "chip": "ym2612"
    },
    {
      "channel": 3,
      "note": 73,
      "start": 77.1443,
      "duration": 0.0768,
      "velocity": 106,
      "chip": "ym2612"
    },
    {
      "channel": 4,
      "note": 70,
      "start": 77.1448,
      "duration": 0.0765,
      "velocity": 74,
      "chip": "ym2612"
    },
    {
      "channel": 2,
      "note": 64,
      "start": 77.1469,
      "duration": 0.0908,
      "velocity": 1,
      "chip": "ym2612"
    },
    {
      "channel": 0,
      "note": 67,
      "start": 77.237,
      "duration": 0.1751,
      "velocity": 74,
      "chip": "ym2612"
    },
    {
      "channel": 3,
      "note": 66,
      "start": 77.24,
      "duration": 0.0767,
      "velocity": 106,
      "chip": "ym2612"
    },
    {
      "channel": 4,
      "note": 68,
      "start": 77.2405,
      "duration": 0.0764,
      "velocity": 74,
      "chip": "ym2612"
    },
    {
      "channel": 2,
      "note": 26,
      "start": 77.2426,
      "duration": 0.0431,
      "velocity": 120,
      "chip": "ym2612"
    },
    {
      "channel": 3,
      "note": 73,
      "start": 77.3353,
      "duration": 0.0772,
      "velocity": 106,
      "chip": "ym2612"
    },
    {
      "channel": 4,
      "note": 67,
      "start": 77.3359,
      "duration": 0.1725,
      "velocity": 74,
      "chip": "ym2612"
    },
    {
      "channel": 2,
      "note": 26,
      "start": 77.3377,
      "duration": 0.0438,
      "velocity": 120,
      "chip": "ym2612"
    },
    {
      "channel": 0,
      "note": 88,
      "start": 77.432,
      "duration": 0.0758,
      "velocity": 95,
      "chip": "ym2612"
    },
    {
      "channel": 1,
      "note": 42,
      "start": 77.4327,
      "duration": 1.5587,
      "velocity": 112,
      "chip": "ym2612"
    },
    {
      "channel": 3,
      "note": 83,
      "start": 77.4393,
      "duration": 0.0689,
      "velocity": 95,
      "chip": "ym2612"
    },
    {
      "channel": 2,
      "note": 64,
      "start": 77.4421,
      "duration": 0.0345,
      "velocity": 1,
      "chip": "ym2612"
    },
    {
      "channel": 2,
      "note": 73,
      "start": 77.4804,
      "duration": 0.0444,
      "velocity": 1,
      "chip": "ym2612"
    },
    {
      "channel": 0,
      "note": 85,
      "start": 77.5241,
      "duration": 0.0954,
      "velocity": 95,
      "chip": "ym2612"
    },
    {
      "channel": 3,
      "note": 80,
      "start": 77.5271,
      "duration": 0.0927,
      "velocity": 95,
      "chip": "ym2612"
    },
    {
      "channel": 4,
      "note": 88,
      "start": 77.5314,
      "duration": 0.0887,
      "velocity": 95,
      "chip": "ym2612"
    },
    {
      "channel": 5,
      "note": 42,
      "start": 77.5321,
      "duration": 1.5556,
      "velocity": 112,
      "chip": "ym2612"
    },
    {
      "channel": 2,
      "note": 77,
      "start": 77.5341,
      "duration": 0.1024,
      "velocity": 1,
      "chip": "ym2612"
    },
    {
      "channel": 0,
      "note": 83,
      "start": 77.6357,
      "duration": 0.0795,
      "velocity": 95,
      "chip": "ym2612"
    },
    {
      "channel": 3,
      "note": 78,
      "start": 77.639,
      "duration": 0.0766,
      "velocity": 95,
      "chip": "ym2612"
    },
    {
      "channel": 4,
      "note": 85,
      "start": 77.6394,
      "duration": 0.0763,
      "velocity": 95,
      "chip": "ym2612"
    },
    {
      "channel": 2,
      "note": 103,
      "start": 77.6416,
      "duration": 0.0907,
      "velocity": 1,
      "chip": "ym2612"
    },
    {
      "channel": 0,
      "note": 81,
      "start": 77.7315,
      "duration": 0.0794,
      "velocity": 95,
      "chip": "ym2612"
    },
    {
      "channel": 3,
      "note": 76,
      "start": 77.7345,
      "duration": 0.0768,
      "velocity": 95,
      "chip": "ym2612"
    },
    {
      "channel": 4,
      "note": 83,
      "start": 77.735,
      "duration": 0.0765,
      "velocity": 95,
      "chip": "ym2612"
    },
    {
      "channel": 2,
      "note": 103,
      "start": 77.7371,
      "duration": 0.0907,
      "velocity": 1,
      "chip": "ym2612"
    },
    {
      "channel": 0,
      "note": 83,
      "start": 77.8271,
      "duration": 0.0794,
      "velocity": 95,
      "chip": "ym2612"
    },
    {
      "channel": 3,
      "note": 78,
      "start": 77.8304,
      "duration": 0.0766,
      "velocity": 95,
      "chip": "ym2612"
    },
    {
      "channel": 4,
      "note": 81,
      "start": 77.8308,
      "duration": 0.0763,
      "velocity": 95,
      "chip": "ym2612"
    },
    {
      "channel": 2,
      "note": 73,
      "start": 77.8331,
      "duration": 0.0904,
      "velocity": 1,
      "chip": "ym2612"
    },
    {
      "channel": 0,
      "note": 81,
      "start": 77.9229,
      "duration": 0.0794,
      "velocity": 95,
      "chip": "ym2612"
    },
    {
      "channel": 3,
      "note": 76,
      "start": 77.9259,
      "duration": 0.0768,
      "velocity": 95,
      "chip": "ym2612"
    },
    {
      "channel": 4,
      "note": 83,
      "start": 77.9264,
      "duration": 0.0765,
      "velocity": 95,
      "chip": "ym2612"
    },
    {
      "channel": 2,
      "note": 103,
      "start": 77.9285,
      "duration": 0.0908,
      "velocity": 1,
      "chip": "ym2612"
    },
    {
      "channel": 0,
      "note": 74,
      "start": 78.0185,
      "duration": 0.0954,
      "velocity": 95,
      "chip": "ym2612"
    },
    {
      "channel": 3,
      "note": 69,
      "start": 78.0218,
      "duration": 0.0926,
      "velocity": 95,
      "chip": "ym2612"
    },
    {
      "channel": 4,
      "note": 81,
      "start": 78.0222,
      "duration": 0.0924,
      "velocity": 95,
      "chip": "ym2612"
    },
    {
      "channel": 2,
      "note": 64,
      "start": 78.0245,
      "duration": 0.1064,
      "velocity": 1,
      "chip": "ym2612"
    },
    {
      "channel": 0,
      "note": 76,
      "start": 78.1302,
      "duration": 0.0795,
      "velocity": 95,
      "chip": "ym2612"
    },
    {
      "channel": 3,
      "note": 71,
      "start": 78.1335,
      "duration": 0.0765,
      "velocity": 95,
      "chip": "ym2612"
    },
    {
      "channel": 4,
      "note": 74,
      "start": 78.134,
      "duration": 0.0762,
      "velocity": 95,
      "chip": "ym2612"
    },
    {
      "channel": 2,
      "note": 64,
      "start": 78.1362,
      "duration": 0.0905,
      "velocity": 1,
      "chip": "ym2612"
    },
    {
      "channel": 0,
      "note": 88,
      "start": 78.2261,
      "duration": 0.0793,
      "velocity": 95,
      "chip": "ym2612"
    },
    {
      "channel": 3,
      "note": 83,
      "start": 78.2326,
      "duration": 0.0732,
      "velocity": 95,
      "chip": "ym2612"
    },
    {
      "channel": 4,
      "note": 76,
      "start": 78.2331,
      "duration": 0.0728,
      "velocity": 95,
      "chip": "ym2612"
    },
    {
      "channel": 2,
      "note": 26,
      "start": 78.2355,
      "duration": 0.0391,
      "velocity": 120,
      "chip": "ym2612"
    },
    {
      "channel": 0,
      "note": 85,
      "start": 78.3216,
      "duration": 0.0794,
      "velocity": 95,
      "chip": "ym2612"
    },
    {
      "channel": 3,
      "note": 80,
      "start": 78.3246,
      "duration": 0.0768,
      "velocity": 95,
      "chip": "ym2612"
    },
    {
      "channel": 4,
      "note": 88,
      "start": 78.3252,
      "duration": 0.0764,
      "velocity": 95,
      "chip": "ym2612"
    },
    {
      "channel": 2,
      "note": 26,
      "start": 78.3273,
      "duration": 0.0426,
      "velocity": 1,
      "chip": "ym2612"
    },
    {
      "channel": 2,
      "note": 103,
      "start": 78.3736,
      "duration": 0.0444,
      "velocity": 1,
      "chip": "ym2612"
    },
    {
      "channel": 0,
      "note": 83,
      "start": 78.4173,
      "duration": 0.0794,
      "velocity": 95,
      "chip": "ym2612"
    },
    {
      "channel": 3,
      "note": 78,
      "start": 78.4205,
      "duration": 0.0766,
      "velocity": 95,
      "chip": "ym2612"
    },
    {
      "channel": 4,
      "note": 85,
      "start": 78.421,
      "duration": 0.0763,
      "velocity": 95,
      "chip": "ym2612"
    },
    {
      "channel": 2,
      "note": 103,
      "start": 78.4232,
      "duration": 0.0905,
      "velocity": 1,
      "chip": "ym2612"
    },
    {
      "channel": 0,
      "note": 81,
      "start": 78.513,
      "duration": 0.0954,
      "velocity": 95,
      "chip": "ym2612"
    },
    {
      "channel": 3,
      "note": 76,
      "start": 78.5161,
      "duration": 0.0927,
      "velocity": 95,
      "chip": "ym2612"
    },
    {
      "channel": 4,
      "note": 83,
      "start": 78.5166,
      "duration": 0.0924,
      "velocity": 95,
      "chip": "ym2612"
    },
    {
      "channel": 2,
      "note": 103,
      "start": 78.5187,
      "duration": 0.1067,
      "velocity": 1,
      "chip": "ym2612"
    },
    {
      "channel": 0,
      "note": 83,
      "start": 78.6246,
      "duration": 0.0795,
      "velocity": 95,
      "chip": "ym2612"
    },
    {
      "channel": 3,
      "note": 78,
      "start": 78.6279,
      "duration": 0.0766,
      "velocity": 95,
      "chip": "ym2612"
    },
    {
      "channel": 4,
      "note": 81,
      "start": 78.6283,
      "duration": 0.0763,
      "velocity": 95,
      "chip": "ym2612"
    },
    {
      "channel": 2,
      "note": 73,
      "start": 78.6306,
      "duration": 0.0263,
      "velocity": 1,
      "chip": "ym2612"
    },
    {
      "channel": 2,
      "note": 73,
      "start": 78.6607,
      "duration": 0.028,
      "velocity": 1,
      "chip": "ym2612"
    },
    {
      "channel": 2,
      "note": 73,
      "start": 78.6926,
      "duration": 0.0285,
      "velocity": 1,
      "chip": "ym2612"
    },
    {
      "channel": 0,
      "note": 81,
      "start": 78.7204,
      "duration": 0.0795,
      "velocity": 95,
      "chip": "ym2612"
    },
    {
      "channel": 3,
      "note": 76,
      "start": 78.7234,
      "duration": 0.0768,
      "velocity": 95,
      "chip": "ym2612"
    },
    {
      "channel": 4,
      "note": 83,
      "start": 78.7239,
      "duration": 0.0765,
      "velocity": 95,
      "chip": "ym2612"
    },
    {
      "channel": 2,
      "note": 73,
      "start": 78.726,
      "duration": 0.0908,
      "velocity": 1,
      "chip": "ym2612"
    },
    {
      "channel": 0,
      "note": 74,
      "start": 78.8161,
      "duration": 0.0795,
      "velocity": 95,
      "chip": "ym2612"
    },
    {
      "channel": 3,
      "note": 69,
      "start": 78.8193,
      "duration": 0.0766,
      "velocity": 95,
      "chip": "ym2612"
    },
    {
      "channel": 4,
      "note": 81,
      "start": 78.8198,
      "duration": 0.0763,
      "velocity": 95,
      "chip": "ym2612"
    },
    {
      "channel": 2,
      "note": 103,
      "start": 78.8219,
      "duration": 0.0905,
      "velocity": 1,
      "chip": "ym2612"
    },
    {
      "channel": 0,
      "note": 76,
      "start": 78.9118,
      "duration": 0.0795,
      "velocity": 95,
      "chip": "ym2612"
    },
    {
      "channel": 3,
      "note": 71,
      "start": 78.9151,
      "duration": 0.0766,
      "velocity": 95,
      "chip": "ym2612"
    },
    {
      "channel": 4,
      "note": 74,
      "start": 78.9156,
      "duration": 0.0763,
      "velocity": 95,
      "chip": "ym2612"
    },
    {
      "channel": 2,
      "note": 26,
      "start": 78.9177,
      "duration": 0.0423,
      "velocity": 1,
      "chip": "ym2612"
    },
    {
      "channel": 2,
      "note": 64,
      "start": 78.9638,
      "duration": 0.0449,
      "velocity": 1,
      "chip": "ym2612"
    },
    {
      "channel": 0,
      "note": 88,
      "start": 79.0076,
      "duration": 0.0793,
      "velocity": 95,
      "chip": "ym2612"
    },
    {
      "channel": 1,
      "note": 44,
      "start": 79.008,
      "duration": 1.5625,
      "velocity": 112,
      "chip": "ym2612"
    },
    {
      "channel": 3,
      "note": 83,
      "start": 79.0149,
      "duration": 0.0724,
      "velocity": 95,
      "chip": "ym2612"
    },
    {
      "channel": 4,
      "note": 76,
      "start": 79.0154,
      "duration": 0.0721,
      "velocity": 95,
      "chip": "ym2612"
    },
    {
      "channel": 2,
      "note": 64,
      "start": 79.0178,
      "duration": 0.0378,
      "velocity": 1,
      "chip": "ym2612"
    },
    {
      "channel": 2,
      "note": 73,
      "start": 79.0595,
      "duration": 0.0604,
      "velocity": 1,
      "chip": "ym2612"
    },
    {
      "channel": 0,
      "note": 85,
      "start": 79.1192,
      "duration": 0.0794,
      "velocity": 95,
      "chip": "ym2612"
    },
    {
      "channel": 3,
      "note": 80,
      "start": 79.1222,
      "duration": 0.0768,
      "velocity": 95,
      "chip": "ym2612"
    },
    {
      "channel": 4,
      "note": 88,
      "start": 79.1227,
      "duration": 0.0764,
      "velocity": 95,
      "chip": "ym2612"
    },
    {
      "channel": 5,
      "note": 44,
      "start": 79.1232,
      "duration": 1.5595,
      "velocity": 112,
      "chip": "ym2612"
    },
    {
      "channel": 2,
      "note": 77,
      "start": 79.1252,
      "duration": 0.0904,
      "velocity": 1,
      "chip": "ym2612"
    },
    {
      "channel": 0,
      "note": 83,
      "start": 79.2149,
      "duration": 0.0794,
      "velocity": 95,
      "chip": "ym2612"
    },
    {
      "channel": 3,
      "note": 78,
      "start": 79.2181,
      "duration": 0.0766,
      "velocity": 95,
      "chip": "ym2612"
    },
    {
      "channel": 4,
      "note": 85,
      "start": 79.2186,
      "duration": 0.0763,
      "velocity": 95,
      "chip": "ym2612"
    },
    {
      "channel": 2,
      "note": 103,
      "start": 79.2208,
      "duration": 0.0905,
      "velocity": 1,
      "chip": "ym2612"
    },
    {
      "channel": 0,
      "note": 81,
      "start": 79.3105,
      "duration": 0.0795,
      "velocity": 95,
      "chip": "ym2612"
    },
    {
      "channel": 3,
      "note": 76,
      "start": 79.3136,
      "duration": 0.0768,
      "velocity": 95,
      "chip": "ym2612"
    },
    {
      "channel": 4,
      "note": 83,
      "start": 79.314,
      "duration": 0.0765,
      "velocity": 95,
      "chip": "ym2612"
    },
    {
      "channel": 2,
      "note": 103,
      "start": 79.3162,
      "duration": 0.0907,
      "velocity": 1,
      "chip": "ym2612"
    },
    {
      "channel": 0,
      "note": 83,
      "start": 79.4063,
      "duration": 0.0795,
      "velocity": 95,
      "chip": "ym2612"
    },
    {
      "channel": 3,
      "note": 78,
      "start": 79.4095,
      "duration": 0.0766,
      "velocity": 95,
      "chip": "ym2612"
    },
    {
      "channel": 4,
      "note": 81,
      "start": 79.41,
      "duration": 0.0763,
      "velocity": 95,
      "chip": "ym2612"
    },
    {
      "channel": 2,
      "note": 73,
      "start": 79.4121,
      "duration": 0.0905,
      "velocity": 1,
      "chip": "ym2612"
    },
    {
      "channel": 0,
      "note": 81,
      "start": 79.502,
      "duration": 0.0795,
      "velocity": 95,
      "chip": "ym2612"
    },
    {
      "channel": 3,
      "note": 76,
      "start": 79.505,
      "duration": 0.0768,
      "velocity": 95,
      "chip": "ym2612"
    },
    {
      "channel": 4,
      "note": 83,
      "start": 79.5054,
      "duration": 0.0766,
      "velocity": 95,
      "chip": "ym2612"
    },
    {
      "channel": 2,
      "note": 103,
      "start": 79.5076,
      "duration": 0.0909,
      "velocity": 1,
      "chip": "ym2612"
    },
    {
      "channel": 0,
      "note": 74,
      "start": 79.5977,
      "duration": 0.0954,
      "velocity": 95,
      "chip": "ym2612"
    },
    {
      "channel": 3,
      "note": 69,
      "start": 79.6009,
      "duration": 0.0925,
      "velocity": 95,
      "chip": "ym2612"
    },
    {
      "channel": 4,
      "note": 81,
      "start": 79.6014,
      "duration": 0.0922,
      "velocity": 95,
      "chip": "ym2612"
    },
    {
      "channel": 2,
      "note": 64,
      "start": 79.6036,
      "duration": 0.1064,
      "velocity": 1,
      "chip": "ym2612"
    },
    {
      "channel": 0,
      "note": 76,
      "start": 79.7093,
      "duration": 0.0795,
      "velocity": 95,
      "chip": "ym2612"
    },
    {
      "channel": 3,
      "note": 71,
      "start": 79.7125,
      "duration": 0.0767,
      "velocity": 95,
      "chip": "ym2612"
    },
    {
      "channel": 4,
      "note": 74,
      "start": 79.713,
      "duration": 0.0763,
      "velocity": 95,
      "chip": "ym2612"
    },
    {
      "channel": 2,
      "note": 64,
      "start": 79.7152,
      "duration": 0.0906,
      "velocity": 1,
      "chip": "ym2612"
    },
    {
      "channel": 0,
      "note": 88,
      "start": 79.8051,
      "duration": 0.0793,
      "velocity": 95,
      "chip": "ym2612"
    },
    {
      "channel": 3,
      "note": 83,
      "start": 79.8117,
      "duration": 0.0732,
      "velocity": 95,
      "chip": "ym2612"
    },
    {
      "channel": 4,
      "note": 76,
      "start": 79.8121,
      "duration": 0.0729,
      "velocity": 95,
      "chip": "ym2612"
    },
    {
      "channel": 2,
      "note": 26,
      "start": 79.8146,
      "duration": 0.0391,
      "velocity": 120,
      "chip": "ym2612"
    },
    {
      "channel": 0,
      "note": 85,
      "start": 79.9007,
      "duration": 0.0795,
      "velocity": 95,
      "chip": "ym2612"
    },
    {
      "channel": 3,
      "note": 80,
      "start": 79.9037,
      "duration": 0.0768,
      "velocity": 95,
      "chip": "ym2612"
    },
    {
      "channel": 4,
      "note": 88,
      "start": 79.9044,
      "duration": 0.0764,
      "velocity": 95,
      "chip": "ym2612"
    },
    {
      "channel": 2,
      "note": 26,
      "start": 79.9064,
      "duration": 0.0425,
      "velocity": 1,
      "chip": "ym2612"
    },
    {
      "channel": 2,
      "note": 103,
      "start": 79.9527,
      "duration": 0.0444,
      "velocity": 1,
      "chip": "ym2612"
    },
    {
      "channel": 0,
      "note": 83,
      "start": 79.9964,
      "duration": 0.0794,
      "velocity": 95,
      "chip": "ym2612"
    },
    {
      "channel": 3,
      "note": 78,
      "start": 79.9997,
      "duration": 0.0765,
      "velocity": 95,
      "chip": "ym2612"
    },
    {
      "channel": 4,
      "note": 85,
      "start": 80.0002,
      "duration": 0.0762,
      "velocity": 95,
      "chip": "ym2612"
    },
    {
      "channel": 2,
      "note": 103,
      "start": 80.0024,
      "duration": 0.0904,
      "velocity": 1,
      "chip": "ym2612"
    },
    {
      "channel": 0,
      "note": 81,
      "start": 80.0922,
      "duration": 0.0954,
      "velocity": 95,
      "chip": "ym2612"
    },
    {
      "channel": 3,
      "note": 76,
      "start": 80.0951,
      "duration": 0.0928,
      "velocity": 95,
      "chip": "ym2612"
    },
    {
      "channel": 4,
      "note": 83,
      "start": 80.0956,
      "duration": 0.0924,
      "velocity": 95,
      "chip": "ym2612"
    },
    {
      "channel": 2,
      "note": 103,
      "start": 80.0978,
      "duration": 0.1067,
      "velocity": 1,
      "chip": "ym2612"
    },
    {
      "channel": 0,
      "note": 83,
      "start": 80.2038,
      "duration": 0.0795,
      "velocity": 95,
      "chip": "ym2612"
    },
    {
      "channel": 3,
      "note": 78,
      "start": 80.207,
      "duration": 0.0767,
      "velocity": 95,
      "chip": "ym2612"
    },
    {
      "channel": 4,
      "note": 81,
      "start": 80.2075,
      "duration": 0.0763,
      "velocity": 95,
      "chip": "ym2612"
    },
    {
      "channel": 2,
      "note": 73,
      "start": 80.2096,
      "duration": 0.0263,
      "velocity": 1,
      "chip": "ym2612"
    },
    {
      "channel": 2,
      "note": 73,
      "start": 80.2398,
      "duration": 0.0281,
      "velocity": 1,
      "chip": "ym2612"
    },
    {
      "channel": 2,
      "note": 73,
      "start": 80.2717,
      "duration": 0.0284,
      "velocity": 1,
      "chip": "ym2612"
    },
    {
      "channel": 0,
      "note": 81,
      "start": 80.2995,
      "duration": 0.0794,
      "velocity": 95,
      "chip": "ym2612"
    },
    {
      "channel": 3,
      "note": 76,
      "start": 80.3025,
      "duration": 0.0768,
      "velocity": 95,
      "chip": "ym2612"
    },
    {
      "channel": 4,
      "note": 83,
      "start": 80.303,
      "duration": 0.0765,
      "velocity": 95,
      "chip": "ym2612"
    },
    {
      "channel": 2,
      "note": 73,
      "start": 80.3051,
      "duration": 0.0908,
      "velocity": 1,
      "chip": "ym2612"
    },
    {
      "channel": 0,
      "note": 74,
      "start": 80.3952,
      "duration": 0.0795,
      "velocity": 95,
      "chip": "ym2612"
    },
    {
      "channel": 3,
      "note": 69,
      "start": 80.3984,
      "duration": 0.0766,
      "velocity": 95,
      "chip": "ym2612"
    },
    {
      "channel": 4,
      "note": 81,
      "start": 80.399,
      "duration": 0.0763,
      "velocity": 95,
      "chip": "ym2612"
    },
    {
      "channel": 2,
      "note": 103,
      "start": 80.4011,
      "duration": 0.0905,
      "velocity": 1,
      "chip": "ym2612"
    },
    {
      "channel": 0,
      "note": 76,
      "start": 80.4909,
      "duration": 0.0794,
      "velocity": 95,
      "chip": "ym2612"
    },
    {
      "channel": 3,
      "note": 71,
      "start": 80.4941,
      "duration": 0.0766,
      "velocity": 95,
      "chip": "ym2612"
    },
    {
      "channel": 4,
      "note": 74,
      "start": 80.4946,
      "duration": 0.0764,
      "velocity": 95,
      "chip": "ym2612"
    },
    {
      "channel": 2,
      "note": 26,
      "start": 80.4967,
      "duration": 0.0424,
      "velocity": 1,
      "chip": "ym2612"
    },
    {
      "channel": 2,
      "note": 64,
      "start": 80.5428,
      "duration": 0.0449,
      "velocity": 1,
      "chip": "ym2612"
    },
    {
      "channel": 0,
      "note": 88,
      "start": 80.5867,
      "duration": 0.0953,
      "velocity": 95,
      "chip": "ym2612"
    },
    {
      "channel": 1,
      "note": 45,
      "start": 80.5872,
      "duration": 1.5625,
      "velocity": 112,
      "chip": "ym2612"
    },
    {
      "channel": 3,
      "note": 83,
      "start": 80.5939,
      "duration": 0.0885,
      "velocity": 95,
      "chip": "ym2612"
    },
    {
      "channel": 4,
      "note": 76,
      "start": 80.5944,
      "duration": 0.0882,
      "velocity": 95,
      "chip": "ym2612"
    },
    {
      "channel": 2,
      "note": 64,
      "start": 80.5968,
      "duration": 0.0539,
      "velocity": 1,
      "chip": "ym2612"
    },
    {
      "channel": 2,
      "note": 73,
      "start": 80.6545,
      "duration": 0.0445,
      "velocity": 1,
      "chip": "ym2612"
    },
    {
      "channel": 0,
      "note": 85,
      "start": 80.6983,
      "duration": 0.0794,
      "velocity": 95,
      "chip": "ym2612"
    },
    {
      "channel": 3,
      "note": 80,
      "start": 80.7014,
      "duration": 0.0767,
      "velocity": 95,
      "chip": "ym2612"
    },
    {
      "channel": 4,
      "note": 88,
      "start": 80.702,
      "duration": 0.0763,
      "velocity": 95,
      "chip": "ym2612"
    },
    {
      "channel": 5,
      "note": 45,
      "start": 80.7024,
      "duration": 1.5594,
      "velocity": 112,
      "chip": "ym2612"
    },
    {
      "channel": 2,
      "note": 77,
      "start": 80.7044,
      "duration": 0.0902,
      "velocity": 1,
      "chip": "ym2612"
    },
    {
      "channel": 0,
      "note": 83,
      "start": 80.794,
      "duration": 0.0794,
      "velocity": 95,
      "chip": "ym2612"
    },
    {
      "channel": 3,
      "note": 78,
      "start": 80.7972,
      "duration": 0.0766,
      "velocity": 95,
      "chip": "ym2612"
    },
    {
      "channel": 4,
      "note": 85,
      "start": 80.7977,
      "duration": 0.0763,
      "velocity": 95,
      "chip": "ym2612"
    },
    {
      "channel": 2,
      "note": 103,
      "start": 80.7999,
      "duration": 0.0905,
      "velocity": 1,
      "chip": "ym2612"
    },
    {
      "channel": 0,
      "note": 81,
      "start": 80.8897,
      "duration": 0.0795,
      "velocity": 95,
      "chip": "ym2612"
    },
    {
      "channel": 3,
      "note": 76,
      "start": 80.8927,
      "duration": 0.0768,
      "velocity": 95,
      "chip": "ym2612"
    },
    {
      "channel": 4,
      "note": 83,
      "start": 80.8932,
      "duration": 0.0765,
      "velocity": 95,
      "chip": "ym2612"
    },
    {
      "channel": 2,
      "note": 103,
      "start": 80.8953,
      "duration": 0.0908,
      "velocity": 1,
      "chip": "ym2612"
    },
    {
      "channel": 0,
      "note": 83,
      "start": 80.9853,
      "duration": 0.0795,
      "velocity": 95,
      "chip": "ym2612"
    },
    {
      "channel": 3,
      "note": 78,
      "start": 80.9886,
      "duration": 0.0766,
      "velocity": 95,
      "chip": "ym2612"
    },
    {
      "channel": 4,
      "note": 81,
      "start": 80.989,
      "duration": 0.0764,
      "velocity": 95,
      "chip": "ym2612"
    },
    {
      "channel": 2,
      "note": 73,
      "start": 80.9912,
      "duration": 0.0906,
      "velocity": 1,
      "chip": "ym2612"
    },
    {
      "channel": 0,
      "note": 81,
      "start": 81.0811,
      "duration": 0.0954,
      "velocity": 95,
      "chip": "ym2612"
    },
    {
      "channel": 3,
      "note": 76,
      "start": 81.0842,
      "duration": 0.0926,
      "velocity": 95,
      "chip": "ym2612"
    },
    {
      "channel": 4,
      "note": 83,
      "start": 81.0846,
      "duration": 0.0924,
      "velocity": 95,
      "chip": "ym2612"
    },
    {
      "channel": 2,
      "note": 103,
      "start": 81.0867,
      "duration": 0.1067,
      "velocity": 1,
      "chip": "ym2612"
    },
    {
      "channel": 0,
      "note": 74,
      "start": 81.1927,
      "duration": 0.0795,
      "velocity": 95,
      "chip": "ym2612"
    },
    {
      "channel": 3,
      "note": 69,
      "start": 81.1959,
      "duration": 0.0767,
      "velocity": 95,
      "chip": "ym2612"
    },
    {
      "channel": 4,
      "note": 81,
      "start": 81.1964,
      "duration": 0.0763,
      "velocity": 95,
      "chip": "ym2612"
    },
    {
      "channel": 2,
      "note": 64,
      "start": 81.1986,
      "duration": 0.0905,
      "velocity": 1,
      "chip": "ym2612"
    },
    {
      "channel": 0,
      "note": 76,
      "start": 81.2885,
      "duration": 0.0794,
      "velocity": 95,
      "chip": "ym2612"
    },
    {
      "channel": 3,
      "note": 71,
      "start": 81.2916,
      "duration": 0.0766,
      "velocity": 95,
      "chip": "ym2612"
    },
    {
      "channel": 4,
      "note": 74,
      "start": 81.2922,
      "duration": 0.0763,
      "velocity": 95,
      "chip": "ym2612"
    },
    {
      "channel": 2,
      "note": 64,
      "start": 81.2943,
      "duration": 0.0906,
      "velocity": 1,
      "chip": "ym2612"
    },
    {
      "channel": 0,
      "note": 88,
      "start": 81.3843,
      "duration": 0.0793,
      "velocity": 95,
      "chip": "ym2612"
    },
    {
      "channel": 3,
      "note": 83,
      "start": 81.3907,
      "duration": 0.0732,
      "velocity": 95,
      "chip": "ym2612"
    },
    {
      "channel": 4,
      "note": 76,
      "start": 81.3912,
      "duration": 0.0729,
      "velocity": 95,
      "chip": "ym2612"
    },
    {
      "channel": 2,
      "note": 26,
      "start": 81.3936,
      "duration": 0.0393,
      "velocity": 120,
      "chip": "ym2612"
    },
    {
      "channel": 0,
      "note": 85,
      "start": 81.4799,
      "duration": 0.0794,
      "velocity": 95,
      "chip": "ym2612"
    },
    {
      "channel": 3,
      "note": 80,
      "start": 81.4829,
      "duration": 0.0767,
      "velocity": 95,
      "chip": "ym2612"
    },
    {
      "channel": 4,
      "note": 88,
      "start": 81.4835,
      "duration": 0.0763,
      "velocity": 95,
      "chip": "ym2612"
    },
    {
      "channel": 2,
      "note": 26,
      "start": 81.4856,
      "duration": 0.0424,
      "velocity": 1,
      "chip": "ym2612"
    },
    {
      "channel": 2,
      "note": 103,
      "start": 81.5318,
      "duration": 0.0444,
      "velocity": 1,
      "chip": "ym2612"
    },
    {
      "channel": 0,
      "note": 83,
      "start": 81.5755,
      "duration": 0.0954,
      "velocity": 95,
      "chip": "ym2612"
    },
    {
      "channel": 3,
      "note": 78,
      "start": 81.5787,
      "duration": 0.0925,
      "velocity": 95,
      "chip": "ym2612"
    },
    {
      "channel": 4,
      "note": 85,
      "start": 81.5792,
      "duration": 0.0922,
      "velocity": 95,
      "chip": "ym2612"
    },
    {
      "channel": 2,
      "note": 103,
      "start": 81.5815,
      "duration": 0.1064,
      "velocity": 1,
      "chip": "ym2612"
    },
    {
      "channel": 0,
      "note": 81,
      "start": 81.6872,
      "duration": 0.0795,
      "velocity": 95,
      "chip": "ym2612"
    },
    {
      "channel": 3,
      "note": 76,
      "start": 81.6902,
      "duration": 0.0768,
      "velocity": 95,
      "chip": "ym2612"
    },
    {
      "channel": 4,
      "note": 83,
      "start": 81.6907,
      "duration": 0.0765,
      "velocity": 95,
      "chip": "ym2612"
    },
    {
      "channel": 2,
      "note": 103,
      "start": 81.6928,
      "duration": 0.0908,
      "velocity": 1,
      "chip": "ym2612"
    },
    {
      "channel": 0,
      "note": 83,
      "start": 81.7829,
      "duration": 0.0794,
      "velocity": 95,
      "chip": "ym2612"
    },
    {
      "channel": 3,
      "note": 78,
      "start": 81.7861,
      "duration": 0.0766,
      "velocity": 95,
      "chip": "ym2612"
    },
    {
      "channel": 4,
      "note": 81,
      "start": 81.7866,
      "duration": 0.0763,
      "velocity": 95,
      "chip": "ym2612"
    },
    {
      "channel": 2,
      "note": 73,
      "start": 81.7888,
      "duration": 0.0264,
      "velocity": 1,
      "chip": "ym2612"
    },
    {
      "channel": 2,
      "note": 73,
      "start": 81.819,
      "duration": 0.0281,
      "velocity": 1,
      "chip": "ym2612"
    },
    {
      "channel": 2,
      "note": 73,
      "start": 81.8509,
      "duration": 0.0284,
      "velocity": 1,
      "chip": "ym2612"
    },
    {
      "channel": 0,
      "note": 81,
      "start": 81.8786,
      "duration": 0.0795,
      "velocity": 95,
      "chip": "ym2612"
    },
    {
      "channel": 3,
      "note": 76,
      "start": 81.8817,
      "duration": 0.0767,
      "velocity": 95,
      "chip": "ym2612"
    },
    {
      "channel": 4,
      "note": 83,
      "start": 81.8822,
      "duration": 0.0765,
      "velocity": 95,
      "chip": "ym2612"
    },
    {
      "channel": 2,
      "note": 73,
      "start": 81.8843,
      "duration": 0.0906,
      "velocity": 1,
      "chip": "ym2612"
    },
    {
      "channel": 0,
      "note": 74,
      "start": 81.9743,
      "duration": 0.0794,
      "velocity": 95,
      "chip": "ym2612"
    },
    {
      "channel": 3,
      "note": 69,
      "start": 81.9775,
      "duration": 0.0766,
      "velocity": 95,
      "chip": "ym2612"
    },
    {
      "channel": 4,
      "note": 81,
      "start": 81.978,
      "duration": 0.0763,
      "velocity": 95,
      "chip": "ym2612"
    },
    {
      "channel": 2,
      "note": 103,
      "start": 81.9802,
      "duration": 0.0905,
      "velocity": 1,
      "chip": "ym2612"
    },
    {
      "channel": 0,
      "note": 76,
      "start": 82.07,
      "duration": 0.0795,
      "velocity": 95,
      "chip": "ym2612"
    },
    {
      "channel": 3,
      "note": 71,
      "start": 82.0732,
      "duration": 0.0767,
      "velocity": 95,
      "chip": "ym2612"
    },
    {
      "channel": 4,
      "note": 74,
      "start": 82.0737,
      "duration": 0.0764,
      "velocity": 95,
      "chip": "ym2612"
    },
    {
      "channel": 2,
      "note": 26,
      "start": 82.0758,
      "duration": 0.0424,
      "velocity": 1,
      "chip": "ym2612"
    },
    {
      "channel": 2,
      "note": 64,
      "start": 82.122,
      "duration": 0.061,
      "velocity": 1,
      "chip": "ym2612"
    },
    {
      "channel": 0,
      "note": 88,
      "start": 82.1818,
      "duration": 0.0793,
      "velocity": 95,
      "chip": "ym2612"
    },
    {
      "channel": 1,
      "note": 47,
      "start": 82.1824,
      "duration": 1.5623,
      "velocity": 112,
      "chip": "ym2612"
    },
    {
      "channel": 3,
      "note": 83,
      "start": 82.189,
      "duration": 0.0724,
      "velocity": 95,
      "chip": "ym2612"
    },
    {
      "channel": 4,
      "note": 76,
      "start": 82.1895,
      "duration": 0.0722,
      "velocity": 95,
      "chip": "ym2612"
    },
    {
      "channel": 2,
      "note": 26,
      "start": 82.1919,
      "duration": 0.022,
      "velocity": 1,
      "chip": "ym2612"
    },
    {
      "channel": 2,
      "note": 26,
      "start": 82.2177,
      "duration": 0.0449,
      "velocity": 120,
      "chip": "ym2612"
    },
    {
      "channel": 0,
      "note": 85,
      "start": 82.2774,
      "duration": 0.0794,
      "velocity": 95,
      "chip": "ym2612"
    },
    {
      "channel": 3,
      "note": 80,
      "start": 82.2804,
      "duration": 0.0768,
      "velocity": 95,
      "chip": "ym2612"
    },
    {
      "channel": 4,
      "note": 88,
      "start": 82.281,
      "duration": 0.0764,
      "velocity": 95,
      "chip": "ym2612"
    },
    {
      "channel": 5,
      "note": 47,
      "start": 82.2815,
      "duration": 1.5594,
      "velocity": 112,
      "chip": "ym2612"
    },
    {
      "channel": 2,
      "note": 64,
      "start": 82.2836,
      "duration": 0.0902,
      "velocity": 1,
      "chip": "ym2612"
    },
    {
      "channel": 0,
      "note": 83,
      "start": 82.3731,
      "duration": 0.0795,
      "velocity": 95,
      "chip": "ym2612"
    },
    {
      "channel": 3,
      "note": 78,
      "start": 82.3763,
      "duration": 0.0766,
      "velocity": 95,
      "chip": "ym2612"
    },
    {
      "channel": 4,
      "note": 85,
      "start": 82.3768,
      "duration": 0.0763,
      "velocity": 95,
      "chip": "ym2612"
    },
    {
      "channel": 2,
      "note": 73,
      "start": 82.379,
      "duration": 0.0905,
      "velocity": 1,
      "chip": "ym2612"
    },
    {
      "channel": 0,
      "note": 81,
      "start": 82.4688,
      "duration": 0.0794,
      "velocity": 95,
      "chip": "ym2612"
    },
    {
      "channel": 3,
      "note": 76,
      "start": 82.4718,
      "duration": 0.0768,
      "velocity": 95,
      "chip": "ym2612"
    },
    {
      "channel": 4,
      "note": 83,
      "start": 82.4723,
      "duration": 0.0765,
      "velocity": 95,
      "chip": "ym2612"
    },
    {
      "channel": 2,
      "note": 103,
      "start": 82.4744,
      "duration": 0.0908,
      "velocity": 1,
      "chip": "ym2612"
    },
    {
      "channel": 0,
      "note": 83,
      "start": 82.5645,
      "duration": 0.0794,
      "velocity": 95,
      "chip": "ym2612"
    },
    {
      "channel": 3,
      "note": 78,
      "start": 82.5678,
      "duration": 0.0765,
      "velocity": 95,
      "chip": "ym2612"
    },
    {
      "channel": 4,
      "note": 81,
      "start": 82.5682,
      "duration": 0.0763,
      "velocity": 95,
      "chip": "ym2612"
    },
    {
      "channel": 2,
      "note": 26,
      "start": 82.5704,
      "duration": 0.0428,
      "velocity": 120,
      "chip": "ym2612"
    },
    {
      "channel": 0,
      "note": 81,
      "start": 82.6602,
      "duration": 0.0954,
      "velocity": 95,
      "chip": "ym2612"
    },
    {
      "channel": 3,
      "note": 76,
      "start": 82.6632,
      "duration": 0.0927,
      "velocity": 95,
      "chip": "ym2612"
    },
    {
      "channel": 4,
      "note": 83,
      "start": 82.6637,
      "duration": 0.0924,
      "velocity": 95,
      "chip": "ym2612"
    },
    {
      "channel": 2,
      "note": 103,
      "start": 82.6659,
      "duration": 0.1066,
      "velocity": 1,
      "chip": "ym2612"
    },
    {
      "channel": 0,
      "note": 74,
      "start": 82.7719,
      "duration": 0.0795,
      "velocity": 95,
      "chip": "ym2612"
    },
    {
      "channel": 3,
      "note": 69,
      "start": 82.775,
      "duration": 0.0766,
      "velocity": 95,
      "chip": "ym2612"
    },
    {
      "channel": 4,
      "note": 81,
      "start": 82.7755,
      "duration": 0.0763,
      "velocity": 95,
      "chip": "ym2612"
    },
    {
      "channel": 2,
      "note": 73,
      "start": 82.7777,
      "duration": 0.0905,
      "velocity": 1,
      "chip": "ym2612"
    },
    {
      "channel": 0,
      "note": 76,
      "start": 82.8675,
      "duration": 0.0795,
      "velocity": 95,
      "chip": "ym2612"
    },
    {
      "channel": 3,
      "note": 71,
      "start": 82.8708,
      "duration": 0.0766,
      "velocity": 95,
      "chip": "ym2612"
    },
    {
      "channel": 4,
      "note": 74,
      "start": 82.8712,
      "duration": 0.0763,
      "velocity": 95,
      "chip": "ym2612"
    },
    {
      "channel": 2,
      "note": 103,
      "start": 82.8734,
      "duration": 0.0907,
      "velocity": 1,
      "chip": "ym2612"
    },
    {
      "channel": 0,
      "note": 88,
      "start": 82.9633,
      "duration": 0.0793,
      "velocity": 95,
      "chip": "ym2612"
    },
    {
      "channel": 3,
      "note": 83,
      "start": 82.97,
      "duration": 0.0731,
      "velocity": 95,
      "chip": "ym2612"
    },
    {
      "channel": 4,
      "note": 76,
      "start": 82.9705,
      "duration": 0.0728,
      "velocity": 95,
      "chip": "ym2612"
    },
    {
      "channel": 2,
      "note": 64,
      "start": 82.9729,
      "duration": 0.0868,
      "velocity": 1,
      "chip": "ym2612"
    },
    {
      "channel": 0,
      "note": 85,
      "start": 83.0589,
      "duration": 0.0795,
      "velocity": 95,
      "chip": "ym2612"
    },
    {
      "channel": 3,
      "note": 80,
      "start": 83.0619,
      "duration": 0.0768,
      "velocity": 95,
      "chip": "ym2612"
    },
    {
      "channel": 4,
      "note": 88,
      "start": 83.0626,
      "duration": 0.0764,
      "velocity": 95,
      "chip": "ym2612"
    },
    {
      "channel": 2,
      "note": 103,
      "start": 83.0647,
      "duration": 0.0906,
      "velocity": 1,
      "chip": "ym2612"
    },
    {
      "channel": 0,
      "note": 83,
      "start": 83.1547,
      "duration": 0.0954,
      "velocity": 95,
      "chip": "ym2612"
    },
    {
      "channel": 3,
      "note": 78,
      "start": 83.1579,
      "duration": 0.0925,
      "velocity": 95,
      "chip": "ym2612"
    },
    {
      "channel": 4,
      "note": 85,
      "start": 83.1584,
      "duration": 0.0922,
      "velocity": 95,
      "chip": "ym2612"
    },
    {
      "channel": 2,
      "note": 103,
      "start": 83.1605,
      "duration": 0.1064,
      "velocity": 1,
      "chip": "ym2612"
    },
    {
      "channel": 0,
      "note": 81,
      "start": 83.2663,
      "duration": 0.0795,
      "velocity": 95,
      "chip": "ym2612"
    },
    {
      "channel": 3,
      "note": 76,
      "start": 83.2693,
      "duration": 0.0768,
      "velocity": 95,
      "chip": "ym2612"
    },
    {
      "channel": 4,
      "note": 83,
      "start": 83.2698,
      "duration": 0.0765,
      "velocity": 95,
      "chip": "ym2612"
    },
    {
      "channel": 2,
      "note": 103,
      "start": 83.2719,
      "duration": 0.0908,
      "velocity": 1,
      "chip": "ym2612"
    },
    {
      "channel": 0,
      "note": 83,
      "start": 83.362,
      "duration": 0.0795,
      "velocity": 95,
      "chip": "ym2612"
    },
    {
      "channel": 3,
      "note": 78,
      "start": 83.3653,
      "duration": 0.0765,
      "velocity": 95,
      "chip": "ym2612"
    },
    {
      "channel": 4,
      "note": 81,
      "start": 83.3657,
      "duration": 0.0763,
      "velocity": 95,
      "chip": "ym2612"
    },
    {
      "channel": 2,
      "note": 64,
      "start": 83.368,
      "duration": 0.0263,
      "velocity": 1,
      "chip": "ym2612"
    },
    {
      "channel": 2,
      "note": 73,
      "start": 83.3981,
      "duration": 0.028,
      "velocity": 1,
      "chip": "ym2612"
    },
    {
      "channel": 2,
      "note": 64,
      "start": 83.4299,
      "duration": 0.0284,
      "velocity": 1,
      "chip": "ym2612"
    },
    {
      "channel": 0,
      "note": 81,
      "start": 83.4577,
      "duration": 0.0795,
      "velocity": 95,
      "chip": "ym2612"
    },
    {
      "channel": 3,
      "note": 76,
      "start": 83.4607,
      "duration": 0.0768,
      "velocity": 95,
      "chip": "ym2612"
    },
    {
      "channel": 4,
      "note": 83,
      "start": 83.4612,
      "duration": 0.0765,
      "velocity": 95,
      "chip": "ym2612"
    },
    {
      "channel": 2,
      "note": 64,
      "start": 83.4633,
      "duration": 0.0908,
      "velocity": 1,
      "chip": "ym2612"
    },
    {
      "channel": 0,
      "note": 74,
      "start": 83.5534,
      "duration": 0.0795,
      "velocity": 95,
      "chip": "ym2612"
    },
    {
      "channel": 3,
      "note": 69,
      "start": 83.5566,
      "duration": 0.0766,
      "velocity": 95,
      "chip": "ym2612"
    },
    {
      "channel": 4,
      "note": 81,
      "start": 83.5571,
      "duration": 0.0763,
      "velocity": 95,
      "chip": "ym2612"
    },
    {
      "channel": 2,
      "note": 26,
      "start": 83.5593,
      "duration": 0.0429,
      "velocity": 120,
      "chip": "ym2612"
    },
    {
      "channel": 0,
      "note": 76,
      "start": 83.6491,
      "duration": 0.0954,
      "velocity": 95,
      "chip": "ym2612"
    },
    {
      "channel": 3,
      "note": 71,
      "start": 83.6523,
      "duration": 0.0926,
      "velocity": 95,
      "chip": "ym2612"
    },
    {
      "channel": 4,
      "note": 74,
      "start": 83.6528,
      "duration": 0.0923,
      "velocity": 95,
      "chip": "ym2612"
    },
    {
      "channel": 2,
      "note": 26,
      "start": 83.6549,
      "duration": 0.0431,
      "velocity": 120,
      "chip": "ym2612"
    },
    {
      "channel": 0,
      "note": 98,
      "start": 83.7645,
      "duration": 0.5702,
      "velocity": 111,
      "chip": "ym2612"
    },
    {
      "channel": 1,
      "note": 42,
      "start": 83.7651,
      "duration": 1.5588,
      "velocity": 112,
      "chip": "ym2612"
    },
    {
      "channel": 3,
      "note": 83,
      "start": 83.7716,
      "duration": 0.0689,
      "velocity": 95,
      "chip": "ym2612"
    },
    {
      "channel": 4,
      "note": 76,
      "start": 83.7721,
      "duration": 0.0686,
      "velocity": 95,
      "chip": "ym2612"
    },
    {
      "channel": 2,
      "note": 64,
      "start": 83.7748,
      "duration": 0.0341,
      "velocity": 1,
      "chip": "ym2612"
    },
    {
      "channel": 2,
      "note": 73,
      "start": 83.8128,
      "duration": 0.044,
      "velocity": 1,
      "chip": "ym2612"
    },
    {
      "channel": 3,
      "note": 80,
      "start": 83.8591,
      "duration": 0.0771,
      "velocity": 95,
      "chip": "ym2612"
    },
    {
      "channel": 4,
      "note": 98,
      "start": 83.8633,
      "duration": 0.5676,
      "velocity": 111,
      "chip": "ym2612"
    },
    {
      "channel": 5,
      "note": 42,
      "start": 83.8638,
      "duration": 1.5562,
      "velocity": 112,
      "chip": "ym2612"
    },
    {
      "channel": 2,
      "note": 77,
      "start": 83.8656,
      "duration": 0.0869,
      "velocity": 1,
      "chip": "ym2612"
    },
    {
      "channel": 3,
      "note": 78,
      "start": 83.955,
      "duration": 0.0769,
      "velocity": 95,
      "chip": "ym2612"
    },
    {
      "channel": 2,
      "note": 103,
      "start": 83.957,
      "duration": 0.0913,
      "velocity": 1,
      "chip": "ym2612"
    },
    {
      "channel": 3,
      "note": 76,
      "start": 84.0506,
      "duration": 0.077,
      "velocity": 95,
      "chip": "ym2612"
    },
    {
      "channel": 2,
      "note": 103,
      "start": 84.0525,
      "duration": 0.0914,
      "velocity": 1,
      "chip": "ym2612"
    },
    {
      "channel": 3,
      "note": 78,
      "start": 84.1464,
      "duration": 0.0929,
      "velocity": 95,
      "chip": "ym2612"
    },
    {
      "channel": 2,
      "note": 73,
      "start": 84.1484,
      "duration": 0.1071,
      "velocity": 1,
      "chip": "ym2612"
    },
    {
      "channel": 3,
      "note": 76,
      "start": 84.2579,
      "duration": 0.0772,
      "velocity": 95,
      "chip": "ym2612"
    },
    {
      "channel": 2,
      "note": 103,
      "start": 84.2598,
      "duration": 0.0918,
      "velocity": 1,
      "chip": "ym2612"
    },
    {
      "channel": 0,
      "note": 97,
      "start": 84.3509,
      "duration": 0.3825,
      "velocity": 111,
      "chip": "ym2612"
    },
    {
      "channel": 3,
      "note": 69,
      "start": 84.3542,
      "duration": 0.0765,
      "velocity": 95,
      "chip": "ym2612"
    },
    {
      "channel": 2,
      "note": 64,
      "start": 84.3565,
      "duration": 0.0905,
      "velocity": 1,
      "chip": "ym2612"
    },
    {
      "channel": 3,
      "note": 71,
      "start": 84.4495,
      "duration": 0.0768,
      "velocity": 95,
      "chip": "ym2612"
    },
    {
      "channel": 4,
      "note": 97,
      "start": 84.45,
      "duration": 0.3797,
      "velocity": 111,
      "chip": "ym2612"
    },
    {
      "channel": 2,
      "note": 64,
      "start": 84.452,
      "duration": 0.0907,
      "velocity": 1,
      "chip": "ym2612"
    },
    {
      "channel": 3,
      "note": 83,
      "start": 84.5486,
      "duration": 0.0735,
      "velocity": 95,
      "chip": "ym2612"
    },
    {
      "channel": 2,
      "note": 26,
      "start": 84.5507,
      "duration": 0.0402,
      "velocity": 120,
      "chip": "ym2612"
    },
    {
      "channel": 3,
      "note": 80,
      "start": 84.6407,
      "duration": 0.0931,
      "velocity": 95,
      "chip": "ym2612"
    },
    {
      "channel": 2,
      "note": 26,
      "start": 84.6426,
      "duration": 0.0437,
      "velocity": 1,
      "chip": "ym2612"
    },
    {
      "channel": 2,
      "note": 103,
      "start": 84.6899,
      "duration": 0.0605,
      "velocity": 1,
      "chip": "ym2612"
    },
    {
      "channel": 0,
      "note": 95,
      "start": 84.7497,
      "duration": 0.1751,
      "velocity": 111,
      "chip": "ym2612"
    },
    {
      "channel": 3,
      "note": 78,
      "start": 84.7529,
      "duration": 0.0766,
      "velocity": 95,
      "chip": "ym2612"
    },
    {
      "channel": 2,
      "note": 103,
      "start": 84.7552,
      "duration": 0.0905,
      "velocity": 1,
      "chip": "ym2612"
    },
    {
      "channel": 3,
      "note": 76,
      "start": 84.8481,
      "duration": 0.0771,
      "velocity": 95,
      "chip": "ym2612"
    },
    {
      "channel": 4,
      "note": 95,
      "start": 84.8486,
      "duration": 0.1724,
      "velocity": 111,
      "chip": "ym2612"
    },
    {
      "channel": 2,
      "note": 103,
      "start": 84.8505,
      "duration": 0.0912,
      "velocity": 1,
      "chip": "ym2612"
    },
    {
      "channel": 0,
      "note": 93,
      "start": 84.9411,
      "duration": 0.1751,
      "velocity": 111,
      "chip": "ym2612"
    },
    {
      "channel": 3,
      "note": 78,
      "start": 84.9443,
      "duration": 0.0765,
      "velocity": 95,
      "chip": "ym2612"
    },
    {
      "channel": 2,
      "note": 73,
      "start": 84.9466,
      "duration": 0.0267,
      "velocity": 1,
      "chip": "ym2612"
    },
    {
      "channel": 2,
      "note": 73,
      "start": 84.9771,
      "duration": 0.0281,
      "velocity": 1,
      "chip": "ym2612"
    },
    {
      "channel": 2,
      "note": 73,
      "start": 85.009,
      "duration": 0.0281,
      "velocity": 1,
      "chip": "ym2612"
    },
    {
      "channel": 3,
      "note": 76,
      "start": 85.0395,
      "duration": 0.0772,
      "velocity": 95,
      "chip": "ym2612"
    },
    {
      "channel": 4,
      "note": 93,
      "start": 85.0399,
      "duration": 0.1725,
      "velocity": 111,
      "chip": "ym2612"
    },
    {
      "channel": 2,
      "note": 73,
      "start": 85.0418,
      "duration": 0.0913,
      "velocity": 1,
      "chip": "ym2612"
    },
    {
      "channel": 0,
      "note": 95,
      "start": 85.1325,
      "duration": 0.1911,
      "velocity": 111,
      "chip": "ym2612"
    },
    {
      "channel": 3,
      "note": 69,
      "start": 85.1357,
      "duration": 0.0765,
      "velocity": 95,
      "chip": "ym2612"
    },
    {
      "channel": 2,
      "note": 103,
      "start": 85.138,
      "duration": 0.1065,
      "velocity": 1,
      "chip": "ym2612"
    },
    {
      "channel": 3,
      "note": 71,
      "start": 85.247,
      "duration": 0.0771,
      "velocity": 95,
      "chip": "ym2612"
    },
    {
      "channel": 4,
      "note": 95,
      "start": 85.2475,
      "duration": 0.1723,
      "velocity": 111,
      "chip": "ym2612"
    },
    {
      "channel": 2,
      "note": 26,
      "start": 85.2495,
      "duration": 0.0429,
      "velocity": 1,
      "chip": "ym2612"
    },
    {
      "channel": 2,
      "note": 64,
      "start": 85.2961,
      "duration": 0.0448,
      "velocity": 1,
      "chip": "ym2612"
    },
    {
      "channel": 0,
      "note": 98,
      "start": 85.3399,
      "duration": 0.5739,
      "velocity": 111,
      "chip": "ym2612"
    },
    {
      "channel": 1,
      "note": 44,
      "start": 85.3404,
      "duration": 1.5625,
      "velocity": 112,
      "chip": "ym2612"
    },
    {
      "channel": 3,
      "note": 83,
      "start": 85.3471,
      "duration": 0.0726,
      "velocity": 95,
      "chip": "ym2612"
    },
    {
      "channel": 2,
      "note": 64,
      "start": 85.3496,
      "duration": 0.0385,
      "velocity": 1,
      "chip": "ym2612"
    },
    {
      "channel": 2,
      "note": 73,
      "start": 85.3918,
      "duration": 0.0441,
      "velocity": 1,
      "chip": "ym2612"
    },
    {
      "channel": 3,
      "note": 80,
      "start": 85.4383,
      "duration": 0.077,
      "velocity": 95,
      "chip": "ym2612"
    },
    {
      "channel": 4,
      "note": 98,
      "start": 85.4387,
      "duration": 0.5713,
      "velocity": 111,
      "chip": "ym2612"
    },
    {
      "channel": 5,
      "note": 44,
      "start": 85.4392,
      "duration": 1.5599,
      "velocity": 112,
      "chip": "ym2612"
    },
    {
      "channel": 2,
      "note": 77,
      "start": 85.441,
      "duration": 0.0907,
      "velocity": 1,
      "chip": "ym2612"
    },
    {
      "channel": 3,
      "note": 78,
      "start": 85.5342,
      "duration": 0.0768,
      "velocity": 95,
      "chip": "ym2612"
    },
    {
      "channel": 2,
      "note": 103,
      "start": 85.5362,
      "duration": 0.0912,
      "velocity": 1,
      "chip": "ym2612"
    },
    {
      "channel": 3,
      "note": 76,
      "start": 85.6296,
      "duration": 0.0771,
      "velocity": 95,
      "chip": "ym2612"
    },
    {
      "channel": 2,
      "note": 103,
      "start": 85.6317,
      "duration": 0.0913,
      "velocity": 1,
      "chip": "ym2612"
    },
    {
      "channel": 3,
      "note": 78,
      "start": 85.7255,
      "duration": 0.0929,
      "velocity": 95,
      "chip": "ym2612"
    },
    {
      "channel": 2,
      "note": 73,
      "start": 85.7275,
      "duration": 0.1071,
      "velocity": 1,
      "chip": "ym2612"
    },
    {
      "channel": 3,
      "note": 76,
      "start": 85.837,
      "duration": 0.0772,
      "velocity": 95,
      "chip": "ym2612"
    },
    {
      "channel": 2,
      "note": 103,
      "start": 85.8389,
      "duration": 0.0918,
      "velocity": 1,
      "chip": "ym2612"
    },
    {
      "channel": 0,
      "note": 97,
      "start": 85.9301,
      "duration": 0.3825,
      "velocity": 111,
      "chip": "ym2612"
    },
    {
      "channel": 3,
      "note": 69,
      "start": 85.9334,
      "duration": 0.0765,
      "velocity": 95,
      "chip": "ym2612"
    },
    {
      "channel": 2,
      "note": 64,
      "start": 85.9356,
      "duration": 0.0904,
      "velocity": 1,
      "chip": "ym2612"
    },
    {
      "channel": 3,
      "note": 71,
      "start": 86.0286,
      "duration": 0.0769,
      "velocity": 95,
      "chip": "ym2612"
    },
    {
      "channel": 4,
      "note": 97,
      "start": 86.0291,
      "duration": 0.3796,
      "velocity": 111,
      "chip": "ym2612"
    },
    {
      "channel": 2,
      "note": 64,
      "start": 86.0311,
      "duration": 0.0907,
      "velocity": 1,
      "chip": "ym2612"
    },
    {
      "channel": 3,
      "note": 83,
      "start": 86.1276,
      "duration": 0.0735,
      "velocity": 95,
      "chip": "ym2612"
    },
    {
      "channel": 2,
      "note": 26,
      "start": 86.1298,
      "duration": 0.0403,
      "velocity": 120,
      "chip": "ym2612"
    },
    {
      "channel": 3,
      "note": 80,
      "start": 86.2198,
      "duration": 0.0931,
      "velocity": 95,
      "chip": "ym2612"
    },
    {
      "channel": 2,
      "note": 26,
      "start": 86.2217,
      "duration": 0.0442,
      "velocity": 120,
      "chip": "ym2612"
    },
    {
      "channel": 2,
      "note": 103,
      "start": 86.285,
      "duration": 0.0445,
      "velocity": 1,
      "chip": "ym2612"
    },
    {
      "channel": 0,
      "note": 95,
      "start": 86.3288,
      "duration": 0.1751,
      "velocity": 111,
      "chip": "ym2612"
    },
    {
      "channel": 3,
      "note": 78,
      "start": 86.3321,
      "duration": 0.0765,
      "velocity": 95,
      "chip": "ym2612"
    },
    {
      "channel": 2,
      "note": 103,
      "start": 86.3344,
      "duration": 0.0905,
      "velocity": 1,
      "chip": "ym2612"
    },
    {
      "channel": 3,
      "note": 76,
      "start": 86.4272,
      "duration": 0.0772,
      "velocity": 95,
      "chip": "ym2612"
    },
    {
      "channel": 4,
      "note": 95,
      "start": 86.4277,
      "duration": 0.1724,
      "velocity": 111,
      "chip": "ym2612"
    },
    {
      "channel": 2,
      "note": 103,
      "start": 86.4295,
      "duration": 0.0914,
      "velocity": 1,
      "chip": "ym2612"
    },
    {
      "channel": 0,
      "note": 93,
      "start": 86.5203,
      "duration": 0.3824,
      "velocity": 111,
      "chip": "ym2612"
    },
    {
      "channel": 3,
      "note": 78,
      "start": 86.5234,
      "duration": 0.0765,
      "velocity": 95,
      "chip": "ym2612"
    },
    {
      "channel": 2,
      "note": 73,
      "start": 86.5257,
      "duration": 0.0267,
      "velocity": 1,
      "chip": "ym2612"
    },
    {
      "channel": 2,
      "note": 73,
      "start": 86.5562,
      "duration": 0.0281,
      "velocity": 1,
      "chip": "ym2612"
    },
    {
      "channel": 2,
      "note": 73,
      "start": 86.5881,
      "duration": 0.0281,
      "velocity": 1,
      "chip": "ym2612"
    },
    {
      "channel": 3,
      "note": 76,
      "start": 86.6186,
      "duration": 0.0771,
      "velocity": 95,
      "chip": "ym2612"
    },
    {
      "channel": 4,
      "note": 93,
      "start": 86.619,
      "duration": 0.3799,
      "velocity": 111,
      "chip": "ym2612"
    },
    {
      "channel": 2,
      "note": 73,
      "start": 86.621,
      "duration": 0.091,
      "velocity": 1,
      "chip": "ym2612"
    },
    {
      "channel": 3,
      "note": 69,
      "start": 86.7145,
      "duration": 0.0928,
      "velocity": 95,
      "chip": "ym2612"
    },
    {
      "channel": 2,
      "note": 103,
      "start": 86.7165,
      "duration": 0.1071,
      "velocity": 1,
      "chip": "ym2612"
    },
    {
      "channel": 3,
      "note": 71,
      "start": 86.8261,
      "duration": 0.077,
      "velocity": 95,
      "chip": "ym2612"
    },
    {
      "channel": 2,
      "note": 26,
      "start": 86.828,
      "duration": 0.0434,
      "velocity": 1,
      "chip": "ym2612"
    },
    {
      "channel": 2,
      "note": 64,
      "start": 86.8752,
      "duration": 0.0449,
      "velocity": 1,
      "chip": "ym2612"
    },
    {
      "channel": 0,
      "note": 100,
      "start": 86.919,
      "duration": 0.2709,
      "velocity": 111,
      "chip": "ym2612"
    },
    {
      "channel": 1,
      "note": 45,
      "start": 86.9195,
      "duration": 1.5625,
      "velocity": 112,
      "chip": "ym2612"
    },
    {
      "channel": 3,
      "note": 83,
      "start": 86.9262,
      "duration": 0.0726,
      "velocity": 95,
      "chip": "ym2612"
    },
    {
      "channel": 2,
      "note": 64,
      "start": 86.9287,
      "duration": 0.0385,
      "velocity": 1,
      "chip": "ym2612"
    },
    {
      "channel": 2,
      "note": 73,
      "start": 86.971,
      "duration": 0.0441,
      "velocity": 1,
      "chip": "ym2612"
    },
    {
      "channel": 3,
      "note": 80,
      "start": 87.0174,
      "duration": 0.0771,
      "velocity": 95,
      "chip": "ym2612"
    },
    {
      "channel": 4,
      "note": 100,
      "start": 87.0179,
      "duration": 0.2841,
      "velocity": 111,
      "chip": "ym2612"
    },
    {
      "channel": 5,
      "note": 45,
      "start": 87.0184,
      "duration": 1.5599,
      "velocity": 112,
      "chip": "ym2612"
    },
    {
      "channel": 2,
      "note": 77,
      "start": 87.0202,
      "duration": 0.0905,
      "velocity": 1,
      "chip": "ym2612"
    },
    {
      "channel": 3,
      "note": 78,
      "start": 87.1132,
      "duration": 0.077,
      "velocity": 95,
      "chip": "ym2612"
    },
    {
      "channel": 2,
      "note": 103,
      "start": 87.1153,
      "duration": 0.0915,
      "velocity": 1,
      "chip": "ym2612"
    },
    {
      "channel": 0,
      "note": 98,
      "start": 87.2061,
      "duration": 0.2868,
      "velocity": 111,
      "chip": "ym2612"
    },
    {
      "channel": 3,
      "note": 76,
      "start": 87.2091,
      "duration": 0.0927,
      "velocity": 95,
      "chip": "ym2612"
    },
    {
      "channel": 2,
      "note": 103,
      "start": 87.2114,
      "duration": 0.1067,
      "velocity": 1,
      "chip": "ym2612"
    },
    {
      "channel": 3,
      "note": 78,
      "start": 87.3206,
      "duration": 0.0769,
      "velocity": 95,
      "chip": "ym2612"
    },
    {
      "channel": 4,
      "note": 98,
      "start": 87.3211,
      "duration": 0.268,
      "velocity": 111,
      "chip": "ym2612"
    },
    {
      "channel": 2,
      "note": 73,
      "start": 87.3231,
      "duration": 0.0907,
      "velocity": 1,
      "chip": "ym2612"
    },
    {
      "channel": 3,
      "note": 76,
      "start": 87.4162,
      "duration": 0.0771,
      "velocity": 95,
      "chip": "ym2612"
    },
    {
      "channel": 2,
      "note": 103,
      "start": 87.4181,
      "duration": 0.0917,
      "velocity": 1,
      "chip": "ym2612"
    },
    {
      "channel": 0,
      "note": 97,
      "start": 87.5092,
      "duration": 0.3824,
      "velocity": 111,
      "chip": "ym2612"
    },
    {
      "channel": 3,
      "note": 69,
      "start": 87.5124,
      "duration": 0.0765,
      "velocity": 95,
      "chip": "ym2612"
    },
    {
      "channel": 2,
      "note": 64,
      "start": 87.5147,
      "duration": 0.0905,
      "velocity": 1,
      "chip": "ym2612"
    },
    {
      "channel": 3,
      "note": 71,
      "start": 87.6077,
      "duration": 0.0769,
      "velocity": 95,
      "chip": "ym2612"
    },
    {
      "channel": 4,
      "note": 97,
      "start": 87.6082,
      "duration": 0.3797,
      "velocity": 111,
      "chip": "ym2612"
    },
    {
      "channel": 2,
      "note": 64,
      "start": 87.6102,
      "duration": 0.0907,
      "velocity": 1,
      "chip": "ym2612"
    },
    {
      "channel": 3,
      "note": 83,
      "start": 87.7067,
      "duration": 0.0896,
      "velocity": 95,
      "chip": "ym2612"
    },
    {
      "channel": 2,
      "note": 26,
      "start": 87.7088,
      "duration": 0.0405,
      "velocity": 120,
      "chip": "ym2612"
    },
    {
      "channel": 3,
      "note": 80,
      "start": 87.8149,
      "duration": 0.0771,
      "velocity": 95,
      "chip": "ym2612"
    },
    {
      "channel": 2,
      "note": 26,
      "start": 87.8168,
      "duration": 0.0436,
      "velocity": 1,
      "chip": "ym2612"
    },
    {
      "channel": 2,
      "note": 103,
      "start": 87.8641,
      "duration": 0.0445,
      "velocity": 1,
      "chip": "ym2612"
    },
    {
      "channel": 0,
      "note": 95,
      "start": 87.9079,
      "duration": 0.1751,
      "velocity": 111,
      "chip": "ym2612"
    },
    {
      "channel": 3,
      "note": 78,
      "start": 87.9112,
      "duration": 0.0765,
      "velocity": 95,
      "chip": "ym2612"
    },
    {
      "channel": 2,
      "note": 103,
      "start": 87.9134,
      "duration": 0.0905,
      "velocity": 1,
      "chip": "ym2612"
    },
    {
      "channel": 3,
      "note": 76,
      "start": 88.0063,
      "duration": 0.0772,
      "velocity": 95,
      "chip": "ym2612"
    },
    {
      "channel": 4,
      "note": 95,
      "start": 88.0068,
      "duration": 0.1725,
      "velocity": 111,
      "chip": "ym2612"
    },
    {
      "channel": 2,
      "note": 103,
      "start": 88.0087,
      "duration": 0.0913,
      "velocity": 1,
      "chip": "ym2612"
    },
    {
      "channel": 0,
      "note": 93,
      "start": 88.0993,
      "duration": 0.1751,
      "velocity": 111,
      "chip": "ym2612"
    },
    {
      "channel": 3,
      "note": 78,
      "start": 88.1025,
      "duration": 0.0766,
      "velocity": 95,
      "chip": "ym2612"
    },
    {
      "channel": 2,
      "note": 73,
      "start": 88.1048,
      "duration": 0.0268,
      "velocity": 1,
      "chip": "ym2612"
    },
    {
      "channel": 2,
      "note": 73,
      "start": 88.1354,
      "duration": 0.028,
      "velocity": 1,
      "chip": "ym2612"
    },
    {
      "channel": 2,
      "note": 73,
      "start": 88.1673,
      "duration": 0.028,
      "velocity": 1,
      "chip": "ym2612"
    },
    {
      "channel": 3,
      "note": 76,
      "start": 88.1977,
      "duration": 0.0772,
      "velocity": 95,
      "chip": "ym2612"
    },
    {
      "channel": 4,
      "note": 93,
      "start": 88.1983,
      "duration": 0.1884,
      "velocity": 111,
      "chip": "ym2612"
    },
    {
      "channel": 2,
      "note": 73,
      "start": 88.2002,
      "duration": 0.1072,
      "velocity": 1,
      "chip": "ym2612"
    },
    {
      "channel": 0,
      "note": 95,
      "start": 88.3067,
      "duration": 0.1751,
      "velocity": 111,
      "chip": "ym2612"
    },
    {
      "channel": 3,
      "note": 69,
      "start": 88.3099,
      "duration": 0.0765,
      "velocity": 95,
      "chip": "ym2612"
    },
    {
      "channel": 2,
      "note": 103,
      "start": 88.3122,
      "duration": 0.0905,
      "velocity": 1,
      "chip": "ym2612"
    },
    {
      "channel": 3,
      "note": 71,
      "start": 88.4053,
      "duration": 0.077,
      "velocity": 95,
      "chip": "ym2612"
    },
    {
      "channel": 4,
      "note": 95,
      "start": 88.4057,
      "duration": 0.1724,
      "velocity": 111,
      "chip": "ym2612"
    },
    {
      "channel": 2,
      "note": 26,
      "start": 88.4076,
      "duration": 0.0429,
      "velocity": 1,
      "chip": "ym2612"
    },
    {
      "channel": 2,
      "note": 64,
      "start": 88.4544,
      "duration": 0.0486,
      "velocity": 1,
      "chip": "ym2612"
    },
    {
      "channel": 0,
      "note": 71,
      "start": 88.502,
      "duration": 0.0756,
      "velocity": 95,
      "chip": "ym2612"
    },
    {
      "channel": 1,
      "note": 47,
      "start": 88.5024,
      "duration": 1.5587,
      "velocity": 112,
      "chip": "ym2612"
    },
    {
      "channel": 3,
      "note": 71,
      "start": 88.5094,
      "duration": 0.0685,
      "velocity": 89,
      "chip": "ym2612"
    },
    {
      "channel": 2,
      "note": 64,
      "start": 88.5124,
      "duration": 0.0339,
      "velocity": 1,
      "chip": "ym2612"
    },
    {
      "channel": 2,
      "note": 73,
      "start": 88.5502,
      "duration": 0.0445,
      "velocity": 1,
      "chip": "ym2612"
    },
    {
      "channel": 0,
      "note": 73,
      "start": 88.594,
      "duration": 0.0793,
      "velocity": 95,
      "chip": "ym2612"
    },
    {
      "channel": 3,
      "note": 73,
      "start": 88.5972,
      "duration": 0.0765,
      "velocity": 89,
      "chip": "ym2612"
    },
    {
      "channel": 4,
      "note": 71,
      "start": 88.6015,
      "duration": 0.0723,
      "velocity": 95,
      "chip": "ym2612"
    },
    {
      "channel": 5,
      "note": 47,
      "start": 88.602,
      "duration": 1.5554,
      "velocity": 112,
      "chip": "ym2612"
    },
    {
      "channel": 2,
      "note": 77,
      "start": 88.6041,
      "duration": 0.0861,
      "velocity": 1,
      "chip": "ym2612"
    },
    {
      "channel": 0,
      "note": 66,
      "start": 88.6895,
      "duration": 0.0794,
      "velocity": 95,
      "chip": "ym2612"
    },
    {
      "channel": 3,
      "note": 66,
      "start": 88.6925,
      "duration": 0.0768,
      "velocity": 89,
      "chip": "ym2612"
    },
    {
      "channel": 4,
      "note": 73,
      "start": 88.6932,
      "duration": 0.0763,
      "velocity": 95,
      "chip": "ym2612"
    },
    {
      "channel": 2,
      "note": 64,
      "start": 88.6953,
      "duration": 0.2024,
      "velocity": 1,
      "chip": "ym2612"
    },
    {
      "channel": 0,
      "note": 76,
      "start": 88.7852,
      "duration": 0.0954,
      "velocity": 95,
      "chip": "ym2612"
    },
    {
      "channel": 3,
      "note": 76,
      "start": 88.7859,
      "duration": 0.095,
      "velocity": 89,
      "chip": "ym2612"
    },
    {
      "channel": 4,
      "note": 66,
      "start": 88.7863,
      "duration": 0.0949,
      "velocity": 95,
      "chip": "ym2612"
    },
    {
      "channel": 0,
      "note": 78,
      "start": 88.8971,
      "duration": 0.0793,
      "velocity": 95,
      "chip": "ym2612"
    },
    {
      "channel": 3,
      "note": 78,
      "start": 88.9003,
      "duration": 0.0764,
      "velocity": 89,
      "chip": "ym2612"
    },
    {
      "channel": 4,
      "note": 76,
      "start": 88.9008,
      "duration": 0.0761,
      "velocity": 95,
      "chip": "ym2612"
    },
    {
      "channel": 2,
      "note": 26,
      "start": 88.903,
      "duration": 0.0426,
      "velocity": 120,
      "chip": "ym2612"
    },
    {
      "channel": 0,
      "note": 70,
      "start": 88.9928,
      "duration": 0.0792,
      "velocity": 95,
      "chip": "ym2612"
    },
    {
      "channel": 3,
      "note": 70,
      "start": 88.9936,
      "duration": 0.0788,
      "velocity": 89,
      "chip": "ym2612"
    },
    {
      "channel": 4,
      "note": 78,
      "start": 88.9943,
      "duration": 0.0783,
      "velocity": 95,
      "chip": "ym2612"
    },
    {
      "channel": 0,
      "note": 71,
      "start": 89.0883,
      "duration": 0.0794,
      "velocity": 95,
      "chip": "ym2612"
    },
    {
      "channel": 3,
      "note": 71,
      "start": 89.0913,
      "duration": 0.0768,
      "velocity": 89,
      "chip": "ym2612"
    },
    {
      "channel": 4,
      "note": 70,
      "start": 89.092,
      "duration": 0.0763,
      "velocity": 95,
      "chip": "ym2612"
    },
    {
      "channel": 2,
      "note": 26,
      "start": 89.0941,
      "duration": 0.0429,
      "velocity": 120,
      "chip": "ym2612"
    },
    {
      "channel": 0,
      "note": 74,
      "start": 89.184,
      "duration": 0.0794,
      "velocity": 95,
      "chip": "ym2612"
    },
    {
      "channel": 3,
      "note": 74,
      "start": 89.1846,
      "duration": 0.0791,
      "velocity": 89,
      "chip": "ym2612"
    },
    {
      "channel": 4,
      "note": 71,
      "start": 89.1851,
      "duration": 0.0788,
      "velocity": 95,
      "chip": "ym2612"
    },
    {
      "channel": 0,
      "note": 64,
      "start": 89.2799,
      "duration": 0.0952,
      "velocity": 95,
      "chip": "ym2612"
    },
    {
      "channel": 3,
      "note": 64,
      "start": 89.2831,
      "duration": 0.0923,
      "velocity": 89,
      "chip": "ym2612"
    },
    {
      "channel": 4,
      "note": 74,
      "start": 89.2836,
      "duration": 0.092,
      "velocity": 95,
      "chip": "ym2612"
    },
    {
      "channel": 2,
      "note": 64,
      "start": 89.2859,
      "duration": 0.3934,
      "velocity": 1,
      "chip": "ym2612"
    },
    {
      "channel": 0,
      "note": 74,
      "start": 89.3915,
      "duration": 0.0793,
      "velocity": 95,
      "chip": "ym2612"
    },
    {
      "channel": 3,
      "note": 74,
      "start": 89.3923,
      "duration": 0.0788,
      "velocity": 89,
      "chip": "ym2612"
    },
    {
      "channel": 4,
      "note": 64,
      "start": 89.393,
      "duration": 0.0783,
      "velocity": 95,
      "chip": "ym2612"
    },
    {
      "channel": 0,
      "note": 76,
      "start": 89.4871,
      "duration": 0.0794,
      "velocity": 95,
      "chip": "ym2612"
    },
    {
      "channel": 3,
      "note": 76,
      "start": 89.4877,
      "duration": 0.0791,
      "velocity": 89,
      "chip": "ym2612"
    },
    {
      "channel": 4,
      "note": 74,
      "start": 89.4884,
      "duration": 0.0786,
      "velocity": 95,
      "chip": "ym2612"
    },
    {
      "channel": 0,
      "note": 78,
      "start": 89.5827,
      "duration": 0.0795,
      "velocity": 95,
      "chip": "ym2612"
    },
    {
      "channel": 3,
      "note": 78,
      "start": 89.5834,
      "duration": 0.0791,
      "velocity": 89,
      "chip": "ym2612"
    },
    {
      "channel": 4,
      "note": 76,
      "start": 89.5839,
      "duration": 0.0789,
      "velocity": 95,
      "chip": "ym2612"
    },
    {
      "channel": 0,
      "note": 77,
      "start": 89.6786,
      "duration": 0.0793,
      "velocity": 95,
      "chip": "ym2612"
    },
    {
      "channel": 3,
      "note": 77,
      "start": 89.6819,
      "duration": 0.0763,
      "velocity": 89,
      "chip": "ym2612"
    },
    {
      "channel": 4,
      "note": 78,
      "start": 89.6824,
      "duration": 0.076,
      "velocity": 95,
      "chip": "ym2612"
    },
    {
      "channel": 2,
      "note": 26,
      "start": 89.6846,
      "duration": 0.0426,
      "velocity": 120,
      "chip": "ym2612"
    },
    {
      "channel": 0,
      "note": 62,
      "start": 89.7743,
      "duration": 0.0952,
      "velocity": 95,
      "chip": "ym2612"
    },
    {
      "channel": 3,
      "note": 62,
      "start": 89.7775,
      "duration": 0.0924,
      "velocity": 89,
      "chip": "ym2612"
    },
    {
      "channel": 4,
      "note": 77,
      "start": 89.7782,
      "duration": 0.0919,
      "velocity": 95,
      "chip": "ym2612"
    },
    {
      "channel": 2,
      "note": 73,
      "start": 89.7804,
      "duration": 0.1062,
      "velocity": 1,
      "chip": "ym2612"
    },
    {
      "channel": 0,
      "note": 80,
      "start": 89.886,
      "duration": 0.0793,
      "velocity": 95,
      "chip": "ym2612"
    },
    {
      "channel": 3,
      "note": 80,
      "start": 89.8874,
      "duration": 0.0782,
      "velocity": 89,
      "chip": "ym2612"
    },
    {
      "channel": 4,
      "note": 62,
      "start": 89.8881,
      "duration": 0.0777,
      "velocity": 95,
      "chip": "ym2612"
    },
    {
      "channel": 4,
      "note": 80,
      "start": 89.9855,
      "duration": 0.0761,
      "velocity": 95,
      "chip": "ym2612"
    },
    {
      "channel": 2,
      "note": 64,
      "start": 89.9873,
      "duration": 0.0984,
      "velocity": 1,
      "chip": "ym2612"
    },
    {
      "channel": 0,
      "note": 71,
      "start": 90.081,
      "duration": 0.7775,
      "velocity": 111,
      "chip": "ym2612"
    },
    {
      "channel": 1,
      "note": 54,
      "start": 90.0851,
      "duration": 0.7734,
      "velocity": 112,
      "chip": "ym2612"
    },
    {
      "channel": 3,
      "note": 74,
      "start": 90.0918,
      "duration": 0.0651,
      "velocity": 106,
      "chip": "ym2612"
    },
    {
      "channel": 2,
      "note": 64,
      "start": 90.0953,
      "duration": 0.03,
      "velocity": 1,
      "chip": "ym2612"
    },
    {
      "channel": 2,
      "note": 73,
      "start": 90.1292,
      "duration": 0.044,
      "velocity": 1,
      "chip": "ym2612"
    },
    {
      "channel": 3,
      "note": 73,
      "start": 90.1755,
      "duration": 0.0771,
      "velocity": 106,
      "chip": "ym2612"
    },
    {
      "channel": 4,
      "note": 71,
      "start": 90.1799,
      "duration": 0.6785,
      "velocity": 111,
      "chip": "ym2612"
    },
    {
      "channel": 5,
      "note": 54,
      "start": 90.1842,
      "duration": 0.6743,
      "velocity": 112,
      "chip": "ym2612"
    },
    {
      "channel": 2,
      "note": 77,
      "start": 90.186,
      "duration": 0.0829,
      "velocity": 1,
      "chip": "ym2612"
    },
    {
      "channel": 3,
      "note": 66,
      "start": 90.2713,
      "duration": 0.0931,
      "velocity": 106,
      "chip": "ym2612"
    },
    {
      "channel": 2,
      "note": 103,
      "start": 90.2732,
      "duration": 0.1074,
      "velocity": 1,
      "chip": "ym2612"
    },
    {
      "channel": 3,
      "note": 73,
      "start": 90.383,
      "duration": 0.077,
      "velocity": 106,
      "chip": "ym2612"
    },
    {
      "channel": 2,
      "note": 103,
      "start": 90.3849,
      "duration": 0.0914,
      "velocity": 1,
      "chip": "ym2612"
    },
    {
      "channel": 3,
      "note": 74,
      "start": 90.479,
      "duration": 0.0767,
      "velocity": 106,
      "chip": "ym2612"
    },
    {
      "channel": 2,
      "note": 73,
      "start": 90.4811,
      "duration": 0.0909,
      "velocity": 1,
      "chip": "ym2612"
    },
    {
      "channel": 3,
      "note": 73,
      "start": 90.5743,
      "duration": 0.0771,
      "velocity": 106,
      "chip": "ym2612"
    },
    {
      "channel": 2,
      "note": 103,
      "start": 90.5762,
      "duration": 0.0915,
      "velocity": 1,
      "chip": "ym2612"
    },
    {
      "channel": 3,
      "note": 66,
      "start": 90.67,
      "duration": 0.0771,
      "velocity": 106,
      "chip": "ym2612"
    },
    {
      "channel": 2,
      "note": 64,
      "start": 90.672,
      "duration": 0.0914,
      "velocity": 1,
      "chip": "ym2612"
    },
    {
      "channel": 3,
      "note": 73,
      "start": 90.7658,
      "duration": 0.0927,
      "velocity": 106,
      "chip": "ym2612"
    },
    {
      "channel": 2,
      "note": 64,
      "start": 90.7677,
      "duration": 0.0907,
      "velocity": 127,
      "chip": "ym2612"
    }
  ]
}