{
  "track_name": "04 - Are we at the Hospital",
  "duration_sec": 38.684,
  "sample_rate": 44100,
  "note_count": 498,
  "unique_pitches": 37,
  "pitch_range": 70,
  "avg_note_duration": 0.313,
  "reconstruction_stats": {
    "notes_reconstructed": 498,
    "keyon_events": 498,
    "keyoff_events": 495,
    "orphan_keyons": 3,
    "unique_pitches": 37,
    "pitch_range": 70,
    "avg_duration_sec": 0.313
  },
  "metadata": {
    "source": "R\\Rent-a-Hero\\04 - Are we at the Hospital.vgz"
  },
  "notes": [
    {
      "channel": 0,
      "note": 57,
      "start": 0.0,
      "duration": 0.2843,
      "velocity": 100,
      "chip": "ym2612"
    },
    {
      "channel": 1,
      "note": 73,
      "start": 0.0015,
      "duration": 0.1396,
      "velocity": 100,
      "chip": "ym2612"
    },
    {
      "channel": 2,
      "note": 45,
      "start": 0.0032,
      "duration": 0.2882,
      "velocity": 100,
      "chip": "ym2612"
    },
    {
      "channel": 5,
      "note": 73,
      "start": 0.143,
      "duration": 0.1487,
      "velocity": 100,
      "chip": "ym2612"
    },
    {
      "channel": 0,
      "note": 56,
      "start": 0.2912,
      "duration": 0.2998,
      "velocity": 100,
      "chip": "ym2612"
    },
    {
      "channel": 2,
      "note": 44,
      "start": 0.2916,
      "duration": 0.3001,
      "velocity": 100,
      "chip": "ym2612"
    },
    {
      "channel": 0,
      "note": 57,
      "start": 0.5912,
      "duration": 0.2998,
      "velocity": 100,
      "chip": "ym2612"
    },
    {
      "channel": 1,
      "note": 73,
      "start": 0.5915,
      "duration": 0.8998,
      "velocity": 100,
      "chip": "ym2612"
    },
    {
      "channel": 2,
      "note": 45,
      "start": 0.5918,
      "duration": 0.2996,
      "velocity": 100,
      "chip": "ym2612"
    },
    {
      "channel": 5,
      "note": 73,
      "start": 0.7418,
      "duration": 0.8998,
      "velocity": 100,
      "chip": "ym2612"
    },
    {
      "channel": 0,
      "note": 59,
      "start": 0.8912,
      "duration": 0.2998,
      "velocity": 100,
      "chip": "ym2612"
    },
    {
      "channel": 2,
      "note": 47,
      "start": 0.8917,
      "duration": 0.2997,
      "velocity": 100,
      "chip": "ym2612"
    },
    {
      "channel": 0,
      "note": 61,
      "start": 1.1912,
      "duration": 0.2998,
      "velocity": 100,
      "chip": "ym2612"
    },
    {
      "channel": 2,
      "note": 49,
      "start": 1.1917,
      "duration": 0.2999,
      "velocity": 100,
      "chip": "ym2612"
    },
    {
      "channel": 0,
      "note": 52,
      "start": 1.4913,
      "duration": 0.5998,
      "velocity": 100,
      "chip": "ym2612"
    },
    {
      "channel": 1,
      "note": 76,
      "start": 1.4916,
      "duration": 0.2995,
      "velocity": 100,
      "chip": "ym2612"
    },
    {
      "channel": 2,
      "note": 40,
      "start": 1.4919,
      "duration": 0.5998,
      "velocity": 100,
      "chip": "ym2612"
    },
    {
      "channel": 5,
      "note": 76,
      "start": 1.6418,
      "duration": 0.2998,
      "velocity": 100,
      "chip": "ym2612"
    },
    {
      "channel": 1,
      "note": 81,
      "start": 1.7914,
      "duration": 0.2999,
      "velocity": 100,
      "chip": "ym2612"
    },
    {
      "channel": 5,
      "note": 81,
      "start": 1.9418,
      "duration": 0.2998,
      "velocity": 100,
      "chip": "ym2612"
    },
    {
      "channel": 0,
      "note": 57,
      "start": 2.0913,
      "duration": 0.5998,
      "velocity": 100,
      "chip": "ym2612"
    },
    {
      "channel": 1,
      "note": 73,
      "start": 2.0915,
      "duration": 0.2996,
      "velocity": 100,
      "chip": "ym2612"
    },
    {
      "channel": 2,
      "note": 45,
      "start": 2.0918,
      "duration": 0.5998,
      "velocity": 100,
      "chip": "ym2612"
    },
    {
      "channel": 5,
      "note": 73,
      "start": 2.2418,
      "duration": 0.2998,
      "velocity": 100,
      "chip": "ym2612"
    },
    {
      "channel": 1,
      "note": 76,
      "start": 2.3913,
      "duration": 0.3,
      "velocity": 100,
      "chip": "ym2612"
    },
    {
      "channel": 5,
      "note": 76,
      "start": 2.5418,
      "duration": 0.2998,
      "velocity": 100,
      "chip": "ym2612"
    },
    {
      "channel": 0,
      "note": 62,
      "start": 2.6912,
      "duration": 0.2998,
      "velocity": 100,
      "chip": "ym2612"
    },
    {
      "channel": 1,
      "note": 74,
      "start": 2.6915,
      "duration": 0.1496,
      "velocity": 100,
      "chip": "ym2612"
    },
    {
      "channel": 2,
      "note": 50,
      "start": 2.6918,
      "duration": 0.2998,
      "velocity": 100,
      "chip": "ym2612"
    },
    {
      "channel": 5,
      "note": 74,
      "start": 2.8418,
      "duration": 0.1503,
      "velocity": 100,
      "chip": "ym2612"
    },
    {
      "channel": 0,
      "note": 66,
      "start": 2.9912,
      "duration": 0.2998,
      "velocity": 100,
      "chip": "ym2612"
    },
    {
      "channel": 1,
      "note": 74,
      "start": 2.9915,
      "duration": 0.8996,
      "velocity": 100,
      "chip": "ym2612"
    },
    {
      "channel": 2,
      "note": 54,
      "start": 2.9918,
      "duration": 0.2996,
      "velocity": 100,
      "chip": "ym2612"
    },
    {
      "channel": 5,
      "note": 74,
      "start": 3.1418,
      "duration": 0.8998,
      "velocity": 100,
      "chip": "ym2612"
    },
    {
      "channel": 0,
      "note": 54,
      "start": 3.2912,
      "duration": 0.2998,
      "velocity": 100,
      "chip": "ym2612"
    },
    {
      "channel": 2,
      "note": 42,
      "start": 3.2917,
      "duration": 0.2997,
      "velocity": 100,
      "chip": "ym2612"
    },
    {
      "channel": 0,
      "note": 59,
      "start": 3.5913,
      "duration": 0.5998,
      "velocity": 100,
      "chip": "ym2612"
    },
    {
      "channel": 2,
      "note": 47,
      "start": 3.5917,
      "duration": 0.5999,
      "velocity": 100,
      "chip": "ym2612"
    },
    {
      "channel": 1,
      "note": 78,
      "start": 3.8914,
      "duration": 0.2999,
      "velocity": 100,
      "chip": "ym2612"
    },
    {
      "channel": 5,
      "note": 78,
      "start": 4.0418,
      "duration": 0.2998,
      "velocity": 100,
      "chip": "ym2612"
    },
    {
      "channel": 0,
      "note": 47,
      "start": 4.1912,
      "duration": 0.5998,
      "velocity": 100,
      "chip": "ym2612"
    },
    {
      "channel": 1,
      "note": 81,
      "start": 4.1915,
      "duration": 0.2996,
      "velocity": 100,
      "chip": "ym2612"
    },
    {
      "channel": 2,
      "note": 35,
      "start": 4.1918,
      "duration": 0.5998,
      "velocity": 100,
      "chip": "ym2612"
    },
    {
      "channel": 5,
      "note": 81,
      "start": 4.3418,
      "duration": 0.2998,
      "velocity": 100,
      "chip": "ym2612"
    },
    {
      "channel": 1,
      "note": 74,
      "start": 4.4914,
      "duration": 0.2999,
      "velocity": 100,
      "chip": "ym2612"
    },
    {
      "channel": 5,
      "note": 74,
      "start": 4.6418,
      "duration": 0.2998,
      "velocity": 100,
      "chip": "ym2612"
    },
    {
      "channel": 0,
      "note": 52,
      "start": 4.7913,
      "duration": 0.5998,
      "velocity": 100,
      "chip": "ym2612"
    },
    {
      "channel": 1,
      "note": 78,
      "start": 4.7915,
      "duration": 0.2996,
      "velocity": 100,
      "chip": "ym2612"
    },
    {
      "channel": 2,
      "note": 40,
      "start": 4.7918,
      "duration": 0.5996,
      "velocity": 100,
      "chip": "ym2612"
    },
    {
      "channel": 5,
      "note": 78,
      "start": 4.9418,
      "duration": 0.2997,
      "velocity": 100,
      "chip": "ym2612"
    },
    {
      "channel": 1,
      "note": 76,
      "start": 5.0914,
      "duration": 0.0997,
      "velocity": 100,
      "chip": "ym2612"
    },
    {
      "channel": 5,
      "note": 76,
      "start": 5.2417,
      "duration": 0.0998,
      "velocity": 100,
      "chip": "ym2612"
    },
    {
      "channel": 0,
      "note": 76,
      "start": 5.3913,
      "duration": 0.8998,
      "velocity": 100,
      "chip": "ym2612"
    },
    {
      "channel": 2,
      "note": 64,
      "start": 5.3916,
      "duration": 0.9001,
      "velocity": 100,
      "chip": "ym2612"
    },
    {
      "channel": 1,
      "note": 47,
      "start": 5.6914,
      "duration": 0.2997,
      "velocity": 100,
      "chip": "ym2612"
    },
    {
      "channel": 5,
      "note": 47,
      "start": 5.8418,
      "duration": 0.2998,
      "velocity": 100,
      "chip": "ym2612"
    },
    {
      "channel": 1,
      "note": 52,
      "start": 5.9914,
      "duration": 0.2999,
      "velocity": 100,
      "chip": "ym2612"
    },
    {
      "channel": 5,
      "note": 52,
      "start": 6.1418,
      "duration": 0.2998,
      "velocity": 100,
      "chip": "ym2612"
    },
    {
      "channel": 0,
      "note": 59,
      "start": 6.2913,
      "duration": 0.2998,
      "velocity": 100,
      "chip": "ym2612"
    },
    {
      "channel": 1,
      "note": 76,
      "start": 6.2915,
      "duration": 0.2998,
      "velocity": 100,
      "chip": "ym2612"
    },
    {
      "channel": 2,
      "note": 47,
      "start": 6.2918,
      "duration": 0.2998,
      "velocity": 100,
      "chip": "ym2612"
    },
    {
      "channel": 5,
      "note": 76,
      "start": 6.4418,
      "duration": 0.2998,
      "velocity": 100,
      "chip": "ym2612"
    },
    {
      "channel": 0,
      "note": 56,
      "start": 6.5912,
      "duration": 0.2998,
      "velocity": 100,
      "chip": "ym2612"
    },
    {
      "channel": 1,
      "note": 80,
      "start": 6.5915,
      "duration": 0.2998,
      "velocity": 100,
      "chip": "ym2612"
    },
    {
      "channel": 2,
      "note": 44,
      "start": 6.5918,
      "duration": 0.2998,
      "velocity": 100,
      "chip": "ym2612"
    },
    {
      "channel": 5,
      "note": 80,
      "start": 6.7418,
      "duration": 0.2998,
      "velocity": 100,
      "chip": "ym2612"
    },
    {
      "channel": 0,
      "note": 52,
      "start": 6.8912,
      "duration": 0.2998,
      "velocity": 100,
      "chip": "ym2612"
    },
    {
      "channel": 1,
      "note": 83,
      "start": 6.8915,
      "duration": 0.2998,
      "velocity": 100,
      "chip": "ym2612"
    },
    {
      "channel": 2,
      "note": 40,
      "start": 6.8918,
      "duration": 0.2998,
      "velocity": 100,
      "chip": "ym2612"
    },
    {
      "channel": 5,
      "note": 83,
      "start": 7.0418,
      "duration": 0.2998,
      "velocity": 100,
      "chip": "ym2612"
    },
    {
      "channel": 0,
      "note": 59,
      "start": 7.1912,
      "duration": 0.2998,
      "velocity": 100,
      "chip": "ym2612"
    },
    {
      "channel": 1,
      "note": 83,
      "start": 7.1915,
      "duration": 0.2998,
      "velocity": 100,
      "chip": "ym2612"
    },
    {
      "channel": 2,
      "note": 47,
      "start": 7.1918,
      "duration": 0.2998,
      "velocity": 100,
      "chip": "ym2612"
    },
    {
      "channel": 5,
      "note": 83,
      "start": 7.3418,
      "duration": 0.2997,
      "velocity": 100,
      "chip": "ym2612"
    },
    {
      "channel": 0,
      "note": 56,
      "start": 7.4912,
      "duration": 0.2998,
      "velocity": 100,
      "chip": "ym2612"
    },
    {
      "channel": 1,
      "note": 85,
      "start": 7.4915,
      "duration": 0.0996,
      "velocity": 100,
      "chip": "ym2612"
    },
    {
      "channel": 2,
      "note": 44,
      "start": 7.4918,
      "duration": 0.2998,
      "velocity": 100,
      "chip": "ym2612"
    },
    {
      "channel": 5,
      "note": 85,
      "start": 7.6417,
      "duration": 0.0998,
      "velocity": 100,
      "chip": "ym2612"
    },
    {
      "channel": 0,
      "note": 64,
      "start": 7.7912,
      "duration": 0.2998,
      "velocity": 100,
      "chip": "ym2612"
    },
    {
      "channel": 1,
      "note": 81,
      "start": 7.7915,
      "duration": 0.8998,
      "velocity": 100,
      "chip": "ym2612"
    },
    {
      "channel": 2,
      "note": 52,
      "start": 7.7918,
      "duration": 0.2996,
      "velocity": 100,
      "chip": "ym2612"
    },
    {
      "channel": 5,
      "note": 81,
      "start": 7.9418,
      "duration": 0.9001,
      "velocity": 100,
      "chip": "ym2612"
    },
    {
      "channel": 0,
      "note": 62,
      "start": 8.0912,
      "duration": 0.2998,
      "velocity": 100,
      "chip": "ym2612"
    },
    {
      "channel": 2,
      "note": 50,
      "start": 8.0917,
      "duration": 0.2997,
      "velocity": 100,
      "chip": "ym2612"
    },
    {
      "channel": 0,
      "note": 61,
      "start": 8.3912,
      "duration": 0.2998,
      "velocity": 100,
      "chip": "ym2612"
    },
    {
      "channel": 2,
      "note": 49,
      "start": 8.3917,
      "duration": 0.3,
      "velocity": 100,
      "chip": "ym2612"
    },
    {
      "channel": 0,
      "note": 59,
      "start": 8.6912,
      "duration": 0.2998,
      "velocity": 100,
      "chip": "ym2612"
    },
    {
      "channel": 1,
      "note": 76,
      "start": 8.6915,
      "duration": 0.0996,
      "velocity": 100,
      "chip": "ym2612"
    },
    {
      "channel": 2,
      "note": 80,
      "start": 8.692,
      "duration": 0.0993,
      "velocity": 100,
      "chip": "ym2612"
    },
    {
      "channel": 1,
      "note": 74,
      "start": 8.8414,
      "duration": 0.0997,
      "velocity": 100,
      "chip": "ym2612"
    },
    {
      "channel": 2,
      "note": 78,
      "start": 8.8417,
      "duration": 0.0996,
      "velocity": 100,
      "chip": "ym2612"
    },
    {
      "channel": 5,
      "note": 76,
      "start": 8.8421,
      "duration": 0.0995,
      "velocity": 100,
      "chip": "ym2612"
    },
    {
      "channel": 0,
      "note": 52,
      "start": 8.9913,
      "duration": 0.5998,
      "velocity": 100,
      "chip": "ym2612"
    },
    {
      "channel": 1,
      "note": 73,
      "start": 8.9916,
      "duration": 0.0995,
      "velocity": 100,
      "chip": "ym2612"
    },
    {
      "channel": 2,
      "note": 76,
      "start": 8.9919,
      "duration": 0.0994,
      "velocity": 100,
      "chip": "ym2612"
    },
    {
      "channel": 5,
      "note": 74,
      "start": 8.9923,
      "duration": 0.0993,
      "velocity": 100,
      "chip": "ym2612"
    },
    {
      "channel": 1,
      "note": 71,
      "start": 9.1414,
      "duration": 0.0997,
      "velocity": 100,
      "chip": "ym2612"
    },
    {
      "channel": 2,
      "note": 74,
      "start": 9.1417,
      "duration": 0.0996,
      "velocity": 100,
      "chip": "ym2612"
    },
    {
      "channel": 5,
      "note": 73,
      "start": 9.1421,
      "duration": 0.0995,
      "velocity": 100,
      "chip": "ym2612"
    },
    {
      "channel": 1,
      "note": 69,
      "start": 9.2914,
      "duration": 0.2999,
      "velocity": 100,
      "chip": "ym2612"
    },
    {
      "channel": 2,
      "note": 73,
      "start": 9.2917,
      "duration": 0.3,
      "velocity": 100,
      "chip": "ym2612"
    },
    {
      "channel": 5,
      "note": 71,
      "start": 9.2921,
      "duration": 0.0994,
      "velocity": 100,
      "chip": "ym2612"
    },
    {
      "channel": 5,
      "note": 69,
      "start": 9.4418,
      "duration": 0.2998,
      "velocity": 100,
      "chip": "ym2612"
    },
    {
      "channel": 0,
      "note": 57,
      "start": 9.5913,
      "duration": 0.2998,
      "velocity": 100,
      "chip": "ym2612"
    },
    {
      "channel": 1,
      "note": 73,
      "start": 9.5916,
      "duration": 0.1495,
      "velocity": 100,
      "chip": "ym2612"
    },
    {
      "channel": 2,
      "note": 45,
      "start": 9.592,
      "duration": 0.2994,
      "velocity": 100,
      "chip": "ym2612"
    },
    {
      "channel": 5,
      "note": 73,
      "start": 9.7418,
      "duration": 0.15,
      "velocity": 100,
      "chip": "ym2612"
    },
    {
      "channel": 0,
      "note": 56,
      "start": 9.8912,
      "duration": 0.2998,
      "velocity": 100,
      "chip": "ym2612"
    },
    {
      "channel": 2,
      "note": 44,
      "start": 9.8916,
      "duration": 0.3001,
      "velocity": 100,
      "chip": "ym2612"
    },
    {
      "channel": 0,
      "note": 57,
      "start": 10.1912,
      "duration": 0.2998,
      "velocity": 100,
      "chip": "ym2612"
    },
    {
      "channel": 1,
      "note": 73,
      "start": 10.1915,
      "duration": 0.8998,
      "velocity": 100,
      "chip": "ym2612"
    },
    {
      "channel": 2,
      "note": 45,
      "start": 10.1918,
      "duration": 0.2996,
      "velocity": 100,
      "chip": "ym2612"
    },
    {
      "channel": 5,
      "note": 73,
      "start": 10.3418,
      "duration": 0.8998,
      "velocity": 100,
      "chip": "ym2612"
    },
    {
      "channel": 0,
      "note": 59,
      "start": 10.4912,
      "duration": 0.2998,
      "velocity": 100,
      "chip": "ym2612"
    },
    {
      "channel": 2,
      "note": 47,
      "start": 10.4917,
      "duration": 0.2997,
      "velocity": 100,
      "chip": "ym2612"
    },
    {
      "channel": 0,
      "note": 61,
      "start": 10.7912,
      "duration": 0.2998,
      "velocity": 100,
      "chip": "ym2612"
    },
    {
      "channel": 2,
      "note": 49,
      "start": 10.7917,
      "duration": 0.2999,
      "velocity": 100,
      "chip": "ym2612"
    },
    {
      "channel": 0,
      "note": 52,
      "start": 11.0913,
      "duration": 0.5998,
      "velocity": 100,
      "chip": "ym2612"
    },
    {
      "channel": 1,
      "note": 76,
      "start": 11.0916,
      "duration": 0.2995,
      "velocity": 100,
      "chip": "ym2612"
    },
    {
      "channel": 2,
      "note": 40,
      "start": 11.0919,
      "duration": 0.5998,
      "velocity": 100,
      "chip": "ym2612"
    },
    {
      "channel": 5,
      "note": 76,
      "start": 11.2418,
      "duration": 0.2998,
      "velocity": 100,
      "chip": "ym2612"
    },
    {
      "channel": 1,
      "note": 81,
      "start": 11.3914,
      "duration": 0.2999,
      "velocity": 100,
      "chip": "ym2612"
    },
    {
      "channel": 5,
      "note": 81,
      "start": 11.5418,
      "duration": 0.2998,
      "velocity": 100,
      "chip": "ym2612"
    },
    {
      "channel": 0,
      "note": 57,
      "start": 11.6913,
      "duration": 0.5998,
      "velocity": 100,
      "chip": "ym2612"
    },
    {
      "channel": 1,
      "note": 73,
      "start": 11.6915,
      "duration": 0.2996,
      "velocity": 100,
      "chip": "ym2612"
    },
    {
      "channel": 2,
      "note": 45,
      "start": 11.6918,
      "duration": 0.5998,
      "velocity": 100,
      "chip": "ym2612"
    },
    {
      "channel": 5,
      "note": 73,
      "start": 11.8418,
      "duration": 0.2998,
      "velocity": 100,
      "chip": "ym2612"
    },
    {
      "channel": 1,
      "note": 76,
      "start": 11.9913,
      "duration": 0.3,
      "velocity": 100,
      "chip": "ym2612"
    },
    {
      "channel": 5,
      "note": 76,
      "start": 12.1418,
      "duration": 0.2998,
      "velocity": 100,
      "chip": "ym2612"
    },
    {
      "channel": 0,
      "note": 62,
      "start": 12.2912,
      "duration": 0.2998,
      "velocity": 100,
      "chip": "ym2612"
    },
    {
      "channel": 1,
      "note": 74,
      "start": 12.2915,
      "duration": 0.1496,
      "velocity": 100,
      "chip": "ym2612"
    },
    {
      "channel": 2,
      "note": 50,
      "start": 12.2918,
      "duration": 0.2998,
      "velocity": 100,
      "chip": "ym2612"
    },
    {
      "channel": 5,
      "note": 74,
      "start": 12.4418,
      "duration": 0.1503,
      "velocity": 100,
      "chip": "ym2612"
    },
    {
      "channel": 0,
      "note": 66,
      "start": 12.5912,
      "duration": 0.2998,
      "velocity": 100,
      "chip": "ym2612"
    },
    {
      "channel": 1,
      "note": 74,
      "start": 12.5915,
      "duration": 0.8996,
      "velocity": 100,
      "chip": "ym2612"
    },
    {
      "channel": 2,
      "note": 54,
      "start": 12.5918,
      "duration": 0.2996,
      "velocity": 100,
      "chip": "ym2612"
    },
    {
      "channel": 5,
      "note": 74,
      "start": 12.7418,
      "duration": 0.8998,
      "velocity": 100,
      "chip": "ym2612"
    },
    {
      "channel": 0,
      "note": 54,
      "start": 12.8912,
      "duration": 0.2998,
      "velocity": 100,
      "chip": "ym2612"
    },
    {
      "channel": 2,
      "note": 42,
      "start": 12.8917,
      "duration": 0.2997,
      "velocity": 100,
      "chip": "ym2612"
    },
    {
      "channel": 0,
      "note": 59,
      "start": 13.1913,
      "duration": 0.5998,
      "velocity": 100,
      "chip": "ym2612"
    },
    {
      "channel": 2,
      "note": 47,
      "start": 13.1917,
      "duration": 0.5999,
      "velocity": 100,
      "chip": "ym2612"
    },
    {
      "channel": 1,
      "note": 78,
      "start": 13.4914,
      "duration": 0.2999,
      "velocity": 100,
      "chip": "ym2612"
    },
    {
      "channel": 5,
      "note": 78,
      "start": 13.6418,
      "duration": 0.2998,
      "velocity": 100,
      "chip": "ym2612"
    },
    {
      "channel": 0,
      "note": 47,
      "start": 13.7912,
      "duration": 0.5998,
      "velocity": 100,
      "chip": "ym2612"
    },
    {
      "channel": 1,
      "note": 81,
      "start": 13.7915,
      "duration": 0.2996,
      "velocity": 100,
      "chip": "ym2612"
    },
    {
      "channel": 2,
      "note": 35,
      "start": 13.7918,
      "duration": 0.5998,
      "velocity": 100,
      "chip": "ym2612"
    },
    {
      "channel": 5,
      "note": 81,
      "start": 13.9418,
      "duration": 0.2998,
      "velocity": 100,
      "chip": "ym2612"
    },
    {
      "channel": 1,
      "note": 74,
      "start": 14.0914,
      "duration": 0.2999,
      "velocity": 100,
      "chip": "ym2612"
    },
    {
      "channel": 5,
      "note": 74,
      "start": 14.2418,
      "duration": 0.2998,
      "velocity": 100,
      "chip": "ym2612"
    },
    {
      "channel": 0,
      "note": 52,
      "start": 14.3913,
      "duration": 0.5998,
      "velocity": 100,
      "chip": "ym2612"
    },
    {
      "channel": 1,
      "note": 78,
      "start": 14.3915,
      "duration": 0.2996,
      "velocity": 100,
      "chip": "ym2612"
    },
    {
      "channel": 2,
      "note": 40,
      "start": 14.3918,
      "duration": 0.5996,
      "velocity": 100,
      "chip": "ym2612"
    },
    {
      "channel": 5,
      "note": 78,
      "start": 14.5418,
      "duration": 0.2997,
      "velocity": 100,
      "chip": "ym2612"
    },
    {
      "channel": 1,
      "note": 76,
      "start": 14.6914,
      "duration": 0.0997,
      "velocity": 100,
      "chip": "ym2612"
    },
    {
      "channel": 5,
      "note": 76,
      "start": 14.8417,
      "duration": 0.0998,
      "velocity": 100,
      "chip": "ym2612"
    },
    {
      "channel": 0,
      "note": 76,
      "start": 14.9913,
      "duration": 0.8998,
      "velocity": 100,
      "chip": "ym2612"
    },
    {
      "channel": 2,
      "note": 64,
      "start": 14.9916,
      "duration": 0.9001,
      "velocity": 100,
      "chip": "ym2612"
    },
    {
      "channel": 1,
      "note": 47,
      "start": 15.2914,
      "duration": 0.2997,
      "velocity": 100,
      "chip": "ym2612"
    },
    {
      "channel": 5,
      "note": 47,
      "start": 15.4418,
      "duration": 0.2998,
      "velocity": 100,
      "chip": "ym2612"
    },
    {
      "channel": 1,
      "note": 52,
      "start": 15.5914,
      "duration": 0.2999,
      "velocity": 100,
      "chip": "ym2612"
    },
    {
      "channel": 5,
      "note": 52,
      "start": 15.7418,
      "duration": 0.2998,
      "velocity": 100,
      "chip": "ym2612"
    },
    {
      "channel": 0,
      "note": 59,
      "start": 15.8913,
      "duration": 0.2998,
      "velocity": 100,
      "chip": "ym2612"
    },
    {
      "channel": 1,
      "note": 76,
      "start": 15.8915,
      "duration": 0.2998,
      "velocity": 100,
      "chip": "ym2612"
    },
    {
      "channel": 2,
      "note": 47,
      "start": 15.8918,
      "duration": 0.2998,
      "velocity": 100,
      "chip": "ym2612"
    },
    {
      "channel": 5,
      "note": 76,
      "start": 16.0418,
      "duration": 0.2998,
      "velocity": 100,
      "chip": "ym2612"
    },
    {
      "channel": 0,
      "note": 56,
      "start": 16.1912,
      "duration": 0.2998,
      "velocity": 100,
      "chip": "ym2612"
    },
    {
      "channel": 1,
      "note": 80,
      "start": 16.1915,
      "duration": 0.2998,
      "velocity": 100,
      "chip": "ym2612"
    },
    {
      "channel": 2,
      "note": 44,
      "start": 16.1918,
      "duration": 0.2998,
      "velocity": 100,
      "chip": "ym2612"
    },
    {
      "channel": 5,
      "note": 80,
      "start": 16.3418,
      "duration": 0.2998,
      "velocity": 100,
      "chip": "ym2612"
    },
    {
      "channel": 0,
      "note": 52,
      "start": 16.4912,
      "duration": 0.2998,
      "velocity": 100,
      "chip": "ym2612"
    },
    {
      "channel": 1,
      "note": 83,
      "start": 16.4915,
      "duration": 0.2998,
      "velocity": 100,
      "chip": "ym2612"
    },
    {
      "channel": 2,
      "note": 40,
      "start": 16.4918,
      "duration": 0.2998,
      "velocity": 100,
      "chip": "ym2612"
    },
    {
      "channel": 5,
      "note": 83,
      "start": 16.6418,
      "duration": 0.2997,
      "velocity": 100,
      "chip": "ym2612"
    },
    {
      "channel": 0,
      "note": 61,
      "start": 16.7912,
      "duration": 0.2998,
      "velocity": 100,
      "chip": "ym2612"
    },
    {
      "channel": 1,
      "note": 85,
      "start": 16.7915,
      "duration": 0.0996,
      "velocity": 100,
      "chip": "ym2612"
    },
    {
      "channel": 2,
      "note": 49,
      "start": 16.7918,
      "duration": 0.2996,
      "velocity": 100,
      "chip": "ym2612"
    },
    {
      "channel": 5,
      "note": 85,
      "start": 16.9417,
      "duration": 0.0998,
      "velocity": 100,
      "chip": "ym2612"
    },
    {
      "channel": 0,
      "note": 52,
      "start": 17.0912,
      "duration": 0.2998,
      "velocity": 100,
      "chip": "ym2612"
    },
    {
      "channel": 2,
      "note": 40,
      "start": 17.0916,
      "duration": 0.3001,
      "velocity": 100,
      "chip": "ym2612"
    },
    {
      "channel": 0,
      "note": 57,
      "start": 17.3913,
      "duration": 1.1998,
      "velocity": 100,
      "chip": "ym2612"
    },
    {
      "channel": 1,
      "note": 81,
      "start": 17.3916,
      "duration": 1.1996,
      "velocity": 100,
      "chip": "ym2612"
    },
    {
      "channel": 2,
      "note": 45,
      "start": 17.3919,
      "duration": 1.1994,
      "velocity": 100,
      "chip": "ym2612"
    },
    {
      "channel": 5,
      "note": 81,
      "start": 17.5418,
      "duration": 1.1994,
      "velocity": 100,
      "chip": "ym2612"
    },
    {
      "channel": 0,
      "note": 57,
      "start": 19.1913,
      "duration": 0.2998,
      "velocity": 100,
      "chip": "ym2612"
    },
    {
      "channel": 1,
      "note": 73,
      "start": 19.1916,
      "duration": 0.1495,
      "velocity": 100,
      "chip": "ym2612"
    },
    {
      "channel": 2,
      "note": 45,
      "start": 19.1923,
      "duration": 0.2991,
      "velocity": 100,
      "chip": "ym2612"
    },
    {
      "channel": 3,
      "note": 81,
      "start": 19.1926,
      "duration": 0.1489,
      "velocity": 86,
      "chip": "ym2612"
    },
    {
      "channel": 4,
      "note": 85,
      "start": 19.193,
      "duration": 0.1487,
      "velocity": 86,
      "chip": "ym2612"
    },
    {
      "channel": 5,
      "note": 73,
      "start": 19.3421,
      "duration": 0.1502,
      "velocity": 100,
      "chip": "ym2612"
    },
    {
      "channel": 0,
      "note": 56,
      "start": 19.4912,
      "duration": 0.2998,
      "velocity": 100,
      "chip": "ym2612"
    },
    {
      "channel": 2,
      "note": 44,
      "start": 19.4916,
      "duration": 0.3001,
      "velocity": 100,
      "chip": "ym2612"
    },
    {
      "channel": 3,
      "note": 85,
      "start": 19.4919,
      "duration": 0.1494,
      "velocity": 86,
      "chip": "ym2612"
    },
    {
      "channel": 4,
      "note": 88,
      "start": 19.4922,
      "duration": 0.1493,
      "velocity": 86,
      "chip": "ym2612"
    },
    {
      "channel": 0,
      "note": 57,
      "start": 19.7912,
      "duration": 0.2998,
      "velocity": 100,
      "chip": "ym2612"
    },
    {
      "channel": 1,
      "note": 73,
      "start": 19.7915,
      "duration": 0.8998,
      "velocity": 100,
      "chip": "ym2612"
    },
    {
      "channel": 2,
      "note": 45,
      "start": 19.7918,
      "duration": 0.2996,
      "velocity": 100,
      "chip": "ym2612"
    },
    {
      "channel": 3,
      "note": 85,
      "start": 19.7922,
      "duration": 0.1493,
      "velocity": 86,
      "chip": "ym2612"
    },
    {
      "channel": 4,
      "note": 88,
      "start": 19.7925,
      "duration": 0.1492,
      "velocity": 86,
      "chip": "ym2612"
    },
    {
      "channel": 5,
      "note": 73,
      "start": 19.942,
      "duration": 0.8997,
      "velocity": 100,
      "chip": "ym2612"
    },
    {
      "channel": 0,
      "note": 59,
      "start": 20.0912,
      "duration": 0.2998,
      "velocity": 100,
      "chip": "ym2612"
    },
    {
      "channel": 2,
      "note": 47,
      "start": 20.0917,
      "duration": 0.2997,
      "velocity": 100,
      "chip": "ym2612"
    },
    {
      "channel": 3,
      "note": 88,
      "start": 20.092,
      "duration": 0.1494,
      "velocity": 86,
      "chip": "ym2612"
    },
    {
      "channel": 4,
      "note": 93,
      "start": 20.0923,
      "duration": 0.1494,
      "velocity": 86,
      "chip": "ym2612"
    },
    {
      "channel": 0,
      "note": 61,
      "start": 20.3912,
      "duration": 0.2998,
      "velocity": 100,
      "chip": "ym2612"
    },
    {
      "channel": 2,
      "note": 49,
      "start": 20.3917,
      "duration": 0.2999,
      "velocity": 100,
      "chip": "ym2612"
    },
    {
      "channel": 3,
      "note": 88,
      "start": 20.392,
      "duration": 0.1494,
      "velocity": 86,
      "chip": "ym2612"
    },
    {
      "channel": 4,
      "note": 93,
      "start": 20.3923,
      "duration": 0.1494,
      "velocity": 86,
      "chip": "ym2612"
    },
    {
      "channel": 0,
      "note": 52,
      "start": 20.6913,
      "duration": 0.5998,
      "velocity": 100,
      "chip": "ym2612"
    },
    {
      "channel": 1,
      "note": 76,
      "start": 20.6916,
      "duration": 0.2995,
      "velocity": 100,
      "chip": "ym2612"
    },
    {
      "channel": 2,
      "note": 40,
      "start": 20.6919,
      "duration": 0.5998,
      "velocity": 100,
      "chip": "ym2612"
    },
    {
      "channel": 3,
      "note": 93,
      "start": 20.6922,
      "duration": 0.1492,
      "velocity": 86,
      "chip": "ym2612"
    },
    {
      "channel": 4,
      "note": 97,
      "start": 20.6925,
      "duration": 0.1492,
      "velocity": 86,
      "chip": "ym2612"
    },
    {
      "channel": 5,
      "note": 76,
      "start": 20.842,
      "duration": 0.2997,
      "velocity": 100,
      "chip": "ym2612"
    },
    {
      "channel": 1,
      "note": 81,
      "start": 20.9914,
      "duration": 0.2999,
      "velocity": 100,
      "chip": "ym2612"
    },
    {
      "channel": 3,
      "note": 93,
      "start": 20.9918,
      "duration": 0.1496,
      "velocity": 86,
      "chip": "ym2612"
    },
    {
      "channel": 4,
      "note": 97,
      "start": 20.9922,
      "duration": 0.1495,
      "velocity": 86,
      "chip": "ym2612"
    },
    {
      "channel": 5,
      "note": 81,
      "start": 21.142,
      "duration": 0.2997,
      "velocity": 100,
      "chip": "ym2612"
    },
    {
      "channel": 0,
      "note": 57,
      "start": 21.2913,
      "duration": 0.5998,
      "velocity": 100,
      "chip": "ym2612"
    },
    {
      "channel": 1,
      "note": 73,
      "start": 21.2915,
      "duration": 0.2996,
      "velocity": 100,
      "chip": "ym2612"
    },
    {
      "channel": 2,
      "note": 45,
      "start": 21.2918,
      "duration": 0.5998,
      "velocity": 100,
      "chip": "ym2612"
    },
    {
      "channel": 3,
      "note": 97,
      "start": 21.2922,
      "duration": 0.1493,
      "velocity": 86,
      "chip": "ym2612"
    },
    {
      "channel": 4,
      "note": 100,
      "start": 21.2925,
      "duration": 0.1492,
      "velocity": 86,
      "chip": "ym2612"
    },
    {
      "channel": 5,
      "note": 73,
      "start": 21.442,
      "duration": 0.2997,
      "velocity": 100,
      "chip": "ym2612"
    },
    {
      "channel": 1,
      "note": 76,
      "start": 21.5913,
      "duration": 0.3,
      "velocity": 100,
      "chip": "ym2612"
    },
    {
      "channel": 3,
      "note": 83,
      "start": 21.5917,
      "duration": 0.1497,
      "velocity": 86,
      "chip": "ym2612"
    },
    {
      "channel": 4,
      "note": 86,
      "start": 21.592,
      "duration": 0.1496,
      "velocity": 86,
      "chip": "ym2612"
    },
    {
      "channel": 5,
      "note": 76,
      "start": 21.742,
      "duration": 0.2997,
      "velocity": 100,
      "chip": "ym2612"
    },
    {
      "channel": 0,
      "note": 62,
      "start": 21.8912,
      "duration": 0.2998,
      "velocity": 100,
      "chip": "ym2612"
    },
    {
      "channel": 1,
      "note": 74,
      "start": 21.8915,
      "duration": 0.1496,
      "velocity": 100,
      "chip": "ym2612"
    },
    {
      "channel": 2,
      "note": 50,
      "start": 21.8918,
      "duration": 0.2998,
      "velocity": 100,
      "chip": "ym2612"
    },
    {
      "channel": 3,
      "note": 86,
      "start": 21.8922,
      "duration": 0.1493,
      "velocity": 86,
      "chip": "ym2612"
    },
    {
      "channel": 4,
      "note": 90,
      "start": 21.8925,
      "duration": 0.1492,
      "velocity": 86,
      "chip": "ym2612"
    },
    {
      "channel": 5,
      "note": 74,
      "start": 22.042,
      "duration": 0.1506,
      "velocity": 100,
      "chip": "ym2612"
    },
    {
      "channel": 0,
      "note": 66,
      "start": 22.1912,
      "duration": 0.2998,
      "velocity": 100,
      "chip": "ym2612"
    },
    {
      "channel": 1,
      "note": 74,
      "start": 22.1915,
      "duration": 0.8996,
      "velocity": 100,
      "chip": "ym2612"
    },
    {
      "channel": 2,
      "note": 54,
      "start": 22.1918,
      "duration": 0.2996,
      "velocity": 100,
      "chip": "ym2612"
    },
    {
      "channel": 3,
      "note": 86,
      "start": 22.1922,
      "duration": 0.1493,
      "velocity": 86,
      "chip": "ym2612"
    },
    {
      "channel": 4,
      "note": 90,
      "start": 22.1925,
      "duration": 0.1492,
      "velocity": 86,
      "chip": "ym2612"
    },
    {
      "channel": 5,
      "note": 74,
      "start": 22.342,
      "duration": 0.8997,
      "velocity": 100,
      "chip": "ym2612"
    },
    {
      "channel": 0,
      "note": 54,
      "start": 22.4912,
      "duration": 0.2998,
      "velocity": 100,
      "chip": "ym2612"
    },
    {
      "channel": 2,
      "note": 42,
      "start": 22.4917,
      "duration": 0.2997,
      "velocity": 100,
      "chip": "ym2612"
    },
    {
      "channel": 3,
      "note": 90,
      "start": 22.492,
      "duration": 0.1494,
      "velocity": 86,
      "chip": "ym2612"
    },
    {
      "channel": 4,
      "note": 95,
      "start": 22.4923,
      "duration": 0.1494,
      "velocity": 86,
      "chip": "ym2612"
    },
    {
      "channel": 0,
      "note": 59,
      "start": 22.7913,
      "duration": 0.5998,
      "velocity": 100,
      "chip": "ym2612"
    },
    {
      "channel": 2,
      "note": 47,
      "start": 22.7917,
      "duration": 0.5999,
      "velocity": 100,
      "chip": "ym2612"
    },
    {
      "channel": 3,
      "note": 90,
      "start": 22.792,
      "duration": 0.1494,
      "velocity": 86,
      "chip": "ym2612"
    },
    {
      "channel": 4,
      "note": 95,
      "start": 22.7924,
      "duration": 0.1493,
      "velocity": 86,
      "chip": "ym2612"
    },
    {
      "channel": 1,
      "note": 78,
      "start": 23.0914,
      "duration": 0.2999,
      "velocity": 100,
      "chip": "ym2612"
    },
    {
      "channel": 3,
      "note": 95,
      "start": 23.0918,
      "duration": 0.1496,
      "velocity": 86,
      "chip": "ym2612"
    },
    {
      "channel": 4,
      "note": 98,
      "start": 23.0922,
      "duration": 0.1495,
      "velocity": 86,
      "chip": "ym2612"
    },
    {
      "channel": 5,
      "note": 78,
      "start": 23.242,
      "duration": 0.2997,
      "velocity": 100,
      "chip": "ym2612"
    },
    {
      "channel": 0,
      "note": 47,
      "start": 23.3912,
      "duration": 0.5998,
      "velocity": 100,
      "chip": "ym2612"
    },
    {
      "channel": 1,
      "note": 81,
      "start": 23.3915,
      "duration": 0.2996,
      "velocity": 100,
      "chip": "ym2612"
    },
    {
      "channel": 2,
      "note": 35,
      "start": 23.3918,
      "duration": 0.5998,
      "velocity": 100,
      "chip": "ym2612"
    },
    {
      "channel": 3,
      "note": 95,
      "start": 23.3922,
      "duration": 0.1493,
      "velocity": 86,
      "chip": "ym2612"
    },
    {
      "channel": 4,
      "note": 98,
      "start": 23.3925,
      "duration": 0.1492,
      "velocity": 86,
      "chip": "ym2612"
    },
    {
      "channel": 5,
      "note": 81,
      "start": 23.542,
      "duration": 0.2997,
      "velocity": 100,
      "chip": "ym2612"
    },
    {
      "channel": 1,
      "note": 74,
      "start": 23.6914,
      "duration": 0.2999,
      "velocity": 100,
      "chip": "ym2612"
    },
    {
      "channel": 3,
      "note": 90,
      "start": 23.6918,
      "duration": 0.1496,
      "velocity": 86,
      "chip": "ym2612"
    },
    {
      "channel": 4,
      "note": 95,
      "start": 23.6922,
      "duration": 0.1495,
      "velocity": 86,
      "chip": "ym2612"
    },
    {
      "channel": 5,
      "note": 74,
      "start": 23.842,
      "duration": 0.2997,
      "velocity": 100,
      "chip": "ym2612"
    },
    {
      "channel": 0,
      "note": 52,
      "start": 23.9913,
      "duration": 0.5998,
      "velocity": 100,
      "chip": "ym2612"
    },
    {
      "channel": 1,
      "note": 78,
      "start": 23.9915,
      "duration": 0.2996,
      "velocity": 100,
      "chip": "ym2612"
    },
    {
      "channel": 2,
      "note": 40,
      "start": 23.9918,
      "duration": 0.5996,
      "velocity": 100,
      "chip": "ym2612"
    },
    {
      "channel": 3,
      "note": 83,
      "start": 23.9922,
      "duration": 0.1493,
      "velocity": 86,
      "chip": "ym2612"
    },
    {
      "channel": 4,
      "note": 88,
      "start": 23.9925,
      "duration": 0.1492,
      "velocity": 86,
      "chip": "ym2612"
    },
    {
      "channel": 5,
      "note": 78,
      "start": 24.142,
      "duration": 0.2996,
      "velocity": 100,
      "chip": "ym2612"
    },
    {
      "channel": 1,
      "note": 76,
      "start": 24.2914,
      "duration": 0.0997,
      "velocity": 100,
      "chip": "ym2612"
    },
    {
      "channel": 3,
      "note": 88,
      "start": 24.2918,
      "duration": 0.1495,
      "velocity": 86,
      "chip": "ym2612"
    },
    {
      "channel": 4,
      "note": 92,
      "start": 24.2922,
      "duration": 0.1494,
      "velocity": 86,
      "chip": "ym2612"
    },
    {
      "channel": 5,
      "note": 76,
      "start": 24.4419,
      "duration": 0.0995,
      "velocity": 100,
      "chip": "ym2612"
    },
    {
      "channel": 0,
      "note": 76,
      "start": 24.5913,
      "duration": 0.8998,
      "velocity": 100,
      "chip": "ym2612"
    },
    {
      "channel": 2,
      "note": 64,
      "start": 24.5916,
      "duration": 0.9001,
      "velocity": 100,
      "chip": "ym2612"
    },
    {
      "channel": 3,
      "note": 88,
      "start": 24.5919,
      "duration": 0.1494,
      "velocity": 86,
      "chip": "ym2612"
    },
    {
      "channel": 4,
      "note": 92,
      "start": 24.5922,
      "duration": 0.1493,
      "velocity": 86,
      "chip": "ym2612"
    },
    {
      "channel": 1,
      "note": 47,
      "start": 24.8914,
      "duration": 0.2997,
      "velocity": 100,
      "chip": "ym2612"
    },
    {
      "channel": 3,
      "note": 92,
      "start": 24.8918,
      "duration": 0.1496,
      "velocity": 86,
      "chip": "ym2612"
    },
    {
      "channel": 4,
      "note": 95,
      "start": 24.8922,
      "duration": 0.1495,
      "velocity": 86,
      "chip": "ym2612"
    },
    {
      "channel": 5,
      "note": 47,
      "start": 25.042,
      "duration": 0.2997,
      "velocity": 100,
      "chip": "ym2612"
    },
    {
      "channel": 1,
      "note": 52,
      "start": 25.1914,
      "duration": 0.2999,
      "velocity": 100,
      "chip": "ym2612"
    },
    {
      "channel": 3,
      "note": 92,
      "start": 25.1918,
      "duration": 0.1496,
      "velocity": 86,
      "chip": "ym2612"
    },
    {
      "channel": 4,
      "note": 95,
      "start": 25.1922,
      "duration": 0.1495,
      "velocity": 86,
      "chip": "ym2612"
    },
    {
      "channel": 5,
      "note": 52,
      "start": 25.342,
      "duration": 0.2997,
      "velocity": 100,
      "chip": "ym2612"
    },
    {
      "channel": 0,
      "note": 59,
      "start": 25.4913,
      "duration": 0.2998,
      "velocity": 100,
      "chip": "ym2612"
    },
    {
      "channel": 1,
      "note": 76,
      "start": 25.4915,
      "duration": 0.2998,
      "velocity": 100,
      "chip": "ym2612"
    },
    {
      "channel": 2,
      "note": 47,
      "start": 25.4918,
      "duration": 0.2998,
      "velocity": 100,
      "chip": "ym2612"
    },
    {
      "channel": 3,
      "note": 95,
      "start": 25.4922,
      "duration": 0.1493,
      "velocity": 86,
      "chip": "ym2612"
    },
    {
      "channel": 4,
      "note": 100,
      "start": 25.4925,
      "duration": 0.1492,
      "velocity": 86,
      "chip": "ym2612"
    },
    {
      "channel": 5,
      "note": 76,
      "start": 25.642,
      "duration": 0.2997,
      "velocity": 100,
      "chip": "ym2612"
    },
    {
      "channel": 0,
      "note": 56,
      "start": 25.7912,
      "duration": 0.2998,
      "velocity": 100,
      "chip": "ym2612"
    },
    {
      "channel": 1,
      "note": 80,
      "start": 25.7915,
      "duration": 0.2998,
      "velocity": 100,
      "chip": "ym2612"
    },
    {
      "channel": 2,
      "note": 44,
      "start": 25.7918,
      "duration": 0.2998,
      "velocity": 100,
      "chip": "ym2612"
    },
    {
      "channel": 3,
      "note": 95,
      "start": 25.7922,
      "duration": 0.1493,
      "velocity": 86,
      "chip": "ym2612"
    },
    {
      "channel": 4,
      "note": 100,
      "start": 25.7925,
      "duration": 0.1492,
      "velocity": 86,
      "chip": "ym2612"
    },
    {
      "channel": 5,
      "note": 80,
      "start": 25.942,
      "duration": 0.2997,
      "velocity": 100,
      "chip": "ym2612"
    },
    {
      "channel": 0,
      "note": 52,
      "start": 26.0912,
      "duration": 0.2998,
      "velocity": 100,
      "chip": "ym2612"
    },
    {
      "channel": 1,
      "note": 83,
      "start": 26.0915,
      "duration": 0.2998,
      "velocity": 100,
      "chip": "ym2612"
    },
    {
      "channel": 2,
      "note": 40,
      "start": 26.0918,
      "duration": 0.2998,
      "velocity": 100,
      "chip": "ym2612"
    },
    {
      "channel": 3,
      "note": 92,
      "start": 26.0922,
      "duration": 0.1493,
      "velocity": 86,
      "chip": "ym2612"
    },
    {
      "channel": 4,
      "note": 95,
      "start": 26.0925,
      "duration": 0.1492,
      "velocity": 86,
      "chip": "ym2612"
    },
    {
      "channel": 5,
      "note": 83,
      "start": 26.242,
      "duration": 0.2998,
      "velocity": 100,
      "chip": "ym2612"
    },
    {
      "channel": 0,
      "note": 59,
      "start": 26.3912,
      "duration": 0.2998,
      "velocity": 100,
      "chip": "ym2612"
    },
    {
      "channel": 1,
      "note": 83,
      "start": 26.3915,
      "duration": 0.2998,
      "velocity": 100,
      "chip": "ym2612"
    },
    {
      "channel": 2,
      "note": 47,
      "start": 26.3918,
      "duration": 0.2998,
      "velocity": 100,
      "chip": "ym2612"
    },
    {
      "channel": 3,
      "note": 100,
      "start": 26.3922,
      "duration": 0.1492,
      "velocity": 86,
      "chip": "ym2612"
    },
    {
      "channel": 4,
      "note": 105,
      "start": 26.3926,
      "duration": 0.149,
      "velocity": 86,
      "chip": "ym2612"
    },
    {
      "channel": 5,
      "note": 83,
      "start": 26.542,
      "duration": 0.2996,
      "velocity": 100,
      "chip": "ym2612"
    },
    {
      "channel": 0,
      "note": 56,
      "start": 26.6912,
      "duration": 0.2998,
      "velocity": 100,
      "chip": "ym2612"
    },
    {
      "channel": 1,
      "note": 85,
      "start": 26.6915,
      "duration": 0.0996,
      "velocity": 100,
      "chip": "ym2612"
    },
    {
      "channel": 2,
      "note": 44,
      "start": 26.6918,
      "duration": 0.2998,
      "velocity": 100,
      "chip": "ym2612"
    },
    {
      "channel": 3,
      "note": 93,
      "start": 26.6922,
      "duration": 0.1492,
      "velocity": 86,
      "chip": "ym2612"
    },
    {
      "channel": 4,
      "note": 97,
      "start": 26.6925,
      "duration": 0.149,
      "velocity": 86,
      "chip": "ym2612"
    },
    {
      "channel": 5,
      "note": 85,
      "start": 26.8419,
      "duration": 0.0995,
      "velocity": 100,
      "chip": "ym2612"
    },
    {
      "channel": 0,
      "note": 64,
      "start": 26.9912,
      "duration": 0.2998,
      "velocity": 100,
      "chip": "ym2612"
    },
    {
      "channel": 1,
      "note": 81,
      "start": 26.9915,
      "duration": 0.8998,
      "velocity": 100,
      "chip": "ym2612"
    },
    {
      "channel": 2,
      "note": 52,
      "start": 26.9918,
      "duration": 0.2996,
      "velocity": 100,
      "chip": "ym2612"
    },
    {
      "channel": 3,
      "note": 97,
      "start": 26.9922,
      "duration": 0.1493,
      "velocity": 86,
      "chip": "ym2612"
    },
    {
      "channel": 4,
      "note": 100,
      "start": 26.9925,
      "duration": 0.1492,
      "velocity": 86,
      "chip": "ym2612"
    },
    {
      "channel": 5,
      "note": 81,
      "start": 27.142,
      "duration": 0.9001,
      "velocity": 100,
      "chip": "ym2612"
    },
    {
      "channel": 0,
      "note": 62,
      "start": 27.2912,
      "duration": 0.2998,
      "velocity": 100,
      "chip": "ym2612"
    },
    {
      "channel": 2,
      "note": 50,
      "start": 27.2917,
      "duration": 0.2997,
      "velocity": 100,
      "chip": "ym2612"
    },
    {
      "channel": 3,
      "note": 88,
      "start": 27.292,
      "duration": 0.1494,
      "velocity": 86,
      "chip": "ym2612"
    },
    {
      "channel": 4,
      "note": 93,
      "start": 27.2923,
      "duration": 0.1494,
      "velocity": 86,
      "chip": "ym2612"
    },
    {
      "channel": 0,
      "note": 61,
      "start": 27.5912,
      "duration": 0.2998,
      "velocity": 100,
      "chip": "ym2612"
    },
    {
      "channel": 2,
      "note": 49,
      "start": 27.5917,
      "duration": 0.3,
      "velocity": 100,
      "chip": "ym2612"
    },
    {
      "channel": 3,
      "note": 93,
      "start": 27.592,
      "duration": 0.1494,
      "velocity": 86,
      "chip": "ym2612"
    },
    {
      "channel": 4,
      "note": 97,
      "start": 27.5923,
      "duration": 0.1494,
      "velocity": 86,
      "chip": "ym2612"
    },
    {
      "channel": 0,
      "note": 59,
      "start": 27.8912,
      "duration": 0.2998,
      "velocity": 100,
      "chip": "ym2612"
    },
    {
      "channel": 1,
      "note": 76,
      "start": 27.8915,
      "duration": 0.0996,
      "velocity": 100,
      "chip": "ym2612"
    },
    {
      "channel": 2,
      "note": 80,
      "start": 27.892,
      "duration": 0.0993,
      "velocity": 100,
      "chip": "ym2612"
    },
    {
      "channel": 3,
      "note": 85,
      "start": 27.8924,
      "duration": 0.1495,
      "velocity": 86,
      "chip": "ym2612"
    },
    {
      "channel": 4,
      "note": 88,
      "start": 27.8927,
      "duration": 0.1493,
      "velocity": 86,
      "chip": "ym2612"
    },
    {
      "channel": 1,
      "note": 74,
      "start": 28.0414,
      "duration": 0.0997,
      "velocity": 100,
      "chip": "ym2612"
    },
    {
      "channel": 2,
      "note": 78,
      "start": 28.0417,
      "duration": 0.0996,
      "velocity": 100,
      "chip": "ym2612"
    },
    {
      "channel": 5,
      "note": 76,
      "start": 28.0424,
      "duration": 0.0992,
      "velocity": 100,
      "chip": "ym2612"
    },
    {
      "channel": 0,
      "note": 52,
      "start": 28.1913,
      "duration": 0.5998,
      "velocity": 100,
      "chip": "ym2612"
    },
    {
      "channel": 1,
      "note": 73,
      "start": 28.1916,
      "duration": 0.0995,
      "velocity": 100,
      "chip": "ym2612"
    },
    {
      "channel": 2,
      "note": 76,
      "start": 28.1919,
      "duration": 0.0994,
      "velocity": 100,
      "chip": "ym2612"
    },
    {
      "channel": 3,
      "note": 88,
      "start": 28.1922,
      "duration": 0.1496,
      "velocity": 86,
      "chip": "ym2612"
    },
    {
      "channel": 4,
      "note": 93,
      "start": 28.1925,
      "duration": 0.1495,
      "velocity": 86,
      "chip": "ym2612"
    },
    {
      "channel": 5,
      "note": 74,
      "start": 28.1928,
      "duration": 0.099,
      "velocity": 100,
      "chip": "ym2612"
    },
    {
      "channel": 1,
      "note": 71,
      "start": 28.3414,
      "duration": 0.0997,
      "velocity": 100,
      "chip": "ym2612"
    },
    {
      "channel": 2,
      "note": 74,
      "start": 28.3417,
      "duration": 0.0996,
      "velocity": 100,
      "chip": "ym2612"
    },
    {
      "channel": 5,
      "note": 73,
      "start": 28.3424,
      "duration": 0.0992,
      "velocity": 100,
      "chip": "ym2612"
    },
    {
      "channel": 1,
      "note": 69,
      "start": 28.4914,
      "duration": 0.2999,
      "velocity": 100,
      "chip": "ym2612"
    },
    {
      "channel": 2,
      "note": 73,
      "start": 28.4917,
      "duration": 0.3,
      "velocity": 100,
      "chip": "ym2612"
    },
    {
      "channel": 3,
      "note": 81,
      "start": 28.492,
      "duration": 0.1494,
      "velocity": 86,
      "chip": "ym2612"
    },
    {
      "channel": 4,
      "note": 85,
      "start": 28.4924,
      "duration": 0.1493,
      "velocity": 86,
      "chip": "ym2612"
    },
    {
      "channel": 5,
      "note": 71,
      "start": 28.4927,
      "duration": 0.0991,
      "velocity": 100,
      "chip": "ym2612"
    },
    {
      "channel": 5,
      "note": 69,
      "start": 28.642,
      "duration": 0.2998,
      "velocity": 100,
      "chip": "ym2612"
    },
    {
      "channel": 0,
      "note": 57,
      "start": 28.7913,
      "duration": 0.2998,
      "velocity": 100,
      "chip": "ym2612"
    },
    {
      "channel": 1,
      "note": 73,
      "start": 28.7916,
      "duration": 0.1495,
      "velocity": 100,
      "chip": "ym2612"
    },
    {
      "channel": 2,
      "note": 45,
      "start": 28.792,
      "duration": 0.2994,
      "velocity": 100,
      "chip": "ym2612"
    },
    {
      "channel": 3,
      "note": 81,
      "start": 28.7924,
      "duration": 0.1491,
      "velocity": 86,
      "chip": "ym2612"
    },
    {
      "channel": 4,
      "note": 85,
      "start": 28.7927,
      "duration": 0.1489,
      "velocity": 86,
      "chip": "ym2612"
    },
    {
      "channel": 5,
      "note": 73,
      "start": 28.942,
      "duration": 0.1502,
      "velocity": 100,
      "chip": "ym2612"
    },
    {
      "channel": 0,
      "note": 56,
      "start": 29.0912,
      "duration": 0.2998,
      "velocity": 100,
      "chip": "ym2612"
    },
    {
      "channel": 2,
      "note": 44,
      "start": 29.0916,
      "duration": 0.3001,
      "velocity": 100,
      "chip": "ym2612"
    },
    {
      "channel": 3,
      "note": 85,
      "start": 29.0919,
      "duration": 0.1494,
      "velocity": 86,
      "chip": "ym2612"
    },
    {
      "channel": 4,
      "note": 88,
      "start": 29.0922,
      "duration": 0.1493,
      "velocity": 86,
      "chip": "ym2612"
    },
    {
      "channel": 0,
      "note": 57,
      "start": 29.3912,
      "duration": 0.2998,
      "velocity": 100,
      "chip": "ym2612"
    },
    {
      "channel": 1,
      "note": 73,
      "start": 29.3915,
      "duration": 0.8998,
      "velocity": 100,
      "chip": "ym2612"
    },
    {
      "channel": 2,
      "note": 45,
      "start": 29.3918,
      "duration": 0.2996,
      "velocity": 100,
      "chip": "ym2612"
    },
    {
      "channel": 3,
      "note": 85,
      "start": 29.3922,
      "duration": 0.1493,
      "velocity": 86,
      "chip": "ym2612"
    },
    {
      "channel": 4,
      "note": 88,
      "start": 29.3925,
      "duration": 0.1492,
      "velocity": 86,
      "chip": "ym2612"
    },
    {
      "channel": 5,
      "note": 73,
      "start": 29.542,
      "duration": 0.8997,
      "velocity": 100,
      "chip": "ym2612"
    },
    {
      "channel": 0,
      "note": 59,
      "start": 29.6912,
      "duration": 0.2998,
      "velocity": 100,
      "chip": "ym2612"
    },
    {
      "channel": 2,
      "note": 47,
      "start": 29.6917,
      "duration": 0.2997,
      "velocity": 100,
      "chip": "ym2612"
    },
    {
      "channel": 3,
      "note": 88,
      "start": 29.692,
      "duration": 0.1494,
      "velocity": 86,
      "chip": "ym2612"
    },
    {
      "channel": 4,
      "note": 93,
      "start": 29.6923,
      "duration": 0.1494,
      "velocity": 86,
      "chip": "ym2612"
    },
    {
      "channel": 0,
      "note": 61,
      "start": 29.9912,
      "duration": 0.2998,
      "velocity": 100,
      "chip": "ym2612"
    },
    {
      "channel": 2,
      "note": 49,
      "start": 29.9917,
      "duration": 0.2999,
      "velocity": 100,
      "chip": "ym2612"
    },
    {
      "channel": 3,
      "note": 88,
      "start": 29.992,
      "duration": 0.1494,
      "velocity": 86,
      "chip": "ym2612"
    },
    {
      "channel": 4,
      "note": 93,
      "start": 29.9923,
      "duration": 0.1494,
      "velocity": 86,
      "chip": "ym2612"
    },
    {
      "channel": 0,
      "note": 52,
      "start": 30.2913,
      "duration": 0.5998,
      "velocity": 100,
      "chip": "ym2612"
    },
    {
      "channel": 1,
      "note": 76,
      "start": 30.2916,
      "duration": 0.2995,
      "velocity": 100,
      "chip": "ym2612"
    },
    {
      "channel": 2,
      "note": 40,
      "start": 30.2919,
      "duration": 0.5998,
      "velocity": 100,
      "chip": "ym2612"
    },
    {
      "channel": 3,
      "note": 93,
      "start": 30.2922,
      "duration": 0.1493,
      "velocity": 86,
      "chip": "ym2612"
    },
    {
      "channel": 4,
      "note": 97,
      "start": 30.2925,
      "duration": 0.1492,
      "velocity": 86,
      "chip": "ym2612"
    },
    {
      "channel": 5,
      "note": 76,
      "start": 30.442,
      "duration": 0.2997,
      "velocity": 100,
      "chip": "ym2612"
    },
    {
      "channel": 1,
      "note": 81,
      "start": 30.5914,
      "duration": 0.2999,
      "velocity": 100,
      "chip": "ym2612"
    },
    {
      "channel": 3,
      "note": 93,
      "start": 30.5918,
      "duration": 0.1496,
      "velocity": 86,
      "chip": "ym2612"
    },
    {
      "channel": 4,
      "note": 97,
      "start": 30.5922,
      "duration": 0.1495,
      "velocity": 86,
      "chip": "ym2612"
    },
    {
      "channel": 5,
      "note": 81,
      "start": 30.742,
      "duration": 0.2997,
      "velocity": 100,
      "chip": "ym2612"
    },
    {
      "channel": 0,
      "note": 57,
      "start": 30.8913,
      "duration": 0.5998,
      "velocity": 100,
      "chip": "ym2612"
    },
    {
      "channel": 1,
      "note": 73,
      "start": 30.8915,
      "duration": 0.2996,
      "velocity": 100,
      "chip": "ym2612"
    },
    {
      "channel": 2,
      "note": 45,
      "start": 30.8918,
      "duration": 0.5998,
      "velocity": 100,
      "chip": "ym2612"
    },
    {
      "channel": 3,
      "note": 97,
      "start": 30.8922,
      "duration": 0.1493,
      "velocity": 86,
      "chip": "ym2612"
    },
    {
      "channel": 4,
      "note": 100,
      "start": 30.8925,
      "duration": 0.1492,
      "velocity": 86,
      "chip": "ym2612"
    },
    {
      "channel": 5,
      "note": 73,
      "start": 31.042,
      "duration": 0.2997,
      "velocity": 100,
      "chip": "ym2612"
    },
    {
      "channel": 1,
      "note": 76,
      "start": 31.1913,
      "duration": 0.3,
      "velocity": 100,
      "chip": "ym2612"
    },
    {
      "channel": 3,
      "note": 83,
      "start": 31.1917,
      "duration": 0.1497,
      "velocity": 86,
      "chip": "ym2612"
    },
    {
      "channel": 4,
      "note": 86,
      "start": 31.192,
      "duration": 0.1496,
      "velocity": 86,
      "chip": "ym2612"
    },
    {
      "channel": 5,
      "note": 76,
      "start": 31.342,
      "duration": 0.2997,
      "velocity": 100,
      "chip": "ym2612"
    },
    {
      "channel": 0,
      "note": 62,
      "start": 31.4912,
      "duration": 0.2998,
      "velocity": 100,
      "chip": "ym2612"
    },
    {
      "channel": 1,
      "note": 74,
      "start": 31.4915,
      "duration": 0.1496,
      "velocity": 100,
      "chip": "ym2612"
    },
    {
      "channel": 2,
      "note": 50,
      "start": 31.4918,
      "duration": 0.2998,
      "velocity": 100,
      "chip": "ym2612"
    },
    {
      "channel": 3,
      "note": 86,
      "start": 31.4922,
      "duration": 0.1493,
      "velocity": 86,
      "chip": "ym2612"
    },
    {
      "channel": 4,
      "note": 90,
      "start": 31.4925,
      "duration": 0.1492,
      "velocity": 86,
      "chip": "ym2612"
    },
    {
      "channel": 5,
      "note": 74,
      "start": 31.642,
      "duration": 0.1506,
      "velocity": 100,
      "chip": "ym2612"
    },
    {
      "channel": 0,
      "note": 66,
      "start": 31.7912,
      "duration": 0.2998,
      "velocity": 100,
      "chip": "ym2612"
    },
    {
      "channel": 1,
      "note": 74,
      "start": 31.7915,
      "duration": 0.8996,
      "velocity": 100,
      "chip": "ym2612"
    },
    {
      "channel": 2,
      "note": 54,
      "start": 31.7918,
      "duration": 0.2996,
      "velocity": 100,
      "chip": "ym2612"
    },
    {
      "channel": 3,
      "note": 86,
      "start": 31.7922,
      "duration": 0.1493,
      "velocity": 86,
      "chip": "ym2612"
    },
    {
      "channel": 4,
      "note": 90,
      "start": 31.7925,
      "duration": 0.1492,
      "velocity": 86,
      "chip": "ym2612"
    },
    {
      "channel": 5,
      "note": 74,
      "start": 31.942,
      "duration": 0.8997,
      "velocity": 100,
      "chip": "ym2612"
    },
    {
      "channel": 0,
      "note": 54,
      "start": 32.0912,
      "duration": 0.2998,
      "velocity": 100,
      "chip": "ym2612"
    },
    {
      "channel": 2,
      "note": 42,
      "start": 32.0917,
      "duration": 0.2997,
      "velocity": 100,
      "chip": "ym2612"
    },
    {
      "channel": 3,
      "note": 90,
      "start": 32.092,
      "duration": 0.1494,
      "velocity": 86,
      "chip": "ym2612"
    },
    {
      "channel": 4,
      "note": 95,
      "start": 32.0923,
      "duration": 0.1494,
      "velocity": 86,
      "chip": "ym2612"
    },
    {
      "channel": 0,
      "note": 59,
      "start": 32.3913,
      "duration": 0.5998,
      "velocity": 100,
      "chip": "ym2612"
    },
    {
      "channel": 2,
      "note": 47,
      "start": 32.3917,
      "duration": 0.5999,
      "velocity": 100,
      "chip": "ym2612"
    },
    {
      "channel": 3,
      "note": 90,
      "start": 32.392,
      "duration": 0.1494,
      "velocity": 86,
      "chip": "ym2612"
    },
    {
      "channel": 4,
      "note": 95,
      "start": 32.3924,
      "duration": 0.1493,
      "velocity": 86,
      "chip": "ym2612"
    },
    {
      "channel": 1,
      "note": 78,
      "start": 32.6914,
      "duration": 0.2999,
      "velocity": 100,
      "chip": "ym2612"
    },
    {
      "channel": 3,
      "note": 95,
      "start": 32.6918,
      "duration": 0.1496,
      "velocity": 86,
      "chip": "ym2612"
    },
    {
      "channel": 4,
      "note": 98,
      "start": 32.6922,
      "duration": 0.1495,
      "velocity": 86,
      "chip": "ym2612"
    },
    {
      "channel": 5,
      "note": 78,
      "start": 32.842,
      "duration": 0.2997,
      "velocity": 100,
      "chip": "ym2612"
    },
    {
      "channel": 0,
      "note": 47,
      "start": 32.9912,
      "duration": 0.5998,
      "velocity": 100,
      "chip": "ym2612"
    },
    {
      "channel": 1,
      "note": 81,
      "start": 32.9915,
      "duration": 0.2996,
      "velocity": 100,
      "chip": "ym2612"
    },
    {
      "channel": 2,
      "note": 35,
      "start": 32.9918,
      "duration": 0.5998,
      "velocity": 100,
      "chip": "ym2612"
    },
    {
      "channel": 3,
      "note": 95,
      "start": 32.9922,
      "duration": 0.1493,
      "velocity": 86,
      "chip": "ym2612"
    },
    {
      "channel": 4,
      "note": 98,
      "start": 32.9925,
      "duration": 0.1492,
      "velocity": 86,
      "chip": "ym2612"
    },
    {
      "channel": 5,
      "note": 81,
      "start": 33.142,
      "duration": 0.2997,
      "velocity": 100,
      "chip": "ym2612"
    },
    {
      "channel": 1,
      "note": 74,
      "start": 33.2914,
      "duration": 0.2999,
      "velocity": 100,
      "chip": "ym2612"
    },
    {
      "channel": 3,
      "note": 90,
      "start": 33.2918,
      "duration": 0.1496,
      "velocity": 86,
      "chip": "ym2612"
    },
    {
      "channel": 4,
      "note": 95,
      "start": 33.2922,
      "duration": 0.1495,
      "velocity": 86,
      "chip": "ym2612"
    },
    {
      "channel": 5,
      "note": 74,
      "start": 33.442,
      "duration": 0.2997,
      "velocity": 100,
      "chip": "ym2612"
    },
    {
      "channel": 0,
      "note": 52,
      "start": 33.5913,
      "duration": 0.5998,
      "velocity": 100,
      "chip": "ym2612"
    },
    {
      "channel": 1,
      "note": 78,
      "start": 33.5915,
      "duration": 0.2996,
      "velocity": 100,
      "chip": "ym2612"
    },
    {
      "channel": 2,
      "note": 40,
      "start": 33.5918,
      "duration": 0.5996,
      "velocity": 100,
      "chip": "ym2612"
    },
    {
      "channel": 3,
      "note": 83,
      "start": 33.5922,
      "duration": 0.1493,
      "velocity": 86,
      "chip": "ym2612"
    },
    {
      "channel": 4,
      "note": 88,
      "start": 33.5925,
      "duration": 0.1492,
      "velocity": 86,
      "chip": "ym2612"
    },
    {
      "channel": 5,
      "note": 78,
      "start": 33.742,
      "duration": 0.2996,
      "velocity": 100,
      "chip": "ym2612"
    },
    {
      "channel": 1,
      "note": 76,
      "start": 33.8914,
      "duration": 0.0997,
      "velocity": 100,
      "chip": "ym2612"
    },
    {
      "channel": 3,
      "note": 88,
      "start": 33.8918,
      "duration": 0.1495,
      "velocity": 86,
      "chip": "ym2612"
    },
    {
      "channel": 4,
      "note": 92,
      "start": 33.8922,
      "duration": 0.1494,
      "velocity": 86,
      "chip": "ym2612"
    },
    {
      "channel": 5,
      "note": 76,
      "start": 34.0419,
      "duration": 0.0995,
      "velocity": 100,
      "chip": "ym2612"
    },
    {
      "channel": 0,
      "note": 76,
      "start": 34.1913,
      "duration": 0.8998,
      "velocity": 100,
      "chip": "ym2612"
    },
    {
      "channel": 2,
      "note": 64,
      "start": 34.1916,
      "duration": 0.9001,
      "velocity": 100,
      "chip": "ym2612"
    },
    {
      "channel": 3,
      "note": 88,
      "start": 34.1919,
      "duration": 0.1494,
      "velocity": 86,
      "chip": "ym2612"
    },
    {
      "channel": 4,
      "note": 92,
      "start": 34.1922,
      "duration": 0.1493,
      "velocity": 86,
      "chip": "ym2612"
    },
    {
      "channel": 1,
      "note": 47,
      "start": 34.4914,
      "duration": 0.2997,
      "velocity": 100,
      "chip": "ym2612"
    },
    {
      "channel": 3,
      "note": 92,
      "start": 34.4918,
      "duration": 0.1496,
      "velocity": 86,
      "chip": "ym2612"
    },
    {
      "channel": 4,
      "note": 95,
      "start": 34.4922,
      "duration": 0.1495,
      "velocity": 86,
      "chip": "ym2612"
    },
    {
      "channel": 5,
      "note": 47,
      "start": 34.642,
      "duration": 0.2997,
      "velocity": 100,
      "chip": "ym2612"
    },
    {
      "channel": 1,
      "note": 52,
      "start": 34.7914,
      "duration": 0.2999,
      "velocity": 100,
      "chip": "ym2612"
    },
    {
      "channel": 3,
      "note": 92,
      "start": 34.7918,
      "duration": 0.1496,
      "velocity": 86,
      "chip": "ym2612"
    },
    {
      "channel": 4,
      "note": 95,
      "start": 34.7922,
      "duration": 0.1495,
      "velocity": 86,
      "chip": "ym2612"
    },
    {
      "channel": 5,
      "note": 52,
      "start": 34.942,
      "duration": 0.2997,
      "velocity": 100,
      "chip": "ym2612"
    },
    {
      "channel": 0,
      "note": 59,
      "start": 35.0913,
      "duration": 0.2998,
      "velocity": 100,
      "chip": "ym2612"
    },
    {
      "channel": 1,
      "note": 76,
      "start": 35.0915,
      "duration": 0.2998,
      "velocity": 100,
      "chip": "ym2612"
    },
    {
      "channel": 2,
      "note": 47,
      "start": 35.0918,
      "duration": 0.2998,
      "velocity": 100,
      "chip": "ym2612"
    },
    {
      "channel": 3,
      "note": 95,
      "start": 35.0922,
      "duration": 0.1493,
      "velocity": 86,
      "chip": "ym2612"
    },
    {
      "channel": 4,
      "note": 100,
      "start": 35.0925,
      "duration": 0.1492,
      "velocity": 86,
      "chip": "ym2612"
    },
    {
      "channel": 5,
      "note": 76,
      "start": 35.242,
      "duration": 0.2997,
      "velocity": 100,
      "chip": "ym2612"
    },
    {
      "channel": 0,
      "note": 56,
      "start": 35.3912,
      "duration": 0.2998,
      "velocity": 100,
      "chip": "ym2612"
    },
    {
      "channel": 1,
      "note": 80,
      "start": 35.3915,
      "duration": 0.2998,
      "velocity": 100,
      "chip": "ym2612"
    },
    {
      "channel": 2,
      "note": 44,
      "start": 35.3918,
      "duration": 0.2998,
      "velocity": 100,
      "chip": "ym2612"
    },
    {
      "channel": 3,
      "note": 95,
      "start": 35.3922,
      "duration": 0.1493,
      "velocity": 86,
      "chip": "ym2612"
    },
    {
      "channel": 4,
      "note": 100,
      "start": 35.3925,
      "duration": 0.1492,
      "velocity": 86,
      "chip": "ym2612"
    },
    {
      "channel": 5,
      "note": 80,
      "start": 35.542,
      "duration": 0.2997,
      "velocity": 100,
      "chip": "ym2612"
    },
    {
      "channel": 0,
      "note": 52,
      "start": 35.6912,
      "duration": 0.2998,
      "velocity": 100,
      "chip": "ym2612"
    },
    {
      "channel": 1,
      "note": 83,
      "start": 35.6915,
      "duration": 0.2998,
      "velocity": 100,
      "chip": "ym2612"
    },
    {
      "channel": 2,
      "note": 40,
      "start": 35.6918,
      "duration": 0.2998,
      "velocity": 100,
      "chip": "ym2612"
    },
    {
      "channel": 3,
      "note": 92,
      "start": 35.6922,
      "duration": 0.1493,
      "velocity": 86,
      "chip": "ym2612"
    },
    {
      "channel": 4,
      "note": 95,
      "start": 35.6925,
      "duration": 0.1492,
      "velocity": 86,
      "chip": "ym2612"
    },
    {
      "channel": 5,
      "note": 83,
      "start": 35.842,
      "duration": 0.2996,
      "velocity": 100,
      "chip": "ym2612"
    },
    {
      "channel": 0,
      "note": 61,
      "start": 35.9912,
      "duration": 0.2998,
      "velocity": 100,
      "chip": "ym2612"
    },
    {
      "channel": 1,
      "note": 85,
      "start": 35.9915,
      "duration": 0.0996,
      "velocity": 100,
      "chip": "ym2612"
    },
    {
      "channel": 2,
      "note": 49,
      "start": 35.9918,
      "duration": 0.2996,
      "velocity": 100,
      "chip": "ym2612"
    },
    {
      "channel": 3,
      "note": 88,
      "start": 35.9922,
      "duration": 0.1491,
      "velocity": 86,
      "chip": "ym2612"
    },
    {
      "channel": 4,
      "note": 93,
      "start": 35.9926,
      "duration": 0.1489,
      "velocity": 86,
      "chip": "ym2612"
    },
    {
      "channel": 5,
      "note": 85,
      "start": 36.1419,
      "duration": 0.0995,
      "velocity": 100,
      "chip": "ym2612"
    },
    {
      "channel": 0,
      "note": 52,
      "start": 36.2912,
      "duration": 0.2998,
      "velocity": 100,
      "chip": "ym2612"
    },
    {
      "channel": 2,
      "note": 40,
      "start": 36.2916,
      "duration": 0.3001,
      "velocity": 100,
      "chip": "ym2612"
    },
    {
      "channel": 3,
      "note": 81,
      "start": 36.2919,
      "duration": 0.1494,
      "velocity": 86,
      "chip": "ym2612"
    },
    {
      "channel": 4,
      "note": 85,
      "start": 36.2922,
      "duration": 0.1493,
      "velocity": 86,
      "chip": "ym2612"
    },
    {
      "channel": 0,
      "note": 57,
      "start": 36.5913,
      "duration": 1.1998,
      "velocity": 100,
      "chip": "ym2612"
    },
    {
      "channel": 1,
      "note": 81,
      "start": 36.5916,
      "duration": 1.1996,
      "velocity": 100,
      "chip": "ym2612"
    },
    {
      "channel": 2,
      "note": 45,
      "start": 36.5919,
      "duration": 1.1994,
      "velocity": 100,
      "chip": "ym2612"
    },
    {
      "channel": 3,
      "note": 93,
      "start": 36.5922,
      "duration": 0.1492,
      "velocity": 86,
      "chip": "ym2612"
    },
    {
      "channel": 4,
      "note": 97,
      "start": 36.5925,
      "duration": 0.1492,
      "velocity": 86,
      "chip": "ym2612"
    },
    {
      "channel": 5,
      "note": 81,
      "start": 36.742,
      "duration": 1.1994,
      "velocity": 100,
      "chip": "ym2612"
    },
    {
      "channel": 3,
      "note": 85,
      "start": 36.8917,
      "duration": 0.1497,
      "velocity": 86,
      "chip": "ym2612"
    },
    {
      "channel": 4,
      "note": 88,
      "start": 36.892,
      "duration": 0.1497,
      "velocity": 86,
      "chip": "ym2612"
    },
    {
      "channel": 3,
      "note": 97,
      "start": 37.1917,
      "duration": 0.1497,
      "velocity": 86,
      "chip": "ym2612"
    },
    {
      "channel": 4,
      "note": 100,
      "start": 37.192,
      "duration": 0.1496,
      "velocity": 86,
      "chip": "ym2612"
    },
    {
      "channel": 3,
      "note": 88,
      "start": 37.4917,
      "duration": 0.1497,
      "velocity": 86,
      "chip": "ym2612"
    },
    {
      "channel": 4,
      "note": 93,
      "start": 37.492,
      "duration": 0.1497,
      "velocity": 86,
      "chip": "ym2612"
    },
    {
      "channel": 3,
      "note": 100,
      "start": 37.7917,
      "duration": 0.1494,
      "velocity": 86,
      "chip": "ym2612"
    },
    {
      "channel": 4,
      "note": 105,
      "start": 37.792,
      "duration": 0.1492,
      "velocity": 86,
      "chip": "ym2612"
    },
    {
      "channel": 3,
      "note": 93,
      "start": 38.0913,
      "duration": 0.1498,
      "velocity": 86,
      "chip": "ym2612"
    },
    {
      "channel": 4,
      "note": 97,
      "start": 38.0917,
      "duration": 0.1496,
      "velocity": 86,
      "chip": "ym2612"
    },
    {
      "channel": 0,
      "note": 57,
      "start": 38.3913,
      "duration": 0.2931,
      "velocity": 100,
      "chip": "ym2612"
    },
    {
      "channel": 1,
      "note": 73,
      "start": 38.3916,
      "duration": 0.1495,
      "velocity": 100,
      "chip": "ym2612"
    },
    {
      "channel": 2,
      "note": 45,
      "start": 38.3923,
      "duration": 0.2921,
      "velocity": 100,
      "chip": "ym2612"
    },
    {
      "channel": 5,
      "note": 73,
      "start": 38.5418,
      "duration": 0.1425,
      "velocity": 100,
      "chip": "ym2612"
    }
  ]
}