{
  "track_name": "04 - -IV- THE BIG SWORDS (Ending)",
  "duration_sec": 88.488,
  "sample_rate": 44100,
  "note_count": 648,
  "unique_pitches": 41,
  "pitch_range": 52,
  "avg_note_duration": 0.3903,
  "reconstruction_stats": {
    "notes_reconstructed": 648,
    "keyon_events": 648,
    "keyoff_events": 648,
    "orphan_keyons": 0,
    "unique_pitches": 41,
    "pitch_range": 52,
    "avg_duration_sec": 0.3903
  },
  "metadata": {
    "source": "R\\Rastan Saga II\\04 - -IV- THE BIG SWORDS (Ending).vgz"
  },
  "notes": [
    {
      "channel": 1,
      "note": 82,
      "start": 0.2571,
      "duration": 20.7493,
      "velocity": 31,
      "chip": "ym2612"
    },
    {
      "channel": 2,
      "note": 30,
      "start": 0.2636,
      "duration": 0.1227,
      "velocity": 119,
      "chip": "ym2612"
    },
    {
      "channel": 2,
      "note": 30,
      "start": 1.2185,
      "duration": 0.1411,
      "velocity": 119,
      "chip": "ym2612"
    },
    {
      "channel": 2,
      "note": 30,
      "start": 1.3807,
      "duration": 0.141,
      "velocity": 119,
      "chip": "ym2612"
    },
    {
      "channel": 0,
      "note": 70,
      "start": 2.5129,
      "duration": 0.1616,
      "velocity": 111,
      "chip": "ym2612"
    },
    {
      "channel": 0,
      "note": 77,
      "start": 2.675,
      "duration": 1.7837,
      "velocity": 111,
      "chip": "ym2612"
    },
    {
      "channel": 2,
      "note": 30,
      "start": 2.8425,
      "duration": 0.1393,
      "velocity": 119,
      "chip": "ym2612"
    },
    {
      "channel": 2,
      "note": 30,
      "start": 3.8139,
      "duration": 0.1411,
      "velocity": 119,
      "chip": "ym2612"
    },
    {
      "channel": 2,
      "note": 30,
      "start": 3.9761,
      "duration": 0.141,
      "velocity": 119,
      "chip": "ym2612"
    },
    {
      "channel": 0,
      "note": 75,
      "start": 4.4593,
      "duration": 0.3239,
      "velocity": 111,
      "chip": "ym2612"
    },
    {
      "channel": 0,
      "note": 73,
      "start": 4.7837,
      "duration": 0.3238,
      "velocity": 111,
      "chip": "ym2612"
    },
    {
      "channel": 0,
      "note": 70,
      "start": 5.1081,
      "duration": 0.1617,
      "velocity": 111,
      "chip": "ym2612"
    },
    {
      "channel": 0,
      "note": 68,
      "start": 5.2703,
      "duration": 2.108,
      "velocity": 111,
      "chip": "ym2612"
    },
    {
      "channel": 2,
      "note": 30,
      "start": 5.4376,
      "duration": 0.1394,
      "velocity": 119,
      "chip": "ym2612"
    },
    {
      "channel": 2,
      "note": 30,
      "start": 6.4092,
      "duration": 0.141,
      "velocity": 119,
      "chip": "ym2612"
    },
    {
      "channel": 2,
      "note": 30,
      "start": 6.5713,
      "duration": 0.1411,
      "velocity": 119,
      "chip": "ym2612"
    },
    {
      "channel": 0,
      "note": 70,
      "start": 7.7034,
      "duration": 0.1616,
      "velocity": 111,
      "chip": "ym2612"
    },
    {
      "channel": 0,
      "note": 77,
      "start": 7.8655,
      "duration": 2.108,
      "velocity": 111,
      "chip": "ym2612"
    },
    {
      "channel": 2,
      "note": 30,
      "start": 8.0329,
      "duration": 0.1394,
      "velocity": 119,
      "chip": "ym2612"
    },
    {
      "channel": 2,
      "note": 30,
      "start": 9.0044,
      "duration": 0.141,
      "velocity": 119,
      "chip": "ym2612"
    },
    {
      "channel": 2,
      "note": 30,
      "start": 9.1666,
      "duration": 0.1412,
      "velocity": 119,
      "chip": "ym2612"
    },
    {
      "channel": 0,
      "note": 75,
      "start": 9.9741,
      "duration": 0.2157,
      "velocity": 111,
      "chip": "ym2612"
    },
    {
      "channel": 0,
      "note": 77,
      "start": 10.1904,
      "duration": 0.2158,
      "velocity": 111,
      "chip": "ym2612"
    },
    {
      "channel": 0,
      "note": 78,
      "start": 10.4067,
      "duration": 0.2182,
      "velocity": 111,
      "chip": "ym2612"
    },
    {
      "channel": 0,
      "note": 80,
      "start": 10.6255,
      "duration": 0.3212,
      "velocity": 111,
      "chip": "ym2612"
    },
    {
      "channel": 2,
      "note": 30,
      "start": 10.6281,
      "duration": 0.1394,
      "velocity": 119,
      "chip": "ym2612"
    },
    {
      "channel": 0,
      "note": 82,
      "start": 10.9473,
      "duration": 0.1617,
      "velocity": 111,
      "chip": "ym2612"
    },
    {
      "channel": 0,
      "note": 77,
      "start": 11.1096,
      "duration": 1.351,
      "velocity": 111,
      "chip": "ym2612"
    },
    {
      "channel": 2,
      "note": 30,
      "start": 11.5996,
      "duration": 0.1411,
      "velocity": 119,
      "chip": "ym2612"
    },
    {
      "channel": 2,
      "note": 30,
      "start": 11.7618,
      "duration": 0.141,
      "velocity": 119,
      "chip": "ym2612"
    },
    {
      "channel": 0,
      "note": 71,
      "start": 12.4612,
      "duration": 0.1076,
      "velocity": 111,
      "chip": "ym2612"
    },
    {
      "channel": 0,
      "note": 73,
      "start": 12.5693,
      "duration": 0.6509,
      "velocity": 111,
      "chip": "ym2612"
    },
    {
      "channel": 0,
      "note": 80,
      "start": 13.2208,
      "duration": 1.6189,
      "velocity": 111,
      "chip": "ym2612"
    },
    {
      "channel": 2,
      "note": 30,
      "start": 13.2234,
      "duration": 0.1393,
      "velocity": 119,
      "chip": "ym2612"
    },
    {
      "channel": 2,
      "note": 30,
      "start": 14.1948,
      "duration": 0.1411,
      "velocity": 119,
      "chip": "ym2612"
    },
    {
      "channel": 2,
      "note": 30,
      "start": 14.3571,
      "duration": 0.1411,
      "velocity": 119,
      "chip": "ym2612"
    },
    {
      "channel": 0,
      "note": 78,
      "start": 14.8402,
      "duration": 0.3238,
      "velocity": 111,
      "chip": "ym2612"
    },
    {
      "channel": 0,
      "note": 77,
      "start": 15.1646,
      "duration": 0.3239,
      "velocity": 111,
      "chip": "ym2612"
    },
    {
      "channel": 0,
      "note": 73,
      "start": 15.4891,
      "duration": 0.1616,
      "velocity": 111,
      "chip": "ym2612"
    },
    {
      "channel": 0,
      "note": 70,
      "start": 15.6513,
      "duration": 1.7837,
      "velocity": 111,
      "chip": "ym2612"
    },
    {
      "channel": 2,
      "note": 30,
      "start": 15.8186,
      "duration": 0.1394,
      "velocity": 119,
      "chip": "ym2612"
    },
    {
      "channel": 2,
      "note": 30,
      "start": 16.7901,
      "duration": 0.1411,
      "velocity": 119,
      "chip": "ym2612"
    },
    {
      "channel": 2,
      "note": 30,
      "start": 16.9523,
      "duration": 0.1411,
      "velocity": 119,
      "chip": "ym2612"
    },
    {
      "channel": 0,
      "note": 73,
      "start": 17.4355,
      "duration": 0.3238,
      "velocity": 111,
      "chip": "ym2612"
    },
    {
      "channel": 0,
      "note": 75,
      "start": 17.7598,
      "duration": 0.3239,
      "velocity": 111,
      "chip": "ym2612"
    },
    {
      "channel": 0,
      "note": 77,
      "start": 18.0843,
      "duration": 0.1616,
      "velocity": 111,
      "chip": "ym2612"
    },
    {
      "channel": 0,
      "note": 75,
      "start": 18.2464,
      "duration": 2.7596,
      "velocity": 111,
      "chip": "ym2612"
    },
    {
      "channel": 2,
      "note": 30,
      "start": 18.4139,
      "duration": 0.1393,
      "velocity": 119,
      "chip": "ym2612"
    },
    {
      "channel": 2,
      "note": 30,
      "start": 19.3853,
      "duration": 0.1411,
      "velocity": 119,
      "chip": "ym2612"
    },
    {
      "channel": 2,
      "note": 30,
      "start": 19.5474,
      "duration": 0.1412,
      "velocity": 119,
      "chip": "ym2612"
    },
    {
      "channel": 1,
      "note": 82,
      "start": 21.007,
      "duration": 20.7616,
      "velocity": 31,
      "chip": "ym2612"
    },
    {
      "channel": 2,
      "note": 30,
      "start": 21.0089,
      "duration": 0.1393,
      "velocity": 119,
      "chip": "ym2612"
    },
    {
      "channel": 2,
      "note": 75,
      "start": 21.656,
      "duration": 0.177,
      "velocity": 127,
      "chip": "ym2612"
    },
    {
      "channel": 2,
      "note": 30,
      "start": 21.9803,
      "duration": 0.1411,
      "velocity": 119,
      "chip": "ym2612"
    },
    {
      "channel": 2,
      "note": 30,
      "start": 22.1425,
      "duration": 0.1411,
      "velocity": 119,
      "chip": "ym2612"
    },
    {
      "channel": 2,
      "note": 75,
      "start": 22.9539,
      "duration": 0.1768,
      "velocity": 127,
      "chip": "ym2612"
    },
    {
      "channel": 0,
      "note": 70,
      "start": 23.2747,
      "duration": 0.1617,
      "velocity": 111,
      "chip": "ym2612"
    },
    {
      "channel": 0,
      "note": 77,
      "start": 23.437,
      "duration": 1.7836,
      "velocity": 111,
      "chip": "ym2612"
    },
    {
      "channel": 3,
      "note": 51,
      "start": 23.603,
      "duration": 0.3205,
      "velocity": 95,
      "chip": "ym2612"
    },
    {
      "channel": 2,
      "note": 30,
      "start": 23.6046,
      "duration": 0.1393,
      "velocity": 119,
      "chip": "ym2612"
    },
    {
      "channel": 3,
      "note": 54,
      "start": 23.9241,
      "duration": 0.3264,
      "velocity": 95,
      "chip": "ym2612"
    },
    {
      "channel": 3,
      "note": 61,
      "start": 24.2511,
      "duration": 1.9467,
      "velocity": 95,
      "chip": "ym2612"
    },
    {
      "channel": 2,
      "note": 75,
      "start": 24.2522,
      "duration": 0.1766,
      "velocity": 127,
      "chip": "ym2612"
    },
    {
      "channel": 2,
      "note": 30,
      "start": 24.5761,
      "duration": 0.141,
      "velocity": 119,
      "chip": "ym2612"
    },
    {
      "channel": 2,
      "note": 30,
      "start": 24.7382,
      "duration": 0.1411,
      "velocity": 119,
      "chip": "ym2612"
    },
    {
      "channel": 0,
      "note": 75,
      "start": 25.2211,
      "duration": 0.3264,
      "velocity": 111,
      "chip": "ym2612"
    },
    {
      "channel": 0,
      "note": 73,
      "start": 25.5481,
      "duration": 0.3213,
      "velocity": 111,
      "chip": "ym2612"
    },
    {
      "channel": 2,
      "note": 75,
      "start": 25.5498,
      "duration": 0.1765,
      "velocity": 127,
      "chip": "ym2612"
    },
    {
      "channel": 0,
      "note": 70,
      "start": 25.87,
      "duration": 0.1617,
      "velocity": 111,
      "chip": "ym2612"
    },
    {
      "channel": 0,
      "note": 68,
      "start": 26.0322,
      "duration": 2.1105,
      "velocity": 111,
      "chip": "ym2612"
    },
    {
      "channel": 3,
      "note": 47,
      "start": 26.1983,
      "duration": 0.3209,
      "velocity": 95,
      "chip": "ym2612"
    },
    {
      "channel": 2,
      "note": 30,
      "start": 26.1998,
      "duration": 0.1393,
      "velocity": 119,
      "chip": "ym2612"
    },
    {
      "channel": 3,
      "note": 54,
      "start": 26.5198,
      "duration": 0.326,
      "velocity": 95,
      "chip": "ym2612"
    },
    {
      "channel": 3,
      "note": 58,
      "start": 26.8463,
      "duration": 1.9466,
      "velocity": 95,
      "chip": "ym2612"
    },
    {
      "channel": 2,
      "note": 75,
      "start": 26.8474,
      "duration": 0.1766,
      "velocity": 127,
      "chip": "ym2612"
    },
    {
      "channel": 2,
      "note": 30,
      "start": 27.1713,
      "duration": 0.1411,
      "velocity": 119,
      "chip": "ym2612"
    },
    {
      "channel": 2,
      "note": 30,
      "start": 27.3334,
      "duration": 0.1415,
      "velocity": 119,
      "chip": "ym2612"
    },
    {
      "channel": 2,
      "note": 75,
      "start": 28.1446,
      "duration": 0.1768,
      "velocity": 127,
      "chip": "ym2612"
    },
    {
      "channel": 0,
      "note": 70,
      "start": 28.4652,
      "duration": 0.1616,
      "velocity": 111,
      "chip": "ym2612"
    },
    {
      "channel": 0,
      "note": 77,
      "start": 28.6274,
      "duration": 2.1105,
      "velocity": 111,
      "chip": "ym2612"
    },
    {
      "channel": 3,
      "note": 51,
      "start": 28.7934,
      "duration": 0.3206,
      "velocity": 95,
      "chip": "ym2612"
    },
    {
      "channel": 2,
      "note": 30,
      "start": 28.795,
      "duration": 0.1394,
      "velocity": 119,
      "chip": "ym2612"
    },
    {
      "channel": 3,
      "note": 54,
      "start": 29.1146,
      "duration": 0.3263,
      "velocity": 95,
      "chip": "ym2612"
    },
    {
      "channel": 3,
      "note": 61,
      "start": 29.4415,
      "duration": 1.9468,
      "velocity": 95,
      "chip": "ym2612"
    },
    {
      "channel": 2,
      "note": 75,
      "start": 29.4426,
      "duration": 0.1766,
      "velocity": 127,
      "chip": "ym2612"
    },
    {
      "channel": 2,
      "note": 30,
      "start": 29.7665,
      "duration": 0.1411,
      "velocity": 119,
      "chip": "ym2612"
    },
    {
      "channel": 2,
      "note": 30,
      "start": 29.9287,
      "duration": 0.1412,
      "velocity": 119,
      "chip": "ym2612"
    },
    {
      "channel": 0,
      "note": 75,
      "start": 30.7385,
      "duration": 0.2132,
      "velocity": 111,
      "chip": "ym2612"
    },
    {
      "channel": 2,
      "note": 75,
      "start": 30.7402,
      "duration": 0.1766,
      "velocity": 127,
      "chip": "ym2612"
    },
    {
      "channel": 0,
      "note": 77,
      "start": 30.9523,
      "duration": 0.2156,
      "velocity": 111,
      "chip": "ym2612"
    },
    {
      "channel": 0,
      "note": 78,
      "start": 31.1685,
      "duration": 0.2184,
      "velocity": 111,
      "chip": "ym2612"
    },
    {
      "channel": 0,
      "note": 80,
      "start": 31.3875,
      "duration": 0.3212,
      "velocity": 111,
      "chip": "ym2612"
    },
    {
      "channel": 3,
      "note": 47,
      "start": 31.3888,
      "duration": 0.3209,
      "velocity": 95,
      "chip": "ym2612"
    },
    {
      "channel": 2,
      "note": 30,
      "start": 31.3903,
      "duration": 0.1392,
      "velocity": 119,
      "chip": "ym2612"
    },
    {
      "channel": 0,
      "note": 82,
      "start": 31.7093,
      "duration": 0.1616,
      "velocity": 111,
      "chip": "ym2612"
    },
    {
      "channel": 3,
      "note": 54,
      "start": 31.7102,
      "duration": 0.3259,
      "velocity": 95,
      "chip": "ym2612"
    },
    {
      "channel": 0,
      "note": 77,
      "start": 31.8715,
      "duration": 1.3511,
      "velocity": 111,
      "chip": "ym2612"
    },
    {
      "channel": 3,
      "note": 58,
      "start": 32.0368,
      "duration": 1.9467,
      "velocity": 95,
      "chip": "ym2612"
    },
    {
      "channel": 2,
      "note": 75,
      "start": 32.0378,
      "duration": 0.1766,
      "velocity": 127,
      "chip": "ym2612"
    },
    {
      "channel": 2,
      "note": 30,
      "start": 32.3617,
      "duration": 0.1411,
      "velocity": 119,
      "chip": "ym2612"
    },
    {
      "channel": 2,
      "note": 30,
      "start": 32.5239,
      "duration": 0.1411,
      "velocity": 119,
      "chip": "ym2612"
    },
    {
      "channel": 0,
      "note": 71,
      "start": 33.2231,
      "duration": 0.1101,
      "velocity": 111,
      "chip": "ym2612"
    },
    {
      "channel": 0,
      "note": 73,
      "start": 33.3338,
      "duration": 0.6483,
      "velocity": 111,
      "chip": "ym2612"
    },
    {
      "channel": 2,
      "note": 75,
      "start": 33.3355,
      "duration": 0.1765,
      "velocity": 127,
      "chip": "ym2612"
    },
    {
      "channel": 0,
      "note": 80,
      "start": 33.9827,
      "duration": 1.6188,
      "velocity": 111,
      "chip": "ym2612"
    },
    {
      "channel": 3,
      "note": 49,
      "start": 33.984,
      "duration": 0.3205,
      "velocity": 95,
      "chip": "ym2612"
    },
    {
      "channel": 2,
      "note": 30,
      "start": 33.9856,
      "duration": 0.1393,
      "velocity": 119,
      "chip": "ym2612"
    },
    {
      "channel": 3,
      "note": 56,
      "start": 34.3051,
      "duration": 0.3263,
      "velocity": 95,
      "chip": "ym2612"
    },
    {
      "channel": 3,
      "note": 58,
      "start": 34.632,
      "duration": 1.9466,
      "velocity": 95,
      "chip": "ym2612"
    },
    {
      "channel": 2,
      "note": 75,
      "start": 34.6331,
      "duration": 0.1765,
      "velocity": 127,
      "chip": "ym2612"
    },
    {
      "channel": 2,
      "note": 30,
      "start": 34.957,
      "duration": 0.141,
      "velocity": 119,
      "chip": "ym2612"
    },
    {
      "channel": 2,
      "note": 30,
      "start": 35.1195,
      "duration": 0.1408,
      "velocity": 119,
      "chip": "ym2612"
    },
    {
      "channel": 0,
      "note": 78,
      "start": 35.602,
      "duration": 0.3263,
      "velocity": 111,
      "chip": "ym2612"
    },
    {
      "channel": 0,
      "note": 77,
      "start": 35.9289,
      "duration": 0.3214,
      "velocity": 111,
      "chip": "ym2612"
    },
    {
      "channel": 2,
      "note": 75,
      "start": 35.9307,
      "duration": 0.1766,
      "velocity": 127,
      "chip": "ym2612"
    },
    {
      "channel": 0,
      "note": 73,
      "start": 36.2509,
      "duration": 0.1616,
      "velocity": 111,
      "chip": "ym2612"
    },
    {
      "channel": 0,
      "note": 70,
      "start": 36.4131,
      "duration": 1.7837,
      "velocity": 111,
      "chip": "ym2612"
    },
    {
      "channel": 3,
      "note": 47,
      "start": 36.5792,
      "duration": 0.3206,
      "velocity": 95,
      "chip": "ym2612"
    },
    {
      "channel": 2,
      "note": 30,
      "start": 36.5807,
      "duration": 0.1393,
      "velocity": 119,
      "chip": "ym2612"
    },
    {
      "channel": 3,
      "note": 54,
      "start": 36.9003,
      "duration": 0.3263,
      "velocity": 95,
      "chip": "ym2612"
    },
    {
      "channel": 3,
      "note": 58,
      "start": 37.2272,
      "duration": 1.9466,
      "velocity": 95,
      "chip": "ym2612"
    },
    {
      "channel": 2,
      "note": 75,
      "start": 37.2283,
      "duration": 0.1766,
      "velocity": 127,
      "chip": "ym2612"
    },
    {
      "channel": 2,
      "note": 30,
      "start": 37.5522,
      "duration": 0.1411,
      "velocity": 119,
      "chip": "ym2612"
    },
    {
      "channel": 2,
      "note": 30,
      "start": 37.7144,
      "duration": 0.141,
      "velocity": 119,
      "chip": "ym2612"
    },
    {
      "channel": 0,
      "note": 73,
      "start": 38.1973,
      "duration": 0.3263,
      "velocity": 111,
      "chip": "ym2612"
    },
    {
      "channel": 0,
      "note": 75,
      "start": 38.5242,
      "duration": 0.3214,
      "velocity": 111,
      "chip": "ym2612"
    },
    {
      "channel": 2,
      "note": 75,
      "start": 38.5259,
      "duration": 0.1766,
      "velocity": 127,
      "chip": "ym2612"
    },
    {
      "channel": 0,
      "note": 77,
      "start": 38.8461,
      "duration": 0.1616,
      "velocity": 111,
      "chip": "ym2612"
    },
    {
      "channel": 0,
      "note": 75,
      "start": 39.0083,
      "duration": 2.7595,
      "velocity": 111,
      "chip": "ym2612"
    },
    {
      "channel": 3,
      "note": 48,
      "start": 39.1744,
      "duration": 0.3206,
      "velocity": 95,
      "chip": "ym2612"
    },
    {
      "channel": 2,
      "note": 30,
      "start": 39.1759,
      "duration": 0.1393,
      "velocity": 119,
      "chip": "ym2612"
    },
    {
      "channel": 3,
      "note": 55,
      "start": 39.4956,
      "duration": 0.3263,
      "velocity": 95,
      "chip": "ym2612"
    },
    {
      "channel": 3,
      "note": 58,
      "start": 39.8225,
      "duration": 1.9469,
      "velocity": 95,
      "chip": "ym2612"
    },
    {
      "channel": 2,
      "note": 75,
      "start": 39.8236,
      "duration": 0.1766,
      "velocity": 127,
      "chip": "ym2612"
    },
    {
      "channel": 2,
      "note": 30,
      "start": 40.1475,
      "duration": 0.141,
      "velocity": 119,
      "chip": "ym2612"
    },
    {
      "channel": 2,
      "note": 30,
      "start": 40.3096,
      "duration": 0.1411,
      "velocity": 119,
      "chip": "ym2612"
    },
    {
      "channel": 2,
      "note": 75,
      "start": 41.1208,
      "duration": 0.1769,
      "velocity": 127,
      "chip": "ym2612"
    },
    {
      "channel": 0,
      "note": 78,
      "start": 41.7684,
      "duration": 0.3236,
      "velocity": 111,
      "chip": "ym2612"
    },
    {
      "channel": 1,
      "note": 80,
      "start": 41.7692,
      "duration": 0.3235,
      "velocity": 31,
      "chip": "ym2612"
    },
    {
      "channel": 3,
      "note": 59,
      "start": 41.7699,
      "duration": 0.3235,
      "velocity": 95,
      "chip": "ym2612"
    },
    {
      "channel": 4,
      "note": 39,
      "start": 41.7707,
      "duration": 0.3235,
      "velocity": 97,
      "chip": "ym2612"
    },
    {
      "channel": 2,
      "note": 30,
      "start": 41.7718,
      "duration": 0.139,
      "velocity": 119,
      "chip": "ym2612"
    },
    {
      "channel": 0,
      "note": 78,
      "start": 42.0926,
      "duration": 0.3239,
      "velocity": 111,
      "chip": "ym2612"
    },
    {
      "channel": 1,
      "note": 80,
      "start": 42.0933,
      "duration": 0.3239,
      "velocity": 31,
      "chip": "ym2612"
    },
    {
      "channel": 3,
      "note": 59,
      "start": 42.094,
      "duration": 0.3239,
      "velocity": 95,
      "chip": "ym2612"
    },
    {
      "channel": 4,
      "note": 39,
      "start": 42.0947,
      "duration": 0.324,
      "velocity": 97,
      "chip": "ym2612"
    },
    {
      "channel": 2,
      "note": 30,
      "start": 42.0955,
      "duration": 0.1396,
      "velocity": 119,
      "chip": "ym2612"
    },
    {
      "channel": 0,
      "note": 78,
      "start": 42.4171,
      "duration": 0.3212,
      "velocity": 111,
      "chip": "ym2612"
    },
    {
      "channel": 1,
      "note": 80,
      "start": 42.4178,
      "duration": 0.3208,
      "velocity": 31,
      "chip": "ym2612"
    },
    {
      "channel": 3,
      "note": 59,
      "start": 42.4185,
      "duration": 0.3204,
      "velocity": 95,
      "chip": "ym2612"
    },
    {
      "channel": 4,
      "note": 39,
      "start": 42.4192,
      "duration": 0.32,
      "velocity": 97,
      "chip": "ym2612"
    },
    {
      "channel": 2,
      "note": 30,
      "start": 42.42,
      "duration": 0.1396,
      "velocity": 119,
      "chip": "ym2612"
    },
    {
      "channel": 0,
      "note": 70,
      "start": 43.7124,
      "duration": 0.6481,
      "velocity": 111,
      "chip": "ym2612"
    },
    {
      "channel": 2,
      "note": 75,
      "start": 44.0399,
      "duration": 0.1583,
      "velocity": 127,
      "chip": "ym2612"
    },
    {
      "channel": 2,
      "note": 75,
      "start": 44.2022,
      "duration": 0.1774,
      "velocity": 127,
      "chip": "ym2612"
    },
    {
      "channel": 0,
      "note": 77,
      "start": 44.3611,
      "duration": 1.297,
      "velocity": 111,
      "chip": "ym2612"
    },
    {
      "channel": 3,
      "note": 61,
      "start": 44.3621,
      "duration": 0.1634,
      "velocity": 95,
      "chip": "ym2612"
    },
    {
      "channel": 4,
      "note": 39,
      "start": 44.3628,
      "duration": 0.1634,
      "velocity": 97,
      "chip": "ym2612"
    },
    {
      "channel": 3,
      "note": 61,
      "start": 44.526,
      "duration": 0.1616,
      "velocity": 95,
      "chip": "ym2612"
    },
    {
      "channel": 4,
      "note": 39,
      "start": 44.5267,
      "duration": 0.1617,
      "velocity": 97,
      "chip": "ym2612"
    },
    {
      "channel": 2,
      "note": 30,
      "start": 44.5276,
      "duration": 0.1407,
      "velocity": 119,
      "chip": "ym2612"
    },
    {
      "channel": 3,
      "note": 61,
      "start": 44.6882,
      "duration": 0.3239,
      "velocity": 95,
      "chip": "ym2612"
    },
    {
      "channel": 4,
      "note": 39,
      "start": 44.6889,
      "duration": 0.3239,
      "velocity": 97,
      "chip": "ym2612"
    },
    {
      "channel": 2,
      "note": 30,
      "start": 44.6898,
      "duration": 0.1404,
      "velocity": 119,
      "chip": "ym2612"
    },
    {
      "channel": 3,
      "note": 61,
      "start": 45.0127,
      "duration": 0.1617,
      "velocity": 95,
      "chip": "ym2612"
    },
    {
      "channel": 4,
      "note": 39,
      "start": 45.0133,
      "duration": 0.1617,
      "velocity": 97,
      "chip": "ym2612"
    },
    {
      "channel": 2,
      "note": 78,
      "start": 45.0142,
      "duration": 0.1572,
      "velocity": 127,
      "chip": "ym2612"
    },
    {
      "channel": 3,
      "note": 61,
      "start": 45.1749,
      "duration": 0.1591,
      "velocity": 95,
      "chip": "ym2612"
    },
    {
      "channel": 4,
      "note": 39,
      "start": 45.1756,
      "duration": 0.1591,
      "velocity": 97,
      "chip": "ym2612"
    },
    {
      "channel": 2,
      "note": 30,
      "start": 45.1764,
      "duration": 0.1403,
      "velocity": 119,
      "chip": "ym2612"
    },
    {
      "channel": 3,
      "note": 61,
      "start": 45.3346,
      "duration": 0.3243,
      "velocity": 95,
      "chip": "ym2612"
    },
    {
      "channel": 4,
      "note": 39,
      "start": 45.3352,
      "duration": 0.3244,
      "velocity": 97,
      "chip": "ym2612"
    },
    {
      "channel": 2,
      "note": 30,
      "start": 45.5001,
      "duration": 0.1411,
      "velocity": 119,
      "chip": "ym2612"
    },
    {
      "channel": 0,
      "note": 77,
      "start": 45.6587,
      "duration": 0.3263,
      "velocity": 111,
      "chip": "ym2612"
    },
    {
      "channel": 3,
      "note": 61,
      "start": 45.6595,
      "duration": 0.1637,
      "velocity": 95,
      "chip": "ym2612"
    },
    {
      "channel": 4,
      "note": 39,
      "start": 45.6601,
      "duration": 0.1637,
      "velocity": 97,
      "chip": "ym2612"
    },
    {
      "channel": 3,
      "note": 61,
      "start": 45.8237,
      "duration": 0.162,
      "velocity": 95,
      "chip": "ym2612"
    },
    {
      "channel": 4,
      "note": 39,
      "start": 45.8244,
      "duration": 0.162,
      "velocity": 97,
      "chip": "ym2612"
    },
    {
      "channel": 2,
      "note": 30,
      "start": 45.8253,
      "duration": 0.1402,
      "velocity": 119,
      "chip": "ym2612"
    },
    {
      "channel": 0,
      "note": 75,
      "start": 45.9855,
      "duration": 0.3239,
      "velocity": 111,
      "chip": "ym2612"
    },
    {
      "channel": 3,
      "note": 61,
      "start": 45.9863,
      "duration": 0.3239,
      "velocity": 95,
      "chip": "ym2612"
    },
    {
      "channel": 4,
      "note": 39,
      "start": 45.987,
      "duration": 0.3239,
      "velocity": 97,
      "chip": "ym2612"
    },
    {
      "channel": 2,
      "note": 30,
      "start": 45.9878,
      "duration": 0.1399,
      "velocity": 119,
      "chip": "ym2612"
    },
    {
      "channel": 0,
      "note": 73,
      "start": 46.31,
      "duration": 0.3212,
      "velocity": 111,
      "chip": "ym2612"
    },
    {
      "channel": 3,
      "note": 61,
      "start": 46.3108,
      "duration": 0.1586,
      "velocity": 95,
      "chip": "ym2612"
    },
    {
      "channel": 4,
      "note": 39,
      "start": 46.3115,
      "duration": 0.1586,
      "velocity": 97,
      "chip": "ym2612"
    },
    {
      "channel": 2,
      "note": 78,
      "start": 46.3123,
      "duration": 0.2841,
      "velocity": 127,
      "chip": "ym2612"
    },
    {
      "channel": 3,
      "note": 61,
      "start": 46.4699,
      "duration": 0.162,
      "velocity": 95,
      "chip": "ym2612"
    },
    {
      "channel": 4,
      "note": 39,
      "start": 46.4706,
      "duration": 0.1621,
      "velocity": 97,
      "chip": "ym2612"
    },
    {
      "channel": 0,
      "note": 70,
      "start": 46.6318,
      "duration": 0.1641,
      "velocity": 111,
      "chip": "ym2612"
    },
    {
      "channel": 3,
      "note": 61,
      "start": 46.6325,
      "duration": 0.3243,
      "velocity": 95,
      "chip": "ym2612"
    },
    {
      "channel": 4,
      "note": 39,
      "start": 46.6332,
      "duration": 0.3243,
      "velocity": 97,
      "chip": "ym2612"
    },
    {
      "channel": 0,
      "note": 68,
      "start": 46.7964,
      "duration": 2.1081,
      "velocity": 111,
      "chip": "ym2612"
    },
    {
      "channel": 2,
      "note": 30,
      "start": 46.798,
      "duration": 0.1407,
      "velocity": 119,
      "chip": "ym2612"
    },
    {
      "channel": 3,
      "note": 61,
      "start": 46.9574,
      "duration": 0.1634,
      "velocity": 95,
      "chip": "ym2612"
    },
    {
      "channel": 4,
      "note": 35,
      "start": 46.958,
      "duration": 0.1634,
      "velocity": 97,
      "chip": "ym2612"
    },
    {
      "channel": 3,
      "note": 61,
      "start": 47.1213,
      "duration": 0.1616,
      "velocity": 95,
      "chip": "ym2612"
    },
    {
      "channel": 4,
      "note": 35,
      "start": 47.122,
      "duration": 0.1616,
      "velocity": 97,
      "chip": "ym2612"
    },
    {
      "channel": 2,
      "note": 30,
      "start": 47.1229,
      "duration": 0.1403,
      "velocity": 119,
      "chip": "ym2612"
    },
    {
      "channel": 3,
      "note": 61,
      "start": 47.2835,
      "duration": 0.3238,
      "velocity": 95,
      "chip": "ym2612"
    },
    {
      "channel": 4,
      "note": 35,
      "start": 47.2842,
      "duration": 0.3238,
      "velocity": 97,
      "chip": "ym2612"
    },
    {
      "channel": 2,
      "note": 30,
      "start": 47.285,
      "duration": 0.1403,
      "velocity": 119,
      "chip": "ym2612"
    },
    {
      "channel": 3,
      "note": 61,
      "start": 47.6079,
      "duration": 0.1617,
      "velocity": 95,
      "chip": "ym2612"
    },
    {
      "channel": 4,
      "note": 35,
      "start": 47.6085,
      "duration": 0.1617,
      "velocity": 97,
      "chip": "ym2612"
    },
    {
      "channel": 2,
      "note": 78,
      "start": 47.6094,
      "duration": 0.1572,
      "velocity": 127,
      "chip": "ym2612"
    },
    {
      "channel": 3,
      "note": 61,
      "start": 47.7702,
      "duration": 0.1591,
      "velocity": 95,
      "chip": "ym2612"
    },
    {
      "channel": 4,
      "note": 35,
      "start": 47.7708,
      "duration": 0.1591,
      "velocity": 97,
      "chip": "ym2612"
    },
    {
      "channel": 2,
      "note": 30,
      "start": 47.7717,
      "duration": 0.1403,
      "velocity": 119,
      "chip": "ym2612"
    },
    {
      "channel": 3,
      "note": 61,
      "start": 47.9298,
      "duration": 0.3239,
      "velocity": 95,
      "chip": "ym2612"
    },
    {
      "channel": 4,
      "note": 35,
      "start": 47.9305,
      "duration": 0.324,
      "velocity": 97,
      "chip": "ym2612"
    },
    {
      "channel": 2,
      "note": 30,
      "start": 48.0953,
      "duration": 0.1411,
      "velocity": 119,
      "chip": "ym2612"
    },
    {
      "channel": 3,
      "note": 61,
      "start": 48.2543,
      "duration": 0.1641,
      "velocity": 95,
      "chip": "ym2612"
    },
    {
      "channel": 4,
      "note": 35,
      "start": 48.255,
      "duration": 0.1641,
      "velocity": 97,
      "chip": "ym2612"
    },
    {
      "channel": 3,
      "note": 61,
      "start": 48.419,
      "duration": 0.1617,
      "velocity": 95,
      "chip": "ym2612"
    },
    {
      "channel": 4,
      "note": 35,
      "start": 48.4196,
      "duration": 0.1617,
      "velocity": 97,
      "chip": "ym2612"
    },
    {
      "channel": 2,
      "note": 30,
      "start": 48.4205,
      "duration": 0.1403,
      "velocity": 119,
      "chip": "ym2612"
    },
    {
      "channel": 3,
      "note": 61,
      "start": 48.5812,
      "duration": 0.3241,
      "velocity": 95,
      "chip": "ym2612"
    },
    {
      "channel": 4,
      "note": 35,
      "start": 48.5819,
      "duration": 0.3241,
      "velocity": 97,
      "chip": "ym2612"
    },
    {
      "channel": 2,
      "note": 30,
      "start": 48.5827,
      "duration": 0.1402,
      "velocity": 119,
      "chip": "ym2612"
    },
    {
      "channel": 0,
      "note": 70,
      "start": 48.9051,
      "duration": 0.646,
      "velocity": 111,
      "chip": "ym2612"
    },
    {
      "channel": 3,
      "note": 61,
      "start": 48.9059,
      "duration": 0.1588,
      "velocity": 95,
      "chip": "ym2612"
    },
    {
      "channel": 4,
      "note": 35,
      "start": 48.9065,
      "duration": 0.1588,
      "velocity": 97,
      "chip": "ym2612"
    },
    {
      "channel": 2,
      "note": 78,
      "start": 48.9074,
      "duration": 0.2842,
      "velocity": 127,
      "chip": "ym2612"
    },
    {
      "channel": 3,
      "note": 61,
      "start": 49.0652,
      "duration": 0.1616,
      "velocity": 95,
      "chip": "ym2612"
    },
    {
      "channel": 4,
      "note": 35,
      "start": 49.0659,
      "duration": 0.1616,
      "velocity": 97,
      "chip": "ym2612"
    },
    {
      "channel": 3,
      "note": 61,
      "start": 49.2273,
      "duration": 0.3247,
      "velocity": 95,
      "chip": "ym2612"
    },
    {
      "channel": 4,
      "note": 35,
      "start": 49.228,
      "duration": 0.3248,
      "velocity": 97,
      "chip": "ym2612"
    },
    {
      "channel": 2,
      "note": 30,
      "start": 49.3929,
      "duration": 0.1411,
      "velocity": 119,
      "chip": "ym2612"
    },
    {
      "channel": 0,
      "note": 77,
      "start": 49.5517,
      "duration": 1.6238,
      "velocity": 111,
      "chip": "ym2612"
    },
    {
      "channel": 3,
      "note": 61,
      "start": 49.5527,
      "duration": 0.1633,
      "velocity": 95,
      "chip": "ym2612"
    },
    {
      "channel": 4,
      "note": 39,
      "start": 49.5533,
      "duration": 0.1634,
      "velocity": 97,
      "chip": "ym2612"
    },
    {
      "channel": 3,
      "note": 61,
      "start": 49.7166,
      "duration": 0.1616,
      "velocity": 95,
      "chip": "ym2612"
    },
    {
      "channel": 4,
      "note": 39,
      "start": 49.7172,
      "duration": 0.1616,
      "velocity": 97,
      "chip": "ym2612"
    },
    {
      "channel": 2,
      "note": 30,
      "start": 49.7181,
      "duration": 0.1404,
      "velocity": 119,
      "chip": "ym2612"
    },
    {
      "channel": 3,
      "note": 61,
      "start": 49.8787,
      "duration": 0.3239,
      "velocity": 95,
      "chip": "ym2612"
    },
    {
      "channel": 4,
      "note": 39,
      "start": 49.8794,
      "duration": 0.3239,
      "velocity": 97,
      "chip": "ym2612"
    },
    {
      "channel": 2,
      "note": 30,
      "start": 49.8802,
      "duration": 0.1403,
      "velocity": 119,
      "chip": "ym2612"
    },
    {
      "channel": 3,
      "note": 61,
      "start": 50.2032,
      "duration": 0.1617,
      "velocity": 95,
      "chip": "ym2612"
    },
    {
      "channel": 4,
      "note": 39,
      "start": 50.2038,
      "duration": 0.1617,
      "velocity": 97,
      "chip": "ym2612"
    },
    {
      "channel": 2,
      "note": 78,
      "start": 50.2047,
      "duration": 0.1572,
      "velocity": 127,
      "chip": "ym2612"
    },
    {
      "channel": 3,
      "note": 61,
      "start": 50.3654,
      "duration": 0.1591,
      "velocity": 95,
      "chip": "ym2612"
    },
    {
      "channel": 4,
      "note": 39,
      "start": 50.3661,
      "duration": 0.1591,
      "velocity": 97,
      "chip": "ym2612"
    },
    {
      "channel": 2,
      "note": 30,
      "start": 50.3669,
      "duration": 0.1402,
      "velocity": 119,
      "chip": "ym2612"
    },
    {
      "channel": 3,
      "note": 61,
      "start": 50.5251,
      "duration": 0.3242,
      "velocity": 95,
      "chip": "ym2612"
    },
    {
      "channel": 4,
      "note": 39,
      "start": 50.5257,
      "duration": 0.3242,
      "velocity": 97,
      "chip": "ym2612"
    },
    {
      "channel": 2,
      "note": 30,
      "start": 50.6905,
      "duration": 0.1411,
      "velocity": 119,
      "chip": "ym2612"
    },
    {
      "channel": 3,
      "note": 61,
      "start": 50.8498,
      "duration": 0.1638,
      "velocity": 95,
      "chip": "ym2612"
    },
    {
      "channel": 4,
      "note": 39,
      "start": 50.8505,
      "duration": 0.1638,
      "velocity": 97,
      "chip": "ym2612"
    },
    {
      "channel": 3,
      "note": 61,
      "start": 51.0142,
      "duration": 0.162,
      "velocity": 95,
      "chip": "ym2612"
    },
    {
      "channel": 4,
      "note": 39,
      "start": 51.0149,
      "duration": 0.162,
      "velocity": 97,
      "chip": "ym2612"
    },
    {
      "channel": 2,
      "note": 30,
      "start": 51.0157,
      "duration": 0.1403,
      "velocity": 119,
      "chip": "ym2612"
    },
    {
      "channel": 0,
      "note": 75,
      "start": 51.176,
      "duration": 0.3239,
      "velocity": 111,
      "chip": "ym2612"
    },
    {
      "channel": 3,
      "note": 61,
      "start": 51.1768,
      "duration": 0.3239,
      "velocity": 95,
      "chip": "ym2612"
    },
    {
      "channel": 4,
      "note": 39,
      "start": 51.1774,
      "duration": 0.3239,
      "velocity": 97,
      "chip": "ym2612"
    },
    {
      "channel": 2,
      "note": 30,
      "start": 51.1783,
      "duration": 0.1399,
      "velocity": 119,
      "chip": "ym2612"
    },
    {
      "channel": 0,
      "note": 77,
      "start": 51.5004,
      "duration": 0.3212,
      "velocity": 111,
      "chip": "ym2612"
    },
    {
      "channel": 3,
      "note": 61,
      "start": 51.5012,
      "duration": 0.1587,
      "velocity": 95,
      "chip": "ym2612"
    },
    {
      "channel": 4,
      "note": 39,
      "start": 51.5019,
      "duration": 0.1587,
      "velocity": 97,
      "chip": "ym2612"
    },
    {
      "channel": 2,
      "note": 78,
      "start": 51.5028,
      "duration": 0.284,
      "velocity": 127,
      "chip": "ym2612"
    },
    {
      "channel": 3,
      "note": 61,
      "start": 51.6605,
      "duration": 0.162,
      "velocity": 95,
      "chip": "ym2612"
    },
    {
      "channel": 4,
      "note": 39,
      "start": 51.6611,
      "duration": 0.162,
      "velocity": 97,
      "chip": "ym2612"
    },
    {
      "channel": 0,
      "note": 78,
      "start": 51.8222,
      "duration": 0.3241,
      "velocity": 111,
      "chip": "ym2612"
    },
    {
      "channel": 3,
      "note": 61,
      "start": 51.823,
      "duration": 0.3243,
      "velocity": 95,
      "chip": "ym2612"
    },
    {
      "channel": 4,
      "note": 39,
      "start": 51.8237,
      "duration": 0.3243,
      "velocity": 97,
      "chip": "ym2612"
    },
    {
      "channel": 2,
      "note": 30,
      "start": 51.9881,
      "duration": 0.1411,
      "velocity": 119,
      "chip": "ym2612"
    },
    {
      "channel": 0,
      "note": 80,
      "start": 52.1469,
      "duration": 0.3261,
      "velocity": 111,
      "chip": "ym2612"
    },
    {
      "channel": 3,
      "note": 61,
      "start": 52.1479,
      "duration": 0.1637,
      "velocity": 95,
      "chip": "ym2612"
    },
    {
      "channel": 4,
      "note": 35,
      "start": 52.1486,
      "duration": 0.1637,
      "velocity": 97,
      "chip": "ym2612"
    },
    {
      "channel": 3,
      "note": 61,
      "start": 52.3121,
      "duration": 0.1617,
      "velocity": 95,
      "chip": "ym2612"
    },
    {
      "channel": 4,
      "note": 35,
      "start": 52.3128,
      "duration": 0.1617,
      "velocity": 97,
      "chip": "ym2612"
    },
    {
      "channel": 2,
      "note": 30,
      "start": 52.3137,
      "duration": 0.1399,
      "velocity": 119,
      "chip": "ym2612"
    },
    {
      "channel": 0,
      "note": 82,
      "start": 52.4736,
      "duration": 0.1591,
      "velocity": 111,
      "chip": "ym2612"
    },
    {
      "channel": 3,
      "note": 61,
      "start": 52.4744,
      "duration": 0.3237,
      "velocity": 95,
      "chip": "ym2612"
    },
    {
      "channel": 4,
      "note": 35,
      "start": 52.4751,
      "duration": 0.3237,
      "velocity": 97,
      "chip": "ym2612"
    },
    {
      "channel": 2,
      "note": 30,
      "start": 52.4759,
      "duration": 0.14,
      "velocity": 119,
      "chip": "ym2612"
    },
    {
      "channel": 0,
      "note": 77,
      "start": 52.6332,
      "duration": 1.4618,
      "velocity": 111,
      "chip": "ym2612"
    },
    {
      "channel": 3,
      "note": 61,
      "start": 52.7987,
      "duration": 0.1614,
      "velocity": 95,
      "chip": "ym2612"
    },
    {
      "channel": 4,
      "note": 35,
      "start": 52.7993,
      "duration": 0.1614,
      "velocity": 97,
      "chip": "ym2612"
    },
    {
      "channel": 2,
      "note": 78,
      "start": 52.8002,
      "duration": 0.1569,
      "velocity": 127,
      "chip": "ym2612"
    },
    {
      "channel": 3,
      "note": 61,
      "start": 52.9606,
      "duration": 0.159,
      "velocity": 95,
      "chip": "ym2612"
    },
    {
      "channel": 4,
      "note": 35,
      "start": 52.9613,
      "duration": 0.159,
      "velocity": 97,
      "chip": "ym2612"
    },
    {
      "channel": 2,
      "note": 30,
      "start": 52.9622,
      "duration": 0.1403,
      "velocity": 119,
      "chip": "ym2612"
    },
    {
      "channel": 3,
      "note": 61,
      "start": 53.1202,
      "duration": 0.324,
      "velocity": 95,
      "chip": "ym2612"
    },
    {
      "channel": 4,
      "note": 35,
      "start": 53.1209,
      "duration": 0.324,
      "velocity": 97,
      "chip": "ym2612"
    },
    {
      "channel": 2,
      "note": 30,
      "start": 53.2858,
      "duration": 0.1411,
      "velocity": 119,
      "chip": "ym2612"
    },
    {
      "channel": 3,
      "note": 61,
      "start": 53.4448,
      "duration": 0.164,
      "velocity": 95,
      "chip": "ym2612"
    },
    {
      "channel": 4,
      "note": 35,
      "start": 53.4454,
      "duration": 0.1641,
      "velocity": 97,
      "chip": "ym2612"
    },
    {
      "channel": 3,
      "note": 61,
      "start": 53.6094,
      "duration": 0.1616,
      "velocity": 95,
      "chip": "ym2612"
    },
    {
      "channel": 4,
      "note": 35,
      "start": 53.61,
      "duration": 0.1616,
      "velocity": 97,
      "chip": "ym2612"
    },
    {
      "channel": 2,
      "note": 30,
      "start": 53.6109,
      "duration": 0.1404,
      "velocity": 119,
      "chip": "ym2612"
    },
    {
      "channel": 3,
      "note": 61,
      "start": 53.7715,
      "duration": 0.3243,
      "velocity": 95,
      "chip": "ym2612"
    },
    {
      "channel": 4,
      "note": 35,
      "start": 53.7722,
      "duration": 0.3243,
      "velocity": 97,
      "chip": "ym2612"
    },
    {
      "channel": 2,
      "note": 30,
      "start": 53.7731,
      "duration": 0.1404,
      "velocity": 119,
      "chip": "ym2612"
    },
    {
      "channel": 0,
      "note": 73,
      "start": 54.0956,
      "duration": 0.6459,
      "velocity": 111,
      "chip": "ym2612"
    },
    {
      "channel": 3,
      "note": 61,
      "start": 54.0964,
      "duration": 0.1587,
      "velocity": 95,
      "chip": "ym2612"
    },
    {
      "channel": 4,
      "note": 35,
      "start": 54.0971,
      "duration": 0.1587,
      "velocity": 97,
      "chip": "ym2612"
    },
    {
      "channel": 2,
      "note": 78,
      "start": 54.098,
      "duration": 0.284,
      "velocity": 127,
      "chip": "ym2612"
    },
    {
      "channel": 3,
      "note": 61,
      "start": 54.2557,
      "duration": 0.1616,
      "velocity": 95,
      "chip": "ym2612"
    },
    {
      "channel": 4,
      "note": 35,
      "start": 54.2564,
      "duration": 0.1616,
      "velocity": 97,
      "chip": "ym2612"
    },
    {
      "channel": 3,
      "note": 61,
      "start": 54.4179,
      "duration": 0.3247,
      "velocity": 95,
      "chip": "ym2612"
    },
    {
      "channel": 4,
      "note": 35,
      "start": 54.4185,
      "duration": 0.3247,
      "velocity": 97,
      "chip": "ym2612"
    },
    {
      "channel": 2,
      "note": 30,
      "start": 54.5833,
      "duration": 0.1412,
      "velocity": 119,
      "chip": "ym2612"
    },
    {
      "channel": 0,
      "note": 80,
      "start": 54.7421,
      "duration": 1.6237,
      "velocity": 111,
      "chip": "ym2612"
    },
    {
      "channel": 3,
      "note": 61,
      "start": 54.7431,
      "duration": 0.1633,
      "velocity": 95,
      "chip": "ym2612"
    },
    {
      "channel": 4,
      "note": 37,
      "start": 54.7438,
      "duration": 0.1634,
      "velocity": 97,
      "chip": "ym2612"
    },
    {
      "channel": 3,
      "note": 61,
      "start": 54.907,
      "duration": 0.1616,
      "velocity": 95,
      "chip": "ym2612"
    },
    {
      "channel": 4,
      "note": 37,
      "start": 54.9077,
      "duration": 0.1617,
      "velocity": 97,
      "chip": "ym2612"
    },
    {
      "channel": 2,
      "note": 30,
      "start": 54.9085,
      "duration": 0.1403,
      "velocity": 119,
      "chip": "ym2612"
    },
    {
      "channel": 3,
      "note": 61,
      "start": 55.0692,
      "duration": 0.3238,
      "velocity": 95,
      "chip": "ym2612"
    },
    {
      "channel": 4,
      "note": 37,
      "start": 55.0699,
      "duration": 0.3238,
      "velocity": 97,
      "chip": "ym2612"
    },
    {
      "channel": 2,
      "note": 30,
      "start": 55.0707,
      "duration": 0.1403,
      "velocity": 119,
      "chip": "ym2612"
    },
    {
      "channel": 3,
      "note": 61,
      "start": 55.3936,
      "duration": 0.1616,
      "velocity": 95,
      "chip": "ym2612"
    },
    {
      "channel": 4,
      "note": 37,
      "start": 55.3942,
      "duration": 0.1617,
      "velocity": 97,
      "chip": "ym2612"
    },
    {
      "channel": 2,
      "note": 78,
      "start": 55.3951,
      "duration": 0.1571,
      "velocity": 127,
      "chip": "ym2612"
    },
    {
      "channel": 3,
      "note": 61,
      "start": 55.5558,
      "duration": 0.1591,
      "velocity": 95,
      "chip": "ym2612"
    },
    {
      "channel": 4,
      "note": 37,
      "start": 55.5564,
      "duration": 0.1591,
      "velocity": 97,
      "chip": "ym2612"
    },
    {
      "channel": 2,
      "note": 30,
      "start": 55.5573,
      "duration": 0.1404,
      "velocity": 119,
      "chip": "ym2612"
    },
    {
      "channel": 3,
      "note": 61,
      "start": 55.7154,
      "duration": 0.3243,
      "velocity": 95,
      "chip": "ym2612"
    },
    {
      "channel": 4,
      "note": 37,
      "start": 55.7161,
      "duration": 0.3244,
      "velocity": 97,
      "chip": "ym2612"
    },
    {
      "channel": 2,
      "note": 30,
      "start": 55.881,
      "duration": 0.1411,
      "velocity": 119,
      "chip": "ym2612"
    },
    {
      "channel": 3,
      "note": 61,
      "start": 56.0403,
      "duration": 0.1637,
      "velocity": 95,
      "chip": "ym2612"
    },
    {
      "channel": 4,
      "note": 37,
      "start": 56.041,
      "duration": 0.1637,
      "velocity": 97,
      "chip": "ym2612"
    },
    {
      "channel": 3,
      "note": 61,
      "start": 56.2046,
      "duration": 0.1619,
      "velocity": 95,
      "chip": "ym2612"
    },
    {
      "channel": 4,
      "note": 37,
      "start": 56.2053,
      "duration": 0.162,
      "velocity": 97,
      "chip": "ym2612"
    },
    {
      "channel": 2,
      "note": 30,
      "start": 56.2061,
      "duration": 0.1403,
      "velocity": 119,
      "chip": "ym2612"
    },
    {
      "channel": 0,
      "note": 78,
      "start": 56.3663,
      "duration": 0.3239,
      "velocity": 111,
      "chip": "ym2612"
    },
    {
      "channel": 3,
      "note": 61,
      "start": 56.3671,
      "duration": 0.3239,
      "velocity": 95,
      "chip": "ym2612"
    },
    {
      "channel": 4,
      "note": 37,
      "start": 56.3678,
      "duration": 0.3239,
      "velocity": 97,
      "chip": "ym2612"
    },
    {
      "channel": 2,
      "note": 30,
      "start": 56.3686,
      "duration": 0.14,
      "velocity": 119,
      "chip": "ym2612"
    },
    {
      "channel": 0,
      "note": 77,
      "start": 56.6908,
      "duration": 0.3214,
      "velocity": 111,
      "chip": "ym2612"
    },
    {
      "channel": 3,
      "note": 61,
      "start": 56.6916,
      "duration": 0.1588,
      "velocity": 95,
      "chip": "ym2612"
    },
    {
      "channel": 4,
      "note": 37,
      "start": 56.6922,
      "duration": 0.1588,
      "velocity": 97,
      "chip": "ym2612"
    },
    {
      "channel": 2,
      "note": 78,
      "start": 56.6931,
      "duration": 0.2841,
      "velocity": 127,
      "chip": "ym2612"
    },
    {
      "channel": 3,
      "note": 61,
      "start": 56.851,
      "duration": 0.162,
      "velocity": 95,
      "chip": "ym2612"
    },
    {
      "channel": 4,
      "note": 37,
      "start": 56.8516,
      "duration": 0.162,
      "velocity": 97,
      "chip": "ym2612"
    },
    {
      "channel": 0,
      "note": 73,
      "start": 57.0127,
      "duration": 0.1641,
      "velocity": 111,
      "chip": "ym2612"
    },
    {
      "channel": 3,
      "note": 61,
      "start": 57.0135,
      "duration": 0.3242,
      "velocity": 95,
      "chip": "ym2612"
    },
    {
      "channel": 4,
      "note": 37,
      "start": 57.0142,
      "duration": 0.3242,
      "velocity": 97,
      "chip": "ym2612"
    },
    {
      "channel": 0,
      "note": 70,
      "start": 57.1774,
      "duration": 1.7837,
      "velocity": 111,
      "chip": "ym2612"
    },
    {
      "channel": 2,
      "note": 30,
      "start": 57.179,
      "duration": 0.1407,
      "velocity": 119,
      "chip": "ym2612"
    },
    {
      "channel": 3,
      "note": 61,
      "start": 57.3383,
      "duration": 0.1634,
      "velocity": 95,
      "chip": "ym2612"
    },
    {
      "channel": 4,
      "note": 35,
      "start": 57.3389,
      "duration": 0.1635,
      "velocity": 97,
      "chip": "ym2612"
    },
    {
      "channel": 3,
      "note": 61,
      "start": 57.5023,
      "duration": 0.1616,
      "velocity": 95,
      "chip": "ym2612"
    },
    {
      "channel": 4,
      "note": 35,
      "start": 57.5029,
      "duration": 0.1616,
      "velocity": 97,
      "chip": "ym2612"
    },
    {
      "channel": 2,
      "note": 30,
      "start": 57.5038,
      "duration": 0.1402,
      "velocity": 119,
      "chip": "ym2612"
    },
    {
      "channel": 3,
      "note": 61,
      "start": 57.6644,
      "duration": 0.3238,
      "velocity": 95,
      "chip": "ym2612"
    },
    {
      "channel": 4,
      "note": 35,
      "start": 57.6651,
      "duration": 0.3238,
      "velocity": 97,
      "chip": "ym2612"
    },
    {
      "channel": 2,
      "note": 30,
      "start": 57.666,
      "duration": 0.1403,
      "velocity": 119,
      "chip": "ym2612"
    },
    {
      "channel": 3,
      "note": 61,
      "start": 57.9888,
      "duration": 0.1616,
      "velocity": 95,
      "chip": "ym2612"
    },
    {
      "channel": 4,
      "note": 35,
      "start": 57.9895,
      "duration": 0.1616,
      "velocity": 97,
      "chip": "ym2612"
    },
    {
      "channel": 2,
      "note": 78,
      "start": 57.9904,
      "duration": 0.1571,
      "velocity": 127,
      "chip": "ym2612"
    },
    {
      "channel": 3,
      "note": 61,
      "start": 58.151,
      "duration": 0.1591,
      "velocity": 95,
      "chip": "ym2612"
    },
    {
      "channel": 4,
      "note": 35,
      "start": 58.1517,
      "duration": 0.1591,
      "velocity": 97,
      "chip": "ym2612"
    },
    {
      "channel": 2,
      "note": 30,
      "start": 58.1525,
      "duration": 0.1404,
      "velocity": 119,
      "chip": "ym2612"
    },
    {
      "channel": 3,
      "note": 61,
      "start": 58.3107,
      "duration": 0.3244,
      "velocity": 95,
      "chip": "ym2612"
    },
    {
      "channel": 4,
      "note": 35,
      "start": 58.3113,
      "duration": 0.3244,
      "velocity": 97,
      "chip": "ym2612"
    },
    {
      "channel": 2,
      "note": 30,
      "start": 58.4763,
      "duration": 0.141,
      "velocity": 119,
      "chip": "ym2612"
    },
    {
      "channel": 3,
      "note": 61,
      "start": 58.6356,
      "duration": 0.1637,
      "velocity": 95,
      "chip": "ym2612"
    },
    {
      "channel": 4,
      "note": 35,
      "start": 58.6363,
      "duration": 0.1637,
      "velocity": 97,
      "chip": "ym2612"
    },
    {
      "channel": 3,
      "note": 61,
      "start": 58.7999,
      "duration": 0.162,
      "velocity": 95,
      "chip": "ym2612"
    },
    {
      "channel": 4,
      "note": 35,
      "start": 58.8005,
      "duration": 0.162,
      "velocity": 97,
      "chip": "ym2612"
    },
    {
      "channel": 2,
      "note": 30,
      "start": 58.8014,
      "duration": 0.1403,
      "velocity": 119,
      "chip": "ym2612"
    },
    {
      "channel": 0,
      "note": 73,
      "start": 58.9616,
      "duration": 0.3238,
      "velocity": 111,
      "chip": "ym2612"
    },
    {
      "channel": 3,
      "note": 61,
      "start": 58.9624,
      "duration": 0.3238,
      "velocity": 95,
      "chip": "ym2612"
    },
    {
      "channel": 4,
      "note": 35,
      "start": 58.9631,
      "duration": 0.3238,
      "velocity": 97,
      "chip": "ym2612"
    },
    {
      "channel": 2,
      "note": 30,
      "start": 58.9639,
      "duration": 0.14,
      "velocity": 119,
      "chip": "ym2612"
    },
    {
      "channel": 0,
      "note": 75,
      "start": 59.286,
      "duration": 0.3213,
      "velocity": 111,
      "chip": "ym2612"
    },
    {
      "channel": 3,
      "note": 61,
      "start": 59.2868,
      "duration": 0.1587,
      "velocity": 95,
      "chip": "ym2612"
    },
    {
      "channel": 4,
      "note": 35,
      "start": 59.2875,
      "duration": 0.1588,
      "velocity": 97,
      "chip": "ym2612"
    },
    {
      "channel": 2,
      "note": 78,
      "start": 59.2883,
      "duration": 0.2841,
      "velocity": 127,
      "chip": "ym2612"
    },
    {
      "channel": 3,
      "note": 61,
      "start": 59.4461,
      "duration": 0.162,
      "velocity": 95,
      "chip": "ym2612"
    },
    {
      "channel": 4,
      "note": 35,
      "start": 59.4468,
      "duration": 0.1621,
      "velocity": 97,
      "chip": "ym2612"
    },
    {
      "channel": 0,
      "note": 77,
      "start": 59.6079,
      "duration": 0.1642,
      "velocity": 111,
      "chip": "ym2612"
    },
    {
      "channel": 3,
      "note": 61,
      "start": 59.6087,
      "duration": 0.3242,
      "velocity": 95,
      "chip": "ym2612"
    },
    {
      "channel": 4,
      "note": 35,
      "start": 59.6094,
      "duration": 0.3243,
      "velocity": 97,
      "chip": "ym2612"
    },
    {
      "channel": 0,
      "note": 75,
      "start": 59.7727,
      "duration": 2.7569,
      "velocity": 111,
      "chip": "ym2612"
    },
    {
      "channel": 2,
      "note": 30,
      "start": 59.7742,
      "duration": 0.1407,
      "velocity": 119,
      "chip": "ym2612"
    },
    {
      "channel": 3,
      "note": 61,
      "start": 59.9335,
      "duration": 0.1634,
      "velocity": 95,
      "chip": "ym2612"
    },
    {
      "channel": 4,
      "note": 36,
      "start": 59.9342,
      "duration": 0.1635,
      "velocity": 97,
      "chip": "ym2612"
    },
    {
      "channel": 3,
      "note": 61,
      "start": 60.0975,
      "duration": 0.1616,
      "velocity": 95,
      "chip": "ym2612"
    },
    {
      "channel": 4,
      "note": 36,
      "start": 60.0982,
      "duration": 0.1616,
      "velocity": 97,
      "chip": "ym2612"
    },
    {
      "channel": 2,
      "note": 30,
      "start": 60.099,
      "duration": 0.1403,
      "velocity": 119,
      "chip": "ym2612"
    },
    {
      "channel": 3,
      "note": 61,
      "start": 60.2597,
      "duration": 0.3239,
      "velocity": 95,
      "chip": "ym2612"
    },
    {
      "channel": 4,
      "note": 36,
      "start": 60.2604,
      "duration": 0.3239,
      "velocity": 97,
      "chip": "ym2612"
    },
    {
      "channel": 2,
      "note": 30,
      "start": 60.2612,
      "duration": 0.1403,
      "velocity": 119,
      "chip": "ym2612"
    },
    {
      "channel": 3,
      "note": 61,
      "start": 60.5841,
      "duration": 0.1616,
      "velocity": 95,
      "chip": "ym2612"
    },
    {
      "channel": 4,
      "note": 36,
      "start": 60.5848,
      "duration": 0.1616,
      "velocity": 97,
      "chip": "ym2612"
    },
    {
      "channel": 2,
      "note": 78,
      "start": 60.5857,
      "duration": 0.1571,
      "velocity": 127,
      "chip": "ym2612"
    },
    {
      "channel": 3,
      "note": 61,
      "start": 60.7462,
      "duration": 0.1595,
      "velocity": 95,
      "chip": "ym2612"
    },
    {
      "channel": 4,
      "note": 36,
      "start": 60.7469,
      "duration": 0.1595,
      "velocity": 97,
      "chip": "ym2612"
    },
    {
      "channel": 2,
      "note": 30,
      "start": 60.7478,
      "duration": 0.1404,
      "velocity": 119,
      "chip": "ym2612"
    },
    {
      "channel": 3,
      "note": 61,
      "start": 60.9063,
      "duration": 0.3236,
      "velocity": 95,
      "chip": "ym2612"
    },
    {
      "channel": 4,
      "note": 36,
      "start": 60.9069,
      "duration": 0.3236,
      "velocity": 97,
      "chip": "ym2612"
    },
    {
      "channel": 2,
      "note": 30,
      "start": 61.0714,
      "duration": 0.1411,
      "velocity": 119,
      "chip": "ym2612"
    },
    {
      "channel": 3,
      "note": 61,
      "start": 61.2304,
      "duration": 0.1641,
      "velocity": 95,
      "chip": "ym2612"
    },
    {
      "channel": 4,
      "note": 36,
      "start": 61.2311,
      "duration": 0.1641,
      "velocity": 97,
      "chip": "ym2612"
    },
    {
      "channel": 3,
      "note": 61,
      "start": 61.3951,
      "duration": 0.1617,
      "velocity": 95,
      "chip": "ym2612"
    },
    {
      "channel": 4,
      "note": 36,
      "start": 61.3958,
      "duration": 0.1617,
      "velocity": 97,
      "chip": "ym2612"
    },
    {
      "channel": 2,
      "note": 30,
      "start": 61.3966,
      "duration": 0.1403,
      "velocity": 119,
      "chip": "ym2612"
    },
    {
      "channel": 3,
      "note": 61,
      "start": 61.5573,
      "duration": 0.3238,
      "velocity": 95,
      "chip": "ym2612"
    },
    {
      "channel": 4,
      "note": 36,
      "start": 61.558,
      "duration": 0.3238,
      "velocity": 97,
      "chip": "ym2612"
    },
    {
      "channel": 2,
      "note": 30,
      "start": 61.5588,
      "duration": 0.1403,
      "velocity": 119,
      "chip": "ym2612"
    },
    {
      "channel": 3,
      "note": 61,
      "start": 61.8816,
      "duration": 0.1617,
      "velocity": 95,
      "chip": "ym2612"
    },
    {
      "channel": 4,
      "note": 36,
      "start": 61.8823,
      "duration": 0.1617,
      "velocity": 97,
      "chip": "ym2612"
    },
    {
      "channel": 2,
      "note": 78,
      "start": 61.8832,
      "duration": 0.1572,
      "velocity": 127,
      "chip": "ym2612"
    },
    {
      "channel": 3,
      "note": 61,
      "start": 62.0439,
      "duration": 0.1615,
      "velocity": 95,
      "chip": "ym2612"
    },
    {
      "channel": 4,
      "note": 36,
      "start": 62.0446,
      "duration": 0.1616,
      "velocity": 97,
      "chip": "ym2612"
    },
    {
      "channel": 2,
      "note": 78,
      "start": 62.0455,
      "duration": 0.157,
      "velocity": 127,
      "chip": "ym2612"
    },
    {
      "channel": 3,
      "note": 61,
      "start": 62.206,
      "duration": 0.3249,
      "velocity": 95,
      "chip": "ym2612"
    },
    {
      "channel": 4,
      "note": 36,
      "start": 62.2067,
      "duration": 0.3249,
      "velocity": 97,
      "chip": "ym2612"
    },
    {
      "channel": 2,
      "note": 78,
      "start": 62.2076,
      "duration": 0.1572,
      "velocity": 127,
      "chip": "ym2612"
    },
    {
      "channel": 2,
      "note": 78,
      "start": 62.3691,
      "duration": 0.1579,
      "velocity": 127,
      "chip": "ym2612"
    },
    {
      "channel": 0,
      "note": 78,
      "start": 62.5301,
      "duration": 0.3238,
      "velocity": 111,
      "chip": "ym2612"
    },
    {
      "channel": 1,
      "note": 80,
      "start": 62.5308,
      "duration": 0.3238,
      "velocity": 31,
      "chip": "ym2612"
    },
    {
      "channel": 3,
      "note": 59,
      "start": 62.5315,
      "duration": 0.3238,
      "velocity": 95,
      "chip": "ym2612"
    },
    {
      "channel": 4,
      "note": 39,
      "start": 62.5322,
      "duration": 0.3238,
      "velocity": 97,
      "chip": "ym2612"
    },
    {
      "channel": 2,
      "note": 30,
      "start": 62.5333,
      "duration": 0.1393,
      "velocity": 119,
      "chip": "ym2612"
    },
    {
      "channel": 0,
      "note": 78,
      "start": 62.8544,
      "duration": 0.3239,
      "velocity": 111,
      "chip": "ym2612"
    },
    {
      "channel": 1,
      "note": 80,
      "start": 62.8551,
      "duration": 0.3239,
      "velocity": 31,
      "chip": "ym2612"
    },
    {
      "channel": 3,
      "note": 59,
      "start": 62.8558,
      "duration": 0.3239,
      "velocity": 95,
      "chip": "ym2612"
    },
    {
      "channel": 4,
      "note": 39,
      "start": 62.8565,
      "duration": 0.324,
      "velocity": 97,
      "chip": "ym2612"
    },
    {
      "channel": 2,
      "note": 30,
      "start": 62.8573,
      "duration": 0.1396,
      "velocity": 119,
      "chip": "ym2612"
    },
    {
      "channel": 0,
      "note": 78,
      "start": 63.1789,
      "duration": 0.3213,
      "velocity": 111,
      "chip": "ym2612"
    },
    {
      "channel": 1,
      "note": 80,
      "start": 63.1796,
      "duration": 0.3209,
      "velocity": 31,
      "chip": "ym2612"
    },
    {
      "channel": 3,
      "note": 59,
      "start": 63.1803,
      "duration": 0.3205,
      "velocity": 95,
      "chip": "ym2612"
    },
    {
      "channel": 4,
      "note": 39,
      "start": 63.181,
      "duration": 0.3202,
      "velocity": 97,
      "chip": "ym2612"
    },
    {
      "channel": 2,
      "note": 30,
      "start": 63.1819,
      "duration": 0.1396,
      "velocity": 119,
      "chip": "ym2612"
    },
    {
      "channel": 0,
      "note": 78,
      "start": 64.1521,
      "duration": 0.1616,
      "velocity": 111,
      "chip": "ym2612"
    },
    {
      "channel": 1,
      "note": 80,
      "start": 64.1528,
      "duration": 0.1616,
      "velocity": 31,
      "chip": "ym2612"
    },
    {
      "channel": 3,
      "note": 59,
      "start": 64.1535,
      "duration": 0.1616,
      "velocity": 95,
      "chip": "ym2612"
    },
    {
      "channel": 4,
      "note": 39,
      "start": 64.1542,
      "duration": 0.1616,
      "velocity": 97,
      "chip": "ym2612"
    },
    {
      "channel": 2,
      "note": 30,
      "start": 64.1551,
      "duration": 0.1395,
      "velocity": 119,
      "chip": "ym2612"
    },
    {
      "channel": 0,
      "note": 78,
      "start": 64.3143,
      "duration": 0.1617,
      "velocity": 111,
      "chip": "ym2612"
    },
    {
      "channel": 1,
      "note": 80,
      "start": 64.315,
      "duration": 0.1617,
      "velocity": 31,
      "chip": "ym2612"
    },
    {
      "channel": 3,
      "note": 59,
      "start": 64.3157,
      "duration": 0.1617,
      "velocity": 95,
      "chip": "ym2612"
    },
    {
      "channel": 4,
      "note": 39,
      "start": 64.3163,
      "duration": 0.1617,
      "velocity": 97,
      "chip": "ym2612"
    },
    {
      "channel": 2,
      "note": 30,
      "start": 64.3172,
      "duration": 0.1396,
      "velocity": 119,
      "chip": "ym2612"
    },
    {
      "channel": 0,
      "note": 78,
      "start": 64.4765,
      "duration": 0.6458,
      "velocity": 111,
      "chip": "ym2612"
    },
    {
      "channel": 1,
      "note": 80,
      "start": 64.4772,
      "duration": 0.6454,
      "velocity": 31,
      "chip": "ym2612"
    },
    {
      "channel": 3,
      "note": 59,
      "start": 64.4779,
      "duration": 0.645,
      "velocity": 95,
      "chip": "ym2612"
    },
    {
      "channel": 4,
      "note": 39,
      "start": 64.4786,
      "duration": 0.6446,
      "velocity": 97,
      "chip": "ym2612"
    },
    {
      "channel": 2,
      "note": 30,
      "start": 64.4794,
      "duration": 0.1396,
      "velocity": 119,
      "chip": "ym2612"
    },
    {
      "channel": 0,
      "note": 78,
      "start": 65.4498,
      "duration": 0.1615,
      "velocity": 111,
      "chip": "ym2612"
    },
    {
      "channel": 1,
      "note": 80,
      "start": 65.4505,
      "duration": 0.1615,
      "velocity": 31,
      "chip": "ym2612"
    },
    {
      "channel": 3,
      "note": 59,
      "start": 65.4512,
      "duration": 0.1615,
      "velocity": 95,
      "chip": "ym2612"
    },
    {
      "channel": 4,
      "note": 39,
      "start": 65.4519,
      "duration": 0.1616,
      "velocity": 97,
      "chip": "ym2612"
    },
    {
      "channel": 2,
      "note": 30,
      "start": 65.4527,
      "duration": 0.1395,
      "velocity": 119,
      "chip": "ym2612"
    },
    {
      "channel": 0,
      "note": 78,
      "start": 65.6119,
      "duration": 0.1617,
      "velocity": 111,
      "chip": "ym2612"
    },
    {
      "channel": 1,
      "note": 80,
      "start": 65.6126,
      "duration": 0.1617,
      "velocity": 31,
      "chip": "ym2612"
    },
    {
      "channel": 3,
      "note": 59,
      "start": 65.6133,
      "duration": 0.1617,
      "velocity": 95,
      "chip": "ym2612"
    },
    {
      "channel": 4,
      "note": 39,
      "start": 65.614,
      "duration": 0.1617,
      "velocity": 97,
      "chip": "ym2612"
    },
    {
      "channel": 2,
      "note": 30,
      "start": 65.6148,
      "duration": 0.1396,
      "velocity": 119,
      "chip": "ym2612"
    },
    {
      "channel": 0,
      "note": 78,
      "start": 65.7742,
      "duration": 0.3238,
      "velocity": 111,
      "chip": "ym2612"
    },
    {
      "channel": 1,
      "note": 80,
      "start": 65.7749,
      "duration": 0.3238,
      "velocity": 31,
      "chip": "ym2612"
    },
    {
      "channel": 3,
      "note": 59,
      "start": 65.7756,
      "duration": 0.3238,
      "velocity": 95,
      "chip": "ym2612"
    },
    {
      "channel": 4,
      "note": 39,
      "start": 65.7763,
      "duration": 0.3238,
      "velocity": 97,
      "chip": "ym2612"
    },
    {
      "channel": 2,
      "note": 30,
      "start": 65.7771,
      "duration": 0.1396,
      "velocity": 119,
      "chip": "ym2612"
    },
    {
      "channel": 0,
      "note": 78,
      "start": 66.0985,
      "duration": 0.3239,
      "velocity": 111,
      "chip": "ym2612"
    },
    {
      "channel": 1,
      "note": 80,
      "start": 66.0992,
      "duration": 0.3239,
      "velocity": 31,
      "chip": "ym2612"
    },
    {
      "channel": 3,
      "note": 59,
      "start": 66.0999,
      "duration": 0.3239,
      "velocity": 95,
      "chip": "ym2612"
    },
    {
      "channel": 4,
      "note": 39,
      "start": 66.1006,
      "duration": 0.3239,
      "velocity": 97,
      "chip": "ym2612"
    },
    {
      "channel": 2,
      "note": 30,
      "start": 66.1014,
      "duration": 0.1396,
      "velocity": 119,
      "chip": "ym2612"
    },
    {
      "channel": 0,
      "note": 78,
      "start": 66.423,
      "duration": 0.6482,
      "velocity": 111,
      "chip": "ym2612"
    },
    {
      "channel": 1,
      "note": 80,
      "start": 66.4237,
      "duration": 0.6482,
      "velocity": 31,
      "chip": "ym2612"
    },
    {
      "channel": 3,
      "note": 59,
      "start": 66.4244,
      "duration": 0.6482,
      "velocity": 95,
      "chip": "ym2612"
    },
    {
      "channel": 4,
      "note": 39,
      "start": 66.4251,
      "duration": 0.6482,
      "velocity": 97,
      "chip": "ym2612"
    },
    {
      "channel": 2,
      "note": 30,
      "start": 66.4259,
      "duration": 0.1395,
      "velocity": 119,
      "chip": "ym2612"
    },
    {
      "channel": 0,
      "note": 78,
      "start": 67.0717,
      "duration": 0.6482,
      "velocity": 111,
      "chip": "ym2612"
    },
    {
      "channel": 1,
      "note": 80,
      "start": 67.0724,
      "duration": 0.6478,
      "velocity": 31,
      "chip": "ym2612"
    },
    {
      "channel": 3,
      "note": 59,
      "start": 67.0732,
      "duration": 0.6474,
      "velocity": 95,
      "chip": "ym2612"
    },
    {
      "channel": 4,
      "note": 39,
      "start": 67.0738,
      "duration": 0.6471,
      "velocity": 97,
      "chip": "ym2612"
    },
    {
      "channel": 2,
      "note": 30,
      "start": 67.0747,
      "duration": 0.1396,
      "velocity": 119,
      "chip": "ym2612"
    },
    {
      "channel": 4,
      "note": 38,
      "start": 67.7214,
      "duration": 0.3208,
      "velocity": 97,
      "chip": "ym2612"
    },
    {
      "channel": 2,
      "note": 30,
      "start": 67.7226,
      "duration": 0.1398,
      "velocity": 119,
      "chip": "ym2612"
    },
    {
      "channel": 2,
      "note": 30,
      "start": 67.8834,
      "duration": 0.1411,
      "velocity": 119,
      "chip": "ym2612"
    },
    {
      "channel": 4,
      "note": 45,
      "start": 68.0428,
      "duration": 0.3269,
      "velocity": 97,
      "chip": "ym2612"
    },
    {
      "channel": 0,
      "note": 73,
      "start": 68.3694,
      "duration": 0.3238,
      "velocity": 111,
      "chip": "ym2612"
    },
    {
      "channel": 4,
      "note": 49,
      "start": 68.3702,
      "duration": 0.3238,
      "velocity": 97,
      "chip": "ym2612"
    },
    {
      "channel": 2,
      "note": 78,
      "start": 68.3711,
      "duration": 0.2844,
      "velocity": 127,
      "chip": "ym2612"
    },
    {
      "channel": 0,
      "note": 71,
      "start": 68.6937,
      "duration": 0.3215,
      "velocity": 111,
      "chip": "ym2612"
    },
    {
      "channel": 4,
      "note": 50,
      "start": 68.6946,
      "duration": 0.1613,
      "velocity": 97,
      "chip": "ym2612"
    },
    {
      "channel": 2,
      "note": 30,
      "start": 68.6954,
      "duration": 0.1403,
      "velocity": 119,
      "chip": "ym2612"
    },
    {
      "channel": 4,
      "note": 52,
      "start": 68.8564,
      "duration": 0.1596,
      "velocity": 97,
      "chip": "ym2612"
    },
    {
      "channel": 2,
      "note": 30,
      "start": 68.8572,
      "duration": 0.1407,
      "velocity": 119,
      "chip": "ym2612"
    },
    {
      "channel": 0,
      "note": 73,
      "start": 69.0158,
      "duration": 0.3237,
      "velocity": 111,
      "chip": "ym2612"
    },
    {
      "channel": 4,
      "note": 50,
      "start": 69.0166,
      "duration": 0.3238,
      "velocity": 97,
      "chip": "ym2612"
    },
    {
      "channel": 0,
      "note": 71,
      "start": 69.3401,
      "duration": 0.3263,
      "velocity": 111,
      "chip": "ym2612"
    },
    {
      "channel": 4,
      "note": 49,
      "start": 69.3409,
      "duration": 0.3263,
      "velocity": 97,
      "chip": "ym2612"
    },
    {
      "channel": 0,
      "note": 66,
      "start": 69.6669,
      "duration": 0.3214,
      "velocity": 111,
      "chip": "ym2612"
    },
    {
      "channel": 4,
      "note": 45,
      "start": 69.6678,
      "duration": 0.3215,
      "velocity": 97,
      "chip": "ym2612"
    },
    {
      "channel": 2,
      "note": 78,
      "start": 69.6686,
      "duration": 0.1574,
      "velocity": 127,
      "chip": "ym2612"
    },
    {
      "channel": 2,
      "note": 30,
      "start": 69.8301,
      "duration": 0.1411,
      "velocity": 119,
      "chip": "ym2612"
    },
    {
      "channel": 0,
      "note": 76,
      "start": 69.9889,
      "duration": 0.3264,
      "velocity": 111,
      "chip": "ym2612"
    },
    {
      "channel": 4,
      "note": 38,
      "start": 69.9898,
      "duration": 0.3268,
      "velocity": 97,
      "chip": "ym2612"
    },
    {
      "channel": 2,
      "note": 30,
      "start": 70.1546,
      "duration": 0.141,
      "velocity": 119,
      "chip": "ym2612"
    },
    {
      "channel": 0,
      "note": 73,
      "start": 70.3159,
      "duration": 2.5947,
      "velocity": 111,
      "chip": "ym2612"
    },
    {
      "channel": 4,
      "note": 33,
      "start": 70.3171,
      "duration": 0.3211,
      "velocity": 97,
      "chip": "ym2612"
    },
    {
      "channel": 2,
      "note": 30,
      "start": 70.3183,
      "duration": 0.1399,
      "velocity": 119,
      "chip": "ym2612"
    },
    {
      "channel": 2,
      "note": 30,
      "start": 70.4789,
      "duration": 0.1411,
      "velocity": 119,
      "chip": "ym2612"
    },
    {
      "channel": 1,
      "note": 56,
      "start": 70.638,
      "duration": 0.1616,
      "velocity": 31,
      "chip": "ym2612"
    },
    {
      "channel": 4,
      "note": 40,
      "start": 70.6388,
      "duration": 0.3263,
      "velocity": 97,
      "chip": "ym2612"
    },
    {
      "channel": 1,
      "note": 57,
      "start": 70.8002,
      "duration": 0.1641,
      "velocity": 31,
      "chip": "ym2612"
    },
    {
      "channel": 1,
      "note": 56,
      "start": 70.9649,
      "duration": 0.3239,
      "velocity": 31,
      "chip": "ym2612"
    },
    {
      "channel": 4,
      "note": 44,
      "start": 70.9656,
      "duration": 0.3239,
      "velocity": 97,
      "chip": "ym2612"
    },
    {
      "channel": 2,
      "note": 78,
      "start": 70.9665,
      "duration": 0.2845,
      "velocity": 127,
      "chip": "ym2612"
    },
    {
      "channel": 1,
      "note": 56,
      "start": 71.2893,
      "duration": 0.1616,
      "velocity": 31,
      "chip": "ym2612"
    },
    {
      "channel": 4,
      "note": 45,
      "start": 71.29,
      "duration": 0.1616,
      "velocity": 97,
      "chip": "ym2612"
    },
    {
      "channel": 2,
      "note": 30,
      "start": 71.2909,
      "duration": 0.1404,
      "velocity": 119,
      "chip": "ym2612"
    },
    {
      "channel": 1,
      "note": 57,
      "start": 71.4515,
      "duration": 0.1593,
      "velocity": 31,
      "chip": "ym2612"
    },
    {
      "channel": 4,
      "note": 47,
      "start": 71.4522,
      "duration": 0.1593,
      "velocity": 97,
      "chip": "ym2612"
    },
    {
      "channel": 2,
      "note": 30,
      "start": 71.453,
      "duration": 0.1405,
      "velocity": 119,
      "chip": "ym2612"
    },
    {
      "channel": 1,
      "note": 56,
      "start": 71.6113,
      "duration": 0.3238,
      "velocity": 31,
      "chip": "ym2612"
    },
    {
      "channel": 4,
      "note": 45,
      "start": 71.612,
      "duration": 0.3238,
      "velocity": 97,
      "chip": "ym2612"
    },
    {
      "channel": 1,
      "note": 54,
      "start": 71.9356,
      "duration": 0.3263,
      "velocity": 31,
      "chip": "ym2612"
    },
    {
      "channel": 4,
      "note": 44,
      "start": 71.9363,
      "duration": 0.3263,
      "velocity": 97,
      "chip": "ym2612"
    },
    {
      "channel": 1,
      "note": 59,
      "start": 72.2625,
      "duration": 0.3213,
      "velocity": 31,
      "chip": "ym2612"
    },
    {
      "channel": 4,
      "note": 40,
      "start": 72.2632,
      "duration": 0.3213,
      "velocity": 97,
      "chip": "ym2612"
    },
    {
      "channel": 2,
      "note": 78,
      "start": 72.2641,
      "duration": 0.1571,
      "velocity": 127,
      "chip": "ym2612"
    },
    {
      "channel": 2,
      "note": 30,
      "start": 72.4255,
      "duration": 0.1412,
      "velocity": 119,
      "chip": "ym2612"
    },
    {
      "channel": 1,
      "note": 54,
      "start": 72.5844,
      "duration": 2.9221,
      "velocity": 31,
      "chip": "ym2612"
    },
    {
      "channel": 4,
      "note": 33,
      "start": 72.5851,
      "duration": 0.3267,
      "velocity": 97,
      "chip": "ym2612"
    },
    {
      "channel": 2,
      "note": 30,
      "start": 72.7499,
      "duration": 0.1412,
      "velocity": 119,
      "chip": "ym2612"
    },
    {
      "channel": 4,
      "note": 38,
      "start": 72.9123,
      "duration": 0.3205,
      "velocity": 97,
      "chip": "ym2612"
    },
    {
      "channel": 2,
      "note": 30,
      "start": 72.9135,
      "duration": 0.1396,
      "velocity": 119,
      "chip": "ym2612"
    },
    {
      "channel": 2,
      "note": 30,
      "start": 73.0742,
      "duration": 0.1411,
      "velocity": 119,
      "chip": "ym2612"
    },
    {
      "channel": 4,
      "note": 45,
      "start": 73.2334,
      "duration": 0.3269,
      "velocity": 97,
      "chip": "ym2612"
    },
    {
      "channel": 0,
      "note": 73,
      "start": 73.5598,
      "duration": 0.3239,
      "velocity": 111,
      "chip": "ym2612"
    },
    {
      "channel": 4,
      "note": 49,
      "start": 73.5608,
      "duration": 0.3239,
      "velocity": 97,
      "chip": "ym2612"
    },
    {
      "channel": 2,
      "note": 78,
      "start": 73.5617,
      "duration": 0.2845,
      "velocity": 127,
      "chip": "ym2612"
    },
    {
      "channel": 0,
      "note": 71,
      "start": 73.8843,
      "duration": 0.3214,
      "velocity": 111,
      "chip": "ym2612"
    },
    {
      "channel": 4,
      "note": 50,
      "start": 73.8853,
      "duration": 0.1612,
      "velocity": 97,
      "chip": "ym2612"
    },
    {
      "channel": 2,
      "note": 30,
      "start": 73.8862,
      "duration": 0.1403,
      "velocity": 119,
      "chip": "ym2612"
    },
    {
      "channel": 4,
      "note": 52,
      "start": 74.0471,
      "duration": 0.1597,
      "velocity": 97,
      "chip": "ym2612"
    },
    {
      "channel": 2,
      "note": 30,
      "start": 74.0479,
      "duration": 0.1408,
      "velocity": 119,
      "chip": "ym2612"
    },
    {
      "channel": 0,
      "note": 73,
      "start": 74.2062,
      "duration": 0.3237,
      "velocity": 111,
      "chip": "ym2612"
    },
    {
      "channel": 4,
      "note": 50,
      "start": 74.2073,
      "duration": 0.3238,
      "velocity": 97,
      "chip": "ym2612"
    },
    {
      "channel": 0,
      "note": 71,
      "start": 74.5305,
      "duration": 0.3264,
      "velocity": 111,
      "chip": "ym2612"
    },
    {
      "channel": 4,
      "note": 49,
      "start": 74.5316,
      "duration": 0.3264,
      "velocity": 97,
      "chip": "ym2612"
    },
    {
      "channel": 0,
      "note": 66,
      "start": 74.8575,
      "duration": 0.3212,
      "velocity": 111,
      "chip": "ym2612"
    },
    {
      "channel": 4,
      "note": 45,
      "start": 74.8585,
      "duration": 0.3213,
      "velocity": 97,
      "chip": "ym2612"
    },
    {
      "channel": 2,
      "note": 78,
      "start": 74.8594,
      "duration": 0.1571,
      "velocity": 127,
      "chip": "ym2612"
    },
    {
      "channel": 2,
      "note": 30,
      "start": 75.0208,
      "duration": 0.1411,
      "velocity": 119,
      "chip": "ym2612"
    },
    {
      "channel": 0,
      "note": 76,
      "start": 75.1793,
      "duration": 0.3264,
      "velocity": 111,
      "chip": "ym2612"
    },
    {
      "channel": 4,
      "note": 38,
      "start": 75.1803,
      "duration": 0.3267,
      "velocity": 97,
      "chip": "ym2612"
    },
    {
      "channel": 2,
      "note": 30,
      "start": 75.3452,
      "duration": 0.1411,
      "velocity": 119,
      "chip": "ym2612"
    },
    {
      "channel": 0,
      "note": 73,
      "start": 75.5063,
      "duration": 2.5949,
      "velocity": 111,
      "chip": "ym2612"
    },
    {
      "channel": 4,
      "note": 33,
      "start": 75.5076,
      "duration": 0.3212,
      "velocity": 97,
      "chip": "ym2612"
    },
    {
      "channel": 2,
      "note": 30,
      "start": 75.5087,
      "duration": 0.1395,
      "velocity": 119,
      "chip": "ym2612"
    },
    {
      "channel": 2,
      "note": 30,
      "start": 75.6694,
      "duration": 0.1411,
      "velocity": 119,
      "chip": "ym2612"
    },
    {
      "channel": 1,
      "note": 56,
      "start": 75.8285,
      "duration": 0.1616,
      "velocity": 31,
      "chip": "ym2612"
    },
    {
      "channel": 4,
      "note": 40,
      "start": 75.8293,
      "duration": 0.3262,
      "velocity": 97,
      "chip": "ym2612"
    },
    {
      "channel": 1,
      "note": 57,
      "start": 75.9907,
      "duration": 0.1641,
      "velocity": 31,
      "chip": "ym2612"
    },
    {
      "channel": 1,
      "note": 56,
      "start": 76.1553,
      "duration": 0.3239,
      "velocity": 31,
      "chip": "ym2612"
    },
    {
      "channel": 4,
      "note": 44,
      "start": 76.1561,
      "duration": 0.3239,
      "velocity": 97,
      "chip": "ym2612"
    },
    {
      "channel": 2,
      "note": 78,
      "start": 76.1569,
      "duration": 0.2845,
      "velocity": 127,
      "chip": "ym2612"
    },
    {
      "channel": 1,
      "note": 56,
      "start": 76.4797,
      "duration": 0.1617,
      "velocity": 31,
      "chip": "ym2612"
    },
    {
      "channel": 4,
      "note": 45,
      "start": 76.4805,
      "duration": 0.1617,
      "velocity": 97,
      "chip": "ym2612"
    },
    {
      "channel": 2,
      "note": 30,
      "start": 76.4813,
      "duration": 0.1404,
      "velocity": 119,
      "chip": "ym2612"
    },
    {
      "channel": 1,
      "note": 57,
      "start": 76.642,
      "duration": 0.1592,
      "velocity": 31,
      "chip": "ym2612"
    },
    {
      "channel": 4,
      "note": 47,
      "start": 76.6427,
      "duration": 0.1592,
      "velocity": 97,
      "chip": "ym2612"
    },
    {
      "channel": 2,
      "note": 30,
      "start": 76.6435,
      "duration": 0.1404,
      "velocity": 119,
      "chip": "ym2612"
    },
    {
      "channel": 1,
      "note": 56,
      "start": 76.8017,
      "duration": 0.3237,
      "velocity": 31,
      "chip": "ym2612"
    },
    {
      "channel": 4,
      "note": 45,
      "start": 76.8025,
      "duration": 0.3237,
      "velocity": 97,
      "chip": "ym2612"
    },
    {
      "channel": 1,
      "note": 54,
      "start": 77.126,
      "duration": 0.3264,
      "velocity": 31,
      "chip": "ym2612"
    },
    {
      "channel": 4,
      "note": 44,
      "start": 77.1267,
      "duration": 0.3264,
      "velocity": 97,
      "chip": "ym2612"
    },
    {
      "channel": 1,
      "note": 59,
      "start": 77.4529,
      "duration": 0.3239,
      "velocity": 31,
      "chip": "ym2612"
    },
    {
      "channel": 4,
      "note": 40,
      "start": 77.4537,
      "duration": 0.3239,
      "velocity": 97,
      "chip": "ym2612"
    },
    {
      "channel": 2,
      "note": 78,
      "start": 77.4546,
      "duration": 0.2846,
      "velocity": 127,
      "chip": "ym2612"
    },
    {
      "channel": 1,
      "note": 54,
      "start": 77.7773,
      "duration": 0.9727,
      "velocity": 31,
      "chip": "ym2612"
    },
    {
      "channel": 4,
      "note": 44,
      "start": 77.7781,
      "duration": 0.3247,
      "velocity": 97,
      "chip": "ym2612"
    },
    {
      "channel": 2,
      "note": 78,
      "start": 77.779,
      "duration": 0.1572,
      "velocity": 127,
      "chip": "ym2612"
    },
    {
      "channel": 2,
      "note": 78,
      "start": 77.9405,
      "duration": 0.1581,
      "velocity": 127,
      "chip": "ym2612"
    },
    {
      "channel": 0,
      "note": 73,
      "start": 78.1017,
      "duration": 1.6187,
      "velocity": 111,
      "chip": "ym2612"
    },
    {
      "channel": 4,
      "note": 39,
      "start": 78.1034,
      "duration": 0.3203,
      "velocity": 97,
      "chip": "ym2612"
    },
    {
      "channel": 2,
      "note": 30,
      "start": 78.1045,
      "duration": 0.1392,
      "velocity": 119,
      "chip": "ym2612"
    },
    {
      "channel": 2,
      "note": 30,
      "start": 78.2649,
      "duration": 0.141,
      "velocity": 119,
      "chip": "ym2612"
    },
    {
      "channel": 4,
      "note": 46,
      "start": 78.4242,
      "duration": 0.3266,
      "velocity": 97,
      "chip": "ym2612"
    },
    {
      "channel": 1,
      "note": 56,
      "start": 78.7505,
      "duration": 0.6462,
      "velocity": 31,
      "chip": "ym2612"
    },
    {
      "channel": 4,
      "note": 49,
      "start": 78.7513,
      "duration": 0.3235,
      "velocity": 97,
      "chip": "ym2612"
    },
    {
      "channel": 2,
      "note": 78,
      "start": 78.7522,
      "duration": 0.2846,
      "velocity": 127,
      "chip": "ym2612"
    },
    {
      "channel": 4,
      "note": 51,
      "start": 79.0754,
      "duration": 0.1617,
      "velocity": 97,
      "chip": "ym2612"
    },
    {
      "channel": 2,
      "note": 30,
      "start": 79.0762,
      "duration": 0.1408,
      "velocity": 119,
      "chip": "ym2612"
    },
    {
      "channel": 4,
      "note": 53,
      "start": 79.2376,
      "duration": 0.16,
      "velocity": 97,
      "chip": "ym2612"
    },
    {
      "channel": 2,
      "note": 30,
      "start": 79.2384,
      "duration": 0.1407,
      "velocity": 119,
      "chip": "ym2612"
    },
    {
      "channel": 1,
      "note": 58,
      "start": 79.3973,
      "duration": 0.6506,
      "velocity": 31,
      "chip": "ym2612"
    },
    {
      "channel": 4,
      "note": 54,
      "start": 79.3981,
      "duration": 0.3234,
      "velocity": 97,
      "chip": "ym2612"
    },
    {
      "channel": 0,
      "note": 75,
      "start": 79.721,
      "duration": 0.3263,
      "velocity": 111,
      "chip": "ym2612"
    },
    {
      "channel": 4,
      "note": 53,
      "start": 79.722,
      "duration": 0.3267,
      "velocity": 97,
      "chip": "ym2612"
    },
    {
      "channel": 0,
      "note": 77,
      "start": 80.0478,
      "duration": 0.3213,
      "velocity": 111,
      "chip": "ym2612"
    },
    {
      "channel": 1,
      "note": 61,
      "start": 80.0485,
      "duration": 0.6484,
      "velocity": 31,
      "chip": "ym2612"
    },
    {
      "channel": 4,
      "note": 49,
      "start": 80.0493,
      "duration": 0.321,
      "velocity": 97,
      "chip": "ym2612"
    },
    {
      "channel": 2,
      "note": 78,
      "start": 80.0502,
      "duration": 0.1568,
      "velocity": 127,
      "chip": "ym2612"
    },
    {
      "channel": 2,
      "note": 30,
      "start": 80.2113,
      "duration": 0.1411,
      "velocity": 119,
      "chip": "ym2612"
    },
    {
      "channel": 0,
      "note": 78,
      "start": 80.3698,
      "duration": 0.3265,
      "velocity": 111,
      "chip": "ym2612"
    },
    {
      "channel": 4,
      "note": 46,
      "start": 80.3708,
      "duration": 0.3271,
      "velocity": 97,
      "chip": "ym2612"
    },
    {
      "channel": 2,
      "note": 30,
      "start": 80.5357,
      "duration": 0.1411,
      "velocity": 119,
      "chip": "ym2612"
    },
    {
      "channel": 0,
      "note": 77,
      "start": 80.6968,
      "duration": 1.2945,
      "velocity": 111,
      "chip": "ym2612"
    },
    {
      "channel": 1,
      "note": 58,
      "start": 80.6975,
      "duration": 1.2945,
      "velocity": 31,
      "chip": "ym2612"
    },
    {
      "channel": 4,
      "note": 37,
      "start": 80.6985,
      "duration": 0.3204,
      "velocity": 97,
      "chip": "ym2612"
    },
    {
      "channel": 2,
      "note": 30,
      "start": 80.6996,
      "duration": 0.1393,
      "velocity": 119,
      "chip": "ym2612"
    },
    {
      "channel": 2,
      "note": 30,
      "start": 80.8601,
      "duration": 0.141,
      "velocity": 119,
      "chip": "ym2612"
    },
    {
      "channel": 4,
      "note": 44,
      "start": 81.0194,
      "duration": 0.3262,
      "velocity": 97,
      "chip": "ym2612"
    },
    {
      "channel": 4,
      "note": 46,
      "start": 81.3462,
      "duration": 0.3239,
      "velocity": 97,
      "chip": "ym2612"
    },
    {
      "channel": 2,
      "note": 78,
      "start": 81.3471,
      "duration": 0.2849,
      "velocity": 127,
      "chip": "ym2612"
    },
    {
      "channel": 4,
      "note": 49,
      "start": 81.6706,
      "duration": 0.1616,
      "velocity": 97,
      "chip": "ym2612"
    },
    {
      "channel": 2,
      "note": 30,
      "start": 81.6714,
      "duration": 0.1408,
      "velocity": 119,
      "chip": "ym2612"
    },
    {
      "channel": 4,
      "note": 51,
      "start": 81.8328,
      "duration": 0.16,
      "velocity": 97,
      "chip": "ym2612"
    },
    {
      "channel": 2,
      "note": 30,
      "start": 81.8336,
      "duration": 0.1408,
      "velocity": 119,
      "chip": "ym2612"
    },
    {
      "channel": 0,
      "note": 70,
      "start": 81.9919,
      "duration": 0.6507,
      "velocity": 111,
      "chip": "ym2612"
    },
    {
      "channel": 1,
      "note": 65,
      "start": 81.9926,
      "duration": 2.919,
      "velocity": 31,
      "chip": "ym2612"
    },
    {
      "channel": 4,
      "note": 54,
      "start": 81.9933,
      "duration": 0.323,
      "velocity": 97,
      "chip": "ym2612"
    },
    {
      "channel": 4,
      "note": 53,
      "start": 82.3169,
      "duration": 0.3268,
      "velocity": 97,
      "chip": "ym2612"
    },
    {
      "channel": 0,
      "note": 73,
      "start": 82.6432,
      "duration": 0.6482,
      "velocity": 111,
      "chip": "ym2612"
    },
    {
      "channel": 4,
      "note": 49,
      "start": 82.6443,
      "duration": 0.3209,
      "velocity": 97,
      "chip": "ym2612"
    },
    {
      "channel": 2,
      "note": 78,
      "start": 82.6451,
      "duration": 0.1571,
      "velocity": 127,
      "chip": "ym2612"
    },
    {
      "channel": 2,
      "note": 30,
      "start": 82.8066,
      "duration": 0.1411,
      "velocity": 119,
      "chip": "ym2612"
    },
    {
      "channel": 4,
      "note": 46,
      "start": 82.9657,
      "duration": 0.3274,
      "velocity": 97,
      "chip": "ym2612"
    },
    {
      "channel": 2,
      "note": 30,
      "start": 83.1309,
      "duration": 0.1411,
      "velocity": 119,
      "chip": "ym2612"
    },
    {
      "channel": 0,
      "note": 75,
      "start": 83.292,
      "duration": 1.6189,
      "velocity": 111,
      "chip": "ym2612"
    },
    {
      "channel": 4,
      "note": 36,
      "start": 83.2936,
      "duration": 0.3205,
      "velocity": 97,
      "chip": "ym2612"
    },
    {
      "channel": 2,
      "note": 30,
      "start": 83.2947,
      "duration": 0.1394,
      "velocity": 119,
      "chip": "ym2612"
    },
    {
      "channel": 2,
      "note": 30,
      "start": 83.4554,
      "duration": 0.141,
      "velocity": 119,
      "chip": "ym2612"
    },
    {
      "channel": 4,
      "note": 43,
      "start": 83.6147,
      "duration": 0.3262,
      "velocity": 97,
      "chip": "ym2612"
    },
    {
      "channel": 4,
      "note": 46,
      "start": 83.9415,
      "duration": 0.3239,
      "velocity": 97,
      "chip": "ym2612"
    },
    {
      "channel": 2,
      "note": 78,
      "start": 83.9423,
      "duration": 0.2849,
      "velocity": 127,
      "chip": "ym2612"
    },
    {
      "channel": 4,
      "note": 48,
      "start": 84.2659,
      "duration": 0.1617,
      "velocity": 97,
      "chip": "ym2612"
    },
    {
      "channel": 2,
      "note": 30,
      "start": 84.2667,
      "duration": 0.1407,
      "velocity": 119,
      "chip": "ym2612"
    },
    {
      "channel": 4,
      "note": 50,
      "start": 84.4281,
      "duration": 0.1599,
      "velocity": 97,
      "chip": "ym2612"
    },
    {
      "channel": 2,
      "note": 30,
      "start": 84.4289,
      "duration": 0.1406,
      "velocity": 119,
      "chip": "ym2612"
    },
    {
      "channel": 4,
      "note": 48,
      "start": 84.5885,
      "duration": 0.3238,
      "velocity": 97,
      "chip": "ym2612"
    },
    {
      "channel": 0,
      "note": 79,
      "start": 84.9114,
      "duration": 0.1616,
      "velocity": 111,
      "chip": "ym2612"
    },
    {
      "channel": 1,
      "note": 70,
      "start": 84.9121,
      "duration": 0.1616,
      "velocity": 31,
      "chip": "ym2612"
    },
    {
      "channel": 4,
      "note": 46,
      "start": 84.9129,
      "duration": 0.3239,
      "velocity": 97,
      "chip": "ym2612"
    },
    {
      "channel": 0,
      "note": 77,
      "start": 85.0736,
      "duration": 0.1617,
      "velocity": 111,
      "chip": "ym2612"
    },
    {
      "channel": 1,
      "note": 68,
      "start": 85.0743,
      "duration": 0.1617,
      "velocity": 31,
      "chip": "ym2612"
    },
    {
      "channel": 0,
      "note": 75,
      "start": 85.2359,
      "duration": 0.1615,
      "velocity": 111,
      "chip": "ym2612"
    },
    {
      "channel": 1,
      "note": 67,
      "start": 85.2366,
      "duration": 0.1615,
      "velocity": 31,
      "chip": "ym2612"
    },
    {
      "channel": 4,
      "note": 43,
      "start": 85.2373,
      "duration": 0.3239,
      "velocity": 97,
      "chip": "ym2612"
    },
    {
      "channel": 0,
      "note": 73,
      "start": 85.398,
      "duration": 0.1617,
      "velocity": 111,
      "chip": "ym2612"
    },
    {
      "channel": 1,
      "note": 65,
      "start": 85.3987,
      "duration": 0.1617,
      "velocity": 31,
      "chip": "ym2612"
    },
    {
      "channel": 0,
      "note": 71,
      "start": 85.5603,
      "duration": 0.1616,
      "velocity": 111,
      "chip": "ym2612"
    },
    {
      "channel": 1,
      "note": 63,
      "start": 85.561,
      "duration": 0.1616,
      "velocity": 31,
      "chip": "ym2612"
    },
    {
      "channel": 4,
      "note": 36,
      "start": 85.5617,
      "duration": 0.3258,
      "velocity": 97,
      "chip": "ym2612"
    },
    {
      "channel": 0,
      "note": 67,
      "start": 85.7224,
      "duration": 0.1641,
      "velocity": 111,
      "chip": "ym2612"
    },
    {
      "channel": 1,
      "note": 58,
      "start": 85.7231,
      "duration": 0.1638,
      "velocity": 31,
      "chip": "ym2612"
    },
    {
      "channel": 2,
      "note": 30,
      "start": 85.8888,
      "duration": 0.1399,
      "velocity": 119,
      "chip": "ym2612"
    },
    {
      "channel": 2,
      "note": 30,
      "start": 86.8608,
      "duration": 0.1411,
      "velocity": 119,
      "chip": "ym2612"
    },
    {
      "channel": 2,
      "note": 30,
      "start": 87.023,
      "duration": 0.141,
      "velocity": 119,
      "chip": "ym2612"
    }
  ]
}