{
  "track_name": "04 - Staff Roll",
  "duration_sec": 37.694,
  "sample_rate": 44100,
  "note_count": 313,
  "unique_pitches": 13,
  "pitch_range": 38,
  "avg_note_duration": 0.5407,
  "reconstruction_stats": {
    "notes_reconstructed": 313,
    "keyon_events": 313,
    "keyoff_events": 309,
    "orphan_keyons": 4,
    "unique_pitches": 13,
    "pitch_range": 38,
    "avg_duration_sec": 0.5407
  },
  "metadata": {
    "source": "F\\Fatal Labyrinth\\04 - Staff Roll.vgz"
  },
  "notes": [
    {
      "channel": 0,
      "note": 69,
      "start": 0.0,
      "duration": 1.4082,
      "velocity": 98,
      "chip": "ym2612"
    },
    {
      "channel": 1,
      "note": 45,
      "start": 0.0,
      "duration": 2.2664,
      "velocity": 79,
      "chip": "ym2612"
    },
    {
      "channel": 3,
      "note": 69,
      "start": 0.0033,
      "duration": 0.2626,
      "velocity": 79,
      "chip": "ym2612"
    },
    {
      "channel": 4,
      "note": 73,
      "start": 0.0067,
      "duration": 0.26,
      "velocity": 79,
      "chip": "ym2612"
    },
    {
      "channel": 5,
      "note": 69,
      "start": 0.127,
      "duration": 1.4252,
      "velocity": 98,
      "chip": "ym2612"
    },
    {
      "channel": 3,
      "note": 64,
      "start": 0.2665,
      "duration": 0.2852,
      "velocity": 79,
      "chip": "ym2612"
    },
    {
      "channel": 3,
      "note": 69,
      "start": 0.5524,
      "duration": 0.2849,
      "velocity": 79,
      "chip": "ym2612"
    },
    {
      "channel": 4,
      "note": 73,
      "start": 0.5532,
      "duration": 0.2849,
      "velocity": 79,
      "chip": "ym2612"
    },
    {
      "channel": 3,
      "note": 64,
      "start": 0.8379,
      "duration": 0.2854,
      "velocity": 79,
      "chip": "ym2612"
    },
    {
      "channel": 3,
      "note": 69,
      "start": 1.1239,
      "duration": 0.2854,
      "velocity": 79,
      "chip": "ym2612"
    },
    {
      "channel": 4,
      "note": 73,
      "start": 1.1247,
      "duration": 0.2854,
      "velocity": 79,
      "chip": "ym2612"
    },
    {
      "channel": 0,
      "note": 71,
      "start": 1.4088,
      "duration": 0.2853,
      "velocity": 98,
      "chip": "ym2612"
    },
    {
      "channel": 3,
      "note": 64,
      "start": 1.4099,
      "duration": 0.2854,
      "velocity": 79,
      "chip": "ym2612"
    },
    {
      "channel": 5,
      "note": 71,
      "start": 1.553,
      "duration": 0.2853,
      "velocity": 98,
      "chip": "ym2612"
    },
    {
      "channel": 0,
      "note": 73,
      "start": 1.6948,
      "duration": 0.285,
      "velocity": 98,
      "chip": "ym2612"
    },
    {
      "channel": 3,
      "note": 69,
      "start": 1.6959,
      "duration": 0.2849,
      "velocity": 79,
      "chip": "ym2612"
    },
    {
      "channel": 4,
      "note": 73,
      "start": 1.6967,
      "duration": 0.2849,
      "velocity": 79,
      "chip": "ym2612"
    },
    {
      "channel": 5,
      "note": 73,
      "start": 1.839,
      "duration": 0.2847,
      "velocity": 98,
      "chip": "ym2612"
    },
    {
      "channel": 0,
      "note": 74,
      "start": 1.9803,
      "duration": 0.2853,
      "velocity": 98,
      "chip": "ym2612"
    },
    {
      "channel": 3,
      "note": 64,
      "start": 1.9814,
      "duration": 0.2857,
      "velocity": 79,
      "chip": "ym2612"
    },
    {
      "channel": 5,
      "note": 74,
      "start": 2.1245,
      "duration": 0.2852,
      "velocity": 98,
      "chip": "ym2612"
    },
    {
      "channel": 0,
      "note": 76,
      "start": 2.2663,
      "duration": 1.428,
      "velocity": 98,
      "chip": "ym2612"
    },
    {
      "channel": 1,
      "note": 44,
      "start": 2.267,
      "duration": 2.2855,
      "velocity": 79,
      "chip": "ym2612"
    },
    {
      "channel": 3,
      "note": 68,
      "start": 2.2677,
      "duration": 0.2841,
      "velocity": 79,
      "chip": "ym2612"
    },
    {
      "channel": 4,
      "note": 71,
      "start": 2.2684,
      "duration": 0.2842,
      "velocity": 79,
      "chip": "ym2612"
    },
    {
      "channel": 5,
      "note": 76,
      "start": 2.4105,
      "duration": 1.4279,
      "velocity": 98,
      "chip": "ym2612"
    },
    {
      "channel": 3,
      "note": 64,
      "start": 2.5525,
      "duration": 0.2854,
      "velocity": 79,
      "chip": "ym2612"
    },
    {
      "channel": 3,
      "note": 68,
      "start": 2.8385,
      "duration": 0.285,
      "velocity": 79,
      "chip": "ym2612"
    },
    {
      "channel": 4,
      "note": 71,
      "start": 2.8392,
      "duration": 0.285,
      "velocity": 79,
      "chip": "ym2612"
    },
    {
      "channel": 3,
      "note": 64,
      "start": 3.124,
      "duration": 0.2853,
      "velocity": 79,
      "chip": "ym2612"
    },
    {
      "channel": 3,
      "note": 68,
      "start": 3.41,
      "duration": 0.2854,
      "velocity": 79,
      "chip": "ym2612"
    },
    {
      "channel": 4,
      "note": 71,
      "start": 3.4107,
      "duration": 0.2855,
      "velocity": 79,
      "chip": "ym2612"
    },
    {
      "channel": 0,
      "note": 74,
      "start": 3.6949,
      "duration": 0.2853,
      "velocity": 98,
      "chip": "ym2612"
    },
    {
      "channel": 3,
      "note": 64,
      "start": 3.696,
      "duration": 0.2852,
      "velocity": 79,
      "chip": "ym2612"
    },
    {
      "channel": 5,
      "note": 74,
      "start": 3.8391,
      "duration": 0.2852,
      "velocity": 98,
      "chip": "ym2612"
    },
    {
      "channel": 0,
      "note": 73,
      "start": 3.9808,
      "duration": 0.285,
      "velocity": 98,
      "chip": "ym2612"
    },
    {
      "channel": 3,
      "note": 68,
      "start": 3.9819,
      "duration": 0.285,
      "velocity": 79,
      "chip": "ym2612"
    },
    {
      "channel": 4,
      "note": 71,
      "start": 3.9826,
      "duration": 0.2851,
      "velocity": 79,
      "chip": "ym2612"
    },
    {
      "channel": 5,
      "note": 73,
      "start": 4.1251,
      "duration": 0.2848,
      "velocity": 98,
      "chip": "ym2612"
    },
    {
      "channel": 0,
      "note": 71,
      "start": 4.2664,
      "duration": 0.2853,
      "velocity": 98,
      "chip": "ym2612"
    },
    {
      "channel": 3,
      "note": 64,
      "start": 4.2675,
      "duration": 0.2857,
      "velocity": 79,
      "chip": "ym2612"
    },
    {
      "channel": 5,
      "note": 71,
      "start": 4.4106,
      "duration": 0.2853,
      "velocity": 98,
      "chip": "ym2612"
    },
    {
      "channel": 0,
      "note": 69,
      "start": 4.5523,
      "duration": 0.5709,
      "velocity": 98,
      "chip": "ym2612"
    },
    {
      "channel": 1,
      "note": 38,
      "start": 4.553,
      "duration": 2.2854,
      "velocity": 79,
      "chip": "ym2612"
    },
    {
      "channel": 3,
      "note": 66,
      "start": 4.5538,
      "duration": 0.2841,
      "velocity": 79,
      "chip": "ym2612"
    },
    {
      "channel": 4,
      "note": 69,
      "start": 4.5546,
      "duration": 0.2841,
      "velocity": 79,
      "chip": "ym2612"
    },
    {
      "channel": 5,
      "note": 69,
      "start": 4.6967,
      "duration": 0.5707,
      "velocity": 98,
      "chip": "ym2612"
    },
    {
      "channel": 3,
      "note": 62,
      "start": 4.8385,
      "duration": 0.2859,
      "velocity": 79,
      "chip": "ym2612"
    },
    {
      "channel": 0,
      "note": 71,
      "start": 5.1239,
      "duration": 0.2849,
      "velocity": 98,
      "chip": "ym2612"
    },
    {
      "channel": 3,
      "note": 66,
      "start": 5.125,
      "duration": 0.2849,
      "velocity": 79,
      "chip": "ym2612"
    },
    {
      "channel": 4,
      "note": 69,
      "start": 5.1257,
      "duration": 0.2849,
      "velocity": 79,
      "chip": "ym2612"
    },
    {
      "channel": 5,
      "note": 71,
      "start": 5.2681,
      "duration": 0.2847,
      "velocity": 98,
      "chip": "ym2612"
    },
    {
      "channel": 0,
      "note": 73,
      "start": 5.4094,
      "duration": 1.4284,
      "velocity": 98,
      "chip": "ym2612"
    },
    {
      "channel": 3,
      "note": 62,
      "start": 5.4105,
      "duration": 0.285,
      "velocity": 79,
      "chip": "ym2612"
    },
    {
      "channel": 5,
      "note": 73,
      "start": 5.5536,
      "duration": 1.4283,
      "velocity": 98,
      "chip": "ym2612"
    },
    {
      "channel": 3,
      "note": 66,
      "start": 5.6961,
      "duration": 0.2849,
      "velocity": 79,
      "chip": "ym2612"
    },
    {
      "channel": 4,
      "note": 69,
      "start": 5.6969,
      "duration": 0.2849,
      "velocity": 79,
      "chip": "ym2612"
    },
    {
      "channel": 3,
      "note": 62,
      "start": 5.9816,
      "duration": 0.2854,
      "velocity": 79,
      "chip": "ym2612"
    },
    {
      "channel": 3,
      "note": 66,
      "start": 6.2676,
      "duration": 0.285,
      "velocity": 79,
      "chip": "ym2612"
    },
    {
      "channel": 4,
      "note": 69,
      "start": 6.2684,
      "duration": 0.2849,
      "velocity": 79,
      "chip": "ym2612"
    },
    {
      "channel": 3,
      "note": 62,
      "start": 6.5532,
      "duration": 0.2861,
      "velocity": 79,
      "chip": "ym2612"
    },
    {
      "channel": 0,
      "note": 69,
      "start": 6.8383,
      "duration": 1.1425,
      "velocity": 98,
      "chip": "ym2612"
    },
    {
      "channel": 1,
      "note": 40,
      "start": 6.8391,
      "duration": 2.2881,
      "velocity": 79,
      "chip": "ym2612"
    },
    {
      "channel": 3,
      "note": 68,
      "start": 6.8398,
      "duration": 0.2842,
      "velocity": 79,
      "chip": "ym2612"
    },
    {
      "channel": 4,
      "note": 71,
      "start": 6.8406,
      "duration": 0.2842,
      "velocity": 79,
      "chip": "ym2612"
    },
    {
      "channel": 5,
      "note": 69,
      "start": 6.9827,
      "duration": 1.1422,
      "velocity": 98,
      "chip": "ym2612"
    },
    {
      "channel": 3,
      "note": 64,
      "start": 7.1246,
      "duration": 0.2854,
      "velocity": 79,
      "chip": "ym2612"
    },
    {
      "channel": 3,
      "note": 68,
      "start": 7.4106,
      "duration": 0.2849,
      "velocity": 79,
      "chip": "ym2612"
    },
    {
      "channel": 4,
      "note": 71,
      "start": 7.4113,
      "duration": 0.285,
      "velocity": 79,
      "chip": "ym2612"
    },
    {
      "channel": 3,
      "note": 64,
      "start": 7.6962,
      "duration": 0.2858,
      "velocity": 79,
      "chip": "ym2612"
    },
    {
      "channel": 0,
      "note": 68,
      "start": 7.9815,
      "duration": 1.1425,
      "velocity": 98,
      "chip": "ym2612"
    },
    {
      "channel": 3,
      "note": 68,
      "start": 7.9826,
      "duration": 0.2845,
      "velocity": 79,
      "chip": "ym2612"
    },
    {
      "channel": 4,
      "note": 71,
      "start": 7.9833,
      "duration": 0.2845,
      "velocity": 79,
      "chip": "ym2612"
    },
    {
      "channel": 5,
      "note": 68,
      "start": 8.1256,
      "duration": 1.1424,
      "velocity": 98,
      "chip": "ym2612"
    },
    {
      "channel": 3,
      "note": 64,
      "start": 8.2677,
      "duration": 0.2854,
      "velocity": 79,
      "chip": "ym2612"
    },
    {
      "channel": 3,
      "note": 68,
      "start": 8.5536,
      "duration": 0.2849,
      "velocity": 79,
      "chip": "ym2612"
    },
    {
      "channel": 4,
      "note": 71,
      "start": 8.5544,
      "duration": 0.2849,
      "velocity": 79,
      "chip": "ym2612"
    },
    {
      "channel": 3,
      "note": 64,
      "start": 8.8392,
      "duration": 0.2889,
      "velocity": 79,
      "chip": "ym2612"
    },
    {
      "channel": 0,
      "note": 69,
      "start": 9.1246,
      "duration": 1.4278,
      "velocity": 98,
      "chip": "ym2612"
    },
    {
      "channel": 1,
      "note": 45,
      "start": 9.1278,
      "duration": 2.2828,
      "velocity": 79,
      "chip": "ym2612"
    },
    {
      "channel": 3,
      "note": 69,
      "start": 9.1287,
      "duration": 0.2814,
      "velocity": 79,
      "chip": "ym2612"
    },
    {
      "channel": 4,
      "note": 73,
      "start": 9.1296,
      "duration": 0.2812,
      "velocity": 79,
      "chip": "ym2612"
    },
    {
      "channel": 5,
      "note": 69,
      "start": 9.2687,
      "duration": 1.4278,
      "velocity": 98,
      "chip": "ym2612"
    },
    {
      "channel": 3,
      "note": 64,
      "start": 9.4106,
      "duration": 0.2855,
      "velocity": 79,
      "chip": "ym2612"
    },
    {
      "channel": 3,
      "note": 69,
      "start": 9.6967,
      "duration": 0.2849,
      "velocity": 79,
      "chip": "ym2612"
    },
    {
      "channel": 4,
      "note": 73,
      "start": 9.6974,
      "duration": 0.2849,
      "velocity": 79,
      "chip": "ym2612"
    },
    {
      "channel": 3,
      "note": 64,
      "start": 9.9822,
      "duration": 0.2854,
      "velocity": 79,
      "chip": "ym2612"
    },
    {
      "channel": 3,
      "note": 69,
      "start": 10.2682,
      "duration": 0.2853,
      "velocity": 79,
      "chip": "ym2612"
    },
    {
      "channel": 4,
      "note": 73,
      "start": 10.2689,
      "duration": 0.2853,
      "velocity": 79,
      "chip": "ym2612"
    },
    {
      "channel": 0,
      "note": 71,
      "start": 10.553,
      "duration": 0.2854,
      "velocity": 98,
      "chip": "ym2612"
    },
    {
      "channel": 3,
      "note": 64,
      "start": 10.5541,
      "duration": 0.2854,
      "velocity": 79,
      "chip": "ym2612"
    },
    {
      "channel": 5,
      "note": 71,
      "start": 10.6972,
      "duration": 0.2852,
      "velocity": 98,
      "chip": "ym2612"
    },
    {
      "channel": 0,
      "note": 73,
      "start": 10.839,
      "duration": 0.2849,
      "velocity": 98,
      "chip": "ym2612"
    },
    {
      "channel": 3,
      "note": 69,
      "start": 10.8401,
      "duration": 0.285,
      "velocity": 79,
      "chip": "ym2612"
    },
    {
      "channel": 4,
      "note": 73,
      "start": 10.8409,
      "duration": 0.2849,
      "velocity": 79,
      "chip": "ym2612"
    },
    {
      "channel": 5,
      "note": 73,
      "start": 10.9832,
      "duration": 0.2847,
      "velocity": 98,
      "chip": "ym2612"
    },
    {
      "channel": 0,
      "note": 74,
      "start": 11.1246,
      "duration": 0.2853,
      "velocity": 98,
      "chip": "ym2612"
    },
    {
      "channel": 3,
      "note": 64,
      "start": 11.1257,
      "duration": 0.2857,
      "velocity": 79,
      "chip": "ym2612"
    },
    {
      "channel": 5,
      "note": 74,
      "start": 11.2686,
      "duration": 0.2854,
      "velocity": 98,
      "chip": "ym2612"
    },
    {
      "channel": 0,
      "note": 76,
      "start": 11.4105,
      "duration": 1.4279,
      "velocity": 98,
      "chip": "ym2612"
    },
    {
      "channel": 1,
      "note": 44,
      "start": 11.4113,
      "duration": 2.2854,
      "velocity": 79,
      "chip": "ym2612"
    },
    {
      "channel": 3,
      "note": 68,
      "start": 11.412,
      "duration": 0.2842,
      "velocity": 79,
      "chip": "ym2612"
    },
    {
      "channel": 4,
      "note": 71,
      "start": 11.4128,
      "duration": 0.2841,
      "velocity": 79,
      "chip": "ym2612"
    },
    {
      "channel": 5,
      "note": 76,
      "start": 11.5548,
      "duration": 1.4277,
      "velocity": 98,
      "chip": "ym2612"
    },
    {
      "channel": 3,
      "note": 64,
      "start": 11.6968,
      "duration": 0.2852,
      "velocity": 79,
      "chip": "ym2612"
    },
    {
      "channel": 3,
      "note": 68,
      "start": 11.9826,
      "duration": 0.2851,
      "velocity": 79,
      "chip": "ym2612"
    },
    {
      "channel": 4,
      "note": 71,
      "start": 11.9834,
      "duration": 0.2851,
      "velocity": 79,
      "chip": "ym2612"
    },
    {
      "channel": 3,
      "note": 64,
      "start": 12.2683,
      "duration": 0.2854,
      "velocity": 79,
      "chip": "ym2612"
    },
    {
      "channel": 3,
      "note": 68,
      "start": 12.5542,
      "duration": 0.2853,
      "velocity": 79,
      "chip": "ym2612"
    },
    {
      "channel": 4,
      "note": 71,
      "start": 12.555,
      "duration": 0.2853,
      "velocity": 79,
      "chip": "ym2612"
    },
    {
      "channel": 0,
      "note": 74,
      "start": 12.8391,
      "duration": 0.2853,
      "velocity": 98,
      "chip": "ym2612"
    },
    {
      "channel": 3,
      "note": 64,
      "start": 12.8402,
      "duration": 0.2853,
      "velocity": 79,
      "chip": "ym2612"
    },
    {
      "channel": 5,
      "note": 74,
      "start": 12.9832,
      "duration": 0.2853,
      "velocity": 98,
      "chip": "ym2612"
    },
    {
      "channel": 0,
      "note": 73,
      "start": 13.125,
      "duration": 0.2852,
      "velocity": 98,
      "chip": "ym2612"
    },
    {
      "channel": 3,
      "note": 68,
      "start": 13.1261,
      "duration": 0.2853,
      "velocity": 79,
      "chip": "ym2612"
    },
    {
      "channel": 4,
      "note": 71,
      "start": 13.1268,
      "duration": 0.2852,
      "velocity": 79,
      "chip": "ym2612"
    },
    {
      "channel": 5,
      "note": 73,
      "start": 13.2693,
      "duration": 0.2847,
      "velocity": 98,
      "chip": "ym2612"
    },
    {
      "channel": 0,
      "note": 71,
      "start": 13.4108,
      "duration": 0.2852,
      "velocity": 98,
      "chip": "ym2612"
    },
    {
      "channel": 3,
      "note": 64,
      "start": 13.4119,
      "duration": 0.2856,
      "velocity": 79,
      "chip": "ym2612"
    },
    {
      "channel": 5,
      "note": 71,
      "start": 13.5547,
      "duration": 0.2853,
      "velocity": 98,
      "chip": "ym2612"
    },
    {
      "channel": 0,
      "note": 69,
      "start": 13.6966,
      "duration": 0.5709,
      "velocity": 98,
      "chip": "ym2612"
    },
    {
      "channel": 1,
      "note": 38,
      "start": 13.6974,
      "duration": 2.2853,
      "velocity": 79,
      "chip": "ym2612"
    },
    {
      "channel": 3,
      "note": 66,
      "start": 13.6981,
      "duration": 0.2842,
      "velocity": 79,
      "chip": "ym2612"
    },
    {
      "channel": 4,
      "note": 69,
      "start": 13.6988,
      "duration": 0.2841,
      "velocity": 79,
      "chip": "ym2612"
    },
    {
      "channel": 5,
      "note": 69,
      "start": 13.8407,
      "duration": 0.5708,
      "velocity": 98,
      "chip": "ym2612"
    },
    {
      "channel": 3,
      "note": 62,
      "start": 13.9828,
      "duration": 0.2857,
      "velocity": 79,
      "chip": "ym2612"
    },
    {
      "channel": 0,
      "note": 71,
      "start": 14.268,
      "duration": 0.2849,
      "velocity": 98,
      "chip": "ym2612"
    },
    {
      "channel": 3,
      "note": 66,
      "start": 14.2691,
      "duration": 0.2849,
      "velocity": 79,
      "chip": "ym2612"
    },
    {
      "channel": 4,
      "note": 69,
      "start": 14.2699,
      "duration": 0.2849,
      "velocity": 79,
      "chip": "ym2612"
    },
    {
      "channel": 5,
      "note": 71,
      "start": 14.4123,
      "duration": 0.2846,
      "velocity": 98,
      "chip": "ym2612"
    },
    {
      "channel": 0,
      "note": 73,
      "start": 14.5536,
      "duration": 1.4283,
      "velocity": 98,
      "chip": "ym2612"
    },
    {
      "channel": 3,
      "note": 62,
      "start": 14.5547,
      "duration": 0.2849,
      "velocity": 79,
      "chip": "ym2612"
    },
    {
      "channel": 5,
      "note": 73,
      "start": 14.6978,
      "duration": 1.4283,
      "velocity": 98,
      "chip": "ym2612"
    },
    {
      "channel": 3,
      "note": 66,
      "start": 14.8402,
      "duration": 0.285,
      "velocity": 79,
      "chip": "ym2612"
    },
    {
      "channel": 4,
      "note": 69,
      "start": 14.841,
      "duration": 0.2851,
      "velocity": 79,
      "chip": "ym2612"
    },
    {
      "channel": 3,
      "note": 62,
      "start": 15.1258,
      "duration": 0.2854,
      "velocity": 79,
      "chip": "ym2612"
    },
    {
      "channel": 3,
      "note": 66,
      "start": 15.4117,
      "duration": 0.2851,
      "velocity": 79,
      "chip": "ym2612"
    },
    {
      "channel": 4,
      "note": 69,
      "start": 15.4126,
      "duration": 0.285,
      "velocity": 79,
      "chip": "ym2612"
    },
    {
      "channel": 3,
      "note": 62,
      "start": 15.6974,
      "duration": 0.2861,
      "velocity": 79,
      "chip": "ym2612"
    },
    {
      "channel": 0,
      "note": 69,
      "start": 15.9826,
      "duration": 1.1424,
      "velocity": 98,
      "chip": "ym2612"
    },
    {
      "channel": 1,
      "note": 40,
      "start": 15.9832,
      "duration": 2.2881,
      "velocity": 79,
      "chip": "ym2612"
    },
    {
      "channel": 3,
      "note": 68,
      "start": 15.984,
      "duration": 0.2842,
      "velocity": 79,
      "chip": "ym2612"
    },
    {
      "channel": 4,
      "note": 71,
      "start": 15.9848,
      "duration": 0.2842,
      "velocity": 79,
      "chip": "ym2612"
    },
    {
      "channel": 5,
      "note": 69,
      "start": 16.1268,
      "duration": 1.1422,
      "velocity": 98,
      "chip": "ym2612"
    },
    {
      "channel": 3,
      "note": 64,
      "start": 16.2688,
      "duration": 0.2854,
      "velocity": 79,
      "chip": "ym2612"
    },
    {
      "channel": 3,
      "note": 68,
      "start": 16.5548,
      "duration": 0.2849,
      "velocity": 79,
      "chip": "ym2612"
    },
    {
      "channel": 4,
      "note": 71,
      "start": 16.5555,
      "duration": 0.2849,
      "velocity": 79,
      "chip": "ym2612"
    },
    {
      "channel": 3,
      "note": 64,
      "start": 16.8403,
      "duration": 0.2858,
      "velocity": 79,
      "chip": "ym2612"
    },
    {
      "channel": 0,
      "note": 68,
      "start": 17.1256,
      "duration": 1.1424,
      "velocity": 98,
      "chip": "ym2612"
    },
    {
      "channel": 3,
      "note": 68,
      "start": 17.1267,
      "duration": 0.2846,
      "velocity": 79,
      "chip": "ym2612"
    },
    {
      "channel": 4,
      "note": 71,
      "start": 17.1275,
      "duration": 0.2846,
      "velocity": 79,
      "chip": "ym2612"
    },
    {
      "channel": 5,
      "note": 68,
      "start": 17.2698,
      "duration": 1.1424,
      "velocity": 98,
      "chip": "ym2612"
    },
    {
      "channel": 3,
      "note": 64,
      "start": 17.4119,
      "duration": 0.2854,
      "velocity": 79,
      "chip": "ym2612"
    },
    {
      "channel": 3,
      "note": 68,
      "start": 17.6978,
      "duration": 0.285,
      "velocity": 79,
      "chip": "ym2612"
    },
    {
      "channel": 4,
      "note": 71,
      "start": 17.6986,
      "duration": 0.285,
      "velocity": 79,
      "chip": "ym2612"
    },
    {
      "channel": 3,
      "note": 64,
      "start": 17.9834,
      "duration": 0.2888,
      "velocity": 79,
      "chip": "ym2612"
    },
    {
      "channel": 0,
      "note": 69,
      "start": 18.2687,
      "duration": 0.8564,
      "velocity": 98,
      "chip": "ym2612"
    },
    {
      "channel": 1,
      "note": 45,
      "start": 18.2719,
      "duration": 2.2829,
      "velocity": 79,
      "chip": "ym2612"
    },
    {
      "channel": 3,
      "note": 69,
      "start": 18.2728,
      "duration": 0.2815,
      "velocity": 79,
      "chip": "ym2612"
    },
    {
      "channel": 4,
      "note": 73,
      "start": 18.2736,
      "duration": 0.2815,
      "velocity": 79,
      "chip": "ym2612"
    },
    {
      "channel": 5,
      "note": 69,
      "start": 18.413,
      "duration": 0.8561,
      "velocity": 98,
      "chip": "ym2612"
    },
    {
      "channel": 3,
      "note": 64,
      "start": 18.5549,
      "duration": 0.2853,
      "velocity": 79,
      "chip": "ym2612"
    },
    {
      "channel": 3,
      "note": 69,
      "start": 18.8408,
      "duration": 0.2854,
      "velocity": 79,
      "chip": "ym2612"
    },
    {
      "channel": 4,
      "note": 73,
      "start": 18.8415,
      "duration": 0.2855,
      "velocity": 79,
      "chip": "ym2612"
    },
    {
      "channel": 0,
      "note": 71,
      "start": 19.1257,
      "duration": 0.8568,
      "velocity": 98,
      "chip": "ym2612"
    },
    {
      "channel": 3,
      "note": 64,
      "start": 19.1268,
      "duration": 0.2849,
      "velocity": 79,
      "chip": "ym2612"
    },
    {
      "channel": 5,
      "note": 71,
      "start": 19.2699,
      "duration": 0.8569,
      "velocity": 98,
      "chip": "ym2612"
    },
    {
      "channel": 3,
      "note": 69,
      "start": 19.4124,
      "duration": 0.2849,
      "velocity": 79,
      "chip": "ym2612"
    },
    {
      "channel": 4,
      "note": 73,
      "start": 19.4132,
      "duration": 0.2849,
      "velocity": 79,
      "chip": "ym2612"
    },
    {
      "channel": 3,
      "note": 64,
      "start": 19.6979,
      "duration": 0.2857,
      "velocity": 79,
      "chip": "ym2612"
    },
    {
      "channel": 0,
      "note": 68,
      "start": 19.9831,
      "duration": 0.5709,
      "velocity": 98,
      "chip": "ym2612"
    },
    {
      "channel": 3,
      "note": 69,
      "start": 19.9842,
      "duration": 0.2846,
      "velocity": 79,
      "chip": "ym2612"
    },
    {
      "channel": 4,
      "note": 73,
      "start": 19.985,
      "duration": 0.2847,
      "velocity": 79,
      "chip": "ym2612"
    },
    {
      "channel": 5,
      "note": 68,
      "start": 20.1275,
      "duration": 0.5707,
      "velocity": 98,
      "chip": "ym2612"
    },
    {
      "channel": 3,
      "note": 64,
      "start": 20.2695,
      "duration": 0.2861,
      "velocity": 79,
      "chip": "ym2612"
    },
    {
      "channel": 0,
      "note": 69,
      "start": 20.5547,
      "duration": 0.8564,
      "velocity": 98,
      "chip": "ym2612"
    },
    {
      "channel": 1,
      "note": 44,
      "start": 20.5554,
      "duration": 2.2855,
      "velocity": 79,
      "chip": "ym2612"
    },
    {
      "channel": 3,
      "note": 68,
      "start": 20.5561,
      "duration": 0.2842,
      "velocity": 79,
      "chip": "ym2612"
    },
    {
      "channel": 4,
      "note": 71,
      "start": 20.5568,
      "duration": 0.2843,
      "velocity": 79,
      "chip": "ym2612"
    },
    {
      "channel": 5,
      "note": 69,
      "start": 20.699,
      "duration": 0.8562,
      "velocity": 98,
      "chip": "ym2612"
    },
    {
      "channel": 3,
      "note": 64,
      "start": 20.841,
      "duration": 0.2854,
      "velocity": 79,
      "chip": "ym2612"
    },
    {
      "channel": 3,
      "note": 68,
      "start": 21.1269,
      "duration": 0.2853,
      "velocity": 79,
      "chip": "ym2612"
    },
    {
      "channel": 4,
      "note": 71,
      "start": 21.1277,
      "duration": 0.2854,
      "velocity": 79,
      "chip": "ym2612"
    },
    {
      "channel": 0,
      "note": 71,
      "start": 21.4117,
      "duration": 0.8568,
      "velocity": 98,
      "chip": "ym2612"
    },
    {
      "channel": 3,
      "note": 64,
      "start": 21.4129,
      "duration": 0.2849,
      "velocity": 79,
      "chip": "ym2612"
    },
    {
      "channel": 5,
      "note": 71,
      "start": 21.5559,
      "duration": 0.8568,
      "velocity": 98,
      "chip": "ym2612"
    },
    {
      "channel": 3,
      "note": 68,
      "start": 21.6984,
      "duration": 0.285,
      "velocity": 79,
      "chip": "ym2612"
    },
    {
      "channel": 4,
      "note": 71,
      "start": 21.6992,
      "duration": 0.285,
      "velocity": 79,
      "chip": "ym2612"
    },
    {
      "channel": 3,
      "note": 64,
      "start": 21.984,
      "duration": 0.2856,
      "velocity": 79,
      "chip": "ym2612"
    },
    {
      "channel": 0,
      "note": 68,
      "start": 22.2692,
      "duration": 0.5709,
      "velocity": 98,
      "chip": "ym2612"
    },
    {
      "channel": 3,
      "note": 68,
      "start": 22.2703,
      "duration": 0.2846,
      "velocity": 79,
      "chip": "ym2612"
    },
    {
      "channel": 4,
      "note": 71,
      "start": 22.271,
      "duration": 0.2846,
      "velocity": 79,
      "chip": "ym2612"
    },
    {
      "channel": 5,
      "note": 68,
      "start": 22.4135,
      "duration": 0.5707,
      "velocity": 98,
      "chip": "ym2612"
    },
    {
      "channel": 3,
      "note": 64,
      "start": 22.5555,
      "duration": 0.2862,
      "velocity": 79,
      "chip": "ym2612"
    },
    {
      "channel": 0,
      "note": 69,
      "start": 22.8407,
      "duration": 0.8565,
      "velocity": 98,
      "chip": "ym2612"
    },
    {
      "channel": 1,
      "note": 38,
      "start": 22.8415,
      "duration": 2.2855,
      "velocity": 79,
      "chip": "ym2612"
    },
    {
      "channel": 3,
      "note": 66,
      "start": 22.8422,
      "duration": 0.2841,
      "velocity": 79,
      "chip": "ym2612"
    },
    {
      "channel": 4,
      "note": 69,
      "start": 22.843,
      "duration": 0.2841,
      "velocity": 79,
      "chip": "ym2612"
    },
    {
      "channel": 5,
      "note": 69,
      "start": 22.9849,
      "duration": 0.8562,
      "velocity": 98,
      "chip": "ym2612"
    },
    {
      "channel": 3,
      "note": 62,
      "start": 23.127,
      "duration": 0.2853,
      "velocity": 79,
      "chip": "ym2612"
    },
    {
      "channel": 3,
      "note": 66,
      "start": 23.413,
      "duration": 0.2853,
      "velocity": 79,
      "chip": "ym2612"
    },
    {
      "channel": 4,
      "note": 69,
      "start": 23.4137,
      "duration": 0.2854,
      "velocity": 79,
      "chip": "ym2612"
    },
    {
      "channel": 0,
      "note": 71,
      "start": 23.6979,
      "duration": 0.8568,
      "velocity": 98,
      "chip": "ym2612"
    },
    {
      "channel": 3,
      "note": 62,
      "start": 23.699,
      "duration": 0.2849,
      "velocity": 79,
      "chip": "ym2612"
    },
    {
      "channel": 5,
      "note": 71,
      "start": 23.8419,
      "duration": 0.8569,
      "velocity": 98,
      "chip": "ym2612"
    },
    {
      "channel": 3,
      "note": 66,
      "start": 23.9844,
      "duration": 0.2851,
      "velocity": 79,
      "chip": "ym2612"
    },
    {
      "channel": 4,
      "note": 69,
      "start": 23.9852,
      "duration": 0.285,
      "velocity": 79,
      "chip": "ym2612"
    },
    {
      "channel": 3,
      "note": 62,
      "start": 24.27,
      "duration": 0.2858,
      "velocity": 79,
      "chip": "ym2612"
    },
    {
      "channel": 0,
      "note": 68,
      "start": 24.5553,
      "duration": 0.5709,
      "velocity": 98,
      "chip": "ym2612"
    },
    {
      "channel": 3,
      "note": 66,
      "start": 24.5564,
      "duration": 0.2845,
      "velocity": 79,
      "chip": "ym2612"
    },
    {
      "channel": 4,
      "note": 69,
      "start": 24.5571,
      "duration": 0.2846,
      "velocity": 79,
      "chip": "ym2612"
    },
    {
      "channel": 5,
      "note": 68,
      "start": 24.6995,
      "duration": 0.5707,
      "velocity": 98,
      "chip": "ym2612"
    },
    {
      "channel": 3,
      "note": 62,
      "start": 24.8415,
      "duration": 0.2862,
      "velocity": 79,
      "chip": "ym2612"
    },
    {
      "channel": 0,
      "note": 69,
      "start": 25.1268,
      "duration": 1.1424,
      "velocity": 98,
      "chip": "ym2612"
    },
    {
      "channel": 1,
      "note": 40,
      "start": 25.1275,
      "duration": 2.2881,
      "velocity": 79,
      "chip": "ym2612"
    },
    {
      "channel": 3,
      "note": 68,
      "start": 25.1283,
      "duration": 0.2842,
      "velocity": 79,
      "chip": "ym2612"
    },
    {
      "channel": 4,
      "note": 71,
      "start": 25.129,
      "duration": 0.2842,
      "velocity": 79,
      "chip": "ym2612"
    },
    {
      "channel": 5,
      "note": 69,
      "start": 25.271,
      "duration": 1.1424,
      "velocity": 98,
      "chip": "ym2612"
    },
    {
      "channel": 3,
      "note": 64,
      "start": 25.4132,
      "duration": 0.2852,
      "velocity": 79,
      "chip": "ym2612"
    },
    {
      "channel": 3,
      "note": 68,
      "start": 25.699,
      "duration": 0.2849,
      "velocity": 79,
      "chip": "ym2612"
    },
    {
      "channel": 4,
      "note": 71,
      "start": 25.6997,
      "duration": 0.2849,
      "velocity": 79,
      "chip": "ym2612"
    },
    {
      "channel": 3,
      "note": 64,
      "start": 25.9845,
      "duration": 0.2858,
      "velocity": 79,
      "chip": "ym2612"
    },
    {
      "channel": 0,
      "note": 68,
      "start": 26.2698,
      "duration": 1.1425,
      "velocity": 98,
      "chip": "ym2612"
    },
    {
      "channel": 3,
      "note": 68,
      "start": 26.2709,
      "duration": 0.2846,
      "velocity": 79,
      "chip": "ym2612"
    },
    {
      "channel": 4,
      "note": 71,
      "start": 26.2717,
      "duration": 0.2845,
      "velocity": 79,
      "chip": "ym2612"
    },
    {
      "channel": 5,
      "note": 68,
      "start": 26.4141,
      "duration": 1.1424,
      "velocity": 98,
      "chip": "ym2612"
    },
    {
      "channel": 3,
      "note": 64,
      "start": 26.5561,
      "duration": 0.2854,
      "velocity": 79,
      "chip": "ym2612"
    },
    {
      "channel": 3,
      "note": 68,
      "start": 26.8421,
      "duration": 0.2849,
      "velocity": 79,
      "chip": "ym2612"
    },
    {
      "channel": 4,
      "note": 71,
      "start": 26.8428,
      "duration": 0.2849,
      "velocity": 79,
      "chip": "ym2612"
    },
    {
      "channel": 3,
      "note": 64,
      "start": 27.1275,
      "duration": 0.2889,
      "velocity": 79,
      "chip": "ym2612"
    },
    {
      "channel": 0,
      "note": 69,
      "start": 27.413,
      "duration": 0.8563,
      "velocity": 98,
      "chip": "ym2612"
    },
    {
      "channel": 1,
      "note": 45,
      "start": 27.4163,
      "duration": 2.2827,
      "velocity": 79,
      "chip": "ym2612"
    },
    {
      "channel": 3,
      "note": 69,
      "start": 27.4171,
      "duration": 0.2814,
      "velocity": 79,
      "chip": "ym2612"
    },
    {
      "channel": 4,
      "note": 73,
      "start": 27.4179,
      "duration": 0.2813,
      "velocity": 79,
      "chip": "ym2612"
    },
    {
      "channel": 5,
      "note": 69,
      "start": 27.5572,
      "duration": 0.8562,
      "velocity": 98,
      "chip": "ym2612"
    },
    {
      "channel": 3,
      "note": 64,
      "start": 27.6991,
      "duration": 0.2854,
      "velocity": 79,
      "chip": "ym2612"
    },
    {
      "channel": 3,
      "note": 69,
      "start": 27.985,
      "duration": 0.2854,
      "velocity": 79,
      "chip": "ym2612"
    },
    {
      "channel": 4,
      "note": 73,
      "start": 27.9858,
      "duration": 0.2854,
      "velocity": 79,
      "chip": "ym2612"
    },
    {
      "channel": 0,
      "note": 71,
      "start": 28.27,
      "duration": 0.8569,
      "velocity": 98,
      "chip": "ym2612"
    },
    {
      "channel": 3,
      "note": 64,
      "start": 28.271,
      "duration": 0.285,
      "velocity": 79,
      "chip": "ym2612"
    },
    {
      "channel": 5,
      "note": 71,
      "start": 28.4141,
      "duration": 0.8567,
      "velocity": 98,
      "chip": "ym2612"
    },
    {
      "channel": 3,
      "note": 69,
      "start": 28.5566,
      "duration": 0.2849,
      "velocity": 79,
      "chip": "ym2612"
    },
    {
      "channel": 4,
      "note": 73,
      "start": 28.5574,
      "duration": 0.2849,
      "velocity": 79,
      "chip": "ym2612"
    },
    {
      "channel": 3,
      "note": 64,
      "start": 28.8421,
      "duration": 0.2858,
      "velocity": 79,
      "chip": "ym2612"
    },
    {
      "channel": 0,
      "note": 68,
      "start": 29.1275,
      "duration": 0.5708,
      "velocity": 98,
      "chip": "ym2612"
    },
    {
      "channel": 3,
      "note": 69,
      "start": 29.1285,
      "duration": 0.2846,
      "velocity": 79,
      "chip": "ym2612"
    },
    {
      "channel": 4,
      "note": 73,
      "start": 29.1293,
      "duration": 0.2846,
      "velocity": 79,
      "chip": "ym2612"
    },
    {
      "channel": 5,
      "note": 68,
      "start": 29.2715,
      "duration": 0.5708,
      "velocity": 98,
      "chip": "ym2612"
    },
    {
      "channel": 3,
      "note": 64,
      "start": 29.4137,
      "duration": 0.286,
      "velocity": 79,
      "chip": "ym2612"
    },
    {
      "channel": 0,
      "note": 69,
      "start": 29.6988,
      "duration": 0.8566,
      "velocity": 98,
      "chip": "ym2612"
    },
    {
      "channel": 1,
      "note": 44,
      "start": 29.6996,
      "duration": 2.2855,
      "velocity": 79,
      "chip": "ym2612"
    },
    {
      "channel": 3,
      "note": 68,
      "start": 29.7003,
      "duration": 0.2842,
      "velocity": 79,
      "chip": "ym2612"
    },
    {
      "channel": 4,
      "note": 71,
      "start": 29.7011,
      "duration": 0.2842,
      "velocity": 79,
      "chip": "ym2612"
    },
    {
      "channel": 5,
      "note": 69,
      "start": 29.8431,
      "duration": 0.8562,
      "velocity": 98,
      "chip": "ym2612"
    },
    {
      "channel": 3,
      "note": 64,
      "start": 29.9851,
      "duration": 0.2857,
      "velocity": 79,
      "chip": "ym2612"
    },
    {
      "channel": 3,
      "note": 68,
      "start": 30.2714,
      "duration": 0.285,
      "velocity": 79,
      "chip": "ym2612"
    },
    {
      "channel": 4,
      "note": 71,
      "start": 30.2722,
      "duration": 0.2851,
      "velocity": 79,
      "chip": "ym2612"
    },
    {
      "channel": 0,
      "note": 71,
      "start": 30.556,
      "duration": 0.8569,
      "velocity": 98,
      "chip": "ym2612"
    },
    {
      "channel": 3,
      "note": 64,
      "start": 30.5571,
      "duration": 0.2849,
      "velocity": 79,
      "chip": "ym2612"
    },
    {
      "channel": 5,
      "note": 71,
      "start": 30.7001,
      "duration": 0.8567,
      "velocity": 98,
      "chip": "ym2612"
    },
    {
      "channel": 3,
      "note": 68,
      "start": 30.8425,
      "duration": 0.2851,
      "velocity": 79,
      "chip": "ym2612"
    },
    {
      "channel": 4,
      "note": 71,
      "start": 30.8433,
      "duration": 0.285,
      "velocity": 79,
      "chip": "ym2612"
    },
    {
      "channel": 3,
      "note": 64,
      "start": 31.1282,
      "duration": 0.2858,
      "velocity": 79,
      "chip": "ym2612"
    },
    {
      "channel": 0,
      "note": 68,
      "start": 31.4135,
      "duration": 0.5708,
      "velocity": 98,
      "chip": "ym2612"
    },
    {
      "channel": 3,
      "note": 68,
      "start": 31.4146,
      "duration": 0.2845,
      "velocity": 79,
      "chip": "ym2612"
    },
    {
      "channel": 4,
      "note": 71,
      "start": 31.4153,
      "duration": 0.2846,
      "velocity": 79,
      "chip": "ym2612"
    },
    {
      "channel": 5,
      "note": 68,
      "start": 31.5576,
      "duration": 0.5708,
      "velocity": 98,
      "chip": "ym2612"
    },
    {
      "channel": 3,
      "note": 64,
      "start": 31.6997,
      "duration": 0.2861,
      "velocity": 79,
      "chip": "ym2612"
    },
    {
      "channel": 0,
      "note": 69,
      "start": 31.985,
      "duration": 0.8564,
      "velocity": 98,
      "chip": "ym2612"
    },
    {
      "channel": 1,
      "note": 38,
      "start": 31.9857,
      "duration": 2.2854,
      "velocity": 79,
      "chip": "ym2612"
    },
    {
      "channel": 3,
      "note": 66,
      "start": 31.9864,
      "duration": 0.2841,
      "velocity": 79,
      "chip": "ym2612"
    },
    {
      "channel": 4,
      "note": 69,
      "start": 31.9871,
      "duration": 0.2841,
      "velocity": 79,
      "chip": "ym2612"
    },
    {
      "channel": 5,
      "note": 69,
      "start": 32.1293,
      "duration": 0.8562,
      "velocity": 98,
      "chip": "ym2612"
    },
    {
      "channel": 3,
      "note": 62,
      "start": 32.2712,
      "duration": 0.2854,
      "velocity": 79,
      "chip": "ym2612"
    },
    {
      "channel": 3,
      "note": 66,
      "start": 32.5571,
      "duration": 0.2854,
      "velocity": 79,
      "chip": "ym2612"
    },
    {
      "channel": 4,
      "note": 69,
      "start": 32.5579,
      "duration": 0.2854,
      "velocity": 79,
      "chip": "ym2612"
    },
    {
      "channel": 0,
      "note": 71,
      "start": 32.842,
      "duration": 0.8569,
      "velocity": 98,
      "chip": "ym2612"
    },
    {
      "channel": 3,
      "note": 62,
      "start": 32.843,
      "duration": 0.285,
      "velocity": 79,
      "chip": "ym2612"
    },
    {
      "channel": 5,
      "note": 71,
      "start": 32.9862,
      "duration": 0.8568,
      "velocity": 98,
      "chip": "ym2612"
    },
    {
      "channel": 3,
      "note": 66,
      "start": 33.1286,
      "duration": 0.285,
      "velocity": 79,
      "chip": "ym2612"
    },
    {
      "channel": 4,
      "note": 69,
      "start": 33.1294,
      "duration": 0.2849,
      "velocity": 79,
      "chip": "ym2612"
    },
    {
      "channel": 3,
      "note": 62,
      "start": 33.4142,
      "duration": 0.2859,
      "velocity": 79,
      "chip": "ym2612"
    },
    {
      "channel": 0,
      "note": 68,
      "start": 33.6995,
      "duration": 0.5708,
      "velocity": 98,
      "chip": "ym2612"
    },
    {
      "channel": 3,
      "note": 66,
      "start": 33.7006,
      "duration": 0.2846,
      "velocity": 79,
      "chip": "ym2612"
    },
    {
      "channel": 4,
      "note": 69,
      "start": 33.7014,
      "duration": 0.2845,
      "velocity": 79,
      "chip": "ym2612"
    },
    {
      "channel": 5,
      "note": 68,
      "start": 33.8437,
      "duration": 0.5708,
      "velocity": 98,
      "chip": "ym2612"
    },
    {
      "channel": 3,
      "note": 62,
      "start": 33.9857,
      "duration": 0.2861,
      "velocity": 79,
      "chip": "ym2612"
    },
    {
      "channel": 0,
      "note": 69,
      "start": 34.271,
      "duration": 1.1425,
      "velocity": 98,
      "chip": "ym2612"
    },
    {
      "channel": 1,
      "note": 40,
      "start": 34.2717,
      "duration": 2.2906,
      "velocity": 79,
      "chip": "ym2612"
    },
    {
      "channel": 3,
      "note": 68,
      "start": 34.2724,
      "duration": 0.2841,
      "velocity": 79,
      "chip": "ym2612"
    },
    {
      "channel": 4,
      "note": 71,
      "start": 34.2732,
      "duration": 0.2842,
      "velocity": 79,
      "chip": "ym2612"
    },
    {
      "channel": 5,
      "note": 69,
      "start": 34.4153,
      "duration": 1.1422,
      "velocity": 98,
      "chip": "ym2612"
    },
    {
      "channel": 3,
      "note": 64,
      "start": 34.5572,
      "duration": 0.2854,
      "velocity": 79,
      "chip": "ym2612"
    },
    {
      "channel": 3,
      "note": 68,
      "start": 34.8431,
      "duration": 0.2851,
      "velocity": 79,
      "chip": "ym2612"
    },
    {
      "channel": 4,
      "note": 71,
      "start": 34.8439,
      "duration": 0.2851,
      "velocity": 79,
      "chip": "ym2612"
    },
    {
      "channel": 3,
      "note": 64,
      "start": 35.1288,
      "duration": 0.2858,
      "velocity": 79,
      "chip": "ym2612"
    },
    {
      "channel": 0,
      "note": 68,
      "start": 35.4141,
      "duration": 1.1449,
      "velocity": 98,
      "chip": "ym2612"
    },
    {
      "channel": 3,
      "note": 68,
      "start": 35.4152,
      "duration": 0.2845,
      "velocity": 79,
      "chip": "ym2612"
    },
    {
      "channel": 4,
      "note": 71,
      "start": 35.4159,
      "duration": 0.2845,
      "velocity": 79,
      "chip": "ym2612"
    },
    {
      "channel": 5,
      "note": 68,
      "start": 35.5583,
      "duration": 1.145,
      "velocity": 98,
      "chip": "ym2612"
    },
    {
      "channel": 3,
      "note": 64,
      "start": 35.7002,
      "duration": 0.2854,
      "velocity": 79,
      "chip": "ym2612"
    },
    {
      "channel": 3,
      "note": 68,
      "start": 35.9862,
      "duration": 0.285,
      "velocity": 79,
      "chip": "ym2612"
    },
    {
      "channel": 4,
      "note": 71,
      "start": 35.9869,
      "duration": 0.2851,
      "velocity": 79,
      "chip": "ym2612"
    },
    {
      "channel": 3,
      "note": 64,
      "start": 36.2718,
      "duration": 0.2914,
      "velocity": 79,
      "chip": "ym2612"
    },
    {
      "channel": 0,
      "note": 69,
      "start": 36.5597,
      "duration": 1.1342,
      "velocity": 98,
      "chip": "ym2612"
    },
    {
      "channel": 1,
      "note": 45,
      "start": 36.563,
      "duration": 1.1309,
      "velocity": 79,
      "chip": "ym2612"
    },
    {
      "channel": 3,
      "note": 69,
      "start": 36.5638,
      "duration": 0.2789,
      "velocity": 79,
      "chip": "ym2612"
    },
    {
      "channel": 4,
      "note": 73,
      "start": 36.5646,
      "duration": 0.2788,
      "velocity": 79,
      "chip": "ym2612"
    },
    {
      "channel": 5,
      "note": 69,
      "start": 36.704,
      "duration": 0.9899,
      "velocity": 98,
      "chip": "ym2612"
    },
    {
      "channel": 3,
      "note": 64,
      "start": 36.8433,
      "duration": 0.2853,
      "velocity": 79,
      "chip": "ym2612"
    },
    {
      "channel": 3,
      "note": 69,
      "start": 37.1293,
      "duration": 0.2849,
      "velocity": 79,
      "chip": "ym2612"
    },
    {
      "channel": 4,
      "note": 73,
      "start": 37.13,
      "duration": 0.2849,
      "velocity": 79,
      "chip": "ym2612"
    },
    {
      "channel": 3,
      "note": 64,
      "start": 37.4148,
      "duration": 0.2791,
      "velocity": 79,
      "chip": "ym2612"
    }
  ]
}