{
  "track_name": "04 - Round 1-2",
  "duration_sec": 37.681,
  "sample_rate": 44100,
  "note_count": 775,
  "unique_pitches": 43,
  "pitch_range": 59,
  "avg_note_duration": 0.2027,
  "reconstruction_stats": {
    "notes_reconstructed": 775,
    "keyon_events": 775,
    "keyoff_events": 771,
    "orphan_keyons": 4,
    "unique_pitches": 43,
    "pitch_range": 59,
    "avg_duration_sec": 0.2027
  },
  "metadata": {
    "source": "E\\Eliminate Down\\04 - Round 1-2.vgm"
  },
  "notes": [
    {
      "channel": 1,
      "note": 68,
      "start": 0.0,
      "duration": 0.2168,
      "velocity": 80,
      "chip": "ym2612"
    },
    {
      "channel": 2,
      "note": 92,
      "start": 0.0016,
      "duration": 0.2153,
      "velocity": 97,
      "chip": "ym2612"
    },
    {
      "channel": 3,
      "note": 68,
      "start": 0.0034,
      "duration": 0.2137,
      "velocity": 103,
      "chip": "ym2612"
    },
    {
      "channel": 4,
      "note": 45,
      "start": 0.0054,
      "duration": 1.5833,
      "velocity": 127,
      "chip": "ym2612"
    },
    {
      "channel": 5,
      "note": 56,
      "start": 0.0071,
      "duration": 0.2101,
      "velocity": 80,
      "chip": "ym2612"
    },
    {
      "channel": 1,
      "note": 67,
      "start": 0.2371,
      "duration": 0.2218,
      "velocity": 80,
      "chip": "ym2612"
    },
    {
      "channel": 2,
      "note": 91,
      "start": 0.2373,
      "duration": 0.2217,
      "velocity": 97,
      "chip": "ym2612"
    },
    {
      "channel": 3,
      "note": 67,
      "start": 0.2374,
      "duration": 0.2216,
      "velocity": 103,
      "chip": "ym2612"
    },
    {
      "channel": 5,
      "note": 55,
      "start": 0.2376,
      "duration": 0.2216,
      "velocity": 80,
      "chip": "ym2612"
    },
    {
      "channel": 1,
      "note": 64,
      "start": 0.4791,
      "duration": 0.2217,
      "velocity": 80,
      "chip": "ym2612"
    },
    {
      "channel": 2,
      "note": 88,
      "start": 0.4793,
      "duration": 0.2216,
      "velocity": 97,
      "chip": "ym2612"
    },
    {
      "channel": 3,
      "note": 64,
      "start": 0.4795,
      "duration": 0.2216,
      "velocity": 103,
      "chip": "ym2612"
    },
    {
      "channel": 5,
      "note": 52,
      "start": 0.4797,
      "duration": 0.2215,
      "velocity": 80,
      "chip": "ym2612"
    },
    {
      "channel": 1,
      "note": 66,
      "start": 0.7211,
      "duration": 0.2217,
      "velocity": 80,
      "chip": "ym2612"
    },
    {
      "channel": 2,
      "note": 90,
      "start": 0.7216,
      "duration": 0.2213,
      "velocity": 97,
      "chip": "ym2612"
    },
    {
      "channel": 3,
      "note": 66,
      "start": 0.7218,
      "duration": 0.2212,
      "velocity": 103,
      "chip": "ym2612"
    },
    {
      "channel": 5,
      "note": 54,
      "start": 0.722,
      "duration": 0.2212,
      "velocity": 80,
      "chip": "ym2612"
    },
    {
      "channel": 1,
      "note": 65,
      "start": 0.963,
      "duration": 0.2217,
      "velocity": 80,
      "chip": "ym2612"
    },
    {
      "channel": 2,
      "note": 89,
      "start": 0.9632,
      "duration": 0.2217,
      "velocity": 97,
      "chip": "ym2612"
    },
    {
      "channel": 3,
      "note": 65,
      "start": 0.9634,
      "duration": 0.2216,
      "velocity": 103,
      "chip": "ym2612"
    },
    {
      "channel": 5,
      "note": 53,
      "start": 0.9636,
      "duration": 0.2216,
      "velocity": 80,
      "chip": "ym2612"
    },
    {
      "channel": 1,
      "note": 62,
      "start": 1.2051,
      "duration": 0.2216,
      "velocity": 80,
      "chip": "ym2612"
    },
    {
      "channel": 2,
      "note": 86,
      "start": 1.2053,
      "duration": 0.2215,
      "velocity": 97,
      "chip": "ym2612"
    },
    {
      "channel": 3,
      "note": 62,
      "start": 1.2055,
      "duration": 0.2214,
      "velocity": 103,
      "chip": "ym2612"
    },
    {
      "channel": 5,
      "note": 50,
      "start": 1.2057,
      "duration": 0.2214,
      "velocity": 80,
      "chip": "ym2612"
    },
    {
      "channel": 1,
      "note": 64,
      "start": 1.4469,
      "duration": 0.1415,
      "velocity": 80,
      "chip": "ym2612"
    },
    {
      "channel": 2,
      "note": 88,
      "start": 1.4471,
      "duration": 0.1414,
      "velocity": 97,
      "chip": "ym2612"
    },
    {
      "channel": 3,
      "note": 64,
      "start": 1.4473,
      "duration": 0.1414,
      "velocity": 103,
      "chip": "ym2612"
    },
    {
      "channel": 5,
      "note": 52,
      "start": 1.4475,
      "duration": 0.1414,
      "velocity": 80,
      "chip": "ym2612"
    },
    {
      "channel": 1,
      "note": 63,
      "start": 1.6083,
      "duration": 0.1411,
      "velocity": 80,
      "chip": "ym2612"
    },
    {
      "channel": 2,
      "note": 87,
      "start": 1.6084,
      "duration": 0.141,
      "velocity": 97,
      "chip": "ym2612"
    },
    {
      "channel": 3,
      "note": 63,
      "start": 1.6086,
      "duration": 0.141,
      "velocity": 103,
      "chip": "ym2612"
    },
    {
      "channel": 4,
      "note": 33,
      "start": 1.6103,
      "duration": 0.1394,
      "velocity": 127,
      "chip": "ym2612"
    },
    {
      "channel": 5,
      "note": 51,
      "start": 1.6105,
      "duration": 0.1393,
      "velocity": 80,
      "chip": "ym2612"
    },
    {
      "channel": 1,
      "note": 62,
      "start": 1.7696,
      "duration": 0.1411,
      "velocity": 80,
      "chip": "ym2612"
    },
    {
      "channel": 2,
      "note": 86,
      "start": 1.7698,
      "duration": 0.141,
      "velocity": 97,
      "chip": "ym2612"
    },
    {
      "channel": 3,
      "note": 62,
      "start": 1.77,
      "duration": 0.141,
      "velocity": 103,
      "chip": "ym2612"
    },
    {
      "channel": 4,
      "note": 33,
      "start": 1.7701,
      "duration": 0.141,
      "velocity": 127,
      "chip": "ym2612"
    },
    {
      "channel": 5,
      "note": 50,
      "start": 1.7703,
      "duration": 0.1409,
      "velocity": 80,
      "chip": "ym2612"
    },
    {
      "channel": 1,
      "note": 55,
      "start": 1.9308,
      "duration": 1.6938,
      "velocity": 80,
      "chip": "ym2612"
    },
    {
      "channel": 2,
      "note": 79,
      "start": 1.931,
      "duration": 1.6937,
      "velocity": 97,
      "chip": "ym2612"
    },
    {
      "channel": 3,
      "note": 55,
      "start": 1.9312,
      "duration": 1.6937,
      "velocity": 103,
      "chip": "ym2612"
    },
    {
      "channel": 5,
      "note": 43,
      "start": 1.9327,
      "duration": 1.6922,
      "velocity": 80,
      "chip": "ym2612"
    },
    {
      "channel": 1,
      "note": 56,
      "start": 3.8666,
      "duration": 1.6936,
      "velocity": 80,
      "chip": "ym2612"
    },
    {
      "channel": 2,
      "note": 80,
      "start": 3.8668,
      "duration": 1.6936,
      "velocity": 97,
      "chip": "ym2612"
    },
    {
      "channel": 3,
      "note": 56,
      "start": 3.867,
      "duration": 1.6936,
      "velocity": 103,
      "chip": "ym2612"
    },
    {
      "channel": 4,
      "note": 45,
      "start": 3.8675,
      "duration": 1.2695,
      "velocity": 127,
      "chip": "ym2612"
    },
    {
      "channel": 5,
      "note": 44,
      "start": 3.8677,
      "duration": 1.6946,
      "velocity": 80,
      "chip": "ym2612"
    },
    {
      "channel": 4,
      "note": 57,
      "start": 5.5622,
      "duration": 0.099,
      "velocity": 127,
      "chip": "ym2612"
    },
    {
      "channel": 4,
      "note": 57,
      "start": 5.6813,
      "duration": 0.1008,
      "velocity": 127,
      "chip": "ym2612"
    },
    {
      "channel": 1,
      "note": 57,
      "start": 5.8024,
      "duration": 1.6936,
      "velocity": 80,
      "chip": "ym2612"
    },
    {
      "channel": 2,
      "note": 81,
      "start": 5.8026,
      "duration": 1.6936,
      "velocity": 97,
      "chip": "ym2612"
    },
    {
      "channel": 3,
      "note": 57,
      "start": 5.8028,
      "duration": 1.6935,
      "velocity": 103,
      "chip": "ym2612"
    },
    {
      "channel": 4,
      "note": 57,
      "start": 5.8029,
      "duration": 0.1823,
      "velocity": 127,
      "chip": "ym2612"
    },
    {
      "channel": 5,
      "note": 45,
      "start": 5.8031,
      "duration": 1.6934,
      "velocity": 80,
      "chip": "ym2612"
    },
    {
      "channel": 4,
      "note": 33,
      "start": 5.9854,
      "duration": 0.4218,
      "velocity": 127,
      "chip": "ym2612"
    },
    {
      "channel": 4,
      "note": 33,
      "start": 6.4677,
      "duration": 0.2218,
      "velocity": 127,
      "chip": "ym2612"
    },
    {
      "channel": 4,
      "note": 33,
      "start": 6.7097,
      "duration": 0.1411,
      "velocity": 127,
      "chip": "ym2612"
    },
    {
      "channel": 4,
      "note": 33,
      "start": 6.8711,
      "duration": 0.1411,
      "velocity": 127,
      "chip": "ym2612"
    },
    {
      "channel": 4,
      "note": 33,
      "start": 7.0323,
      "duration": 0.1412,
      "velocity": 127,
      "chip": "ym2612"
    },
    {
      "channel": 4,
      "note": 33,
      "start": 7.1936,
      "duration": 0.1412,
      "velocity": 127,
      "chip": "ym2612"
    },
    {
      "channel": 4,
      "note": 33,
      "start": 7.3551,
      "duration": 0.1413,
      "velocity": 127,
      "chip": "ym2612"
    },
    {
      "channel": 4,
      "note": 33,
      "start": 7.5163,
      "duration": 0.1412,
      "velocity": 127,
      "chip": "ym2612"
    },
    {
      "channel": 4,
      "note": 45,
      "start": 7.6792,
      "duration": 1.6926,
      "velocity": 127,
      "chip": "ym2612"
    },
    {
      "channel": 1,
      "note": 58,
      "start": 7.7385,
      "duration": 1.6933,
      "velocity": 80,
      "chip": "ym2612"
    },
    {
      "channel": 2,
      "note": 82,
      "start": 7.7387,
      "duration": 1.6932,
      "velocity": 97,
      "chip": "ym2612"
    },
    {
      "channel": 3,
      "note": 58,
      "start": 7.7389,
      "duration": 1.6931,
      "velocity": 103,
      "chip": "ym2612"
    },
    {
      "channel": 5,
      "note": 46,
      "start": 7.7391,
      "duration": 1.6931,
      "velocity": 80,
      "chip": "ym2612"
    },
    {
      "channel": 4,
      "note": 45,
      "start": 9.6133,
      "duration": 2.4196,
      "velocity": 127,
      "chip": "ym2612"
    },
    {
      "channel": 1,
      "note": 46,
      "start": 9.6738,
      "duration": 3.206,
      "velocity": 80,
      "chip": "ym2612"
    },
    {
      "channel": 2,
      "note": 70,
      "start": 9.674,
      "duration": 3.2059,
      "velocity": 97,
      "chip": "ym2612"
    },
    {
      "channel": 3,
      "note": 46,
      "start": 9.6742,
      "duration": 3.2059,
      "velocity": 103,
      "chip": "ym2612"
    },
    {
      "channel": 5,
      "note": 34,
      "start": 9.6744,
      "duration": 3.2058,
      "velocity": 80,
      "chip": "ym2612"
    },
    {
      "channel": 4,
      "note": 68,
      "start": 12.5173,
      "duration": 0.4231,
      "velocity": 127,
      "chip": "ym2612"
    },
    {
      "channel": 4,
      "note": 33,
      "start": 13.0024,
      "duration": 0.2202,
      "velocity": 127,
      "chip": "ym2612"
    },
    {
      "channel": 1,
      "note": 82,
      "start": 13.0629,
      "duration": 0.2202,
      "velocity": 105,
      "chip": "ym2612"
    },
    {
      "channel": 2,
      "note": 51,
      "start": 13.0645,
      "duration": 0.0977,
      "velocity": 80,
      "chip": "ym2612"
    },
    {
      "channel": 3,
      "note": 51,
      "start": 13.0647,
      "duration": 0.2186,
      "velocity": 103,
      "chip": "ym2612"
    },
    {
      "channel": 5,
      "note": 82,
      "start": 13.0665,
      "duration": 0.0959,
      "velocity": 102,
      "chip": "ym2612"
    },
    {
      "channel": 2,
      "note": 51,
      "start": 13.1823,
      "duration": 0.101,
      "velocity": 80,
      "chip": "ym2612"
    },
    {
      "channel": 5,
      "note": 75,
      "start": 13.1825,
      "duration": 0.101,
      "velocity": 102,
      "chip": "ym2612"
    },
    {
      "channel": 4,
      "note": 68,
      "start": 13.2444,
      "duration": 0.2202,
      "velocity": 127,
      "chip": "ym2612"
    },
    {
      "channel": 1,
      "note": 75,
      "start": 13.3034,
      "duration": 0.3225,
      "velocity": 105,
      "chip": "ym2612"
    },
    {
      "channel": 2,
      "note": 51,
      "start": 13.3035,
      "duration": 0.1006,
      "velocity": 80,
      "chip": "ym2612"
    },
    {
      "channel": 3,
      "note": 51,
      "start": 13.3036,
      "duration": 0.1006,
      "velocity": 103,
      "chip": "ym2612"
    },
    {
      "channel": 5,
      "note": 82,
      "start": 13.3038,
      "duration": 0.1006,
      "velocity": 102,
      "chip": "ym2612"
    },
    {
      "channel": 2,
      "note": 51,
      "start": 13.4243,
      "duration": 0.1008,
      "velocity": 80,
      "chip": "ym2612"
    },
    {
      "channel": 3,
      "note": 51,
      "start": 13.4244,
      "duration": 0.1008,
      "velocity": 103,
      "chip": "ym2612"
    },
    {
      "channel": 5,
      "note": 75,
      "start": 13.4246,
      "duration": 0.1007,
      "velocity": 102,
      "chip": "ym2612"
    },
    {
      "channel": 4,
      "note": 33,
      "start": 13.4863,
      "duration": 0.0993,
      "velocity": 127,
      "chip": "ym2612"
    },
    {
      "channel": 2,
      "note": 51,
      "start": 13.5453,
      "duration": 0.1008,
      "velocity": 80,
      "chip": "ym2612"
    },
    {
      "channel": 3,
      "note": 51,
      "start": 13.5454,
      "duration": 0.1008,
      "velocity": 103,
      "chip": "ym2612"
    },
    {
      "channel": 5,
      "note": 82,
      "start": 13.5456,
      "duration": 0.1006,
      "velocity": 102,
      "chip": "ym2612"
    },
    {
      "channel": 4,
      "note": 33,
      "start": 13.6058,
      "duration": 0.1008,
      "velocity": 127,
      "chip": "ym2612"
    },
    {
      "channel": 1,
      "note": 82,
      "start": 13.6663,
      "duration": 0.1008,
      "velocity": 105,
      "chip": "ym2612"
    },
    {
      "channel": 2,
      "note": 53,
      "start": 13.6665,
      "duration": 0.1007,
      "velocity": 80,
      "chip": "ym2612"
    },
    {
      "channel": 3,
      "note": 53,
      "start": 13.6666,
      "duration": 0.1006,
      "velocity": 103,
      "chip": "ym2612"
    },
    {
      "channel": 5,
      "note": 75,
      "start": 13.6668,
      "duration": 0.1006,
      "velocity": 102,
      "chip": "ym2612"
    },
    {
      "channel": 4,
      "note": 68,
      "start": 13.7282,
      "duration": 0.2203,
      "velocity": 127,
      "chip": "ym2612"
    },
    {
      "channel": 1,
      "note": 75,
      "start": 13.7873,
      "duration": 0.2217,
      "velocity": 105,
      "chip": "ym2612"
    },
    {
      "channel": 2,
      "note": 51,
      "start": 13.7874,
      "duration": 0.101,
      "velocity": 80,
      "chip": "ym2612"
    },
    {
      "channel": 3,
      "note": 51,
      "start": 13.7876,
      "duration": 0.1009,
      "velocity": 103,
      "chip": "ym2612"
    },
    {
      "channel": 5,
      "note": 82,
      "start": 13.7882,
      "duration": 0.1005,
      "velocity": 102,
      "chip": "ym2612"
    },
    {
      "channel": 2,
      "note": 54,
      "start": 13.9083,
      "duration": 0.1009,
      "velocity": 80,
      "chip": "ym2612"
    },
    {
      "channel": 3,
      "note": 54,
      "start": 13.9084,
      "duration": 0.1008,
      "velocity": 103,
      "chip": "ym2612"
    },
    {
      "channel": 5,
      "note": 75,
      "start": 13.9087,
      "duration": 0.1007,
      "velocity": 102,
      "chip": "ym2612"
    },
    {
      "channel": 4,
      "note": 33,
      "start": 13.9703,
      "duration": 0.0993,
      "velocity": 127,
      "chip": "ym2612"
    },
    {
      "channel": 1,
      "note": 82,
      "start": 14.0292,
      "duration": 0.2217,
      "velocity": 105,
      "chip": "ym2612"
    },
    {
      "channel": 2,
      "note": 53,
      "start": 14.0294,
      "duration": 0.1006,
      "velocity": 80,
      "chip": "ym2612"
    },
    {
      "channel": 3,
      "note": 53,
      "start": 14.0296,
      "duration": 0.2216,
      "velocity": 103,
      "chip": "ym2612"
    },
    {
      "channel": 5,
      "note": 82,
      "start": 14.0298,
      "duration": 0.1004,
      "velocity": 102,
      "chip": "ym2612"
    },
    {
      "channel": 4,
      "note": 33,
      "start": 14.0897,
      "duration": 0.1009,
      "velocity": 127,
      "chip": "ym2612"
    },
    {
      "channel": 2,
      "note": 53,
      "start": 14.1502,
      "duration": 0.1009,
      "velocity": 80,
      "chip": "ym2612"
    },
    {
      "channel": 5,
      "note": 75,
      "start": 14.1504,
      "duration": 0.1009,
      "velocity": 102,
      "chip": "ym2612"
    },
    {
      "channel": 4,
      "note": 68,
      "start": 14.2122,
      "duration": 0.2203,
      "velocity": 127,
      "chip": "ym2612"
    },
    {
      "channel": 1,
      "note": 75,
      "start": 14.2716,
      "duration": 0.3222,
      "velocity": 105,
      "chip": "ym2612"
    },
    {
      "channel": 2,
      "note": 53,
      "start": 14.2717,
      "duration": 0.1003,
      "velocity": 80,
      "chip": "ym2612"
    },
    {
      "channel": 3,
      "note": 53,
      "start": 14.2718,
      "duration": 0.1003,
      "velocity": 103,
      "chip": "ym2612"
    },
    {
      "channel": 5,
      "note": 82,
      "start": 14.272,
      "duration": 0.1002,
      "velocity": 102,
      "chip": "ym2612"
    },
    {
      "channel": 2,
      "note": 53,
      "start": 14.3922,
      "duration": 0.1008,
      "velocity": 80,
      "chip": "ym2612"
    },
    {
      "channel": 3,
      "note": 53,
      "start": 14.3923,
      "duration": 0.1008,
      "velocity": 103,
      "chip": "ym2612"
    },
    {
      "channel": 5,
      "note": 75,
      "start": 14.3925,
      "duration": 0.1007,
      "velocity": 102,
      "chip": "ym2612"
    },
    {
      "channel": 4,
      "note": 33,
      "start": 14.4542,
      "duration": 0.2203,
      "velocity": 127,
      "chip": "ym2612"
    },
    {
      "channel": 2,
      "note": 53,
      "start": 14.5132,
      "duration": 0.1008,
      "velocity": 80,
      "chip": "ym2612"
    },
    {
      "channel": 3,
      "note": 53,
      "start": 14.5133,
      "duration": 0.1008,
      "velocity": 103,
      "chip": "ym2612"
    },
    {
      "channel": 5,
      "note": 82,
      "start": 14.5135,
      "duration": 0.1007,
      "velocity": 102,
      "chip": "ym2612"
    },
    {
      "channel": 1,
      "note": 73,
      "start": 14.6341,
      "duration": 0.1008,
      "velocity": 105,
      "chip": "ym2612"
    },
    {
      "channel": 2,
      "note": 56,
      "start": 14.6343,
      "duration": 0.1007,
      "velocity": 80,
      "chip": "ym2612"
    },
    {
      "channel": 3,
      "note": 56,
      "start": 14.6345,
      "duration": 0.1006,
      "velocity": 103,
      "chip": "ym2612"
    },
    {
      "channel": 5,
      "note": 73,
      "start": 14.6347,
      "duration": 0.1006,
      "velocity": 102,
      "chip": "ym2612"
    },
    {
      "channel": 4,
      "note": 68,
      "start": 14.6962,
      "duration": 0.2203,
      "velocity": 127,
      "chip": "ym2612"
    },
    {
      "channel": 1,
      "note": 74,
      "start": 14.7552,
      "duration": 0.1007,
      "velocity": 105,
      "chip": "ym2612"
    },
    {
      "channel": 2,
      "note": 53,
      "start": 14.7554,
      "duration": 0.1006,
      "velocity": 80,
      "chip": "ym2612"
    },
    {
      "channel": 3,
      "note": 53,
      "start": 14.7556,
      "duration": 0.1006,
      "velocity": 103,
      "chip": "ym2612"
    },
    {
      "channel": 5,
      "note": 74,
      "start": 14.7558,
      "duration": 0.1005,
      "velocity": 102,
      "chip": "ym2612"
    },
    {
      "channel": 1,
      "note": 75,
      "start": 14.8761,
      "duration": 0.1007,
      "velocity": 105,
      "chip": "ym2612"
    },
    {
      "channel": 2,
      "note": 58,
      "start": 14.8763,
      "duration": 0.1006,
      "velocity": 80,
      "chip": "ym2612"
    },
    {
      "channel": 3,
      "note": 58,
      "start": 14.8765,
      "duration": 0.1006,
      "velocity": 103,
      "chip": "ym2612"
    },
    {
      "channel": 5,
      "note": 75,
      "start": 14.8767,
      "duration": 0.1006,
      "velocity": 102,
      "chip": "ym2612"
    },
    {
      "channel": 4,
      "note": 33,
      "start": 14.9385,
      "duration": 0.2199,
      "velocity": 127,
      "chip": "ym2612"
    },
    {
      "channel": 1,
      "note": 82,
      "start": 14.9971,
      "duration": 0.2217,
      "velocity": 105,
      "chip": "ym2612"
    },
    {
      "channel": 2,
      "note": 54,
      "start": 14.9973,
      "duration": 0.1006,
      "velocity": 80,
      "chip": "ym2612"
    },
    {
      "channel": 3,
      "note": 54,
      "start": 14.9975,
      "duration": 0.2216,
      "velocity": 103,
      "chip": "ym2612"
    },
    {
      "channel": 5,
      "note": 82,
      "start": 14.9978,
      "duration": 0.1003,
      "velocity": 102,
      "chip": "ym2612"
    },
    {
      "channel": 2,
      "note": 54,
      "start": 15.118,
      "duration": 0.1009,
      "velocity": 80,
      "chip": "ym2612"
    },
    {
      "channel": 5,
      "note": 75,
      "start": 15.1183,
      "duration": 0.1009,
      "velocity": 102,
      "chip": "ym2612"
    },
    {
      "channel": 4,
      "note": 68,
      "start": 15.1801,
      "duration": 0.2203,
      "velocity": 127,
      "chip": "ym2612"
    },
    {
      "channel": 1,
      "note": 75,
      "start": 15.2391,
      "duration": 0.3226,
      "velocity": 105,
      "chip": "ym2612"
    },
    {
      "channel": 2,
      "note": 54,
      "start": 15.2392,
      "duration": 0.1007,
      "velocity": 80,
      "chip": "ym2612"
    },
    {
      "channel": 3,
      "note": 54,
      "start": 15.2393,
      "duration": 0.1007,
      "velocity": 103,
      "chip": "ym2612"
    },
    {
      "channel": 5,
      "note": 82,
      "start": 15.2395,
      "duration": 0.1006,
      "velocity": 102,
      "chip": "ym2612"
    },
    {
      "channel": 2,
      "note": 54,
      "start": 15.36,
      "duration": 0.1008,
      "velocity": 80,
      "chip": "ym2612"
    },
    {
      "channel": 3,
      "note": 54,
      "start": 15.3601,
      "duration": 0.1008,
      "velocity": 103,
      "chip": "ym2612"
    },
    {
      "channel": 5,
      "note": 75,
      "start": 15.3603,
      "duration": 0.1008,
      "velocity": 102,
      "chip": "ym2612"
    },
    {
      "channel": 4,
      "note": 33,
      "start": 15.4224,
      "duration": 0.0994,
      "velocity": 127,
      "chip": "ym2612"
    },
    {
      "channel": 2,
      "note": 54,
      "start": 15.481,
      "duration": 0.1008,
      "velocity": 80,
      "chip": "ym2612"
    },
    {
      "channel": 3,
      "note": 54,
      "start": 15.4812,
      "duration": 0.1007,
      "velocity": 103,
      "chip": "ym2612"
    },
    {
      "channel": 5,
      "note": 82,
      "start": 15.4813,
      "duration": 0.1008,
      "velocity": 102,
      "chip": "ym2612"
    },
    {
      "channel": 4,
      "note": 33,
      "start": 15.5415,
      "duration": 0.1008,
      "velocity": 127,
      "chip": "ym2612"
    },
    {
      "channel": 1,
      "note": 82,
      "start": 15.602,
      "duration": 0.1007,
      "velocity": 105,
      "chip": "ym2612"
    },
    {
      "channel": 2,
      "note": 54,
      "start": 15.6021,
      "duration": 0.1008,
      "velocity": 80,
      "chip": "ym2612"
    },
    {
      "channel": 3,
      "note": 54,
      "start": 15.6023,
      "duration": 0.1008,
      "velocity": 103,
      "chip": "ym2612"
    },
    {
      "channel": 5,
      "note": 75,
      "start": 15.6024,
      "duration": 0.1007,
      "velocity": 102,
      "chip": "ym2612"
    },
    {
      "channel": 4,
      "note": 68,
      "start": 15.664,
      "duration": 0.2204,
      "velocity": 127,
      "chip": "ym2612"
    },
    {
      "channel": 1,
      "note": 75,
      "start": 15.723,
      "duration": 0.2217,
      "velocity": 105,
      "chip": "ym2612"
    },
    {
      "channel": 2,
      "note": 54,
      "start": 15.7231,
      "duration": 0.1006,
      "velocity": 80,
      "chip": "ym2612"
    },
    {
      "channel": 3,
      "note": 54,
      "start": 15.7233,
      "duration": 0.1006,
      "velocity": 103,
      "chip": "ym2612"
    },
    {
      "channel": 5,
      "note": 82,
      "start": 15.7234,
      "duration": 0.1006,
      "velocity": 102,
      "chip": "ym2612"
    },
    {
      "channel": 2,
      "note": 54,
      "start": 15.844,
      "duration": 0.1008,
      "velocity": 80,
      "chip": "ym2612"
    },
    {
      "channel": 3,
      "note": 54,
      "start": 15.8441,
      "duration": 0.1008,
      "velocity": 103,
      "chip": "ym2612"
    },
    {
      "channel": 5,
      "note": 75,
      "start": 15.8443,
      "duration": 0.1008,
      "velocity": 102,
      "chip": "ym2612"
    },
    {
      "channel": 4,
      "note": 33,
      "start": 15.9063,
      "duration": 0.099,
      "velocity": 127,
      "chip": "ym2612"
    },
    {
      "channel": 1,
      "note": 82,
      "start": 15.965,
      "duration": 0.2217,
      "velocity": 105,
      "chip": "ym2612"
    },
    {
      "channel": 2,
      "note": 59,
      "start": 15.9652,
      "duration": 0.1005,
      "velocity": 80,
      "chip": "ym2612"
    },
    {
      "channel": 3,
      "note": 59,
      "start": 15.9654,
      "duration": 0.1004,
      "velocity": 103,
      "chip": "ym2612"
    },
    {
      "channel": 5,
      "note": 82,
      "start": 15.9656,
      "duration": 0.1005,
      "velocity": 102,
      "chip": "ym2612"
    },
    {
      "channel": 4,
      "note": 33,
      "start": 16.0254,
      "duration": 0.1009,
      "velocity": 127,
      "chip": "ym2612"
    },
    {
      "channel": 2,
      "note": 58,
      "start": 16.086,
      "duration": 0.1008,
      "velocity": 80,
      "chip": "ym2612"
    },
    {
      "channel": 3,
      "note": 58,
      "start": 16.0862,
      "duration": 0.1008,
      "velocity": 103,
      "chip": "ym2612"
    },
    {
      "channel": 5,
      "note": 75,
      "start": 16.0864,
      "duration": 0.1007,
      "velocity": 102,
      "chip": "ym2612"
    },
    {
      "channel": 4,
      "note": 68,
      "start": 16.1479,
      "duration": 0.2203,
      "velocity": 127,
      "chip": "ym2612"
    },
    {
      "channel": 1,
      "note": 75,
      "start": 16.207,
      "duration": 0.3225,
      "velocity": 105,
      "chip": "ym2612"
    },
    {
      "channel": 2,
      "note": 56,
      "start": 16.2072,
      "duration": 0.1005,
      "velocity": 80,
      "chip": "ym2612"
    },
    {
      "channel": 3,
      "note": 56,
      "start": 16.2073,
      "duration": 0.1005,
      "velocity": 103,
      "chip": "ym2612"
    },
    {
      "channel": 5,
      "note": 82,
      "start": 16.2076,
      "duration": 0.1004,
      "velocity": 102,
      "chip": "ym2612"
    },
    {
      "channel": 2,
      "note": 55,
      "start": 16.328,
      "duration": 0.1008,
      "velocity": 80,
      "chip": "ym2612"
    },
    {
      "channel": 3,
      "note": 55,
      "start": 16.3282,
      "duration": 0.1007,
      "velocity": 103,
      "chip": "ym2612"
    },
    {
      "channel": 5,
      "note": 75,
      "start": 16.3283,
      "duration": 0.1006,
      "velocity": 102,
      "chip": "ym2612"
    },
    {
      "channel": 4,
      "note": 33,
      "start": 16.39,
      "duration": 0.2202,
      "velocity": 127,
      "chip": "ym2612"
    },
    {
      "channel": 2,
      "note": 59,
      "start": 16.449,
      "duration": 0.1008,
      "velocity": 80,
      "chip": "ym2612"
    },
    {
      "channel": 3,
      "note": 59,
      "start": 16.4491,
      "duration": 0.1007,
      "velocity": 103,
      "chip": "ym2612"
    },
    {
      "channel": 5,
      "note": 82,
      "start": 16.4493,
      "duration": 0.1006,
      "velocity": 102,
      "chip": "ym2612"
    },
    {
      "channel": 1,
      "note": 73,
      "start": 16.5699,
      "duration": 0.1008,
      "velocity": 105,
      "chip": "ym2612"
    },
    {
      "channel": 2,
      "note": 58,
      "start": 16.5701,
      "duration": 0.1007,
      "velocity": 80,
      "chip": "ym2612"
    },
    {
      "channel": 3,
      "note": 58,
      "start": 16.5703,
      "duration": 0.1006,
      "velocity": 103,
      "chip": "ym2612"
    },
    {
      "channel": 5,
      "note": 78,
      "start": 16.5705,
      "duration": 0.1007,
      "velocity": 102,
      "chip": "ym2612"
    },
    {
      "channel": 4,
      "note": 68,
      "start": 16.6319,
      "duration": 0.2202,
      "velocity": 127,
      "chip": "ym2612"
    },
    {
      "channel": 1,
      "note": 74,
      "start": 16.6909,
      "duration": 0.1007,
      "velocity": 105,
      "chip": "ym2612"
    },
    {
      "channel": 2,
      "note": 56,
      "start": 16.6911,
      "duration": 0.1006,
      "velocity": 80,
      "chip": "ym2612"
    },
    {
      "channel": 3,
      "note": 56,
      "start": 16.6913,
      "duration": 0.1006,
      "velocity": 103,
      "chip": "ym2612"
    },
    {
      "channel": 5,
      "note": 77,
      "start": 16.6915,
      "duration": 0.1006,
      "velocity": 102,
      "chip": "ym2612"
    },
    {
      "channel": 1,
      "note": 75,
      "start": 16.8119,
      "duration": 0.1007,
      "velocity": 105,
      "chip": "ym2612"
    },
    {
      "channel": 2,
      "note": 55,
      "start": 16.8121,
      "duration": 0.1007,
      "velocity": 80,
      "chip": "ym2612"
    },
    {
      "channel": 3,
      "note": 55,
      "start": 16.8122,
      "duration": 0.1006,
      "velocity": 103,
      "chip": "ym2612"
    },
    {
      "channel": 5,
      "note": 75,
      "start": 16.8124,
      "duration": 0.1006,
      "velocity": 102,
      "chip": "ym2612"
    },
    {
      "channel": 4,
      "note": 33,
      "start": 16.8738,
      "duration": 0.2203,
      "velocity": 127,
      "chip": "ym2612"
    },
    {
      "channel": 1,
      "note": 82,
      "start": 16.9329,
      "duration": 0.2222,
      "velocity": 105,
      "chip": "ym2612"
    },
    {
      "channel": 2,
      "note": 51,
      "start": 16.933,
      "duration": 0.1006,
      "velocity": 80,
      "chip": "ym2612"
    },
    {
      "channel": 3,
      "note": 51,
      "start": 16.9332,
      "duration": 0.2222,
      "velocity": 103,
      "chip": "ym2612"
    },
    {
      "channel": 5,
      "note": 82,
      "start": 16.9334,
      "duration": 0.1003,
      "velocity": 102,
      "chip": "ym2612"
    },
    {
      "channel": 2,
      "note": 51,
      "start": 17.0538,
      "duration": 0.1014,
      "velocity": 80,
      "chip": "ym2612"
    },
    {
      "channel": 5,
      "note": 75,
      "start": 17.054,
      "duration": 0.1015,
      "velocity": 102,
      "chip": "ym2612"
    },
    {
      "channel": 4,
      "note": 68,
      "start": 17.1158,
      "duration": 0.2203,
      "velocity": 127,
      "chip": "ym2612"
    },
    {
      "channel": 1,
      "note": 75,
      "start": 17.1749,
      "duration": 0.3225,
      "velocity": 105,
      "chip": "ym2612"
    },
    {
      "channel": 2,
      "note": 51,
      "start": 17.175,
      "duration": 0.1006,
      "velocity": 80,
      "chip": "ym2612"
    },
    {
      "channel": 3,
      "note": 51,
      "start": 17.1751,
      "duration": 0.1006,
      "velocity": 103,
      "chip": "ym2612"
    },
    {
      "channel": 5,
      "note": 82,
      "start": 17.1753,
      "duration": 0.1006,
      "velocity": 102,
      "chip": "ym2612"
    },
    {
      "channel": 2,
      "note": 51,
      "start": 17.2957,
      "duration": 0.1008,
      "velocity": 80,
      "chip": "ym2612"
    },
    {
      "channel": 3,
      "note": 51,
      "start": 17.2959,
      "duration": 0.1008,
      "velocity": 103,
      "chip": "ym2612"
    },
    {
      "channel": 5,
      "note": 75,
      "start": 17.296,
      "duration": 0.1008,
      "velocity": 102,
      "chip": "ym2612"
    },
    {
      "channel": 4,
      "note": 33,
      "start": 17.3578,
      "duration": 0.0993,
      "velocity": 127,
      "chip": "ym2612"
    },
    {
      "channel": 2,
      "note": 51,
      "start": 17.4168,
      "duration": 0.1008,
      "velocity": 80,
      "chip": "ym2612"
    },
    {
      "channel": 3,
      "note": 51,
      "start": 17.4169,
      "duration": 0.1008,
      "velocity": 103,
      "chip": "ym2612"
    },
    {
      "channel": 5,
      "note": 82,
      "start": 17.4171,
      "duration": 0.1007,
      "velocity": 102,
      "chip": "ym2612"
    },
    {
      "channel": 4,
      "note": 33,
      "start": 17.4773,
      "duration": 0.1008,
      "velocity": 127,
      "chip": "ym2612"
    },
    {
      "channel": 1,
      "note": 82,
      "start": 17.5382,
      "duration": 0.1003,
      "velocity": 105,
      "chip": "ym2612"
    },
    {
      "channel": 2,
      "note": 53,
      "start": 17.5384,
      "duration": 0.1003,
      "velocity": 80,
      "chip": "ym2612"
    },
    {
      "channel": 3,
      "note": 53,
      "start": 17.5385,
      "duration": 0.1002,
      "velocity": 103,
      "chip": "ym2612"
    },
    {
      "channel": 5,
      "note": 75,
      "start": 17.5388,
      "duration": 0.1001,
      "velocity": 102,
      "chip": "ym2612"
    },
    {
      "channel": 4,
      "note": 68,
      "start": 17.5998,
      "duration": 0.2202,
      "velocity": 127,
      "chip": "ym2612"
    },
    {
      "channel": 1,
      "note": 75,
      "start": 17.6588,
      "duration": 0.2217,
      "velocity": 105,
      "chip": "ym2612"
    },
    {
      "channel": 2,
      "note": 51,
      "start": 17.6589,
      "duration": 0.1006,
      "velocity": 80,
      "chip": "ym2612"
    },
    {
      "channel": 3,
      "note": 51,
      "start": 17.6591,
      "duration": 0.1005,
      "velocity": 103,
      "chip": "ym2612"
    },
    {
      "channel": 5,
      "note": 82,
      "start": 17.6593,
      "duration": 0.1005,
      "velocity": 102,
      "chip": "ym2612"
    },
    {
      "channel": 2,
      "note": 54,
      "start": 17.7798,
      "duration": 0.1008,
      "velocity": 80,
      "chip": "ym2612"
    },
    {
      "channel": 3,
      "note": 54,
      "start": 17.78,
      "duration": 0.1008,
      "velocity": 103,
      "chip": "ym2612"
    },
    {
      "channel": 5,
      "note": 75,
      "start": 17.7802,
      "duration": 0.1007,
      "velocity": 102,
      "chip": "ym2612"
    },
    {
      "channel": 4,
      "note": 33,
      "start": 17.8417,
      "duration": 0.0993,
      "velocity": 127,
      "chip": "ym2612"
    },
    {
      "channel": 1,
      "note": 82,
      "start": 17.9007,
      "duration": 0.2217,
      "velocity": 105,
      "chip": "ym2612"
    },
    {
      "channel": 2,
      "note": 53,
      "start": 17.9009,
      "duration": 0.1005,
      "velocity": 80,
      "chip": "ym2612"
    },
    {
      "channel": 3,
      "note": 53,
      "start": 17.9011,
      "duration": 0.2216,
      "velocity": 103,
      "chip": "ym2612"
    },
    {
      "channel": 5,
      "note": 82,
      "start": 17.9013,
      "duration": 0.1003,
      "velocity": 102,
      "chip": "ym2612"
    },
    {
      "channel": 4,
      "note": 33,
      "start": 17.9612,
      "duration": 0.1008,
      "velocity": 127,
      "chip": "ym2612"
    },
    {
      "channel": 2,
      "note": 53,
      "start": 18.0218,
      "duration": 0.1008,
      "velocity": 80,
      "chip": "ym2612"
    },
    {
      "channel": 5,
      "note": 75,
      "start": 18.022,
      "duration": 0.1009,
      "velocity": 102,
      "chip": "ym2612"
    },
    {
      "channel": 4,
      "note": 68,
      "start": 18.0837,
      "duration": 0.2202,
      "velocity": 127,
      "chip": "ym2612"
    },
    {
      "channel": 1,
      "note": 75,
      "start": 18.1427,
      "duration": 0.3225,
      "velocity": 105,
      "chip": "ym2612"
    },
    {
      "channel": 2,
      "note": 53,
      "start": 18.1429,
      "duration": 0.1006,
      "velocity": 80,
      "chip": "ym2612"
    },
    {
      "channel": 3,
      "note": 53,
      "start": 18.143,
      "duration": 0.1006,
      "velocity": 103,
      "chip": "ym2612"
    },
    {
      "channel": 5,
      "note": 82,
      "start": 18.1432,
      "duration": 0.1005,
      "velocity": 102,
      "chip": "ym2612"
    },
    {
      "channel": 2,
      "note": 53,
      "start": 18.2637,
      "duration": 0.1008,
      "velocity": 80,
      "chip": "ym2612"
    },
    {
      "channel": 3,
      "note": 53,
      "start": 18.2638,
      "duration": 0.1007,
      "velocity": 103,
      "chip": "ym2612"
    },
    {
      "channel": 5,
      "note": 75,
      "start": 18.264,
      "duration": 0.1007,
      "velocity": 102,
      "chip": "ym2612"
    },
    {
      "channel": 4,
      "note": 33,
      "start": 18.3257,
      "duration": 0.2203,
      "velocity": 127,
      "chip": "ym2612"
    },
    {
      "channel": 2,
      "note": 53,
      "start": 18.3846,
      "duration": 0.1008,
      "velocity": 80,
      "chip": "ym2612"
    },
    {
      "channel": 3,
      "note": 53,
      "start": 18.3848,
      "duration": 0.1008,
      "velocity": 103,
      "chip": "ym2612"
    },
    {
      "channel": 5,
      "note": 82,
      "start": 18.385,
      "duration": 0.1008,
      "velocity": 102,
      "chip": "ym2612"
    },
    {
      "channel": 1,
      "note": 73,
      "start": 18.5056,
      "duration": 0.1007,
      "velocity": 105,
      "chip": "ym2612"
    },
    {
      "channel": 2,
      "note": 56,
      "start": 18.5058,
      "duration": 0.1007,
      "velocity": 80,
      "chip": "ym2612"
    },
    {
      "channel": 3,
      "note": 56,
      "start": 18.506,
      "duration": 0.1006,
      "velocity": 103,
      "chip": "ym2612"
    },
    {
      "channel": 5,
      "note": 73,
      "start": 18.5062,
      "duration": 0.1006,
      "velocity": 102,
      "chip": "ym2612"
    },
    {
      "channel": 4,
      "note": 68,
      "start": 18.5676,
      "duration": 0.2208,
      "velocity": 127,
      "chip": "ym2612"
    },
    {
      "channel": 1,
      "note": 74,
      "start": 18.6266,
      "duration": 0.1008,
      "velocity": 105,
      "chip": "ym2612"
    },
    {
      "channel": 2,
      "note": 53,
      "start": 18.6268,
      "duration": 0.1007,
      "velocity": 80,
      "chip": "ym2612"
    },
    {
      "channel": 3,
      "note": 53,
      "start": 18.627,
      "duration": 0.1006,
      "velocity": 103,
      "chip": "ym2612"
    },
    {
      "channel": 5,
      "note": 74,
      "start": 18.6272,
      "duration": 0.1006,
      "velocity": 102,
      "chip": "ym2612"
    },
    {
      "channel": 1,
      "note": 75,
      "start": 18.7476,
      "duration": 0.1008,
      "velocity": 105,
      "chip": "ym2612"
    },
    {
      "channel": 2,
      "note": 58,
      "start": 18.7478,
      "duration": 0.1007,
      "velocity": 80,
      "chip": "ym2612"
    },
    {
      "channel": 3,
      "note": 58,
      "start": 18.7479,
      "duration": 0.1007,
      "velocity": 103,
      "chip": "ym2612"
    },
    {
      "channel": 5,
      "note": 75,
      "start": 18.7482,
      "duration": 0.1006,
      "velocity": 102,
      "chip": "ym2612"
    },
    {
      "channel": 4,
      "note": 33,
      "start": 18.8096,
      "duration": 0.2203,
      "velocity": 127,
      "chip": "ym2612"
    },
    {
      "channel": 1,
      "note": 82,
      "start": 18.8686,
      "duration": 0.2217,
      "velocity": 105,
      "chip": "ym2612"
    },
    {
      "channel": 2,
      "note": 54,
      "start": 18.8688,
      "duration": 0.1006,
      "velocity": 80,
      "chip": "ym2612"
    },
    {
      "channel": 3,
      "note": 54,
      "start": 18.8689,
      "duration": 0.2216,
      "velocity": 103,
      "chip": "ym2612"
    },
    {
      "channel": 5,
      "note": 82,
      "start": 18.8692,
      "duration": 0.1003,
      "velocity": 102,
      "chip": "ym2612"
    },
    {
      "channel": 2,
      "note": 54,
      "start": 18.9895,
      "duration": 0.101,
      "velocity": 80,
      "chip": "ym2612"
    },
    {
      "channel": 5,
      "note": 75,
      "start": 18.9897,
      "duration": 0.101,
      "velocity": 102,
      "chip": "ym2612"
    },
    {
      "channel": 4,
      "note": 68,
      "start": 19.0515,
      "duration": 0.2204,
      "velocity": 127,
      "chip": "ym2612"
    },
    {
      "channel": 1,
      "note": 75,
      "start": 19.1106,
      "duration": 0.3225,
      "velocity": 105,
      "chip": "ym2612"
    },
    {
      "channel": 2,
      "note": 54,
      "start": 19.1107,
      "duration": 0.1006,
      "velocity": 80,
      "chip": "ym2612"
    },
    {
      "channel": 3,
      "note": 54,
      "start": 19.1109,
      "duration": 0.1006,
      "velocity": 103,
      "chip": "ym2612"
    },
    {
      "channel": 5,
      "note": 82,
      "start": 19.111,
      "duration": 0.1005,
      "velocity": 102,
      "chip": "ym2612"
    },
    {
      "channel": 2,
      "note": 54,
      "start": 19.2315,
      "duration": 0.1008,
      "velocity": 80,
      "chip": "ym2612"
    },
    {
      "channel": 3,
      "note": 54,
      "start": 19.2317,
      "duration": 0.1008,
      "velocity": 103,
      "chip": "ym2612"
    },
    {
      "channel": 5,
      "note": 75,
      "start": 19.2318,
      "duration": 0.1007,
      "velocity": 102,
      "chip": "ym2612"
    },
    {
      "channel": 4,
      "note": 33,
      "start": 19.2935,
      "duration": 0.0993,
      "velocity": 127,
      "chip": "ym2612"
    },
    {
      "channel": 2,
      "note": 54,
      "start": 19.3525,
      "duration": 0.1008,
      "velocity": 80,
      "chip": "ym2612"
    },
    {
      "channel": 3,
      "note": 54,
      "start": 19.3527,
      "duration": 0.1007,
      "velocity": 103,
      "chip": "ym2612"
    },
    {
      "channel": 5,
      "note": 82,
      "start": 19.3528,
      "duration": 0.1007,
      "velocity": 102,
      "chip": "ym2612"
    },
    {
      "channel": 4,
      "note": 33,
      "start": 19.413,
      "duration": 0.1008,
      "velocity": 127,
      "chip": "ym2612"
    },
    {
      "channel": 1,
      "note": 82,
      "start": 19.4735,
      "duration": 0.1008,
      "velocity": 105,
      "chip": "ym2612"
    },
    {
      "channel": 2,
      "note": 54,
      "start": 19.4737,
      "duration": 0.1007,
      "velocity": 80,
      "chip": "ym2612"
    },
    {
      "channel": 3,
      "note": 54,
      "start": 19.4738,
      "duration": 0.1008,
      "velocity": 103,
      "chip": "ym2612"
    },
    {
      "channel": 5,
      "note": 75,
      "start": 19.474,
      "duration": 0.1007,
      "velocity": 102,
      "chip": "ym2612"
    },
    {
      "channel": 4,
      "note": 68,
      "start": 19.5355,
      "duration": 0.2203,
      "velocity": 127,
      "chip": "ym2612"
    },
    {
      "channel": 1,
      "note": 75,
      "start": 19.5944,
      "duration": 0.2218,
      "velocity": 105,
      "chip": "ym2612"
    },
    {
      "channel": 2,
      "note": 54,
      "start": 19.5946,
      "duration": 0.1007,
      "velocity": 80,
      "chip": "ym2612"
    },
    {
      "channel": 3,
      "note": 54,
      "start": 19.5947,
      "duration": 0.1006,
      "velocity": 103,
      "chip": "ym2612"
    },
    {
      "channel": 5,
      "note": 82,
      "start": 19.5949,
      "duration": 0.1005,
      "velocity": 102,
      "chip": "ym2612"
    },
    {
      "channel": 2,
      "note": 54,
      "start": 19.7154,
      "duration": 0.101,
      "velocity": 80,
      "chip": "ym2612"
    },
    {
      "channel": 3,
      "note": 54,
      "start": 19.7156,
      "duration": 0.101,
      "velocity": 103,
      "chip": "ym2612"
    },
    {
      "channel": 5,
      "note": 75,
      "start": 19.7158,
      "duration": 0.1009,
      "velocity": 102,
      "chip": "ym2612"
    },
    {
      "channel": 4,
      "note": 33,
      "start": 19.7775,
      "duration": 0.0993,
      "velocity": 127,
      "chip": "ym2612"
    },
    {
      "channel": 1,
      "note": 82,
      "start": 19.8364,
      "duration": 0.2218,
      "velocity": 105,
      "chip": "ym2612"
    },
    {
      "channel": 2,
      "note": 59,
      "start": 19.8366,
      "duration": 0.1006,
      "velocity": 80,
      "chip": "ym2612"
    },
    {
      "channel": 3,
      "note": 59,
      "start": 19.8368,
      "duration": 0.1005,
      "velocity": 103,
      "chip": "ym2612"
    },
    {
      "channel": 5,
      "note": 82,
      "start": 19.837,
      "duration": 0.1004,
      "velocity": 102,
      "chip": "ym2612"
    },
    {
      "channel": 4,
      "note": 33,
      "start": 19.897,
      "duration": 0.1008,
      "velocity": 127,
      "chip": "ym2612"
    },
    {
      "channel": 2,
      "note": 58,
      "start": 19.9575,
      "duration": 0.1008,
      "velocity": 80,
      "chip": "ym2612"
    },
    {
      "channel": 3,
      "note": 58,
      "start": 19.9577,
      "duration": 0.1008,
      "velocity": 103,
      "chip": "ym2612"
    },
    {
      "channel": 5,
      "note": 75,
      "start": 19.9579,
      "duration": 0.1007,
      "velocity": 102,
      "chip": "ym2612"
    },
    {
      "channel": 4,
      "note": 68,
      "start": 20.0194,
      "duration": 0.2203,
      "velocity": 127,
      "chip": "ym2612"
    },
    {
      "channel": 1,
      "note": 75,
      "start": 20.0784,
      "duration": 0.3225,
      "velocity": 105,
      "chip": "ym2612"
    },
    {
      "channel": 2,
      "note": 56,
      "start": 20.0786,
      "duration": 0.1006,
      "velocity": 80,
      "chip": "ym2612"
    },
    {
      "channel": 3,
      "note": 56,
      "start": 20.0788,
      "duration": 0.1005,
      "velocity": 103,
      "chip": "ym2612"
    },
    {
      "channel": 5,
      "note": 82,
      "start": 20.079,
      "duration": 0.1005,
      "velocity": 102,
      "chip": "ym2612"
    },
    {
      "channel": 2,
      "note": 55,
      "start": 20.1995,
      "duration": 0.1007,
      "velocity": 80,
      "chip": "ym2612"
    },
    {
      "channel": 3,
      "note": 55,
      "start": 20.1997,
      "duration": 0.1006,
      "velocity": 103,
      "chip": "ym2612"
    },
    {
      "channel": 5,
      "note": 75,
      "start": 20.1998,
      "duration": 0.1006,
      "velocity": 102,
      "chip": "ym2612"
    },
    {
      "channel": 4,
      "note": 33,
      "start": 20.2614,
      "duration": 0.2202,
      "velocity": 127,
      "chip": "ym2612"
    },
    {
      "channel": 2,
      "note": 59,
      "start": 20.3204,
      "duration": 0.1012,
      "velocity": 80,
      "chip": "ym2612"
    },
    {
      "channel": 3,
      "note": 59,
      "start": 20.3206,
      "duration": 0.1011,
      "velocity": 103,
      "chip": "ym2612"
    },
    {
      "channel": 5,
      "note": 82,
      "start": 20.3208,
      "duration": 0.101,
      "velocity": 102,
      "chip": "ym2612"
    },
    {
      "channel": 1,
      "note": 73,
      "start": 20.4413,
      "duration": 0.1008,
      "velocity": 105,
      "chip": "ym2612"
    },
    {
      "channel": 2,
      "note": 58,
      "start": 20.4415,
      "duration": 0.1007,
      "velocity": 80,
      "chip": "ym2612"
    },
    {
      "channel": 3,
      "note": 58,
      "start": 20.4417,
      "duration": 0.1007,
      "velocity": 103,
      "chip": "ym2612"
    },
    {
      "channel": 5,
      "note": 78,
      "start": 20.4419,
      "duration": 0.1006,
      "velocity": 102,
      "chip": "ym2612"
    },
    {
      "channel": 4,
      "note": 68,
      "start": 20.5034,
      "duration": 0.2203,
      "velocity": 127,
      "chip": "ym2612"
    },
    {
      "channel": 1,
      "note": 74,
      "start": 20.5624,
      "duration": 0.1008,
      "velocity": 105,
      "chip": "ym2612"
    },
    {
      "channel": 2,
      "note": 56,
      "start": 20.5626,
      "duration": 0.1007,
      "velocity": 80,
      "chip": "ym2612"
    },
    {
      "channel": 3,
      "note": 56,
      "start": 20.5628,
      "duration": 0.1006,
      "velocity": 103,
      "chip": "ym2612"
    },
    {
      "channel": 5,
      "note": 77,
      "start": 20.5629,
      "duration": 0.1006,
      "velocity": 102,
      "chip": "ym2612"
    },
    {
      "channel": 1,
      "note": 75,
      "start": 20.6834,
      "duration": 0.1007,
      "velocity": 105,
      "chip": "ym2612"
    },
    {
      "channel": 2,
      "note": 55,
      "start": 20.6835,
      "duration": 0.1008,
      "velocity": 80,
      "chip": "ym2612"
    },
    {
      "channel": 3,
      "note": 55,
      "start": 20.6837,
      "duration": 0.1007,
      "velocity": 103,
      "chip": "ym2612"
    },
    {
      "channel": 5,
      "note": 75,
      "start": 20.6839,
      "duration": 0.1006,
      "velocity": 102,
      "chip": "ym2612"
    },
    {
      "channel": 4,
      "note": 33,
      "start": 20.7453,
      "duration": 0.2203,
      "velocity": 127,
      "chip": "ym2612"
    },
    {
      "channel": 1,
      "note": 75,
      "start": 20.8042,
      "duration": 0.3226,
      "velocity": 105,
      "chip": "ym2612"
    },
    {
      "channel": 2,
      "note": 51,
      "start": 20.8045,
      "duration": 0.1006,
      "velocity": 80,
      "chip": "ym2612"
    },
    {
      "channel": 3,
      "note": 51,
      "start": 20.805,
      "duration": 0.2212,
      "velocity": 103,
      "chip": "ym2612"
    },
    {
      "channel": 5,
      "note": 75,
      "start": 20.8052,
      "duration": 0.1001,
      "velocity": 102,
      "chip": "ym2612"
    },
    {
      "channel": 2,
      "note": 51,
      "start": 20.9252,
      "duration": 0.1008,
      "velocity": 80,
      "chip": "ym2612"
    },
    {
      "channel": 5,
      "note": 75,
      "start": 20.9254,
      "duration": 0.1009,
      "velocity": 102,
      "chip": "ym2612"
    },
    {
      "channel": 4,
      "note": 68,
      "start": 20.9873,
      "duration": 0.2202,
      "velocity": 127,
      "chip": "ym2612"
    },
    {
      "channel": 2,
      "note": 51,
      "start": 21.0463,
      "duration": 0.1008,
      "velocity": 80,
      "chip": "ym2612"
    },
    {
      "channel": 3,
      "note": 51,
      "start": 21.0464,
      "duration": 0.1007,
      "velocity": 103,
      "chip": "ym2612"
    },
    {
      "channel": 5,
      "note": 75,
      "start": 21.0465,
      "duration": 0.1008,
      "velocity": 102,
      "chip": "ym2612"
    },
    {
      "channel": 1,
      "note": 75,
      "start": 21.1672,
      "duration": 0.2218,
      "velocity": 105,
      "chip": "ym2612"
    },
    {
      "channel": 2,
      "note": 51,
      "start": 21.1673,
      "duration": 0.1007,
      "velocity": 80,
      "chip": "ym2612"
    },
    {
      "channel": 3,
      "note": 51,
      "start": 21.1675,
      "duration": 0.1007,
      "velocity": 103,
      "chip": "ym2612"
    },
    {
      "channel": 5,
      "note": 75,
      "start": 21.1677,
      "duration": 0.1006,
      "velocity": 102,
      "chip": "ym2612"
    },
    {
      "channel": 4,
      "note": 33,
      "start": 21.2293,
      "duration": 0.0993,
      "velocity": 127,
      "chip": "ym2612"
    },
    {
      "channel": 2,
      "note": 51,
      "start": 21.2885,
      "duration": 0.1007,
      "velocity": 80,
      "chip": "ym2612"
    },
    {
      "channel": 3,
      "note": 51,
      "start": 21.2886,
      "duration": 0.1007,
      "velocity": 103,
      "chip": "ym2612"
    },
    {
      "channel": 5,
      "note": 75,
      "start": 21.2887,
      "duration": 0.1007,
      "velocity": 102,
      "chip": "ym2612"
    },
    {
      "channel": 4,
      "note": 33,
      "start": 21.3487,
      "duration": 0.1009,
      "velocity": 127,
      "chip": "ym2612"
    },
    {
      "channel": 1,
      "note": 78,
      "start": 21.4093,
      "duration": 0.1007,
      "velocity": 105,
      "chip": "ym2612"
    },
    {
      "channel": 2,
      "note": 53,
      "start": 21.4095,
      "duration": 0.1006,
      "velocity": 80,
      "chip": "ym2612"
    },
    {
      "channel": 3,
      "note": 53,
      "start": 21.4096,
      "duration": 0.1006,
      "velocity": 103,
      "chip": "ym2612"
    },
    {
      "channel": 5,
      "note": 78,
      "start": 21.4098,
      "duration": 0.1005,
      "velocity": 102,
      "chip": "ym2612"
    },
    {
      "channel": 4,
      "note": 68,
      "start": 21.4716,
      "duration": 0.22,
      "velocity": 127,
      "chip": "ym2612"
    },
    {
      "channel": 1,
      "note": 75,
      "start": 21.5302,
      "duration": 0.2217,
      "velocity": 105,
      "chip": "ym2612"
    },
    {
      "channel": 2,
      "note": 51,
      "start": 21.5305,
      "duration": 0.1005,
      "velocity": 80,
      "chip": "ym2612"
    },
    {
      "channel": 3,
      "note": 51,
      "start": 21.5306,
      "duration": 0.1005,
      "velocity": 103,
      "chip": "ym2612"
    },
    {
      "channel": 5,
      "note": 75,
      "start": 21.5308,
      "duration": 0.1004,
      "velocity": 102,
      "chip": "ym2612"
    },
    {
      "channel": 2,
      "note": 54,
      "start": 21.6512,
      "duration": 0.1008,
      "velocity": 80,
      "chip": "ym2612"
    },
    {
      "channel": 3,
      "note": 54,
      "start": 21.6514,
      "duration": 0.1008,
      "velocity": 103,
      "chip": "ym2612"
    },
    {
      "channel": 5,
      "note": 75,
      "start": 21.6516,
      "duration": 0.1008,
      "velocity": 102,
      "chip": "ym2612"
    },
    {
      "channel": 4,
      "note": 33,
      "start": 21.7132,
      "duration": 0.0993,
      "velocity": 127,
      "chip": "ym2612"
    },
    {
      "channel": 1,
      "note": 77,
      "start": 21.7722,
      "duration": 0.3225,
      "velocity": 105,
      "chip": "ym2612"
    },
    {
      "channel": 2,
      "note": 53,
      "start": 21.7724,
      "duration": 0.1006,
      "velocity": 80,
      "chip": "ym2612"
    },
    {
      "channel": 3,
      "note": 53,
      "start": 21.7726,
      "duration": 0.2215,
      "velocity": 103,
      "chip": "ym2612"
    },
    {
      "channel": 5,
      "note": 77,
      "start": 21.7728,
      "duration": 0.1003,
      "velocity": 102,
      "chip": "ym2612"
    },
    {
      "channel": 4,
      "note": 33,
      "start": 21.8327,
      "duration": 0.1008,
      "velocity": 127,
      "chip": "ym2612"
    },
    {
      "channel": 2,
      "note": 53,
      "start": 21.8931,
      "duration": 0.1008,
      "velocity": 80,
      "chip": "ym2612"
    },
    {
      "channel": 5,
      "note": 77,
      "start": 21.8933,
      "duration": 0.1009,
      "velocity": 102,
      "chip": "ym2612"
    },
    {
      "channel": 4,
      "note": 68,
      "start": 21.9556,
      "duration": 0.2198,
      "velocity": 127,
      "chip": "ym2612"
    },
    {
      "channel": 2,
      "note": 53,
      "start": 22.0142,
      "duration": 0.1007,
      "velocity": 80,
      "chip": "ym2612"
    },
    {
      "channel": 3,
      "note": 53,
      "start": 22.0143,
      "duration": 0.1008,
      "velocity": 103,
      "chip": "ym2612"
    },
    {
      "channel": 5,
      "note": 77,
      "start": 22.0144,
      "duration": 0.1007,
      "velocity": 102,
      "chip": "ym2612"
    },
    {
      "channel": 1,
      "note": 77,
      "start": 22.1351,
      "duration": 0.2218,
      "velocity": 105,
      "chip": "ym2612"
    },
    {
      "channel": 2,
      "note": 53,
      "start": 22.1352,
      "duration": 0.1006,
      "velocity": 80,
      "chip": "ym2612"
    },
    {
      "channel": 3,
      "note": 53,
      "start": 22.1354,
      "duration": 0.1006,
      "velocity": 103,
      "chip": "ym2612"
    },
    {
      "channel": 5,
      "note": 77,
      "start": 22.1355,
      "duration": 0.1006,
      "velocity": 102,
      "chip": "ym2612"
    },
    {
      "channel": 4,
      "note": 33,
      "start": 22.1971,
      "duration": 0.2203,
      "velocity": 127,
      "chip": "ym2612"
    },
    {
      "channel": 2,
      "note": 53,
      "start": 22.2561,
      "duration": 0.101,
      "velocity": 80,
      "chip": "ym2612"
    },
    {
      "channel": 3,
      "note": 53,
      "start": 22.2562,
      "duration": 0.101,
      "velocity": 103,
      "chip": "ym2612"
    },
    {
      "channel": 5,
      "note": 77,
      "start": 22.2563,
      "duration": 0.101,
      "velocity": 102,
      "chip": "ym2612"
    },
    {
      "channel": 1,
      "note": 80,
      "start": 22.3771,
      "duration": 0.1007,
      "velocity": 105,
      "chip": "ym2612"
    },
    {
      "channel": 2,
      "note": 56,
      "start": 22.3773,
      "duration": 0.1007,
      "velocity": 80,
      "chip": "ym2612"
    },
    {
      "channel": 3,
      "note": 56,
      "start": 22.3775,
      "duration": 0.1006,
      "velocity": 103,
      "chip": "ym2612"
    },
    {
      "channel": 5,
      "note": 80,
      "start": 22.3777,
      "duration": 0.1006,
      "velocity": 102,
      "chip": "ym2612"
    },
    {
      "channel": 4,
      "note": 68,
      "start": 22.4395,
      "duration": 0.2199,
      "velocity": 127,
      "chip": "ym2612"
    },
    {
      "channel": 1,
      "note": 77,
      "start": 22.4981,
      "duration": 0.2218,
      "velocity": 105,
      "chip": "ym2612"
    },
    {
      "channel": 2,
      "note": 53,
      "start": 22.4983,
      "duration": 0.1006,
      "velocity": 80,
      "chip": "ym2612"
    },
    {
      "channel": 3,
      "note": 53,
      "start": 22.4985,
      "duration": 0.1006,
      "velocity": 103,
      "chip": "ym2612"
    },
    {
      "channel": 5,
      "note": 77,
      "start": 22.4986,
      "duration": 0.1005,
      "velocity": 102,
      "chip": "ym2612"
    },
    {
      "channel": 2,
      "note": 58,
      "start": 22.6191,
      "duration": 0.1009,
      "velocity": 80,
      "chip": "ym2612"
    },
    {
      "channel": 3,
      "note": 58,
      "start": 22.6193,
      "duration": 0.1008,
      "velocity": 103,
      "chip": "ym2612"
    },
    {
      "channel": 5,
      "note": 77,
      "start": 22.6194,
      "duration": 0.1008,
      "velocity": 102,
      "chip": "ym2612"
    },
    {
      "channel": 4,
      "note": 33,
      "start": 22.6811,
      "duration": 0.2203,
      "velocity": 127,
      "chip": "ym2612"
    },
    {
      "channel": 1,
      "note": 78,
      "start": 22.74,
      "duration": 0.3226,
      "velocity": 105,
      "chip": "ym2612"
    },
    {
      "channel": 2,
      "note": 54,
      "start": 22.7402,
      "duration": 0.1006,
      "velocity": 80,
      "chip": "ym2612"
    },
    {
      "channel": 3,
      "note": 54,
      "start": 22.7404,
      "duration": 0.2215,
      "velocity": 103,
      "chip": "ym2612"
    },
    {
      "channel": 5,
      "note": 78,
      "start": 22.7407,
      "duration": 0.1003,
      "velocity": 102,
      "chip": "ym2612"
    },
    {
      "channel": 2,
      "note": 54,
      "start": 22.861,
      "duration": 0.1008,
      "velocity": 80,
      "chip": "ym2612"
    },
    {
      "channel": 5,
      "note": 78,
      "start": 22.8611,
      "duration": 0.101,
      "velocity": 102,
      "chip": "ym2612"
    },
    {
      "channel": 4,
      "note": 68,
      "start": 22.9233,
      "duration": 0.22,
      "velocity": 127,
      "chip": "ym2612"
    },
    {
      "channel": 2,
      "note": 54,
      "start": 22.982,
      "duration": 0.1007,
      "velocity": 80,
      "chip": "ym2612"
    },
    {
      "channel": 3,
      "note": 54,
      "start": 22.9822,
      "duration": 0.1008,
      "velocity": 103,
      "chip": "ym2612"
    },
    {
      "channel": 5,
      "note": 78,
      "start": 22.9823,
      "duration": 0.1008,
      "velocity": 102,
      "chip": "ym2612"
    },
    {
      "channel": 1,
      "note": 78,
      "start": 23.1029,
      "duration": 0.2219,
      "velocity": 105,
      "chip": "ym2612"
    },
    {
      "channel": 2,
      "note": 54,
      "start": 23.103,
      "duration": 0.1007,
      "velocity": 80,
      "chip": "ym2612"
    },
    {
      "channel": 3,
      "note": 54,
      "start": 23.1032,
      "duration": 0.1008,
      "velocity": 103,
      "chip": "ym2612"
    },
    {
      "channel": 5,
      "note": 78,
      "start": 23.1034,
      "duration": 0.1007,
      "velocity": 102,
      "chip": "ym2612"
    },
    {
      "channel": 4,
      "note": 33,
      "start": 23.165,
      "duration": 0.0994,
      "velocity": 127,
      "chip": "ym2612"
    },
    {
      "channel": 2,
      "note": 54,
      "start": 23.224,
      "duration": 0.101,
      "velocity": 80,
      "chip": "ym2612"
    },
    {
      "channel": 3,
      "note": 54,
      "start": 23.2241,
      "duration": 0.101,
      "velocity": 103,
      "chip": "ym2612"
    },
    {
      "channel": 5,
      "note": 78,
      "start": 23.2242,
      "duration": 0.101,
      "velocity": 102,
      "chip": "ym2612"
    },
    {
      "channel": 4,
      "note": 33,
      "start": 23.2844,
      "duration": 0.1008,
      "velocity": 127,
      "chip": "ym2612"
    },
    {
      "channel": 1,
      "note": 82,
      "start": 23.3449,
      "duration": 0.1008,
      "velocity": 105,
      "chip": "ym2612"
    },
    {
      "channel": 2,
      "note": 58,
      "start": 23.3451,
      "duration": 0.1007,
      "velocity": 80,
      "chip": "ym2612"
    },
    {
      "channel": 3,
      "note": 58,
      "start": 23.3453,
      "duration": 0.1006,
      "velocity": 103,
      "chip": "ym2612"
    },
    {
      "channel": 5,
      "note": 82,
      "start": 23.3455,
      "duration": 0.1006,
      "velocity": 102,
      "chip": "ym2612"
    },
    {
      "channel": 4,
      "note": 68,
      "start": 23.407,
      "duration": 0.2202,
      "velocity": 127,
      "chip": "ym2612"
    },
    {
      "channel": 1,
      "note": 78,
      "start": 23.4659,
      "duration": 0.2218,
      "velocity": 105,
      "chip": "ym2612"
    },
    {
      "channel": 2,
      "note": 54,
      "start": 23.4661,
      "duration": 0.1006,
      "velocity": 80,
      "chip": "ym2612"
    },
    {
      "channel": 3,
      "note": 54,
      "start": 23.4663,
      "duration": 0.1005,
      "velocity": 103,
      "chip": "ym2612"
    },
    {
      "channel": 5,
      "note": 78,
      "start": 23.4665,
      "duration": 0.1005,
      "velocity": 102,
      "chip": "ym2612"
    },
    {
      "channel": 2,
      "note": 54,
      "start": 23.5869,
      "duration": 0.1013,
      "velocity": 80,
      "chip": "ym2612"
    },
    {
      "channel": 3,
      "note": 54,
      "start": 23.5871,
      "duration": 0.1013,
      "velocity": 103,
      "chip": "ym2612"
    },
    {
      "channel": 5,
      "note": 78,
      "start": 23.5872,
      "duration": 0.1013,
      "velocity": 102,
      "chip": "ym2612"
    },
    {
      "channel": 4,
      "note": 33,
      "start": 23.6489,
      "duration": 0.0993,
      "velocity": 127,
      "chip": "ym2612"
    },
    {
      "channel": 1,
      "note": 83,
      "start": 23.7079,
      "duration": 0.1007,
      "velocity": 105,
      "chip": "ym2612"
    },
    {
      "channel": 2,
      "note": 59,
      "start": 23.7081,
      "duration": 0.1007,
      "velocity": 80,
      "chip": "ym2612"
    },
    {
      "channel": 3,
      "note": 59,
      "start": 23.7083,
      "duration": 0.1006,
      "velocity": 103,
      "chip": "ym2612"
    },
    {
      "channel": 5,
      "note": 83,
      "start": 23.7086,
      "duration": 0.1005,
      "velocity": 102,
      "chip": "ym2612"
    },
    {
      "channel": 4,
      "note": 33,
      "start": 23.7684,
      "duration": 0.1008,
      "velocity": 127,
      "chip": "ym2612"
    },
    {
      "channel": 1,
      "note": 82,
      "start": 23.8289,
      "duration": 0.1008,
      "velocity": 105,
      "chip": "ym2612"
    },
    {
      "channel": 2,
      "note": 59,
      "start": 23.829,
      "duration": 0.1008,
      "velocity": 80,
      "chip": "ym2612"
    },
    {
      "channel": 3,
      "note": 59,
      "start": 23.8292,
      "duration": 0.1007,
      "velocity": 103,
      "chip": "ym2612"
    },
    {
      "channel": 5,
      "note": 83,
      "start": 23.8294,
      "duration": 0.1007,
      "velocity": 102,
      "chip": "ym2612"
    },
    {
      "channel": 4,
      "note": 68,
      "start": 23.8909,
      "duration": 0.2203,
      "velocity": 127,
      "chip": "ym2612"
    },
    {
      "channel": 1,
      "note": 78,
      "start": 23.9499,
      "duration": 0.1008,
      "velocity": 105,
      "chip": "ym2612"
    },
    {
      "channel": 2,
      "note": 59,
      "start": 23.95,
      "duration": 0.1007,
      "velocity": 80,
      "chip": "ym2612"
    },
    {
      "channel": 3,
      "note": 59,
      "start": 23.9502,
      "duration": 0.1008,
      "velocity": 103,
      "chip": "ym2612"
    },
    {
      "channel": 5,
      "note": 83,
      "start": 23.9503,
      "duration": 0.1008,
      "velocity": 102,
      "chip": "ym2612"
    },
    {
      "channel": 1,
      "note": 83,
      "start": 24.0709,
      "duration": 0.2217,
      "velocity": 105,
      "chip": "ym2612"
    },
    {
      "channel": 2,
      "note": 59,
      "start": 24.0711,
      "duration": 0.2217,
      "velocity": 80,
      "chip": "ym2612"
    },
    {
      "channel": 3,
      "note": 59,
      "start": 24.0715,
      "duration": 0.1002,
      "velocity": 103,
      "chip": "ym2612"
    },
    {
      "channel": 5,
      "note": 83,
      "start": 24.0717,
      "duration": 0.2214,
      "velocity": 102,
      "chip": "ym2612"
    },
    {
      "channel": 4,
      "note": 33,
      "start": 24.1329,
      "duration": 0.2203,
      "velocity": 127,
      "chip": "ym2612"
    },
    {
      "channel": 3,
      "note": 59,
      "start": 24.1918,
      "duration": 0.1011,
      "velocity": 103,
      "chip": "ym2612"
    },
    {
      "channel": 1,
      "note": 87,
      "start": 24.3129,
      "duration": 0.1007,
      "velocity": 105,
      "chip": "ym2612"
    },
    {
      "channel": 2,
      "note": 63,
      "start": 24.313,
      "duration": 0.1007,
      "velocity": 80,
      "chip": "ym2612"
    },
    {
      "channel": 3,
      "note": 63,
      "start": 24.3132,
      "duration": 0.1006,
      "velocity": 103,
      "chip": "ym2612"
    },
    {
      "channel": 5,
      "note": 87,
      "start": 24.3135,
      "duration": 0.1005,
      "velocity": 102,
      "chip": "ym2612"
    },
    {
      "channel": 4,
      "note": 68,
      "start": 24.3749,
      "duration": 0.2203,
      "velocity": 127,
      "chip": "ym2612"
    },
    {
      "channel": 1,
      "note": 89,
      "start": 24.4339,
      "duration": 0.2217,
      "velocity": 105,
      "chip": "ym2612"
    },
    {
      "channel": 2,
      "note": 65,
      "start": 24.434,
      "duration": 0.2217,
      "velocity": 80,
      "chip": "ym2612"
    },
    {
      "channel": 3,
      "note": 65,
      "start": 24.4342,
      "duration": 0.2216,
      "velocity": 103,
      "chip": "ym2612"
    },
    {
      "channel": 5,
      "note": 89,
      "start": 24.4344,
      "duration": 0.2215,
      "velocity": 102,
      "chip": "ym2612"
    },
    {
      "channel": 4,
      "note": 33,
      "start": 24.6168,
      "duration": 0.2203,
      "velocity": 127,
      "chip": "ym2612"
    },
    {
      "channel": 1,
      "note": 75,
      "start": 24.6758,
      "duration": 0.3226,
      "velocity": 105,
      "chip": "ym2612"
    },
    {
      "channel": 2,
      "note": 51,
      "start": 24.676,
      "duration": 0.1006,
      "velocity": 80,
      "chip": "ym2612"
    },
    {
      "channel": 3,
      "note": 51,
      "start": 24.6762,
      "duration": 0.2215,
      "velocity": 103,
      "chip": "ym2612"
    },
    {
      "channel": 5,
      "note": 75,
      "start": 24.6764,
      "duration": 0.1002,
      "velocity": 102,
      "chip": "ym2612"
    },
    {
      "channel": 2,
      "note": 51,
      "start": 24.7967,
      "duration": 0.1008,
      "velocity": 80,
      "chip": "ym2612"
    },
    {
      "channel": 5,
      "note": 75,
      "start": 24.7968,
      "duration": 0.101,
      "velocity": 102,
      "chip": "ym2612"
    },
    {
      "channel": 4,
      "note": 68,
      "start": 24.8588,
      "duration": 0.2203,
      "velocity": 127,
      "chip": "ym2612"
    },
    {
      "channel": 2,
      "note": 51,
      "start": 24.9177,
      "duration": 0.1008,
      "velocity": 80,
      "chip": "ym2612"
    },
    {
      "channel": 3,
      "note": 51,
      "start": 24.9178,
      "duration": 0.1008,
      "velocity": 103,
      "chip": "ym2612"
    },
    {
      "channel": 5,
      "note": 75,
      "start": 24.918,
      "duration": 0.1008,
      "velocity": 102,
      "chip": "ym2612"
    },
    {
      "channel": 1,
      "note": 75,
      "start": 25.0387,
      "duration": 0.2218,
      "velocity": 105,
      "chip": "ym2612"
    },
    {
      "channel": 2,
      "note": 51,
      "start": 25.0388,
      "duration": 0.1006,
      "velocity": 80,
      "chip": "ym2612"
    },
    {
      "channel": 3,
      "note": 51,
      "start": 25.039,
      "duration": 0.1006,
      "velocity": 103,
      "chip": "ym2612"
    },
    {
      "channel": 5,
      "note": 75,
      "start": 25.0391,
      "duration": 0.1006,
      "velocity": 102,
      "chip": "ym2612"
    },
    {
      "channel": 4,
      "note": 33,
      "start": 25.1007,
      "duration": 0.0993,
      "velocity": 127,
      "chip": "ym2612"
    },
    {
      "channel": 2,
      "note": 51,
      "start": 25.1597,
      "duration": 0.1009,
      "velocity": 80,
      "chip": "ym2612"
    },
    {
      "channel": 3,
      "note": 51,
      "start": 25.1598,
      "duration": 0.1009,
      "velocity": 103,
      "chip": "ym2612"
    },
    {
      "channel": 5,
      "note": 75,
      "start": 25.16,
      "duration": 0.1009,
      "velocity": 102,
      "chip": "ym2612"
    },
    {
      "channel": 4,
      "note": 33,
      "start": 25.2202,
      "duration": 0.1008,
      "velocity": 127,
      "chip": "ym2612"
    },
    {
      "channel": 1,
      "note": 78,
      "start": 25.2808,
      "duration": 0.1007,
      "velocity": 105,
      "chip": "ym2612"
    },
    {
      "channel": 2,
      "note": 53,
      "start": 25.281,
      "duration": 0.1006,
      "velocity": 80,
      "chip": "ym2612"
    },
    {
      "channel": 3,
      "note": 54,
      "start": 25.2812,
      "duration": 0.1006,
      "velocity": 103,
      "chip": "ym2612"
    },
    {
      "channel": 5,
      "note": 78,
      "start": 25.2813,
      "duration": 0.1005,
      "velocity": 102,
      "chip": "ym2612"
    },
    {
      "channel": 4,
      "note": 68,
      "start": 25.3427,
      "duration": 0.2203,
      "velocity": 127,
      "chip": "ym2612"
    },
    {
      "channel": 1,
      "note": 75,
      "start": 25.4017,
      "duration": 0.2216,
      "velocity": 105,
      "chip": "ym2612"
    },
    {
      "channel": 2,
      "note": 51,
      "start": 25.4019,
      "duration": 0.1006,
      "velocity": 80,
      "chip": "ym2612"
    },
    {
      "channel": 3,
      "note": 51,
      "start": 25.4021,
      "duration": 0.1006,
      "velocity": 103,
      "chip": "ym2612"
    },
    {
      "channel": 5,
      "note": 75,
      "start": 25.4023,
      "duration": 0.1004,
      "velocity": 102,
      "chip": "ym2612"
    },
    {
      "channel": 2,
      "note": 54,
      "start": 25.5227,
      "duration": 0.1008,
      "velocity": 80,
      "chip": "ym2612"
    },
    {
      "channel": 3,
      "note": 51,
      "start": 25.5228,
      "duration": 0.1008,
      "velocity": 103,
      "chip": "ym2612"
    },
    {
      "channel": 5,
      "note": 75,
      "start": 25.5229,
      "duration": 0.1009,
      "velocity": 102,
      "chip": "ym2612"
    },
    {
      "channel": 4,
      "note": 33,
      "start": 25.5847,
      "duration": 0.0993,
      "velocity": 127,
      "chip": "ym2612"
    },
    {
      "channel": 1,
      "note": 77,
      "start": 25.6437,
      "duration": 0.3225,
      "velocity": 105,
      "chip": "ym2612"
    },
    {
      "channel": 2,
      "note": 53,
      "start": 25.6439,
      "duration": 0.1006,
      "velocity": 80,
      "chip": "ym2612"
    },
    {
      "channel": 3,
      "note": 53,
      "start": 25.6441,
      "duration": 0.2215,
      "velocity": 103,
      "chip": "ym2612"
    },
    {
      "channel": 5,
      "note": 77,
      "start": 25.6443,
      "duration": 0.1003,
      "velocity": 102,
      "chip": "ym2612"
    },
    {
      "channel": 4,
      "note": 33,
      "start": 25.7041,
      "duration": 0.101,
      "velocity": 127,
      "chip": "ym2612"
    },
    {
      "channel": 2,
      "note": 53,
      "start": 25.7646,
      "duration": 0.1008,
      "velocity": 80,
      "chip": "ym2612"
    },
    {
      "channel": 5,
      "note": 77,
      "start": 25.7648,
      "duration": 0.1009,
      "velocity": 102,
      "chip": "ym2612"
    },
    {
      "channel": 4,
      "note": 68,
      "start": 25.8267,
      "duration": 0.2202,
      "velocity": 127,
      "chip": "ym2612"
    },
    {
      "channel": 2,
      "note": 53,
      "start": 25.8855,
      "duration": 0.1008,
      "velocity": 80,
      "chip": "ym2612"
    },
    {
      "channel": 3,
      "note": 53,
      "start": 25.8857,
      "duration": 0.1008,
      "velocity": 103,
      "chip": "ym2612"
    },
    {
      "channel": 5,
      "note": 77,
      "start": 25.8859,
      "duration": 0.1008,
      "velocity": 102,
      "chip": "ym2612"
    },
    {
      "channel": 1,
      "note": 77,
      "start": 26.0065,
      "duration": 0.2218,
      "velocity": 105,
      "chip": "ym2612"
    },
    {
      "channel": 2,
      "note": 53,
      "start": 26.0066,
      "duration": 0.1007,
      "velocity": 80,
      "chip": "ym2612"
    },
    {
      "channel": 3,
      "note": 53,
      "start": 26.0068,
      "duration": 0.1007,
      "velocity": 103,
      "chip": "ym2612"
    },
    {
      "channel": 5,
      "note": 77,
      "start": 26.007,
      "duration": 0.1007,
      "velocity": 102,
      "chip": "ym2612"
    },
    {
      "channel": 4,
      "note": 33,
      "start": 26.0686,
      "duration": 0.2203,
      "velocity": 127,
      "chip": "ym2612"
    },
    {
      "channel": 2,
      "note": 53,
      "start": 26.1276,
      "duration": 0.1009,
      "velocity": 80,
      "chip": "ym2612"
    },
    {
      "channel": 3,
      "note": 53,
      "start": 26.1277,
      "duration": 0.1009,
      "velocity": 103,
      "chip": "ym2612"
    },
    {
      "channel": 5,
      "note": 77,
      "start": 26.1278,
      "duration": 0.101,
      "velocity": 102,
      "chip": "ym2612"
    },
    {
      "channel": 1,
      "note": 80,
      "start": 26.2486,
      "duration": 0.1008,
      "velocity": 105,
      "chip": "ym2612"
    },
    {
      "channel": 2,
      "note": 56,
      "start": 26.2488,
      "duration": 0.1007,
      "velocity": 80,
      "chip": "ym2612"
    },
    {
      "channel": 3,
      "note": 56,
      "start": 26.249,
      "duration": 0.1006,
      "velocity": 103,
      "chip": "ym2612"
    },
    {
      "channel": 5,
      "note": 80,
      "start": 26.2491,
      "duration": 0.1007,
      "velocity": 102,
      "chip": "ym2612"
    },
    {
      "channel": 4,
      "note": 68,
      "start": 26.3105,
      "duration": 0.2203,
      "velocity": 127,
      "chip": "ym2612"
    },
    {
      "channel": 1,
      "note": 77,
      "start": 26.3696,
      "duration": 0.2217,
      "velocity": 105,
      "chip": "ym2612"
    },
    {
      "channel": 2,
      "note": 53,
      "start": 26.3698,
      "duration": 0.1006,
      "velocity": 80,
      "chip": "ym2612"
    },
    {
      "channel": 3,
      "note": 53,
      "start": 26.37,
      "duration": 0.1005,
      "velocity": 103,
      "chip": "ym2612"
    },
    {
      "channel": 5,
      "note": 77,
      "start": 26.3701,
      "duration": 0.1005,
      "velocity": 102,
      "chip": "ym2612"
    },
    {
      "channel": 2,
      "note": 58,
      "start": 26.4906,
      "duration": 0.1009,
      "velocity": 80,
      "chip": "ym2612"
    },
    {
      "channel": 3,
      "note": 53,
      "start": 26.4907,
      "duration": 0.1009,
      "velocity": 103,
      "chip": "ym2612"
    },
    {
      "channel": 5,
      "note": 77,
      "start": 26.4908,
      "duration": 0.101,
      "velocity": 102,
      "chip": "ym2612"
    },
    {
      "channel": 4,
      "note": 33,
      "start": 26.5525,
      "duration": 0.2204,
      "velocity": 127,
      "chip": "ym2612"
    },
    {
      "channel": 1,
      "note": 78,
      "start": 26.6116,
      "duration": 0.3226,
      "velocity": 105,
      "chip": "ym2612"
    },
    {
      "channel": 2,
      "note": 54,
      "start": 26.6117,
      "duration": 0.1006,
      "velocity": 80,
      "chip": "ym2612"
    },
    {
      "channel": 3,
      "note": 54,
      "start": 26.6119,
      "duration": 0.2215,
      "velocity": 103,
      "chip": "ym2612"
    },
    {
      "channel": 5,
      "note": 78,
      "start": 26.6122,
      "duration": 0.1002,
      "velocity": 102,
      "chip": "ym2612"
    },
    {
      "channel": 2,
      "note": 54,
      "start": 26.7325,
      "duration": 0.1008,
      "velocity": 80,
      "chip": "ym2612"
    },
    {
      "channel": 5,
      "note": 78,
      "start": 26.7326,
      "duration": 0.101,
      "velocity": 102,
      "chip": "ym2612"
    },
    {
      "channel": 4,
      "note": 68,
      "start": 26.7945,
      "duration": 0.2203,
      "velocity": 127,
      "chip": "ym2612"
    },
    {
      "channel": 2,
      "note": 54,
      "start": 26.8535,
      "duration": 0.1008,
      "velocity": 80,
      "chip": "ym2612"
    },
    {
      "channel": 3,
      "note": 54,
      "start": 26.8536,
      "duration": 0.1008,
      "velocity": 103,
      "chip": "ym2612"
    },
    {
      "channel": 5,
      "note": 78,
      "start": 26.8537,
      "duration": 0.1012,
      "velocity": 102,
      "chip": "ym2612"
    },
    {
      "channel": 1,
      "note": 78,
      "start": 26.9745,
      "duration": 0.2217,
      "velocity": 105,
      "chip": "ym2612"
    },
    {
      "channel": 2,
      "note": 54,
      "start": 26.9746,
      "duration": 0.1007,
      "velocity": 80,
      "chip": "ym2612"
    },
    {
      "channel": 3,
      "note": 54,
      "start": 26.9747,
      "duration": 0.1007,
      "velocity": 103,
      "chip": "ym2612"
    },
    {
      "channel": 5,
      "note": 78,
      "start": 26.9749,
      "duration": 0.1007,
      "velocity": 102,
      "chip": "ym2612"
    },
    {
      "channel": 4,
      "note": 33,
      "start": 27.0365,
      "duration": 0.0993,
      "velocity": 127,
      "chip": "ym2612"
    },
    {
      "channel": 2,
      "note": 54,
      "start": 27.0954,
      "duration": 0.101,
      "velocity": 80,
      "chip": "ym2612"
    },
    {
      "channel": 3,
      "note": 54,
      "start": 27.0955,
      "duration": 0.101,
      "velocity": 103,
      "chip": "ym2612"
    },
    {
      "channel": 5,
      "note": 78,
      "start": 27.0956,
      "duration": 0.101,
      "velocity": 102,
      "chip": "ym2612"
    },
    {
      "channel": 4,
      "note": 33,
      "start": 27.156,
      "duration": 0.1008,
      "velocity": 127,
      "chip": "ym2612"
    },
    {
      "channel": 1,
      "note": 82,
      "start": 27.2165,
      "duration": 0.1007,
      "velocity": 105,
      "chip": "ym2612"
    },
    {
      "channel": 2,
      "note": 58,
      "start": 27.2166,
      "duration": 0.1007,
      "velocity": 80,
      "chip": "ym2612"
    },
    {
      "channel": 3,
      "note": 58,
      "start": 27.2168,
      "duration": 0.1006,
      "velocity": 103,
      "chip": "ym2612"
    },
    {
      "channel": 5,
      "note": 82,
      "start": 27.217,
      "duration": 0.1006,
      "velocity": 102,
      "chip": "ym2612"
    },
    {
      "channel": 4,
      "note": 68,
      "start": 27.2784,
      "duration": 0.2204,
      "velocity": 127,
      "chip": "ym2612"
    },
    {
      "channel": 1,
      "note": 78,
      "start": 27.3374,
      "duration": 0.2217,
      "velocity": 105,
      "chip": "ym2612"
    },
    {
      "channel": 2,
      "note": 54,
      "start": 27.3376,
      "duration": 0.1008,
      "velocity": 80,
      "chip": "ym2612"
    },
    {
      "channel": 3,
      "note": 54,
      "start": 27.3382,
      "duration": 0.1004,
      "velocity": 103,
      "chip": "ym2612"
    },
    {
      "channel": 5,
      "note": 78,
      "start": 27.3384,
      "duration": 0.1003,
      "velocity": 102,
      "chip": "ym2612"
    },
    {
      "channel": 2,
      "note": 54,
      "start": 27.4584,
      "duration": 0.1008,
      "velocity": 80,
      "chip": "ym2612"
    },
    {
      "channel": 3,
      "note": 54,
      "start": 27.4586,
      "duration": 0.1008,
      "velocity": 103,
      "chip": "ym2612"
    },
    {
      "channel": 5,
      "note": 78,
      "start": 27.4587,
      "duration": 0.1009,
      "velocity": 102,
      "chip": "ym2612"
    },
    {
      "channel": 4,
      "note": 68,
      "start": 27.5189,
      "duration": 0.1008,
      "velocity": 127,
      "chip": "ym2612"
    },
    {
      "channel": 1,
      "note": 83,
      "start": 27.5794,
      "duration": 0.1007,
      "velocity": 105,
      "chip": "ym2612"
    },
    {
      "channel": 2,
      "note": 59,
      "start": 27.5796,
      "duration": 0.1007,
      "velocity": 80,
      "chip": "ym2612"
    },
    {
      "channel": 3,
      "note": 59,
      "start": 27.5798,
      "duration": 0.1006,
      "velocity": 103,
      "chip": "ym2612"
    },
    {
      "channel": 5,
      "note": 83,
      "start": 27.5801,
      "duration": 0.1005,
      "velocity": 102,
      "chip": "ym2612"
    },
    {
      "channel": 4,
      "note": 33,
      "start": 27.6414,
      "duration": 0.3211,
      "velocity": 127,
      "chip": "ym2612"
    },
    {
      "channel": 1,
      "note": 80,
      "start": 27.7004,
      "duration": 0.3226,
      "velocity": 105,
      "chip": "ym2612"
    },
    {
      "channel": 2,
      "note": 56,
      "start": 27.7005,
      "duration": 0.3226,
      "velocity": 80,
      "chip": "ym2612"
    },
    {
      "channel": 3,
      "note": 56,
      "start": 27.7007,
      "duration": 0.3225,
      "velocity": 103,
      "chip": "ym2612"
    },
    {
      "channel": 5,
      "note": 80,
      "start": 27.7009,
      "duration": 0.3224,
      "velocity": 102,
      "chip": "ym2612"
    },
    {
      "channel": 4,
      "note": 68,
      "start": 28.0044,
      "duration": 0.0992,
      "velocity": 127,
      "chip": "ym2612"
    },
    {
      "channel": 1,
      "note": 83,
      "start": 28.0634,
      "duration": 0.1007,
      "velocity": 105,
      "chip": "ym2612"
    },
    {
      "channel": 2,
      "note": 59,
      "start": 28.0635,
      "duration": 0.1007,
      "velocity": 80,
      "chip": "ym2612"
    },
    {
      "channel": 3,
      "note": 59,
      "start": 28.0637,
      "duration": 0.1006,
      "velocity": 103,
      "chip": "ym2612"
    },
    {
      "channel": 5,
      "note": 83,
      "start": 28.064,
      "duration": 0.1005,
      "velocity": 102,
      "chip": "ym2612"
    },
    {
      "channel": 4,
      "note": 33,
      "start": 28.1254,
      "duration": 0.3211,
      "velocity": 127,
      "chip": "ym2612"
    },
    {
      "channel": 1,
      "note": 77,
      "start": 28.1844,
      "duration": 0.3225,
      "velocity": 105,
      "chip": "ym2612"
    },
    {
      "channel": 2,
      "note": 56,
      "start": 28.1846,
      "duration": 0.3224,
      "velocity": 80,
      "chip": "ym2612"
    },
    {
      "channel": 3,
      "note": 56,
      "start": 28.1847,
      "duration": 0.3224,
      "velocity": 103,
      "chip": "ym2612"
    },
    {
      "channel": 5,
      "note": 80,
      "start": 28.185,
      "duration": 0.3223,
      "velocity": 102,
      "chip": "ym2612"
    },
    {
      "channel": 4,
      "note": 33,
      "start": 28.4868,
      "duration": 0.2218,
      "velocity": 127,
      "chip": "ym2612"
    },
    {
      "channel": 1,
      "note": 75,
      "start": 28.5473,
      "duration": 0.8468,
      "velocity": 105,
      "chip": "ym2612"
    },
    {
      "channel": 2,
      "note": 63,
      "start": 28.5475,
      "duration": 0.8467,
      "velocity": 80,
      "chip": "ym2612"
    },
    {
      "channel": 3,
      "note": 63,
      "start": 28.5477,
      "duration": 0.8467,
      "velocity": 103,
      "chip": "ym2612"
    },
    {
      "channel": 5,
      "note": 87,
      "start": 28.5479,
      "duration": 0.8466,
      "velocity": 102,
      "chip": "ym2612"
    },
    {
      "channel": 4,
      "note": 57,
      "start": 28.7303,
      "duration": 0.2202,
      "velocity": 127,
      "chip": "ym2612"
    },
    {
      "channel": 4,
      "note": 57,
      "start": 28.9708,
      "duration": 0.2217,
      "velocity": 127,
      "chip": "ym2612"
    },
    {
      "channel": 4,
      "note": 57,
      "start": 29.2127,
      "duration": 0.2217,
      "velocity": 127,
      "chip": "ym2612"
    },
    {
      "channel": 4,
      "note": 57,
      "start": 29.4551,
      "duration": 0.0632,
      "velocity": 127,
      "chip": "ym2612"
    },
    {
      "channel": 2,
      "note": 51,
      "start": 29.5152,
      "duration": 0.3225,
      "velocity": 80,
      "chip": "ym2612"
    },
    {
      "channel": 3,
      "note": 63,
      "start": 29.5168,
      "duration": 0.3215,
      "velocity": 94,
      "chip": "ym2612"
    },
    {
      "channel": 4,
      "note": 33,
      "start": 29.5185,
      "duration": 0.0586,
      "velocity": 127,
      "chip": "ym2612"
    },
    {
      "channel": 4,
      "note": 61,
      "start": 29.5772,
      "duration": 0.0992,
      "velocity": 127,
      "chip": "ym2612"
    },
    {
      "channel": 5,
      "note": 51,
      "start": 29.6366,
      "duration": 0.3221,
      "velocity": 91,
      "chip": "ym2612"
    },
    {
      "channel": 4,
      "note": 33,
      "start": 29.6982,
      "duration": 0.0993,
      "velocity": 127,
      "chip": "ym2612"
    },
    {
      "channel": 4,
      "note": 61,
      "start": 29.8191,
      "duration": 0.0993,
      "velocity": 127,
      "chip": "ym2612"
    },
    {
      "channel": 2,
      "note": 51,
      "start": 29.878,
      "duration": 0.2218,
      "velocity": 80,
      "chip": "ym2612"
    },
    {
      "channel": 3,
      "note": 63,
      "start": 29.8782,
      "duration": 0.2218,
      "velocity": 94,
      "chip": "ym2612"
    },
    {
      "channel": 4,
      "note": 33,
      "start": 29.9402,
      "duration": 0.0992,
      "velocity": 127,
      "chip": "ym2612"
    },
    {
      "channel": 5,
      "note": 51,
      "start": 29.9991,
      "duration": 0.2221,
      "velocity": 91,
      "chip": "ym2612"
    },
    {
      "channel": 4,
      "note": 61,
      "start": 30.0611,
      "duration": 0.0992,
      "velocity": 127,
      "chip": "ym2612"
    },
    {
      "channel": 2,
      "note": 54,
      "start": 30.1201,
      "duration": 0.1008,
      "velocity": 80,
      "chip": "ym2612"
    },
    {
      "channel": 3,
      "note": 66,
      "start": 30.1203,
      "duration": 0.1007,
      "velocity": 94,
      "chip": "ym2612"
    },
    {
      "channel": 4,
      "note": 33,
      "start": 30.1821,
      "duration": 0.0993,
      "velocity": 127,
      "chip": "ym2612"
    },
    {
      "channel": 2,
      "note": 51,
      "start": 30.2411,
      "duration": 0.2218,
      "velocity": 80,
      "chip": "ym2612"
    },
    {
      "channel": 3,
      "note": 63,
      "start": 30.2413,
      "duration": 0.2217,
      "velocity": 94,
      "chip": "ym2612"
    },
    {
      "channel": 5,
      "note": 54,
      "start": 30.2415,
      "duration": 0.1003,
      "velocity": 91,
      "chip": "ym2612"
    },
    {
      "channel": 4,
      "note": 61,
      "start": 30.3031,
      "duration": 0.0993,
      "velocity": 127,
      "chip": "ym2612"
    },
    {
      "channel": 5,
      "note": 51,
      "start": 30.3621,
      "duration": 0.2217,
      "velocity": 91,
      "chip": "ym2612"
    },
    {
      "channel": 4,
      "note": 57,
      "start": 30.4226,
      "duration": 0.0621,
      "velocity": 127,
      "chip": "ym2612"
    },
    {
      "channel": 2,
      "note": 53,
      "start": 30.4831,
      "duration": 0.3225,
      "velocity": 80,
      "chip": "ym2612"
    },
    {
      "channel": 3,
      "note": 65,
      "start": 30.4832,
      "duration": 0.3224,
      "velocity": 94,
      "chip": "ym2612"
    },
    {
      "channel": 4,
      "note": 33,
      "start": 30.4849,
      "duration": 0.06,
      "velocity": 127,
      "chip": "ym2612"
    },
    {
      "channel": 4,
      "note": 61,
      "start": 30.5451,
      "duration": 0.0992,
      "velocity": 127,
      "chip": "ym2612"
    },
    {
      "channel": 5,
      "note": 53,
      "start": 30.604,
      "duration": 0.3226,
      "velocity": 91,
      "chip": "ym2612"
    },
    {
      "channel": 4,
      "note": 57,
      "start": 30.6646,
      "duration": 0.0618,
      "velocity": 127,
      "chip": "ym2612"
    },
    {
      "channel": 4,
      "note": 33,
      "start": 30.7266,
      "duration": 0.0603,
      "velocity": 127,
      "chip": "ym2612"
    },
    {
      "channel": 4,
      "note": 61,
      "start": 30.7871,
      "duration": 0.0993,
      "velocity": 127,
      "chip": "ym2612"
    },
    {
      "channel": 2,
      "note": 53,
      "start": 30.8459,
      "duration": 0.2218,
      "velocity": 80,
      "chip": "ym2612"
    },
    {
      "channel": 3,
      "note": 65,
      "start": 30.846,
      "duration": 0.2218,
      "velocity": 94,
      "chip": "ym2612"
    },
    {
      "channel": 4,
      "note": 33,
      "start": 30.908,
      "duration": 0.0993,
      "velocity": 127,
      "chip": "ym2612"
    },
    {
      "channel": 5,
      "note": 53,
      "start": 30.967,
      "duration": 0.222,
      "velocity": 91,
      "chip": "ym2612"
    },
    {
      "channel": 4,
      "note": 61,
      "start": 31.029,
      "duration": 0.0993,
      "velocity": 127,
      "chip": "ym2612"
    },
    {
      "channel": 2,
      "note": 56,
      "start": 31.0885,
      "duration": 0.1002,
      "velocity": 80,
      "chip": "ym2612"
    },
    {
      "channel": 3,
      "note": 68,
      "start": 31.0887,
      "duration": 0.1002,
      "velocity": 94,
      "chip": "ym2612"
    },
    {
      "channel": 4,
      "note": 33,
      "start": 31.15,
      "duration": 0.0993,
      "velocity": 127,
      "chip": "ym2612"
    },
    {
      "channel": 2,
      "note": 53,
      "start": 31.2089,
      "duration": 0.2217,
      "velocity": 80,
      "chip": "ym2612"
    },
    {
      "channel": 3,
      "note": 65,
      "start": 31.2091,
      "duration": 0.2216,
      "velocity": 94,
      "chip": "ym2612"
    },
    {
      "channel": 5,
      "note": 56,
      "start": 31.2094,
      "duration": 0.1003,
      "velocity": 91,
      "chip": "ym2612"
    },
    {
      "channel": 4,
      "note": 61,
      "start": 31.271,
      "duration": 0.0992,
      "velocity": 127,
      "chip": "ym2612"
    },
    {
      "channel": 5,
      "note": 53,
      "start": 31.33,
      "duration": 0.2217,
      "velocity": 91,
      "chip": "ym2612"
    },
    {
      "channel": 4,
      "note": 57,
      "start": 31.3905,
      "duration": 0.0622,
      "velocity": 127,
      "chip": "ym2612"
    },
    {
      "channel": 2,
      "note": 54,
      "start": 31.4509,
      "duration": 0.3225,
      "velocity": 80,
      "chip": "ym2612"
    },
    {
      "channel": 3,
      "note": 66,
      "start": 31.4511,
      "duration": 0.3225,
      "velocity": 94,
      "chip": "ym2612"
    },
    {
      "channel": 4,
      "note": 33,
      "start": 31.4528,
      "duration": 0.0599,
      "velocity": 127,
      "chip": "ym2612"
    },
    {
      "channel": 4,
      "note": 61,
      "start": 31.5129,
      "duration": 0.0993,
      "velocity": 127,
      "chip": "ym2612"
    },
    {
      "channel": 5,
      "note": 54,
      "start": 31.5719,
      "duration": 0.3226,
      "velocity": 91,
      "chip": "ym2612"
    },
    {
      "channel": 4,
      "note": 33,
      "start": 31.6339,
      "duration": 0.0993,
      "velocity": 127,
      "chip": "ym2612"
    },
    {
      "channel": 4,
      "note": 61,
      "start": 31.7553,
      "duration": 0.0988,
      "velocity": 127,
      "chip": "ym2612"
    },
    {
      "channel": 2,
      "note": 54,
      "start": 31.8138,
      "duration": 0.2218,
      "velocity": 80,
      "chip": "ym2612"
    },
    {
      "channel": 3,
      "note": 66,
      "start": 31.8139,
      "duration": 0.2218,
      "velocity": 94,
      "chip": "ym2612"
    },
    {
      "channel": 4,
      "note": 33,
      "start": 31.8759,
      "duration": 0.0993,
      "velocity": 127,
      "chip": "ym2612"
    },
    {
      "channel": 5,
      "note": 54,
      "start": 31.9348,
      "duration": 0.222,
      "velocity": 91,
      "chip": "ym2612"
    },
    {
      "channel": 4,
      "note": 61,
      "start": 31.9968,
      "duration": 0.0993,
      "velocity": 127,
      "chip": "ym2612"
    },
    {
      "channel": 2,
      "note": 58,
      "start": 32.0558,
      "duration": 0.1008,
      "velocity": 80,
      "chip": "ym2612"
    },
    {
      "channel": 3,
      "note": 70,
      "start": 32.056,
      "duration": 0.1007,
      "velocity": 94,
      "chip": "ym2612"
    },
    {
      "channel": 4,
      "note": 33,
      "start": 32.1178,
      "duration": 0.0993,
      "velocity": 127,
      "chip": "ym2612"
    },
    {
      "channel": 2,
      "note": 54,
      "start": 32.1768,
      "duration": 0.2217,
      "velocity": 80,
      "chip": "ym2612"
    },
    {
      "channel": 3,
      "note": 66,
      "start": 32.177,
      "duration": 0.2217,
      "velocity": 94,
      "chip": "ym2612"
    },
    {
      "channel": 5,
      "note": 58,
      "start": 32.1773,
      "duration": 0.1004,
      "velocity": 91,
      "chip": "ym2612"
    },
    {
      "channel": 4,
      "note": 61,
      "start": 32.2392,
      "duration": 0.0992,
      "velocity": 127,
      "chip": "ym2612"
    },
    {
      "channel": 5,
      "note": 54,
      "start": 32.2979,
      "duration": 0.2219,
      "velocity": 91,
      "chip": "ym2612"
    },
    {
      "channel": 4,
      "note": 57,
      "start": 32.3583,
      "duration": 0.0622,
      "velocity": 127,
      "chip": "ym2612"
    },
    {
      "channel": 2,
      "note": 59,
      "start": 32.4188,
      "duration": 0.1007,
      "velocity": 80,
      "chip": "ym2612"
    },
    {
      "channel": 3,
      "note": 71,
      "start": 32.419,
      "duration": 0.1006,
      "velocity": 94,
      "chip": "ym2612"
    },
    {
      "channel": 4,
      "note": 33,
      "start": 32.4207,
      "duration": 0.06,
      "velocity": 127,
      "chip": "ym2612"
    },
    {
      "channel": 4,
      "note": 61,
      "start": 32.4808,
      "duration": 0.0992,
      "velocity": 127,
      "chip": "ym2612"
    },
    {
      "channel": 2,
      "note": 58,
      "start": 32.5398,
      "duration": 0.1007,
      "velocity": 80,
      "chip": "ym2612"
    },
    {
      "channel": 3,
      "note": 70,
      "start": 32.54,
      "duration": 0.1007,
      "velocity": 94,
      "chip": "ym2612"
    },
    {
      "channel": 5,
      "note": 59,
      "start": 32.5402,
      "duration": 0.1006,
      "velocity": 91,
      "chip": "ym2612"
    },
    {
      "channel": 4,
      "note": 57,
      "start": 32.6004,
      "duration": 0.0622,
      "velocity": 127,
      "chip": "ym2612"
    },
    {
      "channel": 2,
      "note": 54,
      "start": 32.6608,
      "duration": 0.1007,
      "velocity": 80,
      "chip": "ym2612"
    },
    {
      "channel": 3,
      "note": 66,
      "start": 32.661,
      "duration": 0.1006,
      "velocity": 94,
      "chip": "ym2612"
    },
    {
      "channel": 4,
      "note": 33,
      "start": 32.6627,
      "duration": 0.0603,
      "velocity": 127,
      "chip": "ym2612"
    },
    {
      "channel": 5,
      "note": 58,
      "start": 32.6629,
      "duration": 0.0989,
      "velocity": 91,
      "chip": "ym2612"
    },
    {
      "channel": 4,
      "note": 61,
      "start": 32.7231,
      "duration": 0.0989,
      "velocity": 127,
      "chip": "ym2612"
    },
    {
      "channel": 2,
      "note": 59,
      "start": 32.7817,
      "duration": 0.2217,
      "velocity": 80,
      "chip": "ym2612"
    },
    {
      "channel": 3,
      "note": 71,
      "start": 32.7819,
      "duration": 0.2217,
      "velocity": 94,
      "chip": "ym2612"
    },
    {
      "channel": 5,
      "note": 54,
      "start": 32.7821,
      "duration": 0.1004,
      "velocity": 91,
      "chip": "ym2612"
    },
    {
      "channel": 4,
      "note": 33,
      "start": 32.8437,
      "duration": 0.0993,
      "velocity": 127,
      "chip": "ym2612"
    },
    {
      "channel": 5,
      "note": 59,
      "start": 32.9028,
      "duration": 0.2219,
      "velocity": 91,
      "chip": "ym2612"
    },
    {
      "channel": 4,
      "note": 61,
      "start": 32.9647,
      "duration": 0.0992,
      "velocity": 127,
      "chip": "ym2612"
    },
    {
      "channel": 2,
      "note": 58,
      "start": 33.0237,
      "duration": 0.1007,
      "velocity": 80,
      "chip": "ym2612"
    },
    {
      "channel": 3,
      "note": 70,
      "start": 33.0239,
      "duration": 0.1006,
      "velocity": 94,
      "chip": "ym2612"
    },
    {
      "channel": 4,
      "note": 33,
      "start": 33.0857,
      "duration": 0.0992,
      "velocity": 127,
      "chip": "ym2612"
    },
    {
      "channel": 2,
      "note": 53,
      "start": 33.1447,
      "duration": 0.2217,
      "velocity": 80,
      "chip": "ym2612"
    },
    {
      "channel": 3,
      "note": 65,
      "start": 33.1449,
      "duration": 0.2216,
      "velocity": 94,
      "chip": "ym2612"
    },
    {
      "channel": 5,
      "note": 58,
      "start": 33.1451,
      "duration": 0.1004,
      "velocity": 91,
      "chip": "ym2612"
    },
    {
      "channel": 4,
      "note": 61,
      "start": 33.2067,
      "duration": 0.0993,
      "velocity": 127,
      "chip": "ym2612"
    },
    {
      "channel": 5,
      "note": 53,
      "start": 33.2658,
      "duration": 0.2216,
      "velocity": 91,
      "chip": "ym2612"
    },
    {
      "channel": 4,
      "note": 57,
      "start": 33.3263,
      "duration": 0.0626,
      "velocity": 127,
      "chip": "ym2612"
    },
    {
      "channel": 2,
      "note": 51,
      "start": 33.3867,
      "duration": 0.3225,
      "velocity": 80,
      "chip": "ym2612"
    },
    {
      "channel": 3,
      "note": 63,
      "start": 33.3869,
      "duration": 0.3224,
      "velocity": 94,
      "chip": "ym2612"
    },
    {
      "channel": 4,
      "note": 33,
      "start": 33.389,
      "duration": 0.0596,
      "velocity": 127,
      "chip": "ym2612"
    },
    {
      "channel": 4,
      "note": 61,
      "start": 33.4487,
      "duration": 0.0992,
      "velocity": 127,
      "chip": "ym2612"
    },
    {
      "channel": 5,
      "note": 51,
      "start": 33.5077,
      "duration": 0.3226,
      "velocity": 91,
      "chip": "ym2612"
    },
    {
      "channel": 4,
      "note": 33,
      "start": 33.5697,
      "duration": 0.0992,
      "velocity": 127,
      "chip": "ym2612"
    },
    {
      "channel": 4,
      "note": 61,
      "start": 33.6906,
      "duration": 0.0993,
      "velocity": 127,
      "chip": "ym2612"
    },
    {
      "channel": 2,
      "note": 51,
      "start": 33.7496,
      "duration": 0.2222,
      "velocity": 80,
      "chip": "ym2612"
    },
    {
      "channel": 3,
      "note": 63,
      "start": 33.7497,
      "duration": 0.2222,
      "velocity": 94,
      "chip": "ym2612"
    },
    {
      "channel": 4,
      "note": 33,
      "start": 33.8116,
      "duration": 0.0993,
      "velocity": 127,
      "chip": "ym2612"
    },
    {
      "channel": 5,
      "note": 51,
      "start": 33.8706,
      "duration": 0.222,
      "velocity": 91,
      "chip": "ym2612"
    },
    {
      "channel": 4,
      "note": 61,
      "start": 33.9326,
      "duration": 0.0992,
      "velocity": 127,
      "chip": "ym2612"
    },
    {
      "channel": 2,
      "note": 54,
      "start": 33.9916,
      "duration": 0.1007,
      "velocity": 80,
      "chip": "ym2612"
    },
    {
      "channel": 3,
      "note": 66,
      "start": 33.9918,
      "duration": 0.1006,
      "velocity": 94,
      "chip": "ym2612"
    },
    {
      "channel": 4,
      "note": 33,
      "start": 34.0536,
      "duration": 0.0992,
      "velocity": 127,
      "chip": "ym2612"
    },
    {
      "channel": 2,
      "note": 51,
      "start": 34.1126,
      "duration": 0.2217,
      "velocity": 80,
      "chip": "ym2612"
    },
    {
      "channel": 3,
      "note": 63,
      "start": 34.1128,
      "duration": 0.2216,
      "velocity": 94,
      "chip": "ym2612"
    },
    {
      "channel": 5,
      "note": 54,
      "start": 34.1129,
      "duration": 0.1004,
      "velocity": 91,
      "chip": "ym2612"
    },
    {
      "channel": 4,
      "note": 61,
      "start": 34.1745,
      "duration": 0.0993,
      "velocity": 127,
      "chip": "ym2612"
    },
    {
      "channel": 5,
      "note": 51,
      "start": 34.2336,
      "duration": 0.2217,
      "velocity": 91,
      "chip": "ym2612"
    },
    {
      "channel": 4,
      "note": 57,
      "start": 34.2941,
      "duration": 0.0625,
      "velocity": 127,
      "chip": "ym2612"
    },
    {
      "channel": 2,
      "note": 53,
      "start": 34.3549,
      "duration": 0.3221,
      "velocity": 80,
      "chip": "ym2612"
    },
    {
      "channel": 3,
      "note": 65,
      "start": 34.3551,
      "duration": 0.3221,
      "velocity": 94,
      "chip": "ym2612"
    },
    {
      "channel": 4,
      "note": 33,
      "start": 34.3568,
      "duration": 0.0596,
      "velocity": 127,
      "chip": "ym2612"
    },
    {
      "channel": 4,
      "note": 61,
      "start": 34.4166,
      "duration": 0.0992,
      "velocity": 127,
      "chip": "ym2612"
    },
    {
      "channel": 5,
      "note": 53,
      "start": 34.4756,
      "duration": 0.3226,
      "velocity": 91,
      "chip": "ym2612"
    },
    {
      "channel": 4,
      "note": 57,
      "start": 34.5361,
      "duration": 0.0618,
      "velocity": 127,
      "chip": "ym2612"
    },
    {
      "channel": 4,
      "note": 33,
      "start": 34.5981,
      "duration": 0.0603,
      "velocity": 127,
      "chip": "ym2612"
    },
    {
      "channel": 4,
      "note": 61,
      "start": 34.6585,
      "duration": 0.0993,
      "velocity": 127,
      "chip": "ym2612"
    },
    {
      "channel": 2,
      "note": 53,
      "start": 34.7174,
      "duration": 0.2218,
      "velocity": 80,
      "chip": "ym2612"
    },
    {
      "channel": 3,
      "note": 65,
      "start": 34.7175,
      "duration": 0.2218,
      "velocity": 94,
      "chip": "ym2612"
    },
    {
      "channel": 4,
      "note": 33,
      "start": 34.7795,
      "duration": 0.0993,
      "velocity": 127,
      "chip": "ym2612"
    },
    {
      "channel": 5,
      "note": 53,
      "start": 34.8385,
      "duration": 0.2219,
      "velocity": 91,
      "chip": "ym2612"
    },
    {
      "channel": 4,
      "note": 61,
      "start": 34.9005,
      "duration": 0.0993,
      "velocity": 127,
      "chip": "ym2612"
    },
    {
      "channel": 2,
      "note": 56,
      "start": 34.9595,
      "duration": 0.1007,
      "velocity": 80,
      "chip": "ym2612"
    },
    {
      "channel": 3,
      "note": 68,
      "start": 34.9596,
      "duration": 0.1006,
      "velocity": 94,
      "chip": "ym2612"
    },
    {
      "channel": 4,
      "note": 33,
      "start": 35.0218,
      "duration": 0.0989,
      "velocity": 127,
      "chip": "ym2612"
    },
    {
      "channel": 2,
      "note": 53,
      "start": 35.0805,
      "duration": 0.2217,
      "velocity": 80,
      "chip": "ym2612"
    },
    {
      "channel": 3,
      "note": 65,
      "start": 35.0806,
      "duration": 0.2216,
      "velocity": 94,
      "chip": "ym2612"
    },
    {
      "channel": 5,
      "note": 56,
      "start": 35.0808,
      "duration": 0.1004,
      "velocity": 91,
      "chip": "ym2612"
    },
    {
      "channel": 4,
      "note": 61,
      "start": 35.1424,
      "duration": 0.0993,
      "velocity": 127,
      "chip": "ym2612"
    },
    {
      "channel": 5,
      "note": 53,
      "start": 35.2015,
      "duration": 0.2217,
      "velocity": 91,
      "chip": "ym2612"
    },
    {
      "channel": 4,
      "note": 57,
      "start": 35.262,
      "duration": 0.0622,
      "velocity": 127,
      "chip": "ym2612"
    },
    {
      "channel": 2,
      "note": 54,
      "start": 35.3224,
      "duration": 0.3225,
      "velocity": 80,
      "chip": "ym2612"
    },
    {
      "channel": 3,
      "note": 66,
      "start": 35.3226,
      "duration": 0.3224,
      "velocity": 94,
      "chip": "ym2612"
    },
    {
      "channel": 4,
      "note": 33,
      "start": 35.3243,
      "duration": 0.06,
      "velocity": 127,
      "chip": "ym2612"
    },
    {
      "channel": 4,
      "note": 61,
      "start": 35.3844,
      "duration": 0.0992,
      "velocity": 127,
      "chip": "ym2612"
    },
    {
      "channel": 5,
      "note": 54,
      "start": 35.4434,
      "duration": 0.3226,
      "velocity": 91,
      "chip": "ym2612"
    },
    {
      "channel": 4,
      "note": 33,
      "start": 35.5058,
      "duration": 0.0994,
      "velocity": 127,
      "chip": "ym2612"
    },
    {
      "channel": 4,
      "note": 61,
      "start": 35.6264,
      "duration": 0.0993,
      "velocity": 127,
      "chip": "ym2612"
    },
    {
      "channel": 2,
      "note": 54,
      "start": 35.6853,
      "duration": 0.2217,
      "velocity": 80,
      "chip": "ym2612"
    },
    {
      "channel": 3,
      "note": 66,
      "start": 35.6854,
      "duration": 0.2217,
      "velocity": 94,
      "chip": "ym2612"
    },
    {
      "channel": 4,
      "note": 33,
      "start": 35.7474,
      "duration": 0.0992,
      "velocity": 127,
      "chip": "ym2612"
    },
    {
      "channel": 5,
      "note": 54,
      "start": 35.8063,
      "duration": 0.222,
      "velocity": 91,
      "chip": "ym2612"
    },
    {
      "channel": 4,
      "note": 61,
      "start": 35.8684,
      "duration": 0.0992,
      "velocity": 127,
      "chip": "ym2612"
    },
    {
      "channel": 2,
      "note": 58,
      "start": 35.9273,
      "duration": 0.1008,
      "velocity": 80,
      "chip": "ym2612"
    },
    {
      "channel": 3,
      "note": 70,
      "start": 35.9275,
      "duration": 0.1007,
      "velocity": 94,
      "chip": "ym2612"
    },
    {
      "channel": 4,
      "note": 33,
      "start": 35.9897,
      "duration": 0.0989,
      "velocity": 127,
      "chip": "ym2612"
    },
    {
      "channel": 2,
      "note": 54,
      "start": 36.0483,
      "duration": 0.2217,
      "velocity": 80,
      "chip": "ym2612"
    },
    {
      "channel": 3,
      "note": 66,
      "start": 36.0485,
      "duration": 0.2216,
      "velocity": 94,
      "chip": "ym2612"
    },
    {
      "channel": 5,
      "note": 58,
      "start": 36.0487,
      "duration": 0.1004,
      "velocity": 91,
      "chip": "ym2612"
    },
    {
      "channel": 4,
      "note": 61,
      "start": 36.1103,
      "duration": 0.0993,
      "velocity": 127,
      "chip": "ym2612"
    },
    {
      "channel": 5,
      "note": 54,
      "start": 36.1694,
      "duration": 0.1009,
      "velocity": 91,
      "chip": "ym2612"
    },
    {
      "channel": 4,
      "note": 68,
      "start": 36.2313,
      "duration": 0.0993,
      "velocity": 127,
      "chip": "ym2612"
    },
    {
      "channel": 2,
      "note": 59,
      "start": 36.2916,
      "duration": 0.0994,
      "velocity": 80,
      "chip": "ym2612"
    },
    {
      "channel": 3,
      "note": 59,
      "start": 36.2932,
      "duration": 0.098,
      "velocity": 119,
      "chip": "ym2612"
    },
    {
      "channel": 5,
      "note": 83,
      "start": 36.2949,
      "duration": 0.0964,
      "velocity": 105,
      "chip": "ym2612"
    },
    {
      "channel": 4,
      "note": 45,
      "start": 36.3523,
      "duration": 0.321,
      "velocity": 127,
      "chip": "ym2612"
    },
    {
      "channel": 1,
      "note": 45,
      "start": 36.4116,
      "duration": 0.3222,
      "velocity": 127,
      "chip": "ym2612"
    },
    {
      "channel": 2,
      "note": 56,
      "start": 36.4117,
      "duration": 0.3221,
      "velocity": 80,
      "chip": "ym2612"
    },
    {
      "channel": 3,
      "note": 56,
      "start": 36.4119,
      "duration": 0.3221,
      "velocity": 119,
      "chip": "ym2612"
    },
    {
      "channel": 5,
      "note": 80,
      "start": 36.4121,
      "duration": 0.3221,
      "velocity": 105,
      "chip": "ym2612"
    },
    {
      "channel": 4,
      "note": 68,
      "start": 36.7152,
      "duration": 0.0993,
      "velocity": 127,
      "chip": "ym2612"
    },
    {
      "channel": 2,
      "note": 59,
      "start": 36.7742,
      "duration": 0.1007,
      "velocity": 80,
      "chip": "ym2612"
    },
    {
      "channel": 3,
      "note": 59,
      "start": 36.7744,
      "duration": 0.1006,
      "velocity": 119,
      "chip": "ym2612"
    },
    {
      "channel": 5,
      "note": 83,
      "start": 36.7746,
      "duration": 0.1006,
      "velocity": 105,
      "chip": "ym2612"
    },
    {
      "channel": 4,
      "note": 45,
      "start": 36.8362,
      "duration": 0.3211,
      "velocity": 127,
      "chip": "ym2612"
    },
    {
      "channel": 1,
      "note": 45,
      "start": 36.8951,
      "duration": 0.3226,
      "velocity": 127,
      "chip": "ym2612"
    },
    {
      "channel": 2,
      "note": 53,
      "start": 36.8953,
      "duration": 0.3225,
      "velocity": 80,
      "chip": "ym2612"
    },
    {
      "channel": 3,
      "note": 53,
      "start": 36.8955,
      "duration": 0.3224,
      "velocity": 119,
      "chip": "ym2612"
    },
    {
      "channel": 5,
      "note": 77,
      "start": 36.8957,
      "duration": 0.3224,
      "velocity": 105,
      "chip": "ym2612"
    },
    {
      "channel": 4,
      "note": 33,
      "start": 37.1991,
      "duration": 0.2202,
      "velocity": 127,
      "chip": "ym2612"
    },
    {
      "channel": 1,
      "note": 82,
      "start": 37.2596,
      "duration": 0.2203,
      "velocity": 105,
      "chip": "ym2612"
    },
    {
      "channel": 2,
      "note": 51,
      "start": 37.2598,
      "duration": 0.0991,
      "velocity": 80,
      "chip": "ym2612"
    },
    {
      "channel": 3,
      "note": 51,
      "start": 37.2614,
      "duration": 0.2187,
      "velocity": 103,
      "chip": "ym2612"
    },
    {
      "channel": 5,
      "note": 82,
      "start": 37.2631,
      "duration": 0.0959,
      "velocity": 102,
      "chip": "ym2612"
    },
    {
      "channel": 2,
      "note": 51,
      "start": 37.379,
      "duration": 0.101,
      "velocity": 80,
      "chip": "ym2612"
    },
    {
      "channel": 5,
      "note": 75,
      "start": 37.3792,
      "duration": 0.101,
      "velocity": 102,
      "chip": "ym2612"
    },
    {
      "channel": 4,
      "note": 68,
      "start": 37.4411,
      "duration": 0.2203,
      "velocity": 127,
      "chip": "ym2612"
    },
    {
      "channel": 1,
      "note": 75,
      "start": 37.5001,
      "duration": 0.1807,
      "velocity": 105,
      "chip": "ym2612"
    },
    {
      "channel": 2,
      "note": 51,
      "start": 37.5002,
      "duration": 0.1006,
      "velocity": 80,
      "chip": "ym2612"
    },
    {
      "channel": 3,
      "note": 51,
      "start": 37.5004,
      "duration": 0.1006,
      "velocity": 103,
      "chip": "ym2612"
    },
    {
      "channel": 5,
      "note": 82,
      "start": 37.5005,
      "duration": 0.1005,
      "velocity": 102,
      "chip": "ym2612"
    },
    {
      "channel": 2,
      "note": 51,
      "start": 37.6211,
      "duration": 0.0598,
      "velocity": 80,
      "chip": "ym2612"
    },
    {
      "channel": 3,
      "note": 51,
      "start": 37.6215,
      "duration": 0.0593,
      "velocity": 103,
      "chip": "ym2612"
    },
    {
      "channel": 5,
      "note": 75,
      "start": 37.6217,
      "duration": 0.0591,
      "velocity": 102,
      "chip": "ym2612"
    }
  ]
}