{
  "track_name": "04 - Stage 2 Briefing",
  "duration_sec": 30.782,
  "sample_rate": 44100,
  "note_count": 480,
  "unique_pitches": 14,
  "pitch_range": 54,
  "avg_note_duration": 0.3862,
  "reconstruction_stats": {
    "notes_reconstructed": 480,
    "keyon_events": 480,
    "keyoff_events": 474,
    "orphan_keyons": 6,
    "unique_pitches": 14,
    "pitch_range": 54,
    "avg_duration_sec": 0.3862
  },
  "metadata": {
    "source": "G\\G-LOC\\04 - Stage 2 Briefing.vgz"
  },
  "notes": [
    {
      "channel": 0,
      "note": 79,
      "start": 0.0,
      "duration": 0.0,
      "velocity": 1,
      "chip": "ym2612"
    },
    {
      "channel": 0,
      "note": 51,
      "start": 0.0,
      "duration": 0.0,
      "velocity": 1,
      "chip": "ym2612"
    },
    {
      "channel": 0,
      "note": 38,
      "start": 0.0,
      "duration": 0.0507,
      "velocity": 119,
      "chip": "ym2612"
    },
    {
      "channel": 1,
      "note": 79,
      "start": 0.0,
      "duration": 0.0529,
      "velocity": 112,
      "chip": "ym2612"
    },
    {
      "channel": 2,
      "note": 79,
      "start": 0.0,
      "duration": 4.8981,
      "velocity": 117,
      "chip": "ym2612"
    },
    {
      "channel": 3,
      "note": 79,
      "start": 0.0,
      "duration": 0.055,
      "velocity": 127,
      "chip": "ym2612"
    },
    {
      "channel": 4,
      "note": 79,
      "start": 0.0,
      "duration": 0.282,
      "velocity": 119,
      "chip": "ym2612"
    },
    {
      "channel": 5,
      "note": 79,
      "start": 0.0,
      "duration": 30.7816,
      "velocity": 1,
      "chip": "ym2612"
    },
    {
      "channel": 0,
      "note": 39,
      "start": 0.0509,
      "duration": 0.1456,
      "velocity": 119,
      "chip": "ym2612"
    },
    {
      "channel": 1,
      "note": 51,
      "start": 0.053,
      "duration": 0.1456,
      "velocity": 109,
      "chip": "ym2612"
    },
    {
      "channel": 3,
      "note": 86,
      "start": 0.0552,
      "duration": 0.144,
      "velocity": 127,
      "chip": "ym2612"
    },
    {
      "channel": 0,
      "note": 51,
      "start": 0.1967,
      "duration": 0.1663,
      "velocity": 119,
      "chip": "ym2612"
    },
    {
      "channel": 1,
      "note": 51,
      "start": 0.1988,
      "duration": 0.1648,
      "velocity": 109,
      "chip": "ym2612"
    },
    {
      "channel": 3,
      "note": 86,
      "start": 0.1995,
      "duration": 0.0804,
      "velocity": 127,
      "chip": "ym2612"
    },
    {
      "channel": 3,
      "note": 86,
      "start": 0.2801,
      "duration": 0.1498,
      "velocity": 127,
      "chip": "ym2612"
    },
    {
      "channel": 4,
      "note": 39,
      "start": 0.2822,
      "duration": 0.1482,
      "velocity": 119,
      "chip": "ym2612"
    },
    {
      "channel": 0,
      "note": 38,
      "start": 0.3632,
      "duration": 0.1499,
      "velocity": 119,
      "chip": "ym2612"
    },
    {
      "channel": 1,
      "note": 51,
      "start": 0.3638,
      "duration": 0.1533,
      "velocity": 112,
      "chip": "ym2612"
    },
    {
      "channel": 3,
      "note": 86,
      "start": 0.4301,
      "duration": 0.3616,
      "velocity": 127,
      "chip": "ym2612"
    },
    {
      "channel": 4,
      "note": 51,
      "start": 0.4306,
      "duration": 0.158,
      "velocity": 119,
      "chip": "ym2612"
    },
    {
      "channel": 0,
      "note": 50,
      "start": 0.5133,
      "duration": 0.1477,
      "velocity": 119,
      "chip": "ym2612"
    },
    {
      "channel": 1,
      "note": 51,
      "start": 0.5173,
      "duration": 0.1458,
      "velocity": 109,
      "chip": "ym2612"
    },
    {
      "channel": 4,
      "note": 38,
      "start": 0.5888,
      "duration": 0.1433,
      "velocity": 119,
      "chip": "ym2612"
    },
    {
      "channel": 0,
      "note": 37,
      "start": 0.6611,
      "duration": 0.1294,
      "velocity": 119,
      "chip": "ym2612"
    },
    {
      "channel": 1,
      "note": 51,
      "start": 0.6633,
      "duration": 0.1278,
      "velocity": 109,
      "chip": "ym2612"
    },
    {
      "channel": 4,
      "note": 50,
      "start": 0.7322,
      "duration": 0.1299,
      "velocity": 119,
      "chip": "ym2612"
    },
    {
      "channel": 0,
      "note": 49,
      "start": 0.7907,
      "duration": 0.1476,
      "velocity": 119,
      "chip": "ym2612"
    },
    {
      "channel": 1,
      "note": 51,
      "start": 0.7912,
      "duration": 0.1492,
      "velocity": 112,
      "chip": "ym2612"
    },
    {
      "channel": 3,
      "note": 86,
      "start": 0.7919,
      "duration": 0.0697,
      "velocity": 127,
      "chip": "ym2612"
    },
    {
      "channel": 3,
      "note": 86,
      "start": 0.8617,
      "duration": 0.1601,
      "velocity": 127,
      "chip": "ym2612"
    },
    {
      "channel": 4,
      "note": 37,
      "start": 0.8623,
      "duration": 0.1601,
      "velocity": 119,
      "chip": "ym2612"
    },
    {
      "channel": 0,
      "note": 32,
      "start": 0.9385,
      "duration": 0.1665,
      "velocity": 119,
      "chip": "ym2612"
    },
    {
      "channel": 1,
      "note": 51,
      "start": 0.9407,
      "duration": 0.1665,
      "velocity": 109,
      "chip": "ym2612"
    },
    {
      "channel": 3,
      "note": 86,
      "start": 1.022,
      "duration": 0.3165,
      "velocity": 127,
      "chip": "ym2612"
    },
    {
      "channel": 4,
      "note": 49,
      "start": 1.0226,
      "duration": 0.1493,
      "velocity": 119,
      "chip": "ym2612"
    },
    {
      "channel": 0,
      "note": 44,
      "start": 1.1051,
      "duration": 1.3701,
      "velocity": 119,
      "chip": "ym2612"
    },
    {
      "channel": 1,
      "note": 51,
      "start": 1.1073,
      "duration": 0.1477,
      "velocity": 109,
      "chip": "ym2612"
    },
    {
      "channel": 4,
      "note": 32,
      "start": 1.1721,
      "duration": 0.167,
      "velocity": 119,
      "chip": "ym2612"
    },
    {
      "channel": 1,
      "note": 51,
      "start": 1.2552,
      "duration": 0.1681,
      "velocity": 112,
      "chip": "ym2612"
    },
    {
      "channel": 3,
      "note": 86,
      "start": 1.3387,
      "duration": 0.219,
      "velocity": 127,
      "chip": "ym2612"
    },
    {
      "channel": 4,
      "note": 44,
      "start": 1.3393,
      "duration": 1.3569,
      "velocity": 119,
      "chip": "ym2612"
    },
    {
      "channel": 1,
      "note": 51,
      "start": 1.4235,
      "duration": 0.1336,
      "velocity": 109,
      "chip": "ym2612"
    },
    {
      "channel": 1,
      "note": 51,
      "start": 1.5573,
      "duration": 0.1626,
      "velocity": 109,
      "chip": "ym2612"
    },
    {
      "channel": 3,
      "note": 86,
      "start": 1.5579,
      "duration": 0.2454,
      "velocity": 127,
      "chip": "ym2612"
    },
    {
      "channel": 1,
      "note": 51,
      "start": 1.72,
      "duration": 0.1681,
      "velocity": 112,
      "chip": "ym2612"
    },
    {
      "channel": 3,
      "note": 86,
      "start": 1.8035,
      "duration": 0.1423,
      "velocity": 127,
      "chip": "ym2612"
    },
    {
      "channel": 1,
      "note": 51,
      "start": 1.8883,
      "duration": 0.139,
      "velocity": 109,
      "chip": "ym2612"
    },
    {
      "channel": 3,
      "note": 86,
      "start": 1.946,
      "duration": 0.082,
      "velocity": 127,
      "chip": "ym2612"
    },
    {
      "channel": 1,
      "note": 51,
      "start": 2.0275,
      "duration": 0.1626,
      "velocity": 109,
      "chip": "ym2612"
    },
    {
      "channel": 3,
      "note": 86,
      "start": 2.0281,
      "duration": 0.2941,
      "velocity": 127,
      "chip": "ym2612"
    },
    {
      "channel": 1,
      "note": 51,
      "start": 2.1903,
      "duration": 0.1313,
      "velocity": 112,
      "chip": "ym2612"
    },
    {
      "channel": 1,
      "note": 51,
      "start": 2.3218,
      "duration": 0.1541,
      "velocity": 112,
      "chip": "ym2612"
    },
    {
      "channel": 3,
      "note": 86,
      "start": 2.3224,
      "duration": 0.3091,
      "velocity": 127,
      "chip": "ym2612"
    },
    {
      "channel": 0,
      "note": 39,
      "start": 2.4754,
      "duration": 0.1533,
      "velocity": 119,
      "chip": "ym2612"
    },
    {
      "channel": 1,
      "note": 54,
      "start": 2.476,
      "duration": 0.1549,
      "velocity": 109,
      "chip": "ym2612"
    },
    {
      "channel": 0,
      "note": 51,
      "start": 2.6289,
      "duration": 0.1499,
      "velocity": 119,
      "chip": "ym2612"
    },
    {
      "channel": 1,
      "note": 54,
      "start": 2.631,
      "duration": 0.1483,
      "velocity": 109,
      "chip": "ym2612"
    },
    {
      "channel": 3,
      "note": 86,
      "start": 2.6317,
      "duration": 0.0639,
      "velocity": 127,
      "chip": "ym2612"
    },
    {
      "channel": 3,
      "note": 86,
      "start": 2.6958,
      "duration": 0.2525,
      "velocity": 127,
      "chip": "ym2612"
    },
    {
      "channel": 4,
      "note": 39,
      "start": 2.6964,
      "duration": 0.166,
      "velocity": 119,
      "chip": "ym2612"
    },
    {
      "channel": 0,
      "note": 38,
      "start": 2.779,
      "duration": 0.1665,
      "velocity": 119,
      "chip": "ym2612"
    },
    {
      "channel": 1,
      "note": 54,
      "start": 2.7795,
      "duration": 0.1681,
      "velocity": 112,
      "chip": "ym2612"
    },
    {
      "channel": 4,
      "note": 51,
      "start": 2.8625,
      "duration": 0.1577,
      "velocity": 119,
      "chip": "ym2612"
    },
    {
      "channel": 0,
      "note": 50,
      "start": 2.9457,
      "duration": 0.1332,
      "velocity": 119,
      "chip": "ym2612"
    },
    {
      "channel": 1,
      "note": 54,
      "start": 2.9478,
      "duration": 0.1332,
      "velocity": 109,
      "chip": "ym2612"
    },
    {
      "channel": 3,
      "note": 86,
      "start": 2.9484,
      "duration": 0.2789,
      "velocity": 127,
      "chip": "ym2612"
    },
    {
      "channel": 4,
      "note": 38,
      "start": 3.0205,
      "duration": 0.1332,
      "velocity": 119,
      "chip": "ym2612"
    },
    {
      "channel": 0,
      "note": 37,
      "start": 3.079,
      "duration": 0.1471,
      "velocity": 119,
      "chip": "ym2612"
    },
    {
      "channel": 1,
      "note": 54,
      "start": 3.0811,
      "duration": 0.1456,
      "velocity": 109,
      "chip": "ym2612"
    },
    {
      "channel": 4,
      "note": 50,
      "start": 3.1538,
      "duration": 0.1513,
      "velocity": 119,
      "chip": "ym2612"
    },
    {
      "channel": 0,
      "note": 49,
      "start": 3.2263,
      "duration": 0.152,
      "velocity": 119,
      "chip": "ym2612"
    },
    {
      "channel": 1,
      "note": 54,
      "start": 3.2268,
      "duration": 0.1536,
      "velocity": 112,
      "chip": "ym2612"
    },
    {
      "channel": 3,
      "note": 86,
      "start": 3.2275,
      "duration": 0.1536,
      "velocity": 127,
      "chip": "ym2612"
    },
    {
      "channel": 4,
      "note": 37,
      "start": 3.3053,
      "duration": 0.1399,
      "velocity": 119,
      "chip": "ym2612"
    },
    {
      "channel": 0,
      "note": 32,
      "start": 3.3785,
      "duration": 0.1498,
      "velocity": 119,
      "chip": "ym2612"
    },
    {
      "channel": 1,
      "note": 54,
      "start": 3.3806,
      "duration": 0.1514,
      "velocity": 109,
      "chip": "ym2612"
    },
    {
      "channel": 3,
      "note": 86,
      "start": 3.3813,
      "duration": 0.3144,
      "velocity": 127,
      "chip": "ym2612"
    },
    {
      "channel": 4,
      "note": 49,
      "start": 3.4454,
      "duration": 0.1665,
      "velocity": 119,
      "chip": "ym2612"
    },
    {
      "channel": 0,
      "note": 44,
      "start": 3.5285,
      "duration": 1.3669,
      "velocity": 119,
      "chip": "ym2612"
    },
    {
      "channel": 1,
      "note": 54,
      "start": 3.5322,
      "duration": 0.1628,
      "velocity": 109,
      "chip": "ym2612"
    },
    {
      "channel": 4,
      "note": 32,
      "start": 3.6121,
      "duration": 0.167,
      "velocity": 119,
      "chip": "ym2612"
    },
    {
      "channel": 1,
      "note": 54,
      "start": 3.6952,
      "duration": 0.1514,
      "velocity": 112,
      "chip": "ym2612"
    },
    {
      "channel": 3,
      "note": 86,
      "start": 3.6958,
      "duration": 0.0827,
      "velocity": 127,
      "chip": "ym2612"
    },
    {
      "channel": 3,
      "note": 86,
      "start": 3.7786,
      "duration": 0.1391,
      "velocity": 127,
      "chip": "ym2612"
    },
    {
      "channel": 4,
      "note": 44,
      "start": 3.7792,
      "duration": 1.3297,
      "velocity": 119,
      "chip": "ym2612"
    },
    {
      "channel": 1,
      "note": 54,
      "start": 3.8468,
      "duration": 0.145,
      "velocity": 109,
      "chip": "ym2612"
    },
    {
      "channel": 3,
      "note": 86,
      "start": 3.9179,
      "duration": 0.3058,
      "velocity": 127,
      "chip": "ym2612"
    },
    {
      "channel": 1,
      "note": 54,
      "start": 3.992,
      "duration": 0.1649,
      "velocity": 109,
      "chip": "ym2612"
    },
    {
      "channel": 1,
      "note": 54,
      "start": 4.1571,
      "duration": 0.1529,
      "velocity": 112,
      "chip": "ym2612"
    },
    {
      "channel": 3,
      "note": 86,
      "start": 4.2239,
      "duration": 0.323,
      "velocity": 127,
      "chip": "ym2612"
    },
    {
      "channel": 1,
      "note": 54,
      "start": 4.3101,
      "duration": 0.165,
      "velocity": 109,
      "chip": "ym2612"
    },
    {
      "channel": 1,
      "note": 54,
      "start": 4.4753,
      "duration": 0.1284,
      "velocity": 109,
      "chip": "ym2612"
    },
    {
      "channel": 3,
      "note": 86,
      "start": 4.547,
      "duration": 0.1314,
      "velocity": 127,
      "chip": "ym2612"
    },
    {
      "channel": 1,
      "note": 54,
      "start": 4.6039,
      "duration": 0.1467,
      "velocity": 112,
      "chip": "ym2612"
    },
    {
      "channel": 3,
      "note": 86,
      "start": 4.6785,
      "duration": 0.2202,
      "velocity": 127,
      "chip": "ym2612"
    },
    {
      "channel": 1,
      "note": 54,
      "start": 4.7508,
      "duration": 0.1452,
      "velocity": 112,
      "chip": "ym2612"
    },
    {
      "channel": 0,
      "note": 39,
      "start": 4.8955,
      "duration": 0.1315,
      "velocity": 119,
      "chip": "ym2612"
    },
    {
      "channel": 1,
      "note": 51,
      "start": 4.8962,
      "duration": 0.1346,
      "velocity": 109,
      "chip": "ym2612"
    },
    {
      "channel": 2,
      "note": 51,
      "start": 4.8983,
      "duration": 1.188,
      "velocity": 117,
      "chip": "ym2612"
    },
    {
      "channel": 3,
      "note": 86,
      "start": 4.8989,
      "duration": 0.1326,
      "velocity": 127,
      "chip": "ym2612"
    },
    {
      "channel": 0,
      "note": 51,
      "start": 5.0273,
      "duration": 0.1641,
      "velocity": 119,
      "chip": "ym2612"
    },
    {
      "channel": 1,
      "note": 51,
      "start": 5.031,
      "duration": 0.1609,
      "velocity": 109,
      "chip": "ym2612"
    },
    {
      "channel": 3,
      "note": 86,
      "start": 5.0317,
      "duration": 0.0766,
      "velocity": 127,
      "chip": "ym2612"
    },
    {
      "channel": 3,
      "note": 86,
      "start": 5.1084,
      "duration": 0.1665,
      "velocity": 127,
      "chip": "ym2612"
    },
    {
      "channel": 4,
      "note": 39,
      "start": 5.1091,
      "duration": 0.1664,
      "velocity": 119,
      "chip": "ym2612"
    },
    {
      "channel": 0,
      "note": 38,
      "start": 5.1916,
      "duration": 0.1499,
      "velocity": 119,
      "chip": "ym2612"
    },
    {
      "channel": 1,
      "note": 51,
      "start": 5.1922,
      "duration": 0.1515,
      "velocity": 112,
      "chip": "ym2612"
    },
    {
      "channel": 3,
      "note": 86,
      "start": 5.2751,
      "duration": 0.3661,
      "velocity": 127,
      "chip": "ym2612"
    },
    {
      "channel": 4,
      "note": 51,
      "start": 5.2757,
      "duration": 0.1409,
      "velocity": 119,
      "chip": "ym2612"
    },
    {
      "channel": 0,
      "note": 50,
      "start": 5.3416,
      "duration": 0.1473,
      "velocity": 119,
      "chip": "ym2612"
    },
    {
      "channel": 1,
      "note": 51,
      "start": 5.3437,
      "duration": 0.1473,
      "velocity": 109,
      "chip": "ym2612"
    },
    {
      "channel": 4,
      "note": 38,
      "start": 5.4168,
      "duration": 0.1446,
      "velocity": 119,
      "chip": "ym2612"
    },
    {
      "channel": 0,
      "note": 37,
      "start": 5.4891,
      "duration": 0.1509,
      "velocity": 119,
      "chip": "ym2612"
    },
    {
      "channel": 1,
      "note": 51,
      "start": 5.4912,
      "duration": 0.1493,
      "velocity": 109,
      "chip": "ym2612"
    },
    {
      "channel": 4,
      "note": 50,
      "start": 5.5615,
      "duration": 0.1379,
      "velocity": 119,
      "chip": "ym2612"
    },
    {
      "channel": 0,
      "note": 49,
      "start": 5.6402,
      "duration": 0.131,
      "velocity": 119,
      "chip": "ym2612"
    },
    {
      "channel": 1,
      "note": 51,
      "start": 5.6407,
      "duration": 0.1343,
      "velocity": 112,
      "chip": "ym2612"
    },
    {
      "channel": 3,
      "note": 86,
      "start": 5.6413,
      "duration": 0.0576,
      "velocity": 127,
      "chip": "ym2612"
    },
    {
      "channel": 3,
      "note": 86,
      "start": 5.699,
      "duration": 0.1534,
      "velocity": 127,
      "chip": "ym2612"
    },
    {
      "channel": 4,
      "note": 37,
      "start": 5.6996,
      "duration": 0.1534,
      "velocity": 119,
      "chip": "ym2612"
    },
    {
      "channel": 0,
      "note": 32,
      "start": 5.7713,
      "duration": 0.1643,
      "velocity": 119,
      "chip": "ym2612"
    },
    {
      "channel": 1,
      "note": 51,
      "start": 5.7752,
      "duration": 0.1626,
      "velocity": 109,
      "chip": "ym2612"
    },
    {
      "channel": 3,
      "note": 86,
      "start": 5.8526,
      "duration": 0.3165,
      "velocity": 127,
      "chip": "ym2612"
    },
    {
      "channel": 4,
      "note": 49,
      "start": 5.8532,
      "duration": 0.166,
      "velocity": 119,
      "chip": "ym2612"
    },
    {
      "channel": 0,
      "note": 44,
      "start": 5.9358,
      "duration": 1.3644,
      "velocity": 119,
      "chip": "ym2612"
    },
    {
      "channel": 1,
      "note": 51,
      "start": 5.9379,
      "duration": 0.1477,
      "velocity": 109,
      "chip": "ym2612"
    },
    {
      "channel": 4,
      "note": 32,
      "start": 6.0194,
      "duration": 0.1504,
      "velocity": 119,
      "chip": "ym2612"
    },
    {
      "channel": 1,
      "note": 51,
      "start": 6.0858,
      "duration": 0.1681,
      "velocity": 112,
      "chip": "ym2612"
    },
    {
      "channel": 2,
      "note": 58,
      "start": 6.0863,
      "duration": 1.2166,
      "velocity": 117,
      "chip": "ym2612"
    },
    {
      "channel": 3,
      "note": 86,
      "start": 6.1693,
      "duration": 0.2334,
      "velocity": 127,
      "chip": "ym2612"
    },
    {
      "channel": 4,
      "note": 44,
      "start": 6.1699,
      "duration": 1.3643,
      "velocity": 119,
      "chip": "ym2612"
    },
    {
      "channel": 1,
      "note": 51,
      "start": 6.2541,
      "duration": 0.1479,
      "velocity": 109,
      "chip": "ym2612"
    },
    {
      "channel": 1,
      "note": 51,
      "start": 6.4022,
      "duration": 0.1482,
      "velocity": 109,
      "chip": "ym2612"
    },
    {
      "channel": 3,
      "note": 86,
      "start": 6.4029,
      "duration": 0.231,
      "velocity": 127,
      "chip": "ym2612"
    },
    {
      "channel": 1,
      "note": 51,
      "start": 6.5506,
      "duration": 0.1681,
      "velocity": 112,
      "chip": "ym2612"
    },
    {
      "channel": 3,
      "note": 86,
      "start": 6.6341,
      "duration": 0.162,
      "velocity": 127,
      "chip": "ym2612"
    },
    {
      "channel": 1,
      "note": 51,
      "start": 6.7189,
      "duration": 0.1373,
      "velocity": 109,
      "chip": "ym2612"
    },
    {
      "channel": 3,
      "note": 86,
      "start": 6.7963,
      "duration": 0.0606,
      "velocity": 127,
      "chip": "ym2612"
    },
    {
      "channel": 1,
      "note": 51,
      "start": 6.8564,
      "duration": 0.1626,
      "velocity": 109,
      "chip": "ym2612"
    },
    {
      "channel": 3,
      "note": 86,
      "start": 6.8571,
      "duration": 0.3116,
      "velocity": 127,
      "chip": "ym2612"
    },
    {
      "channel": 1,
      "note": 51,
      "start": 7.0192,
      "duration": 0.1488,
      "velocity": 112,
      "chip": "ym2612"
    },
    {
      "channel": 1,
      "note": 51,
      "start": 7.1682,
      "duration": 0.1325,
      "velocity": 112,
      "chip": "ym2612"
    },
    {
      "channel": 3,
      "note": 86,
      "start": 7.1688,
      "duration": 0.284,
      "velocity": 127,
      "chip": "ym2612"
    },
    {
      "channel": 0,
      "note": 39,
      "start": 7.3003,
      "duration": 0.1497,
      "velocity": 119,
      "chip": "ym2612"
    },
    {
      "channel": 1,
      "note": 54,
      "start": 7.3009,
      "duration": 0.1513,
      "velocity": 109,
      "chip": "ym2612"
    },
    {
      "channel": 2,
      "note": 61,
      "start": 7.3032,
      "duration": 2.4057,
      "velocity": 117,
      "chip": "ym2612"
    },
    {
      "channel": 0,
      "note": 51,
      "start": 7.4502,
      "duration": 0.1498,
      "velocity": 119,
      "chip": "ym2612"
    },
    {
      "channel": 1,
      "note": 54,
      "start": 7.4524,
      "duration": 0.1482,
      "velocity": 109,
      "chip": "ym2612"
    },
    {
      "channel": 3,
      "note": 86,
      "start": 7.4529,
      "duration": 0.0806,
      "velocity": 127,
      "chip": "ym2612"
    },
    {
      "channel": 3,
      "note": 86,
      "start": 7.5337,
      "duration": 0.2357,
      "velocity": 127,
      "chip": "ym2612"
    },
    {
      "channel": 4,
      "note": 39,
      "start": 7.5343,
      "duration": 0.1493,
      "velocity": 119,
      "chip": "ym2612"
    },
    {
      "channel": 0,
      "note": 38,
      "start": 7.6002,
      "duration": 0.1666,
      "velocity": 119,
      "chip": "ym2612"
    },
    {
      "channel": 1,
      "note": 54,
      "start": 7.6008,
      "duration": 0.1681,
      "velocity": 112,
      "chip": "ym2612"
    },
    {
      "channel": 4,
      "note": 51,
      "start": 7.6838,
      "duration": 0.1542,
      "velocity": 119,
      "chip": "ym2612"
    },
    {
      "channel": 0,
      "note": 50,
      "start": 7.7669,
      "duration": 0.1391,
      "velocity": 119,
      "chip": "ym2612"
    },
    {
      "channel": 1,
      "note": 54,
      "start": 7.769,
      "duration": 0.1392,
      "velocity": 109,
      "chip": "ym2612"
    },
    {
      "channel": 3,
      "note": 86,
      "start": 7.7697,
      "duration": 0.2696,
      "velocity": 127,
      "chip": "ym2612"
    },
    {
      "channel": 4,
      "note": 38,
      "start": 7.8382,
      "duration": 0.1275,
      "velocity": 119,
      "chip": "ym2612"
    },
    {
      "channel": 0,
      "note": 37,
      "start": 7.9062,
      "duration": 0.13,
      "velocity": 119,
      "chip": "ym2612"
    },
    {
      "channel": 1,
      "note": 54,
      "start": 7.9084,
      "duration": 0.1284,
      "velocity": 109,
      "chip": "ym2612"
    },
    {
      "channel": 4,
      "note": 50,
      "start": 7.9658,
      "duration": 0.1458,
      "velocity": 119,
      "chip": "ym2612"
    },
    {
      "channel": 0,
      "note": 49,
      "start": 8.0364,
      "duration": 0.1537,
      "velocity": 119,
      "chip": "ym2612"
    },
    {
      "channel": 1,
      "note": 54,
      "start": 8.037,
      "duration": 0.1553,
      "velocity": 112,
      "chip": "ym2612"
    },
    {
      "channel": 3,
      "note": 86,
      "start": 8.0395,
      "duration": 0.1534,
      "velocity": 127,
      "chip": "ym2612"
    },
    {
      "channel": 4,
      "note": 37,
      "start": 8.1117,
      "duration": 0.162,
      "velocity": 119,
      "chip": "ym2612"
    },
    {
      "channel": 0,
      "note": 32,
      "start": 8.1903,
      "duration": 0.1498,
      "velocity": 119,
      "chip": "ym2612"
    },
    {
      "channel": 1,
      "note": 54,
      "start": 8.1925,
      "duration": 0.1498,
      "velocity": 109,
      "chip": "ym2612"
    },
    {
      "channel": 3,
      "note": 86,
      "start": 8.1931,
      "duration": 0.3144,
      "velocity": 127,
      "chip": "ym2612"
    },
    {
      "channel": 4,
      "note": 49,
      "start": 8.2739,
      "duration": 0.1498,
      "velocity": 119,
      "chip": "ym2612"
    },
    {
      "channel": 0,
      "note": 44,
      "start": 8.3403,
      "duration": 1.3673,
      "velocity": 119,
      "chip": "ym2612"
    },
    {
      "channel": 1,
      "note": 54,
      "start": 8.3425,
      "duration": 0.1644,
      "velocity": 109,
      "chip": "ym2612"
    },
    {
      "channel": 4,
      "note": 32,
      "start": 8.4239,
      "duration": 0.167,
      "velocity": 119,
      "chip": "ym2612"
    },
    {
      "channel": 1,
      "note": 54,
      "start": 8.507,
      "duration": 0.1681,
      "velocity": 112,
      "chip": "ym2612"
    },
    {
      "channel": 3,
      "note": 86,
      "start": 8.5077,
      "duration": 0.0826,
      "velocity": 127,
      "chip": "ym2612"
    },
    {
      "channel": 3,
      "note": 86,
      "start": 8.5905,
      "duration": 0.1423,
      "velocity": 127,
      "chip": "ym2612"
    },
    {
      "channel": 4,
      "note": 44,
      "start": 8.5911,
      "duration": 1.3303,
      "velocity": 119,
      "chip": "ym2612"
    },
    {
      "channel": 1,
      "note": 54,
      "start": 8.6753,
      "duration": 0.1351,
      "velocity": 109,
      "chip": "ym2612"
    },
    {
      "channel": 3,
      "note": 86,
      "start": 8.733,
      "duration": 0.3221,
      "velocity": 127,
      "chip": "ym2612"
    },
    {
      "channel": 1,
      "note": 54,
      "start": 8.8105,
      "duration": 0.1611,
      "velocity": 109,
      "chip": "ym2612"
    },
    {
      "channel": 1,
      "note": 54,
      "start": 8.9718,
      "duration": 0.1514,
      "velocity": 112,
      "chip": "ym2612"
    },
    {
      "channel": 3,
      "note": 86,
      "start": 9.0553,
      "duration": 0.308,
      "velocity": 127,
      "chip": "ym2612"
    },
    {
      "channel": 1,
      "note": 54,
      "start": 9.1234,
      "duration": 0.1665,
      "velocity": 109,
      "chip": "ym2612"
    },
    {
      "channel": 1,
      "note": 54,
      "start": 9.2901,
      "duration": 0.1459,
      "velocity": 109,
      "chip": "ym2612"
    },
    {
      "channel": 3,
      "note": 86,
      "start": 9.3635,
      "duration": 0.1335,
      "velocity": 127,
      "chip": "ym2612"
    },
    {
      "channel": 1,
      "note": 54,
      "start": 9.4361,
      "duration": 0.1345,
      "velocity": 112,
      "chip": "ym2612"
    },
    {
      "channel": 3,
      "note": 86,
      "start": 9.4973,
      "duration": 0.2123,
      "velocity": 127,
      "chip": "ym2612"
    },
    {
      "channel": 1,
      "note": 54,
      "start": 9.5709,
      "duration": 0.1374,
      "velocity": 112,
      "chip": "ym2612"
    },
    {
      "channel": 0,
      "note": 39,
      "start": 9.7078,
      "duration": 0.1316,
      "velocity": 119,
      "chip": "ym2612"
    },
    {
      "channel": 1,
      "note": 51,
      "start": 9.7085,
      "duration": 0.1331,
      "velocity": 109,
      "chip": "ym2612"
    },
    {
      "channel": 2,
      "note": 58,
      "start": 9.7091,
      "duration": 1.2039,
      "velocity": 117,
      "chip": "ym2612"
    },
    {
      "channel": 3,
      "note": 86,
      "start": 9.7097,
      "duration": 0.1326,
      "velocity": 127,
      "chip": "ym2612"
    },
    {
      "channel": 0,
      "note": 51,
      "start": 9.8396,
      "duration": 0.1642,
      "velocity": 119,
      "chip": "ym2612"
    },
    {
      "channel": 1,
      "note": 51,
      "start": 9.8418,
      "duration": 0.1626,
      "velocity": 109,
      "chip": "ym2612"
    },
    {
      "channel": 3,
      "note": 86,
      "start": 9.8424,
      "duration": 0.0783,
      "velocity": 127,
      "chip": "ym2612"
    },
    {
      "channel": 3,
      "note": 86,
      "start": 9.9209,
      "duration": 0.1665,
      "velocity": 127,
      "chip": "ym2612"
    },
    {
      "channel": 4,
      "note": 39,
      "start": 9.9215,
      "duration": 0.1664,
      "velocity": 119,
      "chip": "ym2612"
    },
    {
      "channel": 0,
      "note": 38,
      "start": 10.004,
      "duration": 0.1666,
      "velocity": 119,
      "chip": "ym2612"
    },
    {
      "channel": 1,
      "note": 51,
      "start": 10.0046,
      "duration": 0.1681,
      "velocity": 112,
      "chip": "ym2612"
    },
    {
      "channel": 3,
      "note": 86,
      "start": 10.0875,
      "duration": 0.36,
      "velocity": 127,
      "chip": "ym2612"
    },
    {
      "channel": 4,
      "note": 51,
      "start": 10.0881,
      "duration": 0.1419,
      "velocity": 119,
      "chip": "ym2612"
    },
    {
      "channel": 0,
      "note": 50,
      "start": 10.1707,
      "duration": 0.1297,
      "velocity": 119,
      "chip": "ym2612"
    },
    {
      "channel": 1,
      "note": 51,
      "start": 10.1728,
      "duration": 0.1314,
      "velocity": 109,
      "chip": "ym2612"
    },
    {
      "channel": 4,
      "note": 38,
      "start": 10.2302,
      "duration": 0.1457,
      "velocity": 119,
      "chip": "ym2612"
    },
    {
      "channel": 0,
      "note": 37,
      "start": 10.3006,
      "duration": 0.1459,
      "velocity": 119,
      "chip": "ym2612"
    },
    {
      "channel": 1,
      "note": 51,
      "start": 10.3044,
      "duration": 0.1426,
      "velocity": 109,
      "chip": "ym2612"
    },
    {
      "channel": 4,
      "note": 50,
      "start": 10.3761,
      "duration": 0.1437,
      "velocity": 119,
      "chip": "ym2612"
    },
    {
      "channel": 0,
      "note": 49,
      "start": 10.4466,
      "duration": 0.1333,
      "velocity": 119,
      "chip": "ym2612"
    },
    {
      "channel": 1,
      "note": 51,
      "start": 10.4471,
      "duration": 0.1348,
      "velocity": 112,
      "chip": "ym2612"
    },
    {
      "channel": 3,
      "note": 86,
      "start": 10.4478,
      "duration": 0.0715,
      "velocity": 127,
      "chip": "ym2612"
    },
    {
      "channel": 3,
      "note": 86,
      "start": 10.5195,
      "duration": 0.1432,
      "velocity": 127,
      "chip": "ym2612"
    },
    {
      "channel": 4,
      "note": 37,
      "start": 10.52,
      "duration": 0.1432,
      "velocity": 119,
      "chip": "ym2612"
    },
    {
      "channel": 0,
      "note": 32,
      "start": 10.58,
      "duration": 0.1657,
      "velocity": 119,
      "chip": "ym2612"
    },
    {
      "channel": 1,
      "note": 51,
      "start": 10.5822,
      "duration": 0.1657,
      "velocity": 109,
      "chip": "ym2612"
    },
    {
      "channel": 3,
      "note": 86,
      "start": 10.6627,
      "duration": 0.3165,
      "velocity": 127,
      "chip": "ym2612"
    },
    {
      "channel": 4,
      "note": 49,
      "start": 10.6633,
      "duration": 0.166,
      "velocity": 119,
      "chip": "ym2612"
    },
    {
      "channel": 0,
      "note": 44,
      "start": 10.7459,
      "duration": 1.3661,
      "velocity": 119,
      "chip": "ym2612"
    },
    {
      "channel": 1,
      "note": 51,
      "start": 10.748,
      "duration": 0.1644,
      "velocity": 109,
      "chip": "ym2612"
    },
    {
      "channel": 4,
      "note": 32,
      "start": 10.8294,
      "duration": 0.1504,
      "velocity": 119,
      "chip": "ym2612"
    },
    {
      "channel": 1,
      "note": 51,
      "start": 10.9126,
      "duration": 0.1532,
      "velocity": 112,
      "chip": "ym2612"
    },
    {
      "channel": 2,
      "note": 51,
      "start": 10.9131,
      "duration": 1.2,
      "velocity": 117,
      "chip": "ym2612"
    },
    {
      "channel": 3,
      "note": 86,
      "start": 10.9794,
      "duration": 0.2394,
      "velocity": 127,
      "chip": "ym2612"
    },
    {
      "channel": 4,
      "note": 44,
      "start": 10.98,
      "duration": 1.3651,
      "velocity": 119,
      "chip": "ym2612"
    },
    {
      "channel": 1,
      "note": 51,
      "start": 11.066,
      "duration": 0.1522,
      "velocity": 109,
      "chip": "ym2612"
    },
    {
      "channel": 1,
      "note": 51,
      "start": 11.2183,
      "duration": 0.1482,
      "velocity": 109,
      "chip": "ym2612"
    },
    {
      "channel": 3,
      "note": 86,
      "start": 11.219,
      "duration": 0.2311,
      "velocity": 127,
      "chip": "ym2612"
    },
    {
      "channel": 1,
      "note": 51,
      "start": 11.3667,
      "duration": 0.1681,
      "velocity": 112,
      "chip": "ym2612"
    },
    {
      "channel": 3,
      "note": 86,
      "start": 11.4502,
      "duration": 0.1557,
      "velocity": 127,
      "chip": "ym2612"
    },
    {
      "channel": 1,
      "note": 51,
      "start": 11.5351,
      "duration": 0.1491,
      "velocity": 109,
      "chip": "ym2612"
    },
    {
      "channel": 3,
      "note": 86,
      "start": 11.6061,
      "duration": 0.0787,
      "velocity": 127,
      "chip": "ym2612"
    },
    {
      "channel": 1,
      "note": 51,
      "start": 11.6844,
      "duration": 0.1483,
      "velocity": 109,
      "chip": "ym2612"
    },
    {
      "channel": 3,
      "note": 86,
      "start": 11.685,
      "duration": 0.2958,
      "velocity": 127,
      "chip": "ym2612"
    },
    {
      "channel": 1,
      "note": 51,
      "start": 11.8329,
      "duration": 0.1473,
      "velocity": 112,
      "chip": "ym2612"
    },
    {
      "channel": 1,
      "note": 51,
      "start": 11.9804,
      "duration": 0.1322,
      "velocity": 112,
      "chip": "ym2612"
    },
    {
      "channel": 3,
      "note": 86,
      "start": 11.981,
      "duration": 0.2828,
      "velocity": 127,
      "chip": "ym2612"
    },
    {
      "channel": 0,
      "note": 39,
      "start": 12.1122,
      "duration": 0.1488,
      "velocity": 119,
      "chip": "ym2612"
    },
    {
      "channel": 1,
      "note": 54,
      "start": 12.1127,
      "duration": 0.1504,
      "velocity": 109,
      "chip": "ym2612"
    },
    {
      "channel": 2,
      "note": 57,
      "start": 12.1132,
      "duration": 2.42,
      "velocity": 1,
      "chip": "ym2612"
    },
    {
      "channel": 0,
      "note": 51,
      "start": 12.2611,
      "duration": 0.1666,
      "velocity": 119,
      "chip": "ym2612"
    },
    {
      "channel": 1,
      "note": 54,
      "start": 12.2633,
      "duration": 0.1649,
      "velocity": 109,
      "chip": "ym2612"
    },
    {
      "channel": 3,
      "note": 86,
      "start": 12.2639,
      "duration": 0.0806,
      "velocity": 127,
      "chip": "ym2612"
    },
    {
      "channel": 3,
      "note": 86,
      "start": 12.3446,
      "duration": 0.2377,
      "velocity": 127,
      "chip": "ym2612"
    },
    {
      "channel": 4,
      "note": 39,
      "start": 12.3452,
      "duration": 0.1492,
      "velocity": 119,
      "chip": "ym2612"
    },
    {
      "channel": 0,
      "note": 38,
      "start": 12.4278,
      "duration": 0.1499,
      "velocity": 119,
      "chip": "ym2612"
    },
    {
      "channel": 1,
      "note": 54,
      "start": 12.4284,
      "duration": 0.1533,
      "velocity": 112,
      "chip": "ym2612"
    },
    {
      "channel": 4,
      "note": 51,
      "start": 12.4946,
      "duration": 0.156,
      "velocity": 119,
      "chip": "ym2612"
    },
    {
      "channel": 0,
      "note": 50,
      "start": 12.5778,
      "duration": 0.1512,
      "velocity": 119,
      "chip": "ym2612"
    },
    {
      "channel": 1,
      "note": 54,
      "start": 12.5819,
      "duration": 0.1493,
      "velocity": 109,
      "chip": "ym2612"
    },
    {
      "channel": 3,
      "note": 86,
      "start": 12.5825,
      "duration": 0.2796,
      "velocity": 127,
      "chip": "ym2612"
    },
    {
      "channel": 4,
      "note": 38,
      "start": 12.6508,
      "duration": 0.1518,
      "velocity": 119,
      "chip": "ym2612"
    },
    {
      "channel": 0,
      "note": 37,
      "start": 12.7292,
      "duration": 0.1317,
      "velocity": 119,
      "chip": "ym2612"
    },
    {
      "channel": 1,
      "note": 54,
      "start": 12.7314,
      "duration": 0.1301,
      "velocity": 109,
      "chip": "ym2612"
    },
    {
      "channel": 4,
      "note": 50,
      "start": 12.8028,
      "duration": 0.133,
      "velocity": 119,
      "chip": "ym2612"
    },
    {
      "channel": 0,
      "note": 49,
      "start": 12.8611,
      "duration": 0.1532,
      "velocity": 119,
      "chip": "ym2612"
    },
    {
      "channel": 1,
      "note": 54,
      "start": 12.8617,
      "duration": 0.1548,
      "velocity": 112,
      "chip": "ym2612"
    },
    {
      "channel": 3,
      "note": 86,
      "start": 12.8623,
      "duration": 0.1548,
      "velocity": 127,
      "chip": "ym2612"
    },
    {
      "channel": 4,
      "note": 37,
      "start": 12.9359,
      "duration": 0.162,
      "velocity": 119,
      "chip": "ym2612"
    },
    {
      "channel": 0,
      "note": 32,
      "start": 13.0145,
      "duration": 0.1665,
      "velocity": 119,
      "chip": "ym2612"
    },
    {
      "channel": 1,
      "note": 54,
      "start": 13.0167,
      "duration": 0.1665,
      "velocity": 109,
      "chip": "ym2612"
    },
    {
      "channel": 3,
      "note": 86,
      "start": 13.0173,
      "duration": 0.3144,
      "velocity": 127,
      "chip": "ym2612"
    },
    {
      "channel": 4,
      "note": 49,
      "start": 13.0981,
      "duration": 0.1498,
      "velocity": 119,
      "chip": "ym2612"
    },
    {
      "channel": 0,
      "note": 44,
      "start": 13.1812,
      "duration": 11.029,
      "velocity": 119,
      "chip": "ym2612"
    },
    {
      "channel": 1,
      "note": 54,
      "start": 13.1834,
      "duration": 0.1477,
      "velocity": 109,
      "chip": "ym2612"
    },
    {
      "channel": 4,
      "note": 32,
      "start": 13.248,
      "duration": 0.1671,
      "velocity": 119,
      "chip": "ym2612"
    },
    {
      "channel": 1,
      "note": 54,
      "start": 13.3312,
      "duration": 0.1681,
      "velocity": 112,
      "chip": "ym2612"
    },
    {
      "channel": 3,
      "note": 86,
      "start": 13.3319,
      "duration": 0.0826,
      "velocity": 127,
      "chip": "ym2612"
    },
    {
      "channel": 3,
      "note": 86,
      "start": 13.4147,
      "duration": 0.1516,
      "velocity": 127,
      "chip": "ym2612"
    },
    {
      "channel": 4,
      "note": 44,
      "start": 13.4153,
      "duration": 11.0263,
      "velocity": 119,
      "chip": "ym2612"
    },
    {
      "channel": 1,
      "note": 54,
      "start": 13.4995,
      "duration": 0.1271,
      "velocity": 109,
      "chip": "ym2612"
    },
    {
      "channel": 3,
      "note": 86,
      "start": 13.5666,
      "duration": 0.3062,
      "velocity": 127,
      "chip": "ym2612"
    },
    {
      "channel": 1,
      "note": 54,
      "start": 13.6268,
      "duration": 0.1625,
      "velocity": 109,
      "chip": "ym2612"
    },
    {
      "channel": 1,
      "note": 54,
      "start": 13.7895,
      "duration": 0.1681,
      "velocity": 112,
      "chip": "ym2612"
    },
    {
      "channel": 3,
      "note": 86,
      "start": 13.8729,
      "duration": 0.3084,
      "velocity": 127,
      "chip": "ym2612"
    },
    {
      "channel": 1,
      "note": 54,
      "start": 13.9578,
      "duration": 0.1513,
      "velocity": 109,
      "chip": "ym2612"
    },
    {
      "channel": 1,
      "note": 54,
      "start": 14.1092,
      "duration": 0.145,
      "velocity": 109,
      "chip": "ym2612"
    },
    {
      "channel": 3,
      "note": 86,
      "start": 14.1815,
      "duration": 0.1452,
      "velocity": 127,
      "chip": "ym2612"
    },
    {
      "channel": 1,
      "note": 54,
      "start": 14.2544,
      "duration": 0.1328,
      "velocity": 112,
      "chip": "ym2612"
    },
    {
      "channel": 3,
      "note": 86,
      "start": 14.3269,
      "duration": 0.2071,
      "velocity": 127,
      "chip": "ym2612"
    },
    {
      "channel": 1,
      "note": 54,
      "start": 14.3873,
      "duration": 0.1439,
      "velocity": 112,
      "chip": "ym2612"
    },
    {
      "channel": 1,
      "note": 51,
      "start": 14.5313,
      "duration": 0.1515,
      "velocity": 109,
      "chip": "ym2612"
    },
    {
      "channel": 2,
      "note": 79,
      "start": 14.5335,
      "duration": 4.8332,
      "velocity": 127,
      "chip": "ym2612"
    },
    {
      "channel": 3,
      "note": 86,
      "start": 14.5341,
      "duration": 0.1494,
      "velocity": 127,
      "chip": "ym2612"
    },
    {
      "channel": 1,
      "note": 51,
      "start": 14.6831,
      "duration": 0.1483,
      "velocity": 109,
      "chip": "ym2612"
    },
    {
      "channel": 3,
      "note": 86,
      "start": 14.6837,
      "duration": 0.0644,
      "velocity": 127,
      "chip": "ym2612"
    },
    {
      "channel": 3,
      "note": 86,
      "start": 14.7483,
      "duration": 0.1665,
      "velocity": 127,
      "chip": "ym2612"
    },
    {
      "channel": 1,
      "note": 51,
      "start": 14.8315,
      "duration": 0.1681,
      "velocity": 112,
      "chip": "ym2612"
    },
    {
      "channel": 3,
      "note": 86,
      "start": 14.9149,
      "duration": 0.3706,
      "velocity": 127,
      "chip": "ym2612"
    },
    {
      "channel": 1,
      "note": 51,
      "start": 14.9997,
      "duration": 0.1374,
      "velocity": 109,
      "chip": "ym2612"
    },
    {
      "channel": 1,
      "note": 51,
      "start": 15.1373,
      "duration": 0.1476,
      "velocity": 109,
      "chip": "ym2612"
    },
    {
      "channel": 1,
      "note": 51,
      "start": 15.2851,
      "duration": 0.1494,
      "velocity": 112,
      "chip": "ym2612"
    },
    {
      "channel": 3,
      "note": 86,
      "start": 15.2857,
      "duration": 0.0761,
      "velocity": 127,
      "chip": "ym2612"
    },
    {
      "channel": 3,
      "note": 86,
      "start": 15.362,
      "duration": 0.1377,
      "velocity": 127,
      "chip": "ym2612"
    },
    {
      "channel": 1,
      "note": 51,
      "start": 15.4347,
      "duration": 0.1513,
      "velocity": 109,
      "chip": "ym2612"
    },
    {
      "channel": 3,
      "note": 86,
      "start": 15.4999,
      "duration": 0.3332,
      "velocity": 127,
      "chip": "ym2612"
    },
    {
      "channel": 1,
      "note": 51,
      "start": 15.5862,
      "duration": 0.1634,
      "velocity": 109,
      "chip": "ym2612"
    },
    {
      "channel": 1,
      "note": 51,
      "start": 15.7498,
      "duration": 0.1515,
      "velocity": 112,
      "chip": "ym2612"
    },
    {
      "channel": 3,
      "note": 86,
      "start": 15.8332,
      "duration": 0.2179,
      "velocity": 127,
      "chip": "ym2612"
    },
    {
      "channel": 1,
      "note": 51,
      "start": 15.9014,
      "duration": 0.1491,
      "velocity": 109,
      "chip": "ym2612"
    },
    {
      "channel": 1,
      "note": 51,
      "start": 16.0507,
      "duration": 0.1649,
      "velocity": 109,
      "chip": "ym2612"
    },
    {
      "channel": 3,
      "note": 86,
      "start": 16.0514,
      "duration": 0.231,
      "velocity": 127,
      "chip": "ym2612"
    },
    {
      "channel": 1,
      "note": 51,
      "start": 16.2158,
      "duration": 0.1531,
      "velocity": 112,
      "chip": "ym2612"
    },
    {
      "channel": 3,
      "note": 86,
      "start": 16.2826,
      "duration": 0.1543,
      "velocity": 127,
      "chip": "ym2612"
    },
    {
      "channel": 1,
      "note": 51,
      "start": 16.369,
      "duration": 0.1424,
      "velocity": 109,
      "chip": "ym2612"
    },
    {
      "channel": 3,
      "note": 86,
      "start": 16.4371,
      "duration": 0.075,
      "velocity": 127,
      "chip": "ym2612"
    },
    {
      "channel": 1,
      "note": 51,
      "start": 16.5117,
      "duration": 0.1482,
      "velocity": 109,
      "chip": "ym2612"
    },
    {
      "channel": 3,
      "note": 86,
      "start": 16.5123,
      "duration": 0.2991,
      "velocity": 127,
      "chip": "ym2612"
    },
    {
      "channel": 1,
      "note": 51,
      "start": 16.66,
      "duration": 0.1507,
      "velocity": 112,
      "chip": "ym2612"
    },
    {
      "channel": 1,
      "note": 51,
      "start": 16.8108,
      "duration": 0.1414,
      "velocity": 112,
      "chip": "ym2612"
    },
    {
      "channel": 3,
      "note": 86,
      "start": 16.8115,
      "duration": 0.2774,
      "velocity": 127,
      "chip": "ym2612"
    },
    {
      "channel": 1,
      "note": 54,
      "start": 16.9524,
      "duration": 0.1358,
      "velocity": 109,
      "chip": "ym2612"
    },
    {
      "channel": 1,
      "note": 54,
      "start": 17.0884,
      "duration": 0.1628,
      "velocity": 109,
      "chip": "ym2612"
    },
    {
      "channel": 3,
      "note": 86,
      "start": 17.089,
      "duration": 0.079,
      "velocity": 127,
      "chip": "ym2612"
    },
    {
      "channel": 3,
      "note": 86,
      "start": 17.1682,
      "duration": 0.2353,
      "velocity": 127,
      "chip": "ym2612"
    },
    {
      "channel": 1,
      "note": 54,
      "start": 17.2514,
      "duration": 0.1515,
      "velocity": 112,
      "chip": "ym2612"
    },
    {
      "channel": 1,
      "note": 54,
      "start": 17.403,
      "duration": 0.1492,
      "velocity": 109,
      "chip": "ym2612"
    },
    {
      "channel": 3,
      "note": 86,
      "start": 17.4036,
      "duration": 0.2937,
      "velocity": 127,
      "chip": "ym2612"
    },
    {
      "channel": 1,
      "note": 54,
      "start": 17.5524,
      "duration": 0.1443,
      "velocity": 109,
      "chip": "ym2612"
    },
    {
      "channel": 1,
      "note": 54,
      "start": 17.6969,
      "duration": 0.1379,
      "velocity": 112,
      "chip": "ym2612"
    },
    {
      "channel": 3,
      "note": 86,
      "start": 17.6975,
      "duration": 0.138,
      "velocity": 127,
      "chip": "ym2612"
    },
    {
      "channel": 1,
      "note": 54,
      "start": 17.835,
      "duration": 0.1645,
      "velocity": 109,
      "chip": "ym2612"
    },
    {
      "channel": 3,
      "note": 86,
      "start": 17.8356,
      "duration": 0.3129,
      "velocity": 127,
      "chip": "ym2612"
    },
    {
      "channel": 1,
      "note": 54,
      "start": 17.9997,
      "duration": 0.1482,
      "velocity": 109,
      "chip": "ym2612"
    },
    {
      "channel": 1,
      "note": 54,
      "start": 18.148,
      "duration": 0.1681,
      "velocity": 112,
      "chip": "ym2612"
    },
    {
      "channel": 3,
      "note": 86,
      "start": 18.1487,
      "duration": 0.0827,
      "velocity": 127,
      "chip": "ym2612"
    },
    {
      "channel": 3,
      "note": 86,
      "start": 18.2315,
      "duration": 0.1557,
      "velocity": 127,
      "chip": "ym2612"
    },
    {
      "channel": 1,
      "note": 54,
      "start": 18.3164,
      "duration": 0.1492,
      "velocity": 109,
      "chip": "ym2612"
    },
    {
      "channel": 3,
      "note": 86,
      "start": 18.3875,
      "duration": 0.3099,
      "velocity": 127,
      "chip": "ym2612"
    },
    {
      "channel": 1,
      "note": 54,
      "start": 18.4657,
      "duration": 0.1482,
      "velocity": 109,
      "chip": "ym2612"
    },
    {
      "channel": 1,
      "note": 54,
      "start": 18.6141,
      "duration": 0.1681,
      "velocity": 112,
      "chip": "ym2612"
    },
    {
      "channel": 3,
      "note": 86,
      "start": 18.6976,
      "duration": 0.3059,
      "velocity": 127,
      "chip": "ym2612"
    },
    {
      "channel": 1,
      "note": 54,
      "start": 18.7824,
      "duration": 0.1498,
      "velocity": 109,
      "chip": "ym2612"
    },
    {
      "channel": 1,
      "note": 54,
      "start": 18.9324,
      "duration": 0.1437,
      "velocity": 109,
      "chip": "ym2612"
    },
    {
      "channel": 3,
      "note": 86,
      "start": 19.0037,
      "duration": 0.1468,
      "velocity": 127,
      "chip": "ym2612"
    },
    {
      "channel": 1,
      "note": 54,
      "start": 19.0762,
      "duration": 0.1543,
      "velocity": 112,
      "chip": "ym2612"
    },
    {
      "channel": 3,
      "note": 86,
      "start": 19.1506,
      "duration": 0.2166,
      "velocity": 127,
      "chip": "ym2612"
    },
    {
      "channel": 1,
      "note": 54,
      "start": 19.2307,
      "duration": 0.1318,
      "velocity": 112,
      "chip": "ym2612"
    },
    {
      "channel": 1,
      "note": 51,
      "start": 19.3626,
      "duration": 0.1526,
      "velocity": 109,
      "chip": "ym2612"
    },
    {
      "channel": 2,
      "note": 51,
      "start": 19.3668,
      "duration": 11.4148,
      "velocity": 127,
      "chip": "ym2612"
    },
    {
      "channel": 3,
      "note": 86,
      "start": 19.3674,
      "duration": 0.1484,
      "velocity": 127,
      "chip": "ym2612"
    },
    {
      "channel": 1,
      "note": 51,
      "start": 19.5154,
      "duration": 0.1482,
      "velocity": 109,
      "chip": "ym2612"
    },
    {
      "channel": 3,
      "note": 86,
      "start": 19.516,
      "duration": 0.081,
      "velocity": 127,
      "chip": "ym2612"
    },
    {
      "channel": 3,
      "note": 86,
      "start": 19.5973,
      "duration": 0.1499,
      "velocity": 127,
      "chip": "ym2612"
    },
    {
      "channel": 1,
      "note": 51,
      "start": 19.6638,
      "duration": 0.1681,
      "velocity": 112,
      "chip": "ym2612"
    },
    {
      "channel": 3,
      "note": 86,
      "start": 19.7473,
      "duration": 0.3673,
      "velocity": 127,
      "chip": "ym2612"
    },
    {
      "channel": 1,
      "note": 51,
      "start": 19.8321,
      "duration": 0.1492,
      "velocity": 109,
      "chip": "ym2612"
    },
    {
      "channel": 1,
      "note": 51,
      "start": 19.9815,
      "duration": 0.1324,
      "velocity": 109,
      "chip": "ym2612"
    },
    {
      "channel": 1,
      "note": 51,
      "start": 20.1141,
      "duration": 0.1511,
      "velocity": 112,
      "chip": "ym2612"
    },
    {
      "channel": 3,
      "note": 86,
      "start": 20.1146,
      "duration": 0.076,
      "velocity": 127,
      "chip": "ym2612"
    },
    {
      "channel": 3,
      "note": 86,
      "start": 20.1909,
      "duration": 0.1562,
      "velocity": 127,
      "chip": "ym2612"
    },
    {
      "channel": 1,
      "note": 51,
      "start": 20.2654,
      "duration": 0.1498,
      "velocity": 109,
      "chip": "ym2612"
    },
    {
      "channel": 3,
      "note": 86,
      "start": 20.3473,
      "duration": 0.3165,
      "velocity": 127,
      "chip": "ym2612"
    },
    {
      "channel": 1,
      "note": 51,
      "start": 20.4154,
      "duration": 0.1649,
      "velocity": 109,
      "chip": "ym2612"
    },
    {
      "channel": 1,
      "note": 51,
      "start": 20.5805,
      "duration": 0.1681,
      "velocity": 112,
      "chip": "ym2612"
    },
    {
      "channel": 3,
      "note": 86,
      "start": 20.6639,
      "duration": 0.216,
      "velocity": 127,
      "chip": "ym2612"
    },
    {
      "channel": 1,
      "note": 51,
      "start": 20.7488,
      "duration": 0.1305,
      "velocity": 109,
      "chip": "ym2612"
    },
    {
      "channel": 1,
      "note": 51,
      "start": 20.8795,
      "duration": 0.1613,
      "velocity": 109,
      "chip": "ym2612"
    },
    {
      "channel": 3,
      "note": 86,
      "start": 20.8802,
      "duration": 0.2441,
      "velocity": 127,
      "chip": "ym2612"
    },
    {
      "channel": 1,
      "note": 51,
      "start": 21.041,
      "duration": 0.1515,
      "velocity": 112,
      "chip": "ym2612"
    },
    {
      "channel": 3,
      "note": 86,
      "start": 21.1245,
      "duration": 0.1432,
      "velocity": 127,
      "chip": "ym2612"
    },
    {
      "channel": 1,
      "note": 51,
      "start": 21.1926,
      "duration": 0.1535,
      "velocity": 109,
      "chip": "ym2612"
    },
    {
      "channel": 3,
      "note": 86,
      "start": 21.2678,
      "duration": 0.079,
      "velocity": 127,
      "chip": "ym2612"
    },
    {
      "channel": 1,
      "note": 51,
      "start": 21.3463,
      "duration": 0.1649,
      "velocity": 109,
      "chip": "ym2612"
    },
    {
      "channel": 3,
      "note": 86,
      "start": 21.347,
      "duration": 0.3013,
      "velocity": 127,
      "chip": "ym2612"
    },
    {
      "channel": 1,
      "note": 51,
      "start": 21.5114,
      "duration": 0.1363,
      "velocity": 112,
      "chip": "ym2612"
    },
    {
      "channel": 1,
      "note": 51,
      "start": 21.6478,
      "duration": 0.1448,
      "velocity": 112,
      "chip": "ym2612"
    },
    {
      "channel": 3,
      "note": 86,
      "start": 21.6485,
      "duration": 0.2783,
      "velocity": 127,
      "chip": "ym2612"
    },
    {
      "channel": 1,
      "note": 54,
      "start": 21.7928,
      "duration": 0.1333,
      "velocity": 109,
      "chip": "ym2612"
    },
    {
      "channel": 1,
      "note": 54,
      "start": 21.9263,
      "duration": 0.1628,
      "velocity": 109,
      "chip": "ym2612"
    },
    {
      "channel": 3,
      "note": 86,
      "start": 21.9269,
      "duration": 0.079,
      "velocity": 127,
      "chip": "ym2612"
    },
    {
      "channel": 3,
      "note": 86,
      "start": 22.0061,
      "duration": 0.252,
      "velocity": 127,
      "chip": "ym2612"
    },
    {
      "channel": 1,
      "note": 54,
      "start": 22.0893,
      "duration": 0.1681,
      "velocity": 112,
      "chip": "ym2612"
    },
    {
      "channel": 1,
      "note": 54,
      "start": 22.2576,
      "duration": 0.1388,
      "velocity": 109,
      "chip": "ym2612"
    },
    {
      "channel": 3,
      "note": 86,
      "start": 22.2582,
      "duration": 0.2893,
      "velocity": 127,
      "chip": "ym2612"
    },
    {
      "channel": 1,
      "note": 54,
      "start": 22.3965,
      "duration": 0.1504,
      "velocity": 109,
      "chip": "ym2612"
    },
    {
      "channel": 1,
      "note": 54,
      "start": 22.547,
      "duration": 0.1349,
      "velocity": 112,
      "chip": "ym2612"
    },
    {
      "channel": 3,
      "note": 86,
      "start": 22.5477,
      "duration": 0.1349,
      "velocity": 127,
      "chip": "ym2612"
    },
    {
      "channel": 1,
      "note": 54,
      "start": 22.6822,
      "duration": 0.1644,
      "velocity": 109,
      "chip": "ym2612"
    },
    {
      "channel": 3,
      "note": 86,
      "start": 22.6828,
      "duration": 0.3294,
      "velocity": 127,
      "chip": "ym2612"
    },
    {
      "channel": 1,
      "note": 54,
      "start": 22.8467,
      "duration": 0.1649,
      "velocity": 109,
      "chip": "ym2612"
    },
    {
      "channel": 1,
      "note": 54,
      "start": 23.0118,
      "duration": 0.1531,
      "velocity": 112,
      "chip": "ym2612"
    },
    {
      "channel": 3,
      "note": 86,
      "start": 23.0124,
      "duration": 0.066,
      "velocity": 127,
      "chip": "ym2612"
    },
    {
      "channel": 3,
      "note": 86,
      "start": 23.0786,
      "duration": 0.1543,
      "velocity": 127,
      "chip": "ym2612"
    },
    {
      "channel": 1,
      "note": 54,
      "start": 23.165,
      "duration": 0.1425,
      "velocity": 109,
      "chip": "ym2612"
    },
    {
      "channel": 3,
      "note": 86,
      "start": 23.2331,
      "duration": 0.3063,
      "velocity": 127,
      "chip": "ym2612"
    },
    {
      "channel": 1,
      "note": 54,
      "start": 23.3076,
      "duration": 0.1482,
      "velocity": 109,
      "chip": "ym2612"
    },
    {
      "channel": 1,
      "note": 54,
      "start": 23.456,
      "duration": 0.1681,
      "velocity": 112,
      "chip": "ym2612"
    },
    {
      "channel": 3,
      "note": 86,
      "start": 23.5395,
      "duration": 0.3092,
      "velocity": 127,
      "chip": "ym2612"
    },
    {
      "channel": 1,
      "note": 54,
      "start": 23.6243,
      "duration": 0.1665,
      "velocity": 109,
      "chip": "ym2612"
    },
    {
      "channel": 1,
      "note": 54,
      "start": 23.791,
      "duration": 0.1344,
      "velocity": 109,
      "chip": "ym2612"
    },
    {
      "channel": 3,
      "note": 86,
      "start": 23.8488,
      "duration": 0.1491,
      "velocity": 127,
      "chip": "ym2612"
    },
    {
      "channel": 1,
      "note": 54,
      "start": 23.9256,
      "duration": 0.1485,
      "velocity": 112,
      "chip": "ym2612"
    },
    {
      "channel": 3,
      "note": 86,
      "start": 23.9982,
      "duration": 0.2134,
      "velocity": 127,
      "chip": "ym2612"
    },
    {
      "channel": 1,
      "note": 54,
      "start": 24.0742,
      "duration": 0.1366,
      "velocity": 112,
      "chip": "ym2612"
    },
    {
      "channel": 0,
      "note": 39,
      "start": 24.2103,
      "duration": 0.1471,
      "velocity": 119,
      "chip": "ym2612"
    },
    {
      "channel": 1,
      "note": 51,
      "start": 24.211,
      "duration": 0.1486,
      "velocity": 109,
      "chip": "ym2612"
    },
    {
      "channel": 3,
      "note": 86,
      "start": 24.2117,
      "duration": 0.1485,
      "velocity": 127,
      "chip": "ym2612"
    },
    {
      "channel": 0,
      "note": 51,
      "start": 24.3576,
      "duration": 0.1665,
      "velocity": 119,
      "chip": "ym2612"
    },
    {
      "channel": 1,
      "note": 51,
      "start": 24.3598,
      "duration": 0.1649,
      "velocity": 109,
      "chip": "ym2612"
    },
    {
      "channel": 3,
      "note": 86,
      "start": 24.3604,
      "duration": 0.0806,
      "velocity": 127,
      "chip": "ym2612"
    },
    {
      "channel": 3,
      "note": 86,
      "start": 24.4412,
      "duration": 0.1498,
      "velocity": 127,
      "chip": "ym2612"
    },
    {
      "channel": 4,
      "note": 39,
      "start": 24.4418,
      "duration": 0.1498,
      "velocity": 119,
      "chip": "ym2612"
    },
    {
      "channel": 0,
      "note": 38,
      "start": 24.5243,
      "duration": 0.1499,
      "velocity": 119,
      "chip": "ym2612"
    },
    {
      "channel": 1,
      "note": 51,
      "start": 24.5249,
      "duration": 0.1533,
      "velocity": 112,
      "chip": "ym2612"
    },
    {
      "channel": 3,
      "note": 86,
      "start": 24.5912,
      "duration": 0.3659,
      "velocity": 127,
      "chip": "ym2612"
    },
    {
      "channel": 4,
      "note": 51,
      "start": 24.5917,
      "duration": 0.1579,
      "velocity": 119,
      "chip": "ym2612"
    },
    {
      "channel": 0,
      "note": 50,
      "start": 24.6744,
      "duration": 0.1497,
      "velocity": 119,
      "chip": "ym2612"
    },
    {
      "channel": 1,
      "note": 51,
      "start": 24.6784,
      "duration": 0.1478,
      "velocity": 109,
      "chip": "ym2612"
    },
    {
      "channel": 4,
      "note": 38,
      "start": 24.7498,
      "duration": 0.1454,
      "velocity": 119,
      "chip": "ym2612"
    },
    {
      "channel": 0,
      "note": 37,
      "start": 24.8242,
      "duration": 0.1316,
      "velocity": 119,
      "chip": "ym2612"
    },
    {
      "channel": 1,
      "note": 51,
      "start": 24.8264,
      "duration": 0.13,
      "velocity": 109,
      "chip": "ym2612"
    },
    {
      "channel": 4,
      "note": 50,
      "start": 24.8954,
      "duration": 0.1374,
      "velocity": 119,
      "chip": "ym2612"
    },
    {
      "channel": 0,
      "note": 49,
      "start": 24.956,
      "duration": 0.1471,
      "velocity": 119,
      "chip": "ym2612"
    },
    {
      "channel": 1,
      "note": 51,
      "start": 24.9566,
      "duration": 0.1487,
      "velocity": 112,
      "chip": "ym2612"
    },
    {
      "channel": 3,
      "note": 86,
      "start": 24.9572,
      "duration": 0.0751,
      "velocity": 127,
      "chip": "ym2612"
    },
    {
      "channel": 3,
      "note": 86,
      "start": 25.0325,
      "duration": 0.1541,
      "velocity": 127,
      "chip": "ym2612"
    },
    {
      "channel": 4,
      "note": 37,
      "start": 25.033,
      "duration": 0.1541,
      "velocity": 119,
      "chip": "ym2612"
    },
    {
      "channel": 0,
      "note": 32,
      "start": 25.1033,
      "duration": 0.1665,
      "velocity": 119,
      "chip": "ym2612"
    },
    {
      "channel": 1,
      "note": 51,
      "start": 25.1054,
      "duration": 0.1665,
      "velocity": 109,
      "chip": "ym2612"
    },
    {
      "channel": 3,
      "note": 86,
      "start": 25.1868,
      "duration": 0.3165,
      "velocity": 127,
      "chip": "ym2612"
    },
    {
      "channel": 4,
      "note": 49,
      "start": 25.1874,
      "duration": 0.1493,
      "velocity": 119,
      "chip": "ym2612"
    },
    {
      "channel": 0,
      "note": 44,
      "start": 25.2699,
      "duration": 1.3645,
      "velocity": 119,
      "chip": "ym2612"
    },
    {
      "channel": 1,
      "note": 51,
      "start": 25.2721,
      "duration": 0.1477,
      "velocity": 109,
      "chip": "ym2612"
    },
    {
      "channel": 4,
      "note": 32,
      "start": 25.3368,
      "duration": 0.1671,
      "velocity": 119,
      "chip": "ym2612"
    },
    {
      "channel": 1,
      "note": 51,
      "start": 25.4199,
      "duration": 0.1682,
      "velocity": 112,
      "chip": "ym2612"
    },
    {
      "channel": 3,
      "note": 86,
      "start": 25.5035,
      "duration": 0.219,
      "velocity": 127,
      "chip": "ym2612"
    },
    {
      "channel": 4,
      "note": 44,
      "start": 25.504,
      "duration": 1.3479,
      "velocity": 119,
      "chip": "ym2612"
    },
    {
      "channel": 1,
      "note": 51,
      "start": 25.5883,
      "duration": 0.1336,
      "velocity": 109,
      "chip": "ym2612"
    },
    {
      "channel": 1,
      "note": 51,
      "start": 25.722,
      "duration": 0.1626,
      "velocity": 109,
      "chip": "ym2612"
    },
    {
      "channel": 3,
      "note": 86,
      "start": 25.7226,
      "duration": 0.2454,
      "velocity": 127,
      "chip": "ym2612"
    },
    {
      "channel": 1,
      "note": 51,
      "start": 25.8848,
      "duration": 0.1681,
      "velocity": 112,
      "chip": "ym2612"
    },
    {
      "channel": 3,
      "note": 86,
      "start": 25.9682,
      "duration": 0.1441,
      "velocity": 127,
      "chip": "ym2612"
    },
    {
      "channel": 1,
      "note": 51,
      "start": 26.053,
      "duration": 0.1365,
      "velocity": 109,
      "chip": "ym2612"
    },
    {
      "channel": 3,
      "note": 86,
      "start": 26.1125,
      "duration": 0.0777,
      "velocity": 127,
      "chip": "ym2612"
    },
    {
      "channel": 1,
      "note": 51,
      "start": 26.1897,
      "duration": 0.1626,
      "velocity": 109,
      "chip": "ym2612"
    },
    {
      "channel": 3,
      "note": 86,
      "start": 26.1903,
      "duration": 0.2944,
      "velocity": 127,
      "chip": "ym2612"
    },
    {
      "channel": 1,
      "note": 51,
      "start": 26.3525,
      "duration": 0.1315,
      "velocity": 112,
      "chip": "ym2612"
    },
    {
      "channel": 1,
      "note": 51,
      "start": 26.4842,
      "duration": 0.1508,
      "velocity": 112,
      "chip": "ym2612"
    },
    {
      "channel": 3,
      "note": 86,
      "start": 26.4849,
      "duration": 0.3024,
      "velocity": 127,
      "chip": "ym2612"
    },
    {
      "channel": 0,
      "note": 39,
      "start": 26.6346,
      "duration": 0.1499,
      "velocity": 119,
      "chip": "ym2612"
    },
    {
      "channel": 1,
      "note": 54,
      "start": 26.6351,
      "duration": 0.1515,
      "velocity": 109,
      "chip": "ym2612"
    },
    {
      "channel": 0,
      "note": 51,
      "start": 26.7847,
      "duration": 0.1499,
      "velocity": 119,
      "chip": "ym2612"
    },
    {
      "channel": 1,
      "note": 54,
      "start": 26.7868,
      "duration": 0.1483,
      "velocity": 109,
      "chip": "ym2612"
    },
    {
      "channel": 3,
      "note": 86,
      "start": 26.7874,
      "duration": 0.0639,
      "velocity": 127,
      "chip": "ym2612"
    },
    {
      "channel": 3,
      "note": 86,
      "start": 26.8516,
      "duration": 0.2525,
      "velocity": 127,
      "chip": "ym2612"
    },
    {
      "channel": 4,
      "note": 39,
      "start": 26.8521,
      "duration": 0.166,
      "velocity": 119,
      "chip": "ym2612"
    },
    {
      "channel": 0,
      "note": 38,
      "start": 26.9348,
      "duration": 0.1665,
      "velocity": 119,
      "chip": "ym2612"
    },
    {
      "channel": 1,
      "note": 54,
      "start": 26.9353,
      "duration": 0.1681,
      "velocity": 112,
      "chip": "ym2612"
    },
    {
      "channel": 4,
      "note": 51,
      "start": 27.0183,
      "duration": 0.1577,
      "velocity": 119,
      "chip": "ym2612"
    },
    {
      "channel": 0,
      "note": 50,
      "start": 27.1014,
      "duration": 0.133,
      "velocity": 119,
      "chip": "ym2612"
    },
    {
      "channel": 1,
      "note": 54,
      "start": 27.1035,
      "duration": 0.133,
      "velocity": 109,
      "chip": "ym2612"
    },
    {
      "channel": 3,
      "note": 86,
      "start": 27.1042,
      "duration": 0.2812,
      "velocity": 127,
      "chip": "ym2612"
    },
    {
      "channel": 4,
      "note": 38,
      "start": 27.1762,
      "duration": 0.1329,
      "velocity": 119,
      "chip": "ym2612"
    },
    {
      "channel": 0,
      "note": 37,
      "start": 27.2346,
      "duration": 0.1497,
      "velocity": 119,
      "chip": "ym2612"
    },
    {
      "channel": 1,
      "note": 54,
      "start": 27.2367,
      "duration": 0.1481,
      "velocity": 109,
      "chip": "ym2612"
    },
    {
      "channel": 4,
      "note": 50,
      "start": 27.3093,
      "duration": 0.1522,
      "velocity": 119,
      "chip": "ym2612"
    },
    {
      "channel": 0,
      "note": 49,
      "start": 27.3844,
      "duration": 0.1502,
      "velocity": 119,
      "chip": "ym2612"
    },
    {
      "channel": 1,
      "note": 54,
      "start": 27.385,
      "duration": 0.1518,
      "velocity": 112,
      "chip": "ym2612"
    },
    {
      "channel": 3,
      "note": 86,
      "start": 27.3856,
      "duration": 0.1518,
      "velocity": 127,
      "chip": "ym2612"
    },
    {
      "channel": 4,
      "note": 37,
      "start": 27.4616,
      "duration": 0.1399,
      "velocity": 119,
      "chip": "ym2612"
    },
    {
      "channel": 0,
      "note": 32,
      "start": 27.5348,
      "duration": 0.1498,
      "velocity": 119,
      "chip": "ym2612"
    },
    {
      "channel": 1,
      "note": 54,
      "start": 27.537,
      "duration": 0.1514,
      "velocity": 109,
      "chip": "ym2612"
    },
    {
      "channel": 3,
      "note": 86,
      "start": 27.5376,
      "duration": 0.3144,
      "velocity": 127,
      "chip": "ym2612"
    },
    {
      "channel": 4,
      "note": 49,
      "start": 27.6017,
      "duration": 0.1665,
      "velocity": 119,
      "chip": "ym2612"
    },
    {
      "channel": 0,
      "note": 44,
      "start": 27.6848,
      "duration": 3.0968,
      "velocity": 119,
      "chip": "ym2612"
    },
    {
      "channel": 1,
      "note": 54,
      "start": 27.6885,
      "duration": 0.1628,
      "velocity": 109,
      "chip": "ym2612"
    },
    {
      "channel": 4,
      "note": 32,
      "start": 27.7684,
      "duration": 0.167,
      "velocity": 119,
      "chip": "ym2612"
    },
    {
      "channel": 1,
      "note": 54,
      "start": 27.8515,
      "duration": 0.1514,
      "velocity": 112,
      "chip": "ym2612"
    },
    {
      "channel": 3,
      "note": 86,
      "start": 27.8521,
      "duration": 0.0827,
      "velocity": 127,
      "chip": "ym2612"
    },
    {
      "channel": 3,
      "note": 86,
      "start": 27.9349,
      "duration": 0.1391,
      "velocity": 127,
      "chip": "ym2612"
    },
    {
      "channel": 4,
      "note": 44,
      "start": 27.9355,
      "duration": 2.8461,
      "velocity": 119,
      "chip": "ym2612"
    },
    {
      "channel": 1,
      "note": 54,
      "start": 28.0031,
      "duration": 0.1453,
      "velocity": 109,
      "chip": "ym2612"
    },
    {
      "channel": 3,
      "note": 86,
      "start": 28.0742,
      "duration": 0.306,
      "velocity": 127,
      "chip": "ym2612"
    },
    {
      "channel": 1,
      "note": 54,
      "start": 28.1486,
      "duration": 0.1649,
      "velocity": 109,
      "chip": "ym2612"
    },
    {
      "channel": 1,
      "note": 54,
      "start": 28.3137,
      "duration": 0.1529,
      "velocity": 112,
      "chip": "ym2612"
    },
    {
      "channel": 3,
      "note": 86,
      "start": 28.3805,
      "duration": 0.323,
      "velocity": 127,
      "chip": "ym2612"
    },
    {
      "channel": 1,
      "note": 54,
      "start": 28.4668,
      "duration": 0.1649,
      "velocity": 109,
      "chip": "ym2612"
    },
    {
      "channel": 1,
      "note": 54,
      "start": 28.6319,
      "duration": 0.1284,
      "velocity": 109,
      "chip": "ym2612"
    },
    {
      "channel": 3,
      "note": 86,
      "start": 28.7036,
      "duration": 0.1314,
      "velocity": 127,
      "chip": "ym2612"
    },
    {
      "channel": 1,
      "note": 54,
      "start": 28.7605,
      "duration": 0.1467,
      "velocity": 112,
      "chip": "ym2612"
    },
    {
      "channel": 3,
      "note": 86,
      "start": 28.8351,
      "duration": 1.9465,
      "velocity": 127,
      "chip": "ym2612"
    },
    {
      "channel": 1,
      "note": 54,
      "start": 28.9074,
      "duration": 1.8742,
      "velocity": 112,
      "chip": "ym2612"
    }
  ]
}