{
  "track_name": "04 - Track 7",
  "duration_sec": 23.165,
  "sample_rate": 44100,
  "note_count": 237,
  "unique_pitches": 26,
  "pitch_range": 39,
  "avg_note_duration": 0.1109,
  "reconstruction_stats": {
    "notes_reconstructed": 237,
    "keyon_events": 237,
    "keyoff_events": 236,
    "orphan_keyons": 1,
    "unique_pitches": 26,
    "pitch_range": 39,
    "avg_duration_sec": 0.1109
  },
  "metadata": {
    "source": "S\\Slam Dunk - Kyougou Makkou Taiketsu!\\04 - Track 7.vgz"
  },
  "notes": [
    {
      "channel": 1,
      "note": 42,
      "start": 0.2539,
      "duration": 0.0386,
      "velocity": 91,
      "chip": "ym2612"
    },
    {
      "channel": 2,
      "note": 78,
      "start": 0.2564,
      "duration": 0.0367,
      "velocity": 101,
      "chip": "ym2612"
    },
    {
      "channel": 3,
      "note": 73,
      "start": 0.259,
      "duration": 0.0344,
      "velocity": 101,
      "chip": "ym2612"
    },
    {
      "channel": 4,
      "note": 68,
      "start": 0.2617,
      "duration": 0.032,
      "velocity": 101,
      "chip": "ym2612"
    },
    {
      "channel": 1,
      "note": 54,
      "start": 0.293,
      "duration": 0.0542,
      "velocity": 91,
      "chip": "ym2612"
    },
    {
      "channel": 1,
      "note": 52,
      "start": 0.3477,
      "duration": 0.0254,
      "velocity": 91,
      "chip": "ym2612"
    },
    {
      "channel": 1,
      "note": 53,
      "start": 0.3736,
      "duration": 0.0272,
      "velocity": 91,
      "chip": "ym2612"
    },
    {
      "channel": 1,
      "note": 54,
      "start": 0.4013,
      "duration": 0.0564,
      "velocity": 91,
      "chip": "ym2612"
    },
    {
      "channel": 1,
      "note": 52,
      "start": 0.4582,
      "duration": 0.0257,
      "velocity": 91,
      "chip": "ym2612"
    },
    {
      "channel": 1,
      "note": 53,
      "start": 0.4844,
      "duration": 0.0282,
      "velocity": 91,
      "chip": "ym2612"
    },
    {
      "channel": 1,
      "note": 54,
      "start": 0.5132,
      "duration": 0.0322,
      "velocity": 91,
      "chip": "ym2612"
    },
    {
      "channel": 2,
      "note": 78,
      "start": 0.5139,
      "duration": 0.0317,
      "velocity": 101,
      "chip": "ym2612"
    },
    {
      "channel": 3,
      "note": 73,
      "start": 0.5145,
      "duration": 0.0314,
      "velocity": 101,
      "chip": "ym2612"
    },
    {
      "channel": 4,
      "note": 68,
      "start": 0.5151,
      "duration": 0.0311,
      "velocity": 101,
      "chip": "ym2612"
    },
    {
      "channel": 1,
      "note": 52,
      "start": 0.5711,
      "duration": 0.0281,
      "velocity": 91,
      "chip": "ym2612"
    },
    {
      "channel": 1,
      "note": 53,
      "start": 0.5998,
      "duration": 0.0254,
      "velocity": 91,
      "chip": "ym2612"
    },
    {
      "channel": 1,
      "note": 54,
      "start": 0.6257,
      "duration": 0.0272,
      "velocity": 91,
      "chip": "ym2612"
    },
    {
      "channel": 1,
      "note": 60,
      "start": 0.6534,
      "duration": 0.0563,
      "velocity": 91,
      "chip": "ym2612"
    },
    {
      "channel": 1,
      "note": 59,
      "start": 0.7102,
      "duration": 0.0322,
      "velocity": 91,
      "chip": "ym2612"
    },
    {
      "channel": 2,
      "note": 76,
      "start": 0.711,
      "duration": 0.0321,
      "velocity": 101,
      "chip": "ym2612"
    },
    {
      "channel": 3,
      "note": 71,
      "start": 0.7116,
      "duration": 0.0318,
      "velocity": 101,
      "chip": "ym2612"
    },
    {
      "channel": 4,
      "note": 66,
      "start": 0.7122,
      "duration": 0.0315,
      "velocity": 101,
      "chip": "ym2612"
    },
    {
      "channel": 1,
      "note": 57,
      "start": 0.7429,
      "duration": 0.0278,
      "velocity": 91,
      "chip": "ym2612"
    },
    {
      "channel": 1,
      "note": 54,
      "start": 0.7712,
      "duration": 0.0322,
      "velocity": 91,
      "chip": "ym2612"
    },
    {
      "channel": 2,
      "note": 78,
      "start": 0.7719,
      "duration": 0.0322,
      "velocity": 101,
      "chip": "ym2612"
    },
    {
      "channel": 3,
      "note": 73,
      "start": 0.7726,
      "duration": 0.0318,
      "velocity": 101,
      "chip": "ym2612"
    },
    {
      "channel": 4,
      "note": 68,
      "start": 0.7732,
      "duration": 0.0315,
      "velocity": 101,
      "chip": "ym2612"
    },
    {
      "channel": 1,
      "note": 42,
      "start": 0.8039,
      "duration": 0.0257,
      "velocity": 91,
      "chip": "ym2612"
    },
    {
      "channel": 1,
      "note": 54,
      "start": 0.8301,
      "duration": 0.0281,
      "velocity": 91,
      "chip": "ym2612"
    },
    {
      "channel": 1,
      "note": 52,
      "start": 0.8588,
      "duration": 0.0254,
      "velocity": 91,
      "chip": "ym2612"
    },
    {
      "channel": 1,
      "note": 53,
      "start": 0.8847,
      "duration": 0.0272,
      "velocity": 91,
      "chip": "ym2612"
    },
    {
      "channel": 1,
      "note": 54,
      "start": 0.9124,
      "duration": 0.0561,
      "velocity": 91,
      "chip": "ym2612"
    },
    {
      "channel": 1,
      "note": 52,
      "start": 0.9691,
      "duration": 0.0257,
      "velocity": 91,
      "chip": "ym2612"
    },
    {
      "channel": 1,
      "note": 53,
      "start": 0.9953,
      "duration": 0.0283,
      "velocity": 91,
      "chip": "ym2612"
    },
    {
      "channel": 1,
      "note": 54,
      "start": 1.0241,
      "duration": 0.0258,
      "velocity": 91,
      "chip": "ym2612"
    },
    {
      "channel": 1,
      "note": 52,
      "start": 1.0756,
      "duration": 0.0369,
      "velocity": 91,
      "chip": "ym2612"
    },
    {
      "channel": 2,
      "note": 76,
      "start": 1.0763,
      "duration": 0.0196,
      "velocity": 101,
      "chip": "ym2612"
    },
    {
      "channel": 3,
      "note": 71,
      "start": 1.0769,
      "duration": 0.0199,
      "velocity": 101,
      "chip": "ym2612"
    },
    {
      "channel": 4,
      "note": 66,
      "start": 1.0776,
      "duration": 0.02,
      "velocity": 101,
      "chip": "ym2612"
    },
    {
      "channel": 2,
      "note": 76,
      "start": 1.0963,
      "duration": 0.0171,
      "velocity": 101,
      "chip": "ym2612"
    },
    {
      "channel": 3,
      "note": 71,
      "start": 1.0971,
      "duration": 0.0173,
      "velocity": 101,
      "chip": "ym2612"
    },
    {
      "channel": 4,
      "note": 66,
      "start": 1.098,
      "duration": 0.0175,
      "velocity": 101,
      "chip": "ym2612"
    },
    {
      "channel": 1,
      "note": 53,
      "start": 1.113,
      "duration": 0.0331,
      "velocity": 91,
      "chip": "ym2612"
    },
    {
      "channel": 2,
      "note": 76,
      "start": 1.1141,
      "duration": 0.0327,
      "velocity": 101,
      "chip": "ym2612"
    },
    {
      "channel": 3,
      "note": 71,
      "start": 1.115,
      "duration": 0.0321,
      "velocity": 101,
      "chip": "ym2612"
    },
    {
      "channel": 4,
      "note": 66,
      "start": 1.116,
      "duration": 0.0314,
      "velocity": 101,
      "chip": "ym2612"
    },
    {
      "channel": 1,
      "note": 54,
      "start": 1.1466,
      "duration": 0.0278,
      "velocity": 91,
      "chip": "ym2612"
    },
    {
      "channel": 1,
      "note": 47,
      "start": 1.175,
      "duration": 0.03,
      "velocity": 91,
      "chip": "ym2612"
    },
    {
      "channel": 2,
      "note": 76,
      "start": 1.1757,
      "duration": 0.0634,
      "velocity": 101,
      "chip": "ym2612"
    },
    {
      "channel": 3,
      "note": 71,
      "start": 1.1763,
      "duration": 0.0633,
      "velocity": 101,
      "chip": "ym2612"
    },
    {
      "channel": 4,
      "note": 66,
      "start": 1.177,
      "duration": 0.0631,
      "velocity": 101,
      "chip": "ym2612"
    },
    {
      "channel": 1,
      "note": 48,
      "start": 1.2055,
      "duration": 0.0329,
      "velocity": 91,
      "chip": "ym2612"
    },
    {
      "channel": 1,
      "note": 49,
      "start": 1.239,
      "duration": 0.0321,
      "velocity": 91,
      "chip": "ym2612"
    },
    {
      "channel": 2,
      "note": 76,
      "start": 1.2395,
      "duration": 0.0322,
      "velocity": 101,
      "chip": "ym2612"
    },
    {
      "channel": 3,
      "note": 71,
      "start": 1.24,
      "duration": 0.032,
      "velocity": 101,
      "chip": "ym2612"
    },
    {
      "channel": 4,
      "note": 66,
      "start": 1.2405,
      "duration": 0.0318,
      "velocity": 101,
      "chip": "ym2612"
    },
    {
      "channel": 1,
      "note": 52,
      "start": 1.2715,
      "duration": 0.0283,
      "velocity": 91,
      "chip": "ym2612"
    },
    {
      "channel": 1,
      "note": 53,
      "start": 1.3002,
      "duration": 0.034,
      "velocity": 91,
      "chip": "ym2612"
    },
    {
      "channel": 2,
      "note": 78,
      "start": 1.301,
      "duration": 0.0339,
      "velocity": 101,
      "chip": "ym2612"
    },
    {
      "channel": 3,
      "note": 73,
      "start": 1.3016,
      "duration": 0.0336,
      "velocity": 101,
      "chip": "ym2612"
    },
    {
      "channel": 4,
      "note": 68,
      "start": 1.3022,
      "duration": 0.0333,
      "velocity": 101,
      "chip": "ym2612"
    },
    {
      "channel": 1,
      "note": 42,
      "start": 1.3347,
      "duration": 0.0281,
      "velocity": 91,
      "chip": "ym2612"
    },
    {
      "channel": 1,
      "note": 54,
      "start": 1.3634,
      "duration": 0.0562,
      "velocity": 91,
      "chip": "ym2612"
    },
    {
      "channel": 1,
      "note": 52,
      "start": 1.4201,
      "duration": 0.0254,
      "velocity": 91,
      "chip": "ym2612"
    },
    {
      "channel": 1,
      "note": 53,
      "start": 1.446,
      "duration": 0.0272,
      "velocity": 91,
      "chip": "ym2612"
    },
    {
      "channel": 1,
      "note": 54,
      "start": 1.4737,
      "duration": 0.0561,
      "velocity": 91,
      "chip": "ym2612"
    },
    {
      "channel": 1,
      "note": 52,
      "start": 1.5303,
      "duration": 0.0257,
      "velocity": 91,
      "chip": "ym2612"
    },
    {
      "channel": 1,
      "note": 53,
      "start": 1.5565,
      "duration": 0.0283,
      "velocity": 91,
      "chip": "ym2612"
    },
    {
      "channel": 1,
      "note": 54,
      "start": 1.5853,
      "duration": 0.0322,
      "velocity": 91,
      "chip": "ym2612"
    },
    {
      "channel": 2,
      "note": 78,
      "start": 1.586,
      "duration": 0.0318,
      "velocity": 101,
      "chip": "ym2612"
    },
    {
      "channel": 3,
      "note": 73,
      "start": 1.5866,
      "duration": 0.0315,
      "velocity": 101,
      "chip": "ym2612"
    },
    {
      "channel": 4,
      "note": 68,
      "start": 1.5873,
      "duration": 0.0311,
      "velocity": 101,
      "chip": "ym2612"
    },
    {
      "channel": 1,
      "note": 52,
      "start": 1.6455,
      "duration": 0.0321,
      "velocity": 91,
      "chip": "ym2612"
    },
    {
      "channel": 2,
      "note": 78,
      "start": 1.6462,
      "duration": 0.0321,
      "velocity": 101,
      "chip": "ym2612"
    },
    {
      "channel": 3,
      "note": 73,
      "start": 1.6469,
      "duration": 0.0317,
      "velocity": 101,
      "chip": "ym2612"
    },
    {
      "channel": 4,
      "note": 68,
      "start": 1.6475,
      "duration": 0.0314,
      "velocity": 101,
      "chip": "ym2612"
    },
    {
      "channel": 1,
      "note": 53,
      "start": 1.6782,
      "duration": 0.0254,
      "velocity": 91,
      "chip": "ym2612"
    },
    {
      "channel": 1,
      "note": 54,
      "start": 1.7041,
      "duration": 0.0272,
      "velocity": 91,
      "chip": "ym2612"
    },
    {
      "channel": 1,
      "note": 60,
      "start": 1.7318,
      "duration": 0.0562,
      "velocity": 91,
      "chip": "ym2612"
    },
    {
      "channel": 1,
      "note": 59,
      "start": 1.7885,
      "duration": 0.0322,
      "velocity": 91,
      "chip": "ym2612"
    },
    {
      "channel": 2,
      "note": 76,
      "start": 1.7892,
      "duration": 0.0321,
      "velocity": 101,
      "chip": "ym2612"
    },
    {
      "channel": 3,
      "note": 71,
      "start": 1.7898,
      "duration": 0.0318,
      "velocity": 101,
      "chip": "ym2612"
    },
    {
      "channel": 4,
      "note": 66,
      "start": 1.7905,
      "duration": 0.0315,
      "velocity": 101,
      "chip": "ym2612"
    },
    {
      "channel": 1,
      "note": 57,
      "start": 1.8212,
      "duration": 0.0278,
      "velocity": 91,
      "chip": "ym2612"
    },
    {
      "channel": 1,
      "note": 54,
      "start": 1.8495,
      "duration": 0.0322,
      "velocity": 91,
      "chip": "ym2612"
    },
    {
      "channel": 2,
      "note": 77,
      "start": 1.8501,
      "duration": 0.0322,
      "velocity": 101,
      "chip": "ym2612"
    },
    {
      "channel": 3,
      "note": 72,
      "start": 1.8508,
      "duration": 0.0322,
      "velocity": 101,
      "chip": "ym2612"
    },
    {
      "channel": 4,
      "note": 67,
      "start": 1.8515,
      "duration": 0.0322,
      "velocity": 101,
      "chip": "ym2612"
    },
    {
      "channel": 1,
      "note": 42,
      "start": 1.8822,
      "duration": 0.0369,
      "velocity": 91,
      "chip": "ym2612"
    },
    {
      "channel": 2,
      "note": 78,
      "start": 1.8829,
      "duration": 0.0368,
      "velocity": 101,
      "chip": "ym2612"
    },
    {
      "channel": 3,
      "note": 73,
      "start": 1.8835,
      "duration": 0.0365,
      "velocity": 101,
      "chip": "ym2612"
    },
    {
      "channel": 4,
      "note": 68,
      "start": 1.8841,
      "duration": 0.0362,
      "velocity": 101,
      "chip": "ym2612"
    },
    {
      "channel": 1,
      "note": 54,
      "start": 1.9196,
      "duration": 0.0257,
      "velocity": 91,
      "chip": "ym2612"
    },
    {
      "channel": 1,
      "note": 52,
      "start": 1.9458,
      "duration": 0.0254,
      "velocity": 91,
      "chip": "ym2612"
    },
    {
      "channel": 1,
      "note": 53,
      "start": 1.9717,
      "duration": 0.0272,
      "velocity": 91,
      "chip": "ym2612"
    },
    {
      "channel": 1,
      "note": 54,
      "start": 1.9994,
      "duration": 0.0561,
      "velocity": 91,
      "chip": "ym2612"
    },
    {
      "channel": 1,
      "note": 52,
      "start": 2.0561,
      "duration": 0.0256,
      "velocity": 91,
      "chip": "ym2612"
    },
    {
      "channel": 1,
      "note": 53,
      "start": 2.0822,
      "duration": 0.0283,
      "velocity": 91,
      "chip": "ym2612"
    },
    {
      "channel": 1,
      "note": 54,
      "start": 2.111,
      "duration": 0.0259,
      "velocity": 91,
      "chip": "ym2612"
    },
    {
      "channel": 1,
      "note": 52,
      "start": 2.1649,
      "duration": 0.0321,
      "velocity": 91,
      "chip": "ym2612"
    },
    {
      "channel": 2,
      "note": 81,
      "start": 2.1656,
      "duration": 0.0321,
      "velocity": 101,
      "chip": "ym2612"
    },
    {
      "channel": 3,
      "note": 76,
      "start": 2.1662,
      "duration": 0.0317,
      "velocity": 101,
      "chip": "ym2612"
    },
    {
      "channel": 4,
      "note": 71,
      "start": 2.1669,
      "duration": 0.0314,
      "velocity": 101,
      "chip": "ym2612"
    },
    {
      "channel": 1,
      "note": 53,
      "start": 2.1975,
      "duration": 0.0254,
      "velocity": 91,
      "chip": "ym2612"
    },
    {
      "channel": 1,
      "note": 54,
      "start": 2.2234,
      "duration": 0.0352,
      "velocity": 91,
      "chip": "ym2612"
    },
    {
      "channel": 2,
      "note": 80,
      "start": 2.2241,
      "duration": 0.0352,
      "velocity": 101,
      "chip": "ym2612"
    },
    {
      "channel": 3,
      "note": 75,
      "start": 2.2248,
      "duration": 0.0349,
      "velocity": 101,
      "chip": "ym2612"
    },
    {
      "channel": 4,
      "note": 70,
      "start": 2.2254,
      "duration": 0.0345,
      "velocity": 101,
      "chip": "ym2612"
    },
    {
      "channel": 1,
      "note": 57,
      "start": 2.2592,
      "duration": 0.059,
      "velocity": 91,
      "chip": "ym2612"
    },
    {
      "channel": 1,
      "note": 49,
      "start": 2.3186,
      "duration": 0.0322,
      "velocity": 91,
      "chip": "ym2612"
    },
    {
      "channel": 2,
      "note": 79,
      "start": 2.3193,
      "duration": 0.0322,
      "velocity": 101,
      "chip": "ym2612"
    },
    {
      "channel": 3,
      "note": 74,
      "start": 2.32,
      "duration": 0.0318,
      "velocity": 101,
      "chip": "ym2612"
    },
    {
      "channel": 4,
      "note": 69,
      "start": 2.3206,
      "duration": 0.0315,
      "velocity": 101,
      "chip": "ym2612"
    },
    {
      "channel": 1,
      "note": 52,
      "start": 2.3513,
      "duration": 0.0155,
      "velocity": 91,
      "chip": "ym2612"
    },
    {
      "channel": 1,
      "note": 53,
      "start": 2.3673,
      "duration": 0.0123,
      "velocity": 91,
      "chip": "ym2612"
    },
    {
      "channel": 1,
      "note": 54,
      "start": 2.3801,
      "duration": 0.0261,
      "velocity": 91,
      "chip": "ym2612"
    },
    {
      "channel": 1,
      "note": 42,
      "start": 2.4068,
      "duration": 0.0362,
      "velocity": 91,
      "chip": "ym2612"
    },
    {
      "channel": 2,
      "note": 78,
      "start": 2.4077,
      "duration": 0.036,
      "velocity": 101,
      "chip": "ym2612"
    },
    {
      "channel": 3,
      "note": 73,
      "start": 2.4085,
      "duration": 0.0354,
      "velocity": 101,
      "chip": "ym2612"
    },
    {
      "channel": 4,
      "note": 68,
      "start": 2.4095,
      "duration": 0.0348,
      "velocity": 101,
      "chip": "ym2612"
    },
    {
      "channel": 1,
      "note": 54,
      "start": 2.4435,
      "duration": 0.0574,
      "velocity": 91,
      "chip": "ym2612"
    },
    {
      "channel": 1,
      "note": 52,
      "start": 2.5015,
      "duration": 0.0254,
      "velocity": 91,
      "chip": "ym2612"
    },
    {
      "channel": 1,
      "note": 53,
      "start": 2.5274,
      "duration": 0.0272,
      "velocity": 91,
      "chip": "ym2612"
    },
    {
      "channel": 1,
      "note": 54,
      "start": 2.5551,
      "duration": 0.0561,
      "velocity": 91,
      "chip": "ym2612"
    },
    {
      "channel": 1,
      "note": 52,
      "start": 2.6117,
      "duration": 0.0281,
      "velocity": 91,
      "chip": "ym2612"
    },
    {
      "channel": 1,
      "note": 53,
      "start": 2.6404,
      "duration": 0.0254,
      "velocity": 91,
      "chip": "ym2612"
    },
    {
      "channel": 1,
      "note": 54,
      "start": 2.6663,
      "duration": 0.0322,
      "velocity": 91,
      "chip": "ym2612"
    },
    {
      "channel": 2,
      "note": 78,
      "start": 2.667,
      "duration": 0.0318,
      "velocity": 101,
      "chip": "ym2612"
    },
    {
      "channel": 3,
      "note": 73,
      "start": 2.6676,
      "duration": 0.0315,
      "velocity": 101,
      "chip": "ym2612"
    },
    {
      "channel": 4,
      "note": 68,
      "start": 2.6683,
      "duration": 0.0311,
      "velocity": 101,
      "chip": "ym2612"
    },
    {
      "channel": 1,
      "note": 52,
      "start": 2.7265,
      "duration": 0.0257,
      "velocity": 91,
      "chip": "ym2612"
    },
    {
      "channel": 1,
      "note": 53,
      "start": 2.7527,
      "duration": 0.0254,
      "velocity": 91,
      "chip": "ym2612"
    },
    {
      "channel": 1,
      "note": 54,
      "start": 2.7786,
      "duration": 0.0272,
      "velocity": 91,
      "chip": "ym2612"
    },
    {
      "channel": 1,
      "note": 60,
      "start": 2.8064,
      "duration": 0.0508,
      "velocity": 91,
      "chip": "ym2612"
    },
    {
      "channel": 1,
      "note": 59,
      "start": 2.8577,
      "duration": 0.0353,
      "velocity": 91,
      "chip": "ym2612"
    },
    {
      "channel": 2,
      "note": 76,
      "start": 2.8584,
      "duration": 0.0352,
      "velocity": 101,
      "chip": "ym2612"
    },
    {
      "channel": 3,
      "note": 71,
      "start": 2.8591,
      "duration": 0.0349,
      "velocity": 101,
      "chip": "ym2612"
    },
    {
      "channel": 4,
      "note": 66,
      "start": 2.8597,
      "duration": 0.0346,
      "velocity": 101,
      "chip": "ym2612"
    },
    {
      "channel": 1,
      "note": 57,
      "start": 2.8935,
      "duration": 0.0254,
      "velocity": 91,
      "chip": "ym2612"
    },
    {
      "channel": 1,
      "note": 54,
      "start": 2.9194,
      "duration": 0.0322,
      "velocity": 91,
      "chip": "ym2612"
    },
    {
      "channel": 2,
      "note": 78,
      "start": 2.92,
      "duration": 0.0321,
      "velocity": 101,
      "chip": "ym2612"
    },
    {
      "channel": 3,
      "note": 73,
      "start": 2.9207,
      "duration": 0.0317,
      "velocity": 101,
      "chip": "ym2612"
    },
    {
      "channel": 4,
      "note": 68,
      "start": 2.9214,
      "duration": 0.0314,
      "velocity": 101,
      "chip": "ym2612"
    },
    {
      "channel": 1,
      "note": 42,
      "start": 2.9521,
      "duration": 0.0282,
      "velocity": 91,
      "chip": "ym2612"
    },
    {
      "channel": 1,
      "note": 54,
      "start": 2.9808,
      "duration": 0.0257,
      "velocity": 91,
      "chip": "ym2612"
    },
    {
      "channel": 1,
      "note": 52,
      "start": 3.007,
      "duration": 0.0253,
      "velocity": 91,
      "chip": "ym2612"
    },
    {
      "channel": 1,
      "note": 53,
      "start": 3.0328,
      "duration": 0.0272,
      "velocity": 91,
      "chip": "ym2612"
    },
    {
      "channel": 1,
      "note": 54,
      "start": 3.0606,
      "duration": 0.0509,
      "velocity": 91,
      "chip": "ym2612"
    },
    {
      "channel": 1,
      "note": 52,
      "start": 3.112,
      "duration": 0.0281,
      "velocity": 91,
      "chip": "ym2612"
    },
    {
      "channel": 1,
      "note": 53,
      "start": 3.1406,
      "duration": 0.0254,
      "velocity": 91,
      "chip": "ym2612"
    },
    {
      "channel": 1,
      "note": 54,
      "start": 3.1665,
      "duration": 0.0258,
      "velocity": 91,
      "chip": "ym2612"
    },
    {
      "channel": 1,
      "note": 52,
      "start": 3.2203,
      "duration": 0.0338,
      "velocity": 91,
      "chip": "ym2612"
    },
    {
      "channel": 2,
      "note": 76,
      "start": 3.221,
      "duration": 0.0165,
      "velocity": 101,
      "chip": "ym2612"
    },
    {
      "channel": 3,
      "note": 71,
      "start": 3.2216,
      "duration": 0.0168,
      "velocity": 101,
      "chip": "ym2612"
    },
    {
      "channel": 4,
      "note": 66,
      "start": 3.2223,
      "duration": 0.0169,
      "velocity": 101,
      "chip": "ym2612"
    },
    {
      "channel": 2,
      "note": 76,
      "start": 3.2379,
      "duration": 0.0171,
      "velocity": 101,
      "chip": "ym2612"
    },
    {
      "channel": 3,
      "note": 71,
      "start": 3.2387,
      "duration": 0.0173,
      "velocity": 101,
      "chip": "ym2612"
    },
    {
      "channel": 4,
      "note": 66,
      "start": 3.2395,
      "duration": 0.0175,
      "velocity": 101,
      "chip": "ym2612"
    },
    {
      "channel": 1,
      "note": 53,
      "start": 3.2546,
      "duration": 0.0331,
      "velocity": 91,
      "chip": "ym2612"
    },
    {
      "channel": 2,
      "note": 76,
      "start": 3.2556,
      "duration": 0.0327,
      "velocity": 101,
      "chip": "ym2612"
    },
    {
      "channel": 3,
      "note": 71,
      "start": 3.2566,
      "duration": 0.0321,
      "velocity": 101,
      "chip": "ym2612"
    },
    {
      "channel": 4,
      "note": 66,
      "start": 3.2576,
      "duration": 0.0314,
      "velocity": 101,
      "chip": "ym2612"
    },
    {
      "channel": 1,
      "note": 54,
      "start": 3.2882,
      "duration": 0.0278,
      "velocity": 91,
      "chip": "ym2612"
    },
    {
      "channel": 1,
      "note": 47,
      "start": 3.3165,
      "duration": 0.025,
      "velocity": 91,
      "chip": "ym2612"
    },
    {
      "channel": 2,
      "note": 76,
      "start": 3.3172,
      "duration": 0.0584,
      "velocity": 101,
      "chip": "ym2612"
    },
    {
      "channel": 3,
      "note": 71,
      "start": 3.3179,
      "duration": 0.0583,
      "velocity": 101,
      "chip": "ym2612"
    },
    {
      "channel": 4,
      "note": 66,
      "start": 3.3185,
      "duration": 0.0581,
      "velocity": 101,
      "chip": "ym2612"
    },
    {
      "channel": 1,
      "note": 48,
      "start": 3.3421,
      "duration": 0.0329,
      "velocity": 91,
      "chip": "ym2612"
    },
    {
      "channel": 1,
      "note": 49,
      "start": 3.3755,
      "duration": 0.0353,
      "velocity": 91,
      "chip": "ym2612"
    },
    {
      "channel": 2,
      "note": 76,
      "start": 3.376,
      "duration": 0.0353,
      "velocity": 101,
      "chip": "ym2612"
    },
    {
      "channel": 3,
      "note": 71,
      "start": 3.3765,
      "duration": 0.0351,
      "velocity": 101,
      "chip": "ym2612"
    },
    {
      "channel": 4,
      "note": 66,
      "start": 3.377,
      "duration": 0.0349,
      "velocity": 101,
      "chip": "ym2612"
    },
    {
      "channel": 1,
      "note": 52,
      "start": 3.4112,
      "duration": 0.0254,
      "velocity": 91,
      "chip": "ym2612"
    },
    {
      "channel": 1,
      "note": 53,
      "start": 3.4371,
      "duration": 0.034,
      "velocity": 91,
      "chip": "ym2612"
    },
    {
      "channel": 2,
      "note": 78,
      "start": 3.4378,
      "duration": 0.0339,
      "velocity": 101,
      "chip": "ym2612"
    },
    {
      "channel": 3,
      "note": 73,
      "start": 3.4384,
      "duration": 0.0336,
      "velocity": 101,
      "chip": "ym2612"
    },
    {
      "channel": 4,
      "note": 68,
      "start": 3.4391,
      "duration": 0.0333,
      "velocity": 101,
      "chip": "ym2612"
    },
    {
      "channel": 1,
      "note": 42,
      "start": 3.4716,
      "duration": 0.0282,
      "velocity": 91,
      "chip": "ym2612"
    },
    {
      "channel": 1,
      "note": 54,
      "start": 3.5003,
      "duration": 0.0588,
      "velocity": 91,
      "chip": "ym2612"
    },
    {
      "channel": 1,
      "note": 52,
      "start": 3.5596,
      "duration": 0.0253,
      "velocity": 91,
      "chip": "ym2612"
    },
    {
      "channel": 1,
      "note": 53,
      "start": 3.5855,
      "duration": 0.0272,
      "velocity": 91,
      "chip": "ym2612"
    },
    {
      "channel": 1,
      "note": 54,
      "start": 3.6132,
      "duration": 0.0457,
      "velocity": 91,
      "chip": "ym2612"
    },
    {
      "channel": 1,
      "note": 52,
      "start": 3.6594,
      "duration": 0.0281,
      "velocity": 91,
      "chip": "ym2612"
    },
    {
      "channel": 1,
      "note": 53,
      "start": 3.688,
      "duration": 0.0254,
      "velocity": 91,
      "chip": "ym2612"
    },
    {
      "channel": 1,
      "note": 54,
      "start": 3.714,
      "duration": 0.0322,
      "velocity": 91,
      "chip": "ym2612"
    },
    {
      "channel": 2,
      "note": 78,
      "start": 3.7147,
      "duration": 0.0318,
      "velocity": 101,
      "chip": "ym2612"
    },
    {
      "channel": 3,
      "note": 73,
      "start": 3.7153,
      "duration": 0.0315,
      "velocity": 101,
      "chip": "ym2612"
    },
    {
      "channel": 4,
      "note": 68,
      "start": 3.7159,
      "duration": 0.0311,
      "velocity": 101,
      "chip": "ym2612"
    },
    {
      "channel": 1,
      "note": 52,
      "start": 3.7742,
      "duration": 0.0321,
      "velocity": 91,
      "chip": "ym2612"
    },
    {
      "channel": 2,
      "note": 78,
      "start": 3.7749,
      "duration": 0.0321,
      "velocity": 101,
      "chip": "ym2612"
    },
    {
      "channel": 3,
      "note": 73,
      "start": 3.7755,
      "duration": 0.0317,
      "velocity": 101,
      "chip": "ym2612"
    },
    {
      "channel": 4,
      "note": 68,
      "start": 3.7761,
      "duration": 0.0314,
      "velocity": 101,
      "chip": "ym2612"
    },
    {
      "channel": 1,
      "note": 53,
      "start": 3.8068,
      "duration": 0.0283,
      "velocity": 91,
      "chip": "ym2612"
    },
    {
      "channel": 1,
      "note": 54,
      "start": 3.8356,
      "duration": 0.0247,
      "velocity": 91,
      "chip": "ym2612"
    },
    {
      "channel": 1,
      "note": 60,
      "start": 3.8609,
      "duration": 0.0458,
      "velocity": 91,
      "chip": "ym2612"
    },
    {
      "channel": 1,
      "note": 59,
      "start": 3.9072,
      "duration": 0.0353,
      "velocity": 91,
      "chip": "ym2612"
    },
    {
      "channel": 2,
      "note": 76,
      "start": 3.9079,
      "duration": 0.0352,
      "velocity": 101,
      "chip": "ym2612"
    },
    {
      "channel": 3,
      "note": 71,
      "start": 3.9085,
      "duration": 0.0349,
      "velocity": 101,
      "chip": "ym2612"
    },
    {
      "channel": 4,
      "note": 66,
      "start": 3.9092,
      "duration": 0.0346,
      "velocity": 101,
      "chip": "ym2612"
    },
    {
      "channel": 1,
      "note": 57,
      "start": 3.943,
      "duration": 0.0253,
      "velocity": 91,
      "chip": "ym2612"
    },
    {
      "channel": 1,
      "note": 54,
      "start": 3.9688,
      "duration": 0.0322,
      "velocity": 91,
      "chip": "ym2612"
    },
    {
      "channel": 2,
      "note": 77,
      "start": 3.9695,
      "duration": 0.0321,
      "velocity": 101,
      "chip": "ym2612"
    },
    {
      "channel": 3,
      "note": 72,
      "start": 3.9702,
      "duration": 0.0321,
      "velocity": 101,
      "chip": "ym2612"
    },
    {
      "channel": 4,
      "note": 67,
      "start": 3.9708,
      "duration": 0.0321,
      "velocity": 101,
      "chip": "ym2612"
    },
    {
      "channel": 1,
      "note": 42,
      "start": 4.0015,
      "duration": 0.0369,
      "velocity": 91,
      "chip": "ym2612"
    },
    {
      "channel": 2,
      "note": 78,
      "start": 4.0022,
      "duration": 0.0368,
      "velocity": 101,
      "chip": "ym2612"
    },
    {
      "channel": 3,
      "note": 73,
      "start": 4.0028,
      "duration": 0.0365,
      "velocity": 101,
      "chip": "ym2612"
    },
    {
      "channel": 4,
      "note": 68,
      "start": 4.0035,
      "duration": 0.0362,
      "velocity": 101,
      "chip": "ym2612"
    },
    {
      "channel": 1,
      "note": 54,
      "start": 4.0389,
      "duration": 0.0256,
      "velocity": 91,
      "chip": "ym2612"
    },
    {
      "channel": 1,
      "note": 52,
      "start": 4.0651,
      "duration": 0.0282,
      "velocity": 91,
      "chip": "ym2612"
    },
    {
      "channel": 1,
      "note": 53,
      "start": 4.0939,
      "duration": 0.0247,
      "velocity": 91,
      "chip": "ym2612"
    },
    {
      "channel": 1,
      "note": 54,
      "start": 4.1191,
      "duration": 0.0458,
      "velocity": 91,
      "chip": "ym2612"
    },
    {
      "channel": 1,
      "note": 52,
      "start": 4.1654,
      "duration": 0.0281,
      "velocity": 91,
      "chip": "ym2612"
    },
    {
      "channel": 1,
      "note": 53,
      "start": 4.1941,
      "duration": 0.0254,
      "velocity": 91,
      "chip": "ym2612"
    },
    {
      "channel": 1,
      "note": 54,
      "start": 4.22,
      "duration": 0.0258,
      "velocity": 91,
      "chip": "ym2612"
    },
    {
      "channel": 1,
      "note": 52,
      "start": 4.2723,
      "duration": 0.0332,
      "velocity": 91,
      "chip": "ym2612"
    },
    {
      "channel": 2,
      "note": 81,
      "start": 4.273,
      "duration": 0.033,
      "velocity": 101,
      "chip": "ym2612"
    },
    {
      "channel": 3,
      "note": 76,
      "start": 4.2737,
      "duration": 0.0327,
      "velocity": 101,
      "chip": "ym2612"
    },
    {
      "channel": 4,
      "note": 71,
      "start": 4.2743,
      "duration": 0.0324,
      "velocity": 101,
      "chip": "ym2612"
    },
    {
      "channel": 1,
      "note": 53,
      "start": 4.3059,
      "duration": 0.0282,
      "velocity": 91,
      "chip": "ym2612"
    },
    {
      "channel": 1,
      "note": 54,
      "start": 4.3346,
      "duration": 0.0322,
      "velocity": 91,
      "chip": "ym2612"
    },
    {
      "channel": 2,
      "note": 80,
      "start": 4.3353,
      "duration": 0.0321,
      "velocity": 101,
      "chip": "ym2612"
    },
    {
      "channel": 3,
      "note": 75,
      "start": 4.3359,
      "duration": 0.0317,
      "velocity": 101,
      "chip": "ym2612"
    },
    {
      "channel": 4,
      "note": 70,
      "start": 4.3366,
      "duration": 0.0313,
      "velocity": 101,
      "chip": "ym2612"
    },
    {
      "channel": 1,
      "note": 57,
      "start": 4.3672,
      "duration": 0.0276,
      "velocity": 91,
      "chip": "ym2612"
    },
    {
      "channel": 1,
      "note": 49,
      "start": 4.3953,
      "duration": 0.0359,
      "velocity": 91,
      "chip": "ym2612"
    },
    {
      "channel": 2,
      "note": 79,
      "start": 4.3959,
      "duration": 0.0359,
      "velocity": 101,
      "chip": "ym2612"
    },
    {
      "channel": 3,
      "note": 74,
      "start": 4.3966,
      "duration": 0.0355,
      "velocity": 101,
      "chip": "ym2612"
    },
    {
      "channel": 4,
      "note": 69,
      "start": 4.3973,
      "duration": 0.0352,
      "velocity": 101,
      "chip": "ym2612"
    },
    {
      "channel": 1,
      "note": 52,
      "start": 4.4317,
      "duration": 0.0133,
      "velocity": 91,
      "chip": "ym2612"
    },
    {
      "channel": 1,
      "note": 53,
      "start": 4.4456,
      "duration": 0.0132,
      "velocity": 91,
      "chip": "ym2612"
    },
    {
      "channel": 1,
      "note": 54,
      "start": 4.4593,
      "duration": 0.0261,
      "velocity": 91,
      "chip": "ym2612"
    },
    {
      "channel": 1,
      "note": 42,
      "start": 4.4859,
      "duration": 0.0361,
      "velocity": 91,
      "chip": "ym2612"
    },
    {
      "channel": 2,
      "note": 78,
      "start": 4.4868,
      "duration": 0.0359,
      "velocity": 101,
      "chip": "ym2612"
    },
    {
      "channel": 3,
      "note": 73,
      "start": 4.4877,
      "duration": 0.0353,
      "velocity": 101,
      "chip": "ym2612"
    },
    {
      "channel": 4,
      "note": 68,
      "start": 4.4886,
      "duration": 0.0347,
      "velocity": 101,
      "chip": "ym2612"
    },
    {
      "channel": 1,
      "note": 54,
      "start": 4.5225,
      "duration": 18.642,
      "velocity": 91,
      "chip": "ym2612"
    }
  ]
}