{
  "track_name": "04 - Sound Test 04",
  "duration_sec": 74.28,
  "sample_rate": 44100,
  "note_count": 1068,
  "unique_pitches": 31,
  "pitch_range": 42,
  "avg_note_duration": 0.1791,
  "reconstruction_stats": {
    "notes_reconstructed": 1068,
    "keyon_events": 1068,
    "keyoff_events": 1064,
    "orphan_keyons": 4,
    "unique_pitches": 31,
    "pitch_range": 42,
    "avg_duration_sec": 0.1791
  },
  "metadata": {
    "source": "D\\Dyna Brothers\\04 - Sound Test 04.vgz"
  },
  "notes": [
    {
      "channel": 0,
      "note": 81,
      "start": 1.1181,
      "duration": 0.076,
      "velocity": 92,
      "chip": "ym2612"
    },
    {
      "channel": 2,
      "note": 69,
      "start": 1.1192,
      "duration": 1.1237,
      "velocity": 95,
      "chip": "ym2612"
    },
    {
      "channel": 4,
      "note": 64,
      "start": 1.1202,
      "duration": 1.1233,
      "velocity": 95,
      "chip": "ym2612"
    },
    {
      "channel": 5,
      "note": 57,
      "start": 1.1211,
      "duration": 1.5042,
      "velocity": 107,
      "chip": "ym2612"
    },
    {
      "channel": 1,
      "note": 81,
      "start": 1.2456,
      "duration": 0.076,
      "velocity": 92,
      "chip": "ym2612"
    },
    {
      "channel": 3,
      "note": 69,
      "start": 1.2471,
      "duration": 1.1233,
      "velocity": 95,
      "chip": "ym2612"
    },
    {
      "channel": 0,
      "note": 80,
      "start": 1.3059,
      "duration": 0.0788,
      "velocity": 92,
      "chip": "ym2612"
    },
    {
      "channel": 1,
      "note": 80,
      "start": 1.4334,
      "duration": 0.0787,
      "velocity": 92,
      "chip": "ym2612"
    },
    {
      "channel": 0,
      "note": 81,
      "start": 1.4964,
      "duration": 0.0787,
      "velocity": 92,
      "chip": "ym2612"
    },
    {
      "channel": 1,
      "note": 81,
      "start": 1.6239,
      "duration": 0.0787,
      "velocity": 92,
      "chip": "ym2612"
    },
    {
      "channel": 0,
      "note": 76,
      "start": 1.687,
      "duration": 0.0787,
      "velocity": 92,
      "chip": "ym2612"
    },
    {
      "channel": 1,
      "note": 76,
      "start": 1.8144,
      "duration": 0.0787,
      "velocity": 92,
      "chip": "ym2612"
    },
    {
      "channel": 0,
      "note": 81,
      "start": 1.8774,
      "duration": 0.0788,
      "velocity": 92,
      "chip": "ym2612"
    },
    {
      "channel": 1,
      "note": 81,
      "start": 2.0049,
      "duration": 0.0788,
      "velocity": 92,
      "chip": "ym2612"
    },
    {
      "channel": 0,
      "note": 80,
      "start": 2.0679,
      "duration": 0.0788,
      "velocity": 92,
      "chip": "ym2612"
    },
    {
      "channel": 1,
      "note": 80,
      "start": 2.1954,
      "duration": 0.0788,
      "velocity": 92,
      "chip": "ym2612"
    },
    {
      "channel": 0,
      "note": 81,
      "start": 2.2585,
      "duration": 0.0787,
      "velocity": 92,
      "chip": "ym2612"
    },
    {
      "channel": 1,
      "note": 81,
      "start": 2.386,
      "duration": 0.0787,
      "velocity": 92,
      "chip": "ym2612"
    },
    {
      "channel": 0,
      "note": 76,
      "start": 2.4489,
      "duration": 0.0788,
      "velocity": 92,
      "chip": "ym2612"
    },
    {
      "channel": 1,
      "note": 76,
      "start": 2.5765,
      "duration": 0.0787,
      "velocity": 92,
      "chip": "ym2612"
    },
    {
      "channel": 0,
      "note": 81,
      "start": 2.6394,
      "duration": 0.0788,
      "velocity": 92,
      "chip": "ym2612"
    },
    {
      "channel": 1,
      "note": 81,
      "start": 2.7669,
      "duration": 0.0788,
      "velocity": 92,
      "chip": "ym2612"
    },
    {
      "channel": 0,
      "note": 80,
      "start": 2.8299,
      "duration": 0.0788,
      "velocity": 92,
      "chip": "ym2612"
    },
    {
      "channel": 1,
      "note": 80,
      "start": 2.9574,
      "duration": 0.0788,
      "velocity": 92,
      "chip": "ym2612"
    },
    {
      "channel": 0,
      "note": 81,
      "start": 3.0205,
      "duration": 0.0787,
      "velocity": 92,
      "chip": "ym2612"
    },
    {
      "channel": 1,
      "note": 81,
      "start": 3.148,
      "duration": 0.0787,
      "velocity": 92,
      "chip": "ym2612"
    },
    {
      "channel": 0,
      "note": 76,
      "start": 3.211,
      "duration": 0.0787,
      "velocity": 92,
      "chip": "ym2612"
    },
    {
      "channel": 1,
      "note": 76,
      "start": 3.3385,
      "duration": 0.0787,
      "velocity": 92,
      "chip": "ym2612"
    },
    {
      "channel": 0,
      "note": 81,
      "start": 3.4014,
      "duration": 0.0788,
      "velocity": 92,
      "chip": "ym2612"
    },
    {
      "channel": 2,
      "note": 68,
      "start": 3.4029,
      "duration": 0.3481,
      "velocity": 95,
      "chip": "ym2612"
    },
    {
      "channel": 4,
      "note": 64,
      "start": 3.4043,
      "duration": 0.3473,
      "velocity": 95,
      "chip": "ym2612"
    },
    {
      "channel": 1,
      "note": 81,
      "start": 3.5289,
      "duration": 0.0788,
      "velocity": 92,
      "chip": "ym2612"
    },
    {
      "channel": 3,
      "note": 68,
      "start": 3.5304,
      "duration": 0.3481,
      "velocity": 95,
      "chip": "ym2612"
    },
    {
      "channel": 0,
      "note": 80,
      "start": 3.5919,
      "duration": 0.0788,
      "velocity": 92,
      "chip": "ym2612"
    },
    {
      "channel": 1,
      "note": 80,
      "start": 3.7194,
      "duration": 0.0788,
      "velocity": 92,
      "chip": "ym2612"
    },
    {
      "channel": 0,
      "note": 81,
      "start": 3.7824,
      "duration": 0.0788,
      "velocity": 92,
      "chip": "ym2612"
    },
    {
      "channel": 1,
      "note": 81,
      "start": 3.9099,
      "duration": 0.0788,
      "velocity": 92,
      "chip": "ym2612"
    },
    {
      "channel": 0,
      "note": 76,
      "start": 3.9729,
      "duration": 0.0788,
      "velocity": 92,
      "chip": "ym2612"
    },
    {
      "channel": 1,
      "note": 76,
      "start": 4.1005,
      "duration": 0.0787,
      "velocity": 92,
      "chip": "ym2612"
    },
    {
      "channel": 0,
      "note": 81,
      "start": 4.1634,
      "duration": 0.0788,
      "velocity": 92,
      "chip": "ym2612"
    },
    {
      "channel": 2,
      "note": 66,
      "start": 4.1649,
      "duration": 0.7291,
      "velocity": 95,
      "chip": "ym2612"
    },
    {
      "channel": 4,
      "note": 61,
      "start": 4.1663,
      "duration": 0.7284,
      "velocity": 95,
      "chip": "ym2612"
    },
    {
      "channel": 5,
      "note": 54,
      "start": 4.1672,
      "duration": 1.5062,
      "velocity": 107,
      "chip": "ym2612"
    },
    {
      "channel": 1,
      "note": 81,
      "start": 4.2909,
      "duration": 0.0788,
      "velocity": 92,
      "chip": "ym2612"
    },
    {
      "channel": 3,
      "note": 66,
      "start": 4.2924,
      "duration": 0.7291,
      "velocity": 95,
      "chip": "ym2612"
    },
    {
      "channel": 0,
      "note": 80,
      "start": 4.3539,
      "duration": 0.0788,
      "velocity": 92,
      "chip": "ym2612"
    },
    {
      "channel": 1,
      "note": 80,
      "start": 4.4814,
      "duration": 0.0788,
      "velocity": 92,
      "chip": "ym2612"
    },
    {
      "channel": 0,
      "note": 81,
      "start": 4.5445,
      "duration": 0.0788,
      "velocity": 92,
      "chip": "ym2612"
    },
    {
      "channel": 1,
      "note": 81,
      "start": 4.672,
      "duration": 0.0787,
      "velocity": 92,
      "chip": "ym2612"
    },
    {
      "channel": 0,
      "note": 76,
      "start": 4.735,
      "duration": 0.0787,
      "velocity": 92,
      "chip": "ym2612"
    },
    {
      "channel": 1,
      "note": 76,
      "start": 4.8625,
      "duration": 0.0788,
      "velocity": 92,
      "chip": "ym2612"
    },
    {
      "channel": 0,
      "note": 81,
      "start": 4.9255,
      "duration": 0.0788,
      "velocity": 92,
      "chip": "ym2612"
    },
    {
      "channel": 1,
      "note": 81,
      "start": 5.0529,
      "duration": 0.0788,
      "velocity": 92,
      "chip": "ym2612"
    },
    {
      "channel": 0,
      "note": 80,
      "start": 5.116,
      "duration": 0.0788,
      "velocity": 92,
      "chip": "ym2612"
    },
    {
      "channel": 1,
      "note": 80,
      "start": 5.2435,
      "duration": 0.0788,
      "velocity": 92,
      "chip": "ym2612"
    },
    {
      "channel": 0,
      "note": 81,
      "start": 5.3065,
      "duration": 0.0788,
      "velocity": 92,
      "chip": "ym2612"
    },
    {
      "channel": 1,
      "note": 81,
      "start": 5.434,
      "duration": 0.0787,
      "velocity": 92,
      "chip": "ym2612"
    },
    {
      "channel": 0,
      "note": 76,
      "start": 5.497,
      "duration": 0.0788,
      "velocity": 92,
      "chip": "ym2612"
    },
    {
      "channel": 1,
      "note": 76,
      "start": 5.6245,
      "duration": 0.0787,
      "velocity": 92,
      "chip": "ym2612"
    },
    {
      "channel": 0,
      "note": 81,
      "start": 5.6875,
      "duration": 0.0788,
      "velocity": 92,
      "chip": "ym2612"
    },
    {
      "channel": 2,
      "note": 66,
      "start": 5.6889,
      "duration": 0.3481,
      "velocity": 95,
      "chip": "ym2612"
    },
    {
      "channel": 4,
      "note": 61,
      "start": 5.6903,
      "duration": 0.3473,
      "velocity": 95,
      "chip": "ym2612"
    },
    {
      "channel": 1,
      "note": 81,
      "start": 5.815,
      "duration": 0.0788,
      "velocity": 92,
      "chip": "ym2612"
    },
    {
      "channel": 3,
      "note": 66,
      "start": 5.8164,
      "duration": 0.3481,
      "velocity": 95,
      "chip": "ym2612"
    },
    {
      "channel": 0,
      "note": 80,
      "start": 5.8779,
      "duration": 0.0788,
      "velocity": 92,
      "chip": "ym2612"
    },
    {
      "channel": 1,
      "note": 80,
      "start": 6.0055,
      "duration": 0.0788,
      "velocity": 92,
      "chip": "ym2612"
    },
    {
      "channel": 0,
      "note": 81,
      "start": 6.0685,
      "duration": 0.0788,
      "velocity": 92,
      "chip": "ym2612"
    },
    {
      "channel": 1,
      "note": 81,
      "start": 6.1961,
      "duration": 0.0786,
      "velocity": 92,
      "chip": "ym2612"
    },
    {
      "channel": 0,
      "note": 76,
      "start": 6.259,
      "duration": 0.0787,
      "velocity": 92,
      "chip": "ym2612"
    },
    {
      "channel": 1,
      "note": 76,
      "start": 6.3865,
      "duration": 0.0787,
      "velocity": 92,
      "chip": "ym2612"
    },
    {
      "channel": 0,
      "note": 81,
      "start": 6.4495,
      "duration": 0.0788,
      "velocity": 92,
      "chip": "ym2612"
    },
    {
      "channel": 2,
      "note": 64,
      "start": 6.4508,
      "duration": 0.3482,
      "velocity": 95,
      "chip": "ym2612"
    },
    {
      "channel": 4,
      "note": 59,
      "start": 6.4522,
      "duration": 0.3475,
      "velocity": 95,
      "chip": "ym2612"
    },
    {
      "channel": 1,
      "note": 81,
      "start": 6.577,
      "duration": 0.0788,
      "velocity": 92,
      "chip": "ym2612"
    },
    {
      "channel": 3,
      "note": 64,
      "start": 6.5783,
      "duration": 0.3482,
      "velocity": 95,
      "chip": "ym2612"
    },
    {
      "channel": 0,
      "note": 80,
      "start": 6.64,
      "duration": 0.0788,
      "velocity": 92,
      "chip": "ym2612"
    },
    {
      "channel": 1,
      "note": 80,
      "start": 6.7675,
      "duration": 0.0788,
      "velocity": 92,
      "chip": "ym2612"
    },
    {
      "channel": 0,
      "note": 81,
      "start": 6.8305,
      "duration": 0.0788,
      "velocity": 92,
      "chip": "ym2612"
    },
    {
      "channel": 1,
      "note": 81,
      "start": 6.958,
      "duration": 0.0788,
      "velocity": 92,
      "chip": "ym2612"
    },
    {
      "channel": 0,
      "note": 80,
      "start": 7.021,
      "duration": 0.0788,
      "velocity": 92,
      "chip": "ym2612"
    },
    {
      "channel": 1,
      "note": 80,
      "start": 7.1485,
      "duration": 0.0788,
      "velocity": 92,
      "chip": "ym2612"
    },
    {
      "channel": 0,
      "note": 78,
      "start": 7.2116,
      "duration": 0.0627,
      "velocity": 92,
      "chip": "ym2612"
    },
    {
      "channel": 2,
      "note": 66,
      "start": 7.213,
      "duration": 0.729,
      "velocity": 95,
      "chip": "ym2612"
    },
    {
      "channel": 4,
      "note": 57,
      "start": 7.2144,
      "duration": 0.7283,
      "velocity": 95,
      "chip": "ym2612"
    },
    {
      "channel": 5,
      "note": 50,
      "start": 7.2153,
      "duration": 1.5062,
      "velocity": 107,
      "chip": "ym2612"
    },
    {
      "channel": 1,
      "note": 78,
      "start": 7.3391,
      "duration": 0.0632,
      "velocity": 92,
      "chip": "ym2612"
    },
    {
      "channel": 3,
      "note": 66,
      "start": 7.3405,
      "duration": 0.729,
      "velocity": 95,
      "chip": "ym2612"
    },
    {
      "channel": 0,
      "note": 77,
      "start": 7.402,
      "duration": 0.0788,
      "velocity": 92,
      "chip": "ym2612"
    },
    {
      "channel": 1,
      "note": 77,
      "start": 7.5296,
      "duration": 0.0787,
      "velocity": 92,
      "chip": "ym2612"
    },
    {
      "channel": 0,
      "note": 78,
      "start": 7.5926,
      "duration": 0.0627,
      "velocity": 92,
      "chip": "ym2612"
    },
    {
      "channel": 1,
      "note": 78,
      "start": 7.7201,
      "duration": 0.0632,
      "velocity": 92,
      "chip": "ym2612"
    },
    {
      "channel": 0,
      "note": 73,
      "start": 7.7831,
      "duration": 0.0787,
      "velocity": 92,
      "chip": "ym2612"
    },
    {
      "channel": 1,
      "note": 73,
      "start": 7.9106,
      "duration": 0.0787,
      "velocity": 92,
      "chip": "ym2612"
    },
    {
      "channel": 0,
      "note": 78,
      "start": 7.9736,
      "duration": 0.0627,
      "velocity": 92,
      "chip": "ym2612"
    },
    {
      "channel": 1,
      "note": 78,
      "start": 8.1011,
      "duration": 0.0632,
      "velocity": 92,
      "chip": "ym2612"
    },
    {
      "channel": 0,
      "note": 77,
      "start": 8.1641,
      "duration": 0.0788,
      "velocity": 92,
      "chip": "ym2612"
    },
    {
      "channel": 1,
      "note": 77,
      "start": 8.2916,
      "duration": 0.0786,
      "velocity": 92,
      "chip": "ym2612"
    },
    {
      "channel": 0,
      "note": 78,
      "start": 8.3546,
      "duration": 0.0627,
      "velocity": 92,
      "chip": "ym2612"
    },
    {
      "channel": 1,
      "note": 78,
      "start": 8.4821,
      "duration": 0.0632,
      "velocity": 92,
      "chip": "ym2612"
    },
    {
      "channel": 0,
      "note": 73,
      "start": 8.5451,
      "duration": 0.0787,
      "velocity": 92,
      "chip": "ym2612"
    },
    {
      "channel": 1,
      "note": 73,
      "start": 8.6726,
      "duration": 0.0787,
      "velocity": 92,
      "chip": "ym2612"
    },
    {
      "channel": 0,
      "note": 78,
      "start": 8.7356,
      "duration": 0.0788,
      "velocity": 92,
      "chip": "ym2612"
    },
    {
      "channel": 2,
      "note": 62,
      "start": 8.7369,
      "duration": 0.7291,
      "velocity": 95,
      "chip": "ym2612"
    },
    {
      "channel": 4,
      "note": 66,
      "start": 8.7383,
      "duration": 0.7285,
      "velocity": 95,
      "chip": "ym2612"
    },
    {
      "channel": 1,
      "note": 78,
      "start": 8.863,
      "duration": 0.0788,
      "velocity": 92,
      "chip": "ym2612"
    },
    {
      "channel": 3,
      "note": 62,
      "start": 8.8644,
      "duration": 0.7291,
      "velocity": 95,
      "chip": "ym2612"
    },
    {
      "channel": 0,
      "note": 77,
      "start": 8.926,
      "duration": 0.0788,
      "velocity": 92,
      "chip": "ym2612"
    },
    {
      "channel": 1,
      "note": 77,
      "start": 9.0536,
      "duration": 0.0787,
      "velocity": 92,
      "chip": "ym2612"
    },
    {
      "channel": 0,
      "note": 78,
      "start": 9.1166,
      "duration": 0.0788,
      "velocity": 92,
      "chip": "ym2612"
    },
    {
      "channel": 1,
      "note": 78,
      "start": 9.244,
      "duration": 0.0788,
      "velocity": 92,
      "chip": "ym2612"
    },
    {
      "channel": 0,
      "note": 73,
      "start": 9.3071,
      "duration": 0.0788,
      "velocity": 92,
      "chip": "ym2612"
    },
    {
      "channel": 1,
      "note": 73,
      "start": 9.4346,
      "duration": 0.0788,
      "velocity": 92,
      "chip": "ym2612"
    },
    {
      "channel": 0,
      "note": 78,
      "start": 9.4975,
      "duration": 0.0788,
      "velocity": 92,
      "chip": "ym2612"
    },
    {
      "channel": 1,
      "note": 78,
      "start": 9.6251,
      "duration": 0.0788,
      "velocity": 92,
      "chip": "ym2612"
    },
    {
      "channel": 0,
      "note": 77,
      "start": 9.688,
      "duration": 0.0788,
      "velocity": 92,
      "chip": "ym2612"
    },
    {
      "channel": 1,
      "note": 77,
      "start": 9.8155,
      "duration": 0.0788,
      "velocity": 92,
      "chip": "ym2612"
    },
    {
      "channel": 0,
      "note": 78,
      "start": 9.8786,
      "duration": 0.0627,
      "velocity": 92,
      "chip": "ym2612"
    },
    {
      "channel": 1,
      "note": 78,
      "start": 10.0061,
      "duration": 0.0632,
      "velocity": 92,
      "chip": "ym2612"
    },
    {
      "channel": 0,
      "note": 73,
      "start": 10.0692,
      "duration": 0.0787,
      "velocity": 92,
      "chip": "ym2612"
    },
    {
      "channel": 1,
      "note": 73,
      "start": 10.1966,
      "duration": 0.0787,
      "velocity": 92,
      "chip": "ym2612"
    },
    {
      "channel": 0,
      "note": 78,
      "start": 10.2596,
      "duration": 0.0788,
      "velocity": 92,
      "chip": "ym2612"
    },
    {
      "channel": 2,
      "note": 64,
      "start": 10.2611,
      "duration": 0.348,
      "velocity": 95,
      "chip": "ym2612"
    },
    {
      "channel": 4,
      "note": 68,
      "start": 10.2625,
      "duration": 0.3473,
      "velocity": 95,
      "chip": "ym2612"
    },
    {
      "channel": 5,
      "note": 49,
      "start": 10.2634,
      "duration": 1.5062,
      "velocity": 107,
      "chip": "ym2612"
    },
    {
      "channel": 1,
      "note": 78,
      "start": 10.3872,
      "duration": 0.0786,
      "velocity": 92,
      "chip": "ym2612"
    },
    {
      "channel": 3,
      "note": 64,
      "start": 10.3886,
      "duration": 0.348,
      "velocity": 95,
      "chip": "ym2612"
    },
    {
      "channel": 0,
      "note": 77,
      "start": 10.4502,
      "duration": 0.0786,
      "velocity": 92,
      "chip": "ym2612"
    },
    {
      "channel": 1,
      "note": 77,
      "start": 10.5776,
      "duration": 0.0787,
      "velocity": 92,
      "chip": "ym2612"
    },
    {
      "channel": 0,
      "note": 78,
      "start": 10.6407,
      "duration": 0.0787,
      "velocity": 92,
      "chip": "ym2612"
    },
    {
      "channel": 1,
      "note": 78,
      "start": 10.7681,
      "duration": 0.0787,
      "velocity": 92,
      "chip": "ym2612"
    },
    {
      "channel": 0,
      "note": 73,
      "start": 10.8312,
      "duration": 0.0787,
      "velocity": 92,
      "chip": "ym2612"
    },
    {
      "channel": 1,
      "note": 73,
      "start": 10.9587,
      "duration": 0.0787,
      "velocity": 92,
      "chip": "ym2612"
    },
    {
      "channel": 0,
      "note": 78,
      "start": 11.0216,
      "duration": 0.0788,
      "velocity": 92,
      "chip": "ym2612"
    },
    {
      "channel": 2,
      "note": 64,
      "start": 11.0229,
      "duration": 0.3482,
      "velocity": 95,
      "chip": "ym2612"
    },
    {
      "channel": 4,
      "note": 68,
      "start": 11.0242,
      "duration": 0.3475,
      "velocity": 95,
      "chip": "ym2612"
    },
    {
      "channel": 1,
      "note": 78,
      "start": 11.149,
      "duration": 0.0788,
      "velocity": 92,
      "chip": "ym2612"
    },
    {
      "channel": 3,
      "note": 64,
      "start": 11.1505,
      "duration": 0.3482,
      "velocity": 95,
      "chip": "ym2612"
    },
    {
      "channel": 0,
      "note": 77,
      "start": 11.2121,
      "duration": 0.0788,
      "velocity": 92,
      "chip": "ym2612"
    },
    {
      "channel": 1,
      "note": 77,
      "start": 11.3396,
      "duration": 0.0788,
      "velocity": 92,
      "chip": "ym2612"
    },
    {
      "channel": 0,
      "note": 78,
      "start": 11.4027,
      "duration": 0.0787,
      "velocity": 92,
      "chip": "ym2612"
    },
    {
      "channel": 1,
      "note": 78,
      "start": 11.5302,
      "duration": 0.0787,
      "velocity": 92,
      "chip": "ym2612"
    },
    {
      "channel": 0,
      "note": 73,
      "start": 11.5932,
      "duration": 0.0788,
      "velocity": 92,
      "chip": "ym2612"
    },
    {
      "channel": 1,
      "note": 73,
      "start": 11.7207,
      "duration": 0.0787,
      "velocity": 92,
      "chip": "ym2612"
    },
    {
      "channel": 0,
      "note": 78,
      "start": 11.7836,
      "duration": 0.0788,
      "velocity": 92,
      "chip": "ym2612"
    },
    {
      "channel": 2,
      "note": 66,
      "start": 11.7849,
      "duration": 0.3482,
      "velocity": 95,
      "chip": "ym2612"
    },
    {
      "channel": 4,
      "note": 69,
      "start": 11.7863,
      "duration": 0.3475,
      "velocity": 95,
      "chip": "ym2612"
    },
    {
      "channel": 1,
      "note": 78,
      "start": 11.9111,
      "duration": 0.0788,
      "velocity": 92,
      "chip": "ym2612"
    },
    {
      "channel": 3,
      "note": 66,
      "start": 11.9124,
      "duration": 0.3482,
      "velocity": 95,
      "chip": "ym2612"
    },
    {
      "channel": 0,
      "note": 77,
      "start": 11.9741,
      "duration": 0.0788,
      "velocity": 92,
      "chip": "ym2612"
    },
    {
      "channel": 1,
      "note": 77,
      "start": 12.1016,
      "duration": 0.0788,
      "velocity": 92,
      "chip": "ym2612"
    },
    {
      "channel": 0,
      "note": 78,
      "start": 12.1646,
      "duration": 0.0788,
      "velocity": 92,
      "chip": "ym2612"
    },
    {
      "channel": 1,
      "note": 78,
      "start": 12.2921,
      "duration": 0.0788,
      "velocity": 92,
      "chip": "ym2612"
    },
    {
      "channel": 0,
      "note": 73,
      "start": 12.3551,
      "duration": 0.0788,
      "velocity": 92,
      "chip": "ym2612"
    },
    {
      "channel": 1,
      "note": 73,
      "start": 12.4826,
      "duration": 0.0788,
      "velocity": 92,
      "chip": "ym2612"
    },
    {
      "channel": 0,
      "note": 78,
      "start": 12.5456,
      "duration": 0.0788,
      "velocity": 92,
      "chip": "ym2612"
    },
    {
      "channel": 2,
      "note": 68,
      "start": 12.547,
      "duration": 0.3482,
      "velocity": 95,
      "chip": "ym2612"
    },
    {
      "channel": 4,
      "note": 71,
      "start": 12.5483,
      "duration": 0.3475,
      "velocity": 95,
      "chip": "ym2612"
    },
    {
      "channel": 1,
      "note": 78,
      "start": 12.6731,
      "duration": 0.0788,
      "velocity": 92,
      "chip": "ym2612"
    },
    {
      "channel": 3,
      "note": 68,
      "start": 12.6745,
      "duration": 0.3481,
      "velocity": 95,
      "chip": "ym2612"
    },
    {
      "channel": 0,
      "note": 77,
      "start": 12.7361,
      "duration": 0.0788,
      "velocity": 92,
      "chip": "ym2612"
    },
    {
      "channel": 1,
      "note": 77,
      "start": 12.8636,
      "duration": 0.0788,
      "velocity": 92,
      "chip": "ym2612"
    },
    {
      "channel": 0,
      "note": 78,
      "start": 12.9266,
      "duration": 0.0788,
      "velocity": 92,
      "chip": "ym2612"
    },
    {
      "channel": 1,
      "note": 78,
      "start": 13.0541,
      "duration": 0.0788,
      "velocity": 92,
      "chip": "ym2612"
    },
    {
      "channel": 0,
      "note": 80,
      "start": 13.1171,
      "duration": 0.0788,
      "velocity": 92,
      "chip": "ym2612"
    },
    {
      "channel": 1,
      "note": 80,
      "start": 13.2446,
      "duration": 0.0788,
      "velocity": 92,
      "chip": "ym2612"
    },
    {
      "channel": 0,
      "note": 81,
      "start": 13.3076,
      "duration": 0.0788,
      "velocity": 92,
      "chip": "ym2612"
    },
    {
      "channel": 2,
      "note": 69,
      "start": 13.3091,
      "duration": 1.1261,
      "velocity": 95,
      "chip": "ym2612"
    },
    {
      "channel": 4,
      "note": 73,
      "start": 13.3105,
      "duration": 1.1253,
      "velocity": 95,
      "chip": "ym2612"
    },
    {
      "channel": 5,
      "note": 57,
      "start": 13.3115,
      "duration": 0.2676,
      "velocity": 107,
      "chip": "ym2612"
    },
    {
      "channel": 1,
      "note": 81,
      "start": 13.4351,
      "duration": 0.0788,
      "velocity": 92,
      "chip": "ym2612"
    },
    {
      "channel": 3,
      "note": 69,
      "start": 13.4366,
      "duration": 1.1261,
      "velocity": 95,
      "chip": "ym2612"
    },
    {
      "channel": 0,
      "note": 80,
      "start": 13.4982,
      "duration": 0.0788,
      "velocity": 92,
      "chip": "ym2612"
    },
    {
      "channel": 1,
      "note": 80,
      "start": 13.6256,
      "duration": 0.0788,
      "velocity": 92,
      "chip": "ym2612"
    },
    {
      "channel": 0,
      "note": 81,
      "start": 13.6888,
      "duration": 0.0787,
      "velocity": 92,
      "chip": "ym2612"
    },
    {
      "channel": 1,
      "note": 81,
      "start": 13.8162,
      "duration": 0.0786,
      "velocity": 92,
      "chip": "ym2612"
    },
    {
      "channel": 0,
      "note": 76,
      "start": 13.8792,
      "duration": 0.0787,
      "velocity": 92,
      "chip": "ym2612"
    },
    {
      "channel": 5,
      "note": 57,
      "start": 13.8821,
      "duration": 0.0779,
      "velocity": 107,
      "chip": "ym2612"
    },
    {
      "channel": 1,
      "note": 76,
      "start": 14.0068,
      "duration": 0.0786,
      "velocity": 92,
      "chip": "ym2612"
    },
    {
      "channel": 0,
      "note": 81,
      "start": 14.0697,
      "duration": 0.0788,
      "velocity": 92,
      "chip": "ym2612"
    },
    {
      "channel": 1,
      "note": 81,
      "start": 14.1971,
      "duration": 0.0788,
      "velocity": 92,
      "chip": "ym2612"
    },
    {
      "channel": 0,
      "note": 80,
      "start": 14.2601,
      "duration": 0.0788,
      "velocity": 92,
      "chip": "ym2612"
    },
    {
      "channel": 5,
      "note": 57,
      "start": 14.2631,
      "duration": 0.1729,
      "velocity": 107,
      "chip": "ym2612"
    },
    {
      "channel": 1,
      "note": 80,
      "start": 14.3877,
      "duration": 0.0788,
      "velocity": 92,
      "chip": "ym2612"
    },
    {
      "channel": 0,
      "note": 81,
      "start": 14.4507,
      "duration": 0.0788,
      "velocity": 92,
      "chip": "ym2612"
    },
    {
      "channel": 1,
      "note": 81,
      "start": 14.5783,
      "duration": 0.0786,
      "velocity": 92,
      "chip": "ym2612"
    },
    {
      "channel": 0,
      "note": 76,
      "start": 14.6412,
      "duration": 0.0787,
      "velocity": 92,
      "chip": "ym2612"
    },
    {
      "channel": 5,
      "note": 57,
      "start": 14.6441,
      "duration": 0.1735,
      "velocity": 107,
      "chip": "ym2612"
    },
    {
      "channel": 1,
      "note": 76,
      "start": 14.7687,
      "duration": 0.0787,
      "velocity": 92,
      "chip": "ym2612"
    },
    {
      "channel": 0,
      "note": 81,
      "start": 14.8317,
      "duration": 0.0788,
      "velocity": 92,
      "chip": "ym2612"
    },
    {
      "channel": 1,
      "note": 81,
      "start": 14.9592,
      "duration": 0.0788,
      "velocity": 92,
      "chip": "ym2612"
    },
    {
      "channel": 0,
      "note": 80,
      "start": 15.0222,
      "duration": 0.0788,
      "velocity": 92,
      "chip": "ym2612"
    },
    {
      "channel": 5,
      "note": 57,
      "start": 15.0251,
      "duration": 0.0779,
      "velocity": 107,
      "chip": "ym2612"
    },
    {
      "channel": 1,
      "note": 80,
      "start": 15.1496,
      "duration": 0.0788,
      "velocity": 92,
      "chip": "ym2612"
    },
    {
      "channel": 0,
      "note": 81,
      "start": 15.2127,
      "duration": 0.0787,
      "velocity": 92,
      "chip": "ym2612"
    },
    {
      "channel": 5,
      "note": 57,
      "start": 15.2157,
      "duration": 0.1734,
      "velocity": 107,
      "chip": "ym2612"
    },
    {
      "channel": 1,
      "note": 81,
      "start": 15.3402,
      "duration": 0.0787,
      "velocity": 92,
      "chip": "ym2612"
    },
    {
      "channel": 0,
      "note": 76,
      "start": 15.4033,
      "duration": 0.0787,
      "velocity": 92,
      "chip": "ym2612"
    },
    {
      "channel": 1,
      "note": 76,
      "start": 15.5307,
      "duration": 0.0787,
      "velocity": 92,
      "chip": "ym2612"
    },
    {
      "channel": 0,
      "note": 81,
      "start": 15.5937,
      "duration": 0.0788,
      "velocity": 92,
      "chip": "ym2612"
    },
    {
      "channel": 2,
      "note": 71,
      "start": 15.5951,
      "duration": 0.1735,
      "velocity": 95,
      "chip": "ym2612"
    },
    {
      "channel": 4,
      "note": 76,
      "start": 15.5966,
      "duration": 0.1727,
      "velocity": 95,
      "chip": "ym2612"
    },
    {
      "channel": 5,
      "note": 57,
      "start": 15.5975,
      "duration": 0.077,
      "velocity": 107,
      "chip": "ym2612"
    },
    {
      "channel": 1,
      "note": 81,
      "start": 15.7212,
      "duration": 0.0788,
      "velocity": 92,
      "chip": "ym2612"
    },
    {
      "channel": 3,
      "note": 71,
      "start": 15.7227,
      "duration": 0.1735,
      "velocity": 95,
      "chip": "ym2612"
    },
    {
      "channel": 0,
      "note": 80,
      "start": 15.7842,
      "duration": 0.0788,
      "velocity": 92,
      "chip": "ym2612"
    },
    {
      "channel": 5,
      "note": 57,
      "start": 15.7871,
      "duration": 0.078,
      "velocity": 107,
      "chip": "ym2612"
    },
    {
      "channel": 1,
      "note": 80,
      "start": 15.9117,
      "duration": 0.0788,
      "velocity": 92,
      "chip": "ym2612"
    },
    {
      "channel": 0,
      "note": 81,
      "start": 15.9747,
      "duration": 0.0788,
      "velocity": 92,
      "chip": "ym2612"
    },
    {
      "channel": 2,
      "note": 69,
      "start": 15.976,
      "duration": 0.1737,
      "velocity": 95,
      "chip": "ym2612"
    },
    {
      "channel": 4,
      "note": 74,
      "start": 15.9774,
      "duration": 0.1729,
      "velocity": 95,
      "chip": "ym2612"
    },
    {
      "channel": 5,
      "note": 57,
      "start": 15.9784,
      "duration": 0.1721,
      "velocity": 107,
      "chip": "ym2612"
    },
    {
      "channel": 1,
      "note": 81,
      "start": 16.1022,
      "duration": 0.0788,
      "velocity": 92,
      "chip": "ym2612"
    },
    {
      "channel": 3,
      "note": 69,
      "start": 16.1036,
      "duration": 0.1736,
      "velocity": 95,
      "chip": "ym2612"
    },
    {
      "channel": 0,
      "note": 76,
      "start": 16.1652,
      "duration": 0.0788,
      "velocity": 92,
      "chip": "ym2612"
    },
    {
      "channel": 1,
      "note": 76,
      "start": 16.2927,
      "duration": 0.0788,
      "velocity": 92,
      "chip": "ym2612"
    },
    {
      "channel": 0,
      "note": 81,
      "start": 16.3557,
      "duration": 0.0788,
      "velocity": 92,
      "chip": "ym2612"
    },
    {
      "channel": 2,
      "note": 73,
      "start": 16.3571,
      "duration": 0.5385,
      "velocity": 95,
      "chip": "ym2612"
    },
    {
      "channel": 4,
      "note": 69,
      "start": 16.3586,
      "duration": 0.5378,
      "velocity": 95,
      "chip": "ym2612"
    },
    {
      "channel": 5,
      "note": 54,
      "start": 16.3595,
      "duration": 0.2676,
      "velocity": 107,
      "chip": "ym2612"
    },
    {
      "channel": 1,
      "note": 81,
      "start": 16.4832,
      "duration": 0.0788,
      "velocity": 92,
      "chip": "ym2612"
    },
    {
      "channel": 3,
      "note": 73,
      "start": 16.4847,
      "duration": 0.5385,
      "velocity": 95,
      "chip": "ym2612"
    },
    {
      "channel": 0,
      "note": 80,
      "start": 16.5462,
      "duration": 0.0788,
      "velocity": 92,
      "chip": "ym2612"
    },
    {
      "channel": 1,
      "note": 80,
      "start": 16.6737,
      "duration": 0.0788,
      "velocity": 92,
      "chip": "ym2612"
    },
    {
      "channel": 0,
      "note": 81,
      "start": 16.7368,
      "duration": 0.0787,
      "velocity": 92,
      "chip": "ym2612"
    },
    {
      "channel": 1,
      "note": 81,
      "start": 16.8643,
      "duration": 0.0788,
      "velocity": 92,
      "chip": "ym2612"
    },
    {
      "channel": 0,
      "note": 76,
      "start": 16.9273,
      "duration": 0.0787,
      "velocity": 92,
      "chip": "ym2612"
    },
    {
      "channel": 5,
      "note": 54,
      "start": 16.9302,
      "duration": 0.0779,
      "velocity": 107,
      "chip": "ym2612"
    },
    {
      "channel": 1,
      "note": 76,
      "start": 17.0548,
      "duration": 0.0787,
      "velocity": 92,
      "chip": "ym2612"
    },
    {
      "channel": 0,
      "note": 81,
      "start": 17.1178,
      "duration": 0.0788,
      "velocity": 92,
      "chip": "ym2612"
    },
    {
      "channel": 1,
      "note": 81,
      "start": 17.2452,
      "duration": 0.0788,
      "velocity": 92,
      "chip": "ym2612"
    },
    {
      "channel": 0,
      "note": 80,
      "start": 17.3082,
      "duration": 0.0788,
      "velocity": 92,
      "chip": "ym2612"
    },
    {
      "channel": 5,
      "note": 54,
      "start": 17.3111,
      "duration": 0.1736,
      "velocity": 107,
      "chip": "ym2612"
    },
    {
      "channel": 1,
      "note": 80,
      "start": 17.4357,
      "duration": 0.0788,
      "velocity": 92,
      "chip": "ym2612"
    },
    {
      "channel": 0,
      "note": 81,
      "start": 17.4988,
      "duration": 0.0787,
      "velocity": 92,
      "chip": "ym2612"
    },
    {
      "channel": 2,
      "note": 71,
      "start": 17.5002,
      "duration": 0.5385,
      "velocity": 95,
      "chip": "ym2612"
    },
    {
      "channel": 4,
      "note": 68,
      "start": 17.5015,
      "duration": 0.5379,
      "velocity": 95,
      "chip": "ym2612"
    },
    {
      "channel": 1,
      "note": 81,
      "start": 17.6263,
      "duration": 0.0787,
      "velocity": 92,
      "chip": "ym2612"
    },
    {
      "channel": 3,
      "note": 71,
      "start": 17.6277,
      "duration": 0.5385,
      "velocity": 95,
      "chip": "ym2612"
    },
    {
      "channel": 0,
      "note": 76,
      "start": 17.6893,
      "duration": 0.0787,
      "velocity": 92,
      "chip": "ym2612"
    },
    {
      "channel": 5,
      "note": 54,
      "start": 17.6922,
      "duration": 0.078,
      "velocity": 107,
      "chip": "ym2612"
    },
    {
      "channel": 1,
      "note": 76,
      "start": 17.8168,
      "duration": 0.0787,
      "velocity": 92,
      "chip": "ym2612"
    },
    {
      "channel": 0,
      "note": 81,
      "start": 17.8797,
      "duration": 0.0788,
      "velocity": 92,
      "chip": "ym2612"
    },
    {
      "channel": 5,
      "note": 54,
      "start": 17.8827,
      "duration": 0.1735,
      "velocity": 107,
      "chip": "ym2612"
    },
    {
      "channel": 1,
      "note": 81,
      "start": 18.0073,
      "duration": 0.0788,
      "velocity": 92,
      "chip": "ym2612"
    },
    {
      "channel": 0,
      "note": 80,
      "start": 18.0702,
      "duration": 0.0788,
      "velocity": 92,
      "chip": "ym2612"
    },
    {
      "channel": 1,
      "note": 80,
      "start": 18.1977,
      "duration": 0.0788,
      "velocity": 92,
      "chip": "ym2612"
    },
    {
      "channel": 0,
      "note": 81,
      "start": 18.2608,
      "duration": 0.0787,
      "velocity": 92,
      "chip": "ym2612"
    },
    {
      "channel": 5,
      "note": 54,
      "start": 18.2637,
      "duration": 0.1735,
      "velocity": 107,
      "chip": "ym2612"
    },
    {
      "channel": 1,
      "note": 81,
      "start": 18.3883,
      "duration": 0.0788,
      "velocity": 92,
      "chip": "ym2612"
    },
    {
      "channel": 0,
      "note": 76,
      "start": 18.4513,
      "duration": 0.0787,
      "velocity": 92,
      "chip": "ym2612"
    },
    {
      "channel": 1,
      "note": 76,
      "start": 18.5788,
      "duration": 0.0787,
      "velocity": 92,
      "chip": "ym2612"
    },
    {
      "channel": 0,
      "note": 81,
      "start": 18.6417,
      "duration": 0.0788,
      "velocity": 92,
      "chip": "ym2612"
    },
    {
      "channel": 2,
      "note": 69,
      "start": 18.6432,
      "duration": 0.3481,
      "velocity": 95,
      "chip": "ym2612"
    },
    {
      "channel": 4,
      "note": 66,
      "start": 18.6446,
      "duration": 0.3473,
      "velocity": 95,
      "chip": "ym2612"
    },
    {
      "channel": 5,
      "note": 54,
      "start": 18.6456,
      "duration": 0.0771,
      "velocity": 107,
      "chip": "ym2612"
    },
    {
      "channel": 1,
      "note": 81,
      "start": 18.7692,
      "duration": 0.0788,
      "velocity": 92,
      "chip": "ym2612"
    },
    {
      "channel": 3,
      "note": 69,
      "start": 18.7707,
      "duration": 0.3481,
      "velocity": 95,
      "chip": "ym2612"
    },
    {
      "channel": 0,
      "note": 80,
      "start": 18.8323,
      "duration": 0.0788,
      "velocity": 92,
      "chip": "ym2612"
    },
    {
      "channel": 5,
      "note": 54,
      "start": 18.8351,
      "duration": 0.0781,
      "velocity": 107,
      "chip": "ym2612"
    },
    {
      "channel": 1,
      "note": 80,
      "start": 18.9598,
      "duration": 0.0788,
      "velocity": 92,
      "chip": "ym2612"
    },
    {
      "channel": 0,
      "note": 81,
      "start": 19.0228,
      "duration": 0.0788,
      "velocity": 92,
      "chip": "ym2612"
    },
    {
      "channel": 5,
      "note": 54,
      "start": 19.0256,
      "duration": 0.1735,
      "velocity": 107,
      "chip": "ym2612"
    },
    {
      "channel": 1,
      "note": 81,
      "start": 19.1503,
      "duration": 0.0788,
      "velocity": 92,
      "chip": "ym2612"
    },
    {
      "channel": 0,
      "note": 76,
      "start": 19.2132,
      "duration": 0.0788,
      "velocity": 92,
      "chip": "ym2612"
    },
    {
      "channel": 1,
      "note": 76,
      "start": 19.3407,
      "duration": 0.0788,
      "velocity": 92,
      "chip": "ym2612"
    },
    {
      "channel": 0,
      "note": 78,
      "start": 19.4038,
      "duration": 0.0627,
      "velocity": 92,
      "chip": "ym2612"
    },
    {
      "channel": 2,
      "note": 66,
      "start": 19.4052,
      "duration": 0.3481,
      "velocity": 95,
      "chip": "ym2612"
    },
    {
      "channel": 4,
      "note": 62,
      "start": 19.4065,
      "duration": 0.3474,
      "velocity": 95,
      "chip": "ym2612"
    },
    {
      "channel": 5,
      "note": 50,
      "start": 19.4075,
      "duration": 0.0775,
      "velocity": 107,
      "chip": "ym2612"
    },
    {
      "channel": 1,
      "note": 78,
      "start": 19.5314,
      "duration": 0.0632,
      "velocity": 92,
      "chip": "ym2612"
    },
    {
      "channel": 3,
      "note": 66,
      "start": 19.5327,
      "duration": 0.3481,
      "velocity": 95,
      "chip": "ym2612"
    },
    {
      "channel": 0,
      "note": 77,
      "start": 19.5944,
      "duration": 0.0787,
      "velocity": 92,
      "chip": "ym2612"
    },
    {
      "channel": 5,
      "note": 50,
      "start": 19.5968,
      "duration": 0.0784,
      "velocity": 107,
      "chip": "ym2612"
    },
    {
      "channel": 1,
      "note": 77,
      "start": 19.7218,
      "duration": 0.0787,
      "velocity": 92,
      "chip": "ym2612"
    },
    {
      "channel": 0,
      "note": 78,
      "start": 19.7849,
      "duration": 0.0627,
      "velocity": 92,
      "chip": "ym2612"
    },
    {
      "channel": 5,
      "note": 50,
      "start": 19.7877,
      "duration": 0.1735,
      "velocity": 107,
      "chip": "ym2612"
    },
    {
      "channel": 1,
      "note": 78,
      "start": 19.9124,
      "duration": 0.0632,
      "velocity": 92,
      "chip": "ym2612"
    },
    {
      "channel": 0,
      "note": 73,
      "start": 19.9754,
      "duration": 0.0787,
      "velocity": 92,
      "chip": "ym2612"
    },
    {
      "channel": 1,
      "note": 73,
      "start": 20.1029,
      "duration": 0.0787,
      "velocity": 92,
      "chip": "ym2612"
    },
    {
      "channel": 0,
      "note": 78,
      "start": 20.1659,
      "duration": 0.0627,
      "velocity": 92,
      "chip": "ym2612"
    },
    {
      "channel": 2,
      "note": 69,
      "start": 20.1673,
      "duration": 0.348,
      "velocity": 95,
      "chip": "ym2612"
    },
    {
      "channel": 4,
      "note": 66,
      "start": 20.1686,
      "duration": 0.3474,
      "velocity": 95,
      "chip": "ym2612"
    },
    {
      "channel": 5,
      "note": 50,
      "start": 20.1695,
      "duration": 0.0775,
      "velocity": 107,
      "chip": "ym2612"
    },
    {
      "channel": 1,
      "note": 78,
      "start": 20.2933,
      "duration": 0.0632,
      "velocity": 92,
      "chip": "ym2612"
    },
    {
      "channel": 3,
      "note": 69,
      "start": 20.2947,
      "duration": 0.3481,
      "velocity": 95,
      "chip": "ym2612"
    },
    {
      "channel": 0,
      "note": 77,
      "start": 20.3564,
      "duration": 0.0787,
      "velocity": 92,
      "chip": "ym2612"
    },
    {
      "channel": 5,
      "note": 50,
      "start": 20.3588,
      "duration": 0.0784,
      "velocity": 107,
      "chip": "ym2612"
    },
    {
      "channel": 1,
      "note": 77,
      "start": 20.4839,
      "duration": 0.0787,
      "velocity": 92,
      "chip": "ym2612"
    },
    {
      "channel": 0,
      "note": 78,
      "start": 20.5469,
      "duration": 0.0627,
      "velocity": 92,
      "chip": "ym2612"
    },
    {
      "channel": 5,
      "note": 50,
      "start": 20.5498,
      "duration": 0.1735,
      "velocity": 107,
      "chip": "ym2612"
    },
    {
      "channel": 1,
      "note": 78,
      "start": 20.6744,
      "duration": 0.0632,
      "velocity": 92,
      "chip": "ym2612"
    },
    {
      "channel": 0,
      "note": 73,
      "start": 20.7374,
      "duration": 0.0786,
      "velocity": 92,
      "chip": "ym2612"
    },
    {
      "channel": 1,
      "note": 73,
      "start": 20.8649,
      "duration": 0.0787,
      "velocity": 92,
      "chip": "ym2612"
    },
    {
      "channel": 0,
      "note": 80,
      "start": 20.9278,
      "duration": 0.0788,
      "velocity": 92,
      "chip": "ym2612"
    },
    {
      "channel": 2,
      "note": 68,
      "start": 20.9291,
      "duration": 0.3482,
      "velocity": 95,
      "chip": "ym2612"
    },
    {
      "channel": 4,
      "note": 64,
      "start": 20.9305,
      "duration": 0.3475,
      "velocity": 95,
      "chip": "ym2612"
    },
    {
      "channel": 5,
      "note": 52,
      "start": 20.9313,
      "duration": 0.173,
      "velocity": 107,
      "chip": "ym2612"
    },
    {
      "channel": 1,
      "note": 80,
      "start": 21.0553,
      "duration": 0.0788,
      "velocity": 92,
      "chip": "ym2612"
    },
    {
      "channel": 3,
      "note": 68,
      "start": 21.0566,
      "duration": 0.3482,
      "velocity": 95,
      "chip": "ym2612"
    },
    {
      "channel": 0,
      "note": 79,
      "start": 21.1183,
      "duration": 0.0788,
      "velocity": 92,
      "chip": "ym2612"
    },
    {
      "channel": 1,
      "note": 79,
      "start": 21.2458,
      "duration": 0.0788,
      "velocity": 92,
      "chip": "ym2612"
    },
    {
      "channel": 0,
      "note": 80,
      "start": 21.3088,
      "duration": 0.0788,
      "velocity": 92,
      "chip": "ym2612"
    },
    {
      "channel": 5,
      "note": 52,
      "start": 21.3117,
      "duration": 0.1737,
      "velocity": 107,
      "chip": "ym2612"
    },
    {
      "channel": 1,
      "note": 80,
      "start": 21.4363,
      "duration": 0.0788,
      "velocity": 92,
      "chip": "ym2612"
    },
    {
      "channel": 0,
      "note": 71,
      "start": 21.4993,
      "duration": 0.0788,
      "velocity": 92,
      "chip": "ym2612"
    },
    {
      "channel": 1,
      "note": 71,
      "start": 21.6268,
      "duration": 0.0788,
      "velocity": 92,
      "chip": "ym2612"
    },
    {
      "channel": 0,
      "note": 80,
      "start": 21.6898,
      "duration": 0.0788,
      "velocity": 92,
      "chip": "ym2612"
    },
    {
      "channel": 2,
      "note": 71,
      "start": 21.6912,
      "duration": 0.3481,
      "velocity": 95,
      "chip": "ym2612"
    },
    {
      "channel": 4,
      "note": 68,
      "start": 21.6925,
      "duration": 0.3475,
      "velocity": 95,
      "chip": "ym2612"
    },
    {
      "channel": 5,
      "note": 56,
      "start": 21.6934,
      "duration": 0.173,
      "velocity": 107,
      "chip": "ym2612"
    },
    {
      "channel": 1,
      "note": 80,
      "start": 21.8173,
      "duration": 0.0788,
      "velocity": 92,
      "chip": "ym2612"
    },
    {
      "channel": 3,
      "note": 71,
      "start": 21.8187,
      "duration": 0.3482,
      "velocity": 95,
      "chip": "ym2612"
    },
    {
      "channel": 0,
      "note": 79,
      "start": 21.8803,
      "duration": 0.0788,
      "velocity": 92,
      "chip": "ym2612"
    },
    {
      "channel": 1,
      "note": 79,
      "start": 22.0078,
      "duration": 0.0788,
      "velocity": 92,
      "chip": "ym2612"
    },
    {
      "channel": 0,
      "note": 80,
      "start": 22.0709,
      "duration": 0.0627,
      "velocity": 92,
      "chip": "ym2612"
    },
    {
      "channel": 5,
      "note": 52,
      "start": 22.0737,
      "duration": 0.1735,
      "velocity": 107,
      "chip": "ym2612"
    },
    {
      "channel": 1,
      "note": 80,
      "start": 22.1984,
      "duration": 0.0632,
      "velocity": 92,
      "chip": "ym2612"
    },
    {
      "channel": 0,
      "note": 71,
      "start": 22.2614,
      "duration": 0.0787,
      "velocity": 92,
      "chip": "ym2612"
    },
    {
      "channel": 1,
      "note": 71,
      "start": 22.3889,
      "duration": 0.0787,
      "velocity": 92,
      "chip": "ym2612"
    },
    {
      "channel": 0,
      "note": 81,
      "start": 22.4519,
      "duration": 0.0788,
      "velocity": 92,
      "chip": "ym2612"
    },
    {
      "channel": 2,
      "note": 69,
      "start": 22.4533,
      "duration": 1.5071,
      "velocity": 95,
      "chip": "ym2612"
    },
    {
      "channel": 4,
      "note": 64,
      "start": 22.4547,
      "duration": 1.5063,
      "velocity": 95,
      "chip": "ym2612"
    },
    {
      "channel": 5,
      "note": 45,
      "start": 22.4557,
      "duration": 0.3471,
      "velocity": 107,
      "chip": "ym2612"
    },
    {
      "channel": 1,
      "note": 81,
      "start": 22.5793,
      "duration": 0.0788,
      "velocity": 92,
      "chip": "ym2612"
    },
    {
      "channel": 3,
      "note": 69,
      "start": 22.5808,
      "duration": 1.5071,
      "velocity": 95,
      "chip": "ym2612"
    },
    {
      "channel": 0,
      "note": 80,
      "start": 22.6423,
      "duration": 0.0788,
      "velocity": 92,
      "chip": "ym2612"
    },
    {
      "channel": 1,
      "note": 80,
      "start": 22.7699,
      "duration": 0.0788,
      "velocity": 92,
      "chip": "ym2612"
    },
    {
      "channel": 0,
      "note": 81,
      "start": 22.833,
      "duration": 0.0787,
      "velocity": 92,
      "chip": "ym2612"
    },
    {
      "channel": 1,
      "note": 81,
      "start": 22.9604,
      "duration": 0.0787,
      "velocity": 92,
      "chip": "ym2612"
    },
    {
      "channel": 0,
      "note": 76,
      "start": 23.0234,
      "duration": 0.0787,
      "velocity": 92,
      "chip": "ym2612"
    },
    {
      "channel": 1,
      "note": 76,
      "start": 23.151,
      "duration": 0.0786,
      "velocity": 92,
      "chip": "ym2612"
    },
    {
      "channel": 0,
      "note": 81,
      "start": 23.2139,
      "duration": 0.0788,
      "velocity": 92,
      "chip": "ym2612"
    },
    {
      "channel": 5,
      "note": 45,
      "start": 23.2167,
      "duration": 0.3482,
      "velocity": 107,
      "chip": "ym2612"
    },
    {
      "channel": 1,
      "note": 81,
      "start": 23.3414,
      "duration": 0.0788,
      "velocity": 92,
      "chip": "ym2612"
    },
    {
      "channel": 0,
      "note": 80,
      "start": 23.4044,
      "duration": 0.0788,
      "velocity": 92,
      "chip": "ym2612"
    },
    {
      "channel": 1,
      "note": 80,
      "start": 23.5319,
      "duration": 0.0787,
      "velocity": 92,
      "chip": "ym2612"
    },
    {
      "channel": 0,
      "note": 81,
      "start": 23.5949,
      "duration": 0.0787,
      "velocity": 92,
      "chip": "ym2612"
    },
    {
      "channel": 1,
      "note": 81,
      "start": 23.7224,
      "duration": 0.0788,
      "velocity": 92,
      "chip": "ym2612"
    },
    {
      "channel": 0,
      "note": 76,
      "start": 23.7854,
      "duration": 0.0787,
      "velocity": 92,
      "chip": "ym2612"
    },
    {
      "channel": 1,
      "note": 76,
      "start": 23.9129,
      "duration": 0.0787,
      "velocity": 92,
      "chip": "ym2612"
    },
    {
      "channel": 0,
      "note": 81,
      "start": 23.9759,
      "duration": 0.0788,
      "velocity": 92,
      "chip": "ym2612"
    },
    {
      "channel": 5,
      "note": 45,
      "start": 23.9788,
      "duration": 0.1735,
      "velocity": 107,
      "chip": "ym2612"
    },
    {
      "channel": 1,
      "note": 81,
      "start": 24.1034,
      "duration": 0.0788,
      "velocity": 92,
      "chip": "ym2612"
    },
    {
      "channel": 0,
      "note": 80,
      "start": 24.1664,
      "duration": 0.0788,
      "velocity": 92,
      "chip": "ym2612"
    },
    {
      "channel": 1,
      "note": 80,
      "start": 24.2939,
      "duration": 0.0788,
      "velocity": 92,
      "chip": "ym2612"
    },
    {
      "channel": 0,
      "note": 81,
      "start": 24.3569,
      "duration": 0.0788,
      "velocity": 92,
      "chip": "ym2612"
    },
    {
      "channel": 5,
      "note": 45,
      "start": 24.3598,
      "duration": 0.1735,
      "velocity": 107,
      "chip": "ym2612"
    },
    {
      "channel": 1,
      "note": 81,
      "start": 24.4845,
      "duration": 0.0786,
      "velocity": 92,
      "chip": "ym2612"
    },
    {
      "channel": 0,
      "note": 76,
      "start": 24.5475,
      "duration": 0.0787,
      "velocity": 92,
      "chip": "ym2612"
    },
    {
      "channel": 1,
      "note": 76,
      "start": 24.6749,
      "duration": 0.0787,
      "velocity": 92,
      "chip": "ym2612"
    },
    {
      "channel": 0,
      "note": 81,
      "start": 24.7379,
      "duration": 0.0788,
      "velocity": 92,
      "chip": "ym2612"
    },
    {
      "channel": 5,
      "note": 49,
      "start": 24.7407,
      "duration": 0.1736,
      "velocity": 107,
      "chip": "ym2612"
    },
    {
      "channel": 1,
      "note": 81,
      "start": 24.8654,
      "duration": 0.0788,
      "velocity": 92,
      "chip": "ym2612"
    },
    {
      "channel": 0,
      "note": 80,
      "start": 24.9284,
      "duration": 0.0788,
      "velocity": 92,
      "chip": "ym2612"
    },
    {
      "channel": 1,
      "note": 80,
      "start": 25.0559,
      "duration": 0.0788,
      "velocity": 92,
      "chip": "ym2612"
    },
    {
      "channel": 0,
      "note": 81,
      "start": 25.1189,
      "duration": 0.0788,
      "velocity": 92,
      "chip": "ym2612"
    },
    {
      "channel": 5,
      "note": 52,
      "start": 25.1217,
      "duration": 0.1737,
      "velocity": 107,
      "chip": "ym2612"
    },
    {
      "channel": 1,
      "note": 81,
      "start": 25.2464,
      "duration": 0.0788,
      "velocity": 92,
      "chip": "ym2612"
    },
    {
      "channel": 0,
      "note": 76,
      "start": 25.3094,
      "duration": 0.0788,
      "velocity": 92,
      "chip": "ym2612"
    },
    {
      "channel": 1,
      "note": 76,
      "start": 25.4369,
      "duration": 0.0788,
      "velocity": 92,
      "chip": "ym2612"
    },
    {
      "channel": 0,
      "note": 81,
      "start": 25.5,
      "duration": 0.0788,
      "velocity": 92,
      "chip": "ym2612"
    },
    {
      "channel": 2,
      "note": 69,
      "start": 25.5013,
      "duration": 1.1261,
      "velocity": 95,
      "chip": "ym2612"
    },
    {
      "channel": 4,
      "note": 64,
      "start": 25.5028,
      "duration": 1.1253,
      "velocity": 95,
      "chip": "ym2612"
    },
    {
      "channel": 5,
      "note": 45,
      "start": 25.5036,
      "duration": 0.1728,
      "velocity": 107,
      "chip": "ym2612"
    },
    {
      "channel": 1,
      "note": 81,
      "start": 25.6274,
      "duration": 0.0788,
      "velocity": 92,
      "chip": "ym2612"
    },
    {
      "channel": 3,
      "note": 69,
      "start": 25.6288,
      "duration": 1.1261,
      "velocity": 95,
      "chip": "ym2612"
    },
    {
      "channel": 0,
      "note": 80,
      "start": 25.6904,
      "duration": 0.0788,
      "velocity": 92,
      "chip": "ym2612"
    },
    {
      "channel": 1,
      "note": 80,
      "start": 25.8179,
      "duration": 0.0788,
      "velocity": 92,
      "chip": "ym2612"
    },
    {
      "channel": 0,
      "note": 81,
      "start": 25.881,
      "duration": 0.0787,
      "velocity": 92,
      "chip": "ym2612"
    },
    {
      "channel": 5,
      "note": 57,
      "start": 25.8839,
      "duration": 0.1735,
      "velocity": 107,
      "chip": "ym2612"
    },
    {
      "channel": 1,
      "note": 81,
      "start": 26.0085,
      "duration": 0.0787,
      "velocity": 92,
      "chip": "ym2612"
    },
    {
      "channel": 0,
      "note": 76,
      "start": 26.0715,
      "duration": 0.0787,
      "velocity": 92,
      "chip": "ym2612"
    },
    {
      "channel": 1,
      "note": 76,
      "start": 26.199,
      "duration": 0.0787,
      "velocity": 92,
      "chip": "ym2612"
    },
    {
      "channel": 0,
      "note": 81,
      "start": 26.262,
      "duration": 0.0788,
      "velocity": 92,
      "chip": "ym2612"
    },
    {
      "channel": 5,
      "note": 45,
      "start": 26.2648,
      "duration": 0.078,
      "velocity": 107,
      "chip": "ym2612"
    },
    {
      "channel": 1,
      "note": 81,
      "start": 26.3895,
      "duration": 0.0788,
      "velocity": 92,
      "chip": "ym2612"
    },
    {
      "channel": 0,
      "note": 80,
      "start": 26.4524,
      "duration": 0.0788,
      "velocity": 92,
      "chip": "ym2612"
    },
    {
      "channel": 5,
      "note": 57,
      "start": 26.4554,
      "duration": 0.2685,
      "velocity": 107,
      "chip": "ym2612"
    },
    {
      "channel": 1,
      "note": 80,
      "start": 26.5799,
      "duration": 0.0788,
      "velocity": 92,
      "chip": "ym2612"
    },
    {
      "channel": 0,
      "note": 81,
      "start": 26.643,
      "duration": 0.0787,
      "velocity": 92,
      "chip": "ym2612"
    },
    {
      "channel": 1,
      "note": 81,
      "start": 26.7705,
      "duration": 0.0787,
      "velocity": 92,
      "chip": "ym2612"
    },
    {
      "channel": 0,
      "note": 76,
      "start": 26.8335,
      "duration": 0.0787,
      "velocity": 92,
      "chip": "ym2612"
    },
    {
      "channel": 1,
      "note": 76,
      "start": 26.961,
      "duration": 0.0787,
      "velocity": 92,
      "chip": "ym2612"
    },
    {
      "channel": 0,
      "note": 81,
      "start": 27.0239,
      "duration": 0.0788,
      "velocity": 92,
      "chip": "ym2612"
    },
    {
      "channel": 5,
      "note": 45,
      "start": 27.0268,
      "duration": 0.1736,
      "velocity": 107,
      "chip": "ym2612"
    },
    {
      "channel": 1,
      "note": 81,
      "start": 27.1514,
      "duration": 0.0788,
      "velocity": 92,
      "chip": "ym2612"
    },
    {
      "channel": 0,
      "note": 80,
      "start": 27.2144,
      "duration": 0.0788,
      "velocity": 92,
      "chip": "ym2612"
    },
    {
      "channel": 1,
      "note": 80,
      "start": 27.3419,
      "duration": 0.0788,
      "velocity": 92,
      "chip": "ym2612"
    },
    {
      "channel": 0,
      "note": 81,
      "start": 27.405,
      "duration": 0.0787,
      "velocity": 92,
      "chip": "ym2612"
    },
    {
      "channel": 5,
      "note": 45,
      "start": 27.4079,
      "duration": 0.1735,
      "velocity": 107,
      "chip": "ym2612"
    },
    {
      "channel": 1,
      "note": 81,
      "start": 27.5325,
      "duration": 0.0787,
      "velocity": 92,
      "chip": "ym2612"
    },
    {
      "channel": 0,
      "note": 76,
      "start": 27.5956,
      "duration": 0.0787,
      "velocity": 92,
      "chip": "ym2612"
    },
    {
      "channel": 1,
      "note": 76,
      "start": 27.723,
      "duration": 0.0787,
      "velocity": 92,
      "chip": "ym2612"
    },
    {
      "channel": 0,
      "note": 81,
      "start": 27.786,
      "duration": 0.0788,
      "velocity": 92,
      "chip": "ym2612"
    },
    {
      "channel": 2,
      "note": 68,
      "start": 27.7874,
      "duration": 0.3481,
      "velocity": 95,
      "chip": "ym2612"
    },
    {
      "channel": 4,
      "note": 64,
      "start": 27.7888,
      "duration": 0.3473,
      "velocity": 95,
      "chip": "ym2612"
    },
    {
      "channel": 5,
      "note": 45,
      "start": 27.7896,
      "duration": 0.1728,
      "velocity": 107,
      "chip": "ym2612"
    },
    {
      "channel": 1,
      "note": 81,
      "start": 27.9134,
      "duration": 0.0788,
      "velocity": 92,
      "chip": "ym2612"
    },
    {
      "channel": 3,
      "note": 68,
      "start": 27.9149,
      "duration": 0.3481,
      "velocity": 95,
      "chip": "ym2612"
    },
    {
      "channel": 0,
      "note": 80,
      "start": 27.9765,
      "duration": 0.0788,
      "velocity": 92,
      "chip": "ym2612"
    },
    {
      "channel": 1,
      "note": 80,
      "start": 28.1039,
      "duration": 0.0788,
      "velocity": 92,
      "chip": "ym2612"
    },
    {
      "channel": 0,
      "note": 81,
      "start": 28.167,
      "duration": 0.0788,
      "velocity": 92,
      "chip": "ym2612"
    },
    {
      "channel": 5,
      "note": 57,
      "start": 28.1699,
      "duration": 0.078,
      "velocity": 107,
      "chip": "ym2612"
    },
    {
      "channel": 1,
      "note": 81,
      "start": 28.2945,
      "duration": 0.0788,
      "velocity": 92,
      "chip": "ym2612"
    },
    {
      "channel": 0,
      "note": 76,
      "start": 28.3575,
      "duration": 0.0788,
      "velocity": 92,
      "chip": "ym2612"
    },
    {
      "channel": 5,
      "note": 45,
      "start": 28.3602,
      "duration": 0.078,
      "velocity": 107,
      "chip": "ym2612"
    },
    {
      "channel": 1,
      "note": 76,
      "start": 28.4849,
      "duration": 0.0788,
      "velocity": 92,
      "chip": "ym2612"
    },
    {
      "channel": 0,
      "note": 81,
      "start": 28.548,
      "duration": 0.0788,
      "velocity": 92,
      "chip": "ym2612"
    },
    {
      "channel": 2,
      "note": 66,
      "start": 28.5494,
      "duration": 0.7291,
      "velocity": 95,
      "chip": "ym2612"
    },
    {
      "channel": 4,
      "note": 61,
      "start": 28.5508,
      "duration": 0.7284,
      "velocity": 95,
      "chip": "ym2612"
    },
    {
      "channel": 5,
      "note": 54,
      "start": 28.5517,
      "duration": 0.0772,
      "velocity": 107,
      "chip": "ym2612"
    },
    {
      "channel": 1,
      "note": 81,
      "start": 28.6755,
      "duration": 0.0788,
      "velocity": 92,
      "chip": "ym2612"
    },
    {
      "channel": 3,
      "note": 66,
      "start": 28.6769,
      "duration": 0.7291,
      "velocity": 95,
      "chip": "ym2612"
    },
    {
      "channel": 0,
      "note": 80,
      "start": 28.7385,
      "duration": 0.0788,
      "velocity": 92,
      "chip": "ym2612"
    },
    {
      "channel": 5,
      "note": 54,
      "start": 28.7413,
      "duration": 0.0781,
      "velocity": 107,
      "chip": "ym2612"
    },
    {
      "channel": 1,
      "note": 80,
      "start": 28.866,
      "duration": 0.0788,
      "velocity": 92,
      "chip": "ym2612"
    },
    {
      "channel": 0,
      "note": 81,
      "start": 28.9291,
      "duration": 0.0787,
      "velocity": 92,
      "chip": "ym2612"
    },
    {
      "channel": 5,
      "note": 54,
      "start": 28.932,
      "duration": 0.078,
      "velocity": 107,
      "chip": "ym2612"
    },
    {
      "channel": 1,
      "note": 81,
      "start": 29.0566,
      "duration": 0.0787,
      "velocity": 92,
      "chip": "ym2612"
    },
    {
      "channel": 0,
      "note": 76,
      "start": 29.1195,
      "duration": 0.0788,
      "velocity": 92,
      "chip": "ym2612"
    },
    {
      "channel": 5,
      "note": 54,
      "start": 29.1223,
      "duration": 0.078,
      "velocity": 107,
      "chip": "ym2612"
    },
    {
      "channel": 1,
      "note": 76,
      "start": 29.247,
      "duration": 0.0788,
      "velocity": 92,
      "chip": "ym2612"
    },
    {
      "channel": 0,
      "note": 81,
      "start": 29.31,
      "duration": 0.0788,
      "velocity": 92,
      "chip": "ym2612"
    },
    {
      "channel": 5,
      "note": 54,
      "start": 29.313,
      "duration": 0.1734,
      "velocity": 107,
      "chip": "ym2612"
    },
    {
      "channel": 1,
      "note": 81,
      "start": 29.4375,
      "duration": 0.0788,
      "velocity": 92,
      "chip": "ym2612"
    },
    {
      "channel": 0,
      "note": 80,
      "start": 29.5005,
      "duration": 0.0788,
      "velocity": 92,
      "chip": "ym2612"
    },
    {
      "channel": 1,
      "note": 80,
      "start": 29.628,
      "duration": 0.0788,
      "velocity": 92,
      "chip": "ym2612"
    },
    {
      "channel": 0,
      "note": 81,
      "start": 29.6911,
      "duration": 0.0787,
      "velocity": 92,
      "chip": "ym2612"
    },
    {
      "channel": 5,
      "note": 54,
      "start": 29.694,
      "duration": 0.0779,
      "velocity": 107,
      "chip": "ym2612"
    },
    {
      "channel": 1,
      "note": 81,
      "start": 29.8186,
      "duration": 0.0787,
      "velocity": 92,
      "chip": "ym2612"
    },
    {
      "channel": 0,
      "note": 76,
      "start": 29.8816,
      "duration": 0.0788,
      "velocity": 92,
      "chip": "ym2612"
    },
    {
      "channel": 5,
      "note": 49,
      "start": 29.8845,
      "duration": 0.0779,
      "velocity": 107,
      "chip": "ym2612"
    },
    {
      "channel": 1,
      "note": 76,
      "start": 30.009,
      "duration": 0.0788,
      "velocity": 92,
      "chip": "ym2612"
    },
    {
      "channel": 0,
      "note": 81,
      "start": 30.072,
      "duration": 0.0788,
      "velocity": 92,
      "chip": "ym2612"
    },
    {
      "channel": 2,
      "note": 66,
      "start": 30.0734,
      "duration": 0.3481,
      "velocity": 95,
      "chip": "ym2612"
    },
    {
      "channel": 4,
      "note": 61,
      "start": 30.0749,
      "duration": 0.3473,
      "velocity": 95,
      "chip": "ym2612"
    },
    {
      "channel": 5,
      "note": 54,
      "start": 30.0757,
      "duration": 0.0772,
      "velocity": 107,
      "chip": "ym2612"
    },
    {
      "channel": 1,
      "note": 81,
      "start": 30.1995,
      "duration": 0.0788,
      "velocity": 92,
      "chip": "ym2612"
    },
    {
      "channel": 3,
      "note": 66,
      "start": 30.201,
      "duration": 0.3481,
      "velocity": 95,
      "chip": "ym2612"
    },
    {
      "channel": 0,
      "note": 80,
      "start": 30.2625,
      "duration": 0.0788,
      "velocity": 92,
      "chip": "ym2612"
    },
    {
      "channel": 5,
      "note": 54,
      "start": 30.2653,
      "duration": 0.0782,
      "velocity": 107,
      "chip": "ym2612"
    },
    {
      "channel": 1,
      "note": 80,
      "start": 30.39,
      "duration": 0.0788,
      "velocity": 92,
      "chip": "ym2612"
    },
    {
      "channel": 0,
      "note": 81,
      "start": 30.4531,
      "duration": 0.0788,
      "velocity": 92,
      "chip": "ym2612"
    },
    {
      "channel": 5,
      "note": 54,
      "start": 30.4559,
      "duration": 0.1735,
      "velocity": 107,
      "chip": "ym2612"
    },
    {
      "channel": 1,
      "note": 81,
      "start": 30.5806,
      "duration": 0.0787,
      "velocity": 92,
      "chip": "ym2612"
    },
    {
      "channel": 0,
      "note": 76,
      "start": 30.6436,
      "duration": 0.0788,
      "velocity": 92,
      "chip": "ym2612"
    },
    {
      "channel": 1,
      "note": 76,
      "start": 30.7711,
      "duration": 0.0788,
      "velocity": 92,
      "chip": "ym2612"
    },
    {
      "channel": 0,
      "note": 81,
      "start": 30.834,
      "duration": 0.0788,
      "velocity": 92,
      "chip": "ym2612"
    },
    {
      "channel": 2,
      "note": 64,
      "start": 30.8354,
      "duration": 0.3482,
      "velocity": 95,
      "chip": "ym2612"
    },
    {
      "channel": 4,
      "note": 59,
      "start": 30.8367,
      "duration": 0.3475,
      "velocity": 95,
      "chip": "ym2612"
    },
    {
      "channel": 5,
      "note": 54,
      "start": 30.8377,
      "duration": 0.0773,
      "velocity": 107,
      "chip": "ym2612"
    },
    {
      "channel": 1,
      "note": 81,
      "start": 30.9615,
      "duration": 0.0788,
      "velocity": 92,
      "chip": "ym2612"
    },
    {
      "channel": 3,
      "note": 64,
      "start": 30.9629,
      "duration": 0.3482,
      "velocity": 95,
      "chip": "ym2612"
    },
    {
      "channel": 0,
      "note": 80,
      "start": 31.0245,
      "duration": 0.0788,
      "velocity": 92,
      "chip": "ym2612"
    },
    {
      "channel": 5,
      "note": 66,
      "start": 31.0274,
      "duration": 0.1735,
      "velocity": 107,
      "chip": "ym2612"
    },
    {
      "channel": 1,
      "note": 80,
      "start": 31.152,
      "duration": 0.0788,
      "velocity": 92,
      "chip": "ym2612"
    },
    {
      "channel": 0,
      "note": 81,
      "start": 31.215,
      "duration": 0.0788,
      "velocity": 92,
      "chip": "ym2612"
    },
    {
      "channel": 1,
      "note": 81,
      "start": 31.3425,
      "duration": 0.0788,
      "velocity": 92,
      "chip": "ym2612"
    },
    {
      "channel": 0,
      "note": 80,
      "start": 31.4056,
      "duration": 0.0788,
      "velocity": 92,
      "chip": "ym2612"
    },
    {
      "channel": 5,
      "note": 54,
      "start": 31.4084,
      "duration": 0.078,
      "velocity": 107,
      "chip": "ym2612"
    },
    {
      "channel": 1,
      "note": 80,
      "start": 31.533,
      "duration": 0.0788,
      "velocity": 92,
      "chip": "ym2612"
    },
    {
      "channel": 0,
      "note": 78,
      "start": 31.5961,
      "duration": 0.0627,
      "velocity": 92,
      "chip": "ym2612"
    },
    {
      "channel": 2,
      "note": 66,
      "start": 31.5975,
      "duration": 0.7291,
      "velocity": 95,
      "chip": "ym2612"
    },
    {
      "channel": 4,
      "note": 57,
      "start": 31.599,
      "duration": 0.7283,
      "velocity": 95,
      "chip": "ym2612"
    },
    {
      "channel": 5,
      "note": 50,
      "start": 31.5999,
      "duration": 0.1727,
      "velocity": 107,
      "chip": "ym2612"
    },
    {
      "channel": 1,
      "note": 78,
      "start": 31.7236,
      "duration": 0.0632,
      "velocity": 92,
      "chip": "ym2612"
    },
    {
      "channel": 3,
      "note": 66,
      "start": 31.725,
      "duration": 0.729,
      "velocity": 95,
      "chip": "ym2612"
    },
    {
      "channel": 0,
      "note": 77,
      "start": 31.7866,
      "duration": 0.0787,
      "velocity": 92,
      "chip": "ym2612"
    },
    {
      "channel": 1,
      "note": 77,
      "start": 31.9141,
      "duration": 0.0787,
      "velocity": 92,
      "chip": "ym2612"
    },
    {
      "channel": 0,
      "note": 78,
      "start": 31.9771,
      "duration": 0.0627,
      "velocity": 92,
      "chip": "ym2612"
    },
    {
      "channel": 5,
      "note": 50,
      "start": 31.98,
      "duration": 0.0783,
      "velocity": 107,
      "chip": "ym2612"
    },
    {
      "channel": 1,
      "note": 78,
      "start": 32.1046,
      "duration": 0.0631,
      "velocity": 92,
      "chip": "ym2612"
    },
    {
      "channel": 0,
      "note": 73,
      "start": 32.1676,
      "duration": 0.0787,
      "velocity": 92,
      "chip": "ym2612"
    },
    {
      "channel": 5,
      "note": 62,
      "start": 32.1701,
      "duration": 0.0784,
      "velocity": 107,
      "chip": "ym2612"
    },
    {
      "channel": 1,
      "note": 73,
      "start": 32.2951,
      "duration": 0.0787,
      "velocity": 92,
      "chip": "ym2612"
    },
    {
      "channel": 0,
      "note": 78,
      "start": 32.3582,
      "duration": 0.0627,
      "velocity": 92,
      "chip": "ym2612"
    },
    {
      "channel": 5,
      "note": 50,
      "start": 32.361,
      "duration": 0.0782,
      "velocity": 107,
      "chip": "ym2612"
    },
    {
      "channel": 1,
      "note": 78,
      "start": 32.4856,
      "duration": 0.0632,
      "velocity": 92,
      "chip": "ym2612"
    },
    {
      "channel": 0,
      "note": 77,
      "start": 32.5487,
      "duration": 0.0787,
      "velocity": 92,
      "chip": "ym2612"
    },
    {
      "channel": 5,
      "note": 50,
      "start": 32.5512,
      "duration": 0.1738,
      "velocity": 107,
      "chip": "ym2612"
    },
    {
      "channel": 1,
      "note": 77,
      "start": 32.6762,
      "duration": 0.0787,
      "velocity": 92,
      "chip": "ym2612"
    },
    {
      "channel": 0,
      "note": 78,
      "start": 32.7391,
      "duration": 0.0627,
      "velocity": 92,
      "chip": "ym2612"
    },
    {
      "channel": 1,
      "note": 78,
      "start": 32.8667,
      "duration": 0.0631,
      "velocity": 92,
      "chip": "ym2612"
    },
    {
      "channel": 0,
      "note": 73,
      "start": 32.9297,
      "duration": 0.0787,
      "velocity": 92,
      "chip": "ym2612"
    },
    {
      "channel": 5,
      "note": 62,
      "start": 32.9323,
      "duration": 0.0782,
      "velocity": 107,
      "chip": "ym2612"
    },
    {
      "channel": 1,
      "note": 73,
      "start": 33.0571,
      "duration": 0.0787,
      "velocity": 92,
      "chip": "ym2612"
    },
    {
      "channel": 0,
      "note": 78,
      "start": 33.12,
      "duration": 0.0788,
      "velocity": 92,
      "chip": "ym2612"
    },
    {
      "channel": 2,
      "note": 62,
      "start": 33.1214,
      "duration": 0.7292,
      "velocity": 95,
      "chip": "ym2612"
    },
    {
      "channel": 4,
      "note": 66,
      "start": 33.1228,
      "duration": 0.7285,
      "velocity": 95,
      "chip": "ym2612"
    },
    {
      "channel": 5,
      "note": 62,
      "start": 33.1237,
      "duration": 0.1729,
      "velocity": 107,
      "chip": "ym2612"
    },
    {
      "channel": 1,
      "note": 78,
      "start": 33.2475,
      "duration": 0.0788,
      "velocity": 92,
      "chip": "ym2612"
    },
    {
      "channel": 3,
      "note": 62,
      "start": 33.2489,
      "duration": 0.7291,
      "velocity": 95,
      "chip": "ym2612"
    },
    {
      "channel": 0,
      "note": 77,
      "start": 33.3106,
      "duration": 0.0788,
      "velocity": 92,
      "chip": "ym2612"
    },
    {
      "channel": 1,
      "note": 77,
      "start": 33.4381,
      "duration": 0.0788,
      "velocity": 92,
      "chip": "ym2612"
    },
    {
      "channel": 0,
      "note": 78,
      "start": 33.5011,
      "duration": 0.0788,
      "velocity": 92,
      "chip": "ym2612"
    },
    {
      "channel": 5,
      "note": 57,
      "start": 33.5039,
      "duration": 0.1736,
      "velocity": 107,
      "chip": "ym2612"
    },
    {
      "channel": 1,
      "note": 78,
      "start": 33.6286,
      "duration": 0.0788,
      "velocity": 92,
      "chip": "ym2612"
    },
    {
      "channel": 0,
      "note": 73,
      "start": 33.6916,
      "duration": 0.0788,
      "velocity": 92,
      "chip": "ym2612"
    },
    {
      "channel": 1,
      "note": 73,
      "start": 33.8191,
      "duration": 0.0788,
      "velocity": 92,
      "chip": "ym2612"
    },
    {
      "channel": 0,
      "note": 78,
      "start": 33.8821,
      "duration": 0.0788,
      "velocity": 92,
      "chip": "ym2612"
    },
    {
      "channel": 5,
      "note": 54,
      "start": 33.885,
      "duration": 0.1735,
      "velocity": 107,
      "chip": "ym2612"
    },
    {
      "channel": 1,
      "note": 78,
      "start": 34.0095,
      "duration": 0.0788,
      "velocity": 92,
      "chip": "ym2612"
    },
    {
      "channel": 0,
      "note": 77,
      "start": 34.0726,
      "duration": 0.0788,
      "velocity": 92,
      "chip": "ym2612"
    },
    {
      "channel": 1,
      "note": 77,
      "start": 34.2001,
      "duration": 0.0788,
      "velocity": 92,
      "chip": "ym2612"
    },
    {
      "channel": 0,
      "note": 78,
      "start": 34.2632,
      "duration": 0.0627,
      "velocity": 92,
      "chip": "ym2612"
    },
    {
      "channel": 5,
      "note": 50,
      "start": 34.266,
      "duration": 0.0783,
      "velocity": 107,
      "chip": "ym2612"
    },
    {
      "channel": 1,
      "note": 78,
      "start": 34.3907,
      "duration": 0.0632,
      "velocity": 92,
      "chip": "ym2612"
    },
    {
      "channel": 0,
      "note": 73,
      "start": 34.4537,
      "duration": 0.0787,
      "velocity": 92,
      "chip": "ym2612"
    },
    {
      "channel": 5,
      "note": 62,
      "start": 34.4562,
      "duration": 0.0783,
      "velocity": 107,
      "chip": "ym2612"
    },
    {
      "channel": 1,
      "note": 73,
      "start": 34.5812,
      "duration": 0.0787,
      "velocity": 92,
      "chip": "ym2612"
    },
    {
      "channel": 0,
      "note": 78,
      "start": 34.6442,
      "duration": 0.0787,
      "velocity": 92,
      "chip": "ym2612"
    },
    {
      "channel": 2,
      "note": 64,
      "start": 34.6456,
      "duration": 0.348,
      "velocity": 95,
      "chip": "ym2612"
    },
    {
      "channel": 4,
      "note": 68,
      "start": 34.6471,
      "duration": 0.3472,
      "velocity": 95,
      "chip": "ym2612"
    },
    {
      "channel": 5,
      "note": 52,
      "start": 34.648,
      "duration": 0.1726,
      "velocity": 107,
      "chip": "ym2612"
    },
    {
      "channel": 1,
      "note": 78,
      "start": 34.7717,
      "duration": 0.0787,
      "velocity": 92,
      "chip": "ym2612"
    },
    {
      "channel": 3,
      "note": 64,
      "start": 34.7731,
      "duration": 0.348,
      "velocity": 95,
      "chip": "ym2612"
    },
    {
      "channel": 0,
      "note": 77,
      "start": 34.8347,
      "duration": 0.0787,
      "velocity": 92,
      "chip": "ym2612"
    },
    {
      "channel": 1,
      "note": 77,
      "start": 34.9622,
      "duration": 0.0786,
      "velocity": 92,
      "chip": "ym2612"
    },
    {
      "channel": 0,
      "note": 78,
      "start": 35.0252,
      "duration": 0.0787,
      "velocity": 92,
      "chip": "ym2612"
    },
    {
      "channel": 5,
      "note": 52,
      "start": 35.028,
      "duration": 0.1736,
      "velocity": 107,
      "chip": "ym2612"
    },
    {
      "channel": 1,
      "note": 78,
      "start": 35.1527,
      "duration": 0.0787,
      "velocity": 92,
      "chip": "ym2612"
    },
    {
      "channel": 0,
      "note": 73,
      "start": 35.2157,
      "duration": 0.0787,
      "velocity": 92,
      "chip": "ym2612"
    },
    {
      "channel": 1,
      "note": 73,
      "start": 35.3432,
      "duration": 0.0787,
      "velocity": 92,
      "chip": "ym2612"
    },
    {
      "channel": 0,
      "note": 78,
      "start": 35.4061,
      "duration": 0.0788,
      "velocity": 92,
      "chip": "ym2612"
    },
    {
      "channel": 2,
      "note": 64,
      "start": 35.4075,
      "duration": 0.3481,
      "velocity": 95,
      "chip": "ym2612"
    },
    {
      "channel": 4,
      "note": 68,
      "start": 35.4088,
      "duration": 0.3475,
      "velocity": 95,
      "chip": "ym2612"
    },
    {
      "channel": 1,
      "note": 78,
      "start": 35.5337,
      "duration": 0.0788,
      "velocity": 92,
      "chip": "ym2612"
    },
    {
      "channel": 3,
      "note": 64,
      "start": 35.535,
      "duration": 0.3482,
      "velocity": 95,
      "chip": "ym2612"
    },
    {
      "channel": 0,
      "note": 77,
      "start": 35.5966,
      "duration": 0.0788,
      "velocity": 92,
      "chip": "ym2612"
    },
    {
      "channel": 5,
      "note": 52,
      "start": 35.5995,
      "duration": 0.078,
      "velocity": 107,
      "chip": "ym2612"
    },
    {
      "channel": 1,
      "note": 77,
      "start": 35.7241,
      "duration": 0.0788,
      "velocity": 92,
      "chip": "ym2612"
    },
    {
      "channel": 0,
      "note": 78,
      "start": 35.7872,
      "duration": 0.0787,
      "velocity": 92,
      "chip": "ym2612"
    },
    {
      "channel": 1,
      "note": 78,
      "start": 35.9147,
      "duration": 0.0787,
      "velocity": 92,
      "chip": "ym2612"
    },
    {
      "channel": 0,
      "note": 73,
      "start": 35.9778,
      "duration": 0.0787,
      "velocity": 92,
      "chip": "ym2612"
    },
    {
      "channel": 5,
      "note": 52,
      "start": 35.9806,
      "duration": 0.0779,
      "velocity": 107,
      "chip": "ym2612"
    },
    {
      "channel": 1,
      "note": 73,
      "start": 36.1052,
      "duration": 0.0787,
      "velocity": 92,
      "chip": "ym2612"
    },
    {
      "channel": 0,
      "note": 78,
      "start": 36.1681,
      "duration": 0.0788,
      "velocity": 92,
      "chip": "ym2612"
    },
    {
      "channel": 2,
      "note": 66,
      "start": 36.1695,
      "duration": 0.3482,
      "velocity": 95,
      "chip": "ym2612"
    },
    {
      "channel": 4,
      "note": 69,
      "start": 36.1708,
      "duration": 0.3475,
      "velocity": 95,
      "chip": "ym2612"
    },
    {
      "channel": 5,
      "note": 52,
      "start": 36.1717,
      "duration": 0.0773,
      "velocity": 107,
      "chip": "ym2612"
    },
    {
      "channel": 1,
      "note": 78,
      "start": 36.2956,
      "duration": 0.0788,
      "velocity": 92,
      "chip": "ym2612"
    },
    {
      "channel": 3,
      "note": 66,
      "start": 36.297,
      "duration": 0.3481,
      "velocity": 95,
      "chip": "ym2612"
    },
    {
      "channel": 0,
      "note": 77,
      "start": 36.3587,
      "duration": 0.0788,
      "velocity": 92,
      "chip": "ym2612"
    },
    {
      "channel": 5,
      "note": 52,
      "start": 36.3615,
      "duration": 0.1736,
      "velocity": 107,
      "chip": "ym2612"
    },
    {
      "channel": 1,
      "note": 77,
      "start": 36.4861,
      "duration": 0.0788,
      "velocity": 92,
      "chip": "ym2612"
    },
    {
      "channel": 0,
      "note": 78,
      "start": 36.5491,
      "duration": 0.0788,
      "velocity": 92,
      "chip": "ym2612"
    },
    {
      "channel": 1,
      "note": 78,
      "start": 36.6767,
      "duration": 0.0788,
      "velocity": 92,
      "chip": "ym2612"
    },
    {
      "channel": 0,
      "note": 73,
      "start": 36.7396,
      "duration": 0.0788,
      "velocity": 92,
      "chip": "ym2612"
    },
    {
      "channel": 5,
      "note": 52,
      "start": 36.7426,
      "duration": 0.078,
      "velocity": 107,
      "chip": "ym2612"
    },
    {
      "channel": 1,
      "note": 73,
      "start": 36.8672,
      "duration": 0.0788,
      "velocity": 92,
      "chip": "ym2612"
    },
    {
      "channel": 0,
      "note": 78,
      "start": 36.9302,
      "duration": 0.0788,
      "velocity": 92,
      "chip": "ym2612"
    },
    {
      "channel": 2,
      "note": 68,
      "start": 36.9315,
      "duration": 0.3482,
      "velocity": 95,
      "chip": "ym2612"
    },
    {
      "channel": 4,
      "note": 71,
      "start": 36.9328,
      "duration": 0.3475,
      "velocity": 95,
      "chip": "ym2612"
    },
    {
      "channel": 5,
      "note": 52,
      "start": 36.9338,
      "duration": 0.1729,
      "velocity": 107,
      "chip": "ym2612"
    },
    {
      "channel": 1,
      "note": 78,
      "start": 37.0576,
      "duration": 0.0788,
      "velocity": 92,
      "chip": "ym2612"
    },
    {
      "channel": 3,
      "note": 68,
      "start": 37.059,
      "duration": 0.3482,
      "velocity": 95,
      "chip": "ym2612"
    },
    {
      "channel": 0,
      "note": 77,
      "start": 37.1207,
      "duration": 0.0788,
      "velocity": 92,
      "chip": "ym2612"
    },
    {
      "channel": 1,
      "note": 77,
      "start": 37.2482,
      "duration": 0.0788,
      "velocity": 92,
      "chip": "ym2612"
    },
    {
      "channel": 0,
      "note": 78,
      "start": 37.3112,
      "duration": 0.0788,
      "velocity": 92,
      "chip": "ym2612"
    },
    {
      "channel": 5,
      "note": 52,
      "start": 37.314,
      "duration": 0.1736,
      "velocity": 107,
      "chip": "ym2612"
    },
    {
      "channel": 1,
      "note": 78,
      "start": 37.4387,
      "duration": 0.0788,
      "velocity": 92,
      "chip": "ym2612"
    },
    {
      "channel": 0,
      "note": 80,
      "start": 37.5017,
      "duration": 0.0788,
      "velocity": 92,
      "chip": "ym2612"
    },
    {
      "channel": 1,
      "note": 80,
      "start": 37.6291,
      "duration": 0.0788,
      "velocity": 92,
      "chip": "ym2612"
    },
    {
      "channel": 0,
      "note": 81,
      "start": 37.6922,
      "duration": 0.0788,
      "velocity": 92,
      "chip": "ym2612"
    },
    {
      "channel": 2,
      "note": 69,
      "start": 37.6937,
      "duration": 1.1261,
      "velocity": 95,
      "chip": "ym2612"
    },
    {
      "channel": 4,
      "note": 73,
      "start": 37.6951,
      "duration": 1.1253,
      "velocity": 95,
      "chip": "ym2612"
    },
    {
      "channel": 5,
      "note": 57,
      "start": 37.696,
      "duration": 0.2676,
      "velocity": 107,
      "chip": "ym2612"
    },
    {
      "channel": 1,
      "note": 81,
      "start": 37.8197,
      "duration": 0.0788,
      "velocity": 92,
      "chip": "ym2612"
    },
    {
      "channel": 3,
      "note": 69,
      "start": 37.8211,
      "duration": 1.1261,
      "velocity": 95,
      "chip": "ym2612"
    },
    {
      "channel": 0,
      "note": 80,
      "start": 37.8827,
      "duration": 0.0788,
      "velocity": 92,
      "chip": "ym2612"
    },
    {
      "channel": 1,
      "note": 80,
      "start": 38.0102,
      "duration": 0.0788,
      "velocity": 92,
      "chip": "ym2612"
    },
    {
      "channel": 0,
      "note": 81,
      "start": 38.0733,
      "duration": 0.0787,
      "velocity": 92,
      "chip": "ym2612"
    },
    {
      "channel": 1,
      "note": 81,
      "start": 38.2008,
      "duration": 0.0787,
      "velocity": 92,
      "chip": "ym2612"
    },
    {
      "channel": 0,
      "note": 76,
      "start": 38.2637,
      "duration": 0.0787,
      "velocity": 92,
      "chip": "ym2612"
    },
    {
      "channel": 5,
      "note": 57,
      "start": 38.2667,
      "duration": 0.0779,
      "velocity": 107,
      "chip": "ym2612"
    },
    {
      "channel": 1,
      "note": 76,
      "start": 38.3913,
      "duration": 0.0786,
      "velocity": 92,
      "chip": "ym2612"
    },
    {
      "channel": 0,
      "note": 81,
      "start": 38.4542,
      "duration": 0.0788,
      "velocity": 92,
      "chip": "ym2612"
    },
    {
      "channel": 1,
      "note": 81,
      "start": 38.5817,
      "duration": 0.0788,
      "velocity": 92,
      "chip": "ym2612"
    },
    {
      "channel": 0,
      "note": 80,
      "start": 38.6447,
      "duration": 0.0788,
      "velocity": 92,
      "chip": "ym2612"
    },
    {
      "channel": 5,
      "note": 57,
      "start": 38.6476,
      "duration": 0.173,
      "velocity": 107,
      "chip": "ym2612"
    },
    {
      "channel": 1,
      "note": 80,
      "start": 38.7722,
      "duration": 0.0788,
      "velocity": 92,
      "chip": "ym2612"
    },
    {
      "channel": 0,
      "note": 81,
      "start": 38.8353,
      "duration": 0.0788,
      "velocity": 92,
      "chip": "ym2612"
    },
    {
      "channel": 1,
      "note": 81,
      "start": 38.9628,
      "duration": 0.0787,
      "velocity": 92,
      "chip": "ym2612"
    },
    {
      "channel": 0,
      "note": 76,
      "start": 39.0258,
      "duration": 0.0787,
      "velocity": 92,
      "chip": "ym2612"
    },
    {
      "channel": 5,
      "note": 57,
      "start": 39.0286,
      "duration": 0.1735,
      "velocity": 107,
      "chip": "ym2612"
    },
    {
      "channel": 1,
      "note": 76,
      "start": 39.1533,
      "duration": 0.0787,
      "velocity": 92,
      "chip": "ym2612"
    },
    {
      "channel": 0,
      "note": 81,
      "start": 39.2162,
      "duration": 0.0788,
      "velocity": 92,
      "chip": "ym2612"
    },
    {
      "channel": 1,
      "note": 81,
      "start": 39.3437,
      "duration": 0.0788,
      "velocity": 92,
      "chip": "ym2612"
    },
    {
      "channel": 0,
      "note": 80,
      "start": 39.4067,
      "duration": 0.0788,
      "velocity": 92,
      "chip": "ym2612"
    },
    {
      "channel": 5,
      "note": 57,
      "start": 39.4096,
      "duration": 0.078,
      "velocity": 107,
      "chip": "ym2612"
    },
    {
      "channel": 1,
      "note": 80,
      "start": 39.5342,
      "duration": 0.0788,
      "velocity": 92,
      "chip": "ym2612"
    },
    {
      "channel": 0,
      "note": 81,
      "start": 39.5973,
      "duration": 0.0788,
      "velocity": 92,
      "chip": "ym2612"
    },
    {
      "channel": 5,
      "note": 57,
      "start": 39.6003,
      "duration": 0.1734,
      "velocity": 107,
      "chip": "ym2612"
    },
    {
      "channel": 1,
      "note": 81,
      "start": 39.7248,
      "duration": 0.0787,
      "velocity": 92,
      "chip": "ym2612"
    },
    {
      "channel": 0,
      "note": 76,
      "start": 39.7878,
      "duration": 0.0788,
      "velocity": 92,
      "chip": "ym2612"
    },
    {
      "channel": 1,
      "note": 76,
      "start": 39.9154,
      "duration": 0.0786,
      "velocity": 92,
      "chip": "ym2612"
    },
    {
      "channel": 0,
      "note": 81,
      "start": 39.9783,
      "duration": 0.0788,
      "velocity": 92,
      "chip": "ym2612"
    },
    {
      "channel": 2,
      "note": 71,
      "start": 39.9797,
      "duration": 0.1736,
      "velocity": 95,
      "chip": "ym2612"
    },
    {
      "channel": 4,
      "note": 76,
      "start": 39.9811,
      "duration": 0.1728,
      "velocity": 95,
      "chip": "ym2612"
    },
    {
      "channel": 5,
      "note": 57,
      "start": 39.9821,
      "duration": 0.0771,
      "velocity": 107,
      "chip": "ym2612"
    },
    {
      "channel": 1,
      "note": 81,
      "start": 40.1057,
      "duration": 0.0788,
      "velocity": 92,
      "chip": "ym2612"
    },
    {
      "channel": 3,
      "note": 71,
      "start": 40.1072,
      "duration": 0.1735,
      "velocity": 95,
      "chip": "ym2612"
    },
    {
      "channel": 0,
      "note": 80,
      "start": 40.1687,
      "duration": 0.0788,
      "velocity": 92,
      "chip": "ym2612"
    },
    {
      "channel": 5,
      "note": 57,
      "start": 40.1716,
      "duration": 0.078,
      "velocity": 107,
      "chip": "ym2612"
    },
    {
      "channel": 1,
      "note": 80,
      "start": 40.2963,
      "duration": 0.0788,
      "velocity": 92,
      "chip": "ym2612"
    },
    {
      "channel": 0,
      "note": 81,
      "start": 40.3592,
      "duration": 0.0788,
      "velocity": 92,
      "chip": "ym2612"
    },
    {
      "channel": 2,
      "note": 69,
      "start": 40.3606,
      "duration": 0.1736,
      "velocity": 95,
      "chip": "ym2612"
    },
    {
      "channel": 4,
      "note": 74,
      "start": 40.362,
      "duration": 0.1729,
      "velocity": 95,
      "chip": "ym2612"
    },
    {
      "channel": 5,
      "note": 57,
      "start": 40.3629,
      "duration": 0.1721,
      "velocity": 107,
      "chip": "ym2612"
    },
    {
      "channel": 1,
      "note": 81,
      "start": 40.4867,
      "duration": 0.0788,
      "velocity": 92,
      "chip": "ym2612"
    },
    {
      "channel": 3,
      "note": 69,
      "start": 40.4881,
      "duration": 0.1736,
      "velocity": 95,
      "chip": "ym2612"
    },
    {
      "channel": 0,
      "note": 76,
      "start": 40.5498,
      "duration": 0.0788,
      "velocity": 92,
      "chip": "ym2612"
    },
    {
      "channel": 1,
      "note": 76,
      "start": 40.6772,
      "duration": 0.0788,
      "velocity": 92,
      "chip": "ym2612"
    },
    {
      "channel": 0,
      "note": 81,
      "start": 40.7403,
      "duration": 0.0788,
      "velocity": 92,
      "chip": "ym2612"
    },
    {
      "channel": 2,
      "note": 73,
      "start": 40.7417,
      "duration": 0.5385,
      "velocity": 95,
      "chip": "ym2612"
    },
    {
      "channel": 4,
      "note": 69,
      "start": 40.7432,
      "duration": 0.5378,
      "velocity": 95,
      "chip": "ym2612"
    },
    {
      "channel": 5,
      "note": 54,
      "start": 40.7441,
      "duration": 0.2676,
      "velocity": 107,
      "chip": "ym2612"
    },
    {
      "channel": 1,
      "note": 81,
      "start": 40.8678,
      "duration": 0.0788,
      "velocity": 92,
      "chip": "ym2612"
    },
    {
      "channel": 3,
      "note": 73,
      "start": 40.8692,
      "duration": 0.5385,
      "velocity": 95,
      "chip": "ym2612"
    },
    {
      "channel": 0,
      "note": 80,
      "start": 40.9307,
      "duration": 0.0788,
      "velocity": 92,
      "chip": "ym2612"
    },
    {
      "channel": 1,
      "note": 80,
      "start": 41.0583,
      "duration": 0.0788,
      "velocity": 92,
      "chip": "ym2612"
    },
    {
      "channel": 0,
      "note": 81,
      "start": 41.1213,
      "duration": 0.0788,
      "velocity": 92,
      "chip": "ym2612"
    },
    {
      "channel": 1,
      "note": 81,
      "start": 41.2489,
      "duration": 0.0786,
      "velocity": 92,
      "chip": "ym2612"
    },
    {
      "channel": 0,
      "note": 76,
      "start": 41.3118,
      "duration": 0.0787,
      "velocity": 92,
      "chip": "ym2612"
    },
    {
      "channel": 5,
      "note": 54,
      "start": 41.3147,
      "duration": 0.0779,
      "velocity": 107,
      "chip": "ym2612"
    },
    {
      "channel": 1,
      "note": 76,
      "start": 41.4393,
      "duration": 0.0787,
      "velocity": 92,
      "chip": "ym2612"
    },
    {
      "channel": 0,
      "note": 81,
      "start": 41.5022,
      "duration": 0.0788,
      "velocity": 92,
      "chip": "ym2612"
    },
    {
      "channel": 1,
      "note": 81,
      "start": 41.6298,
      "duration": 0.0788,
      "velocity": 92,
      "chip": "ym2612"
    },
    {
      "channel": 0,
      "note": 80,
      "start": 41.6928,
      "duration": 0.0788,
      "velocity": 92,
      "chip": "ym2612"
    },
    {
      "channel": 5,
      "note": 54,
      "start": 41.6956,
      "duration": 0.1736,
      "velocity": 107,
      "chip": "ym2612"
    },
    {
      "channel": 1,
      "note": 80,
      "start": 41.8203,
      "duration": 0.0787,
      "velocity": 92,
      "chip": "ym2612"
    },
    {
      "channel": 0,
      "note": 81,
      "start": 41.8834,
      "duration": 0.0787,
      "velocity": 92,
      "chip": "ym2612"
    },
    {
      "channel": 2,
      "note": 71,
      "start": 41.8847,
      "duration": 0.5386,
      "velocity": 95,
      "chip": "ym2612"
    },
    {
      "channel": 4,
      "note": 68,
      "start": 41.8861,
      "duration": 0.5378,
      "velocity": 95,
      "chip": "ym2612"
    },
    {
      "channel": 1,
      "note": 81,
      "start": 42.0108,
      "duration": 0.0787,
      "velocity": 92,
      "chip": "ym2612"
    },
    {
      "channel": 3,
      "note": 71,
      "start": 42.0122,
      "duration": 0.5385,
      "velocity": 95,
      "chip": "ym2612"
    },
    {
      "channel": 0,
      "note": 76,
      "start": 42.0739,
      "duration": 0.0787,
      "velocity": 92,
      "chip": "ym2612"
    },
    {
      "channel": 5,
      "note": 54,
      "start": 42.0767,
      "duration": 0.078,
      "velocity": 107,
      "chip": "ym2612"
    },
    {
      "channel": 1,
      "note": 76,
      "start": 42.2013,
      "duration": 0.0787,
      "velocity": 92,
      "chip": "ym2612"
    },
    {
      "channel": 0,
      "note": 81,
      "start": 42.2643,
      "duration": 0.0788,
      "velocity": 92,
      "chip": "ym2612"
    },
    {
      "channel": 5,
      "note": 54,
      "start": 42.2672,
      "duration": 0.1736,
      "velocity": 107,
      "chip": "ym2612"
    },
    {
      "channel": 1,
      "note": 81,
      "start": 42.3917,
      "duration": 0.0788,
      "velocity": 92,
      "chip": "ym2612"
    },
    {
      "channel": 0,
      "note": 80,
      "start": 42.4548,
      "duration": 0.0788,
      "velocity": 92,
      "chip": "ym2612"
    },
    {
      "channel": 1,
      "note": 80,
      "start": 42.5823,
      "duration": 0.0788,
      "velocity": 92,
      "chip": "ym2612"
    },
    {
      "channel": 0,
      "note": 81,
      "start": 42.6454,
      "duration": 0.0787,
      "velocity": 92,
      "chip": "ym2612"
    },
    {
      "channel": 5,
      "note": 54,
      "start": 42.6482,
      "duration": 0.1735,
      "velocity": 107,
      "chip": "ym2612"
    },
    {
      "channel": 1,
      "note": 81,
      "start": 42.7729,
      "duration": 0.0787,
      "velocity": 92,
      "chip": "ym2612"
    },
    {
      "channel": 0,
      "note": 76,
      "start": 42.8359,
      "duration": 0.0787,
      "velocity": 92,
      "chip": "ym2612"
    },
    {
      "channel": 1,
      "note": 76,
      "start": 42.9634,
      "duration": 0.0787,
      "velocity": 92,
      "chip": "ym2612"
    },
    {
      "channel": 0,
      "note": 81,
      "start": 43.0263,
      "duration": 0.0788,
      "velocity": 92,
      "chip": "ym2612"
    },
    {
      "channel": 2,
      "note": 69,
      "start": 43.0278,
      "duration": 0.3481,
      "velocity": 95,
      "chip": "ym2612"
    },
    {
      "channel": 4,
      "note": 66,
      "start": 43.0292,
      "duration": 0.3473,
      "velocity": 95,
      "chip": "ym2612"
    },
    {
      "channel": 5,
      "note": 54,
      "start": 43.0302,
      "duration": 0.0771,
      "velocity": 107,
      "chip": "ym2612"
    },
    {
      "channel": 1,
      "note": 81,
      "start": 43.1538,
      "duration": 0.0788,
      "velocity": 92,
      "chip": "ym2612"
    },
    {
      "channel": 3,
      "note": 69,
      "start": 43.1552,
      "duration": 0.3481,
      "velocity": 95,
      "chip": "ym2612"
    },
    {
      "channel": 0,
      "note": 80,
      "start": 43.2169,
      "duration": 0.0787,
      "velocity": 92,
      "chip": "ym2612"
    },
    {
      "channel": 5,
      "note": 54,
      "start": 43.2196,
      "duration": 0.0781,
      "velocity": 107,
      "chip": "ym2612"
    },
    {
      "channel": 1,
      "note": 80,
      "start": 43.3443,
      "duration": 0.0788,
      "velocity": 92,
      "chip": "ym2612"
    },
    {
      "channel": 0,
      "note": 81,
      "start": 43.4073,
      "duration": 0.0788,
      "velocity": 92,
      "chip": "ym2612"
    },
    {
      "channel": 5,
      "note": 54,
      "start": 43.4102,
      "duration": 0.1736,
      "velocity": 107,
      "chip": "ym2612"
    },
    {
      "channel": 1,
      "note": 81,
      "start": 43.5348,
      "duration": 0.0788,
      "velocity": 92,
      "chip": "ym2612"
    },
    {
      "channel": 0,
      "note": 76,
      "start": 43.5978,
      "duration": 0.0788,
      "velocity": 92,
      "chip": "ym2612"
    },
    {
      "channel": 1,
      "note": 76,
      "start": 43.7253,
      "duration": 0.0788,
      "velocity": 92,
      "chip": "ym2612"
    },
    {
      "channel": 0,
      "note": 78,
      "start": 43.7884,
      "duration": 0.0627,
      "velocity": 92,
      "chip": "ym2612"
    },
    {
      "channel": 2,
      "note": 66,
      "start": 43.7897,
      "duration": 0.3482,
      "velocity": 95,
      "chip": "ym2612"
    },
    {
      "channel": 4,
      "note": 62,
      "start": 43.791,
      "duration": 0.3475,
      "velocity": 95,
      "chip": "ym2612"
    },
    {
      "channel": 5,
      "note": 50,
      "start": 43.792,
      "duration": 0.0776,
      "velocity": 107,
      "chip": "ym2612"
    },
    {
      "channel": 1,
      "note": 78,
      "start": 43.9159,
      "duration": 0.0631,
      "velocity": 92,
      "chip": "ym2612"
    },
    {
      "channel": 3,
      "note": 66,
      "start": 43.9173,
      "duration": 0.3481,
      "velocity": 95,
      "chip": "ym2612"
    },
    {
      "channel": 0,
      "note": 77,
      "start": 43.9789,
      "duration": 0.0787,
      "velocity": 92,
      "chip": "ym2612"
    },
    {
      "channel": 5,
      "note": 50,
      "start": 43.9814,
      "duration": 0.0784,
      "velocity": 107,
      "chip": "ym2612"
    },
    {
      "channel": 1,
      "note": 77,
      "start": 44.1064,
      "duration": 0.0787,
      "velocity": 92,
      "chip": "ym2612"
    },
    {
      "channel": 0,
      "note": 78,
      "start": 44.1694,
      "duration": 0.0627,
      "velocity": 92,
      "chip": "ym2612"
    },
    {
      "channel": 5,
      "note": 50,
      "start": 44.1723,
      "duration": 0.1735,
      "velocity": 107,
      "chip": "ym2612"
    },
    {
      "channel": 1,
      "note": 78,
      "start": 44.2969,
      "duration": 0.0632,
      "velocity": 92,
      "chip": "ym2612"
    },
    {
      "channel": 0,
      "note": 73,
      "start": 44.3599,
      "duration": 0.0787,
      "velocity": 92,
      "chip": "ym2612"
    },
    {
      "channel": 1,
      "note": 73,
      "start": 44.4874,
      "duration": 0.0787,
      "velocity": 92,
      "chip": "ym2612"
    },
    {
      "channel": 0,
      "note": 78,
      "start": 44.5505,
      "duration": 0.0627,
      "velocity": 92,
      "chip": "ym2612"
    },
    {
      "channel": 2,
      "note": 69,
      "start": 44.5518,
      "duration": 0.3481,
      "velocity": 95,
      "chip": "ym2612"
    },
    {
      "channel": 4,
      "note": 66,
      "start": 44.5531,
      "duration": 0.3474,
      "velocity": 95,
      "chip": "ym2612"
    },
    {
      "channel": 5,
      "note": 50,
      "start": 44.5541,
      "duration": 0.0775,
      "velocity": 107,
      "chip": "ym2612"
    },
    {
      "channel": 1,
      "note": 78,
      "start": 44.6779,
      "duration": 0.0631,
      "velocity": 92,
      "chip": "ym2612"
    },
    {
      "channel": 3,
      "note": 69,
      "start": 44.6793,
      "duration": 0.3481,
      "velocity": 95,
      "chip": "ym2612"
    },
    {
      "channel": 0,
      "note": 77,
      "start": 44.7409,
      "duration": 0.0787,
      "velocity": 92,
      "chip": "ym2612"
    },
    {
      "channel": 5,
      "note": 50,
      "start": 44.7434,
      "duration": 0.0784,
      "velocity": 107,
      "chip": "ym2612"
    },
    {
      "channel": 1,
      "note": 77,
      "start": 44.8684,
      "duration": 0.0787,
      "velocity": 92,
      "chip": "ym2612"
    },
    {
      "channel": 0,
      "note": 78,
      "start": 44.9314,
      "duration": 0.0627,
      "velocity": 92,
      "chip": "ym2612"
    },
    {
      "channel": 5,
      "note": 50,
      "start": 44.9343,
      "duration": 0.1735,
      "velocity": 107,
      "chip": "ym2612"
    },
    {
      "channel": 1,
      "note": 78,
      "start": 45.0589,
      "duration": 0.0632,
      "velocity": 92,
      "chip": "ym2612"
    },
    {
      "channel": 0,
      "note": 73,
      "start": 45.122,
      "duration": 0.0787,
      "velocity": 92,
      "chip": "ym2612"
    },
    {
      "channel": 1,
      "note": 73,
      "start": 45.2494,
      "duration": 0.0786,
      "velocity": 92,
      "chip": "ym2612"
    },
    {
      "channel": 0,
      "note": 80,
      "start": 45.3124,
      "duration": 0.0788,
      "velocity": 92,
      "chip": "ym2612"
    },
    {
      "channel": 2,
      "note": 68,
      "start": 45.3137,
      "duration": 0.3482,
      "velocity": 95,
      "chip": "ym2612"
    },
    {
      "channel": 4,
      "note": 64,
      "start": 45.315,
      "duration": 0.3475,
      "velocity": 95,
      "chip": "ym2612"
    },
    {
      "channel": 5,
      "note": 52,
      "start": 45.3159,
      "duration": 0.173,
      "velocity": 107,
      "chip": "ym2612"
    },
    {
      "channel": 1,
      "note": 80,
      "start": 45.4398,
      "duration": 0.0788,
      "velocity": 92,
      "chip": "ym2612"
    },
    {
      "channel": 3,
      "note": 68,
      "start": 45.4412,
      "duration": 0.3482,
      "velocity": 95,
      "chip": "ym2612"
    },
    {
      "channel": 0,
      "note": 79,
      "start": 45.5029,
      "duration": 0.0788,
      "velocity": 92,
      "chip": "ym2612"
    },
    {
      "channel": 1,
      "note": 79,
      "start": 45.6304,
      "duration": 0.0788,
      "velocity": 92,
      "chip": "ym2612"
    },
    {
      "channel": 0,
      "note": 80,
      "start": 45.6933,
      "duration": 0.0788,
      "velocity": 92,
      "chip": "ym2612"
    },
    {
      "channel": 5,
      "note": 52,
      "start": 45.6961,
      "duration": 0.1737,
      "velocity": 107,
      "chip": "ym2612"
    },
    {
      "channel": 1,
      "note": 80,
      "start": 45.8209,
      "duration": 0.0788,
      "velocity": 92,
      "chip": "ym2612"
    },
    {
      "channel": 0,
      "note": 71,
      "start": 45.8839,
      "duration": 0.0788,
      "velocity": 92,
      "chip": "ym2612"
    },
    {
      "channel": 1,
      "note": 71,
      "start": 46.0113,
      "duration": 0.0788,
      "velocity": 92,
      "chip": "ym2612"
    },
    {
      "channel": 0,
      "note": 80,
      "start": 46.0744,
      "duration": 0.0788,
      "velocity": 92,
      "chip": "ym2612"
    },
    {
      "channel": 2,
      "note": 71,
      "start": 46.0757,
      "duration": 0.3482,
      "velocity": 95,
      "chip": "ym2612"
    },
    {
      "channel": 4,
      "note": 68,
      "start": 46.0771,
      "duration": 0.3475,
      "velocity": 95,
      "chip": "ym2612"
    },
    {
      "channel": 5,
      "note": 56,
      "start": 46.0779,
      "duration": 0.173,
      "velocity": 107,
      "chip": "ym2612"
    },
    {
      "channel": 1,
      "note": 80,
      "start": 46.2019,
      "duration": 0.0788,
      "velocity": 92,
      "chip": "ym2612"
    },
    {
      "channel": 3,
      "note": 71,
      "start": 46.2033,
      "duration": 0.3481,
      "velocity": 95,
      "chip": "ym2612"
    },
    {
      "channel": 0,
      "note": 79,
      "start": 46.2648,
      "duration": 0.0788,
      "velocity": 92,
      "chip": "ym2612"
    },
    {
      "channel": 1,
      "note": 79,
      "start": 46.3924,
      "duration": 0.0788,
      "velocity": 92,
      "chip": "ym2612"
    },
    {
      "channel": 0,
      "note": 80,
      "start": 46.4555,
      "duration": 0.0627,
      "velocity": 92,
      "chip": "ym2612"
    },
    {
      "channel": 5,
      "note": 52,
      "start": 46.4583,
      "duration": 0.1735,
      "velocity": 107,
      "chip": "ym2612"
    },
    {
      "channel": 1,
      "note": 80,
      "start": 46.583,
      "duration": 0.0632,
      "velocity": 92,
      "chip": "ym2612"
    },
    {
      "channel": 0,
      "note": 71,
      "start": 46.646,
      "duration": 0.0787,
      "velocity": 92,
      "chip": "ym2612"
    },
    {
      "channel": 1,
      "note": 71,
      "start": 46.7735,
      "duration": 0.0787,
      "velocity": 92,
      "chip": "ym2612"
    },
    {
      "channel": 0,
      "note": 81,
      "start": 46.8364,
      "duration": 0.0788,
      "velocity": 92,
      "chip": "ym2612"
    },
    {
      "channel": 2,
      "note": 69,
      "start": 46.8378,
      "duration": 1.5071,
      "velocity": 95,
      "chip": "ym2612"
    },
    {
      "channel": 4,
      "note": 64,
      "start": 46.8393,
      "duration": 1.5063,
      "velocity": 95,
      "chip": "ym2612"
    },
    {
      "channel": 5,
      "note": 45,
      "start": 46.8402,
      "duration": 0.3471,
      "velocity": 107,
      "chip": "ym2612"
    },
    {
      "channel": 1,
      "note": 81,
      "start": 46.9639,
      "duration": 0.0788,
      "velocity": 92,
      "chip": "ym2612"
    },
    {
      "channel": 3,
      "note": 69,
      "start": 46.9654,
      "duration": 1.5071,
      "velocity": 95,
      "chip": "ym2612"
    },
    {
      "channel": 0,
      "note": 80,
      "start": 47.0268,
      "duration": 0.0788,
      "velocity": 92,
      "chip": "ym2612"
    },
    {
      "channel": 1,
      "note": 80,
      "start": 47.1544,
      "duration": 0.0788,
      "velocity": 92,
      "chip": "ym2612"
    },
    {
      "channel": 0,
      "note": 81,
      "start": 47.2175,
      "duration": 0.0786,
      "velocity": 92,
      "chip": "ym2612"
    },
    {
      "channel": 1,
      "note": 81,
      "start": 47.3449,
      "duration": 0.0787,
      "velocity": 92,
      "chip": "ym2612"
    },
    {
      "channel": 0,
      "note": 76,
      "start": 47.408,
      "duration": 0.0787,
      "velocity": 92,
      "chip": "ym2612"
    },
    {
      "channel": 1,
      "note": 76,
      "start": 47.5355,
      "duration": 0.0786,
      "velocity": 92,
      "chip": "ym2612"
    },
    {
      "channel": 0,
      "note": 81,
      "start": 47.5984,
      "duration": 0.0788,
      "velocity": 92,
      "chip": "ym2612"
    },
    {
      "channel": 5,
      "note": 45,
      "start": 47.6012,
      "duration": 0.3481,
      "velocity": 107,
      "chip": "ym2612"
    },
    {
      "channel": 1,
      "note": 81,
      "start": 47.7259,
      "duration": 0.0788,
      "velocity": 92,
      "chip": "ym2612"
    },
    {
      "channel": 0,
      "note": 80,
      "start": 47.7889,
      "duration": 0.0788,
      "velocity": 92,
      "chip": "ym2612"
    },
    {
      "channel": 1,
      "note": 80,
      "start": 47.9164,
      "duration": 0.0788,
      "velocity": 92,
      "chip": "ym2612"
    },
    {
      "channel": 0,
      "note": 81,
      "start": 47.9795,
      "duration": 0.0787,
      "velocity": 92,
      "chip": "ym2612"
    },
    {
      "channel": 1,
      "note": 81,
      "start": 48.1069,
      "duration": 0.0788,
      "velocity": 92,
      "chip": "ym2612"
    },
    {
      "channel": 0,
      "note": 76,
      "start": 48.17,
      "duration": 0.0787,
      "velocity": 92,
      "chip": "ym2612"
    },
    {
      "channel": 1,
      "note": 76,
      "start": 48.2975,
      "duration": 0.0787,
      "velocity": 92,
      "chip": "ym2612"
    },
    {
      "channel": 0,
      "note": 81,
      "start": 48.3605,
      "duration": 0.0788,
      "velocity": 92,
      "chip": "ym2612"
    },
    {
      "channel": 5,
      "note": 45,
      "start": 48.3633,
      "duration": 0.1735,
      "velocity": 107,
      "chip": "ym2612"
    },
    {
      "channel": 1,
      "note": 81,
      "start": 48.4879,
      "duration": 0.0788,
      "velocity": 92,
      "chip": "ym2612"
    },
    {
      "channel": 0,
      "note": 80,
      "start": 48.5509,
      "duration": 0.0788,
      "velocity": 92,
      "chip": "ym2612"
    },
    {
      "channel": 1,
      "note": 80,
      "start": 48.6784,
      "duration": 0.0788,
      "velocity": 92,
      "chip": "ym2612"
    },
    {
      "channel": 0,
      "note": 81,
      "start": 48.7415,
      "duration": 0.0786,
      "velocity": 92,
      "chip": "ym2612"
    },
    {
      "channel": 5,
      "note": 45,
      "start": 48.7444,
      "duration": 0.1735,
      "velocity": 107,
      "chip": "ym2612"
    },
    {
      "channel": 1,
      "note": 81,
      "start": 48.869,
      "duration": 0.0786,
      "velocity": 92,
      "chip": "ym2612"
    },
    {
      "channel": 0,
      "note": 76,
      "start": 48.932,
      "duration": 0.0787,
      "velocity": 92,
      "chip": "ym2612"
    },
    {
      "channel": 1,
      "note": 76,
      "start": 49.0595,
      "duration": 0.0787,
      "velocity": 92,
      "chip": "ym2612"
    },
    {
      "channel": 0,
      "note": 81,
      "start": 49.1225,
      "duration": 0.0788,
      "velocity": 92,
      "chip": "ym2612"
    },
    {
      "channel": 5,
      "note": 49,
      "start": 49.1253,
      "duration": 0.1736,
      "velocity": 107,
      "chip": "ym2612"
    },
    {
      "channel": 1,
      "note": 81,
      "start": 49.25,
      "duration": 0.0788,
      "velocity": 92,
      "chip": "ym2612"
    },
    {
      "channel": 0,
      "note": 80,
      "start": 49.3129,
      "duration": 0.0788,
      "velocity": 92,
      "chip": "ym2612"
    },
    {
      "channel": 1,
      "note": 80,
      "start": 49.4405,
      "duration": 0.0788,
      "velocity": 92,
      "chip": "ym2612"
    },
    {
      "channel": 0,
      "note": 81,
      "start": 49.5034,
      "duration": 0.0788,
      "velocity": 92,
      "chip": "ym2612"
    },
    {
      "channel": 5,
      "note": 52,
      "start": 49.5062,
      "duration": 0.1737,
      "velocity": 107,
      "chip": "ym2612"
    },
    {
      "channel": 1,
      "note": 81,
      "start": 49.6309,
      "duration": 0.0788,
      "velocity": 92,
      "chip": "ym2612"
    },
    {
      "channel": 0,
      "note": 76,
      "start": 49.694,
      "duration": 0.0788,
      "velocity": 92,
      "chip": "ym2612"
    },
    {
      "channel": 1,
      "note": 76,
      "start": 49.8215,
      "duration": 0.0788,
      "velocity": 92,
      "chip": "ym2612"
    },
    {
      "channel": 0,
      "note": 66,
      "start": 49.887,
      "duration": 0.0762,
      "velocity": 93,
      "chip": "ym2612"
    },
    {
      "channel": 2,
      "note": 71,
      "start": 49.8884,
      "duration": 0.5361,
      "velocity": 95,
      "chip": "ym2612"
    },
    {
      "channel": 4,
      "note": 66,
      "start": 49.8899,
      "duration": 0.5353,
      "velocity": 95,
      "chip": "ym2612"
    },
    {
      "channel": 5,
      "note": 59,
      "start": 49.8909,
      "duration": 0.265,
      "velocity": 107,
      "chip": "ym2612"
    },
    {
      "channel": 1,
      "note": 66,
      "start": 50.0145,
      "duration": 0.0762,
      "velocity": 93,
      "chip": "ym2612"
    },
    {
      "channel": 3,
      "note": 71,
      "start": 50.016,
      "duration": 0.5359,
      "velocity": 95,
      "chip": "ym2612"
    },
    {
      "channel": 0,
      "note": 66,
      "start": 50.0749,
      "duration": 0.0788,
      "velocity": 93,
      "chip": "ym2612"
    },
    {
      "channel": 1,
      "note": 66,
      "start": 50.2024,
      "duration": 0.0788,
      "velocity": 93,
      "chip": "ym2612"
    },
    {
      "channel": 0,
      "note": 71,
      "start": 50.2655,
      "duration": 0.0788,
      "velocity": 93,
      "chip": "ym2612"
    },
    {
      "channel": 1,
      "note": 71,
      "start": 50.3929,
      "duration": 0.0788,
      "velocity": 93,
      "chip": "ym2612"
    },
    {
      "channel": 0,
      "note": 74,
      "start": 50.456,
      "duration": 0.0788,
      "velocity": 93,
      "chip": "ym2612"
    },
    {
      "channel": 5,
      "note": 59,
      "start": 50.4588,
      "duration": 0.2686,
      "velocity": 107,
      "chip": "ym2612"
    },
    {
      "channel": 1,
      "note": 74,
      "start": 50.5835,
      "duration": 0.0788,
      "velocity": 93,
      "chip": "ym2612"
    },
    {
      "channel": 0,
      "note": 78,
      "start": 50.6464,
      "duration": 0.0788,
      "velocity": 93,
      "chip": "ym2612"
    },
    {
      "channel": 1,
      "note": 78,
      "start": 50.7739,
      "duration": 0.0788,
      "velocity": 93,
      "chip": "ym2612"
    },
    {
      "channel": 0,
      "note": 74,
      "start": 50.837,
      "duration": 0.0788,
      "velocity": 93,
      "chip": "ym2612"
    },
    {
      "channel": 1,
      "note": 74,
      "start": 50.9644,
      "duration": 0.0788,
      "velocity": 93,
      "chip": "ym2612"
    },
    {
      "channel": 0,
      "note": 73,
      "start": 51.0275,
      "duration": 0.0788,
      "velocity": 93,
      "chip": "ym2612"
    },
    {
      "channel": 2,
      "note": 69,
      "start": 51.0289,
      "duration": 0.7291,
      "velocity": 95,
      "chip": "ym2612"
    },
    {
      "channel": 4,
      "note": 64,
      "start": 51.0304,
      "duration": 0.7283,
      "velocity": 95,
      "chip": "ym2612"
    },
    {
      "channel": 5,
      "note": 57,
      "start": 51.0313,
      "duration": 0.1727,
      "velocity": 107,
      "chip": "ym2612"
    },
    {
      "channel": 1,
      "note": 73,
      "start": 51.155,
      "duration": 0.0788,
      "velocity": 93,
      "chip": "ym2612"
    },
    {
      "channel": 3,
      "note": 69,
      "start": 51.1564,
      "duration": 0.729,
      "velocity": 95,
      "chip": "ym2612"
    },
    {
      "channel": 0,
      "note": 71,
      "start": 51.218,
      "duration": 0.0788,
      "velocity": 93,
      "chip": "ym2612"
    },
    {
      "channel": 1,
      "note": 71,
      "start": 51.3455,
      "duration": 0.0788,
      "velocity": 93,
      "chip": "ym2612"
    },
    {
      "channel": 0,
      "note": 73,
      "start": 51.4085,
      "duration": 0.0788,
      "velocity": 93,
      "chip": "ym2612"
    },
    {
      "channel": 5,
      "note": 57,
      "start": 51.4113,
      "duration": 0.1737,
      "velocity": 107,
      "chip": "ym2612"
    },
    {
      "channel": 1,
      "note": 73,
      "start": 51.536,
      "duration": 0.0788,
      "velocity": 93,
      "chip": "ym2612"
    },
    {
      "channel": 0,
      "note": 69,
      "start": 51.599,
      "duration": 0.0788,
      "velocity": 93,
      "chip": "ym2612"
    },
    {
      "channel": 1,
      "note": 69,
      "start": 51.7265,
      "duration": 0.0788,
      "velocity": 93,
      "chip": "ym2612"
    },
    {
      "channel": 0,
      "note": 73,
      "start": 51.7895,
      "duration": 0.0788,
      "velocity": 93,
      "chip": "ym2612"
    },
    {
      "channel": 5,
      "note": 57,
      "start": 51.7924,
      "duration": 0.1735,
      "velocity": 107,
      "chip": "ym2612"
    },
    {
      "channel": 1,
      "note": 73,
      "start": 51.917,
      "duration": 0.0788,
      "velocity": 93,
      "chip": "ym2612"
    },
    {
      "channel": 0,
      "note": 69,
      "start": 51.98,
      "duration": 0.0788,
      "velocity": 93,
      "chip": "ym2612"
    },
    {
      "channel": 1,
      "note": 69,
      "start": 52.1075,
      "duration": 0.0788,
      "velocity": 93,
      "chip": "ym2612"
    },
    {
      "channel": 0,
      "note": 73,
      "start": 52.1705,
      "duration": 0.0788,
      "velocity": 93,
      "chip": "ym2612"
    },
    {
      "channel": 5,
      "note": 57,
      "start": 52.1733,
      "duration": 0.1737,
      "velocity": 107,
      "chip": "ym2612"
    },
    {
      "channel": 1,
      "note": 73,
      "start": 52.298,
      "duration": 0.0788,
      "velocity": 93,
      "chip": "ym2612"
    },
    {
      "channel": 0,
      "note": 71,
      "start": 52.361,
      "duration": 0.0788,
      "velocity": 93,
      "chip": "ym2612"
    },
    {
      "channel": 1,
      "note": 71,
      "start": 52.4885,
      "duration": 0.0788,
      "velocity": 93,
      "chip": "ym2612"
    },
    {
      "channel": 0,
      "note": 69,
      "start": 52.5515,
      "duration": 0.0788,
      "velocity": 93,
      "chip": "ym2612"
    },
    {
      "channel": 2,
      "note": 76,
      "start": 52.5529,
      "duration": 0.1735,
      "velocity": 95,
      "chip": "ym2612"
    },
    {
      "channel": 4,
      "note": 73,
      "start": 52.5544,
      "duration": 0.1728,
      "velocity": 95,
      "chip": "ym2612"
    },
    {
      "channel": 5,
      "note": 57,
      "start": 52.5552,
      "duration": 0.1721,
      "velocity": 107,
      "chip": "ym2612"
    },
    {
      "channel": 1,
      "note": 69,
      "start": 52.679,
      "duration": 0.0788,
      "velocity": 93,
      "chip": "ym2612"
    },
    {
      "channel": 3,
      "note": 76,
      "start": 52.6804,
      "duration": 0.1735,
      "velocity": 95,
      "chip": "ym2612"
    },
    {
      "channel": 0,
      "note": 64,
      "start": 52.7421,
      "duration": 0.0788,
      "velocity": 93,
      "chip": "ym2612"
    },
    {
      "channel": 1,
      "note": 64,
      "start": 52.8695,
      "duration": 0.0788,
      "velocity": 93,
      "chip": "ym2612"
    },
    {
      "channel": 0,
      "note": 61,
      "start": 52.9325,
      "duration": 0.0788,
      "velocity": 93,
      "chip": "ym2612"
    },
    {
      "channel": 2,
      "note": 78,
      "start": 52.934,
      "duration": 0.348,
      "velocity": 95,
      "chip": "ym2612"
    },
    {
      "channel": 4,
      "note": 73,
      "start": 52.9354,
      "duration": 0.3473,
      "velocity": 95,
      "chip": "ym2612"
    },
    {
      "channel": 5,
      "note": 54,
      "start": 52.9363,
      "duration": 0.1728,
      "velocity": 107,
      "chip": "ym2612"
    },
    {
      "channel": 1,
      "note": 61,
      "start": 53.06,
      "duration": 0.0788,
      "velocity": 93,
      "chip": "ym2612"
    },
    {
      "channel": 3,
      "note": 78,
      "start": 53.0615,
      "duration": 0.3481,
      "velocity": 95,
      "chip": "ym2612"
    },
    {
      "channel": 0,
      "note": 59,
      "start": 53.123,
      "duration": 0.0788,
      "velocity": 93,
      "chip": "ym2612"
    },
    {
      "channel": 1,
      "note": 59,
      "start": 53.2505,
      "duration": 0.0788,
      "velocity": 93,
      "chip": "ym2612"
    },
    {
      "channel": 0,
      "note": 61,
      "start": 53.3136,
      "duration": 0.0788,
      "velocity": 93,
      "chip": "ym2612"
    },
    {
      "channel": 5,
      "note": 54,
      "start": 53.3164,
      "duration": 0.1737,
      "velocity": 107,
      "chip": "ym2612"
    },
    {
      "channel": 1,
      "note": 61,
      "start": 53.441,
      "duration": 0.0788,
      "velocity": 93,
      "chip": "ym2612"
    },
    {
      "channel": 0,
      "note": 66,
      "start": 53.504,
      "duration": 0.0788,
      "velocity": 93,
      "chip": "ym2612"
    },
    {
      "channel": 1,
      "note": 66,
      "start": 53.6315,
      "duration": 0.0788,
      "velocity": 93,
      "chip": "ym2612"
    },
    {
      "channel": 0,
      "note": 69,
      "start": 53.6945,
      "duration": 0.0788,
      "velocity": 93,
      "chip": "ym2612"
    },
    {
      "channel": 2,
      "note": 78,
      "start": 53.6959,
      "duration": 0.3482,
      "velocity": 95,
      "chip": "ym2612"
    },
    {
      "channel": 4,
      "note": 73,
      "start": 53.6972,
      "duration": 0.3475,
      "velocity": 95,
      "chip": "ym2612"
    },
    {
      "channel": 5,
      "note": 54,
      "start": 53.6982,
      "duration": 0.0773,
      "velocity": 107,
      "chip": "ym2612"
    },
    {
      "channel": 1,
      "note": 69,
      "start": 53.822,
      "duration": 0.0788,
      "velocity": 93,
      "chip": "ym2612"
    },
    {
      "channel": 3,
      "note": 78,
      "start": 53.8234,
      "duration": 0.3482,
      "velocity": 95,
      "chip": "ym2612"
    },
    {
      "channel": 0,
      "note": 71,
      "start": 53.8851,
      "duration": 0.0788,
      "velocity": 93,
      "chip": "ym2612"
    },
    {
      "channel": 5,
      "note": 66,
      "start": 53.8879,
      "duration": 0.0781,
      "velocity": 107,
      "chip": "ym2612"
    },
    {
      "channel": 1,
      "note": 71,
      "start": 54.0125,
      "duration": 0.0788,
      "velocity": 93,
      "chip": "ym2612"
    },
    {
      "channel": 0,
      "note": 73,
      "start": 54.0755,
      "duration": 0.0788,
      "velocity": 93,
      "chip": "ym2612"
    },
    {
      "channel": 5,
      "note": 52,
      "start": 54.0783,
      "duration": 0.0781,
      "velocity": 107,
      "chip": "ym2612"
    },
    {
      "channel": 1,
      "note": 73,
      "start": 54.2031,
      "duration": 0.0788,
      "velocity": 93,
      "chip": "ym2612"
    },
    {
      "channel": 0,
      "note": 69,
      "start": 54.266,
      "duration": 0.0788,
      "velocity": 93,
      "chip": "ym2612"
    },
    {
      "channel": 5,
      "note": 50,
      "start": 54.2689,
      "duration": 0.078,
      "velocity": 107,
      "chip": "ym2612"
    },
    {
      "channel": 1,
      "note": 69,
      "start": 54.3935,
      "duration": 0.0788,
      "velocity": 93,
      "chip": "ym2612"
    },
    {
      "channel": 0,
      "note": 68,
      "start": 54.4566,
      "duration": 0.0788,
      "velocity": 93,
      "chip": "ym2612"
    },
    {
      "channel": 2,
      "note": 76,
      "start": 54.4579,
      "duration": 0.3482,
      "velocity": 95,
      "chip": "ym2612"
    },
    {
      "channel": 4,
      "note": 73,
      "start": 54.4592,
      "duration": 0.3475,
      "velocity": 95,
      "chip": "ym2612"
    },
    {
      "channel": 5,
      "note": 49,
      "start": 54.4602,
      "duration": 0.1729,
      "velocity": 107,
      "chip": "ym2612"
    },
    {
      "channel": 1,
      "note": 68,
      "start": 54.584,
      "duration": 0.0788,
      "velocity": 93,
      "chip": "ym2612"
    },
    {
      "channel": 3,
      "note": 76,
      "start": 54.5854,
      "duration": 0.3482,
      "velocity": 95,
      "chip": "ym2612"
    },
    {
      "channel": 0,
      "note": 64,
      "start": 54.6471,
      "duration": 0.0788,
      "velocity": 93,
      "chip": "ym2612"
    },
    {
      "channel": 1,
      "note": 64,
      "start": 54.7745,
      "duration": 0.0788,
      "velocity": 93,
      "chip": "ym2612"
    },
    {
      "channel": 0,
      "note": 61,
      "start": 54.8376,
      "duration": 0.0788,
      "velocity": 93,
      "chip": "ym2612"
    },
    {
      "channel": 5,
      "note": 49,
      "start": 54.8404,
      "duration": 0.1736,
      "velocity": 107,
      "chip": "ym2612"
    },
    {
      "channel": 1,
      "note": 61,
      "start": 54.965,
      "duration": 0.0788,
      "velocity": 93,
      "chip": "ym2612"
    },
    {
      "channel": 0,
      "note": 64,
      "start": 55.0281,
      "duration": 0.0788,
      "velocity": 93,
      "chip": "ym2612"
    },
    {
      "channel": 1,
      "note": 64,
      "start": 55.1556,
      "duration": 0.0788,
      "velocity": 93,
      "chip": "ym2612"
    },
    {
      "channel": 0,
      "note": 68,
      "start": 55.2186,
      "duration": 0.0788,
      "velocity": 93,
      "chip": "ym2612"
    },
    {
      "channel": 2,
      "note": 76,
      "start": 55.2199,
      "duration": 0.3481,
      "velocity": 95,
      "chip": "ym2612"
    },
    {
      "channel": 4,
      "note": 73,
      "start": 55.2213,
      "duration": 0.3474,
      "velocity": 95,
      "chip": "ym2612"
    },
    {
      "channel": 5,
      "note": 49,
      "start": 55.2222,
      "duration": 0.173,
      "velocity": 107,
      "chip": "ym2612"
    },
    {
      "channel": 1,
      "note": 68,
      "start": 55.3461,
      "duration": 0.0788,
      "velocity": 93,
      "chip": "ym2612"
    },
    {
      "channel": 3,
      "note": 76,
      "start": 55.3474,
      "duration": 0.3482,
      "velocity": 95,
      "chip": "ym2612"
    },
    {
      "channel": 0,
      "note": 68,
      "start": 55.409,
      "duration": 0.0788,
      "velocity": 93,
      "chip": "ym2612"
    },
    {
      "channel": 1,
      "note": 68,
      "start": 55.5366,
      "duration": 0.0788,
      "velocity": 93,
      "chip": "ym2612"
    },
    {
      "channel": 0,
      "note": 69,
      "start": 55.5996,
      "duration": 0.0788,
      "velocity": 93,
      "chip": "ym2612"
    },
    {
      "channel": 5,
      "note": 49,
      "start": 55.6024,
      "duration": 0.1737,
      "velocity": 107,
      "chip": "ym2612"
    },
    {
      "channel": 1,
      "note": 69,
      "start": 55.7271,
      "duration": 0.0788,
      "velocity": 93,
      "chip": "ym2612"
    },
    {
      "channel": 0,
      "note": 71,
      "start": 55.7901,
      "duration": 0.0788,
      "velocity": 93,
      "chip": "ym2612"
    },
    {
      "channel": 1,
      "note": 71,
      "start": 55.9176,
      "duration": 0.0787,
      "velocity": 93,
      "chip": "ym2612"
    },
    {
      "channel": 0,
      "note": 66,
      "start": 55.9805,
      "duration": 0.0788,
      "velocity": 93,
      "chip": "ym2612"
    },
    {
      "channel": 2,
      "note": 78,
      "start": 55.982,
      "duration": 0.1736,
      "velocity": 95,
      "chip": "ym2612"
    },
    {
      "channel": 4,
      "note": 69,
      "start": 55.9835,
      "duration": 0.1728,
      "velocity": 95,
      "chip": "ym2612"
    },
    {
      "channel": 5,
      "note": 50,
      "start": 55.9844,
      "duration": 0.0771,
      "velocity": 107,
      "chip": "ym2612"
    },
    {
      "channel": 1,
      "note": 66,
      "start": 56.1081,
      "duration": 0.0788,
      "velocity": 93,
      "chip": "ym2612"
    },
    {
      "channel": 3,
      "note": 78,
      "start": 56.1095,
      "duration": 0.1735,
      "velocity": 95,
      "chip": "ym2612"
    },
    {
      "channel": 0,
      "note": 66,
      "start": 56.1711,
      "duration": 0.0788,
      "velocity": 93,
      "chip": "ym2612"
    },
    {
      "channel": 5,
      "note": 50,
      "start": 56.174,
      "duration": 0.078,
      "velocity": 107,
      "chip": "ym2612"
    },
    {
      "channel": 1,
      "note": 66,
      "start": 56.2986,
      "duration": 0.0788,
      "velocity": 93,
      "chip": "ym2612"
    },
    {
      "channel": 0,
      "note": 69,
      "start": 56.3616,
      "duration": 0.0788,
      "velocity": 93,
      "chip": "ym2612"
    },
    {
      "channel": 2,
      "note": 78,
      "start": 56.3629,
      "duration": 0.1737,
      "velocity": 95,
      "chip": "ym2612"
    },
    {
      "channel": 4,
      "note": 69,
      "start": 56.3643,
      "duration": 0.1729,
      "velocity": 95,
      "chip": "ym2612"
    },
    {
      "channel": 1,
      "note": 69,
      "start": 56.4891,
      "duration": 0.0788,
      "velocity": 93,
      "chip": "ym2612"
    },
    {
      "channel": 3,
      "note": 78,
      "start": 56.4905,
      "duration": 0.1736,
      "velocity": 95,
      "chip": "ym2612"
    },
    {
      "channel": 0,
      "note": 73,
      "start": 56.5521,
      "duration": 0.0788,
      "velocity": 93,
      "chip": "ym2612"
    },
    {
      "channel": 5,
      "note": 50,
      "start": 56.555,
      "duration": 0.0781,
      "velocity": 107,
      "chip": "ym2612"
    },
    {
      "channel": 1,
      "note": 73,
      "start": 56.6796,
      "duration": 0.0788,
      "velocity": 93,
      "chip": "ym2612"
    },
    {
      "channel": 0,
      "note": 69,
      "start": 56.7426,
      "duration": 0.0788,
      "velocity": 93,
      "chip": "ym2612"
    },
    {
      "channel": 2,
      "note": 78,
      "start": 56.744,
      "duration": 0.1736,
      "velocity": 95,
      "chip": "ym2612"
    },
    {
      "channel": 4,
      "note": 69,
      "start": 56.7454,
      "duration": 0.1729,
      "velocity": 95,
      "chip": "ym2612"
    },
    {
      "channel": 1,
      "note": 69,
      "start": 56.8701,
      "duration": 0.0788,
      "velocity": 93,
      "chip": "ym2612"
    },
    {
      "channel": 3,
      "note": 78,
      "start": 56.8715,
      "duration": 0.1737,
      "velocity": 95,
      "chip": "ym2612"
    },
    {
      "channel": 0,
      "note": 69,
      "start": 56.9332,
      "duration": 0.0788,
      "velocity": 93,
      "chip": "ym2612"
    },
    {
      "channel": 5,
      "note": 50,
      "start": 56.9361,
      "duration": 0.1735,
      "velocity": 107,
      "chip": "ym2612"
    },
    {
      "channel": 1,
      "note": 69,
      "start": 57.0606,
      "duration": 0.0788,
      "velocity": 93,
      "chip": "ym2612"
    },
    {
      "channel": 0,
      "note": 73,
      "start": 57.1236,
      "duration": 0.0788,
      "velocity": 93,
      "chip": "ym2612"
    },
    {
      "channel": 2,
      "note": 78,
      "start": 57.1249,
      "duration": 0.1737,
      "velocity": 95,
      "chip": "ym2612"
    },
    {
      "channel": 4,
      "note": 69,
      "start": 57.1263,
      "duration": 0.173,
      "velocity": 95,
      "chip": "ym2612"
    },
    {
      "channel": 1,
      "note": 73,
      "start": 57.2512,
      "duration": 0.0788,
      "velocity": 93,
      "chip": "ym2612"
    },
    {
      "channel": 3,
      "note": 78,
      "start": 57.2525,
      "duration": 0.1736,
      "velocity": 95,
      "chip": "ym2612"
    },
    {
      "channel": 0,
      "note": 78,
      "start": 57.3141,
      "duration": 0.0788,
      "velocity": 93,
      "chip": "ym2612"
    },
    {
      "channel": 5,
      "note": 50,
      "start": 57.3171,
      "duration": 0.0779,
      "velocity": 107,
      "chip": "ym2612"
    },
    {
      "channel": 1,
      "note": 78,
      "start": 57.4416,
      "duration": 0.0788,
      "velocity": 93,
      "chip": "ym2612"
    },
    {
      "channel": 0,
      "note": 81,
      "start": 57.5047,
      "duration": 0.539,
      "velocity": 93,
      "chip": "ym2612"
    },
    {
      "channel": 2,
      "note": 78,
      "start": 57.5061,
      "duration": 0.1736,
      "velocity": 95,
      "chip": "ym2612"
    },
    {
      "channel": 4,
      "note": 69,
      "start": 57.5075,
      "duration": 0.1728,
      "velocity": 95,
      "chip": "ym2612"
    },
    {
      "channel": 5,
      "note": 54,
      "start": 57.5083,
      "duration": 0.0776,
      "velocity": 107,
      "chip": "ym2612"
    },
    {
      "channel": 1,
      "note": 81,
      "start": 57.6322,
      "duration": 0.5389,
      "velocity": 93,
      "chip": "ym2612"
    },
    {
      "channel": 3,
      "note": 78,
      "start": 57.6336,
      "duration": 0.1735,
      "velocity": 95,
      "chip": "ym2612"
    },
    {
      "channel": 5,
      "note": 54,
      "start": 57.6976,
      "duration": 0.0788,
      "velocity": 107,
      "chip": "ym2612"
    },
    {
      "channel": 2,
      "note": 78,
      "start": 57.8866,
      "duration": 0.174,
      "velocity": 95,
      "chip": "ym2612"
    },
    {
      "channel": 4,
      "note": 69,
      "start": 57.888,
      "duration": 0.1734,
      "velocity": 95,
      "chip": "ym2612"
    },
    {
      "channel": 5,
      "note": 54,
      "start": 57.8889,
      "duration": 0.1725,
      "velocity": 107,
      "chip": "ym2612"
    },
    {
      "channel": 3,
      "note": 78,
      "start": 58.0141,
      "duration": 0.174,
      "velocity": 95,
      "chip": "ym2612"
    },
    {
      "channel": 2,
      "note": 78,
      "start": 58.2676,
      "duration": 0.174,
      "velocity": 95,
      "chip": "ym2612"
    },
    {
      "channel": 4,
      "note": 69,
      "start": 58.269,
      "duration": 0.1733,
      "velocity": 95,
      "chip": "ym2612"
    },
    {
      "channel": 5,
      "note": 54,
      "start": 58.2699,
      "duration": 0.078,
      "velocity": 107,
      "chip": "ym2612"
    },
    {
      "channel": 3,
      "note": 78,
      "start": 58.3951,
      "duration": 0.174,
      "velocity": 95,
      "chip": "ym2612"
    },
    {
      "channel": 5,
      "note": 54,
      "start": 58.4597,
      "duration": 0.0788,
      "velocity": 107,
      "chip": "ym2612"
    },
    {
      "channel": 0,
      "note": 83,
      "start": 58.6477,
      "duration": 0.3803,
      "velocity": 93,
      "chip": "ym2612"
    },
    {
      "channel": 2,
      "note": 78,
      "start": 58.6491,
      "duration": 0.1736,
      "velocity": 95,
      "chip": "ym2612"
    },
    {
      "channel": 4,
      "note": 69,
      "start": 58.6505,
      "duration": 0.1728,
      "velocity": 95,
      "chip": "ym2612"
    },
    {
      "channel": 5,
      "note": 54,
      "start": 58.6514,
      "duration": 0.1722,
      "velocity": 107,
      "chip": "ym2612"
    },
    {
      "channel": 1,
      "note": 83,
      "start": 58.7753,
      "duration": 0.3803,
      "velocity": 93,
      "chip": "ym2612"
    },
    {
      "channel": 3,
      "note": 78,
      "start": 58.7766,
      "duration": 0.1736,
      "velocity": 95,
      "chip": "ym2612"
    },
    {
      "channel": 0,
      "note": 83,
      "start": 59.0288,
      "duration": 0.7294,
      "velocity": 93,
      "chip": "ym2612"
    },
    {
      "channel": 2,
      "note": 78,
      "start": 59.0302,
      "duration": 0.0782,
      "velocity": 95,
      "chip": "ym2612"
    },
    {
      "channel": 4,
      "note": 71,
      "start": 59.0317,
      "duration": 0.3474,
      "velocity": 95,
      "chip": "ym2612"
    },
    {
      "channel": 5,
      "note": 59,
      "start": 59.0325,
      "duration": 0.1727,
      "velocity": 107,
      "chip": "ym2612"
    },
    {
      "channel": 1,
      "note": 83,
      "start": 59.1562,
      "duration": 0.7295,
      "velocity": 93,
      "chip": "ym2612"
    },
    {
      "channel": 3,
      "note": 78,
      "start": 59.1577,
      "duration": 0.0782,
      "velocity": 95,
      "chip": "ym2612"
    },
    {
      "channel": 2,
      "note": 75,
      "start": 59.2201,
      "duration": 0.0788,
      "velocity": 95,
      "chip": "ym2612"
    },
    {
      "channel": 3,
      "note": 75,
      "start": 59.3477,
      "duration": 0.0788,
      "velocity": 95,
      "chip": "ym2612"
    },
    {
      "channel": 2,
      "note": 78,
      "start": 59.4106,
      "duration": 0.0788,
      "velocity": 95,
      "chip": "ym2612"
    },
    {
      "channel": 5,
      "note": 59,
      "start": 59.4125,
      "duration": 0.078,
      "velocity": 107,
      "chip": "ym2612"
    },
    {
      "channel": 3,
      "note": 78,
      "start": 59.5382,
      "duration": 0.0788,
      "velocity": 95,
      "chip": "ym2612"
    },
    {
      "channel": 2,
      "note": 76,
      "start": 59.6012,
      "duration": 0.0788,
      "velocity": 95,
      "chip": "ym2612"
    },
    {
      "channel": 3,
      "note": 76,
      "start": 59.7286,
      "duration": 0.0788,
      "velocity": 95,
      "chip": "ym2612"
    },
    {
      "channel": 2,
      "note": 75,
      "start": 59.7917,
      "duration": 0.0788,
      "velocity": 95,
      "chip": "ym2612"
    },
    {
      "channel": 4,
      "note": 71,
      "start": 59.793,
      "duration": 0.3482,
      "velocity": 95,
      "chip": "ym2612"
    },
    {
      "channel": 3,
      "note": 75,
      "start": 59.9192,
      "duration": 0.0788,
      "velocity": 95,
      "chip": "ym2612"
    },
    {
      "channel": 2,
      "note": 73,
      "start": 59.9821,
      "duration": 0.0788,
      "velocity": 95,
      "chip": "ym2612"
    },
    {
      "channel": 5,
      "note": 59,
      "start": 59.984,
      "duration": 0.1736,
      "velocity": 107,
      "chip": "ym2612"
    },
    {
      "channel": 3,
      "note": 73,
      "start": 60.1096,
      "duration": 0.0788,
      "velocity": 95,
      "chip": "ym2612"
    },
    {
      "channel": 2,
      "note": 71,
      "start": 60.1727,
      "duration": 0.174,
      "velocity": 95,
      "chip": "ym2612"
    },
    {
      "channel": 3,
      "note": 71,
      "start": 60.3003,
      "duration": 0.1739,
      "velocity": 95,
      "chip": "ym2612"
    },
    {
      "channel": 5,
      "note": 59,
      "start": 60.3648,
      "duration": 0.0786,
      "velocity": 107,
      "chip": "ym2612"
    },
    {
      "channel": 0,
      "note": 83,
      "start": 60.5528,
      "duration": 0.0787,
      "velocity": 93,
      "chip": "ym2612"
    },
    {
      "channel": 2,
      "note": 71,
      "start": 60.5542,
      "duration": 0.0779,
      "velocity": 95,
      "chip": "ym2612"
    },
    {
      "channel": 4,
      "note": 66,
      "start": 60.5556,
      "duration": 0.3476,
      "velocity": 95,
      "chip": "ym2612"
    },
    {
      "channel": 5,
      "note": 59,
      "start": 60.5566,
      "duration": 0.1727,
      "velocity": 107,
      "chip": "ym2612"
    },
    {
      "channel": 1,
      "note": 83,
      "start": 60.6803,
      "duration": 0.0787,
      "velocity": 93,
      "chip": "ym2612"
    },
    {
      "channel": 3,
      "note": 71,
      "start": 60.6817,
      "duration": 0.0779,
      "velocity": 95,
      "chip": "ym2612"
    },
    {
      "channel": 0,
      "note": 82,
      "start": 60.7432,
      "duration": 0.0788,
      "velocity": 93,
      "chip": "ym2612"
    },
    {
      "channel": 2,
      "note": 70,
      "start": 60.7445,
      "duration": 0.0781,
      "velocity": 95,
      "chip": "ym2612"
    },
    {
      "channel": 1,
      "note": 82,
      "start": 60.8707,
      "duration": 0.0788,
      "velocity": 93,
      "chip": "ym2612"
    },
    {
      "channel": 3,
      "note": 70,
      "start": 60.8721,
      "duration": 0.078,
      "velocity": 95,
      "chip": "ym2612"
    },
    {
      "channel": 0,
      "note": 83,
      "start": 60.9337,
      "duration": 0.0788,
      "velocity": 93,
      "chip": "ym2612"
    },
    {
      "channel": 2,
      "note": 71,
      "start": 60.9351,
      "duration": 0.078,
      "velocity": 95,
      "chip": "ym2612"
    },
    {
      "channel": 5,
      "note": 59,
      "start": 60.9369,
      "duration": 0.1732,
      "velocity": 107,
      "chip": "ym2612"
    },
    {
      "channel": 1,
      "note": 83,
      "start": 61.0612,
      "duration": 0.0788,
      "velocity": 93,
      "chip": "ym2612"
    },
    {
      "channel": 3,
      "note": 71,
      "start": 61.0625,
      "duration": 0.078,
      "velocity": 95,
      "chip": "ym2612"
    },
    {
      "channel": 0,
      "note": 78,
      "start": 61.1242,
      "duration": 0.0788,
      "velocity": 93,
      "chip": "ym2612"
    },
    {
      "channel": 2,
      "note": 73,
      "start": 61.1255,
      "duration": 0.0781,
      "velocity": 95,
      "chip": "ym2612"
    },
    {
      "channel": 1,
      "note": 78,
      "start": 61.2517,
      "duration": 0.0788,
      "velocity": 93,
      "chip": "ym2612"
    },
    {
      "channel": 3,
      "note": 73,
      "start": 61.2531,
      "duration": 0.078,
      "velocity": 95,
      "chip": "ym2612"
    },
    {
      "channel": 0,
      "note": 87,
      "start": 61.3147,
      "duration": 0.0788,
      "velocity": 93,
      "chip": "ym2612"
    },
    {
      "channel": 2,
      "note": 75,
      "start": 61.316,
      "duration": 0.0781,
      "velocity": 95,
      "chip": "ym2612"
    },
    {
      "channel": 4,
      "note": 66,
      "start": 61.3174,
      "duration": 0.3478,
      "velocity": 95,
      "chip": "ym2612"
    },
    {
      "channel": 5,
      "note": 59,
      "start": 61.3183,
      "duration": 0.1729,
      "velocity": 107,
      "chip": "ym2612"
    },
    {
      "channel": 1,
      "note": 87,
      "start": 61.4422,
      "duration": 0.0787,
      "velocity": 93,
      "chip": "ym2612"
    },
    {
      "channel": 3,
      "note": 75,
      "start": 61.4436,
      "duration": 0.078,
      "velocity": 95,
      "chip": "ym2612"
    },
    {
      "channel": 0,
      "note": 85,
      "start": 61.5052,
      "duration": 0.0788,
      "velocity": 93,
      "chip": "ym2612"
    },
    {
      "channel": 2,
      "note": 76,
      "start": 61.5066,
      "duration": 0.0781,
      "velocity": 95,
      "chip": "ym2612"
    },
    {
      "channel": 1,
      "note": 85,
      "start": 61.6327,
      "duration": 0.0788,
      "velocity": 93,
      "chip": "ym2612"
    },
    {
      "channel": 3,
      "note": 76,
      "start": 61.6341,
      "duration": 0.078,
      "velocity": 95,
      "chip": "ym2612"
    },
    {
      "channel": 0,
      "note": 83,
      "start": 61.6958,
      "duration": 0.0788,
      "velocity": 93,
      "chip": "ym2612"
    },
    {
      "channel": 2,
      "note": 78,
      "start": 61.6971,
      "duration": 0.0781,
      "velocity": 95,
      "chip": "ym2612"
    },
    {
      "channel": 5,
      "note": 59,
      "start": 61.6989,
      "duration": 0.1732,
      "velocity": 107,
      "chip": "ym2612"
    },
    {
      "channel": 1,
      "note": 83,
      "start": 61.8232,
      "duration": 0.0788,
      "velocity": 93,
      "chip": "ym2612"
    },
    {
      "channel": 3,
      "note": 78,
      "start": 61.8246,
      "duration": 0.0781,
      "velocity": 95,
      "chip": "ym2612"
    },
    {
      "channel": 0,
      "note": 78,
      "start": 61.8862,
      "duration": 0.0788,
      "velocity": 93,
      "chip": "ym2612"
    },
    {
      "channel": 2,
      "note": 66,
      "start": 61.8876,
      "duration": 0.0781,
      "velocity": 95,
      "chip": "ym2612"
    },
    {
      "channel": 1,
      "note": 78,
      "start": 62.0137,
      "duration": 0.0788,
      "velocity": 93,
      "chip": "ym2612"
    },
    {
      "channel": 3,
      "note": 66,
      "start": 62.0151,
      "duration": 0.0781,
      "velocity": 95,
      "chip": "ym2612"
    },
    {
      "channel": 0,
      "note": 80,
      "start": 62.0768,
      "duration": 0.3485,
      "velocity": 93,
      "chip": "ym2612"
    },
    {
      "channel": 2,
      "note": 72,
      "start": 62.0783,
      "duration": 0.5385,
      "velocity": 95,
      "chip": "ym2612"
    },
    {
      "channel": 4,
      "note": 75,
      "start": 62.0797,
      "duration": 0.5377,
      "velocity": 95,
      "chip": "ym2612"
    },
    {
      "channel": 5,
      "note": 56,
      "start": 62.0806,
      "duration": 0.2679,
      "velocity": 107,
      "chip": "ym2612"
    },
    {
      "channel": 1,
      "note": 80,
      "start": 62.2043,
      "duration": 0.3485,
      "velocity": 93,
      "chip": "ym2612"
    },
    {
      "channel": 3,
      "note": 72,
      "start": 62.2057,
      "duration": 0.5385,
      "velocity": 95,
      "chip": "ym2612"
    },
    {
      "channel": 5,
      "note": 56,
      "start": 62.6508,
      "duration": 0.0786,
      "velocity": 107,
      "chip": "ym2612"
    },
    {
      "channel": 0,
      "note": 70,
      "start": 62.8388,
      "duration": 0.3485,
      "velocity": 93,
      "chip": "ym2612"
    },
    {
      "channel": 1,
      "note": 70,
      "start": 62.9662,
      "duration": 0.3486,
      "velocity": 93,
      "chip": "ym2612"
    },
    {
      "channel": 5,
      "note": 56,
      "start": 63.0317,
      "duration": 0.0788,
      "velocity": 107,
      "chip": "ym2612"
    },
    {
      "channel": 2,
      "note": 72,
      "start": 63.2207,
      "duration": 0.174,
      "velocity": 95,
      "chip": "ym2612"
    },
    {
      "channel": 4,
      "note": 75,
      "start": 63.2222,
      "duration": 0.1732,
      "velocity": 95,
      "chip": "ym2612"
    },
    {
      "channel": 5,
      "note": 68,
      "start": 63.2231,
      "duration": 0.0779,
      "velocity": 107,
      "chip": "ym2612"
    },
    {
      "channel": 3,
      "note": 72,
      "start": 63.3483,
      "duration": 0.174,
      "velocity": 95,
      "chip": "ym2612"
    },
    {
      "channel": 5,
      "note": 56,
      "start": 63.4128,
      "duration": 0.0787,
      "velocity": 107,
      "chip": "ym2612"
    },
    {
      "channel": 0,
      "note": 72,
      "start": 63.6008,
      "duration": 0.3485,
      "velocity": 93,
      "chip": "ym2612"
    },
    {
      "channel": 5,
      "note": 56,
      "start": 63.6033,
      "duration": 0.1727,
      "velocity": 107,
      "chip": "ym2612"
    },
    {
      "channel": 1,
      "note": 72,
      "start": 63.7283,
      "duration": 0.3486,
      "velocity": 93,
      "chip": "ym2612"
    },
    {
      "channel": 5,
      "note": 56,
      "start": 63.983,
      "duration": 0.174,
      "velocity": 107,
      "chip": "ym2612"
    },
    {
      "channel": 0,
      "note": 75,
      "start": 64.3628,
      "duration": 0.3485,
      "velocity": 93,
      "chip": "ym2612"
    },
    {
      "channel": 5,
      "note": 56,
      "start": 64.3644,
      "duration": 0.1737,
      "velocity": 107,
      "chip": "ym2612"
    },
    {
      "channel": 1,
      "note": 75,
      "start": 64.4903,
      "duration": 0.3486,
      "velocity": 93,
      "chip": "ym2612"
    },
    {
      "channel": 2,
      "note": 72,
      "start": 64.7448,
      "duration": 0.174,
      "velocity": 95,
      "chip": "ym2612"
    },
    {
      "channel": 4,
      "note": 75,
      "start": 64.7459,
      "duration": 0.1735,
      "velocity": 95,
      "chip": "ym2612"
    },
    {
      "channel": 5,
      "note": 56,
      "start": 64.7468,
      "duration": 0.0777,
      "velocity": 107,
      "chip": "ym2612"
    },
    {
      "channel": 3,
      "note": 72,
      "start": 64.8723,
      "duration": 0.174,
      "velocity": 95,
      "chip": "ym2612"
    },
    {
      "channel": 5,
      "note": 56,
      "start": 64.9368,
      "duration": 0.0788,
      "velocity": 107,
      "chip": "ym2612"
    },
    {
      "channel": 0,
      "note": 76,
      "start": 65.1248,
      "duration": 0.3486,
      "velocity": 93,
      "chip": "ym2612"
    },
    {
      "channel": 2,
      "note": 73,
      "start": 65.1262,
      "duration": 0.5386,
      "velocity": 95,
      "chip": "ym2612"
    },
    {
      "channel": 4,
      "note": 68,
      "start": 65.1277,
      "duration": 0.5378,
      "velocity": 95,
      "chip": "ym2612"
    },
    {
      "channel": 5,
      "note": 61,
      "start": 65.1286,
      "duration": 0.1728,
      "velocity": 107,
      "chip": "ym2612"
    },
    {
      "channel": 1,
      "note": 76,
      "start": 65.2523,
      "duration": 0.3486,
      "velocity": 93,
      "chip": "ym2612"
    },
    {
      "channel": 3,
      "note": 73,
      "start": 65.2538,
      "duration": 0.5385,
      "velocity": 95,
      "chip": "ym2612"
    },
    {
      "channel": 5,
      "note": 61,
      "start": 65.5083,
      "duration": 0.174,
      "velocity": 107,
      "chip": "ym2612"
    },
    {
      "channel": 0,
      "note": 76,
      "start": 65.8868,
      "duration": 0.3486,
      "velocity": 93,
      "chip": "ym2612"
    },
    {
      "channel": 5,
      "note": 61,
      "start": 65.8896,
      "duration": 0.1737,
      "velocity": 107,
      "chip": "ym2612"
    },
    {
      "channel": 1,
      "note": 76,
      "start": 66.0143,
      "duration": 0.3485,
      "velocity": 93,
      "chip": "ym2612"
    },
    {
      "channel": 2,
      "note": 73,
      "start": 66.2688,
      "duration": 0.5391,
      "velocity": 95,
      "chip": "ym2612"
    },
    {
      "channel": 4,
      "note": 68,
      "start": 66.2702,
      "duration": 0.5383,
      "velocity": 95,
      "chip": "ym2612"
    },
    {
      "channel": 5,
      "note": 61,
      "start": 66.2711,
      "duration": 0.0779,
      "velocity": 107,
      "chip": "ym2612"
    },
    {
      "channel": 3,
      "note": 73,
      "start": 66.3963,
      "duration": 0.539,
      "velocity": 95,
      "chip": "ym2612"
    },
    {
      "channel": 5,
      "note": 61,
      "start": 66.4608,
      "duration": 0.0788,
      "velocity": 107,
      "chip": "ym2612"
    },
    {
      "channel": 0,
      "note": 78,
      "start": 66.6488,
      "duration": 0.3486,
      "velocity": 93,
      "chip": "ym2612"
    },
    {
      "channel": 5,
      "note": 61,
      "start": 66.6517,
      "duration": 0.1736,
      "velocity": 107,
      "chip": "ym2612"
    },
    {
      "channel": 1,
      "note": 78,
      "start": 66.7763,
      "duration": 0.3485,
      "velocity": 93,
      "chip": "ym2612"
    },
    {
      "channel": 5,
      "note": 61,
      "start": 67.0323,
      "duration": 0.174,
      "velocity": 107,
      "chip": "ym2612"
    },
    {
      "channel": 0,
      "note": 80,
      "start": 67.4108,
      "duration": 0.3486,
      "velocity": 93,
      "chip": "ym2612"
    },
    {
      "channel": 5,
      "note": 61,
      "start": 67.4134,
      "duration": 0.0778,
      "velocity": 107,
      "chip": "ym2612"
    },
    {
      "channel": 1,
      "note": 80,
      "start": 67.5384,
      "duration": 0.3485,
      "velocity": 93,
      "chip": "ym2612"
    },
    {
      "channel": 5,
      "note": 61,
      "start": 67.6026,
      "duration": 0.0788,
      "velocity": 107,
      "chip": "ym2612"
    },
    {
      "channel": 5,
      "note": 61,
      "start": 67.7932,
      "duration": 0.174,
      "velocity": 107,
      "chip": "ym2612"
    },
    {
      "channel": 0,
      "note": 73,
      "start": 68.173,
      "duration": 0.7295,
      "velocity": 93,
      "chip": "ym2612"
    },
    {
      "channel": 2,
      "note": 73,
      "start": 68.1744,
      "duration": 0.348,
      "velocity": 95,
      "chip": "ym2612"
    },
    {
      "channel": 4,
      "note": 69,
      "start": 68.1754,
      "duration": 0.3476,
      "velocity": 95,
      "chip": "ym2612"
    },
    {
      "channel": 5,
      "note": 57,
      "start": 68.1763,
      "duration": 0.3468,
      "velocity": 107,
      "chip": "ym2612"
    },
    {
      "channel": 1,
      "note": 73,
      "start": 68.3005,
      "duration": 0.7295,
      "velocity": 93,
      "chip": "ym2612"
    },
    {
      "channel": 3,
      "note": 73,
      "start": 68.3019,
      "duration": 0.348,
      "velocity": 95,
      "chip": "ym2612"
    },
    {
      "channel": 2,
      "note": 66,
      "start": 68.9359,
      "duration": 0.3485,
      "velocity": 95,
      "chip": "ym2612"
    },
    {
      "channel": 4,
      "note": 69,
      "start": 68.9372,
      "duration": 0.3478,
      "velocity": 95,
      "chip": "ym2612"
    },
    {
      "channel": 5,
      "note": 54,
      "start": 68.938,
      "duration": 0.3472,
      "velocity": 107,
      "chip": "ym2612"
    },
    {
      "channel": 3,
      "note": 66,
      "start": 69.0634,
      "duration": 0.3485,
      "velocity": 95,
      "chip": "ym2612"
    },
    {
      "channel": 0,
      "note": 78,
      "start": 69.6969,
      "duration": 0.7296,
      "velocity": 93,
      "chip": "ym2612"
    },
    {
      "channel": 2,
      "note": 75,
      "start": 69.6982,
      "duration": 0.3482,
      "velocity": 95,
      "chip": "ym2612"
    },
    {
      "channel": 4,
      "note": 71,
      "start": 69.6996,
      "duration": 0.3474,
      "velocity": 95,
      "chip": "ym2612"
    },
    {
      "channel": 5,
      "note": 59,
      "start": 69.7005,
      "duration": 0.3468,
      "velocity": 107,
      "chip": "ym2612"
    },
    {
      "channel": 1,
      "note": 78,
      "start": 69.8244,
      "duration": 0.7296,
      "velocity": 93,
      "chip": "ym2612"
    },
    {
      "channel": 3,
      "note": 75,
      "start": 69.8258,
      "duration": 0.3481,
      "velocity": 95,
      "chip": "ym2612"
    },
    {
      "channel": 2,
      "note": 78,
      "start": 70.4599,
      "duration": 0.3485,
      "velocity": 95,
      "chip": "ym2612"
    },
    {
      "channel": 4,
      "note": 75,
      "start": 70.4613,
      "duration": 0.3478,
      "velocity": 95,
      "chip": "ym2612"
    },
    {
      "channel": 5,
      "note": 51,
      "start": 70.4622,
      "duration": 0.3471,
      "velocity": 107,
      "chip": "ym2612"
    },
    {
      "channel": 3,
      "note": 78,
      "start": 70.5874,
      "duration": 0.3485,
      "velocity": 95,
      "chip": "ym2612"
    },
    {
      "channel": 0,
      "note": 76,
      "start": 71.221,
      "duration": 0.7613,
      "velocity": 93,
      "chip": "ym2612"
    },
    {
      "channel": 2,
      "note": 76,
      "start": 71.2223,
      "duration": 0.3481,
      "velocity": 95,
      "chip": "ym2612"
    },
    {
      "channel": 4,
      "note": 80,
      "start": 71.2237,
      "duration": 0.3474,
      "velocity": 95,
      "chip": "ym2612"
    },
    {
      "channel": 5,
      "note": 52,
      "start": 71.2246,
      "duration": 0.3467,
      "velocity": 107,
      "chip": "ym2612"
    },
    {
      "channel": 1,
      "note": 76,
      "start": 71.3485,
      "duration": 0.7612,
      "velocity": 93,
      "chip": "ym2612"
    },
    {
      "channel": 3,
      "note": 76,
      "start": 71.3499,
      "duration": 0.3481,
      "velocity": 95,
      "chip": "ym2612"
    },
    {
      "channel": 2,
      "note": 76,
      "start": 71.9836,
      "duration": 0.3488,
      "velocity": 95,
      "chip": "ym2612"
    },
    {
      "channel": 4,
      "note": 80,
      "start": 71.9849,
      "duration": 0.3482,
      "velocity": 95,
      "chip": "ym2612"
    },
    {
      "channel": 5,
      "note": 52,
      "start": 71.9858,
      "duration": 0.3475,
      "velocity": 107,
      "chip": "ym2612"
    },
    {
      "channel": 3,
      "note": 76,
      "start": 72.1111,
      "duration": 0.3489,
      "velocity": 95,
      "chip": "ym2612"
    },
    {
      "channel": 2,
      "note": 76,
      "start": 72.746,
      "duration": 0.174,
      "velocity": 95,
      "chip": "ym2612"
    },
    {
      "channel": 4,
      "note": 80,
      "start": 72.7475,
      "duration": 0.1732,
      "velocity": 95,
      "chip": "ym2612"
    },
    {
      "channel": 5,
      "note": 52,
      "start": 72.7484,
      "duration": 0.2683,
      "velocity": 107,
      "chip": "ym2612"
    },
    {
      "channel": 3,
      "note": 76,
      "start": 72.8735,
      "duration": 0.174,
      "velocity": 95,
      "chip": "ym2612"
    },
    {
      "channel": 5,
      "note": 64,
      "start": 73.3178,
      "duration": 0.0788,
      "velocity": 107,
      "chip": "ym2612"
    },
    {
      "channel": 5,
      "note": 52,
      "start": 73.5082,
      "duration": 0.0788,
      "velocity": 107,
      "chip": "ym2612"
    },
    {
      "channel": 5,
      "note": 52,
      "start": 73.6988,
      "duration": 0.1739,
      "velocity": 107,
      "chip": "ym2612"
    },
    {
      "channel": 5,
      "note": 52,
      "start": 74.0798,
      "duration": 0.0787,
      "velocity": 107,
      "chip": "ym2612"
    },
    {
      "channel": 0,
      "note": 81,
      "start": 74.2718,
      "duration": 0.0083,
      "velocity": 92,
      "chip": "ym2612"
    },
    {
      "channel": 2,
      "note": 69,
      "start": 74.2733,
      "duration": 0.0068,
      "velocity": 95,
      "chip": "ym2612"
    },
    {
      "channel": 4,
      "note": 64,
      "start": 74.2744,
      "duration": 0.0057,
      "velocity": 95,
      "chip": "ym2612"
    },
    {
      "channel": 5,
      "note": 57,
      "start": 74.2754,
      "duration": 0.0047,
      "velocity": 107,
      "chip": "ym2612"
    }
  ]
}