{
  "track_name": "04 - Radnor's Scheme",
  "duration_sec": 62.006,
  "sample_rate": 44100,
  "note_count": 317,
  "unique_pitches": 26,
  "pitch_range": 36,
  "avg_note_duration": 0.6789,
  "reconstruction_stats": {
    "notes_reconstructed": 317,
    "keyon_events": 317,
    "keyoff_events": 313,
    "orphan_keyons": 4,
    "unique_pitches": 26,
    "pitch_range": 36,
    "avg_duration_sec": 0.6789
  },
  "metadata": {
    "source": "D\\Dune - The Battle for Arrakis\\04 - Radnor's Scheme.vgz"
  },
  "notes": [
    {
      "channel": 0,
      "note": 46,
      "start": 0.0136,
      "duration": 5.059,
      "velocity": 127,
      "chip": "ym2612"
    },
    {
      "channel": 1,
      "note": 46,
      "start": 0.02,
      "duration": 7.5694,
      "velocity": 84,
      "chip": "ym2612"
    },
    {
      "channel": 3,
      "note": 73,
      "start": 0.0266,
      "duration": 1.8296,
      "velocity": 87,
      "chip": "ym2612"
    },
    {
      "channel": 4,
      "note": 61,
      "start": 0.0329,
      "duration": 5.04,
      "velocity": 84,
      "chip": "ym2612"
    },
    {
      "channel": 0,
      "note": 45,
      "start": 5.0755,
      "duration": 5.0472,
      "velocity": 127,
      "chip": "ym2612"
    },
    {
      "channel": 3,
      "note": 72,
      "start": 5.0785,
      "duration": 1.8276,
      "velocity": 87,
      "chip": "ym2612"
    },
    {
      "channel": 4,
      "note": 60,
      "start": 5.081,
      "duration": 5.042,
      "velocity": 84,
      "chip": "ym2612"
    },
    {
      "channel": 1,
      "note": 52,
      "start": 7.5929,
      "duration": 5.2132,
      "velocity": 84,
      "chip": "ym2612"
    },
    {
      "channel": 0,
      "note": 46,
      "start": 10.1256,
      "duration": 5.0471,
      "velocity": 127,
      "chip": "ym2612"
    },
    {
      "channel": 3,
      "note": 73,
      "start": 10.1286,
      "duration": 1.8443,
      "velocity": 87,
      "chip": "ym2612"
    },
    {
      "channel": 4,
      "note": 61,
      "start": 10.131,
      "duration": 5.0419,
      "velocity": 84,
      "chip": "ym2612"
    },
    {
      "channel": 1,
      "note": 53,
      "start": 12.8096,
      "duration": 4.8964,
      "velocity": 84,
      "chip": "ym2612"
    },
    {
      "channel": 3,
      "note": 80,
      "start": 13.8594,
      "duration": 0.6968,
      "velocity": 87,
      "chip": "ym2612"
    },
    {
      "channel": 0,
      "note": 45,
      "start": 15.1756,
      "duration": 5.0637,
      "velocity": 127,
      "chip": "ym2612"
    },
    {
      "channel": 3,
      "note": 81,
      "start": 15.1786,
      "duration": 0.5775,
      "velocity": 87,
      "chip": "ym2612"
    },
    {
      "channel": 4,
      "note": 60,
      "start": 15.1812,
      "duration": 5.0585,
      "velocity": 84,
      "chip": "ym2612"
    },
    {
      "channel": 1,
      "note": 52,
      "start": 17.7093,
      "duration": 2.5302,
      "velocity": 84,
      "chip": "ym2612"
    },
    {
      "channel": 0,
      "note": 59,
      "start": 20.2426,
      "duration": 2.5301,
      "velocity": 127,
      "chip": "ym2612"
    },
    {
      "channel": 1,
      "note": 50,
      "start": 20.2473,
      "duration": 0.1421,
      "velocity": 114,
      "chip": "ym2612"
    },
    {
      "channel": 4,
      "note": 54,
      "start": 20.2514,
      "duration": 0.1382,
      "velocity": 114,
      "chip": "ym2612"
    },
    {
      "channel": 1,
      "note": 50,
      "start": 20.3925,
      "duration": 0.1636,
      "velocity": 114,
      "chip": "ym2612"
    },
    {
      "channel": 4,
      "note": 54,
      "start": 20.3951,
      "duration": 0.1611,
      "velocity": 114,
      "chip": "ym2612"
    },
    {
      "channel": 1,
      "note": 50,
      "start": 20.5591,
      "duration": 0.147,
      "velocity": 114,
      "chip": "ym2612"
    },
    {
      "channel": 4,
      "note": 54,
      "start": 20.5617,
      "duration": 0.1445,
      "velocity": 114,
      "chip": "ym2612"
    },
    {
      "channel": 1,
      "note": 50,
      "start": 20.7091,
      "duration": 0.1637,
      "velocity": 114,
      "chip": "ym2612"
    },
    {
      "channel": 4,
      "note": 54,
      "start": 20.7117,
      "duration": 0.1613,
      "velocity": 114,
      "chip": "ym2612"
    },
    {
      "channel": 1,
      "note": 50,
      "start": 20.8758,
      "duration": 0.147,
      "velocity": 114,
      "chip": "ym2612"
    },
    {
      "channel": 4,
      "note": 54,
      "start": 20.8784,
      "duration": 0.1445,
      "velocity": 114,
      "chip": "ym2612"
    },
    {
      "channel": 1,
      "note": 50,
      "start": 21.0258,
      "duration": 0.1637,
      "velocity": 114,
      "chip": "ym2612"
    },
    {
      "channel": 4,
      "note": 54,
      "start": 21.0284,
      "duration": 0.1612,
      "velocity": 114,
      "chip": "ym2612"
    },
    {
      "channel": 1,
      "note": 50,
      "start": 21.1925,
      "duration": 0.147,
      "velocity": 114,
      "chip": "ym2612"
    },
    {
      "channel": 4,
      "note": 54,
      "start": 21.1951,
      "duration": 0.1445,
      "velocity": 114,
      "chip": "ym2612"
    },
    {
      "channel": 1,
      "note": 50,
      "start": 21.3425,
      "duration": 0.1636,
      "velocity": 114,
      "chip": "ym2612"
    },
    {
      "channel": 4,
      "note": 54,
      "start": 21.3455,
      "duration": 0.1608,
      "velocity": 114,
      "chip": "ym2612"
    },
    {
      "channel": 1,
      "note": 50,
      "start": 21.5092,
      "duration": 0.147,
      "velocity": 114,
      "chip": "ym2612"
    },
    {
      "channel": 4,
      "note": 54,
      "start": 21.5118,
      "duration": 0.1445,
      "velocity": 114,
      "chip": "ym2612"
    },
    {
      "channel": 1,
      "note": 50,
      "start": 21.6591,
      "duration": 0.1636,
      "velocity": 114,
      "chip": "ym2612"
    },
    {
      "channel": 4,
      "note": 54,
      "start": 21.6618,
      "duration": 0.1611,
      "velocity": 114,
      "chip": "ym2612"
    },
    {
      "channel": 1,
      "note": 50,
      "start": 21.8261,
      "duration": 0.1467,
      "velocity": 114,
      "chip": "ym2612"
    },
    {
      "channel": 4,
      "note": 54,
      "start": 21.8287,
      "duration": 0.1442,
      "velocity": 114,
      "chip": "ym2612"
    },
    {
      "channel": 1,
      "note": 50,
      "start": 21.9758,
      "duration": 0.1636,
      "velocity": 114,
      "chip": "ym2612"
    },
    {
      "channel": 4,
      "note": 54,
      "start": 21.9784,
      "duration": 0.1611,
      "velocity": 114,
      "chip": "ym2612"
    },
    {
      "channel": 1,
      "note": 50,
      "start": 22.1424,
      "duration": 0.147,
      "velocity": 114,
      "chip": "ym2612"
    },
    {
      "channel": 4,
      "note": 54,
      "start": 22.145,
      "duration": 0.1445,
      "velocity": 114,
      "chip": "ym2612"
    },
    {
      "channel": 1,
      "note": 50,
      "start": 22.2924,
      "duration": 0.1637,
      "velocity": 114,
      "chip": "ym2612"
    },
    {
      "channel": 4,
      "note": 54,
      "start": 22.295,
      "duration": 0.1612,
      "velocity": 114,
      "chip": "ym2612"
    },
    {
      "channel": 1,
      "note": 50,
      "start": 22.4591,
      "duration": 0.147,
      "velocity": 114,
      "chip": "ym2612"
    },
    {
      "channel": 4,
      "note": 54,
      "start": 22.4617,
      "duration": 0.1445,
      "velocity": 114,
      "chip": "ym2612"
    },
    {
      "channel": 1,
      "note": 50,
      "start": 22.609,
      "duration": 0.1638,
      "velocity": 114,
      "chip": "ym2612"
    },
    {
      "channel": 4,
      "note": 54,
      "start": 22.6117,
      "duration": 0.1613,
      "velocity": 114,
      "chip": "ym2612"
    },
    {
      "channel": 0,
      "note": 54,
      "start": 22.776,
      "duration": 1.2468,
      "velocity": 127,
      "chip": "ym2612"
    },
    {
      "channel": 1,
      "note": 50,
      "start": 22.7784,
      "duration": 0.1444,
      "velocity": 114,
      "chip": "ym2612"
    },
    {
      "channel": 4,
      "note": 54,
      "start": 22.7811,
      "duration": 0.1419,
      "velocity": 114,
      "chip": "ym2612"
    },
    {
      "channel": 1,
      "note": 50,
      "start": 22.9258,
      "duration": 0.1636,
      "velocity": 114,
      "chip": "ym2612"
    },
    {
      "channel": 4,
      "note": 54,
      "start": 22.9284,
      "duration": 0.1611,
      "velocity": 114,
      "chip": "ym2612"
    },
    {
      "channel": 1,
      "note": 50,
      "start": 23.0924,
      "duration": 0.147,
      "velocity": 114,
      "chip": "ym2612"
    },
    {
      "channel": 4,
      "note": 54,
      "start": 23.095,
      "duration": 0.1445,
      "velocity": 114,
      "chip": "ym2612"
    },
    {
      "channel": 1,
      "note": 50,
      "start": 23.2424,
      "duration": 0.1637,
      "velocity": 114,
      "chip": "ym2612"
    },
    {
      "channel": 4,
      "note": 54,
      "start": 23.245,
      "duration": 0.1613,
      "velocity": 114,
      "chip": "ym2612"
    },
    {
      "channel": 1,
      "note": 50,
      "start": 23.4091,
      "duration": 0.147,
      "velocity": 114,
      "chip": "ym2612"
    },
    {
      "channel": 4,
      "note": 54,
      "start": 23.4118,
      "duration": 0.1445,
      "velocity": 114,
      "chip": "ym2612"
    },
    {
      "channel": 1,
      "note": 50,
      "start": 23.5591,
      "duration": 0.147,
      "velocity": 114,
      "chip": "ym2612"
    },
    {
      "channel": 4,
      "note": 54,
      "start": 23.5618,
      "duration": 0.1445,
      "velocity": 114,
      "chip": "ym2612"
    },
    {
      "channel": 1,
      "note": 50,
      "start": 23.7091,
      "duration": 0.1636,
      "velocity": 114,
      "chip": "ym2612"
    },
    {
      "channel": 4,
      "note": 54,
      "start": 23.7118,
      "duration": 0.1611,
      "velocity": 114,
      "chip": "ym2612"
    },
    {
      "channel": 1,
      "note": 50,
      "start": 23.8757,
      "duration": 0.1471,
      "velocity": 114,
      "chip": "ym2612"
    },
    {
      "channel": 4,
      "note": 54,
      "start": 23.8788,
      "duration": 0.1443,
      "velocity": 114,
      "chip": "ym2612"
    },
    {
      "channel": 0,
      "note": 59,
      "start": 24.0261,
      "duration": 1.2633,
      "velocity": 127,
      "chip": "ym2612"
    },
    {
      "channel": 1,
      "note": 50,
      "start": 24.0285,
      "duration": 0.161,
      "velocity": 114,
      "chip": "ym2612"
    },
    {
      "channel": 4,
      "note": 54,
      "start": 24.0312,
      "duration": 0.1584,
      "velocity": 114,
      "chip": "ym2612"
    },
    {
      "channel": 1,
      "note": 50,
      "start": 24.1924,
      "duration": 0.147,
      "velocity": 114,
      "chip": "ym2612"
    },
    {
      "channel": 4,
      "note": 54,
      "start": 24.1951,
      "duration": 0.1445,
      "velocity": 114,
      "chip": "ym2612"
    },
    {
      "channel": 1,
      "note": 50,
      "start": 24.3428,
      "duration": 0.1633,
      "velocity": 114,
      "chip": "ym2612"
    },
    {
      "channel": 4,
      "note": 54,
      "start": 24.3454,
      "duration": 0.1608,
      "velocity": 114,
      "chip": "ym2612"
    },
    {
      "channel": 1,
      "note": 50,
      "start": 24.5091,
      "duration": 0.147,
      "velocity": 114,
      "chip": "ym2612"
    },
    {
      "channel": 4,
      "note": 54,
      "start": 24.5118,
      "duration": 0.1445,
      "velocity": 114,
      "chip": "ym2612"
    },
    {
      "channel": 1,
      "note": 50,
      "start": 24.6592,
      "duration": 0.1636,
      "velocity": 114,
      "chip": "ym2612"
    },
    {
      "channel": 4,
      "note": 54,
      "start": 24.6618,
      "duration": 0.1611,
      "velocity": 114,
      "chip": "ym2612"
    },
    {
      "channel": 1,
      "note": 50,
      "start": 24.8258,
      "duration": 0.147,
      "velocity": 114,
      "chip": "ym2612"
    },
    {
      "channel": 4,
      "note": 54,
      "start": 24.8284,
      "duration": 0.1445,
      "velocity": 114,
      "chip": "ym2612"
    },
    {
      "channel": 1,
      "note": 50,
      "start": 24.9758,
      "duration": 0.1637,
      "velocity": 114,
      "chip": "ym2612"
    },
    {
      "channel": 4,
      "note": 54,
      "start": 24.9784,
      "duration": 0.1613,
      "velocity": 114,
      "chip": "ym2612"
    },
    {
      "channel": 1,
      "note": 50,
      "start": 25.1425,
      "duration": 0.147,
      "velocity": 114,
      "chip": "ym2612"
    },
    {
      "channel": 4,
      "note": 54,
      "start": 25.1451,
      "duration": 0.1446,
      "velocity": 114,
      "chip": "ym2612"
    },
    {
      "channel": 0,
      "note": 58,
      "start": 25.2927,
      "duration": 2.53,
      "velocity": 127,
      "chip": "ym2612"
    },
    {
      "channel": 1,
      "note": 49,
      "start": 25.2951,
      "duration": 0.161,
      "velocity": 114,
      "chip": "ym2612"
    },
    {
      "channel": 3,
      "note": 65,
      "start": 25.2979,
      "duration": 1.2583,
      "velocity": 87,
      "chip": "ym2612"
    },
    {
      "channel": 4,
      "note": 53,
      "start": 25.3005,
      "duration": 0.1559,
      "velocity": 114,
      "chip": "ym2612"
    },
    {
      "channel": 1,
      "note": 49,
      "start": 25.4592,
      "duration": 0.1469,
      "velocity": 114,
      "chip": "ym2612"
    },
    {
      "channel": 4,
      "note": 53,
      "start": 25.4618,
      "duration": 0.1444,
      "velocity": 114,
      "chip": "ym2612"
    },
    {
      "channel": 1,
      "note": 49,
      "start": 25.609,
      "duration": 0.1637,
      "velocity": 114,
      "chip": "ym2612"
    },
    {
      "channel": 4,
      "note": 53,
      "start": 25.6117,
      "duration": 0.1613,
      "velocity": 114,
      "chip": "ym2612"
    },
    {
      "channel": 1,
      "note": 49,
      "start": 25.7758,
      "duration": 0.147,
      "velocity": 114,
      "chip": "ym2612"
    },
    {
      "channel": 4,
      "note": 53,
      "start": 25.7784,
      "duration": 0.1445,
      "velocity": 114,
      "chip": "ym2612"
    },
    {
      "channel": 1,
      "note": 49,
      "start": 25.9258,
      "duration": 0.1636,
      "velocity": 114,
      "chip": "ym2612"
    },
    {
      "channel": 4,
      "note": 53,
      "start": 25.9285,
      "duration": 0.1611,
      "velocity": 114,
      "chip": "ym2612"
    },
    {
      "channel": 1,
      "note": 49,
      "start": 26.0924,
      "duration": 0.147,
      "velocity": 114,
      "chip": "ym2612"
    },
    {
      "channel": 4,
      "note": 53,
      "start": 26.0951,
      "duration": 0.1445,
      "velocity": 114,
      "chip": "ym2612"
    },
    {
      "channel": 1,
      "note": 49,
      "start": 26.2424,
      "duration": 0.1636,
      "velocity": 114,
      "chip": "ym2612"
    },
    {
      "channel": 4,
      "note": 53,
      "start": 26.2451,
      "duration": 0.1611,
      "velocity": 114,
      "chip": "ym2612"
    },
    {
      "channel": 1,
      "note": 49,
      "start": 26.409,
      "duration": 0.1471,
      "velocity": 114,
      "chip": "ym2612"
    },
    {
      "channel": 4,
      "note": 53,
      "start": 26.4121,
      "duration": 0.1443,
      "velocity": 114,
      "chip": "ym2612"
    },
    {
      "channel": 1,
      "note": 49,
      "start": 26.5592,
      "duration": 0.1635,
      "velocity": 114,
      "chip": "ym2612"
    },
    {
      "channel": 4,
      "note": 53,
      "start": 26.5619,
      "duration": 0.1609,
      "velocity": 114,
      "chip": "ym2612"
    },
    {
      "channel": 1,
      "note": 49,
      "start": 26.7257,
      "duration": 0.147,
      "velocity": 114,
      "chip": "ym2612"
    },
    {
      "channel": 4,
      "note": 53,
      "start": 26.7284,
      "duration": 0.1445,
      "velocity": 114,
      "chip": "ym2612"
    },
    {
      "channel": 1,
      "note": 49,
      "start": 26.8761,
      "duration": 0.1633,
      "velocity": 114,
      "chip": "ym2612"
    },
    {
      "channel": 4,
      "note": 53,
      "start": 26.8787,
      "duration": 0.1609,
      "velocity": 114,
      "chip": "ym2612"
    },
    {
      "channel": 1,
      "note": 49,
      "start": 27.0424,
      "duration": 0.1471,
      "velocity": 114,
      "chip": "ym2612"
    },
    {
      "channel": 4,
      "note": 53,
      "start": 27.045,
      "duration": 0.1446,
      "velocity": 114,
      "chip": "ym2612"
    },
    {
      "channel": 1,
      "note": 49,
      "start": 27.1925,
      "duration": 0.1636,
      "velocity": 114,
      "chip": "ym2612"
    },
    {
      "channel": 4,
      "note": 53,
      "start": 27.1951,
      "duration": 0.1611,
      "velocity": 114,
      "chip": "ym2612"
    },
    {
      "channel": 1,
      "note": 49,
      "start": 27.3591,
      "duration": 0.147,
      "velocity": 114,
      "chip": "ym2612"
    },
    {
      "channel": 4,
      "note": 53,
      "start": 27.3617,
      "duration": 0.1445,
      "velocity": 114,
      "chip": "ym2612"
    },
    {
      "channel": 1,
      "note": 49,
      "start": 27.5091,
      "duration": 0.1637,
      "velocity": 114,
      "chip": "ym2612"
    },
    {
      "channel": 4,
      "note": 53,
      "start": 27.5117,
      "duration": 0.1613,
      "velocity": 114,
      "chip": "ym2612"
    },
    {
      "channel": 1,
      "note": 49,
      "start": 27.6758,
      "duration": 0.1471,
      "velocity": 114,
      "chip": "ym2612"
    },
    {
      "channel": 4,
      "note": 53,
      "start": 27.6784,
      "duration": 0.1446,
      "velocity": 114,
      "chip": "ym2612"
    },
    {
      "channel": 0,
      "note": 58,
      "start": 27.8257,
      "duration": 2.5303,
      "velocity": 127,
      "chip": "ym2612"
    },
    {
      "channel": 1,
      "note": 49,
      "start": 27.8282,
      "duration": 0.1445,
      "velocity": 114,
      "chip": "ym2612"
    },
    {
      "channel": 3,
      "note": 70,
      "start": 27.8313,
      "duration": 1.2582,
      "velocity": 87,
      "chip": "ym2612"
    },
    {
      "channel": 4,
      "note": 53,
      "start": 27.8338,
      "duration": 0.1391,
      "velocity": 114,
      "chip": "ym2612"
    },
    {
      "channel": 1,
      "note": 49,
      "start": 27.9758,
      "duration": 0.1636,
      "velocity": 114,
      "chip": "ym2612"
    },
    {
      "channel": 4,
      "note": 53,
      "start": 27.9784,
      "duration": 0.1611,
      "velocity": 114,
      "chip": "ym2612"
    },
    {
      "channel": 1,
      "note": 49,
      "start": 28.1424,
      "duration": 0.147,
      "velocity": 114,
      "chip": "ym2612"
    },
    {
      "channel": 4,
      "note": 53,
      "start": 28.145,
      "duration": 0.1445,
      "velocity": 114,
      "chip": "ym2612"
    },
    {
      "channel": 1,
      "note": 49,
      "start": 28.2924,
      "duration": 0.1637,
      "velocity": 114,
      "chip": "ym2612"
    },
    {
      "channel": 4,
      "note": 53,
      "start": 28.295,
      "duration": 0.1613,
      "velocity": 114,
      "chip": "ym2612"
    },
    {
      "channel": 1,
      "note": 49,
      "start": 28.4592,
      "duration": 0.1469,
      "velocity": 114,
      "chip": "ym2612"
    },
    {
      "channel": 4,
      "note": 53,
      "start": 28.4618,
      "duration": 0.1444,
      "velocity": 114,
      "chip": "ym2612"
    },
    {
      "channel": 1,
      "note": 49,
      "start": 28.609,
      "duration": 0.1637,
      "velocity": 114,
      "chip": "ym2612"
    },
    {
      "channel": 4,
      "note": 53,
      "start": 28.6117,
      "duration": 0.1613,
      "velocity": 114,
      "chip": "ym2612"
    },
    {
      "channel": 1,
      "note": 49,
      "start": 28.7758,
      "duration": 0.147,
      "velocity": 114,
      "chip": "ym2612"
    },
    {
      "channel": 4,
      "note": 53,
      "start": 28.7784,
      "duration": 0.1445,
      "velocity": 114,
      "chip": "ym2612"
    },
    {
      "channel": 1,
      "note": 49,
      "start": 28.9258,
      "duration": 0.1636,
      "velocity": 114,
      "chip": "ym2612"
    },
    {
      "channel": 4,
      "note": 53,
      "start": 28.9288,
      "duration": 0.1608,
      "velocity": 114,
      "chip": "ym2612"
    },
    {
      "channel": 1,
      "note": 49,
      "start": 29.0925,
      "duration": 0.147,
      "velocity": 114,
      "chip": "ym2612"
    },
    {
      "channel": 4,
      "note": 53,
      "start": 29.0951,
      "duration": 0.1445,
      "velocity": 114,
      "chip": "ym2612"
    },
    {
      "channel": 1,
      "note": 49,
      "start": 29.2424,
      "duration": 0.1636,
      "velocity": 114,
      "chip": "ym2612"
    },
    {
      "channel": 4,
      "note": 53,
      "start": 29.2451,
      "duration": 0.1611,
      "velocity": 114,
      "chip": "ym2612"
    },
    {
      "channel": 1,
      "note": 49,
      "start": 29.4094,
      "duration": 0.1467,
      "velocity": 114,
      "chip": "ym2612"
    },
    {
      "channel": 4,
      "note": 53,
      "start": 29.412,
      "duration": 0.1443,
      "velocity": 114,
      "chip": "ym2612"
    },
    {
      "channel": 1,
      "note": 49,
      "start": 29.5591,
      "duration": 0.1637,
      "velocity": 114,
      "chip": "ym2612"
    },
    {
      "channel": 4,
      "note": 53,
      "start": 29.5618,
      "duration": 0.1612,
      "velocity": 114,
      "chip": "ym2612"
    },
    {
      "channel": 1,
      "note": 49,
      "start": 29.7258,
      "duration": 0.147,
      "velocity": 114,
      "chip": "ym2612"
    },
    {
      "channel": 4,
      "note": 53,
      "start": 29.7284,
      "duration": 0.1445,
      "velocity": 114,
      "chip": "ym2612"
    },
    {
      "channel": 1,
      "note": 49,
      "start": 29.8758,
      "duration": 0.1636,
      "velocity": 114,
      "chip": "ym2612"
    },
    {
      "channel": 4,
      "note": 53,
      "start": 29.8784,
      "duration": 0.1611,
      "velocity": 114,
      "chip": "ym2612"
    },
    {
      "channel": 1,
      "note": 49,
      "start": 30.0424,
      "duration": 0.1471,
      "velocity": 114,
      "chip": "ym2612"
    },
    {
      "channel": 4,
      "note": 53,
      "start": 30.045,
      "duration": 0.1446,
      "velocity": 114,
      "chip": "ym2612"
    },
    {
      "channel": 1,
      "note": 49,
      "start": 30.1925,
      "duration": 0.1637,
      "velocity": 114,
      "chip": "ym2612"
    },
    {
      "channel": 4,
      "note": 53,
      "start": 30.1951,
      "duration": 0.1612,
      "velocity": 114,
      "chip": "ym2612"
    },
    {
      "channel": 0,
      "note": 59,
      "start": 30.359,
      "duration": 2.5137,
      "velocity": 127,
      "chip": "ym2612"
    },
    {
      "channel": 1,
      "note": 50,
      "start": 30.3615,
      "duration": 0.1447,
      "velocity": 114,
      "chip": "ym2612"
    },
    {
      "channel": 4,
      "note": 54,
      "start": 30.3641,
      "duration": 0.1421,
      "velocity": 114,
      "chip": "ym2612"
    },
    {
      "channel": 1,
      "note": 50,
      "start": 30.5091,
      "duration": 0.1636,
      "velocity": 114,
      "chip": "ym2612"
    },
    {
      "channel": 4,
      "note": 54,
      "start": 30.5118,
      "duration": 0.1611,
      "velocity": 114,
      "chip": "ym2612"
    },
    {
      "channel": 1,
      "note": 50,
      "start": 30.6757,
      "duration": 0.147,
      "velocity": 114,
      "chip": "ym2612"
    },
    {
      "channel": 4,
      "note": 54,
      "start": 30.6784,
      "duration": 0.1445,
      "velocity": 114,
      "chip": "ym2612"
    },
    {
      "channel": 1,
      "note": 50,
      "start": 30.8257,
      "duration": 0.1637,
      "velocity": 114,
      "chip": "ym2612"
    },
    {
      "channel": 4,
      "note": 54,
      "start": 30.8284,
      "duration": 0.1612,
      "velocity": 114,
      "chip": "ym2612"
    },
    {
      "channel": 1,
      "note": 50,
      "start": 30.9924,
      "duration": 0.147,
      "velocity": 114,
      "chip": "ym2612"
    },
    {
      "channel": 4,
      "note": 54,
      "start": 30.995,
      "duration": 0.1445,
      "velocity": 114,
      "chip": "ym2612"
    },
    {
      "channel": 1,
      "note": 50,
      "start": 31.1424,
      "duration": 0.1637,
      "velocity": 114,
      "chip": "ym2612"
    },
    {
      "channel": 4,
      "note": 54,
      "start": 31.145,
      "duration": 0.1613,
      "velocity": 114,
      "chip": "ym2612"
    },
    {
      "channel": 1,
      "note": 50,
      "start": 31.3091,
      "duration": 0.147,
      "velocity": 114,
      "chip": "ym2612"
    },
    {
      "channel": 4,
      "note": 54,
      "start": 31.3118,
      "duration": 0.1445,
      "velocity": 114,
      "chip": "ym2612"
    },
    {
      "channel": 1,
      "note": 50,
      "start": 31.4592,
      "duration": 0.1637,
      "velocity": 114,
      "chip": "ym2612"
    },
    {
      "channel": 4,
      "note": 54,
      "start": 31.4622,
      "duration": 0.1608,
      "velocity": 114,
      "chip": "ym2612"
    },
    {
      "channel": 1,
      "note": 53,
      "start": 31.6258,
      "duration": 0.147,
      "velocity": 114,
      "chip": "ym2612"
    },
    {
      "channel": 4,
      "note": 56,
      "start": 31.6285,
      "duration": 0.1445,
      "velocity": 114,
      "chip": "ym2612"
    },
    {
      "channel": 1,
      "note": 53,
      "start": 31.7758,
      "duration": 0.1636,
      "velocity": 114,
      "chip": "ym2612"
    },
    {
      "channel": 4,
      "note": 56,
      "start": 31.7784,
      "duration": 0.1611,
      "velocity": 114,
      "chip": "ym2612"
    },
    {
      "channel": 1,
      "note": 53,
      "start": 31.9427,
      "duration": 0.1467,
      "velocity": 114,
      "chip": "ym2612"
    },
    {
      "channel": 4,
      "note": 56,
      "start": 31.9454,
      "duration": 0.1443,
      "velocity": 114,
      "chip": "ym2612"
    },
    {
      "channel": 1,
      "note": 53,
      "start": 32.0924,
      "duration": 0.147,
      "velocity": 114,
      "chip": "ym2612"
    },
    {
      "channel": 4,
      "note": 56,
      "start": 32.0951,
      "duration": 0.1445,
      "velocity": 114,
      "chip": "ym2612"
    },
    {
      "channel": 1,
      "note": 53,
      "start": 32.2424,
      "duration": 0.1636,
      "velocity": 114,
      "chip": "ym2612"
    },
    {
      "channel": 4,
      "note": 56,
      "start": 32.2451,
      "duration": 0.1611,
      "velocity": 114,
      "chip": "ym2612"
    },
    {
      "channel": 1,
      "note": 53,
      "start": 32.409,
      "duration": 0.147,
      "velocity": 114,
      "chip": "ym2612"
    },
    {
      "channel": 4,
      "note": 56,
      "start": 32.4117,
      "duration": 0.1445,
      "velocity": 114,
      "chip": "ym2612"
    },
    {
      "channel": 1,
      "note": 53,
      "start": 32.559,
      "duration": 0.1637,
      "velocity": 114,
      "chip": "ym2612"
    },
    {
      "channel": 4,
      "note": 56,
      "start": 32.5617,
      "duration": 0.1612,
      "velocity": 114,
      "chip": "ym2612"
    },
    {
      "channel": 1,
      "note": 53,
      "start": 32.7258,
      "duration": 0.1471,
      "velocity": 114,
      "chip": "ym2612"
    },
    {
      "channel": 4,
      "note": 56,
      "start": 32.7284,
      "duration": 0.1445,
      "velocity": 114,
      "chip": "ym2612"
    },
    {
      "channel": 0,
      "note": 54,
      "start": 32.876,
      "duration": 1.2634,
      "velocity": 127,
      "chip": "ym2612"
    },
    {
      "channel": 1,
      "note": 54,
      "start": 32.8784,
      "duration": 0.161,
      "velocity": 114,
      "chip": "ym2612"
    },
    {
      "channel": 4,
      "note": 57,
      "start": 32.8811,
      "duration": 0.1585,
      "velocity": 114,
      "chip": "ym2612"
    },
    {
      "channel": 1,
      "note": 54,
      "start": 33.0424,
      "duration": 0.147,
      "velocity": 114,
      "chip": "ym2612"
    },
    {
      "channel": 4,
      "note": 57,
      "start": 33.045,
      "duration": 0.1445,
      "velocity": 114,
      "chip": "ym2612"
    },
    {
      "channel": 1,
      "note": 54,
      "start": 33.1924,
      "duration": 0.1637,
      "velocity": 114,
      "chip": "ym2612"
    },
    {
      "channel": 4,
      "note": 57,
      "start": 33.195,
      "duration": 0.1613,
      "velocity": 114,
      "chip": "ym2612"
    },
    {
      "channel": 1,
      "note": 54,
      "start": 33.3591,
      "duration": 0.147,
      "velocity": 114,
      "chip": "ym2612"
    },
    {
      "channel": 4,
      "note": 57,
      "start": 33.3618,
      "duration": 0.1445,
      "velocity": 114,
      "chip": "ym2612"
    },
    {
      "channel": 1,
      "note": 54,
      "start": 33.5091,
      "duration": 0.1636,
      "velocity": 114,
      "chip": "ym2612"
    },
    {
      "channel": 4,
      "note": 57,
      "start": 33.5118,
      "duration": 0.1611,
      "velocity": 114,
      "chip": "ym2612"
    },
    {
      "channel": 1,
      "note": 54,
      "start": 33.6757,
      "duration": 0.147,
      "velocity": 114,
      "chip": "ym2612"
    },
    {
      "channel": 4,
      "note": 57,
      "start": 33.6784,
      "duration": 0.1445,
      "velocity": 114,
      "chip": "ym2612"
    },
    {
      "channel": 1,
      "note": 54,
      "start": 33.8257,
      "duration": 0.1637,
      "velocity": 114,
      "chip": "ym2612"
    },
    {
      "channel": 4,
      "note": 57,
      "start": 33.8284,
      "duration": 0.1612,
      "velocity": 114,
      "chip": "ym2612"
    },
    {
      "channel": 1,
      "note": 54,
      "start": 33.9924,
      "duration": 0.147,
      "velocity": 114,
      "chip": "ym2612"
    },
    {
      "channel": 4,
      "note": 57,
      "start": 33.9955,
      "duration": 0.1441,
      "velocity": 114,
      "chip": "ym2612"
    },
    {
      "channel": 0,
      "note": 59,
      "start": 34.1423,
      "duration": 1.2637,
      "velocity": 127,
      "chip": "ym2612"
    },
    {
      "channel": 1,
      "note": 59,
      "start": 34.1447,
      "duration": 0.1614,
      "velocity": 114,
      "chip": "ym2612"
    },
    {
      "channel": 4,
      "note": 62,
      "start": 34.1474,
      "duration": 0.1589,
      "velocity": 114,
      "chip": "ym2612"
    },
    {
      "channel": 1,
      "note": 59,
      "start": 34.3092,
      "duration": 0.147,
      "velocity": 114,
      "chip": "ym2612"
    },
    {
      "channel": 4,
      "note": 62,
      "start": 34.3118,
      "duration": 0.1445,
      "velocity": 114,
      "chip": "ym2612"
    },
    {
      "channel": 1,
      "note": 59,
      "start": 34.4595,
      "duration": 0.1633,
      "velocity": 114,
      "chip": "ym2612"
    },
    {
      "channel": 4,
      "note": 62,
      "start": 34.4622,
      "duration": 0.1608,
      "velocity": 114,
      "chip": "ym2612"
    },
    {
      "channel": 1,
      "note": 59,
      "start": 34.6258,
      "duration": 0.147,
      "velocity": 114,
      "chip": "ym2612"
    },
    {
      "channel": 4,
      "note": 62,
      "start": 34.6284,
      "duration": 0.1445,
      "velocity": 114,
      "chip": "ym2612"
    },
    {
      "channel": 1,
      "note": 59,
      "start": 34.7758,
      "duration": 0.1636,
      "velocity": 114,
      "chip": "ym2612"
    },
    {
      "channel": 4,
      "note": 62,
      "start": 34.7784,
      "duration": 0.1611,
      "velocity": 114,
      "chip": "ym2612"
    },
    {
      "channel": 1,
      "note": 59,
      "start": 34.9424,
      "duration": 0.147,
      "velocity": 114,
      "chip": "ym2612"
    },
    {
      "channel": 4,
      "note": 62,
      "start": 34.945,
      "duration": 0.1445,
      "velocity": 114,
      "chip": "ym2612"
    },
    {
      "channel": 1,
      "note": 59,
      "start": 35.0924,
      "duration": 0.1637,
      "velocity": 114,
      "chip": "ym2612"
    },
    {
      "channel": 4,
      "note": 62,
      "start": 35.095,
      "duration": 0.1612,
      "velocity": 114,
      "chip": "ym2612"
    },
    {
      "channel": 1,
      "note": 59,
      "start": 35.2591,
      "duration": 0.147,
      "velocity": 114,
      "chip": "ym2612"
    },
    {
      "channel": 4,
      "note": 62,
      "start": 35.2617,
      "duration": 0.1446,
      "velocity": 114,
      "chip": "ym2612"
    },
    {
      "channel": 0,
      "note": 58,
      "start": 35.4092,
      "duration": 2.5302,
      "velocity": 127,
      "chip": "ym2612"
    },
    {
      "channel": 1,
      "note": 61,
      "start": 35.4117,
      "duration": 0.161,
      "velocity": 114,
      "chip": "ym2612"
    },
    {
      "channel": 3,
      "note": 65,
      "start": 35.4143,
      "duration": 1.2586,
      "velocity": 87,
      "chip": "ym2612"
    },
    {
      "channel": 4,
      "note": 65,
      "start": 35.4169,
      "duration": 0.156,
      "velocity": 114,
      "chip": "ym2612"
    },
    {
      "channel": 1,
      "note": 61,
      "start": 35.5757,
      "duration": 0.1471,
      "velocity": 114,
      "chip": "ym2612"
    },
    {
      "channel": 4,
      "note": 65,
      "start": 35.5784,
      "duration": 0.1446,
      "velocity": 114,
      "chip": "ym2612"
    },
    {
      "channel": 1,
      "note": 61,
      "start": 35.7258,
      "duration": 0.1636,
      "velocity": 114,
      "chip": "ym2612"
    },
    {
      "channel": 4,
      "note": 65,
      "start": 35.7285,
      "duration": 0.1611,
      "velocity": 114,
      "chip": "ym2612"
    },
    {
      "channel": 1,
      "note": 61,
      "start": 35.8924,
      "duration": 0.147,
      "velocity": 114,
      "chip": "ym2612"
    },
    {
      "channel": 4,
      "note": 65,
      "start": 35.8951,
      "duration": 0.1445,
      "velocity": 114,
      "chip": "ym2612"
    },
    {
      "channel": 1,
      "note": 61,
      "start": 36.0425,
      "duration": 0.1636,
      "velocity": 114,
      "chip": "ym2612"
    },
    {
      "channel": 4,
      "note": 65,
      "start": 36.0452,
      "duration": 0.1611,
      "velocity": 114,
      "chip": "ym2612"
    },
    {
      "channel": 1,
      "note": 61,
      "start": 36.2091,
      "duration": 0.147,
      "velocity": 114,
      "chip": "ym2612"
    },
    {
      "channel": 4,
      "note": 65,
      "start": 36.2118,
      "duration": 0.1445,
      "velocity": 114,
      "chip": "ym2612"
    },
    {
      "channel": 1,
      "note": 61,
      "start": 36.3591,
      "duration": 0.147,
      "velocity": 114,
      "chip": "ym2612"
    },
    {
      "channel": 4,
      "note": 65,
      "start": 36.3618,
      "duration": 0.1445,
      "velocity": 114,
      "chip": "ym2612"
    },
    {
      "channel": 1,
      "note": 61,
      "start": 36.5091,
      "duration": 0.1637,
      "velocity": 114,
      "chip": "ym2612"
    },
    {
      "channel": 4,
      "note": 65,
      "start": 36.5122,
      "duration": 0.1609,
      "velocity": 114,
      "chip": "ym2612"
    },
    {
      "channel": 1,
      "note": 61,
      "start": 36.6759,
      "duration": 0.1468,
      "velocity": 114,
      "chip": "ym2612"
    },
    {
      "channel": 4,
      "note": 65,
      "start": 36.6786,
      "duration": 0.1443,
      "velocity": 114,
      "chip": "ym2612"
    },
    {
      "channel": 1,
      "note": 61,
      "start": 36.8258,
      "duration": 0.1637,
      "velocity": 114,
      "chip": "ym2612"
    },
    {
      "channel": 4,
      "note": 65,
      "start": 36.8284,
      "duration": 0.1612,
      "velocity": 114,
      "chip": "ym2612"
    },
    {
      "channel": 1,
      "note": 61,
      "start": 36.9928,
      "duration": 0.1466,
      "velocity": 114,
      "chip": "ym2612"
    },
    {
      "channel": 4,
      "note": 65,
      "start": 36.9955,
      "duration": 0.144,
      "velocity": 114,
      "chip": "ym2612"
    },
    {
      "channel": 1,
      "note": 61,
      "start": 37.1424,
      "duration": 0.1637,
      "velocity": 114,
      "chip": "ym2612"
    },
    {
      "channel": 4,
      "note": 65,
      "start": 37.145,
      "duration": 0.1612,
      "velocity": 114,
      "chip": "ym2612"
    },
    {
      "channel": 1,
      "note": 61,
      "start": 37.3091,
      "duration": 0.147,
      "velocity": 114,
      "chip": "ym2612"
    },
    {
      "channel": 4,
      "note": 65,
      "start": 37.3118,
      "duration": 0.1445,
      "velocity": 114,
      "chip": "ym2612"
    },
    {
      "channel": 1,
      "note": 61,
      "start": 37.4592,
      "duration": 0.1636,
      "velocity": 114,
      "chip": "ym2612"
    },
    {
      "channel": 4,
      "note": 65,
      "start": 37.4618,
      "duration": 0.1611,
      "velocity": 114,
      "chip": "ym2612"
    },
    {
      "channel": 1,
      "note": 61,
      "start": 37.6258,
      "duration": 0.147,
      "velocity": 114,
      "chip": "ym2612"
    },
    {
      "channel": 4,
      "note": 65,
      "start": 37.6284,
      "duration": 0.1445,
      "velocity": 114,
      "chip": "ym2612"
    },
    {
      "channel": 1,
      "note": 61,
      "start": 37.7758,
      "duration": 0.1638,
      "velocity": 114,
      "chip": "ym2612"
    },
    {
      "channel": 4,
      "note": 65,
      "start": 37.7784,
      "duration": 0.1613,
      "velocity": 114,
      "chip": "ym2612"
    },
    {
      "channel": 0,
      "note": 58,
      "start": 37.9424,
      "duration": 2.5303,
      "velocity": 127,
      "chip": "ym2612"
    },
    {
      "channel": 1,
      "note": 61,
      "start": 37.9449,
      "duration": 0.1446,
      "velocity": 114,
      "chip": "ym2612"
    },
    {
      "channel": 3,
      "note": 70,
      "start": 37.9473,
      "duration": 1.2589,
      "velocity": 87,
      "chip": "ym2612"
    },
    {
      "channel": 4,
      "note": 65,
      "start": 37.9499,
      "duration": 0.1398,
      "velocity": 114,
      "chip": "ym2612"
    },
    {
      "channel": 1,
      "note": 61,
      "start": 38.0925,
      "duration": 0.1636,
      "velocity": 114,
      "chip": "ym2612"
    },
    {
      "channel": 4,
      "note": 65,
      "start": 38.0952,
      "duration": 0.1611,
      "velocity": 114,
      "chip": "ym2612"
    },
    {
      "channel": 1,
      "note": 61,
      "start": 38.2591,
      "duration": 0.147,
      "velocity": 114,
      "chip": "ym2612"
    },
    {
      "channel": 4,
      "note": 65,
      "start": 38.2618,
      "duration": 0.1445,
      "velocity": 114,
      "chip": "ym2612"
    },
    {
      "channel": 1,
      "note": 61,
      "start": 38.4091,
      "duration": 0.1637,
      "velocity": 114,
      "chip": "ym2612"
    },
    {
      "channel": 4,
      "note": 65,
      "start": 38.4118,
      "duration": 0.1613,
      "velocity": 114,
      "chip": "ym2612"
    },
    {
      "channel": 1,
      "note": 61,
      "start": 38.5758,
      "duration": 0.1469,
      "velocity": 114,
      "chip": "ym2612"
    },
    {
      "channel": 4,
      "note": 65,
      "start": 38.5785,
      "duration": 0.1444,
      "velocity": 114,
      "chip": "ym2612"
    },
    {
      "channel": 1,
      "note": 61,
      "start": 38.7257,
      "duration": 0.1637,
      "velocity": 114,
      "chip": "ym2612"
    },
    {
      "channel": 4,
      "note": 65,
      "start": 38.7284,
      "duration": 0.1613,
      "velocity": 114,
      "chip": "ym2612"
    },
    {
      "channel": 1,
      "note": 61,
      "start": 38.8924,
      "duration": 0.147,
      "velocity": 114,
      "chip": "ym2612"
    },
    {
      "channel": 4,
      "note": 65,
      "start": 38.8951,
      "duration": 0.1445,
      "velocity": 114,
      "chip": "ym2612"
    },
    {
      "channel": 1,
      "note": 61,
      "start": 39.0424,
      "duration": 0.1637,
      "velocity": 114,
      "chip": "ym2612"
    },
    {
      "channel": 4,
      "note": 65,
      "start": 39.0455,
      "duration": 0.1609,
      "velocity": 114,
      "chip": "ym2612"
    },
    {
      "channel": 1,
      "note": 61,
      "start": 39.2092,
      "duration": 0.1468,
      "velocity": 114,
      "chip": "ym2612"
    },
    {
      "channel": 4,
      "note": 65,
      "start": 39.2119,
      "duration": 0.1443,
      "velocity": 114,
      "chip": "ym2612"
    },
    {
      "channel": 1,
      "note": 61,
      "start": 39.3591,
      "duration": 0.1637,
      "velocity": 114,
      "chip": "ym2612"
    },
    {
      "channel": 4,
      "note": 65,
      "start": 39.3617,
      "duration": 0.1613,
      "velocity": 114,
      "chip": "ym2612"
    },
    {
      "channel": 1,
      "note": 61,
      "start": 39.5261,
      "duration": 0.1466,
      "velocity": 114,
      "chip": "ym2612"
    },
    {
      "channel": 4,
      "note": 65,
      "start": 39.5288,
      "duration": 0.1441,
      "velocity": 114,
      "chip": "ym2612"
    },
    {
      "channel": 1,
      "note": 61,
      "start": 39.6758,
      "duration": 0.1636,
      "velocity": 114,
      "chip": "ym2612"
    },
    {
      "channel": 4,
      "note": 65,
      "start": 39.6784,
      "duration": 0.1611,
      "velocity": 114,
      "chip": "ym2612"
    },
    {
      "channel": 1,
      "note": 61,
      "start": 39.8424,
      "duration": 0.147,
      "velocity": 114,
      "chip": "ym2612"
    },
    {
      "channel": 4,
      "note": 65,
      "start": 39.845,
      "duration": 0.1445,
      "velocity": 114,
      "chip": "ym2612"
    },
    {
      "channel": 1,
      "note": 61,
      "start": 39.9924,
      "duration": 0.1637,
      "velocity": 114,
      "chip": "ym2612"
    },
    {
      "channel": 4,
      "note": 65,
      "start": 39.995,
      "duration": 0.1613,
      "velocity": 114,
      "chip": "ym2612"
    },
    {
      "channel": 1,
      "note": 61,
      "start": 40.1591,
      "duration": 0.147,
      "velocity": 114,
      "chip": "ym2612"
    },
    {
      "channel": 4,
      "note": 65,
      "start": 40.1618,
      "duration": 0.1445,
      "velocity": 114,
      "chip": "ym2612"
    },
    {
      "channel": 1,
      "note": 61,
      "start": 40.3091,
      "duration": 0.1637,
      "velocity": 114,
      "chip": "ym2612"
    },
    {
      "channel": 4,
      "note": 65,
      "start": 40.3118,
      "duration": 0.1612,
      "velocity": 114,
      "chip": "ym2612"
    },
    {
      "channel": 0,
      "note": 59,
      "start": 40.4763,
      "duration": 1.8798,
      "velocity": 127,
      "chip": "ym2612"
    },
    {
      "channel": 1,
      "note": 62,
      "start": 40.4805,
      "duration": 5.0423,
      "velocity": 112,
      "chip": "ym2612"
    },
    {
      "channel": 3,
      "note": 74,
      "start": 40.4835,
      "duration": 5.0394,
      "velocity": 87,
      "chip": "ym2612"
    },
    {
      "channel": 4,
      "note": 66,
      "start": 40.4881,
      "duration": 5.0349,
      "velocity": 84,
      "chip": "ym2612"
    },
    {
      "channel": 0,
      "note": 54,
      "start": 42.3592,
      "duration": 0.6302,
      "velocity": 127,
      "chip": "ym2612"
    },
    {
      "channel": 0,
      "note": 59,
      "start": 42.9925,
      "duration": 2.5302,
      "velocity": 127,
      "chip": "ym2612"
    },
    {
      "channel": 0,
      "note": 61,
      "start": 45.526,
      "duration": 1.8467,
      "velocity": 127,
      "chip": "ym2612"
    },
    {
      "channel": 1,
      "note": 64,
      "start": 45.5284,
      "duration": 5.0444,
      "velocity": 112,
      "chip": "ym2612"
    },
    {
      "channel": 3,
      "note": 76,
      "start": 45.5312,
      "duration": 2.525,
      "velocity": 87,
      "chip": "ym2612"
    },
    {
      "channel": 4,
      "note": 68,
      "start": 45.5338,
      "duration": 5.0393,
      "velocity": 84,
      "chip": "ym2612"
    },
    {
      "channel": 0,
      "note": 49,
      "start": 47.4258,
      "duration": 0.6302,
      "velocity": 127,
      "chip": "ym2612"
    },
    {
      "channel": 0,
      "note": 61,
      "start": 48.0593,
      "duration": 2.5134,
      "velocity": 127,
      "chip": "ym2612"
    },
    {
      "channel": 3,
      "note": 80,
      "start": 48.0618,
      "duration": 2.5111,
      "velocity": 87,
      "chip": "ym2612"
    },
    {
      "channel": 0,
      "note": 59,
      "start": 50.5764,
      "duration": 1.8463,
      "velocity": 127,
      "chip": "ym2612"
    },
    {
      "channel": 1,
      "note": 62,
      "start": 50.5789,
      "duration": 5.0606,
      "velocity": 112,
      "chip": "ym2612"
    },
    {
      "channel": 3,
      "note": 74,
      "start": 50.5823,
      "duration": 5.0574,
      "velocity": 87,
      "chip": "ym2612"
    },
    {
      "channel": 4,
      "note": 66,
      "start": 50.5848,
      "duration": 5.055,
      "velocity": 84,
      "chip": "ym2612"
    },
    {
      "channel": 0,
      "note": 54,
      "start": 52.4758,
      "duration": 0.6302,
      "velocity": 127,
      "chip": "ym2612"
    },
    {
      "channel": 0,
      "note": 59,
      "start": 53.1092,
      "duration": 2.5302,
      "velocity": 127,
      "chip": "ym2612"
    },
    {
      "channel": 0,
      "note": 61,
      "start": 55.6427,
      "duration": 1.8966,
      "velocity": 127,
      "chip": "ym2612"
    },
    {
      "channel": 1,
      "note": 64,
      "start": 55.6456,
      "duration": 5.0439,
      "velocity": 112,
      "chip": "ym2612"
    },
    {
      "channel": 3,
      "note": 76,
      "start": 55.65,
      "duration": 1.2562,
      "velocity": 109,
      "chip": "ym2612"
    },
    {
      "channel": 4,
      "note": 68,
      "start": 55.6525,
      "duration": 5.0371,
      "velocity": 84,
      "chip": "ym2612"
    },
    {
      "channel": 0,
      "note": 49,
      "start": 57.5425,
      "duration": 0.6136,
      "velocity": 127,
      "chip": "ym2612"
    },
    {
      "channel": 0,
      "note": 61,
      "start": 58.1595,
      "duration": 2.5298,
      "velocity": 127,
      "chip": "ym2612"
    },
    {
      "channel": 3,
      "note": 75,
      "start": 58.1622,
      "duration": 1.2606,
      "velocity": 109,
      "chip": "ym2612"
    },
    {
      "channel": 0,
      "note": 46,
      "start": 60.6966,
      "duration": 1.3091,
      "velocity": 127,
      "chip": "ym2612"
    },
    {
      "channel": 1,
      "note": 46,
      "start": 60.7025,
      "duration": 1.3032,
      "velocity": 84,
      "chip": "ym2612"
    },
    {
      "channel": 3,
      "note": 73,
      "start": 60.7085,
      "duration": 1.2973,
      "velocity": 87,
      "chip": "ym2612"
    },
    {
      "channel": 4,
      "note": 61,
      "start": 60.7145,
      "duration": 1.2912,
      "velocity": 84,
      "chip": "ym2612"
    }
  ]
}