{
  "track_name": "04 - Track 13",
  "duration_sec": 49.517,
  "sample_rate": 44100,
  "note_count": 1286,
  "unique_pitches": 22,
  "pitch_range": 36,
  "avg_note_duration": 0.172,
  "reconstruction_stats": {
    "notes_reconstructed": 1286,
    "keyon_events": 1286,
    "keyoff_events": 1110,
    "orphan_keyons": 0,
    "unique_pitches": 22,
    "pitch_range": 36,
    "avg_duration_sec": 0.172
  },
  "metadata": {
    "source": "T\\Tecmo Super Bowl III\\04 - Track 13.vgz"
  },
  "notes": [
    {
      "channel": 4,
      "note": 54,
      "start": 0.0022,
      "duration": 0.517,
      "velocity": 89,
      "chip": "ym2612"
    },
    {
      "channel": 3,
      "note": 45,
      "start": 0.1671,
      "duration": 0.0331,
      "velocity": 127,
      "chip": "ym2612"
    },
    {
      "channel": 3,
      "note": 45,
      "start": 0.2005,
      "duration": 0.3174,
      "velocity": 127,
      "chip": "ym2612"
    },
    {
      "channel": 0,
      "note": 54,
      "start": 0.5171,
      "duration": 0.0997,
      "velocity": 104,
      "chip": "ym2612"
    },
    {
      "channel": 2,
      "note": 54,
      "start": 0.5178,
      "duration": 0.1826,
      "velocity": 97,
      "chip": "ym2612"
    },
    {
      "channel": 3,
      "note": 69,
      "start": 0.5192,
      "duration": 0.3484,
      "velocity": 127,
      "chip": "ym2612"
    },
    {
      "channel": 4,
      "note": 54,
      "start": 0.5206,
      "duration": 0.3472,
      "velocity": 89,
      "chip": "ym2612"
    },
    {
      "channel": 5,
      "note": 54,
      "start": 0.651,
      "duration": 0.0997,
      "velocity": 104,
      "chip": "ym2612"
    },
    {
      "channel": 0,
      "note": 54,
      "start": 0.7003,
      "duration": 0.0831,
      "velocity": 104,
      "chip": "ym2612"
    },
    {
      "channel": 2,
      "note": 54,
      "start": 0.7007,
      "duration": 0.1664,
      "velocity": 97,
      "chip": "ym2612"
    },
    {
      "channel": 5,
      "note": 54,
      "start": 0.8341,
      "duration": 0.0832,
      "velocity": 104,
      "chip": "ym2612"
    },
    {
      "channel": 0,
      "note": 54,
      "start": 0.8671,
      "duration": 0.0998,
      "velocity": 104,
      "chip": "ym2612"
    },
    {
      "channel": 2,
      "note": 54,
      "start": 0.8674,
      "duration": 0.1829,
      "velocity": 97,
      "chip": "ym2612"
    },
    {
      "channel": 3,
      "note": 69,
      "start": 0.8678,
      "duration": 0.3498,
      "velocity": 127,
      "chip": "ym2612"
    },
    {
      "channel": 4,
      "note": 45,
      "start": 0.8691,
      "duration": 0.1818,
      "velocity": 127,
      "chip": "ym2612"
    },
    {
      "channel": 5,
      "note": 54,
      "start": 1.0008,
      "duration": 0.0999,
      "velocity": 104,
      "chip": "ym2612"
    },
    {
      "channel": 0,
      "note": 54,
      "start": 1.0503,
      "duration": 0.0831,
      "velocity": 104,
      "chip": "ym2612"
    },
    {
      "channel": 2,
      "note": 54,
      "start": 1.0507,
      "duration": 0.1664,
      "velocity": 97,
      "chip": "ym2612"
    },
    {
      "channel": 4,
      "note": 54,
      "start": 1.0522,
      "duration": 0.3487,
      "velocity": 89,
      "chip": "ym2612"
    },
    {
      "channel": 5,
      "note": 54,
      "start": 1.1841,
      "duration": 0.0833,
      "velocity": 104,
      "chip": "ym2612"
    },
    {
      "channel": 0,
      "note": 54,
      "start": 1.2171,
      "duration": 0.0998,
      "velocity": 104,
      "chip": "ym2612"
    },
    {
      "channel": 2,
      "note": 54,
      "start": 1.2174,
      "duration": 0.1829,
      "velocity": 97,
      "chip": "ym2612"
    },
    {
      "channel": 3,
      "note": 69,
      "start": 1.2178,
      "duration": 0.3498,
      "velocity": 127,
      "chip": "ym2612"
    },
    {
      "channel": 5,
      "note": 54,
      "start": 1.3508,
      "duration": 0.0999,
      "velocity": 104,
      "chip": "ym2612"
    },
    {
      "channel": 0,
      "note": 54,
      "start": 1.4003,
      "duration": 0.0831,
      "velocity": 104,
      "chip": "ym2612"
    },
    {
      "channel": 2,
      "note": 54,
      "start": 1.4007,
      "duration": 0.1664,
      "velocity": 97,
      "chip": "ym2612"
    },
    {
      "channel": 4,
      "note": 54,
      "start": 1.4012,
      "duration": 0.1667,
      "velocity": 89,
      "chip": "ym2612"
    },
    {
      "channel": 5,
      "note": 54,
      "start": 1.5341,
      "duration": 0.0832,
      "velocity": 104,
      "chip": "ym2612"
    },
    {
      "channel": 0,
      "note": 54,
      "start": 1.5671,
      "duration": 0.0998,
      "velocity": 104,
      "chip": "ym2612"
    },
    {
      "channel": 2,
      "note": 54,
      "start": 1.5674,
      "duration": 0.1829,
      "velocity": 97,
      "chip": "ym2612"
    },
    {
      "channel": 3,
      "note": 69,
      "start": 1.5678,
      "duration": 0.3499,
      "velocity": 127,
      "chip": "ym2612"
    },
    {
      "channel": 4,
      "note": 45,
      "start": 1.5691,
      "duration": 0.1818,
      "velocity": 127,
      "chip": "ym2612"
    },
    {
      "channel": 5,
      "note": 54,
      "start": 1.7008,
      "duration": 0.0999,
      "velocity": 104,
      "chip": "ym2612"
    },
    {
      "channel": 0,
      "note": 54,
      "start": 1.7503,
      "duration": 0.0831,
      "velocity": 104,
      "chip": "ym2612"
    },
    {
      "channel": 2,
      "note": 54,
      "start": 1.7507,
      "duration": 0.1666,
      "velocity": 97,
      "chip": "ym2612"
    },
    {
      "channel": 4,
      "note": 54,
      "start": 1.7522,
      "duration": 0.1658,
      "velocity": 89,
      "chip": "ym2612"
    },
    {
      "channel": 5,
      "note": 54,
      "start": 1.8841,
      "duration": 0.0831,
      "velocity": 104,
      "chip": "ym2612"
    },
    {
      "channel": 0,
      "note": 54,
      "start": 1.9171,
      "duration": 0.0998,
      "velocity": 104,
      "chip": "ym2612"
    },
    {
      "channel": 2,
      "note": 54,
      "start": 1.9176,
      "duration": 0.1827,
      "velocity": 97,
      "chip": "ym2612"
    },
    {
      "channel": 3,
      "note": 69,
      "start": 1.918,
      "duration": 0.3496,
      "velocity": 127,
      "chip": "ym2612"
    },
    {
      "channel": 5,
      "note": 54,
      "start": 2.0507,
      "duration": 0.1,
      "velocity": 104,
      "chip": "ym2612"
    },
    {
      "channel": 0,
      "note": 54,
      "start": 2.1003,
      "duration": 0.0831,
      "velocity": 104,
      "chip": "ym2612"
    },
    {
      "channel": 2,
      "note": 54,
      "start": 2.1007,
      "duration": 0.1664,
      "velocity": 97,
      "chip": "ym2612"
    },
    {
      "channel": 4,
      "note": 54,
      "start": 2.1012,
      "duration": 0.1667,
      "velocity": 89,
      "chip": "ym2612"
    },
    {
      "channel": 5,
      "note": 54,
      "start": 2.2341,
      "duration": 0.0832,
      "velocity": 104,
      "chip": "ym2612"
    },
    {
      "channel": 0,
      "note": 54,
      "start": 2.2671,
      "duration": 0.0998,
      "velocity": 104,
      "chip": "ym2612"
    },
    {
      "channel": 2,
      "note": 54,
      "start": 2.2674,
      "duration": 0.1829,
      "velocity": 97,
      "chip": "ym2612"
    },
    {
      "channel": 3,
      "note": 69,
      "start": 2.2678,
      "duration": 0.3498,
      "velocity": 127,
      "chip": "ym2612"
    },
    {
      "channel": 4,
      "note": 45,
      "start": 2.2691,
      "duration": 0.3487,
      "velocity": 127,
      "chip": "ym2612"
    },
    {
      "channel": 5,
      "note": 54,
      "start": 2.4008,
      "duration": 0.0998,
      "velocity": 104,
      "chip": "ym2612"
    },
    {
      "channel": 0,
      "note": 54,
      "start": 2.4503,
      "duration": 0.0831,
      "velocity": 104,
      "chip": "ym2612"
    },
    {
      "channel": 2,
      "note": 54,
      "start": 2.4507,
      "duration": 0.1664,
      "velocity": 97,
      "chip": "ym2612"
    },
    {
      "channel": 5,
      "note": 54,
      "start": 2.5841,
      "duration": 0.0833,
      "velocity": 104,
      "chip": "ym2612"
    },
    {
      "channel": 0,
      "note": 54,
      "start": 2.6171,
      "duration": 0.0998,
      "velocity": 104,
      "chip": "ym2612"
    },
    {
      "channel": 2,
      "note": 54,
      "start": 2.6174,
      "duration": 0.1829,
      "velocity": 97,
      "chip": "ym2612"
    },
    {
      "channel": 3,
      "note": 69,
      "start": 2.6178,
      "duration": 0.3498,
      "velocity": 127,
      "chip": "ym2612"
    },
    {
      "channel": 4,
      "note": 54,
      "start": 2.6192,
      "duration": 0.1817,
      "velocity": 89,
      "chip": "ym2612"
    },
    {
      "channel": 5,
      "note": 54,
      "start": 2.7508,
      "duration": 0.0999,
      "velocity": 104,
      "chip": "ym2612"
    },
    {
      "channel": 0,
      "note": 54,
      "start": 2.8003,
      "duration": 0.0831,
      "velocity": 104,
      "chip": "ym2612"
    },
    {
      "channel": 2,
      "note": 54,
      "start": 2.8007,
      "duration": 0.1664,
      "velocity": 97,
      "chip": "ym2612"
    },
    {
      "channel": 4,
      "note": 54,
      "start": 2.8012,
      "duration": 0.1667,
      "velocity": 89,
      "chip": "ym2612"
    },
    {
      "channel": 5,
      "note": 54,
      "start": 2.9341,
      "duration": 0.0832,
      "velocity": 104,
      "chip": "ym2612"
    },
    {
      "channel": 0,
      "note": 54,
      "start": 2.9671,
      "duration": 0.0998,
      "velocity": 104,
      "chip": "ym2612"
    },
    {
      "channel": 2,
      "note": 54,
      "start": 2.9675,
      "duration": 0.1829,
      "velocity": 97,
      "chip": "ym2612"
    },
    {
      "channel": 3,
      "note": 69,
      "start": 2.9678,
      "duration": 0.3499,
      "velocity": 127,
      "chip": "ym2612"
    },
    {
      "channel": 4,
      "note": 45,
      "start": 2.9691,
      "duration": 0.3489,
      "velocity": 127,
      "chip": "ym2612"
    },
    {
      "channel": 5,
      "note": 54,
      "start": 3.1008,
      "duration": 0.0998,
      "velocity": 104,
      "chip": "ym2612"
    },
    {
      "channel": 0,
      "note": 54,
      "start": 3.1503,
      "duration": 0.1668,
      "velocity": 104,
      "chip": "ym2612"
    },
    {
      "channel": 2,
      "note": 54,
      "start": 3.1506,
      "duration": 0.1671,
      "velocity": 97,
      "chip": "ym2612"
    },
    {
      "channel": 5,
      "note": 54,
      "start": 3.2841,
      "duration": 0.1667,
      "velocity": 104,
      "chip": "ym2612"
    },
    {
      "channel": 0,
      "note": 52,
      "start": 3.3171,
      "duration": 0.0998,
      "velocity": 104,
      "chip": "ym2612"
    },
    {
      "channel": 2,
      "note": 52,
      "start": 3.3176,
      "duration": 0.1827,
      "velocity": 97,
      "chip": "ym2612"
    },
    {
      "channel": 3,
      "note": 69,
      "start": 3.318,
      "duration": 0.3494,
      "velocity": 127,
      "chip": "ym2612"
    },
    {
      "channel": 4,
      "note": 54,
      "start": 3.3194,
      "duration": 0.3482,
      "velocity": 89,
      "chip": "ym2612"
    },
    {
      "channel": 5,
      "note": 52,
      "start": 3.4508,
      "duration": 0.0999,
      "velocity": 104,
      "chip": "ym2612"
    },
    {
      "channel": 0,
      "note": 54,
      "start": 3.5003,
      "duration": 0.0831,
      "velocity": 104,
      "chip": "ym2612"
    },
    {
      "channel": 2,
      "note": 54,
      "start": 3.5008,
      "duration": 0.1662,
      "velocity": 97,
      "chip": "ym2612"
    },
    {
      "channel": 5,
      "note": 54,
      "start": 3.6341,
      "duration": 0.083,
      "velocity": 104,
      "chip": "ym2612"
    },
    {
      "channel": 3,
      "note": 69,
      "start": 3.6676,
      "duration": 0.3493,
      "velocity": 127,
      "chip": "ym2612"
    },
    {
      "channel": 4,
      "note": 45,
      "start": 3.6689,
      "duration": 0.1814,
      "velocity": 127,
      "chip": "ym2612"
    },
    {
      "channel": 4,
      "note": 54,
      "start": 3.8517,
      "duration": 0.3487,
      "velocity": 89,
      "chip": "ym2612"
    },
    {
      "channel": 3,
      "note": 69,
      "start": 4.0171,
      "duration": 0.3503,
      "velocity": 127,
      "chip": "ym2612"
    },
    {
      "channel": 4,
      "note": 54,
      "start": 4.2006,
      "duration": 0.1671,
      "velocity": 89,
      "chip": "ym2612"
    },
    {
      "channel": 3,
      "note": 69,
      "start": 4.3676,
      "duration": 0.3501,
      "velocity": 127,
      "chip": "ym2612"
    },
    {
      "channel": 4,
      "note": 45,
      "start": 4.3689,
      "duration": 0.1821,
      "velocity": 127,
      "chip": "ym2612"
    },
    {
      "channel": 0,
      "note": 54,
      "start": 4.5503,
      "duration": 0.1668,
      "velocity": 104,
      "chip": "ym2612"
    },
    {
      "channel": 2,
      "note": 54,
      "start": 4.5506,
      "duration": 0.1671,
      "velocity": 97,
      "chip": "ym2612"
    },
    {
      "channel": 4,
      "note": 54,
      "start": 4.5523,
      "duration": 0.1657,
      "velocity": 89,
      "chip": "ym2612"
    },
    {
      "channel": 5,
      "note": 54,
      "start": 4.6841,
      "duration": 0.1666,
      "velocity": 104,
      "chip": "ym2612"
    },
    {
      "channel": 0,
      "note": 52,
      "start": 4.7171,
      "duration": 0.0998,
      "velocity": 104,
      "chip": "ym2612"
    },
    {
      "channel": 2,
      "note": 52,
      "start": 4.7176,
      "duration": 0.1827,
      "velocity": 97,
      "chip": "ym2612"
    },
    {
      "channel": 3,
      "note": 69,
      "start": 4.718,
      "duration": 0.3494,
      "velocity": 127,
      "chip": "ym2612"
    },
    {
      "channel": 5,
      "note": 52,
      "start": 4.8507,
      "duration": 0.1,
      "velocity": 104,
      "chip": "ym2612"
    },
    {
      "channel": 0,
      "note": 54,
      "start": 4.9003,
      "duration": 0.0831,
      "velocity": 104,
      "chip": "ym2612"
    },
    {
      "channel": 2,
      "note": 54,
      "start": 4.9008,
      "duration": 0.1662,
      "velocity": 97,
      "chip": "ym2612"
    },
    {
      "channel": 4,
      "note": 54,
      "start": 4.9012,
      "duration": 0.1664,
      "velocity": 89,
      "chip": "ym2612"
    },
    {
      "channel": 5,
      "note": 54,
      "start": 5.0341,
      "duration": 0.083,
      "velocity": 104,
      "chip": "ym2612"
    },
    {
      "channel": 3,
      "note": 69,
      "start": 5.0676,
      "duration": 0.3493,
      "velocity": 127,
      "chip": "ym2612"
    },
    {
      "channel": 4,
      "note": 45,
      "start": 5.0689,
      "duration": 0.3482,
      "velocity": 127,
      "chip": "ym2612"
    },
    {
      "channel": 3,
      "note": 69,
      "start": 5.4171,
      "duration": 0.3503,
      "velocity": 127,
      "chip": "ym2612"
    },
    {
      "channel": 4,
      "note": 54,
      "start": 5.6006,
      "duration": 0.0831,
      "velocity": 89,
      "chip": "ym2612"
    },
    {
      "channel": 4,
      "note": 54,
      "start": 5.6839,
      "duration": 0.0838,
      "velocity": 89,
      "chip": "ym2612"
    },
    {
      "channel": 3,
      "note": 69,
      "start": 5.7676,
      "duration": 0.3501,
      "velocity": 127,
      "chip": "ym2612"
    },
    {
      "channel": 4,
      "note": 45,
      "start": 5.7689,
      "duration": 0.3491,
      "velocity": 127,
      "chip": "ym2612"
    },
    {
      "channel": 0,
      "note": 54,
      "start": 5.9503,
      "duration": 0.1668,
      "velocity": 104,
      "chip": "ym2612"
    },
    {
      "channel": 2,
      "note": 54,
      "start": 5.9506,
      "duration": 0.1671,
      "velocity": 97,
      "chip": "ym2612"
    },
    {
      "channel": 5,
      "note": 54,
      "start": 6.0841,
      "duration": 0.1669,
      "velocity": 104,
      "chip": "ym2612"
    },
    {
      "channel": 0,
      "note": 52,
      "start": 6.1171,
      "duration": 0.1831,
      "velocity": 104,
      "chip": "ym2612"
    },
    {
      "channel": 2,
      "note": 52,
      "start": 6.1176,
      "duration": 0.1828,
      "velocity": 97,
      "chip": "ym2612"
    },
    {
      "channel": 3,
      "note": 69,
      "start": 6.118,
      "duration": 0.3494,
      "velocity": 127,
      "chip": "ym2612"
    },
    {
      "channel": 4,
      "note": 54,
      "start": 6.1194,
      "duration": 0.3483,
      "velocity": 89,
      "chip": "ym2612"
    },
    {
      "channel": 5,
      "note": 52,
      "start": 6.251,
      "duration": 0.1831,
      "velocity": 104,
      "chip": "ym2612"
    },
    {
      "channel": 0,
      "note": 54,
      "start": 6.3003,
      "duration": 0.1331,
      "velocity": 104,
      "chip": "ym2612"
    },
    {
      "channel": 2,
      "note": 54,
      "start": 6.3007,
      "duration": 0.1665,
      "velocity": 97,
      "chip": "ym2612"
    },
    {
      "channel": 5,
      "note": 54,
      "start": 6.4344,
      "duration": 0.133,
      "velocity": 104,
      "chip": "ym2612"
    },
    {
      "channel": 0,
      "note": 59,
      "start": 6.467,
      "duration": 0.1831,
      "velocity": 104,
      "chip": "ym2612"
    },
    {
      "channel": 2,
      "note": 59,
      "start": 6.4673,
      "duration": 0.1831,
      "velocity": 97,
      "chip": "ym2612"
    },
    {
      "channel": 3,
      "note": 69,
      "start": 6.4676,
      "duration": 0.3499,
      "velocity": 127,
      "chip": "ym2612"
    },
    {
      "channel": 4,
      "note": 45,
      "start": 6.469,
      "duration": 0.182,
      "velocity": 127,
      "chip": "ym2612"
    },
    {
      "channel": 5,
      "note": 59,
      "start": 6.6009,
      "duration": 0.1832,
      "velocity": 104,
      "chip": "ym2612"
    },
    {
      "channel": 0,
      "note": 57,
      "start": 6.6503,
      "duration": 0.1331,
      "velocity": 104,
      "chip": "ym2612"
    },
    {
      "channel": 2,
      "note": 57,
      "start": 6.6508,
      "duration": 0.1663,
      "velocity": 97,
      "chip": "ym2612"
    },
    {
      "channel": 4,
      "note": 54,
      "start": 6.6523,
      "duration": 0.3482,
      "velocity": 89,
      "chip": "ym2612"
    },
    {
      "channel": 5,
      "note": 57,
      "start": 6.7844,
      "duration": 0.133,
      "velocity": 104,
      "chip": "ym2612"
    },
    {
      "channel": 0,
      "note": 57,
      "start": 6.8169,
      "duration": 0.0334,
      "velocity": 104,
      "chip": "ym2612"
    },
    {
      "channel": 2,
      "note": 57,
      "start": 6.8173,
      "duration": 0.0165,
      "velocity": 97,
      "chip": "ym2612"
    },
    {
      "channel": 3,
      "note": 69,
      "start": 6.8178,
      "duration": 0.3496,
      "velocity": 127,
      "chip": "ym2612"
    },
    {
      "channel": 2,
      "note": 59,
      "start": 6.8339,
      "duration": 0.3333,
      "velocity": 97,
      "chip": "ym2612"
    },
    {
      "channel": 0,
      "note": 59,
      "start": 6.8503,
      "duration": 0.3165,
      "velocity": 104,
      "chip": "ym2612"
    },
    {
      "channel": 5,
      "note": 57,
      "start": 6.9508,
      "duration": 0.0334,
      "velocity": 104,
      "chip": "ym2612"
    },
    {
      "channel": 5,
      "note": 59,
      "start": 6.9842,
      "duration": 0.3164,
      "velocity": 104,
      "chip": "ym2612"
    },
    {
      "channel": 4,
      "note": 54,
      "start": 7.0008,
      "duration": 0.1669,
      "velocity": 89,
      "chip": "ym2612"
    },
    {
      "channel": 0,
      "note": 59,
      "start": 7.167,
      "duration": 0.1831,
      "velocity": 104,
      "chip": "ym2612"
    },
    {
      "channel": 2,
      "note": 59,
      "start": 7.1673,
      "duration": 0.1831,
      "velocity": 97,
      "chip": "ym2612"
    },
    {
      "channel": 3,
      "note": 69,
      "start": 7.1676,
      "duration": 0.3502,
      "velocity": 127,
      "chip": "ym2612"
    },
    {
      "channel": 4,
      "note": 45,
      "start": 7.169,
      "duration": 0.182,
      "velocity": 127,
      "chip": "ym2612"
    },
    {
      "channel": 5,
      "note": 59,
      "start": 7.3009,
      "duration": 0.1832,
      "velocity": 104,
      "chip": "ym2612"
    },
    {
      "channel": 0,
      "note": 57,
      "start": 7.3503,
      "duration": 0.1331,
      "velocity": 104,
      "chip": "ym2612"
    },
    {
      "channel": 2,
      "note": 57,
      "start": 7.3508,
      "duration": 0.1666,
      "velocity": 97,
      "chip": "ym2612"
    },
    {
      "channel": 4,
      "note": 54,
      "start": 7.3523,
      "duration": 0.1658,
      "velocity": 89,
      "chip": "ym2612"
    },
    {
      "channel": 5,
      "note": 57,
      "start": 7.4844,
      "duration": 0.1328,
      "velocity": 104,
      "chip": "ym2612"
    },
    {
      "channel": 0,
      "note": 57,
      "start": 7.5169,
      "duration": 0.0334,
      "velocity": 104,
      "chip": "ym2612"
    },
    {
      "channel": 2,
      "note": 57,
      "start": 7.5176,
      "duration": 0.033,
      "velocity": 97,
      "chip": "ym2612"
    },
    {
      "channel": 3,
      "note": 69,
      "start": 7.5181,
      "duration": 0.3493,
      "velocity": 127,
      "chip": "ym2612"
    },
    {
      "channel": 0,
      "note": 60,
      "start": 7.5503,
      "duration": 0.1498,
      "velocity": 104,
      "chip": "ym2612"
    },
    {
      "channel": 2,
      "note": 60,
      "start": 7.5507,
      "duration": 0.1498,
      "velocity": 97,
      "chip": "ym2612"
    },
    {
      "channel": 5,
      "note": 57,
      "start": 7.6507,
      "duration": 0.0334,
      "velocity": 104,
      "chip": "ym2612"
    },
    {
      "channel": 5,
      "note": 60,
      "start": 7.6841,
      "duration": 0.15,
      "velocity": 104,
      "chip": "ym2612"
    },
    {
      "channel": 0,
      "note": 59,
      "start": 7.7003,
      "duration": 0.1331,
      "velocity": 104,
      "chip": "ym2612"
    },
    {
      "channel": 2,
      "note": 59,
      "start": 7.7008,
      "duration": 0.1663,
      "velocity": 97,
      "chip": "ym2612"
    },
    {
      "channel": 4,
      "note": 54,
      "start": 7.7012,
      "duration": 0.1665,
      "velocity": 89,
      "chip": "ym2612"
    },
    {
      "channel": 5,
      "note": 59,
      "start": 7.8344,
      "duration": 0.133,
      "velocity": 104,
      "chip": "ym2612"
    },
    {
      "channel": 0,
      "note": 57,
      "start": 7.867,
      "duration": 0.1831,
      "velocity": 104,
      "chip": "ym2612"
    },
    {
      "channel": 2,
      "note": 57,
      "start": 7.8673,
      "duration": 0.1831,
      "velocity": 97,
      "chip": "ym2612"
    },
    {
      "channel": 3,
      "note": 69,
      "start": 7.8676,
      "duration": 0.3499,
      "velocity": 127,
      "chip": "ym2612"
    },
    {
      "channel": 4,
      "note": 45,
      "start": 7.869,
      "duration": 0.3488,
      "velocity": 127,
      "chip": "ym2612"
    },
    {
      "channel": 5,
      "note": 57,
      "start": 8.0009,
      "duration": 0.1831,
      "velocity": 104,
      "chip": "ym2612"
    },
    {
      "channel": 0,
      "note": 54,
      "start": 8.0503,
      "duration": 0.1331,
      "velocity": 104,
      "chip": "ym2612"
    },
    {
      "channel": 2,
      "note": 54,
      "start": 8.0507,
      "duration": 0.1665,
      "velocity": 97,
      "chip": "ym2612"
    },
    {
      "channel": 5,
      "note": 54,
      "start": 8.1843,
      "duration": 0.1331,
      "velocity": 104,
      "chip": "ym2612"
    },
    {
      "channel": 0,
      "note": 49,
      "start": 8.217,
      "duration": 0.1831,
      "velocity": 104,
      "chip": "ym2612"
    },
    {
      "channel": 2,
      "note": 49,
      "start": 8.2174,
      "duration": 0.183,
      "velocity": 97,
      "chip": "ym2612"
    },
    {
      "channel": 3,
      "note": 69,
      "start": 8.2177,
      "duration": 0.3497,
      "velocity": 127,
      "chip": "ym2612"
    },
    {
      "channel": 4,
      "note": 54,
      "start": 8.2192,
      "duration": 0.1818,
      "velocity": 89,
      "chip": "ym2612"
    },
    {
      "channel": 5,
      "note": 49,
      "start": 8.3509,
      "duration": 0.1832,
      "velocity": 104,
      "chip": "ym2612"
    },
    {
      "channel": 0,
      "note": 52,
      "start": 8.4003,
      "duration": 0.1331,
      "velocity": 104,
      "chip": "ym2612"
    },
    {
      "channel": 2,
      "note": 52,
      "start": 8.4008,
      "duration": 0.1663,
      "velocity": 97,
      "chip": "ym2612"
    },
    {
      "channel": 4,
      "note": 54,
      "start": 8.4012,
      "duration": 0.1665,
      "velocity": 89,
      "chip": "ym2612"
    },
    {
      "channel": 5,
      "note": 52,
      "start": 8.5344,
      "duration": 0.133,
      "velocity": 104,
      "chip": "ym2612"
    },
    {
      "channel": 0,
      "note": 54,
      "start": 8.567,
      "duration": 0.1831,
      "velocity": 104,
      "chip": "ym2612"
    },
    {
      "channel": 2,
      "note": 54,
      "start": 8.5673,
      "duration": 0.1831,
      "velocity": 97,
      "chip": "ym2612"
    },
    {
      "channel": 3,
      "note": 69,
      "start": 8.5676,
      "duration": 0.35,
      "velocity": 127,
      "chip": "ym2612"
    },
    {
      "channel": 4,
      "note": 45,
      "start": 8.569,
      "duration": 0.349,
      "velocity": 127,
      "chip": "ym2612"
    },
    {
      "channel": 5,
      "note": 54,
      "start": 8.7009,
      "duration": 0.1831,
      "velocity": 104,
      "chip": "ym2612"
    },
    {
      "channel": 0,
      "note": 54,
      "start": 8.7503,
      "duration": 0.1668,
      "velocity": 104,
      "chip": "ym2612"
    },
    {
      "channel": 2,
      "note": 54,
      "start": 8.7507,
      "duration": 0.167,
      "velocity": 97,
      "chip": "ym2612"
    },
    {
      "channel": 5,
      "note": 54,
      "start": 8.8841,
      "duration": 0.1667,
      "velocity": 104,
      "chip": "ym2612"
    },
    {
      "channel": 0,
      "note": 52,
      "start": 8.9171,
      "duration": 0.0998,
      "velocity": 104,
      "chip": "ym2612"
    },
    {
      "channel": 2,
      "note": 52,
      "start": 8.9176,
      "duration": 0.1827,
      "velocity": 97,
      "chip": "ym2612"
    },
    {
      "channel": 3,
      "note": 69,
      "start": 8.9179,
      "duration": 0.3494,
      "velocity": 127,
      "chip": "ym2612"
    },
    {
      "channel": 4,
      "note": 54,
      "start": 8.9193,
      "duration": 0.3483,
      "velocity": 89,
      "chip": "ym2612"
    },
    {
      "channel": 5,
      "note": 52,
      "start": 9.0508,
      "duration": 0.0999,
      "velocity": 104,
      "chip": "ym2612"
    },
    {
      "channel": 0,
      "note": 54,
      "start": 9.1003,
      "duration": 0.0831,
      "velocity": 104,
      "chip": "ym2612"
    },
    {
      "channel": 2,
      "note": 54,
      "start": 9.1008,
      "duration": 0.1662,
      "velocity": 97,
      "chip": "ym2612"
    },
    {
      "channel": 5,
      "note": 54,
      "start": 9.2341,
      "duration": 0.083,
      "velocity": 104,
      "chip": "ym2612"
    },
    {
      "channel": 3,
      "note": 69,
      "start": 9.2676,
      "duration": 0.3493,
      "velocity": 127,
      "chip": "ym2612"
    },
    {
      "channel": 4,
      "note": 45,
      "start": 9.2689,
      "duration": 0.1814,
      "velocity": 127,
      "chip": "ym2612"
    },
    {
      "channel": 4,
      "note": 54,
      "start": 9.4517,
      "duration": 0.3487,
      "velocity": 89,
      "chip": "ym2612"
    },
    {
      "channel": 3,
      "note": 69,
      "start": 9.6171,
      "duration": 0.3503,
      "velocity": 127,
      "chip": "ym2612"
    },
    {
      "channel": 4,
      "note": 54,
      "start": 9.8006,
      "duration": 0.1671,
      "velocity": 89,
      "chip": "ym2612"
    },
    {
      "channel": 3,
      "note": 69,
      "start": 9.9676,
      "duration": 0.3501,
      "velocity": 127,
      "chip": "ym2612"
    },
    {
      "channel": 4,
      "note": 45,
      "start": 9.9689,
      "duration": 0.1821,
      "velocity": 127,
      "chip": "ym2612"
    },
    {
      "channel": 0,
      "note": 54,
      "start": 10.1503,
      "duration": 0.1668,
      "velocity": 104,
      "chip": "ym2612"
    },
    {
      "channel": 2,
      "note": 54,
      "start": 10.1506,
      "duration": 0.1671,
      "velocity": 97,
      "chip": "ym2612"
    },
    {
      "channel": 4,
      "note": 54,
      "start": 10.1523,
      "duration": 0.1657,
      "velocity": 89,
      "chip": "ym2612"
    },
    {
      "channel": 5,
      "note": 54,
      "start": 10.2841,
      "duration": 0.1666,
      "velocity": 104,
      "chip": "ym2612"
    },
    {
      "channel": 0,
      "note": 52,
      "start": 10.3171,
      "duration": 0.0998,
      "velocity": 104,
      "chip": "ym2612"
    },
    {
      "channel": 2,
      "note": 52,
      "start": 10.3176,
      "duration": 0.1827,
      "velocity": 97,
      "chip": "ym2612"
    },
    {
      "channel": 3,
      "note": 69,
      "start": 10.3179,
      "duration": 0.3495,
      "velocity": 127,
      "chip": "ym2612"
    },
    {
      "channel": 5,
      "note": 52,
      "start": 10.4507,
      "duration": 0.1,
      "velocity": 104,
      "chip": "ym2612"
    },
    {
      "channel": 0,
      "note": 54,
      "start": 10.5003,
      "duration": 0.0831,
      "velocity": 104,
      "chip": "ym2612"
    },
    {
      "channel": 2,
      "note": 54,
      "start": 10.5008,
      "duration": 0.1662,
      "velocity": 97,
      "chip": "ym2612"
    },
    {
      "channel": 4,
      "note": 54,
      "start": 10.5012,
      "duration": 0.1665,
      "velocity": 89,
      "chip": "ym2612"
    },
    {
      "channel": 5,
      "note": 54,
      "start": 10.6341,
      "duration": 0.083,
      "velocity": 104,
      "chip": "ym2612"
    },
    {
      "channel": 3,
      "note": 69,
      "start": 10.6676,
      "duration": 0.3492,
      "velocity": 127,
      "chip": "ym2612"
    },
    {
      "channel": 4,
      "note": 45,
      "start": 10.669,
      "duration": 0.3481,
      "velocity": 127,
      "chip": "ym2612"
    },
    {
      "channel": 3,
      "note": 69,
      "start": 11.0171,
      "duration": 0.3507,
      "velocity": 127,
      "chip": "ym2612"
    },
    {
      "channel": 4,
      "note": 54,
      "start": 11.0185,
      "duration": 0.1818,
      "velocity": 89,
      "chip": "ym2612"
    },
    {
      "channel": 4,
      "note": 54,
      "start": 11.2006,
      "duration": 0.1674,
      "velocity": 89,
      "chip": "ym2612"
    },
    {
      "channel": 0,
      "note": 54,
      "start": 11.3669,
      "duration": 0.3506,
      "velocity": 104,
      "chip": "ym2612"
    },
    {
      "channel": 1,
      "note": 52,
      "start": 11.3673,
      "duration": 0.3511,
      "velocity": 104,
      "chip": "ym2612"
    },
    {
      "channel": 2,
      "note": 54,
      "start": 11.3676,
      "duration": 0.3334,
      "velocity": 97,
      "chip": "ym2612"
    },
    {
      "channel": 4,
      "note": 45,
      "start": 11.3693,
      "duration": 0.0145,
      "velocity": 127,
      "chip": "ym2612"
    },
    {
      "channel": 4,
      "note": 45,
      "start": 11.384,
      "duration": 0.0831,
      "velocity": 127,
      "chip": "ym2612"
    },
    {
      "channel": 4,
      "note": 45,
      "start": 11.4674,
      "duration": 0.0834,
      "velocity": 127,
      "chip": "ym2612"
    },
    {
      "channel": 5,
      "note": 54,
      "start": 11.5007,
      "duration": 0.3507,
      "velocity": 104,
      "chip": "ym2612"
    },
    {
      "channel": 4,
      "note": 45,
      "start": 11.551,
      "duration": 0.0828,
      "velocity": 127,
      "chip": "ym2612"
    },
    {
      "channel": 4,
      "note": 45,
      "start": 11.6341,
      "duration": 0.0865,
      "velocity": 127,
      "chip": "ym2612"
    },
    {
      "channel": 2,
      "note": 58,
      "start": 11.701,
      "duration": 0.0174,
      "velocity": 97,
      "chip": "ym2612"
    },
    {
      "channel": 0,
      "note": 54,
      "start": 11.7176,
      "duration": 0.0992,
      "velocity": 104,
      "chip": "ym2612"
    },
    {
      "channel": 1,
      "note": 61,
      "start": 11.7184,
      "duration": 0.0986,
      "velocity": 104,
      "chip": "ym2612"
    },
    {
      "channel": 2,
      "note": 54,
      "start": 11.7191,
      "duration": 0.1816,
      "velocity": 97,
      "chip": "ym2612"
    },
    {
      "channel": 3,
      "note": 69,
      "start": 11.7206,
      "duration": 0.1805,
      "velocity": 127,
      "chip": "ym2612"
    },
    {
      "channel": 4,
      "note": 54,
      "start": 11.722,
      "duration": 0.3465,
      "velocity": 89,
      "chip": "ym2612"
    },
    {
      "channel": 5,
      "note": 54,
      "start": 11.8514,
      "duration": 0.0994,
      "velocity": 104,
      "chip": "ym2612"
    },
    {
      "channel": 0,
      "note": 54,
      "start": 11.9003,
      "duration": 0.0831,
      "velocity": 104,
      "chip": "ym2612"
    },
    {
      "channel": 1,
      "note": 61,
      "start": 11.9006,
      "duration": 0.083,
      "velocity": 104,
      "chip": "ym2612"
    },
    {
      "channel": 2,
      "note": 54,
      "start": 11.901,
      "duration": 0.1665,
      "velocity": 97,
      "chip": "ym2612"
    },
    {
      "channel": 3,
      "note": 69,
      "start": 11.9015,
      "duration": 0.1663,
      "velocity": 127,
      "chip": "ym2612"
    },
    {
      "channel": 5,
      "note": 54,
      "start": 12.0341,
      "duration": 0.0833,
      "velocity": 104,
      "chip": "ym2612"
    },
    {
      "channel": 0,
      "note": 54,
      "start": 12.0671,
      "duration": 0.0998,
      "velocity": 104,
      "chip": "ym2612"
    },
    {
      "channel": 1,
      "note": 61,
      "start": 12.0674,
      "duration": 0.0996,
      "velocity": 104,
      "chip": "ym2612"
    },
    {
      "channel": 2,
      "note": 54,
      "start": 12.0678,
      "duration": 0.1828,
      "velocity": 97,
      "chip": "ym2612"
    },
    {
      "channel": 3,
      "note": 69,
      "start": 12.0684,
      "duration": 0.1826,
      "velocity": 127,
      "chip": "ym2612"
    },
    {
      "channel": 4,
      "note": 45,
      "start": 12.0697,
      "duration": 0.1819,
      "velocity": 127,
      "chip": "ym2612"
    },
    {
      "channel": 5,
      "note": 54,
      "start": 12.2008,
      "duration": 0.0999,
      "velocity": 104,
      "chip": "ym2612"
    },
    {
      "channel": 0,
      "note": 54,
      "start": 12.2503,
      "duration": 0.0831,
      "velocity": 104,
      "chip": "ym2612"
    },
    {
      "channel": 1,
      "note": 61,
      "start": 12.2506,
      "duration": 0.083,
      "velocity": 104,
      "chip": "ym2612"
    },
    {
      "channel": 2,
      "note": 54,
      "start": 12.251,
      "duration": 0.1665,
      "velocity": 97,
      "chip": "ym2612"
    },
    {
      "channel": 3,
      "note": 69,
      "start": 12.2515,
      "duration": 0.1663,
      "velocity": 127,
      "chip": "ym2612"
    },
    {
      "channel": 4,
      "note": 54,
      "start": 12.2529,
      "duration": 0.3487,
      "velocity": 89,
      "chip": "ym2612"
    },
    {
      "channel": 5,
      "note": 54,
      "start": 12.3841,
      "duration": 0.0833,
      "velocity": 104,
      "chip": "ym2612"
    },
    {
      "channel": 0,
      "note": 54,
      "start": 12.4171,
      "duration": 0.0998,
      "velocity": 104,
      "chip": "ym2612"
    },
    {
      "channel": 1,
      "note": 61,
      "start": 12.4174,
      "duration": 0.0996,
      "velocity": 104,
      "chip": "ym2612"
    },
    {
      "channel": 2,
      "note": 54,
      "start": 12.4178,
      "duration": 0.1828,
      "velocity": 97,
      "chip": "ym2612"
    },
    {
      "channel": 3,
      "note": 69,
      "start": 12.4184,
      "duration": 0.1826,
      "velocity": 127,
      "chip": "ym2612"
    },
    {
      "channel": 5,
      "note": 54,
      "start": 12.5508,
      "duration": 0.0999,
      "velocity": 104,
      "chip": "ym2612"
    },
    {
      "channel": 0,
      "note": 54,
      "start": 12.6003,
      "duration": 0.0831,
      "velocity": 104,
      "chip": "ym2612"
    },
    {
      "channel": 1,
      "note": 61,
      "start": 12.6006,
      "duration": 0.083,
      "velocity": 104,
      "chip": "ym2612"
    },
    {
      "channel": 2,
      "note": 54,
      "start": 12.601,
      "duration": 0.1665,
      "velocity": 97,
      "chip": "ym2612"
    },
    {
      "channel": 3,
      "note": 69,
      "start": 12.6015,
      "duration": 0.1663,
      "velocity": 127,
      "chip": "ym2612"
    },
    {
      "channel": 4,
      "note": 54,
      "start": 12.6019,
      "duration": 0.1666,
      "velocity": 89,
      "chip": "ym2612"
    },
    {
      "channel": 5,
      "note": 54,
      "start": 12.7341,
      "duration": 0.0833,
      "velocity": 104,
      "chip": "ym2612"
    },
    {
      "channel": 0,
      "note": 54,
      "start": 12.7671,
      "duration": 0.0998,
      "velocity": 104,
      "chip": "ym2612"
    },
    {
      "channel": 1,
      "note": 61,
      "start": 12.7674,
      "duration": 0.0996,
      "velocity": 104,
      "chip": "ym2612"
    },
    {
      "channel": 2,
      "note": 54,
      "start": 12.7678,
      "duration": 0.1828,
      "velocity": 97,
      "chip": "ym2612"
    },
    {
      "channel": 3,
      "note": 69,
      "start": 12.7684,
      "duration": 0.1826,
      "velocity": 127,
      "chip": "ym2612"
    },
    {
      "channel": 4,
      "note": 45,
      "start": 12.7697,
      "duration": 0.1819,
      "velocity": 127,
      "chip": "ym2612"
    },
    {
      "channel": 5,
      "note": 54,
      "start": 12.9008,
      "duration": 0.0999,
      "velocity": 104,
      "chip": "ym2612"
    },
    {
      "channel": 0,
      "note": 54,
      "start": 12.9503,
      "duration": 0.0831,
      "velocity": 104,
      "chip": "ym2612"
    },
    {
      "channel": 1,
      "note": 61,
      "start": 12.9506,
      "duration": 0.083,
      "velocity": 104,
      "chip": "ym2612"
    },
    {
      "channel": 2,
      "note": 54,
      "start": 12.951,
      "duration": 0.1665,
      "velocity": 97,
      "chip": "ym2612"
    },
    {
      "channel": 3,
      "note": 69,
      "start": 12.9515,
      "duration": 0.1663,
      "velocity": 127,
      "chip": "ym2612"
    },
    {
      "channel": 4,
      "note": 54,
      "start": 12.9529,
      "duration": 0.1655,
      "velocity": 89,
      "chip": "ym2612"
    },
    {
      "channel": 5,
      "note": 54,
      "start": 13.0841,
      "duration": 0.0832,
      "velocity": 104,
      "chip": "ym2612"
    },
    {
      "channel": 0,
      "note": 54,
      "start": 13.1171,
      "duration": 0.0998,
      "velocity": 104,
      "chip": "ym2612"
    },
    {
      "channel": 1,
      "note": 61,
      "start": 13.1174,
      "duration": 0.0996,
      "velocity": 104,
      "chip": "ym2612"
    },
    {
      "channel": 2,
      "note": 54,
      "start": 13.1178,
      "duration": 0.1828,
      "velocity": 97,
      "chip": "ym2612"
    },
    {
      "channel": 3,
      "note": 69,
      "start": 13.1184,
      "duration": 0.1826,
      "velocity": 127,
      "chip": "ym2612"
    },
    {
      "channel": 5,
      "note": 54,
      "start": 13.2507,
      "duration": 0.1001,
      "velocity": 104,
      "chip": "ym2612"
    },
    {
      "channel": 0,
      "note": 54,
      "start": 13.3003,
      "duration": 0.0831,
      "velocity": 104,
      "chip": "ym2612"
    },
    {
      "channel": 1,
      "note": 61,
      "start": 13.3006,
      "duration": 0.0831,
      "velocity": 104,
      "chip": "ym2612"
    },
    {
      "channel": 2,
      "note": 54,
      "start": 13.301,
      "duration": 0.1665,
      "velocity": 97,
      "chip": "ym2612"
    },
    {
      "channel": 3,
      "note": 69,
      "start": 13.3015,
      "duration": 0.1663,
      "velocity": 127,
      "chip": "ym2612"
    },
    {
      "channel": 4,
      "note": 54,
      "start": 13.3019,
      "duration": 0.1666,
      "velocity": 89,
      "chip": "ym2612"
    },
    {
      "channel": 5,
      "note": 54,
      "start": 13.4341,
      "duration": 0.0833,
      "velocity": 104,
      "chip": "ym2612"
    },
    {
      "channel": 0,
      "note": 54,
      "start": 13.4671,
      "duration": 0.0998,
      "velocity": 104,
      "chip": "ym2612"
    },
    {
      "channel": 1,
      "note": 61,
      "start": 13.4674,
      "duration": 0.0996,
      "velocity": 104,
      "chip": "ym2612"
    },
    {
      "channel": 2,
      "note": 54,
      "start": 13.4678,
      "duration": 0.1828,
      "velocity": 97,
      "chip": "ym2612"
    },
    {
      "channel": 3,
      "note": 69,
      "start": 13.4684,
      "duration": 0.1826,
      "velocity": 127,
      "chip": "ym2612"
    },
    {
      "channel": 4,
      "note": 45,
      "start": 13.4697,
      "duration": 0.3487,
      "velocity": 127,
      "chip": "ym2612"
    },
    {
      "channel": 5,
      "note": 54,
      "start": 13.6008,
      "duration": 0.0999,
      "velocity": 104,
      "chip": "ym2612"
    },
    {
      "channel": 0,
      "note": 54,
      "start": 13.6503,
      "duration": 0.0831,
      "velocity": 104,
      "chip": "ym2612"
    },
    {
      "channel": 1,
      "note": 61,
      "start": 13.6506,
      "duration": 0.083,
      "velocity": 104,
      "chip": "ym2612"
    },
    {
      "channel": 2,
      "note": 54,
      "start": 13.651,
      "duration": 0.1665,
      "velocity": 97,
      "chip": "ym2612"
    },
    {
      "channel": 3,
      "note": 69,
      "start": 13.6515,
      "duration": 0.1663,
      "velocity": 127,
      "chip": "ym2612"
    },
    {
      "channel": 5,
      "note": 54,
      "start": 13.7841,
      "duration": 0.0833,
      "velocity": 104,
      "chip": "ym2612"
    },
    {
      "channel": 0,
      "note": 54,
      "start": 13.8171,
      "duration": 0.0998,
      "velocity": 104,
      "chip": "ym2612"
    },
    {
      "channel": 1,
      "note": 61,
      "start": 13.8174,
      "duration": 0.0996,
      "velocity": 104,
      "chip": "ym2612"
    },
    {
      "channel": 2,
      "note": 54,
      "start": 13.8178,
      "duration": 0.1828,
      "velocity": 97,
      "chip": "ym2612"
    },
    {
      "channel": 3,
      "note": 69,
      "start": 13.8184,
      "duration": 0.1826,
      "velocity": 127,
      "chip": "ym2612"
    },
    {
      "channel": 4,
      "note": 54,
      "start": 13.8198,
      "duration": 0.1818,
      "velocity": 89,
      "chip": "ym2612"
    },
    {
      "channel": 5,
      "note": 54,
      "start": 13.9508,
      "duration": 0.0999,
      "velocity": 104,
      "chip": "ym2612"
    },
    {
      "channel": 0,
      "note": 54,
      "start": 14.0003,
      "duration": 0.0831,
      "velocity": 104,
      "chip": "ym2612"
    },
    {
      "channel": 1,
      "note": 61,
      "start": 14.0006,
      "duration": 0.083,
      "velocity": 104,
      "chip": "ym2612"
    },
    {
      "channel": 2,
      "note": 54,
      "start": 14.001,
      "duration": 0.1665,
      "velocity": 97,
      "chip": "ym2612"
    },
    {
      "channel": 3,
      "note": 69,
      "start": 14.0015,
      "duration": 0.1663,
      "velocity": 127,
      "chip": "ym2612"
    },
    {
      "channel": 4,
      "note": 54,
      "start": 14.0019,
      "duration": 0.1666,
      "velocity": 89,
      "chip": "ym2612"
    },
    {
      "channel": 5,
      "note": 54,
      "start": 14.1341,
      "duration": 0.0833,
      "velocity": 104,
      "chip": "ym2612"
    },
    {
      "channel": 0,
      "note": 54,
      "start": 14.1671,
      "duration": 0.0998,
      "velocity": 104,
      "chip": "ym2612"
    },
    {
      "channel": 1,
      "note": 61,
      "start": 14.1674,
      "duration": 0.0996,
      "velocity": 104,
      "chip": "ym2612"
    },
    {
      "channel": 2,
      "note": 54,
      "start": 14.1678,
      "duration": 0.183,
      "velocity": 97,
      "chip": "ym2612"
    },
    {
      "channel": 3,
      "note": 69,
      "start": 14.1684,
      "duration": 0.1828,
      "velocity": 127,
      "chip": "ym2612"
    },
    {
      "channel": 4,
      "note": 45,
      "start": 14.1697,
      "duration": 0.3487,
      "velocity": 127,
      "chip": "ym2612"
    },
    {
      "channel": 5,
      "note": 54,
      "start": 14.3008,
      "duration": 0.0999,
      "velocity": 104,
      "chip": "ym2612"
    },
    {
      "channel": 0,
      "note": 54,
      "start": 14.3503,
      "duration": 0.1668,
      "velocity": 104,
      "chip": "ym2612"
    },
    {
      "channel": 1,
      "note": 61,
      "start": 14.3506,
      "duration": 0.1668,
      "velocity": 104,
      "chip": "ym2612"
    },
    {
      "channel": 2,
      "note": 54,
      "start": 14.3509,
      "duration": 0.1669,
      "velocity": 97,
      "chip": "ym2612"
    },
    {
      "channel": 3,
      "note": 69,
      "start": 14.3516,
      "duration": 0.1663,
      "velocity": 127,
      "chip": "ym2612"
    },
    {
      "channel": 5,
      "note": 54,
      "start": 14.4842,
      "duration": 0.1667,
      "velocity": 104,
      "chip": "ym2612"
    },
    {
      "channel": 0,
      "note": 52,
      "start": 14.5171,
      "duration": 0.0998,
      "velocity": 104,
      "chip": "ym2612"
    },
    {
      "channel": 1,
      "note": 59,
      "start": 14.5174,
      "duration": 0.0996,
      "velocity": 104,
      "chip": "ym2612"
    },
    {
      "channel": 2,
      "note": 52,
      "start": 14.5178,
      "duration": 0.1828,
      "velocity": 97,
      "chip": "ym2612"
    },
    {
      "channel": 3,
      "note": 69,
      "start": 14.5184,
      "duration": 0.1828,
      "velocity": 127,
      "chip": "ym2612"
    },
    {
      "channel": 4,
      "note": 54,
      "start": 14.5199,
      "duration": 0.3482,
      "velocity": 89,
      "chip": "ym2612"
    },
    {
      "channel": 5,
      "note": 52,
      "start": 14.6508,
      "duration": 0.0999,
      "velocity": 104,
      "chip": "ym2612"
    },
    {
      "channel": 0,
      "note": 54,
      "start": 14.7003,
      "duration": 0.0831,
      "velocity": 104,
      "chip": "ym2612"
    },
    {
      "channel": 1,
      "note": 61,
      "start": 14.7006,
      "duration": 0.0831,
      "velocity": 104,
      "chip": "ym2612"
    },
    {
      "channel": 2,
      "note": 54,
      "start": 14.7011,
      "duration": 0.1661,
      "velocity": 97,
      "chip": "ym2612"
    },
    {
      "channel": 3,
      "note": 69,
      "start": 14.7016,
      "duration": 0.1659,
      "velocity": 127,
      "chip": "ym2612"
    },
    {
      "channel": 5,
      "note": 54,
      "start": 14.8341,
      "duration": 0.083,
      "velocity": 104,
      "chip": "ym2612"
    },
    {
      "channel": 3,
      "note": 69,
      "start": 14.868,
      "duration": 0.1822,
      "velocity": 127,
      "chip": "ym2612"
    },
    {
      "channel": 4,
      "note": 45,
      "start": 14.8693,
      "duration": 0.1814,
      "velocity": 127,
      "chip": "ym2612"
    },
    {
      "channel": 3,
      "note": 69,
      "start": 15.0507,
      "duration": 0.1662,
      "velocity": 127,
      "chip": "ym2612"
    },
    {
      "channel": 4,
      "note": 54,
      "start": 15.0521,
      "duration": 0.3487,
      "velocity": 89,
      "chip": "ym2612"
    },
    {
      "channel": 3,
      "note": 69,
      "start": 15.2174,
      "duration": 0.1828,
      "velocity": 127,
      "chip": "ym2612"
    },
    {
      "channel": 3,
      "note": 69,
      "start": 15.4007,
      "duration": 0.1668,
      "velocity": 127,
      "chip": "ym2612"
    },
    {
      "channel": 4,
      "note": 54,
      "start": 15.401,
      "duration": 0.1671,
      "velocity": 89,
      "chip": "ym2612"
    },
    {
      "channel": 3,
      "note": 69,
      "start": 15.568,
      "duration": 0.1831,
      "velocity": 127,
      "chip": "ym2612"
    },
    {
      "channel": 4,
      "note": 45,
      "start": 15.5693,
      "duration": 0.1824,
      "velocity": 127,
      "chip": "ym2612"
    },
    {
      "channel": 0,
      "note": 54,
      "start": 15.7503,
      "duration": 0.1668,
      "velocity": 104,
      "chip": "ym2612"
    },
    {
      "channel": 1,
      "note": 61,
      "start": 15.7506,
      "duration": 0.1668,
      "velocity": 104,
      "chip": "ym2612"
    },
    {
      "channel": 2,
      "note": 54,
      "start": 15.7509,
      "duration": 0.1669,
      "velocity": 97,
      "chip": "ym2612"
    },
    {
      "channel": 3,
      "note": 69,
      "start": 15.7516,
      "duration": 0.1663,
      "velocity": 127,
      "chip": "ym2612"
    },
    {
      "channel": 4,
      "note": 54,
      "start": 15.7531,
      "duration": 0.1654,
      "velocity": 89,
      "chip": "ym2612"
    },
    {
      "channel": 5,
      "note": 54,
      "start": 15.8842,
      "duration": 0.1665,
      "velocity": 104,
      "chip": "ym2612"
    },
    {
      "channel": 0,
      "note": 52,
      "start": 15.9171,
      "duration": 0.0998,
      "velocity": 104,
      "chip": "ym2612"
    },
    {
      "channel": 1,
      "note": 59,
      "start": 15.9174,
      "duration": 0.0996,
      "velocity": 104,
      "chip": "ym2612"
    },
    {
      "channel": 2,
      "note": 52,
      "start": 15.9178,
      "duration": 0.1828,
      "velocity": 97,
      "chip": "ym2612"
    },
    {
      "channel": 3,
      "note": 69,
      "start": 15.9184,
      "duration": 0.1828,
      "velocity": 127,
      "chip": "ym2612"
    },
    {
      "channel": 5,
      "note": 52,
      "start": 16.0507,
      "duration": 0.1001,
      "velocity": 104,
      "chip": "ym2612"
    },
    {
      "channel": 0,
      "note": 54,
      "start": 16.1003,
      "duration": 0.0831,
      "velocity": 104,
      "chip": "ym2612"
    },
    {
      "channel": 1,
      "note": 61,
      "start": 16.1006,
      "duration": 0.083,
      "velocity": 104,
      "chip": "ym2612"
    },
    {
      "channel": 2,
      "note": 54,
      "start": 16.1011,
      "duration": 0.1661,
      "velocity": 97,
      "chip": "ym2612"
    },
    {
      "channel": 3,
      "note": 69,
      "start": 16.1016,
      "duration": 0.1659,
      "velocity": 127,
      "chip": "ym2612"
    },
    {
      "channel": 4,
      "note": 54,
      "start": 16.1019,
      "duration": 0.1661,
      "velocity": 89,
      "chip": "ym2612"
    },
    {
      "channel": 5,
      "note": 54,
      "start": 16.2341,
      "duration": 0.083,
      "velocity": 104,
      "chip": "ym2612"
    },
    {
      "channel": 3,
      "note": 69,
      "start": 16.268,
      "duration": 0.1822,
      "velocity": 127,
      "chip": "ym2612"
    },
    {
      "channel": 4,
      "note": 45,
      "start": 16.2693,
      "duration": 0.3481,
      "velocity": 127,
      "chip": "ym2612"
    },
    {
      "channel": 3,
      "note": 69,
      "start": 16.4507,
      "duration": 0.1662,
      "velocity": 127,
      "chip": "ym2612"
    },
    {
      "channel": 3,
      "note": 69,
      "start": 16.6174,
      "duration": 0.1828,
      "velocity": 127,
      "chip": "ym2612"
    },
    {
      "channel": 3,
      "note": 69,
      "start": 16.8007,
      "duration": 0.1668,
      "velocity": 127,
      "chip": "ym2612"
    },
    {
      "channel": 4,
      "note": 54,
      "start": 16.801,
      "duration": 0.0827,
      "velocity": 89,
      "chip": "ym2612"
    },
    {
      "channel": 4,
      "note": 54,
      "start": 16.8839,
      "duration": 0.0842,
      "velocity": 89,
      "chip": "ym2612"
    },
    {
      "channel": 3,
      "note": 69,
      "start": 16.968,
      "duration": 0.1831,
      "velocity": 127,
      "chip": "ym2612"
    },
    {
      "channel": 4,
      "note": 45,
      "start": 16.9693,
      "duration": 0.3491,
      "velocity": 127,
      "chip": "ym2612"
    },
    {
      "channel": 0,
      "note": 54,
      "start": 17.1503,
      "duration": 0.1668,
      "velocity": 104,
      "chip": "ym2612"
    },
    {
      "channel": 1,
      "note": 61,
      "start": 17.1506,
      "duration": 0.1668,
      "velocity": 104,
      "chip": "ym2612"
    },
    {
      "channel": 2,
      "note": 54,
      "start": 17.1509,
      "duration": 0.1669,
      "velocity": 97,
      "chip": "ym2612"
    },
    {
      "channel": 3,
      "note": 69,
      "start": 17.1516,
      "duration": 0.1663,
      "velocity": 127,
      "chip": "ym2612"
    },
    {
      "channel": 5,
      "note": 54,
      "start": 17.2842,
      "duration": 0.1669,
      "velocity": 104,
      "chip": "ym2612"
    },
    {
      "channel": 0,
      "note": 52,
      "start": 17.3171,
      "duration": 0.1831,
      "velocity": 104,
      "chip": "ym2612"
    },
    {
      "channel": 1,
      "note": 59,
      "start": 17.3174,
      "duration": 0.1829,
      "velocity": 104,
      "chip": "ym2612"
    },
    {
      "channel": 2,
      "note": 52,
      "start": 17.3178,
      "duration": 0.1829,
      "velocity": 97,
      "chip": "ym2612"
    },
    {
      "channel": 3,
      "note": 69,
      "start": 17.3184,
      "duration": 0.1826,
      "velocity": 127,
      "chip": "ym2612"
    },
    {
      "channel": 4,
      "note": 54,
      "start": 17.3199,
      "duration": 0.3484,
      "velocity": 89,
      "chip": "ym2612"
    },
    {
      "channel": 5,
      "note": 52,
      "start": 17.4511,
      "duration": 0.1832,
      "velocity": 104,
      "chip": "ym2612"
    },
    {
      "channel": 0,
      "note": 54,
      "start": 17.5003,
      "duration": 0.1331,
      "velocity": 104,
      "chip": "ym2612"
    },
    {
      "channel": 1,
      "note": 61,
      "start": 17.5007,
      "duration": 0.133,
      "velocity": 104,
      "chip": "ym2612"
    },
    {
      "channel": 2,
      "note": 54,
      "start": 17.501,
      "duration": 0.1665,
      "velocity": 97,
      "chip": "ym2612"
    },
    {
      "channel": 3,
      "note": 69,
      "start": 17.5015,
      "duration": 0.1661,
      "velocity": 127,
      "chip": "ym2612"
    },
    {
      "channel": 5,
      "note": 54,
      "start": 17.6346,
      "duration": 0.1329,
      "velocity": 104,
      "chip": "ym2612"
    },
    {
      "channel": 0,
      "note": 59,
      "start": 17.667,
      "duration": 0.1831,
      "velocity": 104,
      "chip": "ym2612"
    },
    {
      "channel": 1,
      "note": 66,
      "start": 17.6673,
      "duration": 0.1831,
      "velocity": 104,
      "chip": "ym2612"
    },
    {
      "channel": 2,
      "note": 59,
      "start": 17.6676,
      "duration": 0.1831,
      "velocity": 97,
      "chip": "ym2612"
    },
    {
      "channel": 3,
      "note": 69,
      "start": 17.6682,
      "duration": 0.1829,
      "velocity": 127,
      "chip": "ym2612"
    },
    {
      "channel": 4,
      "note": 45,
      "start": 17.6695,
      "duration": 0.1821,
      "velocity": 127,
      "chip": "ym2612"
    },
    {
      "channel": 5,
      "note": 59,
      "start": 17.801,
      "duration": 0.1833,
      "velocity": 104,
      "chip": "ym2612"
    },
    {
      "channel": 0,
      "note": 57,
      "start": 17.8503,
      "duration": 0.1331,
      "velocity": 104,
      "chip": "ym2612"
    },
    {
      "channel": 1,
      "note": 64,
      "start": 17.8507,
      "duration": 0.133,
      "velocity": 104,
      "chip": "ym2612"
    },
    {
      "channel": 2,
      "note": 57,
      "start": 17.851,
      "duration": 0.1665,
      "velocity": 97,
      "chip": "ym2612"
    },
    {
      "channel": 3,
      "note": 69,
      "start": 17.8516,
      "duration": 0.1663,
      "velocity": 127,
      "chip": "ym2612"
    },
    {
      "channel": 4,
      "note": 54,
      "start": 17.853,
      "duration": 0.348,
      "velocity": 89,
      "chip": "ym2612"
    },
    {
      "channel": 5,
      "note": 57,
      "start": 17.9846,
      "duration": 0.1329,
      "velocity": 104,
      "chip": "ym2612"
    },
    {
      "channel": 0,
      "note": 57,
      "start": 18.0169,
      "duration": 0.0334,
      "velocity": 104,
      "chip": "ym2612"
    },
    {
      "channel": 1,
      "note": 64,
      "start": 18.0173,
      "duration": 0.0334,
      "velocity": 104,
      "chip": "ym2612"
    },
    {
      "channel": 2,
      "note": 57,
      "start": 18.0177,
      "duration": 0.0163,
      "velocity": 97,
      "chip": "ym2612"
    },
    {
      "channel": 3,
      "note": 69,
      "start": 18.0184,
      "duration": 0.1821,
      "velocity": 127,
      "chip": "ym2612"
    },
    {
      "channel": 2,
      "note": 59,
      "start": 18.034,
      "duration": 0.3334,
      "velocity": 97,
      "chip": "ym2612"
    },
    {
      "channel": 0,
      "note": 59,
      "start": 18.0503,
      "duration": 0.3165,
      "velocity": 104,
      "chip": "ym2612"
    },
    {
      "channel": 1,
      "note": 66,
      "start": 18.0507,
      "duration": 0.3164,
      "velocity": 104,
      "chip": "ym2612"
    },
    {
      "channel": 5,
      "note": 57,
      "start": 18.1509,
      "duration": 0.0334,
      "velocity": 104,
      "chip": "ym2612"
    },
    {
      "channel": 5,
      "note": 59,
      "start": 18.1844,
      "duration": 0.3164,
      "velocity": 104,
      "chip": "ym2612"
    },
    {
      "channel": 3,
      "note": 69,
      "start": 18.201,
      "duration": 0.1667,
      "velocity": 127,
      "chip": "ym2612"
    },
    {
      "channel": 4,
      "note": 54,
      "start": 18.2013,
      "duration": 0.167,
      "velocity": 89,
      "chip": "ym2612"
    },
    {
      "channel": 0,
      "note": 59,
      "start": 18.367,
      "duration": 0.1831,
      "velocity": 104,
      "chip": "ym2612"
    },
    {
      "channel": 1,
      "note": 66,
      "start": 18.3673,
      "duration": 0.1831,
      "velocity": 104,
      "chip": "ym2612"
    },
    {
      "channel": 2,
      "note": 59,
      "start": 18.3676,
      "duration": 0.1831,
      "velocity": 97,
      "chip": "ym2612"
    },
    {
      "channel": 3,
      "note": 69,
      "start": 18.3682,
      "duration": 0.1829,
      "velocity": 127,
      "chip": "ym2612"
    },
    {
      "channel": 4,
      "note": 45,
      "start": 18.3695,
      "duration": 0.1821,
      "velocity": 127,
      "chip": "ym2612"
    },
    {
      "channel": 5,
      "note": 59,
      "start": 18.501,
      "duration": 0.1833,
      "velocity": 104,
      "chip": "ym2612"
    },
    {
      "channel": 0,
      "note": 57,
      "start": 18.5503,
      "duration": 0.1331,
      "velocity": 104,
      "chip": "ym2612"
    },
    {
      "channel": 1,
      "note": 64,
      "start": 18.5507,
      "duration": 0.133,
      "velocity": 104,
      "chip": "ym2612"
    },
    {
      "channel": 2,
      "note": 57,
      "start": 18.551,
      "duration": 0.1666,
      "velocity": 97,
      "chip": "ym2612"
    },
    {
      "channel": 3,
      "note": 69,
      "start": 18.5516,
      "duration": 0.1665,
      "velocity": 127,
      "chip": "ym2612"
    },
    {
      "channel": 4,
      "note": 54,
      "start": 18.553,
      "duration": 0.1657,
      "velocity": 89,
      "chip": "ym2612"
    },
    {
      "channel": 5,
      "note": 57,
      "start": 18.6846,
      "duration": 0.1328,
      "velocity": 104,
      "chip": "ym2612"
    },
    {
      "channel": 0,
      "note": 57,
      "start": 18.7169,
      "duration": 0.0334,
      "velocity": 104,
      "chip": "ym2612"
    },
    {
      "channel": 1,
      "note": 64,
      "start": 18.7174,
      "duration": 0.0333,
      "velocity": 104,
      "chip": "ym2612"
    },
    {
      "channel": 2,
      "note": 57,
      "start": 18.7178,
      "duration": 0.0332,
      "velocity": 97,
      "chip": "ym2612"
    },
    {
      "channel": 3,
      "note": 69,
      "start": 18.7186,
      "duration": 0.1825,
      "velocity": 127,
      "chip": "ym2612"
    },
    {
      "channel": 0,
      "note": 60,
      "start": 18.7503,
      "duration": 0.1498,
      "velocity": 104,
      "chip": "ym2612"
    },
    {
      "channel": 1,
      "note": 67,
      "start": 18.7507,
      "duration": 0.1497,
      "velocity": 104,
      "chip": "ym2612"
    },
    {
      "channel": 2,
      "note": 60,
      "start": 18.751,
      "duration": 0.1498,
      "velocity": 97,
      "chip": "ym2612"
    },
    {
      "channel": 5,
      "note": 57,
      "start": 18.8508,
      "duration": 0.0333,
      "velocity": 104,
      "chip": "ym2612"
    },
    {
      "channel": 5,
      "note": 60,
      "start": 18.8842,
      "duration": 0.1501,
      "velocity": 104,
      "chip": "ym2612"
    },
    {
      "channel": 0,
      "note": 59,
      "start": 18.9003,
      "duration": 0.1331,
      "velocity": 104,
      "chip": "ym2612"
    },
    {
      "channel": 1,
      "note": 66,
      "start": 18.9007,
      "duration": 0.133,
      "velocity": 104,
      "chip": "ym2612"
    },
    {
      "channel": 2,
      "note": 59,
      "start": 18.901,
      "duration": 0.1664,
      "velocity": 97,
      "chip": "ym2612"
    },
    {
      "channel": 3,
      "note": 69,
      "start": 18.9016,
      "duration": 0.1661,
      "velocity": 127,
      "chip": "ym2612"
    },
    {
      "channel": 4,
      "note": 54,
      "start": 18.9019,
      "duration": 0.1663,
      "velocity": 89,
      "chip": "ym2612"
    },
    {
      "channel": 5,
      "note": 59,
      "start": 19.0346,
      "duration": 0.1329,
      "velocity": 104,
      "chip": "ym2612"
    },
    {
      "channel": 0,
      "note": 57,
      "start": 19.067,
      "duration": 0.1831,
      "velocity": 104,
      "chip": "ym2612"
    },
    {
      "channel": 1,
      "note": 64,
      "start": 19.0673,
      "duration": 0.1831,
      "velocity": 104,
      "chip": "ym2612"
    },
    {
      "channel": 2,
      "note": 57,
      "start": 19.0676,
      "duration": 0.1831,
      "velocity": 97,
      "chip": "ym2612"
    },
    {
      "channel": 3,
      "note": 69,
      "start": 19.0682,
      "duration": 0.1828,
      "velocity": 127,
      "chip": "ym2612"
    },
    {
      "channel": 4,
      "note": 45,
      "start": 19.0695,
      "duration": 0.3488,
      "velocity": 127,
      "chip": "ym2612"
    },
    {
      "channel": 5,
      "note": 57,
      "start": 19.201,
      "duration": 0.1833,
      "velocity": 104,
      "chip": "ym2612"
    },
    {
      "channel": 0,
      "note": 54,
      "start": 19.2503,
      "duration": 0.1331,
      "velocity": 104,
      "chip": "ym2612"
    },
    {
      "channel": 1,
      "note": 61,
      "start": 19.2507,
      "duration": 0.133,
      "velocity": 104,
      "chip": "ym2612"
    },
    {
      "channel": 2,
      "note": 54,
      "start": 19.251,
      "duration": 0.1665,
      "velocity": 97,
      "chip": "ym2612"
    },
    {
      "channel": 3,
      "note": 69,
      "start": 19.2515,
      "duration": 0.1662,
      "velocity": 127,
      "chip": "ym2612"
    },
    {
      "channel": 5,
      "note": 54,
      "start": 19.3845,
      "duration": 0.1329,
      "velocity": 104,
      "chip": "ym2612"
    },
    {
      "channel": 0,
      "note": 49,
      "start": 19.417,
      "duration": 0.1831,
      "velocity": 104,
      "chip": "ym2612"
    },
    {
      "channel": 1,
      "note": 56,
      "start": 19.4173,
      "duration": 0.1831,
      "velocity": 104,
      "chip": "ym2612"
    },
    {
      "channel": 2,
      "note": 49,
      "start": 19.4177,
      "duration": 0.1831,
      "velocity": 97,
      "chip": "ym2612"
    },
    {
      "channel": 3,
      "note": 69,
      "start": 19.4183,
      "duration": 0.1828,
      "velocity": 127,
      "chip": "ym2612"
    },
    {
      "channel": 4,
      "note": 54,
      "start": 19.4197,
      "duration": 0.182,
      "velocity": 89,
      "chip": "ym2612"
    },
    {
      "channel": 5,
      "note": 49,
      "start": 19.551,
      "duration": 0.1833,
      "velocity": 104,
      "chip": "ym2612"
    },
    {
      "channel": 0,
      "note": 52,
      "start": 19.6003,
      "duration": 0.1331,
      "velocity": 104,
      "chip": "ym2612"
    },
    {
      "channel": 1,
      "note": 59,
      "start": 19.6007,
      "duration": 0.133,
      "velocity": 104,
      "chip": "ym2612"
    },
    {
      "channel": 2,
      "note": 52,
      "start": 19.601,
      "duration": 0.1664,
      "velocity": 97,
      "chip": "ym2612"
    },
    {
      "channel": 3,
      "note": 69,
      "start": 19.6016,
      "duration": 0.1661,
      "velocity": 127,
      "chip": "ym2612"
    },
    {
      "channel": 4,
      "note": 54,
      "start": 19.6019,
      "duration": 0.1663,
      "velocity": 89,
      "chip": "ym2612"
    },
    {
      "channel": 5,
      "note": 52,
      "start": 19.7346,
      "duration": 0.1329,
      "velocity": 104,
      "chip": "ym2612"
    },
    {
      "channel": 0,
      "note": 54,
      "start": 19.767,
      "duration": 0.1831,
      "velocity": 104,
      "chip": "ym2612"
    },
    {
      "channel": 1,
      "note": 61,
      "start": 19.7674,
      "duration": 0.1831,
      "velocity": 104,
      "chip": "ym2612"
    },
    {
      "channel": 2,
      "note": 54,
      "start": 19.7676,
      "duration": 0.1832,
      "velocity": 97,
      "chip": "ym2612"
    },
    {
      "channel": 3,
      "note": 69,
      "start": 19.7682,
      "duration": 0.183,
      "velocity": 127,
      "chip": "ym2612"
    },
    {
      "channel": 4,
      "note": 45,
      "start": 19.7695,
      "duration": 0.3489,
      "velocity": 127,
      "chip": "ym2612"
    },
    {
      "channel": 5,
      "note": 54,
      "start": 19.901,
      "duration": 0.1831,
      "velocity": 104,
      "chip": "ym2612"
    },
    {
      "channel": 0,
      "note": 54,
      "start": 19.9503,
      "duration": 0.1668,
      "velocity": 104,
      "chip": "ym2612"
    },
    {
      "channel": 1,
      "note": 61,
      "start": 19.9506,
      "duration": 0.1668,
      "velocity": 104,
      "chip": "ym2612"
    },
    {
      "channel": 2,
      "note": 54,
      "start": 19.951,
      "duration": 0.1668,
      "velocity": 97,
      "chip": "ym2612"
    },
    {
      "channel": 3,
      "note": 69,
      "start": 19.9517,
      "duration": 0.1662,
      "velocity": 127,
      "chip": "ym2612"
    },
    {
      "channel": 5,
      "note": 54,
      "start": 20.0842,
      "duration": 0.1667,
      "velocity": 104,
      "chip": "ym2612"
    },
    {
      "channel": 0,
      "note": 52,
      "start": 20.1171,
      "duration": 0.0998,
      "velocity": 104,
      "chip": "ym2612"
    },
    {
      "channel": 1,
      "note": 59,
      "start": 20.1174,
      "duration": 0.0996,
      "velocity": 104,
      "chip": "ym2612"
    },
    {
      "channel": 2,
      "note": 52,
      "start": 20.1178,
      "duration": 0.1828,
      "velocity": 97,
      "chip": "ym2612"
    },
    {
      "channel": 3,
      "note": 69,
      "start": 20.1184,
      "duration": 0.1828,
      "velocity": 127,
      "chip": "ym2612"
    },
    {
      "channel": 4,
      "note": 54,
      "start": 20.1199,
      "duration": 0.3482,
      "velocity": 89,
      "chip": "ym2612"
    },
    {
      "channel": 5,
      "note": 52,
      "start": 20.2508,
      "duration": 0.0999,
      "velocity": 104,
      "chip": "ym2612"
    },
    {
      "channel": 0,
      "note": 54,
      "start": 20.3003,
      "duration": 0.0831,
      "velocity": 104,
      "chip": "ym2612"
    },
    {
      "channel": 1,
      "note": 61,
      "start": 20.3006,
      "duration": 0.083,
      "velocity": 104,
      "chip": "ym2612"
    },
    {
      "channel": 2,
      "note": 54,
      "start": 20.3011,
      "duration": 0.1661,
      "velocity": 97,
      "chip": "ym2612"
    },
    {
      "channel": 3,
      "note": 69,
      "start": 20.3016,
      "duration": 0.1659,
      "velocity": 127,
      "chip": "ym2612"
    },
    {
      "channel": 5,
      "note": 54,
      "start": 20.4341,
      "duration": 0.083,
      "velocity": 104,
      "chip": "ym2612"
    },
    {
      "channel": 3,
      "note": 69,
      "start": 20.468,
      "duration": 0.1822,
      "velocity": 127,
      "chip": "ym2612"
    },
    {
      "channel": 4,
      "note": 45,
      "start": 20.4693,
      "duration": 0.1814,
      "velocity": 127,
      "chip": "ym2612"
    },
    {
      "channel": 3,
      "note": 69,
      "start": 20.6507,
      "duration": 0.1662,
      "velocity": 127,
      "chip": "ym2612"
    },
    {
      "channel": 4,
      "note": 54,
      "start": 20.6521,
      "duration": 0.3487,
      "velocity": 89,
      "chip": "ym2612"
    },
    {
      "channel": 3,
      "note": 69,
      "start": 20.8174,
      "duration": 0.1828,
      "velocity": 127,
      "chip": "ym2612"
    },
    {
      "channel": 3,
      "note": 69,
      "start": 21.0007,
      "duration": 0.1668,
      "velocity": 127,
      "chip": "ym2612"
    },
    {
      "channel": 4,
      "note": 54,
      "start": 21.001,
      "duration": 0.1671,
      "velocity": 89,
      "chip": "ym2612"
    },
    {
      "channel": 3,
      "note": 69,
      "start": 21.168,
      "duration": 0.1831,
      "velocity": 127,
      "chip": "ym2612"
    },
    {
      "channel": 4,
      "note": 45,
      "start": 21.1693,
      "duration": 0.1824,
      "velocity": 127,
      "chip": "ym2612"
    },
    {
      "channel": 0,
      "note": 54,
      "start": 21.3503,
      "duration": 0.1668,
      "velocity": 104,
      "chip": "ym2612"
    },
    {
      "channel": 1,
      "note": 61,
      "start": 21.3506,
      "duration": 0.1668,
      "velocity": 104,
      "chip": "ym2612"
    },
    {
      "channel": 2,
      "note": 54,
      "start": 21.3509,
      "duration": 0.1669,
      "velocity": 97,
      "chip": "ym2612"
    },
    {
      "channel": 3,
      "note": 69,
      "start": 21.3516,
      "duration": 0.1663,
      "velocity": 127,
      "chip": "ym2612"
    },
    {
      "channel": 4,
      "note": 54,
      "start": 21.3531,
      "duration": 0.1654,
      "velocity": 89,
      "chip": "ym2612"
    },
    {
      "channel": 5,
      "note": 54,
      "start": 21.4842,
      "duration": 0.1665,
      "velocity": 104,
      "chip": "ym2612"
    },
    {
      "channel": 0,
      "note": 52,
      "start": 21.5171,
      "duration": 0.0998,
      "velocity": 104,
      "chip": "ym2612"
    },
    {
      "channel": 1,
      "note": 59,
      "start": 21.5174,
      "duration": 0.0996,
      "velocity": 104,
      "chip": "ym2612"
    },
    {
      "channel": 2,
      "note": 52,
      "start": 21.5178,
      "duration": 0.1828,
      "velocity": 97,
      "chip": "ym2612"
    },
    {
      "channel": 3,
      "note": 69,
      "start": 21.5184,
      "duration": 0.1828,
      "velocity": 127,
      "chip": "ym2612"
    },
    {
      "channel": 5,
      "note": 52,
      "start": 21.6507,
      "duration": 0.1001,
      "velocity": 104,
      "chip": "ym2612"
    },
    {
      "channel": 0,
      "note": 54,
      "start": 21.7003,
      "duration": 0.0831,
      "velocity": 104,
      "chip": "ym2612"
    },
    {
      "channel": 1,
      "note": 61,
      "start": 21.7006,
      "duration": 0.083,
      "velocity": 104,
      "chip": "ym2612"
    },
    {
      "channel": 2,
      "note": 54,
      "start": 21.7011,
      "duration": 0.1661,
      "velocity": 97,
      "chip": "ym2612"
    },
    {
      "channel": 3,
      "note": 69,
      "start": 21.7016,
      "duration": 0.1659,
      "velocity": 127,
      "chip": "ym2612"
    },
    {
      "channel": 4,
      "note": 54,
      "start": 21.7019,
      "duration": 0.1661,
      "velocity": 89,
      "chip": "ym2612"
    },
    {
      "channel": 5,
      "note": 54,
      "start": 21.8341,
      "duration": 0.083,
      "velocity": 104,
      "chip": "ym2612"
    },
    {
      "channel": 3,
      "note": 69,
      "start": 21.868,
      "duration": 0.1822,
      "velocity": 127,
      "chip": "ym2612"
    },
    {
      "channel": 4,
      "note": 45,
      "start": 21.8693,
      "duration": 0.3481,
      "velocity": 127,
      "chip": "ym2612"
    },
    {
      "channel": 3,
      "note": 69,
      "start": 22.0507,
      "duration": 0.1662,
      "velocity": 127,
      "chip": "ym2612"
    },
    {
      "channel": 3,
      "note": 69,
      "start": 22.2174,
      "duration": 0.1828,
      "velocity": 127,
      "chip": "ym2612"
    },
    {
      "channel": 3,
      "note": 69,
      "start": 22.4007,
      "duration": 0.1668,
      "velocity": 127,
      "chip": "ym2612"
    },
    {
      "channel": 4,
      "note": 54,
      "start": 22.401,
      "duration": 0.0827,
      "velocity": 89,
      "chip": "ym2612"
    },
    {
      "channel": 4,
      "note": 54,
      "start": 22.4839,
      "duration": 0.0842,
      "velocity": 89,
      "chip": "ym2612"
    },
    {
      "channel": 3,
      "note": 69,
      "start": 22.568,
      "duration": 0.1831,
      "velocity": 127,
      "chip": "ym2612"
    },
    {
      "channel": 4,
      "note": 45,
      "start": 22.5693,
      "duration": 0.3491,
      "velocity": 127,
      "chip": "ym2612"
    },
    {
      "channel": 0,
      "note": 54,
      "start": 22.7503,
      "duration": 0.1668,
      "velocity": 104,
      "chip": "ym2612"
    },
    {
      "channel": 1,
      "note": 61,
      "start": 22.7506,
      "duration": 0.1668,
      "velocity": 104,
      "chip": "ym2612"
    },
    {
      "channel": 2,
      "note": 54,
      "start": 22.7509,
      "duration": 0.1669,
      "velocity": 97,
      "chip": "ym2612"
    },
    {
      "channel": 3,
      "note": 69,
      "start": 22.7516,
      "duration": 0.1663,
      "velocity": 127,
      "chip": "ym2612"
    },
    {
      "channel": 5,
      "note": 54,
      "start": 22.8842,
      "duration": 0.1669,
      "velocity": 104,
      "chip": "ym2612"
    },
    {
      "channel": 0,
      "note": 52,
      "start": 22.9171,
      "duration": 0.1831,
      "velocity": 104,
      "chip": "ym2612"
    },
    {
      "channel": 1,
      "note": 59,
      "start": 22.9174,
      "duration": 0.1829,
      "velocity": 104,
      "chip": "ym2612"
    },
    {
      "channel": 2,
      "note": 52,
      "start": 22.9178,
      "duration": 0.1829,
      "velocity": 97,
      "chip": "ym2612"
    },
    {
      "channel": 3,
      "note": 69,
      "start": 22.9184,
      "duration": 0.1826,
      "velocity": 127,
      "chip": "ym2612"
    },
    {
      "channel": 4,
      "note": 54,
      "start": 22.9199,
      "duration": 0.3484,
      "velocity": 89,
      "chip": "ym2612"
    },
    {
      "channel": 5,
      "note": 52,
      "start": 23.0511,
      "duration": 0.1832,
      "velocity": 104,
      "chip": "ym2612"
    },
    {
      "channel": 0,
      "note": 54,
      "start": 23.1003,
      "duration": 0.1331,
      "velocity": 104,
      "chip": "ym2612"
    },
    {
      "channel": 1,
      "note": 61,
      "start": 23.1007,
      "duration": 0.133,
      "velocity": 104,
      "chip": "ym2612"
    },
    {
      "channel": 2,
      "note": 54,
      "start": 23.101,
      "duration": 0.1665,
      "velocity": 97,
      "chip": "ym2612"
    },
    {
      "channel": 3,
      "note": 69,
      "start": 23.1015,
      "duration": 0.1661,
      "velocity": 127,
      "chip": "ym2612"
    },
    {
      "channel": 5,
      "note": 54,
      "start": 23.2346,
      "duration": 0.1329,
      "velocity": 104,
      "chip": "ym2612"
    },
    {
      "channel": 0,
      "note": 59,
      "start": 23.267,
      "duration": 0.1831,
      "velocity": 104,
      "chip": "ym2612"
    },
    {
      "channel": 1,
      "note": 66,
      "start": 23.2673,
      "duration": 0.1831,
      "velocity": 104,
      "chip": "ym2612"
    },
    {
      "channel": 2,
      "note": 59,
      "start": 23.2676,
      "duration": 0.1831,
      "velocity": 97,
      "chip": "ym2612"
    },
    {
      "channel": 3,
      "note": 69,
      "start": 23.2682,
      "duration": 0.1829,
      "velocity": 127,
      "chip": "ym2612"
    },
    {
      "channel": 4,
      "note": 45,
      "start": 23.2695,
      "duration": 0.1821,
      "velocity": 127,
      "chip": "ym2612"
    },
    {
      "channel": 5,
      "note": 59,
      "start": 23.401,
      "duration": 0.1833,
      "velocity": 104,
      "chip": "ym2612"
    },
    {
      "channel": 0,
      "note": 57,
      "start": 23.4503,
      "duration": 0.1331,
      "velocity": 104,
      "chip": "ym2612"
    },
    {
      "channel": 1,
      "note": 64,
      "start": 23.4507,
      "duration": 0.133,
      "velocity": 104,
      "chip": "ym2612"
    },
    {
      "channel": 2,
      "note": 57,
      "start": 23.451,
      "duration": 0.1665,
      "velocity": 97,
      "chip": "ym2612"
    },
    {
      "channel": 3,
      "note": 69,
      "start": 23.4516,
      "duration": 0.1663,
      "velocity": 127,
      "chip": "ym2612"
    },
    {
      "channel": 4,
      "note": 54,
      "start": 23.453,
      "duration": 0.348,
      "velocity": 89,
      "chip": "ym2612"
    },
    {
      "channel": 5,
      "note": 57,
      "start": 23.5846,
      "duration": 0.1329,
      "velocity": 104,
      "chip": "ym2612"
    },
    {
      "channel": 0,
      "note": 57,
      "start": 23.6169,
      "duration": 0.0334,
      "velocity": 104,
      "chip": "ym2612"
    },
    {
      "channel": 1,
      "note": 64,
      "start": 23.6173,
      "duration": 0.0334,
      "velocity": 104,
      "chip": "ym2612"
    },
    {
      "channel": 2,
      "note": 57,
      "start": 23.6177,
      "duration": 0.0163,
      "velocity": 97,
      "chip": "ym2612"
    },
    {
      "channel": 3,
      "note": 69,
      "start": 23.6184,
      "duration": 0.1821,
      "velocity": 127,
      "chip": "ym2612"
    },
    {
      "channel": 2,
      "note": 59,
      "start": 23.634,
      "duration": 0.3334,
      "velocity": 97,
      "chip": "ym2612"
    },
    {
      "channel": 0,
      "note": 59,
      "start": 23.6503,
      "duration": 0.3165,
      "velocity": 104,
      "chip": "ym2612"
    },
    {
      "channel": 1,
      "note": 66,
      "start": 23.6507,
      "duration": 0.3164,
      "velocity": 104,
      "chip": "ym2612"
    },
    {
      "channel": 5,
      "note": 57,
      "start": 23.7509,
      "duration": 0.0334,
      "velocity": 104,
      "chip": "ym2612"
    },
    {
      "channel": 5,
      "note": 59,
      "start": 23.7844,
      "duration": 0.3164,
      "velocity": 104,
      "chip": "ym2612"
    },
    {
      "channel": 3,
      "note": 69,
      "start": 23.801,
      "duration": 0.1667,
      "velocity": 127,
      "chip": "ym2612"
    },
    {
      "channel": 4,
      "note": 54,
      "start": 23.8013,
      "duration": 0.167,
      "velocity": 89,
      "chip": "ym2612"
    },
    {
      "channel": 0,
      "note": 59,
      "start": 23.967,
      "duration": 0.1831,
      "velocity": 104,
      "chip": "ym2612"
    },
    {
      "channel": 1,
      "note": 66,
      "start": 23.9673,
      "duration": 0.1831,
      "velocity": 104,
      "chip": "ym2612"
    },
    {
      "channel": 2,
      "note": 59,
      "start": 23.9676,
      "duration": 0.1831,
      "velocity": 97,
      "chip": "ym2612"
    },
    {
      "channel": 3,
      "note": 69,
      "start": 23.9682,
      "duration": 0.1829,
      "velocity": 127,
      "chip": "ym2612"
    },
    {
      "channel": 4,
      "note": 45,
      "start": 23.9695,
      "duration": 0.1821,
      "velocity": 127,
      "chip": "ym2612"
    },
    {
      "channel": 5,
      "note": 59,
      "start": 24.101,
      "duration": 0.1833,
      "velocity": 104,
      "chip": "ym2612"
    },
    {
      "channel": 0,
      "note": 57,
      "start": 24.1503,
      "duration": 0.1331,
      "velocity": 104,
      "chip": "ym2612"
    },
    {
      "channel": 1,
      "note": 64,
      "start": 24.1507,
      "duration": 0.133,
      "velocity": 104,
      "chip": "ym2612"
    },
    {
      "channel": 2,
      "note": 57,
      "start": 24.151,
      "duration": 0.1666,
      "velocity": 97,
      "chip": "ym2612"
    },
    {
      "channel": 3,
      "note": 69,
      "start": 24.1516,
      "duration": 0.1665,
      "velocity": 127,
      "chip": "ym2612"
    },
    {
      "channel": 4,
      "note": 54,
      "start": 24.153,
      "duration": 0.1657,
      "velocity": 89,
      "chip": "ym2612"
    },
    {
      "channel": 5,
      "note": 57,
      "start": 24.2846,
      "duration": 0.1328,
      "velocity": 104,
      "chip": "ym2612"
    },
    {
      "channel": 0,
      "note": 57,
      "start": 24.317,
      "duration": 0.0333,
      "velocity": 104,
      "chip": "ym2612"
    },
    {
      "channel": 1,
      "note": 64,
      "start": 24.3174,
      "duration": 0.0333,
      "velocity": 104,
      "chip": "ym2612"
    },
    {
      "channel": 2,
      "note": 57,
      "start": 24.318,
      "duration": 0.033,
      "velocity": 97,
      "chip": "ym2612"
    },
    {
      "channel": 3,
      "note": 69,
      "start": 24.3187,
      "duration": 0.1826,
      "velocity": 127,
      "chip": "ym2612"
    },
    {
      "channel": 0,
      "note": 60,
      "start": 24.3503,
      "duration": 0.1498,
      "velocity": 104,
      "chip": "ym2612"
    },
    {
      "channel": 1,
      "note": 67,
      "start": 24.3507,
      "duration": 0.1499,
      "velocity": 104,
      "chip": "ym2612"
    },
    {
      "channel": 2,
      "note": 60,
      "start": 24.351,
      "duration": 0.1499,
      "velocity": 97,
      "chip": "ym2612"
    },
    {
      "channel": 5,
      "note": 57,
      "start": 24.4508,
      "duration": 0.0333,
      "velocity": 104,
      "chip": "ym2612"
    },
    {
      "channel": 5,
      "note": 60,
      "start": 24.4842,
      "duration": 0.1499,
      "velocity": 104,
      "chip": "ym2612"
    },
    {
      "channel": 0,
      "note": 59,
      "start": 24.5005,
      "duration": 0.1663,
      "velocity": 104,
      "chip": "ym2612"
    },
    {
      "channel": 1,
      "note": 66,
      "start": 24.5008,
      "duration": 0.1662,
      "velocity": 104,
      "chip": "ym2612"
    },
    {
      "channel": 2,
      "note": 59,
      "start": 24.5012,
      "duration": 0.1662,
      "velocity": 97,
      "chip": "ym2612"
    },
    {
      "channel": 3,
      "note": 69,
      "start": 24.5018,
      "duration": 0.1659,
      "velocity": 127,
      "chip": "ym2612"
    },
    {
      "channel": 4,
      "note": 54,
      "start": 24.5021,
      "duration": 0.1662,
      "velocity": 89,
      "chip": "ym2612"
    },
    {
      "channel": 5,
      "note": 59,
      "start": 24.6344,
      "duration": 0.1663,
      "velocity": 104,
      "chip": "ym2612"
    },
    {
      "channel": 0,
      "note": 57,
      "start": 24.667,
      "duration": 0.1831,
      "velocity": 104,
      "chip": "ym2612"
    },
    {
      "channel": 1,
      "note": 64,
      "start": 24.6673,
      "duration": 0.1832,
      "velocity": 104,
      "chip": "ym2612"
    },
    {
      "channel": 2,
      "note": 57,
      "start": 24.6676,
      "duration": 0.1833,
      "velocity": 97,
      "chip": "ym2612"
    },
    {
      "channel": 3,
      "note": 69,
      "start": 24.6682,
      "duration": 0.1832,
      "velocity": 127,
      "chip": "ym2612"
    },
    {
      "channel": 4,
      "note": 45,
      "start": 24.6695,
      "duration": 0.349,
      "velocity": 127,
      "chip": "ym2612"
    },
    {
      "channel": 5,
      "note": 57,
      "start": 24.801,
      "duration": 0.1831,
      "velocity": 104,
      "chip": "ym2612"
    },
    {
      "channel": 0,
      "note": 57,
      "start": 24.8503,
      "duration": 0.0333,
      "velocity": 104,
      "chip": "ym2612"
    },
    {
      "channel": 1,
      "note": 64,
      "start": 24.8507,
      "duration": 0.0333,
      "velocity": 104,
      "chip": "ym2612"
    },
    {
      "channel": 2,
      "note": 57,
      "start": 24.8512,
      "duration": 0.0332,
      "velocity": 97,
      "chip": "ym2612"
    },
    {
      "channel": 3,
      "note": 69,
      "start": 24.8519,
      "duration": 0.1661,
      "velocity": 127,
      "chip": "ym2612"
    },
    {
      "channel": 0,
      "note": 60,
      "start": 24.8837,
      "duration": 0.1331,
      "velocity": 104,
      "chip": "ym2612"
    },
    {
      "channel": 1,
      "note": 67,
      "start": 24.884,
      "duration": 0.1332,
      "velocity": 104,
      "chip": "ym2612"
    },
    {
      "channel": 2,
      "note": 60,
      "start": 24.8843,
      "duration": 0.1333,
      "velocity": 97,
      "chip": "ym2612"
    },
    {
      "channel": 5,
      "note": 57,
      "start": 24.9843,
      "duration": 0.0359,
      "velocity": 104,
      "chip": "ym2612"
    },
    {
      "channel": 0,
      "note": 59,
      "start": 25.0171,
      "duration": 0.183,
      "velocity": 104,
      "chip": "ym2612"
    },
    {
      "channel": 1,
      "note": 66,
      "start": 25.0175,
      "duration": 0.1829,
      "velocity": 104,
      "chip": "ym2612"
    },
    {
      "channel": 2,
      "note": 59,
      "start": 25.0179,
      "duration": 0.1829,
      "velocity": 97,
      "chip": "ym2612"
    },
    {
      "channel": 3,
      "note": 69,
      "start": 25.0185,
      "duration": 0.1826,
      "velocity": 127,
      "chip": "ym2612"
    },
    {
      "channel": 4,
      "note": 54,
      "start": 25.0199,
      "duration": 0.1817,
      "velocity": 89,
      "chip": "ym2612"
    },
    {
      "channel": 5,
      "note": 60,
      "start": 25.0202,
      "duration": 0.1306,
      "velocity": 104,
      "chip": "ym2612"
    },
    {
      "channel": 5,
      "note": 59,
      "start": 25.1511,
      "duration": 0.183,
      "velocity": 104,
      "chip": "ym2612"
    },
    {
      "channel": 0,
      "note": 57,
      "start": 25.2003,
      "duration": 0.1665,
      "velocity": 104,
      "chip": "ym2612"
    },
    {
      "channel": 1,
      "note": 64,
      "start": 25.2007,
      "duration": 0.1666,
      "velocity": 104,
      "chip": "ym2612"
    },
    {
      "channel": 2,
      "note": 57,
      "start": 25.201,
      "duration": 0.1667,
      "velocity": 97,
      "chip": "ym2612"
    },
    {
      "channel": 3,
      "note": 69,
      "start": 25.2015,
      "duration": 0.1666,
      "velocity": 127,
      "chip": "ym2612"
    },
    {
      "channel": 4,
      "note": 54,
      "start": 25.2019,
      "duration": 0.1668,
      "velocity": 89,
      "chip": "ym2612"
    },
    {
      "channel": 5,
      "note": 57,
      "start": 25.3344,
      "duration": 0.1664,
      "velocity": 104,
      "chip": "ym2612"
    },
    {
      "channel": 0,
      "note": 57,
      "start": 25.367,
      "duration": 0.0333,
      "velocity": 104,
      "chip": "ym2612"
    },
    {
      "channel": 1,
      "note": 64,
      "start": 25.3674,
      "duration": 0.0332,
      "velocity": 104,
      "chip": "ym2612"
    },
    {
      "channel": 2,
      "note": 57,
      "start": 25.3679,
      "duration": 0.0331,
      "velocity": 97,
      "chip": "ym2612"
    },
    {
      "channel": 3,
      "note": 69,
      "start": 25.3687,
      "duration": 0.1826,
      "velocity": 127,
      "chip": "ym2612"
    },
    {
      "channel": 4,
      "note": 45,
      "start": 25.37,
      "duration": 0.3483,
      "velocity": 127,
      "chip": "ym2612"
    },
    {
      "channel": 0,
      "note": 60,
      "start": 25.4003,
      "duration": 0.1498,
      "velocity": 104,
      "chip": "ym2612"
    },
    {
      "channel": 1,
      "note": 67,
      "start": 25.4007,
      "duration": 0.1499,
      "velocity": 104,
      "chip": "ym2612"
    },
    {
      "channel": 2,
      "note": 60,
      "start": 25.401,
      "duration": 0.1499,
      "velocity": 97,
      "chip": "ym2612"
    },
    {
      "channel": 5,
      "note": 57,
      "start": 25.501,
      "duration": 0.0333,
      "velocity": 104,
      "chip": "ym2612"
    },
    {
      "channel": 5,
      "note": 60,
      "start": 25.5343,
      "duration": 0.1498,
      "velocity": 104,
      "chip": "ym2612"
    },
    {
      "channel": 0,
      "note": 59,
      "start": 25.5505,
      "duration": 0.1663,
      "velocity": 104,
      "chip": "ym2612"
    },
    {
      "channel": 1,
      "note": 66,
      "start": 25.5508,
      "duration": 0.1662,
      "velocity": 104,
      "chip": "ym2612"
    },
    {
      "channel": 2,
      "note": 59,
      "start": 25.5512,
      "duration": 0.1662,
      "velocity": 97,
      "chip": "ym2612"
    },
    {
      "channel": 3,
      "note": 69,
      "start": 25.5518,
      "duration": 0.1659,
      "velocity": 127,
      "chip": "ym2612"
    },
    {
      "channel": 5,
      "note": 59,
      "start": 25.6844,
      "duration": 0.1663,
      "velocity": 104,
      "chip": "ym2612"
    },
    {
      "channel": 0,
      "note": 57,
      "start": 25.717,
      "duration": 0.1831,
      "velocity": 104,
      "chip": "ym2612"
    },
    {
      "channel": 1,
      "note": 64,
      "start": 25.7173,
      "duration": 0.1832,
      "velocity": 104,
      "chip": "ym2612"
    },
    {
      "channel": 2,
      "note": 57,
      "start": 25.7176,
      "duration": 0.1833,
      "velocity": 97,
      "chip": "ym2612"
    },
    {
      "channel": 3,
      "note": 69,
      "start": 25.7182,
      "duration": 0.1832,
      "velocity": 127,
      "chip": "ym2612"
    },
    {
      "channel": 4,
      "note": 54,
      "start": 25.7197,
      "duration": 0.3489,
      "velocity": 89,
      "chip": "ym2612"
    },
    {
      "channel": 5,
      "note": 57,
      "start": 25.851,
      "duration": 0.1831,
      "velocity": 104,
      "chip": "ym2612"
    },
    {
      "channel": 0,
      "note": 57,
      "start": 25.9003,
      "duration": 0.0333,
      "velocity": 104,
      "chip": "ym2612"
    },
    {
      "channel": 1,
      "note": 64,
      "start": 25.9007,
      "duration": 0.0333,
      "velocity": 104,
      "chip": "ym2612"
    },
    {
      "channel": 2,
      "note": 57,
      "start": 25.9012,
      "duration": 0.0332,
      "velocity": 97,
      "chip": "ym2612"
    },
    {
      "channel": 3,
      "note": 69,
      "start": 25.9019,
      "duration": 0.1661,
      "velocity": 127,
      "chip": "ym2612"
    },
    {
      "channel": 0,
      "note": 60,
      "start": 25.9337,
      "duration": 0.1331,
      "velocity": 104,
      "chip": "ym2612"
    },
    {
      "channel": 1,
      "note": 67,
      "start": 25.934,
      "duration": 0.1332,
      "velocity": 104,
      "chip": "ym2612"
    },
    {
      "channel": 2,
      "note": 60,
      "start": 25.9343,
      "duration": 0.1333,
      "velocity": 97,
      "chip": "ym2612"
    },
    {
      "channel": 5,
      "note": 57,
      "start": 26.0343,
      "duration": 0.0358,
      "velocity": 104,
      "chip": "ym2612"
    },
    {
      "channel": 0,
      "note": 59,
      "start": 26.0671,
      "duration": 0.183,
      "velocity": 104,
      "chip": "ym2612"
    },
    {
      "channel": 1,
      "note": 66,
      "start": 26.0675,
      "duration": 0.1829,
      "velocity": 104,
      "chip": "ym2612"
    },
    {
      "channel": 2,
      "note": 59,
      "start": 26.0679,
      "duration": 0.1829,
      "velocity": 97,
      "chip": "ym2612"
    },
    {
      "channel": 3,
      "note": 69,
      "start": 26.0685,
      "duration": 0.1826,
      "velocity": 127,
      "chip": "ym2612"
    },
    {
      "channel": 4,
      "note": 45,
      "start": 26.0698,
      "duration": 0.1818,
      "velocity": 127,
      "chip": "ym2612"
    },
    {
      "channel": 5,
      "note": 60,
      "start": 26.0701,
      "duration": 0.1307,
      "velocity": 104,
      "chip": "ym2612"
    },
    {
      "channel": 5,
      "note": 59,
      "start": 26.2011,
      "duration": 0.183,
      "velocity": 104,
      "chip": "ym2612"
    },
    {
      "channel": 0,
      "note": 57,
      "start": 26.2503,
      "duration": 0.1665,
      "velocity": 104,
      "chip": "ym2612"
    },
    {
      "channel": 1,
      "note": 64,
      "start": 26.2507,
      "duration": 0.1665,
      "velocity": 104,
      "chip": "ym2612"
    },
    {
      "channel": 2,
      "note": 57,
      "start": 26.251,
      "duration": 0.1667,
      "velocity": 97,
      "chip": "ym2612"
    },
    {
      "channel": 3,
      "note": 69,
      "start": 26.2515,
      "duration": 0.1665,
      "velocity": 127,
      "chip": "ym2612"
    },
    {
      "channel": 4,
      "note": 54,
      "start": 26.2529,
      "duration": 0.1657,
      "velocity": 89,
      "chip": "ym2612"
    },
    {
      "channel": 5,
      "note": 57,
      "start": 26.3844,
      "duration": 0.1661,
      "velocity": 104,
      "chip": "ym2612"
    },
    {
      "channel": 0,
      "note": 59,
      "start": 26.4171,
      "duration": 0.0997,
      "velocity": 104,
      "chip": "ym2612"
    },
    {
      "channel": 1,
      "note": 66,
      "start": 26.4176,
      "duration": 0.0994,
      "velocity": 104,
      "chip": "ym2612"
    },
    {
      "channel": 2,
      "note": 59,
      "start": 26.418,
      "duration": 0.0992,
      "velocity": 97,
      "chip": "ym2612"
    },
    {
      "channel": 3,
      "note": 69,
      "start": 26.4186,
      "duration": 0.1824,
      "velocity": 127,
      "chip": "ym2612"
    },
    {
      "channel": 4,
      "note": 45,
      "start": 26.4199,
      "duration": 0.0141,
      "velocity": 127,
      "chip": "ym2612"
    },
    {
      "channel": 4,
      "note": 45,
      "start": 26.4342,
      "duration": 0.3336,
      "velocity": 127,
      "chip": "ym2612"
    },
    {
      "channel": 5,
      "note": 59,
      "start": 26.5508,
      "duration": 0.1,
      "velocity": 104,
      "chip": "ym2612"
    },
    {
      "channel": 0,
      "note": 61,
      "start": 26.6003,
      "duration": 0.2665,
      "velocity": 104,
      "chip": "ym2612"
    },
    {
      "channel": 1,
      "note": 68,
      "start": 26.6007,
      "duration": 0.2663,
      "velocity": 104,
      "chip": "ym2612"
    },
    {
      "channel": 2,
      "note": 61,
      "start": 26.601,
      "duration": 0.2662,
      "velocity": 97,
      "chip": "ym2612"
    },
    {
      "channel": 3,
      "note": 69,
      "start": 26.6015,
      "duration": 0.1656,
      "velocity": 127,
      "chip": "ym2612"
    },
    {
      "channel": 5,
      "note": 61,
      "start": 26.7343,
      "duration": 0.2665,
      "velocity": 104,
      "chip": "ym2612"
    },
    {
      "channel": 3,
      "note": 69,
      "start": 26.7677,
      "duration": 0.1833,
      "velocity": 127,
      "chip": "ym2612"
    },
    {
      "channel": 4,
      "note": 45,
      "start": 26.768,
      "duration": 0.1837,
      "velocity": 127,
      "chip": "ym2612"
    },
    {
      "channel": 0,
      "note": 61,
      "start": 26.9503,
      "duration": 0.2665,
      "velocity": 104,
      "chip": "ym2612"
    },
    {
      "channel": 1,
      "note": 68,
      "start": 26.9507,
      "duration": 0.2663,
      "velocity": 104,
      "chip": "ym2612"
    },
    {
      "channel": 2,
      "note": 61,
      "start": 26.951,
      "duration": 0.2662,
      "velocity": 97,
      "chip": "ym2612"
    },
    {
      "channel": 3,
      "note": 69,
      "start": 26.9515,
      "duration": 0.1656,
      "velocity": 127,
      "chip": "ym2612"
    },
    {
      "channel": 4,
      "note": 54,
      "start": 26.9529,
      "duration": 0.1648,
      "velocity": 89,
      "chip": "ym2612"
    },
    {
      "channel": 5,
      "note": 61,
      "start": 27.0844,
      "duration": 0.2664,
      "velocity": 104,
      "chip": "ym2612"
    },
    {
      "channel": 3,
      "note": 81,
      "start": 27.1177,
      "duration": 0.1835,
      "velocity": 127,
      "chip": "ym2612"
    },
    {
      "channel": 4,
      "note": 45,
      "start": 27.119,
      "duration": 0.1837,
      "velocity": 127,
      "chip": "ym2612"
    },
    {
      "channel": 0,
      "note": 61,
      "start": 27.3003,
      "duration": 1.2001,
      "velocity": 104,
      "chip": "ym2612"
    },
    {
      "channel": 1,
      "note": 68,
      "start": 27.3006,
      "duration": 1.2002,
      "velocity": 104,
      "chip": "ym2612"
    },
    {
      "channel": 2,
      "note": 61,
      "start": 27.3009,
      "duration": 1.2002,
      "velocity": 97,
      "chip": "ym2612"
    },
    {
      "channel": 3,
      "note": 57,
      "start": 27.3026,
      "duration": 0.0645,
      "velocity": 118,
      "chip": "ym2612"
    },
    {
      "channel": 4,
      "note": 54,
      "start": 27.304,
      "duration": 0.5137,
      "velocity": 89,
      "chip": "ym2612"
    },
    {
      "channel": 3,
      "note": 57,
      "start": 27.3675,
      "duration": 0.0496,
      "velocity": 118,
      "chip": "ym2612"
    },
    {
      "channel": 3,
      "note": 57,
      "start": 27.4173,
      "duration": 0.0498,
      "velocity": 118,
      "chip": "ym2612"
    },
    {
      "channel": 5,
      "note": 61,
      "start": 27.4342,
      "duration": 1.2001,
      "velocity": 104,
      "chip": "ym2612"
    },
    {
      "channel": 3,
      "note": 57,
      "start": 27.4675,
      "duration": 0.0996,
      "velocity": 118,
      "chip": "ym2612"
    },
    {
      "channel": 3,
      "note": 52,
      "start": 27.5677,
      "duration": 0.0828,
      "velocity": 118,
      "chip": "ym2612"
    },
    {
      "channel": 3,
      "note": 52,
      "start": 27.6507,
      "duration": 0.0831,
      "velocity": 118,
      "chip": "ym2612"
    },
    {
      "channel": 3,
      "note": 52,
      "start": 27.734,
      "duration": 0.0831,
      "velocity": 118,
      "chip": "ym2612"
    },
    {
      "channel": 3,
      "note": 45,
      "start": 27.8177,
      "duration": 0.0994,
      "velocity": 118,
      "chip": "ym2612"
    },
    {
      "channel": 4,
      "note": 54,
      "start": 27.818,
      "duration": 0.3505,
      "velocity": 89,
      "chip": "ym2612"
    },
    {
      "channel": 3,
      "note": 45,
      "start": 27.9175,
      "duration": 0.0829,
      "velocity": 118,
      "chip": "ym2612"
    },
    {
      "channel": 3,
      "note": 45,
      "start": 28.0007,
      "duration": 0.0831,
      "velocity": 118,
      "chip": "ym2612"
    },
    {
      "channel": 3,
      "note": 45,
      "start": 28.0841,
      "duration": 0.083,
      "velocity": 118,
      "chip": "ym2612"
    },
    {
      "channel": 3,
      "note": 45,
      "start": 28.1685,
      "duration": 0.0987,
      "velocity": 127,
      "chip": "ym2612"
    },
    {
      "channel": 4,
      "note": 54,
      "start": 28.1687,
      "duration": 0.3535,
      "velocity": 89,
      "chip": "ym2612"
    },
    {
      "channel": 3,
      "note": 45,
      "start": 28.2675,
      "duration": 0.0835,
      "velocity": 127,
      "chip": "ym2612"
    },
    {
      "channel": 3,
      "note": 45,
      "start": 28.3512,
      "duration": 0.0826,
      "velocity": 127,
      "chip": "ym2612"
    },
    {
      "channel": 3,
      "note": 45,
      "start": 28.4341,
      "duration": 0.0866,
      "velocity": 127,
      "chip": "ym2612"
    },
    {
      "channel": 0,
      "note": 57,
      "start": 28.5004,
      "duration": 0.0164,
      "velocity": 104,
      "chip": "ym2612"
    },
    {
      "channel": 1,
      "note": 64,
      "start": 28.5008,
      "duration": 0.0178,
      "velocity": 104,
      "chip": "ym2612"
    },
    {
      "channel": 2,
      "note": 57,
      "start": 28.5012,
      "duration": 0.0186,
      "velocity": 97,
      "chip": "ym2612"
    },
    {
      "channel": 0,
      "note": 54,
      "start": 28.5186,
      "duration": 0.1815,
      "velocity": 122,
      "chip": "ym2612"
    },
    {
      "channel": 1,
      "note": 54,
      "start": 28.5197,
      "duration": 0.0972,
      "velocity": 104,
      "chip": "ym2612"
    },
    {
      "channel": 2,
      "note": 54,
      "start": 28.5206,
      "duration": 0.1801,
      "velocity": 97,
      "chip": "ym2612"
    },
    {
      "channel": 3,
      "note": 81,
      "start": 28.5222,
      "duration": 0.3457,
      "velocity": 127,
      "chip": "ym2612"
    },
    {
      "channel": 4,
      "note": 54,
      "start": 28.5236,
      "duration": 0.3458,
      "velocity": 89,
      "chip": "ym2612"
    },
    {
      "channel": 5,
      "note": 57,
      "start": 28.6344,
      "duration": 0.0163,
      "velocity": 104,
      "chip": "ym2612"
    },
    {
      "channel": 5,
      "note": 54,
      "start": 28.6526,
      "duration": 0.1814,
      "velocity": 122,
      "chip": "ym2612"
    },
    {
      "channel": 0,
      "note": 54,
      "start": 28.7003,
      "duration": 0.1668,
      "velocity": 122,
      "chip": "ym2612"
    },
    {
      "channel": 1,
      "note": 54,
      "start": 28.7007,
      "duration": 0.0828,
      "velocity": 104,
      "chip": "ym2612"
    },
    {
      "channel": 2,
      "note": 54,
      "start": 28.7011,
      "duration": 0.1663,
      "velocity": 97,
      "chip": "ym2612"
    },
    {
      "channel": 5,
      "note": 54,
      "start": 28.8341,
      "duration": 0.1668,
      "velocity": 122,
      "chip": "ym2612"
    },
    {
      "channel": 0,
      "note": 59,
      "start": 28.8671,
      "duration": 0.1831,
      "velocity": 122,
      "chip": "ym2612"
    },
    {
      "channel": 1,
      "note": 54,
      "start": 28.8674,
      "duration": 0.0996,
      "velocity": 104,
      "chip": "ym2612"
    },
    {
      "channel": 2,
      "note": 54,
      "start": 28.8678,
      "duration": 0.183,
      "velocity": 97,
      "chip": "ym2612"
    },
    {
      "channel": 3,
      "note": 69,
      "start": 28.8693,
      "duration": 0.1818,
      "velocity": 127,
      "chip": "ym2612"
    },
    {
      "channel": 4,
      "note": 45,
      "start": 28.8707,
      "duration": 0.181,
      "velocity": 127,
      "chip": "ym2612"
    },
    {
      "channel": 5,
      "note": 59,
      "start": 29.0009,
      "duration": 0.1831,
      "velocity": 122,
      "chip": "ym2612"
    },
    {
      "channel": 0,
      "note": 59,
      "start": 29.0503,
      "duration": 0.1668,
      "velocity": 122,
      "chip": "ym2612"
    },
    {
      "channel": 1,
      "note": 54,
      "start": 29.0507,
      "duration": 0.0828,
      "velocity": 104,
      "chip": "ym2612"
    },
    {
      "channel": 2,
      "note": 54,
      "start": 29.0511,
      "duration": 0.1663,
      "velocity": 97,
      "chip": "ym2612"
    },
    {
      "channel": 3,
      "note": 69,
      "start": 29.0516,
      "duration": 0.1662,
      "velocity": 127,
      "chip": "ym2612"
    },
    {
      "channel": 4,
      "note": 54,
      "start": 29.0531,
      "duration": 0.3486,
      "velocity": 89,
      "chip": "ym2612"
    },
    {
      "channel": 5,
      "note": 59,
      "start": 29.1841,
      "duration": 0.1669,
      "velocity": 122,
      "chip": "ym2612"
    },
    {
      "channel": 0,
      "note": 61,
      "start": 29.2171,
      "duration": 0.1831,
      "velocity": 122,
      "chip": "ym2612"
    },
    {
      "channel": 1,
      "note": 54,
      "start": 29.2174,
      "duration": 0.0996,
      "velocity": 104,
      "chip": "ym2612"
    },
    {
      "channel": 2,
      "note": 54,
      "start": 29.2178,
      "duration": 0.1829,
      "velocity": 97,
      "chip": "ym2612"
    },
    {
      "channel": 3,
      "note": 69,
      "start": 29.2184,
      "duration": 0.1827,
      "velocity": 127,
      "chip": "ym2612"
    },
    {
      "channel": 5,
      "note": 61,
      "start": 29.351,
      "duration": 0.1831,
      "velocity": 122,
      "chip": "ym2612"
    },
    {
      "channel": 0,
      "note": 64,
      "start": 29.4004,
      "duration": 0.1664,
      "velocity": 122,
      "chip": "ym2612"
    },
    {
      "channel": 1,
      "note": 54,
      "start": 29.4007,
      "duration": 0.0829,
      "velocity": 104,
      "chip": "ym2612"
    },
    {
      "channel": 2,
      "note": 54,
      "start": 29.401,
      "duration": 0.1665,
      "velocity": 97,
      "chip": "ym2612"
    },
    {
      "channel": 3,
      "note": 69,
      "start": 29.4016,
      "duration": 0.1663,
      "velocity": 127,
      "chip": "ym2612"
    },
    {
      "channel": 4,
      "note": 54,
      "start": 29.4019,
      "duration": 0.1665,
      "velocity": 89,
      "chip": "ym2612"
    },
    {
      "channel": 5,
      "note": 64,
      "start": 29.5343,
      "duration": 0.1663,
      "velocity": 122,
      "chip": "ym2612"
    },
    {
      "channel": 0,
      "note": 64,
      "start": 29.5669,
      "duration": 0.1834,
      "velocity": 122,
      "chip": "ym2612"
    },
    {
      "channel": 1,
      "note": 54,
      "start": 29.5674,
      "duration": 0.0994,
      "velocity": 104,
      "chip": "ym2612"
    },
    {
      "channel": 2,
      "note": 54,
      "start": 29.5678,
      "duration": 0.1829,
      "velocity": 97,
      "chip": "ym2612"
    },
    {
      "channel": 3,
      "note": 69,
      "start": 29.5684,
      "duration": 0.1827,
      "velocity": 127,
      "chip": "ym2612"
    },
    {
      "channel": 4,
      "note": 45,
      "start": 29.5697,
      "duration": 0.182,
      "velocity": 127,
      "chip": "ym2612"
    },
    {
      "channel": 5,
      "note": 64,
      "start": 29.7008,
      "duration": 0.1835,
      "velocity": 122,
      "chip": "ym2612"
    },
    {
      "channel": 0,
      "note": 64,
      "start": 29.7504,
      "duration": 0.1664,
      "velocity": 122,
      "chip": "ym2612"
    },
    {
      "channel": 1,
      "note": 54,
      "start": 29.7507,
      "duration": 0.0829,
      "velocity": 104,
      "chip": "ym2612"
    },
    {
      "channel": 2,
      "note": 54,
      "start": 29.751,
      "duration": 0.1665,
      "velocity": 97,
      "chip": "ym2612"
    },
    {
      "channel": 3,
      "note": 69,
      "start": 29.7516,
      "duration": 0.1663,
      "velocity": 127,
      "chip": "ym2612"
    },
    {
      "channel": 4,
      "note": 54,
      "start": 29.753,
      "duration": 0.1655,
      "velocity": 89,
      "chip": "ym2612"
    },
    {
      "channel": 5,
      "note": 64,
      "start": 29.8843,
      "duration": 0.1662,
      "velocity": 122,
      "chip": "ym2612"
    },
    {
      "channel": 0,
      "note": 64,
      "start": 29.9169,
      "duration": 0.1168,
      "velocity": 122,
      "chip": "ym2612"
    },
    {
      "channel": 1,
      "note": 54,
      "start": 29.9174,
      "duration": 0.0994,
      "velocity": 104,
      "chip": "ym2612"
    },
    {
      "channel": 2,
      "note": 54,
      "start": 29.9178,
      "duration": 0.1829,
      "velocity": 97,
      "chip": "ym2612"
    },
    {
      "channel": 3,
      "note": 69,
      "start": 29.9184,
      "duration": 0.1827,
      "velocity": 127,
      "chip": "ym2612"
    },
    {
      "channel": 0,
      "note": 64,
      "start": 30.0337,
      "duration": 0.0664,
      "velocity": 122,
      "chip": "ym2612"
    },
    {
      "channel": 5,
      "note": 64,
      "start": 30.0507,
      "duration": 0.117,
      "velocity": 122,
      "chip": "ym2612"
    },
    {
      "channel": 0,
      "note": 61,
      "start": 30.1004,
      "duration": 0.1664,
      "velocity": 122,
      "chip": "ym2612"
    },
    {
      "channel": 1,
      "note": 54,
      "start": 30.1007,
      "duration": 0.0829,
      "velocity": 104,
      "chip": "ym2612"
    },
    {
      "channel": 2,
      "note": 54,
      "start": 30.101,
      "duration": 0.1665,
      "velocity": 97,
      "chip": "ym2612"
    },
    {
      "channel": 3,
      "note": 69,
      "start": 30.1016,
      "duration": 0.1663,
      "velocity": 127,
      "chip": "ym2612"
    },
    {
      "channel": 4,
      "note": 54,
      "start": 30.1019,
      "duration": 0.1665,
      "velocity": 89,
      "chip": "ym2612"
    },
    {
      "channel": 5,
      "note": 64,
      "start": 30.1677,
      "duration": 0.0663,
      "velocity": 122,
      "chip": "ym2612"
    },
    {
      "channel": 5,
      "note": 61,
      "start": 30.2343,
      "duration": 0.1663,
      "velocity": 122,
      "chip": "ym2612"
    },
    {
      "channel": 0,
      "note": 61,
      "start": 30.2669,
      "duration": 0.1834,
      "velocity": 122,
      "chip": "ym2612"
    },
    {
      "channel": 1,
      "note": 54,
      "start": 30.2674,
      "duration": 0.0994,
      "velocity": 104,
      "chip": "ym2612"
    },
    {
      "channel": 2,
      "note": 54,
      "start": 30.2678,
      "duration": 0.1829,
      "velocity": 97,
      "chip": "ym2612"
    },
    {
      "channel": 3,
      "note": 69,
      "start": 30.2684,
      "duration": 0.1827,
      "velocity": 127,
      "chip": "ym2612"
    },
    {
      "channel": 4,
      "note": 45,
      "start": 30.2697,
      "duration": 0.3487,
      "velocity": 127,
      "chip": "ym2612"
    },
    {
      "channel": 5,
      "note": 61,
      "start": 30.4008,
      "duration": 0.1835,
      "velocity": 122,
      "chip": "ym2612"
    },
    {
      "channel": 0,
      "note": 66,
      "start": 30.4504,
      "duration": 0.1664,
      "velocity": 122,
      "chip": "ym2612"
    },
    {
      "channel": 1,
      "note": 54,
      "start": 30.4507,
      "duration": 0.0829,
      "velocity": 104,
      "chip": "ym2612"
    },
    {
      "channel": 2,
      "note": 54,
      "start": 30.451,
      "duration": 0.1665,
      "velocity": 97,
      "chip": "ym2612"
    },
    {
      "channel": 3,
      "note": 69,
      "start": 30.4516,
      "duration": 0.1663,
      "velocity": 127,
      "chip": "ym2612"
    },
    {
      "channel": 5,
      "note": 66,
      "start": 30.5842,
      "duration": 0.1665,
      "velocity": 122,
      "chip": "ym2612"
    },
    {
      "channel": 0,
      "note": 66,
      "start": 30.6169,
      "duration": 0.0334,
      "velocity": 122,
      "chip": "ym2612"
    },
    {
      "channel": 1,
      "note": 54,
      "start": 30.6174,
      "duration": 0.0995,
      "velocity": 104,
      "chip": "ym2612"
    },
    {
      "channel": 2,
      "note": 54,
      "start": 30.6178,
      "duration": 0.1829,
      "velocity": 97,
      "chip": "ym2612"
    },
    {
      "channel": 3,
      "note": 69,
      "start": 30.6184,
      "duration": 0.1828,
      "velocity": 127,
      "chip": "ym2612"
    },
    {
      "channel": 4,
      "note": 54,
      "start": 30.6199,
      "duration": 0.1819,
      "velocity": 89,
      "chip": "ym2612"
    },
    {
      "channel": 0,
      "note": 69,
      "start": 30.6504,
      "duration": 0.1498,
      "velocity": 122,
      "chip": "ym2612"
    },
    {
      "channel": 5,
      "note": 66,
      "start": 30.7508,
      "duration": 0.0335,
      "velocity": 122,
      "chip": "ym2612"
    },
    {
      "channel": 5,
      "note": 69,
      "start": 30.7843,
      "duration": 0.1497,
      "velocity": 122,
      "chip": "ym2612"
    },
    {
      "channel": 0,
      "note": 69,
      "start": 30.8003,
      "duration": 0.1668,
      "velocity": 122,
      "chip": "ym2612"
    },
    {
      "channel": 1,
      "note": 54,
      "start": 30.8007,
      "duration": 0.0828,
      "velocity": 104,
      "chip": "ym2612"
    },
    {
      "channel": 2,
      "note": 54,
      "start": 30.8011,
      "duration": 0.1663,
      "velocity": 97,
      "chip": "ym2612"
    },
    {
      "channel": 3,
      "note": 69,
      "start": 30.8016,
      "duration": 0.1663,
      "velocity": 127,
      "chip": "ym2612"
    },
    {
      "channel": 4,
      "note": 54,
      "start": 30.8019,
      "duration": 0.1665,
      "velocity": 89,
      "chip": "ym2612"
    },
    {
      "channel": 5,
      "note": 69,
      "start": 30.9341,
      "duration": 0.1668,
      "velocity": 122,
      "chip": "ym2612"
    },
    {
      "channel": 0,
      "note": 64,
      "start": 30.9671,
      "duration": 0.1831,
      "velocity": 122,
      "chip": "ym2612"
    },
    {
      "channel": 1,
      "note": 54,
      "start": 30.9674,
      "duration": 0.0996,
      "velocity": 104,
      "chip": "ym2612"
    },
    {
      "channel": 2,
      "note": 54,
      "start": 30.9678,
      "duration": 0.183,
      "velocity": 97,
      "chip": "ym2612"
    },
    {
      "channel": 3,
      "note": 69,
      "start": 30.9684,
      "duration": 0.1828,
      "velocity": 127,
      "chip": "ym2612"
    },
    {
      "channel": 4,
      "note": 45,
      "start": 30.9697,
      "duration": 0.3487,
      "velocity": 127,
      "chip": "ym2612"
    },
    {
      "channel": 5,
      "note": 64,
      "start": 31.1009,
      "duration": 0.1831,
      "velocity": 122,
      "chip": "ym2612"
    },
    {
      "channel": 0,
      "note": 64,
      "start": 31.1503,
      "duration": 0.1668,
      "velocity": 122,
      "chip": "ym2612"
    },
    {
      "channel": 1,
      "note": 54,
      "start": 31.1506,
      "duration": 0.1668,
      "velocity": 104,
      "chip": "ym2612"
    },
    {
      "channel": 2,
      "note": 54,
      "start": 31.151,
      "duration": 0.1668,
      "velocity": 97,
      "chip": "ym2612"
    },
    {
      "channel": 3,
      "note": 69,
      "start": 31.1517,
      "duration": 0.1661,
      "velocity": 127,
      "chip": "ym2612"
    },
    {
      "channel": 5,
      "note": 64,
      "start": 31.2842,
      "duration": 0.1668,
      "velocity": 122,
      "chip": "ym2612"
    },
    {
      "channel": 0,
      "note": 66,
      "start": 31.3171,
      "duration": 0.1831,
      "velocity": 122,
      "chip": "ym2612"
    },
    {
      "channel": 1,
      "note": 52,
      "start": 31.3174,
      "duration": 0.0996,
      "velocity": 104,
      "chip": "ym2612"
    },
    {
      "channel": 2,
      "note": 52,
      "start": 31.3178,
      "duration": 0.183,
      "velocity": 97,
      "chip": "ym2612"
    },
    {
      "channel": 3,
      "note": 69,
      "start": 31.3183,
      "duration": 0.1829,
      "velocity": 127,
      "chip": "ym2612"
    },
    {
      "channel": 4,
      "note": 54,
      "start": 31.3198,
      "duration": 0.3484,
      "velocity": 89,
      "chip": "ym2612"
    },
    {
      "channel": 5,
      "note": 66,
      "start": 31.451,
      "duration": 0.183,
      "velocity": 122,
      "chip": "ym2612"
    },
    {
      "channel": 0,
      "note": 66,
      "start": 31.5003,
      "duration": 0.1668,
      "velocity": 122,
      "chip": "ym2612"
    },
    {
      "channel": 1,
      "note": 54,
      "start": 31.5007,
      "duration": 0.0828,
      "velocity": 104,
      "chip": "ym2612"
    },
    {
      "channel": 2,
      "note": 54,
      "start": 31.5012,
      "duration": 0.1662,
      "velocity": 97,
      "chip": "ym2612"
    },
    {
      "channel": 3,
      "note": 69,
      "start": 31.5017,
      "duration": 0.1659,
      "velocity": 127,
      "chip": "ym2612"
    },
    {
      "channel": 5,
      "note": 66,
      "start": 31.6341,
      "duration": 0.1667,
      "velocity": 122,
      "chip": "ym2612"
    },
    {
      "channel": 0,
      "note": 71,
      "start": 31.6671,
      "duration": 0.1831,
      "velocity": 122,
      "chip": "ym2612"
    },
    {
      "channel": 3,
      "note": 69,
      "start": 31.6681,
      "duration": 0.1824,
      "velocity": 127,
      "chip": "ym2612"
    },
    {
      "channel": 4,
      "note": 45,
      "start": 31.6695,
      "duration": 0.1815,
      "velocity": 127,
      "chip": "ym2612"
    },
    {
      "channel": 5,
      "note": 71,
      "start": 31.8008,
      "duration": 0.1832,
      "velocity": 122,
      "chip": "ym2612"
    },
    {
      "channel": 0,
      "note": 66,
      "start": 31.8504,
      "duration": 0.1664,
      "velocity": 122,
      "chip": "ym2612"
    },
    {
      "channel": 3,
      "note": 69,
      "start": 31.851,
      "duration": 0.1662,
      "velocity": 127,
      "chip": "ym2612"
    },
    {
      "channel": 4,
      "note": 54,
      "start": 31.8524,
      "duration": 0.3487,
      "velocity": 89,
      "chip": "ym2612"
    },
    {
      "channel": 5,
      "note": 66,
      "start": 31.9842,
      "duration": 0.1664,
      "velocity": 122,
      "chip": "ym2612"
    },
    {
      "channel": 0,
      "note": 66,
      "start": 32.0169,
      "duration": 0.1834,
      "velocity": 122,
      "chip": "ym2612"
    },
    {
      "channel": 3,
      "note": 69,
      "start": 32.0177,
      "duration": 0.1828,
      "velocity": 127,
      "chip": "ym2612"
    },
    {
      "channel": 5,
      "note": 66,
      "start": 32.1507,
      "duration": 0.1835,
      "velocity": 122,
      "chip": "ym2612"
    },
    {
      "channel": 0,
      "note": 71,
      "start": 32.2004,
      "duration": 0.1664,
      "velocity": 122,
      "chip": "ym2612"
    },
    {
      "channel": 3,
      "note": 69,
      "start": 32.201,
      "duration": 0.1667,
      "velocity": 127,
      "chip": "ym2612"
    },
    {
      "channel": 4,
      "note": 54,
      "start": 32.2013,
      "duration": 0.1669,
      "velocity": 89,
      "chip": "ym2612"
    },
    {
      "channel": 5,
      "note": 71,
      "start": 32.3342,
      "duration": 0.1663,
      "velocity": 122,
      "chip": "ym2612"
    },
    {
      "channel": 0,
      "note": 66,
      "start": 32.3671,
      "duration": 0.1831,
      "velocity": 122,
      "chip": "ym2612"
    },
    {
      "channel": 3,
      "note": 69,
      "start": 32.3681,
      "duration": 0.183,
      "velocity": 127,
      "chip": "ym2612"
    },
    {
      "channel": 4,
      "note": 45,
      "start": 32.3695,
      "duration": 0.1822,
      "velocity": 127,
      "chip": "ym2612"
    },
    {
      "channel": 5,
      "note": 66,
      "start": 32.5008,
      "duration": 0.1833,
      "velocity": 122,
      "chip": "ym2612"
    },
    {
      "channel": 0,
      "note": 66,
      "start": 32.5503,
      "duration": 0.0334,
      "velocity": 122,
      "chip": "ym2612"
    },
    {
      "channel": 1,
      "note": 54,
      "start": 32.5506,
      "duration": 0.1668,
      "velocity": 104,
      "chip": "ym2612"
    },
    {
      "channel": 2,
      "note": 54,
      "start": 32.551,
      "duration": 0.1667,
      "velocity": 97,
      "chip": "ym2612"
    },
    {
      "channel": 3,
      "note": 69,
      "start": 32.5517,
      "duration": 0.1661,
      "velocity": 127,
      "chip": "ym2612"
    },
    {
      "channel": 4,
      "note": 54,
      "start": 32.5531,
      "duration": 0.1653,
      "velocity": 89,
      "chip": "ym2612"
    },
    {
      "channel": 0,
      "note": 72,
      "start": 32.5837,
      "duration": 0.1331,
      "velocity": 122,
      "chip": "ym2612"
    },
    {
      "channel": 5,
      "note": 66,
      "start": 32.6842,
      "duration": 0.0347,
      "velocity": 122,
      "chip": "ym2612"
    },
    {
      "channel": 0,
      "note": 71,
      "start": 32.7171,
      "duration": 0.1831,
      "velocity": 122,
      "chip": "ym2612"
    },
    {
      "channel": 1,
      "note": 52,
      "start": 32.7174,
      "duration": 0.0996,
      "velocity": 104,
      "chip": "ym2612"
    },
    {
      "channel": 2,
      "note": 52,
      "start": 32.7177,
      "duration": 0.183,
      "velocity": 97,
      "chip": "ym2612"
    },
    {
      "channel": 3,
      "note": 69,
      "start": 32.7183,
      "duration": 0.1829,
      "velocity": 127,
      "chip": "ym2612"
    },
    {
      "channel": 5,
      "note": 72,
      "start": 32.7189,
      "duration": 0.1316,
      "velocity": 122,
      "chip": "ym2612"
    },
    {
      "channel": 5,
      "note": 71,
      "start": 32.8508,
      "duration": 0.1833,
      "velocity": 122,
      "chip": "ym2612"
    },
    {
      "channel": 0,
      "note": 66,
      "start": 32.9004,
      "duration": 0.1664,
      "velocity": 122,
      "chip": "ym2612"
    },
    {
      "channel": 1,
      "note": 54,
      "start": 32.9007,
      "duration": 0.0829,
      "velocity": 104,
      "chip": "ym2612"
    },
    {
      "channel": 2,
      "note": 54,
      "start": 32.9012,
      "duration": 0.1662,
      "velocity": 97,
      "chip": "ym2612"
    },
    {
      "channel": 3,
      "note": 69,
      "start": 32.9017,
      "duration": 0.166,
      "velocity": 127,
      "chip": "ym2612"
    },
    {
      "channel": 4,
      "note": 54,
      "start": 32.902,
      "duration": 0.1662,
      "velocity": 89,
      "chip": "ym2612"
    },
    {
      "channel": 5,
      "note": 66,
      "start": 33.0343,
      "duration": 0.1662,
      "velocity": 122,
      "chip": "ym2612"
    },
    {
      "channel": 0,
      "note": 66,
      "start": 33.0669,
      "duration": 0.0334,
      "velocity": 122,
      "chip": "ym2612"
    },
    {
      "channel": 3,
      "note": 69,
      "start": 33.0681,
      "duration": 0.1824,
      "velocity": 127,
      "chip": "ym2612"
    },
    {
      "channel": 4,
      "note": 45,
      "start": 33.0695,
      "duration": 0.3483,
      "velocity": 127,
      "chip": "ym2612"
    },
    {
      "channel": 0,
      "note": 71,
      "start": 33.1004,
      "duration": 0.1498,
      "velocity": 122,
      "chip": "ym2612"
    },
    {
      "channel": 5,
      "note": 66,
      "start": 33.2007,
      "duration": 0.0334,
      "velocity": 122,
      "chip": "ym2612"
    },
    {
      "channel": 5,
      "note": 71,
      "start": 33.2341,
      "duration": 0.1498,
      "velocity": 122,
      "chip": "ym2612"
    },
    {
      "channel": 0,
      "note": 69,
      "start": 33.2504,
      "duration": 0.1664,
      "velocity": 122,
      "chip": "ym2612"
    },
    {
      "channel": 3,
      "note": 69,
      "start": 33.251,
      "duration": 0.1662,
      "velocity": 127,
      "chip": "ym2612"
    },
    {
      "channel": 5,
      "note": 69,
      "start": 33.3842,
      "duration": 0.1663,
      "velocity": 122,
      "chip": "ym2612"
    },
    {
      "channel": 0,
      "note": 66,
      "start": 33.4171,
      "duration": 0.1831,
      "velocity": 122,
      "chip": "ym2612"
    },
    {
      "channel": 3,
      "note": 69,
      "start": 33.4177,
      "duration": 0.1828,
      "velocity": 127,
      "chip": "ym2612"
    },
    {
      "channel": 5,
      "note": 66,
      "start": 33.5507,
      "duration": 0.1832,
      "velocity": 122,
      "chip": "ym2612"
    },
    {
      "channel": 0,
      "note": 66,
      "start": 33.6003,
      "duration": 0.0334,
      "velocity": 122,
      "chip": "ym2612"
    },
    {
      "channel": 3,
      "note": 69,
      "start": 33.601,
      "duration": 0.1666,
      "velocity": 127,
      "chip": "ym2612"
    },
    {
      "channel": 4,
      "note": 54,
      "start": 33.6014,
      "duration": 0.0824,
      "velocity": 89,
      "chip": "ym2612"
    },
    {
      "channel": 0,
      "note": 69,
      "start": 33.6337,
      "duration": 0.1331,
      "velocity": 122,
      "chip": "ym2612"
    },
    {
      "channel": 4,
      "note": 54,
      "start": 33.684,
      "duration": 0.0842,
      "velocity": 89,
      "chip": "ym2612"
    },
    {
      "channel": 5,
      "note": 66,
      "start": 33.734,
      "duration": 0.0358,
      "velocity": 122,
      "chip": "ym2612"
    },
    {
      "channel": 0,
      "note": 69,
      "start": 33.7669,
      "duration": 0.1834,
      "velocity": 122,
      "chip": "ym2612"
    },
    {
      "channel": 3,
      "note": 69,
      "start": 33.7681,
      "duration": 0.1829,
      "velocity": 127,
      "chip": "ym2612"
    },
    {
      "channel": 4,
      "note": 45,
      "start": 33.7695,
      "duration": 0.349,
      "velocity": 127,
      "chip": "ym2612"
    },
    {
      "channel": 5,
      "note": 69,
      "start": 33.7698,
      "duration": 0.1307,
      "velocity": 122,
      "chip": "ym2612"
    },
    {
      "channel": 5,
      "note": 69,
      "start": 33.9007,
      "duration": 0.1837,
      "velocity": 122,
      "chip": "ym2612"
    },
    {
      "channel": 0,
      "note": 64,
      "start": 33.9504,
      "duration": 0.1664,
      "velocity": 122,
      "chip": "ym2612"
    },
    {
      "channel": 1,
      "note": 54,
      "start": 33.9505,
      "duration": 0.1669,
      "velocity": 104,
      "chip": "ym2612"
    },
    {
      "channel": 2,
      "note": 54,
      "start": 33.9509,
      "duration": 0.1669,
      "velocity": 97,
      "chip": "ym2612"
    },
    {
      "channel": 3,
      "note": 69,
      "start": 33.9516,
      "duration": 0.1663,
      "velocity": 127,
      "chip": "ym2612"
    },
    {
      "channel": 5,
      "note": 64,
      "start": 34.0843,
      "duration": 0.1664,
      "velocity": 122,
      "chip": "ym2612"
    },
    {
      "channel": 0,
      "note": 64,
      "start": 34.1169,
      "duration": 2.4335,
      "velocity": 122,
      "chip": "ym2612"
    },
    {
      "channel": 1,
      "note": 54,
      "start": 34.1174,
      "duration": 0.0995,
      "velocity": 104,
      "chip": "ym2612"
    },
    {
      "channel": 2,
      "note": 54,
      "start": 34.1178,
      "duration": 0.1827,
      "velocity": 97,
      "chip": "ym2612"
    },
    {
      "channel": 3,
      "note": 69,
      "start": 34.1184,
      "duration": 0.1825,
      "velocity": 127,
      "chip": "ym2612"
    },
    {
      "channel": 4,
      "note": 54,
      "start": 34.1199,
      "duration": 0.3484,
      "velocity": 89,
      "chip": "ym2612"
    },
    {
      "channel": 5,
      "note": 64,
      "start": 34.2508,
      "duration": 2.4334,
      "velocity": 122,
      "chip": "ym2612"
    },
    {
      "channel": 1,
      "note": 54,
      "start": 34.3005,
      "duration": 0.0832,
      "velocity": 104,
      "chip": "ym2612"
    },
    {
      "channel": 2,
      "note": 54,
      "start": 34.3008,
      "duration": 0.1664,
      "velocity": 97,
      "chip": "ym2612"
    },
    {
      "channel": 3,
      "note": 69,
      "start": 34.3014,
      "duration": 0.1662,
      "velocity": 127,
      "chip": "ym2612"
    },
    {
      "channel": 1,
      "note": 54,
      "start": 34.4672,
      "duration": 0.0998,
      "velocity": 104,
      "chip": "ym2612"
    },
    {
      "channel": 2,
      "note": 54,
      "start": 34.4676,
      "duration": 0.1829,
      "velocity": 97,
      "chip": "ym2612"
    },
    {
      "channel": 3,
      "note": 69,
      "start": 34.4681,
      "duration": 0.1828,
      "velocity": 127,
      "chip": "ym2612"
    },
    {
      "channel": 4,
      "note": 45,
      "start": 34.4695,
      "duration": 0.182,
      "velocity": 127,
      "chip": "ym2612"
    },
    {
      "channel": 1,
      "note": 54,
      "start": 34.6505,
      "duration": 0.0832,
      "velocity": 104,
      "chip": "ym2612"
    },
    {
      "channel": 2,
      "note": 54,
      "start": 34.6508,
      "duration": 0.1664,
      "velocity": 97,
      "chip": "ym2612"
    },
    {
      "channel": 3,
      "note": 69,
      "start": 34.6514,
      "duration": 0.1663,
      "velocity": 127,
      "chip": "ym2612"
    },
    {
      "channel": 4,
      "note": 54,
      "start": 34.6528,
      "duration": 0.3487,
      "velocity": 89,
      "chip": "ym2612"
    },
    {
      "channel": 1,
      "note": 54,
      "start": 34.8172,
      "duration": 0.0998,
      "velocity": 104,
      "chip": "ym2612"
    },
    {
      "channel": 2,
      "note": 54,
      "start": 34.8176,
      "duration": 0.1829,
      "velocity": 97,
      "chip": "ym2612"
    },
    {
      "channel": 3,
      "note": 69,
      "start": 34.8182,
      "duration": 0.1827,
      "velocity": 127,
      "chip": "ym2612"
    },
    {
      "channel": 1,
      "note": 54,
      "start": 35.0005,
      "duration": 0.0832,
      "velocity": 104,
      "chip": "ym2612"
    },
    {
      "channel": 2,
      "note": 54,
      "start": 35.0008,
      "duration": 0.1664,
      "velocity": 97,
      "chip": "ym2612"
    },
    {
      "channel": 3,
      "note": 69,
      "start": 35.0014,
      "duration": 0.1663,
      "velocity": 127,
      "chip": "ym2612"
    },
    {
      "channel": 4,
      "note": 54,
      "start": 35.0017,
      "duration": 0.1666,
      "velocity": 89,
      "chip": "ym2612"
    },
    {
      "channel": 1,
      "note": 54,
      "start": 35.1672,
      "duration": 0.0998,
      "velocity": 104,
      "chip": "ym2612"
    },
    {
      "channel": 2,
      "note": 54,
      "start": 35.1676,
      "duration": 0.1829,
      "velocity": 97,
      "chip": "ym2612"
    },
    {
      "channel": 3,
      "note": 69,
      "start": 35.1682,
      "duration": 0.1827,
      "velocity": 127,
      "chip": "ym2612"
    },
    {
      "channel": 4,
      "note": 45,
      "start": 35.1695,
      "duration": 0.1819,
      "velocity": 127,
      "chip": "ym2612"
    },
    {
      "channel": 1,
      "note": 54,
      "start": 35.3505,
      "duration": 0.0832,
      "velocity": 104,
      "chip": "ym2612"
    },
    {
      "channel": 2,
      "note": 54,
      "start": 35.3508,
      "duration": 0.1665,
      "velocity": 97,
      "chip": "ym2612"
    },
    {
      "channel": 3,
      "note": 69,
      "start": 35.3514,
      "duration": 0.1664,
      "velocity": 127,
      "chip": "ym2612"
    },
    {
      "channel": 4,
      "note": 54,
      "start": 35.3528,
      "duration": 0.1656,
      "velocity": 89,
      "chip": "ym2612"
    },
    {
      "channel": 1,
      "note": 54,
      "start": 35.5173,
      "duration": 0.0996,
      "velocity": 104,
      "chip": "ym2612"
    },
    {
      "channel": 2,
      "note": 54,
      "start": 35.5178,
      "duration": 0.1828,
      "velocity": 97,
      "chip": "ym2612"
    },
    {
      "channel": 3,
      "note": 69,
      "start": 35.5183,
      "duration": 0.1826,
      "velocity": 127,
      "chip": "ym2612"
    },
    {
      "channel": 1,
      "note": 54,
      "start": 35.7005,
      "duration": 0.0832,
      "velocity": 104,
      "chip": "ym2612"
    },
    {
      "channel": 2,
      "note": 54,
      "start": 35.7008,
      "duration": 0.1664,
      "velocity": 97,
      "chip": "ym2612"
    },
    {
      "channel": 3,
      "note": 69,
      "start": 35.7014,
      "duration": 0.1662,
      "velocity": 127,
      "chip": "ym2612"
    },
    {
      "channel": 4,
      "note": 54,
      "start": 35.7017,
      "duration": 0.1666,
      "velocity": 89,
      "chip": "ym2612"
    },
    {
      "channel": 1,
      "note": 54,
      "start": 35.8672,
      "duration": 0.0998,
      "velocity": 104,
      "chip": "ym2612"
    },
    {
      "channel": 2,
      "note": 54,
      "start": 35.8676,
      "duration": 0.1829,
      "velocity": 97,
      "chip": "ym2612"
    },
    {
      "channel": 3,
      "note": 69,
      "start": 35.8681,
      "duration": 0.1828,
      "velocity": 127,
      "chip": "ym2612"
    },
    {
      "channel": 4,
      "note": 45,
      "start": 35.8695,
      "duration": 0.3488,
      "velocity": 127,
      "chip": "ym2612"
    },
    {
      "channel": 1,
      "note": 54,
      "start": 36.0505,
      "duration": 0.0832,
      "velocity": 104,
      "chip": "ym2612"
    },
    {
      "channel": 2,
      "note": 54,
      "start": 36.0508,
      "duration": 0.1664,
      "velocity": 97,
      "chip": "ym2612"
    },
    {
      "channel": 3,
      "note": 69,
      "start": 36.0514,
      "duration": 0.1662,
      "velocity": 127,
      "chip": "ym2612"
    },
    {
      "channel": 1,
      "note": 54,
      "start": 36.2172,
      "duration": 0.0998,
      "velocity": 104,
      "chip": "ym2612"
    },
    {
      "channel": 2,
      "note": 54,
      "start": 36.2176,
      "duration": 0.1829,
      "velocity": 97,
      "chip": "ym2612"
    },
    {
      "channel": 3,
      "note": 69,
      "start": 36.2181,
      "duration": 0.1828,
      "velocity": 127,
      "chip": "ym2612"
    },
    {
      "channel": 4,
      "note": 54,
      "start": 36.2196,
      "duration": 0.1819,
      "velocity": 89,
      "chip": "ym2612"
    },
    {
      "channel": 1,
      "note": 54,
      "start": 36.4005,
      "duration": 0.0833,
      "velocity": 104,
      "chip": "ym2612"
    },
    {
      "channel": 2,
      "note": 54,
      "start": 36.4008,
      "duration": 0.1665,
      "velocity": 97,
      "chip": "ym2612"
    },
    {
      "channel": 3,
      "note": 69,
      "start": 36.4014,
      "duration": 0.1663,
      "velocity": 127,
      "chip": "ym2612"
    },
    {
      "channel": 4,
      "note": 54,
      "start": 36.4017,
      "duration": 0.1666,
      "velocity": 89,
      "chip": "ym2612"
    },
    {
      "channel": 0,
      "note": 61,
      "start": 36.5505,
      "duration": 0.0163,
      "velocity": 122,
      "chip": "ym2612"
    },
    {
      "channel": 1,
      "note": 54,
      "start": 36.5673,
      "duration": 0.0995,
      "velocity": 104,
      "chip": "ym2612"
    },
    {
      "channel": 2,
      "note": 54,
      "start": 36.5677,
      "duration": 0.1828,
      "velocity": 97,
      "chip": "ym2612"
    },
    {
      "channel": 3,
      "note": 69,
      "start": 36.5683,
      "duration": 0.1826,
      "velocity": 127,
      "chip": "ym2612"
    },
    {
      "channel": 4,
      "note": 45,
      "start": 36.5696,
      "duration": 0.3494,
      "velocity": 127,
      "chip": "ym2612"
    },
    {
      "channel": 5,
      "note": 61,
      "start": 36.6842,
      "duration": 0.0163,
      "velocity": 122,
      "chip": "ym2612"
    },
    {
      "channel": 1,
      "note": 54,
      "start": 36.7503,
      "duration": 0.1677,
      "velocity": 104,
      "chip": "ym2612"
    },
    {
      "channel": 2,
      "note": 54,
      "start": 36.7507,
      "duration": 0.1677,
      "velocity": 97,
      "chip": "ym2612"
    },
    {
      "channel": 3,
      "note": 69,
      "start": 36.7514,
      "duration": 0.167,
      "velocity": 127,
      "chip": "ym2612"
    },
    {
      "channel": 0,
      "note": 61,
      "start": 36.9174,
      "duration": 0.1163,
      "velocity": 122,
      "chip": "ym2612"
    },
    {
      "channel": 1,
      "note": 52,
      "start": 36.918,
      "duration": 0.0989,
      "velocity": 104,
      "chip": "ym2612"
    },
    {
      "channel": 2,
      "note": 52,
      "start": 36.9183,
      "duration": 0.1822,
      "velocity": 97,
      "chip": "ym2612"
    },
    {
      "channel": 3,
      "note": 69,
      "start": 36.9189,
      "duration": 0.1821,
      "velocity": 127,
      "chip": "ym2612"
    },
    {
      "channel": 4,
      "note": 54,
      "start": 36.9204,
      "duration": 0.3479,
      "velocity": 89,
      "chip": "ym2612"
    },
    {
      "channel": 0,
      "note": 76,
      "start": 37.0337,
      "duration": 0.0998,
      "velocity": 122,
      "chip": "ym2612"
    },
    {
      "channel": 5,
      "note": 61,
      "start": 37.0514,
      "duration": 0.1163,
      "velocity": 122,
      "chip": "ym2612"
    },
    {
      "channel": 1,
      "note": 54,
      "start": 37.1005,
      "duration": 0.0832,
      "velocity": 104,
      "chip": "ym2612"
    },
    {
      "channel": 2,
      "note": 54,
      "start": 37.1009,
      "duration": 0.1665,
      "velocity": 97,
      "chip": "ym2612"
    },
    {
      "channel": 3,
      "note": 69,
      "start": 37.1015,
      "duration": 0.1662,
      "velocity": 127,
      "chip": "ym2612"
    },
    {
      "channel": 0,
      "note": 73,
      "start": 37.1504,
      "duration": 0.1164,
      "velocity": 122,
      "chip": "ym2612"
    },
    {
      "channel": 5,
      "note": 76,
      "start": 37.1677,
      "duration": 0.1019,
      "velocity": 122,
      "chip": "ym2612"
    },
    {
      "channel": 0,
      "note": 73,
      "start": 37.2669,
      "duration": 0.1168,
      "velocity": 122,
      "chip": "ym2612"
    },
    {
      "channel": 3,
      "note": 69,
      "start": 37.2682,
      "duration": 0.1821,
      "velocity": 127,
      "chip": "ym2612"
    },
    {
      "channel": 4,
      "note": 45,
      "start": 37.2695,
      "duration": 0.1813,
      "velocity": 127,
      "chip": "ym2612"
    },
    {
      "channel": 5,
      "note": 73,
      "start": 37.2842,
      "duration": 0.1163,
      "velocity": 122,
      "chip": "ym2612"
    },
    {
      "channel": 0,
      "note": 76,
      "start": 37.3837,
      "duration": 0.0998,
      "velocity": 122,
      "chip": "ym2612"
    },
    {
      "channel": 5,
      "note": 73,
      "start": 37.4007,
      "duration": 0.1168,
      "velocity": 122,
      "chip": "ym2612"
    },
    {
      "channel": 3,
      "note": 69,
      "start": 37.4508,
      "duration": 0.1665,
      "velocity": 127,
      "chip": "ym2612"
    },
    {
      "channel": 4,
      "note": 54,
      "start": 37.4522,
      "duration": 0.3487,
      "velocity": 89,
      "chip": "ym2612"
    },
    {
      "channel": 0,
      "note": 73,
      "start": 37.5004,
      "duration": 0.1164,
      "velocity": 122,
      "chip": "ym2612"
    },
    {
      "channel": 5,
      "note": 76,
      "start": 37.5175,
      "duration": 0.1005,
      "velocity": 122,
      "chip": "ym2612"
    },
    {
      "channel": 0,
      "note": 73,
      "start": 37.6169,
      "duration": 0.1168,
      "velocity": 122,
      "chip": "ym2612"
    },
    {
      "channel": 3,
      "note": 69,
      "start": 37.6178,
      "duration": 0.1825,
      "velocity": 127,
      "chip": "ym2612"
    },
    {
      "channel": 5,
      "note": 73,
      "start": 37.6343,
      "duration": 0.1163,
      "velocity": 122,
      "chip": "ym2612"
    },
    {
      "channel": 0,
      "note": 76,
      "start": 37.7337,
      "duration": 0.0998,
      "velocity": 122,
      "chip": "ym2612"
    },
    {
      "channel": 5,
      "note": 73,
      "start": 37.7507,
      "duration": 0.1168,
      "velocity": 122,
      "chip": "ym2612"
    },
    {
      "channel": 3,
      "note": 69,
      "start": 37.8008,
      "duration": 0.1669,
      "velocity": 127,
      "chip": "ym2612"
    },
    {
      "channel": 4,
      "note": 54,
      "start": 37.8011,
      "duration": 0.1672,
      "velocity": 89,
      "chip": "ym2612"
    },
    {
      "channel": 0,
      "note": 73,
      "start": 37.8504,
      "duration": 0.1164,
      "velocity": 122,
      "chip": "ym2612"
    },
    {
      "channel": 5,
      "note": 76,
      "start": 37.8675,
      "duration": 0.1021,
      "velocity": 122,
      "chip": "ym2612"
    },
    {
      "channel": 0,
      "note": 73,
      "start": 37.9669,
      "duration": 0.1168,
      "velocity": 122,
      "chip": "ym2612"
    },
    {
      "channel": 3,
      "note": 69,
      "start": 37.9682,
      "duration": 0.1828,
      "velocity": 127,
      "chip": "ym2612"
    },
    {
      "channel": 4,
      "note": 45,
      "start": 37.9695,
      "duration": 0.1819,
      "velocity": 127,
      "chip": "ym2612"
    },
    {
      "channel": 5,
      "note": 73,
      "start": 37.9842,
      "duration": 0.1163,
      "velocity": 122,
      "chip": "ym2612"
    },
    {
      "channel": 0,
      "note": 76,
      "start": 38.0837,
      "duration": 0.0998,
      "velocity": 122,
      "chip": "ym2612"
    },
    {
      "channel": 5,
      "note": 73,
      "start": 38.1007,
      "duration": 0.117,
      "velocity": 122,
      "chip": "ym2612"
    },
    {
      "channel": 1,
      "note": 54,
      "start": 38.1504,
      "duration": 0.1671,
      "velocity": 104,
      "chip": "ym2612"
    },
    {
      "channel": 2,
      "note": 54,
      "start": 38.1507,
      "duration": 0.1671,
      "velocity": 97,
      "chip": "ym2612"
    },
    {
      "channel": 3,
      "note": 69,
      "start": 38.1514,
      "duration": 0.1664,
      "velocity": 127,
      "chip": "ym2612"
    },
    {
      "channel": 4,
      "note": 54,
      "start": 38.1528,
      "duration": 0.1656,
      "velocity": 89,
      "chip": "ym2612"
    },
    {
      "channel": 0,
      "note": 73,
      "start": 38.2004,
      "duration": 0.1164,
      "velocity": 122,
      "chip": "ym2612"
    },
    {
      "channel": 5,
      "note": 76,
      "start": 38.2177,
      "duration": 0.101,
      "velocity": 122,
      "chip": "ym2612"
    },
    {
      "channel": 0,
      "note": 73,
      "start": 38.3169,
      "duration": 0.1001,
      "velocity": 122,
      "chip": "ym2612"
    },
    {
      "channel": 1,
      "note": 52,
      "start": 38.3174,
      "duration": 0.0997,
      "velocity": 104,
      "chip": "ym2612"
    },
    {
      "channel": 2,
      "note": 52,
      "start": 38.3178,
      "duration": 0.1829,
      "velocity": 97,
      "chip": "ym2612"
    },
    {
      "channel": 3,
      "note": 69,
      "start": 38.3183,
      "duration": 0.1828,
      "velocity": 127,
      "chip": "ym2612"
    },
    {
      "channel": 5,
      "note": 73,
      "start": 38.3342,
      "duration": 0.1163,
      "velocity": 122,
      "chip": "ym2612"
    },
    {
      "channel": 0,
      "note": 76,
      "start": 38.4171,
      "duration": 0.0831,
      "velocity": 122,
      "chip": "ym2612"
    },
    {
      "channel": 5,
      "note": 73,
      "start": 38.4507,
      "duration": 0.1003,
      "velocity": 122,
      "chip": "ym2612"
    },
    {
      "channel": 0,
      "note": 73,
      "start": 38.5003,
      "duration": 0.0831,
      "velocity": 122,
      "chip": "ym2612"
    },
    {
      "channel": 1,
      "note": 54,
      "start": 38.5007,
      "duration": 0.0831,
      "velocity": 104,
      "chip": "ym2612"
    },
    {
      "channel": 2,
      "note": 54,
      "start": 38.5011,
      "duration": 0.1662,
      "velocity": 97,
      "chip": "ym2612"
    },
    {
      "channel": 3,
      "note": 69,
      "start": 38.5017,
      "duration": 0.166,
      "velocity": 127,
      "chip": "ym2612"
    },
    {
      "channel": 4,
      "note": 54,
      "start": 38.502,
      "duration": 0.1662,
      "velocity": 89,
      "chip": "ym2612"
    },
    {
      "channel": 5,
      "note": 76,
      "start": 38.551,
      "duration": 0.083,
      "velocity": 122,
      "chip": "ym2612"
    },
    {
      "channel": 0,
      "note": 73,
      "start": 38.5835,
      "duration": 0.0835,
      "velocity": 122,
      "chip": "ym2612"
    },
    {
      "channel": 5,
      "note": 73,
      "start": 38.6342,
      "duration": 0.0829,
      "velocity": 122,
      "chip": "ym2612"
    },
    {
      "channel": 0,
      "note": 76,
      "start": 38.6671,
      "duration": 0.0998,
      "velocity": 122,
      "chip": "ym2612"
    },
    {
      "channel": 3,
      "note": 69,
      "start": 38.6681,
      "duration": 0.1823,
      "velocity": 127,
      "chip": "ym2612"
    },
    {
      "channel": 4,
      "note": 45,
      "start": 38.6695,
      "duration": 0.3483,
      "velocity": 127,
      "chip": "ym2612"
    },
    {
      "channel": 5,
      "note": 73,
      "start": 38.7173,
      "duration": 0.0834,
      "velocity": 122,
      "chip": "ym2612"
    },
    {
      "channel": 0,
      "note": 73,
      "start": 38.7671,
      "duration": 0.0831,
      "velocity": 122,
      "chip": "ym2612"
    },
    {
      "channel": 5,
      "note": 76,
      "start": 38.8008,
      "duration": 0.0998,
      "velocity": 122,
      "chip": "ym2612"
    },
    {
      "channel": 0,
      "note": 73,
      "start": 38.8502,
      "duration": 0.0835,
      "velocity": 122,
      "chip": "ym2612"
    },
    {
      "channel": 3,
      "note": 69,
      "start": 38.851,
      "duration": 0.1662,
      "velocity": 127,
      "chip": "ym2612"
    },
    {
      "channel": 5,
      "note": 73,
      "start": 38.9008,
      "duration": 0.0831,
      "velocity": 122,
      "chip": "ym2612"
    },
    {
      "channel": 0,
      "note": 76,
      "start": 38.9337,
      "duration": 0.0831,
      "velocity": 122,
      "chip": "ym2612"
    },
    {
      "channel": 5,
      "note": 73,
      "start": 38.984,
      "duration": 0.0833,
      "velocity": 122,
      "chip": "ym2612"
    },
    {
      "channel": 0,
      "note": 73,
      "start": 39.0171,
      "duration": 0.0998,
      "velocity": 122,
      "chip": "ym2612"
    },
    {
      "channel": 3,
      "note": 69,
      "start": 39.0177,
      "duration": 0.1828,
      "velocity": 127,
      "chip": "ym2612"
    },
    {
      "channel": 5,
      "note": 76,
      "start": 39.0673,
      "duration": 0.0831,
      "velocity": 122,
      "chip": "ym2612"
    },
    {
      "channel": 0,
      "note": 73,
      "start": 39.1169,
      "duration": 0.0834,
      "velocity": 122,
      "chip": "ym2612"
    },
    {
      "channel": 5,
      "note": 73,
      "start": 39.1507,
      "duration": 0.0999,
      "velocity": 122,
      "chip": "ym2612"
    },
    {
      "channel": 0,
      "note": 76,
      "start": 39.2003,
      "duration": 0.0831,
      "velocity": 122,
      "chip": "ym2612"
    },
    {
      "channel": 3,
      "note": 69,
      "start": 39.2009,
      "duration": 0.1667,
      "velocity": 127,
      "chip": "ym2612"
    },
    {
      "channel": 4,
      "note": 54,
      "start": 39.2012,
      "duration": 0.0827,
      "velocity": 89,
      "chip": "ym2612"
    },
    {
      "channel": 5,
      "note": 73,
      "start": 39.2507,
      "duration": 0.0834,
      "velocity": 122,
      "chip": "ym2612"
    },
    {
      "channel": 0,
      "note": 73,
      "start": 39.2837,
      "duration": 0.0831,
      "velocity": 122,
      "chip": "ym2612"
    },
    {
      "channel": 4,
      "note": 54,
      "start": 39.2841,
      "duration": 0.0841,
      "velocity": 89,
      "chip": "ym2612"
    },
    {
      "channel": 5,
      "note": 76,
      "start": 39.3341,
      "duration": 0.0831,
      "velocity": 122,
      "chip": "ym2612"
    },
    {
      "channel": 0,
      "note": 73,
      "start": 39.3669,
      "duration": 0.1167,
      "velocity": 122,
      "chip": "ym2612"
    },
    {
      "channel": 3,
      "note": 69,
      "start": 39.3681,
      "duration": 0.1828,
      "velocity": 127,
      "chip": "ym2612"
    },
    {
      "channel": 4,
      "note": 45,
      "start": 39.3695,
      "duration": 0.349,
      "velocity": 127,
      "chip": "ym2612"
    },
    {
      "channel": 5,
      "note": 73,
      "start": 39.4174,
      "duration": 0.0831,
      "velocity": 122,
      "chip": "ym2612"
    },
    {
      "channel": 0,
      "note": 73,
      "start": 39.4837,
      "duration": 0.1165,
      "velocity": 122,
      "chip": "ym2612"
    },
    {
      "channel": 5,
      "note": 73,
      "start": 39.5007,
      "duration": 0.117,
      "velocity": 122,
      "chip": "ym2612"
    },
    {
      "channel": 1,
      "note": 54,
      "start": 39.5504,
      "duration": 0.1671,
      "velocity": 104,
      "chip": "ym2612"
    },
    {
      "channel": 2,
      "note": 54,
      "start": 39.5507,
      "duration": 0.1671,
      "velocity": 97,
      "chip": "ym2612"
    },
    {
      "channel": 3,
      "note": 69,
      "start": 39.5514,
      "duration": 0.1665,
      "velocity": 127,
      "chip": "ym2612"
    },
    {
      "channel": 0,
      "note": 71,
      "start": 39.6003,
      "duration": 0.1165,
      "velocity": 122,
      "chip": "ym2612"
    },
    {
      "channel": 5,
      "note": 73,
      "start": 39.6176,
      "duration": 0.1165,
      "velocity": 122,
      "chip": "ym2612"
    },
    {
      "channel": 0,
      "note": 71,
      "start": 39.7169,
      "duration": 0.1168,
      "velocity": 122,
      "chip": "ym2612"
    },
    {
      "channel": 1,
      "note": 59,
      "start": 39.7174,
      "duration": 0.0994,
      "velocity": 104,
      "chip": "ym2612"
    },
    {
      "channel": 2,
      "note": 59,
      "start": 39.7178,
      "duration": 0.1827,
      "velocity": 97,
      "chip": "ym2612"
    },
    {
      "channel": 3,
      "note": 69,
      "start": 39.7184,
      "duration": 0.1826,
      "velocity": 127,
      "chip": "ym2612"
    },
    {
      "channel": 4,
      "note": 54,
      "start": 39.7199,
      "duration": 0.3486,
      "velocity": 89,
      "chip": "ym2612"
    },
    {
      "channel": 5,
      "note": 71,
      "start": 39.7343,
      "duration": 0.1164,
      "velocity": 122,
      "chip": "ym2612"
    },
    {
      "channel": 0,
      "note": 71,
      "start": 39.8337,
      "duration": 0.1165,
      "velocity": 122,
      "chip": "ym2612"
    },
    {
      "channel": 5,
      "note": 71,
      "start": 39.8508,
      "duration": 0.1169,
      "velocity": 122,
      "chip": "ym2612"
    },
    {
      "channel": 1,
      "note": 59,
      "start": 39.9005,
      "duration": 0.0832,
      "velocity": 104,
      "chip": "ym2612"
    },
    {
      "channel": 2,
      "note": 59,
      "start": 39.9009,
      "duration": 0.1665,
      "velocity": 97,
      "chip": "ym2612"
    },
    {
      "channel": 3,
      "note": 69,
      "start": 39.9014,
      "duration": 0.1665,
      "velocity": 127,
      "chip": "ym2612"
    },
    {
      "channel": 0,
      "note": 69,
      "start": 39.9503,
      "duration": 0.1165,
      "velocity": 122,
      "chip": "ym2612"
    },
    {
      "channel": 5,
      "note": 71,
      "start": 39.9677,
      "duration": 0.1163,
      "velocity": 122,
      "chip": "ym2612"
    },
    {
      "channel": 0,
      "note": 69,
      "start": 40.0669,
      "duration": 0.1168,
      "velocity": 122,
      "chip": "ym2612"
    },
    {
      "channel": 1,
      "note": 59,
      "start": 40.0674,
      "duration": 0.0995,
      "velocity": 104,
      "chip": "ym2612"
    },
    {
      "channel": 2,
      "note": 59,
      "start": 40.0678,
      "duration": 0.1827,
      "velocity": 97,
      "chip": "ym2612"
    },
    {
      "channel": 3,
      "note": 69,
      "start": 40.0684,
      "duration": 0.1826,
      "velocity": 127,
      "chip": "ym2612"
    },
    {
      "channel": 4,
      "note": 45,
      "start": 40.0697,
      "duration": 0.1817,
      "velocity": 127,
      "chip": "ym2612"
    },
    {
      "channel": 5,
      "note": 69,
      "start": 40.0843,
      "duration": 0.1163,
      "velocity": 122,
      "chip": "ym2612"
    },
    {
      "channel": 0,
      "note": 69,
      "start": 40.1837,
      "duration": 0.1165,
      "velocity": 122,
      "chip": "ym2612"
    },
    {
      "channel": 5,
      "note": 69,
      "start": 40.2007,
      "duration": 0.117,
      "velocity": 122,
      "chip": "ym2612"
    },
    {
      "channel": 1,
      "note": 59,
      "start": 40.2505,
      "duration": 0.0832,
      "velocity": 104,
      "chip": "ym2612"
    },
    {
      "channel": 2,
      "note": 59,
      "start": 40.2509,
      "duration": 0.1666,
      "velocity": 97,
      "chip": "ym2612"
    },
    {
      "channel": 3,
      "note": 69,
      "start": 40.2514,
      "duration": 0.1666,
      "velocity": 127,
      "chip": "ym2612"
    },
    {
      "channel": 4,
      "note": 54,
      "start": 40.2528,
      "duration": 0.3489,
      "velocity": 89,
      "chip": "ym2612"
    },
    {
      "channel": 0,
      "note": 66,
      "start": 40.3003,
      "duration": 0.1165,
      "velocity": 122,
      "chip": "ym2612"
    },
    {
      "channel": 5,
      "note": 69,
      "start": 40.3177,
      "duration": 0.1164,
      "velocity": 122,
      "chip": "ym2612"
    },
    {
      "channel": 0,
      "note": 66,
      "start": 40.4169,
      "duration": 0.1834,
      "velocity": 122,
      "chip": "ym2612"
    },
    {
      "channel": 1,
      "note": 59,
      "start": 40.4174,
      "duration": 0.0994,
      "velocity": 104,
      "chip": "ym2612"
    },
    {
      "channel": 2,
      "note": 59,
      "start": 40.4179,
      "duration": 0.1828,
      "velocity": 97,
      "chip": "ym2612"
    },
    {
      "channel": 3,
      "note": 69,
      "start": 40.4185,
      "duration": 0.1827,
      "velocity": 127,
      "chip": "ym2612"
    },
    {
      "channel": 5,
      "note": 66,
      "start": 40.4344,
      "duration": 0.1163,
      "velocity": 122,
      "chip": "ym2612"
    },
    {
      "channel": 5,
      "note": 66,
      "start": 40.5508,
      "duration": 0.1835,
      "velocity": 122,
      "chip": "ym2612"
    },
    {
      "channel": 0,
      "note": 73,
      "start": 40.6004,
      "duration": 0.1664,
      "velocity": 122,
      "chip": "ym2612"
    },
    {
      "channel": 1,
      "note": 59,
      "start": 40.6007,
      "duration": 0.0829,
      "velocity": 104,
      "chip": "ym2612"
    },
    {
      "channel": 2,
      "note": 59,
      "start": 40.6011,
      "duration": 0.1664,
      "velocity": 97,
      "chip": "ym2612"
    },
    {
      "channel": 3,
      "note": 69,
      "start": 40.6016,
      "duration": 0.1663,
      "velocity": 127,
      "chip": "ym2612"
    },
    {
      "channel": 4,
      "note": 54,
      "start": 40.6019,
      "duration": 0.1666,
      "velocity": 89,
      "chip": "ym2612"
    },
    {
      "channel": 5,
      "note": 73,
      "start": 40.7343,
      "duration": 0.1663,
      "velocity": 122,
      "chip": "ym2612"
    },
    {
      "channel": 0,
      "note": 73,
      "start": 40.7669,
      "duration": 0.1835,
      "velocity": 122,
      "chip": "ym2612"
    },
    {
      "channel": 1,
      "note": 59,
      "start": 40.7674,
      "duration": 0.0994,
      "velocity": 104,
      "chip": "ym2612"
    },
    {
      "channel": 2,
      "note": 59,
      "start": 40.7679,
      "duration": 0.1828,
      "velocity": 97,
      "chip": "ym2612"
    },
    {
      "channel": 3,
      "note": 69,
      "start": 40.7685,
      "duration": 0.1827,
      "velocity": 127,
      "chip": "ym2612"
    },
    {
      "channel": 4,
      "note": 45,
      "start": 40.7698,
      "duration": 0.1819,
      "velocity": 127,
      "chip": "ym2612"
    },
    {
      "channel": 5,
      "note": 73,
      "start": 40.9007,
      "duration": 0.1836,
      "velocity": 122,
      "chip": "ym2612"
    },
    {
      "channel": 0,
      "note": 78,
      "start": 40.9504,
      "duration": 0.1664,
      "velocity": 122,
      "chip": "ym2612"
    },
    {
      "channel": 1,
      "note": 59,
      "start": 40.9507,
      "duration": 0.0829,
      "velocity": 104,
      "chip": "ym2612"
    },
    {
      "channel": 2,
      "note": 59,
      "start": 40.9511,
      "duration": 0.1664,
      "velocity": 97,
      "chip": "ym2612"
    },
    {
      "channel": 3,
      "note": 69,
      "start": 40.9516,
      "duration": 0.1663,
      "velocity": 127,
      "chip": "ym2612"
    },
    {
      "channel": 4,
      "note": 54,
      "start": 40.953,
      "duration": 0.1655,
      "velocity": 89,
      "chip": "ym2612"
    },
    {
      "channel": 5,
      "note": 78,
      "start": 41.0843,
      "duration": 0.1662,
      "velocity": 122,
      "chip": "ym2612"
    },
    {
      "channel": 0,
      "note": 78,
      "start": 41.1169,
      "duration": 0.0334,
      "velocity": 122,
      "chip": "ym2612"
    },
    {
      "channel": 1,
      "note": 59,
      "start": 41.1174,
      "duration": 0.0995,
      "velocity": 104,
      "chip": "ym2612"
    },
    {
      "channel": 2,
      "note": 59,
      "start": 41.1179,
      "duration": 0.1829,
      "velocity": 97,
      "chip": "ym2612"
    },
    {
      "channel": 3,
      "note": 69,
      "start": 41.1185,
      "duration": 0.1827,
      "velocity": 127,
      "chip": "ym2612"
    },
    {
      "channel": 0,
      "note": 81,
      "start": 41.1504,
      "duration": 0.1498,
      "velocity": 122,
      "chip": "ym2612"
    },
    {
      "channel": 5,
      "note": 78,
      "start": 41.2507,
      "duration": 0.0334,
      "velocity": 122,
      "chip": "ym2612"
    },
    {
      "channel": 5,
      "note": 81,
      "start": 41.2841,
      "duration": 0.1499,
      "velocity": 122,
      "chip": "ym2612"
    },
    {
      "channel": 0,
      "note": 81,
      "start": 41.3003,
      "duration": 0.1668,
      "velocity": 122,
      "chip": "ym2612"
    },
    {
      "channel": 1,
      "note": 59,
      "start": 41.3007,
      "duration": 0.0828,
      "velocity": 104,
      "chip": "ym2612"
    },
    {
      "channel": 2,
      "note": 59,
      "start": 41.3011,
      "duration": 0.1663,
      "velocity": 97,
      "chip": "ym2612"
    },
    {
      "channel": 3,
      "note": 69,
      "start": 41.3017,
      "duration": 0.1662,
      "velocity": 127,
      "chip": "ym2612"
    },
    {
      "channel": 4,
      "note": 54,
      "start": 41.302,
      "duration": 0.1665,
      "velocity": 89,
      "chip": "ym2612"
    },
    {
      "channel": 5,
      "note": 81,
      "start": 41.4341,
      "duration": 0.1668,
      "velocity": 122,
      "chip": "ym2612"
    },
    {
      "channel": 0,
      "note": 76,
      "start": 41.4671,
      "duration": 0.1831,
      "velocity": 122,
      "chip": "ym2612"
    },
    {
      "channel": 1,
      "note": 59,
      "start": 41.4674,
      "duration": 0.0996,
      "velocity": 104,
      "chip": "ym2612"
    },
    {
      "channel": 2,
      "note": 59,
      "start": 41.4678,
      "duration": 0.1829,
      "velocity": 97,
      "chip": "ym2612"
    },
    {
      "channel": 3,
      "note": 69,
      "start": 41.4684,
      "duration": 0.1828,
      "velocity": 127,
      "chip": "ym2612"
    },
    {
      "channel": 4,
      "note": 45,
      "start": 41.4697,
      "duration": 0.3488,
      "velocity": 127,
      "chip": "ym2612"
    },
    {
      "channel": 5,
      "note": 76,
      "start": 41.6009,
      "duration": 0.1831,
      "velocity": 122,
      "chip": "ym2612"
    },
    {
      "channel": 0,
      "note": 76,
      "start": 41.6503,
      "duration": 0.0334,
      "velocity": 122,
      "chip": "ym2612"
    },
    {
      "channel": 1,
      "note": 59,
      "start": 41.6507,
      "duration": 0.0829,
      "velocity": 104,
      "chip": "ym2612"
    },
    {
      "channel": 2,
      "note": 59,
      "start": 41.6511,
      "duration": 0.1664,
      "velocity": 97,
      "chip": "ym2612"
    },
    {
      "channel": 3,
      "note": 69,
      "start": 41.6517,
      "duration": 0.1663,
      "velocity": 127,
      "chip": "ym2612"
    },
    {
      "channel": 0,
      "note": 78,
      "start": 41.6837,
      "duration": 0.1331,
      "velocity": 122,
      "chip": "ym2612"
    },
    {
      "channel": 5,
      "note": 76,
      "start": 41.7841,
      "duration": 0.0361,
      "velocity": 122,
      "chip": "ym2612"
    },
    {
      "channel": 0,
      "note": 78,
      "start": 41.8169,
      "duration": 0.1834,
      "velocity": 122,
      "chip": "ym2612"
    },
    {
      "channel": 1,
      "note": 59,
      "start": 41.8174,
      "duration": 0.0994,
      "velocity": 104,
      "chip": "ym2612"
    },
    {
      "channel": 2,
      "note": 59,
      "start": 41.8179,
      "duration": 0.1828,
      "velocity": 97,
      "chip": "ym2612"
    },
    {
      "channel": 3,
      "note": 69,
      "start": 41.8185,
      "duration": 0.1827,
      "velocity": 127,
      "chip": "ym2612"
    },
    {
      "channel": 4,
      "note": 54,
      "start": 41.8199,
      "duration": 0.1818,
      "velocity": 89,
      "chip": "ym2612"
    },
    {
      "channel": 5,
      "note": 78,
      "start": 41.8202,
      "duration": 0.1305,
      "velocity": 122,
      "chip": "ym2612"
    },
    {
      "channel": 5,
      "note": 78,
      "start": 41.9508,
      "duration": 0.1835,
      "velocity": 122,
      "chip": "ym2612"
    },
    {
      "channel": 0,
      "note": 72,
      "start": 42.0004,
      "duration": 0.1664,
      "velocity": 122,
      "chip": "ym2612"
    },
    {
      "channel": 1,
      "note": 59,
      "start": 42.0007,
      "duration": 0.0829,
      "velocity": 104,
      "chip": "ym2612"
    },
    {
      "channel": 2,
      "note": 59,
      "start": 42.0011,
      "duration": 0.1664,
      "velocity": 97,
      "chip": "ym2612"
    },
    {
      "channel": 3,
      "note": 69,
      "start": 42.0016,
      "duration": 0.1663,
      "velocity": 127,
      "chip": "ym2612"
    },
    {
      "channel": 4,
      "note": 54,
      "start": 42.0019,
      "duration": 0.1666,
      "velocity": 89,
      "chip": "ym2612"
    },
    {
      "channel": 5,
      "note": 72,
      "start": 42.1343,
      "duration": 0.1663,
      "velocity": 122,
      "chip": "ym2612"
    },
    {
      "channel": 0,
      "note": 71,
      "start": 42.1671,
      "duration": 0.1831,
      "velocity": 122,
      "chip": "ym2612"
    },
    {
      "channel": 1,
      "note": 59,
      "start": 42.1674,
      "duration": 0.0996,
      "velocity": 104,
      "chip": "ym2612"
    },
    {
      "channel": 2,
      "note": 59,
      "start": 42.1678,
      "duration": 0.183,
      "velocity": 97,
      "chip": "ym2612"
    },
    {
      "channel": 3,
      "note": 69,
      "start": 42.1685,
      "duration": 0.1827,
      "velocity": 127,
      "chip": "ym2612"
    },
    {
      "channel": 4,
      "note": 45,
      "start": 42.1697,
      "duration": 0.3487,
      "velocity": 127,
      "chip": "ym2612"
    },
    {
      "channel": 5,
      "note": 71,
      "start": 42.3009,
      "duration": 0.1831,
      "velocity": 122,
      "chip": "ym2612"
    },
    {
      "channel": 0,
      "note": 66,
      "start": 42.3504,
      "duration": 0.1664,
      "velocity": 122,
      "chip": "ym2612"
    },
    {
      "channel": 1,
      "note": 59,
      "start": 42.3506,
      "duration": 0.1668,
      "velocity": 104,
      "chip": "ym2612"
    },
    {
      "channel": 2,
      "note": 59,
      "start": 42.3509,
      "duration": 0.1669,
      "velocity": 97,
      "chip": "ym2612"
    },
    {
      "channel": 3,
      "note": 69,
      "start": 42.3517,
      "duration": 0.1662,
      "velocity": 127,
      "chip": "ym2612"
    },
    {
      "channel": 5,
      "note": 66,
      "start": 42.4843,
      "duration": 0.1663,
      "velocity": 122,
      "chip": "ym2612"
    },
    {
      "channel": 0,
      "note": 66,
      "start": 42.5169,
      "duration": 0.1834,
      "velocity": 122,
      "chip": "ym2612"
    },
    {
      "channel": 1,
      "note": 57,
      "start": 42.5174,
      "duration": 0.0994,
      "velocity": 104,
      "chip": "ym2612"
    },
    {
      "channel": 2,
      "note": 57,
      "start": 42.5178,
      "duration": 0.1829,
      "velocity": 97,
      "chip": "ym2612"
    },
    {
      "channel": 3,
      "note": 69,
      "start": 42.5184,
      "duration": 0.1828,
      "velocity": 127,
      "chip": "ym2612"
    },
    {
      "channel": 4,
      "note": 54,
      "start": 42.5199,
      "duration": 0.3483,
      "velocity": 89,
      "chip": "ym2612"
    },
    {
      "channel": 5,
      "note": 66,
      "start": 42.6508,
      "duration": 0.1835,
      "velocity": 122,
      "chip": "ym2612"
    },
    {
      "channel": 0,
      "note": 71,
      "start": 42.7004,
      "duration": 0.1664,
      "velocity": 122,
      "chip": "ym2612"
    },
    {
      "channel": 1,
      "note": 59,
      "start": 42.7007,
      "duration": 0.0829,
      "velocity": 104,
      "chip": "ym2612"
    },
    {
      "channel": 2,
      "note": 59,
      "start": 42.7012,
      "duration": 0.1662,
      "velocity": 97,
      "chip": "ym2612"
    },
    {
      "channel": 3,
      "note": 69,
      "start": 42.7017,
      "duration": 0.1659,
      "velocity": 127,
      "chip": "ym2612"
    },
    {
      "channel": 5,
      "note": 71,
      "start": 42.8343,
      "duration": 0.1662,
      "velocity": 122,
      "chip": "ym2612"
    },
    {
      "channel": 0,
      "note": 73,
      "start": 42.8671,
      "duration": 0.1831,
      "velocity": 122,
      "chip": "ym2612"
    },
    {
      "channel": 3,
      "note": 69,
      "start": 42.8681,
      "duration": 0.1824,
      "velocity": 127,
      "chip": "ym2612"
    },
    {
      "channel": 4,
      "note": 45,
      "start": 42.8695,
      "duration": 0.1815,
      "velocity": 127,
      "chip": "ym2612"
    },
    {
      "channel": 5,
      "note": 73,
      "start": 43.0008,
      "duration": 0.1831,
      "velocity": 122,
      "chip": "ym2612"
    },
    {
      "channel": 0,
      "note": 76,
      "start": 43.0504,
      "duration": 0.1664,
      "velocity": 122,
      "chip": "ym2612"
    },
    {
      "channel": 3,
      "note": 69,
      "start": 43.051,
      "duration": 0.1662,
      "velocity": 127,
      "chip": "ym2612"
    },
    {
      "channel": 4,
      "note": 54,
      "start": 43.0524,
      "duration": 0.3485,
      "velocity": 89,
      "chip": "ym2612"
    },
    {
      "channel": 5,
      "note": 76,
      "start": 43.1842,
      "duration": 0.1664,
      "velocity": 122,
      "chip": "ym2612"
    },
    {
      "channel": 0,
      "note": 76,
      "start": 43.2169,
      "duration": 0.3501,
      "velocity": 122,
      "chip": "ym2612"
    },
    {
      "channel": 3,
      "note": 69,
      "start": 43.2177,
      "duration": 0.1826,
      "velocity": 127,
      "chip": "ym2612"
    },
    {
      "channel": 5,
      "note": 76,
      "start": 43.3507,
      "duration": 0.3501,
      "velocity": 122,
      "chip": "ym2612"
    },
    {
      "channel": 3,
      "note": 69,
      "start": 43.4008,
      "duration": 0.1669,
      "velocity": 127,
      "chip": "ym2612"
    },
    {
      "channel": 4,
      "note": 54,
      "start": 43.4011,
      "duration": 0.1671,
      "velocity": 89,
      "chip": "ym2612"
    },
    {
      "channel": 0,
      "note": 77,
      "start": 43.5671,
      "duration": 0.1831,
      "velocity": 122,
      "chip": "ym2612"
    },
    {
      "channel": 3,
      "note": 69,
      "start": 43.5681,
      "duration": 0.1831,
      "velocity": 127,
      "chip": "ym2612"
    },
    {
      "channel": 4,
      "note": 45,
      "start": 43.5695,
      "duration": 0.1822,
      "velocity": 127,
      "chip": "ym2612"
    },
    {
      "channel": 5,
      "note": 77,
      "start": 43.7008,
      "duration": 0.1833,
      "velocity": 122,
      "chip": "ym2612"
    },
    {
      "channel": 0,
      "note": 77,
      "start": 43.7503,
      "duration": 0.3501,
      "velocity": 122,
      "chip": "ym2612"
    },
    {
      "channel": 1,
      "note": 59,
      "start": 43.7506,
      "duration": 0.1667,
      "velocity": 104,
      "chip": "ym2612"
    },
    {
      "channel": 2,
      "note": 59,
      "start": 43.751,
      "duration": 0.1667,
      "velocity": 97,
      "chip": "ym2612"
    },
    {
      "channel": 3,
      "note": 69,
      "start": 43.7517,
      "duration": 0.166,
      "velocity": 127,
      "chip": "ym2612"
    },
    {
      "channel": 4,
      "note": 54,
      "start": 43.7531,
      "duration": 0.1651,
      "velocity": 89,
      "chip": "ym2612"
    },
    {
      "channel": 5,
      "note": 77,
      "start": 43.8842,
      "duration": 0.3501,
      "velocity": 122,
      "chip": "ym2612"
    },
    {
      "channel": 1,
      "note": 57,
      "start": 43.9173,
      "duration": 0.0995,
      "velocity": 104,
      "chip": "ym2612"
    },
    {
      "channel": 2,
      "note": 57,
      "start": 43.9176,
      "duration": 0.1831,
      "velocity": 97,
      "chip": "ym2612"
    },
    {
      "channel": 3,
      "note": 69,
      "start": 43.9182,
      "duration": 0.183,
      "velocity": 127,
      "chip": "ym2612"
    },
    {
      "channel": 0,
      "note": 76,
      "start": 44.1004,
      "duration": 0.1664,
      "velocity": 122,
      "chip": "ym2612"
    },
    {
      "channel": 1,
      "note": 59,
      "start": 44.1007,
      "duration": 0.0829,
      "velocity": 104,
      "chip": "ym2612"
    },
    {
      "channel": 2,
      "note": 59,
      "start": 44.1012,
      "duration": 0.1662,
      "velocity": 97,
      "chip": "ym2612"
    },
    {
      "channel": 3,
      "note": 69,
      "start": 44.1017,
      "duration": 0.166,
      "velocity": 127,
      "chip": "ym2612"
    },
    {
      "channel": 4,
      "note": 54,
      "start": 44.102,
      "duration": 0.1662,
      "velocity": 89,
      "chip": "ym2612"
    },
    {
      "channel": 5,
      "note": 76,
      "start": 44.2343,
      "duration": 0.1662,
      "velocity": 122,
      "chip": "ym2612"
    },
    {
      "channel": 0,
      "note": 71,
      "start": 44.2671,
      "duration": 0.1831,
      "velocity": 122,
      "chip": "ym2612"
    },
    {
      "channel": 3,
      "note": 69,
      "start": 44.2682,
      "duration": 0.1823,
      "velocity": 127,
      "chip": "ym2612"
    },
    {
      "channel": 4,
      "note": 45,
      "start": 44.2695,
      "duration": 0.3482,
      "velocity": 127,
      "chip": "ym2612"
    },
    {
      "channel": 5,
      "note": 71,
      "start": 44.4008,
      "duration": 0.183,
      "velocity": 122,
      "chip": "ym2612"
    },
    {
      "channel": 0,
      "note": 71,
      "start": 44.4503,
      "duration": 0.0334,
      "velocity": 122,
      "chip": "ym2612"
    },
    {
      "channel": 3,
      "note": 69,
      "start": 44.451,
      "duration": 0.1662,
      "velocity": 127,
      "chip": "ym2612"
    },
    {
      "channel": 0,
      "note": 73,
      "start": 44.4837,
      "duration": 0.1331,
      "velocity": 122,
      "chip": "ym2612"
    },
    {
      "channel": 5,
      "note": 71,
      "start": 44.584,
      "duration": 0.0353,
      "velocity": 122,
      "chip": "ym2612"
    },
    {
      "channel": 0,
      "note": 69,
      "start": 44.6171,
      "duration": 0.1831,
      "velocity": 122,
      "chip": "ym2612"
    },
    {
      "channel": 3,
      "note": 69,
      "start": 44.6177,
      "duration": 0.1828,
      "velocity": 127,
      "chip": "ym2612"
    },
    {
      "channel": 5,
      "note": 73,
      "start": 44.6193,
      "duration": 0.1312,
      "velocity": 122,
      "chip": "ym2612"
    },
    {
      "channel": 5,
      "note": 69,
      "start": 44.7507,
      "duration": 0.1832,
      "velocity": 122,
      "chip": "ym2612"
    },
    {
      "channel": 0,
      "note": 69,
      "start": 44.8003,
      "duration": 0.0334,
      "velocity": 122,
      "chip": "ym2612"
    },
    {
      "channel": 3,
      "note": 69,
      "start": 44.801,
      "duration": 0.1662,
      "velocity": 127,
      "chip": "ym2612"
    },
    {
      "channel": 4,
      "note": 54,
      "start": 44.8014,
      "duration": 0.0824,
      "velocity": 89,
      "chip": "ym2612"
    },
    {
      "channel": 0,
      "note": 71,
      "start": 44.8337,
      "duration": 0.1331,
      "velocity": 122,
      "chip": "ym2612"
    },
    {
      "channel": 4,
      "note": 54,
      "start": 44.884,
      "duration": 0.0838,
      "velocity": 89,
      "chip": "ym2612"
    },
    {
      "channel": 5,
      "note": 69,
      "start": 44.934,
      "duration": 0.0353,
      "velocity": 122,
      "chip": "ym2612"
    },
    {
      "channel": 0,
      "note": 66,
      "start": 44.9671,
      "duration": 0.1831,
      "velocity": 122,
      "chip": "ym2612"
    },
    {
      "channel": 3,
      "note": 69,
      "start": 44.9677,
      "duration": 0.1828,
      "velocity": 127,
      "chip": "ym2612"
    },
    {
      "channel": 4,
      "note": 45,
      "start": 44.969,
      "duration": 0.3497,
      "velocity": 127,
      "chip": "ym2612"
    },
    {
      "channel": 5,
      "note": 71,
      "start": 44.9693,
      "duration": 0.1312,
      "velocity": 122,
      "chip": "ym2612"
    },
    {
      "channel": 5,
      "note": 66,
      "start": 45.1008,
      "duration": 0.183,
      "velocity": 122,
      "chip": "ym2612"
    },
    {
      "channel": 0,
      "note": 66,
      "start": 45.1503,
      "duration": 0.0334,
      "velocity": 122,
      "chip": "ym2612"
    },
    {
      "channel": 3,
      "note": 69,
      "start": 45.151,
      "duration": 0.1671,
      "velocity": 127,
      "chip": "ym2612"
    },
    {
      "channel": 0,
      "note": 69,
      "start": 45.1837,
      "duration": 0.1331,
      "velocity": 122,
      "chip": "ym2612"
    },
    {
      "channel": 5,
      "note": 66,
      "start": 45.284,
      "duration": 0.0364,
      "velocity": 122,
      "chip": "ym2612"
    },
    {
      "channel": 0,
      "note": 59,
      "start": 45.3172,
      "duration": 0.0163,
      "velocity": 122,
      "chip": "ym2612"
    },
    {
      "channel": 1,
      "note": 66,
      "start": 45.3178,
      "duration": 0.016,
      "velocity": 104,
      "chip": "ym2612"
    },
    {
      "channel": 2,
      "note": 49,
      "start": 45.3181,
      "duration": 0.1827,
      "velocity": 97,
      "chip": "ym2612"
    },
    {
      "channel": 3,
      "note": 69,
      "start": 45.3187,
      "duration": 0.3485,
      "velocity": 127,
      "chip": "ym2612"
    },
    {
      "channel": 4,
      "note": 54,
      "start": 45.3201,
      "duration": 0.3473,
      "velocity": 89,
      "chip": "ym2612"
    },
    {
      "channel": 5,
      "note": 69,
      "start": 45.3204,
      "duration": 0.1303,
      "velocity": 122,
      "chip": "ym2612"
    },
    {
      "channel": 0,
      "note": 61,
      "start": 45.3337,
      "duration": 0.1664,
      "velocity": 122,
      "chip": "ym2612"
    },
    {
      "channel": 1,
      "note": 68,
      "start": 45.334,
      "duration": 0.1664,
      "velocity": 104,
      "chip": "ym2612"
    },
    {
      "channel": 5,
      "note": 59,
      "start": 45.4512,
      "duration": 0.0162,
      "velocity": 122,
      "chip": "ym2612"
    },
    {
      "channel": 5,
      "note": 61,
      "start": 45.4677,
      "duration": 0.1664,
      "velocity": 122,
      "chip": "ym2612"
    },
    {
      "channel": 0,
      "note": 60,
      "start": 45.5004,
      "duration": 0.2998,
      "velocity": 122,
      "chip": "ym2612"
    },
    {
      "channel": 1,
      "note": 67,
      "start": 45.5007,
      "duration": 0.2996,
      "velocity": 104,
      "chip": "ym2612"
    },
    {
      "channel": 2,
      "note": 60,
      "start": 45.501,
      "duration": 0.3498,
      "velocity": 97,
      "chip": "ym2612"
    },
    {
      "channel": 5,
      "note": 60,
      "start": 45.6344,
      "duration": 0.2998,
      "velocity": 122,
      "chip": "ym2612"
    },
    {
      "channel": 3,
      "note": 69,
      "start": 45.6674,
      "duration": 0.1837,
      "velocity": 127,
      "chip": "ym2612"
    },
    {
      "channel": 0,
      "note": 59,
      "start": 45.8504,
      "duration": 0.2998,
      "velocity": 122,
      "chip": "ym2612"
    },
    {
      "channel": 1,
      "note": 66,
      "start": 45.8507,
      "duration": 0.2996,
      "velocity": 104,
      "chip": "ym2612"
    },
    {
      "channel": 2,
      "note": 59,
      "start": 45.851,
      "duration": 0.3498,
      "velocity": 97,
      "chip": "ym2612"
    },
    {
      "channel": 3,
      "note": 57,
      "start": 45.8525,
      "duration": 0.0313,
      "velocity": 118,
      "chip": "ym2612"
    },
    {
      "channel": 4,
      "note": 54,
      "start": 45.8528,
      "duration": 0.3489,
      "velocity": 89,
      "chip": "ym2612"
    },
    {
      "channel": 3,
      "note": 57,
      "start": 45.884,
      "duration": 0.317,
      "velocity": 118,
      "chip": "ym2612"
    },
    {
      "channel": 5,
      "note": 59,
      "start": 45.9844,
      "duration": 0.2996,
      "velocity": 122,
      "chip": "ym2612"
    },
    {
      "channel": 0,
      "note": 57,
      "start": 46.2004,
      "duration": 0.2998,
      "velocity": 122,
      "chip": "ym2612"
    },
    {
      "channel": 1,
      "note": 64,
      "start": 46.2007,
      "duration": 0.2996,
      "velocity": 104,
      "chip": "ym2612"
    },
    {
      "channel": 2,
      "note": 57,
      "start": 46.201,
      "duration": 0.3498,
      "velocity": 97,
      "chip": "ym2612"
    },
    {
      "channel": 3,
      "note": 52,
      "start": 46.2016,
      "duration": 0.1655,
      "velocity": 118,
      "chip": "ym2612"
    },
    {
      "channel": 5,
      "note": 57,
      "start": 46.3343,
      "duration": 0.2998,
      "velocity": 122,
      "chip": "ym2612"
    },
    {
      "channel": 3,
      "note": 45,
      "start": 46.3677,
      "duration": 0.1834,
      "velocity": 118,
      "chip": "ym2612"
    },
    {
      "channel": 4,
      "note": 81,
      "start": 46.369,
      "duration": 0.1835,
      "velocity": 118,
      "chip": "ym2612"
    },
    {
      "channel": 0,
      "note": 54,
      "start": 46.5504,
      "duration": 0.1664,
      "velocity": 122,
      "chip": "ym2612"
    },
    {
      "channel": 1,
      "note": 61,
      "start": 46.5507,
      "duration": 0.1664,
      "velocity": 104,
      "chip": "ym2612"
    },
    {
      "channel": 2,
      "note": 49,
      "start": 46.551,
      "duration": 0.1664,
      "velocity": 97,
      "chip": "ym2612"
    },
    {
      "channel": 3,
      "note": 45,
      "start": 46.5524,
      "duration": 0.0314,
      "velocity": 127,
      "chip": "ym2612"
    },
    {
      "channel": 4,
      "note": 54,
      "start": 46.5539,
      "duration": 0.1653,
      "velocity": 89,
      "chip": "ym2612"
    },
    {
      "channel": 3,
      "note": 45,
      "start": 46.584,
      "duration": 0.1337,
      "velocity": 127,
      "chip": "ym2612"
    },
    {
      "channel": 5,
      "note": 54,
      "start": 46.6844,
      "duration": 0.1664,
      "velocity": 122,
      "chip": "ym2612"
    },
    {
      "channel": 0,
      "note": 52,
      "start": 46.7171,
      "duration": 0.1831,
      "velocity": 122,
      "chip": "ym2612"
    },
    {
      "channel": 1,
      "note": 59,
      "start": 46.7174,
      "duration": 0.1831,
      "velocity": 104,
      "chip": "ym2612"
    },
    {
      "channel": 2,
      "note": 52,
      "start": 46.7177,
      "duration": 0.1831,
      "velocity": 97,
      "chip": "ym2612"
    },
    {
      "channel": 3,
      "note": 81,
      "start": 46.7192,
      "duration": 0.182,
      "velocity": 127,
      "chip": "ym2612"
    },
    {
      "channel": 4,
      "note": 54,
      "start": 46.7195,
      "duration": 0.3493,
      "velocity": 89,
      "chip": "ym2612"
    },
    {
      "channel": 5,
      "note": 52,
      "start": 46.851,
      "duration": 0.1832,
      "velocity": 122,
      "chip": "ym2612"
    },
    {
      "channel": 0,
      "note": 54,
      "start": 46.9004,
      "duration": 0.2998,
      "velocity": 122,
      "chip": "ym2612"
    },
    {
      "channel": 1,
      "note": 61,
      "start": 46.9007,
      "duration": 0.2996,
      "velocity": 104,
      "chip": "ym2612"
    },
    {
      "channel": 2,
      "note": 54,
      "start": 46.9011,
      "duration": 0.166,
      "velocity": 97,
      "chip": "ym2612"
    },
    {
      "channel": 3,
      "note": 57,
      "start": 46.9026,
      "duration": 0.0645,
      "velocity": 118,
      "chip": "ym2612"
    },
    {
      "channel": 3,
      "note": 52,
      "start": 46.9677,
      "duration": 0.0494,
      "velocity": 118,
      "chip": "ym2612"
    },
    {
      "channel": 3,
      "note": 45,
      "start": 47.0177,
      "duration": 0.0498,
      "velocity": 118,
      "chip": "ym2612"
    },
    {
      "channel": 5,
      "note": 54,
      "start": 47.0344,
      "duration": 0.2997,
      "velocity": 122,
      "chip": "ym2612"
    },
    {
      "channel": 2,
      "note": 49,
      "start": 47.0674,
      "duration": 0.0997,
      "velocity": 97,
      "chip": "ym2612"
    },
    {
      "channel": 3,
      "note": 45,
      "start": 47.0687,
      "duration": 0.1826,
      "velocity": 127,
      "chip": "ym2612"
    },
    {
      "channel": 0,
      "note": 52,
      "start": 47.2504,
      "duration": 0.1664,
      "velocity": 122,
      "chip": "ym2612"
    },
    {
      "channel": 1,
      "note": 59,
      "start": 47.2507,
      "duration": 0.1664,
      "velocity": 104,
      "chip": "ym2612"
    },
    {
      "channel": 2,
      "note": 52,
      "start": 47.2512,
      "duration": 0.1662,
      "velocity": 97,
      "chip": "ym2612"
    },
    {
      "channel": 3,
      "note": 81,
      "start": 47.2526,
      "duration": 0.1652,
      "velocity": 127,
      "chip": "ym2612"
    },
    {
      "channel": 4,
      "note": 54,
      "start": 47.2529,
      "duration": 0.1664,
      "velocity": 89,
      "chip": "ym2612"
    },
    {
      "channel": 5,
      "note": 52,
      "start": 47.3844,
      "duration": 0.1664,
      "velocity": 122,
      "chip": "ym2612"
    },
    {
      "channel": 0,
      "note": 54,
      "start": 47.4171,
      "duration": 0.2998,
      "velocity": 122,
      "chip": "ym2612"
    },
    {
      "channel": 1,
      "note": 61,
      "start": 47.4174,
      "duration": 0.2996,
      "velocity": 104,
      "chip": "ym2612"
    },
    {
      "channel": 2,
      "note": 54,
      "start": 47.4178,
      "duration": 0.1826,
      "velocity": 97,
      "chip": "ym2612"
    },
    {
      "channel": 3,
      "note": 81,
      "start": 47.4193,
      "duration": 0.5319,
      "velocity": 127,
      "chip": "ym2612"
    },
    {
      "channel": 4,
      "note": 45,
      "start": 47.4206,
      "duration": 0.1803,
      "velocity": 127,
      "chip": "ym2612"
    },
    {
      "channel": 5,
      "note": 54,
      "start": 47.551,
      "duration": 0.2998,
      "velocity": 122,
      "chip": "ym2612"
    },
    {
      "channel": 2,
      "note": 49,
      "start": 47.6007,
      "duration": 0.083,
      "velocity": 97,
      "chip": "ym2612"
    },
    {
      "channel": 4,
      "note": 45,
      "start": 47.6013,
      "duration": 0.0827,
      "velocity": 127,
      "chip": "ym2612"
    },
    {
      "channel": 4,
      "note": 45,
      "start": 47.6843,
      "duration": 0.0838,
      "velocity": 127,
      "chip": "ym2612"
    },
    {
      "channel": 0,
      "note": 52,
      "start": 47.7671,
      "duration": 0.1831,
      "velocity": 122,
      "chip": "ym2612"
    },
    {
      "channel": 1,
      "note": 59,
      "start": 47.7674,
      "duration": 0.1831,
      "velocity": 104,
      "chip": "ym2612"
    },
    {
      "channel": 2,
      "note": 52,
      "start": 47.7679,
      "duration": 0.1829,
      "velocity": 97,
      "chip": "ym2612"
    },
    {
      "channel": 4,
      "note": 54,
      "start": 47.7694,
      "duration": 0.1822,
      "velocity": 89,
      "chip": "ym2612"
    },
    {
      "channel": 5,
      "note": 52,
      "start": 47.901,
      "duration": 0.183,
      "velocity": 122,
      "chip": "ym2612"
    },
    {
      "channel": 0,
      "note": 52,
      "start": 47.9503,
      "duration": 0.1668,
      "velocity": 122,
      "chip": "ym2612"
    },
    {
      "channel": 1,
      "note": 59,
      "start": 47.9506,
      "duration": 0.1667,
      "velocity": 104,
      "chip": "ym2612"
    },
    {
      "channel": 2,
      "note": 54,
      "start": 47.9512,
      "duration": 0.1663,
      "velocity": 97,
      "chip": "ym2612"
    },
    {
      "channel": 3,
      "note": 81,
      "start": 47.9515,
      "duration": 0.3495,
      "velocity": 127,
      "chip": "ym2612"
    },
    {
      "channel": 4,
      "note": 45,
      "start": 47.9529,
      "duration": 0.1651,
      "velocity": 127,
      "chip": "ym2612"
    },
    {
      "channel": 5,
      "note": 52,
      "start": 48.0842,
      "duration": 0.1665,
      "velocity": 122,
      "chip": "ym2612"
    },
    {
      "channel": 0,
      "note": 54,
      "start": 48.1171,
      "duration": 0.0998,
      "velocity": 122,
      "chip": "ym2612"
    },
    {
      "channel": 1,
      "note": 61,
      "start": 48.1173,
      "duration": 0.0997,
      "velocity": 104,
      "chip": "ym2612"
    },
    {
      "channel": 2,
      "note": 49,
      "start": 48.1178,
      "duration": 0.0994,
      "velocity": 97,
      "chip": "ym2612"
    },
    {
      "channel": 4,
      "note": 54,
      "start": 48.1193,
      "duration": 0.3499,
      "velocity": 89,
      "chip": "ym2612"
    },
    {
      "channel": 5,
      "note": 54,
      "start": 48.2507,
      "duration": 0.1001,
      "velocity": 122,
      "chip": "ym2612"
    },
    {
      "channel": 0,
      "note": 66,
      "start": 48.3003,
      "duration": 0.0831,
      "velocity": 122,
      "chip": "ym2612"
    },
    {
      "channel": 1,
      "note": 73,
      "start": 48.3007,
      "duration": 0.0829,
      "velocity": 104,
      "chip": "ym2612"
    },
    {
      "channel": 2,
      "note": 54,
      "start": 48.301,
      "duration": 0.1665,
      "velocity": 97,
      "chip": "ym2612"
    },
    {
      "channel": 3,
      "note": 57,
      "start": 48.3025,
      "duration": 0.0647,
      "velocity": 118,
      "chip": "ym2612"
    },
    {
      "channel": 3,
      "note": 52,
      "start": 48.3677,
      "duration": 0.0493,
      "velocity": 118,
      "chip": "ym2612"
    },
    {
      "channel": 3,
      "note": 45,
      "start": 48.4175,
      "duration": 0.0502,
      "velocity": 118,
      "chip": "ym2612"
    },
    {
      "channel": 5,
      "note": 66,
      "start": 48.4342,
      "duration": 0.0832,
      "velocity": 122,
      "chip": "ym2612"
    },
    {
      "channel": 0,
      "note": 66,
      "start": 48.4671,
      "duration": 0.0998,
      "velocity": 122,
      "chip": "ym2612"
    },
    {
      "channel": 1,
      "note": 73,
      "start": 48.4674,
      "duration": 0.0996,
      "velocity": 104,
      "chip": "ym2612"
    },
    {
      "channel": 2,
      "note": 54,
      "start": 48.4677,
      "duration": 0.183,
      "velocity": 97,
      "chip": "ym2612"
    },
    {
      "channel": 3,
      "note": 45,
      "start": 48.4692,
      "duration": 0.1819,
      "velocity": 127,
      "chip": "ym2612"
    },
    {
      "channel": 5,
      "note": 66,
      "start": 48.6007,
      "duration": 0.1,
      "velocity": 122,
      "chip": "ym2612"
    },
    {
      "channel": 0,
      "note": 66,
      "start": 48.6503,
      "duration": 0.0831,
      "velocity": 122,
      "chip": "ym2612"
    },
    {
      "channel": 1,
      "note": 73,
      "start": 48.6507,
      "duration": 0.0829,
      "velocity": 104,
      "chip": "ym2612"
    },
    {
      "channel": 2,
      "note": 54,
      "start": 48.651,
      "duration": 0.1664,
      "velocity": 97,
      "chip": "ym2612"
    },
    {
      "channel": 3,
      "note": 45,
      "start": 48.6514,
      "duration": 0.1663,
      "velocity": 127,
      "chip": "ym2612"
    },
    {
      "channel": 5,
      "note": 66,
      "start": 48.784,
      "duration": 0.0834,
      "velocity": 122,
      "chip": "ym2612"
    },
    {
      "channel": 0,
      "note": 66,
      "start": 48.817,
      "duration": 0.0831,
      "velocity": 122,
      "chip": "ym2612"
    },
    {
      "channel": 1,
      "note": 73,
      "start": 48.8173,
      "duration": 0.0829,
      "velocity": 104,
      "chip": "ym2612"
    },
    {
      "channel": 2,
      "note": 54,
      "start": 48.8175,
      "duration": 0.1829,
      "velocity": 1,
      "chip": "ym2612"
    },
    {
      "channel": 3,
      "note": 45,
      "start": 48.8181,
      "duration": 0.3487,
      "velocity": 127,
      "chip": "ym2612"
    },
    {
      "channel": 4,
      "note": 81,
      "start": 48.8195,
      "duration": 0.6973,
      "velocity": 127,
      "chip": "ym2612"
    },
    {
      "channel": 5,
      "note": 66,
      "start": 48.951,
      "duration": 0.0827,
      "velocity": 122,
      "chip": "ym2612"
    }
  ]
}