{
  "track_name": "04 - Interlude",
  "duration_sec": 25.793,
  "sample_rate": 44100,
  "note_count": 121,
  "unique_pitches": 16,
  "pitch_range": 26,
  "avg_note_duration": 0.1999,
  "reconstruction_stats": {
    "notes_reconstructed": 121,
    "keyon_events": 121,
    "keyoff_events": 120,
    "orphan_keyons": 1,
    "unique_pitches": 16,
    "pitch_range": 26,
    "avg_duration_sec": 0.1999
  },
  "metadata": {
    "source": "D\\Dinosaurs for Hire\\04 - Interlude.vgm"
  },
  "notes": [
    {
      "channel": 0,
      "note": 48,
      "start": 0.0072,
      "duration": 0.319,
      "velocity": 108,
      "chip": "ym2612"
    },
    {
      "channel": 0,
      "note": 60,
      "start": 0.3366,
      "duration": 0.0412,
      "velocity": 108,
      "chip": "ym2612"
    },
    {
      "channel": 0,
      "note": 48,
      "start": 0.3842,
      "duration": 0.0582,
      "velocity": 108,
      "chip": "ym2612"
    },
    {
      "channel": 0,
      "note": 60,
      "start": 0.4488,
      "duration": 0.0582,
      "velocity": 108,
      "chip": "ym2612"
    },
    {
      "channel": 0,
      "note": 48,
      "start": 0.5145,
      "duration": 0.3244,
      "velocity": 108,
      "chip": "ym2612"
    },
    {
      "channel": 0,
      "note": 60,
      "start": 0.8454,
      "duration": 0.3249,
      "velocity": 108,
      "chip": "ym2612"
    },
    {
      "channel": 0,
      "note": 48,
      "start": 1.5768,
      "duration": 0.0582,
      "velocity": 108,
      "chip": "ym2612"
    },
    {
      "channel": 0,
      "note": 60,
      "start": 1.6414,
      "duration": 0.0582,
      "velocity": 108,
      "chip": "ym2612"
    },
    {
      "channel": 0,
      "note": 48,
      "start": 1.706,
      "duration": 0.0583,
      "velocity": 108,
      "chip": "ym2612"
    },
    {
      "channel": 0,
      "note": 51,
      "start": 1.7707,
      "duration": 0.0583,
      "velocity": 108,
      "chip": "ym2612"
    },
    {
      "channel": 0,
      "note": 63,
      "start": 1.8354,
      "duration": 0.0414,
      "velocity": 108,
      "chip": "ym2612"
    },
    {
      "channel": 0,
      "note": 51,
      "start": 1.8832,
      "duration": 0.0585,
      "velocity": 108,
      "chip": "ym2612"
    },
    {
      "channel": 0,
      "note": 53,
      "start": 1.948,
      "duration": 0.0582,
      "velocity": 108,
      "chip": "ym2612"
    },
    {
      "channel": 0,
      "note": 65,
      "start": 2.0127,
      "duration": 0.0582,
      "velocity": 108,
      "chip": "ym2612"
    },
    {
      "channel": 0,
      "note": 53,
      "start": 2.0773,
      "duration": 0.0582,
      "velocity": 108,
      "chip": "ym2612"
    },
    {
      "channel": 0,
      "note": 48,
      "start": 2.1426,
      "duration": 0.3249,
      "velocity": 108,
      "chip": "ym2612"
    },
    {
      "channel": 0,
      "note": 60,
      "start": 2.4746,
      "duration": 0.0576,
      "velocity": 108,
      "chip": "ym2612"
    },
    {
      "channel": 0,
      "note": 48,
      "start": 2.5385,
      "duration": 0.0582,
      "velocity": 108,
      "chip": "ym2612"
    },
    {
      "channel": 0,
      "note": 60,
      "start": 2.6031,
      "duration": 0.0581,
      "velocity": 108,
      "chip": "ym2612"
    },
    {
      "channel": 0,
      "note": 48,
      "start": 2.6679,
      "duration": 0.3247,
      "velocity": 108,
      "chip": "ym2612"
    },
    {
      "channel": 0,
      "note": 60,
      "start": 2.9994,
      "duration": 0.7081,
      "velocity": 108,
      "chip": "ym2612"
    },
    {
      "channel": 0,
      "note": 48,
      "start": 3.7142,
      "duration": 0.058,
      "velocity": 108,
      "chip": "ym2612"
    },
    {
      "channel": 0,
      "note": 60,
      "start": 3.7786,
      "duration": 0.0583,
      "velocity": 108,
      "chip": "ym2612"
    },
    {
      "channel": 0,
      "note": 48,
      "start": 3.8436,
      "duration": 0.058,
      "velocity": 108,
      "chip": "ym2612"
    },
    {
      "channel": 0,
      "note": 51,
      "start": 3.908,
      "duration": 0.0583,
      "velocity": 108,
      "chip": "ym2612"
    },
    {
      "channel": 0,
      "note": 63,
      "start": 3.9727,
      "duration": 0.0582,
      "velocity": 108,
      "chip": "ym2612"
    },
    {
      "channel": 0,
      "note": 51,
      "start": 4.0374,
      "duration": 0.0583,
      "velocity": 108,
      "chip": "ym2612"
    },
    {
      "channel": 0,
      "note": 50,
      "start": 4.1021,
      "duration": 0.0582,
      "velocity": 108,
      "chip": "ym2612"
    },
    {
      "channel": 0,
      "note": 62,
      "start": 4.1667,
      "duration": 0.0582,
      "velocity": 108,
      "chip": "ym2612"
    },
    {
      "channel": 0,
      "note": 50,
      "start": 4.2316,
      "duration": 0.0578,
      "velocity": 108,
      "chip": "ym2612"
    },
    {
      "channel": 0,
      "note": 46,
      "start": 4.2962,
      "duration": 0.3248,
      "velocity": 108,
      "chip": "ym2612"
    },
    {
      "channel": 0,
      "note": 58,
      "start": 4.6278,
      "duration": 0.0415,
      "velocity": 108,
      "chip": "ym2612"
    },
    {
      "channel": 0,
      "note": 46,
      "start": 4.6757,
      "duration": 0.0582,
      "velocity": 108,
      "chip": "ym2612"
    },
    {
      "channel": 0,
      "note": 58,
      "start": 4.7402,
      "duration": 0.0583,
      "velocity": 108,
      "chip": "ym2612"
    },
    {
      "channel": 0,
      "note": 46,
      "start": 4.8056,
      "duration": 0.3249,
      "velocity": 108,
      "chip": "ym2612"
    },
    {
      "channel": 0,
      "note": 58,
      "start": 5.1373,
      "duration": 0.7247,
      "velocity": 108,
      "chip": "ym2612"
    },
    {
      "channel": 0,
      "note": 55,
      "start": 5.8687,
      "duration": 0.0581,
      "velocity": 108,
      "chip": "ym2612"
    },
    {
      "channel": 0,
      "note": 67,
      "start": 5.9332,
      "duration": 0.0583,
      "velocity": 108,
      "chip": "ym2612"
    },
    {
      "channel": 0,
      "note": 55,
      "start": 5.9979,
      "duration": 0.0581,
      "velocity": 108,
      "chip": "ym2612"
    },
    {
      "channel": 0,
      "note": 58,
      "start": 6.0625,
      "duration": 0.0584,
      "velocity": 108,
      "chip": "ym2612"
    },
    {
      "channel": 0,
      "note": 70,
      "start": 6.1276,
      "duration": 0.0411,
      "velocity": 108,
      "chip": "ym2612"
    },
    {
      "channel": 0,
      "note": 58,
      "start": 6.1751,
      "duration": 0.0583,
      "velocity": 108,
      "chip": "ym2612"
    },
    {
      "channel": 0,
      "note": 55,
      "start": 6.2398,
      "duration": 0.0582,
      "velocity": 108,
      "chip": "ym2612"
    },
    {
      "channel": 0,
      "note": 67,
      "start": 6.3044,
      "duration": 0.0582,
      "velocity": 108,
      "chip": "ym2612"
    },
    {
      "channel": 0,
      "note": 58,
      "start": 6.369,
      "duration": 0.0583,
      "velocity": 108,
      "chip": "ym2612"
    },
    {
      "channel": 0,
      "note": 48,
      "start": 6.4344,
      "duration": 0.3249,
      "velocity": 108,
      "chip": "ym2612"
    },
    {
      "channel": 0,
      "note": 60,
      "start": 6.766,
      "duration": 0.058,
      "velocity": 108,
      "chip": "ym2612"
    },
    {
      "channel": 0,
      "note": 48,
      "start": 6.8305,
      "duration": 0.0582,
      "velocity": 108,
      "chip": "ym2612"
    },
    {
      "channel": 0,
      "note": 72,
      "start": 6.8951,
      "duration": 0.0583,
      "velocity": 108,
      "chip": "ym2612"
    },
    {
      "channel": 0,
      "note": 48,
      "start": 6.9602,
      "duration": 0.3249,
      "velocity": 108,
      "chip": "ym2612"
    },
    {
      "channel": 0,
      "note": 60,
      "start": 7.2919,
      "duration": 0.7082,
      "velocity": 108,
      "chip": "ym2612"
    },
    {
      "channel": 0,
      "note": 48,
      "start": 8.0076,
      "duration": 0.0578,
      "velocity": 108,
      "chip": "ym2612"
    },
    {
      "channel": 0,
      "note": 72,
      "start": 8.0718,
      "duration": 0.0582,
      "velocity": 108,
      "chip": "ym2612"
    },
    {
      "channel": 0,
      "note": 48,
      "start": 8.1364,
      "duration": 0.0581,
      "velocity": 108,
      "chip": "ym2612"
    },
    {
      "channel": 0,
      "note": 46,
      "start": 8.2009,
      "duration": 0.0581,
      "velocity": 108,
      "chip": "ym2612"
    },
    {
      "channel": 0,
      "note": 58,
      "start": 8.2654,
      "duration": 0.0581,
      "velocity": 108,
      "chip": "ym2612"
    },
    {
      "channel": 0,
      "note": 46,
      "start": 8.33,
      "duration": 0.0584,
      "velocity": 108,
      "chip": "ym2612"
    },
    {
      "channel": 0,
      "note": 55,
      "start": 8.3948,
      "duration": 0.0582,
      "velocity": 108,
      "chip": "ym2612"
    },
    {
      "channel": 0,
      "note": 67,
      "start": 8.4594,
      "duration": 0.0582,
      "velocity": 108,
      "chip": "ym2612"
    },
    {
      "channel": 0,
      "note": 55,
      "start": 8.524,
      "duration": 0.0581,
      "velocity": 108,
      "chip": "ym2612"
    },
    {
      "channel": 0,
      "note": 56,
      "start": 8.5899,
      "duration": 0.3251,
      "velocity": 108,
      "chip": "ym2612"
    },
    {
      "channel": 0,
      "note": 56,
      "start": 8.9221,
      "duration": 0.0579,
      "velocity": 108,
      "chip": "ym2612"
    },
    {
      "channel": 0,
      "note": 56,
      "start": 8.9863,
      "duration": 0.0412,
      "velocity": 108,
      "chip": "ym2612"
    },
    {
      "channel": 0,
      "note": 56,
      "start": 9.0339,
      "duration": 0.0582,
      "velocity": 108,
      "chip": "ym2612"
    },
    {
      "channel": 0,
      "note": 56,
      "start": 9.0992,
      "duration": 0.3244,
      "velocity": 108,
      "chip": "ym2612"
    },
    {
      "channel": 0,
      "note": 56,
      "start": 9.4302,
      "duration": 0.325,
      "velocity": 108,
      "chip": "ym2612"
    },
    {
      "channel": 0,
      "note": 58,
      "start": 10.1618,
      "duration": 0.0582,
      "velocity": 108,
      "chip": "ym2612"
    },
    {
      "channel": 0,
      "note": 58,
      "start": 10.2263,
      "duration": 0.0583,
      "velocity": 108,
      "chip": "ym2612"
    },
    {
      "channel": 0,
      "note": 58,
      "start": 10.2911,
      "duration": 0.0582,
      "velocity": 108,
      "chip": "ym2612"
    },
    {
      "channel": 0,
      "note": 60,
      "start": 10.3557,
      "duration": 0.0583,
      "velocity": 108,
      "chip": "ym2612"
    },
    {
      "channel": 0,
      "note": 58,
      "start": 10.4204,
      "duration": 0.0583,
      "velocity": 108,
      "chip": "ym2612"
    },
    {
      "channel": 0,
      "note": 56,
      "start": 10.4854,
      "duration": 0.0415,
      "velocity": 108,
      "chip": "ym2612"
    },
    {
      "channel": 0,
      "note": 55,
      "start": 10.5333,
      "duration": 0.0582,
      "velocity": 108,
      "chip": "ym2612"
    },
    {
      "channel": 0,
      "note": 53,
      "start": 10.5979,
      "duration": 0.0582,
      "velocity": 108,
      "chip": "ym2612"
    },
    {
      "channel": 0,
      "note": 51,
      "start": 10.6625,
      "duration": 0.0583,
      "velocity": 108,
      "chip": "ym2612"
    },
    {
      "channel": 0,
      "note": 56,
      "start": 10.7276,
      "duration": 0.3247,
      "velocity": 108,
      "chip": "ym2612"
    },
    {
      "channel": 0,
      "note": 56,
      "start": 11.0593,
      "duration": 0.0578,
      "velocity": 108,
      "chip": "ym2612"
    },
    {
      "channel": 0,
      "note": 56,
      "start": 11.1234,
      "duration": 0.0583,
      "velocity": 108,
      "chip": "ym2612"
    },
    {
      "channel": 0,
      "note": 56,
      "start": 11.1881,
      "duration": 0.0582,
      "velocity": 108,
      "chip": "ym2612"
    },
    {
      "channel": 0,
      "note": 56,
      "start": 11.253,
      "duration": 0.3247,
      "velocity": 108,
      "chip": "ym2612"
    },
    {
      "channel": 0,
      "note": 56,
      "start": 11.5849,
      "duration": 0.7077,
      "velocity": 108,
      "chip": "ym2612"
    },
    {
      "channel": 0,
      "note": 58,
      "start": 12.2993,
      "duration": 0.0583,
      "velocity": 108,
      "chip": "ym2612"
    },
    {
      "channel": 0,
      "note": 58,
      "start": 12.3639,
      "duration": 0.0584,
      "velocity": 108,
      "chip": "ym2612"
    },
    {
      "channel": 0,
      "note": 47,
      "start": 12.4287,
      "duration": 0.0582,
      "velocity": 108,
      "chip": "ym2612"
    },
    {
      "channel": 0,
      "note": 58,
      "start": 12.4934,
      "duration": 0.0582,
      "velocity": 108,
      "chip": "ym2612"
    },
    {
      "channel": 0,
      "note": 58,
      "start": 12.558,
      "duration": 0.0584,
      "velocity": 108,
      "chip": "ym2612"
    },
    {
      "channel": 0,
      "note": 55,
      "start": 12.6228,
      "duration": 0.0583,
      "velocity": 108,
      "chip": "ym2612"
    },
    {
      "channel": 0,
      "note": 58,
      "start": 12.6875,
      "duration": 0.0583,
      "velocity": 108,
      "chip": "ym2612"
    },
    {
      "channel": 0,
      "note": 63,
      "start": 12.7522,
      "duration": 0.0582,
      "velocity": 108,
      "chip": "ym2612"
    },
    {
      "channel": 0,
      "note": 62,
      "start": 12.8171,
      "duration": 0.0579,
      "velocity": 108,
      "chip": "ym2612"
    },
    {
      "channel": 0,
      "note": 60,
      "start": 12.8817,
      "duration": 0.3247,
      "velocity": 108,
      "chip": "ym2612"
    },
    {
      "channel": 0,
      "note": 48,
      "start": 13.2135,
      "duration": 0.0582,
      "velocity": 108,
      "chip": "ym2612"
    },
    {
      "channel": 0,
      "note": 60,
      "start": 13.2781,
      "duration": 0.0413,
      "velocity": 108,
      "chip": "ym2612"
    },
    {
      "channel": 0,
      "note": 48,
      "start": 13.3258,
      "duration": 0.0583,
      "velocity": 108,
      "chip": "ym2612"
    },
    {
      "channel": 0,
      "note": 60,
      "start": 13.3908,
      "duration": 0.3249,
      "velocity": 108,
      "chip": "ym2612"
    },
    {
      "channel": 0,
      "note": 48,
      "start": 13.7224,
      "duration": 0.7249,
      "velocity": 108,
      "chip": "ym2612"
    },
    {
      "channel": 0,
      "note": 60,
      "start": 14.4541,
      "duration": 0.058,
      "velocity": 108,
      "chip": "ym2612"
    },
    {
      "channel": 0,
      "note": 48,
      "start": 14.5185,
      "duration": 0.0585,
      "velocity": 108,
      "chip": "ym2612"
    },
    {
      "channel": 0,
      "note": 60,
      "start": 14.5834,
      "duration": 0.0583,
      "velocity": 108,
      "chip": "ym2612"
    },
    {
      "channel": 0,
      "note": 58,
      "start": 14.6483,
      "duration": 0.0581,
      "velocity": 108,
      "chip": "ym2612"
    },
    {
      "channel": 0,
      "note": 46,
      "start": 14.7132,
      "duration": 0.0578,
      "velocity": 108,
      "chip": "ym2612"
    },
    {
      "channel": 0,
      "note": 58,
      "start": 14.7774,
      "duration": 0.0413,
      "velocity": 108,
      "chip": "ym2612"
    },
    {
      "channel": 0,
      "note": 63,
      "start": 14.8251,
      "duration": 0.0582,
      "velocity": 108,
      "chip": "ym2612"
    },
    {
      "channel": 0,
      "note": 62,
      "start": 14.8897,
      "duration": 0.0583,
      "velocity": 108,
      "chip": "ym2612"
    },
    {
      "channel": 0,
      "note": 58,
      "start": 14.9544,
      "duration": 0.0582,
      "velocity": 108,
      "chip": "ym2612"
    },
    {
      "channel": 0,
      "note": 48,
      "start": 15.0194,
      "duration": 0.3248,
      "velocity": 108,
      "chip": "ym2612"
    },
    {
      "channel": 0,
      "note": 60,
      "start": 15.351,
      "duration": 0.058,
      "velocity": 108,
      "chip": "ym2612"
    },
    {
      "channel": 0,
      "note": 48,
      "start": 15.4154,
      "duration": 0.0583,
      "velocity": 108,
      "chip": "ym2612"
    },
    {
      "channel": 0,
      "note": 60,
      "start": 15.4802,
      "duration": 0.0584,
      "velocity": 108,
      "chip": "ym2612"
    },
    {
      "channel": 0,
      "note": 48,
      "start": 15.5454,
      "duration": 0.3246,
      "velocity": 108,
      "chip": "ym2612"
    },
    {
      "channel": 0,
      "note": 60,
      "start": 15.8768,
      "duration": 0.7082,
      "velocity": 108,
      "chip": "ym2612"
    },
    {
      "channel": 0,
      "note": 48,
      "start": 16.5921,
      "duration": 0.0577,
      "velocity": 108,
      "chip": "ym2612"
    },
    {
      "channel": 0,
      "note": 60,
      "start": 16.6561,
      "duration": 0.0582,
      "velocity": 108,
      "chip": "ym2612"
    },
    {
      "channel": 0,
      "note": 48,
      "start": 16.7207,
      "duration": 0.0581,
      "velocity": 108,
      "chip": "ym2612"
    },
    {
      "channel": 0,
      "note": 60,
      "start": 16.7853,
      "duration": 0.0582,
      "velocity": 108,
      "chip": "ym2612"
    },
    {
      "channel": 0,
      "note": 48,
      "start": 16.8499,
      "duration": 0.0582,
      "velocity": 108,
      "chip": "ym2612"
    },
    {
      "channel": 0,
      "note": 60,
      "start": 16.9145,
      "duration": 0.0584,
      "velocity": 108,
      "chip": "ym2612"
    },
    {
      "channel": 0,
      "note": 58,
      "start": 16.9793,
      "duration": 0.0581,
      "velocity": 108,
      "chip": "ym2612"
    },
    {
      "channel": 0,
      "note": 46,
      "start": 17.0439,
      "duration": 0.0584,
      "velocity": 108,
      "chip": "ym2612"
    },
    {
      "channel": 0,
      "note": 58,
      "start": 17.1086,
      "duration": 0.0581,
      "velocity": 108,
      "chip": "ym2612"
    },
    {
      "channel": 0,
      "note": 48,
      "start": 17.1782,
      "duration": 8.6147,
      "velocity": 108,
      "chip": "ym2612"
    }
  ]
}