{
  "track_name": "04 - Ukayari Valley",
  "duration_sec": 48.018,
  "sample_rate": 44100,
  "note_count": 609,
  "unique_pitches": 36,
  "pitch_range": 50,
  "avg_note_duration": 0.2317,
  "reconstruction_stats": {
    "notes_reconstructed": 609,
    "keyon_events": 609,
    "keyoff_events": 606,
    "orphan_keyons": 3,
    "unique_pitches": 36,
    "pitch_range": 50,
    "avg_duration_sec": 0.2317
  },
  "metadata": {
    "source": "E\\Earnest Evans\\04 - Ukayari Valley.vgz"
  },
  "notes": [
    {
      "channel": 1,
      "note": 75,
      "start": 0.0226,
      "duration": 0.0176,
      "velocity": 97,
      "chip": "ym2612"
    },
    {
      "channel": 2,
      "note": 71,
      "start": 0.0254,
      "duration": 0.0149,
      "velocity": 97,
      "chip": "ym2612"
    },
    {
      "channel": 3,
      "note": 54,
      "start": 0.0281,
      "duration": 0.0124,
      "velocity": 88,
      "chip": "ym2612"
    },
    {
      "channel": 4,
      "note": 70,
      "start": 0.031,
      "duration": 0.0097,
      "velocity": 97,
      "chip": "ym2612"
    },
    {
      "channel": 1,
      "note": 75,
      "start": 0.0424,
      "duration": 0.0117,
      "velocity": 97,
      "chip": "ym2612"
    },
    {
      "channel": 2,
      "note": 71,
      "start": 0.043,
      "duration": 0.0113,
      "velocity": 97,
      "chip": "ym2612"
    },
    {
      "channel": 3,
      "note": 56,
      "start": 0.0435,
      "duration": 0.0091,
      "velocity": 88,
      "chip": "ym2612"
    },
    {
      "channel": 4,
      "note": 70,
      "start": 0.0441,
      "duration": 0.0105,
      "velocity": 97,
      "chip": "ym2612"
    },
    {
      "channel": 1,
      "note": 75,
      "start": 0.0651,
      "duration": 0.0325,
      "velocity": 97,
      "chip": "ym2612"
    },
    {
      "channel": 2,
      "note": 71,
      "start": 0.0656,
      "duration": 0.0321,
      "velocity": 97,
      "chip": "ym2612"
    },
    {
      "channel": 3,
      "note": 56,
      "start": 0.0661,
      "duration": 0.0408,
      "velocity": 88,
      "chip": "ym2612"
    },
    {
      "channel": 4,
      "note": 70,
      "start": 0.0667,
      "duration": 0.0312,
      "velocity": 97,
      "chip": "ym2612"
    },
    {
      "channel": 1,
      "note": 75,
      "start": 0.1088,
      "duration": 0.0099,
      "velocity": 97,
      "chip": "ym2612"
    },
    {
      "channel": 2,
      "note": 71,
      "start": 0.1093,
      "duration": 0.0095,
      "velocity": 97,
      "chip": "ym2612"
    },
    {
      "channel": 3,
      "note": 54,
      "start": 0.1099,
      "duration": 0.0092,
      "velocity": 88,
      "chip": "ym2612"
    },
    {
      "channel": 4,
      "note": 70,
      "start": 0.1104,
      "duration": 0.0088,
      "velocity": 97,
      "chip": "ym2612"
    },
    {
      "channel": 1,
      "note": 75,
      "start": 0.121,
      "duration": 0.0119,
      "velocity": 97,
      "chip": "ym2612"
    },
    {
      "channel": 2,
      "note": 71,
      "start": 0.1215,
      "duration": 0.0115,
      "velocity": 97,
      "chip": "ym2612"
    },
    {
      "channel": 3,
      "note": 56,
      "start": 0.122,
      "duration": 0.0093,
      "velocity": 88,
      "chip": "ym2612"
    },
    {
      "channel": 4,
      "note": 70,
      "start": 0.1226,
      "duration": 0.0111,
      "velocity": 97,
      "chip": "ym2612"
    },
    {
      "channel": 3,
      "note": 54,
      "start": 0.1335,
      "duration": 0.0468,
      "velocity": 88,
      "chip": "ym2612"
    },
    {
      "channel": 3,
      "note": 56,
      "start": 0.1999,
      "duration": 0.0108,
      "velocity": 88,
      "chip": "ym2612"
    },
    {
      "channel": 3,
      "note": 54,
      "start": 0.2213,
      "duration": 0.0199,
      "velocity": 88,
      "chip": "ym2612"
    },
    {
      "channel": 3,
      "note": 59,
      "start": 0.2432,
      "duration": 0.0195,
      "velocity": 88,
      "chip": "ym2612"
    },
    {
      "channel": 3,
      "note": 61,
      "start": 0.2648,
      "duration": 0.0608,
      "velocity": 88,
      "chip": "ym2612"
    },
    {
      "channel": 1,
      "note": 73,
      "start": 0.3451,
      "duration": 0.0107,
      "velocity": 97,
      "chip": "ym2612"
    },
    {
      "channel": 2,
      "note": 70,
      "start": 0.3457,
      "duration": 0.0102,
      "velocity": 97,
      "chip": "ym2612"
    },
    {
      "channel": 3,
      "note": 54,
      "start": 0.3463,
      "duration": 0.0098,
      "velocity": 88,
      "chip": "ym2612"
    },
    {
      "channel": 4,
      "note": 68,
      "start": 0.347,
      "duration": 0.0093,
      "velocity": 97,
      "chip": "ym2612"
    },
    {
      "channel": 1,
      "note": 73,
      "start": 0.358,
      "duration": 0.0117,
      "velocity": 97,
      "chip": "ym2612"
    },
    {
      "channel": 2,
      "note": 70,
      "start": 0.3586,
      "duration": 0.0113,
      "velocity": 97,
      "chip": "ym2612"
    },
    {
      "channel": 3,
      "note": 56,
      "start": 0.3591,
      "duration": 0.0091,
      "velocity": 88,
      "chip": "ym2612"
    },
    {
      "channel": 4,
      "note": 68,
      "start": 0.3597,
      "duration": 0.0105,
      "velocity": 97,
      "chip": "ym2612"
    },
    {
      "channel": 1,
      "note": 73,
      "start": 0.3806,
      "duration": 0.0339,
      "velocity": 97,
      "chip": "ym2612"
    },
    {
      "channel": 2,
      "note": 70,
      "start": 0.3811,
      "duration": 0.0335,
      "velocity": 97,
      "chip": "ym2612"
    },
    {
      "channel": 3,
      "note": 56,
      "start": 0.3817,
      "duration": 0.0423,
      "velocity": 88,
      "chip": "ym2612"
    },
    {
      "channel": 4,
      "note": 68,
      "start": 0.3822,
      "duration": 0.0327,
      "velocity": 97,
      "chip": "ym2612"
    },
    {
      "channel": 1,
      "note": 73,
      "start": 0.4258,
      "duration": 0.0095,
      "velocity": 97,
      "chip": "ym2612"
    },
    {
      "channel": 2,
      "note": 70,
      "start": 0.4263,
      "duration": 0.0091,
      "velocity": 97,
      "chip": "ym2612"
    },
    {
      "channel": 3,
      "note": 54,
      "start": 0.4268,
      "duration": 0.0087,
      "velocity": 88,
      "chip": "ym2612"
    },
    {
      "channel": 4,
      "note": 68,
      "start": 0.4273,
      "duration": 0.0084,
      "velocity": 97,
      "chip": "ym2612"
    },
    {
      "channel": 1,
      "note": 73,
      "start": 0.4382,
      "duration": 0.0118,
      "velocity": 97,
      "chip": "ym2612"
    },
    {
      "channel": 2,
      "note": 70,
      "start": 0.4388,
      "duration": 0.0114,
      "velocity": 97,
      "chip": "ym2612"
    },
    {
      "channel": 3,
      "note": 56,
      "start": 0.4393,
      "duration": 0.0088,
      "velocity": 88,
      "chip": "ym2612"
    },
    {
      "channel": 4,
      "note": 68,
      "start": 0.4398,
      "duration": 0.011,
      "velocity": 97,
      "chip": "ym2612"
    },
    {
      "channel": 3,
      "note": 54,
      "start": 0.4507,
      "duration": 0.0468,
      "velocity": 88,
      "chip": "ym2612"
    },
    {
      "channel": 3,
      "note": 56,
      "start": 0.5171,
      "duration": 0.011,
      "velocity": 88,
      "chip": "ym2612"
    },
    {
      "channel": 3,
      "note": 54,
      "start": 0.5388,
      "duration": 0.0195,
      "velocity": 88,
      "chip": "ym2612"
    },
    {
      "channel": 3,
      "note": 59,
      "start": 0.5604,
      "duration": 0.0195,
      "velocity": 88,
      "chip": "ym2612"
    },
    {
      "channel": 3,
      "note": 61,
      "start": 0.582,
      "duration": 0.0196,
      "velocity": 88,
      "chip": "ym2612"
    },
    {
      "channel": 1,
      "note": 75,
      "start": 0.6036,
      "duration": 0.0107,
      "velocity": 97,
      "chip": "ym2612"
    },
    {
      "channel": 2,
      "note": 71,
      "start": 0.6042,
      "duration": 0.0102,
      "velocity": 97,
      "chip": "ym2612"
    },
    {
      "channel": 3,
      "note": 54,
      "start": 0.6049,
      "duration": 0.0098,
      "velocity": 88,
      "chip": "ym2612"
    },
    {
      "channel": 4,
      "note": 70,
      "start": 0.6055,
      "duration": 0.0093,
      "velocity": 97,
      "chip": "ym2612"
    },
    {
      "channel": 1,
      "note": 75,
      "start": 0.6166,
      "duration": 0.0121,
      "velocity": 97,
      "chip": "ym2612"
    },
    {
      "channel": 2,
      "note": 71,
      "start": 0.6172,
      "duration": 0.0117,
      "velocity": 97,
      "chip": "ym2612"
    },
    {
      "channel": 3,
      "note": 56,
      "start": 0.6177,
      "duration": 0.0089,
      "velocity": 88,
      "chip": "ym2612"
    },
    {
      "channel": 4,
      "note": 70,
      "start": 0.6183,
      "duration": 0.0109,
      "velocity": 97,
      "chip": "ym2612"
    },
    {
      "channel": 1,
      "note": 75,
      "start": 0.6395,
      "duration": 0.034,
      "velocity": 97,
      "chip": "ym2612"
    },
    {
      "channel": 2,
      "note": 71,
      "start": 0.64,
      "duration": 0.0336,
      "velocity": 97,
      "chip": "ym2612"
    },
    {
      "channel": 3,
      "note": 56,
      "start": 0.6405,
      "duration": 0.0424,
      "velocity": 88,
      "chip": "ym2612"
    },
    {
      "channel": 4,
      "note": 70,
      "start": 0.6411,
      "duration": 0.0328,
      "velocity": 97,
      "chip": "ym2612"
    },
    {
      "channel": 1,
      "note": 75,
      "start": 0.6848,
      "duration": 0.0101,
      "velocity": 97,
      "chip": "ym2612"
    },
    {
      "channel": 2,
      "note": 71,
      "start": 0.6853,
      "duration": 0.0098,
      "velocity": 97,
      "chip": "ym2612"
    },
    {
      "channel": 3,
      "note": 54,
      "start": 0.6858,
      "duration": 0.0094,
      "velocity": 88,
      "chip": "ym2612"
    },
    {
      "channel": 4,
      "note": 70,
      "start": 0.6863,
      "duration": 0.009,
      "velocity": 97,
      "chip": "ym2612"
    },
    {
      "channel": 1,
      "note": 75,
      "start": 0.6972,
      "duration": 0.0119,
      "velocity": 97,
      "chip": "ym2612"
    },
    {
      "channel": 2,
      "note": 71,
      "start": 0.6977,
      "duration": 0.0115,
      "velocity": 97,
      "chip": "ym2612"
    },
    {
      "channel": 3,
      "note": 56,
      "start": 0.6982,
      "duration": 0.0093,
      "velocity": 88,
      "chip": "ym2612"
    },
    {
      "channel": 4,
      "note": 70,
      "start": 0.6988,
      "duration": 0.0111,
      "velocity": 97,
      "chip": "ym2612"
    },
    {
      "channel": 3,
      "note": 54,
      "start": 0.7097,
      "duration": 0.0468,
      "velocity": 88,
      "chip": "ym2612"
    },
    {
      "channel": 3,
      "note": 56,
      "start": 0.7761,
      "duration": 0.011,
      "velocity": 88,
      "chip": "ym2612"
    },
    {
      "channel": 3,
      "note": 54,
      "start": 0.7977,
      "duration": 0.0195,
      "velocity": 88,
      "chip": "ym2612"
    },
    {
      "channel": 3,
      "note": 59,
      "start": 0.8193,
      "duration": 0.0195,
      "velocity": 88,
      "chip": "ym2612"
    },
    {
      "channel": 3,
      "note": 61,
      "start": 0.8409,
      "duration": 0.0611,
      "velocity": 88,
      "chip": "ym2612"
    },
    {
      "channel": 1,
      "note": 73,
      "start": 0.9217,
      "duration": 0.0102,
      "velocity": 97,
      "chip": "ym2612"
    },
    {
      "channel": 2,
      "note": 70,
      "start": 0.9224,
      "duration": 0.0097,
      "velocity": 97,
      "chip": "ym2612"
    },
    {
      "channel": 3,
      "note": 54,
      "start": 0.923,
      "duration": 0.0093,
      "velocity": 88,
      "chip": "ym2612"
    },
    {
      "channel": 4,
      "note": 68,
      "start": 0.9236,
      "duration": 0.0088,
      "velocity": 97,
      "chip": "ym2612"
    },
    {
      "channel": 1,
      "note": 73,
      "start": 0.9342,
      "duration": 0.0121,
      "velocity": 97,
      "chip": "ym2612"
    },
    {
      "channel": 2,
      "note": 70,
      "start": 0.9348,
      "duration": 0.0116,
      "velocity": 97,
      "chip": "ym2612"
    },
    {
      "channel": 3,
      "note": 56,
      "start": 0.9354,
      "duration": 0.0094,
      "velocity": 88,
      "chip": "ym2612"
    },
    {
      "channel": 4,
      "note": 68,
      "start": 0.9359,
      "duration": 0.0108,
      "velocity": 97,
      "chip": "ym2612"
    },
    {
      "channel": 1,
      "note": 73,
      "start": 0.9577,
      "duration": 0.0146,
      "velocity": 97,
      "chip": "ym2612"
    },
    {
      "channel": 2,
      "note": 70,
      "start": 0.9582,
      "duration": 0.0143,
      "velocity": 97,
      "chip": "ym2612"
    },
    {
      "channel": 3,
      "note": 56,
      "start": 0.9587,
      "duration": 0.024,
      "velocity": 88,
      "chip": "ym2612"
    },
    {
      "channel": 4,
      "note": 68,
      "start": 0.9593,
      "duration": 0.0134,
      "velocity": 97,
      "chip": "ym2612"
    },
    {
      "channel": 1,
      "note": 73,
      "start": 0.9859,
      "duration": 0.01,
      "velocity": 97,
      "chip": "ym2612"
    },
    {
      "channel": 2,
      "note": 70,
      "start": 0.9863,
      "duration": 0.0096,
      "velocity": 97,
      "chip": "ym2612"
    },
    {
      "channel": 3,
      "note": 54,
      "start": 0.9869,
      "duration": 0.0092,
      "velocity": 88,
      "chip": "ym2612"
    },
    {
      "channel": 4,
      "note": 68,
      "start": 0.9874,
      "duration": 0.0089,
      "velocity": 97,
      "chip": "ym2612"
    },
    {
      "channel": 1,
      "note": 73,
      "start": 0.9983,
      "duration": 0.0116,
      "velocity": 97,
      "chip": "ym2612"
    },
    {
      "channel": 2,
      "note": 70,
      "start": 0.9988,
      "duration": 0.0112,
      "velocity": 97,
      "chip": "ym2612"
    },
    {
      "channel": 3,
      "note": 56,
      "start": 0.9993,
      "duration": 0.009,
      "velocity": 88,
      "chip": "ym2612"
    },
    {
      "channel": 4,
      "note": 68,
      "start": 0.9998,
      "duration": 0.0108,
      "velocity": 97,
      "chip": "ym2612"
    },
    {
      "channel": 3,
      "note": 54,
      "start": 1.0105,
      "duration": 0.0468,
      "velocity": 88,
      "chip": "ym2612"
    },
    {
      "channel": 1,
      "note": 78,
      "start": 1.0768,
      "duration": 0.0476,
      "velocity": 97,
      "chip": "ym2612"
    },
    {
      "channel": 2,
      "note": 75,
      "start": 1.0773,
      "duration": 0.0473,
      "velocity": 97,
      "chip": "ym2612"
    },
    {
      "channel": 3,
      "note": 56,
      "start": 1.0778,
      "duration": 0.0162,
      "velocity": 88,
      "chip": "ym2612"
    },
    {
      "channel": 4,
      "note": 71,
      "start": 1.0784,
      "duration": 0.0465,
      "velocity": 97,
      "chip": "ym2612"
    },
    {
      "channel": 3,
      "note": 54,
      "start": 1.1049,
      "duration": 0.0198,
      "velocity": 88,
      "chip": "ym2612"
    },
    {
      "channel": 1,
      "note": 80,
      "start": 1.1276,
      "duration": 0.0443,
      "velocity": 97,
      "chip": "ym2612"
    },
    {
      "channel": 2,
      "note": 77,
      "start": 1.1281,
      "duration": 0.0439,
      "velocity": 97,
      "chip": "ym2612"
    },
    {
      "channel": 3,
      "note": 59,
      "start": 1.1286,
      "duration": 0.0215,
      "velocity": 88,
      "chip": "ym2612"
    },
    {
      "channel": 4,
      "note": 73,
      "start": 1.1291,
      "duration": 0.0432,
      "velocity": 97,
      "chip": "ym2612"
    },
    {
      "channel": 3,
      "note": 61,
      "start": 1.1522,
      "duration": 0.02,
      "velocity": 88,
      "chip": "ym2612"
    },
    {
      "channel": 1,
      "note": 75,
      "start": 1.1761,
      "duration": 0.0137,
      "velocity": 97,
      "chip": "ym2612"
    },
    {
      "channel": 2,
      "note": 71,
      "start": 1.1782,
      "duration": 0.0118,
      "velocity": 97,
      "chip": "ym2612"
    },
    {
      "channel": 3,
      "note": 54,
      "start": 1.1788,
      "duration": 0.0113,
      "velocity": 88,
      "chip": "ym2612"
    },
    {
      "channel": 4,
      "note": 70,
      "start": 1.1809,
      "duration": 0.0094,
      "velocity": 97,
      "chip": "ym2612"
    },
    {
      "channel": 1,
      "note": 75,
      "start": 1.1921,
      "duration": 0.0119,
      "velocity": 97,
      "chip": "ym2612"
    },
    {
      "channel": 2,
      "note": 71,
      "start": 1.1927,
      "duration": 0.0115,
      "velocity": 97,
      "chip": "ym2612"
    },
    {
      "channel": 3,
      "note": 56,
      "start": 1.1932,
      "duration": 0.0093,
      "velocity": 88,
      "chip": "ym2612"
    },
    {
      "channel": 4,
      "note": 70,
      "start": 1.1938,
      "duration": 0.0106,
      "velocity": 97,
      "chip": "ym2612"
    },
    {
      "channel": 1,
      "note": 75,
      "start": 1.2147,
      "duration": 0.0295,
      "velocity": 97,
      "chip": "ym2612"
    },
    {
      "channel": 2,
      "note": 71,
      "start": 1.2152,
      "duration": 0.0291,
      "velocity": 97,
      "chip": "ym2612"
    },
    {
      "channel": 3,
      "note": 56,
      "start": 1.2158,
      "duration": 0.0377,
      "velocity": 88,
      "chip": "ym2612"
    },
    {
      "channel": 4,
      "note": 70,
      "start": 1.2163,
      "duration": 0.0283,
      "velocity": 97,
      "chip": "ym2612"
    },
    {
      "channel": 1,
      "note": 75,
      "start": 1.2554,
      "duration": 0.0101,
      "velocity": 97,
      "chip": "ym2612"
    },
    {
      "channel": 2,
      "note": 71,
      "start": 1.2559,
      "duration": 0.0097,
      "velocity": 97,
      "chip": "ym2612"
    },
    {
      "channel": 3,
      "note": 54,
      "start": 1.2564,
      "duration": 0.0094,
      "velocity": 88,
      "chip": "ym2612"
    },
    {
      "channel": 4,
      "note": 70,
      "start": 1.2569,
      "duration": 0.009,
      "velocity": 97,
      "chip": "ym2612"
    },
    {
      "channel": 1,
      "note": 75,
      "start": 1.2678,
      "duration": 0.0119,
      "velocity": 97,
      "chip": "ym2612"
    },
    {
      "channel": 2,
      "note": 71,
      "start": 1.2683,
      "duration": 0.0115,
      "velocity": 97,
      "chip": "ym2612"
    },
    {
      "channel": 3,
      "note": 56,
      "start": 1.2688,
      "duration": 0.0093,
      "velocity": 88,
      "chip": "ym2612"
    },
    {
      "channel": 4,
      "note": 70,
      "start": 1.2693,
      "duration": 0.0111,
      "velocity": 97,
      "chip": "ym2612"
    },
    {
      "channel": 3,
      "note": 54,
      "start": 1.2803,
      "duration": 0.0468,
      "velocity": 88,
      "chip": "ym2612"
    },
    {
      "channel": 3,
      "note": 56,
      "start": 1.3467,
      "duration": 0.0107,
      "velocity": 88,
      "chip": "ym2612"
    },
    {
      "channel": 3,
      "note": 54,
      "start": 1.3676,
      "duration": 0.0203,
      "velocity": 88,
      "chip": "ym2612"
    },
    {
      "channel": 3,
      "note": 59,
      "start": 1.39,
      "duration": 0.0196,
      "velocity": 88,
      "chip": "ym2612"
    },
    {
      "channel": 3,
      "note": 61,
      "start": 1.4116,
      "duration": 0.0611,
      "velocity": 88,
      "chip": "ym2612"
    },
    {
      "channel": 1,
      "note": 73,
      "start": 1.4922,
      "duration": 0.0107,
      "velocity": 97,
      "chip": "ym2612"
    },
    {
      "channel": 2,
      "note": 70,
      "start": 1.4928,
      "duration": 0.0102,
      "velocity": 97,
      "chip": "ym2612"
    },
    {
      "channel": 3,
      "note": 54,
      "start": 1.4934,
      "duration": 0.0097,
      "velocity": 88,
      "chip": "ym2612"
    },
    {
      "channel": 4,
      "note": 68,
      "start": 1.494,
      "duration": 0.0093,
      "velocity": 97,
      "chip": "ym2612"
    },
    {
      "channel": 1,
      "note": 73,
      "start": 1.5051,
      "duration": 0.0119,
      "velocity": 97,
      "chip": "ym2612"
    },
    {
      "channel": 2,
      "note": 70,
      "start": 1.5057,
      "duration": 0.0115,
      "velocity": 97,
      "chip": "ym2612"
    },
    {
      "channel": 3,
      "note": 56,
      "start": 1.5062,
      "duration": 0.0093,
      "velocity": 88,
      "chip": "ym2612"
    },
    {
      "channel": 4,
      "note": 68,
      "start": 1.5068,
      "duration": 0.0106,
      "velocity": 97,
      "chip": "ym2612"
    },
    {
      "channel": 1,
      "note": 73,
      "start": 1.5278,
      "duration": 0.0341,
      "velocity": 97,
      "chip": "ym2612"
    },
    {
      "channel": 2,
      "note": 70,
      "start": 1.5283,
      "duration": 0.0337,
      "velocity": 97,
      "chip": "ym2612"
    },
    {
      "channel": 3,
      "note": 56,
      "start": 1.5288,
      "duration": 0.0419,
      "velocity": 88,
      "chip": "ym2612"
    },
    {
      "channel": 4,
      "note": 68,
      "start": 1.5293,
      "duration": 0.0329,
      "velocity": 97,
      "chip": "ym2612"
    },
    {
      "channel": 1,
      "note": 73,
      "start": 1.573,
      "duration": 0.0097,
      "velocity": 97,
      "chip": "ym2612"
    },
    {
      "channel": 2,
      "note": 70,
      "start": 1.5735,
      "duration": 0.0093,
      "velocity": 97,
      "chip": "ym2612"
    },
    {
      "channel": 3,
      "note": 54,
      "start": 1.5741,
      "duration": 0.009,
      "velocity": 88,
      "chip": "ym2612"
    },
    {
      "channel": 4,
      "note": 68,
      "start": 1.5746,
      "duration": 0.0086,
      "velocity": 97,
      "chip": "ym2612"
    },
    {
      "channel": 1,
      "note": 73,
      "start": 1.5854,
      "duration": 0.0113,
      "velocity": 97,
      "chip": "ym2612"
    },
    {
      "channel": 2,
      "note": 70,
      "start": 1.586,
      "duration": 0.0109,
      "velocity": 97,
      "chip": "ym2612"
    },
    {
      "channel": 3,
      "note": 56,
      "start": 1.5865,
      "duration": 0.0087,
      "velocity": 88,
      "chip": "ym2612"
    },
    {
      "channel": 4,
      "note": 68,
      "start": 1.5871,
      "duration": 0.0105,
      "velocity": 97,
      "chip": "ym2612"
    },
    {
      "channel": 3,
      "note": 54,
      "start": 1.5974,
      "duration": 0.0474,
      "velocity": 88,
      "chip": "ym2612"
    },
    {
      "channel": 3,
      "note": 56,
      "start": 1.6644,
      "duration": 0.0106,
      "velocity": 88,
      "chip": "ym2612"
    },
    {
      "channel": 3,
      "note": 54,
      "start": 1.6857,
      "duration": 0.0193,
      "velocity": 88,
      "chip": "ym2612"
    },
    {
      "channel": 3,
      "note": 59,
      "start": 1.7073,
      "duration": 0.0193,
      "velocity": 88,
      "chip": "ym2612"
    },
    {
      "channel": 3,
      "note": 61,
      "start": 1.7287,
      "duration": 0.0195,
      "velocity": 88,
      "chip": "ym2612"
    },
    {
      "channel": 1,
      "note": 75,
      "start": 1.7502,
      "duration": 0.0102,
      "velocity": 97,
      "chip": "ym2612"
    },
    {
      "channel": 2,
      "note": 71,
      "start": 1.7508,
      "duration": 0.0098,
      "velocity": 97,
      "chip": "ym2612"
    },
    {
      "channel": 3,
      "note": 54,
      "start": 1.7514,
      "duration": 0.0093,
      "velocity": 88,
      "chip": "ym2612"
    },
    {
      "channel": 4,
      "note": 70,
      "start": 1.752,
      "duration": 0.0088,
      "velocity": 97,
      "chip": "ym2612"
    },
    {
      "channel": 1,
      "note": 75,
      "start": 1.7633,
      "duration": 0.0117,
      "velocity": 97,
      "chip": "ym2612"
    },
    {
      "channel": 2,
      "note": 71,
      "start": 1.7639,
      "duration": 0.0113,
      "velocity": 97,
      "chip": "ym2612"
    },
    {
      "channel": 3,
      "note": 56,
      "start": 1.7644,
      "duration": 0.0087,
      "velocity": 88,
      "chip": "ym2612"
    },
    {
      "channel": 4,
      "note": 70,
      "start": 1.7649,
      "duration": 0.0105,
      "velocity": 97,
      "chip": "ym2612"
    },
    {
      "channel": 1,
      "note": 75,
      "start": 1.7854,
      "duration": 0.0345,
      "velocity": 97,
      "chip": "ym2612"
    },
    {
      "channel": 2,
      "note": 71,
      "start": 1.7859,
      "duration": 0.0341,
      "velocity": 97,
      "chip": "ym2612"
    },
    {
      "channel": 3,
      "note": 56,
      "start": 1.7865,
      "duration": 0.0427,
      "velocity": 88,
      "chip": "ym2612"
    },
    {
      "channel": 4,
      "note": 70,
      "start": 1.787,
      "duration": 0.0333,
      "velocity": 97,
      "chip": "ym2612"
    },
    {
      "channel": 1,
      "note": 75,
      "start": 1.8311,
      "duration": 0.0103,
      "velocity": 97,
      "chip": "ym2612"
    },
    {
      "channel": 2,
      "note": 71,
      "start": 1.8316,
      "duration": 0.0099,
      "velocity": 97,
      "chip": "ym2612"
    },
    {
      "channel": 3,
      "note": 54,
      "start": 1.8321,
      "duration": 0.0095,
      "velocity": 88,
      "chip": "ym2612"
    },
    {
      "channel": 4,
      "note": 70,
      "start": 1.8326,
      "duration": 0.0092,
      "velocity": 97,
      "chip": "ym2612"
    },
    {
      "channel": 1,
      "note": 75,
      "start": 1.8436,
      "duration": 0.0116,
      "velocity": 97,
      "chip": "ym2612"
    },
    {
      "channel": 2,
      "note": 71,
      "start": 1.8441,
      "duration": 0.0112,
      "velocity": 97,
      "chip": "ym2612"
    },
    {
      "channel": 3,
      "note": 56,
      "start": 1.8446,
      "duration": 0.009,
      "velocity": 88,
      "chip": "ym2612"
    },
    {
      "channel": 4,
      "note": 70,
      "start": 1.8452,
      "duration": 0.0108,
      "velocity": 97,
      "chip": "ym2612"
    },
    {
      "channel": 3,
      "note": 54,
      "start": 1.8559,
      "duration": 0.047,
      "velocity": 88,
      "chip": "ym2612"
    },
    {
      "channel": 3,
      "note": 56,
      "start": 1.9224,
      "duration": 0.0106,
      "velocity": 88,
      "chip": "ym2612"
    },
    {
      "channel": 3,
      "note": 54,
      "start": 1.9438,
      "duration": 0.0195,
      "velocity": 88,
      "chip": "ym2612"
    },
    {
      "channel": 3,
      "note": 59,
      "start": 1.9654,
      "duration": 0.0188,
      "velocity": 88,
      "chip": "ym2612"
    },
    {
      "channel": 3,
      "note": 61,
      "start": 1.9869,
      "duration": 0.0608,
      "velocity": 88,
      "chip": "ym2612"
    },
    {
      "channel": 1,
      "note": 73,
      "start": 2.0672,
      "duration": 0.0111,
      "velocity": 97,
      "chip": "ym2612"
    },
    {
      "channel": 2,
      "note": 70,
      "start": 2.0679,
      "duration": 0.0106,
      "velocity": 97,
      "chip": "ym2612"
    },
    {
      "channel": 3,
      "note": 54,
      "start": 2.0685,
      "duration": 0.0101,
      "velocity": 88,
      "chip": "ym2612"
    },
    {
      "channel": 4,
      "note": 68,
      "start": 2.0691,
      "duration": 0.0096,
      "velocity": 97,
      "chip": "ym2612"
    },
    {
      "channel": 1,
      "note": 73,
      "start": 2.0806,
      "duration": 0.0119,
      "velocity": 97,
      "chip": "ym2612"
    },
    {
      "channel": 2,
      "note": 70,
      "start": 2.0811,
      "duration": 0.0115,
      "velocity": 97,
      "chip": "ym2612"
    },
    {
      "channel": 3,
      "note": 56,
      "start": 2.0817,
      "duration": 0.0093,
      "velocity": 88,
      "chip": "ym2612"
    },
    {
      "channel": 4,
      "note": 68,
      "start": 2.0822,
      "duration": 0.0106,
      "velocity": 97,
      "chip": "ym2612"
    },
    {
      "channel": 1,
      "note": 73,
      "start": 2.1033,
      "duration": 0.012,
      "velocity": 97,
      "chip": "ym2612"
    },
    {
      "channel": 2,
      "note": 70,
      "start": 2.1038,
      "duration": 0.0116,
      "velocity": 97,
      "chip": "ym2612"
    },
    {
      "channel": 3,
      "note": 56,
      "start": 2.1044,
      "duration": 0.0202,
      "velocity": 88,
      "chip": "ym2612"
    },
    {
      "channel": 4,
      "note": 68,
      "start": 2.1049,
      "duration": 0.0108,
      "velocity": 97,
      "chip": "ym2612"
    },
    {
      "channel": 1,
      "note": 73,
      "start": 2.1279,
      "duration": 0.0102,
      "velocity": 97,
      "chip": "ym2612"
    },
    {
      "channel": 2,
      "note": 70,
      "start": 2.1284,
      "duration": 0.0099,
      "velocity": 97,
      "chip": "ym2612"
    },
    {
      "channel": 3,
      "note": 54,
      "start": 2.1289,
      "duration": 0.0095,
      "velocity": 88,
      "chip": "ym2612"
    },
    {
      "channel": 4,
      "note": 68,
      "start": 2.1294,
      "duration": 0.0091,
      "velocity": 97,
      "chip": "ym2612"
    },
    {
      "channel": 1,
      "note": 73,
      "start": 2.1403,
      "duration": 0.012,
      "velocity": 97,
      "chip": "ym2612"
    },
    {
      "channel": 2,
      "note": 70,
      "start": 2.1409,
      "duration": 0.0116,
      "velocity": 97,
      "chip": "ym2612"
    },
    {
      "channel": 3,
      "note": 56,
      "start": 2.1414,
      "duration": 0.0094,
      "velocity": 88,
      "chip": "ym2612"
    },
    {
      "channel": 4,
      "note": 68,
      "start": 2.1419,
      "duration": 0.0112,
      "velocity": 97,
      "chip": "ym2612"
    },
    {
      "channel": 3,
      "note": 54,
      "start": 2.153,
      "duration": 0.0091,
      "velocity": 88,
      "chip": "ym2612"
    },
    {
      "channel": 1,
      "note": 78,
      "start": 2.164,
      "duration": 0.0485,
      "velocity": 97,
      "chip": "ym2612"
    },
    {
      "channel": 2,
      "note": 75,
      "start": 2.1645,
      "duration": 0.0481,
      "velocity": 97,
      "chip": "ym2612"
    },
    {
      "channel": 3,
      "note": 59,
      "start": 2.1651,
      "duration": 0.0477,
      "velocity": 88,
      "chip": "ym2612"
    },
    {
      "channel": 4,
      "note": 71,
      "start": 2.1656,
      "duration": 0.0473,
      "velocity": 97,
      "chip": "ym2612"
    },
    {
      "channel": 1,
      "note": 80,
      "start": 2.2166,
      "duration": 0.0482,
      "velocity": 97,
      "chip": "ym2612"
    },
    {
      "channel": 2,
      "note": 77,
      "start": 2.2171,
      "duration": 0.0479,
      "velocity": 97,
      "chip": "ym2612"
    },
    {
      "channel": 3,
      "note": 61,
      "start": 2.2176,
      "duration": 0.0475,
      "velocity": 88,
      "chip": "ym2612"
    },
    {
      "channel": 4,
      "note": 73,
      "start": 2.2181,
      "duration": 0.0471,
      "velocity": 97,
      "chip": "ym2612"
    },
    {
      "channel": 1,
      "note": 87,
      "start": 2.2704,
      "duration": 0.088,
      "velocity": 97,
      "chip": "ym2612"
    },
    {
      "channel": 2,
      "note": 83,
      "start": 2.2725,
      "duration": 0.0861,
      "velocity": 97,
      "chip": "ym2612"
    },
    {
      "channel": 3,
      "note": 54,
      "start": 2.2731,
      "duration": 0.0114,
      "velocity": 88,
      "chip": "ym2612"
    },
    {
      "channel": 4,
      "note": 68,
      "start": 2.2752,
      "duration": 0.0168,
      "velocity": 97,
      "chip": "ym2612"
    },
    {
      "channel": 3,
      "note": 56,
      "start": 2.2866,
      "duration": 0.009,
      "velocity": 88,
      "chip": "ym2612"
    },
    {
      "channel": 4,
      "note": 71,
      "start": 2.2939,
      "duration": 0.0159,
      "velocity": 97,
      "chip": "ym2612"
    },
    {
      "channel": 3,
      "note": 56,
      "start": 2.308,
      "duration": 0.0392,
      "velocity": 88,
      "chip": "ym2612"
    },
    {
      "channel": 4,
      "note": 75,
      "start": 2.3119,
      "duration": 0.0355,
      "velocity": 97,
      "chip": "ym2612"
    },
    {
      "channel": 3,
      "note": 54,
      "start": 2.3494,
      "duration": 0.0094,
      "velocity": 88,
      "chip": "ym2612"
    },
    {
      "channel": 4,
      "note": 80,
      "start": 2.3499,
      "duration": 0.2191,
      "velocity": 97,
      "chip": "ym2612"
    },
    {
      "channel": 1,
      "note": 83,
      "start": 2.3606,
      "duration": 0.1224,
      "velocity": 97,
      "chip": "ym2612"
    },
    {
      "channel": 2,
      "note": 80,
      "start": 2.3611,
      "duration": 0.1221,
      "velocity": 97,
      "chip": "ym2612"
    },
    {
      "channel": 3,
      "note": 56,
      "start": 2.3616,
      "duration": 0.0082,
      "velocity": 88,
      "chip": "ym2612"
    },
    {
      "channel": 3,
      "note": 54,
      "start": 2.3725,
      "duration": 0.0486,
      "velocity": 88,
      "chip": "ym2612"
    },
    {
      "channel": 3,
      "note": 56,
      "start": 2.4407,
      "duration": 0.0102,
      "velocity": 88,
      "chip": "ym2612"
    },
    {
      "channel": 3,
      "note": 54,
      "start": 2.4618,
      "duration": 0.0215,
      "velocity": 88,
      "chip": "ym2612"
    },
    {
      "channel": 1,
      "note": 80,
      "start": 2.4854,
      "duration": 0.0832,
      "velocity": 97,
      "chip": "ym2612"
    },
    {
      "channel": 2,
      "note": 75,
      "start": 2.4859,
      "duration": 0.0828,
      "velocity": 97,
      "chip": "ym2612"
    },
    {
      "channel": 3,
      "note": 59,
      "start": 2.4865,
      "duration": 0.0225,
      "velocity": 88,
      "chip": "ym2612"
    },
    {
      "channel": 3,
      "note": 61,
      "start": 2.5114,
      "duration": 0.0574,
      "velocity": 88,
      "chip": "ym2612"
    },
    {
      "channel": 1,
      "note": 85,
      "start": 2.5883,
      "duration": 0.0899,
      "velocity": 97,
      "chip": "ym2612"
    },
    {
      "channel": 2,
      "note": 82,
      "start": 2.5889,
      "duration": 0.0894,
      "velocity": 97,
      "chip": "ym2612"
    },
    {
      "channel": 3,
      "note": 54,
      "start": 2.5895,
      "duration": 0.0098,
      "velocity": 88,
      "chip": "ym2612"
    },
    {
      "channel": 4,
      "note": 78,
      "start": 2.5901,
      "duration": 0.0129,
      "velocity": 97,
      "chip": "ym2612"
    },
    {
      "channel": 3,
      "note": 56,
      "start": 2.6013,
      "duration": 0.0091,
      "velocity": 88,
      "chip": "ym2612"
    },
    {
      "channel": 4,
      "note": 82,
      "start": 2.6052,
      "duration": 0.0121,
      "velocity": 97,
      "chip": "ym2612"
    },
    {
      "channel": 4,
      "note": 85,
      "start": 2.6193,
      "duration": 0.0195,
      "velocity": 97,
      "chip": "ym2612"
    },
    {
      "channel": 3,
      "note": 56,
      "start": 2.6234,
      "duration": 0.0437,
      "velocity": 88,
      "chip": "ym2612"
    },
    {
      "channel": 4,
      "note": 73,
      "start": 2.6584,
      "duration": 0.013,
      "velocity": 97,
      "chip": "ym2612"
    },
    {
      "channel": 3,
      "note": 54,
      "start": 2.6696,
      "duration": 0.0088,
      "velocity": 88,
      "chip": "ym2612"
    },
    {
      "channel": 4,
      "note": 78,
      "start": 2.6734,
      "duration": 0.0137,
      "velocity": 97,
      "chip": "ym2612"
    },
    {
      "channel": 1,
      "note": 78,
      "start": 2.6804,
      "duration": 0.1824,
      "velocity": 97,
      "chip": "ym2612"
    },
    {
      "channel": 2,
      "note": 73,
      "start": 2.6809,
      "duration": 0.182,
      "velocity": 97,
      "chip": "ym2612"
    },
    {
      "channel": 3,
      "note": 56,
      "start": 2.6815,
      "duration": 0.0095,
      "velocity": 88,
      "chip": "ym2612"
    },
    {
      "channel": 4,
      "note": 82,
      "start": 2.6894,
      "duration": 0.0519,
      "velocity": 97,
      "chip": "ym2612"
    },
    {
      "channel": 3,
      "note": 54,
      "start": 2.6931,
      "duration": 0.0481,
      "velocity": 88,
      "chip": "ym2612"
    },
    {
      "channel": 3,
      "note": 56,
      "start": 2.7607,
      "duration": 0.0112,
      "velocity": 88,
      "chip": "ym2612"
    },
    {
      "channel": 4,
      "note": 70,
      "start": 2.7612,
      "duration": 0.0125,
      "velocity": 97,
      "chip": "ym2612"
    },
    {
      "channel": 4,
      "note": 73,
      "start": 2.7758,
      "duration": 0.0129,
      "velocity": 97,
      "chip": "ym2612"
    },
    {
      "channel": 3,
      "note": 54,
      "start": 2.7832,
      "duration": 0.0225,
      "velocity": 88,
      "chip": "ym2612"
    },
    {
      "channel": 4,
      "note": 78,
      "start": 2.7907,
      "duration": 0.0152,
      "velocity": 97,
      "chip": "ym2612"
    },
    {
      "channel": 3,
      "note": 59,
      "start": 2.8083,
      "duration": 0.0277,
      "velocity": 88,
      "chip": "ym2612"
    },
    {
      "channel": 4,
      "note": 66,
      "start": 2.8088,
      "duration": 0.0179,
      "velocity": 97,
      "chip": "ym2612"
    },
    {
      "channel": 4,
      "note": 70,
      "start": 2.829,
      "duration": 0.0169,
      "velocity": 97,
      "chip": "ym2612"
    },
    {
      "channel": 3,
      "note": 61,
      "start": 2.8393,
      "duration": 0.0238,
      "velocity": 88,
      "chip": "ym2612"
    },
    {
      "channel": 4,
      "note": 73,
      "start": 2.8483,
      "duration": 0.0149,
      "velocity": 97,
      "chip": "ym2612"
    },
    {
      "channel": 1,
      "note": 87,
      "start": 2.8689,
      "duration": 0.0898,
      "velocity": 97,
      "chip": "ym2612"
    },
    {
      "channel": 2,
      "note": 83,
      "start": 2.8695,
      "duration": 0.0894,
      "velocity": 97,
      "chip": "ym2612"
    },
    {
      "channel": 3,
      "note": 54,
      "start": 2.8701,
      "duration": 0.0092,
      "velocity": 88,
      "chip": "ym2612"
    },
    {
      "channel": 4,
      "note": 68,
      "start": 2.8707,
      "duration": 0.0161,
      "velocity": 97,
      "chip": "ym2612"
    },
    {
      "channel": 3,
      "note": 56,
      "start": 2.8818,
      "duration": 0.0086,
      "velocity": 88,
      "chip": "ym2612"
    },
    {
      "channel": 4,
      "note": 71,
      "start": 2.8888,
      "duration": 0.0163,
      "velocity": 97,
      "chip": "ym2612"
    },
    {
      "channel": 3,
      "note": 56,
      "start": 2.9029,
      "duration": 0.0448,
      "velocity": 88,
      "chip": "ym2612"
    },
    {
      "channel": 4,
      "note": 75,
      "start": 2.9071,
      "duration": 0.0407,
      "velocity": 97,
      "chip": "ym2612"
    },
    {
      "channel": 3,
      "note": 54,
      "start": 2.9498,
      "duration": 0.0092,
      "velocity": 88,
      "chip": "ym2612"
    },
    {
      "channel": 4,
      "note": 80,
      "start": 2.9503,
      "duration": 0.137,
      "velocity": 97,
      "chip": "ym2612"
    },
    {
      "channel": 1,
      "note": 83,
      "start": 2.9609,
      "duration": 0.126,
      "velocity": 97,
      "chip": "ym2612"
    },
    {
      "channel": 2,
      "note": 80,
      "start": 2.9614,
      "duration": 0.1256,
      "velocity": 97,
      "chip": "ym2612"
    },
    {
      "channel": 3,
      "note": 56,
      "start": 2.9619,
      "duration": 0.0087,
      "velocity": 88,
      "chip": "ym2612"
    },
    {
      "channel": 3,
      "note": 54,
      "start": 2.9729,
      "duration": 0.0484,
      "velocity": 88,
      "chip": "ym2612"
    },
    {
      "channel": 3,
      "note": 56,
      "start": 3.0409,
      "duration": 0.0108,
      "velocity": 88,
      "chip": "ym2612"
    },
    {
      "channel": 3,
      "note": 54,
      "start": 3.0625,
      "duration": 0.0246,
      "velocity": 88,
      "chip": "ym2612"
    },
    {
      "channel": 1,
      "note": 80,
      "start": 3.0891,
      "duration": 0.0833,
      "velocity": 97,
      "chip": "ym2612"
    },
    {
      "channel": 2,
      "note": 75,
      "start": 3.0896,
      "duration": 0.0829,
      "velocity": 97,
      "chip": "ym2612"
    },
    {
      "channel": 3,
      "note": 59,
      "start": 3.0901,
      "duration": 0.0208,
      "velocity": 88,
      "chip": "ym2612"
    },
    {
      "channel": 4,
      "note": 83,
      "start": 3.0907,
      "duration": 0.0822,
      "velocity": 97,
      "chip": "ym2612"
    },
    {
      "channel": 3,
      "note": 61,
      "start": 3.1134,
      "duration": 0.0593,
      "velocity": 88,
      "chip": "ym2612"
    },
    {
      "channel": 1,
      "note": 82,
      "start": 3.1921,
      "duration": 0.0689,
      "velocity": 97,
      "chip": "ym2612"
    },
    {
      "channel": 2,
      "note": 78,
      "start": 3.1927,
      "duration": 0.0684,
      "velocity": 97,
      "chip": "ym2612"
    },
    {
      "channel": 3,
      "note": 54,
      "start": 3.1934,
      "duration": 0.0098,
      "velocity": 88,
      "chip": "ym2612"
    },
    {
      "channel": 4,
      "note": 73,
      "start": 3.194,
      "duration": 0.0674,
      "velocity": 97,
      "chip": "ym2612"
    },
    {
      "channel": 3,
      "note": 56,
      "start": 3.2052,
      "duration": 0.0088,
      "velocity": 88,
      "chip": "ym2612"
    },
    {
      "channel": 3,
      "note": 56,
      "start": 3.2282,
      "duration": 0.0209,
      "velocity": 88,
      "chip": "ym2612"
    },
    {
      "channel": 3,
      "note": 54,
      "start": 3.2526,
      "duration": 0.0087,
      "velocity": 88,
      "chip": "ym2612"
    },
    {
      "channel": 1,
      "note": 90,
      "start": 3.2648,
      "duration": 0.1355,
      "velocity": 97,
      "chip": "ym2612"
    },
    {
      "channel": 2,
      "note": 82,
      "start": 3.2653,
      "duration": 0.1351,
      "velocity": 97,
      "chip": "ym2612"
    },
    {
      "channel": 3,
      "note": 56,
      "start": 3.2658,
      "duration": 0.0104,
      "velocity": 88,
      "chip": "ym2612"
    },
    {
      "channel": 4,
      "note": 66,
      "start": 3.2663,
      "duration": 0.1344,
      "velocity": 97,
      "chip": "ym2612"
    },
    {
      "channel": 3,
      "note": 54,
      "start": 3.2784,
      "duration": 0.0094,
      "velocity": 88,
      "chip": "ym2612"
    },
    {
      "channel": 3,
      "note": 56,
      "start": 3.2904,
      "duration": 0.0111,
      "velocity": 88,
      "chip": "ym2612"
    },
    {
      "channel": 3,
      "note": 54,
      "start": 3.3125,
      "duration": 0.0202,
      "velocity": 88,
      "chip": "ym2612"
    },
    {
      "channel": 3,
      "note": 59,
      "start": 3.3354,
      "duration": 0.0304,
      "velocity": 88,
      "chip": "ym2612"
    },
    {
      "channel": 3,
      "note": 61,
      "start": 3.37,
      "duration": 0.0305,
      "velocity": 88,
      "chip": "ym2612"
    },
    {
      "channel": 1,
      "note": 87,
      "start": 3.4044,
      "duration": 0.0895,
      "velocity": 97,
      "chip": "ym2612"
    },
    {
      "channel": 2,
      "note": 83,
      "start": 3.4051,
      "duration": 0.0891,
      "velocity": 97,
      "chip": "ym2612"
    },
    {
      "channel": 3,
      "note": 54,
      "start": 3.4057,
      "duration": 0.0096,
      "velocity": 88,
      "chip": "ym2612"
    },
    {
      "channel": 4,
      "note": 68,
      "start": 3.4063,
      "duration": 0.016,
      "velocity": 97,
      "chip": "ym2612"
    },
    {
      "channel": 3,
      "note": 56,
      "start": 3.4173,
      "duration": 0.0093,
      "velocity": 88,
      "chip": "ym2612"
    },
    {
      "channel": 4,
      "note": 71,
      "start": 3.425,
      "duration": 0.0156,
      "velocity": 97,
      "chip": "ym2612"
    },
    {
      "channel": 3,
      "note": 56,
      "start": 3.4388,
      "duration": 0.0445,
      "velocity": 88,
      "chip": "ym2612"
    },
    {
      "channel": 4,
      "note": 75,
      "start": 3.4427,
      "duration": 0.0408,
      "velocity": 97,
      "chip": "ym2612"
    },
    {
      "channel": 3,
      "note": 54,
      "start": 3.4855,
      "duration": 0.0088,
      "velocity": 88,
      "chip": "ym2612"
    },
    {
      "channel": 4,
      "note": 80,
      "start": 3.486,
      "duration": 0.2187,
      "velocity": 97,
      "chip": "ym2612"
    },
    {
      "channel": 1,
      "note": 83,
      "start": 3.4967,
      "duration": 0.1218,
      "velocity": 97,
      "chip": "ym2612"
    },
    {
      "channel": 2,
      "note": 80,
      "start": 3.4973,
      "duration": 0.1214,
      "velocity": 97,
      "chip": "ym2612"
    },
    {
      "channel": 3,
      "note": 56,
      "start": 3.4978,
      "duration": 0.0084,
      "velocity": 88,
      "chip": "ym2612"
    },
    {
      "channel": 3,
      "note": 54,
      "start": 3.5086,
      "duration": 0.0484,
      "velocity": 88,
      "chip": "ym2612"
    },
    {
      "channel": 3,
      "note": 56,
      "start": 3.5766,
      "duration": 0.011,
      "velocity": 88,
      "chip": "ym2612"
    },
    {
      "channel": 3,
      "note": 54,
      "start": 3.5982,
      "duration": 0.0207,
      "velocity": 88,
      "chip": "ym2612"
    },
    {
      "channel": 1,
      "note": 80,
      "start": 3.621,
      "duration": 0.0833,
      "velocity": 97,
      "chip": "ym2612"
    },
    {
      "channel": 2,
      "note": 75,
      "start": 3.6215,
      "duration": 0.0829,
      "velocity": 97,
      "chip": "ym2612"
    },
    {
      "channel": 3,
      "note": 59,
      "start": 3.622,
      "duration": 0.0228,
      "velocity": 88,
      "chip": "ym2612"
    },
    {
      "channel": 3,
      "note": 61,
      "start": 3.647,
      "duration": 0.0576,
      "velocity": 88,
      "chip": "ym2612"
    },
    {
      "channel": 1,
      "note": 85,
      "start": 3.7239,
      "duration": 0.0907,
      "velocity": 97,
      "chip": "ym2612"
    },
    {
      "channel": 2,
      "note": 82,
      "start": 3.7246,
      "duration": 0.0902,
      "velocity": 97,
      "chip": "ym2612"
    },
    {
      "channel": 3,
      "note": 54,
      "start": 3.7252,
      "duration": 0.0096,
      "velocity": 88,
      "chip": "ym2612"
    },
    {
      "channel": 4,
      "note": 78,
      "start": 3.7258,
      "duration": 0.0128,
      "velocity": 97,
      "chip": "ym2612"
    },
    {
      "channel": 3,
      "note": 56,
      "start": 3.7368,
      "duration": 0.0093,
      "velocity": 88,
      "chip": "ym2612"
    },
    {
      "channel": 4,
      "note": 82,
      "start": 3.7409,
      "duration": 0.0119,
      "velocity": 97,
      "chip": "ym2612"
    },
    {
      "channel": 4,
      "note": 85,
      "start": 3.7548,
      "duration": 0.0198,
      "velocity": 97,
      "chip": "ym2612"
    },
    {
      "channel": 3,
      "note": 56,
      "start": 3.7589,
      "duration": 0.0444,
      "velocity": 88,
      "chip": "ym2612"
    },
    {
      "channel": 4,
      "note": 73,
      "start": 3.7948,
      "duration": 0.0129,
      "velocity": 97,
      "chip": "ym2612"
    },
    {
      "channel": 3,
      "note": 54,
      "start": 3.8053,
      "duration": 0.0096,
      "velocity": 88,
      "chip": "ym2612"
    },
    {
      "channel": 4,
      "note": 78,
      "start": 3.8098,
      "duration": 0.0138,
      "velocity": 97,
      "chip": "ym2612"
    },
    {
      "channel": 1,
      "note": 78,
      "start": 3.8168,
      "duration": 0.1812,
      "velocity": 97,
      "chip": "ym2612"
    },
    {
      "channel": 2,
      "note": 73,
      "start": 3.8174,
      "duration": 0.1808,
      "velocity": 97,
      "chip": "ym2612"
    },
    {
      "channel": 3,
      "note": 56,
      "start": 3.8179,
      "duration": 0.0093,
      "velocity": 88,
      "chip": "ym2612"
    },
    {
      "channel": 4,
      "note": 82,
      "start": 3.8256,
      "duration": 0.0513,
      "velocity": 97,
      "chip": "ym2612"
    },
    {
      "channel": 3,
      "note": 54,
      "start": 3.8293,
      "duration": 0.0475,
      "velocity": 88,
      "chip": "ym2612"
    },
    {
      "channel": 3,
      "note": 56,
      "start": 3.8963,
      "duration": 0.0112,
      "velocity": 88,
      "chip": "ym2612"
    },
    {
      "channel": 4,
      "note": 70,
      "start": 3.8969,
      "duration": 0.0124,
      "velocity": 97,
      "chip": "ym2612"
    },
    {
      "channel": 4,
      "note": 73,
      "start": 3.9114,
      "duration": 0.0125,
      "velocity": 97,
      "chip": "ym2612"
    },
    {
      "channel": 3,
      "note": 54,
      "start": 3.9188,
      "duration": 0.0223,
      "velocity": 88,
      "chip": "ym2612"
    },
    {
      "channel": 4,
      "note": 78,
      "start": 3.9265,
      "duration": 0.0148,
      "velocity": 97,
      "chip": "ym2612"
    },
    {
      "channel": 3,
      "note": 59,
      "start": 3.9436,
      "duration": 0.0274,
      "velocity": 88,
      "chip": "ym2612"
    },
    {
      "channel": 4,
      "note": 66,
      "start": 3.9441,
      "duration": 0.0178,
      "velocity": 97,
      "chip": "ym2612"
    },
    {
      "channel": 4,
      "note": 70,
      "start": 3.9644,
      "duration": 0.0167,
      "velocity": 97,
      "chip": "ym2612"
    },
    {
      "channel": 3,
      "note": 61,
      "start": 3.9744,
      "duration": 0.0239,
      "velocity": 88,
      "chip": "ym2612"
    },
    {
      "channel": 4,
      "note": 73,
      "start": 3.9834,
      "duration": 0.0151,
      "velocity": 97,
      "chip": "ym2612"
    },
    {
      "channel": 1,
      "note": 87,
      "start": 4.0039,
      "duration": 0.09,
      "velocity": 97,
      "chip": "ym2612"
    },
    {
      "channel": 2,
      "note": 83,
      "start": 4.0046,
      "duration": 0.0895,
      "velocity": 97,
      "chip": "ym2612"
    },
    {
      "channel": 3,
      "note": 54,
      "start": 4.0052,
      "duration": 0.0091,
      "velocity": 88,
      "chip": "ym2612"
    },
    {
      "channel": 4,
      "note": 68,
      "start": 4.0058,
      "duration": 0.0162,
      "velocity": 97,
      "chip": "ym2612"
    },
    {
      "channel": 3,
      "note": 56,
      "start": 4.0164,
      "duration": 0.0093,
      "velocity": 88,
      "chip": "ym2612"
    },
    {
      "channel": 4,
      "note": 71,
      "start": 4.0241,
      "duration": 0.0156,
      "velocity": 97,
      "chip": "ym2612"
    },
    {
      "channel": 3,
      "note": 56,
      "start": 4.0379,
      "duration": 0.0448,
      "velocity": 88,
      "chip": "ym2612"
    },
    {
      "channel": 4,
      "note": 75,
      "start": 4.0424,
      "duration": 0.0405,
      "velocity": 97,
      "chip": "ym2612"
    },
    {
      "channel": 3,
      "note": 54,
      "start": 4.0848,
      "duration": 0.0094,
      "velocity": 88,
      "chip": "ym2612"
    },
    {
      "channel": 4,
      "note": 80,
      "start": 4.0854,
      "duration": 0.1363,
      "velocity": 97,
      "chip": "ym2612"
    },
    {
      "channel": 1,
      "note": 83,
      "start": 4.0963,
      "duration": 0.1249,
      "velocity": 97,
      "chip": "ym2612"
    },
    {
      "channel": 2,
      "note": 80,
      "start": 4.0968,
      "duration": 0.1246,
      "velocity": 97,
      "chip": "ym2612"
    },
    {
      "channel": 3,
      "note": 56,
      "start": 4.0973,
      "duration": 0.0087,
      "velocity": 88,
      "chip": "ym2612"
    },
    {
      "channel": 3,
      "note": 54,
      "start": 4.108,
      "duration": 0.0485,
      "velocity": 88,
      "chip": "ym2612"
    },
    {
      "channel": 3,
      "note": 56,
      "start": 4.1761,
      "duration": 0.0108,
      "velocity": 88,
      "chip": "ym2612"
    },
    {
      "channel": 3,
      "note": 54,
      "start": 4.1975,
      "duration": 0.0241,
      "velocity": 88,
      "chip": "ym2612"
    },
    {
      "channel": 1,
      "note": 80,
      "start": 4.2241,
      "duration": 0.0836,
      "velocity": 97,
      "chip": "ym2612"
    },
    {
      "channel": 2,
      "note": 75,
      "start": 4.2247,
      "duration": 0.0832,
      "velocity": 97,
      "chip": "ym2612"
    },
    {
      "channel": 3,
      "note": 59,
      "start": 4.2252,
      "duration": 0.0205,
      "velocity": 88,
      "chip": "ym2612"
    },
    {
      "channel": 4,
      "note": 83,
      "start": 4.2257,
      "duration": 0.0825,
      "velocity": 97,
      "chip": "ym2612"
    },
    {
      "channel": 3,
      "note": 61,
      "start": 4.2477,
      "duration": 0.0604,
      "velocity": 88,
      "chip": "ym2612"
    },
    {
      "channel": 1,
      "note": 82,
      "start": 4.3275,
      "duration": 0.0694,
      "velocity": 97,
      "chip": "ym2612"
    },
    {
      "channel": 2,
      "note": 78,
      "start": 4.3281,
      "duration": 0.0689,
      "velocity": 97,
      "chip": "ym2612"
    },
    {
      "channel": 3,
      "note": 54,
      "start": 4.3287,
      "duration": 0.0099,
      "velocity": 88,
      "chip": "ym2612"
    },
    {
      "channel": 4,
      "note": 73,
      "start": 4.3293,
      "duration": 0.068,
      "velocity": 97,
      "chip": "ym2612"
    },
    {
      "channel": 3,
      "note": 56,
      "start": 4.3407,
      "duration": 0.0085,
      "velocity": 88,
      "chip": "ym2612"
    },
    {
      "channel": 3,
      "note": 56,
      "start": 4.3637,
      "duration": 0.0209,
      "velocity": 88,
      "chip": "ym2612"
    },
    {
      "channel": 3,
      "note": 54,
      "start": 4.388,
      "duration": 0.0092,
      "velocity": 88,
      "chip": "ym2612"
    },
    {
      "channel": 1,
      "note": 90,
      "start": 4.4008,
      "duration": 0.1204,
      "velocity": 97,
      "chip": "ym2612"
    },
    {
      "channel": 2,
      "note": 82,
      "start": 4.4013,
      "duration": 0.022,
      "velocity": 97,
      "chip": "ym2612"
    },
    {
      "channel": 3,
      "note": 56,
      "start": 4.4018,
      "duration": 0.0103,
      "velocity": 88,
      "chip": "ym2612"
    },
    {
      "channel": 4,
      "note": 66,
      "start": 4.4024,
      "duration": 0.0212,
      "velocity": 97,
      "chip": "ym2612"
    },
    {
      "channel": 3,
      "note": 54,
      "start": 4.4143,
      "duration": 0.0092,
      "velocity": 88,
      "chip": "ym2612"
    },
    {
      "channel": 2,
      "note": 75,
      "start": 4.4263,
      "duration": 0.0415,
      "velocity": 97,
      "chip": "ym2612"
    },
    {
      "channel": 3,
      "note": 59,
      "start": 4.4268,
      "duration": 0.0411,
      "velocity": 88,
      "chip": "ym2612"
    },
    {
      "channel": 4,
      "note": 78,
      "start": 4.4273,
      "duration": 0.0407,
      "velocity": 97,
      "chip": "ym2612"
    },
    {
      "channel": 2,
      "note": 77,
      "start": 4.4705,
      "duration": 0.0509,
      "velocity": 97,
      "chip": "ym2612"
    },
    {
      "channel": 3,
      "note": 61,
      "start": 4.471,
      "duration": 0.0505,
      "velocity": 88,
      "chip": "ym2612"
    },
    {
      "channel": 4,
      "note": 80,
      "start": 4.4715,
      "duration": 0.0502,
      "velocity": 97,
      "chip": "ym2612"
    },
    {
      "channel": 1,
      "note": 82,
      "start": 4.5256,
      "duration": 0.0185,
      "velocity": 100,
      "chip": "ym2612"
    },
    {
      "channel": 2,
      "note": 78,
      "start": 4.5277,
      "duration": 0.0166,
      "velocity": 100,
      "chip": "ym2612"
    },
    {
      "channel": 3,
      "note": 51,
      "start": 4.5283,
      "duration": 0.0139,
      "velocity": 88,
      "chip": "ym2612"
    },
    {
      "channel": 4,
      "note": 75,
      "start": 4.5304,
      "duration": 0.0141,
      "velocity": 100,
      "chip": "ym2612"
    },
    {
      "channel": 3,
      "note": 51,
      "start": 4.5579,
      "duration": 0.0129,
      "velocity": 88,
      "chip": "ym2612"
    },
    {
      "channel": 3,
      "note": 51,
      "start": 4.5888,
      "duration": 0.0098,
      "velocity": 88,
      "chip": "ym2612"
    },
    {
      "channel": 1,
      "note": 82,
      "start": 4.615,
      "duration": 0.0141,
      "velocity": 100,
      "chip": "ym2612"
    },
    {
      "channel": 2,
      "note": 78,
      "start": 4.6155,
      "duration": 0.0137,
      "velocity": 100,
      "chip": "ym2612"
    },
    {
      "channel": 3,
      "note": 51,
      "start": 4.6161,
      "duration": 0.0111,
      "velocity": 88,
      "chip": "ym2612"
    },
    {
      "channel": 4,
      "note": 75,
      "start": 4.6166,
      "duration": 0.0133,
      "velocity": 100,
      "chip": "ym2612"
    },
    {
      "channel": 3,
      "note": 51,
      "start": 4.6298,
      "duration": 0.0115,
      "velocity": 88,
      "chip": "ym2612"
    },
    {
      "channel": 3,
      "note": 51,
      "start": 4.6595,
      "duration": 0.0117,
      "velocity": 88,
      "chip": "ym2612"
    },
    {
      "channel": 3,
      "note": 51,
      "start": 4.6737,
      "duration": 0.0111,
      "velocity": 88,
      "chip": "ym2612"
    },
    {
      "channel": 3,
      "note": 51,
      "start": 4.704,
      "duration": 0.0115,
      "velocity": 88,
      "chip": "ym2612"
    },
    {
      "channel": 1,
      "note": 82,
      "start": 4.7331,
      "duration": 0.0137,
      "velocity": 100,
      "chip": "ym2612"
    },
    {
      "channel": 2,
      "note": 78,
      "start": 4.7337,
      "duration": 0.0133,
      "velocity": 100,
      "chip": "ym2612"
    },
    {
      "channel": 3,
      "note": 51,
      "start": 4.7342,
      "duration": 0.0129,
      "velocity": 88,
      "chip": "ym2612"
    },
    {
      "channel": 4,
      "note": 75,
      "start": 4.7347,
      "duration": 0.0125,
      "velocity": 100,
      "chip": "ym2612"
    },
    {
      "channel": 1,
      "note": 82,
      "start": 4.7496,
      "duration": 0.0127,
      "velocity": 100,
      "chip": "ym2612"
    },
    {
      "channel": 2,
      "note": 78,
      "start": 4.7501,
      "duration": 0.0123,
      "velocity": 100,
      "chip": "ym2612"
    },
    {
      "channel": 4,
      "note": 75,
      "start": 4.7507,
      "duration": 0.012,
      "velocity": 100,
      "chip": "ym2612"
    },
    {
      "channel": 1,
      "note": 80,
      "start": 4.7671,
      "duration": 0.0155,
      "velocity": 100,
      "chip": "ym2612"
    },
    {
      "channel": 2,
      "note": 77,
      "start": 4.7677,
      "duration": 0.015,
      "velocity": 100,
      "chip": "ym2612"
    },
    {
      "channel": 3,
      "note": 51,
      "start": 4.7684,
      "duration": 0.0123,
      "velocity": 88,
      "chip": "ym2612"
    },
    {
      "channel": 4,
      "note": 73,
      "start": 4.769,
      "duration": 0.014,
      "velocity": 100,
      "chip": "ym2612"
    },
    {
      "channel": 3,
      "note": 51,
      "start": 4.7967,
      "duration": 0.012,
      "velocity": 88,
      "chip": "ym2612"
    },
    {
      "channel": 3,
      "note": 51,
      "start": 4.8278,
      "duration": 0.0112,
      "velocity": 88,
      "chip": "ym2612"
    },
    {
      "channel": 1,
      "note": 80,
      "start": 4.8534,
      "duration": 0.0151,
      "velocity": 100,
      "chip": "ym2612"
    },
    {
      "channel": 2,
      "note": 77,
      "start": 4.854,
      "duration": 0.0147,
      "velocity": 100,
      "chip": "ym2612"
    },
    {
      "channel": 3,
      "note": 51,
      "start": 4.8545,
      "duration": 0.012,
      "velocity": 88,
      "chip": "ym2612"
    },
    {
      "channel": 4,
      "note": 73,
      "start": 4.8551,
      "duration": 0.0142,
      "velocity": 100,
      "chip": "ym2612"
    },
    {
      "channel": 3,
      "note": 51,
      "start": 4.8692,
      "duration": 0.0113,
      "velocity": 88,
      "chip": "ym2612"
    },
    {
      "channel": 3,
      "note": 51,
      "start": 4.898,
      "duration": 0.0117,
      "velocity": 88,
      "chip": "ym2612"
    },
    {
      "channel": 3,
      "note": 51,
      "start": 4.9121,
      "duration": 0.0112,
      "velocity": 88,
      "chip": "ym2612"
    },
    {
      "channel": 3,
      "note": 51,
      "start": 4.9426,
      "duration": 0.0115,
      "velocity": 88,
      "chip": "ym2612"
    },
    {
      "channel": 1,
      "note": 80,
      "start": 4.972,
      "duration": 0.0126,
      "velocity": 100,
      "chip": "ym2612"
    },
    {
      "channel": 2,
      "note": 77,
      "start": 4.9725,
      "duration": 0.0122,
      "velocity": 100,
      "chip": "ym2612"
    },
    {
      "channel": 3,
      "note": 51,
      "start": 4.973,
      "duration": 0.0119,
      "velocity": 88,
      "chip": "ym2612"
    },
    {
      "channel": 4,
      "note": 73,
      "start": 4.9736,
      "duration": 0.0115,
      "velocity": 100,
      "chip": "ym2612"
    },
    {
      "channel": 1,
      "note": 80,
      "start": 4.9883,
      "duration": 0.0119,
      "velocity": 100,
      "chip": "ym2612"
    },
    {
      "channel": 2,
      "note": 77,
      "start": 4.9888,
      "duration": 0.0115,
      "velocity": 100,
      "chip": "ym2612"
    },
    {
      "channel": 4,
      "note": 73,
      "start": 4.9894,
      "duration": 0.0111,
      "velocity": 100,
      "chip": "ym2612"
    },
    {
      "channel": 1,
      "note": 78,
      "start": 5.0061,
      "duration": 0.0135,
      "velocity": 100,
      "chip": "ym2612"
    },
    {
      "channel": 2,
      "note": 75,
      "start": 5.0068,
      "duration": 0.013,
      "velocity": 100,
      "chip": "ym2612"
    },
    {
      "channel": 3,
      "note": 51,
      "start": 5.0074,
      "duration": 0.0125,
      "velocity": 88,
      "chip": "ym2612"
    },
    {
      "channel": 4,
      "note": 71,
      "start": 5.008,
      "duration": 0.0121,
      "velocity": 100,
      "chip": "ym2612"
    },
    {
      "channel": 3,
      "note": 51,
      "start": 5.0355,
      "duration": 0.0131,
      "velocity": 88,
      "chip": "ym2612"
    },
    {
      "channel": 3,
      "note": 51,
      "start": 5.0667,
      "duration": 0.011,
      "velocity": 88,
      "chip": "ym2612"
    },
    {
      "channel": 1,
      "note": 78,
      "start": 5.0922,
      "duration": 0.0129,
      "velocity": 100,
      "chip": "ym2612"
    },
    {
      "channel": 2,
      "note": 75,
      "start": 5.0927,
      "duration": 0.0126,
      "velocity": 100,
      "chip": "ym2612"
    },
    {
      "channel": 3,
      "note": 51,
      "start": 5.0933,
      "duration": 0.0122,
      "velocity": 88,
      "chip": "ym2612"
    },
    {
      "channel": 4,
      "note": 71,
      "start": 5.0938,
      "duration": 0.0117,
      "velocity": 100,
      "chip": "ym2612"
    },
    {
      "channel": 3,
      "note": 51,
      "start": 5.1079,
      "duration": 0.0113,
      "velocity": 88,
      "chip": "ym2612"
    },
    {
      "channel": 3,
      "note": 51,
      "start": 5.1368,
      "duration": 0.0116,
      "velocity": 88,
      "chip": "ym2612"
    },
    {
      "channel": 3,
      "note": 51,
      "start": 5.1508,
      "duration": 0.0102,
      "velocity": 88,
      "chip": "ym2612"
    },
    {
      "channel": 3,
      "note": 51,
      "start": 5.1824,
      "duration": 0.0105,
      "velocity": 88,
      "chip": "ym2612"
    },
    {
      "channel": 1,
      "note": 78,
      "start": 5.2109,
      "duration": 0.0136,
      "velocity": 100,
      "chip": "ym2612"
    },
    {
      "channel": 2,
      "note": 75,
      "start": 5.2115,
      "duration": 0.0132,
      "velocity": 100,
      "chip": "ym2612"
    },
    {
      "channel": 3,
      "note": 51,
      "start": 5.212,
      "duration": 0.0129,
      "velocity": 88,
      "chip": "ym2612"
    },
    {
      "channel": 4,
      "note": 71,
      "start": 5.2125,
      "duration": 0.0125,
      "velocity": 100,
      "chip": "ym2612"
    },
    {
      "channel": 1,
      "note": 78,
      "start": 5.2273,
      "duration": 0.0129,
      "velocity": 100,
      "chip": "ym2612"
    },
    {
      "channel": 2,
      "note": 75,
      "start": 5.2278,
      "duration": 0.0125,
      "velocity": 100,
      "chip": "ym2612"
    },
    {
      "channel": 4,
      "note": 71,
      "start": 5.2285,
      "duration": 0.0121,
      "velocity": 100,
      "chip": "ym2612"
    },
    {
      "channel": 1,
      "note": 77,
      "start": 5.2452,
      "duration": 0.0131,
      "velocity": 100,
      "chip": "ym2612"
    },
    {
      "channel": 2,
      "note": 73,
      "start": 5.2458,
      "duration": 0.0126,
      "velocity": 100,
      "chip": "ym2612"
    },
    {
      "channel": 3,
      "note": 51,
      "start": 5.2464,
      "duration": 0.0121,
      "velocity": 88,
      "chip": "ym2612"
    },
    {
      "channel": 4,
      "note": 70,
      "start": 5.247,
      "duration": 0.0117,
      "velocity": 100,
      "chip": "ym2612"
    },
    {
      "channel": 3,
      "note": 51,
      "start": 5.2742,
      "duration": 0.0128,
      "velocity": 88,
      "chip": "ym2612"
    },
    {
      "channel": 3,
      "note": 51,
      "start": 5.3049,
      "duration": 0.0111,
      "velocity": 88,
      "chip": "ym2612"
    },
    {
      "channel": 1,
      "note": 77,
      "start": 5.3302,
      "duration": 0.0121,
      "velocity": 100,
      "chip": "ym2612"
    },
    {
      "channel": 2,
      "note": 73,
      "start": 5.3307,
      "duration": 0.0117,
      "velocity": 100,
      "chip": "ym2612"
    },
    {
      "channel": 3,
      "note": 51,
      "start": 5.3312,
      "duration": 0.0113,
      "velocity": 88,
      "chip": "ym2612"
    },
    {
      "channel": 4,
      "note": 70,
      "start": 5.3318,
      "duration": 0.0109,
      "velocity": 100,
      "chip": "ym2612"
    },
    {
      "channel": 3,
      "note": 51,
      "start": 5.3461,
      "duration": 0.0102,
      "velocity": 88,
      "chip": "ym2612"
    },
    {
      "channel": 3,
      "note": 51,
      "start": 5.3752,
      "duration": 0.0115,
      "velocity": 88,
      "chip": "ym2612"
    },
    {
      "channel": 3,
      "note": 51,
      "start": 5.3892,
      "duration": 0.0111,
      "velocity": 88,
      "chip": "ym2612"
    },
    {
      "channel": 3,
      "note": 51,
      "start": 5.4197,
      "duration": 0.0115,
      "velocity": 88,
      "chip": "ym2612"
    },
    {
      "channel": 1,
      "note": 77,
      "start": 5.4516,
      "duration": 0.0285,
      "velocity": 100,
      "chip": "ym2612"
    },
    {
      "channel": 2,
      "note": 73,
      "start": 5.4522,
      "duration": 0.0281,
      "velocity": 100,
      "chip": "ym2612"
    },
    {
      "channel": 3,
      "note": 51,
      "start": 5.4527,
      "duration": 0.0127,
      "velocity": 88,
      "chip": "ym2612"
    },
    {
      "channel": 4,
      "note": 70,
      "start": 5.4532,
      "duration": 0.0273,
      "velocity": 100,
      "chip": "ym2612"
    },
    {
      "channel": 1,
      "note": 82,
      "start": 5.4856,
      "duration": 0.0437,
      "velocity": 100,
      "chip": "ym2612"
    },
    {
      "channel": 2,
      "note": 75,
      "start": 5.4868,
      "duration": 0.0427,
      "velocity": 100,
      "chip": "ym2612"
    },
    {
      "channel": 3,
      "note": 47,
      "start": 5.4875,
      "duration": 0.014,
      "velocity": 88,
      "chip": "ym2612"
    },
    {
      "channel": 4,
      "note": 59,
      "start": 5.49,
      "duration": 0.0156,
      "velocity": 70,
      "chip": "ym2612"
    },
    {
      "channel": 4,
      "note": 63,
      "start": 5.5081,
      "duration": 0.016,
      "velocity": 70,
      "chip": "ym2612"
    },
    {
      "channel": 3,
      "note": 47,
      "start": 5.5177,
      "duration": 0.025,
      "velocity": 88,
      "chip": "ym2612"
    },
    {
      "channel": 4,
      "note": 66,
      "start": 5.5266,
      "duration": 0.0163,
      "velocity": 70,
      "chip": "ym2612"
    },
    {
      "channel": 1,
      "note": 80,
      "start": 5.5319,
      "duration": 0.0484,
      "velocity": 100,
      "chip": "ym2612"
    },
    {
      "channel": 2,
      "note": 75,
      "start": 5.5324,
      "duration": 0.048,
      "velocity": 100,
      "chip": "ym2612"
    },
    {
      "channel": 3,
      "note": 59,
      "start": 5.5556,
      "duration": 0.0112,
      "velocity": 88,
      "chip": "ym2612"
    },
    {
      "channel": 4,
      "note": 63,
      "start": 5.5561,
      "duration": 0.0159,
      "velocity": 70,
      "chip": "ym2612"
    },
    {
      "channel": 4,
      "note": 66,
      "start": 5.5744,
      "duration": 0.0168,
      "velocity": 70,
      "chip": "ym2612"
    },
    {
      "channel": 1,
      "note": 78,
      "start": 5.5829,
      "duration": 0.0552,
      "velocity": 100,
      "chip": "ym2612"
    },
    {
      "channel": 2,
      "note": 75,
      "start": 5.5834,
      "duration": 0.0548,
      "velocity": 100,
      "chip": "ym2612"
    },
    {
      "channel": 3,
      "note": 47,
      "start": 5.584,
      "duration": 0.0118,
      "velocity": 88,
      "chip": "ym2612"
    },
    {
      "channel": 4,
      "note": 71,
      "start": 5.5938,
      "duration": 0.0448,
      "velocity": 70,
      "chip": "ym2612"
    },
    {
      "channel": 3,
      "note": 47,
      "start": 5.5983,
      "duration": 0.0401,
      "velocity": 88,
      "chip": "ym2612"
    },
    {
      "channel": 1,
      "note": 77,
      "start": 5.6576,
      "duration": 0.041,
      "velocity": 100,
      "chip": "ym2612"
    },
    {
      "channel": 2,
      "note": 75,
      "start": 5.6581,
      "duration": 0.0406,
      "velocity": 100,
      "chip": "ym2612"
    },
    {
      "channel": 4,
      "note": 66,
      "start": 5.6587,
      "duration": 0.0162,
      "velocity": 70,
      "chip": "ym2612"
    },
    {
      "channel": 3,
      "note": 47,
      "start": 5.6727,
      "duration": 0.0115,
      "velocity": 88,
      "chip": "ym2612"
    },
    {
      "channel": 4,
      "note": 71,
      "start": 5.6782,
      "duration": 0.0161,
      "velocity": 70,
      "chip": "ym2612"
    },
    {
      "channel": 4,
      "note": 75,
      "start": 5.6967,
      "duration": 0.0182,
      "velocity": 70,
      "chip": "ym2612"
    },
    {
      "channel": 1,
      "note": 78,
      "start": 5.7023,
      "duration": 0.0429,
      "velocity": 100,
      "chip": "ym2612"
    },
    {
      "channel": 2,
      "note": 75,
      "start": 5.7028,
      "duration": 0.0425,
      "velocity": 100,
      "chip": "ym2612"
    },
    {
      "channel": 3,
      "note": 47,
      "start": 5.7033,
      "duration": 0.0114,
      "velocity": 88,
      "chip": "ym2612"
    },
    {
      "channel": 3,
      "note": 59,
      "start": 5.7173,
      "duration": 0.0131,
      "velocity": 88,
      "chip": "ym2612"
    },
    {
      "channel": 4,
      "note": 71,
      "start": 5.7178,
      "duration": 0.0182,
      "velocity": 70,
      "chip": "ym2612"
    },
    {
      "channel": 4,
      "note": 75,
      "start": 5.7384,
      "duration": 0.0181,
      "velocity": 70,
      "chip": "ym2612"
    },
    {
      "channel": 1,
      "note": 80,
      "start": 5.7477,
      "duration": 0.0297,
      "velocity": 100,
      "chip": "ym2612"
    },
    {
      "channel": 2,
      "note": 75,
      "start": 5.7482,
      "duration": 0.0293,
      "velocity": 100,
      "chip": "ym2612"
    },
    {
      "channel": 3,
      "note": 47,
      "start": 5.7488,
      "duration": 0.0289,
      "velocity": 88,
      "chip": "ym2612"
    },
    {
      "channel": 4,
      "note": 78,
      "start": 5.759,
      "duration": 0.0189,
      "velocity": 70,
      "chip": "ym2612"
    },
    {
      "channel": 1,
      "note": 78,
      "start": 5.7825,
      "duration": 0.0402,
      "velocity": 100,
      "chip": "ym2612"
    },
    {
      "channel": 2,
      "note": 75,
      "start": 5.7831,
      "duration": 0.0398,
      "velocity": 100,
      "chip": "ym2612"
    },
    {
      "channel": 3,
      "note": 47,
      "start": 5.7838,
      "duration": 0.0112,
      "velocity": 88,
      "chip": "ym2612"
    },
    {
      "channel": 4,
      "note": 90,
      "start": 5.7844,
      "duration": 0.0156,
      "velocity": 70,
      "chip": "ym2612"
    },
    {
      "channel": 4,
      "note": 87,
      "start": 5.8024,
      "duration": 0.016,
      "velocity": 70,
      "chip": "ym2612"
    },
    {
      "channel": 3,
      "note": 47,
      "start": 5.8112,
      "duration": 0.0262,
      "velocity": 88,
      "chip": "ym2612"
    },
    {
      "channel": 4,
      "note": 83,
      "start": 5.8209,
      "duration": 0.0166,
      "velocity": 70,
      "chip": "ym2612"
    },
    {
      "channel": 1,
      "note": 77,
      "start": 5.8253,
      "duration": 0.0536,
      "velocity": 100,
      "chip": "ym2612"
    },
    {
      "channel": 2,
      "note": 75,
      "start": 5.8258,
      "duration": 0.0532,
      "velocity": 100,
      "chip": "ym2612"
    },
    {
      "channel": 3,
      "note": 59,
      "start": 5.8532,
      "duration": 0.012,
      "velocity": 88,
      "chip": "ym2612"
    },
    {
      "channel": 4,
      "note": 87,
      "start": 5.8538,
      "duration": 0.0157,
      "velocity": 70,
      "chip": "ym2612"
    },
    {
      "channel": 4,
      "note": 83,
      "start": 5.8728,
      "duration": 0.0169,
      "velocity": 70,
      "chip": "ym2612"
    },
    {
      "channel": 1,
      "note": 78,
      "start": 5.8814,
      "duration": 0.0541,
      "velocity": 100,
      "chip": "ym2612"
    },
    {
      "channel": 2,
      "note": 75,
      "start": 5.8819,
      "duration": 0.0537,
      "velocity": 100,
      "chip": "ym2612"
    },
    {
      "channel": 3,
      "note": 47,
      "start": 5.8824,
      "duration": 0.0117,
      "velocity": 88,
      "chip": "ym2612"
    },
    {
      "channel": 4,
      "note": 78,
      "start": 5.8922,
      "duration": 0.0437,
      "velocity": 70,
      "chip": "ym2612"
    },
    {
      "channel": 3,
      "note": 47,
      "start": 5.8966,
      "duration": 0.0391,
      "velocity": 88,
      "chip": "ym2612"
    },
    {
      "channel": 1,
      "note": 75,
      "start": 5.955,
      "duration": 0.0412,
      "velocity": 100,
      "chip": "ym2612"
    },
    {
      "channel": 2,
      "note": 71,
      "start": 5.9555,
      "duration": 0.0409,
      "velocity": 100,
      "chip": "ym2612"
    },
    {
      "channel": 4,
      "note": 83,
      "start": 5.9561,
      "duration": 0.0161,
      "velocity": 70,
      "chip": "ym2612"
    },
    {
      "channel": 3,
      "note": 47,
      "start": 5.97,
      "duration": 0.0116,
      "velocity": 88,
      "chip": "ym2612"
    },
    {
      "channel": 4,
      "note": 78,
      "start": 5.9747,
      "duration": 0.0162,
      "velocity": 70,
      "chip": "ym2612"
    },
    {
      "channel": 4,
      "note": 75,
      "start": 5.9934,
      "duration": 0.0189,
      "velocity": 70,
      "chip": "ym2612"
    },
    {
      "channel": 1,
      "note": 77,
      "start": 5.9997,
      "duration": 0.0422,
      "velocity": 100,
      "chip": "ym2612"
    },
    {
      "channel": 2,
      "note": 73,
      "start": 6.0002,
      "duration": 0.0418,
      "velocity": 100,
      "chip": "ym2612"
    },
    {
      "channel": 3,
      "note": 47,
      "start": 6.0007,
      "duration": 0.0115,
      "velocity": 88,
      "chip": "ym2612"
    },
    {
      "channel": 3,
      "note": 59,
      "start": 6.0148,
      "duration": 0.0274,
      "velocity": 88,
      "chip": "ym2612"
    },
    {
      "channel": 4,
      "note": 78,
      "start": 6.0153,
      "duration": 0.0181,
      "velocity": 70,
      "chip": "ym2612"
    },
    {
      "channel": 4,
      "note": 75,
      "start": 6.0359,
      "duration": 0.019,
      "velocity": 70,
      "chip": "ym2612"
    },
    {
      "channel": 1,
      "note": 78,
      "start": 6.0461,
      "duration": 0.0293,
      "velocity": 100,
      "chip": "ym2612"
    },
    {
      "channel": 2,
      "note": 75,
      "start": 6.0466,
      "duration": 0.0289,
      "velocity": 100,
      "chip": "ym2612"
    },
    {
      "channel": 3,
      "note": 47,
      "start": 6.0471,
      "duration": 0.0123,
      "velocity": 88,
      "chip": "ym2612"
    },
    {
      "channel": 4,
      "note": 71,
      "start": 6.0574,
      "duration": 0.0183,
      "velocity": 70,
      "chip": "ym2612"
    },
    {
      "channel": 1,
      "note": 80,
      "start": 6.0804,
      "duration": 0.0412,
      "velocity": 100,
      "chip": "ym2612"
    },
    {
      "channel": 2,
      "note": 77,
      "start": 6.081,
      "duration": 0.0408,
      "velocity": 100,
      "chip": "ym2612"
    },
    {
      "channel": 3,
      "note": 49,
      "start": 6.0816,
      "duration": 0.0122,
      "velocity": 88,
      "chip": "ym2612"
    },
    {
      "channel": 4,
      "note": 61,
      "start": 6.0823,
      "duration": 0.0158,
      "velocity": 70,
      "chip": "ym2612"
    },
    {
      "channel": 4,
      "note": 65,
      "start": 6.1015,
      "duration": 0.0157,
      "velocity": 70,
      "chip": "ym2612"
    },
    {
      "channel": 3,
      "note": 49,
      "start": 6.1102,
      "duration": 0.0257,
      "velocity": 88,
      "chip": "ym2612"
    },
    {
      "channel": 4,
      "note": 68,
      "start": 6.1197,
      "duration": 0.0163,
      "velocity": 70,
      "chip": "ym2612"
    },
    {
      "channel": 1,
      "note": 78,
      "start": 6.1241,
      "duration": 0.0521,
      "velocity": 100,
      "chip": "ym2612"
    },
    {
      "channel": 2,
      "note": 75,
      "start": 6.1246,
      "duration": 0.0517,
      "velocity": 100,
      "chip": "ym2612"
    },
    {
      "channel": 3,
      "note": 61,
      "start": 6.1508,
      "duration": 0.0118,
      "velocity": 88,
      "chip": "ym2612"
    },
    {
      "channel": 4,
      "note": 73,
      "start": 6.1513,
      "duration": 0.0155,
      "velocity": 70,
      "chip": "ym2612"
    },
    {
      "channel": 4,
      "note": 77,
      "start": 6.1693,
      "duration": 0.017,
      "velocity": 70,
      "chip": "ym2612"
    },
    {
      "channel": 1,
      "note": 77,
      "start": 6.1788,
      "duration": 0.054,
      "velocity": 100,
      "chip": "ym2612"
    },
    {
      "channel": 2,
      "note": 73,
      "start": 6.1793,
      "duration": 0.0536,
      "velocity": 100,
      "chip": "ym2612"
    },
    {
      "channel": 3,
      "note": 49,
      "start": 6.1798,
      "duration": 0.0117,
      "velocity": 88,
      "chip": "ym2612"
    },
    {
      "channel": 4,
      "note": 80,
      "start": 6.1895,
      "duration": 0.0437,
      "velocity": 70,
      "chip": "ym2612"
    },
    {
      "channel": 3,
      "note": 49,
      "start": 6.194,
      "duration": 0.039,
      "velocity": 88,
      "chip": "ym2612"
    },
    {
      "channel": 1,
      "note": 80,
      "start": 6.2523,
      "duration": 0.0395,
      "velocity": 100,
      "chip": "ym2612"
    },
    {
      "channel": 2,
      "note": 77,
      "start": 6.2528,
      "duration": 0.0392,
      "velocity": 100,
      "chip": "ym2612"
    },
    {
      "channel": 4,
      "note": 85,
      "start": 6.2534,
      "duration": 0.0163,
      "velocity": 70,
      "chip": "ym2612"
    },
    {
      "channel": 3,
      "note": 49,
      "start": 6.2675,
      "duration": 0.0108,
      "velocity": 88,
      "chip": "ym2612"
    },
    {
      "channel": 4,
      "note": 89,
      "start": 6.2722,
      "duration": 0.0154,
      "velocity": 70,
      "chip": "ym2612"
    },
    {
      "channel": 4,
      "note": 92,
      "start": 6.29,
      "duration": 0.0169,
      "velocity": 70,
      "chip": "ym2612"
    },
    {
      "channel": 1,
      "note": 78,
      "start": 6.2952,
      "duration": 0.0424,
      "velocity": 100,
      "chip": "ym2612"
    },
    {
      "channel": 2,
      "note": 75,
      "start": 6.2957,
      "duration": 0.0421,
      "velocity": 100,
      "chip": "ym2612"
    },
    {
      "channel": 3,
      "note": 49,
      "start": 6.2962,
      "duration": 0.0106,
      "velocity": 88,
      "chip": "ym2612"
    },
    {
      "channel": 3,
      "note": 61,
      "start": 6.3096,
      "duration": 0.0282,
      "velocity": 88,
      "chip": "ym2612"
    },
    {
      "channel": 4,
      "note": 97,
      "start": 6.3102,
      "duration": 0.019,
      "velocity": 70,
      "chip": "ym2612"
    },
    {
      "channel": 4,
      "note": 92,
      "start": 6.3317,
      "duration": 0.017,
      "velocity": 70,
      "chip": "ym2612"
    },
    {
      "channel": 1,
      "note": 77,
      "start": 6.3402,
      "duration": 0.0263,
      "velocity": 100,
      "chip": "ym2612"
    },
    {
      "channel": 2,
      "note": 73,
      "start": 6.3407,
      "duration": 0.0259,
      "velocity": 100,
      "chip": "ym2612"
    },
    {
      "channel": 3,
      "note": 49,
      "start": 6.3412,
      "duration": 0.0122,
      "velocity": 88,
      "chip": "ym2612"
    },
    {
      "channel": 4,
      "note": 89,
      "start": 6.3512,
      "duration": 0.0156,
      "velocity": 70,
      "chip": "ym2612"
    },
    {
      "channel": 1,
      "note": 83,
      "start": 6.3699,
      "duration": 0.0436,
      "velocity": 100,
      "chip": "ym2612"
    },
    {
      "channel": 2,
      "note": 80,
      "start": 6.3705,
      "duration": 0.0431,
      "velocity": 100,
      "chip": "ym2612"
    },
    {
      "channel": 3,
      "note": 50,
      "start": 6.3712,
      "duration": 0.0426,
      "velocity": 88,
      "chip": "ym2612"
    },
    {
      "channel": 4,
      "note": 94,
      "start": 6.3718,
      "duration": 0.0174,
      "velocity": 70,
      "chip": "ym2612"
    },
    {
      "channel": 4,
      "note": 89,
      "start": 6.3916,
      "duration": 0.0167,
      "velocity": 70,
      "chip": "ym2612"
    },
    {
      "channel": 4,
      "note": 86,
      "start": 6.4116,
      "duration": 0.0195,
      "velocity": 70,
      "chip": "ym2612"
    },
    {
      "channel": 1,
      "note": 83,
      "start": 6.417,
      "duration": 0.0432,
      "velocity": 100,
      "chip": "ym2612"
    },
    {
      "channel": 2,
      "note": 80,
      "start": 6.4176,
      "duration": 0.0429,
      "velocity": 100,
      "chip": "ym2612"
    },
    {
      "channel": 3,
      "note": 50,
      "start": 6.4181,
      "duration": 0.0425,
      "velocity": 88,
      "chip": "ym2612"
    },
    {
      "channel": 4,
      "note": 89,
      "start": 6.4347,
      "duration": 0.017,
      "velocity": 70,
      "chip": "ym2612"
    },
    {
      "channel": 4,
      "note": 86,
      "start": 6.4543,
      "duration": 0.0194,
      "velocity": 70,
      "chip": "ym2612"
    },
    {
      "channel": 1,
      "note": 83,
      "start": 6.4648,
      "duration": 0.0277,
      "velocity": 100,
      "chip": "ym2612"
    },
    {
      "channel": 2,
      "note": 80,
      "start": 6.4654,
      "duration": 0.0273,
      "velocity": 100,
      "chip": "ym2612"
    },
    {
      "channel": 3,
      "note": 50,
      "start": 6.4659,
      "duration": 0.0124,
      "velocity": 88,
      "chip": "ym2612"
    },
    {
      "channel": 4,
      "note": 82,
      "start": 6.4763,
      "duration": 0.0166,
      "velocity": 70,
      "chip": "ym2612"
    },
    {
      "channel": 1,
      "note": 82,
      "start": 6.4974,
      "duration": 0.0405,
      "velocity": 100,
      "chip": "ym2612"
    },
    {
      "channel": 2,
      "note": 77,
      "start": 6.4979,
      "duration": 0.0402,
      "velocity": 100,
      "chip": "ym2612"
    },
    {
      "channel": 3,
      "note": 50,
      "start": 6.4984,
      "duration": 0.0398,
      "velocity": 88,
      "chip": "ym2612"
    },
    {
      "channel": 4,
      "note": 86,
      "start": 6.4989,
      "duration": 0.0158,
      "velocity": 70,
      "chip": "ym2612"
    },
    {
      "channel": 4,
      "note": 82,
      "start": 6.517,
      "duration": 0.0166,
      "velocity": 70,
      "chip": "ym2612"
    },
    {
      "channel": 4,
      "note": 77,
      "start": 6.536,
      "duration": 0.0177,
      "velocity": 70,
      "chip": "ym2612"
    },
    {
      "channel": 1,
      "note": 82,
      "start": 6.5412,
      "duration": 0.0435,
      "velocity": 100,
      "chip": "ym2612"
    },
    {
      "channel": 2,
      "note": 77,
      "start": 6.5417,
      "duration": 0.0432,
      "velocity": 100,
      "chip": "ym2612"
    },
    {
      "channel": 3,
      "note": 58,
      "start": 6.5422,
      "duration": 0.0428,
      "velocity": 88,
      "chip": "ym2612"
    },
    {
      "channel": 4,
      "note": 82,
      "start": 6.5562,
      "duration": 0.0187,
      "velocity": 70,
      "chip": "ym2612"
    },
    {
      "channel": 4,
      "note": 77,
      "start": 6.5775,
      "duration": 0.0201,
      "velocity": 70,
      "chip": "ym2612"
    },
    {
      "channel": 1,
      "note": 82,
      "start": 6.5888,
      "duration": 0.0295,
      "velocity": 100,
      "chip": "ym2612"
    },
    {
      "channel": 2,
      "note": 77,
      "start": 6.5893,
      "duration": 0.0291,
      "velocity": 100,
      "chip": "ym2612"
    },
    {
      "channel": 3,
      "note": 62,
      "start": 6.5898,
      "duration": 0.0132,
      "velocity": 88,
      "chip": "ym2612"
    },
    {
      "channel": 4,
      "note": 74,
      "start": 6.601,
      "duration": 0.0176,
      "velocity": 70,
      "chip": "ym2612"
    },
    {
      "channel": 1,
      "note": 80,
      "start": 6.6252,
      "duration": 0.0873,
      "velocity": 97,
      "chip": "ym2612"
    },
    {
      "channel": 2,
      "note": 77,
      "start": 6.6278,
      "duration": 0.0848,
      "velocity": 97,
      "chip": "ym2612"
    },
    {
      "channel": 3,
      "note": 59,
      "start": 6.6285,
      "duration": 0.0843,
      "velocity": 88,
      "chip": "ym2612"
    },
    {
      "channel": 4,
      "note": 73,
      "start": 6.631,
      "duration": 0.0819,
      "velocity": 97,
      "chip": "ym2612"
    },
    {
      "channel": 1,
      "note": 79,
      "start": 6.7147,
      "duration": 0.186,
      "velocity": 97,
      "chip": "ym2612"
    },
    {
      "channel": 2,
      "note": 76,
      "start": 6.7153,
      "duration": 0.1856,
      "velocity": 97,
      "chip": "ym2612"
    },
    {
      "channel": 3,
      "note": 58,
      "start": 6.7158,
      "duration": 0.1549,
      "velocity": 88,
      "chip": "ym2612"
    },
    {
      "channel": 4,
      "note": 72,
      "start": 6.7164,
      "duration": 0.1847,
      "velocity": 97,
      "chip": "ym2612"
    },
    {
      "channel": 3,
      "note": 58,
      "start": 6.8737,
      "duration": 0.0115,
      "velocity": 88,
      "chip": "ym2612"
    },
    {
      "channel": 1,
      "note": 79,
      "start": 6.9059,
      "duration": 0.0897,
      "velocity": 97,
      "chip": "ym2612"
    },
    {
      "channel": 2,
      "note": 76,
      "start": 6.9066,
      "duration": 0.0892,
      "velocity": 97,
      "chip": "ym2612"
    },
    {
      "channel": 3,
      "note": 58,
      "start": 6.9072,
      "duration": 0.0887,
      "velocity": 88,
      "chip": "ym2612"
    },
    {
      "channel": 4,
      "note": 72,
      "start": 6.9078,
      "duration": 0.0882,
      "velocity": 97,
      "chip": "ym2612"
    },
    {
      "channel": 1,
      "note": 78,
      "start": 6.9979,
      "duration": 0.1867,
      "velocity": 97,
      "chip": "ym2612"
    },
    {
      "channel": 2,
      "note": 75,
      "start": 6.9984,
      "duration": 0.1863,
      "velocity": 97,
      "chip": "ym2612"
    },
    {
      "channel": 3,
      "note": 57,
      "start": 6.999,
      "duration": 0.1539,
      "velocity": 88,
      "chip": "ym2612"
    },
    {
      "channel": 4,
      "note": 71,
      "start": 6.9995,
      "duration": 0.1855,
      "velocity": 97,
      "chip": "ym2612"
    },
    {
      "channel": 3,
      "note": 57,
      "start": 7.1567,
      "duration": 0.0124,
      "velocity": 88,
      "chip": "ym2612"
    },
    {
      "channel": 1,
      "note": 75,
      "start": 7.1908,
      "duration": 40.8269,
      "velocity": 97,
      "chip": "ym2612"
    },
    {
      "channel": 2,
      "note": 71,
      "start": 7.1935,
      "duration": 40.8242,
      "velocity": 97,
      "chip": "ym2612"
    },
    {
      "channel": 3,
      "note": 54,
      "start": 7.1947,
      "duration": 40.8231,
      "velocity": 88,
      "chip": "ym2612"
    }
  ]
}