{
  "track_name": "04 - Read All About It",
  "duration_sec": 24.361,
  "sample_rate": 44100,
  "note_count": 196,
  "unique_pitches": 29,
  "pitch_range": 43,
  "avg_note_duration": 0.6843,
  "reconstruction_stats": {
    "notes_reconstructed": 196,
    "keyon_events": 196,
    "keyoff_events": 190,
    "orphan_keyons": 6,
    "unique_pitches": 29,
    "pitch_range": 43,
    "avg_duration_sec": 0.6843
  },
  "metadata": {
    "source": "F\\F-15 Strike Eagle II\\04 - Read All About It.vgz"
  },
  "notes": [
    {
      "channel": 2,
      "note": 45,
      "start": 0.7083,
      "duration": 0.1394,
      "velocity": 97,
      "chip": "ym2612"
    },
    {
      "channel": 2,
      "note": 60,
      "start": 0.8479,
      "duration": 0.1246,
      "velocity": 97,
      "chip": "ym2612"
    },
    {
      "channel": 2,
      "note": 62,
      "start": 0.9726,
      "duration": 0.1451,
      "velocity": 97,
      "chip": "ym2612"
    },
    {
      "channel": 0,
      "note": 48,
      "start": 1.1151,
      "duration": 2.345,
      "velocity": 123,
      "chip": "ym2612"
    },
    {
      "channel": 1,
      "note": 58,
      "start": 1.1173,
      "duration": 2.3433,
      "velocity": 122,
      "chip": "ym2612"
    },
    {
      "channel": 2,
      "note": 48,
      "start": 1.118,
      "duration": 0.1371,
      "velocity": 97,
      "chip": "ym2612"
    },
    {
      "channel": 2,
      "note": 60,
      "start": 1.2552,
      "duration": 0.1498,
      "velocity": 97,
      "chip": "ym2612"
    },
    {
      "channel": 5,
      "note": 86,
      "start": 1.2574,
      "duration": 0.1483,
      "velocity": 118,
      "chip": "ym2612"
    },
    {
      "channel": 2,
      "note": 46,
      "start": 1.4052,
      "duration": 0.1665,
      "velocity": 97,
      "chip": "ym2612"
    },
    {
      "channel": 5,
      "note": 86,
      "start": 1.4059,
      "duration": 0.4174,
      "velocity": 118,
      "chip": "ym2612"
    },
    {
      "channel": 2,
      "note": 48,
      "start": 1.5719,
      "duration": 1.1662,
      "velocity": 97,
      "chip": "ym2612"
    },
    {
      "channel": 5,
      "note": 86,
      "start": 1.8234,
      "duration": 0.1665,
      "velocity": 118,
      "chip": "ym2612"
    },
    {
      "channel": 5,
      "note": 86,
      "start": 1.9901,
      "duration": 0.2904,
      "velocity": 118,
      "chip": "ym2612"
    },
    {
      "channel": 5,
      "note": 86,
      "start": 2.2806,
      "duration": 0.291,
      "velocity": 118,
      "chip": "ym2612"
    },
    {
      "channel": 5,
      "note": 86,
      "start": 2.5717,
      "duration": 0.4318,
      "velocity": 118,
      "chip": "ym2612"
    },
    {
      "channel": 2,
      "note": 43,
      "start": 2.7382,
      "duration": 0.1245,
      "velocity": 97,
      "chip": "ym2612"
    },
    {
      "channel": 2,
      "note": 46,
      "start": 2.8629,
      "duration": 0.1399,
      "velocity": 97,
      "chip": "ym2612"
    },
    {
      "channel": 2,
      "note": 48,
      "start": 3.0029,
      "duration": 0.1499,
      "velocity": 97,
      "chip": "ym2612"
    },
    {
      "channel": 5,
      "note": 86,
      "start": 3.0036,
      "duration": 0.0827,
      "velocity": 118,
      "chip": "ym2612"
    },
    {
      "channel": 5,
      "note": 86,
      "start": 3.0865,
      "duration": 0.067,
      "velocity": 118,
      "chip": "ym2612"
    },
    {
      "channel": 2,
      "note": 51,
      "start": 3.153,
      "duration": 0.1665,
      "velocity": 97,
      "chip": "ym2612"
    },
    {
      "channel": 5,
      "note": 86,
      "start": 3.1537,
      "duration": 0.432,
      "velocity": 118,
      "chip": "ym2612"
    },
    {
      "channel": 2,
      "note": 52,
      "start": 3.3196,
      "duration": 0.1415,
      "velocity": 97,
      "chip": "ym2612"
    },
    {
      "channel": 0,
      "note": 48,
      "start": 3.4602,
      "duration": 2.2857,
      "velocity": 123,
      "chip": "ym2612"
    },
    {
      "channel": 1,
      "note": 57,
      "start": 3.4608,
      "duration": 2.2857,
      "velocity": 122,
      "chip": "ym2612"
    },
    {
      "channel": 2,
      "note": 48,
      "start": 3.4614,
      "duration": 0.1236,
      "velocity": 97,
      "chip": "ym2612"
    },
    {
      "channel": 2,
      "note": 60,
      "start": 3.5851,
      "duration": 0.1665,
      "velocity": 97,
      "chip": "ym2612"
    },
    {
      "channel": 5,
      "note": 86,
      "start": 3.5859,
      "duration": 0.1665,
      "velocity": 118,
      "chip": "ym2612"
    },
    {
      "channel": 2,
      "note": 46,
      "start": 3.7518,
      "duration": 0.1498,
      "velocity": 97,
      "chip": "ym2612"
    },
    {
      "channel": 5,
      "note": 86,
      "start": 3.7525,
      "duration": 0.4153,
      "velocity": 118,
      "chip": "ym2612"
    },
    {
      "channel": 2,
      "note": 48,
      "start": 3.9018,
      "duration": 1.5528,
      "velocity": 97,
      "chip": "ym2612"
    },
    {
      "channel": 3,
      "note": 62,
      "start": 3.904,
      "duration": 0.0604,
      "velocity": 112,
      "chip": "ym2612"
    },
    {
      "channel": 4,
      "note": 74,
      "start": 3.9061,
      "duration": 0.0588,
      "velocity": 112,
      "chip": "ym2612"
    },
    {
      "channel": 3,
      "note": 64,
      "start": 3.9645,
      "duration": 0.062,
      "velocity": 112,
      "chip": "ym2612"
    },
    {
      "channel": 4,
      "note": 76,
      "start": 3.9651,
      "duration": 0.062,
      "velocity": 112,
      "chip": "ym2612"
    },
    {
      "channel": 3,
      "note": 65,
      "start": 4.0267,
      "duration": 0.5821,
      "velocity": 112,
      "chip": "ym2612"
    },
    {
      "channel": 4,
      "note": 77,
      "start": 4.0273,
      "duration": 0.5821,
      "velocity": 112,
      "chip": "ym2612"
    },
    {
      "channel": 5,
      "note": 86,
      "start": 4.1679,
      "duration": 0.1499,
      "velocity": 118,
      "chip": "ym2612"
    },
    {
      "channel": 5,
      "note": 86,
      "start": 4.3179,
      "duration": 0.2921,
      "velocity": 118,
      "chip": "ym2612"
    },
    {
      "channel": 3,
      "note": 64,
      "start": 4.609,
      "duration": 0.5808,
      "velocity": 112,
      "chip": "ym2612"
    },
    {
      "channel": 4,
      "note": 76,
      "start": 4.6096,
      "duration": 0.5808,
      "velocity": 112,
      "chip": "ym2612"
    },
    {
      "channel": 5,
      "note": 86,
      "start": 4.6102,
      "duration": 0.3066,
      "velocity": 118,
      "chip": "ym2612"
    },
    {
      "channel": 5,
      "note": 86,
      "start": 4.9169,
      "duration": 0.6796,
      "velocity": 118,
      "chip": "ym2612"
    },
    {
      "channel": 3,
      "note": 60,
      "start": 5.19,
      "duration": 0.5578,
      "velocity": 112,
      "chip": "ym2612"
    },
    {
      "channel": 4,
      "note": 72,
      "start": 5.1906,
      "duration": 0.5579,
      "velocity": 112,
      "chip": "ym2612"
    },
    {
      "channel": 2,
      "note": 48,
      "start": 5.4548,
      "duration": 0.141,
      "velocity": 97,
      "chip": "ym2612"
    },
    {
      "channel": 2,
      "note": 49,
      "start": 5.596,
      "duration": 0.1511,
      "velocity": 97,
      "chip": "ym2612"
    },
    {
      "channel": 5,
      "note": 86,
      "start": 5.5967,
      "duration": 0.291,
      "velocity": 118,
      "chip": "ym2612"
    },
    {
      "channel": 0,
      "note": 55,
      "start": 5.7461,
      "duration": 2.3426,
      "velocity": 123,
      "chip": "ym2612"
    },
    {
      "channel": 1,
      "note": 50,
      "start": 5.7467,
      "duration": 2.3426,
      "velocity": 122,
      "chip": "ym2612"
    },
    {
      "channel": 2,
      "note": 50,
      "start": 5.7473,
      "duration": 0.1397,
      "velocity": 97,
      "chip": "ym2612"
    },
    {
      "channel": 3,
      "note": 62,
      "start": 5.7479,
      "duration": 3.511,
      "velocity": 104,
      "chip": "ym2612"
    },
    {
      "channel": 4,
      "note": 74,
      "start": 5.7486,
      "duration": 4.6378,
      "velocity": 122,
      "chip": "ym2612"
    },
    {
      "channel": 2,
      "note": 62,
      "start": 5.8871,
      "duration": 0.1498,
      "velocity": 97,
      "chip": "ym2612"
    },
    {
      "channel": 5,
      "note": 86,
      "start": 5.8879,
      "duration": 0.1497,
      "velocity": 118,
      "chip": "ym2612"
    },
    {
      "channel": 2,
      "note": 48,
      "start": 6.0371,
      "duration": 0.1665,
      "velocity": 97,
      "chip": "ym2612"
    },
    {
      "channel": 5,
      "note": 86,
      "start": 6.0378,
      "duration": 0.4134,
      "velocity": 118,
      "chip": "ym2612"
    },
    {
      "channel": 2,
      "note": 50,
      "start": 6.2038,
      "duration": 1.1628,
      "velocity": 97,
      "chip": "ym2612"
    },
    {
      "channel": 5,
      "note": 86,
      "start": 6.4514,
      "duration": 0.1665,
      "velocity": 118,
      "chip": "ym2612"
    },
    {
      "channel": 5,
      "note": 86,
      "start": 6.618,
      "duration": 0.291,
      "velocity": 118,
      "chip": "ym2612"
    },
    {
      "channel": 5,
      "note": 86,
      "start": 6.9092,
      "duration": 0.291,
      "velocity": 118,
      "chip": "ym2612"
    },
    {
      "channel": 5,
      "note": 86,
      "start": 7.2002,
      "duration": 0.4321,
      "velocity": 118,
      "chip": "ym2612"
    },
    {
      "channel": 2,
      "note": 45,
      "start": 7.3668,
      "duration": 0.1246,
      "velocity": 97,
      "chip": "ym2612"
    },
    {
      "channel": 2,
      "note": 48,
      "start": 7.4915,
      "duration": 0.1401,
      "velocity": 97,
      "chip": "ym2612"
    },
    {
      "channel": 2,
      "note": 50,
      "start": 7.6318,
      "duration": 0.1665,
      "velocity": 97,
      "chip": "ym2612"
    },
    {
      "channel": 5,
      "note": 86,
      "start": 7.6325,
      "duration": 0.0826,
      "velocity": 118,
      "chip": "ym2612"
    },
    {
      "channel": 5,
      "note": 86,
      "start": 7.7153,
      "duration": 0.0837,
      "velocity": 118,
      "chip": "ym2612"
    },
    {
      "channel": 2,
      "note": 53,
      "start": 7.7985,
      "duration": 0.1498,
      "velocity": 97,
      "chip": "ym2612"
    },
    {
      "channel": 5,
      "note": 86,
      "start": 7.7992,
      "duration": 0.415,
      "velocity": 118,
      "chip": "ym2612"
    },
    {
      "channel": 2,
      "note": 54,
      "start": 7.9485,
      "duration": 0.1413,
      "velocity": 97,
      "chip": "ym2612"
    },
    {
      "channel": 0,
      "note": 48,
      "start": 8.0888,
      "duration": 2.2904,
      "velocity": 104,
      "chip": "ym2612"
    },
    {
      "channel": 1,
      "note": 55,
      "start": 8.0894,
      "duration": 2.292,
      "velocity": 104,
      "chip": "ym2612"
    },
    {
      "channel": 2,
      "note": 50,
      "start": 8.0899,
      "duration": 0.1236,
      "velocity": 97,
      "chip": "ym2612"
    },
    {
      "channel": 2,
      "note": 62,
      "start": 8.2137,
      "duration": 0.1665,
      "velocity": 97,
      "chip": "ym2612"
    },
    {
      "channel": 5,
      "note": 86,
      "start": 8.2144,
      "duration": 0.1665,
      "velocity": 118,
      "chip": "ym2612"
    },
    {
      "channel": 2,
      "note": 48,
      "start": 8.3803,
      "duration": 0.1666,
      "velocity": 97,
      "chip": "ym2612"
    },
    {
      "channel": 5,
      "note": 86,
      "start": 8.381,
      "duration": 0.4187,
      "velocity": 118,
      "chip": "ym2612"
    },
    {
      "channel": 2,
      "note": 50,
      "start": 8.547,
      "duration": 1.5392,
      "velocity": 97,
      "chip": "ym2612"
    },
    {
      "channel": 5,
      "note": 86,
      "start": 8.7998,
      "duration": 0.1499,
      "velocity": 118,
      "chip": "ym2612"
    },
    {
      "channel": 5,
      "note": 86,
      "start": 8.9498,
      "duration": 0.3098,
      "velocity": 118,
      "chip": "ym2612"
    },
    {
      "channel": 3,
      "note": 77,
      "start": 9.259,
      "duration": 0.1483,
      "velocity": 104,
      "chip": "ym2612"
    },
    {
      "channel": 5,
      "note": 86,
      "start": 9.2597,
      "duration": 0.2886,
      "velocity": 118,
      "chip": "ym2612"
    },
    {
      "channel": 3,
      "note": 79,
      "start": 9.4074,
      "duration": 0.2907,
      "velocity": 104,
      "chip": "ym2612"
    },
    {
      "channel": 5,
      "note": 86,
      "start": 9.5485,
      "duration": 0.6805,
      "velocity": 118,
      "chip": "ym2612"
    },
    {
      "channel": 3,
      "note": 76,
      "start": 9.6983,
      "duration": 0.2639,
      "velocity": 104,
      "chip": "ym2612"
    },
    {
      "channel": 3,
      "note": 72,
      "start": 9.9624,
      "duration": 0.1244,
      "velocity": 104,
      "chip": "ym2612"
    },
    {
      "channel": 2,
      "note": 60,
      "start": 10.0864,
      "duration": 0.1413,
      "velocity": 97,
      "chip": "ym2612"
    },
    {
      "channel": 3,
      "note": 69,
      "start": 10.087,
      "duration": 0.1413,
      "velocity": 104,
      "chip": "ym2612"
    },
    {
      "channel": 2,
      "note": 62,
      "start": 10.2279,
      "duration": 0.1541,
      "velocity": 97,
      "chip": "ym2612"
    },
    {
      "channel": 3,
      "note": 67,
      "start": 10.2284,
      "duration": 0.1557,
      "velocity": 123,
      "chip": "ym2612"
    },
    {
      "channel": 5,
      "note": 86,
      "start": 10.2291,
      "duration": 0.2913,
      "velocity": 118,
      "chip": "ym2612"
    },
    {
      "channel": 0,
      "note": 82,
      "start": 10.3794,
      "duration": 2.2027,
      "velocity": 104,
      "chip": "ym2612"
    },
    {
      "channel": 1,
      "note": 77,
      "start": 10.3816,
      "duration": 2.2027,
      "velocity": 104,
      "chip": "ym2612"
    },
    {
      "channel": 2,
      "note": 48,
      "start": 10.3822,
      "duration": 0.1374,
      "velocity": 97,
      "chip": "ym2612"
    },
    {
      "channel": 3,
      "note": 48,
      "start": 10.3844,
      "duration": 2.3389,
      "velocity": 123,
      "chip": "ym2612"
    },
    {
      "channel": 4,
      "note": 55,
      "start": 10.3865,
      "duration": 2.3373,
      "velocity": 122,
      "chip": "ym2612"
    },
    {
      "channel": 2,
      "note": 60,
      "start": 10.5198,
      "duration": 0.1665,
      "velocity": 97,
      "chip": "ym2612"
    },
    {
      "channel": 5,
      "note": 86,
      "start": 10.5206,
      "duration": 0.1664,
      "velocity": 118,
      "chip": "ym2612"
    },
    {
      "channel": 2,
      "note": 46,
      "start": 10.6865,
      "duration": 0.1498,
      "velocity": 97,
      "chip": "ym2612"
    },
    {
      "channel": 5,
      "note": 86,
      "start": 10.6872,
      "duration": 0.3961,
      "velocity": 118,
      "chip": "ym2612"
    },
    {
      "channel": 2,
      "note": 48,
      "start": 10.8365,
      "duration": 1.1622,
      "velocity": 97,
      "chip": "ym2612"
    },
    {
      "channel": 5,
      "note": 86,
      "start": 11.0834,
      "duration": 0.1697,
      "velocity": 118,
      "chip": "ym2612"
    },
    {
      "channel": 5,
      "note": 86,
      "start": 11.2533,
      "duration": 0.2877,
      "velocity": 118,
      "chip": "ym2612"
    },
    {
      "channel": 5,
      "note": 86,
      "start": 11.5412,
      "duration": 0.291,
      "velocity": 118,
      "chip": "ym2612"
    },
    {
      "channel": 5,
      "note": 86,
      "start": 11.8323,
      "duration": 0.4323,
      "velocity": 118,
      "chip": "ym2612"
    },
    {
      "channel": 2,
      "note": 43,
      "start": 11.9988,
      "duration": 0.141,
      "velocity": 97,
      "chip": "ym2612"
    },
    {
      "channel": 2,
      "note": 46,
      "start": 12.1401,
      "duration": 0.1239,
      "velocity": 97,
      "chip": "ym2612"
    },
    {
      "channel": 2,
      "note": 48,
      "start": 12.2641,
      "duration": 0.1665,
      "velocity": 97,
      "chip": "ym2612"
    },
    {
      "channel": 5,
      "note": 86,
      "start": 12.2648,
      "duration": 0.0826,
      "velocity": 118,
      "chip": "ym2612"
    },
    {
      "channel": 5,
      "note": 86,
      "start": 12.3476,
      "duration": 0.0837,
      "velocity": 118,
      "chip": "ym2612"
    },
    {
      "channel": 2,
      "note": 51,
      "start": 12.4307,
      "duration": 0.1541,
      "velocity": 97,
      "chip": "ym2612"
    },
    {
      "channel": 5,
      "note": 86,
      "start": 12.4314,
      "duration": 0.4324,
      "velocity": 118,
      "chip": "ym2612"
    },
    {
      "channel": 0,
      "note": 82,
      "start": 12.5822,
      "duration": 0.061,
      "velocity": 104,
      "chip": "ym2612"
    },
    {
      "channel": 1,
      "note": 77,
      "start": 12.5844,
      "duration": 0.0595,
      "velocity": 104,
      "chip": "ym2612"
    },
    {
      "channel": 2,
      "note": 52,
      "start": 12.585,
      "duration": 0.1377,
      "velocity": 97,
      "chip": "ym2612"
    },
    {
      "channel": 0,
      "note": 83,
      "start": 12.6435,
      "duration": 0.0782,
      "velocity": 104,
      "chip": "ym2612"
    },
    {
      "channel": 1,
      "note": 78,
      "start": 12.644,
      "duration": 0.0782,
      "velocity": 104,
      "chip": "ym2612"
    },
    {
      "channel": 0,
      "note": 84,
      "start": 12.7217,
      "duration": 2.3097,
      "velocity": 123,
      "chip": "ym2612"
    },
    {
      "channel": 1,
      "note": 79,
      "start": 12.7223,
      "duration": 2.3113,
      "velocity": 122,
      "chip": "ym2612"
    },
    {
      "channel": 2,
      "note": 48,
      "start": 12.7229,
      "duration": 0.1402,
      "velocity": 97,
      "chip": "ym2612"
    },
    {
      "channel": 3,
      "note": 46,
      "start": 12.7235,
      "duration": 3.4546,
      "velocity": 112,
      "chip": "ym2612"
    },
    {
      "channel": 4,
      "note": 48,
      "start": 12.724,
      "duration": 3.4561,
      "velocity": 112,
      "chip": "ym2612"
    },
    {
      "channel": 2,
      "note": 60,
      "start": 12.8633,
      "duration": 0.1498,
      "velocity": 97,
      "chip": "ym2612"
    },
    {
      "channel": 5,
      "note": 86,
      "start": 12.864,
      "duration": 0.1498,
      "velocity": 118,
      "chip": "ym2612"
    },
    {
      "channel": 2,
      "note": 46,
      "start": 13.0133,
      "duration": 0.1665,
      "velocity": 97,
      "chip": "ym2612"
    },
    {
      "channel": 5,
      "note": 86,
      "start": 13.014,
      "duration": 0.4208,
      "velocity": 118,
      "chip": "ym2612"
    },
    {
      "channel": 2,
      "note": 48,
      "start": 13.18,
      "duration": 1.5423,
      "velocity": 97,
      "chip": "ym2612"
    },
    {
      "channel": 5,
      "note": 86,
      "start": 13.435,
      "duration": 0.1633,
      "velocity": 118,
      "chip": "ym2612"
    },
    {
      "channel": 5,
      "note": 86,
      "start": 13.5984,
      "duration": 0.2913,
      "velocity": 118,
      "chip": "ym2612"
    },
    {
      "channel": 5,
      "note": 86,
      "start": 13.8899,
      "duration": 0.291,
      "velocity": 118,
      "chip": "ym2612"
    },
    {
      "channel": 5,
      "note": 86,
      "start": 14.181,
      "duration": 0.6829,
      "velocity": 118,
      "chip": "ym2612"
    },
    {
      "channel": 2,
      "note": 48,
      "start": 14.7225,
      "duration": 0.1407,
      "velocity": 97,
      "chip": "ym2612"
    },
    {
      "channel": 2,
      "note": 49,
      "start": 14.8633,
      "duration": 0.1709,
      "velocity": 97,
      "chip": "ym2612"
    },
    {
      "channel": 5,
      "note": 86,
      "start": 14.864,
      "duration": 0.2914,
      "velocity": 118,
      "chip": "ym2612"
    },
    {
      "channel": 0,
      "note": 55,
      "start": 15.0317,
      "duration": 2.3254,
      "velocity": 123,
      "chip": "ym2612"
    },
    {
      "channel": 1,
      "note": 50,
      "start": 15.0338,
      "duration": 2.3239,
      "velocity": 122,
      "chip": "ym2612"
    },
    {
      "channel": 2,
      "note": 50,
      "start": 15.0344,
      "duration": 0.1203,
      "velocity": 97,
      "chip": "ym2612"
    },
    {
      "channel": 2,
      "note": 62,
      "start": 15.1549,
      "duration": 0.1665,
      "velocity": 97,
      "chip": "ym2612"
    },
    {
      "channel": 5,
      "note": 86,
      "start": 15.1557,
      "duration": 0.1664,
      "velocity": 118,
      "chip": "ym2612"
    },
    {
      "channel": 2,
      "note": 48,
      "start": 15.3216,
      "duration": 0.1498,
      "velocity": 97,
      "chip": "ym2612"
    },
    {
      "channel": 5,
      "note": 86,
      "start": 15.3223,
      "duration": 0.4131,
      "velocity": 118,
      "chip": "ym2612"
    },
    {
      "channel": 2,
      "note": 50,
      "start": 15.4716,
      "duration": 1.1629,
      "velocity": 97,
      "chip": "ym2612"
    },
    {
      "channel": 5,
      "note": 86,
      "start": 15.7355,
      "duration": 0.1498,
      "velocity": 118,
      "chip": "ym2612"
    },
    {
      "channel": 5,
      "note": 86,
      "start": 15.8855,
      "duration": 0.2952,
      "velocity": 118,
      "chip": "ym2612"
    },
    {
      "channel": 3,
      "note": 77,
      "start": 16.1782,
      "duration": 0.1649,
      "velocity": 112,
      "chip": "ym2612"
    },
    {
      "channel": 4,
      "note": 65,
      "start": 16.1804,
      "duration": 0.1633,
      "velocity": 112,
      "chip": "ym2612"
    },
    {
      "channel": 5,
      "note": 86,
      "start": 16.181,
      "duration": 0.3037,
      "velocity": 118,
      "chip": "ym2612"
    },
    {
      "channel": 3,
      "note": 79,
      "start": 16.3433,
      "duration": 0.2917,
      "velocity": 112,
      "chip": "ym2612"
    },
    {
      "channel": 4,
      "note": 67,
      "start": 16.3439,
      "duration": 0.2917,
      "velocity": 112,
      "chip": "ym2612"
    },
    {
      "channel": 5,
      "note": 86,
      "start": 16.4847,
      "duration": 0.4167,
      "velocity": 118,
      "chip": "ym2612"
    },
    {
      "channel": 2,
      "note": 45,
      "start": 16.6346,
      "duration": 0.141,
      "velocity": 97,
      "chip": "ym2612"
    },
    {
      "channel": 3,
      "note": 76,
      "start": 16.6352,
      "duration": 0.2651,
      "velocity": 112,
      "chip": "ym2612"
    },
    {
      "channel": 4,
      "note": 64,
      "start": 16.6357,
      "duration": 0.2651,
      "velocity": 112,
      "chip": "ym2612"
    },
    {
      "channel": 2,
      "note": 48,
      "start": 16.7758,
      "duration": 0.1239,
      "velocity": 97,
      "chip": "ym2612"
    },
    {
      "channel": 2,
      "note": 50,
      "start": 16.8999,
      "duration": 0.1665,
      "velocity": 97,
      "chip": "ym2612"
    },
    {
      "channel": 3,
      "note": 72,
      "start": 16.9005,
      "duration": 0.1665,
      "velocity": 112,
      "chip": "ym2612"
    },
    {
      "channel": 4,
      "note": 60,
      "start": 16.901,
      "duration": 0.1665,
      "velocity": 112,
      "chip": "ym2612"
    },
    {
      "channel": 5,
      "note": 86,
      "start": 16.9016,
      "duration": 0.0817,
      "velocity": 118,
      "chip": "ym2612"
    },
    {
      "channel": 5,
      "note": 86,
      "start": 16.9835,
      "duration": 0.0847,
      "velocity": 118,
      "chip": "ym2612"
    },
    {
      "channel": 2,
      "note": 53,
      "start": 17.0666,
      "duration": 0.1665,
      "velocity": 97,
      "chip": "ym2612"
    },
    {
      "channel": 3,
      "note": 69,
      "start": 17.0671,
      "duration": 7.2943,
      "velocity": 112,
      "chip": "ym2612"
    },
    {
      "channel": 4,
      "note": 57,
      "start": 17.0677,
      "duration": 7.2937,
      "velocity": 112,
      "chip": "ym2612"
    },
    {
      "channel": 5,
      "note": 86,
      "start": 17.0683,
      "duration": 0.4312,
      "velocity": 118,
      "chip": "ym2612"
    },
    {
      "channel": 2,
      "note": 54,
      "start": 17.2332,
      "duration": 0.1249,
      "velocity": 97,
      "chip": "ym2612"
    },
    {
      "channel": 0,
      "note": 48,
      "start": 17.3572,
      "duration": 2.2153,
      "velocity": 123,
      "chip": "ym2612"
    },
    {
      "channel": 1,
      "note": 55,
      "start": 17.3578,
      "duration": 2.2153,
      "velocity": 122,
      "chip": "ym2612"
    },
    {
      "channel": 2,
      "note": 50,
      "start": 17.3584,
      "duration": 0.1405,
      "velocity": 97,
      "chip": "ym2612"
    },
    {
      "channel": 2,
      "note": 62,
      "start": 17.499,
      "duration": 0.1498,
      "velocity": 97,
      "chip": "ym2612"
    },
    {
      "channel": 5,
      "note": 86,
      "start": 17.4997,
      "duration": 0.1498,
      "velocity": 118,
      "chip": "ym2612"
    },
    {
      "channel": 2,
      "note": 48,
      "start": 17.649,
      "duration": 0.1665,
      "velocity": 97,
      "chip": "ym2612"
    },
    {
      "channel": 5,
      "note": 86,
      "start": 17.6497,
      "duration": 0.4138,
      "velocity": 118,
      "chip": "ym2612"
    },
    {
      "channel": 2,
      "note": 50,
      "start": 17.8157,
      "duration": 1.5047,
      "velocity": 97,
      "chip": "ym2612"
    },
    {
      "channel": 5,
      "note": 86,
      "start": 18.0637,
      "duration": 0.1665,
      "velocity": 118,
      "chip": "ym2612"
    },
    {
      "channel": 5,
      "note": 86,
      "start": 18.2303,
      "duration": 1.4674,
      "velocity": 118,
      "chip": "ym2612"
    },
    {
      "channel": 2,
      "note": 60,
      "start": 19.3205,
      "duration": 0.1107,
      "velocity": 97,
      "chip": "ym2612"
    },
    {
      "channel": 2,
      "note": 62,
      "start": 19.4314,
      "duration": 0.1423,
      "velocity": 97,
      "chip": "ym2612"
    },
    {
      "channel": 0,
      "note": 48,
      "start": 19.5726,
      "duration": 4.7888,
      "velocity": 123,
      "chip": "ym2612"
    },
    {
      "channel": 1,
      "note": 58,
      "start": 19.5732,
      "duration": 4.7882,
      "velocity": 122,
      "chip": "ym2612"
    },
    {
      "channel": 2,
      "note": 48,
      "start": 19.5739,
      "duration": 0.1232,
      "velocity": 97,
      "chip": "ym2612"
    },
    {
      "channel": 2,
      "note": 60,
      "start": 19.6972,
      "duration": 0.1665,
      "velocity": 97,
      "chip": "ym2612"
    },
    {
      "channel": 5,
      "note": 86,
      "start": 19.698,
      "duration": 0.1664,
      "velocity": 118,
      "chip": "ym2612"
    },
    {
      "channel": 2,
      "note": 46,
      "start": 19.8639,
      "duration": 0.1665,
      "velocity": 97,
      "chip": "ym2612"
    },
    {
      "channel": 5,
      "note": 86,
      "start": 19.8646,
      "duration": 0.418,
      "velocity": 118,
      "chip": "ym2612"
    },
    {
      "channel": 2,
      "note": 48,
      "start": 20.0305,
      "duration": 1.1503,
      "velocity": 97,
      "chip": "ym2612"
    },
    {
      "channel": 5,
      "note": 86,
      "start": 20.2827,
      "duration": 0.1499,
      "velocity": 118,
      "chip": "ym2612"
    },
    {
      "channel": 5,
      "note": 86,
      "start": 20.4327,
      "duration": 0.3076,
      "velocity": 118,
      "chip": "ym2612"
    },
    {
      "channel": 5,
      "note": 86,
      "start": 20.7405,
      "duration": 0.2906,
      "velocity": 118,
      "chip": "ym2612"
    },
    {
      "channel": 5,
      "note": 86,
      "start": 21.0312,
      "duration": 0.432,
      "velocity": 118,
      "chip": "ym2612"
    },
    {
      "channel": 2,
      "note": 43,
      "start": 21.1811,
      "duration": 0.1407,
      "velocity": 97,
      "chip": "ym2612"
    },
    {
      "channel": 2,
      "note": 46,
      "start": 21.3219,
      "duration": 0.1405,
      "velocity": 97,
      "chip": "ym2612"
    },
    {
      "channel": 2,
      "note": 48,
      "start": 21.4627,
      "duration": 0.1498,
      "velocity": 97,
      "chip": "ym2612"
    },
    {
      "channel": 5,
      "note": 86,
      "start": 21.4634,
      "duration": 0.066,
      "velocity": 118,
      "chip": "ym2612"
    },
    {
      "channel": 5,
      "note": 86,
      "start": 21.5295,
      "duration": 0.0837,
      "velocity": 118,
      "chip": "ym2612"
    },
    {
      "channel": 2,
      "note": 51,
      "start": 21.6127,
      "duration": 0.1665,
      "velocity": 97,
      "chip": "ym2612"
    },
    {
      "channel": 5,
      "note": 86,
      "start": 21.6134,
      "duration": 2.748,
      "velocity": 118,
      "chip": "ym2612"
    },
    {
      "channel": 2,
      "note": 52,
      "start": 21.7793,
      "duration": 2.5821,
      "velocity": 97,
      "chip": "ym2612"
    }
  ]
}