{
  "track_name": "04 - Royal Waltz",
  "duration_sec": 43.145,
  "sample_rate": 44100,
  "note_count": 591,
  "unique_pitches": 22,
  "pitch_range": 34,
  "avg_note_duration": 0.2872,
  "reconstruction_stats": {
    "notes_reconstructed": 591,
    "keyon_events": 591,
    "keyoff_events": 589,
    "orphan_keyons": 2,
    "unique_pitches": 22,
    "pitch_range": 34,
    "avg_duration_sec": 0.2872
  },
  "metadata": {
    "source": "P\\Phantasy Star III\\04 - Royal Waltz.vgz"
  },
  "notes": [
    {
      "channel": 1,
      "note": 54,
      "start": 0.0,
      "duration": 0.8521,
      "velocity": 109,
      "chip": "ym2612"
    },
    {
      "channel": 3,
      "note": 70,
      "start": 0.2813,
      "duration": 0.2852,
      "velocity": 109,
      "chip": "ym2612"
    },
    {
      "channel": 4,
      "note": 66,
      "start": 0.282,
      "duration": 0.2852,
      "velocity": 109,
      "chip": "ym2612"
    },
    {
      "channel": 5,
      "note": 61,
      "start": 0.2828,
      "duration": 0.2852,
      "velocity": 109,
      "chip": "ym2612"
    },
    {
      "channel": 3,
      "note": 70,
      "start": 0.5671,
      "duration": 0.2857,
      "velocity": 109,
      "chip": "ym2612"
    },
    {
      "channel": 4,
      "note": 66,
      "start": 0.5678,
      "duration": 0.2852,
      "velocity": 109,
      "chip": "ym2612"
    },
    {
      "channel": 5,
      "note": 61,
      "start": 0.5685,
      "duration": 0.2849,
      "velocity": 109,
      "chip": "ym2612"
    },
    {
      "channel": 1,
      "note": 54,
      "start": 0.8527,
      "duration": 0.8572,
      "velocity": 109,
      "chip": "ym2612"
    },
    {
      "channel": 3,
      "note": 70,
      "start": 1.1385,
      "duration": 0.2858,
      "velocity": 109,
      "chip": "ym2612"
    },
    {
      "channel": 4,
      "note": 66,
      "start": 1.1392,
      "duration": 0.2859,
      "velocity": 109,
      "chip": "ym2612"
    },
    {
      "channel": 5,
      "note": 61,
      "start": 1.14,
      "duration": 0.2859,
      "velocity": 109,
      "chip": "ym2612"
    },
    {
      "channel": 0,
      "note": 68,
      "start": 1.3763,
      "duration": 0.047,
      "velocity": 95,
      "chip": "ym2612"
    },
    {
      "channel": 0,
      "note": 66,
      "start": 1.4238,
      "duration": 0.1424,
      "velocity": 95,
      "chip": "ym2612"
    },
    {
      "channel": 3,
      "note": 70,
      "start": 1.425,
      "duration": 0.2856,
      "velocity": 109,
      "chip": "ym2612"
    },
    {
      "channel": 4,
      "note": 66,
      "start": 1.4257,
      "duration": 0.2852,
      "velocity": 109,
      "chip": "ym2612"
    },
    {
      "channel": 5,
      "note": 61,
      "start": 1.4264,
      "duration": 0.2848,
      "velocity": 109,
      "chip": "ym2612"
    },
    {
      "channel": 0,
      "note": 65,
      "start": 1.5668,
      "duration": 0.1424,
      "velocity": 95,
      "chip": "ym2612"
    },
    {
      "channel": 0,
      "note": 66,
      "start": 1.7097,
      "duration": 0.4279,
      "velocity": 95,
      "chip": "ym2612"
    },
    {
      "channel": 1,
      "note": 54,
      "start": 1.7105,
      "duration": 0.8563,
      "velocity": 109,
      "chip": "ym2612"
    },
    {
      "channel": 3,
      "note": 70,
      "start": 1.9962,
      "duration": 0.2854,
      "velocity": 109,
      "chip": "ym2612"
    },
    {
      "channel": 4,
      "note": 66,
      "start": 1.9969,
      "duration": 0.2855,
      "velocity": 109,
      "chip": "ym2612"
    },
    {
      "channel": 5,
      "note": 61,
      "start": 1.9977,
      "duration": 0.2855,
      "velocity": 109,
      "chip": "ym2612"
    },
    {
      "channel": 0,
      "note": 68,
      "start": 2.1383,
      "duration": 0.1423,
      "velocity": 95,
      "chip": "ym2612"
    },
    {
      "channel": 0,
      "note": 70,
      "start": 2.2812,
      "duration": 0.2851,
      "velocity": 95,
      "chip": "ym2612"
    },
    {
      "channel": 3,
      "note": 70,
      "start": 2.2823,
      "duration": 0.2853,
      "velocity": 109,
      "chip": "ym2612"
    },
    {
      "channel": 4,
      "note": 66,
      "start": 2.283,
      "duration": 0.2849,
      "velocity": 109,
      "chip": "ym2612"
    },
    {
      "channel": 5,
      "note": 61,
      "start": 2.2838,
      "duration": 0.2845,
      "velocity": 109,
      "chip": "ym2612"
    },
    {
      "channel": 0,
      "note": 70,
      "start": 2.5667,
      "duration": 0.4283,
      "velocity": 95,
      "chip": "ym2612"
    },
    {
      "channel": 1,
      "note": 54,
      "start": 2.5674,
      "duration": 0.857,
      "velocity": 109,
      "chip": "ym2612"
    },
    {
      "channel": 3,
      "note": 70,
      "start": 2.8534,
      "duration": 0.2856,
      "velocity": 109,
      "chip": "ym2612"
    },
    {
      "channel": 4,
      "note": 66,
      "start": 2.8541,
      "duration": 0.2856,
      "velocity": 109,
      "chip": "ym2612"
    },
    {
      "channel": 5,
      "note": 61,
      "start": 2.8548,
      "duration": 0.2856,
      "velocity": 109,
      "chip": "ym2612"
    },
    {
      "channel": 0,
      "note": 71,
      "start": 2.9956,
      "duration": 0.1422,
      "velocity": 95,
      "chip": "ym2612"
    },
    {
      "channel": 0,
      "note": 73,
      "start": 3.1385,
      "duration": 0.2852,
      "velocity": 95,
      "chip": "ym2612"
    },
    {
      "channel": 3,
      "note": 70,
      "start": 3.1395,
      "duration": 0.2856,
      "velocity": 109,
      "chip": "ym2612"
    },
    {
      "channel": 4,
      "note": 66,
      "start": 3.1402,
      "duration": 0.2852,
      "velocity": 109,
      "chip": "ym2612"
    },
    {
      "channel": 5,
      "note": 61,
      "start": 3.141,
      "duration": 0.2847,
      "velocity": 109,
      "chip": "ym2612"
    },
    {
      "channel": 0,
      "note": 73,
      "start": 3.4242,
      "duration": 0.428,
      "velocity": 95,
      "chip": "ym2612"
    },
    {
      "channel": 1,
      "note": 54,
      "start": 3.425,
      "duration": 0.8566,
      "velocity": 109,
      "chip": "ym2612"
    },
    {
      "channel": 3,
      "note": 70,
      "start": 3.7107,
      "duration": 0.2856,
      "velocity": 109,
      "chip": "ym2612"
    },
    {
      "channel": 4,
      "note": 66,
      "start": 3.7114,
      "duration": 0.2856,
      "velocity": 109,
      "chip": "ym2612"
    },
    {
      "channel": 5,
      "note": 61,
      "start": 3.7122,
      "duration": 0.2856,
      "velocity": 109,
      "chip": "ym2612"
    },
    {
      "channel": 0,
      "note": 75,
      "start": 3.8528,
      "duration": 0.1424,
      "velocity": 95,
      "chip": "ym2612"
    },
    {
      "channel": 0,
      "note": 77,
      "start": 3.9958,
      "duration": 0.1422,
      "velocity": 95,
      "chip": "ym2612"
    },
    {
      "channel": 3,
      "note": 70,
      "start": 3.9968,
      "duration": 0.2854,
      "velocity": 109,
      "chip": "ym2612"
    },
    {
      "channel": 4,
      "note": 66,
      "start": 3.9976,
      "duration": 0.2851,
      "velocity": 109,
      "chip": "ym2612"
    },
    {
      "channel": 5,
      "note": 61,
      "start": 3.9983,
      "duration": 0.2846,
      "velocity": 109,
      "chip": "ym2612"
    },
    {
      "channel": 0,
      "note": 78,
      "start": 4.1386,
      "duration": 0.1422,
      "velocity": 95,
      "chip": "ym2612"
    },
    {
      "channel": 0,
      "note": 70,
      "start": 4.2814,
      "duration": 0.2852,
      "velocity": 95,
      "chip": "ym2612"
    },
    {
      "channel": 1,
      "note": 47,
      "start": 4.2821,
      "duration": 0.8568,
      "velocity": 109,
      "chip": "ym2612"
    },
    {
      "channel": 0,
      "note": 71,
      "start": 4.5672,
      "duration": 0.2852,
      "velocity": 95,
      "chip": "ym2612"
    },
    {
      "channel": 3,
      "note": 71,
      "start": 4.5683,
      "duration": 0.2852,
      "velocity": 109,
      "chip": "ym2612"
    },
    {
      "channel": 4,
      "note": 66,
      "start": 4.569,
      "duration": 0.2852,
      "velocity": 109,
      "chip": "ym2612"
    },
    {
      "channel": 5,
      "note": 63,
      "start": 4.5698,
      "duration": 0.2853,
      "velocity": 109,
      "chip": "ym2612"
    },
    {
      "channel": 0,
      "note": 71,
      "start": 4.853,
      "duration": 0.1423,
      "velocity": 95,
      "chip": "ym2612"
    },
    {
      "channel": 3,
      "note": 71,
      "start": 4.8541,
      "duration": 0.2855,
      "velocity": 109,
      "chip": "ym2612"
    },
    {
      "channel": 4,
      "note": 66,
      "start": 4.8548,
      "duration": 0.2851,
      "velocity": 109,
      "chip": "ym2612"
    },
    {
      "channel": 5,
      "note": 63,
      "start": 4.8556,
      "duration": 0.2847,
      "velocity": 109,
      "chip": "ym2612"
    },
    {
      "channel": 0,
      "note": 70,
      "start": 4.9959,
      "duration": 0.1422,
      "velocity": 95,
      "chip": "ym2612"
    },
    {
      "channel": 0,
      "note": 68,
      "start": 5.1388,
      "duration": 0.2852,
      "velocity": 95,
      "chip": "ym2612"
    },
    {
      "channel": 1,
      "note": 56,
      "start": 5.1395,
      "duration": 0.8567,
      "velocity": 109,
      "chip": "ym2612"
    },
    {
      "channel": 0,
      "note": 71,
      "start": 5.4245,
      "duration": 0.1422,
      "velocity": 95,
      "chip": "ym2612"
    },
    {
      "channel": 3,
      "note": 71,
      "start": 5.4256,
      "duration": 0.2851,
      "velocity": 109,
      "chip": "ym2612"
    },
    {
      "channel": 4,
      "note": 68,
      "start": 5.4264,
      "duration": 0.2851,
      "velocity": 109,
      "chip": "ym2612"
    },
    {
      "channel": 5,
      "note": 63,
      "start": 5.4271,
      "duration": 0.2852,
      "velocity": 109,
      "chip": "ym2612"
    },
    {
      "channel": 0,
      "note": 70,
      "start": 5.5673,
      "duration": 0.1423,
      "velocity": 95,
      "chip": "ym2612"
    },
    {
      "channel": 0,
      "note": 68,
      "start": 5.7102,
      "duration": 0.1422,
      "velocity": 95,
      "chip": "ym2612"
    },
    {
      "channel": 3,
      "note": 71,
      "start": 5.7113,
      "duration": 0.2856,
      "velocity": 109,
      "chip": "ym2612"
    },
    {
      "channel": 4,
      "note": 68,
      "start": 5.7121,
      "duration": 0.2852,
      "velocity": 109,
      "chip": "ym2612"
    },
    {
      "channel": 5,
      "note": 63,
      "start": 5.7128,
      "duration": 0.2847,
      "velocity": 109,
      "chip": "ym2612"
    },
    {
      "channel": 0,
      "note": 66,
      "start": 5.853,
      "duration": 0.1424,
      "velocity": 95,
      "chip": "ym2612"
    },
    {
      "channel": 0,
      "note": 65,
      "start": 5.9961,
      "duration": 0.2851,
      "velocity": 95,
      "chip": "ym2612"
    },
    {
      "channel": 1,
      "note": 53,
      "start": 5.9968,
      "duration": 0.8566,
      "velocity": 109,
      "chip": "ym2612"
    },
    {
      "channel": 0,
      "note": 61,
      "start": 6.2818,
      "duration": 0.2852,
      "velocity": 95,
      "chip": "ym2612"
    },
    {
      "channel": 3,
      "note": 71,
      "start": 6.2829,
      "duration": 0.2852,
      "velocity": 109,
      "chip": "ym2612"
    },
    {
      "channel": 4,
      "note": 68,
      "start": 6.2836,
      "duration": 0.2851,
      "velocity": 109,
      "chip": "ym2612"
    },
    {
      "channel": 5,
      "note": 65,
      "start": 6.2843,
      "duration": 0.2852,
      "velocity": 109,
      "chip": "ym2612"
    },
    {
      "channel": 0,
      "note": 63,
      "start": 6.5675,
      "duration": 0.1426,
      "velocity": 95,
      "chip": "ym2612"
    },
    {
      "channel": 3,
      "note": 71,
      "start": 6.5686,
      "duration": 0.2855,
      "velocity": 109,
      "chip": "ym2612"
    },
    {
      "channel": 4,
      "note": 68,
      "start": 6.5693,
      "duration": 0.2851,
      "velocity": 109,
      "chip": "ym2612"
    },
    {
      "channel": 5,
      "note": 65,
      "start": 6.5701,
      "duration": 0.2847,
      "velocity": 109,
      "chip": "ym2612"
    },
    {
      "channel": 0,
      "note": 61,
      "start": 6.7107,
      "duration": 0.1419,
      "velocity": 95,
      "chip": "ym2612"
    },
    {
      "channel": 0,
      "note": 59,
      "start": 6.8532,
      "duration": 0.1424,
      "velocity": 95,
      "chip": "ym2612"
    },
    {
      "channel": 1,
      "note": 49,
      "start": 6.854,
      "duration": 0.8567,
      "velocity": 109,
      "chip": "ym2612"
    },
    {
      "channel": 0,
      "note": 58,
      "start": 6.9962,
      "duration": 0.1423,
      "velocity": 95,
      "chip": "ym2612"
    },
    {
      "channel": 0,
      "note": 59,
      "start": 7.139,
      "duration": 0.1423,
      "velocity": 95,
      "chip": "ym2612"
    },
    {
      "channel": 3,
      "note": 71,
      "start": 7.1401,
      "duration": 0.2852,
      "velocity": 109,
      "chip": "ym2612"
    },
    {
      "channel": 4,
      "note": 68,
      "start": 7.1409,
      "duration": 0.2852,
      "velocity": 109,
      "chip": "ym2612"
    },
    {
      "channel": 5,
      "note": 65,
      "start": 7.1416,
      "duration": 0.2852,
      "velocity": 109,
      "chip": "ym2612"
    },
    {
      "channel": 0,
      "note": 61,
      "start": 7.2819,
      "duration": 0.1423,
      "velocity": 95,
      "chip": "ym2612"
    },
    {
      "channel": 0,
      "note": 59,
      "start": 7.4249,
      "duration": 0.1422,
      "velocity": 95,
      "chip": "ym2612"
    },
    {
      "channel": 3,
      "note": 71,
      "start": 7.4259,
      "duration": 0.2855,
      "velocity": 109,
      "chip": "ym2612"
    },
    {
      "channel": 4,
      "note": 68,
      "start": 7.4266,
      "duration": 0.2852,
      "velocity": 109,
      "chip": "ym2612"
    },
    {
      "channel": 5,
      "note": 65,
      "start": 7.4274,
      "duration": 0.2847,
      "velocity": 109,
      "chip": "ym2612"
    },
    {
      "channel": 0,
      "note": 58,
      "start": 7.5677,
      "duration": 0.1423,
      "velocity": 95,
      "chip": "ym2612"
    },
    {
      "channel": 0,
      "note": 56,
      "start": 7.7106,
      "duration": 0.2851,
      "velocity": 95,
      "chip": "ym2612"
    },
    {
      "channel": 1,
      "note": 54,
      "start": 7.7113,
      "duration": 0.8566,
      "velocity": 109,
      "chip": "ym2612"
    },
    {
      "channel": 0,
      "note": 54,
      "start": 7.9963,
      "duration": 0.2851,
      "velocity": 95,
      "chip": "ym2612"
    },
    {
      "channel": 3,
      "note": 70,
      "start": 7.9974,
      "duration": 0.2851,
      "velocity": 109,
      "chip": "ym2612"
    },
    {
      "channel": 4,
      "note": 66,
      "start": 7.9981,
      "duration": 0.2851,
      "velocity": 109,
      "chip": "ym2612"
    },
    {
      "channel": 5,
      "note": 61,
      "start": 7.9988,
      "duration": 0.2851,
      "velocity": 109,
      "chip": "ym2612"
    },
    {
      "channel": 0,
      "note": 54,
      "start": 8.282,
      "duration": 0.1424,
      "velocity": 95,
      "chip": "ym2612"
    },
    {
      "channel": 3,
      "note": 70,
      "start": 8.2831,
      "duration": 0.2856,
      "velocity": 109,
      "chip": "ym2612"
    },
    {
      "channel": 4,
      "note": 66,
      "start": 8.2838,
      "duration": 0.2851,
      "velocity": 109,
      "chip": "ym2612"
    },
    {
      "channel": 5,
      "note": 61,
      "start": 8.2845,
      "duration": 0.2847,
      "velocity": 109,
      "chip": "ym2612"
    },
    {
      "channel": 0,
      "note": 53,
      "start": 8.4249,
      "duration": 0.1423,
      "velocity": 95,
      "chip": "ym2612"
    },
    {
      "channel": 0,
      "note": 54,
      "start": 8.5678,
      "duration": 0.428,
      "velocity": 95,
      "chip": "ym2612"
    },
    {
      "channel": 1,
      "note": 51,
      "start": 8.5685,
      "duration": 0.8567,
      "velocity": 109,
      "chip": "ym2612"
    },
    {
      "channel": 3,
      "note": 70,
      "start": 8.8542,
      "duration": 0.2856,
      "velocity": 109,
      "chip": "ym2612"
    },
    {
      "channel": 4,
      "note": 66,
      "start": 8.8549,
      "duration": 0.2856,
      "velocity": 109,
      "chip": "ym2612"
    },
    {
      "channel": 5,
      "note": 63,
      "start": 8.8556,
      "duration": 0.2856,
      "velocity": 109,
      "chip": "ym2612"
    },
    {
      "channel": 0,
      "note": 56,
      "start": 8.9963,
      "duration": 0.1424,
      "velocity": 95,
      "chip": "ym2612"
    },
    {
      "channel": 0,
      "note": 58,
      "start": 9.1393,
      "duration": 0.1423,
      "velocity": 95,
      "chip": "ym2612"
    },
    {
      "channel": 3,
      "note": 70,
      "start": 9.1404,
      "duration": 0.2855,
      "velocity": 109,
      "chip": "ym2612"
    },
    {
      "channel": 4,
      "note": 66,
      "start": 9.1411,
      "duration": 0.2851,
      "velocity": 109,
      "chip": "ym2612"
    },
    {
      "channel": 5,
      "note": 63,
      "start": 9.1418,
      "duration": 0.2847,
      "velocity": 109,
      "chip": "ym2612"
    },
    {
      "channel": 0,
      "note": 59,
      "start": 9.2822,
      "duration": 0.1423,
      "velocity": 95,
      "chip": "ym2612"
    },
    {
      "channel": 0,
      "note": 61,
      "start": 9.425,
      "duration": 0.1424,
      "velocity": 95,
      "chip": "ym2612"
    },
    {
      "channel": 1,
      "note": 49,
      "start": 9.4257,
      "duration": 0.8567,
      "velocity": 109,
      "chip": "ym2612"
    },
    {
      "channel": 0,
      "note": 60,
      "start": 9.568,
      "duration": 0.1423,
      "velocity": 95,
      "chip": "ym2612"
    },
    {
      "channel": 0,
      "note": 61,
      "start": 9.7109,
      "duration": 0.1422,
      "velocity": 95,
      "chip": "ym2612"
    },
    {
      "channel": 3,
      "note": 70,
      "start": 9.712,
      "duration": 0.2851,
      "velocity": 109,
      "chip": "ym2612"
    },
    {
      "channel": 4,
      "note": 66,
      "start": 9.7127,
      "duration": 0.2851,
      "velocity": 109,
      "chip": "ym2612"
    },
    {
      "channel": 5,
      "note": 61,
      "start": 9.7135,
      "duration": 0.285,
      "velocity": 109,
      "chip": "ym2612"
    },
    {
      "channel": 0,
      "note": 63,
      "start": 9.8537,
      "duration": 0.1423,
      "velocity": 95,
      "chip": "ym2612"
    },
    {
      "channel": 0,
      "note": 65,
      "start": 9.9965,
      "duration": 0.1424,
      "velocity": 95,
      "chip": "ym2612"
    },
    {
      "channel": 3,
      "note": 70,
      "start": 9.9976,
      "duration": 0.2856,
      "velocity": 109,
      "chip": "ym2612"
    },
    {
      "channel": 4,
      "note": 66,
      "start": 9.9984,
      "duration": 0.2852,
      "velocity": 109,
      "chip": "ym2612"
    },
    {
      "channel": 5,
      "note": 61,
      "start": 9.9991,
      "duration": 0.2848,
      "velocity": 109,
      "chip": "ym2612"
    },
    {
      "channel": 0,
      "note": 66,
      "start": 10.1395,
      "duration": 0.1423,
      "velocity": 95,
      "chip": "ym2612"
    },
    {
      "channel": 0,
      "note": 66,
      "start": 10.2824,
      "duration": 0.1423,
      "velocity": 95,
      "chip": "ym2612"
    },
    {
      "channel": 1,
      "note": 47,
      "start": 10.2831,
      "duration": 0.8567,
      "velocity": 109,
      "chip": "ym2612"
    },
    {
      "channel": 0,
      "note": 65,
      "start": 10.4252,
      "duration": 0.1422,
      "velocity": 95,
      "chip": "ym2612"
    },
    {
      "channel": 0,
      "note": 66,
      "start": 10.568,
      "duration": 0.1423,
      "velocity": 95,
      "chip": "ym2612"
    },
    {
      "channel": 3,
      "note": 71,
      "start": 10.5691,
      "duration": 0.2852,
      "velocity": 109,
      "chip": "ym2612"
    },
    {
      "channel": 4,
      "note": 66,
      "start": 10.5699,
      "duration": 0.2852,
      "velocity": 109,
      "chip": "ym2612"
    },
    {
      "channel": 5,
      "note": 63,
      "start": 10.5706,
      "duration": 0.2852,
      "velocity": 109,
      "chip": "ym2612"
    },
    {
      "channel": 0,
      "note": 70,
      "start": 10.7109,
      "duration": 0.1424,
      "velocity": 95,
      "chip": "ym2612"
    },
    {
      "channel": 0,
      "note": 68,
      "start": 10.8539,
      "duration": 0.1423,
      "velocity": 95,
      "chip": "ym2612"
    },
    {
      "channel": 3,
      "note": 71,
      "start": 10.8549,
      "duration": 0.2856,
      "velocity": 109,
      "chip": "ym2612"
    },
    {
      "channel": 4,
      "note": 66,
      "start": 10.8556,
      "duration": 0.2852,
      "velocity": 109,
      "chip": "ym2612"
    },
    {
      "channel": 5,
      "note": 63,
      "start": 10.8564,
      "duration": 0.2847,
      "velocity": 109,
      "chip": "ym2612"
    },
    {
      "channel": 0,
      "note": 66,
      "start": 10.9967,
      "duration": 0.1423,
      "velocity": 95,
      "chip": "ym2612"
    },
    {
      "channel": 0,
      "note": 66,
      "start": 11.1396,
      "duration": 0.2852,
      "velocity": 95,
      "chip": "ym2612"
    },
    {
      "channel": 1,
      "note": 46,
      "start": 11.1404,
      "duration": 0.8567,
      "velocity": 109,
      "chip": "ym2612"
    },
    {
      "channel": 0,
      "note": 65,
      "start": 11.4254,
      "duration": 0.2851,
      "velocity": 95,
      "chip": "ym2612"
    },
    {
      "channel": 3,
      "note": 70,
      "start": 11.4264,
      "duration": 0.2851,
      "velocity": 109,
      "chip": "ym2612"
    },
    {
      "channel": 4,
      "note": 66,
      "start": 11.4272,
      "duration": 0.2852,
      "velocity": 109,
      "chip": "ym2612"
    },
    {
      "channel": 5,
      "note": 61,
      "start": 11.4279,
      "duration": 0.2853,
      "velocity": 109,
      "chip": "ym2612"
    },
    {
      "channel": 0,
      "note": 66,
      "start": 11.711,
      "duration": 0.2853,
      "velocity": 95,
      "chip": "ym2612"
    },
    {
      "channel": 3,
      "note": 70,
      "start": 11.7122,
      "duration": 0.2856,
      "velocity": 109,
      "chip": "ym2612"
    },
    {
      "channel": 4,
      "note": 66,
      "start": 11.7129,
      "duration": 0.2852,
      "velocity": 109,
      "chip": "ym2612"
    },
    {
      "channel": 5,
      "note": 61,
      "start": 11.7137,
      "duration": 0.2847,
      "velocity": 109,
      "chip": "ym2612"
    },
    {
      "channel": 0,
      "note": 68,
      "start": 11.9969,
      "duration": 0.428,
      "velocity": 95,
      "chip": "ym2612"
    },
    {
      "channel": 1,
      "note": 56,
      "start": 11.9976,
      "duration": 0.8567,
      "velocity": 109,
      "chip": "ym2612"
    },
    {
      "channel": 3,
      "note": 71,
      "start": 12.2833,
      "duration": 0.2856,
      "velocity": 109,
      "chip": "ym2612"
    },
    {
      "channel": 4,
      "note": 68,
      "start": 12.284,
      "duration": 0.2856,
      "velocity": 109,
      "chip": "ym2612"
    },
    {
      "channel": 5,
      "note": 63,
      "start": 12.2848,
      "duration": 0.2856,
      "velocity": 109,
      "chip": "ym2612"
    },
    {
      "channel": 0,
      "note": 80,
      "start": 12.4256,
      "duration": 0.1422,
      "velocity": 95,
      "chip": "ym2612"
    },
    {
      "channel": 0,
      "note": 68,
      "start": 12.5684,
      "duration": 0.1424,
      "velocity": 95,
      "chip": "ym2612"
    },
    {
      "channel": 3,
      "note": 71,
      "start": 12.5694,
      "duration": 0.2856,
      "velocity": 109,
      "chip": "ym2612"
    },
    {
      "channel": 4,
      "note": 68,
      "start": 12.5701,
      "duration": 0.2852,
      "velocity": 109,
      "chip": "ym2612"
    },
    {
      "channel": 5,
      "note": 63,
      "start": 12.5709,
      "duration": 0.2847,
      "velocity": 109,
      "chip": "ym2612"
    },
    {
      "channel": 0,
      "note": 65,
      "start": 12.8541,
      "duration": 0.1423,
      "velocity": 95,
      "chip": "ym2612"
    },
    {
      "channel": 1,
      "note": 53,
      "start": 12.8549,
      "duration": 0.8567,
      "velocity": 109,
      "chip": "ym2612"
    },
    {
      "channel": 0,
      "note": 66,
      "start": 12.997,
      "duration": 0.1423,
      "velocity": 95,
      "chip": "ym2612"
    },
    {
      "channel": 0,
      "note": 65,
      "start": 13.1399,
      "duration": 0.1424,
      "velocity": 95,
      "chip": "ym2612"
    },
    {
      "channel": 3,
      "note": 71,
      "start": 13.141,
      "duration": 0.2854,
      "velocity": 109,
      "chip": "ym2612"
    },
    {
      "channel": 4,
      "note": 68,
      "start": 13.1416,
      "duration": 0.2855,
      "velocity": 109,
      "chip": "ym2612"
    },
    {
      "channel": 5,
      "note": 65,
      "start": 13.1424,
      "duration": 0.2855,
      "velocity": 109,
      "chip": "ym2612"
    },
    {
      "channel": 0,
      "note": 63,
      "start": 13.2828,
      "duration": 0.1426,
      "velocity": 95,
      "chip": "ym2612"
    },
    {
      "channel": 0,
      "note": 61,
      "start": 13.4259,
      "duration": 0.142,
      "velocity": 95,
      "chip": "ym2612"
    },
    {
      "channel": 3,
      "note": 71,
      "start": 13.427,
      "duration": 0.2853,
      "velocity": 109,
      "chip": "ym2612"
    },
    {
      "channel": 4,
      "note": 68,
      "start": 13.4277,
      "duration": 0.2849,
      "velocity": 109,
      "chip": "ym2612"
    },
    {
      "channel": 5,
      "note": 65,
      "start": 13.4285,
      "duration": 0.2844,
      "velocity": 109,
      "chip": "ym2612"
    },
    {
      "channel": 0,
      "note": 63,
      "start": 13.5685,
      "duration": 0.1423,
      "velocity": 95,
      "chip": "ym2612"
    },
    {
      "channel": 0,
      "note": 61,
      "start": 13.7114,
      "duration": 0.1424,
      "velocity": 95,
      "chip": "ym2612"
    },
    {
      "channel": 1,
      "note": 49,
      "start": 13.7122,
      "duration": 0.8566,
      "velocity": 109,
      "chip": "ym2612"
    },
    {
      "channel": 0,
      "note": 59,
      "start": 13.8543,
      "duration": 0.1422,
      "velocity": 95,
      "chip": "ym2612"
    },
    {
      "channel": 0,
      "note": 58,
      "start": 13.9971,
      "duration": 0.1424,
      "velocity": 95,
      "chip": "ym2612"
    },
    {
      "channel": 3,
      "note": 71,
      "start": 13.9982,
      "duration": 0.2852,
      "velocity": 109,
      "chip": "ym2612"
    },
    {
      "channel": 4,
      "note": 68,
      "start": 13.999,
      "duration": 0.2852,
      "velocity": 109,
      "chip": "ym2612"
    },
    {
      "channel": 5,
      "note": 65,
      "start": 13.9997,
      "duration": 0.2852,
      "velocity": 109,
      "chip": "ym2612"
    },
    {
      "channel": 0,
      "note": 59,
      "start": 14.1401,
      "duration": 0.1422,
      "velocity": 95,
      "chip": "ym2612"
    },
    {
      "channel": 0,
      "note": 58,
      "start": 14.2829,
      "duration": 0.1422,
      "velocity": 95,
      "chip": "ym2612"
    },
    {
      "channel": 3,
      "note": 71,
      "start": 14.284,
      "duration": 0.2855,
      "velocity": 109,
      "chip": "ym2612"
    },
    {
      "channel": 4,
      "note": 68,
      "start": 14.2847,
      "duration": 0.2851,
      "velocity": 109,
      "chip": "ym2612"
    },
    {
      "channel": 5,
      "note": 65,
      "start": 14.2855,
      "duration": 0.2847,
      "velocity": 109,
      "chip": "ym2612"
    },
    {
      "channel": 0,
      "note": 56,
      "start": 14.4257,
      "duration": 0.1423,
      "velocity": 95,
      "chip": "ym2612"
    },
    {
      "channel": 0,
      "note": 58,
      "start": 14.5687,
      "duration": 0.2851,
      "velocity": 95,
      "chip": "ym2612"
    },
    {
      "channel": 1,
      "note": 54,
      "start": 14.5694,
      "duration": 0.8569,
      "velocity": 109,
      "chip": "ym2612"
    },
    {
      "channel": 0,
      "note": 54,
      "start": 14.8544,
      "duration": 0.2377,
      "velocity": 95,
      "chip": "ym2612"
    },
    {
      "channel": 3,
      "note": 70,
      "start": 14.8554,
      "duration": 0.2852,
      "velocity": 109,
      "chip": "ym2612"
    },
    {
      "channel": 4,
      "note": 66,
      "start": 14.8562,
      "duration": 0.2852,
      "velocity": 109,
      "chip": "ym2612"
    },
    {
      "channel": 5,
      "note": 61,
      "start": 14.8569,
      "duration": 0.2853,
      "velocity": 109,
      "chip": "ym2612"
    },
    {
      "channel": 0,
      "note": 68,
      "start": 15.0926,
      "duration": 0.047,
      "velocity": 95,
      "chip": "ym2612"
    },
    {
      "channel": 0,
      "note": 66,
      "start": 15.1402,
      "duration": 0.1422,
      "velocity": 95,
      "chip": "ym2612"
    },
    {
      "channel": 3,
      "note": 70,
      "start": 15.1413,
      "duration": 0.2858,
      "velocity": 109,
      "chip": "ym2612"
    },
    {
      "channel": 4,
      "note": 66,
      "start": 15.142,
      "duration": 0.2855,
      "velocity": 109,
      "chip": "ym2612"
    },
    {
      "channel": 5,
      "note": 61,
      "start": 15.1428,
      "duration": 0.2852,
      "velocity": 109,
      "chip": "ym2612"
    },
    {
      "channel": 0,
      "note": 65,
      "start": 15.2831,
      "duration": 0.1424,
      "velocity": 95,
      "chip": "ym2612"
    },
    {
      "channel": 0,
      "note": 66,
      "start": 15.4261,
      "duration": 0.4279,
      "velocity": 95,
      "chip": "ym2612"
    },
    {
      "channel": 1,
      "note": 54,
      "start": 15.4269,
      "duration": 0.8563,
      "velocity": 109,
      "chip": "ym2612"
    },
    {
      "channel": 3,
      "note": 70,
      "start": 15.7124,
      "duration": 0.2856,
      "velocity": 109,
      "chip": "ym2612"
    },
    {
      "channel": 4,
      "note": 66,
      "start": 15.7132,
      "duration": 0.2856,
      "velocity": 109,
      "chip": "ym2612"
    },
    {
      "channel": 5,
      "note": 61,
      "start": 15.7139,
      "duration": 0.2856,
      "velocity": 109,
      "chip": "ym2612"
    },
    {
      "channel": 0,
      "note": 68,
      "start": 15.8546,
      "duration": 0.1424,
      "velocity": 95,
      "chip": "ym2612"
    },
    {
      "channel": 0,
      "note": 70,
      "start": 15.9976,
      "duration": 0.2851,
      "velocity": 95,
      "chip": "ym2612"
    },
    {
      "channel": 3,
      "note": 70,
      "start": 15.9986,
      "duration": 0.2853,
      "velocity": 109,
      "chip": "ym2612"
    },
    {
      "channel": 4,
      "note": 66,
      "start": 15.9993,
      "duration": 0.2849,
      "velocity": 109,
      "chip": "ym2612"
    },
    {
      "channel": 5,
      "note": 61,
      "start": 16.0001,
      "duration": 0.2845,
      "velocity": 109,
      "chip": "ym2612"
    },
    {
      "channel": 0,
      "note": 70,
      "start": 16.2831,
      "duration": 0.4281,
      "velocity": 95,
      "chip": "ym2612"
    },
    {
      "channel": 1,
      "note": 54,
      "start": 16.2838,
      "duration": 0.8569,
      "velocity": 109,
      "chip": "ym2612"
    },
    {
      "channel": 3,
      "note": 70,
      "start": 16.5697,
      "duration": 0.2856,
      "velocity": 109,
      "chip": "ym2612"
    },
    {
      "channel": 4,
      "note": 66,
      "start": 16.5704,
      "duration": 0.2856,
      "velocity": 109,
      "chip": "ym2612"
    },
    {
      "channel": 5,
      "note": 61,
      "start": 16.5712,
      "duration": 0.2856,
      "velocity": 109,
      "chip": "ym2612"
    },
    {
      "channel": 0,
      "note": 71,
      "start": 16.7119,
      "duration": 0.1423,
      "velocity": 95,
      "chip": "ym2612"
    },
    {
      "channel": 0,
      "note": 73,
      "start": 16.8548,
      "duration": 0.2851,
      "velocity": 95,
      "chip": "ym2612"
    },
    {
      "channel": 3,
      "note": 70,
      "start": 16.8559,
      "duration": 0.2855,
      "velocity": 109,
      "chip": "ym2612"
    },
    {
      "channel": 4,
      "note": 66,
      "start": 16.8566,
      "duration": 0.2851,
      "velocity": 109,
      "chip": "ym2612"
    },
    {
      "channel": 5,
      "note": 61,
      "start": 16.8573,
      "duration": 0.2847,
      "velocity": 109,
      "chip": "ym2612"
    },
    {
      "channel": 0,
      "note": 73,
      "start": 17.1405,
      "duration": 0.428,
      "velocity": 95,
      "chip": "ym2612"
    },
    {
      "channel": 1,
      "note": 54,
      "start": 17.1413,
      "duration": 0.8566,
      "velocity": 109,
      "chip": "ym2612"
    },
    {
      "channel": 3,
      "note": 70,
      "start": 17.4269,
      "duration": 0.2856,
      "velocity": 109,
      "chip": "ym2612"
    },
    {
      "channel": 4,
      "note": 66,
      "start": 17.4276,
      "duration": 0.2857,
      "velocity": 109,
      "chip": "ym2612"
    },
    {
      "channel": 5,
      "note": 61,
      "start": 17.4285,
      "duration": 0.2856,
      "velocity": 109,
      "chip": "ym2612"
    },
    {
      "channel": 0,
      "note": 75,
      "start": 17.5691,
      "duration": 0.1423,
      "velocity": 95,
      "chip": "ym2612"
    },
    {
      "channel": 0,
      "note": 77,
      "start": 17.7121,
      "duration": 0.1422,
      "velocity": 95,
      "chip": "ym2612"
    },
    {
      "channel": 3,
      "note": 70,
      "start": 17.7132,
      "duration": 0.2854,
      "velocity": 109,
      "chip": "ym2612"
    },
    {
      "channel": 4,
      "note": 66,
      "start": 17.7139,
      "duration": 0.285,
      "velocity": 109,
      "chip": "ym2612"
    },
    {
      "channel": 5,
      "note": 61,
      "start": 17.7146,
      "duration": 0.2846,
      "velocity": 109,
      "chip": "ym2612"
    },
    {
      "channel": 0,
      "note": 78,
      "start": 17.8549,
      "duration": 0.1422,
      "velocity": 95,
      "chip": "ym2612"
    },
    {
      "channel": 0,
      "note": 70,
      "start": 17.9978,
      "duration": 0.2851,
      "velocity": 95,
      "chip": "ym2612"
    },
    {
      "channel": 1,
      "note": 47,
      "start": 17.9985,
      "duration": 0.8567,
      "velocity": 109,
      "chip": "ym2612"
    },
    {
      "channel": 0,
      "note": 71,
      "start": 18.2834,
      "duration": 0.2853,
      "velocity": 95,
      "chip": "ym2612"
    },
    {
      "channel": 3,
      "note": 71,
      "start": 18.2845,
      "duration": 0.2853,
      "velocity": 109,
      "chip": "ym2612"
    },
    {
      "channel": 4,
      "note": 66,
      "start": 18.2853,
      "duration": 0.2853,
      "velocity": 109,
      "chip": "ym2612"
    },
    {
      "channel": 5,
      "note": 63,
      "start": 18.286,
      "duration": 0.2853,
      "velocity": 109,
      "chip": "ym2612"
    },
    {
      "channel": 0,
      "note": 71,
      "start": 18.5693,
      "duration": 0.1422,
      "velocity": 95,
      "chip": "ym2612"
    },
    {
      "channel": 3,
      "note": 71,
      "start": 18.5704,
      "duration": 0.2854,
      "velocity": 109,
      "chip": "ym2612"
    },
    {
      "channel": 4,
      "note": 66,
      "start": 18.5712,
      "duration": 0.285,
      "velocity": 109,
      "chip": "ym2612"
    },
    {
      "channel": 5,
      "note": 63,
      "start": 18.5719,
      "duration": 0.2846,
      "velocity": 109,
      "chip": "ym2612"
    },
    {
      "channel": 0,
      "note": 70,
      "start": 18.7122,
      "duration": 0.1421,
      "velocity": 95,
      "chip": "ym2612"
    },
    {
      "channel": 0,
      "note": 68,
      "start": 18.855,
      "duration": 0.2852,
      "velocity": 95,
      "chip": "ym2612"
    },
    {
      "channel": 1,
      "note": 56,
      "start": 18.8557,
      "duration": 0.8568,
      "velocity": 109,
      "chip": "ym2612"
    },
    {
      "channel": 0,
      "note": 71,
      "start": 19.1408,
      "duration": 0.1423,
      "velocity": 95,
      "chip": "ym2612"
    },
    {
      "channel": 3,
      "note": 71,
      "start": 19.1419,
      "duration": 0.2851,
      "velocity": 109,
      "chip": "ym2612"
    },
    {
      "channel": 4,
      "note": 68,
      "start": 19.1427,
      "duration": 0.2851,
      "velocity": 109,
      "chip": "ym2612"
    },
    {
      "channel": 5,
      "note": 63,
      "start": 19.1434,
      "duration": 0.2852,
      "velocity": 109,
      "chip": "ym2612"
    },
    {
      "channel": 0,
      "note": 70,
      "start": 19.2837,
      "duration": 0.1422,
      "velocity": 95,
      "chip": "ym2612"
    },
    {
      "channel": 0,
      "note": 68,
      "start": 19.4265,
      "duration": 0.1424,
      "velocity": 95,
      "chip": "ym2612"
    },
    {
      "channel": 3,
      "note": 71,
      "start": 19.4276,
      "duration": 0.2856,
      "velocity": 109,
      "chip": "ym2612"
    },
    {
      "channel": 4,
      "note": 68,
      "start": 19.4284,
      "duration": 0.2851,
      "velocity": 109,
      "chip": "ym2612"
    },
    {
      "channel": 5,
      "note": 63,
      "start": 19.4292,
      "duration": 0.2846,
      "velocity": 109,
      "chip": "ym2612"
    },
    {
      "channel": 0,
      "note": 66,
      "start": 19.5694,
      "duration": 0.1422,
      "velocity": 95,
      "chip": "ym2612"
    },
    {
      "channel": 0,
      "note": 65,
      "start": 19.7123,
      "duration": 0.2851,
      "velocity": 95,
      "chip": "ym2612"
    },
    {
      "channel": 1,
      "note": 53,
      "start": 19.713,
      "duration": 0.8567,
      "velocity": 109,
      "chip": "ym2612"
    },
    {
      "channel": 0,
      "note": 61,
      "start": 19.998,
      "duration": 0.2852,
      "velocity": 95,
      "chip": "ym2612"
    },
    {
      "channel": 3,
      "note": 71,
      "start": 19.9991,
      "duration": 0.2852,
      "velocity": 109,
      "chip": "ym2612"
    },
    {
      "channel": 4,
      "note": 68,
      "start": 19.9998,
      "duration": 0.2852,
      "velocity": 109,
      "chip": "ym2612"
    },
    {
      "channel": 5,
      "note": 65,
      "start": 20.0005,
      "duration": 0.2852,
      "velocity": 109,
      "chip": "ym2612"
    },
    {
      "channel": 0,
      "note": 63,
      "start": 20.2838,
      "duration": 0.1422,
      "velocity": 95,
      "chip": "ym2612"
    },
    {
      "channel": 3,
      "note": 71,
      "start": 20.2849,
      "duration": 0.2855,
      "velocity": 109,
      "chip": "ym2612"
    },
    {
      "channel": 4,
      "note": 68,
      "start": 20.2857,
      "duration": 0.285,
      "velocity": 109,
      "chip": "ym2612"
    },
    {
      "channel": 5,
      "note": 65,
      "start": 20.2864,
      "duration": 0.2846,
      "velocity": 109,
      "chip": "ym2612"
    },
    {
      "channel": 0,
      "note": 61,
      "start": 20.4266,
      "duration": 0.1423,
      "velocity": 95,
      "chip": "ym2612"
    },
    {
      "channel": 0,
      "note": 59,
      "start": 20.5695,
      "duration": 0.1424,
      "velocity": 95,
      "chip": "ym2612"
    },
    {
      "channel": 1,
      "note": 49,
      "start": 20.5703,
      "duration": 0.8567,
      "velocity": 109,
      "chip": "ym2612"
    },
    {
      "channel": 0,
      "note": 58,
      "start": 20.7124,
      "duration": 0.1423,
      "velocity": 95,
      "chip": "ym2612"
    },
    {
      "channel": 0,
      "note": 59,
      "start": 20.8554,
      "duration": 0.1422,
      "velocity": 95,
      "chip": "ym2612"
    },
    {
      "channel": 3,
      "note": 71,
      "start": 20.8565,
      "duration": 0.2852,
      "velocity": 109,
      "chip": "ym2612"
    },
    {
      "channel": 4,
      "note": 68,
      "start": 20.8572,
      "duration": 0.2852,
      "velocity": 109,
      "chip": "ym2612"
    },
    {
      "channel": 5,
      "note": 65,
      "start": 20.8579,
      "duration": 0.2852,
      "velocity": 109,
      "chip": "ym2612"
    },
    {
      "channel": 0,
      "note": 61,
      "start": 20.9982,
      "duration": 0.1424,
      "velocity": 95,
      "chip": "ym2612"
    },
    {
      "channel": 0,
      "note": 59,
      "start": 21.1411,
      "duration": 0.1422,
      "velocity": 95,
      "chip": "ym2612"
    },
    {
      "channel": 3,
      "note": 71,
      "start": 21.1422,
      "duration": 0.2854,
      "velocity": 109,
      "chip": "ym2612"
    },
    {
      "channel": 4,
      "note": 68,
      "start": 21.1429,
      "duration": 0.285,
      "velocity": 109,
      "chip": "ym2612"
    },
    {
      "channel": 5,
      "note": 65,
      "start": 21.1437,
      "duration": 0.2847,
      "velocity": 109,
      "chip": "ym2612"
    },
    {
      "channel": 0,
      "note": 58,
      "start": 21.284,
      "duration": 0.1422,
      "velocity": 95,
      "chip": "ym2612"
    },
    {
      "channel": 0,
      "note": 56,
      "start": 21.4268,
      "duration": 0.2852,
      "velocity": 95,
      "chip": "ym2612"
    },
    {
      "channel": 1,
      "note": 54,
      "start": 21.4275,
      "duration": 0.8567,
      "velocity": 109,
      "chip": "ym2612"
    },
    {
      "channel": 0,
      "note": 54,
      "start": 21.7126,
      "duration": 0.2851,
      "velocity": 95,
      "chip": "ym2612"
    },
    {
      "channel": 3,
      "note": 70,
      "start": 21.7138,
      "duration": 0.285,
      "velocity": 109,
      "chip": "ym2612"
    },
    {
      "channel": 4,
      "note": 66,
      "start": 21.7145,
      "duration": 0.285,
      "velocity": 109,
      "chip": "ym2612"
    },
    {
      "channel": 5,
      "note": 61,
      "start": 21.7152,
      "duration": 0.285,
      "velocity": 109,
      "chip": "ym2612"
    },
    {
      "channel": 0,
      "note": 54,
      "start": 21.9983,
      "duration": 0.1424,
      "velocity": 95,
      "chip": "ym2612"
    },
    {
      "channel": 3,
      "note": 70,
      "start": 21.9993,
      "duration": 0.2856,
      "velocity": 109,
      "chip": "ym2612"
    },
    {
      "channel": 4,
      "note": 66,
      "start": 22.0001,
      "duration": 0.2852,
      "velocity": 109,
      "chip": "ym2612"
    },
    {
      "channel": 5,
      "note": 61,
      "start": 22.0008,
      "duration": 0.2848,
      "velocity": 109,
      "chip": "ym2612"
    },
    {
      "channel": 0,
      "note": 53,
      "start": 22.1413,
      "duration": 0.1422,
      "velocity": 95,
      "chip": "ym2612"
    },
    {
      "channel": 0,
      "note": 54,
      "start": 22.2841,
      "duration": 0.428,
      "velocity": 95,
      "chip": "ym2612"
    },
    {
      "channel": 1,
      "note": 51,
      "start": 22.2848,
      "duration": 0.8568,
      "velocity": 109,
      "chip": "ym2612"
    },
    {
      "channel": 3,
      "note": 70,
      "start": 22.5706,
      "duration": 0.2856,
      "velocity": 109,
      "chip": "ym2612"
    },
    {
      "channel": 4,
      "note": 66,
      "start": 22.5714,
      "duration": 0.2856,
      "velocity": 109,
      "chip": "ym2612"
    },
    {
      "channel": 5,
      "note": 63,
      "start": 22.572,
      "duration": 0.2856,
      "velocity": 109,
      "chip": "ym2612"
    },
    {
      "channel": 0,
      "note": 56,
      "start": 22.7127,
      "duration": 0.1424,
      "velocity": 95,
      "chip": "ym2612"
    },
    {
      "channel": 0,
      "note": 58,
      "start": 22.8556,
      "duration": 0.1423,
      "velocity": 95,
      "chip": "ym2612"
    },
    {
      "channel": 3,
      "note": 70,
      "start": 22.8567,
      "duration": 0.2855,
      "velocity": 109,
      "chip": "ym2612"
    },
    {
      "channel": 4,
      "note": 66,
      "start": 22.8575,
      "duration": 0.2851,
      "velocity": 109,
      "chip": "ym2612"
    },
    {
      "channel": 5,
      "note": 63,
      "start": 22.8582,
      "duration": 0.2847,
      "velocity": 109,
      "chip": "ym2612"
    },
    {
      "channel": 0,
      "note": 59,
      "start": 22.9985,
      "duration": 0.1422,
      "velocity": 95,
      "chip": "ym2612"
    },
    {
      "channel": 0,
      "note": 61,
      "start": 23.1413,
      "duration": 0.1423,
      "velocity": 95,
      "chip": "ym2612"
    },
    {
      "channel": 1,
      "note": 49,
      "start": 23.1421,
      "duration": 0.8567,
      "velocity": 109,
      "chip": "ym2612"
    },
    {
      "channel": 0,
      "note": 60,
      "start": 23.2842,
      "duration": 0.1423,
      "velocity": 95,
      "chip": "ym2612"
    },
    {
      "channel": 0,
      "note": 61,
      "start": 23.4271,
      "duration": 0.1424,
      "velocity": 95,
      "chip": "ym2612"
    },
    {
      "channel": 3,
      "note": 70,
      "start": 23.4282,
      "duration": 0.2852,
      "velocity": 109,
      "chip": "ym2612"
    },
    {
      "channel": 4,
      "note": 66,
      "start": 23.429,
      "duration": 0.2852,
      "velocity": 109,
      "chip": "ym2612"
    },
    {
      "channel": 5,
      "note": 61,
      "start": 23.4297,
      "duration": 0.2852,
      "velocity": 109,
      "chip": "ym2612"
    },
    {
      "channel": 0,
      "note": 63,
      "start": 23.57,
      "duration": 0.1423,
      "velocity": 95,
      "chip": "ym2612"
    },
    {
      "channel": 0,
      "note": 65,
      "start": 23.7129,
      "duration": 0.1422,
      "velocity": 95,
      "chip": "ym2612"
    },
    {
      "channel": 3,
      "note": 70,
      "start": 23.714,
      "duration": 0.2854,
      "velocity": 109,
      "chip": "ym2612"
    },
    {
      "channel": 4,
      "note": 66,
      "start": 23.7147,
      "duration": 0.2851,
      "velocity": 109,
      "chip": "ym2612"
    },
    {
      "channel": 5,
      "note": 61,
      "start": 23.7155,
      "duration": 0.2846,
      "velocity": 109,
      "chip": "ym2612"
    },
    {
      "channel": 0,
      "note": 66,
      "start": 23.8557,
      "duration": 0.1423,
      "velocity": 95,
      "chip": "ym2612"
    },
    {
      "channel": 0,
      "note": 66,
      "start": 23.9986,
      "duration": 0.1424,
      "velocity": 95,
      "chip": "ym2612"
    },
    {
      "channel": 1,
      "note": 47,
      "start": 23.9993,
      "duration": 0.8567,
      "velocity": 109,
      "chip": "ym2612"
    },
    {
      "channel": 0,
      "note": 65,
      "start": 24.1415,
      "duration": 0.1423,
      "velocity": 95,
      "chip": "ym2612"
    },
    {
      "channel": 0,
      "note": 66,
      "start": 24.2844,
      "duration": 0.1423,
      "velocity": 95,
      "chip": "ym2612"
    },
    {
      "channel": 3,
      "note": 71,
      "start": 24.2855,
      "duration": 0.2851,
      "velocity": 109,
      "chip": "ym2612"
    },
    {
      "channel": 4,
      "note": 66,
      "start": 24.2862,
      "duration": 0.2851,
      "velocity": 109,
      "chip": "ym2612"
    },
    {
      "channel": 5,
      "note": 63,
      "start": 24.2869,
      "duration": 0.2851,
      "velocity": 109,
      "chip": "ym2612"
    },
    {
      "channel": 0,
      "note": 70,
      "start": 24.4273,
      "duration": 0.1422,
      "velocity": 95,
      "chip": "ym2612"
    },
    {
      "channel": 0,
      "note": 68,
      "start": 24.5701,
      "duration": 0.1424,
      "velocity": 95,
      "chip": "ym2612"
    },
    {
      "channel": 3,
      "note": 71,
      "start": 24.5712,
      "duration": 0.2856,
      "velocity": 109,
      "chip": "ym2612"
    },
    {
      "channel": 4,
      "note": 66,
      "start": 24.5719,
      "duration": 0.2852,
      "velocity": 109,
      "chip": "ym2612"
    },
    {
      "channel": 5,
      "note": 63,
      "start": 24.5726,
      "duration": 0.2848,
      "velocity": 109,
      "chip": "ym2612"
    },
    {
      "channel": 0,
      "note": 66,
      "start": 24.713,
      "duration": 0.1423,
      "velocity": 95,
      "chip": "ym2612"
    },
    {
      "channel": 0,
      "note": 66,
      "start": 24.856,
      "duration": 0.2852,
      "velocity": 95,
      "chip": "ym2612"
    },
    {
      "channel": 1,
      "note": 46,
      "start": 24.8566,
      "duration": 0.8567,
      "velocity": 109,
      "chip": "ym2612"
    },
    {
      "channel": 0,
      "note": 65,
      "start": 25.1417,
      "duration": 0.2851,
      "velocity": 95,
      "chip": "ym2612"
    },
    {
      "channel": 3,
      "note": 70,
      "start": 25.1428,
      "duration": 0.2851,
      "velocity": 109,
      "chip": "ym2612"
    },
    {
      "channel": 4,
      "note": 66,
      "start": 25.1435,
      "duration": 0.2852,
      "velocity": 109,
      "chip": "ym2612"
    },
    {
      "channel": 5,
      "note": 61,
      "start": 25.1442,
      "duration": 0.2852,
      "velocity": 109,
      "chip": "ym2612"
    },
    {
      "channel": 0,
      "note": 66,
      "start": 25.4274,
      "duration": 0.2852,
      "velocity": 95,
      "chip": "ym2612"
    },
    {
      "channel": 3,
      "note": 70,
      "start": 25.4285,
      "duration": 0.2856,
      "velocity": 109,
      "chip": "ym2612"
    },
    {
      "channel": 4,
      "note": 66,
      "start": 25.4293,
      "duration": 0.2851,
      "velocity": 109,
      "chip": "ym2612"
    },
    {
      "channel": 5,
      "note": 61,
      "start": 25.43,
      "duration": 0.2847,
      "velocity": 109,
      "chip": "ym2612"
    },
    {
      "channel": 0,
      "note": 68,
      "start": 25.7132,
      "duration": 0.4281,
      "velocity": 95,
      "chip": "ym2612"
    },
    {
      "channel": 1,
      "note": 56,
      "start": 25.7139,
      "duration": 0.8568,
      "velocity": 109,
      "chip": "ym2612"
    },
    {
      "channel": 3,
      "note": 71,
      "start": 25.9996,
      "duration": 0.2856,
      "velocity": 109,
      "chip": "ym2612"
    },
    {
      "channel": 4,
      "note": 68,
      "start": 26.0003,
      "duration": 0.2856,
      "velocity": 109,
      "chip": "ym2612"
    },
    {
      "channel": 5,
      "note": 63,
      "start": 26.0011,
      "duration": 0.2856,
      "velocity": 109,
      "chip": "ym2612"
    },
    {
      "channel": 0,
      "note": 80,
      "start": 26.1418,
      "duration": 0.1422,
      "velocity": 95,
      "chip": "ym2612"
    },
    {
      "channel": 0,
      "note": 68,
      "start": 26.2846,
      "duration": 0.1423,
      "velocity": 95,
      "chip": "ym2612"
    },
    {
      "channel": 3,
      "note": 71,
      "start": 26.2857,
      "duration": 0.2856,
      "velocity": 109,
      "chip": "ym2612"
    },
    {
      "channel": 4,
      "note": 68,
      "start": 26.2865,
      "duration": 0.2852,
      "velocity": 109,
      "chip": "ym2612"
    },
    {
      "channel": 5,
      "note": 63,
      "start": 26.2872,
      "duration": 0.2848,
      "velocity": 109,
      "chip": "ym2612"
    },
    {
      "channel": 0,
      "note": 65,
      "start": 26.5705,
      "duration": 0.1422,
      "velocity": 95,
      "chip": "ym2612"
    },
    {
      "channel": 1,
      "note": 53,
      "start": 26.5712,
      "duration": 0.8566,
      "velocity": 109,
      "chip": "ym2612"
    },
    {
      "channel": 0,
      "note": 66,
      "start": 26.7133,
      "duration": 0.1425,
      "velocity": 95,
      "chip": "ym2612"
    },
    {
      "channel": 0,
      "note": 65,
      "start": 26.8563,
      "duration": 0.1422,
      "velocity": 95,
      "chip": "ym2612"
    },
    {
      "channel": 3,
      "note": 71,
      "start": 26.8574,
      "duration": 0.285,
      "velocity": 109,
      "chip": "ym2612"
    },
    {
      "channel": 4,
      "note": 68,
      "start": 26.8581,
      "duration": 0.2851,
      "velocity": 109,
      "chip": "ym2612"
    },
    {
      "channel": 5,
      "note": 65,
      "start": 26.8589,
      "duration": 0.285,
      "velocity": 109,
      "chip": "ym2612"
    },
    {
      "channel": 0,
      "note": 63,
      "start": 26.9991,
      "duration": 0.1422,
      "velocity": 95,
      "chip": "ym2612"
    },
    {
      "channel": 0,
      "note": 61,
      "start": 27.1419,
      "duration": 0.1424,
      "velocity": 95,
      "chip": "ym2612"
    },
    {
      "channel": 3,
      "note": 71,
      "start": 27.143,
      "duration": 0.2856,
      "velocity": 109,
      "chip": "ym2612"
    },
    {
      "channel": 4,
      "note": 68,
      "start": 27.1437,
      "duration": 0.2852,
      "velocity": 109,
      "chip": "ym2612"
    },
    {
      "channel": 5,
      "note": 65,
      "start": 27.1444,
      "duration": 0.2848,
      "velocity": 109,
      "chip": "ym2612"
    },
    {
      "channel": 0,
      "note": 63,
      "start": 27.2848,
      "duration": 0.1422,
      "velocity": 95,
      "chip": "ym2612"
    },
    {
      "channel": 0,
      "note": 61,
      "start": 27.4276,
      "duration": 0.1423,
      "velocity": 95,
      "chip": "ym2612"
    },
    {
      "channel": 1,
      "note": 49,
      "start": 27.4285,
      "duration": 0.8566,
      "velocity": 109,
      "chip": "ym2612"
    },
    {
      "channel": 0,
      "note": 59,
      "start": 27.5705,
      "duration": 0.1424,
      "velocity": 95,
      "chip": "ym2612"
    },
    {
      "channel": 0,
      "note": 58,
      "start": 27.7135,
      "duration": 0.1423,
      "velocity": 95,
      "chip": "ym2612"
    },
    {
      "channel": 3,
      "note": 71,
      "start": 27.7146,
      "duration": 0.2851,
      "velocity": 109,
      "chip": "ym2612"
    },
    {
      "channel": 4,
      "note": 68,
      "start": 27.7153,
      "duration": 0.2851,
      "velocity": 109,
      "chip": "ym2612"
    },
    {
      "channel": 5,
      "note": 65,
      "start": 27.7161,
      "duration": 0.285,
      "velocity": 109,
      "chip": "ym2612"
    },
    {
      "channel": 0,
      "note": 59,
      "start": 27.8564,
      "duration": 0.1422,
      "velocity": 95,
      "chip": "ym2612"
    },
    {
      "channel": 0,
      "note": 58,
      "start": 27.9991,
      "duration": 0.1424,
      "velocity": 95,
      "chip": "ym2612"
    },
    {
      "channel": 3,
      "note": 71,
      "start": 28.0002,
      "duration": 0.2856,
      "velocity": 109,
      "chip": "ym2612"
    },
    {
      "channel": 4,
      "note": 68,
      "start": 28.001,
      "duration": 0.2851,
      "velocity": 109,
      "chip": "ym2612"
    },
    {
      "channel": 5,
      "note": 65,
      "start": 28.0017,
      "duration": 0.2847,
      "velocity": 109,
      "chip": "ym2612"
    },
    {
      "channel": 0,
      "note": 56,
      "start": 28.1421,
      "duration": 0.1422,
      "velocity": 95,
      "chip": "ym2612"
    },
    {
      "channel": 0,
      "note": 58,
      "start": 28.285,
      "duration": 0.2852,
      "velocity": 95,
      "chip": "ym2612"
    },
    {
      "channel": 1,
      "note": 54,
      "start": 28.2857,
      "duration": 0.8568,
      "velocity": 109,
      "chip": "ym2612"
    },
    {
      "channel": 0,
      "note": 54,
      "start": 28.5707,
      "duration": 0.2377,
      "velocity": 95,
      "chip": "ym2612"
    },
    {
      "channel": 3,
      "note": 70,
      "start": 28.5718,
      "duration": 0.2852,
      "velocity": 109,
      "chip": "ym2612"
    },
    {
      "channel": 4,
      "note": 66,
      "start": 28.5726,
      "duration": 0.2852,
      "velocity": 109,
      "chip": "ym2612"
    },
    {
      "channel": 5,
      "note": 61,
      "start": 28.5733,
      "duration": 0.2852,
      "velocity": 109,
      "chip": "ym2612"
    },
    {
      "channel": 0,
      "note": 56,
      "start": 28.809,
      "duration": 0.0469,
      "velocity": 95,
      "chip": "ym2612"
    },
    {
      "channel": 0,
      "note": 54,
      "start": 28.8565,
      "duration": 0.1424,
      "velocity": 95,
      "chip": "ym2612"
    },
    {
      "channel": 3,
      "note": 70,
      "start": 28.8576,
      "duration": 0.2857,
      "velocity": 109,
      "chip": "ym2612"
    },
    {
      "channel": 4,
      "note": 66,
      "start": 28.8583,
      "duration": 0.2854,
      "velocity": 109,
      "chip": "ym2612"
    },
    {
      "channel": 5,
      "note": 61,
      "start": 28.859,
      "duration": 0.2851,
      "velocity": 109,
      "chip": "ym2612"
    },
    {
      "channel": 0,
      "note": 53,
      "start": 28.9994,
      "duration": 0.1422,
      "velocity": 95,
      "chip": "ym2612"
    },
    {
      "channel": 0,
      "note": 51,
      "start": 29.1422,
      "duration": 0.1423,
      "velocity": 95,
      "chip": "ym2612"
    },
    {
      "channel": 1,
      "note": 51,
      "start": 29.143,
      "duration": 0.8567,
      "velocity": 109,
      "chip": "ym2612"
    },
    {
      "channel": 0,
      "note": 53,
      "start": 29.2851,
      "duration": 0.1423,
      "velocity": 95,
      "chip": "ym2612"
    },
    {
      "channel": 0,
      "note": 54,
      "start": 29.428,
      "duration": 0.1424,
      "velocity": 95,
      "chip": "ym2612"
    },
    {
      "channel": 3,
      "note": 70,
      "start": 29.4291,
      "duration": 0.2851,
      "velocity": 109,
      "chip": "ym2612"
    },
    {
      "channel": 4,
      "note": 66,
      "start": 29.4298,
      "duration": 0.2852,
      "velocity": 109,
      "chip": "ym2612"
    },
    {
      "channel": 5,
      "note": 63,
      "start": 29.4306,
      "duration": 0.2852,
      "velocity": 109,
      "chip": "ym2612"
    },
    {
      "channel": 0,
      "note": 53,
      "start": 29.5709,
      "duration": 0.1422,
      "velocity": 95,
      "chip": "ym2612"
    },
    {
      "channel": 0,
      "note": 54,
      "start": 29.7137,
      "duration": 0.1423,
      "velocity": 95,
      "chip": "ym2612"
    },
    {
      "channel": 3,
      "note": 70,
      "start": 29.7149,
      "duration": 0.2856,
      "velocity": 109,
      "chip": "ym2612"
    },
    {
      "channel": 4,
      "note": 66,
      "start": 29.7156,
      "duration": 0.2852,
      "velocity": 109,
      "chip": "ym2612"
    },
    {
      "channel": 5,
      "note": 63,
      "start": 29.7163,
      "duration": 0.2847,
      "velocity": 109,
      "chip": "ym2612"
    },
    {
      "channel": 0,
      "note": 56,
      "start": 29.8566,
      "duration": 0.1424,
      "velocity": 95,
      "chip": "ym2612"
    },
    {
      "channel": 0,
      "note": 58,
      "start": 29.9996,
      "duration": 0.1422,
      "velocity": 95,
      "chip": "ym2612"
    },
    {
      "channel": 1,
      "note": 51,
      "start": 30.0003,
      "duration": 0.8566,
      "velocity": 109,
      "chip": "ym2612"
    },
    {
      "channel": 0,
      "note": 59,
      "start": 30.1423,
      "duration": 0.1423,
      "velocity": 95,
      "chip": "ym2612"
    },
    {
      "channel": 0,
      "note": 61,
      "start": 30.2852,
      "duration": 0.1424,
      "velocity": 95,
      "chip": "ym2612"
    },
    {
      "channel": 3,
      "note": 70,
      "start": 30.2863,
      "duration": 0.2852,
      "velocity": 109,
      "chip": "ym2612"
    },
    {
      "channel": 4,
      "note": 66,
      "start": 30.2871,
      "duration": 0.2852,
      "velocity": 109,
      "chip": "ym2612"
    },
    {
      "channel": 5,
      "note": 63,
      "start": 30.2878,
      "duration": 0.2852,
      "velocity": 109,
      "chip": "ym2612"
    },
    {
      "channel": 0,
      "note": 63,
      "start": 30.4282,
      "duration": 0.1422,
      "velocity": 95,
      "chip": "ym2612"
    },
    {
      "channel": 0,
      "note": 65,
      "start": 30.571,
      "duration": 0.1423,
      "velocity": 95,
      "chip": "ym2612"
    },
    {
      "channel": 3,
      "note": 70,
      "start": 30.5721,
      "duration": 0.2855,
      "velocity": 109,
      "chip": "ym2612"
    },
    {
      "channel": 4,
      "note": 66,
      "start": 30.5728,
      "duration": 0.2851,
      "velocity": 109,
      "chip": "ym2612"
    },
    {
      "channel": 5,
      "note": 63,
      "start": 30.5736,
      "duration": 0.2847,
      "velocity": 109,
      "chip": "ym2612"
    },
    {
      "channel": 0,
      "note": 66,
      "start": 30.7139,
      "duration": 0.1422,
      "velocity": 95,
      "chip": "ym2612"
    },
    {
      "channel": 0,
      "note": 68,
      "start": 30.8567,
      "duration": 0.1424,
      "velocity": 95,
      "chip": "ym2612"
    },
    {
      "channel": 1,
      "note": 56,
      "start": 30.8575,
      "duration": 0.8568,
      "velocity": 109,
      "chip": "ym2612"
    },
    {
      "channel": 0,
      "note": 70,
      "start": 30.9997,
      "duration": 0.1423,
      "velocity": 95,
      "chip": "ym2612"
    },
    {
      "channel": 0,
      "note": 71,
      "start": 31.1426,
      "duration": 0.1422,
      "velocity": 95,
      "chip": "ym2612"
    },
    {
      "channel": 3,
      "note": 71,
      "start": 31.1437,
      "duration": 0.2851,
      "velocity": 109,
      "chip": "ym2612"
    },
    {
      "channel": 4,
      "note": 68,
      "start": 31.1444,
      "duration": 0.2851,
      "velocity": 109,
      "chip": "ym2612"
    },
    {
      "channel": 5,
      "note": 63,
      "start": 31.1452,
      "duration": 0.2851,
      "velocity": 109,
      "chip": "ym2612"
    },
    {
      "channel": 0,
      "note": 70,
      "start": 31.2855,
      "duration": 0.1422,
      "velocity": 95,
      "chip": "ym2612"
    },
    {
      "channel": 0,
      "note": 71,
      "start": 31.4283,
      "duration": 0.1424,
      "velocity": 95,
      "chip": "ym2612"
    },
    {
      "channel": 3,
      "note": 71,
      "start": 31.4294,
      "duration": 0.2856,
      "velocity": 109,
      "chip": "ym2612"
    },
    {
      "channel": 4,
      "note": 68,
      "start": 31.4301,
      "duration": 0.2852,
      "velocity": 109,
      "chip": "ym2612"
    },
    {
      "channel": 5,
      "note": 63,
      "start": 31.4309,
      "duration": 0.2847,
      "velocity": 109,
      "chip": "ym2612"
    },
    {
      "channel": 0,
      "note": 73,
      "start": 31.5712,
      "duration": 0.1423,
      "velocity": 95,
      "chip": "ym2612"
    },
    {
      "channel": 0,
      "note": 71,
      "start": 31.7141,
      "duration": 0.1423,
      "velocity": 95,
      "chip": "ym2612"
    },
    {
      "channel": 1,
      "note": 56,
      "start": 31.7149,
      "duration": 0.5709,
      "velocity": 109,
      "chip": "ym2612"
    },
    {
      "channel": 0,
      "note": 73,
      "start": 31.857,
      "duration": 0.1422,
      "velocity": 95,
      "chip": "ym2612"
    },
    {
      "channel": 0,
      "note": 71,
      "start": 31.9998,
      "duration": 0.1423,
      "velocity": 95,
      "chip": "ym2612"
    },
    {
      "channel": 3,
      "note": 71,
      "start": 32.0009,
      "duration": 0.2856,
      "velocity": 109,
      "chip": "ym2612"
    },
    {
      "channel": 4,
      "note": 68,
      "start": 32.0016,
      "duration": 0.2856,
      "velocity": 109,
      "chip": "ym2612"
    },
    {
      "channel": 5,
      "note": 63,
      "start": 32.0023,
      "duration": 0.2856,
      "velocity": 109,
      "chip": "ym2612"
    },
    {
      "channel": 0,
      "note": 70,
      "start": 32.1427,
      "duration": 0.1424,
      "velocity": 95,
      "chip": "ym2612"
    },
    {
      "channel": 0,
      "note": 68,
      "start": 32.2856,
      "duration": 0.1423,
      "velocity": 95,
      "chip": "ym2612"
    },
    {
      "channel": 1,
      "note": 54,
      "start": 32.2863,
      "duration": 0.2851,
      "velocity": 109,
      "chip": "ym2612"
    },
    {
      "channel": 3,
      "note": 71,
      "start": 32.2871,
      "duration": 0.2851,
      "velocity": 109,
      "chip": "ym2612"
    },
    {
      "channel": 4,
      "note": 68,
      "start": 32.2878,
      "duration": 0.2847,
      "velocity": 109,
      "chip": "ym2612"
    },
    {
      "channel": 5,
      "note": 63,
      "start": 32.2885,
      "duration": 0.2843,
      "velocity": 109,
      "chip": "ym2612"
    },
    {
      "channel": 0,
      "note": 66,
      "start": 32.4285,
      "duration": 0.1422,
      "velocity": 95,
      "chip": "ym2612"
    },
    {
      "channel": 0,
      "note": 65,
      "start": 32.5713,
      "duration": 0.1423,
      "velocity": 95,
      "chip": "ym2612"
    },
    {
      "channel": 1,
      "note": 53,
      "start": 32.572,
      "duration": 0.8569,
      "velocity": 109,
      "chip": "ym2612"
    },
    {
      "channel": 0,
      "note": 66,
      "start": 32.7142,
      "duration": 0.1423,
      "velocity": 95,
      "chip": "ym2612"
    },
    {
      "channel": 0,
      "note": 68,
      "start": 32.857,
      "duration": 0.1424,
      "velocity": 95,
      "chip": "ym2612"
    },
    {
      "channel": 3,
      "note": 71,
      "start": 32.8581,
      "duration": 0.2852,
      "velocity": 109,
      "chip": "ym2612"
    },
    {
      "channel": 4,
      "note": 68,
      "start": 32.8589,
      "duration": 0.2852,
      "velocity": 109,
      "chip": "ym2612"
    },
    {
      "channel": 5,
      "note": 65,
      "start": 32.8596,
      "duration": 0.2852,
      "velocity": 109,
      "chip": "ym2612"
    },
    {
      "channel": 0,
      "note": 66,
      "start": 33.0,
      "duration": 0.1423,
      "velocity": 95,
      "chip": "ym2612"
    },
    {
      "channel": 0,
      "note": 65,
      "start": 33.1429,
      "duration": 0.1424,
      "velocity": 95,
      "chip": "ym2612"
    },
    {
      "channel": 3,
      "note": 71,
      "start": 33.1439,
      "duration": 0.2856,
      "velocity": 109,
      "chip": "ym2612"
    },
    {
      "channel": 4,
      "note": 68,
      "start": 33.1446,
      "duration": 0.2852,
      "velocity": 109,
      "chip": "ym2612"
    },
    {
      "channel": 5,
      "note": 65,
      "start": 33.1455,
      "duration": 0.2847,
      "velocity": 109,
      "chip": "ym2612"
    },
    {
      "channel": 0,
      "note": 63,
      "start": 33.2858,
      "duration": 0.1422,
      "velocity": 95,
      "chip": "ym2612"
    },
    {
      "channel": 0,
      "note": 61,
      "start": 33.4287,
      "duration": 0.1423,
      "velocity": 95,
      "chip": "ym2612"
    },
    {
      "channel": 1,
      "note": 53,
      "start": 33.4294,
      "duration": 0.8566,
      "velocity": 109,
      "chip": "ym2612"
    },
    {
      "channel": 0,
      "note": 63,
      "start": 33.5716,
      "duration": 0.1422,
      "velocity": 95,
      "chip": "ym2612"
    },
    {
      "channel": 0,
      "note": 61,
      "start": 33.7144,
      "duration": 0.1423,
      "velocity": 95,
      "chip": "ym2612"
    },
    {
      "channel": 3,
      "note": 71,
      "start": 33.7154,
      "duration": 0.2851,
      "velocity": 109,
      "chip": "ym2612"
    },
    {
      "channel": 4,
      "note": 68,
      "start": 33.7161,
      "duration": 0.2852,
      "velocity": 109,
      "chip": "ym2612"
    },
    {
      "channel": 5,
      "note": 65,
      "start": 33.7169,
      "duration": 0.2851,
      "velocity": 109,
      "chip": "ym2612"
    },
    {
      "channel": 0,
      "note": 59,
      "start": 33.8572,
      "duration": 0.1422,
      "velocity": 95,
      "chip": "ym2612"
    },
    {
      "channel": 0,
      "note": 58,
      "start": 34.0,
      "duration": 0.1423,
      "velocity": 95,
      "chip": "ym2612"
    },
    {
      "channel": 3,
      "note": 71,
      "start": 34.0011,
      "duration": 0.2857,
      "velocity": 109,
      "chip": "ym2612"
    },
    {
      "channel": 4,
      "note": 68,
      "start": 34.0019,
      "duration": 0.2852,
      "velocity": 109,
      "chip": "ym2612"
    },
    {
      "channel": 5,
      "note": 65,
      "start": 34.0026,
      "duration": 0.2849,
      "velocity": 109,
      "chip": "ym2612"
    },
    {
      "channel": 0,
      "note": 56,
      "start": 34.1429,
      "duration": 0.1424,
      "velocity": 95,
      "chip": "ym2612"
    },
    {
      "channel": 0,
      "note": 58,
      "start": 34.2859,
      "duration": 0.1422,
      "velocity": 95,
      "chip": "ym2612"
    },
    {
      "channel": 1,
      "note": 54,
      "start": 34.2866,
      "duration": 0.8566,
      "velocity": 109,
      "chip": "ym2612"
    },
    {
      "channel": 0,
      "note": 59,
      "start": 34.4288,
      "duration": 0.1422,
      "velocity": 95,
      "chip": "ym2612"
    },
    {
      "channel": 0,
      "note": 61,
      "start": 34.5716,
      "duration": 0.1422,
      "velocity": 95,
      "chip": "ym2612"
    },
    {
      "channel": 3,
      "note": 70,
      "start": 34.5727,
      "duration": 0.2853,
      "velocity": 109,
      "chip": "ym2612"
    },
    {
      "channel": 4,
      "note": 66,
      "start": 34.5734,
      "duration": 0.2852,
      "velocity": 109,
      "chip": "ym2612"
    },
    {
      "channel": 5,
      "note": 61,
      "start": 34.5741,
      "duration": 0.2852,
      "velocity": 109,
      "chip": "ym2612"
    },
    {
      "channel": 0,
      "note": 59,
      "start": 34.7145,
      "duration": 0.1424,
      "velocity": 95,
      "chip": "ym2612"
    },
    {
      "channel": 0,
      "note": 58,
      "start": 34.8574,
      "duration": 0.1422,
      "velocity": 95,
      "chip": "ym2612"
    },
    {
      "channel": 3,
      "note": 70,
      "start": 34.8585,
      "duration": 0.2854,
      "velocity": 109,
      "chip": "ym2612"
    },
    {
      "channel": 4,
      "note": 66,
      "start": 34.8592,
      "duration": 0.285,
      "velocity": 109,
      "chip": "ym2612"
    },
    {
      "channel": 5,
      "note": 61,
      "start": 34.86,
      "duration": 0.2846,
      "velocity": 109,
      "chip": "ym2612"
    },
    {
      "channel": 0,
      "note": 56,
      "start": 35.0002,
      "duration": 0.1423,
      "velocity": 95,
      "chip": "ym2612"
    },
    {
      "channel": 0,
      "note": 54,
      "start": 35.1431,
      "duration": 0.1424,
      "velocity": 95,
      "chip": "ym2612"
    },
    {
      "channel": 1,
      "note": 54,
      "start": 35.1438,
      "duration": 0.5709,
      "velocity": 109,
      "chip": "ym2612"
    },
    {
      "channel": 0,
      "note": 53,
      "start": 35.2861,
      "duration": 0.1423,
      "velocity": 95,
      "chip": "ym2612"
    },
    {
      "channel": 0,
      "note": 54,
      "start": 35.429,
      "duration": 0.1422,
      "velocity": 95,
      "chip": "ym2612"
    },
    {
      "channel": 3,
      "note": 70,
      "start": 35.4301,
      "duration": 0.2854,
      "velocity": 109,
      "chip": "ym2612"
    },
    {
      "channel": 4,
      "note": 66,
      "start": 35.4308,
      "duration": 0.2854,
      "velocity": 109,
      "chip": "ym2612"
    },
    {
      "channel": 5,
      "note": 61,
      "start": 35.4315,
      "duration": 0.2854,
      "velocity": 109,
      "chip": "ym2612"
    },
    {
      "channel": 0,
      "note": 56,
      "start": 35.5717,
      "duration": 0.1423,
      "velocity": 95,
      "chip": "ym2612"
    },
    {
      "channel": 0,
      "note": 54,
      "start": 35.7146,
      "duration": 0.1423,
      "velocity": 95,
      "chip": "ym2612"
    },
    {
      "channel": 1,
      "note": 53,
      "start": 35.7153,
      "duration": 0.2853,
      "velocity": 109,
      "chip": "ym2612"
    },
    {
      "channel": 3,
      "note": 70,
      "start": 35.7161,
      "duration": 0.2854,
      "velocity": 109,
      "chip": "ym2612"
    },
    {
      "channel": 4,
      "note": 66,
      "start": 35.7168,
      "duration": 0.285,
      "velocity": 109,
      "chip": "ym2612"
    },
    {
      "channel": 5,
      "note": 61,
      "start": 35.7175,
      "duration": 0.2847,
      "velocity": 109,
      "chip": "ym2612"
    },
    {
      "channel": 0,
      "note": 53,
      "start": 35.8575,
      "duration": 0.1424,
      "velocity": 95,
      "chip": "ym2612"
    },
    {
      "channel": 0,
      "note": 51,
      "start": 36.0004,
      "duration": 0.1423,
      "velocity": 95,
      "chip": "ym2612"
    },
    {
      "channel": 1,
      "note": 51,
      "start": 36.0012,
      "duration": 0.8567,
      "velocity": 109,
      "chip": "ym2612"
    },
    {
      "channel": 0,
      "note": 53,
      "start": 36.1433,
      "duration": 0.1422,
      "velocity": 95,
      "chip": "ym2612"
    },
    {
      "channel": 0,
      "note": 54,
      "start": 36.2861,
      "duration": 0.1424,
      "velocity": 95,
      "chip": "ym2612"
    },
    {
      "channel": 3,
      "note": 70,
      "start": 36.2872,
      "duration": 0.2852,
      "velocity": 109,
      "chip": "ym2612"
    },
    {
      "channel": 4,
      "note": 66,
      "start": 36.288,
      "duration": 0.2852,
      "velocity": 109,
      "chip": "ym2612"
    },
    {
      "channel": 5,
      "note": 63,
      "start": 36.2887,
      "duration": 0.2852,
      "velocity": 109,
      "chip": "ym2612"
    },
    {
      "channel": 0,
      "note": 53,
      "start": 36.429,
      "duration": 0.1423,
      "velocity": 95,
      "chip": "ym2612"
    },
    {
      "channel": 0,
      "note": 54,
      "start": 36.5719,
      "duration": 0.1423,
      "velocity": 95,
      "chip": "ym2612"
    },
    {
      "channel": 3,
      "note": 70,
      "start": 36.573,
      "duration": 0.2856,
      "velocity": 109,
      "chip": "ym2612"
    },
    {
      "channel": 4,
      "note": 66,
      "start": 36.5737,
      "duration": 0.2852,
      "velocity": 109,
      "chip": "ym2612"
    },
    {
      "channel": 5,
      "note": 63,
      "start": 36.5745,
      "duration": 0.2847,
      "velocity": 109,
      "chip": "ym2612"
    },
    {
      "channel": 0,
      "note": 56,
      "start": 36.7148,
      "duration": 0.1424,
      "velocity": 95,
      "chip": "ym2612"
    },
    {
      "channel": 0,
      "note": 58,
      "start": 36.8577,
      "duration": 0.1426,
      "velocity": 95,
      "chip": "ym2612"
    },
    {
      "channel": 1,
      "note": 51,
      "start": 36.8584,
      "duration": 0.8566,
      "velocity": 109,
      "chip": "ym2612"
    },
    {
      "channel": 0,
      "note": 59,
      "start": 37.0009,
      "duration": 0.142,
      "velocity": 95,
      "chip": "ym2612"
    },
    {
      "channel": 0,
      "note": 61,
      "start": 37.1434,
      "duration": 0.1422,
      "velocity": 95,
      "chip": "ym2612"
    },
    {
      "channel": 3,
      "note": 70,
      "start": 37.1445,
      "duration": 0.2852,
      "velocity": 109,
      "chip": "ym2612"
    },
    {
      "channel": 4,
      "note": 66,
      "start": 37.1453,
      "duration": 0.2851,
      "velocity": 109,
      "chip": "ym2612"
    },
    {
      "channel": 5,
      "note": 63,
      "start": 37.146,
      "duration": 0.2851,
      "velocity": 109,
      "chip": "ym2612"
    },
    {
      "channel": 0,
      "note": 63,
      "start": 37.2863,
      "duration": 0.1423,
      "velocity": 95,
      "chip": "ym2612"
    },
    {
      "channel": 0,
      "note": 65,
      "start": 37.4292,
      "duration": 0.1422,
      "velocity": 95,
      "chip": "ym2612"
    },
    {
      "channel": 3,
      "note": 70,
      "start": 37.4302,
      "duration": 0.2856,
      "velocity": 109,
      "chip": "ym2612"
    },
    {
      "channel": 4,
      "note": 66,
      "start": 37.431,
      "duration": 0.2851,
      "velocity": 109,
      "chip": "ym2612"
    },
    {
      "channel": 5,
      "note": 63,
      "start": 37.4317,
      "duration": 0.2847,
      "velocity": 109,
      "chip": "ym2612"
    },
    {
      "channel": 0,
      "note": 66,
      "start": 37.572,
      "duration": 0.1424,
      "velocity": 95,
      "chip": "ym2612"
    },
    {
      "channel": 0,
      "note": 68,
      "start": 37.7149,
      "duration": 0.1424,
      "velocity": 95,
      "chip": "ym2612"
    },
    {
      "channel": 1,
      "note": 56,
      "start": 37.7156,
      "duration": 0.8567,
      "velocity": 109,
      "chip": "ym2612"
    },
    {
      "channel": 0,
      "note": 70,
      "start": 37.8579,
      "duration": 0.1422,
      "velocity": 95,
      "chip": "ym2612"
    },
    {
      "channel": 0,
      "note": 71,
      "start": 38.0007,
      "duration": 0.1422,
      "velocity": 95,
      "chip": "ym2612"
    },
    {
      "channel": 3,
      "note": 71,
      "start": 38.0017,
      "duration": 0.2853,
      "velocity": 109,
      "chip": "ym2612"
    },
    {
      "channel": 4,
      "note": 68,
      "start": 38.0024,
      "duration": 0.2852,
      "velocity": 109,
      "chip": "ym2612"
    },
    {
      "channel": 5,
      "note": 63,
      "start": 38.0032,
      "duration": 0.2852,
      "velocity": 109,
      "chip": "ym2612"
    },
    {
      "channel": 0,
      "note": 70,
      "start": 38.1436,
      "duration": 0.1424,
      "velocity": 95,
      "chip": "ym2612"
    },
    {
      "channel": 0,
      "note": 71,
      "start": 38.2865,
      "duration": 0.1423,
      "velocity": 95,
      "chip": "ym2612"
    },
    {
      "channel": 3,
      "note": 71,
      "start": 38.2876,
      "duration": 0.2854,
      "velocity": 109,
      "chip": "ym2612"
    },
    {
      "channel": 4,
      "note": 68,
      "start": 38.2883,
      "duration": 0.285,
      "velocity": 109,
      "chip": "ym2612"
    },
    {
      "channel": 5,
      "note": 63,
      "start": 38.289,
      "duration": 0.2846,
      "velocity": 109,
      "chip": "ym2612"
    },
    {
      "channel": 0,
      "note": 73,
      "start": 38.4294,
      "duration": 0.1422,
      "velocity": 95,
      "chip": "ym2612"
    },
    {
      "channel": 0,
      "note": 71,
      "start": 38.5722,
      "duration": 0.1423,
      "velocity": 95,
      "chip": "ym2612"
    },
    {
      "channel": 1,
      "note": 56,
      "start": 38.5728,
      "duration": 0.5711,
      "velocity": 109,
      "chip": "ym2612"
    },
    {
      "channel": 0,
      "note": 73,
      "start": 38.7151,
      "duration": 0.1423,
      "velocity": 95,
      "chip": "ym2612"
    },
    {
      "channel": 0,
      "note": 71,
      "start": 38.858,
      "duration": 0.1422,
      "velocity": 95,
      "chip": "ym2612"
    },
    {
      "channel": 3,
      "note": 71,
      "start": 38.8591,
      "duration": 0.2856,
      "velocity": 109,
      "chip": "ym2612"
    },
    {
      "channel": 4,
      "note": 68,
      "start": 38.8598,
      "duration": 0.2856,
      "velocity": 109,
      "chip": "ym2612"
    },
    {
      "channel": 5,
      "note": 63,
      "start": 38.8605,
      "duration": 0.2856,
      "velocity": 109,
      "chip": "ym2612"
    },
    {
      "channel": 0,
      "note": 70,
      "start": 39.0009,
      "duration": 0.1423,
      "velocity": 95,
      "chip": "ym2612"
    },
    {
      "channel": 0,
      "note": 68,
      "start": 39.1437,
      "duration": 0.1423,
      "velocity": 95,
      "chip": "ym2612"
    },
    {
      "channel": 1,
      "note": 54,
      "start": 39.1444,
      "duration": 0.2852,
      "velocity": 109,
      "chip": "ym2612"
    },
    {
      "channel": 3,
      "note": 71,
      "start": 39.1453,
      "duration": 0.2851,
      "velocity": 109,
      "chip": "ym2612"
    },
    {
      "channel": 4,
      "note": 68,
      "start": 39.146,
      "duration": 0.2847,
      "velocity": 109,
      "chip": "ym2612"
    },
    {
      "channel": 5,
      "note": 63,
      "start": 39.1467,
      "duration": 0.2843,
      "velocity": 109,
      "chip": "ym2612"
    },
    {
      "channel": 0,
      "note": 66,
      "start": 39.2866,
      "duration": 0.1422,
      "velocity": 95,
      "chip": "ym2612"
    },
    {
      "channel": 0,
      "note": 65,
      "start": 39.4295,
      "duration": 0.1423,
      "velocity": 95,
      "chip": "ym2612"
    },
    {
      "channel": 1,
      "note": 53,
      "start": 39.4302,
      "duration": 0.8567,
      "velocity": 109,
      "chip": "ym2612"
    },
    {
      "channel": 0,
      "note": 66,
      "start": 39.5724,
      "duration": 0.1422,
      "velocity": 95,
      "chip": "ym2612"
    },
    {
      "channel": 0,
      "note": 68,
      "start": 39.7152,
      "duration": 0.1422,
      "velocity": 95,
      "chip": "ym2612"
    },
    {
      "channel": 3,
      "note": 71,
      "start": 39.7163,
      "duration": 0.2851,
      "velocity": 109,
      "chip": "ym2612"
    },
    {
      "channel": 4,
      "note": 68,
      "start": 39.717,
      "duration": 0.2852,
      "velocity": 109,
      "chip": "ym2612"
    },
    {
      "channel": 5,
      "note": 65,
      "start": 39.7178,
      "duration": 0.2852,
      "velocity": 109,
      "chip": "ym2612"
    },
    {
      "channel": 0,
      "note": 66,
      "start": 39.8581,
      "duration": 0.1423,
      "velocity": 95,
      "chip": "ym2612"
    },
    {
      "channel": 0,
      "note": 65,
      "start": 40.001,
      "duration": 0.1424,
      "velocity": 95,
      "chip": "ym2612"
    },
    {
      "channel": 3,
      "note": 71,
      "start": 40.0021,
      "duration": 0.2855,
      "velocity": 109,
      "chip": "ym2612"
    },
    {
      "channel": 4,
      "note": 68,
      "start": 40.0028,
      "duration": 0.2851,
      "velocity": 109,
      "chip": "ym2612"
    },
    {
      "channel": 5,
      "note": 65,
      "start": 40.0035,
      "duration": 0.2847,
      "velocity": 109,
      "chip": "ym2612"
    },
    {
      "channel": 0,
      "note": 63,
      "start": 40.1439,
      "duration": 0.1422,
      "velocity": 95,
      "chip": "ym2612"
    },
    {
      "channel": 0,
      "note": 61,
      "start": 40.2867,
      "duration": 0.1423,
      "velocity": 95,
      "chip": "ym2612"
    },
    {
      "channel": 1,
      "note": 49,
      "start": 40.2874,
      "duration": 0.8567,
      "velocity": 109,
      "chip": "ym2612"
    },
    {
      "channel": 0,
      "note": 63,
      "start": 40.4296,
      "duration": 0.1423,
      "velocity": 95,
      "chip": "ym2612"
    },
    {
      "channel": 0,
      "note": 61,
      "start": 40.5725,
      "duration": 0.1423,
      "velocity": 95,
      "chip": "ym2612"
    },
    {
      "channel": 3,
      "note": 71,
      "start": 40.5736,
      "duration": 0.2852,
      "velocity": 109,
      "chip": "ym2612"
    },
    {
      "channel": 4,
      "note": 68,
      "start": 40.5743,
      "duration": 0.2852,
      "velocity": 109,
      "chip": "ym2612"
    },
    {
      "channel": 5,
      "note": 65,
      "start": 40.575,
      "duration": 0.2852,
      "velocity": 109,
      "chip": "ym2612"
    },
    {
      "channel": 0,
      "note": 59,
      "start": 40.7154,
      "duration": 0.1422,
      "velocity": 95,
      "chip": "ym2612"
    },
    {
      "channel": 0,
      "note": 58,
      "start": 40.8583,
      "duration": 0.1422,
      "velocity": 95,
      "chip": "ym2612"
    },
    {
      "channel": 3,
      "note": 71,
      "start": 40.8594,
      "duration": 0.2855,
      "velocity": 109,
      "chip": "ym2612"
    },
    {
      "channel": 4,
      "note": 68,
      "start": 40.8601,
      "duration": 0.2852,
      "velocity": 109,
      "chip": "ym2612"
    },
    {
      "channel": 5,
      "note": 65,
      "start": 40.8609,
      "duration": 0.2847,
      "velocity": 109,
      "chip": "ym2612"
    },
    {
      "channel": 0,
      "note": 56,
      "start": 41.0011,
      "duration": 0.1423,
      "velocity": 95,
      "chip": "ym2612"
    },
    {
      "channel": 0,
      "note": 66,
      "start": 41.144,
      "duration": 0.1424,
      "velocity": 95,
      "chip": "ym2612"
    },
    {
      "channel": 1,
      "note": 54,
      "start": 41.1447,
      "duration": 0.8567,
      "velocity": 109,
      "chip": "ym2612"
    },
    {
      "channel": 0,
      "note": 61,
      "start": 41.2869,
      "duration": 0.1422,
      "velocity": 95,
      "chip": "ym2612"
    },
    {
      "channel": 0,
      "note": 58,
      "start": 41.4298,
      "duration": 0.2852,
      "velocity": 95,
      "chip": "ym2612"
    },
    {
      "channel": 3,
      "note": 70,
      "start": 41.4308,
      "duration": 0.2852,
      "velocity": 109,
      "chip": "ym2612"
    },
    {
      "channel": 4,
      "note": 66,
      "start": 41.4315,
      "duration": 0.2853,
      "velocity": 109,
      "chip": "ym2612"
    },
    {
      "channel": 5,
      "note": 61,
      "start": 41.4323,
      "duration": 0.2852,
      "velocity": 109,
      "chip": "ym2612"
    },
    {
      "channel": 0,
      "note": 61,
      "start": 41.7155,
      "duration": 0.2852,
      "velocity": 95,
      "chip": "ym2612"
    },
    {
      "channel": 3,
      "note": 70,
      "start": 41.7166,
      "duration": 0.2856,
      "velocity": 109,
      "chip": "ym2612"
    },
    {
      "channel": 4,
      "note": 66,
      "start": 41.7173,
      "duration": 0.2851,
      "velocity": 109,
      "chip": "ym2612"
    },
    {
      "channel": 5,
      "note": 61,
      "start": 41.718,
      "duration": 0.2847,
      "velocity": 109,
      "chip": "ym2612"
    },
    {
      "channel": 0,
      "note": 66,
      "start": 42.0013,
      "duration": 0.8567,
      "velocity": 95,
      "chip": "ym2612"
    },
    {
      "channel": 1,
      "note": 54,
      "start": 42.002,
      "duration": 0.8564,
      "velocity": 109,
      "chip": "ym2612"
    },
    {
      "channel": 3,
      "note": 70,
      "start": 42.2878,
      "duration": 0.2852,
      "velocity": 109,
      "chip": "ym2612"
    },
    {
      "channel": 4,
      "note": 66,
      "start": 42.2885,
      "duration": 0.2852,
      "velocity": 109,
      "chip": "ym2612"
    },
    {
      "channel": 5,
      "note": 61,
      "start": 42.2892,
      "duration": 0.2852,
      "velocity": 109,
      "chip": "ym2612"
    },
    {
      "channel": 3,
      "note": 70,
      "start": 42.5736,
      "duration": 0.2857,
      "velocity": 109,
      "chip": "ym2612"
    },
    {
      "channel": 4,
      "note": 66,
      "start": 42.5743,
      "duration": 0.2855,
      "velocity": 109,
      "chip": "ym2612"
    },
    {
      "channel": 5,
      "note": 61,
      "start": 42.575,
      "duration": 0.2852,
      "velocity": 109,
      "chip": "ym2612"
    },
    {
      "channel": 1,
      "note": 54,
      "start": 42.859,
      "duration": 0.2857,
      "velocity": 109,
      "chip": "ym2612"
    },
    {
      "channel": 3,
      "note": 70,
      "start": 43.1447,
      "duration": 0.0,
      "velocity": 109,
      "chip": "ym2612"
    }
  ]
}