{
  "track_name": "04 - Castle, Ice World",
  "duration_sec": 38.406,
  "sample_rate": 44100,
  "note_count": 601,
  "unique_pitches": 39,
  "pitch_range": 57,
  "avg_note_duration": 0.2791,
  "reconstruction_stats": {
    "notes_reconstructed": 601,
    "keyon_events": 601,
    "keyoff_events": 599,
    "orphan_keyons": 2,
    "unique_pitches": 39,
    "pitch_range": 57,
    "avg_duration_sec": 0.2791
  },
  "metadata": {
    "source": "L\\Light Crusader\\04 - Castle, Ice World.vgz"
  },
  "notes": [
    {
      "channel": 0,
      "note": 51,
      "start": 0.0,
      "duration": 0.0,
      "velocity": 105,
      "chip": "ym2612"
    },
    {
      "channel": 0,
      "note": 76,
      "start": 0.0,
      "duration": 0.1485,
      "velocity": 105,
      "chip": "ym2612"
    },
    {
      "channel": 1,
      "note": 51,
      "start": 0.0,
      "duration": 0.0011,
      "velocity": 105,
      "chip": "ym2612"
    },
    {
      "channel": 2,
      "note": 39,
      "start": 0.0,
      "duration": 0.0024,
      "velocity": 98,
      "chip": "ym2612"
    },
    {
      "channel": 3,
      "note": 51,
      "start": 0.0,
      "duration": 0.0029,
      "velocity": 79,
      "chip": "ym2612"
    },
    {
      "channel": 4,
      "note": 51,
      "start": 0.0,
      "duration": 0.0032,
      "velocity": 79,
      "chip": "ym2612"
    },
    {
      "channel": 5,
      "note": 39,
      "start": 0.0,
      "duration": 0.0035,
      "velocity": 79,
      "chip": "ym2612"
    },
    {
      "channel": 2,
      "note": 76,
      "start": 0.0027,
      "duration": 0.1461,
      "velocity": 98,
      "chip": "ym2612"
    },
    {
      "channel": 5,
      "note": 76,
      "start": 0.1505,
      "duration": 0.1488,
      "velocity": 98,
      "chip": "ym2612"
    },
    {
      "channel": 0,
      "note": 79,
      "start": 0.2988,
      "duration": 0.1498,
      "velocity": 105,
      "chip": "ym2612"
    },
    {
      "channel": 2,
      "note": 79,
      "start": 0.2991,
      "duration": 0.1497,
      "velocity": 98,
      "chip": "ym2612"
    },
    {
      "channel": 3,
      "note": 76,
      "start": 0.4504,
      "duration": 0.1489,
      "velocity": 105,
      "chip": "ym2612"
    },
    {
      "channel": 5,
      "note": 79,
      "start": 0.452,
      "duration": 0.1475,
      "velocity": 98,
      "chip": "ym2612"
    },
    {
      "channel": 0,
      "note": 78,
      "start": 0.5989,
      "duration": 0.1497,
      "velocity": 105,
      "chip": "ym2612"
    },
    {
      "channel": 2,
      "note": 78,
      "start": 0.5992,
      "duration": 0.1496,
      "velocity": 98,
      "chip": "ym2612"
    },
    {
      "channel": 3,
      "note": 79,
      "start": 0.7492,
      "duration": 0.15,
      "velocity": 105,
      "chip": "ym2612"
    },
    {
      "channel": 5,
      "note": 78,
      "start": 0.7496,
      "duration": 0.1499,
      "velocity": 98,
      "chip": "ym2612"
    },
    {
      "channel": 0,
      "note": 81,
      "start": 0.8988,
      "duration": 0.1498,
      "velocity": 105,
      "chip": "ym2612"
    },
    {
      "channel": 2,
      "note": 81,
      "start": 0.8991,
      "duration": 0.1497,
      "velocity": 98,
      "chip": "ym2612"
    },
    {
      "channel": 3,
      "note": 78,
      "start": 1.0493,
      "duration": 0.1501,
      "velocity": 105,
      "chip": "ym2612"
    },
    {
      "channel": 5,
      "note": 81,
      "start": 1.0496,
      "duration": 0.1499,
      "velocity": 98,
      "chip": "ym2612"
    },
    {
      "channel": 0,
      "note": 79,
      "start": 1.1989,
      "duration": 0.1496,
      "velocity": 105,
      "chip": "ym2612"
    },
    {
      "channel": 2,
      "note": 79,
      "start": 1.1993,
      "duration": 0.1497,
      "velocity": 98,
      "chip": "ym2612"
    },
    {
      "channel": 0,
      "note": 81,
      "start": 1.3488,
      "duration": 0.1498,
      "velocity": 105,
      "chip": "ym2612"
    },
    {
      "channel": 2,
      "note": 81,
      "start": 1.3491,
      "duration": 0.1498,
      "velocity": 98,
      "chip": "ym2612"
    },
    {
      "channel": 3,
      "note": 81,
      "start": 1.3494,
      "duration": 0.1498,
      "velocity": 105,
      "chip": "ym2612"
    },
    {
      "channel": 5,
      "note": 79,
      "start": 1.3498,
      "duration": 0.1497,
      "velocity": 98,
      "chip": "ym2612"
    },
    {
      "channel": 0,
      "note": 83,
      "start": 1.4988,
      "duration": 0.1498,
      "velocity": 105,
      "chip": "ym2612"
    },
    {
      "channel": 2,
      "note": 83,
      "start": 1.4991,
      "duration": 0.1497,
      "velocity": 98,
      "chip": "ym2612"
    },
    {
      "channel": 5,
      "note": 81,
      "start": 1.4997,
      "duration": 0.1497,
      "velocity": 98,
      "chip": "ym2612"
    },
    {
      "channel": 3,
      "note": 79,
      "start": 1.6493,
      "duration": 0.1501,
      "velocity": 105,
      "chip": "ym2612"
    },
    {
      "channel": 5,
      "note": 83,
      "start": 1.6496,
      "duration": 0.1501,
      "velocity": 98,
      "chip": "ym2612"
    },
    {
      "channel": 0,
      "note": 81,
      "start": 1.7989,
      "duration": 0.1497,
      "velocity": 105,
      "chip": "ym2612"
    },
    {
      "channel": 2,
      "note": 81,
      "start": 1.7993,
      "duration": 0.1495,
      "velocity": 98,
      "chip": "ym2612"
    },
    {
      "channel": 3,
      "note": 81,
      "start": 1.7996,
      "duration": 0.1493,
      "velocity": 105,
      "chip": "ym2612"
    },
    {
      "channel": 3,
      "note": 83,
      "start": 1.9492,
      "duration": 0.15,
      "velocity": 105,
      "chip": "ym2612"
    },
    {
      "channel": 5,
      "note": 81,
      "start": 1.9495,
      "duration": 0.1499,
      "velocity": 98,
      "chip": "ym2612"
    },
    {
      "channel": 0,
      "note": 78,
      "start": 2.0988,
      "duration": 0.1498,
      "velocity": 105,
      "chip": "ym2612"
    },
    {
      "channel": 2,
      "note": 78,
      "start": 2.0991,
      "duration": 0.1497,
      "velocity": 98,
      "chip": "ym2612"
    },
    {
      "channel": 3,
      "note": 81,
      "start": 2.2493,
      "duration": 0.15,
      "velocity": 105,
      "chip": "ym2612"
    },
    {
      "channel": 5,
      "note": 78,
      "start": 2.2498,
      "duration": 0.1498,
      "velocity": 98,
      "chip": "ym2612"
    },
    {
      "channel": 0,
      "note": 79,
      "start": 2.3989,
      "duration": 0.1497,
      "velocity": 105,
      "chip": "ym2612"
    },
    {
      "channel": 2,
      "note": 79,
      "start": 2.3992,
      "duration": 0.1496,
      "velocity": 98,
      "chip": "ym2612"
    },
    {
      "channel": 3,
      "note": 78,
      "start": 2.5492,
      "duration": 0.15,
      "velocity": 105,
      "chip": "ym2612"
    },
    {
      "channel": 5,
      "note": 79,
      "start": 2.5496,
      "duration": 0.1499,
      "velocity": 98,
      "chip": "ym2612"
    },
    {
      "channel": 0,
      "note": 76,
      "start": 2.6988,
      "duration": 0.1498,
      "velocity": 105,
      "chip": "ym2612"
    },
    {
      "channel": 2,
      "note": 76,
      "start": 2.6991,
      "duration": 0.1497,
      "velocity": 98,
      "chip": "ym2612"
    },
    {
      "channel": 3,
      "note": 79,
      "start": 2.8493,
      "duration": 0.15,
      "velocity": 105,
      "chip": "ym2612"
    },
    {
      "channel": 5,
      "note": 76,
      "start": 2.8496,
      "duration": 0.1499,
      "velocity": 98,
      "chip": "ym2612"
    },
    {
      "channel": 0,
      "note": 78,
      "start": 2.9989,
      "duration": 0.1497,
      "velocity": 105,
      "chip": "ym2612"
    },
    {
      "channel": 2,
      "note": 78,
      "start": 2.9992,
      "duration": 0.1496,
      "velocity": 98,
      "chip": "ym2612"
    },
    {
      "channel": 3,
      "note": 76,
      "start": 3.1492,
      "duration": 0.15,
      "velocity": 105,
      "chip": "ym2612"
    },
    {
      "channel": 5,
      "note": 78,
      "start": 3.1496,
      "duration": 0.1499,
      "velocity": 98,
      "chip": "ym2612"
    },
    {
      "channel": 0,
      "note": 71,
      "start": 3.2988,
      "duration": 0.1498,
      "velocity": 105,
      "chip": "ym2612"
    },
    {
      "channel": 2,
      "note": 71,
      "start": 3.2991,
      "duration": 0.1497,
      "velocity": 98,
      "chip": "ym2612"
    },
    {
      "channel": 3,
      "note": 78,
      "start": 3.4493,
      "duration": 0.1502,
      "velocity": 105,
      "chip": "ym2612"
    },
    {
      "channel": 5,
      "note": 71,
      "start": 3.4496,
      "duration": 0.15,
      "velocity": 98,
      "chip": "ym2612"
    },
    {
      "channel": 0,
      "note": 76,
      "start": 3.5989,
      "duration": 0.1496,
      "velocity": 105,
      "chip": "ym2612"
    },
    {
      "channel": 2,
      "note": 76,
      "start": 3.5994,
      "duration": 0.1494,
      "velocity": 98,
      "chip": "ym2612"
    },
    {
      "channel": 3,
      "note": 71,
      "start": 3.7492,
      "duration": 0.15,
      "velocity": 105,
      "chip": "ym2612"
    },
    {
      "channel": 5,
      "note": 76,
      "start": 3.7496,
      "duration": 0.1499,
      "velocity": 98,
      "chip": "ym2612"
    },
    {
      "channel": 0,
      "note": 79,
      "start": 3.8988,
      "duration": 0.1498,
      "velocity": 105,
      "chip": "ym2612"
    },
    {
      "channel": 2,
      "note": 79,
      "start": 3.8991,
      "duration": 0.1497,
      "velocity": 98,
      "chip": "ym2612"
    },
    {
      "channel": 3,
      "note": 76,
      "start": 4.0493,
      "duration": 0.1499,
      "velocity": 105,
      "chip": "ym2612"
    },
    {
      "channel": 5,
      "note": 79,
      "start": 4.0498,
      "duration": 0.1498,
      "velocity": 98,
      "chip": "ym2612"
    },
    {
      "channel": 0,
      "note": 78,
      "start": 4.1989,
      "duration": 0.1497,
      "velocity": 105,
      "chip": "ym2612"
    },
    {
      "channel": 2,
      "note": 78,
      "start": 4.1992,
      "duration": 0.1496,
      "velocity": 98,
      "chip": "ym2612"
    },
    {
      "channel": 3,
      "note": 79,
      "start": 4.3492,
      "duration": 0.15,
      "velocity": 105,
      "chip": "ym2612"
    },
    {
      "channel": 5,
      "note": 78,
      "start": 4.3496,
      "duration": 0.1499,
      "velocity": 98,
      "chip": "ym2612"
    },
    {
      "channel": 0,
      "note": 81,
      "start": 4.4988,
      "duration": 0.1498,
      "velocity": 105,
      "chip": "ym2612"
    },
    {
      "channel": 2,
      "note": 81,
      "start": 4.4991,
      "duration": 0.1497,
      "velocity": 98,
      "chip": "ym2612"
    },
    {
      "channel": 3,
      "note": 78,
      "start": 4.6493,
      "duration": 0.15,
      "velocity": 105,
      "chip": "ym2612"
    },
    {
      "channel": 5,
      "note": 81,
      "start": 4.6496,
      "duration": 0.1499,
      "velocity": 98,
      "chip": "ym2612"
    },
    {
      "channel": 0,
      "note": 79,
      "start": 4.7989,
      "duration": 0.1497,
      "velocity": 105,
      "chip": "ym2612"
    },
    {
      "channel": 2,
      "note": 79,
      "start": 4.7992,
      "duration": 0.1498,
      "velocity": 98,
      "chip": "ym2612"
    },
    {
      "channel": 0,
      "note": 81,
      "start": 4.9488,
      "duration": 0.1498,
      "velocity": 105,
      "chip": "ym2612"
    },
    {
      "channel": 2,
      "note": 81,
      "start": 4.9491,
      "duration": 0.1498,
      "velocity": 98,
      "chip": "ym2612"
    },
    {
      "channel": 3,
      "note": 81,
      "start": 4.9494,
      "duration": 0.1498,
      "velocity": 105,
      "chip": "ym2612"
    },
    {
      "channel": 5,
      "note": 79,
      "start": 4.9498,
      "duration": 0.1497,
      "velocity": 98,
      "chip": "ym2612"
    },
    {
      "channel": 0,
      "note": 83,
      "start": 5.0988,
      "duration": 0.1498,
      "velocity": 105,
      "chip": "ym2612"
    },
    {
      "channel": 2,
      "note": 83,
      "start": 5.0991,
      "duration": 0.1497,
      "velocity": 98,
      "chip": "ym2612"
    },
    {
      "channel": 5,
      "note": 81,
      "start": 5.0997,
      "duration": 0.1497,
      "velocity": 98,
      "chip": "ym2612"
    },
    {
      "channel": 3,
      "note": 79,
      "start": 5.2493,
      "duration": 0.1501,
      "velocity": 105,
      "chip": "ym2612"
    },
    {
      "channel": 5,
      "note": 83,
      "start": 5.2496,
      "duration": 0.1501,
      "velocity": 98,
      "chip": "ym2612"
    },
    {
      "channel": 0,
      "note": 81,
      "start": 5.3989,
      "duration": 0.1497,
      "velocity": 105,
      "chip": "ym2612"
    },
    {
      "channel": 2,
      "note": 81,
      "start": 5.3993,
      "duration": 0.1495,
      "velocity": 98,
      "chip": "ym2612"
    },
    {
      "channel": 3,
      "note": 81,
      "start": 5.3996,
      "duration": 0.1493,
      "velocity": 105,
      "chip": "ym2612"
    },
    {
      "channel": 3,
      "note": 83,
      "start": 5.5492,
      "duration": 0.15,
      "velocity": 105,
      "chip": "ym2612"
    },
    {
      "channel": 5,
      "note": 81,
      "start": 5.5495,
      "duration": 0.1499,
      "velocity": 98,
      "chip": "ym2612"
    },
    {
      "channel": 0,
      "note": 78,
      "start": 5.6988,
      "duration": 0.1498,
      "velocity": 105,
      "chip": "ym2612"
    },
    {
      "channel": 2,
      "note": 78,
      "start": 5.6991,
      "duration": 0.1497,
      "velocity": 98,
      "chip": "ym2612"
    },
    {
      "channel": 3,
      "note": 81,
      "start": 5.8493,
      "duration": 0.15,
      "velocity": 105,
      "chip": "ym2612"
    },
    {
      "channel": 5,
      "note": 78,
      "start": 5.8498,
      "duration": 0.1498,
      "velocity": 98,
      "chip": "ym2612"
    },
    {
      "channel": 0,
      "note": 79,
      "start": 5.9989,
      "duration": 0.1497,
      "velocity": 105,
      "chip": "ym2612"
    },
    {
      "channel": 2,
      "note": 79,
      "start": 5.9992,
      "duration": 0.1496,
      "velocity": 98,
      "chip": "ym2612"
    },
    {
      "channel": 3,
      "note": 78,
      "start": 6.1492,
      "duration": 0.15,
      "velocity": 105,
      "chip": "ym2612"
    },
    {
      "channel": 5,
      "note": 79,
      "start": 6.1496,
      "duration": 0.1499,
      "velocity": 98,
      "chip": "ym2612"
    },
    {
      "channel": 0,
      "note": 76,
      "start": 6.2988,
      "duration": 0.1498,
      "velocity": 105,
      "chip": "ym2612"
    },
    {
      "channel": 2,
      "note": 76,
      "start": 6.2991,
      "duration": 0.1497,
      "velocity": 98,
      "chip": "ym2612"
    },
    {
      "channel": 3,
      "note": 79,
      "start": 6.4493,
      "duration": 0.15,
      "velocity": 105,
      "chip": "ym2612"
    },
    {
      "channel": 5,
      "note": 76,
      "start": 6.4496,
      "duration": 0.1499,
      "velocity": 98,
      "chip": "ym2612"
    },
    {
      "channel": 0,
      "note": 78,
      "start": 6.5989,
      "duration": 0.1497,
      "velocity": 105,
      "chip": "ym2612"
    },
    {
      "channel": 2,
      "note": 78,
      "start": 6.5992,
      "duration": 0.1496,
      "velocity": 98,
      "chip": "ym2612"
    },
    {
      "channel": 3,
      "note": 76,
      "start": 6.7492,
      "duration": 0.15,
      "velocity": 105,
      "chip": "ym2612"
    },
    {
      "channel": 5,
      "note": 78,
      "start": 6.7496,
      "duration": 0.1499,
      "velocity": 98,
      "chip": "ym2612"
    },
    {
      "channel": 0,
      "note": 71,
      "start": 6.8988,
      "duration": 0.1498,
      "velocity": 105,
      "chip": "ym2612"
    },
    {
      "channel": 2,
      "note": 71,
      "start": 6.8991,
      "duration": 0.1497,
      "velocity": 98,
      "chip": "ym2612"
    },
    {
      "channel": 3,
      "note": 78,
      "start": 7.0493,
      "duration": 0.1504,
      "velocity": 105,
      "chip": "ym2612"
    },
    {
      "channel": 5,
      "note": 71,
      "start": 7.0496,
      "duration": 0.1503,
      "velocity": 98,
      "chip": "ym2612"
    },
    {
      "channel": 0,
      "note": 76,
      "start": 7.1989,
      "duration": 0.1496,
      "velocity": 105,
      "chip": "ym2612"
    },
    {
      "channel": 1,
      "note": 79,
      "start": 7.1993,
      "duration": 0.1495,
      "velocity": 105,
      "chip": "ym2612"
    },
    {
      "channel": 2,
      "note": 76,
      "start": 7.1996,
      "duration": 0.1493,
      "velocity": 98,
      "chip": "ym2612"
    },
    {
      "channel": 3,
      "note": 71,
      "start": 7.3493,
      "duration": 0.1501,
      "velocity": 105,
      "chip": "ym2612"
    },
    {
      "channel": 5,
      "note": 76,
      "start": 7.3497,
      "duration": 0.15,
      "velocity": 98,
      "chip": "ym2612"
    },
    {
      "channel": 0,
      "note": 79,
      "start": 7.4988,
      "duration": 0.1498,
      "velocity": 105,
      "chip": "ym2612"
    },
    {
      "channel": 1,
      "note": 83,
      "start": 7.499,
      "duration": 0.1497,
      "velocity": 105,
      "chip": "ym2612"
    },
    {
      "channel": 2,
      "note": 79,
      "start": 7.4994,
      "duration": 0.1496,
      "velocity": 98,
      "chip": "ym2612"
    },
    {
      "channel": 3,
      "note": 76,
      "start": 7.6494,
      "duration": 0.1501,
      "velocity": 105,
      "chip": "ym2612"
    },
    {
      "channel": 4,
      "note": 79,
      "start": 7.6498,
      "duration": 0.1499,
      "velocity": 105,
      "chip": "ym2612"
    },
    {
      "channel": 5,
      "note": 79,
      "start": 7.6501,
      "duration": 0.1499,
      "velocity": 98,
      "chip": "ym2612"
    },
    {
      "channel": 0,
      "note": 78,
      "start": 7.7989,
      "duration": 0.1497,
      "velocity": 105,
      "chip": "ym2612"
    },
    {
      "channel": 1,
      "note": 81,
      "start": 7.7992,
      "duration": 0.1495,
      "velocity": 105,
      "chip": "ym2612"
    },
    {
      "channel": 2,
      "note": 78,
      "start": 7.7995,
      "duration": 0.1494,
      "velocity": 98,
      "chip": "ym2612"
    },
    {
      "channel": 3,
      "note": 79,
      "start": 7.9493,
      "duration": 0.1501,
      "velocity": 105,
      "chip": "ym2612"
    },
    {
      "channel": 4,
      "note": 83,
      "start": 7.9496,
      "duration": 0.15,
      "velocity": 105,
      "chip": "ym2612"
    },
    {
      "channel": 5,
      "note": 78,
      "start": 7.9499,
      "duration": 0.1499,
      "velocity": 98,
      "chip": "ym2612"
    },
    {
      "channel": 0,
      "note": 81,
      "start": 8.0988,
      "duration": 0.1498,
      "velocity": 105,
      "chip": "ym2612"
    },
    {
      "channel": 1,
      "note": 84,
      "start": 8.099,
      "duration": 0.1497,
      "velocity": 105,
      "chip": "ym2612"
    },
    {
      "channel": 2,
      "note": 81,
      "start": 8.0994,
      "duration": 0.1496,
      "velocity": 98,
      "chip": "ym2612"
    },
    {
      "channel": 3,
      "note": 78,
      "start": 8.2494,
      "duration": 0.1502,
      "velocity": 105,
      "chip": "ym2612"
    },
    {
      "channel": 4,
      "note": 81,
      "start": 8.2498,
      "duration": 0.15,
      "velocity": 105,
      "chip": "ym2612"
    },
    {
      "channel": 5,
      "note": 81,
      "start": 8.25,
      "duration": 0.15,
      "velocity": 98,
      "chip": "ym2612"
    },
    {
      "channel": 0,
      "note": 79,
      "start": 8.3989,
      "duration": 0.1497,
      "velocity": 105,
      "chip": "ym2612"
    },
    {
      "channel": 1,
      "note": 83,
      "start": 8.3992,
      "duration": 0.1497,
      "velocity": 105,
      "chip": "ym2612"
    },
    {
      "channel": 2,
      "note": 79,
      "start": 8.3995,
      "duration": 0.1496,
      "velocity": 98,
      "chip": "ym2612"
    },
    {
      "channel": 0,
      "note": 81,
      "start": 8.5488,
      "duration": 0.1498,
      "velocity": 105,
      "chip": "ym2612"
    },
    {
      "channel": 1,
      "note": 84,
      "start": 8.549,
      "duration": 0.1498,
      "velocity": 105,
      "chip": "ym2612"
    },
    {
      "channel": 2,
      "note": 81,
      "start": 8.5494,
      "duration": 0.1498,
      "velocity": 98,
      "chip": "ym2612"
    },
    {
      "channel": 3,
      "note": 81,
      "start": 8.5497,
      "duration": 0.1498,
      "velocity": 105,
      "chip": "ym2612"
    },
    {
      "channel": 4,
      "note": 84,
      "start": 8.55,
      "duration": 0.1497,
      "velocity": 105,
      "chip": "ym2612"
    },
    {
      "channel": 5,
      "note": 79,
      "start": 8.5503,
      "duration": 0.1495,
      "velocity": 98,
      "chip": "ym2612"
    },
    {
      "channel": 0,
      "note": 83,
      "start": 8.6988,
      "duration": 0.1498,
      "velocity": 105,
      "chip": "ym2612"
    },
    {
      "channel": 1,
      "note": 86,
      "start": 8.699,
      "duration": 0.1497,
      "velocity": 105,
      "chip": "ym2612"
    },
    {
      "channel": 2,
      "note": 83,
      "start": 8.6994,
      "duration": 0.1496,
      "velocity": 98,
      "chip": "ym2612"
    },
    {
      "channel": 5,
      "note": 81,
      "start": 8.7,
      "duration": 0.1498,
      "velocity": 98,
      "chip": "ym2612"
    },
    {
      "channel": 3,
      "note": 79,
      "start": 8.8494,
      "duration": 0.1502,
      "velocity": 105,
      "chip": "ym2612"
    },
    {
      "channel": 4,
      "note": 83,
      "start": 8.8498,
      "duration": 0.1501,
      "velocity": 105,
      "chip": "ym2612"
    },
    {
      "channel": 5,
      "note": 83,
      "start": 8.85,
      "duration": 0.1501,
      "velocity": 98,
      "chip": "ym2612"
    },
    {
      "channel": 0,
      "note": 81,
      "start": 8.9989,
      "duration": 0.1497,
      "velocity": 105,
      "chip": "ym2612"
    },
    {
      "channel": 1,
      "note": 84,
      "start": 8.9992,
      "duration": 0.1495,
      "velocity": 105,
      "chip": "ym2612"
    },
    {
      "channel": 2,
      "note": 81,
      "start": 8.9995,
      "duration": 0.1494,
      "velocity": 98,
      "chip": "ym2612"
    },
    {
      "channel": 3,
      "note": 81,
      "start": 8.9998,
      "duration": 0.1492,
      "velocity": 105,
      "chip": "ym2612"
    },
    {
      "channel": 4,
      "note": 84,
      "start": 9.0001,
      "duration": 0.1493,
      "velocity": 105,
      "chip": "ym2612"
    },
    {
      "channel": 3,
      "note": 83,
      "start": 9.1493,
      "duration": 0.1501,
      "velocity": 105,
      "chip": "ym2612"
    },
    {
      "channel": 4,
      "note": 86,
      "start": 9.1496,
      "duration": 0.15,
      "velocity": 105,
      "chip": "ym2612"
    },
    {
      "channel": 5,
      "note": 81,
      "start": 9.1499,
      "duration": 0.1499,
      "velocity": 98,
      "chip": "ym2612"
    },
    {
      "channel": 0,
      "note": 78,
      "start": 9.2988,
      "duration": 0.1498,
      "velocity": 105,
      "chip": "ym2612"
    },
    {
      "channel": 1,
      "note": 81,
      "start": 9.299,
      "duration": 0.1497,
      "velocity": 105,
      "chip": "ym2612"
    },
    {
      "channel": 2,
      "note": 78,
      "start": 9.2994,
      "duration": 0.1496,
      "velocity": 98,
      "chip": "ym2612"
    },
    {
      "channel": 3,
      "note": 81,
      "start": 9.4494,
      "duration": 0.1502,
      "velocity": 105,
      "chip": "ym2612"
    },
    {
      "channel": 4,
      "note": 84,
      "start": 9.4498,
      "duration": 0.15,
      "velocity": 105,
      "chip": "ym2612"
    },
    {
      "channel": 5,
      "note": 78,
      "start": 9.45,
      "duration": 0.15,
      "velocity": 98,
      "chip": "ym2612"
    },
    {
      "channel": 0,
      "note": 79,
      "start": 9.5989,
      "duration": 0.1497,
      "velocity": 105,
      "chip": "ym2612"
    },
    {
      "channel": 1,
      "note": 83,
      "start": 9.5992,
      "duration": 0.1495,
      "velocity": 105,
      "chip": "ym2612"
    },
    {
      "channel": 2,
      "note": 79,
      "start": 9.5995,
      "duration": 0.1494,
      "velocity": 98,
      "chip": "ym2612"
    },
    {
      "channel": 3,
      "note": 78,
      "start": 9.7493,
      "duration": 0.1501,
      "velocity": 105,
      "chip": "ym2612"
    },
    {
      "channel": 4,
      "note": 81,
      "start": 9.7496,
      "duration": 0.15,
      "velocity": 105,
      "chip": "ym2612"
    },
    {
      "channel": 5,
      "note": 79,
      "start": 9.7499,
      "duration": 0.1499,
      "velocity": 98,
      "chip": "ym2612"
    },
    {
      "channel": 0,
      "note": 76,
      "start": 9.8988,
      "duration": 0.1498,
      "velocity": 105,
      "chip": "ym2612"
    },
    {
      "channel": 1,
      "note": 79,
      "start": 9.899,
      "duration": 0.1497,
      "velocity": 105,
      "chip": "ym2612"
    },
    {
      "channel": 2,
      "note": 76,
      "start": 9.8994,
      "duration": 0.1496,
      "velocity": 98,
      "chip": "ym2612"
    },
    {
      "channel": 3,
      "note": 79,
      "start": 10.0494,
      "duration": 0.1502,
      "velocity": 105,
      "chip": "ym2612"
    },
    {
      "channel": 4,
      "note": 83,
      "start": 10.0498,
      "duration": 0.15,
      "velocity": 105,
      "chip": "ym2612"
    },
    {
      "channel": 5,
      "note": 76,
      "start": 10.05,
      "duration": 0.15,
      "velocity": 98,
      "chip": "ym2612"
    },
    {
      "channel": 0,
      "note": 78,
      "start": 10.1989,
      "duration": 0.1497,
      "velocity": 105,
      "chip": "ym2612"
    },
    {
      "channel": 1,
      "note": 81,
      "start": 10.1992,
      "duration": 0.1495,
      "velocity": 105,
      "chip": "ym2612"
    },
    {
      "channel": 2,
      "note": 78,
      "start": 10.1995,
      "duration": 0.1494,
      "velocity": 98,
      "chip": "ym2612"
    },
    {
      "channel": 3,
      "note": 76,
      "start": 10.3493,
      "duration": 0.1501,
      "velocity": 105,
      "chip": "ym2612"
    },
    {
      "channel": 4,
      "note": 79,
      "start": 10.3496,
      "duration": 0.15,
      "velocity": 105,
      "chip": "ym2612"
    },
    {
      "channel": 5,
      "note": 78,
      "start": 10.3499,
      "duration": 0.1499,
      "velocity": 98,
      "chip": "ym2612"
    },
    {
      "channel": 0,
      "note": 71,
      "start": 10.4988,
      "duration": 0.1498,
      "velocity": 105,
      "chip": "ym2612"
    },
    {
      "channel": 1,
      "note": 78,
      "start": 10.499,
      "duration": 0.1497,
      "velocity": 105,
      "chip": "ym2612"
    },
    {
      "channel": 2,
      "note": 71,
      "start": 10.4994,
      "duration": 0.1496,
      "velocity": 98,
      "chip": "ym2612"
    },
    {
      "channel": 3,
      "note": 78,
      "start": 10.6494,
      "duration": 0.1504,
      "velocity": 105,
      "chip": "ym2612"
    },
    {
      "channel": 4,
      "note": 81,
      "start": 10.6498,
      "duration": 0.1502,
      "velocity": 105,
      "chip": "ym2612"
    },
    {
      "channel": 5,
      "note": 71,
      "start": 10.65,
      "duration": 0.1501,
      "velocity": 98,
      "chip": "ym2612"
    },
    {
      "channel": 0,
      "note": 76,
      "start": 10.7989,
      "duration": 0.1496,
      "velocity": 105,
      "chip": "ym2612"
    },
    {
      "channel": 1,
      "note": 79,
      "start": 10.7994,
      "duration": 0.1494,
      "velocity": 105,
      "chip": "ym2612"
    },
    {
      "channel": 2,
      "note": 76,
      "start": 10.7997,
      "duration": 0.1493,
      "velocity": 98,
      "chip": "ym2612"
    },
    {
      "channel": 3,
      "note": 71,
      "start": 10.9493,
      "duration": 0.1501,
      "velocity": 105,
      "chip": "ym2612"
    },
    {
      "channel": 4,
      "note": 78,
      "start": 10.9496,
      "duration": 0.15,
      "velocity": 105,
      "chip": "ym2612"
    },
    {
      "channel": 5,
      "note": 76,
      "start": 10.95,
      "duration": 0.1499,
      "velocity": 98,
      "chip": "ym2612"
    },
    {
      "channel": 0,
      "note": 79,
      "start": 11.0988,
      "duration": 0.1498,
      "velocity": 105,
      "chip": "ym2612"
    },
    {
      "channel": 1,
      "note": 83,
      "start": 11.099,
      "duration": 0.1497,
      "velocity": 105,
      "chip": "ym2612"
    },
    {
      "channel": 2,
      "note": 79,
      "start": 11.0994,
      "duration": 0.1496,
      "velocity": 98,
      "chip": "ym2612"
    },
    {
      "channel": 3,
      "note": 76,
      "start": 11.2494,
      "duration": 0.1501,
      "velocity": 105,
      "chip": "ym2612"
    },
    {
      "channel": 4,
      "note": 79,
      "start": 11.2498,
      "duration": 0.1499,
      "velocity": 105,
      "chip": "ym2612"
    },
    {
      "channel": 5,
      "note": 79,
      "start": 11.2501,
      "duration": 0.1498,
      "velocity": 98,
      "chip": "ym2612"
    },
    {
      "channel": 0,
      "note": 78,
      "start": 11.3989,
      "duration": 0.1497,
      "velocity": 105,
      "chip": "ym2612"
    },
    {
      "channel": 1,
      "note": 81,
      "start": 11.3992,
      "duration": 0.1495,
      "velocity": 105,
      "chip": "ym2612"
    },
    {
      "channel": 2,
      "note": 78,
      "start": 11.3995,
      "duration": 0.1494,
      "velocity": 98,
      "chip": "ym2612"
    },
    {
      "channel": 3,
      "note": 79,
      "start": 11.5493,
      "duration": 0.1501,
      "velocity": 105,
      "chip": "ym2612"
    },
    {
      "channel": 4,
      "note": 83,
      "start": 11.5496,
      "duration": 0.15,
      "velocity": 105,
      "chip": "ym2612"
    },
    {
      "channel": 5,
      "note": 78,
      "start": 11.5499,
      "duration": 0.1499,
      "velocity": 98,
      "chip": "ym2612"
    },
    {
      "channel": 0,
      "note": 81,
      "start": 11.6988,
      "duration": 0.1498,
      "velocity": 105,
      "chip": "ym2612"
    },
    {
      "channel": 1,
      "note": 84,
      "start": 11.699,
      "duration": 0.1497,
      "velocity": 105,
      "chip": "ym2612"
    },
    {
      "channel": 2,
      "note": 81,
      "start": 11.6994,
      "duration": 0.1496,
      "velocity": 98,
      "chip": "ym2612"
    },
    {
      "channel": 3,
      "note": 78,
      "start": 11.8494,
      "duration": 0.1502,
      "velocity": 105,
      "chip": "ym2612"
    },
    {
      "channel": 4,
      "note": 81,
      "start": 11.8498,
      "duration": 0.15,
      "velocity": 105,
      "chip": "ym2612"
    },
    {
      "channel": 5,
      "note": 81,
      "start": 11.85,
      "duration": 0.15,
      "velocity": 98,
      "chip": "ym2612"
    },
    {
      "channel": 0,
      "note": 79,
      "start": 11.9989,
      "duration": 0.1497,
      "velocity": 105,
      "chip": "ym2612"
    },
    {
      "channel": 1,
      "note": 83,
      "start": 11.9992,
      "duration": 0.1497,
      "velocity": 105,
      "chip": "ym2612"
    },
    {
      "channel": 2,
      "note": 79,
      "start": 11.9995,
      "duration": 0.1496,
      "velocity": 98,
      "chip": "ym2612"
    },
    {
      "channel": 0,
      "note": 81,
      "start": 12.1488,
      "duration": 0.1498,
      "velocity": 105,
      "chip": "ym2612"
    },
    {
      "channel": 1,
      "note": 84,
      "start": 12.149,
      "duration": 0.1498,
      "velocity": 105,
      "chip": "ym2612"
    },
    {
      "channel": 2,
      "note": 81,
      "start": 12.1494,
      "duration": 0.1498,
      "velocity": 98,
      "chip": "ym2612"
    },
    {
      "channel": 3,
      "note": 81,
      "start": 12.1497,
      "duration": 0.1498,
      "velocity": 105,
      "chip": "ym2612"
    },
    {
      "channel": 4,
      "note": 84,
      "start": 12.15,
      "duration": 0.1497,
      "velocity": 105,
      "chip": "ym2612"
    },
    {
      "channel": 5,
      "note": 79,
      "start": 12.1503,
      "duration": 0.1495,
      "velocity": 98,
      "chip": "ym2612"
    },
    {
      "channel": 0,
      "note": 83,
      "start": 12.2988,
      "duration": 0.1498,
      "velocity": 105,
      "chip": "ym2612"
    },
    {
      "channel": 1,
      "note": 86,
      "start": 12.299,
      "duration": 0.1497,
      "velocity": 105,
      "chip": "ym2612"
    },
    {
      "channel": 2,
      "note": 83,
      "start": 12.2994,
      "duration": 0.1496,
      "velocity": 98,
      "chip": "ym2612"
    },
    {
      "channel": 5,
      "note": 81,
      "start": 12.3,
      "duration": 0.1498,
      "velocity": 98,
      "chip": "ym2612"
    },
    {
      "channel": 3,
      "note": 79,
      "start": 12.4494,
      "duration": 0.1502,
      "velocity": 105,
      "chip": "ym2612"
    },
    {
      "channel": 4,
      "note": 83,
      "start": 12.4498,
      "duration": 0.1501,
      "velocity": 105,
      "chip": "ym2612"
    },
    {
      "channel": 5,
      "note": 83,
      "start": 12.45,
      "duration": 0.1501,
      "velocity": 98,
      "chip": "ym2612"
    },
    {
      "channel": 0,
      "note": 81,
      "start": 12.5989,
      "duration": 0.1497,
      "velocity": 105,
      "chip": "ym2612"
    },
    {
      "channel": 1,
      "note": 84,
      "start": 12.5992,
      "duration": 0.1495,
      "velocity": 105,
      "chip": "ym2612"
    },
    {
      "channel": 2,
      "note": 81,
      "start": 12.5995,
      "duration": 0.1494,
      "velocity": 98,
      "chip": "ym2612"
    },
    {
      "channel": 3,
      "note": 81,
      "start": 12.5998,
      "duration": 0.1492,
      "velocity": 105,
      "chip": "ym2612"
    },
    {
      "channel": 4,
      "note": 84,
      "start": 12.6001,
      "duration": 0.1493,
      "velocity": 105,
      "chip": "ym2612"
    },
    {
      "channel": 3,
      "note": 83,
      "start": 12.7493,
      "duration": 0.1501,
      "velocity": 105,
      "chip": "ym2612"
    },
    {
      "channel": 4,
      "note": 86,
      "start": 12.7496,
      "duration": 0.15,
      "velocity": 105,
      "chip": "ym2612"
    },
    {
      "channel": 5,
      "note": 81,
      "start": 12.7499,
      "duration": 0.1499,
      "velocity": 98,
      "chip": "ym2612"
    },
    {
      "channel": 0,
      "note": 78,
      "start": 12.8988,
      "duration": 0.1498,
      "velocity": 105,
      "chip": "ym2612"
    },
    {
      "channel": 1,
      "note": 81,
      "start": 12.899,
      "duration": 0.1497,
      "velocity": 105,
      "chip": "ym2612"
    },
    {
      "channel": 2,
      "note": 78,
      "start": 12.8994,
      "duration": 0.1496,
      "velocity": 98,
      "chip": "ym2612"
    },
    {
      "channel": 3,
      "note": 81,
      "start": 13.0494,
      "duration": 0.1502,
      "velocity": 105,
      "chip": "ym2612"
    },
    {
      "channel": 4,
      "note": 84,
      "start": 13.0498,
      "duration": 0.15,
      "velocity": 105,
      "chip": "ym2612"
    },
    {
      "channel": 5,
      "note": 78,
      "start": 13.05,
      "duration": 0.15,
      "velocity": 98,
      "chip": "ym2612"
    },
    {
      "channel": 0,
      "note": 79,
      "start": 13.1989,
      "duration": 0.1497,
      "velocity": 105,
      "chip": "ym2612"
    },
    {
      "channel": 1,
      "note": 83,
      "start": 13.1992,
      "duration": 0.1495,
      "velocity": 105,
      "chip": "ym2612"
    },
    {
      "channel": 2,
      "note": 79,
      "start": 13.1995,
      "duration": 0.1494,
      "velocity": 98,
      "chip": "ym2612"
    },
    {
      "channel": 3,
      "note": 78,
      "start": 13.3493,
      "duration": 0.1501,
      "velocity": 105,
      "chip": "ym2612"
    },
    {
      "channel": 4,
      "note": 81,
      "start": 13.3496,
      "duration": 0.15,
      "velocity": 105,
      "chip": "ym2612"
    },
    {
      "channel": 5,
      "note": 79,
      "start": 13.3499,
      "duration": 0.1499,
      "velocity": 98,
      "chip": "ym2612"
    },
    {
      "channel": 0,
      "note": 76,
      "start": 13.4988,
      "duration": 0.1498,
      "velocity": 105,
      "chip": "ym2612"
    },
    {
      "channel": 1,
      "note": 79,
      "start": 13.499,
      "duration": 0.1497,
      "velocity": 105,
      "chip": "ym2612"
    },
    {
      "channel": 2,
      "note": 76,
      "start": 13.4994,
      "duration": 0.1496,
      "velocity": 98,
      "chip": "ym2612"
    },
    {
      "channel": 3,
      "note": 79,
      "start": 13.6494,
      "duration": 0.1502,
      "velocity": 105,
      "chip": "ym2612"
    },
    {
      "channel": 4,
      "note": 83,
      "start": 13.6498,
      "duration": 0.15,
      "velocity": 105,
      "chip": "ym2612"
    },
    {
      "channel": 5,
      "note": 76,
      "start": 13.65,
      "duration": 0.15,
      "velocity": 98,
      "chip": "ym2612"
    },
    {
      "channel": 0,
      "note": 78,
      "start": 13.7989,
      "duration": 0.1497,
      "velocity": 105,
      "chip": "ym2612"
    },
    {
      "channel": 1,
      "note": 81,
      "start": 13.7992,
      "duration": 0.1495,
      "velocity": 105,
      "chip": "ym2612"
    },
    {
      "channel": 2,
      "note": 78,
      "start": 13.7995,
      "duration": 0.1494,
      "velocity": 98,
      "chip": "ym2612"
    },
    {
      "channel": 3,
      "note": 76,
      "start": 13.9493,
      "duration": 0.1501,
      "velocity": 105,
      "chip": "ym2612"
    },
    {
      "channel": 4,
      "note": 79,
      "start": 13.9496,
      "duration": 0.15,
      "velocity": 105,
      "chip": "ym2612"
    },
    {
      "channel": 5,
      "note": 78,
      "start": 13.9499,
      "duration": 0.1499,
      "velocity": 98,
      "chip": "ym2612"
    },
    {
      "channel": 0,
      "note": 71,
      "start": 14.0988,
      "duration": 0.1498,
      "velocity": 105,
      "chip": "ym2612"
    },
    {
      "channel": 1,
      "note": 78,
      "start": 14.099,
      "duration": 0.1497,
      "velocity": 105,
      "chip": "ym2612"
    },
    {
      "channel": 2,
      "note": 71,
      "start": 14.0994,
      "duration": 0.1496,
      "velocity": 98,
      "chip": "ym2612"
    },
    {
      "channel": 3,
      "note": 78,
      "start": 14.2494,
      "duration": 0.1526,
      "velocity": 105,
      "chip": "ym2612"
    },
    {
      "channel": 4,
      "note": 81,
      "start": 14.2498,
      "duration": 0.1524,
      "velocity": 105,
      "chip": "ym2612"
    },
    {
      "channel": 5,
      "note": 71,
      "start": 14.25,
      "duration": 0.1522,
      "velocity": 98,
      "chip": "ym2612"
    },
    {
      "channel": 0,
      "note": 76,
      "start": 14.3989,
      "duration": 0.5997,
      "velocity": 105,
      "chip": "ym2612"
    },
    {
      "channel": 1,
      "note": 83,
      "start": 14.4004,
      "duration": 0.5985,
      "velocity": 91,
      "chip": "ym2612"
    },
    {
      "channel": 2,
      "note": 52,
      "start": 14.4019,
      "duration": 0.5973,
      "velocity": 101,
      "chip": "ym2612"
    },
    {
      "channel": 3,
      "note": 71,
      "start": 14.5493,
      "duration": 0.1498,
      "velocity": 105,
      "chip": "ym2612"
    },
    {
      "channel": 4,
      "note": 78,
      "start": 14.5495,
      "duration": 0.1497,
      "velocity": 105,
      "chip": "ym2612"
    },
    {
      "channel": 5,
      "note": 52,
      "start": 14.5511,
      "duration": 0.5982,
      "velocity": 101,
      "chip": "ym2612"
    },
    {
      "channel": 3,
      "note": 76,
      "start": 14.8494,
      "duration": 0.5997,
      "velocity": 105,
      "chip": "ym2612"
    },
    {
      "channel": 4,
      "note": 83,
      "start": 14.8509,
      "duration": 0.5984,
      "velocity": 91,
      "chip": "ym2612"
    },
    {
      "channel": 0,
      "note": 79,
      "start": 14.9988,
      "duration": 0.5998,
      "velocity": 105,
      "chip": "ym2612"
    },
    {
      "channel": 1,
      "note": 88,
      "start": 14.999,
      "duration": 0.5998,
      "velocity": 91,
      "chip": "ym2612"
    },
    {
      "channel": 2,
      "note": 62,
      "start": 14.9994,
      "duration": 0.2995,
      "velocity": 101,
      "chip": "ym2612"
    },
    {
      "channel": 5,
      "note": 62,
      "start": 15.1496,
      "duration": 0.3001,
      "velocity": 101,
      "chip": "ym2612"
    },
    {
      "channel": 2,
      "note": 59,
      "start": 15.299,
      "duration": 0.3001,
      "velocity": 101,
      "chip": "ym2612"
    },
    {
      "channel": 3,
      "note": 79,
      "start": 15.4493,
      "duration": 0.5998,
      "velocity": 105,
      "chip": "ym2612"
    },
    {
      "channel": 4,
      "note": 88,
      "start": 15.4496,
      "duration": 0.5998,
      "velocity": 91,
      "chip": "ym2612"
    },
    {
      "channel": 5,
      "note": 59,
      "start": 15.4499,
      "duration": 0.2994,
      "velocity": 101,
      "chip": "ym2612"
    },
    {
      "channel": 0,
      "note": 86,
      "start": 15.5988,
      "duration": 0.5998,
      "velocity": 105,
      "chip": "ym2612"
    },
    {
      "channel": 1,
      "note": 95,
      "start": 15.599,
      "duration": 0.5998,
      "velocity": 91,
      "chip": "ym2612"
    },
    {
      "channel": 2,
      "note": 55,
      "start": 15.5994,
      "duration": 0.2995,
      "velocity": 101,
      "chip": "ym2612"
    },
    {
      "channel": 5,
      "note": 55,
      "start": 15.7496,
      "duration": 0.3001,
      "velocity": 101,
      "chip": "ym2612"
    },
    {
      "channel": 2,
      "note": 52,
      "start": 15.899,
      "duration": 0.3001,
      "velocity": 101,
      "chip": "ym2612"
    },
    {
      "channel": 3,
      "note": 86,
      "start": 16.0493,
      "duration": 0.5998,
      "velocity": 105,
      "chip": "ym2612"
    },
    {
      "channel": 4,
      "note": 95,
      "start": 16.0496,
      "duration": 0.5998,
      "velocity": 91,
      "chip": "ym2612"
    },
    {
      "channel": 5,
      "note": 52,
      "start": 16.0499,
      "duration": 0.2994,
      "velocity": 101,
      "chip": "ym2612"
    },
    {
      "channel": 0,
      "note": 85,
      "start": 16.1988,
      "duration": 0.5998,
      "velocity": 105,
      "chip": "ym2612"
    },
    {
      "channel": 1,
      "note": 93,
      "start": 16.199,
      "duration": 0.5998,
      "velocity": 91,
      "chip": "ym2612"
    },
    {
      "channel": 2,
      "note": 50,
      "start": 16.1994,
      "duration": 0.5998,
      "velocity": 101,
      "chip": "ym2612"
    },
    {
      "channel": 5,
      "note": 50,
      "start": 16.3496,
      "duration": 0.5998,
      "velocity": 101,
      "chip": "ym2612"
    },
    {
      "channel": 3,
      "note": 85,
      "start": 16.6493,
      "duration": 0.5997,
      "velocity": 105,
      "chip": "ym2612"
    },
    {
      "channel": 4,
      "note": 93,
      "start": 16.6496,
      "duration": 0.5998,
      "velocity": 91,
      "chip": "ym2612"
    },
    {
      "channel": 0,
      "note": 83,
      "start": 16.7988,
      "duration": 0.1498,
      "velocity": 105,
      "chip": "ym2612"
    },
    {
      "channel": 1,
      "note": 91,
      "start": 16.7991,
      "duration": 0.1496,
      "velocity": 91,
      "chip": "ym2612"
    },
    {
      "channel": 2,
      "note": 54,
      "start": 16.7994,
      "duration": 0.5998,
      "velocity": 101,
      "chip": "ym2612"
    },
    {
      "channel": 5,
      "note": 54,
      "start": 16.9496,
      "duration": 0.6001,
      "velocity": 101,
      "chip": "ym2612"
    },
    {
      "channel": 0,
      "note": 81,
      "start": 17.0988,
      "duration": 0.1498,
      "velocity": 105,
      "chip": "ym2612"
    },
    {
      "channel": 1,
      "note": 90,
      "start": 17.099,
      "duration": 0.1497,
      "velocity": 91,
      "chip": "ym2612"
    },
    {
      "channel": 3,
      "note": 83,
      "start": 17.2493,
      "duration": 0.1501,
      "velocity": 105,
      "chip": "ym2612"
    },
    {
      "channel": 4,
      "note": 91,
      "start": 17.2496,
      "duration": 0.15,
      "velocity": 91,
      "chip": "ym2612"
    },
    {
      "channel": 0,
      "note": 79,
      "start": 17.3988,
      "duration": 0.1498,
      "velocity": 105,
      "chip": "ym2612"
    },
    {
      "channel": 1,
      "note": 88,
      "start": 17.399,
      "duration": 0.1497,
      "velocity": 91,
      "chip": "ym2612"
    },
    {
      "channel": 2,
      "note": 57,
      "start": 17.3994,
      "duration": 0.5998,
      "velocity": 101,
      "chip": "ym2612"
    },
    {
      "channel": 3,
      "note": 81,
      "start": 17.5493,
      "duration": 0.15,
      "velocity": 105,
      "chip": "ym2612"
    },
    {
      "channel": 4,
      "note": 90,
      "start": 17.5496,
      "duration": 0.1499,
      "velocity": 91,
      "chip": "ym2612"
    },
    {
      "channel": 5,
      "note": 57,
      "start": 17.5499,
      "duration": 0.5997,
      "velocity": 101,
      "chip": "ym2612"
    },
    {
      "channel": 0,
      "note": 78,
      "start": 17.6988,
      "duration": 0.1498,
      "velocity": 105,
      "chip": "ym2612"
    },
    {
      "channel": 1,
      "note": 86,
      "start": 17.699,
      "duration": 0.1497,
      "velocity": 91,
      "chip": "ym2612"
    },
    {
      "channel": 3,
      "note": 79,
      "start": 17.8493,
      "duration": 0.1502,
      "velocity": 105,
      "chip": "ym2612"
    },
    {
      "channel": 4,
      "note": 88,
      "start": 17.8496,
      "duration": 0.15,
      "velocity": 91,
      "chip": "ym2612"
    },
    {
      "channel": 0,
      "note": 76,
      "start": 17.9988,
      "duration": 0.5998,
      "velocity": 105,
      "chip": "ym2612"
    },
    {
      "channel": 1,
      "note": 84,
      "start": 17.9991,
      "duration": 0.5998,
      "velocity": 91,
      "chip": "ym2612"
    },
    {
      "channel": 2,
      "note": 60,
      "start": 17.9994,
      "duration": 0.5997,
      "velocity": 101,
      "chip": "ym2612"
    },
    {
      "channel": 3,
      "note": 78,
      "start": 18.1493,
      "duration": 0.1498,
      "velocity": 105,
      "chip": "ym2612"
    },
    {
      "channel": 4,
      "note": 86,
      "start": 18.1495,
      "duration": 0.1497,
      "velocity": 91,
      "chip": "ym2612"
    },
    {
      "channel": 5,
      "note": 60,
      "start": 18.1498,
      "duration": 0.5995,
      "velocity": 101,
      "chip": "ym2612"
    },
    {
      "channel": 3,
      "note": 76,
      "start": 18.4493,
      "duration": 0.5997,
      "velocity": 105,
      "chip": "ym2612"
    },
    {
      "channel": 4,
      "note": 84,
      "start": 18.4496,
      "duration": 0.5997,
      "velocity": 91,
      "chip": "ym2612"
    },
    {
      "channel": 0,
      "note": 78,
      "start": 18.5988,
      "duration": 0.5998,
      "velocity": 105,
      "chip": "ym2612"
    },
    {
      "channel": 1,
      "note": 86,
      "start": 18.599,
      "duration": 0.5998,
      "velocity": 91,
      "chip": "ym2612"
    },
    {
      "channel": 2,
      "note": 59,
      "start": 18.5994,
      "duration": 0.2995,
      "velocity": 101,
      "chip": "ym2612"
    },
    {
      "channel": 5,
      "note": 59,
      "start": 18.7496,
      "duration": 0.3001,
      "velocity": 101,
      "chip": "ym2612"
    },
    {
      "channel": 2,
      "note": 57,
      "start": 18.899,
      "duration": 0.3001,
      "velocity": 101,
      "chip": "ym2612"
    },
    {
      "channel": 3,
      "note": 78,
      "start": 19.0493,
      "duration": 0.5998,
      "velocity": 105,
      "chip": "ym2612"
    },
    {
      "channel": 4,
      "note": 86,
      "start": 19.0496,
      "duration": 0.5998,
      "velocity": 91,
      "chip": "ym2612"
    },
    {
      "channel": 5,
      "note": 57,
      "start": 19.0499,
      "duration": 0.2994,
      "velocity": 101,
      "chip": "ym2612"
    },
    {
      "channel": 0,
      "note": 74,
      "start": 19.1988,
      "duration": 0.5998,
      "velocity": 105,
      "chip": "ym2612"
    },
    {
      "channel": 1,
      "note": 95,
      "start": 19.199,
      "duration": 0.5998,
      "velocity": 91,
      "chip": "ym2612"
    },
    {
      "channel": 2,
      "note": 55,
      "start": 19.1994,
      "duration": 0.2995,
      "velocity": 101,
      "chip": "ym2612"
    },
    {
      "channel": 5,
      "note": 55,
      "start": 19.3496,
      "duration": 0.3001,
      "velocity": 101,
      "chip": "ym2612"
    },
    {
      "channel": 2,
      "note": 54,
      "start": 19.499,
      "duration": 0.3001,
      "velocity": 101,
      "chip": "ym2612"
    },
    {
      "channel": 3,
      "note": 74,
      "start": 19.6493,
      "duration": 0.5995,
      "velocity": 105,
      "chip": "ym2612"
    },
    {
      "channel": 4,
      "note": 95,
      "start": 19.6496,
      "duration": 0.5995,
      "velocity": 91,
      "chip": "ym2612"
    },
    {
      "channel": 5,
      "note": 54,
      "start": 19.6499,
      "duration": 0.2995,
      "velocity": 101,
      "chip": "ym2612"
    },
    {
      "channel": 0,
      "note": 76,
      "start": 19.7988,
      "duration": 0.1498,
      "velocity": 105,
      "chip": "ym2612"
    },
    {
      "channel": 1,
      "note": 93,
      "start": 19.7991,
      "duration": 0.1496,
      "velocity": 91,
      "chip": "ym2612"
    },
    {
      "channel": 2,
      "note": 48,
      "start": 19.7994,
      "duration": 0.5998,
      "velocity": 101,
      "chip": "ym2612"
    },
    {
      "channel": 5,
      "note": 48,
      "start": 19.9496,
      "duration": 0.5995,
      "velocity": 101,
      "chip": "ym2612"
    },
    {
      "channel": 3,
      "note": 76,
      "start": 20.249,
      "duration": 0.1505,
      "velocity": 105,
      "chip": "ym2612"
    },
    {
      "channel": 4,
      "note": 93,
      "start": 20.2494,
      "duration": 0.1503,
      "velocity": 91,
      "chip": "ym2612"
    },
    {
      "channel": 0,
      "note": 71,
      "start": 20.3989,
      "duration": 1.1997,
      "velocity": 105,
      "chip": "ym2612"
    },
    {
      "channel": 1,
      "note": 90,
      "start": 20.3992,
      "duration": 1.1997,
      "velocity": 91,
      "chip": "ym2612"
    },
    {
      "channel": 2,
      "note": 47,
      "start": 20.3994,
      "duration": 0.5994,
      "velocity": 101,
      "chip": "ym2612"
    },
    {
      "channel": 5,
      "note": 47,
      "start": 20.5493,
      "duration": 0.6,
      "velocity": 101,
      "chip": "ym2612"
    },
    {
      "channel": 3,
      "note": 71,
      "start": 20.8493,
      "duration": 1.1997,
      "velocity": 105,
      "chip": "ym2612"
    },
    {
      "channel": 4,
      "note": 90,
      "start": 20.8496,
      "duration": 1.1997,
      "velocity": 91,
      "chip": "ym2612"
    },
    {
      "channel": 2,
      "note": 50,
      "start": 20.9991,
      "duration": 0.6001,
      "velocity": 101,
      "chip": "ym2612"
    },
    {
      "channel": 5,
      "note": 50,
      "start": 21.1496,
      "duration": 0.5998,
      "velocity": 101,
      "chip": "ym2612"
    },
    {
      "channel": 0,
      "note": 72,
      "start": 21.5988,
      "duration": 0.8998,
      "velocity": 105,
      "chip": "ym2612"
    },
    {
      "channel": 1,
      "note": 81,
      "start": 21.5991,
      "duration": 0.8998,
      "velocity": 91,
      "chip": "ym2612"
    },
    {
      "channel": 2,
      "note": 45,
      "start": 21.5994,
      "duration": 0.5995,
      "velocity": 101,
      "chip": "ym2612"
    },
    {
      "channel": 5,
      "note": 45,
      "start": 21.7496,
      "duration": 0.5998,
      "velocity": 101,
      "chip": "ym2612"
    },
    {
      "channel": 3,
      "note": 72,
      "start": 22.0493,
      "duration": 0.8997,
      "velocity": 105,
      "chip": "ym2612"
    },
    {
      "channel": 4,
      "note": 81,
      "start": 22.0496,
      "duration": 0.8997,
      "velocity": 91,
      "chip": "ym2612"
    },
    {
      "channel": 2,
      "note": 52,
      "start": 22.1991,
      "duration": 0.6,
      "velocity": 101,
      "chip": "ym2612"
    },
    {
      "channel": 5,
      "note": 52,
      "start": 22.3496,
      "duration": 0.6001,
      "velocity": 101,
      "chip": "ym2612"
    },
    {
      "channel": 0,
      "note": 74,
      "start": 22.4988,
      "duration": 0.2998,
      "velocity": 105,
      "chip": "ym2612"
    },
    {
      "channel": 1,
      "note": 83,
      "start": 22.4991,
      "duration": 0.2998,
      "velocity": 91,
      "chip": "ym2612"
    },
    {
      "channel": 0,
      "note": 76,
      "start": 22.7988,
      "duration": 0.2998,
      "velocity": 105,
      "chip": "ym2612"
    },
    {
      "channel": 1,
      "note": 84,
      "start": 22.799,
      "duration": 0.2998,
      "velocity": 91,
      "chip": "ym2612"
    },
    {
      "channel": 2,
      "note": 57,
      "start": 22.7994,
      "duration": 0.5998,
      "velocity": 101,
      "chip": "ym2612"
    },
    {
      "channel": 3,
      "note": 74,
      "start": 22.9493,
      "duration": 0.2998,
      "velocity": 105,
      "chip": "ym2612"
    },
    {
      "channel": 4,
      "note": 83,
      "start": 22.9496,
      "duration": 0.2998,
      "velocity": 91,
      "chip": "ym2612"
    },
    {
      "channel": 5,
      "note": 57,
      "start": 22.9499,
      "duration": 0.5998,
      "velocity": 101,
      "chip": "ym2612"
    },
    {
      "channel": 0,
      "note": 79,
      "start": 23.0988,
      "duration": 0.2998,
      "velocity": 105,
      "chip": "ym2612"
    },
    {
      "channel": 1,
      "note": 88,
      "start": 23.099,
      "duration": 0.2998,
      "velocity": 91,
      "chip": "ym2612"
    },
    {
      "channel": 3,
      "note": 76,
      "start": 23.2493,
      "duration": 0.2998,
      "velocity": 105,
      "chip": "ym2612"
    },
    {
      "channel": 4,
      "note": 84,
      "start": 23.2496,
      "duration": 0.2998,
      "velocity": 91,
      "chip": "ym2612"
    },
    {
      "channel": 0,
      "note": 83,
      "start": 23.3988,
      "duration": 0.2998,
      "velocity": 105,
      "chip": "ym2612"
    },
    {
      "channel": 1,
      "note": 91,
      "start": 23.399,
      "duration": 0.2998,
      "velocity": 91,
      "chip": "ym2612"
    },
    {
      "channel": 2,
      "note": 55,
      "start": 23.3994,
      "duration": 0.5998,
      "velocity": 101,
      "chip": "ym2612"
    },
    {
      "channel": 3,
      "note": 79,
      "start": 23.5493,
      "duration": 0.2998,
      "velocity": 105,
      "chip": "ym2612"
    },
    {
      "channel": 4,
      "note": 88,
      "start": 23.5495,
      "duration": 0.2998,
      "velocity": 91,
      "chip": "ym2612"
    },
    {
      "channel": 5,
      "note": 55,
      "start": 23.5498,
      "duration": 0.5998,
      "velocity": 101,
      "chip": "ym2612"
    },
    {
      "channel": 0,
      "note": 86,
      "start": 23.6988,
      "duration": 0.2998,
      "velocity": 105,
      "chip": "ym2612"
    },
    {
      "channel": 1,
      "note": 95,
      "start": 23.699,
      "duration": 0.2998,
      "velocity": 91,
      "chip": "ym2612"
    },
    {
      "channel": 3,
      "note": 83,
      "start": 23.8493,
      "duration": 0.2998,
      "velocity": 105,
      "chip": "ym2612"
    },
    {
      "channel": 4,
      "note": 91,
      "start": 23.8496,
      "duration": 0.2998,
      "velocity": 91,
      "chip": "ym2612"
    },
    {
      "channel": 0,
      "note": 79,
      "start": 23.9988,
      "duration": 0.4498,
      "velocity": 105,
      "chip": "ym2612"
    },
    {
      "channel": 1,
      "note": 86,
      "start": 23.9991,
      "duration": 0.4496,
      "velocity": 91,
      "chip": "ym2612"
    },
    {
      "channel": 2,
      "note": 50,
      "start": 23.9994,
      "duration": 0.5998,
      "velocity": 101,
      "chip": "ym2612"
    },
    {
      "channel": 3,
      "note": 86,
      "start": 24.1493,
      "duration": 0.2999,
      "velocity": 105,
      "chip": "ym2612"
    },
    {
      "channel": 4,
      "note": 95,
      "start": 24.1495,
      "duration": 0.2999,
      "velocity": 91,
      "chip": "ym2612"
    },
    {
      "channel": 5,
      "note": 50,
      "start": 24.1498,
      "duration": 0.5995,
      "velocity": 101,
      "chip": "ym2612"
    },
    {
      "channel": 3,
      "note": 79,
      "start": 24.4494,
      "duration": 0.45,
      "velocity": 105,
      "chip": "ym2612"
    },
    {
      "channel": 4,
      "note": 86,
      "start": 24.4496,
      "duration": 0.4499,
      "velocity": 91,
      "chip": "ym2612"
    },
    {
      "channel": 0,
      "note": 79,
      "start": 24.5988,
      "duration": 0.2998,
      "velocity": 105,
      "chip": "ym2612"
    },
    {
      "channel": 1,
      "note": 86,
      "start": 24.5991,
      "duration": 0.2998,
      "velocity": 91,
      "chip": "ym2612"
    },
    {
      "channel": 2,
      "note": 55,
      "start": 24.5994,
      "duration": 0.5998,
      "velocity": 101,
      "chip": "ym2612"
    },
    {
      "channel": 5,
      "note": 55,
      "start": 24.7496,
      "duration": 0.6001,
      "velocity": 101,
      "chip": "ym2612"
    },
    {
      "channel": 0,
      "note": 81,
      "start": 24.8988,
      "duration": 0.1498,
      "velocity": 105,
      "chip": "ym2612"
    },
    {
      "channel": 1,
      "note": 88,
      "start": 24.8991,
      "duration": 0.1498,
      "velocity": 91,
      "chip": "ym2612"
    },
    {
      "channel": 0,
      "note": 83,
      "start": 25.0488,
      "duration": 0.1498,
      "velocity": 105,
      "chip": "ym2612"
    },
    {
      "channel": 1,
      "note": 91,
      "start": 25.049,
      "duration": 0.1498,
      "velocity": 91,
      "chip": "ym2612"
    },
    {
      "channel": 3,
      "note": 79,
      "start": 25.0496,
      "duration": 0.2994,
      "velocity": 105,
      "chip": "ym2612"
    },
    {
      "channel": 4,
      "note": 86,
      "start": 25.0499,
      "duration": 0.2994,
      "velocity": 91,
      "chip": "ym2612"
    },
    {
      "channel": 0,
      "note": 84,
      "start": 25.1988,
      "duration": 0.2998,
      "velocity": 105,
      "chip": "ym2612"
    },
    {
      "channel": 1,
      "note": 93,
      "start": 25.1991,
      "duration": 0.2998,
      "velocity": 91,
      "chip": "ym2612"
    },
    {
      "channel": 2,
      "note": 54,
      "start": 25.1994,
      "duration": 0.5998,
      "velocity": 101,
      "chip": "ym2612"
    },
    {
      "channel": 3,
      "note": 81,
      "start": 25.3493,
      "duration": 0.1501,
      "velocity": 105,
      "chip": "ym2612"
    },
    {
      "channel": 4,
      "note": 88,
      "start": 25.3496,
      "duration": 0.15,
      "velocity": 91,
      "chip": "ym2612"
    },
    {
      "channel": 5,
      "note": 54,
      "start": 25.3499,
      "duration": 0.5997,
      "velocity": 101,
      "chip": "ym2612"
    },
    {
      "channel": 0,
      "note": 83,
      "start": 25.4988,
      "duration": 0.2998,
      "velocity": 105,
      "chip": "ym2612"
    },
    {
      "channel": 1,
      "note": 91,
      "start": 25.499,
      "duration": 0.2998,
      "velocity": 91,
      "chip": "ym2612"
    },
    {
      "channel": 3,
      "note": 83,
      "start": 25.4995,
      "duration": 0.1495,
      "velocity": 105,
      "chip": "ym2612"
    },
    {
      "channel": 4,
      "note": 91,
      "start": 25.4998,
      "duration": 0.1495,
      "velocity": 91,
      "chip": "ym2612"
    },
    {
      "channel": 3,
      "note": 84,
      "start": 25.6493,
      "duration": 0.2998,
      "velocity": 105,
      "chip": "ym2612"
    },
    {
      "channel": 4,
      "note": 93,
      "start": 25.6496,
      "duration": 0.2998,
      "velocity": 91,
      "chip": "ym2612"
    },
    {
      "channel": 0,
      "note": 81,
      "start": 25.7988,
      "duration": 0.2998,
      "velocity": 105,
      "chip": "ym2612"
    },
    {
      "channel": 1,
      "note": 90,
      "start": 25.799,
      "duration": 0.2998,
      "velocity": 91,
      "chip": "ym2612"
    },
    {
      "channel": 2,
      "note": 57,
      "start": 25.7994,
      "duration": 0.5998,
      "velocity": 101,
      "chip": "ym2612"
    },
    {
      "channel": 3,
      "note": 83,
      "start": 25.9493,
      "duration": 0.2998,
      "velocity": 105,
      "chip": "ym2612"
    },
    {
      "channel": 4,
      "note": 91,
      "start": 25.9495,
      "duration": 0.2998,
      "velocity": 91,
      "chip": "ym2612"
    },
    {
      "channel": 5,
      "note": 57,
      "start": 25.9498,
      "duration": 0.5998,
      "velocity": 101,
      "chip": "ym2612"
    },
    {
      "channel": 0,
      "note": 79,
      "start": 26.0988,
      "duration": 0.2998,
      "velocity": 105,
      "chip": "ym2612"
    },
    {
      "channel": 1,
      "note": 88,
      "start": 26.099,
      "duration": 0.2998,
      "velocity": 91,
      "chip": "ym2612"
    },
    {
      "channel": 3,
      "note": 81,
      "start": 26.2493,
      "duration": 0.2998,
      "velocity": 105,
      "chip": "ym2612"
    },
    {
      "channel": 4,
      "note": 90,
      "start": 26.2496,
      "duration": 0.2998,
      "velocity": 91,
      "chip": "ym2612"
    },
    {
      "channel": 0,
      "note": 78,
      "start": 26.3988,
      "duration": 0.2998,
      "velocity": 105,
      "chip": "ym2612"
    },
    {
      "channel": 1,
      "note": 86,
      "start": 26.399,
      "duration": 0.2998,
      "velocity": 91,
      "chip": "ym2612"
    },
    {
      "channel": 2,
      "note": 60,
      "start": 26.3994,
      "duration": 0.5998,
      "velocity": 101,
      "chip": "ym2612"
    },
    {
      "channel": 3,
      "note": 79,
      "start": 26.5493,
      "duration": 0.2998,
      "velocity": 105,
      "chip": "ym2612"
    },
    {
      "channel": 4,
      "note": 88,
      "start": 26.5495,
      "duration": 0.2998,
      "velocity": 91,
      "chip": "ym2612"
    },
    {
      "channel": 5,
      "note": 60,
      "start": 26.5498,
      "duration": 0.5999,
      "velocity": 101,
      "chip": "ym2612"
    },
    {
      "channel": 0,
      "note": 76,
      "start": 26.6988,
      "duration": 0.2998,
      "velocity": 105,
      "chip": "ym2612"
    },
    {
      "channel": 1,
      "note": 84,
      "start": 26.699,
      "duration": 0.2998,
      "velocity": 91,
      "chip": "ym2612"
    },
    {
      "channel": 3,
      "note": 78,
      "start": 26.8493,
      "duration": 0.2998,
      "velocity": 105,
      "chip": "ym2612"
    },
    {
      "channel": 4,
      "note": 86,
      "start": 26.8496,
      "duration": 0.2998,
      "velocity": 91,
      "chip": "ym2612"
    },
    {
      "channel": 0,
      "note": 75,
      "start": 26.9988,
      "duration": 0.1498,
      "velocity": 105,
      "chip": "ym2612"
    },
    {
      "channel": 1,
      "note": 83,
      "start": 26.9991,
      "duration": 0.1496,
      "velocity": 91,
      "chip": "ym2612"
    },
    {
      "channel": 2,
      "note": 63,
      "start": 26.9994,
      "duration": 0.2992,
      "velocity": 101,
      "chip": "ym2612"
    },
    {
      "channel": 3,
      "note": 76,
      "start": 27.1493,
      "duration": 0.2995,
      "velocity": 105,
      "chip": "ym2612"
    },
    {
      "channel": 4,
      "note": 84,
      "start": 27.1496,
      "duration": 0.2995,
      "velocity": 91,
      "chip": "ym2612"
    },
    {
      "channel": 5,
      "note": 63,
      "start": 27.15,
      "duration": 0.2995,
      "velocity": 101,
      "chip": "ym2612"
    },
    {
      "channel": 2,
      "note": 64,
      "start": 27.2989,
      "duration": 0.3003,
      "velocity": 101,
      "chip": "ym2612"
    },
    {
      "channel": 3,
      "note": 75,
      "start": 27.449,
      "duration": 0.1505,
      "velocity": 105,
      "chip": "ym2612"
    },
    {
      "channel": 4,
      "note": 83,
      "start": 27.4494,
      "duration": 0.1503,
      "velocity": 91,
      "chip": "ym2612"
    },
    {
      "channel": 5,
      "note": 64,
      "start": 27.4496,
      "duration": 0.2995,
      "velocity": 101,
      "chip": "ym2612"
    },
    {
      "channel": 0,
      "note": 83,
      "start": 27.5988,
      "duration": 1.1998,
      "velocity": 105,
      "chip": "ym2612"
    },
    {
      "channel": 1,
      "note": 90,
      "start": 27.5991,
      "duration": 0.2995,
      "velocity": 91,
      "chip": "ym2612"
    },
    {
      "channel": 2,
      "note": 66,
      "start": 27.5994,
      "duration": 0.2996,
      "velocity": 101,
      "chip": "ym2612"
    },
    {
      "channel": 5,
      "note": 66,
      "start": 27.7493,
      "duration": 0.3003,
      "velocity": 101,
      "chip": "ym2612"
    },
    {
      "channel": 1,
      "note": 91,
      "start": 27.8989,
      "duration": 0.2998,
      "velocity": 91,
      "chip": "ym2612"
    },
    {
      "channel": 2,
      "note": 64,
      "start": 27.8993,
      "duration": 0.2998,
      "velocity": 101,
      "chip": "ym2612"
    },
    {
      "channel": 3,
      "note": 83,
      "start": 28.0493,
      "duration": 1.1998,
      "velocity": 105,
      "chip": "ym2612"
    },
    {
      "channel": 4,
      "note": 90,
      "start": 28.0496,
      "duration": 0.2996,
      "velocity": 91,
      "chip": "ym2612"
    },
    {
      "channel": 5,
      "note": 64,
      "start": 28.0499,
      "duration": 0.2995,
      "velocity": 101,
      "chip": "ym2612"
    },
    {
      "channel": 1,
      "note": 90,
      "start": 28.199,
      "duration": 0.6,
      "velocity": 91,
      "chip": "ym2612"
    },
    {
      "channel": 2,
      "note": 63,
      "start": 28.1993,
      "duration": 0.2996,
      "velocity": 101,
      "chip": "ym2612"
    },
    {
      "channel": 4,
      "note": 91,
      "start": 28.3494,
      "duration": 0.2998,
      "velocity": 91,
      "chip": "ym2612"
    },
    {
      "channel": 5,
      "note": 63,
      "start": 28.3497,
      "duration": 0.2998,
      "velocity": 101,
      "chip": "ym2612"
    },
    {
      "channel": 2,
      "note": 59,
      "start": 28.4991,
      "duration": 0.3002,
      "velocity": 101,
      "chip": "ym2612"
    },
    {
      "channel": 4,
      "note": 90,
      "start": 28.6494,
      "duration": 0.6001,
      "velocity": 91,
      "chip": "ym2612"
    },
    {
      "channel": 5,
      "note": 59,
      "start": 28.6498,
      "duration": 0.2996,
      "velocity": 101,
      "chip": "ym2612"
    },
    {
      "channel": 0,
      "note": 64,
      "start": 28.7989,
      "duration": 0.2997,
      "velocity": 105,
      "chip": "ym2612"
    },
    {
      "channel": 1,
      "note": 76,
      "start": 28.7993,
      "duration": 0.2995,
      "velocity": 91,
      "chip": "ym2612"
    },
    {
      "channel": 2,
      "note": 52,
      "start": 28.7996,
      "duration": 0.2995,
      "velocity": 101,
      "chip": "ym2612"
    },
    {
      "channel": 5,
      "note": 52,
      "start": 28.9496,
      "duration": 0.3002,
      "velocity": 101,
      "chip": "ym2612"
    },
    {
      "channel": 0,
      "note": 71,
      "start": 29.0988,
      "duration": 0.2998,
      "velocity": 105,
      "chip": "ym2612"
    },
    {
      "channel": 1,
      "note": 83,
      "start": 29.099,
      "duration": 0.2999,
      "velocity": 91,
      "chip": "ym2612"
    },
    {
      "channel": 2,
      "note": 59,
      "start": 29.0994,
      "duration": 0.2999,
      "velocity": 101,
      "chip": "ym2612"
    },
    {
      "channel": 3,
      "note": 64,
      "start": 29.2493,
      "duration": 0.2997,
      "velocity": 105,
      "chip": "ym2612"
    },
    {
      "channel": 4,
      "note": 76,
      "start": 29.2498,
      "duration": 0.2996,
      "velocity": 91,
      "chip": "ym2612"
    },
    {
      "channel": 5,
      "note": 59,
      "start": 29.25,
      "duration": 0.2996,
      "velocity": 101,
      "chip": "ym2612"
    },
    {
      "channel": 0,
      "note": 69,
      "start": 29.3989,
      "duration": 0.2997,
      "velocity": 105,
      "chip": "ym2612"
    },
    {
      "channel": 1,
      "note": 88,
      "start": 29.3992,
      "duration": 0.5998,
      "velocity": 91,
      "chip": "ym2612"
    },
    {
      "channel": 2,
      "note": 57,
      "start": 29.3994,
      "duration": 0.2996,
      "velocity": 101,
      "chip": "ym2612"
    },
    {
      "channel": 3,
      "note": 71,
      "start": 29.5493,
      "duration": 0.2999,
      "velocity": 105,
      "chip": "ym2612"
    },
    {
      "channel": 4,
      "note": 83,
      "start": 29.5495,
      "duration": 0.2999,
      "velocity": 91,
      "chip": "ym2612"
    },
    {
      "channel": 5,
      "note": 57,
      "start": 29.5498,
      "duration": 0.2999,
      "velocity": 101,
      "chip": "ym2612"
    },
    {
      "channel": 0,
      "note": 67,
      "start": 29.6988,
      "duration": 0.2999,
      "velocity": 105,
      "chip": "ym2612"
    },
    {
      "channel": 2,
      "note": 55,
      "start": 29.6993,
      "duration": 0.3,
      "velocity": 101,
      "chip": "ym2612"
    },
    {
      "channel": 3,
      "note": 69,
      "start": 29.8493,
      "duration": 0.2997,
      "velocity": 105,
      "chip": "ym2612"
    },
    {
      "channel": 4,
      "note": 88,
      "start": 29.8496,
      "duration": 0.5997,
      "velocity": 91,
      "chip": "ym2612"
    },
    {
      "channel": 5,
      "note": 55,
      "start": 29.85,
      "duration": 0.2995,
      "velocity": 101,
      "chip": "ym2612"
    },
    {
      "channel": 0,
      "note": 66,
      "start": 29.9989,
      "duration": 0.2996,
      "velocity": 105,
      "chip": "ym2612"
    },
    {
      "channel": 1,
      "note": 90,
      "start": 29.9992,
      "duration": 0.5998,
      "velocity": 91,
      "chip": "ym2612"
    },
    {
      "channel": 2,
      "note": 54,
      "start": 29.9995,
      "duration": 0.2995,
      "velocity": 101,
      "chip": "ym2612"
    },
    {
      "channel": 3,
      "note": 67,
      "start": 30.1493,
      "duration": 0.2999,
      "velocity": 105,
      "chip": "ym2612"
    },
    {
      "channel": 5,
      "note": 54,
      "start": 30.1497,
      "duration": 0.3,
      "velocity": 101,
      "chip": "ym2612"
    },
    {
      "channel": 0,
      "note": 64,
      "start": 30.2988,
      "duration": 0.2998,
      "velocity": 105,
      "chip": "ym2612"
    },
    {
      "channel": 2,
      "note": 52,
      "start": 30.2993,
      "duration": 0.3,
      "velocity": 101,
      "chip": "ym2612"
    },
    {
      "channel": 3,
      "note": 66,
      "start": 30.4493,
      "duration": 0.2997,
      "velocity": 105,
      "chip": "ym2612"
    },
    {
      "channel": 4,
      "note": 90,
      "start": 30.4496,
      "duration": 0.5997,
      "velocity": 91,
      "chip": "ym2612"
    },
    {
      "channel": 5,
      "note": 52,
      "start": 30.4499,
      "duration": 0.2995,
      "velocity": 101,
      "chip": "ym2612"
    },
    {
      "channel": 0,
      "note": 68,
      "start": 30.5989,
      "duration": 0.2997,
      "velocity": 105,
      "chip": "ym2612"
    },
    {
      "channel": 1,
      "note": 92,
      "start": 30.5992,
      "duration": 0.2997,
      "velocity": 91,
      "chip": "ym2612"
    },
    {
      "channel": 2,
      "note": 56,
      "start": 30.5994,
      "duration": 0.2997,
      "velocity": 101,
      "chip": "ym2612"
    },
    {
      "channel": 3,
      "note": 64,
      "start": 30.7493,
      "duration": 0.2998,
      "velocity": 105,
      "chip": "ym2612"
    },
    {
      "channel": 5,
      "note": 56,
      "start": 30.7497,
      "duration": 0.3,
      "velocity": 101,
      "chip": "ym2612"
    },
    {
      "channel": 0,
      "note": 69,
      "start": 30.8988,
      "duration": 0.2998,
      "velocity": 105,
      "chip": "ym2612"
    },
    {
      "channel": 1,
      "note": 95,
      "start": 30.899,
      "duration": 0.2999,
      "velocity": 91,
      "chip": "ym2612"
    },
    {
      "channel": 2,
      "note": 57,
      "start": 30.8994,
      "duration": 0.2999,
      "velocity": 101,
      "chip": "ym2612"
    },
    {
      "channel": 3,
      "note": 68,
      "start": 31.0493,
      "duration": 0.2997,
      "velocity": 105,
      "chip": "ym2612"
    },
    {
      "channel": 4,
      "note": 92,
      "start": 31.0496,
      "duration": 0.2997,
      "velocity": 91,
      "chip": "ym2612"
    },
    {
      "channel": 5,
      "note": 57,
      "start": 31.0499,
      "duration": 0.2997,
      "velocity": 101,
      "chip": "ym2612"
    },
    {
      "channel": 0,
      "note": 71,
      "start": 31.1989,
      "duration": 0.2997,
      "velocity": 105,
      "chip": "ym2612"
    },
    {
      "channel": 1,
      "note": 88,
      "start": 31.1992,
      "duration": 0.8997,
      "velocity": 91,
      "chip": "ym2612"
    },
    {
      "channel": 2,
      "note": 59,
      "start": 31.1994,
      "duration": 0.2996,
      "velocity": 101,
      "chip": "ym2612"
    },
    {
      "channel": 3,
      "note": 69,
      "start": 31.3493,
      "duration": 0.2999,
      "velocity": 105,
      "chip": "ym2612"
    },
    {
      "channel": 4,
      "note": 95,
      "start": 31.3495,
      "duration": 0.2999,
      "velocity": 91,
      "chip": "ym2612"
    },
    {
      "channel": 5,
      "note": 59,
      "start": 31.3498,
      "duration": 0.2999,
      "velocity": 101,
      "chip": "ym2612"
    },
    {
      "channel": 0,
      "note": 74,
      "start": 31.4988,
      "duration": 0.2998,
      "velocity": 105,
      "chip": "ym2612"
    },
    {
      "channel": 2,
      "note": 62,
      "start": 31.4993,
      "duration": 0.2998,
      "velocity": 101,
      "chip": "ym2612"
    },
    {
      "channel": 3,
      "note": 71,
      "start": 31.6493,
      "duration": 0.2997,
      "velocity": 105,
      "chip": "ym2612"
    },
    {
      "channel": 4,
      "note": 88,
      "start": 31.6496,
      "duration": 0.8997,
      "velocity": 91,
      "chip": "ym2612"
    },
    {
      "channel": 5,
      "note": 62,
      "start": 31.65,
      "duration": 0.2995,
      "velocity": 101,
      "chip": "ym2612"
    },
    {
      "channel": 0,
      "note": 72,
      "start": 31.7989,
      "duration": 0.2997,
      "velocity": 105,
      "chip": "ym2612"
    },
    {
      "channel": 2,
      "note": 60,
      "start": 31.7993,
      "duration": 0.2999,
      "velocity": 101,
      "chip": "ym2612"
    },
    {
      "channel": 3,
      "note": 74,
      "start": 31.9493,
      "duration": 0.3,
      "velocity": 105,
      "chip": "ym2612"
    },
    {
      "channel": 5,
      "note": 60,
      "start": 31.9497,
      "duration": 0.3,
      "velocity": 101,
      "chip": "ym2612"
    },
    {
      "channel": 0,
      "note": 71,
      "start": 32.0988,
      "duration": 0.3009,
      "velocity": 91,
      "chip": "ym2612"
    },
    {
      "channel": 1,
      "note": 92,
      "start": 32.0991,
      "duration": 0.1495,
      "velocity": 91,
      "chip": "ym2612"
    },
    {
      "channel": 2,
      "note": 59,
      "start": 32.0994,
      "duration": 0.3009,
      "velocity": 101,
      "chip": "ym2612"
    },
    {
      "channel": 1,
      "note": 95,
      "start": 32.2489,
      "duration": 0.1511,
      "velocity": 91,
      "chip": "ym2612"
    },
    {
      "channel": 3,
      "note": 72,
      "start": 32.2494,
      "duration": 0.2996,
      "velocity": 105,
      "chip": "ym2612"
    },
    {
      "channel": 5,
      "note": 59,
      "start": 32.2499,
      "duration": 0.2998,
      "velocity": 101,
      "chip": "ym2612"
    },
    {
      "channel": 0,
      "note": 76,
      "start": 32.4,
      "duration": 0.2986,
      "velocity": 91,
      "chip": "ym2612"
    },
    {
      "channel": 1,
      "note": 96,
      "start": 32.4002,
      "duration": 0.1485,
      "velocity": 91,
      "chip": "ym2612"
    },
    {
      "channel": 2,
      "note": 57,
      "start": 32.4005,
      "duration": 0.5987,
      "velocity": 101,
      "chip": "ym2612"
    },
    {
      "channel": 3,
      "note": 71,
      "start": 32.5493,
      "duration": 0.3008,
      "velocity": 91,
      "chip": "ym2612"
    },
    {
      "channel": 4,
      "note": 92,
      "start": 32.5496,
      "duration": 0.1496,
      "velocity": 91,
      "chip": "ym2612"
    },
    {
      "channel": 5,
      "note": 57,
      "start": 32.5499,
      "duration": 0.5995,
      "velocity": 101,
      "chip": "ym2612"
    },
    {
      "channel": 0,
      "note": 72,
      "start": 32.6988,
      "duration": 0.2998,
      "velocity": 91,
      "chip": "ym2612"
    },
    {
      "channel": 4,
      "note": 95,
      "start": 32.6994,
      "duration": 0.1509,
      "velocity": 91,
      "chip": "ym2612"
    },
    {
      "channel": 3,
      "note": 76,
      "start": 32.8503,
      "duration": 0.2988,
      "velocity": 91,
      "chip": "ym2612"
    },
    {
      "channel": 4,
      "note": 96,
      "start": 32.8506,
      "duration": 0.1491,
      "velocity": 91,
      "chip": "ym2612"
    },
    {
      "channel": 0,
      "note": 74,
      "start": 32.9989,
      "duration": 0.2997,
      "velocity": 91,
      "chip": "ym2612"
    },
    {
      "channel": 1,
      "note": 93,
      "start": 32.9992,
      "duration": 0.1495,
      "velocity": 91,
      "chip": "ym2612"
    },
    {
      "channel": 2,
      "note": 50,
      "start": 32.9994,
      "duration": 0.5998,
      "velocity": 101,
      "chip": "ym2612"
    },
    {
      "channel": 3,
      "note": 72,
      "start": 33.1493,
      "duration": 0.2998,
      "velocity": 91,
      "chip": "ym2612"
    },
    {
      "channel": 5,
      "note": 50,
      "start": 33.1496,
      "duration": 0.5997,
      "velocity": 101,
      "chip": "ym2612"
    },
    {
      "channel": 0,
      "note": 69,
      "start": 33.2988,
      "duration": 0.2998,
      "velocity": 91,
      "chip": "ym2612"
    },
    {
      "channel": 3,
      "note": 74,
      "start": 33.4493,
      "duration": 0.2998,
      "velocity": 91,
      "chip": "ym2612"
    },
    {
      "channel": 4,
      "note": 93,
      "start": 33.4495,
      "duration": 0.1502,
      "velocity": 91,
      "chip": "ym2612"
    },
    {
      "channel": 0,
      "note": 74,
      "start": 33.5989,
      "duration": 0.2997,
      "velocity": 91,
      "chip": "ym2612"
    },
    {
      "channel": 1,
      "note": 95,
      "start": 33.5992,
      "duration": 0.1495,
      "velocity": 91,
      "chip": "ym2612"
    },
    {
      "channel": 2,
      "note": 55,
      "start": 33.5994,
      "duration": 0.5998,
      "velocity": 101,
      "chip": "ym2612"
    },
    {
      "channel": 3,
      "note": 69,
      "start": 33.7493,
      "duration": 0.2998,
      "velocity": 91,
      "chip": "ym2612"
    },
    {
      "channel": 5,
      "note": 55,
      "start": 33.7496,
      "duration": 0.5997,
      "velocity": 101,
      "chip": "ym2612"
    },
    {
      "channel": 0,
      "note": 69,
      "start": 33.8988,
      "duration": 0.2998,
      "velocity": 91,
      "chip": "ym2612"
    },
    {
      "channel": 3,
      "note": 74,
      "start": 34.0493,
      "duration": 0.2998,
      "velocity": 91,
      "chip": "ym2612"
    },
    {
      "channel": 4,
      "note": 95,
      "start": 34.0495,
      "duration": 0.1502,
      "velocity": 91,
      "chip": "ym2612"
    },
    {
      "channel": 0,
      "note": 71,
      "start": 34.1989,
      "duration": 0.2997,
      "velocity": 91,
      "chip": "ym2612"
    },
    {
      "channel": 1,
      "note": 91,
      "start": 34.1992,
      "duration": 0.1495,
      "velocity": 91,
      "chip": "ym2612"
    },
    {
      "channel": 2,
      "note": 52,
      "start": 34.1994,
      "duration": 0.5998,
      "velocity": 101,
      "chip": "ym2612"
    },
    {
      "channel": 3,
      "note": 69,
      "start": 34.3493,
      "duration": 0.2998,
      "velocity": 91,
      "chip": "ym2612"
    },
    {
      "channel": 5,
      "note": 52,
      "start": 34.3496,
      "duration": 0.5997,
      "velocity": 101,
      "chip": "ym2612"
    },
    {
      "channel": 0,
      "note": 67,
      "start": 34.4988,
      "duration": 0.2998,
      "velocity": 91,
      "chip": "ym2612"
    },
    {
      "channel": 3,
      "note": 71,
      "start": 34.6493,
      "duration": 0.2998,
      "velocity": 91,
      "chip": "ym2612"
    },
    {
      "channel": 4,
      "note": 91,
      "start": 34.6495,
      "duration": 0.1502,
      "velocity": 91,
      "chip": "ym2612"
    },
    {
      "channel": 0,
      "note": 72,
      "start": 34.7989,
      "duration": 0.2997,
      "velocity": 91,
      "chip": "ym2612"
    },
    {
      "channel": 1,
      "note": 93,
      "start": 34.7992,
      "duration": 0.1495,
      "velocity": 91,
      "chip": "ym2612"
    },
    {
      "channel": 2,
      "note": 54,
      "start": 34.7994,
      "duration": 0.5998,
      "velocity": 101,
      "chip": "ym2612"
    },
    {
      "channel": 3,
      "note": 67,
      "start": 34.9493,
      "duration": 0.2998,
      "velocity": 91,
      "chip": "ym2612"
    },
    {
      "channel": 5,
      "note": 54,
      "start": 34.9496,
      "duration": 0.5997,
      "velocity": 101,
      "chip": "ym2612"
    },
    {
      "channel": 0,
      "note": 69,
      "start": 35.0988,
      "duration": 0.2998,
      "velocity": 91,
      "chip": "ym2612"
    },
    {
      "channel": 3,
      "note": 72,
      "start": 35.2493,
      "duration": 0.2998,
      "velocity": 91,
      "chip": "ym2612"
    },
    {
      "channel": 4,
      "note": 93,
      "start": 35.2495,
      "duration": 0.1502,
      "velocity": 91,
      "chip": "ym2612"
    },
    {
      "channel": 0,
      "note": 71,
      "start": 35.3989,
      "duration": 0.2997,
      "velocity": 91,
      "chip": "ym2612"
    },
    {
      "channel": 1,
      "note": 90,
      "start": 35.3992,
      "duration": 0.1495,
      "velocity": 91,
      "chip": "ym2612"
    },
    {
      "channel": 2,
      "note": 47,
      "start": 35.3994,
      "duration": 0.5998,
      "velocity": 101,
      "chip": "ym2612"
    },
    {
      "channel": 3,
      "note": 69,
      "start": 35.5493,
      "duration": 0.2998,
      "velocity": 91,
      "chip": "ym2612"
    },
    {
      "channel": 5,
      "note": 47,
      "start": 35.5496,
      "duration": 0.5997,
      "velocity": 101,
      "chip": "ym2612"
    },
    {
      "channel": 0,
      "note": 66,
      "start": 35.6988,
      "duration": 0.2998,
      "velocity": 91,
      "chip": "ym2612"
    },
    {
      "channel": 3,
      "note": 71,
      "start": 35.8493,
      "duration": 0.2998,
      "velocity": 91,
      "chip": "ym2612"
    },
    {
      "channel": 4,
      "note": 90,
      "start": 35.8495,
      "duration": 0.1502,
      "velocity": 91,
      "chip": "ym2612"
    },
    {
      "channel": 0,
      "note": 64,
      "start": 35.9989,
      "duration": 0.1497,
      "velocity": 91,
      "chip": "ym2612"
    },
    {
      "channel": 1,
      "note": 88,
      "start": 35.9992,
      "duration": 0.2994,
      "velocity": 91,
      "chip": "ym2612"
    },
    {
      "channel": 2,
      "note": 52,
      "start": 35.9995,
      "duration": 0.2994,
      "velocity": 101,
      "chip": "ym2612"
    },
    {
      "channel": 3,
      "note": 66,
      "start": 36.1493,
      "duration": 0.2999,
      "velocity": 91,
      "chip": "ym2612"
    },
    {
      "channel": 5,
      "note": 52,
      "start": 36.1496,
      "duration": 0.3001,
      "velocity": 101,
      "chip": "ym2612"
    },
    {
      "channel": 1,
      "note": 83,
      "start": 36.2989,
      "duration": 0.3,
      "velocity": 91,
      "chip": "ym2612"
    },
    {
      "channel": 2,
      "note": 56,
      "start": 36.2991,
      "duration": 0.1496,
      "velocity": 101,
      "chip": "ym2612"
    },
    {
      "channel": 2,
      "note": 54,
      "start": 36.449,
      "duration": 0.1502,
      "velocity": 101,
      "chip": "ym2612"
    },
    {
      "channel": 3,
      "note": 64,
      "start": 36.4494,
      "duration": 0.1501,
      "velocity": 91,
      "chip": "ym2612"
    },
    {
      "channel": 4,
      "note": 88,
      "start": 36.4497,
      "duration": 0.2994,
      "velocity": 91,
      "chip": "ym2612"
    },
    {
      "channel": 5,
      "note": 56,
      "start": 36.45,
      "duration": 0.1498,
      "velocity": 101,
      "chip": "ym2612"
    },
    {
      "channel": 0,
      "note": 71,
      "start": 36.5988,
      "duration": 1.201,
      "velocity": 105,
      "chip": "ym2612"
    },
    {
      "channel": 1,
      "note": 76,
      "start": 36.5991,
      "duration": 1.2022,
      "velocity": 105,
      "chip": "ym2612"
    },
    {
      "channel": 2,
      "note": 56,
      "start": 36.5994,
      "duration": 0.2994,
      "velocity": 101,
      "chip": "ym2612"
    },
    {
      "channel": 5,
      "note": 54,
      "start": 36.6001,
      "duration": 0.1493,
      "velocity": 101,
      "chip": "ym2612"
    },
    {
      "channel": 4,
      "note": 83,
      "start": 36.7493,
      "duration": 0.3,
      "velocity": 91,
      "chip": "ym2612"
    },
    {
      "channel": 5,
      "note": 56,
      "start": 36.7496,
      "duration": 0.3001,
      "velocity": 101,
      "chip": "ym2612"
    },
    {
      "channel": 2,
      "note": 59,
      "start": 36.899,
      "duration": 0.2998,
      "velocity": 101,
      "chip": "ym2612"
    },
    {
      "channel": 3,
      "note": 71,
      "start": 37.0493,
      "duration": 1.2008,
      "velocity": 105,
      "chip": "ym2612"
    },
    {
      "channel": 4,
      "note": 76,
      "start": 37.0496,
      "duration": 1.2022,
      "velocity": 105,
      "chip": "ym2612"
    },
    {
      "channel": 5,
      "note": 59,
      "start": 37.0499,
      "duration": 0.2994,
      "velocity": 101,
      "chip": "ym2612"
    },
    {
      "channel": 2,
      "note": 64,
      "start": 37.1991,
      "duration": 0.6035,
      "velocity": 98,
      "chip": "ym2612"
    },
    {
      "channel": 5,
      "note": 64,
      "start": 37.3496,
      "duration": 0.6009,
      "velocity": 98,
      "chip": "ym2612"
    },
    {
      "channel": 0,
      "note": 76,
      "start": 37.8,
      "duration": 0.1485,
      "velocity": 105,
      "chip": "ym2612"
    },
    {
      "channel": 2,
      "note": 76,
      "start": 37.8029,
      "duration": 0.1459,
      "velocity": 98,
      "chip": "ym2612"
    },
    {
      "channel": 5,
      "note": 76,
      "start": 37.9507,
      "duration": 0.1488,
      "velocity": 98,
      "chip": "ym2612"
    },
    {
      "channel": 0,
      "note": 79,
      "start": 38.0988,
      "duration": 0.1498,
      "velocity": 105,
      "chip": "ym2612"
    },
    {
      "channel": 2,
      "note": 79,
      "start": 38.0991,
      "duration": 0.1497,
      "velocity": 98,
      "chip": "ym2612"
    },
    {
      "channel": 3,
      "note": 76,
      "start": 38.2504,
      "duration": 0.1489,
      "velocity": 105,
      "chip": "ym2612"
    },
    {
      "channel": 5,
      "note": 79,
      "start": 38.2522,
      "duration": 0.1473,
      "velocity": 98,
      "chip": "ym2612"
    },
    {
      "channel": 0,
      "note": 78,
      "start": 38.3989,
      "duration": 0.0068,
      "velocity": 105,
      "chip": "ym2612"
    },
    {
      "channel": 2,
      "note": 78,
      "start": 38.3992,
      "duration": 0.0065,
      "velocity": 98,
      "chip": "ym2612"
    }
  ]
}