{
  "track_name": "04 - Hydrocity Zone Act 2",
  "duration_sec": 52.352,
  "sample_rate": 44100,
  "note_count": 1228,
  "unique_pitches": 49,
  "pitch_range": 57,
  "avg_note_duration": 0.0902,
  "reconstruction_stats": {
    "notes_reconstructed": 1228,
    "keyon_events": 1228,
    "keyoff_events": 1227,
    "orphan_keyons": 1,
    "unique_pitches": 49,
    "pitch_range": 57,
    "avg_duration_sec": 0.0902
  },
  "metadata": {
    "source": "S\\Sonic 3 & Knuckles\\04 - Hydrocity Zone Act 2.vgz"
  },
  "notes": [
    {
      "channel": 0,
      "note": 69,
      "start": 0.0,
      "duration": 0.0,
      "velocity": 105,
      "chip": "ym2612"
    },
    {
      "channel": 0,
      "note": 79,
      "start": 0.0,
      "duration": 0.0,
      "velocity": 105,
      "chip": "ym2612"
    },
    {
      "channel": 0,
      "note": 79,
      "start": 0.0,
      "duration": 0.0,
      "velocity": 1,
      "chip": "ym2612"
    },
    {
      "channel": 1,
      "note": 55,
      "start": 0.0,
      "duration": 0.0,
      "velocity": 101,
      "chip": "ym2612"
    },
    {
      "channel": 1,
      "note": 55,
      "start": 0.0,
      "duration": 0.0,
      "velocity": 101,
      "chip": "ym2612"
    },
    {
      "channel": 1,
      "note": 57,
      "start": 0.0,
      "duration": 0.0401,
      "velocity": 113,
      "chip": "ym2612"
    },
    {
      "channel": 2,
      "note": 69,
      "start": 0.0,
      "duration": 0.0,
      "velocity": 105,
      "chip": "ym2612"
    },
    {
      "channel": 2,
      "note": 79,
      "start": 0.0,
      "duration": 0.0,
      "velocity": 105,
      "chip": "ym2612"
    },
    {
      "channel": 2,
      "note": 79,
      "start": 0.0,
      "duration": 0.0,
      "velocity": 1,
      "chip": "ym2612"
    },
    {
      "channel": 3,
      "note": 69,
      "start": 0.0,
      "duration": 0.0,
      "velocity": 103,
      "chip": "ym2612"
    },
    {
      "channel": 3,
      "note": 69,
      "start": 0.0,
      "duration": 0.0,
      "velocity": 103,
      "chip": "ym2612"
    },
    {
      "channel": 3,
      "note": 91,
      "start": 0.0,
      "duration": 0.0,
      "velocity": 103,
      "chip": "ym2612"
    },
    {
      "channel": 3,
      "note": 84,
      "start": 0.0,
      "duration": 0.0,
      "velocity": 103,
      "chip": "ym2612"
    },
    {
      "channel": 4,
      "note": 64,
      "start": 0.0,
      "duration": 0.0,
      "velocity": 103,
      "chip": "ym2612"
    },
    {
      "channel": 4,
      "note": 64,
      "start": 0.0,
      "duration": 0.0,
      "velocity": 103,
      "chip": "ym2612"
    },
    {
      "channel": 4,
      "note": 86,
      "start": 0.0,
      "duration": 0.0,
      "velocity": 103,
      "chip": "ym2612"
    },
    {
      "channel": 4,
      "note": 79,
      "start": 0.0,
      "duration": 0.0,
      "velocity": 103,
      "chip": "ym2612"
    },
    {
      "channel": 3,
      "note": 74,
      "start": 0.0032,
      "duration": 0.015,
      "velocity": 103,
      "chip": "ym2612"
    },
    {
      "channel": 4,
      "note": 67,
      "start": 0.0063,
      "duration": 0.0122,
      "velocity": 103,
      "chip": "ym2612"
    },
    {
      "channel": 1,
      "note": 60,
      "start": 0.0483,
      "duration": 0.0075,
      "velocity": 113,
      "chip": "ym2612"
    },
    {
      "channel": 3,
      "note": 74,
      "start": 0.0492,
      "duration": 0.0126,
      "velocity": 103,
      "chip": "ym2612"
    },
    {
      "channel": 4,
      "note": 67,
      "start": 0.05,
      "duration": 0.0121,
      "velocity": 103,
      "chip": "ym2612"
    },
    {
      "channel": 1,
      "note": 57,
      "start": 0.071,
      "duration": 0.0518,
      "velocity": 113,
      "chip": "ym2612"
    },
    {
      "channel": 3,
      "note": 74,
      "start": 0.11,
      "duration": 0.0133,
      "velocity": 103,
      "chip": "ym2612"
    },
    {
      "channel": 4,
      "note": 67,
      "start": 0.1107,
      "duration": 0.0128,
      "velocity": 103,
      "chip": "ym2612"
    },
    {
      "channel": 1,
      "note": 60,
      "start": 0.1322,
      "duration": 0.0075,
      "velocity": 113,
      "chip": "ym2612"
    },
    {
      "channel": 3,
      "note": 74,
      "start": 0.133,
      "duration": 0.0071,
      "velocity": 103,
      "chip": "ym2612"
    },
    {
      "channel": 4,
      "note": 67,
      "start": 0.1338,
      "duration": 0.0066,
      "velocity": 103,
      "chip": "ym2612"
    },
    {
      "channel": 1,
      "note": 62,
      "start": 0.1531,
      "duration": 0.0136,
      "velocity": 113,
      "chip": "ym2612"
    },
    {
      "channel": 3,
      "note": 74,
      "start": 0.1539,
      "duration": 0.0346,
      "velocity": 103,
      "chip": "ym2612"
    },
    {
      "channel": 4,
      "note": 67,
      "start": 0.1546,
      "duration": 0.0341,
      "velocity": 103,
      "chip": "ym2612"
    },
    {
      "channel": 1,
      "note": 60,
      "start": 0.1973,
      "duration": 0.0592,
      "velocity": 113,
      "chip": "ym2612"
    },
    {
      "channel": 3,
      "note": 74,
      "start": 0.1981,
      "duration": 0.0357,
      "velocity": 103,
      "chip": "ym2612"
    },
    {
      "channel": 4,
      "note": 67,
      "start": 0.1989,
      "duration": 0.0353,
      "velocity": 103,
      "chip": "ym2612"
    },
    {
      "channel": 3,
      "note": 67,
      "start": 0.2447,
      "duration": 0.0122,
      "velocity": 103,
      "chip": "ym2612"
    },
    {
      "channel": 1,
      "note": 62,
      "start": 0.2658,
      "duration": 0.0757,
      "velocity": 113,
      "chip": "ym2612"
    },
    {
      "channel": 3,
      "note": 74,
      "start": 0.2667,
      "duration": 0.0148,
      "velocity": 103,
      "chip": "ym2612"
    },
    {
      "channel": 4,
      "note": 67,
      "start": 0.2673,
      "duration": 0.0145,
      "velocity": 103,
      "chip": "ym2612"
    },
    {
      "channel": 3,
      "note": 74,
      "start": 0.3091,
      "duration": 0.0128,
      "velocity": 103,
      "chip": "ym2612"
    },
    {
      "channel": 4,
      "note": 67,
      "start": 0.3098,
      "duration": 0.0124,
      "velocity": 103,
      "chip": "ym2612"
    },
    {
      "channel": 1,
      "note": 57,
      "start": 0.3498,
      "duration": 0.1075,
      "velocity": 113,
      "chip": "ym2612"
    },
    {
      "channel": 3,
      "note": 72,
      "start": 0.3506,
      "duration": 0.0122,
      "velocity": 103,
      "chip": "ym2612"
    },
    {
      "channel": 4,
      "note": 66,
      "start": 0.3513,
      "duration": 0.0119,
      "velocity": 103,
      "chip": "ym2612"
    },
    {
      "channel": 1,
      "note": 54,
      "start": 0.508,
      "duration": 0.0068,
      "velocity": 113,
      "chip": "ym2612"
    },
    {
      "channel": 3,
      "note": 72,
      "start": 0.5088,
      "duration": 0.0118,
      "velocity": 103,
      "chip": "ym2612"
    },
    {
      "channel": 4,
      "note": 66,
      "start": 0.5096,
      "duration": 0.0114,
      "velocity": 103,
      "chip": "ym2612"
    },
    {
      "channel": 1,
      "note": 57,
      "start": 0.5285,
      "duration": 0.2456,
      "velocity": 113,
      "chip": "ym2612"
    },
    {
      "channel": 3,
      "note": 72,
      "start": 0.6585,
      "duration": 0.0661,
      "velocity": 103,
      "chip": "ym2612"
    },
    {
      "channel": 4,
      "note": 66,
      "start": 0.6593,
      "duration": 0.0656,
      "velocity": 103,
      "chip": "ym2612"
    },
    {
      "channel": 1,
      "note": 54,
      "start": 0.7747,
      "duration": 0.0661,
      "velocity": 113,
      "chip": "ym2612"
    },
    {
      "channel": 3,
      "note": 72,
      "start": 0.7756,
      "duration": 0.0325,
      "velocity": 103,
      "chip": "ym2612"
    },
    {
      "channel": 4,
      "note": 66,
      "start": 0.7763,
      "duration": 0.0321,
      "velocity": 103,
      "chip": "ym2612"
    },
    {
      "channel": 1,
      "note": 55,
      "start": 0.8916,
      "duration": 0.013,
      "velocity": 113,
      "chip": "ym2612"
    },
    {
      "channel": 3,
      "note": 73,
      "start": 0.8924,
      "duration": 0.0126,
      "velocity": 103,
      "chip": "ym2612"
    },
    {
      "channel": 4,
      "note": 67,
      "start": 0.8932,
      "duration": 0.0122,
      "velocity": 103,
      "chip": "ym2612"
    },
    {
      "channel": 1,
      "note": 52,
      "start": 1.0501,
      "duration": 0.241,
      "velocity": 113,
      "chip": "ym2612"
    },
    {
      "channel": 3,
      "note": 73,
      "start": 1.0509,
      "duration": 0.2406,
      "velocity": 103,
      "chip": "ym2612"
    },
    {
      "channel": 4,
      "note": 67,
      "start": 1.0517,
      "duration": 0.2401,
      "velocity": 103,
      "chip": "ym2612"
    },
    {
      "channel": 1,
      "note": 55,
      "start": 1.3253,
      "duration": 0.1932,
      "velocity": 113,
      "chip": "ym2612"
    },
    {
      "channel": 3,
      "note": 73,
      "start": 1.3261,
      "duration": 0.0154,
      "velocity": 103,
      "chip": "ym2612"
    },
    {
      "channel": 4,
      "note": 67,
      "start": 1.3268,
      "duration": 0.015,
      "velocity": 103,
      "chip": "ym2612"
    },
    {
      "channel": 3,
      "note": 73,
      "start": 1.4842,
      "duration": 0.0158,
      "velocity": 103,
      "chip": "ym2612"
    },
    {
      "channel": 4,
      "note": 67,
      "start": 1.485,
      "duration": 0.0153,
      "velocity": 103,
      "chip": "ym2612"
    },
    {
      "channel": 1,
      "note": 57,
      "start": 1.5242,
      "duration": 0.0552,
      "velocity": 113,
      "chip": "ym2612"
    },
    {
      "channel": 3,
      "note": 74,
      "start": 1.525,
      "duration": 0.0162,
      "velocity": 103,
      "chip": "ym2612"
    },
    {
      "channel": 4,
      "note": 67,
      "start": 1.5258,
      "duration": 0.0157,
      "velocity": 103,
      "chip": "ym2612"
    },
    {
      "channel": 1,
      "note": 60,
      "start": 1.5851,
      "duration": 0.0075,
      "velocity": 113,
      "chip": "ym2612"
    },
    {
      "channel": 3,
      "note": 74,
      "start": 1.5859,
      "duration": 0.0155,
      "velocity": 103,
      "chip": "ym2612"
    },
    {
      "channel": 4,
      "note": 67,
      "start": 1.5867,
      "duration": 0.0151,
      "velocity": 103,
      "chip": "ym2612"
    },
    {
      "channel": 1,
      "note": 57,
      "start": 1.6078,
      "duration": 0.0554,
      "velocity": 113,
      "chip": "ym2612"
    },
    {
      "channel": 3,
      "note": 74,
      "start": 1.6468,
      "duration": 0.0167,
      "velocity": 103,
      "chip": "ym2612"
    },
    {
      "channel": 4,
      "note": 67,
      "start": 1.6476,
      "duration": 0.0162,
      "velocity": 103,
      "chip": "ym2612"
    },
    {
      "channel": 1,
      "note": 60,
      "start": 1.6694,
      "duration": 0.0074,
      "velocity": 113,
      "chip": "ym2612"
    },
    {
      "channel": 3,
      "note": 74,
      "start": 1.6702,
      "duration": 0.007,
      "velocity": 103,
      "chip": "ym2612"
    },
    {
      "channel": 4,
      "note": 67,
      "start": 1.6709,
      "duration": 0.0066,
      "velocity": 103,
      "chip": "ym2612"
    },
    {
      "channel": 1,
      "note": 62,
      "start": 1.6926,
      "duration": 0.0168,
      "velocity": 113,
      "chip": "ym2612"
    },
    {
      "channel": 3,
      "note": 74,
      "start": 1.6934,
      "duration": 0.0377,
      "velocity": 103,
      "chip": "ym2612"
    },
    {
      "channel": 4,
      "note": 67,
      "start": 1.6941,
      "duration": 0.0372,
      "velocity": 103,
      "chip": "ym2612"
    },
    {
      "channel": 1,
      "note": 60,
      "start": 1.7392,
      "duration": 0.0625,
      "velocity": 113,
      "chip": "ym2612"
    },
    {
      "channel": 3,
      "note": 74,
      "start": 1.74,
      "duration": 0.0393,
      "velocity": 103,
      "chip": "ym2612"
    },
    {
      "channel": 4,
      "note": 67,
      "start": 1.7407,
      "duration": 0.0388,
      "velocity": 103,
      "chip": "ym2612"
    },
    {
      "channel": 3,
      "note": 67,
      "start": 1.7866,
      "duration": 0.0155,
      "velocity": 103,
      "chip": "ym2612"
    },
    {
      "channel": 1,
      "note": 62,
      "start": 1.8078,
      "duration": 0.0788,
      "velocity": 113,
      "chip": "ym2612"
    },
    {
      "channel": 3,
      "note": 74,
      "start": 1.8086,
      "duration": 0.0179,
      "velocity": 103,
      "chip": "ym2612"
    },
    {
      "channel": 4,
      "note": 67,
      "start": 1.8093,
      "duration": 0.0176,
      "velocity": 103,
      "chip": "ym2612"
    },
    {
      "channel": 3,
      "note": 74,
      "start": 1.8512,
      "duration": 0.0162,
      "velocity": 103,
      "chip": "ym2612"
    },
    {
      "channel": 4,
      "note": 67,
      "start": 1.852,
      "duration": 0.0157,
      "velocity": 103,
      "chip": "ym2612"
    },
    {
      "channel": 1,
      "note": 57,
      "start": 1.8927,
      "duration": 0.1242,
      "velocity": 113,
      "chip": "ym2612"
    },
    {
      "channel": 3,
      "note": 72,
      "start": 1.8935,
      "duration": 0.0155,
      "velocity": 103,
      "chip": "ym2612"
    },
    {
      "channel": 4,
      "note": 66,
      "start": 1.8942,
      "duration": 0.0151,
      "velocity": 103,
      "chip": "ym2612"
    },
    {
      "channel": 1,
      "note": 54,
      "start": 2.0509,
      "duration": 0.0098,
      "velocity": 113,
      "chip": "ym2612"
    },
    {
      "channel": 3,
      "note": 72,
      "start": 2.0517,
      "duration": 0.0148,
      "velocity": 103,
      "chip": "ym2612"
    },
    {
      "channel": 4,
      "note": 66,
      "start": 2.0525,
      "duration": 0.0144,
      "velocity": 103,
      "chip": "ym2612"
    },
    {
      "channel": 1,
      "note": 57,
      "start": 2.072,
      "duration": 0.2449,
      "velocity": 113,
      "chip": "ym2612"
    },
    {
      "channel": 3,
      "note": 72,
      "start": 2.2013,
      "duration": 0.0828,
      "velocity": 103,
      "chip": "ym2612"
    },
    {
      "channel": 4,
      "note": 66,
      "start": 2.2021,
      "duration": 0.0823,
      "velocity": 103,
      "chip": "ym2612"
    },
    {
      "channel": 1,
      "note": 54,
      "start": 2.3175,
      "duration": 0.0828,
      "velocity": 113,
      "chip": "ym2612"
    },
    {
      "channel": 3,
      "note": 72,
      "start": 2.3184,
      "duration": 0.0489,
      "velocity": 103,
      "chip": "ym2612"
    },
    {
      "channel": 4,
      "note": 66,
      "start": 2.3191,
      "duration": 0.0485,
      "velocity": 103,
      "chip": "ym2612"
    },
    {
      "channel": 1,
      "note": 55,
      "start": 2.4344,
      "duration": 0.0161,
      "velocity": 113,
      "chip": "ym2612"
    },
    {
      "channel": 3,
      "note": 73,
      "start": 2.4352,
      "duration": 0.0156,
      "velocity": 103,
      "chip": "ym2612"
    },
    {
      "channel": 4,
      "note": 67,
      "start": 2.436,
      "duration": 0.0152,
      "velocity": 103,
      "chip": "ym2612"
    },
    {
      "channel": 1,
      "note": 52,
      "start": 2.5928,
      "duration": 0.241,
      "velocity": 113,
      "chip": "ym2612"
    },
    {
      "channel": 3,
      "note": 73,
      "start": 2.5936,
      "duration": 0.2406,
      "velocity": 103,
      "chip": "ym2612"
    },
    {
      "channel": 4,
      "note": 67,
      "start": 2.5944,
      "duration": 0.2401,
      "velocity": 103,
      "chip": "ym2612"
    },
    {
      "channel": 1,
      "note": 55,
      "start": 2.868,
      "duration": 0.1981,
      "velocity": 113,
      "chip": "ym2612"
    },
    {
      "channel": 3,
      "note": 73,
      "start": 2.8688,
      "duration": 0.0153,
      "velocity": 103,
      "chip": "ym2612"
    },
    {
      "channel": 4,
      "note": 67,
      "start": 2.8695,
      "duration": 0.0149,
      "velocity": 103,
      "chip": "ym2612"
    },
    {
      "channel": 0,
      "note": 100,
      "start": 3.0265,
      "duration": 0.0235,
      "velocity": 111,
      "chip": "ym2612"
    },
    {
      "channel": 3,
      "note": 73,
      "start": 3.0277,
      "duration": 0.0169,
      "velocity": 103,
      "chip": "ym2612"
    },
    {
      "channel": 4,
      "note": 67,
      "start": 3.0284,
      "duration": 0.0164,
      "velocity": 103,
      "chip": "ym2612"
    },
    {
      "channel": 0,
      "note": 103,
      "start": 3.0505,
      "duration": 0.0215,
      "velocity": 111,
      "chip": "ym2612"
    },
    {
      "channel": 2,
      "note": 100,
      "start": 3.0575,
      "duration": 0.0241,
      "velocity": 111,
      "chip": "ym2612"
    },
    {
      "channel": 0,
      "note": 105,
      "start": 3.0726,
      "duration": 0.0409,
      "velocity": 111,
      "chip": "ym2612"
    },
    {
      "channel": 1,
      "note": 57,
      "start": 3.0733,
      "duration": 0.1237,
      "velocity": 113,
      "chip": "ym2612"
    },
    {
      "channel": 3,
      "note": 74,
      "start": 3.0744,
      "duration": 0.0183,
      "velocity": 103,
      "chip": "ym2612"
    },
    {
      "channel": 4,
      "note": 67,
      "start": 3.0751,
      "duration": 0.0178,
      "velocity": 103,
      "chip": "ym2612"
    },
    {
      "channel": 2,
      "note": 103,
      "start": 3.0823,
      "duration": 0.0651,
      "velocity": 111,
      "chip": "ym2612"
    },
    {
      "channel": 0,
      "note": 100,
      "start": 3.114,
      "duration": 0.1161,
      "velocity": 111,
      "chip": "ym2612"
    },
    {
      "channel": 2,
      "note": 105,
      "start": 3.1479,
      "duration": 0.1161,
      "velocity": 111,
      "chip": "ym2612"
    },
    {
      "channel": 0,
      "note": 98,
      "start": 3.2307,
      "duration": 0.0494,
      "velocity": 111,
      "chip": "ym2612"
    },
    {
      "channel": 1,
      "note": 60,
      "start": 3.2314,
      "duration": 0.0494,
      "velocity": 113,
      "chip": "ym2612"
    },
    {
      "channel": 3,
      "note": 74,
      "start": 3.2324,
      "duration": 0.0821,
      "velocity": 103,
      "chip": "ym2612"
    },
    {
      "channel": 4,
      "note": 67,
      "start": 3.2332,
      "duration": 0.0816,
      "velocity": 103,
      "chip": "ym2612"
    },
    {
      "channel": 2,
      "note": 100,
      "start": 3.2646,
      "duration": 0.1161,
      "velocity": 111,
      "chip": "ym2612"
    },
    {
      "channel": 0,
      "note": 96,
      "start": 3.2807,
      "duration": 0.0328,
      "velocity": 111,
      "chip": "ym2612"
    },
    {
      "channel": 0,
      "note": 95,
      "start": 3.314,
      "duration": 0.0328,
      "velocity": 111,
      "chip": "ym2612"
    },
    {
      "channel": 0,
      "note": 93,
      "start": 3.3473,
      "duration": 0.0494,
      "velocity": 111,
      "chip": "ym2612"
    },
    {
      "channel": 1,
      "note": 57,
      "start": 3.3481,
      "duration": 0.1591,
      "velocity": 113,
      "chip": "ym2612"
    },
    {
      "channel": 2,
      "note": 98,
      "start": 3.3812,
      "duration": 0.0327,
      "velocity": 111,
      "chip": "ym2612"
    },
    {
      "channel": 0,
      "note": 91,
      "start": 3.3973,
      "duration": 0.0328,
      "velocity": 111,
      "chip": "ym2612"
    },
    {
      "channel": 2,
      "note": 96,
      "start": 3.4146,
      "duration": 0.0327,
      "velocity": 111,
      "chip": "ym2612"
    },
    {
      "channel": 0,
      "note": 90,
      "start": 3.4307,
      "duration": 0.033,
      "velocity": 111,
      "chip": "ym2612"
    },
    {
      "channel": 2,
      "note": 95,
      "start": 3.4479,
      "duration": 0.0231,
      "velocity": 111,
      "chip": "ym2612"
    },
    {
      "channel": 0,
      "note": 88,
      "start": 3.4643,
      "duration": 0.0096,
      "velocity": 111,
      "chip": "ym2612"
    },
    {
      "channel": 2,
      "note": 93,
      "start": 3.4716,
      "duration": 0.0056,
      "velocity": 111,
      "chip": "ym2612"
    },
    {
      "channel": 2,
      "note": 91,
      "start": 3.4778,
      "duration": 0.0053,
      "velocity": 111,
      "chip": "ym2612"
    },
    {
      "channel": 2,
      "note": 90,
      "start": 3.4837,
      "duration": 0.0129,
      "velocity": 111,
      "chip": "ym2612"
    },
    {
      "channel": 0,
      "note": 91,
      "start": 3.4876,
      "duration": 0.041,
      "velocity": 111,
      "chip": "ym2612"
    },
    {
      "channel": 3,
      "note": 74,
      "start": 3.489,
      "duration": 0.0186,
      "velocity": 103,
      "chip": "ym2612"
    },
    {
      "channel": 4,
      "note": 67,
      "start": 3.4898,
      "duration": 0.0181,
      "velocity": 103,
      "chip": "ym2612"
    },
    {
      "channel": 2,
      "note": 88,
      "start": 3.4972,
      "duration": 0.0069,
      "velocity": 111,
      "chip": "ym2612"
    },
    {
      "channel": 0,
      "note": 93,
      "start": 3.5292,
      "duration": 0.1163,
      "velocity": 111,
      "chip": "ym2612"
    },
    {
      "channel": 1,
      "note": 60,
      "start": 3.53,
      "duration": 0.0489,
      "velocity": 113,
      "chip": "ym2612"
    },
    {
      "channel": 3,
      "note": 74,
      "start": 3.5308,
      "duration": 0.0487,
      "velocity": 103,
      "chip": "ym2612"
    },
    {
      "channel": 4,
      "note": 67,
      "start": 3.5315,
      "duration": 0.0483,
      "velocity": 103,
      "chip": "ym2612"
    },
    {
      "channel": 2,
      "note": 91,
      "start": 3.5631,
      "duration": 0.092,
      "velocity": 111,
      "chip": "ym2612"
    },
    {
      "channel": 0,
      "note": 88,
      "start": 3.6461,
      "duration": 0.0409,
      "velocity": 111,
      "chip": "ym2612"
    },
    {
      "channel": 1,
      "note": 62,
      "start": 3.6468,
      "duration": 0.0186,
      "velocity": 113,
      "chip": "ym2612"
    },
    {
      "channel": 3,
      "note": 74,
      "start": 3.6478,
      "duration": 0.1232,
      "velocity": 103,
      "chip": "ym2612"
    },
    {
      "channel": 4,
      "note": 67,
      "start": 3.6486,
      "duration": 0.1226,
      "velocity": 103,
      "chip": "ym2612"
    },
    {
      "channel": 2,
      "note": 93,
      "start": 3.6557,
      "duration": 0.0649,
      "velocity": 111,
      "chip": "ym2612"
    },
    {
      "channel": 0,
      "note": 86,
      "start": 3.6876,
      "duration": 0.0494,
      "velocity": 111,
      "chip": "ym2612"
    },
    {
      "channel": 2,
      "note": 88,
      "start": 3.7213,
      "duration": 0.1054,
      "velocity": 111,
      "chip": "ym2612"
    },
    {
      "channel": 0,
      "note": 87,
      "start": 3.7376,
      "duration": 0.083,
      "velocity": 111,
      "chip": "ym2612"
    },
    {
      "channel": 0,
      "note": 86,
      "start": 3.8212,
      "duration": 0.041,
      "velocity": 111,
      "chip": "ym2612"
    },
    {
      "channel": 1,
      "note": 60,
      "start": 3.8219,
      "duration": 0.2238,
      "velocity": 113,
      "chip": "ym2612"
    },
    {
      "channel": 3,
      "note": 74,
      "start": 3.8229,
      "duration": 0.1068,
      "velocity": 103,
      "chip": "ym2612"
    },
    {
      "channel": 4,
      "note": 67,
      "start": 3.8237,
      "duration": 0.1063,
      "velocity": 103,
      "chip": "ym2612"
    },
    {
      "channel": 2,
      "note": 86,
      "start": 3.8273,
      "duration": 0.0066,
      "velocity": 111,
      "chip": "ym2612"
    },
    {
      "channel": 2,
      "note": 87,
      "start": 3.8346,
      "duration": 0.0448,
      "velocity": 111,
      "chip": "ym2612"
    },
    {
      "channel": 0,
      "note": 84,
      "start": 3.8627,
      "duration": 0.1161,
      "velocity": 111,
      "chip": "ym2612"
    },
    {
      "channel": 2,
      "note": 86,
      "start": 3.88,
      "duration": 0.1161,
      "velocity": 111,
      "chip": "ym2612"
    },
    {
      "channel": 0,
      "note": 81,
      "start": 3.9794,
      "duration": 0.1163,
      "velocity": 111,
      "chip": "ym2612"
    },
    {
      "channel": 3,
      "note": 67,
      "start": 3.9808,
      "duration": 0.0655,
      "velocity": 103,
      "chip": "ym2612"
    },
    {
      "channel": 2,
      "note": 84,
      "start": 3.9968,
      "duration": 0.105,
      "velocity": 111,
      "chip": "ym2612"
    },
    {
      "channel": 0,
      "note": 88,
      "start": 4.0963,
      "duration": 0.0087,
      "velocity": 111,
      "chip": "ym2612"
    },
    {
      "channel": 1,
      "note": 62,
      "start": 4.097,
      "duration": 0.1563,
      "velocity": 113,
      "chip": "ym2612"
    },
    {
      "channel": 3,
      "note": 74,
      "start": 4.098,
      "duration": 0.0155,
      "velocity": 103,
      "chip": "ym2612"
    },
    {
      "channel": 4,
      "note": 67,
      "start": 4.0988,
      "duration": 0.015,
      "velocity": 103,
      "chip": "ym2612"
    },
    {
      "channel": 2,
      "note": 81,
      "start": 4.1024,
      "duration": 0.0234,
      "velocity": 111,
      "chip": "ym2612"
    },
    {
      "channel": 0,
      "note": 90,
      "start": 4.1056,
      "duration": 0.0066,
      "velocity": 111,
      "chip": "ym2612"
    },
    {
      "channel": 0,
      "note": 91,
      "start": 4.1128,
      "duration": 0.032,
      "velocity": 111,
      "chip": "ym2612"
    },
    {
      "channel": 2,
      "note": 88,
      "start": 4.1264,
      "duration": 0.0057,
      "velocity": 111,
      "chip": "ym2612"
    },
    {
      "channel": 2,
      "note": 90,
      "start": 4.1327,
      "duration": 0.0058,
      "velocity": 111,
      "chip": "ym2612"
    },
    {
      "channel": 2,
      "note": 91,
      "start": 4.139,
      "duration": 0.0648,
      "velocity": 111,
      "chip": "ym2612"
    },
    {
      "channel": 0,
      "note": 91,
      "start": 4.1454,
      "duration": 0.008,
      "velocity": 111,
      "chip": "ym2612"
    },
    {
      "channel": 3,
      "note": 74,
      "start": 4.1468,
      "duration": 0.0151,
      "velocity": 103,
      "chip": "ym2612"
    },
    {
      "channel": 4,
      "note": 67,
      "start": 4.1476,
      "duration": 0.0146,
      "velocity": 103,
      "chip": "ym2612"
    },
    {
      "channel": 0,
      "note": 91,
      "start": 4.1541,
      "duration": 0.0323,
      "velocity": 111,
      "chip": "ym2612"
    },
    {
      "channel": 0,
      "note": 90,
      "start": 4.187,
      "duration": 0.2746,
      "velocity": 111,
      "chip": "ym2612"
    },
    {
      "channel": 2,
      "note": 91,
      "start": 4.2044,
      "duration": 0.0326,
      "velocity": 111,
      "chip": "ym2612"
    },
    {
      "channel": 2,
      "note": 91,
      "start": 4.2377,
      "duration": 0.0714,
      "velocity": 111,
      "chip": "ym2612"
    },
    {
      "channel": 1,
      "note": 57,
      "start": 4.3043,
      "duration": 0.1076,
      "velocity": 113,
      "chip": "ym2612"
    },
    {
      "channel": 3,
      "note": 72,
      "start": 4.3053,
      "duration": 0.0147,
      "velocity": 103,
      "chip": "ym2612"
    },
    {
      "channel": 4,
      "note": 66,
      "start": 4.3061,
      "duration": 0.0143,
      "velocity": 103,
      "chip": "ym2612"
    },
    {
      "channel": 2,
      "note": 90,
      "start": 4.3096,
      "duration": 0.2858,
      "velocity": 111,
      "chip": "ym2612"
    },
    {
      "channel": 0,
      "note": 88,
      "start": 4.4621,
      "duration": 0.0328,
      "velocity": 111,
      "chip": "ym2612"
    },
    {
      "channel": 1,
      "note": 54,
      "start": 4.4629,
      "duration": 0.0327,
      "velocity": 113,
      "chip": "ym2612"
    },
    {
      "channel": 3,
      "note": 72,
      "start": 4.4639,
      "duration": 0.0655,
      "velocity": 103,
      "chip": "ym2612"
    },
    {
      "channel": 4,
      "note": 66,
      "start": 4.4646,
      "duration": 0.0651,
      "velocity": 103,
      "chip": "ym2612"
    },
    {
      "channel": 0,
      "note": 87,
      "start": 4.4954,
      "duration": 0.0328,
      "velocity": 111,
      "chip": "ym2612"
    },
    {
      "channel": 0,
      "note": 86,
      "start": 4.5288,
      "duration": 0.0494,
      "velocity": 111,
      "chip": "ym2612"
    },
    {
      "channel": 0,
      "note": 84,
      "start": 4.5788,
      "duration": 0.0328,
      "velocity": 111,
      "chip": "ym2612"
    },
    {
      "channel": 1,
      "note": 57,
      "start": 4.5795,
      "duration": 0.1817,
      "velocity": 113,
      "chip": "ym2612"
    },
    {
      "channel": 2,
      "note": 88,
      "start": 4.596,
      "duration": 0.0327,
      "velocity": 111,
      "chip": "ym2612"
    },
    {
      "channel": 0,
      "note": 83,
      "start": 4.6121,
      "duration": 0.0328,
      "velocity": 111,
      "chip": "ym2612"
    },
    {
      "channel": 2,
      "note": 87,
      "start": 4.6293,
      "duration": 0.0327,
      "velocity": 111,
      "chip": "ym2612"
    },
    {
      "channel": 0,
      "note": 81,
      "start": 4.6454,
      "duration": 0.0496,
      "velocity": 111,
      "chip": "ym2612"
    },
    {
      "channel": 2,
      "note": 86,
      "start": 4.6627,
      "duration": 0.0367,
      "velocity": 111,
      "chip": "ym2612"
    },
    {
      "channel": 0,
      "note": 79,
      "start": 4.6957,
      "duration": 0.0066,
      "velocity": 111,
      "chip": "ym2612"
    },
    {
      "channel": 2,
      "note": 84,
      "start": 4.7,
      "duration": 0.0062,
      "velocity": 111,
      "chip": "ym2612"
    },
    {
      "channel": 0,
      "note": 78,
      "start": 4.7028,
      "duration": 0.0062,
      "velocity": 111,
      "chip": "ym2612"
    },
    {
      "channel": 2,
      "note": 83,
      "start": 4.7068,
      "duration": 0.0061,
      "velocity": 111,
      "chip": "ym2612"
    },
    {
      "channel": 0,
      "note": 76,
      "start": 4.7096,
      "duration": 0.0102,
      "velocity": 111,
      "chip": "ym2612"
    },
    {
      "channel": 2,
      "note": 81,
      "start": 4.7136,
      "duration": 0.0118,
      "velocity": 111,
      "chip": "ym2612"
    },
    {
      "channel": 3,
      "note": 72,
      "start": 4.7213,
      "duration": 0.0154,
      "velocity": 103,
      "chip": "ym2612"
    },
    {
      "channel": 4,
      "note": 66,
      "start": 4.722,
      "duration": 0.015,
      "velocity": 103,
      "chip": "ym2612"
    },
    {
      "channel": 2,
      "note": 79,
      "start": 4.726,
      "duration": 0.0068,
      "velocity": 111,
      "chip": "ym2612"
    },
    {
      "channel": 2,
      "note": 78,
      "start": 4.7333,
      "duration": 0.0117,
      "velocity": 111,
      "chip": "ym2612"
    },
    {
      "channel": 2,
      "note": 76,
      "start": 4.7456,
      "duration": 0.0326,
      "velocity": 111,
      "chip": "ym2612"
    },
    {
      "channel": 1,
      "note": 54,
      "start": 4.7618,
      "duration": 0.0661,
      "velocity": 113,
      "chip": "ym2612"
    },
    {
      "channel": 3,
      "note": 72,
      "start": 4.7629,
      "duration": 0.0321,
      "velocity": 103,
      "chip": "ym2612"
    },
    {
      "channel": 4,
      "note": 66,
      "start": 4.7636,
      "duration": 0.0316,
      "velocity": 103,
      "chip": "ym2612"
    },
    {
      "channel": 1,
      "note": 55,
      "start": 4.8787,
      "duration": 0.0137,
      "velocity": 113,
      "chip": "ym2612"
    },
    {
      "channel": 3,
      "note": 73,
      "start": 4.8795,
      "duration": 0.0132,
      "velocity": 103,
      "chip": "ym2612"
    },
    {
      "channel": 4,
      "note": 67,
      "start": 4.8803,
      "duration": 0.0127,
      "velocity": 103,
      "chip": "ym2612"
    },
    {
      "channel": 1,
      "note": 52,
      "start": 5.0372,
      "duration": 0.2244,
      "velocity": 113,
      "chip": "ym2612"
    },
    {
      "channel": 3,
      "note": 73,
      "start": 5.038,
      "duration": 0.224,
      "velocity": 103,
      "chip": "ym2612"
    },
    {
      "channel": 4,
      "note": 67,
      "start": 5.0388,
      "duration": 0.2234,
      "velocity": 103,
      "chip": "ym2612"
    },
    {
      "channel": 1,
      "note": 55,
      "start": 5.3124,
      "duration": 0.1482,
      "velocity": 113,
      "chip": "ym2612"
    },
    {
      "channel": 3,
      "note": 73,
      "start": 5.3132,
      "duration": 0.0126,
      "velocity": 103,
      "chip": "ym2612"
    },
    {
      "channel": 4,
      "note": 67,
      "start": 5.314,
      "duration": 0.0121,
      "velocity": 103,
      "chip": "ym2612"
    },
    {
      "channel": 0,
      "note": 91,
      "start": 5.3527,
      "duration": 0.041,
      "velocity": 111,
      "chip": "ym2612"
    },
    {
      "channel": 3,
      "note": 73,
      "start": 5.3539,
      "duration": 0.014,
      "velocity": 103,
      "chip": "ym2612"
    },
    {
      "channel": 4,
      "note": 67,
      "start": 5.3546,
      "duration": 0.0135,
      "velocity": 103,
      "chip": "ym2612"
    },
    {
      "channel": 0,
      "note": 92,
      "start": 5.3942,
      "duration": 0.1164,
      "velocity": 111,
      "chip": "ym2612"
    },
    {
      "channel": 2,
      "note": 91,
      "start": 5.4117,
      "duration": 0.1052,
      "velocity": 111,
      "chip": "ym2612"
    },
    {
      "channel": 0,
      "note": 93,
      "start": 5.5113,
      "duration": 0.0408,
      "velocity": 111,
      "chip": "ym2612"
    },
    {
      "channel": 1,
      "note": 57,
      "start": 5.512,
      "duration": 0.1237,
      "velocity": 113,
      "chip": "ym2612"
    },
    {
      "channel": 3,
      "note": 74,
      "start": 5.513,
      "duration": 0.0147,
      "velocity": 103,
      "chip": "ym2612"
    },
    {
      "channel": 4,
      "note": 67,
      "start": 5.5138,
      "duration": 0.0143,
      "velocity": 103,
      "chip": "ym2612"
    },
    {
      "channel": 2,
      "note": 92,
      "start": 5.5175,
      "duration": 0.0518,
      "velocity": 111,
      "chip": "ym2612"
    },
    {
      "channel": 0,
      "note": 87,
      "start": 5.5526,
      "duration": 0.0328,
      "velocity": 111,
      "chip": "ym2612"
    },
    {
      "channel": 2,
      "note": 93,
      "start": 5.5699,
      "duration": 0.1161,
      "velocity": 111,
      "chip": "ym2612"
    },
    {
      "channel": 0,
      "note": 88,
      "start": 5.586,
      "duration": 0.0828,
      "velocity": 111,
      "chip": "ym2612"
    },
    {
      "channel": 0,
      "note": 86,
      "start": 5.6693,
      "duration": 0.0328,
      "velocity": 111,
      "chip": "ym2612"
    },
    {
      "channel": 1,
      "note": 60,
      "start": 5.6701,
      "duration": 0.0327,
      "velocity": 113,
      "chip": "ym2612"
    },
    {
      "channel": 3,
      "note": 74,
      "start": 5.6711,
      "duration": 0.0821,
      "velocity": 103,
      "chip": "ym2612"
    },
    {
      "channel": 4,
      "note": 67,
      "start": 5.6718,
      "duration": 0.0817,
      "velocity": 103,
      "chip": "ym2612"
    },
    {
      "channel": 2,
      "note": 87,
      "start": 5.6866,
      "duration": 0.0325,
      "velocity": 111,
      "chip": "ym2612"
    },
    {
      "channel": 0,
      "note": 84,
      "start": 5.7026,
      "duration": 0.0494,
      "velocity": 111,
      "chip": "ym2612"
    },
    {
      "channel": 2,
      "note": 88,
      "start": 5.7197,
      "duration": 0.0829,
      "velocity": 111,
      "chip": "ym2612"
    },
    {
      "channel": 0,
      "note": 81,
      "start": 5.7526,
      "duration": 0.0328,
      "velocity": 111,
      "chip": "ym2612"
    },
    {
      "channel": 0,
      "note": 79,
      "start": 5.786,
      "duration": 0.0328,
      "velocity": 111,
      "chip": "ym2612"
    },
    {
      "channel": 1,
      "note": 57,
      "start": 5.7867,
      "duration": 0.1601,
      "velocity": 113,
      "chip": "ym2612"
    },
    {
      "channel": 2,
      "note": 86,
      "start": 5.8032,
      "duration": 0.0327,
      "velocity": 111,
      "chip": "ym2612"
    },
    {
      "channel": 0,
      "note": 78,
      "start": 5.8193,
      "duration": 0.0494,
      "velocity": 111,
      "chip": "ym2612"
    },
    {
      "channel": 2,
      "note": 84,
      "start": 5.8366,
      "duration": 0.0494,
      "velocity": 111,
      "chip": "ym2612"
    },
    {
      "channel": 0,
      "note": 76,
      "start": 5.8693,
      "duration": 0.033,
      "velocity": 111,
      "chip": "ym2612"
    },
    {
      "channel": 2,
      "note": 81,
      "start": 5.8866,
      "duration": 0.02,
      "velocity": 111,
      "chip": "ym2612"
    },
    {
      "channel": 0,
      "note": 74,
      "start": 5.9029,
      "duration": 0.0065,
      "velocity": 111,
      "chip": "ym2612"
    },
    {
      "channel": 2,
      "note": 79,
      "start": 5.9072,
      "duration": 0.0062,
      "velocity": 111,
      "chip": "ym2612"
    },
    {
      "channel": 0,
      "note": 72,
      "start": 5.91,
      "duration": 0.0157,
      "velocity": 111,
      "chip": "ym2612"
    },
    {
      "channel": 2,
      "note": 78,
      "start": 5.914,
      "duration": 0.0088,
      "velocity": 111,
      "chip": "ym2612"
    },
    {
      "channel": 2,
      "note": 76,
      "start": 5.9233,
      "duration": 0.0084,
      "velocity": 111,
      "chip": "ym2612"
    },
    {
      "channel": 0,
      "note": 86,
      "start": 5.9264,
      "duration": 0.0086,
      "velocity": 111,
      "chip": "ym2612"
    },
    {
      "channel": 3,
      "note": 74,
      "start": 5.9278,
      "duration": 0.0196,
      "velocity": 103,
      "chip": "ym2612"
    },
    {
      "channel": 4,
      "note": 67,
      "start": 5.9285,
      "duration": 0.0191,
      "velocity": 103,
      "chip": "ym2612"
    },
    {
      "channel": 2,
      "note": 74,
      "start": 5.9323,
      "duration": 0.0073,
      "velocity": 111,
      "chip": "ym2612"
    },
    {
      "channel": 0,
      "note": 87,
      "start": 5.9356,
      "duration": 0.0317,
      "velocity": 111,
      "chip": "ym2612"
    },
    {
      "channel": 2,
      "note": 72,
      "start": 5.9403,
      "duration": 0.0443,
      "velocity": 111,
      "chip": "ym2612"
    },
    {
      "channel": 0,
      "note": 86,
      "start": 5.9679,
      "duration": 0.1163,
      "velocity": 111,
      "chip": "ym2612"
    },
    {
      "channel": 1,
      "note": 60,
      "start": 5.9686,
      "duration": 0.0322,
      "velocity": 113,
      "chip": "ym2612"
    },
    {
      "channel": 3,
      "note": 74,
      "start": 5.9697,
      "duration": 0.0318,
      "velocity": 103,
      "chip": "ym2612"
    },
    {
      "channel": 4,
      "note": 67,
      "start": 5.9704,
      "duration": 0.0314,
      "velocity": 103,
      "chip": "ym2612"
    },
    {
      "channel": 2,
      "note": 86,
      "start": 5.9851,
      "duration": 0.0325,
      "velocity": 111,
      "chip": "ym2612"
    },
    {
      "channel": 2,
      "note": 87,
      "start": 6.0183,
      "duration": 0.072,
      "velocity": 111,
      "chip": "ym2612"
    },
    {
      "channel": 0,
      "note": 84,
      "start": 6.0848,
      "duration": 0.0409,
      "velocity": 111,
      "chip": "ym2612"
    },
    {
      "channel": 1,
      "note": 62,
      "start": 6.0855,
      "duration": 0.0186,
      "velocity": 113,
      "chip": "ym2612"
    },
    {
      "channel": 3,
      "note": 74,
      "start": 6.0865,
      "duration": 0.1232,
      "velocity": 103,
      "chip": "ym2612"
    },
    {
      "channel": 4,
      "note": 67,
      "start": 6.0873,
      "duration": 0.1227,
      "velocity": 103,
      "chip": "ym2612"
    },
    {
      "channel": 2,
      "note": 86,
      "start": 6.0909,
      "duration": 0.0519,
      "velocity": 111,
      "chip": "ym2612"
    },
    {
      "channel": 0,
      "note": 86,
      "start": 6.1263,
      "duration": 0.1163,
      "velocity": 111,
      "chip": "ym2612"
    },
    {
      "channel": 2,
      "note": 84,
      "start": 6.1434,
      "duration": 0.1054,
      "velocity": 111,
      "chip": "ym2612"
    },
    {
      "channel": 0,
      "note": 84,
      "start": 6.2432,
      "duration": 0.0409,
      "velocity": 111,
      "chip": "ym2612"
    },
    {
      "channel": 1,
      "note": 60,
      "start": 6.2439,
      "duration": 0.2405,
      "velocity": 113,
      "chip": "ym2612"
    },
    {
      "channel": 3,
      "note": 74,
      "start": 6.2449,
      "duration": 0.1234,
      "velocity": 103,
      "chip": "ym2612"
    },
    {
      "channel": 4,
      "note": 67,
      "start": 6.2457,
      "duration": 0.1229,
      "velocity": 103,
      "chip": "ym2612"
    },
    {
      "channel": 2,
      "note": 86,
      "start": 6.2493,
      "duration": 0.0521,
      "velocity": 111,
      "chip": "ym2612"
    },
    {
      "channel": 0,
      "note": 81,
      "start": 6.2847,
      "duration": 0.1161,
      "velocity": 111,
      "chip": "ym2612"
    },
    {
      "channel": 2,
      "note": 84,
      "start": 6.302,
      "duration": 0.1161,
      "velocity": 111,
      "chip": "ym2612"
    },
    {
      "channel": 0,
      "note": 79,
      "start": 6.4014,
      "duration": 0.1163,
      "velocity": 111,
      "chip": "ym2612"
    },
    {
      "channel": 3,
      "note": 67,
      "start": 6.4028,
      "duration": 0.0822,
      "velocity": 103,
      "chip": "ym2612"
    },
    {
      "channel": 2,
      "note": 81,
      "start": 6.4188,
      "duration": 0.1051,
      "velocity": 111,
      "chip": "ym2612"
    },
    {
      "channel": 0,
      "note": 88,
      "start": 6.5183,
      "duration": 0.0473,
      "velocity": 111,
      "chip": "ym2612"
    },
    {
      "channel": 1,
      "note": 62,
      "start": 6.519,
      "duration": 0.1718,
      "velocity": 113,
      "chip": "ym2612"
    },
    {
      "channel": 3,
      "note": 74,
      "start": 6.52,
      "duration": 0.0182,
      "velocity": 103,
      "chip": "ym2612"
    },
    {
      "channel": 4,
      "note": 67,
      "start": 6.5208,
      "duration": 0.0177,
      "velocity": 103,
      "chip": "ym2612"
    },
    {
      "channel": 2,
      "note": 79,
      "start": 6.5245,
      "duration": 0.0231,
      "velocity": 111,
      "chip": "ym2612"
    },
    {
      "channel": 2,
      "note": 88,
      "start": 6.5482,
      "duration": 0.0764,
      "velocity": 111,
      "chip": "ym2612"
    },
    {
      "channel": 0,
      "note": 88,
      "start": 6.5662,
      "duration": 0.041,
      "velocity": 111,
      "chip": "ym2612"
    },
    {
      "channel": 3,
      "note": 74,
      "start": 6.5677,
      "duration": 0.0183,
      "velocity": 103,
      "chip": "ym2612"
    },
    {
      "channel": 4,
      "note": 67,
      "start": 6.5684,
      "duration": 0.0179,
      "velocity": 103,
      "chip": "ym2612"
    },
    {
      "channel": 0,
      "note": 93,
      "start": 6.6078,
      "duration": 0.2745,
      "velocity": 111,
      "chip": "ym2612"
    },
    {
      "channel": 2,
      "note": 88,
      "start": 6.6252,
      "duration": 0.1046,
      "velocity": 111,
      "chip": "ym2612"
    },
    {
      "channel": 1,
      "note": 57,
      "start": 6.7251,
      "duration": 0.1242,
      "velocity": 113,
      "chip": "ym2612"
    },
    {
      "channel": 3,
      "note": 72,
      "start": 6.7261,
      "duration": 0.0181,
      "velocity": 103,
      "chip": "ym2612"
    },
    {
      "channel": 4,
      "note": 66,
      "start": 6.7268,
      "duration": 0.0177,
      "velocity": 103,
      "chip": "ym2612"
    },
    {
      "channel": 2,
      "note": 93,
      "start": 6.7305,
      "duration": 0.2857,
      "velocity": 111,
      "chip": "ym2612"
    },
    {
      "channel": 0,
      "note": 90,
      "start": 6.8829,
      "duration": 0.0328,
      "velocity": 111,
      "chip": "ym2612"
    },
    {
      "channel": 1,
      "note": 54,
      "start": 6.8836,
      "duration": 0.0327,
      "velocity": 113,
      "chip": "ym2612"
    },
    {
      "channel": 3,
      "note": 72,
      "start": 6.8846,
      "duration": 0.0822,
      "velocity": 103,
      "chip": "ym2612"
    },
    {
      "channel": 4,
      "note": 66,
      "start": 6.8854,
      "duration": 0.0817,
      "velocity": 103,
      "chip": "ym2612"
    },
    {
      "channel": 0,
      "note": 88,
      "start": 6.9162,
      "duration": 0.0494,
      "velocity": 111,
      "chip": "ym2612"
    },
    {
      "channel": 0,
      "note": 86,
      "start": 6.9662,
      "duration": 0.0328,
      "velocity": 111,
      "chip": "ym2612"
    },
    {
      "channel": 0,
      "note": 84,
      "start": 6.9995,
      "duration": 0.0328,
      "velocity": 111,
      "chip": "ym2612"
    },
    {
      "channel": 1,
      "note": 57,
      "start": 7.0003,
      "duration": 0.3489,
      "velocity": 113,
      "chip": "ym2612"
    },
    {
      "channel": 2,
      "note": 90,
      "start": 7.0168,
      "duration": 0.0494,
      "velocity": 111,
      "chip": "ym2612"
    },
    {
      "channel": 0,
      "note": 83,
      "start": 7.0329,
      "duration": 0.0494,
      "velocity": 111,
      "chip": "ym2612"
    },
    {
      "channel": 2,
      "note": 88,
      "start": 7.0668,
      "duration": 0.0327,
      "velocity": 111,
      "chip": "ym2612"
    },
    {
      "channel": 0,
      "note": 81,
      "start": 7.0829,
      "duration": 0.0328,
      "velocity": 111,
      "chip": "ym2612"
    },
    {
      "channel": 2,
      "note": 86,
      "start": 7.1001,
      "duration": 0.0325,
      "velocity": 111,
      "chip": "ym2612"
    },
    {
      "channel": 2,
      "note": 84,
      "start": 7.1332,
      "duration": 0.0494,
      "velocity": 111,
      "chip": "ym2612"
    },
    {
      "channel": 2,
      "note": 83,
      "start": 7.1832,
      "duration": 0.0327,
      "velocity": 111,
      "chip": "ym2612"
    },
    {
      "channel": 2,
      "note": 81,
      "start": 7.2166,
      "duration": 0.0328,
      "velocity": 111,
      "chip": "ym2612"
    },
    {
      "channel": 3,
      "note": 72,
      "start": 7.2336,
      "duration": 0.0825,
      "velocity": 103,
      "chip": "ym2612"
    },
    {
      "channel": 4,
      "note": 66,
      "start": 7.2344,
      "duration": 0.0821,
      "velocity": 103,
      "chip": "ym2612"
    },
    {
      "channel": 1,
      "note": 54,
      "start": 7.3498,
      "duration": 0.0165,
      "velocity": 113,
      "chip": "ym2612"
    },
    {
      "channel": 3,
      "note": 72,
      "start": 7.3506,
      "duration": 0.0072,
      "velocity": 103,
      "chip": "ym2612"
    },
    {
      "channel": 4,
      "note": 66,
      "start": 7.3514,
      "duration": 0.0066,
      "velocity": 103,
      "chip": "ym2612"
    },
    {
      "channel": 1,
      "note": 55,
      "start": 7.372,
      "duration": 0.0168,
      "velocity": 113,
      "chip": "ym2612"
    },
    {
      "channel": 3,
      "note": 73,
      "start": 7.3729,
      "duration": 0.0163,
      "velocity": 103,
      "chip": "ym2612"
    },
    {
      "channel": 4,
      "note": 67,
      "start": 7.3736,
      "duration": 0.0159,
      "velocity": 103,
      "chip": "ym2612"
    },
    {
      "channel": 1,
      "note": 52,
      "start": 7.5304,
      "duration": 0.241,
      "velocity": 113,
      "chip": "ym2612"
    },
    {
      "channel": 3,
      "note": 73,
      "start": 7.5312,
      "duration": 0.2406,
      "velocity": 103,
      "chip": "ym2612"
    },
    {
      "channel": 4,
      "note": 67,
      "start": 7.532,
      "duration": 0.2401,
      "velocity": 103,
      "chip": "ym2612"
    },
    {
      "channel": 1,
      "note": 55,
      "start": 7.8055,
      "duration": 0.199,
      "velocity": 113,
      "chip": "ym2612"
    },
    {
      "channel": 3,
      "note": 73,
      "start": 7.8063,
      "duration": 0.0155,
      "velocity": 103,
      "chip": "ym2612"
    },
    {
      "channel": 4,
      "note": 67,
      "start": 7.8071,
      "duration": 0.0151,
      "velocity": 103,
      "chip": "ym2612"
    },
    {
      "channel": 0,
      "note": 100,
      "start": 7.964,
      "duration": 0.0238,
      "velocity": 111,
      "chip": "ym2612"
    },
    {
      "channel": 3,
      "note": 73,
      "start": 7.9652,
      "duration": 0.0172,
      "velocity": 103,
      "chip": "ym2612"
    },
    {
      "channel": 4,
      "note": 67,
      "start": 7.9659,
      "duration": 0.0168,
      "velocity": 103,
      "chip": "ym2612"
    },
    {
      "channel": 0,
      "note": 103,
      "start": 7.9885,
      "duration": 0.0227,
      "velocity": 111,
      "chip": "ym2612"
    },
    {
      "channel": 2,
      "note": 100,
      "start": 7.9928,
      "duration": 0.0246,
      "velocity": 111,
      "chip": "ym2612"
    },
    {
      "channel": 0,
      "note": 105,
      "start": 8.0117,
      "duration": 0.0409,
      "velocity": 111,
      "chip": "ym2612"
    },
    {
      "channel": 1,
      "note": 57,
      "start": 8.0125,
      "duration": 0.1237,
      "velocity": 113,
      "chip": "ym2612"
    },
    {
      "channel": 3,
      "note": 74,
      "start": 8.0135,
      "duration": 0.0183,
      "velocity": 103,
      "chip": "ym2612"
    },
    {
      "channel": 4,
      "note": 67,
      "start": 8.0143,
      "duration": 0.0178,
      "velocity": 103,
      "chip": "ym2612"
    },
    {
      "channel": 2,
      "note": 103,
      "start": 8.018,
      "duration": 0.0518,
      "velocity": 111,
      "chip": "ym2612"
    },
    {
      "channel": 0,
      "note": 100,
      "start": 8.0532,
      "duration": 0.1161,
      "velocity": 111,
      "chip": "ym2612"
    },
    {
      "channel": 2,
      "note": 105,
      "start": 8.0705,
      "duration": 0.1161,
      "velocity": 111,
      "chip": "ym2612"
    },
    {
      "channel": 0,
      "note": 98,
      "start": 8.1699,
      "duration": 0.0494,
      "velocity": 111,
      "chip": "ym2612"
    },
    {
      "channel": 1,
      "note": 60,
      "start": 8.1707,
      "duration": 0.0494,
      "velocity": 113,
      "chip": "ym2612"
    },
    {
      "channel": 3,
      "note": 74,
      "start": 8.1717,
      "duration": 0.0821,
      "velocity": 103,
      "chip": "ym2612"
    },
    {
      "channel": 4,
      "note": 67,
      "start": 8.1724,
      "duration": 0.0816,
      "velocity": 103,
      "chip": "ym2612"
    },
    {
      "channel": 2,
      "note": 100,
      "start": 8.1871,
      "duration": 0.1161,
      "velocity": 111,
      "chip": "ym2612"
    },
    {
      "channel": 0,
      "note": 96,
      "start": 8.2199,
      "duration": 0.0328,
      "velocity": 111,
      "chip": "ym2612"
    },
    {
      "channel": 0,
      "note": 95,
      "start": 8.2532,
      "duration": 0.0328,
      "velocity": 111,
      "chip": "ym2612"
    },
    {
      "channel": 0,
      "note": 93,
      "start": 8.2866,
      "duration": 0.0494,
      "velocity": 111,
      "chip": "ym2612"
    },
    {
      "channel": 1,
      "note": 57,
      "start": 8.2873,
      "duration": 0.1591,
      "velocity": 113,
      "chip": "ym2612"
    },
    {
      "channel": 2,
      "note": 98,
      "start": 8.3038,
      "duration": 0.0494,
      "velocity": 111,
      "chip": "ym2612"
    },
    {
      "channel": 0,
      "note": 91,
      "start": 8.3366,
      "duration": 0.0328,
      "velocity": 111,
      "chip": "ym2612"
    },
    {
      "channel": 2,
      "note": 96,
      "start": 8.3538,
      "duration": 0.0327,
      "velocity": 111,
      "chip": "ym2612"
    },
    {
      "channel": 0,
      "note": 90,
      "start": 8.3699,
      "duration": 0.033,
      "velocity": 111,
      "chip": "ym2612"
    },
    {
      "channel": 2,
      "note": 95,
      "start": 8.3871,
      "duration": 0.02,
      "velocity": 111,
      "chip": "ym2612"
    },
    {
      "channel": 0,
      "note": 88,
      "start": 8.4035,
      "duration": 0.0096,
      "velocity": 111,
      "chip": "ym2612"
    },
    {
      "channel": 2,
      "note": 93,
      "start": 8.4078,
      "duration": 0.0087,
      "velocity": 111,
      "chip": "ym2612"
    },
    {
      "channel": 2,
      "note": 91,
      "start": 8.417,
      "duration": 0.0053,
      "velocity": 111,
      "chip": "ym2612"
    },
    {
      "channel": 2,
      "note": 90,
      "start": 8.4229,
      "duration": 0.0093,
      "velocity": 111,
      "chip": "ym2612"
    },
    {
      "channel": 0,
      "note": 91,
      "start": 8.4268,
      "duration": 0.041,
      "velocity": 111,
      "chip": "ym2612"
    },
    {
      "channel": 3,
      "note": 74,
      "start": 8.4282,
      "duration": 0.0186,
      "velocity": 103,
      "chip": "ym2612"
    },
    {
      "channel": 4,
      "note": 67,
      "start": 8.429,
      "duration": 0.0181,
      "velocity": 103,
      "chip": "ym2612"
    },
    {
      "channel": 2,
      "note": 88,
      "start": 8.4328,
      "duration": 0.0104,
      "velocity": 111,
      "chip": "ym2612"
    },
    {
      "channel": 0,
      "note": 93,
      "start": 8.4684,
      "duration": 0.1163,
      "velocity": 111,
      "chip": "ym2612"
    },
    {
      "channel": 1,
      "note": 60,
      "start": 8.4692,
      "duration": 0.0822,
      "velocity": 113,
      "chip": "ym2612"
    },
    {
      "channel": 3,
      "note": 74,
      "start": 8.47,
      "duration": 0.0487,
      "velocity": 103,
      "chip": "ym2612"
    },
    {
      "channel": 4,
      "note": 67,
      "start": 8.4707,
      "duration": 0.0483,
      "velocity": 103,
      "chip": "ym2612"
    },
    {
      "channel": 2,
      "note": 91,
      "start": 8.5023,
      "duration": 0.092,
      "velocity": 111,
      "chip": "ym2612"
    },
    {
      "channel": 0,
      "note": 88,
      "start": 8.5854,
      "duration": 0.0409,
      "velocity": 111,
      "chip": "ym2612"
    },
    {
      "channel": 1,
      "note": 62,
      "start": 8.5861,
      "duration": 0.0186,
      "velocity": 113,
      "chip": "ym2612"
    },
    {
      "channel": 3,
      "note": 74,
      "start": 8.5871,
      "duration": 0.1232,
      "velocity": 103,
      "chip": "ym2612"
    },
    {
      "channel": 4,
      "note": 67,
      "start": 8.5878,
      "duration": 0.1226,
      "velocity": 103,
      "chip": "ym2612"
    },
    {
      "channel": 2,
      "note": 93,
      "start": 8.5949,
      "duration": 0.0649,
      "velocity": 111,
      "chip": "ym2612"
    },
    {
      "channel": 0,
      "note": 86,
      "start": 8.6268,
      "duration": 0.0494,
      "velocity": 111,
      "chip": "ym2612"
    },
    {
      "channel": 2,
      "note": 88,
      "start": 8.6605,
      "duration": 0.0922,
      "velocity": 111,
      "chip": "ym2612"
    },
    {
      "channel": 0,
      "note": 87,
      "start": 8.6768,
      "duration": 0.0663,
      "velocity": 111,
      "chip": "ym2612"
    },
    {
      "channel": 0,
      "note": 86,
      "start": 8.7437,
      "duration": 0.0409,
      "velocity": 111,
      "chip": "ym2612"
    },
    {
      "channel": 1,
      "note": 60,
      "start": 8.7444,
      "duration": 0.2405,
      "velocity": 113,
      "chip": "ym2612"
    },
    {
      "channel": 3,
      "note": 74,
      "start": 8.7454,
      "duration": 0.1234,
      "velocity": 103,
      "chip": "ym2612"
    },
    {
      "channel": 4,
      "note": 67,
      "start": 8.7462,
      "duration": 0.1229,
      "velocity": 103,
      "chip": "ym2612"
    },
    {
      "channel": 2,
      "note": 86,
      "start": 8.7533,
      "duration": 0.0066,
      "velocity": 111,
      "chip": "ym2612"
    },
    {
      "channel": 2,
      "note": 87,
      "start": 8.7606,
      "duration": 0.058,
      "velocity": 111,
      "chip": "ym2612"
    },
    {
      "channel": 0,
      "note": 84,
      "start": 8.7852,
      "duration": 0.1161,
      "velocity": 111,
      "chip": "ym2612"
    },
    {
      "channel": 2,
      "note": 86,
      "start": 8.8191,
      "duration": 0.1162,
      "velocity": 111,
      "chip": "ym2612"
    },
    {
      "channel": 0,
      "note": 81,
      "start": 8.9019,
      "duration": 0.1163,
      "velocity": 111,
      "chip": "ym2612"
    },
    {
      "channel": 3,
      "note": 67,
      "start": 8.9033,
      "duration": 0.0822,
      "velocity": 103,
      "chip": "ym2612"
    },
    {
      "channel": 2,
      "note": 84,
      "start": 8.9359,
      "duration": 0.0919,
      "velocity": 111,
      "chip": "ym2612"
    },
    {
      "channel": 0,
      "note": 88,
      "start": 9.0188,
      "duration": 0.0122,
      "velocity": 111,
      "chip": "ym2612"
    },
    {
      "channel": 1,
      "note": 62,
      "start": 9.0195,
      "duration": 0.1742,
      "velocity": 113,
      "chip": "ym2612"
    },
    {
      "channel": 3,
      "note": 74,
      "start": 9.0205,
      "duration": 0.0191,
      "velocity": 103,
      "chip": "ym2612"
    },
    {
      "channel": 4,
      "note": 67,
      "start": 9.0213,
      "duration": 0.0186,
      "velocity": 103,
      "chip": "ym2612"
    },
    {
      "channel": 2,
      "note": 81,
      "start": 9.0284,
      "duration": 0.0235,
      "velocity": 111,
      "chip": "ym2612"
    },
    {
      "channel": 0,
      "note": 90,
      "start": 9.0317,
      "duration": 0.0066,
      "velocity": 111,
      "chip": "ym2612"
    },
    {
      "channel": 0,
      "note": 91,
      "start": 9.0389,
      "duration": 0.0297,
      "velocity": 111,
      "chip": "ym2612"
    },
    {
      "channel": 2,
      "note": 88,
      "start": 9.0525,
      "duration": 0.0057,
      "velocity": 111,
      "chip": "ym2612"
    },
    {
      "channel": 2,
      "note": 90,
      "start": 9.0588,
      "duration": 0.0057,
      "velocity": 111,
      "chip": "ym2612"
    },
    {
      "channel": 2,
      "note": 91,
      "start": 9.0651,
      "duration": 0.079,
      "velocity": 111,
      "chip": "ym2612"
    },
    {
      "channel": 0,
      "note": 91,
      "start": 9.0692,
      "duration": 0.0116,
      "velocity": 111,
      "chip": "ym2612"
    },
    {
      "channel": 3,
      "note": 74,
      "start": 9.0707,
      "duration": 0.0185,
      "velocity": 103,
      "chip": "ym2612"
    },
    {
      "channel": 4,
      "note": 67,
      "start": 9.0714,
      "duration": 0.0181,
      "velocity": 103,
      "chip": "ym2612"
    },
    {
      "channel": 0,
      "note": 91,
      "start": 9.0815,
      "duration": 0.0286,
      "velocity": 111,
      "chip": "ym2612"
    },
    {
      "channel": 0,
      "note": 90,
      "start": 9.1107,
      "duration": 0.2912,
      "velocity": 111,
      "chip": "ym2612"
    },
    {
      "channel": 2,
      "note": 91,
      "start": 9.1447,
      "duration": 0.0327,
      "velocity": 111,
      "chip": "ym2612"
    },
    {
      "channel": 2,
      "note": 91,
      "start": 9.178,
      "duration": 0.0582,
      "velocity": 111,
      "chip": "ym2612"
    },
    {
      "channel": 1,
      "note": 57,
      "start": 9.228,
      "duration": 0.1243,
      "velocity": 113,
      "chip": "ym2612"
    },
    {
      "channel": 3,
      "note": 72,
      "start": 9.229,
      "duration": 0.0182,
      "velocity": 103,
      "chip": "ym2612"
    },
    {
      "channel": 4,
      "note": 66,
      "start": 9.2298,
      "duration": 0.0177,
      "velocity": 103,
      "chip": "ym2612"
    },
    {
      "channel": 2,
      "note": 90,
      "start": 9.2369,
      "duration": 0.2989,
      "velocity": 111,
      "chip": "ym2612"
    },
    {
      "channel": 0,
      "note": 88,
      "start": 9.4024,
      "duration": 0.0328,
      "velocity": 111,
      "chip": "ym2612"
    },
    {
      "channel": 1,
      "note": 54,
      "start": 9.4032,
      "duration": 0.0327,
      "velocity": 113,
      "chip": "ym2612"
    },
    {
      "channel": 3,
      "note": 72,
      "start": 9.4042,
      "duration": 0.0655,
      "velocity": 103,
      "chip": "ym2612"
    },
    {
      "channel": 4,
      "note": 66,
      "start": 9.4049,
      "duration": 0.0651,
      "velocity": 103,
      "chip": "ym2612"
    },
    {
      "channel": 0,
      "note": 86,
      "start": 9.4358,
      "duration": 0.0328,
      "velocity": 111,
      "chip": "ym2612"
    },
    {
      "channel": 0,
      "note": 84,
      "start": 9.4691,
      "duration": 0.0494,
      "velocity": 111,
      "chip": "ym2612"
    },
    {
      "channel": 0,
      "note": 83,
      "start": 9.5191,
      "duration": 0.0328,
      "velocity": 111,
      "chip": "ym2612"
    },
    {
      "channel": 1,
      "note": 57,
      "start": 9.5199,
      "duration": 0.1818,
      "velocity": 113,
      "chip": "ym2612"
    },
    {
      "channel": 2,
      "note": 88,
      "start": 9.5363,
      "duration": 0.0327,
      "velocity": 111,
      "chip": "ym2612"
    },
    {
      "channel": 0,
      "note": 81,
      "start": 9.5524,
      "duration": 0.0328,
      "velocity": 111,
      "chip": "ym2612"
    },
    {
      "channel": 2,
      "note": 86,
      "start": 9.5697,
      "duration": 0.0327,
      "velocity": 111,
      "chip": "ym2612"
    },
    {
      "channel": 0,
      "note": 79,
      "start": 9.5858,
      "duration": 0.0496,
      "velocity": 111,
      "chip": "ym2612"
    },
    {
      "channel": 2,
      "note": 84,
      "start": 9.603,
      "duration": 0.0367,
      "velocity": 111,
      "chip": "ym2612"
    },
    {
      "channel": 0,
      "note": 78,
      "start": 9.636,
      "duration": 0.0066,
      "velocity": 111,
      "chip": "ym2612"
    },
    {
      "channel": 2,
      "note": 83,
      "start": 9.6403,
      "duration": 0.0062,
      "velocity": 111,
      "chip": "ym2612"
    },
    {
      "channel": 0,
      "note": 76,
      "start": 9.6432,
      "duration": 0.0062,
      "velocity": 111,
      "chip": "ym2612"
    },
    {
      "channel": 2,
      "note": 81,
      "start": 9.6471,
      "duration": 0.0063,
      "velocity": 111,
      "chip": "ym2612"
    },
    {
      "channel": 0,
      "note": 74,
      "start": 9.6499,
      "duration": 0.0102,
      "velocity": 111,
      "chip": "ym2612"
    },
    {
      "channel": 2,
      "note": 79,
      "start": 9.654,
      "duration": 0.0118,
      "velocity": 111,
      "chip": "ym2612"
    },
    {
      "channel": 3,
      "note": 72,
      "start": 9.6617,
      "duration": 0.0156,
      "velocity": 103,
      "chip": "ym2612"
    },
    {
      "channel": 4,
      "note": 66,
      "start": 9.6624,
      "duration": 0.0151,
      "velocity": 103,
      "chip": "ym2612"
    },
    {
      "channel": 2,
      "note": 78,
      "start": 9.6663,
      "duration": 0.0068,
      "velocity": 111,
      "chip": "ym2612"
    },
    {
      "channel": 2,
      "note": 76,
      "start": 9.6737,
      "duration": 0.0066,
      "velocity": 111,
      "chip": "ym2612"
    },
    {
      "channel": 2,
      "note": 74,
      "start": 9.6809,
      "duration": 0.0377,
      "velocity": 111,
      "chip": "ym2612"
    },
    {
      "channel": 1,
      "note": 54,
      "start": 9.7023,
      "duration": 0.0661,
      "velocity": 113,
      "chip": "ym2612"
    },
    {
      "channel": 3,
      "note": 72,
      "start": 9.7033,
      "duration": 0.0321,
      "velocity": 103,
      "chip": "ym2612"
    },
    {
      "channel": 4,
      "note": 66,
      "start": 9.7041,
      "duration": 0.0316,
      "velocity": 103,
      "chip": "ym2612"
    },
    {
      "channel": 1,
      "note": 55,
      "start": 9.8191,
      "duration": 0.0136,
      "velocity": 113,
      "chip": "ym2612"
    },
    {
      "channel": 3,
      "note": 73,
      "start": 9.82,
      "duration": 0.0132,
      "velocity": 103,
      "chip": "ym2612"
    },
    {
      "channel": 4,
      "note": 67,
      "start": 9.8207,
      "duration": 0.0127,
      "velocity": 103,
      "chip": "ym2612"
    },
    {
      "channel": 1,
      "note": 52,
      "start": 9.9776,
      "duration": 0.2244,
      "velocity": 113,
      "chip": "ym2612"
    },
    {
      "channel": 3,
      "note": 73,
      "start": 9.9784,
      "duration": 0.224,
      "velocity": 103,
      "chip": "ym2612"
    },
    {
      "channel": 4,
      "note": 67,
      "start": 9.9792,
      "duration": 0.2234,
      "velocity": 103,
      "chip": "ym2612"
    },
    {
      "channel": 1,
      "note": 55,
      "start": 10.2528,
      "duration": 0.1482,
      "velocity": 113,
      "chip": "ym2612"
    },
    {
      "channel": 3,
      "note": 73,
      "start": 10.2536,
      "duration": 0.0126,
      "velocity": 103,
      "chip": "ym2612"
    },
    {
      "channel": 4,
      "note": 67,
      "start": 10.2544,
      "duration": 0.0122,
      "velocity": 103,
      "chip": "ym2612"
    },
    {
      "channel": 0,
      "note": 91,
      "start": 10.293,
      "duration": 0.041,
      "velocity": 111,
      "chip": "ym2612"
    },
    {
      "channel": 3,
      "note": 73,
      "start": 10.2942,
      "duration": 0.014,
      "velocity": 103,
      "chip": "ym2612"
    },
    {
      "channel": 4,
      "note": 67,
      "start": 10.295,
      "duration": 0.0135,
      "velocity": 103,
      "chip": "ym2612"
    },
    {
      "channel": 0,
      "note": 92,
      "start": 10.3346,
      "duration": 0.1164,
      "velocity": 111,
      "chip": "ym2612"
    },
    {
      "channel": 2,
      "note": 91,
      "start": 10.352,
      "duration": 0.1052,
      "velocity": 111,
      "chip": "ym2612"
    },
    {
      "channel": 0,
      "note": 93,
      "start": 10.4516,
      "duration": 0.0409,
      "velocity": 111,
      "chip": "ym2612"
    },
    {
      "channel": 1,
      "note": 57,
      "start": 10.4524,
      "duration": 0.107,
      "velocity": 113,
      "chip": "ym2612"
    },
    {
      "channel": 3,
      "note": 74,
      "start": 10.4534,
      "duration": 0.0146,
      "velocity": 103,
      "chip": "ym2612"
    },
    {
      "channel": 4,
      "note": 67,
      "start": 10.4541,
      "duration": 0.0142,
      "velocity": 103,
      "chip": "ym2612"
    },
    {
      "channel": 2,
      "note": 92,
      "start": 10.4578,
      "duration": 0.0519,
      "velocity": 111,
      "chip": "ym2612"
    },
    {
      "channel": 0,
      "note": 87,
      "start": 10.493,
      "duration": 0.0328,
      "velocity": 111,
      "chip": "ym2612"
    },
    {
      "channel": 2,
      "note": 93,
      "start": 10.5103,
      "duration": 0.1161,
      "velocity": 111,
      "chip": "ym2612"
    },
    {
      "channel": 0,
      "note": 88,
      "start": 10.5263,
      "duration": 0.0828,
      "velocity": 111,
      "chip": "ym2612"
    },
    {
      "channel": 0,
      "note": 86,
      "start": 10.6097,
      "duration": 0.0328,
      "velocity": 111,
      "chip": "ym2612"
    },
    {
      "channel": 1,
      "note": 60,
      "start": 10.6105,
      "duration": 0.0327,
      "velocity": 113,
      "chip": "ym2612"
    },
    {
      "channel": 3,
      "note": 74,
      "start": 10.6115,
      "duration": 0.0654,
      "velocity": 103,
      "chip": "ym2612"
    },
    {
      "channel": 4,
      "note": 67,
      "start": 10.6122,
      "duration": 0.065,
      "velocity": 103,
      "chip": "ym2612"
    },
    {
      "channel": 2,
      "note": 87,
      "start": 10.6269,
      "duration": 0.0325,
      "velocity": 111,
      "chip": "ym2612"
    },
    {
      "channel": 0,
      "note": 84,
      "start": 10.643,
      "duration": 0.0328,
      "velocity": 111,
      "chip": "ym2612"
    },
    {
      "channel": 2,
      "note": 88,
      "start": 10.6601,
      "duration": 0.0829,
      "velocity": 111,
      "chip": "ym2612"
    },
    {
      "channel": 0,
      "note": 81,
      "start": 10.6763,
      "duration": 0.0494,
      "velocity": 111,
      "chip": "ym2612"
    },
    {
      "channel": 0,
      "note": 79,
      "start": 10.7263,
      "duration": 0.0328,
      "velocity": 111,
      "chip": "ym2612"
    },
    {
      "channel": 1,
      "note": 57,
      "start": 10.7271,
      "duration": 0.1566,
      "velocity": 113,
      "chip": "ym2612"
    },
    {
      "channel": 2,
      "note": 86,
      "start": 10.7436,
      "duration": 0.0327,
      "velocity": 111,
      "chip": "ym2612"
    },
    {
      "channel": 0,
      "note": 78,
      "start": 10.7597,
      "duration": 0.0328,
      "velocity": 111,
      "chip": "ym2612"
    },
    {
      "channel": 2,
      "note": 84,
      "start": 10.7769,
      "duration": 0.0494,
      "velocity": 111,
      "chip": "ym2612"
    },
    {
      "channel": 0,
      "note": 76,
      "start": 10.793,
      "duration": 0.0496,
      "velocity": 111,
      "chip": "ym2612"
    },
    {
      "channel": 2,
      "note": 81,
      "start": 10.8269,
      "duration": 0.02,
      "velocity": 111,
      "chip": "ym2612"
    },
    {
      "channel": 0,
      "note": 74,
      "start": 10.8433,
      "duration": 0.0065,
      "velocity": 111,
      "chip": "ym2612"
    },
    {
      "channel": 2,
      "note": 79,
      "start": 10.8476,
      "duration": 0.0062,
      "velocity": 111,
      "chip": "ym2612"
    },
    {
      "channel": 0,
      "note": 72,
      "start": 10.8504,
      "duration": 0.0157,
      "velocity": 111,
      "chip": "ym2612"
    },
    {
      "channel": 2,
      "note": 78,
      "start": 10.8544,
      "duration": 0.0088,
      "velocity": 111,
      "chip": "ym2612"
    },
    {
      "channel": 2,
      "note": 76,
      "start": 10.8637,
      "duration": 0.0084,
      "velocity": 111,
      "chip": "ym2612"
    },
    {
      "channel": 0,
      "note": 86,
      "start": 10.8668,
      "duration": 0.0086,
      "velocity": 111,
      "chip": "ym2612"
    },
    {
      "channel": 3,
      "note": 74,
      "start": 10.8681,
      "duration": 0.016,
      "velocity": 103,
      "chip": "ym2612"
    },
    {
      "channel": 4,
      "note": 67,
      "start": 10.8689,
      "duration": 0.0156,
      "velocity": 103,
      "chip": "ym2612"
    },
    {
      "channel": 2,
      "note": 74,
      "start": 10.8727,
      "duration": 0.0073,
      "velocity": 111,
      "chip": "ym2612"
    },
    {
      "channel": 0,
      "note": 87,
      "start": 10.8759,
      "duration": 0.0317,
      "velocity": 111,
      "chip": "ym2612"
    },
    {
      "channel": 2,
      "note": 72,
      "start": 10.8806,
      "duration": 0.0442,
      "velocity": 111,
      "chip": "ym2612"
    },
    {
      "channel": 0,
      "note": 86,
      "start": 10.9082,
      "duration": 0.1163,
      "velocity": 111,
      "chip": "ym2612"
    },
    {
      "channel": 1,
      "note": 60,
      "start": 10.9089,
      "duration": 0.0656,
      "velocity": 113,
      "chip": "ym2612"
    },
    {
      "channel": 3,
      "note": 74,
      "start": 10.91,
      "duration": 0.0318,
      "velocity": 103,
      "chip": "ym2612"
    },
    {
      "channel": 4,
      "note": 67,
      "start": 10.9107,
      "duration": 0.0314,
      "velocity": 103,
      "chip": "ym2612"
    },
    {
      "channel": 2,
      "note": 86,
      "start": 10.9254,
      "duration": 0.0327,
      "velocity": 111,
      "chip": "ym2612"
    },
    {
      "channel": 2,
      "note": 87,
      "start": 10.9588,
      "duration": 0.0718,
      "velocity": 111,
      "chip": "ym2612"
    },
    {
      "channel": 0,
      "note": 84,
      "start": 11.0251,
      "duration": 0.0409,
      "velocity": 111,
      "chip": "ym2612"
    },
    {
      "channel": 1,
      "note": 62,
      "start": 11.0258,
      "duration": 0.0151,
      "velocity": 113,
      "chip": "ym2612"
    },
    {
      "channel": 3,
      "note": 74,
      "start": 11.0268,
      "duration": 0.1065,
      "velocity": 103,
      "chip": "ym2612"
    },
    {
      "channel": 4,
      "note": 67,
      "start": 11.0276,
      "duration": 0.106,
      "velocity": 103,
      "chip": "ym2612"
    },
    {
      "channel": 2,
      "note": 86,
      "start": 11.0312,
      "duration": 0.0518,
      "velocity": 111,
      "chip": "ym2612"
    },
    {
      "channel": 0,
      "note": 86,
      "start": 11.0666,
      "duration": 0.1163,
      "velocity": 111,
      "chip": "ym2612"
    },
    {
      "channel": 2,
      "note": 84,
      "start": 11.0836,
      "duration": 0.1054,
      "velocity": 111,
      "chip": "ym2612"
    },
    {
      "channel": 0,
      "note": 84,
      "start": 11.1835,
      "duration": 0.0409,
      "velocity": 111,
      "chip": "ym2612"
    },
    {
      "channel": 1,
      "note": 60,
      "start": 11.1842,
      "duration": 0.2405,
      "velocity": 113,
      "chip": "ym2612"
    },
    {
      "channel": 3,
      "note": 74,
      "start": 11.1852,
      "duration": 0.1234,
      "velocity": 103,
      "chip": "ym2612"
    },
    {
      "channel": 4,
      "note": 67,
      "start": 11.186,
      "duration": 0.1229,
      "velocity": 103,
      "chip": "ym2612"
    },
    {
      "channel": 2,
      "note": 86,
      "start": 11.1896,
      "duration": 0.0521,
      "velocity": 111,
      "chip": "ym2612"
    },
    {
      "channel": 0,
      "note": 81,
      "start": 11.225,
      "duration": 0.1161,
      "velocity": 111,
      "chip": "ym2612"
    },
    {
      "channel": 2,
      "note": 84,
      "start": 11.2423,
      "duration": 0.1161,
      "velocity": 111,
      "chip": "ym2612"
    },
    {
      "channel": 0,
      "note": 79,
      "start": 11.3417,
      "duration": 0.1163,
      "velocity": 111,
      "chip": "ym2612"
    },
    {
      "channel": 3,
      "note": 67,
      "start": 11.3431,
      "duration": 0.0822,
      "velocity": 103,
      "chip": "ym2612"
    },
    {
      "channel": 2,
      "note": 81,
      "start": 11.359,
      "duration": 0.1051,
      "velocity": 111,
      "chip": "ym2612"
    },
    {
      "channel": 0,
      "note": 88,
      "start": 11.4586,
      "duration": 0.0473,
      "velocity": 111,
      "chip": "ym2612"
    },
    {
      "channel": 1,
      "note": 62,
      "start": 11.4593,
      "duration": 0.0663,
      "velocity": 113,
      "chip": "ym2612"
    },
    {
      "channel": 3,
      "note": 74,
      "start": 11.4603,
      "duration": 0.0182,
      "velocity": 103,
      "chip": "ym2612"
    },
    {
      "channel": 4,
      "note": 67,
      "start": 11.4611,
      "duration": 0.0177,
      "velocity": 103,
      "chip": "ym2612"
    },
    {
      "channel": 2,
      "note": 79,
      "start": 11.4647,
      "duration": 0.0231,
      "velocity": 111,
      "chip": "ym2612"
    },
    {
      "channel": 2,
      "note": 88,
      "start": 11.4885,
      "duration": 0.0654,
      "velocity": 111,
      "chip": "ym2612"
    },
    {
      "channel": 0,
      "note": 88,
      "start": 11.5065,
      "duration": 0.0411,
      "velocity": 111,
      "chip": "ym2612"
    },
    {
      "channel": 3,
      "note": 74,
      "start": 11.5079,
      "duration": 0.0183,
      "velocity": 103,
      "chip": "ym2612"
    },
    {
      "channel": 4,
      "note": 67,
      "start": 11.5087,
      "duration": 0.0178,
      "velocity": 103,
      "chip": "ym2612"
    },
    {
      "channel": 0,
      "note": 84,
      "start": 11.5483,
      "duration": 0.087,
      "velocity": 111,
      "chip": "ym2612"
    },
    {
      "channel": 1,
      "note": 60,
      "start": 11.549,
      "duration": 0.0186,
      "velocity": 113,
      "chip": "ym2612"
    },
    {
      "channel": 3,
      "note": 72,
      "start": 11.55,
      "duration": 0.0182,
      "velocity": 103,
      "chip": "ym2612"
    },
    {
      "channel": 4,
      "note": 67,
      "start": 11.5508,
      "duration": 0.0178,
      "velocity": 103,
      "chip": "ym2612"
    },
    {
      "channel": 2,
      "note": 88,
      "start": 11.5544,
      "duration": 0.0225,
      "velocity": 111,
      "chip": "ym2612"
    },
    {
      "channel": 2,
      "note": 84,
      "start": 11.5775,
      "duration": 0.1803,
      "velocity": 111,
      "chip": "ym2612"
    },
    {
      "channel": 1,
      "note": 69,
      "start": 11.5947,
      "duration": 0.0176,
      "velocity": 113,
      "chip": "ym2612"
    },
    {
      "channel": 3,
      "note": 81,
      "start": 11.5957,
      "duration": 0.0412,
      "velocity": 103,
      "chip": "ym2612"
    },
    {
      "channel": 0,
      "note": 83,
      "start": 11.6358,
      "duration": 0.0328,
      "velocity": 111,
      "chip": "ym2612"
    },
    {
      "channel": 1,
      "note": 67,
      "start": 11.6366,
      "duration": 0.0827,
      "velocity": 113,
      "chip": "ym2612"
    },
    {
      "channel": 3,
      "note": 79,
      "start": 11.6376,
      "duration": 0.1165,
      "velocity": 103,
      "chip": "ym2612"
    },
    {
      "channel": 0,
      "note": 81,
      "start": 11.6692,
      "duration": 0.0494,
      "velocity": 111,
      "chip": "ym2612"
    },
    {
      "channel": 0,
      "note": 79,
      "start": 11.7192,
      "duration": 0.0331,
      "velocity": 111,
      "chip": "ym2612"
    },
    {
      "channel": 0,
      "note": 78,
      "start": 11.7529,
      "duration": 0.0083,
      "velocity": 111,
      "chip": "ym2612"
    },
    {
      "channel": 1,
      "note": 64,
      "start": 11.7536,
      "duration": 0.0189,
      "velocity": 113,
      "chip": "ym2612"
    },
    {
      "channel": 3,
      "note": 76,
      "start": 11.7547,
      "duration": 0.0405,
      "velocity": 103,
      "chip": "ym2612"
    },
    {
      "channel": 2,
      "note": 83,
      "start": 11.7584,
      "duration": 0.007,
      "velocity": 111,
      "chip": "ym2612"
    },
    {
      "channel": 0,
      "note": 76,
      "start": 11.7617,
      "duration": 0.01,
      "velocity": 111,
      "chip": "ym2612"
    },
    {
      "channel": 2,
      "note": 81,
      "start": 11.766,
      "duration": 0.0115,
      "velocity": 111,
      "chip": "ym2612"
    },
    {
      "channel": 0,
      "note": 74,
      "start": 11.7723,
      "duration": 0.0215,
      "velocity": 111,
      "chip": "ym2612"
    },
    {
      "channel": 2,
      "note": 79,
      "start": 11.778,
      "duration": 0.0209,
      "velocity": 111,
      "chip": "ym2612"
    },
    {
      "channel": 1,
      "note": 62,
      "start": 11.7948,
      "duration": 0.0172,
      "velocity": 113,
      "chip": "ym2612"
    },
    {
      "channel": 3,
      "note": 74,
      "start": 11.7959,
      "duration": 0.0172,
      "velocity": 103,
      "chip": "ym2612"
    },
    {
      "channel": 2,
      "note": 78,
      "start": 11.7996,
      "duration": 0.0061,
      "velocity": 111,
      "chip": "ym2612"
    },
    {
      "channel": 2,
      "note": 76,
      "start": 11.8063,
      "duration": 0.0101,
      "velocity": 111,
      "chip": "ym2612"
    },
    {
      "channel": 1,
      "note": 63,
      "start": 11.8126,
      "duration": 0.0137,
      "velocity": 113,
      "chip": "ym2612"
    },
    {
      "channel": 3,
      "note": 75,
      "start": 11.8137,
      "duration": 0.0134,
      "velocity": 103,
      "chip": "ym2612"
    },
    {
      "channel": 2,
      "note": 74,
      "start": 11.8171,
      "duration": 0.0065,
      "velocity": 111,
      "chip": "ym2612"
    },
    {
      "channel": 1,
      "note": 62,
      "start": 11.8269,
      "duration": 0.0165,
      "velocity": 113,
      "chip": "ym2612"
    },
    {
      "channel": 3,
      "note": 74,
      "start": 11.8277,
      "duration": 0.0165,
      "velocity": 103,
      "chip": "ym2612"
    },
    {
      "channel": 1,
      "note": 60,
      "start": 11.844,
      "duration": 0.0212,
      "velocity": 113,
      "chip": "ym2612"
    },
    {
      "channel": 3,
      "note": 72,
      "start": 11.8448,
      "duration": 0.0212,
      "velocity": 103,
      "chip": "ym2612"
    },
    {
      "channel": 1,
      "note": 57,
      "start": 11.8658,
      "duration": 0.0149,
      "velocity": 113,
      "chip": "ym2612"
    },
    {
      "channel": 3,
      "note": 69,
      "start": 11.8666,
      "duration": 0.0195,
      "velocity": 103,
      "chip": "ym2612"
    },
    {
      "channel": 0,
      "note": 74,
      "start": 11.9056,
      "duration": 0.1095,
      "velocity": 86,
      "chip": "ym2612"
    },
    {
      "channel": 0,
      "note": 75,
      "start": 12.0157,
      "duration": 0.0328,
      "velocity": 86,
      "chip": "ym2612"
    },
    {
      "channel": 2,
      "note": 74,
      "start": 12.0353,
      "duration": 0.1029,
      "velocity": 86,
      "chip": "ym2612"
    },
    {
      "channel": 0,
      "note": 76,
      "start": 12.049,
      "duration": 0.083,
      "velocity": 86,
      "chip": "ym2612"
    },
    {
      "channel": 0,
      "note": 79,
      "start": 12.1326,
      "duration": 0.0268,
      "velocity": 86,
      "chip": "ym2612"
    },
    {
      "channel": 1,
      "note": 52,
      "start": 12.1333,
      "duration": 0.128,
      "velocity": 113,
      "chip": "ym2612"
    },
    {
      "channel": 3,
      "note": 74,
      "start": 12.1343,
      "duration": 0.1362,
      "velocity": 103,
      "chip": "ym2612"
    },
    {
      "channel": 4,
      "note": 68,
      "start": 12.1351,
      "duration": 0.1362,
      "velocity": 103,
      "chip": "ym2612"
    },
    {
      "channel": 2,
      "note": 75,
      "start": 12.1388,
      "duration": 0.0104,
      "velocity": 86,
      "chip": "ym2612"
    },
    {
      "channel": 2,
      "note": 76,
      "start": 12.1498,
      "duration": 0.0142,
      "velocity": 86,
      "chip": "ym2612"
    },
    {
      "channel": 0,
      "note": 84,
      "start": 12.16,
      "duration": 0.026,
      "velocity": 86,
      "chip": "ym2612"
    },
    {
      "channel": 2,
      "note": 79,
      "start": 12.1646,
      "duration": 0.0263,
      "velocity": 86,
      "chip": "ym2612"
    },
    {
      "channel": 0,
      "note": 86,
      "start": 12.1866,
      "duration": 0.0274,
      "velocity": 86,
      "chip": "ym2612"
    },
    {
      "channel": 2,
      "note": 84,
      "start": 12.1916,
      "duration": 0.0274,
      "velocity": 86,
      "chip": "ym2612"
    },
    {
      "channel": 0,
      "note": 88,
      "start": 12.2146,
      "duration": 0.0268,
      "velocity": 86,
      "chip": "ym2612"
    },
    {
      "channel": 2,
      "note": 86,
      "start": 12.2195,
      "duration": 0.0268,
      "velocity": 86,
      "chip": "ym2612"
    },
    {
      "channel": 0,
      "note": 91,
      "start": 12.2419,
      "duration": 0.0269,
      "velocity": 86,
      "chip": "ym2612"
    },
    {
      "channel": 2,
      "note": 88,
      "start": 12.2469,
      "duration": 0.0281,
      "velocity": 86,
      "chip": "ym2612"
    },
    {
      "channel": 0,
      "note": 95,
      "start": 12.2694,
      "duration": 0.009,
      "velocity": 86,
      "chip": "ym2612"
    },
    {
      "channel": 1,
      "note": 53,
      "start": 12.2701,
      "duration": 0.1237,
      "velocity": 113,
      "chip": "ym2612"
    },
    {
      "channel": 3,
      "note": 72,
      "start": 12.2712,
      "duration": 0.1233,
      "velocity": 103,
      "chip": "ym2612"
    },
    {
      "channel": 4,
      "note": 69,
      "start": 12.2719,
      "duration": 0.1228,
      "velocity": 103,
      "chip": "ym2612"
    },
    {
      "channel": 2,
      "note": 91,
      "start": 12.2756,
      "duration": 0.0518,
      "velocity": 86,
      "chip": "ym2612"
    },
    {
      "channel": 0,
      "note": 96,
      "start": 12.2789,
      "duration": 0.1146,
      "velocity": 86,
      "chip": "ym2612"
    },
    {
      "channel": 2,
      "note": 95,
      "start": 12.328,
      "duration": 0.0494,
      "velocity": 86,
      "chip": "ym2612"
    },
    {
      "channel": 2,
      "note": 96,
      "start": 12.378,
      "duration": 0.149,
      "velocity": 86,
      "chip": "ym2612"
    },
    {
      "channel": 0,
      "note": 98,
      "start": 12.4274,
      "duration": 0.0828,
      "velocity": 86,
      "chip": "ym2612"
    },
    {
      "channel": 1,
      "note": 53,
      "start": 12.4282,
      "duration": 0.0322,
      "velocity": 113,
      "chip": "ym2612"
    },
    {
      "channel": 3,
      "note": 71,
      "start": 12.4292,
      "duration": 0.0816,
      "velocity": 103,
      "chip": "ym2612"
    },
    {
      "channel": 4,
      "note": 67,
      "start": 12.4299,
      "duration": 0.0812,
      "velocity": 103,
      "chip": "ym2612"
    },
    {
      "channel": 0,
      "note": 99,
      "start": 12.5441,
      "duration": 0.0494,
      "velocity": 86,
      "chip": "ym2612"
    },
    {
      "channel": 1,
      "note": 65,
      "start": 12.5449,
      "duration": 0.0822,
      "velocity": 113,
      "chip": "ym2612"
    },
    {
      "channel": 3,
      "note": 72,
      "start": 12.5456,
      "duration": 0.1332,
      "velocity": 103,
      "chip": "ym2612"
    },
    {
      "channel": 4,
      "note": 69,
      "start": 12.5464,
      "duration": 0.1328,
      "velocity": 103,
      "chip": "ym2612"
    },
    {
      "channel": 2,
      "note": 98,
      "start": 12.5614,
      "duration": 0.0825,
      "velocity": 86,
      "chip": "ym2612"
    },
    {
      "channel": 0,
      "note": 100,
      "start": 12.5941,
      "duration": 0.0841,
      "velocity": 86,
      "chip": "ym2612"
    },
    {
      "channel": 2,
      "note": 99,
      "start": 12.6648,
      "duration": 0.0099,
      "velocity": 86,
      "chip": "ym2612"
    },
    {
      "channel": 2,
      "note": 100,
      "start": 12.6752,
      "duration": 0.0351,
      "velocity": 86,
      "chip": "ym2612"
    },
    {
      "channel": 0,
      "note": 93,
      "start": 12.6858,
      "duration": 0.1242,
      "velocity": 86,
      "chip": "ym2612"
    },
    {
      "channel": 1,
      "note": 53,
      "start": 12.6865,
      "duration": 0.0179,
      "velocity": 113,
      "chip": "ym2612"
    },
    {
      "channel": 3,
      "note": 71,
      "start": 12.6875,
      "duration": 0.1232,
      "velocity": 103,
      "chip": "ym2612"
    },
    {
      "channel": 4,
      "note": 67,
      "start": 12.6883,
      "duration": 0.1227,
      "velocity": 103,
      "chip": "ym2612"
    },
    {
      "channel": 2,
      "note": 93,
      "start": 12.7443,
      "duration": 0.1245,
      "velocity": 86,
      "chip": "ym2612"
    },
    {
      "channel": 0,
      "note": 99,
      "start": 12.8442,
      "duration": 0.0116,
      "velocity": 86,
      "chip": "ym2612"
    },
    {
      "channel": 1,
      "note": 53,
      "start": 12.8449,
      "duration": 0.0184,
      "velocity": 113,
      "chip": "ym2612"
    },
    {
      "channel": 3,
      "note": 72,
      "start": 12.8459,
      "duration": 0.018,
      "velocity": 103,
      "chip": "ym2612"
    },
    {
      "channel": 4,
      "note": 69,
      "start": 12.8467,
      "duration": 0.0175,
      "velocity": 103,
      "chip": "ym2612"
    },
    {
      "channel": 0,
      "note": 100,
      "start": 12.8563,
      "duration": 0.5388,
      "velocity": 86,
      "chip": "ym2612"
    },
    {
      "channel": 2,
      "note": 99,
      "start": 12.9027,
      "duration": 0.0494,
      "velocity": 86,
      "chip": "ym2612"
    },
    {
      "channel": 2,
      "note": 100,
      "start": 12.9527,
      "duration": 0.4735,
      "velocity": 86,
      "chip": "ym2612"
    },
    {
      "channel": 1,
      "note": 65,
      "start": 13.0027,
      "duration": 0.0828,
      "velocity": 113,
      "chip": "ym2612"
    },
    {
      "channel": 1,
      "note": 53,
      "start": 13.1194,
      "duration": 0.276,
      "velocity": 113,
      "chip": "ym2612"
    },
    {
      "channel": 3,
      "note": 81,
      "start": 13.1204,
      "duration": 0.0824,
      "velocity": 103,
      "chip": "ym2612"
    },
    {
      "channel": 4,
      "note": 77,
      "start": 13.1212,
      "duration": 0.0819,
      "velocity": 103,
      "chip": "ym2612"
    },
    {
      "channel": 3,
      "note": 81,
      "start": 13.2368,
      "duration": 0.0828,
      "velocity": 103,
      "chip": "ym2612"
    },
    {
      "channel": 4,
      "note": 77,
      "start": 13.2376,
      "duration": 0.0823,
      "velocity": 103,
      "chip": "ym2612"
    },
    {
      "channel": 3,
      "note": 83,
      "start": 13.3771,
      "duration": 0.0122,
      "velocity": 103,
      "chip": "ym2612"
    },
    {
      "channel": 4,
      "note": 79,
      "start": 13.3778,
      "duration": 0.0117,
      "velocity": 103,
      "chip": "ym2612"
    },
    {
      "channel": 0,
      "note": 98,
      "start": 13.4017,
      "duration": 0.0201,
      "velocity": 86,
      "chip": "ym2612"
    },
    {
      "channel": 1,
      "note": 53,
      "start": 13.4024,
      "duration": 0.0196,
      "velocity": 113,
      "chip": "ym2612"
    },
    {
      "channel": 3,
      "note": 84,
      "start": 13.4035,
      "duration": 0.1232,
      "velocity": 103,
      "chip": "ym2612"
    },
    {
      "channel": 4,
      "note": 81,
      "start": 13.4043,
      "duration": 0.1227,
      "velocity": 103,
      "chip": "ym2612"
    },
    {
      "channel": 0,
      "note": 96,
      "start": 13.4433,
      "duration": 0.0828,
      "velocity": 86,
      "chip": "ym2612"
    },
    {
      "channel": 2,
      "note": 98,
      "start": 13.477,
      "duration": 0.0659,
      "velocity": 86,
      "chip": "ym2612"
    },
    {
      "channel": 0,
      "note": 94,
      "start": 13.5602,
      "duration": 0.0118,
      "velocity": 86,
      "chip": "ym2612"
    },
    {
      "channel": 1,
      "note": 52,
      "start": 13.561,
      "duration": 0.1237,
      "velocity": 113,
      "chip": "ym2612"
    },
    {
      "channel": 3,
      "note": 71,
      "start": 13.5618,
      "duration": 0.1235,
      "velocity": 103,
      "chip": "ym2612"
    },
    {
      "channel": 4,
      "note": 67,
      "start": 13.5625,
      "duration": 0.123,
      "velocity": 103,
      "chip": "ym2612"
    },
    {
      "channel": 2,
      "note": 96,
      "start": 13.5695,
      "duration": 0.0155,
      "velocity": 86,
      "chip": "ym2612"
    },
    {
      "channel": 0,
      "note": 95,
      "start": 13.5727,
      "duration": 0.5282,
      "velocity": 86,
      "chip": "ym2612"
    },
    {
      "channel": 2,
      "note": 94,
      "start": 13.6357,
      "duration": 0.0326,
      "velocity": 86,
      "chip": "ym2612"
    },
    {
      "channel": 2,
      "note": 95,
      "start": 13.6689,
      "duration": 0.4909,
      "velocity": 86,
      "chip": "ym2612"
    },
    {
      "channel": 1,
      "note": 52,
      "start": 13.7186,
      "duration": 0.0495,
      "velocity": 113,
      "chip": "ym2612"
    },
    {
      "channel": 3,
      "note": 74,
      "start": 13.7196,
      "duration": 0.0822,
      "velocity": 103,
      "chip": "ym2612"
    },
    {
      "channel": 4,
      "note": 71,
      "start": 13.7204,
      "duration": 0.0818,
      "velocity": 103,
      "chip": "ym2612"
    },
    {
      "channel": 1,
      "note": 64,
      "start": 13.8355,
      "duration": 0.0826,
      "velocity": 113,
      "chip": "ym2612"
    },
    {
      "channel": 3,
      "note": 71,
      "start": 13.8365,
      "duration": 0.1338,
      "velocity": 103,
      "chip": "ym2612"
    },
    {
      "channel": 4,
      "note": 67,
      "start": 13.8373,
      "duration": 0.1333,
      "velocity": 103,
      "chip": "ym2612"
    },
    {
      "channel": 1,
      "note": 52,
      "start": 13.977,
      "duration": 0.0191,
      "velocity": 113,
      "chip": "ym2612"
    },
    {
      "channel": 3,
      "note": 74,
      "start": 13.9781,
      "duration": 0.1236,
      "velocity": 103,
      "chip": "ym2612"
    },
    {
      "channel": 4,
      "note": 71,
      "start": 13.9789,
      "duration": 0.1231,
      "velocity": 103,
      "chip": "ym2612"
    },
    {
      "channel": 0,
      "note": 91,
      "start": 14.1351,
      "duration": 0.6819,
      "velocity": 86,
      "chip": "ym2612"
    },
    {
      "channel": 1,
      "note": 52,
      "start": 14.1358,
      "duration": 0.0184,
      "velocity": 113,
      "chip": "ym2612"
    },
    {
      "channel": 3,
      "note": 71,
      "start": 14.137,
      "duration": 0.018,
      "velocity": 103,
      "chip": "ym2612"
    },
    {
      "channel": 4,
      "note": 67,
      "start": 14.1377,
      "duration": 0.0176,
      "velocity": 103,
      "chip": "ym2612"
    },
    {
      "channel": 2,
      "note": 91,
      "start": 14.2104,
      "duration": 0.6776,
      "velocity": 86,
      "chip": "ym2612"
    },
    {
      "channel": 1,
      "note": 64,
      "start": 14.2938,
      "duration": 0.0828,
      "velocity": 113,
      "chip": "ym2612"
    },
    {
      "channel": 1,
      "note": 52,
      "start": 14.4104,
      "duration": 0.2888,
      "velocity": 113,
      "chip": "ym2612"
    },
    {
      "channel": 3,
      "note": 79,
      "start": 14.4115,
      "duration": 0.0824,
      "velocity": 103,
      "chip": "ym2612"
    },
    {
      "channel": 4,
      "note": 76,
      "start": 14.4122,
      "duration": 0.0819,
      "velocity": 103,
      "chip": "ym2612"
    },
    {
      "channel": 3,
      "note": 79,
      "start": 14.5445,
      "duration": 0.0661,
      "velocity": 103,
      "chip": "ym2612"
    },
    {
      "channel": 4,
      "note": 76,
      "start": 14.5452,
      "duration": 0.0656,
      "velocity": 103,
      "chip": "ym2612"
    },
    {
      "channel": 3,
      "note": 81,
      "start": 14.6848,
      "duration": 0.0082,
      "velocity": 103,
      "chip": "ym2612"
    },
    {
      "channel": 4,
      "note": 77,
      "start": 14.6856,
      "duration": 0.0078,
      "velocity": 103,
      "chip": "ym2612"
    },
    {
      "channel": 1,
      "note": 52,
      "start": 14.7097,
      "duration": 0.0163,
      "velocity": 113,
      "chip": "ym2612"
    },
    {
      "channel": 3,
      "note": 83,
      "start": 14.7109,
      "duration": 0.1069,
      "velocity": 103,
      "chip": "ym2612"
    },
    {
      "channel": 4,
      "note": 79,
      "start": 14.7116,
      "duration": 0.1065,
      "velocity": 103,
      "chip": "ym2612"
    },
    {
      "channel": 0,
      "note": 94,
      "start": 14.868,
      "duration": 0.0086,
      "velocity": 86,
      "chip": "ym2612"
    },
    {
      "channel": 1,
      "note": 55,
      "start": 14.8687,
      "duration": 0.107,
      "velocity": 113,
      "chip": "ym2612"
    },
    {
      "channel": 3,
      "note": 71,
      "start": 14.8698,
      "duration": 0.1065,
      "velocity": 103,
      "chip": "ym2612"
    },
    {
      "channel": 4,
      "note": 67,
      "start": 14.8705,
      "duration": 0.1061,
      "velocity": 103,
      "chip": "ym2612"
    },
    {
      "channel": 0,
      "note": 95,
      "start": 14.8772,
      "duration": 0.0983,
      "velocity": 86,
      "chip": "ym2612"
    },
    {
      "channel": 2,
      "note": 94,
      "start": 14.9266,
      "duration": 0.0327,
      "velocity": 86,
      "chip": "ym2612"
    },
    {
      "channel": 2,
      "note": 95,
      "start": 14.9599,
      "duration": 0.149,
      "velocity": 86,
      "chip": "ym2612"
    },
    {
      "channel": 0,
      "note": 96,
      "start": 15.026,
      "duration": 0.0661,
      "velocity": 86,
      "chip": "ym2612"
    },
    {
      "channel": 1,
      "note": 55,
      "start": 15.0268,
      "duration": 0.0322,
      "velocity": 113,
      "chip": "ym2612"
    },
    {
      "channel": 3,
      "note": 69,
      "start": 15.0278,
      "duration": 0.0649,
      "velocity": 103,
      "chip": "ym2612"
    },
    {
      "channel": 4,
      "note": 65,
      "start": 15.0285,
      "duration": 0.0646,
      "velocity": 103,
      "chip": "ym2612"
    },
    {
      "channel": 0,
      "note": 97,
      "start": 15.1427,
      "duration": 0.0328,
      "velocity": 86,
      "chip": "ym2612"
    },
    {
      "channel": 1,
      "note": 67,
      "start": 15.1434,
      "duration": 0.0656,
      "velocity": 113,
      "chip": "ym2612"
    },
    {
      "channel": 3,
      "note": 71,
      "start": 15.1442,
      "duration": 0.1297,
      "velocity": 103,
      "chip": "ym2612"
    },
    {
      "channel": 4,
      "note": 67,
      "start": 15.145,
      "duration": 0.1292,
      "velocity": 103,
      "chip": "ym2612"
    },
    {
      "channel": 2,
      "note": 96,
      "start": 15.1599,
      "duration": 0.0658,
      "velocity": 86,
      "chip": "ym2612"
    },
    {
      "channel": 0,
      "note": 98,
      "start": 15.176,
      "duration": 0.0972,
      "velocity": 86,
      "chip": "ym2612"
    },
    {
      "channel": 2,
      "note": 97,
      "start": 15.2633,
      "duration": 0.0064,
      "velocity": 86,
      "chip": "ym2612"
    },
    {
      "channel": 2,
      "note": 98,
      "start": 15.2703,
      "duration": 0.0313,
      "velocity": 86,
      "chip": "ym2612"
    },
    {
      "channel": 0,
      "note": 91,
      "start": 15.283,
      "duration": 0.1076,
      "velocity": 86,
      "chip": "ym2612"
    },
    {
      "channel": 1,
      "note": 55,
      "start": 15.2837,
      "duration": 0.0145,
      "velocity": 113,
      "chip": "ym2612"
    },
    {
      "channel": 3,
      "note": 69,
      "start": 15.2847,
      "duration": 0.1065,
      "velocity": 103,
      "chip": "ym2612"
    },
    {
      "channel": 4,
      "note": 65,
      "start": 15.2855,
      "duration": 0.106,
      "velocity": 103,
      "chip": "ym2612"
    },
    {
      "channel": 2,
      "note": 91,
      "start": 15.3415,
      "duration": 0.1245,
      "velocity": 86,
      "chip": "ym2612"
    },
    {
      "channel": 0,
      "note": 98,
      "start": 15.4414,
      "duration": 0.0081,
      "velocity": 86,
      "chip": "ym2612"
    },
    {
      "channel": 1,
      "note": 55,
      "start": 15.4421,
      "duration": 0.0149,
      "velocity": 113,
      "chip": "ym2612"
    },
    {
      "channel": 3,
      "note": 71,
      "start": 15.4431,
      "duration": 0.0145,
      "velocity": 103,
      "chip": "ym2612"
    },
    {
      "channel": 4,
      "note": 67,
      "start": 15.4439,
      "duration": 0.014,
      "velocity": 103,
      "chip": "ym2612"
    },
    {
      "channel": 0,
      "note": 98,
      "start": 15.45,
      "duration": 0.5375,
      "velocity": 86,
      "chip": "ym2612"
    },
    {
      "channel": 2,
      "note": 98,
      "start": 15.4999,
      "duration": 0.0327,
      "velocity": 86,
      "chip": "ym2612"
    },
    {
      "channel": 2,
      "note": 98,
      "start": 15.5333,
      "duration": 0.4887,
      "velocity": 86,
      "chip": "ym2612"
    },
    {
      "channel": 1,
      "note": 67,
      "start": 15.5999,
      "duration": 0.0662,
      "velocity": 113,
      "chip": "ym2612"
    },
    {
      "channel": 1,
      "note": 55,
      "start": 15.7166,
      "duration": 0.2465,
      "velocity": 113,
      "chip": "ym2612"
    },
    {
      "channel": 3,
      "note": 83,
      "start": 15.7176,
      "duration": 0.0658,
      "velocity": 103,
      "chip": "ym2612"
    },
    {
      "channel": 4,
      "note": 79,
      "start": 15.7184,
      "duration": 0.0653,
      "velocity": 103,
      "chip": "ym2612"
    },
    {
      "channel": 3,
      "note": 83,
      "start": 15.834,
      "duration": 0.0661,
      "velocity": 103,
      "chip": "ym2612"
    },
    {
      "channel": 4,
      "note": 79,
      "start": 15.8347,
      "duration": 0.0656,
      "velocity": 103,
      "chip": "ym2612"
    },
    {
      "channel": 1,
      "note": 55,
      "start": 15.9727,
      "duration": 0.0086,
      "velocity": 113,
      "chip": "ym2612"
    },
    {
      "channel": 3,
      "note": 84,
      "start": 15.9738,
      "duration": 0.0081,
      "velocity": 103,
      "chip": "ym2612"
    },
    {
      "channel": 4,
      "note": 81,
      "start": 15.9746,
      "duration": 0.0077,
      "velocity": 103,
      "chip": "ym2612"
    },
    {
      "channel": 0,
      "note": 96,
      "start": 15.9975,
      "duration": 0.0164,
      "velocity": 86,
      "chip": "ym2612"
    },
    {
      "channel": 1,
      "note": 55,
      "start": 15.9982,
      "duration": 0.0159,
      "velocity": 113,
      "chip": "ym2612"
    },
    {
      "channel": 3,
      "note": 86,
      "start": 15.9993,
      "duration": 0.1065,
      "velocity": 103,
      "chip": "ym2612"
    },
    {
      "channel": 4,
      "note": 83,
      "start": 16.0001,
      "duration": 0.106,
      "velocity": 103,
      "chip": "ym2612"
    },
    {
      "channel": 0,
      "note": 95,
      "start": 16.0391,
      "duration": 0.0661,
      "velocity": 86,
      "chip": "ym2612"
    },
    {
      "channel": 2,
      "note": 96,
      "start": 16.0561,
      "duration": 0.0825,
      "velocity": 86,
      "chip": "ym2612"
    },
    {
      "channel": 0,
      "note": 93,
      "start": 16.1557,
      "duration": 0.366,
      "velocity": 86,
      "chip": "ym2612"
    },
    {
      "channel": 2,
      "note": 95,
      "start": 16.1728,
      "duration": 0.0827,
      "velocity": 86,
      "chip": "ym2612"
    },
    {
      "channel": 1,
      "note": 57,
      "start": 16.2729,
      "duration": 0.0154,
      "velocity": 113,
      "chip": "ym2612"
    },
    {
      "channel": 3,
      "note": 79,
      "start": 16.2737,
      "duration": 0.0152,
      "velocity": 103,
      "chip": "ym2612"
    },
    {
      "channel": 4,
      "note": 76,
      "start": 16.2744,
      "duration": 0.0148,
      "velocity": 103,
      "chip": "ym2612"
    },
    {
      "channel": 2,
      "note": 93,
      "start": 16.2782,
      "duration": 0.2659,
      "velocity": 86,
      "chip": "ym2612"
    },
    {
      "channel": 1,
      "note": 57,
      "start": 16.4232,
      "duration": 0.0199,
      "velocity": 113,
      "chip": "ym2612"
    },
    {
      "channel": 3,
      "note": 79,
      "start": 16.4244,
      "duration": 0.0441,
      "velocity": 103,
      "chip": "ym2612"
    },
    {
      "channel": 4,
      "note": 74,
      "start": 16.4252,
      "duration": 0.0437,
      "velocity": 103,
      "chip": "ym2612"
    },
    {
      "channel": 1,
      "note": 69,
      "start": 16.4753,
      "duration": 0.0197,
      "velocity": 113,
      "chip": "ym2612"
    },
    {
      "channel": 3,
      "note": 79,
      "start": 16.4765,
      "duration": 0.0192,
      "velocity": 103,
      "chip": "ym2612"
    },
    {
      "channel": 4,
      "note": 74,
      "start": 16.4773,
      "duration": 0.0188,
      "velocity": 103,
      "chip": "ym2612"
    },
    {
      "channel": 1,
      "note": 57,
      "start": 16.5026,
      "duration": 0.0195,
      "velocity": 113,
      "chip": "ym2612"
    },
    {
      "channel": 3,
      "note": 79,
      "start": 16.5038,
      "duration": 0.019,
      "velocity": 103,
      "chip": "ym2612"
    },
    {
      "channel": 4,
      "note": 76,
      "start": 16.5045,
      "duration": 0.0185,
      "velocity": 103,
      "chip": "ym2612"
    },
    {
      "channel": 0,
      "note": 95,
      "start": 16.5483,
      "duration": 0.116,
      "velocity": 86,
      "chip": "ym2612"
    },
    {
      "channel": 1,
      "note": 69,
      "start": 16.549,
      "duration": 0.1155,
      "velocity": 113,
      "chip": "ym2612"
    },
    {
      "channel": 3,
      "note": 79,
      "start": 16.5498,
      "duration": 0.1154,
      "velocity": 103,
      "chip": "ym2612"
    },
    {
      "channel": 4,
      "note": 71,
      "start": 16.5505,
      "duration": 0.1149,
      "velocity": 103,
      "chip": "ym2612"
    },
    {
      "channel": 2,
      "note": 95,
      "start": 16.5771,
      "duration": 0.145,
      "velocity": 86,
      "chip": "ym2612"
    },
    {
      "channel": 0,
      "note": 96,
      "start": 16.6985,
      "duration": 0.0451,
      "velocity": 86,
      "chip": "ym2612"
    },
    {
      "channel": 1,
      "note": 57,
      "start": 16.6992,
      "duration": 0.0446,
      "velocity": 113,
      "chip": "ym2612"
    },
    {
      "channel": 3,
      "note": 72,
      "start": 16.7002,
      "duration": 0.0442,
      "velocity": 103,
      "chip": "ym2612"
    },
    {
      "channel": 4,
      "note": 69,
      "start": 16.7009,
      "duration": 0.0438,
      "velocity": 103,
      "chip": "ym2612"
    },
    {
      "channel": 2,
      "note": 96,
      "start": 16.7298,
      "duration": 0.0438,
      "velocity": 86,
      "chip": "ym2612"
    },
    {
      "channel": 0,
      "note": 98,
      "start": 16.7505,
      "duration": 0.0451,
      "velocity": 86,
      "chip": "ym2612"
    },
    {
      "channel": 1,
      "note": 69,
      "start": 16.7513,
      "duration": 0.0446,
      "velocity": 113,
      "chip": "ym2612"
    },
    {
      "channel": 3,
      "note": 74,
      "start": 16.7523,
      "duration": 0.0442,
      "velocity": 103,
      "chip": "ym2612"
    },
    {
      "channel": 4,
      "note": 71,
      "start": 16.7531,
      "duration": 0.0437,
      "velocity": 103,
      "chip": "ym2612"
    },
    {
      "channel": 2,
      "note": 98,
      "start": 16.7818,
      "duration": 0.0456,
      "velocity": 86,
      "chip": "ym2612"
    },
    {
      "channel": 0,
      "note": 95,
      "start": 16.8027,
      "duration": 0.0083,
      "velocity": 86,
      "chip": "ym2612"
    },
    {
      "channel": 1,
      "note": 53,
      "start": 16.8034,
      "duration": 0.1237,
      "velocity": 113,
      "chip": "ym2612"
    },
    {
      "channel": 3,
      "note": 72,
      "start": 16.8045,
      "duration": 0.1232,
      "velocity": 103,
      "chip": "ym2612"
    },
    {
      "channel": 4,
      "note": 69,
      "start": 16.8052,
      "duration": 0.1228,
      "velocity": 103,
      "chip": "ym2612"
    },
    {
      "channel": 0,
      "note": 96,
      "start": 16.8116,
      "duration": 0.1152,
      "velocity": 86,
      "chip": "ym2612"
    },
    {
      "channel": 2,
      "note": 95,
      "start": 16.8613,
      "duration": 0.0494,
      "velocity": 86,
      "chip": "ym2612"
    },
    {
      "channel": 2,
      "note": 96,
      "start": 16.9113,
      "duration": 0.149,
      "velocity": 86,
      "chip": "ym2612"
    },
    {
      "channel": 0,
      "note": 98,
      "start": 16.9607,
      "duration": 0.0828,
      "velocity": 86,
      "chip": "ym2612"
    },
    {
      "channel": 1,
      "note": 53,
      "start": 16.9615,
      "duration": 0.0322,
      "velocity": 113,
      "chip": "ym2612"
    },
    {
      "channel": 3,
      "note": 71,
      "start": 16.9625,
      "duration": 0.0816,
      "velocity": 103,
      "chip": "ym2612"
    },
    {
      "channel": 4,
      "note": 67,
      "start": 16.9632,
      "duration": 0.0812,
      "velocity": 103,
      "chip": "ym2612"
    },
    {
      "channel": 0,
      "note": 99,
      "start": 17.0774,
      "duration": 0.0328,
      "velocity": 86,
      "chip": "ym2612"
    },
    {
      "channel": 1,
      "note": 65,
      "start": 17.0782,
      "duration": 0.0822,
      "velocity": 113,
      "chip": "ym2612"
    },
    {
      "channel": 3,
      "note": 72,
      "start": 17.0789,
      "duration": 0.1333,
      "velocity": 103,
      "chip": "ym2612"
    },
    {
      "channel": 4,
      "note": 69,
      "start": 17.0797,
      "duration": 0.1328,
      "velocity": 103,
      "chip": "ym2612"
    },
    {
      "channel": 2,
      "note": 98,
      "start": 17.0946,
      "duration": 0.0825,
      "velocity": 86,
      "chip": "ym2612"
    },
    {
      "channel": 0,
      "note": 100,
      "start": 17.1107,
      "duration": 0.1008,
      "velocity": 86,
      "chip": "ym2612"
    },
    {
      "channel": 2,
      "note": 99,
      "start": 17.198,
      "duration": 0.0098,
      "velocity": 86,
      "chip": "ym2612"
    },
    {
      "channel": 2,
      "note": 100,
      "start": 17.2085,
      "duration": 0.0351,
      "velocity": 86,
      "chip": "ym2612"
    },
    {
      "channel": 0,
      "note": 93,
      "start": 17.219,
      "duration": 0.1242,
      "velocity": 86,
      "chip": "ym2612"
    },
    {
      "channel": 1,
      "note": 53,
      "start": 17.2198,
      "duration": 0.0179,
      "velocity": 113,
      "chip": "ym2612"
    },
    {
      "channel": 3,
      "note": 71,
      "start": 17.2207,
      "duration": 0.1232,
      "velocity": 103,
      "chip": "ym2612"
    },
    {
      "channel": 4,
      "note": 67,
      "start": 17.2215,
      "duration": 0.1227,
      "velocity": 103,
      "chip": "ym2612"
    },
    {
      "channel": 2,
      "note": 93,
      "start": 17.2776,
      "duration": 0.1245,
      "velocity": 86,
      "chip": "ym2612"
    },
    {
      "channel": 0,
      "note": 100,
      "start": 17.3774,
      "duration": 0.551,
      "velocity": 86,
      "chip": "ym2612"
    },
    {
      "channel": 1,
      "note": 53,
      "start": 17.3781,
      "duration": 0.0179,
      "velocity": 113,
      "chip": "ym2612"
    },
    {
      "channel": 3,
      "note": 72,
      "start": 17.3791,
      "duration": 0.0175,
      "velocity": 103,
      "chip": "ym2612"
    },
    {
      "channel": 4,
      "note": 69,
      "start": 17.3799,
      "duration": 0.017,
      "velocity": 103,
      "chip": "ym2612"
    },
    {
      "channel": 2,
      "note": 100,
      "start": 17.436,
      "duration": 0.5234,
      "velocity": 86,
      "chip": "ym2612"
    },
    {
      "channel": 1,
      "note": 65,
      "start": 17.536,
      "duration": 0.0828,
      "velocity": 113,
      "chip": "ym2612"
    },
    {
      "channel": 1,
      "note": 53,
      "start": 17.6527,
      "duration": 0.2761,
      "velocity": 113,
      "chip": "ym2612"
    },
    {
      "channel": 3,
      "note": 81,
      "start": 17.6537,
      "duration": 0.0824,
      "velocity": 103,
      "chip": "ym2612"
    },
    {
      "channel": 4,
      "note": 77,
      "start": 17.6545,
      "duration": 0.0819,
      "velocity": 103,
      "chip": "ym2612"
    },
    {
      "channel": 3,
      "note": 81,
      "start": 17.7701,
      "duration": 0.0827,
      "velocity": 103,
      "chip": "ym2612"
    },
    {
      "channel": 4,
      "note": 77,
      "start": 17.7708,
      "duration": 0.0822,
      "velocity": 103,
      "chip": "ym2612"
    },
    {
      "channel": 3,
      "note": 83,
      "start": 17.9103,
      "duration": 0.0121,
      "velocity": 103,
      "chip": "ym2612"
    },
    {
      "channel": 4,
      "note": 79,
      "start": 17.9111,
      "duration": 0.0117,
      "velocity": 103,
      "chip": "ym2612"
    },
    {
      "channel": 0,
      "note": 98,
      "start": 17.935,
      "duration": 0.0199,
      "velocity": 86,
      "chip": "ym2612"
    },
    {
      "channel": 1,
      "note": 53,
      "start": 17.9357,
      "duration": 0.0195,
      "velocity": 113,
      "chip": "ym2612"
    },
    {
      "channel": 3,
      "note": 84,
      "start": 17.9369,
      "duration": 0.1231,
      "velocity": 103,
      "chip": "ym2612"
    },
    {
      "channel": 4,
      "note": 81,
      "start": 17.9376,
      "duration": 0.1226,
      "velocity": 103,
      "chip": "ym2612"
    },
    {
      "channel": 0,
      "note": 96,
      "start": 17.9765,
      "duration": 0.0828,
      "velocity": 86,
      "chip": "ym2612"
    },
    {
      "channel": 2,
      "note": 98,
      "start": 17.9936,
      "duration": 0.0825,
      "velocity": 86,
      "chip": "ym2612"
    },
    {
      "channel": 0,
      "note": 94,
      "start": 18.0935,
      "duration": 0.0121,
      "velocity": 86,
      "chip": "ym2612"
    },
    {
      "channel": 1,
      "note": 52,
      "start": 18.0942,
      "duration": 0.1238,
      "velocity": 113,
      "chip": "ym2612"
    },
    {
      "channel": 3,
      "note": 71,
      "start": 18.095,
      "duration": 0.1236,
      "velocity": 103,
      "chip": "ym2612"
    },
    {
      "channel": 4,
      "note": 67,
      "start": 18.0958,
      "duration": 0.1231,
      "velocity": 103,
      "chip": "ym2612"
    },
    {
      "channel": 2,
      "note": 96,
      "start": 18.0995,
      "duration": 0.0188,
      "velocity": 86,
      "chip": "ym2612"
    },
    {
      "channel": 0,
      "note": 95,
      "start": 18.1062,
      "duration": 0.528,
      "velocity": 86,
      "chip": "ym2612"
    },
    {
      "channel": 2,
      "note": 94,
      "start": 18.1522,
      "duration": 0.0494,
      "velocity": 86,
      "chip": "ym2612"
    },
    {
      "channel": 2,
      "note": 95,
      "start": 18.2022,
      "duration": 0.4909,
      "velocity": 86,
      "chip": "ym2612"
    },
    {
      "channel": 1,
      "note": 52,
      "start": 18.2519,
      "duration": 0.0495,
      "velocity": 113,
      "chip": "ym2612"
    },
    {
      "channel": 3,
      "note": 74,
      "start": 18.2529,
      "duration": 0.0822,
      "velocity": 103,
      "chip": "ym2612"
    },
    {
      "channel": 4,
      "note": 71,
      "start": 18.2536,
      "duration": 0.0818,
      "velocity": 103,
      "chip": "ym2612"
    },
    {
      "channel": 1,
      "note": 64,
      "start": 18.3686,
      "duration": 0.0828,
      "velocity": 113,
      "chip": "ym2612"
    },
    {
      "channel": 3,
      "note": 71,
      "start": 18.3697,
      "duration": 0.134,
      "velocity": 103,
      "chip": "ym2612"
    },
    {
      "channel": 4,
      "note": 67,
      "start": 18.3704,
      "duration": 0.1335,
      "velocity": 103,
      "chip": "ym2612"
    },
    {
      "channel": 1,
      "note": 52,
      "start": 18.5104,
      "duration": 0.019,
      "velocity": 113,
      "chip": "ym2612"
    },
    {
      "channel": 3,
      "note": 74,
      "start": 18.5115,
      "duration": 0.1235,
      "velocity": 103,
      "chip": "ym2612"
    },
    {
      "channel": 4,
      "note": 71,
      "start": 18.5122,
      "duration": 0.123,
      "velocity": 103,
      "chip": "ym2612"
    },
    {
      "channel": 0,
      "note": 96,
      "start": 18.6684,
      "duration": 0.4744,
      "velocity": 86,
      "chip": "ym2612"
    },
    {
      "channel": 1,
      "note": 52,
      "start": 18.6691,
      "duration": 0.0184,
      "velocity": 113,
      "chip": "ym2612"
    },
    {
      "channel": 3,
      "note": 67,
      "start": 18.6703,
      "duration": 0.018,
      "velocity": 103,
      "chip": "ym2612"
    },
    {
      "channel": 4,
      "note": 64,
      "start": 18.671,
      "duration": 0.0176,
      "velocity": 103,
      "chip": "ym2612"
    },
    {
      "channel": 2,
      "note": 96,
      "start": 18.7437,
      "duration": 0.4512,
      "velocity": 86,
      "chip": "ym2612"
    },
    {
      "channel": 1,
      "note": 64,
      "start": 18.8271,
      "duration": 0.0828,
      "velocity": 113,
      "chip": "ym2612"
    },
    {
      "channel": 1,
      "note": 52,
      "start": 18.9437,
      "duration": 0.2701,
      "velocity": 113,
      "chip": "ym2612"
    },
    {
      "channel": 3,
      "note": 79,
      "start": 18.9448,
      "duration": 0.0824,
      "velocity": 103,
      "chip": "ym2612"
    },
    {
      "channel": 4,
      "note": 76,
      "start": 18.9455,
      "duration": 0.0819,
      "velocity": 103,
      "chip": "ym2612"
    },
    {
      "channel": 3,
      "note": 79,
      "start": 19.0611,
      "duration": 0.0826,
      "velocity": 103,
      "chip": "ym2612"
    },
    {
      "channel": 4,
      "note": 76,
      "start": 19.0619,
      "duration": 0.0822,
      "velocity": 103,
      "chip": "ym2612"
    },
    {
      "channel": 3,
      "note": 84,
      "start": 19.1985,
      "duration": 0.0101,
      "velocity": 103,
      "chip": "ym2612"
    },
    {
      "channel": 4,
      "note": 79,
      "start": 19.1992,
      "duration": 0.0097,
      "velocity": 103,
      "chip": "ym2612"
    },
    {
      "channel": 0,
      "note": 96,
      "start": 19.2195,
      "duration": 0.0182,
      "velocity": 86,
      "chip": "ym2612"
    },
    {
      "channel": 1,
      "note": 52,
      "start": 19.2202,
      "duration": 0.0178,
      "velocity": 113,
      "chip": "ym2612"
    },
    {
      "channel": 3,
      "note": 88,
      "start": 19.221,
      "duration": 0.1234,
      "velocity": 103,
      "chip": "ym2612"
    },
    {
      "channel": 4,
      "note": 84,
      "start": 19.2217,
      "duration": 0.123,
      "velocity": 103,
      "chip": "ym2612"
    },
    {
      "channel": 0,
      "note": 98,
      "start": 19.261,
      "duration": 0.0828,
      "velocity": 86,
      "chip": "ym2612"
    },
    {
      "channel": 2,
      "note": 96,
      "start": 19.2947,
      "duration": 0.0659,
      "velocity": 86,
      "chip": "ym2612"
    },
    {
      "channel": 0,
      "note": 99,
      "start": 19.378,
      "duration": 0.0119,
      "velocity": 86,
      "chip": "ym2612"
    },
    {
      "channel": 1,
      "note": 50,
      "start": 19.3788,
      "duration": 0.1237,
      "velocity": 113,
      "chip": "ym2612"
    },
    {
      "channel": 3,
      "note": 72,
      "start": 19.3796,
      "duration": 0.1235,
      "velocity": 103,
      "chip": "ym2612"
    },
    {
      "channel": 4,
      "note": 67,
      "start": 19.3803,
      "duration": 0.1231,
      "velocity": 103,
      "chip": "ym2612"
    },
    {
      "channel": 2,
      "note": 98,
      "start": 19.3873,
      "duration": 0.0155,
      "velocity": 86,
      "chip": "ym2612"
    },
    {
      "channel": 0,
      "note": 100,
      "start": 19.3905,
      "duration": 0.1117,
      "velocity": 86,
      "chip": "ym2612"
    },
    {
      "channel": 2,
      "note": 99,
      "start": 19.4534,
      "duration": 0.0327,
      "velocity": 86,
      "chip": "ym2612"
    },
    {
      "channel": 2,
      "note": 100,
      "start": 19.4867,
      "duration": 0.149,
      "velocity": 86,
      "chip": "ym2612"
    },
    {
      "channel": 0,
      "note": 96,
      "start": 19.5361,
      "duration": 0.0828,
      "velocity": 86,
      "chip": "ym2612"
    },
    {
      "channel": 1,
      "note": 50,
      "start": 19.5369,
      "duration": 0.0489,
      "velocity": 113,
      "chip": "ym2612"
    },
    {
      "channel": 3,
      "note": 67,
      "start": 19.5379,
      "duration": 0.0816,
      "velocity": 103,
      "chip": "ym2612"
    },
    {
      "channel": 4,
      "note": 64,
      "start": 19.5386,
      "duration": 0.0812,
      "velocity": 103,
      "chip": "ym2612"
    },
    {
      "channel": 0,
      "note": 100,
      "start": 19.6528,
      "duration": 0.1471,
      "velocity": 86,
      "chip": "ym2612"
    },
    {
      "channel": 1,
      "note": 62,
      "start": 19.6535,
      "duration": 0.0822,
      "velocity": 113,
      "chip": "ym2612"
    },
    {
      "channel": 3,
      "note": 72,
      "start": 19.6543,
      "duration": 0.1461,
      "velocity": 103,
      "chip": "ym2612"
    },
    {
      "channel": 4,
      "note": 67,
      "start": 19.6551,
      "duration": 0.1457,
      "velocity": 103,
      "chip": "ym2612"
    },
    {
      "channel": 2,
      "note": 96,
      "start": 19.6867,
      "duration": 0.0658,
      "velocity": 86,
      "chip": "ym2612"
    },
    {
      "channel": 2,
      "note": 100,
      "start": 19.7901,
      "duration": 0.0383,
      "velocity": 86,
      "chip": "ym2612"
    },
    {
      "channel": 0,
      "note": 91,
      "start": 19.8098,
      "duration": 0.1076,
      "velocity": 86,
      "chip": "ym2612"
    },
    {
      "channel": 1,
      "note": 50,
      "start": 19.8105,
      "duration": 0.0144,
      "velocity": 113,
      "chip": "ym2612"
    },
    {
      "channel": 3,
      "note": 67,
      "start": 19.8115,
      "duration": 0.1065,
      "velocity": 103,
      "chip": "ym2612"
    },
    {
      "channel": 4,
      "note": 64,
      "start": 19.8122,
      "duration": 0.1061,
      "velocity": 103,
      "chip": "ym2612"
    },
    {
      "channel": 2,
      "note": 91,
      "start": 19.8683,
      "duration": 0.1185,
      "velocity": 86,
      "chip": "ym2612"
    },
    {
      "channel": 0,
      "note": 93,
      "start": 19.9682,
      "duration": 0.5474,
      "velocity": 86,
      "chip": "ym2612"
    },
    {
      "channel": 1,
      "note": 50,
      "start": 19.9689,
      "duration": 0.0145,
      "velocity": 113,
      "chip": "ym2612"
    },
    {
      "channel": 3,
      "note": 69,
      "start": 19.9699,
      "duration": 0.014,
      "velocity": 103,
      "chip": "ym2612"
    },
    {
      "channel": 4,
      "note": 66,
      "start": 19.9707,
      "duration": 0.0136,
      "velocity": 103,
      "chip": "ym2612"
    },
    {
      "channel": 2,
      "note": 93,
      "start": 20.0267,
      "duration": 0.5185,
      "velocity": 86,
      "chip": "ym2612"
    },
    {
      "channel": 1,
      "note": 62,
      "start": 20.1267,
      "duration": 0.0661,
      "velocity": 113,
      "chip": "ym2612"
    },
    {
      "channel": 1,
      "note": 50,
      "start": 20.2434,
      "duration": 0.2724,
      "velocity": 113,
      "chip": "ym2612"
    },
    {
      "channel": 3,
      "note": 78,
      "start": 20.2444,
      "duration": 0.0658,
      "velocity": 103,
      "chip": "ym2612"
    },
    {
      "channel": 4,
      "note": 74,
      "start": 20.2452,
      "duration": 0.0653,
      "velocity": 103,
      "chip": "ym2612"
    },
    {
      "channel": 3,
      "note": 78,
      "start": 20.3608,
      "duration": 0.0661,
      "velocity": 103,
      "chip": "ym2612"
    },
    {
      "channel": 4,
      "note": 74,
      "start": 20.3615,
      "duration": 0.0656,
      "velocity": 103,
      "chip": "ym2612"
    },
    {
      "channel": 3,
      "note": 81,
      "start": 20.5013,
      "duration": 0.0083,
      "velocity": 103,
      "chip": "ym2612"
    },
    {
      "channel": 4,
      "note": 78,
      "start": 20.5021,
      "duration": 0.0078,
      "velocity": 103,
      "chip": "ym2612"
    },
    {
      "channel": 0,
      "note": 96,
      "start": 20.5258,
      "duration": 0.016,
      "velocity": 86,
      "chip": "ym2612"
    },
    {
      "channel": 1,
      "note": 50,
      "start": 20.5265,
      "duration": 0.0088,
      "velocity": 113,
      "chip": "ym2612"
    },
    {
      "channel": 3,
      "note": 84,
      "start": 20.5276,
      "duration": 0.0556,
      "velocity": 103,
      "chip": "ym2612"
    },
    {
      "channel": 4,
      "note": 81,
      "start": 20.5283,
      "duration": 0.0551,
      "velocity": 103,
      "chip": "ym2612"
    },
    {
      "channel": 0,
      "note": 98,
      "start": 20.5675,
      "duration": 0.0148,
      "velocity": 86,
      "chip": "ym2612"
    },
    {
      "channel": 1,
      "note": 53,
      "start": 20.5682,
      "duration": 0.0144,
      "velocity": 113,
      "chip": "ym2612"
    },
    {
      "channel": 2,
      "note": 96,
      "start": 20.5723,
      "duration": 0.0137,
      "velocity": 86,
      "chip": "ym2612"
    },
    {
      "channel": 0,
      "note": 100,
      "start": 20.6091,
      "duration": 0.4376,
      "velocity": 86,
      "chip": "ym2612"
    },
    {
      "channel": 2,
      "note": 98,
      "start": 20.6261,
      "duration": 0.0827,
      "velocity": 86,
      "chip": "ym2612"
    },
    {
      "channel": 1,
      "note": 53,
      "start": 20.7263,
      "duration": 0.0153,
      "velocity": 113,
      "chip": "ym2612"
    },
    {
      "channel": 3,
      "note": 84,
      "start": 20.7271,
      "duration": 0.0151,
      "velocity": 103,
      "chip": "ym2612"
    },
    {
      "channel": 4,
      "note": 76,
      "start": 20.7278,
      "duration": 0.0146,
      "velocity": 103,
      "chip": "ym2612"
    },
    {
      "channel": 2,
      "note": 100,
      "start": 20.7314,
      "duration": 0.3497,
      "velocity": 86,
      "chip": "ym2612"
    },
    {
      "channel": 1,
      "note": 53,
      "start": 20.8848,
      "duration": 0.0158,
      "velocity": 113,
      "chip": "ym2612"
    },
    {
      "channel": 3,
      "note": 84,
      "start": 20.8858,
      "duration": 0.0154,
      "velocity": 103,
      "chip": "ym2612"
    },
    {
      "channel": 4,
      "note": 76,
      "start": 20.8866,
      "duration": 0.015,
      "velocity": 103,
      "chip": "ym2612"
    },
    {
      "channel": 1,
      "note": 53,
      "start": 20.9485,
      "duration": 0.016,
      "velocity": 113,
      "chip": "ym2612"
    },
    {
      "channel": 3,
      "note": 84,
      "start": 20.9497,
      "duration": 0.0155,
      "velocity": 103,
      "chip": "ym2612"
    },
    {
      "channel": 4,
      "note": 76,
      "start": 20.9504,
      "duration": 0.0151,
      "velocity": 103,
      "chip": "ym2612"
    },
    {
      "channel": 1,
      "note": 53,
      "start": 20.9903,
      "duration": 0.0567,
      "velocity": 113,
      "chip": "ym2612"
    },
    {
      "channel": 3,
      "note": 84,
      "start": 20.9915,
      "duration": 0.0562,
      "velocity": 103,
      "chip": "ym2612"
    },
    {
      "channel": 4,
      "note": 76,
      "start": 20.9923,
      "duration": 0.0557,
      "velocity": 103,
      "chip": "ym2612"
    },
    {
      "channel": 0,
      "note": 98,
      "start": 21.0565,
      "duration": 0.1997,
      "velocity": 86,
      "chip": "ym2612"
    },
    {
      "channel": 1,
      "note": 52,
      "start": 21.0573,
      "duration": 0.0157,
      "velocity": 113,
      "chip": "ym2612"
    },
    {
      "channel": 3,
      "note": 80,
      "start": 21.0584,
      "duration": 0.0154,
      "velocity": 103,
      "chip": "ym2612"
    },
    {
      "channel": 4,
      "note": 74,
      "start": 21.0591,
      "duration": 0.0148,
      "velocity": 103,
      "chip": "ym2612"
    },
    {
      "channel": 1,
      "note": 52,
      "start": 21.0986,
      "duration": 0.0154,
      "velocity": 113,
      "chip": "ym2612"
    },
    {
      "channel": 3,
      "note": 80,
      "start": 21.0994,
      "duration": 0.0152,
      "velocity": 103,
      "chip": "ym2612"
    },
    {
      "channel": 4,
      "note": 74,
      "start": 21.1001,
      "duration": 0.0147,
      "velocity": 103,
      "chip": "ym2612"
    },
    {
      "channel": 2,
      "note": 98,
      "start": 21.1038,
      "duration": 0.1829,
      "velocity": 86,
      "chip": "ym2612"
    },
    {
      "channel": 0,
      "note": 96,
      "start": 21.2568,
      "duration": 0.0087,
      "velocity": 86,
      "chip": "ym2612"
    },
    {
      "channel": 1,
      "note": 52,
      "start": 21.2575,
      "duration": 0.0163,
      "velocity": 113,
      "chip": "ym2612"
    },
    {
      "channel": 3,
      "note": 80,
      "start": 21.2585,
      "duration": 0.016,
      "velocity": 103,
      "chip": "ym2612"
    },
    {
      "channel": 4,
      "note": 74,
      "start": 21.2593,
      "duration": 0.0155,
      "velocity": 103,
      "chip": "ym2612"
    },
    {
      "channel": 0,
      "note": 95,
      "start": 21.2661,
      "duration": 0.0069,
      "velocity": 86,
      "chip": "ym2612"
    },
    {
      "channel": 0,
      "note": 93,
      "start": 21.2737,
      "duration": 0.0092,
      "velocity": 86,
      "chip": "ym2612"
    },
    {
      "channel": 0,
      "note": 91,
      "start": 21.2834,
      "duration": 0.0061,
      "velocity": 86,
      "chip": "ym2612"
    },
    {
      "channel": 2,
      "note": 96,
      "start": 21.2873,
      "duration": 0.0057,
      "velocity": 86,
      "chip": "ym2612"
    },
    {
      "channel": 0,
      "note": 89,
      "start": 21.2901,
      "duration": 0.0085,
      "velocity": 86,
      "chip": "ym2612"
    },
    {
      "channel": 2,
      "note": 95,
      "start": 21.2936,
      "duration": 0.0085,
      "velocity": 86,
      "chip": "ym2612"
    },
    {
      "channel": 0,
      "note": 88,
      "start": 21.2991,
      "duration": 0.0061,
      "velocity": 86,
      "chip": "ym2612"
    },
    {
      "channel": 2,
      "note": 93,
      "start": 21.3027,
      "duration": 0.007,
      "velocity": 86,
      "chip": "ym2612"
    },
    {
      "channel": 0,
      "note": 86,
      "start": 21.3058,
      "duration": 0.0067,
      "velocity": 86,
      "chip": "ym2612"
    },
    {
      "channel": 1,
      "note": 64,
      "start": 21.3066,
      "duration": 0.0164,
      "velocity": 113,
      "chip": "ym2612"
    },
    {
      "channel": 2,
      "note": 91,
      "start": 21.3103,
      "duration": 0.0061,
      "velocity": 86,
      "chip": "ym2612"
    },
    {
      "channel": 0,
      "note": 84,
      "start": 21.3131,
      "duration": 0.0092,
      "velocity": 86,
      "chip": "ym2612"
    },
    {
      "channel": 2,
      "note": 89,
      "start": 21.317,
      "duration": 0.0089,
      "velocity": 86,
      "chip": "ym2612"
    },
    {
      "channel": 0,
      "note": 83,
      "start": 21.3228,
      "duration": 0.0096,
      "velocity": 111,
      "chip": "ym2612"
    },
    {
      "channel": 2,
      "note": 88,
      "start": 21.3266,
      "duration": 0.0117,
      "velocity": 86,
      "chip": "ym2612"
    },
    {
      "channel": 0,
      "note": 93,
      "start": 21.3329,
      "duration": 0.0193,
      "velocity": 111,
      "chip": "ym2612"
    },
    {
      "channel": 1,
      "note": 52,
      "start": 21.3337,
      "duration": 0.0188,
      "velocity": 113,
      "chip": "ym2612"
    },
    {
      "channel": 3,
      "note": 72,
      "start": 21.3347,
      "duration": 0.0184,
      "velocity": 103,
      "chip": "ym2612"
    },
    {
      "channel": 4,
      "note": 69,
      "start": 21.3355,
      "duration": 0.0179,
      "velocity": 103,
      "chip": "ym2612"
    },
    {
      "channel": 2,
      "note": 86,
      "start": 21.3388,
      "duration": 0.0066,
      "velocity": 86,
      "chip": "ym2612"
    },
    {
      "channel": 2,
      "note": 84,
      "start": 21.346,
      "duration": 0.0098,
      "velocity": 86,
      "chip": "ym2612"
    },
    {
      "channel": 2,
      "note": 83,
      "start": 21.3563,
      "duration": 0.011,
      "velocity": 111,
      "chip": "ym2612"
    },
    {
      "channel": 0,
      "note": 95,
      "start": 21.3595,
      "duration": 0.0213,
      "velocity": 111,
      "chip": "ym2612"
    },
    {
      "channel": 1,
      "note": 52,
      "start": 21.3602,
      "duration": 0.0208,
      "velocity": 113,
      "chip": "ym2612"
    },
    {
      "channel": 3,
      "note": 74,
      "start": 21.3612,
      "duration": 0.0205,
      "velocity": 103,
      "chip": "ym2612"
    },
    {
      "channel": 4,
      "note": 71,
      "start": 21.362,
      "duration": 0.02,
      "velocity": 103,
      "chip": "ym2612"
    },
    {
      "channel": 2,
      "note": 93,
      "start": 21.3679,
      "duration": 0.0165,
      "velocity": 111,
      "chip": "ym2612"
    },
    {
      "channel": 0,
      "note": 96,
      "start": 21.3885,
      "duration": 0.1575,
      "velocity": 111,
      "chip": "ym2612"
    },
    {
      "channel": 1,
      "note": 50,
      "start": 21.3893,
      "duration": 0.2407,
      "velocity": 113,
      "chip": "ym2612"
    },
    {
      "channel": 2,
      "note": 95,
      "start": 21.3932,
      "duration": 0.02,
      "velocity": 111,
      "chip": "ym2612"
    },
    {
      "channel": 3,
      "note": 76,
      "start": 21.4305,
      "duration": 0.083,
      "velocity": 103,
      "chip": "ym2612"
    },
    {
      "channel": 4,
      "note": 72,
      "start": 21.4312,
      "duration": 0.0825,
      "velocity": 103,
      "chip": "ym2612"
    },
    {
      "channel": 2,
      "note": 96,
      "start": 21.4471,
      "duration": 0.222,
      "velocity": 111,
      "chip": "ym2612"
    },
    {
      "channel": 0,
      "note": 95,
      "start": 21.5465,
      "duration": 0.0328,
      "velocity": 111,
      "chip": "ym2612"
    },
    {
      "channel": 3,
      "note": 74,
      "start": 21.548,
      "duration": 0.0826,
      "velocity": 103,
      "chip": "ym2612"
    },
    {
      "channel": 4,
      "note": 71,
      "start": 21.5488,
      "duration": 0.0821,
      "velocity": 103,
      "chip": "ym2612"
    },
    {
      "channel": 0,
      "note": 93,
      "start": 21.5798,
      "duration": 0.0494,
      "velocity": 111,
      "chip": "ym2612"
    },
    {
      "channel": 0,
      "note": 91,
      "start": 21.6298,
      "duration": 0.033,
      "velocity": 111,
      "chip": "ym2612"
    },
    {
      "channel": 0,
      "note": 89,
      "start": 21.6634,
      "duration": 0.0089,
      "velocity": 111,
      "chip": "ym2612"
    },
    {
      "channel": 1,
      "note": 50,
      "start": 21.6641,
      "duration": 0.0089,
      "velocity": 113,
      "chip": "ym2612"
    },
    {
      "channel": 3,
      "note": 72,
      "start": 21.6651,
      "duration": 0.0191,
      "velocity": 103,
      "chip": "ym2612"
    },
    {
      "channel": 4,
      "note": 69,
      "start": 21.6659,
      "duration": 0.0186,
      "velocity": 103,
      "chip": "ym2612"
    },
    {
      "channel": 2,
      "note": 95,
      "start": 21.6696,
      "duration": 0.0069,
      "velocity": 111,
      "chip": "ym2612"
    },
    {
      "channel": 0,
      "note": 88,
      "start": 21.6729,
      "duration": 0.0102,
      "velocity": 111,
      "chip": "ym2612"
    },
    {
      "channel": 2,
      "note": 93,
      "start": 21.6772,
      "duration": 0.011,
      "velocity": 111,
      "chip": "ym2612"
    },
    {
      "channel": 0,
      "note": 86,
      "start": 21.6837,
      "duration": 0.021,
      "velocity": 111,
      "chip": "ym2612"
    },
    {
      "channel": 2,
      "note": 91,
      "start": 21.6888,
      "duration": 0.0198,
      "velocity": 111,
      "chip": "ym2612"
    },
    {
      "channel": 0,
      "note": 93,
      "start": 21.7053,
      "duration": 0.0385,
      "velocity": 111,
      "chip": "ym2612"
    },
    {
      "channel": 2,
      "note": 89,
      "start": 21.7093,
      "duration": 0.0053,
      "velocity": 111,
      "chip": "ym2612"
    },
    {
      "channel": 2,
      "note": 88,
      "start": 21.7151,
      "duration": 0.0083,
      "velocity": 111,
      "chip": "ym2612"
    },
    {
      "channel": 2,
      "note": 86,
      "start": 21.7239,
      "duration": 0.0069,
      "velocity": 111,
      "chip": "ym2612"
    },
    {
      "channel": 3,
      "note": 71,
      "start": 21.7274,
      "duration": 0.017,
      "velocity": 103,
      "chip": "ym2612"
    },
    {
      "channel": 4,
      "note": 67,
      "start": 21.7282,
      "duration": 0.0166,
      "velocity": 103,
      "chip": "ym2612"
    },
    {
      "channel": 2,
      "note": 93,
      "start": 21.7315,
      "duration": 0.1068,
      "velocity": 111,
      "chip": "ym2612"
    },
    {
      "channel": 0,
      "note": 96,
      "start": 21.7502,
      "duration": 0.0713,
      "velocity": 111,
      "chip": "ym2612"
    },
    {
      "channel": 3,
      "note": 72,
      "start": 21.7513,
      "duration": 0.0708,
      "velocity": 103,
      "chip": "ym2612"
    },
    {
      "channel": 4,
      "note": 69,
      "start": 21.7521,
      "duration": 0.0704,
      "velocity": 103,
      "chip": "ym2612"
    },
    {
      "channel": 0,
      "note": 97,
      "start": 21.8554,
      "duration": 0.0328,
      "velocity": 111,
      "chip": "ym2612"
    },
    {
      "channel": 3,
      "note": 69,
      "start": 21.8563,
      "duration": 0.0825,
      "velocity": 103,
      "chip": "ym2612"
    },
    {
      "channel": 4,
      "note": 65,
      "start": 21.857,
      "duration": 0.0821,
      "velocity": 103,
      "chip": "ym2612"
    },
    {
      "channel": 2,
      "note": 96,
      "start": 21.8724,
      "duration": 0.0825,
      "velocity": 111,
      "chip": "ym2612"
    },
    {
      "channel": 0,
      "note": 98,
      "start": 21.8887,
      "duration": 0.0494,
      "velocity": 111,
      "chip": "ym2612"
    },
    {
      "channel": 2,
      "note": 97,
      "start": 21.9889,
      "duration": 0.0494,
      "velocity": 111,
      "chip": "ym2612"
    },
    {
      "channel": 2,
      "note": 98,
      "start": 22.0389,
      "duration": 0.0327,
      "velocity": 111,
      "chip": "ym2612"
    },
    {
      "channel": 0,
      "note": 95,
      "start": 22.089,
      "duration": 0.1661,
      "velocity": 111,
      "chip": "ym2612"
    },
    {
      "channel": 1,
      "note": 52,
      "start": 22.0897,
      "duration": 0.0081,
      "velocity": 113,
      "chip": "ym2612"
    },
    {
      "channel": 3,
      "note": 79,
      "start": 22.0905,
      "duration": 0.1655,
      "velocity": 103,
      "chip": "ym2612"
    },
    {
      "channel": 4,
      "note": 74,
      "start": 22.0913,
      "duration": 0.165,
      "velocity": 103,
      "chip": "ym2612"
    },
    {
      "channel": 1,
      "note": 64,
      "start": 22.1311,
      "duration": 0.1242,
      "velocity": 113,
      "chip": "ym2612"
    },
    {
      "channel": 2,
      "note": 95,
      "start": 22.1357,
      "duration": 0.1771,
      "velocity": 111,
      "chip": "ym2612"
    },
    {
      "channel": 0,
      "note": 93,
      "start": 22.2893,
      "duration": 0.0197,
      "velocity": 111,
      "chip": "ym2612"
    },
    {
      "channel": 1,
      "note": 52,
      "start": 22.29,
      "duration": 0.232,
      "velocity": 113,
      "chip": "ym2612"
    },
    {
      "channel": 3,
      "note": 76,
      "start": 22.291,
      "duration": 0.0189,
      "velocity": 103,
      "chip": "ym2612"
    },
    {
      "channel": 4,
      "note": 72,
      "start": 22.2917,
      "duration": 0.0185,
      "velocity": 103,
      "chip": "ym2612"
    },
    {
      "channel": 2,
      "note": 93,
      "start": 22.3193,
      "duration": 0.014,
      "velocity": 111,
      "chip": "ym2612"
    },
    {
      "channel": 0,
      "note": 91,
      "start": 22.3363,
      "duration": 0.069,
      "velocity": 111,
      "chip": "ym2612"
    },
    {
      "channel": 3,
      "note": 74,
      "start": 22.3375,
      "duration": 0.0686,
      "velocity": 103,
      "chip": "ym2612"
    },
    {
      "channel": 4,
      "note": 71,
      "start": 22.3382,
      "duration": 0.0681,
      "velocity": 103,
      "chip": "ym2612"
    },
    {
      "channel": 2,
      "note": 91,
      "start": 22.4564,
      "duration": 0.0824,
      "velocity": 111,
      "chip": "ym2612"
    },
    {
      "channel": 0,
      "note": 87,
      "start": 22.5565,
      "duration": 0.0061,
      "velocity": 111,
      "chip": "ym2612"
    },
    {
      "channel": 1,
      "note": 53,
      "start": 22.5572,
      "duration": 0.2403,
      "velocity": 113,
      "chip": "ym2612"
    },
    {
      "channel": 0,
      "note": 88,
      "start": 22.5631,
      "duration": 0.2866,
      "velocity": 111,
      "chip": "ym2612"
    },
    {
      "channel": 3,
      "note": 83,
      "start": 22.5983,
      "duration": 0.083,
      "velocity": 103,
      "chip": "ym2612"
    },
    {
      "channel": 4,
      "note": 79,
      "start": 22.5991,
      "duration": 0.0825,
      "velocity": 103,
      "chip": "ym2612"
    },
    {
      "channel": 2,
      "note": 87,
      "start": 22.615,
      "duration": 0.0494,
      "velocity": 111,
      "chip": "ym2612"
    },
    {
      "channel": 2,
      "note": 88,
      "start": 22.665,
      "duration": 0.2299,
      "velocity": 111,
      "chip": "ym2612"
    },
    {
      "channel": 3,
      "note": 79,
      "start": 22.7154,
      "duration": 0.0827,
      "velocity": 103,
      "chip": "ym2612"
    },
    {
      "channel": 4,
      "note": 76,
      "start": 22.7161,
      "duration": 0.0823,
      "velocity": 103,
      "chip": "ym2612"
    },
    {
      "channel": 1,
      "note": 53,
      "start": 22.8316,
      "duration": 0.0082,
      "velocity": 113,
      "chip": "ym2612"
    },
    {
      "channel": 3,
      "note": 76,
      "start": 22.8327,
      "duration": 0.0178,
      "velocity": 103,
      "chip": "ym2612"
    },
    {
      "channel": 4,
      "note": 72,
      "start": 22.8334,
      "duration": 0.0174,
      "velocity": 103,
      "chip": "ym2612"
    },
    {
      "channel": 0,
      "note": 87,
      "start": 22.8731,
      "duration": 0.0077,
      "velocity": 111,
      "chip": "ym2612"
    },
    {
      "channel": 3,
      "note": 72,
      "start": 22.8742,
      "duration": 0.1156,
      "velocity": 103,
      "chip": "ym2612"
    },
    {
      "channel": 4,
      "note": 69,
      "start": 22.875,
      "duration": 0.1152,
      "velocity": 103,
      "chip": "ym2612"
    },
    {
      "channel": 0,
      "note": 88,
      "start": 22.8814,
      "duration": 0.0339,
      "velocity": 111,
      "chip": "ym2612"
    },
    {
      "channel": 2,
      "note": 87,
      "start": 22.9018,
      "duration": 0.0098,
      "velocity": 111,
      "chip": "ym2612"
    },
    {
      "channel": 2,
      "note": 88,
      "start": 22.9123,
      "duration": 0.0937,
      "velocity": 111,
      "chip": "ym2612"
    },
    {
      "channel": 0,
      "note": 86,
      "start": 22.9224,
      "duration": 0.0668,
      "velocity": 111,
      "chip": "ym2612"
    },
    {
      "channel": 0,
      "note": 87,
      "start": 23.0231,
      "duration": 0.0494,
      "velocity": 111,
      "chip": "ym2612"
    },
    {
      "channel": 3,
      "note": 71,
      "start": 23.024,
      "duration": 0.6666,
      "velocity": 103,
      "chip": "ym2612"
    },
    {
      "channel": 4,
      "note": 62,
      "start": 23.0248,
      "duration": 0.6662,
      "velocity": 103,
      "chip": "ym2612"
    },
    {
      "channel": 2,
      "note": 86,
      "start": 23.0402,
      "duration": 0.0827,
      "velocity": 111,
      "chip": "ym2612"
    },
    {
      "channel": 0,
      "note": 88,
      "start": 23.0731,
      "duration": 0.4392,
      "velocity": 111,
      "chip": "ym2612"
    },
    {
      "channel": 2,
      "note": 87,
      "start": 23.1568,
      "duration": 0.0494,
      "velocity": 111,
      "chip": "ym2612"
    },
    {
      "channel": 2,
      "note": 88,
      "start": 23.2068,
      "duration": 0.4168,
      "velocity": 111,
      "chip": "ym2612"
    },
    {
      "channel": 1,
      "note": 55,
      "start": 23.257,
      "duration": 0.0119,
      "velocity": 113,
      "chip": "ym2612"
    },
    {
      "channel": 1,
      "note": 67,
      "start": 23.2989,
      "duration": 0.1243,
      "velocity": 113,
      "chip": "ym2612"
    },
    {
      "channel": 1,
      "note": 55,
      "start": 23.4573,
      "duration": 0.0479,
      "velocity": 113,
      "chip": "ym2612"
    },
    {
      "channel": 0,
      "note": 93,
      "start": 23.513,
      "duration": 0.0601,
      "velocity": 111,
      "chip": "ym2612"
    },
    {
      "channel": 1,
      "note": 67,
      "start": 23.5137,
      "duration": 0.1763,
      "velocity": 113,
      "chip": "ym2612"
    },
    {
      "channel": 0,
      "note": 95,
      "start": 23.607,
      "duration": 0.0828,
      "velocity": 111,
      "chip": "ym2612"
    },
    {
      "channel": 2,
      "note": 93,
      "start": 23.6243,
      "duration": 0.0823,
      "velocity": 111,
      "chip": "ym2612"
    },
    {
      "channel": 0,
      "note": 96,
      "start": 23.7243,
      "duration": 0.1573,
      "velocity": 111,
      "chip": "ym2612"
    },
    {
      "channel": 1,
      "note": 50,
      "start": 23.725,
      "duration": 0.2406,
      "velocity": 113,
      "chip": "ym2612"
    },
    {
      "channel": 2,
      "note": 95,
      "start": 23.7288,
      "duration": 0.02,
      "velocity": 111,
      "chip": "ym2612"
    },
    {
      "channel": 3,
      "note": 76,
      "start": 23.7661,
      "duration": 0.083,
      "velocity": 103,
      "chip": "ym2612"
    },
    {
      "channel": 4,
      "note": 72,
      "start": 23.7669,
      "duration": 0.0825,
      "velocity": 103,
      "chip": "ym2612"
    },
    {
      "channel": 2,
      "note": 96,
      "start": 23.7994,
      "duration": 0.2087,
      "velocity": 111,
      "chip": "ym2612"
    },
    {
      "channel": 0,
      "note": 95,
      "start": 23.8821,
      "duration": 0.0494,
      "velocity": 111,
      "chip": "ym2612"
    },
    {
      "channel": 3,
      "note": 74,
      "start": 23.8836,
      "duration": 0.0826,
      "velocity": 103,
      "chip": "ym2612"
    },
    {
      "channel": 4,
      "note": 71,
      "start": 23.8844,
      "duration": 0.0821,
      "velocity": 103,
      "chip": "ym2612"
    },
    {
      "channel": 0,
      "note": 93,
      "start": 23.9321,
      "duration": 0.0328,
      "velocity": 111,
      "chip": "ym2612"
    },
    {
      "channel": 0,
      "note": 91,
      "start": 23.9655,
      "duration": 0.033,
      "velocity": 111,
      "chip": "ym2612"
    },
    {
      "channel": 0,
      "note": 89,
      "start": 23.9991,
      "duration": 0.0124,
      "velocity": 111,
      "chip": "ym2612"
    },
    {
      "channel": 1,
      "note": 50,
      "start": 23.9998,
      "duration": 0.0124,
      "velocity": 113,
      "chip": "ym2612"
    },
    {
      "channel": 3,
      "note": 72,
      "start": 24.0008,
      "duration": 0.0193,
      "velocity": 103,
      "chip": "ym2612"
    },
    {
      "channel": 4,
      "note": 69,
      "start": 24.0015,
      "duration": 0.0188,
      "velocity": 103,
      "chip": "ym2612"
    },
    {
      "channel": 2,
      "note": 95,
      "start": 24.0087,
      "duration": 0.0069,
      "velocity": 111,
      "chip": "ym2612"
    },
    {
      "channel": 0,
      "note": 88,
      "start": 24.012,
      "duration": 0.007,
      "velocity": 111,
      "chip": "ym2612"
    },
    {
      "channel": 2,
      "note": 93,
      "start": 24.0163,
      "duration": 0.0075,
      "velocity": 111,
      "chip": "ym2612"
    },
    {
      "channel": 0,
      "note": 86,
      "start": 24.0195,
      "duration": 0.0208,
      "velocity": 111,
      "chip": "ym2612"
    },
    {
      "channel": 2,
      "note": 91,
      "start": 24.0244,
      "duration": 0.0226,
      "velocity": 111,
      "chip": "ym2612"
    },
    {
      "channel": 0,
      "note": 93,
      "start": 24.0409,
      "duration": 0.0383,
      "velocity": 111,
      "chip": "ym2612"
    },
    {
      "channel": 2,
      "note": 89,
      "start": 24.0476,
      "duration": 0.0053,
      "velocity": 111,
      "chip": "ym2612"
    },
    {
      "channel": 2,
      "note": 88,
      "start": 24.0535,
      "duration": 0.0054,
      "velocity": 111,
      "chip": "ym2612"
    },
    {
      "channel": 2,
      "note": 86,
      "start": 24.0595,
      "duration": 0.0101,
      "velocity": 111,
      "chip": "ym2612"
    },
    {
      "channel": 3,
      "note": 71,
      "start": 24.0629,
      "duration": 0.017,
      "velocity": 103,
      "chip": "ym2612"
    },
    {
      "channel": 4,
      "note": 67,
      "start": 24.0637,
      "duration": 0.0165,
      "velocity": 103,
      "chip": "ym2612"
    },
    {
      "channel": 2,
      "note": 93,
      "start": 24.0702,
      "duration": 0.1036,
      "velocity": 111,
      "chip": "ym2612"
    },
    {
      "channel": 0,
      "note": 96,
      "start": 24.0856,
      "duration": 0.0714,
      "velocity": 111,
      "chip": "ym2612"
    },
    {
      "channel": 3,
      "note": 72,
      "start": 24.0868,
      "duration": 0.0709,
      "velocity": 103,
      "chip": "ym2612"
    },
    {
      "channel": 4,
      "note": 69,
      "start": 24.0875,
      "duration": 0.0705,
      "velocity": 103,
      "chip": "ym2612"
    },
    {
      "channel": 0,
      "note": 97,
      "start": 24.1909,
      "duration": 0.0494,
      "velocity": 111,
      "chip": "ym2612"
    },
    {
      "channel": 3,
      "note": 69,
      "start": 24.1918,
      "duration": 0.0825,
      "velocity": 103,
      "chip": "ym2612"
    },
    {
      "channel": 4,
      "note": 65,
      "start": 24.1926,
      "duration": 0.0821,
      "velocity": 103,
      "chip": "ym2612"
    },
    {
      "channel": 2,
      "note": 96,
      "start": 24.2246,
      "duration": 0.0659,
      "velocity": 111,
      "chip": "ym2612"
    },
    {
      "channel": 0,
      "note": 98,
      "start": 24.2409,
      "duration": 0.0328,
      "velocity": 111,
      "chip": "ym2612"
    },
    {
      "channel": 2,
      "note": 97,
      "start": 24.3411,
      "duration": 0.0327,
      "velocity": 111,
      "chip": "ym2612"
    },
    {
      "channel": 2,
      "note": 98,
      "start": 24.3745,
      "duration": 0.0327,
      "velocity": 111,
      "chip": "ym2612"
    },
    {
      "channel": 0,
      "note": 95,
      "start": 24.4245,
      "duration": 0.166,
      "velocity": 111,
      "chip": "ym2612"
    },
    {
      "channel": 1,
      "note": 52,
      "start": 24.4252,
      "duration": 0.0115,
      "velocity": 113,
      "chip": "ym2612"
    },
    {
      "channel": 3,
      "note": 80,
      "start": 24.4261,
      "duration": 0.1654,
      "velocity": 103,
      "chip": "ym2612"
    },
    {
      "channel": 4,
      "note": 74,
      "start": 24.4268,
      "duration": 0.1649,
      "velocity": 103,
      "chip": "ym2612"
    },
    {
      "channel": 1,
      "note": 64,
      "start": 24.4666,
      "duration": 0.1242,
      "velocity": 113,
      "chip": "ym2612"
    },
    {
      "channel": 2,
      "note": 95,
      "start": 24.4745,
      "duration": 0.1738,
      "velocity": 111,
      "chip": "ym2612"
    },
    {
      "channel": 0,
      "note": 93,
      "start": 24.6247,
      "duration": 0.0196,
      "velocity": 111,
      "chip": "ym2612"
    },
    {
      "channel": 1,
      "note": 52,
      "start": 24.6254,
      "duration": 0.2321,
      "velocity": 113,
      "chip": "ym2612"
    },
    {
      "channel": 3,
      "note": 76,
      "start": 24.6264,
      "duration": 0.0188,
      "velocity": 103,
      "chip": "ym2612"
    },
    {
      "channel": 4,
      "note": 72,
      "start": 24.6272,
      "duration": 0.0184,
      "velocity": 103,
      "chip": "ym2612"
    },
    {
      "channel": 2,
      "note": 93,
      "start": 24.6572,
      "duration": 0.0111,
      "velocity": 111,
      "chip": "ym2612"
    },
    {
      "channel": 0,
      "note": 92,
      "start": 24.6747,
      "duration": 0.0661,
      "velocity": 111,
      "chip": "ym2612"
    },
    {
      "channel": 3,
      "note": 74,
      "start": 24.6759,
      "duration": 0.0656,
      "velocity": 103,
      "chip": "ym2612"
    },
    {
      "channel": 4,
      "note": 71,
      "start": 24.6767,
      "duration": 0.0651,
      "velocity": 103,
      "chip": "ym2612"
    },
    {
      "channel": 2,
      "note": 92,
      "start": 24.8086,
      "duration": 0.0657,
      "velocity": 111,
      "chip": "ym2612"
    },
    {
      "channel": 0,
      "note": 93,
      "start": 24.9084,
      "duration": 0.174,
      "velocity": 111,
      "chip": "ym2612"
    },
    {
      "channel": 1,
      "note": 57,
      "start": 24.9091,
      "duration": 0.1736,
      "velocity": 113,
      "chip": "ym2612"
    },
    {
      "channel": 3,
      "note": 76,
      "start": 24.91,
      "duration": 0.1997,
      "velocity": 103,
      "chip": "ym2612"
    },
    {
      "channel": 4,
      "note": 72,
      "start": 24.9107,
      "duration": 0.1994,
      "velocity": 103,
      "chip": "ym2612"
    },
    {
      "channel": 2,
      "note": 93,
      "start": 24.9671,
      "duration": 0.1453,
      "velocity": 111,
      "chip": "ym2612"
    },
    {
      "channel": 0,
      "note": 93,
      "start": 25.0932,
      "duration": 0.0158,
      "velocity": 111,
      "chip": "ym2612"
    },
    {
      "channel": 1,
      "note": 69,
      "start": 25.0939,
      "duration": 0.008,
      "velocity": 113,
      "chip": "ym2612"
    },
    {
      "channel": 0,
      "note": 95,
      "start": 25.1188,
      "duration": 0.0563,
      "velocity": 111,
      "chip": "ym2612"
    },
    {
      "channel": 1,
      "note": 55,
      "start": 25.1195,
      "duration": 0.0828,
      "velocity": 113,
      "chip": "ym2612"
    },
    {
      "channel": 3,
      "note": 79,
      "start": 25.1203,
      "duration": 0.0825,
      "velocity": 103,
      "chip": "ym2612"
    },
    {
      "channel": 4,
      "note": 74,
      "start": 25.121,
      "duration": 0.0821,
      "velocity": 103,
      "chip": "ym2612"
    },
    {
      "channel": 2,
      "note": 93,
      "start": 25.1249,
      "duration": 0.0138,
      "velocity": 111,
      "chip": "ym2612"
    },
    {
      "channel": 2,
      "note": 95,
      "start": 25.1648,
      "duration": 0.0407,
      "velocity": 111,
      "chip": "ym2612"
    },
    {
      "channel": 0,
      "note": 93,
      "start": 25.1862,
      "duration": 0.0157,
      "velocity": 111,
      "chip": "ym2612"
    },
    {
      "channel": 0,
      "note": 95,
      "start": 25.2112,
      "duration": 0.0159,
      "velocity": 111,
      "chip": "ym2612"
    },
    {
      "channel": 1,
      "note": 67,
      "start": 25.2119,
      "duration": 0.0088,
      "velocity": 113,
      "chip": "ym2612"
    },
    {
      "channel": 3,
      "note": 79,
      "start": 25.2127,
      "duration": 0.0151,
      "velocity": 103,
      "chip": "ym2612"
    },
    {
      "channel": 4,
      "note": 74,
      "start": 25.2134,
      "duration": 0.0146,
      "velocity": 103,
      "chip": "ym2612"
    },
    {
      "channel": 2,
      "note": 93,
      "start": 25.2174,
      "duration": 0.0131,
      "velocity": 111,
      "chip": "ym2612"
    },
    {
      "channel": 2,
      "note": 95,
      "start": 25.2392,
      "duration": 0.0103,
      "velocity": 111,
      "chip": "ym2612"
    },
    {
      "channel": 0,
      "note": 96,
      "start": 25.2778,
      "duration": 0.0994,
      "velocity": 111,
      "chip": "ym2612"
    },
    {
      "channel": 1,
      "note": 53,
      "start": 25.2785,
      "duration": 0.008,
      "velocity": 113,
      "chip": "ym2612"
    },
    {
      "channel": 3,
      "note": 77,
      "start": 25.2794,
      "duration": 0.0987,
      "velocity": 103,
      "chip": "ym2612"
    },
    {
      "channel": 4,
      "note": 72,
      "start": 25.2801,
      "duration": 0.0982,
      "velocity": 103,
      "chip": "ym2612"
    },
    {
      "channel": 1,
      "note": 65,
      "start": 25.3024,
      "duration": 0.075,
      "velocity": 113,
      "chip": "ym2612"
    },
    {
      "channel": 2,
      "note": 96,
      "start": 25.3069,
      "duration": 0.1452,
      "velocity": 111,
      "chip": "ym2612"
    },
    {
      "channel": 0,
      "note": 98,
      "start": 25.428,
      "duration": 0.0427,
      "velocity": 111,
      "chip": "ym2612"
    },
    {
      "channel": 1,
      "note": 52,
      "start": 25.4288,
      "duration": 0.0422,
      "velocity": 113,
      "chip": "ym2612"
    },
    {
      "channel": 3,
      "note": 76,
      "start": 25.4298,
      "duration": 0.0955,
      "velocity": 103,
      "chip": "ym2612"
    },
    {
      "channel": 4,
      "note": 71,
      "start": 25.4305,
      "duration": 0.0951,
      "velocity": 103,
      "chip": "ym2612"
    },
    {
      "channel": 2,
      "note": 98,
      "start": 25.4595,
      "duration": 0.0452,
      "velocity": 111,
      "chip": "ym2612"
    },
    {
      "channel": 0,
      "note": 93,
      "start": 25.4818,
      "duration": 0.0155,
      "velocity": 111,
      "chip": "ym2612"
    },
    {
      "channel": 1,
      "note": 64,
      "start": 25.4825,
      "duration": 0.0422,
      "velocity": 113,
      "chip": "ym2612"
    },
    {
      "channel": 0,
      "note": 95,
      "start": 25.509,
      "duration": 0.0154,
      "velocity": 111,
      "chip": "ym2612"
    },
    {
      "channel": 2,
      "note": 93,
      "start": 25.5139,
      "duration": 0.0167,
      "velocity": 111,
      "chip": "ym2612"
    },
    {
      "channel": 0,
      "note": 96,
      "start": 25.534,
      "duration": 0.1576,
      "velocity": 111,
      "chip": "ym2612"
    },
    {
      "channel": 1,
      "note": 50,
      "start": 25.5347,
      "duration": 0.2242,
      "velocity": 113,
      "chip": "ym2612"
    },
    {
      "channel": 2,
      "note": 95,
      "start": 25.5386,
      "duration": 0.0202,
      "velocity": 111,
      "chip": "ym2612"
    },
    {
      "channel": 3,
      "note": 76,
      "start": 25.5761,
      "duration": 0.0663,
      "velocity": 103,
      "chip": "ym2612"
    },
    {
      "channel": 4,
      "note": 72,
      "start": 25.5769,
      "duration": 0.0659,
      "velocity": 103,
      "chip": "ym2612"
    },
    {
      "channel": 2,
      "note": 96,
      "start": 25.5927,
      "duration": 0.222,
      "velocity": 111,
      "chip": "ym2612"
    },
    {
      "channel": 0,
      "note": 95,
      "start": 25.6921,
      "duration": 0.0328,
      "velocity": 111,
      "chip": "ym2612"
    },
    {
      "channel": 3,
      "note": 74,
      "start": 25.6936,
      "duration": 0.0659,
      "velocity": 103,
      "chip": "ym2612"
    },
    {
      "channel": 4,
      "note": 71,
      "start": 25.6944,
      "duration": 0.0654,
      "velocity": 103,
      "chip": "ym2612"
    },
    {
      "channel": 0,
      "note": 93,
      "start": 25.7255,
      "duration": 0.0328,
      "velocity": 111,
      "chip": "ym2612"
    },
    {
      "channel": 0,
      "note": 91,
      "start": 25.7588,
      "duration": 0.0496,
      "velocity": 111,
      "chip": "ym2612"
    },
    {
      "channel": 0,
      "note": 89,
      "start": 25.8091,
      "duration": 0.0089,
      "velocity": 111,
      "chip": "ym2612"
    },
    {
      "channel": 1,
      "note": 50,
      "start": 25.8098,
      "duration": 0.0089,
      "velocity": 113,
      "chip": "ym2612"
    },
    {
      "channel": 3,
      "note": 72,
      "start": 25.8108,
      "duration": 0.0158,
      "velocity": 103,
      "chip": "ym2612"
    },
    {
      "channel": 4,
      "note": 69,
      "start": 25.8115,
      "duration": 0.0154,
      "velocity": 103,
      "chip": "ym2612"
    },
    {
      "channel": 2,
      "note": 95,
      "start": 25.8153,
      "duration": 0.0069,
      "velocity": 111,
      "chip": "ym2612"
    },
    {
      "channel": 0,
      "note": 88,
      "start": 25.8185,
      "duration": 0.0069,
      "velocity": 111,
      "chip": "ym2612"
    },
    {
      "channel": 2,
      "note": 93,
      "start": 25.8228,
      "duration": 0.011,
      "velocity": 111,
      "chip": "ym2612"
    },
    {
      "channel": 0,
      "note": 86,
      "start": 25.8261,
      "duration": 0.0242,
      "velocity": 111,
      "chip": "ym2612"
    },
    {
      "channel": 2,
      "note": 91,
      "start": 25.8344,
      "duration": 0.0199,
      "velocity": 111,
      "chip": "ym2612"
    },
    {
      "channel": 0,
      "note": 93,
      "start": 25.851,
      "duration": 0.0385,
      "velocity": 111,
      "chip": "ym2612"
    },
    {
      "channel": 2,
      "note": 89,
      "start": 25.8548,
      "duration": 0.0054,
      "velocity": 111,
      "chip": "ym2612"
    },
    {
      "channel": 2,
      "note": 88,
      "start": 25.8608,
      "duration": 0.0082,
      "velocity": 111,
      "chip": "ym2612"
    },
    {
      "channel": 2,
      "note": 86,
      "start": 25.8696,
      "duration": 0.0069,
      "velocity": 111,
      "chip": "ym2612"
    },
    {
      "channel": 3,
      "note": 71,
      "start": 25.8731,
      "duration": 0.017,
      "velocity": 103,
      "chip": "ym2612"
    },
    {
      "channel": 4,
      "note": 67,
      "start": 25.8738,
      "duration": 0.0166,
      "velocity": 103,
      "chip": "ym2612"
    },
    {
      "channel": 2,
      "note": 93,
      "start": 25.8771,
      "duration": 0.1068,
      "velocity": 111,
      "chip": "ym2612"
    },
    {
      "channel": 0,
      "note": 96,
      "start": 25.8958,
      "duration": 0.0713,
      "velocity": 111,
      "chip": "ym2612"
    },
    {
      "channel": 3,
      "note": 72,
      "start": 25.8969,
      "duration": 0.0708,
      "velocity": 103,
      "chip": "ym2612"
    },
    {
      "channel": 4,
      "note": 69,
      "start": 25.8977,
      "duration": 0.0704,
      "velocity": 103,
      "chip": "ym2612"
    },
    {
      "channel": 0,
      "note": 97,
      "start": 26.001,
      "duration": 0.0328,
      "velocity": 111,
      "chip": "ym2612"
    },
    {
      "channel": 3,
      "note": 69,
      "start": 26.0019,
      "duration": 0.0825,
      "velocity": 103,
      "chip": "ym2612"
    },
    {
      "channel": 4,
      "note": 65,
      "start": 26.0027,
      "duration": 0.0821,
      "velocity": 103,
      "chip": "ym2612"
    },
    {
      "channel": 2,
      "note": 96,
      "start": 26.0181,
      "duration": 0.0825,
      "velocity": 111,
      "chip": "ym2612"
    },
    {
      "channel": 0,
      "note": 98,
      "start": 26.0344,
      "duration": 0.0494,
      "velocity": 111,
      "chip": "ym2612"
    },
    {
      "channel": 2,
      "note": 97,
      "start": 26.1346,
      "duration": 0.0327,
      "velocity": 111,
      "chip": "ym2612"
    },
    {
      "channel": 2,
      "note": 98,
      "start": 26.1679,
      "duration": 0.0494,
      "velocity": 111,
      "chip": "ym2612"
    },
    {
      "channel": 0,
      "note": 95,
      "start": 26.2346,
      "duration": 0.166,
      "velocity": 111,
      "chip": "ym2612"
    },
    {
      "channel": 1,
      "note": 52,
      "start": 26.2353,
      "duration": 0.0081,
      "velocity": 113,
      "chip": "ym2612"
    },
    {
      "channel": 3,
      "note": 79,
      "start": 26.2361,
      "duration": 0.1654,
      "velocity": 103,
      "chip": "ym2612"
    },
    {
      "channel": 4,
      "note": 74,
      "start": 26.2369,
      "duration": 0.1649,
      "velocity": 103,
      "chip": "ym2612"
    },
    {
      "channel": 1,
      "note": 64,
      "start": 26.2767,
      "duration": 0.1242,
      "velocity": 113,
      "chip": "ym2612"
    },
    {
      "channel": 2,
      "note": 95,
      "start": 26.2812,
      "duration": 0.1772,
      "velocity": 111,
      "chip": "ym2612"
    },
    {
      "channel": 0,
      "note": 93,
      "start": 26.4348,
      "duration": 0.0198,
      "velocity": 111,
      "chip": "ym2612"
    },
    {
      "channel": 1,
      "note": 52,
      "start": 26.4355,
      "duration": 0.2322,
      "velocity": 113,
      "chip": "ym2612"
    },
    {
      "channel": 3,
      "note": 76,
      "start": 26.4365,
      "duration": 0.019,
      "velocity": 103,
      "chip": "ym2612"
    },
    {
      "channel": 4,
      "note": 72,
      "start": 26.4373,
      "duration": 0.0185,
      "velocity": 103,
      "chip": "ym2612"
    },
    {
      "channel": 2,
      "note": 93,
      "start": 26.4648,
      "duration": 0.014,
      "velocity": 111,
      "chip": "ym2612"
    },
    {
      "channel": 0,
      "note": 91,
      "start": 26.4818,
      "duration": 0.0691,
      "velocity": 111,
      "chip": "ym2612"
    },
    {
      "channel": 3,
      "note": 74,
      "start": 26.4831,
      "duration": 0.0686,
      "velocity": 103,
      "chip": "ym2612"
    },
    {
      "channel": 4,
      "note": 71,
      "start": 26.4838,
      "duration": 0.0681,
      "velocity": 103,
      "chip": "ym2612"
    },
    {
      "channel": 2,
      "note": 91,
      "start": 26.602,
      "duration": 0.0824,
      "velocity": 111,
      "chip": "ym2612"
    },
    {
      "channel": 0,
      "note": 87,
      "start": 26.7021,
      "duration": 0.0061,
      "velocity": 111,
      "chip": "ym2612"
    },
    {
      "channel": 1,
      "note": 53,
      "start": 26.7028,
      "duration": 0.2403,
      "velocity": 113,
      "chip": "ym2612"
    },
    {
      "channel": 0,
      "note": 88,
      "start": 26.7087,
      "duration": 0.2866,
      "velocity": 111,
      "chip": "ym2612"
    },
    {
      "channel": 3,
      "note": 83,
      "start": 26.7439,
      "duration": 0.083,
      "velocity": 103,
      "chip": "ym2612"
    },
    {
      "channel": 4,
      "note": 79,
      "start": 26.7446,
      "duration": 0.0825,
      "velocity": 103,
      "chip": "ym2612"
    },
    {
      "channel": 2,
      "note": 87,
      "start": 26.7605,
      "duration": 0.0494,
      "velocity": 111,
      "chip": "ym2612"
    },
    {
      "channel": 2,
      "note": 88,
      "start": 26.8105,
      "duration": 0.2299,
      "velocity": 111,
      "chip": "ym2612"
    },
    {
      "channel": 3,
      "note": 79,
      "start": 26.8609,
      "duration": 0.0827,
      "velocity": 103,
      "chip": "ym2612"
    },
    {
      "channel": 4,
      "note": 76,
      "start": 26.8616,
      "duration": 0.0823,
      "velocity": 103,
      "chip": "ym2612"
    },
    {
      "channel": 1,
      "note": 53,
      "start": 26.9772,
      "duration": 0.0082,
      "velocity": 113,
      "chip": "ym2612"
    },
    {
      "channel": 3,
      "note": 76,
      "start": 26.9782,
      "duration": 0.0178,
      "velocity": 103,
      "chip": "ym2612"
    },
    {
      "channel": 4,
      "note": 72,
      "start": 26.9789,
      "duration": 0.0174,
      "velocity": 103,
      "chip": "ym2612"
    },
    {
      "channel": 0,
      "note": 87,
      "start": 27.0186,
      "duration": 0.0077,
      "velocity": 111,
      "chip": "ym2612"
    },
    {
      "channel": 3,
      "note": 72,
      "start": 27.0198,
      "duration": 0.1156,
      "velocity": 103,
      "chip": "ym2612"
    },
    {
      "channel": 4,
      "note": 69,
      "start": 27.0205,
      "duration": 0.1151,
      "velocity": 103,
      "chip": "ym2612"
    },
    {
      "channel": 0,
      "note": 88,
      "start": 27.0269,
      "duration": 0.0339,
      "velocity": 111,
      "chip": "ym2612"
    },
    {
      "channel": 2,
      "note": 87,
      "start": 27.0474,
      "duration": 0.0098,
      "velocity": 111,
      "chip": "ym2612"
    },
    {
      "channel": 2,
      "note": 88,
      "start": 27.0578,
      "duration": 0.0937,
      "velocity": 111,
      "chip": "ym2612"
    },
    {
      "channel": 0,
      "note": 86,
      "start": 27.0679,
      "duration": 0.0668,
      "velocity": 111,
      "chip": "ym2612"
    },
    {
      "channel": 0,
      "note": 87,
      "start": 27.1686,
      "duration": 0.0328,
      "velocity": 111,
      "chip": "ym2612"
    },
    {
      "channel": 3,
      "note": 71,
      "start": 27.1695,
      "duration": 0.6666,
      "velocity": 103,
      "chip": "ym2612"
    },
    {
      "channel": 4,
      "note": 62,
      "start": 27.1703,
      "duration": 0.6661,
      "velocity": 103,
      "chip": "ym2612"
    },
    {
      "channel": 2,
      "note": 86,
      "start": 27.1857,
      "duration": 0.0827,
      "velocity": 111,
      "chip": "ym2612"
    },
    {
      "channel": 0,
      "note": 88,
      "start": 27.202,
      "duration": 0.456,
      "velocity": 111,
      "chip": "ym2612"
    },
    {
      "channel": 2,
      "note": 87,
      "start": 27.3023,
      "duration": 0.0494,
      "velocity": 111,
      "chip": "ym2612"
    },
    {
      "channel": 2,
      "note": 88,
      "start": 27.3523,
      "duration": 0.4168,
      "velocity": 111,
      "chip": "ym2612"
    },
    {
      "channel": 1,
      "note": 55,
      "start": 27.4025,
      "duration": 0.0081,
      "velocity": 113,
      "chip": "ym2612"
    },
    {
      "channel": 1,
      "note": 67,
      "start": 27.4444,
      "duration": 0.1243,
      "velocity": 113,
      "chip": "ym2612"
    },
    {
      "channel": 1,
      "note": 55,
      "start": 27.6029,
      "duration": 0.0479,
      "velocity": 113,
      "chip": "ym2612"
    },
    {
      "channel": 0,
      "note": 93,
      "start": 27.6586,
      "duration": 0.06,
      "velocity": 111,
      "chip": "ym2612"
    },
    {
      "channel": 1,
      "note": 67,
      "start": 27.6593,
      "duration": 0.1762,
      "velocity": 113,
      "chip": "ym2612"
    },
    {
      "channel": 0,
      "note": 95,
      "start": 27.7525,
      "duration": 0.0828,
      "velocity": 111,
      "chip": "ym2612"
    },
    {
      "channel": 2,
      "note": 93,
      "start": 27.7698,
      "duration": 0.0823,
      "velocity": 111,
      "chip": "ym2612"
    },
    {
      "channel": 0,
      "note": 96,
      "start": 27.8696,
      "duration": 0.2408,
      "velocity": 111,
      "chip": "ym2612"
    },
    {
      "channel": 1,
      "note": 53,
      "start": 27.8703,
      "duration": 0.2403,
      "velocity": 113,
      "chip": "ym2612"
    },
    {
      "channel": 2,
      "note": 95,
      "start": 27.8741,
      "duration": 0.0202,
      "velocity": 111,
      "chip": "ym2612"
    },
    {
      "channel": 3,
      "note": 76,
      "start": 27.9116,
      "duration": 0.083,
      "velocity": 103,
      "chip": "ym2612"
    },
    {
      "channel": 4,
      "note": 72,
      "start": 27.9124,
      "duration": 0.0825,
      "velocity": 103,
      "chip": "ym2612"
    },
    {
      "channel": 2,
      "note": 96,
      "start": 27.9282,
      "duration": 0.2408,
      "velocity": 111,
      "chip": "ym2612"
    },
    {
      "channel": 3,
      "note": 74,
      "start": 28.0287,
      "duration": 0.0826,
      "velocity": 103,
      "chip": "ym2612"
    },
    {
      "channel": 4,
      "note": 71,
      "start": 28.0295,
      "duration": 0.0821,
      "velocity": 103,
      "chip": "ym2612"
    },
    {
      "channel": 0,
      "note": 96,
      "start": 28.1446,
      "duration": 0.019,
      "velocity": 111,
      "chip": "ym2612"
    },
    {
      "channel": 1,
      "note": 53,
      "start": 28.1453,
      "duration": 0.0116,
      "velocity": 113,
      "chip": "ym2612"
    },
    {
      "channel": 3,
      "note": 72,
      "start": 28.1463,
      "duration": 0.018,
      "velocity": 103,
      "chip": "ym2612"
    },
    {
      "channel": 4,
      "note": 69,
      "start": 28.1471,
      "duration": 0.0176,
      "velocity": 103,
      "chip": "ym2612"
    },
    {
      "channel": 2,
      "note": 96,
      "start": 28.1893,
      "duration": 0.0127,
      "velocity": 111,
      "chip": "ym2612"
    },
    {
      "channel": 0,
      "note": 95,
      "start": 28.2049,
      "duration": 0.0161,
      "velocity": 111,
      "chip": "ym2612"
    },
    {
      "channel": 3,
      "note": 71,
      "start": 28.2059,
      "duration": 0.0156,
      "velocity": 103,
      "chip": "ym2612"
    },
    {
      "channel": 4,
      "note": 67,
      "start": 28.2066,
      "duration": 0.0151,
      "velocity": 103,
      "chip": "ym2612"
    },
    {
      "channel": 0,
      "note": 96,
      "start": 28.2269,
      "duration": 0.3089,
      "velocity": 111,
      "chip": "ym2612"
    },
    {
      "channel": 3,
      "note": 72,
      "start": 28.2278,
      "duration": 0.0753,
      "velocity": 103,
      "chip": "ym2612"
    },
    {
      "channel": 4,
      "note": 69,
      "start": 28.2285,
      "duration": 0.0749,
      "velocity": 103,
      "chip": "ym2612"
    },
    {
      "channel": 2,
      "note": 95,
      "start": 28.2368,
      "duration": 0.0827,
      "velocity": 111,
      "chip": "ym2612"
    },
    {
      "channel": 3,
      "note": 69,
      "start": 28.3368,
      "duration": 0.0829,
      "velocity": 103,
      "chip": "ym2612"
    },
    {
      "channel": 4,
      "note": 65,
      "start": 28.3376,
      "duration": 0.0825,
      "velocity": 103,
      "chip": "ym2612"
    },
    {
      "channel": 2,
      "note": 96,
      "start": 28.3534,
      "duration": 0.2409,
      "velocity": 111,
      "chip": "ym2612"
    },
    {
      "channel": 0,
      "note": 96,
      "start": 28.57,
      "duration": 0.0179,
      "velocity": 111,
      "chip": "ym2612"
    },
    {
      "channel": 1,
      "note": 50,
      "start": 28.5707,
      "duration": 0.0111,
      "velocity": 113,
      "chip": "ym2612"
    },
    {
      "channel": 3,
      "note": 60,
      "start": 28.5717,
      "duration": 0.017,
      "velocity": 103,
      "chip": "ym2612"
    },
    {
      "channel": 0,
      "note": 98,
      "start": 28.6117,
      "duration": 0.1243,
      "velocity": 111,
      "chip": "ym2612"
    },
    {
      "channel": 1,
      "note": 50,
      "start": 28.6125,
      "duration": 0.1238,
      "velocity": 113,
      "chip": "ym2612"
    },
    {
      "channel": 3,
      "note": 65,
      "start": 28.6132,
      "duration": 0.017,
      "velocity": 103,
      "chip": "ym2612"
    },
    {
      "channel": 2,
      "note": 96,
      "start": 28.6202,
      "duration": 0.0163,
      "velocity": 111,
      "chip": "ym2612"
    },
    {
      "channel": 3,
      "note": 60,
      "start": 28.6539,
      "duration": 0.083,
      "velocity": 103,
      "chip": "ym2612"
    },
    {
      "channel": 2,
      "note": 98,
      "start": 28.6872,
      "duration": 0.1061,
      "velocity": 111,
      "chip": "ym2612"
    },
    {
      "channel": 0,
      "note": 96,
      "start": 28.7702,
      "duration": 0.0193,
      "velocity": 111,
      "chip": "ym2612"
    },
    {
      "channel": 1,
      "note": 48,
      "start": 28.7709,
      "duration": 0.0428,
      "velocity": 113,
      "chip": "ym2612"
    },
    {
      "channel": 3,
      "note": 72,
      "start": 28.7719,
      "duration": 0.0424,
      "velocity": 103,
      "chip": "ym2612"
    },
    {
      "channel": 4,
      "note": 69,
      "start": 28.7727,
      "duration": 0.0419,
      "velocity": 103,
      "chip": "ym2612"
    },
    {
      "channel": 2,
      "note": 96,
      "start": 28.8035,
      "duration": 0.0135,
      "velocity": 111,
      "chip": "ym2612"
    },
    {
      "channel": 0,
      "note": 101,
      "start": 28.82,
      "duration": 0.0663,
      "velocity": 111,
      "chip": "ym2612"
    },
    {
      "channel": 1,
      "note": 50,
      "start": 28.8207,
      "duration": 0.1823,
      "velocity": 113,
      "chip": "ym2612"
    },
    {
      "channel": 3,
      "note": 77,
      "start": 28.8216,
      "duration": 0.182,
      "velocity": 103,
      "chip": "ym2612"
    },
    {
      "channel": 4,
      "note": 72,
      "start": 28.8223,
      "duration": 0.1817,
      "velocity": 103,
      "chip": "ym2612"
    },
    {
      "channel": 2,
      "note": 101,
      "start": 28.9539,
      "duration": 0.0659,
      "velocity": 111,
      "chip": "ym2612"
    },
    {
      "channel": 0,
      "note": 105,
      "start": 29.1538,
      "duration": 0.018,
      "velocity": 111,
      "chip": "ym2612"
    },
    {
      "channel": 1,
      "note": 52,
      "start": 29.1546,
      "duration": 0.0175,
      "velocity": 113,
      "chip": "ym2612"
    },
    {
      "channel": 3,
      "note": 76,
      "start": 29.1554,
      "duration": 0.017,
      "velocity": 103,
      "chip": "ym2612"
    },
    {
      "channel": 4,
      "note": 71,
      "start": 29.1561,
      "duration": 0.0166,
      "velocity": 103,
      "chip": "ym2612"
    },
    {
      "channel": 2,
      "note": 105,
      "start": 29.1828,
      "duration": 0.0098,
      "velocity": 111,
      "chip": "ym2612"
    },
    {
      "channel": 0,
      "note": 105,
      "start": 29.1962,
      "duration": 0.0179,
      "velocity": 111,
      "chip": "ym2612"
    },
    {
      "channel": 1,
      "note": 52,
      "start": 29.197,
      "duration": 0.0174,
      "velocity": 113,
      "chip": "ym2612"
    },
    {
      "channel": 3,
      "note": 76,
      "start": 29.1978,
      "duration": 0.017,
      "velocity": 103,
      "chip": "ym2612"
    },
    {
      "channel": 4,
      "note": 71,
      "start": 29.1985,
      "duration": 0.0166,
      "velocity": 103,
      "chip": "ym2612"
    },
    {
      "channel": 2,
      "note": 105,
      "start": 29.2253,
      "duration": 0.0098,
      "velocity": 111,
      "chip": "ym2612"
    },
    {
      "channel": 0,
      "note": 105,
      "start": 29.2385,
      "duration": 0.0179,
      "velocity": 111,
      "chip": "ym2612"
    },
    {
      "channel": 1,
      "note": 52,
      "start": 29.2393,
      "duration": 0.0174,
      "velocity": 113,
      "chip": "ym2612"
    },
    {
      "channel": 3,
      "note": 76,
      "start": 29.2401,
      "duration": 0.017,
      "velocity": 103,
      "chip": "ym2612"
    },
    {
      "channel": 4,
      "note": 71,
      "start": 29.2408,
      "duration": 0.0166,
      "velocity": 103,
      "chip": "ym2612"
    },
    {
      "channel": 0,
      "note": 105,
      "start": 29.2652,
      "duration": 0.0405,
      "velocity": 111,
      "chip": "ym2612"
    },
    {
      "channel": 1,
      "note": 52,
      "start": 29.266,
      "duration": 0.04,
      "velocity": 113,
      "chip": "ym2612"
    },
    {
      "channel": 3,
      "note": 76,
      "start": 29.2668,
      "duration": 0.0398,
      "velocity": 103,
      "chip": "ym2612"
    },
    {
      "channel": 4,
      "note": 71,
      "start": 29.2675,
      "duration": 0.0394,
      "velocity": 103,
      "chip": "ym2612"
    },
    {
      "channel": 2,
      "note": 105,
      "start": 29.2713,
      "duration": 0.0139,
      "velocity": 111,
      "chip": "ym2612"
    },
    {
      "channel": 2,
      "note": 105,
      "start": 29.2958,
      "duration": 0.0393,
      "velocity": 111,
      "chip": "ym2612"
    },
    {
      "channel": 0,
      "note": 104,
      "start": 29.3157,
      "duration": 0.0157,
      "velocity": 111,
      "chip": "ym2612"
    },
    {
      "channel": 1,
      "note": 52,
      "start": 29.3165,
      "duration": 0.0152,
      "velocity": 113,
      "chip": "ym2612"
    },
    {
      "channel": 3,
      "note": 76,
      "start": 29.3175,
      "duration": 0.0148,
      "velocity": 103,
      "chip": "ym2612"
    },
    {
      "channel": 4,
      "note": 71,
      "start": 29.3183,
      "duration": 0.0143,
      "velocity": 103,
      "chip": "ym2612"
    },
    {
      "channel": 2,
      "note": 104,
      "start": 29.3427,
      "duration": 0.0098,
      "velocity": 111,
      "chip": "ym2612"
    },
    {
      "channel": 1,
      "note": 50,
      "start": 29.5826,
      "duration": 0.0113,
      "velocity": 113,
      "chip": "ym2612"
    },
    {
      "channel": 1,
      "note": 51,
      "start": 29.6021,
      "duration": 0.01,
      "velocity": 113,
      "chip": "ym2612"
    },
    {
      "channel": 1,
      "note": 52,
      "start": 29.6202,
      "duration": 0.0102,
      "velocity": 113,
      "chip": "ym2612"
    },
    {
      "channel": 1,
      "note": 55,
      "start": 29.6384,
      "duration": 0.0102,
      "velocity": 113,
      "chip": "ym2612"
    },
    {
      "channel": 1,
      "note": 57,
      "start": 29.6618,
      "duration": 22.6902,
      "velocity": 113,
      "chip": "ym2612"
    }
  ]
}