{
  "track_name": "04 - Course Theme 1",
  "duration_sec": 73.528,
  "sample_rate": 44100,
  "note_count": 1256,
  "unique_pitches": 55,
  "pitch_range": 80,
  "avg_note_duration": 0.2632,
  "reconstruction_stats": {
    "notes_reconstructed": 1256,
    "keyon_events": 1256,
    "keyoff_events": 1253,
    "orphan_keyons": 3,
    "unique_pitches": 55,
    "pitch_range": 80,
    "avg_duration_sec": 0.2632
  },
  "metadata": {
    "source": "D\\Devil's Course\\04 - Course Theme 1.vgm"
  },
  "notes": [
    {
      "channel": 1,
      "note": 58,
      "start": 0.0,
      "duration": 0.4338,
      "velocity": 92,
      "chip": "ym2612"
    },
    {
      "channel": 2,
      "note": 29,
      "start": 0.0056,
      "duration": 0.0526,
      "velocity": 125,
      "chip": "ym2612"
    },
    {
      "channel": 3,
      "note": 51,
      "start": 0.0117,
      "duration": 0.1237,
      "velocity": 127,
      "chip": "ym2612"
    },
    {
      "channel": 4,
      "note": 65,
      "start": 0.0167,
      "duration": 1.921,
      "velocity": 103,
      "chip": "ym2612"
    },
    {
      "channel": 5,
      "note": 81,
      "start": 0.0219,
      "duration": 1.9168,
      "velocity": 103,
      "chip": "ym2612"
    },
    {
      "channel": 3,
      "note": 51,
      "start": 0.1358,
      "duration": 0.1156,
      "velocity": 127,
      "chip": "ym2612"
    },
    {
      "channel": 3,
      "note": 63,
      "start": 0.2553,
      "duration": 0.2425,
      "velocity": 127,
      "chip": "ym2612"
    },
    {
      "channel": 1,
      "note": 58,
      "start": 0.492,
      "duration": 0.1151,
      "velocity": 92,
      "chip": "ym2612"
    },
    {
      "channel": 2,
      "note": 41,
      "start": 0.4968,
      "duration": 0.0141,
      "velocity": 123,
      "chip": "ym2612"
    },
    {
      "channel": 3,
      "note": 51,
      "start": 0.5017,
      "duration": 0.1059,
      "velocity": 127,
      "chip": "ym2612"
    },
    {
      "channel": 3,
      "note": 51,
      "start": 0.608,
      "duration": 0.1305,
      "velocity": 127,
      "chip": "ym2612"
    },
    {
      "channel": 1,
      "note": 53,
      "start": 0.7328,
      "duration": 0.1152,
      "velocity": 92,
      "chip": "ym2612"
    },
    {
      "channel": 2,
      "note": 29,
      "start": 0.7375,
      "duration": 0.0141,
      "velocity": 125,
      "chip": "ym2612"
    },
    {
      "channel": 3,
      "note": 63,
      "start": 0.7422,
      "duration": 0.2338,
      "velocity": 127,
      "chip": "ym2612"
    },
    {
      "channel": 0,
      "note": 86,
      "start": 0.9734,
      "duration": 0.2114,
      "velocity": 90,
      "chip": "ym2612"
    },
    {
      "channel": 1,
      "note": 58,
      "start": 0.9743,
      "duration": 0.3165,
      "velocity": 92,
      "chip": "ym2612"
    },
    {
      "channel": 2,
      "note": 29,
      "start": 0.9751,
      "duration": 0.0366,
      "velocity": 125,
      "chip": "ym2612"
    },
    {
      "channel": 3,
      "note": 51,
      "start": 0.98,
      "duration": 0.109,
      "velocity": 127,
      "chip": "ym2612"
    },
    {
      "channel": 3,
      "note": 51,
      "start": 1.0894,
      "duration": 0.1163,
      "velocity": 127,
      "chip": "ym2612"
    },
    {
      "channel": 0,
      "note": 87,
      "start": 1.2045,
      "duration": 0.1249,
      "velocity": 90,
      "chip": "ym2612"
    },
    {
      "channel": 3,
      "note": 63,
      "start": 1.2093,
      "duration": 0.2416,
      "velocity": 127,
      "chip": "ym2612"
    },
    {
      "channel": 0,
      "note": 86,
      "start": 1.3297,
      "duration": 0.1152,
      "velocity": 90,
      "chip": "ym2612"
    },
    {
      "channel": 1,
      "note": 65,
      "start": 1.3305,
      "duration": 0.1148,
      "velocity": 92,
      "chip": "ym2612"
    },
    {
      "channel": 2,
      "note": 29,
      "start": 1.3312,
      "duration": 0.0175,
      "velocity": 125,
      "chip": "ym2612"
    },
    {
      "channel": 2,
      "note": 41,
      "start": 1.4499,
      "duration": 0.0144,
      "velocity": 123,
      "chip": "ym2612"
    },
    {
      "channel": 3,
      "note": 51,
      "start": 1.455,
      "duration": 0.1216,
      "velocity": 127,
      "chip": "ym2612"
    },
    {
      "channel": 0,
      "note": 87,
      "start": 1.5705,
      "duration": 0.3174,
      "velocity": 90,
      "chip": "ym2612"
    },
    {
      "channel": 1,
      "note": 53,
      "start": 1.5714,
      "duration": 0.1144,
      "velocity": 92,
      "chip": "ym2612"
    },
    {
      "channel": 2,
      "note": 29,
      "start": 1.5763,
      "duration": 0.0325,
      "velocity": 125,
      "chip": "ym2612"
    },
    {
      "channel": 3,
      "note": 51,
      "start": 1.577,
      "duration": 0.1096,
      "velocity": 127,
      "chip": "ym2612"
    },
    {
      "channel": 3,
      "note": 63,
      "start": 1.6905,
      "duration": 0.2429,
      "velocity": 127,
      "chip": "ym2612"
    },
    {
      "channel": 0,
      "note": 89,
      "start": 1.9268,
      "duration": 0.6352,
      "velocity": 90,
      "chip": "ym2612"
    },
    {
      "channel": 1,
      "note": 58,
      "start": 1.9277,
      "duration": 0.4129,
      "velocity": 92,
      "chip": "ym2612"
    },
    {
      "channel": 2,
      "note": 29,
      "start": 1.9324,
      "duration": 0.0326,
      "velocity": 125,
      "chip": "ym2612"
    },
    {
      "channel": 3,
      "note": 51,
      "start": 1.9373,
      "duration": 0.105,
      "velocity": 127,
      "chip": "ym2612"
    },
    {
      "channel": 4,
      "note": 65,
      "start": 1.9383,
      "duration": 1.9067,
      "velocity": 103,
      "chip": "ym2612"
    },
    {
      "channel": 5,
      "note": 80,
      "start": 1.939,
      "duration": 1.9068,
      "velocity": 103,
      "chip": "ym2612"
    },
    {
      "channel": 3,
      "note": 51,
      "start": 2.0427,
      "duration": 0.1157,
      "velocity": 127,
      "chip": "ym2612"
    },
    {
      "channel": 3,
      "note": 63,
      "start": 2.162,
      "duration": 0.2425,
      "velocity": 127,
      "chip": "ym2612"
    },
    {
      "channel": 1,
      "note": 58,
      "start": 2.3988,
      "duration": 0.1248,
      "velocity": 92,
      "chip": "ym2612"
    },
    {
      "channel": 2,
      "note": 41,
      "start": 2.4035,
      "duration": 0.0142,
      "velocity": 123,
      "chip": "ym2612"
    },
    {
      "channel": 3,
      "note": 51,
      "start": 2.4086,
      "duration": 0.1155,
      "velocity": 127,
      "chip": "ym2612"
    },
    {
      "channel": 3,
      "note": 51,
      "start": 2.5244,
      "duration": 0.1215,
      "velocity": 127,
      "chip": "ym2612"
    },
    {
      "channel": 0,
      "note": 87,
      "start": 2.6395,
      "duration": 0.2211,
      "velocity": 90,
      "chip": "ym2612"
    },
    {
      "channel": 1,
      "note": 53,
      "start": 2.6404,
      "duration": 0.1144,
      "velocity": 92,
      "chip": "ym2612"
    },
    {
      "channel": 2,
      "note": 29,
      "start": 2.6451,
      "duration": 0.0134,
      "velocity": 125,
      "chip": "ym2612"
    },
    {
      "channel": 3,
      "note": 63,
      "start": 2.6496,
      "duration": 0.2333,
      "velocity": 127,
      "chip": "ym2612"
    },
    {
      "channel": 0,
      "note": 85,
      "start": 2.8802,
      "duration": 0.4137,
      "velocity": 90,
      "chip": "ym2612"
    },
    {
      "channel": 1,
      "note": 58,
      "start": 2.8812,
      "duration": 0.413,
      "velocity": 92,
      "chip": "ym2612"
    },
    {
      "channel": 2,
      "note": 29,
      "start": 2.8819,
      "duration": 0.0366,
      "velocity": 125,
      "chip": "ym2612"
    },
    {
      "channel": 3,
      "note": 51,
      "start": 2.8869,
      "duration": 0.1088,
      "velocity": 127,
      "chip": "ym2612"
    },
    {
      "channel": 3,
      "note": 51,
      "start": 2.9961,
      "duration": 0.1253,
      "velocity": 127,
      "chip": "ym2612"
    },
    {
      "channel": 3,
      "note": 63,
      "start": 3.1252,
      "duration": 0.2338,
      "velocity": 127,
      "chip": "ym2612"
    },
    {
      "channel": 0,
      "note": 87,
      "start": 3.3521,
      "duration": 0.3173,
      "velocity": 90,
      "chip": "ym2612"
    },
    {
      "channel": 1,
      "note": 51,
      "start": 3.353,
      "duration": 0.1241,
      "velocity": 92,
      "chip": "ym2612"
    },
    {
      "channel": 2,
      "note": 41,
      "start": 3.3579,
      "duration": 0.0325,
      "velocity": 123,
      "chip": "ym2612"
    },
    {
      "channel": 3,
      "note": 51,
      "start": 3.3629,
      "duration": 0.1155,
      "velocity": 127,
      "chip": "ym2612"
    },
    {
      "channel": 1,
      "note": 63,
      "start": 3.4775,
      "duration": 0.1151,
      "velocity": 92,
      "chip": "ym2612"
    },
    {
      "channel": 3,
      "note": 63,
      "start": 3.4822,
      "duration": 0.2276,
      "velocity": 127,
      "chip": "ym2612"
    },
    {
      "channel": 0,
      "note": 86,
      "start": 3.7084,
      "duration": 0.0671,
      "velocity": 90,
      "chip": "ym2612"
    },
    {
      "channel": 3,
      "note": 51,
      "start": 3.7137,
      "duration": 0.1269,
      "velocity": 127,
      "chip": "ym2612"
    },
    {
      "channel": 0,
      "note": 85,
      "start": 3.7759,
      "duration": 0.0574,
      "velocity": 90,
      "chip": "ym2612"
    },
    {
      "channel": 0,
      "note": 84,
      "start": 3.8336,
      "duration": 0.8374,
      "velocity": 90,
      "chip": "ym2612"
    },
    {
      "channel": 1,
      "note": 56,
      "start": 3.8345,
      "duration": 0.413,
      "velocity": 92,
      "chip": "ym2612"
    },
    {
      "channel": 2,
      "note": 29,
      "start": 3.8394,
      "duration": 0.0327,
      "velocity": 125,
      "chip": "ym2612"
    },
    {
      "channel": 3,
      "note": 51,
      "start": 3.8446,
      "duration": 0.1045,
      "velocity": 127,
      "chip": "ym2612"
    },
    {
      "channel": 4,
      "note": 63,
      "start": 3.8453,
      "duration": 1.9061,
      "velocity": 103,
      "chip": "ym2612"
    },
    {
      "channel": 5,
      "note": 79,
      "start": 3.8462,
      "duration": 1.906,
      "velocity": 103,
      "chip": "ym2612"
    },
    {
      "channel": 3,
      "note": 51,
      "start": 3.9495,
      "duration": 0.1253,
      "velocity": 127,
      "chip": "ym2612"
    },
    {
      "channel": 3,
      "note": 63,
      "start": 4.0785,
      "duration": 0.2331,
      "velocity": 127,
      "chip": "ym2612"
    },
    {
      "channel": 1,
      "note": 56,
      "start": 4.3058,
      "duration": 0.1247,
      "velocity": 92,
      "chip": "ym2612"
    },
    {
      "channel": 2,
      "note": 41,
      "start": 4.3106,
      "duration": 0.014,
      "velocity": 123,
      "chip": "ym2612"
    },
    {
      "channel": 3,
      "note": 51,
      "start": 4.3155,
      "duration": 0.1154,
      "velocity": 127,
      "chip": "ym2612"
    },
    {
      "channel": 3,
      "note": 51,
      "start": 4.4313,
      "duration": 0.1208,
      "velocity": 127,
      "chip": "ym2612"
    },
    {
      "channel": 1,
      "note": 51,
      "start": 4.5465,
      "duration": 0.1249,
      "velocity": 92,
      "chip": "ym2612"
    },
    {
      "channel": 2,
      "note": 29,
      "start": 4.5512,
      "duration": 0.0141,
      "velocity": 125,
      "chip": "ym2612"
    },
    {
      "channel": 3,
      "note": 63,
      "start": 4.556,
      "duration": 0.234,
      "velocity": 127,
      "chip": "ym2612"
    },
    {
      "channel": 0,
      "note": 84,
      "start": 4.7871,
      "duration": 0.221,
      "velocity": 90,
      "chip": "ym2612"
    },
    {
      "channel": 1,
      "note": 56,
      "start": 4.788,
      "duration": 0.3165,
      "velocity": 92,
      "chip": "ym2612"
    },
    {
      "channel": 2,
      "note": 29,
      "start": 4.7889,
      "duration": 0.0364,
      "velocity": 125,
      "chip": "ym2612"
    },
    {
      "channel": 3,
      "note": 51,
      "start": 4.7939,
      "duration": 0.1086,
      "velocity": 127,
      "chip": "ym2612"
    },
    {
      "channel": 3,
      "note": 51,
      "start": 4.9029,
      "duration": 0.126,
      "velocity": 127,
      "chip": "ym2612"
    },
    {
      "channel": 0,
      "note": 85,
      "start": 5.0278,
      "duration": 0.1152,
      "velocity": 90,
      "chip": "ym2612"
    },
    {
      "channel": 3,
      "note": 63,
      "start": 5.0325,
      "duration": 0.2418,
      "velocity": 127,
      "chip": "ym2612"
    },
    {
      "channel": 0,
      "note": 84,
      "start": 5.1434,
      "duration": 0.1248,
      "velocity": 90,
      "chip": "ym2612"
    },
    {
      "channel": 1,
      "note": 63,
      "start": 5.1441,
      "duration": 0.1244,
      "velocity": 92,
      "chip": "ym2612"
    },
    {
      "channel": 2,
      "note": 29,
      "start": 5.1449,
      "duration": 0.0176,
      "velocity": 125,
      "chip": "ym2612"
    },
    {
      "channel": 2,
      "note": 41,
      "start": 5.2734,
      "duration": 0.0143,
      "velocity": 123,
      "chip": "ym2612"
    },
    {
      "channel": 3,
      "note": 51,
      "start": 5.2783,
      "duration": 0.112,
      "velocity": 127,
      "chip": "ym2612"
    },
    {
      "channel": 0,
      "note": 85,
      "start": 5.3841,
      "duration": 0.3173,
      "velocity": 90,
      "chip": "ym2612"
    },
    {
      "channel": 1,
      "note": 51,
      "start": 5.385,
      "duration": 0.1144,
      "velocity": 92,
      "chip": "ym2612"
    },
    {
      "channel": 2,
      "note": 29,
      "start": 5.3899,
      "duration": 0.0325,
      "velocity": 125,
      "chip": "ym2612"
    },
    {
      "channel": 3,
      "note": 51,
      "start": 5.3907,
      "duration": 0.1097,
      "velocity": 127,
      "chip": "ym2612"
    },
    {
      "channel": 3,
      "note": 63,
      "start": 5.5041,
      "duration": 0.2431,
      "velocity": 127,
      "chip": "ym2612"
    },
    {
      "channel": 0,
      "note": 87,
      "start": 5.7405,
      "duration": 0.6352,
      "velocity": 90,
      "chip": "ym2612"
    },
    {
      "channel": 1,
      "note": 56,
      "start": 5.7414,
      "duration": 0.4129,
      "velocity": 92,
      "chip": "ym2612"
    },
    {
      "channel": 2,
      "note": 29,
      "start": 5.7462,
      "duration": 0.0326,
      "velocity": 125,
      "chip": "ym2612"
    },
    {
      "channel": 3,
      "note": 51,
      "start": 5.7511,
      "duration": 0.1049,
      "velocity": 127,
      "chip": "ym2612"
    },
    {
      "channel": 4,
      "note": 63,
      "start": 5.7518,
      "duration": 1.9075,
      "velocity": 103,
      "chip": "ym2612"
    },
    {
      "channel": 5,
      "note": 78,
      "start": 5.7526,
      "duration": 1.9075,
      "velocity": 103,
      "chip": "ym2612"
    },
    {
      "channel": 3,
      "note": 51,
      "start": 5.8563,
      "duration": 0.1252,
      "velocity": 127,
      "chip": "ym2612"
    },
    {
      "channel": 3,
      "note": 63,
      "start": 5.9853,
      "duration": 0.2427,
      "velocity": 127,
      "chip": "ym2612"
    },
    {
      "channel": 1,
      "note": 56,
      "start": 6.2222,
      "duration": 0.1151,
      "velocity": 92,
      "chip": "ym2612"
    },
    {
      "channel": 2,
      "note": 41,
      "start": 6.227,
      "duration": 0.0141,
      "velocity": 123,
      "chip": "ym2612"
    },
    {
      "channel": 3,
      "note": 51,
      "start": 6.2319,
      "duration": 0.1059,
      "velocity": 127,
      "chip": "ym2612"
    },
    {
      "channel": 3,
      "note": 51,
      "start": 6.3383,
      "duration": 0.1215,
      "velocity": 127,
      "chip": "ym2612"
    },
    {
      "channel": 0,
      "note": 85,
      "start": 6.4532,
      "duration": 0.2211,
      "velocity": 90,
      "chip": "ym2612"
    },
    {
      "channel": 1,
      "note": 51,
      "start": 6.4541,
      "duration": 0.124,
      "velocity": 92,
      "chip": "ym2612"
    },
    {
      "channel": 2,
      "note": 29,
      "start": 6.4589,
      "duration": 0.0134,
      "velocity": 125,
      "chip": "ym2612"
    },
    {
      "channel": 3,
      "note": 63,
      "start": 6.4635,
      "duration": 0.2331,
      "velocity": 127,
      "chip": "ym2612"
    },
    {
      "channel": 0,
      "note": 83,
      "start": 6.6939,
      "duration": 0.4233,
      "velocity": 90,
      "chip": "ym2612"
    },
    {
      "channel": 1,
      "note": 56,
      "start": 6.6948,
      "duration": 0.4227,
      "velocity": 92,
      "chip": "ym2612"
    },
    {
      "channel": 2,
      "note": 29,
      "start": 6.6956,
      "duration": 0.0366,
      "velocity": 125,
      "chip": "ym2612"
    },
    {
      "channel": 3,
      "note": 51,
      "start": 6.7005,
      "duration": 0.1185,
      "velocity": 127,
      "chip": "ym2612"
    },
    {
      "channel": 3,
      "note": 51,
      "start": 6.8194,
      "duration": 0.1156,
      "velocity": 127,
      "chip": "ym2612"
    },
    {
      "channel": 3,
      "note": 63,
      "start": 6.9388,
      "duration": 0.2433,
      "velocity": 127,
      "chip": "ym2612"
    },
    {
      "channel": 0,
      "note": 85,
      "start": 7.1754,
      "duration": 0.3174,
      "velocity": 90,
      "chip": "ym2612"
    },
    {
      "channel": 1,
      "note": 49,
      "start": 7.1763,
      "duration": 0.1146,
      "velocity": 92,
      "chip": "ym2612"
    },
    {
      "channel": 2,
      "note": 41,
      "start": 7.1811,
      "duration": 0.0326,
      "velocity": 123,
      "chip": "ym2612"
    },
    {
      "channel": 3,
      "note": 51,
      "start": 7.1861,
      "duration": 0.1061,
      "velocity": 127,
      "chip": "ym2612"
    },
    {
      "channel": 1,
      "note": 61,
      "start": 7.2912,
      "duration": 0.1151,
      "velocity": 92,
      "chip": "ym2612"
    },
    {
      "channel": 3,
      "note": 63,
      "start": 7.2959,
      "duration": 0.2372,
      "velocity": 127,
      "chip": "ym2612"
    },
    {
      "channel": 0,
      "note": 84,
      "start": 7.5318,
      "duration": 0.0574,
      "velocity": 90,
      "chip": "ym2612"
    },
    {
      "channel": 3,
      "note": 51,
      "start": 7.537,
      "duration": 0.118,
      "velocity": 127,
      "chip": "ym2612"
    },
    {
      "channel": 0,
      "note": 83,
      "start": 7.5895,
      "duration": 0.0574,
      "velocity": 90,
      "chip": "ym2612"
    },
    {
      "channel": 0,
      "note": 82,
      "start": 7.6474,
      "duration": 0.8374,
      "velocity": 90,
      "chip": "ym2612"
    },
    {
      "channel": 1,
      "note": 54,
      "start": 7.6483,
      "duration": 0.4225,
      "velocity": 92,
      "chip": "ym2612"
    },
    {
      "channel": 2,
      "note": 29,
      "start": 7.6537,
      "duration": 0.0319,
      "velocity": 125,
      "chip": "ym2612"
    },
    {
      "channel": 3,
      "note": 51,
      "start": 7.659,
      "duration": 0.1135,
      "velocity": 127,
      "chip": "ym2612"
    },
    {
      "channel": 4,
      "note": 61,
      "start": 7.6597,
      "duration": 1.9059,
      "velocity": 103,
      "chip": "ym2612"
    },
    {
      "channel": 5,
      "note": 77,
      "start": 7.6605,
      "duration": 1.906,
      "velocity": 103,
      "chip": "ym2612"
    },
    {
      "channel": 3,
      "note": 51,
      "start": 7.7728,
      "duration": 0.1158,
      "velocity": 127,
      "chip": "ym2612"
    },
    {
      "channel": 3,
      "note": 63,
      "start": 7.8923,
      "duration": 0.2424,
      "velocity": 127,
      "chip": "ym2612"
    },
    {
      "channel": 1,
      "note": 54,
      "start": 8.129,
      "duration": 0.1151,
      "velocity": 92,
      "chip": "ym2612"
    },
    {
      "channel": 2,
      "note": 41,
      "start": 8.1337,
      "duration": 0.0142,
      "velocity": 123,
      "chip": "ym2612"
    },
    {
      "channel": 3,
      "note": 51,
      "start": 8.1387,
      "duration": 0.1059,
      "velocity": 127,
      "chip": "ym2612"
    },
    {
      "channel": 3,
      "note": 51,
      "start": 8.245,
      "duration": 0.1304,
      "velocity": 127,
      "chip": "ym2612"
    },
    {
      "channel": 1,
      "note": 49,
      "start": 8.3697,
      "duration": 0.1153,
      "velocity": 92,
      "chip": "ym2612"
    },
    {
      "channel": 2,
      "note": 29,
      "start": 8.3746,
      "duration": 0.0142,
      "velocity": 125,
      "chip": "ym2612"
    },
    {
      "channel": 3,
      "note": 63,
      "start": 8.3791,
      "duration": 0.2242,
      "velocity": 127,
      "chip": "ym2612"
    },
    {
      "channel": 0,
      "note": 82,
      "start": 8.6007,
      "duration": 0.4233,
      "velocity": 90,
      "chip": "ym2612"
    },
    {
      "channel": 1,
      "note": 54,
      "start": 8.6016,
      "duration": 0.4227,
      "velocity": 92,
      "chip": "ym2612"
    },
    {
      "channel": 2,
      "note": 29,
      "start": 8.6023,
      "duration": 0.0367,
      "velocity": 125,
      "chip": "ym2612"
    },
    {
      "channel": 3,
      "note": 51,
      "start": 8.6074,
      "duration": 0.1185,
      "velocity": 127,
      "chip": "ym2612"
    },
    {
      "channel": 3,
      "note": 51,
      "start": 8.7263,
      "duration": 0.1156,
      "velocity": 127,
      "chip": "ym2612"
    },
    {
      "channel": 3,
      "note": 63,
      "start": 8.8456,
      "duration": 0.2434,
      "velocity": 127,
      "chip": "ym2612"
    },
    {
      "channel": 0,
      "note": 87,
      "start": 9.0823,
      "duration": 0.4137,
      "velocity": 90,
      "chip": "ym2612"
    },
    {
      "channel": 1,
      "note": 56,
      "start": 9.0832,
      "duration": 0.4131,
      "velocity": 92,
      "chip": "ym2612"
    },
    {
      "channel": 2,
      "note": 41,
      "start": 9.088,
      "duration": 0.0326,
      "velocity": 123,
      "chip": "ym2612"
    },
    {
      "channel": 3,
      "note": 51,
      "start": 9.093,
      "duration": 0.1048,
      "velocity": 127,
      "chip": "ym2612"
    },
    {
      "channel": 3,
      "note": 51,
      "start": 9.1981,
      "duration": 0.1252,
      "velocity": 127,
      "chip": "ym2612"
    },
    {
      "channel": 3,
      "note": 63,
      "start": 9.3271,
      "duration": 0.234,
      "velocity": 127,
      "chip": "ym2612"
    },
    {
      "channel": 0,
      "note": 85,
      "start": 9.5542,
      "duration": 0.4233,
      "velocity": 90,
      "chip": "ym2612"
    },
    {
      "channel": 1,
      "note": 51,
      "start": 9.5553,
      "duration": 0.4224,
      "velocity": 92,
      "chip": "ym2612"
    },
    {
      "channel": 2,
      "note": 29,
      "start": 9.5602,
      "duration": 0.0419,
      "velocity": 125,
      "chip": "ym2612"
    },
    {
      "channel": 3,
      "note": 51,
      "start": 9.5651,
      "duration": 0.1142,
      "velocity": 127,
      "chip": "ym2612"
    },
    {
      "channel": 4,
      "note": 70,
      "start": 9.5659,
      "duration": 1.9163,
      "velocity": 103,
      "chip": "ym2612"
    },
    {
      "channel": 5,
      "note": 85,
      "start": 9.5668,
      "duration": 1.9162,
      "velocity": 103,
      "chip": "ym2612"
    },
    {
      "channel": 3,
      "note": 51,
      "start": 9.6797,
      "duration": 0.1156,
      "velocity": 127,
      "chip": "ym2612"
    },
    {
      "channel": 3,
      "note": 63,
      "start": 9.799,
      "duration": 0.2435,
      "velocity": 127,
      "chip": "ym2612"
    },
    {
      "channel": 0,
      "note": 92,
      "start": 10.0359,
      "duration": 0.8373,
      "velocity": 90,
      "chip": "ym2612"
    },
    {
      "channel": 1,
      "note": 51,
      "start": 10.0366,
      "duration": 0.1144,
      "velocity": 92,
      "chip": "ym2612"
    },
    {
      "channel": 2,
      "note": 41,
      "start": 10.0415,
      "duration": 0.0133,
      "velocity": 123,
      "chip": "ym2612"
    },
    {
      "channel": 3,
      "note": 51,
      "start": 10.0464,
      "duration": 0.105,
      "velocity": 127,
      "chip": "ym2612"
    },
    {
      "channel": 3,
      "note": 51,
      "start": 10.1518,
      "duration": 0.1304,
      "velocity": 127,
      "chip": "ym2612"
    },
    {
      "channel": 1,
      "note": 58,
      "start": 10.2767,
      "duration": 0.1151,
      "velocity": 92,
      "chip": "ym2612"
    },
    {
      "channel": 2,
      "note": 29,
      "start": 10.2814,
      "duration": 0.0141,
      "velocity": 125,
      "chip": "ym2612"
    },
    {
      "channel": 3,
      "note": 63,
      "start": 10.2859,
      "duration": 0.2332,
      "velocity": 127,
      "chip": "ym2612"
    },
    {
      "channel": 1,
      "note": 65,
      "start": 10.5173,
      "duration": 0.4137,
      "velocity": 92,
      "chip": "ym2612"
    },
    {
      "channel": 2,
      "note": 29,
      "start": 10.5181,
      "duration": 0.0375,
      "velocity": 125,
      "chip": "ym2612"
    },
    {
      "channel": 3,
      "note": 51,
      "start": 10.5232,
      "duration": 0.1095,
      "velocity": 127,
      "chip": "ym2612"
    },
    {
      "channel": 3,
      "note": 51,
      "start": 10.6331,
      "duration": 0.1156,
      "velocity": 127,
      "chip": "ym2612"
    },
    {
      "channel": 3,
      "note": 63,
      "start": 10.7524,
      "duration": 0.2436,
      "velocity": 127,
      "chip": "ym2612"
    },
    {
      "channel": 0,
      "note": 90,
      "start": 10.9893,
      "duration": 0.4135,
      "velocity": 90,
      "chip": "ym2612"
    },
    {
      "channel": 1,
      "note": 51,
      "start": 10.9902,
      "duration": 0.4129,
      "velocity": 92,
      "chip": "ym2612"
    },
    {
      "channel": 2,
      "note": 41,
      "start": 10.9949,
      "duration": 0.0324,
      "velocity": 123,
      "chip": "ym2612"
    },
    {
      "channel": 3,
      "note": 51,
      "start": 10.9999,
      "duration": 0.1053,
      "velocity": 127,
      "chip": "ym2612"
    },
    {
      "channel": 3,
      "note": 63,
      "start": 11.1089,
      "duration": 0.237,
      "velocity": 127,
      "chip": "ym2612"
    },
    {
      "channel": 3,
      "note": 51,
      "start": 11.3498,
      "duration": 0.128,
      "velocity": 127,
      "chip": "ym2612"
    },
    {
      "channel": 0,
      "note": 89,
      "start": 11.4707,
      "duration": 0.2789,
      "velocity": 90,
      "chip": "ym2612"
    },
    {
      "channel": 1,
      "note": 58,
      "start": 11.4717,
      "duration": 0.4127,
      "velocity": 92,
      "chip": "ym2612"
    },
    {
      "channel": 2,
      "note": 29,
      "start": 11.4766,
      "duration": 0.0323,
      "velocity": 125,
      "chip": "ym2612"
    },
    {
      "channel": 3,
      "note": 51,
      "start": 11.4817,
      "duration": 0.1044,
      "velocity": 127,
      "chip": "ym2612"
    },
    {
      "channel": 4,
      "note": 65,
      "start": 11.4826,
      "duration": 1.9054,
      "velocity": 103,
      "chip": "ym2612"
    },
    {
      "channel": 5,
      "note": 80,
      "start": 11.4834,
      "duration": 1.9057,
      "velocity": 103,
      "chip": "ym2612"
    },
    {
      "channel": 3,
      "note": 51,
      "start": 11.5865,
      "duration": 0.1156,
      "velocity": 127,
      "chip": "ym2612"
    },
    {
      "channel": 3,
      "note": 63,
      "start": 11.706,
      "duration": 0.2424,
      "velocity": 127,
      "chip": "ym2612"
    },
    {
      "channel": 0,
      "note": 85,
      "start": 11.7887,
      "duration": 0.2787,
      "velocity": 90,
      "chip": "ym2612"
    },
    {
      "channel": 1,
      "note": 58,
      "start": 11.9427,
      "duration": 0.1249,
      "velocity": 92,
      "chip": "ym2612"
    },
    {
      "channel": 2,
      "note": 41,
      "start": 11.9474,
      "duration": 0.0142,
      "velocity": 123,
      "chip": "ym2612"
    },
    {
      "channel": 3,
      "note": 51,
      "start": 11.9523,
      "duration": 0.1158,
      "velocity": 127,
      "chip": "ym2612"
    },
    {
      "channel": 3,
      "note": 51,
      "start": 12.0684,
      "duration": 0.1207,
      "velocity": 127,
      "chip": "ym2612"
    },
    {
      "channel": 0,
      "note": 87,
      "start": 12.1063,
      "duration": 0.2789,
      "velocity": 90,
      "chip": "ym2612"
    },
    {
      "channel": 1,
      "note": 61,
      "start": 12.1834,
      "duration": 0.1151,
      "velocity": 92,
      "chip": "ym2612"
    },
    {
      "channel": 2,
      "note": 29,
      "start": 12.1883,
      "duration": 0.0141,
      "velocity": 125,
      "chip": "ym2612"
    },
    {
      "channel": 3,
      "note": 63,
      "start": 12.1929,
      "duration": 0.2338,
      "velocity": 127,
      "chip": "ym2612"
    },
    {
      "channel": 0,
      "note": 89,
      "start": 12.4241,
      "duration": 1.6656,
      "velocity": 90,
      "chip": "ym2612"
    },
    {
      "channel": 1,
      "note": 65,
      "start": 12.4249,
      "duration": 0.413,
      "velocity": 92,
      "chip": "ym2612"
    },
    {
      "channel": 2,
      "note": 29,
      "start": 12.4257,
      "duration": 0.0367,
      "velocity": 125,
      "chip": "ym2612"
    },
    {
      "channel": 3,
      "note": 51,
      "start": 12.4306,
      "duration": 0.109,
      "velocity": 127,
      "chip": "ym2612"
    },
    {
      "channel": 3,
      "note": 51,
      "start": 12.5399,
      "duration": 0.1253,
      "velocity": 127,
      "chip": "ym2612"
    },
    {
      "channel": 3,
      "note": 63,
      "start": 12.6689,
      "duration": 0.2329,
      "velocity": 127,
      "chip": "ym2612"
    },
    {
      "channel": 1,
      "note": 61,
      "start": 12.8961,
      "duration": 0.4233,
      "velocity": 92,
      "chip": "ym2612"
    },
    {
      "channel": 2,
      "note": 41,
      "start": 12.9009,
      "duration": 0.0334,
      "velocity": 123,
      "chip": "ym2612"
    },
    {
      "channel": 3,
      "note": 51,
      "start": 12.9059,
      "duration": 0.1152,
      "velocity": 127,
      "chip": "ym2612"
    },
    {
      "channel": 3,
      "note": 51,
      "start": 13.0216,
      "duration": 0.1155,
      "velocity": 127,
      "chip": "ym2612"
    },
    {
      "channel": 3,
      "note": 63,
      "start": 13.141,
      "duration": 0.2427,
      "velocity": 127,
      "chip": "ym2612"
    },
    {
      "channel": 1,
      "note": 63,
      "start": 13.3776,
      "duration": 0.4137,
      "velocity": 92,
      "chip": "ym2612"
    },
    {
      "channel": 2,
      "note": 29,
      "start": 13.3827,
      "duration": 0.0331,
      "velocity": 125,
      "chip": "ym2612"
    },
    {
      "channel": 3,
      "note": 51,
      "start": 13.3876,
      "duration": 0.1054,
      "velocity": 127,
      "chip": "ym2612"
    },
    {
      "channel": 4,
      "note": 63,
      "start": 13.3885,
      "duration": 1.9076,
      "velocity": 103,
      "chip": "ym2612"
    },
    {
      "channel": 5,
      "note": 79,
      "start": 13.3894,
      "duration": 1.9075,
      "velocity": 103,
      "chip": "ym2612"
    },
    {
      "channel": 3,
      "note": 51,
      "start": 13.4934,
      "duration": 0.1253,
      "velocity": 127,
      "chip": "ym2612"
    },
    {
      "channel": 3,
      "note": 63,
      "start": 13.6224,
      "duration": 0.2329,
      "velocity": 127,
      "chip": "ym2612"
    },
    {
      "channel": 1,
      "note": 63,
      "start": 13.8495,
      "duration": 0.1248,
      "velocity": 92,
      "chip": "ym2612"
    },
    {
      "channel": 2,
      "note": 41,
      "start": 13.8542,
      "duration": 0.0142,
      "velocity": 123,
      "chip": "ym2612"
    },
    {
      "channel": 3,
      "note": 51,
      "start": 13.8593,
      "duration": 0.1155,
      "velocity": 127,
      "chip": "ym2612"
    },
    {
      "channel": 3,
      "note": 51,
      "start": 13.9752,
      "duration": 0.1207,
      "velocity": 127,
      "chip": "ym2612"
    },
    {
      "channel": 1,
      "note": 58,
      "start": 14.0904,
      "duration": 0.1247,
      "velocity": 92,
      "chip": "ym2612"
    },
    {
      "channel": 2,
      "note": 29,
      "start": 14.0951,
      "duration": 0.0141,
      "velocity": 125,
      "chip": "ym2612"
    },
    {
      "channel": 3,
      "note": 63,
      "start": 14.0997,
      "duration": 0.2336,
      "velocity": 127,
      "chip": "ym2612"
    },
    {
      "channel": 1,
      "note": 51,
      "start": 14.3315,
      "duration": 0.2207,
      "velocity": 92,
      "chip": "ym2612"
    },
    {
      "channel": 2,
      "note": 29,
      "start": 14.3322,
      "duration": 0.0178,
      "velocity": 125,
      "chip": "ym2612"
    },
    {
      "channel": 3,
      "note": 51,
      "start": 14.3372,
      "duration": 0.1092,
      "velocity": 127,
      "chip": "ym2612"
    },
    {
      "channel": 3,
      "note": 51,
      "start": 14.4468,
      "duration": 0.1315,
      "velocity": 127,
      "chip": "ym2612"
    },
    {
      "channel": 0,
      "note": 87,
      "start": 14.5719,
      "duration": 0.2113,
      "velocity": 90,
      "chip": "ym2612"
    },
    {
      "channel": 1,
      "note": 58,
      "start": 14.5727,
      "duration": 0.2106,
      "velocity": 92,
      "chip": "ym2612"
    },
    {
      "channel": 2,
      "note": 41,
      "start": 14.5775,
      "duration": 0.0132,
      "velocity": 123,
      "chip": "ym2612"
    },
    {
      "channel": 3,
      "note": 63,
      "start": 14.582,
      "duration": 0.2237,
      "velocity": 127,
      "chip": "ym2612"
    },
    {
      "channel": 0,
      "note": 86,
      "start": 14.8028,
      "duration": 0.2211,
      "velocity": 90,
      "chip": "ym2612"
    },
    {
      "channel": 1,
      "note": 49,
      "start": 14.8037,
      "duration": 0.4225,
      "velocity": 92,
      "chip": "ym2612"
    },
    {
      "channel": 2,
      "note": 43,
      "start": 14.8045,
      "duration": 0.0271,
      "velocity": 123,
      "chip": "ym2612"
    },
    {
      "channel": 3,
      "note": 51,
      "start": 14.8097,
      "duration": 0.1194,
      "velocity": 127,
      "chip": "ym2612"
    },
    {
      "channel": 2,
      "note": 43,
      "start": 14.9282,
      "duration": 0.0188,
      "velocity": 123,
      "chip": "ym2612"
    },
    {
      "channel": 3,
      "note": 63,
      "start": 14.9328,
      "duration": 0.2363,
      "velocity": 127,
      "chip": "ym2612"
    },
    {
      "channel": 0,
      "note": 87,
      "start": 15.0436,
      "duration": 0.221,
      "velocity": 90,
      "chip": "ym2612"
    },
    {
      "channel": 2,
      "note": 39,
      "start": 15.0445,
      "duration": 0.0181,
      "velocity": 123,
      "chip": "ym2612"
    },
    {
      "channel": 3,
      "note": 51,
      "start": 15.1733,
      "duration": 0.1186,
      "velocity": 127,
      "chip": "ym2612"
    },
    {
      "channel": 0,
      "note": 90,
      "start": 15.2844,
      "duration": 0.8375,
      "velocity": 90,
      "chip": "ym2612"
    },
    {
      "channel": 1,
      "note": 56,
      "start": 15.2853,
      "duration": 0.4129,
      "velocity": 92,
      "chip": "ym2612"
    },
    {
      "channel": 2,
      "note": 29,
      "start": 15.2906,
      "duration": 0.032,
      "velocity": 125,
      "chip": "ym2612"
    },
    {
      "channel": 3,
      "note": 51,
      "start": 15.2958,
      "duration": 0.1041,
      "velocity": 127,
      "chip": "ym2612"
    },
    {
      "channel": 4,
      "note": 63,
      "start": 15.2966,
      "duration": 1.9051,
      "velocity": 103,
      "chip": "ym2612"
    },
    {
      "channel": 5,
      "note": 78,
      "start": 15.2973,
      "duration": 1.9051,
      "velocity": 103,
      "chip": "ym2612"
    },
    {
      "channel": 3,
      "note": 51,
      "start": 15.4002,
      "duration": 0.1253,
      "velocity": 127,
      "chip": "ym2612"
    },
    {
      "channel": 3,
      "note": 63,
      "start": 15.5292,
      "duration": 0.2426,
      "velocity": 127,
      "chip": "ym2612"
    },
    {
      "channel": 1,
      "note": 56,
      "start": 15.766,
      "duration": 0.1151,
      "velocity": 92,
      "chip": "ym2612"
    },
    {
      "channel": 2,
      "note": 41,
      "start": 15.7707,
      "duration": 0.0142,
      "velocity": 123,
      "chip": "ym2612"
    },
    {
      "channel": 3,
      "note": 51,
      "start": 15.7757,
      "duration": 0.1059,
      "velocity": 127,
      "chip": "ym2612"
    },
    {
      "channel": 3,
      "note": 51,
      "start": 15.882,
      "duration": 0.1206,
      "velocity": 127,
      "chip": "ym2612"
    },
    {
      "channel": 1,
      "note": 58,
      "start": 15.9971,
      "duration": 0.1251,
      "velocity": 92,
      "chip": "ym2612"
    },
    {
      "channel": 2,
      "note": 29,
      "start": 16.0018,
      "duration": 0.0143,
      "velocity": 125,
      "chip": "ym2612"
    },
    {
      "channel": 3,
      "note": 63,
      "start": 16.0065,
      "duration": 0.234,
      "velocity": 127,
      "chip": "ym2612"
    },
    {
      "channel": 0,
      "note": 83,
      "start": 16.2378,
      "duration": 1.2515,
      "velocity": 90,
      "chip": "ym2612"
    },
    {
      "channel": 1,
      "note": 59,
      "start": 16.2387,
      "duration": 0.4128,
      "velocity": 92,
      "chip": "ym2612"
    },
    {
      "channel": 2,
      "note": 29,
      "start": 16.2395,
      "duration": 0.0365,
      "velocity": 125,
      "chip": "ym2612"
    },
    {
      "channel": 3,
      "note": 51,
      "start": 16.2444,
      "duration": 0.1185,
      "velocity": 127,
      "chip": "ym2612"
    },
    {
      "channel": 3,
      "note": 51,
      "start": 16.3633,
      "duration": 0.1157,
      "velocity": 127,
      "chip": "ym2612"
    },
    {
      "channel": 3,
      "note": 63,
      "start": 16.4826,
      "duration": 0.2427,
      "velocity": 127,
      "chip": "ym2612"
    },
    {
      "channel": 1,
      "note": 56,
      "start": 16.7195,
      "duration": 0.4137,
      "velocity": 92,
      "chip": "ym2612"
    },
    {
      "channel": 2,
      "note": 41,
      "start": 16.7243,
      "duration": 0.0333,
      "velocity": 123,
      "chip": "ym2612"
    },
    {
      "channel": 3,
      "note": 51,
      "start": 16.7293,
      "duration": 0.1055,
      "velocity": 127,
      "chip": "ym2612"
    },
    {
      "channel": 3,
      "note": 51,
      "start": 16.8351,
      "duration": 0.1157,
      "velocity": 127,
      "chip": "ym2612"
    },
    {
      "channel": 3,
      "note": 63,
      "start": 16.9545,
      "duration": 0.2427,
      "velocity": 127,
      "chip": "ym2612"
    },
    {
      "channel": 1,
      "note": 49,
      "start": 17.1915,
      "duration": 0.4232,
      "velocity": 92,
      "chip": "ym2612"
    },
    {
      "channel": 2,
      "note": 29,
      "start": 17.1963,
      "duration": 0.0332,
      "velocity": 125,
      "chip": "ym2612"
    },
    {
      "channel": 3,
      "note": 51,
      "start": 17.2012,
      "duration": 0.1151,
      "velocity": 127,
      "chip": "ym2612"
    },
    {
      "channel": 4,
      "note": 61,
      "start": 17.202,
      "duration": 1.9076,
      "velocity": 103,
      "chip": "ym2612"
    },
    {
      "channel": 5,
      "note": 77,
      "start": 17.2027,
      "duration": 1.9076,
      "velocity": 103,
      "chip": "ym2612"
    },
    {
      "channel": 3,
      "note": 51,
      "start": 17.3167,
      "duration": 0.1156,
      "velocity": 127,
      "chip": "ym2612"
    },
    {
      "channel": 3,
      "note": 63,
      "start": 17.436,
      "duration": 0.2433,
      "velocity": 127,
      "chip": "ym2612"
    },
    {
      "channel": 0,
      "note": 90,
      "start": 17.6727,
      "duration": 0.4137,
      "velocity": 90,
      "chip": "ym2612"
    },
    {
      "channel": 1,
      "note": 49,
      "start": 17.6735,
      "duration": 0.1145,
      "velocity": 92,
      "chip": "ym2612"
    },
    {
      "channel": 2,
      "note": 41,
      "start": 17.6783,
      "duration": 0.0135,
      "velocity": 123,
      "chip": "ym2612"
    },
    {
      "channel": 3,
      "note": 51,
      "start": 17.6832,
      "duration": 0.1055,
      "velocity": 127,
      "chip": "ym2612"
    },
    {
      "channel": 3,
      "note": 51,
      "start": 17.789,
      "duration": 0.1302,
      "velocity": 127,
      "chip": "ym2612"
    },
    {
      "channel": 1,
      "note": 53,
      "start": 17.9136,
      "duration": 0.1152,
      "velocity": 92,
      "chip": "ym2612"
    },
    {
      "channel": 2,
      "note": 29,
      "start": 17.9183,
      "duration": 0.0142,
      "velocity": 125,
      "chip": "ym2612"
    },
    {
      "channel": 3,
      "note": 63,
      "start": 17.923,
      "duration": 0.2243,
      "velocity": 127,
      "chip": "ym2612"
    },
    {
      "channel": 0,
      "note": 89,
      "start": 18.1446,
      "duration": 0.4233,
      "velocity": 90,
      "chip": "ym2612"
    },
    {
      "channel": 1,
      "note": 56,
      "start": 18.1455,
      "duration": 0.4226,
      "velocity": 92,
      "chip": "ym2612"
    },
    {
      "channel": 2,
      "note": 29,
      "start": 18.1463,
      "duration": 0.0366,
      "velocity": 125,
      "chip": "ym2612"
    },
    {
      "channel": 3,
      "note": 51,
      "start": 18.1512,
      "duration": 0.1185,
      "velocity": 127,
      "chip": "ym2612"
    },
    {
      "channel": 3,
      "note": 51,
      "start": 18.2701,
      "duration": 0.1156,
      "velocity": 127,
      "chip": "ym2612"
    },
    {
      "channel": 3,
      "note": 63,
      "start": 18.3896,
      "duration": 0.2432,
      "velocity": 127,
      "chip": "ym2612"
    },
    {
      "channel": 0,
      "note": 87,
      "start": 18.6262,
      "duration": 0.4137,
      "velocity": 90,
      "chip": "ym2612"
    },
    {
      "channel": 1,
      "note": 49,
      "start": 18.6271,
      "duration": 0.1145,
      "velocity": 92,
      "chip": "ym2612"
    },
    {
      "channel": 2,
      "note": 41,
      "start": 18.6318,
      "duration": 0.0327,
      "velocity": 123,
      "chip": "ym2612"
    },
    {
      "channel": 3,
      "note": 51,
      "start": 18.6368,
      "duration": 0.1061,
      "velocity": 127,
      "chip": "ym2612"
    },
    {
      "channel": 1,
      "note": 61,
      "start": 18.7419,
      "duration": 0.1247,
      "velocity": 92,
      "chip": "ym2612"
    },
    {
      "channel": 3,
      "note": 63,
      "start": 18.7466,
      "duration": 0.2366,
      "velocity": 127,
      "chip": "ym2612"
    },
    {
      "channel": 3,
      "note": 51,
      "start": 18.9871,
      "duration": 0.1181,
      "velocity": 127,
      "chip": "ym2612"
    },
    {
      "channel": 0,
      "note": 85,
      "start": 19.0981,
      "duration": 0.1248,
      "velocity": 90,
      "chip": "ym2612"
    },
    {
      "channel": 1,
      "note": 54,
      "start": 19.099,
      "duration": 0.4227,
      "velocity": 92,
      "chip": "ym2612"
    },
    {
      "channel": 2,
      "note": 29,
      "start": 19.1038,
      "duration": 0.0422,
      "velocity": 125,
      "chip": "ym2612"
    },
    {
      "channel": 3,
      "note": 51,
      "start": 19.1091,
      "duration": 0.1147,
      "velocity": 127,
      "chip": "ym2612"
    },
    {
      "channel": 4,
      "note": 61,
      "start": 19.1099,
      "duration": 1.916,
      "velocity": 103,
      "chip": "ym2612"
    },
    {
      "channel": 5,
      "note": 77,
      "start": 19.1107,
      "duration": 1.9161,
      "velocity": 103,
      "chip": "ym2612"
    },
    {
      "channel": 0,
      "note": 87,
      "start": 19.2233,
      "duration": 0.1153,
      "velocity": 90,
      "chip": "ym2612"
    },
    {
      "channel": 3,
      "note": 51,
      "start": 19.2242,
      "duration": 0.1158,
      "velocity": 127,
      "chip": "ym2612"
    },
    {
      "channel": 0,
      "note": 89,
      "start": 19.339,
      "duration": 1.4729,
      "velocity": 90,
      "chip": "ym2612"
    },
    {
      "channel": 3,
      "note": 63,
      "start": 19.3437,
      "duration": 0.2417,
      "velocity": 127,
      "chip": "ym2612"
    },
    {
      "channel": 1,
      "note": 54,
      "start": 19.5797,
      "duration": 0.1152,
      "velocity": 92,
      "chip": "ym2612"
    },
    {
      "channel": 2,
      "note": 41,
      "start": 19.5844,
      "duration": 0.0142,
      "velocity": 123,
      "chip": "ym2612"
    },
    {
      "channel": 3,
      "note": 51,
      "start": 19.5894,
      "duration": 0.1059,
      "velocity": 127,
      "chip": "ym2612"
    },
    {
      "channel": 3,
      "note": 51,
      "start": 19.6957,
      "duration": 0.1305,
      "velocity": 127,
      "chip": "ym2612"
    },
    {
      "channel": 1,
      "note": 61,
      "start": 19.8205,
      "duration": 0.1151,
      "velocity": 92,
      "chip": "ym2612"
    },
    {
      "channel": 2,
      "note": 29,
      "start": 19.8254,
      "duration": 0.0139,
      "velocity": 125,
      "chip": "ym2612"
    },
    {
      "channel": 3,
      "note": 63,
      "start": 19.8299,
      "duration": 0.2331,
      "velocity": 127,
      "chip": "ym2612"
    },
    {
      "channel": 1,
      "note": 66,
      "start": 20.0612,
      "duration": 0.4137,
      "velocity": 92,
      "chip": "ym2612"
    },
    {
      "channel": 2,
      "note": 29,
      "start": 20.062,
      "duration": 0.0374,
      "velocity": 125,
      "chip": "ym2612"
    },
    {
      "channel": 3,
      "note": 51,
      "start": 20.067,
      "duration": 0.1096,
      "velocity": 127,
      "chip": "ym2612"
    },
    {
      "channel": 3,
      "note": 51,
      "start": 20.177,
      "duration": 0.1156,
      "velocity": 127,
      "chip": "ym2612"
    },
    {
      "channel": 3,
      "note": 63,
      "start": 20.2963,
      "duration": 0.2427,
      "velocity": 127,
      "chip": "ym2612"
    },
    {
      "channel": 1,
      "note": 61,
      "start": 20.5331,
      "duration": 0.4137,
      "velocity": 92,
      "chip": "ym2612"
    },
    {
      "channel": 2,
      "note": 41,
      "start": 20.5379,
      "duration": 0.0334,
      "velocity": 123,
      "chip": "ym2612"
    },
    {
      "channel": 3,
      "note": 51,
      "start": 20.5429,
      "duration": 0.1055,
      "velocity": 127,
      "chip": "ym2612"
    },
    {
      "channel": 3,
      "note": 51,
      "start": 20.6488,
      "duration": 0.1253,
      "velocity": 127,
      "chip": "ym2612"
    },
    {
      "channel": 3,
      "note": 63,
      "start": 20.7778,
      "duration": 0.2435,
      "velocity": 127,
      "chip": "ym2612"
    },
    {
      "channel": 0,
      "note": 87,
      "start": 21.0146,
      "duration": 1.6656,
      "velocity": 90,
      "chip": "ym2612"
    },
    {
      "channel": 1,
      "note": 59,
      "start": 21.0153,
      "duration": 1.6651,
      "velocity": 92,
      "chip": "ym2612"
    },
    {
      "channel": 2,
      "note": 29,
      "start": 21.0204,
      "duration": 0.0132,
      "velocity": 125,
      "chip": "ym2612"
    },
    {
      "channel": 3,
      "note": 51,
      "start": 21.0255,
      "duration": 0.1045,
      "velocity": 127,
      "chip": "ym2612"
    },
    {
      "channel": 4,
      "note": 66,
      "start": 21.0263,
      "duration": 0.9475,
      "velocity": 103,
      "chip": "ym2612"
    },
    {
      "channel": 5,
      "note": 82,
      "start": 21.0271,
      "duration": 0.9474,
      "velocity": 103,
      "chip": "ym2612"
    },
    {
      "channel": 3,
      "note": 51,
      "start": 21.1304,
      "duration": 0.1204,
      "velocity": 127,
      "chip": "ym2612"
    },
    {
      "channel": 2,
      "note": 46,
      "start": 21.2499,
      "duration": 0.0148,
      "velocity": 123,
      "chip": "ym2612"
    },
    {
      "channel": 3,
      "note": 63,
      "start": 21.2545,
      "duration": 0.2372,
      "velocity": 127,
      "chip": "ym2612"
    },
    {
      "channel": 2,
      "note": 29,
      "start": 21.4907,
      "duration": 0.0149,
      "velocity": 125,
      "chip": "ym2612"
    },
    {
      "channel": 3,
      "note": 51,
      "start": 21.4956,
      "duration": 0.1205,
      "velocity": 127,
      "chip": "ym2612"
    },
    {
      "channel": 2,
      "note": 43,
      "start": 21.6158,
      "duration": 0.0341,
      "velocity": 123,
      "chip": "ym2612"
    },
    {
      "channel": 3,
      "note": 51,
      "start": 21.6166,
      "duration": 0.111,
      "velocity": 127,
      "chip": "ym2612"
    },
    {
      "channel": 3,
      "note": 63,
      "start": 21.7312,
      "duration": 0.2379,
      "velocity": 127,
      "chip": "ym2612"
    },
    {
      "channel": 2,
      "note": 39,
      "start": 21.9682,
      "duration": 0.0188,
      "velocity": 123,
      "chip": "ym2612"
    },
    {
      "channel": 3,
      "note": 51,
      "start": 21.9732,
      "duration": 0.1102,
      "velocity": 127,
      "chip": "ym2612"
    },
    {
      "channel": 4,
      "note": 70,
      "start": 21.9741,
      "duration": 0.9087,
      "velocity": 103,
      "chip": "ym2612"
    },
    {
      "channel": 5,
      "note": 87,
      "start": 21.9749,
      "duration": 0.96,
      "velocity": 103,
      "chip": "ym2612"
    },
    {
      "channel": 3,
      "note": 51,
      "start": 22.0838,
      "duration": 0.1163,
      "velocity": 127,
      "chip": "ym2612"
    },
    {
      "channel": 2,
      "note": 41,
      "start": 22.1993,
      "duration": 0.0284,
      "velocity": 123,
      "chip": "ym2612"
    },
    {
      "channel": 3,
      "note": 63,
      "start": 22.2039,
      "duration": 0.2372,
      "velocity": 127,
      "chip": "ym2612"
    },
    {
      "channel": 2,
      "note": 41,
      "start": 22.286,
      "duration": 0.019,
      "velocity": 123,
      "chip": "ym2612"
    },
    {
      "channel": 2,
      "note": 41,
      "start": 22.363,
      "duration": 0.0188,
      "velocity": 123,
      "chip": "ym2612"
    },
    {
      "channel": 2,
      "note": 39,
      "start": 22.44,
      "duration": 0.0188,
      "velocity": 123,
      "chip": "ym2612"
    },
    {
      "channel": 3,
      "note": 51,
      "start": 22.4449,
      "duration": 0.1207,
      "velocity": 127,
      "chip": "ym2612"
    },
    {
      "channel": 2,
      "note": 37,
      "start": 22.5652,
      "duration": 0.0381,
      "velocity": 123,
      "chip": "ym2612"
    },
    {
      "channel": 3,
      "note": 51,
      "start": 22.566,
      "duration": 0.1152,
      "velocity": 127,
      "chip": "ym2612"
    },
    {
      "channel": 3,
      "note": 63,
      "start": 22.6849,
      "duration": 0.244,
      "velocity": 127,
      "chip": "ym2612"
    },
    {
      "channel": 1,
      "note": 58,
      "start": 22.9222,
      "duration": 0.4129,
      "velocity": 92,
      "chip": "ym2612"
    },
    {
      "channel": 2,
      "note": 29,
      "start": 22.9273,
      "duration": 0.0323,
      "velocity": 125,
      "chip": "ym2612"
    },
    {
      "channel": 3,
      "note": 51,
      "start": 22.9329,
      "duration": 0.104,
      "velocity": 127,
      "chip": "ym2612"
    },
    {
      "channel": 4,
      "note": 77,
      "start": 22.9343,
      "duration": 2.3856,
      "velocity": 103,
      "chip": "ym2612"
    },
    {
      "channel": 5,
      "note": 81,
      "start": 22.9354,
      "duration": 1.9041,
      "velocity": 103,
      "chip": "ym2612"
    },
    {
      "channel": 3,
      "note": 51,
      "start": 23.0373,
      "duration": 0.1253,
      "velocity": 127,
      "chip": "ym2612"
    },
    {
      "channel": 3,
      "note": 63,
      "start": 23.1662,
      "duration": 0.233,
      "velocity": 127,
      "chip": "ym2612"
    },
    {
      "channel": 1,
      "note": 58,
      "start": 23.3934,
      "duration": 0.1248,
      "velocity": 92,
      "chip": "ym2612"
    },
    {
      "channel": 2,
      "note": 41,
      "start": 23.3983,
      "duration": 0.0141,
      "velocity": 123,
      "chip": "ym2612"
    },
    {
      "channel": 3,
      "note": 51,
      "start": 23.4032,
      "duration": 0.1155,
      "velocity": 127,
      "chip": "ym2612"
    },
    {
      "channel": 3,
      "note": 51,
      "start": 23.519,
      "duration": 0.1209,
      "velocity": 127,
      "chip": "ym2612"
    },
    {
      "channel": 1,
      "note": 53,
      "start": 23.6343,
      "duration": 0.1248,
      "velocity": 92,
      "chip": "ym2612"
    },
    {
      "channel": 2,
      "note": 29,
      "start": 23.6391,
      "duration": 0.014,
      "velocity": 125,
      "chip": "ym2612"
    },
    {
      "channel": 3,
      "note": 63,
      "start": 23.6437,
      "duration": 0.2339,
      "velocity": 127,
      "chip": "ym2612"
    },
    {
      "channel": 0,
      "note": 86,
      "start": 23.8748,
      "duration": 0.2211,
      "velocity": 90,
      "chip": "ym2612"
    },
    {
      "channel": 1,
      "note": 58,
      "start": 23.8757,
      "duration": 0.3166,
      "velocity": 92,
      "chip": "ym2612"
    },
    {
      "channel": 2,
      "note": 29,
      "start": 23.8765,
      "duration": 0.0366,
      "velocity": 125,
      "chip": "ym2612"
    },
    {
      "channel": 3,
      "note": 51,
      "start": 23.8815,
      "duration": 0.1088,
      "velocity": 127,
      "chip": "ym2612"
    },
    {
      "channel": 3,
      "note": 51,
      "start": 23.9907,
      "duration": 0.1259,
      "velocity": 127,
      "chip": "ym2612"
    },
    {
      "channel": 0,
      "note": 87,
      "start": 24.1156,
      "duration": 0.1152,
      "velocity": 90,
      "chip": "ym2612"
    },
    {
      "channel": 3,
      "note": 63,
      "start": 24.1203,
      "duration": 0.2321,
      "velocity": 127,
      "chip": "ym2612"
    },
    {
      "channel": 0,
      "note": 86,
      "start": 24.2312,
      "duration": 0.1151,
      "velocity": 90,
      "chip": "ym2612"
    },
    {
      "channel": 1,
      "note": 65,
      "start": 24.2319,
      "duration": 0.1148,
      "velocity": 92,
      "chip": "ym2612"
    },
    {
      "channel": 2,
      "note": 29,
      "start": 24.2327,
      "duration": 0.0175,
      "velocity": 125,
      "chip": "ym2612"
    },
    {
      "channel": 2,
      "note": 41,
      "start": 24.3514,
      "duration": 0.024,
      "velocity": 123,
      "chip": "ym2612"
    },
    {
      "channel": 3,
      "note": 51,
      "start": 24.3564,
      "duration": 0.1217,
      "velocity": 127,
      "chip": "ym2612"
    },
    {
      "channel": 0,
      "note": 87,
      "start": 24.4721,
      "duration": 0.3172,
      "velocity": 90,
      "chip": "ym2612"
    },
    {
      "channel": 1,
      "note": 53,
      "start": 24.4729,
      "duration": 0.1142,
      "velocity": 92,
      "chip": "ym2612"
    },
    {
      "channel": 2,
      "note": 29,
      "start": 24.4776,
      "duration": 0.0326,
      "velocity": 125,
      "chip": "ym2612"
    },
    {
      "channel": 3,
      "note": 51,
      "start": 24.4784,
      "duration": 0.1097,
      "velocity": 127,
      "chip": "ym2612"
    },
    {
      "channel": 3,
      "note": 63,
      "start": 24.5919,
      "duration": 0.2429,
      "velocity": 127,
      "chip": "ym2612"
    },
    {
      "channel": 0,
      "note": 89,
      "start": 24.8282,
      "duration": 0.6352,
      "velocity": 90,
      "chip": "ym2612"
    },
    {
      "channel": 1,
      "note": 58,
      "start": 24.8292,
      "duration": 0.4128,
      "velocity": 92,
      "chip": "ym2612"
    },
    {
      "channel": 2,
      "note": 29,
      "start": 24.8339,
      "duration": 0.0326,
      "velocity": 125,
      "chip": "ym2612"
    },
    {
      "channel": 3,
      "note": 51,
      "start": 24.839,
      "duration": 0.1047,
      "velocity": 127,
      "chip": "ym2612"
    },
    {
      "channel": 5,
      "note": 80,
      "start": 24.8398,
      "duration": 1.9075,
      "velocity": 103,
      "chip": "ym2612"
    },
    {
      "channel": 3,
      "note": 51,
      "start": 24.9441,
      "duration": 0.1253,
      "velocity": 127,
      "chip": "ym2612"
    },
    {
      "channel": 3,
      "note": 63,
      "start": 25.0732,
      "duration": 0.2424,
      "velocity": 127,
      "chip": "ym2612"
    },
    {
      "channel": 1,
      "note": 58,
      "start": 25.3098,
      "duration": 0.1152,
      "velocity": 92,
      "chip": "ym2612"
    },
    {
      "channel": 2,
      "note": 41,
      "start": 25.3146,
      "duration": 0.0142,
      "velocity": 123,
      "chip": "ym2612"
    },
    {
      "channel": 3,
      "note": 51,
      "start": 25.3195,
      "duration": 0.106,
      "velocity": 127,
      "chip": "ym2612"
    },
    {
      "channel": 4,
      "note": 68,
      "start": 25.3203,
      "duration": 0.4686,
      "velocity": 103,
      "chip": "ym2612"
    },
    {
      "channel": 3,
      "note": 51,
      "start": 25.4259,
      "duration": 0.1215,
      "velocity": 127,
      "chip": "ym2612"
    },
    {
      "channel": 0,
      "note": 87,
      "start": 25.5409,
      "duration": 0.2211,
      "velocity": 90,
      "chip": "ym2612"
    },
    {
      "channel": 1,
      "note": 53,
      "start": 25.5418,
      "duration": 0.1241,
      "velocity": 92,
      "chip": "ym2612"
    },
    {
      "channel": 2,
      "note": 29,
      "start": 25.5466,
      "duration": 0.0134,
      "velocity": 125,
      "chip": "ym2612"
    },
    {
      "channel": 3,
      "note": 63,
      "start": 25.5511,
      "duration": 0.2333,
      "velocity": 127,
      "chip": "ym2612"
    },
    {
      "channel": 0,
      "note": 85,
      "start": 25.7817,
      "duration": 0.4137,
      "velocity": 90,
      "chip": "ym2612"
    },
    {
      "channel": 1,
      "note": 58,
      "start": 25.7826,
      "duration": 0.413,
      "velocity": 92,
      "chip": "ym2612"
    },
    {
      "channel": 2,
      "note": 29,
      "start": 25.7834,
      "duration": 0.0366,
      "velocity": 125,
      "chip": "ym2612"
    },
    {
      "channel": 3,
      "note": 51,
      "start": 25.7885,
      "duration": 0.1087,
      "velocity": 127,
      "chip": "ym2612"
    },
    {
      "channel": 4,
      "note": 73,
      "start": 25.7892,
      "duration": 0.4851,
      "velocity": 103,
      "chip": "ym2612"
    },
    {
      "channel": 3,
      "note": 51,
      "start": 25.8975,
      "duration": 0.1254,
      "velocity": 127,
      "chip": "ym2612"
    },
    {
      "channel": 3,
      "note": 63,
      "start": 26.0266,
      "duration": 0.2432,
      "velocity": 127,
      "chip": "ym2612"
    },
    {
      "channel": 0,
      "note": 87,
      "start": 26.2632,
      "duration": 0.3173,
      "velocity": 90,
      "chip": "ym2612"
    },
    {
      "channel": 1,
      "note": 51,
      "start": 26.2641,
      "duration": 0.1145,
      "velocity": 92,
      "chip": "ym2612"
    },
    {
      "channel": 2,
      "note": 41,
      "start": 26.2688,
      "duration": 0.0327,
      "velocity": 123,
      "chip": "ym2612"
    },
    {
      "channel": 3,
      "note": 51,
      "start": 26.2739,
      "duration": 0.106,
      "velocity": 127,
      "chip": "ym2612"
    },
    {
      "channel": 4,
      "note": 77,
      "start": 26.2747,
      "duration": 0.4717,
      "velocity": 103,
      "chip": "ym2612"
    },
    {
      "channel": 1,
      "note": 63,
      "start": 26.3789,
      "duration": 0.1151,
      "velocity": 92,
      "chip": "ym2612"
    },
    {
      "channel": 3,
      "note": 63,
      "start": 26.3836,
      "duration": 0.2373,
      "velocity": 127,
      "chip": "ym2612"
    },
    {
      "channel": 0,
      "note": 86,
      "start": 26.6195,
      "duration": 0.0575,
      "velocity": 90,
      "chip": "ym2612"
    },
    {
      "channel": 3,
      "note": 51,
      "start": 26.6249,
      "duration": 0.1172,
      "velocity": 127,
      "chip": "ym2612"
    },
    {
      "channel": 0,
      "note": 85,
      "start": 26.6773,
      "duration": 0.0574,
      "velocity": 90,
      "chip": "ym2612"
    },
    {
      "channel": 0,
      "note": 84,
      "start": 26.7351,
      "duration": 0.8374,
      "velocity": 90,
      "chip": "ym2612"
    },
    {
      "channel": 1,
      "note": 56,
      "start": 26.7359,
      "duration": 0.4227,
      "velocity": 92,
      "chip": "ym2612"
    },
    {
      "channel": 2,
      "note": 29,
      "start": 26.7409,
      "duration": 0.0325,
      "velocity": 125,
      "chip": "ym2612"
    },
    {
      "channel": 3,
      "note": 51,
      "start": 26.746,
      "duration": 0.1141,
      "velocity": 127,
      "chip": "ym2612"
    },
    {
      "channel": 4,
      "note": 75,
      "start": 26.7468,
      "duration": 2.3869,
      "velocity": 103,
      "chip": "ym2612"
    },
    {
      "channel": 5,
      "note": 79,
      "start": 26.7477,
      "duration": 1.9053,
      "velocity": 103,
      "chip": "ym2612"
    },
    {
      "channel": 3,
      "note": 51,
      "start": 26.8605,
      "duration": 0.1156,
      "velocity": 127,
      "chip": "ym2612"
    },
    {
      "channel": 3,
      "note": 63,
      "start": 26.9799,
      "duration": 0.2427,
      "velocity": 127,
      "chip": "ym2612"
    },
    {
      "channel": 1,
      "note": 56,
      "start": 27.2167,
      "duration": 0.1152,
      "velocity": 92,
      "chip": "ym2612"
    },
    {
      "channel": 2,
      "note": 41,
      "start": 27.2217,
      "duration": 0.014,
      "velocity": 123,
      "chip": "ym2612"
    },
    {
      "channel": 3,
      "note": 51,
      "start": 27.2266,
      "duration": 0.1058,
      "velocity": 127,
      "chip": "ym2612"
    },
    {
      "channel": 3,
      "note": 51,
      "start": 27.3327,
      "duration": 0.1304,
      "velocity": 127,
      "chip": "ym2612"
    },
    {
      "channel": 1,
      "note": 51,
      "start": 27.4576,
      "duration": 0.1152,
      "velocity": 92,
      "chip": "ym2612"
    },
    {
      "channel": 2,
      "note": 29,
      "start": 27.4623,
      "duration": 0.0141,
      "velocity": 125,
      "chip": "ym2612"
    },
    {
      "channel": 3,
      "note": 63,
      "start": 27.4668,
      "duration": 0.2245,
      "velocity": 127,
      "chip": "ym2612"
    },
    {
      "channel": 0,
      "note": 84,
      "start": 27.6887,
      "duration": 0.2209,
      "velocity": 90,
      "chip": "ym2612"
    },
    {
      "channel": 1,
      "note": 56,
      "start": 27.6895,
      "duration": 0.3164,
      "velocity": 92,
      "chip": "ym2612"
    },
    {
      "channel": 2,
      "note": 29,
      "start": 27.6904,
      "duration": 0.0365,
      "velocity": 125,
      "chip": "ym2612"
    },
    {
      "channel": 3,
      "note": 51,
      "start": 27.6953,
      "duration": 0.1183,
      "velocity": 127,
      "chip": "ym2612"
    },
    {
      "channel": 3,
      "note": 51,
      "start": 27.814,
      "duration": 0.1163,
      "velocity": 127,
      "chip": "ym2612"
    },
    {
      "channel": 0,
      "note": 85,
      "start": 27.9293,
      "duration": 0.1152,
      "velocity": 90,
      "chip": "ym2612"
    },
    {
      "channel": 3,
      "note": 63,
      "start": 27.934,
      "duration": 0.2418,
      "velocity": 127,
      "chip": "ym2612"
    },
    {
      "channel": 0,
      "note": 84,
      "start": 28.0448,
      "duration": 0.1248,
      "velocity": 90,
      "chip": "ym2612"
    },
    {
      "channel": 1,
      "note": 63,
      "start": 28.0456,
      "duration": 0.1244,
      "velocity": 92,
      "chip": "ym2612"
    },
    {
      "channel": 2,
      "note": 29,
      "start": 28.0463,
      "duration": 0.0272,
      "velocity": 125,
      "chip": "ym2612"
    },
    {
      "channel": 2,
      "note": 41,
      "start": 28.1749,
      "duration": 0.0142,
      "velocity": 123,
      "chip": "ym2612"
    },
    {
      "channel": 3,
      "note": 51,
      "start": 28.1798,
      "duration": 0.112,
      "velocity": 127,
      "chip": "ym2612"
    },
    {
      "channel": 0,
      "note": 85,
      "start": 28.2856,
      "duration": 0.3174,
      "velocity": 90,
      "chip": "ym2612"
    },
    {
      "channel": 1,
      "note": 51,
      "start": 28.2865,
      "duration": 0.1241,
      "velocity": 92,
      "chip": "ym2612"
    },
    {
      "channel": 2,
      "note": 29,
      "start": 28.2914,
      "duration": 0.0325,
      "velocity": 125,
      "chip": "ym2612"
    },
    {
      "channel": 3,
      "note": 51,
      "start": 28.2922,
      "duration": 0.1193,
      "velocity": 127,
      "chip": "ym2612"
    },
    {
      "channel": 3,
      "note": 63,
      "start": 28.4151,
      "duration": 0.2334,
      "velocity": 127,
      "chip": "ym2612"
    },
    {
      "channel": 0,
      "note": 87,
      "start": 28.6419,
      "duration": 0.6352,
      "velocity": 90,
      "chip": "ym2612"
    },
    {
      "channel": 1,
      "note": 56,
      "start": 28.6429,
      "duration": 0.4225,
      "velocity": 92,
      "chip": "ym2612"
    },
    {
      "channel": 2,
      "note": 29,
      "start": 28.6476,
      "duration": 0.0423,
      "velocity": 125,
      "chip": "ym2612"
    },
    {
      "channel": 3,
      "note": 51,
      "start": 28.6525,
      "duration": 0.1146,
      "velocity": 127,
      "chip": "ym2612"
    },
    {
      "channel": 5,
      "note": 78,
      "start": 28.6534,
      "duration": 1.9177,
      "velocity": 103,
      "chip": "ym2612"
    },
    {
      "channel": 3,
      "note": 51,
      "start": 28.7674,
      "duration": 0.1156,
      "velocity": 127,
      "chip": "ym2612"
    },
    {
      "channel": 3,
      "note": 63,
      "start": 28.8868,
      "duration": 0.2425,
      "velocity": 127,
      "chip": "ym2612"
    },
    {
      "channel": 1,
      "note": 56,
      "start": 29.1236,
      "duration": 0.1153,
      "velocity": 92,
      "chip": "ym2612"
    },
    {
      "channel": 2,
      "note": 41,
      "start": 29.1283,
      "duration": 0.0142,
      "velocity": 123,
      "chip": "ym2612"
    },
    {
      "channel": 3,
      "note": 51,
      "start": 29.1332,
      "duration": 0.1062,
      "velocity": 127,
      "chip": "ym2612"
    },
    {
      "channel": 4,
      "note": 66,
      "start": 29.1341,
      "duration": 0.4684,
      "velocity": 103,
      "chip": "ym2612"
    },
    {
      "channel": 3,
      "note": 51,
      "start": 29.2397,
      "duration": 0.131,
      "velocity": 127,
      "chip": "ym2612"
    },
    {
      "channel": 0,
      "note": 85,
      "start": 29.3642,
      "duration": 0.2115,
      "velocity": 90,
      "chip": "ym2612"
    },
    {
      "channel": 1,
      "note": 51,
      "start": 29.3651,
      "duration": 0.1144,
      "velocity": 92,
      "chip": "ym2612"
    },
    {
      "channel": 2,
      "note": 29,
      "start": 29.3698,
      "duration": 0.0134,
      "velocity": 125,
      "chip": "ym2612"
    },
    {
      "channel": 3,
      "note": 63,
      "start": 29.3745,
      "duration": 0.2235,
      "velocity": 127,
      "chip": "ym2612"
    },
    {
      "channel": 0,
      "note": 83,
      "start": 29.5953,
      "duration": 0.4234,
      "velocity": 90,
      "chip": "ym2612"
    },
    {
      "channel": 1,
      "note": 56,
      "start": 29.5963,
      "duration": 0.4226,
      "velocity": 92,
      "chip": "ym2612"
    },
    {
      "channel": 2,
      "note": 29,
      "start": 29.5971,
      "duration": 0.0463,
      "velocity": 125,
      "chip": "ym2612"
    },
    {
      "channel": 3,
      "note": 51,
      "start": 29.602,
      "duration": 0.1184,
      "velocity": 127,
      "chip": "ym2612"
    },
    {
      "channel": 4,
      "note": 73,
      "start": 29.6029,
      "duration": 0.485,
      "velocity": 103,
      "chip": "ym2612"
    },
    {
      "channel": 3,
      "note": 51,
      "start": 29.7208,
      "duration": 0.1156,
      "velocity": 127,
      "chip": "ym2612"
    },
    {
      "channel": 3,
      "note": 63,
      "start": 29.8403,
      "duration": 0.2432,
      "velocity": 127,
      "chip": "ym2612"
    },
    {
      "channel": 0,
      "note": 85,
      "start": 30.0769,
      "duration": 0.3174,
      "velocity": 90,
      "chip": "ym2612"
    },
    {
      "channel": 1,
      "note": 49,
      "start": 30.0778,
      "duration": 0.1145,
      "velocity": 92,
      "chip": "ym2612"
    },
    {
      "channel": 2,
      "note": 41,
      "start": 30.0825,
      "duration": 0.0327,
      "velocity": 123,
      "chip": "ym2612"
    },
    {
      "channel": 3,
      "note": 51,
      "start": 30.0874,
      "duration": 0.1061,
      "velocity": 127,
      "chip": "ym2612"
    },
    {
      "channel": 4,
      "note": 75,
      "start": 30.0884,
      "duration": 0.4818,
      "velocity": 103,
      "chip": "ym2612"
    },
    {
      "channel": 1,
      "note": 61,
      "start": 30.1927,
      "duration": 0.1247,
      "velocity": 92,
      "chip": "ym2612"
    },
    {
      "channel": 3,
      "note": 63,
      "start": 30.1973,
      "duration": 0.2372,
      "velocity": 127,
      "chip": "ym2612"
    },
    {
      "channel": 0,
      "note": 84,
      "start": 30.4332,
      "duration": 0.0575,
      "velocity": 90,
      "chip": "ym2612"
    },
    {
      "channel": 3,
      "note": 51,
      "start": 30.4386,
      "duration": 0.1273,
      "velocity": 127,
      "chip": "ym2612"
    },
    {
      "channel": 0,
      "note": 83,
      "start": 30.491,
      "duration": 0.067,
      "velocity": 90,
      "chip": "ym2612"
    },
    {
      "channel": 0,
      "note": 82,
      "start": 30.5584,
      "duration": 0.8278,
      "velocity": 90,
      "chip": "ym2612"
    },
    {
      "channel": 1,
      "note": 54,
      "start": 30.5593,
      "duration": 0.4129,
      "velocity": 92,
      "chip": "ym2612"
    },
    {
      "channel": 2,
      "note": 29,
      "start": 30.5647,
      "duration": 0.032,
      "velocity": 125,
      "chip": "ym2612"
    },
    {
      "channel": 3,
      "note": 51,
      "start": 30.5698,
      "duration": 0.1041,
      "velocity": 127,
      "chip": "ym2612"
    },
    {
      "channel": 4,
      "note": 73,
      "start": 30.5706,
      "duration": 1.4242,
      "velocity": 103,
      "chip": "ym2612"
    },
    {
      "channel": 5,
      "note": 77,
      "start": 30.5714,
      "duration": 1.906,
      "velocity": 103,
      "chip": "ym2612"
    },
    {
      "channel": 3,
      "note": 51,
      "start": 30.6743,
      "duration": 0.1156,
      "velocity": 127,
      "chip": "ym2612"
    },
    {
      "channel": 3,
      "note": 63,
      "start": 30.7936,
      "duration": 0.2426,
      "velocity": 127,
      "chip": "ym2612"
    },
    {
      "channel": 1,
      "note": 54,
      "start": 31.0304,
      "duration": 0.1249,
      "velocity": 92,
      "chip": "ym2612"
    },
    {
      "channel": 2,
      "note": 41,
      "start": 31.0351,
      "duration": 0.0142,
      "velocity": 123,
      "chip": "ym2612"
    },
    {
      "channel": 3,
      "note": 51,
      "start": 31.0402,
      "duration": 0.1156,
      "velocity": 127,
      "chip": "ym2612"
    },
    {
      "channel": 3,
      "note": 51,
      "start": 31.1562,
      "duration": 0.1207,
      "velocity": 127,
      "chip": "ym2612"
    },
    {
      "channel": 1,
      "note": 49,
      "start": 31.2712,
      "duration": 0.1153,
      "velocity": 92,
      "chip": "ym2612"
    },
    {
      "channel": 2,
      "note": 29,
      "start": 31.2761,
      "duration": 0.0141,
      "velocity": 125,
      "chip": "ym2612"
    },
    {
      "channel": 3,
      "note": 63,
      "start": 31.2806,
      "duration": 0.2339,
      "velocity": 127,
      "chip": "ym2612"
    },
    {
      "channel": 0,
      "note": 82,
      "start": 31.5118,
      "duration": 0.4137,
      "velocity": 90,
      "chip": "ym2612"
    },
    {
      "channel": 1,
      "note": 54,
      "start": 31.5126,
      "duration": 0.4131,
      "velocity": 92,
      "chip": "ym2612"
    },
    {
      "channel": 2,
      "note": 29,
      "start": 31.5134,
      "duration": 0.0367,
      "velocity": 125,
      "chip": "ym2612"
    },
    {
      "channel": 3,
      "note": 51,
      "start": 31.5184,
      "duration": 0.109,
      "velocity": 127,
      "chip": "ym2612"
    },
    {
      "channel": 3,
      "note": 51,
      "start": 31.6277,
      "duration": 0.1156,
      "velocity": 127,
      "chip": "ym2612"
    },
    {
      "channel": 3,
      "note": 63,
      "start": 31.747,
      "duration": 0.2435,
      "velocity": 127,
      "chip": "ym2612"
    },
    {
      "channel": 0,
      "note": 87,
      "start": 31.9838,
      "duration": 0.4233,
      "velocity": 90,
      "chip": "ym2612"
    },
    {
      "channel": 1,
      "note": 56,
      "start": 31.9846,
      "duration": 0.4226,
      "velocity": 92,
      "chip": "ym2612"
    },
    {
      "channel": 2,
      "note": 41,
      "start": 31.9895,
      "duration": 0.0326,
      "velocity": 123,
      "chip": "ym2612"
    },
    {
      "channel": 3,
      "note": 51,
      "start": 31.9944,
      "duration": 0.1144,
      "velocity": 127,
      "chip": "ym2612"
    },
    {
      "channel": 4,
      "note": 71,
      "start": 31.9952,
      "duration": 0.4813,
      "velocity": 103,
      "chip": "ym2612"
    },
    {
      "channel": 3,
      "note": 51,
      "start": 32.1092,
      "duration": 0.1156,
      "velocity": 127,
      "chip": "ym2612"
    },
    {
      "channel": 3,
      "note": 63,
      "start": 32.2285,
      "duration": 0.2436,
      "velocity": 127,
      "chip": "ym2612"
    },
    {
      "channel": 0,
      "note": 85,
      "start": 32.4652,
      "duration": 0.4137,
      "velocity": 90,
      "chip": "ym2612"
    },
    {
      "channel": 1,
      "note": 51,
      "start": 32.4662,
      "duration": 0.413,
      "velocity": 92,
      "chip": "ym2612"
    },
    {
      "channel": 2,
      "note": 29,
      "start": 32.471,
      "duration": 0.0325,
      "velocity": 125,
      "chip": "ym2612"
    },
    {
      "channel": 3,
      "note": 51,
      "start": 32.4761,
      "duration": 0.1046,
      "velocity": 127,
      "chip": "ym2612"
    },
    {
      "channel": 4,
      "note": 70,
      "start": 32.4769,
      "duration": 0.9481,
      "velocity": 103,
      "chip": "ym2612"
    },
    {
      "channel": 5,
      "note": 85,
      "start": 32.4778,
      "duration": 1.9066,
      "velocity": 103,
      "chip": "ym2612"
    },
    {
      "channel": 3,
      "note": 51,
      "start": 32.5811,
      "duration": 0.1253,
      "velocity": 127,
      "chip": "ym2612"
    },
    {
      "channel": 3,
      "note": 63,
      "start": 32.71,
      "duration": 0.2339,
      "velocity": 127,
      "chip": "ym2612"
    },
    {
      "channel": 0,
      "note": 92,
      "start": 32.9373,
      "duration": 0.8373,
      "velocity": 90,
      "chip": "ym2612"
    },
    {
      "channel": 1,
      "note": 51,
      "start": 32.938,
      "duration": 0.124,
      "velocity": 92,
      "chip": "ym2612"
    },
    {
      "channel": 2,
      "note": 41,
      "start": 32.9429,
      "duration": 0.0133,
      "velocity": 123,
      "chip": "ym2612"
    },
    {
      "channel": 3,
      "note": 51,
      "start": 32.9478,
      "duration": 0.1147,
      "velocity": 127,
      "chip": "ym2612"
    },
    {
      "channel": 3,
      "note": 51,
      "start": 33.0629,
      "duration": 0.1208,
      "velocity": 127,
      "chip": "ym2612"
    },
    {
      "channel": 1,
      "note": 58,
      "start": 33.1781,
      "duration": 0.1151,
      "velocity": 92,
      "chip": "ym2612"
    },
    {
      "channel": 2,
      "note": 29,
      "start": 33.1829,
      "duration": 0.0141,
      "velocity": 125,
      "chip": "ym2612"
    },
    {
      "channel": 3,
      "note": 63,
      "start": 33.1874,
      "duration": 0.2332,
      "velocity": 127,
      "chip": "ym2612"
    },
    {
      "channel": 1,
      "note": 65,
      "start": 33.4188,
      "duration": 0.4136,
      "velocity": 92,
      "chip": "ym2612"
    },
    {
      "channel": 2,
      "note": 29,
      "start": 33.4196,
      "duration": 0.0374,
      "velocity": 125,
      "chip": "ym2612"
    },
    {
      "channel": 3,
      "note": 51,
      "start": 33.4247,
      "duration": 0.1095,
      "velocity": 127,
      "chip": "ym2612"
    },
    {
      "channel": 4,
      "note": 73,
      "start": 33.4254,
      "duration": 0.4763,
      "velocity": 103,
      "chip": "ym2612"
    },
    {
      "channel": 3,
      "note": 51,
      "start": 33.5345,
      "duration": 0.1253,
      "velocity": 127,
      "chip": "ym2612"
    },
    {
      "channel": 3,
      "note": 63,
      "start": 33.6635,
      "duration": 0.2339,
      "velocity": 127,
      "chip": "ym2612"
    },
    {
      "channel": 0,
      "note": 90,
      "start": 33.8907,
      "duration": 0.4232,
      "velocity": 90,
      "chip": "ym2612"
    },
    {
      "channel": 1,
      "note": 51,
      "start": 33.8916,
      "duration": 0.4225,
      "velocity": 92,
      "chip": "ym2612"
    },
    {
      "channel": 2,
      "note": 41,
      "start": 33.8963,
      "duration": 0.0423,
      "velocity": 123,
      "chip": "ym2612"
    },
    {
      "channel": 3,
      "note": 51,
      "start": 33.9013,
      "duration": 0.1148,
      "velocity": 127,
      "chip": "ym2612"
    },
    {
      "channel": 4,
      "note": 75,
      "start": 33.9021,
      "duration": 0.4815,
      "velocity": 103,
      "chip": "ym2612"
    },
    {
      "channel": 3,
      "note": 63,
      "start": 34.0198,
      "duration": 0.2371,
      "velocity": 127,
      "chip": "ym2612"
    },
    {
      "channel": 3,
      "note": 51,
      "start": 34.2609,
      "duration": 0.1184,
      "velocity": 127,
      "chip": "ym2612"
    },
    {
      "channel": 0,
      "note": 89,
      "start": 34.3722,
      "duration": 0.2787,
      "velocity": 90,
      "chip": "ym2612"
    },
    {
      "channel": 1,
      "note": 58,
      "start": 34.3731,
      "duration": 0.4127,
      "velocity": 92,
      "chip": "ym2612"
    },
    {
      "channel": 2,
      "note": 29,
      "start": 34.378,
      "duration": 0.0324,
      "velocity": 125,
      "chip": "ym2612"
    },
    {
      "channel": 3,
      "note": 51,
      "start": 34.3832,
      "duration": 0.1044,
      "velocity": 127,
      "chip": "ym2612"
    },
    {
      "channel": 4,
      "note": 77,
      "start": 34.3839,
      "duration": 1.4334,
      "velocity": 103,
      "chip": "ym2612"
    },
    {
      "channel": 5,
      "note": 80,
      "start": 34.3847,
      "duration": 1.9059,
      "velocity": 103,
      "chip": "ym2612"
    },
    {
      "channel": 3,
      "note": 51,
      "start": 34.488,
      "duration": 0.1253,
      "velocity": 127,
      "chip": "ym2612"
    },
    {
      "channel": 3,
      "note": 63,
      "start": 34.6169,
      "duration": 0.2427,
      "velocity": 127,
      "chip": "ym2612"
    },
    {
      "channel": 0,
      "note": 85,
      "start": 34.6899,
      "duration": 0.2788,
      "velocity": 90,
      "chip": "ym2612"
    },
    {
      "channel": 1,
      "note": 58,
      "start": 34.8537,
      "duration": 0.1153,
      "velocity": 92,
      "chip": "ym2612"
    },
    {
      "channel": 2,
      "note": 41,
      "start": 34.8586,
      "duration": 0.0141,
      "velocity": 123,
      "chip": "ym2612"
    },
    {
      "channel": 3,
      "note": 51,
      "start": 34.8635,
      "duration": 0.106,
      "velocity": 127,
      "chip": "ym2612"
    },
    {
      "channel": 3,
      "note": 51,
      "start": 34.9699,
      "duration": 0.1207,
      "velocity": 127,
      "chip": "ym2612"
    },
    {
      "channel": 0,
      "note": 87,
      "start": 35.0077,
      "duration": 0.2788,
      "velocity": 90,
      "chip": "ym2612"
    },
    {
      "channel": 1,
      "note": 61,
      "start": 35.0848,
      "duration": 0.1249,
      "velocity": 92,
      "chip": "ym2612"
    },
    {
      "channel": 2,
      "note": 29,
      "start": 35.0897,
      "duration": 0.0141,
      "velocity": 125,
      "chip": "ym2612"
    },
    {
      "channel": 3,
      "note": 63,
      "start": 35.0943,
      "duration": 0.2338,
      "velocity": 127,
      "chip": "ym2612"
    },
    {
      "channel": 0,
      "note": 89,
      "start": 35.3256,
      "duration": 1.6656,
      "velocity": 90,
      "chip": "ym2612"
    },
    {
      "channel": 1,
      "note": 65,
      "start": 35.3263,
      "duration": 0.413,
      "velocity": 92,
      "chip": "ym2612"
    },
    {
      "channel": 2,
      "note": 29,
      "start": 35.3271,
      "duration": 0.0367,
      "velocity": 125,
      "chip": "ym2612"
    },
    {
      "channel": 3,
      "note": 51,
      "start": 35.332,
      "duration": 0.109,
      "velocity": 127,
      "chip": "ym2612"
    },
    {
      "channel": 3,
      "note": 51,
      "start": 35.4414,
      "duration": 0.1253,
      "velocity": 127,
      "chip": "ym2612"
    },
    {
      "channel": 3,
      "note": 63,
      "start": 35.5703,
      "duration": 0.2426,
      "velocity": 127,
      "chip": "ym2612"
    },
    {
      "channel": 1,
      "note": 61,
      "start": 35.8072,
      "duration": 0.4137,
      "velocity": 92,
      "chip": "ym2612"
    },
    {
      "channel": 2,
      "note": 41,
      "start": 35.812,
      "duration": 0.0334,
      "velocity": 123,
      "chip": "ym2612"
    },
    {
      "channel": 3,
      "note": 51,
      "start": 35.8168,
      "duration": 0.1057,
      "velocity": 127,
      "chip": "ym2612"
    },
    {
      "channel": 4,
      "note": 80,
      "start": 35.8177,
      "duration": 0.472,
      "velocity": 103,
      "chip": "ym2612"
    },
    {
      "channel": 3,
      "note": 51,
      "start": 35.9229,
      "duration": 0.1157,
      "velocity": 127,
      "chip": "ym2612"
    },
    {
      "channel": 3,
      "note": 63,
      "start": 36.0423,
      "duration": 0.2428,
      "velocity": 127,
      "chip": "ym2612"
    },
    {
      "channel": 1,
      "note": 63,
      "start": 36.279,
      "duration": 0.4233,
      "velocity": 92,
      "chip": "ym2612"
    },
    {
      "channel": 2,
      "note": 29,
      "start": 36.2841,
      "duration": 0.0331,
      "velocity": 125,
      "chip": "ym2612"
    },
    {
      "channel": 3,
      "note": 51,
      "start": 36.2892,
      "duration": 0.1148,
      "velocity": 127,
      "chip": "ym2612"
    },
    {
      "channel": 4,
      "note": 79,
      "start": 36.2901,
      "duration": 0.9492,
      "velocity": 103,
      "chip": "ym2612"
    },
    {
      "channel": 5,
      "note": 79,
      "start": 36.291,
      "duration": 1.9074,
      "velocity": 103,
      "chip": "ym2612"
    },
    {
      "channel": 3,
      "note": 51,
      "start": 36.4044,
      "duration": 0.1157,
      "velocity": 127,
      "chip": "ym2612"
    },
    {
      "channel": 3,
      "note": 63,
      "start": 36.5239,
      "duration": 0.2424,
      "velocity": 127,
      "chip": "ym2612"
    },
    {
      "channel": 1,
      "note": 63,
      "start": 36.7605,
      "duration": 0.1152,
      "velocity": 92,
      "chip": "ym2612"
    },
    {
      "channel": 2,
      "note": 41,
      "start": 36.7653,
      "duration": 0.0142,
      "velocity": 123,
      "chip": "ym2612"
    },
    {
      "channel": 3,
      "note": 51,
      "start": 36.7702,
      "duration": 0.1061,
      "velocity": 127,
      "chip": "ym2612"
    },
    {
      "channel": 3,
      "note": 51,
      "start": 36.8766,
      "duration": 0.1207,
      "velocity": 127,
      "chip": "ym2612"
    },
    {
      "channel": 1,
      "note": 58,
      "start": 36.9918,
      "duration": 0.1247,
      "velocity": 92,
      "chip": "ym2612"
    },
    {
      "channel": 2,
      "note": 29,
      "start": 36.9966,
      "duration": 0.0237,
      "velocity": 125,
      "chip": "ym2612"
    },
    {
      "channel": 3,
      "note": 63,
      "start": 37.0011,
      "duration": 0.2336,
      "velocity": 127,
      "chip": "ym2612"
    },
    {
      "channel": 1,
      "note": 51,
      "start": 37.2329,
      "duration": 0.2207,
      "velocity": 92,
      "chip": "ym2612"
    },
    {
      "channel": 2,
      "note": 29,
      "start": 37.2337,
      "duration": 0.0178,
      "velocity": 125,
      "chip": "ym2612"
    },
    {
      "channel": 3,
      "note": 51,
      "start": 37.2388,
      "duration": 0.1187,
      "velocity": 127,
      "chip": "ym2612"
    },
    {
      "channel": 4,
      "note": 82,
      "start": 37.2397,
      "duration": 0.9579,
      "velocity": 103,
      "chip": "ym2612"
    },
    {
      "channel": 3,
      "note": 51,
      "start": 37.3579,
      "duration": 0.1217,
      "velocity": 127,
      "chip": "ym2612"
    },
    {
      "channel": 0,
      "note": 87,
      "start": 37.4731,
      "duration": 0.2211,
      "velocity": 90,
      "chip": "ym2612"
    },
    {
      "channel": 1,
      "note": 58,
      "start": 37.4741,
      "duration": 0.2204,
      "velocity": 92,
      "chip": "ym2612"
    },
    {
      "channel": 2,
      "note": 41,
      "start": 37.4788,
      "duration": 0.0134,
      "velocity": 123,
      "chip": "ym2612"
    },
    {
      "channel": 3,
      "note": 63,
      "start": 37.4834,
      "duration": 0.2333,
      "velocity": 127,
      "chip": "ym2612"
    },
    {
      "channel": 0,
      "note": 86,
      "start": 37.7139,
      "duration": 0.2211,
      "velocity": 90,
      "chip": "ym2612"
    },
    {
      "channel": 1,
      "note": 49,
      "start": 37.7148,
      "duration": 0.4128,
      "velocity": 92,
      "chip": "ym2612"
    },
    {
      "channel": 2,
      "note": 43,
      "start": 37.7156,
      "duration": 0.0174,
      "velocity": 123,
      "chip": "ym2612"
    },
    {
      "channel": 3,
      "note": 51,
      "start": 37.7206,
      "duration": 0.1099,
      "velocity": 127,
      "chip": "ym2612"
    },
    {
      "channel": 2,
      "note": 43,
      "start": 37.8297,
      "duration": 0.0188,
      "velocity": 123,
      "chip": "ym2612"
    },
    {
      "channel": 3,
      "note": 63,
      "start": 37.8342,
      "duration": 0.2364,
      "velocity": 127,
      "chip": "ym2612"
    },
    {
      "channel": 0,
      "note": 87,
      "start": 37.9547,
      "duration": 0.2114,
      "velocity": 90,
      "chip": "ym2612"
    },
    {
      "channel": 2,
      "note": 39,
      "start": 37.9557,
      "duration": 0.018,
      "velocity": 123,
      "chip": "ym2612"
    },
    {
      "channel": 3,
      "note": 51,
      "start": 38.0747,
      "duration": 0.1186,
      "velocity": 127,
      "chip": "ym2612"
    },
    {
      "channel": 0,
      "note": 90,
      "start": 38.1858,
      "duration": 0.8374,
      "velocity": 90,
      "chip": "ym2612"
    },
    {
      "channel": 1,
      "note": 56,
      "start": 38.1867,
      "duration": 0.4225,
      "velocity": 92,
      "chip": "ym2612"
    },
    {
      "channel": 2,
      "note": 29,
      "start": 38.192,
      "duration": 0.0321,
      "velocity": 125,
      "chip": "ym2612"
    },
    {
      "channel": 3,
      "note": 51,
      "start": 38.1972,
      "duration": 0.1137,
      "velocity": 127,
      "chip": "ym2612"
    },
    {
      "channel": 4,
      "note": 83,
      "start": 38.1979,
      "duration": 0.9483,
      "velocity": 103,
      "chip": "ym2612"
    },
    {
      "channel": 5,
      "note": 78,
      "start": 38.1987,
      "duration": 1.9149,
      "velocity": 103,
      "chip": "ym2612"
    },
    {
      "channel": 3,
      "note": 51,
      "start": 38.3113,
      "duration": 0.1157,
      "velocity": 127,
      "chip": "ym2612"
    },
    {
      "channel": 3,
      "note": 63,
      "start": 38.4306,
      "duration": 0.2426,
      "velocity": 127,
      "chip": "ym2612"
    },
    {
      "channel": 1,
      "note": 56,
      "start": 38.6674,
      "duration": 0.1152,
      "velocity": 92,
      "chip": "ym2612"
    },
    {
      "channel": 2,
      "note": 41,
      "start": 38.6723,
      "duration": 0.0141,
      "velocity": 123,
      "chip": "ym2612"
    },
    {
      "channel": 3,
      "note": 51,
      "start": 38.6772,
      "duration": 0.1059,
      "velocity": 127,
      "chip": "ym2612"
    },
    {
      "channel": 3,
      "note": 51,
      "start": 38.7834,
      "duration": 0.1303,
      "velocity": 127,
      "chip": "ym2612"
    },
    {
      "channel": 1,
      "note": 58,
      "start": 38.9082,
      "duration": 0.1153,
      "velocity": 92,
      "chip": "ym2612"
    },
    {
      "channel": 2,
      "note": 29,
      "start": 38.9129,
      "duration": 0.0142,
      "velocity": 125,
      "chip": "ym2612"
    },
    {
      "channel": 3,
      "note": 63,
      "start": 38.9175,
      "duration": 0.2243,
      "velocity": 127,
      "chip": "ym2612"
    },
    {
      "channel": 0,
      "note": 83,
      "start": 39.1392,
      "duration": 1.2611,
      "velocity": 90,
      "chip": "ym2612"
    },
    {
      "channel": 1,
      "note": 59,
      "start": 39.14,
      "duration": 0.4226,
      "velocity": 92,
      "chip": "ym2612"
    },
    {
      "channel": 2,
      "note": 29,
      "start": 39.1408,
      "duration": 0.0464,
      "velocity": 125,
      "chip": "ym2612"
    },
    {
      "channel": 3,
      "note": 51,
      "start": 39.1457,
      "duration": 0.1186,
      "velocity": 127,
      "chip": "ym2612"
    },
    {
      "channel": 4,
      "note": 75,
      "start": 39.1466,
      "duration": 0.4845,
      "velocity": 103,
      "chip": "ym2612"
    },
    {
      "channel": 3,
      "note": 51,
      "start": 39.2647,
      "duration": 0.1156,
      "velocity": 127,
      "chip": "ym2612"
    },
    {
      "channel": 3,
      "note": 63,
      "start": 39.384,
      "duration": 0.2427,
      "velocity": 127,
      "chip": "ym2612"
    },
    {
      "channel": 1,
      "note": 56,
      "start": 39.6208,
      "duration": 0.4137,
      "velocity": 92,
      "chip": "ym2612"
    },
    {
      "channel": 2,
      "note": 41,
      "start": 39.6257,
      "duration": 0.0333,
      "velocity": 123,
      "chip": "ym2612"
    },
    {
      "channel": 3,
      "note": 51,
      "start": 39.6306,
      "duration": 0.1056,
      "velocity": 127,
      "chip": "ym2612"
    },
    {
      "channel": 4,
      "note": 78,
      "start": 39.6315,
      "duration": 0.4814,
      "velocity": 103,
      "chip": "ym2612"
    },
    {
      "channel": 3,
      "note": 51,
      "start": 39.7366,
      "duration": 0.1253,
      "velocity": 127,
      "chip": "ym2612"
    },
    {
      "channel": 3,
      "note": 63,
      "start": 39.8656,
      "duration": 0.2429,
      "velocity": 127,
      "chip": "ym2612"
    },
    {
      "channel": 1,
      "note": 49,
      "start": 40.1025,
      "duration": 0.4136,
      "velocity": 92,
      "chip": "ym2612"
    },
    {
      "channel": 2,
      "note": 29,
      "start": 40.1075,
      "duration": 0.0331,
      "velocity": 125,
      "chip": "ym2612"
    },
    {
      "channel": 3,
      "note": 51,
      "start": 40.1124,
      "duration": 0.1053,
      "velocity": 127,
      "chip": "ym2612"
    },
    {
      "channel": 4,
      "note": 77,
      "start": 40.1132,
      "duration": 1.9072,
      "velocity": 103,
      "chip": "ym2612"
    },
    {
      "channel": 5,
      "note": 77,
      "start": 40.114,
      "duration": 1.9073,
      "velocity": 103,
      "chip": "ym2612"
    },
    {
      "channel": 3,
      "note": 51,
      "start": 40.2181,
      "duration": 0.1156,
      "velocity": 127,
      "chip": "ym2612"
    },
    {
      "channel": 3,
      "note": 63,
      "start": 40.3374,
      "duration": 0.2432,
      "velocity": 127,
      "chip": "ym2612"
    },
    {
      "channel": 0,
      "note": 90,
      "start": 40.5742,
      "duration": 0.4136,
      "velocity": 90,
      "chip": "ym2612"
    },
    {
      "channel": 1,
      "note": 49,
      "start": 40.575,
      "duration": 0.1145,
      "velocity": 92,
      "chip": "ym2612"
    },
    {
      "channel": 2,
      "note": 41,
      "start": 40.5797,
      "duration": 0.0136,
      "velocity": 123,
      "chip": "ym2612"
    },
    {
      "channel": 3,
      "note": 51,
      "start": 40.5846,
      "duration": 0.1054,
      "velocity": 127,
      "chip": "ym2612"
    },
    {
      "channel": 3,
      "note": 51,
      "start": 40.6903,
      "duration": 0.1303,
      "velocity": 127,
      "chip": "ym2612"
    },
    {
      "channel": 1,
      "note": 53,
      "start": 40.8151,
      "duration": 0.1152,
      "velocity": 92,
      "chip": "ym2612"
    },
    {
      "channel": 2,
      "note": 29,
      "start": 40.8198,
      "duration": 0.0142,
      "velocity": 125,
      "chip": "ym2612"
    },
    {
      "channel": 3,
      "note": 63,
      "start": 40.8244,
      "duration": 0.2342,
      "velocity": 127,
      "chip": "ym2612"
    },
    {
      "channel": 0,
      "note": 89,
      "start": 41.0558,
      "duration": 0.4136,
      "velocity": 90,
      "chip": "ym2612"
    },
    {
      "channel": 1,
      "note": 56,
      "start": 41.0568,
      "duration": 0.4128,
      "velocity": 92,
      "chip": "ym2612"
    },
    {
      "channel": 2,
      "note": 29,
      "start": 41.0576,
      "duration": 0.0364,
      "velocity": 125,
      "chip": "ym2612"
    },
    {
      "channel": 3,
      "note": 51,
      "start": 41.0625,
      "duration": 0.1086,
      "velocity": 127,
      "chip": "ym2612"
    },
    {
      "channel": 3,
      "note": 51,
      "start": 41.1717,
      "duration": 0.1155,
      "velocity": 127,
      "chip": "ym2612"
    },
    {
      "channel": 3,
      "note": 63,
      "start": 41.291,
      "duration": 0.2432,
      "velocity": 127,
      "chip": "ym2612"
    },
    {
      "channel": 0,
      "note": 87,
      "start": 41.5276,
      "duration": 0.4233,
      "velocity": 90,
      "chip": "ym2612"
    },
    {
      "channel": 1,
      "note": 49,
      "start": 41.5285,
      "duration": 0.1242,
      "velocity": 92,
      "chip": "ym2612"
    },
    {
      "channel": 2,
      "note": 41,
      "start": 41.5332,
      "duration": 0.0326,
      "velocity": 123,
      "chip": "ym2612"
    },
    {
      "channel": 3,
      "note": 51,
      "start": 41.5383,
      "duration": 0.1156,
      "velocity": 127,
      "chip": "ym2612"
    },
    {
      "channel": 1,
      "note": 61,
      "start": 41.653,
      "duration": 0.1151,
      "velocity": 92,
      "chip": "ym2612"
    },
    {
      "channel": 3,
      "note": 63,
      "start": 41.6577,
      "duration": 0.2268,
      "velocity": 127,
      "chip": "ym2612"
    },
    {
      "channel": 3,
      "note": 51,
      "start": 41.8886,
      "duration": 0.1276,
      "velocity": 127,
      "chip": "ym2612"
    },
    {
      "channel": 0,
      "note": 85,
      "start": 42.0091,
      "duration": 0.1152,
      "velocity": 90,
      "chip": "ym2612"
    },
    {
      "channel": 1,
      "note": 54,
      "start": 42.01,
      "duration": 0.4129,
      "velocity": 92,
      "chip": "ym2612"
    },
    {
      "channel": 2,
      "note": 29,
      "start": 42.0149,
      "duration": 0.0326,
      "velocity": 125,
      "chip": "ym2612"
    },
    {
      "channel": 3,
      "note": 51,
      "start": 42.0201,
      "duration": 0.1052,
      "velocity": 127,
      "chip": "ym2612"
    },
    {
      "channel": 4,
      "note": 73,
      "start": 42.0208,
      "duration": 0.948,
      "velocity": 103,
      "chip": "ym2612"
    },
    {
      "channel": 5,
      "note": 77,
      "start": 42.0218,
      "duration": 1.9064,
      "velocity": 103,
      "chip": "ym2612"
    },
    {
      "channel": 0,
      "note": 87,
      "start": 42.1247,
      "duration": 0.1249,
      "velocity": 90,
      "chip": "ym2612"
    },
    {
      "channel": 3,
      "note": 51,
      "start": 42.1256,
      "duration": 0.1253,
      "velocity": 127,
      "chip": "ym2612"
    },
    {
      "channel": 0,
      "note": 89,
      "start": 42.2499,
      "duration": 1.4634,
      "velocity": 90,
      "chip": "ym2612"
    },
    {
      "channel": 3,
      "note": 63,
      "start": 42.2546,
      "duration": 0.2322,
      "velocity": 127,
      "chip": "ym2612"
    },
    {
      "channel": 1,
      "note": 54,
      "start": 42.4812,
      "duration": 0.1248,
      "velocity": 92,
      "chip": "ym2612"
    },
    {
      "channel": 2,
      "note": 41,
      "start": 42.4859,
      "duration": 0.0142,
      "velocity": 123,
      "chip": "ym2612"
    },
    {
      "channel": 3,
      "note": 51,
      "start": 42.4909,
      "duration": 0.1155,
      "velocity": 127,
      "chip": "ym2612"
    },
    {
      "channel": 3,
      "note": 51,
      "start": 42.6068,
      "duration": 0.1209,
      "velocity": 127,
      "chip": "ym2612"
    },
    {
      "channel": 1,
      "note": 61,
      "start": 42.7221,
      "duration": 0.115,
      "velocity": 92,
      "chip": "ym2612"
    },
    {
      "channel": 2,
      "note": 29,
      "start": 42.7269,
      "duration": 0.0139,
      "velocity": 125,
      "chip": "ym2612"
    },
    {
      "channel": 3,
      "note": 63,
      "start": 42.7314,
      "duration": 0.233,
      "velocity": 127,
      "chip": "ym2612"
    },
    {
      "channel": 1,
      "note": 66,
      "start": 42.9626,
      "duration": 0.4137,
      "velocity": 92,
      "chip": "ym2612"
    },
    {
      "channel": 2,
      "note": 29,
      "start": 42.9635,
      "duration": 0.0374,
      "velocity": 125,
      "chip": "ym2612"
    },
    {
      "channel": 3,
      "note": 51,
      "start": 42.9684,
      "duration": 0.1097,
      "velocity": 127,
      "chip": "ym2612"
    },
    {
      "channel": 4,
      "note": 70,
      "start": 42.9692,
      "duration": 0.9581,
      "velocity": 103,
      "chip": "ym2612"
    },
    {
      "channel": 3,
      "note": 51,
      "start": 43.0784,
      "duration": 0.1253,
      "velocity": 127,
      "chip": "ym2612"
    },
    {
      "channel": 3,
      "note": 63,
      "start": 43.2075,
      "duration": 0.2329,
      "velocity": 127,
      "chip": "ym2612"
    },
    {
      "channel": 1,
      "note": 61,
      "start": 43.4346,
      "duration": 0.4232,
      "velocity": 92,
      "chip": "ym2612"
    },
    {
      "channel": 2,
      "note": 41,
      "start": 43.4394,
      "duration": 0.0429,
      "velocity": 123,
      "chip": "ym2612"
    },
    {
      "channel": 3,
      "note": 51,
      "start": 43.4444,
      "duration": 0.1152,
      "velocity": 127,
      "chip": "ym2612"
    },
    {
      "channel": 3,
      "note": 51,
      "start": 43.56,
      "duration": 0.1156,
      "velocity": 127,
      "chip": "ym2612"
    },
    {
      "channel": 3,
      "note": 63,
      "start": 43.6793,
      "duration": 0.2438,
      "velocity": 127,
      "chip": "ym2612"
    },
    {
      "channel": 0,
      "note": 87,
      "start": 43.916,
      "duration": 1.6656,
      "velocity": 90,
      "chip": "ym2612"
    },
    {
      "channel": 1,
      "note": 59,
      "start": 43.9168,
      "duration": 1.6651,
      "velocity": 92,
      "chip": "ym2612"
    },
    {
      "channel": 2,
      "note": 29,
      "start": 43.922,
      "duration": 0.013,
      "velocity": 125,
      "chip": "ym2612"
    },
    {
      "channel": 3,
      "note": 51,
      "start": 43.927,
      "duration": 0.1045,
      "velocity": 127,
      "chip": "ym2612"
    },
    {
      "channel": 4,
      "note": 78,
      "start": 43.9277,
      "duration": 1.659,
      "velocity": 103,
      "chip": "ym2612"
    },
    {
      "channel": 5,
      "note": 82,
      "start": 43.9286,
      "duration": 0.9466,
      "velocity": 103,
      "chip": "ym2612"
    },
    {
      "channel": 3,
      "note": 51,
      "start": 44.0319,
      "duration": 0.13,
      "velocity": 127,
      "chip": "ym2612"
    },
    {
      "channel": 2,
      "note": 46,
      "start": 44.161,
      "duration": 0.0148,
      "velocity": 123,
      "chip": "ym2612"
    },
    {
      "channel": 3,
      "note": 63,
      "start": 44.1656,
      "duration": 0.2276,
      "velocity": 127,
      "chip": "ym2612"
    },
    {
      "channel": 2,
      "note": 29,
      "start": 44.3922,
      "duration": 0.0244,
      "velocity": 125,
      "chip": "ym2612"
    },
    {
      "channel": 3,
      "note": 51,
      "start": 44.3971,
      "duration": 0.1206,
      "velocity": 127,
      "chip": "ym2612"
    },
    {
      "channel": 2,
      "note": 43,
      "start": 44.5172,
      "duration": 0.0342,
      "velocity": 123,
      "chip": "ym2612"
    },
    {
      "channel": 3,
      "note": 51,
      "start": 44.518,
      "duration": 0.111,
      "velocity": 127,
      "chip": "ym2612"
    },
    {
      "channel": 3,
      "note": 63,
      "start": 44.6327,
      "duration": 0.2379,
      "velocity": 127,
      "chip": "ym2612"
    },
    {
      "channel": 2,
      "note": 39,
      "start": 44.8696,
      "duration": 0.019,
      "velocity": 123,
      "chip": "ym2612"
    },
    {
      "channel": 3,
      "note": 51,
      "start": 44.8747,
      "duration": 0.1102,
      "velocity": 127,
      "chip": "ym2612"
    },
    {
      "channel": 5,
      "note": 87,
      "start": 44.8756,
      "duration": 0.9683,
      "velocity": 103,
      "chip": "ym2612"
    },
    {
      "channel": 3,
      "note": 51,
      "start": 44.9852,
      "duration": 0.126,
      "velocity": 127,
      "chip": "ym2612"
    },
    {
      "channel": 2,
      "note": 41,
      "start": 45.1104,
      "duration": 0.0188,
      "velocity": 123,
      "chip": "ym2612"
    },
    {
      "channel": 3,
      "note": 63,
      "start": 45.1149,
      "duration": 0.2372,
      "velocity": 127,
      "chip": "ym2612"
    },
    {
      "channel": 2,
      "note": 41,
      "start": 45.1874,
      "duration": 0.0188,
      "velocity": 123,
      "chip": "ym2612"
    },
    {
      "channel": 2,
      "note": 41,
      "start": 45.2645,
      "duration": 0.0188,
      "velocity": 123,
      "chip": "ym2612"
    },
    {
      "channel": 2,
      "note": 39,
      "start": 45.3511,
      "duration": 0.0188,
      "velocity": 123,
      "chip": "ym2612"
    },
    {
      "channel": 3,
      "note": 51,
      "start": 45.3562,
      "duration": 0.1109,
      "velocity": 127,
      "chip": "ym2612"
    },
    {
      "channel": 2,
      "note": 37,
      "start": 45.4667,
      "duration": 0.0382,
      "velocity": 123,
      "chip": "ym2612"
    },
    {
      "channel": 3,
      "note": 51,
      "start": 45.4675,
      "duration": 0.1152,
      "velocity": 127,
      "chip": "ym2612"
    },
    {
      "channel": 3,
      "note": 63,
      "start": 45.5864,
      "duration": 0.2474,
      "velocity": 127,
      "chip": "ym2612"
    },
    {
      "channel": 0,
      "note": 98,
      "start": 45.8261,
      "duration": 0.2274,
      "velocity": 92,
      "chip": "ym2612"
    },
    {
      "channel": 1,
      "note": 58,
      "start": 45.8271,
      "duration": 0.4192,
      "velocity": 92,
      "chip": "ym2612"
    },
    {
      "channel": 2,
      "note": 29,
      "start": 45.8322,
      "duration": 0.0385,
      "velocity": 125,
      "chip": "ym2612"
    },
    {
      "channel": 3,
      "note": 51,
      "start": 45.8377,
      "duration": 0.1198,
      "velocity": 127,
      "chip": "ym2612"
    },
    {
      "channel": 4,
      "note": 65,
      "start": 45.8432,
      "duration": 1.9071,
      "velocity": 103,
      "chip": "ym2612"
    },
    {
      "channel": 5,
      "note": 81,
      "start": 45.8442,
      "duration": 1.9068,
      "velocity": 103,
      "chip": "ym2612"
    },
    {
      "channel": 3,
      "note": 51,
      "start": 45.9579,
      "duration": 0.1163,
      "velocity": 127,
      "chip": "ym2612"
    },
    {
      "channel": 0,
      "note": 99,
      "start": 46.0732,
      "duration": 0.1154,
      "velocity": 92,
      "chip": "ym2612"
    },
    {
      "channel": 3,
      "note": 63,
      "start": 46.078,
      "duration": 0.2422,
      "velocity": 127,
      "chip": "ym2612"
    },
    {
      "channel": 0,
      "note": 101,
      "start": 46.1889,
      "duration": 0.1247,
      "velocity": 92,
      "chip": "ym2612"
    },
    {
      "channel": 1,
      "note": 58,
      "start": 46.3144,
      "duration": 0.1156,
      "velocity": 92,
      "chip": "ym2612"
    },
    {
      "channel": 2,
      "note": 41,
      "start": 46.3192,
      "duration": 0.0138,
      "velocity": 123,
      "chip": "ym2612"
    },
    {
      "channel": 3,
      "note": 51,
      "start": 46.3242,
      "duration": 0.1062,
      "velocity": 127,
      "chip": "ym2612"
    },
    {
      "channel": 0,
      "note": 98,
      "start": 46.4296,
      "duration": 0.1151,
      "velocity": 92,
      "chip": "ym2612"
    },
    {
      "channel": 3,
      "note": 51,
      "start": 46.4308,
      "duration": 0.1204,
      "velocity": 127,
      "chip": "ym2612"
    },
    {
      "channel": 1,
      "note": 53,
      "start": 46.5456,
      "duration": 0.1251,
      "velocity": 92,
      "chip": "ym2612"
    },
    {
      "channel": 2,
      "note": 29,
      "start": 46.5503,
      "duration": 0.0235,
      "velocity": 125,
      "chip": "ym2612"
    },
    {
      "channel": 3,
      "note": 63,
      "start": 46.555,
      "duration": 0.2333,
      "velocity": 127,
      "chip": "ym2612"
    },
    {
      "channel": 0,
      "note": 94,
      "start": 46.6703,
      "duration": 0.1152,
      "velocity": 92,
      "chip": "ym2612"
    },
    {
      "channel": 1,
      "note": 58,
      "start": 46.7864,
      "duration": 0.317,
      "velocity": 92,
      "chip": "ym2612"
    },
    {
      "channel": 2,
      "note": 29,
      "start": 46.7871,
      "duration": 0.037,
      "velocity": 125,
      "chip": "ym2612"
    },
    {
      "channel": 3,
      "note": 51,
      "start": 46.7922,
      "duration": 0.1195,
      "velocity": 127,
      "chip": "ym2612"
    },
    {
      "channel": 0,
      "note": 89,
      "start": 46.9112,
      "duration": 0.1151,
      "velocity": 92,
      "chip": "ym2612"
    },
    {
      "channel": 3,
      "note": 51,
      "start": 46.9121,
      "duration": 0.1155,
      "velocity": 127,
      "chip": "ym2612"
    },
    {
      "channel": 0,
      "note": 88,
      "start": 47.0266,
      "duration": 0.1152,
      "velocity": 92,
      "chip": "ym2612"
    },
    {
      "channel": 3,
      "note": 63,
      "start": 47.0313,
      "duration": 0.2424,
      "velocity": 127,
      "chip": "ym2612"
    },
    {
      "channel": 0,
      "note": 89,
      "start": 47.1422,
      "duration": 0.1249,
      "velocity": 92,
      "chip": "ym2612"
    },
    {
      "channel": 1,
      "note": 65,
      "start": 47.143,
      "duration": 0.1249,
      "velocity": 92,
      "chip": "ym2612"
    },
    {
      "channel": 2,
      "note": 29,
      "start": 47.1437,
      "duration": 0.0175,
      "velocity": 125,
      "chip": "ym2612"
    },
    {
      "channel": 0,
      "note": 94,
      "start": 47.2675,
      "duration": 0.1151,
      "velocity": 92,
      "chip": "ym2612"
    },
    {
      "channel": 2,
      "note": 41,
      "start": 47.2727,
      "duration": 0.0137,
      "velocity": 123,
      "chip": "ym2612"
    },
    {
      "channel": 3,
      "note": 51,
      "start": 47.2776,
      "duration": 0.1115,
      "velocity": 127,
      "chip": "ym2612"
    },
    {
      "channel": 0,
      "note": 96,
      "start": 47.3829,
      "duration": 0.1249,
      "velocity": 92,
      "chip": "ym2612"
    },
    {
      "channel": 1,
      "note": 53,
      "start": 47.3838,
      "duration": 0.1247,
      "velocity": 92,
      "chip": "ym2612"
    },
    {
      "channel": 2,
      "note": 29,
      "start": 47.3887,
      "duration": 0.0326,
      "velocity": 125,
      "chip": "ym2612"
    },
    {
      "channel": 3,
      "note": 51,
      "start": 47.3895,
      "duration": 0.12,
      "velocity": 127,
      "chip": "ym2612"
    },
    {
      "channel": 0,
      "note": 97,
      "start": 47.5082,
      "duration": 0.1152,
      "velocity": 92,
      "chip": "ym2612"
    },
    {
      "channel": 3,
      "note": 63,
      "start": 47.5132,
      "duration": 0.2328,
      "velocity": 127,
      "chip": "ym2612"
    },
    {
      "channel": 0,
      "note": 96,
      "start": 47.6237,
      "duration": 0.1152,
      "velocity": 92,
      "chip": "ym2612"
    },
    {
      "channel": 0,
      "note": 97,
      "start": 47.7393,
      "duration": 0.1248,
      "velocity": 92,
      "chip": "ym2612"
    },
    {
      "channel": 1,
      "note": 58,
      "start": 47.7402,
      "duration": 0.4225,
      "velocity": 92,
      "chip": "ym2612"
    },
    {
      "channel": 2,
      "note": 29,
      "start": 47.7449,
      "duration": 0.0327,
      "velocity": 125,
      "chip": "ym2612"
    },
    {
      "channel": 3,
      "note": 51,
      "start": 47.7498,
      "duration": 0.1148,
      "velocity": 127,
      "chip": "ym2612"
    },
    {
      "channel": 4,
      "note": 65,
      "start": 47.7506,
      "duration": 1.9166,
      "velocity": 103,
      "chip": "ym2612"
    },
    {
      "channel": 5,
      "note": 80,
      "start": 47.7514,
      "duration": 1.9166,
      "velocity": 103,
      "chip": "ym2612"
    },
    {
      "channel": 3,
      "note": 51,
      "start": 47.8651,
      "duration": 0.116,
      "velocity": 127,
      "chip": "ym2612"
    },
    {
      "channel": 0,
      "note": 99,
      "start": 47.9801,
      "duration": 0.1151,
      "velocity": 92,
      "chip": "ym2612"
    },
    {
      "channel": 3,
      "note": 63,
      "start": 47.9848,
      "duration": 0.2426,
      "velocity": 127,
      "chip": "ym2612"
    },
    {
      "channel": 0,
      "note": 97,
      "start": 48.2208,
      "duration": 0.1152,
      "velocity": 92,
      "chip": "ym2612"
    },
    {
      "channel": 1,
      "note": 58,
      "start": 48.2217,
      "duration": 0.115,
      "velocity": 92,
      "chip": "ym2612"
    },
    {
      "channel": 2,
      "note": 41,
      "start": 48.2264,
      "duration": 0.0134,
      "velocity": 123,
      "chip": "ym2612"
    },
    {
      "channel": 3,
      "note": 51,
      "start": 48.2313,
      "duration": 0.1059,
      "velocity": 127,
      "chip": "ym2612"
    },
    {
      "channel": 0,
      "note": 94,
      "start": 48.3364,
      "duration": 0.1249,
      "velocity": 92,
      "chip": "ym2612"
    },
    {
      "channel": 3,
      "note": 51,
      "start": 48.3376,
      "duration": 0.1303,
      "velocity": 127,
      "chip": "ym2612"
    },
    {
      "channel": 0,
      "note": 92,
      "start": 48.4616,
      "duration": 0.1153,
      "velocity": 92,
      "chip": "ym2612"
    },
    {
      "channel": 1,
      "note": 53,
      "start": 48.4624,
      "duration": 0.1152,
      "velocity": 92,
      "chip": "ym2612"
    },
    {
      "channel": 2,
      "note": 29,
      "start": 48.4672,
      "duration": 0.0135,
      "velocity": 125,
      "chip": "ym2612"
    },
    {
      "channel": 3,
      "note": 63,
      "start": 48.4719,
      "duration": 0.2235,
      "velocity": 127,
      "chip": "ym2612"
    },
    {
      "channel": 0,
      "note": 89,
      "start": 48.5773,
      "duration": 0.1151,
      "velocity": 92,
      "chip": "ym2612"
    },
    {
      "channel": 0,
      "note": 91,
      "start": 48.6927,
      "duration": 0.1248,
      "velocity": 92,
      "chip": "ym2612"
    },
    {
      "channel": 1,
      "note": 58,
      "start": 48.6936,
      "duration": 0.4225,
      "velocity": 92,
      "chip": "ym2612"
    },
    {
      "channel": 2,
      "note": 29,
      "start": 48.6944,
      "duration": 0.0462,
      "velocity": 125,
      "chip": "ym2612"
    },
    {
      "channel": 3,
      "note": 51,
      "start": 48.6993,
      "duration": 0.1191,
      "velocity": 127,
      "chip": "ym2612"
    },
    {
      "channel": 0,
      "note": 89,
      "start": 48.8179,
      "duration": 0.1152,
      "velocity": 92,
      "chip": "ym2612"
    },
    {
      "channel": 3,
      "note": 51,
      "start": 48.8189,
      "duration": 0.1156,
      "velocity": 127,
      "chip": "ym2612"
    },
    {
      "channel": 0,
      "note": 87,
      "start": 48.9335,
      "duration": 0.1248,
      "velocity": 92,
      "chip": "ym2612"
    },
    {
      "channel": 3,
      "note": 63,
      "start": 48.9383,
      "duration": 0.2425,
      "velocity": 127,
      "chip": "ym2612"
    },
    {
      "channel": 0,
      "note": 86,
      "start": 49.0587,
      "duration": 0.1152,
      "velocity": 92,
      "chip": "ym2612"
    },
    {
      "channel": 0,
      "note": 85,
      "start": 49.1743,
      "duration": 0.1153,
      "velocity": 92,
      "chip": "ym2612"
    },
    {
      "channel": 1,
      "note": 51,
      "start": 49.1751,
      "duration": 0.1153,
      "velocity": 92,
      "chip": "ym2612"
    },
    {
      "channel": 2,
      "note": 41,
      "start": 49.1799,
      "duration": 0.0327,
      "velocity": 123,
      "chip": "ym2612"
    },
    {
      "channel": 3,
      "note": 51,
      "start": 49.1848,
      "duration": 0.1069,
      "velocity": 127,
      "chip": "ym2612"
    },
    {
      "channel": 0,
      "note": 95,
      "start": 49.2899,
      "duration": 0.1249,
      "velocity": 92,
      "chip": "ym2612"
    },
    {
      "channel": 1,
      "note": 63,
      "start": 49.2908,
      "duration": 0.1247,
      "velocity": 92,
      "chip": "ym2612"
    },
    {
      "channel": 3,
      "note": 63,
      "start": 49.2954,
      "duration": 0.2358,
      "velocity": 127,
      "chip": "ym2612"
    },
    {
      "channel": 0,
      "note": 91,
      "start": 49.4151,
      "duration": 0.2113,
      "velocity": 92,
      "chip": "ym2612"
    },
    {
      "channel": 3,
      "note": 51,
      "start": 49.5351,
      "duration": 0.1276,
      "velocity": 127,
      "chip": "ym2612"
    },
    {
      "channel": 0,
      "note": 94,
      "start": 49.656,
      "duration": 0.1151,
      "velocity": 92,
      "chip": "ym2612"
    },
    {
      "channel": 1,
      "note": 56,
      "start": 49.6567,
      "duration": 0.4129,
      "velocity": 92,
      "chip": "ym2612"
    },
    {
      "channel": 2,
      "note": 29,
      "start": 49.6616,
      "duration": 0.0324,
      "velocity": 125,
      "chip": "ym2612"
    },
    {
      "channel": 3,
      "note": 51,
      "start": 49.6667,
      "duration": 0.1055,
      "velocity": 127,
      "chip": "ym2612"
    },
    {
      "channel": 4,
      "note": 63,
      "start": 49.6675,
      "duration": 1.9063,
      "velocity": 103,
      "chip": "ym2612"
    },
    {
      "channel": 5,
      "note": 79,
      "start": 49.6684,
      "duration": 1.9062,
      "velocity": 103,
      "chip": "ym2612"
    },
    {
      "channel": 0,
      "note": 91,
      "start": 49.7716,
      "duration": 0.1151,
      "velocity": 92,
      "chip": "ym2612"
    },
    {
      "channel": 3,
      "note": 51,
      "start": 49.7726,
      "duration": 0.1155,
      "velocity": 127,
      "chip": "ym2612"
    },
    {
      "channel": 0,
      "note": 92,
      "start": 49.887,
      "duration": 0.1247,
      "velocity": 92,
      "chip": "ym2612"
    },
    {
      "channel": 3,
      "note": 63,
      "start": 49.8919,
      "duration": 0.2424,
      "velocity": 127,
      "chip": "ym2612"
    },
    {
      "channel": 0,
      "note": 94,
      "start": 50.0121,
      "duration": 0.1152,
      "velocity": 92,
      "chip": "ym2612"
    },
    {
      "channel": 0,
      "note": 96,
      "start": 50.1276,
      "duration": 0.1152,
      "velocity": 92,
      "chip": "ym2612"
    },
    {
      "channel": 1,
      "note": 56,
      "start": 50.1284,
      "duration": 0.1152,
      "velocity": 92,
      "chip": "ym2612"
    },
    {
      "channel": 2,
      "note": 41,
      "start": 50.1333,
      "duration": 0.0134,
      "velocity": 123,
      "chip": "ym2612"
    },
    {
      "channel": 3,
      "note": 51,
      "start": 50.1383,
      "duration": 0.1058,
      "velocity": 127,
      "chip": "ym2612"
    },
    {
      "channel": 0,
      "note": 99,
      "start": 50.2432,
      "duration": 0.1249,
      "velocity": 92,
      "chip": "ym2612"
    },
    {
      "channel": 3,
      "note": 51,
      "start": 50.2444,
      "duration": 0.1306,
      "velocity": 127,
      "chip": "ym2612"
    },
    {
      "channel": 0,
      "note": 103,
      "start": 50.3684,
      "duration": 0.1152,
      "velocity": 92,
      "chip": "ym2612"
    },
    {
      "channel": 1,
      "note": 51,
      "start": 50.3693,
      "duration": 0.1151,
      "velocity": 92,
      "chip": "ym2612"
    },
    {
      "channel": 2,
      "note": 29,
      "start": 50.3741,
      "duration": 0.0133,
      "velocity": 125,
      "chip": "ym2612"
    },
    {
      "channel": 3,
      "note": 63,
      "start": 50.3787,
      "duration": 0.2332,
      "velocity": 127,
      "chip": "ym2612"
    },
    {
      "channel": 0,
      "note": 101,
      "start": 50.484,
      "duration": 0.1248,
      "velocity": 92,
      "chip": "ym2612"
    },
    {
      "channel": 0,
      "note": 99,
      "start": 50.6092,
      "duration": 0.1152,
      "velocity": 92,
      "chip": "ym2612"
    },
    {
      "channel": 1,
      "note": 56,
      "start": 50.6101,
      "duration": 0.3166,
      "velocity": 92,
      "chip": "ym2612"
    },
    {
      "channel": 2,
      "note": 29,
      "start": 50.6109,
      "duration": 0.0366,
      "velocity": 125,
      "chip": "ym2612"
    },
    {
      "channel": 3,
      "note": 51,
      "start": 50.6158,
      "duration": 0.1095,
      "velocity": 127,
      "chip": "ym2612"
    },
    {
      "channel": 0,
      "note": 96,
      "start": 50.7248,
      "duration": 0.1152,
      "velocity": 92,
      "chip": "ym2612"
    },
    {
      "channel": 3,
      "note": 51,
      "start": 50.7257,
      "duration": 0.1156,
      "velocity": 127,
      "chip": "ym2612"
    },
    {
      "channel": 0,
      "note": 94,
      "start": 50.8403,
      "duration": 0.1249,
      "velocity": 92,
      "chip": "ym2612"
    },
    {
      "channel": 3,
      "note": 63,
      "start": 50.8451,
      "duration": 0.2422,
      "velocity": 127,
      "chip": "ym2612"
    },
    {
      "channel": 0,
      "note": 92,
      "start": 50.9656,
      "duration": 0.1153,
      "velocity": 92,
      "chip": "ym2612"
    },
    {
      "channel": 1,
      "note": 63,
      "start": 50.9663,
      "duration": 0.1153,
      "velocity": 92,
      "chip": "ym2612"
    },
    {
      "channel": 2,
      "note": 29,
      "start": 50.9671,
      "duration": 0.0175,
      "velocity": 125,
      "chip": "ym2612"
    },
    {
      "channel": 0,
      "note": 106,
      "start": 51.0812,
      "duration": 0.1247,
      "velocity": 92,
      "chip": "ym2612"
    },
    {
      "channel": 2,
      "note": 41,
      "start": 51.0863,
      "duration": 0.0139,
      "velocity": 123,
      "chip": "ym2612"
    },
    {
      "channel": 3,
      "note": 51,
      "start": 51.0913,
      "duration": 0.1205,
      "velocity": 127,
      "chip": "ym2612"
    },
    {
      "channel": 1,
      "note": 51,
      "start": 51.2068,
      "duration": 0.1156,
      "velocity": 92,
      "chip": "ym2612"
    },
    {
      "channel": 2,
      "note": 29,
      "start": 51.2115,
      "duration": 0.0331,
      "velocity": 125,
      "chip": "ym2612"
    },
    {
      "channel": 3,
      "note": 51,
      "start": 51.2123,
      "duration": 0.1111,
      "velocity": 127,
      "chip": "ym2612"
    },
    {
      "channel": 0,
      "note": 104,
      "start": 51.322,
      "duration": 0.1151,
      "velocity": 92,
      "chip": "ym2612"
    },
    {
      "channel": 3,
      "note": 63,
      "start": 51.327,
      "duration": 0.2423,
      "velocity": 127,
      "chip": "ym2612"
    },
    {
      "channel": 0,
      "note": 102,
      "start": 51.5627,
      "duration": 0.1151,
      "velocity": 92,
      "chip": "ym2612"
    },
    {
      "channel": 1,
      "note": 56,
      "start": 51.5636,
      "duration": 0.4128,
      "velocity": 92,
      "chip": "ym2612"
    },
    {
      "channel": 2,
      "note": 29,
      "start": 51.5684,
      "duration": 0.0326,
      "velocity": 125,
      "chip": "ym2612"
    },
    {
      "channel": 3,
      "note": 51,
      "start": 51.5734,
      "duration": 0.105,
      "velocity": 127,
      "chip": "ym2612"
    },
    {
      "channel": 4,
      "note": 63,
      "start": 51.5741,
      "duration": 1.9075,
      "velocity": 103,
      "chip": "ym2612"
    },
    {
      "channel": 5,
      "note": 78,
      "start": 51.5749,
      "duration": 1.9075,
      "velocity": 103,
      "chip": "ym2612"
    },
    {
      "channel": 3,
      "note": 51,
      "start": 51.6787,
      "duration": 0.1162,
      "velocity": 127,
      "chip": "ym2612"
    },
    {
      "channel": 0,
      "note": 104,
      "start": 51.7939,
      "duration": 0.1247,
      "velocity": 92,
      "chip": "ym2612"
    },
    {
      "channel": 3,
      "note": 63,
      "start": 51.7986,
      "duration": 0.2422,
      "velocity": 127,
      "chip": "ym2612"
    },
    {
      "channel": 0,
      "note": 106,
      "start": 51.9189,
      "duration": 0.1153,
      "velocity": 92,
      "chip": "ym2612"
    },
    {
      "channel": 1,
      "note": 56,
      "start": 52.035,
      "duration": 0.1251,
      "velocity": 92,
      "chip": "ym2612"
    },
    {
      "channel": 2,
      "note": 41,
      "start": 52.0399,
      "duration": 0.0137,
      "velocity": 123,
      "chip": "ym2612"
    },
    {
      "channel": 3,
      "note": 51,
      "start": 52.0448,
      "duration": 0.1159,
      "velocity": 127,
      "chip": "ym2612"
    },
    {
      "channel": 0,
      "note": 102,
      "start": 52.1597,
      "duration": 0.1152,
      "velocity": 92,
      "chip": "ym2612"
    },
    {
      "channel": 3,
      "note": 51,
      "start": 52.1609,
      "duration": 0.1208,
      "velocity": 127,
      "chip": "ym2612"
    },
    {
      "channel": 0,
      "note": 99,
      "start": 52.2753,
      "duration": 0.1152,
      "velocity": 92,
      "chip": "ym2612"
    },
    {
      "channel": 1,
      "note": 51,
      "start": 52.2761,
      "duration": 0.1151,
      "velocity": 92,
      "chip": "ym2612"
    },
    {
      "channel": 2,
      "note": 29,
      "start": 52.2809,
      "duration": 0.0134,
      "velocity": 125,
      "chip": "ym2612"
    },
    {
      "channel": 3,
      "note": 63,
      "start": 52.2854,
      "duration": 0.2333,
      "velocity": 127,
      "chip": "ym2612"
    },
    {
      "channel": 0,
      "note": 97,
      "start": 52.3908,
      "duration": 0.1249,
      "velocity": 92,
      "chip": "ym2612"
    },
    {
      "channel": 0,
      "note": 95,
      "start": 52.5161,
      "duration": 0.1152,
      "velocity": 92,
      "chip": "ym2612"
    },
    {
      "channel": 1,
      "note": 56,
      "start": 52.517,
      "duration": 0.4129,
      "velocity": 92,
      "chip": "ym2612"
    },
    {
      "channel": 2,
      "note": 29,
      "start": 52.5177,
      "duration": 0.0366,
      "velocity": 125,
      "chip": "ym2612"
    },
    {
      "channel": 3,
      "note": 51,
      "start": 52.5228,
      "duration": 0.1094,
      "velocity": 127,
      "chip": "ym2612"
    },
    {
      "channel": 0,
      "note": 92,
      "start": 52.6316,
      "duration": 0.1249,
      "velocity": 92,
      "chip": "ym2612"
    },
    {
      "channel": 3,
      "note": 51,
      "start": 52.6325,
      "duration": 0.1253,
      "velocity": 127,
      "chip": "ym2612"
    },
    {
      "channel": 0,
      "note": 94,
      "start": 52.7568,
      "duration": 0.1153,
      "velocity": 92,
      "chip": "ym2612"
    },
    {
      "channel": 3,
      "note": 63,
      "start": 52.7616,
      "duration": 0.2331,
      "velocity": 127,
      "chip": "ym2612"
    },
    {
      "channel": 0,
      "note": 93,
      "start": 52.8725,
      "duration": 0.1151,
      "velocity": 92,
      "chip": "ym2612"
    },
    {
      "channel": 0,
      "note": 92,
      "start": 52.988,
      "duration": 0.1249,
      "velocity": 92,
      "chip": "ym2612"
    },
    {
      "channel": 1,
      "note": 49,
      "start": 52.989,
      "duration": 0.1248,
      "velocity": 92,
      "chip": "ym2612"
    },
    {
      "channel": 2,
      "note": 41,
      "start": 52.9937,
      "duration": 0.0326,
      "velocity": 123,
      "chip": "ym2612"
    },
    {
      "channel": 3,
      "note": 51,
      "start": 52.9986,
      "duration": 0.1164,
      "velocity": 127,
      "chip": "ym2612"
    },
    {
      "channel": 0,
      "note": 91,
      "start": 53.1133,
      "duration": 0.1151,
      "velocity": 92,
      "chip": "ym2612"
    },
    {
      "channel": 1,
      "note": 61,
      "start": 53.1141,
      "duration": 0.115,
      "velocity": 92,
      "chip": "ym2612"
    },
    {
      "channel": 3,
      "note": 63,
      "start": 53.1188,
      "duration": 0.2366,
      "velocity": 127,
      "chip": "ym2612"
    },
    {
      "channel": 0,
      "note": 90,
      "start": 53.2287,
      "duration": 0.1248,
      "velocity": 92,
      "chip": "ym2612"
    },
    {
      "channel": 0,
      "note": 87,
      "start": 53.3539,
      "duration": 0.1154,
      "velocity": 92,
      "chip": "ym2612"
    },
    {
      "channel": 3,
      "note": 51,
      "start": 53.3593,
      "duration": 0.118,
      "velocity": 127,
      "chip": "ym2612"
    },
    {
      "channel": 0,
      "note": 89,
      "start": 53.4697,
      "duration": 0.0765,
      "velocity": 92,
      "chip": "ym2612"
    },
    {
      "channel": 1,
      "note": 54,
      "start": 53.4706,
      "duration": 0.4127,
      "velocity": 92,
      "chip": "ym2612"
    },
    {
      "channel": 2,
      "note": 29,
      "start": 53.4761,
      "duration": 0.0316,
      "velocity": 125,
      "chip": "ym2612"
    },
    {
      "channel": 3,
      "note": 51,
      "start": 53.4812,
      "duration": 0.1037,
      "velocity": 127,
      "chip": "ym2612"
    },
    {
      "channel": 4,
      "note": 61,
      "start": 53.482,
      "duration": 1.9057,
      "velocity": 103,
      "chip": "ym2612"
    },
    {
      "channel": 5,
      "note": 77,
      "start": 53.4827,
      "duration": 1.906,
      "velocity": 103,
      "chip": "ym2612"
    },
    {
      "channel": 0,
      "note": 90,
      "start": 53.5466,
      "duration": 0.0766,
      "velocity": 92,
      "chip": "ym2612"
    },
    {
      "channel": 3,
      "note": 51,
      "start": 53.5854,
      "duration": 0.126,
      "velocity": 127,
      "chip": "ym2612"
    },
    {
      "channel": 0,
      "note": 91,
      "start": 53.6236,
      "duration": 0.0864,
      "velocity": 92,
      "chip": "ym2612"
    },
    {
      "channel": 0,
      "note": 92,
      "start": 53.7103,
      "duration": 0.0767,
      "velocity": 92,
      "chip": "ym2612"
    },
    {
      "channel": 3,
      "note": 63,
      "start": 53.7151,
      "duration": 0.2328,
      "velocity": 127,
      "chip": "ym2612"
    },
    {
      "channel": 0,
      "note": 91,
      "start": 53.7874,
      "duration": 0.0766,
      "velocity": 92,
      "chip": "ym2612"
    },
    {
      "channel": 0,
      "note": 90,
      "start": 53.8643,
      "duration": 0.0767,
      "velocity": 92,
      "chip": "ym2612"
    },
    {
      "channel": 0,
      "note": 89,
      "start": 53.9414,
      "duration": 0.1248,
      "velocity": 92,
      "chip": "ym2612"
    },
    {
      "channel": 1,
      "note": 54,
      "start": 53.9422,
      "duration": 0.1244,
      "velocity": 92,
      "chip": "ym2612"
    },
    {
      "channel": 2,
      "note": 41,
      "start": 53.9469,
      "duration": 0.0232,
      "velocity": 123,
      "chip": "ym2612"
    },
    {
      "channel": 3,
      "note": 51,
      "start": 53.9518,
      "duration": 0.1153,
      "velocity": 127,
      "chip": "ym2612"
    },
    {
      "channel": 3,
      "note": 51,
      "start": 54.0674,
      "duration": 0.1213,
      "velocity": 127,
      "chip": "ym2612"
    },
    {
      "channel": 0,
      "note": 101,
      "start": 54.1822,
      "duration": 0.0766,
      "velocity": 92,
      "chip": "ym2612"
    },
    {
      "channel": 1,
      "note": 49,
      "start": 54.183,
      "duration": 0.124,
      "velocity": 92,
      "chip": "ym2612"
    },
    {
      "channel": 2,
      "note": 29,
      "start": 54.1877,
      "duration": 0.0135,
      "velocity": 125,
      "chip": "ym2612"
    },
    {
      "channel": 3,
      "note": 63,
      "start": 54.1924,
      "duration": 0.2332,
      "velocity": 127,
      "chip": "ym2612"
    },
    {
      "channel": 0,
      "note": 102,
      "start": 54.2592,
      "duration": 0.0863,
      "velocity": 92,
      "chip": "ym2612"
    },
    {
      "channel": 0,
      "note": 103,
      "start": 54.3459,
      "duration": 0.0768,
      "velocity": 92,
      "chip": "ym2612"
    },
    {
      "channel": 0,
      "note": 104,
      "start": 54.423,
      "duration": 0.0766,
      "velocity": 92,
      "chip": "ym2612"
    },
    {
      "channel": 1,
      "note": 54,
      "start": 54.4238,
      "duration": 0.4129,
      "velocity": 92,
      "chip": "ym2612"
    },
    {
      "channel": 2,
      "note": 29,
      "start": 54.4246,
      "duration": 0.0366,
      "velocity": 125,
      "chip": "ym2612"
    },
    {
      "channel": 3,
      "note": 51,
      "start": 54.4295,
      "duration": 0.109,
      "velocity": 127,
      "chip": "ym2612"
    },
    {
      "channel": 0,
      "note": 103,
      "start": 54.5,
      "duration": 0.0862,
      "velocity": 92,
      "chip": "ym2612"
    },
    {
      "channel": 3,
      "note": 51,
      "start": 54.5389,
      "duration": 0.1258,
      "velocity": 127,
      "chip": "ym2612"
    },
    {
      "channel": 0,
      "note": 102,
      "start": 54.5866,
      "duration": 0.0767,
      "velocity": 92,
      "chip": "ym2612"
    },
    {
      "channel": 0,
      "note": 101,
      "start": 54.6637,
      "duration": 0.1152,
      "velocity": 92,
      "chip": "ym2612"
    },
    {
      "channel": 3,
      "note": 63,
      "start": 54.6684,
      "duration": 0.2427,
      "velocity": 127,
      "chip": "ym2612"
    },
    {
      "channel": 0,
      "note": 94,
      "start": 54.9044,
      "duration": 0.0767,
      "velocity": 92,
      "chip": "ym2612"
    },
    {
      "channel": 1,
      "note": 56,
      "start": 54.9054,
      "duration": 0.4128,
      "velocity": 92,
      "chip": "ym2612"
    },
    {
      "channel": 2,
      "note": 41,
      "start": 54.9102,
      "duration": 0.0325,
      "velocity": 123,
      "chip": "ym2612"
    },
    {
      "channel": 3,
      "note": 51,
      "start": 54.9151,
      "duration": 0.1048,
      "velocity": 127,
      "chip": "ym2612"
    },
    {
      "channel": 0,
      "note": 95,
      "start": 54.9815,
      "duration": 0.0767,
      "velocity": 92,
      "chip": "ym2612"
    },
    {
      "channel": 3,
      "note": 51,
      "start": 55.0203,
      "duration": 0.1163,
      "velocity": 127,
      "chip": "ym2612"
    },
    {
      "channel": 0,
      "note": 96,
      "start": 55.0585,
      "duration": 0.0767,
      "velocity": 92,
      "chip": "ym2612"
    },
    {
      "channel": 0,
      "note": 97,
      "start": 55.1355,
      "duration": 0.0865,
      "velocity": 92,
      "chip": "ym2612"
    },
    {
      "channel": 3,
      "note": 63,
      "start": 55.1404,
      "duration": 0.2428,
      "velocity": 127,
      "chip": "ym2612"
    },
    {
      "channel": 0,
      "note": 96,
      "start": 55.2224,
      "duration": 0.0765,
      "velocity": 92,
      "chip": "ym2612"
    },
    {
      "channel": 0,
      "note": 95,
      "start": 55.2993,
      "duration": 0.0769,
      "velocity": 92,
      "chip": "ym2612"
    },
    {
      "channel": 0,
      "note": 94,
      "start": 55.3765,
      "duration": 0.115,
      "velocity": 92,
      "chip": "ym2612"
    },
    {
      "channel": 1,
      "note": 51,
      "start": 55.3774,
      "duration": 0.4127,
      "velocity": 92,
      "chip": "ym2612"
    },
    {
      "channel": 2,
      "note": 29,
      "start": 55.3823,
      "duration": 0.0323,
      "velocity": 125,
      "chip": "ym2612"
    },
    {
      "channel": 3,
      "note": 51,
      "start": 55.3872,
      "duration": 0.1049,
      "velocity": 127,
      "chip": "ym2612"
    },
    {
      "channel": 4,
      "note": 70,
      "start": 55.3881,
      "duration": 1.9066,
      "velocity": 103,
      "chip": "ym2612"
    },
    {
      "channel": 5,
      "note": 85,
      "start": 55.3891,
      "duration": 1.9064,
      "velocity": 103,
      "chip": "ym2612"
    },
    {
      "channel": 3,
      "note": 51,
      "start": 55.4924,
      "duration": 0.1257,
      "velocity": 127,
      "chip": "ym2612"
    },
    {
      "channel": 0,
      "note": 93,
      "start": 55.6171,
      "duration": 0.1151,
      "velocity": 92,
      "chip": "ym2612"
    },
    {
      "channel": 3,
      "note": 63,
      "start": 55.622,
      "duration": 0.2423,
      "velocity": 127,
      "chip": "ym2612"
    },
    {
      "channel": 0,
      "note": 92,
      "start": 55.8579,
      "duration": 0.1153,
      "velocity": 92,
      "chip": "ym2612"
    },
    {
      "channel": 1,
      "note": 51,
      "start": 55.8586,
      "duration": 0.1153,
      "velocity": 92,
      "chip": "ym2612"
    },
    {
      "channel": 2,
      "note": 41,
      "start": 55.8633,
      "duration": 0.0136,
      "velocity": 123,
      "chip": "ym2612"
    },
    {
      "channel": 3,
      "note": 51,
      "start": 55.8682,
      "duration": 0.1062,
      "velocity": 127,
      "chip": "ym2612"
    },
    {
      "channel": 0,
      "note": 91,
      "start": 55.9735,
      "duration": 0.1153,
      "velocity": 92,
      "chip": "ym2612"
    },
    {
      "channel": 3,
      "note": 51,
      "start": 55.9747,
      "duration": 0.1208,
      "velocity": 127,
      "chip": "ym2612"
    },
    {
      "channel": 0,
      "note": 87,
      "start": 56.0891,
      "duration": 0.1248,
      "velocity": 92,
      "chip": "ym2612"
    },
    {
      "channel": 1,
      "note": 58,
      "start": 56.09,
      "duration": 0.1246,
      "velocity": 92,
      "chip": "ym2612"
    },
    {
      "channel": 2,
      "note": 29,
      "start": 56.0947,
      "duration": 0.0133,
      "velocity": 125,
      "chip": "ym2612"
    },
    {
      "channel": 3,
      "note": 63,
      "start": 56.0993,
      "duration": 0.233,
      "velocity": 127,
      "chip": "ym2612"
    },
    {
      "channel": 0,
      "note": 88,
      "start": 56.2142,
      "duration": 0.1152,
      "velocity": 92,
      "chip": "ym2612"
    },
    {
      "channel": 0,
      "note": 89,
      "start": 56.3298,
      "duration": 0.1248,
      "velocity": 92,
      "chip": "ym2612"
    },
    {
      "channel": 1,
      "note": 65,
      "start": 56.3305,
      "duration": 0.4226,
      "velocity": 92,
      "chip": "ym2612"
    },
    {
      "channel": 2,
      "note": 29,
      "start": 56.3313,
      "duration": 0.0367,
      "velocity": 125,
      "chip": "ym2612"
    },
    {
      "channel": 3,
      "note": 51,
      "start": 56.3362,
      "duration": 0.1195,
      "velocity": 127,
      "chip": "ym2612"
    },
    {
      "channel": 0,
      "note": 88,
      "start": 56.4551,
      "duration": 0.1151,
      "velocity": 92,
      "chip": "ym2612"
    },
    {
      "channel": 3,
      "note": 51,
      "start": 56.456,
      "duration": 0.1156,
      "velocity": 127,
      "chip": "ym2612"
    },
    {
      "channel": 0,
      "note": 87,
      "start": 56.5705,
      "duration": 0.1152,
      "velocity": 92,
      "chip": "ym2612"
    },
    {
      "channel": 3,
      "note": 63,
      "start": 56.5754,
      "duration": 0.2426,
      "velocity": 127,
      "chip": "ym2612"
    },
    {
      "channel": 0,
      "note": 86,
      "start": 56.6861,
      "duration": 0.1249,
      "velocity": 92,
      "chip": "ym2612"
    },
    {
      "channel": 0,
      "note": 85,
      "start": 56.8112,
      "duration": 0.1153,
      "velocity": 92,
      "chip": "ym2612"
    },
    {
      "channel": 1,
      "note": 51,
      "start": 56.8121,
      "duration": 0.4129,
      "velocity": 92,
      "chip": "ym2612"
    },
    {
      "channel": 2,
      "note": 41,
      "start": 56.8169,
      "duration": 0.0327,
      "velocity": 123,
      "chip": "ym2612"
    },
    {
      "channel": 3,
      "note": 51,
      "start": 56.8221,
      "duration": 0.1058,
      "velocity": 127,
      "chip": "ym2612"
    },
    {
      "channel": 0,
      "note": 83,
      "start": 56.9268,
      "duration": 0.1249,
      "velocity": 92,
      "chip": "ym2612"
    },
    {
      "channel": 3,
      "note": 63,
      "start": 56.9316,
      "duration": 0.237,
      "velocity": 127,
      "chip": "ym2612"
    },
    {
      "channel": 0,
      "note": 80,
      "start": 57.052,
      "duration": 0.1152,
      "velocity": 92,
      "chip": "ym2612"
    },
    {
      "channel": 0,
      "note": 81,
      "start": 57.1676,
      "duration": 0.1152,
      "velocity": 92,
      "chip": "ym2612"
    },
    {
      "channel": 3,
      "note": 51,
      "start": 57.1727,
      "duration": 0.1176,
      "velocity": 127,
      "chip": "ym2612"
    },
    {
      "channel": 0,
      "note": 82,
      "start": 57.2832,
      "duration": 0.1249,
      "velocity": 92,
      "chip": "ym2612"
    },
    {
      "channel": 1,
      "note": 58,
      "start": 57.2841,
      "duration": 0.4225,
      "velocity": 92,
      "chip": "ym2612"
    },
    {
      "channel": 2,
      "note": 29,
      "start": 57.289,
      "duration": 0.0326,
      "velocity": 125,
      "chip": "ym2612"
    },
    {
      "channel": 3,
      "note": 51,
      "start": 57.2942,
      "duration": 0.1149,
      "velocity": 127,
      "chip": "ym2612"
    },
    {
      "channel": 4,
      "note": 65,
      "start": 57.2951,
      "duration": 1.9062,
      "velocity": 103,
      "chip": "ym2612"
    },
    {
      "channel": 5,
      "note": 80,
      "start": 57.2959,
      "duration": 1.9062,
      "velocity": 103,
      "chip": "ym2612"
    },
    {
      "channel": 0,
      "note": 94,
      "start": 57.4085,
      "duration": 0.1151,
      "velocity": 92,
      "chip": "ym2612"
    },
    {
      "channel": 3,
      "note": 51,
      "start": 57.4095,
      "duration": 0.1151,
      "velocity": 127,
      "chip": "ym2612"
    },
    {
      "channel": 3,
      "note": 63,
      "start": 57.5283,
      "duration": 0.243,
      "velocity": 127,
      "chip": "ym2612"
    },
    {
      "channel": 0,
      "note": 82,
      "start": 57.6396,
      "duration": 0.1249,
      "velocity": 92,
      "chip": "ym2612"
    },
    {
      "channel": 0,
      "note": 92,
      "start": 57.7648,
      "duration": 0.1151,
      "velocity": 92,
      "chip": "ym2612"
    },
    {
      "channel": 1,
      "note": 58,
      "start": 57.7656,
      "duration": 0.1147,
      "velocity": 92,
      "chip": "ym2612"
    },
    {
      "channel": 2,
      "note": 41,
      "start": 57.7703,
      "duration": 0.0135,
      "velocity": 123,
      "chip": "ym2612"
    },
    {
      "channel": 3,
      "note": 51,
      "start": 57.7754,
      "duration": 0.1054,
      "velocity": 127,
      "chip": "ym2612"
    },
    {
      "channel": 3,
      "note": 51,
      "start": 57.8811,
      "duration": 0.1309,
      "velocity": 127,
      "chip": "ym2612"
    },
    {
      "channel": 0,
      "note": 82,
      "start": 58.0057,
      "duration": 0.115,
      "velocity": 92,
      "chip": "ym2612"
    },
    {
      "channel": 1,
      "note": 61,
      "start": 58.0065,
      "duration": 0.1151,
      "velocity": 92,
      "chip": "ym2612"
    },
    {
      "channel": 2,
      "note": 29,
      "start": 58.0112,
      "duration": 0.0133,
      "velocity": 125,
      "chip": "ym2612"
    },
    {
      "channel": 3,
      "note": 63,
      "start": 58.0158,
      "duration": 0.2229,
      "velocity": 127,
      "chip": "ym2612"
    },
    {
      "channel": 0,
      "note": 89,
      "start": 58.121,
      "duration": 0.221,
      "velocity": 92,
      "chip": "ym2612"
    },
    {
      "channel": 1,
      "note": 65,
      "start": 58.2367,
      "duration": 0.4233,
      "velocity": 92,
      "chip": "ym2612"
    },
    {
      "channel": 2,
      "note": 29,
      "start": 58.2375,
      "duration": 0.047,
      "velocity": 125,
      "chip": "ym2612"
    },
    {
      "channel": 3,
      "note": 51,
      "start": 58.2426,
      "duration": 0.1198,
      "velocity": 127,
      "chip": "ym2612"
    },
    {
      "channel": 0,
      "note": 82,
      "start": 58.3618,
      "duration": 0.1152,
      "velocity": 92,
      "chip": "ym2612"
    },
    {
      "channel": 3,
      "note": 51,
      "start": 58.3628,
      "duration": 0.1156,
      "velocity": 127,
      "chip": "ym2612"
    },
    {
      "channel": 0,
      "note": 87,
      "start": 58.4774,
      "duration": 0.221,
      "velocity": 92,
      "chip": "ym2612"
    },
    {
      "channel": 3,
      "note": 63,
      "start": 58.4821,
      "duration": 0.2427,
      "velocity": 127,
      "chip": "ym2612"
    },
    {
      "channel": 0,
      "note": 85,
      "start": 58.7181,
      "duration": 0.221,
      "velocity": 92,
      "chip": "ym2612"
    },
    {
      "channel": 1,
      "note": 61,
      "start": 58.7189,
      "duration": 0.413,
      "velocity": 92,
      "chip": "ym2612"
    },
    {
      "channel": 2,
      "note": 41,
      "start": 58.7238,
      "duration": 0.0326,
      "velocity": 123,
      "chip": "ym2612"
    },
    {
      "channel": 3,
      "note": 51,
      "start": 58.7287,
      "duration": 0.1048,
      "velocity": 127,
      "chip": "ym2612"
    },
    {
      "channel": 3,
      "note": 51,
      "start": 58.8339,
      "duration": 0.126,
      "velocity": 127,
      "chip": "ym2612"
    },
    {
      "channel": 0,
      "note": 84,
      "start": 58.9589,
      "duration": 0.2115,
      "velocity": 92,
      "chip": "ym2612"
    },
    {
      "channel": 3,
      "note": 63,
      "start": 58.9637,
      "duration": 0.2332,
      "velocity": 127,
      "chip": "ym2612"
    },
    {
      "channel": 0,
      "note": 87,
      "start": 59.19,
      "duration": 0.2211,
      "velocity": 92,
      "chip": "ym2612"
    },
    {
      "channel": 1,
      "note": 63,
      "start": 59.1908,
      "duration": 0.4227,
      "velocity": 92,
      "chip": "ym2612"
    },
    {
      "channel": 2,
      "note": 29,
      "start": 59.1959,
      "duration": 0.042,
      "velocity": 125,
      "chip": "ym2612"
    },
    {
      "channel": 3,
      "note": 51,
      "start": 59.2008,
      "duration": 0.1143,
      "velocity": 127,
      "chip": "ym2612"
    },
    {
      "channel": 4,
      "note": 63,
      "start": 59.2016,
      "duration": 1.9166,
      "velocity": 103,
      "chip": "ym2612"
    },
    {
      "channel": 5,
      "note": 79,
      "start": 59.2025,
      "duration": 1.9164,
      "velocity": 103,
      "chip": "ym2612"
    },
    {
      "channel": 3,
      "note": 51,
      "start": 59.3155,
      "duration": 0.1164,
      "velocity": 127,
      "chip": "ym2612"
    },
    {
      "channel": 0,
      "note": 99,
      "start": 59.4309,
      "duration": 0.1248,
      "velocity": 92,
      "chip": "ym2612"
    },
    {
      "channel": 3,
      "note": 63,
      "start": 59.4356,
      "duration": 0.2427,
      "velocity": 127,
      "chip": "ym2612"
    },
    {
      "channel": 0,
      "note": 87,
      "start": 59.5561,
      "duration": 0.1152,
      "velocity": 92,
      "chip": "ym2612"
    },
    {
      "channel": 0,
      "note": 97,
      "start": 59.6718,
      "duration": 0.115,
      "velocity": 92,
      "chip": "ym2612"
    },
    {
      "channel": 1,
      "note": 63,
      "start": 59.6726,
      "duration": 0.1145,
      "velocity": 92,
      "chip": "ym2612"
    },
    {
      "channel": 2,
      "note": 41,
      "start": 59.6773,
      "duration": 0.0133,
      "velocity": 123,
      "chip": "ym2612"
    },
    {
      "channel": 3,
      "note": 51,
      "start": 59.6822,
      "duration": 0.1054,
      "velocity": 127,
      "chip": "ym2612"
    },
    {
      "channel": 3,
      "note": 51,
      "start": 59.788,
      "duration": 0.1308,
      "velocity": 127,
      "chip": "ym2612"
    },
    {
      "channel": 0,
      "note": 87,
      "start": 59.9124,
      "duration": 0.1153,
      "velocity": 92,
      "chip": "ym2612"
    },
    {
      "channel": 1,
      "note": 58,
      "start": 59.9132,
      "duration": 0.1152,
      "velocity": 92,
      "chip": "ym2612"
    },
    {
      "channel": 2,
      "note": 29,
      "start": 59.9179,
      "duration": 0.0134,
      "velocity": 125,
      "chip": "ym2612"
    },
    {
      "channel": 3,
      "note": 63,
      "start": 59.9226,
      "duration": 0.2329,
      "velocity": 127,
      "chip": "ym2612"
    },
    {
      "channel": 0,
      "note": 94,
      "start": 60.028,
      "duration": 0.1248,
      "velocity": 92,
      "chip": "ym2612"
    },
    {
      "channel": 1,
      "note": 51,
      "start": 60.1535,
      "duration": 0.2111,
      "velocity": 92,
      "chip": "ym2612"
    },
    {
      "channel": 2,
      "note": 29,
      "start": 60.1544,
      "duration": 0.0179,
      "velocity": 125,
      "chip": "ym2612"
    },
    {
      "channel": 3,
      "note": 51,
      "start": 60.1595,
      "duration": 0.1099,
      "velocity": 127,
      "chip": "ym2612"
    },
    {
      "channel": 0,
      "note": 87,
      "start": 60.2688,
      "duration": 0.1152,
      "velocity": 92,
      "chip": "ym2612"
    },
    {
      "channel": 3,
      "note": 51,
      "start": 60.2697,
      "duration": 0.1212,
      "velocity": 127,
      "chip": "ym2612"
    },
    {
      "channel": 0,
      "note": 92,
      "start": 60.3843,
      "duration": 0.1247,
      "velocity": 92,
      "chip": "ym2612"
    },
    {
      "channel": 1,
      "note": 58,
      "start": 60.3852,
      "duration": 0.2203,
      "velocity": 92,
      "chip": "ym2612"
    },
    {
      "channel": 2,
      "note": 41,
      "start": 60.3901,
      "duration": 0.0131,
      "velocity": 123,
      "chip": "ym2612"
    },
    {
      "channel": 3,
      "note": 63,
      "start": 60.3946,
      "duration": 0.2332,
      "velocity": 127,
      "chip": "ym2612"
    },
    {
      "channel": 0,
      "note": 91,
      "start": 60.625,
      "duration": 0.1248,
      "velocity": 92,
      "chip": "ym2612"
    },
    {
      "channel": 1,
      "note": 49,
      "start": 60.6259,
      "duration": 0.4129,
      "velocity": 92,
      "chip": "ym2612"
    },
    {
      "channel": 2,
      "note": 43,
      "start": 60.6268,
      "duration": 0.0172,
      "velocity": 123,
      "chip": "ym2612"
    },
    {
      "channel": 3,
      "note": 51,
      "start": 60.6317,
      "duration": 0.1202,
      "velocity": 127,
      "chip": "ym2612"
    },
    {
      "channel": 0,
      "note": 87,
      "start": 60.7502,
      "duration": 0.1152,
      "velocity": 92,
      "chip": "ym2612"
    },
    {
      "channel": 2,
      "note": 43,
      "start": 60.7511,
      "duration": 0.0181,
      "velocity": 123,
      "chip": "ym2612"
    },
    {
      "channel": 3,
      "note": 63,
      "start": 60.7557,
      "duration": 0.2259,
      "velocity": 127,
      "chip": "ym2612"
    },
    {
      "channel": 0,
      "note": 82,
      "start": 60.8658,
      "duration": 0.221,
      "velocity": 92,
      "chip": "ym2612"
    },
    {
      "channel": 2,
      "note": 39,
      "start": 60.8666,
      "duration": 0.0181,
      "velocity": 123,
      "chip": "ym2612"
    },
    {
      "channel": 3,
      "note": 51,
      "start": 60.9856,
      "duration": 0.1282,
      "velocity": 127,
      "chip": "ym2612"
    },
    {
      "channel": 0,
      "note": 82,
      "start": 61.1065,
      "duration": 0.1155,
      "velocity": 92,
      "chip": "ym2612"
    },
    {
      "channel": 1,
      "note": 56,
      "start": 61.1074,
      "duration": 0.4129,
      "velocity": 92,
      "chip": "ym2612"
    },
    {
      "channel": 2,
      "note": 29,
      "start": 61.1126,
      "duration": 0.0322,
      "velocity": 125,
      "chip": "ym2612"
    },
    {
      "channel": 3,
      "note": 51,
      "start": 61.1177,
      "duration": 0.1051,
      "velocity": 127,
      "chip": "ym2612"
    },
    {
      "channel": 4,
      "note": 63,
      "start": 61.1185,
      "duration": 1.9062,
      "velocity": 103,
      "chip": "ym2612"
    },
    {
      "channel": 5,
      "note": 78,
      "start": 61.1193,
      "duration": 1.9062,
      "velocity": 103,
      "chip": "ym2612"
    },
    {
      "channel": 0,
      "note": 79,
      "start": 61.2223,
      "duration": 0.1151,
      "velocity": 92,
      "chip": "ym2612"
    },
    {
      "channel": 3,
      "note": 51,
      "start": 61.2233,
      "duration": 0.1156,
      "velocity": 127,
      "chip": "ym2612"
    },
    {
      "channel": 0,
      "note": 80,
      "start": 61.3377,
      "duration": 0.1247,
      "velocity": 92,
      "chip": "ym2612"
    },
    {
      "channel": 3,
      "note": 63,
      "start": 61.3426,
      "duration": 0.2422,
      "velocity": 127,
      "chip": "ym2612"
    },
    {
      "channel": 0,
      "note": 82,
      "start": 61.4628,
      "duration": 0.1152,
      "velocity": 92,
      "chip": "ym2612"
    },
    {
      "channel": 0,
      "note": 83,
      "start": 61.5784,
      "duration": 0.1248,
      "velocity": 92,
      "chip": "ym2612"
    },
    {
      "channel": 1,
      "note": 56,
      "start": 61.5792,
      "duration": 0.1248,
      "velocity": 92,
      "chip": "ym2612"
    },
    {
      "channel": 2,
      "note": 41,
      "start": 61.5839,
      "duration": 0.0136,
      "velocity": 123,
      "chip": "ym2612"
    },
    {
      "channel": 3,
      "note": 51,
      "start": 61.5889,
      "duration": 0.1155,
      "velocity": 127,
      "chip": "ym2612"
    },
    {
      "channel": 0,
      "note": 87,
      "start": 61.7036,
      "duration": 0.1152,
      "velocity": 92,
      "chip": "ym2612"
    },
    {
      "channel": 3,
      "note": 51,
      "start": 61.7049,
      "duration": 0.1207,
      "velocity": 127,
      "chip": "ym2612"
    },
    {
      "channel": 0,
      "note": 91,
      "start": 61.8191,
      "duration": 0.1153,
      "velocity": 92,
      "chip": "ym2612"
    },
    {
      "channel": 1,
      "note": 58,
      "start": 61.8199,
      "duration": 0.1153,
      "velocity": 92,
      "chip": "ym2612"
    },
    {
      "channel": 2,
      "note": 29,
      "start": 61.8248,
      "duration": 0.0136,
      "velocity": 125,
      "chip": "ym2612"
    },
    {
      "channel": 3,
      "note": 63,
      "start": 61.8293,
      "duration": 0.2332,
      "velocity": 127,
      "chip": "ym2612"
    },
    {
      "channel": 0,
      "note": 92,
      "start": 61.9348,
      "duration": 0.1248,
      "velocity": 92,
      "chip": "ym2612"
    },
    {
      "channel": 0,
      "note": 94,
      "start": 62.0599,
      "duration": 0.1152,
      "velocity": 92,
      "chip": "ym2612"
    },
    {
      "channel": 1,
      "note": 59,
      "start": 62.0607,
      "duration": 0.413,
      "velocity": 92,
      "chip": "ym2612"
    },
    {
      "channel": 2,
      "note": 29,
      "start": 62.0615,
      "duration": 0.0368,
      "velocity": 125,
      "chip": "ym2612"
    },
    {
      "channel": 3,
      "note": 51,
      "start": 62.0665,
      "duration": 0.1096,
      "velocity": 127,
      "chip": "ym2612"
    },
    {
      "channel": 0,
      "note": 92,
      "start": 62.1755,
      "duration": 0.1249,
      "velocity": 92,
      "chip": "ym2612"
    },
    {
      "channel": 3,
      "note": 51,
      "start": 62.1764,
      "duration": 0.1254,
      "velocity": 127,
      "chip": "ym2612"
    },
    {
      "channel": 0,
      "note": 91,
      "start": 62.3008,
      "duration": 0.1151,
      "velocity": 92,
      "chip": "ym2612"
    },
    {
      "channel": 3,
      "note": 63,
      "start": 62.3056,
      "duration": 0.2329,
      "velocity": 127,
      "chip": "ym2612"
    },
    {
      "channel": 0,
      "note": 87,
      "start": 62.4163,
      "duration": 0.1153,
      "velocity": 92,
      "chip": "ym2612"
    },
    {
      "channel": 0,
      "note": 97,
      "start": 62.5319,
      "duration": 0.1249,
      "velocity": 92,
      "chip": "ym2612"
    },
    {
      "channel": 1,
      "note": 56,
      "start": 62.5327,
      "duration": 0.4227,
      "velocity": 92,
      "chip": "ym2612"
    },
    {
      "channel": 2,
      "note": 41,
      "start": 62.5374,
      "duration": 0.0327,
      "velocity": 123,
      "chip": "ym2612"
    },
    {
      "channel": 3,
      "note": 51,
      "start": 62.5425,
      "duration": 0.1152,
      "velocity": 127,
      "chip": "ym2612"
    },
    {
      "channel": 0,
      "note": 87,
      "start": 62.6571,
      "duration": 0.1152,
      "velocity": 92,
      "chip": "ym2612"
    },
    {
      "channel": 3,
      "note": 51,
      "start": 62.658,
      "duration": 0.1156,
      "velocity": 127,
      "chip": "ym2612"
    },
    {
      "channel": 0,
      "note": 96,
      "start": 62.7727,
      "duration": 0.1152,
      "velocity": 92,
      "chip": "ym2612"
    },
    {
      "channel": 3,
      "note": 63,
      "start": 62.7774,
      "duration": 0.2428,
      "velocity": 127,
      "chip": "ym2612"
    },
    {
      "channel": 0,
      "note": 87,
      "start": 62.8884,
      "duration": 0.1247,
      "velocity": 92,
      "chip": "ym2612"
    },
    {
      "channel": 0,
      "note": 95,
      "start": 63.0135,
      "duration": 0.1151,
      "velocity": 92,
      "chip": "ym2612"
    },
    {
      "channel": 1,
      "note": 49,
      "start": 63.0144,
      "duration": 0.4128,
      "velocity": 92,
      "chip": "ym2612"
    },
    {
      "channel": 2,
      "note": 29,
      "start": 63.0192,
      "duration": 0.0324,
      "velocity": 125,
      "chip": "ym2612"
    },
    {
      "channel": 3,
      "note": 51,
      "start": 63.0243,
      "duration": 0.1052,
      "velocity": 127,
      "chip": "ym2612"
    },
    {
      "channel": 4,
      "note": 61,
      "start": 63.025,
      "duration": 1.9068,
      "velocity": 103,
      "chip": "ym2612"
    },
    {
      "channel": 5,
      "note": 77,
      "start": 63.0258,
      "duration": 1.9068,
      "velocity": 103,
      "chip": "ym2612"
    },
    {
      "channel": 0,
      "note": 97,
      "start": 63.1289,
      "duration": 0.1248,
      "velocity": 92,
      "chip": "ym2612"
    },
    {
      "channel": 3,
      "note": 51,
      "start": 63.1299,
      "duration": 0.1254,
      "velocity": 127,
      "chip": "ym2612"
    },
    {
      "channel": 0,
      "note": 99,
      "start": 63.2541,
      "duration": 0.1152,
      "velocity": 92,
      "chip": "ym2612"
    },
    {
      "channel": 3,
      "note": 63,
      "start": 63.259,
      "duration": 0.2328,
      "velocity": 127,
      "chip": "ym2612"
    },
    {
      "channel": 0,
      "note": 95,
      "start": 63.3697,
      "duration": 0.1152,
      "velocity": 92,
      "chip": "ym2612"
    },
    {
      "channel": 0,
      "note": 94,
      "start": 63.4852,
      "duration": 0.1249,
      "velocity": 92,
      "chip": "ym2612"
    },
    {
      "channel": 1,
      "note": 49,
      "start": 63.486,
      "duration": 0.1248,
      "velocity": 92,
      "chip": "ym2612"
    },
    {
      "channel": 2,
      "note": 41,
      "start": 63.4909,
      "duration": 0.0134,
      "velocity": 123,
      "chip": "ym2612"
    },
    {
      "channel": 3,
      "note": 51,
      "start": 63.4958,
      "duration": 0.1155,
      "velocity": 127,
      "chip": "ym2612"
    },
    {
      "channel": 0,
      "note": 92,
      "start": 63.6104,
      "duration": 0.1153,
      "velocity": 92,
      "chip": "ym2612"
    },
    {
      "channel": 3,
      "note": 51,
      "start": 63.6117,
      "duration": 0.1207,
      "velocity": 127,
      "chip": "ym2612"
    },
    {
      "channel": 0,
      "note": 102,
      "start": 63.726,
      "duration": 0.1249,
      "velocity": 92,
      "chip": "ym2612"
    },
    {
      "channel": 1,
      "note": 53,
      "start": 63.7268,
      "duration": 0.1248,
      "velocity": 92,
      "chip": "ym2612"
    },
    {
      "channel": 2,
      "note": 29,
      "start": 63.7315,
      "duration": 0.0135,
      "velocity": 125,
      "chip": "ym2612"
    },
    {
      "channel": 3,
      "note": 63,
      "start": 63.7361,
      "duration": 0.2334,
      "velocity": 127,
      "chip": "ym2612"
    },
    {
      "channel": 0,
      "note": 99,
      "start": 63.8512,
      "duration": 0.1152,
      "velocity": 92,
      "chip": "ym2612"
    },
    {
      "channel": 0,
      "note": 101,
      "start": 63.9668,
      "duration": 0.1152,
      "velocity": 92,
      "chip": "ym2612"
    },
    {
      "channel": 1,
      "note": 56,
      "start": 63.9677,
      "duration": 0.4129,
      "velocity": 92,
      "chip": "ym2612"
    },
    {
      "channel": 2,
      "note": 29,
      "start": 63.9685,
      "duration": 0.0367,
      "velocity": 125,
      "chip": "ym2612"
    },
    {
      "channel": 3,
      "note": 51,
      "start": 63.9735,
      "duration": 0.1094,
      "velocity": 127,
      "chip": "ym2612"
    },
    {
      "channel": 0,
      "note": 97,
      "start": 64.0824,
      "duration": 0.1248,
      "velocity": 92,
      "chip": "ym2612"
    },
    {
      "channel": 3,
      "note": 51,
      "start": 64.0833,
      "duration": 0.1253,
      "velocity": 127,
      "chip": "ym2612"
    },
    {
      "channel": 0,
      "note": 92,
      "start": 64.2076,
      "duration": 0.1153,
      "velocity": 92,
      "chip": "ym2612"
    },
    {
      "channel": 3,
      "note": 63,
      "start": 64.2123,
      "duration": 0.2428,
      "velocity": 127,
      "chip": "ym2612"
    },
    {
      "channel": 0,
      "note": 90,
      "start": 64.3232,
      "duration": 0.1247,
      "velocity": 92,
      "chip": "ym2612"
    },
    {
      "channel": 0,
      "note": 89,
      "start": 64.4483,
      "duration": 0.1153,
      "velocity": 92,
      "chip": "ym2612"
    },
    {
      "channel": 1,
      "note": 49,
      "start": 64.4492,
      "duration": 0.1153,
      "velocity": 92,
      "chip": "ym2612"
    },
    {
      "channel": 2,
      "note": 41,
      "start": 64.4539,
      "duration": 0.0327,
      "velocity": 123,
      "chip": "ym2612"
    },
    {
      "channel": 3,
      "note": 51,
      "start": 64.459,
      "duration": 0.1068,
      "velocity": 127,
      "chip": "ym2612"
    },
    {
      "channel": 0,
      "note": 93,
      "start": 64.564,
      "duration": 0.1152,
      "velocity": 92,
      "chip": "ym2612"
    },
    {
      "channel": 1,
      "note": 61,
      "start": 64.5649,
      "duration": 0.1151,
      "velocity": 92,
      "chip": "ym2612"
    },
    {
      "channel": 3,
      "note": 63,
      "start": 64.5695,
      "duration": 0.2359,
      "velocity": 127,
      "chip": "ym2612"
    },
    {
      "channel": 0,
      "note": 85,
      "start": 64.6796,
      "duration": 0.2209,
      "velocity": 92,
      "chip": "ym2612"
    },
    {
      "channel": 3,
      "note": 51,
      "start": 64.8093,
      "duration": 0.1181,
      "velocity": 127,
      "chip": "ym2612"
    },
    {
      "channel": 0,
      "note": 92,
      "start": 64.9203,
      "duration": 0.1151,
      "velocity": 92,
      "chip": "ym2612"
    },
    {
      "channel": 1,
      "note": 54,
      "start": 64.9212,
      "duration": 0.4127,
      "velocity": 92,
      "chip": "ym2612"
    },
    {
      "channel": 2,
      "note": 29,
      "start": 64.9263,
      "duration": 0.0322,
      "velocity": 125,
      "chip": "ym2612"
    },
    {
      "channel": 3,
      "note": 51,
      "start": 64.9314,
      "duration": 0.105,
      "velocity": 127,
      "chip": "ym2612"
    },
    {
      "channel": 4,
      "note": 61,
      "start": 64.9322,
      "duration": 1.9064,
      "velocity": 103,
      "chip": "ym2612"
    },
    {
      "channel": 5,
      "note": 77,
      "start": 64.9329,
      "duration": 1.9066,
      "velocity": 103,
      "chip": "ym2612"
    },
    {
      "channel": 0,
      "note": 89,
      "start": 65.0359,
      "duration": 0.1248,
      "velocity": 92,
      "chip": "ym2612"
    },
    {
      "channel": 3,
      "note": 51,
      "start": 65.0368,
      "duration": 0.1252,
      "velocity": 127,
      "chip": "ym2612"
    },
    {
      "channel": 0,
      "note": 90,
      "start": 65.161,
      "duration": 0.1154,
      "velocity": 92,
      "chip": "ym2612"
    },
    {
      "channel": 3,
      "note": 63,
      "start": 65.1657,
      "duration": 0.2429,
      "velocity": 127,
      "chip": "ym2612"
    },
    {
      "channel": 0,
      "note": 92,
      "start": 65.2766,
      "duration": 0.1249,
      "velocity": 92,
      "chip": "ym2612"
    },
    {
      "channel": 0,
      "note": 94,
      "start": 65.402,
      "duration": 0.0765,
      "velocity": 92,
      "chip": "ym2612"
    },
    {
      "channel": 1,
      "note": 54,
      "start": 65.4027,
      "duration": 0.1143,
      "velocity": 92,
      "chip": "ym2612"
    },
    {
      "channel": 2,
      "note": 41,
      "start": 65.4076,
      "duration": 0.0132,
      "velocity": 123,
      "chip": "ym2612"
    },
    {
      "channel": 3,
      "note": 51,
      "start": 65.4125,
      "duration": 0.105,
      "velocity": 127,
      "chip": "ym2612"
    },
    {
      "channel": 0,
      "note": 95,
      "start": 65.4788,
      "duration": 0.0767,
      "velocity": 92,
      "chip": "ym2612"
    },
    {
      "channel": 3,
      "note": 51,
      "start": 65.5178,
      "duration": 0.1216,
      "velocity": 127,
      "chip": "ym2612"
    },
    {
      "channel": 0,
      "note": 96,
      "start": 65.5558,
      "duration": 0.0767,
      "velocity": 92,
      "chip": "ym2612"
    },
    {
      "channel": 0,
      "note": 97,
      "start": 65.6329,
      "duration": 0.0863,
      "velocity": 92,
      "chip": "ym2612"
    },
    {
      "channel": 1,
      "note": 61,
      "start": 65.6337,
      "duration": 0.1241,
      "velocity": 92,
      "chip": "ym2612"
    },
    {
      "channel": 2,
      "note": 29,
      "start": 65.6386,
      "duration": 0.0133,
      "velocity": 125,
      "chip": "ym2612"
    },
    {
      "channel": 3,
      "note": 63,
      "start": 65.6431,
      "duration": 0.2331,
      "velocity": 127,
      "chip": "ym2612"
    },
    {
      "channel": 0,
      "note": 98,
      "start": 65.7195,
      "duration": 0.0767,
      "velocity": 92,
      "chip": "ym2612"
    },
    {
      "channel": 0,
      "note": 99,
      "start": 65.7966,
      "duration": 0.0767,
      "velocity": 92,
      "chip": "ym2612"
    },
    {
      "channel": 0,
      "note": 100,
      "start": 65.8737,
      "duration": 0.0766,
      "velocity": 92,
      "chip": "ym2612"
    },
    {
      "channel": 1,
      "note": 66,
      "start": 65.8744,
      "duration": 0.4227,
      "velocity": 92,
      "chip": "ym2612"
    },
    {
      "channel": 2,
      "note": 29,
      "start": 65.8752,
      "duration": 0.0368,
      "velocity": 125,
      "chip": "ym2612"
    },
    {
      "channel": 3,
      "note": 51,
      "start": 65.8801,
      "duration": 0.1186,
      "velocity": 127,
      "chip": "ym2612"
    },
    {
      "channel": 0,
      "note": 101,
      "start": 65.9507,
      "duration": 0.0863,
      "velocity": 92,
      "chip": "ym2612"
    },
    {
      "channel": 3,
      "note": 51,
      "start": 65.9991,
      "duration": 0.1163,
      "velocity": 127,
      "chip": "ym2612"
    },
    {
      "channel": 0,
      "note": 102,
      "start": 66.0373,
      "duration": 0.0767,
      "velocity": 92,
      "chip": "ym2612"
    },
    {
      "channel": 0,
      "note": 103,
      "start": 66.1144,
      "duration": 0.0768,
      "velocity": 92,
      "chip": "ym2612"
    },
    {
      "channel": 3,
      "note": 63,
      "start": 66.1191,
      "duration": 0.2427,
      "velocity": 127,
      "chip": "ym2612"
    },
    {
      "channel": 0,
      "note": 104,
      "start": 66.1915,
      "duration": 0.0766,
      "velocity": 92,
      "chip": "ym2612"
    },
    {
      "channel": 0,
      "note": 105,
      "start": 66.2685,
      "duration": 0.0865,
      "velocity": 92,
      "chip": "ym2612"
    },
    {
      "channel": 0,
      "note": 106,
      "start": 66.3553,
      "duration": 0.0765,
      "velocity": 92,
      "chip": "ym2612"
    },
    {
      "channel": 1,
      "note": 61,
      "start": 66.3561,
      "duration": 0.4129,
      "velocity": 92,
      "chip": "ym2612"
    },
    {
      "channel": 2,
      "note": 41,
      "start": 66.3609,
      "duration": 0.0326,
      "velocity": 123,
      "chip": "ym2612"
    },
    {
      "channel": 3,
      "note": 51,
      "start": 66.3658,
      "duration": 0.1048,
      "velocity": 127,
      "chip": "ym2612"
    },
    {
      "channel": 0,
      "note": 105,
      "start": 66.4322,
      "duration": 0.0767,
      "velocity": 92,
      "chip": "ym2612"
    },
    {
      "channel": 3,
      "note": 51,
      "start": 66.471,
      "duration": 0.1164,
      "velocity": 127,
      "chip": "ym2612"
    },
    {
      "channel": 0,
      "note": 104,
      "start": 66.5093,
      "duration": 0.0767,
      "velocity": 92,
      "chip": "ym2612"
    },
    {
      "channel": 0,
      "note": 101,
      "start": 66.5864,
      "duration": 0.0863,
      "velocity": 92,
      "chip": "ym2612"
    },
    {
      "channel": 3,
      "note": 63,
      "start": 66.5913,
      "duration": 0.2428,
      "velocity": 127,
      "chip": "ym2612"
    },
    {
      "channel": 0,
      "note": 100,
      "start": 66.6729,
      "duration": 0.0767,
      "velocity": 92,
      "chip": "ym2612"
    },
    {
      "channel": 0,
      "note": 99,
      "start": 66.75,
      "duration": 0.0769,
      "velocity": 92,
      "chip": "ym2612"
    },
    {
      "channel": 0,
      "note": 97,
      "start": 66.8273,
      "duration": 0.1246,
      "velocity": 92,
      "chip": "ym2612"
    },
    {
      "channel": 1,
      "note": 59,
      "start": 66.828,
      "duration": 1.6751,
      "velocity": 92,
      "chip": "ym2612"
    },
    {
      "channel": 2,
      "note": 29,
      "start": 66.8331,
      "duration": 0.013,
      "velocity": 125,
      "chip": "ym2612"
    },
    {
      "channel": 3,
      "note": 51,
      "start": 66.838,
      "duration": 0.1148,
      "velocity": 127,
      "chip": "ym2612"
    },
    {
      "channel": 4,
      "note": 66,
      "start": 66.839,
      "duration": 0.948,
      "velocity": 103,
      "chip": "ym2612"
    },
    {
      "channel": 5,
      "note": 82,
      "start": 66.8399,
      "duration": 0.9478,
      "velocity": 103,
      "chip": "ym2612"
    },
    {
      "channel": 0,
      "note": 95,
      "start": 66.9522,
      "duration": 0.1153,
      "velocity": 92,
      "chip": "ym2612"
    },
    {
      "channel": 3,
      "note": 51,
      "start": 66.9532,
      "duration": 0.1207,
      "velocity": 127,
      "chip": "ym2612"
    },
    {
      "channel": 0,
      "note": 109,
      "start": 67.0679,
      "duration": 0.1152,
      "velocity": 92,
      "chip": "ym2612"
    },
    {
      "channel": 2,
      "note": 46,
      "start": 67.073,
      "duration": 0.0139,
      "velocity": 123,
      "chip": "ym2612"
    },
    {
      "channel": 3,
      "note": 63,
      "start": 67.0775,
      "duration": 0.237,
      "velocity": 127,
      "chip": "ym2612"
    },
    {
      "channel": 0,
      "note": 95,
      "start": 67.1835,
      "duration": 0.1248,
      "velocity": 92,
      "chip": "ym2612"
    },
    {
      "channel": 0,
      "note": 107,
      "start": 67.3087,
      "duration": 0.1152,
      "velocity": 92,
      "chip": "ym2612"
    },
    {
      "channel": 2,
      "note": 29,
      "start": 67.3135,
      "duration": 0.0142,
      "velocity": 125,
      "chip": "ym2612"
    },
    {
      "channel": 3,
      "note": 51,
      "start": 67.3184,
      "duration": 0.1111,
      "velocity": 127,
      "chip": "ym2612"
    },
    {
      "channel": 0,
      "note": 95,
      "start": 67.4242,
      "duration": 0.1249,
      "velocity": 92,
      "chip": "ym2612"
    },
    {
      "channel": 2,
      "note": 43,
      "start": 67.429,
      "duration": 0.0334,
      "velocity": 123,
      "chip": "ym2612"
    },
    {
      "channel": 3,
      "note": 51,
      "start": 67.4298,
      "duration": 0.1206,
      "velocity": 127,
      "chip": "ym2612"
    },
    {
      "channel": 0,
      "note": 106,
      "start": 67.5494,
      "duration": 0.1152,
      "velocity": 92,
      "chip": "ym2612"
    },
    {
      "channel": 3,
      "note": 63,
      "start": 67.5542,
      "duration": 0.2283,
      "velocity": 127,
      "chip": "ym2612"
    },
    {
      "channel": 0,
      "note": 95,
      "start": 67.665,
      "duration": 0.1153,
      "velocity": 92,
      "chip": "ym2612"
    },
    {
      "channel": 0,
      "note": 104,
      "start": 67.7806,
      "duration": 0.1249,
      "velocity": 92,
      "chip": "ym2612"
    },
    {
      "channel": 2,
      "note": 39,
      "start": 67.7815,
      "duration": 0.018,
      "velocity": 123,
      "chip": "ym2612"
    },
    {
      "channel": 3,
      "note": 51,
      "start": 67.7864,
      "duration": 0.1201,
      "velocity": 127,
      "chip": "ym2612"
    },
    {
      "channel": 4,
      "note": 70,
      "start": 67.7873,
      "duration": 0.9081,
      "velocity": 103,
      "chip": "ym2612"
    },
    {
      "channel": 5,
      "note": 87,
      "start": 67.7881,
      "duration": 0.9597,
      "velocity": 103,
      "chip": "ym2612"
    },
    {
      "channel": 0,
      "note": 95,
      "start": 67.9059,
      "duration": 0.1149,
      "velocity": 92,
      "chip": "ym2612"
    },
    {
      "channel": 3,
      "note": 51,
      "start": 67.9068,
      "duration": 0.1163,
      "velocity": 127,
      "chip": "ym2612"
    },
    {
      "channel": 0,
      "note": 102,
      "start": 68.0212,
      "duration": 0.1248,
      "velocity": 92,
      "chip": "ym2612"
    },
    {
      "channel": 2,
      "note": 41,
      "start": 68.0222,
      "duration": 0.0181,
      "velocity": 123,
      "chip": "ym2612"
    },
    {
      "channel": 3,
      "note": 63,
      "start": 68.0268,
      "duration": 0.237,
      "velocity": 127,
      "chip": "ym2612"
    },
    {
      "channel": 2,
      "note": 41,
      "start": 68.0985,
      "duration": 0.0188,
      "velocity": 123,
      "chip": "ym2612"
    },
    {
      "channel": 0,
      "note": 95,
      "start": 68.1464,
      "duration": 0.1152,
      "velocity": 92,
      "chip": "ym2612"
    },
    {
      "channel": 2,
      "note": 41,
      "start": 68.1851,
      "duration": 0.0188,
      "velocity": 123,
      "chip": "ym2612"
    },
    {
      "channel": 0,
      "note": 101,
      "start": 68.262,
      "duration": 0.1152,
      "velocity": 92,
      "chip": "ym2612"
    },
    {
      "channel": 2,
      "note": 39,
      "start": 68.2628,
      "duration": 0.0182,
      "velocity": 123,
      "chip": "ym2612"
    },
    {
      "channel": 3,
      "note": 51,
      "start": 68.2678,
      "duration": 0.1111,
      "velocity": 127,
      "chip": "ym2612"
    },
    {
      "channel": 0,
      "note": 99,
      "start": 68.3775,
      "duration": 0.1249,
      "velocity": 92,
      "chip": "ym2612"
    },
    {
      "channel": 2,
      "note": 37,
      "start": 68.3784,
      "duration": 0.0375,
      "velocity": 123,
      "chip": "ym2612"
    },
    {
      "channel": 3,
      "note": 51,
      "start": 68.3793,
      "duration": 0.1247,
      "velocity": 127,
      "chip": "ym2612"
    },
    {
      "channel": 0,
      "note": 97,
      "start": 68.5028,
      "duration": 0.2114,
      "velocity": 92,
      "chip": "ym2612"
    },
    {
      "channel": 3,
      "note": 63,
      "start": 68.5077,
      "duration": 0.2336,
      "velocity": 127,
      "chip": "ym2612"
    },
    {
      "channel": 0,
      "note": 105,
      "start": 68.734,
      "duration": 0.2788,
      "velocity": 92,
      "chip": "ym2612"
    },
    {
      "channel": 1,
      "note": 58,
      "start": 68.735,
      "duration": 0.3167,
      "velocity": 92,
      "chip": "ym2612"
    },
    {
      "channel": 2,
      "note": 41,
      "start": 68.74,
      "duration": 0.0418,
      "velocity": 123,
      "chip": "ym2612"
    },
    {
      "channel": 3,
      "note": 63,
      "start": 68.745,
      "duration": 0.3572,
      "velocity": 127,
      "chip": "ym2612"
    },
    {
      "channel": 4,
      "note": 65,
      "start": 68.7466,
      "duration": 0.3601,
      "velocity": 103,
      "chip": "ym2612"
    },
    {
      "channel": 5,
      "note": 81,
      "start": 68.7481,
      "duration": 0.3593,
      "velocity": 103,
      "chip": "ym2612"
    },
    {
      "channel": 0,
      "note": 105,
      "start": 69.0998,
      "duration": 0.1152,
      "velocity": 92,
      "chip": "ym2612"
    },
    {
      "channel": 1,
      "note": 58,
      "start": 69.1006,
      "duration": 0.1148,
      "velocity": 92,
      "chip": "ym2612"
    },
    {
      "channel": 2,
      "note": 41,
      "start": 69.1014,
      "duration": 0.0175,
      "velocity": 123,
      "chip": "ym2612"
    },
    {
      "channel": 3,
      "note": 51,
      "start": 69.1063,
      "duration": 0.1099,
      "velocity": 127,
      "chip": "ym2612"
    },
    {
      "channel": 4,
      "note": 65,
      "start": 69.1071,
      "duration": 0.1099,
      "velocity": 103,
      "chip": "ym2612"
    },
    {
      "channel": 5,
      "note": 81,
      "start": 69.1079,
      "duration": 0.1095,
      "velocity": 103,
      "chip": "ym2612"
    },
    {
      "channel": 3,
      "note": 51,
      "start": 69.2166,
      "duration": 0.119,
      "velocity": 127,
      "chip": "ym2612"
    },
    {
      "channel": 2,
      "note": 29,
      "start": 69.3351,
      "duration": 0.0149,
      "velocity": 125,
      "chip": "ym2612"
    },
    {
      "channel": 3,
      "note": 51,
      "start": 69.3359,
      "duration": 0.1254,
      "velocity": 127,
      "chip": "ym2612"
    },
    {
      "channel": 2,
      "note": 46,
      "start": 69.4605,
      "duration": 0.0148,
      "velocity": 123,
      "chip": "ym2612"
    },
    {
      "channel": 3,
      "note": 63,
      "start": 69.465,
      "duration": 0.2369,
      "velocity": 127,
      "chip": "ym2612"
    },
    {
      "channel": 2,
      "note": 29,
      "start": 69.7011,
      "duration": 0.0149,
      "velocity": 125,
      "chip": "ym2612"
    },
    {
      "channel": 3,
      "note": 51,
      "start": 69.706,
      "duration": 0.1111,
      "velocity": 127,
      "chip": "ym2612"
    },
    {
      "channel": 2,
      "note": 43,
      "start": 69.8166,
      "duration": 0.0342,
      "velocity": 123,
      "chip": "ym2612"
    },
    {
      "channel": 3,
      "note": 51,
      "start": 69.8174,
      "duration": 0.111,
      "velocity": 127,
      "chip": "ym2612"
    },
    {
      "channel": 3,
      "note": 63,
      "start": 69.9321,
      "duration": 0.2392,
      "velocity": 127,
      "chip": "ym2612"
    },
    {
      "channel": 0,
      "note": 105,
      "start": 70.1689,
      "duration": 0.2788,
      "velocity": 92,
      "chip": "ym2612"
    },
    {
      "channel": 1,
      "note": 58,
      "start": 70.1696,
      "duration": 0.317,
      "velocity": 92,
      "chip": "ym2612"
    },
    {
      "channel": 2,
      "note": 41,
      "start": 70.1705,
      "duration": 0.0367,
      "velocity": 123,
      "chip": "ym2612"
    },
    {
      "channel": 3,
      "note": 63,
      "start": 70.1751,
      "duration": 0.3524,
      "velocity": 127,
      "chip": "ym2612"
    },
    {
      "channel": 4,
      "note": 65,
      "start": 70.1759,
      "duration": 0.3559,
      "velocity": 103,
      "chip": "ym2612"
    },
    {
      "channel": 5,
      "note": 81,
      "start": 70.1768,
      "duration": 0.3559,
      "velocity": 103,
      "chip": "ym2612"
    },
    {
      "channel": 0,
      "note": 105,
      "start": 70.5252,
      "duration": 0.1248,
      "velocity": 92,
      "chip": "ym2612"
    },
    {
      "channel": 1,
      "note": 58,
      "start": 70.5259,
      "duration": 0.1245,
      "velocity": 92,
      "chip": "ym2612"
    },
    {
      "channel": 2,
      "note": 41,
      "start": 70.5267,
      "duration": 0.0175,
      "velocity": 123,
      "chip": "ym2612"
    },
    {
      "channel": 3,
      "note": 51,
      "start": 70.5315,
      "duration": 0.1198,
      "velocity": 127,
      "chip": "ym2612"
    },
    {
      "channel": 4,
      "note": 65,
      "start": 70.5322,
      "duration": 0.1198,
      "velocity": 103,
      "chip": "ym2612"
    },
    {
      "channel": 5,
      "note": 81,
      "start": 70.5331,
      "duration": 0.1193,
      "velocity": 103,
      "chip": "ym2612"
    },
    {
      "channel": 3,
      "note": 51,
      "start": 70.6516,
      "duration": 0.1143,
      "velocity": 127,
      "chip": "ym2612"
    },
    {
      "channel": 3,
      "note": 51,
      "start": 70.7663,
      "duration": 0.1163,
      "velocity": 127,
      "chip": "ym2612"
    },
    {
      "channel": 2,
      "note": 41,
      "start": 70.8817,
      "duration": 0.0188,
      "velocity": 123,
      "chip": "ym2612"
    },
    {
      "channel": 3,
      "note": 63,
      "start": 70.8862,
      "duration": 0.2375,
      "velocity": 127,
      "chip": "ym2612"
    },
    {
      "channel": 2,
      "note": 41,
      "start": 71.1226,
      "duration": 0.0187,
      "velocity": 123,
      "chip": "ym2612"
    },
    {
      "channel": 3,
      "note": 51,
      "start": 71.1276,
      "duration": 0.1197,
      "velocity": 127,
      "chip": "ym2612"
    },
    {
      "channel": 3,
      "note": 51,
      "start": 71.2478,
      "duration": 0.1165,
      "velocity": 127,
      "chip": "ym2612"
    },
    {
      "channel": 2,
      "note": 46,
      "start": 71.3633,
      "duration": 0.0187,
      "velocity": 123,
      "chip": "ym2612"
    },
    {
      "channel": 3,
      "note": 63,
      "start": 71.3679,
      "duration": 0.2372,
      "velocity": 127,
      "chip": "ym2612"
    },
    {
      "channel": 2,
      "note": 43,
      "start": 71.4404,
      "duration": 0.0188,
      "velocity": 123,
      "chip": "ym2612"
    },
    {
      "channel": 2,
      "note": 39,
      "start": 71.5173,
      "duration": 0.0284,
      "velocity": 123,
      "chip": "ym2612"
    },
    {
      "channel": 2,
      "note": 41,
      "start": 71.604,
      "duration": 0.0188,
      "velocity": 123,
      "chip": "ym2612"
    },
    {
      "channel": 3,
      "note": 51,
      "start": 71.6091,
      "duration": 0.1102,
      "velocity": 127,
      "chip": "ym2612"
    },
    {
      "channel": 3,
      "note": 51,
      "start": 71.7196,
      "duration": 0.1261,
      "velocity": 127,
      "chip": "ym2612"
    },
    {
      "channel": 2,
      "note": 46,
      "start": 71.8449,
      "duration": 0.0187,
      "velocity": 123,
      "chip": "ym2612"
    },
    {
      "channel": 3,
      "note": 63,
      "start": 71.8494,
      "duration": 0.2275,
      "velocity": 127,
      "chip": "ym2612"
    },
    {
      "channel": 2,
      "note": 43,
      "start": 71.9221,
      "duration": 0.0186,
      "velocity": 123,
      "chip": "ym2612"
    },
    {
      "channel": 2,
      "note": 39,
      "start": 71.9989,
      "duration": 0.0188,
      "velocity": 123,
      "chip": "ym2612"
    },
    {
      "channel": 2,
      "note": 37,
      "start": 72.0759,
      "duration": 0.0189,
      "velocity": 123,
      "chip": "ym2612"
    },
    {
      "channel": 3,
      "note": 51,
      "start": 72.0808,
      "duration": 0.1207,
      "velocity": 127,
      "chip": "ym2612"
    },
    {
      "channel": 2,
      "note": 36,
      "start": 72.2011,
      "duration": 0.038,
      "velocity": 123,
      "chip": "ym2612"
    },
    {
      "channel": 3,
      "note": 51,
      "start": 72.2019,
      "duration": 0.1151,
      "velocity": 127,
      "chip": "ym2612"
    },
    {
      "channel": 3,
      "note": 63,
      "start": 72.3208,
      "duration": 0.2489,
      "velocity": 127,
      "chip": "ym2612"
    },
    {
      "channel": 1,
      "note": 58,
      "start": 72.5623,
      "duration": 0.4279,
      "velocity": 92,
      "chip": "ym2612"
    },
    {
      "channel": 2,
      "note": 29,
      "start": 72.5676,
      "duration": 0.0472,
      "velocity": 125,
      "chip": "ym2612"
    },
    {
      "channel": 3,
      "note": 51,
      "start": 72.5737,
      "duration": 0.1183,
      "velocity": 127,
      "chip": "ym2612"
    },
    {
      "channel": 4,
      "note": 65,
      "start": 72.5787,
      "duration": 0.9494,
      "velocity": 103,
      "chip": "ym2612"
    },
    {
      "channel": 5,
      "note": 81,
      "start": 72.5836,
      "duration": 0.9445,
      "velocity": 103,
      "chip": "ym2612"
    },
    {
      "channel": 3,
      "note": 51,
      "start": 72.6923,
      "duration": 0.1253,
      "velocity": 127,
      "chip": "ym2612"
    },
    {
      "channel": 3,
      "note": 63,
      "start": 72.8213,
      "duration": 0.233,
      "velocity": 127,
      "chip": "ym2612"
    },
    {
      "channel": 1,
      "note": 58,
      "start": 73.0485,
      "duration": 0.1249,
      "velocity": 92,
      "chip": "ym2612"
    },
    {
      "channel": 2,
      "note": 41,
      "start": 73.0533,
      "duration": 0.0141,
      "velocity": 123,
      "chip": "ym2612"
    },
    {
      "channel": 3,
      "note": 51,
      "start": 73.0584,
      "duration": 0.1154,
      "velocity": 127,
      "chip": "ym2612"
    },
    {
      "channel": 3,
      "note": 51,
      "start": 73.1741,
      "duration": 0.1208,
      "velocity": 127,
      "chip": "ym2612"
    },
    {
      "channel": 1,
      "note": 53,
      "start": 73.2894,
      "duration": 0.1248,
      "velocity": 92,
      "chip": "ym2612"
    },
    {
      "channel": 2,
      "note": 29,
      "start": 73.2941,
      "duration": 0.0141,
      "velocity": 125,
      "chip": "ym2612"
    },
    {
      "channel": 3,
      "note": 63,
      "start": 73.2986,
      "duration": 0.2294,
      "velocity": 127,
      "chip": "ym2612"
    }
  ]
}