{
  "track_name": "04 - Mega Man- Gutsman Stage",
  "duration_sec": 31.222,
  "sample_rate": 44100,
  "note_count": 577,
  "unique_pitches": 29,
  "pitch_range": 51,
  "avg_note_duration": 0.1674,
  "reconstruction_stats": {
    "notes_reconstructed": 577,
    "keyon_events": 577,
    "keyoff_events": 574,
    "orphan_keyons": 3,
    "unique_pitches": 29,
    "pitch_range": 51,
    "avg_duration_sec": 0.1674
  },
  "metadata": {
    "source": "M\\Mega Man - The Wily Wars\\04 - Mega Man- Gutsman Stage.vgm"
  },
  "notes": [
    {
      "channel": 0,
      "note": 59,
      "start": 0.0,
      "duration": 0.0828,
      "velocity": 106,
      "chip": "ym2612"
    },
    {
      "channel": 1,
      "note": 45,
      "start": 0.0,
      "duration": 0.0,
      "velocity": 1,
      "chip": "ym2612"
    },
    {
      "channel": 1,
      "note": 57,
      "start": 0.003,
      "duration": 0.03,
      "velocity": 106,
      "chip": "ym2612"
    },
    {
      "channel": 2,
      "note": 71,
      "start": 0.0062,
      "duration": 0.0272,
      "velocity": 97,
      "chip": "ym2612"
    },
    {
      "channel": 3,
      "note": 54,
      "start": 0.0095,
      "duration": 0.0242,
      "velocity": 106,
      "chip": "ym2612"
    },
    {
      "channel": 4,
      "note": 59,
      "start": 0.013,
      "duration": 0.1211,
      "velocity": 100,
      "chip": "ym2612"
    },
    {
      "channel": 0,
      "note": 59,
      "start": 0.0834,
      "duration": 0.116,
      "velocity": 106,
      "chip": "ym2612"
    },
    {
      "channel": 1,
      "note": 57,
      "start": 0.0841,
      "duration": 0.116,
      "velocity": 106,
      "chip": "ym2612"
    },
    {
      "channel": 2,
      "note": 71,
      "start": 0.0849,
      "duration": 0.1161,
      "velocity": 97,
      "chip": "ym2612"
    },
    {
      "channel": 3,
      "note": 54,
      "start": 0.0856,
      "duration": 0.1161,
      "velocity": 106,
      "chip": "ym2612"
    },
    {
      "channel": 0,
      "note": 63,
      "start": 0.2001,
      "duration": 0.0994,
      "velocity": 106,
      "chip": "ym2612"
    },
    {
      "channel": 1,
      "note": 59,
      "start": 0.2008,
      "duration": 0.0994,
      "velocity": 106,
      "chip": "ym2612"
    },
    {
      "channel": 2,
      "note": 75,
      "start": 0.2016,
      "duration": 0.0994,
      "velocity": 97,
      "chip": "ym2612"
    },
    {
      "channel": 3,
      "note": 57,
      "start": 0.2023,
      "duration": 0.0994,
      "velocity": 106,
      "chip": "ym2612"
    },
    {
      "channel": 4,
      "note": 59,
      "start": 0.203,
      "duration": 0.2169,
      "velocity": 100,
      "chip": "ym2612"
    },
    {
      "channel": 0,
      "note": 59,
      "start": 0.3001,
      "duration": 0.1186,
      "velocity": 106,
      "chip": "ym2612"
    },
    {
      "channel": 1,
      "note": 57,
      "start": 0.3008,
      "duration": 0.1181,
      "velocity": 106,
      "chip": "ym2612"
    },
    {
      "channel": 2,
      "note": 71,
      "start": 0.3016,
      "duration": 0.1177,
      "velocity": 97,
      "chip": "ym2612"
    },
    {
      "channel": 3,
      "note": 54,
      "start": 0.3023,
      "duration": 0.1173,
      "velocity": 106,
      "chip": "ym2612"
    },
    {
      "channel": 5,
      "note": 75,
      "start": 0.4208,
      "duration": 0.3153,
      "velocity": 120,
      "chip": "ym2612"
    },
    {
      "channel": 0,
      "note": 59,
      "start": 0.5168,
      "duration": 0.1159,
      "velocity": 106,
      "chip": "ym2612"
    },
    {
      "channel": 1,
      "note": 57,
      "start": 0.5176,
      "duration": 0.1159,
      "velocity": 106,
      "chip": "ym2612"
    },
    {
      "channel": 2,
      "note": 71,
      "start": 0.5184,
      "duration": 0.116,
      "velocity": 97,
      "chip": "ym2612"
    },
    {
      "channel": 3,
      "note": 54,
      "start": 0.5191,
      "duration": 0.116,
      "velocity": 106,
      "chip": "ym2612"
    },
    {
      "channel": 0,
      "note": 63,
      "start": 0.6334,
      "duration": 0.0994,
      "velocity": 106,
      "chip": "ym2612"
    },
    {
      "channel": 1,
      "note": 59,
      "start": 0.6341,
      "duration": 0.0994,
      "velocity": 106,
      "chip": "ym2612"
    },
    {
      "channel": 2,
      "note": 75,
      "start": 0.6349,
      "duration": 0.0994,
      "velocity": 97,
      "chip": "ym2612"
    },
    {
      "channel": 3,
      "note": 57,
      "start": 0.6356,
      "duration": 0.0994,
      "velocity": 106,
      "chip": "ym2612"
    },
    {
      "channel": 4,
      "note": 59,
      "start": 0.6363,
      "duration": 0.1478,
      "velocity": 100,
      "chip": "ym2612"
    },
    {
      "channel": 0,
      "note": 59,
      "start": 0.7334,
      "duration": 0.116,
      "velocity": 106,
      "chip": "ym2612"
    },
    {
      "channel": 1,
      "note": 57,
      "start": 0.7341,
      "duration": 0.1156,
      "velocity": 106,
      "chip": "ym2612"
    },
    {
      "channel": 2,
      "note": 71,
      "start": 0.7349,
      "duration": 0.1151,
      "velocity": 97,
      "chip": "ym2612"
    },
    {
      "channel": 3,
      "note": 54,
      "start": 0.7356,
      "duration": 0.1148,
      "velocity": 106,
      "chip": "ym2612"
    },
    {
      "channel": 4,
      "note": 59,
      "start": 0.8515,
      "duration": 0.1494,
      "velocity": 100,
      "chip": "ym2612"
    },
    {
      "channel": 0,
      "note": 59,
      "start": 0.9501,
      "duration": 0.116,
      "velocity": 106,
      "chip": "ym2612"
    },
    {
      "channel": 1,
      "note": 57,
      "start": 0.9508,
      "duration": 0.116,
      "velocity": 106,
      "chip": "ym2612"
    },
    {
      "channel": 2,
      "note": 71,
      "start": 0.9516,
      "duration": 0.1161,
      "velocity": 97,
      "chip": "ym2612"
    },
    {
      "channel": 3,
      "note": 54,
      "start": 0.9523,
      "duration": 0.1161,
      "velocity": 106,
      "chip": "ym2612"
    },
    {
      "channel": 0,
      "note": 63,
      "start": 1.0667,
      "duration": 0.0994,
      "velocity": 106,
      "chip": "ym2612"
    },
    {
      "channel": 1,
      "note": 59,
      "start": 1.0675,
      "duration": 0.0994,
      "velocity": 106,
      "chip": "ym2612"
    },
    {
      "channel": 2,
      "note": 75,
      "start": 1.0683,
      "duration": 0.0994,
      "velocity": 97,
      "chip": "ym2612"
    },
    {
      "channel": 3,
      "note": 57,
      "start": 1.069,
      "duration": 0.0995,
      "velocity": 106,
      "chip": "ym2612"
    },
    {
      "channel": 4,
      "note": 59,
      "start": 1.0697,
      "duration": 0.2169,
      "velocity": 100,
      "chip": "ym2612"
    },
    {
      "channel": 0,
      "note": 59,
      "start": 1.1667,
      "duration": 0.1186,
      "velocity": 106,
      "chip": "ym2612"
    },
    {
      "channel": 1,
      "note": 57,
      "start": 1.1676,
      "duration": 0.1181,
      "velocity": 106,
      "chip": "ym2612"
    },
    {
      "channel": 2,
      "note": 71,
      "start": 1.1683,
      "duration": 0.1177,
      "velocity": 97,
      "chip": "ym2612"
    },
    {
      "channel": 3,
      "note": 54,
      "start": 1.169,
      "duration": 0.1172,
      "velocity": 106,
      "chip": "ym2612"
    },
    {
      "channel": 5,
      "note": 75,
      "start": 1.2875,
      "duration": 0.3154,
      "velocity": 120,
      "chip": "ym2612"
    },
    {
      "channel": 0,
      "note": 59,
      "start": 1.3835,
      "duration": 0.1159,
      "velocity": 106,
      "chip": "ym2612"
    },
    {
      "channel": 1,
      "note": 57,
      "start": 1.3844,
      "duration": 0.1158,
      "velocity": 106,
      "chip": "ym2612"
    },
    {
      "channel": 2,
      "note": 71,
      "start": 1.3851,
      "duration": 0.116,
      "velocity": 97,
      "chip": "ym2612"
    },
    {
      "channel": 3,
      "note": 54,
      "start": 1.3858,
      "duration": 0.1159,
      "velocity": 106,
      "chip": "ym2612"
    },
    {
      "channel": 0,
      "note": 63,
      "start": 1.5001,
      "duration": 0.0994,
      "velocity": 106,
      "chip": "ym2612"
    },
    {
      "channel": 1,
      "note": 59,
      "start": 1.5008,
      "duration": 0.0994,
      "velocity": 106,
      "chip": "ym2612"
    },
    {
      "channel": 2,
      "note": 75,
      "start": 1.5016,
      "duration": 0.0994,
      "velocity": 97,
      "chip": "ym2612"
    },
    {
      "channel": 3,
      "note": 57,
      "start": 1.5023,
      "duration": 0.0995,
      "velocity": 106,
      "chip": "ym2612"
    },
    {
      "channel": 4,
      "note": 59,
      "start": 1.503,
      "duration": 0.1478,
      "velocity": 100,
      "chip": "ym2612"
    },
    {
      "channel": 0,
      "note": 66,
      "start": 1.6001,
      "duration": 0.116,
      "velocity": 106,
      "chip": "ym2612"
    },
    {
      "channel": 1,
      "note": 63,
      "start": 1.6009,
      "duration": 0.116,
      "velocity": 106,
      "chip": "ym2612"
    },
    {
      "channel": 2,
      "note": 78,
      "start": 1.6016,
      "duration": 0.1161,
      "velocity": 97,
      "chip": "ym2612"
    },
    {
      "channel": 3,
      "note": 59,
      "start": 1.6024,
      "duration": 0.116,
      "velocity": 106,
      "chip": "ym2612"
    },
    {
      "channel": 0,
      "note": 59,
      "start": 1.7167,
      "duration": 0.0994,
      "velocity": 106,
      "chip": "ym2612"
    },
    {
      "channel": 1,
      "note": 57,
      "start": 1.7175,
      "duration": 0.0994,
      "velocity": 106,
      "chip": "ym2612"
    },
    {
      "channel": 2,
      "note": 71,
      "start": 1.7183,
      "duration": 0.0994,
      "velocity": 97,
      "chip": "ym2612"
    },
    {
      "channel": 3,
      "note": 54,
      "start": 1.719,
      "duration": 0.0995,
      "velocity": 106,
      "chip": "ym2612"
    },
    {
      "channel": 4,
      "note": 59,
      "start": 1.7198,
      "duration": 0.1476,
      "velocity": 100,
      "chip": "ym2612"
    },
    {
      "channel": 0,
      "note": 63,
      "start": 1.8167,
      "duration": 0.116,
      "velocity": 106,
      "chip": "ym2612"
    },
    {
      "channel": 1,
      "note": 59,
      "start": 1.8176,
      "duration": 0.116,
      "velocity": 106,
      "chip": "ym2612"
    },
    {
      "channel": 2,
      "note": 75,
      "start": 1.8183,
      "duration": 0.1161,
      "velocity": 97,
      "chip": "ym2612"
    },
    {
      "channel": 3,
      "note": 57,
      "start": 1.819,
      "duration": 0.116,
      "velocity": 106,
      "chip": "ym2612"
    },
    {
      "channel": 0,
      "note": 66,
      "start": 1.9334,
      "duration": 0.0994,
      "velocity": 106,
      "chip": "ym2612"
    },
    {
      "channel": 1,
      "note": 63,
      "start": 1.9341,
      "duration": 0.0994,
      "velocity": 106,
      "chip": "ym2612"
    },
    {
      "channel": 2,
      "note": 78,
      "start": 1.9349,
      "duration": 0.0994,
      "velocity": 97,
      "chip": "ym2612"
    },
    {
      "channel": 3,
      "note": 59,
      "start": 1.9356,
      "duration": 0.0995,
      "velocity": 106,
      "chip": "ym2612"
    },
    {
      "channel": 4,
      "note": 59,
      "start": 1.9363,
      "duration": 0.2187,
      "velocity": 100,
      "chip": "ym2612"
    },
    {
      "channel": 0,
      "note": 69,
      "start": 2.0334,
      "duration": 0.1186,
      "velocity": 106,
      "chip": "ym2612"
    },
    {
      "channel": 1,
      "note": 66,
      "start": 2.0342,
      "duration": 0.1186,
      "velocity": 106,
      "chip": "ym2612"
    },
    {
      "channel": 2,
      "note": 81,
      "start": 2.0349,
      "duration": 0.1186,
      "velocity": 97,
      "chip": "ym2612"
    },
    {
      "channel": 3,
      "note": 63,
      "start": 2.0357,
      "duration": 0.1186,
      "velocity": 106,
      "chip": "ym2612"
    },
    {
      "channel": 0,
      "note": 71,
      "start": 2.1526,
      "duration": 0.0969,
      "velocity": 106,
      "chip": "ym2612"
    },
    {
      "channel": 1,
      "note": 69,
      "start": 2.1534,
      "duration": 0.097,
      "velocity": 106,
      "chip": "ym2612"
    },
    {
      "channel": 2,
      "note": 83,
      "start": 2.1541,
      "duration": 0.097,
      "velocity": 97,
      "chip": "ym2612"
    },
    {
      "channel": 3,
      "note": 66,
      "start": 2.1549,
      "duration": 0.097,
      "velocity": 106,
      "chip": "ym2612"
    },
    {
      "channel": 5,
      "note": 75,
      "start": 2.1559,
      "duration": 0.3136,
      "velocity": 120,
      "chip": "ym2612"
    },
    {
      "channel": 0,
      "note": 69,
      "start": 2.2502,
      "duration": 0.1159,
      "velocity": 106,
      "chip": "ym2612"
    },
    {
      "channel": 1,
      "note": 66,
      "start": 2.251,
      "duration": 0.1159,
      "velocity": 106,
      "chip": "ym2612"
    },
    {
      "channel": 2,
      "note": 81,
      "start": 2.2517,
      "duration": 0.116,
      "velocity": 97,
      "chip": "ym2612"
    },
    {
      "channel": 3,
      "note": 63,
      "start": 2.2525,
      "duration": 0.116,
      "velocity": 106,
      "chip": "ym2612"
    },
    {
      "channel": 0,
      "note": 66,
      "start": 2.3667,
      "duration": 0.0994,
      "velocity": 106,
      "chip": "ym2612"
    },
    {
      "channel": 1,
      "note": 63,
      "start": 2.3676,
      "duration": 0.0993,
      "velocity": 106,
      "chip": "ym2612"
    },
    {
      "channel": 2,
      "note": 78,
      "start": 2.3683,
      "duration": 0.0994,
      "velocity": 97,
      "chip": "ym2612"
    },
    {
      "channel": 3,
      "note": 59,
      "start": 2.369,
      "duration": 0.0994,
      "velocity": 106,
      "chip": "ym2612"
    },
    {
      "channel": 4,
      "note": 59,
      "start": 2.3697,
      "duration": 0.1478,
      "velocity": 100,
      "chip": "ym2612"
    },
    {
      "channel": 0,
      "note": 63,
      "start": 2.4667,
      "duration": 0.116,
      "velocity": 106,
      "chip": "ym2612"
    },
    {
      "channel": 1,
      "note": 59,
      "start": 2.4675,
      "duration": 0.1161,
      "velocity": 106,
      "chip": "ym2612"
    },
    {
      "channel": 2,
      "note": 75,
      "start": 2.4683,
      "duration": 0.1161,
      "velocity": 97,
      "chip": "ym2612"
    },
    {
      "channel": 3,
      "note": 57,
      "start": 2.469,
      "duration": 0.1161,
      "velocity": 106,
      "chip": "ym2612"
    },
    {
      "channel": 0,
      "note": 59,
      "start": 2.5834,
      "duration": 0.4352,
      "velocity": 106,
      "chip": "ym2612"
    },
    {
      "channel": 1,
      "note": 57,
      "start": 2.5842,
      "duration": 0.4347,
      "velocity": 106,
      "chip": "ym2612"
    },
    {
      "channel": 2,
      "note": 71,
      "start": 2.5849,
      "duration": 0.4344,
      "velocity": 97,
      "chip": "ym2612"
    },
    {
      "channel": 3,
      "note": 54,
      "start": 2.5857,
      "duration": 0.434,
      "velocity": 106,
      "chip": "ym2612"
    },
    {
      "channel": 4,
      "note": 59,
      "start": 2.5865,
      "duration": 0.1476,
      "velocity": 100,
      "chip": "ym2612"
    },
    {
      "channel": 4,
      "note": 59,
      "start": 2.8015,
      "duration": 0.2185,
      "velocity": 100,
      "chip": "ym2612"
    },
    {
      "channel": 5,
      "note": 75,
      "start": 3.0209,
      "duration": 0.0952,
      "velocity": 120,
      "chip": "ym2612"
    },
    {
      "channel": 0,
      "note": 59,
      "start": 3.1193,
      "duration": 0.116,
      "velocity": 106,
      "chip": "ym2612"
    },
    {
      "channel": 1,
      "note": 57,
      "start": 3.1201,
      "duration": 0.116,
      "velocity": 106,
      "chip": "ym2612"
    },
    {
      "channel": 5,
      "note": 75,
      "start": 3.121,
      "duration": 0.1117,
      "velocity": 120,
      "chip": "ym2612"
    },
    {
      "channel": 0,
      "note": 62,
      "start": 3.2359,
      "duration": 0.0994,
      "velocity": 106,
      "chip": "ym2612"
    },
    {
      "channel": 1,
      "note": 59,
      "start": 3.2368,
      "duration": 0.0993,
      "velocity": 106,
      "chip": "ym2612"
    },
    {
      "channel": 5,
      "note": 75,
      "start": 3.2377,
      "duration": 0.095,
      "velocity": 120,
      "chip": "ym2612"
    },
    {
      "channel": 0,
      "note": 64,
      "start": 3.3359,
      "duration": 0.1163,
      "velocity": 106,
      "chip": "ym2612"
    },
    {
      "channel": 1,
      "note": 62,
      "start": 3.3367,
      "duration": 0.1168,
      "velocity": 106,
      "chip": "ym2612"
    },
    {
      "channel": 5,
      "note": 75,
      "start": 3.3377,
      "duration": 0.1118,
      "velocity": 120,
      "chip": "ym2612"
    },
    {
      "channel": 0,
      "note": 67,
      "start": 3.4529,
      "duration": 1.0809,
      "velocity": 106,
      "chip": "ym2612"
    },
    {
      "channel": 1,
      "note": 64,
      "start": 3.4541,
      "duration": 1.0804,
      "velocity": 106,
      "chip": "ym2612"
    },
    {
      "channel": 4,
      "note": 52,
      "start": 3.4607,
      "duration": 0.0896,
      "velocity": 100,
      "chip": "ym2612"
    },
    {
      "channel": 5,
      "note": 32,
      "start": 3.4615,
      "duration": 0.1222,
      "velocity": 114,
      "chip": "ym2612"
    },
    {
      "channel": 4,
      "note": 64,
      "start": 3.6686,
      "duration": 0.0985,
      "velocity": 100,
      "chip": "ym2612"
    },
    {
      "channel": 4,
      "note": 52,
      "start": 3.7676,
      "duration": 0.1191,
      "velocity": 100,
      "chip": "ym2612"
    },
    {
      "channel": 5,
      "note": 75,
      "start": 3.8877,
      "duration": 0.3146,
      "velocity": 120,
      "chip": "ym2612"
    },
    {
      "channel": 4,
      "note": 52,
      "start": 3.9844,
      "duration": 0.1171,
      "velocity": 100,
      "chip": "ym2612"
    },
    {
      "channel": 4,
      "note": 64,
      "start": 4.102,
      "duration": 0.0994,
      "velocity": 100,
      "chip": "ym2612"
    },
    {
      "channel": 4,
      "note": 52,
      "start": 4.202,
      "duration": 0.1162,
      "velocity": 100,
      "chip": "ym2612"
    },
    {
      "channel": 4,
      "note": 52,
      "start": 4.4177,
      "duration": 0.1178,
      "velocity": 100,
      "chip": "ym2612"
    },
    {
      "channel": 0,
      "note": 66,
      "start": 4.5344,
      "duration": 0.651,
      "velocity": 106,
      "chip": "ym2612"
    },
    {
      "channel": 1,
      "note": 62,
      "start": 4.5352,
      "duration": 0.651,
      "velocity": 106,
      "chip": "ym2612"
    },
    {
      "channel": 4,
      "note": 64,
      "start": 4.5361,
      "duration": 0.0985,
      "velocity": 100,
      "chip": "ym2612"
    },
    {
      "channel": 4,
      "note": 52,
      "start": 4.6351,
      "duration": 0.1182,
      "velocity": 100,
      "chip": "ym2612"
    },
    {
      "channel": 5,
      "note": 75,
      "start": 4.7542,
      "duration": 0.3143,
      "velocity": 120,
      "chip": "ym2612"
    },
    {
      "channel": 4,
      "note": 52,
      "start": 4.851,
      "duration": 0.1168,
      "velocity": 100,
      "chip": "ym2612"
    },
    {
      "channel": 4,
      "note": 62,
      "start": 4.9683,
      "duration": 0.0994,
      "velocity": 100,
      "chip": "ym2612"
    },
    {
      "channel": 4,
      "note": 64,
      "start": 5.0683,
      "duration": 0.12,
      "velocity": 100,
      "chip": "ym2612"
    },
    {
      "channel": 0,
      "note": 64,
      "start": 5.1859,
      "duration": 0.2144,
      "velocity": 106,
      "chip": "ym2612"
    },
    {
      "channel": 1,
      "note": 59,
      "start": 5.1868,
      "duration": 0.2139,
      "velocity": 106,
      "chip": "ym2612"
    },
    {
      "channel": 4,
      "note": 52,
      "start": 5.1888,
      "duration": 0.0954,
      "velocity": 100,
      "chip": "ym2612"
    },
    {
      "channel": 5,
      "note": 32,
      "start": 5.1896,
      "duration": 0.1446,
      "velocity": 114,
      "chip": "ym2612"
    },
    {
      "channel": 4,
      "note": 64,
      "start": 5.4022,
      "duration": 0.098,
      "velocity": 100,
      "chip": "ym2612"
    },
    {
      "channel": 4,
      "note": 52,
      "start": 5.5008,
      "duration": 0.119,
      "velocity": 100,
      "chip": "ym2612"
    },
    {
      "channel": 5,
      "note": 75,
      "start": 5.6207,
      "duration": 0.212,
      "velocity": 120,
      "chip": "ym2612"
    },
    {
      "channel": 4,
      "note": 52,
      "start": 5.7175,
      "duration": 0.1197,
      "velocity": 100,
      "chip": "ym2612"
    },
    {
      "channel": 2,
      "note": 59,
      "start": 5.8362,
      "duration": 0.0468,
      "velocity": 98,
      "chip": "ym2612"
    },
    {
      "channel": 3,
      "note": 58,
      "start": 5.837,
      "duration": 0.0462,
      "velocity": 98,
      "chip": "ym2612"
    },
    {
      "channel": 4,
      "note": 64,
      "start": 5.8377,
      "duration": 0.0996,
      "velocity": 100,
      "chip": "ym2612"
    },
    {
      "channel": 5,
      "note": 48,
      "start": 5.8384,
      "duration": 0.0947,
      "velocity": 127,
      "chip": "ym2612"
    },
    {
      "channel": 2,
      "note": 59,
      "start": 5.9364,
      "duration": 0.0632,
      "velocity": 98,
      "chip": "ym2612"
    },
    {
      "channel": 3,
      "note": 58,
      "start": 5.9371,
      "duration": 0.0628,
      "velocity": 98,
      "chip": "ym2612"
    },
    {
      "channel": 4,
      "note": 52,
      "start": 5.9378,
      "duration": 0.1162,
      "velocity": 100,
      "chip": "ym2612"
    },
    {
      "channel": 5,
      "note": 48,
      "start": 5.9386,
      "duration": 0.1111,
      "velocity": 127,
      "chip": "ym2612"
    },
    {
      "channel": 2,
      "note": 59,
      "start": 6.0531,
      "duration": 0.0965,
      "velocity": 98,
      "chip": "ym2612"
    },
    {
      "channel": 3,
      "note": 58,
      "start": 6.0538,
      "duration": 0.0961,
      "velocity": 98,
      "chip": "ym2612"
    },
    {
      "channel": 5,
      "note": 48,
      "start": 6.0549,
      "duration": 0.1785,
      "velocity": 127,
      "chip": "ym2612"
    },
    {
      "channel": 4,
      "note": 52,
      "start": 6.1507,
      "duration": 0.1199,
      "velocity": 100,
      "chip": "ym2612"
    },
    {
      "channel": 2,
      "note": 59,
      "start": 6.2698,
      "duration": 0.1132,
      "velocity": 98,
      "chip": "ym2612"
    },
    {
      "channel": 3,
      "note": 58,
      "start": 6.2705,
      "duration": 0.1128,
      "velocity": 98,
      "chip": "ym2612"
    },
    {
      "channel": 4,
      "note": 64,
      "start": 6.2712,
      "duration": 0.1123,
      "velocity": 100,
      "chip": "ym2612"
    },
    {
      "channel": 5,
      "note": 48,
      "start": 6.272,
      "duration": 0.1782,
      "velocity": 127,
      "chip": "ym2612"
    },
    {
      "channel": 4,
      "note": 52,
      "start": 6.3841,
      "duration": 0.1019,
      "velocity": 100,
      "chip": "ym2612"
    },
    {
      "channel": 5,
      "note": 75,
      "start": 6.487,
      "duration": 0.1128,
      "velocity": 120,
      "chip": "ym2612"
    },
    {
      "channel": 0,
      "note": 59,
      "start": 6.603,
      "duration": 0.099,
      "velocity": 106,
      "chip": "ym2612"
    },
    {
      "channel": 1,
      "note": 57,
      "start": 6.6038,
      "duration": 0.099,
      "velocity": 106,
      "chip": "ym2612"
    },
    {
      "channel": 4,
      "note": 52,
      "start": 6.6047,
      "duration": 0.099,
      "velocity": 100,
      "chip": "ym2612"
    },
    {
      "channel": 5,
      "note": 75,
      "start": 6.6054,
      "duration": 0.094,
      "velocity": 120,
      "chip": "ym2612"
    },
    {
      "channel": 0,
      "note": 62,
      "start": 6.7026,
      "duration": 0.116,
      "velocity": 106,
      "chip": "ym2612"
    },
    {
      "channel": 1,
      "note": 59,
      "start": 6.7034,
      "duration": 0.116,
      "velocity": 106,
      "chip": "ym2612"
    },
    {
      "channel": 4,
      "note": 62,
      "start": 6.7043,
      "duration": 0.116,
      "velocity": 100,
      "chip": "ym2612"
    },
    {
      "channel": 5,
      "note": 75,
      "start": 6.705,
      "duration": 0.111,
      "velocity": 120,
      "chip": "ym2612"
    },
    {
      "channel": 0,
      "note": 64,
      "start": 6.8193,
      "duration": 0.1,
      "velocity": 106,
      "chip": "ym2612"
    },
    {
      "channel": 1,
      "note": 62,
      "start": 6.82,
      "duration": 0.1,
      "velocity": 106,
      "chip": "ym2612"
    },
    {
      "channel": 4,
      "note": 64,
      "start": 6.821,
      "duration": 0.1003,
      "velocity": 100,
      "chip": "ym2612"
    },
    {
      "channel": 5,
      "note": 75,
      "start": 6.8217,
      "duration": 0.095,
      "velocity": 120,
      "chip": "ym2612"
    },
    {
      "channel": 0,
      "note": 67,
      "start": 6.9199,
      "duration": 1.0805,
      "velocity": 106,
      "chip": "ym2612"
    },
    {
      "channel": 1,
      "note": 64,
      "start": 6.9207,
      "duration": 1.0805,
      "velocity": 106,
      "chip": "ym2612"
    },
    {
      "channel": 4,
      "note": 52,
      "start": 6.9219,
      "duration": 0.1117,
      "velocity": 100,
      "chip": "ym2612"
    },
    {
      "channel": 5,
      "note": 32,
      "start": 6.9227,
      "duration": 0.1444,
      "velocity": 114,
      "chip": "ym2612"
    },
    {
      "channel": 4,
      "note": 64,
      "start": 7.1352,
      "duration": 0.1151,
      "velocity": 100,
      "chip": "ym2612"
    },
    {
      "channel": 4,
      "note": 52,
      "start": 7.251,
      "duration": 0.1025,
      "velocity": 100,
      "chip": "ym2612"
    },
    {
      "channel": 5,
      "note": 75,
      "start": 7.3543,
      "duration": 0.3312,
      "velocity": 120,
      "chip": "ym2612"
    },
    {
      "channel": 4,
      "note": 52,
      "start": 7.4677,
      "duration": 0.1004,
      "velocity": 100,
      "chip": "ym2612"
    },
    {
      "channel": 4,
      "note": 64,
      "start": 7.5687,
      "duration": 0.1161,
      "velocity": 100,
      "chip": "ym2612"
    },
    {
      "channel": 4,
      "note": 52,
      "start": 7.6854,
      "duration": 0.0994,
      "velocity": 100,
      "chip": "ym2612"
    },
    {
      "channel": 4,
      "note": 52,
      "start": 7.9011,
      "duration": 0.1011,
      "velocity": 100,
      "chip": "ym2612"
    },
    {
      "channel": 0,
      "note": 69,
      "start": 8.001,
      "duration": 0.651,
      "velocity": 106,
      "chip": "ym2612"
    },
    {
      "channel": 1,
      "note": 66,
      "start": 8.0018,
      "duration": 0.651,
      "velocity": 106,
      "chip": "ym2612"
    },
    {
      "channel": 4,
      "note": 64,
      "start": 8.0027,
      "duration": 0.1161,
      "velocity": 100,
      "chip": "ym2612"
    },
    {
      "channel": 4,
      "note": 52,
      "start": 8.1193,
      "duration": 0.1011,
      "velocity": 100,
      "chip": "ym2612"
    },
    {
      "channel": 5,
      "note": 75,
      "start": 8.2214,
      "duration": 0.3309,
      "velocity": 120,
      "chip": "ym2612"
    },
    {
      "channel": 4,
      "note": 52,
      "start": 8.3348,
      "duration": 0.1001,
      "velocity": 100,
      "chip": "ym2612"
    },
    {
      "channel": 4,
      "note": 62,
      "start": 8.4355,
      "duration": 0.116,
      "velocity": 100,
      "chip": "ym2612"
    },
    {
      "channel": 4,
      "note": 64,
      "start": 8.5521,
      "duration": 0.1024,
      "velocity": 100,
      "chip": "ym2612"
    },
    {
      "channel": 0,
      "note": 67,
      "start": 8.6526,
      "duration": 0.1135,
      "velocity": 106,
      "chip": "ym2612"
    },
    {
      "channel": 1,
      "note": 64,
      "start": 8.6534,
      "duration": 0.1134,
      "velocity": 106,
      "chip": "ym2612"
    },
    {
      "channel": 4,
      "note": 52,
      "start": 8.6551,
      "duration": 0.1132,
      "velocity": 100,
      "chip": "ym2612"
    },
    {
      "channel": 5,
      "note": 32,
      "start": 8.6559,
      "duration": 0.145,
      "velocity": 114,
      "chip": "ym2612"
    },
    {
      "channel": 0,
      "note": 64,
      "start": 8.7667,
      "duration": 0.1003,
      "velocity": 106,
      "chip": "ym2612"
    },
    {
      "channel": 1,
      "note": 59,
      "start": 8.7675,
      "duration": 0.0999,
      "velocity": 106,
      "chip": "ym2612"
    },
    {
      "channel": 4,
      "note": 64,
      "start": 8.8689,
      "duration": 0.1147,
      "velocity": 100,
      "chip": "ym2612"
    },
    {
      "channel": 4,
      "note": 52,
      "start": 8.9841,
      "duration": 0.1024,
      "velocity": 100,
      "chip": "ym2612"
    },
    {
      "channel": 5,
      "note": 75,
      "start": 9.0874,
      "duration": 0.212,
      "velocity": 120,
      "chip": "ym2612"
    },
    {
      "channel": 4,
      "note": 52,
      "start": 9.2008,
      "duration": 0.1029,
      "velocity": 100,
      "chip": "ym2612"
    },
    {
      "channel": 2,
      "note": 59,
      "start": 9.3028,
      "duration": 0.0468,
      "velocity": 98,
      "chip": "ym2612"
    },
    {
      "channel": 3,
      "note": 58,
      "start": 9.3036,
      "duration": 0.0463,
      "velocity": 98,
      "chip": "ym2612"
    },
    {
      "channel": 4,
      "note": 64,
      "start": 9.3044,
      "duration": 0.1162,
      "velocity": 100,
      "chip": "ym2612"
    },
    {
      "channel": 5,
      "note": 48,
      "start": 9.3051,
      "duration": 0.1113,
      "velocity": 127,
      "chip": "ym2612"
    },
    {
      "channel": 2,
      "note": 59,
      "start": 9.4198,
      "duration": 0.0465,
      "velocity": 98,
      "chip": "ym2612"
    },
    {
      "channel": 3,
      "note": 58,
      "start": 9.4205,
      "duration": 0.0461,
      "velocity": 98,
      "chip": "ym2612"
    },
    {
      "channel": 4,
      "note": 52,
      "start": 9.4212,
      "duration": 0.0995,
      "velocity": 100,
      "chip": "ym2612"
    },
    {
      "channel": 5,
      "note": 48,
      "start": 9.422,
      "duration": 0.0945,
      "velocity": 127,
      "chip": "ym2612"
    },
    {
      "channel": 2,
      "note": 59,
      "start": 9.5198,
      "duration": 0.1132,
      "velocity": 98,
      "chip": "ym2612"
    },
    {
      "channel": 3,
      "note": 58,
      "start": 9.5205,
      "duration": 0.1128,
      "velocity": 98,
      "chip": "ym2612"
    },
    {
      "channel": 5,
      "note": 48,
      "start": 9.5216,
      "duration": 0.1785,
      "velocity": 127,
      "chip": "ym2612"
    },
    {
      "channel": 4,
      "note": 52,
      "start": 9.6341,
      "duration": 0.1032,
      "velocity": 100,
      "chip": "ym2612"
    },
    {
      "channel": 2,
      "note": 59,
      "start": 9.7364,
      "duration": 0.1132,
      "velocity": 98,
      "chip": "ym2612"
    },
    {
      "channel": 3,
      "note": 58,
      "start": 9.7371,
      "duration": 0.1128,
      "velocity": 98,
      "chip": "ym2612"
    },
    {
      "channel": 4,
      "note": 64,
      "start": 9.7379,
      "duration": 0.1123,
      "velocity": 100,
      "chip": "ym2612"
    },
    {
      "channel": 5,
      "note": 48,
      "start": 9.7386,
      "duration": 0.1782,
      "velocity": 127,
      "chip": "ym2612"
    },
    {
      "channel": 4,
      "note": 52,
      "start": 9.8508,
      "duration": 0.1019,
      "velocity": 100,
      "chip": "ym2612"
    },
    {
      "channel": 5,
      "note": 75,
      "start": 9.9536,
      "duration": 0.1128,
      "velocity": 120,
      "chip": "ym2612"
    },
    {
      "channel": 0,
      "note": 64,
      "start": 10.0698,
      "duration": 0.0989,
      "velocity": 106,
      "chip": "ym2612"
    },
    {
      "channel": 1,
      "note": 59,
      "start": 10.0705,
      "duration": 0.0989,
      "velocity": 106,
      "chip": "ym2612"
    },
    {
      "channel": 4,
      "note": 52,
      "start": 10.0714,
      "duration": 0.099,
      "velocity": 100,
      "chip": "ym2612"
    },
    {
      "channel": 5,
      "note": 75,
      "start": 10.0722,
      "duration": 0.0938,
      "velocity": 120,
      "chip": "ym2612"
    },
    {
      "channel": 0,
      "note": 67,
      "start": 10.1693,
      "duration": 0.116,
      "velocity": 106,
      "chip": "ym2612"
    },
    {
      "channel": 1,
      "note": 64,
      "start": 10.1701,
      "duration": 0.116,
      "velocity": 106,
      "chip": "ym2612"
    },
    {
      "channel": 4,
      "note": 62,
      "start": 10.171,
      "duration": 0.1161,
      "velocity": 100,
      "chip": "ym2612"
    },
    {
      "channel": 5,
      "note": 75,
      "start": 10.1717,
      "duration": 0.111,
      "velocity": 120,
      "chip": "ym2612"
    },
    {
      "channel": 0,
      "note": 71,
      "start": 10.2859,
      "duration": 0.1,
      "velocity": 106,
      "chip": "ym2612"
    },
    {
      "channel": 1,
      "note": 67,
      "start": 10.2868,
      "duration": 0.1001,
      "velocity": 106,
      "chip": "ym2612"
    },
    {
      "channel": 4,
      "note": 64,
      "start": 10.2877,
      "duration": 0.1004,
      "velocity": 100,
      "chip": "ym2612"
    },
    {
      "channel": 5,
      "note": 75,
      "start": 10.2883,
      "duration": 0.095,
      "velocity": 120,
      "chip": "ym2612"
    },
    {
      "channel": 0,
      "note": 69,
      "start": 10.3866,
      "duration": 0.8638,
      "velocity": 106,
      "chip": "ym2612"
    },
    {
      "channel": 1,
      "note": 66,
      "start": 10.3875,
      "duration": 0.8637,
      "velocity": 106,
      "chip": "ym2612"
    },
    {
      "channel": 4,
      "note": 52,
      "start": 10.3887,
      "duration": 0.1116,
      "velocity": 100,
      "chip": "ym2612"
    },
    {
      "channel": 5,
      "note": 32,
      "start": 10.3895,
      "duration": 0.1443,
      "velocity": 114,
      "chip": "ym2612"
    },
    {
      "channel": 4,
      "note": 64,
      "start": 10.6019,
      "duration": 0.1151,
      "velocity": 100,
      "chip": "ym2612"
    },
    {
      "channel": 4,
      "note": 52,
      "start": 10.7176,
      "duration": 0.1025,
      "velocity": 100,
      "chip": "ym2612"
    },
    {
      "channel": 5,
      "note": 75,
      "start": 10.821,
      "duration": 0.3312,
      "velocity": 120,
      "chip": "ym2612"
    },
    {
      "channel": 4,
      "note": 52,
      "start": 10.9344,
      "duration": 0.1004,
      "velocity": 100,
      "chip": "ym2612"
    },
    {
      "channel": 4,
      "note": 64,
      "start": 11.0354,
      "duration": 0.116,
      "velocity": 100,
      "chip": "ym2612"
    },
    {
      "channel": 4,
      "note": 52,
      "start": 11.152,
      "duration": 0.1001,
      "velocity": 100,
      "chip": "ym2612"
    },
    {
      "channel": 0,
      "note": 66,
      "start": 11.251,
      "duration": 0.8676,
      "velocity": 106,
      "chip": "ym2612"
    },
    {
      "channel": 1,
      "note": 62,
      "start": 11.2518,
      "duration": 0.8677,
      "velocity": 106,
      "chip": "ym2612"
    },
    {
      "channel": 4,
      "note": 52,
      "start": 11.3675,
      "duration": 0.1005,
      "velocity": 100,
      "chip": "ym2612"
    },
    {
      "channel": 4,
      "note": 64,
      "start": 11.4686,
      "duration": 0.117,
      "velocity": 100,
      "chip": "ym2612"
    },
    {
      "channel": 4,
      "note": 52,
      "start": 11.5861,
      "duration": 0.1012,
      "velocity": 100,
      "chip": "ym2612"
    },
    {
      "channel": 5,
      "note": 75,
      "start": 11.6882,
      "duration": 0.3308,
      "velocity": 120,
      "chip": "ym2612"
    },
    {
      "channel": 4,
      "note": 52,
      "start": 11.8016,
      "duration": 0.1,
      "velocity": 100,
      "chip": "ym2612"
    },
    {
      "channel": 4,
      "note": 62,
      "start": 11.9022,
      "duration": 0.116,
      "velocity": 100,
      "chip": "ym2612"
    },
    {
      "channel": 4,
      "note": 64,
      "start": 12.0188,
      "duration": 0.1024,
      "velocity": 100,
      "chip": "ym2612"
    },
    {
      "channel": 0,
      "note": 71,
      "start": 12.1193,
      "duration": 0.883,
      "velocity": 106,
      "chip": "ym2612"
    },
    {
      "channel": 1,
      "note": 67,
      "start": 12.1201,
      "duration": 0.8826,
      "velocity": 106,
      "chip": "ym2612"
    },
    {
      "channel": 4,
      "note": 52,
      "start": 12.1217,
      "duration": 0.1124,
      "velocity": 100,
      "chip": "ym2612"
    },
    {
      "channel": 5,
      "note": 32,
      "start": 12.1226,
      "duration": 0.145,
      "velocity": 114,
      "chip": "ym2612"
    },
    {
      "channel": 4,
      "note": 64,
      "start": 12.3357,
      "duration": 0.1151,
      "velocity": 100,
      "chip": "ym2612"
    },
    {
      "channel": 4,
      "note": 52,
      "start": 12.4515,
      "duration": 0.1025,
      "velocity": 100,
      "chip": "ym2612"
    },
    {
      "channel": 5,
      "note": 75,
      "start": 12.5548,
      "duration": 0.2279,
      "velocity": 120,
      "chip": "ym2612"
    },
    {
      "channel": 2,
      "note": 59,
      "start": 12.6676,
      "duration": 0.1186,
      "velocity": 98,
      "chip": "ym2612"
    },
    {
      "channel": 3,
      "note": 57,
      "start": 12.6683,
      "duration": 0.1187,
      "velocity": 98,
      "chip": "ym2612"
    },
    {
      "channel": 4,
      "note": 52,
      "start": 12.669,
      "duration": 0.1186,
      "velocity": 100,
      "chip": "ym2612"
    },
    {
      "channel": 2,
      "note": 62,
      "start": 12.7868,
      "duration": 0.0999,
      "velocity": 98,
      "chip": "ym2612"
    },
    {
      "channel": 3,
      "note": 59,
      "start": 12.7875,
      "duration": 0.0998,
      "velocity": 98,
      "chip": "ym2612"
    },
    {
      "channel": 4,
      "note": 64,
      "start": 12.7882,
      "duration": 0.0998,
      "velocity": 100,
      "chip": "ym2612"
    },
    {
      "channel": 5,
      "note": 48,
      "start": 12.7889,
      "duration": 0.0941,
      "velocity": 127,
      "chip": "ym2612"
    },
    {
      "channel": 2,
      "note": 64,
      "start": 12.8872,
      "duration": 0.1158,
      "velocity": 98,
      "chip": "ym2612"
    },
    {
      "channel": 3,
      "note": 62,
      "start": 12.8879,
      "duration": 0.1158,
      "velocity": 98,
      "chip": "ym2612"
    },
    {
      "channel": 4,
      "note": 52,
      "start": 12.8886,
      "duration": 0.1158,
      "velocity": 100,
      "chip": "ym2612"
    },
    {
      "channel": 5,
      "note": 48,
      "start": 12.8893,
      "duration": 0.1104,
      "velocity": 127,
      "chip": "ym2612"
    },
    {
      "channel": 2,
      "note": 67,
      "start": 13.0036,
      "duration": 0.096,
      "velocity": 98,
      "chip": "ym2612"
    },
    {
      "channel": 3,
      "note": 64,
      "start": 13.0043,
      "duration": 0.096,
      "velocity": 98,
      "chip": "ym2612"
    },
    {
      "channel": 5,
      "note": 48,
      "start": 13.0053,
      "duration": 0.162,
      "velocity": 127,
      "chip": "ym2612"
    },
    {
      "channel": 2,
      "note": 66,
      "start": 13.1002,
      "duration": 0.119,
      "velocity": 98,
      "chip": "ym2612"
    },
    {
      "channel": 3,
      "note": 62,
      "start": 13.1009,
      "duration": 0.119,
      "velocity": 98,
      "chip": "ym2612"
    },
    {
      "channel": 4,
      "note": 52,
      "start": 13.1016,
      "duration": 0.119,
      "velocity": 100,
      "chip": "ym2612"
    },
    {
      "channel": 2,
      "note": 64,
      "start": 13.2198,
      "duration": 0.0986,
      "velocity": 97,
      "chip": "ym2612"
    },
    {
      "channel": 3,
      "note": 59,
      "start": 13.2205,
      "duration": 0.1005,
      "velocity": 106,
      "chip": "ym2612"
    },
    {
      "channel": 4,
      "note": 64,
      "start": 13.2212,
      "duration": 0.1,
      "velocity": 100,
      "chip": "ym2612"
    },
    {
      "channel": 5,
      "note": 48,
      "start": 13.222,
      "duration": 0.1615,
      "velocity": 127,
      "chip": "ym2612"
    },
    {
      "channel": 4,
      "note": 52,
      "start": 13.3218,
      "duration": 0.1142,
      "velocity": 100,
      "chip": "ym2612"
    },
    {
      "channel": 5,
      "note": 75,
      "start": 13.437,
      "duration": 0.0961,
      "velocity": 120,
      "chip": "ym2612"
    },
    {
      "channel": 0,
      "note": 64,
      "start": 13.5363,
      "duration": 0.1156,
      "velocity": 106,
      "chip": "ym2612"
    },
    {
      "channel": 1,
      "note": 59,
      "start": 13.5371,
      "duration": 0.1156,
      "velocity": 106,
      "chip": "ym2612"
    },
    {
      "channel": 4,
      "note": 52,
      "start": 13.538,
      "duration": 0.1157,
      "velocity": 100,
      "chip": "ym2612"
    },
    {
      "channel": 5,
      "note": 75,
      "start": 13.5387,
      "duration": 0.1106,
      "velocity": 120,
      "chip": "ym2612"
    },
    {
      "channel": 0,
      "note": 67,
      "start": 13.6526,
      "duration": 0.0994,
      "velocity": 106,
      "chip": "ym2612"
    },
    {
      "channel": 1,
      "note": 64,
      "start": 13.6534,
      "duration": 0.0994,
      "velocity": 106,
      "chip": "ym2612"
    },
    {
      "channel": 4,
      "note": 62,
      "start": 13.6543,
      "duration": 0.0994,
      "velocity": 100,
      "chip": "ym2612"
    },
    {
      "channel": 5,
      "note": 75,
      "start": 13.655,
      "duration": 0.0944,
      "velocity": 120,
      "chip": "ym2612"
    },
    {
      "channel": 0,
      "note": 71,
      "start": 13.7526,
      "duration": 0.1166,
      "velocity": 106,
      "chip": "ym2612"
    },
    {
      "channel": 1,
      "note": 67,
      "start": 13.7534,
      "duration": 0.1166,
      "velocity": 106,
      "chip": "ym2612"
    },
    {
      "channel": 4,
      "note": 64,
      "start": 13.7543,
      "duration": 0.117,
      "velocity": 100,
      "chip": "ym2612"
    },
    {
      "channel": 5,
      "note": 75,
      "start": 13.755,
      "duration": 0.1116,
      "velocity": 120,
      "chip": "ym2612"
    },
    {
      "channel": 0,
      "note": 69,
      "start": 13.8699,
      "duration": 0.8638,
      "velocity": 106,
      "chip": "ym2612"
    },
    {
      "channel": 1,
      "note": 66,
      "start": 13.8707,
      "duration": 0.8639,
      "velocity": 106,
      "chip": "ym2612"
    },
    {
      "channel": 4,
      "note": 52,
      "start": 13.8719,
      "duration": 0.095,
      "velocity": 100,
      "chip": "ym2612"
    },
    {
      "channel": 5,
      "note": 32,
      "start": 13.8727,
      "duration": 0.1277,
      "velocity": 114,
      "chip": "ym2612"
    },
    {
      "channel": 4,
      "note": 64,
      "start": 14.0852,
      "duration": 0.0985,
      "velocity": 100,
      "chip": "ym2612"
    },
    {
      "channel": 4,
      "note": 52,
      "start": 14.1843,
      "duration": 0.1191,
      "velocity": 100,
      "chip": "ym2612"
    },
    {
      "channel": 5,
      "note": 75,
      "start": 14.3043,
      "duration": 0.3146,
      "velocity": 120,
      "chip": "ym2612"
    },
    {
      "channel": 4,
      "note": 52,
      "start": 14.4011,
      "duration": 0.1171,
      "velocity": 100,
      "chip": "ym2612"
    },
    {
      "channel": 4,
      "note": 64,
      "start": 14.5188,
      "duration": 0.0993,
      "velocity": 100,
      "chip": "ym2612"
    },
    {
      "channel": 4,
      "note": 52,
      "start": 14.6186,
      "duration": 0.1168,
      "velocity": 100,
      "chip": "ym2612"
    },
    {
      "channel": 0,
      "note": 72,
      "start": 14.7344,
      "duration": 0.8676,
      "velocity": 106,
      "chip": "ym2612"
    },
    {
      "channel": 1,
      "note": 64,
      "start": 14.7352,
      "duration": 0.8676,
      "velocity": 106,
      "chip": "ym2612"
    },
    {
      "channel": 4,
      "note": 52,
      "start": 14.8341,
      "duration": 0.1172,
      "velocity": 100,
      "chip": "ym2612"
    },
    {
      "channel": 4,
      "note": 64,
      "start": 14.9519,
      "duration": 0.1003,
      "velocity": 100,
      "chip": "ym2612"
    },
    {
      "channel": 4,
      "note": 52,
      "start": 15.0528,
      "duration": 0.1178,
      "velocity": 100,
      "chip": "ym2612"
    },
    {
      "channel": 5,
      "note": 75,
      "start": 15.1715,
      "duration": 0.3141,
      "velocity": 120,
      "chip": "ym2612"
    },
    {
      "channel": 4,
      "note": 52,
      "start": 15.2684,
      "duration": 0.1165,
      "velocity": 100,
      "chip": "ym2612"
    },
    {
      "channel": 4,
      "note": 62,
      "start": 15.3855,
      "duration": 0.0994,
      "velocity": 100,
      "chip": "ym2612"
    },
    {
      "channel": 4,
      "note": 64,
      "start": 15.4854,
      "duration": 0.1191,
      "velocity": 100,
      "chip": "ym2612"
    },
    {
      "channel": 0,
      "note": 71,
      "start": 15.6026,
      "duration": 0.8664,
      "velocity": 106,
      "chip": "ym2612"
    },
    {
      "channel": 1,
      "note": 63,
      "start": 15.6034,
      "duration": 0.8659,
      "velocity": 106,
      "chip": "ym2612"
    },
    {
      "channel": 4,
      "note": 52,
      "start": 15.6051,
      "duration": 0.0959,
      "velocity": 100,
      "chip": "ym2612"
    },
    {
      "channel": 5,
      "note": 32,
      "start": 15.6059,
      "duration": 0.1283,
      "velocity": 114,
      "chip": "ym2612"
    },
    {
      "channel": 4,
      "note": 64,
      "start": 15.8191,
      "duration": 0.0986,
      "velocity": 100,
      "chip": "ym2612"
    },
    {
      "channel": 4,
      "note": 52,
      "start": 15.9183,
      "duration": 0.119,
      "velocity": 100,
      "chip": "ym2612"
    },
    {
      "channel": 5,
      "note": 75,
      "start": 16.0382,
      "duration": 0.2116,
      "velocity": 120,
      "chip": "ym2612"
    },
    {
      "channel": 4,
      "note": 52,
      "start": 16.1351,
      "duration": 0.1189,
      "velocity": 100,
      "chip": "ym2612"
    },
    {
      "channel": 4,
      "note": 64,
      "start": 16.2545,
      "duration": 0.0994,
      "velocity": 100,
      "chip": "ym2612"
    },
    {
      "channel": 5,
      "note": 59,
      "start": 16.2554,
      "duration": 0.0944,
      "velocity": 117,
      "chip": "ym2612"
    },
    {
      "channel": 4,
      "note": 52,
      "start": 16.3545,
      "duration": 0.1159,
      "velocity": 100,
      "chip": "ym2612"
    },
    {
      "channel": 5,
      "note": 59,
      "start": 16.3553,
      "duration": 0.1111,
      "velocity": 117,
      "chip": "ym2612"
    },
    {
      "channel": 5,
      "note": 54,
      "start": 16.4715,
      "duration": 0.2116,
      "velocity": 117,
      "chip": "ym2612"
    },
    {
      "channel": 4,
      "note": 52,
      "start": 16.5676,
      "duration": 0.1189,
      "velocity": 100,
      "chip": "ym2612"
    },
    {
      "channel": 4,
      "note": 64,
      "start": 16.6871,
      "duration": 0.097,
      "velocity": 100,
      "chip": "ym2612"
    },
    {
      "channel": 5,
      "note": 50,
      "start": 16.6881,
      "duration": 0.3152,
      "velocity": 117,
      "chip": "ym2612"
    },
    {
      "channel": 4,
      "note": 52,
      "start": 16.7847,
      "duration": 0.1203,
      "velocity": 100,
      "chip": "ym2612"
    },
    {
      "channel": 0,
      "note": 74,
      "start": 16.9014,
      "duration": 0.0981,
      "velocity": 106,
      "chip": "ym2612"
    },
    {
      "channel": 1,
      "note": 69,
      "start": 16.9026,
      "duration": 0.0978,
      "velocity": 106,
      "chip": "ym2612"
    },
    {
      "channel": 2,
      "note": 66,
      "start": 16.9037,
      "duration": 0.0974,
      "velocity": 97,
      "chip": "ym2612"
    },
    {
      "channel": 3,
      "note": 50,
      "start": 16.9048,
      "duration": 0.097,
      "velocity": 106,
      "chip": "ym2612"
    },
    {
      "channel": 0,
      "note": 76,
      "start": 17.0002,
      "duration": 0.1188,
      "velocity": 106,
      "chip": "ym2612"
    },
    {
      "channel": 1,
      "note": 71,
      "start": 17.001,
      "duration": 0.1183,
      "velocity": 106,
      "chip": "ym2612"
    },
    {
      "channel": 2,
      "note": 67,
      "start": 17.0017,
      "duration": 0.1201,
      "velocity": 98,
      "chip": "ym2612"
    },
    {
      "channel": 3,
      "note": 52,
      "start": 17.0024,
      "duration": 0.1223,
      "velocity": 98,
      "chip": "ym2612"
    },
    {
      "channel": 4,
      "note": 52,
      "start": 17.0031,
      "duration": 0.122,
      "velocity": 100,
      "chip": "ym2612"
    },
    {
      "channel": 4,
      "note": 62,
      "start": 17.1256,
      "duration": 0.0934,
      "velocity": 100,
      "chip": "ym2612"
    },
    {
      "channel": 5,
      "note": 75,
      "start": 17.1263,
      "duration": 0.0897,
      "velocity": 120,
      "chip": "ym2612"
    },
    {
      "channel": 4,
      "note": 64,
      "start": 17.2196,
      "duration": 0.119,
      "velocity": 100,
      "chip": "ym2612"
    },
    {
      "channel": 5,
      "note": 75,
      "start": 17.2203,
      "duration": 0.1127,
      "velocity": 120,
      "chip": "ym2612"
    },
    {
      "channel": 0,
      "note": 67,
      "start": 17.3367,
      "duration": 1.0804,
      "velocity": 106,
      "chip": "ym2612"
    },
    {
      "channel": 1,
      "note": 64,
      "start": 17.338,
      "duration": 1.0798,
      "velocity": 106,
      "chip": "ym2612"
    },
    {
      "channel": 4,
      "note": 52,
      "start": 17.3392,
      "duration": 0.0944,
      "velocity": 100,
      "chip": "ym2612"
    },
    {
      "channel": 5,
      "note": 32,
      "start": 17.34,
      "duration": 0.1438,
      "velocity": 114,
      "chip": "ym2612"
    },
    {
      "channel": 4,
      "note": 64,
      "start": 17.5519,
      "duration": 0.0985,
      "velocity": 100,
      "chip": "ym2612"
    },
    {
      "channel": 4,
      "note": 52,
      "start": 17.651,
      "duration": 0.1191,
      "velocity": 100,
      "chip": "ym2612"
    },
    {
      "channel": 5,
      "note": 75,
      "start": 17.771,
      "duration": 0.3146,
      "velocity": 120,
      "chip": "ym2612"
    },
    {
      "channel": 4,
      "note": 52,
      "start": 17.8677,
      "duration": 0.1171,
      "velocity": 100,
      "chip": "ym2612"
    },
    {
      "channel": 4,
      "note": 64,
      "start": 17.9854,
      "duration": 0.0994,
      "velocity": 100,
      "chip": "ym2612"
    },
    {
      "channel": 4,
      "note": 52,
      "start": 18.0853,
      "duration": 0.1161,
      "velocity": 100,
      "chip": "ym2612"
    },
    {
      "channel": 4,
      "note": 52,
      "start": 18.3011,
      "duration": 0.1178,
      "velocity": 100,
      "chip": "ym2612"
    },
    {
      "channel": 0,
      "note": 66,
      "start": 18.4177,
      "duration": 0.651,
      "velocity": 106,
      "chip": "ym2612"
    },
    {
      "channel": 1,
      "note": 62,
      "start": 18.4185,
      "duration": 0.651,
      "velocity": 106,
      "chip": "ym2612"
    },
    {
      "channel": 4,
      "note": 64,
      "start": 18.4194,
      "duration": 0.0985,
      "velocity": 100,
      "chip": "ym2612"
    },
    {
      "channel": 4,
      "note": 52,
      "start": 18.5184,
      "duration": 0.1182,
      "velocity": 100,
      "chip": "ym2612"
    },
    {
      "channel": 5,
      "note": 75,
      "start": 18.6375,
      "duration": 0.3148,
      "velocity": 120,
      "chip": "ym2612"
    },
    {
      "channel": 4,
      "note": 52,
      "start": 18.7343,
      "duration": 0.1177,
      "velocity": 100,
      "chip": "ym2612"
    },
    {
      "channel": 4,
      "note": 62,
      "start": 18.8525,
      "duration": 0.099,
      "velocity": 100,
      "chip": "ym2612"
    },
    {
      "channel": 4,
      "note": 64,
      "start": 18.9522,
      "duration": 0.119,
      "velocity": 100,
      "chip": "ym2612"
    },
    {
      "channel": 0,
      "note": 64,
      "start": 19.0693,
      "duration": 0.2144,
      "velocity": 106,
      "chip": "ym2612"
    },
    {
      "channel": 1,
      "note": 59,
      "start": 19.0701,
      "duration": 0.2139,
      "velocity": 106,
      "chip": "ym2612"
    },
    {
      "channel": 4,
      "note": 52,
      "start": 19.0717,
      "duration": 0.1123,
      "velocity": 100,
      "chip": "ym2612"
    },
    {
      "channel": 5,
      "note": 32,
      "start": 19.0726,
      "duration": 0.145,
      "velocity": 114,
      "chip": "ym2612"
    },
    {
      "channel": 4,
      "note": 64,
      "start": 19.2856,
      "duration": 0.1147,
      "velocity": 100,
      "chip": "ym2612"
    },
    {
      "channel": 4,
      "note": 52,
      "start": 19.4008,
      "duration": 0.1024,
      "velocity": 100,
      "chip": "ym2612"
    },
    {
      "channel": 5,
      "note": 75,
      "start": 19.5041,
      "duration": 0.212,
      "velocity": 120,
      "chip": "ym2612"
    },
    {
      "channel": 4,
      "note": 52,
      "start": 19.6175,
      "duration": 0.1034,
      "velocity": 100,
      "chip": "ym2612"
    },
    {
      "channel": 2,
      "note": 59,
      "start": 19.7198,
      "duration": 0.0464,
      "velocity": 98,
      "chip": "ym2612"
    },
    {
      "channel": 3,
      "note": 58,
      "start": 19.7207,
      "duration": 0.0459,
      "velocity": 98,
      "chip": "ym2612"
    },
    {
      "channel": 4,
      "note": 64,
      "start": 19.7214,
      "duration": 0.1159,
      "velocity": 100,
      "chip": "ym2612"
    },
    {
      "channel": 5,
      "note": 48,
      "start": 19.7221,
      "duration": 0.111,
      "velocity": 127,
      "chip": "ym2612"
    },
    {
      "channel": 2,
      "note": 59,
      "start": 19.8364,
      "duration": 0.0465,
      "velocity": 98,
      "chip": "ym2612"
    },
    {
      "channel": 3,
      "note": 58,
      "start": 19.8371,
      "duration": 0.0461,
      "velocity": 98,
      "chip": "ym2612"
    },
    {
      "channel": 4,
      "note": 52,
      "start": 19.8378,
      "duration": 0.0995,
      "velocity": 100,
      "chip": "ym2612"
    },
    {
      "channel": 5,
      "note": 48,
      "start": 19.8386,
      "duration": 0.0945,
      "velocity": 127,
      "chip": "ym2612"
    },
    {
      "channel": 2,
      "note": 59,
      "start": 19.9364,
      "duration": 0.1132,
      "velocity": 98,
      "chip": "ym2612"
    },
    {
      "channel": 3,
      "note": 58,
      "start": 19.9371,
      "duration": 0.1128,
      "velocity": 98,
      "chip": "ym2612"
    },
    {
      "channel": 5,
      "note": 48,
      "start": 19.9382,
      "duration": 0.1785,
      "velocity": 127,
      "chip": "ym2612"
    },
    {
      "channel": 4,
      "note": 52,
      "start": 20.0507,
      "duration": 0.1032,
      "velocity": 100,
      "chip": "ym2612"
    },
    {
      "channel": 2,
      "note": 59,
      "start": 20.1531,
      "duration": 0.1132,
      "velocity": 98,
      "chip": "ym2612"
    },
    {
      "channel": 3,
      "note": 58,
      "start": 20.1538,
      "duration": 0.1128,
      "velocity": 98,
      "chip": "ym2612"
    },
    {
      "channel": 4,
      "note": 64,
      "start": 20.1546,
      "duration": 0.1123,
      "velocity": 100,
      "chip": "ym2612"
    },
    {
      "channel": 5,
      "note": 48,
      "start": 20.1553,
      "duration": 0.1782,
      "velocity": 127,
      "chip": "ym2612"
    },
    {
      "channel": 4,
      "note": 52,
      "start": 20.2675,
      "duration": 0.1019,
      "velocity": 100,
      "chip": "ym2612"
    },
    {
      "channel": 5,
      "note": 75,
      "start": 20.3703,
      "duration": 0.1128,
      "velocity": 120,
      "chip": "ym2612"
    },
    {
      "channel": 0,
      "note": 59,
      "start": 20.4863,
      "duration": 0.099,
      "velocity": 106,
      "chip": "ym2612"
    },
    {
      "channel": 1,
      "note": 57,
      "start": 20.4871,
      "duration": 0.099,
      "velocity": 106,
      "chip": "ym2612"
    },
    {
      "channel": 4,
      "note": 52,
      "start": 20.488,
      "duration": 0.099,
      "velocity": 100,
      "chip": "ym2612"
    },
    {
      "channel": 5,
      "note": 75,
      "start": 20.4887,
      "duration": 0.094,
      "velocity": 120,
      "chip": "ym2612"
    },
    {
      "channel": 0,
      "note": 62,
      "start": 20.5859,
      "duration": 0.116,
      "velocity": 106,
      "chip": "ym2612"
    },
    {
      "channel": 1,
      "note": 59,
      "start": 20.5868,
      "duration": 0.116,
      "velocity": 106,
      "chip": "ym2612"
    },
    {
      "channel": 4,
      "note": 62,
      "start": 20.5877,
      "duration": 0.116,
      "velocity": 100,
      "chip": "ym2612"
    },
    {
      "channel": 5,
      "note": 75,
      "start": 20.5883,
      "duration": 0.111,
      "velocity": 120,
      "chip": "ym2612"
    },
    {
      "channel": 0,
      "note": 64,
      "start": 20.7026,
      "duration": 0.1,
      "velocity": 106,
      "chip": "ym2612"
    },
    {
      "channel": 1,
      "note": 62,
      "start": 20.7034,
      "duration": 0.1,
      "velocity": 106,
      "chip": "ym2612"
    },
    {
      "channel": 4,
      "note": 64,
      "start": 20.7043,
      "duration": 0.1003,
      "velocity": 100,
      "chip": "ym2612"
    },
    {
      "channel": 5,
      "note": 75,
      "start": 20.705,
      "duration": 0.095,
      "velocity": 120,
      "chip": "ym2612"
    },
    {
      "channel": 0,
      "note": 67,
      "start": 20.8032,
      "duration": 1.0805,
      "velocity": 106,
      "chip": "ym2612"
    },
    {
      "channel": 1,
      "note": 64,
      "start": 20.804,
      "duration": 1.0805,
      "velocity": 106,
      "chip": "ym2612"
    },
    {
      "channel": 4,
      "note": 52,
      "start": 20.8052,
      "duration": 0.1117,
      "velocity": 100,
      "chip": "ym2612"
    },
    {
      "channel": 5,
      "note": 32,
      "start": 20.806,
      "duration": 0.1444,
      "velocity": 114,
      "chip": "ym2612"
    },
    {
      "channel": 4,
      "note": 64,
      "start": 21.0186,
      "duration": 0.1151,
      "velocity": 100,
      "chip": "ym2612"
    },
    {
      "channel": 4,
      "note": 52,
      "start": 21.1343,
      "duration": 0.1025,
      "velocity": 100,
      "chip": "ym2612"
    },
    {
      "channel": 5,
      "note": 75,
      "start": 21.2377,
      "duration": 0.3312,
      "velocity": 120,
      "chip": "ym2612"
    },
    {
      "channel": 4,
      "note": 52,
      "start": 21.3511,
      "duration": 0.1004,
      "velocity": 100,
      "chip": "ym2612"
    },
    {
      "channel": 4,
      "note": 64,
      "start": 21.452,
      "duration": 0.1161,
      "velocity": 100,
      "chip": "ym2612"
    },
    {
      "channel": 4,
      "note": 52,
      "start": 21.5687,
      "duration": 0.0994,
      "velocity": 100,
      "chip": "ym2612"
    },
    {
      "channel": 4,
      "note": 52,
      "start": 21.7844,
      "duration": 0.1011,
      "velocity": 100,
      "chip": "ym2612"
    },
    {
      "channel": 0,
      "note": 69,
      "start": 21.8844,
      "duration": 0.651,
      "velocity": 106,
      "chip": "ym2612"
    },
    {
      "channel": 1,
      "note": 66,
      "start": 21.8852,
      "duration": 0.651,
      "velocity": 106,
      "chip": "ym2612"
    },
    {
      "channel": 4,
      "note": 64,
      "start": 21.8861,
      "duration": 0.1161,
      "velocity": 100,
      "chip": "ym2612"
    },
    {
      "channel": 4,
      "note": 52,
      "start": 22.0027,
      "duration": 0.1011,
      "velocity": 100,
      "chip": "ym2612"
    },
    {
      "channel": 5,
      "note": 75,
      "start": 22.1047,
      "duration": 0.3309,
      "velocity": 120,
      "chip": "ym2612"
    },
    {
      "channel": 4,
      "note": 52,
      "start": 22.2181,
      "duration": 0.1001,
      "velocity": 100,
      "chip": "ym2612"
    },
    {
      "channel": 4,
      "note": 62,
      "start": 22.3188,
      "duration": 0.116,
      "velocity": 100,
      "chip": "ym2612"
    },
    {
      "channel": 4,
      "note": 64,
      "start": 22.4354,
      "duration": 0.1024,
      "velocity": 100,
      "chip": "ym2612"
    },
    {
      "channel": 0,
      "note": 67,
      "start": 22.5359,
      "duration": 0.1135,
      "velocity": 106,
      "chip": "ym2612"
    },
    {
      "channel": 1,
      "note": 64,
      "start": 22.5368,
      "duration": 0.1134,
      "velocity": 106,
      "chip": "ym2612"
    },
    {
      "channel": 4,
      "note": 52,
      "start": 22.5384,
      "duration": 0.1132,
      "velocity": 100,
      "chip": "ym2612"
    },
    {
      "channel": 5,
      "note": 32,
      "start": 22.5393,
      "duration": 0.145,
      "velocity": 114,
      "chip": "ym2612"
    },
    {
      "channel": 0,
      "note": 64,
      "start": 22.6501,
      "duration": 0.1003,
      "velocity": 106,
      "chip": "ym2612"
    },
    {
      "channel": 1,
      "note": 59,
      "start": 22.6508,
      "duration": 0.0999,
      "velocity": 106,
      "chip": "ym2612"
    },
    {
      "channel": 4,
      "note": 64,
      "start": 22.7522,
      "duration": 0.1147,
      "velocity": 100,
      "chip": "ym2612"
    },
    {
      "channel": 4,
      "note": 52,
      "start": 22.8675,
      "duration": 0.1024,
      "velocity": 100,
      "chip": "ym2612"
    },
    {
      "channel": 5,
      "note": 75,
      "start": 22.9707,
      "duration": 0.212,
      "velocity": 120,
      "chip": "ym2612"
    },
    {
      "channel": 4,
      "note": 52,
      "start": 23.0841,
      "duration": 0.1032,
      "velocity": 100,
      "chip": "ym2612"
    },
    {
      "channel": 2,
      "note": 59,
      "start": 23.1863,
      "duration": 0.0634,
      "velocity": 98,
      "chip": "ym2612"
    },
    {
      "channel": 3,
      "note": 58,
      "start": 23.1871,
      "duration": 0.0628,
      "velocity": 98,
      "chip": "ym2612"
    },
    {
      "channel": 4,
      "note": 64,
      "start": 23.1879,
      "duration": 0.116,
      "velocity": 100,
      "chip": "ym2612"
    },
    {
      "channel": 5,
      "note": 48,
      "start": 23.1886,
      "duration": 0.1111,
      "velocity": 127,
      "chip": "ym2612"
    },
    {
      "channel": 2,
      "note": 59,
      "start": 23.3031,
      "duration": 0.0465,
      "velocity": 98,
      "chip": "ym2612"
    },
    {
      "channel": 3,
      "note": 58,
      "start": 23.3038,
      "duration": 0.0461,
      "velocity": 98,
      "chip": "ym2612"
    },
    {
      "channel": 4,
      "note": 52,
      "start": 23.3045,
      "duration": 0.0995,
      "velocity": 100,
      "chip": "ym2612"
    },
    {
      "channel": 5,
      "note": 48,
      "start": 23.3053,
      "duration": 0.0945,
      "velocity": 127,
      "chip": "ym2612"
    },
    {
      "channel": 2,
      "note": 59,
      "start": 23.4031,
      "duration": 0.1132,
      "velocity": 98,
      "chip": "ym2612"
    },
    {
      "channel": 3,
      "note": 58,
      "start": 23.4038,
      "duration": 0.1128,
      "velocity": 98,
      "chip": "ym2612"
    },
    {
      "channel": 5,
      "note": 48,
      "start": 23.4049,
      "duration": 0.1785,
      "velocity": 127,
      "chip": "ym2612"
    },
    {
      "channel": 4,
      "note": 52,
      "start": 23.5175,
      "duration": 0.1031,
      "velocity": 100,
      "chip": "ym2612"
    },
    {
      "channel": 2,
      "note": 59,
      "start": 23.6198,
      "duration": 0.1132,
      "velocity": 98,
      "chip": "ym2612"
    },
    {
      "channel": 3,
      "note": 58,
      "start": 23.6205,
      "duration": 0.1128,
      "velocity": 98,
      "chip": "ym2612"
    },
    {
      "channel": 4,
      "note": 64,
      "start": 23.6212,
      "duration": 0.1123,
      "velocity": 100,
      "chip": "ym2612"
    },
    {
      "channel": 5,
      "note": 48,
      "start": 23.622,
      "duration": 0.1782,
      "velocity": 127,
      "chip": "ym2612"
    },
    {
      "channel": 4,
      "note": 52,
      "start": 23.7341,
      "duration": 0.1019,
      "velocity": 100,
      "chip": "ym2612"
    },
    {
      "channel": 5,
      "note": 75,
      "start": 23.837,
      "duration": 0.1128,
      "velocity": 120,
      "chip": "ym2612"
    },
    {
      "channel": 0,
      "note": 64,
      "start": 23.9531,
      "duration": 0.0989,
      "velocity": 106,
      "chip": "ym2612"
    },
    {
      "channel": 1,
      "note": 59,
      "start": 23.9539,
      "duration": 0.0988,
      "velocity": 106,
      "chip": "ym2612"
    },
    {
      "channel": 4,
      "note": 52,
      "start": 23.9548,
      "duration": 0.0989,
      "velocity": 100,
      "chip": "ym2612"
    },
    {
      "channel": 5,
      "note": 75,
      "start": 23.9555,
      "duration": 0.0938,
      "velocity": 120,
      "chip": "ym2612"
    },
    {
      "channel": 0,
      "note": 67,
      "start": 24.0526,
      "duration": 0.116,
      "velocity": 106,
      "chip": "ym2612"
    },
    {
      "channel": 1,
      "note": 64,
      "start": 24.0534,
      "duration": 0.1161,
      "velocity": 106,
      "chip": "ym2612"
    },
    {
      "channel": 4,
      "note": 62,
      "start": 24.0543,
      "duration": 0.1161,
      "velocity": 100,
      "chip": "ym2612"
    },
    {
      "channel": 5,
      "note": 75,
      "start": 24.055,
      "duration": 0.111,
      "velocity": 120,
      "chip": "ym2612"
    },
    {
      "channel": 0,
      "note": 71,
      "start": 24.1693,
      "duration": 0.0468,
      "velocity": 106,
      "chip": "ym2612"
    },
    {
      "channel": 1,
      "note": 67,
      "start": 24.1701,
      "duration": 0.1001,
      "velocity": 106,
      "chip": "ym2612"
    },
    {
      "channel": 4,
      "note": 64,
      "start": 24.171,
      "duration": 0.1004,
      "velocity": 100,
      "chip": "ym2612"
    },
    {
      "channel": 5,
      "note": 75,
      "start": 24.1717,
      "duration": 0.095,
      "velocity": 120,
      "chip": "ym2612"
    },
    {
      "channel": 0,
      "note": 71,
      "start": 24.2699,
      "duration": 0.8638,
      "velocity": 106,
      "chip": "ym2612"
    },
    {
      "channel": 1,
      "note": 62,
      "start": 24.2708,
      "duration": 0.8637,
      "velocity": 106,
      "chip": "ym2612"
    },
    {
      "channel": 4,
      "note": 55,
      "start": 24.272,
      "duration": 0.1116,
      "velocity": 100,
      "chip": "ym2612"
    },
    {
      "channel": 5,
      "note": 32,
      "start": 24.2728,
      "duration": 0.1443,
      "velocity": 114,
      "chip": "ym2612"
    },
    {
      "channel": 4,
      "note": 67,
      "start": 24.4852,
      "duration": 0.1151,
      "velocity": 100,
      "chip": "ym2612"
    },
    {
      "channel": 4,
      "note": 55,
      "start": 24.601,
      "duration": 0.1025,
      "velocity": 100,
      "chip": "ym2612"
    },
    {
      "channel": 5,
      "note": 75,
      "start": 24.7043,
      "duration": 0.3312,
      "velocity": 120,
      "chip": "ym2612"
    },
    {
      "channel": 4,
      "note": 55,
      "start": 24.8177,
      "duration": 0.1004,
      "velocity": 100,
      "chip": "ym2612"
    },
    {
      "channel": 4,
      "note": 67,
      "start": 24.9188,
      "duration": 0.116,
      "velocity": 100,
      "chip": "ym2612"
    },
    {
      "channel": 4,
      "note": 55,
      "start": 25.0353,
      "duration": 0.1002,
      "velocity": 100,
      "chip": "ym2612"
    },
    {
      "channel": 0,
      "note": 70,
      "start": 25.1344,
      "duration": 0.4513,
      "velocity": 106,
      "chip": "ym2612"
    },
    {
      "channel": 1,
      "note": 61,
      "start": 25.1352,
      "duration": 0.4513,
      "velocity": 106,
      "chip": "ym2612"
    },
    {
      "channel": 4,
      "note": 54,
      "start": 25.2508,
      "duration": 0.1005,
      "velocity": 100,
      "chip": "ym2612"
    },
    {
      "channel": 4,
      "note": 66,
      "start": 25.3519,
      "duration": 0.117,
      "velocity": 100,
      "chip": "ym2612"
    },
    {
      "channel": 4,
      "note": 54,
      "start": 25.4695,
      "duration": 0.1185,
      "velocity": 100,
      "chip": "ym2612"
    },
    {
      "channel": 0,
      "note": 69,
      "start": 25.5864,
      "duration": 0.4323,
      "velocity": 106,
      "chip": "ym2612"
    },
    {
      "channel": 1,
      "note": 60,
      "start": 25.5871,
      "duration": 0.4323,
      "velocity": 106,
      "chip": "ym2612"
    },
    {
      "channel": 5,
      "note": 75,
      "start": 25.5889,
      "duration": 0.3134,
      "velocity": 120,
      "chip": "ym2612"
    },
    {
      "channel": 4,
      "note": 53,
      "start": 25.6847,
      "duration": 0.1168,
      "velocity": 100,
      "chip": "ym2612"
    },
    {
      "channel": 4,
      "note": 65,
      "start": 25.802,
      "duration": 0.0994,
      "velocity": 100,
      "chip": "ym2612"
    },
    {
      "channel": 4,
      "note": 53,
      "start": 25.902,
      "duration": 0.1191,
      "velocity": 100,
      "chip": "ym2612"
    },
    {
      "channel": 0,
      "note": 67,
      "start": 26.0193,
      "duration": 0.0968,
      "velocity": 106,
      "chip": "ym2612"
    },
    {
      "channel": 1,
      "note": 59,
      "start": 26.0201,
      "duration": 0.0968,
      "velocity": 106,
      "chip": "ym2612"
    },
    {
      "channel": 4,
      "note": 52,
      "start": 26.0217,
      "duration": 0.0966,
      "velocity": 100,
      "chip": "ym2612"
    },
    {
      "channel": 5,
      "note": 32,
      "start": 26.0225,
      "duration": 0.1284,
      "velocity": 114,
      "chip": "ym2612"
    },
    {
      "channel": 0,
      "note": 64,
      "start": 26.1167,
      "duration": 0.117,
      "velocity": 106,
      "chip": "ym2612"
    },
    {
      "channel": 1,
      "note": 55,
      "start": 26.1176,
      "duration": 0.1165,
      "velocity": 106,
      "chip": "ym2612"
    },
    {
      "channel": 4,
      "note": 64,
      "start": 26.2356,
      "duration": 0.098,
      "velocity": 100,
      "chip": "ym2612"
    },
    {
      "channel": 4,
      "note": 52,
      "start": 26.3341,
      "duration": 0.119,
      "velocity": 100,
      "chip": "ym2612"
    },
    {
      "channel": 5,
      "note": 75,
      "start": 26.4541,
      "duration": 0.212,
      "velocity": 120,
      "chip": "ym2612"
    },
    {
      "channel": 4,
      "note": 52,
      "start": 26.5508,
      "duration": 0.1196,
      "velocity": 100,
      "chip": "ym2612"
    },
    {
      "channel": 2,
      "note": 59,
      "start": 26.6695,
      "duration": 0.0468,
      "velocity": 98,
      "chip": "ym2612"
    },
    {
      "channel": 3,
      "note": 58,
      "start": 26.6703,
      "duration": 0.0463,
      "velocity": 98,
      "chip": "ym2612"
    },
    {
      "channel": 4,
      "note": 64,
      "start": 26.671,
      "duration": 0.0996,
      "velocity": 100,
      "chip": "ym2612"
    },
    {
      "channel": 5,
      "note": 48,
      "start": 26.6717,
      "duration": 0.0947,
      "velocity": 127,
      "chip": "ym2612"
    },
    {
      "channel": 2,
      "note": 59,
      "start": 26.7698,
      "duration": 0.0465,
      "velocity": 98,
      "chip": "ym2612"
    },
    {
      "channel": 3,
      "note": 58,
      "start": 26.7705,
      "duration": 0.0461,
      "velocity": 98,
      "chip": "ym2612"
    },
    {
      "channel": 4,
      "note": 52,
      "start": 26.7712,
      "duration": 0.1162,
      "velocity": 100,
      "chip": "ym2612"
    },
    {
      "channel": 5,
      "note": 48,
      "start": 26.772,
      "duration": 0.1111,
      "velocity": 127,
      "chip": "ym2612"
    },
    {
      "channel": 2,
      "note": 59,
      "start": 26.8864,
      "duration": 0.0965,
      "velocity": 98,
      "chip": "ym2612"
    },
    {
      "channel": 3,
      "note": 58,
      "start": 26.8871,
      "duration": 0.0961,
      "velocity": 98,
      "chip": "ym2612"
    },
    {
      "channel": 5,
      "note": 48,
      "start": 26.8882,
      "duration": 0.1619,
      "velocity": 127,
      "chip": "ym2612"
    },
    {
      "channel": 4,
      "note": 52,
      "start": 26.9841,
      "duration": 0.1199,
      "velocity": 100,
      "chip": "ym2612"
    },
    {
      "channel": 2,
      "note": 59,
      "start": 27.1031,
      "duration": 0.0985,
      "velocity": 106,
      "chip": "ym2612"
    },
    {
      "channel": 3,
      "note": 58,
      "start": 27.1038,
      "duration": 0.1004,
      "velocity": 106,
      "chip": "ym2612"
    },
    {
      "channel": 4,
      "note": 64,
      "start": 27.1046,
      "duration": 0.0999,
      "velocity": 100,
      "chip": "ym2612"
    },
    {
      "channel": 5,
      "note": 48,
      "start": 27.1053,
      "duration": 0.1615,
      "velocity": 127,
      "chip": "ym2612"
    },
    {
      "channel": 4,
      "note": 52,
      "start": 27.2051,
      "duration": 0.1143,
      "velocity": 100,
      "chip": "ym2612"
    },
    {
      "channel": 5,
      "note": 75,
      "start": 27.3203,
      "duration": 0.0961,
      "velocity": 120,
      "chip": "ym2612"
    },
    {
      "channel": 0,
      "note": 64,
      "start": 27.4197,
      "duration": 0.1156,
      "velocity": 106,
      "chip": "ym2612"
    },
    {
      "channel": 1,
      "note": 55,
      "start": 27.4205,
      "duration": 0.1156,
      "velocity": 106,
      "chip": "ym2612"
    },
    {
      "channel": 4,
      "note": 52,
      "start": 27.4214,
      "duration": 0.1157,
      "velocity": 100,
      "chip": "ym2612"
    },
    {
      "channel": 5,
      "note": 75,
      "start": 27.4221,
      "duration": 0.1106,
      "velocity": 120,
      "chip": "ym2612"
    },
    {
      "channel": 0,
      "note": 67,
      "start": 27.5359,
      "duration": 0.0994,
      "velocity": 106,
      "chip": "ym2612"
    },
    {
      "channel": 1,
      "note": 59,
      "start": 27.5368,
      "duration": 0.0994,
      "velocity": 106,
      "chip": "ym2612"
    },
    {
      "channel": 4,
      "note": 62,
      "start": 27.5377,
      "duration": 0.0994,
      "velocity": 100,
      "chip": "ym2612"
    },
    {
      "channel": 5,
      "note": 75,
      "start": 27.5383,
      "duration": 0.0944,
      "velocity": 120,
      "chip": "ym2612"
    },
    {
      "channel": 0,
      "note": 71,
      "start": 27.6359,
      "duration": 0.0468,
      "velocity": 106,
      "chip": "ym2612"
    },
    {
      "channel": 1,
      "note": 62,
      "start": 27.6368,
      "duration": 0.0463,
      "velocity": 106,
      "chip": "ym2612"
    },
    {
      "channel": 4,
      "note": 64,
      "start": 27.6377,
      "duration": 0.1168,
      "velocity": 100,
      "chip": "ym2612"
    },
    {
      "channel": 5,
      "note": 75,
      "start": 27.6383,
      "duration": 0.1116,
      "velocity": 120,
      "chip": "ym2612"
    },
    {
      "channel": 0,
      "note": 71,
      "start": 27.7532,
      "duration": 0.8638,
      "velocity": 106,
      "chip": "ym2612"
    },
    {
      "channel": 1,
      "note": 62,
      "start": 27.754,
      "duration": 0.8639,
      "velocity": 106,
      "chip": "ym2612"
    },
    {
      "channel": 4,
      "note": 55,
      "start": 27.7551,
      "duration": 0.0952,
      "velocity": 100,
      "chip": "ym2612"
    },
    {
      "channel": 5,
      "note": 32,
      "start": 27.7559,
      "duration": 0.1278,
      "velocity": 114,
      "chip": "ym2612"
    },
    {
      "channel": 4,
      "note": 67,
      "start": 27.9686,
      "duration": 0.0985,
      "velocity": 100,
      "chip": "ym2612"
    },
    {
      "channel": 4,
      "note": 55,
      "start": 28.0676,
      "duration": 0.1191,
      "velocity": 100,
      "chip": "ym2612"
    },
    {
      "channel": 5,
      "note": 75,
      "start": 28.1877,
      "duration": 0.3146,
      "velocity": 120,
      "chip": "ym2612"
    },
    {
      "channel": 4,
      "note": 55,
      "start": 28.2844,
      "duration": 0.1171,
      "velocity": 100,
      "chip": "ym2612"
    },
    {
      "channel": 4,
      "note": 67,
      "start": 28.402,
      "duration": 0.0994,
      "velocity": 100,
      "chip": "ym2612"
    },
    {
      "channel": 4,
      "note": 55,
      "start": 28.502,
      "duration": 0.1168,
      "velocity": 100,
      "chip": "ym2612"
    },
    {
      "channel": 0,
      "note": 70,
      "start": 28.6177,
      "duration": 0.4346,
      "velocity": 106,
      "chip": "ym2612"
    },
    {
      "channel": 1,
      "note": 61,
      "start": 28.6185,
      "duration": 0.4347,
      "velocity": 106,
      "chip": "ym2612"
    },
    {
      "channel": 4,
      "note": 54,
      "start": 28.7175,
      "duration": 0.1172,
      "velocity": 100,
      "chip": "ym2612"
    },
    {
      "channel": 4,
      "note": 66,
      "start": 28.8352,
      "duration": 0.1003,
      "velocity": 100,
      "chip": "ym2612"
    },
    {
      "channel": 4,
      "note": 54,
      "start": 28.9361,
      "duration": 0.1185,
      "velocity": 100,
      "chip": "ym2612"
    },
    {
      "channel": 0,
      "note": 69,
      "start": 29.053,
      "duration": 0.4323,
      "velocity": 106,
      "chip": "ym2612"
    },
    {
      "channel": 1,
      "note": 60,
      "start": 29.0538,
      "duration": 0.4323,
      "velocity": 106,
      "chip": "ym2612"
    },
    {
      "channel": 5,
      "note": 75,
      "start": 29.0555,
      "duration": 0.3134,
      "velocity": 120,
      "chip": "ym2612"
    },
    {
      "channel": 4,
      "note": 53,
      "start": 29.1515,
      "duration": 0.1167,
      "velocity": 100,
      "chip": "ym2612"
    },
    {
      "channel": 4,
      "note": 65,
      "start": 29.2687,
      "duration": 0.0994,
      "velocity": 100,
      "chip": "ym2612"
    },
    {
      "channel": 4,
      "note": 53,
      "start": 29.3687,
      "duration": 0.1191,
      "velocity": 100,
      "chip": "ym2612"
    },
    {
      "channel": 0,
      "note": 67,
      "start": 29.4859,
      "duration": 0.0969,
      "velocity": 106,
      "chip": "ym2612"
    },
    {
      "channel": 1,
      "note": 59,
      "start": 29.4868,
      "duration": 0.097,
      "velocity": 106,
      "chip": "ym2612"
    },
    {
      "channel": 4,
      "note": 52,
      "start": 29.4883,
      "duration": 0.0968,
      "velocity": 100,
      "chip": "ym2612"
    },
    {
      "channel": 5,
      "note": 32,
      "start": 29.4892,
      "duration": 0.1284,
      "velocity": 114,
      "chip": "ym2612"
    },
    {
      "channel": 0,
      "note": 76,
      "start": 29.5835,
      "duration": 0.1169,
      "velocity": 106,
      "chip": "ym2612"
    },
    {
      "channel": 1,
      "note": 67,
      "start": 29.5844,
      "duration": 0.1163,
      "velocity": 106,
      "chip": "ym2612"
    },
    {
      "channel": 4,
      "note": 64,
      "start": 29.7023,
      "duration": 0.0981,
      "velocity": 100,
      "chip": "ym2612"
    },
    {
      "channel": 4,
      "note": 52,
      "start": 29.801,
      "duration": 0.1204,
      "velocity": 100,
      "chip": "ym2612"
    },
    {
      "channel": 2,
      "note": 67,
      "start": 29.9202,
      "duration": 0.0963,
      "velocity": 106,
      "chip": "ym2612"
    },
    {
      "channel": 3,
      "note": 59,
      "start": 29.9212,
      "duration": 0.0959,
      "velocity": 106,
      "chip": "ym2612"
    },
    {
      "channel": 5,
      "note": 75,
      "start": 29.9223,
      "duration": 0.2108,
      "velocity": 120,
      "chip": "ym2612"
    },
    {
      "channel": 2,
      "note": 76,
      "start": 30.017,
      "duration": 0.1189,
      "velocity": 106,
      "chip": "ym2612"
    },
    {
      "channel": 3,
      "note": 67,
      "start": 30.0177,
      "duration": 0.1185,
      "velocity": 106,
      "chip": "ym2612"
    },
    {
      "channel": 4,
      "note": 52,
      "start": 30.0184,
      "duration": 0.1181,
      "velocity": 100,
      "chip": "ym2612"
    },
    {
      "channel": 4,
      "note": 64,
      "start": 30.1371,
      "duration": 0.099,
      "velocity": 100,
      "chip": "ym2612"
    },
    {
      "channel": 5,
      "note": 59,
      "start": 30.138,
      "duration": 0.0951,
      "velocity": 117,
      "chip": "ym2612"
    },
    {
      "channel": 4,
      "note": 52,
      "start": 30.2366,
      "duration": 0.1181,
      "velocity": 100,
      "chip": "ym2612"
    },
    {
      "channel": 5,
      "note": 59,
      "start": 30.2375,
      "duration": 0.1123,
      "velocity": 117,
      "chip": "ym2612"
    },
    {
      "channel": 2,
      "note": 67,
      "start": 30.3535,
      "duration": 0.0963,
      "velocity": 106,
      "chip": "ym2612"
    },
    {
      "channel": 3,
      "note": 59,
      "start": 30.3546,
      "duration": 0.0959,
      "velocity": 106,
      "chip": "ym2612"
    },
    {
      "channel": 5,
      "note": 54,
      "start": 30.3559,
      "duration": 0.2106,
      "velocity": 117,
      "chip": "ym2612"
    },
    {
      "channel": 2,
      "note": 76,
      "start": 30.4503,
      "duration": 0.1189,
      "velocity": 106,
      "chip": "ym2612"
    },
    {
      "channel": 3,
      "note": 67,
      "start": 30.451,
      "duration": 0.1185,
      "velocity": 106,
      "chip": "ym2612"
    },
    {
      "channel": 4,
      "note": 52,
      "start": 30.4517,
      "duration": 0.1181,
      "velocity": 100,
      "chip": "ym2612"
    },
    {
      "channel": 4,
      "note": 64,
      "start": 30.5704,
      "duration": 0.0961,
      "velocity": 100,
      "chip": "ym2612"
    },
    {
      "channel": 5,
      "note": 50,
      "start": 30.5714,
      "duration": 0.3148,
      "velocity": 117,
      "chip": "ym2612"
    },
    {
      "channel": 4,
      "note": 52,
      "start": 30.6671,
      "duration": 0.1194,
      "velocity": 100,
      "chip": "ym2612"
    },
    {
      "channel": 0,
      "note": 59,
      "start": 30.8839,
      "duration": 0.1185,
      "velocity": 106,
      "chip": "ym2612"
    },
    {
      "channel": 1,
      "note": 57,
      "start": 30.8851,
      "duration": 0.1181,
      "velocity": 106,
      "chip": "ym2612"
    },
    {
      "channel": 4,
      "note": 52,
      "start": 30.8859,
      "duration": 0.1182,
      "velocity": 100,
      "chip": "ym2612"
    },
    {
      "channel": 0,
      "note": 62,
      "start": 31.003,
      "duration": 0.099,
      "velocity": 106,
      "chip": "ym2612"
    },
    {
      "channel": 1,
      "note": 59,
      "start": 31.0038,
      "duration": 0.0989,
      "velocity": 106,
      "chip": "ym2612"
    },
    {
      "channel": 4,
      "note": 62,
      "start": 31.0047,
      "duration": 0.099,
      "velocity": 100,
      "chip": "ym2612"
    },
    {
      "channel": 5,
      "note": 75,
      "start": 31.0054,
      "duration": 0.094,
      "velocity": 120,
      "chip": "ym2612"
    },
    {
      "channel": 0,
      "note": 64,
      "start": 31.1026,
      "duration": 0.1165,
      "velocity": 106,
      "chip": "ym2612"
    },
    {
      "channel": 1,
      "note": 62,
      "start": 31.1034,
      "duration": 0.1167,
      "velocity": 106,
      "chip": "ym2612"
    },
    {
      "channel": 4,
      "note": 64,
      "start": 31.1043,
      "duration": 0.1178,
      "velocity": 100,
      "chip": "ym2612"
    },
    {
      "channel": 5,
      "note": 75,
      "start": 31.105,
      "duration": 0.1113,
      "velocity": 120,
      "chip": "ym2612"
    },
    {
      "channel": 0,
      "note": 67,
      "start": 31.2197,
      "duration": 0.0025,
      "velocity": 106,
      "chip": "ym2612"
    },
    {
      "channel": 1,
      "note": 64,
      "start": 31.2207,
      "duration": 0.0015,
      "velocity": 106,
      "chip": "ym2612"
    }
  ]
}