{
  "track_name": "04 - New York by Day",
  "duration_sec": 103.597,
  "sample_rate": 44100,
  "note_count": 1247,
  "unique_pitches": 24,
  "pitch_range": 38,
  "avg_note_duration": 0.1298,
  "reconstruction_stats": {
    "notes_reconstructed": 1247,
    "keyon_events": 1247,
    "keyoff_events": 1247,
    "orphan_keyons": 0,
    "unique_pitches": 24,
    "pitch_range": 38,
    "avg_duration_sec": 0.1298
  },
  "metadata": {
    "source": "H\\Home Alone 2\\04 - New York by Day.vgz"
  },
  "notes": [
    {
      "channel": 2,
      "note": 57,
      "start": 0.026,
      "duration": 0.5122,
      "velocity": 108,
      "chip": "ym2612"
    },
    {
      "channel": 3,
      "note": 84,
      "start": 0.03,
      "duration": 0.0292,
      "velocity": 124,
      "chip": "ym2612"
    },
    {
      "channel": 0,
      "note": 81,
      "start": 0.0421,
      "duration": 1.1351,
      "velocity": 127,
      "chip": "ym2612"
    },
    {
      "channel": 1,
      "note": 88,
      "start": 0.0456,
      "duration": 1.1318,
      "velocity": 127,
      "chip": "ym2612"
    },
    {
      "channel": 3,
      "note": 85,
      "start": 0.1714,
      "duration": 0.0799,
      "velocity": 124,
      "chip": "ym2612"
    },
    {
      "channel": 3,
      "note": 84,
      "start": 0.2719,
      "duration": 0.0796,
      "velocity": 124,
      "chip": "ym2612"
    },
    {
      "channel": 3,
      "note": 85,
      "start": 0.4906,
      "duration": 0.0141,
      "velocity": 124,
      "chip": "ym2612"
    },
    {
      "channel": 3,
      "note": 84,
      "start": 0.5437,
      "duration": 0.0077,
      "velocity": 124,
      "chip": "ym2612"
    },
    {
      "channel": 3,
      "note": 85,
      "start": 0.6212,
      "duration": 0.0634,
      "velocity": 124,
      "chip": "ym2612"
    },
    {
      "channel": 3,
      "note": 84,
      "start": 0.7214,
      "duration": 0.0632,
      "velocity": 124,
      "chip": "ym2612"
    },
    {
      "channel": 2,
      "note": 55,
      "start": 0.9241,
      "duration": 0.047,
      "velocity": 108,
      "chip": "ym2612"
    },
    {
      "channel": 3,
      "note": 85,
      "start": 0.9266,
      "duration": 0.011,
      "velocity": 124,
      "chip": "ym2612"
    },
    {
      "channel": 2,
      "note": 57,
      "start": 0.9769,
      "duration": 0.1475,
      "velocity": 108,
      "chip": "ym2612"
    },
    {
      "channel": 3,
      "note": 84,
      "start": 0.9795,
      "duration": 0.0112,
      "velocity": 124,
      "chip": "ym2612"
    },
    {
      "channel": 3,
      "note": 85,
      "start": 1.13,
      "duration": 0.0139,
      "velocity": 124,
      "chip": "ym2612"
    },
    {
      "channel": 2,
      "note": 57,
      "start": 1.1834,
      "duration": 0.2474,
      "velocity": 108,
      "chip": "ym2612"
    },
    {
      "channel": 3,
      "note": 84,
      "start": 1.1861,
      "duration": 0.011,
      "velocity": 124,
      "chip": "ym2612"
    },
    {
      "channel": 3,
      "note": 85,
      "start": 1.3341,
      "duration": 0.0633,
      "velocity": 124,
      "chip": "ym2612"
    },
    {
      "channel": 3,
      "note": 84,
      "start": 1.4367,
      "duration": 0.0074,
      "velocity": 124,
      "chip": "ym2612"
    },
    {
      "channel": 3,
      "note": 85,
      "start": 1.5137,
      "duration": 0.0632,
      "velocity": 124,
      "chip": "ym2612"
    },
    {
      "channel": 3,
      "note": 84,
      "start": 1.6138,
      "duration": 0.0633,
      "velocity": 124,
      "chip": "ym2612"
    },
    {
      "channel": 3,
      "note": 85,
      "start": 1.8141,
      "duration": 0.0632,
      "velocity": 124,
      "chip": "ym2612"
    },
    {
      "channel": 2,
      "note": 57,
      "start": 1.9165,
      "duration": 0.548,
      "velocity": 108,
      "chip": "ym2612"
    },
    {
      "channel": 3,
      "note": 84,
      "start": 1.9191,
      "duration": 0.0113,
      "velocity": 124,
      "chip": "ym2612"
    },
    {
      "channel": 3,
      "note": 85,
      "start": 2.0674,
      "duration": 0.0798,
      "velocity": 124,
      "chip": "ym2612"
    },
    {
      "channel": 3,
      "note": 84,
      "start": 2.168,
      "duration": 0.0794,
      "velocity": 124,
      "chip": "ym2612"
    },
    {
      "channel": 3,
      "note": 85,
      "start": 2.3678,
      "duration": 0.08,
      "velocity": 124,
      "chip": "ym2612"
    },
    {
      "channel": 3,
      "note": 84,
      "start": 2.4701,
      "duration": 0.0097,
      "velocity": 124,
      "chip": "ym2612"
    },
    {
      "channel": 3,
      "note": 85,
      "start": 2.5472,
      "duration": 0.08,
      "velocity": 124,
      "chip": "ym2612"
    },
    {
      "channel": 3,
      "note": 84,
      "start": 2.6473,
      "duration": 0.08,
      "velocity": 124,
      "chip": "ym2612"
    },
    {
      "channel": 2,
      "note": 55,
      "start": 2.8498,
      "duration": 0.0473,
      "velocity": 108,
      "chip": "ym2612"
    },
    {
      "channel": 3,
      "note": 85,
      "start": 2.8524,
      "duration": 0.0278,
      "velocity": 124,
      "chip": "ym2612"
    },
    {
      "channel": 2,
      "note": 57,
      "start": 2.903,
      "duration": 0.1474,
      "velocity": 108,
      "chip": "ym2612"
    },
    {
      "channel": 3,
      "note": 84,
      "start": 2.9057,
      "duration": 0.0278,
      "velocity": 124,
      "chip": "ym2612"
    },
    {
      "channel": 0,
      "note": 79,
      "start": 2.9084,
      "duration": 0.7302,
      "velocity": 127,
      "chip": "ym2612"
    },
    {
      "channel": 1,
      "note": 84,
      "start": 2.9109,
      "duration": 0.7279,
      "velocity": 127,
      "chip": "ym2612"
    },
    {
      "channel": 3,
      "note": 85,
      "start": 3.056,
      "duration": 0.0308,
      "velocity": 124,
      "chip": "ym2612"
    },
    {
      "channel": 2,
      "note": 57,
      "start": 3.1092,
      "duration": 0.1475,
      "velocity": 108,
      "chip": "ym2612"
    },
    {
      "channel": 3,
      "note": 84,
      "start": 3.1118,
      "duration": 0.028,
      "velocity": 124,
      "chip": "ym2612"
    },
    {
      "channel": 3,
      "note": 85,
      "start": 3.2601,
      "duration": 0.0799,
      "velocity": 124,
      "chip": "ym2612"
    },
    {
      "channel": 2,
      "note": 60,
      "start": 3.3626,
      "duration": 0.2765,
      "velocity": 108,
      "chip": "ym2612"
    },
    {
      "channel": 3,
      "note": 84,
      "start": 3.3651,
      "duration": 0.0088,
      "velocity": 124,
      "chip": "ym2612"
    },
    {
      "channel": 3,
      "note": 85,
      "start": 3.4417,
      "duration": 0.0309,
      "velocity": 124,
      "chip": "ym2612"
    },
    {
      "channel": 3,
      "note": 84,
      "start": 3.4953,
      "duration": 0.0096,
      "velocity": 124,
      "chip": "ym2612"
    },
    {
      "channel": 3,
      "note": 85,
      "start": 3.591,
      "duration": 0.0144,
      "velocity": 124,
      "chip": "ym2612"
    },
    {
      "channel": 2,
      "note": 57,
      "start": 3.6448,
      "duration": 0.548,
      "velocity": 108,
      "chip": "ym2612"
    },
    {
      "channel": 3,
      "note": 84,
      "start": 3.6475,
      "duration": 0.0113,
      "velocity": 124,
      "chip": "ym2612"
    },
    {
      "channel": 0,
      "note": 81,
      "start": 3.65,
      "duration": 0.9752,
      "velocity": 127,
      "chip": "ym2612"
    },
    {
      "channel": 1,
      "note": 76,
      "start": 3.6526,
      "duration": 0.9732,
      "velocity": 127,
      "chip": "ym2612"
    },
    {
      "channel": 3,
      "note": 85,
      "start": 3.7956,
      "duration": 0.0632,
      "velocity": 124,
      "chip": "ym2612"
    },
    {
      "channel": 3,
      "note": 84,
      "start": 3.8962,
      "duration": 0.0628,
      "velocity": 124,
      "chip": "ym2612"
    },
    {
      "channel": 3,
      "note": 85,
      "start": 4.096,
      "duration": 0.0634,
      "velocity": 124,
      "chip": "ym2612"
    },
    {
      "channel": 3,
      "note": 84,
      "start": 4.1984,
      "duration": 0.0078,
      "velocity": 124,
      "chip": "ym2612"
    },
    {
      "channel": 3,
      "note": 85,
      "start": 4.276,
      "duration": 0.0634,
      "velocity": 124,
      "chip": "ym2612"
    },
    {
      "channel": 3,
      "note": 84,
      "start": 4.3761,
      "duration": 0.0632,
      "velocity": 124,
      "chip": "ym2612"
    },
    {
      "channel": 2,
      "note": 55,
      "start": 4.5788,
      "duration": 0.0472,
      "velocity": 108,
      "chip": "ym2612"
    },
    {
      "channel": 3,
      "note": 85,
      "start": 4.5813,
      "duration": 0.0111,
      "velocity": 124,
      "chip": "ym2612"
    },
    {
      "channel": 2,
      "note": 57,
      "start": 4.6318,
      "duration": 0.1469,
      "velocity": 108,
      "chip": "ym2612"
    },
    {
      "channel": 3,
      "note": 84,
      "start": 4.6344,
      "duration": 0.0107,
      "velocity": 124,
      "chip": "ym2612"
    },
    {
      "channel": 3,
      "note": 85,
      "start": 4.7842,
      "duration": 0.0139,
      "velocity": 124,
      "chip": "ym2612"
    },
    {
      "channel": 4,
      "note": 81,
      "start": 4.787,
      "duration": 0.0537,
      "velocity": 106,
      "chip": "ym2612"
    },
    {
      "channel": 0,
      "note": 84,
      "start": 4.7895,
      "duration": 0.0512,
      "velocity": 106,
      "chip": "ym2612"
    },
    {
      "channel": 2,
      "note": 57,
      "start": 4.8373,
      "duration": 0.2476,
      "velocity": 108,
      "chip": "ym2612"
    },
    {
      "channel": 3,
      "note": 84,
      "start": 4.84,
      "duration": 0.0111,
      "velocity": 124,
      "chip": "ym2612"
    },
    {
      "channel": 3,
      "note": 85,
      "start": 4.9881,
      "duration": 0.0632,
      "velocity": 124,
      "chip": "ym2612"
    },
    {
      "channel": 3,
      "note": 84,
      "start": 5.0908,
      "duration": 0.0113,
      "velocity": 124,
      "chip": "ym2612"
    },
    {
      "channel": 0,
      "note": 81,
      "start": 5.0937,
      "duration": 0.0702,
      "velocity": 106,
      "chip": "ym2612"
    },
    {
      "channel": 4,
      "note": 84,
      "start": 5.096,
      "duration": 0.0684,
      "velocity": 106,
      "chip": "ym2612"
    },
    {
      "channel": 3,
      "note": 85,
      "start": 5.168,
      "duration": 0.0798,
      "velocity": 124,
      "chip": "ym2612"
    },
    {
      "channel": 3,
      "note": 84,
      "start": 5.268,
      "duration": 0.08,
      "velocity": 124,
      "chip": "ym2612"
    },
    {
      "channel": 3,
      "note": 85,
      "start": 5.4702,
      "duration": 0.0307,
      "velocity": 124,
      "chip": "ym2612"
    },
    {
      "channel": 2,
      "note": 57,
      "start": 5.5236,
      "duration": 0.5478,
      "velocity": 108,
      "chip": "ym2612"
    },
    {
      "channel": 3,
      "note": 84,
      "start": 5.5262,
      "duration": 0.0278,
      "velocity": 124,
      "chip": "ym2612"
    },
    {
      "channel": 3,
      "note": 85,
      "start": 5.6744,
      "duration": 0.0798,
      "velocity": 124,
      "chip": "ym2612"
    },
    {
      "channel": 3,
      "note": 84,
      "start": 5.7748,
      "duration": 0.0796,
      "velocity": 124,
      "chip": "ym2612"
    },
    {
      "channel": 3,
      "note": 85,
      "start": 5.9748,
      "duration": 0.0798,
      "velocity": 124,
      "chip": "ym2612"
    },
    {
      "channel": 2,
      "note": 60,
      "start": 6.0772,
      "duration": 0.427,
      "velocity": 108,
      "chip": "ym2612"
    },
    {
      "channel": 3,
      "note": 84,
      "start": 6.0795,
      "duration": 0.0091,
      "velocity": 124,
      "chip": "ym2612"
    },
    {
      "channel": 3,
      "note": 85,
      "start": 6.1541,
      "duration": 0.08,
      "velocity": 124,
      "chip": "ym2612"
    },
    {
      "channel": 3,
      "note": 84,
      "start": 6.2542,
      "duration": 0.08,
      "velocity": 124,
      "chip": "ym2612"
    },
    {
      "channel": 3,
      "note": 85,
      "start": 6.4565,
      "duration": 0.0307,
      "velocity": 124,
      "chip": "ym2612"
    },
    {
      "channel": 1,
      "note": 76,
      "start": 6.4594,
      "duration": 0.0446,
      "velocity": 104,
      "chip": "ym2612"
    },
    {
      "channel": 2,
      "note": 59,
      "start": 6.51,
      "duration": 0.4707,
      "velocity": 108,
      "chip": "ym2612"
    },
    {
      "channel": 3,
      "note": 84,
      "start": 6.5126,
      "duration": 0.0283,
      "velocity": 124,
      "chip": "ym2612"
    },
    {
      "channel": 1,
      "note": 71,
      "start": 6.5151,
      "duration": 0.0425,
      "velocity": 104,
      "chip": "ym2612"
    },
    {
      "channel": 3,
      "note": 85,
      "start": 6.6632,
      "duration": 0.0307,
      "velocity": 124,
      "chip": "ym2612"
    },
    {
      "channel": 3,
      "note": 84,
      "start": 6.7145,
      "duration": 0.0796,
      "velocity": 124,
      "chip": "ym2612"
    },
    {
      "channel": 1,
      "note": 71,
      "start": 6.7174,
      "duration": 0.0932,
      "velocity": 104,
      "chip": "ym2612"
    },
    {
      "channel": 3,
      "note": 85,
      "start": 6.9332,
      "duration": 0.0141,
      "velocity": 124,
      "chip": "ym2612"
    },
    {
      "channel": 2,
      "note": 62,
      "start": 6.9868,
      "duration": 0.2061,
      "velocity": 108,
      "chip": "ym2612"
    },
    {
      "channel": 3,
      "note": 84,
      "start": 6.9893,
      "duration": 0.0087,
      "velocity": 124,
      "chip": "ym2612"
    },
    {
      "channel": 1,
      "note": 71,
      "start": 6.9917,
      "duration": 0.0685,
      "velocity": 104,
      "chip": "ym2612"
    },
    {
      "channel": 3,
      "note": 85,
      "start": 7.066,
      "duration": 0.0137,
      "velocity": 124,
      "chip": "ym2612"
    },
    {
      "channel": 1,
      "note": 72,
      "start": 7.0688,
      "duration": 0.0655,
      "velocity": 104,
      "chip": "ym2612"
    },
    {
      "channel": 3,
      "note": 84,
      "start": 7.1187,
      "duration": 0.0112,
      "velocity": 124,
      "chip": "ym2612"
    },
    {
      "channel": 0,
      "note": 76,
      "start": 7.1215,
      "duration": 0.0705,
      "velocity": 106,
      "chip": "ym2612"
    },
    {
      "channel": 4,
      "note": 81,
      "start": 7.1239,
      "duration": 0.0688,
      "velocity": 106,
      "chip": "ym2612"
    },
    {
      "channel": 3,
      "note": 85,
      "start": 7.1984,
      "duration": 0.0075,
      "velocity": 124,
      "chip": "ym2612"
    },
    {
      "channel": 2,
      "note": 57,
      "start": 7.2172,
      "duration": 0.5455,
      "velocity": 108,
      "chip": "ym2612"
    },
    {
      "channel": 3,
      "note": 84,
      "start": 7.2198,
      "duration": 0.0118,
      "velocity": 124,
      "chip": "ym2612"
    },
    {
      "channel": 1,
      "note": 88,
      "start": 7.2224,
      "duration": 1.1789,
      "velocity": 127,
      "chip": "ym2612"
    },
    {
      "channel": 0,
      "note": 81,
      "start": 7.2251,
      "duration": 1.1761,
      "velocity": 127,
      "chip": "ym2612"
    },
    {
      "channel": 3,
      "note": 85,
      "start": 7.3655,
      "duration": 0.0632,
      "velocity": 124,
      "chip": "ym2612"
    },
    {
      "channel": 3,
      "note": 84,
      "start": 7.4661,
      "duration": 0.0628,
      "velocity": 124,
      "chip": "ym2612"
    },
    {
      "channel": 3,
      "note": 85,
      "start": 7.6659,
      "duration": 0.0632,
      "velocity": 124,
      "chip": "ym2612"
    },
    {
      "channel": 2,
      "note": 64,
      "start": 7.7685,
      "duration": 0.4268,
      "velocity": 108,
      "chip": "ym2612"
    },
    {
      "channel": 3,
      "note": 84,
      "start": 7.7708,
      "duration": 0.007,
      "velocity": 124,
      "chip": "ym2612"
    },
    {
      "channel": 3,
      "note": 85,
      "start": 7.8454,
      "duration": 0.0633,
      "velocity": 124,
      "chip": "ym2612"
    },
    {
      "channel": 3,
      "note": 84,
      "start": 7.9455,
      "duration": 0.0632,
      "velocity": 124,
      "chip": "ym2612"
    },
    {
      "channel": 3,
      "note": 85,
      "start": 8.1478,
      "duration": 0.0139,
      "velocity": 124,
      "chip": "ym2612"
    },
    {
      "channel": 2,
      "note": 62,
      "start": 8.2012,
      "duration": 0.3534,
      "velocity": 108,
      "chip": "ym2612"
    },
    {
      "channel": 3,
      "note": 84,
      "start": 8.2038,
      "duration": 0.011,
      "velocity": 124,
      "chip": "ym2612"
    },
    {
      "channel": 3,
      "note": 85,
      "start": 8.3543,
      "duration": 0.0304,
      "velocity": 124,
      "chip": "ym2612"
    },
    {
      "channel": 3,
      "note": 84,
      "start": 8.4073,
      "duration": 0.0304,
      "velocity": 124,
      "chip": "ym2612"
    },
    {
      "channel": 2,
      "note": 60,
      "start": 8.5584,
      "duration": 0.0964,
      "velocity": 108,
      "chip": "ym2612"
    },
    {
      "channel": 3,
      "note": 85,
      "start": 8.5614,
      "duration": 0.0764,
      "velocity": 124,
      "chip": "ym2612"
    },
    {
      "channel": 3,
      "note": 84,
      "start": 8.6604,
      "duration": 0.0097,
      "velocity": 124,
      "chip": "ym2612"
    },
    {
      "channel": 2,
      "note": 59,
      "start": 8.7376,
      "duration": 0.0967,
      "velocity": 108,
      "chip": "ym2612"
    },
    {
      "channel": 3,
      "note": 85,
      "start": 8.7407,
      "duration": 0.0768,
      "velocity": 124,
      "chip": "ym2612"
    },
    {
      "channel": 3,
      "note": 84,
      "start": 8.8378,
      "duration": 0.0798,
      "velocity": 124,
      "chip": "ym2612"
    },
    {
      "channel": 2,
      "note": 59,
      "start": 9.0385,
      "duration": 0.0961,
      "velocity": 108,
      "chip": "ym2612"
    },
    {
      "channel": 3,
      "note": 85,
      "start": 9.0416,
      "duration": 0.0763,
      "velocity": 124,
      "chip": "ym2612"
    },
    {
      "channel": 2,
      "note": 57,
      "start": 9.1402,
      "duration": 0.5479,
      "velocity": 108,
      "chip": "ym2612"
    },
    {
      "channel": 3,
      "note": 84,
      "start": 9.1428,
      "duration": 0.0279,
      "velocity": 124,
      "chip": "ym2612"
    },
    {
      "channel": 3,
      "note": 85,
      "start": 9.2912,
      "duration": 0.0798,
      "velocity": 124,
      "chip": "ym2612"
    },
    {
      "channel": 3,
      "note": 84,
      "start": 9.3916,
      "duration": 0.0796,
      "velocity": 124,
      "chip": "ym2612"
    },
    {
      "channel": 3,
      "note": 85,
      "start": 9.5916,
      "duration": 0.0798,
      "velocity": 124,
      "chip": "ym2612"
    },
    {
      "channel": 2,
      "note": 64,
      "start": 9.6938,
      "duration": 0.4436,
      "velocity": 108,
      "chip": "ym2612"
    },
    {
      "channel": 3,
      "note": 84,
      "start": 9.696,
      "duration": 0.0091,
      "velocity": 124,
      "chip": "ym2612"
    },
    {
      "channel": 3,
      "note": 85,
      "start": 9.7704,
      "duration": 0.08,
      "velocity": 124,
      "chip": "ym2612"
    },
    {
      "channel": 3,
      "note": 84,
      "start": 9.8706,
      "duration": 0.08,
      "velocity": 124,
      "chip": "ym2612"
    },
    {
      "channel": 3,
      "note": 85,
      "start": 10.073,
      "duration": 0.0308,
      "velocity": 124,
      "chip": "ym2612"
    },
    {
      "channel": 2,
      "note": 62,
      "start": 10.1412,
      "duration": 0.4497,
      "velocity": 108,
      "chip": "ym2612"
    },
    {
      "channel": 3,
      "note": 84,
      "start": 10.1442,
      "duration": 0.0597,
      "velocity": 124,
      "chip": "ym2612"
    },
    {
      "channel": 0,
      "note": 79,
      "start": 10.1482,
      "duration": 0.7741,
      "velocity": 127,
      "chip": "ym2612"
    },
    {
      "channel": 1,
      "note": 84,
      "start": 10.1513,
      "duration": 0.7711,
      "velocity": 127,
      "chip": "ym2612"
    },
    {
      "channel": 3,
      "note": 85,
      "start": 10.3429,
      "duration": 0.0141,
      "velocity": 124,
      "chip": "ym2612"
    },
    {
      "channel": 3,
      "note": 84,
      "start": 10.3943,
      "duration": 0.0628,
      "velocity": 124,
      "chip": "ym2612"
    },
    {
      "channel": 2,
      "note": 60,
      "start": 10.5966,
      "duration": 0.0472,
      "velocity": 108,
      "chip": "ym2612"
    },
    {
      "channel": 3,
      "note": 85,
      "start": 10.5993,
      "duration": 0.011,
      "velocity": 124,
      "chip": "ym2612"
    },
    {
      "channel": 3,
      "note": 84,
      "start": 10.6494,
      "duration": 0.0077,
      "velocity": 124,
      "chip": "ym2612"
    },
    {
      "channel": 2,
      "note": 59,
      "start": 10.7269,
      "duration": 0.0967,
      "velocity": 108,
      "chip": "ym2612"
    },
    {
      "channel": 3,
      "note": 85,
      "start": 10.7299,
      "duration": 0.0602,
      "velocity": 124,
      "chip": "ym2612"
    },
    {
      "channel": 3,
      "note": 84,
      "start": 10.8296,
      "duration": 0.0077,
      "velocity": 124,
      "chip": "ym2612"
    },
    {
      "channel": 2,
      "note": 59,
      "start": 10.9088,
      "duration": 0.0137,
      "velocity": 108,
      "chip": "ym2612"
    },
    {
      "channel": 3,
      "note": 85,
      "start": 10.9114,
      "duration": 0.0066,
      "velocity": 124,
      "chip": "ym2612"
    },
    {
      "channel": 2,
      "note": 57,
      "start": 10.9284,
      "duration": 0.5445,
      "velocity": 108,
      "chip": "ym2612"
    },
    {
      "channel": 3,
      "note": 84,
      "start": 10.9307,
      "duration": 0.0112,
      "velocity": 124,
      "chip": "ym2612"
    },
    {
      "channel": 0,
      "note": 81,
      "start": 10.9333,
      "duration": 1.1778,
      "velocity": 127,
      "chip": "ym2612"
    },
    {
      "channel": 1,
      "note": 88,
      "start": 10.9358,
      "duration": 1.1754,
      "velocity": 127,
      "chip": "ym2612"
    },
    {
      "channel": 3,
      "note": 85,
      "start": 11.0759,
      "duration": 0.0631,
      "velocity": 124,
      "chip": "ym2612"
    },
    {
      "channel": 3,
      "note": 84,
      "start": 11.1763,
      "duration": 0.0628,
      "velocity": 124,
      "chip": "ym2612"
    },
    {
      "channel": 3,
      "note": 85,
      "start": 11.3762,
      "duration": 0.0632,
      "velocity": 124,
      "chip": "ym2612"
    },
    {
      "channel": 2,
      "note": 64,
      "start": 11.4787,
      "duration": 0.4268,
      "velocity": 108,
      "chip": "ym2612"
    },
    {
      "channel": 3,
      "note": 84,
      "start": 11.4809,
      "duration": 0.0069,
      "velocity": 124,
      "chip": "ym2612"
    },
    {
      "channel": 3,
      "note": 85,
      "start": 11.5553,
      "duration": 0.0799,
      "velocity": 124,
      "chip": "ym2612"
    },
    {
      "channel": 3,
      "note": 84,
      "start": 11.6553,
      "duration": 0.0799,
      "velocity": 124,
      "chip": "ym2612"
    },
    {
      "channel": 3,
      "note": 85,
      "start": 11.8577,
      "duration": 0.0309,
      "velocity": 124,
      "chip": "ym2612"
    },
    {
      "channel": 2,
      "note": 62,
      "start": 11.9112,
      "duration": 0.3534,
      "velocity": 108,
      "chip": "ym2612"
    },
    {
      "channel": 3,
      "note": 84,
      "start": 11.9137,
      "duration": 0.0276,
      "velocity": 124,
      "chip": "ym2612"
    },
    {
      "channel": 3,
      "note": 85,
      "start": 12.0638,
      "duration": 0.0307,
      "velocity": 124,
      "chip": "ym2612"
    },
    {
      "channel": 3,
      "note": 84,
      "start": 12.1172,
      "duration": 0.0305,
      "velocity": 124,
      "chip": "ym2612"
    },
    {
      "channel": 2,
      "note": 60,
      "start": 12.2684,
      "duration": 0.1759,
      "velocity": 108,
      "chip": "ym2612"
    },
    {
      "channel": 3,
      "note": 85,
      "start": 12.2715,
      "duration": 0.0766,
      "velocity": 124,
      "chip": "ym2612"
    },
    {
      "channel": 3,
      "note": 84,
      "start": 12.3706,
      "duration": 0.0097,
      "velocity": 124,
      "chip": "ym2612"
    },
    {
      "channel": 2,
      "note": 59,
      "start": 12.4479,
      "duration": 0.0965,
      "velocity": 108,
      "chip": "ym2612"
    },
    {
      "channel": 3,
      "note": 85,
      "start": 12.451,
      "duration": 0.0766,
      "velocity": 124,
      "chip": "ym2612"
    },
    {
      "channel": 3,
      "note": 84,
      "start": 12.5479,
      "duration": 0.0798,
      "velocity": 124,
      "chip": "ym2612"
    },
    {
      "channel": 2,
      "note": 59,
      "start": 12.7504,
      "duration": 0.0473,
      "velocity": 108,
      "chip": "ym2612"
    },
    {
      "channel": 3,
      "note": 85,
      "start": 12.7529,
      "duration": 0.0278,
      "velocity": 124,
      "chip": "ym2612"
    },
    {
      "channel": 2,
      "note": 57,
      "start": 12.8034,
      "duration": 0.5175,
      "velocity": 108,
      "chip": "ym2612"
    },
    {
      "channel": 3,
      "note": 84,
      "start": 12.8059,
      "duration": 0.0278,
      "velocity": 124,
      "chip": "ym2612"
    },
    {
      "channel": 3,
      "note": 85,
      "start": 12.9542,
      "duration": 0.08,
      "velocity": 124,
      "chip": "ym2612"
    },
    {
      "channel": 3,
      "note": 84,
      "start": 13.0547,
      "duration": 0.0796,
      "velocity": 124,
      "chip": "ym2612"
    },
    {
      "channel": 3,
      "note": 85,
      "start": 13.2567,
      "duration": 0.0308,
      "velocity": 124,
      "chip": "ym2612"
    },
    {
      "channel": 2,
      "note": 59,
      "start": 13.3267,
      "duration": 0.4269,
      "velocity": 108,
      "chip": "ym2612"
    },
    {
      "channel": 3,
      "note": 84,
      "start": 13.3293,
      "duration": 0.0066,
      "velocity": 124,
      "chip": "ym2612"
    },
    {
      "channel": 3,
      "note": 85,
      "start": 13.4035,
      "duration": 0.0633,
      "velocity": 124,
      "chip": "ym2612"
    },
    {
      "channel": 3,
      "note": 84,
      "start": 13.5037,
      "duration": 0.0632,
      "velocity": 124,
      "chip": "ym2612"
    },
    {
      "channel": 3,
      "note": 85,
      "start": 13.7061,
      "duration": 0.0139,
      "velocity": 124,
      "chip": "ym2612"
    },
    {
      "channel": 2,
      "note": 60,
      "start": 13.7593,
      "duration": 0.3721,
      "velocity": 108,
      "chip": "ym2612"
    },
    {
      "channel": 3,
      "note": 84,
      "start": 13.7616,
      "duration": 0.0123,
      "velocity": 124,
      "chip": "ym2612"
    },
    {
      "channel": 0,
      "note": 79,
      "start": 13.7647,
      "duration": 0.3661,
      "velocity": 127,
      "chip": "ym2612"
    },
    {
      "channel": 1,
      "note": 84,
      "start": 13.7672,
      "duration": 0.3638,
      "velocity": 127,
      "chip": "ym2612"
    },
    {
      "channel": 3,
      "note": 85,
      "start": 13.9127,
      "duration": 0.014,
      "velocity": 124,
      "chip": "ym2612"
    },
    {
      "channel": 3,
      "note": 84,
      "start": 13.9661,
      "duration": 0.0137,
      "velocity": 124,
      "chip": "ym2612"
    },
    {
      "channel": 3,
      "note": 85,
      "start": 14.1189,
      "duration": 0.0075,
      "velocity": 124,
      "chip": "ym2612"
    },
    {
      "channel": 2,
      "note": 62,
      "start": 14.1382,
      "duration": 0.2034,
      "velocity": 108,
      "chip": "ym2612"
    },
    {
      "channel": 3,
      "note": 84,
      "start": 14.1408,
      "duration": 0.011,
      "velocity": 124,
      "chip": "ym2612"
    },
    {
      "channel": 0,
      "note": 84,
      "start": 14.1434,
      "duration": 0.2155,
      "velocity": 127,
      "chip": "ym2612"
    },
    {
      "channel": 1,
      "note": 91,
      "start": 14.146,
      "duration": 0.213,
      "velocity": 127,
      "chip": "ym2612"
    },
    {
      "channel": 3,
      "note": 85,
      "start": 14.2148,
      "duration": 0.0142,
      "velocity": 124,
      "chip": "ym2612"
    },
    {
      "channel": 3,
      "note": 84,
      "start": 14.2679,
      "duration": 0.0075,
      "velocity": 124,
      "chip": "ym2612"
    },
    {
      "channel": 3,
      "note": 85,
      "start": 14.3471,
      "duration": 0.0077,
      "velocity": 124,
      "chip": "ym2612"
    },
    {
      "channel": 2,
      "note": 57,
      "start": 14.3658,
      "duration": 0.4953,
      "velocity": 108,
      "chip": "ym2612"
    },
    {
      "channel": 3,
      "note": 84,
      "start": 14.3685,
      "duration": 0.0105,
      "velocity": 124,
      "chip": "ym2612"
    },
    {
      "channel": 0,
      "note": 81,
      "start": 14.371,
      "duration": 1.1288,
      "velocity": 127,
      "chip": "ym2612"
    },
    {
      "channel": 1,
      "note": 88,
      "start": 14.3735,
      "duration": 1.1265,
      "velocity": 127,
      "chip": "ym2612"
    },
    {
      "channel": 3,
      "note": 85,
      "start": 14.511,
      "duration": 0.0632,
      "velocity": 124,
      "chip": "ym2612"
    },
    {
      "channel": 3,
      "note": 84,
      "start": 14.6116,
      "duration": 0.0795,
      "velocity": 124,
      "chip": "ym2612"
    },
    {
      "channel": 3,
      "note": 85,
      "start": 14.8135,
      "duration": 0.0308,
      "velocity": 124,
      "chip": "ym2612"
    },
    {
      "channel": 2,
      "note": 64,
      "start": 14.8671,
      "duration": 0.427,
      "velocity": 108,
      "chip": "ym2612"
    },
    {
      "channel": 3,
      "note": 84,
      "start": 14.8698,
      "duration": 0.0088,
      "velocity": 124,
      "chip": "ym2612"
    },
    {
      "channel": 3,
      "note": 85,
      "start": 14.9443,
      "duration": 0.0799,
      "velocity": 124,
      "chip": "ym2612"
    },
    {
      "channel": 3,
      "note": 84,
      "start": 15.0444,
      "duration": 0.0799,
      "velocity": 124,
      "chip": "ym2612"
    },
    {
      "channel": 3,
      "note": 85,
      "start": 15.2467,
      "duration": 0.0307,
      "velocity": 124,
      "chip": "ym2612"
    },
    {
      "channel": 2,
      "note": 62,
      "start": 15.3,
      "duration": 0.3534,
      "velocity": 108,
      "chip": "ym2612"
    },
    {
      "channel": 3,
      "note": 84,
      "start": 15.3026,
      "duration": 0.0278,
      "velocity": 124,
      "chip": "ym2612"
    },
    {
      "channel": 3,
      "note": 85,
      "start": 15.4528,
      "duration": 0.0305,
      "velocity": 124,
      "chip": "ym2612"
    },
    {
      "channel": 3,
      "note": 84,
      "start": 15.506,
      "duration": 0.0305,
      "velocity": 124,
      "chip": "ym2612"
    },
    {
      "channel": 2,
      "note": 60,
      "start": 15.6571,
      "duration": 0.0964,
      "velocity": 108,
      "chip": "ym2612"
    },
    {
      "channel": 3,
      "note": 85,
      "start": 15.6602,
      "duration": 0.0766,
      "velocity": 124,
      "chip": "ym2612"
    },
    {
      "channel": 3,
      "note": 84,
      "start": 15.7592,
      "duration": 0.0097,
      "velocity": 124,
      "chip": "ym2612"
    },
    {
      "channel": 2,
      "note": 59,
      "start": 15.8363,
      "duration": 0.0967,
      "velocity": 108,
      "chip": "ym2612"
    },
    {
      "channel": 3,
      "note": 85,
      "start": 15.8394,
      "duration": 0.0769,
      "velocity": 124,
      "chip": "ym2612"
    },
    {
      "channel": 3,
      "note": 84,
      "start": 15.9365,
      "duration": 0.0798,
      "velocity": 124,
      "chip": "ym2612"
    },
    {
      "channel": 2,
      "note": 59,
      "start": 16.1368,
      "duration": 0.0967,
      "velocity": 108,
      "chip": "ym2612"
    },
    {
      "channel": 3,
      "note": 85,
      "start": 16.1399,
      "duration": 0.0767,
      "velocity": 124,
      "chip": "ym2612"
    },
    {
      "channel": 2,
      "note": 57,
      "start": 16.2393,
      "duration": 0.5646,
      "velocity": 108,
      "chip": "ym2612"
    },
    {
      "channel": 3,
      "note": 84,
      "start": 16.2418,
      "duration": 0.0279,
      "velocity": 124,
      "chip": "ym2612"
    },
    {
      "channel": 3,
      "note": 85,
      "start": 16.4068,
      "duration": 0.0632,
      "velocity": 124,
      "chip": "ym2612"
    },
    {
      "channel": 3,
      "note": 84,
      "start": 16.5073,
      "duration": 0.0628,
      "velocity": 124,
      "chip": "ym2612"
    },
    {
      "channel": 3,
      "note": 85,
      "start": 16.7072,
      "duration": 0.0632,
      "velocity": 124,
      "chip": "ym2612"
    },
    {
      "channel": 2,
      "note": 64,
      "start": 16.8096,
      "duration": 0.4264,
      "velocity": 108,
      "chip": "ym2612"
    },
    {
      "channel": 3,
      "note": 84,
      "start": 16.8121,
      "duration": 0.0066,
      "velocity": 124,
      "chip": "ym2612"
    },
    {
      "channel": 3,
      "note": 85,
      "start": 16.8862,
      "duration": 0.0632,
      "velocity": 124,
      "chip": "ym2612"
    },
    {
      "channel": 3,
      "note": 84,
      "start": 16.9862,
      "duration": 0.0633,
      "velocity": 124,
      "chip": "ym2612"
    },
    {
      "channel": 3,
      "note": 85,
      "start": 17.189,
      "duration": 0.0133,
      "velocity": 124,
      "chip": "ym2612"
    },
    {
      "channel": 2,
      "note": 60,
      "start": 17.2394,
      "duration": 0.5039,
      "velocity": 108,
      "chip": "ym2612"
    },
    {
      "channel": 3,
      "note": 84,
      "start": 17.2425,
      "duration": 0.0601,
      "velocity": 124,
      "chip": "ym2612"
    },
    {
      "channel": 0,
      "note": 79,
      "start": 17.2461,
      "duration": 0.7625,
      "velocity": 127,
      "chip": "ym2612"
    },
    {
      "channel": 1,
      "note": 84,
      "start": 17.2492,
      "duration": 0.7595,
      "velocity": 127,
      "chip": "ym2612"
    },
    {
      "channel": 3,
      "note": 85,
      "start": 17.4416,
      "duration": 0.0146,
      "velocity": 124,
      "chip": "ym2612"
    },
    {
      "channel": 3,
      "note": 84,
      "start": 17.4934,
      "duration": 0.0629,
      "velocity": 124,
      "chip": "ym2612"
    },
    {
      "channel": 3,
      "note": 85,
      "start": 17.6955,
      "duration": 0.0144,
      "velocity": 124,
      "chip": "ym2612"
    },
    {
      "channel": 2,
      "note": 62,
      "start": 17.7491,
      "duration": 0.2599,
      "velocity": 108,
      "chip": "ym2612"
    },
    {
      "channel": 3,
      "note": 84,
      "start": 17.7515,
      "duration": 0.0073,
      "velocity": 124,
      "chip": "ym2612"
    },
    {
      "channel": 3,
      "note": 85,
      "start": 17.8287,
      "duration": 0.0141,
      "velocity": 124,
      "chip": "ym2612"
    },
    {
      "channel": 3,
      "note": 84,
      "start": 17.8817,
      "duration": 0.0099,
      "velocity": 124,
      "chip": "ym2612"
    },
    {
      "channel": 3,
      "note": 85,
      "start": 17.9612,
      "duration": 0.0309,
      "velocity": 124,
      "chip": "ym2612"
    },
    {
      "channel": 2,
      "note": 57,
      "start": 18.0147,
      "duration": 0.5479,
      "velocity": 108,
      "chip": "ym2612"
    },
    {
      "channel": 3,
      "note": 84,
      "start": 18.0174,
      "duration": 0.0278,
      "velocity": 124,
      "chip": "ym2612"
    },
    {
      "channel": 0,
      "note": 76,
      "start": 18.02,
      "duration": 1.2287,
      "velocity": 127,
      "chip": "ym2612"
    },
    {
      "channel": 1,
      "note": 81,
      "start": 18.0226,
      "duration": 1.2263,
      "velocity": 127,
      "chip": "ym2612"
    },
    {
      "channel": 3,
      "note": 85,
      "start": 18.1654,
      "duration": 0.08,
      "velocity": 124,
      "chip": "ym2612"
    },
    {
      "channel": 3,
      "note": 84,
      "start": 18.266,
      "duration": 0.0795,
      "velocity": 124,
      "chip": "ym2612"
    },
    {
      "channel": 3,
      "note": 85,
      "start": 18.4658,
      "duration": 0.08,
      "velocity": 124,
      "chip": "ym2612"
    },
    {
      "channel": 2,
      "note": 64,
      "start": 18.5684,
      "duration": 0.4272,
      "velocity": 108,
      "chip": "ym2612"
    },
    {
      "channel": 3,
      "note": 84,
      "start": 18.5706,
      "duration": 0.0093,
      "velocity": 124,
      "chip": "ym2612"
    },
    {
      "channel": 3,
      "note": 85,
      "start": 18.6457,
      "duration": 0.0799,
      "velocity": 124,
      "chip": "ym2612"
    },
    {
      "channel": 3,
      "note": 84,
      "start": 18.7458,
      "duration": 0.0799,
      "velocity": 124,
      "chip": "ym2612"
    },
    {
      "channel": 3,
      "note": 85,
      "start": 18.9484,
      "duration": 0.0304,
      "velocity": 124,
      "chip": "ym2612"
    },
    {
      "channel": 2,
      "note": 62,
      "start": 18.9994,
      "duration": 0.4029,
      "velocity": 108,
      "chip": "ym2612"
    },
    {
      "channel": 3,
      "note": 84,
      "start": 19.0024,
      "duration": 0.0765,
      "velocity": 124,
      "chip": "ym2612"
    },
    {
      "channel": 3,
      "note": 85,
      "start": 19.2015,
      "duration": 0.0307,
      "velocity": 124,
      "chip": "ym2612"
    },
    {
      "channel": 3,
      "note": 84,
      "start": 19.2548,
      "duration": 0.0305,
      "velocity": 124,
      "chip": "ym2612"
    },
    {
      "channel": 2,
      "note": 60,
      "start": 19.4061,
      "duration": 0.0963,
      "velocity": 108,
      "chip": "ym2612"
    },
    {
      "channel": 3,
      "note": 85,
      "start": 19.4092,
      "duration": 0.0764,
      "velocity": 124,
      "chip": "ym2612"
    },
    {
      "channel": 3,
      "note": 84,
      "start": 19.5079,
      "duration": 0.01,
      "velocity": 124,
      "chip": "ym2612"
    },
    {
      "channel": 2,
      "note": 59,
      "start": 19.6019,
      "duration": 0.0968,
      "velocity": 108,
      "chip": "ym2612"
    },
    {
      "channel": 3,
      "note": 85,
      "start": 19.605,
      "duration": 0.0602,
      "velocity": 124,
      "chip": "ym2612"
    },
    {
      "channel": 3,
      "note": 84,
      "start": 19.7022,
      "duration": 0.063,
      "velocity": 124,
      "chip": "ym2612"
    },
    {
      "channel": 2,
      "note": 59,
      "start": 19.9047,
      "duration": 0.0473,
      "velocity": 108,
      "chip": "ym2612"
    },
    {
      "channel": 3,
      "note": 85,
      "start": 19.9072,
      "duration": 0.0112,
      "velocity": 124,
      "chip": "ym2612"
    },
    {
      "channel": 2,
      "note": 65,
      "start": 19.9558,
      "duration": 0.1965,
      "velocity": 108,
      "chip": "ym2612"
    },
    {
      "channel": 3,
      "note": 84,
      "start": 19.9589,
      "duration": 0.0598,
      "velocity": 124,
      "chip": "ym2612"
    },
    {
      "channel": 3,
      "note": 85,
      "start": 20.1558,
      "duration": 0.063,
      "velocity": 124,
      "chip": "ym2612"
    },
    {
      "channel": 2,
      "note": 65,
      "start": 20.258,
      "duration": 0.1474,
      "velocity": 108,
      "chip": "ym2612"
    },
    {
      "channel": 3,
      "note": 84,
      "start": 20.2607,
      "duration": 0.0111,
      "velocity": 124,
      "chip": "ym2612"
    },
    {
      "channel": 3,
      "note": 85,
      "start": 20.4089,
      "duration": 0.0632,
      "velocity": 124,
      "chip": "ym2612"
    },
    {
      "channel": 2,
      "note": 65,
      "start": 20.5111,
      "duration": 0.0738,
      "velocity": 108,
      "chip": "ym2612"
    },
    {
      "channel": 3,
      "note": 84,
      "start": 20.5134,
      "duration": 0.007,
      "velocity": 124,
      "chip": "ym2612"
    },
    {
      "channel": 3,
      "note": 85,
      "start": 20.5884,
      "duration": 0.063,
      "velocity": 124,
      "chip": "ym2612"
    },
    {
      "channel": 2,
      "note": 65,
      "start": 20.6884,
      "duration": 0.1969,
      "velocity": 108,
      "chip": "ym2612"
    },
    {
      "channel": 3,
      "note": 84,
      "start": 20.6914,
      "duration": 0.0602,
      "velocity": 124,
      "chip": "ym2612"
    },
    {
      "channel": 3,
      "note": 85,
      "start": 20.8908,
      "duration": 0.0139,
      "velocity": 124,
      "chip": "ym2612"
    },
    {
      "channel": 2,
      "note": 64,
      "start": 20.9417,
      "duration": 0.1969,
      "velocity": 108,
      "chip": "ym2612"
    },
    {
      "channel": 3,
      "note": 84,
      "start": 20.9447,
      "duration": 0.0602,
      "velocity": 124,
      "chip": "ym2612"
    },
    {
      "channel": 3,
      "note": 85,
      "start": 21.1445,
      "duration": 0.0134,
      "velocity": 124,
      "chip": "ym2612"
    },
    {
      "channel": 2,
      "note": 64,
      "start": 21.1971,
      "duration": 0.1475,
      "velocity": 108,
      "chip": "ym2612"
    },
    {
      "channel": 3,
      "note": 84,
      "start": 21.1998,
      "duration": 0.0112,
      "velocity": 124,
      "chip": "ym2612"
    },
    {
      "channel": 3,
      "note": 85,
      "start": 21.3481,
      "duration": 0.0798,
      "velocity": 124,
      "chip": "ym2612"
    },
    {
      "channel": 2,
      "note": 64,
      "start": 21.4505,
      "duration": 0.0317,
      "velocity": 108,
      "chip": "ym2612"
    },
    {
      "channel": 3,
      "note": 84,
      "start": 21.4528,
      "duration": 0.0109,
      "velocity": 124,
      "chip": "ym2612"
    },
    {
      "channel": 4,
      "note": 81,
      "start": 21.4555,
      "duration": 0.0106,
      "velocity": 104,
      "chip": "ym2612"
    },
    {
      "channel": 3,
      "note": 85,
      "start": 21.488,
      "duration": 0.0096,
      "velocity": 124,
      "chip": "ym2612"
    },
    {
      "channel": 2,
      "note": 64,
      "start": 21.5068,
      "duration": 0.0978,
      "velocity": 108,
      "chip": "ym2612"
    },
    {
      "channel": 3,
      "note": 84,
      "start": 21.5094,
      "duration": 0.0254,
      "velocity": 124,
      "chip": "ym2612"
    },
    {
      "channel": 4,
      "note": 79,
      "start": 21.5118,
      "duration": 0.0926,
      "velocity": 104,
      "chip": "ym2612"
    },
    {
      "channel": 3,
      "note": 85,
      "start": 21.61,
      "duration": 0.0114,
      "velocity": 124,
      "chip": "ym2612"
    },
    {
      "channel": 4,
      "note": 81,
      "start": 21.6128,
      "duration": 0.0607,
      "velocity": 104,
      "chip": "ym2612"
    },
    {
      "channel": 2,
      "note": 57,
      "start": 21.629,
      "duration": 0.4451,
      "velocity": 108,
      "chip": "ym2612"
    },
    {
      "channel": 3,
      "note": 84,
      "start": 21.6316,
      "duration": 0.0251,
      "velocity": 124,
      "chip": "ym2612"
    },
    {
      "channel": 0,
      "note": 81,
      "start": 21.6341,
      "duration": 0.9729,
      "velocity": 127,
      "chip": "ym2612"
    },
    {
      "channel": 3,
      "note": 85,
      "start": 21.777,
      "duration": 0.08,
      "velocity": 124,
      "chip": "ym2612"
    },
    {
      "channel": 3,
      "note": 84,
      "start": 21.8776,
      "duration": 0.0795,
      "velocity": 124,
      "chip": "ym2612"
    },
    {
      "channel": 3,
      "note": 85,
      "start": 22.0776,
      "duration": 0.0797,
      "velocity": 124,
      "chip": "ym2612"
    },
    {
      "channel": 2,
      "note": 64,
      "start": 22.1798,
      "duration": 0.3744,
      "velocity": 108,
      "chip": "ym2612"
    },
    {
      "channel": 3,
      "note": 84,
      "start": 22.182,
      "duration": 0.0112,
      "velocity": 124,
      "chip": "ym2612"
    },
    {
      "channel": 1,
      "note": 81,
      "start": 22.1849,
      "duration": 0.0187,
      "velocity": 79,
      "chip": "ym2612"
    },
    {
      "channel": 3,
      "note": 85,
      "start": 22.2572,
      "duration": 0.08,
      "velocity": 124,
      "chip": "ym2612"
    },
    {
      "channel": 3,
      "note": 84,
      "start": 22.3573,
      "duration": 0.0799,
      "velocity": 124,
      "chip": "ym2612"
    },
    {
      "channel": 1,
      "note": 76,
      "start": 22.3612,
      "duration": 0.1428,
      "velocity": 79,
      "chip": "ym2612"
    },
    {
      "channel": 1,
      "note": 79,
      "start": 22.5081,
      "duration": 0.099,
      "velocity": 79,
      "chip": "ym2612"
    },
    {
      "channel": 3,
      "note": 85,
      "start": 22.5601,
      "duration": 0.0302,
      "velocity": 124,
      "chip": "ym2612"
    },
    {
      "channel": 2,
      "note": 62,
      "start": 22.6132,
      "duration": 0.2167,
      "velocity": 108,
      "chip": "ym2612"
    },
    {
      "channel": 3,
      "note": 84,
      "start": 22.6157,
      "duration": 0.0276,
      "velocity": 124,
      "chip": "ym2612"
    },
    {
      "channel": 0,
      "note": 88,
      "start": 22.6183,
      "duration": 0.8974,
      "velocity": 127,
      "chip": "ym2612"
    },
    {
      "channel": 3,
      "note": 85,
      "start": 22.7825,
      "duration": 0.0138,
      "velocity": 124,
      "chip": "ym2612"
    },
    {
      "channel": 3,
      "note": 84,
      "start": 22.8356,
      "duration": 0.0139,
      "velocity": 124,
      "chip": "ym2612"
    },
    {
      "channel": 2,
      "note": 60,
      "start": 22.9867,
      "duration": 0.0964,
      "velocity": 108,
      "chip": "ym2612"
    },
    {
      "channel": 3,
      "note": 85,
      "start": 22.9898,
      "duration": 0.06,
      "velocity": 124,
      "chip": "ym2612"
    },
    {
      "channel": 3,
      "note": 84,
      "start": 23.0887,
      "duration": 0.0076,
      "velocity": 124,
      "chip": "ym2612"
    },
    {
      "channel": 2,
      "note": 59,
      "start": 23.1664,
      "duration": 0.0967,
      "velocity": 108,
      "chip": "ym2612"
    },
    {
      "channel": 3,
      "note": 85,
      "start": 23.1694,
      "duration": 0.0601,
      "velocity": 124,
      "chip": "ym2612"
    },
    {
      "channel": 3,
      "note": 84,
      "start": 23.2666,
      "duration": 0.0632,
      "velocity": 124,
      "chip": "ym2612"
    },
    {
      "channel": 1,
      "note": 76,
      "start": 23.4172,
      "duration": 0.0987,
      "velocity": 79,
      "chip": "ym2612"
    },
    {
      "channel": 2,
      "note": 59,
      "start": 23.469,
      "duration": 0.0471,
      "velocity": 108,
      "chip": "ym2612"
    },
    {
      "channel": 3,
      "note": 85,
      "start": 23.4716,
      "duration": 0.0108,
      "velocity": 124,
      "chip": "ym2612"
    },
    {
      "channel": 2,
      "note": 57,
      "start": 23.5219,
      "duration": 0.4476,
      "velocity": 108,
      "chip": "ym2612"
    },
    {
      "channel": 3,
      "note": 84,
      "start": 23.5245,
      "duration": 0.0109,
      "velocity": 124,
      "chip": "ym2612"
    },
    {
      "channel": 1,
      "note": 79,
      "start": 23.5269,
      "duration": 0.092,
      "velocity": 79,
      "chip": "ym2612"
    },
    {
      "channel": 3,
      "note": 85,
      "start": 23.6724,
      "duration": 0.0632,
      "velocity": 124,
      "chip": "ym2612"
    },
    {
      "channel": 3,
      "note": 84,
      "start": 23.773,
      "duration": 0.0628,
      "velocity": 124,
      "chip": "ym2612"
    },
    {
      "channel": 1,
      "note": 76,
      "start": 23.7763,
      "duration": 0.143,
      "velocity": 79,
      "chip": "ym2612"
    },
    {
      "channel": 3,
      "note": 85,
      "start": 23.9729,
      "duration": 0.0632,
      "velocity": 124,
      "chip": "ym2612"
    },
    {
      "channel": 2,
      "note": 64,
      "start": 24.0752,
      "duration": 0.3746,
      "velocity": 108,
      "chip": "ym2612"
    },
    {
      "channel": 3,
      "note": 84,
      "start": 24.0775,
      "duration": 0.0091,
      "velocity": 124,
      "chip": "ym2612"
    },
    {
      "channel": 1,
      "note": 83,
      "start": 24.0802,
      "duration": 0.0188,
      "velocity": 79,
      "chip": "ym2612"
    },
    {
      "channel": 3,
      "note": 85,
      "start": 24.1528,
      "duration": 0.0632,
      "velocity": 124,
      "chip": "ym2612"
    },
    {
      "channel": 3,
      "note": 84,
      "start": 24.2529,
      "duration": 0.0631,
      "velocity": 124,
      "chip": "ym2612"
    },
    {
      "channel": 1,
      "note": 76,
      "start": 24.2564,
      "duration": 0.1431,
      "velocity": 79,
      "chip": "ym2612"
    },
    {
      "channel": 1,
      "note": 79,
      "start": 24.4039,
      "duration": 0.0636,
      "velocity": 79,
      "chip": "ym2612"
    },
    {
      "channel": 3,
      "note": 85,
      "start": 24.4558,
      "duration": 0.0094,
      "velocity": 124,
      "chip": "ym2612"
    },
    {
      "channel": 2,
      "note": 62,
      "start": 24.4741,
      "duration": 0.1975,
      "velocity": 108,
      "chip": "ym2612"
    },
    {
      "channel": 3,
      "note": 84,
      "start": 24.4767,
      "duration": 0.0249,
      "velocity": 124,
      "chip": "ym2612"
    },
    {
      "channel": 0,
      "note": 84,
      "start": 24.4793,
      "duration": 0.2909,
      "velocity": 127,
      "chip": "ym2612"
    },
    {
      "channel": 4,
      "note": 91,
      "start": 24.4818,
      "duration": 0.2885,
      "velocity": 127,
      "chip": "ym2612"
    },
    {
      "channel": 3,
      "note": 85,
      "start": 24.6241,
      "duration": 0.0307,
      "velocity": 124,
      "chip": "ym2612"
    },
    {
      "channel": 3,
      "note": 84,
      "start": 24.6773,
      "duration": 0.0095,
      "velocity": 124,
      "chip": "ym2612"
    },
    {
      "channel": 2,
      "note": 60,
      "start": 24.7571,
      "duration": 0.0133,
      "velocity": 108,
      "chip": "ym2612"
    },
    {
      "channel": 3,
      "note": 85,
      "start": 24.7596,
      "duration": 0.0085,
      "velocity": 124,
      "chip": "ym2612"
    },
    {
      "channel": 2,
      "note": 62,
      "start": 24.776,
      "duration": 0.1447,
      "velocity": 108,
      "chip": "ym2612"
    },
    {
      "channel": 3,
      "note": 84,
      "start": 24.7785,
      "duration": 0.0252,
      "velocity": 124,
      "chip": "ym2612"
    },
    {
      "channel": 0,
      "note": 79,
      "start": 24.7812,
      "duration": 0.2893,
      "velocity": 127,
      "chip": "ym2612"
    },
    {
      "channel": 4,
      "note": 86,
      "start": 24.7837,
      "duration": 0.2868,
      "velocity": 127,
      "chip": "ym2612"
    },
    {
      "channel": 2,
      "note": 64,
      "start": 24.9266,
      "duration": 0.126,
      "velocity": 108,
      "chip": "ym2612"
    },
    {
      "channel": 3,
      "note": 85,
      "start": 24.9293,
      "duration": 0.0273,
      "velocity": 124,
      "chip": "ym2612"
    },
    {
      "channel": 3,
      "note": 84,
      "start": 24.9791,
      "duration": 0.0098,
      "velocity": 124,
      "chip": "ym2612"
    },
    {
      "channel": 3,
      "note": 85,
      "start": 25.0586,
      "duration": 0.0096,
      "velocity": 124,
      "chip": "ym2612"
    },
    {
      "channel": 2,
      "note": 57,
      "start": 25.0775,
      "duration": 0.545,
      "velocity": 108,
      "chip": "ym2612"
    },
    {
      "channel": 3,
      "note": 84,
      "start": 25.0801,
      "duration": 0.0249,
      "velocity": 124,
      "chip": "ym2612"
    },
    {
      "channel": 0,
      "note": 88,
      "start": 25.0827,
      "duration": 0.9884,
      "velocity": 127,
      "chip": "ym2612"
    },
    {
      "channel": 4,
      "note": 81,
      "start": 25.0853,
      "duration": 0.9864,
      "velocity": 127,
      "chip": "ym2612"
    },
    {
      "channel": 3,
      "note": 85,
      "start": 25.2254,
      "duration": 0.0799,
      "velocity": 124,
      "chip": "ym2612"
    },
    {
      "channel": 3,
      "note": 84,
      "start": 25.3259,
      "duration": 0.0796,
      "velocity": 124,
      "chip": "ym2612"
    },
    {
      "channel": 3,
      "note": 85,
      "start": 25.5257,
      "duration": 0.08,
      "velocity": 124,
      "chip": "ym2612"
    },
    {
      "channel": 2,
      "note": 64,
      "start": 25.6283,
      "duration": 0.3905,
      "velocity": 108,
      "chip": "ym2612"
    },
    {
      "channel": 3,
      "note": 84,
      "start": 25.6308,
      "duration": 0.0088,
      "velocity": 124,
      "chip": "ym2612"
    },
    {
      "channel": 3,
      "note": 85,
      "start": 25.7216,
      "duration": 0.0632,
      "velocity": 124,
      "chip": "ym2612"
    },
    {
      "channel": 3,
      "note": 84,
      "start": 25.8219,
      "duration": 0.0631,
      "velocity": 124,
      "chip": "ym2612"
    },
    {
      "channel": 3,
      "note": 85,
      "start": 26.0242,
      "duration": 0.014,
      "velocity": 124,
      "chip": "ym2612"
    },
    {
      "channel": 2,
      "note": 62,
      "start": 26.0776,
      "duration": 0.2006,
      "velocity": 108,
      "chip": "ym2612"
    },
    {
      "channel": 3,
      "note": 84,
      "start": 26.0803,
      "duration": 0.011,
      "velocity": 124,
      "chip": "ym2612"
    },
    {
      "channel": 1,
      "note": 88,
      "start": 26.0828,
      "duration": 0.0919,
      "velocity": 106,
      "chip": "ym2612"
    },
    {
      "channel": 0,
      "note": 84,
      "start": 26.0861,
      "duration": 0.0885,
      "velocity": 106,
      "chip": "ym2612"
    },
    {
      "channel": 0,
      "note": 84,
      "start": 26.1788,
      "duration": 0.099,
      "velocity": 106,
      "chip": "ym2612"
    },
    {
      "channel": 1,
      "note": 88,
      "start": 26.1817,
      "duration": 0.0962,
      "velocity": 106,
      "chip": "ym2612"
    },
    {
      "channel": 3,
      "note": 85,
      "start": 26.2304,
      "duration": 0.0142,
      "velocity": 124,
      "chip": "ym2612"
    },
    {
      "channel": 3,
      "note": 84,
      "start": 26.2839,
      "duration": 0.0135,
      "velocity": 124,
      "chip": "ym2612"
    },
    {
      "channel": 2,
      "note": 60,
      "start": 26.4351,
      "duration": 0.096,
      "velocity": 108,
      "chip": "ym2612"
    },
    {
      "channel": 3,
      "note": 85,
      "start": 26.4382,
      "duration": 0.0595,
      "velocity": 124,
      "chip": "ym2612"
    },
    {
      "channel": 3,
      "note": 84,
      "start": 26.5367,
      "duration": 0.0111,
      "velocity": 124,
      "chip": "ym2612"
    },
    {
      "channel": 0,
      "note": 84,
      "start": 26.5395,
      "duration": 0.0199,
      "velocity": 106,
      "chip": "ym2612"
    },
    {
      "channel": 1,
      "note": 81,
      "start": 26.5418,
      "duration": 0.0181,
      "velocity": 106,
      "chip": "ym2612"
    },
    {
      "channel": 0,
      "note": 81,
      "start": 26.564,
      "duration": 0.1461,
      "velocity": 106,
      "chip": "ym2612"
    },
    {
      "channel": 1,
      "note": 84,
      "start": 26.5669,
      "duration": 0.1432,
      "velocity": 106,
      "chip": "ym2612"
    },
    {
      "channel": 2,
      "note": 59,
      "start": 26.6135,
      "duration": 0.0969,
      "velocity": 108,
      "chip": "ym2612"
    },
    {
      "channel": 3,
      "note": 85,
      "start": 26.6166,
      "duration": 0.0601,
      "velocity": 124,
      "chip": "ym2612"
    },
    {
      "channel": 3,
      "note": 84,
      "start": 26.7139,
      "duration": 0.0629,
      "velocity": 124,
      "chip": "ym2612"
    },
    {
      "channel": 2,
      "note": 59,
      "start": 26.9166,
      "duration": 0.0467,
      "velocity": 108,
      "chip": "ym2612"
    },
    {
      "channel": 3,
      "note": 85,
      "start": 26.9192,
      "duration": 0.0106,
      "velocity": 124,
      "chip": "ym2612"
    },
    {
      "channel": 2,
      "note": 57,
      "start": 26.9691,
      "duration": 0.548,
      "velocity": 108,
      "chip": "ym2612"
    },
    {
      "channel": 3,
      "note": 84,
      "start": 26.9717,
      "duration": 0.0112,
      "velocity": 124,
      "chip": "ym2612"
    },
    {
      "channel": 0,
      "note": 79,
      "start": 26.9741,
      "duration": 0.0922,
      "velocity": 106,
      "chip": "ym2612"
    },
    {
      "channel": 1,
      "note": 83,
      "start": 26.9764,
      "duration": 0.09,
      "velocity": 106,
      "chip": "ym2612"
    },
    {
      "channel": 0,
      "note": 79,
      "start": 27.0705,
      "duration": 0.146,
      "velocity": 106,
      "chip": "ym2612"
    },
    {
      "channel": 1,
      "note": 83,
      "start": 27.0734,
      "duration": 0.1432,
      "velocity": 106,
      "chip": "ym2612"
    },
    {
      "channel": 3,
      "note": 85,
      "start": 27.1199,
      "duration": 0.0632,
      "velocity": 124,
      "chip": "ym2612"
    },
    {
      "channel": 3,
      "note": 84,
      "start": 27.2207,
      "duration": 0.0626,
      "velocity": 124,
      "chip": "ym2612"
    },
    {
      "channel": 3,
      "note": 85,
      "start": 27.4203,
      "duration": 0.0798,
      "velocity": 124,
      "chip": "ym2612"
    },
    {
      "channel": 2,
      "note": 59,
      "start": 27.5229,
      "duration": 0.3739,
      "velocity": 108,
      "chip": "ym2612"
    },
    {
      "channel": 3,
      "note": 84,
      "start": 27.5255,
      "duration": 0.0125,
      "velocity": 124,
      "chip": "ym2612"
    },
    {
      "channel": 0,
      "note": 81,
      "start": 27.5278,
      "duration": 0.0202,
      "velocity": 106,
      "chip": "ym2612"
    },
    {
      "channel": 1,
      "note": 84,
      "start": 27.5301,
      "duration": 0.0181,
      "velocity": 106,
      "chip": "ym2612"
    },
    {
      "channel": 0,
      "note": 81,
      "start": 27.5522,
      "duration": 0.1437,
      "velocity": 106,
      "chip": "ym2612"
    },
    {
      "channel": 1,
      "note": 84,
      "start": 27.5552,
      "duration": 0.1412,
      "velocity": 106,
      "chip": "ym2612"
    },
    {
      "channel": 3,
      "note": 85,
      "start": 27.5998,
      "duration": 0.0799,
      "velocity": 124,
      "chip": "ym2612"
    },
    {
      "channel": 3,
      "note": 84,
      "start": 27.7,
      "duration": 0.0798,
      "velocity": 124,
      "chip": "ym2612"
    },
    {
      "channel": 3,
      "note": 85,
      "start": 27.9023,
      "duration": 0.0307,
      "velocity": 124,
      "chip": "ym2612"
    },
    {
      "channel": 2,
      "note": 60,
      "start": 27.9555,
      "duration": 0.1274,
      "velocity": 108,
      "chip": "ym2612"
    },
    {
      "channel": 3,
      "note": 84,
      "start": 27.958,
      "duration": 0.0129,
      "velocity": 124,
      "chip": "ym2612"
    },
    {
      "channel": 0,
      "note": 79,
      "start": 27.9604,
      "duration": 0.0206,
      "velocity": 106,
      "chip": "ym2612"
    },
    {
      "channel": 1,
      "note": 83,
      "start": 27.9628,
      "duration": 0.0184,
      "velocity": 106,
      "chip": "ym2612"
    },
    {
      "channel": 0,
      "note": 79,
      "start": 27.9852,
      "duration": 0.0972,
      "velocity": 106,
      "chip": "ym2612"
    },
    {
      "channel": 1,
      "note": 83,
      "start": 27.9882,
      "duration": 0.0944,
      "velocity": 106,
      "chip": "ym2612"
    },
    {
      "channel": 3,
      "note": 85,
      "start": 28.0351,
      "duration": 0.0306,
      "velocity": 124,
      "chip": "ym2612"
    },
    {
      "channel": 3,
      "note": 84,
      "start": 28.0867,
      "duration": 0.0793,
      "velocity": 124,
      "chip": "ym2612"
    },
    {
      "channel": 2,
      "note": 62,
      "start": 28.2888,
      "duration": 0.0472,
      "velocity": 108,
      "chip": "ym2612"
    },
    {
      "channel": 3,
      "note": 85,
      "start": 28.2914,
      "duration": 0.0277,
      "velocity": 124,
      "chip": "ym2612"
    },
    {
      "channel": 3,
      "note": 84,
      "start": 28.3415,
      "duration": 0.0132,
      "velocity": 124,
      "chip": "ym2612"
    },
    {
      "channel": 0,
      "note": 79,
      "start": 28.3443,
      "duration": 0.0205,
      "velocity": 106,
      "chip": "ym2612"
    },
    {
      "channel": 1,
      "note": 76,
      "start": 28.3466,
      "duration": 0.0183,
      "velocity": 106,
      "chip": "ym2612"
    },
    {
      "channel": 0,
      "note": 76,
      "start": 28.369,
      "duration": 0.0987,
      "velocity": 106,
      "chip": "ym2612"
    },
    {
      "channel": 1,
      "note": 79,
      "start": 28.3721,
      "duration": 0.0957,
      "velocity": 106,
      "chip": "ym2612"
    },
    {
      "channel": 2,
      "note": 63,
      "start": 28.4211,
      "duration": 0.047,
      "velocity": 108,
      "chip": "ym2612"
    },
    {
      "channel": 3,
      "note": 85,
      "start": 28.4237,
      "duration": 0.0275,
      "velocity": 124,
      "chip": "ym2612"
    },
    {
      "channel": 3,
      "note": 84,
      "start": 28.4737,
      "duration": 0.01,
      "velocity": 124,
      "chip": "ym2612"
    },
    {
      "channel": 2,
      "note": 64,
      "start": 28.5532,
      "duration": 0.0139,
      "velocity": 108,
      "chip": "ym2612"
    },
    {
      "channel": 3,
      "note": 85,
      "start": 28.5557,
      "duration": 0.009,
      "velocity": 124,
      "chip": "ym2612"
    },
    {
      "channel": 2,
      "note": 57,
      "start": 28.5725,
      "duration": 0.4613,
      "velocity": 108,
      "chip": "ym2612"
    },
    {
      "channel": 3,
      "note": 84,
      "start": 28.5752,
      "duration": 0.0246,
      "velocity": 124,
      "chip": "ym2612"
    },
    {
      "channel": 4,
      "note": 81,
      "start": 28.5778,
      "duration": 0.9412,
      "velocity": 127,
      "chip": "ym2612"
    },
    {
      "channel": 3,
      "note": 85,
      "start": 28.7201,
      "duration": 0.0799,
      "velocity": 124,
      "chip": "ym2612"
    },
    {
      "channel": 3,
      "note": 84,
      "start": 28.8373,
      "duration": 0.0628,
      "velocity": 124,
      "chip": "ym2612"
    },
    {
      "channel": 3,
      "note": 85,
      "start": 29.0394,
      "duration": 0.0134,
      "velocity": 124,
      "chip": "ym2612"
    },
    {
      "channel": 2,
      "note": 64,
      "start": 29.0921,
      "duration": 0.3739,
      "velocity": 108,
      "chip": "ym2612"
    },
    {
      "channel": 3,
      "note": 84,
      "start": 29.0943,
      "duration": 0.0088,
      "velocity": 124,
      "chip": "ym2612"
    },
    {
      "channel": 0,
      "note": 81,
      "start": 29.0973,
      "duration": 0.0181,
      "velocity": 79,
      "chip": "ym2612"
    },
    {
      "channel": 3,
      "note": 85,
      "start": 29.1691,
      "duration": 0.0632,
      "velocity": 124,
      "chip": "ym2612"
    },
    {
      "channel": 3,
      "note": 84,
      "start": 29.2693,
      "duration": 0.0633,
      "velocity": 124,
      "chip": "ym2612"
    },
    {
      "channel": 0,
      "note": 76,
      "start": 29.2727,
      "duration": 0.1431,
      "velocity": 79,
      "chip": "ym2612"
    },
    {
      "channel": 0,
      "note": 79,
      "start": 29.42,
      "duration": 0.0984,
      "velocity": 79,
      "chip": "ym2612"
    },
    {
      "channel": 3,
      "note": 85,
      "start": 29.4717,
      "duration": 0.0139,
      "velocity": 124,
      "chip": "ym2612"
    },
    {
      "channel": 2,
      "note": 62,
      "start": 29.5248,
      "duration": 0.2004,
      "velocity": 108,
      "chip": "ym2612"
    },
    {
      "channel": 3,
      "note": 84,
      "start": 29.5273,
      "duration": 0.0114,
      "velocity": 124,
      "chip": "ym2612"
    },
    {
      "channel": 4,
      "note": 88,
      "start": 29.53,
      "duration": 0.9284,
      "velocity": 127,
      "chip": "ym2612"
    },
    {
      "channel": 3,
      "note": 85,
      "start": 29.6782,
      "duration": 0.0135,
      "velocity": 124,
      "chip": "ym2612"
    },
    {
      "channel": 3,
      "note": 84,
      "start": 29.7307,
      "duration": 0.014,
      "velocity": 124,
      "chip": "ym2612"
    },
    {
      "channel": 2,
      "note": 60,
      "start": 29.882,
      "duration": 0.0965,
      "velocity": 108,
      "chip": "ym2612"
    },
    {
      "channel": 3,
      "note": 85,
      "start": 29.8851,
      "duration": 0.06,
      "velocity": 124,
      "chip": "ym2612"
    },
    {
      "channel": 3,
      "note": 84,
      "start": 29.984,
      "duration": 0.0078,
      "velocity": 124,
      "chip": "ym2612"
    },
    {
      "channel": 2,
      "note": 59,
      "start": 30.0613,
      "duration": 0.0968,
      "velocity": 108,
      "chip": "ym2612"
    },
    {
      "channel": 3,
      "note": 85,
      "start": 30.0644,
      "duration": 0.0601,
      "velocity": 124,
      "chip": "ym2612"
    },
    {
      "channel": 3,
      "note": 84,
      "start": 30.1616,
      "duration": 0.0631,
      "velocity": 124,
      "chip": "ym2612"
    },
    {
      "channel": 0,
      "note": 76,
      "start": 30.3121,
      "duration": 0.1458,
      "velocity": 79,
      "chip": "ym2612"
    },
    {
      "channel": 2,
      "note": 59,
      "start": 30.3622,
      "duration": 0.0963,
      "velocity": 108,
      "chip": "ym2612"
    },
    {
      "channel": 3,
      "note": 85,
      "start": 30.3653,
      "duration": 0.0763,
      "velocity": 124,
      "chip": "ym2612"
    },
    {
      "channel": 2,
      "note": 57,
      "start": 30.4642,
      "duration": 0.4477,
      "velocity": 108,
      "chip": "ym2612"
    },
    {
      "channel": 3,
      "note": 84,
      "start": 30.4668,
      "duration": 0.0279,
      "velocity": 124,
      "chip": "ym2612"
    },
    {
      "channel": 0,
      "note": 79,
      "start": 30.4691,
      "duration": 0.0922,
      "velocity": 79,
      "chip": "ym2612"
    },
    {
      "channel": 3,
      "note": 85,
      "start": 30.6149,
      "duration": 0.08,
      "velocity": 124,
      "chip": "ym2612"
    },
    {
      "channel": 3,
      "note": 84,
      "start": 30.7155,
      "duration": 0.0796,
      "velocity": 124,
      "chip": "ym2612"
    },
    {
      "channel": 0,
      "note": 76,
      "start": 30.7187,
      "duration": 0.143,
      "velocity": 79,
      "chip": "ym2612"
    },
    {
      "channel": 3,
      "note": 85,
      "start": 30.9154,
      "duration": 0.0798,
      "velocity": 124,
      "chip": "ym2612"
    },
    {
      "channel": 2,
      "note": 64,
      "start": 31.0178,
      "duration": 0.3748,
      "velocity": 108,
      "chip": "ym2612"
    },
    {
      "channel": 3,
      "note": 84,
      "start": 31.0201,
      "duration": 0.0112,
      "velocity": 124,
      "chip": "ym2612"
    },
    {
      "channel": 0,
      "note": 83,
      "start": 31.0228,
      "duration": 0.0191,
      "velocity": 79,
      "chip": "ym2612"
    },
    {
      "channel": 3,
      "note": 85,
      "start": 31.0955,
      "duration": 0.08,
      "velocity": 124,
      "chip": "ym2612"
    },
    {
      "channel": 3,
      "note": 84,
      "start": 31.1957,
      "duration": 0.0799,
      "velocity": 124,
      "chip": "ym2612"
    },
    {
      "channel": 0,
      "note": 76,
      "start": 31.1991,
      "duration": 0.1427,
      "velocity": 79,
      "chip": "ym2612"
    },
    {
      "channel": 0,
      "note": 79,
      "start": 31.3465,
      "duration": 0.0989,
      "velocity": 79,
      "chip": "ym2612"
    },
    {
      "channel": 3,
      "note": 85,
      "start": 31.3982,
      "duration": 0.0306,
      "velocity": 124,
      "chip": "ym2612"
    },
    {
      "channel": 2,
      "note": 62,
      "start": 31.4514,
      "duration": 0.2005,
      "velocity": 108,
      "chip": "ym2612"
    },
    {
      "channel": 3,
      "note": 84,
      "start": 31.454,
      "duration": 0.028,
      "velocity": 124,
      "chip": "ym2612"
    },
    {
      "channel": 4,
      "note": 84,
      "start": 31.4568,
      "duration": 0.4484,
      "velocity": 127,
      "chip": "ym2612"
    },
    {
      "channel": 1,
      "note": 79,
      "start": 31.4593,
      "duration": 0.4457,
      "velocity": 127,
      "chip": "ym2612"
    },
    {
      "channel": 3,
      "note": 85,
      "start": 31.6044,
      "duration": 0.0305,
      "velocity": 124,
      "chip": "ym2612"
    },
    {
      "channel": 3,
      "note": 84,
      "start": 31.6576,
      "duration": 0.0305,
      "velocity": 124,
      "chip": "ym2612"
    },
    {
      "channel": 2,
      "note": 60,
      "start": 31.8087,
      "duration": 0.0966,
      "velocity": 108,
      "chip": "ym2612"
    },
    {
      "channel": 3,
      "note": 85,
      "start": 31.8118,
      "duration": 0.0765,
      "velocity": 124,
      "chip": "ym2612"
    },
    {
      "channel": 2,
      "note": 62,
      "start": 31.9116,
      "duration": 0.0735,
      "velocity": 108,
      "chip": "ym2612"
    },
    {
      "channel": 3,
      "note": 84,
      "start": 31.9142,
      "duration": 0.0129,
      "velocity": 124,
      "chip": "ym2612"
    },
    {
      "channel": 1,
      "note": 77,
      "start": 31.9167,
      "duration": 0.2704,
      "velocity": 127,
      "chip": "ym2612"
    },
    {
      "channel": 4,
      "note": 83,
      "start": 31.9192,
      "duration": 0.268,
      "velocity": 127,
      "chip": "ym2612"
    },
    {
      "channel": 2,
      "note": 64,
      "start": 31.991,
      "duration": 0.1432,
      "velocity": 108,
      "chip": "ym2612"
    },
    {
      "channel": 3,
      "note": 85,
      "start": 31.9936,
      "duration": 0.0277,
      "velocity": 124,
      "chip": "ym2612"
    },
    {
      "channel": 3,
      "note": 84,
      "start": 32.0605,
      "duration": 0.0077,
      "velocity": 124,
      "chip": "ym2612"
    },
    {
      "channel": 3,
      "note": 85,
      "start": 32.1398,
      "duration": 0.014,
      "velocity": 124,
      "chip": "ym2612"
    },
    {
      "channel": 2,
      "note": 57,
      "start": 32.1931,
      "duration": 0.548,
      "velocity": 108,
      "chip": "ym2612"
    },
    {
      "channel": 3,
      "note": 84,
      "start": 32.1957,
      "duration": 0.0114,
      "velocity": 124,
      "chip": "ym2612"
    },
    {
      "channel": 1,
      "note": 76,
      "start": 32.1983,
      "duration": 1.1811,
      "velocity": 127,
      "chip": "ym2612"
    },
    {
      "channel": 4,
      "note": 81,
      "start": 32.2009,
      "duration": 1.1788,
      "velocity": 127,
      "chip": "ym2612"
    },
    {
      "channel": 3,
      "note": 85,
      "start": 32.3441,
      "duration": 0.0631,
      "velocity": 124,
      "chip": "ym2612"
    },
    {
      "channel": 3,
      "note": 84,
      "start": 32.4446,
      "duration": 0.0628,
      "velocity": 124,
      "chip": "ym2612"
    },
    {
      "channel": 3,
      "note": 85,
      "start": 32.6444,
      "duration": 0.0632,
      "velocity": 124,
      "chip": "ym2612"
    },
    {
      "channel": 2,
      "note": 64,
      "start": 32.7468,
      "duration": 0.3739,
      "velocity": 108,
      "chip": "ym2612"
    },
    {
      "channel": 3,
      "note": 84,
      "start": 32.7493,
      "duration": 0.0066,
      "velocity": 124,
      "chip": "ym2612"
    },
    {
      "channel": 3,
      "note": 85,
      "start": 32.8236,
      "duration": 0.0632,
      "velocity": 124,
      "chip": "ym2612"
    },
    {
      "channel": 3,
      "note": 84,
      "start": 32.9237,
      "duration": 0.0632,
      "velocity": 124,
      "chip": "ym2612"
    },
    {
      "channel": 3,
      "note": 85,
      "start": 33.1263,
      "duration": 0.0137,
      "velocity": 124,
      "chip": "ym2612"
    },
    {
      "channel": 2,
      "note": 62,
      "start": 33.1791,
      "duration": 0.2007,
      "velocity": 108,
      "chip": "ym2612"
    },
    {
      "channel": 3,
      "note": 84,
      "start": 33.1817,
      "duration": 0.0112,
      "velocity": 124,
      "chip": "ym2612"
    },
    {
      "channel": 3,
      "note": 85,
      "start": 33.3324,
      "duration": 0.0137,
      "velocity": 124,
      "chip": "ym2612"
    },
    {
      "channel": 3,
      "note": 84,
      "start": 33.3855,
      "duration": 0.0137,
      "velocity": 124,
      "chip": "ym2612"
    },
    {
      "channel": 2,
      "note": 60,
      "start": 33.5365,
      "duration": 0.0964,
      "velocity": 108,
      "chip": "ym2612"
    },
    {
      "channel": 3,
      "note": 85,
      "start": 33.5395,
      "duration": 0.0599,
      "velocity": 124,
      "chip": "ym2612"
    },
    {
      "channel": 3,
      "note": 84,
      "start": 33.6385,
      "duration": 0.0133,
      "velocity": 124,
      "chip": "ym2612"
    },
    {
      "channel": 0,
      "note": 79,
      "start": 33.6415,
      "duration": 0.0699,
      "velocity": 106,
      "chip": "ym2612"
    },
    {
      "channel": 1,
      "note": 83,
      "start": 33.6439,
      "duration": 0.068,
      "velocity": 106,
      "chip": "ym2612"
    },
    {
      "channel": 2,
      "note": 59,
      "start": 33.7155,
      "duration": 0.0967,
      "velocity": 108,
      "chip": "ym2612"
    },
    {
      "channel": 3,
      "note": 85,
      "start": 33.7186,
      "duration": 0.0767,
      "velocity": 124,
      "chip": "ym2612"
    },
    {
      "channel": 0,
      "note": 81,
      "start": 33.7221,
      "duration": 0.1232,
      "velocity": 106,
      "chip": "ym2612"
    },
    {
      "channel": 1,
      "note": 84,
      "start": 33.7252,
      "duration": 0.1203,
      "velocity": 106,
      "chip": "ym2612"
    },
    {
      "channel": 3,
      "note": 84,
      "start": 33.8156,
      "duration": 0.0797,
      "velocity": 124,
      "chip": "ym2612"
    },
    {
      "channel": 2,
      "note": 59,
      "start": 34.018,
      "duration": 0.0475,
      "velocity": 108,
      "chip": "ym2612"
    },
    {
      "channel": 3,
      "note": 85,
      "start": 34.0206,
      "duration": 0.0281,
      "velocity": 124,
      "chip": "ym2612"
    },
    {
      "channel": 2,
      "note": 65,
      "start": 34.0714,
      "duration": 0.1474,
      "velocity": 108,
      "chip": "ym2612"
    },
    {
      "channel": 3,
      "note": 84,
      "start": 34.0739,
      "duration": 0.0279,
      "velocity": 124,
      "chip": "ym2612"
    },
    {
      "channel": 3,
      "note": 85,
      "start": 34.2222,
      "duration": 0.0798,
      "velocity": 124,
      "chip": "ym2612"
    },
    {
      "channel": 2,
      "note": 65,
      "start": 34.3222,
      "duration": 0.1969,
      "velocity": 108,
      "chip": "ym2612"
    },
    {
      "channel": 3,
      "note": 84,
      "start": 34.3257,
      "duration": 0.0766,
      "velocity": 124,
      "chip": "ym2612"
    },
    {
      "channel": 3,
      "note": 85,
      "start": 34.5226,
      "duration": 0.0798,
      "velocity": 124,
      "chip": "ym2612"
    },
    {
      "channel": 2,
      "note": 65,
      "start": 34.6249,
      "duration": 0.074,
      "velocity": 108,
      "chip": "ym2612"
    },
    {
      "channel": 3,
      "note": 84,
      "start": 34.6271,
      "duration": 0.0094,
      "velocity": 124,
      "chip": "ym2612"
    },
    {
      "channel": 3,
      "note": 85,
      "start": 34.7024,
      "duration": 0.0798,
      "velocity": 124,
      "chip": "ym2612"
    },
    {
      "channel": 2,
      "note": 65,
      "start": 34.8024,
      "duration": 0.1969,
      "velocity": 108,
      "chip": "ym2612"
    },
    {
      "channel": 3,
      "note": 84,
      "start": 34.8054,
      "duration": 0.0769,
      "velocity": 124,
      "chip": "ym2612"
    },
    {
      "channel": 3,
      "note": 85,
      "start": 35.0048,
      "duration": 0.0306,
      "velocity": 124,
      "chip": "ym2612"
    },
    {
      "channel": 2,
      "note": 64,
      "start": 35.0577,
      "duration": 0.1473,
      "velocity": 108,
      "chip": "ym2612"
    },
    {
      "channel": 3,
      "note": 84,
      "start": 35.0599,
      "duration": 0.0281,
      "velocity": 124,
      "chip": "ym2612"
    },
    {
      "channel": 3,
      "note": 85,
      "start": 35.211,
      "duration": 0.0303,
      "velocity": 124,
      "chip": "ym2612"
    },
    {
      "channel": 2,
      "note": 64,
      "start": 35.2615,
      "duration": 0.2135,
      "velocity": 108,
      "chip": "ym2612"
    },
    {
      "channel": 3,
      "note": 84,
      "start": 35.265,
      "duration": 0.0764,
      "velocity": 124,
      "chip": "ym2612"
    },
    {
      "channel": 3,
      "note": 85,
      "start": 35.4807,
      "duration": 0.0139,
      "velocity": 124,
      "chip": "ym2612"
    },
    {
      "channel": 2,
      "note": 60,
      "start": 35.5337,
      "duration": 0.0153,
      "velocity": 108,
      "chip": "ym2612"
    },
    {
      "channel": 3,
      "note": 84,
      "start": 35.5363,
      "duration": 0.0084,
      "velocity": 124,
      "chip": "ym2612"
    },
    {
      "channel": 4,
      "note": 69,
      "start": 35.5387,
      "duration": 0.0102,
      "velocity": 104,
      "chip": "ym2612"
    },
    {
      "channel": 2,
      "note": 62,
      "start": 35.5552,
      "duration": 0.0449,
      "velocity": 108,
      "chip": "ym2612"
    },
    {
      "channel": 4,
      "note": 71,
      "start": 35.5579,
      "duration": 0.042,
      "velocity": 104,
      "chip": "ym2612"
    },
    {
      "channel": 2,
      "note": 64,
      "start": 35.6056,
      "duration": 0.0155,
      "velocity": 108,
      "chip": "ym2612"
    },
    {
      "channel": 3,
      "note": 85,
      "start": 35.608,
      "duration": 0.0085,
      "velocity": 124,
      "chip": "ym2612"
    },
    {
      "channel": 4,
      "note": 72,
      "start": 35.6105,
      "duration": 0.0105,
      "velocity": 104,
      "chip": "ym2612"
    },
    {
      "channel": 2,
      "note": 60,
      "start": 35.6272,
      "duration": 0.0155,
      "velocity": 108,
      "chip": "ym2612"
    },
    {
      "channel": 3,
      "note": 84,
      "start": 35.6298,
      "duration": 0.0085,
      "velocity": 124,
      "chip": "ym2612"
    },
    {
      "channel": 4,
      "note": 74,
      "start": 35.6321,
      "duration": 0.0105,
      "velocity": 104,
      "chip": "ym2612"
    },
    {
      "channel": 2,
      "note": 62,
      "start": 35.6488,
      "duration": 0.0126,
      "velocity": 108,
      "chip": "ym2612"
    },
    {
      "channel": 4,
      "note": 76,
      "start": 35.6512,
      "duration": 0.0102,
      "velocity": 104,
      "chip": "ym2612"
    },
    {
      "channel": 2,
      "note": 64,
      "start": 35.6677,
      "duration": 0.0148,
      "velocity": 108,
      "chip": "ym2612"
    },
    {
      "channel": 3,
      "note": 85,
      "start": 35.67,
      "duration": 0.0082,
      "velocity": 124,
      "chip": "ym2612"
    },
    {
      "channel": 4,
      "note": 79,
      "start": 35.6722,
      "duration": 0.0102,
      "velocity": 104,
      "chip": "ym2612"
    },
    {
      "channel": 2,
      "note": 57,
      "start": 35.6909,
      "duration": 0.4415,
      "velocity": 108,
      "chip": "ym2612"
    },
    {
      "channel": 3,
      "note": 84,
      "start": 35.6931,
      "duration": 0.0119,
      "velocity": 124,
      "chip": "ym2612"
    },
    {
      "channel": 4,
      "note": 81,
      "start": 35.6956,
      "duration": 0.1364,
      "velocity": 104,
      "chip": "ym2612"
    },
    {
      "channel": 0,
      "note": 88,
      "start": 35.699,
      "duration": 0.0827,
      "velocity": 127,
      "chip": "ym2612"
    },
    {
      "channel": 1,
      "note": 93,
      "start": 35.7016,
      "duration": 0.0803,
      "velocity": 127,
      "chip": "ym2612"
    },
    {
      "channel": 3,
      "note": 85,
      "start": 35.8355,
      "duration": 0.063,
      "velocity": 124,
      "chip": "ym2612"
    },
    {
      "channel": 3,
      "note": 84,
      "start": 35.9359,
      "duration": 0.0628,
      "velocity": 124,
      "chip": "ym2612"
    },
    {
      "channel": 3,
      "note": 85,
      "start": 36.1359,
      "duration": 0.0632,
      "velocity": 124,
      "chip": "ym2612"
    },
    {
      "channel": 3,
      "note": 84,
      "start": 36.2381,
      "duration": 0.0073,
      "velocity": 124,
      "chip": "ym2612"
    },
    {
      "channel": 3,
      "note": 85,
      "start": 36.3149,
      "duration": 0.0632,
      "velocity": 124,
      "chip": "ym2612"
    },
    {
      "channel": 3,
      "note": 84,
      "start": 36.415,
      "duration": 0.0632,
      "velocity": 124,
      "chip": "ym2612"
    },
    {
      "channel": 2,
      "note": 55,
      "start": 36.6176,
      "duration": 0.0476,
      "velocity": 108,
      "chip": "ym2612"
    },
    {
      "channel": 3,
      "note": 85,
      "start": 36.6202,
      "duration": 0.0114,
      "velocity": 124,
      "chip": "ym2612"
    },
    {
      "channel": 2,
      "note": 57,
      "start": 36.6715,
      "duration": 0.1471,
      "velocity": 108,
      "chip": "ym2612"
    },
    {
      "channel": 3,
      "note": 84,
      "start": 36.6741,
      "duration": 0.0275,
      "velocity": 124,
      "chip": "ym2612"
    },
    {
      "channel": 0,
      "note": 81,
      "start": 36.6766,
      "duration": 0.4477,
      "velocity": 106,
      "chip": "ym2612"
    },
    {
      "channel": 1,
      "note": 84,
      "start": 36.6789,
      "duration": 0.4459,
      "velocity": 106,
      "chip": "ym2612"
    },
    {
      "channel": 3,
      "note": 85,
      "start": 36.824,
      "duration": 0.0308,
      "velocity": 124,
      "chip": "ym2612"
    },
    {
      "channel": 2,
      "note": 57,
      "start": 36.8772,
      "duration": 0.1476,
      "velocity": 108,
      "chip": "ym2612"
    },
    {
      "channel": 3,
      "note": 84,
      "start": 36.8799,
      "duration": 0.0279,
      "velocity": 124,
      "chip": "ym2612"
    },
    {
      "channel": 3,
      "note": 85,
      "start": 37.0282,
      "duration": 0.0799,
      "velocity": 124,
      "chip": "ym2612"
    },
    {
      "channel": 3,
      "note": 84,
      "start": 37.1305,
      "duration": 0.0097,
      "velocity": 124,
      "chip": "ym2612"
    },
    {
      "channel": 3,
      "note": 85,
      "start": 37.2076,
      "duration": 0.08,
      "velocity": 124,
      "chip": "ym2612"
    },
    {
      "channel": 3,
      "note": 84,
      "start": 37.3077,
      "duration": 0.08,
      "velocity": 124,
      "chip": "ym2612"
    },
    {
      "channel": 3,
      "note": 85,
      "start": 37.508,
      "duration": 0.08,
      "velocity": 124,
      "chip": "ym2612"
    },
    {
      "channel": 2,
      "note": 57,
      "start": 37.6103,
      "duration": 0.2481,
      "velocity": 108,
      "chip": "ym2612"
    },
    {
      "channel": 3,
      "note": 84,
      "start": 37.6129,
      "duration": 0.0284,
      "velocity": 124,
      "chip": "ym2612"
    },
    {
      "channel": 0,
      "note": 67,
      "start": 37.6154,
      "duration": 0.1426,
      "velocity": 106,
      "chip": "ym2612"
    },
    {
      "channel": 1,
      "note": 71,
      "start": 37.6177,
      "duration": 0.1404,
      "velocity": 106,
      "chip": "ym2612"
    },
    {
      "channel": 3,
      "note": 85,
      "start": 37.7618,
      "duration": 0.0797,
      "velocity": 124,
      "chip": "ym2612"
    },
    {
      "channel": 0,
      "note": 72,
      "start": 37.7653,
      "duration": 0.1262,
      "velocity": 106,
      "chip": "ym2612"
    },
    {
      "channel": 1,
      "note": 69,
      "start": 37.7682,
      "duration": 0.1234,
      "velocity": 106,
      "chip": "ym2612"
    },
    {
      "channel": 3,
      "note": 84,
      "start": 37.8622,
      "duration": 0.0794,
      "velocity": 124,
      "chip": "ym2612"
    },
    {
      "channel": 3,
      "note": 85,
      "start": 38.0619,
      "duration": 0.08,
      "velocity": 124,
      "chip": "ym2612"
    },
    {
      "channel": 3,
      "note": 84,
      "start": 38.1642,
      "duration": 0.0135,
      "velocity": 124,
      "chip": "ym2612"
    },
    {
      "channel": 0,
      "note": 69,
      "start": 38.167,
      "duration": 0.0171,
      "velocity": 106,
      "chip": "ym2612"
    },
    {
      "channel": 1,
      "note": 72,
      "start": 38.1693,
      "duration": 0.0149,
      "velocity": 106,
      "chip": "ym2612"
    },
    {
      "channel": 3,
      "note": 85,
      "start": 38.2417,
      "duration": 0.0798,
      "velocity": 124,
      "chip": "ym2612"
    },
    {
      "channel": 3,
      "note": 84,
      "start": 38.3419,
      "duration": 0.0799,
      "velocity": 124,
      "chip": "ym2612"
    },
    {
      "channel": 0,
      "note": 67,
      "start": 38.3454,
      "duration": 0.2098,
      "velocity": 106,
      "chip": "ym2612"
    },
    {
      "channel": 1,
      "note": 71,
      "start": 38.3487,
      "duration": 0.2066,
      "velocity": 106,
      "chip": "ym2612"
    },
    {
      "channel": 3,
      "note": 85,
      "start": 38.5611,
      "duration": 0.0138,
      "velocity": 124,
      "chip": "ym2612"
    },
    {
      "channel": 0,
      "note": 69,
      "start": 38.5638,
      "duration": 0.061,
      "velocity": 106,
      "chip": "ym2612"
    },
    {
      "channel": 1,
      "note": 72,
      "start": 38.5662,
      "duration": 0.0588,
      "velocity": 106,
      "chip": "ym2612"
    },
    {
      "channel": 3,
      "note": 84,
      "start": 38.6117,
      "duration": 0.0634,
      "velocity": 124,
      "chip": "ym2612"
    },
    {
      "channel": 2,
      "note": 60,
      "start": 38.8141,
      "duration": 0.2474,
      "velocity": 108,
      "chip": "ym2612"
    },
    {
      "channel": 3,
      "note": 85,
      "start": 38.8167,
      "duration": 0.0112,
      "velocity": 124,
      "chip": "ym2612"
    },
    {
      "channel": 3,
      "note": 84,
      "start": 38.8651,
      "duration": 0.0629,
      "velocity": 124,
      "chip": "ym2612"
    },
    {
      "channel": 3,
      "note": 85,
      "start": 39.067,
      "duration": 0.014,
      "velocity": 124,
      "chip": "ym2612"
    },
    {
      "channel": 2,
      "note": 62,
      "start": 39.1208,
      "duration": 0.0739,
      "velocity": 108,
      "chip": "ym2612"
    },
    {
      "channel": 3,
      "note": 84,
      "start": 39.1235,
      "duration": 0.0066,
      "velocity": 124,
      "chip": "ym2612"
    },
    {
      "channel": 3,
      "note": 85,
      "start": 39.1982,
      "duration": 0.0632,
      "velocity": 124,
      "chip": "ym2612"
    },
    {
      "channel": 2,
      "note": 63,
      "start": 39.3005,
      "duration": 0.0741,
      "velocity": 108,
      "chip": "ym2612"
    },
    {
      "channel": 3,
      "note": 84,
      "start": 39.3032,
      "duration": 0.0065,
      "velocity": 124,
      "chip": "ym2612"
    },
    {
      "channel": 4,
      "note": 84,
      "start": 39.3167,
      "duration": 0.0578,
      "velocity": 90,
      "chip": "ym2612"
    },
    {
      "channel": 2,
      "note": 64,
      "start": 39.3805,
      "duration": 0.0157,
      "velocity": 108,
      "chip": "ym2612"
    },
    {
      "channel": 3,
      "note": 85,
      "start": 39.3831,
      "duration": 0.0085,
      "velocity": 124,
      "chip": "ym2612"
    },
    {
      "channel": 4,
      "note": 88,
      "start": 39.3854,
      "duration": 0.0107,
      "velocity": 90,
      "chip": "ym2612"
    },
    {
      "channel": 2,
      "note": 57,
      "start": 39.4023,
      "duration": 0.4447,
      "velocity": 108,
      "chip": "ym2612"
    },
    {
      "channel": 3,
      "note": 84,
      "start": 39.4049,
      "duration": 0.0097,
      "velocity": 124,
      "chip": "ym2612"
    },
    {
      "channel": 4,
      "note": 93,
      "start": 39.4073,
      "duration": 0.9726,
      "velocity": 90,
      "chip": "ym2612"
    },
    {
      "channel": 3,
      "note": 85,
      "start": 39.5501,
      "duration": 0.0632,
      "velocity": 124,
      "chip": "ym2612"
    },
    {
      "channel": 3,
      "note": 84,
      "start": 39.6505,
      "duration": 0.0629,
      "velocity": 124,
      "chip": "ym2612"
    },
    {
      "channel": 3,
      "note": 85,
      "start": 39.8505,
      "duration": 0.0632,
      "velocity": 124,
      "chip": "ym2612"
    },
    {
      "channel": 3,
      "note": 84,
      "start": 39.9528,
      "duration": 0.0112,
      "velocity": 124,
      "chip": "ym2612"
    },
    {
      "channel": 0,
      "note": 84,
      "start": 39.9556,
      "duration": 0.424,
      "velocity": 106,
      "chip": "ym2612"
    },
    {
      "channel": 1,
      "note": 81,
      "start": 39.9578,
      "duration": 0.4219,
      "velocity": 106,
      "chip": "ym2612"
    },
    {
      "channel": 3,
      "note": 85,
      "start": 40.0298,
      "duration": 0.0799,
      "velocity": 124,
      "chip": "ym2612"
    },
    {
      "channel": 3,
      "note": 84,
      "start": 40.13,
      "duration": 0.0799,
      "velocity": 124,
      "chip": "ym2612"
    },
    {
      "channel": 2,
      "note": 55,
      "start": 40.3327,
      "duration": 0.0473,
      "velocity": 108,
      "chip": "ym2612"
    },
    {
      "channel": 3,
      "note": 85,
      "start": 40.3353,
      "duration": 0.0277,
      "velocity": 124,
      "chip": "ym2612"
    },
    {
      "channel": 2,
      "note": 57,
      "start": 40.3859,
      "duration": 0.1469,
      "velocity": 108,
      "chip": "ym2612"
    },
    {
      "channel": 3,
      "note": 84,
      "start": 40.3884,
      "duration": 0.0275,
      "velocity": 124,
      "chip": "ym2612"
    },
    {
      "channel": 3,
      "note": 85,
      "start": 40.5383,
      "duration": 0.0307,
      "velocity": 124,
      "chip": "ym2612"
    },
    {
      "channel": 2,
      "note": 57,
      "start": 40.592,
      "duration": 0.2472,
      "velocity": 108,
      "chip": "ym2612"
    },
    {
      "channel": 3,
      "note": 84,
      "start": 40.5947,
      "duration": 0.0274,
      "velocity": 124,
      "chip": "ym2612"
    },
    {
      "channel": 3,
      "note": 85,
      "start": 40.7425,
      "duration": 0.0798,
      "velocity": 124,
      "chip": "ym2612"
    },
    {
      "channel": 3,
      "note": 84,
      "start": 40.8448,
      "duration": 0.0133,
      "velocity": 124,
      "chip": "ym2612"
    },
    {
      "channel": 0,
      "note": 72,
      "start": 40.8477,
      "duration": 0.0705,
      "velocity": 106,
      "chip": "ym2612"
    },
    {
      "channel": 1,
      "note": 76,
      "start": 40.8501,
      "duration": 0.0683,
      "velocity": 106,
      "chip": "ym2612"
    },
    {
      "channel": 3,
      "note": 85,
      "start": 40.922,
      "duration": 0.0797,
      "velocity": 124,
      "chip": "ym2612"
    },
    {
      "channel": 3,
      "note": 84,
      "start": 41.0218,
      "duration": 0.08,
      "velocity": 124,
      "chip": "ym2612"
    },
    {
      "channel": 3,
      "note": 85,
      "start": 41.2242,
      "duration": 0.0309,
      "velocity": 124,
      "chip": "ym2612"
    },
    {
      "channel": 3,
      "note": 84,
      "start": 41.2774,
      "duration": 0.031,
      "velocity": 124,
      "chip": "ym2612"
    },
    {
      "channel": 0,
      "note": 67,
      "start": 41.2802,
      "duration": 0.1445,
      "velocity": 106,
      "chip": "ym2612"
    },
    {
      "channel": 1,
      "note": 71,
      "start": 41.2824,
      "duration": 0.1427,
      "velocity": 106,
      "chip": "ym2612"
    },
    {
      "channel": 4,
      "note": 79,
      "start": 41.2848,
      "duration": 0.1405,
      "velocity": 106,
      "chip": "ym2612"
    },
    {
      "channel": 2,
      "note": 83,
      "start": 41.2871,
      "duration": 0.1383,
      "velocity": 106,
      "chip": "ym2612"
    },
    {
      "channel": 5,
      "note": 60,
      "start": 41.4291,
      "duration": 0.3132,
      "velocity": 108,
      "chip": "ym2612"
    },
    {
      "channel": 3,
      "note": 85,
      "start": 41.4322,
      "duration": 0.0765,
      "velocity": 124,
      "chip": "ym2612"
    },
    {
      "channel": 0,
      "note": 69,
      "start": 41.4356,
      "duration": 0.1225,
      "velocity": 106,
      "chip": "ym2612"
    },
    {
      "channel": 1,
      "note": 72,
      "start": 41.4384,
      "duration": 0.1202,
      "velocity": 106,
      "chip": "ym2612"
    },
    {
      "channel": 4,
      "note": 84,
      "start": 41.4417,
      "duration": 0.117,
      "velocity": 106,
      "chip": "ym2612"
    },
    {
      "channel": 2,
      "note": 81,
      "start": 41.4449,
      "duration": 0.1141,
      "velocity": 106,
      "chip": "ym2612"
    },
    {
      "channel": 3,
      "note": 84,
      "start": 41.5292,
      "duration": 0.0795,
      "velocity": 124,
      "chip": "ym2612"
    },
    {
      "channel": 3,
      "note": 85,
      "start": 41.7479,
      "duration": 0.0139,
      "velocity": 124,
      "chip": "ym2612"
    },
    {
      "channel": 0,
      "note": 62,
      "start": 41.801,
      "duration": 0.1741,
      "velocity": 108,
      "chip": "ym2612"
    },
    {
      "channel": 3,
      "note": 84,
      "start": 41.8035,
      "duration": 0.0146,
      "velocity": 124,
      "chip": "ym2612"
    },
    {
      "channel": 1,
      "note": 69,
      "start": 41.8061,
      "duration": 0.0058,
      "velocity": 106,
      "chip": "ym2612"
    },
    {
      "channel": 4,
      "note": 72,
      "start": 41.8083,
      "duration": 0.0668,
      "velocity": 106,
      "chip": "ym2612"
    },
    {
      "channel": 2,
      "note": 84,
      "start": 41.8115,
      "duration": 0.0638,
      "velocity": 106,
      "chip": "ym2612"
    },
    {
      "channel": 1,
      "note": 81,
      "start": 41.814,
      "duration": 0.061,
      "velocity": 106,
      "chip": "ym2612"
    },
    {
      "channel": 3,
      "note": 85,
      "start": 41.8788,
      "duration": 0.0629,
      "velocity": 124,
      "chip": "ym2612"
    },
    {
      "channel": 3,
      "note": 84,
      "start": 41.9787,
      "duration": 0.0632,
      "velocity": 124,
      "chip": "ym2612"
    },
    {
      "channel": 0,
      "note": 63,
      "start": 42.1811,
      "duration": 0.1997,
      "velocity": 108,
      "chip": "ym2612"
    },
    {
      "channel": 3,
      "note": 85,
      "start": 42.1834,
      "duration": 0.0116,
      "velocity": 124,
      "chip": "ym2612"
    },
    {
      "channel": 3,
      "note": 84,
      "start": 42.2339,
      "duration": 0.0138,
      "velocity": 124,
      "chip": "ym2612"
    },
    {
      "channel": 3,
      "note": 85,
      "start": 42.3873,
      "duration": 0.0137,
      "velocity": 124,
      "chip": "ym2612"
    },
    {
      "channel": 0,
      "note": 64,
      "start": 42.44,
      "duration": 0.165,
      "velocity": 108,
      "chip": "ym2612"
    },
    {
      "channel": 3,
      "note": 84,
      "start": 42.4427,
      "duration": 0.0112,
      "velocity": 124,
      "chip": "ym2612"
    },
    {
      "channel": 3,
      "note": 85,
      "start": 42.593,
      "duration": 0.0076,
      "velocity": 124,
      "chip": "ym2612"
    },
    {
      "channel": 3,
      "note": 84,
      "start": 42.6121,
      "duration": 0.0113,
      "velocity": 124,
      "chip": "ym2612"
    },
    {
      "channel": 1,
      "note": 67,
      "start": 42.6149,
      "duration": 0.0681,
      "velocity": 106,
      "chip": "ym2612"
    },
    {
      "channel": 4,
      "note": 71,
      "start": 42.6172,
      "duration": 0.0661,
      "velocity": 106,
      "chip": "ym2612"
    },
    {
      "channel": 0,
      "note": 67,
      "start": 42.6889,
      "duration": 0.1266,
      "velocity": 108,
      "chip": "ym2612"
    },
    {
      "channel": 3,
      "note": 85,
      "start": 42.6912,
      "duration": 0.0162,
      "velocity": 124,
      "chip": "ym2612"
    },
    {
      "channel": 1,
      "note": 69,
      "start": 42.6941,
      "duration": 0.0059,
      "velocity": 106,
      "chip": "ym2612"
    },
    {
      "channel": 4,
      "note": 72,
      "start": 42.6963,
      "duration": 0.1198,
      "velocity": 106,
      "chip": "ym2612"
    },
    {
      "channel": 2,
      "note": 81,
      "start": 42.6988,
      "duration": 0.1175,
      "velocity": 106,
      "chip": "ym2612"
    },
    {
      "channel": 1,
      "note": 84,
      "start": 42.7022,
      "duration": 0.0404,
      "velocity": 106,
      "chip": "ym2612"
    },
    {
      "channel": 3,
      "note": 84,
      "start": 42.7423,
      "duration": 0.0094,
      "velocity": 124,
      "chip": "ym2612"
    },
    {
      "channel": 1,
      "note": 91,
      "start": 42.7452,
      "duration": 0.0707,
      "velocity": 104,
      "chip": "ym2612"
    },
    {
      "channel": 0,
      "note": 64,
      "start": 42.822,
      "duration": 0.0151,
      "velocity": 108,
      "chip": "ym2612"
    },
    {
      "channel": 3,
      "note": 85,
      "start": 42.8245,
      "duration": 0.0083,
      "velocity": 124,
      "chip": "ym2612"
    },
    {
      "channel": 1,
      "note": 93,
      "start": 42.827,
      "duration": 0.0607,
      "velocity": 104,
      "chip": "ym2612"
    },
    {
      "channel": 0,
      "note": 57,
      "start": 42.8431,
      "duration": 0.4982,
      "velocity": 108,
      "chip": "ym2612"
    },
    {
      "channel": 3,
      "note": 84,
      "start": 42.8458,
      "duration": 0.0118,
      "velocity": 124,
      "chip": "ym2612"
    },
    {
      "channel": 4,
      "note": 88,
      "start": 42.8485,
      "duration": 1.132,
      "velocity": 127,
      "chip": "ym2612"
    },
    {
      "channel": 2,
      "note": 81,
      "start": 42.8511,
      "duration": 1.1295,
      "velocity": 127,
      "chip": "ym2612"
    },
    {
      "channel": 3,
      "note": 85,
      "start": 42.9914,
      "duration": 0.0799,
      "velocity": 124,
      "chip": "ym2612"
    },
    {
      "channel": 3,
      "note": 84,
      "start": 43.0919,
      "duration": 0.0796,
      "velocity": 124,
      "chip": "ym2612"
    },
    {
      "channel": 3,
      "note": 85,
      "start": 43.2944,
      "duration": 0.0304,
      "velocity": 124,
      "chip": "ym2612"
    },
    {
      "channel": 0,
      "note": 64,
      "start": 43.3471,
      "duration": 0.4263,
      "velocity": 108,
      "chip": "ym2612"
    },
    {
      "channel": 3,
      "note": 84,
      "start": 43.3493,
      "duration": 0.009,
      "velocity": 124,
      "chip": "ym2612"
    },
    {
      "channel": 3,
      "note": 85,
      "start": 43.4241,
      "duration": 0.0799,
      "velocity": 124,
      "chip": "ym2612"
    },
    {
      "channel": 3,
      "note": 84,
      "start": 43.5242,
      "duration": 0.0799,
      "velocity": 124,
      "chip": "ym2612"
    },
    {
      "channel": 3,
      "note": 85,
      "start": 43.7265,
      "duration": 0.0308,
      "velocity": 124,
      "chip": "ym2612"
    },
    {
      "channel": 0,
      "note": 62,
      "start": 43.7797,
      "duration": 0.3539,
      "velocity": 108,
      "chip": "ym2612"
    },
    {
      "channel": 3,
      "note": 84,
      "start": 43.7823,
      "duration": 0.0282,
      "velocity": 124,
      "chip": "ym2612"
    },
    {
      "channel": 3,
      "note": 85,
      "start": 43.933,
      "duration": 0.0308,
      "velocity": 124,
      "chip": "ym2612"
    },
    {
      "channel": 3,
      "note": 84,
      "start": 43.9863,
      "duration": 0.0305,
      "velocity": 124,
      "chip": "ym2612"
    },
    {
      "channel": 0,
      "note": 60,
      "start": 44.1373,
      "duration": 0.096,
      "velocity": 108,
      "chip": "ym2612"
    },
    {
      "channel": 3,
      "note": 85,
      "start": 44.1404,
      "duration": 0.0767,
      "velocity": 124,
      "chip": "ym2612"
    },
    {
      "channel": 3,
      "note": 84,
      "start": 44.2394,
      "duration": 0.0098,
      "velocity": 124,
      "chip": "ym2612"
    },
    {
      "channel": 0,
      "note": 59,
      "start": 44.3162,
      "duration": 0.0969,
      "velocity": 108,
      "chip": "ym2612"
    },
    {
      "channel": 3,
      "note": 85,
      "start": 44.3193,
      "duration": 0.0773,
      "velocity": 124,
      "chip": "ym2612"
    },
    {
      "channel": 3,
      "note": 84,
      "start": 44.4168,
      "duration": 0.0798,
      "velocity": 124,
      "chip": "ym2612"
    },
    {
      "channel": 0,
      "note": 59,
      "start": 44.6335,
      "duration": 0.0963,
      "velocity": 108,
      "chip": "ym2612"
    },
    {
      "channel": 3,
      "note": 85,
      "start": 44.6365,
      "duration": 0.0604,
      "velocity": 124,
      "chip": "ym2612"
    },
    {
      "channel": 0,
      "note": 57,
      "start": 44.7358,
      "duration": 0.5475,
      "velocity": 108,
      "chip": "ym2612"
    },
    {
      "channel": 3,
      "note": 84,
      "start": 44.7381,
      "duration": 0.0116,
      "velocity": 124,
      "chip": "ym2612"
    },
    {
      "channel": 3,
      "note": 85,
      "start": 44.8867,
      "duration": 0.0632,
      "velocity": 124,
      "chip": "ym2612"
    },
    {
      "channel": 3,
      "note": 84,
      "start": 44.9873,
      "duration": 0.0628,
      "velocity": 124,
      "chip": "ym2612"
    },
    {
      "channel": 3,
      "note": 85,
      "start": 45.1871,
      "duration": 0.0633,
      "velocity": 124,
      "chip": "ym2612"
    },
    {
      "channel": 0,
      "note": 64,
      "start": 45.29,
      "duration": 0.4263,
      "velocity": 108,
      "chip": "ym2612"
    },
    {
      "channel": 3,
      "note": 84,
      "start": 45.2926,
      "duration": 0.0065,
      "velocity": 124,
      "chip": "ym2612"
    },
    {
      "channel": 3,
      "note": 85,
      "start": 45.3668,
      "duration": 0.0632,
      "velocity": 124,
      "chip": "ym2612"
    },
    {
      "channel": 3,
      "note": 84,
      "start": 45.4669,
      "duration": 0.0632,
      "velocity": 124,
      "chip": "ym2612"
    },
    {
      "channel": 3,
      "note": 85,
      "start": 45.6693,
      "duration": 0.0139,
      "velocity": 124,
      "chip": "ym2612"
    },
    {
      "channel": 0,
      "note": 62,
      "start": 45.7203,
      "duration": 0.4492,
      "velocity": 108,
      "chip": "ym2612"
    },
    {
      "channel": 3,
      "note": 84,
      "start": 45.7233,
      "duration": 0.0601,
      "velocity": 124,
      "chip": "ym2612"
    },
    {
      "channel": 4,
      "note": 84,
      "start": 45.7271,
      "duration": 0.4958,
      "velocity": 127,
      "chip": "ym2612"
    },
    {
      "channel": 2,
      "note": 91,
      "start": 45.7305,
      "duration": 0.4926,
      "velocity": 127,
      "chip": "ym2612"
    },
    {
      "channel": 3,
      "note": 85,
      "start": 45.9224,
      "duration": 0.0139,
      "velocity": 124,
      "chip": "ym2612"
    },
    {
      "channel": 3,
      "note": 84,
      "start": 45.9736,
      "duration": 0.0628,
      "velocity": 124,
      "chip": "ym2612"
    },
    {
      "channel": 0,
      "note": 60,
      "start": 46.1758,
      "duration": 0.0469,
      "velocity": 108,
      "chip": "ym2612"
    },
    {
      "channel": 3,
      "note": 85,
      "start": 46.1783,
      "duration": 0.011,
      "velocity": 124,
      "chip": "ym2612"
    },
    {
      "channel": 3,
      "note": 84,
      "start": 46.2286,
      "duration": 0.0114,
      "velocity": 124,
      "chip": "ym2612"
    },
    {
      "channel": 4,
      "note": 79,
      "start": 46.2316,
      "duration": 0.2556,
      "velocity": 127,
      "chip": "ym2612"
    },
    {
      "channel": 2,
      "note": 86,
      "start": 46.2343,
      "duration": 0.2531,
      "velocity": 127,
      "chip": "ym2612"
    },
    {
      "channel": 0,
      "note": 59,
      "start": 46.3074,
      "duration": 0.0475,
      "velocity": 108,
      "chip": "ym2612"
    },
    {
      "channel": 3,
      "note": 85,
      "start": 46.3096,
      "duration": 0.0285,
      "velocity": 124,
      "chip": "ym2612"
    },
    {
      "channel": 3,
      "note": 84,
      "start": 46.3606,
      "duration": 0.0098,
      "velocity": 124,
      "chip": "ym2612"
    },
    {
      "channel": 0,
      "note": 59,
      "start": 46.4399,
      "duration": 0.0467,
      "velocity": 108,
      "chip": "ym2612"
    },
    {
      "channel": 3,
      "note": 85,
      "start": 46.4421,
      "duration": 0.0283,
      "velocity": 124,
      "chip": "ym2612"
    },
    {
      "channel": 0,
      "note": 57,
      "start": 46.4931,
      "duration": 0.5476,
      "velocity": 108,
      "chip": "ym2612"
    },
    {
      "channel": 3,
      "note": 84,
      "start": 46.4956,
      "duration": 0.0278,
      "velocity": 124,
      "chip": "ym2612"
    },
    {
      "channel": 4,
      "note": 81,
      "start": 46.4983,
      "duration": 1.2282,
      "velocity": 127,
      "chip": "ym2612"
    },
    {
      "channel": 2,
      "note": 88,
      "start": 46.5009,
      "duration": 1.2257,
      "velocity": 127,
      "chip": "ym2612"
    },
    {
      "channel": 3,
      "note": 85,
      "start": 46.6438,
      "duration": 0.0799,
      "velocity": 124,
      "chip": "ym2612"
    },
    {
      "channel": 3,
      "note": 84,
      "start": 46.7443,
      "duration": 0.0795,
      "velocity": 124,
      "chip": "ym2612"
    },
    {
      "channel": 3,
      "note": 85,
      "start": 46.9441,
      "duration": 0.0799,
      "velocity": 124,
      "chip": "ym2612"
    },
    {
      "channel": 0,
      "note": 64,
      "start": 47.047,
      "duration": 0.3734,
      "velocity": 108,
      "chip": "ym2612"
    },
    {
      "channel": 3,
      "note": 84,
      "start": 47.0495,
      "duration": 0.0088,
      "velocity": 124,
      "chip": "ym2612"
    },
    {
      "channel": 3,
      "note": 85,
      "start": 47.1235,
      "duration": 0.0799,
      "velocity": 124,
      "chip": "ym2612"
    },
    {
      "channel": 3,
      "note": 84,
      "start": 47.2237,
      "duration": 0.0799,
      "velocity": 124,
      "chip": "ym2612"
    },
    {
      "channel": 3,
      "note": 85,
      "start": 47.4262,
      "duration": 0.0303,
      "velocity": 124,
      "chip": "ym2612"
    },
    {
      "channel": 0,
      "note": 62,
      "start": 47.4773,
      "duration": 0.2485,
      "velocity": 108,
      "chip": "ym2612"
    },
    {
      "channel": 3,
      "note": 84,
      "start": 47.4803,
      "duration": 0.0765,
      "velocity": 124,
      "chip": "ym2612"
    },
    {
      "channel": 1,
      "note": 84,
      "start": 47.4841,
      "duration": 0.1393,
      "velocity": 106,
      "chip": "ym2612"
    },
    {
      "channel": 5,
      "note": 81,
      "start": 47.4872,
      "duration": 0.1364,
      "velocity": 106,
      "chip": "ym2612"
    },
    {
      "channel": 1,
      "note": 81,
      "start": 47.6276,
      "duration": 0.0987,
      "velocity": 106,
      "chip": "ym2612"
    },
    {
      "channel": 5,
      "note": 84,
      "start": 47.6307,
      "duration": 0.0437,
      "velocity": 106,
      "chip": "ym2612"
    },
    {
      "channel": 3,
      "note": 85,
      "start": 47.6792,
      "duration": 0.0304,
      "velocity": 124,
      "chip": "ym2612"
    },
    {
      "channel": 3,
      "note": 84,
      "start": 47.7323,
      "duration": 0.0301,
      "velocity": 124,
      "chip": "ym2612"
    },
    {
      "channel": 0,
      "note": 60,
      "start": 47.8828,
      "duration": 0.1132,
      "velocity": 108,
      "chip": "ym2612"
    },
    {
      "channel": 3,
      "note": 85,
      "start": 47.8858,
      "duration": 0.0769,
      "velocity": 124,
      "chip": "ym2612"
    },
    {
      "channel": 3,
      "note": 84,
      "start": 48.0017,
      "duration": 0.0112,
      "velocity": 124,
      "chip": "ym2612"
    },
    {
      "channel": 1,
      "note": 79,
      "start": 48.0046,
      "duration": 0.0208,
      "velocity": 106,
      "chip": "ym2612"
    },
    {
      "channel": 4,
      "note": 83,
      "start": 48.0069,
      "duration": 0.0186,
      "velocity": 106,
      "chip": "ym2612"
    },
    {
      "channel": 1,
      "note": 79,
      "start": 48.03,
      "duration": 0.1456,
      "velocity": 106,
      "chip": "ym2612"
    },
    {
      "channel": 4,
      "note": 83,
      "start": 48.033,
      "duration": 0.1427,
      "velocity": 106,
      "chip": "ym2612"
    },
    {
      "channel": 0,
      "note": 59,
      "start": 48.0786,
      "duration": 0.0964,
      "velocity": 108,
      "chip": "ym2612"
    },
    {
      "channel": 3,
      "note": 85,
      "start": 48.0817,
      "duration": 0.0605,
      "velocity": 124,
      "chip": "ym2612"
    },
    {
      "channel": 3,
      "note": 84,
      "start": 48.1793,
      "duration": 0.063,
      "velocity": 124,
      "chip": "ym2612"
    },
    {
      "channel": 0,
      "note": 59,
      "start": 48.3815,
      "duration": 0.0469,
      "velocity": 108,
      "chip": "ym2612"
    },
    {
      "channel": 3,
      "note": 85,
      "start": 48.3838,
      "duration": 0.0117,
      "velocity": 124,
      "chip": "ym2612"
    },
    {
      "channel": 0,
      "note": 57,
      "start": 48.4324,
      "duration": 0.5498,
      "velocity": 108,
      "chip": "ym2612"
    },
    {
      "channel": 3,
      "note": 84,
      "start": 48.4355,
      "duration": 0.0602,
      "velocity": 124,
      "chip": "ym2612"
    },
    {
      "channel": 1,
      "note": 81,
      "start": 48.4389,
      "duration": 0.1401,
      "velocity": 106,
      "chip": "ym2612"
    },
    {
      "channel": 4,
      "note": 84,
      "start": 48.4419,
      "duration": 0.1373,
      "velocity": 106,
      "chip": "ym2612"
    },
    {
      "channel": 1,
      "note": 81,
      "start": 48.5832,
      "duration": 0.146,
      "velocity": 106,
      "chip": "ym2612"
    },
    {
      "channel": 4,
      "note": 84,
      "start": 48.5862,
      "duration": 0.1432,
      "velocity": 106,
      "chip": "ym2612"
    },
    {
      "channel": 3,
      "note": 85,
      "start": 48.6326,
      "duration": 0.0633,
      "velocity": 124,
      "chip": "ym2612"
    },
    {
      "channel": 3,
      "note": 84,
      "start": 48.7351,
      "duration": 0.0135,
      "velocity": 124,
      "chip": "ym2612"
    },
    {
      "channel": 3,
      "note": 85,
      "start": 48.8857,
      "duration": 0.0632,
      "velocity": 124,
      "chip": "ym2612"
    },
    {
      "channel": 0,
      "note": 59,
      "start": 48.9881,
      "duration": 0.3737,
      "velocity": 108,
      "chip": "ym2612"
    },
    {
      "channel": 3,
      "note": 84,
      "start": 48.9903,
      "duration": 0.0109,
      "velocity": 124,
      "chip": "ym2612"
    },
    {
      "channel": 1,
      "note": 84,
      "start": 48.9932,
      "duration": 0.0202,
      "velocity": 106,
      "chip": "ym2612"
    },
    {
      "channel": 4,
      "note": 88,
      "start": 48.9955,
      "duration": 0.018,
      "velocity": 106,
      "chip": "ym2612"
    },
    {
      "channel": 1,
      "note": 84,
      "start": 49.0179,
      "duration": 0.1436,
      "velocity": 106,
      "chip": "ym2612"
    },
    {
      "channel": 4,
      "note": 88,
      "start": 49.021,
      "duration": 0.1407,
      "velocity": 106,
      "chip": "ym2612"
    },
    {
      "channel": 3,
      "note": 85,
      "start": 49.0651,
      "duration": 0.0631,
      "velocity": 124,
      "chip": "ym2612"
    },
    {
      "channel": 3,
      "note": 84,
      "start": 49.1653,
      "duration": 0.0631,
      "velocity": 124,
      "chip": "ym2612"
    },
    {
      "channel": 3,
      "note": 85,
      "start": 49.368,
      "duration": 0.0134,
      "velocity": 124,
      "chip": "ym2612"
    },
    {
      "channel": 0,
      "note": 60,
      "start": 49.4185,
      "duration": 0.2495,
      "velocity": 108,
      "chip": "ym2612"
    },
    {
      "channel": 3,
      "note": 84,
      "start": 49.4215,
      "duration": 0.0601,
      "velocity": 124,
      "chip": "ym2612"
    },
    {
      "channel": 1,
      "note": 84,
      "start": 49.4249,
      "duration": 0.1401,
      "velocity": 106,
      "chip": "ym2612"
    },
    {
      "channel": 4,
      "note": 81,
      "start": 49.4279,
      "duration": 0.1372,
      "velocity": 106,
      "chip": "ym2612"
    },
    {
      "channel": 1,
      "note": 81,
      "start": 49.5692,
      "duration": 0.0989,
      "velocity": 106,
      "chip": "ym2612"
    },
    {
      "channel": 4,
      "note": 84,
      "start": 49.5722,
      "duration": 0.096,
      "velocity": 106,
      "chip": "ym2612"
    },
    {
      "channel": 3,
      "note": 85,
      "start": 49.6208,
      "duration": 0.0305,
      "velocity": 124,
      "chip": "ym2612"
    },
    {
      "channel": 3,
      "note": 84,
      "start": 49.6739,
      "duration": 0.0301,
      "velocity": 124,
      "chip": "ym2612"
    },
    {
      "channel": 0,
      "note": 62,
      "start": 49.8248,
      "duration": 0.0957,
      "velocity": 108,
      "chip": "ym2612"
    },
    {
      "channel": 3,
      "note": 85,
      "start": 49.8279,
      "duration": 0.0764,
      "velocity": 124,
      "chip": "ym2612"
    },
    {
      "channel": 3,
      "note": 84,
      "start": 49.9265,
      "duration": 0.0132,
      "velocity": 124,
      "chip": "ym2612"
    },
    {
      "channel": 1,
      "note": 83,
      "start": 49.9293,
      "duration": 0.0205,
      "velocity": 106,
      "chip": "ym2612"
    },
    {
      "channel": 4,
      "note": 79,
      "start": 49.9317,
      "duration": 0.0183,
      "velocity": 106,
      "chip": "ym2612"
    },
    {
      "channel": 0,
      "note": 63,
      "start": 50.0032,
      "duration": 0.0969,
      "velocity": 108,
      "chip": "ym2612"
    },
    {
      "channel": 3,
      "note": 85,
      "start": 50.0062,
      "duration": 0.0772,
      "velocity": 124,
      "chip": "ym2612"
    },
    {
      "channel": 3,
      "note": 84,
      "start": 50.1058,
      "duration": 0.0135,
      "velocity": 124,
      "chip": "ym2612"
    },
    {
      "channel": 1,
      "note": 79,
      "start": 50.1088,
      "duration": 0.0713,
      "velocity": 106,
      "chip": "ym2612"
    },
    {
      "channel": 4,
      "note": 83,
      "start": 50.1111,
      "duration": 0.0691,
      "velocity": 106,
      "chip": "ym2612"
    },
    {
      "channel": 0,
      "note": 64,
      "start": 50.1859,
      "duration": 0.0174,
      "velocity": 108,
      "chip": "ym2612"
    },
    {
      "channel": 3,
      "note": 85,
      "start": 50.1882,
      "duration": 0.0128,
      "velocity": 124,
      "chip": "ym2612"
    },
    {
      "channel": 1,
      "note": 81,
      "start": 50.1911,
      "duration": 0.0242,
      "velocity": 106,
      "chip": "ym2612"
    },
    {
      "channel": 4,
      "note": 84,
      "start": 50.1935,
      "duration": 0.0255,
      "velocity": 106,
      "chip": "ym2612"
    },
    {
      "channel": 0,
      "note": 57,
      "start": 50.2101,
      "duration": 0.4393,
      "velocity": 108,
      "chip": "ym2612"
    },
    {
      "channel": 3,
      "note": 84,
      "start": 50.2124,
      "duration": 0.0199,
      "velocity": 124,
      "chip": "ym2612"
    },
    {
      "channel": 2,
      "note": 88,
      "start": 50.215,
      "duration": 1.1434,
      "velocity": 127,
      "chip": "ym2612"
    },
    {
      "channel": 1,
      "note": 81,
      "start": 50.2181,
      "duration": 1.14,
      "velocity": 127,
      "chip": "ym2612"
    },
    {
      "channel": 3,
      "note": 85,
      "start": 50.3526,
      "duration": 0.0799,
      "velocity": 124,
      "chip": "ym2612"
    },
    {
      "channel": 3,
      "note": 84,
      "start": 50.4531,
      "duration": 0.0796,
      "velocity": 124,
      "chip": "ym2612"
    },
    {
      "channel": 3,
      "note": 85,
      "start": 50.6551,
      "duration": 0.0307,
      "velocity": 124,
      "chip": "ym2612"
    },
    {
      "channel": 0,
      "note": 64,
      "start": 50.7085,
      "duration": 0.3738,
      "velocity": 108,
      "chip": "ym2612"
    },
    {
      "channel": 3,
      "note": 84,
      "start": 50.7107,
      "duration": 0.0094,
      "velocity": 124,
      "chip": "ym2612"
    },
    {
      "channel": 3,
      "note": 85,
      "start": 50.7855,
      "duration": 0.0799,
      "velocity": 124,
      "chip": "ym2612"
    },
    {
      "channel": 3,
      "note": 84,
      "start": 50.8857,
      "duration": 0.0799,
      "velocity": 124,
      "chip": "ym2612"
    },
    {
      "channel": 3,
      "note": 85,
      "start": 51.0881,
      "duration": 0.0305,
      "velocity": 124,
      "chip": "ym2612"
    },
    {
      "channel": 0,
      "note": 62,
      "start": 51.1578,
      "duration": 0.1998,
      "velocity": 108,
      "chip": "ym2612"
    },
    {
      "channel": 3,
      "note": 84,
      "start": 51.1604,
      "duration": 0.0112,
      "velocity": 124,
      "chip": "ym2612"
    },
    {
      "channel": 3,
      "note": 85,
      "start": 51.3107,
      "duration": 0.0141,
      "velocity": 124,
      "chip": "ym2612"
    },
    {
      "channel": 3,
      "note": 84,
      "start": 51.3641,
      "duration": 0.0138,
      "velocity": 124,
      "chip": "ym2612"
    },
    {
      "channel": 0,
      "note": 60,
      "start": 51.5149,
      "duration": 0.0961,
      "velocity": 108,
      "chip": "ym2612"
    },
    {
      "channel": 3,
      "note": 85,
      "start": 51.5179,
      "duration": 0.0602,
      "velocity": 124,
      "chip": "ym2612"
    },
    {
      "channel": 3,
      "note": 84,
      "start": 51.6172,
      "duration": 0.0078,
      "velocity": 124,
      "chip": "ym2612"
    },
    {
      "channel": 0,
      "note": 59,
      "start": 51.695,
      "duration": 0.096,
      "velocity": 108,
      "chip": "ym2612"
    },
    {
      "channel": 3,
      "note": 85,
      "start": 51.698,
      "duration": 0.0601,
      "velocity": 124,
      "chip": "ym2612"
    },
    {
      "channel": 3,
      "note": 84,
      "start": 51.795,
      "duration": 0.0632,
      "velocity": 124,
      "chip": "ym2612"
    },
    {
      "channel": 0,
      "note": 59,
      "start": 51.9951,
      "duration": 0.0963,
      "velocity": 108,
      "chip": "ym2612"
    },
    {
      "channel": 3,
      "note": 85,
      "start": 51.9981,
      "duration": 0.0604,
      "velocity": 124,
      "chip": "ym2612"
    },
    {
      "channel": 0,
      "note": 57,
      "start": 52.0974,
      "duration": 0.4475,
      "velocity": 108,
      "chip": "ym2612"
    },
    {
      "channel": 3,
      "note": 84,
      "start": 52.0997,
      "duration": 0.0117,
      "velocity": 124,
      "chip": "ym2612"
    },
    {
      "channel": 3,
      "note": 85,
      "start": 52.2484,
      "duration": 0.0632,
      "velocity": 124,
      "chip": "ym2612"
    },
    {
      "channel": 3,
      "note": 84,
      "start": 52.349,
      "duration": 0.0628,
      "velocity": 124,
      "chip": "ym2612"
    },
    {
      "channel": 3,
      "note": 85,
      "start": 52.5489,
      "duration": 0.0632,
      "velocity": 124,
      "chip": "ym2612"
    },
    {
      "channel": 0,
      "note": 64,
      "start": 52.6511,
      "duration": 0.3745,
      "velocity": 108,
      "chip": "ym2612"
    },
    {
      "channel": 3,
      "note": 84,
      "start": 52.6534,
      "duration": 0.0073,
      "velocity": 124,
      "chip": "ym2612"
    },
    {
      "channel": 3,
      "note": 85,
      "start": 52.7293,
      "duration": 0.0632,
      "velocity": 124,
      "chip": "ym2612"
    },
    {
      "channel": 3,
      "note": 84,
      "start": 52.8293,
      "duration": 0.08,
      "velocity": 124,
      "chip": "ym2612"
    },
    {
      "channel": 3,
      "note": 85,
      "start": 53.0317,
      "duration": 0.0309,
      "velocity": 124,
      "chip": "ym2612"
    },
    {
      "channel": 0,
      "note": 62,
      "start": 53.0828,
      "duration": 0.2494,
      "velocity": 108,
      "chip": "ym2612"
    },
    {
      "channel": 3,
      "note": 84,
      "start": 53.0859,
      "duration": 0.0769,
      "velocity": 124,
      "chip": "ym2612"
    },
    {
      "channel": 1,
      "note": 79,
      "start": 53.0899,
      "duration": 0.7598,
      "velocity": 127,
      "chip": "ym2612"
    },
    {
      "channel": 2,
      "note": 84,
      "start": 53.0932,
      "duration": 0.757,
      "velocity": 127,
      "chip": "ym2612"
    },
    {
      "channel": 3,
      "note": 85,
      "start": 53.2854,
      "duration": 0.0302,
      "velocity": 124,
      "chip": "ym2612"
    },
    {
      "channel": 3,
      "note": 84,
      "start": 53.3363,
      "duration": 0.0794,
      "velocity": 124,
      "chip": "ym2612"
    },
    {
      "channel": 0,
      "note": 60,
      "start": 53.5383,
      "duration": 0.0472,
      "velocity": 108,
      "chip": "ym2612"
    },
    {
      "channel": 3,
      "note": 85,
      "start": 53.5405,
      "duration": 0.0284,
      "velocity": 124,
      "chip": "ym2612"
    },
    {
      "channel": 0,
      "note": 62,
      "start": 53.5913,
      "duration": 0.0732,
      "velocity": 108,
      "chip": "ym2612"
    },
    {
      "channel": 3,
      "note": 84,
      "start": 53.5938,
      "duration": 0.0089,
      "velocity": 124,
      "chip": "ym2612"
    },
    {
      "channel": 0,
      "note": 64,
      "start": 53.6706,
      "duration": 0.1266,
      "velocity": 108,
      "chip": "ym2612"
    },
    {
      "channel": 3,
      "note": 85,
      "start": 53.6732,
      "duration": 0.0278,
      "velocity": 124,
      "chip": "ym2612"
    },
    {
      "channel": 3,
      "note": 84,
      "start": 53.7233,
      "duration": 0.0095,
      "velocity": 124,
      "chip": "ym2612"
    },
    {
      "channel": 3,
      "note": 85,
      "start": 53.8029,
      "duration": 0.0305,
      "velocity": 124,
      "chip": "ym2612"
    },
    {
      "channel": 0,
      "note": 57,
      "start": 53.8559,
      "duration": 0.548,
      "velocity": 108,
      "chip": "ym2612"
    },
    {
      "channel": 3,
      "note": 84,
      "start": 53.8585,
      "duration": 0.0281,
      "velocity": 124,
      "chip": "ym2612"
    },
    {
      "channel": 1,
      "note": 76,
      "start": 53.8612,
      "duration": 1.2449,
      "velocity": 127,
      "chip": "ym2612"
    },
    {
      "channel": 2,
      "note": 81,
      "start": 53.8638,
      "duration": 1.2425,
      "velocity": 127,
      "chip": "ym2612"
    },
    {
      "channel": 3,
      "note": 85,
      "start": 54.007,
      "duration": 0.08,
      "velocity": 124,
      "chip": "ym2612"
    },
    {
      "channel": 3,
      "note": 84,
      "start": 54.1076,
      "duration": 0.0795,
      "velocity": 124,
      "chip": "ym2612"
    },
    {
      "channel": 3,
      "note": 85,
      "start": 54.3074,
      "duration": 0.0799,
      "velocity": 124,
      "chip": "ym2612"
    },
    {
      "channel": 0,
      "note": 64,
      "start": 54.4098,
      "duration": 0.4429,
      "velocity": 108,
      "chip": "ym2612"
    },
    {
      "channel": 3,
      "note": 84,
      "start": 54.4121,
      "duration": 0.009,
      "velocity": 124,
      "chip": "ym2612"
    },
    {
      "channel": 3,
      "note": 85,
      "start": 54.5033,
      "duration": 0.0631,
      "velocity": 124,
      "chip": "ym2612"
    },
    {
      "channel": 3,
      "note": 84,
      "start": 54.6034,
      "duration": 0.0632,
      "velocity": 124,
      "chip": "ym2612"
    },
    {
      "channel": 3,
      "note": 85,
      "start": 54.8061,
      "duration": 0.0133,
      "velocity": 124,
      "chip": "ym2612"
    },
    {
      "channel": 0,
      "note": 62,
      "start": 54.8565,
      "duration": 0.4026,
      "velocity": 108,
      "chip": "ym2612"
    },
    {
      "channel": 3,
      "note": 84,
      "start": 54.8595,
      "duration": 0.0601,
      "velocity": 124,
      "chip": "ym2612"
    },
    {
      "channel": 3,
      "note": 85,
      "start": 55.0587,
      "duration": 0.014,
      "velocity": 124,
      "chip": "ym2612"
    },
    {
      "channel": 3,
      "note": 84,
      "start": 55.112,
      "duration": 0.0136,
      "velocity": 124,
      "chip": "ym2612"
    },
    {
      "channel": 0,
      "note": 60,
      "start": 55.2628,
      "duration": 0.0965,
      "velocity": 108,
      "chip": "ym2612"
    },
    {
      "channel": 3,
      "note": 85,
      "start": 55.2659,
      "duration": 0.0601,
      "velocity": 124,
      "chip": "ym2612"
    },
    {
      "channel": 3,
      "note": 84,
      "start": 55.3651,
      "duration": 0.0079,
      "velocity": 124,
      "chip": "ym2612"
    },
    {
      "channel": 0,
      "note": 60,
      "start": 55.4427,
      "duration": 0.0967,
      "velocity": 108,
      "chip": "ym2612"
    },
    {
      "channel": 3,
      "note": 85,
      "start": 55.4457,
      "duration": 0.0604,
      "velocity": 124,
      "chip": "ym2612"
    },
    {
      "channel": 3,
      "note": 84,
      "start": 55.5431,
      "duration": 0.0632,
      "velocity": 124,
      "chip": "ym2612"
    },
    {
      "channel": 0,
      "note": 60,
      "start": 55.7454,
      "duration": 0.0472,
      "velocity": 108,
      "chip": "ym2612"
    },
    {
      "channel": 3,
      "note": 85,
      "start": 55.7477,
      "duration": 0.012,
      "velocity": 124,
      "chip": "ym2612"
    },
    {
      "channel": 0,
      "note": 65,
      "start": 55.7991,
      "duration": 0.0737,
      "velocity": 108,
      "chip": "ym2612"
    },
    {
      "channel": 3,
      "note": 84,
      "start": 55.8016,
      "duration": 0.0104,
      "velocity": 124,
      "chip": "ym2612"
    },
    {
      "channel": 4,
      "note": 79,
      "start": 55.8041,
      "duration": 0.0205,
      "velocity": 106,
      "chip": "ym2612"
    },
    {
      "channel": 1,
      "note": 83,
      "start": 55.8064,
      "duration": 0.018,
      "velocity": 106,
      "chip": "ym2612"
    },
    {
      "channel": 1,
      "note": 79,
      "start": 55.829,
      "duration": 0.0968,
      "velocity": 106,
      "chip": "ym2612"
    },
    {
      "channel": 4,
      "note": 83,
      "start": 55.832,
      "duration": 0.0939,
      "velocity": 106,
      "chip": "ym2612"
    },
    {
      "channel": 3,
      "note": 85,
      "start": 55.8788,
      "duration": 0.0136,
      "velocity": 124,
      "chip": "ym2612"
    },
    {
      "channel": 0,
      "note": 65,
      "start": 55.9322,
      "duration": 0.0728,
      "velocity": 108,
      "chip": "ym2612"
    },
    {
      "channel": 3,
      "note": 84,
      "start": 55.9349,
      "duration": 0.0088,
      "velocity": 124,
      "chip": "ym2612"
    },
    {
      "channel": 3,
      "note": 85,
      "start": 56.011,
      "duration": 0.0301,
      "velocity": 124,
      "chip": "ym2612"
    },
    {
      "channel": 0,
      "note": 65,
      "start": 56.0635,
      "duration": 0.0732,
      "velocity": 108,
      "chip": "ym2612"
    },
    {
      "channel": 3,
      "note": 84,
      "start": 56.0658,
      "duration": 0.0134,
      "velocity": 124,
      "chip": "ym2612"
    },
    {
      "channel": 1,
      "note": 81,
      "start": 56.0686,
      "duration": 0.0205,
      "velocity": 106,
      "chip": "ym2612"
    },
    {
      "channel": 4,
      "note": 84,
      "start": 56.0709,
      "duration": 0.0184,
      "velocity": 106,
      "chip": "ym2612"
    },
    {
      "channel": 1,
      "note": 81,
      "start": 56.0933,
      "duration": 0.0966,
      "velocity": 106,
      "chip": "ym2612"
    },
    {
      "channel": 4,
      "note": 84,
      "start": 56.0964,
      "duration": 0.094,
      "velocity": 106,
      "chip": "ym2612"
    },
    {
      "channel": 3,
      "note": 85,
      "start": 56.1431,
      "duration": 0.0306,
      "velocity": 124,
      "chip": "ym2612"
    },
    {
      "channel": 0,
      "note": 65,
      "start": 56.1962,
      "duration": 0.0739,
      "velocity": 108,
      "chip": "ym2612"
    },
    {
      "channel": 3,
      "note": 84,
      "start": 56.1985,
      "duration": 0.0095,
      "velocity": 124,
      "chip": "ym2612"
    },
    {
      "channel": 3,
      "note": 85,
      "start": 56.2766,
      "duration": 0.0303,
      "velocity": 124,
      "chip": "ym2612"
    },
    {
      "channel": 0,
      "note": 64,
      "start": 56.3294,
      "duration": 0.0727,
      "velocity": 108,
      "chip": "ym2612"
    },
    {
      "channel": 3,
      "note": 84,
      "start": 56.3317,
      "duration": 0.0132,
      "velocity": 124,
      "chip": "ym2612"
    },
    {
      "channel": 1,
      "note": 83,
      "start": 56.3345,
      "duration": 0.02,
      "velocity": 106,
      "chip": "ym2612"
    },
    {
      "channel": 4,
      "note": 79,
      "start": 56.3369,
      "duration": 0.0178,
      "velocity": 106,
      "chip": "ym2612"
    },
    {
      "channel": 1,
      "note": 79,
      "start": 56.3591,
      "duration": 0.0966,
      "velocity": 106,
      "chip": "ym2612"
    },
    {
      "channel": 4,
      "note": 83,
      "start": 56.3622,
      "duration": 0.0937,
      "velocity": 106,
      "chip": "ym2612"
    },
    {
      "channel": 3,
      "note": 85,
      "start": 56.4085,
      "duration": 0.0307,
      "velocity": 124,
      "chip": "ym2612"
    },
    {
      "channel": 0,
      "note": 64,
      "start": 56.4618,
      "duration": 0.0734,
      "velocity": 108,
      "chip": "ym2612"
    },
    {
      "channel": 3,
      "note": 84,
      "start": 56.4646,
      "duration": 0.0089,
      "velocity": 124,
      "chip": "ym2612"
    },
    {
      "channel": 3,
      "note": 85,
      "start": 56.5413,
      "duration": 0.0305,
      "velocity": 124,
      "chip": "ym2612"
    },
    {
      "channel": 0,
      "note": 60,
      "start": 56.5941,
      "duration": 0.0202,
      "velocity": 108,
      "chip": "ym2612"
    },
    {
      "channel": 3,
      "note": 84,
      "start": 56.5963,
      "duration": 0.0155,
      "velocity": 124,
      "chip": "ym2612"
    },
    {
      "channel": 2,
      "note": 69,
      "start": 56.5993,
      "duration": 0.0151,
      "velocity": 104,
      "chip": "ym2612"
    },
    {
      "channel": 1,
      "note": 79,
      "start": 56.6017,
      "duration": 0.0252,
      "velocity": 106,
      "chip": "ym2612"
    },
    {
      "channel": 4,
      "note": 74,
      "start": 56.6048,
      "duration": 0.0222,
      "velocity": 106,
      "chip": "ym2612"
    },
    {
      "channel": 0,
      "note": 62,
      "start": 56.6202,
      "duration": 0.0162,
      "velocity": 108,
      "chip": "ym2612"
    },
    {
      "channel": 2,
      "note": 71,
      "start": 56.6226,
      "duration": 0.0139,
      "velocity": 104,
      "chip": "ym2612"
    },
    {
      "channel": 1,
      "note": 74,
      "start": 56.6294,
      "duration": 0.0276,
      "velocity": 106,
      "chip": "ym2612"
    },
    {
      "channel": 4,
      "note": 79,
      "start": 56.6321,
      "duration": 0.025,
      "velocity": 106,
      "chip": "ym2612"
    },
    {
      "channel": 0,
      "note": 64,
      "start": 56.6431,
      "duration": 0.0139,
      "velocity": 108,
      "chip": "ym2612"
    },
    {
      "channel": 3,
      "note": 85,
      "start": 56.6453,
      "duration": 0.0096,
      "velocity": 124,
      "chip": "ym2612"
    },
    {
      "channel": 2,
      "note": 72,
      "start": 56.6476,
      "duration": 0.0095,
      "velocity": 104,
      "chip": "ym2612"
    },
    {
      "channel": 0,
      "note": 60,
      "start": 56.6642,
      "duration": 0.0143,
      "velocity": 108,
      "chip": "ym2612"
    },
    {
      "channel": 3,
      "note": 84,
      "start": 56.6664,
      "duration": 0.0101,
      "velocity": 124,
      "chip": "ym2612"
    },
    {
      "channel": 2,
      "note": 74,
      "start": 56.6687,
      "duration": 0.0099,
      "velocity": 104,
      "chip": "ym2612"
    },
    {
      "channel": 0,
      "note": 62,
      "start": 56.6867,
      "duration": 0.0132,
      "velocity": 108,
      "chip": "ym2612"
    },
    {
      "channel": 2,
      "note": 76,
      "start": 56.6892,
      "duration": 0.0108,
      "velocity": 104,
      "chip": "ym2612"
    },
    {
      "channel": 0,
      "note": 64,
      "start": 56.7058,
      "duration": 0.0144,
      "velocity": 108,
      "chip": "ym2612"
    },
    {
      "channel": 3,
      "note": 85,
      "start": 56.708,
      "duration": 0.01,
      "velocity": 124,
      "chip": "ym2612"
    },
    {
      "channel": 2,
      "note": 79,
      "start": 56.7104,
      "duration": 0.01,
      "velocity": 104,
      "chip": "ym2612"
    },
    {
      "channel": 0,
      "note": 57,
      "start": 56.7292,
      "duration": 0.5573,
      "velocity": 108,
      "chip": "ym2612"
    },
    {
      "channel": 3,
      "note": 84,
      "start": 56.7314,
      "duration": 0.0215,
      "velocity": 124,
      "chip": "ym2612"
    },
    {
      "channel": 2,
      "note": 81,
      "start": 56.7339,
      "duration": 0.1527,
      "velocity": 104,
      "chip": "ym2612"
    },
    {
      "channel": 1,
      "note": 81,
      "start": 56.737,
      "duration": 0.9827,
      "velocity": 127,
      "chip": "ym2612"
    },
    {
      "channel": 3,
      "note": 85,
      "start": 56.89,
      "duration": 0.0631,
      "velocity": 124,
      "chip": "ym2612"
    },
    {
      "channel": 3,
      "note": 84,
      "start": 56.9905,
      "duration": 0.0628,
      "velocity": 124,
      "chip": "ym2612"
    },
    {
      "channel": 3,
      "note": 85,
      "start": 57.1903,
      "duration": 0.0632,
      "velocity": 124,
      "chip": "ym2612"
    },
    {
      "channel": 0,
      "note": 64,
      "start": 57.2927,
      "duration": 0.374,
      "velocity": 108,
      "chip": "ym2612"
    },
    {
      "channel": 3,
      "note": 84,
      "start": 57.2954,
      "duration": 0.0085,
      "velocity": 124,
      "chip": "ym2612"
    },
    {
      "channel": 4,
      "note": 81,
      "start": 57.2979,
      "duration": 0.0184,
      "velocity": 79,
      "chip": "ym2612"
    },
    {
      "channel": 3,
      "note": 85,
      "start": 57.37,
      "duration": 0.0632,
      "velocity": 124,
      "chip": "ym2612"
    },
    {
      "channel": 3,
      "note": 84,
      "start": 57.47,
      "duration": 0.0633,
      "velocity": 124,
      "chip": "ym2612"
    },
    {
      "channel": 4,
      "note": 76,
      "start": 57.4735,
      "duration": 0.1433,
      "velocity": 79,
      "chip": "ym2612"
    },
    {
      "channel": 4,
      "note": 79,
      "start": 57.621,
      "duration": 0.0988,
      "velocity": 79,
      "chip": "ym2612"
    },
    {
      "channel": 0,
      "note": 62,
      "start": 57.6727,
      "duration": 0.0468,
      "velocity": 108,
      "chip": "ym2612"
    },
    {
      "channel": 3,
      "note": 85,
      "start": 57.6753,
      "duration": 0.0109,
      "velocity": 124,
      "chip": "ym2612"
    },
    {
      "channel": 3,
      "note": 84,
      "start": 57.7255,
      "duration": 0.014,
      "velocity": 124,
      "chip": "ym2612"
    },
    {
      "channel": 1,
      "note": 88,
      "start": 57.7285,
      "duration": 0.8838,
      "velocity": 127,
      "chip": "ym2612"
    },
    {
      "channel": 0,
      "note": 62,
      "start": 57.8785,
      "duration": 0.2002,
      "velocity": 108,
      "chip": "ym2612"
    },
    {
      "channel": 3,
      "note": 85,
      "start": 57.8808,
      "duration": 0.0117,
      "velocity": 124,
      "chip": "ym2612"
    },
    {
      "channel": 3,
      "note": 84,
      "start": 57.9316,
      "duration": 0.0142,
      "velocity": 124,
      "chip": "ym2612"
    },
    {
      "channel": 0,
      "note": 60,
      "start": 58.0828,
      "duration": 0.0965,
      "velocity": 108,
      "chip": "ym2612"
    },
    {
      "channel": 3,
      "note": 85,
      "start": 58.0858,
      "duration": 0.0601,
      "velocity": 124,
      "chip": "ym2612"
    },
    {
      "channel": 0,
      "note": 59,
      "start": 58.1857,
      "duration": 0.3737,
      "velocity": 108,
      "chip": "ym2612"
    },
    {
      "channel": 3,
      "note": 84,
      "start": 58.1882,
      "duration": 0.0068,
      "velocity": 124,
      "chip": "ym2612"
    },
    {
      "channel": 3,
      "note": 85,
      "start": 58.2626,
      "duration": 0.0632,
      "velocity": 124,
      "chip": "ym2612"
    },
    {
      "channel": 3,
      "note": 84,
      "start": 58.3626,
      "duration": 0.0632,
      "velocity": 124,
      "chip": "ym2612"
    },
    {
      "channel": 4,
      "note": 76,
      "start": 58.5135,
      "duration": 0.099,
      "velocity": 79,
      "chip": "ym2612"
    },
    {
      "channel": 3,
      "note": 85,
      "start": 58.5652,
      "duration": 0.0305,
      "velocity": 124,
      "chip": "ym2612"
    },
    {
      "channel": 0,
      "note": 57,
      "start": 58.6182,
      "duration": 0.548,
      "velocity": 108,
      "chip": "ym2612"
    },
    {
      "channel": 3,
      "note": 84,
      "start": 58.6205,
      "duration": 0.0285,
      "velocity": 124,
      "chip": "ym2612"
    },
    {
      "channel": 4,
      "note": 79,
      "start": 58.6233,
      "duration": 0.0924,
      "velocity": 79,
      "chip": "ym2612"
    },
    {
      "channel": 3,
      "note": 85,
      "start": 58.7693,
      "duration": 0.0799,
      "velocity": 124,
      "chip": "ym2612"
    },
    {
      "channel": 3,
      "note": 84,
      "start": 58.8698,
      "duration": 0.0795,
      "velocity": 124,
      "chip": "ym2612"
    },
    {
      "channel": 4,
      "note": 76,
      "start": 58.8733,
      "duration": 0.1428,
      "velocity": 79,
      "chip": "ym2612"
    },
    {
      "channel": 3,
      "note": 85,
      "start": 59.0697,
      "duration": 0.0798,
      "velocity": 124,
      "chip": "ym2612"
    },
    {
      "channel": 0,
      "note": 64,
      "start": 59.1721,
      "duration": 0.374,
      "velocity": 108,
      "chip": "ym2612"
    },
    {
      "channel": 3,
      "note": 84,
      "start": 59.1748,
      "duration": 0.0109,
      "velocity": 124,
      "chip": "ym2612"
    },
    {
      "channel": 4,
      "note": 83,
      "start": 59.1772,
      "duration": 0.019,
      "velocity": 79,
      "chip": "ym2612"
    },
    {
      "channel": 3,
      "note": 85,
      "start": 59.2498,
      "duration": 0.0798,
      "velocity": 124,
      "chip": "ym2612"
    },
    {
      "channel": 3,
      "note": 84,
      "start": 59.3498,
      "duration": 0.08,
      "velocity": 124,
      "chip": "ym2612"
    },
    {
      "channel": 4,
      "note": 76,
      "start": 59.3534,
      "duration": 0.1432,
      "velocity": 79,
      "chip": "ym2612"
    },
    {
      "channel": 4,
      "note": 79,
      "start": 59.5014,
      "duration": 0.0651,
      "velocity": 79,
      "chip": "ym2612"
    },
    {
      "channel": 0,
      "note": 62,
      "start": 59.5524,
      "duration": 0.014,
      "velocity": 108,
      "chip": "ym2612"
    },
    {
      "channel": 3,
      "note": 85,
      "start": 59.555,
      "duration": 0.0091,
      "velocity": 124,
      "chip": "ym2612"
    },
    {
      "channel": 3,
      "note": 84,
      "start": 59.5717,
      "duration": 0.0277,
      "velocity": 124,
      "chip": "ym2612"
    },
    {
      "channel": 1,
      "note": 84,
      "start": 59.5748,
      "duration": 0.2945,
      "velocity": 127,
      "chip": "ym2612"
    },
    {
      "channel": 2,
      "note": 91,
      "start": 59.5774,
      "duration": 0.2924,
      "velocity": 127,
      "chip": "ym2612"
    },
    {
      "channel": 0,
      "note": 62,
      "start": 59.7218,
      "duration": 0.1266,
      "velocity": 108,
      "chip": "ym2612"
    },
    {
      "channel": 3,
      "note": 85,
      "start": 59.7241,
      "duration": 0.0285,
      "velocity": 124,
      "chip": "ym2612"
    },
    {
      "channel": 3,
      "note": 84,
      "start": 59.7749,
      "duration": 0.0099,
      "velocity": 124,
      "chip": "ym2612"
    },
    {
      "channel": 0,
      "note": 60,
      "start": 59.8552,
      "duration": 0.014,
      "velocity": 108,
      "chip": "ym2612"
    },
    {
      "channel": 3,
      "note": 85,
      "start": 59.8578,
      "duration": 0.0089,
      "velocity": 124,
      "chip": "ym2612"
    },
    {
      "channel": 0,
      "note": 59,
      "start": 59.8766,
      "duration": 0.294,
      "velocity": 108,
      "chip": "ym2612"
    },
    {
      "channel": 3,
      "note": 84,
      "start": 59.8793,
      "duration": 0.0251,
      "velocity": 124,
      "chip": "ym2612"
    },
    {
      "channel": 1,
      "note": 79,
      "start": 59.8818,
      "duration": 0.3064,
      "velocity": 127,
      "chip": "ym2612"
    },
    {
      "channel": 2,
      "note": 86,
      "start": 59.8845,
      "duration": 0.3041,
      "velocity": 127,
      "chip": "ym2612"
    },
    {
      "channel": 3,
      "note": 85,
      "start": 60.0434,
      "duration": 0.0141,
      "velocity": 124,
      "chip": "ym2612"
    },
    {
      "channel": 3,
      "note": 84,
      "start": 60.0966,
      "duration": 0.0079,
      "velocity": 124,
      "chip": "ym2612"
    },
    {
      "channel": 3,
      "note": 85,
      "start": 60.1763,
      "duration": 0.0076,
      "velocity": 124,
      "chip": "ym2612"
    },
    {
      "channel": 0,
      "note": 57,
      "start": 60.1951,
      "duration": 0.5456,
      "velocity": 108,
      "chip": "ym2612"
    },
    {
      "channel": 3,
      "note": 84,
      "start": 60.1978,
      "duration": 0.0122,
      "velocity": 124,
      "chip": "ym2612"
    },
    {
      "channel": 1,
      "note": 81,
      "start": 60.2005,
      "duration": 0.8205,
      "velocity": 127,
      "chip": "ym2612"
    },
    {
      "channel": 2,
      "note": 88,
      "start": 60.2031,
      "duration": 0.8181,
      "velocity": 127,
      "chip": "ym2612"
    },
    {
      "channel": 3,
      "note": 85,
      "start": 60.3439,
      "duration": 0.0632,
      "velocity": 124,
      "chip": "ym2612"
    },
    {
      "channel": 3,
      "note": 84,
      "start": 60.4444,
      "duration": 0.0628,
      "velocity": 124,
      "chip": "ym2612"
    },
    {
      "channel": 3,
      "note": 85,
      "start": 60.6443,
      "duration": 0.0631,
      "velocity": 124,
      "chip": "ym2612"
    },
    {
      "channel": 0,
      "note": 64,
      "start": 60.7467,
      "duration": 0.374,
      "velocity": 108,
      "chip": "ym2612"
    },
    {
      "channel": 3,
      "note": 84,
      "start": 60.7493,
      "duration": 0.0069,
      "velocity": 124,
      "chip": "ym2612"
    },
    {
      "channel": 3,
      "note": 85,
      "start": 60.8242,
      "duration": 0.0632,
      "velocity": 124,
      "chip": "ym2612"
    },
    {
      "channel": 3,
      "note": 84,
      "start": 60.9244,
      "duration": 0.0632,
      "velocity": 124,
      "chip": "ym2612"
    },
    {
      "channel": 0,
      "note": 62,
      "start": 61.1268,
      "duration": 0.0471,
      "velocity": 108,
      "chip": "ym2612"
    },
    {
      "channel": 3,
      "note": 85,
      "start": 61.1294,
      "duration": 0.0112,
      "velocity": 124,
      "chip": "ym2612"
    },
    {
      "channel": 3,
      "note": 84,
      "start": 61.1802,
      "duration": 0.0136,
      "velocity": 124,
      "chip": "ym2612"
    },
    {
      "channel": 4,
      "note": 88,
      "start": 61.183,
      "duration": 0.0943,
      "velocity": 106,
      "chip": "ym2612"
    },
    {
      "channel": 1,
      "note": 84,
      "start": 61.1855,
      "duration": 0.0917,
      "velocity": 106,
      "chip": "ym2612"
    },
    {
      "channel": 1,
      "note": 84,
      "start": 61.2817,
      "duration": 0.0983,
      "velocity": 106,
      "chip": "ym2612"
    },
    {
      "channel": 4,
      "note": 88,
      "start": 61.2848,
      "duration": 0.0955,
      "velocity": 106,
      "chip": "ym2612"
    },
    {
      "channel": 0,
      "note": 62,
      "start": 61.333,
      "duration": 0.2,
      "velocity": 108,
      "chip": "ym2612"
    },
    {
      "channel": 3,
      "note": 85,
      "start": 61.3353,
      "duration": 0.0114,
      "velocity": 124,
      "chip": "ym2612"
    },
    {
      "channel": 3,
      "note": 84,
      "start": 61.3861,
      "duration": 0.0136,
      "velocity": 124,
      "chip": "ym2612"
    },
    {
      "channel": 0,
      "note": 60,
      "start": 61.5368,
      "duration": 0.096,
      "velocity": 108,
      "chip": "ym2612"
    },
    {
      "channel": 3,
      "note": 85,
      "start": 61.5399,
      "duration": 0.0767,
      "velocity": 124,
      "chip": "ym2612"
    },
    {
      "channel": 0,
      "note": 59,
      "start": 61.6391,
      "duration": 0.374,
      "velocity": 108,
      "chip": "ym2612"
    },
    {
      "channel": 3,
      "note": 84,
      "start": 61.6417,
      "duration": 0.0126,
      "velocity": 124,
      "chip": "ym2612"
    },
    {
      "channel": 1,
      "note": 81,
      "start": 61.6441,
      "duration": 0.0207,
      "velocity": 106,
      "chip": "ym2612"
    },
    {
      "channel": 4,
      "note": 84,
      "start": 61.6465,
      "duration": 0.0185,
      "velocity": 106,
      "chip": "ym2612"
    },
    {
      "channel": 1,
      "note": 81,
      "start": 61.669,
      "duration": 0.1439,
      "velocity": 106,
      "chip": "ym2612"
    },
    {
      "channel": 4,
      "note": 84,
      "start": 61.672,
      "duration": 0.1413,
      "velocity": 106,
      "chip": "ym2612"
    },
    {
      "channel": 3,
      "note": 85,
      "start": 61.7167,
      "duration": 0.0799,
      "velocity": 124,
      "chip": "ym2612"
    },
    {
      "channel": 3,
      "note": 84,
      "start": 61.8169,
      "duration": 0.0798,
      "velocity": 124,
      "chip": "ym2612"
    },
    {
      "channel": 3,
      "note": 85,
      "start": 62.0192,
      "duration": 0.0307,
      "velocity": 124,
      "chip": "ym2612"
    },
    {
      "channel": 0,
      "note": 65,
      "start": 62.0721,
      "duration": 0.1472,
      "velocity": 108,
      "chip": "ym2612"
    },
    {
      "channel": 3,
      "note": 84,
      "start": 62.0747,
      "duration": 0.0279,
      "velocity": 124,
      "chip": "ym2612"
    },
    {
      "channel": 1,
      "note": 84,
      "start": 62.0771,
      "duration": 0.0922,
      "velocity": 106,
      "chip": "ym2612"
    },
    {
      "channel": 4,
      "note": 88,
      "start": 62.0794,
      "duration": 0.0901,
      "velocity": 106,
      "chip": "ym2612"
    },
    {
      "channel": 1,
      "note": 84,
      "start": 62.1739,
      "duration": 0.1456,
      "velocity": 106,
      "chip": "ym2612"
    },
    {
      "channel": 4,
      "note": 88,
      "start": 62.1769,
      "duration": 0.1428,
      "velocity": 106,
      "chip": "ym2612"
    },
    {
      "channel": 3,
      "note": 85,
      "start": 62.2231,
      "duration": 0.0799,
      "velocity": 124,
      "chip": "ym2612"
    },
    {
      "channel": 0,
      "note": 65,
      "start": 62.323,
      "duration": 0.1968,
      "velocity": 108,
      "chip": "ym2612"
    },
    {
      "channel": 3,
      "note": 84,
      "start": 62.3264,
      "duration": 0.0766,
      "velocity": 124,
      "chip": "ym2612"
    },
    {
      "channel": 3,
      "note": 85,
      "start": 62.5235,
      "duration": 0.0798,
      "velocity": 124,
      "chip": "ym2612"
    },
    {
      "channel": 0,
      "note": 65,
      "start": 62.6256,
      "duration": 0.074,
      "velocity": 108,
      "chip": "ym2612"
    },
    {
      "channel": 3,
      "note": 84,
      "start": 62.6279,
      "duration": 0.0134,
      "velocity": 124,
      "chip": "ym2612"
    },
    {
      "channel": 1,
      "note": 81,
      "start": 62.6307,
      "duration": 0.0207,
      "velocity": 106,
      "chip": "ym2612"
    },
    {
      "channel": 4,
      "note": 84,
      "start": 62.633,
      "duration": 0.0185,
      "velocity": 106,
      "chip": "ym2612"
    },
    {
      "channel": 1,
      "note": 81,
      "start": 62.6556,
      "duration": 0.1445,
      "velocity": 106,
      "chip": "ym2612"
    },
    {
      "channel": 4,
      "note": 84,
      "start": 62.6587,
      "duration": 0.1416,
      "velocity": 106,
      "chip": "ym2612"
    },
    {
      "channel": 3,
      "note": 85,
      "start": 62.7037,
      "duration": 0.0799,
      "velocity": 124,
      "chip": "ym2612"
    },
    {
      "channel": 0,
      "note": 65,
      "start": 62.8036,
      "duration": 0.1968,
      "velocity": 108,
      "chip": "ym2612"
    },
    {
      "channel": 3,
      "note": 84,
      "start": 62.8066,
      "duration": 0.077,
      "velocity": 124,
      "chip": "ym2612"
    },
    {
      "channel": 3,
      "note": 85,
      "start": 63.0061,
      "duration": 0.0307,
      "velocity": 124,
      "chip": "ym2612"
    },
    {
      "channel": 0,
      "note": 64,
      "start": 63.0596,
      "duration": 0.0895,
      "velocity": 108,
      "chip": "ym2612"
    },
    {
      "channel": 3,
      "note": 84,
      "start": 63.0618,
      "duration": 0.0129,
      "velocity": 124,
      "chip": "ym2612"
    },
    {
      "channel": 1,
      "note": 79,
      "start": 63.0647,
      "duration": 0.0198,
      "velocity": 106,
      "chip": "ym2612"
    },
    {
      "channel": 4,
      "note": 83,
      "start": 63.067,
      "duration": 0.0176,
      "velocity": 106,
      "chip": "ym2612"
    },
    {
      "channel": 1,
      "note": 83,
      "start": 63.089,
      "duration": 0.113,
      "velocity": 106,
      "chip": "ym2612"
    },
    {
      "channel": 4,
      "note": 79,
      "start": 63.0921,
      "duration": 0.1101,
      "velocity": 106,
      "chip": "ym2612"
    },
    {
      "channel": 3,
      "note": 85,
      "start": 63.1549,
      "duration": 0.0139,
      "velocity": 124,
      "chip": "ym2612"
    },
    {
      "channel": 0,
      "note": 64,
      "start": 63.2055,
      "duration": 0.1968,
      "velocity": 108,
      "chip": "ym2612"
    },
    {
      "channel": 3,
      "note": 84,
      "start": 63.2089,
      "duration": 0.06,
      "velocity": 124,
      "chip": "ym2612"
    },
    {
      "channel": 3,
      "note": 85,
      "start": 63.4082,
      "duration": 0.0135,
      "velocity": 124,
      "chip": "ym2612"
    },
    {
      "channel": 0,
      "note": 64,
      "start": 63.4607,
      "duration": 0.0737,
      "velocity": 108,
      "chip": "ym2612"
    },
    {
      "channel": 3,
      "note": 84,
      "start": 63.4629,
      "duration": 0.0108,
      "velocity": 124,
      "chip": "ym2612"
    },
    {
      "channel": 1,
      "note": 79,
      "start": 63.4658,
      "duration": 0.0691,
      "velocity": 106,
      "chip": "ym2612"
    },
    {
      "channel": 4,
      "note": 83,
      "start": 63.4681,
      "duration": 0.067,
      "velocity": 106,
      "chip": "ym2612"
    },
    {
      "channel": 3,
      "note": 85,
      "start": 63.5407,
      "duration": 0.0137,
      "velocity": 124,
      "chip": "ym2612"
    },
    {
      "channel": 0,
      "note": 64,
      "start": 63.5934,
      "duration": 0.0741,
      "velocity": 108,
      "chip": "ym2612"
    },
    {
      "channel": 3,
      "note": 84,
      "start": 63.5956,
      "duration": 0.011,
      "velocity": 124,
      "chip": "ym2612"
    },
    {
      "channel": 1,
      "note": 79,
      "start": 63.5984,
      "duration": 0.0693,
      "velocity": 106,
      "chip": "ym2612"
    },
    {
      "channel": 4,
      "note": 83,
      "start": 63.6007,
      "duration": 0.0671,
      "velocity": 106,
      "chip": "ym2612"
    },
    {
      "channel": 3,
      "note": 85,
      "start": 63.6735,
      "duration": 0.0114,
      "velocity": 124,
      "chip": "ym2612"
    },
    {
      "channel": 1,
      "note": 81,
      "start": 63.6763,
      "duration": 0.0249,
      "velocity": 106,
      "chip": "ym2612"
    },
    {
      "channel": 4,
      "note": 84,
      "start": 63.6788,
      "duration": 0.0224,
      "velocity": 106,
      "chip": "ym2612"
    },
    {
      "channel": 0,
      "note": 57,
      "start": 63.6952,
      "duration": 0.5447,
      "velocity": 108,
      "chip": "ym2612"
    },
    {
      "channel": 3,
      "note": 84,
      "start": 63.6979,
      "duration": 0.0102,
      "velocity": 124,
      "chip": "ym2612"
    },
    {
      "channel": 2,
      "note": 81,
      "start": 63.7007,
      "duration": 0.9729,
      "velocity": 127,
      "chip": "ym2612"
    },
    {
      "channel": 3,
      "note": 85,
      "start": 63.8434,
      "duration": 0.0632,
      "velocity": 124,
      "chip": "ym2612"
    },
    {
      "channel": 3,
      "note": 84,
      "start": 63.9439,
      "duration": 0.0628,
      "velocity": 124,
      "chip": "ym2612"
    },
    {
      "channel": 3,
      "note": 85,
      "start": 64.1438,
      "duration": 0.0632,
      "velocity": 124,
      "chip": "ym2612"
    },
    {
      "channel": 0,
      "note": 64,
      "start": 64.2467,
      "duration": 0.3732,
      "velocity": 108,
      "chip": "ym2612"
    },
    {
      "channel": 3,
      "note": 84,
      "start": 64.2493,
      "duration": 0.0083,
      "velocity": 124,
      "chip": "ym2612"
    },
    {
      "channel": 1,
      "note": 81,
      "start": 64.2517,
      "duration": 0.0182,
      "velocity": 79,
      "chip": "ym2612"
    },
    {
      "channel": 3,
      "note": 85,
      "start": 64.3235,
      "duration": 0.0632,
      "velocity": 124,
      "chip": "ym2612"
    },
    {
      "channel": 3,
      "note": 84,
      "start": 64.4237,
      "duration": 0.0632,
      "velocity": 124,
      "chip": "ym2612"
    },
    {
      "channel": 1,
      "note": 76,
      "start": 64.4272,
      "duration": 0.1431,
      "velocity": 79,
      "chip": "ym2612"
    },
    {
      "channel": 1,
      "note": 79,
      "start": 64.5744,
      "duration": 0.0989,
      "velocity": 79,
      "chip": "ym2612"
    },
    {
      "channel": 0,
      "note": 62,
      "start": 64.6262,
      "duration": 0.047,
      "velocity": 108,
      "chip": "ym2612"
    },
    {
      "channel": 3,
      "note": 85,
      "start": 64.6288,
      "duration": 0.0279,
      "velocity": 124,
      "chip": "ym2612"
    },
    {
      "channel": 3,
      "note": 84,
      "start": 64.6793,
      "duration": 0.0303,
      "velocity": 124,
      "chip": "ym2612"
    },
    {
      "channel": 2,
      "note": 88,
      "start": 64.6824,
      "duration": 0.8828,
      "velocity": 127,
      "chip": "ym2612"
    },
    {
      "channel": 0,
      "note": 62,
      "start": 64.8321,
      "duration": 0.2001,
      "velocity": 108,
      "chip": "ym2612"
    },
    {
      "channel": 3,
      "note": 85,
      "start": 64.8344,
      "duration": 0.0283,
      "velocity": 124,
      "chip": "ym2612"
    },
    {
      "channel": 3,
      "note": 84,
      "start": 64.8851,
      "duration": 0.0303,
      "velocity": 124,
      "chip": "ym2612"
    },
    {
      "channel": 0,
      "note": 60,
      "start": 65.036,
      "duration": 0.096,
      "velocity": 108,
      "chip": "ym2612"
    },
    {
      "channel": 3,
      "note": 85,
      "start": 65.039,
      "duration": 0.0768,
      "velocity": 124,
      "chip": "ym2612"
    },
    {
      "channel": 0,
      "note": 59,
      "start": 65.1383,
      "duration": 0.3734,
      "velocity": 108,
      "chip": "ym2612"
    },
    {
      "channel": 3,
      "note": 84,
      "start": 65.1408,
      "duration": 0.0086,
      "velocity": 124,
      "chip": "ym2612"
    },
    {
      "channel": 3,
      "note": 85,
      "start": 65.2152,
      "duration": 0.08,
      "velocity": 124,
      "chip": "ym2612"
    },
    {
      "channel": 3,
      "note": 84,
      "start": 65.3154,
      "duration": 0.0799,
      "velocity": 124,
      "chip": "ym2612"
    },
    {
      "channel": 1,
      "note": 76,
      "start": 65.4661,
      "duration": 0.0988,
      "velocity": 79,
      "chip": "ym2612"
    },
    {
      "channel": 3,
      "note": 85,
      "start": 65.5178,
      "duration": 0.0305,
      "velocity": 124,
      "chip": "ym2612"
    },
    {
      "channel": 0,
      "note": 57,
      "start": 65.5708,
      "duration": 0.5477,
      "velocity": 108,
      "chip": "ym2612"
    },
    {
      "channel": 3,
      "note": 84,
      "start": 65.5731,
      "duration": 0.0286,
      "velocity": 124,
      "chip": "ym2612"
    },
    {
      "channel": 1,
      "note": 79,
      "start": 65.5759,
      "duration": 0.0924,
      "velocity": 79,
      "chip": "ym2612"
    },
    {
      "channel": 3,
      "note": 85,
      "start": 65.722,
      "duration": 0.0799,
      "velocity": 124,
      "chip": "ym2612"
    },
    {
      "channel": 3,
      "note": 84,
      "start": 65.8224,
      "duration": 0.0797,
      "velocity": 124,
      "chip": "ym2612"
    },
    {
      "channel": 1,
      "note": 76,
      "start": 65.8258,
      "duration": 0.143,
      "velocity": 79,
      "chip": "ym2612"
    },
    {
      "channel": 3,
      "note": 85,
      "start": 66.0223,
      "duration": 0.08,
      "velocity": 124,
      "chip": "ym2612"
    },
    {
      "channel": 0,
      "note": 64,
      "start": 66.1254,
      "duration": 0.3898,
      "velocity": 108,
      "chip": "ym2612"
    },
    {
      "channel": 3,
      "note": 84,
      "start": 66.1279,
      "duration": 0.0106,
      "velocity": 124,
      "chip": "ym2612"
    },
    {
      "channel": 1,
      "note": 83,
      "start": 66.1303,
      "duration": 0.0181,
      "velocity": 79,
      "chip": "ym2612"
    },
    {
      "channel": 3,
      "note": 85,
      "start": 66.2021,
      "duration": 0.0799,
      "velocity": 124,
      "chip": "ym2612"
    },
    {
      "channel": 3,
      "note": 84,
      "start": 66.319,
      "duration": 0.0633,
      "velocity": 124,
      "chip": "ym2612"
    },
    {
      "channel": 1,
      "note": 76,
      "start": 66.3224,
      "duration": 0.1432,
      "velocity": 79,
      "chip": "ym2612"
    },
    {
      "channel": 1,
      "note": 79,
      "start": 66.4702,
      "duration": 0.0643,
      "velocity": 79,
      "chip": "ym2612"
    },
    {
      "channel": 0,
      "note": 62,
      "start": 66.5215,
      "duration": 0.013,
      "velocity": 108,
      "chip": "ym2612"
    },
    {
      "channel": 3,
      "note": 85,
      "start": 66.524,
      "duration": 0.0063,
      "velocity": 124,
      "chip": "ym2612"
    },
    {
      "channel": 3,
      "note": 84,
      "start": 66.5396,
      "duration": 0.013,
      "velocity": 124,
      "chip": "ym2612"
    },
    {
      "channel": 2,
      "note": 79,
      "start": 66.5428,
      "duration": 0.2932,
      "velocity": 127,
      "chip": "ym2612"
    },
    {
      "channel": 4,
      "note": 84,
      "start": 66.5454,
      "duration": 0.2905,
      "velocity": 127,
      "chip": "ym2612"
    },
    {
      "channel": 0,
      "note": 62,
      "start": 66.69,
      "duration": 0.1262,
      "velocity": 108,
      "chip": "ym2612"
    },
    {
      "channel": 3,
      "note": 85,
      "start": 66.6922,
      "duration": 0.0118,
      "velocity": 124,
      "chip": "ym2612"
    },
    {
      "channel": 3,
      "note": 84,
      "start": 66.7431,
      "duration": 0.0074,
      "velocity": 124,
      "chip": "ym2612"
    },
    {
      "channel": 0,
      "note": 60,
      "start": 66.8223,
      "duration": 0.0135,
      "velocity": 108,
      "chip": "ym2612"
    },
    {
      "channel": 3,
      "note": 85,
      "start": 66.825,
      "duration": 0.0066,
      "velocity": 124,
      "chip": "ym2612"
    },
    {
      "channel": 0,
      "note": 59,
      "start": 66.8412,
      "duration": 0.2772,
      "velocity": 108,
      "chip": "ym2612"
    },
    {
      "channel": 3,
      "note": 84,
      "start": 66.8439,
      "duration": 0.0117,
      "velocity": 124,
      "chip": "ym2612"
    },
    {
      "channel": 4,
      "note": 77,
      "start": 66.8466,
      "duration": 0.2896,
      "velocity": 127,
      "chip": "ym2612"
    },
    {
      "channel": 2,
      "note": 83,
      "start": 66.8491,
      "duration": 0.2873,
      "velocity": 127,
      "chip": "ym2612"
    },
    {
      "channel": 3,
      "note": 85,
      "start": 66.9916,
      "duration": 0.0138,
      "velocity": 124,
      "chip": "ym2612"
    },
    {
      "channel": 3,
      "note": 84,
      "start": 67.0449,
      "duration": 0.0074,
      "velocity": 124,
      "chip": "ym2612"
    },
    {
      "channel": 3,
      "note": 85,
      "start": 67.1242,
      "duration": 0.0077,
      "velocity": 124,
      "chip": "ym2612"
    },
    {
      "channel": 0,
      "note": 57,
      "start": 67.1429,
      "duration": 0.5452,
      "velocity": 108,
      "chip": "ym2612"
    },
    {
      "channel": 3,
      "note": 84,
      "start": 67.1455,
      "duration": 0.0119,
      "velocity": 124,
      "chip": "ym2612"
    },
    {
      "channel": 4,
      "note": 76,
      "start": 67.1482,
      "duration": 1.1783,
      "velocity": 127,
      "chip": "ym2612"
    },
    {
      "channel": 2,
      "note": 81,
      "start": 67.1508,
      "duration": 1.1758,
      "velocity": 127,
      "chip": "ym2612"
    },
    {
      "channel": 3,
      "note": 85,
      "start": 67.2913,
      "duration": 0.0632,
      "velocity": 124,
      "chip": "ym2612"
    },
    {
      "channel": 3,
      "note": 84,
      "start": 67.3918,
      "duration": 0.0628,
      "velocity": 124,
      "chip": "ym2612"
    },
    {
      "channel": 3,
      "note": 85,
      "start": 67.5917,
      "duration": 0.0799,
      "velocity": 124,
      "chip": "ym2612"
    },
    {
      "channel": 0,
      "note": 64,
      "start": 67.6943,
      "duration": 0.3732,
      "velocity": 108,
      "chip": "ym2612"
    },
    {
      "channel": 3,
      "note": 84,
      "start": 67.6968,
      "duration": 0.0085,
      "velocity": 124,
      "chip": "ym2612"
    },
    {
      "channel": 3,
      "note": 85,
      "start": 67.7706,
      "duration": 0.08,
      "velocity": 124,
      "chip": "ym2612"
    },
    {
      "channel": 3,
      "note": 84,
      "start": 67.8708,
      "duration": 0.0799,
      "velocity": 124,
      "chip": "ym2612"
    },
    {
      "channel": 0,
      "note": 62,
      "start": 68.0734,
      "duration": 0.0465,
      "velocity": 108,
      "chip": "ym2612"
    },
    {
      "channel": 3,
      "note": 85,
      "start": 68.076,
      "duration": 0.0276,
      "velocity": 124,
      "chip": "ym2612"
    },
    {
      "channel": 3,
      "note": 84,
      "start": 68.126,
      "duration": 0.0307,
      "velocity": 124,
      "chip": "ym2612"
    },
    {
      "channel": 0,
      "note": 62,
      "start": 68.2792,
      "duration": 0.1999,
      "velocity": 108,
      "chip": "ym2612"
    },
    {
      "channel": 3,
      "note": 85,
      "start": 68.2814,
      "duration": 0.0283,
      "velocity": 124,
      "chip": "ym2612"
    },
    {
      "channel": 3,
      "note": 84,
      "start": 68.3323,
      "duration": 0.0305,
      "velocity": 124,
      "chip": "ym2612"
    },
    {
      "channel": 0,
      "note": 60,
      "start": 68.4831,
      "duration": 0.0965,
      "velocity": 108,
      "chip": "ym2612"
    },
    {
      "channel": 3,
      "note": 85,
      "start": 68.4862,
      "duration": 0.0767,
      "velocity": 124,
      "chip": "ym2612"
    },
    {
      "channel": 0,
      "note": 59,
      "start": 68.5859,
      "duration": 0.3738,
      "velocity": 108,
      "chip": "ym2612"
    },
    {
      "channel": 3,
      "note": 84,
      "start": 68.5885,
      "duration": 0.0087,
      "velocity": 124,
      "chip": "ym2612"
    },
    {
      "channel": 3,
      "note": 85,
      "start": 68.6629,
      "duration": 0.0798,
      "velocity": 124,
      "chip": "ym2612"
    },
    {
      "channel": 3,
      "note": 84,
      "start": 68.763,
      "duration": 0.0798,
      "velocity": 124,
      "chip": "ym2612"
    },
    {
      "channel": 3,
      "note": 85,
      "start": 68.9655,
      "duration": 0.0307,
      "velocity": 124,
      "chip": "ym2612"
    },
    {
      "channel": 0,
      "note": 65,
      "start": 69.0186,
      "duration": 0.1474,
      "velocity": 108,
      "chip": "ym2612"
    },
    {
      "channel": 3,
      "note": 84,
      "start": 69.0212,
      "duration": 0.0281,
      "velocity": 124,
      "chip": "ym2612"
    },
    {
      "channel": 1,
      "note": 83,
      "start": 69.0238,
      "duration": 0.0922,
      "velocity": 106,
      "chip": "ym2612"
    },
    {
      "channel": 4,
      "note": 79,
      "start": 69.0262,
      "duration": 0.0899,
      "velocity": 106,
      "chip": "ym2612"
    },
    {
      "channel": 1,
      "note": 79,
      "start": 69.1201,
      "duration": 0.1627,
      "velocity": 106,
      "chip": "ym2612"
    },
    {
      "channel": 4,
      "note": 83,
      "start": 69.1232,
      "duration": 0.1598,
      "velocity": 106,
      "chip": "ym2612"
    },
    {
      "channel": 3,
      "note": 85,
      "start": 69.1698,
      "duration": 0.0799,
      "velocity": 124,
      "chip": "ym2612"
    },
    {
      "channel": 0,
      "note": 65,
      "start": 69.2863,
      "duration": 0.1968,
      "velocity": 108,
      "chip": "ym2612"
    },
    {
      "channel": 3,
      "note": 84,
      "start": 69.2898,
      "duration": 0.0599,
      "velocity": 124,
      "chip": "ym2612"
    },
    {
      "channel": 3,
      "note": 85,
      "start": 69.4868,
      "duration": 0.0632,
      "velocity": 124,
      "chip": "ym2612"
    },
    {
      "channel": 0,
      "note": 65,
      "start": 69.589,
      "duration": 0.0735,
      "velocity": 108,
      "chip": "ym2612"
    },
    {
      "channel": 3,
      "note": 84,
      "start": 69.5915,
      "duration": 0.0103,
      "velocity": 124,
      "chip": "ym2612"
    },
    {
      "channel": 1,
      "note": 81,
      "start": 69.5939,
      "duration": 0.0204,
      "velocity": 106,
      "chip": "ym2612"
    },
    {
      "channel": 4,
      "note": 84,
      "start": 69.5963,
      "duration": 0.0182,
      "velocity": 106,
      "chip": "ym2612"
    },
    {
      "channel": 1,
      "note": 81,
      "start": 69.6189,
      "duration": 0.1438,
      "velocity": 106,
      "chip": "ym2612"
    },
    {
      "channel": 4,
      "note": 84,
      "start": 69.622,
      "duration": 0.1409,
      "velocity": 106,
      "chip": "ym2612"
    },
    {
      "channel": 3,
      "note": 85,
      "start": 69.6662,
      "duration": 0.0631,
      "velocity": 124,
      "chip": "ym2612"
    },
    {
      "channel": 0,
      "note": 65,
      "start": 69.7661,
      "duration": 0.1964,
      "velocity": 108,
      "chip": "ym2612"
    },
    {
      "channel": 3,
      "note": 84,
      "start": 69.7692,
      "duration": 0.0602,
      "velocity": 124,
      "chip": "ym2612"
    },
    {
      "channel": 3,
      "note": 85,
      "start": 69.9686,
      "duration": 0.0139,
      "velocity": 124,
      "chip": "ym2612"
    },
    {
      "channel": 0,
      "note": 64,
      "start": 70.0215,
      "duration": 0.0738,
      "velocity": 108,
      "chip": "ym2612"
    },
    {
      "channel": 3,
      "note": 84,
      "start": 70.0238,
      "duration": 0.0109,
      "velocity": 124,
      "chip": "ym2612"
    },
    {
      "channel": 1,
      "note": 79,
      "start": 70.0266,
      "duration": 0.021,
      "velocity": 106,
      "chip": "ym2612"
    },
    {
      "channel": 4,
      "note": 83,
      "start": 70.0288,
      "duration": 0.0189,
      "velocity": 106,
      "chip": "ym2612"
    },
    {
      "channel": 1,
      "note": 79,
      "start": 70.0517,
      "duration": 0.0969,
      "velocity": 106,
      "chip": "ym2612"
    },
    {
      "channel": 4,
      "note": 83,
      "start": 70.0548,
      "duration": 0.094,
      "velocity": 106,
      "chip": "ym2612"
    },
    {
      "channel": 3,
      "note": 85,
      "start": 70.1015,
      "duration": 0.0139,
      "velocity": 124,
      "chip": "ym2612"
    },
    {
      "channel": 0,
      "note": 64,
      "start": 70.1521,
      "duration": 0.1968,
      "velocity": 108,
      "chip": "ym2612"
    },
    {
      "channel": 3,
      "note": 84,
      "start": 70.1555,
      "duration": 0.0599,
      "velocity": 124,
      "chip": "ym2612"
    },
    {
      "channel": 3,
      "note": 85,
      "start": 70.3547,
      "duration": 0.0139,
      "velocity": 124,
      "chip": "ym2612"
    },
    {
      "channel": 0,
      "note": 60,
      "start": 70.4078,
      "duration": 0.0195,
      "velocity": 108,
      "chip": "ym2612"
    },
    {
      "channel": 3,
      "note": 84,
      "start": 70.4104,
      "duration": 0.0124,
      "velocity": 124,
      "chip": "ym2612"
    },
    {
      "channel": 2,
      "note": 69,
      "start": 70.413,
      "duration": 0.0145,
      "velocity": 104,
      "chip": "ym2612"
    },
    {
      "channel": 1,
      "note": 79,
      "start": 70.4153,
      "duration": 0.0247,
      "velocity": 106,
      "chip": "ym2612"
    },
    {
      "channel": 4,
      "note": 74,
      "start": 70.4186,
      "duration": 0.0215,
      "velocity": 106,
      "chip": "ym2612"
    },
    {
      "channel": 0,
      "note": 62,
      "start": 70.4335,
      "duration": 0.0162,
      "velocity": 108,
      "chip": "ym2612"
    },
    {
      "channel": 2,
      "note": 71,
      "start": 70.4359,
      "duration": 0.0139,
      "velocity": 104,
      "chip": "ym2612"
    },
    {
      "channel": 1,
      "note": 74,
      "start": 70.4427,
      "duration": 0.0536,
      "velocity": 106,
      "chip": "ym2612"
    },
    {
      "channel": 4,
      "note": 79,
      "start": 70.4453,
      "duration": 0.0512,
      "velocity": 106,
      "chip": "ym2612"
    },
    {
      "channel": 0,
      "note": 64,
      "start": 70.4557,
      "duration": 0.0402,
      "velocity": 108,
      "chip": "ym2612"
    },
    {
      "channel": 3,
      "note": 85,
      "start": 70.4579,
      "duration": 0.008,
      "velocity": 124,
      "chip": "ym2612"
    },
    {
      "channel": 2,
      "note": 72,
      "start": 70.4603,
      "duration": 0.0363,
      "velocity": 104,
      "chip": "ym2612"
    },
    {
      "channel": 0,
      "note": 60,
      "start": 70.5021,
      "duration": 0.0153,
      "velocity": 108,
      "chip": "ym2612"
    },
    {
      "channel": 3,
      "note": 84,
      "start": 70.5044,
      "duration": 0.0088,
      "velocity": 124,
      "chip": "ym2612"
    },
    {
      "channel": 2,
      "note": 74,
      "start": 70.5072,
      "duration": 0.0103,
      "velocity": 104,
      "chip": "ym2612"
    },
    {
      "channel": 0,
      "note": 62,
      "start": 70.5231,
      "duration": 0.0135,
      "velocity": 108,
      "chip": "ym2612"
    },
    {
      "channel": 2,
      "note": 76,
      "start": 70.5259,
      "duration": 0.0108,
      "velocity": 104,
      "chip": "ym2612"
    },
    {
      "channel": 0,
      "note": 64,
      "start": 70.5419,
      "duration": 0.0156,
      "velocity": 108,
      "chip": "ym2612"
    },
    {
      "channel": 3,
      "note": 85,
      "start": 70.5444,
      "duration": 0.0087,
      "velocity": 124,
      "chip": "ym2612"
    },
    {
      "channel": 2,
      "note": 79,
      "start": 70.5467,
      "duration": 0.0109,
      "velocity": 104,
      "chip": "ym2612"
    },
    {
      "channel": 0,
      "note": 57,
      "start": 70.566,
      "duration": 0.4785,
      "velocity": 108,
      "chip": "ym2612"
    },
    {
      "channel": 3,
      "note": 84,
      "start": 70.5698,
      "duration": 0.029,
      "velocity": 124,
      "chip": "ym2612"
    },
    {
      "channel": 1,
      "note": 81,
      "start": 70.5815,
      "duration": 1.102,
      "velocity": 127,
      "chip": "ym2612"
    },
    {
      "channel": 4,
      "note": 88,
      "start": 70.585,
      "duration": 1.0987,
      "velocity": 127,
      "chip": "ym2612"
    },
    {
      "channel": 3,
      "note": 85,
      "start": 70.695,
      "duration": 0.0799,
      "velocity": 124,
      "chip": "ym2612"
    },
    {
      "channel": 3,
      "note": 84,
      "start": 70.7952,
      "duration": 0.0799,
      "velocity": 124,
      "chip": "ym2612"
    },
    {
      "channel": 3,
      "note": 85,
      "start": 70.9977,
      "duration": 0.0306,
      "velocity": 124,
      "chip": "ym2612"
    },
    {
      "channel": 3,
      "note": 84,
      "start": 71.0506,
      "duration": 0.0096,
      "velocity": 124,
      "chip": "ym2612"
    },
    {
      "channel": 3,
      "note": 85,
      "start": 71.1279,
      "duration": 0.08,
      "velocity": 124,
      "chip": "ym2612"
    },
    {
      "channel": 3,
      "note": 84,
      "start": 71.2281,
      "duration": 0.0799,
      "velocity": 124,
      "chip": "ym2612"
    },
    {
      "channel": 0,
      "note": 55,
      "start": 71.4306,
      "duration": 0.0469,
      "velocity": 108,
      "chip": "ym2612"
    },
    {
      "channel": 3,
      "note": 85,
      "start": 71.4332,
      "duration": 0.0278,
      "velocity": 124,
      "chip": "ym2612"
    },
    {
      "channel": 0,
      "note": 57,
      "start": 71.4836,
      "duration": 0.147,
      "velocity": 108,
      "chip": "ym2612"
    },
    {
      "channel": 3,
      "note": 84,
      "start": 71.4862,
      "duration": 0.0276,
      "velocity": 124,
      "chip": "ym2612"
    },
    {
      "channel": 3,
      "note": 85,
      "start": 71.6363,
      "duration": 0.0307,
      "velocity": 124,
      "chip": "ym2612"
    },
    {
      "channel": 0,
      "note": 57,
      "start": 71.6896,
      "duration": 0.2468,
      "velocity": 108,
      "chip": "ym2612"
    },
    {
      "channel": 3,
      "note": 84,
      "start": 71.6922,
      "duration": 0.0278,
      "velocity": 124,
      "chip": "ym2612"
    },
    {
      "channel": 3,
      "note": 85,
      "start": 71.8406,
      "duration": 0.0796,
      "velocity": 124,
      "chip": "ym2612"
    },
    {
      "channel": 3,
      "note": 84,
      "start": 71.9424,
      "duration": 0.0099,
      "velocity": 124,
      "chip": "ym2612"
    },
    {
      "channel": 3,
      "note": 85,
      "start": 72.0202,
      "duration": 0.0798,
      "velocity": 124,
      "chip": "ym2612"
    },
    {
      "channel": 3,
      "note": 84,
      "start": 72.1203,
      "duration": 0.0798,
      "velocity": 124,
      "chip": "ym2612"
    },
    {
      "channel": 3,
      "note": 85,
      "start": 72.3372,
      "duration": 0.0633,
      "velocity": 124,
      "chip": "ym2612"
    },
    {
      "channel": 0,
      "note": 57,
      "start": 72.4393,
      "duration": 0.5478,
      "velocity": 108,
      "chip": "ym2612"
    },
    {
      "channel": 3,
      "note": 84,
      "start": 72.4417,
      "duration": 0.012,
      "velocity": 124,
      "chip": "ym2612"
    },
    {
      "channel": 3,
      "note": 85,
      "start": 72.5905,
      "duration": 0.0633,
      "velocity": 124,
      "chip": "ym2612"
    },
    {
      "channel": 3,
      "note": 84,
      "start": 72.6907,
      "duration": 0.0632,
      "velocity": 124,
      "chip": "ym2612"
    },
    {
      "channel": 3,
      "note": 85,
      "start": 72.8913,
      "duration": 0.0629,
      "velocity": 124,
      "chip": "ym2612"
    },
    {
      "channel": 3,
      "note": 84,
      "start": 72.9937,
      "duration": 0.0076,
      "velocity": 124,
      "chip": "ym2612"
    },
    {
      "channel": 3,
      "note": 85,
      "start": 73.0708,
      "duration": 0.0633,
      "velocity": 124,
      "chip": "ym2612"
    },
    {
      "channel": 3,
      "note": 84,
      "start": 73.171,
      "duration": 0.0633,
      "velocity": 124,
      "chip": "ym2612"
    },
    {
      "channel": 0,
      "note": 55,
      "start": 73.3735,
      "duration": 0.047,
      "velocity": 108,
      "chip": "ym2612"
    },
    {
      "channel": 3,
      "note": 85,
      "start": 73.3761,
      "duration": 0.0111,
      "velocity": 124,
      "chip": "ym2612"
    },
    {
      "channel": 0,
      "note": 57,
      "start": 73.4264,
      "duration": 0.1476,
      "velocity": 108,
      "chip": "ym2612"
    },
    {
      "channel": 3,
      "note": 84,
      "start": 73.429,
      "duration": 0.0115,
      "velocity": 124,
      "chip": "ym2612"
    },
    {
      "channel": 1,
      "note": 79,
      "start": 73.4318,
      "duration": 0.7141,
      "velocity": 127,
      "chip": "ym2612"
    },
    {
      "channel": 4,
      "note": 84,
      "start": 73.4343,
      "duration": 0.7118,
      "velocity": 127,
      "chip": "ym2612"
    },
    {
      "channel": 3,
      "note": 85,
      "start": 73.5797,
      "duration": 0.0142,
      "velocity": 124,
      "chip": "ym2612"
    },
    {
      "channel": 0,
      "note": 57,
      "start": 73.6329,
      "duration": 0.1476,
      "velocity": 108,
      "chip": "ym2612"
    },
    {
      "channel": 3,
      "note": 84,
      "start": 73.6352,
      "duration": 0.0119,
      "velocity": 124,
      "chip": "ym2612"
    },
    {
      "channel": 3,
      "note": 85,
      "start": 73.7846,
      "duration": 0.0628,
      "velocity": 124,
      "chip": "ym2612"
    },
    {
      "channel": 0,
      "note": 60,
      "start": 73.8866,
      "duration": 0.2592,
      "velocity": 108,
      "chip": "ym2612"
    },
    {
      "channel": 3,
      "note": 84,
      "start": 73.8891,
      "duration": 0.0087,
      "velocity": 124,
      "chip": "ym2612"
    },
    {
      "channel": 3,
      "note": 85,
      "start": 73.9654,
      "duration": 0.0311,
      "velocity": 124,
      "chip": "ym2612"
    },
    {
      "channel": 3,
      "note": 84,
      "start": 74.0188,
      "duration": 0.01,
      "velocity": 124,
      "chip": "ym2612"
    },
    {
      "channel": 3,
      "note": 85,
      "start": 74.099,
      "duration": 0.0302,
      "velocity": 124,
      "chip": "ym2612"
    },
    {
      "channel": 0,
      "note": 57,
      "start": 74.1518,
      "duration": 0.5478,
      "velocity": 108,
      "chip": "ym2612"
    },
    {
      "channel": 3,
      "note": 84,
      "start": 74.1541,
      "duration": 0.0284,
      "velocity": 124,
      "chip": "ym2612"
    },
    {
      "channel": 1,
      "note": 81,
      "start": 74.157,
      "duration": 0.9765,
      "velocity": 127,
      "chip": "ym2612"
    },
    {
      "channel": 4,
      "note": 76,
      "start": 74.1596,
      "duration": 0.9741,
      "velocity": 127,
      "chip": "ym2612"
    },
    {
      "channel": 3,
      "note": 85,
      "start": 74.3028,
      "duration": 0.0799,
      "velocity": 124,
      "chip": "ym2612"
    },
    {
      "channel": 3,
      "note": 84,
      "start": 74.4028,
      "duration": 0.0799,
      "velocity": 124,
      "chip": "ym2612"
    },
    {
      "channel": 3,
      "note": 85,
      "start": 74.6035,
      "duration": 0.0796,
      "velocity": 124,
      "chip": "ym2612"
    },
    {
      "channel": 3,
      "note": 84,
      "start": 74.7055,
      "duration": 0.0103,
      "velocity": 124,
      "chip": "ym2612"
    },
    {
      "channel": 3,
      "note": 85,
      "start": 74.7833,
      "duration": 0.08,
      "velocity": 124,
      "chip": "ym2612"
    },
    {
      "channel": 3,
      "note": 84,
      "start": 74.8835,
      "duration": 0.0798,
      "velocity": 124,
      "chip": "ym2612"
    },
    {
      "channel": 0,
      "note": 55,
      "start": 75.086,
      "duration": 0.047,
      "velocity": 108,
      "chip": "ym2612"
    },
    {
      "channel": 3,
      "note": 85,
      "start": 75.0886,
      "duration": 0.0282,
      "velocity": 124,
      "chip": "ym2612"
    },
    {
      "channel": 0,
      "note": 57,
      "start": 75.1395,
      "duration": 0.1471,
      "velocity": 108,
      "chip": "ym2612"
    },
    {
      "channel": 3,
      "note": 84,
      "start": 75.1421,
      "duration": 0.0277,
      "velocity": 124,
      "chip": "ym2612"
    },
    {
      "channel": 3,
      "note": 85,
      "start": 75.2924,
      "duration": 0.0305,
      "velocity": 124,
      "chip": "ym2612"
    },
    {
      "channel": 2,
      "note": 81,
      "start": 75.2952,
      "duration": 0.0552,
      "velocity": 106,
      "chip": "ym2612"
    },
    {
      "channel": 1,
      "note": 84,
      "start": 75.2976,
      "duration": 0.0528,
      "velocity": 106,
      "chip": "ym2612"
    },
    {
      "channel": 0,
      "note": 57,
      "start": 75.3453,
      "duration": 0.2643,
      "velocity": 108,
      "chip": "ym2612"
    },
    {
      "channel": 3,
      "note": 84,
      "start": 75.3475,
      "duration": 0.0285,
      "velocity": 124,
      "chip": "ym2612"
    },
    {
      "channel": 3,
      "note": 85,
      "start": 75.5133,
      "duration": 0.0629,
      "velocity": 124,
      "chip": "ym2612"
    },
    {
      "channel": 3,
      "note": 84,
      "start": 75.6153,
      "duration": 0.0114,
      "velocity": 124,
      "chip": "ym2612"
    },
    {
      "channel": 1,
      "note": 81,
      "start": 75.6182,
      "duration": 0.0713,
      "velocity": 106,
      "chip": "ym2612"
    },
    {
      "channel": 2,
      "note": 84,
      "start": 75.6206,
      "duration": 0.0692,
      "velocity": 106,
      "chip": "ym2612"
    },
    {
      "channel": 3,
      "note": 85,
      "start": 75.6933,
      "duration": 0.063,
      "velocity": 124,
      "chip": "ym2612"
    },
    {
      "channel": 3,
      "note": 84,
      "start": 75.7932,
      "duration": 0.0632,
      "velocity": 124,
      "chip": "ym2612"
    }
  ]
}