{
  "track_name": "04 - Mellow Groove",
  "duration_sec": 51.203,
  "sample_rate": 44100,
  "note_count": 688,
  "unique_pitches": 39,
  "pitch_range": 44,
  "avg_note_duration": 0.1346,
  "reconstruction_stats": {
    "notes_reconstructed": 688,
    "keyon_events": 688,
    "keyoff_events": 687,
    "orphan_keyons": 1,
    "unique_pitches": 39,
    "pitch_range": 44,
    "avg_duration_sec": 0.1346
  },
  "metadata": {
    "source": "T\\ToeJam & Earl in Panic on Funkotron\\04 - Mellow Groove.vgz"
  },
  "notes": [
    {
      "channel": 1,
      "note": 57,
      "start": 0.0,
      "duration": 0.2895,
      "velocity": 98,
      "chip": "ym2612"
    },
    {
      "channel": 5,
      "note": 45,
      "start": 0.0052,
      "duration": 0.2013,
      "velocity": 122,
      "chip": "ym2612"
    },
    {
      "channel": 1,
      "note": 57,
      "start": 0.643,
      "duration": 0.18,
      "velocity": 98,
      "chip": "ym2612"
    },
    {
      "channel": 3,
      "note": 49,
      "start": 0.6461,
      "duration": 0.2268,
      "velocity": 125,
      "chip": "ym2612"
    },
    {
      "channel": 1,
      "note": 55,
      "start": 0.86,
      "duration": 0.0463,
      "velocity": 98,
      "chip": "ym2612"
    },
    {
      "channel": 1,
      "note": 52,
      "start": 0.9596,
      "duration": 0.2133,
      "velocity": 98,
      "chip": "ym2612"
    },
    {
      "channel": 0,
      "note": 49,
      "start": 1.1434,
      "duration": 0.0461,
      "velocity": 116,
      "chip": "ym2612"
    },
    {
      "channel": 1,
      "note": 50,
      "start": 1.2762,
      "duration": 0.2469,
      "velocity": 98,
      "chip": "ym2612"
    },
    {
      "channel": 5,
      "note": 45,
      "start": 1.2791,
      "duration": 0.1106,
      "velocity": 122,
      "chip": "ym2612"
    },
    {
      "channel": 0,
      "note": 49,
      "start": 1.4596,
      "duration": 0.0633,
      "velocity": 116,
      "chip": "ym2612"
    },
    {
      "channel": 1,
      "note": 52,
      "start": 1.5929,
      "duration": 0.0801,
      "velocity": 98,
      "chip": "ym2612"
    },
    {
      "channel": 5,
      "note": 45,
      "start": 1.5956,
      "duration": 0.1109,
      "velocity": 122,
      "chip": "ym2612"
    },
    {
      "channel": 1,
      "note": 52,
      "start": 1.9261,
      "duration": 0.2634,
      "velocity": 98,
      "chip": "ym2612"
    },
    {
      "channel": 0,
      "note": 49,
      "start": 1.9296,
      "duration": 0.1767,
      "velocity": 116,
      "chip": "ym2612"
    },
    {
      "channel": 3,
      "note": 49,
      "start": 1.9323,
      "duration": 0.1407,
      "velocity": 125,
      "chip": "ym2612"
    },
    {
      "channel": 1,
      "note": 55,
      "start": 2.2429,
      "duration": 0.0468,
      "velocity": 98,
      "chip": "ym2612"
    },
    {
      "channel": 1,
      "note": 57,
      "start": 2.5595,
      "duration": 0.2634,
      "velocity": 98,
      "chip": "ym2612"
    },
    {
      "channel": 5,
      "note": 45,
      "start": 2.5626,
      "duration": 0.1606,
      "velocity": 122,
      "chip": "ym2612"
    },
    {
      "channel": 1,
      "note": 55,
      "start": 2.8766,
      "duration": 0.0463,
      "velocity": 98,
      "chip": "ym2612"
    },
    {
      "channel": 1,
      "note": 57,
      "start": 3.193,
      "duration": 0.1634,
      "velocity": 98,
      "chip": "ym2612"
    },
    {
      "channel": 3,
      "note": 49,
      "start": 3.1964,
      "duration": 0.2099,
      "velocity": 125,
      "chip": "ym2612"
    },
    {
      "channel": 1,
      "note": 60,
      "start": 3.4098,
      "duration": 0.0798,
      "velocity": 98,
      "chip": "ym2612"
    },
    {
      "channel": 1,
      "note": 55,
      "start": 3.5263,
      "duration": 0.18,
      "velocity": 98,
      "chip": "ym2612"
    },
    {
      "channel": 5,
      "note": 45,
      "start": 3.5293,
      "duration": 0.0104,
      "velocity": 122,
      "chip": "ym2612"
    },
    {
      "channel": 0,
      "note": 49,
      "start": 3.7098,
      "duration": 0.013,
      "velocity": 116,
      "chip": "ym2612"
    },
    {
      "channel": 1,
      "note": 52,
      "start": 3.7263,
      "duration": 0.0799,
      "velocity": 98,
      "chip": "ym2612"
    },
    {
      "channel": 1,
      "note": 50,
      "start": 3.8434,
      "duration": 0.213,
      "velocity": 98,
      "chip": "ym2612"
    },
    {
      "channel": 5,
      "note": 45,
      "start": 3.8463,
      "duration": 0.1268,
      "velocity": 122,
      "chip": "ym2612"
    },
    {
      "channel": 0,
      "note": 49,
      "start": 4.0264,
      "duration": 0.0298,
      "velocity": 116,
      "chip": "ym2612"
    },
    {
      "channel": 1,
      "note": 50,
      "start": 4.1595,
      "duration": 0.2301,
      "velocity": 98,
      "chip": "ym2612"
    },
    {
      "channel": 3,
      "note": 49,
      "start": 4.1626,
      "duration": 0.1604,
      "velocity": 125,
      "chip": "ym2612"
    },
    {
      "channel": 4,
      "note": 50,
      "start": 4.1657,
      "duration": 0.0741,
      "velocity": 83,
      "chip": "ym2612"
    },
    {
      "channel": 4,
      "note": 62,
      "start": 4.377,
      "duration": 0.0794,
      "velocity": 83,
      "chip": "ym2612"
    },
    {
      "channel": 1,
      "note": 51,
      "start": 4.4762,
      "duration": 0.2134,
      "velocity": 98,
      "chip": "ym2612"
    },
    {
      "channel": 3,
      "note": 49,
      "start": 4.6599,
      "duration": 0.1964,
      "velocity": 125,
      "chip": "ym2612"
    },
    {
      "channel": 4,
      "note": 52,
      "start": 4.6933,
      "duration": 0.0798,
      "velocity": 83,
      "chip": "ym2612"
    },
    {
      "channel": 1,
      "note": 52,
      "start": 4.7927,
      "duration": 0.2136,
      "velocity": 98,
      "chip": "ym2612"
    },
    {
      "channel": 5,
      "note": 45,
      "start": 4.7956,
      "duration": 0.0276,
      "velocity": 122,
      "chip": "ym2612"
    },
    {
      "channel": 4,
      "note": 64,
      "start": 4.7988,
      "duration": 0.0742,
      "velocity": 83,
      "chip": "ym2612"
    },
    {
      "channel": 1,
      "note": 57,
      "start": 5.1261,
      "duration": 0.2802,
      "velocity": 98,
      "chip": "ym2612"
    },
    {
      "channel": 5,
      "note": 45,
      "start": 5.1288,
      "duration": 0.0943,
      "velocity": 122,
      "chip": "ym2612"
    },
    {
      "channel": 1,
      "note": 55,
      "start": 5.4428,
      "duration": 0.0802,
      "velocity": 98,
      "chip": "ym2612"
    },
    {
      "channel": 5,
      "note": 45,
      "start": 5.4457,
      "duration": 0.0107,
      "velocity": 122,
      "chip": "ym2612"
    },
    {
      "channel": 1,
      "note": 52,
      "start": 5.7596,
      "duration": 0.18,
      "velocity": 98,
      "chip": "ym2612"
    },
    {
      "channel": 3,
      "note": 49,
      "start": 5.7628,
      "duration": 0.1602,
      "velocity": 125,
      "chip": "ym2612"
    },
    {
      "channel": 1,
      "note": 55,
      "start": 5.9762,
      "duration": 0.08,
      "velocity": 98,
      "chip": "ym2612"
    },
    {
      "channel": 1,
      "note": 57,
      "start": 6.0767,
      "duration": 0.1796,
      "velocity": 98,
      "chip": "ym2612"
    },
    {
      "channel": 0,
      "note": 49,
      "start": 6.2429,
      "duration": 0.0133,
      "velocity": 116,
      "chip": "ym2612"
    },
    {
      "channel": 1,
      "note": 52,
      "start": 6.2929,
      "duration": 0.0801,
      "velocity": 98,
      "chip": "ym2612"
    },
    {
      "channel": 1,
      "note": 50,
      "start": 6.393,
      "duration": 0.2466,
      "velocity": 98,
      "chip": "ym2612"
    },
    {
      "channel": 0,
      "note": 49,
      "start": 6.5598,
      "duration": 0.0297,
      "velocity": 116,
      "chip": "ym2612"
    },
    {
      "channel": 1,
      "note": 50,
      "start": 6.7262,
      "duration": 0.1301,
      "velocity": 98,
      "chip": "ym2612"
    },
    {
      "channel": 5,
      "note": 45,
      "start": 6.7295,
      "duration": 0.0935,
      "velocity": 122,
      "chip": "ym2612"
    },
    {
      "channel": 1,
      "note": 50,
      "start": 7.043,
      "duration": 0.18,
      "velocity": 98,
      "chip": "ym2612"
    },
    {
      "channel": 3,
      "note": 49,
      "start": 7.0459,
      "duration": 0.1438,
      "velocity": 125,
      "chip": "ym2612"
    },
    {
      "channel": 1,
      "note": 51,
      "start": 7.26,
      "duration": 0.0629,
      "velocity": 98,
      "chip": "ym2612"
    },
    {
      "channel": 1,
      "note": 52,
      "start": 7.3596,
      "duration": 0.1633,
      "velocity": 98,
      "chip": "ym2612"
    },
    {
      "channel": 5,
      "note": 45,
      "start": 7.3626,
      "duration": 0.0271,
      "velocity": 122,
      "chip": "ym2612"
    },
    {
      "channel": 1,
      "note": 57,
      "start": 7.5763,
      "duration": 0.2633,
      "velocity": 98,
      "chip": "ym2612"
    },
    {
      "channel": 4,
      "note": 57,
      "start": 7.5796,
      "duration": 0.0934,
      "velocity": 83,
      "chip": "ym2612"
    },
    {
      "channel": 5,
      "note": 45,
      "start": 7.6763,
      "duration": 0.1302,
      "velocity": 122,
      "chip": "ym2612"
    },
    {
      "channel": 1,
      "note": 52,
      "start": 7.8929,
      "duration": 0.0468,
      "velocity": 98,
      "chip": "ym2612"
    },
    {
      "channel": 1,
      "note": 55,
      "start": 7.993,
      "duration": 0.1633,
      "velocity": 98,
      "chip": "ym2612"
    },
    {
      "channel": 5,
      "note": 45,
      "start": 7.9958,
      "duration": 0.1273,
      "velocity": 122,
      "chip": "ym2612"
    },
    {
      "channel": 3,
      "note": 49,
      "start": 8.1936,
      "duration": 0.096,
      "velocity": 125,
      "chip": "ym2612"
    },
    {
      "channel": 4,
      "note": 50,
      "start": 8.1963,
      "duration": 0.0934,
      "velocity": 83,
      "chip": "ym2612"
    },
    {
      "channel": 1,
      "note": 50,
      "start": 8.2096,
      "duration": 0.2467,
      "velocity": 98,
      "chip": "ym2612"
    },
    {
      "channel": 1,
      "note": 50,
      "start": 8.5267,
      "duration": 0.0796,
      "velocity": 98,
      "chip": "ym2612"
    },
    {
      "channel": 1,
      "note": 51,
      "start": 8.6428,
      "duration": 0.0802,
      "velocity": 98,
      "chip": "ym2612"
    },
    {
      "channel": 5,
      "note": 45,
      "start": 8.6457,
      "duration": 0.0107,
      "velocity": 122,
      "chip": "ym2612"
    },
    {
      "channel": 3,
      "note": 49,
      "start": 8.7932,
      "duration": 0.1298,
      "velocity": 125,
      "chip": "ym2612"
    },
    {
      "channel": 4,
      "note": 52,
      "start": 8.7962,
      "duration": 0.1102,
      "velocity": 83,
      "chip": "ym2612"
    },
    {
      "channel": 5,
      "note": 45,
      "start": 8.8264,
      "duration": 0.0969,
      "velocity": 122,
      "chip": "ym2612"
    },
    {
      "channel": 1,
      "note": 52,
      "start": 8.8596,
      "duration": 0.23,
      "velocity": 98,
      "chip": "ym2612"
    },
    {
      "channel": 3,
      "note": 59,
      "start": 9.5962,
      "duration": 0.527,
      "velocity": 118,
      "chip": "ym2612"
    },
    {
      "channel": 1,
      "note": 57,
      "start": 10.243,
      "duration": 0.28,
      "velocity": 98,
      "chip": "ym2612"
    },
    {
      "channel": 5,
      "note": 45,
      "start": 10.2463,
      "duration": 0.2101,
      "velocity": 122,
      "chip": "ym2612"
    },
    {
      "channel": 2,
      "note": 74,
      "start": 10.2525,
      "duration": 0.4873,
      "velocity": 85,
      "chip": "ym2612"
    },
    {
      "channel": 2,
      "note": 72,
      "start": 10.7775,
      "duration": 0.0456,
      "velocity": 85,
      "chip": "ym2612"
    },
    {
      "channel": 1,
      "note": 57,
      "start": 10.8763,
      "duration": 0.18,
      "velocity": 98,
      "chip": "ym2612"
    },
    {
      "channel": 3,
      "note": 49,
      "start": 10.8805,
      "duration": 0.2425,
      "velocity": 125,
      "chip": "ym2612"
    },
    {
      "channel": 2,
      "note": 74,
      "start": 10.8839,
      "duration": 0.1559,
      "velocity": 85,
      "chip": "ym2612"
    },
    {
      "channel": 2,
      "note": 72,
      "start": 11.0606,
      "duration": 0.0793,
      "velocity": 85,
      "chip": "ym2612"
    },
    {
      "channel": 1,
      "note": 55,
      "start": 11.0933,
      "duration": 0.0463,
      "velocity": 98,
      "chip": "ym2612"
    },
    {
      "channel": 1,
      "note": 52,
      "start": 11.1929,
      "duration": 0.2135,
      "velocity": 98,
      "chip": "ym2612"
    },
    {
      "channel": 2,
      "note": 69,
      "start": 11.1967,
      "duration": 0.0265,
      "velocity": 85,
      "chip": "ym2612"
    },
    {
      "channel": 2,
      "note": 72,
      "start": 11.3622,
      "duration": 0.3947,
      "velocity": 85,
      "chip": "ym2612"
    },
    {
      "channel": 0,
      "note": 49,
      "start": 11.3932,
      "duration": 0.0465,
      "velocity": 116,
      "chip": "ym2612"
    },
    {
      "channel": 1,
      "note": 50,
      "start": 11.5262,
      "duration": 0.2303,
      "velocity": 98,
      "chip": "ym2612"
    },
    {
      "channel": 5,
      "note": 45,
      "start": 11.5292,
      "duration": 0.0941,
      "velocity": 122,
      "chip": "ym2612"
    },
    {
      "channel": 0,
      "note": 49,
      "start": 11.7101,
      "duration": 0.0463,
      "velocity": 116,
      "chip": "ym2612"
    },
    {
      "channel": 1,
      "note": 52,
      "start": 11.8429,
      "duration": 0.0802,
      "velocity": 98,
      "chip": "ym2612"
    },
    {
      "channel": 5,
      "note": 45,
      "start": 11.8457,
      "duration": 0.0941,
      "velocity": 122,
      "chip": "ym2612"
    },
    {
      "channel": 2,
      "note": 74,
      "start": 11.8495,
      "duration": 0.0071,
      "velocity": 85,
      "chip": "ym2612"
    },
    {
      "channel": 1,
      "note": 52,
      "start": 12.1595,
      "duration": 0.2634,
      "velocity": 98,
      "chip": "ym2612"
    },
    {
      "channel": 0,
      "note": 49,
      "start": 12.1626,
      "duration": 0.1771,
      "velocity": 116,
      "chip": "ym2612"
    },
    {
      "channel": 3,
      "note": 49,
      "start": 12.1652,
      "duration": 0.1578,
      "velocity": 125,
      "chip": "ym2612"
    },
    {
      "channel": 2,
      "note": 69,
      "start": 12.3772,
      "duration": 0.046,
      "velocity": 85,
      "chip": "ym2612"
    },
    {
      "channel": 1,
      "note": 55,
      "start": 12.4761,
      "duration": 0.0468,
      "velocity": 98,
      "chip": "ym2612"
    },
    {
      "channel": 2,
      "note": 72,
      "start": 12.4799,
      "duration": 0.0265,
      "velocity": 85,
      "chip": "ym2612"
    },
    {
      "channel": 2,
      "note": 74,
      "start": 12.6603,
      "duration": 0.6461,
      "velocity": 85,
      "chip": "ym2612"
    },
    {
      "channel": 1,
      "note": 57,
      "start": 12.7929,
      "duration": 0.2634,
      "velocity": 98,
      "chip": "ym2612"
    },
    {
      "channel": 5,
      "note": 45,
      "start": 12.7956,
      "duration": 0.1607,
      "velocity": 122,
      "chip": "ym2612"
    },
    {
      "channel": 1,
      "note": 55,
      "start": 13.1262,
      "duration": 0.0467,
      "velocity": 98,
      "chip": "ym2612"
    },
    {
      "channel": 2,
      "note": 72,
      "start": 13.3272,
      "duration": 0.0626,
      "velocity": 85,
      "chip": "ym2612"
    },
    {
      "channel": 1,
      "note": 57,
      "start": 13.4434,
      "duration": 0.1462,
      "velocity": 98,
      "chip": "ym2612"
    },
    {
      "channel": 3,
      "note": 49,
      "start": 13.4463,
      "duration": 0.21,
      "velocity": 125,
      "chip": "ym2612"
    },
    {
      "channel": 2,
      "note": 74,
      "start": 13.4497,
      "duration": 0.1735,
      "velocity": 85,
      "chip": "ym2612"
    },
    {
      "channel": 1,
      "note": 60,
      "start": 13.6597,
      "duration": 0.0633,
      "velocity": 98,
      "chip": "ym2612"
    },
    {
      "channel": 2,
      "note": 72,
      "start": 13.6635,
      "duration": 0.0929,
      "velocity": 85,
      "chip": "ym2612"
    },
    {
      "channel": 1,
      "note": 55,
      "start": 13.7597,
      "duration": 0.1798,
      "velocity": 98,
      "chip": "ym2612"
    },
    {
      "channel": 5,
      "note": 45,
      "start": 13.7626,
      "duration": 0.0272,
      "velocity": 122,
      "chip": "ym2612"
    },
    {
      "channel": 2,
      "note": 69,
      "start": 13.7661,
      "duration": 0.0904,
      "velocity": 85,
      "chip": "ym2612"
    },
    {
      "channel": 0,
      "note": 49,
      "start": 13.9431,
      "duration": 0.0298,
      "velocity": 116,
      "chip": "ym2612"
    },
    {
      "channel": 1,
      "note": 52,
      "start": 13.9764,
      "duration": 0.0799,
      "velocity": 98,
      "chip": "ym2612"
    },
    {
      "channel": 2,
      "note": 72,
      "start": 13.9801,
      "duration": 0.0096,
      "velocity": 85,
      "chip": "ym2612"
    },
    {
      "channel": 1,
      "note": 50,
      "start": 14.0763,
      "duration": 0.2134,
      "velocity": 98,
      "chip": "ym2612"
    },
    {
      "channel": 5,
      "note": 45,
      "start": 14.0791,
      "duration": 0.1273,
      "velocity": 122,
      "chip": "ym2612"
    },
    {
      "channel": 0,
      "note": 49,
      "start": 14.2596,
      "duration": 0.03,
      "velocity": 116,
      "chip": "ym2612"
    },
    {
      "channel": 1,
      "note": 50,
      "start": 14.3932,
      "duration": 0.2464,
      "velocity": 98,
      "chip": "ym2612"
    },
    {
      "channel": 5,
      "note": 45,
      "start": 14.3963,
      "duration": 0.1268,
      "velocity": 122,
      "chip": "ym2612"
    },
    {
      "channel": 0,
      "note": 50,
      "start": 14.3991,
      "duration": 0.0107,
      "velocity": 116,
      "chip": "ym2612"
    },
    {
      "channel": 2,
      "note": 78,
      "start": 14.403,
      "duration": 0.0701,
      "velocity": 85,
      "chip": "ym2612"
    },
    {
      "channel": 4,
      "note": 72,
      "start": 14.4061,
      "duration": 0.1004,
      "velocity": 112,
      "chip": "ym2612"
    },
    {
      "channel": 3,
      "note": 83,
      "start": 14.4088,
      "duration": 0.0976,
      "velocity": 112,
      "chip": "ym2612"
    },
    {
      "channel": 0,
      "note": 78,
      "start": 14.4119,
      "duration": 0.0944,
      "velocity": 112,
      "chip": "ym2612"
    },
    {
      "channel": 1,
      "note": 51,
      "start": 14.7261,
      "duration": 0.2302,
      "velocity": 98,
      "chip": "ym2612"
    },
    {
      "channel": 2,
      "note": 49,
      "start": 14.729,
      "duration": 0.1941,
      "velocity": 125,
      "chip": "ym2612"
    },
    {
      "channel": 0,
      "note": 49,
      "start": 14.9267,
      "duration": 0.1129,
      "velocity": 116,
      "chip": "ym2612"
    },
    {
      "channel": 3,
      "note": 79,
      "start": 14.93,
      "duration": 0.0764,
      "velocity": 85,
      "chip": "ym2612"
    },
    {
      "channel": 4,
      "note": 74,
      "start": 14.9327,
      "duration": 0.1071,
      "velocity": 112,
      "chip": "ym2612"
    },
    {
      "channel": 5,
      "note": 84,
      "start": 14.9355,
      "duration": 0.0711,
      "velocity": 112,
      "chip": "ym2612"
    },
    {
      "channel": 2,
      "note": 79,
      "start": 14.9384,
      "duration": 0.0683,
      "velocity": 112,
      "chip": "ym2612"
    },
    {
      "channel": 1,
      "note": 52,
      "start": 15.043,
      "duration": 0.2132,
      "velocity": 98,
      "chip": "ym2612"
    },
    {
      "channel": 3,
      "note": 45,
      "start": 15.0461,
      "duration": 0.0102,
      "velocity": 122,
      "chip": "ym2612"
    },
    {
      "channel": 1,
      "note": 57,
      "start": 15.3595,
      "duration": 0.2968,
      "velocity": 98,
      "chip": "ym2612"
    },
    {
      "channel": 3,
      "note": 45,
      "start": 15.3622,
      "duration": 0.0942,
      "velocity": 122,
      "chip": "ym2612"
    },
    {
      "channel": 5,
      "note": 74,
      "start": 15.3658,
      "duration": 0.4906,
      "velocity": 85,
      "chip": "ym2612"
    },
    {
      "channel": 1,
      "note": 55,
      "start": 15.6762,
      "duration": 0.0801,
      "velocity": 98,
      "chip": "ym2612"
    },
    {
      "channel": 3,
      "note": 45,
      "start": 15.679,
      "duration": 0.0273,
      "velocity": 122,
      "chip": "ym2612"
    },
    {
      "channel": 5,
      "note": 72,
      "start": 15.8942,
      "duration": 0.0455,
      "velocity": 85,
      "chip": "ym2612"
    },
    {
      "channel": 1,
      "note": 57,
      "start": 15.9929,
      "duration": 0.1968,
      "velocity": 98,
      "chip": "ym2612"
    },
    {
      "channel": 2,
      "note": 49,
      "start": 15.9961,
      "duration": 0.1604,
      "velocity": 125,
      "chip": "ym2612"
    },
    {
      "channel": 5,
      "note": 74,
      "start": 15.9994,
      "duration": 0.1905,
      "velocity": 85,
      "chip": "ym2612"
    },
    {
      "channel": 1,
      "note": 60,
      "start": 16.2096,
      "duration": 0.0799,
      "velocity": 98,
      "chip": "ym2612"
    },
    {
      "channel": 5,
      "note": 72,
      "start": 16.2133,
      "duration": 0.0765,
      "velocity": 85,
      "chip": "ym2612"
    },
    {
      "channel": 1,
      "note": 55,
      "start": 16.3266,
      "duration": 0.1798,
      "velocity": 98,
      "chip": "ym2612"
    },
    {
      "channel": 5,
      "note": 69,
      "start": 16.3301,
      "duration": 0.0597,
      "velocity": 85,
      "chip": "ym2612"
    },
    {
      "channel": 0,
      "note": 49,
      "start": 16.4768,
      "duration": 0.0295,
      "velocity": 116,
      "chip": "ym2612"
    },
    {
      "channel": 5,
      "note": 72,
      "start": 16.5119,
      "duration": 0.3947,
      "velocity": 85,
      "chip": "ym2612"
    },
    {
      "channel": 1,
      "note": 52,
      "start": 16.5264,
      "duration": 0.08,
      "velocity": 98,
      "chip": "ym2612"
    },
    {
      "channel": 1,
      "note": 50,
      "start": 16.643,
      "duration": 0.23,
      "velocity": 98,
      "chip": "ym2612"
    },
    {
      "channel": 0,
      "note": 49,
      "start": 16.7932,
      "duration": 0.0298,
      "velocity": 116,
      "chip": "ym2612"
    },
    {
      "channel": 1,
      "note": 50,
      "start": 16.9596,
      "duration": 0.1302,
      "velocity": 98,
      "chip": "ym2612"
    },
    {
      "channel": 3,
      "note": 45,
      "start": 16.9624,
      "duration": 0.094,
      "velocity": 122,
      "chip": "ym2612"
    },
    {
      "channel": 5,
      "note": 73,
      "start": 16.9661,
      "duration": 0.0238,
      "velocity": 85,
      "chip": "ym2612"
    },
    {
      "channel": 1,
      "note": 50,
      "start": 17.2764,
      "duration": 0.18,
      "velocity": 98,
      "chip": "ym2612"
    },
    {
      "channel": 2,
      "note": 49,
      "start": 17.2798,
      "duration": 0.16,
      "velocity": 125,
      "chip": "ym2612"
    },
    {
      "channel": 1,
      "note": 51,
      "start": 17.4929,
      "duration": 0.08,
      "velocity": 98,
      "chip": "ym2612"
    },
    {
      "channel": 5,
      "note": 64,
      "start": 17.497,
      "duration": 0.0428,
      "velocity": 85,
      "chip": "ym2612"
    },
    {
      "channel": 1,
      "note": 52,
      "start": 17.5933,
      "duration": 0.1629,
      "velocity": 98,
      "chip": "ym2612"
    },
    {
      "channel": 3,
      "note": 45,
      "start": 17.596,
      "duration": 0.027,
      "velocity": 122,
      "chip": "ym2612"
    },
    {
      "channel": 5,
      "note": 67,
      "start": 17.5994,
      "duration": 0.0571,
      "velocity": 85,
      "chip": "ym2612"
    },
    {
      "channel": 1,
      "note": 57,
      "start": 17.8097,
      "duration": 0.2632,
      "velocity": 98,
      "chip": "ym2612"
    },
    {
      "channel": 2,
      "note": 49,
      "start": 17.8128,
      "duration": 0.1604,
      "velocity": 125,
      "chip": "ym2612"
    },
    {
      "channel": 5,
      "note": 72,
      "start": 17.8161,
      "duration": 0.0737,
      "velocity": 85,
      "chip": "ym2612"
    },
    {
      "channel": 4,
      "note": 84,
      "start": 17.8191,
      "duration": 0.1041,
      "velocity": 112,
      "chip": "ym2612"
    },
    {
      "channel": 0,
      "note": 79,
      "start": 17.8222,
      "duration": 0.1006,
      "velocity": 112,
      "chip": "ym2612"
    },
    {
      "channel": 3,
      "note": 74,
      "start": 17.8251,
      "duration": 0.098,
      "velocity": 112,
      "chip": "ym2612"
    },
    {
      "channel": 1,
      "note": 52,
      "start": 18.1262,
      "duration": 0.0633,
      "velocity": 98,
      "chip": "ym2612"
    },
    {
      "channel": 5,
      "note": 66,
      "start": 18.1299,
      "duration": 0.0599,
      "velocity": 85,
      "chip": "ym2612"
    },
    {
      "channel": 1,
      "note": 55,
      "start": 18.243,
      "duration": 0.1467,
      "velocity": 98,
      "chip": "ym2612"
    },
    {
      "channel": 0,
      "note": 45,
      "start": 18.2459,
      "duration": 0.1271,
      "velocity": 122,
      "chip": "ym2612"
    },
    {
      "channel": 5,
      "note": 69,
      "start": 18.2492,
      "duration": 0.0406,
      "velocity": 85,
      "chip": "ym2612"
    },
    {
      "channel": 2,
      "note": 49,
      "start": 18.4267,
      "duration": 0.0964,
      "velocity": 125,
      "chip": "ym2612"
    },
    {
      "channel": 1,
      "note": 50,
      "start": 18.4596,
      "duration": 0.23,
      "velocity": 98,
      "chip": "ym2612"
    },
    {
      "channel": 5,
      "note": 74,
      "start": 18.4631,
      "duration": 0.0434,
      "velocity": 85,
      "chip": "ym2612"
    },
    {
      "channel": 3,
      "note": 81,
      "start": 18.4659,
      "duration": 0.0906,
      "velocity": 112,
      "chip": "ym2612"
    },
    {
      "channel": 4,
      "note": 86,
      "start": 18.4684,
      "duration": 0.0882,
      "velocity": 112,
      "chip": "ym2612"
    },
    {
      "channel": 0,
      "note": 76,
      "start": 18.4712,
      "duration": 0.0851,
      "velocity": 112,
      "chip": "ym2612"
    },
    {
      "channel": 1,
      "note": 50,
      "start": 18.7767,
      "duration": 0.0796,
      "velocity": 98,
      "chip": "ym2612"
    },
    {
      "channel": 5,
      "note": 67,
      "start": 18.7804,
      "duration": 0.0095,
      "velocity": 85,
      "chip": "ym2612"
    },
    {
      "channel": 1,
      "note": 51,
      "start": 18.8761,
      "duration": 0.0802,
      "velocity": 98,
      "chip": "ym2612"
    },
    {
      "channel": 2,
      "note": 45,
      "start": 18.8795,
      "duration": 0.0271,
      "velocity": 122,
      "chip": "ym2612"
    },
    {
      "channel": 5,
      "note": 72,
      "start": 18.8835,
      "duration": 0.0396,
      "velocity": 85,
      "chip": "ym2612"
    },
    {
      "channel": 2,
      "note": 45,
      "start": 19.0599,
      "duration": 0.1132,
      "velocity": 122,
      "chip": "ym2612"
    },
    {
      "channel": 0,
      "note": 49,
      "start": 19.063,
      "duration": 0.0393,
      "velocity": 125,
      "chip": "ym2612"
    },
    {
      "channel": 1,
      "note": 52,
      "start": 19.093,
      "duration": 0.23,
      "velocity": 98,
      "chip": "ym2612"
    },
    {
      "channel": 5,
      "note": 76,
      "start": 19.0965,
      "duration": 0.0432,
      "velocity": 85,
      "chip": "ym2612"
    },
    {
      "channel": 3,
      "note": 88,
      "start": 19.0992,
      "duration": 0.0905,
      "velocity": 112,
      "chip": "ym2612"
    },
    {
      "channel": 4,
      "note": 83,
      "start": 19.1017,
      "duration": 0.0881,
      "velocity": 112,
      "chip": "ym2612"
    },
    {
      "channel": 0,
      "note": 78,
      "start": 19.1044,
      "duration": 0.0008,
      "velocity": 112,
      "chip": "ym2612"
    },
    {
      "channel": 0,
      "note": 74,
      "start": 19.1073,
      "duration": 0.0823,
      "velocity": 112,
      "chip": "ym2612"
    },
    {
      "channel": 2,
      "note": 45,
      "start": 19.5266,
      "duration": 0.1299,
      "velocity": 122,
      "chip": "ym2612"
    },
    {
      "channel": 5,
      "note": 60,
      "start": 19.844,
      "duration": 0.0957,
      "velocity": 116,
      "chip": "ym2612"
    },
    {
      "channel": 5,
      "note": 59,
      "start": 19.9433,
      "duration": 0.0464,
      "velocity": 116,
      "chip": "ym2612"
    },
    {
      "channel": 2,
      "note": 45,
      "start": 20.0598,
      "duration": 0.2634,
      "velocity": 122,
      "chip": "ym2612"
    },
    {
      "channel": 0,
      "note": 49,
      "start": 20.2608,
      "duration": 0.0788,
      "velocity": 125,
      "chip": "ym2612"
    },
    {
      "channel": 0,
      "note": 49,
      "start": 20.3766,
      "duration": 0.0797,
      "velocity": 125,
      "chip": "ym2612"
    },
    {
      "channel": 1,
      "note": 57,
      "start": 20.4763,
      "duration": 0.2967,
      "velocity": 98,
      "chip": "ym2612"
    },
    {
      "channel": 2,
      "note": 45,
      "start": 20.4794,
      "duration": 0.2105,
      "velocity": 122,
      "chip": "ym2612"
    },
    {
      "channel": 3,
      "note": 78,
      "start": 20.4844,
      "duration": 0.5053,
      "velocity": 110,
      "chip": "ym2612"
    },
    {
      "channel": 4,
      "note": 74,
      "start": 20.4898,
      "duration": 0.5,
      "velocity": 81,
      "chip": "ym2612"
    },
    {
      "channel": 3,
      "note": 76,
      "start": 20.9936,
      "duration": 0.0461,
      "velocity": 110,
      "chip": "ym2612"
    },
    {
      "channel": 4,
      "note": 72,
      "start": 20.9967,
      "duration": 0.0431,
      "velocity": 81,
      "chip": "ym2612"
    },
    {
      "channel": 1,
      "note": 57,
      "start": 21.1262,
      "duration": 0.18,
      "velocity": 98,
      "chip": "ym2612"
    },
    {
      "channel": 0,
      "note": 49,
      "start": 21.1292,
      "duration": 0.2271,
      "velocity": 125,
      "chip": "ym2612"
    },
    {
      "channel": 3,
      "note": 78,
      "start": 21.1322,
      "duration": 0.1409,
      "velocity": 110,
      "chip": "ym2612"
    },
    {
      "channel": 4,
      "note": 74,
      "start": 21.1353,
      "duration": 0.1379,
      "velocity": 81,
      "chip": "ym2612"
    },
    {
      "channel": 3,
      "note": 76,
      "start": 21.3102,
      "duration": 0.0796,
      "velocity": 110,
      "chip": "ym2612"
    },
    {
      "channel": 4,
      "note": 72,
      "start": 21.3137,
      "duration": 0.0763,
      "velocity": 81,
      "chip": "ym2612"
    },
    {
      "channel": 1,
      "note": 55,
      "start": 21.3264,
      "duration": 0.0632,
      "velocity": 98,
      "chip": "ym2612"
    },
    {
      "channel": 1,
      "note": 52,
      "start": 21.4434,
      "duration": 0.213,
      "velocity": 98,
      "chip": "ym2612"
    },
    {
      "channel": 3,
      "note": 72,
      "start": 21.4471,
      "duration": 0.0093,
      "velocity": 110,
      "chip": "ym2612"
    },
    {
      "channel": 4,
      "note": 69,
      "start": 21.4502,
      "duration": 0.0063,
      "velocity": 81,
      "chip": "ym2612"
    },
    {
      "channel": 5,
      "note": 49,
      "start": 21.6266,
      "duration": 0.0466,
      "velocity": 116,
      "chip": "ym2612"
    },
    {
      "channel": 3,
      "note": 76,
      "start": 21.6296,
      "duration": 0.3935,
      "velocity": 110,
      "chip": "ym2612"
    },
    {
      "channel": 4,
      "note": 71,
      "start": 21.6329,
      "duration": 0.3904,
      "velocity": 81,
      "chip": "ym2612"
    },
    {
      "channel": 1,
      "note": 50,
      "start": 21.7596,
      "duration": 0.2302,
      "velocity": 98,
      "chip": "ym2612"
    },
    {
      "channel": 2,
      "note": 45,
      "start": 21.7629,
      "duration": 0.0936,
      "velocity": 122,
      "chip": "ym2612"
    },
    {
      "channel": 5,
      "note": 49,
      "start": 21.9433,
      "duration": 0.0467,
      "velocity": 116,
      "chip": "ym2612"
    },
    {
      "channel": 1,
      "note": 52,
      "start": 22.0762,
      "duration": 0.0801,
      "velocity": 98,
      "chip": "ym2612"
    },
    {
      "channel": 2,
      "note": 45,
      "start": 22.079,
      "duration": 0.1109,
      "velocity": 122,
      "chip": "ym2612"
    },
    {
      "channel": 3,
      "note": 78,
      "start": 22.0822,
      "duration": 0.0242,
      "velocity": 110,
      "chip": "ym2612"
    },
    {
      "channel": 4,
      "note": 73,
      "start": 22.0855,
      "duration": 0.0211,
      "velocity": 81,
      "chip": "ym2612"
    },
    {
      "channel": 1,
      "note": 52,
      "start": 22.3929,
      "duration": 0.2634,
      "velocity": 98,
      "chip": "ym2612"
    },
    {
      "channel": 5,
      "note": 49,
      "start": 22.3963,
      "duration": 0.1935,
      "velocity": 116,
      "chip": "ym2612"
    },
    {
      "channel": 0,
      "note": 49,
      "start": 22.3988,
      "duration": 0.1574,
      "velocity": 125,
      "chip": "ym2612"
    },
    {
      "channel": 3,
      "note": 72,
      "start": 22.6101,
      "duration": 0.0464,
      "velocity": 110,
      "chip": "ym2612"
    },
    {
      "channel": 4,
      "note": 69,
      "start": 22.6137,
      "duration": 0.0429,
      "velocity": 81,
      "chip": "ym2612"
    },
    {
      "channel": 1,
      "note": 55,
      "start": 22.7261,
      "duration": 0.0469,
      "velocity": 98,
      "chip": "ym2612"
    },
    {
      "channel": 3,
      "note": 76,
      "start": 22.7294,
      "duration": 0.0103,
      "velocity": 110,
      "chip": "ym2612"
    },
    {
      "channel": 4,
      "note": 72,
      "start": 22.7325,
      "duration": 0.0073,
      "velocity": 81,
      "chip": "ym2612"
    },
    {
      "channel": 3,
      "note": 78,
      "start": 22.9104,
      "duration": 0.6292,
      "velocity": 110,
      "chip": "ym2612"
    },
    {
      "channel": 4,
      "note": 74,
      "start": 22.9136,
      "duration": 0.6261,
      "velocity": 81,
      "chip": "ym2612"
    },
    {
      "channel": 1,
      "note": 57,
      "start": 23.0429,
      "duration": 0.2635,
      "velocity": 98,
      "chip": "ym2612"
    },
    {
      "channel": 2,
      "note": 45,
      "start": 23.0457,
      "duration": 0.1441,
      "velocity": 122,
      "chip": "ym2612"
    },
    {
      "channel": 1,
      "note": 55,
      "start": 23.3595,
      "duration": 0.0468,
      "velocity": 98,
      "chip": "ym2612"
    },
    {
      "channel": 3,
      "note": 76,
      "start": 23.5771,
      "duration": 0.0459,
      "velocity": 110,
      "chip": "ym2612"
    },
    {
      "channel": 4,
      "note": 72,
      "start": 23.5802,
      "duration": 0.0428,
      "velocity": 81,
      "chip": "ym2612"
    },
    {
      "channel": 1,
      "note": 57,
      "start": 23.6767,
      "duration": 0.1629,
      "velocity": 98,
      "chip": "ym2612"
    },
    {
      "channel": 0,
      "note": 49,
      "start": 23.6798,
      "duration": 0.2098,
      "velocity": 125,
      "chip": "ym2612"
    },
    {
      "channel": 3,
      "note": 78,
      "start": 23.6827,
      "duration": 0.1736,
      "velocity": 110,
      "chip": "ym2612"
    },
    {
      "channel": 4,
      "note": 74,
      "start": 23.6859,
      "duration": 0.1706,
      "velocity": 81,
      "chip": "ym2612"
    },
    {
      "channel": 1,
      "note": 60,
      "start": 23.8931,
      "duration": 0.0799,
      "velocity": 98,
      "chip": "ym2612"
    },
    {
      "channel": 3,
      "note": 76,
      "start": 23.8963,
      "duration": 0.0933,
      "velocity": 110,
      "chip": "ym2612"
    },
    {
      "channel": 4,
      "note": 72,
      "start": 23.8995,
      "duration": 0.0902,
      "velocity": 81,
      "chip": "ym2612"
    },
    {
      "channel": 1,
      "note": 55,
      "start": 23.9931,
      "duration": 0.1965,
      "velocity": 98,
      "chip": "ym2612"
    },
    {
      "channel": 2,
      "note": 45,
      "start": 23.9962,
      "duration": 0.027,
      "velocity": 122,
      "chip": "ym2612"
    },
    {
      "channel": 3,
      "note": 72,
      "start": 23.9991,
      "duration": 0.1072,
      "velocity": 110,
      "chip": "ym2612"
    },
    {
      "channel": 4,
      "note": 69,
      "start": 24.0021,
      "duration": 0.1043,
      "velocity": 81,
      "chip": "ym2612"
    },
    {
      "channel": 5,
      "note": 49,
      "start": 24.1934,
      "duration": 0.013,
      "velocity": 116,
      "chip": "ym2612"
    },
    {
      "channel": 1,
      "note": 52,
      "start": 24.2098,
      "duration": 0.0799,
      "velocity": 98,
      "chip": "ym2612"
    },
    {
      "channel": 3,
      "note": 76,
      "start": 24.2131,
      "duration": 0.0266,
      "velocity": 110,
      "chip": "ym2612"
    },
    {
      "channel": 4,
      "note": 72,
      "start": 24.2166,
      "duration": 0.0232,
      "velocity": 81,
      "chip": "ym2612"
    },
    {
      "channel": 1,
      "note": 50,
      "start": 24.3262,
      "duration": 0.1968,
      "velocity": 98,
      "chip": "ym2612"
    },
    {
      "channel": 2,
      "note": 45,
      "start": 24.3293,
      "duration": 0.1272,
      "velocity": 122,
      "chip": "ym2612"
    },
    {
      "channel": 5,
      "note": 49,
      "start": 24.5102,
      "duration": 0.013,
      "velocity": 116,
      "chip": "ym2612"
    },
    {
      "channel": 1,
      "note": 50,
      "start": 24.6428,
      "duration": 0.2301,
      "velocity": 98,
      "chip": "ym2612"
    },
    {
      "channel": 5,
      "note": 55,
      "start": 24.6465,
      "duration": 0.1433,
      "velocity": 116,
      "chip": "ym2612"
    },
    {
      "channel": 3,
      "note": 81,
      "start": 24.6495,
      "duration": 0.1235,
      "velocity": 110,
      "chip": "ym2612"
    },
    {
      "channel": 4,
      "note": 78,
      "start": 24.6527,
      "duration": 0.1205,
      "velocity": 81,
      "chip": "ym2612"
    },
    {
      "channel": 0,
      "note": 72,
      "start": 24.6559,
      "duration": 0.1337,
      "velocity": 117,
      "chip": "ym2612"
    },
    {
      "channel": 2,
      "note": 86,
      "start": 24.6588,
      "duration": 0.1311,
      "velocity": 117,
      "chip": "ym2612"
    },
    {
      "channel": 1,
      "note": 51,
      "start": 24.9599,
      "duration": 0.2131,
      "velocity": 98,
      "chip": "ym2612"
    },
    {
      "channel": 5,
      "note": 57,
      "start": 25.1432,
      "duration": 0.18,
      "velocity": 116,
      "chip": "ym2612"
    },
    {
      "channel": 3,
      "note": 83,
      "start": 25.1771,
      "duration": 0.1292,
      "velocity": 110,
      "chip": "ym2612"
    },
    {
      "channel": 4,
      "note": 79,
      "start": 25.1802,
      "duration": 0.0927,
      "velocity": 81,
      "chip": "ym2612"
    },
    {
      "channel": 0,
      "note": 74,
      "start": 25.1829,
      "duration": 0.14,
      "velocity": 117,
      "chip": "ym2612"
    },
    {
      "channel": 2,
      "note": 88,
      "start": 25.186,
      "duration": 0.1373,
      "velocity": 117,
      "chip": "ym2612"
    },
    {
      "channel": 1,
      "note": 52,
      "start": 25.2761,
      "duration": 0.2135,
      "velocity": 98,
      "chip": "ym2612"
    },
    {
      "channel": 4,
      "note": 45,
      "start": 25.2791,
      "duration": 0.0273,
      "velocity": 122,
      "chip": "ym2612"
    },
    {
      "channel": 1,
      "note": 57,
      "start": 25.5929,
      "duration": 0.2968,
      "velocity": 98,
      "chip": "ym2612"
    },
    {
      "channel": 4,
      "note": 45,
      "start": 25.596,
      "duration": 0.1105,
      "velocity": 122,
      "chip": "ym2612"
    },
    {
      "channel": 3,
      "note": 78,
      "start": 25.5991,
      "duration": 0.5073,
      "velocity": 110,
      "chip": "ym2612"
    },
    {
      "channel": 0,
      "note": 74,
      "start": 25.6024,
      "duration": 0.5038,
      "velocity": 81,
      "chip": "ym2612"
    },
    {
      "channel": 1,
      "note": 55,
      "start": 25.9261,
      "duration": 0.0635,
      "velocity": 98,
      "chip": "ym2612"
    },
    {
      "channel": 4,
      "note": 45,
      "start": 25.929,
      "duration": 0.0108,
      "velocity": 122,
      "chip": "ym2612"
    },
    {
      "channel": 3,
      "note": 76,
      "start": 26.1268,
      "duration": 0.0629,
      "velocity": 110,
      "chip": "ym2612"
    },
    {
      "channel": 0,
      "note": 72,
      "start": 26.1298,
      "duration": 0.0597,
      "velocity": 81,
      "chip": "ym2612"
    },
    {
      "channel": 1,
      "note": 57,
      "start": 26.243,
      "duration": 0.18,
      "velocity": 98,
      "chip": "ym2612"
    },
    {
      "channel": 5,
      "note": 49,
      "start": 26.2467,
      "duration": 0.1432,
      "velocity": 125,
      "chip": "ym2612"
    },
    {
      "channel": 3,
      "note": 78,
      "start": 26.2496,
      "duration": 0.1736,
      "velocity": 110,
      "chip": "ym2612"
    },
    {
      "channel": 0,
      "note": 74,
      "start": 26.253,
      "duration": 0.17,
      "velocity": 81,
      "chip": "ym2612"
    },
    {
      "channel": 1,
      "note": 60,
      "start": 26.4596,
      "duration": 0.0634,
      "velocity": 98,
      "chip": "ym2612"
    },
    {
      "channel": 3,
      "note": 76,
      "start": 26.4629,
      "duration": 0.0602,
      "velocity": 110,
      "chip": "ym2612"
    },
    {
      "channel": 0,
      "note": 72,
      "start": 26.4659,
      "duration": 0.057,
      "velocity": 81,
      "chip": "ym2612"
    },
    {
      "channel": 1,
      "note": 55,
      "start": 26.5597,
      "duration": 0.18,
      "velocity": 98,
      "chip": "ym2612"
    },
    {
      "channel": 2,
      "note": 49,
      "start": 26.7278,
      "duration": 0.0121,
      "velocity": 116,
      "chip": "ym2612"
    },
    {
      "channel": 1,
      "note": 52,
      "start": 26.7769,
      "duration": 0.0796,
      "velocity": 98,
      "chip": "ym2612"
    },
    {
      "channel": 3,
      "note": 76,
      "start": 26.7801,
      "duration": 0.3431,
      "velocity": 110,
      "chip": "ym2612"
    },
    {
      "channel": 0,
      "note": 72,
      "start": 26.7831,
      "duration": 0.3399,
      "velocity": 81,
      "chip": "ym2612"
    },
    {
      "channel": 1,
      "note": 50,
      "start": 26.8764,
      "duration": 0.2468,
      "velocity": 98,
      "chip": "ym2612"
    },
    {
      "channel": 2,
      "note": 49,
      "start": 27.0436,
      "duration": 0.013,
      "velocity": 116,
      "chip": "ym2612"
    },
    {
      "channel": 1,
      "note": 50,
      "start": 27.1929,
      "duration": 0.1301,
      "velocity": 98,
      "chip": "ym2612"
    },
    {
      "channel": 4,
      "note": 45,
      "start": 27.1958,
      "duration": 0.1108,
      "velocity": 122,
      "chip": "ym2612"
    },
    {
      "channel": 3,
      "note": 78,
      "start": 27.1993,
      "duration": 0.024,
      "velocity": 110,
      "chip": "ym2612"
    },
    {
      "channel": 0,
      "note": 73,
      "start": 27.2024,
      "duration": 0.0207,
      "velocity": 81,
      "chip": "ym2612"
    },
    {
      "channel": 1,
      "note": 50,
      "start": 27.5264,
      "duration": 0.18,
      "velocity": 98,
      "chip": "ym2612"
    },
    {
      "channel": 5,
      "note": 49,
      "start": 27.5294,
      "duration": 0.1437,
      "velocity": 125,
      "chip": "ym2612"
    },
    {
      "channel": 1,
      "note": 51,
      "start": 27.7263,
      "duration": 0.08,
      "velocity": 98,
      "chip": "ym2612"
    },
    {
      "channel": 3,
      "note": 67,
      "start": 27.7296,
      "duration": 0.0602,
      "velocity": 110,
      "chip": "ym2612"
    },
    {
      "channel": 0,
      "note": 64,
      "start": 27.7326,
      "duration": 0.057,
      "velocity": 81,
      "chip": "ym2612"
    },
    {
      "channel": 1,
      "note": 52,
      "start": 27.843,
      "duration": 0.1465,
      "velocity": 98,
      "chip": "ym2612"
    },
    {
      "channel": 4,
      "note": 45,
      "start": 27.8459,
      "duration": 0.0105,
      "velocity": 122,
      "chip": "ym2612"
    },
    {
      "channel": 3,
      "note": 71,
      "start": 27.8489,
      "duration": 0.0408,
      "velocity": 110,
      "chip": "ym2612"
    },
    {
      "channel": 0,
      "note": 67,
      "start": 27.8521,
      "duration": 0.0374,
      "velocity": 81,
      "chip": "ym2612"
    },
    {
      "channel": 1,
      "note": 57,
      "start": 28.06,
      "duration": 0.2629,
      "velocity": 98,
      "chip": "ym2612"
    },
    {
      "channel": 3,
      "note": 76,
      "start": 28.0633,
      "duration": 0.0598,
      "velocity": 110,
      "chip": "ym2612"
    },
    {
      "channel": 0,
      "note": 72,
      "start": 28.0663,
      "duration": 0.0566,
      "velocity": 81,
      "chip": "ym2612"
    },
    {
      "channel": 2,
      "note": 84,
      "start": 28.0698,
      "duration": 0.17,
      "velocity": 117,
      "chip": "ym2612"
    },
    {
      "channel": 5,
      "note": 79,
      "start": 28.0728,
      "duration": 0.1338,
      "velocity": 117,
      "chip": "ym2612"
    },
    {
      "channel": 4,
      "note": 74,
      "start": 28.0757,
      "duration": 0.1308,
      "velocity": 117,
      "chip": "ym2612"
    },
    {
      "channel": 0,
      "note": 45,
      "start": 28.1598,
      "duration": 0.1297,
      "velocity": 122,
      "chip": "ym2612"
    },
    {
      "channel": 1,
      "note": 52,
      "start": 28.3763,
      "duration": 0.0466,
      "velocity": 98,
      "chip": "ym2612"
    },
    {
      "channel": 3,
      "note": 69,
      "start": 28.3796,
      "duration": 0.0434,
      "velocity": 110,
      "chip": "ym2612"
    },
    {
      "channel": 4,
      "note": 66,
      "start": 28.3829,
      "duration": 0.0403,
      "velocity": 81,
      "chip": "ym2612"
    },
    {
      "channel": 1,
      "note": 55,
      "start": 28.4763,
      "duration": 0.1633,
      "velocity": 98,
      "chip": "ym2612"
    },
    {
      "channel": 3,
      "note": 72,
      "start": 28.4794,
      "duration": 0.0436,
      "velocity": 110,
      "chip": "ym2612"
    },
    {
      "channel": 4,
      "note": 69,
      "start": 28.4824,
      "duration": 0.0408,
      "velocity": 81,
      "chip": "ym2612"
    },
    {
      "channel": 5,
      "note": 49,
      "start": 28.66,
      "duration": 0.0463,
      "velocity": 125,
      "chip": "ym2612"
    },
    {
      "channel": 1,
      "note": 50,
      "start": 28.693,
      "duration": 0.23,
      "velocity": 98,
      "chip": "ym2612"
    },
    {
      "channel": 3,
      "note": 78,
      "start": 28.6966,
      "duration": 0.0764,
      "velocity": 110,
      "chip": "ym2612"
    },
    {
      "channel": 4,
      "note": 74,
      "start": 28.6997,
      "duration": 0.0734,
      "velocity": 81,
      "chip": "ym2612"
    },
    {
      "channel": 2,
      "note": 81,
      "start": 28.7027,
      "duration": 0.1539,
      "velocity": 117,
      "chip": "ym2612"
    },
    {
      "channel": 0,
      "note": 86,
      "start": 28.7055,
      "duration": 0.1507,
      "velocity": 117,
      "chip": "ym2612"
    },
    {
      "channel": 5,
      "note": 76,
      "start": 28.7084,
      "duration": 0.1481,
      "velocity": 117,
      "chip": "ym2612"
    },
    {
      "channel": 1,
      "note": 50,
      "start": 29.0096,
      "duration": 0.0799,
      "velocity": 98,
      "chip": "ym2612"
    },
    {
      "channel": 3,
      "note": 71,
      "start": 29.0129,
      "duration": 0.0268,
      "velocity": 110,
      "chip": "ym2612"
    },
    {
      "channel": 4,
      "note": 67,
      "start": 29.0161,
      "duration": 0.0237,
      "velocity": 81,
      "chip": "ym2612"
    },
    {
      "channel": 1,
      "note": 51,
      "start": 29.1266,
      "duration": 0.0631,
      "velocity": 98,
      "chip": "ym2612"
    },
    {
      "channel": 0,
      "note": 45,
      "start": 29.1295,
      "duration": 0.01,
      "velocity": 122,
      "chip": "ym2612"
    },
    {
      "channel": 3,
      "note": 76,
      "start": 29.1327,
      "duration": 0.0404,
      "velocity": 110,
      "chip": "ym2612"
    },
    {
      "channel": 4,
      "note": 72,
      "start": 29.1362,
      "duration": 0.037,
      "velocity": 81,
      "chip": "ym2612"
    },
    {
      "channel": 5,
      "note": 49,
      "start": 29.31,
      "duration": 0.0293,
      "velocity": 125,
      "chip": "ym2612"
    },
    {
      "channel": 1,
      "note": 52,
      "start": 29.3264,
      "duration": 0.2466,
      "velocity": 98,
      "chip": "ym2612"
    },
    {
      "channel": 0,
      "note": 45,
      "start": 29.3294,
      "duration": 0.0768,
      "velocity": 122,
      "chip": "ym2612"
    },
    {
      "channel": 3,
      "note": 79,
      "start": 29.3324,
      "duration": 0.0572,
      "velocity": 110,
      "chip": "ym2612"
    },
    {
      "channel": 4,
      "note": 76,
      "start": 29.3354,
      "duration": 0.0545,
      "velocity": 81,
      "chip": "ym2612"
    },
    {
      "channel": 2,
      "note": 74,
      "start": 29.3385,
      "duration": 0.1013,
      "velocity": 117,
      "chip": "ym2612"
    },
    {
      "channel": 5,
      "note": 88,
      "start": 29.3414,
      "duration": 0.001,
      "velocity": 117,
      "chip": "ym2612"
    },
    {
      "channel": 5,
      "note": 78,
      "start": 29.3444,
      "duration": 0.0007,
      "velocity": 117,
      "chip": "ym2612"
    },
    {
      "channel": 5,
      "note": 83,
      "start": 29.3473,
      "duration": 0.0924,
      "velocity": 117,
      "chip": "ym2612"
    },
    {
      "channel": 3,
      "note": 72,
      "start": 29.6615,
      "duration": 0.1282,
      "velocity": 87,
      "chip": "ym2612"
    },
    {
      "channel": 4,
      "note": 84,
      "start": 29.6658,
      "duration": 0.1241,
      "velocity": 87,
      "chip": "ym2612"
    },
    {
      "channel": 0,
      "note": 45,
      "start": 29.7596,
      "duration": 0.0966,
      "velocity": 122,
      "chip": "ym2612"
    },
    {
      "channel": 5,
      "note": 67,
      "start": 29.7626,
      "duration": 0.0938,
      "velocity": 87,
      "chip": "ym2612"
    },
    {
      "channel": 2,
      "note": 79,
      "start": 29.7661,
      "duration": 0.0905,
      "velocity": 87,
      "chip": "ym2612"
    },
    {
      "channel": 3,
      "note": 69,
      "start": 29.8599,
      "duration": 0.1131,
      "velocity": 87,
      "chip": "ym2612"
    },
    {
      "channel": 4,
      "note": 81,
      "start": 29.8628,
      "duration": 0.1104,
      "velocity": 87,
      "chip": "ym2612"
    },
    {
      "channel": 3,
      "note": 64,
      "start": 29.9766,
      "duration": 0.0464,
      "velocity": 87,
      "chip": "ym2612"
    },
    {
      "channel": 4,
      "note": 76,
      "start": 29.9796,
      "duration": 0.0435,
      "velocity": 87,
      "chip": "ym2612"
    },
    {
      "channel": 1,
      "note": 49,
      "start": 30.0768,
      "duration": 0.1128,
      "velocity": 125,
      "chip": "ym2612"
    },
    {
      "channel": 3,
      "note": 67,
      "start": 30.0794,
      "duration": 0.1269,
      "velocity": 87,
      "chip": "ym2612"
    },
    {
      "channel": 4,
      "note": 79,
      "start": 30.0824,
      "duration": 0.124,
      "velocity": 87,
      "chip": "ym2612"
    },
    {
      "channel": 5,
      "note": 60,
      "start": 30.1933,
      "duration": 0.0631,
      "velocity": 87,
      "chip": "ym2612"
    },
    {
      "channel": 2,
      "note": 72,
      "start": 30.1964,
      "duration": 0.0601,
      "velocity": 87,
      "chip": "ym2612"
    },
    {
      "channel": 3,
      "note": 64,
      "start": 30.2931,
      "duration": 0.0966,
      "velocity": 87,
      "chip": "ym2612"
    },
    {
      "channel": 4,
      "note": 76,
      "start": 30.2961,
      "duration": 0.0937,
      "velocity": 87,
      "chip": "ym2612"
    },
    {
      "channel": 0,
      "note": 45,
      "start": 30.393,
      "duration": 0.0299,
      "velocity": 122,
      "chip": "ym2612"
    },
    {
      "channel": 1,
      "note": 45,
      "start": 30.396,
      "duration": 0.027,
      "velocity": 116,
      "chip": "ym2612"
    },
    {
      "channel": 3,
      "note": 57,
      "start": 30.399,
      "duration": 0.1073,
      "velocity": 87,
      "chip": "ym2612"
    },
    {
      "channel": 4,
      "note": 69,
      "start": 30.4018,
      "duration": 0.1046,
      "velocity": 87,
      "chip": "ym2612"
    },
    {
      "channel": 0,
      "note": 45,
      "start": 30.5094,
      "duration": 0.0136,
      "velocity": 122,
      "chip": "ym2612"
    },
    {
      "channel": 1,
      "note": 45,
      "start": 30.512,
      "duration": 0.0111,
      "velocity": 116,
      "chip": "ym2612"
    },
    {
      "channel": 3,
      "note": 62,
      "start": 30.5147,
      "duration": 0.0749,
      "velocity": 87,
      "chip": "ym2612"
    },
    {
      "channel": 4,
      "note": 74,
      "start": 30.5177,
      "duration": 0.072,
      "velocity": 87,
      "chip": "ym2612"
    },
    {
      "channel": 0,
      "note": 45,
      "start": 30.6094,
      "duration": 0.0469,
      "velocity": 122,
      "chip": "ym2612"
    },
    {
      "channel": 1,
      "note": 45,
      "start": 30.6123,
      "duration": 0.0441,
      "velocity": 116,
      "chip": "ym2612"
    },
    {
      "channel": 3,
      "note": 55,
      "start": 30.6151,
      "duration": 0.0747,
      "velocity": 87,
      "chip": "ym2612"
    },
    {
      "channel": 4,
      "note": 67,
      "start": 30.618,
      "duration": 0.0718,
      "velocity": 87,
      "chip": "ym2612"
    },
    {
      "channel": 5,
      "note": 60,
      "start": 30.7273,
      "duration": 0.2793,
      "velocity": 98,
      "chip": "ym2612"
    },
    {
      "channel": 0,
      "note": 45,
      "start": 30.7301,
      "duration": 0.1929,
      "velocity": 122,
      "chip": "ym2612"
    },
    {
      "channel": 2,
      "note": 84,
      "start": 30.7347,
      "duration": 0.3077,
      "velocity": 117,
      "chip": "ym2612"
    },
    {
      "channel": 1,
      "note": 70,
      "start": 30.7382,
      "duration": 0.5848,
      "velocity": 117,
      "chip": "ym2612"
    },
    {
      "channel": 3,
      "note": 76,
      "start": 30.7423,
      "duration": 0.5808,
      "velocity": 117,
      "chip": "ym2612"
    },
    {
      "channel": 2,
      "note": 81,
      "start": 31.0443,
      "duration": 0.3123,
      "velocity": 104,
      "chip": "ym2612"
    },
    {
      "channel": 5,
      "note": 60,
      "start": 31.3601,
      "duration": 0.1797,
      "velocity": 98,
      "chip": "ym2612"
    },
    {
      "channel": 4,
      "note": 49,
      "start": 31.3637,
      "duration": 0.228,
      "velocity": 125,
      "chip": "ym2612"
    },
    {
      "channel": 5,
      "note": 58,
      "start": 31.5769,
      "duration": 0.0465,
      "velocity": 98,
      "chip": "ym2612"
    },
    {
      "channel": 1,
      "note": 84,
      "start": 31.5814,
      "duration": 0.0417,
      "velocity": 117,
      "chip": "ym2612"
    },
    {
      "channel": 3,
      "note": 76,
      "start": 31.5848,
      "duration": 0.0385,
      "velocity": 117,
      "chip": "ym2612"
    },
    {
      "channel": 0,
      "note": 70,
      "start": 31.5884,
      "duration": 0.0346,
      "velocity": 117,
      "chip": "ym2612"
    },
    {
      "channel": 5,
      "note": 55,
      "start": 31.6766,
      "duration": 0.2133,
      "velocity": 98,
      "chip": "ym2612"
    },
    {
      "channel": 2,
      "note": 81,
      "start": 31.6795,
      "duration": 0.3104,
      "velocity": 104,
      "chip": "ym2612"
    },
    {
      "channel": 0,
      "note": 69,
      "start": 31.8446,
      "duration": 0.6617,
      "velocity": 117,
      "chip": "ym2612"
    },
    {
      "channel": 1,
      "note": 84,
      "start": 31.8479,
      "duration": 0.6586,
      "velocity": 117,
      "chip": "ym2612"
    },
    {
      "channel": 3,
      "note": 75,
      "start": 31.8515,
      "duration": 0.6551,
      "velocity": 117,
      "chip": "ym2612"
    },
    {
      "channel": 4,
      "note": 49,
      "start": 31.8604,
      "duration": 0.0628,
      "velocity": 116,
      "chip": "ym2612"
    },
    {
      "channel": 5,
      "note": 53,
      "start": 31.9932,
      "duration": 0.2466,
      "velocity": 98,
      "chip": "ym2612"
    },
    {
      "channel": 4,
      "note": 45,
      "start": 31.9966,
      "duration": 0.1099,
      "velocity": 122,
      "chip": "ym2612"
    },
    {
      "channel": 2,
      "note": 49,
      "start": 32.1934,
      "duration": 0.0466,
      "velocity": 116,
      "chip": "ym2612"
    },
    {
      "channel": 5,
      "note": 55,
      "start": 32.3264,
      "duration": 0.0635,
      "velocity": 98,
      "chip": "ym2612"
    },
    {
      "channel": 4,
      "note": 45,
      "start": 32.3291,
      "duration": 0.0941,
      "velocity": 122,
      "chip": "ym2612"
    },
    {
      "channel": 2,
      "note": 81,
      "start": 32.332,
      "duration": 0.3079,
      "velocity": 104,
      "chip": "ym2612"
    },
    {
      "channel": 5,
      "note": 55,
      "start": 32.6432,
      "duration": 0.2634,
      "velocity": 98,
      "chip": "ym2612"
    },
    {
      "channel": 4,
      "note": 49,
      "start": 32.6465,
      "duration": 0.1768,
      "velocity": 116,
      "chip": "ym2612"
    },
    {
      "channel": 0,
      "note": 49,
      "start": 32.6494,
      "duration": 0.1402,
      "velocity": 125,
      "chip": "ym2612"
    },
    {
      "channel": 1,
      "note": 84,
      "start": 32.6523,
      "duration": 0.0708,
      "velocity": 87,
      "chip": "ym2612"
    },
    {
      "channel": 3,
      "note": 89,
      "start": 32.6555,
      "duration": 0.0677,
      "velocity": 87,
      "chip": "ym2612"
    },
    {
      "channel": 1,
      "note": 87,
      "start": 32.7433,
      "duration": 0.0798,
      "velocity": 87,
      "chip": "ym2612"
    },
    {
      "channel": 3,
      "note": 81,
      "start": 32.7459,
      "duration": 0.0773,
      "velocity": 87,
      "chip": "ym2612"
    },
    {
      "channel": 1,
      "note": 84,
      "start": 32.86,
      "duration": 0.063,
      "velocity": 87,
      "chip": "ym2612"
    },
    {
      "channel": 3,
      "note": 79,
      "start": 32.8625,
      "duration": 0.0606,
      "velocity": 87,
      "chip": "ym2612"
    },
    {
      "channel": 5,
      "note": 58,
      "start": 32.9598,
      "duration": 0.0468,
      "velocity": 98,
      "chip": "ym2612"
    },
    {
      "channel": 1,
      "note": 82,
      "start": 32.9628,
      "duration": 0.077,
      "velocity": 87,
      "chip": "ym2612"
    },
    {
      "channel": 3,
      "note": 75,
      "start": 32.9653,
      "duration": 0.0746,
      "velocity": 87,
      "chip": "ym2612"
    },
    {
      "channel": 2,
      "note": 81,
      "start": 32.968,
      "duration": 0.2887,
      "velocity": 104,
      "chip": "ym2612"
    },
    {
      "channel": 1,
      "note": 84,
      "start": 33.0599,
      "duration": 0.0798,
      "velocity": 87,
      "chip": "ym2612"
    },
    {
      "channel": 3,
      "note": 77,
      "start": 33.0628,
      "duration": 0.077,
      "velocity": 87,
      "chip": "ym2612"
    },
    {
      "channel": 1,
      "note": 79,
      "start": 33.1766,
      "duration": 0.0798,
      "velocity": 87,
      "chip": "ym2612"
    },
    {
      "channel": 3,
      "note": 87,
      "start": 33.1791,
      "duration": 0.0773,
      "velocity": 87,
      "chip": "ym2612"
    },
    {
      "channel": 5,
      "note": 60,
      "start": 33.2764,
      "duration": 0.2634,
      "velocity": 98,
      "chip": "ym2612"
    },
    {
      "channel": 0,
      "note": 45,
      "start": 33.2792,
      "duration": 0.1605,
      "velocity": 122,
      "chip": "ym2612"
    },
    {
      "channel": 5,
      "note": 58,
      "start": 33.593,
      "duration": 0.0636,
      "velocity": 98,
      "chip": "ym2612"
    },
    {
      "channel": 2,
      "note": 81,
      "start": 33.5961,
      "duration": 0.3271,
      "velocity": 104,
      "chip": "ym2612"
    },
    {
      "channel": 4,
      "note": 76,
      "start": 33.6005,
      "duration": 0.1562,
      "velocity": 117,
      "chip": "ym2612"
    },
    {
      "channel": 1,
      "note": 84,
      "start": 33.604,
      "duration": 0.1524,
      "velocity": 117,
      "chip": "ym2612"
    },
    {
      "channel": 3,
      "note": 70,
      "start": 33.6077,
      "duration": 0.1489,
      "velocity": 117,
      "chip": "ym2612"
    },
    {
      "channel": 5,
      "note": 60,
      "start": 33.927,
      "duration": 0.1462,
      "velocity": 98,
      "chip": "ym2612"
    },
    {
      "channel": 0,
      "note": 49,
      "start": 33.9302,
      "duration": 0.1927,
      "velocity": 125,
      "chip": "ym2612"
    },
    {
      "channel": 5,
      "note": 63,
      "start": 34.1267,
      "duration": 0.0798,
      "velocity": 98,
      "chip": "ym2612"
    },
    {
      "channel": 1,
      "note": 70,
      "start": 34.1311,
      "duration": 0.1085,
      "velocity": 117,
      "chip": "ym2612"
    },
    {
      "channel": 3,
      "note": 84,
      "start": 34.1345,
      "duration": 0.1053,
      "velocity": 117,
      "chip": "ym2612"
    },
    {
      "channel": 4,
      "note": 76,
      "start": 34.138,
      "duration": 0.1019,
      "velocity": 117,
      "chip": "ym2612"
    },
    {
      "channel": 5,
      "note": 58,
      "start": 34.2435,
      "duration": 0.1798,
      "velocity": 98,
      "chip": "ym2612"
    },
    {
      "channel": 2,
      "note": 45,
      "start": 34.2465,
      "duration": 0.0015,
      "velocity": 122,
      "chip": "ym2612"
    },
    {
      "channel": 2,
      "note": 81,
      "start": 34.25,
      "duration": 0.2566,
      "velocity": 104,
      "chip": "ym2612"
    },
    {
      "channel": 5,
      "note": 55,
      "start": 34.46,
      "duration": 0.0632,
      "velocity": 98,
      "chip": "ym2612"
    },
    {
      "channel": 0,
      "note": 49,
      "start": 34.4632,
      "duration": 0.0147,
      "velocity": 116,
      "chip": "ym2612"
    },
    {
      "channel": 1,
      "note": 84,
      "start": 34.4675,
      "duration": 1.0601,
      "velocity": 117,
      "chip": "ym2612"
    },
    {
      "channel": 3,
      "note": 69,
      "start": 34.4708,
      "duration": 1.1192,
      "velocity": 117,
      "chip": "ym2612"
    },
    {
      "channel": 4,
      "note": 75,
      "start": 34.4747,
      "duration": 1.1153,
      "velocity": 117,
      "chip": "ym2612"
    },
    {
      "channel": 5,
      "note": 53,
      "start": 34.56,
      "duration": 0.2132,
      "velocity": 98,
      "chip": "ym2612"
    },
    {
      "channel": 0,
      "note": 45,
      "start": 34.5629,
      "duration": 0.1267,
      "velocity": 122,
      "chip": "ym2612"
    },
    {
      "channel": 2,
      "note": 49,
      "start": 34.7435,
      "duration": 0.0298,
      "velocity": 116,
      "chip": "ym2612"
    },
    {
      "channel": 5,
      "note": 53,
      "start": 34.8768,
      "duration": 0.2464,
      "velocity": 98,
      "chip": "ym2612"
    },
    {
      "channel": 0,
      "note": 49,
      "start": 34.8801,
      "duration": 0.1595,
      "velocity": 125,
      "chip": "ym2612"
    },
    {
      "channel": 2,
      "note": 81,
      "start": 34.8829,
      "duration": 0.0403,
      "velocity": 104,
      "chip": "ym2612"
    },
    {
      "channel": 2,
      "note": 84,
      "start": 35.0937,
      "duration": 0.0963,
      "velocity": 112,
      "chip": "ym2612"
    },
    {
      "channel": 0,
      "note": 87,
      "start": 35.0965,
      "duration": 0.0931,
      "velocity": 112,
      "chip": "ym2612"
    },
    {
      "channel": 5,
      "note": 54,
      "start": 35.1933,
      "duration": 0.2133,
      "velocity": 98,
      "chip": "ym2612"
    },
    {
      "channel": 0,
      "note": 89,
      "start": 35.1971,
      "duration": 0.1593,
      "velocity": 112,
      "chip": "ym2612"
    },
    {
      "channel": 2,
      "note": 81,
      "start": 35.1999,
      "duration": 0.1568,
      "velocity": 112,
      "chip": "ym2612"
    },
    {
      "channel": 0,
      "note": 49,
      "start": 35.3936,
      "duration": 0.1307,
      "velocity": 125,
      "chip": "ym2612"
    },
    {
      "channel": 2,
      "note": 87,
      "start": 35.4105,
      "duration": 0.3796,
      "velocity": 112,
      "chip": "ym2612"
    },
    {
      "channel": 5,
      "note": 79,
      "start": 35.4133,
      "duration": 0.3767,
      "velocity": 112,
      "chip": "ym2612"
    },
    {
      "channel": 0,
      "note": 55,
      "start": 35.5265,
      "duration": 0.1967,
      "velocity": 98,
      "chip": "ym2612"
    },
    {
      "channel": 1,
      "note": 45,
      "start": 35.5295,
      "duration": 0.0104,
      "velocity": 122,
      "chip": "ym2612"
    },
    {
      "channel": 0,
      "note": 60,
      "start": 35.8431,
      "duration": 0.28,
      "velocity": 98,
      "chip": "ym2612"
    },
    {
      "channel": 1,
      "note": 45,
      "start": 35.846,
      "duration": 0.0939,
      "velocity": 122,
      "chip": "ym2612"
    },
    {
      "channel": 3,
      "note": 70,
      "start": 35.8505,
      "duration": 0.5726,
      "velocity": 117,
      "chip": "ym2612"
    },
    {
      "channel": 4,
      "note": 76,
      "start": 35.854,
      "duration": 0.6025,
      "velocity": 117,
      "chip": "ym2612"
    },
    {
      "channel": 5,
      "note": 84,
      "start": 35.8579,
      "duration": 0.5654,
      "velocity": 117,
      "chip": "ym2612"
    },
    {
      "channel": 0,
      "note": 58,
      "start": 36.1597,
      "duration": 0.0801,
      "velocity": 98,
      "chip": "ym2612"
    },
    {
      "channel": 1,
      "note": 45,
      "start": 36.1625,
      "duration": 0.0272,
      "velocity": 122,
      "chip": "ym2612"
    },
    {
      "channel": 2,
      "note": 81,
      "start": 36.1656,
      "duration": 0.2912,
      "velocity": 104,
      "chip": "ym2612"
    },
    {
      "channel": 0,
      "note": 55,
      "start": 36.4764,
      "duration": 0.1799,
      "velocity": 98,
      "chip": "ym2612"
    },
    {
      "channel": 1,
      "note": 49,
      "start": 36.4801,
      "duration": 0.1596,
      "velocity": 125,
      "chip": "ym2612"
    },
    {
      "channel": 0,
      "note": 58,
      "start": 36.693,
      "duration": 0.08,
      "velocity": 98,
      "chip": "ym2612"
    },
    {
      "channel": 3,
      "note": 84,
      "start": 36.6976,
      "duration": 0.0922,
      "velocity": 117,
      "chip": "ym2612"
    },
    {
      "channel": 4,
      "note": 76,
      "start": 36.7009,
      "duration": 0.089,
      "velocity": 117,
      "chip": "ym2612"
    },
    {
      "channel": 5,
      "note": 70,
      "start": 36.7045,
      "duration": 0.0856,
      "velocity": 117,
      "chip": "ym2612"
    },
    {
      "channel": 0,
      "note": 60,
      "start": 36.7937,
      "duration": 0.196,
      "velocity": 98,
      "chip": "ym2612"
    },
    {
      "channel": 2,
      "note": 81,
      "start": 36.7967,
      "duration": 0.2933,
      "velocity": 104,
      "chip": "ym2612"
    },
    {
      "channel": 0,
      "note": 55,
      "start": 37.0097,
      "duration": 0.0799,
      "velocity": 98,
      "chip": "ym2612"
    },
    {
      "channel": 1,
      "note": 49,
      "start": 37.0128,
      "duration": 0.027,
      "velocity": 116,
      "chip": "ym2612"
    },
    {
      "channel": 3,
      "note": 69,
      "start": 37.0175,
      "duration": 0.6391,
      "velocity": 117,
      "chip": "ym2612"
    },
    {
      "channel": 4,
      "note": 75,
      "start": 37.021,
      "duration": 0.6022,
      "velocity": 117,
      "chip": "ym2612"
    },
    {
      "channel": 5,
      "note": 84,
      "start": 37.0253,
      "duration": 0.6314,
      "velocity": 117,
      "chip": "ym2612"
    },
    {
      "channel": 0,
      "note": 53,
      "start": 37.1264,
      "duration": 0.2299,
      "velocity": 98,
      "chip": "ym2612"
    },
    {
      "channel": 1,
      "note": 49,
      "start": 37.3269,
      "duration": 0.0295,
      "velocity": 116,
      "chip": "ym2612"
    },
    {
      "channel": 0,
      "note": 53,
      "start": 37.4429,
      "duration": 0.1302,
      "velocity": 98,
      "chip": "ym2612"
    },
    {
      "channel": 2,
      "note": 45,
      "start": 37.4459,
      "duration": 0.001,
      "velocity": 122,
      "chip": "ym2612"
    },
    {
      "channel": 2,
      "note": 81,
      "start": 37.4488,
      "duration": 0.2744,
      "velocity": 104,
      "chip": "ym2612"
    },
    {
      "channel": 0,
      "note": 53,
      "start": 37.7596,
      "duration": 0.18,
      "velocity": 98,
      "chip": "ym2612"
    },
    {
      "channel": 1,
      "note": 49,
      "start": 37.7628,
      "duration": 0.1603,
      "velocity": 125,
      "chip": "ym2612"
    },
    {
      "channel": 4,
      "note": 89,
      "start": 37.7675,
      "duration": 0.0724,
      "velocity": 87,
      "chip": "ym2612"
    },
    {
      "channel": 3,
      "note": 84,
      "start": 37.7702,
      "duration": 0.0695,
      "velocity": 87,
      "chip": "ym2612"
    },
    {
      "channel": 3,
      "note": 87,
      "start": 37.86,
      "duration": 0.0799,
      "velocity": 87,
      "chip": "ym2612"
    },
    {
      "channel": 4,
      "note": 81,
      "start": 37.8626,
      "duration": 0.0774,
      "velocity": 87,
      "chip": "ym2612"
    },
    {
      "channel": 0,
      "note": 54,
      "start": 37.9764,
      "duration": 0.0799,
      "velocity": 98,
      "chip": "ym2612"
    },
    {
      "channel": 3,
      "note": 84,
      "start": 37.9794,
      "duration": 0.077,
      "velocity": 87,
      "chip": "ym2612"
    },
    {
      "channel": 4,
      "note": 79,
      "start": 37.982,
      "duration": 0.0746,
      "velocity": 87,
      "chip": "ym2612"
    },
    {
      "channel": 0,
      "note": 55,
      "start": 38.0768,
      "duration": 0.1628,
      "velocity": 98,
      "chip": "ym2612"
    },
    {
      "channel": 5,
      "note": 45,
      "start": 38.0798,
      "duration": 0.0266,
      "velocity": 122,
      "chip": "ym2612"
    },
    {
      "channel": 3,
      "note": 82,
      "start": 38.0827,
      "duration": 0.0737,
      "velocity": 87,
      "chip": "ym2612"
    },
    {
      "channel": 4,
      "note": 75,
      "start": 38.0857,
      "duration": 0.0709,
      "velocity": 87,
      "chip": "ym2612"
    },
    {
      "channel": 2,
      "note": 81,
      "start": 38.0889,
      "duration": 0.0344,
      "velocity": 104,
      "chip": "ym2612"
    },
    {
      "channel": 3,
      "note": 84,
      "start": 38.1933,
      "duration": 0.0631,
      "velocity": 87,
      "chip": "ym2612"
    },
    {
      "channel": 4,
      "note": 77,
      "start": 38.1959,
      "duration": 0.0606,
      "velocity": 87,
      "chip": "ym2612"
    },
    {
      "channel": 0,
      "note": 60,
      "start": 38.293,
      "duration": 0.2633,
      "velocity": 98,
      "chip": "ym2612"
    },
    {
      "channel": 3,
      "note": 87,
      "start": 38.2961,
      "duration": 0.077,
      "velocity": 87,
      "chip": "ym2612"
    },
    {
      "channel": 4,
      "note": 79,
      "start": 38.2989,
      "duration": 0.0743,
      "velocity": 87,
      "chip": "ym2612"
    },
    {
      "channel": 1,
      "note": 60,
      "start": 38.3017,
      "duration": 0.0085,
      "velocity": 83,
      "chip": "ym2612"
    },
    {
      "channel": 5,
      "note": 76,
      "start": 38.306,
      "duration": 0.1506,
      "velocity": 117,
      "chip": "ym2612"
    },
    {
      "channel": 2,
      "note": 84,
      "start": 38.3095,
      "duration": 0.1472,
      "velocity": 117,
      "chip": "ym2612"
    },
    {
      "channel": 1,
      "note": 70,
      "start": 38.3129,
      "duration": 0.0008,
      "velocity": 117,
      "chip": "ym2612"
    },
    {
      "channel": 1,
      "note": 79,
      "start": 38.3166,
      "duration": 0.1398,
      "velocity": 117,
      "chip": "ym2612"
    },
    {
      "channel": 3,
      "note": 45,
      "start": 38.393,
      "duration": 0.13,
      "velocity": 122,
      "chip": "ym2612"
    },
    {
      "channel": 0,
      "note": 55,
      "start": 38.6096,
      "duration": 0.0468,
      "velocity": 98,
      "chip": "ym2612"
    },
    {
      "channel": 0,
      "note": 58,
      "start": 38.7263,
      "duration": 0.1468,
      "velocity": 98,
      "chip": "ym2612"
    },
    {
      "channel": 3,
      "note": 45,
      "start": 38.729,
      "duration": 0.1275,
      "velocity": 122,
      "chip": "ym2612"
    },
    {
      "channel": 4,
      "note": 49,
      "start": 38.9102,
      "duration": 0.0293,
      "velocity": 125,
      "chip": "ym2612"
    },
    {
      "channel": 1,
      "note": 53,
      "start": 38.913,
      "duration": 0.0934,
      "velocity": 83,
      "chip": "ym2612"
    },
    {
      "channel": 0,
      "note": 53,
      "start": 38.9264,
      "duration": 0.2466,
      "velocity": 98,
      "chip": "ym2612"
    },
    {
      "channel": 5,
      "note": 74,
      "start": 38.9314,
      "duration": 0.1251,
      "velocity": 117,
      "chip": "ym2612"
    },
    {
      "channel": 2,
      "note": 81,
      "start": 38.9349,
      "duration": 0.1217,
      "velocity": 117,
      "chip": "ym2612"
    },
    {
      "channel": 3,
      "note": 77,
      "start": 38.9385,
      "duration": 0.1513,
      "velocity": 117,
      "chip": "ym2612"
    },
    {
      "channel": 4,
      "note": 70,
      "start": 38.9423,
      "duration": 0.1476,
      "velocity": 117,
      "chip": "ym2612"
    },
    {
      "channel": 0,
      "note": 53,
      "start": 39.2601,
      "duration": 0.0629,
      "velocity": 98,
      "chip": "ym2612"
    },
    {
      "channel": 0,
      "note": 54,
      "start": 39.3596,
      "duration": 0.0802,
      "velocity": 98,
      "chip": "ym2612"
    },
    {
      "channel": 1,
      "note": 45,
      "start": 39.3629,
      "duration": 0.0268,
      "velocity": 122,
      "chip": "ym2612"
    },
    {
      "channel": 5,
      "note": 49,
      "start": 39.5269,
      "duration": 0.0581,
      "velocity": 125,
      "chip": "ym2612"
    },
    {
      "channel": 2,
      "note": 55,
      "start": 39.5299,
      "duration": 0.059,
      "velocity": 83,
      "chip": "ym2612"
    },
    {
      "channel": 1,
      "note": 45,
      "start": 39.5431,
      "duration": 0.1133,
      "velocity": 122,
      "chip": "ym2612"
    },
    {
      "channel": 0,
      "note": 55,
      "start": 39.5765,
      "duration": 0.2298,
      "velocity": 98,
      "chip": "ym2612"
    },
    {
      "channel": 3,
      "note": 82,
      "start": 39.581,
      "duration": 0.0921,
      "velocity": 117,
      "chip": "ym2612"
    },
    {
      "channel": 4,
      "note": 77,
      "start": 39.5843,
      "duration": 0.0889,
      "velocity": 117,
      "chip": "ym2612"
    },
    {
      "channel": 5,
      "note": 75,
      "start": 39.5878,
      "duration": 0.0856,
      "velocity": 117,
      "chip": "ym2612"
    },
    {
      "channel": 2,
      "note": 71,
      "start": 39.5918,
      "duration": 0.0818,
      "velocity": 117,
      "chip": "ym2612"
    },
    {
      "channel": 1,
      "note": 46,
      "start": 40.3263,
      "duration": 0.0634,
      "velocity": 122,
      "chip": "ym2612"
    },
    {
      "channel": 3,
      "note": 49,
      "start": 40.4267,
      "duration": 0.0298,
      "velocity": 116,
      "chip": "ym2612"
    },
    {
      "channel": 3,
      "note": 49,
      "start": 40.5267,
      "duration": 0.063,
      "velocity": 116,
      "chip": "ym2612"
    },
    {
      "channel": 1,
      "note": 46,
      "start": 40.6428,
      "duration": 0.0802,
      "velocity": 122,
      "chip": "ym2612"
    },
    {
      "channel": 4,
      "note": 49,
      "start": 40.7434,
      "duration": 0.0297,
      "velocity": 125,
      "chip": "ym2612"
    },
    {
      "channel": 4,
      "note": 49,
      "start": 40.8598,
      "duration": 0.0466,
      "velocity": 125,
      "chip": "ym2612"
    },
    {
      "channel": 0,
      "note": 57,
      "start": 40.9603,
      "duration": 0.3127,
      "velocity": 98,
      "chip": "ym2612"
    },
    {
      "channel": 1,
      "note": 45,
      "start": 40.963,
      "duration": 0.2101,
      "velocity": 122,
      "chip": "ym2612"
    },
    {
      "channel": 5,
      "note": 71,
      "start": 40.9698,
      "duration": 0.0868,
      "velocity": 103,
      "chip": "ym2612"
    },
    {
      "channel": 2,
      "note": 67,
      "start": 40.9731,
      "duration": 0.0836,
      "velocity": 103,
      "chip": "ym2612"
    },
    {
      "channel": 3,
      "note": 57,
      "start": 41.0604,
      "duration": 0.0627,
      "velocity": 83,
      "chip": "ym2612"
    },
    {
      "channel": 3,
      "note": 45,
      "start": 41.1767,
      "duration": 0.0464,
      "velocity": 83,
      "chip": "ym2612"
    },
    {
      "channel": 0,
      "note": 55,
      "start": 41.2762,
      "duration": 0.2133,
      "velocity": 98,
      "chip": "ym2612"
    },
    {
      "channel": 3,
      "note": 45,
      "start": 41.2799,
      "duration": 0.1097,
      "velocity": 83,
      "chip": "ym2612"
    },
    {
      "channel": 5,
      "note": 72,
      "start": 41.4937,
      "duration": 0.0461,
      "velocity": 103,
      "chip": "ym2612"
    },
    {
      "channel": 2,
      "note": 69,
      "start": 41.4966,
      "duration": 0.0433,
      "velocity": 103,
      "chip": "ym2612"
    },
    {
      "channel": 0,
      "note": 57,
      "start": 41.5931,
      "duration": 0.2465,
      "velocity": 98,
      "chip": "ym2612"
    },
    {
      "channel": 4,
      "note": 49,
      "start": 41.5962,
      "duration": 0.2437,
      "velocity": 125,
      "chip": "ym2612"
    },
    {
      "channel": 3,
      "note": 45,
      "start": 41.81,
      "duration": 0.0796,
      "velocity": 83,
      "chip": "ym2612"
    },
    {
      "channel": 0,
      "note": 50,
      "start": 41.9263,
      "duration": 0.1799,
      "velocity": 98,
      "chip": "ym2612"
    },
    {
      "channel": 3,
      "note": 57,
      "start": 41.9294,
      "duration": 0.0602,
      "velocity": 83,
      "chip": "ym2612"
    },
    {
      "channel": 1,
      "note": 49,
      "start": 42.11,
      "duration": 0.0463,
      "velocity": 116,
      "chip": "ym2612"
    },
    {
      "channel": 0,
      "note": 51,
      "start": 42.1262,
      "duration": 0.1134,
      "velocity": 98,
      "chip": "ym2612"
    },
    {
      "channel": 5,
      "note": 71,
      "start": 42.1296,
      "duration": 0.0602,
      "velocity": 103,
      "chip": "ym2612"
    },
    {
      "channel": 2,
      "note": 67,
      "start": 42.1324,
      "duration": 0.0575,
      "velocity": 103,
      "chip": "ym2612"
    },
    {
      "channel": 0,
      "note": 50,
      "start": 42.243,
      "duration": 0.2799,
      "velocity": 98,
      "chip": "ym2612"
    },
    {
      "channel": 4,
      "note": 45,
      "start": 42.246,
      "duration": 0.0938,
      "velocity": 122,
      "chip": "ym2612"
    },
    {
      "channel": 1,
      "note": 49,
      "start": 42.4262,
      "duration": 0.0467,
      "velocity": 116,
      "chip": "ym2612"
    },
    {
      "channel": 0,
      "note": 51,
      "start": 42.5593,
      "duration": 0.297,
      "velocity": 98,
      "chip": "ym2612"
    },
    {
      "channel": 4,
      "note": 45,
      "start": 42.5621,
      "duration": 0.0943,
      "velocity": 122,
      "chip": "ym2612"
    },
    {
      "channel": 3,
      "note": 57,
      "start": 42.6602,
      "duration": 0.0628,
      "velocity": 83,
      "chip": "ym2612"
    },
    {
      "channel": 3,
      "note": 45,
      "start": 42.7766,
      "duration": 0.0464,
      "velocity": 83,
      "chip": "ym2612"
    },
    {
      "channel": 0,
      "note": 52,
      "start": 42.8761,
      "duration": 0.3134,
      "velocity": 98,
      "chip": "ym2612"
    },
    {
      "channel": 1,
      "note": 49,
      "start": 42.8792,
      "duration": 0.1771,
      "velocity": 116,
      "chip": "ym2612"
    },
    {
      "channel": 5,
      "note": 49,
      "start": 42.8822,
      "duration": 0.1576,
      "velocity": 125,
      "chip": "ym2612"
    },
    {
      "channel": 2,
      "note": 81,
      "start": 42.8874,
      "duration": 0.0692,
      "velocity": 99,
      "chip": "ym2612"
    },
    {
      "channel": 4,
      "note": 84,
      "start": 42.8906,
      "duration": 0.0658,
      "velocity": 87,
      "chip": "ym2612"
    },
    {
      "channel": 2,
      "note": 79,
      "start": 42.9936,
      "duration": 0.0632,
      "velocity": 99,
      "chip": "ym2612"
    },
    {
      "channel": 4,
      "note": 83,
      "start": 42.9961,
      "duration": 0.0604,
      "velocity": 87,
      "chip": "ym2612"
    },
    {
      "channel": 2,
      "note": 76,
      "start": 43.0935,
      "duration": 0.0797,
      "velocity": 99,
      "chip": "ym2612"
    },
    {
      "channel": 4,
      "note": 79,
      "start": 43.0961,
      "duration": 0.0769,
      "velocity": 87,
      "chip": "ym2612"
    },
    {
      "channel": 0,
      "note": 51,
      "start": 43.193,
      "duration": 0.1966,
      "velocity": 98,
      "chip": "ym2612"
    },
    {
      "channel": 2,
      "note": 74,
      "start": 43.1963,
      "duration": 0.0769,
      "velocity": 99,
      "chip": "ym2612"
    },
    {
      "channel": 4,
      "note": 78,
      "start": 43.1988,
      "duration": 0.0742,
      "velocity": 87,
      "chip": "ym2612"
    },
    {
      "channel": 2,
      "note": 76,
      "start": 43.3103,
      "duration": 0.0462,
      "velocity": 99,
      "chip": "ym2612"
    },
    {
      "channel": 4,
      "note": 79,
      "start": 43.3129,
      "duration": 0.0769,
      "velocity": 87,
      "chip": "ym2612"
    },
    {
      "channel": 0,
      "note": 50,
      "start": 43.4099,
      "duration": 0.0797,
      "velocity": 98,
      "chip": "ym2612"
    },
    {
      "channel": 2,
      "note": 79,
      "start": 43.4135,
      "duration": 0.0765,
      "velocity": 99,
      "chip": "ym2612"
    },
    {
      "channel": 4,
      "note": 81,
      "start": 43.4164,
      "duration": 0.0734,
      "velocity": 87,
      "chip": "ym2612"
    },
    {
      "channel": 0,
      "note": 57,
      "start": 43.5263,
      "duration": 0.2633,
      "velocity": 98,
      "chip": "ym2612"
    },
    {
      "channel": 3,
      "note": 45,
      "start": 43.5295,
      "duration": 0.1434,
      "velocity": 122,
      "chip": "ym2612"
    },
    {
      "channel": 2,
      "note": 71,
      "start": 43.5339,
      "duration": 0.0893,
      "velocity": 103,
      "chip": "ym2612"
    },
    {
      "channel": 5,
      "note": 67,
      "start": 43.5367,
      "duration": 0.0864,
      "velocity": 103,
      "chip": "ym2612"
    },
    {
      "channel": 1,
      "note": 52,
      "start": 43.7268,
      "duration": 0.063,
      "velocity": 83,
      "chip": "ym2612"
    },
    {
      "channel": 0,
      "note": 55,
      "start": 43.8426,
      "duration": 0.2636,
      "velocity": 98,
      "chip": "ym2612"
    },
    {
      "channel": 1,
      "note": 45,
      "start": 43.8455,
      "duration": 0.0441,
      "velocity": 83,
      "chip": "ym2612"
    },
    {
      "channel": 1,
      "note": 45,
      "start": 43.9437,
      "duration": 0.0793,
      "velocity": 83,
      "chip": "ym2612"
    },
    {
      "channel": 5,
      "note": 69,
      "start": 44.0603,
      "duration": 0.0461,
      "velocity": 103,
      "chip": "ym2612"
    },
    {
      "channel": 2,
      "note": 72,
      "start": 44.0632,
      "duration": 0.0434,
      "velocity": 103,
      "chip": "ym2612"
    },
    {
      "channel": 0,
      "note": 57,
      "start": 44.1594,
      "duration": 0.2969,
      "velocity": 98,
      "chip": "ym2612"
    },
    {
      "channel": 4,
      "note": 49,
      "start": 44.1627,
      "duration": 0.2104,
      "velocity": 125,
      "chip": "ym2612"
    },
    {
      "channel": 1,
      "note": 45,
      "start": 44.3768,
      "duration": 0.0462,
      "velocity": 83,
      "chip": "ym2612"
    },
    {
      "channel": 0,
      "note": 55,
      "start": 44.4762,
      "duration": 0.1133,
      "velocity": 98,
      "chip": "ym2612"
    },
    {
      "channel": 3,
      "note": 45,
      "start": 44.4791,
      "duration": 0.0272,
      "velocity": 122,
      "chip": "ym2612"
    },
    {
      "channel": 1,
      "note": 45,
      "start": 44.4822,
      "duration": 0.1575,
      "velocity": 83,
      "chip": "ym2612"
    },
    {
      "channel": 5,
      "note": 49,
      "start": 44.6604,
      "duration": 0.0294,
      "velocity": 116,
      "chip": "ym2612"
    },
    {
      "channel": 0,
      "note": 60,
      "start": 44.693,
      "duration": 0.0466,
      "velocity": 98,
      "chip": "ym2612"
    },
    {
      "channel": 2,
      "note": 71,
      "start": 44.6965,
      "duration": 0.0434,
      "velocity": 103,
      "chip": "ym2612"
    },
    {
      "channel": 4,
      "note": 67,
      "start": 44.6994,
      "duration": 0.0404,
      "velocity": 103,
      "chip": "ym2612"
    },
    {
      "channel": 0,
      "note": 62,
      "start": 44.7934,
      "duration": 0.2129,
      "velocity": 98,
      "chip": "ym2612"
    },
    {
      "channel": 3,
      "note": 45,
      "start": 44.7962,
      "duration": 0.1269,
      "velocity": 122,
      "chip": "ym2612"
    },
    {
      "channel": 5,
      "note": 49,
      "start": 44.9932,
      "duration": 0.0133,
      "velocity": 116,
      "chip": "ym2612"
    },
    {
      "channel": 1,
      "note": 45,
      "start": 45.0102,
      "duration": 0.0461,
      "velocity": 83,
      "chip": "ym2612"
    },
    {
      "channel": 0,
      "note": 54,
      "start": 45.1261,
      "duration": 0.1968,
      "velocity": 98,
      "chip": "ym2612"
    },
    {
      "channel": 4,
      "note": 49,
      "start": 45.1294,
      "duration": 0.1438,
      "velocity": 125,
      "chip": "ym2612"
    },
    {
      "channel": 1,
      "note": 50,
      "start": 45.1323,
      "duration": 0.1407,
      "velocity": 83,
      "chip": "ym2612"
    },
    {
      "channel": 0,
      "note": 55,
      "start": 45.3262,
      "duration": 0.2134,
      "velocity": 98,
      "chip": "ym2612"
    },
    {
      "channel": 2,
      "note": 88,
      "start": 45.3317,
      "duration": 0.0748,
      "velocity": 98,
      "chip": "ym2612"
    },
    {
      "channel": 3,
      "note": 79,
      "start": 45.3346,
      "duration": 0.105,
      "velocity": 98,
      "chip": "ym2612"
    },
    {
      "channel": 3,
      "note": 87,
      "start": 45.4436,
      "duration": 0.1794,
      "velocity": 98,
      "chip": "ym2612"
    },
    {
      "channel": 2,
      "note": 78,
      "start": 45.4469,
      "duration": 0.2095,
      "velocity": 98,
      "chip": "ym2612"
    },
    {
      "channel": 4,
      "note": 49,
      "start": 45.6267,
      "duration": 0.1798,
      "velocity": 125,
      "chip": "ym2612"
    },
    {
      "channel": 3,
      "note": 88,
      "start": 45.6614,
      "duration": 0.3116,
      "velocity": 98,
      "chip": "ym2612"
    },
    {
      "channel": 2,
      "note": 79,
      "start": 45.6644,
      "duration": 0.3256,
      "velocity": 98,
      "chip": "ym2612"
    },
    {
      "channel": 0,
      "note": 56,
      "start": 45.7596,
      "duration": 0.13,
      "velocity": 98,
      "chip": "ym2612"
    },
    {
      "channel": 5,
      "note": 45,
      "start": 45.7627,
      "duration": 0.0273,
      "velocity": 122,
      "chip": "ym2612"
    },
    {
      "channel": 0,
      "note": 55,
      "start": 45.9764,
      "duration": 0.0799,
      "velocity": 98,
      "chip": "ym2612"
    },
    {
      "channel": 0,
      "note": 57,
      "start": 46.0763,
      "duration": 0.2466,
      "velocity": 98,
      "chip": "ym2612"
    },
    {
      "channel": 5,
      "note": 45,
      "start": 46.0791,
      "duration": 0.1107,
      "velocity": 122,
      "chip": "ym2612"
    },
    {
      "channel": 3,
      "note": 71,
      "start": 46.0844,
      "duration": 0.1053,
      "velocity": 103,
      "chip": "ym2612"
    },
    {
      "channel": 2,
      "note": 67,
      "start": 46.0873,
      "duration": 0.1027,
      "velocity": 103,
      "chip": "ym2612"
    },
    {
      "channel": 1,
      "note": 57,
      "start": 46.1936,
      "duration": 0.0461,
      "velocity": 83,
      "chip": "ym2612"
    },
    {
      "channel": 1,
      "note": 45,
      "start": 46.2934,
      "duration": 0.0461,
      "velocity": 83,
      "chip": "ym2612"
    },
    {
      "channel": 0,
      "note": 55,
      "start": 46.3931,
      "duration": 0.2965,
      "velocity": 98,
      "chip": "ym2612"
    },
    {
      "channel": 5,
      "note": 45,
      "start": 46.396,
      "duration": 0.027,
      "velocity": 122,
      "chip": "ym2612"
    },
    {
      "channel": 1,
      "note": 45,
      "start": 46.3991,
      "duration": 0.1572,
      "velocity": 83,
      "chip": "ym2612"
    },
    {
      "channel": 3,
      "note": 69,
      "start": 46.6103,
      "duration": 0.0461,
      "velocity": 103,
      "chip": "ym2612"
    },
    {
      "channel": 2,
      "note": 72,
      "start": 46.6131,
      "duration": 0.0435,
      "velocity": 103,
      "chip": "ym2612"
    },
    {
      "channel": 0,
      "note": 57,
      "start": 46.7259,
      "duration": 0.2803,
      "velocity": 98,
      "chip": "ym2612"
    },
    {
      "channel": 4,
      "note": 49,
      "start": 46.7294,
      "duration": 0.1436,
      "velocity": 125,
      "chip": "ym2612"
    },
    {
      "channel": 1,
      "note": 45,
      "start": 46.9266,
      "duration": 0.0629,
      "velocity": 83,
      "chip": "ym2612"
    },
    {
      "channel": 0,
      "note": 55,
      "start": 47.043,
      "duration": 0.1299,
      "velocity": 98,
      "chip": "ym2612"
    },
    {
      "channel": 1,
      "note": 57,
      "start": 47.0462,
      "duration": 0.0767,
      "velocity": 83,
      "chip": "ym2612"
    },
    {
      "channel": 5,
      "note": 49,
      "start": 47.1932,
      "duration": 0.03,
      "velocity": 116,
      "chip": "ym2612"
    },
    {
      "channel": 0,
      "note": 51,
      "start": 47.2596,
      "duration": 0.0633,
      "velocity": 98,
      "chip": "ym2612"
    },
    {
      "channel": 3,
      "note": 71,
      "start": 47.2631,
      "duration": 0.06,
      "velocity": 103,
      "chip": "ym2612"
    },
    {
      "channel": 2,
      "note": 67,
      "start": 47.2659,
      "duration": 0.0574,
      "velocity": 103,
      "chip": "ym2612"
    },
    {
      "channel": 0,
      "note": 50,
      "start": 47.3596,
      "duration": 0.2632,
      "velocity": 98,
      "chip": "ym2612"
    },
    {
      "channel": 5,
      "note": 49,
      "start": 47.5267,
      "duration": 0.013,
      "velocity": 116,
      "chip": "ym2612"
    },
    {
      "channel": 0,
      "note": 51,
      "start": 47.676,
      "duration": 0.2636,
      "velocity": 98,
      "chip": "ym2612"
    },
    {
      "channel": 4,
      "note": 45,
      "start": 47.6794,
      "duration": 0.1104,
      "velocity": 122,
      "chip": "ym2612"
    },
    {
      "channel": 1,
      "note": 57,
      "start": 47.7935,
      "duration": 0.0462,
      "velocity": 83,
      "chip": "ym2612"
    },
    {
      "channel": 1,
      "note": 45,
      "start": 47.8932,
      "duration": 0.0464,
      "velocity": 83,
      "chip": "ym2612"
    },
    {
      "channel": 0,
      "note": 50,
      "start": 47.9928,
      "duration": 0.2968,
      "velocity": 98,
      "chip": "ym2612"
    },
    {
      "channel": 3,
      "note": 49,
      "start": 47.9959,
      "duration": 0.1604,
      "velocity": 125,
      "chip": "ym2612"
    },
    {
      "channel": 2,
      "note": 69,
      "start": 48.0004,
      "duration": 0.1061,
      "velocity": 103,
      "chip": "ym2612"
    },
    {
      "channel": 5,
      "note": 84,
      "start": 48.0034,
      "duration": 0.0531,
      "velocity": 87,
      "chip": "ym2612"
    },
    {
      "channel": 2,
      "note": 67,
      "start": 48.1106,
      "duration": 0.0793,
      "velocity": 103,
      "chip": "ym2612"
    },
    {
      "channel": 5,
      "note": 83,
      "start": 48.1134,
      "duration": 0.0763,
      "velocity": 87,
      "chip": "ym2612"
    },
    {
      "channel": 2,
      "note": 64,
      "start": 48.2103,
      "duration": 0.0796,
      "velocity": 103,
      "chip": "ym2612"
    },
    {
      "channel": 5,
      "note": 79,
      "start": 48.2132,
      "duration": 0.0432,
      "velocity": 87,
      "chip": "ym2612"
    },
    {
      "channel": 0,
      "note": 51,
      "start": 48.3266,
      "duration": 0.1796,
      "velocity": 98,
      "chip": "ym2612"
    },
    {
      "channel": 4,
      "note": 45,
      "start": 48.3295,
      "duration": 0.0102,
      "velocity": 122,
      "chip": "ym2612"
    },
    {
      "channel": 2,
      "note": 62,
      "start": 48.3331,
      "duration": 0.0901,
      "velocity": 103,
      "chip": "ym2612"
    },
    {
      "channel": 5,
      "note": 78,
      "start": 48.3359,
      "duration": 0.0539,
      "velocity": 87,
      "chip": "ym2612"
    },
    {
      "channel": 2,
      "note": 64,
      "start": 48.4272,
      "duration": 0.0794,
      "velocity": 103,
      "chip": "ym2612"
    },
    {
      "channel": 5,
      "note": 79,
      "start": 48.4298,
      "duration": 0.0766,
      "velocity": 87,
      "chip": "ym2612"
    },
    {
      "channel": 0,
      "note": 57,
      "start": 48.5273,
      "duration": 0.029,
      "velocity": 127,
      "chip": "ym2612"
    },
    {
      "channel": 2,
      "note": 67,
      "start": 48.5308,
      "duration": 0.0758,
      "velocity": 103,
      "chip": "ym2612"
    },
    {
      "channel": 5,
      "note": 83,
      "start": 48.5341,
      "duration": 0.0723,
      "velocity": 87,
      "chip": "ym2612"
    },
    {
      "channel": 0,
      "note": 57,
      "start": 48.6426,
      "duration": 0.0136,
      "velocity": 127,
      "chip": "ym2612"
    },
    {
      "channel": 4,
      "note": 45,
      "start": 48.6455,
      "duration": 0.1276,
      "velocity": 122,
      "chip": "ym2612"
    },
    {
      "channel": 1,
      "note": 69,
      "start": 48.6494,
      "duration": 0.1735,
      "velocity": 83,
      "chip": "ym2612"
    },
    {
      "channel": 3,
      "note": 57,
      "start": 48.6523,
      "duration": 0.1374,
      "velocity": 83,
      "chip": "ym2612"
    },
    {
      "channel": 0,
      "note": 57,
      "start": 48.6928,
      "duration": 0.2302,
      "velocity": 127,
      "chip": "ym2612"
    },
    {
      "channel": 5,
      "note": 52,
      "start": 48.8598,
      "duration": 0.1301,
      "velocity": 127,
      "chip": "ym2612"
    },
    {
      "channel": 1,
      "note": 57,
      "start": 48.863,
      "duration": 0.0433,
      "velocity": 83,
      "chip": "ym2612"
    },
    {
      "channel": 3,
      "note": 45,
      "start": 48.8658,
      "duration": 0.0905,
      "velocity": 83,
      "chip": "ym2612"
    },
    {
      "channel": 0,
      "note": 55,
      "start": 48.9598,
      "duration": 0.0298,
      "velocity": 127,
      "chip": "ym2612"
    },
    {
      "channel": 1,
      "note": 67,
      "start": 48.9634,
      "duration": 0.1596,
      "velocity": 83,
      "chip": "ym2612"
    },
    {
      "channel": 3,
      "note": 55,
      "start": 48.9661,
      "duration": 0.1235,
      "velocity": 83,
      "chip": "ym2612"
    },
    {
      "channel": 0,
      "note": 55,
      "start": 49.0094,
      "duration": 0.1135,
      "velocity": 127,
      "chip": "ym2612"
    },
    {
      "channel": 2,
      "note": 49,
      "start": 49.1435,
      "duration": 0.1132,
      "velocity": 125,
      "chip": "ym2612"
    },
    {
      "channel": 0,
      "note": 50,
      "start": 49.1761,
      "duration": 0.4135,
      "velocity": 127,
      "chip": "ym2612"
    },
    {
      "channel": 1,
      "note": 60,
      "start": 49.1793,
      "duration": 0.077,
      "velocity": 83,
      "chip": "ym2612"
    },
    {
      "channel": 3,
      "note": 48,
      "start": 49.1818,
      "duration": 0.0746,
      "velocity": 83,
      "chip": "ym2612"
    },
    {
      "channel": 1,
      "note": 50,
      "start": 49.2767,
      "duration": 0.1796,
      "velocity": 83,
      "chip": "ym2612"
    },
    {
      "channel": 3,
      "note": 62,
      "start": 49.2792,
      "duration": 0.1772,
      "velocity": 83,
      "chip": "ym2612"
    },
    {
      "channel": 1,
      "note": 45,
      "start": 49.4938,
      "duration": 0.0791,
      "velocity": 83,
      "chip": "ym2612"
    },
    {
      "channel": 4,
      "note": 45,
      "start": 49.5931,
      "duration": 0.03,
      "velocity": 122,
      "chip": "ym2612"
    },
    {
      "channel": 1,
      "note": 51,
      "start": 49.5962,
      "duration": 0.0601,
      "velocity": 83,
      "chip": "ym2612"
    },
    {
      "channel": 3,
      "note": 63,
      "start": 49.599,
      "duration": 0.074,
      "velocity": 83,
      "chip": "ym2612"
    },
    {
      "channel": 4,
      "note": 45,
      "start": 49.793,
      "duration": 0.0969,
      "velocity": 122,
      "chip": "ym2612"
    },
    {
      "channel": 2,
      "note": 49,
      "start": 49.7962,
      "duration": 0.1269,
      "velocity": 125,
      "chip": "ym2612"
    },
    {
      "channel": 0,
      "note": 52,
      "start": 49.8095,
      "duration": 0.2468,
      "velocity": 127,
      "chip": "ym2612"
    },
    {
      "channel": 1,
      "note": 64,
      "start": 49.8125,
      "duration": 0.0771,
      "velocity": 83,
      "chip": "ym2612"
    },
    {
      "channel": 3,
      "note": 52,
      "start": 49.8151,
      "duration": 0.0747,
      "velocity": 83,
      "chip": "ym2612"
    },
    {
      "channel": 1,
      "note": 64,
      "start": 50.1277,
      "duration": 0.062,
      "velocity": 83,
      "chip": "ym2612"
    },
    {
      "channel": 1,
      "note": 48,
      "start": 50.2432,
      "duration": 0.0131,
      "velocity": 83,
      "chip": "ym2612"
    },
    {
      "channel": 1,
      "note": 64,
      "start": 50.343,
      "duration": 0.03,
      "velocity": 83,
      "chip": "ym2612"
    },
    {
      "channel": 1,
      "note": 48,
      "start": 50.4596,
      "duration": 0.0133,
      "velocity": 83,
      "chip": "ym2612"
    },
    {
      "channel": 1,
      "note": 67,
      "start": 50.56,
      "duration": 0.0963,
      "velocity": 83,
      "chip": "ym2612"
    },
    {
      "channel": 3,
      "note": 48,
      "start": 50.5627,
      "duration": 0.0436,
      "velocity": 83,
      "chip": "ym2612"
    },
    {
      "channel": 4,
      "note": 45,
      "start": 50.7434,
      "duration": 0.2632,
      "velocity": 122,
      "chip": "ym2612"
    },
    {
      "channel": 1,
      "note": 66,
      "start": 50.8766,
      "duration": 0.3131,
      "velocity": 83,
      "chip": "ym2612"
    },
    {
      "channel": 3,
      "note": 48,
      "start": 50.8795,
      "duration": 0.3103,
      "velocity": 83,
      "chip": "ym2612"
    },
    {
      "channel": 0,
      "note": 57,
      "start": 51.2027,
      "duration": 0.0,
      "velocity": 98,
      "chip": "ym2612"
    }
  ]
}